0, 0, Header, 1, 15, 120
1, 0, Start_track
1, 0, Title_t, "untitled"
1, 0, Time_signature, 3, 2, 24, 8
1, 0, Key_signature, -3, "major"
1, 0, Tempo, 240000
1, 1436, Tempo, 877193
1, 1438, Tempo, 854701
1, 1440, Tempo, 1000000
1, 1441, Tempo, 862069
1, 9360, Key_signature, -4, "major"
1, 18720, Tempo, 333333
1, 40320, Tempo, 352941
1, 40680, Tempo, 333333
1, 41760, Tempo, 352941
1, 42120, Tempo, 333333
1, 42480, Tempo, 357143
1, 42600, Tempo, 355030
1, 42720, Tempo, 355030
1, 42840, Tempo, 352941
1, 42960, Tempo, 352941
1, 43080, Tempo, 350877
1, 43320, Tempo, 348837
1, 43440, Tempo, 346821
1, 43680, Tempo, 344828
1, 43800, Tempo, 344828
1, 43920, Tempo, 342857
1, 44040, Tempo, 342857
1, 44160, Tempo, 340909
1, 44280, Tempo, 338983
1, 44400, Tempo, 338983
1, 44520, Tempo, 337079
1, 44760, Tempo, 335196
1, 44880, Tempo, 335196
1, 45000, Tempo, 333333
1, 104040, Time_signature, 2, 2, 24, 8
1, 110160, Tempo, 666667
1, 110520, Tempo, 416667
1, 113040, Tempo, 1000000
1, 113400, Tempo, 375000
1, 113400, End_track
2, 0, Start_track
2, 0, Title_t, "2 Flauti"
2, 0, Program_c, 0, 73
2, 0, Control_c, 0, 7, 80
2, 0, Control_c, 0, 10, 49
2, 1440, Note_on_c, 0, 65, 127
2, 1440, Note_on_c, 0, 77, 127
2, 2016, Note_on_c, 0, 77, 0
2, 2016, Note_on_c, 0, 65, 0
2, 7200, Note_on_c, 0, 77, 70
2, 7200, Note_on_c, 0, 89, 70
2, 7776, Note_on_c, 0, 89, 0
2, 7776, Note_on_c, 0, 77, 0
2, 7920, Note_on_c, 0, 77, 127
2, 7920, Note_on_c, 0, 80, 127
2, 8112, Note_on_c, 0, 80, 0
2, 8112, Note_on_c, 0, 77, 0
2, 8160, Note_on_c, 0, 77, 127
2, 8160, Note_on_c, 0, 80, 127
2, 8352, Note_on_c, 0, 80, 0
2, 8352, Note_on_c, 0, 77, 0
2, 8580, Note_on_c, 0, 77, 127
2, 8580, Note_on_c, 0, 80, 127
2, 8628, Note_on_c, 0, 80, 0
2, 8628, Note_on_c, 0, 77, 0
2, 8640, Note_on_c, 0, 79, 127
2, 8640, Note_on_c, 0, 82, 127
2, 8832, Note_on_c, 0, 82, 0
2, 8832, Note_on_c, 0, 79, 0
2, 8880, Note_on_c, 0, 80, 127
2, 8880, Note_on_c, 0, 84, 127
2, 9072, Note_on_c, 0, 84, 0
2, 9072, Note_on_c, 0, 80, 0
2, 10200, Note_on_c, 0, 87, 50
2, 10320, Note_on_c, 0, 87, 0
2, 10320, Note_on_c, 0, 85, 50
2, 10440, Note_on_c, 0, 85, 0
2, 10440, Note_on_c, 0, 84, 50
2, 10560, Note_on_c, 0, 84, 0
2, 10560, Note_on_c, 0, 85, 50
2, 10680, Note_on_c, 0, 85, 0
2, 10680, Note_on_c, 0, 82, 50
2, 10776, Note_on_c, 0, 82, 0
2, 10800, Note_on_c, 0, 80, 50
2, 11040, Note_on_c, 0, 80, 0
2, 11040, Note_on_c, 0, 78, 50
2, 11400, Note_on_c, 0, 78, 0
2, 11400, Note_on_c, 0, 75, 50
2, 11520, Note_on_c, 0, 75, 0
2, 11520, Note_on_c, 0, 73, 50
2, 11616, Note_on_c, 0, 73, 0
2, 13080, Note_on_c, 0, 87, 50
2, 13176, Note_on_c, 0, 87, 0
2, 13200, Note_on_c, 0, 89, 50
2, 13248, Note_on_c, 0, 89, 0
2, 13260, Note_on_c, 0, 87, 50
2, 13308, Note_on_c, 0, 87, 0
2, 13320, Note_on_c, 0, 85, 50
2, 13368, Note_on_c, 0, 85, 0
2, 13380, Note_on_c, 0, 84, 50
2, 13428, Note_on_c, 0, 84, 0
2, 13440, Note_on_c, 0, 84, 50
2, 13536, Note_on_c, 0, 84, 0
2, 13800, Note_on_c, 0, 87, 50
2, 13896, Note_on_c, 0, 87, 0
2, 13920, Note_on_c, 0, 89, 50
2, 13968, Note_on_c, 0, 89, 0
2, 13980, Note_on_c, 0, 87, 50
2, 14028, Note_on_c, 0, 87, 0
2, 14040, Note_on_c, 0, 85, 50
2, 14088, Note_on_c, 0, 85, 0
2, 14100, Note_on_c, 0, 84, 50
2, 14148, Note_on_c, 0, 84, 0
2, 14160, Note_on_c, 0, 84, 50
2, 14256, Note_on_c, 0, 84, 0
2, 14520, Note_on_c, 0, 85, 50
2, 14616, Note_on_c, 0, 85, 0
2, 14640, Note_on_c, 0, 87, 50
2, 14688, Note_on_c, 0, 87, 0
2, 14700, Note_on_c, 0, 85, 50
2, 14748, Note_on_c, 0, 85, 0
2, 14760, Note_on_c, 0, 84, 50
2, 14808, Note_on_c, 0, 84, 0
2, 14820, Note_on_c, 0, 82, 50
2, 14868, Note_on_c, 0, 82, 0
2, 14880, Note_on_c, 0, 82, 50
2, 14976, Note_on_c, 0, 82, 0
2, 23640, Note_on_c, 0, 89, 64
2, 23736, Note_on_c, 0, 89, 0
2, 23760, Note_on_c, 0, 87, 80
2, 23952, Note_on_c, 0, 87, 0
2, 24000, Note_on_c, 0, 85, 64
2, 24096, Note_on_c, 0, 85, 0
2, 24120, Note_on_c, 0, 84, 56
2, 24216, Note_on_c, 0, 84, 0
2, 24840, Note_on_c, 0, 80, 56
2, 24840, Note_on_c, 0, 84, 56
2, 24936, Note_on_c, 0, 84, 0
2, 24936, Note_on_c, 0, 80, 0
2, 28200, Note_on_c, 0, 76, 91
2, 28200, Note_on_c, 0, 85, 91
2, 28296, Note_on_c, 0, 85, 0
2, 28296, Note_on_c, 0, 76, 0
2, 28560, Note_on_c, 0, 85, 96
2, 28560, Note_on_c, 0, 76, 96
2, 28656, Note_on_c, 0, 76, 0
2, 28656, Note_on_c, 0, 85, 0
2, 28920, Note_on_c, 0, 85, 101
2, 28920, Note_on_c, 0, 76, 101
2, 29016, Note_on_c, 0, 76, 0
2, 29016, Note_on_c, 0, 85, 0
2, 29280, Note_on_c, 0, 85, 106
2, 29280, Note_on_c, 0, 76, 106
2, 29376, Note_on_c, 0, 76, 0
2, 29376, Note_on_c, 0, 85, 0
2, 29640, Note_on_c, 0, 85, 111
2, 29640, Note_on_c, 0, 76, 111
2, 29736, Note_on_c, 0, 76, 0
2, 29736, Note_on_c, 0, 85, 0
2, 30000, Note_on_c, 0, 85, 116
2, 30000, Note_on_c, 0, 76, 116
2, 30096, Note_on_c, 0, 76, 0
2, 30096, Note_on_c, 0, 85, 0
2, 30360, Note_on_c, 0, 76, 121
2, 30360, Note_on_c, 0, 85, 121
2, 30456, Note_on_c, 0, 85, 0
2, 30456, Note_on_c, 0, 76, 0
2, 30720, Note_on_c, 0, 84, 127
2, 30720, Note_on_c, 0, 76, 127
2, 30816, Note_on_c, 0, 76, 0
2, 30816, Note_on_c, 0, 84, 0
2, 30840, Note_on_c, 0, 84, 127
2, 30840, Note_on_c, 0, 89, 127
2, 31776, Note_on_c, 0, 89, 0
2, 31776, Note_on_c, 0, 84, 0
2, 31800, Note_on_c, 0, 84, 121
2, 31800, Note_on_c, 0, 89, 121
2, 31896, Note_on_c, 0, 89, 0
2, 31896, Note_on_c, 0, 84, 0
2, 31920, Note_on_c, 0, 84, 120
2, 31920, Note_on_c, 0, 89, 120
2, 32016, Note_on_c, 0, 89, 0
2, 32016, Note_on_c, 0, 84, 0
2, 32040, Note_on_c, 0, 88, 119
2, 32040, Note_on_c, 0, 84, 119
2, 32136, Note_on_c, 0, 84, 0
2, 32136, Note_on_c, 0, 88, 0
2, 32280, Note_on_c, 0, 88, 117
2, 32280, Note_on_c, 0, 84, 117
2, 33216, Note_on_c, 0, 84, 0
2, 33216, Note_on_c, 0, 88, 0
2, 33240, Note_on_c, 0, 84, 110
2, 33240, Note_on_c, 0, 88, 110
2, 33336, Note_on_c, 0, 88, 0
2, 33336, Note_on_c, 0, 84, 0
2, 33360, Note_on_c, 0, 84, 109
2, 33360, Note_on_c, 0, 88, 109
2, 33456, Note_on_c, 0, 88, 0
2, 33456, Note_on_c, 0, 84, 0
2, 33480, Note_on_c, 0, 84, 108
2, 33480, Note_on_c, 0, 89, 108
2, 33576, Note_on_c, 0, 89, 0
2, 33576, Note_on_c, 0, 84, 0
2, 33840, Note_on_c, 0, 77, 106
2, 33840, Note_on_c, 0, 89, 106
2, 33936, Note_on_c, 0, 89, 0
2, 33936, Note_on_c, 0, 77, 0
2, 34200, Note_on_c, 0, 77, 103
2, 34200, Note_on_c, 0, 89, 103
2, 34296, Note_on_c, 0, 89, 0
2, 34296, Note_on_c, 0, 77, 0
2, 34560, Note_on_c, 0, 91, 100
2, 34560, Note_on_c, 0, 89, 100
2, 34656, Note_on_c, 0, 89, 0
2, 34656, Note_on_c, 0, 91, 0
2, 34680, Note_on_c, 0, 91, 109
2, 34680, Note_on_c, 0, 89, 109
2, 34776, Note_on_c, 0, 89, 0
2, 34776, Note_on_c, 0, 91, 0
2, 34800, Note_on_c, 0, 91, 118
2, 34800, Note_on_c, 0, 89, 118
2, 34896, Note_on_c, 0, 89, 0
2, 34896, Note_on_c, 0, 91, 0
2, 34920, Note_on_c, 0, 89, 127
2, 35016, Note_on_c, 0, 89, 0
2, 35280, Note_on_c, 0, 77, 104
2, 35280, Note_on_c, 0, 89, 104
2, 35376, Note_on_c, 0, 89, 0
2, 35376, Note_on_c, 0, 77, 0
2, 35640, Note_on_c, 0, 77, 112
2, 35640, Note_on_c, 0, 89, 112
2, 35736, Note_on_c, 0, 89, 0
2, 35736, Note_on_c, 0, 77, 0
2, 35880, Note_on_c, 0, 84, 117
2, 35880, Note_on_c, 0, 89, 117
2, 35976, Note_on_c, 0, 89, 0
2, 35976, Note_on_c, 0, 84, 0
2, 36000, Note_on_c, 0, 85, 119
2, 36000, Note_on_c, 0, 92, 119
2, 36096, Note_on_c, 0, 92, 0
2, 36096, Note_on_c, 0, 85, 0
2, 36120, Note_on_c, 0, 85, 122
2, 36120, Note_on_c, 0, 92, 122
2, 36216, Note_on_c, 0, 92, 0
2, 36216, Note_on_c, 0, 85, 0
2, 36240, Note_on_c, 0, 86, 124
2, 36240, Note_on_c, 0, 92, 124
2, 36336, Note_on_c, 0, 92, 0
2, 36336, Note_on_c, 0, 86, 0
2, 36360, Note_on_c, 0, 87, 80
2, 36360, Note_on_c, 0, 91, 80
2, 36648, Note_on_c, 0, 91, 0
2, 36648, Note_on_c, 0, 87, 0
2, 36720, Note_on_c, 0, 87, 80
2, 36720, Note_on_c, 0, 92, 80
2, 37008, Note_on_c, 0, 92, 0
2, 37008, Note_on_c, 0, 87, 0
2, 37080, Note_on_c, 0, 89, 80
2, 37080, Note_on_c, 0, 92, 80
2, 37368, Note_on_c, 0, 92, 0
2, 37368, Note_on_c, 0, 89, 0
2, 37440, Note_on_c, 0, 91, 80
2, 37440, Note_on_c, 0, 87, 80
2, 37536, Note_on_c, 0, 87, 0
2, 37536, Note_on_c, 0, 91, 0
2, 37560, Note_on_c, 0, 82, 80
2, 37560, Note_on_c, 0, 87, 80
2, 37656, Note_on_c, 0, 87, 0
2, 37656, Note_on_c, 0, 82, 0
2, 37680, Note_on_c, 0, 82, 80
2, 37680, Note_on_c, 0, 87, 80
2, 37776, Note_on_c, 0, 87, 0
2, 37776, Note_on_c, 0, 82, 0
2, 37800, Note_on_c, 0, 82, 80
2, 37800, Note_on_c, 0, 87, 80
2, 38088, Note_on_c, 0, 87, 0
2, 38088, Note_on_c, 0, 82, 0
2, 38160, Note_on_c, 0, 84, 80
2, 38160, Note_on_c, 0, 87, 80
2, 38448, Note_on_c, 0, 87, 0
2, 38448, Note_on_c, 0, 84, 0
2, 38520, Note_on_c, 0, 86, 80
2, 38520, Note_on_c, 0, 89, 80
2, 38808, Note_on_c, 0, 89, 0
2, 38808, Note_on_c, 0, 86, 0
2, 38880, Control_c, 0, 91, 112
2, 38880, Note_on_c, 0, 87, 80
2, 38976, Note_on_c, 0, 87, 0
2, 40320, Note_on_c, 0, 87, 50
2, 40416, Note_on_c, 0, 87, 0
2, 40440, Note_on_c, 0, 84, 50
2, 40536, Note_on_c, 0, 84, 0
2, 40560, Note_on_c, 0, 92, 50
2, 40656, Note_on_c, 0, 92, 0
2, 41760, Note_on_c, 0, 87, 50
2, 41856, Note_on_c, 0, 87, 0
2, 41880, Note_on_c, 0, 84, 50
2, 41976, Note_on_c, 0, 84, 0
2, 42000, Note_on_c, 0, 92, 50
2, 42096, Note_on_c, 0, 92, 0
2, 42840, Note_on_c, 0, 88, 50
2, 42840, Control_c, 0, 91, 64
2, 42840, Note_on_c, 0, 85, 50
2, 43128, Note_on_c, 0, 85, 0
2, 43128, Note_on_c, 0, 88, 0
2, 43200, Note_on_c, 0, 90, 52
2, 43200, Note_on_c, 0, 86, 52
2, 43296, Note_on_c, 0, 86, 0
2, 43296, Note_on_c, 0, 90, 0
2, 43320, Note_on_c, 0, 92, 53
2, 43320, Note_on_c, 0, 88, 53
2, 43416, Note_on_c, 0, 88, 0
2, 43416, Note_on_c, 0, 92, 0
2, 43440, Note_on_c, 0, 93, 54
2, 43440, Note_on_c, 0, 90, 54
2, 43536, Note_on_c, 0, 90, 0
2, 43536, Note_on_c, 0, 93, 0
2, 43560, Note_on_c, 0, 85, 55
2, 43560, Note_on_c, 0, 88, 55
2, 43848, Note_on_c, 0, 88, 0
2, 43848, Note_on_c, 0, 85, 0
2, 43920, Note_on_c, 0, 86, 58
2, 43920, Note_on_c, 0, 90, 58
2, 44016, Note_on_c, 0, 90, 0
2, 44016, Note_on_c, 0, 86, 0
2, 44040, Note_on_c, 0, 88, 59
2, 44040, Note_on_c, 0, 92, 59
2, 44136, Note_on_c, 0, 92, 0
2, 44136, Note_on_c, 0, 88, 0
2, 44160, Note_on_c, 0, 90, 60
2, 44160, Note_on_c, 0, 93, 60
2, 44256, Note_on_c, 0, 93, 0
2, 44256, Note_on_c, 0, 90, 0
2, 44280, Note_on_c, 0, 88, 61
2, 44280, Note_on_c, 0, 85, 61
2, 44568, Note_on_c, 0, 85, 0
2, 44568, Note_on_c, 0, 88, 0
2, 44640, Note_on_c, 0, 89, 64
2, 44640, Note_on_c, 0, 86, 64
2, 45192, Note_on_c, 0, 86, 0
2, 45192, Note_on_c, 0, 89, 0
2, 45360, Note_on_c, 0, 85, 70
2, 45360, Note_on_c, 0, 87, 70
2, 45648, Note_on_c, 0, 87, 0
2, 45648, Note_on_c, 0, 85, 0
2, 45720, Note_on_c, 0, 87, 95
2, 45720, Note_on_c, 0, 84, 95
2, 45816, Note_on_c, 0, 84, 0
2, 45816, Note_on_c, 0, 87, 0
2, 45840, Note_on_c, 0, 84, 95
2, 45840, Note_on_c, 0, 80, 95
2, 45936, Note_on_c, 0, 80, 0
2, 45936, Note_on_c, 0, 84, 0
2, 45960, Note_on_c, 0, 84, 95
2, 45960, Note_on_c, 0, 92, 95
2, 46056, Note_on_c, 0, 84, 0
2, 46080, Note_on_c, 0, 89, 95
2, 46176, Note_on_c, 0, 89, 0
2, 46176, Note_on_c, 0, 92, 0
2, 46200, Note_on_c, 0, 85, 95
2, 46200, Note_on_c, 0, 89, 95
2, 46296, Note_on_c, 0, 89, 0
2, 46296, Note_on_c, 0, 85, 0
2, 46320, Note_on_c, 0, 85, 95
2, 46320, Note_on_c, 0, 89, 95
2, 46536, Note_on_c, 0, 89, 0
2, 46536, Note_on_c, 0, 85, 0
2, 46560, Note_on_c, 0, 82, 95
2, 46560, Note_on_c, 0, 85, 95
2, 46656, Note_on_c, 0, 85, 0
2, 46656, Note_on_c, 0, 82, 0
2, 46680, Note_on_c, 0, 82, 95
2, 46680, Note_on_c, 0, 85, 95
2, 46896, Note_on_c, 0, 85, 0
2, 46896, Note_on_c, 0, 82, 0
2, 46920, Note_on_c, 0, 82, 95
2, 46920, Note_on_c, 0, 87, 95
2, 47016, Note_on_c, 0, 87, 0
2, 47016, Note_on_c, 0, 82, 0
2, 47040, Note_on_c, 0, 82, 95
2, 47040, Note_on_c, 0, 87, 95
2, 47136, Note_on_c, 0, 87, 0
2, 47136, Note_on_c, 0, 82, 0
2, 47160, Note_on_c, 0, 80, 95
2, 47256, Note_on_c, 0, 80, 0
2, 47880, Note_on_c, 0, 80, 80
2, 47880, Note_on_c, 0, 84, 80
2, 47976, Note_on_c, 0, 84, 0
2, 47976, Note_on_c, 0, 80, 0
2, 48600, Note_on_c, 0, 84, 80
2, 48600, Note_on_c, 0, 87, 80
2, 48696, Note_on_c, 0, 87, 0
2, 48696, Note_on_c, 0, 84, 0
2, 49080, Note_on_c, 0, 84, 114
2, 49080, Note_on_c, 0, 87, 114
2, 49176, Note_on_c, 0, 87, 0
2, 49176, Note_on_c, 0, 84, 0
2, 49200, Note_on_c, 0, 84, 120
2, 49200, Note_on_c, 0, 87, 120
2, 49296, Note_on_c, 0, 87, 0
2, 49296, Note_on_c, 0, 84, 0
2, 49320, Note_on_c, 0, 87, 127
2, 49560, Note_on_c, 0, 79, 127
2, 49656, Note_on_c, 0, 79, 0
2, 49656, Note_on_c, 0, 87, 0
2, 49680, Note_on_c, 0, 87, 127
2, 49920, Note_on_c, 0, 79, 127
2, 50016, Note_on_c, 0, 79, 0
2, 50016, Note_on_c, 0, 87, 0
2, 50040, Note_on_c, 0, 87, 127
2, 50280, Note_on_c, 0, 80, 127
2, 50376, Note_on_c, 0, 80, 0
2, 50376, Note_on_c, 0, 87, 0
2, 50400, Note_on_c, 0, 87, 127
2, 50640, Note_on_c, 0, 79, 127
2, 50736, Note_on_c, 0, 79, 0
2, 50736, Note_on_c, 0, 87, 0
2, 50760, Note_on_c, 0, 87, 127
2, 51000, Note_on_c, 0, 80, 127
2, 51096, Note_on_c, 0, 80, 0
2, 51096, Note_on_c, 0, 87, 0
2, 51120, Note_on_c, 0, 87, 127
2, 51312, Note_on_c, 0, 87, 0
2, 51360, Note_on_c, 0, 82, 127
2, 51360, Note_on_c, 0, 91, 127
2, 51456, Note_on_c, 0, 91, 0
2, 51456, Note_on_c, 0, 82, 0
2, 51480, Note_on_c, 0, 84, 127
2, 51480, Note_on_c, 0, 92, 127
2, 51576, Note_on_c, 0, 92, 0
2, 51576, Note_on_c, 0, 84, 0
2, 52800, Control_c, 0, 7, 88
2, 52800, Note_on_c, 0, 84, 50
2, 52896, Note_on_c, 0, 84, 0
2, 52920, Note_on_c, 0, 87, 50
2, 53016, Note_on_c, 0, 87, 0
2, 53040, Note_on_c, 0, 85, 50
2, 53136, Note_on_c, 0, 85, 0
2, 53160, Note_on_c, 0, 82, 50
2, 53256, Note_on_c, 0, 82, 0
2, 53280, Note_on_c, 0, 79, 50
2, 53376, Note_on_c, 0, 79, 0
2, 54240, Note_on_c, 0, 82, 127
2, 54240, Note_on_c, 0, 87, 127
2, 54336, Note_on_c, 0, 87, 0
2, 54336, Note_on_c, 0, 82, 0
2, 54360, Note_on_c, 0, 84, 127
2, 54360, Note_on_c, 0, 87, 127
2, 54456, Note_on_c, 0, 87, 0
2, 54456, Note_on_c, 0, 84, 0
2, 55680, Note_on_c, 0, 87, 50
2, 55776, Note_on_c, 0, 87, 0
2, 55800, Note_on_c, 0, 89, 50
2, 55896, Note_on_c, 0, 89, 0
2, 55920, Note_on_c, 0, 87, 50
2, 56016, Note_on_c, 0, 87, 0
2, 56040, Note_on_c, 0, 84, 50
2, 56136, Note_on_c, 0, 84, 0
2, 56160, Note_on_c, 0, 81, 50
2, 56256, Note_on_c, 0, 81, 0
2, 57120, Note_on_c, 0, 89, 127
2, 57120, Note_on_c, 0, 84, 127
2, 57216, Note_on_c, 0, 84, 0
2, 57216, Note_on_c, 0, 89, 0
2, 57240, Note_on_c, 0, 89, 127
2, 57240, Note_on_c, 0, 85, 127
2, 57336, Note_on_c, 0, 85, 0
2, 57336, Note_on_c, 0, 89, 0
2, 58560, Note_on_c, 0, 85, 50
2, 58656, Note_on_c, 0, 85, 0
2, 58680, Note_on_c, 0, 89, 50
2, 58776, Note_on_c, 0, 89, 0
2, 58800, Note_on_c, 0, 87, 50
2, 58896, Note_on_c, 0, 87, 0
2, 58920, Note_on_c, 0, 84, 50
2, 59016, Note_on_c, 0, 84, 0
2, 59040, Note_on_c, 0, 81, 50
2, 59136, Note_on_c, 0, 81, 0
2, 60000, Note_on_c, 0, 89, 127
2, 60000, Note_on_c, 0, 84, 127
2, 60096, Note_on_c, 0, 84, 0
2, 60096, Note_on_c, 0, 89, 0
2, 60120, Note_on_c, 0, 85, 127
2, 60120, Note_on_c, 0, 89, 127
2, 60216, Note_on_c, 0, 89, 0
2, 60216, Note_on_c, 0, 85, 0
2, 61440, Note_on_c, 0, 89, 50
2, 61536, Note_on_c, 0, 89, 0
2, 61560, Note_on_c, 0, 91, 50
2, 61656, Note_on_c, 0, 91, 0
2, 61680, Note_on_c, 0, 89, 50
2, 61776, Note_on_c, 0, 89, 0
2, 66240, Control_c, 0, 7, 72
2, 66240, Note_on_c, 0, 84, 50
2, 66528, Note_on_c, 0, 84, 0
2, 66600, Note_on_c, 0, 84, 50
2, 66888, Note_on_c, 0, 84, 0
2, 66960, Note_on_c, 0, 84, 50
2, 68265, Note_on_c, 0, 84, 0
2, 68280, Note_on_c, 0, 84, 64
2, 68376, Note_on_c, 0, 84, 0
2, 68400, Note_on_c, 0, 84, 45
2, 68496, Note_on_c, 0, 84, 0
2, 68520, Note_on_c, 0, 84, 45
2, 68616, Note_on_c, 0, 84, 0
2, 68880, Note_on_c, 0, 84, 56
2, 68976, Note_on_c, 0, 84, 0
2, 69240, Note_on_c, 0, 84, 56
2, 69336, Note_on_c, 0, 84, 0
2, 69600, Note_on_c, 0, 84, 56
2, 69696, Note_on_c, 0, 84, 0
2, 69960, Note_on_c, 0, 84, 56
2, 70056, Note_on_c, 0, 84, 0
2, 70320, Note_on_c, 0, 84, 56
2, 70416, Note_on_c, 0, 84, 0
2, 70680, Note_on_c, 0, 84, 56
2, 70776, Note_on_c, 0, 84, 0
2, 71040, Note_on_c, 0, 84, 56
2, 71136, Note_on_c, 0, 84, 0
2, 71760, Note_on_c, 0, 84, 56
2, 71880, Note_on_c, 0, 84, 0
2, 71880, Note_on_c, 0, 77, 56
2, 71880, Note_on_c, 0, 89, 64
2, 72000, Note_on_c, 0, 89, 0
2, 72000, Note_on_c, 0, 87, 80
2, 72240, Note_on_c, 0, 87, 0
2, 72240, Note_on_c, 0, 85, 64
2, 72360, Note_on_c, 0, 85, 0
2, 72360, Note_on_c, 0, 84, 56
2, 72456, Note_on_c, 0, 84, 0
2, 72456, Note_on_c, 0, 77, 0
2, 73080, Note_on_c, 0, 84, 56
2, 73080, Note_on_c, 0, 80, 56
2, 73176, Note_on_c, 0, 80, 0
2, 73176, Note_on_c, 0, 84, 0
2, 76440, Note_on_c, 0, 85, 91
2, 76440, Note_on_c, 0, 76, 91
2, 76536, Note_on_c, 0, 76, 0
2, 76536, Note_on_c, 0, 85, 0
2, 76800, Note_on_c, 0, 76, 96
2, 76800, Note_on_c, 0, 85, 96
2, 76896, Note_on_c, 0, 85, 0
2, 76896, Note_on_c, 0, 76, 0
2, 77160, Note_on_c, 0, 76, 101
2, 77160, Note_on_c, 0, 85, 101
2, 77256, Note_on_c, 0, 85, 0
2, 77256, Note_on_c, 0, 76, 0
2, 77520, Note_on_c, 0, 76, 106
2, 77520, Note_on_c, 0, 85, 106
2, 77616, Note_on_c, 0, 85, 0
2, 77616, Note_on_c, 0, 76, 0
2, 77880, Note_on_c, 0, 76, 110
2, 77880, Note_on_c, 0, 85, 110
2, 77976, Note_on_c, 0, 85, 0
2, 77976, Note_on_c, 0, 76, 0
2, 78240, Note_on_c, 0, 76, 115
2, 78240, Note_on_c, 0, 85, 115
2, 78336, Note_on_c, 0, 85, 0
2, 78336, Note_on_c, 0, 76, 0
2, 78600, Note_on_c, 0, 85, 120
2, 78600, Note_on_c, 0, 76, 120
2, 78696, Note_on_c, 0, 76, 0
2, 78696, Note_on_c, 0, 85, 0
2, 78960, Note_on_c, 0, 84, 125
2, 78960, Note_on_c, 0, 75, 125
2, 79056, Note_on_c, 0, 75, 0
2, 79056, Note_on_c, 0, 84, 0
2, 79080, Note_on_c, 0, 89, 127
2, 79080, Note_on_c, 0, 84, 127
2, 80016, Note_on_c, 0, 84, 0
2, 80016, Note_on_c, 0, 89, 0
2, 80040, Note_on_c, 0, 89, 127
2, 80040, Note_on_c, 0, 84, 127
2, 80136, Note_on_c, 0, 84, 0
2, 80136, Note_on_c, 0, 89, 0
2, 80160, Note_on_c, 0, 89, 127
2, 80160, Note_on_c, 0, 84, 127
2, 80256, Note_on_c, 0, 84, 0
2, 80256, Note_on_c, 0, 89, 0
2, 80280, Note_on_c, 0, 88, 127
2, 80280, Note_on_c, 0, 84, 127
2, 80376, Note_on_c, 0, 84, 0
2, 80376, Note_on_c, 0, 88, 0
2, 80520, Note_on_c, 0, 88, 127
2, 80520, Note_on_c, 0, 84, 127
2, 81456, Note_on_c, 0, 84, 0
2, 81456, Note_on_c, 0, 88, 0
2, 81480, Note_on_c, 0, 84, 127
2, 81480, Note_on_c, 0, 88, 127
2, 81576, Note_on_c, 0, 88, 0
2, 81576, Note_on_c, 0, 84, 0
2, 81600, Note_on_c, 0, 84, 127
2, 81600, Note_on_c, 0, 88, 127
2, 81696, Note_on_c, 0, 88, 0
2, 81696, Note_on_c, 0, 84, 0
2, 81720, Note_on_c, 0, 89, 127
2, 81720, Note_on_c, 0, 84, 127
2, 81816, Note_on_c, 0, 84, 0
2, 81816, Note_on_c, 0, 89, 0
2, 82680, Note_on_c, 0, 89, 127
2, 82800, Note_on_c, 0, 89, 0
2, 82800, Note_on_c, 0, 87, 127
2, 83040, Note_on_c, 0, 87, 0
2, 83040, Note_on_c, 0, 85, 127
2, 83136, Note_on_c, 0, 85, 0
2, 83160, Note_on_c, 0, 84, 127
2, 83256, Note_on_c, 0, 84, 0
2, 84120, Note_on_c, 0, 89, 127
2, 84120, Note_on_c, 0, 85, 127
2, 84216, Note_on_c, 0, 85, 0
2, 84216, Note_on_c, 0, 89, 0
2, 84240, Note_on_c, 0, 85, 127
2, 84240, Note_on_c, 0, 73, 127
2, 84336, Note_on_c, 0, 73, 0
2, 84336, Note_on_c, 0, 85, 0
2, 84600, Note_on_c, 0, 85, 127
2, 84600, Note_on_c, 0, 73, 127
2, 84696, Note_on_c, 0, 73, 0
2, 84696, Note_on_c, 0, 85, 0
2, 84960, Note_on_c, 0, 85, 127
2, 84960, Note_on_c, 0, 73, 127
2, 85056, Note_on_c, 0, 73, 0
2, 85056, Note_on_c, 0, 85, 0
2, 85320, Note_on_c, 0, 85, 127
2, 85320, Note_on_c, 0, 82, 127
2, 85416, Note_on_c, 0, 82, 0
2, 85416, Note_on_c, 0, 85, 0
2, 85440, Note_on_c, 0, 90, 127
2, 85440, Note_on_c, 0, 85, 127
2, 85536, Note_on_c, 0, 85, 0
2, 85536, Note_on_c, 0, 90, 0
2, 85560, Note_on_c, 0, 87, 127
2, 85560, Note_on_c, 0, 84, 127
2, 85656, Note_on_c, 0, 84, 0
2, 85656, Note_on_c, 0, 87, 0
2, 85680, Note_on_c, 0, 89, 127
2, 85680, Note_on_c, 0, 85, 127
2, 85776, Note_on_c, 0, 85, 0
2, 85776, Note_on_c, 0, 89, 0
2, 86040, Note_on_c, 0, 73, 105
2, 86040, Note_on_c, 0, 85, 105
2, 86136, Note_on_c, 0, 85, 0
2, 86136, Note_on_c, 0, 73, 0
2, 86400, Note_on_c, 0, 73, 112
2, 86400, Note_on_c, 0, 85, 112
2, 86496, Note_on_c, 0, 85, 0
2, 86496, Note_on_c, 0, 73, 0
2, 86760, Note_on_c, 0, 79, 119
2, 86760, Note_on_c, 0, 85, 119
2, 86856, Note_on_c, 0, 85, 0
2, 86856, Note_on_c, 0, 79, 0
2, 86880, Note_on_c, 0, 82, 122
2, 86880, Note_on_c, 0, 87, 122
2, 86976, Note_on_c, 0, 87, 0
2, 86976, Note_on_c, 0, 82, 0
2, 87000, Note_on_c, 0, 84, 124
2, 87000, Note_on_c, 0, 87, 124
2, 87096, Note_on_c, 0, 87, 0
2, 87096, Note_on_c, 0, 84, 0
2, 87120, Note_on_c, 0, 87, 127
2, 87120, Note_on_c, 0, 85, 127
2, 87768, Note_on_c, 0, 85, 0
2, 87768, Note_on_c, 0, 87, 0
2, 87840, Note_on_c, 0, 87, 127
2, 87840, Note_on_c, 0, 84, 127
2, 88128, Note_on_c, 0, 84, 0
2, 88128, Note_on_c, 0, 87, 0
2, 88200, Note_on_c, 0, 89, 122
2, 88200, Note_on_c, 0, 85, 122
2, 88488, Note_on_c, 0, 85, 0
2, 88488, Note_on_c, 0, 89, 0
2, 88560, Note_on_c, 0, 87, 117
2, 88560, Note_on_c, 0, 85, 117
2, 88848, Note_on_c, 0, 85, 0
2, 88848, Note_on_c, 0, 87, 0
2, 88920, Note_on_c, 0, 87, 112
2, 88920, Note_on_c, 0, 84, 112
2, 89208, Note_on_c, 0, 84, 0
2, 89208, Note_on_c, 0, 87, 0
2, 89280, Note_on_c, 0, 87, 107
2, 89280, Note_on_c, 0, 84, 107
2, 89568, Note_on_c, 0, 84, 0
2, 89568, Note_on_c, 0, 87, 0
2, 89640, Note_on_c, 0, 89, 102
2, 89640, Note_on_c, 0, 85, 102
2, 89928, Note_on_c, 0, 85, 0
2, 89928, Note_on_c, 0, 89, 0
2, 90000, Note_on_c, 0, 87, 97
2, 90000, Note_on_c, 0, 85, 97
2, 90288, Note_on_c, 0, 85, 0
2, 90288, Note_on_c, 0, 87, 0
2, 90360, Note_on_c, 0, 87, 92
2, 90360, Note_on_c, 0, 84, 92
2, 90456, Note_on_c, 0, 84, 0
2, 90456, Note_on_c, 0, 87, 0
2, 91800, Note_on_c, 0, 89, 50
2, 91800, Note_on_c, 0, 85, 50
2, 91920, Note_on_c, 0, 85, 0
2, 91920, Note_on_c, 0, 89, 0
2, 91920, Note_on_c, 0, 80, 50
2, 91920, Note_on_c, 0, 85, 50
2, 92040, Note_on_c, 0, 85, 0
2, 92040, Note_on_c, 0, 80, 0
2, 92040, Note_on_c, 0, 92, 50
2, 92040, Note_on_c, 0, 77, 50
2, 92136, Note_on_c, 0, 77, 0
2, 92136, Note_on_c, 0, 92, 0
2, 93240, Note_on_c, 0, 85, 50
2, 93240, Note_on_c, 0, 89, 50
2, 93360, Note_on_c, 0, 89, 0
2, 93360, Note_on_c, 0, 85, 0
2, 93360, Note_on_c, 0, 85, 50
2, 93360, Note_on_c, 0, 80, 50
2, 93480, Note_on_c, 0, 80, 0
2, 93480, Note_on_c, 0, 85, 0
2, 93480, Note_on_c, 0, 77, 50
2, 93480, Note_on_c, 0, 92, 50
2, 93576, Note_on_c, 0, 92, 0
2, 93576, Note_on_c, 0, 77, 0
2, 94320, Note_on_c, 0, 86, 50
2, 94320, Note_on_c, 0, 74, 50
2, 96048, Note_on_c, 0, 74, 0
2, 96048, Note_on_c, 0, 86, 0
2, 96120, Note_on_c, 0, 89, 64
2, 96120, Note_on_c, 0, 82, 64
2, 96408, Note_on_c, 0, 82, 0
2, 96408, Note_on_c, 0, 89, 0
2, 96480, Note_on_c, 0, 90, 67
2, 96480, Note_on_c, 0, 82, 67
2, 96768, Note_on_c, 0, 82, 0
2, 96768, Note_on_c, 0, 90, 0
2, 96840, Note_on_c, 0, 87, 100
2, 96840, Note_on_c, 0, 90, 100
2, 97128, Note_on_c, 0, 90, 0
2, 97128, Note_on_c, 0, 87, 0
2, 97200, Note_on_c, 0, 89, 127
2, 97200, Note_on_c, 0, 85, 127
2, 97296, Note_on_c, 0, 85, 0
2, 97296, Note_on_c, 0, 89, 0
2, 97320, Note_on_c, 0, 85, 127
2, 97416, Note_on_c, 0, 85, 0
2, 97440, Note_on_c, 0, 85, 127
2, 97656, Note_on_c, 0, 85, 0
2, 97680, Note_on_c, 0, 82, 127
2, 97776, Note_on_c, 0, 82, 0
2, 97800, Note_on_c, 0, 82, 127
2, 98016, Note_on_c, 0, 82, 0
2, 98040, Note_on_c, 0, 87, 127
2, 98040, Note_on_c, 0, 82, 127
2, 98136, Note_on_c, 0, 82, 0
2, 98136, Note_on_c, 0, 87, 0
2, 98160, Note_on_c, 0, 87, 127
2, 98160, Note_on_c, 0, 82, 127
2, 98280, Note_on_c, 0, 82, 0
2, 98280, Note_on_c, 0, 84, 127
2, 98376, Note_on_c, 0, 84, 0
2, 98376, Note_on_c, 0, 87, 0
2, 98400, Note_on_c, 0, 87, 127
2, 98400, Note_on_c, 0, 84, 127
2, 98496, Note_on_c, 0, 84, 0
2, 98496, Note_on_c, 0, 87, 0
2, 98520, Note_on_c, 0, 75, 127
2, 98520, Note_on_c, 0, 84, 127
2, 98616, Note_on_c, 0, 84, 0
2, 98616, Note_on_c, 0, 75, 0
2, 98640, Note_on_c, 0, 85, 127
2, 98640, Note_on_c, 0, 77, 127
2, 98736, Note_on_c, 0, 77, 0
2, 98736, Note_on_c, 0, 85, 0
2, 99360, Note_on_c, 0, 89, 127
2, 99360, Note_on_c, 0, 85, 127
2, 99456, Note_on_c, 0, 85, 0
2, 99456, Note_on_c, 0, 89, 0
2, 100080, Note_on_c, 0, 92, 127
2, 100080, Note_on_c, 0, 89, 127
2, 100176, Note_on_c, 0, 89, 0
2, 100176, Note_on_c, 0, 92, 0
2, 100560, Note_on_c, 0, 89, 127
2, 100560, Note_on_c, 0, 92, 127
2, 100656, Note_on_c, 0, 92, 0
2, 100656, Note_on_c, 0, 89, 0
2, 100680, Note_on_c, 0, 89, 127
2, 100680, Note_on_c, 0, 92, 127
2, 100776, Note_on_c, 0, 92, 0
2, 100776, Note_on_c, 0, 89, 0
2, 100800, Note_on_c, 0, 84, 127
2, 100800, Note_on_c, 0, 92, 127
2, 100992, Note_on_c, 0, 92, 0
2, 101040, Note_on_c, 0, 84, 127
2, 101088, Note_on_c, 0, 84, 0
2, 101136, Note_on_c, 0, 84, 0
2, 101160, Note_on_c, 0, 84, 127
2, 101160, Note_on_c, 0, 92, 127
2, 101352, Note_on_c, 0, 92, 0
2, 101400, Note_on_c, 0, 84, 127
2, 101448, Note_on_c, 0, 84, 0
2, 101496, Note_on_c, 0, 84, 0
2, 101520, Note_on_c, 0, 84, 127
2, 101520, Note_on_c, 0, 92, 127
2, 101712, Note_on_c, 0, 92, 0
2, 101760, Note_on_c, 0, 84, 127
2, 101808, Note_on_c, 0, 84, 0
2, 101856, Note_on_c, 0, 84, 0
2, 101880, Note_on_c, 0, 84, 127
2, 101880, Note_on_c, 0, 92, 127
2, 102072, Note_on_c, 0, 92, 0
2, 102120, Note_on_c, 0, 84, 127
2, 102168, Note_on_c, 0, 84, 0
2, 102216, Note_on_c, 0, 84, 0
2, 102240, Note_on_c, 0, 84, 127
2, 102240, Note_on_c, 0, 92, 127
2, 102432, Note_on_c, 0, 92, 0
2, 102480, Note_on_c, 0, 84, 127
2, 102528, Note_on_c, 0, 84, 0
2, 102576, Note_on_c, 0, 84, 0
2, 102600, Note_on_c, 0, 84, 127
2, 102600, Note_on_c, 0, 92, 127
2, 102792, Note_on_c, 0, 92, 0
2, 102840, Note_on_c, 0, 84, 127
2, 102888, Note_on_c, 0, 84, 0
2, 102936, Note_on_c, 0, 84, 0
2, 102960, Note_on_c, 0, 85, 127
2, 103056, Note_on_c, 0, 85, 0
2, 108720, Note_on_c, 0, 84, 127
2, 108816, Note_on_c, 0, 84, 0
2, 108840, Note_on_c, 0, 84, 127
2, 108936, Note_on_c, 0, 84, 0
2, 109020, Note_on_c, 0, 84, 127
2, 109068, Note_on_c, 0, 84, 0
2, 109080, Note_on_c, 0, 84, 127
2, 109176, Note_on_c, 0, 84, 0
2, 109200, Note_on_c, 0, 84, 127
2, 109296, Note_on_c, 0, 84, 0
2, 109380, Note_on_c, 0, 84, 127
2, 109428, Note_on_c, 0, 84, 0
2, 109440, Note_on_c, 0, 84, 127
2, 109536, Note_on_c, 0, 84, 0
2, 109560, Note_on_c, 0, 84, 127
2, 109656, Note_on_c, 0, 84, 0
2, 116760, Note_on_c, 0, 84, 110
2, 117144, Note_on_c, 0, 84, 0
2, 117180, Note_on_c, 0, 84, 125
2, 117196, Note_on_c, 0, 84, 0
2, 117200, Note_on_c, 0, 86, 126
2, 117216, Note_on_c, 0, 86, 0
2, 117220, Note_on_c, 0, 88, 126
2, 117236, Note_on_c, 0, 88, 0
2, 117240, Note_on_c, 0, 89, 127
2, 117528, Note_on_c, 0, 89, 0
2, 117540, Note_on_c, 0, 88, 127
2, 117588, Note_on_c, 0, 88, 0
2, 117600, Note_on_c, 0, 84, 127
2, 117648, Note_on_c, 0, 84, 0
2, 117660, Note_on_c, 0, 88, 127
2, 117708, Note_on_c, 0, 88, 0
2, 117720, Note_on_c, 0, 89, 127
2, 118008, Note_on_c, 0, 89, 0
2, 118020, Note_on_c, 0, 88, 127
2, 118068, Note_on_c, 0, 88, 0
2, 118080, Note_on_c, 0, 84, 127
2, 118128, Note_on_c, 0, 84, 0
2, 118140, Note_on_c, 0, 88, 127
2, 118188, Note_on_c, 0, 88, 0
2, 118200, Note_on_c, 0, 89, 127
2, 118260, Note_on_c, 0, 89, 0
2, 118260, Note_on_c, 0, 88, 127
2, 118308, Note_on_c, 0, 88, 0
2, 118320, Note_on_c, 0, 84, 127
2, 118368, Note_on_c, 0, 84, 0
2, 118380, Note_on_c, 0, 88, 127
2, 118428, Note_on_c, 0, 88, 0
2, 118440, Note_on_c, 0, 89, 127
2, 118500, Note_on_c, 0, 89, 0
2, 118500, Note_on_c, 0, 88, 127
2, 118548, Note_on_c, 0, 88, 0
2, 118560, Note_on_c, 0, 84, 127
2, 118608, Note_on_c, 0, 84, 0
2, 118620, Note_on_c, 0, 88, 127
2, 118668, Note_on_c, 0, 88, 0
2, 118680, Note_on_c, 0, 89, 127
2, 118740, Note_on_c, 0, 89, 0
2, 118740, Note_on_c, 0, 88, 127
2, 118788, Note_on_c, 0, 88, 0
2, 118800, Note_on_c, 0, 84, 127
2, 118848, Note_on_c, 0, 84, 0
2, 118860, Note_on_c, 0, 88, 127
2, 118908, Note_on_c, 0, 88, 0
2, 118920, Note_on_c, 0, 89, 127
2, 118980, Note_on_c, 0, 89, 0
2, 118980, Note_on_c, 0, 88, 127
2, 119028, Note_on_c, 0, 88, 0
2, 119040, Note_on_c, 0, 84, 127
2, 119088, Note_on_c, 0, 84, 0
2, 119100, Note_on_c, 0, 88, 127
2, 119148, Note_on_c, 0, 88, 0
2, 119160, Note_on_c, 0, 89, 127
2, 119208, Note_on_c, 0, 89, 0
2, 119220, Note_on_c, 0, 79, 127
2, 119268, Note_on_c, 0, 79, 0
2, 119280, Note_on_c, 0, 77, 127
2, 119328, Note_on_c, 0, 77, 0
2, 119340, Note_on_c, 0, 76, 127
2, 119388, Note_on_c, 0, 76, 0
2, 119400, Note_on_c, 0, 77, 127
2, 119448, Note_on_c, 0, 77, 0
2, 119460, Note_on_c, 0, 76, 127
2, 119508, Note_on_c, 0, 76, 0
2, 119520, Note_on_c, 0, 74, 127
2, 119568, Note_on_c, 0, 74, 0
2, 119580, Note_on_c, 0, 73, 127
2, 119628, Note_on_c, 0, 73, 0
2, 119640, Note_on_c, 0, 74, 127
2, 119688, Note_on_c, 0, 74, 0
2, 119700, Note_on_c, 0, 84, 127
2, 119748, Note_on_c, 0, 84, 0
2, 119760, Note_on_c, 0, 82, 127
2, 119808, Note_on_c, 0, 82, 0
2, 119820, Note_on_c, 0, 81, 127
2, 119868, Note_on_c, 0, 81, 0
2, 119880, Note_on_c, 0, 82, 127
2, 119928, Note_on_c, 0, 82, 0
2, 119940, Note_on_c, 0, 79, 127
2, 119988, Note_on_c, 0, 79, 0
2, 120000, Note_on_c, 0, 84, 127
2, 120048, Note_on_c, 0, 84, 0
2, 120060, Note_on_c, 0, 84, 127
2, 120108, Note_on_c, 0, 84, 0
2, 120120, Note_on_c, 0, 89, 127
2, 120408, Note_on_c, 0, 89, 0
2, 120420, Note_on_c, 0, 88, 127
2, 120468, Note_on_c, 0, 88, 0
2, 120480, Note_on_c, 0, 84, 127
2, 120528, Note_on_c, 0, 84, 0
2, 120540, Note_on_c, 0, 88, 127
2, 120588, Note_on_c, 0, 88, 0
2, 120600, Note_on_c, 0, 89, 127
2, 120888, Note_on_c, 0, 89, 0
2, 120900, Note_on_c, 0, 88, 127
2, 120948, Note_on_c, 0, 88, 0
2, 120960, Note_on_c, 0, 84, 127
2, 121008, Note_on_c, 0, 84, 0
2, 121020, Note_on_c, 0, 88, 127
2, 121068, Note_on_c, 0, 88, 0
2, 121080, Note_on_c, 0, 89, 127
2, 121140, Note_on_c, 0, 89, 0
2, 121140, Note_on_c, 0, 88, 127
2, 121188, Note_on_c, 0, 88, 0
2, 121200, Note_on_c, 0, 84, 127
2, 121248, Note_on_c, 0, 84, 0
2, 121260, Note_on_c, 0, 88, 127
2, 121308, Note_on_c, 0, 88, 0
2, 121320, Note_on_c, 0, 89, 127
2, 121380, Note_on_c, 0, 89, 0
2, 121380, Note_on_c, 0, 88, 127
2, 121428, Note_on_c, 0, 88, 0
2, 121440, Note_on_c, 0, 84, 127
2, 121488, Note_on_c, 0, 84, 0
2, 121500, Note_on_c, 0, 88, 127
2, 121548, Note_on_c, 0, 88, 0
2, 121560, Note_on_c, 0, 89, 127
2, 121620, Note_on_c, 0, 89, 0
2, 121620, Note_on_c, 0, 88, 127
2, 121668, Note_on_c, 0, 88, 0
2, 121680, Note_on_c, 0, 84, 127
2, 121728, Note_on_c, 0, 84, 0
2, 121740, Note_on_c, 0, 88, 127
2, 121788, Note_on_c, 0, 88, 0
2, 121800, Note_on_c, 0, 89, 127
2, 121860, Note_on_c, 0, 89, 0
2, 121860, Note_on_c, 0, 88, 127
2, 121908, Note_on_c, 0, 88, 0
2, 121920, Note_on_c, 0, 84, 127
2, 121968, Note_on_c, 0, 84, 0
2, 121980, Note_on_c, 0, 88, 127
2, 122028, Note_on_c, 0, 88, 0
2, 122040, Note_on_c, 0, 89, 127
2, 122088, Note_on_c, 0, 89, 0
2, 122100, Note_on_c, 0, 79, 127
2, 122148, Note_on_c, 0, 79, 0
2, 122160, Note_on_c, 0, 77, 127
2, 122208, Note_on_c, 0, 77, 0
2, 122220, Note_on_c, 0, 76, 127
2, 122268, Note_on_c, 0, 76, 0
2, 122280, Note_on_c, 0, 77, 127
2, 122328, Note_on_c, 0, 77, 0
2, 122340, Note_on_c, 0, 76, 127
2, 122388, Note_on_c, 0, 76, 0
2, 122400, Note_on_c, 0, 74, 127
2, 122448, Note_on_c, 0, 74, 0
2, 122460, Note_on_c, 0, 73, 127
2, 122508, Note_on_c, 0, 73, 0
2, 122520, Note_on_c, 0, 74, 127
2, 122568, Note_on_c, 0, 74, 0
2, 122580, Note_on_c, 0, 84, 127
2, 122628, Note_on_c, 0, 84, 0
2, 122640, Note_on_c, 0, 82, 127
2, 122688, Note_on_c, 0, 82, 0
2, 122700, Note_on_c, 0, 81, 127
2, 122748, Note_on_c, 0, 81, 0
2, 122760, Note_on_c, 0, 82, 127
2, 122808, Note_on_c, 0, 82, 0
2, 122820, Note_on_c, 0, 79, 127
2, 122868, Note_on_c, 0, 79, 0
2, 122880, Note_on_c, 0, 84, 127
2, 122928, Note_on_c, 0, 84, 0
2, 122940, Note_on_c, 0, 84, 127
2, 122988, Note_on_c, 0, 84, 0
2, 123000, Note_on_c, 0, 77, 127
2, 123096, Note_on_c, 0, 77, 0
2, 125940, Note_on_c, 0, 81, 127
2, 125970, Note_on_c, 0, 81, 0
2, 125970, Note_on_c, 0, 82, 127
2, 125994, Note_on_c, 0, 82, 0
2, 126000, Note_on_c, 0, 84, 127
2, 126048, Note_on_c, 0, 84, 0
2, 126180, Note_on_c, 0, 81, 127
2, 126196, Note_on_c, 0, 81, 0
2, 126200, Note_on_c, 0, 82, 127
2, 126216, Note_on_c, 0, 82, 0
2, 126220, Note_on_c, 0, 84, 127
2, 126236, Note_on_c, 0, 84, 0
2, 126240, Note_on_c, 0, 86, 127
2, 126288, Note_on_c, 0, 86, 0
2, 126420, Note_on_c, 0, 79, 127
2, 126450, Note_on_c, 0, 79, 0
2, 126450, Note_on_c, 0, 81, 127
2, 126474, Note_on_c, 0, 81, 0
2, 126480, Note_on_c, 0, 82, 127
2, 126528, Note_on_c, 0, 82, 0
2, 126660, Note_on_c, 0, 79, 127
2, 126680, Note_on_c, 0, 79, 0
2, 126680, Note_on_c, 0, 81, 127
2, 126700, Note_on_c, 0, 81, 0
2, 126700, Note_on_c, 0, 82, 127
2, 126716, Note_on_c, 0, 82, 0
2, 126720, Note_on_c, 0, 84, 127
2, 126768, Note_on_c, 0, 84, 0
2, 126780, Note_on_c, 0, 84, 127
2, 126828, Note_on_c, 0, 84, 0
2, 126840, Note_on_c, 0, 89, 127
2, 126960, Note_on_c, 0, 89, 0
2, 126960, Note_on_c, 0, 87, 127
2, 127080, Note_on_c, 0, 87, 0
2, 127080, Note_on_c, 0, 86, 127
2, 127200, Note_on_c, 0, 86, 0
2, 127200, Note_on_c, 0, 90, 127
2, 127296, Note_on_c, 0, 90, 0
2, 127320, Note_on_c, 0, 91, 127
2, 127440, Note_on_c, 0, 91, 0
2, 127440, Note_on_c, 0, 85, 127
2, 127560, Note_on_c, 0, 85, 0
2, 127560, Note_on_c, 0, 84, 127
2, 127680, Note_on_c, 0, 84, 0
2, 127680, Note_on_c, 0, 88, 127
2, 127776, Note_on_c, 0, 88, 0
2, 127800, Note_on_c, 0, 89, 127
2, 127992, Note_on_c, 0, 89, 0
2, 128040, Note_on_c, 0, 84, 127
2, 128232, Note_on_c, 0, 84, 0
2, 128280, Note_on_c, 0, 84, 127
2, 128472, Note_on_c, 0, 84, 0
2, 128520, Note_on_c, 0, 84, 127
2, 128712, Note_on_c, 0, 84, 0
2, 128760, Note_on_c, 0, 84, 127
2, 128856, Note_on_c, 0, 84, 0
2, 128880, Note_on_c, 0, 84, 127
2, 129624, Note_on_c, 0, 84, 0
2, 129720, Note_on_c, 0, 82, 127
2, 129816, Note_on_c, 0, 82, 0
2, 129840, Note_on_c, 0, 91, 127
2, 129936, Note_on_c, 0, 91, 0
2, 129960, Note_on_c, 0, 91, 127
2, 130056, Note_on_c, 0, 91, 0
2, 130080, Note_on_c, 0, 91, 127
2, 130176, Note_on_c, 0, 91, 0
2, 130200, Note_on_c, 0, 91, 127
2, 130296, Note_on_c, 0, 91, 0
2, 130320, Note_on_c, 0, 91, 127
2, 130416, Note_on_c, 0, 91, 0
2, 130440, Note_on_c, 0, 91, 127
2, 130536, Note_on_c, 0, 91, 0
2, 130560, Note_on_c, 0, 91, 127
2, 130656, Note_on_c, 0, 91, 0
2, 130680, Note_on_c, 0, 89, 127
2, 130824, Note_on_c, 0, 89, 0
2, 130860, Note_on_c, 0, 84, 127
2, 130908, Note_on_c, 0, 84, 0
2, 130920, Note_on_c, 0, 84, 127
2, 131064, Note_on_c, 0, 84, 0
2, 131100, Note_on_c, 0, 84, 127
2, 131148, Note_on_c, 0, 84, 0
2, 131160, Note_on_c, 0, 84, 127
2, 131304, Note_on_c, 0, 84, 0
2, 131340, Note_on_c, 0, 84, 127
2, 131388, Note_on_c, 0, 84, 0
2, 131400, Note_on_c, 0, 84, 127
2, 131544, Note_on_c, 0, 84, 0
2, 131580, Note_on_c, 0, 84, 127
2, 131628, Note_on_c, 0, 84, 0
2, 131640, Note_on_c, 0, 84, 127
2, 131736, Note_on_c, 0, 84, 0
2, 131760, Note_on_c, 0, 84, 127
2, 132504, Note_on_c, 0, 84, 0
2, 132600, Note_on_c, 0, 82, 127
2, 132696, Note_on_c, 0, 82, 0
2, 132720, Note_on_c, 0, 91, 127
2, 132816, Note_on_c, 0, 91, 0
2, 132840, Note_on_c, 0, 91, 127
2, 132936, Note_on_c, 0, 91, 0
2, 132960, Note_on_c, 0, 91, 127
2, 133056, Note_on_c, 0, 91, 0
2, 133080, Note_on_c, 0, 91, 127
2, 133176, Note_on_c, 0, 91, 0
2, 133200, Note_on_c, 0, 91, 127
2, 133296, Note_on_c, 0, 91, 0
2, 133320, Note_on_c, 0, 91, 127
2, 133416, Note_on_c, 0, 91, 0
2, 133440, Note_on_c, 0, 91, 127
2, 133536, Note_on_c, 0, 91, 0
2, 133560, Note_on_c, 0, 89, 127
2, 133752, Note_on_c, 0, 89, 0
2, 133800, Note_on_c, 0, 89, 127
2, 134712, Note_on_c, 0, 89, 0
2, 134760, Note_on_c, 0, 93, 127
2, 135672, Note_on_c, 0, 93, 0
2, 135720, Note_on_c, 0, 89, 127
2, 135912, Note_on_c, 0, 89, 0
2, 135960, Note_on_c, 0, 88, 127
2, 136248, Note_on_c, 0, 88, 0
2, 136320, Note_on_c, 0, 88, 127
2, 136416, Note_on_c, 0, 88, 0
2, 136440, Note_on_c, 0, 89, 127
2, 136632, Note_on_c, 0, 89, 0
2, 136680, Note_on_c, 0, 89, 127
2, 136872, Note_on_c, 0, 89, 0
2, 136920, Note_on_c, 0, 88, 127
2, 137208, Note_on_c, 0, 88, 0
2, 137280, Note_on_c, 0, 88, 127
2, 137376, Note_on_c, 0, 88, 0
2, 137400, Note_on_c, 0, 89, 127
2, 137592, Note_on_c, 0, 89, 0
2, 137640, Note_on_c, 0, 89, 127
2, 137832, Note_on_c, 0, 89, 0
2, 137880, Note_on_c, 0, 88, 127
2, 138168, Note_on_c, 0, 88, 0
2, 138240, Note_on_c, 0, 88, 127
2, 138336, Note_on_c, 0, 88, 0
2, 138360, Note_on_c, 0, 88, 127
2, 138648, Note_on_c, 0, 88, 0
2, 138720, Note_on_c, 0, 88, 127
2, 138816, Note_on_c, 0, 88, 0
2, 138840, Note_on_c, 0, 88, 127
2, 139128, Note_on_c, 0, 88, 0
2, 139200, Note_on_c, 0, 88, 127
2, 139296, Note_on_c, 0, 88, 0
2, 139320, Note_on_c, 0, 89, 127
2, 139368, Note_on_c, 0, 89, 0
2, 139380, Note_on_c, 0, 77, 127
2, 139428, Note_on_c, 0, 77, 0
2, 139440, Note_on_c, 0, 79, 127
2, 139488, Note_on_c, 0, 79, 0
2, 139500, Note_on_c, 0, 81, 127
2, 139548, Note_on_c, 0, 81, 0
2, 139560, Note_on_c, 0, 82, 127
2, 139608, Note_on_c, 0, 82, 0
2, 139620, Note_on_c, 0, 81, 127
2, 139668, Note_on_c, 0, 81, 0
2, 139680, Note_on_c, 0, 82, 127
2, 139728, Note_on_c, 0, 82, 0
2, 139740, Note_on_c, 0, 84, 127
2, 139788, Note_on_c, 0, 84, 0
2, 139800, Note_on_c, 0, 86, 127
2, 139848, Note_on_c, 0, 86, 0
2, 139860, Note_on_c, 0, 84, 127
2, 139908, Note_on_c, 0, 84, 0
2, 139920, Note_on_c, 0, 86, 127
2, 139968, Note_on_c, 0, 86, 0
2, 139980, Note_on_c, 0, 88, 127
2, 140028, Note_on_c, 0, 88, 0
2, 140040, Note_on_c, 0, 89, 127
2, 140088, Note_on_c, 0, 89, 0
2, 140100, Note_on_c, 0, 88, 127
2, 140148, Note_on_c, 0, 88, 0
2, 140160, Note_on_c, 0, 89, 127
2, 140208, Note_on_c, 0, 89, 0
2, 140220, Note_on_c, 0, 91, 127
2, 140268, Note_on_c, 0, 91, 0
2, 140280, Note_on_c, 0, 93, 127
2, 140376, Note_on_c, 0, 93, 0
2, 140760, Note_on_c, 0, 93, 127
2, 140856, Note_on_c, 0, 93, 0
2, 141240, Note_on_c, 0, 93, 127
2, 141336, Note_on_c, 0, 93, 0
2, 141720, Note_on_c, 0, 93, 127
2, 141816, Note_on_c, 0, 93, 0
2, 141960, Note_on_c, 0, 93, 127
2, 142056, Note_on_c, 0, 93, 0
2, 142200, Note_on_c, 0, 93, 127
2, 142296, Note_on_c, 0, 93, 0
2, 142296, End_track
3, 0, Start_track
3, 0, Title_t, "FL-Picc."
3, 0, Program_c, 1, 73
3, 0, Control_c, 1, 7, 80
3, 0, Control_c, 1, 10, 80
3, 116280, Note_on_c, 1, 84, 93
3, 116300, Note_on_c, 1, 84, 0
3, 116300, Note_on_c, 1, 86, 93
3, 116320, Note_on_c, 1, 86, 0
3, 116320, Note_on_c, 1, 84, 94
3, 116340, Note_on_c, 1, 84, 0
3, 116340, Note_on_c, 1, 86, 95
3, 116360, Note_on_c, 1, 86, 0
3, 116360, Note_on_c, 1, 84, 95
3, 116380, Note_on_c, 1, 84, 0
3, 116380, Note_on_c, 1, 86, 96
3, 116400, Note_on_c, 1, 86, 0
3, 116400, Note_on_c, 1, 84, 97
3, 116420, Note_on_c, 1, 84, 0
3, 116420, Note_on_c, 1, 86, 98
3, 116440, Note_on_c, 1, 86, 0
3, 116440, Note_on_c, 1, 84, 98
3, 116460, Note_on_c, 1, 84, 0
3, 116460, Note_on_c, 1, 86, 99
3, 116480, Note_on_c, 1, 86, 0
3, 116480, Note_on_c, 1, 84, 100
3, 116500, Note_on_c, 1, 84, 0
3, 116500, Note_on_c, 1, 86, 100
3, 116520, Note_on_c, 1, 86, 0
3, 116520, Note_on_c, 1, 84, 101
3, 116540, Note_on_c, 1, 84, 0
3, 116540, Note_on_c, 1, 86, 102
3, 116560, Note_on_c, 1, 86, 0
3, 116560, Note_on_c, 1, 84, 103
3, 116580, Note_on_c, 1, 84, 0
3, 116580, Note_on_c, 1, 86, 103
3, 116600, Note_on_c, 1, 86, 0
3, 116600, Note_on_c, 1, 84, 104
3, 116620, Note_on_c, 1, 84, 0
3, 116620, Note_on_c, 1, 86, 105
3, 116640, Note_on_c, 1, 86, 0
3, 116640, Note_on_c, 1, 84, 106
3, 116660, Note_on_c, 1, 84, 0
3, 116660, Note_on_c, 1, 86, 106
3, 116680, Note_on_c, 1, 86, 0
3, 116680, Note_on_c, 1, 84, 107
3, 116700, Note_on_c, 1, 84, 0
3, 116700, Note_on_c, 1, 86, 108
3, 116720, Note_on_c, 1, 86, 0
3, 116720, Note_on_c, 1, 84, 108
3, 116740, Note_on_c, 1, 84, 0
3, 116740, Note_on_c, 1, 86, 109
3, 116760, Note_on_c, 1, 86, 0
3, 116760, Note_on_c, 1, 84, 110
3, 116780, Note_on_c, 1, 84, 0
3, 116780, Note_on_c, 1, 86, 111
3, 116800, Note_on_c, 1, 86, 0
3, 116800, Note_on_c, 1, 84, 111
3, 116820, Note_on_c, 1, 84, 0
3, 116820, Note_on_c, 1, 86, 112
3, 116840, Note_on_c, 1, 86, 0
3, 116840, Note_on_c, 1, 84, 113
3, 116860, Note_on_c, 1, 84, 0
3, 116860, Note_on_c, 1, 86, 113
3, 116880, Note_on_c, 1, 86, 0
3, 116880, Note_on_c, 1, 84, 114
3, 116900, Note_on_c, 1, 84, 0
3, 116900, Note_on_c, 1, 86, 115
3, 116920, Note_on_c, 1, 86, 0
3, 116920, Note_on_c, 1, 84, 116
3, 116940, Note_on_c, 1, 84, 0
3, 116940, Note_on_c, 1, 86, 116
3, 116960, Note_on_c, 1, 86, 0
3, 116960, Note_on_c, 1, 84, 117
3, 116980, Note_on_c, 1, 84, 0
3, 116980, Note_on_c, 1, 86, 118
3, 117000, Note_on_c, 1, 86, 0
3, 117000, Note_on_c, 1, 84, 118
3, 117020, Note_on_c, 1, 84, 0
3, 117020, Note_on_c, 1, 86, 119
3, 117040, Note_on_c, 1, 86, 0
3, 117040, Note_on_c, 1, 84, 120
3, 117060, Note_on_c, 1, 84, 0
3, 117060, Note_on_c, 1, 86, 121
3, 117080, Note_on_c, 1, 86, 0
3, 117080, Note_on_c, 1, 84, 121
3, 117100, Note_on_c, 1, 84, 0
3, 117100, Note_on_c, 1, 86, 122
3, 117116, Note_on_c, 1, 86, 0
3, 117120, Note_on_c, 1, 86, 123
3, 117144, Note_on_c, 1, 86, 0
3, 117150, Note_on_c, 1, 88, 124
3, 117174, Note_on_c, 1, 88, 0
3, 117180, Note_on_c, 1, 89, 125
3, 117204, Note_on_c, 1, 89, 0
3, 117210, Note_on_c, 1, 91, 126
3, 117234, Note_on_c, 1, 91, 0
3, 117240, Note_on_c, 1, 93, 127
3, 117540, Note_on_c, 1, 93, 0
3, 117540, Note_on_c, 1, 91, 127
3, 117576, Note_on_c, 1, 91, 0
3, 117600, Note_on_c, 1, 89, 127
3, 117636, Note_on_c, 1, 89, 0
3, 117660, Note_on_c, 1, 91, 127
3, 117696, Note_on_c, 1, 91, 0
3, 117720, Note_on_c, 1, 93, 127
3, 118020, Note_on_c, 1, 93, 0
3, 118020, Note_on_c, 1, 91, 127
3, 118056, Note_on_c, 1, 91, 0
3, 118080, Note_on_c, 1, 89, 127
3, 118116, Note_on_c, 1, 89, 0
3, 118140, Note_on_c, 1, 91, 127
3, 118176, Note_on_c, 1, 91, 0
3, 118200, Note_on_c, 1, 93, 127
3, 118260, Note_on_c, 1, 93, 0
3, 118260, Note_on_c, 1, 91, 127
3, 118308, Note_on_c, 1, 91, 0
3, 118320, Note_on_c, 1, 89, 127
3, 118368, Note_on_c, 1, 89, 0
3, 118380, Note_on_c, 1, 91, 127
3, 118428, Note_on_c, 1, 91, 0
3, 118440, Note_on_c, 1, 93, 127
3, 118500, Note_on_c, 1, 93, 0
3, 118500, Note_on_c, 1, 91, 127
3, 118548, Note_on_c, 1, 91, 0
3, 118560, Note_on_c, 1, 89, 127
3, 118608, Note_on_c, 1, 89, 0
3, 118620, Note_on_c, 1, 91, 127
3, 118668, Note_on_c, 1, 91, 0
3, 118680, Note_on_c, 1, 93, 127
3, 118740, Note_on_c, 1, 93, 0
3, 118740, Note_on_c, 1, 91, 127
3, 118788, Note_on_c, 1, 91, 0
3, 118800, Note_on_c, 1, 89, 127
3, 118848, Note_on_c, 1, 89, 0
3, 118860, Note_on_c, 1, 91, 127
3, 118908, Note_on_c, 1, 91, 0
3, 118920, Note_on_c, 1, 93, 127
3, 118980, Note_on_c, 1, 93, 0
3, 118980, Note_on_c, 1, 91, 127
3, 119028, Note_on_c, 1, 91, 0
3, 119040, Note_on_c, 1, 89, 127
3, 119088, Note_on_c, 1, 89, 0
3, 119100, Note_on_c, 1, 91, 127
3, 119148, Note_on_c, 1, 91, 0
3, 119160, Note_on_c, 1, 93, 127
3, 119208, Note_on_c, 1, 93, 0
3, 119220, Note_on_c, 1, 91, 127
3, 119268, Note_on_c, 1, 91, 0
3, 119280, Note_on_c, 1, 89, 127
3, 119328, Note_on_c, 1, 89, 0
3, 119340, Note_on_c, 1, 88, 127
3, 119388, Note_on_c, 1, 88, 0
3, 119400, Note_on_c, 1, 89, 127
3, 119448, Note_on_c, 1, 89, 0
3, 119460, Note_on_c, 1, 88, 127
3, 119508, Note_on_c, 1, 88, 0
3, 119520, Note_on_c, 1, 86, 127
3, 119568, Note_on_c, 1, 86, 0
3, 119580, Note_on_c, 1, 85, 127
3, 119628, Note_on_c, 1, 85, 0
3, 119640, Note_on_c, 1, 86, 127
3, 119688, Note_on_c, 1, 86, 0
3, 119700, Note_on_c, 1, 96, 127
3, 119748, Note_on_c, 1, 96, 0
3, 119760, Note_on_c, 1, 94, 127
3, 119808, Note_on_c, 1, 94, 0
3, 119820, Note_on_c, 1, 93, 127
3, 119868, Note_on_c, 1, 93, 0
3, 119880, Note_on_c, 1, 94, 127
3, 119928, Note_on_c, 1, 94, 0
3, 119940, Note_on_c, 1, 91, 127
3, 119988, Note_on_c, 1, 91, 0
3, 120000, Note_on_c, 1, 96, 127
3, 120048, Note_on_c, 1, 96, 0
3, 120060, Note_on_c, 1, 96, 127
3, 120108, Note_on_c, 1, 96, 0
3, 120120, Note_on_c, 1, 93, 127
3, 120420, Note_on_c, 1, 93, 0
3, 120420, Note_on_c, 1, 91, 127
3, 120456, Note_on_c, 1, 91, 0
3, 120480, Note_on_c, 1, 89, 127
3, 120516, Note_on_c, 1, 89, 0
3, 120540, Note_on_c, 1, 91, 127
3, 120576, Note_on_c, 1, 91, 0
3, 120600, Note_on_c, 1, 93, 127
3, 120900, Note_on_c, 1, 93, 0
3, 120900, Note_on_c, 1, 91, 127
3, 120936, Note_on_c, 1, 91, 0
3, 120960, Note_on_c, 1, 89, 127
3, 120996, Note_on_c, 1, 89, 0
3, 121020, Note_on_c, 1, 91, 127
3, 121056, Note_on_c, 1, 91, 0
3, 121080, Note_on_c, 1, 93, 127
3, 121140, Note_on_c, 1, 93, 0
3, 121140, Note_on_c, 1, 91, 127
3, 121188, Note_on_c, 1, 91, 0
3, 121200, Note_on_c, 1, 89, 127
3, 121248, Note_on_c, 1, 89, 0
3, 121260, Note_on_c, 1, 91, 127
3, 121308, Note_on_c, 1, 91, 0
3, 121320, Note_on_c, 1, 93, 127
3, 121380, Note_on_c, 1, 93, 0
3, 121380, Note_on_c, 1, 91, 127
3, 121428, Note_on_c, 1, 91, 0
3, 121440, Note_on_c, 1, 89, 127
3, 121488, Note_on_c, 1, 89, 0
3, 121500, Note_on_c, 1, 91, 127
3, 121548, Note_on_c, 1, 91, 0
3, 121560, Note_on_c, 1, 93, 127
3, 121620, Note_on_c, 1, 93, 0
3, 121620, Note_on_c, 1, 91, 127
3, 121668, Note_on_c, 1, 91, 0
3, 121680, Note_on_c, 1, 89, 127
3, 121728, Note_on_c, 1, 89, 0
3, 121740, Note_on_c, 1, 91, 127
3, 121788, Note_on_c, 1, 91, 0
3, 121800, Note_on_c, 1, 93, 127
3, 121860, Note_on_c, 1, 93, 0
3, 121860, Note_on_c, 1, 91, 127
3, 121908, Note_on_c, 1, 91, 0
3, 121920, Note_on_c, 1, 89, 127
3, 121968, Note_on_c, 1, 89, 0
3, 121980, Note_on_c, 1, 91, 127
3, 122028, Note_on_c, 1, 91, 0
3, 122040, Note_on_c, 1, 93, 127
3, 122088, Note_on_c, 1, 93, 0
3, 122100, Note_on_c, 1, 91, 127
3, 122148, Note_on_c, 1, 91, 0
3, 122160, Note_on_c, 1, 89, 127
3, 122208, Note_on_c, 1, 89, 0
3, 122220, Note_on_c, 1, 88, 127
3, 122268, Note_on_c, 1, 88, 0
3, 122280, Note_on_c, 1, 89, 127
3, 122328, Note_on_c, 1, 89, 0
3, 122340, Note_on_c, 1, 88, 127
3, 122388, Note_on_c, 1, 88, 0
3, 122400, Note_on_c, 1, 86, 127
3, 122448, Note_on_c, 1, 86, 0
3, 122460, Note_on_c, 1, 85, 127
3, 122508, Note_on_c, 1, 85, 0
3, 122520, Note_on_c, 1, 86, 127
3, 122568, Note_on_c, 1, 86, 0
3, 122580, Note_on_c, 1, 96, 127
3, 122628, Note_on_c, 1, 96, 0
3, 122640, Note_on_c, 1, 94, 127
3, 122688, Note_on_c, 1, 94, 0
3, 122700, Note_on_c, 1, 93, 127
3, 122748, Note_on_c, 1, 93, 0
3, 122760, Note_on_c, 1, 94, 127
3, 122808, Note_on_c, 1, 94, 0
3, 122820, Note_on_c, 1, 91, 127
3, 122868, Note_on_c, 1, 91, 0
3, 122880, Note_on_c, 1, 96, 127
3, 122928, Note_on_c, 1, 96, 0
3, 122940, Note_on_c, 1, 96, 127
3, 122988, Note_on_c, 1, 96, 0
3, 123000, Note_on_c, 1, 89, 127
3, 123096, Note_on_c, 1, 89, 0
3, 124980, Note_on_c, 1, 93, 127
3, 125004, Note_on_c, 1, 93, 0
3, 125010, Note_on_c, 1, 94, 127
3, 125034, Note_on_c, 1, 94, 0
3, 125040, Note_on_c, 1, 96, 127
3, 125136, Note_on_c, 1, 96, 0
3, 125220, Note_on_c, 1, 93, 127
3, 125236, Note_on_c, 1, 93, 0
3, 125240, Note_on_c, 1, 94, 127
3, 125256, Note_on_c, 1, 94, 0
3, 125260, Note_on_c, 1, 96, 127
3, 125276, Note_on_c, 1, 96, 0
3, 125280, Note_on_c, 1, 98, 127
3, 125376, Note_on_c, 1, 98, 0
3, 125460, Note_on_c, 1, 91, 127
3, 125484, Note_on_c, 1, 91, 0
3, 125490, Note_on_c, 1, 93, 127
3, 125514, Note_on_c, 1, 93, 0
3, 125520, Note_on_c, 1, 94, 127
3, 125616, Note_on_c, 1, 94, 0
3, 125700, Note_on_c, 1, 91, 127
3, 125716, Note_on_c, 1, 91, 0
3, 125720, Note_on_c, 1, 93, 127
3, 125736, Note_on_c, 1, 93, 0
3, 125740, Note_on_c, 1, 94, 127
3, 125756, Note_on_c, 1, 94, 0
3, 125760, Note_on_c, 1, 96, 127
3, 125856, Note_on_c, 1, 96, 0
3, 125880, Note_on_c, 1, 93, 127
3, 125928, Note_on_c, 1, 93, 0
3, 125940, Note_on_c, 1, 94, 127
3, 125988, Note_on_c, 1, 94, 0
3, 126000, Note_on_c, 1, 96, 127
3, 126048, Note_on_c, 1, 96, 0
3, 126060, Note_on_c, 1, 97, 127
3, 126108, Note_on_c, 1, 97, 0
3, 126120, Note_on_c, 1, 98, 127
3, 126168, Note_on_c, 1, 98, 0
3, 126180, Note_on_c, 1, 96, 127
3, 126228, Note_on_c, 1, 96, 0
3, 126240, Note_on_c, 1, 94, 127
3, 126288, Note_on_c, 1, 94, 0
3, 126300, Note_on_c, 1, 93, 127
3, 126348, Note_on_c, 1, 93, 0
3, 126360, Note_on_c, 1, 94, 127
3, 126408, Note_on_c, 1, 94, 0
3, 126420, Note_on_c, 1, 93, 127
3, 126468, Note_on_c, 1, 93, 0
3, 126480, Note_on_c, 1, 91, 127
3, 126528, Note_on_c, 1, 91, 0
3, 126540, Note_on_c, 1, 93, 127
3, 126588, Note_on_c, 1, 93, 0
3, 126600, Note_on_c, 1, 94, 127
3, 126648, Note_on_c, 1, 94, 0
3, 126660, Note_on_c, 1, 96, 127
3, 126708, Note_on_c, 1, 96, 0
3, 126720, Note_on_c, 1, 98, 127
3, 126768, Note_on_c, 1, 98, 0
3, 126780, Note_on_c, 1, 100, 127
3, 126828, Note_on_c, 1, 100, 0
3, 126840, Note_on_c, 1, 89, 127
3, 126960, Note_on_c, 1, 89, 0
3, 126960, Note_on_c, 1, 87, 127
3, 127080, Note_on_c, 1, 87, 0
3, 127080, Note_on_c, 1, 86, 127
3, 127200, Note_on_c, 1, 86, 0
3, 127200, Note_on_c, 1, 90, 127
3, 127296, Note_on_c, 1, 90, 0
3, 127320, Note_on_c, 1, 91, 127
3, 127440, Note_on_c, 1, 91, 0
3, 127440, Note_on_c, 1, 85, 127
3, 127560, Note_on_c, 1, 85, 0
3, 127560, Note_on_c, 1, 84, 127
3, 127680, Note_on_c, 1, 84, 0
3, 127680, Note_on_c, 1, 88, 127
3, 127776, Note_on_c, 1, 88, 0
3, 127800, Note_on_c, 1, 89, 127
3, 127992, Note_on_c, 1, 89, 0
3, 128040, Note_on_c, 1, 91, 127
3, 128232, Note_on_c, 1, 91, 0
3, 128280, Note_on_c, 1, 93, 127
3, 128472, Note_on_c, 1, 93, 0
3, 128520, Note_on_c, 1, 94, 127
3, 128712, Note_on_c, 1, 94, 0
3, 128760, Note_on_c, 1, 95, 127
3, 128856, Note_on_c, 1, 95, 0
3, 128880, Note_on_c, 1, 96, 127
3, 129624, Note_on_c, 1, 96, 0
3, 129720, Note_on_c, 1, 94, 127
3, 129768, Note_on_c, 1, 94, 0
3, 129780, Note_on_c, 1, 91, 127
3, 129804, Note_on_c, 1, 91, 0
3, 129810, Note_on_c, 1, 93, 127
3, 129834, Note_on_c, 1, 93, 0
3, 129840, Note_on_c, 1, 94, 127
3, 129936, Note_on_c, 1, 94, 0
3, 130020, Note_on_c, 1, 91, 127
3, 130044, Note_on_c, 1, 91, 0
3, 130050, Note_on_c, 1, 93, 127
3, 130074, Note_on_c, 1, 93, 0
3, 130080, Note_on_c, 1, 94, 127
3, 130176, Note_on_c, 1, 94, 0
3, 130260, Note_on_c, 1, 91, 127
3, 130284, Note_on_c, 1, 91, 0
3, 130290, Note_on_c, 1, 93, 127
3, 130314, Note_on_c, 1, 93, 0
3, 130320, Note_on_c, 1, 94, 127
3, 130416, Note_on_c, 1, 94, 0
3, 130500, Note_on_c, 1, 91, 127
3, 130524, Note_on_c, 1, 91, 0
3, 130530, Note_on_c, 1, 93, 127
3, 130554, Note_on_c, 1, 93, 0
3, 130560, Note_on_c, 1, 94, 127
3, 130608, Note_on_c, 1, 94, 0
3, 130620, Note_on_c, 1, 88, 127
3, 130668, Note_on_c, 1, 88, 0
3, 130680, Note_on_c, 1, 89, 127
3, 130824, Note_on_c, 1, 89, 0
3, 130860, Note_on_c, 1, 89, 127
3, 130908, Note_on_c, 1, 89, 0
3, 130920, Note_on_c, 1, 91, 127
3, 131064, Note_on_c, 1, 91, 0
3, 131100, Note_on_c, 1, 91, 127
3, 131148, Note_on_c, 1, 91, 0
3, 131160, Note_on_c, 1, 93, 127
3, 131304, Note_on_c, 1, 93, 0
3, 131340, Note_on_c, 1, 93, 127
3, 131388, Note_on_c, 1, 93, 0
3, 131400, Note_on_c, 1, 94, 127
3, 131544, Note_on_c, 1, 94, 0
3, 131580, Note_on_c, 1, 94, 127
3, 131628, Note_on_c, 1, 94, 0
3, 131640, Note_on_c, 1, 95, 127
3, 131736, Note_on_c, 1, 95, 0
3, 131760, Note_on_c, 1, 96, 127
3, 132504, Note_on_c, 1, 96, 0
3, 132600, Note_on_c, 1, 94, 127
3, 132648, Note_on_c, 1, 94, 0
3, 132660, Note_on_c, 1, 91, 127
3, 132684, Note_on_c, 1, 91, 0
3, 132690, Note_on_c, 1, 93, 127
3, 132714, Note_on_c, 1, 93, 0
3, 132720, Note_on_c, 1, 94, 127
3, 132816, Note_on_c, 1, 94, 0
3, 132900, Note_on_c, 1, 91, 127
3, 132924, Note_on_c, 1, 91, 0
3, 132930, Note_on_c, 1, 93, 127
3, 132954, Note_on_c, 1, 93, 0
3, 132960, Note_on_c, 1, 94, 127
3, 133056, Note_on_c, 1, 94, 0
3, 133140, Note_on_c, 1, 91, 127
3, 133164, Note_on_c, 1, 91, 0
3, 133170, Note_on_c, 1, 93, 127
3, 133194, Note_on_c, 1, 93, 0
3, 133200, Note_on_c, 1, 94, 127
3, 133296, Note_on_c, 1, 94, 0
3, 133380, Note_on_c, 1, 91, 127
3, 133404, Note_on_c, 1, 91, 0
3, 133410, Note_on_c, 1, 93, 127
3, 133434, Note_on_c, 1, 93, 0
3, 133440, Note_on_c, 1, 94, 127
3, 133488, Note_on_c, 1, 94, 0
3, 133500, Note_on_c, 1, 88, 127
3, 133548, Note_on_c, 1, 88, 0
3, 133560, Note_on_c, 1, 89, 127
3, 133848, Note_on_c, 1, 89, 0
3, 133920, Note_on_c, 1, 84, 127
3, 133968, Note_on_c, 1, 84, 0
3, 133980, Note_on_c, 1, 84, 127
3, 134028, Note_on_c, 1, 84, 0
3, 134040, Note_on_c, 1, 89, 127
3, 134136, Note_on_c, 1, 89, 0
3, 134160, Note_on_c, 1, 84, 127
3, 134256, Note_on_c, 1, 84, 0
3, 134280, Note_on_c, 1, 81, 127
3, 134376, Note_on_c, 1, 81, 0
3, 134400, Note_on_c, 1, 84, 127
3, 134496, Note_on_c, 1, 84, 0
3, 134520, Note_on_c, 1, 89, 127
3, 134808, Note_on_c, 1, 89, 0
3, 134880, Note_on_c, 1, 84, 127
3, 134928, Note_on_c, 1, 84, 0
3, 134940, Note_on_c, 1, 84, 127
3, 134988, Note_on_c, 1, 84, 0
3, 135000, Note_on_c, 1, 89, 127
3, 135096, Note_on_c, 1, 89, 0
3, 135120, Note_on_c, 1, 84, 127
3, 135216, Note_on_c, 1, 84, 0
3, 135240, Note_on_c, 1, 81, 127
3, 135336, Note_on_c, 1, 81, 0
3, 135360, Note_on_c, 1, 84, 127
3, 135456, Note_on_c, 1, 84, 0
3, 135480, Note_on_c, 1, 89, 127
3, 135672, Note_on_c, 1, 89, 0
3, 135720, Note_on_c, 1, 93, 127
3, 135816, Note_on_c, 1, 93, 0
3, 135840, Note_on_c, 1, 93, 127
3, 135888, Note_on_c, 1, 93, 0
3, 135900, Note_on_c, 1, 93, 127
3, 135948, Note_on_c, 1, 93, 0
3, 135960, Note_on_c, 1, 96, 127
3, 136248, Note_on_c, 1, 96, 0
3, 136320, Note_on_c, 1, 84, 127
3, 136416, Note_on_c, 1, 84, 0
3, 136440, Note_on_c, 1, 89, 127
3, 136632, Note_on_c, 1, 89, 0
3, 136680, Note_on_c, 1, 93, 127
3, 136776, Note_on_c, 1, 93, 0
3, 136800, Note_on_c, 1, 93, 127
3, 136848, Note_on_c, 1, 93, 0
3, 136860, Note_on_c, 1, 93, 127
3, 136908, Note_on_c, 1, 93, 0
3, 136920, Note_on_c, 1, 96, 127
3, 137208, Note_on_c, 1, 96, 0
3, 137280, Note_on_c, 1, 84, 127
3, 137376, Note_on_c, 1, 84, 0
3, 137400, Note_on_c, 1, 89, 127
3, 137592, Note_on_c, 1, 89, 0
3, 137640, Note_on_c, 1, 93, 127
3, 137736, Note_on_c, 1, 93, 0
3, 137760, Note_on_c, 1, 93, 127
3, 137808, Note_on_c, 1, 93, 0
3, 137820, Note_on_c, 1, 93, 127
3, 137868, Note_on_c, 1, 93, 0
3, 137880, Note_on_c, 1, 96, 127
3, 138168, Note_on_c, 1, 96, 0
3, 138240, Note_on_c, 1, 84, 127
3, 138336, Note_on_c, 1, 84, 0
3, 138360, Note_on_c, 1, 96, 127
3, 138648, Note_on_c, 1, 96, 0
3, 138720, Note_on_c, 1, 84, 127
3, 138816, Note_on_c, 1, 84, 0
3, 138840, Note_on_c, 1, 96, 127
3, 139128, Note_on_c, 1, 96, 0
3, 139200, Note_on_c, 1, 84, 127
3, 139296, Note_on_c, 1, 84, 0
3, 139320, Note_on_c, 1, 96, 127
3, 140184, Note_on_c, 1, 96, 0
3, 140280, Note_on_c, 1, 101, 127
3, 140376, Note_on_c, 1, 101, 0
3, 140460, Note_on_c, 1, 96, 127
3, 140476, Note_on_c, 1, 96, 0
3, 140480, Note_on_c, 1, 98, 127
3, 140496, Note_on_c, 1, 98, 0
3, 140500, Note_on_c, 1, 100, 127
3, 140516, Note_on_c, 1, 100, 0
3, 140520, Note_on_c, 1, 101, 127
3, 140616, Note_on_c, 1, 101, 0
3, 140940, Note_on_c, 1, 96, 127
3, 140956, Note_on_c, 1, 96, 0
3, 140960, Note_on_c, 1, 98, 127
3, 140976, Note_on_c, 1, 98, 0
3, 140980, Note_on_c, 1, 100, 127
3, 140996, Note_on_c, 1, 100, 0
3, 141000, Note_on_c, 1, 101, 127
3, 141096, Note_on_c, 1, 101, 0
3, 141420, Note_on_c, 1, 96, 127
3, 141436, Note_on_c, 1, 96, 0
3, 141440, Note_on_c, 1, 98, 127
3, 141456, Note_on_c, 1, 98, 0
3, 141460, Note_on_c, 1, 100, 127
3, 141476, Note_on_c, 1, 100, 0
3, 141480, Note_on_c, 1, 101, 127
3, 141576, Note_on_c, 1, 101, 0
3, 141900, Note_on_c, 1, 96, 127
3, 141916, Note_on_c, 1, 96, 0
3, 141920, Note_on_c, 1, 98, 127
3, 141936, Note_on_c, 1, 98, 0
3, 141940, Note_on_c, 1, 100, 127
3, 141956, Note_on_c, 1, 100, 0
3, 141960, Note_on_c, 1, 101, 127
3, 142056, Note_on_c, 1, 101, 0
3, 142140, Note_on_c, 1, 96, 127
3, 142156, Note_on_c, 1, 96, 0
3, 142160, Note_on_c, 1, 98, 127
3, 142176, Note_on_c, 1, 98, 0
3, 142180, Note_on_c, 1, 100, 127
3, 142196, Note_on_c, 1, 100, 0
3, 142200, Note_on_c, 1, 101, 127
3, 142296, Note_on_c, 1, 101, 0
3, 142296, End_track
4, 0, Start_track
4, 0, Title_t, "2 Oboi"
4, 0, Program_c, 2, 68
4, 0, Control_c, 2, 7, 80
4, 0, Control_c, 2, 10, 40
4, 1440, Note_on_c, 2, 65, 127
4, 1440, Note_on_c, 2, 77, 127
4, 2016, Note_on_c, 2, 77, 0
4, 2016, Note_on_c, 2, 65, 0
4, 4680, Note_on_c, 2, 72, 50
4, 4800, Note_on_c, 2, 72, 0
4, 4800, Note_on_c, 2, 71, 50
4, 4920, Note_on_c, 2, 71, 0
4, 4920, Note_on_c, 2, 80, 50
4, 5040, Note_on_c, 2, 80, 0
4, 5040, Note_on_c, 2, 79, 50
4, 5136, Note_on_c, 2, 79, 0
4, 5160, Note_on_c, 2, 77, 50
4, 5592, Note_on_c, 2, 77, 0
4, 5640, Note_on_c, 2, 77, 50
4, 5760, Note_on_c, 2, 77, 0
4, 5760, Note_on_c, 2, 77, 50
4, 6000, Note_on_c, 2, 77, 0
4, 6000, Note_on_c, 2, 75, 50
4, 6096, Note_on_c, 2, 75, 0
4, 7200, Note_on_c, 2, 65, 70
4, 7200, Note_on_c, 2, 77, 70
4, 7776, Note_on_c, 2, 77, 0
4, 7776, Note_on_c, 2, 65, 0
4, 7920, Note_on_c, 2, 77, 127
4, 7920, Note_on_c, 2, 80, 127
4, 8112, Note_on_c, 2, 80, 0
4, 8112, Note_on_c, 2, 77, 0
4, 8160, Note_on_c, 2, 80, 127
4, 8160, Note_on_c, 2, 77, 127
4, 8352, Note_on_c, 2, 77, 0
4, 8352, Note_on_c, 2, 80, 0
4, 8580, Note_on_c, 2, 77, 127
4, 8580, Note_on_c, 2, 80, 127
4, 8628, Note_on_c, 2, 80, 0
4, 8628, Note_on_c, 2, 77, 0
4, 8640, Note_on_c, 2, 79, 127
4, 8640, Note_on_c, 2, 82, 127
4, 8832, Note_on_c, 2, 82, 0
4, 8832, Note_on_c, 2, 79, 0
4, 8880, Note_on_c, 2, 84, 127
4, 8880, Note_on_c, 2, 80, 127
4, 9072, Note_on_c, 2, 80, 0
4, 9072, Note_on_c, 2, 84, 0
4, 9960, Note_on_c, 2, 73, 50
4, 10176, Note_on_c, 2, 73, 0
4, 10440, Note_on_c, 2, 78, 50
4, 10560, Note_on_c, 2, 78, 0
4, 10560, Note_on_c, 2, 77, 50
4, 10680, Note_on_c, 2, 77, 0
4, 10680, Note_on_c, 2, 70, 50
4, 10776, Note_on_c, 2, 70, 0
4, 10920, Note_on_c, 2, 77, 50
4, 11040, Note_on_c, 2, 77, 0
4, 11040, Note_on_c, 2, 75, 50
4, 11400, Note_on_c, 2, 75, 0
4, 11400, Note_on_c, 2, 72, 50
4, 11520, Note_on_c, 2, 72, 0
4, 11520, Note_on_c, 2, 73, 50
4, 11616, Note_on_c, 2, 73, 0
4, 15240, Note_on_c, 2, 82, 50
4, 15360, Note_on_c, 2, 82, 0
4, 15360, Note_on_c, 2, 84, 50
4, 15420, Note_on_c, 2, 84, 0
4, 15420, Note_on_c, 2, 82, 50
4, 15480, Note_on_c, 2, 82, 0
4, 15480, Note_on_c, 2, 80, 50
4, 15540, Note_on_c, 2, 80, 0
4, 15540, Note_on_c, 2, 79, 50
4, 15600, Note_on_c, 2, 79, 0
4, 15600, Note_on_c, 2, 79, 50
4, 15720, Note_on_c, 2, 79, 0
4, 15960, Note_on_c, 2, 79, 50
4, 16056, Note_on_c, 2, 79, 0
4, 16080, Note_on_c, 2, 80, 50
4, 16128, Note_on_c, 2, 80, 0
4, 16140, Note_on_c, 2, 79, 50
4, 16188, Note_on_c, 2, 79, 0
4, 16200, Note_on_c, 2, 77, 50
4, 16248, Note_on_c, 2, 77, 0
4, 16260, Note_on_c, 2, 76, 50
4, 16308, Note_on_c, 2, 76, 0
4, 16320, Note_on_c, 2, 76, 50
4, 16416, Note_on_c, 2, 76, 0
4, 16680, Note_on_c, 2, 76, 50
4, 16776, Note_on_c, 2, 76, 0
4, 16800, Note_on_c, 2, 77, 50
4, 16848, Note_on_c, 2, 77, 0
4, 16860, Note_on_c, 2, 76, 50
4, 16908, Note_on_c, 2, 76, 0
4, 16920, Note_on_c, 2, 73, 50
4, 16968, Note_on_c, 2, 73, 0
4, 16980, Note_on_c, 2, 72, 50
4, 17028, Note_on_c, 2, 72, 0
4, 17040, Note_on_c, 2, 72, 50
4, 17136, Note_on_c, 2, 72, 0
4, 23640, Note_on_c, 2, 77, 64
4, 23736, Note_on_c, 2, 77, 0
4, 23760, Note_on_c, 2, 75, 80
4, 23952, Note_on_c, 2, 75, 0
4, 24000, Note_on_c, 2, 73, 64
4, 24096, Note_on_c, 2, 73, 0
4, 24120, Note_on_c, 2, 72, 56
4, 24216, Note_on_c, 2, 72, 0
4, 24840, Note_on_c, 2, 72, 56
4, 24936, Note_on_c, 2, 72, 0
4, 25320, Note_on_c, 2, 67, 51
4, 25320, Note_on_c, 2, 76, 51
4, 25416, Note_on_c, 2, 76, 0
4, 25416, Note_on_c, 2, 67, 0
4, 25680, Note_on_c, 2, 68, 56
4, 25680, Note_on_c, 2, 77, 56
4, 25776, Note_on_c, 2, 77, 0
4, 25776, Note_on_c, 2, 68, 0
4, 26040, Note_on_c, 2, 76, 61
4, 26040, Note_on_c, 2, 79, 61
4, 26136, Note_on_c, 2, 79, 0
4, 26136, Note_on_c, 2, 76, 0
4, 26400, Note_on_c, 2, 77, 66
4, 26400, Note_on_c, 2, 80, 66
4, 26496, Note_on_c, 2, 80, 0
4, 26496, Note_on_c, 2, 77, 0
4, 26760, Note_on_c, 2, 79, 71
4, 26760, Note_on_c, 2, 82, 71
4, 26856, Note_on_c, 2, 82, 0
4, 26856, Note_on_c, 2, 79, 0
4, 27120, Note_on_c, 2, 79, 76
4, 27120, Note_on_c, 2, 82, 76
4, 27216, Note_on_c, 2, 82, 0
4, 27216, Note_on_c, 2, 79, 0
4, 27480, Note_on_c, 2, 79, 81
4, 27480, Note_on_c, 2, 82, 81
4, 27576, Note_on_c, 2, 82, 0
4, 27576, Note_on_c, 2, 79, 0
4, 27840, Note_on_c, 2, 79, 86
4, 27840, Note_on_c, 2, 82, 86
4, 27936, Note_on_c, 2, 82, 0
4, 27936, Note_on_c, 2, 79, 0
4, 28200, Note_on_c, 2, 82, 91
4, 28200, Note_on_c, 2, 79, 91
4, 28296, Note_on_c, 2, 79, 0
4, 28296, Note_on_c, 2, 82, 0
4, 28560, Note_on_c, 2, 82, 96
4, 28560, Note_on_c, 2, 79, 96
4, 28656, Note_on_c, 2, 79, 0
4, 28656, Note_on_c, 2, 82, 0
4, 28920, Note_on_c, 2, 82, 101
4, 28920, Note_on_c, 2, 79, 101
4, 29016, Note_on_c, 2, 79, 0
4, 29016, Note_on_c, 2, 82, 0
4, 29280, Note_on_c, 2, 82, 106
4, 29280, Note_on_c, 2, 79, 106
4, 29376, Note_on_c, 2, 79, 0
4, 29376, Note_on_c, 2, 82, 0
4, 29640, Note_on_c, 2, 82, 111
4, 29640, Note_on_c, 2, 79, 111
4, 29736, Note_on_c, 2, 79, 0
4, 29736, Note_on_c, 2, 82, 0
4, 30000, Note_on_c, 2, 82, 116
4, 30000, Note_on_c, 2, 79, 116
4, 30096, Note_on_c, 2, 79, 0
4, 30096, Note_on_c, 2, 82, 0
4, 30360, Note_on_c, 2, 79, 121
4, 30360, Note_on_c, 2, 82, 121
4, 30456, Note_on_c, 2, 82, 0
4, 30456, Note_on_c, 2, 79, 0
4, 30720, Note_on_c, 2, 79, 127
4, 30720, Note_on_c, 2, 82, 127
4, 30816, Note_on_c, 2, 82, 0
4, 30816, Note_on_c, 2, 79, 0
4, 30840, Note_on_c, 2, 72, 127
4, 30840, Note_on_c, 2, 84, 127
4, 30936, Note_on_c, 2, 84, 0
4, 30936, Note_on_c, 2, 72, 0
4, 30960, Note_on_c, 2, 77, 127
4, 30960, Note_on_c, 2, 80, 127
4, 31776, Note_on_c, 2, 80, 0
4, 31776, Note_on_c, 2, 77, 0
4, 31800, Note_on_c, 2, 77, 121
4, 31800, Note_on_c, 2, 80, 121
4, 31896, Note_on_c, 2, 80, 0
4, 31896, Note_on_c, 2, 77, 0
4, 31920, Note_on_c, 2, 77, 120
4, 31920, Note_on_c, 2, 80, 120
4, 32016, Note_on_c, 2, 80, 0
4, 32016, Note_on_c, 2, 77, 0
4, 32040, Note_on_c, 2, 76, 119
4, 32040, Note_on_c, 2, 79, 119
4, 32136, Note_on_c, 2, 79, 0
4, 32136, Note_on_c, 2, 76, 0
4, 32280, Note_on_c, 2, 79, 117
4, 32280, Note_on_c, 2, 82, 117
4, 33216, Note_on_c, 2, 82, 0
4, 33216, Note_on_c, 2, 79, 0
4, 33240, Note_on_c, 2, 79, 110
4, 33240, Note_on_c, 2, 82, 110
4, 33336, Note_on_c, 2, 82, 0
4, 33336, Note_on_c, 2, 79, 0
4, 33360, Note_on_c, 2, 79, 109
4, 33360, Note_on_c, 2, 82, 109
4, 33456, Note_on_c, 2, 82, 0
4, 33456, Note_on_c, 2, 79, 0
4, 33480, Note_on_c, 2, 77, 108
4, 33480, Note_on_c, 2, 80, 108
4, 33576, Note_on_c, 2, 80, 0
4, 33576, Note_on_c, 2, 77, 0
4, 33840, Note_on_c, 2, 79, 106
4, 33840, Note_on_c, 2, 82, 106
4, 33936, Note_on_c, 2, 82, 0
4, 33936, Note_on_c, 2, 79, 0
4, 34200, Note_on_c, 2, 80, 103
4, 34200, Note_on_c, 2, 84, 103
4, 34296, Note_on_c, 2, 84, 0
4, 34296, Note_on_c, 2, 80, 0
4, 34560, Note_on_c, 2, 82, 100
4, 34560, Note_on_c, 2, 85, 100
4, 34656, Note_on_c, 2, 85, 0
4, 34656, Note_on_c, 2, 82, 0
4, 34680, Note_on_c, 2, 82, 109
4, 34680, Note_on_c, 2, 85, 109
4, 34776, Note_on_c, 2, 85, 0
4, 34776, Note_on_c, 2, 82, 0
4, 34800, Note_on_c, 2, 82, 118
4, 34800, Note_on_c, 2, 84, 118
4, 34896, Note_on_c, 2, 84, 0
4, 34896, Note_on_c, 2, 82, 0
4, 34920, Note_on_c, 2, 80, 127
4, 34920, Note_on_c, 2, 84, 127
4, 35016, Note_on_c, 2, 84, 0
4, 35016, Note_on_c, 2, 80, 0
4, 35280, Note_on_c, 2, 79, 104
4, 35280, Note_on_c, 2, 82, 104
4, 35376, Note_on_c, 2, 82, 0
4, 35376, Note_on_c, 2, 79, 0
4, 35640, Note_on_c, 2, 80, 112
4, 35640, Note_on_c, 2, 84, 112
4, 35736, Note_on_c, 2, 84, 0
4, 35736, Note_on_c, 2, 80, 0
4, 35880, Note_on_c, 2, 80, 117
4, 35880, Note_on_c, 2, 72, 117
4, 35976, Note_on_c, 2, 72, 0
4, 35976, Note_on_c, 2, 80, 0
4, 36000, Note_on_c, 2, 73, 119
4, 36000, Note_on_c, 2, 80, 119
4, 36096, Note_on_c, 2, 80, 0
4, 36096, Note_on_c, 2, 73, 0
4, 36120, Note_on_c, 2, 73, 122
4, 36120, Note_on_c, 2, 80, 122
4, 36216, Note_on_c, 2, 80, 0
4, 36216, Note_on_c, 2, 73, 0
4, 36240, Note_on_c, 2, 74, 124
4, 36240, Note_on_c, 2, 80, 124
4, 36336, Note_on_c, 2, 80, 0
4, 36336, Note_on_c, 2, 74, 0
4, 36360, Note_on_c, 2, 75, 80
4, 36360, Note_on_c, 2, 79, 80
4, 36648, Note_on_c, 2, 79, 0
4, 36648, Note_on_c, 2, 75, 0
4, 36720, Note_on_c, 2, 75, 80
4, 36720, Note_on_c, 2, 80, 80
4, 37008, Note_on_c, 2, 80, 0
4, 37008, Note_on_c, 2, 75, 0
4, 37080, Note_on_c, 2, 77, 80
4, 37080, Note_on_c, 2, 80, 80
4, 37368, Note_on_c, 2, 80, 0
4, 37368, Note_on_c, 2, 77, 0
4, 37440, Note_on_c, 2, 75, 80
4, 37440, Note_on_c, 2, 79, 80
4, 37536, Note_on_c, 2, 79, 0
4, 37536, Note_on_c, 2, 75, 0
4, 37560, Note_on_c, 2, 75, 80
4, 37560, Note_on_c, 2, 79, 80
4, 37656, Note_on_c, 2, 79, 0
4, 37656, Note_on_c, 2, 75, 0
4, 37680, Note_on_c, 2, 75, 80
4, 37680, Note_on_c, 2, 79, 80
4, 37776, Note_on_c, 2, 79, 0
4, 37776, Note_on_c, 2, 75, 0
4, 37800, Note_on_c, 2, 75, 80
4, 37800, Note_on_c, 2, 79, 80
4, 38088, Note_on_c, 2, 79, 0
4, 38088, Note_on_c, 2, 75, 0
4, 38160, Note_on_c, 2, 75, 80
4, 38160, Note_on_c, 2, 80, 80
4, 38448, Note_on_c, 2, 80, 0
4, 38448, Note_on_c, 2, 75, 0
4, 38520, Note_on_c, 2, 77, 80
4, 38520, Note_on_c, 2, 80, 80
4, 38808, Note_on_c, 2, 80, 0
4, 38808, Note_on_c, 2, 77, 0
4, 38880, Note_on_c, 2, 75, 80
4, 38880, Note_on_c, 2, 79, 80
4, 38976, Note_on_c, 2, 79, 0
4, 38976, Note_on_c, 2, 75, 0
4, 40320, Control_c, 2, 91, 112
4, 40320, Note_on_c, 2, 80, 50
4, 40320, Note_on_c, 2, 84, 50
4, 40440, Note_on_c, 2, 84, 0
4, 40440, Note_on_c, 2, 80, 0
4, 40440, Note_on_c, 2, 75, 50
4, 40440, Note_on_c, 2, 80, 50
4, 40560, Note_on_c, 2, 80, 0
4, 40560, Note_on_c, 2, 75, 0
4, 40560, Note_on_c, 2, 72, 50
4, 40560, Note_on_c, 2, 75, 50
4, 40656, Note_on_c, 2, 75, 0
4, 40656, Note_on_c, 2, 72, 0
4, 41760, Note_on_c, 2, 80, 50
4, 41760, Note_on_c, 2, 84, 50
4, 41880, Note_on_c, 2, 84, 0
4, 41880, Note_on_c, 2, 80, 0
4, 41880, Note_on_c, 2, 75, 50
4, 41880, Note_on_c, 2, 80, 50
4, 42000, Note_on_c, 2, 80, 0
4, 42000, Note_on_c, 2, 75, 0
4, 42000, Note_on_c, 2, 72, 50
4, 42000, Note_on_c, 2, 75, 50
4, 42096, Note_on_c, 2, 75, 0
4, 42096, Note_on_c, 2, 72, 0
4, 42840, Control_c, 2, 91, 64
4, 42840, Note_on_c, 2, 73, 50
4, 42840, Note_on_c, 2, 76, 50
4, 43200, Note_on_c, 2, 76, 0
4, 43200, Note_on_c, 2, 73, 0
4, 43200, Note_on_c, 2, 74, 52
4, 43200, Note_on_c, 2, 78, 52
4, 43320, Note_on_c, 2, 78, 0
4, 43320, Note_on_c, 2, 74, 0
4, 43320, Note_on_c, 2, 76, 53
4, 43320, Note_on_c, 2, 80, 53
4, 43440, Note_on_c, 2, 80, 0
4, 43440, Note_on_c, 2, 76, 0
4, 43440, Note_on_c, 2, 78, 54
4, 43440, Note_on_c, 2, 81, 54
4, 43536, Note_on_c, 2, 81, 0
4, 43536, Note_on_c, 2, 78, 0
4, 43560, Note_on_c, 2, 76, 55
4, 43560, Note_on_c, 2, 73, 55
4, 43920, Note_on_c, 2, 73, 0
4, 43920, Note_on_c, 2, 76, 0
4, 43920, Note_on_c, 2, 78, 58
4, 43920, Note_on_c, 2, 74, 58
4, 44040, Note_on_c, 2, 74, 0
4, 44040, Note_on_c, 2, 78, 0
4, 44040, Note_on_c, 2, 80, 59
4, 44040, Note_on_c, 2, 76, 59
4, 44160, Note_on_c, 2, 76, 0
4, 44160, Note_on_c, 2, 80, 0
4, 44160, Note_on_c, 2, 81, 60
4, 44160, Note_on_c, 2, 78, 60
4, 44256, Note_on_c, 2, 78, 0
4, 44256, Note_on_c, 2, 81, 0
4, 44280, Note_on_c, 2, 76, 61
4, 44280, Note_on_c, 2, 73, 61
4, 44568, Note_on_c, 2, 73, 0
4, 44568, Note_on_c, 2, 76, 0
4, 44640, Note_on_c, 2, 74, 64
4, 44640, Note_on_c, 2, 77, 64
4, 45288, Note_on_c, 2, 77, 0
4, 45288, Note_on_c, 2, 74, 0
4, 45360, Note_on_c, 2, 75, 70
4, 45360, Note_on_c, 2, 82, 70
4, 45648, Note_on_c, 2, 82, 0
4, 45648, Note_on_c, 2, 75, 0
4, 45720, Note_on_c, 2, 75, 95
4, 45720, Note_on_c, 2, 80, 95
4, 45816, Note_on_c, 2, 80, 0
4, 45816, Note_on_c, 2, 75, 0
4, 46320, Note_on_c, 2, 68, 95
4, 46320, Note_on_c, 2, 80, 95
4, 46440, Note_on_c, 2, 80, 0
4, 46440, Note_on_c, 2, 68, 0
4, 46440, Note_on_c, 2, 70, 95
4, 46440, Note_on_c, 2, 82, 95
4, 46536, Note_on_c, 2, 82, 0
4, 46536, Note_on_c, 2, 70, 0
4, 46560, Note_on_c, 2, 70, 95
4, 46560, Note_on_c, 2, 82, 95
4, 46656, Note_on_c, 2, 82, 0
4, 46656, Note_on_c, 2, 70, 0
4, 46680, Note_on_c, 2, 70, 95
4, 46680, Note_on_c, 2, 82, 95
4, 46896, Note_on_c, 2, 82, 0
4, 46896, Note_on_c, 2, 70, 0
4, 46920, Note_on_c, 2, 73, 95
4, 46920, Note_on_c, 2, 82, 95
4, 47016, Note_on_c, 2, 82, 0
4, 47016, Note_on_c, 2, 73, 0
4, 47040, Note_on_c, 2, 82, 95
4, 47040, Note_on_c, 2, 73, 95
4, 47136, Note_on_c, 2, 73, 0
4, 47136, Note_on_c, 2, 82, 0
4, 47160, Note_on_c, 2, 72, 95
4, 47160, Note_on_c, 2, 80, 95
4, 47256, Note_on_c, 2, 80, 0
4, 47256, Note_on_c, 2, 72, 0
4, 47880, Note_on_c, 2, 72, 80
4, 47880, Note_on_c, 2, 75, 80
4, 47976, Note_on_c, 2, 75, 0
4, 47976, Note_on_c, 2, 72, 0
4, 48600, Note_on_c, 2, 75, 80
4, 48600, Note_on_c, 2, 80, 80
4, 48696, Note_on_c, 2, 80, 0
4, 48696, Note_on_c, 2, 75, 0
4, 49080, Note_on_c, 2, 80, 114
4, 49080, Note_on_c, 2, 84, 114
4, 49176, Note_on_c, 2, 84, 0
4, 49176, Note_on_c, 2, 80, 0
4, 49200, Note_on_c, 2, 80, 120
4, 49200, Note_on_c, 2, 84, 120
4, 49296, Note_on_c, 2, 84, 0
4, 49296, Note_on_c, 2, 80, 0
4, 49320, Note_on_c, 2, 82, 127
4, 49320, Note_on_c, 2, 85, 127
4, 49608, Note_on_c, 2, 85, 0
4, 49608, Note_on_c, 2, 82, 0
4, 49680, Note_on_c, 2, 82, 127
4, 49680, Note_on_c, 2, 85, 127
4, 49968, Note_on_c, 2, 85, 0
4, 49968, Note_on_c, 2, 82, 0
4, 50040, Note_on_c, 2, 80, 127
4, 50040, Note_on_c, 2, 84, 127
4, 50328, Note_on_c, 2, 84, 0
4, 50328, Note_on_c, 2, 80, 0
4, 50400, Note_on_c, 2, 82, 127
4, 50400, Note_on_c, 2, 85, 127
4, 50688, Note_on_c, 2, 85, 0
4, 50688, Note_on_c, 2, 82, 0
4, 50760, Note_on_c, 2, 80, 127
4, 50760, Note_on_c, 2, 84, 127
4, 51048, Note_on_c, 2, 84, 0
4, 51048, Note_on_c, 2, 80, 0
4, 51120, Note_on_c, 2, 82, 127
4, 51120, Note_on_c, 2, 85, 127
4, 51408, Note_on_c, 2, 85, 0
4, 51408, Note_on_c, 2, 82, 0
4, 51480, Note_on_c, 2, 80, 127
4, 51480, Note_on_c, 2, 84, 127
4, 51576, Note_on_c, 2, 84, 0
4, 51576, Note_on_c, 2, 80, 0
4, 53520, Control_c, 2, 7, 88
4, 53520, Note_on_c, 2, 79, 50
4, 53640, Note_on_c, 2, 79, 0
4, 53640, Note_on_c, 2, 82, 50
4, 53760, Note_on_c, 2, 82, 0
4, 53760, Note_on_c, 2, 79, 50
4, 53880, Note_on_c, 2, 79, 0
4, 54240, Note_on_c, 2, 75, 127
4, 54240, Note_on_c, 2, 79, 127
4, 54336, Note_on_c, 2, 79, 0
4, 54336, Note_on_c, 2, 75, 0
4, 54360, Note_on_c, 2, 75, 127
4, 54360, Note_on_c, 2, 80, 127
4, 54456, Note_on_c, 2, 80, 0
4, 54456, Note_on_c, 2, 75, 0
4, 56400, Note_on_c, 2, 81, 50
4, 56520, Note_on_c, 2, 81, 0
4, 56520, Note_on_c, 2, 84, 50
4, 56640, Note_on_c, 2, 84, 0
4, 56640, Note_on_c, 2, 81, 50
4, 56760, Note_on_c, 2, 81, 0
4, 57120, Note_on_c, 2, 81, 127
4, 57120, Note_on_c, 2, 77, 127
4, 57216, Note_on_c, 2, 77, 0
4, 57216, Note_on_c, 2, 81, 0
4, 57240, Note_on_c, 2, 77, 127
4, 57240, Note_on_c, 2, 82, 127
4, 57336, Note_on_c, 2, 82, 0
4, 57336, Note_on_c, 2, 77, 0
4, 59280, Note_on_c, 2, 81, 50
4, 59400, Note_on_c, 2, 81, 0
4, 59400, Note_on_c, 2, 84, 50
4, 59520, Note_on_c, 2, 84, 0
4, 59520, Note_on_c, 2, 81, 50
4, 59640, Note_on_c, 2, 81, 0
4, 60000, Note_on_c, 2, 77, 127
4, 60000, Note_on_c, 2, 81, 127
4, 60096, Note_on_c, 2, 81, 0
4, 60096, Note_on_c, 2, 77, 0
4, 60120, Note_on_c, 2, 77, 127
4, 60120, Note_on_c, 2, 82, 127
4, 60216, Note_on_c, 2, 82, 0
4, 60216, Note_on_c, 2, 77, 0
4, 61440, Note_on_c, 2, 77, 50
4, 61560, Note_on_c, 2, 77, 0
4, 61560, Note_on_c, 2, 79, 50
4, 61680, Note_on_c, 2, 79, 0
4, 61680, Note_on_c, 2, 77, 50
4, 61800, Note_on_c, 2, 77, 0
4, 62160, Control_c, 2, 7, 72
4, 62160, Note_on_c, 2, 79, 50
4, 62160, Note_on_c, 2, 75, 50
4, 63240, Note_on_c, 2, 75, 0
4, 63240, Note_on_c, 2, 79, 0
4, 63240, Note_on_c, 2, 75, 66
4, 63240, Note_on_c, 2, 84, 66
4, 63336, Note_on_c, 2, 84, 0
4, 63360, Note_on_c, 2, 75, 0
4, 63360, Note_on_c, 2, 74, 70
4, 63360, Note_on_c, 2, 83, 70
4, 63456, Note_on_c, 2, 83, 0
4, 63456, Note_on_c, 2, 74, 0
4, 63600, Note_on_c, 2, 71, 76
4, 63600, Note_on_c, 2, 79, 76
4, 63696, Note_on_c, 2, 79, 0
4, 63696, Note_on_c, 2, 71, 0
4, 63720, Note_on_c, 2, 71, 80
4, 63720, Note_on_c, 2, 79, 80
4, 64680, Note_on_c, 2, 79, 0
4, 64680, Note_on_c, 2, 71, 0
4, 64680, Note_on_c, 2, 77, 106
4, 64680, Note_on_c, 2, 86, 106
4, 64776, Note_on_c, 2, 86, 0
4, 64776, Note_on_c, 2, 77, 0
4, 64800, Note_on_c, 2, 79, 50
4, 65088, Note_on_c, 2, 79, 0
4, 65160, Note_on_c, 2, 79, 50
4, 65448, Note_on_c, 2, 79, 0
4, 65520, Note_on_c, 2, 79, 50
4, 66168, Note_on_c, 2, 79, 0
4, 66240, Note_on_c, 2, 76, 50
4, 66528, Note_on_c, 2, 76, 0
4, 66600, Note_on_c, 2, 76, 50
4, 66888, Note_on_c, 2, 76, 0
4, 66960, Note_on_c, 2, 76, 50
4, 68232, Note_on_c, 2, 76, 0
4, 68280, Note_on_c, 2, 77, 64
4, 68376, Note_on_c, 2, 77, 0
4, 68400, Note_on_c, 2, 77, 45
4, 68400, Note_on_c, 2, 80, 45
4, 68496, Note_on_c, 2, 80, 0
4, 68496, Note_on_c, 2, 77, 0
4, 68520, Note_on_c, 2, 77, 45
4, 68520, Note_on_c, 2, 80, 45
4, 68616, Note_on_c, 2, 80, 0
4, 68616, Note_on_c, 2, 77, 0
4, 68880, Note_on_c, 2, 80, 56
4, 68880, Note_on_c, 2, 77, 56
4, 68976, Note_on_c, 2, 77, 0
4, 68976, Note_on_c, 2, 80, 0
4, 69240, Note_on_c, 2, 80, 56
4, 69240, Note_on_c, 2, 77, 56
4, 69336, Note_on_c, 2, 77, 0
4, 69336, Note_on_c, 2, 80, 0
4, 69600, Note_on_c, 2, 79, 56
4, 69600, Note_on_c, 2, 82, 56
4, 69696, Note_on_c, 2, 82, 0
4, 69696, Note_on_c, 2, 79, 0
4, 69960, Note_on_c, 2, 79, 56
4, 69960, Note_on_c, 2, 76, 56
4, 70056, Note_on_c, 2, 76, 0
4, 70056, Note_on_c, 2, 79, 0
4, 70320, Note_on_c, 2, 79, 56
4, 70320, Note_on_c, 2, 76, 56
4, 70416, Note_on_c, 2, 76, 0
4, 70416, Note_on_c, 2, 79, 0
4, 70680, Note_on_c, 2, 79, 56
4, 70680, Note_on_c, 2, 76, 56
4, 70776, Note_on_c, 2, 76, 0
4, 70776, Note_on_c, 2, 79, 0
4, 71040, Note_on_c, 2, 80, 56
4, 71040, Note_on_c, 2, 77, 56
4, 71136, Note_on_c, 2, 77, 0
4, 71136, Note_on_c, 2, 80, 0
4, 71880, Note_on_c, 2, 77, 56
4, 72000, Note_on_c, 2, 77, 0
4, 72000, Note_on_c, 2, 75, 72
4, 72240, Note_on_c, 2, 75, 0
4, 72240, Note_on_c, 2, 73, 64
4, 72360, Note_on_c, 2, 73, 0
4, 72360, Note_on_c, 2, 72, 56
4, 72456, Note_on_c, 2, 72, 0
4, 73080, Note_on_c, 2, 72, 56
4, 73176, Note_on_c, 2, 72, 0
4, 73560, Note_on_c, 2, 67, 51
4, 73560, Note_on_c, 2, 76, 51
4, 73656, Note_on_c, 2, 76, 0
4, 73656, Note_on_c, 2, 67, 0
4, 73920, Note_on_c, 2, 68, 56
4, 73920, Note_on_c, 2, 77, 56
4, 74016, Note_on_c, 2, 77, 0
4, 74016, Note_on_c, 2, 68, 0
4, 74280, Note_on_c, 2, 76, 61
4, 74280, Note_on_c, 2, 79, 61
4, 74376, Note_on_c, 2, 79, 0
4, 74376, Note_on_c, 2, 76, 0
4, 74640, Note_on_c, 2, 77, 66
4, 74640, Note_on_c, 2, 80, 66
4, 74736, Note_on_c, 2, 80, 0
4, 74736, Note_on_c, 2, 77, 0
4, 75000, Note_on_c, 2, 79, 71
4, 75000, Note_on_c, 2, 82, 71
4, 75096, Note_on_c, 2, 82, 0
4, 75096, Note_on_c, 2, 79, 0
4, 75360, Note_on_c, 2, 79, 76
4, 75360, Note_on_c, 2, 82, 76
4, 75456, Note_on_c, 2, 82, 0
4, 75456, Note_on_c, 2, 79, 0
4, 75720, Note_on_c, 2, 79, 81
4, 75720, Note_on_c, 2, 82, 81
4, 75816, Note_on_c, 2, 82, 0
4, 75816, Note_on_c, 2, 79, 0
4, 76080, Note_on_c, 2, 79, 86
4, 76080, Note_on_c, 2, 82, 86
4, 76176, Note_on_c, 2, 82, 0
4, 76176, Note_on_c, 2, 79, 0
4, 76440, Note_on_c, 2, 79, 91
4, 76440, Note_on_c, 2, 82, 91
4, 76536, Note_on_c, 2, 82, 0
4, 76536, Note_on_c, 2, 79, 0
4, 76800, Note_on_c, 2, 79, 96
4, 76800, Note_on_c, 2, 82, 96
4, 76896, Note_on_c, 2, 82, 0
4, 76896, Note_on_c, 2, 79, 0
4, 77160, Note_on_c, 2, 79, 101
4, 77160, Note_on_c, 2, 82, 101
4, 77256, Note_on_c, 2, 82, 0
4, 77256, Note_on_c, 2, 79, 0
4, 77520, Note_on_c, 2, 79, 106
4, 77520, Note_on_c, 2, 82, 106
4, 77616, Note_on_c, 2, 82, 0
4, 77616, Note_on_c, 2, 79, 0
4, 77880, Note_on_c, 2, 79, 110
4, 77880, Note_on_c, 2, 82, 110
4, 77976, Note_on_c, 2, 82, 0
4, 77976, Note_on_c, 2, 79, 0
4, 78240, Note_on_c, 2, 79, 115
4, 78240, Note_on_c, 2, 82, 115
4, 78336, Note_on_c, 2, 82, 0
4, 78336, Note_on_c, 2, 79, 0
4, 78600, Note_on_c, 2, 82, 120
4, 78600, Note_on_c, 2, 79, 120
4, 78696, Note_on_c, 2, 79, 0
4, 78696, Note_on_c, 2, 82, 0
4, 78960, Note_on_c, 2, 82, 125
4, 78960, Note_on_c, 2, 79, 125
4, 79056, Note_on_c, 2, 79, 0
4, 79056, Note_on_c, 2, 82, 0
4, 79080, Note_on_c, 2, 72, 127
4, 79080, Note_on_c, 2, 84, 127
4, 79200, Note_on_c, 2, 84, 0
4, 79200, Note_on_c, 2, 72, 0
4, 79200, Note_on_c, 2, 77, 127
4, 79200, Note_on_c, 2, 80, 127
4, 80016, Note_on_c, 2, 80, 0
4, 80016, Note_on_c, 2, 77, 0
4, 80040, Note_on_c, 2, 80, 127
4, 80040, Note_on_c, 2, 77, 127
4, 80136, Note_on_c, 2, 77, 0
4, 80136, Note_on_c, 2, 80, 0
4, 80160, Note_on_c, 2, 80, 127
4, 80160, Note_on_c, 2, 77, 127
4, 80256, Note_on_c, 2, 77, 0
4, 80256, Note_on_c, 2, 80, 0
4, 80280, Note_on_c, 2, 76, 127
4, 80280, Note_on_c, 2, 79, 127
4, 80376, Note_on_c, 2, 79, 0
4, 80376, Note_on_c, 2, 76, 0
4, 80520, Note_on_c, 2, 82, 127
4, 80520, Note_on_c, 2, 79, 127
4, 81456, Note_on_c, 2, 79, 0
4, 81456, Note_on_c, 2, 82, 0
4, 81480, Note_on_c, 2, 82, 127
4, 81480, Note_on_c, 2, 79, 127
4, 81576, Note_on_c, 2, 79, 0
4, 81576, Note_on_c, 2, 82, 0
4, 81600, Note_on_c, 2, 82, 127
4, 81600, Note_on_c, 2, 79, 127
4, 81696, Note_on_c, 2, 79, 0
4, 81696, Note_on_c, 2, 82, 0
4, 81720, Note_on_c, 2, 77, 127
4, 81720, Note_on_c, 2, 80, 127
4, 81816, Note_on_c, 2, 80, 0
4, 81816, Note_on_c, 2, 77, 0
4, 82680, Note_on_c, 2, 80, 127
4, 82680, Note_on_c, 2, 77, 127
4, 82800, Note_on_c, 2, 80, 0
4, 82800, Note_on_c, 2, 82, 127
4, 83088, Note_on_c, 2, 82, 0
4, 83088, Note_on_c, 2, 77, 0
4, 83160, Note_on_c, 2, 80, 127
4, 83160, Note_on_c, 2, 77, 127
4, 83256, Note_on_c, 2, 77, 0
4, 83256, Note_on_c, 2, 80, 0
4, 84120, Note_on_c, 2, 80, 127
4, 84120, Note_on_c, 2, 77, 127
4, 84216, Note_on_c, 2, 77, 0
4, 84216, Note_on_c, 2, 80, 0
4, 84240, Note_on_c, 2, 73, 127
4, 84240, Note_on_c, 2, 77, 127
4, 84336, Note_on_c, 2, 77, 0
4, 84336, Note_on_c, 2, 73, 0
4, 84600, Note_on_c, 2, 75, 127
4, 84600, Note_on_c, 2, 78, 127
4, 84696, Note_on_c, 2, 78, 0
4, 84696, Note_on_c, 2, 75, 0
4, 84960, Note_on_c, 2, 77, 127
4, 84960, Note_on_c, 2, 80, 127
4, 85056, Note_on_c, 2, 80, 0
4, 85056, Note_on_c, 2, 77, 0
4, 85320, Note_on_c, 2, 82, 127
4, 85320, Note_on_c, 2, 78, 127
4, 85416, Note_on_c, 2, 78, 0
4, 85416, Note_on_c, 2, 82, 0
4, 85440, Note_on_c, 2, 82, 127
4, 85440, Note_on_c, 2, 78, 127
4, 85536, Note_on_c, 2, 78, 0
4, 85536, Note_on_c, 2, 82, 0
4, 85560, Note_on_c, 2, 84, 127
4, 85560, Note_on_c, 2, 78, 127
4, 85656, Note_on_c, 2, 78, 0
4, 85656, Note_on_c, 2, 84, 0
4, 85680, Note_on_c, 2, 80, 127
4, 85680, Note_on_c, 2, 77, 127
4, 85776, Note_on_c, 2, 77, 0
4, 85776, Note_on_c, 2, 80, 0
4, 86040, Note_on_c, 2, 78, 105
4, 86040, Note_on_c, 2, 75, 105
4, 86136, Note_on_c, 2, 75, 0
4, 86136, Note_on_c, 2, 78, 0
4, 86400, Note_on_c, 2, 80, 112
4, 86400, Note_on_c, 2, 77, 112
4, 86496, Note_on_c, 2, 77, 0
4, 86496, Note_on_c, 2, 80, 0
4, 86760, Note_on_c, 2, 79, 119
4, 86760, Note_on_c, 2, 82, 119
4, 86856, Note_on_c, 2, 82, 0
4, 86856, Note_on_c, 2, 79, 0
4, 86880, Note_on_c, 2, 79, 122
4, 86880, Note_on_c, 2, 82, 122
4, 86976, Note_on_c, 2, 82, 0
4, 86976, Note_on_c, 2, 79, 0
4, 87000, Note_on_c, 2, 80, 124
4, 87000, Note_on_c, 2, 84, 124
4, 87096, Note_on_c, 2, 84, 0
4, 87096, Note_on_c, 2, 80, 0
4, 87120, Note_on_c, 2, 82, 127
4, 87120, Note_on_c, 2, 73, 127
4, 87768, Note_on_c, 2, 73, 0
4, 87768, Note_on_c, 2, 82, 0
4, 87840, Note_on_c, 2, 80, 127
4, 87840, Note_on_c, 2, 72, 127
4, 88032, Note_on_c, 2, 72, 0
4, 88080, Note_on_c, 2, 75, 124
4, 88128, Note_on_c, 2, 80, 0
4, 88176, Note_on_c, 2, 75, 0
4, 88200, Note_on_c, 2, 80, 122
4, 88200, Note_on_c, 2, 77, 122
4, 88488, Note_on_c, 2, 77, 0
4, 88488, Note_on_c, 2, 80, 0
4, 88560, Note_on_c, 2, 79, 117
4, 88560, Note_on_c, 2, 82, 117
4, 88848, Note_on_c, 2, 82, 0
4, 88848, Note_on_c, 2, 79, 0
4, 88920, Note_on_c, 2, 80, 112
4, 88920, Note_on_c, 2, 75, 112
4, 89208, Note_on_c, 2, 75, 0
4, 89208, Note_on_c, 2, 80, 0
4, 89280, Note_on_c, 2, 78, 107
4, 89280, Note_on_c, 2, 80, 107
4, 89568, Note_on_c, 2, 80, 0
4, 89568, Note_on_c, 2, 78, 0
4, 89640, Note_on_c, 2, 80, 102
4, 89640, Note_on_c, 2, 77, 102
4, 89928, Note_on_c, 2, 77, 0
4, 89928, Note_on_c, 2, 80, 0
4, 90000, Note_on_c, 2, 82, 97
4, 90000, Note_on_c, 2, 79, 97
4, 90288, Note_on_c, 2, 79, 0
4, 90288, Note_on_c, 2, 82, 0
4, 90360, Note_on_c, 2, 80, 92
4, 90360, Note_on_c, 2, 75, 92
4, 90456, Note_on_c, 2, 75, 0
4, 90456, Note_on_c, 2, 80, 0
4, 91800, Note_on_c, 2, 80, 50
4, 91920, Note_on_c, 2, 80, 0
4, 91920, Note_on_c, 2, 77, 50
4, 92040, Note_on_c, 2, 77, 0
4, 92040, Note_on_c, 2, 73, 50
4, 92136, Note_on_c, 2, 73, 0
4, 93240, Note_on_c, 2, 80, 50
4, 93360, Note_on_c, 2, 80, 0
4, 93360, Note_on_c, 2, 77, 50
4, 93480, Note_on_c, 2, 77, 0
4, 93480, Note_on_c, 2, 73, 50
4, 93576, Note_on_c, 2, 73, 0
4, 94320, Note_on_c, 2, 78, 50
4, 94320, Note_on_c, 2, 81, 50
4, 94680, Note_on_c, 2, 81, 0
4, 94680, Note_on_c, 2, 78, 0
4, 94680, Note_on_c, 2, 83, 52
4, 94680, Note_on_c, 2, 79, 52
4, 94800, Note_on_c, 2, 79, 0
4, 94800, Note_on_c, 2, 83, 0
4, 94800, Note_on_c, 2, 85, 53
4, 94800, Note_on_c, 2, 81, 53
4, 94920, Note_on_c, 2, 81, 0
4, 94920, Note_on_c, 2, 85, 0
4, 94920, Note_on_c, 2, 86, 54
4, 94920, Note_on_c, 2, 83, 54
4, 95016, Note_on_c, 2, 83, 0
4, 95016, Note_on_c, 2, 86, 0
4, 95040, Note_on_c, 2, 81, 55
4, 95040, Note_on_c, 2, 78, 55
4, 95400, Note_on_c, 2, 78, 0
4, 95400, Note_on_c, 2, 81, 0
4, 95400, Note_on_c, 2, 79, 58
4, 95400, Note_on_c, 2, 83, 58
4, 95520, Note_on_c, 2, 83, 0
4, 95520, Note_on_c, 2, 79, 0
4, 95520, Note_on_c, 2, 81, 59
4, 95520, Note_on_c, 2, 85, 59
4, 95640, Note_on_c, 2, 85, 0
4, 95640, Note_on_c, 2, 81, 0
4, 95640, Note_on_c, 2, 83, 60
4, 95640, Note_on_c, 2, 86, 60
4, 95736, Note_on_c, 2, 86, 0
4, 95736, Note_on_c, 2, 83, 0
4, 95760, Note_on_c, 2, 78, 61
4, 95760, Note_on_c, 2, 81, 61
4, 96120, Note_on_c, 2, 81, 0
4, 96120, Note_on_c, 2, 78, 0
4, 96120, Note_on_c, 2, 80, 64
4, 96120, Note_on_c, 2, 77, 64
4, 96408, Note_on_c, 2, 77, 0
4, 96408, Note_on_c, 2, 80, 0
4, 96480, Note_on_c, 2, 75, 67
4, 96480, Note_on_c, 2, 78, 67
4, 96768, Note_on_c, 2, 78, 0
4, 96768, Note_on_c, 2, 75, 0
4, 96840, Note_on_c, 2, 75, 100
4, 96840, Note_on_c, 2, 78, 100
4, 97128, Note_on_c, 2, 78, 0
4, 97128, Note_on_c, 2, 75, 0
4, 97200, Note_on_c, 2, 73, 127
4, 97200, Note_on_c, 2, 77, 127
4, 97296, Note_on_c, 2, 77, 0
4, 97296, Note_on_c, 2, 73, 0
4, 97320, Note_on_c, 2, 73, 127
4, 97320, Note_on_c, 2, 77, 127
4, 97416, Note_on_c, 2, 77, 0
4, 97416, Note_on_c, 2, 73, 0
4, 97440, Note_on_c, 2, 73, 127
4, 97440, Note_on_c, 2, 77, 127
4, 97560, Note_on_c, 2, 77, 0
4, 97560, Note_on_c, 2, 82, 127
4, 97656, Note_on_c, 2, 82, 0
4, 97656, Note_on_c, 2, 73, 0
4, 97680, Note_on_c, 2, 73, 127
4, 97680, Note_on_c, 2, 78, 127
4, 97776, Note_on_c, 2, 78, 0
4, 97776, Note_on_c, 2, 73, 0
4, 97800, Note_on_c, 2, 73, 127
4, 97800, Note_on_c, 2, 78, 127
4, 97920, Note_on_c, 2, 73, 0
4, 97920, Note_on_c, 2, 75, 127
4, 98016, Note_on_c, 2, 75, 0
4, 98040, Note_on_c, 2, 78, 0
4, 98040, Note_on_c, 2, 75, 127
4, 98040, Note_on_c, 2, 78, 127
4, 98136, Note_on_c, 2, 78, 0
4, 98136, Note_on_c, 2, 75, 0
4, 98160, Note_on_c, 2, 78, 127
4, 98160, Note_on_c, 2, 75, 127
4, 98376, Note_on_c, 2, 75, 0
4, 98376, Note_on_c, 2, 78, 0
4, 98400, Note_on_c, 2, 75, 127
4, 98400, Note_on_c, 2, 78, 127
4, 98496, Note_on_c, 2, 78, 0
4, 98496, Note_on_c, 2, 75, 0
4, 98520, Note_on_c, 2, 75, 127
4, 98520, Note_on_c, 2, 78, 127
4, 98616, Note_on_c, 2, 78, 0
4, 98616, Note_on_c, 2, 75, 0
4, 98640, Note_on_c, 2, 73, 127
4, 98640, Note_on_c, 2, 77, 127
4, 98736, Note_on_c, 2, 77, 0
4, 98736, Note_on_c, 2, 73, 0
4, 99360, Note_on_c, 2, 73, 127
4, 99360, Note_on_c, 2, 77, 127
4, 99456, Note_on_c, 2, 77, 0
4, 99456, Note_on_c, 2, 73, 0
4, 100080, Note_on_c, 2, 77, 127
4, 100080, Note_on_c, 2, 80, 127
4, 100176, Note_on_c, 2, 80, 0
4, 100176, Note_on_c, 2, 77, 0
4, 100560, Note_on_c, 2, 77, 127
4, 100560, Note_on_c, 2, 80, 127
4, 100656, Note_on_c, 2, 80, 0
4, 100656, Note_on_c, 2, 77, 0
4, 100680, Note_on_c, 2, 77, 127
4, 100680, Note_on_c, 2, 80, 127
4, 100776, Note_on_c, 2, 80, 0
4, 100776, Note_on_c, 2, 77, 0
4, 100800, Note_on_c, 2, 75, 127
4, 100800, Note_on_c, 2, 78, 127
4, 101088, Note_on_c, 2, 78, 0
4, 101088, Note_on_c, 2, 75, 0
4, 101160, Note_on_c, 2, 75, 127
4, 101160, Note_on_c, 2, 78, 127
4, 101448, Note_on_c, 2, 78, 0
4, 101448, Note_on_c, 2, 75, 0
4, 101520, Note_on_c, 2, 73, 127
4, 101520, Note_on_c, 2, 77, 127
4, 101808, Note_on_c, 2, 77, 0
4, 101808, Note_on_c, 2, 73, 0
4, 101880, Note_on_c, 2, 75, 127
4, 101880, Note_on_c, 2, 78, 127
4, 102168, Note_on_c, 2, 78, 0
4, 102168, Note_on_c, 2, 75, 0
4, 102240, Note_on_c, 2, 73, 127
4, 102240, Note_on_c, 2, 77, 127
4, 102528, Note_on_c, 2, 77, 0
4, 102528, Note_on_c, 2, 73, 0
4, 102600, Note_on_c, 2, 75, 127
4, 102600, Note_on_c, 2, 78, 127
4, 102888, Note_on_c, 2, 78, 0
4, 102888, Note_on_c, 2, 75, 0
4, 102960, Note_on_c, 2, 73, 127
4, 102960, Note_on_c, 2, 77, 127
4, 103056, Note_on_c, 2, 77, 0
4, 103056, Note_on_c, 2, 73, 0
4, 108720, Note_on_c, 2, 72, 127
4, 108720, Note_on_c, 2, 80, 127
4, 108816, Note_on_c, 2, 80, 0
4, 108816, Note_on_c, 2, 72, 0
4, 108840, Note_on_c, 2, 72, 127
4, 108840, Note_on_c, 2, 80, 127
4, 108936, Note_on_c, 2, 80, 0
4, 108936, Note_on_c, 2, 72, 0
4, 109020, Note_on_c, 2, 72, 127
4, 109020, Note_on_c, 2, 80, 127
4, 109068, Note_on_c, 2, 80, 0
4, 109068, Note_on_c, 2, 72, 0
4, 109080, Note_on_c, 2, 80, 127
4, 109080, Note_on_c, 2, 72, 127
4, 109176, Note_on_c, 2, 72, 0
4, 109176, Note_on_c, 2, 80, 0
4, 109200, Note_on_c, 2, 80, 127
4, 109200, Note_on_c, 2, 72, 127
4, 109296, Note_on_c, 2, 72, 0
4, 109296, Note_on_c, 2, 80, 0
4, 109380, Note_on_c, 2, 72, 127
4, 109380, Note_on_c, 2, 80, 127
4, 109428, Note_on_c, 2, 80, 0
4, 109428, Note_on_c, 2, 72, 0
4, 109440, Note_on_c, 2, 79, 127
4, 109440, Note_on_c, 2, 72, 127
4, 109536, Note_on_c, 2, 72, 0
4, 109536, Note_on_c, 2, 79, 0
4, 109560, Note_on_c, 2, 79, 127
4, 109560, Note_on_c, 2, 72, 127
4, 109656, Note_on_c, 2, 72, 0
4, 109656, Note_on_c, 2, 79, 0
4, 111960, Note_on_c, 2, 73, 50
4, 112680, Note_on_c, 2, 73, 0
4, 112680, Note_on_c, 2, 72, 50
4, 113400, Note_on_c, 2, 72, 0
4, 113400, Note_on_c, 2, 72, 50
4, 113784, Note_on_c, 2, 72, 0
4, 113880, Note_on_c, 2, 72, 50
4, 114264, Note_on_c, 2, 72, 0
4, 114360, Note_on_c, 2, 71, 50
4, 114360, Note_on_c, 2, 74, 50
4, 114744, Note_on_c, 2, 74, 0
4, 114744, Note_on_c, 2, 71, 0
4, 114840, Note_on_c, 2, 71, 50
4, 114840, Note_on_c, 2, 74, 50
4, 115224, Note_on_c, 2, 74, 0
4, 115224, Note_on_c, 2, 71, 0
4, 115320, Note_on_c, 2, 72, 58
4, 115320, Note_on_c, 2, 76, 58
4, 115512, Note_on_c, 2, 76, 0
4, 115512, Note_on_c, 2, 72, 0
4, 115560, Note_on_c, 2, 72, 67
4, 115560, Note_on_c, 2, 76, 67
4, 115752, Note_on_c, 2, 76, 0
4, 115752, Note_on_c, 2, 72, 0
4, 115800, Note_on_c, 2, 72, 75
4, 115800, Note_on_c, 2, 77, 75
4, 115992, Note_on_c, 2, 77, 0
4, 115992, Note_on_c, 2, 72, 0
4, 116040, Note_on_c, 2, 72, 84
4, 116040, Note_on_c, 2, 77, 84
4, 116232, Note_on_c, 2, 77, 0
4, 116232, Note_on_c, 2, 72, 0
4, 116280, Note_on_c, 2, 76, 93
4, 116280, Note_on_c, 2, 79, 93
4, 116472, Note_on_c, 2, 79, 0
4, 116472, Note_on_c, 2, 76, 0
4, 116520, Note_on_c, 2, 77, 101
4, 116520, Note_on_c, 2, 81, 101
4, 116712, Note_on_c, 2, 81, 0
4, 116712, Note_on_c, 2, 77, 0
4, 116760, Note_on_c, 2, 79, 110
4, 116760, Note_on_c, 2, 82, 110
4, 116820, Note_on_c, 2, 82, 0
4, 116820, Note_on_c, 2, 79, 0
4, 116820, Note_on_c, 2, 78, 112
4, 116820, Note_on_c, 2, 81, 112
4, 116856, Note_on_c, 2, 81, 0
4, 116856, Note_on_c, 2, 78, 0
4, 116880, Note_on_c, 2, 79, 114
4, 116880, Note_on_c, 2, 82, 114
4, 116916, Note_on_c, 2, 82, 0
4, 116916, Note_on_c, 2, 79, 0
4, 116940, Note_on_c, 2, 81, 116
4, 116940, Note_on_c, 2, 84, 116
4, 116976, Note_on_c, 2, 84, 0
4, 116976, Note_on_c, 2, 81, 0
4, 117000, Note_on_c, 2, 82, 118
4, 117000, Note_on_c, 2, 86, 118
4, 117036, Note_on_c, 2, 86, 0
4, 117036, Note_on_c, 2, 82, 0
4, 117060, Note_on_c, 2, 76, 121
4, 117060, Note_on_c, 2, 72, 121
4, 117096, Note_on_c, 2, 72, 0
4, 117096, Note_on_c, 2, 76, 0
4, 117120, Note_on_c, 2, 74, 123
4, 117120, Note_on_c, 2, 77, 123
4, 117156, Note_on_c, 2, 77, 0
4, 117156, Note_on_c, 2, 74, 0
4, 117180, Note_on_c, 2, 81, 125
4, 117180, Note_on_c, 2, 77, 125
4, 117216, Note_on_c, 2, 77, 0
4, 117216, Note_on_c, 2, 81, 0
4, 117240, Note_on_c, 2, 77, 127
4, 117240, Note_on_c, 2, 81, 127
4, 117540, Note_on_c, 2, 81, 0
4, 117540, Note_on_c, 2, 77, 0
4, 117540, Note_on_c, 2, 76, 127
4, 117540, Note_on_c, 2, 79, 127
4, 117576, Note_on_c, 2, 79, 0
4, 117576, Note_on_c, 2, 76, 0
4, 117600, Note_on_c, 2, 72, 127
4, 117600, Note_on_c, 2, 77, 127
4, 117636, Note_on_c, 2, 77, 0
4, 117636, Note_on_c, 2, 72, 0
4, 117660, Note_on_c, 2, 76, 127
4, 117660, Note_on_c, 2, 79, 127
4, 117696, Note_on_c, 2, 79, 0
4, 117696, Note_on_c, 2, 76, 0
4, 117720, Note_on_c, 2, 81, 127
4, 117720, Note_on_c, 2, 77, 127
4, 118020, Note_on_c, 2, 77, 0
4, 118020, Note_on_c, 2, 81, 0
4, 118020, Note_on_c, 2, 79, 127
4, 118020, Note_on_c, 2, 76, 127
4, 118056, Note_on_c, 2, 76, 0
4, 118056, Note_on_c, 2, 79, 0
4, 118080, Note_on_c, 2, 77, 127
4, 118080, Note_on_c, 2, 72, 127
4, 118116, Note_on_c, 2, 72, 0
4, 118116, Note_on_c, 2, 77, 0
4, 118140, Note_on_c, 2, 79, 127
4, 118140, Note_on_c, 2, 76, 127
4, 118176, Note_on_c, 2, 76, 0
4, 118176, Note_on_c, 2, 79, 0
4, 118200, Note_on_c, 2, 77, 127
4, 118200, Note_on_c, 2, 81, 127
4, 118260, Note_on_c, 2, 81, 0
4, 118260, Note_on_c, 2, 77, 0
4, 118260, Note_on_c, 2, 76, 127
4, 118260, Note_on_c, 2, 79, 127
4, 118308, Note_on_c, 2, 79, 0
4, 118308, Note_on_c, 2, 76, 0
4, 118320, Note_on_c, 2, 72, 127
4, 118320, Note_on_c, 2, 77, 127
4, 118368, Note_on_c, 2, 77, 0
4, 118368, Note_on_c, 2, 72, 0
4, 118380, Note_on_c, 2, 76, 127
4, 118380, Note_on_c, 2, 79, 127
4, 118428, Note_on_c, 2, 79, 0
4, 118428, Note_on_c, 2, 76, 0
4, 118440, Note_on_c, 2, 81, 127
4, 118440, Note_on_c, 2, 77, 127
4, 118500, Note_on_c, 2, 77, 0
4, 118500, Note_on_c, 2, 81, 0
4, 118500, Note_on_c, 2, 79, 127
4, 118500, Note_on_c, 2, 76, 127
4, 118548, Note_on_c, 2, 76, 0
4, 118548, Note_on_c, 2, 79, 0
4, 118560, Note_on_c, 2, 77, 127
4, 118560, Note_on_c, 2, 72, 127
4, 118608, Note_on_c, 2, 72, 0
4, 118608, Note_on_c, 2, 77, 0
4, 118620, Note_on_c, 2, 79, 127
4, 118620, Note_on_c, 2, 76, 127
4, 118668, Note_on_c, 2, 76, 0
4, 118668, Note_on_c, 2, 79, 0
4, 118680, Note_on_c, 2, 81, 127
4, 118680, Note_on_c, 2, 77, 127
4, 118740, Note_on_c, 2, 77, 0
4, 118740, Note_on_c, 2, 81, 0
4, 118740, Note_on_c, 2, 79, 127
4, 118740, Note_on_c, 2, 76, 127
4, 118788, Note_on_c, 2, 76, 0
4, 118788, Note_on_c, 2, 79, 0
4, 118800, Note_on_c, 2, 77, 127
4, 118800, Note_on_c, 2, 72, 127
4, 118848, Note_on_c, 2, 72, 0
4, 118848, Note_on_c, 2, 77, 0
4, 118860, Note_on_c, 2, 79, 127
4, 118860, Note_on_c, 2, 76, 127
4, 118908, Note_on_c, 2, 76, 0
4, 118908, Note_on_c, 2, 79, 0
4, 118920, Note_on_c, 2, 81, 127
4, 118920, Note_on_c, 2, 77, 127
4, 118980, Note_on_c, 2, 77, 0
4, 118980, Note_on_c, 2, 81, 0
4, 118980, Note_on_c, 2, 79, 127
4, 118980, Note_on_c, 2, 76, 127
4, 119028, Note_on_c, 2, 76, 0
4, 119028, Note_on_c, 2, 79, 0
4, 119040, Note_on_c, 2, 77, 127
4, 119040, Note_on_c, 2, 72, 127
4, 119088, Note_on_c, 2, 72, 0
4, 119088, Note_on_c, 2, 77, 0
4, 119100, Note_on_c, 2, 79, 127
4, 119100, Note_on_c, 2, 76, 127
4, 119148, Note_on_c, 2, 76, 0
4, 119148, Note_on_c, 2, 79, 0
4, 119160, Note_on_c, 2, 77, 127
4, 119160, Note_on_c, 2, 81, 127
4, 119208, Note_on_c, 2, 81, 0
4, 119208, Note_on_c, 2, 77, 0
4, 119220, Note_on_c, 2, 79, 127
4, 119268, Note_on_c, 2, 79, 0
4, 119280, Note_on_c, 2, 77, 127
4, 119328, Note_on_c, 2, 77, 0
4, 119340, Note_on_c, 2, 76, 127
4, 119388, Note_on_c, 2, 76, 0
4, 119400, Note_on_c, 2, 77, 127
4, 119448, Note_on_c, 2, 77, 0
4, 119460, Note_on_c, 2, 76, 127
4, 119508, Note_on_c, 2, 76, 0
4, 119520, Note_on_c, 2, 74, 127
4, 119568, Note_on_c, 2, 74, 0
4, 119580, Note_on_c, 2, 73, 127
4, 119628, Note_on_c, 2, 73, 0
4, 119640, Note_on_c, 2, 74, 127
4, 119688, Note_on_c, 2, 74, 0
4, 119700, Note_on_c, 2, 72, 127
4, 119700, Note_on_c, 2, 84, 127
4, 119748, Note_on_c, 2, 84, 0
4, 119748, Note_on_c, 2, 72, 0
4, 119760, Note_on_c, 2, 70, 127
4, 119760, Note_on_c, 2, 82, 127
4, 119808, Note_on_c, 2, 82, 0
4, 119808, Note_on_c, 2, 70, 0
4, 119820, Note_on_c, 2, 69, 127
4, 119820, Note_on_c, 2, 81, 127
4, 119868, Note_on_c, 2, 81, 0
4, 119868, Note_on_c, 2, 69, 0
4, 119880, Note_on_c, 2, 70, 127
4, 119880, Note_on_c, 2, 82, 127
4, 119928, Note_on_c, 2, 82, 0
4, 119928, Note_on_c, 2, 70, 0
4, 119940, Note_on_c, 2, 67, 127
4, 119940, Note_on_c, 2, 79, 127
4, 119988, Note_on_c, 2, 79, 0
4, 119988, Note_on_c, 2, 67, 0
4, 120000, Note_on_c, 2, 72, 127
4, 120000, Note_on_c, 2, 84, 127
4, 120048, Note_on_c, 2, 84, 0
4, 120048, Note_on_c, 2, 72, 0
4, 120060, Note_on_c, 2, 72, 127
4, 120060, Note_on_c, 2, 84, 127
4, 120108, Note_on_c, 2, 84, 0
4, 120108, Note_on_c, 2, 72, 0
4, 120120, Note_on_c, 2, 81, 127
4, 120120, Note_on_c, 2, 77, 127
4, 120420, Note_on_c, 2, 77, 0
4, 120420, Note_on_c, 2, 81, 0
4, 120420, Note_on_c, 2, 79, 127
4, 120420, Note_on_c, 2, 76, 127
4, 120456, Note_on_c, 2, 76, 0
4, 120456, Note_on_c, 2, 79, 0
4, 120480, Note_on_c, 2, 77, 127
4, 120480, Note_on_c, 2, 72, 127
4, 120516, Note_on_c, 2, 72, 0
4, 120516, Note_on_c, 2, 77, 0
4, 120540, Note_on_c, 2, 79, 127
4, 120540, Note_on_c, 2, 76, 127
4, 120576, Note_on_c, 2, 76, 0
4, 120576, Note_on_c, 2, 79, 0
4, 120600, Note_on_c, 2, 77, 127
4, 120600, Note_on_c, 2, 81, 127
4, 120900, Note_on_c, 2, 81, 0
4, 120900, Note_on_c, 2, 77, 0
4, 120900, Note_on_c, 2, 76, 127
4, 120900, Note_on_c, 2, 79, 127
4, 120936, Note_on_c, 2, 79, 0
4, 120936, Note_on_c, 2, 76, 0
4, 120960, Note_on_c, 2, 72, 127
4, 120960, Note_on_c, 2, 77, 127
4, 120996, Note_on_c, 2, 77, 0
4, 120996, Note_on_c, 2, 72, 0
4, 121020, Note_on_c, 2, 76, 127
4, 121020, Note_on_c, 2, 79, 127
4, 121056, Note_on_c, 2, 79, 0
4, 121056, Note_on_c, 2, 76, 0
4, 121080, Note_on_c, 2, 81, 127
4, 121080, Note_on_c, 2, 77, 127
4, 121140, Note_on_c, 2, 77, 0
4, 121140, Note_on_c, 2, 81, 0
4, 121140, Note_on_c, 2, 79, 127
4, 121140, Note_on_c, 2, 76, 127
4, 121188, Note_on_c, 2, 76, 0
4, 121188, Note_on_c, 2, 79, 0
4, 121200, Note_on_c, 2, 77, 127
4, 121200, Note_on_c, 2, 72, 127
4, 121248, Note_on_c, 2, 72, 0
4, 121248, Note_on_c, 2, 77, 0
4, 121260, Note_on_c, 2, 79, 127
4, 121260, Note_on_c, 2, 76, 127
4, 121308, Note_on_c, 2, 76, 0
4, 121308, Note_on_c, 2, 79, 0
4, 121320, Note_on_c, 2, 77, 127
4, 121320, Note_on_c, 2, 81, 127
4, 121380, Note_on_c, 2, 81, 0
4, 121380, Note_on_c, 2, 77, 0
4, 121380, Note_on_c, 2, 76, 127
4, 121380, Note_on_c, 2, 79, 127
4, 121428, Note_on_c, 2, 79, 0
4, 121428, Note_on_c, 2, 76, 0
4, 121440, Note_on_c, 2, 72, 127
4, 121440, Note_on_c, 2, 77, 127
4, 121488, Note_on_c, 2, 77, 0
4, 121488, Note_on_c, 2, 72, 0
4, 121500, Note_on_c, 2, 76, 127
4, 121500, Note_on_c, 2, 79, 127
4, 121548, Note_on_c, 2, 79, 0
4, 121548, Note_on_c, 2, 76, 0
4, 121560, Note_on_c, 2, 77, 127
4, 121560, Note_on_c, 2, 81, 127
4, 121620, Note_on_c, 2, 81, 0
4, 121620, Note_on_c, 2, 77, 0
4, 121620, Note_on_c, 2, 76, 127
4, 121620, Note_on_c, 2, 79, 127
4, 121668, Note_on_c, 2, 79, 0
4, 121668, Note_on_c, 2, 76, 0
4, 121680, Note_on_c, 2, 72, 127
4, 121680, Note_on_c, 2, 77, 127
4, 121728, Note_on_c, 2, 77, 0
4, 121728, Note_on_c, 2, 72, 0
4, 121740, Note_on_c, 2, 76, 127
4, 121740, Note_on_c, 2, 79, 127
4, 121788, Note_on_c, 2, 79, 0
4, 121788, Note_on_c, 2, 76, 0
4, 121800, Note_on_c, 2, 77, 127
4, 121800, Note_on_c, 2, 81, 127
4, 121860, Note_on_c, 2, 81, 0
4, 121860, Note_on_c, 2, 77, 0
4, 121860, Note_on_c, 2, 76, 127
4, 121860, Note_on_c, 2, 79, 127
4, 121908, Note_on_c, 2, 79, 0
4, 121908, Note_on_c, 2, 76, 0
4, 121920, Note_on_c, 2, 72, 127
4, 121920, Note_on_c, 2, 77, 127
4, 121968, Note_on_c, 2, 77, 0
4, 121968, Note_on_c, 2, 72, 0
4, 121980, Note_on_c, 2, 76, 127
4, 121980, Note_on_c, 2, 79, 127
4, 122028, Note_on_c, 2, 79, 0
4, 122028, Note_on_c, 2, 76, 0
4, 122040, Note_on_c, 2, 81, 127
4, 122040, Note_on_c, 2, 77, 127
4, 122088, Note_on_c, 2, 77, 0
4, 122088, Note_on_c, 2, 81, 0
4, 122100, Note_on_c, 2, 79, 127
4, 122148, Note_on_c, 2, 79, 0
4, 122160, Note_on_c, 2, 77, 127
4, 122208, Note_on_c, 2, 77, 0
4, 122220, Note_on_c, 2, 76, 127
4, 122268, Note_on_c, 2, 76, 0
4, 122280, Note_on_c, 2, 77, 127
4, 122328, Note_on_c, 2, 77, 0
4, 122340, Note_on_c, 2, 76, 127
4, 122388, Note_on_c, 2, 76, 0
4, 122400, Note_on_c, 2, 74, 127
4, 122448, Note_on_c, 2, 74, 0
4, 122460, Note_on_c, 2, 73, 127
4, 122508, Note_on_c, 2, 73, 0
4, 122520, Note_on_c, 2, 74, 127
4, 122568, Note_on_c, 2, 74, 0
4, 122580, Note_on_c, 2, 84, 127
4, 122580, Note_on_c, 2, 72, 127
4, 122628, Note_on_c, 2, 72, 0
4, 122628, Note_on_c, 2, 84, 0
4, 122640, Note_on_c, 2, 82, 127
4, 122640, Note_on_c, 2, 70, 127
4, 122688, Note_on_c, 2, 70, 0
4, 122688, Note_on_c, 2, 82, 0
4, 122700, Note_on_c, 2, 81, 127
4, 122700, Note_on_c, 2, 69, 127
4, 122748, Note_on_c, 2, 69, 0
4, 122748, Note_on_c, 2, 81, 0
4, 122760, Note_on_c, 2, 82, 127
4, 122760, Note_on_c, 2, 70, 127
4, 122808, Note_on_c, 2, 70, 0
4, 122808, Note_on_c, 2, 82, 0
4, 122820, Note_on_c, 2, 79, 127
4, 122820, Note_on_c, 2, 67, 127
4, 122868, Note_on_c, 2, 67, 0
4, 122868, Note_on_c, 2, 79, 0
4, 122880, Note_on_c, 2, 84, 127
4, 122880, Note_on_c, 2, 72, 127
4, 122928, Note_on_c, 2, 72, 0
4, 122928, Note_on_c, 2, 84, 0
4, 122940, Note_on_c, 2, 84, 127
4, 122940, Note_on_c, 2, 72, 127
4, 122988, Note_on_c, 2, 72, 0
4, 122988, Note_on_c, 2, 84, 0
4, 123000, Note_on_c, 2, 65, 127
4, 123000, Note_on_c, 2, 77, 127
4, 123096, Note_on_c, 2, 77, 0
4, 123096, Note_on_c, 2, 65, 0
4, 125940, Note_on_c, 2, 81, 127
4, 125970, Note_on_c, 2, 81, 0
4, 125970, Note_on_c, 2, 82, 127
4, 125994, Note_on_c, 2, 82, 0
4, 126000, Note_on_c, 2, 84, 127
4, 126048, Note_on_c, 2, 84, 0
4, 126180, Note_on_c, 2, 81, 127
4, 126196, Note_on_c, 2, 81, 0
4, 126200, Note_on_c, 2, 82, 127
4, 126216, Note_on_c, 2, 82, 0
4, 126220, Note_on_c, 2, 84, 127
4, 126236, Note_on_c, 2, 84, 0
4, 126240, Note_on_c, 2, 86, 127
4, 126288, Note_on_c, 2, 86, 0
4, 126420, Note_on_c, 2, 79, 127
4, 126450, Note_on_c, 2, 79, 0
4, 126450, Note_on_c, 2, 81, 127
4, 126474, Note_on_c, 2, 81, 0
4, 126480, Note_on_c, 2, 82, 127
4, 126528, Note_on_c, 2, 82, 0
4, 126660, Note_on_c, 2, 79, 127
4, 126680, Note_on_c, 2, 79, 0
4, 126680, Note_on_c, 2, 81, 127
4, 126700, Note_on_c, 2, 81, 0
4, 126700, Note_on_c, 2, 82, 127
4, 126716, Note_on_c, 2, 82, 0
4, 126720, Note_on_c, 2, 84, 127
4, 126768, Note_on_c, 2, 84, 0
4, 126780, Note_on_c, 2, 84, 127
4, 126828, Note_on_c, 2, 84, 0
4, 126840, Note_on_c, 2, 77, 127
4, 126960, Note_on_c, 2, 77, 0
4, 126960, Note_on_c, 2, 75, 127
4, 127080, Note_on_c, 2, 75, 0
4, 127080, Note_on_c, 2, 74, 127
4, 127200, Note_on_c, 2, 74, 0
4, 127200, Note_on_c, 2, 78, 127
4, 127296, Note_on_c, 2, 78, 0
4, 127320, Note_on_c, 2, 79, 127
4, 127440, Note_on_c, 2, 79, 0
4, 127440, Note_on_c, 2, 73, 127
4, 127560, Note_on_c, 2, 73, 0
4, 127560, Note_on_c, 2, 72, 127
4, 127680, Note_on_c, 2, 72, 0
4, 127680, Note_on_c, 2, 76, 127
4, 127776, Note_on_c, 2, 76, 0
4, 127800, Note_on_c, 2, 77, 127
4, 127992, Note_on_c, 2, 77, 0
4, 128040, Note_on_c, 2, 79, 127
4, 128232, Note_on_c, 2, 79, 0
4, 128280, Note_on_c, 2, 81, 127
4, 128472, Note_on_c, 2, 81, 0
4, 128520, Note_on_c, 2, 82, 127
4, 128712, Note_on_c, 2, 82, 0
4, 128760, Note_on_c, 2, 71, 127
4, 128760, Note_on_c, 2, 83, 127
4, 128856, Note_on_c, 2, 83, 0
4, 128856, Note_on_c, 2, 71, 0
4, 128880, Note_on_c, 2, 72, 127
4, 129624, Note_on_c, 2, 72, 0
4, 129720, Note_on_c, 2, 79, 127
4, 129720, Note_on_c, 2, 82, 127
4, 129816, Note_on_c, 2, 82, 0
4, 129816, Note_on_c, 2, 79, 0
4, 129840, Note_on_c, 2, 82, 127
4, 129840, Note_on_c, 2, 79, 127
4, 129936, Note_on_c, 2, 79, 0
4, 129936, Note_on_c, 2, 82, 0
4, 129960, Note_on_c, 2, 82, 127
4, 129960, Note_on_c, 2, 79, 127
4, 130056, Note_on_c, 2, 79, 0
4, 130056, Note_on_c, 2, 82, 0
4, 130080, Note_on_c, 2, 82, 127
4, 130080, Note_on_c, 2, 79, 127
4, 130176, Note_on_c, 2, 79, 0
4, 130176, Note_on_c, 2, 82, 0
4, 130200, Note_on_c, 2, 82, 127
4, 130200, Note_on_c, 2, 79, 127
4, 130296, Note_on_c, 2, 79, 0
4, 130296, Note_on_c, 2, 82, 0
4, 130320, Note_on_c, 2, 82, 127
4, 130320, Note_on_c, 2, 79, 127
4, 130416, Note_on_c, 2, 79, 0
4, 130416, Note_on_c, 2, 82, 0
4, 130440, Note_on_c, 2, 82, 127
4, 130440, Note_on_c, 2, 79, 127
4, 130536, Note_on_c, 2, 79, 0
4, 130536, Note_on_c, 2, 82, 0
4, 130560, Note_on_c, 2, 82, 127
4, 130560, Note_on_c, 2, 79, 127
4, 130656, Note_on_c, 2, 79, 0
4, 130656, Note_on_c, 2, 82, 0
4, 130680, Note_on_c, 2, 77, 127
4, 130824, Note_on_c, 2, 77, 0
4, 130860, Note_on_c, 2, 77, 127
4, 130908, Note_on_c, 2, 77, 0
4, 130920, Note_on_c, 2, 79, 127
4, 131064, Note_on_c, 2, 79, 0
4, 131100, Note_on_c, 2, 79, 127
4, 131148, Note_on_c, 2, 79, 0
4, 131160, Note_on_c, 2, 81, 127
4, 131304, Note_on_c, 2, 81, 0
4, 131340, Note_on_c, 2, 81, 127
4, 131388, Note_on_c, 2, 81, 0
4, 131400, Note_on_c, 2, 82, 127
4, 131544, Note_on_c, 2, 82, 0
4, 131580, Note_on_c, 2, 82, 127
4, 131628, Note_on_c, 2, 82, 0
4, 131640, Note_on_c, 2, 83, 127
4, 131640, Note_on_c, 2, 71, 127
4, 131736, Note_on_c, 2, 71, 0
4, 131736, Note_on_c, 2, 83, 0
4, 131760, Note_on_c, 2, 72, 127
4, 132504, Note_on_c, 2, 72, 0
4, 132600, Note_on_c, 2, 82, 127
4, 132600, Note_on_c, 2, 79, 127
4, 132696, Note_on_c, 2, 79, 0
4, 132696, Note_on_c, 2, 82, 0
4, 132720, Note_on_c, 2, 79, 127
4, 132720, Note_on_c, 2, 82, 127
4, 132816, Note_on_c, 2, 82, 0
4, 132816, Note_on_c, 2, 79, 0
4, 132840, Note_on_c, 2, 79, 127
4, 132840, Note_on_c, 2, 82, 127
4, 132936, Note_on_c, 2, 82, 0
4, 132936, Note_on_c, 2, 79, 0
4, 132960, Note_on_c, 2, 79, 127
4, 132960, Note_on_c, 2, 82, 127
4, 133056, Note_on_c, 2, 82, 0
4, 133056, Note_on_c, 2, 79, 0
4, 133080, Note_on_c, 2, 79, 127
4, 133080, Note_on_c, 2, 82, 127
4, 133176, Note_on_c, 2, 82, 0
4, 133176, Note_on_c, 2, 79, 0
4, 133200, Note_on_c, 2, 79, 127
4, 133200, Note_on_c, 2, 82, 127
4, 133296, Note_on_c, 2, 82, 0
4, 133296, Note_on_c, 2, 79, 0
4, 133320, Note_on_c, 2, 79, 127
4, 133320, Note_on_c, 2, 82, 127
4, 133416, Note_on_c, 2, 82, 0
4, 133416, Note_on_c, 2, 79, 0
4, 133440, Note_on_c, 2, 79, 127
4, 133440, Note_on_c, 2, 82, 127
4, 133536, Note_on_c, 2, 82, 0
4, 133536, Note_on_c, 2, 79, 0
4, 133560, Note_on_c, 2, 69, 127
4, 133560, Note_on_c, 2, 77, 127
4, 133752, Note_on_c, 2, 77, 0
4, 133752, Note_on_c, 2, 69, 0
4, 133800, Note_on_c, 2, 69, 127
4, 133800, Note_on_c, 2, 77, 127
4, 134712, Note_on_c, 2, 77, 0
4, 134712, Note_on_c, 2, 69, 0
4, 134760, Note_on_c, 2, 77, 127
4, 134760, Note_on_c, 2, 81, 127
4, 135672, Note_on_c, 2, 81, 0
4, 135672, Note_on_c, 2, 77, 0
4, 135720, Note_on_c, 2, 77, 127
4, 135720, Note_on_c, 2, 81, 127
4, 135912, Note_on_c, 2, 81, 0
4, 135912, Note_on_c, 2, 77, 0
4, 135960, Note_on_c, 2, 76, 127
4, 135960, Note_on_c, 2, 79, 127
4, 136248, Note_on_c, 2, 79, 0
4, 136248, Note_on_c, 2, 76, 0
4, 136320, Note_on_c, 2, 76, 127
4, 136320, Note_on_c, 2, 79, 127
4, 136416, Note_on_c, 2, 79, 0
4, 136416, Note_on_c, 2, 76, 0
4, 136440, Note_on_c, 2, 77, 127
4, 136440, Note_on_c, 2, 81, 127
4, 136632, Note_on_c, 2, 81, 0
4, 136632, Note_on_c, 2, 77, 0
4, 136680, Note_on_c, 2, 77, 127
4, 136680, Note_on_c, 2, 81, 127
4, 136872, Note_on_c, 2, 81, 0
4, 136872, Note_on_c, 2, 77, 0
4, 136920, Note_on_c, 2, 79, 127
4, 136920, Note_on_c, 2, 76, 127
4, 137208, Note_on_c, 2, 76, 0
4, 137208, Note_on_c, 2, 79, 0
4, 137280, Note_on_c, 2, 79, 127
4, 137280, Note_on_c, 2, 76, 127
4, 137376, Note_on_c, 2, 76, 0
4, 137376, Note_on_c, 2, 79, 0
4, 137400, Note_on_c, 2, 81, 127
4, 137400, Note_on_c, 2, 77, 127
4, 137592, Note_on_c, 2, 77, 0
4, 137592, Note_on_c, 2, 81, 0
4, 137640, Note_on_c, 2, 81, 127
4, 137640, Note_on_c, 2, 77, 127
4, 137832, Note_on_c, 2, 77, 0
4, 137832, Note_on_c, 2, 81, 0
4, 137880, Note_on_c, 2, 76, 127
4, 137880, Note_on_c, 2, 79, 127
4, 138168, Note_on_c, 2, 79, 0
4, 138168, Note_on_c, 2, 76, 0
4, 138240, Note_on_c, 2, 76, 127
4, 138240, Note_on_c, 2, 79, 127
4, 138336, Note_on_c, 2, 79, 0
4, 138336, Note_on_c, 2, 76, 0
4, 138360, Note_on_c, 2, 76, 127
4, 138360, Note_on_c, 2, 79, 127
4, 138648, Note_on_c, 2, 79, 0
4, 138648, Note_on_c, 2, 76, 0
4, 138720, Note_on_c, 2, 76, 127
4, 138720, Note_on_c, 2, 79, 127
4, 138816, Note_on_c, 2, 79, 0
4, 138816, Note_on_c, 2, 76, 0
4, 138840, Note_on_c, 2, 79, 127
4, 138840, Note_on_c, 2, 76, 127
4, 139128, Note_on_c, 2, 76, 0
4, 139128, Note_on_c, 2, 79, 0
4, 139200, Note_on_c, 2, 79, 127
4, 139200, Note_on_c, 2, 76, 127
4, 139296, Note_on_c, 2, 76, 0
4, 139296, Note_on_c, 2, 79, 0
4, 139320, Note_on_c, 2, 72, 127
4, 139320, Note_on_c, 2, 84, 127
4, 140184, Note_on_c, 2, 84, 0
4, 140184, Note_on_c, 2, 72, 0
4, 140280, Note_on_c, 2, 77, 127
4, 140280, Note_on_c, 2, 81, 127
4, 140376, Note_on_c, 2, 81, 0
4, 140376, Note_on_c, 2, 77, 0
4, 140760, Note_on_c, 2, 77, 127
4, 140760, Note_on_c, 2, 81, 127
4, 140856, Note_on_c, 2, 81, 0
4, 140856, Note_on_c, 2, 77, 0
4, 141240, Note_on_c, 2, 77, 127
4, 141240, Note_on_c, 2, 81, 127
4, 141336, Note_on_c, 2, 81, 0
4, 141336, Note_on_c, 2, 77, 0
4, 141720, Note_on_c, 2, 69, 127
4, 141720, Note_on_c, 2, 77, 127
4, 141816, Note_on_c, 2, 77, 0
4, 141816, Note_on_c, 2, 69, 0
4, 141960, Note_on_c, 2, 77, 127
4, 141960, Note_on_c, 2, 69, 127
4, 142056, Note_on_c, 2, 69, 0
4, 142056, Note_on_c, 2, 77, 0
4, 142200, Note_on_c, 2, 69, 127
4, 142200, Note_on_c, 2, 77, 127
4, 142296, Note_on_c, 2, 77, 0
4, 142296, Note_on_c, 2, 69, 0
4, 142296, End_track
5, 0, Start_track
5, 0, Title_t, "2 Clarinetti in B"
5, 0, Program_c, 3, 71
5, 0, Control_c, 3, 7, 90
5, 0, Control_c, 3, 10, 60
5, 1440, Note_on_c, 3, 77, 127
5, 1440, Note_on_c, 3, 65, 127
5, 2016, Note_on_c, 3, 65, 0
5, 2016, Note_on_c, 3, 77, 0
5, 5160, Note_on_c, 3, 68, 50
5, 5280, Note_on_c, 3, 68, 0
5, 5280, Note_on_c, 3, 67, 50
5, 5400, Note_on_c, 3, 67, 0
5, 5400, Note_on_c, 3, 74, 50
5, 5592, Note_on_c, 3, 74, 0
5, 5640, Note_on_c, 3, 74, 50
5, 5760, Note_on_c, 3, 74, 0
5, 5760, Note_on_c, 3, 74, 50
5, 6000, Note_on_c, 3, 74, 0
5, 6000, Note_on_c, 3, 72, 50
5, 6096, Note_on_c, 3, 72, 0
5, 7200, Note_on_c, 3, 65, 70
5, 7200, Note_on_c, 3, 77, 70
5, 7776, Note_on_c, 3, 77, 0
5, 7776, Note_on_c, 3, 65, 0
5, 7920, Note_on_c, 3, 65, 127
5, 7920, Note_on_c, 3, 68, 127
5, 8112, Note_on_c, 3, 68, 0
5, 8112, Note_on_c, 3, 65, 0
5, 8160, Note_on_c, 3, 65, 127
5, 8160, Note_on_c, 3, 68, 127
5, 8352, Note_on_c, 3, 68, 0
5, 8352, Note_on_c, 3, 65, 0
5, 8580, Note_on_c, 3, 65, 127
5, 8580, Note_on_c, 3, 68, 127
5, 8628, Note_on_c, 3, 68, 0
5, 8628, Note_on_c, 3, 65, 0
5, 8640, Note_on_c, 3, 70, 127
5, 8640, Note_on_c, 3, 67, 127
5, 8832, Note_on_c, 3, 67, 0
5, 8832, Note_on_c, 3, 70, 0
5, 8880, Note_on_c, 3, 72, 127
5, 8880, Note_on_c, 3, 68, 127
5, 9072, Note_on_c, 3, 68, 0
5, 9072, Note_on_c, 3, 72, 0
5, 9480, Note_on_c, 3, 73, 50
5, 9600, Note_on_c, 3, 73, 0
5, 9600, Note_on_c, 3, 72, 50
5, 9720, Note_on_c, 3, 72, 0
5, 9720, Note_on_c, 3, 82, 50
5, 9840, Note_on_c, 3, 82, 0
5, 9840, Note_on_c, 3, 80, 50
5, 9960, Note_on_c, 3, 80, 0
5, 9960, Note_on_c, 3, 66, 50
5, 9960, Note_on_c, 3, 78, 50
5, 10080, Note_on_c, 3, 78, 0
5, 10080, Note_on_c, 3, 66, 0
5, 10080, Note_on_c, 3, 65, 50
5, 10080, Note_on_c, 3, 77, 50
5, 10200, Note_on_c, 3, 77, 0
5, 10200, Note_on_c, 3, 65, 0
5, 10200, Note_on_c, 3, 72, 50
5, 10200, Note_on_c, 3, 75, 50
5, 10320, Note_on_c, 3, 75, 0
5, 10320, Note_on_c, 3, 72, 0
5, 10320, Note_on_c, 3, 68, 50
5, 10320, Note_on_c, 3, 73, 50
5, 10440, Note_on_c, 3, 73, 0
5, 10440, Note_on_c, 3, 68, 0
5, 10440, Note_on_c, 3, 66, 50
5, 10440, Note_on_c, 3, 72, 50
5, 10560, Note_on_c, 3, 72, 0
5, 10560, Note_on_c, 3, 66, 0
5, 10560, Note_on_c, 3, 65, 50
5, 10560, Note_on_c, 3, 73, 50
5, 10680, Note_on_c, 3, 73, 0
5, 10680, Note_on_c, 3, 65, 0
5, 10680, Note_on_c, 3, 63, 50
5, 10680, Note_on_c, 3, 70, 50
5, 10800, Note_on_c, 3, 70, 0
5, 10800, Note_on_c, 3, 63, 0
5, 10800, Note_on_c, 3, 65, 50
5, 10800, Note_on_c, 3, 68, 50
5, 11040, Note_on_c, 3, 68, 0
5, 11040, Note_on_c, 3, 65, 0
5, 11040, Note_on_c, 3, 63, 50
5, 11040, Note_on_c, 3, 66, 50
5, 11232, Note_on_c, 3, 63, 0
5, 11280, Note_on_c, 3, 60, 50
5, 11376, Note_on_c, 3, 66, 0
5, 11400, Note_on_c, 3, 63, 50
5, 11520, Note_on_c, 3, 63, 0
5, 11520, Note_on_c, 3, 60, 0
5, 11520, Note_on_c, 3, 61, 50
5, 11616, Note_on_c, 3, 61, 0
5, 12360, Note_on_c, 3, 77, 50
5, 12468, Note_on_c, 3, 77, 0
5, 12480, Note_on_c, 3, 78, 50
5, 12534, Note_on_c, 3, 78, 0
5, 12540, Note_on_c, 3, 77, 50
5, 12594, Note_on_c, 3, 77, 0
5, 12600, Note_on_c, 3, 75, 50
5, 12654, Note_on_c, 3, 75, 0
5, 12660, Note_on_c, 3, 73, 50
5, 12714, Note_on_c, 3, 73, 0
5, 12720, Note_on_c, 3, 73, 50
5, 12816, Note_on_c, 3, 73, 0
5, 13200, Note_on_c, 3, 66, 50
5, 13392, Note_on_c, 3, 66, 0
5, 13440, Note_on_c, 3, 66, 50
5, 13632, Note_on_c, 3, 66, 0
5, 13920, Note_on_c, 3, 66, 50
5, 14112, Note_on_c, 3, 66, 0
5, 14160, Note_on_c, 3, 66, 50
5, 14352, Note_on_c, 3, 66, 0
5, 14640, Note_on_c, 3, 61, 50
5, 14832, Note_on_c, 3, 61, 0
5, 14880, Note_on_c, 3, 70, 50
5, 15072, Note_on_c, 3, 70, 0
5, 15360, Note_on_c, 3, 61, 50
5, 15360, Note_on_c, 3, 70, 50
5, 15552, Note_on_c, 3, 70, 0
5, 15552, Note_on_c, 3, 61, 0
5, 15600, Note_on_c, 3, 61, 50
5, 15600, Note_on_c, 3, 70, 50
5, 15792, Note_on_c, 3, 70, 0
5, 15792, Note_on_c, 3, 61, 0
5, 16680, Note_on_c, 3, 70, 50
5, 16776, Note_on_c, 3, 70, 0
5, 16800, Note_on_c, 3, 72, 50
5, 16800, Note_on_c, 3, 68, 50
5, 16848, Note_on_c, 3, 68, 0
5, 16848, Note_on_c, 3, 72, 0
5, 16860, Note_on_c, 3, 70, 50
5, 16860, Note_on_c, 3, 67, 50
5, 16908, Note_on_c, 3, 67, 0
5, 16908, Note_on_c, 3, 70, 0
5, 16920, Note_on_c, 3, 68, 50
5, 16920, Note_on_c, 3, 65, 50
5, 16968, Note_on_c, 3, 65, 0
5, 16968, Note_on_c, 3, 68, 0
5, 16980, Note_on_c, 3, 67, 50
5, 16980, Note_on_c, 3, 64, 50
5, 17028, Note_on_c, 3, 64, 0
5, 17028, Note_on_c, 3, 67, 0
5, 17040, Note_on_c, 3, 67, 50
5, 17040, Note_on_c, 3, 64, 50
5, 17136, Note_on_c, 3, 64, 0
5, 17136, Note_on_c, 3, 67, 0
5, 23640, Note_on_c, 3, 60, 56
5, 23640, Note_on_c, 3, 72, 56
5, 23736, Note_on_c, 3, 72, 0
5, 23736, Note_on_c, 3, 60, 0
5, 23760, Note_on_c, 3, 61, 56
5, 23760, Note_on_c, 3, 70, 56
5, 24048, Note_on_c, 3, 70, 0
5, 24048, Note_on_c, 3, 61, 0
5, 24120, Note_on_c, 3, 60, 56
5, 24120, Note_on_c, 3, 68, 56
5, 24216, Note_on_c, 3, 68, 0
5, 24216, Note_on_c, 3, 60, 0
5, 24840, Note_on_c, 3, 72, 56
5, 24936, Note_on_c, 3, 72, 0
5, 26760, Note_on_c, 3, 67, 71
5, 26760, Note_on_c, 3, 70, 71
5, 26856, Note_on_c, 3, 70, 0
5, 26856, Note_on_c, 3, 67, 0
5, 27120, Note_on_c, 3, 67, 76
5, 27120, Note_on_c, 3, 70, 76
5, 27216, Note_on_c, 3, 70, 0
5, 27216, Note_on_c, 3, 67, 0
5, 27480, Note_on_c, 3, 67, 81
5, 27480, Note_on_c, 3, 70, 81
5, 27576, Note_on_c, 3, 70, 0
5, 27576, Note_on_c, 3, 67, 0
5, 27840, Note_on_c, 3, 67, 86
5, 27840, Note_on_c, 3, 70, 86
5, 27936, Note_on_c, 3, 70, 0
5, 27936, Note_on_c, 3, 67, 0
5, 28200, Note_on_c, 3, 70, 91
5, 28200, Note_on_c, 3, 67, 91
5, 28296, Note_on_c, 3, 67, 0
5, 28296, Note_on_c, 3, 70, 0
5, 28560, Note_on_c, 3, 70, 96
5, 28560, Note_on_c, 3, 67, 96
5, 28656, Note_on_c, 3, 67, 0
5, 28656, Note_on_c, 3, 70, 0
5, 28920, Note_on_c, 3, 70, 101
5, 28920, Note_on_c, 3, 67, 101
5, 29016, Note_on_c, 3, 67, 0
5, 29016, Note_on_c, 3, 70, 0
5, 29280, Note_on_c, 3, 70, 106
5, 29280, Note_on_c, 3, 67, 106
5, 29376, Note_on_c, 3, 67, 0
5, 29376, Note_on_c, 3, 70, 0
5, 29640, Note_on_c, 3, 70, 111
5, 29640, Note_on_c, 3, 67, 111
5, 29736, Note_on_c, 3, 67, 0
5, 29736, Note_on_c, 3, 70, 0
5, 30000, Note_on_c, 3, 70, 116
5, 30000, Note_on_c, 3, 67, 116
5, 30096, Note_on_c, 3, 67, 0
5, 30096, Note_on_c, 3, 70, 0
5, 30360, Note_on_c, 3, 67, 121
5, 30360, Note_on_c, 3, 70, 121
5, 30456, Note_on_c, 3, 70, 0
5, 30456, Note_on_c, 3, 67, 0
5, 30720, Note_on_c, 3, 67, 127
5, 30720, Note_on_c, 3, 70, 127
5, 30816, Note_on_c, 3, 70, 0
5, 30816, Note_on_c, 3, 67, 0
5, 30840, Note_on_c, 3, 68, 127
5, 30840, Note_on_c, 3, 72, 127
5, 30936, Note_on_c, 3, 72, 0
5, 30960, Note_on_c, 3, 77, 127
5, 31776, Note_on_c, 3, 77, 0
5, 31776, Note_on_c, 3, 68, 0
5, 31800, Note_on_c, 3, 72, 121
5, 31800, Note_on_c, 3, 68, 121
5, 31896, Note_on_c, 3, 68, 0
5, 31896, Note_on_c, 3, 72, 0
5, 31920, Note_on_c, 3, 68, 120
5, 31920, Note_on_c, 3, 72, 120
5, 32016, Note_on_c, 3, 72, 0
5, 32016, Note_on_c, 3, 68, 0
5, 32040, Note_on_c, 3, 67, 119
5, 32040, Note_on_c, 3, 70, 119
5, 32136, Note_on_c, 3, 70, 0
5, 32136, Note_on_c, 3, 67, 0
5, 32280, Note_on_c, 3, 70, 117
5, 32280, Note_on_c, 3, 76, 117
5, 32376, Note_on_c, 3, 76, 0
5, 32376, Note_on_c, 3, 70, 0
5, 32400, Note_on_c, 3, 67, 116
5, 32400, Note_on_c, 3, 70, 116
5, 33216, Note_on_c, 3, 70, 0
5, 33216, Note_on_c, 3, 67, 0
5, 33240, Note_on_c, 3, 67, 110
5, 33240, Note_on_c, 3, 70, 110
5, 33336, Note_on_c, 3, 70, 0
5, 33336, Note_on_c, 3, 67, 0
5, 33360, Note_on_c, 3, 67, 109
5, 33360, Note_on_c, 3, 70, 109
5, 33456, Note_on_c, 3, 70, 0
5, 33456, Note_on_c, 3, 67, 0
5, 33480, Note_on_c, 3, 65, 108
5, 33480, Note_on_c, 3, 68, 108
5, 33576, Note_on_c, 3, 68, 0
5, 33576, Note_on_c, 3, 65, 0
5, 33840, Note_on_c, 3, 67, 106
5, 33840, Note_on_c, 3, 70, 106
5, 33936, Note_on_c, 3, 70, 0
5, 33936, Note_on_c, 3, 67, 0
5, 34200, Note_on_c, 3, 68, 103
5, 34200, Note_on_c, 3, 72, 103
5, 34296, Note_on_c, 3, 72, 0
5, 34296, Note_on_c, 3, 68, 0
5, 34560, Note_on_c, 3, 70, 100
5, 34560, Note_on_c, 3, 73, 100
5, 34656, Note_on_c, 3, 73, 0
5, 34656, Note_on_c, 3, 70, 0
5, 34680, Note_on_c, 3, 70, 109
5, 34680, Note_on_c, 3, 73, 109
5, 34776, Note_on_c, 3, 73, 0
5, 34776, Note_on_c, 3, 70, 0
5, 34800, Note_on_c, 3, 70, 118
5, 34800, Note_on_c, 3, 72, 118
5, 34896, Note_on_c, 3, 72, 0
5, 34896, Note_on_c, 3, 70, 0
5, 34920, Note_on_c, 3, 68, 127
5, 34920, Note_on_c, 3, 72, 127
5, 35016, Note_on_c, 3, 72, 0
5, 35016, Note_on_c, 3, 68, 0
5, 35280, Note_on_c, 3, 67, 104
5, 35280, Note_on_c, 3, 70, 104
5, 35376, Note_on_c, 3, 70, 0
5, 35376, Note_on_c, 3, 67, 0
5, 35640, Note_on_c, 3, 68, 112
5, 35640, Note_on_c, 3, 72, 112
5, 35736, Note_on_c, 3, 72, 0
5, 35736, Note_on_c, 3, 68, 0
5, 35880, Note_on_c, 3, 72, 117
5, 35880, Note_on_c, 3, 68, 117
5, 35976, Note_on_c, 3, 68, 0
5, 35976, Note_on_c, 3, 72, 0
5, 36000, Note_on_c, 3, 68, 119
5, 36000, Note_on_c, 3, 73, 119
5, 36096, Note_on_c, 3, 73, 0
5, 36096, Note_on_c, 3, 68, 0
5, 36120, Note_on_c, 3, 68, 122
5, 36120, Note_on_c, 3, 73, 122
5, 36216, Note_on_c, 3, 73, 0
5, 36216, Note_on_c, 3, 68, 0
5, 36240, Note_on_c, 3, 68, 124
5, 36240, Note_on_c, 3, 74, 124
5, 36336, Note_on_c, 3, 74, 0
5, 36336, Note_on_c, 3, 68, 0
5, 36360, Note_on_c, 3, 67, 80
5, 36360, Note_on_c, 3, 70, 80
5, 36648, Note_on_c, 3, 70, 0
5, 36648, Note_on_c, 3, 67, 0
5, 36720, Note_on_c, 3, 68, 80
5, 36720, Note_on_c, 3, 72, 80
5, 37008, Note_on_c, 3, 72, 0
5, 37008, Note_on_c, 3, 68, 0
5, 37080, Note_on_c, 3, 68, 80
5, 37080, Note_on_c, 3, 70, 80
5, 37368, Note_on_c, 3, 70, 0
5, 37368, Note_on_c, 3, 68, 0
5, 37440, Note_on_c, 3, 67, 80
5, 37440, Note_on_c, 3, 70, 80
5, 37728, Note_on_c, 3, 70, 0
5, 37728, Note_on_c, 3, 67, 0
5, 37800, Note_on_c, 3, 67, 80
5, 37800, Note_on_c, 3, 70, 80
5, 38088, Note_on_c, 3, 70, 0
5, 38088, Note_on_c, 3, 67, 0
5, 38160, Note_on_c, 3, 68, 80
5, 38160, Note_on_c, 3, 72, 80
5, 38448, Note_on_c, 3, 72, 0
5, 38448, Note_on_c, 3, 68, 0
5, 38520, Note_on_c, 3, 68, 80
5, 38520, Note_on_c, 3, 70, 80
5, 38808, Note_on_c, 3, 70, 0
5, 38808, Note_on_c, 3, 68, 0
5, 38880, Note_on_c, 3, 67, 80
5, 38880, Note_on_c, 3, 70, 80
5, 38976, Note_on_c, 3, 70, 0
5, 38976, Note_on_c, 3, 67, 0
5, 39960, Control_c, 3, 91, 112
5, 39960, Note_on_c, 3, 67, 50
5, 39960, Note_on_c, 3, 75, 50
5, 40056, Note_on_c, 3, 75, 0
5, 40080, Note_on_c, 3, 70, 50
5, 40176, Note_on_c, 3, 70, 0
5, 40200, Note_on_c, 3, 73, 50
5, 40296, Note_on_c, 3, 73, 0
5, 40296, Note_on_c, 3, 67, 0
5, 40320, Note_on_c, 3, 68, 50
5, 40320, Note_on_c, 3, 72, 50
5, 40608, Note_on_c, 3, 72, 0
5, 40608, Note_on_c, 3, 68, 0
5, 41400, Note_on_c, 3, 67, 50
5, 41400, Note_on_c, 3, 75, 50
5, 41496, Note_on_c, 3, 75, 0
5, 41520, Note_on_c, 3, 70, 50
5, 41616, Note_on_c, 3, 70, 0
5, 41640, Note_on_c, 3, 73, 50
5, 41736, Note_on_c, 3, 73, 0
5, 41736, Note_on_c, 3, 67, 0
5, 41760, Note_on_c, 3, 68, 50
5, 41760, Note_on_c, 3, 72, 50
5, 42048, Note_on_c, 3, 72, 0
5, 42048, Note_on_c, 3, 68, 0
5, 42840, Control_c, 3, 91, 64
5, 42840, Note_on_c, 3, 69, 50
5, 42840, Note_on_c, 3, 81, 50
5, 44928, Note_on_c, 3, 81, 0
5, 44928, Note_on_c, 3, 69, 0
5, 45000, Note_on_c, 3, 70, 67
5, 45000, Note_on_c, 3, 82, 67
5, 45288, Note_on_c, 3, 82, 0
5, 45288, Note_on_c, 3, 70, 0
5, 45360, Note_on_c, 3, 73, 70
5, 45360, Note_on_c, 3, 82, 70
5, 45648, Note_on_c, 3, 82, 0
5, 45648, Note_on_c, 3, 73, 0
5, 45720, Note_on_c, 3, 72, 95
5, 45720, Note_on_c, 3, 84, 95
5, 45816, Note_on_c, 3, 84, 0
5, 45816, Note_on_c, 3, 72, 0
5, 45840, Note_on_c, 3, 72, 95
5, 45840, Note_on_c, 3, 75, 95
5, 45936, Note_on_c, 3, 75, 0
5, 45936, Note_on_c, 3, 72, 0
5, 45960, Note_on_c, 3, 72, 95
5, 45960, Note_on_c, 3, 80, 95
5, 46056, Note_on_c, 3, 72, 0
5, 46080, Note_on_c, 3, 77, 95
5, 46176, Note_on_c, 3, 77, 0
5, 46176, Note_on_c, 3, 80, 0
5, 46200, Note_on_c, 3, 73, 95
5, 46200, Note_on_c, 3, 77, 95
5, 46296, Note_on_c, 3, 77, 0
5, 46296, Note_on_c, 3, 73, 0
5, 46320, Note_on_c, 3, 73, 95
5, 46320, Note_on_c, 3, 77, 95
5, 46536, Note_on_c, 3, 77, 0
5, 46536, Note_on_c, 3, 73, 0
5, 46560, Note_on_c, 3, 70, 95
5, 46560, Note_on_c, 3, 73, 95
5, 46656, Note_on_c, 3, 73, 0
5, 46656, Note_on_c, 3, 70, 0
5, 46680, Note_on_c, 3, 70, 95
5, 46680, Note_on_c, 3, 73, 95
5, 46896, Note_on_c, 3, 73, 0
5, 46896, Note_on_c, 3, 70, 0
5, 46920, Note_on_c, 3, 70, 95
5, 46920, Note_on_c, 3, 73, 95
5, 47016, Note_on_c, 3, 73, 0
5, 47016, Note_on_c, 3, 70, 0
5, 47040, Note_on_c, 3, 67, 95
5, 47040, Note_on_c, 3, 70, 95
5, 47136, Note_on_c, 3, 70, 0
5, 47136, Note_on_c, 3, 67, 0
5, 47160, Note_on_c, 3, 60, 95
5, 47160, Note_on_c, 3, 68, 95
5, 47256, Note_on_c, 3, 68, 0
5, 47256, Note_on_c, 3, 60, 0
5, 47880, Note_on_c, 3, 63, 80
5, 47880, Note_on_c, 3, 68, 80
5, 47976, Note_on_c, 3, 68, 0
5, 47976, Note_on_c, 3, 63, 0
5, 48600, Note_on_c, 3, 68, 80
5, 48600, Note_on_c, 3, 72, 80
5, 48696, Note_on_c, 3, 72, 0
5, 48696, Note_on_c, 3, 68, 0
5, 49080, Note_on_c, 3, 72, 114
5, 49080, Note_on_c, 3, 75, 114
5, 49176, Note_on_c, 3, 75, 0
5, 49176, Note_on_c, 3, 72, 0
5, 49200, Note_on_c, 3, 72, 120
5, 49200, Note_on_c, 3, 75, 120
5, 49296, Note_on_c, 3, 75, 0
5, 49296, Note_on_c, 3, 72, 0
5, 49320, Note_on_c, 3, 75, 127
5, 49512, Note_on_c, 3, 75, 0
5, 49560, Note_on_c, 3, 67, 127
5, 49596, Note_on_c, 3, 67, 0
5, 49680, Note_on_c, 3, 75, 127
5, 49872, Note_on_c, 3, 75, 0
5, 49920, Note_on_c, 3, 67, 127
5, 49956, Note_on_c, 3, 67, 0
5, 50040, Note_on_c, 3, 75, 127
5, 50232, Note_on_c, 3, 75, 0
5, 50280, Note_on_c, 3, 68, 127
5, 50316, Note_on_c, 3, 68, 0
5, 50400, Note_on_c, 3, 75, 127
5, 50592, Note_on_c, 3, 75, 0
5, 50640, Note_on_c, 3, 67, 127
5, 50676, Note_on_c, 3, 67, 0
5, 50760, Note_on_c, 3, 75, 127
5, 50952, Note_on_c, 3, 75, 0
5, 51000, Note_on_c, 3, 68, 127
5, 51036, Note_on_c, 3, 68, 0
5, 51120, Note_on_c, 3, 75, 127
5, 51312, Note_on_c, 3, 75, 0
5, 51360, Note_on_c, 3, 67, 127
5, 51360, Note_on_c, 3, 79, 127
5, 51456, Note_on_c, 3, 79, 0
5, 51456, Note_on_c, 3, 67, 0
5, 51480, Note_on_c, 3, 68, 127
5, 51480, Note_on_c, 3, 80, 127
5, 51576, Note_on_c, 3, 80, 0
5, 51576, Note_on_c, 3, 68, 0
5, 52080, Control_c, 3, 7, 96
5, 52080, Note_on_c, 3, 75, 70
5, 52200, Note_on_c, 3, 75, 0
5, 52200, Note_on_c, 3, 77, 70
5, 52320, Note_on_c, 3, 77, 0
5, 52320, Note_on_c, 3, 75, 70
5, 52440, Note_on_c, 3, 75, 0
5, 52440, Note_on_c, 3, 72, 70
5, 52560, Note_on_c, 3, 72, 0
5, 52560, Note_on_c, 3, 68, 70
5, 52656, Note_on_c, 3, 68, 0
5, 53880, Note_on_c, 3, 70, 70
5, 54000, Note_on_c, 3, 70, 0
5, 54000, Note_on_c, 3, 73, 70
5, 54120, Note_on_c, 3, 73, 0
5, 54120, Note_on_c, 3, 70, 70
5, 54216, Note_on_c, 3, 70, 0
5, 54240, Note_on_c, 3, 67, 127
5, 54240, Note_on_c, 3, 70, 127
5, 54336, Note_on_c, 3, 70, 0
5, 54336, Note_on_c, 3, 67, 0
5, 54360, Note_on_c, 3, 68, 127
5, 54360, Note_on_c, 3, 72, 127
5, 54456, Note_on_c, 3, 72, 0
5, 54456, Note_on_c, 3, 68, 0
5, 54960, Note_on_c, 3, 75, 70
5, 55080, Note_on_c, 3, 75, 0
5, 55080, Note_on_c, 3, 77, 70
5, 55200, Note_on_c, 3, 77, 0
5, 55200, Note_on_c, 3, 75, 70
5, 55320, Note_on_c, 3, 75, 0
5, 55320, Note_on_c, 3, 72, 70
5, 55440, Note_on_c, 3, 72, 0
5, 55440, Note_on_c, 3, 68, 70
5, 55560, Note_on_c, 3, 68, 0
5, 56760, Note_on_c, 3, 69, 50
5, 56760, Note_on_c, 3, 72, 70
5, 56880, Note_on_c, 3, 72, 0
5, 56880, Note_on_c, 3, 69, 0
5, 56880, Note_on_c, 3, 72, 50
5, 56880, Note_on_c, 3, 75, 70
5, 57000, Note_on_c, 3, 75, 0
5, 57000, Note_on_c, 3, 72, 0
5, 57000, Note_on_c, 3, 69, 50
5, 57000, Note_on_c, 3, 72, 70
5, 57096, Note_on_c, 3, 72, 0
5, 57096, Note_on_c, 3, 69, 0
5, 57120, Note_on_c, 3, 69, 127
5, 57120, Note_on_c, 3, 72, 127
5, 57216, Note_on_c, 3, 72, 0
5, 57216, Note_on_c, 3, 69, 0
5, 57240, Note_on_c, 3, 70, 127
5, 57240, Note_on_c, 3, 73, 127
5, 57336, Note_on_c, 3, 73, 0
5, 57336, Note_on_c, 3, 70, 0
5, 57840, Note_on_c, 3, 77, 70
5, 57960, Note_on_c, 3, 77, 0
5, 57960, Note_on_c, 3, 78, 70
5, 58080, Note_on_c, 3, 78, 0
5, 58080, Note_on_c, 3, 77, 70
5, 58200, Note_on_c, 3, 77, 0
5, 58200, Note_on_c, 3, 73, 70
5, 58320, Note_on_c, 3, 73, 0
5, 58320, Note_on_c, 3, 70, 70
5, 58416, Note_on_c, 3, 70, 0
5, 59640, Note_on_c, 3, 69, 50
5, 59640, Note_on_c, 3, 72, 70
5, 59760, Note_on_c, 3, 72, 0
5, 59760, Note_on_c, 3, 69, 0
5, 59760, Note_on_c, 3, 72, 50
5, 59760, Note_on_c, 3, 75, 70
5, 59880, Note_on_c, 3, 75, 0
5, 59880, Note_on_c, 3, 72, 0
5, 59880, Note_on_c, 3, 69, 50
5, 59880, Note_on_c, 3, 72, 70
5, 59976, Note_on_c, 3, 72, 0
5, 59976, Note_on_c, 3, 69, 0
5, 60000, Note_on_c, 3, 57, 127
5, 60000, Note_on_c, 3, 69, 127
5, 60096, Note_on_c, 3, 69, 0
5, 60096, Note_on_c, 3, 57, 0
5, 60120, Note_on_c, 3, 58, 127
5, 60120, Note_on_c, 3, 70, 127
5, 60216, Note_on_c, 3, 70, 0
5, 60216, Note_on_c, 3, 58, 0
5, 60720, Note_on_c, 3, 77, 50
5, 60840, Note_on_c, 3, 77, 0
5, 60840, Note_on_c, 3, 78, 50
5, 60960, Note_on_c, 3, 78, 0
5, 60960, Note_on_c, 3, 77, 50
5, 61080, Note_on_c, 3, 77, 0
5, 61080, Note_on_c, 3, 73, 50
5, 61200, Note_on_c, 3, 73, 0
5, 61200, Note_on_c, 3, 70, 50
5, 61296, Note_on_c, 3, 70, 0
5, 61800, Note_on_c, 3, 71, 50
5, 61800, Note_on_c, 3, 74, 50
5, 61920, Note_on_c, 3, 74, 0
5, 61920, Note_on_c, 3, 71, 0
5, 61920, Note_on_c, 3, 74, 50
5, 61920, Note_on_c, 3, 77, 50
5, 62040, Note_on_c, 3, 77, 0
5, 62040, Note_on_c, 3, 74, 0
5, 62040, Note_on_c, 3, 71, 50
5, 62040, Note_on_c, 3, 74, 50
5, 62136, Note_on_c, 3, 74, 0
5, 62136, Note_on_c, 3, 71, 0
5, 64800, Control_c, 3, 7, 72
5, 64800, Note_on_c, 3, 65, 50
5, 64800, Note_on_c, 3, 71, 50
5, 65088, Note_on_c, 3, 71, 0
5, 65088, Note_on_c, 3, 65, 0
5, 65160, Note_on_c, 3, 65, 50
5, 65160, Note_on_c, 3, 71, 50
5, 65448, Note_on_c, 3, 71, 0
5, 65448, Note_on_c, 3, 65, 0
5, 65520, Note_on_c, 3, 65, 50
5, 65520, Note_on_c, 3, 71, 50
5, 66168, Note_on_c, 3, 71, 0
5, 66168, Note_on_c, 3, 65, 0
5, 66240, Note_on_c, 3, 67, 50
5, 66240, Note_on_c, 3, 70, 50
5, 66528, Note_on_c, 3, 70, 0
5, 66528, Note_on_c, 3, 67, 0
5, 66600, Note_on_c, 3, 67, 50
5, 66600, Note_on_c, 3, 70, 50
5, 66888, Note_on_c, 3, 70, 0
5, 66888, Note_on_c, 3, 67, 0
5, 66960, Note_on_c, 3, 67, 50
5, 66960, Note_on_c, 3, 70, 50
5, 68232, Note_on_c, 3, 70, 0
5, 68232, Note_on_c, 3, 67, 0
5, 68280, Note_on_c, 3, 68, 64
5, 68280, Note_on_c, 3, 72, 64
5, 68376, Note_on_c, 3, 72, 0
5, 68376, Note_on_c, 3, 68, 0
5, 68400, Note_on_c, 3, 68, 45
5, 68400, Note_on_c, 3, 72, 45
5, 68496, Note_on_c, 3, 72, 0
5, 68496, Note_on_c, 3, 68, 0
5, 68520, Note_on_c, 3, 68, 45
5, 68520, Note_on_c, 3, 72, 45
5, 68616, Note_on_c, 3, 72, 0
5, 68616, Note_on_c, 3, 68, 0
5, 68880, Note_on_c, 3, 68, 56
5, 68880, Note_on_c, 3, 72, 56
5, 68976, Note_on_c, 3, 72, 0
5, 68976, Note_on_c, 3, 68, 0
5, 69240, Note_on_c, 3, 65, 56
5, 69240, Note_on_c, 3, 68, 56
5, 69336, Note_on_c, 3, 68, 0
5, 69336, Note_on_c, 3, 65, 0
5, 69600, Note_on_c, 3, 67, 56
5, 69600, Note_on_c, 3, 70, 56
5, 69696, Note_on_c, 3, 70, 0
5, 69696, Note_on_c, 3, 67, 0
5, 69960, Note_on_c, 3, 70, 56
5, 69960, Note_on_c, 3, 67, 56
5, 70056, Note_on_c, 3, 67, 0
5, 70056, Note_on_c, 3, 70, 0
5, 70320, Note_on_c, 3, 70, 56
5, 70320, Note_on_c, 3, 67, 56
5, 70416, Note_on_c, 3, 67, 0
5, 70416, Note_on_c, 3, 70, 0
5, 70680, Note_on_c, 3, 70, 56
5, 70680, Note_on_c, 3, 67, 56
5, 70776, Note_on_c, 3, 67, 0
5, 70776, Note_on_c, 3, 70, 0
5, 71040, Note_on_c, 3, 68, 56
5, 71040, Note_on_c, 3, 72, 56
5, 71136, Note_on_c, 3, 72, 0
5, 71136, Note_on_c, 3, 68, 0
5, 71880, Note_on_c, 3, 56, 56
5, 71880, Note_on_c, 3, 60, 56
5, 72000, Note_on_c, 3, 60, 0
5, 72000, Note_on_c, 3, 56, 0
5, 72000, Note_on_c, 3, 58, 56
5, 72000, Note_on_c, 3, 61, 56
5, 72360, Note_on_c, 3, 61, 0
5, 72360, Note_on_c, 3, 58, 0
5, 72360, Note_on_c, 3, 56, 56
5, 72360, Note_on_c, 3, 60, 56
5, 72456, Note_on_c, 3, 60, 0
5, 72456, Note_on_c, 3, 56, 0
5, 73080, Note_on_c, 3, 68, 56
5, 73176, Note_on_c, 3, 68, 0
5, 75000, Note_on_c, 3, 67, 71
5, 75000, Note_on_c, 3, 70, 71
5, 75096, Note_on_c, 3, 70, 0
5, 75096, Note_on_c, 3, 67, 0
5, 75360, Note_on_c, 3, 67, 76
5, 75360, Note_on_c, 3, 70, 76
5, 75456, Note_on_c, 3, 70, 0
5, 75456, Note_on_c, 3, 67, 0
5, 75720, Note_on_c, 3, 67, 81
5, 75720, Note_on_c, 3, 70, 81
5, 75816, Note_on_c, 3, 70, 0
5, 75816, Note_on_c, 3, 67, 0
5, 76080, Note_on_c, 3, 67, 86
5, 76080, Note_on_c, 3, 70, 86
5, 76176, Note_on_c, 3, 70, 0
5, 76176, Note_on_c, 3, 67, 0
5, 76440, Note_on_c, 3, 67, 91
5, 76440, Note_on_c, 3, 70, 91
5, 76536, Note_on_c, 3, 70, 0
5, 76536, Note_on_c, 3, 67, 0
5, 76800, Note_on_c, 3, 70, 96
5, 76800, Note_on_c, 3, 67, 96
5, 76896, Note_on_c, 3, 67, 0
5, 76896, Note_on_c, 3, 70, 0
5, 77160, Note_on_c, 3, 70, 101
5, 77160, Note_on_c, 3, 67, 101
5, 77256, Note_on_c, 3, 67, 0
5, 77256, Note_on_c, 3, 70, 0
5, 77520, Note_on_c, 3, 70, 106
5, 77520, Note_on_c, 3, 67, 106
5, 77616, Note_on_c, 3, 67, 0
5, 77616, Note_on_c, 3, 70, 0
5, 77880, Note_on_c, 3, 70, 110
5, 77880, Note_on_c, 3, 67, 110
5, 77976, Note_on_c, 3, 67, 0
5, 77976, Note_on_c, 3, 70, 0
5, 78240, Note_on_c, 3, 70, 115
5, 78240, Note_on_c, 3, 67, 115
5, 78336, Note_on_c, 3, 67, 0
5, 78336, Note_on_c, 3, 70, 0
5, 78600, Note_on_c, 3, 67, 120
5, 78600, Note_on_c, 3, 70, 120
5, 78696, Note_on_c, 3, 70, 0
5, 78696, Note_on_c, 3, 67, 0
5, 78960, Note_on_c, 3, 67, 125
5, 78960, Note_on_c, 3, 70, 125
5, 79056, Note_on_c, 3, 70, 0
5, 79056, Note_on_c, 3, 67, 0
5, 79080, Note_on_c, 3, 68, 127
5, 79080, Note_on_c, 3, 72, 127
5, 79200, Note_on_c, 3, 72, 0
5, 79200, Note_on_c, 3, 77, 127
5, 80016, Note_on_c, 3, 77, 0
5, 80016, Note_on_c, 3, 68, 0
5, 80040, Note_on_c, 3, 68, 127
5, 80040, Note_on_c, 3, 72, 127
5, 80136, Note_on_c, 3, 72, 0
5, 80136, Note_on_c, 3, 68, 0
5, 80160, Note_on_c, 3, 68, 127
5, 80160, Note_on_c, 3, 72, 127
5, 80256, Note_on_c, 3, 72, 0
5, 80256, Note_on_c, 3, 68, 0
5, 80280, Note_on_c, 3, 67, 127
5, 80280, Note_on_c, 3, 72, 127
5, 80376, Note_on_c, 3, 72, 0
5, 80376, Note_on_c, 3, 67, 0
5, 80520, Note_on_c, 3, 70, 127
5, 80520, Note_on_c, 3, 76, 127
5, 80640, Note_on_c, 3, 76, 0
5, 80640, Note_on_c, 3, 70, 0
5, 80640, Note_on_c, 3, 67, 127
5, 80640, Note_on_c, 3, 70, 127
5, 81456, Note_on_c, 3, 70, 0
5, 81456, Note_on_c, 3, 67, 0
5, 81480, Note_on_c, 3, 67, 127
5, 81480, Note_on_c, 3, 70, 127
5, 81576, Note_on_c, 3, 70, 0
5, 81576, Note_on_c, 3, 67, 0
5, 81600, Note_on_c, 3, 67, 127
5, 81600, Note_on_c, 3, 70, 127
5, 81696, Note_on_c, 3, 70, 0
5, 81696, Note_on_c, 3, 67, 0
5, 81720, Note_on_c, 3, 65, 127
5, 81720, Note_on_c, 3, 68, 127
5, 81816, Note_on_c, 3, 68, 0
5, 81816, Note_on_c, 3, 65, 0
5, 82680, Note_on_c, 3, 68, 127
5, 82680, Note_on_c, 3, 77, 127
5, 82800, Note_on_c, 3, 77, 0
5, 82800, Note_on_c, 3, 68, 0
5, 82800, Note_on_c, 3, 70, 127
5, 82800, Note_on_c, 3, 75, 127
5, 83040, Note_on_c, 3, 75, 0
5, 83040, Note_on_c, 3, 73, 127
5, 83088, Note_on_c, 3, 70, 0
5, 83136, Note_on_c, 3, 73, 0
5, 83160, Note_on_c, 3, 68, 127
5, 83160, Note_on_c, 3, 72, 127
5, 83256, Note_on_c, 3, 72, 0
5, 83256, Note_on_c, 3, 68, 0
5, 84120, Note_on_c, 3, 68, 127
5, 84120, Note_on_c, 3, 73, 127
5, 84216, Note_on_c, 3, 73, 0
5, 84216, Note_on_c, 3, 68, 0
5, 84240, Note_on_c, 3, 65, 127
5, 84240, Note_on_c, 3, 73, 127
5, 84336, Note_on_c, 3, 73, 0
5, 84336, Note_on_c, 3, 65, 0
5, 84600, Note_on_c, 3, 66, 127
5, 84600, Note_on_c, 3, 73, 127
5, 84696, Note_on_c, 3, 73, 0
5, 84696, Note_on_c, 3, 66, 0
5, 84960, Note_on_c, 3, 68, 127
5, 84960, Note_on_c, 3, 73, 127
5, 85056, Note_on_c, 3, 73, 0
5, 85056, Note_on_c, 3, 68, 0
5, 85320, Note_on_c, 3, 66, 127
5, 85320, Note_on_c, 3, 70, 127
5, 85416, Note_on_c, 3, 70, 0
5, 85416, Note_on_c, 3, 66, 0
5, 85440, Note_on_c, 3, 70, 127
5, 85440, Note_on_c, 3, 73, 127
5, 85536, Note_on_c, 3, 73, 0
5, 85536, Note_on_c, 3, 70, 0
5, 85560, Note_on_c, 3, 66, 127
5, 85560, Note_on_c, 3, 72, 127
5, 85656, Note_on_c, 3, 72, 0
5, 85656, Note_on_c, 3, 66, 0
5, 85680, Note_on_c, 3, 65, 127
5, 85680, Note_on_c, 3, 73, 127
5, 85776, Note_on_c, 3, 73, 0
5, 85776, Note_on_c, 3, 65, 0
5, 86040, Note_on_c, 3, 66, 105
5, 86040, Note_on_c, 3, 73, 105
5, 86136, Note_on_c, 3, 73, 0
5, 86136, Note_on_c, 3, 66, 0
5, 86400, Note_on_c, 3, 68, 112
5, 86400, Note_on_c, 3, 73, 112
5, 86496, Note_on_c, 3, 73, 0
5, 86496, Note_on_c, 3, 68, 0
5, 86760, Note_on_c, 3, 70, 119
5, 86760, Note_on_c, 3, 75, 119
5, 86856, Note_on_c, 3, 75, 0
5, 86856, Note_on_c, 3, 70, 0
5, 86880, Note_on_c, 3, 70, 122
5, 86880, Note_on_c, 3, 75, 122
5, 86976, Note_on_c, 3, 75, 0
5, 86976, Note_on_c, 3, 70, 0
5, 87000, Note_on_c, 3, 72, 124
5, 87000, Note_on_c, 3, 75, 124
5, 87096, Note_on_c, 3, 75, 0
5, 87096, Note_on_c, 3, 72, 0
5, 87120, Note_on_c, 3, 70, 127
5, 87120, Note_on_c, 3, 75, 127
5, 87768, Note_on_c, 3, 75, 0
5, 87768, Note_on_c, 3, 70, 0
5, 87840, Note_on_c, 3, 72, 127
5, 87840, Note_on_c, 3, 75, 127
5, 88128, Note_on_c, 3, 75, 0
5, 88128, Note_on_c, 3, 72, 0
5, 88200, Note_on_c, 3, 73, 122
5, 88200, Note_on_c, 3, 77, 122
5, 88488, Note_on_c, 3, 77, 0
5, 88488, Note_on_c, 3, 73, 0
5, 88560, Note_on_c, 3, 75, 117
5, 88560, Note_on_c, 3, 73, 117
5, 88848, Note_on_c, 3, 73, 0
5, 88848, Note_on_c, 3, 75, 0
5, 88920, Note_on_c, 3, 75, 112
5, 88920, Note_on_c, 3, 72, 112
5, 89208, Note_on_c, 3, 72, 0
5, 89208, Note_on_c, 3, 75, 0
5, 89280, Note_on_c, 3, 75, 107
5, 89280, Note_on_c, 3, 72, 107
5, 89568, Note_on_c, 3, 72, 0
5, 89568, Note_on_c, 3, 75, 0
5, 89640, Note_on_c, 3, 73, 102
5, 89640, Note_on_c, 3, 68, 102
5, 89928, Note_on_c, 3, 68, 0
5, 89928, Note_on_c, 3, 73, 0
5, 90000, Note_on_c, 3, 73, 97
5, 90000, Note_on_c, 3, 70, 97
5, 90288, Note_on_c, 3, 70, 0
5, 90288, Note_on_c, 3, 73, 0
5, 90360, Note_on_c, 3, 68, 92
5, 90360, Note_on_c, 3, 72, 92
5, 90456, Note_on_c, 3, 72, 0
5, 90456, Note_on_c, 3, 68, 0
5, 91440, Note_on_c, 3, 80, 50
5, 91560, Note_on_c, 3, 80, 0
5, 91560, Note_on_c, 3, 75, 50
5, 91680, Note_on_c, 3, 75, 0
5, 91680, Note_on_c, 3, 78, 50
5, 91800, Note_on_c, 3, 78, 0
5, 91800, Note_on_c, 3, 77, 50
5, 92088, Note_on_c, 3, 77, 0
5, 92880, Note_on_c, 3, 80, 50
5, 93000, Note_on_c, 3, 80, 0
5, 93000, Note_on_c, 3, 75, 50
5, 93120, Note_on_c, 3, 75, 0
5, 93120, Note_on_c, 3, 78, 50
5, 93240, Note_on_c, 3, 78, 0
5, 93240, Note_on_c, 3, 77, 50
5, 93528, Note_on_c, 3, 77, 0
5, 96120, Note_on_c, 3, 70, 64
5, 96120, Note_on_c, 3, 82, 64
5, 96408, Note_on_c, 3, 82, 0
5, 96408, Note_on_c, 3, 70, 0
5, 96480, Note_on_c, 3, 70, 67
5, 96480, Note_on_c, 3, 82, 67
5, 96768, Note_on_c, 3, 82, 0
5, 96768, Note_on_c, 3, 70, 0
5, 96840, Note_on_c, 3, 72, 100
5, 96840, Note_on_c, 3, 84, 100
5, 97128, Note_on_c, 3, 84, 0
5, 97128, Note_on_c, 3, 72, 0
5, 97200, Note_on_c, 3, 73, 127
5, 97296, Note_on_c, 3, 73, 0
5, 97320, Note_on_c, 3, 65, 127
5, 97320, Note_on_c, 3, 73, 127
5, 97416, Note_on_c, 3, 73, 0
5, 97416, Note_on_c, 3, 65, 0
5, 97440, Note_on_c, 3, 65, 127
5, 97440, Note_on_c, 3, 73, 127
5, 97536, Note_on_c, 3, 65, 0
5, 97560, Note_on_c, 3, 70, 127
5, 97656, Note_on_c, 3, 70, 0
5, 97656, Note_on_c, 3, 73, 0
5, 97680, Note_on_c, 3, 66, 127
5, 97680, Note_on_c, 3, 70, 127
5, 97776, Note_on_c, 3, 70, 0
5, 97776, Note_on_c, 3, 66, 0
5, 97800, Note_on_c, 3, 66, 127
5, 97800, Note_on_c, 3, 70, 127
5, 98016, Note_on_c, 3, 70, 0
5, 98016, Note_on_c, 3, 66, 0
5, 98040, Note_on_c, 3, 66, 127
5, 98040, Note_on_c, 3, 70, 127
5, 98136, Note_on_c, 3, 70, 0
5, 98136, Note_on_c, 3, 66, 0
5, 98160, Note_on_c, 3, 66, 127
5, 98160, Note_on_c, 3, 70, 127
5, 98256, Note_on_c, 3, 70, 0
5, 98280, Note_on_c, 3, 72, 127
5, 98376, Note_on_c, 3, 72, 0
5, 98376, Note_on_c, 3, 66, 0
5, 98400, Note_on_c, 3, 66, 127
5, 98400, Note_on_c, 3, 72, 127
5, 98496, Note_on_c, 3, 72, 0
5, 98496, Note_on_c, 3, 66, 0
5, 98520, Note_on_c, 3, 66, 127
5, 98520, Note_on_c, 3, 72, 127
5, 98616, Note_on_c, 3, 72, 0
5, 98616, Note_on_c, 3, 66, 0
5, 98640, Note_on_c, 3, 65, 127
5, 98640, Note_on_c, 3, 73, 127
5, 98736, Note_on_c, 3, 73, 0
5, 98736, Note_on_c, 3, 65, 0
5, 99360, Note_on_c, 3, 65, 127
5, 99360, Note_on_c, 3, 73, 127
5, 99456, Note_on_c, 3, 73, 0
5, 99456, Note_on_c, 3, 65, 0
5, 100080, Note_on_c, 3, 65, 127
5, 100080, Note_on_c, 3, 73, 127
5, 100176, Note_on_c, 3, 73, 0
5, 100176, Note_on_c, 3, 65, 0
5, 100560, Note_on_c, 3, 73, 127
5, 100560, Note_on_c, 3, 77, 127
5, 100656, Note_on_c, 3, 77, 0
5, 100656, Note_on_c, 3, 73, 0
5, 100680, Note_on_c, 3, 73, 127
5, 100680, Note_on_c, 3, 77, 127
5, 100776, Note_on_c, 3, 77, 0
5, 100776, Note_on_c, 3, 73, 0
5, 100800, Note_on_c, 3, 68, 127
5, 100800, Note_on_c, 3, 80, 127
5, 100992, Note_on_c, 3, 80, 0
5, 100992, Note_on_c, 3, 68, 0
5, 101040, Note_on_c, 3, 60, 127
5, 101040, Note_on_c, 3, 72, 127
5, 101136, Note_on_c, 3, 72, 0
5, 101136, Note_on_c, 3, 60, 0
5, 101160, Note_on_c, 3, 80, 127
5, 101160, Note_on_c, 3, 68, 127
5, 101352, Note_on_c, 3, 68, 0
5, 101352, Note_on_c, 3, 80, 0
5, 101400, Note_on_c, 3, 72, 127
5, 101400, Note_on_c, 3, 60, 127
5, 101496, Note_on_c, 3, 60, 0
5, 101496, Note_on_c, 3, 72, 0
5, 101520, Note_on_c, 3, 80, 127
5, 101520, Note_on_c, 3, 68, 127
5, 101712, Note_on_c, 3, 68, 0
5, 101712, Note_on_c, 3, 80, 0
5, 101760, Note_on_c, 3, 73, 127
5, 101760, Note_on_c, 3, 61, 127
5, 101856, Note_on_c, 3, 61, 0
5, 101856, Note_on_c, 3, 73, 0
5, 101880, Note_on_c, 3, 68, 127
5, 101880, Note_on_c, 3, 80, 127
5, 102072, Note_on_c, 3, 80, 0
5, 102072, Note_on_c, 3, 68, 0
5, 102120, Note_on_c, 3, 60, 127
5, 102120, Note_on_c, 3, 72, 127
5, 102216, Note_on_c, 3, 72, 0
5, 102216, Note_on_c, 3, 60, 0
5, 102240, Note_on_c, 3, 68, 127
5, 102240, Note_on_c, 3, 80, 127
5, 102432, Note_on_c, 3, 80, 0
5, 102432, Note_on_c, 3, 68, 0
5, 102480, Note_on_c, 3, 61, 127
5, 102480, Note_on_c, 3, 73, 127
5, 102576, Note_on_c, 3, 73, 0
5, 102576, Note_on_c, 3, 61, 0
5, 102600, Note_on_c, 3, 80, 127
5, 102600, Note_on_c, 3, 68, 127
5, 102792, Note_on_c, 3, 68, 0
5, 102792, Note_on_c, 3, 80, 0
5, 102840, Note_on_c, 3, 72, 127
5, 102840, Note_on_c, 3, 60, 127
5, 102936, Note_on_c, 3, 60, 0
5, 102936, Note_on_c, 3, 72, 0
5, 102960, Note_on_c, 3, 65, 127
5, 102960, Note_on_c, 3, 68, 127
5, 103056, Note_on_c, 3, 68, 0
5, 103056, Note_on_c, 3, 65, 0
5, 103080, Note_on_c, 3, 65, 127
5, 103080, Note_on_c, 3, 68, 127
5, 103176, Note_on_c, 3, 68, 0
5, 103176, Note_on_c, 3, 65, 0
5, 103260, Note_on_c, 3, 65, 127
5, 103260, Note_on_c, 3, 68, 127
5, 103308, Note_on_c, 3, 68, 0
5, 103308, Note_on_c, 3, 65, 0
5, 103320, Note_on_c, 3, 65, 127
5, 103320, Note_on_c, 3, 68, 127
5, 103416, Note_on_c, 3, 68, 0
5, 103416, Note_on_c, 3, 65, 0
5, 103440, Note_on_c, 3, 65, 127
5, 103440, Note_on_c, 3, 68, 127
5, 103536, Note_on_c, 3, 68, 0
5, 103536, Note_on_c, 3, 65, 0
5, 103620, Note_on_c, 3, 65, 127
5, 103668, Note_on_c, 3, 65, 0
5, 103680, Note_on_c, 3, 63, 127
5, 103680, Note_on_c, 3, 66, 127
5, 103776, Note_on_c, 3, 66, 0
5, 103776, Note_on_c, 3, 63, 0
5, 103800, Note_on_c, 3, 63, 127
5, 103800, Note_on_c, 3, 66, 127
5, 103896, Note_on_c, 3, 66, 0
5, 103896, Note_on_c, 3, 63, 0
5, 103980, Note_on_c, 3, 63, 127
5, 103980, Note_on_c, 3, 66, 127
5, 104028, Note_on_c, 3, 66, 0
5, 104028, Note_on_c, 3, 63, 0
5, 104040, Note_on_c, 3, 63, 127
5, 104040, Note_on_c, 3, 66, 127
5, 104136, Note_on_c, 3, 66, 0
5, 104136, Note_on_c, 3, 63, 0
5, 104160, Note_on_c, 3, 63, 127
5, 104160, Note_on_c, 3, 66, 127
5, 104256, Note_on_c, 3, 66, 0
5, 104256, Note_on_c, 3, 63, 0
5, 105840, Note_on_c, 3, 61, 127
5, 105840, Note_on_c, 3, 65, 127
5, 105936, Note_on_c, 3, 65, 0
5, 105936, Note_on_c, 3, 61, 0
5, 105960, Note_on_c, 3, 61, 127
5, 105960, Note_on_c, 3, 65, 127
5, 106056, Note_on_c, 3, 65, 0
5, 106056, Note_on_c, 3, 61, 0
5, 106140, Note_on_c, 3, 61, 127
5, 106140, Note_on_c, 3, 65, 127
5, 106188, Note_on_c, 3, 65, 0
5, 106188, Note_on_c, 3, 61, 0
5, 106200, Note_on_c, 3, 65, 127
5, 106200, Note_on_c, 3, 61, 127
5, 106296, Note_on_c, 3, 61, 0
5, 106296, Note_on_c, 3, 65, 0
5, 106320, Note_on_c, 3, 65, 127
5, 106320, Note_on_c, 3, 61, 127
5, 106416, Note_on_c, 3, 61, 0
5, 106416, Note_on_c, 3, 65, 0
5, 106500, Note_on_c, 3, 61, 127
5, 106500, Note_on_c, 3, 65, 127
5, 106548, Note_on_c, 3, 65, 0
5, 106548, Note_on_c, 3, 61, 0
5, 106560, Note_on_c, 3, 65, 127
5, 106560, Note_on_c, 3, 60, 127
5, 106656, Note_on_c, 3, 60, 0
5, 106656, Note_on_c, 3, 65, 0
5, 106680, Note_on_c, 3, 65, 127
5, 106680, Note_on_c, 3, 60, 127
5, 106776, Note_on_c, 3, 60, 0
5, 106776, Note_on_c, 3, 65, 0
5, 106860, Note_on_c, 3, 60, 127
5, 106860, Note_on_c, 3, 65, 127
5, 106908, Note_on_c, 3, 65, 0
5, 106908, Note_on_c, 3, 60, 0
5, 106920, Note_on_c, 3, 60, 127
5, 106920, Note_on_c, 3, 65, 127
5, 107016, Note_on_c, 3, 65, 0
5, 107016, Note_on_c, 3, 60, 0
5, 107040, Note_on_c, 3, 60, 127
5, 107040, Note_on_c, 3, 65, 127
5, 107136, Note_on_c, 3, 65, 0
5, 107136, Note_on_c, 3, 60, 0
5, 110520, Note_on_c, 3, 65, 50
5, 111240, Note_on_c, 3, 68, 50
5, 111888, Note_on_c, 3, 68, 0
5, 111960, Note_on_c, 3, 67, 50
5, 112608, Note_on_c, 3, 67, 0
5, 112608, Note_on_c, 3, 65, 0
5, 112680, Note_on_c, 3, 64, 50
5, 112680, Note_on_c, 3, 67, 50
5, 113400, Note_on_c, 3, 67, 0
5, 113400, Note_on_c, 3, 64, 0
5, 113400, Note_on_c, 3, 64, 50
5, 113400, Note_on_c, 3, 67, 50
5, 113784, Note_on_c, 3, 67, 0
5, 113784, Note_on_c, 3, 64, 0
5, 113880, Note_on_c, 3, 64, 50
5, 113880, Note_on_c, 3, 67, 50
5, 114264, Note_on_c, 3, 67, 0
5, 114264, Note_on_c, 3, 64, 0
5, 114360, Note_on_c, 3, 65, 50
5, 114360, Note_on_c, 3, 68, 50
5, 114744, Note_on_c, 3, 68, 0
5, 114744, Note_on_c, 3, 65, 0
5, 114840, Note_on_c, 3, 65, 50
5, 114840, Note_on_c, 3, 68, 50
5, 115224, Note_on_c, 3, 68, 0
5, 115224, Note_on_c, 3, 65, 0
5, 115320, Note_on_c, 3, 67, 58
5, 115320, Note_on_c, 3, 70, 58
5, 115512, Note_on_c, 3, 70, 0
5, 115512, Note_on_c, 3, 67, 0
5, 115560, Note_on_c, 3, 67, 67
5, 115560, Note_on_c, 3, 70, 67
5, 115752, Note_on_c, 3, 70, 0
5, 115752, Note_on_c, 3, 67, 0
5, 115800, Note_on_c, 3, 65, 75
5, 115800, Note_on_c, 3, 69, 75
5, 115992, Note_on_c, 3, 69, 0
5, 115992, Note_on_c, 3, 65, 0
5, 116040, Note_on_c, 3, 65, 84
5, 116040, Note_on_c, 3, 69, 84
5, 116232, Note_on_c, 3, 69, 0
5, 116232, Note_on_c, 3, 65, 0
5, 116280, Note_on_c, 3, 64, 93
5, 116280, Note_on_c, 3, 67, 93
5, 116472, Note_on_c, 3, 67, 0
5, 116472, Note_on_c, 3, 64, 0
5, 116520, Note_on_c, 3, 69, 101
5, 116520, Note_on_c, 3, 65, 101
5, 116712, Note_on_c, 3, 65, 0
5, 116712, Note_on_c, 3, 69, 0
5, 116760, Note_on_c, 3, 67, 110
5, 116760, Note_on_c, 3, 70, 110
5, 116820, Note_on_c, 3, 70, 0
5, 116820, Note_on_c, 3, 67, 0
5, 116820, Note_on_c, 3, 66, 112
5, 116820, Note_on_c, 3, 69, 112
5, 116856, Note_on_c, 3, 69, 0
5, 116856, Note_on_c, 3, 66, 0
5, 116880, Note_on_c, 3, 67, 114
5, 116880, Note_on_c, 3, 70, 114
5, 116916, Note_on_c, 3, 70, 0
5, 116916, Note_on_c, 3, 67, 0
5, 116940, Note_on_c, 3, 72, 116
5, 116940, Note_on_c, 3, 69, 116
5, 116976, Note_on_c, 3, 69, 0
5, 116976, Note_on_c, 3, 72, 0
5, 117000, Note_on_c, 3, 70, 118
5, 117000, Note_on_c, 3, 74, 118
5, 117036, Note_on_c, 3, 74, 0
5, 117036, Note_on_c, 3, 70, 0
5, 117060, Note_on_c, 3, 76, 121
5, 117060, Note_on_c, 3, 72, 121
5, 117096, Note_on_c, 3, 72, 0
5, 117096, Note_on_c, 3, 76, 0
5, 117120, Note_on_c, 3, 74, 123
5, 117120, Note_on_c, 3, 77, 123
5, 117156, Note_on_c, 3, 77, 0
5, 117156, Note_on_c, 3, 74, 0
5, 117180, Note_on_c, 3, 76, 125
5, 117180, Note_on_c, 3, 79, 125
5, 117216, Note_on_c, 3, 79, 0
5, 117216, Note_on_c, 3, 76, 0
5, 117240, Note_on_c, 3, 77, 127
5, 117240, Note_on_c, 3, 81, 127
5, 117540, Note_on_c, 3, 81, 0
5, 117540, Note_on_c, 3, 77, 0
5, 117540, Note_on_c, 3, 76, 127
5, 117540, Note_on_c, 3, 79, 127
5, 117576, Note_on_c, 3, 79, 0
5, 117576, Note_on_c, 3, 76, 0
5, 117600, Note_on_c, 3, 72, 127
5, 117600, Note_on_c, 3, 77, 127
5, 117636, Note_on_c, 3, 77, 0
5, 117636, Note_on_c, 3, 72, 0
5, 117660, Note_on_c, 3, 76, 127
5, 117660, Note_on_c, 3, 79, 127
5, 117696, Note_on_c, 3, 79, 0
5, 117696, Note_on_c, 3, 76, 0
5, 117720, Note_on_c, 3, 81, 127
5, 117720, Note_on_c, 3, 77, 127
5, 118020, Note_on_c, 3, 77, 0
5, 118020, Note_on_c, 3, 81, 0
5, 118020, Note_on_c, 3, 79, 127
5, 118020, Note_on_c, 3, 76, 127
5, 118056, Note_on_c, 3, 76, 0
5, 118056, Note_on_c, 3, 79, 0
5, 118080, Note_on_c, 3, 77, 127
5, 118080, Note_on_c, 3, 72, 127
5, 118116, Note_on_c, 3, 72, 0
5, 118116, Note_on_c, 3, 77, 0
5, 118140, Note_on_c, 3, 79, 127
5, 118140, Note_on_c, 3, 76, 127
5, 118176, Note_on_c, 3, 76, 0
5, 118176, Note_on_c, 3, 79, 0
5, 118200, Note_on_c, 3, 81, 127
5, 118200, Note_on_c, 3, 77, 127
5, 118260, Note_on_c, 3, 77, 0
5, 118260, Note_on_c, 3, 81, 0
5, 118260, Note_on_c, 3, 79, 127
5, 118260, Note_on_c, 3, 76, 127
5, 118308, Note_on_c, 3, 76, 0
5, 118308, Note_on_c, 3, 79, 0
5, 118320, Note_on_c, 3, 77, 127
5, 118320, Note_on_c, 3, 72, 127
5, 118368, Note_on_c, 3, 72, 0
5, 118368, Note_on_c, 3, 77, 0
5, 118380, Note_on_c, 3, 79, 127
5, 118380, Note_on_c, 3, 76, 127
5, 118428, Note_on_c, 3, 76, 0
5, 118428, Note_on_c, 3, 79, 0
5, 118440, Note_on_c, 3, 77, 127
5, 118440, Note_on_c, 3, 81, 127
5, 118500, Note_on_c, 3, 81, 0
5, 118500, Note_on_c, 3, 77, 0
5, 118500, Note_on_c, 3, 76, 127
5, 118500, Note_on_c, 3, 79, 127
5, 118548, Note_on_c, 3, 79, 0
5, 118548, Note_on_c, 3, 76, 0
5, 118560, Note_on_c, 3, 72, 127
5, 118560, Note_on_c, 3, 77, 127
5, 118608, Note_on_c, 3, 77, 0
5, 118608, Note_on_c, 3, 72, 0
5, 118620, Note_on_c, 3, 76, 127
5, 118620, Note_on_c, 3, 79, 127
5, 118668, Note_on_c, 3, 79, 0
5, 118668, Note_on_c, 3, 76, 0
5, 118680, Note_on_c, 3, 77, 127
5, 118680, Note_on_c, 3, 81, 127
5, 118740, Note_on_c, 3, 81, 0
5, 118740, Note_on_c, 3, 77, 0
5, 118740, Note_on_c, 3, 76, 127
5, 118740, Note_on_c, 3, 79, 127
5, 118788, Note_on_c, 3, 79, 0
5, 118788, Note_on_c, 3, 76, 0
5, 118800, Note_on_c, 3, 72, 127
5, 118800, Note_on_c, 3, 77, 127
5, 118848, Note_on_c, 3, 77, 0
5, 118848, Note_on_c, 3, 72, 0
5, 118860, Note_on_c, 3, 76, 127
5, 118860, Note_on_c, 3, 79, 127
5, 118908, Note_on_c, 3, 79, 0
5, 118908, Note_on_c, 3, 76, 0
5, 118920, Note_on_c, 3, 77, 127
5, 118920, Note_on_c, 3, 81, 127
5, 118980, Note_on_c, 3, 81, 0
5, 118980, Note_on_c, 3, 77, 0
5, 118980, Note_on_c, 3, 76, 127
5, 118980, Note_on_c, 3, 79, 127
5, 119028, Note_on_c, 3, 79, 0
5, 119028, Note_on_c, 3, 76, 0
5, 119040, Note_on_c, 3, 72, 127
5, 119040, Note_on_c, 3, 77, 127
5, 119088, Note_on_c, 3, 77, 0
5, 119088, Note_on_c, 3, 72, 0
5, 119100, Note_on_c, 3, 76, 127
5, 119100, Note_on_c, 3, 79, 127
5, 119148, Note_on_c, 3, 79, 0
5, 119148, Note_on_c, 3, 76, 0
5, 119160, Note_on_c, 3, 77, 127
5, 119160, Note_on_c, 3, 81, 127
5, 119208, Note_on_c, 3, 81, 0
5, 119208, Note_on_c, 3, 77, 0
5, 119220, Note_on_c, 3, 67, 127
5, 119220, Note_on_c, 3, 79, 127
5, 119268, Note_on_c, 3, 79, 0
5, 119268, Note_on_c, 3, 67, 0
5, 119280, Note_on_c, 3, 65, 127
5, 119280, Note_on_c, 3, 77, 127
5, 119328, Note_on_c, 3, 77, 0
5, 119328, Note_on_c, 3, 65, 0
5, 119340, Note_on_c, 3, 64, 127
5, 119340, Note_on_c, 3, 76, 127
5, 119388, Note_on_c, 3, 76, 0
5, 119388, Note_on_c, 3, 64, 0
5, 119400, Note_on_c, 3, 65, 127
5, 119400, Note_on_c, 3, 77, 127
5, 119448, Note_on_c, 3, 77, 0
5, 119448, Note_on_c, 3, 65, 0
5, 119460, Note_on_c, 3, 64, 127
5, 119460, Note_on_c, 3, 76, 127
5, 119508, Note_on_c, 3, 76, 0
5, 119508, Note_on_c, 3, 64, 0
5, 119520, Note_on_c, 3, 62, 127
5, 119520, Note_on_c, 3, 74, 127
5, 119568, Note_on_c, 3, 74, 0
5, 119568, Note_on_c, 3, 62, 0
5, 119580, Note_on_c, 3, 73, 127
5, 119628, Note_on_c, 3, 73, 0
5, 119640, Note_on_c, 3, 74, 127
5, 119688, Note_on_c, 3, 74, 0
5, 119700, Note_on_c, 3, 72, 127
5, 119748, Note_on_c, 3, 72, 0
5, 119760, Note_on_c, 3, 70, 127
5, 119808, Note_on_c, 3, 70, 0
5, 119820, Note_on_c, 3, 69, 127
5, 119868, Note_on_c, 3, 69, 0
5, 119880, Note_on_c, 3, 70, 127
5, 119928, Note_on_c, 3, 70, 0
5, 119940, Note_on_c, 3, 67, 127
5, 119988, Note_on_c, 3, 67, 0
5, 120000, Note_on_c, 3, 72, 127
5, 120048, Note_on_c, 3, 72, 0
5, 120060, Note_on_c, 3, 72, 127
5, 120108, Note_on_c, 3, 72, 0
5, 120120, Note_on_c, 3, 81, 127
5, 120120, Note_on_c, 3, 77, 127
5, 120420, Note_on_c, 3, 77, 0
5, 120420, Note_on_c, 3, 81, 0
5, 120420, Note_on_c, 3, 79, 127
5, 120420, Note_on_c, 3, 76, 127
5, 120456, Note_on_c, 3, 76, 0
5, 120456, Note_on_c, 3, 79, 0
5, 120480, Note_on_c, 3, 77, 127
5, 120480, Note_on_c, 3, 72, 127
5, 120516, Note_on_c, 3, 72, 0
5, 120516, Note_on_c, 3, 77, 0
5, 120540, Note_on_c, 3, 79, 127
5, 120540, Note_on_c, 3, 76, 127
5, 120576, Note_on_c, 3, 76, 0
5, 120576, Note_on_c, 3, 79, 0
5, 120600, Note_on_c, 3, 77, 127
5, 120600, Note_on_c, 3, 81, 127
5, 120900, Note_on_c, 3, 81, 0
5, 120900, Note_on_c, 3, 77, 0
5, 120900, Note_on_c, 3, 76, 127
5, 120900, Note_on_c, 3, 79, 127
5, 120936, Note_on_c, 3, 79, 0
5, 120936, Note_on_c, 3, 76, 0
5, 120960, Note_on_c, 3, 72, 127
5, 120960, Note_on_c, 3, 77, 127
5, 120996, Note_on_c, 3, 77, 0
5, 120996, Note_on_c, 3, 72, 0
5, 121020, Note_on_c, 3, 76, 127
5, 121020, Note_on_c, 3, 79, 127
5, 121056, Note_on_c, 3, 79, 0
5, 121056, Note_on_c, 3, 76, 0
5, 121080, Note_on_c, 3, 77, 127
5, 121080, Note_on_c, 3, 81, 127
5, 121140, Note_on_c, 3, 81, 0
5, 121140, Note_on_c, 3, 77, 0
5, 121140, Note_on_c, 3, 76, 127
5, 121140, Note_on_c, 3, 79, 127
5, 121188, Note_on_c, 3, 79, 0
5, 121188, Note_on_c, 3, 76, 0
5, 121200, Note_on_c, 3, 72, 127
5, 121200, Note_on_c, 3, 77, 127
5, 121248, Note_on_c, 3, 77, 0
5, 121248, Note_on_c, 3, 72, 0
5, 121260, Note_on_c, 3, 76, 127
5, 121260, Note_on_c, 3, 79, 127
5, 121308, Note_on_c, 3, 79, 0
5, 121308, Note_on_c, 3, 76, 0
5, 121320, Note_on_c, 3, 81, 127
5, 121320, Note_on_c, 3, 77, 127
5, 121380, Note_on_c, 3, 77, 0
5, 121380, Note_on_c, 3, 81, 0
5, 121380, Note_on_c, 3, 79, 127
5, 121380, Note_on_c, 3, 76, 127
5, 121428, Note_on_c, 3, 76, 0
5, 121428, Note_on_c, 3, 79, 0
5, 121440, Note_on_c, 3, 77, 127
5, 121440, Note_on_c, 3, 72, 127
5, 121488, Note_on_c, 3, 72, 0
5, 121488, Note_on_c, 3, 77, 0
5, 121500, Note_on_c, 3, 79, 127
5, 121500, Note_on_c, 3, 76, 127
5, 121548, Note_on_c, 3, 76, 0
5, 121548, Note_on_c, 3, 79, 0
5, 121560, Note_on_c, 3, 81, 127
5, 121560, Note_on_c, 3, 77, 127
5, 121620, Note_on_c, 3, 77, 0
5, 121620, Note_on_c, 3, 81, 0
5, 121620, Note_on_c, 3, 79, 127
5, 121620, Note_on_c, 3, 76, 127
5, 121668, Note_on_c, 3, 76, 0
5, 121668, Note_on_c, 3, 79, 0
5, 121680, Note_on_c, 3, 77, 127
5, 121680, Note_on_c, 3, 72, 127
5, 121728, Note_on_c, 3, 72, 0
5, 121728, Note_on_c, 3, 77, 0
5, 121740, Note_on_c, 3, 79, 127
5, 121740, Note_on_c, 3, 76, 127
5, 121788, Note_on_c, 3, 76, 0
5, 121788, Note_on_c, 3, 79, 0
5, 121800, Note_on_c, 3, 81, 127
5, 121800, Note_on_c, 3, 77, 127
5, 121860, Note_on_c, 3, 77, 0
5, 121860, Note_on_c, 3, 81, 0
5, 121860, Note_on_c, 3, 79, 127
5, 121860, Note_on_c, 3, 76, 127
5, 121908, Note_on_c, 3, 76, 0
5, 121908, Note_on_c, 3, 79, 0
5, 121920, Note_on_c, 3, 77, 127
5, 121920, Note_on_c, 3, 72, 127
5, 121968, Note_on_c, 3, 72, 0
5, 121968, Note_on_c, 3, 77, 0
5, 121980, Note_on_c, 3, 79, 127
5, 121980, Note_on_c, 3, 76, 127
5, 122028, Note_on_c, 3, 76, 0
5, 122028, Note_on_c, 3, 79, 0
5, 122040, Note_on_c, 3, 81, 127
5, 122040, Note_on_c, 3, 77, 127
5, 122088, Note_on_c, 3, 77, 0
5, 122088, Note_on_c, 3, 81, 0
5, 122100, Note_on_c, 3, 79, 127
5, 122100, Note_on_c, 3, 67, 127
5, 122148, Note_on_c, 3, 67, 0
5, 122148, Note_on_c, 3, 79, 0
5, 122160, Note_on_c, 3, 77, 127
5, 122160, Note_on_c, 3, 65, 127
5, 122208, Note_on_c, 3, 65, 0
5, 122208, Note_on_c, 3, 77, 0
5, 122220, Note_on_c, 3, 76, 127
5, 122220, Note_on_c, 3, 64, 127
5, 122268, Note_on_c, 3, 64, 0
5, 122268, Note_on_c, 3, 76, 0
5, 122280, Note_on_c, 3, 77, 127
5, 122280, Note_on_c, 3, 65, 127
5, 122328, Note_on_c, 3, 65, 0
5, 122328, Note_on_c, 3, 77, 0
5, 122340, Note_on_c, 3, 76, 127
5, 122340, Note_on_c, 3, 64, 127
5, 122388, Note_on_c, 3, 64, 0
5, 122388, Note_on_c, 3, 76, 0
5, 122400, Note_on_c, 3, 74, 127
5, 122400, Note_on_c, 3, 62, 127
5, 122448, Note_on_c, 3, 62, 0
5, 122448, Note_on_c, 3, 74, 0
5, 122460, Note_on_c, 3, 73, 127
5, 122508, Note_on_c, 3, 73, 0
5, 122520, Note_on_c, 3, 74, 127
5, 122568, Note_on_c, 3, 74, 0
5, 122580, Note_on_c, 3, 72, 127
5, 122628, Note_on_c, 3, 72, 0
5, 122640, Note_on_c, 3, 70, 127
5, 122688, Note_on_c, 3, 70, 0
5, 122700, Note_on_c, 3, 69, 127
5, 122748, Note_on_c, 3, 69, 0
5, 122760, Note_on_c, 3, 70, 127
5, 122808, Note_on_c, 3, 70, 0
5, 122820, Note_on_c, 3, 67, 127
5, 122868, Note_on_c, 3, 67, 0
5, 122880, Note_on_c, 3, 72, 127
5, 122928, Note_on_c, 3, 72, 0
5, 122940, Note_on_c, 3, 72, 127
5, 122988, Note_on_c, 3, 72, 0
5, 123000, Note_on_c, 3, 65, 127
5, 123096, Note_on_c, 3, 65, 0
5, 125940, Note_on_c, 3, 69, 127
5, 125970, Note_on_c, 3, 69, 0
5, 125970, Note_on_c, 3, 70, 127
5, 125994, Note_on_c, 3, 70, 0
5, 126000, Note_on_c, 3, 72, 127
5, 126048, Note_on_c, 3, 72, 0
5, 126180, Note_on_c, 3, 69, 127
5, 126196, Note_on_c, 3, 69, 0
5, 126200, Note_on_c, 3, 70, 127
5, 126216, Note_on_c, 3, 70, 0
5, 126220, Note_on_c, 3, 72, 127
5, 126236, Note_on_c, 3, 72, 0
5, 126240, Note_on_c, 3, 74, 127
5, 126288, Note_on_c, 3, 74, 0
5, 126420, Note_on_c, 3, 67, 127
5, 126450, Note_on_c, 3, 67, 0
5, 126450, Note_on_c, 3, 69, 127
5, 126474, Note_on_c, 3, 69, 0
5, 126480, Note_on_c, 3, 70, 127
5, 126528, Note_on_c, 3, 70, 0
5, 126660, Note_on_c, 3, 67, 127
5, 126680, Note_on_c, 3, 67, 0
5, 126680, Note_on_c, 3, 69, 127
5, 126700, Note_on_c, 3, 69, 0
5, 126700, Note_on_c, 3, 70, 127
5, 126716, Note_on_c, 3, 70, 0
5, 126720, Note_on_c, 3, 72, 127
5, 126768, Note_on_c, 3, 72, 0
5, 126780, Note_on_c, 3, 72, 127
5, 126828, Note_on_c, 3, 72, 0
5, 126840, Note_on_c, 3, 65, 127
5, 126840, Note_on_c, 3, 77, 127
5, 126960, Note_on_c, 3, 77, 0
5, 126960, Note_on_c, 3, 65, 0
5, 126960, Note_on_c, 3, 63, 127
5, 126960, Note_on_c, 3, 75, 127
5, 127080, Note_on_c, 3, 75, 0
5, 127080, Note_on_c, 3, 63, 0
5, 127080, Note_on_c, 3, 62, 127
5, 127080, Note_on_c, 3, 74, 127
5, 127200, Note_on_c, 3, 74, 0
5, 127200, Note_on_c, 3, 62, 0
5, 127200, Note_on_c, 3, 66, 127
5, 127200, Note_on_c, 3, 78, 127
5, 127296, Note_on_c, 3, 78, 0
5, 127296, Note_on_c, 3, 66, 0
5, 127320, Note_on_c, 3, 67, 127
5, 127320, Note_on_c, 3, 79, 127
5, 127440, Note_on_c, 3, 79, 0
5, 127440, Note_on_c, 3, 67, 0
5, 127440, Note_on_c, 3, 61, 127
5, 127440, Note_on_c, 3, 73, 127
5, 127560, Note_on_c, 3, 73, 0
5, 127560, Note_on_c, 3, 61, 0
5, 127560, Note_on_c, 3, 60, 127
5, 127560, Note_on_c, 3, 72, 127
5, 127680, Note_on_c, 3, 72, 0
5, 127680, Note_on_c, 3, 60, 0
5, 127680, Note_on_c, 3, 64, 127
5, 127680, Note_on_c, 3, 76, 127
5, 127776, Note_on_c, 3, 76, 0
5, 127776, Note_on_c, 3, 64, 0
5, 127800, Note_on_c, 3, 65, 127
5, 127992, Note_on_c, 3, 65, 0
5, 128040, Note_on_c, 3, 67, 127
5, 128232, Note_on_c, 3, 67, 0
5, 128280, Note_on_c, 3, 69, 127
5, 128472, Note_on_c, 3, 69, 0
5, 128520, Note_on_c, 3, 70, 127
5, 128712, Note_on_c, 3, 70, 0
5, 128760, Note_on_c, 3, 71, 127
5, 128856, Note_on_c, 3, 71, 0
5, 128880, Note_on_c, 3, 72, 127
5, 129624, Note_on_c, 3, 72, 0
5, 129720, Note_on_c, 3, 67, 127
5, 129720, Note_on_c, 3, 76, 127
5, 129816, Note_on_c, 3, 76, 0
5, 129816, Note_on_c, 3, 67, 0
5, 129840, Note_on_c, 3, 76, 127
5, 129840, Note_on_c, 3, 67, 127
5, 129936, Note_on_c, 3, 67, 0
5, 129936, Note_on_c, 3, 76, 0
5, 129960, Note_on_c, 3, 76, 127
5, 129960, Note_on_c, 3, 67, 127
5, 130056, Note_on_c, 3, 67, 0
5, 130056, Note_on_c, 3, 76, 0
5, 130080, Note_on_c, 3, 76, 127
5, 130080, Note_on_c, 3, 67, 127
5, 130176, Note_on_c, 3, 67, 0
5, 130176, Note_on_c, 3, 76, 0
5, 130200, Note_on_c, 3, 76, 127
5, 130200, Note_on_c, 3, 67, 127
5, 130296, Note_on_c, 3, 67, 0
5, 130296, Note_on_c, 3, 76, 0
5, 130320, Note_on_c, 3, 76, 127
5, 130320, Note_on_c, 3, 67, 127
5, 130416, Note_on_c, 3, 67, 0
5, 130416, Note_on_c, 3, 76, 0
5, 130440, Note_on_c, 3, 76, 127
5, 130440, Note_on_c, 3, 67, 127
5, 130536, Note_on_c, 3, 67, 0
5, 130536, Note_on_c, 3, 76, 0
5, 130560, Note_on_c, 3, 76, 127
5, 130560, Note_on_c, 3, 67, 127
5, 130656, Note_on_c, 3, 67, 0
5, 130656, Note_on_c, 3, 76, 0
5, 130680, Note_on_c, 3, 65, 127
5, 130824, Note_on_c, 3, 65, 0
5, 130860, Note_on_c, 3, 65, 127
5, 130908, Note_on_c, 3, 65, 0
5, 130920, Note_on_c, 3, 67, 127
5, 131064, Note_on_c, 3, 67, 0
5, 131100, Note_on_c, 3, 67, 127
5, 131148, Note_on_c, 3, 67, 0
5, 131160, Note_on_c, 3, 69, 127
5, 131304, Note_on_c, 3, 69, 0
5, 131340, Note_on_c, 3, 69, 127
5, 131388, Note_on_c, 3, 69, 0
5, 131400, Note_on_c, 3, 70, 127
5, 131544, Note_on_c, 3, 70, 0
5, 131580, Note_on_c, 3, 70, 127
5, 131628, Note_on_c, 3, 70, 0
5, 131640, Note_on_c, 3, 71, 127
5, 131736, Note_on_c, 3, 71, 0
5, 131760, Note_on_c, 3, 72, 127
5, 132504, Note_on_c, 3, 72, 0
5, 132600, Note_on_c, 3, 76, 127
5, 132600, Note_on_c, 3, 67, 127
5, 132696, Note_on_c, 3, 67, 0
5, 132696, Note_on_c, 3, 76, 0
5, 132720, Note_on_c, 3, 67, 127
5, 132720, Note_on_c, 3, 76, 127
5, 132816, Note_on_c, 3, 76, 0
5, 132816, Note_on_c, 3, 67, 0
5, 132840, Note_on_c, 3, 67, 127
5, 132840, Note_on_c, 3, 76, 127
5, 132936, Note_on_c, 3, 76, 0
5, 132936, Note_on_c, 3, 67, 0
5, 132960, Note_on_c, 3, 67, 127
5, 132960, Note_on_c, 3, 76, 127
5, 133056, Note_on_c, 3, 76, 0
5, 133056, Note_on_c, 3, 67, 0
5, 133080, Note_on_c, 3, 67, 127
5, 133080, Note_on_c, 3, 76, 127
5, 133176, Note_on_c, 3, 76, 0
5, 133176, Note_on_c, 3, 67, 0
5, 133200, Note_on_c, 3, 67, 127
5, 133200, Note_on_c, 3, 76, 127
5, 133296, Note_on_c, 3, 76, 0
5, 133296, Note_on_c, 3, 67, 0
5, 133320, Note_on_c, 3, 67, 127
5, 133320, Note_on_c, 3, 76, 127
5, 133416, Note_on_c, 3, 76, 0
5, 133416, Note_on_c, 3, 67, 0
5, 133440, Note_on_c, 3, 67, 127
5, 133440, Note_on_c, 3, 76, 127
5, 133536, Note_on_c, 3, 76, 0
5, 133536, Note_on_c, 3, 67, 0
5, 133560, Note_on_c, 3, 65, 127
5, 133560, Note_on_c, 3, 69, 127
5, 133752, Note_on_c, 3, 69, 0
5, 133752, Note_on_c, 3, 65, 0
5, 133800, Note_on_c, 3, 65, 127
5, 133800, Note_on_c, 3, 69, 127
5, 134712, Note_on_c, 3, 69, 0
5, 134712, Note_on_c, 3, 65, 0
5, 134760, Note_on_c, 3, 69, 127
5, 134760, Note_on_c, 3, 77, 127
5, 135672, Note_on_c, 3, 77, 0
5, 135672, Note_on_c, 3, 69, 0
5, 135720, Note_on_c, 3, 65, 127
5, 135720, Note_on_c, 3, 69, 127
5, 135912, Note_on_c, 3, 69, 0
5, 135912, Note_on_c, 3, 65, 0
5, 135960, Note_on_c, 3, 64, 127
5, 135960, Note_on_c, 3, 67, 127
5, 136248, Note_on_c, 3, 67, 0
5, 136248, Note_on_c, 3, 64, 0
5, 136320, Note_on_c, 3, 64, 127
5, 136320, Note_on_c, 3, 67, 127
5, 136416, Note_on_c, 3, 67, 0
5, 136416, Note_on_c, 3, 64, 0
5, 136440, Note_on_c, 3, 65, 127
5, 136440, Note_on_c, 3, 69, 127
5, 136632, Note_on_c, 3, 69, 0
5, 136632, Note_on_c, 3, 65, 0
5, 136680, Note_on_c, 3, 65, 127
5, 136680, Note_on_c, 3, 69, 127
5, 136872, Note_on_c, 3, 69, 0
5, 136872, Note_on_c, 3, 65, 0
5, 136920, Note_on_c, 3, 67, 127
5, 136920, Note_on_c, 3, 64, 127
5, 137208, Note_on_c, 3, 64, 0
5, 137208, Note_on_c, 3, 67, 0
5, 137280, Note_on_c, 3, 67, 127
5, 137280, Note_on_c, 3, 64, 127
5, 137376, Note_on_c, 3, 64, 0
5, 137376, Note_on_c, 3, 67, 0
5, 137400, Note_on_c, 3, 69, 127
5, 137400, Note_on_c, 3, 65, 127
5, 137592, Note_on_c, 3, 65, 0
5, 137592, Note_on_c, 3, 69, 0
5, 137640, Note_on_c, 3, 69, 127
5, 137640, Note_on_c, 3, 65, 127
5, 137832, Note_on_c, 3, 65, 0
5, 137832, Note_on_c, 3, 69, 0
5, 137880, Note_on_c, 3, 64, 127
5, 137880, Note_on_c, 3, 67, 127
5, 138168, Note_on_c, 3, 67, 0
5, 138168, Note_on_c, 3, 64, 0
5, 138240, Note_on_c, 3, 64, 127
5, 138240, Note_on_c, 3, 67, 127
5, 138336, Note_on_c, 3, 67, 0
5, 138336, Note_on_c, 3, 64, 0
5, 138360, Note_on_c, 3, 64, 127
5, 138360, Note_on_c, 3, 67, 127
5, 138648, Note_on_c, 3, 67, 0
5, 138648, Note_on_c, 3, 64, 0
5, 138720, Note_on_c, 3, 64, 127
5, 138720, Note_on_c, 3, 67, 127
5, 138816, Note_on_c, 3, 67, 0
5, 138816, Note_on_c, 3, 64, 0
5, 138840, Note_on_c, 3, 67, 127
5, 138840, Note_on_c, 3, 64, 127
5, 139128, Note_on_c, 3, 64, 0
5, 139128, Note_on_c, 3, 67, 0
5, 139200, Note_on_c, 3, 67, 127
5, 139200, Note_on_c, 3, 64, 127
5, 139296, Note_on_c, 3, 64, 0
5, 139296, Note_on_c, 3, 67, 0
5, 139320, Note_on_c, 3, 72, 127
5, 139320, Note_on_c, 3, 84, 127
5, 140184, Note_on_c, 3, 84, 0
5, 140184, Note_on_c, 3, 72, 0
5, 140280, Note_on_c, 3, 77, 127
5, 140280, Note_on_c, 3, 81, 127
5, 140376, Note_on_c, 3, 81, 0
5, 140376, Note_on_c, 3, 77, 0
5, 140760, Note_on_c, 3, 69, 127
5, 140760, Note_on_c, 3, 77, 127
5, 140856, Note_on_c, 3, 77, 0
5, 140856, Note_on_c, 3, 69, 0
5, 141240, Note_on_c, 3, 69, 127
5, 141240, Note_on_c, 3, 77, 127
5, 141336, Note_on_c, 3, 77, 0
5, 141336, Note_on_c, 3, 69, 0
5, 141720, Note_on_c, 3, 69, 127
5, 141720, Note_on_c, 3, 77, 127
5, 141816, Note_on_c, 3, 77, 0
5, 141816, Note_on_c, 3, 69, 0
5, 141960, Note_on_c, 3, 77, 127
5, 141960, Note_on_c, 3, 69, 127
5, 142056, Note_on_c, 3, 69, 0
5, 142056, Note_on_c, 3, 77, 0
5, 142200, Note_on_c, 3, 69, 127
5, 142200, Note_on_c, 3, 77, 127
5, 142296, Note_on_c, 3, 77, 0
5, 142296, Note_on_c, 3, 69, 0
5, 142296, End_track
6, 0, Start_track
6, 0, Title_t, "2 Fagotti"
6, 0, Program_c, 4, 70
6, 0, Control_c, 4, 7, 127
6, 0, Control_c, 4, 10, 70
6, 1440, Note_on_c, 4, 41, 127
6, 1440, Note_on_c, 4, 53, 127
6, 2016, Note_on_c, 4, 53, 0
6, 2016, Note_on_c, 4, 41, 0
6, 5400, Note_on_c, 4, 60, 50
6, 5520, Note_on_c, 4, 60, 0
6, 5520, Note_on_c, 4, 59, 50
6, 5640, Note_on_c, 4, 59, 0
6, 5640, Note_on_c, 4, 67, 50
6, 5640, Note_on_c, 4, 59, 50
6, 5760, Note_on_c, 4, 59, 0
6, 5760, Note_on_c, 4, 67, 0
6, 5760, Note_on_c, 4, 67, 50
6, 5760, Note_on_c, 4, 59, 50
6, 6000, Note_on_c, 4, 59, 0
6, 6000, Note_on_c, 4, 60, 50
6, 6096, Note_on_c, 4, 60, 0
6, 6096, Note_on_c, 4, 67, 0
6, 6840, Note_on_c, 4, 55, 50
6, 6840, Note_on_c, 4, 61, 50
6, 7080, Note_on_c, 4, 61, 0
6, 7080, Note_on_c, 4, 60, 63
6, 7176, Note_on_c, 4, 60, 0
6, 7176, Note_on_c, 4, 55, 0
6, 7200, Note_on_c, 4, 41, 70
6, 7200, Note_on_c, 4, 53, 70
6, 7776, Note_on_c, 4, 53, 0
6, 7776, Note_on_c, 4, 41, 0
6, 7920, Note_on_c, 4, 41, 127
6, 7920, Note_on_c, 4, 53, 127
6, 8112, Note_on_c, 4, 53, 0
6, 8112, Note_on_c, 4, 41, 0
6, 8160, Note_on_c, 4, 41, 127
6, 8160, Note_on_c, 4, 53, 127
6, 8352, Note_on_c, 4, 53, 0
6, 8352, Note_on_c, 4, 41, 0
6, 8580, Note_on_c, 4, 41, 127
6, 8580, Note_on_c, 4, 53, 127
6, 8628, Note_on_c, 4, 53, 0
6, 8628, Note_on_c, 4, 41, 0
6, 8640, Note_on_c, 4, 39, 127
6, 8640, Note_on_c, 4, 51, 127
6, 8832, Note_on_c, 4, 51, 0
6, 8832, Note_on_c, 4, 39, 0
6, 8880, Note_on_c, 4, 44, 127
6, 8880, Note_on_c, 4, 56, 127
6, 9072, Note_on_c, 4, 56, 0
6, 9072, Note_on_c, 4, 44, 0
6, 9720, Note_on_c, 4, 61, 50
6, 9840, Note_on_c, 4, 61, 0
6, 9840, Note_on_c, 4, 60, 50
6, 9960, Note_on_c, 4, 60, 0
6, 9960, Note_on_c, 4, 58, 50
6, 9960, Note_on_c, 4, 61, 50
6, 10056, Note_on_c, 4, 61, 0
6, 10080, Note_on_c, 4, 58, 0
6, 10080, Note_on_c, 4, 56, 50
6, 10080, Note_on_c, 4, 61, 50
6, 10200, Note_on_c, 4, 61, 0
6, 10200, Note_on_c, 4, 66, 50
6, 10320, Note_on_c, 4, 66, 0
6, 10320, Note_on_c, 4, 65, 50
6, 10416, Note_on_c, 4, 56, 0
6, 10440, Note_on_c, 4, 65, 0
6, 10440, Note_on_c, 4, 56, 50
6, 10440, Note_on_c, 4, 63, 50
6, 10560, Note_on_c, 4, 63, 0
6, 10560, Note_on_c, 4, 56, 0
6, 10560, Note_on_c, 4, 58, 50
6, 10560, Note_on_c, 4, 61, 50
6, 10680, Note_on_c, 4, 61, 0
6, 10680, Note_on_c, 4, 58, 0
6, 10680, Note_on_c, 4, 55, 50
6, 10680, Note_on_c, 4, 61, 50
6, 10776, Note_on_c, 4, 61, 0
6, 10776, Note_on_c, 4, 55, 0
6, 10800, Note_on_c, 4, 56, 50
6, 10800, Note_on_c, 4, 61, 50
6, 11040, Note_on_c, 4, 61, 0
6, 11040, Note_on_c, 4, 60, 50
6, 11232, Note_on_c, 4, 56, 0
6, 11280, Note_on_c, 4, 60, 0
6, 11280, Note_on_c, 4, 56, 50
6, 11280, Note_on_c, 4, 63, 50
6, 11400, Note_on_c, 4, 63, 0
6, 11400, Note_on_c, 4, 66, 50
6, 11520, Note_on_c, 4, 66, 0
6, 11520, Note_on_c, 4, 56, 0
6, 11520, Note_on_c, 4, 61, 50
6, 11520, Note_on_c, 4, 65, 50
6, 11616, Note_on_c, 4, 65, 0
6, 11616, Note_on_c, 4, 61, 0
6, 12480, Note_on_c, 4, 56, 50
6, 12480, Note_on_c, 4, 61, 50
6, 12672, Note_on_c, 4, 61, 0
6, 12672, Note_on_c, 4, 56, 0
6, 12720, Note_on_c, 4, 56, 50
6, 12720, Note_on_c, 4, 61, 50
6, 12912, Note_on_c, 4, 61, 0
6, 12912, Note_on_c, 4, 56, 0
6, 13200, Note_on_c, 4, 54, 50
6, 13200, Note_on_c, 4, 63, 50
6, 13392, Note_on_c, 4, 63, 0
6, 13392, Note_on_c, 4, 54, 0
6, 13440, Note_on_c, 4, 54, 50
6, 13440, Note_on_c, 4, 63, 50
6, 13632, Note_on_c, 4, 63, 0
6, 13632, Note_on_c, 4, 54, 0
6, 13800, Note_on_c, 4, 63, 50
6, 13896, Note_on_c, 4, 63, 0
6, 13920, Note_on_c, 4, 57, 50
6, 13920, Note_on_c, 4, 65, 50
6, 13968, Note_on_c, 4, 65, 0
6, 13980, Note_on_c, 4, 63, 50
6, 14028, Note_on_c, 4, 63, 0
6, 14040, Note_on_c, 4, 61, 50
6, 14088, Note_on_c, 4, 61, 0
6, 14100, Note_on_c, 4, 60, 50
6, 14148, Note_on_c, 4, 60, 0
6, 14148, Note_on_c, 4, 57, 0
6, 14160, Note_on_c, 4, 57, 50
6, 14160, Note_on_c, 4, 60, 50
6, 14256, Note_on_c, 4, 60, 0
6, 14376, Note_on_c, 4, 57, 0
6, 14640, Note_on_c, 4, 58, 50
6, 14640, Note_on_c, 4, 61, 50
6, 14832, Note_on_c, 4, 61, 0
6, 14832, Note_on_c, 4, 58, 0
6, 14880, Note_on_c, 4, 58, 50
6, 14880, Note_on_c, 4, 61, 50
6, 15072, Note_on_c, 4, 61, 0
6, 15072, Note_on_c, 4, 58, 0
6, 15360, Note_on_c, 4, 52, 50
6, 15360, Note_on_c, 4, 64, 50
6, 15552, Note_on_c, 4, 64, 0
6, 15552, Note_on_c, 4, 52, 0
6, 15600, Note_on_c, 4, 52, 50
6, 15600, Note_on_c, 4, 64, 50
6, 15792, Note_on_c, 4, 64, 0
6, 15792, Note_on_c, 4, 52, 0
6, 16080, Note_on_c, 4, 52, 50
6, 16080, Note_on_c, 4, 60, 50
6, 16272, Note_on_c, 4, 60, 0
6, 16272, Note_on_c, 4, 52, 0
6, 16320, Note_on_c, 4, 52, 50
6, 16320, Note_on_c, 4, 60, 50
6, 16512, Note_on_c, 4, 60, 0
6, 16512, Note_on_c, 4, 52, 0
6, 22920, Note_on_c, 4, 41, 56
6, 23016, Note_on_c, 4, 41, 0
6, 23040, Note_on_c, 4, 46, 56
6, 23328, Note_on_c, 4, 46, 0
6, 23400, Note_on_c, 4, 41, 56
6, 23496, Note_on_c, 4, 41, 0
6, 23640, Note_on_c, 4, 41, 56
6, 23640, Note_on_c, 4, 56, 56
6, 23736, Note_on_c, 4, 56, 0
6, 23736, Note_on_c, 4, 41, 0
6, 23760, Note_on_c, 4, 58, 64
6, 23760, Note_on_c, 4, 46, 64
6, 24048, Note_on_c, 4, 46, 0
6, 24048, Note_on_c, 4, 58, 0
6, 24120, Note_on_c, 4, 41, 56
6, 24120, Note_on_c, 4, 56, 56
6, 24216, Note_on_c, 4, 56, 0
6, 24216, Note_on_c, 4, 41, 0
6, 24360, Note_on_c, 4, 41, 56
6, 24456, Note_on_c, 4, 41, 0
6, 24480, Note_on_c, 4, 46, 56
6, 24768, Note_on_c, 4, 46, 0
6, 24840, Note_on_c, 4, 41, 56
6, 24936, Note_on_c, 4, 41, 0
6, 25320, Note_on_c, 4, 34, 51
6, 25320, Note_on_c, 4, 46, 51
6, 25416, Note_on_c, 4, 46, 0
6, 25416, Note_on_c, 4, 34, 0
6, 25680, Note_on_c, 4, 46, 56
6, 25680, Note_on_c, 4, 34, 56
6, 25776, Note_on_c, 4, 34, 0
6, 25776, Note_on_c, 4, 46, 0
6, 26040, Note_on_c, 4, 46, 61
6, 26040, Note_on_c, 4, 34, 61
6, 26136, Note_on_c, 4, 34, 0
6, 26136, Note_on_c, 4, 46, 0
6, 26400, Note_on_c, 4, 46, 66
6, 26400, Note_on_c, 4, 34, 66
6, 26496, Note_on_c, 4, 34, 0
6, 26496, Note_on_c, 4, 46, 0
6, 26760, Note_on_c, 4, 46, 71
6, 26760, Note_on_c, 4, 34, 71
6, 26856, Note_on_c, 4, 34, 0
6, 26856, Note_on_c, 4, 46, 0
6, 27120, Note_on_c, 4, 46, 76
6, 27120, Note_on_c, 4, 34, 76
6, 27216, Note_on_c, 4, 34, 0
6, 27216, Note_on_c, 4, 46, 0
6, 27480, Note_on_c, 4, 46, 81
6, 27480, Note_on_c, 4, 34, 81
6, 27576, Note_on_c, 4, 34, 0
6, 27576, Note_on_c, 4, 46, 0
6, 28200, Note_on_c, 4, 67, 91
6, 28200, Note_on_c, 4, 64, 91
6, 28296, Note_on_c, 4, 64, 0
6, 28296, Note_on_c, 4, 67, 0
6, 28560, Note_on_c, 4, 64, 96
6, 28560, Note_on_c, 4, 67, 96
6, 28656, Note_on_c, 4, 67, 0
6, 28656, Note_on_c, 4, 64, 0
6, 28920, Note_on_c, 4, 64, 101
6, 28920, Note_on_c, 4, 67, 101
6, 29016, Note_on_c, 4, 67, 0
6, 29016, Note_on_c, 4, 64, 0
6, 29280, Note_on_c, 4, 64, 106
6, 29280, Note_on_c, 4, 67, 106
6, 29376, Note_on_c, 4, 67, 0
6, 29376, Note_on_c, 4, 64, 0
6, 29640, Note_on_c, 4, 64, 111
6, 29640, Note_on_c, 4, 67, 111
6, 29736, Note_on_c, 4, 67, 0
6, 29736, Note_on_c, 4, 64, 0
6, 30000, Note_on_c, 4, 64, 116
6, 30000, Note_on_c, 4, 67, 116
6, 30096, Note_on_c, 4, 67, 0
6, 30096, Note_on_c, 4, 64, 0
6, 30360, Note_on_c, 4, 64, 121
6, 30360, Note_on_c, 4, 67, 121
6, 30456, Note_on_c, 4, 67, 0
6, 30456, Note_on_c, 4, 64, 0
6, 30720, Note_on_c, 4, 64, 127
6, 30720, Note_on_c, 4, 67, 127
6, 30816, Note_on_c, 4, 67, 0
6, 30816, Note_on_c, 4, 64, 0
6, 30840, Note_on_c, 4, 41, 127
6, 31776, Note_on_c, 4, 41, 0
6, 31800, Note_on_c, 4, 41, 121
6, 31896, Note_on_c, 4, 41, 0
6, 31920, Note_on_c, 4, 44, 120
6, 32016, Note_on_c, 4, 44, 0
6, 32040, Note_on_c, 4, 48, 119
6, 32136, Note_on_c, 4, 48, 0
6, 32280, Note_on_c, 4, 36, 117
6, 32280, Note_on_c, 4, 48, 117
6, 33216, Note_on_c, 4, 48, 0
6, 33216, Note_on_c, 4, 36, 0
6, 33240, Note_on_c, 4, 36, 110
6, 33240, Note_on_c, 4, 48, 110
6, 33336, Note_on_c, 4, 48, 0
6, 33336, Note_on_c, 4, 36, 0
6, 33360, Note_on_c, 4, 36, 109
6, 33360, Note_on_c, 4, 48, 109
6, 33456, Note_on_c, 4, 48, 0
6, 33456, Note_on_c, 4, 36, 0
6, 33480, Note_on_c, 4, 41, 108
6, 33480, Note_on_c, 4, 53, 108
6, 33576, Note_on_c, 4, 53, 0
6, 33576, Note_on_c, 4, 41, 0
6, 33840, Note_on_c, 4, 55, 106
6, 33840, Note_on_c, 4, 58, 106
6, 33936, Note_on_c, 4, 58, 0
6, 33936, Note_on_c, 4, 55, 0
6, 34200, Note_on_c, 4, 56, 103
6, 34200, Note_on_c, 4, 60, 103
6, 34296, Note_on_c, 4, 60, 0
6, 34296, Note_on_c, 4, 56, 0
6, 34560, Note_on_c, 4, 58, 100
6, 34560, Note_on_c, 4, 61, 100
6, 34656, Note_on_c, 4, 61, 0
6, 34656, Note_on_c, 4, 58, 0
6, 34680, Note_on_c, 4, 58, 109
6, 34680, Note_on_c, 4, 61, 109
6, 34776, Note_on_c, 4, 61, 0
6, 34776, Note_on_c, 4, 58, 0
6, 34800, Note_on_c, 4, 58, 118
6, 34800, Note_on_c, 4, 60, 118
6, 34896, Note_on_c, 4, 60, 0
6, 34896, Note_on_c, 4, 58, 0
6, 34920, Note_on_c, 4, 56, 127
6, 34920, Note_on_c, 4, 60, 127
6, 35016, Note_on_c, 4, 60, 0
6, 35016, Note_on_c, 4, 56, 0
6, 35280, Note_on_c, 4, 55, 104
6, 35280, Note_on_c, 4, 58, 104
6, 35376, Note_on_c, 4, 58, 0
6, 35376, Note_on_c, 4, 55, 0
6, 35640, Note_on_c, 4, 56, 112
6, 35640, Note_on_c, 4, 60, 112
6, 35736, Note_on_c, 4, 60, 0
6, 35736, Note_on_c, 4, 56, 0
6, 35880, Note_on_c, 4, 56, 117
6, 35880, Note_on_c, 4, 53, 117
6, 35976, Note_on_c, 4, 53, 0
6, 35976, Note_on_c, 4, 56, 0
6, 36000, Note_on_c, 4, 53, 119
6, 36000, Note_on_c, 4, 56, 119
6, 36096, Note_on_c, 4, 56, 0
6, 36096, Note_on_c, 4, 53, 0
6, 36120, Note_on_c, 4, 53, 122
6, 36120, Note_on_c, 4, 56, 122
6, 36216, Note_on_c, 4, 56, 0
6, 36216, Note_on_c, 4, 53, 0
6, 36240, Note_on_c, 4, 52, 124
6, 36240, Note_on_c, 4, 56, 124
6, 36336, Note_on_c, 4, 56, 0
6, 36336, Note_on_c, 4, 52, 0
6, 36360, Note_on_c, 4, 51, 80
6, 36360, Note_on_c, 4, 55, 80
6, 36648, Note_on_c, 4, 55, 0
6, 36648, Note_on_c, 4, 51, 0
6, 36720, Note_on_c, 4, 56, 80
6, 36720, Note_on_c, 4, 60, 80
6, 37008, Note_on_c, 4, 60, 0
6, 37008, Note_on_c, 4, 56, 0
6, 37080, Note_on_c, 4, 56, 80
6, 37080, Note_on_c, 4, 58, 80
6, 37368, Note_on_c, 4, 58, 0
6, 37368, Note_on_c, 4, 56, 0
6, 37440, Note_on_c, 4, 55, 80
6, 37440, Note_on_c, 4, 58, 80
6, 37728, Note_on_c, 4, 58, 0
6, 37728, Note_on_c, 4, 55, 0
6, 37800, Note_on_c, 4, 55, 80
6, 37800, Note_on_c, 4, 58, 80
6, 38088, Note_on_c, 4, 58, 0
6, 38088, Note_on_c, 4, 55, 0
6, 38160, Note_on_c, 4, 56, 80
6, 38160, Note_on_c, 4, 60, 80
6, 38448, Note_on_c, 4, 60, 0
6, 38448, Note_on_c, 4, 56, 0
6, 38520, Note_on_c, 4, 56, 80
6, 38520, Note_on_c, 4, 58, 80
6, 38808, Note_on_c, 4, 58, 0
6, 38808, Note_on_c, 4, 56, 0
6, 38880, Note_on_c, 4, 55, 80
6, 38880, Note_on_c, 4, 58, 80
6, 38976, Note_on_c, 4, 58, 0
6, 38976, Note_on_c, 4, 55, 0
6, 39960, Note_on_c, 4, 51, 50
6, 39960, Note_on_c, 4, 58, 50
6, 40248, Note_on_c, 4, 58, 0
6, 40248, Note_on_c, 4, 51, 0
6, 40320, Note_on_c, 4, 56, 50
6, 40320, Note_on_c, 4, 60, 50
6, 40608, Note_on_c, 4, 60, 0
6, 40608, Note_on_c, 4, 56, 0
6, 41400, Note_on_c, 4, 51, 50
6, 41400, Note_on_c, 4, 58, 50
6, 41688, Note_on_c, 4, 58, 0
6, 41688, Note_on_c, 4, 51, 0
6, 41760, Note_on_c, 4, 56, 50
6, 41760, Note_on_c, 4, 60, 50
6, 42048, Note_on_c, 4, 60, 0
6, 42048, Note_on_c, 4, 56, 0
6, 42840, Note_on_c, 4, 49, 50
6, 42840, Note_on_c, 4, 52, 50
6, 43200, Note_on_c, 4, 52, 0
6, 43200, Note_on_c, 4, 49, 0
6, 43200, Note_on_c, 4, 50, 52
6, 43200, Note_on_c, 4, 54, 52
6, 43320, Note_on_c, 4, 54, 0
6, 43320, Note_on_c, 4, 50, 0
6, 43320, Note_on_c, 4, 52, 53
6, 43320, Note_on_c, 4, 56, 53
6, 43440, Note_on_c, 4, 56, 0
6, 43440, Note_on_c, 4, 52, 0
6, 43440, Note_on_c, 4, 54, 54
6, 43440, Note_on_c, 4, 57, 54
6, 43536, Note_on_c, 4, 57, 0
6, 43536, Note_on_c, 4, 54, 0
6, 43560, Note_on_c, 4, 52, 55
6, 43560, Note_on_c, 4, 49, 55
6, 43920, Note_on_c, 4, 49, 0
6, 43920, Note_on_c, 4, 52, 0
6, 43920, Note_on_c, 4, 54, 58
6, 43920, Note_on_c, 4, 50, 58
6, 44040, Note_on_c, 4, 50, 0
6, 44040, Note_on_c, 4, 54, 0
6, 44040, Note_on_c, 4, 56, 59
6, 44040, Note_on_c, 4, 52, 59
6, 44160, Note_on_c, 4, 52, 0
6, 44160, Note_on_c, 4, 56, 0
6, 44160, Note_on_c, 4, 57, 60
6, 44160, Note_on_c, 4, 54, 60
6, 44256, Note_on_c, 4, 54, 0
6, 44256, Note_on_c, 4, 57, 0
6, 44280, Note_on_c, 4, 52, 61
6, 44280, Note_on_c, 4, 49, 61
6, 44568, Note_on_c, 4, 49, 0
6, 44568, Note_on_c, 4, 52, 0
6, 44640, Note_on_c, 4, 50, 64
6, 44640, Note_on_c, 4, 53, 64
6, 45288, Note_on_c, 4, 53, 0
6, 45288, Note_on_c, 4, 50, 0
6, 45360, Note_on_c, 4, 51, 70
6, 45360, Note_on_c, 4, 55, 70
6, 45648, Note_on_c, 4, 55, 0
6, 45648, Note_on_c, 4, 51, 0
6, 45720, Note_on_c, 4, 56, 95
6, 45816, Note_on_c, 4, 56, 0
6, 45840, Note_on_c, 4, 56, 95
6, 45840, Note_on_c, 4, 60, 95
6, 45936, Note_on_c, 4, 60, 0
6, 45936, Note_on_c, 4, 56, 0
6, 45960, Note_on_c, 4, 56, 95
6, 45960, Note_on_c, 4, 60, 95
6, 46056, Note_on_c, 4, 60, 0
6, 46080, Note_on_c, 4, 61, 95
6, 46176, Note_on_c, 4, 61, 0
6, 46176, Note_on_c, 4, 56, 0
6, 46200, Note_on_c, 4, 56, 95
6, 46200, Note_on_c, 4, 61, 95
6, 46296, Note_on_c, 4, 61, 0
6, 46296, Note_on_c, 4, 56, 0
6, 46320, Note_on_c, 4, 61, 95
6, 46320, Note_on_c, 4, 56, 95
6, 46416, Note_on_c, 4, 56, 0
6, 46440, Note_on_c, 4, 58, 95
6, 46536, Note_on_c, 4, 58, 0
6, 46536, Note_on_c, 4, 61, 0
6, 46560, Note_on_c, 4, 61, 95
6, 46560, Note_on_c, 4, 58, 95
6, 46656, Note_on_c, 4, 58, 0
6, 46656, Note_on_c, 4, 61, 0
6, 46680, Note_on_c, 4, 61, 95
6, 46680, Note_on_c, 4, 58, 95
6, 46896, Note_on_c, 4, 58, 0
6, 46896, Note_on_c, 4, 61, 0
6, 46920, Note_on_c, 4, 61, 95
6, 46920, Note_on_c, 4, 58, 95
6, 47016, Note_on_c, 4, 58, 0
6, 47016, Note_on_c, 4, 61, 0
6, 47040, Note_on_c, 4, 61, 95
6, 47040, Note_on_c, 4, 58, 95
6, 47136, Note_on_c, 4, 58, 0
6, 47136, Note_on_c, 4, 61, 0
6, 47160, Note_on_c, 4, 56, 95
6, 47160, Note_on_c, 4, 60, 95
6, 47256, Note_on_c, 4, 60, 0
6, 47256, Note_on_c, 4, 56, 0
6, 47880, Note_on_c, 4, 56, 80
6, 47880, Note_on_c, 4, 60, 80
6, 47976, Note_on_c, 4, 60, 0
6, 47976, Note_on_c, 4, 56, 0
6, 48600, Note_on_c, 4, 60, 80
6, 48600, Note_on_c, 4, 63, 80
6, 48696, Note_on_c, 4, 63, 0
6, 48696, Note_on_c, 4, 60, 0
6, 49080, Note_on_c, 4, 60, 114
6, 49080, Note_on_c, 4, 63, 114
6, 49176, Note_on_c, 4, 63, 0
6, 49176, Note_on_c, 4, 60, 0
6, 49200, Note_on_c, 4, 60, 120
6, 49200, Note_on_c, 4, 63, 120
6, 49296, Note_on_c, 4, 63, 0
6, 49296, Note_on_c, 4, 60, 0
6, 49320, Note_on_c, 4, 63, 127
6, 49512, Note_on_c, 4, 63, 0
6, 49560, Note_on_c, 4, 55, 127
6, 49596, Note_on_c, 4, 55, 0
6, 49680, Note_on_c, 4, 63, 127
6, 49872, Note_on_c, 4, 63, 0
6, 49920, Note_on_c, 4, 55, 127
6, 49956, Note_on_c, 4, 55, 0
6, 50040, Note_on_c, 4, 63, 127
6, 50232, Note_on_c, 4, 63, 0
6, 50280, Note_on_c, 4, 56, 127
6, 50316, Note_on_c, 4, 56, 0
6, 50400, Note_on_c, 4, 63, 127
6, 50592, Note_on_c, 4, 63, 0
6, 50640, Note_on_c, 4, 55, 127
6, 50676, Note_on_c, 4, 55, 0
6, 50760, Note_on_c, 4, 63, 127
6, 50952, Note_on_c, 4, 63, 0
6, 51000, Note_on_c, 4, 56, 127
6, 51036, Note_on_c, 4, 56, 0
6, 51120, Note_on_c, 4, 63, 127
6, 51312, Note_on_c, 4, 63, 0
6, 51360, Note_on_c, 4, 55, 127
6, 51456, Note_on_c, 4, 55, 0
6, 51480, Note_on_c, 4, 44, 50
6, 52848, Note_on_c, 4, 44, 0
6, 52920, Note_on_c, 4, 43, 50
6, 54192, Note_on_c, 4, 43, 0
6, 54240, Note_on_c, 4, 51, 127
6, 54336, Note_on_c, 4, 51, 0
6, 54360, Note_on_c, 4, 44, 50
6, 55728, Note_on_c, 4, 44, 0
6, 55800, Note_on_c, 4, 45, 50
6, 57072, Note_on_c, 4, 45, 0
6, 57120, Note_on_c, 4, 53, 127
6, 57120, Note_on_c, 4, 41, 127
6, 57216, Note_on_c, 4, 41, 0
6, 57216, Note_on_c, 4, 53, 0
6, 57240, Note_on_c, 4, 46, 50
6, 58608, Note_on_c, 4, 46, 0
6, 58680, Note_on_c, 4, 45, 50
6, 59952, Note_on_c, 4, 45, 0
6, 60000, Note_on_c, 4, 41, 127
6, 60096, Note_on_c, 4, 41, 0
6, 60120, Note_on_c, 4, 46, 50
6, 61392, Note_on_c, 4, 46, 0
6, 61440, Note_on_c, 4, 47, 50
6, 62112, Note_on_c, 4, 47, 0
6, 64800, Note_on_c, 4, 55, 50
6, 64800, Note_on_c, 4, 62, 50
6, 65088, Note_on_c, 4, 62, 0
6, 65088, Note_on_c, 4, 55, 0
6, 65160, Note_on_c, 4, 55, 50
6, 65160, Note_on_c, 4, 62, 50
6, 65448, Note_on_c, 4, 62, 0
6, 65448, Note_on_c, 4, 55, 0
6, 65520, Note_on_c, 4, 55, 50
6, 65520, Note_on_c, 4, 62, 50
6, 66168, Note_on_c, 4, 62, 0
6, 66168, Note_on_c, 4, 55, 0
6, 66240, Note_on_c, 4, 36, 50
6, 66240, Note_on_c, 4, 48, 50
6, 66528, Note_on_c, 4, 48, 0
6, 66528, Note_on_c, 4, 36, 0
6, 66600, Note_on_c, 4, 48, 50
6, 66600, Note_on_c, 4, 36, 50
6, 66888, Note_on_c, 4, 36, 0
6, 66888, Note_on_c, 4, 48, 0
6, 66960, Note_on_c, 4, 48, 50
6, 66960, Note_on_c, 4, 36, 50
6, 68265, Note_on_c, 4, 36, 0
6, 68265, Note_on_c, 4, 48, 0
6, 68280, Note_on_c, 4, 41, 64
6, 68280, Note_on_c, 4, 53, 64
6, 68376, Note_on_c, 4, 53, 0
6, 68376, Note_on_c, 4, 41, 0
6, 68400, Note_on_c, 4, 41, 45
6, 68400, Note_on_c, 4, 53, 45
6, 68496, Note_on_c, 4, 53, 0
6, 68496, Note_on_c, 4, 41, 0
6, 68520, Note_on_c, 4, 41, 45
6, 68520, Note_on_c, 4, 53, 45
6, 68616, Note_on_c, 4, 53, 0
6, 68616, Note_on_c, 4, 41, 0
6, 68880, Note_on_c, 4, 41, 56
6, 68880, Note_on_c, 4, 53, 56
6, 68976, Note_on_c, 4, 53, 0
6, 68976, Note_on_c, 4, 41, 0
6, 69240, Note_on_c, 4, 53, 56
6, 69240, Note_on_c, 4, 41, 56
6, 69336, Note_on_c, 4, 41, 0
6, 69336, Note_on_c, 4, 53, 0
6, 69600, Note_on_c, 4, 55, 56
6, 69600, Note_on_c, 4, 58, 56
6, 69696, Note_on_c, 4, 58, 0
6, 69696, Note_on_c, 4, 55, 0
6, 69960, Note_on_c, 4, 55, 56
6, 69960, Note_on_c, 4, 58, 56
6, 70056, Note_on_c, 4, 58, 0
6, 70056, Note_on_c, 4, 55, 0
6, 70320, Note_on_c, 4, 55, 56
6, 70320, Note_on_c, 4, 58, 56
6, 70416, Note_on_c, 4, 58, 0
6, 70416, Note_on_c, 4, 55, 0
6, 70680, Note_on_c, 4, 55, 56
6, 70680, Note_on_c, 4, 58, 56
6, 70776, Note_on_c, 4, 58, 0
6, 70776, Note_on_c, 4, 55, 0
6, 71040, Note_on_c, 4, 53, 56
6, 71040, Note_on_c, 4, 56, 56
6, 71136, Note_on_c, 4, 56, 0
6, 71136, Note_on_c, 4, 53, 0
6, 71880, Note_on_c, 4, 53, 56
6, 72000, Note_on_c, 4, 53, 0
6, 72000, Note_on_c, 4, 58, 64
6, 72360, Note_on_c, 4, 58, 0
6, 72360, Note_on_c, 4, 53, 56
6, 72456, Note_on_c, 4, 53, 0
6, 73080, Note_on_c, 4, 41, 56
6, 73176, Note_on_c, 4, 41, 0
6, 76440, Note_on_c, 4, 67, 91
6, 76440, Note_on_c, 4, 64, 91
6, 76536, Note_on_c, 4, 64, 0
6, 76536, Note_on_c, 4, 67, 0
6, 76800, Note_on_c, 4, 64, 96
6, 76800, Note_on_c, 4, 67, 96
6, 76896, Note_on_c, 4, 67, 0
6, 76896, Note_on_c, 4, 64, 0
6, 77160, Note_on_c, 4, 64, 101
6, 77160, Note_on_c, 4, 67, 101
6, 77256, Note_on_c, 4, 67, 0
6, 77256, Note_on_c, 4, 64, 0
6, 77520, Note_on_c, 4, 64, 106
6, 77520, Note_on_c, 4, 67, 106
6, 77616, Note_on_c, 4, 67, 0
6, 77616, Note_on_c, 4, 64, 0
6, 77880, Note_on_c, 4, 64, 110
6, 77880, Note_on_c, 4, 67, 110
6, 77976, Note_on_c, 4, 67, 0
6, 77976, Note_on_c, 4, 64, 0
6, 78240, Note_on_c, 4, 64, 115
6, 78240, Note_on_c, 4, 67, 115
6, 78336, Note_on_c, 4, 67, 0
6, 78336, Note_on_c, 4, 64, 0
6, 78600, Note_on_c, 4, 67, 120
6, 78600, Note_on_c, 4, 64, 120
6, 78696, Note_on_c, 4, 64, 0
6, 78696, Note_on_c, 4, 67, 0
6, 78960, Note_on_c, 4, 67, 125
6, 78960, Note_on_c, 4, 64, 125
6, 79056, Note_on_c, 4, 64, 0
6, 79056, Note_on_c, 4, 67, 0
6, 79080, Note_on_c, 4, 41, 127
6, 80016, Note_on_c, 4, 41, 0
6, 80040, Note_on_c, 4, 41, 127
6, 80136, Note_on_c, 4, 41, 0
6, 80160, Note_on_c, 4, 44, 127
6, 80256, Note_on_c, 4, 44, 0
6, 80280, Note_on_c, 4, 48, 127
6, 80376, Note_on_c, 4, 48, 0
6, 80520, Note_on_c, 4, 36, 127
6, 80520, Note_on_c, 4, 48, 127
6, 81456, Note_on_c, 4, 48, 0
6, 81456, Note_on_c, 4, 36, 0
6, 81480, Note_on_c, 4, 48, 127
6, 81480, Note_on_c, 4, 36, 127
6, 81576, Note_on_c, 4, 36, 0
6, 81576, Note_on_c, 4, 48, 0
6, 81600, Note_on_c, 4, 48, 127
6, 81600, Note_on_c, 4, 36, 127
6, 81696, Note_on_c, 4, 36, 0
6, 81696, Note_on_c, 4, 48, 0
6, 81720, Note_on_c, 4, 41, 127
6, 81720, Note_on_c, 4, 53, 127
6, 81816, Note_on_c, 4, 53, 0
6, 81816, Note_on_c, 4, 41, 0
6, 81960, Note_on_c, 4, 41, 127
6, 82056, Note_on_c, 4, 41, 0
6, 82080, Note_on_c, 4, 46, 127
6, 82272, Note_on_c, 4, 46, 0
6, 82320, Note_on_c, 4, 46, 127
6, 82416, Note_on_c, 4, 46, 0
6, 82440, Note_on_c, 4, 41, 127
6, 82536, Note_on_c, 4, 41, 0
6, 82680, Note_on_c, 4, 53, 127
6, 82680, Note_on_c, 4, 60, 127
6, 82800, Note_on_c, 4, 60, 0
6, 82800, Note_on_c, 4, 53, 0
6, 82800, Note_on_c, 4, 61, 127
6, 82800, Note_on_c, 4, 58, 127
6, 82992, Note_on_c, 4, 58, 0
6, 82992, Note_on_c, 4, 61, 0
6, 83040, Note_on_c, 4, 61, 127
6, 83040, Note_on_c, 4, 58, 127
6, 83136, Note_on_c, 4, 58, 0
6, 83136, Note_on_c, 4, 61, 0
6, 83160, Note_on_c, 4, 53, 127
6, 83160, Note_on_c, 4, 60, 127
6, 83256, Note_on_c, 4, 60, 0
6, 83256, Note_on_c, 4, 53, 0
6, 83400, Note_on_c, 4, 41, 127
6, 83496, Note_on_c, 4, 41, 0
6, 83520, Note_on_c, 4, 46, 127
6, 83712, Note_on_c, 4, 46, 0
6, 83760, Note_on_c, 4, 46, 127
6, 83856, Note_on_c, 4, 46, 0
6, 83880, Note_on_c, 4, 41, 127
6, 83976, Note_on_c, 4, 41, 0
6, 84120, Note_on_c, 4, 49, 127
6, 84120, Note_on_c, 4, 61, 127
6, 84216, Note_on_c, 4, 61, 0
6, 84216, Note_on_c, 4, 49, 0
6, 84240, Note_on_c, 4, 49, 127
6, 84240, Note_on_c, 4, 61, 127
6, 84336, Note_on_c, 4, 61, 0
6, 84336, Note_on_c, 4, 49, 0
6, 84600, Note_on_c, 4, 61, 127
6, 84600, Note_on_c, 4, 49, 127
6, 84696, Note_on_c, 4, 49, 0
6, 84696, Note_on_c, 4, 61, 0
6, 84960, Note_on_c, 4, 61, 127
6, 84960, Note_on_c, 4, 49, 127
6, 85056, Note_on_c, 4, 49, 0
6, 85056, Note_on_c, 4, 61, 0
6, 85320, Note_on_c, 4, 54, 127
6, 85320, Note_on_c, 4, 58, 127
6, 85416, Note_on_c, 4, 58, 0
6, 85416, Note_on_c, 4, 54, 0
6, 85440, Note_on_c, 4, 51, 127
6, 85440, Note_on_c, 4, 54, 127
6, 85536, Note_on_c, 4, 54, 0
6, 85536, Note_on_c, 4, 51, 0
6, 85560, Note_on_c, 4, 56, 127
6, 85656, Note_on_c, 4, 56, 0
6, 85680, Note_on_c, 4, 49, 127
6, 85680, Note_on_c, 4, 53, 127
6, 85776, Note_on_c, 4, 53, 0
6, 85776, Note_on_c, 4, 49, 0
6, 86040, Note_on_c, 4, 49, 105
6, 86040, Note_on_c, 4, 61, 105
6, 86136, Note_on_c, 4, 61, 0
6, 86136, Note_on_c, 4, 49, 0
6, 86400, Note_on_c, 4, 49, 112
6, 86400, Note_on_c, 4, 61, 112
6, 86496, Note_on_c, 4, 61, 0
6, 86496, Note_on_c, 4, 49, 0
6, 86760, Note_on_c, 4, 55, 119
6, 86760, Note_on_c, 4, 58, 119
6, 86856, Note_on_c, 4, 58, 0
6, 86856, Note_on_c, 4, 55, 0
6, 86880, Note_on_c, 4, 55, 122
6, 86880, Note_on_c, 4, 58, 122
6, 86976, Note_on_c, 4, 58, 0
6, 86976, Note_on_c, 4, 55, 0
6, 87000, Note_on_c, 4, 60, 124
6, 87000, Note_on_c, 4, 56, 124
6, 87096, Note_on_c, 4, 56, 0
6, 87096, Note_on_c, 4, 60, 0
6, 87120, Note_on_c, 4, 58, 127
6, 87120, Note_on_c, 4, 61, 127
6, 87768, Note_on_c, 4, 61, 0
6, 87768, Note_on_c, 4, 58, 0
6, 87840, Note_on_c, 4, 56, 127
6, 87840, Note_on_c, 4, 60, 127
6, 88128, Note_on_c, 4, 60, 0
6, 88128, Note_on_c, 4, 56, 0
6, 88200, Note_on_c, 4, 56, 122
6, 88200, Note_on_c, 4, 61, 122
6, 88488, Note_on_c, 4, 61, 0
6, 88488, Note_on_c, 4, 56, 0
6, 88560, Note_on_c, 4, 58, 117
6, 88560, Note_on_c, 4, 55, 117
6, 88848, Note_on_c, 4, 55, 0
6, 88848, Note_on_c, 4, 58, 0
6, 88920, Note_on_c, 4, 60, 112
6, 88920, Note_on_c, 4, 56, 112
6, 89208, Note_on_c, 4, 56, 0
6, 89208, Note_on_c, 4, 60, 0
6, 89280, Note_on_c, 4, 51, 107
6, 89280, Note_on_c, 4, 54, 107
6, 89568, Note_on_c, 4, 54, 0
6, 89568, Note_on_c, 4, 51, 0
6, 89640, Note_on_c, 4, 49, 102
6, 89640, Note_on_c, 4, 53, 102
6, 89928, Note_on_c, 4, 53, 0
6, 89928, Note_on_c, 4, 49, 0
6, 90000, Note_on_c, 4, 55, 97
6, 90000, Note_on_c, 4, 58, 97
6, 90288, Note_on_c, 4, 58, 0
6, 90288, Note_on_c, 4, 55, 0
6, 90360, Note_on_c, 4, 56, 92
6, 90360, Note_on_c, 4, 60, 92
6, 90456, Note_on_c, 4, 60, 0
6, 90456, Note_on_c, 4, 56, 0
6, 91440, Note_on_c, 4, 56, 50
6, 91440, Note_on_c, 4, 60, 50
6, 91800, Note_on_c, 4, 60, 0
6, 91800, Note_on_c, 4, 56, 0
6, 91800, Note_on_c, 4, 61, 50
6, 92088, Note_on_c, 4, 61, 0
6, 92880, Note_on_c, 4, 60, 50
6, 92880, Note_on_c, 4, 56, 50
6, 93240, Note_on_c, 4, 56, 0
6, 93240, Note_on_c, 4, 60, 0
6, 93240, Note_on_c, 4, 61, 50
6, 93528, Note_on_c, 4, 61, 0
6, 94320, Note_on_c, 4, 54, 50
6, 94320, Note_on_c, 4, 57, 50
6, 94680, Note_on_c, 4, 57, 0
6, 94680, Note_on_c, 4, 54, 0
6, 94680, Note_on_c, 4, 55, 52
6, 94680, Note_on_c, 4, 59, 52
6, 94800, Note_on_c, 4, 59, 0
6, 94800, Note_on_c, 4, 55, 0
6, 94800, Note_on_c, 4, 57, 53
6, 94800, Note_on_c, 4, 61, 53
6, 94920, Note_on_c, 4, 61, 0
6, 94920, Note_on_c, 4, 57, 0
6, 94920, Note_on_c, 4, 59, 54
6, 94920, Note_on_c, 4, 62, 54
6, 95016, Note_on_c, 4, 62, 0
6, 95016, Note_on_c, 4, 59, 0
6, 95040, Note_on_c, 4, 57, 55
6, 95040, Note_on_c, 4, 54, 55
6, 95400, Note_on_c, 4, 54, 0
6, 95400, Note_on_c, 4, 57, 0
6, 95400, Note_on_c, 4, 59, 58
6, 95400, Note_on_c, 4, 55, 58
6, 95520, Note_on_c, 4, 55, 0
6, 95520, Note_on_c, 4, 59, 0
6, 95520, Note_on_c, 4, 61, 59
6, 95520, Note_on_c, 4, 57, 59
6, 95640, Note_on_c, 4, 57, 0
6, 95640, Note_on_c, 4, 61, 0
6, 95640, Note_on_c, 4, 62, 60
6, 95640, Note_on_c, 4, 59, 60
6, 95736, Note_on_c, 4, 59, 0
6, 95736, Note_on_c, 4, 62, 0
6, 95760, Note_on_c, 4, 54, 61
6, 95760, Note_on_c, 4, 57, 61
6, 96120, Note_on_c, 4, 57, 0
6, 96120, Note_on_c, 4, 54, 0
6, 96120, Note_on_c, 4, 53, 64
6, 96120, Note_on_c, 4, 56, 64
6, 96408, Note_on_c, 4, 56, 0
6, 96408, Note_on_c, 4, 53, 0
6, 96480, Note_on_c, 4, 51, 67
6, 96480, Note_on_c, 4, 54, 67
6, 96768, Note_on_c, 4, 54, 0
6, 96768, Note_on_c, 4, 51, 0
6, 96840, Note_on_c, 4, 51, 100
6, 96840, Note_on_c, 4, 60, 100
6, 97128, Note_on_c, 4, 60, 0
6, 97128, Note_on_c, 4, 51, 0
6, 97200, Note_on_c, 4, 53, 127
6, 97200, Note_on_c, 4, 61, 127
6, 97296, Note_on_c, 4, 61, 0
6, 97296, Note_on_c, 4, 53, 0
6, 97320, Note_on_c, 4, 53, 127
6, 97320, Note_on_c, 4, 61, 127
6, 97416, Note_on_c, 4, 61, 0
6, 97416, Note_on_c, 4, 53, 0
6, 97440, Note_on_c, 4, 53, 127
6, 97440, Note_on_c, 4, 61, 127
6, 97536, Note_on_c, 4, 53, 0
6, 97560, Note_on_c, 4, 58, 127
6, 97656, Note_on_c, 4, 58, 0
6, 97656, Note_on_c, 4, 61, 0
6, 97680, Note_on_c, 4, 54, 127
6, 97680, Note_on_c, 4, 58, 127
6, 97776, Note_on_c, 4, 58, 0
6, 97776, Note_on_c, 4, 54, 0
6, 97800, Note_on_c, 4, 54, 127
6, 97800, Note_on_c, 4, 58, 127
6, 98016, Note_on_c, 4, 58, 0
6, 98016, Note_on_c, 4, 54, 0
6, 98040, Note_on_c, 4, 54, 127
6, 98040, Note_on_c, 4, 58, 127
6, 98136, Note_on_c, 4, 58, 0
6, 98136, Note_on_c, 4, 54, 0
6, 98160, Note_on_c, 4, 54, 127
6, 98160, Note_on_c, 4, 58, 127
6, 98256, Note_on_c, 4, 58, 0
6, 98280, Note_on_c, 4, 60, 127
6, 98376, Note_on_c, 4, 60, 0
6, 98376, Note_on_c, 4, 54, 0
6, 98400, Note_on_c, 4, 54, 127
6, 98400, Note_on_c, 4, 60, 127
6, 98496, Note_on_c, 4, 60, 0
6, 98496, Note_on_c, 4, 54, 0
6, 98520, Note_on_c, 4, 51, 127
6, 98520, Note_on_c, 4, 56, 127
6, 98616, Note_on_c, 4, 56, 0
6, 98616, Note_on_c, 4, 51, 0
6, 98640, Note_on_c, 4, 49, 127
6, 98640, Note_on_c, 4, 53, 127
6, 99288, Note_on_c, 4, 53, 0
6, 99288, Note_on_c, 4, 49, 0
6, 99360, Note_on_c, 4, 53, 127
6, 99360, Note_on_c, 4, 49, 127
6, 100008, Note_on_c, 4, 49, 0
6, 100008, Note_on_c, 4, 53, 0
6, 100080, Note_on_c, 4, 49, 127
6, 100080, Note_on_c, 4, 53, 127
6, 100665, Note_on_c, 4, 53, 0
6, 100665, Note_on_c, 4, 49, 0
6, 100680, Note_on_c, 4, 65, 127
6, 100680, Note_on_c, 4, 61, 127
6, 100776, Note_on_c, 4, 61, 0
6, 100776, Note_on_c, 4, 65, 0
6, 100800, Note_on_c, 4, 66, 127
6, 100800, Note_on_c, 4, 63, 127
6, 100992, Note_on_c, 4, 63, 0
6, 100992, Note_on_c, 4, 66, 0
6, 101040, Note_on_c, 4, 60, 127
6, 101040, Note_on_c, 4, 63, 127
6, 101136, Note_on_c, 4, 63, 0
6, 101136, Note_on_c, 4, 60, 0
6, 101160, Note_on_c, 4, 63, 127
6, 101160, Note_on_c, 4, 66, 127
6, 101352, Note_on_c, 4, 66, 0
6, 101352, Note_on_c, 4, 63, 0
6, 101400, Note_on_c, 4, 63, 127
6, 101400, Note_on_c, 4, 60, 127
6, 101496, Note_on_c, 4, 60, 0
6, 101496, Note_on_c, 4, 63, 0
6, 101520, Note_on_c, 4, 65, 127
6, 101520, Note_on_c, 4, 68, 127
6, 101712, Note_on_c, 4, 68, 0
6, 101712, Note_on_c, 4, 65, 0
6, 101760, Note_on_c, 4, 65, 127
6, 101760, Note_on_c, 4, 61, 127
6, 101856, Note_on_c, 4, 61, 0
6, 101856, Note_on_c, 4, 65, 0
6, 101880, Note_on_c, 4, 66, 127
6, 101880, Note_on_c, 4, 63, 127
6, 102072, Note_on_c, 4, 63, 0
6, 102072, Note_on_c, 4, 66, 0
6, 102120, Note_on_c, 4, 60, 127
6, 102120, Note_on_c, 4, 63, 127
6, 102216, Note_on_c, 4, 63, 0
6, 102216, Note_on_c, 4, 60, 0
6, 102240, Note_on_c, 4, 68, 127
6, 102240, Note_on_c, 4, 65, 127
6, 102432, Note_on_c, 4, 65, 0
6, 102432, Note_on_c, 4, 68, 0
6, 102480, Note_on_c, 4, 61, 127
6, 102480, Note_on_c, 4, 65, 127
6, 102576, Note_on_c, 4, 65, 0
6, 102576, Note_on_c, 4, 61, 0
6, 102600, Note_on_c, 4, 63, 127
6, 102600, Note_on_c, 4, 66, 127
6, 102792, Note_on_c, 4, 66, 0
6, 102792, Note_on_c, 4, 63, 0
6, 102840, Note_on_c, 4, 63, 127
6, 102840, Note_on_c, 4, 60, 127
6, 102936, Note_on_c, 4, 60, 0
6, 102936, Note_on_c, 4, 63, 0
6, 102960, Note_on_c, 4, 61, 127
6, 103056, Note_on_c, 4, 61, 0
6, 103080, Note_on_c, 4, 61, 127
6, 103176, Note_on_c, 4, 61, 0
6, 103260, Note_on_c, 4, 61, 127
6, 103308, Note_on_c, 4, 61, 0
6, 103320, Note_on_c, 4, 61, 127
6, 103416, Note_on_c, 4, 61, 0
6, 103440, Note_on_c, 4, 61, 127
6, 103536, Note_on_c, 4, 61, 0
6, 103620, Note_on_c, 4, 61, 127
6, 103668, Note_on_c, 4, 61, 0
6, 103680, Note_on_c, 4, 60, 127
6, 103776, Note_on_c, 4, 60, 0
6, 103800, Note_on_c, 4, 60, 127
6, 103896, Note_on_c, 4, 60, 0
6, 103980, Note_on_c, 4, 60, 127
6, 104028, Note_on_c, 4, 60, 0
6, 104040, Note_on_c, 4, 60, 127
6, 104136, Note_on_c, 4, 60, 0
6, 104160, Note_on_c, 4, 60, 127
6, 104256, Note_on_c, 4, 60, 0
6, 105840, Note_on_c, 4, 58, 127
6, 105840, Note_on_c, 4, 61, 127
6, 105936, Note_on_c, 4, 61, 0
6, 105936, Note_on_c, 4, 58, 0
6, 105960, Note_on_c, 4, 58, 127
6, 105960, Note_on_c, 4, 61, 127
6, 106056, Note_on_c, 4, 61, 0
6, 106056, Note_on_c, 4, 58, 0
6, 106140, Note_on_c, 4, 58, 127
6, 106140, Note_on_c, 4, 61, 127
6, 106188, Note_on_c, 4, 61, 0
6, 106188, Note_on_c, 4, 58, 0
6, 106200, Note_on_c, 4, 61, 127
6, 106200, Note_on_c, 4, 58, 127
6, 106296, Note_on_c, 4, 58, 0
6, 106296, Note_on_c, 4, 61, 0
6, 106320, Note_on_c, 4, 61, 127
6, 106320, Note_on_c, 4, 58, 127
6, 106416, Note_on_c, 4, 58, 0
6, 106416, Note_on_c, 4, 61, 0
6, 106500, Note_on_c, 4, 58, 127
6, 106500, Note_on_c, 4, 61, 127
6, 106548, Note_on_c, 4, 61, 0
6, 106548, Note_on_c, 4, 58, 0
6, 106560, Note_on_c, 4, 57, 127
6, 106656, Note_on_c, 4, 57, 0
6, 106680, Note_on_c, 4, 57, 127
6, 106776, Note_on_c, 4, 57, 0
6, 106860, Note_on_c, 4, 57, 127
6, 106908, Note_on_c, 4, 57, 0
6, 106920, Note_on_c, 4, 57, 127
6, 107016, Note_on_c, 4, 57, 0
6, 107040, Note_on_c, 4, 57, 127
6, 107136, Note_on_c, 4, 57, 0
6, 110520, Note_on_c, 4, 53, 50
6, 111168, Note_on_c, 4, 53, 0
6, 111240, Note_on_c, 4, 49, 50
6, 111240, Note_on_c, 4, 61, 50
6, 111960, Note_on_c, 4, 61, 0
6, 111960, Note_on_c, 4, 49, 0
6, 111960, Note_on_c, 4, 61, 50
6, 111960, Note_on_c, 4, 49, 50
6, 112680, Note_on_c, 4, 49, 0
6, 112680, Note_on_c, 4, 61, 0
6, 112680, Note_on_c, 4, 48, 50
6, 112680, Note_on_c, 4, 60, 50
6, 113400, Note_on_c, 4, 60, 0
6, 113400, Note_on_c, 4, 48, 0
6, 115320, Note_on_c, 4, 52, 58
6, 115320, Note_on_c, 4, 55, 58
6, 115512, Note_on_c, 4, 55, 0
6, 115512, Note_on_c, 4, 52, 0
6, 115560, Note_on_c, 4, 52, 67
6, 115560, Note_on_c, 4, 55, 67
6, 115752, Note_on_c, 4, 55, 0
6, 115752, Note_on_c, 4, 52, 0
6, 115800, Note_on_c, 4, 53, 75
6, 115800, Note_on_c, 4, 57, 75
6, 115992, Note_on_c, 4, 57, 0
6, 115992, Note_on_c, 4, 53, 0
6, 116040, Note_on_c, 4, 53, 84
6, 116040, Note_on_c, 4, 57, 84
6, 116232, Note_on_c, 4, 57, 0
6, 116232, Note_on_c, 4, 53, 0
6, 116280, Note_on_c, 4, 52, 93
6, 116280, Note_on_c, 4, 55, 93
6, 116472, Note_on_c, 4, 55, 0
6, 116472, Note_on_c, 4, 52, 0
6, 116520, Note_on_c, 4, 53, 101
6, 116520, Note_on_c, 4, 57, 101
6, 116712, Note_on_c, 4, 57, 0
6, 116712, Note_on_c, 4, 53, 0
6, 116760, Note_on_c, 4, 55, 110
6, 116760, Note_on_c, 4, 58, 110
6, 116808, Note_on_c, 4, 58, 0
6, 116808, Note_on_c, 4, 55, 0
6, 116820, Note_on_c, 4, 54, 112
6, 116820, Note_on_c, 4, 57, 112
6, 116868, Note_on_c, 4, 57, 0
6, 116868, Note_on_c, 4, 54, 0
6, 116880, Note_on_c, 4, 55, 114
6, 116880, Note_on_c, 4, 58, 114
6, 116928, Note_on_c, 4, 58, 0
6, 116928, Note_on_c, 4, 55, 0
6, 116940, Note_on_c, 4, 60, 116
6, 116940, Note_on_c, 4, 57, 116
6, 116988, Note_on_c, 4, 57, 0
6, 116988, Note_on_c, 4, 60, 0
6, 117000, Note_on_c, 4, 62, 118
6, 117000, Note_on_c, 4, 58, 118
6, 117048, Note_on_c, 4, 58, 0
6, 117048, Note_on_c, 4, 62, 0
6, 117060, Note_on_c, 4, 60, 121
6, 117060, Note_on_c, 4, 64, 121
6, 117108, Note_on_c, 4, 64, 0
6, 117108, Note_on_c, 4, 60, 0
6, 117120, Note_on_c, 4, 65, 123
6, 117120, Note_on_c, 4, 62, 123
6, 117168, Note_on_c, 4, 62, 0
6, 117168, Note_on_c, 4, 65, 0
6, 117180, Note_on_c, 4, 67, 125
6, 117180, Note_on_c, 4, 64, 125
6, 117228, Note_on_c, 4, 64, 0
6, 117228, Note_on_c, 4, 67, 0
6, 117240, Note_on_c, 4, 69, 127
6, 117240, Note_on_c, 4, 65, 127
6, 117540, Note_on_c, 4, 65, 0
6, 117540, Note_on_c, 4, 69, 0
6, 117540, Note_on_c, 4, 60, 127
6, 117540, Note_on_c, 4, 67, 127
6, 117588, Note_on_c, 4, 67, 0
6, 117588, Note_on_c, 4, 60, 0
6, 117600, Note_on_c, 4, 57, 127
6, 117600, Note_on_c, 4, 65, 127
6, 117648, Note_on_c, 4, 65, 0
6, 117648, Note_on_c, 4, 57, 0
6, 117660, Note_on_c, 4, 60, 127
6, 117660, Note_on_c, 4, 67, 127
6, 117708, Note_on_c, 4, 67, 0
6, 117708, Note_on_c, 4, 60, 0
6, 117720, Note_on_c, 4, 65, 127
6, 117720, Note_on_c, 4, 69, 127
6, 118020, Note_on_c, 4, 69, 0
6, 118020, Note_on_c, 4, 65, 0
6, 118020, Note_on_c, 4, 67, 127
6, 118020, Note_on_c, 4, 60, 127
6, 118068, Note_on_c, 4, 60, 0
6, 118068, Note_on_c, 4, 67, 0
6, 118080, Note_on_c, 4, 65, 127
6, 118080, Note_on_c, 4, 57, 127
6, 118128, Note_on_c, 4, 57, 0
6, 118128, Note_on_c, 4, 65, 0
6, 118140, Note_on_c, 4, 67, 127
6, 118140, Note_on_c, 4, 60, 127
6, 118188, Note_on_c, 4, 60, 0
6, 118188, Note_on_c, 4, 67, 0
6, 118200, Note_on_c, 4, 65, 127
6, 118200, Note_on_c, 4, 69, 127
6, 118260, Note_on_c, 4, 69, 0
6, 118260, Note_on_c, 4, 65, 0
6, 118260, Note_on_c, 4, 67, 127
6, 118260, Note_on_c, 4, 60, 127
6, 118308, Note_on_c, 4, 60, 0
6, 118308, Note_on_c, 4, 67, 0
6, 118320, Note_on_c, 4, 65, 127
6, 118320, Note_on_c, 4, 57, 127
6, 118368, Note_on_c, 4, 57, 0
6, 118368, Note_on_c, 4, 65, 0
6, 118380, Note_on_c, 4, 67, 127
6, 118380, Note_on_c, 4, 60, 127
6, 118428, Note_on_c, 4, 60, 0
6, 118428, Note_on_c, 4, 67, 0
6, 118440, Note_on_c, 4, 69, 127
6, 118440, Note_on_c, 4, 65, 127
6, 118500, Note_on_c, 4, 65, 0
6, 118500, Note_on_c, 4, 69, 0
6, 118500, Note_on_c, 4, 60, 127
6, 118500, Note_on_c, 4, 67, 127
6, 118548, Note_on_c, 4, 67, 0
6, 118548, Note_on_c, 4, 60, 0
6, 118560, Note_on_c, 4, 57, 127
6, 118560, Note_on_c, 4, 65, 127
6, 118608, Note_on_c, 4, 65, 0
6, 118608, Note_on_c, 4, 57, 0
6, 118620, Note_on_c, 4, 60, 127
6, 118620, Note_on_c, 4, 67, 127
6, 118668, Note_on_c, 4, 67, 0
6, 118668, Note_on_c, 4, 60, 0
6, 118680, Note_on_c, 4, 69, 127
6, 118680, Note_on_c, 4, 65, 127
6, 118740, Note_on_c, 4, 65, 0
6, 118740, Note_on_c, 4, 69, 0
6, 118740, Note_on_c, 4, 60, 127
6, 118740, Note_on_c, 4, 67, 127
6, 118788, Note_on_c, 4, 67, 0
6, 118788, Note_on_c, 4, 60, 0
6, 118800, Note_on_c, 4, 57, 127
6, 118800, Note_on_c, 4, 65, 127
6, 118848, Note_on_c, 4, 65, 0
6, 118848, Note_on_c, 4, 57, 0
6, 118860, Note_on_c, 4, 60, 127
6, 118860, Note_on_c, 4, 67, 127
6, 118908, Note_on_c, 4, 67, 0
6, 118908, Note_on_c, 4, 60, 0
6, 118920, Note_on_c, 4, 69, 127
6, 118920, Note_on_c, 4, 65, 127
6, 118980, Note_on_c, 4, 65, 0
6, 118980, Note_on_c, 4, 69, 0
6, 118980, Note_on_c, 4, 60, 127
6, 118980, Note_on_c, 4, 67, 127
6, 119028, Note_on_c, 4, 67, 0
6, 119028, Note_on_c, 4, 60, 0
6, 119040, Note_on_c, 4, 57, 127
6, 119040, Note_on_c, 4, 65, 127
6, 119088, Note_on_c, 4, 65, 0
6, 119088, Note_on_c, 4, 57, 0
6, 119100, Note_on_c, 4, 60, 127
6, 119100, Note_on_c, 4, 67, 127
6, 119148, Note_on_c, 4, 67, 0
6, 119148, Note_on_c, 4, 60, 0
6, 119160, Note_on_c, 4, 65, 127
6, 119160, Note_on_c, 4, 69, 127
6, 119208, Note_on_c, 4, 69, 0
6, 119208, Note_on_c, 4, 65, 0
6, 119220, Note_on_c, 4, 67, 127
6, 119268, Note_on_c, 4, 67, 0
6, 119280, Note_on_c, 4, 53, 127
6, 119280, Note_on_c, 4, 65, 127
6, 119328, Note_on_c, 4, 65, 0
6, 119340, Note_on_c, 4, 64, 127
6, 119376, Note_on_c, 4, 53, 0
6, 119388, Note_on_c, 4, 64, 0
6, 119400, Note_on_c, 4, 50, 127
6, 119400, Note_on_c, 4, 65, 127
6, 119448, Note_on_c, 4, 65, 0
6, 119460, Note_on_c, 4, 64, 127
6, 119508, Note_on_c, 4, 64, 0
6, 119520, Note_on_c, 4, 62, 127
6, 119568, Note_on_c, 4, 62, 0
6, 119580, Note_on_c, 4, 61, 127
6, 119592, Note_on_c, 4, 50, 0
6, 119628, Note_on_c, 4, 61, 0
6, 119640, Note_on_c, 4, 46, 127
6, 119640, Note_on_c, 4, 62, 127
6, 119688, Note_on_c, 4, 62, 0
6, 119700, Note_on_c, 4, 60, 127
6, 119736, Note_on_c, 4, 46, 0
6, 119748, Note_on_c, 4, 60, 0
6, 119760, Note_on_c, 4, 43, 127
6, 119760, Note_on_c, 4, 58, 127
6, 119808, Note_on_c, 4, 58, 0
6, 119820, Note_on_c, 4, 57, 127
6, 119856, Note_on_c, 4, 43, 0
6, 119868, Note_on_c, 4, 57, 0
6, 119880, Note_on_c, 4, 48, 127
6, 119880, Note_on_c, 4, 58, 127
6, 119928, Note_on_c, 4, 58, 0
6, 119940, Note_on_c, 4, 55, 127
6, 119976, Note_on_c, 4, 48, 0
6, 119988, Note_on_c, 4, 55, 0
6, 120000, Note_on_c, 4, 48, 127
6, 120000, Note_on_c, 4, 60, 127
6, 120048, Note_on_c, 4, 60, 0
6, 120060, Note_on_c, 4, 60, 127
6, 120096, Note_on_c, 4, 48, 0
6, 120108, Note_on_c, 4, 60, 0
6, 120120, Note_on_c, 4, 65, 127
6, 120120, Note_on_c, 4, 69, 127
6, 120420, Note_on_c, 4, 69, 0
6, 120420, Note_on_c, 4, 65, 0
6, 120420, Note_on_c, 4, 67, 127
6, 120420, Note_on_c, 4, 60, 127
6, 120468, Note_on_c, 4, 60, 0
6, 120468, Note_on_c, 4, 67, 0
6, 120480, Note_on_c, 4, 65, 127
6, 120480, Note_on_c, 4, 57, 127
6, 120528, Note_on_c, 4, 57, 0
6, 120528, Note_on_c, 4, 65, 0
6, 120540, Note_on_c, 4, 67, 127
6, 120540, Note_on_c, 4, 60, 127
6, 120588, Note_on_c, 4, 60, 0
6, 120588, Note_on_c, 4, 67, 0
6, 120600, Note_on_c, 4, 69, 127
6, 120600, Note_on_c, 4, 65, 127
6, 120900, Note_on_c, 4, 65, 0
6, 120900, Note_on_c, 4, 69, 0
6, 120900, Note_on_c, 4, 60, 127
6, 120900, Note_on_c, 4, 67, 127
6, 120948, Note_on_c, 4, 67, 0
6, 120948, Note_on_c, 4, 60, 0
6, 120960, Note_on_c, 4, 57, 127
6, 120960, Note_on_c, 4, 65, 127
6, 121008, Note_on_c, 4, 65, 0
6, 121008, Note_on_c, 4, 57, 0
6, 121020, Note_on_c, 4, 60, 127
6, 121020, Note_on_c, 4, 67, 127
6, 121068, Note_on_c, 4, 67, 0
6, 121068, Note_on_c, 4, 60, 0
6, 121080, Note_on_c, 4, 69, 127
6, 121080, Note_on_c, 4, 65, 127
6, 121140, Note_on_c, 4, 65, 0
6, 121140, Note_on_c, 4, 69, 0
6, 121140, Note_on_c, 4, 60, 127
6, 121140, Note_on_c, 4, 67, 127
6, 121188, Note_on_c, 4, 67, 0
6, 121188, Note_on_c, 4, 60, 0
6, 121200, Note_on_c, 4, 57, 127
6, 121200, Note_on_c, 4, 65, 127
6, 121248, Note_on_c, 4, 65, 0
6, 121248, Note_on_c, 4, 57, 0
6, 121260, Note_on_c, 4, 60, 127
6, 121260, Note_on_c, 4, 67, 127
6, 121308, Note_on_c, 4, 67, 0
6, 121308, Note_on_c, 4, 60, 0
6, 121320, Note_on_c, 4, 65, 127
6, 121320, Note_on_c, 4, 69, 127
6, 121380, Note_on_c, 4, 69, 0
6, 121380, Note_on_c, 4, 65, 0
6, 121380, Note_on_c, 4, 67, 127
6, 121380, Note_on_c, 4, 60, 127
6, 121428, Note_on_c, 4, 60, 0
6, 121428, Note_on_c, 4, 67, 0
6, 121440, Note_on_c, 4, 65, 127
6, 121440, Note_on_c, 4, 57, 127
6, 121488, Note_on_c, 4, 57, 0
6, 121488, Note_on_c, 4, 65, 0
6, 121500, Note_on_c, 4, 67, 127
6, 121500, Note_on_c, 4, 60, 127
6, 121548, Note_on_c, 4, 60, 0
6, 121548, Note_on_c, 4, 67, 0
6, 121560, Note_on_c, 4, 65, 127
6, 121560, Note_on_c, 4, 69, 127
6, 121620, Note_on_c, 4, 69, 0
6, 121620, Note_on_c, 4, 65, 0
6, 121620, Note_on_c, 4, 67, 127
6, 121620, Note_on_c, 4, 60, 127
6, 121668, Note_on_c, 4, 60, 0
6, 121668, Note_on_c, 4, 67, 0
6, 121680, Note_on_c, 4, 65, 127
6, 121680, Note_on_c, 4, 57, 127
6, 121728, Note_on_c, 4, 57, 0
6, 121728, Note_on_c, 4, 65, 0
6, 121740, Note_on_c, 4, 67, 127
6, 121740, Note_on_c, 4, 60, 127
6, 121788, Note_on_c, 4, 60, 0
6, 121788, Note_on_c, 4, 67, 0
6, 121800, Note_on_c, 4, 65, 127
6, 121800, Note_on_c, 4, 69, 127
6, 121860, Note_on_c, 4, 69, 0
6, 121860, Note_on_c, 4, 65, 0
6, 121860, Note_on_c, 4, 67, 127
6, 121860, Note_on_c, 4, 60, 127
6, 121908, Note_on_c, 4, 60, 0
6, 121908, Note_on_c, 4, 67, 0
6, 121920, Note_on_c, 4, 65, 127
6, 121920, Note_on_c, 4, 57, 127
6, 121968, Note_on_c, 4, 57, 0
6, 121968, Note_on_c, 4, 65, 0
6, 121980, Note_on_c, 4, 67, 127
6, 121980, Note_on_c, 4, 60, 127
6, 122028, Note_on_c, 4, 60, 0
6, 122028, Note_on_c, 4, 67, 0
6, 122040, Note_on_c, 4, 69, 127
6, 122040, Note_on_c, 4, 65, 127
6, 122088, Note_on_c, 4, 65, 0
6, 122088, Note_on_c, 4, 69, 0
6, 122100, Note_on_c, 4, 67, 127
6, 122148, Note_on_c, 4, 67, 0
6, 122160, Note_on_c, 4, 65, 127
6, 122160, Note_on_c, 4, 53, 127
6, 122208, Note_on_c, 4, 65, 0
6, 122220, Note_on_c, 4, 64, 127
6, 122256, Note_on_c, 4, 53, 0
6, 122268, Note_on_c, 4, 64, 0
6, 122280, Note_on_c, 4, 65, 127
6, 122280, Note_on_c, 4, 50, 127
6, 122328, Note_on_c, 4, 65, 0
6, 122340, Note_on_c, 4, 64, 127
6, 122388, Note_on_c, 4, 64, 0
6, 122400, Note_on_c, 4, 62, 127
6, 122448, Note_on_c, 4, 62, 0
6, 122460, Note_on_c, 4, 61, 127
6, 122472, Note_on_c, 4, 50, 0
6, 122508, Note_on_c, 4, 61, 0
6, 122520, Note_on_c, 4, 62, 127
6, 122520, Note_on_c, 4, 46, 127
6, 122568, Note_on_c, 4, 62, 0
6, 122580, Note_on_c, 4, 60, 127
6, 122616, Note_on_c, 4, 46, 0
6, 122628, Note_on_c, 4, 60, 0
6, 122640, Note_on_c, 4, 58, 127
6, 122640, Note_on_c, 4, 43, 127
6, 122688, Note_on_c, 4, 58, 0
6, 122700, Note_on_c, 4, 57, 127
6, 122736, Note_on_c, 4, 43, 0
6, 122748, Note_on_c, 4, 57, 0
6, 122760, Note_on_c, 4, 58, 127
6, 122760, Note_on_c, 4, 48, 127
6, 122808, Note_on_c, 4, 58, 0
6, 122820, Note_on_c, 4, 55, 127
6, 122856, Note_on_c, 4, 48, 0
6, 122868, Note_on_c, 4, 55, 0
6, 122880, Note_on_c, 4, 60, 127
6, 122880, Note_on_c, 4, 48, 127
6, 122928, Note_on_c, 4, 60, 0
6, 122940, Note_on_c, 4, 60, 127
6, 122976, Note_on_c, 4, 48, 0
6, 122988, Note_on_c, 4, 60, 0
6, 123000, Note_on_c, 4, 65, 127
6, 123120, Note_on_c, 4, 65, 0
6, 123120, Note_on_c, 4, 63, 127
6, 123240, Note_on_c, 4, 63, 0
6, 123240, Note_on_c, 4, 62, 127
6, 123360, Note_on_c, 4, 62, 0
6, 123360, Note_on_c, 4, 66, 127
6, 123456, Note_on_c, 4, 66, 0
6, 123480, Note_on_c, 4, 67, 127
6, 123600, Note_on_c, 4, 67, 0
6, 123600, Note_on_c, 4, 61, 127
6, 123720, Note_on_c, 4, 61, 0
6, 123720, Note_on_c, 4, 60, 127
6, 123840, Note_on_c, 4, 60, 0
6, 123840, Note_on_c, 4, 64, 127
6, 123936, Note_on_c, 4, 64, 0
6, 123960, Note_on_c, 4, 65, 127
6, 124080, Note_on_c, 4, 65, 0
6, 124080, Note_on_c, 4, 63, 127
6, 124200, Note_on_c, 4, 63, 0
6, 124200, Note_on_c, 4, 62, 127
6, 124320, Note_on_c, 4, 62, 0
6, 124320, Note_on_c, 4, 66, 127
6, 124416, Note_on_c, 4, 66, 0
6, 124440, Note_on_c, 4, 67, 127
6, 124560, Note_on_c, 4, 67, 0
6, 124560, Note_on_c, 4, 61, 127
6, 124680, Note_on_c, 4, 61, 0
6, 124680, Note_on_c, 4, 60, 127
6, 124800, Note_on_c, 4, 60, 0
6, 124800, Note_on_c, 4, 64, 127
6, 124896, Note_on_c, 4, 64, 0
6, 124920, Note_on_c, 4, 65, 127
6, 125040, Note_on_c, 4, 65, 0
6, 125040, Note_on_c, 4, 63, 127
6, 125160, Note_on_c, 4, 63, 0
6, 125160, Note_on_c, 4, 62, 127
6, 125280, Note_on_c, 4, 62, 0
6, 125280, Note_on_c, 4, 66, 127
6, 125376, Note_on_c, 4, 66, 0
6, 125400, Note_on_c, 4, 67, 127
6, 125520, Note_on_c, 4, 67, 0
6, 125520, Note_on_c, 4, 61, 127
6, 125640, Note_on_c, 4, 61, 0
6, 125640, Note_on_c, 4, 60, 127
6, 125760, Note_on_c, 4, 60, 0
6, 125760, Note_on_c, 4, 64, 127
6, 125856, Note_on_c, 4, 64, 0
6, 125880, Note_on_c, 4, 65, 127
6, 125928, Note_on_c, 4, 65, 0
6, 125940, Note_on_c, 4, 57, 127
6, 125964, Note_on_c, 4, 57, 0
6, 125970, Note_on_c, 4, 58, 127
6, 125994, Note_on_c, 4, 58, 0
6, 126000, Note_on_c, 4, 60, 127
6, 126048, Note_on_c, 4, 60, 0
6, 126180, Note_on_c, 4, 57, 127
6, 126196, Note_on_c, 4, 57, 0
6, 126200, Note_on_c, 4, 58, 127
6, 126216, Note_on_c, 4, 58, 0
6, 126220, Note_on_c, 4, 60, 127
6, 126236, Note_on_c, 4, 60, 0
6, 126240, Note_on_c, 4, 62, 127
6, 126288, Note_on_c, 4, 62, 0
6, 126420, Note_on_c, 4, 55, 127
6, 126450, Note_on_c, 4, 55, 0
6, 126450, Note_on_c, 4, 57, 127
6, 126474, Note_on_c, 4, 57, 0
6, 126480, Note_on_c, 4, 58, 127
6, 126528, Note_on_c, 4, 58, 0
6, 126660, Note_on_c, 4, 55, 127
6, 126680, Note_on_c, 4, 55, 0
6, 126680, Note_on_c, 4, 57, 127
6, 126700, Note_on_c, 4, 57, 0
6, 126700, Note_on_c, 4, 58, 127
6, 126716, Note_on_c, 4, 58, 0
6, 126720, Note_on_c, 4, 60, 127
6, 126768, Note_on_c, 4, 60, 0
6, 126780, Note_on_c, 4, 60, 127
6, 126828, Note_on_c, 4, 60, 0
6, 126840, Note_on_c, 4, 53, 127
6, 126840, Note_on_c, 4, 65, 127
6, 126960, Note_on_c, 4, 65, 0
6, 126960, Note_on_c, 4, 53, 0
6, 126960, Note_on_c, 4, 51, 127
6, 126960, Note_on_c, 4, 63, 127
6, 127080, Note_on_c, 4, 63, 0
6, 127080, Note_on_c, 4, 51, 0
6, 127080, Note_on_c, 4, 50, 127
6, 127080, Note_on_c, 4, 62, 127
6, 127200, Note_on_c, 4, 62, 0
6, 127200, Note_on_c, 4, 50, 0
6, 127200, Note_on_c, 4, 54, 127
6, 127200, Note_on_c, 4, 66, 127
6, 127296, Note_on_c, 4, 66, 0
6, 127296, Note_on_c, 4, 54, 0
6, 127320, Note_on_c, 4, 55, 127
6, 127320, Note_on_c, 4, 67, 127
6, 127416, Note_on_c, 4, 55, 0
6, 127440, Note_on_c, 4, 67, 0
6, 127440, Note_on_c, 4, 58, 127
6, 127440, Note_on_c, 4, 61, 127
6, 127560, Note_on_c, 4, 61, 0
6, 127560, Note_on_c, 4, 60, 127
6, 127632, Note_on_c, 4, 58, 0
6, 127680, Note_on_c, 4, 60, 0
6, 127680, Note_on_c, 4, 55, 127
6, 127680, Note_on_c, 4, 64, 127
6, 127776, Note_on_c, 4, 64, 0
6, 127776, Note_on_c, 4, 55, 0
6, 127800, Note_on_c, 4, 53, 127
6, 127992, Note_on_c, 4, 53, 0
6, 128040, Note_on_c, 4, 52, 127
6, 128040, Note_on_c, 4, 55, 127
6, 128232, Note_on_c, 4, 55, 0
6, 128232, Note_on_c, 4, 52, 0
6, 128280, Note_on_c, 4, 53, 127
6, 128280, Note_on_c, 4, 57, 127
6, 128472, Note_on_c, 4, 57, 0
6, 128472, Note_on_c, 4, 53, 0
6, 128520, Note_on_c, 4, 55, 127
6, 128520, Note_on_c, 4, 58, 127
6, 128712, Note_on_c, 4, 58, 0
6, 128712, Note_on_c, 4, 55, 0
6, 128760, Note_on_c, 4, 56, 127
6, 128760, Note_on_c, 4, 59, 127
6, 128856, Note_on_c, 4, 59, 0
6, 128856, Note_on_c, 4, 56, 0
6, 128880, Note_on_c, 4, 57, 127
6, 128880, Note_on_c, 4, 60, 127
6, 129624, Note_on_c, 4, 60, 0
6, 129624, Note_on_c, 4, 57, 0
6, 129720, Note_on_c, 4, 55, 127
6, 129720, Note_on_c, 4, 58, 127
6, 129816, Note_on_c, 4, 58, 0
6, 129816, Note_on_c, 4, 55, 0
6, 129840, Note_on_c, 4, 58, 127
6, 129840, Note_on_c, 4, 55, 127
6, 129936, Note_on_c, 4, 55, 0
6, 129936, Note_on_c, 4, 58, 0
6, 129960, Note_on_c, 4, 58, 127
6, 129960, Note_on_c, 4, 55, 127
6, 130056, Note_on_c, 4, 55, 0
6, 130056, Note_on_c, 4, 58, 0
6, 130080, Note_on_c, 4, 58, 127
6, 130080, Note_on_c, 4, 55, 127
6, 130176, Note_on_c, 4, 55, 0
6, 130176, Note_on_c, 4, 58, 0
6, 130200, Note_on_c, 4, 58, 127
6, 130200, Note_on_c, 4, 55, 127
6, 130296, Note_on_c, 4, 55, 0
6, 130296, Note_on_c, 4, 58, 0
6, 130320, Note_on_c, 4, 58, 127
6, 130320, Note_on_c, 4, 55, 127
6, 130416, Note_on_c, 4, 55, 0
6, 130416, Note_on_c, 4, 58, 0
6, 130440, Note_on_c, 4, 58, 127
6, 130440, Note_on_c, 4, 55, 127
6, 130536, Note_on_c, 4, 55, 0
6, 130536, Note_on_c, 4, 58, 0
6, 130560, Note_on_c, 4, 58, 127
6, 130560, Note_on_c, 4, 55, 127
6, 130656, Note_on_c, 4, 55, 0
6, 130656, Note_on_c, 4, 58, 0
6, 130680, Note_on_c, 4, 53, 127
6, 130824, Note_on_c, 4, 53, 0
6, 130860, Note_on_c, 4, 53, 127
6, 130908, Note_on_c, 4, 53, 0
6, 130920, Note_on_c, 4, 52, 127
6, 130920, Note_on_c, 4, 55, 127
6, 131064, Note_on_c, 4, 55, 0
6, 131064, Note_on_c, 4, 52, 0
6, 131100, Note_on_c, 4, 52, 127
6, 131100, Note_on_c, 4, 55, 127
6, 131148, Note_on_c, 4, 55, 0
6, 131148, Note_on_c, 4, 52, 0
6, 131160, Note_on_c, 4, 53, 127
6, 131160, Note_on_c, 4, 57, 127
6, 131304, Note_on_c, 4, 57, 0
6, 131304, Note_on_c, 4, 53, 0
6, 131340, Note_on_c, 4, 53, 127
6, 131340, Note_on_c, 4, 57, 127
6, 131388, Note_on_c, 4, 57, 0
6, 131388, Note_on_c, 4, 53, 0
6, 131400, Note_on_c, 4, 58, 127
6, 131400, Note_on_c, 4, 55, 127
6, 131544, Note_on_c, 4, 55, 0
6, 131544, Note_on_c, 4, 58, 0
6, 131580, Note_on_c, 4, 55, 127
6, 131580, Note_on_c, 4, 58, 127
6, 131628, Note_on_c, 4, 58, 0
6, 131628, Note_on_c, 4, 55, 0
6, 131640, Note_on_c, 4, 59, 127
6, 131640, Note_on_c, 4, 56, 127
6, 131736, Note_on_c, 4, 56, 0
6, 131736, Note_on_c, 4, 59, 0
6, 131760, Note_on_c, 4, 60, 127
6, 131760, Note_on_c, 4, 57, 127
6, 132504, Note_on_c, 4, 57, 0
6, 132504, Note_on_c, 4, 60, 0
6, 132600, Note_on_c, 4, 58, 127
6, 132600, Note_on_c, 4, 55, 127
6, 132696, Note_on_c, 4, 55, 0
6, 132696, Note_on_c, 4, 58, 0
6, 132720, Note_on_c, 4, 55, 127
6, 132720, Note_on_c, 4, 58, 127
6, 132816, Note_on_c, 4, 58, 0
6, 132816, Note_on_c, 4, 55, 0
6, 132840, Note_on_c, 4, 55, 127
6, 132840, Note_on_c, 4, 58, 127
6, 132936, Note_on_c, 4, 58, 0
6, 132936, Note_on_c, 4, 55, 0
6, 132960, Note_on_c, 4, 55, 127
6, 132960, Note_on_c, 4, 58, 127
6, 133056, Note_on_c, 4, 58, 0
6, 133056, Note_on_c, 4, 55, 0
6, 133080, Note_on_c, 4, 55, 127
6, 133080, Note_on_c, 4, 58, 127
6, 133176, Note_on_c, 4, 58, 0
6, 133176, Note_on_c, 4, 55, 0
6, 133200, Note_on_c, 4, 55, 127
6, 133200, Note_on_c, 4, 58, 127
6, 133296, Note_on_c, 4, 58, 0
6, 133296, Note_on_c, 4, 55, 0
6, 133320, Note_on_c, 4, 55, 127
6, 133320, Note_on_c, 4, 58, 127
6, 133416, Note_on_c, 4, 58, 0
6, 133416, Note_on_c, 4, 55, 0
6, 133440, Note_on_c, 4, 55, 127
6, 133440, Note_on_c, 4, 58, 127
6, 133536, Note_on_c, 4, 58, 0
6, 133536, Note_on_c, 4, 55, 0
6, 133560, Note_on_c, 4, 65, 127
6, 133848, Note_on_c, 4, 65, 0
6, 133920, Note_on_c, 4, 60, 127
6, 134016, Note_on_c, 4, 60, 0
6, 134040, Note_on_c, 4, 65, 127
6, 134136, Note_on_c, 4, 65, 0
6, 134160, Note_on_c, 4, 60, 127
6, 134256, Note_on_c, 4, 60, 0
6, 134280, Note_on_c, 4, 57, 127
6, 134376, Note_on_c, 4, 57, 0
6, 134400, Note_on_c, 4, 60, 127
6, 134496, Note_on_c, 4, 60, 0
6, 134520, Note_on_c, 4, 65, 127
6, 134808, Note_on_c, 4, 65, 0
6, 134880, Note_on_c, 4, 60, 127
6, 134976, Note_on_c, 4, 60, 0
6, 135000, Note_on_c, 4, 65, 127
6, 135096, Note_on_c, 4, 65, 0
6, 135120, Note_on_c, 4, 60, 127
6, 135216, Note_on_c, 4, 60, 0
6, 135240, Note_on_c, 4, 57, 127
6, 135336, Note_on_c, 4, 57, 0
6, 135360, Note_on_c, 4, 60, 127
6, 135456, Note_on_c, 4, 60, 0
6, 135480, Note_on_c, 4, 65, 127
6, 135672, Note_on_c, 4, 65, 0
6, 135720, Note_on_c, 4, 69, 127
6, 135912, Note_on_c, 4, 69, 0
6, 135960, Note_on_c, 4, 60, 127
6, 136248, Note_on_c, 4, 60, 0
6, 136320, Note_on_c, 4, 60, 127
6, 136416, Note_on_c, 4, 60, 0
6, 136440, Note_on_c, 4, 65, 127
6, 136632, Note_on_c, 4, 65, 0
6, 136680, Note_on_c, 4, 69, 127
6, 136872, Note_on_c, 4, 69, 0
6, 136920, Note_on_c, 4, 60, 127
6, 137208, Note_on_c, 4, 60, 0
6, 137280, Note_on_c, 4, 60, 127
6, 137376, Note_on_c, 4, 60, 0
6, 137400, Note_on_c, 4, 65, 127
6, 137592, Note_on_c, 4, 65, 0
6, 137640, Note_on_c, 4, 69, 127
6, 137832, Note_on_c, 4, 69, 0
6, 137880, Note_on_c, 4, 60, 127
6, 138168, Note_on_c, 4, 60, 0
6, 138240, Note_on_c, 4, 48, 127
6, 138336, Note_on_c, 4, 48, 0
6, 138360, Note_on_c, 4, 60, 127
6, 138648, Note_on_c, 4, 60, 0
6, 138720, Note_on_c, 4, 60, 127
6, 138816, Note_on_c, 4, 60, 0
6, 138840, Note_on_c, 4, 60, 127
6, 139128, Note_on_c, 4, 60, 0
6, 139200, Note_on_c, 4, 48, 127
6, 139296, Note_on_c, 4, 48, 0
6, 139320, Note_on_c, 4, 60, 127
6, 140184, Note_on_c, 4, 60, 0
6, 140280, Note_on_c, 4, 53, 127
6, 140280, Note_on_c, 4, 65, 127
6, 140376, Note_on_c, 4, 65, 0
6, 140376, Note_on_c, 4, 53, 0
6, 140400, Note_on_c, 4, 57, 127
6, 140400, Note_on_c, 4, 60, 127
6, 140472, Note_on_c, 4, 60, 0
6, 140472, Note_on_c, 4, 57, 0
6, 140490, Note_on_c, 4, 57, 127
6, 140490, Note_on_c, 4, 60, 127
6, 140514, Note_on_c, 4, 60, 0
6, 140514, Note_on_c, 4, 57, 0
6, 140520, Note_on_c, 4, 53, 127
6, 140520, Note_on_c, 4, 65, 127
6, 140616, Note_on_c, 4, 65, 0
6, 140616, Note_on_c, 4, 53, 0
6, 140640, Note_on_c, 4, 57, 127
6, 140640, Note_on_c, 4, 60, 127
6, 140736, Note_on_c, 4, 60, 0
6, 140736, Note_on_c, 4, 57, 0
6, 140760, Note_on_c, 4, 65, 127
6, 140760, Note_on_c, 4, 53, 127
6, 140856, Note_on_c, 4, 53, 0
6, 140856, Note_on_c, 4, 65, 0
6, 140880, Note_on_c, 4, 60, 127
6, 140880, Note_on_c, 4, 57, 127
6, 140952, Note_on_c, 4, 57, 0
6, 140952, Note_on_c, 4, 60, 0
6, 140970, Note_on_c, 4, 60, 127
6, 140970, Note_on_c, 4, 57, 127
6, 140994, Note_on_c, 4, 57, 0
6, 140994, Note_on_c, 4, 60, 0
6, 141000, Note_on_c, 4, 65, 127
6, 141000, Note_on_c, 4, 53, 127
6, 141096, Note_on_c, 4, 53, 0
6, 141096, Note_on_c, 4, 65, 0
6, 141120, Note_on_c, 4, 60, 127
6, 141120, Note_on_c, 4, 57, 127
6, 141216, Note_on_c, 4, 57, 0
6, 141216, Note_on_c, 4, 60, 0
6, 141240, Note_on_c, 4, 65, 127
6, 141240, Note_on_c, 4, 53, 127
6, 141336, Note_on_c, 4, 53, 0
6, 141336, Note_on_c, 4, 65, 0
6, 141360, Note_on_c, 4, 60, 127
6, 141360, Note_on_c, 4, 57, 127
6, 141432, Note_on_c, 4, 57, 0
6, 141432, Note_on_c, 4, 60, 0
6, 141450, Note_on_c, 4, 60, 127
6, 141450, Note_on_c, 4, 57, 127
6, 141474, Note_on_c, 4, 57, 0
6, 141474, Note_on_c, 4, 60, 0
6, 141480, Note_on_c, 4, 65, 127
6, 141480, Note_on_c, 4, 53, 127
6, 141576, Note_on_c, 4, 53, 0
6, 141576, Note_on_c, 4, 65, 0
6, 141600, Note_on_c, 4, 60, 127
6, 141600, Note_on_c, 4, 57, 127
6, 141696, Note_on_c, 4, 57, 0
6, 141696, Note_on_c, 4, 60, 0
6, 141720, Note_on_c, 4, 53, 127
6, 141720, Note_on_c, 4, 65, 127
6, 141816, Note_on_c, 4, 65, 0
6, 141816, Note_on_c, 4, 53, 0
6, 141960, Note_on_c, 4, 41, 127
6, 141960, Note_on_c, 4, 53, 127
6, 142056, Note_on_c, 4, 53, 0
6, 142056, Note_on_c, 4, 41, 0
6, 142200, Note_on_c, 4, 41, 127
6, 142200, Note_on_c, 4, 53, 127
6, 142296, Note_on_c, 4, 53, 0
6, 142296, Note_on_c, 4, 41, 0
6, 142296, End_track
7, 0, Start_track
7, 0, Title_t, "2 Corni in F"
7, 0, Program_c, 5, 60
7, 0, Control_c, 5, 7, 105
7, 0, Control_c, 5, 10, 31
7, 1440, Note_on_c, 5, 53, 127
7, 1440, Note_on_c, 5, 65, 127
7, 2016, Note_on_c, 5, 65, 0
7, 2016, Note_on_c, 5, 53, 0
7, 7200, Note_on_c, 5, 53, 70
7, 7200, Note_on_c, 5, 65, 70
7, 7776, Note_on_c, 5, 65, 0
7, 7776, Note_on_c, 5, 53, 0
7, 7920, Note_on_c, 5, 48, 127
7, 7920, Note_on_c, 5, 60, 127
7, 8112, Note_on_c, 5, 60, 0
7, 8112, Note_on_c, 5, 48, 0
7, 8160, Note_on_c, 5, 48, 127
7, 8160, Note_on_c, 5, 60, 127
7, 8352, Note_on_c, 5, 60, 0
7, 8352, Note_on_c, 5, 48, 0
7, 8580, Note_on_c, 5, 48, 127
7, 8580, Note_on_c, 5, 60, 127
7, 8628, Note_on_c, 5, 60, 0
7, 8628, Note_on_c, 5, 48, 0
7, 8640, Note_on_c, 5, 67, 127
7, 8832, Note_on_c, 5, 67, 0
7, 8880, Note_on_c, 5, 48, 127
7, 8880, Note_on_c, 5, 60, 127
7, 9072, Note_on_c, 5, 60, 0
7, 9072, Note_on_c, 5, 48, 0
7, 11760, Note_on_c, 5, 53, 50
7, 11952, Note_on_c, 5, 53, 0
7, 12000, Note_on_c, 5, 53, 50
7, 12192, Note_on_c, 5, 53, 0
7, 12480, Note_on_c, 5, 53, 50
7, 12672, Note_on_c, 5, 53, 0
7, 12720, Note_on_c, 5, 53, 50
7, 12912, Note_on_c, 5, 53, 0
7, 14640, Note_on_c, 5, 53, 50
7, 14640, Note_on_c, 5, 65, 50
7, 14832, Note_on_c, 5, 65, 0
7, 14832, Note_on_c, 5, 53, 0
7, 14880, Note_on_c, 5, 53, 50
7, 14880, Note_on_c, 5, 65, 50
7, 15072, Note_on_c, 5, 65, 0
7, 15072, Note_on_c, 5, 53, 0
7, 16980, Note_on_c, 5, 48, 50
7, 16980, Note_on_c, 5, 60, 50
7, 17028, Note_on_c, 5, 60, 0
7, 17028, Note_on_c, 5, 48, 0
7, 17040, Note_on_c, 5, 48, 50
7, 17040, Note_on_c, 5, 60, 50
7, 17136, Note_on_c, 5, 60, 0
7, 17136, Note_on_c, 5, 48, 0
7, 17700, Note_on_c, 5, 60, 50
7, 17700, Note_on_c, 5, 48, 50
7, 17748, Note_on_c, 5, 48, 0
7, 17748, Note_on_c, 5, 60, 0
7, 17760, Note_on_c, 5, 60, 50
7, 17760, Note_on_c, 5, 48, 50
7, 17856, Note_on_c, 5, 48, 0
7, 17856, Note_on_c, 5, 60, 0
7, 18420, Note_on_c, 5, 60, 50
7, 18420, Note_on_c, 5, 48, 50
7, 18468, Note_on_c, 5, 48, 0
7, 18468, Note_on_c, 5, 60, 0
7, 18480, Note_on_c, 5, 60, 50
7, 18480, Note_on_c, 5, 48, 50
7, 18576, Note_on_c, 5, 48, 0
7, 18576, Note_on_c, 5, 60, 0
7, 22920, Note_on_c, 5, 50, 56
7, 23496, Note_on_c, 5, 50, 0
7, 23640, Note_on_c, 5, 62, 56
7, 23640, Note_on_c, 5, 50, 56
7, 24216, Note_on_c, 5, 50, 0
7, 24216, Note_on_c, 5, 62, 0
7, 24360, Note_on_c, 5, 50, 56
7, 24936, Note_on_c, 5, 50, 0
7, 27840, Note_on_c, 5, 48, 86
7, 27840, Note_on_c, 5, 60, 86
7, 27936, Note_on_c, 5, 60, 0
7, 27936, Note_on_c, 5, 48, 0
7, 28200, Note_on_c, 5, 60, 91
7, 28200, Note_on_c, 5, 48, 91
7, 28296, Note_on_c, 5, 48, 0
7, 28296, Note_on_c, 5, 60, 0
7, 28560, Note_on_c, 5, 60, 96
7, 28560, Note_on_c, 5, 48, 96
7, 28656, Note_on_c, 5, 48, 0
7, 28656, Note_on_c, 5, 60, 0
7, 28920, Note_on_c, 5, 60, 101
7, 28920, Note_on_c, 5, 48, 101
7, 29016, Note_on_c, 5, 48, 0
7, 29016, Note_on_c, 5, 60, 0
7, 29280, Note_on_c, 5, 60, 106
7, 29280, Note_on_c, 5, 48, 106
7, 29376, Note_on_c, 5, 48, 0
7, 29376, Note_on_c, 5, 60, 0
7, 29640, Note_on_c, 5, 60, 111
7, 29640, Note_on_c, 5, 48, 111
7, 29736, Note_on_c, 5, 48, 0
7, 29736, Note_on_c, 5, 60, 0
7, 30000, Note_on_c, 5, 60, 116
7, 30000, Note_on_c, 5, 48, 116
7, 30096, Note_on_c, 5, 48, 0
7, 30096, Note_on_c, 5, 60, 0
7, 30360, Note_on_c, 5, 48, 121
7, 30360, Note_on_c, 5, 60, 121
7, 30456, Note_on_c, 5, 60, 0
7, 30456, Note_on_c, 5, 48, 0
7, 30720, Note_on_c, 5, 48, 127
7, 30720, Note_on_c, 5, 60, 127
7, 30816, Note_on_c, 5, 60, 0
7, 30816, Note_on_c, 5, 48, 0
7, 30840, Note_on_c, 5, 48, 127
7, 30840, Note_on_c, 5, 60, 127
7, 31776, Note_on_c, 5, 60, 0
7, 31776, Note_on_c, 5, 48, 0
7, 31800, Note_on_c, 5, 48, 121
7, 31800, Note_on_c, 5, 60, 121
7, 31896, Note_on_c, 5, 60, 0
7, 31896, Note_on_c, 5, 48, 0
7, 31920, Note_on_c, 5, 48, 120
7, 31920, Note_on_c, 5, 60, 120
7, 32016, Note_on_c, 5, 60, 0
7, 32016, Note_on_c, 5, 48, 0
7, 32040, Note_on_c, 5, 48, 119
7, 32040, Note_on_c, 5, 60, 119
7, 32136, Note_on_c, 5, 60, 0
7, 32136, Note_on_c, 5, 48, 0
7, 32280, Note_on_c, 5, 48, 117
7, 32280, Note_on_c, 5, 60, 117
7, 33216, Note_on_c, 5, 60, 0
7, 33216, Note_on_c, 5, 48, 0
7, 33240, Note_on_c, 5, 48, 110
7, 33240, Note_on_c, 5, 60, 110
7, 33336, Note_on_c, 5, 60, 0
7, 33336, Note_on_c, 5, 48, 0
7, 33360, Note_on_c, 5, 48, 109
7, 33360, Note_on_c, 5, 60, 109
7, 33456, Note_on_c, 5, 60, 0
7, 33456, Note_on_c, 5, 48, 0
7, 33480, Note_on_c, 5, 53, 108
7, 33480, Note_on_c, 5, 65, 108
7, 33576, Note_on_c, 5, 65, 0
7, 33576, Note_on_c, 5, 53, 0
7, 33840, Note_on_c, 5, 53, 106
7, 33840, Note_on_c, 5, 65, 106
7, 33936, Note_on_c, 5, 65, 0
7, 33936, Note_on_c, 5, 53, 0
7, 34200, Note_on_c, 5, 53, 103
7, 34200, Note_on_c, 5, 65, 103
7, 34296, Note_on_c, 5, 65, 0
7, 34296, Note_on_c, 5, 53, 0
7, 34560, Note_on_c, 5, 53, 100
7, 34560, Note_on_c, 5, 65, 100
7, 34656, Note_on_c, 5, 65, 0
7, 34656, Note_on_c, 5, 53, 0
7, 34680, Note_on_c, 5, 53, 109
7, 34680, Note_on_c, 5, 65, 109
7, 34776, Note_on_c, 5, 65, 0
7, 34776, Note_on_c, 5, 53, 0
7, 34800, Note_on_c, 5, 53, 118
7, 34800, Note_on_c, 5, 65, 118
7, 34896, Note_on_c, 5, 65, 0
7, 34896, Note_on_c, 5, 53, 0
7, 34920, Note_on_c, 5, 53, 127
7, 34920, Note_on_c, 5, 65, 127
7, 35016, Note_on_c, 5, 65, 0
7, 35016, Note_on_c, 5, 53, 0
7, 35280, Note_on_c, 5, 53, 104
7, 35280, Note_on_c, 5, 65, 104
7, 35376, Note_on_c, 5, 65, 0
7, 35376, Note_on_c, 5, 53, 0
7, 35640, Note_on_c, 5, 53, 112
7, 35640, Note_on_c, 5, 65, 112
7, 35736, Note_on_c, 5, 65, 0
7, 35736, Note_on_c, 5, 53, 0
7, 35880, Note_on_c, 5, 65, 117
7, 35880, Note_on_c, 5, 53, 117
7, 35976, Note_on_c, 5, 53, 0
7, 35976, Note_on_c, 5, 65, 0
7, 36000, Note_on_c, 5, 53, 119
7, 36000, Note_on_c, 5, 65, 119
7, 36096, Note_on_c, 5, 65, 0
7, 36096, Note_on_c, 5, 53, 0
7, 36120, Note_on_c, 5, 53, 122
7, 36120, Note_on_c, 5, 65, 122
7, 36216, Note_on_c, 5, 65, 0
7, 36216, Note_on_c, 5, 53, 0
7, 36360, Note_on_c, 5, 67, 80
7, 36648, Note_on_c, 5, 67, 0
7, 37440, Note_on_c, 5, 67, 80
7, 37728, Note_on_c, 5, 67, 0
7, 37800, Note_on_c, 5, 67, 80
7, 38088, Note_on_c, 5, 67, 0
7, 38520, Note_on_c, 5, 65, 80
7, 38808, Note_on_c, 5, 65, 0
7, 45360, Note_on_c, 5, 67, 70
7, 45648, Note_on_c, 5, 67, 0
7, 45720, Note_on_c, 5, 48, 95
7, 45720, Note_on_c, 5, 60, 95
7, 46008, Note_on_c, 5, 60, 0
7, 46008, Note_on_c, 5, 48, 0
7, 46080, Note_on_c, 5, 65, 95
7, 46368, Note_on_c, 5, 65, 0
7, 46440, Note_on_c, 5, 65, 95
7, 46728, Note_on_c, 5, 65, 0
7, 47160, Note_on_c, 5, 48, 95
7, 47160, Note_on_c, 5, 60, 95
7, 47256, Note_on_c, 5, 60, 0
7, 47256, Note_on_c, 5, 48, 0
7, 47880, Note_on_c, 5, 48, 80
7, 47880, Note_on_c, 5, 60, 80
7, 47976, Note_on_c, 5, 60, 0
7, 47976, Note_on_c, 5, 48, 0
7, 48600, Note_on_c, 5, 48, 80
7, 48600, Note_on_c, 5, 60, 80
7, 48696, Note_on_c, 5, 60, 0
7, 48696, Note_on_c, 5, 48, 0
7, 49080, Note_on_c, 5, 48, 114
7, 49080, Note_on_c, 5, 60, 114
7, 49176, Note_on_c, 5, 60, 0
7, 49176, Note_on_c, 5, 48, 0
7, 49200, Note_on_c, 5, 48, 120
7, 49200, Note_on_c, 5, 60, 120
7, 49296, Note_on_c, 5, 60, 0
7, 49296, Note_on_c, 5, 48, 0
7, 50040, Note_on_c, 5, 48, 127
7, 50040, Note_on_c, 5, 60, 127
7, 50136, Note_on_c, 5, 60, 0
7, 50136, Note_on_c, 5, 48, 0
7, 50760, Note_on_c, 5, 48, 127
7, 50760, Note_on_c, 5, 60, 127
7, 50856, Note_on_c, 5, 60, 0
7, 50856, Note_on_c, 5, 48, 0
7, 51480, Note_on_c, 5, 48, 127
7, 51480, Note_on_c, 5, 60, 127
7, 51576, Note_on_c, 5, 60, 0
7, 51576, Note_on_c, 5, 48, 0
7, 56520, Note_on_c, 5, 53, 50
7, 56520, Note_on_c, 5, 65, 50
7, 57072, Note_on_c, 5, 65, 0
7, 57072, Note_on_c, 5, 53, 0
7, 57120, Note_on_c, 5, 53, 127
7, 57120, Note_on_c, 5, 65, 127
7, 57216, Note_on_c, 5, 65, 0
7, 57216, Note_on_c, 5, 53, 0
7, 57240, Note_on_c, 5, 53, 127
7, 57240, Note_on_c, 5, 65, 127
7, 57336, Note_on_c, 5, 65, 0
7, 57336, Note_on_c, 5, 53, 0
7, 59400, Note_on_c, 5, 53, 50
7, 59400, Note_on_c, 5, 65, 50
7, 59952, Note_on_c, 5, 65, 0
7, 59952, Note_on_c, 5, 53, 0
7, 60000, Note_on_c, 5, 53, 127
7, 60000, Note_on_c, 5, 65, 127
7, 60096, Note_on_c, 5, 65, 0
7, 60096, Note_on_c, 5, 53, 0
7, 60120, Note_on_c, 5, 53, 127
7, 60120, Note_on_c, 5, 65, 127
7, 60216, Note_on_c, 5, 65, 0
7, 60216, Note_on_c, 5, 53, 0
7, 68400, Note_on_c, 5, 48, 64
7, 68400, Note_on_c, 5, 60, 64
7, 68496, Note_on_c, 5, 60, 0
7, 68496, Note_on_c, 5, 48, 0
7, 68520, Note_on_c, 5, 48, 64
7, 68520, Note_on_c, 5, 60, 64
7, 68616, Note_on_c, 5, 60, 0
7, 68616, Note_on_c, 5, 48, 0
7, 68880, Note_on_c, 5, 48, 56
7, 68880, Note_on_c, 5, 60, 56
7, 68976, Note_on_c, 5, 60, 0
7, 68976, Note_on_c, 5, 48, 0
7, 69240, Note_on_c, 5, 60, 56
7, 69240, Note_on_c, 5, 48, 56
7, 69336, Note_on_c, 5, 48, 0
7, 69336, Note_on_c, 5, 60, 0
7, 69600, Note_on_c, 5, 60, 56
7, 69600, Note_on_c, 5, 48, 56
7, 69696, Note_on_c, 5, 48, 0
7, 69696, Note_on_c, 5, 60, 0
7, 69960, Note_on_c, 5, 60, 56
7, 69960, Note_on_c, 5, 48, 56
7, 70056, Note_on_c, 5, 48, 0
7, 70056, Note_on_c, 5, 60, 0
7, 70320, Note_on_c, 5, 60, 56
7, 70320, Note_on_c, 5, 48, 56
7, 70416, Note_on_c, 5, 48, 0
7, 70416, Note_on_c, 5, 60, 0
7, 70680, Note_on_c, 5, 60, 56
7, 70680, Note_on_c, 5, 48, 56
7, 70776, Note_on_c, 5, 48, 0
7, 70776, Note_on_c, 5, 60, 0
7, 71160, Note_on_c, 5, 29, 56
7, 71160, Note_on_c, 5, 41, 56
7, 71736, Note_on_c, 5, 41, 0
7, 71736, Note_on_c, 5, 29, 0
7, 72600, Note_on_c, 5, 29, 56
7, 72600, Note_on_c, 5, 41, 56
7, 73176, Note_on_c, 5, 41, 0
7, 73176, Note_on_c, 5, 29, 0
7, 73560, Note_on_c, 5, 48, 51
7, 73560, Note_on_c, 5, 60, 51
7, 73656, Note_on_c, 5, 60, 0
7, 73656, Note_on_c, 5, 48, 0
7, 73920, Note_on_c, 5, 48, 56
7, 73920, Note_on_c, 5, 60, 56
7, 74016, Note_on_c, 5, 60, 0
7, 74016, Note_on_c, 5, 48, 0
7, 74280, Note_on_c, 5, 60, 61
7, 74280, Note_on_c, 5, 48, 61
7, 74376, Note_on_c, 5, 48, 0
7, 74376, Note_on_c, 5, 60, 0
7, 74640, Note_on_c, 5, 60, 66
7, 74640, Note_on_c, 5, 48, 66
7, 74736, Note_on_c, 5, 48, 0
7, 74736, Note_on_c, 5, 60, 0
7, 75000, Note_on_c, 5, 60, 71
7, 75000, Note_on_c, 5, 48, 71
7, 75096, Note_on_c, 5, 48, 0
7, 75096, Note_on_c, 5, 60, 0
7, 75360, Note_on_c, 5, 60, 76
7, 75360, Note_on_c, 5, 48, 76
7, 75456, Note_on_c, 5, 48, 0
7, 75456, Note_on_c, 5, 60, 0
7, 75720, Note_on_c, 5, 60, 81
7, 75720, Note_on_c, 5, 48, 81
7, 75816, Note_on_c, 5, 48, 0
7, 75816, Note_on_c, 5, 60, 0
7, 76080, Note_on_c, 5, 48, 86
7, 76080, Note_on_c, 5, 60, 86
7, 76176, Note_on_c, 5, 60, 0
7, 76176, Note_on_c, 5, 48, 0
7, 76440, Note_on_c, 5, 48, 91
7, 76440, Note_on_c, 5, 60, 91
7, 76536, Note_on_c, 5, 60, 0
7, 76536, Note_on_c, 5, 48, 0
7, 76800, Note_on_c, 5, 60, 96
7, 76800, Note_on_c, 5, 48, 96
7, 76896, Note_on_c, 5, 48, 0
7, 76896, Note_on_c, 5, 60, 0
7, 77160, Note_on_c, 5, 60, 101
7, 77160, Note_on_c, 5, 48, 101
7, 77256, Note_on_c, 5, 48, 0
7, 77256, Note_on_c, 5, 60, 0
7, 77520, Note_on_c, 5, 60, 106
7, 77520, Note_on_c, 5, 48, 106
7, 77616, Note_on_c, 5, 48, 0
7, 77616, Note_on_c, 5, 60, 0
7, 77880, Note_on_c, 5, 60, 110
7, 77880, Note_on_c, 5, 48, 110
7, 77976, Note_on_c, 5, 48, 0
7, 77976, Note_on_c, 5, 60, 0
7, 78240, Note_on_c, 5, 60, 115
7, 78240, Note_on_c, 5, 48, 115
7, 78336, Note_on_c, 5, 48, 0
7, 78336, Note_on_c, 5, 60, 0
7, 78600, Note_on_c, 5, 48, 120
7, 78600, Note_on_c, 5, 60, 120
7, 78696, Note_on_c, 5, 60, 0
7, 78696, Note_on_c, 5, 48, 0
7, 78960, Note_on_c, 5, 48, 125
7, 78960, Note_on_c, 5, 60, 125
7, 79056, Note_on_c, 5, 60, 0
7, 79056, Note_on_c, 5, 48, 0
7, 79080, Note_on_c, 5, 48, 127
7, 79080, Note_on_c, 5, 60, 127
7, 80016, Note_on_c, 5, 60, 0
7, 80016, Note_on_c, 5, 48, 0
7, 80040, Note_on_c, 5, 48, 127
7, 80040, Note_on_c, 5, 60, 127
7, 80136, Note_on_c, 5, 60, 0
7, 80136, Note_on_c, 5, 48, 0
7, 80160, Note_on_c, 5, 48, 127
7, 80160, Note_on_c, 5, 60, 127
7, 80256, Note_on_c, 5, 60, 0
7, 80256, Note_on_c, 5, 48, 0
7, 80280, Note_on_c, 5, 48, 127
7, 80280, Note_on_c, 5, 60, 127
7, 80376, Note_on_c, 5, 60, 0
7, 80376, Note_on_c, 5, 48, 0
7, 80520, Note_on_c, 5, 48, 127
7, 80520, Note_on_c, 5, 60, 127
7, 81456, Note_on_c, 5, 60, 0
7, 81456, Note_on_c, 5, 48, 0
7, 81480, Note_on_c, 5, 48, 127
7, 81480, Note_on_c, 5, 60, 127
7, 81576, Note_on_c, 5, 60, 0
7, 81576, Note_on_c, 5, 48, 0
7, 81600, Note_on_c, 5, 48, 127
7, 81600, Note_on_c, 5, 60, 127
7, 81696, Note_on_c, 5, 60, 0
7, 81696, Note_on_c, 5, 48, 0
7, 81720, Note_on_c, 5, 53, 127
7, 81720, Note_on_c, 5, 65, 127
7, 81816, Note_on_c, 5, 65, 0
7, 81816, Note_on_c, 5, 53, 0
7, 84120, Note_on_c, 5, 53, 127
7, 84120, Note_on_c, 5, 65, 127
7, 84216, Note_on_c, 5, 65, 0
7, 84216, Note_on_c, 5, 53, 0
7, 84240, Note_on_c, 5, 53, 127
7, 84240, Note_on_c, 5, 65, 127
7, 84336, Note_on_c, 5, 65, 0
7, 84336, Note_on_c, 5, 53, 0
7, 84960, Note_on_c, 5, 53, 127
7, 84960, Note_on_c, 5, 65, 127
7, 85056, Note_on_c, 5, 65, 0
7, 85056, Note_on_c, 5, 53, 0
7, 85680, Note_on_c, 5, 53, 127
7, 85680, Note_on_c, 5, 65, 127
7, 85776, Note_on_c, 5, 65, 0
7, 85776, Note_on_c, 5, 53, 0
7, 86400, Note_on_c, 5, 53, 112
7, 86400, Note_on_c, 5, 65, 112
7, 86496, Note_on_c, 5, 65, 0
7, 86496, Note_on_c, 5, 53, 0
7, 87120, Note_on_c, 5, 67, 127
7, 87768, Note_on_c, 5, 67, 0
7, 87840, Note_on_c, 5, 60, 127
7, 87936, Note_on_c, 5, 60, 0
7, 88200, Note_on_c, 5, 53, 122
7, 88200, Note_on_c, 5, 65, 122
7, 88488, Note_on_c, 5, 65, 0
7, 88488, Note_on_c, 5, 53, 0
7, 88560, Note_on_c, 5, 67, 117
7, 88848, Note_on_c, 5, 67, 0
7, 88920, Note_on_c, 5, 48, 112
7, 88920, Note_on_c, 5, 60, 112
7, 89016, Note_on_c, 5, 60, 0
7, 89016, Note_on_c, 5, 48, 0
7, 89280, Note_on_c, 5, 48, 107
7, 89280, Note_on_c, 5, 60, 107
7, 89568, Note_on_c, 5, 60, 0
7, 89568, Note_on_c, 5, 48, 0
7, 89640, Note_on_c, 5, 53, 102
7, 89640, Note_on_c, 5, 65, 102
7, 89928, Note_on_c, 5, 65, 0
7, 89928, Note_on_c, 5, 53, 0
7, 90000, Note_on_c, 5, 67, 97
7, 90288, Note_on_c, 5, 67, 0
7, 90360, Note_on_c, 5, 48, 92
7, 90360, Note_on_c, 5, 60, 92
7, 90456, Note_on_c, 5, 60, 0
7, 90456, Note_on_c, 5, 48, 0
7, 96840, Note_on_c, 5, 60, 100
7, 96840, Note_on_c, 5, 72, 100
7, 97128, Note_on_c, 5, 72, 0
7, 97128, Note_on_c, 5, 60, 0
7, 97200, Note_on_c, 5, 53, 127
7, 97200, Note_on_c, 5, 65, 127
7, 97296, Note_on_c, 5, 65, 0
7, 97296, Note_on_c, 5, 53, 0
7, 98280, Note_on_c, 5, 48, 127
7, 98280, Note_on_c, 5, 60, 127
7, 98376, Note_on_c, 5, 60, 0
7, 98376, Note_on_c, 5, 48, 0
7, 98400, Note_on_c, 5, 60, 127
7, 98496, Note_on_c, 5, 60, 0
7, 98520, Note_on_c, 5, 60, 127
7, 98616, Note_on_c, 5, 60, 0
7, 98640, Note_on_c, 5, 53, 127
7, 98640, Note_on_c, 5, 65, 127
7, 98736, Note_on_c, 5, 65, 0
7, 98736, Note_on_c, 5, 53, 0
7, 99360, Note_on_c, 5, 53, 127
7, 99360, Note_on_c, 5, 65, 127
7, 99456, Note_on_c, 5, 65, 0
7, 99456, Note_on_c, 5, 53, 0
7, 100080, Note_on_c, 5, 53, 127
7, 100080, Note_on_c, 5, 65, 127
7, 100176, Note_on_c, 5, 65, 0
7, 100176, Note_on_c, 5, 53, 0
7, 100560, Note_on_c, 5, 53, 127
7, 100560, Note_on_c, 5, 65, 127
7, 100656, Note_on_c, 5, 65, 0
7, 100656, Note_on_c, 5, 53, 0
7, 100680, Note_on_c, 5, 53, 127
7, 100680, Note_on_c, 5, 65, 127
7, 100776, Note_on_c, 5, 65, 0
7, 100776, Note_on_c, 5, 53, 0
7, 100800, Note_on_c, 5, 60, 127
7, 101088, Note_on_c, 5, 60, 0
7, 101160, Note_on_c, 5, 60, 127
7, 101448, Note_on_c, 5, 60, 0
7, 101520, Note_on_c, 5, 53, 127
7, 101520, Note_on_c, 5, 65, 127
7, 101808, Note_on_c, 5, 65, 0
7, 101808, Note_on_c, 5, 53, 0
7, 101880, Note_on_c, 5, 60, 127
7, 102168, Note_on_c, 5, 60, 0
7, 102240, Note_on_c, 5, 65, 127
7, 102240, Note_on_c, 5, 53, 127
7, 102528, Note_on_c, 5, 53, 0
7, 102528, Note_on_c, 5, 65, 0
7, 102600, Note_on_c, 5, 60, 127
7, 102888, Note_on_c, 5, 60, 0
7, 102960, Note_on_c, 5, 65, 127
7, 103056, Note_on_c, 5, 65, 0
7, 103080, Note_on_c, 5, 65, 127
7, 103176, Note_on_c, 5, 65, 0
7, 103260, Note_on_c, 5, 65, 127
7, 103308, Note_on_c, 5, 65, 0
7, 103320, Note_on_c, 5, 65, 127
7, 103416, Note_on_c, 5, 65, 0
7, 103440, Note_on_c, 5, 65, 127
7, 103536, Note_on_c, 5, 65, 0
7, 103620, Note_on_c, 5, 65, 127
7, 103668, Note_on_c, 5, 65, 0
7, 103680, Note_on_c, 5, 60, 127
7, 103776, Note_on_c, 5, 60, 0
7, 103800, Note_on_c, 5, 60, 127
7, 103896, Note_on_c, 5, 60, 0
7, 103980, Note_on_c, 5, 60, 127
7, 104028, Note_on_c, 5, 60, 0
7, 104040, Note_on_c, 5, 60, 127
7, 104136, Note_on_c, 5, 60, 0
7, 104160, Note_on_c, 5, 60, 127
7, 104256, Note_on_c, 5, 60, 0
7, 105840, Note_on_c, 5, 65, 127
7, 105936, Note_on_c, 5, 65, 0
7, 105960, Note_on_c, 5, 65, 127
7, 106056, Note_on_c, 5, 65, 0
7, 106140, Note_on_c, 5, 65, 127
7, 106188, Note_on_c, 5, 65, 0
7, 106200, Note_on_c, 5, 65, 127
7, 106296, Note_on_c, 5, 65, 0
7, 106320, Note_on_c, 5, 65, 127
7, 106416, Note_on_c, 5, 65, 0
7, 106500, Note_on_c, 5, 65, 127
7, 106548, Note_on_c, 5, 65, 0
7, 106560, Note_on_c, 5, 65, 127
7, 106656, Note_on_c, 5, 65, 0
7, 106680, Note_on_c, 5, 65, 127
7, 106776, Note_on_c, 5, 65, 0
7, 106860, Note_on_c, 5, 65, 127
7, 106908, Note_on_c, 5, 65, 0
7, 106920, Note_on_c, 5, 65, 127
7, 107016, Note_on_c, 5, 65, 0
7, 107040, Note_on_c, 5, 65, 127
7, 107136, Note_on_c, 5, 65, 0
7, 108720, Note_on_c, 5, 48, 127
7, 108720, Note_on_c, 5, 60, 127
7, 108816, Note_on_c, 5, 60, 0
7, 108816, Note_on_c, 5, 48, 0
7, 108840, Note_on_c, 5, 48, 127
7, 108840, Note_on_c, 5, 60, 127
7, 108936, Note_on_c, 5, 60, 0
7, 108936, Note_on_c, 5, 48, 0
7, 109020, Note_on_c, 5, 48, 127
7, 109020, Note_on_c, 5, 60, 127
7, 109068, Note_on_c, 5, 60, 0
7, 109068, Note_on_c, 5, 48, 0
7, 109080, Note_on_c, 5, 60, 127
7, 109080, Note_on_c, 5, 48, 127
7, 109176, Note_on_c, 5, 48, 0
7, 109176, Note_on_c, 5, 60, 0
7, 109200, Note_on_c, 5, 60, 127
7, 109200, Note_on_c, 5, 48, 127
7, 109296, Note_on_c, 5, 48, 0
7, 109296, Note_on_c, 5, 60, 0
7, 109380, Note_on_c, 5, 48, 127
7, 109380, Note_on_c, 5, 60, 127
7, 109428, Note_on_c, 5, 60, 0
7, 109428, Note_on_c, 5, 48, 0
7, 109440, Note_on_c, 5, 60, 127
7, 109440, Note_on_c, 5, 48, 127
7, 109536, Note_on_c, 5, 48, 0
7, 109536, Note_on_c, 5, 60, 0
7, 109560, Note_on_c, 5, 60, 127
7, 109560, Note_on_c, 5, 48, 127
7, 109656, Note_on_c, 5, 48, 0
7, 109656, Note_on_c, 5, 60, 0
7, 113400, Note_on_c, 5, 48, 50
7, 113400, Note_on_c, 5, 60, 50
7, 113784, Note_on_c, 5, 60, 0
7, 113784, Note_on_c, 5, 48, 0
7, 113880, Note_on_c, 5, 60, 50
7, 113880, Note_on_c, 5, 48, 50
7, 114264, Note_on_c, 5, 48, 0
7, 114264, Note_on_c, 5, 60, 0
7, 114360, Note_on_c, 5, 60, 50
7, 114360, Note_on_c, 5, 48, 50
7, 114744, Note_on_c, 5, 48, 0
7, 114744, Note_on_c, 5, 60, 0
7, 114840, Note_on_c, 5, 60, 50
7, 114840, Note_on_c, 5, 48, 50
7, 115224, Note_on_c, 5, 48, 0
7, 115224, Note_on_c, 5, 60, 0
7, 115320, Note_on_c, 5, 60, 58
7, 115320, Note_on_c, 5, 48, 58
7, 115704, Note_on_c, 5, 48, 0
7, 115704, Note_on_c, 5, 60, 0
7, 115800, Note_on_c, 5, 48, 75
7, 115800, Note_on_c, 5, 60, 75
7, 116184, Note_on_c, 5, 60, 0
7, 116184, Note_on_c, 5, 48, 0
7, 116280, Note_on_c, 5, 48, 93
7, 116280, Note_on_c, 5, 60, 93
7, 116856, Note_on_c, 5, 60, 0
7, 116856, Note_on_c, 5, 48, 0
7, 116880, Note_on_c, 5, 72, 114
7, 116880, Note_on_c, 5, 60, 114
7, 117072, Note_on_c, 5, 60, 0
7, 117072, Note_on_c, 5, 72, 0
7, 117120, Note_on_c, 5, 72, 123
7, 117120, Note_on_c, 5, 60, 123
7, 117216, Note_on_c, 5, 60, 0
7, 117216, Note_on_c, 5, 72, 0
7, 117240, Note_on_c, 5, 65, 127
7, 117240, Note_on_c, 5, 69, 127
7, 117540, Note_on_c, 5, 69, 0
7, 117540, Note_on_c, 5, 65, 0
7, 117540, Note_on_c, 5, 60, 127
7, 117540, Note_on_c, 5, 67, 127
7, 117588, Note_on_c, 5, 67, 0
7, 117588, Note_on_c, 5, 60, 0
7, 117600, Note_on_c, 5, 57, 127
7, 117600, Note_on_c, 5, 65, 127
7, 117648, Note_on_c, 5, 65, 0
7, 117648, Note_on_c, 5, 57, 0
7, 117660, Note_on_c, 5, 60, 127
7, 117660, Note_on_c, 5, 67, 127
7, 117708, Note_on_c, 5, 67, 0
7, 117708, Note_on_c, 5, 60, 0
7, 117720, Note_on_c, 5, 69, 127
7, 117720, Note_on_c, 5, 65, 127
7, 118020, Note_on_c, 5, 65, 0
7, 118020, Note_on_c, 5, 69, 0
7, 118020, Note_on_c, 5, 67, 127
7, 118020, Note_on_c, 5, 60, 127
7, 118068, Note_on_c, 5, 60, 0
7, 118068, Note_on_c, 5, 67, 0
7, 118080, Note_on_c, 5, 65, 127
7, 118080, Note_on_c, 5, 57, 127
7, 118128, Note_on_c, 5, 57, 0
7, 118128, Note_on_c, 5, 65, 0
7, 118140, Note_on_c, 5, 67, 127
7, 118140, Note_on_c, 5, 60, 127
7, 118188, Note_on_c, 5, 60, 0
7, 118188, Note_on_c, 5, 67, 0
7, 118200, Note_on_c, 5, 65, 127
7, 118200, Note_on_c, 5, 69, 127
7, 118248, Note_on_c, 5, 69, 0
7, 118248, Note_on_c, 5, 65, 0
7, 118260, Note_on_c, 5, 60, 127
7, 118260, Note_on_c, 5, 67, 127
7, 118308, Note_on_c, 5, 67, 0
7, 118308, Note_on_c, 5, 60, 0
7, 118320, Note_on_c, 5, 57, 127
7, 118320, Note_on_c, 5, 65, 127
7, 118368, Note_on_c, 5, 65, 0
7, 118368, Note_on_c, 5, 57, 0
7, 118380, Note_on_c, 5, 60, 127
7, 118380, Note_on_c, 5, 67, 127
7, 118428, Note_on_c, 5, 67, 0
7, 118428, Note_on_c, 5, 60, 0
7, 118440, Note_on_c, 5, 69, 127
7, 118440, Note_on_c, 5, 65, 127
7, 118488, Note_on_c, 5, 65, 0
7, 118488, Note_on_c, 5, 69, 0
7, 118500, Note_on_c, 5, 67, 127
7, 118500, Note_on_c, 5, 60, 127
7, 118548, Note_on_c, 5, 60, 0
7, 118548, Note_on_c, 5, 67, 0
7, 118560, Note_on_c, 5, 65, 127
7, 118560, Note_on_c, 5, 57, 127
7, 118608, Note_on_c, 5, 57, 0
7, 118608, Note_on_c, 5, 65, 0
7, 118620, Note_on_c, 5, 67, 127
7, 118620, Note_on_c, 5, 60, 127
7, 118668, Note_on_c, 5, 60, 0
7, 118668, Note_on_c, 5, 67, 0
7, 118680, Note_on_c, 5, 69, 127
7, 118680, Note_on_c, 5, 65, 127
7, 118728, Note_on_c, 5, 65, 0
7, 118728, Note_on_c, 5, 69, 0
7, 118740, Note_on_c, 5, 67, 127
7, 118740, Note_on_c, 5, 60, 127
7, 118788, Note_on_c, 5, 60, 0
7, 118788, Note_on_c, 5, 67, 0
7, 118800, Note_on_c, 5, 65, 127
7, 118800, Note_on_c, 5, 57, 127
7, 118848, Note_on_c, 5, 57, 0
7, 118848, Note_on_c, 5, 65, 0
7, 118860, Note_on_c, 5, 67, 127
7, 118860, Note_on_c, 5, 60, 127
7, 118908, Note_on_c, 5, 60, 0
7, 118908, Note_on_c, 5, 67, 0
7, 118920, Note_on_c, 5, 69, 127
7, 118920, Note_on_c, 5, 65, 127
7, 118968, Note_on_c, 5, 65, 0
7, 118968, Note_on_c, 5, 69, 0
7, 118980, Note_on_c, 5, 67, 127
7, 118980, Note_on_c, 5, 60, 127
7, 119028, Note_on_c, 5, 60, 0
7, 119028, Note_on_c, 5, 67, 0
7, 119040, Note_on_c, 5, 65, 127
7, 119040, Note_on_c, 5, 57, 127
7, 119088, Note_on_c, 5, 57, 0
7, 119088, Note_on_c, 5, 65, 0
7, 119100, Note_on_c, 5, 67, 127
7, 119100, Note_on_c, 5, 60, 127
7, 119148, Note_on_c, 5, 60, 0
7, 119148, Note_on_c, 5, 67, 0
7, 119160, Note_on_c, 5, 65, 127
7, 119160, Note_on_c, 5, 69, 127
7, 119352, Note_on_c, 5, 69, 0
7, 119352, Note_on_c, 5, 65, 0
7, 119400, Note_on_c, 5, 65, 127
7, 119400, Note_on_c, 5, 69, 127
7, 119592, Note_on_c, 5, 69, 0
7, 119592, Note_on_c, 5, 65, 0
7, 119640, Note_on_c, 5, 65, 127
7, 119640, Note_on_c, 5, 67, 127
7, 119832, Note_on_c, 5, 67, 0
7, 119832, Note_on_c, 5, 65, 0
7, 119880, Note_on_c, 5, 60, 127
7, 119880, Note_on_c, 5, 67, 127
7, 120072, Note_on_c, 5, 67, 0
7, 120072, Note_on_c, 5, 60, 0
7, 120120, Note_on_c, 5, 69, 127
7, 120120, Note_on_c, 5, 65, 127
7, 120420, Note_on_c, 5, 65, 0
7, 120420, Note_on_c, 5, 69, 0
7, 120420, Note_on_c, 5, 67, 127
7, 120420, Note_on_c, 5, 60, 127
7, 120468, Note_on_c, 5, 60, 0
7, 120468, Note_on_c, 5, 67, 0
7, 120480, Note_on_c, 5, 65, 127
7, 120480, Note_on_c, 5, 57, 127
7, 120528, Note_on_c, 5, 57, 0
7, 120528, Note_on_c, 5, 65, 0
7, 120540, Note_on_c, 5, 67, 127
7, 120540, Note_on_c, 5, 60, 127
7, 120588, Note_on_c, 5, 60, 0
7, 120588, Note_on_c, 5, 67, 0
7, 120600, Note_on_c, 5, 65, 127
7, 120600, Note_on_c, 5, 69, 127
7, 120900, Note_on_c, 5, 69, 0
7, 120900, Note_on_c, 5, 65, 0
7, 120900, Note_on_c, 5, 60, 127
7, 120900, Note_on_c, 5, 67, 127
7, 120948, Note_on_c, 5, 67, 0
7, 120948, Note_on_c, 5, 60, 0
7, 120960, Note_on_c, 5, 57, 127
7, 120960, Note_on_c, 5, 65, 127
7, 121008, Note_on_c, 5, 65, 0
7, 121008, Note_on_c, 5, 57, 0
7, 121020, Note_on_c, 5, 60, 127
7, 121020, Note_on_c, 5, 67, 127
7, 121068, Note_on_c, 5, 67, 0
7, 121068, Note_on_c, 5, 60, 0
7, 121080, Note_on_c, 5, 69, 127
7, 121080, Note_on_c, 5, 65, 127
7, 121128, Note_on_c, 5, 65, 0
7, 121128, Note_on_c, 5, 69, 0
7, 121140, Note_on_c, 5, 67, 127
7, 121140, Note_on_c, 5, 60, 127
7, 121188, Note_on_c, 5, 60, 0
7, 121188, Note_on_c, 5, 67, 0
7, 121200, Note_on_c, 5, 65, 127
7, 121200, Note_on_c, 5, 57, 127
7, 121248, Note_on_c, 5, 57, 0
7, 121248, Note_on_c, 5, 65, 0
7, 121260, Note_on_c, 5, 67, 127
7, 121260, Note_on_c, 5, 60, 127
7, 121308, Note_on_c, 5, 60, 0
7, 121308, Note_on_c, 5, 67, 0
7, 121320, Note_on_c, 5, 65, 127
7, 121320, Note_on_c, 5, 69, 127
7, 121368, Note_on_c, 5, 69, 0
7, 121368, Note_on_c, 5, 65, 0
7, 121380, Note_on_c, 5, 60, 127
7, 121380, Note_on_c, 5, 67, 127
7, 121428, Note_on_c, 5, 67, 0
7, 121428, Note_on_c, 5, 60, 0
7, 121440, Note_on_c, 5, 57, 127
7, 121440, Note_on_c, 5, 65, 127
7, 121488, Note_on_c, 5, 65, 0
7, 121488, Note_on_c, 5, 57, 0
7, 121500, Note_on_c, 5, 60, 127
7, 121500, Note_on_c, 5, 67, 127
7, 121548, Note_on_c, 5, 67, 0
7, 121548, Note_on_c, 5, 60, 0
7, 121560, Note_on_c, 5, 65, 127
7, 121560, Note_on_c, 5, 69, 127
7, 121608, Note_on_c, 5, 69, 0
7, 121608, Note_on_c, 5, 65, 0
7, 121620, Note_on_c, 5, 60, 127
7, 121620, Note_on_c, 5, 67, 127
7, 121668, Note_on_c, 5, 67, 0
7, 121668, Note_on_c, 5, 60, 0
7, 121680, Note_on_c, 5, 57, 127
7, 121680, Note_on_c, 5, 65, 127
7, 121728, Note_on_c, 5, 65, 0
7, 121728, Note_on_c, 5, 57, 0
7, 121740, Note_on_c, 5, 60, 127
7, 121740, Note_on_c, 5, 67, 127
7, 121788, Note_on_c, 5, 67, 0
7, 121788, Note_on_c, 5, 60, 0
7, 121800, Note_on_c, 5, 65, 127
7, 121800, Note_on_c, 5, 69, 127
7, 121848, Note_on_c, 5, 69, 0
7, 121848, Note_on_c, 5, 65, 0
7, 121860, Note_on_c, 5, 60, 127
7, 121860, Note_on_c, 5, 67, 127
7, 121908, Note_on_c, 5, 67, 0
7, 121908, Note_on_c, 5, 60, 0
7, 121920, Note_on_c, 5, 57, 127
7, 121920, Note_on_c, 5, 65, 127
7, 121968, Note_on_c, 5, 65, 0
7, 121968, Note_on_c, 5, 57, 0
7, 121980, Note_on_c, 5, 60, 127
7, 121980, Note_on_c, 5, 67, 127
7, 122028, Note_on_c, 5, 67, 0
7, 122028, Note_on_c, 5, 60, 0
7, 122040, Note_on_c, 5, 69, 127
7, 122040, Note_on_c, 5, 65, 127
7, 122232, Note_on_c, 5, 65, 0
7, 122232, Note_on_c, 5, 69, 0
7, 122280, Note_on_c, 5, 69, 127
7, 122280, Note_on_c, 5, 65, 127
7, 122472, Note_on_c, 5, 65, 0
7, 122472, Note_on_c, 5, 69, 0
7, 122520, Note_on_c, 5, 67, 127
7, 122520, Note_on_c, 5, 65, 127
7, 122712, Note_on_c, 5, 65, 0
7, 122712, Note_on_c, 5, 67, 0
7, 122760, Note_on_c, 5, 67, 127
7, 122760, Note_on_c, 5, 60, 127
7, 122952, Note_on_c, 5, 60, 0
7, 122952, Note_on_c, 5, 67, 0
7, 123000, Note_on_c, 5, 65, 127
7, 123144, Note_on_c, 5, 65, 0
7, 123480, Note_on_c, 5, 67, 127
7, 123624, Note_on_c, 5, 67, 0
7, 123960, Note_on_c, 5, 65, 127
7, 124104, Note_on_c, 5, 65, 0
7, 124440, Note_on_c, 5, 67, 127
7, 124584, Note_on_c, 5, 67, 0
7, 124920, Note_on_c, 5, 65, 127
7, 125064, Note_on_c, 5, 65, 0
7, 125400, Note_on_c, 5, 67, 127
7, 125544, Note_on_c, 5, 67, 0
7, 125880, Note_on_c, 5, 65, 127
7, 126024, Note_on_c, 5, 65, 0
7, 126120, Note_on_c, 5, 65, 127
7, 126168, Note_on_c, 5, 65, 0
7, 126360, Note_on_c, 5, 67, 127
7, 126504, Note_on_c, 5, 67, 0
7, 126600, Note_on_c, 5, 67, 127
7, 126648, Note_on_c, 5, 67, 0
7, 126840, Note_on_c, 5, 65, 127
7, 126888, Note_on_c, 5, 65, 0
7, 126900, Note_on_c, 5, 65, 127
7, 126948, Note_on_c, 5, 65, 0
7, 127080, Note_on_c, 5, 65, 127
7, 127128, Note_on_c, 5, 65, 0
7, 127140, Note_on_c, 5, 65, 127
7, 127188, Note_on_c, 5, 65, 0
7, 127320, Note_on_c, 5, 67, 127
7, 127368, Note_on_c, 5, 67, 0
7, 127380, Note_on_c, 5, 67, 127
7, 127428, Note_on_c, 5, 67, 0
7, 127560, Note_on_c, 5, 67, 127
7, 127608, Note_on_c, 5, 67, 0
7, 127620, Note_on_c, 5, 67, 127
7, 127668, Note_on_c, 5, 67, 0
7, 127800, Note_on_c, 5, 48, 127
7, 127800, Note_on_c, 5, 60, 127
7, 127992, Note_on_c, 5, 60, 0
7, 127992, Note_on_c, 5, 48, 0
7, 128040, Note_on_c, 5, 48, 127
7, 128040, Note_on_c, 5, 60, 127
7, 128232, Note_on_c, 5, 60, 0
7, 128232, Note_on_c, 5, 48, 0
7, 128280, Note_on_c, 5, 48, 127
7, 128280, Note_on_c, 5, 60, 127
7, 128472, Note_on_c, 5, 60, 0
7, 128472, Note_on_c, 5, 48, 0
7, 128520, Note_on_c, 5, 48, 127
7, 128520, Note_on_c, 5, 60, 127
7, 128712, Note_on_c, 5, 60, 0
7, 128712, Note_on_c, 5, 48, 0
7, 128760, Note_on_c, 5, 48, 127
7, 128760, Note_on_c, 5, 60, 127
7, 128856, Note_on_c, 5, 60, 0
7, 128856, Note_on_c, 5, 48, 0
7, 128880, Note_on_c, 5, 48, 127
7, 128880, Note_on_c, 5, 60, 127
7, 129624, Note_on_c, 5, 60, 0
7, 129624, Note_on_c, 5, 48, 0
7, 129720, Note_on_c, 5, 48, 127
7, 129720, Note_on_c, 5, 60, 127
7, 129816, Note_on_c, 5, 60, 0
7, 129816, Note_on_c, 5, 48, 0
7, 129840, Note_on_c, 5, 60, 127
7, 129840, Note_on_c, 5, 48, 127
7, 129936, Note_on_c, 5, 48, 0
7, 129936, Note_on_c, 5, 60, 0
7, 129960, Note_on_c, 5, 60, 127
7, 129960, Note_on_c, 5, 48, 127
7, 130056, Note_on_c, 5, 48, 0
7, 130056, Note_on_c, 5, 60, 0
7, 130080, Note_on_c, 5, 60, 127
7, 130080, Note_on_c, 5, 48, 127
7, 130176, Note_on_c, 5, 48, 0
7, 130176, Note_on_c, 5, 60, 0
7, 130200, Note_on_c, 5, 60, 127
7, 130200, Note_on_c, 5, 48, 127
7, 130296, Note_on_c, 5, 48, 0
7, 130296, Note_on_c, 5, 60, 0
7, 130320, Note_on_c, 5, 60, 127
7, 130320, Note_on_c, 5, 48, 127
7, 130416, Note_on_c, 5, 48, 0
7, 130416, Note_on_c, 5, 60, 0
7, 130440, Note_on_c, 5, 60, 127
7, 130440, Note_on_c, 5, 48, 127
7, 130536, Note_on_c, 5, 48, 0
7, 130536, Note_on_c, 5, 60, 0
7, 130560, Note_on_c, 5, 60, 127
7, 130560, Note_on_c, 5, 48, 127
7, 130656, Note_on_c, 5, 48, 0
7, 130656, Note_on_c, 5, 60, 0
7, 130680, Note_on_c, 5, 60, 127
7, 130680, Note_on_c, 5, 48, 127
7, 130824, Note_on_c, 5, 48, 0
7, 130824, Note_on_c, 5, 60, 0
7, 130860, Note_on_c, 5, 60, 127
7, 130860, Note_on_c, 5, 48, 127
7, 130917, Note_on_c, 5, 48, 0
7, 130917, Note_on_c, 5, 60, 0
7, 130920, Note_on_c, 5, 48, 127
7, 130920, Note_on_c, 5, 60, 127
7, 131064, Note_on_c, 5, 60, 0
7, 131064, Note_on_c, 5, 48, 0
7, 131100, Note_on_c, 5, 48, 127
7, 131100, Note_on_c, 5, 60, 127
7, 131157, Note_on_c, 5, 60, 0
7, 131157, Note_on_c, 5, 48, 0
7, 131160, Note_on_c, 5, 48, 127
7, 131160, Note_on_c, 5, 60, 127
7, 131304, Note_on_c, 5, 60, 0
7, 131304, Note_on_c, 5, 48, 0
7, 131340, Note_on_c, 5, 48, 127
7, 131340, Note_on_c, 5, 60, 127
7, 131397, Note_on_c, 5, 60, 0
7, 131397, Note_on_c, 5, 48, 0
7, 131400, Note_on_c, 5, 60, 127
7, 131400, Note_on_c, 5, 48, 127
7, 131544, Note_on_c, 5, 48, 0
7, 131544, Note_on_c, 5, 60, 0
7, 131580, Note_on_c, 5, 60, 127
7, 131580, Note_on_c, 5, 48, 127
7, 131637, Note_on_c, 5, 48, 0
7, 131637, Note_on_c, 5, 60, 0
7, 131640, Note_on_c, 5, 60, 127
7, 131640, Note_on_c, 5, 48, 127
7, 131736, Note_on_c, 5, 48, 0
7, 131736, Note_on_c, 5, 60, 0
7, 131760, Note_on_c, 5, 60, 127
7, 131760, Note_on_c, 5, 48, 127
7, 132504, Note_on_c, 5, 48, 0
7, 132504, Note_on_c, 5, 60, 0
7, 132600, Note_on_c, 5, 60, 127
7, 132600, Note_on_c, 5, 48, 127
7, 132696, Note_on_c, 5, 48, 0
7, 132696, Note_on_c, 5, 60, 0
7, 132720, Note_on_c, 5, 48, 127
7, 132720, Note_on_c, 5, 60, 127
7, 132816, Note_on_c, 5, 60, 0
7, 132816, Note_on_c, 5, 48, 0
7, 132840, Note_on_c, 5, 48, 127
7, 132840, Note_on_c, 5, 60, 127
7, 132936, Note_on_c, 5, 60, 0
7, 132936, Note_on_c, 5, 48, 0
7, 132960, Note_on_c, 5, 48, 127
7, 132960, Note_on_c, 5, 60, 127
7, 133056, Note_on_c, 5, 60, 0
7, 133056, Note_on_c, 5, 48, 0
7, 133080, Note_on_c, 5, 48, 127
7, 133080, Note_on_c, 5, 60, 127
7, 133176, Note_on_c, 5, 60, 0
7, 133176, Note_on_c, 5, 48, 0
7, 133200, Note_on_c, 5, 48, 127
7, 133200, Note_on_c, 5, 60, 127
7, 133296, Note_on_c, 5, 60, 0
7, 133296, Note_on_c, 5, 48, 0
7, 133320, Note_on_c, 5, 48, 127
7, 133320, Note_on_c, 5, 60, 127
7, 133416, Note_on_c, 5, 60, 0
7, 133416, Note_on_c, 5, 48, 0
7, 133440, Note_on_c, 5, 48, 127
7, 133440, Note_on_c, 5, 60, 127
7, 133536, Note_on_c, 5, 60, 0
7, 133536, Note_on_c, 5, 48, 0
7, 133560, Note_on_c, 5, 65, 127
7, 133848, Note_on_c, 5, 65, 0
7, 133920, Note_on_c, 5, 60, 127
7, 134016, Note_on_c, 5, 60, 0
7, 134040, Note_on_c, 5, 65, 127
7, 134136, Note_on_c, 5, 65, 0
7, 134160, Note_on_c, 5, 60, 127
7, 134256, Note_on_c, 5, 60, 0
7, 134280, Note_on_c, 5, 57, 127
7, 134376, Note_on_c, 5, 57, 0
7, 134400, Note_on_c, 5, 60, 127
7, 134496, Note_on_c, 5, 60, 0
7, 134520, Note_on_c, 5, 65, 127
7, 134808, Note_on_c, 5, 65, 0
7, 134880, Note_on_c, 5, 60, 127
7, 134976, Note_on_c, 5, 60, 0
7, 135000, Note_on_c, 5, 65, 127
7, 135096, Note_on_c, 5, 65, 0
7, 135120, Note_on_c, 5, 60, 127
7, 135216, Note_on_c, 5, 60, 0
7, 135240, Note_on_c, 5, 57, 127
7, 135336, Note_on_c, 5, 57, 0
7, 135360, Note_on_c, 5, 60, 127
7, 135456, Note_on_c, 5, 60, 0
7, 135480, Note_on_c, 5, 65, 127
7, 135672, Note_on_c, 5, 65, 0
7, 135720, Note_on_c, 5, 69, 127
7, 135912, Note_on_c, 5, 69, 0
7, 135960, Note_on_c, 5, 72, 127
7, 136248, Note_on_c, 5, 72, 0
7, 136320, Note_on_c, 5, 60, 127
7, 136416, Note_on_c, 5, 60, 0
7, 136440, Note_on_c, 5, 65, 127
7, 136632, Note_on_c, 5, 65, 0
7, 136680, Note_on_c, 5, 69, 127
7, 136872, Note_on_c, 5, 69, 0
7, 136920, Note_on_c, 5, 72, 127
7, 137208, Note_on_c, 5, 72, 0
7, 137280, Note_on_c, 5, 60, 127
7, 137376, Note_on_c, 5, 60, 0
7, 137400, Note_on_c, 5, 65, 127
7, 137592, Note_on_c, 5, 65, 0
7, 137640, Note_on_c, 5, 69, 127
7, 137832, Note_on_c, 5, 69, 0
7, 137880, Note_on_c, 5, 72, 127
7, 138168, Note_on_c, 5, 72, 0
7, 138240, Note_on_c, 5, 60, 127
7, 138336, Note_on_c, 5, 60, 0
7, 138360, Note_on_c, 5, 72, 127
7, 138648, Note_on_c, 5, 72, 0
7, 138720, Note_on_c, 5, 60, 127
7, 138816, Note_on_c, 5, 60, 0
7, 138840, Note_on_c, 5, 72, 127
7, 139128, Note_on_c, 5, 72, 0
7, 139200, Note_on_c, 5, 60, 127
7, 139296, Note_on_c, 5, 60, 0
7, 139320, Note_on_c, 5, 72, 127
7, 140184, Note_on_c, 5, 72, 0
7, 140280, Note_on_c, 5, 65, 127
7, 140280, Note_on_c, 5, 69, 127
7, 140376, Note_on_c, 5, 69, 0
7, 140376, Note_on_c, 5, 65, 0
7, 140400, Note_on_c, 5, 60, 127
7, 140400, Note_on_c, 5, 72, 127
7, 140472, Note_on_c, 5, 72, 0
7, 140472, Note_on_c, 5, 60, 0
7, 140490, Note_on_c, 5, 60, 127
7, 140490, Note_on_c, 5, 72, 127
7, 140514, Note_on_c, 5, 72, 0
7, 140514, Note_on_c, 5, 60, 0
7, 140520, Note_on_c, 5, 65, 127
7, 140520, Note_on_c, 5, 69, 127
7, 140616, Note_on_c, 5, 69, 0
7, 140616, Note_on_c, 5, 65, 0
7, 140640, Note_on_c, 5, 60, 127
7, 140640, Note_on_c, 5, 72, 127
7, 140736, Note_on_c, 5, 72, 0
7, 140736, Note_on_c, 5, 60, 0
7, 140760, Note_on_c, 5, 69, 127
7, 140760, Note_on_c, 5, 65, 127
7, 140856, Note_on_c, 5, 65, 0
7, 140856, Note_on_c, 5, 69, 0
7, 140880, Note_on_c, 5, 72, 127
7, 140880, Note_on_c, 5, 60, 127
7, 140952, Note_on_c, 5, 60, 0
7, 140952, Note_on_c, 5, 72, 0
7, 140970, Note_on_c, 5, 72, 127
7, 140970, Note_on_c, 5, 60, 127
7, 140994, Note_on_c, 5, 60, 0
7, 140994, Note_on_c, 5, 72, 0
7, 141000, Note_on_c, 5, 69, 127
7, 141000, Note_on_c, 5, 65, 127
7, 141096, Note_on_c, 5, 65, 0
7, 141096, Note_on_c, 5, 69, 0
7, 141120, Note_on_c, 5, 72, 127
7, 141120, Note_on_c, 5, 60, 127
7, 141216, Note_on_c, 5, 60, 0
7, 141216, Note_on_c, 5, 72, 0
7, 141240, Note_on_c, 5, 69, 127
7, 141240, Note_on_c, 5, 65, 127
7, 141336, Note_on_c, 5, 65, 0
7, 141336, Note_on_c, 5, 69, 0
7, 141360, Note_on_c, 5, 72, 127
7, 141360, Note_on_c, 5, 60, 127
7, 141432, Note_on_c, 5, 60, 0
7, 141432, Note_on_c, 5, 72, 0
7, 141450, Note_on_c, 5, 72, 127
7, 141450, Note_on_c, 5, 60, 127
7, 141474, Note_on_c, 5, 60, 0
7, 141474, Note_on_c, 5, 72, 0
7, 141480, Note_on_c, 5, 69, 127
7, 141480, Note_on_c, 5, 65, 127
7, 141576, Note_on_c, 5, 65, 0
7, 141576, Note_on_c, 5, 69, 0
7, 141600, Note_on_c, 5, 72, 127
7, 141600, Note_on_c, 5, 60, 127
7, 141696, Note_on_c, 5, 60, 0
7, 141696, Note_on_c, 5, 72, 0
7, 141720, Note_on_c, 5, 57, 127
7, 141720, Note_on_c, 5, 65, 127
7, 141816, Note_on_c, 5, 65, 0
7, 141816, Note_on_c, 5, 57, 0
7, 141960, Note_on_c, 5, 65, 127
7, 141960, Note_on_c, 5, 57, 127
7, 142056, Note_on_c, 5, 57, 0
7, 142056, Note_on_c, 5, 65, 0
7, 142200, Note_on_c, 5, 57, 127
7, 142200, Note_on_c, 5, 65, 127
7, 142296, Note_on_c, 5, 65, 0
7, 142296, Note_on_c, 5, 57, 0
7, 142296, End_track
8, 0, Start_track
8, 0, Title_t, "2 Corni in Es"
8, 0, Program_c, 6, 60
8, 0, Control_c, 6, 7, 105
8, 0, Control_c, 6, 10, 29
8, 1440, Note_on_c, 6, 65, 127
8, 2016, Note_on_c, 6, 65, 0
8, 7200, Note_on_c, 6, 65, 70
8, 7776, Note_on_c, 6, 65, 0
8, 7920, Note_on_c, 6, 65, 127
8, 8112, Note_on_c, 6, 65, 0
8, 8160, Note_on_c, 6, 65, 127
8, 8352, Note_on_c, 6, 65, 0
8, 8580, Note_on_c, 6, 65, 127
8, 8628, Note_on_c, 6, 65, 0
8, 8640, Note_on_c, 6, 51, 127
8, 8640, Note_on_c, 6, 63, 127
8, 8832, Note_on_c, 6, 63, 0
8, 8832, Note_on_c, 6, 51, 0
8, 8880, Note_on_c, 6, 51, 127
8, 8880, Note_on_c, 6, 63, 127
8, 9072, Note_on_c, 6, 63, 0
8, 9072, Note_on_c, 6, 51, 0
8, 11760, Note_on_c, 6, 65, 50
8, 11952, Note_on_c, 6, 65, 0
8, 12000, Note_on_c, 6, 65, 50
8, 12192, Note_on_c, 6, 65, 0
8, 12480, Note_on_c, 6, 65, 50
8, 12672, Note_on_c, 6, 65, 0
8, 12720, Note_on_c, 6, 65, 50
8, 12912, Note_on_c, 6, 65, 0
8, 13200, Note_on_c, 6, 63, 50
8, 13392, Note_on_c, 6, 63, 0
8, 13440, Note_on_c, 6, 63, 50
8, 13632, Note_on_c, 6, 63, 0
8, 13920, Note_on_c, 6, 63, 50
8, 14112, Note_on_c, 6, 63, 0
8, 14160, Note_on_c, 6, 63, 50
8, 14352, Note_on_c, 6, 63, 0
8, 14640, Note_on_c, 6, 58, 50
8, 14832, Note_on_c, 6, 58, 0
8, 14880, Note_on_c, 6, 65, 50
8, 15072, Note_on_c, 6, 65, 0
8, 15360, Note_on_c, 6, 58, 50
8, 15552, Note_on_c, 6, 58, 0
8, 15600, Note_on_c, 6, 58, 50
8, 15792, Note_on_c, 6, 58, 0
8, 16080, Note_on_c, 6, 58, 50
8, 16080, Note_on_c, 6, 67, 50
8, 16272, Note_on_c, 6, 67, 0
8, 16272, Note_on_c, 6, 58, 0
8, 16320, Note_on_c, 6, 58, 50
8, 16320, Note_on_c, 6, 67, 50
8, 16512, Note_on_c, 6, 67, 0
8, 16512, Note_on_c, 6, 58, 0
8, 23640, Note_on_c, 6, 65, 80
8, 24216, Note_on_c, 6, 65, 0
8, 30840, Note_on_c, 6, 65, 127
8, 30840, Note_on_c, 6, 68, 127
8, 31776, Note_on_c, 6, 68, 0
8, 31776, Note_on_c, 6, 65, 0
8, 31800, Note_on_c, 6, 65, 121
8, 31800, Note_on_c, 6, 68, 121
8, 31896, Note_on_c, 6, 68, 0
8, 31896, Note_on_c, 6, 65, 0
8, 31920, Note_on_c, 6, 65, 120
8, 31920, Note_on_c, 6, 68, 120
8, 32016, Note_on_c, 6, 68, 0
8, 32016, Note_on_c, 6, 65, 0
8, 32040, Note_on_c, 6, 67, 119
8, 32136, Note_on_c, 6, 67, 0
8, 32280, Note_on_c, 6, 67, 117
8, 32400, Note_on_c, 6, 58, 116
8, 33216, Note_on_c, 6, 58, 0
8, 33216, Note_on_c, 6, 67, 0
8, 33240, Note_on_c, 6, 58, 110
8, 33240, Note_on_c, 6, 67, 110
8, 33336, Note_on_c, 6, 67, 0
8, 33336, Note_on_c, 6, 58, 0
8, 33360, Note_on_c, 6, 67, 109
8, 33456, Note_on_c, 6, 67, 0
8, 33480, Note_on_c, 6, 65, 108
8, 33576, Note_on_c, 6, 65, 0
8, 33840, Note_on_c, 6, 65, 106
8, 33936, Note_on_c, 6, 65, 0
8, 34200, Note_on_c, 6, 65, 103
8, 34296, Note_on_c, 6, 65, 0
8, 34560, Note_on_c, 6, 65, 100
8, 34656, Note_on_c, 6, 65, 0
8, 34680, Note_on_c, 6, 65, 109
8, 34776, Note_on_c, 6, 65, 0
8, 34800, Note_on_c, 6, 65, 118
8, 34896, Note_on_c, 6, 65, 0
8, 34920, Note_on_c, 6, 65, 127
8, 35016, Note_on_c, 6, 65, 0
8, 35280, Note_on_c, 6, 65, 104
8, 35376, Note_on_c, 6, 65, 0
8, 35640, Note_on_c, 6, 65, 112
8, 35736, Note_on_c, 6, 65, 0
8, 35880, Note_on_c, 6, 65, 117
8, 35976, Note_on_c, 6, 65, 0
8, 36000, Note_on_c, 6, 68, 119
8, 36096, Note_on_c, 6, 68, 0
8, 36120, Note_on_c, 6, 68, 122
8, 36216, Note_on_c, 6, 68, 0
8, 36240, Note_on_c, 6, 68, 124
8, 36336, Note_on_c, 6, 68, 0
8, 36360, Note_on_c, 6, 51, 80
8, 36360, Note_on_c, 6, 63, 80
8, 36648, Note_on_c, 6, 63, 0
8, 36648, Note_on_c, 6, 51, 0
8, 36720, Note_on_c, 6, 51, 80
8, 36720, Note_on_c, 6, 63, 80
8, 37008, Note_on_c, 6, 63, 0
8, 37008, Note_on_c, 6, 51, 0
8, 37080, Note_on_c, 6, 51, 80
8, 37080, Note_on_c, 6, 63, 80
8, 37368, Note_on_c, 6, 63, 0
8, 37368, Note_on_c, 6, 51, 0
8, 37440, Note_on_c, 6, 51, 80
8, 37440, Note_on_c, 6, 63, 80
8, 37728, Note_on_c, 6, 63, 0
8, 37728, Note_on_c, 6, 51, 0
8, 37800, Note_on_c, 6, 51, 80
8, 37800, Note_on_c, 6, 63, 80
8, 38088, Note_on_c, 6, 63, 0
8, 38088, Note_on_c, 6, 51, 0
8, 38160, Note_on_c, 6, 51, 80
8, 38160, Note_on_c, 6, 63, 80
8, 38448, Note_on_c, 6, 63, 0
8, 38448, Note_on_c, 6, 51, 0
8, 38520, Note_on_c, 6, 51, 80
8, 38520, Note_on_c, 6, 63, 80
8, 38808, Note_on_c, 6, 63, 0
8, 38808, Note_on_c, 6, 51, 0
8, 38880, Note_on_c, 6, 51, 80
8, 38880, Note_on_c, 6, 63, 80
8, 38976, Note_on_c, 6, 63, 0
8, 38976, Note_on_c, 6, 51, 0
8, 39960, Note_on_c, 6, 63, 50
8, 40608, Note_on_c, 6, 63, 0
8, 41400, Note_on_c, 6, 63, 50
8, 42048, Note_on_c, 6, 63, 0
8, 45000, Note_on_c, 6, 58, 67
8, 45000, Note_on_c, 6, 65, 67
8, 45288, Note_on_c, 6, 65, 0
8, 45288, Note_on_c, 6, 58, 0
8, 45360, Note_on_c, 6, 51, 70
8, 45360, Note_on_c, 6, 63, 70
8, 45648, Note_on_c, 6, 63, 0
8, 45648, Note_on_c, 6, 51, 0
8, 45720, Note_on_c, 6, 51, 95
8, 45720, Note_on_c, 6, 63, 95
8, 45816, Note_on_c, 6, 63, 0
8, 45816, Note_on_c, 6, 51, 0
8, 45840, Note_on_c, 6, 51, 95
8, 45840, Note_on_c, 6, 63, 95
8, 45936, Note_on_c, 6, 63, 0
8, 45936, Note_on_c, 6, 51, 0
8, 45960, Note_on_c, 6, 51, 95
8, 45960, Note_on_c, 6, 63, 95
8, 46056, Note_on_c, 6, 63, 0
8, 46056, Note_on_c, 6, 51, 0
8, 46080, Note_on_c, 6, 65, 95
8, 46176, Note_on_c, 6, 65, 0
8, 46200, Note_on_c, 6, 65, 95
8, 46296, Note_on_c, 6, 65, 0
8, 46320, Note_on_c, 6, 65, 95
8, 46536, Note_on_c, 6, 65, 0
8, 46560, Note_on_c, 6, 65, 95
8, 46656, Note_on_c, 6, 65, 0
8, 46680, Note_on_c, 6, 65, 95
8, 46896, Note_on_c, 6, 65, 0
8, 46920, Note_on_c, 6, 51, 95
8, 46920, Note_on_c, 6, 63, 95
8, 47016, Note_on_c, 6, 63, 0
8, 47016, Note_on_c, 6, 51, 0
8, 47040, Note_on_c, 6, 51, 95
8, 47040, Note_on_c, 6, 63, 95
8, 47136, Note_on_c, 6, 63, 0
8, 47136, Note_on_c, 6, 51, 0
8, 47160, Note_on_c, 6, 51, 95
8, 47160, Note_on_c, 6, 63, 95
8, 47256, Note_on_c, 6, 63, 0
8, 47256, Note_on_c, 6, 51, 0
8, 47880, Note_on_c, 6, 51, 80
8, 47880, Note_on_c, 6, 63, 80
8, 47976, Note_on_c, 6, 63, 0
8, 47976, Note_on_c, 6, 51, 0
8, 48600, Note_on_c, 6, 51, 80
8, 48600, Note_on_c, 6, 63, 80
8, 48696, Note_on_c, 6, 63, 0
8, 48696, Note_on_c, 6, 51, 0
8, 49080, Note_on_c, 6, 51, 114
8, 49080, Note_on_c, 6, 63, 114
8, 49176, Note_on_c, 6, 63, 0
8, 49176, Note_on_c, 6, 51, 0
8, 49200, Note_on_c, 6, 51, 120
8, 49200, Note_on_c, 6, 63, 120
8, 49296, Note_on_c, 6, 63, 0
8, 49296, Note_on_c, 6, 51, 0
8, 49320, Note_on_c, 6, 51, 127
8, 49320, Note_on_c, 6, 63, 127
8, 49608, Note_on_c, 6, 63, 0
8, 49608, Note_on_c, 6, 51, 0
8, 49680, Note_on_c, 6, 51, 127
8, 49680, Note_on_c, 6, 63, 127
8, 49968, Note_on_c, 6, 63, 0
8, 49968, Note_on_c, 6, 51, 0
8, 50040, Note_on_c, 6, 51, 127
8, 50040, Note_on_c, 6, 63, 127
8, 50328, Note_on_c, 6, 63, 0
8, 50328, Note_on_c, 6, 51, 0
8, 50400, Note_on_c, 6, 51, 127
8, 50400, Note_on_c, 6, 63, 127
8, 50688, Note_on_c, 6, 63, 0
8, 50688, Note_on_c, 6, 51, 0
8, 50760, Note_on_c, 6, 51, 127
8, 50760, Note_on_c, 6, 63, 127
8, 51048, Note_on_c, 6, 63, 0
8, 51048, Note_on_c, 6, 51, 0
8, 51120, Note_on_c, 6, 51, 127
8, 51120, Note_on_c, 6, 63, 127
8, 51408, Note_on_c, 6, 63, 0
8, 51408, Note_on_c, 6, 51, 0
8, 51480, Note_on_c, 6, 51, 127
8, 51480, Note_on_c, 6, 63, 127
8, 51576, Note_on_c, 6, 63, 0
8, 51576, Note_on_c, 6, 51, 0
8, 53640, Note_on_c, 6, 51, 50
8, 53640, Note_on_c, 6, 63, 50
8, 54192, Note_on_c, 6, 63, 0
8, 54192, Note_on_c, 6, 51, 0
8, 54240, Note_on_c, 6, 63, 127
8, 54336, Note_on_c, 6, 63, 0
8, 54360, Note_on_c, 6, 63, 127
8, 54456, Note_on_c, 6, 63, 0
8, 57000, Note_on_c, 6, 65, 50
8, 57096, Note_on_c, 6, 65, 0
8, 57240, Note_on_c, 6, 65, 127
8, 57336, Note_on_c, 6, 65, 0
8, 60000, Note_on_c, 6, 65, 127
8, 60096, Note_on_c, 6, 65, 0
8, 60120, Note_on_c, 6, 65, 127
8, 60216, Note_on_c, 6, 65, 0
8, 62160, Note_on_c, 6, 67, 50
8, 62160, Note_on_c, 6, 55, 50
8, 63192, Note_on_c, 6, 55, 0
8, 63192, Note_on_c, 6, 67, 0
8, 63240, Note_on_c, 6, 55, 66
8, 63240, Note_on_c, 6, 67, 66
8, 63456, Note_on_c, 6, 67, 0
8, 63456, Note_on_c, 6, 55, 0
8, 63600, Note_on_c, 6, 55, 76
8, 63600, Note_on_c, 6, 67, 76
8, 64632, Note_on_c, 6, 67, 0
8, 64632, Note_on_c, 6, 55, 0
8, 64680, Note_on_c, 6, 55, 106
8, 64680, Note_on_c, 6, 67, 106
8, 64776, Note_on_c, 6, 67, 0
8, 64776, Note_on_c, 6, 55, 0
8, 66240, Note_on_c, 6, 67, 50
8, 66336, Note_on_c, 6, 67, 0
8, 66600, Note_on_c, 6, 67, 50
8, 66696, Note_on_c, 6, 67, 0
8, 66960, Note_on_c, 6, 67, 50
8, 68232, Note_on_c, 6, 67, 0
8, 68280, Note_on_c, 6, 65, 78
8, 68376, Note_on_c, 6, 65, 0
8, 68520, Note_on_c, 6, 65, 45
8, 68616, Note_on_c, 6, 65, 0
8, 68880, Note_on_c, 6, 65, 56
8, 68976, Note_on_c, 6, 65, 0
8, 69240, Note_on_c, 6, 65, 56
8, 69336, Note_on_c, 6, 65, 0
8, 71880, Note_on_c, 6, 65, 56
8, 72456, Note_on_c, 6, 65, 0
8, 79080, Note_on_c, 6, 65, 127
8, 79080, Note_on_c, 6, 68, 127
8, 80016, Note_on_c, 6, 68, 0
8, 80016, Note_on_c, 6, 65, 0
8, 80040, Note_on_c, 6, 65, 127
8, 80040, Note_on_c, 6, 68, 127
8, 80136, Note_on_c, 6, 68, 0
8, 80136, Note_on_c, 6, 65, 0
8, 80160, Note_on_c, 6, 65, 127
8, 80160, Note_on_c, 6, 68, 127
8, 80256, Note_on_c, 6, 68, 0
8, 80256, Note_on_c, 6, 65, 0
8, 80280, Note_on_c, 6, 67, 127
8, 80376, Note_on_c, 6, 67, 0
8, 80520, Note_on_c, 6, 67, 127
8, 80640, Note_on_c, 6, 58, 127
8, 81456, Note_on_c, 6, 58, 0
8, 81456, Note_on_c, 6, 67, 0
8, 81480, Note_on_c, 6, 58, 127
8, 81480, Note_on_c, 6, 67, 127
8, 81576, Note_on_c, 6, 67, 0
8, 81576, Note_on_c, 6, 58, 0
8, 81600, Note_on_c, 6, 67, 127
8, 81696, Note_on_c, 6, 67, 0
8, 81720, Note_on_c, 6, 65, 127
8, 81816, Note_on_c, 6, 65, 0
8, 82680, Note_on_c, 6, 65, 127
8, 82992, Note_on_c, 6, 65, 0
8, 83040, Note_on_c, 6, 65, 127
8, 83136, Note_on_c, 6, 65, 0
8, 83160, Note_on_c, 6, 65, 127
8, 83256, Note_on_c, 6, 65, 0
8, 84120, Note_on_c, 6, 65, 127
8, 84120, Note_on_c, 6, 68, 127
8, 84216, Note_on_c, 6, 68, 0
8, 84216, Note_on_c, 6, 65, 0
8, 84240, Note_on_c, 6, 65, 127
8, 84336, Note_on_c, 6, 65, 0
8, 84600, Note_on_c, 6, 63, 127
8, 84696, Note_on_c, 6, 63, 0
8, 84960, Note_on_c, 6, 65, 127
8, 85056, Note_on_c, 6, 65, 0
8, 85440, Note_on_c, 6, 63, 127
8, 85536, Note_on_c, 6, 63, 0
8, 85560, Note_on_c, 6, 63, 127
8, 85656, Note_on_c, 6, 63, 0
8, 85680, Note_on_c, 6, 65, 127
8, 85776, Note_on_c, 6, 65, 0
8, 86040, Note_on_c, 6, 63, 105
8, 86136, Note_on_c, 6, 63, 0
8, 86400, Note_on_c, 6, 65, 112
8, 86496, Note_on_c, 6, 65, 0
8, 86760, Note_on_c, 6, 51, 119
8, 86760, Note_on_c, 6, 63, 119
8, 86856, Note_on_c, 6, 63, 0
8, 86856, Note_on_c, 6, 51, 0
8, 86880, Note_on_c, 6, 51, 122
8, 86880, Note_on_c, 6, 63, 122
8, 86976, Note_on_c, 6, 63, 0
8, 86976, Note_on_c, 6, 51, 0
8, 87000, Note_on_c, 6, 51, 124
8, 87000, Note_on_c, 6, 63, 124
8, 87096, Note_on_c, 6, 63, 0
8, 87096, Note_on_c, 6, 51, 0
8, 87120, Note_on_c, 6, 51, 127
8, 87120, Note_on_c, 6, 63, 127
8, 87768, Note_on_c, 6, 63, 0
8, 87768, Note_on_c, 6, 51, 0
8, 87840, Note_on_c, 6, 51, 127
8, 87840, Note_on_c, 6, 63, 127
8, 88128, Note_on_c, 6, 63, 0
8, 88128, Note_on_c, 6, 51, 0
8, 88200, Note_on_c, 6, 65, 122
8, 88488, Note_on_c, 6, 65, 0
8, 88560, Note_on_c, 6, 51, 117
8, 88560, Note_on_c, 6, 63, 117
8, 88848, Note_on_c, 6, 63, 0
8, 88848, Note_on_c, 6, 51, 0
8, 88920, Note_on_c, 6, 51, 112
8, 88920, Note_on_c, 6, 63, 112
8, 89208, Note_on_c, 6, 63, 0
8, 89208, Note_on_c, 6, 51, 0
8, 89280, Note_on_c, 6, 51, 107
8, 89280, Note_on_c, 6, 63, 107
8, 89568, Note_on_c, 6, 63, 0
8, 89568, Note_on_c, 6, 51, 0
8, 89640, Note_on_c, 6, 65, 102
8, 89928, Note_on_c, 6, 65, 0
8, 90000, Note_on_c, 6, 51, 97
8, 90000, Note_on_c, 6, 63, 97
8, 90288, Note_on_c, 6, 63, 0
8, 90288, Note_on_c, 6, 51, 0
8, 90360, Note_on_c, 6, 68, 92
8, 90456, Note_on_c, 6, 68, 0
8, 96120, Note_on_c, 6, 58, 64
8, 96120, Note_on_c, 6, 65, 64
8, 96408, Note_on_c, 6, 65, 0
8, 96408, Note_on_c, 6, 58, 0
8, 96480, Note_on_c, 6, 63, 67
8, 96768, Note_on_c, 6, 63, 0
8, 96840, Note_on_c, 6, 68, 100
8, 97128, Note_on_c, 6, 68, 0
8, 97200, Note_on_c, 6, 65, 127
8, 97296, Note_on_c, 6, 65, 0
8, 97920, Note_on_c, 6, 63, 127
8, 98016, Note_on_c, 6, 63, 0
8, 98040, Note_on_c, 6, 63, 127
8, 98136, Note_on_c, 6, 63, 0
8, 98160, Note_on_c, 6, 63, 127
8, 98376, Note_on_c, 6, 63, 0
8, 98400, Note_on_c, 6, 63, 127
8, 98496, Note_on_c, 6, 63, 0
8, 98520, Note_on_c, 6, 63, 127
8, 98616, Note_on_c, 6, 63, 0
8, 98640, Note_on_c, 6, 65, 127
8, 98736, Note_on_c, 6, 65, 0
8, 99360, Note_on_c, 6, 65, 127
8, 99456, Note_on_c, 6, 65, 0
8, 100080, Note_on_c, 6, 65, 127
8, 100080, Note_on_c, 6, 68, 127
8, 100176, Note_on_c, 6, 68, 0
8, 100176, Note_on_c, 6, 65, 0
8, 100560, Note_on_c, 6, 65, 127
8, 100560, Note_on_c, 6, 68, 127
8, 100656, Note_on_c, 6, 68, 0
8, 100656, Note_on_c, 6, 65, 0
8, 100680, Note_on_c, 6, 65, 127
8, 100680, Note_on_c, 6, 68, 127
8, 100776, Note_on_c, 6, 68, 0
8, 100776, Note_on_c, 6, 65, 0
8, 100800, Note_on_c, 6, 63, 127
8, 101088, Note_on_c, 6, 63, 0
8, 101160, Note_on_c, 6, 63, 127
8, 101448, Note_on_c, 6, 63, 0
8, 101520, Note_on_c, 6, 65, 127
8, 101808, Note_on_c, 6, 65, 0
8, 101880, Note_on_c, 6, 63, 127
8, 102168, Note_on_c, 6, 63, 0
8, 102240, Note_on_c, 6, 65, 127
8, 102528, Note_on_c, 6, 65, 0
8, 102600, Note_on_c, 6, 63, 127
8, 102888, Note_on_c, 6, 63, 0
8, 102960, Note_on_c, 6, 68, 127
8, 103056, Note_on_c, 6, 68, 0
8, 103080, Note_on_c, 6, 68, 127
8, 103176, Note_on_c, 6, 68, 0
8, 103260, Note_on_c, 6, 68, 127
8, 103308, Note_on_c, 6, 68, 0
8, 103320, Note_on_c, 6, 68, 127
8, 103416, Note_on_c, 6, 68, 0
8, 103440, Note_on_c, 6, 68, 127
8, 103536, Note_on_c, 6, 68, 0
8, 103620, Note_on_c, 6, 68, 127
8, 103668, Note_on_c, 6, 68, 0
8, 103680, Note_on_c, 6, 68, 127
8, 103776, Note_on_c, 6, 68, 0
8, 103800, Note_on_c, 6, 68, 127
8, 103896, Note_on_c, 6, 68, 0
8, 103980, Note_on_c, 6, 68, 127
8, 104028, Note_on_c, 6, 68, 0
8, 104040, Note_on_c, 6, 68, 127
8, 104136, Note_on_c, 6, 68, 0
8, 104160, Note_on_c, 6, 68, 127
8, 104256, Note_on_c, 6, 68, 0
8, 105840, Note_on_c, 6, 58, 127
8, 105936, Note_on_c, 6, 58, 0
8, 105960, Note_on_c, 6, 58, 127
8, 106056, Note_on_c, 6, 58, 0
8, 106140, Note_on_c, 6, 58, 127
8, 106188, Note_on_c, 6, 58, 0
8, 106200, Note_on_c, 6, 58, 127
8, 106296, Note_on_c, 6, 58, 0
8, 106320, Note_on_c, 6, 58, 127
8, 106416, Note_on_c, 6, 58, 0
8, 106500, Note_on_c, 6, 58, 127
8, 106548, Note_on_c, 6, 58, 0
8, 106560, Note_on_c, 6, 63, 127
8, 106656, Note_on_c, 6, 63, 0
8, 106680, Note_on_c, 6, 63, 127
8, 106776, Note_on_c, 6, 63, 0
8, 106860, Note_on_c, 6, 63, 127
8, 106908, Note_on_c, 6, 63, 0
8, 106920, Note_on_c, 6, 63, 127
8, 107016, Note_on_c, 6, 63, 0
8, 107040, Note_on_c, 6, 63, 127
8, 107136, Note_on_c, 6, 63, 0
8, 117240, Note_on_c, 6, 65, 127
8, 117240, Note_on_c, 6, 69, 127
8, 117528, Note_on_c, 6, 69, 0
8, 117528, Note_on_c, 6, 65, 0
8, 117720, Note_on_c, 6, 69, 127
8, 117720, Note_on_c, 6, 65, 127
8, 118008, Note_on_c, 6, 65, 0
8, 118008, Note_on_c, 6, 69, 0
8, 118200, Note_on_c, 6, 65, 127
8, 118200, Note_on_c, 6, 69, 127
8, 118296, Note_on_c, 6, 69, 0
8, 118296, Note_on_c, 6, 65, 0
8, 118440, Note_on_c, 6, 65, 127
8, 118440, Note_on_c, 6, 69, 127
8, 118536, Note_on_c, 6, 69, 0
8, 118536, Note_on_c, 6, 65, 0
8, 118680, Note_on_c, 6, 69, 127
8, 118680, Note_on_c, 6, 65, 127
8, 118776, Note_on_c, 6, 65, 0
8, 118776, Note_on_c, 6, 69, 0
8, 118920, Note_on_c, 6, 69, 127
8, 118920, Note_on_c, 6, 65, 127
8, 119016, Note_on_c, 6, 65, 0
8, 119016, Note_on_c, 6, 69, 0
8, 119160, Note_on_c, 6, 65, 127
8, 119256, Note_on_c, 6, 65, 0
8, 119280, Note_on_c, 6, 65, 127
8, 119328, Note_on_c, 6, 65, 0
8, 119340, Note_on_c, 6, 65, 127
8, 119388, Note_on_c, 6, 65, 0
8, 119400, Note_on_c, 6, 65, 127
8, 119496, Note_on_c, 6, 65, 0
8, 119520, Note_on_c, 6, 65, 127
8, 119568, Note_on_c, 6, 65, 0
8, 119580, Note_on_c, 6, 65, 127
8, 119628, Note_on_c, 6, 65, 0
8, 119640, Note_on_c, 6, 67, 127
8, 119736, Note_on_c, 6, 67, 0
8, 119760, Note_on_c, 6, 67, 127
8, 119808, Note_on_c, 6, 67, 0
8, 119820, Note_on_c, 6, 67, 127
8, 119868, Note_on_c, 6, 67, 0
8, 119880, Note_on_c, 6, 67, 127
8, 119976, Note_on_c, 6, 67, 0
8, 120000, Note_on_c, 6, 67, 127
8, 120048, Note_on_c, 6, 67, 0
8, 120060, Note_on_c, 6, 67, 127
8, 120108, Note_on_c, 6, 67, 0
8, 120120, Note_on_c, 6, 69, 127
8, 120120, Note_on_c, 6, 65, 127
8, 120408, Note_on_c, 6, 65, 0
8, 120408, Note_on_c, 6, 69, 0
8, 120600, Note_on_c, 6, 65, 127
8, 120600, Note_on_c, 6, 69, 127
8, 120888, Note_on_c, 6, 69, 0
8, 120888, Note_on_c, 6, 65, 0
8, 121080, Note_on_c, 6, 69, 127
8, 121080, Note_on_c, 6, 65, 127
8, 121176, Note_on_c, 6, 65, 0
8, 121176, Note_on_c, 6, 69, 0
8, 121320, Note_on_c, 6, 69, 127
8, 121320, Note_on_c, 6, 65, 127
8, 121416, Note_on_c, 6, 65, 0
8, 121416, Note_on_c, 6, 69, 0
8, 121560, Note_on_c, 6, 65, 127
8, 121560, Note_on_c, 6, 69, 127
8, 121656, Note_on_c, 6, 69, 0
8, 121656, Note_on_c, 6, 65, 0
8, 121800, Note_on_c, 6, 65, 127
8, 121800, Note_on_c, 6, 69, 127
8, 121896, Note_on_c, 6, 69, 0
8, 121896, Note_on_c, 6, 65, 0
8, 122040, Note_on_c, 6, 65, 127
8, 122136, Note_on_c, 6, 65, 0
8, 122160, Note_on_c, 6, 65, 127
8, 122208, Note_on_c, 6, 65, 0
8, 122220, Note_on_c, 6, 65, 127
8, 122268, Note_on_c, 6, 65, 0
8, 122280, Note_on_c, 6, 65, 127
8, 122376, Note_on_c, 6, 65, 0
8, 122400, Note_on_c, 6, 65, 127
8, 122448, Note_on_c, 6, 65, 0
8, 122460, Note_on_c, 6, 65, 127
8, 122508, Note_on_c, 6, 65, 0
8, 122520, Note_on_c, 6, 67, 127
8, 122616, Note_on_c, 6, 67, 0
8, 122640, Note_on_c, 6, 67, 127
8, 122688, Note_on_c, 6, 67, 0
8, 122700, Note_on_c, 6, 67, 127
8, 122748, Note_on_c, 6, 67, 0
8, 122760, Note_on_c, 6, 67, 127
8, 122856, Note_on_c, 6, 67, 0
8, 122880, Note_on_c, 6, 67, 127
8, 122928, Note_on_c, 6, 67, 0
8, 122940, Note_on_c, 6, 67, 127
8, 122988, Note_on_c, 6, 67, 0
8, 123000, Note_on_c, 6, 65, 127
8, 123144, Note_on_c, 6, 65, 0
8, 123480, Note_on_c, 6, 67, 127
8, 123624, Note_on_c, 6, 67, 0
8, 123960, Note_on_c, 6, 65, 127
8, 124104, Note_on_c, 6, 65, 0
8, 124440, Note_on_c, 6, 67, 127
8, 124584, Note_on_c, 6, 67, 0
8, 124920, Note_on_c, 6, 65, 127
8, 125064, Note_on_c, 6, 65, 0
8, 125400, Note_on_c, 6, 67, 127
8, 125544, Note_on_c, 6, 67, 0
8, 125880, Note_on_c, 6, 65, 127
8, 126024, Note_on_c, 6, 65, 0
8, 126120, Note_on_c, 6, 65, 127
8, 126168, Note_on_c, 6, 65, 0
8, 126360, Note_on_c, 6, 67, 127
8, 126504, Note_on_c, 6, 67, 0
8, 126600, Note_on_c, 6, 67, 127
8, 126648, Note_on_c, 6, 67, 0
8, 126840, Note_on_c, 6, 65, 127
8, 126888, Note_on_c, 6, 65, 0
8, 126900, Note_on_c, 6, 65, 127
8, 126948, Note_on_c, 6, 65, 0
8, 127080, Note_on_c, 6, 65, 127
8, 127128, Note_on_c, 6, 65, 0
8, 127140, Note_on_c, 6, 65, 127
8, 127188, Note_on_c, 6, 65, 0
8, 127320, Note_on_c, 6, 67, 127
8, 127368, Note_on_c, 6, 67, 0
8, 127380, Note_on_c, 6, 67, 127
8, 127428, Note_on_c, 6, 67, 0
8, 127560, Note_on_c, 6, 67, 127
8, 127608, Note_on_c, 6, 67, 0
8, 127620, Note_on_c, 6, 67, 127
8, 127668, Note_on_c, 6, 67, 0
8, 127800, Note_on_c, 6, 65, 127
8, 127992, Note_on_c, 6, 65, 0
8, 128040, Note_on_c, 6, 67, 127
8, 128232, Note_on_c, 6, 67, 0
8, 128280, Note_on_c, 6, 65, 127
8, 128472, Note_on_c, 6, 65, 0
8, 128520, Note_on_c, 6, 70, 127
8, 128712, Note_on_c, 6, 70, 0
8, 128880, Note_on_c, 6, 65, 127
8, 129624, Note_on_c, 6, 65, 0
8, 129720, Note_on_c, 6, 67, 127
8, 129816, Note_on_c, 6, 67, 0
8, 129840, Note_on_c, 6, 67, 127
8, 129936, Note_on_c, 6, 67, 0
8, 129960, Note_on_c, 6, 67, 127
8, 130056, Note_on_c, 6, 67, 0
8, 130080, Note_on_c, 6, 67, 127
8, 130176, Note_on_c, 6, 67, 0
8, 130200, Note_on_c, 6, 67, 127
8, 130296, Note_on_c, 6, 67, 0
8, 130320, Note_on_c, 6, 67, 127
8, 130416, Note_on_c, 6, 67, 0
8, 130440, Note_on_c, 6, 67, 127
8, 130536, Note_on_c, 6, 67, 0
8, 130560, Note_on_c, 6, 67, 127
8, 130656, Note_on_c, 6, 67, 0
8, 130680, Note_on_c, 6, 65, 127
8, 130824, Note_on_c, 6, 65, 0
8, 130860, Note_on_c, 6, 65, 127
8, 130917, Note_on_c, 6, 65, 0
8, 130920, Note_on_c, 6, 67, 127
8, 131064, Note_on_c, 6, 67, 0
8, 131100, Note_on_c, 6, 67, 127
8, 131157, Note_on_c, 6, 67, 0
8, 131160, Note_on_c, 6, 65, 127
8, 131304, Note_on_c, 6, 65, 0
8, 131340, Note_on_c, 6, 65, 127
8, 131388, Note_on_c, 6, 65, 0
8, 131400, Note_on_c, 6, 70, 127
8, 131544, Note_on_c, 6, 70, 0
8, 131580, Note_on_c, 6, 70, 127
8, 131628, Note_on_c, 6, 70, 0
8, 131760, Note_on_c, 6, 65, 127
8, 132504, Note_on_c, 6, 65, 0
8, 132600, Note_on_c, 6, 67, 127
8, 132696, Note_on_c, 6, 67, 0
8, 132720, Note_on_c, 6, 67, 127
8, 132816, Note_on_c, 6, 67, 0
8, 132840, Note_on_c, 6, 67, 127
8, 132936, Note_on_c, 6, 67, 0
8, 132960, Note_on_c, 6, 67, 127
8, 133056, Note_on_c, 6, 67, 0
8, 133080, Note_on_c, 6, 67, 127
8, 133176, Note_on_c, 6, 67, 0
8, 133200, Note_on_c, 6, 67, 127
8, 133296, Note_on_c, 6, 67, 0
8, 133320, Note_on_c, 6, 67, 127
8, 133416, Note_on_c, 6, 67, 0
8, 133440, Note_on_c, 6, 67, 127
8, 133536, Note_on_c, 6, 67, 0
8, 133560, Note_on_c, 6, 65, 127
8, 133848, Note_on_c, 6, 65, 0
8, 134520, Note_on_c, 6, 65, 127
8, 134808, Note_on_c, 6, 65, 0
8, 135480, Note_on_c, 6, 65, 127
8, 135705, Note_on_c, 6, 65, 0
8, 135720, Note_on_c, 6, 65, 127
8, 135945, Note_on_c, 6, 65, 0
8, 136440, Note_on_c, 6, 65, 127
8, 136632, Note_on_c, 6, 65, 0
8, 136680, Note_on_c, 6, 65, 127
8, 136872, Note_on_c, 6, 65, 0
8, 137400, Note_on_c, 6, 65, 127
8, 137592, Note_on_c, 6, 65, 0
8, 137640, Note_on_c, 6, 65, 127
8, 137832, Note_on_c, 6, 65, 0
8, 140280, Note_on_c, 6, 65, 127
8, 140376, Note_on_c, 6, 65, 0
8, 140760, Note_on_c, 6, 65, 127
8, 140856, Note_on_c, 6, 65, 0
8, 141240, Note_on_c, 6, 65, 127
8, 141336, Note_on_c, 6, 65, 0
8, 141720, Note_on_c, 6, 65, 127
8, 141816, Note_on_c, 6, 65, 0
8, 141960, Note_on_c, 6, 65, 127
8, 142056, Note_on_c, 6, 65, 0
8, 142200, Note_on_c, 6, 65, 127
8, 142296, Note_on_c, 6, 65, 0
8, 142296, End_track
9, 0, Start_track
9, 0, Title_t, "2 Trombe in F"
9, 0, Program_c, 7, 56
9, 0, Control_c, 7, 7, 127
9, 0, Control_c, 7, 10, 115
9, 1440, Note_on_c, 7, 65, 127
9, 1440, Note_on_c, 7, 77, 127
9, 2016, Note_on_c, 7, 77, 0
9, 2016, Note_on_c, 7, 65, 0
9, 7200, Note_on_c, 7, 65, 70
9, 7200, Note_on_c, 7, 77, 70
9, 7776, Note_on_c, 7, 77, 0
9, 7776, Note_on_c, 7, 65, 0
9, 7920, Note_on_c, 7, 65, 127
9, 8112, Note_on_c, 7, 65, 0
9, 8160, Note_on_c, 7, 65, 127
9, 8352, Note_on_c, 7, 65, 0
9, 8880, Note_on_c, 7, 72, 127
9, 9072, Note_on_c, 7, 72, 0
9, 13200, Note_on_c, 7, 60, 50
9, 13392, Note_on_c, 7, 60, 0
9, 13440, Note_on_c, 7, 60, 50
9, 13632, Note_on_c, 7, 60, 0
9, 13920, Note_on_c, 7, 60, 50
9, 14112, Note_on_c, 7, 60, 0
9, 14160, Note_on_c, 7, 60, 50
9, 14352, Note_on_c, 7, 60, 0
9, 30840, Note_on_c, 7, 60, 127
9, 30840, Note_on_c, 7, 72, 127
9, 31776, Note_on_c, 7, 72, 0
9, 31776, Note_on_c, 7, 60, 0
9, 31800, Note_on_c, 7, 60, 121
9, 31800, Note_on_c, 7, 72, 121
9, 31896, Note_on_c, 7, 72, 0
9, 31896, Note_on_c, 7, 60, 0
9, 31920, Note_on_c, 7, 60, 120
9, 31920, Note_on_c, 7, 72, 120
9, 32016, Note_on_c, 7, 72, 0
9, 32016, Note_on_c, 7, 60, 0
9, 32040, Note_on_c, 7, 60, 119
9, 32040, Note_on_c, 7, 72, 119
9, 32136, Note_on_c, 7, 72, 0
9, 32136, Note_on_c, 7, 60, 0
9, 32280, Note_on_c, 7, 60, 117
9, 32280, Note_on_c, 7, 72, 117
9, 33216, Note_on_c, 7, 72, 0
9, 33216, Note_on_c, 7, 60, 0
9, 33240, Note_on_c, 7, 60, 110
9, 33240, Note_on_c, 7, 72, 110
9, 33336, Note_on_c, 7, 72, 0
9, 33336, Note_on_c, 7, 60, 0
9, 33360, Note_on_c, 7, 60, 109
9, 33360, Note_on_c, 7, 72, 109
9, 33456, Note_on_c, 7, 72, 0
9, 33456, Note_on_c, 7, 60, 0
9, 33480, Note_on_c, 7, 65, 108
9, 33480, Note_on_c, 7, 77, 108
9, 33576, Note_on_c, 7, 77, 0
9, 33576, Note_on_c, 7, 65, 0
9, 33840, Note_on_c, 7, 65, 106
9, 33840, Note_on_c, 7, 77, 106
9, 33936, Note_on_c, 7, 77, 0
9, 33936, Note_on_c, 7, 65, 0
9, 34200, Note_on_c, 7, 65, 103
9, 34200, Note_on_c, 7, 77, 103
9, 34296, Note_on_c, 7, 77, 0
9, 34296, Note_on_c, 7, 65, 0
9, 34560, Note_on_c, 7, 77, 100
9, 34560, Note_on_c, 7, 65, 100
9, 34656, Note_on_c, 7, 65, 0
9, 34656, Note_on_c, 7, 77, 0
9, 34680, Note_on_c, 7, 77, 109
9, 34680, Note_on_c, 7, 65, 109
9, 34776, Note_on_c, 7, 65, 0
9, 34776, Note_on_c, 7, 77, 0
9, 34800, Note_on_c, 7, 77, 118
9, 34800, Note_on_c, 7, 65, 118
9, 34896, Note_on_c, 7, 65, 0
9, 34896, Note_on_c, 7, 77, 0
9, 34920, Note_on_c, 7, 77, 127
9, 34920, Note_on_c, 7, 65, 127
9, 35016, Note_on_c, 7, 65, 0
9, 35016, Note_on_c, 7, 77, 0
9, 35280, Note_on_c, 7, 77, 104
9, 35280, Note_on_c, 7, 65, 104
9, 35376, Note_on_c, 7, 65, 0
9, 35376, Note_on_c, 7, 77, 0
9, 35640, Note_on_c, 7, 77, 112
9, 35640, Note_on_c, 7, 65, 112
9, 35736, Note_on_c, 7, 65, 0
9, 35736, Note_on_c, 7, 77, 0
9, 35880, Note_on_c, 7, 65, 117
9, 35880, Note_on_c, 7, 77, 117
9, 35976, Note_on_c, 7, 77, 0
9, 35976, Note_on_c, 7, 65, 0
9, 36000, Note_on_c, 7, 77, 119
9, 36000, Note_on_c, 7, 65, 119
9, 36096, Note_on_c, 7, 65, 0
9, 36096, Note_on_c, 7, 77, 0
9, 36120, Note_on_c, 7, 65, 122
9, 36216, Note_on_c, 7, 65, 0
9, 36720, Note_on_c, 7, 60, 127
9, 36720, Note_on_c, 7, 72, 127
9, 36816, Note_on_c, 7, 72, 0
9, 36816, Note_on_c, 7, 60, 0
9, 38160, Note_on_c, 7, 60, 127
9, 38160, Note_on_c, 7, 72, 127
9, 38256, Note_on_c, 7, 72, 0
9, 38256, Note_on_c, 7, 60, 0
9, 45720, Note_on_c, 7, 60, 95
9, 45720, Note_on_c, 7, 72, 95
9, 46008, Note_on_c, 7, 72, 0
9, 46008, Note_on_c, 7, 60, 0
9, 46080, Note_on_c, 7, 65, 95
9, 46080, Note_on_c, 7, 77, 95
9, 46368, Note_on_c, 7, 77, 0
9, 46368, Note_on_c, 7, 65, 0
9, 46440, Note_on_c, 7, 65, 95
9, 46440, Note_on_c, 7, 77, 95
9, 46728, Note_on_c, 7, 77, 0
9, 46728, Note_on_c, 7, 65, 0
9, 47160, Note_on_c, 7, 60, 95
9, 47160, Note_on_c, 7, 72, 95
9, 47256, Note_on_c, 7, 72, 0
9, 47256, Note_on_c, 7, 60, 0
9, 47880, Note_on_c, 7, 60, 80
9, 47880, Note_on_c, 7, 72, 80
9, 47976, Note_on_c, 7, 72, 0
9, 47976, Note_on_c, 7, 60, 0
9, 48600, Note_on_c, 7, 60, 80
9, 48600, Note_on_c, 7, 72, 80
9, 48696, Note_on_c, 7, 72, 0
9, 48696, Note_on_c, 7, 60, 0
9, 49080, Note_on_c, 7, 60, 114
9, 49080, Note_on_c, 7, 72, 114
9, 49176, Note_on_c, 7, 72, 0
9, 49176, Note_on_c, 7, 60, 0
9, 49200, Note_on_c, 7, 60, 120
9, 49200, Note_on_c, 7, 72, 120
9, 49296, Note_on_c, 7, 72, 0
9, 49296, Note_on_c, 7, 60, 0
9, 50040, Note_on_c, 7, 60, 127
9, 50040, Note_on_c, 7, 72, 127
9, 50136, Note_on_c, 7, 72, 0
9, 50136, Note_on_c, 7, 60, 0
9, 50760, Note_on_c, 7, 60, 127
9, 50760, Note_on_c, 7, 72, 127
9, 50856, Note_on_c, 7, 72, 0
9, 50856, Note_on_c, 7, 60, 0
9, 51480, Note_on_c, 7, 60, 127
9, 51480, Note_on_c, 7, 72, 127
9, 51576, Note_on_c, 7, 72, 0
9, 51576, Note_on_c, 7, 60, 0
9, 79080, Note_on_c, 7, 60, 127
9, 79080, Note_on_c, 7, 72, 127
9, 80016, Note_on_c, 7, 72, 0
9, 80016, Note_on_c, 7, 60, 0
9, 80040, Note_on_c, 7, 60, 127
9, 80040, Note_on_c, 7, 72, 127
9, 80136, Note_on_c, 7, 72, 0
9, 80136, Note_on_c, 7, 60, 0
9, 80160, Note_on_c, 7, 60, 127
9, 80160, Note_on_c, 7, 72, 127
9, 80256, Note_on_c, 7, 72, 0
9, 80256, Note_on_c, 7, 60, 0
9, 80280, Note_on_c, 7, 60, 127
9, 80280, Note_on_c, 7, 72, 127
9, 80376, Note_on_c, 7, 72, 0
9, 80376, Note_on_c, 7, 60, 0
9, 80520, Note_on_c, 7, 72, 127
9, 80520, Note_on_c, 7, 60, 127
9, 81456, Note_on_c, 7, 60, 0
9, 81456, Note_on_c, 7, 72, 0
9, 81480, Note_on_c, 7, 72, 127
9, 81480, Note_on_c, 7, 60, 127
9, 81576, Note_on_c, 7, 60, 0
9, 81576, Note_on_c, 7, 72, 0
9, 81600, Note_on_c, 7, 72, 127
9, 81600, Note_on_c, 7, 60, 127
9, 81696, Note_on_c, 7, 60, 0
9, 81696, Note_on_c, 7, 72, 0
9, 81720, Note_on_c, 7, 65, 127
9, 81720, Note_on_c, 7, 77, 127
9, 81816, Note_on_c, 7, 77, 0
9, 81816, Note_on_c, 7, 65, 0
9, 84120, Note_on_c, 7, 65, 127
9, 84216, Note_on_c, 7, 65, 0
9, 84240, Note_on_c, 7, 65, 127
9, 84336, Note_on_c, 7, 65, 0
9, 84960, Note_on_c, 7, 65, 127
9, 84960, Note_on_c, 7, 77, 127
9, 85056, Note_on_c, 7, 77, 0
9, 85056, Note_on_c, 7, 65, 0
9, 85680, Note_on_c, 7, 65, 127
9, 85776, Note_on_c, 7, 65, 0
9, 86400, Note_on_c, 7, 65, 112
9, 86496, Note_on_c, 7, 65, 0
9, 87000, Note_on_c, 7, 60, 124
9, 87000, Note_on_c, 7, 72, 124
9, 87096, Note_on_c, 7, 72, 0
9, 87096, Note_on_c, 7, 60, 0
9, 87840, Note_on_c, 7, 60, 127
9, 87840, Note_on_c, 7, 72, 127
9, 87936, Note_on_c, 7, 72, 0
9, 87936, Note_on_c, 7, 60, 0
9, 88200, Note_on_c, 7, 65, 122
9, 88296, Note_on_c, 7, 65, 0
9, 88920, Note_on_c, 7, 60, 112
9, 88920, Note_on_c, 7, 72, 112
9, 89016, Note_on_c, 7, 72, 0
9, 89016, Note_on_c, 7, 60, 0
9, 89280, Note_on_c, 7, 60, 107
9, 89280, Note_on_c, 7, 72, 107
9, 89376, Note_on_c, 7, 72, 0
9, 89376, Note_on_c, 7, 60, 0
9, 89640, Note_on_c, 7, 65, 102
9, 89736, Note_on_c, 7, 65, 0
9, 90360, Note_on_c, 7, 60, 92
9, 90360, Note_on_c, 7, 72, 92
9, 90456, Note_on_c, 7, 72, 0
9, 90456, Note_on_c, 7, 60, 0
9, 96840, Note_on_c, 7, 60, 100
9, 96840, Note_on_c, 7, 72, 100
9, 97128, Note_on_c, 7, 72, 0
9, 97128, Note_on_c, 7, 60, 0
9, 97200, Note_on_c, 7, 65, 127
9, 97296, Note_on_c, 7, 65, 0
9, 98280, Note_on_c, 7, 60, 127
9, 98280, Note_on_c, 7, 72, 127
9, 98376, Note_on_c, 7, 72, 0
9, 98376, Note_on_c, 7, 60, 0
9, 98640, Note_on_c, 7, 65, 127
9, 98736, Note_on_c, 7, 65, 0
9, 99360, Note_on_c, 7, 77, 127
9, 99360, Note_on_c, 7, 65, 127
9, 99456, Note_on_c, 7, 65, 0
9, 99456, Note_on_c, 7, 77, 0
9, 100080, Note_on_c, 7, 77, 127
9, 100080, Note_on_c, 7, 65, 127
9, 100176, Note_on_c, 7, 65, 0
9, 100176, Note_on_c, 7, 77, 0
9, 100560, Note_on_c, 7, 77, 127
9, 100560, Note_on_c, 7, 65, 127
9, 100656, Note_on_c, 7, 65, 0
9, 100656, Note_on_c, 7, 77, 0
9, 100680, Note_on_c, 7, 77, 127
9, 100680, Note_on_c, 7, 65, 127
9, 100776, Note_on_c, 7, 65, 0
9, 100776, Note_on_c, 7, 77, 0
9, 100800, Note_on_c, 7, 72, 127
9, 100913, Note_on_c, 7, 72, 0
9, 101160, Note_on_c, 7, 72, 127
9, 101273, Note_on_c, 7, 72, 0
9, 101520, Note_on_c, 7, 77, 127
9, 101520, Note_on_c, 7, 65, 127
9, 101633, Note_on_c, 7, 65, 0
9, 101633, Note_on_c, 7, 77, 0
9, 101880, Note_on_c, 7, 72, 127
9, 101993, Note_on_c, 7, 72, 0
9, 102240, Note_on_c, 7, 65, 127
9, 102240, Note_on_c, 7, 77, 127
9, 102353, Note_on_c, 7, 77, 0
9, 102353, Note_on_c, 7, 65, 0
9, 102600, Note_on_c, 7, 72, 127
9, 102713, Note_on_c, 7, 72, 0
9, 108720, Note_on_c, 7, 72, 127
9, 108720, Note_on_c, 7, 60, 127
9, 108816, Note_on_c, 7, 60, 0
9, 108816, Note_on_c, 7, 72, 0
9, 108840, Note_on_c, 7, 72, 127
9, 108840, Note_on_c, 7, 60, 127
9, 108936, Note_on_c, 7, 60, 0
9, 108936, Note_on_c, 7, 72, 0
9, 109020, Note_on_c, 7, 72, 127
9, 109020, Note_on_c, 7, 60, 127
9, 109068, Note_on_c, 7, 60, 0
9, 109068, Note_on_c, 7, 72, 0
9, 109080, Note_on_c, 7, 60, 127
9, 109080, Note_on_c, 7, 72, 127
9, 109176, Note_on_c, 7, 72, 0
9, 109176, Note_on_c, 7, 60, 0
9, 109200, Note_on_c, 7, 60, 127
9, 109200, Note_on_c, 7, 72, 127
9, 109296, Note_on_c, 7, 72, 0
9, 109296, Note_on_c, 7, 60, 0
9, 109380, Note_on_c, 7, 72, 127
9, 109380, Note_on_c, 7, 60, 127
9, 109428, Note_on_c, 7, 60, 0
9, 109428, Note_on_c, 7, 72, 0
9, 109440, Note_on_c, 7, 60, 127
9, 109440, Note_on_c, 7, 72, 127
9, 109536, Note_on_c, 7, 72, 0
9, 109536, Note_on_c, 7, 60, 0
9, 109560, Note_on_c, 7, 60, 127
9, 109560, Note_on_c, 7, 72, 127
9, 109656, Note_on_c, 7, 72, 0
9, 109656, Note_on_c, 7, 60, 0
9, 116760, Note_on_c, 7, 60, 110
9, 116760, Note_on_c, 7, 72, 110
9, 117144, Note_on_c, 7, 72, 0
9, 117144, Note_on_c, 7, 60, 0
9, 117240, Note_on_c, 7, 65, 127
9, 117240, Note_on_c, 7, 77, 127
9, 117540, Note_on_c, 7, 77, 0
9, 117540, Note_on_c, 7, 65, 0
9, 117540, Note_on_c, 7, 72, 127
9, 117588, Note_on_c, 7, 72, 0
9, 117600, Note_on_c, 7, 69, 127
9, 117648, Note_on_c, 7, 69, 0
9, 117660, Note_on_c, 7, 72, 127
9, 117708, Note_on_c, 7, 72, 0
9, 117720, Note_on_c, 7, 77, 127
9, 117720, Note_on_c, 7, 65, 127
9, 118020, Note_on_c, 7, 65, 0
9, 118020, Note_on_c, 7, 77, 0
9, 118020, Note_on_c, 7, 72, 127
9, 118068, Note_on_c, 7, 72, 0
9, 118080, Note_on_c, 7, 69, 127
9, 118128, Note_on_c, 7, 69, 0
9, 118140, Note_on_c, 7, 72, 127
9, 118188, Note_on_c, 7, 72, 0
9, 118200, Note_on_c, 7, 65, 127
9, 118200, Note_on_c, 7, 77, 127
9, 118248, Note_on_c, 7, 77, 0
9, 118248, Note_on_c, 7, 65, 0
9, 118260, Note_on_c, 7, 72, 127
9, 118308, Note_on_c, 7, 72, 0
9, 118320, Note_on_c, 7, 69, 127
9, 118368, Note_on_c, 7, 69, 0
9, 118380, Note_on_c, 7, 72, 127
9, 118428, Note_on_c, 7, 72, 0
9, 118440, Note_on_c, 7, 77, 127
9, 118440, Note_on_c, 7, 65, 127
9, 118488, Note_on_c, 7, 65, 0
9, 118488, Note_on_c, 7, 77, 0
9, 118500, Note_on_c, 7, 72, 127
9, 118548, Note_on_c, 7, 72, 0
9, 118560, Note_on_c, 7, 69, 127
9, 118608, Note_on_c, 7, 69, 0
9, 118620, Note_on_c, 7, 72, 127
9, 118668, Note_on_c, 7, 72, 0
9, 118680, Note_on_c, 7, 77, 127
9, 118680, Note_on_c, 7, 65, 127
9, 118728, Note_on_c, 7, 65, 0
9, 118728, Note_on_c, 7, 77, 0
9, 118740, Note_on_c, 7, 72, 127
9, 118788, Note_on_c, 7, 72, 0
9, 118800, Note_on_c, 7, 69, 127
9, 118848, Note_on_c, 7, 69, 0
9, 118860, Note_on_c, 7, 72, 127
9, 118908, Note_on_c, 7, 72, 0
9, 118920, Note_on_c, 7, 77, 127
9, 118920, Note_on_c, 7, 65, 127
9, 118968, Note_on_c, 7, 65, 0
9, 118968, Note_on_c, 7, 77, 0
9, 118980, Note_on_c, 7, 72, 127
9, 119028, Note_on_c, 7, 72, 0
9, 119040, Note_on_c, 7, 69, 127
9, 119088, Note_on_c, 7, 69, 0
9, 119100, Note_on_c, 7, 72, 127
9, 119148, Note_on_c, 7, 72, 0
9, 119160, Note_on_c, 7, 65, 127
9, 119160, Note_on_c, 7, 77, 127
9, 119256, Note_on_c, 7, 77, 0
9, 119256, Note_on_c, 7, 65, 0
9, 119280, Note_on_c, 7, 65, 127
9, 119280, Note_on_c, 7, 77, 127
9, 119328, Note_on_c, 7, 77, 0
9, 119328, Note_on_c, 7, 65, 0
9, 119340, Note_on_c, 7, 65, 127
9, 119340, Note_on_c, 7, 77, 127
9, 119388, Note_on_c, 7, 77, 0
9, 119388, Note_on_c, 7, 65, 0
9, 119400, Note_on_c, 7, 77, 127
9, 119400, Note_on_c, 7, 65, 127
9, 119496, Note_on_c, 7, 65, 0
9, 119496, Note_on_c, 7, 77, 0
9, 119520, Note_on_c, 7, 77, 127
9, 119520, Note_on_c, 7, 65, 127
9, 119568, Note_on_c, 7, 65, 0
9, 119568, Note_on_c, 7, 77, 0
9, 119580, Note_on_c, 7, 77, 127
9, 119580, Note_on_c, 7, 65, 127
9, 119628, Note_on_c, 7, 65, 0
9, 119628, Note_on_c, 7, 77, 0
9, 119640, Note_on_c, 7, 77, 127
9, 119640, Note_on_c, 7, 79, 127
9, 119736, Note_on_c, 7, 79, 0
9, 119736, Note_on_c, 7, 77, 0
9, 119760, Note_on_c, 7, 77, 127
9, 119760, Note_on_c, 7, 79, 127
9, 119808, Note_on_c, 7, 79, 0
9, 119808, Note_on_c, 7, 77, 0
9, 119820, Note_on_c, 7, 77, 127
9, 119820, Note_on_c, 7, 79, 127
9, 119868, Note_on_c, 7, 79, 0
9, 119868, Note_on_c, 7, 77, 0
9, 119880, Note_on_c, 7, 72, 127
9, 119880, Note_on_c, 7, 79, 127
9, 119976, Note_on_c, 7, 79, 0
9, 119976, Note_on_c, 7, 72, 0
9, 120000, Note_on_c, 7, 72, 127
9, 120000, Note_on_c, 7, 79, 127
9, 120048, Note_on_c, 7, 79, 0
9, 120048, Note_on_c, 7, 72, 0
9, 120060, Note_on_c, 7, 72, 127
9, 120060, Note_on_c, 7, 79, 127
9, 120108, Note_on_c, 7, 79, 0
9, 120108, Note_on_c, 7, 72, 0
9, 120120, Note_on_c, 7, 77, 127
9, 120120, Note_on_c, 7, 65, 127
9, 120420, Note_on_c, 7, 65, 0
9, 120420, Note_on_c, 7, 77, 0
9, 120420, Note_on_c, 7, 72, 127
9, 120468, Note_on_c, 7, 72, 0
9, 120480, Note_on_c, 7, 69, 127
9, 120528, Note_on_c, 7, 69, 0
9, 120540, Note_on_c, 7, 72, 127
9, 120588, Note_on_c, 7, 72, 0
9, 120600, Note_on_c, 7, 65, 127
9, 120600, Note_on_c, 7, 77, 127
9, 120900, Note_on_c, 7, 77, 0
9, 120900, Note_on_c, 7, 65, 0
9, 120900, Note_on_c, 7, 72, 127
9, 120948, Note_on_c, 7, 72, 0
9, 120960, Note_on_c, 7, 69, 127
9, 121008, Note_on_c, 7, 69, 0
9, 121020, Note_on_c, 7, 72, 127
9, 121068, Note_on_c, 7, 72, 0
9, 121080, Note_on_c, 7, 77, 127
9, 121080, Note_on_c, 7, 65, 127
9, 121128, Note_on_c, 7, 65, 0
9, 121128, Note_on_c, 7, 77, 0
9, 121140, Note_on_c, 7, 72, 127
9, 121188, Note_on_c, 7, 72, 0
9, 121200, Note_on_c, 7, 69, 127
9, 121248, Note_on_c, 7, 69, 0
9, 121260, Note_on_c, 7, 72, 127
9, 121308, Note_on_c, 7, 72, 0
9, 121320, Note_on_c, 7, 65, 127
9, 121320, Note_on_c, 7, 77, 127
9, 121368, Note_on_c, 7, 77, 0
9, 121368, Note_on_c, 7, 65, 0
9, 121380, Note_on_c, 7, 72, 127
9, 121428, Note_on_c, 7, 72, 0
9, 121440, Note_on_c, 7, 69, 127
9, 121488, Note_on_c, 7, 69, 0
9, 121500, Note_on_c, 7, 72, 127
9, 121548, Note_on_c, 7, 72, 0
9, 121560, Note_on_c, 7, 65, 127
9, 121560, Note_on_c, 7, 77, 127
9, 121608, Note_on_c, 7, 77, 0
9, 121608, Note_on_c, 7, 65, 0
9, 121620, Note_on_c, 7, 72, 127
9, 121668, Note_on_c, 7, 72, 0
9, 121680, Note_on_c, 7, 69, 127
9, 121728, Note_on_c, 7, 69, 0
9, 121740, Note_on_c, 7, 72, 127
9, 121788, Note_on_c, 7, 72, 0
9, 121800, Note_on_c, 7, 65, 127
9, 121800, Note_on_c, 7, 77, 127
9, 121848, Note_on_c, 7, 77, 0
9, 121848, Note_on_c, 7, 65, 0
9, 121860, Note_on_c, 7, 72, 127
9, 121908, Note_on_c, 7, 72, 0
9, 121920, Note_on_c, 7, 69, 127
9, 121968, Note_on_c, 7, 69, 0
9, 121980, Note_on_c, 7, 72, 127
9, 122028, Note_on_c, 7, 72, 0
9, 122040, Note_on_c, 7, 77, 127
9, 122040, Note_on_c, 7, 65, 127
9, 122136, Note_on_c, 7, 65, 0
9, 122136, Note_on_c, 7, 77, 0
9, 122160, Note_on_c, 7, 77, 127
9, 122160, Note_on_c, 7, 65, 127
9, 122208, Note_on_c, 7, 65, 0
9, 122208, Note_on_c, 7, 77, 0
9, 122220, Note_on_c, 7, 77, 127
9, 122220, Note_on_c, 7, 65, 127
9, 122268, Note_on_c, 7, 65, 0
9, 122268, Note_on_c, 7, 77, 0
9, 122280, Note_on_c, 7, 65, 127
9, 122280, Note_on_c, 7, 77, 127
9, 122376, Note_on_c, 7, 77, 0
9, 122376, Note_on_c, 7, 65, 0
9, 122400, Note_on_c, 7, 65, 127
9, 122400, Note_on_c, 7, 77, 127
9, 122448, Note_on_c, 7, 77, 0
9, 122448, Note_on_c, 7, 65, 0
9, 122460, Note_on_c, 7, 65, 127
9, 122460, Note_on_c, 7, 77, 127
9, 122508, Note_on_c, 7, 77, 0
9, 122508, Note_on_c, 7, 65, 0
9, 122520, Note_on_c, 7, 79, 127
9, 122520, Note_on_c, 7, 77, 127
9, 122616, Note_on_c, 7, 77, 0
9, 122616, Note_on_c, 7, 79, 0
9, 122640, Note_on_c, 7, 79, 127
9, 122640, Note_on_c, 7, 77, 127
9, 122688, Note_on_c, 7, 77, 0
9, 122688, Note_on_c, 7, 79, 0
9, 122700, Note_on_c, 7, 79, 127
9, 122700, Note_on_c, 7, 77, 127
9, 122748, Note_on_c, 7, 77, 0
9, 122748, Note_on_c, 7, 79, 0
9, 122760, Note_on_c, 7, 79, 127
9, 122760, Note_on_c, 7, 72, 127
9, 122856, Note_on_c, 7, 72, 0
9, 122856, Note_on_c, 7, 79, 0
9, 122880, Note_on_c, 7, 79, 127
9, 122880, Note_on_c, 7, 72, 127
9, 122928, Note_on_c, 7, 72, 0
9, 122928, Note_on_c, 7, 79, 0
9, 122940, Note_on_c, 7, 79, 127
9, 122940, Note_on_c, 7, 72, 127
9, 122988, Note_on_c, 7, 72, 0
9, 122988, Note_on_c, 7, 79, 0
9, 123000, Note_on_c, 7, 65, 127
9, 123000, Note_on_c, 7, 77, 127
9, 123113, Note_on_c, 7, 77, 0
9, 123113, Note_on_c, 7, 65, 0
9, 126840, Note_on_c, 7, 65, 127
9, 126840, Note_on_c, 7, 77, 127
9, 126936, Note_on_c, 7, 77, 0
9, 126936, Note_on_c, 7, 65, 0
9, 126960, Note_on_c, 7, 65, 127
9, 126960, Note_on_c, 7, 77, 127
9, 127056, Note_on_c, 7, 77, 0
9, 127056, Note_on_c, 7, 65, 0
9, 127080, Note_on_c, 7, 65, 127
9, 127080, Note_on_c, 7, 77, 127
9, 127128, Note_on_c, 7, 77, 0
9, 127128, Note_on_c, 7, 65, 0
9, 127560, Note_on_c, 7, 60, 127
9, 127560, Note_on_c, 7, 72, 127
9, 127656, Note_on_c, 7, 72, 0
9, 127656, Note_on_c, 7, 60, 0
9, 127680, Note_on_c, 7, 60, 127
9, 127680, Note_on_c, 7, 72, 127
9, 127776, Note_on_c, 7, 72, 0
9, 127776, Note_on_c, 7, 60, 0
9, 127800, Note_on_c, 7, 65, 127
9, 127800, Note_on_c, 7, 77, 127
9, 127896, Note_on_c, 7, 77, 0
9, 127896, Note_on_c, 7, 65, 0
9, 128040, Note_on_c, 7, 60, 127
9, 128040, Note_on_c, 7, 72, 127
9, 128136, Note_on_c, 7, 72, 0
9, 128136, Note_on_c, 7, 60, 0
9, 128280, Note_on_c, 7, 60, 127
9, 128280, Note_on_c, 7, 72, 127
9, 128376, Note_on_c, 7, 72, 0
9, 128376, Note_on_c, 7, 60, 0
9, 128520, Note_on_c, 7, 60, 127
9, 128520, Note_on_c, 7, 72, 127
9, 128616, Note_on_c, 7, 72, 0
9, 128616, Note_on_c, 7, 60, 0
9, 128760, Note_on_c, 7, 60, 127
9, 128760, Note_on_c, 7, 72, 127
9, 128808, Note_on_c, 7, 72, 0
9, 128808, Note_on_c, 7, 60, 0
9, 128820, Note_on_c, 7, 60, 127
9, 128820, Note_on_c, 7, 72, 127
9, 128844, Note_on_c, 7, 72, 0
9, 128844, Note_on_c, 7, 60, 0
9, 128850, Note_on_c, 7, 60, 127
9, 128850, Note_on_c, 7, 72, 127
9, 128874, Note_on_c, 7, 72, 0
9, 128874, Note_on_c, 7, 60, 0
9, 128880, Note_on_c, 7, 60, 127
9, 128880, Note_on_c, 7, 72, 127
9, 128928, Note_on_c, 7, 72, 0
9, 128928, Note_on_c, 7, 60, 0
9, 128940, Note_on_c, 7, 60, 127
9, 128940, Note_on_c, 7, 72, 127
9, 128988, Note_on_c, 7, 72, 0
9, 128988, Note_on_c, 7, 60, 0
9, 129000, Note_on_c, 7, 72, 127
9, 129000, Note_on_c, 7, 60, 127
9, 129048, Note_on_c, 7, 60, 0
9, 129048, Note_on_c, 7, 72, 0
9, 129060, Note_on_c, 7, 72, 127
9, 129060, Note_on_c, 7, 60, 127
9, 129108, Note_on_c, 7, 60, 0
9, 129108, Note_on_c, 7, 72, 0
9, 129120, Note_on_c, 7, 72, 127
9, 129120, Note_on_c, 7, 60, 127
9, 129168, Note_on_c, 7, 60, 0
9, 129168, Note_on_c, 7, 72, 0
9, 129180, Note_on_c, 7, 72, 127
9, 129180, Note_on_c, 7, 60, 127
9, 129228, Note_on_c, 7, 60, 0
9, 129228, Note_on_c, 7, 72, 0
9, 129240, Note_on_c, 7, 60, 127
9, 129240, Note_on_c, 7, 72, 127
9, 129288, Note_on_c, 7, 72, 0
9, 129288, Note_on_c, 7, 60, 0
9, 129300, Note_on_c, 7, 60, 127
9, 129300, Note_on_c, 7, 72, 127
9, 129348, Note_on_c, 7, 72, 0
9, 129348, Note_on_c, 7, 60, 0
9, 129360, Note_on_c, 7, 60, 127
9, 129360, Note_on_c, 7, 72, 127
9, 129408, Note_on_c, 7, 72, 0
9, 129408, Note_on_c, 7, 60, 0
9, 129420, Note_on_c, 7, 60, 127
9, 129420, Note_on_c, 7, 72, 127
9, 129468, Note_on_c, 7, 72, 0
9, 129468, Note_on_c, 7, 60, 0
9, 129480, Note_on_c, 7, 60, 127
9, 129480, Note_on_c, 7, 72, 127
9, 129528, Note_on_c, 7, 72, 0
9, 129528, Note_on_c, 7, 60, 0
9, 129540, Note_on_c, 7, 60, 127
9, 129540, Note_on_c, 7, 72, 127
9, 129588, Note_on_c, 7, 72, 0
9, 129588, Note_on_c, 7, 60, 0
9, 129600, Note_on_c, 7, 60, 127
9, 129600, Note_on_c, 7, 72, 127
9, 129648, Note_on_c, 7, 72, 0
9, 129648, Note_on_c, 7, 60, 0
9, 129660, Note_on_c, 7, 60, 127
9, 129660, Note_on_c, 7, 72, 127
9, 129708, Note_on_c, 7, 72, 0
9, 129708, Note_on_c, 7, 60, 0
9, 129720, Note_on_c, 7, 60, 127
9, 129720, Note_on_c, 7, 72, 127
9, 129816, Note_on_c, 7, 72, 0
9, 129816, Note_on_c, 7, 60, 0
9, 129840, Note_on_c, 7, 72, 127
9, 129840, Note_on_c, 7, 60, 127
9, 129936, Note_on_c, 7, 60, 0
9, 129936, Note_on_c, 7, 72, 0
9, 129960, Note_on_c, 7, 72, 127
9, 129960, Note_on_c, 7, 60, 127
9, 130056, Note_on_c, 7, 60, 0
9, 130056, Note_on_c, 7, 72, 0
9, 130080, Note_on_c, 7, 72, 127
9, 130080, Note_on_c, 7, 60, 127
9, 130176, Note_on_c, 7, 60, 0
9, 130176, Note_on_c, 7, 72, 0
9, 130200, Note_on_c, 7, 72, 127
9, 130200, Note_on_c, 7, 60, 127
9, 130296, Note_on_c, 7, 60, 0
9, 130296, Note_on_c, 7, 72, 0
9, 130320, Note_on_c, 7, 72, 127
9, 130320, Note_on_c, 7, 60, 127
9, 130416, Note_on_c, 7, 60, 0
9, 130416, Note_on_c, 7, 72, 0
9, 130440, Note_on_c, 7, 72, 127
9, 130440, Note_on_c, 7, 60, 127
9, 130536, Note_on_c, 7, 60, 0
9, 130536, Note_on_c, 7, 72, 0
9, 130560, Note_on_c, 7, 72, 127
9, 130560, Note_on_c, 7, 60, 127
9, 130656, Note_on_c, 7, 60, 0
9, 130656, Note_on_c, 7, 72, 0
9, 130680, Note_on_c, 7, 65, 127
9, 130680, Note_on_c, 7, 77, 127
9, 130776, Note_on_c, 7, 77, 0
9, 130776, Note_on_c, 7, 65, 0
9, 130920, Note_on_c, 7, 72, 127
9, 130920, Note_on_c, 7, 60, 127
9, 131016, Note_on_c, 7, 60, 0
9, 131016, Note_on_c, 7, 72, 0
9, 131160, Note_on_c, 7, 60, 127
9, 131160, Note_on_c, 7, 72, 127
9, 131256, Note_on_c, 7, 72, 0
9, 131256, Note_on_c, 7, 60, 0
9, 131400, Note_on_c, 7, 72, 127
9, 131400, Note_on_c, 7, 60, 127
9, 131496, Note_on_c, 7, 60, 0
9, 131496, Note_on_c, 7, 72, 0
9, 131640, Note_on_c, 7, 72, 127
9, 131640, Note_on_c, 7, 60, 127
9, 131688, Note_on_c, 7, 60, 0
9, 131688, Note_on_c, 7, 72, 0
9, 131700, Note_on_c, 7, 72, 127
9, 131700, Note_on_c, 7, 60, 127
9, 131724, Note_on_c, 7, 60, 0
9, 131724, Note_on_c, 7, 72, 0
9, 131730, Note_on_c, 7, 72, 127
9, 131730, Note_on_c, 7, 60, 127
9, 131754, Note_on_c, 7, 60, 0
9, 131754, Note_on_c, 7, 72, 0
9, 131760, Note_on_c, 7, 72, 127
9, 131760, Note_on_c, 7, 60, 127
9, 131808, Note_on_c, 7, 60, 0
9, 131808, Note_on_c, 7, 72, 0
9, 131820, Note_on_c, 7, 72, 127
9, 131820, Note_on_c, 7, 60, 127
9, 131868, Note_on_c, 7, 60, 0
9, 131868, Note_on_c, 7, 72, 0
9, 131880, Note_on_c, 7, 60, 127
9, 131880, Note_on_c, 7, 72, 127
9, 131928, Note_on_c, 7, 72, 0
9, 131928, Note_on_c, 7, 60, 0
9, 131940, Note_on_c, 7, 60, 127
9, 131940, Note_on_c, 7, 72, 127
9, 131988, Note_on_c, 7, 72, 0
9, 131988, Note_on_c, 7, 60, 0
9, 132000, Note_on_c, 7, 60, 127
9, 132000, Note_on_c, 7, 72, 127
9, 132048, Note_on_c, 7, 72, 0
9, 132048, Note_on_c, 7, 60, 0
9, 132060, Note_on_c, 7, 60, 127
9, 132060, Note_on_c, 7, 72, 127
9, 132108, Note_on_c, 7, 72, 0
9, 132108, Note_on_c, 7, 60, 0
9, 132120, Note_on_c, 7, 72, 127
9, 132120, Note_on_c, 7, 60, 127
9, 132168, Note_on_c, 7, 60, 0
9, 132168, Note_on_c, 7, 72, 0
9, 132180, Note_on_c, 7, 72, 127
9, 132180, Note_on_c, 7, 60, 127
9, 132228, Note_on_c, 7, 60, 0
9, 132228, Note_on_c, 7, 72, 0
9, 132240, Note_on_c, 7, 72, 127
9, 132240, Note_on_c, 7, 60, 127
9, 132288, Note_on_c, 7, 60, 0
9, 132288, Note_on_c, 7, 72, 0
9, 132300, Note_on_c, 7, 72, 127
9, 132300, Note_on_c, 7, 60, 127
9, 132348, Note_on_c, 7, 60, 0
9, 132348, Note_on_c, 7, 72, 0
9, 132360, Note_on_c, 7, 72, 127
9, 132360, Note_on_c, 7, 60, 127
9, 132408, Note_on_c, 7, 60, 0
9, 132408, Note_on_c, 7, 72, 0
9, 132420, Note_on_c, 7, 72, 127
9, 132420, Note_on_c, 7, 60, 127
9, 132468, Note_on_c, 7, 60, 0
9, 132468, Note_on_c, 7, 72, 0
9, 132480, Note_on_c, 7, 72, 127
9, 132480, Note_on_c, 7, 60, 127
9, 132528, Note_on_c, 7, 60, 0
9, 132528, Note_on_c, 7, 72, 0
9, 132540, Note_on_c, 7, 72, 127
9, 132540, Note_on_c, 7, 60, 127
9, 132588, Note_on_c, 7, 60, 0
9, 132588, Note_on_c, 7, 72, 0
9, 132600, Note_on_c, 7, 72, 127
9, 132600, Note_on_c, 7, 60, 127
9, 132696, Note_on_c, 7, 60, 0
9, 132696, Note_on_c, 7, 72, 0
9, 132720, Note_on_c, 7, 60, 127
9, 132720, Note_on_c, 7, 72, 127
9, 132816, Note_on_c, 7, 72, 0
9, 132816, Note_on_c, 7, 60, 0
9, 132840, Note_on_c, 7, 60, 127
9, 132840, Note_on_c, 7, 72, 127
9, 132936, Note_on_c, 7, 72, 0
9, 132936, Note_on_c, 7, 60, 0
9, 132960, Note_on_c, 7, 60, 127
9, 132960, Note_on_c, 7, 72, 127
9, 133056, Note_on_c, 7, 72, 0
9, 133056, Note_on_c, 7, 60, 0
9, 133080, Note_on_c, 7, 60, 127
9, 133080, Note_on_c, 7, 72, 127
9, 133176, Note_on_c, 7, 72, 0
9, 133176, Note_on_c, 7, 60, 0
9, 133200, Note_on_c, 7, 60, 127
9, 133200, Note_on_c, 7, 72, 127
9, 133296, Note_on_c, 7, 72, 0
9, 133296, Note_on_c, 7, 60, 0
9, 133320, Note_on_c, 7, 60, 127
9, 133320, Note_on_c, 7, 72, 127
9, 133416, Note_on_c, 7, 72, 0
9, 133416, Note_on_c, 7, 60, 0
9, 133440, Note_on_c, 7, 60, 127
9, 133440, Note_on_c, 7, 72, 127
9, 133536, Note_on_c, 7, 72, 0
9, 133536, Note_on_c, 7, 60, 0
9, 133560, Note_on_c, 7, 65, 127
9, 133560, Note_on_c, 7, 77, 127
9, 133848, Note_on_c, 7, 77, 0
9, 133848, Note_on_c, 7, 65, 0
9, 133920, Note_on_c, 7, 60, 127
9, 133920, Note_on_c, 7, 72, 127
9, 134016, Note_on_c, 7, 72, 0
9, 134016, Note_on_c, 7, 60, 0
9, 134040, Note_on_c, 7, 65, 127
9, 134040, Note_on_c, 7, 77, 127
9, 134136, Note_on_c, 7, 77, 0
9, 134136, Note_on_c, 7, 65, 0
9, 134160, Note_on_c, 7, 60, 127
9, 134160, Note_on_c, 7, 72, 127
9, 134256, Note_on_c, 7, 72, 0
9, 134256, Note_on_c, 7, 60, 0
9, 134280, Note_on_c, 7, 69, 127
9, 134376, Note_on_c, 7, 69, 0
9, 134400, Note_on_c, 7, 60, 127
9, 134400, Note_on_c, 7, 72, 127
9, 134496, Note_on_c, 7, 72, 0
9, 134496, Note_on_c, 7, 60, 0
9, 134520, Note_on_c, 7, 77, 127
9, 134520, Note_on_c, 7, 65, 127
9, 134808, Note_on_c, 7, 65, 0
9, 134808, Note_on_c, 7, 77, 0
9, 134880, Note_on_c, 7, 72, 127
9, 134880, Note_on_c, 7, 60, 127
9, 134976, Note_on_c, 7, 60, 0
9, 134976, Note_on_c, 7, 72, 0
9, 135000, Note_on_c, 7, 77, 127
9, 135000, Note_on_c, 7, 65, 127
9, 135096, Note_on_c, 7, 65, 0
9, 135096, Note_on_c, 7, 77, 0
9, 135120, Note_on_c, 7, 72, 127
9, 135120, Note_on_c, 7, 60, 127
9, 135216, Note_on_c, 7, 60, 0
9, 135216, Note_on_c, 7, 72, 0
9, 135240, Note_on_c, 7, 69, 127
9, 135336, Note_on_c, 7, 69, 0
9, 135360, Note_on_c, 7, 72, 127
9, 135360, Note_on_c, 7, 60, 127
9, 135456, Note_on_c, 7, 60, 0
9, 135456, Note_on_c, 7, 72, 0
9, 135480, Note_on_c, 7, 65, 127
9, 135480, Note_on_c, 7, 77, 127
9, 135672, Note_on_c, 7, 77, 0
9, 135672, Note_on_c, 7, 65, 0
9, 135720, Note_on_c, 7, 69, 127
9, 135720, Note_on_c, 7, 81, 127
9, 135912, Note_on_c, 7, 81, 0
9, 135912, Note_on_c, 7, 69, 0
9, 135960, Note_on_c, 7, 72, 127
9, 136248, Note_on_c, 7, 72, 0
9, 136320, Note_on_c, 7, 60, 127
9, 136320, Note_on_c, 7, 72, 127
9, 136416, Note_on_c, 7, 72, 0
9, 136416, Note_on_c, 7, 60, 0
9, 136440, Note_on_c, 7, 65, 127
9, 136440, Note_on_c, 7, 77, 127
9, 136632, Note_on_c, 7, 77, 0
9, 136632, Note_on_c, 7, 65, 0
9, 136680, Note_on_c, 7, 69, 127
9, 136680, Note_on_c, 7, 81, 127
9, 136872, Note_on_c, 7, 81, 0
9, 136872, Note_on_c, 7, 69, 0
9, 136920, Note_on_c, 7, 72, 127
9, 137208, Note_on_c, 7, 72, 0
9, 137280, Note_on_c, 7, 72, 127
9, 137280, Note_on_c, 7, 60, 127
9, 137376, Note_on_c, 7, 60, 0
9, 137376, Note_on_c, 7, 72, 0
9, 137400, Note_on_c, 7, 77, 127
9, 137400, Note_on_c, 7, 65, 127
9, 137592, Note_on_c, 7, 65, 0
9, 137592, Note_on_c, 7, 77, 0
9, 137640, Note_on_c, 7, 81, 127
9, 137640, Note_on_c, 7, 69, 127
9, 137832, Note_on_c, 7, 69, 0
9, 137832, Note_on_c, 7, 81, 0
9, 137880, Note_on_c, 7, 72, 127
9, 138168, Note_on_c, 7, 72, 0
9, 138240, Note_on_c, 7, 72, 127
9, 138240, Note_on_c, 7, 60, 127
9, 138336, Note_on_c, 7, 60, 0
9, 138336, Note_on_c, 7, 72, 0
9, 138360, Note_on_c, 7, 72, 127
9, 138648, Note_on_c, 7, 72, 0
9, 138720, Note_on_c, 7, 60, 127
9, 138720, Note_on_c, 7, 72, 127
9, 138816, Note_on_c, 7, 72, 0
9, 138816, Note_on_c, 7, 60, 0
9, 138840, Note_on_c, 7, 72, 127
9, 139128, Note_on_c, 7, 72, 0
9, 139200, Note_on_c, 7, 60, 127
9, 139200, Note_on_c, 7, 72, 127
9, 139296, Note_on_c, 7, 72, 0
9, 139296, Note_on_c, 7, 60, 0
9, 139320, Note_on_c, 7, 72, 127
9, 140184, Note_on_c, 7, 72, 0
9, 140280, Note_on_c, 7, 65, 127
9, 140280, Note_on_c, 7, 77, 127
9, 140376, Note_on_c, 7, 77, 0
9, 140376, Note_on_c, 7, 65, 0
9, 140400, Note_on_c, 7, 69, 127
9, 140400, Note_on_c, 7, 72, 127
9, 140472, Note_on_c, 7, 72, 0
9, 140472, Note_on_c, 7, 69, 0
9, 140490, Note_on_c, 7, 69, 127
9, 140490, Note_on_c, 7, 72, 127
9, 140514, Note_on_c, 7, 72, 0
9, 140514, Note_on_c, 7, 69, 0
9, 140520, Note_on_c, 7, 65, 127
9, 140520, Note_on_c, 7, 77, 127
9, 140616, Note_on_c, 7, 77, 0
9, 140616, Note_on_c, 7, 65, 0
9, 140640, Note_on_c, 7, 69, 127
9, 140640, Note_on_c, 7, 72, 127
9, 140736, Note_on_c, 7, 72, 0
9, 140736, Note_on_c, 7, 69, 0
9, 140760, Note_on_c, 7, 77, 127
9, 140760, Note_on_c, 7, 65, 127
9, 140856, Note_on_c, 7, 65, 0
9, 140856, Note_on_c, 7, 77, 0
9, 140880, Note_on_c, 7, 72, 127
9, 140880, Note_on_c, 7, 69, 127
9, 140952, Note_on_c, 7, 69, 0
9, 140952, Note_on_c, 7, 72, 0
9, 140970, Note_on_c, 7, 72, 127
9, 140970, Note_on_c, 7, 69, 127
9, 140994, Note_on_c, 7, 69, 0
9, 140994, Note_on_c, 7, 72, 0
9, 141000, Note_on_c, 7, 77, 127
9, 141000, Note_on_c, 7, 65, 127
9, 141096, Note_on_c, 7, 65, 0
9, 141096, Note_on_c, 7, 77, 0
9, 141120, Note_on_c, 7, 72, 127
9, 141120, Note_on_c, 7, 69, 127
9, 141216, Note_on_c, 7, 69, 0
9, 141216, Note_on_c, 7, 72, 0
9, 141240, Note_on_c, 7, 77, 127
9, 141240, Note_on_c, 7, 65, 127
9, 141336, Note_on_c, 7, 65, 0
9, 141336, Note_on_c, 7, 77, 0
9, 141360, Note_on_c, 7, 72, 127
9, 141360, Note_on_c, 7, 69, 127
9, 141432, Note_on_c, 7, 69, 0
9, 141432, Note_on_c, 7, 72, 0
9, 141450, Note_on_c, 7, 72, 127
9, 141450, Note_on_c, 7, 69, 127
9, 141474, Note_on_c, 7, 69, 0
9, 141474, Note_on_c, 7, 72, 0
9, 141480, Note_on_c, 7, 77, 127
9, 141480, Note_on_c, 7, 65, 127
9, 141576, Note_on_c, 7, 65, 0
9, 141576, Note_on_c, 7, 77, 0
9, 141600, Note_on_c, 7, 72, 127
9, 141600, Note_on_c, 7, 69, 127
9, 141696, Note_on_c, 7, 69, 0
9, 141696, Note_on_c, 7, 72, 0
9, 141720, Note_on_c, 7, 65, 127
9, 141720, Note_on_c, 7, 77, 127
9, 141816, Note_on_c, 7, 77, 0
9, 141816, Note_on_c, 7, 65, 0
9, 141960, Note_on_c, 7, 65, 127
9, 142056, Note_on_c, 7, 65, 0
9, 142200, Note_on_c, 7, 65, 127
9, 142296, Note_on_c, 7, 65, 0
9, 142296, End_track
10, 0, Start_track
10, 0, Title_t, "Timpani in F-C"
10, 0, Program_c, 8, 47
10, 0, Control_c, 8, 7, 127
10, 0, Control_c, 8, 10, 64
10, 30840, Note_on_c, 8, 41, 127
10, 30936, Note_on_c, 8, 41, 0
10, 30960, Note_on_c, 8, 41, 127
10, 30992, Note_on_c, 8, 41, 0
10, 31000, Note_on_c, 8, 41, 126
10, 31032, Note_on_c, 8, 41, 0
10, 31040, Note_on_c, 8, 41, 126
10, 31072, Note_on_c, 8, 41, 0
10, 31080, Note_on_c, 8, 41, 126
10, 31112, Note_on_c, 8, 41, 0
10, 31120, Note_on_c, 8, 41, 125
10, 31152, Note_on_c, 8, 41, 0
10, 31160, Note_on_c, 8, 41, 125
10, 31192, Note_on_c, 8, 41, 0
10, 31200, Note_on_c, 8, 41, 125
10, 31232, Note_on_c, 8, 41, 0
10, 31240, Note_on_c, 8, 41, 125
10, 31272, Note_on_c, 8, 41, 0
10, 31280, Note_on_c, 8, 41, 124
10, 31312, Note_on_c, 8, 41, 0
10, 31320, Note_on_c, 8, 41, 124
10, 31416, Note_on_c, 8, 41, 0
10, 31800, Note_on_c, 8, 41, 121
10, 31896, Note_on_c, 8, 41, 0
10, 31920, Note_on_c, 8, 41, 120
10, 32016, Note_on_c, 8, 41, 0
10, 32040, Note_on_c, 8, 48, 119
10, 32136, Note_on_c, 8, 48, 0
10, 32280, Note_on_c, 8, 48, 117
10, 32376, Note_on_c, 8, 48, 0
10, 32400, Note_on_c, 8, 48, 116
10, 32432, Note_on_c, 8, 48, 0
10, 32440, Note_on_c, 8, 48, 116
10, 32472, Note_on_c, 8, 48, 0
10, 32480, Note_on_c, 8, 48, 116
10, 32512, Note_on_c, 8, 48, 0
10, 32520, Note_on_c, 8, 48, 115
10, 32552, Note_on_c, 8, 48, 0
10, 32560, Note_on_c, 8, 48, 115
10, 32592, Note_on_c, 8, 48, 0
10, 32600, Note_on_c, 8, 48, 115
10, 32632, Note_on_c, 8, 48, 0
10, 32640, Note_on_c, 8, 48, 114
10, 32672, Note_on_c, 8, 48, 0
10, 32680, Note_on_c, 8, 48, 114
10, 32712, Note_on_c, 8, 48, 0
10, 32720, Note_on_c, 8, 48, 114
10, 32752, Note_on_c, 8, 48, 0
10, 32760, Note_on_c, 8, 48, 114
10, 32856, Note_on_c, 8, 48, 0
10, 33240, Note_on_c, 8, 48, 110
10, 33336, Note_on_c, 8, 48, 0
10, 33360, Note_on_c, 8, 48, 109
10, 33456, Note_on_c, 8, 48, 0
10, 33480, Note_on_c, 8, 41, 108
10, 33576, Note_on_c, 8, 41, 0
10, 33840, Note_on_c, 8, 41, 106
10, 33936, Note_on_c, 8, 41, 0
10, 34200, Note_on_c, 8, 41, 103
10, 34296, Note_on_c, 8, 41, 0
10, 34560, Note_on_c, 8, 41, 100
10, 34656, Note_on_c, 8, 41, 0
10, 34680, Note_on_c, 8, 41, 109
10, 34776, Note_on_c, 8, 41, 0
10, 34800, Note_on_c, 8, 41, 118
10, 34896, Note_on_c, 8, 41, 0
10, 34920, Note_on_c, 8, 41, 127
10, 35016, Note_on_c, 8, 41, 0
10, 35280, Note_on_c, 8, 41, 104
10, 35376, Note_on_c, 8, 41, 0
10, 35640, Note_on_c, 8, 41, 112
10, 35736, Note_on_c, 8, 41, 0
10, 35880, Note_on_c, 8, 41, 117
10, 35976, Note_on_c, 8, 41, 0
10, 36000, Note_on_c, 8, 41, 119
10, 36096, Note_on_c, 8, 41, 0
10, 36120, Note_on_c, 8, 41, 122
10, 36216, Note_on_c, 8, 41, 0
10, 36720, Note_on_c, 8, 48, 127
10, 36816, Note_on_c, 8, 48, 0
10, 38160, Note_on_c, 8, 48, 127
10, 38256, Note_on_c, 8, 48, 0
10, 45720, Note_on_c, 8, 48, 95
10, 45816, Note_on_c, 8, 48, 0
10, 46080, Note_on_c, 8, 41, 95
10, 46176, Note_on_c, 8, 41, 0
10, 46440, Note_on_c, 8, 41, 95
10, 46536, Note_on_c, 8, 41, 0
10, 47160, Note_on_c, 8, 48, 95
10, 47256, Note_on_c, 8, 48, 0
10, 47880, Note_on_c, 8, 48, 80
10, 47976, Note_on_c, 8, 48, 0
10, 48600, Note_on_c, 8, 48, 80
10, 48696, Note_on_c, 8, 48, 0
10, 49080, Note_on_c, 8, 48, 114
10, 49176, Note_on_c, 8, 48, 0
10, 49200, Note_on_c, 8, 48, 120
10, 49296, Note_on_c, 8, 48, 0
10, 50040, Note_on_c, 8, 48, 127
10, 50136, Note_on_c, 8, 48, 0
10, 50760, Note_on_c, 8, 48, 127
10, 50856, Note_on_c, 8, 48, 0
10, 51480, Note_on_c, 8, 48, 127
10, 51576, Note_on_c, 8, 48, 0
10, 79080, Note_on_c, 8, 41, 127
10, 79176, Note_on_c, 8, 41, 0
10, 79200, Note_on_c, 8, 41, 127
10, 79232, Note_on_c, 8, 41, 0
10, 79240, Note_on_c, 8, 41, 127
10, 79272, Note_on_c, 8, 41, 0
10, 79280, Note_on_c, 8, 41, 127
10, 79312, Note_on_c, 8, 41, 0
10, 79320, Note_on_c, 8, 41, 127
10, 79352, Note_on_c, 8, 41, 0
10, 79360, Note_on_c, 8, 41, 127
10, 79392, Note_on_c, 8, 41, 0
10, 79400, Note_on_c, 8, 41, 127
10, 79432, Note_on_c, 8, 41, 0
10, 79440, Note_on_c, 8, 41, 127
10, 79472, Note_on_c, 8, 41, 0
10, 79480, Note_on_c, 8, 41, 127
10, 79512, Note_on_c, 8, 41, 0
10, 79520, Note_on_c, 8, 41, 127
10, 79552, Note_on_c, 8, 41, 0
10, 79560, Note_on_c, 8, 41, 127
10, 79656, Note_on_c, 8, 41, 0
10, 80040, Note_on_c, 8, 41, 127
10, 80136, Note_on_c, 8, 41, 0
10, 80160, Note_on_c, 8, 41, 127
10, 80256, Note_on_c, 8, 41, 0
10, 80280, Note_on_c, 8, 48, 127
10, 80376, Note_on_c, 8, 48, 0
10, 80520, Note_on_c, 8, 48, 127
10, 80616, Note_on_c, 8, 48, 0
10, 80640, Note_on_c, 8, 48, 127
10, 80672, Note_on_c, 8, 48, 0
10, 80680, Note_on_c, 8, 48, 127
10, 80712, Note_on_c, 8, 48, 0
10, 80720, Note_on_c, 8, 48, 127
10, 80752, Note_on_c, 8, 48, 0
10, 80760, Note_on_c, 8, 48, 127
10, 80792, Note_on_c, 8, 48, 0
10, 80800, Note_on_c, 8, 48, 127
10, 80832, Note_on_c, 8, 48, 0
10, 80840, Note_on_c, 8, 48, 127
10, 80872, Note_on_c, 8, 48, 0
10, 80880, Note_on_c, 8, 48, 127
10, 80912, Note_on_c, 8, 48, 0
10, 80920, Note_on_c, 8, 48, 127
10, 80952, Note_on_c, 8, 48, 0
10, 80960, Note_on_c, 8, 48, 127
10, 80992, Note_on_c, 8, 48, 0
10, 81000, Note_on_c, 8, 48, 127
10, 81096, Note_on_c, 8, 48, 0
10, 81480, Note_on_c, 8, 48, 127
10, 81576, Note_on_c, 8, 48, 0
10, 81600, Note_on_c, 8, 48, 127
10, 81696, Note_on_c, 8, 48, 0
10, 81720, Note_on_c, 8, 41, 127
10, 81816, Note_on_c, 8, 41, 0
10, 84120, Note_on_c, 8, 41, 127
10, 84216, Note_on_c, 8, 41, 0
10, 84240, Note_on_c, 8, 41, 127
10, 84336, Note_on_c, 8, 41, 0
10, 84960, Note_on_c, 8, 41, 127
10, 85056, Note_on_c, 8, 41, 0
10, 85680, Note_on_c, 8, 41, 127
10, 85776, Note_on_c, 8, 41, 0
10, 86400, Note_on_c, 8, 41, 112
10, 86496, Note_on_c, 8, 41, 0
10, 87000, Note_on_c, 8, 48, 124
10, 87096, Note_on_c, 8, 48, 0
10, 87840, Note_on_c, 8, 48, 127
10, 87936, Note_on_c, 8, 48, 0
10, 88200, Note_on_c, 8, 41, 122
10, 88296, Note_on_c, 8, 41, 0
10, 88920, Note_on_c, 8, 48, 112
10, 89016, Note_on_c, 8, 48, 0
10, 89280, Note_on_c, 8, 48, 107
10, 89376, Note_on_c, 8, 48, 0
10, 89640, Note_on_c, 8, 41, 102
10, 89736, Note_on_c, 8, 41, 0
10, 90360, Note_on_c, 8, 48, 92
10, 90456, Note_on_c, 8, 48, 0
10, 96840, Note_on_c, 8, 48, 100
10, 96870, Note_on_c, 8, 48, 0
10, 96870, Note_on_c, 8, 48, 102
10, 96900, Note_on_c, 8, 48, 0
10, 96900, Note_on_c, 8, 48, 104
10, 96930, Note_on_c, 8, 48, 0
10, 96930, Note_on_c, 8, 48, 106
10, 96960, Note_on_c, 8, 48, 0
10, 96960, Note_on_c, 8, 48, 109
10, 96990, Note_on_c, 8, 48, 0
10, 96990, Note_on_c, 8, 48, 111
10, 97020, Note_on_c, 8, 48, 0
10, 97020, Note_on_c, 8, 48, 113
10, 97050, Note_on_c, 8, 48, 0
10, 97050, Note_on_c, 8, 48, 115
10, 97080, Note_on_c, 8, 48, 0
10, 97080, Note_on_c, 8, 48, 118
10, 97110, Note_on_c, 8, 48, 0
10, 97110, Note_on_c, 8, 48, 120
10, 97140, Note_on_c, 8, 48, 0
10, 97140, Note_on_c, 8, 48, 122
10, 97170, Note_on_c, 8, 48, 0
10, 97170, Note_on_c, 8, 48, 124
10, 97200, Note_on_c, 8, 48, 0
10, 97200, Note_on_c, 8, 41, 127
10, 97296, Note_on_c, 8, 41, 0
10, 98280, Note_on_c, 8, 48, 127
10, 98376, Note_on_c, 8, 48, 0
10, 98640, Note_on_c, 8, 41, 127
10, 98736, Note_on_c, 8, 41, 0
10, 99360, Note_on_c, 8, 41, 127
10, 99456, Note_on_c, 8, 41, 0
10, 100080, Note_on_c, 8, 41, 127
10, 100176, Note_on_c, 8, 41, 0
10, 100560, Note_on_c, 8, 41, 127
10, 100656, Note_on_c, 8, 41, 0
10, 100680, Note_on_c, 8, 41, 127
10, 100776, Note_on_c, 8, 41, 0
10, 100800, Note_on_c, 8, 48, 127
10, 100896, Note_on_c, 8, 48, 0
10, 101160, Note_on_c, 8, 48, 127
10, 101256, Note_on_c, 8, 48, 0
10, 101520, Note_on_c, 8, 41, 127
10, 101616, Note_on_c, 8, 41, 0
10, 101880, Note_on_c, 8, 48, 127
10, 101976, Note_on_c, 8, 48, 0
10, 102240, Note_on_c, 8, 41, 127
10, 102336, Note_on_c, 8, 41, 0
10, 102600, Note_on_c, 8, 48, 127
10, 102696, Note_on_c, 8, 48, 0
10, 108720, Note_on_c, 8, 48, 127
10, 108816, Note_on_c, 8, 48, 0
10, 108840, Note_on_c, 8, 48, 127
10, 108936, Note_on_c, 8, 48, 0
10, 109020, Note_on_c, 8, 48, 127
10, 109068, Note_on_c, 8, 48, 0
10, 109080, Note_on_c, 8, 48, 127
10, 109176, Note_on_c, 8, 48, 0
10, 109200, Note_on_c, 8, 48, 127
10, 109296, Note_on_c, 8, 48, 0
10, 109380, Note_on_c, 8, 48, 127
10, 109428, Note_on_c, 8, 48, 0
10, 109440, Note_on_c, 8, 48, 127
10, 109536, Note_on_c, 8, 48, 0
10, 109560, Note_on_c, 8, 48, 127
10, 109656, Note_on_c, 8, 48, 0
10, 113400, Note_on_c, 8, 48, 50
10, 113424, Note_on_c, 8, 48, 0
10, 113430, Note_on_c, 8, 48, 50
10, 113454, Note_on_c, 8, 48, 0
10, 113460, Note_on_c, 8, 48, 50
10, 113484, Note_on_c, 8, 48, 0
10, 113490, Note_on_c, 8, 48, 50
10, 113514, Note_on_c, 8, 48, 0
10, 113520, Note_on_c, 8, 48, 50
10, 113544, Note_on_c, 8, 48, 0
10, 113550, Note_on_c, 8, 48, 50
10, 113574, Note_on_c, 8, 48, 0
10, 113580, Note_on_c, 8, 48, 50
10, 113604, Note_on_c, 8, 48, 0
10, 113610, Note_on_c, 8, 48, 50
10, 113634, Note_on_c, 8, 48, 0
10, 113640, Note_on_c, 8, 48, 50
10, 113664, Note_on_c, 8, 48, 0
10, 113670, Note_on_c, 8, 48, 50
10, 113694, Note_on_c, 8, 48, 0
10, 113700, Note_on_c, 8, 48, 50
10, 113724, Note_on_c, 8, 48, 0
10, 113730, Note_on_c, 8, 48, 50
10, 113754, Note_on_c, 8, 48, 0
10, 113760, Note_on_c, 8, 48, 50
10, 113784, Note_on_c, 8, 48, 0
10, 113790, Note_on_c, 8, 48, 50
10, 113814, Note_on_c, 8, 48, 0
10, 113820, Note_on_c, 8, 48, 50
10, 113844, Note_on_c, 8, 48, 0
10, 113850, Note_on_c, 8, 48, 50
10, 113874, Note_on_c, 8, 48, 0
10, 113880, Note_on_c, 8, 48, 50
10, 113904, Note_on_c, 8, 48, 0
10, 113910, Note_on_c, 8, 48, 50
10, 113934, Note_on_c, 8, 48, 0
10, 113940, Note_on_c, 8, 48, 50
10, 113964, Note_on_c, 8, 48, 0
10, 113970, Note_on_c, 8, 48, 50
10, 113994, Note_on_c, 8, 48, 0
10, 114000, Note_on_c, 8, 48, 50
10, 114024, Note_on_c, 8, 48, 0
10, 114030, Note_on_c, 8, 48, 50
10, 114054, Note_on_c, 8, 48, 0
10, 114060, Note_on_c, 8, 48, 50
10, 114084, Note_on_c, 8, 48, 0
10, 114090, Note_on_c, 8, 48, 50
10, 114114, Note_on_c, 8, 48, 0
10, 114120, Note_on_c, 8, 48, 50
10, 114144, Note_on_c, 8, 48, 0
10, 114150, Note_on_c, 8, 48, 50
10, 114174, Note_on_c, 8, 48, 0
10, 114180, Note_on_c, 8, 48, 50
10, 114204, Note_on_c, 8, 48, 0
10, 114210, Note_on_c, 8, 48, 50
10, 114234, Note_on_c, 8, 48, 0
10, 114240, Note_on_c, 8, 48, 50
10, 114264, Note_on_c, 8, 48, 0
10, 114270, Note_on_c, 8, 48, 50
10, 114294, Note_on_c, 8, 48, 0
10, 114300, Note_on_c, 8, 48, 50
10, 114324, Note_on_c, 8, 48, 0
10, 114330, Note_on_c, 8, 48, 50
10, 114354, Note_on_c, 8, 48, 0
10, 114360, Note_on_c, 8, 48, 50
10, 114384, Note_on_c, 8, 48, 0
10, 114390, Note_on_c, 8, 48, 50
10, 114414, Note_on_c, 8, 48, 0
10, 114420, Note_on_c, 8, 48, 50
10, 114444, Note_on_c, 8, 48, 0
10, 114450, Note_on_c, 8, 48, 50
10, 114474, Note_on_c, 8, 48, 0
10, 114480, Note_on_c, 8, 48, 50
10, 114504, Note_on_c, 8, 48, 0
10, 114510, Note_on_c, 8, 48, 50
10, 114534, Note_on_c, 8, 48, 0
10, 114540, Note_on_c, 8, 48, 50
10, 114564, Note_on_c, 8, 48, 0
10, 114570, Note_on_c, 8, 48, 50
10, 114594, Note_on_c, 8, 48, 0
10, 114600, Note_on_c, 8, 48, 50
10, 114624, Note_on_c, 8, 48, 0
10, 114630, Note_on_c, 8, 48, 50
10, 114654, Note_on_c, 8, 48, 0
10, 114660, Note_on_c, 8, 48, 50
10, 114684, Note_on_c, 8, 48, 0
10, 114690, Note_on_c, 8, 48, 50
10, 114714, Note_on_c, 8, 48, 0
10, 114720, Note_on_c, 8, 48, 50
10, 114744, Note_on_c, 8, 48, 0
10, 114750, Note_on_c, 8, 48, 50
10, 114774, Note_on_c, 8, 48, 0
10, 114780, Note_on_c, 8, 48, 50
10, 114804, Note_on_c, 8, 48, 0
10, 114810, Note_on_c, 8, 48, 50
10, 114834, Note_on_c, 8, 48, 0
10, 114840, Note_on_c, 8, 48, 50
10, 114864, Note_on_c, 8, 48, 0
10, 114870, Note_on_c, 8, 48, 50
10, 114894, Note_on_c, 8, 48, 0
10, 114900, Note_on_c, 8, 48, 50
10, 114924, Note_on_c, 8, 48, 0
10, 114930, Note_on_c, 8, 48, 50
10, 114954, Note_on_c, 8, 48, 0
10, 114960, Note_on_c, 8, 48, 50
10, 114984, Note_on_c, 8, 48, 0
10, 114990, Note_on_c, 8, 48, 50
10, 115014, Note_on_c, 8, 48, 0
10, 115020, Note_on_c, 8, 48, 50
10, 115044, Note_on_c, 8, 48, 0
10, 115050, Note_on_c, 8, 48, 50
10, 115074, Note_on_c, 8, 48, 0
10, 115080, Note_on_c, 8, 48, 50
10, 115104, Note_on_c, 8, 48, 0
10, 115110, Note_on_c, 8, 48, 51
10, 115134, Note_on_c, 8, 48, 0
10, 115140, Note_on_c, 8, 48, 52
10, 115164, Note_on_c, 8, 48, 0
10, 115170, Note_on_c, 8, 48, 53
10, 115194, Note_on_c, 8, 48, 0
10, 115200, Note_on_c, 8, 48, 54
10, 115224, Note_on_c, 8, 48, 0
10, 115230, Note_on_c, 8, 48, 55
10, 115254, Note_on_c, 8, 48, 0
10, 115260, Note_on_c, 8, 48, 56
10, 115284, Note_on_c, 8, 48, 0
10, 115290, Note_on_c, 8, 48, 57
10, 115314, Note_on_c, 8, 48, 0
10, 115320, Note_on_c, 8, 48, 58
10, 115344, Note_on_c, 8, 48, 0
10, 115350, Note_on_c, 8, 48, 59
10, 115374, Note_on_c, 8, 48, 0
10, 115380, Note_on_c, 8, 48, 60
10, 115404, Note_on_c, 8, 48, 0
10, 115410, Note_on_c, 8, 48, 61
10, 115434, Note_on_c, 8, 48, 0
10, 115440, Note_on_c, 8, 48, 62
10, 115464, Note_on_c, 8, 48, 0
10, 115470, Note_on_c, 8, 48, 64
10, 115494, Note_on_c, 8, 48, 0
10, 115500, Note_on_c, 8, 48, 65
10, 115524, Note_on_c, 8, 48, 0
10, 115530, Note_on_c, 8, 48, 66
10, 115554, Note_on_c, 8, 48, 0
10, 115560, Note_on_c, 8, 48, 67
10, 115584, Note_on_c, 8, 48, 0
10, 115590, Note_on_c, 8, 48, 68
10, 115614, Note_on_c, 8, 48, 0
10, 115620, Note_on_c, 8, 48, 69
10, 115644, Note_on_c, 8, 48, 0
10, 115650, Note_on_c, 8, 48, 70
10, 115674, Note_on_c, 8, 48, 0
10, 115680, Note_on_c, 8, 48, 71
10, 115704, Note_on_c, 8, 48, 0
10, 115710, Note_on_c, 8, 48, 72
10, 115734, Note_on_c, 8, 48, 0
10, 115740, Note_on_c, 8, 48, 73
10, 115764, Note_on_c, 8, 48, 0
10, 115770, Note_on_c, 8, 48, 74
10, 115794, Note_on_c, 8, 48, 0
10, 115800, Note_on_c, 8, 48, 75
10, 115824, Note_on_c, 8, 48, 0
10, 115830, Note_on_c, 8, 48, 76
10, 115854, Note_on_c, 8, 48, 0
10, 115860, Note_on_c, 8, 48, 78
10, 115884, Note_on_c, 8, 48, 0
10, 115890, Note_on_c, 8, 48, 79
10, 115914, Note_on_c, 8, 48, 0
10, 115920, Note_on_c, 8, 48, 80
10, 115944, Note_on_c, 8, 48, 0
10, 115950, Note_on_c, 8, 48, 81
10, 115974, Note_on_c, 8, 48, 0
10, 115980, Note_on_c, 8, 48, 82
10, 116004, Note_on_c, 8, 48, 0
10, 116010, Note_on_c, 8, 48, 83
10, 116034, Note_on_c, 8, 48, 0
10, 116040, Note_on_c, 8, 48, 84
10, 116064, Note_on_c, 8, 48, 0
10, 116070, Note_on_c, 8, 48, 85
10, 116094, Note_on_c, 8, 48, 0
10, 116100, Note_on_c, 8, 48, 86
10, 116124, Note_on_c, 8, 48, 0
10, 116130, Note_on_c, 8, 48, 87
10, 116154, Note_on_c, 8, 48, 0
10, 116160, Note_on_c, 8, 48, 88
10, 116184, Note_on_c, 8, 48, 0
10, 116190, Note_on_c, 8, 48, 89
10, 116214, Note_on_c, 8, 48, 0
10, 116220, Note_on_c, 8, 48, 90
10, 116244, Note_on_c, 8, 48, 0
10, 116250, Note_on_c, 8, 48, 92
10, 116274, Note_on_c, 8, 48, 0
10, 116280, Note_on_c, 8, 48, 93
10, 116300, Note_on_c, 8, 48, 0
10, 116300, Note_on_c, 8, 48, 93
10, 116320, Note_on_c, 8, 48, 0
10, 116320, Note_on_c, 8, 48, 94
10, 116340, Note_on_c, 8, 48, 0
10, 116340, Note_on_c, 8, 48, 95
10, 116360, Note_on_c, 8, 48, 0
10, 116360, Note_on_c, 8, 48, 95
10, 116380, Note_on_c, 8, 48, 0
10, 116380, Note_on_c, 8, 48, 96
10, 116400, Note_on_c, 8, 48, 0
10, 116400, Note_on_c, 8, 48, 97
10, 116420, Note_on_c, 8, 48, 0
10, 116420, Note_on_c, 8, 48, 98
10, 116440, Note_on_c, 8, 48, 0
10, 116440, Note_on_c, 8, 48, 98
10, 116460, Note_on_c, 8, 48, 0
10, 116460, Note_on_c, 8, 48, 99
10, 116480, Note_on_c, 8, 48, 0
10, 116480, Note_on_c, 8, 48, 100
10, 116500, Note_on_c, 8, 48, 0
10, 116500, Note_on_c, 8, 48, 100
10, 116520, Note_on_c, 8, 48, 0
10, 116520, Note_on_c, 8, 48, 101
10, 116540, Note_on_c, 8, 48, 0
10, 116540, Note_on_c, 8, 48, 102
10, 116560, Note_on_c, 8, 48, 0
10, 116560, Note_on_c, 8, 48, 103
10, 116580, Note_on_c, 8, 48, 0
10, 116580, Note_on_c, 8, 48, 103
10, 116600, Note_on_c, 8, 48, 0
10, 116600, Note_on_c, 8, 48, 104
10, 116616, Note_on_c, 8, 48, 0
10, 116620, Note_on_c, 8, 48, 105
10, 116636, Note_on_c, 8, 48, 0
10, 116640, Note_on_c, 8, 48, 106
10, 116656, Note_on_c, 8, 48, 0
10, 116660, Note_on_c, 8, 48, 106
10, 116676, Note_on_c, 8, 48, 0
10, 116680, Note_on_c, 8, 48, 107
10, 116696, Note_on_c, 8, 48, 0
10, 116700, Note_on_c, 8, 48, 108
10, 116716, Note_on_c, 8, 48, 0
10, 116720, Note_on_c, 8, 48, 108
10, 116736, Note_on_c, 8, 48, 0
10, 116740, Note_on_c, 8, 48, 109
10, 116756, Note_on_c, 8, 48, 0
10, 116760, Note_on_c, 8, 48, 110
10, 116780, Note_on_c, 8, 48, 0
10, 116780, Note_on_c, 8, 48, 111
10, 116800, Note_on_c, 8, 48, 0
10, 116800, Note_on_c, 8, 48, 111
10, 116820, Note_on_c, 8, 48, 0
10, 116820, Note_on_c, 8, 48, 112
10, 116840, Note_on_c, 8, 48, 0
10, 116840, Note_on_c, 8, 48, 113
10, 116860, Note_on_c, 8, 48, 0
10, 116860, Note_on_c, 8, 48, 113
10, 116880, Note_on_c, 8, 48, 0
10, 116880, Note_on_c, 8, 48, 114
10, 116900, Note_on_c, 8, 48, 0
10, 116900, Note_on_c, 8, 48, 115
10, 116920, Note_on_c, 8, 48, 0
10, 116920, Note_on_c, 8, 48, 116
10, 116940, Note_on_c, 8, 48, 0
10, 116940, Note_on_c, 8, 48, 116
10, 116960, Note_on_c, 8, 48, 0
10, 116960, Note_on_c, 8, 48, 117
10, 116980, Note_on_c, 8, 48, 0
10, 116980, Note_on_c, 8, 48, 118
10, 117000, Note_on_c, 8, 48, 0
10, 117000, Note_on_c, 8, 48, 118
10, 117020, Note_on_c, 8, 48, 0
10, 117020, Note_on_c, 8, 48, 119
10, 117040, Note_on_c, 8, 48, 0
10, 117040, Note_on_c, 8, 48, 120
10, 117060, Note_on_c, 8, 48, 0
10, 117060, Note_on_c, 8, 48, 121
10, 117080, Note_on_c, 8, 48, 0
10, 117080, Note_on_c, 8, 48, 121
10, 117096, Note_on_c, 8, 48, 0
10, 117100, Note_on_c, 8, 48, 122
10, 117116, Note_on_c, 8, 48, 0
10, 117120, Note_on_c, 8, 48, 123
10, 117136, Note_on_c, 8, 48, 0
10, 117140, Note_on_c, 8, 48, 123
10, 117156, Note_on_c, 8, 48, 0
10, 117160, Note_on_c, 8, 48, 124
10, 117176, Note_on_c, 8, 48, 0
10, 117180, Note_on_c, 8, 48, 125
10, 117196, Note_on_c, 8, 48, 0
10, 117200, Note_on_c, 8, 48, 126
10, 117216, Note_on_c, 8, 48, 0
10, 117220, Note_on_c, 8, 48, 126
10, 117236, Note_on_c, 8, 48, 0
10, 117240, Note_on_c, 8, 41, 127
10, 117336, Note_on_c, 8, 41, 0
10, 117720, Note_on_c, 8, 41, 127
10, 117816, Note_on_c, 8, 41, 0
10, 118200, Note_on_c, 8, 41, 127
10, 118296, Note_on_c, 8, 41, 0
10, 118440, Note_on_c, 8, 41, 127
10, 118536, Note_on_c, 8, 41, 0
10, 118680, Note_on_c, 8, 41, 127
10, 118776, Note_on_c, 8, 41, 0
10, 118920, Note_on_c, 8, 41, 127
10, 119016, Note_on_c, 8, 41, 0
10, 119160, Note_on_c, 8, 41, 127
10, 119256, Note_on_c, 8, 41, 0
10, 119400, Note_on_c, 8, 41, 127
10, 119496, Note_on_c, 8, 41, 0
10, 119520, Note_on_c, 8, 41, 127
10, 119616, Note_on_c, 8, 41, 0
10, 119640, Note_on_c, 8, 41, 127
10, 119736, Note_on_c, 8, 41, 0
10, 119880, Note_on_c, 8, 48, 127
10, 119976, Note_on_c, 8, 48, 0
10, 120120, Note_on_c, 8, 41, 127
10, 120136, Note_on_c, 8, 41, 0
10, 120140, Note_on_c, 8, 41, 127
10, 120156, Note_on_c, 8, 41, 0
10, 120160, Note_on_c, 8, 41, 127
10, 120176, Note_on_c, 8, 41, 0
10, 120180, Note_on_c, 8, 41, 127
10, 120196, Note_on_c, 8, 41, 0
10, 120200, Note_on_c, 8, 41, 127
10, 120216, Note_on_c, 8, 41, 0
10, 120220, Note_on_c, 8, 41, 127
10, 120236, Note_on_c, 8, 41, 0
10, 120240, Note_on_c, 8, 41, 127
10, 120256, Note_on_c, 8, 41, 0
10, 120260, Note_on_c, 8, 41, 127
10, 120276, Note_on_c, 8, 41, 0
10, 120280, Note_on_c, 8, 41, 127
10, 120296, Note_on_c, 8, 41, 0
10, 120300, Note_on_c, 8, 41, 127
10, 120316, Note_on_c, 8, 41, 0
10, 120320, Note_on_c, 8, 41, 127
10, 120336, Note_on_c, 8, 41, 0
10, 120340, Note_on_c, 8, 41, 127
10, 120356, Note_on_c, 8, 41, 0
10, 120360, Note_on_c, 8, 41, 127
10, 120408, Note_on_c, 8, 41, 0
10, 120600, Note_on_c, 8, 41, 127
10, 120616, Note_on_c, 8, 41, 0
10, 120620, Note_on_c, 8, 41, 127
10, 120636, Note_on_c, 8, 41, 0
10, 120640, Note_on_c, 8, 41, 127
10, 120656, Note_on_c, 8, 41, 0
10, 120660, Note_on_c, 8, 41, 127
10, 120676, Note_on_c, 8, 41, 0
10, 120680, Note_on_c, 8, 41, 127
10, 120696, Note_on_c, 8, 41, 0
10, 120700, Note_on_c, 8, 41, 127
10, 120716, Note_on_c, 8, 41, 0
10, 120720, Note_on_c, 8, 41, 127
10, 120736, Note_on_c, 8, 41, 0
10, 120740, Note_on_c, 8, 41, 127
10, 120756, Note_on_c, 8, 41, 0
10, 120760, Note_on_c, 8, 41, 127
10, 120776, Note_on_c, 8, 41, 0
10, 120780, Note_on_c, 8, 41, 127
10, 120796, Note_on_c, 8, 41, 0
10, 120800, Note_on_c, 8, 41, 127
10, 120816, Note_on_c, 8, 41, 0
10, 120820, Note_on_c, 8, 41, 127
10, 120836, Note_on_c, 8, 41, 0
10, 120840, Note_on_c, 8, 41, 127
10, 120888, Note_on_c, 8, 41, 0
10, 121080, Note_on_c, 8, 41, 127
10, 121104, Note_on_c, 8, 41, 0
10, 121110, Note_on_c, 8, 41, 127
10, 121134, Note_on_c, 8, 41, 0
10, 121140, Note_on_c, 8, 41, 127
10, 121164, Note_on_c, 8, 41, 0
10, 121170, Note_on_c, 8, 41, 127
10, 121194, Note_on_c, 8, 41, 0
10, 121320, Note_on_c, 8, 41, 127
10, 121344, Note_on_c, 8, 41, 0
10, 121350, Note_on_c, 8, 41, 127
10, 121374, Note_on_c, 8, 41, 0
10, 121380, Note_on_c, 8, 41, 127
10, 121404, Note_on_c, 8, 41, 0
10, 121410, Note_on_c, 8, 41, 127
10, 121434, Note_on_c, 8, 41, 0
10, 121560, Note_on_c, 8, 41, 127
10, 121584, Note_on_c, 8, 41, 0
10, 121590, Note_on_c, 8, 41, 127
10, 121614, Note_on_c, 8, 41, 0
10, 121620, Note_on_c, 8, 41, 127
10, 121644, Note_on_c, 8, 41, 0
10, 121650, Note_on_c, 8, 41, 127
10, 121674, Note_on_c, 8, 41, 0
10, 121800, Note_on_c, 8, 41, 127
10, 121824, Note_on_c, 8, 41, 0
10, 121830, Note_on_c, 8, 41, 127
10, 121854, Note_on_c, 8, 41, 0
10, 121860, Note_on_c, 8, 41, 127
10, 121884, Note_on_c, 8, 41, 0
10, 121890, Note_on_c, 8, 41, 127
10, 121914, Note_on_c, 8, 41, 0
10, 122040, Note_on_c, 8, 41, 127
10, 122136, Note_on_c, 8, 41, 0
10, 122280, Note_on_c, 8, 41, 127
10, 122376, Note_on_c, 8, 41, 0
10, 122520, Note_on_c, 8, 41, 127
10, 122616, Note_on_c, 8, 41, 0
10, 122760, Note_on_c, 8, 48, 127
10, 122856, Note_on_c, 8, 48, 0
10, 123000, Note_on_c, 8, 41, 127
10, 123096, Note_on_c, 8, 41, 0
10, 126840, Note_on_c, 8, 41, 127
10, 126936, Note_on_c, 8, 41, 0
10, 126960, Note_on_c, 8, 41, 127
10, 127056, Note_on_c, 8, 41, 0
10, 127080, Note_on_c, 8, 41, 127
10, 127128, Note_on_c, 8, 41, 0
10, 127560, Note_on_c, 8, 48, 127
10, 127656, Note_on_c, 8, 48, 0
10, 127680, Note_on_c, 8, 48, 127
10, 127776, Note_on_c, 8, 48, 0
10, 127800, Note_on_c, 8, 41, 127
10, 127896, Note_on_c, 8, 41, 0
10, 128040, Note_on_c, 8, 48, 127
10, 128136, Note_on_c, 8, 48, 0
10, 128280, Note_on_c, 8, 48, 127
10, 128376, Note_on_c, 8, 48, 0
10, 128520, Note_on_c, 8, 48, 127
10, 128616, Note_on_c, 8, 48, 0
10, 128760, Note_on_c, 8, 48, 127
10, 128784, Note_on_c, 8, 48, 0
10, 128790, Note_on_c, 8, 48, 127
10, 128814, Note_on_c, 8, 48, 0
10, 128820, Note_on_c, 8, 48, 127
10, 128844, Note_on_c, 8, 48, 0
10, 128850, Note_on_c, 8, 48, 127
10, 128874, Note_on_c, 8, 48, 0
10, 128880, Note_on_c, 8, 48, 127
10, 128904, Note_on_c, 8, 48, 0
10, 128910, Note_on_c, 8, 48, 127
10, 128934, Note_on_c, 8, 48, 0
10, 128940, Note_on_c, 8, 48, 127
10, 128964, Note_on_c, 8, 48, 0
10, 128970, Note_on_c, 8, 48, 127
10, 128994, Note_on_c, 8, 48, 0
10, 129000, Note_on_c, 8, 48, 127
10, 129024, Note_on_c, 8, 48, 0
10, 129030, Note_on_c, 8, 48, 127
10, 129054, Note_on_c, 8, 48, 0
10, 129060, Note_on_c, 8, 48, 127
10, 129084, Note_on_c, 8, 48, 0
10, 129090, Note_on_c, 8, 48, 127
10, 129114, Note_on_c, 8, 48, 0
10, 129120, Note_on_c, 8, 48, 127
10, 129144, Note_on_c, 8, 48, 0
10, 129150, Note_on_c, 8, 48, 127
10, 129174, Note_on_c, 8, 48, 0
10, 129180, Note_on_c, 8, 48, 127
10, 129204, Note_on_c, 8, 48, 0
10, 129210, Note_on_c, 8, 48, 127
10, 129234, Note_on_c, 8, 48, 0
10, 129240, Note_on_c, 8, 48, 127
10, 129264, Note_on_c, 8, 48, 0
10, 129270, Note_on_c, 8, 48, 127
10, 129294, Note_on_c, 8, 48, 0
10, 129300, Note_on_c, 8, 48, 127
10, 129324, Note_on_c, 8, 48, 0
10, 129330, Note_on_c, 8, 48, 127
10, 129354, Note_on_c, 8, 48, 0
10, 129360, Note_on_c, 8, 48, 127
10, 129384, Note_on_c, 8, 48, 0
10, 129390, Note_on_c, 8, 48, 127
10, 129414, Note_on_c, 8, 48, 0
10, 129420, Note_on_c, 8, 48, 127
10, 129444, Note_on_c, 8, 48, 0
10, 129450, Note_on_c, 8, 48, 127
10, 129474, Note_on_c, 8, 48, 0
10, 129480, Note_on_c, 8, 48, 127
10, 129504, Note_on_c, 8, 48, 0
10, 129510, Note_on_c, 8, 48, 127
10, 129534, Note_on_c, 8, 48, 0
10, 129540, Note_on_c, 8, 48, 127
10, 129564, Note_on_c, 8, 48, 0
10, 129570, Note_on_c, 8, 48, 127
10, 129594, Note_on_c, 8, 48, 0
10, 129600, Note_on_c, 8, 48, 127
10, 129624, Note_on_c, 8, 48, 0
10, 129630, Note_on_c, 8, 48, 127
10, 129654, Note_on_c, 8, 48, 0
10, 129660, Note_on_c, 8, 48, 127
10, 129684, Note_on_c, 8, 48, 0
10, 129690, Note_on_c, 8, 48, 127
10, 129714, Note_on_c, 8, 48, 0
10, 129720, Note_on_c, 8, 48, 127
10, 129816, Note_on_c, 8, 48, 0
10, 129960, Note_on_c, 8, 48, 127
10, 130056, Note_on_c, 8, 48, 0
10, 130200, Note_on_c, 8, 48, 127
10, 130296, Note_on_c, 8, 48, 0
10, 130440, Note_on_c, 8, 48, 127
10, 130536, Note_on_c, 8, 48, 0
10, 130680, Note_on_c, 8, 41, 127
10, 130776, Note_on_c, 8, 41, 0
10, 130860, Note_on_c, 8, 48, 127
10, 130917, Note_on_c, 8, 48, 0
10, 130920, Note_on_c, 8, 48, 127
10, 131016, Note_on_c, 8, 48, 0
10, 131100, Note_on_c, 8, 48, 127
10, 131148, Note_on_c, 8, 48, 0
10, 131160, Note_on_c, 8, 48, 127
10, 131256, Note_on_c, 8, 48, 0
10, 131340, Note_on_c, 8, 48, 127
10, 131388, Note_on_c, 8, 48, 0
10, 131400, Note_on_c, 8, 48, 127
10, 131496, Note_on_c, 8, 48, 0
10, 131580, Note_on_c, 8, 48, 127
10, 131628, Note_on_c, 8, 48, 0
10, 131640, Note_on_c, 8, 48, 127
10, 131664, Note_on_c, 8, 48, 0
10, 131670, Note_on_c, 8, 48, 127
10, 131694, Note_on_c, 8, 48, 0
10, 131700, Note_on_c, 8, 48, 127
10, 131724, Note_on_c, 8, 48, 0
10, 131730, Note_on_c, 8, 48, 127
10, 131754, Note_on_c, 8, 48, 0
10, 131760, Note_on_c, 8, 48, 127
10, 131784, Note_on_c, 8, 48, 0
10, 131790, Note_on_c, 8, 48, 127
10, 131814, Note_on_c, 8, 48, 0
10, 131820, Note_on_c, 8, 48, 127
10, 131844, Note_on_c, 8, 48, 0
10, 131850, Note_on_c, 8, 48, 127
10, 131874, Note_on_c, 8, 48, 0
10, 131880, Note_on_c, 8, 48, 127
10, 131904, Note_on_c, 8, 48, 0
10, 131910, Note_on_c, 8, 48, 127
10, 131934, Note_on_c, 8, 48, 0
10, 131940, Note_on_c, 8, 48, 127
10, 131964, Note_on_c, 8, 48, 0
10, 131970, Note_on_c, 8, 48, 127
10, 131994, Note_on_c, 8, 48, 0
10, 132000, Note_on_c, 8, 48, 127
10, 132024, Note_on_c, 8, 48, 0
10, 132030, Note_on_c, 8, 48, 127
10, 132054, Note_on_c, 8, 48, 0
10, 132060, Note_on_c, 8, 48, 127
10, 132084, Note_on_c, 8, 48, 0
10, 132090, Note_on_c, 8, 48, 127
10, 132114, Note_on_c, 8, 48, 0
10, 132120, Note_on_c, 8, 48, 127
10, 132144, Note_on_c, 8, 48, 0
10, 132150, Note_on_c, 8, 48, 127
10, 132174, Note_on_c, 8, 48, 0
10, 132180, Note_on_c, 8, 48, 127
10, 132204, Note_on_c, 8, 48, 0
10, 132210, Note_on_c, 8, 48, 127
10, 132234, Note_on_c, 8, 48, 0
10, 132240, Note_on_c, 8, 48, 127
10, 132264, Note_on_c, 8, 48, 0
10, 132270, Note_on_c, 8, 48, 127
10, 132294, Note_on_c, 8, 48, 0
10, 132300, Note_on_c, 8, 48, 127
10, 132324, Note_on_c, 8, 48, 0
10, 132330, Note_on_c, 8, 48, 127
10, 132354, Note_on_c, 8, 48, 0
10, 132360, Note_on_c, 8, 48, 127
10, 132384, Note_on_c, 8, 48, 0
10, 132390, Note_on_c, 8, 48, 127
10, 132414, Note_on_c, 8, 48, 0
10, 132420, Note_on_c, 8, 48, 127
10, 132444, Note_on_c, 8, 48, 0
10, 132450, Note_on_c, 8, 48, 127
10, 132474, Note_on_c, 8, 48, 0
10, 132480, Note_on_c, 8, 48, 127
10, 132504, Note_on_c, 8, 48, 0
10, 132510, Note_on_c, 8, 48, 127
10, 132534, Note_on_c, 8, 48, 0
10, 132540, Note_on_c, 8, 48, 127
10, 132564, Note_on_c, 8, 48, 0
10, 132570, Note_on_c, 8, 48, 127
10, 132594, Note_on_c, 8, 48, 0
10, 132600, Note_on_c, 8, 48, 127
10, 132696, Note_on_c, 8, 48, 0
10, 132840, Note_on_c, 8, 48, 127
10, 132936, Note_on_c, 8, 48, 0
10, 133080, Note_on_c, 8, 48, 127
10, 133176, Note_on_c, 8, 48, 0
10, 133320, Note_on_c, 8, 48, 127
10, 133416, Note_on_c, 8, 48, 0
10, 133560, Note_on_c, 8, 41, 127
10, 133584, Note_on_c, 8, 41, 0
10, 133590, Note_on_c, 8, 41, 127
10, 133614, Note_on_c, 8, 41, 0
10, 133620, Note_on_c, 8, 41, 127
10, 133644, Note_on_c, 8, 41, 0
10, 133650, Note_on_c, 8, 41, 127
10, 133674, Note_on_c, 8, 41, 0
10, 133680, Note_on_c, 8, 41, 127
10, 133704, Note_on_c, 8, 41, 0
10, 133710, Note_on_c, 8, 41, 127
10, 133734, Note_on_c, 8, 41, 0
10, 133740, Note_on_c, 8, 41, 127
10, 133764, Note_on_c, 8, 41, 0
10, 133770, Note_on_c, 8, 41, 127
10, 133794, Note_on_c, 8, 41, 0
10, 133800, Note_on_c, 8, 41, 127
10, 133896, Note_on_c, 8, 41, 0
10, 134520, Note_on_c, 8, 41, 127
10, 134544, Note_on_c, 8, 41, 0
10, 134550, Note_on_c, 8, 41, 127
10, 134574, Note_on_c, 8, 41, 0
10, 134580, Note_on_c, 8, 41, 127
10, 134604, Note_on_c, 8, 41, 0
10, 134610, Note_on_c, 8, 41, 127
10, 134634, Note_on_c, 8, 41, 0
10, 134640, Note_on_c, 8, 41, 127
10, 134664, Note_on_c, 8, 41, 0
10, 134670, Note_on_c, 8, 41, 127
10, 134694, Note_on_c, 8, 41, 0
10, 134700, Note_on_c, 8, 41, 127
10, 134724, Note_on_c, 8, 41, 0
10, 134730, Note_on_c, 8, 41, 127
10, 134754, Note_on_c, 8, 41, 0
10, 134760, Note_on_c, 8, 41, 127
10, 134856, Note_on_c, 8, 41, 0
10, 135480, Note_on_c, 8, 41, 127
10, 135576, Note_on_c, 8, 41, 0
10, 135720, Note_on_c, 8, 41, 127
10, 135816, Note_on_c, 8, 41, 0
10, 135960, Note_on_c, 8, 48, 127
10, 136056, Note_on_c, 8, 48, 0
10, 136320, Note_on_c, 8, 48, 127
10, 136416, Note_on_c, 8, 48, 0
10, 136440, Note_on_c, 8, 41, 127
10, 136536, Note_on_c, 8, 41, 0
10, 136680, Note_on_c, 8, 41, 127
10, 136776, Note_on_c, 8, 41, 0
10, 136920, Note_on_c, 8, 48, 127
10, 137016, Note_on_c, 8, 48, 0
10, 137280, Note_on_c, 8, 48, 127
10, 137376, Note_on_c, 8, 48, 0
10, 137400, Note_on_c, 8, 41, 127
10, 137496, Note_on_c, 8, 41, 0
10, 137640, Note_on_c, 8, 41, 127
10, 137736, Note_on_c, 8, 41, 0
10, 137880, Note_on_c, 8, 48, 127
10, 137976, Note_on_c, 8, 48, 0
10, 138240, Note_on_c, 8, 48, 127
10, 138336, Note_on_c, 8, 48, 0
10, 138360, Note_on_c, 8, 48, 127
10, 138456, Note_on_c, 8, 48, 0
10, 138720, Note_on_c, 8, 48, 127
10, 138816, Note_on_c, 8, 48, 0
10, 138840, Note_on_c, 8, 48, 127
10, 138936, Note_on_c, 8, 48, 0
10, 139200, Note_on_c, 8, 48, 127
10, 139296, Note_on_c, 8, 48, 0
10, 139320, Note_on_c, 8, 41, 127
10, 139344, Note_on_c, 8, 41, 0
10, 139350, Note_on_c, 8, 41, 127
10, 139374, Note_on_c, 8, 41, 0
10, 139380, Note_on_c, 8, 41, 127
10, 139404, Note_on_c, 8, 41, 0
10, 139410, Note_on_c, 8, 41, 127
10, 139434, Note_on_c, 8, 41, 0
10, 139440, Note_on_c, 8, 41, 127
10, 139464, Note_on_c, 8, 41, 0
10, 139470, Note_on_c, 8, 41, 127
10, 139494, Note_on_c, 8, 41, 0
10, 139500, Note_on_c, 8, 41, 127
10, 139524, Note_on_c, 8, 41, 0
10, 139530, Note_on_c, 8, 41, 127
10, 139554, Note_on_c, 8, 41, 0
10, 139560, Note_on_c, 8, 41, 127
10, 139584, Note_on_c, 8, 41, 0
10, 139590, Note_on_c, 8, 41, 127
10, 139614, Note_on_c, 8, 41, 0
10, 139620, Note_on_c, 8, 41, 127
10, 139644, Note_on_c, 8, 41, 0
10, 139650, Note_on_c, 8, 41, 127
10, 139674, Note_on_c, 8, 41, 0
10, 139680, Note_on_c, 8, 41, 127
10, 139704, Note_on_c, 8, 41, 0
10, 139710, Note_on_c, 8, 41, 127
10, 139734, Note_on_c, 8, 41, 0
10, 139740, Note_on_c, 8, 41, 127
10, 139764, Note_on_c, 8, 41, 0
10, 139770, Note_on_c, 8, 41, 127
10, 139794, Note_on_c, 8, 41, 0
10, 139800, Note_on_c, 8, 41, 127
10, 139824, Note_on_c, 8, 41, 0
10, 139830, Note_on_c, 8, 41, 127
10, 139854, Note_on_c, 8, 41, 0
10, 139860, Note_on_c, 8, 41, 127
10, 139884, Note_on_c, 8, 41, 0
10, 139890, Note_on_c, 8, 41, 127
10, 139914, Note_on_c, 8, 41, 0
10, 139920, Note_on_c, 8, 41, 127
10, 139944, Note_on_c, 8, 41, 0
10, 139950, Note_on_c, 8, 41, 127
10, 139974, Note_on_c, 8, 41, 0
10, 139980, Note_on_c, 8, 41, 127
10, 140004, Note_on_c, 8, 41, 0
10, 140010, Note_on_c, 8, 41, 127
10, 140034, Note_on_c, 8, 41, 0
10, 140040, Note_on_c, 8, 41, 127
10, 140064, Note_on_c, 8, 41, 0
10, 140070, Note_on_c, 8, 41, 127
10, 140094, Note_on_c, 8, 41, 0
10, 140100, Note_on_c, 8, 41, 127
10, 140124, Note_on_c, 8, 41, 0
10, 140130, Note_on_c, 8, 41, 127
10, 140154, Note_on_c, 8, 41, 0
10, 140160, Note_on_c, 8, 41, 127
10, 140184, Note_on_c, 8, 41, 0
10, 140190, Note_on_c, 8, 41, 127
10, 140214, Note_on_c, 8, 41, 0
10, 140220, Note_on_c, 8, 41, 127
10, 140244, Note_on_c, 8, 41, 0
10, 140250, Note_on_c, 8, 41, 127
10, 140274, Note_on_c, 8, 41, 0
10, 140280, Note_on_c, 8, 41, 127
10, 140376, Note_on_c, 8, 41, 0
10, 140760, Note_on_c, 8, 41, 127
10, 140856, Note_on_c, 8, 41, 0
10, 141240, Note_on_c, 8, 41, 127
10, 141336, Note_on_c, 8, 41, 0
10, 141720, Note_on_c, 8, 41, 127
10, 141816, Note_on_c, 8, 41, 0
10, 141960, Note_on_c, 8, 41, 127
10, 142056, Note_on_c, 8, 41, 0
10, 142200, Note_on_c, 8, 41, 127
10, 142296, Note_on_c, 8, 41, 0
10, 142296, End_track
11, 0, Start_track
11, 0, Title_t, "Violino I"
11, 0, Program_c, 10, 48
11, 0, Control_c, 10, 7, 127
11, 0, Control_c, 10, 10, 25
11, 1440, Note_on_c, 10, 65, 127
11, 2016, Note_on_c, 10, 65, 0
11, 2160, Note_on_c, 10, 56, 100
11, 2352, Note_on_c, 10, 56, 0
11, 2400, Note_on_c, 10, 56, 100
11, 2592, Note_on_c, 10, 56, 0
11, 2820, Note_on_c, 10, 56, 100
11, 2868, Note_on_c, 10, 56, 0
11, 2880, Note_on_c, 10, 58, 100
11, 3072, Note_on_c, 10, 58, 0
11, 3120, Note_on_c, 10, 60, 100
11, 3312, Note_on_c, 10, 60, 0
11, 3540, Note_on_c, 10, 60, 100
11, 3588, Note_on_c, 10, 60, 0
11, 3600, Note_on_c, 10, 62, 100
11, 3792, Note_on_c, 10, 62, 0
11, 3840, Note_on_c, 10, 63, 100
11, 4032, Note_on_c, 10, 63, 0
11, 4260, Note_on_c, 10, 59, 50
11, 4308, Note_on_c, 10, 59, 0
11, 4320, Note_on_c, 10, 60, 50
11, 4416, Note_on_c, 10, 60, 0
11, 6120, Note_on_c, 10, 60, 50
11, 6240, Note_on_c, 10, 60, 0
11, 6240, Note_on_c, 10, 59, 50
11, 6360, Note_on_c, 10, 59, 0
11, 6360, Note_on_c, 10, 68, 50
11, 6480, Note_on_c, 10, 68, 0
11, 6480, Note_on_c, 10, 67, 50
11, 6600, Note_on_c, 10, 67, 0
11, 6600, Note_on_c, 10, 65, 50
11, 7080, Note_on_c, 10, 65, 0
11, 7080, Note_on_c, 10, 64, 63
11, 7200, Note_on_c, 10, 64, 0
11, 7200, Note_on_c, 10, 65, 70
11, 7776, Note_on_c, 10, 65, 0
11, 7920, Note_on_c, 10, 56, 127
11, 8112, Note_on_c, 10, 56, 0
11, 8160, Note_on_c, 10, 56, 127
11, 8352, Note_on_c, 10, 56, 0
11, 8580, Note_on_c, 10, 56, 127
11, 8628, Note_on_c, 10, 56, 0
11, 8640, Note_on_c, 10, 58, 127
11, 8832, Note_on_c, 10, 58, 0
11, 8880, Note_on_c, 10, 60, 127
11, 9072, Note_on_c, 10, 60, 0
11, 11280, Note_on_c, 10, 60, 50
11, 11472, Note_on_c, 10, 60, 0
11, 11520, Note_on_c, 10, 61, 50
11, 11616, Note_on_c, 10, 61, 0
11, 11639, Control_c, 10, 7, 56
11, 11640, Note_on_c, 10, 80, 50
11, 11760, Note_on_c, 10, 80, 0
11, 11760, Note_on_c, 10, 82, 50
11, 11820, Note_on_c, 10, 82, 0
11, 11820, Note_on_c, 10, 80, 50
11, 11880, Note_on_c, 10, 80, 0
11, 11880, Note_on_c, 10, 78, 50
11, 11940, Note_on_c, 10, 78, 0
11, 11940, Note_on_c, 10, 77, 50
11, 11988, Note_on_c, 10, 77, 0
11, 12000, Note_on_c, 10, 77, 50
11, 12096, Note_on_c, 10, 77, 0
11, 12360, Note_on_c, 10, 80, 50
11, 12456, Note_on_c, 10, 80, 0
11, 12480, Note_on_c, 10, 82, 50
11, 12528, Note_on_c, 10, 82, 0
11, 12540, Note_on_c, 10, 80, 50
11, 12588, Note_on_c, 10, 80, 0
11, 12600, Note_on_c, 10, 78, 50
11, 12648, Note_on_c, 10, 78, 0
11, 12660, Note_on_c, 10, 77, 50
11, 12708, Note_on_c, 10, 77, 0
11, 12720, Note_on_c, 10, 77, 50
11, 12816, Note_on_c, 10, 77, 0
11, 13080, Note_on_c, 10, 75, 50
11, 13176, Note_on_c, 10, 75, 0
11, 13200, Note_on_c, 10, 77, 50
11, 13248, Note_on_c, 10, 77, 0
11, 13260, Note_on_c, 10, 75, 50
11, 13308, Note_on_c, 10, 75, 0
11, 13320, Note_on_c, 10, 73, 50
11, 13368, Note_on_c, 10, 73, 0
11, 13380, Note_on_c, 10, 72, 50
11, 13428, Note_on_c, 10, 72, 0
11, 13440, Note_on_c, 10, 72, 50
11, 13536, Note_on_c, 10, 72, 0
11, 13800, Note_on_c, 10, 75, 50
11, 13896, Note_on_c, 10, 75, 0
11, 13920, Note_on_c, 10, 77, 50
11, 13968, Note_on_c, 10, 77, 0
11, 13980, Note_on_c, 10, 75, 50
11, 14028, Note_on_c, 10, 75, 0
11, 14040, Note_on_c, 10, 73, 50
11, 14088, Note_on_c, 10, 73, 0
11, 14100, Note_on_c, 10, 72, 50
11, 14148, Note_on_c, 10, 72, 0
11, 14160, Note_on_c, 10, 72, 50
11, 14256, Note_on_c, 10, 72, 0
11, 14520, Note_on_c, 10, 73, 50
11, 14616, Note_on_c, 10, 73, 0
11, 14640, Note_on_c, 10, 75, 50
11, 14688, Note_on_c, 10, 75, 0
11, 14700, Note_on_c, 10, 73, 50
11, 14748, Note_on_c, 10, 73, 0
11, 14760, Note_on_c, 10, 72, 50
11, 14808, Note_on_c, 10, 72, 0
11, 14820, Note_on_c, 10, 70, 50
11, 14868, Note_on_c, 10, 70, 0
11, 14880, Note_on_c, 10, 70, 50
11, 14976, Note_on_c, 10, 70, 0
11, 15240, Note_on_c, 10, 70, 50
11, 15336, Note_on_c, 10, 70, 0
11, 15360, Note_on_c, 10, 72, 50
11, 15408, Note_on_c, 10, 72, 0
11, 15420, Note_on_c, 10, 70, 50
11, 15468, Note_on_c, 10, 70, 0
11, 15480, Note_on_c, 10, 68, 50
11, 15528, Note_on_c, 10, 68, 0
11, 15540, Note_on_c, 10, 67, 50
11, 15588, Note_on_c, 10, 67, 0
11, 15600, Note_on_c, 10, 67, 50
11, 15696, Note_on_c, 10, 67, 0
11, 15960, Note_on_c, 10, 67, 50
11, 16056, Note_on_c, 10, 67, 0
11, 16080, Note_on_c, 10, 68, 50
11, 16128, Note_on_c, 10, 68, 0
11, 16140, Note_on_c, 10, 67, 50
11, 16188, Note_on_c, 10, 67, 0
11, 16200, Note_on_c, 10, 65, 50
11, 16248, Note_on_c, 10, 65, 0
11, 16260, Note_on_c, 10, 64, 50
11, 16308, Note_on_c, 10, 64, 0
11, 16320, Note_on_c, 10, 64, 50
11, 16416, Note_on_c, 10, 64, 0
11, 18120, Note_on_c, 10, 70, 50
11, 18216, Note_on_c, 10, 70, 0
11, 18240, Note_on_c, 10, 72, 50
11, 18336, Note_on_c, 10, 72, 0
11, 18360, Note_on_c, 10, 70, 50
11, 18456, Note_on_c, 10, 70, 0
11, 18480, Note_on_c, 10, 68, 50
11, 18576, Note_on_c, 10, 68, 0
11, 18600, Note_on_c, 10, 67, 50
11, 18696, Note_on_c, 10, 67, 0
11, 18780, Control_c, 10, 7, 96
11, 18780, Note_on_c, 10, 70, 65
11, 18840, Note_on_c, 10, 70, 0
11, 18840, Note_on_c, 10, 72, 67
11, 18900, Note_on_c, 10, 72, 0
11, 18900, Note_on_c, 10, 70, 68
11, 18960, Note_on_c, 10, 70, 0
11, 18960, Note_on_c, 10, 68, 70
11, 19020, Note_on_c, 10, 68, 0
11, 19020, Note_on_c, 10, 67, 71
11, 19080, Note_on_c, 10, 67, 0
11, 19080, Note_on_c, 10, 72, 73
11, 19140, Note_on_c, 10, 72, 0
11, 19140, Note_on_c, 10, 70, 74
11, 19200, Note_on_c, 10, 70, 0
11, 19200, Note_on_c, 10, 68, 76
11, 19260, Note_on_c, 10, 68, 0
11, 19260, Note_on_c, 10, 67, 77
11, 19320, Note_on_c, 10, 67, 0
11, 19320, Note_on_c, 10, 72, 79
11, 19380, Note_on_c, 10, 72, 0
11, 19380, Note_on_c, 10, 70, 80
11, 19428, Note_on_c, 10, 70, 0
11, 19440, Note_on_c, 10, 68, 82
11, 19500, Note_on_c, 10, 68, 0
11, 19500, Note_on_c, 10, 67, 83
11, 19560, Note_on_c, 10, 67, 0
11, 19560, Note_on_c, 10, 72, 85
11, 19620, Note_on_c, 10, 72, 0
11, 19620, Note_on_c, 10, 70, 86
11, 19680, Note_on_c, 10, 70, 0
11, 19680, Note_on_c, 10, 68, 88
11, 19740, Note_on_c, 10, 68, 0
11, 19740, Note_on_c, 10, 67, 89
11, 19788, Note_on_c, 10, 67, 0
11, 19800, Note_on_c, 10, 72, 91
11, 19860, Note_on_c, 10, 72, 0
11, 19860, Note_on_c, 10, 70, 92
11, 19920, Note_on_c, 10, 70, 0
11, 19920, Note_on_c, 10, 68, 94
11, 19980, Note_on_c, 10, 68, 0
11, 19980, Note_on_c, 10, 67, 95
11, 20028, Note_on_c, 10, 67, 0
11, 20040, Note_on_c, 10, 72, 70
11, 20976, Note_on_c, 10, 72, 0
11, 21000, Note_on_c, 10, 72, 80
11, 21120, Note_on_c, 10, 72, 0
11, 21120, Note_on_c, 10, 77, 80
11, 21336, Note_on_c, 10, 77, 0
11, 21360, Note_on_c, 10, 76, 80
11, 21456, Note_on_c, 10, 76, 0
11, 21480, Note_on_c, 10, 72, 78
11, 22416, Note_on_c, 10, 72, 0
11, 22440, Note_on_c, 10, 72, 80
11, 22536, Note_on_c, 10, 72, 0
11, 22560, Note_on_c, 10, 76, 80
11, 22656, Note_on_c, 10, 76, 0
11, 22680, Note_on_c, 10, 79, 80
11, 22800, Note_on_c, 10, 79, 0
11, 22800, Note_on_c, 10, 77, 80
11, 22896, Note_on_c, 10, 77, 0
11, 22920, Note_on_c, 10, 77, 80
11, 23040, Note_on_c, 10, 77, 0
11, 23040, Note_on_c, 10, 75, 96
11, 23280, Note_on_c, 10, 75, 0
11, 23280, Note_on_c, 10, 73, 80
11, 23376, Note_on_c, 10, 73, 0
11, 23400, Note_on_c, 10, 72, 80
11, 23496, Note_on_c, 10, 72, 0
11, 24360, Note_on_c, 10, 77, 80
11, 24480, Note_on_c, 10, 77, 0
11, 24480, Note_on_c, 10, 75, 96
11, 24720, Note_on_c, 10, 75, 0
11, 24720, Note_on_c, 10, 73, 80
11, 24840, Note_on_c, 10, 73, 0
11, 24840, Note_on_c, 10, 72, 80
11, 24936, Note_on_c, 10, 72, 0
11, 25020, Note_on_c, 10, 77, 73
11, 25068, Note_on_c, 10, 77, 0
11, 25080, Note_on_c, 10, 77, 65
11, 25128, Note_on_c, 10, 77, 0
11, 25140, Note_on_c, 10, 76, 58
11, 25188, Note_on_c, 10, 76, 0
11, 25200, Note_on_c, 10, 76, 50
11, 25296, Note_on_c, 10, 76, 0
11, 25380, Note_on_c, 10, 79, 52
11, 25428, Note_on_c, 10, 79, 0
11, 25440, Note_on_c, 10, 79, 53
11, 25488, Note_on_c, 10, 79, 0
11, 25500, Note_on_c, 10, 77, 54
11, 25548, Note_on_c, 10, 77, 0
11, 25560, Note_on_c, 10, 77, 55
11, 25656, Note_on_c, 10, 77, 0
11, 25740, Note_on_c, 10, 80, 57
11, 25788, Note_on_c, 10, 80, 0
11, 25800, Note_on_c, 10, 80, 58
11, 25848, Note_on_c, 10, 80, 0
11, 25860, Note_on_c, 10, 79, 59
11, 25908, Note_on_c, 10, 79, 0
11, 25920, Note_on_c, 10, 79, 60
11, 26016, Note_on_c, 10, 79, 0
11, 26100, Note_on_c, 10, 82, 62
11, 26148, Note_on_c, 10, 82, 0
11, 26160, Note_on_c, 10, 82, 63
11, 26208, Note_on_c, 10, 82, 0
11, 26220, Note_on_c, 10, 80, 64
11, 26268, Note_on_c, 10, 80, 0
11, 26280, Note_on_c, 10, 80, 65
11, 26376, Note_on_c, 10, 80, 0
11, 26460, Note_on_c, 10, 84, 67
11, 26508, Note_on_c, 10, 84, 0
11, 26520, Note_on_c, 10, 84, 68
11, 26568, Note_on_c, 10, 84, 0
11, 26580, Note_on_c, 10, 82, 69
11, 26628, Note_on_c, 10, 82, 0
11, 26640, Note_on_c, 10, 82, 70
11, 26736, Note_on_c, 10, 82, 0
11, 26820, Note_on_c, 10, 82, 72
11, 26868, Note_on_c, 10, 82, 0
11, 26880, Note_on_c, 10, 84, 73
11, 26928, Note_on_c, 10, 84, 0
11, 26940, Note_on_c, 10, 85, 74
11, 26988, Note_on_c, 10, 85, 0
11, 27000, Note_on_c, 10, 85, 75
11, 27096, Note_on_c, 10, 85, 0
11, 27180, Note_on_c, 10, 79, 77
11, 27228, Note_on_c, 10, 79, 0
11, 27240, Note_on_c, 10, 80, 78
11, 27288, Note_on_c, 10, 80, 0
11, 27300, Note_on_c, 10, 82, 79
11, 27348, Note_on_c, 10, 82, 0
11, 27360, Note_on_c, 10, 82, 80
11, 27456, Note_on_c, 10, 82, 0
11, 27540, Note_on_c, 10, 76, 82
11, 27588, Note_on_c, 10, 76, 0
11, 27600, Note_on_c, 10, 77, 83
11, 27648, Note_on_c, 10, 77, 0
11, 27660, Note_on_c, 10, 79, 84
11, 27708, Note_on_c, 10, 79, 0
11, 27720, Note_on_c, 10, 79, 85
11, 27816, Note_on_c, 10, 79, 0
11, 27900, Note_on_c, 10, 79, 87
11, 27948, Note_on_c, 10, 79, 0
11, 27960, Note_on_c, 10, 80, 88
11, 28008, Note_on_c, 10, 80, 0
11, 28020, Note_on_c, 10, 82, 89
11, 28068, Note_on_c, 10, 82, 0
11, 28080, Note_on_c, 10, 82, 90
11, 28176, Note_on_c, 10, 82, 0
11, 28260, Note_on_c, 10, 82, 92
11, 28308, Note_on_c, 10, 82, 0
11, 28320, Note_on_c, 10, 84, 93
11, 28368, Note_on_c, 10, 84, 0
11, 28380, Note_on_c, 10, 85, 94
11, 28428, Note_on_c, 10, 85, 0
11, 28440, Note_on_c, 10, 85, 95
11, 28536, Note_on_c, 10, 85, 0
11, 28620, Note_on_c, 10, 79, 97
11, 28668, Note_on_c, 10, 79, 0
11, 28680, Note_on_c, 10, 80, 98
11, 28728, Note_on_c, 10, 80, 0
11, 28740, Note_on_c, 10, 82, 99
11, 28788, Note_on_c, 10, 82, 0
11, 28800, Note_on_c, 10, 82, 100
11, 28896, Note_on_c, 10, 82, 0
11, 28980, Note_on_c, 10, 76, 102
11, 29028, Note_on_c, 10, 76, 0
11, 29040, Note_on_c, 10, 77, 103
11, 29088, Note_on_c, 10, 77, 0
11, 29100, Note_on_c, 10, 79, 104
11, 29148, Note_on_c, 10, 79, 0
11, 29160, Note_on_c, 10, 79, 105
11, 29256, Note_on_c, 10, 79, 0
11, 29340, Note_on_c, 10, 79, 107
11, 29388, Note_on_c, 10, 79, 0
11, 29400, Note_on_c, 10, 80, 108
11, 29448, Note_on_c, 10, 80, 0
11, 29460, Note_on_c, 10, 82, 109
11, 29508, Note_on_c, 10, 82, 0
11, 29520, Note_on_c, 10, 82, 110
11, 29616, Note_on_c, 10, 82, 0
11, 29700, Note_on_c, 10, 82, 112
11, 29748, Note_on_c, 10, 82, 0
11, 29760, Note_on_c, 10, 84, 113
11, 29808, Note_on_c, 10, 84, 0
11, 29820, Note_on_c, 10, 85, 114
11, 29868, Note_on_c, 10, 85, 0
11, 29880, Note_on_c, 10, 85, 115
11, 29976, Note_on_c, 10, 85, 0
11, 30060, Note_on_c, 10, 82, 117
11, 30108, Note_on_c, 10, 82, 0
11, 30120, Note_on_c, 10, 84, 118
11, 30168, Note_on_c, 10, 84, 0
11, 30180, Note_on_c, 10, 85, 119
11, 30228, Note_on_c, 10, 85, 0
11, 30240, Note_on_c, 10, 85, 120
11, 30336, Note_on_c, 10, 85, 0
11, 30420, Note_on_c, 10, 82, 122
11, 30468, Note_on_c, 10, 82, 0
11, 30480, Note_on_c, 10, 84, 123
11, 30528, Note_on_c, 10, 84, 0
11, 30540, Note_on_c, 10, 85, 124
11, 30588, Note_on_c, 10, 85, 0
11, 30600, Note_on_c, 10, 85, 125
11, 30696, Note_on_c, 10, 85, 0
11, 30840, Note_on_c, 10, 84, 127
11, 30960, Note_on_c, 10, 84, 0
11, 30960, Note_on_c, 10, 85, 127
11, 31080, Note_on_c, 10, 85, 0
11, 31080, Note_on_c, 10, 84, 126
11, 31200, Note_on_c, 10, 84, 0
11, 31200, Note_on_c, 10, 80, 125
11, 31260, Note_on_c, 10, 80, 0
11, 31320, Note_on_c, 10, 77, 124
11, 31380, Note_on_c, 10, 77, 0
11, 31440, Note_on_c, 10, 73, 123
11, 31500, Note_on_c, 10, 73, 0
11, 31560, Note_on_c, 10, 72, 122
11, 31620, Note_on_c, 10, 72, 0
11, 31680, Note_on_c, 10, 68, 121
11, 31920, Note_on_c, 10, 68, 0
11, 31920, Note_on_c, 10, 65, 120
11, 32016, Note_on_c, 10, 65, 0
11, 32040, Note_on_c, 10, 64, 119
11, 32136, Note_on_c, 10, 64, 0
11, 32280, Note_on_c, 10, 84, 117
11, 32400, Note_on_c, 10, 84, 0
11, 32400, Note_on_c, 10, 85, 116
11, 32520, Note_on_c, 10, 85, 0
11, 32520, Note_on_c, 10, 84, 115
11, 32640, Note_on_c, 10, 84, 0
11, 32640, Note_on_c, 10, 82, 114
11, 32700, Note_on_c, 10, 82, 0
11, 32760, Note_on_c, 10, 79, 114
11, 32820, Note_on_c, 10, 79, 0
11, 32880, Note_on_c, 10, 76, 113
11, 32940, Note_on_c, 10, 76, 0
11, 33000, Note_on_c, 10, 73, 112
11, 33060, Note_on_c, 10, 73, 0
11, 33120, Note_on_c, 10, 72, 111
11, 33360, Note_on_c, 10, 72, 0
11, 33360, Note_on_c, 10, 70, 109
11, 33420, Note_on_c, 10, 70, 0
11, 33420, Note_on_c, 10, 67, 109
11, 33468, Note_on_c, 10, 67, 0
11, 33480, Note_on_c, 10, 65, 108
11, 33576, Note_on_c, 10, 65, 0
11, 33660, Note_on_c, 10, 77, 107
11, 33708, Note_on_c, 10, 77, 0
11, 33720, Note_on_c, 10, 79, 107
11, 33768, Note_on_c, 10, 79, 0
11, 33780, Note_on_c, 10, 80, 106
11, 33828, Note_on_c, 10, 80, 0
11, 33840, Note_on_c, 10, 82, 106
11, 33936, Note_on_c, 10, 82, 0
11, 34020, Note_on_c, 10, 79, 104
11, 34068, Note_on_c, 10, 79, 0
11, 34080, Note_on_c, 10, 80, 104
11, 34128, Note_on_c, 10, 80, 0
11, 34140, Note_on_c, 10, 82, 104
11, 34188, Note_on_c, 10, 82, 0
11, 34200, Note_on_c, 10, 84, 103
11, 34296, Note_on_c, 10, 84, 0
11, 34380, Note_on_c, 10, 80, 102
11, 34428, Note_on_c, 10, 80, 0
11, 34440, Note_on_c, 10, 82, 101
11, 34488, Note_on_c, 10, 82, 0
11, 34500, Note_on_c, 10, 84, 101
11, 34548, Note_on_c, 10, 84, 0
11, 34560, Note_on_c, 10, 85, 100
11, 34656, Note_on_c, 10, 85, 0
11, 34680, Note_on_c, 10, 85, 109
11, 34776, Note_on_c, 10, 85, 0
11, 34800, Note_on_c, 10, 86, 118
11, 34896, Note_on_c, 10, 86, 0
11, 34920, Note_on_c, 10, 89, 127
11, 35016, Note_on_c, 10, 89, 0
11, 35100, Note_on_c, 10, 77, 101
11, 35148, Note_on_c, 10, 77, 0
11, 35160, Note_on_c, 10, 79, 102
11, 35208, Note_on_c, 10, 79, 0
11, 35220, Note_on_c, 10, 80, 103
11, 35268, Note_on_c, 10, 80, 0
11, 35280, Note_on_c, 10, 82, 104
11, 35376, Note_on_c, 10, 82, 0
11, 35460, Note_on_c, 10, 79, 108
11, 35508, Note_on_c, 10, 79, 0
11, 35520, Note_on_c, 10, 80, 109
11, 35568, Note_on_c, 10, 80, 0
11, 35580, Note_on_c, 10, 82, 111
11, 35628, Note_on_c, 10, 82, 0
11, 35640, Note_on_c, 10, 84, 112
11, 35736, Note_on_c, 10, 84, 0
11, 35820, Note_on_c, 10, 80, 115
11, 35868, Note_on_c, 10, 80, 0
11, 35880, Note_on_c, 10, 82, 117
11, 35928, Note_on_c, 10, 82, 0
11, 35940, Note_on_c, 10, 84, 118
11, 35988, Note_on_c, 10, 84, 0
11, 36000, Note_on_c, 10, 85, 119
11, 36096, Note_on_c, 10, 85, 0
11, 36120, Note_on_c, 10, 85, 122
11, 36216, Note_on_c, 10, 85, 0
11, 36240, Note_on_c, 10, 86, 124
11, 36336, Note_on_c, 10, 86, 0
11, 36360, Note_on_c, 10, 87, 127
11, 36600, Note_on_c, 10, 87, 0
11, 36600, Note_on_c, 10, 82, 127
11, 36660, Note_on_c, 10, 82, 0
11, 36660, Note_on_c, 10, 79, 127
11, 36708, Note_on_c, 10, 79, 0
11, 36720, Note_on_c, 10, 84, 127
11, 36960, Note_on_c, 10, 84, 0
11, 36960, Note_on_c, 10, 80, 127
11, 37020, Note_on_c, 10, 80, 0
11, 37020, Note_on_c, 10, 75, 127
11, 37068, Note_on_c, 10, 75, 0
11, 37080, Note_on_c, 10, 80, 127
11, 37320, Note_on_c, 10, 80, 0
11, 37320, Note_on_c, 10, 77, 127
11, 37380, Note_on_c, 10, 77, 0
11, 37380, Note_on_c, 10, 74, 127
11, 37428, Note_on_c, 10, 74, 0
11, 37440, Note_on_c, 10, 75, 127
11, 37632, Note_on_c, 10, 75, 0
11, 37680, Note_on_c, 10, 70, 127
11, 37728, Note_on_c, 10, 70, 0
11, 37740, Note_on_c, 10, 67, 127
11, 37788, Note_on_c, 10, 67, 0
11, 37800, Note_on_c, 10, 73, 127
11, 37992, Note_on_c, 10, 73, 0
11, 38040, Note_on_c, 10, 70, 127
11, 38088, Note_on_c, 10, 70, 0
11, 38100, Note_on_c, 10, 67, 127
11, 38148, Note_on_c, 10, 67, 0
11, 38160, Note_on_c, 10, 72, 127
11, 38352, Note_on_c, 10, 72, 0
11, 38400, Note_on_c, 10, 68, 127
11, 38448, Note_on_c, 10, 68, 0
11, 38460, Note_on_c, 10, 63, 127
11, 38508, Note_on_c, 10, 63, 0
11, 38520, Note_on_c, 10, 68, 127
11, 38712, Note_on_c, 10, 68, 0
11, 38760, Note_on_c, 10, 65, 127
11, 38808, Note_on_c, 10, 65, 0
11, 38820, Note_on_c, 10, 62, 127
11, 38868, Note_on_c, 10, 62, 0
11, 38880, Note_on_c, 10, 63, 127
11, 38976, Note_on_c, 10, 63, 0
11, 39240, Note_on_c, 10, 63, 127
11, 39300, Note_on_c, 10, 63, 0
11, 39360, Note_on_c, 10, 63, 127
11, 39420, Note_on_c, 10, 63, 0
11, 39540, Note_on_c, 10, 63, 127
11, 39588, Note_on_c, 10, 63, 0
11, 39600, Note_on_c, 10, 65, 127
11, 39696, Note_on_c, 10, 65, 0
11, 39720, Note_on_c, 10, 65, 127
11, 39816, Note_on_c, 10, 65, 0
11, 40680, Note_on_c, 10, 63, 127
11, 40740, Note_on_c, 10, 63, 0
11, 40800, Note_on_c, 10, 63, 127
11, 40860, Note_on_c, 10, 63, 0
11, 40980, Note_on_c, 10, 63, 127
11, 41028, Note_on_c, 10, 63, 0
11, 41040, Note_on_c, 10, 65, 127
11, 41136, Note_on_c, 10, 65, 0
11, 41160, Note_on_c, 10, 65, 127
11, 41256, Note_on_c, 10, 65, 0
11, 42120, Note_on_c, 10, 63, 127
11, 42180, Note_on_c, 10, 63, 0
11, 42240, Note_on_c, 10, 63, 127
11, 42300, Note_on_c, 10, 63, 0
11, 42420, Note_on_c, 10, 63, 127
11, 42468, Note_on_c, 10, 63, 0
11, 42480, Note_on_c, 10, 64, 127
11, 42576, Note_on_c, 10, 64, 0
11, 42600, Note_on_c, 10, 64, 127
11, 42696, Note_on_c, 10, 64, 0
11, 45000, Note_on_c, 10, 82, 67
11, 45032, Note_on_c, 10, 82, 0
11, 45040, Note_on_c, 10, 82, 67
11, 45072, Note_on_c, 10, 82, 0
11, 45080, Note_on_c, 10, 82, 67
11, 45112, Note_on_c, 10, 82, 0
11, 45120, Note_on_c, 10, 82, 68
11, 45152, Note_on_c, 10, 82, 0
11, 45160, Note_on_c, 10, 82, 68
11, 45192, Note_on_c, 10, 82, 0
11, 45200, Note_on_c, 10, 82, 68
11, 45232, Note_on_c, 10, 82, 0
11, 45240, Note_on_c, 10, 82, 69
11, 45272, Note_on_c, 10, 82, 0
11, 45280, Note_on_c, 10, 82, 69
11, 45312, Note_on_c, 10, 82, 0
11, 45320, Note_on_c, 10, 82, 69
11, 45352, Note_on_c, 10, 82, 0
11, 45360, Note_on_c, 10, 87, 70
11, 45392, Note_on_c, 10, 87, 0
11, 45400, Note_on_c, 10, 87, 72
11, 45432, Note_on_c, 10, 87, 0
11, 45440, Note_on_c, 10, 87, 75
11, 45472, Note_on_c, 10, 87, 0
11, 45480, Note_on_c, 10, 87, 78
11, 45512, Note_on_c, 10, 87, 0
11, 45520, Note_on_c, 10, 87, 81
11, 45552, Note_on_c, 10, 87, 0
11, 45560, Note_on_c, 10, 87, 83
11, 45592, Note_on_c, 10, 87, 0
11, 45600, Note_on_c, 10, 87, 86
11, 45632, Note_on_c, 10, 87, 0
11, 45640, Note_on_c, 10, 87, 89
11, 45672, Note_on_c, 10, 87, 0
11, 45680, Note_on_c, 10, 87, 92
11, 45712, Note_on_c, 10, 87, 0
11, 45720, Note_on_c, 10, 87, 95
11, 45752, Note_on_c, 10, 87, 0
11, 45760, Note_on_c, 10, 87, 95
11, 45792, Note_on_c, 10, 87, 0
11, 45800, Note_on_c, 10, 87, 95
11, 45832, Note_on_c, 10, 87, 0
11, 45840, Note_on_c, 10, 84, 95
11, 45872, Note_on_c, 10, 84, 0
11, 45880, Note_on_c, 10, 84, 95
11, 45912, Note_on_c, 10, 84, 0
11, 45920, Note_on_c, 10, 84, 95
11, 45952, Note_on_c, 10, 84, 0
11, 45960, Note_on_c, 10, 80, 95
11, 45992, Note_on_c, 10, 80, 0
11, 46000, Note_on_c, 10, 80, 95
11, 46032, Note_on_c, 10, 80, 0
11, 46040, Note_on_c, 10, 80, 95
11, 46072, Note_on_c, 10, 80, 0
11, 46080, Note_on_c, 10, 80, 95
11, 46112, Note_on_c, 10, 80, 0
11, 46120, Note_on_c, 10, 80, 95
11, 46152, Note_on_c, 10, 80, 0
11, 46160, Note_on_c, 10, 80, 95
11, 46192, Note_on_c, 10, 80, 0
11, 46200, Note_on_c, 10, 77, 95
11, 46232, Note_on_c, 10, 77, 0
11, 46240, Note_on_c, 10, 77, 95
11, 46272, Note_on_c, 10, 77, 0
11, 46280, Note_on_c, 10, 77, 95
11, 46312, Note_on_c, 10, 77, 0
11, 46320, Note_on_c, 10, 77, 95
11, 46352, Note_on_c, 10, 77, 0
11, 46360, Note_on_c, 10, 77, 95
11, 46392, Note_on_c, 10, 77, 0
11, 46400, Note_on_c, 10, 77, 95
11, 46432, Note_on_c, 10, 77, 0
11, 46440, Note_on_c, 10, 77, 95
11, 46472, Note_on_c, 10, 77, 0
11, 46480, Note_on_c, 10, 77, 95
11, 46512, Note_on_c, 10, 77, 0
11, 46520, Note_on_c, 10, 77, 95
11, 46552, Note_on_c, 10, 77, 0
11, 46560, Note_on_c, 10, 73, 95
11, 46592, Note_on_c, 10, 73, 0
11, 46600, Note_on_c, 10, 73, 95
11, 46632, Note_on_c, 10, 73, 0
11, 46640, Note_on_c, 10, 73, 95
11, 46672, Note_on_c, 10, 73, 0
11, 46680, Note_on_c, 10, 73, 95
11, 46712, Note_on_c, 10, 73, 0
11, 46720, Note_on_c, 10, 73, 95
11, 46752, Note_on_c, 10, 73, 0
11, 46760, Note_on_c, 10, 73, 95
11, 46792, Note_on_c, 10, 73, 0
11, 46800, Note_on_c, 10, 73, 95
11, 46832, Note_on_c, 10, 73, 0
11, 46840, Note_on_c, 10, 73, 95
11, 46872, Note_on_c, 10, 73, 0
11, 46880, Note_on_c, 10, 73, 95
11, 46912, Note_on_c, 10, 73, 0
11, 46920, Note_on_c, 10, 70, 95
11, 46952, Note_on_c, 10, 70, 0
11, 46960, Note_on_c, 10, 70, 95
11, 46992, Note_on_c, 10, 70, 0
11, 47000, Note_on_c, 10, 70, 95
11, 47032, Note_on_c, 10, 70, 0
11, 47040, Note_on_c, 10, 67, 95
11, 47072, Note_on_c, 10, 67, 0
11, 47080, Note_on_c, 10, 67, 95
11, 47112, Note_on_c, 10, 67, 0
11, 47120, Note_on_c, 10, 67, 95
11, 47152, Note_on_c, 10, 67, 0
11, 47160, Note_on_c, 10, 68, 95
11, 47256, Note_on_c, 10, 68, 0
11, 47340, Note_on_c, 10, 56, 112
11, 47388, Note_on_c, 10, 56, 0
11, 47400, Note_on_c, 10, 58, 112
11, 47448, Note_on_c, 10, 58, 0
11, 47460, Note_on_c, 10, 60, 112
11, 47508, Note_on_c, 10, 60, 0
11, 47520, Note_on_c, 10, 61, 112
11, 47568, Note_on_c, 10, 61, 0
11, 47580, Note_on_c, 10, 63, 112
11, 47628, Note_on_c, 10, 63, 0
11, 47640, Note_on_c, 10, 65, 112
11, 47688, Note_on_c, 10, 65, 0
11, 47700, Note_on_c, 10, 67, 112
11, 47748, Note_on_c, 10, 67, 0
11, 47760, Note_on_c, 10, 68, 112
11, 47808, Note_on_c, 10, 68, 0
11, 47820, Note_on_c, 10, 70, 112
11, 47868, Note_on_c, 10, 70, 0
11, 47880, Note_on_c, 10, 72, 112
11, 47976, Note_on_c, 10, 72, 0
11, 48060, Note_on_c, 10, 68, 112
11, 48108, Note_on_c, 10, 68, 0
11, 48120, Note_on_c, 10, 70, 112
11, 48168, Note_on_c, 10, 70, 0
11, 48180, Note_on_c, 10, 72, 112
11, 48228, Note_on_c, 10, 72, 0
11, 48240, Note_on_c, 10, 73, 112
11, 48288, Note_on_c, 10, 73, 0
11, 48300, Note_on_c, 10, 75, 112
11, 48348, Note_on_c, 10, 75, 0
11, 48360, Note_on_c, 10, 77, 112
11, 48408, Note_on_c, 10, 77, 0
11, 48420, Note_on_c, 10, 79, 112
11, 48468, Note_on_c, 10, 79, 0
11, 48480, Note_on_c, 10, 80, 112
11, 48528, Note_on_c, 10, 80, 0
11, 48540, Note_on_c, 10, 82, 112
11, 48588, Note_on_c, 10, 82, 0
11, 48600, Note_on_c, 10, 84, 112
11, 48696, Note_on_c, 10, 84, 0
11, 48780, Note_on_c, 10, 72, 98
11, 48828, Note_on_c, 10, 72, 0
11, 48840, Note_on_c, 10, 73, 101
11, 48888, Note_on_c, 10, 73, 0
11, 48900, Note_on_c, 10, 75, 104
11, 48948, Note_on_c, 10, 75, 0
11, 48960, Note_on_c, 10, 77, 107
11, 49008, Note_on_c, 10, 77, 0
11, 49020, Note_on_c, 10, 79, 111
11, 49068, Note_on_c, 10, 79, 0
11, 49080, Note_on_c, 10, 80, 114
11, 49128, Note_on_c, 10, 80, 0
11, 49140, Note_on_c, 10, 82, 117
11, 49188, Note_on_c, 10, 82, 0
11, 49200, Note_on_c, 10, 84, 120
11, 49248, Note_on_c, 10, 84, 0
11, 49260, Note_on_c, 10, 85, 123
11, 49308, Note_on_c, 10, 85, 0
11, 49320, Note_on_c, 10, 87, 127
11, 49512, Note_on_c, 10, 87, 0
11, 49560, Note_on_c, 10, 79, 127
11, 49656, Note_on_c, 10, 79, 0
11, 49680, Note_on_c, 10, 87, 127
11, 49872, Note_on_c, 10, 87, 0
11, 49920, Note_on_c, 10, 79, 127
11, 50016, Note_on_c, 10, 79, 0
11, 50040, Note_on_c, 10, 87, 127
11, 50232, Note_on_c, 10, 87, 0
11, 50280, Note_on_c, 10, 80, 127
11, 50376, Note_on_c, 10, 80, 0
11, 50400, Note_on_c, 10, 87, 127
11, 50592, Note_on_c, 10, 87, 0
11, 50640, Note_on_c, 10, 79, 127
11, 50736, Note_on_c, 10, 79, 0
11, 50760, Note_on_c, 10, 87, 127
11, 50952, Note_on_c, 10, 87, 0
11, 51000, Note_on_c, 10, 80, 127
11, 51096, Note_on_c, 10, 80, 0
11, 51120, Note_on_c, 10, 87, 127
11, 51312, Note_on_c, 10, 87, 0
11, 51360, Note_on_c, 10, 79, 127
11, 51456, Note_on_c, 10, 79, 0
11, 51480, Note_on_c, 10, 63, 127
11, 51480, Note_on_c, 10, 72, 127
11, 51480, Note_on_c, 10, 80, 127
11, 51528, Note_on_c, 10, 80, 0
11, 51528, Note_on_c, 10, 72, 0
11, 51528, Note_on_c, 10, 63, 0
11, 51540, Note_on_c, 10, 63, 50
11, 51588, Note_on_c, 10, 63, 0
11, 51600, Note_on_c, 10, 63, 50
11, 51648, Note_on_c, 10, 63, 0
11, 51660, Note_on_c, 10, 63, 50
11, 51708, Note_on_c, 10, 63, 0
11, 51720, Note_on_c, 10, 63, 50
11, 51768, Note_on_c, 10, 63, 0
11, 51780, Note_on_c, 10, 63, 50
11, 51828, Note_on_c, 10, 63, 0
11, 51840, Note_on_c, 10, 63, 50
11, 51888, Note_on_c, 10, 63, 0
11, 51900, Note_on_c, 10, 63, 50
11, 51948, Note_on_c, 10, 63, 0
11, 51960, Note_on_c, 10, 63, 50
11, 52008, Note_on_c, 10, 63, 0
11, 52020, Note_on_c, 10, 63, 50
11, 52068, Note_on_c, 10, 63, 0
11, 52080, Note_on_c, 10, 63, 50
11, 52128, Note_on_c, 10, 63, 0
11, 52140, Note_on_c, 10, 63, 50
11, 52188, Note_on_c, 10, 63, 0
11, 52200, Note_on_c, 10, 63, 50
11, 52248, Note_on_c, 10, 63, 0
11, 52260, Note_on_c, 10, 63, 50
11, 52308, Note_on_c, 10, 63, 0
11, 52320, Note_on_c, 10, 63, 50
11, 52368, Note_on_c, 10, 63, 0
11, 52380, Note_on_c, 10, 63, 50
11, 52428, Note_on_c, 10, 63, 0
11, 52440, Note_on_c, 10, 63, 50
11, 52488, Note_on_c, 10, 63, 0
11, 52500, Note_on_c, 10, 63, 50
11, 52548, Note_on_c, 10, 63, 0
11, 52560, Note_on_c, 10, 63, 50
11, 52608, Note_on_c, 10, 63, 0
11, 52620, Note_on_c, 10, 63, 50
11, 52668, Note_on_c, 10, 63, 0
11, 52680, Note_on_c, 10, 63, 50
11, 52728, Note_on_c, 10, 63, 0
11, 52740, Note_on_c, 10, 63, 50
11, 52788, Note_on_c, 10, 63, 0
11, 52800, Note_on_c, 10, 63, 50
11, 52848, Note_on_c, 10, 63, 0
11, 52860, Note_on_c, 10, 63, 50
11, 52908, Note_on_c, 10, 63, 0
11, 52920, Note_on_c, 10, 61, 50
11, 52920, Note_on_c, 10, 63, 50
11, 52968, Note_on_c, 10, 63, 0
11, 52968, Note_on_c, 10, 61, 0
11, 52980, Note_on_c, 10, 63, 50
11, 52980, Note_on_c, 10, 61, 50
11, 53028, Note_on_c, 10, 61, 0
11, 53028, Note_on_c, 10, 63, 0
11, 53040, Note_on_c, 10, 63, 50
11, 53040, Note_on_c, 10, 61, 50
11, 53088, Note_on_c, 10, 61, 0
11, 53088, Note_on_c, 10, 63, 0
11, 53100, Note_on_c, 10, 61, 50
11, 53100, Note_on_c, 10, 63, 50
11, 53148, Note_on_c, 10, 63, 0
11, 53148, Note_on_c, 10, 61, 0
11, 53160, Note_on_c, 10, 63, 50
11, 53160, Note_on_c, 10, 61, 50
11, 53208, Note_on_c, 10, 61, 0
11, 53208, Note_on_c, 10, 63, 0
11, 53220, Note_on_c, 10, 61, 50
11, 53220, Note_on_c, 10, 63, 50
11, 53268, Note_on_c, 10, 63, 0
11, 53268, Note_on_c, 10, 61, 0
11, 53280, Note_on_c, 10, 63, 50
11, 53280, Note_on_c, 10, 61, 50
11, 53328, Note_on_c, 10, 61, 0
11, 53328, Note_on_c, 10, 63, 0
11, 53340, Note_on_c, 10, 61, 50
11, 53340, Note_on_c, 10, 63, 50
11, 53388, Note_on_c, 10, 63, 0
11, 53388, Note_on_c, 10, 61, 0
11, 53400, Note_on_c, 10, 63, 50
11, 53400, Note_on_c, 10, 61, 50
11, 53448, Note_on_c, 10, 61, 0
11, 53448, Note_on_c, 10, 63, 0
11, 53460, Note_on_c, 10, 61, 50
11, 53460, Note_on_c, 10, 63, 50
11, 53508, Note_on_c, 10, 63, 0
11, 53508, Note_on_c, 10, 61, 0
11, 53520, Note_on_c, 10, 63, 50
11, 53520, Note_on_c, 10, 61, 50
11, 53568, Note_on_c, 10, 61, 0
11, 53568, Note_on_c, 10, 63, 0
11, 53580, Note_on_c, 10, 61, 50
11, 53580, Note_on_c, 10, 63, 50
11, 53628, Note_on_c, 10, 63, 0
11, 53628, Note_on_c, 10, 61, 0
11, 53640, Note_on_c, 10, 58, 50
11, 53640, Note_on_c, 10, 63, 50
11, 53688, Note_on_c, 10, 63, 0
11, 53688, Note_on_c, 10, 58, 0
11, 53700, Note_on_c, 10, 58, 50
11, 53700, Note_on_c, 10, 63, 50
11, 53748, Note_on_c, 10, 63, 0
11, 53748, Note_on_c, 10, 58, 0
11, 53760, Note_on_c, 10, 63, 50
11, 53760, Note_on_c, 10, 58, 50
11, 53808, Note_on_c, 10, 58, 0
11, 53808, Note_on_c, 10, 63, 0
11, 53820, Note_on_c, 10, 58, 50
11, 53820, Note_on_c, 10, 63, 50
11, 53868, Note_on_c, 10, 63, 0
11, 53868, Note_on_c, 10, 58, 0
11, 53880, Note_on_c, 10, 63, 50
11, 53880, Note_on_c, 10, 58, 50
11, 53928, Note_on_c, 10, 58, 0
11, 53928, Note_on_c, 10, 63, 0
11, 53940, Note_on_c, 10, 58, 50
11, 53940, Note_on_c, 10, 63, 50
11, 53988, Note_on_c, 10, 63, 0
11, 53988, Note_on_c, 10, 58, 0
11, 54000, Note_on_c, 10, 58, 50
11, 54000, Note_on_c, 10, 63, 50
11, 54048, Note_on_c, 10, 63, 0
11, 54048, Note_on_c, 10, 58, 0
11, 54060, Note_on_c, 10, 58, 50
11, 54060, Note_on_c, 10, 63, 50
11, 54108, Note_on_c, 10, 63, 0
11, 54108, Note_on_c, 10, 58, 0
11, 54120, Note_on_c, 10, 58, 50
11, 54120, Note_on_c, 10, 63, 50
11, 54168, Note_on_c, 10, 63, 0
11, 54168, Note_on_c, 10, 58, 0
11, 54180, Note_on_c, 10, 58, 50
11, 54180, Note_on_c, 10, 63, 50
11, 54228, Note_on_c, 10, 63, 0
11, 54228, Note_on_c, 10, 58, 0
11, 54240, Note_on_c, 10, 63, 127
11, 54240, Note_on_c, 10, 70, 127
11, 54240, Note_on_c, 10, 79, 127
11, 54336, Note_on_c, 10, 79, 0
11, 54336, Note_on_c, 10, 70, 0
11, 54336, Note_on_c, 10, 63, 0
11, 54360, Note_on_c, 10, 63, 127
11, 54360, Note_on_c, 10, 72, 127
11, 54360, Note_on_c, 10, 80, 127
11, 54408, Note_on_c, 10, 80, 0
11, 54408, Note_on_c, 10, 72, 0
11, 54408, Note_on_c, 10, 63, 0
11, 54420, Note_on_c, 10, 63, 50
11, 54468, Note_on_c, 10, 63, 0
11, 54480, Note_on_c, 10, 63, 50
11, 54528, Note_on_c, 10, 63, 0
11, 54540, Note_on_c, 10, 63, 50
11, 54588, Note_on_c, 10, 63, 0
11, 54600, Note_on_c, 10, 63, 50
11, 54648, Note_on_c, 10, 63, 0
11, 54660, Note_on_c, 10, 63, 50
11, 54708, Note_on_c, 10, 63, 0
11, 54720, Note_on_c, 10, 63, 50
11, 54768, Note_on_c, 10, 63, 0
11, 54780, Note_on_c, 10, 63, 50
11, 54828, Note_on_c, 10, 63, 0
11, 54840, Note_on_c, 10, 63, 50
11, 54888, Note_on_c, 10, 63, 0
11, 54900, Note_on_c, 10, 63, 50
11, 54948, Note_on_c, 10, 63, 0
11, 54960, Note_on_c, 10, 63, 50
11, 55008, Note_on_c, 10, 63, 0
11, 55020, Note_on_c, 10, 63, 50
11, 55068, Note_on_c, 10, 63, 0
11, 55080, Note_on_c, 10, 63, 50
11, 55128, Note_on_c, 10, 63, 0
11, 55140, Note_on_c, 10, 63, 50
11, 55188, Note_on_c, 10, 63, 0
11, 55200, Note_on_c, 10, 63, 50
11, 55248, Note_on_c, 10, 63, 0
11, 55260, Note_on_c, 10, 63, 50
11, 55308, Note_on_c, 10, 63, 0
11, 55320, Note_on_c, 10, 63, 50
11, 55368, Note_on_c, 10, 63, 0
11, 55380, Note_on_c, 10, 63, 50
11, 55428, Note_on_c, 10, 63, 0
11, 55440, Note_on_c, 10, 63, 50
11, 55488, Note_on_c, 10, 63, 0
11, 55500, Note_on_c, 10, 63, 50
11, 55548, Note_on_c, 10, 63, 0
11, 55560, Note_on_c, 10, 63, 50
11, 55608, Note_on_c, 10, 63, 0
11, 55620, Note_on_c, 10, 63, 50
11, 55668, Note_on_c, 10, 63, 0
11, 55680, Note_on_c, 10, 63, 50
11, 55728, Note_on_c, 10, 63, 0
11, 55740, Note_on_c, 10, 63, 50
11, 55788, Note_on_c, 10, 63, 0
11, 55800, Note_on_c, 10, 65, 50
11, 55848, Note_on_c, 10, 65, 0
11, 55860, Note_on_c, 10, 65, 50
11, 55908, Note_on_c, 10, 65, 0
11, 55920, Note_on_c, 10, 65, 50
11, 55968, Note_on_c, 10, 65, 0
11, 55980, Note_on_c, 10, 65, 50
11, 56028, Note_on_c, 10, 65, 0
11, 56040, Note_on_c, 10, 65, 50
11, 56088, Note_on_c, 10, 65, 0
11, 56100, Note_on_c, 10, 65, 50
11, 56148, Note_on_c, 10, 65, 0
11, 56160, Note_on_c, 10, 65, 50
11, 56208, Note_on_c, 10, 65, 0
11, 56220, Note_on_c, 10, 65, 50
11, 56268, Note_on_c, 10, 65, 0
11, 56280, Note_on_c, 10, 65, 50
11, 56328, Note_on_c, 10, 65, 0
11, 56340, Note_on_c, 10, 65, 50
11, 56388, Note_on_c, 10, 65, 0
11, 56400, Note_on_c, 10, 65, 50
11, 56448, Note_on_c, 10, 65, 0
11, 56460, Note_on_c, 10, 65, 50
11, 56508, Note_on_c, 10, 65, 0
11, 56520, Note_on_c, 10, 65, 50
11, 56568, Note_on_c, 10, 65, 0
11, 56580, Note_on_c, 10, 65, 50
11, 56628, Note_on_c, 10, 65, 0
11, 56640, Note_on_c, 10, 65, 50
11, 56688, Note_on_c, 10, 65, 0
11, 56700, Note_on_c, 10, 65, 50
11, 56748, Note_on_c, 10, 65, 0
11, 56760, Note_on_c, 10, 65, 50
11, 56808, Note_on_c, 10, 65, 0
11, 56820, Note_on_c, 10, 65, 50
11, 56868, Note_on_c, 10, 65, 0
11, 56880, Note_on_c, 10, 65, 50
11, 56928, Note_on_c, 10, 65, 0
11, 56940, Note_on_c, 10, 65, 50
11, 56988, Note_on_c, 10, 65, 0
11, 57000, Note_on_c, 10, 65, 50
11, 57048, Note_on_c, 10, 65, 0
11, 57060, Note_on_c, 10, 65, 50
11, 57108, Note_on_c, 10, 65, 0
11, 57120, Note_on_c, 10, 65, 127
11, 57120, Note_on_c, 10, 72, 127
11, 57120, Note_on_c, 10, 81, 127
11, 57216, Note_on_c, 10, 81, 0
11, 57216, Note_on_c, 10, 72, 0
11, 57216, Note_on_c, 10, 65, 0
11, 57240, Note_on_c, 10, 65, 127
11, 57240, Note_on_c, 10, 73, 127
11, 57240, Note_on_c, 10, 82, 127
11, 57288, Note_on_c, 10, 82, 0
11, 57288, Note_on_c, 10, 73, 0
11, 57288, Note_on_c, 10, 65, 0
11, 57300, Note_on_c, 10, 65, 50
11, 57348, Note_on_c, 10, 65, 0
11, 57360, Note_on_c, 10, 65, 50
11, 57408, Note_on_c, 10, 65, 0
11, 57420, Note_on_c, 10, 65, 50
11, 57468, Note_on_c, 10, 65, 0
11, 57480, Note_on_c, 10, 65, 50
11, 57528, Note_on_c, 10, 65, 0
11, 57540, Note_on_c, 10, 65, 50
11, 57588, Note_on_c, 10, 65, 0
11, 57600, Note_on_c, 10, 65, 50
11, 57648, Note_on_c, 10, 65, 0
11, 57660, Note_on_c, 10, 65, 50
11, 57708, Note_on_c, 10, 65, 0
11, 57720, Note_on_c, 10, 65, 50
11, 57768, Note_on_c, 10, 65, 0
11, 57780, Note_on_c, 10, 65, 50
11, 57828, Note_on_c, 10, 65, 0
11, 57840, Note_on_c, 10, 65, 50
11, 57888, Note_on_c, 10, 65, 0
11, 57900, Note_on_c, 10, 65, 50
11, 57948, Note_on_c, 10, 65, 0
11, 57960, Note_on_c, 10, 65, 50
11, 58008, Note_on_c, 10, 65, 0
11, 58020, Note_on_c, 10, 65, 50
11, 58068, Note_on_c, 10, 65, 0
11, 58080, Note_on_c, 10, 65, 50
11, 58128, Note_on_c, 10, 65, 0
11, 58140, Note_on_c, 10, 65, 50
11, 58188, Note_on_c, 10, 65, 0
11, 58200, Note_on_c, 10, 65, 50
11, 58248, Note_on_c, 10, 65, 0
11, 58260, Note_on_c, 10, 65, 50
11, 58308, Note_on_c, 10, 65, 0
11, 58320, Note_on_c, 10, 65, 50
11, 58368, Note_on_c, 10, 65, 0
11, 58380, Note_on_c, 10, 65, 50
11, 58428, Note_on_c, 10, 65, 0
11, 58440, Note_on_c, 10, 65, 50
11, 58488, Note_on_c, 10, 65, 0
11, 58500, Note_on_c, 10, 65, 50
11, 58548, Note_on_c, 10, 65, 0
11, 58560, Note_on_c, 10, 65, 50
11, 58608, Note_on_c, 10, 65, 0
11, 58620, Note_on_c, 10, 65, 50
11, 58668, Note_on_c, 10, 65, 0
11, 58680, Note_on_c, 10, 65, 50
11, 58728, Note_on_c, 10, 65, 0
11, 58740, Note_on_c, 10, 65, 50
11, 58788, Note_on_c, 10, 65, 0
11, 58800, Note_on_c, 10, 65, 50
11, 58848, Note_on_c, 10, 65, 0
11, 58860, Note_on_c, 10, 65, 50
11, 58908, Note_on_c, 10, 65, 0
11, 58920, Note_on_c, 10, 65, 50
11, 58968, Note_on_c, 10, 65, 0
11, 58980, Note_on_c, 10, 65, 50
11, 59028, Note_on_c, 10, 65, 0
11, 59040, Note_on_c, 10, 65, 50
11, 59088, Note_on_c, 10, 65, 0
11, 59100, Note_on_c, 10, 65, 50
11, 59148, Note_on_c, 10, 65, 0
11, 59160, Note_on_c, 10, 65, 50
11, 59208, Note_on_c, 10, 65, 0
11, 59220, Note_on_c, 10, 65, 50
11, 59268, Note_on_c, 10, 65, 0
11, 59280, Note_on_c, 10, 65, 50
11, 59328, Note_on_c, 10, 65, 0
11, 59340, Note_on_c, 10, 65, 50
11, 59388, Note_on_c, 10, 65, 0
11, 59400, Note_on_c, 10, 65, 50
11, 59448, Note_on_c, 10, 65, 0
11, 59460, Note_on_c, 10, 65, 50
11, 59508, Note_on_c, 10, 65, 0
11, 59520, Note_on_c, 10, 65, 50
11, 59568, Note_on_c, 10, 65, 0
11, 59580, Note_on_c, 10, 65, 50
11, 59628, Note_on_c, 10, 65, 0
11, 59640, Note_on_c, 10, 65, 50
11, 59688, Note_on_c, 10, 65, 0
11, 59700, Note_on_c, 10, 65, 50
11, 59748, Note_on_c, 10, 65, 0
11, 59760, Note_on_c, 10, 65, 50
11, 59808, Note_on_c, 10, 65, 0
11, 59820, Note_on_c, 10, 65, 50
11, 59868, Note_on_c, 10, 65, 0
11, 59880, Note_on_c, 10, 65, 50
11, 59928, Note_on_c, 10, 65, 0
11, 59940, Note_on_c, 10, 65, 50
11, 59988, Note_on_c, 10, 65, 0
11, 60000, Note_on_c, 10, 65, 127
11, 60000, Note_on_c, 10, 72, 127
11, 60000, Note_on_c, 10, 81, 127
11, 60096, Note_on_c, 10, 81, 0
11, 60096, Note_on_c, 10, 72, 0
11, 60096, Note_on_c, 10, 65, 0
11, 60120, Note_on_c, 10, 65, 127
11, 60120, Note_on_c, 10, 73, 127
11, 60120, Note_on_c, 10, 82, 127
11, 60168, Note_on_c, 10, 82, 0
11, 60168, Note_on_c, 10, 73, 0
11, 60168, Note_on_c, 10, 65, 0
11, 60180, Note_on_c, 10, 65, 50
11, 60228, Note_on_c, 10, 65, 0
11, 60240, Note_on_c, 10, 65, 50
11, 60288, Note_on_c, 10, 65, 0
11, 60300, Note_on_c, 10, 65, 50
11, 60348, Note_on_c, 10, 65, 0
11, 60360, Note_on_c, 10, 65, 50
11, 60408, Note_on_c, 10, 65, 0
11, 60420, Note_on_c, 10, 65, 50
11, 60468, Note_on_c, 10, 65, 0
11, 60480, Note_on_c, 10, 65, 50
11, 60528, Note_on_c, 10, 65, 0
11, 60540, Note_on_c, 10, 65, 50
11, 60588, Note_on_c, 10, 65, 0
11, 60600, Note_on_c, 10, 65, 50
11, 60648, Note_on_c, 10, 65, 0
11, 60660, Note_on_c, 10, 65, 50
11, 60708, Note_on_c, 10, 65, 0
11, 60720, Note_on_c, 10, 65, 50
11, 60768, Note_on_c, 10, 65, 0
11, 60780, Note_on_c, 10, 65, 50
11, 60828, Note_on_c, 10, 65, 0
11, 60840, Note_on_c, 10, 65, 50
11, 60888, Note_on_c, 10, 65, 0
11, 60900, Note_on_c, 10, 65, 50
11, 60948, Note_on_c, 10, 65, 0
11, 60960, Note_on_c, 10, 65, 50
11, 61008, Note_on_c, 10, 65, 0
11, 61020, Note_on_c, 10, 65, 50
11, 61068, Note_on_c, 10, 65, 0
11, 61080, Note_on_c, 10, 65, 50
11, 61128, Note_on_c, 10, 65, 0
11, 61140, Note_on_c, 10, 65, 50
11, 61188, Note_on_c, 10, 65, 0
11, 61200, Note_on_c, 10, 65, 50
11, 61248, Note_on_c, 10, 65, 0
11, 61260, Note_on_c, 10, 65, 50
11, 61308, Note_on_c, 10, 65, 0
11, 61320, Note_on_c, 10, 65, 50
11, 61368, Note_on_c, 10, 65, 0
11, 61380, Note_on_c, 10, 65, 50
11, 61428, Note_on_c, 10, 65, 0
11, 61440, Note_on_c, 10, 65, 50
11, 61488, Note_on_c, 10, 65, 0
11, 61500, Note_on_c, 10, 65, 50
11, 61548, Note_on_c, 10, 65, 0
11, 61560, Note_on_c, 10, 65, 50
11, 61608, Note_on_c, 10, 65, 0
11, 61620, Note_on_c, 10, 65, 50
11, 61668, Note_on_c, 10, 65, 0
11, 61680, Note_on_c, 10, 65, 50
11, 61728, Note_on_c, 10, 65, 0
11, 61740, Note_on_c, 10, 65, 50
11, 61788, Note_on_c, 10, 65, 0
11, 61800, Note_on_c, 10, 65, 50
11, 61848, Note_on_c, 10, 65, 0
11, 61860, Note_on_c, 10, 65, 50
11, 61908, Note_on_c, 10, 65, 0
11, 61920, Note_on_c, 10, 65, 50
11, 61968, Note_on_c, 10, 65, 0
11, 61980, Note_on_c, 10, 65, 50
11, 62028, Note_on_c, 10, 65, 0
11, 62040, Note_on_c, 10, 65, 50
11, 62088, Note_on_c, 10, 65, 0
11, 62100, Note_on_c, 10, 65, 50
11, 62148, Note_on_c, 10, 65, 0
11, 63720, Note_on_c, 10, 71, 80
11, 63816, Note_on_c, 10, 71, 0
11, 63900, Note_on_c, 10, 71, 85
11, 63948, Note_on_c, 10, 71, 0
11, 63960, Note_on_c, 10, 71, 86
11, 64008, Note_on_c, 10, 71, 0
11, 64020, Note_on_c, 10, 72, 88
11, 64068, Note_on_c, 10, 72, 0
11, 64080, Note_on_c, 10, 74, 90
11, 64176, Note_on_c, 10, 74, 0
11, 64260, Note_on_c, 10, 74, 95
11, 64308, Note_on_c, 10, 74, 0
11, 64320, Note_on_c, 10, 75, 96
11, 64368, Note_on_c, 10, 75, 0
11, 64380, Note_on_c, 10, 77, 98
11, 64428, Note_on_c, 10, 77, 0
11, 64440, Note_on_c, 10, 77, 100
11, 64536, Note_on_c, 10, 77, 0
11, 64620, Note_on_c, 10, 74, 105
11, 64668, Note_on_c, 10, 74, 0
11, 64680, Note_on_c, 10, 75, 106
11, 64728, Note_on_c, 10, 75, 0
11, 64740, Note_on_c, 10, 77, 108
11, 64788, Note_on_c, 10, 77, 0
11, 64800, Note_on_c, 10, 77, 50
11, 64848, Note_on_c, 10, 77, 0
11, 64860, Note_on_c, 10, 65, 50
11, 64920, Note_on_c, 10, 65, 0
11, 64920, Note_on_c, 10, 67, 50
11, 64980, Note_on_c, 10, 67, 0
11, 64980, Note_on_c, 10, 65, 50
11, 65040, Note_on_c, 10, 65, 0
11, 65040, Note_on_c, 10, 63, 50
11, 65100, Note_on_c, 10, 63, 0
11, 65100, Note_on_c, 10, 62, 50
11, 65148, Note_on_c, 10, 62, 0
11, 65220, Note_on_c, 10, 65, 50
11, 65280, Note_on_c, 10, 65, 0
11, 65280, Note_on_c, 10, 67, 50
11, 65340, Note_on_c, 10, 67, 0
11, 65340, Note_on_c, 10, 65, 50
11, 65400, Note_on_c, 10, 65, 0
11, 65400, Note_on_c, 10, 63, 50
11, 65460, Note_on_c, 10, 63, 0
11, 65460, Note_on_c, 10, 62, 50
11, 65508, Note_on_c, 10, 62, 0
11, 65580, Note_on_c, 10, 65, 50
11, 65640, Note_on_c, 10, 65, 0
11, 65640, Note_on_c, 10, 67, 50
11, 65700, Note_on_c, 10, 67, 0
11, 65700, Note_on_c, 10, 65, 50
11, 65760, Note_on_c, 10, 65, 0
11, 65760, Note_on_c, 10, 63, 50
11, 65820, Note_on_c, 10, 63, 0
11, 65820, Note_on_c, 10, 62, 50
11, 65880, Note_on_c, 10, 62, 0
11, 65880, Note_on_c, 10, 67, 50
11, 65940, Note_on_c, 10, 67, 0
11, 65940, Note_on_c, 10, 65, 50
11, 66000, Note_on_c, 10, 65, 0
11, 66000, Note_on_c, 10, 63, 50
11, 66060, Note_on_c, 10, 63, 0
11, 66060, Note_on_c, 10, 62, 50
11, 66120, Note_on_c, 10, 62, 0
11, 66120, Note_on_c, 10, 67, 50
11, 66216, Note_on_c, 10, 67, 0
11, 66300, Note_on_c, 10, 70, 50
11, 66360, Note_on_c, 10, 70, 0
11, 66360, Note_on_c, 10, 72, 50
11, 66420, Note_on_c, 10, 72, 0
11, 66420, Note_on_c, 10, 70, 50
11, 66480, Note_on_c, 10, 70, 0
11, 66480, Note_on_c, 10, 68, 50
11, 66540, Note_on_c, 10, 68, 0
11, 66540, Note_on_c, 10, 67, 50
11, 66588, Note_on_c, 10, 67, 0
11, 66660, Note_on_c, 10, 70, 50
11, 66720, Note_on_c, 10, 70, 0
11, 66720, Note_on_c, 10, 72, 50
11, 66780, Note_on_c, 10, 72, 0
11, 66780, Note_on_c, 10, 70, 50
11, 66840, Note_on_c, 10, 70, 0
11, 66840, Note_on_c, 10, 68, 50
11, 66900, Note_on_c, 10, 68, 0
11, 66900, Note_on_c, 10, 67, 50
11, 66948, Note_on_c, 10, 67, 0
11, 67020, Note_on_c, 10, 70, 50
11, 67080, Note_on_c, 10, 70, 0
11, 67080, Note_on_c, 10, 72, 50
11, 67140, Note_on_c, 10, 72, 0
11, 67140, Note_on_c, 10, 70, 50
11, 67200, Note_on_c, 10, 70, 0
11, 67200, Note_on_c, 10, 68, 50
11, 67260, Note_on_c, 10, 68, 0
11, 67260, Note_on_c, 10, 67, 50
11, 67308, Note_on_c, 10, 67, 0
11, 67320, Note_on_c, 10, 72, 50
11, 67380, Note_on_c, 10, 72, 0
11, 67380, Note_on_c, 10, 70, 50
11, 67440, Note_on_c, 10, 70, 0
11, 67440, Note_on_c, 10, 68, 50
11, 67500, Note_on_c, 10, 68, 0
11, 67500, Note_on_c, 10, 67, 50
11, 67560, Note_on_c, 10, 67, 0
11, 67560, Note_on_c, 10, 72, 50
11, 67620, Note_on_c, 10, 72, 0
11, 67620, Note_on_c, 10, 70, 52
11, 67668, Note_on_c, 10, 70, 0
11, 67680, Note_on_c, 10, 68, 55
11, 67740, Note_on_c, 10, 68, 0
11, 67740, Note_on_c, 10, 67, 57
11, 67800, Note_on_c, 10, 67, 0
11, 67800, Note_on_c, 10, 72, 60
11, 67860, Note_on_c, 10, 72, 0
11, 67860, Note_on_c, 10, 70, 62
11, 67920, Note_on_c, 10, 70, 0
11, 67920, Note_on_c, 10, 68, 65
11, 67980, Note_on_c, 10, 68, 0
11, 67980, Note_on_c, 10, 67, 67
11, 68028, Note_on_c, 10, 67, 0
11, 68040, Note_on_c, 10, 72, 70
11, 68100, Note_on_c, 10, 72, 0
11, 68100, Note_on_c, 10, 70, 72
11, 68160, Note_on_c, 10, 70, 0
11, 68160, Note_on_c, 10, 68, 75
11, 68220, Note_on_c, 10, 68, 0
11, 68220, Note_on_c, 10, 67, 77
11, 68268, Note_on_c, 10, 67, 0
11, 68280, Note_on_c, 10, 72, 80
11, 69216, Note_on_c, 10, 72, 0
11, 69240, Note_on_c, 10, 72, 64
11, 69360, Note_on_c, 10, 72, 0
11, 69360, Note_on_c, 10, 77, 64
11, 69600, Note_on_c, 10, 77, 0
11, 69600, Note_on_c, 10, 76, 64
11, 69696, Note_on_c, 10, 76, 0
11, 69720, Note_on_c, 10, 72, 56
11, 70656, Note_on_c, 10, 72, 0
11, 70680, Note_on_c, 10, 72, 64
11, 70800, Note_on_c, 10, 72, 0
11, 70800, Note_on_c, 10, 76, 64
11, 70920, Note_on_c, 10, 76, 0
11, 70920, Note_on_c, 10, 79, 64
11, 71040, Note_on_c, 10, 79, 0
11, 71040, Note_on_c, 10, 77, 64
11, 71136, Note_on_c, 10, 77, 0
11, 71160, Note_on_c, 10, 77, 64
11, 71280, Note_on_c, 10, 77, 0
11, 71280, Note_on_c, 10, 75, 64
11, 71520, Note_on_c, 10, 75, 0
11, 71520, Note_on_c, 10, 73, 64
11, 71640, Note_on_c, 10, 73, 0
11, 71640, Note_on_c, 10, 72, 64
11, 71736, Note_on_c, 10, 72, 0
11, 71880, Note_on_c, 10, 77, 64
11, 72144, Note_on_c, 10, 77, 0
11, 72180, Note_on_c, 10, 77, 64
11, 72228, Note_on_c, 10, 77, 0
11, 72240, Note_on_c, 10, 77, 64
11, 72288, Note_on_c, 10, 77, 0
11, 72300, Note_on_c, 10, 79, 64
11, 72348, Note_on_c, 10, 79, 0
11, 72360, Note_on_c, 10, 80, 64
11, 72480, Note_on_c, 10, 80, 0
11, 72480, Note_on_c, 10, 77, 64
11, 72576, Note_on_c, 10, 77, 0
11, 72600, Note_on_c, 10, 77, 72
11, 72720, Note_on_c, 10, 77, 0
11, 72720, Note_on_c, 10, 75, 72
11, 72960, Note_on_c, 10, 75, 0
11, 72960, Note_on_c, 10, 73, 72
11, 73080, Note_on_c, 10, 73, 0
11, 73080, Note_on_c, 10, 72, 72
11, 73176, Note_on_c, 10, 72, 0
11, 73260, Note_on_c, 10, 77, 64
11, 73308, Note_on_c, 10, 77, 0
11, 73320, Note_on_c, 10, 77, 64
11, 73368, Note_on_c, 10, 77, 0
11, 73380, Note_on_c, 10, 76, 64
11, 73428, Note_on_c, 10, 76, 0
11, 73440, Note_on_c, 10, 76, 50
11, 73536, Note_on_c, 10, 76, 0
11, 73620, Note_on_c, 10, 79, 52
11, 73668, Note_on_c, 10, 79, 0
11, 73680, Note_on_c, 10, 79, 53
11, 73728, Note_on_c, 10, 79, 0
11, 73740, Note_on_c, 10, 77, 54
11, 73788, Note_on_c, 10, 77, 0
11, 73800, Note_on_c, 10, 77, 54
11, 73896, Note_on_c, 10, 77, 0
11, 73980, Note_on_c, 10, 80, 57
11, 74028, Note_on_c, 10, 80, 0
11, 74040, Note_on_c, 10, 80, 58
11, 74088, Note_on_c, 10, 80, 0
11, 74100, Note_on_c, 10, 79, 59
11, 74148, Note_on_c, 10, 79, 0
11, 74160, Note_on_c, 10, 79, 59
11, 74256, Note_on_c, 10, 79, 0
11, 74340, Note_on_c, 10, 82, 62
11, 74388, Note_on_c, 10, 82, 0
11, 74400, Note_on_c, 10, 82, 63
11, 74448, Note_on_c, 10, 82, 0
11, 74460, Note_on_c, 10, 80, 64
11, 74508, Note_on_c, 10, 80, 0
11, 74520, Note_on_c, 10, 80, 64
11, 74616, Note_on_c, 10, 80, 0
11, 74700, Note_on_c, 10, 84, 67
11, 74748, Note_on_c, 10, 84, 0
11, 74760, Note_on_c, 10, 84, 68
11, 74808, Note_on_c, 10, 84, 0
11, 74820, Note_on_c, 10, 82, 68
11, 74868, Note_on_c, 10, 82, 0
11, 74880, Note_on_c, 10, 82, 69
11, 74976, Note_on_c, 10, 82, 0
11, 75060, Note_on_c, 10, 82, 72
11, 75108, Note_on_c, 10, 82, 0
11, 75120, Note_on_c, 10, 84, 73
11, 75168, Note_on_c, 10, 84, 0
11, 75180, Note_on_c, 10, 85, 73
11, 75228, Note_on_c, 10, 85, 0
11, 75240, Note_on_c, 10, 85, 74
11, 75336, Note_on_c, 10, 85, 0
11, 75420, Note_on_c, 10, 79, 77
11, 75468, Note_on_c, 10, 79, 0
11, 75480, Note_on_c, 10, 80, 78
11, 75528, Note_on_c, 10, 80, 0
11, 75540, Note_on_c, 10, 82, 78
11, 75588, Note_on_c, 10, 82, 0
11, 75600, Note_on_c, 10, 82, 79
11, 75696, Note_on_c, 10, 82, 0
11, 75780, Note_on_c, 10, 76, 82
11, 75828, Note_on_c, 10, 76, 0
11, 75840, Note_on_c, 10, 77, 82
11, 75888, Note_on_c, 10, 77, 0
11, 75900, Note_on_c, 10, 79, 83
11, 75948, Note_on_c, 10, 79, 0
11, 75960, Note_on_c, 10, 79, 84
11, 76056, Note_on_c, 10, 79, 0
11, 76140, Note_on_c, 10, 79, 87
11, 76188, Note_on_c, 10, 79, 0
11, 76200, Note_on_c, 10, 80, 87
11, 76248, Note_on_c, 10, 80, 0
11, 76260, Note_on_c, 10, 82, 88
11, 76308, Note_on_c, 10, 82, 0
11, 76320, Note_on_c, 10, 82, 89
11, 76416, Note_on_c, 10, 82, 0
11, 76500, Note_on_c, 10, 82, 92
11, 76548, Note_on_c, 10, 82, 0
11, 76560, Note_on_c, 10, 84, 92
11, 76608, Note_on_c, 10, 84, 0
11, 76620, Note_on_c, 10, 85, 93
11, 76668, Note_on_c, 10, 85, 0
11, 76680, Note_on_c, 10, 85, 94
11, 76776, Note_on_c, 10, 85, 0
11, 76860, Note_on_c, 10, 79, 96
11, 76908, Note_on_c, 10, 79, 0
11, 76920, Note_on_c, 10, 80, 97
11, 76968, Note_on_c, 10, 80, 0
11, 76980, Note_on_c, 10, 82, 98
11, 77028, Note_on_c, 10, 82, 0
11, 77040, Note_on_c, 10, 82, 99
11, 77136, Note_on_c, 10, 82, 0
11, 77220, Note_on_c, 10, 76, 101
11, 77268, Note_on_c, 10, 76, 0
11, 77280, Note_on_c, 10, 77, 102
11, 77328, Note_on_c, 10, 77, 0
11, 77340, Note_on_c, 10, 79, 103
11, 77388, Note_on_c, 10, 79, 0
11, 77400, Note_on_c, 10, 79, 104
11, 77496, Note_on_c, 10, 79, 0
11, 77580, Note_on_c, 10, 79, 106
11, 77628, Note_on_c, 10, 79, 0
11, 77640, Note_on_c, 10, 80, 107
11, 77688, Note_on_c, 10, 80, 0
11, 77700, Note_on_c, 10, 82, 108
11, 77748, Note_on_c, 10, 82, 0
11, 77760, Note_on_c, 10, 82, 109
11, 77856, Note_on_c, 10, 82, 0
11, 77940, Note_on_c, 10, 82, 111
11, 77988, Note_on_c, 10, 82, 0
11, 78000, Note_on_c, 10, 84, 112
11, 78048, Note_on_c, 10, 84, 0
11, 78060, Note_on_c, 10, 85, 113
11, 78108, Note_on_c, 10, 85, 0
11, 78120, Note_on_c, 10, 85, 114
11, 78216, Note_on_c, 10, 85, 0
11, 78300, Note_on_c, 10, 82, 116
11, 78348, Note_on_c, 10, 82, 0
11, 78360, Note_on_c, 10, 84, 117
11, 78408, Note_on_c, 10, 84, 0
11, 78420, Note_on_c, 10, 85, 118
11, 78468, Note_on_c, 10, 85, 0
11, 78480, Note_on_c, 10, 85, 119
11, 78576, Note_on_c, 10, 85, 0
11, 78660, Note_on_c, 10, 82, 121
11, 78708, Note_on_c, 10, 82, 0
11, 78720, Note_on_c, 10, 84, 122
11, 78768, Note_on_c, 10, 84, 0
11, 78780, Note_on_c, 10, 85, 123
11, 78828, Note_on_c, 10, 85, 0
11, 78840, Note_on_c, 10, 85, 124
11, 78936, Note_on_c, 10, 85, 0
11, 79080, Note_on_c, 10, 84, 127
11, 79200, Note_on_c, 10, 84, 0
11, 79200, Note_on_c, 10, 85, 127
11, 79320, Note_on_c, 10, 85, 0
11, 79320, Note_on_c, 10, 84, 127
11, 79416, Note_on_c, 10, 84, 0
11, 79440, Note_on_c, 10, 80, 127
11, 79536, Note_on_c, 10, 80, 0
11, 79560, Note_on_c, 10, 77, 127
11, 79656, Note_on_c, 10, 77, 0
11, 79680, Note_on_c, 10, 73, 127
11, 79776, Note_on_c, 10, 73, 0
11, 79800, Note_on_c, 10, 72, 127
11, 79896, Note_on_c, 10, 72, 0
11, 79920, Note_on_c, 10, 68, 127
11, 80160, Note_on_c, 10, 68, 0
11, 80160, Note_on_c, 10, 65, 127
11, 80256, Note_on_c, 10, 65, 0
11, 80280, Note_on_c, 10, 64, 127
11, 80376, Note_on_c, 10, 64, 0
11, 80520, Note_on_c, 10, 84, 127
11, 80640, Note_on_c, 10, 84, 0
11, 80640, Note_on_c, 10, 85, 127
11, 80760, Note_on_c, 10, 85, 0
11, 80760, Note_on_c, 10, 84, 127
11, 80856, Note_on_c, 10, 84, 0
11, 80880, Note_on_c, 10, 82, 127
11, 80976, Note_on_c, 10, 82, 0
11, 81000, Note_on_c, 10, 79, 127
11, 81096, Note_on_c, 10, 79, 0
11, 81120, Note_on_c, 10, 76, 127
11, 81216, Note_on_c, 10, 76, 0
11, 81240, Note_on_c, 10, 73, 127
11, 81336, Note_on_c, 10, 73, 0
11, 81360, Note_on_c, 10, 72, 127
11, 81600, Note_on_c, 10, 72, 0
11, 81600, Note_on_c, 10, 70, 127
11, 81660, Note_on_c, 10, 70, 0
11, 81660, Note_on_c, 10, 67, 127
11, 81708, Note_on_c, 10, 67, 0
11, 81720, Note_on_c, 10, 65, 127
11, 81816, Note_on_c, 10, 65, 0
11, 81960, Note_on_c, 10, 77, 127
11, 82080, Note_on_c, 10, 77, 0
11, 82080, Note_on_c, 10, 75, 127
11, 82320, Note_on_c, 10, 75, 0
11, 82320, Note_on_c, 10, 73, 127
11, 82440, Note_on_c, 10, 73, 0
11, 82440, Note_on_c, 10, 72, 127
11, 82536, Note_on_c, 10, 72, 0
11, 82680, Note_on_c, 10, 65, 127
11, 82944, Note_on_c, 10, 65, 0
11, 82980, Note_on_c, 10, 65, 127
11, 83028, Note_on_c, 10, 65, 0
11, 83040, Note_on_c, 10, 65, 127
11, 83088, Note_on_c, 10, 65, 0
11, 83100, Note_on_c, 10, 67, 127
11, 83148, Note_on_c, 10, 67, 0
11, 83160, Note_on_c, 10, 67, 127
11, 83280, Note_on_c, 10, 67, 0
11, 83280, Note_on_c, 10, 65, 127
11, 83376, Note_on_c, 10, 65, 0
11, 83400, Note_on_c, 10, 77, 127
11, 83520, Note_on_c, 10, 77, 0
11, 83520, Note_on_c, 10, 75, 127
11, 83760, Note_on_c, 10, 75, 0
11, 83760, Note_on_c, 10, 73, 127
11, 83880, Note_on_c, 10, 73, 0
11, 83880, Note_on_c, 10, 72, 127
11, 83976, Note_on_c, 10, 72, 0
11, 84240, Note_on_c, 10, 73, 127
11, 84336, Note_on_c, 10, 73, 0
11, 84420, Note_on_c, 10, 73, 127
11, 84468, Note_on_c, 10, 73, 0
11, 84480, Note_on_c, 10, 75, 127
11, 84528, Note_on_c, 10, 75, 0
11, 84540, Note_on_c, 10, 77, 127
11, 84588, Note_on_c, 10, 77, 0
11, 84600, Note_on_c, 10, 78, 127
11, 84696, Note_on_c, 10, 78, 0
11, 84780, Note_on_c, 10, 75, 127
11, 84828, Note_on_c, 10, 75, 0
11, 84840, Note_on_c, 10, 77, 127
11, 84888, Note_on_c, 10, 77, 0
11, 84900, Note_on_c, 10, 78, 127
11, 84948, Note_on_c, 10, 78, 0
11, 84960, Note_on_c, 10, 80, 127
11, 85056, Note_on_c, 10, 80, 0
11, 85140, Note_on_c, 10, 77, 127
11, 85188, Note_on_c, 10, 77, 0
11, 85200, Note_on_c, 10, 78, 127
11, 85248, Note_on_c, 10, 78, 0
11, 85260, Note_on_c, 10, 80, 127
11, 85308, Note_on_c, 10, 80, 0
11, 85320, Note_on_c, 10, 82, 127
11, 85416, Note_on_c, 10, 82, 0
11, 85440, Note_on_c, 10, 82, 127
11, 85536, Note_on_c, 10, 82, 0
11, 85560, Note_on_c, 10, 84, 127
11, 85656, Note_on_c, 10, 84, 0
11, 85680, Note_on_c, 10, 85, 127
11, 85776, Note_on_c, 10, 85, 0
11, 85860, Note_on_c, 10, 73, 102
11, 85908, Note_on_c, 10, 73, 0
11, 85920, Note_on_c, 10, 75, 103
11, 85968, Note_on_c, 10, 75, 0
11, 85980, Note_on_c, 10, 77, 104
11, 86028, Note_on_c, 10, 77, 0
11, 86040, Note_on_c, 10, 78, 105
11, 86136, Note_on_c, 10, 78, 0
11, 86220, Note_on_c, 10, 75, 109
11, 86268, Note_on_c, 10, 75, 0
11, 86280, Note_on_c, 10, 77, 110
11, 86328, Note_on_c, 10, 77, 0
11, 86340, Note_on_c, 10, 78, 111
11, 86388, Note_on_c, 10, 78, 0
11, 86400, Note_on_c, 10, 80, 112
11, 86496, Note_on_c, 10, 80, 0
11, 86580, Note_on_c, 10, 77, 116
11, 86628, Note_on_c, 10, 77, 0
11, 86640, Note_on_c, 10, 78, 117
11, 86688, Note_on_c, 10, 78, 0
11, 86700, Note_on_c, 10, 80, 118
11, 86748, Note_on_c, 10, 80, 0
11, 86760, Note_on_c, 10, 82, 119
11, 86856, Note_on_c, 10, 82, 0
11, 86880, Note_on_c, 10, 82, 122
11, 86976, Note_on_c, 10, 82, 0
11, 87000, Note_on_c, 10, 84, 124
11, 87096, Note_on_c, 10, 84, 0
11, 87120, Note_on_c, 10, 85, 127
11, 87168, Note_on_c, 10, 85, 0
11, 87180, Note_on_c, 10, 63, 102
11, 87228, Note_on_c, 10, 63, 0
11, 87240, Note_on_c, 10, 67, 104
11, 87288, Note_on_c, 10, 67, 0
11, 87300, Note_on_c, 10, 68, 106
11, 87348, Note_on_c, 10, 68, 0
11, 87360, Note_on_c, 10, 70, 109
11, 87408, Note_on_c, 10, 70, 0
11, 87420, Note_on_c, 10, 72, 111
11, 87468, Note_on_c, 10, 72, 0
11, 87480, Note_on_c, 10, 73, 113
11, 87528, Note_on_c, 10, 73, 0
11, 87540, Note_on_c, 10, 72, 115
11, 87588, Note_on_c, 10, 72, 0
11, 87600, Note_on_c, 10, 73, 118
11, 87648, Note_on_c, 10, 73, 0
11, 87660, Note_on_c, 10, 75, 120
11, 87708, Note_on_c, 10, 75, 0
11, 87720, Note_on_c, 10, 77, 122
11, 87768, Note_on_c, 10, 77, 0
11, 87780, Note_on_c, 10, 79, 124
11, 87828, Note_on_c, 10, 79, 0
11, 87840, Note_on_c, 10, 80, 127
11, 88080, Note_on_c, 10, 80, 0
11, 88080, Note_on_c, 10, 75, 124
11, 88140, Note_on_c, 10, 75, 0
11, 88140, Note_on_c, 10, 72, 123
11, 88188, Note_on_c, 10, 72, 0
11, 88200, Note_on_c, 10, 77, 122
11, 88440, Note_on_c, 10, 77, 0
11, 88440, Note_on_c, 10, 73, 119
11, 88500, Note_on_c, 10, 73, 0
11, 88500, Note_on_c, 10, 68, 118
11, 88548, Note_on_c, 10, 68, 0
11, 88560, Note_on_c, 10, 73, 117
11, 88800, Note_on_c, 10, 73, 0
11, 88800, Note_on_c, 10, 70, 114
11, 88860, Note_on_c, 10, 70, 0
11, 88860, Note_on_c, 10, 67, 113
11, 88908, Note_on_c, 10, 67, 0
11, 88920, Note_on_c, 10, 68, 112
11, 89160, Note_on_c, 10, 68, 0
11, 89160, Note_on_c, 10, 63, 109
11, 89220, Note_on_c, 10, 63, 0
11, 89220, Note_on_c, 10, 60, 108
11, 89268, Note_on_c, 10, 60, 0
11, 89280, Note_on_c, 10, 66, 107
11, 89520, Note_on_c, 10, 66, 0
11, 89520, Note_on_c, 10, 63, 104
11, 89580, Note_on_c, 10, 63, 0
11, 89580, Note_on_c, 10, 60, 103
11, 89628, Note_on_c, 10, 60, 0
11, 89640, Note_on_c, 10, 65, 102
11, 89880, Note_on_c, 10, 65, 0
11, 89880, Note_on_c, 10, 61, 99
11, 89940, Note_on_c, 10, 61, 0
11, 89940, Note_on_c, 10, 56, 98
11, 89988, Note_on_c, 10, 56, 0
11, 90000, Note_on_c, 10, 61, 97
11, 90240, Note_on_c, 10, 61, 0
11, 90240, Note_on_c, 10, 58, 94
11, 90300, Note_on_c, 10, 58, 0
11, 90300, Note_on_c, 10, 55, 93
11, 90348, Note_on_c, 10, 55, 0
11, 90360, Note_on_c, 10, 56, 92
11, 90456, Note_on_c, 10, 56, 0
11, 90720, Note_on_c, 10, 68, 112
11, 90816, Note_on_c, 10, 68, 0
11, 90840, Note_on_c, 10, 68, 112
11, 90936, Note_on_c, 10, 68, 0
11, 91020, Note_on_c, 10, 68, 112
11, 91068, Note_on_c, 10, 68, 0
11, 91080, Note_on_c, 10, 70, 112
11, 91176, Note_on_c, 10, 70, 0
11, 91200, Note_on_c, 10, 70, 112
11, 91296, Note_on_c, 10, 70, 0
11, 92160, Note_on_c, 10, 68, 112
11, 92256, Note_on_c, 10, 68, 0
11, 92280, Note_on_c, 10, 68, 112
11, 92376, Note_on_c, 10, 68, 0
11, 92460, Note_on_c, 10, 68, 112
11, 92508, Note_on_c, 10, 68, 0
11, 92520, Note_on_c, 10, 70, 112
11, 92616, Note_on_c, 10, 70, 0
11, 92640, Note_on_c, 10, 70, 112
11, 92736, Note_on_c, 10, 70, 0
11, 93600, Note_on_c, 10, 68, 112
11, 93696, Note_on_c, 10, 68, 0
11, 93720, Note_on_c, 10, 68, 112
11, 93816, Note_on_c, 10, 68, 0
11, 93900, Note_on_c, 10, 68, 112
11, 93948, Note_on_c, 10, 68, 0
11, 93960, Note_on_c, 10, 69, 112
11, 94056, Note_on_c, 10, 69, 0
11, 94080, Note_on_c, 10, 69, 112
11, 94176, Note_on_c, 10, 69, 0
11, 96480, Note_on_c, 10, 82, 67
11, 96512, Note_on_c, 10, 82, 0
11, 96520, Note_on_c, 10, 82, 67
11, 96552, Note_on_c, 10, 82, 0
11, 96560, Note_on_c, 10, 82, 67
11, 96592, Note_on_c, 10, 82, 0
11, 96600, Note_on_c, 10, 82, 68
11, 96632, Note_on_c, 10, 82, 0
11, 96640, Note_on_c, 10, 82, 68
11, 96672, Note_on_c, 10, 82, 0
11, 96680, Note_on_c, 10, 82, 68
11, 96712, Note_on_c, 10, 82, 0
11, 96720, Note_on_c, 10, 82, 69
11, 96752, Note_on_c, 10, 82, 0
11, 96760, Note_on_c, 10, 82, 69
11, 96792, Note_on_c, 10, 82, 0
11, 96800, Note_on_c, 10, 82, 69
11, 96832, Note_on_c, 10, 82, 0
11, 96840, Note_on_c, 10, 84, 100
11, 96872, Note_on_c, 10, 84, 0
11, 96880, Note_on_c, 10, 84, 103
11, 96912, Note_on_c, 10, 84, 0
11, 96920, Note_on_c, 10, 84, 106
11, 96952, Note_on_c, 10, 84, 0
11, 96960, Note_on_c, 10, 84, 109
11, 96992, Note_on_c, 10, 84, 0
11, 97000, Note_on_c, 10, 84, 112
11, 97032, Note_on_c, 10, 84, 0
11, 97040, Note_on_c, 10, 84, 115
11, 97072, Note_on_c, 10, 84, 0
11, 97080, Note_on_c, 10, 84, 118
11, 97112, Note_on_c, 10, 84, 0
11, 97120, Note_on_c, 10, 84, 121
11, 97152, Note_on_c, 10, 84, 0
11, 97160, Note_on_c, 10, 84, 124
11, 97192, Note_on_c, 10, 84, 0
11, 97200, Note_on_c, 10, 85, 127
11, 97232, Note_on_c, 10, 85, 0
11, 97240, Note_on_c, 10, 85, 127
11, 97272, Note_on_c, 10, 85, 0
11, 97280, Note_on_c, 10, 85, 127
11, 97312, Note_on_c, 10, 85, 0
11, 97320, Note_on_c, 10, 85, 127
11, 97352, Note_on_c, 10, 85, 0
11, 97360, Note_on_c, 10, 85, 127
11, 97392, Note_on_c, 10, 85, 0
11, 97400, Note_on_c, 10, 85, 127
11, 97432, Note_on_c, 10, 85, 0
11, 97440, Note_on_c, 10, 85, 127
11, 97472, Note_on_c, 10, 85, 0
11, 97480, Note_on_c, 10, 85, 127
11, 97512, Note_on_c, 10, 85, 0
11, 97520, Note_on_c, 10, 85, 127
11, 97552, Note_on_c, 10, 85, 0
11, 97560, Note_on_c, 10, 85, 127
11, 97592, Note_on_c, 10, 85, 0
11, 97600, Note_on_c, 10, 85, 127
11, 97632, Note_on_c, 10, 85, 0
11, 97640, Note_on_c, 10, 85, 127
11, 97672, Note_on_c, 10, 85, 0
11, 97680, Note_on_c, 10, 82, 127
11, 97712, Note_on_c, 10, 82, 0
11, 97720, Note_on_c, 10, 82, 127
11, 97752, Note_on_c, 10, 82, 0
11, 97760, Note_on_c, 10, 82, 127
11, 97792, Note_on_c, 10, 82, 0
11, 97800, Note_on_c, 10, 82, 127
11, 97832, Note_on_c, 10, 82, 0
11, 97840, Note_on_c, 10, 82, 127
11, 97872, Note_on_c, 10, 82, 0
11, 97880, Note_on_c, 10, 82, 127
11, 97912, Note_on_c, 10, 82, 0
11, 97920, Note_on_c, 10, 82, 127
11, 97952, Note_on_c, 10, 82, 0
11, 97960, Note_on_c, 10, 82, 127
11, 97992, Note_on_c, 10, 82, 0
11, 98000, Note_on_c, 10, 82, 127
11, 98032, Note_on_c, 10, 82, 0
11, 98040, Note_on_c, 10, 78, 127
11, 98072, Note_on_c, 10, 78, 0
11, 98080, Note_on_c, 10, 78, 127
11, 98112, Note_on_c, 10, 78, 0
11, 98120, Note_on_c, 10, 78, 127
11, 98152, Note_on_c, 10, 78, 0
11, 98160, Note_on_c, 10, 78, 127
11, 98192, Note_on_c, 10, 78, 0
11, 98200, Note_on_c, 10, 78, 127
11, 98232, Note_on_c, 10, 78, 0
11, 98240, Note_on_c, 10, 78, 127
11, 98272, Note_on_c, 10, 78, 0
11, 98280, Note_on_c, 10, 78, 127
11, 98312, Note_on_c, 10, 78, 0
11, 98320, Note_on_c, 10, 78, 127
11, 98352, Note_on_c, 10, 78, 0
11, 98360, Note_on_c, 10, 78, 127
11, 98392, Note_on_c, 10, 78, 0
11, 98400, Note_on_c, 10, 75, 127
11, 98432, Note_on_c, 10, 75, 0
11, 98440, Note_on_c, 10, 75, 127
11, 98472, Note_on_c, 10, 75, 0
11, 98480, Note_on_c, 10, 75, 127
11, 98512, Note_on_c, 10, 75, 0
11, 98520, Note_on_c, 10, 72, 127
11, 98552, Note_on_c, 10, 72, 0
11, 98560, Note_on_c, 10, 72, 127
11, 98592, Note_on_c, 10, 72, 0
11, 98600, Note_on_c, 10, 72, 127
11, 98632, Note_on_c, 10, 72, 0
11, 98640, Note_on_c, 10, 73, 127
11, 98736, Note_on_c, 10, 73, 0
11, 98820, Note_on_c, 10, 61, 127
11, 98868, Note_on_c, 10, 61, 0
11, 98880, Note_on_c, 10, 63, 127
11, 98928, Note_on_c, 10, 63, 0
11, 98940, Note_on_c, 10, 65, 127
11, 98988, Note_on_c, 10, 65, 0
11, 99000, Note_on_c, 10, 66, 127
11, 99048, Note_on_c, 10, 66, 0
11, 99060, Note_on_c, 10, 68, 127
11, 99108, Note_on_c, 10, 68, 0
11, 99120, Note_on_c, 10, 70, 127
11, 99168, Note_on_c, 10, 70, 0
11, 99180, Note_on_c, 10, 72, 127
11, 99228, Note_on_c, 10, 72, 0
11, 99240, Note_on_c, 10, 73, 127
11, 99288, Note_on_c, 10, 73, 0
11, 99300, Note_on_c, 10, 75, 127
11, 99348, Note_on_c, 10, 75, 0
11, 99360, Note_on_c, 10, 77, 127
11, 99456, Note_on_c, 10, 77, 0
11, 99540, Note_on_c, 10, 65, 127
11, 99588, Note_on_c, 10, 65, 0
11, 99600, Note_on_c, 10, 66, 127
11, 99648, Note_on_c, 10, 66, 0
11, 99660, Note_on_c, 10, 68, 127
11, 99708, Note_on_c, 10, 68, 0
11, 99720, Note_on_c, 10, 70, 127
11, 99768, Note_on_c, 10, 70, 0
11, 99780, Note_on_c, 10, 72, 127
11, 99828, Note_on_c, 10, 72, 0
11, 99840, Note_on_c, 10, 73, 127
11, 99888, Note_on_c, 10, 73, 0
11, 99900, Note_on_c, 10, 75, 127
11, 99948, Note_on_c, 10, 75, 0
11, 99960, Note_on_c, 10, 77, 127
11, 100008, Note_on_c, 10, 77, 0
11, 100020, Note_on_c, 10, 78, 127
11, 100068, Note_on_c, 10, 78, 0
11, 100080, Note_on_c, 10, 80, 127
11, 100176, Note_on_c, 10, 80, 0
11, 100260, Note_on_c, 10, 65, 127
11, 100308, Note_on_c, 10, 65, 0
11, 100320, Note_on_c, 10, 66, 127
11, 100368, Note_on_c, 10, 66, 0
11, 100380, Note_on_c, 10, 68, 127
11, 100428, Note_on_c, 10, 68, 0
11, 100440, Note_on_c, 10, 70, 127
11, 100488, Note_on_c, 10, 70, 0
11, 100500, Note_on_c, 10, 72, 127
11, 100548, Note_on_c, 10, 72, 0
11, 100560, Note_on_c, 10, 73, 127
11, 100608, Note_on_c, 10, 73, 0
11, 100620, Note_on_c, 10, 75, 127
11, 100668, Note_on_c, 10, 75, 0
11, 100680, Note_on_c, 10, 77, 127
11, 100728, Note_on_c, 10, 77, 0
11, 100740, Note_on_c, 10, 78, 127
11, 100788, Note_on_c, 10, 78, 0
11, 100800, Note_on_c, 10, 80, 127
11, 100992, Note_on_c, 10, 80, 0
11, 101040, Note_on_c, 10, 72, 127
11, 101136, Note_on_c, 10, 72, 0
11, 101160, Note_on_c, 10, 80, 127
11, 101352, Note_on_c, 10, 80, 0
11, 101400, Note_on_c, 10, 72, 127
11, 101496, Note_on_c, 10, 72, 0
11, 101520, Note_on_c, 10, 80, 127
11, 101712, Note_on_c, 10, 80, 0
11, 101760, Note_on_c, 10, 73, 127
11, 101856, Note_on_c, 10, 73, 0
11, 101880, Note_on_c, 10, 80, 127
11, 102072, Note_on_c, 10, 80, 0
11, 102120, Note_on_c, 10, 72, 127
11, 102216, Note_on_c, 10, 72, 0
11, 102240, Note_on_c, 10, 80, 127
11, 102432, Note_on_c, 10, 80, 0
11, 102480, Note_on_c, 10, 73, 127
11, 102576, Note_on_c, 10, 73, 0
11, 102600, Note_on_c, 10, 80, 127
11, 102792, Note_on_c, 10, 80, 0
11, 102840, Note_on_c, 10, 72, 127
11, 102936, Note_on_c, 10, 72, 0
11, 102960, Note_on_c, 10, 56, 127
11, 102960, Note_on_c, 10, 65, 127
11, 102960, Note_on_c, 10, 73, 127
11, 103056, Note_on_c, 10, 73, 0
11, 103056, Note_on_c, 10, 65, 0
11, 103056, Note_on_c, 10, 56, 0
11, 104400, Note_on_c, 10, 80, 50
11, 104640, Note_on_c, 10, 80, 0
11, 104640, Note_on_c, 10, 77, 50
11, 104736, Note_on_c, 10, 77, 0
11, 104760, Note_on_c, 10, 80, 50
11, 105000, Note_on_c, 10, 80, 0
11, 105000, Note_on_c, 10, 77, 50
11, 105096, Note_on_c, 10, 77, 0
11, 105120, Note_on_c, 10, 81, 50
11, 105360, Note_on_c, 10, 81, 0
11, 105360, Note_on_c, 10, 77, 50
11, 105456, Note_on_c, 10, 77, 0
11, 105480, Note_on_c, 10, 84, 50
11, 105720, Note_on_c, 10, 84, 0
11, 105720, Note_on_c, 10, 77, 50
11, 105816, Note_on_c, 10, 77, 0
11, 107280, Note_on_c, 10, 77, 50
11, 107520, Note_on_c, 10, 77, 0
11, 107520, Note_on_c, 10, 73, 50
11, 107616, Note_on_c, 10, 73, 0
11, 107640, Note_on_c, 10, 82, 50
11, 107880, Note_on_c, 10, 82, 0
11, 107880, Note_on_c, 10, 77, 50
11, 107976, Note_on_c, 10, 77, 0
11, 108000, Note_on_c, 10, 82, 50
11, 108240, Note_on_c, 10, 82, 0
11, 108240, Note_on_c, 10, 76, 50
11, 108336, Note_on_c, 10, 76, 0
11, 108360, Note_on_c, 10, 82, 50
11, 108600, Note_on_c, 10, 82, 0
11, 108600, Note_on_c, 10, 79, 50
11, 108696, Note_on_c, 10, 79, 0
11, 108720, Note_on_c, 10, 60, 127
11, 108816, Note_on_c, 10, 60, 0
11, 108840, Note_on_c, 10, 60, 127
11, 108936, Note_on_c, 10, 60, 0
11, 109020, Note_on_c, 10, 60, 127
11, 109068, Note_on_c, 10, 60, 0
11, 109080, Note_on_c, 10, 60, 127
11, 109176, Note_on_c, 10, 60, 0
11, 109200, Note_on_c, 10, 60, 127
11, 109296, Note_on_c, 10, 60, 0
11, 109380, Note_on_c, 10, 60, 127
11, 109428, Note_on_c, 10, 60, 0
11, 109440, Note_on_c, 10, 60, 127
11, 109536, Note_on_c, 10, 60, 0
11, 109560, Note_on_c, 10, 60, 127
11, 109656, Note_on_c, 10, 60, 0
11, 109800, Note_on_c, 10, 84, 127
11, 110040, Note_on_c, 10, 84, 0
11, 110040, Note_on_c, 10, 79, 127
11, 110088, Note_on_c, 10, 79, 0
11, 113400, Note_on_c, 10, 72, 50
11, 113550, Note_on_c, 10, 72, 0
11, 113550, Note_on_c, 10, 71, 50
11, 113580, Note_on_c, 10, 71, 0
11, 113580, Note_on_c, 10, 72, 50
11, 113610, Note_on_c, 10, 72, 0
11, 113610, Note_on_c, 10, 74, 50
11, 113640, Note_on_c, 10, 74, 0
11, 113640, Note_on_c, 10, 76, 50
11, 113688, Note_on_c, 10, 76, 0
11, 113880, Note_on_c, 10, 72, 50
11, 114030, Note_on_c, 10, 72, 0
11, 114030, Note_on_c, 10, 71, 50
11, 114060, Note_on_c, 10, 71, 0
11, 114060, Note_on_c, 10, 72, 50
11, 114090, Note_on_c, 10, 72, 0
11, 114090, Note_on_c, 10, 74, 50
11, 114120, Note_on_c, 10, 74, 0
11, 114120, Note_on_c, 10, 76, 50
11, 114168, Note_on_c, 10, 76, 0
11, 114360, Note_on_c, 10, 74, 50
11, 114510, Note_on_c, 10, 74, 0
11, 114510, Note_on_c, 10, 73, 50
11, 114540, Note_on_c, 10, 73, 0
11, 114540, Note_on_c, 10, 74, 50
11, 114570, Note_on_c, 10, 74, 0
11, 114570, Note_on_c, 10, 76, 50
11, 114600, Note_on_c, 10, 76, 0
11, 114600, Note_on_c, 10, 77, 50
11, 114648, Note_on_c, 10, 77, 0
11, 114840, Note_on_c, 10, 74, 50
11, 114984, Note_on_c, 10, 74, 0
11, 114990, Note_on_c, 10, 73, 50
11, 115014, Note_on_c, 10, 73, 0
11, 115020, Note_on_c, 10, 74, 50
11, 115044, Note_on_c, 10, 74, 0
11, 115050, Note_on_c, 10, 76, 50
11, 115074, Note_on_c, 10, 76, 0
11, 115080, Note_on_c, 10, 77, 50
11, 115128, Note_on_c, 10, 77, 0
11, 115320, Note_on_c, 10, 76, 58
11, 115350, Note_on_c, 10, 76, 0
11, 115350, Note_on_c, 10, 74, 59
11, 115380, Note_on_c, 10, 74, 0
11, 115380, Note_on_c, 10, 76, 60
11, 115410, Note_on_c, 10, 76, 0
11, 115410, Note_on_c, 10, 77, 61
11, 115434, Note_on_c, 10, 77, 0
11, 115440, Note_on_c, 10, 79, 62
11, 115488, Note_on_c, 10, 79, 0
11, 115560, Note_on_c, 10, 76, 67
11, 115590, Note_on_c, 10, 76, 0
11, 115590, Note_on_c, 10, 74, 68
11, 115620, Note_on_c, 10, 74, 0
11, 115620, Note_on_c, 10, 76, 69
11, 115650, Note_on_c, 10, 76, 0
11, 115650, Note_on_c, 10, 77, 70
11, 115674, Note_on_c, 10, 77, 0
11, 115680, Note_on_c, 10, 79, 71
11, 115728, Note_on_c, 10, 79, 0
11, 115800, Note_on_c, 10, 77, 75
11, 115830, Note_on_c, 10, 77, 0
11, 115830, Note_on_c, 10, 76, 76
11, 115860, Note_on_c, 10, 76, 0
11, 115860, Note_on_c, 10, 77, 78
11, 115890, Note_on_c, 10, 77, 0
11, 115890, Note_on_c, 10, 79, 79
11, 115920, Note_on_c, 10, 79, 0
11, 115920, Note_on_c, 10, 81, 80
11, 115968, Note_on_c, 10, 81, 0
11, 116040, Note_on_c, 10, 77, 84
11, 116070, Note_on_c, 10, 77, 0
11, 116070, Note_on_c, 10, 76, 85
11, 116100, Note_on_c, 10, 76, 0
11, 116100, Note_on_c, 10, 77, 86
11, 116130, Note_on_c, 10, 77, 0
11, 116130, Note_on_c, 10, 79, 87
11, 116160, Note_on_c, 10, 79, 0
11, 116160, Note_on_c, 10, 81, 88
11, 116208, Note_on_c, 10, 81, 0
11, 116280, Note_on_c, 10, 79, 93
11, 116310, Note_on_c, 10, 79, 0
11, 116310, Note_on_c, 10, 77, 94
11, 116340, Note_on_c, 10, 77, 0
11, 116340, Note_on_c, 10, 80, 95
11, 116370, Note_on_c, 10, 80, 0
11, 116370, Note_on_c, 10, 81, 96
11, 116400, Note_on_c, 10, 81, 0
11, 116400, Note_on_c, 10, 82, 97
11, 116448, Note_on_c, 10, 82, 0
11, 116520, Note_on_c, 10, 81, 101
11, 116550, Note_on_c, 10, 81, 0
11, 116550, Note_on_c, 10, 80, 102
11, 116580, Note_on_c, 10, 80, 0
11, 116580, Note_on_c, 10, 81, 103
11, 116610, Note_on_c, 10, 81, 0
11, 116610, Note_on_c, 10, 82, 104
11, 116640, Note_on_c, 10, 82, 0
11, 116640, Note_on_c, 10, 84, 106
11, 116688, Note_on_c, 10, 84, 0
11, 116760, Note_on_c, 10, 82, 110
11, 116784, Note_on_c, 10, 82, 0
11, 116790, Note_on_c, 10, 82, 111
11, 116814, Note_on_c, 10, 82, 0
11, 116820, Note_on_c, 10, 81, 112
11, 116844, Note_on_c, 10, 81, 0
11, 116850, Note_on_c, 10, 81, 113
11, 116874, Note_on_c, 10, 81, 0
11, 116880, Note_on_c, 10, 82, 114
11, 116904, Note_on_c, 10, 82, 0
11, 116910, Note_on_c, 10, 82, 115
11, 116934, Note_on_c, 10, 82, 0
11, 116940, Note_on_c, 10, 84, 116
11, 116964, Note_on_c, 10, 84, 0
11, 116970, Note_on_c, 10, 84, 117
11, 116994, Note_on_c, 10, 84, 0
11, 117000, Note_on_c, 10, 86, 118
11, 117024, Note_on_c, 10, 86, 0
11, 117030, Note_on_c, 10, 86, 120
11, 117054, Note_on_c, 10, 86, 0
11, 117060, Note_on_c, 10, 88, 121
11, 117084, Note_on_c, 10, 88, 0
11, 117090, Note_on_c, 10, 88, 122
11, 117114, Note_on_c, 10, 88, 0
11, 117120, Note_on_c, 10, 89, 123
11, 117144, Note_on_c, 10, 89, 0
11, 117150, Note_on_c, 10, 89, 124
11, 117174, Note_on_c, 10, 89, 0
11, 117180, Note_on_c, 10, 91, 125
11, 117204, Note_on_c, 10, 91, 0
11, 117210, Note_on_c, 10, 91, 126
11, 117234, Note_on_c, 10, 91, 0
11, 117240, Note_on_c, 10, 93, 127
11, 117264, Note_on_c, 10, 93, 0
11, 117270, Note_on_c, 10, 93, 127
11, 117294, Note_on_c, 10, 93, 0
11, 117300, Note_on_c, 10, 93, 127
11, 117324, Note_on_c, 10, 93, 0
11, 117330, Note_on_c, 10, 93, 127
11, 117354, Note_on_c, 10, 93, 0
11, 117360, Note_on_c, 10, 93, 127
11, 117384, Note_on_c, 10, 93, 0
11, 117390, Note_on_c, 10, 93, 127
11, 117414, Note_on_c, 10, 93, 0
11, 117420, Note_on_c, 10, 93, 127
11, 117444, Note_on_c, 10, 93, 0
11, 117450, Note_on_c, 10, 93, 127
11, 117474, Note_on_c, 10, 93, 0
11, 117480, Note_on_c, 10, 93, 127
11, 117504, Note_on_c, 10, 93, 0
11, 117510, Note_on_c, 10, 93, 127
11, 117534, Note_on_c, 10, 93, 0
11, 117540, Note_on_c, 10, 91, 127
11, 117564, Note_on_c, 10, 91, 0
11, 117570, Note_on_c, 10, 91, 127
11, 117594, Note_on_c, 10, 91, 0
11, 117600, Note_on_c, 10, 89, 127
11, 117624, Note_on_c, 10, 89, 0
11, 117630, Note_on_c, 10, 89, 127
11, 117654, Note_on_c, 10, 89, 0
11, 117660, Note_on_c, 10, 91, 127
11, 117684, Note_on_c, 10, 91, 0
11, 117690, Note_on_c, 10, 91, 127
11, 117714, Note_on_c, 10, 91, 0
11, 117720, Note_on_c, 10, 93, 127
11, 117744, Note_on_c, 10, 93, 0
11, 117750, Note_on_c, 10, 93, 127
11, 117774, Note_on_c, 10, 93, 0
11, 117780, Note_on_c, 10, 93, 127
11, 117804, Note_on_c, 10, 93, 0
11, 117810, Note_on_c, 10, 93, 127
11, 117834, Note_on_c, 10, 93, 0
11, 117840, Note_on_c, 10, 93, 127
11, 117864, Note_on_c, 10, 93, 0
11, 117870, Note_on_c, 10, 93, 127
11, 117894, Note_on_c, 10, 93, 0
11, 117900, Note_on_c, 10, 93, 127
11, 117924, Note_on_c, 10, 93, 0
11, 117930, Note_on_c, 10, 93, 127
11, 117954, Note_on_c, 10, 93, 0
11, 117960, Note_on_c, 10, 93, 127
11, 117984, Note_on_c, 10, 93, 0
11, 117990, Note_on_c, 10, 93, 127
11, 118014, Note_on_c, 10, 93, 0
11, 118020, Note_on_c, 10, 91, 127
11, 118044, Note_on_c, 10, 91, 0
11, 118050, Note_on_c, 10, 91, 127
11, 118074, Note_on_c, 10, 91, 0
11, 118080, Note_on_c, 10, 89, 127
11, 118104, Note_on_c, 10, 89, 0
11, 118110, Note_on_c, 10, 89, 127
11, 118134, Note_on_c, 10, 89, 0
11, 118140, Note_on_c, 10, 91, 127
11, 118164, Note_on_c, 10, 91, 0
11, 118170, Note_on_c, 10, 91, 127
11, 118194, Note_on_c, 10, 91, 0
11, 118200, Note_on_c, 10, 93, 127
11, 118224, Note_on_c, 10, 93, 0
11, 118230, Note_on_c, 10, 93, 127
11, 118254, Note_on_c, 10, 93, 0
11, 118260, Note_on_c, 10, 91, 127
11, 118284, Note_on_c, 10, 91, 0
11, 118290, Note_on_c, 10, 91, 127
11, 118314, Note_on_c, 10, 91, 0
11, 118320, Note_on_c, 10, 89, 127
11, 118344, Note_on_c, 10, 89, 0
11, 118350, Note_on_c, 10, 89, 127
11, 118374, Note_on_c, 10, 89, 0
11, 118380, Note_on_c, 10, 91, 127
11, 118404, Note_on_c, 10, 91, 0
11, 118410, Note_on_c, 10, 91, 127
11, 118434, Note_on_c, 10, 91, 0
11, 118440, Note_on_c, 10, 93, 127
11, 118464, Note_on_c, 10, 93, 0
11, 118470, Note_on_c, 10, 93, 127
11, 118494, Note_on_c, 10, 93, 0
11, 118500, Note_on_c, 10, 91, 127
11, 118524, Note_on_c, 10, 91, 0
11, 118530, Note_on_c, 10, 91, 127
11, 118554, Note_on_c, 10, 91, 0
11, 118560, Note_on_c, 10, 89, 127
11, 118584, Note_on_c, 10, 89, 0
11, 118590, Note_on_c, 10, 89, 127
11, 118614, Note_on_c, 10, 89, 0
11, 118620, Note_on_c, 10, 91, 127
11, 118644, Note_on_c, 10, 91, 0
11, 118650, Note_on_c, 10, 91, 127
11, 118674, Note_on_c, 10, 91, 0
11, 118680, Note_on_c, 10, 93, 127
11, 118704, Note_on_c, 10, 93, 0
11, 118710, Note_on_c, 10, 93, 127
11, 118734, Note_on_c, 10, 93, 0
11, 118740, Note_on_c, 10, 91, 127
11, 118764, Note_on_c, 10, 91, 0
11, 118770, Note_on_c, 10, 91, 127
11, 118794, Note_on_c, 10, 91, 0
11, 118800, Note_on_c, 10, 89, 127
11, 118824, Note_on_c, 10, 89, 0
11, 118830, Note_on_c, 10, 89, 127
11, 118854, Note_on_c, 10, 89, 0
11, 118860, Note_on_c, 10, 91, 127
11, 118884, Note_on_c, 10, 91, 0
11, 118890, Note_on_c, 10, 91, 127
11, 118914, Note_on_c, 10, 91, 0
11, 118920, Note_on_c, 10, 93, 127
11, 118944, Note_on_c, 10, 93, 0
11, 118950, Note_on_c, 10, 93, 127
11, 118974, Note_on_c, 10, 93, 0
11, 118980, Note_on_c, 10, 91, 127
11, 119004, Note_on_c, 10, 91, 0
11, 119010, Note_on_c, 10, 91, 127
11, 119034, Note_on_c, 10, 91, 0
11, 119040, Note_on_c, 10, 89, 127
11, 119064, Note_on_c, 10, 89, 0
11, 119070, Note_on_c, 10, 89, 127
11, 119094, Note_on_c, 10, 89, 0
11, 119100, Note_on_c, 10, 91, 127
11, 119124, Note_on_c, 10, 91, 0
11, 119130, Note_on_c, 10, 91, 127
11, 119154, Note_on_c, 10, 91, 0
11, 119160, Note_on_c, 10, 93, 127
11, 119184, Note_on_c, 10, 93, 0
11, 119190, Note_on_c, 10, 93, 127
11, 119214, Note_on_c, 10, 93, 0
11, 119220, Note_on_c, 10, 91, 127
11, 119244, Note_on_c, 10, 91, 0
11, 119250, Note_on_c, 10, 91, 127
11, 119274, Note_on_c, 10, 91, 0
11, 119280, Note_on_c, 10, 89, 127
11, 119304, Note_on_c, 10, 89, 0
11, 119310, Note_on_c, 10, 89, 127
11, 119334, Note_on_c, 10, 89, 0
11, 119340, Note_on_c, 10, 88, 127
11, 119364, Note_on_c, 10, 88, 0
11, 119370, Note_on_c, 10, 88, 127
11, 119394, Note_on_c, 10, 88, 0
11, 119400, Note_on_c, 10, 89, 127
11, 119424, Note_on_c, 10, 89, 0
11, 119430, Note_on_c, 10, 89, 127
11, 119454, Note_on_c, 10, 89, 0
11, 119460, Note_on_c, 10, 88, 127
11, 119484, Note_on_c, 10, 88, 0
11, 119490, Note_on_c, 10, 88, 127
11, 119514, Note_on_c, 10, 88, 0
11, 119520, Note_on_c, 10, 86, 127
11, 119544, Note_on_c, 10, 86, 0
11, 119550, Note_on_c, 10, 86, 127
11, 119574, Note_on_c, 10, 86, 0
11, 119580, Note_on_c, 10, 85, 127
11, 119604, Note_on_c, 10, 85, 0
11, 119610, Note_on_c, 10, 85, 127
11, 119634, Note_on_c, 10, 85, 0
11, 119640, Note_on_c, 10, 86, 127
11, 119664, Note_on_c, 10, 86, 0
11, 119670, Note_on_c, 10, 86, 127
11, 119694, Note_on_c, 10, 86, 0
11, 119700, Note_on_c, 10, 84, 127
11, 119724, Note_on_c, 10, 84, 0
11, 119730, Note_on_c, 10, 84, 127
11, 119754, Note_on_c, 10, 84, 0
11, 119760, Note_on_c, 10, 82, 127
11, 119784, Note_on_c, 10, 82, 0
11, 119790, Note_on_c, 10, 82, 127
11, 119814, Note_on_c, 10, 82, 0
11, 119820, Note_on_c, 10, 81, 127
11, 119844, Note_on_c, 10, 81, 0
11, 119850, Note_on_c, 10, 81, 127
11, 119874, Note_on_c, 10, 81, 0
11, 119880, Note_on_c, 10, 82, 127
11, 119904, Note_on_c, 10, 82, 0
11, 119910, Note_on_c, 10, 82, 127
11, 119934, Note_on_c, 10, 82, 0
11, 119940, Note_on_c, 10, 79, 127
11, 119964, Note_on_c, 10, 79, 0
11, 119970, Note_on_c, 10, 79, 127
11, 119994, Note_on_c, 10, 79, 0
11, 120000, Note_on_c, 10, 84, 127
11, 120024, Note_on_c, 10, 84, 0
11, 120030, Note_on_c, 10, 84, 127
11, 120054, Note_on_c, 10, 84, 0
11, 120060, Note_on_c, 10, 84, 127
11, 120084, Note_on_c, 10, 84, 0
11, 120090, Note_on_c, 10, 84, 127
11, 120114, Note_on_c, 10, 84, 0
11, 120120, Note_on_c, 10, 93, 127
11, 120144, Note_on_c, 10, 93, 0
11, 120150, Note_on_c, 10, 93, 127
11, 120174, Note_on_c, 10, 93, 0
11, 120180, Note_on_c, 10, 93, 127
11, 120204, Note_on_c, 10, 93, 0
11, 120210, Note_on_c, 10, 93, 127
11, 120234, Note_on_c, 10, 93, 0
11, 120240, Note_on_c, 10, 93, 127
11, 120264, Note_on_c, 10, 93, 0
11, 120270, Note_on_c, 10, 93, 127
11, 120294, Note_on_c, 10, 93, 0
11, 120300, Note_on_c, 10, 93, 127
11, 120324, Note_on_c, 10, 93, 0
11, 120330, Note_on_c, 10, 93, 127
11, 120354, Note_on_c, 10, 93, 0
11, 120360, Note_on_c, 10, 93, 127
11, 120384, Note_on_c, 10, 93, 0
11, 120390, Note_on_c, 10, 93, 127
11, 120414, Note_on_c, 10, 93, 0
11, 120420, Note_on_c, 10, 91, 127
11, 120444, Note_on_c, 10, 91, 0
11, 120450, Note_on_c, 10, 91, 127
11, 120474, Note_on_c, 10, 91, 0
11, 120480, Note_on_c, 10, 89, 127
11, 120504, Note_on_c, 10, 89, 0
11, 120510, Note_on_c, 10, 89, 127
11, 120534, Note_on_c, 10, 89, 0
11, 120540, Note_on_c, 10, 91, 127
11, 120564, Note_on_c, 10, 91, 0
11, 120570, Note_on_c, 10, 91, 127
11, 120594, Note_on_c, 10, 91, 0
11, 120600, Note_on_c, 10, 93, 127
11, 120624, Note_on_c, 10, 93, 0
11, 120630, Note_on_c, 10, 93, 127
11, 120654, Note_on_c, 10, 93, 0
11, 120660, Note_on_c, 10, 93, 127
11, 120684, Note_on_c, 10, 93, 0
11, 120690, Note_on_c, 10, 93, 127
11, 120714, Note_on_c, 10, 93, 0
11, 120720, Note_on_c, 10, 93, 127
11, 120744, Note_on_c, 10, 93, 0
11, 120750, Note_on_c, 10, 93, 127
11, 120774, Note_on_c, 10, 93, 0
11, 120780, Note_on_c, 10, 93, 127
11, 120804, Note_on_c, 10, 93, 0
11, 120810, Note_on_c, 10, 93, 127
11, 120834, Note_on_c, 10, 93, 0
11, 120840, Note_on_c, 10, 93, 127
11, 120864, Note_on_c, 10, 93, 0
11, 120870, Note_on_c, 10, 93, 127
11, 120894, Note_on_c, 10, 93, 0
11, 120900, Note_on_c, 10, 91, 127
11, 120924, Note_on_c, 10, 91, 0
11, 120930, Note_on_c, 10, 91, 127
11, 120954, Note_on_c, 10, 91, 0
11, 120960, Note_on_c, 10, 89, 127
11, 120984, Note_on_c, 10, 89, 0
11, 120990, Note_on_c, 10, 89, 127
11, 121014, Note_on_c, 10, 89, 0
11, 121020, Note_on_c, 10, 91, 127
11, 121044, Note_on_c, 10, 91, 0
11, 121050, Note_on_c, 10, 91, 127
11, 121074, Note_on_c, 10, 91, 0
11, 121080, Note_on_c, 10, 93, 127
11, 121104, Note_on_c, 10, 93, 0
11, 121110, Note_on_c, 10, 93, 127
11, 121134, Note_on_c, 10, 93, 0
11, 121140, Note_on_c, 10, 91, 127
11, 121164, Note_on_c, 10, 91, 0
11, 121170, Note_on_c, 10, 91, 127
11, 121194, Note_on_c, 10, 91, 0
11, 121200, Note_on_c, 10, 89, 127
11, 121224, Note_on_c, 10, 89, 0
11, 121230, Note_on_c, 10, 89, 127
11, 121254, Note_on_c, 10, 89, 0
11, 121260, Note_on_c, 10, 91, 127
11, 121284, Note_on_c, 10, 91, 0
11, 121290, Note_on_c, 10, 91, 127
11, 121314, Note_on_c, 10, 91, 0
11, 121320, Note_on_c, 10, 93, 127
11, 121344, Note_on_c, 10, 93, 0
11, 121350, Note_on_c, 10, 93, 127
11, 121374, Note_on_c, 10, 93, 0
11, 121380, Note_on_c, 10, 91, 127
11, 121404, Note_on_c, 10, 91, 0
11, 121410, Note_on_c, 10, 91, 127
11, 121434, Note_on_c, 10, 91, 0
11, 121440, Note_on_c, 10, 89, 127
11, 121464, Note_on_c, 10, 89, 0
11, 121470, Note_on_c, 10, 89, 127
11, 121494, Note_on_c, 10, 89, 0
11, 121500, Note_on_c, 10, 91, 127
11, 121524, Note_on_c, 10, 91, 0
11, 121530, Note_on_c, 10, 91, 127
11, 121554, Note_on_c, 10, 91, 0
11, 121560, Note_on_c, 10, 93, 127
11, 121584, Note_on_c, 10, 93, 0
11, 121590, Note_on_c, 10, 93, 127
11, 121614, Note_on_c, 10, 93, 0
11, 121620, Note_on_c, 10, 91, 127
11, 121644, Note_on_c, 10, 91, 0
11, 121650, Note_on_c, 10, 91, 127
11, 121674, Note_on_c, 10, 91, 0
11, 121680, Note_on_c, 10, 89, 127
11, 121704, Note_on_c, 10, 89, 0
11, 121710, Note_on_c, 10, 89, 127
11, 121734, Note_on_c, 10, 89, 0
11, 121740, Note_on_c, 10, 91, 127
11, 121764, Note_on_c, 10, 91, 0
11, 121770, Note_on_c, 10, 91, 127
11, 121794, Note_on_c, 10, 91, 0
11, 121800, Note_on_c, 10, 93, 127
11, 121824, Note_on_c, 10, 93, 0
11, 121830, Note_on_c, 10, 93, 127
11, 121854, Note_on_c, 10, 93, 0
11, 121860, Note_on_c, 10, 91, 127
11, 121884, Note_on_c, 10, 91, 0
11, 121890, Note_on_c, 10, 91, 127
11, 121914, Note_on_c, 10, 91, 0
11, 121920, Note_on_c, 10, 89, 127
11, 121944, Note_on_c, 10, 89, 0
11, 121950, Note_on_c, 10, 89, 127
11, 121974, Note_on_c, 10, 89, 0
11, 121980, Note_on_c, 10, 91, 127
11, 122004, Note_on_c, 10, 91, 0
11, 122010, Note_on_c, 10, 91, 127
11, 122034, Note_on_c, 10, 91, 0
11, 122040, Note_on_c, 10, 93, 127
11, 122064, Note_on_c, 10, 93, 0
11, 122070, Note_on_c, 10, 93, 127
11, 122094, Note_on_c, 10, 93, 0
11, 122100, Note_on_c, 10, 91, 127
11, 122124, Note_on_c, 10, 91, 0
11, 122130, Note_on_c, 10, 91, 127
11, 122154, Note_on_c, 10, 91, 0
11, 122160, Note_on_c, 10, 89, 127
11, 122184, Note_on_c, 10, 89, 0
11, 122190, Note_on_c, 10, 89, 127
11, 122214, Note_on_c, 10, 89, 0
11, 122220, Note_on_c, 10, 88, 127
11, 122244, Note_on_c, 10, 88, 0
11, 122250, Note_on_c, 10, 88, 127
11, 122274, Note_on_c, 10, 88, 0
11, 122280, Note_on_c, 10, 89, 127
11, 122304, Note_on_c, 10, 89, 0
11, 122310, Note_on_c, 10, 89, 127
11, 122334, Note_on_c, 10, 89, 0
11, 122340, Note_on_c, 10, 88, 127
11, 122364, Note_on_c, 10, 88, 0
11, 122370, Note_on_c, 10, 88, 127
11, 122394, Note_on_c, 10, 88, 0
11, 122400, Note_on_c, 10, 86, 127
11, 122424, Note_on_c, 10, 86, 0
11, 122430, Note_on_c, 10, 86, 127
11, 122454, Note_on_c, 10, 86, 0
11, 122460, Note_on_c, 10, 85, 127
11, 122484, Note_on_c, 10, 85, 0
11, 122490, Note_on_c, 10, 85, 127
11, 122514, Note_on_c, 10, 85, 0
11, 122520, Note_on_c, 10, 86, 127
11, 122544, Note_on_c, 10, 86, 0
11, 122550, Note_on_c, 10, 86, 127
11, 122574, Note_on_c, 10, 86, 0
11, 122580, Note_on_c, 10, 84, 127
11, 122604, Note_on_c, 10, 84, 0
11, 122610, Note_on_c, 10, 84, 127
11, 122634, Note_on_c, 10, 84, 0
11, 122640, Note_on_c, 10, 82, 127
11, 122664, Note_on_c, 10, 82, 0
11, 122670, Note_on_c, 10, 82, 127
11, 122694, Note_on_c, 10, 82, 0
11, 122700, Note_on_c, 10, 81, 127
11, 122724, Note_on_c, 10, 81, 0
11, 122730, Note_on_c, 10, 81, 127
11, 122754, Note_on_c, 10, 81, 0
11, 122760, Note_on_c, 10, 82, 127
11, 122784, Note_on_c, 10, 82, 0
11, 122790, Note_on_c, 10, 82, 127
11, 122814, Note_on_c, 10, 82, 0
11, 122820, Note_on_c, 10, 79, 127
11, 122844, Note_on_c, 10, 79, 0
11, 122850, Note_on_c, 10, 79, 127
11, 122874, Note_on_c, 10, 79, 0
11, 122880, Note_on_c, 10, 84, 127
11, 122904, Note_on_c, 10, 84, 0
11, 122910, Note_on_c, 10, 84, 127
11, 122934, Note_on_c, 10, 84, 0
11, 122940, Note_on_c, 10, 84, 127
11, 122964, Note_on_c, 10, 84, 0
11, 122970, Note_on_c, 10, 84, 127
11, 122994, Note_on_c, 10, 84, 0
11, 123000, Note_on_c, 10, 77, 127
11, 123096, Note_on_c, 10, 77, 0
11, 124020, Note_on_c, 10, 81, 127
11, 124044, Note_on_c, 10, 81, 0
11, 124050, Note_on_c, 10, 82, 127
11, 124074, Note_on_c, 10, 82, 0
11, 124080, Note_on_c, 10, 84, 127
11, 124128, Note_on_c, 10, 84, 0
11, 124140, Note_on_c, 10, 84, 127
11, 124188, Note_on_c, 10, 84, 0
11, 124200, Note_on_c, 10, 84, 127
11, 124248, Note_on_c, 10, 84, 0
11, 124260, Note_on_c, 10, 81, 127
11, 124276, Note_on_c, 10, 81, 0
11, 124280, Note_on_c, 10, 82, 127
11, 124296, Note_on_c, 10, 82, 0
11, 124300, Note_on_c, 10, 84, 127
11, 124316, Note_on_c, 10, 84, 0
11, 124320, Note_on_c, 10, 86, 127
11, 124368, Note_on_c, 10, 86, 0
11, 124380, Note_on_c, 10, 84, 127
11, 124428, Note_on_c, 10, 84, 0
11, 124440, Note_on_c, 10, 82, 127
11, 124488, Note_on_c, 10, 82, 0
11, 124500, Note_on_c, 10, 79, 127
11, 124524, Note_on_c, 10, 79, 0
11, 124530, Note_on_c, 10, 81, 127
11, 124554, Note_on_c, 10, 81, 0
11, 124560, Note_on_c, 10, 82, 127
11, 124608, Note_on_c, 10, 82, 0
11, 124620, Note_on_c, 10, 82, 127
11, 124668, Note_on_c, 10, 82, 0
11, 124680, Note_on_c, 10, 82, 127
11, 124728, Note_on_c, 10, 82, 0
11, 124740, Note_on_c, 10, 79, 127
11, 124756, Note_on_c, 10, 79, 0
11, 124760, Note_on_c, 10, 81, 127
11, 124776, Note_on_c, 10, 81, 0
11, 124780, Note_on_c, 10, 82, 127
11, 124796, Note_on_c, 10, 82, 0
11, 124800, Note_on_c, 10, 84, 127
11, 124848, Note_on_c, 10, 84, 0
11, 124860, Note_on_c, 10, 82, 127
11, 124908, Note_on_c, 10, 82, 0
11, 124920, Note_on_c, 10, 81, 127
11, 124968, Note_on_c, 10, 81, 0
11, 124980, Note_on_c, 10, 81, 127
11, 125004, Note_on_c, 10, 81, 0
11, 125010, Note_on_c, 10, 82, 127
11, 125034, Note_on_c, 10, 82, 0
11, 125040, Note_on_c, 10, 84, 127
11, 125088, Note_on_c, 10, 84, 0
11, 125100, Note_on_c, 10, 84, 127
11, 125148, Note_on_c, 10, 84, 0
11, 125160, Note_on_c, 10, 84, 127
11, 125208, Note_on_c, 10, 84, 0
11, 125220, Note_on_c, 10, 81, 127
11, 125236, Note_on_c, 10, 81, 0
11, 125240, Note_on_c, 10, 82, 127
11, 125256, Note_on_c, 10, 82, 0
11, 125260, Note_on_c, 10, 84, 127
11, 125276, Note_on_c, 10, 84, 0
11, 125280, Note_on_c, 10, 86, 127
11, 125328, Note_on_c, 10, 86, 0
11, 125340, Note_on_c, 10, 84, 127
11, 125388, Note_on_c, 10, 84, 0
11, 125400, Note_on_c, 10, 82, 127
11, 125448, Note_on_c, 10, 82, 0
11, 125460, Note_on_c, 10, 79, 127
11, 125484, Note_on_c, 10, 79, 0
11, 125490, Note_on_c, 10, 81, 127
11, 125514, Note_on_c, 10, 81, 0
11, 125520, Note_on_c, 10, 82, 127
11, 125568, Note_on_c, 10, 82, 0
11, 125580, Note_on_c, 10, 82, 127
11, 125628, Note_on_c, 10, 82, 0
11, 125640, Note_on_c, 10, 82, 127
11, 125688, Note_on_c, 10, 82, 0
11, 125700, Note_on_c, 10, 79, 127
11, 125716, Note_on_c, 10, 79, 0
11, 125720, Note_on_c, 10, 81, 127
11, 125736, Note_on_c, 10, 81, 0
11, 125740, Note_on_c, 10, 82, 127
11, 125756, Note_on_c, 10, 82, 0
11, 125760, Note_on_c, 10, 84, 127
11, 125808, Note_on_c, 10, 84, 0
11, 125820, Note_on_c, 10, 82, 127
11, 125868, Note_on_c, 10, 82, 0
11, 125880, Note_on_c, 10, 81, 127
11, 125904, Note_on_c, 10, 81, 0
11, 125910, Note_on_c, 10, 81, 127
11, 125934, Note_on_c, 10, 81, 0
11, 125940, Note_on_c, 10, 82, 127
11, 125964, Note_on_c, 10, 82, 0
11, 125970, Note_on_c, 10, 82, 127
11, 125994, Note_on_c, 10, 82, 0
11, 126000, Note_on_c, 10, 84, 127
11, 126024, Note_on_c, 10, 84, 0
11, 126030, Note_on_c, 10, 84, 127
11, 126054, Note_on_c, 10, 84, 0
11, 126060, Note_on_c, 10, 85, 127
11, 126084, Note_on_c, 10, 85, 0
11, 126090, Note_on_c, 10, 85, 127
11, 126114, Note_on_c, 10, 85, 0
11, 126120, Note_on_c, 10, 86, 127
11, 126144, Note_on_c, 10, 86, 0
11, 126150, Note_on_c, 10, 86, 127
11, 126174, Note_on_c, 10, 86, 0
11, 126180, Note_on_c, 10, 84, 127
11, 126204, Note_on_c, 10, 84, 0
11, 126210, Note_on_c, 10, 84, 127
11, 126234, Note_on_c, 10, 84, 0
11, 126240, Note_on_c, 10, 82, 127
11, 126264, Note_on_c, 10, 82, 0
11, 126270, Note_on_c, 10, 82, 127
11, 126294, Note_on_c, 10, 82, 0
11, 126300, Note_on_c, 10, 81, 127
11, 126324, Note_on_c, 10, 81, 0
11, 126330, Note_on_c, 10, 81, 127
11, 126354, Note_on_c, 10, 81, 0
11, 126360, Note_on_c, 10, 82, 127
11, 126384, Note_on_c, 10, 82, 0
11, 126390, Note_on_c, 10, 82, 127
11, 126414, Note_on_c, 10, 82, 0
11, 126420, Note_on_c, 10, 81, 127
11, 126444, Note_on_c, 10, 81, 0
11, 126450, Note_on_c, 10, 81, 127
11, 126474, Note_on_c, 10, 81, 0
11, 126480, Note_on_c, 10, 79, 127
11, 126504, Note_on_c, 10, 79, 0
11, 126510, Note_on_c, 10, 79, 127
11, 126534, Note_on_c, 10, 79, 0
11, 126540, Note_on_c, 10, 81, 127
11, 126564, Note_on_c, 10, 81, 0
11, 126570, Note_on_c, 10, 81, 127
11, 126594, Note_on_c, 10, 81, 0
11, 126600, Note_on_c, 10, 82, 127
11, 126624, Note_on_c, 10, 82, 0
11, 126630, Note_on_c, 10, 82, 127
11, 126654, Note_on_c, 10, 82, 0
11, 126660, Note_on_c, 10, 84, 127
11, 126684, Note_on_c, 10, 84, 0
11, 126690, Note_on_c, 10, 84, 127
11, 126714, Note_on_c, 10, 84, 0
11, 126720, Note_on_c, 10, 86, 127
11, 126744, Note_on_c, 10, 86, 0
11, 126750, Note_on_c, 10, 86, 127
11, 126774, Note_on_c, 10, 86, 0
11, 126780, Note_on_c, 10, 88, 127
11, 126804, Note_on_c, 10, 88, 0
11, 126810, Note_on_c, 10, 88, 127
11, 126834, Note_on_c, 10, 88, 0
11, 126840, Note_on_c, 10, 89, 127
11, 126872, Note_on_c, 10, 89, 0
11, 126880, Note_on_c, 10, 89, 127
11, 126912, Note_on_c, 10, 89, 0
11, 126920, Note_on_c, 10, 89, 127
11, 126952, Note_on_c, 10, 89, 0
11, 126960, Note_on_c, 10, 87, 127
11, 126992, Note_on_c, 10, 87, 0
11, 127000, Note_on_c, 10, 87, 127
11, 127032, Note_on_c, 10, 87, 0
11, 127040, Note_on_c, 10, 87, 127
11, 127072, Note_on_c, 10, 87, 0
11, 127080, Note_on_c, 10, 86, 127
11, 127112, Note_on_c, 10, 86, 0
11, 127120, Note_on_c, 10, 86, 127
11, 127152, Note_on_c, 10, 86, 0
11, 127160, Note_on_c, 10, 86, 127
11, 127192, Note_on_c, 10, 86, 0
11, 127200, Note_on_c, 10, 90, 127
11, 127232, Note_on_c, 10, 90, 0
11, 127240, Note_on_c, 10, 90, 127
11, 127272, Note_on_c, 10, 90, 0
11, 127280, Note_on_c, 10, 90, 127
11, 127312, Note_on_c, 10, 90, 0
11, 127320, Note_on_c, 10, 91, 127
11, 127352, Note_on_c, 10, 91, 0
11, 127360, Note_on_c, 10, 91, 127
11, 127392, Note_on_c, 10, 91, 0
11, 127400, Note_on_c, 10, 91, 127
11, 127432, Note_on_c, 10, 91, 0
11, 127440, Note_on_c, 10, 85, 127
11, 127472, Note_on_c, 10, 85, 0
11, 127480, Note_on_c, 10, 85, 127
11, 127512, Note_on_c, 10, 85, 0
11, 127520, Note_on_c, 10, 85, 127
11, 127552, Note_on_c, 10, 85, 0
11, 127560, Note_on_c, 10, 84, 127
11, 127592, Note_on_c, 10, 84, 0
11, 127600, Note_on_c, 10, 84, 127
11, 127632, Note_on_c, 10, 84, 0
11, 127640, Note_on_c, 10, 84, 127
11, 127672, Note_on_c, 10, 84, 0
11, 127680, Note_on_c, 10, 88, 127
11, 127712, Note_on_c, 10, 88, 0
11, 127720, Note_on_c, 10, 88, 127
11, 127752, Note_on_c, 10, 88, 0
11, 127760, Note_on_c, 10, 88, 127
11, 127792, Note_on_c, 10, 88, 0
11, 127800, Note_on_c, 10, 89, 127
11, 127832, Note_on_c, 10, 89, 0
11, 127840, Note_on_c, 10, 89, 127
11, 127872, Note_on_c, 10, 89, 0
11, 127880, Note_on_c, 10, 89, 127
11, 127912, Note_on_c, 10, 89, 0
11, 127920, Note_on_c, 10, 89, 127
11, 127952, Note_on_c, 10, 89, 0
11, 127960, Note_on_c, 10, 89, 127
11, 127992, Note_on_c, 10, 89, 0
11, 128000, Note_on_c, 10, 89, 127
11, 128032, Note_on_c, 10, 89, 0
11, 128040, Note_on_c, 10, 91, 127
11, 128072, Note_on_c, 10, 91, 0
11, 128080, Note_on_c, 10, 91, 127
11, 128112, Note_on_c, 10, 91, 0
11, 128120, Note_on_c, 10, 91, 127
11, 128152, Note_on_c, 10, 91, 0
11, 128160, Note_on_c, 10, 91, 127
11, 128192, Note_on_c, 10, 91, 0
11, 128200, Note_on_c, 10, 91, 127
11, 128232, Note_on_c, 10, 91, 0
11, 128240, Note_on_c, 10, 91, 127
11, 128272, Note_on_c, 10, 91, 0
11, 128280, Note_on_c, 10, 93, 127
11, 128312, Note_on_c, 10, 93, 0
11, 128320, Note_on_c, 10, 93, 127
11, 128352, Note_on_c, 10, 93, 0
11, 128360, Note_on_c, 10, 93, 127
11, 128392, Note_on_c, 10, 93, 0
11, 128400, Note_on_c, 10, 93, 127
11, 128432, Note_on_c, 10, 93, 0
11, 128440, Note_on_c, 10, 93, 127
11, 128472, Note_on_c, 10, 93, 0
11, 128480, Note_on_c, 10, 93, 127
11, 128512, Note_on_c, 10, 93, 0
11, 128520, Note_on_c, 10, 94, 127
11, 128552, Note_on_c, 10, 94, 0
11, 128560, Note_on_c, 10, 94, 127
11, 128592, Note_on_c, 10, 94, 0
11, 128600, Note_on_c, 10, 94, 127
11, 128632, Note_on_c, 10, 94, 0
11, 128640, Note_on_c, 10, 94, 127
11, 128672, Note_on_c, 10, 94, 0
11, 128680, Note_on_c, 10, 94, 127
11, 128712, Note_on_c, 10, 94, 0
11, 128720, Note_on_c, 10, 94, 127
11, 128752, Note_on_c, 10, 94, 0
11, 128760, Note_on_c, 10, 95, 127
11, 128792, Note_on_c, 10, 95, 0
11, 128800, Note_on_c, 10, 95, 127
11, 128832, Note_on_c, 10, 95, 0
11, 128840, Note_on_c, 10, 95, 127
11, 128872, Note_on_c, 10, 95, 0
11, 128880, Note_on_c, 10, 96, 127
11, 128912, Note_on_c, 10, 96, 0
11, 128920, Note_on_c, 10, 96, 127
11, 128952, Note_on_c, 10, 96, 0
11, 128960, Note_on_c, 10, 96, 127
11, 128992, Note_on_c, 10, 96, 0
11, 129000, Note_on_c, 10, 96, 127
11, 129032, Note_on_c, 10, 96, 0
11, 129040, Note_on_c, 10, 96, 127
11, 129072, Note_on_c, 10, 96, 0
11, 129080, Note_on_c, 10, 96, 127
11, 129112, Note_on_c, 10, 96, 0
11, 129120, Note_on_c, 10, 96, 127
11, 129152, Note_on_c, 10, 96, 0
11, 129160, Note_on_c, 10, 96, 127
11, 129192, Note_on_c, 10, 96, 0
11, 129200, Note_on_c, 10, 96, 127
11, 129232, Note_on_c, 10, 96, 0
11, 129240, Note_on_c, 10, 96, 127
11, 129272, Note_on_c, 10, 96, 0
11, 129280, Note_on_c, 10, 96, 127
11, 129312, Note_on_c, 10, 96, 0
11, 129320, Note_on_c, 10, 96, 127
11, 129352, Note_on_c, 10, 96, 0
11, 129360, Note_on_c, 10, 96, 127
11, 129392, Note_on_c, 10, 96, 0
11, 129400, Note_on_c, 10, 96, 127
11, 129432, Note_on_c, 10, 96, 0
11, 129440, Note_on_c, 10, 96, 127
11, 129472, Note_on_c, 10, 96, 0
11, 129480, Note_on_c, 10, 96, 127
11, 129512, Note_on_c, 10, 96, 0
11, 129520, Note_on_c, 10, 96, 127
11, 129552, Note_on_c, 10, 96, 0
11, 129560, Note_on_c, 10, 96, 127
11, 129592, Note_on_c, 10, 96, 0
11, 129600, Note_on_c, 10, 96, 127
11, 129632, Note_on_c, 10, 96, 0
11, 129640, Note_on_c, 10, 96, 127
11, 129672, Note_on_c, 10, 96, 0
11, 129680, Note_on_c, 10, 96, 127
11, 129712, Note_on_c, 10, 96, 0
11, 129720, Note_on_c, 10, 94, 127
11, 129752, Note_on_c, 10, 94, 0
11, 129760, Note_on_c, 10, 94, 127
11, 129792, Note_on_c, 10, 94, 0
11, 129800, Note_on_c, 10, 94, 127
11, 129832, Note_on_c, 10, 94, 0
11, 129840, Note_on_c, 10, 91, 127
11, 129872, Note_on_c, 10, 91, 0
11, 129880, Note_on_c, 10, 91, 127
11, 129912, Note_on_c, 10, 91, 0
11, 129920, Note_on_c, 10, 91, 127
11, 129952, Note_on_c, 10, 91, 0
11, 129960, Note_on_c, 10, 88, 127
11, 129992, Note_on_c, 10, 88, 0
11, 130000, Note_on_c, 10, 88, 127
11, 130032, Note_on_c, 10, 88, 0
11, 130040, Note_on_c, 10, 88, 127
11, 130072, Note_on_c, 10, 88, 0
11, 130080, Note_on_c, 10, 84, 127
11, 130112, Note_on_c, 10, 84, 0
11, 130120, Note_on_c, 10, 84, 127
11, 130152, Note_on_c, 10, 84, 0
11, 130160, Note_on_c, 10, 84, 127
11, 130192, Note_on_c, 10, 84, 0
11, 130200, Note_on_c, 10, 82, 127
11, 130232, Note_on_c, 10, 82, 0
11, 130240, Note_on_c, 10, 82, 127
11, 130272, Note_on_c, 10, 82, 0
11, 130280, Note_on_c, 10, 82, 127
11, 130312, Note_on_c, 10, 82, 0
11, 130320, Note_on_c, 10, 79, 127
11, 130352, Note_on_c, 10, 79, 0
11, 130360, Note_on_c, 10, 79, 127
11, 130392, Note_on_c, 10, 79, 0
11, 130400, Note_on_c, 10, 79, 127
11, 130432, Note_on_c, 10, 79, 0
11, 130440, Note_on_c, 10, 76, 127
11, 130472, Note_on_c, 10, 76, 0
11, 130480, Note_on_c, 10, 76, 127
11, 130512, Note_on_c, 10, 76, 0
11, 130520, Note_on_c, 10, 76, 127
11, 130552, Note_on_c, 10, 76, 0
11, 130560, Note_on_c, 10, 72, 127
11, 130592, Note_on_c, 10, 72, 0
11, 130600, Note_on_c, 10, 72, 127
11, 130632, Note_on_c, 10, 72, 0
11, 130640, Note_on_c, 10, 72, 127
11, 130672, Note_on_c, 10, 72, 0
11, 130680, Note_on_c, 10, 77, 127
11, 130712, Note_on_c, 10, 77, 0
11, 130720, Note_on_c, 10, 89, 127
11, 130752, Note_on_c, 10, 89, 0
11, 130760, Note_on_c, 10, 89, 127
11, 130792, Note_on_c, 10, 89, 0
11, 130800, Note_on_c, 10, 89, 127
11, 130832, Note_on_c, 10, 89, 0
11, 130840, Note_on_c, 10, 89, 127
11, 130872, Note_on_c, 10, 89, 0
11, 130880, Note_on_c, 10, 89, 127
11, 130912, Note_on_c, 10, 89, 0
11, 130920, Note_on_c, 10, 91, 127
11, 130952, Note_on_c, 10, 91, 0
11, 130960, Note_on_c, 10, 91, 127
11, 130992, Note_on_c, 10, 91, 0
11, 131000, Note_on_c, 10, 91, 127
11, 131032, Note_on_c, 10, 91, 0
11, 131040, Note_on_c, 10, 91, 127
11, 131072, Note_on_c, 10, 91, 0
11, 131080, Note_on_c, 10, 91, 127
11, 131112, Note_on_c, 10, 91, 0
11, 131120, Note_on_c, 10, 91, 127
11, 131152, Note_on_c, 10, 91, 0
11, 131160, Note_on_c, 10, 93, 127
11, 131192, Note_on_c, 10, 93, 0
11, 131200, Note_on_c, 10, 93, 127
11, 131232, Note_on_c, 10, 93, 0
11, 131240, Note_on_c, 10, 93, 127
11, 131272, Note_on_c, 10, 93, 0
11, 131280, Note_on_c, 10, 93, 127
11, 131312, Note_on_c, 10, 93, 0
11, 131320, Note_on_c, 10, 93, 127
11, 131352, Note_on_c, 10, 93, 0
11, 131360, Note_on_c, 10, 93, 127
11, 131392, Note_on_c, 10, 93, 0
11, 131400, Note_on_c, 10, 94, 127
11, 131432, Note_on_c, 10, 94, 0
11, 131440, Note_on_c, 10, 94, 127
11, 131472, Note_on_c, 10, 94, 0
11, 131480, Note_on_c, 10, 94, 127
11, 131512, Note_on_c, 10, 94, 0
11, 131520, Note_on_c, 10, 94, 127
11, 131552, Note_on_c, 10, 94, 0
11, 131560, Note_on_c, 10, 94, 127
11, 131592, Note_on_c, 10, 94, 0
11, 131600, Note_on_c, 10, 94, 127
11, 131632, Note_on_c, 10, 94, 0
11, 131640, Note_on_c, 10, 95, 127
11, 131672, Note_on_c, 10, 95, 0
11, 131680, Note_on_c, 10, 95, 127
11, 131712, Note_on_c, 10, 95, 0
11, 131720, Note_on_c, 10, 95, 127
11, 131752, Note_on_c, 10, 95, 0
11, 131760, Note_on_c, 10, 96, 127
11, 131792, Note_on_c, 10, 96, 0
11, 131800, Note_on_c, 10, 96, 127
11, 131832, Note_on_c, 10, 96, 0
11, 131840, Note_on_c, 10, 96, 127
11, 131872, Note_on_c, 10, 96, 0
11, 131880, Note_on_c, 10, 96, 127
11, 131912, Note_on_c, 10, 96, 0
11, 131920, Note_on_c, 10, 96, 127
11, 131952, Note_on_c, 10, 96, 0
11, 131960, Note_on_c, 10, 96, 127
11, 131992, Note_on_c, 10, 96, 0
11, 132000, Note_on_c, 10, 96, 127
11, 132032, Note_on_c, 10, 96, 0
11, 132040, Note_on_c, 10, 96, 127
11, 132072, Note_on_c, 10, 96, 0
11, 132080, Note_on_c, 10, 96, 127
11, 132112, Note_on_c, 10, 96, 0
11, 132120, Note_on_c, 10, 96, 127
11, 132152, Note_on_c, 10, 96, 0
11, 132160, Note_on_c, 10, 96, 127
11, 132192, Note_on_c, 10, 96, 0
11, 132200, Note_on_c, 10, 96, 127
11, 132232, Note_on_c, 10, 96, 0
11, 132240, Note_on_c, 10, 96, 127
11, 132272, Note_on_c, 10, 96, 0
11, 132280, Note_on_c, 10, 96, 127
11, 132312, Note_on_c, 10, 96, 0
11, 132320, Note_on_c, 10, 96, 127
11, 132352, Note_on_c, 10, 96, 0
11, 132360, Note_on_c, 10, 96, 127
11, 132392, Note_on_c, 10, 96, 0
11, 132400, Note_on_c, 10, 96, 127
11, 132432, Note_on_c, 10, 96, 0
11, 132440, Note_on_c, 10, 96, 127
11, 132472, Note_on_c, 10, 96, 0
11, 132480, Note_on_c, 10, 96, 127
11, 132512, Note_on_c, 10, 96, 0
11, 132520, Note_on_c, 10, 96, 127
11, 132552, Note_on_c, 10, 96, 0
11, 132560, Note_on_c, 10, 96, 127
11, 132592, Note_on_c, 10, 96, 0
11, 132600, Note_on_c, 10, 94, 127
11, 132632, Note_on_c, 10, 94, 0
11, 132640, Note_on_c, 10, 94, 127
11, 132672, Note_on_c, 10, 94, 0
11, 132680, Note_on_c, 10, 94, 127
11, 132712, Note_on_c, 10, 94, 0
11, 132720, Note_on_c, 10, 91, 127
11, 132752, Note_on_c, 10, 91, 0
11, 132760, Note_on_c, 10, 91, 127
11, 132792, Note_on_c, 10, 91, 0
11, 132800, Note_on_c, 10, 91, 127
11, 132832, Note_on_c, 10, 91, 0
11, 132840, Note_on_c, 10, 88, 127
11, 132872, Note_on_c, 10, 88, 0
11, 132880, Note_on_c, 10, 88, 127
11, 132912, Note_on_c, 10, 88, 0
11, 132920, Note_on_c, 10, 88, 127
11, 132952, Note_on_c, 10, 88, 0
11, 132960, Note_on_c, 10, 84, 127
11, 132992, Note_on_c, 10, 84, 0
11, 133000, Note_on_c, 10, 84, 127
11, 133032, Note_on_c, 10, 84, 0
11, 133040, Note_on_c, 10, 84, 127
11, 133072, Note_on_c, 10, 84, 0
11, 133080, Note_on_c, 10, 82, 127
11, 133112, Note_on_c, 10, 82, 0
11, 133120, Note_on_c, 10, 82, 127
11, 133152, Note_on_c, 10, 82, 0
11, 133160, Note_on_c, 10, 82, 127
11, 133192, Note_on_c, 10, 82, 0
11, 133200, Note_on_c, 10, 79, 127
11, 133232, Note_on_c, 10, 79, 0
11, 133240, Note_on_c, 10, 79, 127
11, 133272, Note_on_c, 10, 79, 0
11, 133280, Note_on_c, 10, 79, 127
11, 133312, Note_on_c, 10, 79, 0
11, 133320, Note_on_c, 10, 76, 127
11, 133352, Note_on_c, 10, 76, 0
11, 133360, Note_on_c, 10, 76, 127
11, 133392, Note_on_c, 10, 76, 0
11, 133400, Note_on_c, 10, 76, 127
11, 133432, Note_on_c, 10, 76, 0
11, 133440, Note_on_c, 10, 72, 127
11, 133472, Note_on_c, 10, 72, 0
11, 133480, Note_on_c, 10, 72, 127
11, 133512, Note_on_c, 10, 72, 0
11, 133520, Note_on_c, 10, 72, 127
11, 133552, Note_on_c, 10, 72, 0
11, 133560, Note_on_c, 10, 77, 127
11, 133592, Note_on_c, 10, 77, 0
11, 133600, Note_on_c, 10, 89, 127
11, 133632, Note_on_c, 10, 89, 0
11, 133640, Note_on_c, 10, 89, 127
11, 133672, Note_on_c, 10, 89, 0
11, 133680, Note_on_c, 10, 89, 127
11, 133712, Note_on_c, 10, 89, 0
11, 133720, Note_on_c, 10, 89, 127
11, 133752, Note_on_c, 10, 89, 0
11, 133760, Note_on_c, 10, 89, 127
11, 133792, Note_on_c, 10, 89, 0
11, 133800, Note_on_c, 10, 89, 127
11, 133832, Note_on_c, 10, 89, 0
11, 133840, Note_on_c, 10, 89, 127
11, 133872, Note_on_c, 10, 89, 0
11, 133880, Note_on_c, 10, 89, 127
11, 133912, Note_on_c, 10, 89, 0
11, 133920, Note_on_c, 10, 89, 127
11, 133952, Note_on_c, 10, 89, 0
11, 133960, Note_on_c, 10, 89, 127
11, 133992, Note_on_c, 10, 89, 0
11, 134000, Note_on_c, 10, 89, 127
11, 134032, Note_on_c, 10, 89, 0
11, 134040, Note_on_c, 10, 89, 127
11, 134072, Note_on_c, 10, 89, 0
11, 134080, Note_on_c, 10, 89, 127
11, 134112, Note_on_c, 10, 89, 0
11, 134120, Note_on_c, 10, 89, 127
11, 134152, Note_on_c, 10, 89, 0
11, 134160, Note_on_c, 10, 89, 127
11, 134192, Note_on_c, 10, 89, 0
11, 134200, Note_on_c, 10, 89, 127
11, 134232, Note_on_c, 10, 89, 0
11, 134240, Note_on_c, 10, 89, 127
11, 134272, Note_on_c, 10, 89, 0
11, 134280, Note_on_c, 10, 89, 127
11, 134312, Note_on_c, 10, 89, 0
11, 134320, Note_on_c, 10, 89, 127
11, 134352, Note_on_c, 10, 89, 0
11, 134360, Note_on_c, 10, 89, 127
11, 134392, Note_on_c, 10, 89, 0
11, 134400, Note_on_c, 10, 89, 127
11, 134432, Note_on_c, 10, 89, 0
11, 134440, Note_on_c, 10, 89, 127
11, 134472, Note_on_c, 10, 89, 0
11, 134480, Note_on_c, 10, 89, 127
11, 134512, Note_on_c, 10, 89, 0
11, 134520, Note_on_c, 10, 93, 127
11, 134552, Note_on_c, 10, 93, 0
11, 134560, Note_on_c, 10, 93, 127
11, 134592, Note_on_c, 10, 93, 0
11, 134600, Note_on_c, 10, 93, 127
11, 134632, Note_on_c, 10, 93, 0
11, 134640, Note_on_c, 10, 93, 127
11, 134672, Note_on_c, 10, 93, 0
11, 134680, Note_on_c, 10, 93, 127
11, 134712, Note_on_c, 10, 93, 0
11, 134720, Note_on_c, 10, 93, 127
11, 134752, Note_on_c, 10, 93, 0
11, 134760, Note_on_c, 10, 93, 127
11, 134792, Note_on_c, 10, 93, 0
11, 134800, Note_on_c, 10, 93, 127
11, 134832, Note_on_c, 10, 93, 0
11, 134840, Note_on_c, 10, 93, 127
11, 134872, Note_on_c, 10, 93, 0
11, 134880, Note_on_c, 10, 93, 127
11, 134912, Note_on_c, 10, 93, 0
11, 134920, Note_on_c, 10, 93, 127
11, 134952, Note_on_c, 10, 93, 0
11, 134960, Note_on_c, 10, 93, 127
11, 134992, Note_on_c, 10, 93, 0
11, 135000, Note_on_c, 10, 93, 127
11, 135032, Note_on_c, 10, 93, 0
11, 135040, Note_on_c, 10, 93, 127
11, 135072, Note_on_c, 10, 93, 0
11, 135080, Note_on_c, 10, 93, 127
11, 135112, Note_on_c, 10, 93, 0
11, 135120, Note_on_c, 10, 93, 127
11, 135152, Note_on_c, 10, 93, 0
11, 135160, Note_on_c, 10, 93, 127
11, 135192, Note_on_c, 10, 93, 0
11, 135200, Note_on_c, 10, 93, 127
11, 135232, Note_on_c, 10, 93, 0
11, 135240, Note_on_c, 10, 93, 127
11, 135272, Note_on_c, 10, 93, 0
11, 135280, Note_on_c, 10, 93, 127
11, 135312, Note_on_c, 10, 93, 0
11, 135320, Note_on_c, 10, 93, 127
11, 135352, Note_on_c, 10, 93, 0
11, 135360, Note_on_c, 10, 93, 127
11, 135392, Note_on_c, 10, 93, 0
11, 135400, Note_on_c, 10, 93, 127
11, 135432, Note_on_c, 10, 93, 0
11, 135440, Note_on_c, 10, 93, 127
11, 135472, Note_on_c, 10, 93, 0
11, 135480, Note_on_c, 10, 93, 127
11, 135512, Note_on_c, 10, 93, 0
11, 135520, Note_on_c, 10, 93, 127
11, 135552, Note_on_c, 10, 93, 0
11, 135560, Note_on_c, 10, 93, 127
11, 135592, Note_on_c, 10, 93, 0
11, 135600, Note_on_c, 10, 93, 127
11, 135632, Note_on_c, 10, 93, 0
11, 135640, Note_on_c, 10, 93, 127
11, 135672, Note_on_c, 10, 93, 0
11, 135680, Note_on_c, 10, 93, 127
11, 135712, Note_on_c, 10, 93, 0
11, 135720, Note_on_c, 10, 93, 127
11, 135752, Note_on_c, 10, 93, 0
11, 135760, Note_on_c, 10, 93, 127
11, 135792, Note_on_c, 10, 93, 0
11, 135800, Note_on_c, 10, 93, 127
11, 135832, Note_on_c, 10, 93, 0
11, 135840, Note_on_c, 10, 93, 127
11, 135872, Note_on_c, 10, 93, 0
11, 135880, Note_on_c, 10, 93, 127
11, 135912, Note_on_c, 10, 93, 0
11, 135920, Note_on_c, 10, 93, 127
11, 135952, Note_on_c, 10, 93, 0
11, 135960, Note_on_c, 10, 91, 127
11, 135992, Note_on_c, 10, 91, 0
11, 136000, Note_on_c, 10, 91, 127
11, 136032, Note_on_c, 10, 91, 0
11, 136040, Note_on_c, 10, 91, 127
11, 136072, Note_on_c, 10, 91, 0
11, 136080, Note_on_c, 10, 91, 127
11, 136112, Note_on_c, 10, 91, 0
11, 136120, Note_on_c, 10, 91, 127
11, 136152, Note_on_c, 10, 91, 0
11, 136160, Note_on_c, 10, 91, 127
11, 136192, Note_on_c, 10, 91, 0
11, 136200, Note_on_c, 10, 91, 127
11, 136232, Note_on_c, 10, 91, 0
11, 136240, Note_on_c, 10, 91, 127
11, 136272, Note_on_c, 10, 91, 0
11, 136280, Note_on_c, 10, 91, 127
11, 136312, Note_on_c, 10, 91, 0
11, 136320, Note_on_c, 10, 91, 127
11, 136352, Note_on_c, 10, 91, 0
11, 136360, Note_on_c, 10, 91, 127
11, 136392, Note_on_c, 10, 91, 0
11, 136400, Note_on_c, 10, 91, 127
11, 136432, Note_on_c, 10, 91, 0
11, 136440, Note_on_c, 10, 93, 127
11, 136472, Note_on_c, 10, 93, 0
11, 136480, Note_on_c, 10, 93, 127
11, 136512, Note_on_c, 10, 93, 0
11, 136520, Note_on_c, 10, 93, 127
11, 136552, Note_on_c, 10, 93, 0
11, 136560, Note_on_c, 10, 93, 127
11, 136592, Note_on_c, 10, 93, 0
11, 136600, Note_on_c, 10, 93, 127
11, 136632, Note_on_c, 10, 93, 0
11, 136640, Note_on_c, 10, 93, 127
11, 136672, Note_on_c, 10, 93, 0
11, 136680, Note_on_c, 10, 93, 127
11, 136712, Note_on_c, 10, 93, 0
11, 136720, Note_on_c, 10, 93, 127
11, 136752, Note_on_c, 10, 93, 0
11, 136760, Note_on_c, 10, 93, 127
11, 136792, Note_on_c, 10, 93, 0
11, 136800, Note_on_c, 10, 93, 127
11, 136832, Note_on_c, 10, 93, 0
11, 136840, Note_on_c, 10, 93, 127
11, 136872, Note_on_c, 10, 93, 0
11, 136880, Note_on_c, 10, 93, 127
11, 136912, Note_on_c, 10, 93, 0
11, 136920, Note_on_c, 10, 91, 127
11, 136952, Note_on_c, 10, 91, 0
11, 136960, Note_on_c, 10, 91, 127
11, 136992, Note_on_c, 10, 91, 0
11, 137000, Note_on_c, 10, 91, 127
11, 137032, Note_on_c, 10, 91, 0
11, 137040, Note_on_c, 10, 91, 127
11, 137072, Note_on_c, 10, 91, 0
11, 137080, Note_on_c, 10, 91, 127
11, 137112, Note_on_c, 10, 91, 0
11, 137120, Note_on_c, 10, 91, 127
11, 137152, Note_on_c, 10, 91, 0
11, 137160, Note_on_c, 10, 91, 127
11, 137192, Note_on_c, 10, 91, 0
11, 137200, Note_on_c, 10, 91, 127
11, 137232, Note_on_c, 10, 91, 0
11, 137240, Note_on_c, 10, 91, 127
11, 137272, Note_on_c, 10, 91, 0
11, 137280, Note_on_c, 10, 91, 127
11, 137312, Note_on_c, 10, 91, 0
11, 137320, Note_on_c, 10, 91, 127
11, 137352, Note_on_c, 10, 91, 0
11, 137360, Note_on_c, 10, 91, 127
11, 137392, Note_on_c, 10, 91, 0
11, 137400, Note_on_c, 10, 93, 127
11, 137432, Note_on_c, 10, 93, 0
11, 137440, Note_on_c, 10, 93, 127
11, 137472, Note_on_c, 10, 93, 0
11, 137480, Note_on_c, 10, 93, 127
11, 137512, Note_on_c, 10, 93, 0
11, 137520, Note_on_c, 10, 93, 127
11, 137552, Note_on_c, 10, 93, 0
11, 137560, Note_on_c, 10, 93, 127
11, 137592, Note_on_c, 10, 93, 0
11, 137600, Note_on_c, 10, 93, 127
11, 137632, Note_on_c, 10, 93, 0
11, 137640, Note_on_c, 10, 93, 127
11, 137672, Note_on_c, 10, 93, 0
11, 137680, Note_on_c, 10, 93, 127
11, 137712, Note_on_c, 10, 93, 0
11, 137720, Note_on_c, 10, 93, 127
11, 137752, Note_on_c, 10, 93, 0
11, 137760, Note_on_c, 10, 93, 127
11, 137792, Note_on_c, 10, 93, 0
11, 137800, Note_on_c, 10, 93, 127
11, 137832, Note_on_c, 10, 93, 0
11, 137840, Note_on_c, 10, 93, 127
11, 137872, Note_on_c, 10, 93, 0
11, 137880, Note_on_c, 10, 91, 127
11, 137912, Note_on_c, 10, 91, 0
11, 137920, Note_on_c, 10, 91, 127
11, 137952, Note_on_c, 10, 91, 0
11, 137960, Note_on_c, 10, 91, 127
11, 137992, Note_on_c, 10, 91, 0
11, 138000, Note_on_c, 10, 91, 127
11, 138032, Note_on_c, 10, 91, 0
11, 138040, Note_on_c, 10, 91, 127
11, 138072, Note_on_c, 10, 91, 0
11, 138080, Note_on_c, 10, 91, 127
11, 138112, Note_on_c, 10, 91, 0
11, 138120, Note_on_c, 10, 91, 127
11, 138152, Note_on_c, 10, 91, 0
11, 138160, Note_on_c, 10, 91, 127
11, 138192, Note_on_c, 10, 91, 0
11, 138200, Note_on_c, 10, 91, 127
11, 138232, Note_on_c, 10, 91, 0
11, 138240, Note_on_c, 10, 91, 127
11, 138272, Note_on_c, 10, 91, 0
11, 138280, Note_on_c, 10, 91, 127
11, 138312, Note_on_c, 10, 91, 0
11, 138320, Note_on_c, 10, 91, 127
11, 138352, Note_on_c, 10, 91, 0
11, 138360, Note_on_c, 10, 91, 127
11, 138392, Note_on_c, 10, 91, 0
11, 138400, Note_on_c, 10, 91, 127
11, 138432, Note_on_c, 10, 91, 0
11, 138440, Note_on_c, 10, 91, 127
11, 138472, Note_on_c, 10, 91, 0
11, 138480, Note_on_c, 10, 91, 127
11, 138512, Note_on_c, 10, 91, 0
11, 138520, Note_on_c, 10, 91, 127
11, 138552, Note_on_c, 10, 91, 0
11, 138560, Note_on_c, 10, 91, 127
11, 138592, Note_on_c, 10, 91, 0
11, 138600, Note_on_c, 10, 91, 127
11, 138632, Note_on_c, 10, 91, 0
11, 138640, Note_on_c, 10, 91, 127
11, 138672, Note_on_c, 10, 91, 0
11, 138680, Note_on_c, 10, 91, 127
11, 138712, Note_on_c, 10, 91, 0
11, 138720, Note_on_c, 10, 91, 127
11, 138752, Note_on_c, 10, 91, 0
11, 138760, Note_on_c, 10, 91, 127
11, 138792, Note_on_c, 10, 91, 0
11, 138800, Note_on_c, 10, 91, 127
11, 138832, Note_on_c, 10, 91, 0
11, 138840, Note_on_c, 10, 91, 127
11, 138872, Note_on_c, 10, 91, 0
11, 138880, Note_on_c, 10, 91, 127
11, 138912, Note_on_c, 10, 91, 0
11, 138920, Note_on_c, 10, 91, 127
11, 138952, Note_on_c, 10, 91, 0
11, 138960, Note_on_c, 10, 91, 127
11, 138992, Note_on_c, 10, 91, 0
11, 139000, Note_on_c, 10, 91, 127
11, 139032, Note_on_c, 10, 91, 0
11, 139040, Note_on_c, 10, 91, 127
11, 139072, Note_on_c, 10, 91, 0
11, 139080, Note_on_c, 10, 91, 127
11, 139112, Note_on_c, 10, 91, 0
11, 139120, Note_on_c, 10, 91, 127
11, 139152, Note_on_c, 10, 91, 0
11, 139160, Note_on_c, 10, 91, 127
11, 139192, Note_on_c, 10, 91, 0
11, 139200, Note_on_c, 10, 91, 127
11, 139232, Note_on_c, 10, 91, 0
11, 139240, Note_on_c, 10, 91, 127
11, 139272, Note_on_c, 10, 91, 0
11, 139280, Note_on_c, 10, 91, 127
11, 139312, Note_on_c, 10, 91, 0
11, 139320, Note_on_c, 10, 89, 127
11, 139344, Note_on_c, 10, 89, 0
11, 139350, Note_on_c, 10, 89, 127
11, 139374, Note_on_c, 10, 89, 0
11, 139380, Note_on_c, 10, 77, 127
11, 139404, Note_on_c, 10, 77, 0
11, 139410, Note_on_c, 10, 77, 127
11, 139434, Note_on_c, 10, 77, 0
11, 139440, Note_on_c, 10, 79, 127
11, 139464, Note_on_c, 10, 79, 0
11, 139470, Note_on_c, 10, 79, 127
11, 139494, Note_on_c, 10, 79, 0
11, 139500, Note_on_c, 10, 81, 127
11, 139524, Note_on_c, 10, 81, 0
11, 139530, Note_on_c, 10, 81, 127
11, 139554, Note_on_c, 10, 81, 0
11, 139560, Note_on_c, 10, 82, 127
11, 139584, Note_on_c, 10, 82, 0
11, 139590, Note_on_c, 10, 82, 127
11, 139614, Note_on_c, 10, 82, 0
11, 139620, Note_on_c, 10, 81, 127
11, 139644, Note_on_c, 10, 81, 0
11, 139650, Note_on_c, 10, 81, 127
11, 139674, Note_on_c, 10, 81, 0
11, 139680, Note_on_c, 10, 82, 127
11, 139704, Note_on_c, 10, 82, 0
11, 139710, Note_on_c, 10, 82, 127
11, 139734, Note_on_c, 10, 82, 0
11, 139740, Note_on_c, 10, 84, 127
11, 139764, Note_on_c, 10, 84, 0
11, 139770, Note_on_c, 10, 84, 127
11, 139794, Note_on_c, 10, 84, 0
11, 139800, Note_on_c, 10, 86, 127
11, 139824, Note_on_c, 10, 86, 0
11, 139830, Note_on_c, 10, 86, 127
11, 139854, Note_on_c, 10, 86, 0
11, 139860, Note_on_c, 10, 84, 127
11, 139884, Note_on_c, 10, 84, 0
11, 139890, Note_on_c, 10, 84, 127
11, 139914, Note_on_c, 10, 84, 0
11, 139920, Note_on_c, 10, 86, 127
11, 139944, Note_on_c, 10, 86, 0
11, 139950, Note_on_c, 10, 86, 127
11, 139974, Note_on_c, 10, 86, 0
11, 139980, Note_on_c, 10, 88, 127
11, 140004, Note_on_c, 10, 88, 0
11, 140010, Note_on_c, 10, 88, 127
11, 140034, Note_on_c, 10, 88, 0
11, 140040, Note_on_c, 10, 89, 127
11, 140064, Note_on_c, 10, 89, 0
11, 140070, Note_on_c, 10, 89, 127
11, 140094, Note_on_c, 10, 89, 0
11, 140100, Note_on_c, 10, 88, 127
11, 140124, Note_on_c, 10, 88, 0
11, 140130, Note_on_c, 10, 88, 127
11, 140154, Note_on_c, 10, 88, 0
11, 140160, Note_on_c, 10, 89, 127
11, 140184, Note_on_c, 10, 89, 0
11, 140190, Note_on_c, 10, 89, 127
11, 140214, Note_on_c, 10, 89, 0
11, 140220, Note_on_c, 10, 91, 127
11, 140244, Note_on_c, 10, 91, 0
11, 140250, Note_on_c, 10, 91, 127
11, 140274, Note_on_c, 10, 91, 0
11, 140280, Note_on_c, 10, 93, 127
11, 140376, Note_on_c, 10, 93, 0
11, 140760, Note_on_c, 10, 65, 127
11, 140760, Note_on_c, 10, 72, 127
11, 140760, Note_on_c, 10, 81, 127
11, 140856, Note_on_c, 10, 81, 0
11, 140856, Note_on_c, 10, 72, 0
11, 140856, Note_on_c, 10, 65, 0
11, 141240, Note_on_c, 10, 65, 127
11, 141240, Note_on_c, 10, 72, 127
11, 141240, Note_on_c, 10, 81, 127
11, 141336, Note_on_c, 10, 81, 0
11, 141336, Note_on_c, 10, 72, 0
11, 141336, Note_on_c, 10, 65, 0
11, 141720, Note_on_c, 10, 65, 127
11, 141720, Note_on_c, 10, 69, 127
11, 141720, Note_on_c, 10, 77, 127
11, 141816, Note_on_c, 10, 77, 0
11, 141816, Note_on_c, 10, 69, 0
11, 141816, Note_on_c, 10, 65, 0
11, 141960, Note_on_c, 10, 77, 127
11, 141960, Note_on_c, 10, 69, 127
11, 141960, Note_on_c, 10, 65, 127
11, 142056, Note_on_c, 10, 65, 0
11, 142056, Note_on_c, 10, 69, 0
11, 142056, Note_on_c, 10, 77, 0
11, 142200, Note_on_c, 10, 65, 127
11, 142200, Note_on_c, 10, 69, 127
11, 142200, Note_on_c, 10, 77, 127
11, 142296, Note_on_c, 10, 77, 0
11, 142296, Note_on_c, 10, 69, 0
11, 142296, Note_on_c, 10, 65, 0
11, 142560, Note_on_c, 10, 77, 1
11, 142680, Note_on_c, 10, 77, 0
11, 142680, End_track
12, 0, Start_track
12, 0, Title_t, "Vilino II"
12, 0, Program_c, 11, 48
12, 0, Control_c, 11, 7, 127
12, 0, Control_c, 11, 10, 44
12, 1440, Note_on_c, 11, 65, 127
12, 2016, Note_on_c, 11, 65, 0
12, 2160, Note_on_c, 11, 56, 100
12, 2352, Note_on_c, 11, 56, 0
12, 2400, Note_on_c, 11, 56, 100
12, 2592, Note_on_c, 11, 56, 0
12, 2820, Note_on_c, 11, 56, 100
12, 2868, Note_on_c, 11, 56, 0
12, 2880, Note_on_c, 11, 55, 100
12, 3072, Note_on_c, 11, 55, 0
12, 3120, Note_on_c, 11, 56, 100
12, 3312, Note_on_c, 11, 56, 0
12, 3540, Note_on_c, 11, 60, 100
12, 3588, Note_on_c, 11, 60, 0
12, 3600, Note_on_c, 11, 59, 100
12, 3792, Note_on_c, 11, 59, 0
12, 3840, Note_on_c, 11, 60, 100
12, 4032, Note_on_c, 11, 60, 0
12, 4260, Note_on_c, 11, 55, 50
12, 4308, Note_on_c, 11, 55, 0
12, 4320, Note_on_c, 11, 55, 50
12, 4416, Note_on_c, 11, 55, 0
12, 6600, Note_on_c, 11, 56, 50
12, 6720, Note_on_c, 11, 56, 0
12, 6720, Note_on_c, 11, 55, 50
12, 6840, Note_on_c, 11, 55, 0
12, 6840, Note_on_c, 11, 58, 50
12, 7200, Note_on_c, 11, 58, 0
12, 7200, Note_on_c, 11, 65, 70
12, 7776, Note_on_c, 11, 65, 0
12, 7920, Note_on_c, 11, 56, 127
12, 8112, Note_on_c, 11, 56, 0
12, 8160, Note_on_c, 11, 56, 127
12, 8352, Note_on_c, 11, 56, 0
12, 8580, Note_on_c, 11, 56, 127
12, 8628, Note_on_c, 11, 56, 0
12, 8640, Note_on_c, 11, 55, 127
12, 8832, Note_on_c, 11, 55, 0
12, 8880, Note_on_c, 11, 56, 127
12, 9072, Note_on_c, 11, 56, 0
12, 11280, Note_on_c, 11, 56, 50
12, 11472, Note_on_c, 11, 56, 0
12, 11520, Note_on_c, 11, 56, 50
12, 11544, Note_on_c, 11, 56, 0
12, 11550, Note_on_c, 11, 61, 50
12, 11574, Note_on_c, 11, 61, 0
12, 11580, Note_on_c, 11, 61, 50
12, 11604, Note_on_c, 11, 61, 0
12, 11610, Note_on_c, 11, 61, 50
12, 11634, Note_on_c, 11, 61, 0
12, 11640, Note_on_c, 11, 61, 50
12, 11664, Note_on_c, 11, 61, 0
12, 11670, Note_on_c, 11, 61, 50
12, 11694, Note_on_c, 11, 61, 0
12, 11700, Note_on_c, 11, 61, 50
12, 11724, Note_on_c, 11, 61, 0
12, 11730, Note_on_c, 11, 61, 50
12, 11754, Note_on_c, 11, 61, 0
12, 11760, Note_on_c, 11, 61, 50
12, 11784, Note_on_c, 11, 61, 0
12, 11790, Note_on_c, 11, 61, 50
12, 11814, Note_on_c, 11, 61, 0
12, 11820, Note_on_c, 11, 61, 50
12, 11844, Note_on_c, 11, 61, 0
12, 11850, Note_on_c, 11, 61, 50
12, 11874, Note_on_c, 11, 61, 0
12, 11880, Note_on_c, 11, 61, 50
12, 11904, Note_on_c, 11, 61, 0
12, 11910, Note_on_c, 11, 61, 50
12, 11934, Note_on_c, 11, 61, 0
12, 11940, Note_on_c, 11, 61, 50
12, 11964, Note_on_c, 11, 61, 0
12, 11970, Note_on_c, 11, 61, 50
12, 11994, Note_on_c, 11, 61, 0
12, 12000, Note_on_c, 11, 61, 50
12, 12024, Note_on_c, 11, 61, 0
12, 12030, Note_on_c, 11, 61, 50
12, 12054, Note_on_c, 11, 61, 0
12, 12060, Note_on_c, 11, 61, 50
12, 12084, Note_on_c, 11, 61, 0
12, 12090, Note_on_c, 11, 61, 50
12, 12114, Note_on_c, 11, 61, 0
12, 12120, Note_on_c, 11, 61, 50
12, 12144, Note_on_c, 11, 61, 0
12, 12150, Note_on_c, 11, 61, 50
12, 12174, Note_on_c, 11, 61, 0
12, 12180, Note_on_c, 11, 61, 50
12, 12204, Note_on_c, 11, 61, 0
12, 12210, Note_on_c, 11, 61, 50
12, 12234, Note_on_c, 11, 61, 0
12, 12240, Note_on_c, 11, 61, 50
12, 12264, Note_on_c, 11, 61, 0
12, 12270, Note_on_c, 11, 61, 50
12, 12294, Note_on_c, 11, 61, 0
12, 12300, Note_on_c, 11, 61, 50
12, 12324, Note_on_c, 11, 61, 0
12, 12330, Note_on_c, 11, 61, 50
12, 12354, Note_on_c, 11, 61, 0
12, 12360, Note_on_c, 11, 61, 50
12, 12384, Note_on_c, 11, 61, 0
12, 12390, Note_on_c, 11, 61, 50
12, 12414, Note_on_c, 11, 61, 0
12, 12420, Note_on_c, 11, 61, 50
12, 12444, Note_on_c, 11, 61, 0
12, 12450, Note_on_c, 11, 61, 50
12, 12474, Note_on_c, 11, 61, 0
12, 12480, Note_on_c, 11, 61, 50
12, 12504, Note_on_c, 11, 61, 0
12, 12510, Note_on_c, 11, 61, 50
12, 12534, Note_on_c, 11, 61, 0
12, 12540, Note_on_c, 11, 61, 50
12, 12564, Note_on_c, 11, 61, 0
12, 12570, Note_on_c, 11, 61, 50
12, 12594, Note_on_c, 11, 61, 0
12, 12600, Note_on_c, 11, 61, 50
12, 12624, Note_on_c, 11, 61, 0
12, 12630, Note_on_c, 11, 61, 50
12, 12654, Note_on_c, 11, 61, 0
12, 12660, Note_on_c, 11, 61, 50
12, 12684, Note_on_c, 11, 61, 0
12, 12690, Note_on_c, 11, 61, 50
12, 12714, Note_on_c, 11, 61, 0
12, 12720, Note_on_c, 11, 61, 50
12, 12744, Note_on_c, 11, 61, 0
12, 12750, Note_on_c, 11, 61, 50
12, 12774, Note_on_c, 11, 61, 0
12, 12780, Note_on_c, 11, 61, 50
12, 12804, Note_on_c, 11, 61, 0
12, 12810, Note_on_c, 11, 61, 50
12, 12834, Note_on_c, 11, 61, 0
12, 12840, Note_on_c, 11, 61, 50
12, 12864, Note_on_c, 11, 61, 0
12, 12870, Note_on_c, 11, 61, 50
12, 12894, Note_on_c, 11, 61, 0
12, 12900, Note_on_c, 11, 61, 50
12, 12924, Note_on_c, 11, 61, 0
12, 12930, Note_on_c, 11, 61, 50
12, 12954, Note_on_c, 11, 61, 0
12, 12960, Note_on_c, 11, 63, 50
12, 12984, Note_on_c, 11, 63, 0
12, 12990, Note_on_c, 11, 63, 50
12, 13014, Note_on_c, 11, 63, 0
12, 13020, Note_on_c, 11, 63, 50
12, 13044, Note_on_c, 11, 63, 0
12, 13050, Note_on_c, 11, 63, 50
12, 13074, Note_on_c, 11, 63, 0
12, 13080, Note_on_c, 11, 63, 50
12, 13104, Note_on_c, 11, 63, 0
12, 13110, Note_on_c, 11, 63, 50
12, 13134, Note_on_c, 11, 63, 0
12, 13140, Note_on_c, 11, 63, 50
12, 13164, Note_on_c, 11, 63, 0
12, 13170, Note_on_c, 11, 63, 50
12, 13194, Note_on_c, 11, 63, 0
12, 13200, Note_on_c, 11, 63, 50
12, 13224, Note_on_c, 11, 63, 0
12, 13230, Note_on_c, 11, 63, 50
12, 13254, Note_on_c, 11, 63, 0
12, 13260, Note_on_c, 11, 63, 50
12, 13284, Note_on_c, 11, 63, 0
12, 13290, Note_on_c, 11, 63, 50
12, 13314, Note_on_c, 11, 63, 0
12, 13320, Note_on_c, 11, 63, 50
12, 13344, Note_on_c, 11, 63, 0
12, 13350, Note_on_c, 11, 63, 50
12, 13374, Note_on_c, 11, 63, 0
12, 13380, Note_on_c, 11, 63, 50
12, 13404, Note_on_c, 11, 63, 0
12, 13410, Note_on_c, 11, 63, 50
12, 13434, Note_on_c, 11, 63, 0
12, 13440, Note_on_c, 11, 63, 50
12, 13464, Note_on_c, 11, 63, 0
12, 13470, Note_on_c, 11, 63, 50
12, 13494, Note_on_c, 11, 63, 0
12, 13500, Note_on_c, 11, 63, 50
12, 13524, Note_on_c, 11, 63, 0
12, 13530, Note_on_c, 11, 63, 50
12, 13554, Note_on_c, 11, 63, 0
12, 13560, Note_on_c, 11, 63, 50
12, 13584, Note_on_c, 11, 63, 0
12, 13590, Note_on_c, 11, 63, 50
12, 13614, Note_on_c, 11, 63, 0
12, 13620, Note_on_c, 11, 63, 50
12, 13644, Note_on_c, 11, 63, 0
12, 13650, Note_on_c, 11, 63, 50
12, 13674, Note_on_c, 11, 63, 0
12, 13680, Note_on_c, 11, 63, 50
12, 13704, Note_on_c, 11, 63, 0
12, 13710, Note_on_c, 11, 63, 50
12, 13734, Note_on_c, 11, 63, 0
12, 13740, Note_on_c, 11, 63, 50
12, 13764, Note_on_c, 11, 63, 0
12, 13770, Note_on_c, 11, 63, 50
12, 13794, Note_on_c, 11, 63, 0
12, 13800, Note_on_c, 11, 63, 50
12, 13824, Note_on_c, 11, 63, 0
12, 13830, Note_on_c, 11, 63, 50
12, 13854, Note_on_c, 11, 63, 0
12, 13860, Note_on_c, 11, 63, 50
12, 13884, Note_on_c, 11, 63, 0
12, 13890, Note_on_c, 11, 63, 50
12, 13914, Note_on_c, 11, 63, 0
12, 13920, Note_on_c, 11, 63, 50
12, 13944, Note_on_c, 11, 63, 0
12, 13950, Note_on_c, 11, 63, 50
12, 13974, Note_on_c, 11, 63, 0
12, 13980, Note_on_c, 11, 63, 50
12, 14004, Note_on_c, 11, 63, 0
12, 14010, Note_on_c, 11, 63, 50
12, 14034, Note_on_c, 11, 63, 0
12, 14040, Note_on_c, 11, 63, 50
12, 14064, Note_on_c, 11, 63, 0
12, 14070, Note_on_c, 11, 63, 50
12, 14094, Note_on_c, 11, 63, 0
12, 14100, Note_on_c, 11, 63, 50
12, 14124, Note_on_c, 11, 63, 0
12, 14130, Note_on_c, 11, 63, 50
12, 14154, Note_on_c, 11, 63, 0
12, 14160, Note_on_c, 11, 63, 50
12, 14184, Note_on_c, 11, 63, 0
12, 14190, Note_on_c, 11, 63, 50
12, 14214, Note_on_c, 11, 63, 0
12, 14220, Note_on_c, 11, 63, 50
12, 14244, Note_on_c, 11, 63, 0
12, 14250, Note_on_c, 11, 63, 50
12, 14274, Note_on_c, 11, 63, 0
12, 14280, Note_on_c, 11, 63, 50
12, 14304, Note_on_c, 11, 63, 0
12, 14310, Note_on_c, 11, 63, 50
12, 14334, Note_on_c, 11, 63, 0
12, 14340, Note_on_c, 11, 63, 50
12, 14364, Note_on_c, 11, 63, 0
12, 14370, Note_on_c, 11, 63, 50
12, 14394, Note_on_c, 11, 63, 0
12, 14400, Note_on_c, 11, 61, 50
12, 14424, Note_on_c, 11, 61, 0
12, 14430, Note_on_c, 11, 61, 50
12, 14454, Note_on_c, 11, 61, 0
12, 14460, Note_on_c, 11, 61, 50
12, 14484, Note_on_c, 11, 61, 0
12, 14490, Note_on_c, 11, 61, 50
12, 14514, Note_on_c, 11, 61, 0
12, 14520, Note_on_c, 11, 61, 50
12, 14544, Note_on_c, 11, 61, 0
12, 14550, Note_on_c, 11, 61, 50
12, 14574, Note_on_c, 11, 61, 0
12, 14580, Note_on_c, 11, 61, 50
12, 14604, Note_on_c, 11, 61, 0
12, 14610, Note_on_c, 11, 61, 50
12, 14634, Note_on_c, 11, 61, 0
12, 14640, Note_on_c, 11, 61, 50
12, 14664, Note_on_c, 11, 61, 0
12, 14670, Note_on_c, 11, 61, 50
12, 14694, Note_on_c, 11, 61, 0
12, 14700, Note_on_c, 11, 61, 50
12, 14724, Note_on_c, 11, 61, 0
12, 14730, Note_on_c, 11, 61, 50
12, 14754, Note_on_c, 11, 61, 0
12, 14760, Note_on_c, 11, 61, 50
12, 14784, Note_on_c, 11, 61, 0
12, 14790, Note_on_c, 11, 61, 50
12, 14814, Note_on_c, 11, 61, 0
12, 14820, Note_on_c, 11, 61, 50
12, 14844, Note_on_c, 11, 61, 0
12, 14850, Note_on_c, 11, 61, 50
12, 14874, Note_on_c, 11, 61, 0
12, 14880, Note_on_c, 11, 61, 50
12, 14904, Note_on_c, 11, 61, 0
12, 14910, Note_on_c, 11, 61, 50
12, 14934, Note_on_c, 11, 61, 0
12, 14940, Note_on_c, 11, 61, 50
12, 14964, Note_on_c, 11, 61, 0
12, 14970, Note_on_c, 11, 61, 50
12, 14994, Note_on_c, 11, 61, 0
12, 15000, Note_on_c, 11, 61, 50
12, 15024, Note_on_c, 11, 61, 0
12, 15030, Note_on_c, 11, 61, 50
12, 15054, Note_on_c, 11, 61, 0
12, 15060, Note_on_c, 11, 61, 50
12, 15084, Note_on_c, 11, 61, 0
12, 15090, Note_on_c, 11, 61, 50
12, 15114, Note_on_c, 11, 61, 0
12, 15120, Note_on_c, 11, 61, 50
12, 15144, Note_on_c, 11, 61, 0
12, 15150, Note_on_c, 11, 61, 50
12, 15174, Note_on_c, 11, 61, 0
12, 15180, Note_on_c, 11, 61, 50
12, 15204, Note_on_c, 11, 61, 0
12, 15210, Note_on_c, 11, 61, 50
12, 15234, Note_on_c, 11, 61, 0
12, 15240, Note_on_c, 11, 61, 50
12, 15264, Note_on_c, 11, 61, 0
12, 15270, Note_on_c, 11, 61, 50
12, 15294, Note_on_c, 11, 61, 0
12, 15300, Note_on_c, 11, 61, 50
12, 15324, Note_on_c, 11, 61, 0
12, 15330, Note_on_c, 11, 61, 50
12, 15354, Note_on_c, 11, 61, 0
12, 15360, Note_on_c, 11, 61, 50
12, 15384, Note_on_c, 11, 61, 0
12, 15390, Note_on_c, 11, 61, 50
12, 15414, Note_on_c, 11, 61, 0
12, 15420, Note_on_c, 11, 61, 50
12, 15444, Note_on_c, 11, 61, 0
12, 15450, Note_on_c, 11, 61, 50
12, 15474, Note_on_c, 11, 61, 0
12, 15480, Note_on_c, 11, 61, 50
12, 15504, Note_on_c, 11, 61, 0
12, 15510, Note_on_c, 11, 61, 50
12, 15534, Note_on_c, 11, 61, 0
12, 15540, Note_on_c, 11, 61, 50
12, 15564, Note_on_c, 11, 61, 0
12, 15570, Note_on_c, 11, 61, 50
12, 15594, Note_on_c, 11, 61, 0
12, 15600, Note_on_c, 11, 61, 50
12, 15624, Note_on_c, 11, 61, 0
12, 15630, Note_on_c, 11, 61, 50
12, 15654, Note_on_c, 11, 61, 0
12, 15660, Note_on_c, 11, 61, 50
12, 15684, Note_on_c, 11, 61, 0
12, 15690, Note_on_c, 11, 61, 50
12, 15714, Note_on_c, 11, 61, 0
12, 15720, Note_on_c, 11, 61, 50
12, 15744, Note_on_c, 11, 61, 0
12, 15750, Note_on_c, 11, 61, 50
12, 15774, Note_on_c, 11, 61, 0
12, 15780, Note_on_c, 11, 61, 50
12, 15804, Note_on_c, 11, 61, 0
12, 15810, Note_on_c, 11, 61, 50
12, 15834, Note_on_c, 11, 61, 0
12, 15840, Note_on_c, 11, 60, 50
12, 15840, Note_on_c, 11, 67, 50
12, 15864, Note_on_c, 11, 67, 0
12, 15864, Note_on_c, 11, 60, 0
12, 15870, Note_on_c, 11, 67, 50
12, 15870, Note_on_c, 11, 60, 50
12, 15894, Note_on_c, 11, 60, 0
12, 15894, Note_on_c, 11, 67, 0
12, 15900, Note_on_c, 11, 67, 50
12, 15900, Note_on_c, 11, 60, 50
12, 15924, Note_on_c, 11, 60, 0
12, 15924, Note_on_c, 11, 67, 0
12, 15930, Note_on_c, 11, 67, 50
12, 15930, Note_on_c, 11, 60, 50
12, 15954, Note_on_c, 11, 60, 0
12, 15954, Note_on_c, 11, 67, 0
12, 15960, Note_on_c, 11, 67, 50
12, 15960, Note_on_c, 11, 60, 50
12, 15984, Note_on_c, 11, 60, 0
12, 15984, Note_on_c, 11, 67, 0
12, 15990, Note_on_c, 11, 60, 50
12, 15990, Note_on_c, 11, 67, 50
12, 16014, Note_on_c, 11, 67, 0
12, 16014, Note_on_c, 11, 60, 0
12, 16020, Note_on_c, 11, 60, 50
12, 16020, Note_on_c, 11, 67, 50
12, 16044, Note_on_c, 11, 67, 0
12, 16044, Note_on_c, 11, 60, 0
12, 16050, Note_on_c, 11, 60, 50
12, 16050, Note_on_c, 11, 67, 50
12, 16074, Note_on_c, 11, 67, 0
12, 16074, Note_on_c, 11, 60, 0
12, 16080, Note_on_c, 11, 67, 50
12, 16080, Note_on_c, 11, 60, 50
12, 16104, Note_on_c, 11, 60, 0
12, 16104, Note_on_c, 11, 67, 0
12, 16110, Note_on_c, 11, 60, 50
12, 16110, Note_on_c, 11, 67, 50
12, 16134, Note_on_c, 11, 67, 0
12, 16134, Note_on_c, 11, 60, 0
12, 16140, Note_on_c, 11, 60, 50
12, 16140, Note_on_c, 11, 67, 50
12, 16164, Note_on_c, 11, 67, 0
12, 16164, Note_on_c, 11, 60, 0
12, 16170, Note_on_c, 11, 60, 50
12, 16170, Note_on_c, 11, 67, 50
12, 16194, Note_on_c, 11, 67, 0
12, 16194, Note_on_c, 11, 60, 0
12, 16200, Note_on_c, 11, 67, 50
12, 16200, Note_on_c, 11, 60, 50
12, 16224, Note_on_c, 11, 60, 0
12, 16224, Note_on_c, 11, 67, 0
12, 16230, Note_on_c, 11, 60, 50
12, 16230, Note_on_c, 11, 67, 50
12, 16254, Note_on_c, 11, 67, 0
12, 16254, Note_on_c, 11, 60, 0
12, 16260, Note_on_c, 11, 60, 50
12, 16260, Note_on_c, 11, 67, 50
12, 16284, Note_on_c, 11, 67, 0
12, 16284, Note_on_c, 11, 60, 0
12, 16290, Note_on_c, 11, 60, 50
12, 16290, Note_on_c, 11, 67, 50
12, 16314, Note_on_c, 11, 67, 0
12, 16314, Note_on_c, 11, 60, 0
12, 16320, Note_on_c, 11, 60, 50
12, 16320, Note_on_c, 11, 67, 50
12, 16344, Note_on_c, 11, 67, 0
12, 16344, Note_on_c, 11, 60, 0
12, 16350, Note_on_c, 11, 67, 50
12, 16350, Note_on_c, 11, 60, 50
12, 16374, Note_on_c, 11, 60, 0
12, 16374, Note_on_c, 11, 67, 0
12, 16380, Note_on_c, 11, 67, 50
12, 16380, Note_on_c, 11, 60, 50
12, 16404, Note_on_c, 11, 60, 0
12, 16404, Note_on_c, 11, 67, 0
12, 16410, Note_on_c, 11, 67, 50
12, 16410, Note_on_c, 11, 60, 50
12, 16434, Note_on_c, 11, 60, 0
12, 16434, Note_on_c, 11, 67, 0
12, 16440, Note_on_c, 11, 60, 50
12, 16440, Note_on_c, 11, 67, 50
12, 16464, Note_on_c, 11, 67, 0
12, 16464, Note_on_c, 11, 60, 0
12, 16470, Note_on_c, 11, 67, 50
12, 16470, Note_on_c, 11, 60, 50
12, 16494, Note_on_c, 11, 60, 0
12, 16494, Note_on_c, 11, 67, 0
12, 16500, Note_on_c, 11, 67, 50
12, 16500, Note_on_c, 11, 60, 50
12, 16524, Note_on_c, 11, 60, 0
12, 16524, Note_on_c, 11, 67, 0
12, 16530, Note_on_c, 11, 67, 50
12, 16530, Note_on_c, 11, 60, 50
12, 16554, Note_on_c, 11, 60, 0
12, 16554, Note_on_c, 11, 67, 0
12, 16560, Note_on_c, 11, 60, 50
12, 16560, Note_on_c, 11, 67, 50
12, 16656, Note_on_c, 11, 67, 0
12, 16656, Note_on_c, 11, 60, 0
12, 17220, Note_on_c, 11, 60, 50
12, 17220, Note_on_c, 11, 67, 50
12, 17268, Note_on_c, 11, 67, 0
12, 17268, Note_on_c, 11, 60, 0
12, 17280, Note_on_c, 11, 60, 50
12, 17280, Note_on_c, 11, 67, 50
12, 17376, Note_on_c, 11, 67, 0
12, 17376, Note_on_c, 11, 60, 0
12, 17940, Note_on_c, 11, 67, 50
12, 17940, Note_on_c, 11, 60, 50
12, 17988, Note_on_c, 11, 60, 0
12, 17988, Note_on_c, 11, 67, 0
12, 18000, Note_on_c, 11, 67, 50
12, 18000, Note_on_c, 11, 60, 50
12, 18096, Note_on_c, 11, 60, 0
12, 18096, Note_on_c, 11, 67, 0
12, 20040, Note_on_c, 11, 68, 127
12, 20088, Note_on_c, 11, 68, 0
12, 20100, Note_on_c, 11, 68, 56
12, 20148, Note_on_c, 11, 68, 0
12, 20160, Note_on_c, 11, 68, 56
12, 20208, Note_on_c, 11, 68, 0
12, 20220, Note_on_c, 11, 68, 56
12, 20268, Note_on_c, 11, 68, 0
12, 20280, Note_on_c, 11, 68, 56
12, 20328, Note_on_c, 11, 68, 0
12, 20340, Note_on_c, 11, 68, 56
12, 20388, Note_on_c, 11, 68, 0
12, 20400, Note_on_c, 11, 68, 56
12, 20448, Note_on_c, 11, 68, 0
12, 20460, Note_on_c, 11, 68, 56
12, 20508, Note_on_c, 11, 68, 0
12, 20520, Note_on_c, 11, 68, 56
12, 20568, Note_on_c, 11, 68, 0
12, 20580, Note_on_c, 11, 68, 56
12, 20628, Note_on_c, 11, 68, 0
12, 20640, Note_on_c, 11, 68, 56
12, 20688, Note_on_c, 11, 68, 0
12, 20700, Note_on_c, 11, 68, 56
12, 20748, Note_on_c, 11, 68, 0
12, 20760, Note_on_c, 11, 68, 56
12, 20808, Note_on_c, 11, 68, 0
12, 20820, Note_on_c, 11, 68, 56
12, 20868, Note_on_c, 11, 68, 0
12, 20880, Note_on_c, 11, 68, 56
12, 20928, Note_on_c, 11, 68, 0
12, 20940, Note_on_c, 11, 68, 56
12, 20988, Note_on_c, 11, 68, 0
12, 21000, Note_on_c, 11, 68, 56
12, 21048, Note_on_c, 11, 68, 0
12, 21060, Note_on_c, 11, 68, 56
12, 21108, Note_on_c, 11, 68, 0
12, 21120, Note_on_c, 11, 71, 56
12, 21168, Note_on_c, 11, 71, 0
12, 21180, Note_on_c, 11, 71, 56
12, 21228, Note_on_c, 11, 71, 0
12, 21240, Note_on_c, 11, 72, 56
12, 21288, Note_on_c, 11, 72, 0
12, 21300, Note_on_c, 11, 72, 56
12, 21348, Note_on_c, 11, 72, 0
12, 21360, Note_on_c, 11, 72, 56
12, 21408, Note_on_c, 11, 72, 0
12, 21420, Note_on_c, 11, 72, 56
12, 21468, Note_on_c, 11, 72, 0
12, 21480, Note_on_c, 11, 67, 112
12, 21480, Note_on_c, 11, 70, 112
12, 21528, Note_on_c, 11, 70, 0
12, 21528, Note_on_c, 11, 67, 0
12, 21540, Note_on_c, 11, 67, 56
12, 21540, Note_on_c, 11, 70, 56
12, 21588, Note_on_c, 11, 70, 0
12, 21588, Note_on_c, 11, 67, 0
12, 21600, Note_on_c, 11, 70, 56
12, 21600, Note_on_c, 11, 67, 56
12, 21648, Note_on_c, 11, 67, 0
12, 21648, Note_on_c, 11, 70, 0
12, 21660, Note_on_c, 11, 70, 56
12, 21660, Note_on_c, 11, 67, 56
12, 21708, Note_on_c, 11, 67, 0
12, 21708, Note_on_c, 11, 70, 0
12, 21720, Note_on_c, 11, 70, 56
12, 21720, Note_on_c, 11, 67, 56
12, 21768, Note_on_c, 11, 67, 0
12, 21768, Note_on_c, 11, 70, 0
12, 21780, Note_on_c, 11, 70, 56
12, 21780, Note_on_c, 11, 67, 56
12, 21828, Note_on_c, 11, 67, 0
12, 21828, Note_on_c, 11, 70, 0
12, 21840, Note_on_c, 11, 70, 56
12, 21840, Note_on_c, 11, 67, 56
12, 21888, Note_on_c, 11, 67, 0
12, 21888, Note_on_c, 11, 70, 0
12, 21900, Note_on_c, 11, 70, 56
12, 21900, Note_on_c, 11, 67, 56
12, 21948, Note_on_c, 11, 67, 0
12, 21948, Note_on_c, 11, 70, 0
12, 21960, Note_on_c, 11, 67, 56
12, 21960, Note_on_c, 11, 70, 56
12, 22008, Note_on_c, 11, 70, 0
12, 22008, Note_on_c, 11, 67, 0
12, 22020, Note_on_c, 11, 67, 56
12, 22020, Note_on_c, 11, 70, 56
12, 22068, Note_on_c, 11, 70, 0
12, 22068, Note_on_c, 11, 67, 0
12, 22080, Note_on_c, 11, 67, 56
12, 22080, Note_on_c, 11, 70, 56
12, 22128, Note_on_c, 11, 70, 0
12, 22128, Note_on_c, 11, 67, 0
12, 22140, Note_on_c, 11, 67, 56
12, 22140, Note_on_c, 11, 70, 56
12, 22188, Note_on_c, 11, 70, 0
12, 22188, Note_on_c, 11, 67, 0
12, 22200, Note_on_c, 11, 67, 56
12, 22200, Note_on_c, 11, 70, 56
12, 22248, Note_on_c, 11, 70, 0
12, 22248, Note_on_c, 11, 67, 0
12, 22260, Note_on_c, 11, 67, 56
12, 22260, Note_on_c, 11, 70, 56
12, 22308, Note_on_c, 11, 70, 0
12, 22308, Note_on_c, 11, 67, 0
12, 22320, Note_on_c, 11, 67, 56
12, 22320, Note_on_c, 11, 70, 56
12, 22368, Note_on_c, 11, 70, 0
12, 22368, Note_on_c, 11, 67, 0
12, 22380, Note_on_c, 11, 67, 56
12, 22380, Note_on_c, 11, 70, 56
12, 22428, Note_on_c, 11, 70, 0
12, 22428, Note_on_c, 11, 67, 0
12, 22440, Note_on_c, 11, 67, 56
12, 22440, Note_on_c, 11, 70, 56
12, 22488, Note_on_c, 11, 70, 0
12, 22488, Note_on_c, 11, 67, 0
12, 22500, Note_on_c, 11, 67, 56
12, 22500, Note_on_c, 11, 70, 56
12, 22548, Note_on_c, 11, 70, 0
12, 22548, Note_on_c, 11, 67, 0
12, 22560, Note_on_c, 11, 67, 56
12, 22560, Note_on_c, 11, 70, 56
12, 22608, Note_on_c, 11, 70, 0
12, 22608, Note_on_c, 11, 67, 0
12, 22620, Note_on_c, 11, 67, 56
12, 22620, Note_on_c, 11, 70, 56
12, 22668, Note_on_c, 11, 70, 0
12, 22668, Note_on_c, 11, 67, 0
12, 22680, Note_on_c, 11, 70, 56
12, 22728, Note_on_c, 11, 70, 0
12, 22740, Note_on_c, 11, 70, 56
12, 22788, Note_on_c, 11, 70, 0
12, 22800, Note_on_c, 11, 68, 56
12, 22848, Note_on_c, 11, 68, 0
12, 22860, Note_on_c, 11, 68, 56
12, 22908, Note_on_c, 11, 68, 0
12, 22920, Note_on_c, 11, 65, 80
12, 23496, Note_on_c, 11, 65, 0
12, 24240, Note_on_c, 11, 65, 80
12, 24936, Note_on_c, 11, 65, 0
12, 25020, Note_on_c, 11, 68, 73
12, 25068, Note_on_c, 11, 68, 0
12, 25080, Note_on_c, 11, 68, 65
12, 25128, Note_on_c, 11, 68, 0
12, 25140, Note_on_c, 11, 67, 58
12, 25188, Note_on_c, 11, 67, 0
12, 25200, Note_on_c, 11, 67, 50
12, 25296, Note_on_c, 11, 67, 0
12, 25380, Note_on_c, 11, 70, 52
12, 25428, Note_on_c, 11, 70, 0
12, 25440, Note_on_c, 11, 70, 53
12, 25488, Note_on_c, 11, 70, 0
12, 25500, Note_on_c, 11, 68, 54
12, 25548, Note_on_c, 11, 68, 0
12, 25560, Note_on_c, 11, 68, 55
12, 25656, Note_on_c, 11, 68, 0
12, 25740, Note_on_c, 11, 77, 57
12, 25788, Note_on_c, 11, 77, 0
12, 25800, Note_on_c, 11, 77, 58
12, 25848, Note_on_c, 11, 77, 0
12, 25860, Note_on_c, 11, 76, 59
12, 25908, Note_on_c, 11, 76, 0
12, 25920, Note_on_c, 11, 76, 60
12, 26016, Note_on_c, 11, 76, 0
12, 26100, Note_on_c, 11, 79, 62
12, 26148, Note_on_c, 11, 79, 0
12, 26160, Note_on_c, 11, 79, 63
12, 26208, Note_on_c, 11, 79, 0
12, 26220, Note_on_c, 11, 77, 64
12, 26268, Note_on_c, 11, 77, 0
12, 26280, Note_on_c, 11, 77, 65
12, 26376, Note_on_c, 11, 77, 0
12, 26460, Note_on_c, 11, 80, 67
12, 26508, Note_on_c, 11, 80, 0
12, 26520, Note_on_c, 11, 80, 68
12, 26568, Note_on_c, 11, 80, 0
12, 26580, Note_on_c, 11, 79, 69
12, 26628, Note_on_c, 11, 79, 0
12, 26640, Note_on_c, 11, 79, 70
12, 26736, Note_on_c, 11, 79, 0
12, 26820, Note_on_c, 11, 70, 72
12, 26868, Note_on_c, 11, 70, 0
12, 26880, Note_on_c, 11, 72, 73
12, 26928, Note_on_c, 11, 72, 0
12, 26940, Note_on_c, 11, 73, 74
12, 26988, Note_on_c, 11, 73, 0
12, 27000, Note_on_c, 11, 73, 75
12, 27096, Note_on_c, 11, 73, 0
12, 27180, Note_on_c, 11, 67, 77
12, 27228, Note_on_c, 11, 67, 0
12, 27240, Note_on_c, 11, 68, 78
12, 27288, Note_on_c, 11, 68, 0
12, 27300, Note_on_c, 11, 70, 79
12, 27348, Note_on_c, 11, 70, 0
12, 27360, Note_on_c, 11, 70, 80
12, 27456, Note_on_c, 11, 70, 0
12, 27540, Note_on_c, 11, 64, 82
12, 27588, Note_on_c, 11, 64, 0
12, 27600, Note_on_c, 11, 65, 83
12, 27648, Note_on_c, 11, 65, 0
12, 27660, Note_on_c, 11, 67, 84
12, 27708, Note_on_c, 11, 67, 0
12, 27720, Note_on_c, 11, 67, 85
12, 27816, Note_on_c, 11, 67, 0
12, 27900, Note_on_c, 11, 67, 87
12, 27948, Note_on_c, 11, 67, 0
12, 27960, Note_on_c, 11, 68, 88
12, 28008, Note_on_c, 11, 68, 0
12, 28020, Note_on_c, 11, 70, 89
12, 28068, Note_on_c, 11, 70, 0
12, 28080, Note_on_c, 11, 70, 90
12, 28176, Note_on_c, 11, 70, 0
12, 28260, Note_on_c, 11, 70, 92
12, 28308, Note_on_c, 11, 70, 0
12, 28320, Note_on_c, 11, 72, 93
12, 28368, Note_on_c, 11, 72, 0
12, 28380, Note_on_c, 11, 73, 94
12, 28428, Note_on_c, 11, 73, 0
12, 28440, Note_on_c, 11, 73, 95
12, 28536, Note_on_c, 11, 73, 0
12, 28620, Note_on_c, 11, 67, 97
12, 28668, Note_on_c, 11, 67, 0
12, 28680, Note_on_c, 11, 68, 98
12, 28728, Note_on_c, 11, 68, 0
12, 28740, Note_on_c, 11, 70, 99
12, 28788, Note_on_c, 11, 70, 0
12, 28800, Note_on_c, 11, 70, 100
12, 28896, Note_on_c, 11, 70, 0
12, 28980, Note_on_c, 11, 64, 102
12, 29028, Note_on_c, 11, 64, 0
12, 29040, Note_on_c, 11, 65, 103
12, 29088, Note_on_c, 11, 65, 0
12, 29100, Note_on_c, 11, 67, 104
12, 29148, Note_on_c, 11, 67, 0
12, 29160, Note_on_c, 11, 67, 105
12, 29256, Note_on_c, 11, 67, 0
12, 29340, Note_on_c, 11, 67, 107
12, 29388, Note_on_c, 11, 67, 0
12, 29400, Note_on_c, 11, 68, 108
12, 29448, Note_on_c, 11, 68, 0
12, 29460, Note_on_c, 11, 70, 109
12, 29508, Note_on_c, 11, 70, 0
12, 29520, Note_on_c, 11, 70, 110
12, 29616, Note_on_c, 11, 70, 0
12, 29700, Note_on_c, 11, 70, 112
12, 29748, Note_on_c, 11, 70, 0
12, 29760, Note_on_c, 11, 72, 113
12, 29808, Note_on_c, 11, 72, 0
12, 29820, Note_on_c, 11, 73, 114
12, 29868, Note_on_c, 11, 73, 0
12, 29880, Note_on_c, 11, 73, 115
12, 29976, Note_on_c, 11, 73, 0
12, 30060, Note_on_c, 11, 70, 117
12, 30108, Note_on_c, 11, 70, 0
12, 30120, Note_on_c, 11, 72, 118
12, 30168, Note_on_c, 11, 72, 0
12, 30180, Note_on_c, 11, 73, 119
12, 30228, Note_on_c, 11, 73, 0
12, 30240, Note_on_c, 11, 73, 120
12, 30336, Note_on_c, 11, 73, 0
12, 30420, Note_on_c, 11, 70, 122
12, 30468, Note_on_c, 11, 70, 0
12, 30480, Note_on_c, 11, 72, 123
12, 30528, Note_on_c, 11, 72, 0
12, 30540, Note_on_c, 11, 73, 124
12, 30588, Note_on_c, 11, 73, 0
12, 30600, Note_on_c, 11, 73, 125
12, 30696, Note_on_c, 11, 73, 0
12, 30840, Note_on_c, 11, 72, 127
12, 30960, Note_on_c, 11, 72, 0
12, 30960, Note_on_c, 11, 73, 127
12, 31080, Note_on_c, 11, 73, 0
12, 31080, Note_on_c, 11, 72, 126
12, 31200, Note_on_c, 11, 72, 0
12, 31200, Note_on_c, 11, 68, 125
12, 31260, Note_on_c, 11, 68, 0
12, 31320, Note_on_c, 11, 65, 124
12, 31380, Note_on_c, 11, 65, 0
12, 31440, Note_on_c, 11, 61, 123
12, 31500, Note_on_c, 11, 61, 0
12, 31560, Note_on_c, 11, 60, 122
12, 31620, Note_on_c, 11, 60, 0
12, 31680, Note_on_c, 11, 56, 121
12, 31920, Note_on_c, 11, 56, 0
12, 31920, Note_on_c, 11, 56, 120
12, 32016, Note_on_c, 11, 56, 0
12, 32040, Note_on_c, 11, 55, 119
12, 32136, Note_on_c, 11, 55, 0
12, 32280, Note_on_c, 11, 72, 117
12, 32400, Note_on_c, 11, 72, 0
12, 32400, Note_on_c, 11, 73, 116
12, 32520, Note_on_c, 11, 73, 0
12, 32520, Note_on_c, 11, 72, 115
12, 32640, Note_on_c, 11, 72, 0
12, 32640, Note_on_c, 11, 70, 114
12, 32700, Note_on_c, 11, 70, 0
12, 32760, Note_on_c, 11, 67, 114
12, 32820, Note_on_c, 11, 67, 0
12, 32880, Note_on_c, 11, 64, 113
12, 32940, Note_on_c, 11, 64, 0
12, 33000, Note_on_c, 11, 61, 112
12, 33060, Note_on_c, 11, 61, 0
12, 33120, Note_on_c, 11, 60, 111
12, 33360, Note_on_c, 11, 60, 0
12, 33360, Note_on_c, 11, 55, 109
12, 33420, Note_on_c, 11, 55, 0
12, 33420, Note_on_c, 11, 58, 109
12, 33468, Note_on_c, 11, 58, 0
12, 33480, Note_on_c, 11, 56, 108
12, 33576, Note_on_c, 11, 56, 0
12, 33660, Note_on_c, 11, 65, 107
12, 33708, Note_on_c, 11, 65, 0
12, 33720, Note_on_c, 11, 67, 107
12, 33768, Note_on_c, 11, 67, 0
12, 33780, Note_on_c, 11, 68, 106
12, 33828, Note_on_c, 11, 68, 0
12, 33840, Note_on_c, 11, 70, 106
12, 33936, Note_on_c, 11, 70, 0
12, 34020, Note_on_c, 11, 67, 104
12, 34068, Note_on_c, 11, 67, 0
12, 34080, Note_on_c, 11, 68, 104
12, 34128, Note_on_c, 11, 68, 0
12, 34140, Note_on_c, 11, 70, 104
12, 34188, Note_on_c, 11, 70, 0
12, 34200, Note_on_c, 11, 72, 103
12, 34296, Note_on_c, 11, 72, 0
12, 34380, Note_on_c, 11, 68, 102
12, 34428, Note_on_c, 11, 68, 0
12, 34440, Note_on_c, 11, 70, 101
12, 34488, Note_on_c, 11, 70, 0
12, 34500, Note_on_c, 11, 72, 101
12, 34548, Note_on_c, 11, 72, 0
12, 34560, Note_on_c, 11, 73, 100
12, 34656, Note_on_c, 11, 73, 0
12, 34680, Note_on_c, 11, 73, 109
12, 34776, Note_on_c, 11, 73, 0
12, 34800, Note_on_c, 11, 74, 118
12, 34896, Note_on_c, 11, 74, 0
12, 34920, Note_on_c, 11, 77, 127
12, 35016, Note_on_c, 11, 77, 0
12, 35100, Note_on_c, 11, 65, 101
12, 35148, Note_on_c, 11, 65, 0
12, 35160, Note_on_c, 11, 67, 102
12, 35208, Note_on_c, 11, 67, 0
12, 35220, Note_on_c, 11, 68, 103
12, 35268, Note_on_c, 11, 68, 0
12, 35280, Note_on_c, 11, 70, 104
12, 35376, Note_on_c, 11, 70, 0
12, 35460, Note_on_c, 11, 67, 108
12, 35508, Note_on_c, 11, 67, 0
12, 35520, Note_on_c, 11, 68, 109
12, 35568, Note_on_c, 11, 68, 0
12, 35580, Note_on_c, 11, 70, 111
12, 35628, Note_on_c, 11, 70, 0
12, 35640, Note_on_c, 11, 72, 112
12, 35736, Note_on_c, 11, 72, 0
12, 35820, Note_on_c, 11, 68, 115
12, 35868, Note_on_c, 11, 68, 0
12, 35880, Note_on_c, 11, 70, 117
12, 35928, Note_on_c, 11, 70, 0
12, 35940, Note_on_c, 11, 72, 118
12, 35988, Note_on_c, 11, 72, 0
12, 36000, Note_on_c, 11, 73, 119
12, 36096, Note_on_c, 11, 73, 0
12, 36120, Note_on_c, 11, 73, 122
12, 36216, Note_on_c, 11, 73, 0
12, 36240, Note_on_c, 11, 74, 124
12, 36336, Note_on_c, 11, 74, 0
12, 36360, Note_on_c, 11, 75, 127
12, 36600, Note_on_c, 11, 75, 0
12, 36600, Note_on_c, 11, 73, 127
12, 36660, Note_on_c, 11, 73, 0
12, 36660, Note_on_c, 11, 70, 127
12, 36708, Note_on_c, 11, 70, 0
12, 36720, Note_on_c, 11, 75, 127
12, 36960, Note_on_c, 11, 75, 0
12, 36960, Note_on_c, 11, 72, 127
12, 37020, Note_on_c, 11, 72, 0
12, 37020, Note_on_c, 11, 68, 127
12, 37068, Note_on_c, 11, 68, 0
12, 37080, Note_on_c, 11, 74, 127
12, 37320, Note_on_c, 11, 74, 0
12, 37320, Note_on_c, 11, 68, 127
12, 37380, Note_on_c, 11, 68, 0
12, 37380, Note_on_c, 11, 65, 127
12, 37428, Note_on_c, 11, 65, 0
12, 37440, Note_on_c, 11, 67, 127
12, 37632, Note_on_c, 11, 67, 0
12, 37680, Note_on_c, 11, 67, 127
12, 37728, Note_on_c, 11, 67, 0
12, 37740, Note_on_c, 11, 63, 127
12, 37788, Note_on_c, 11, 63, 0
12, 37800, Note_on_c, 11, 70, 127
12, 37992, Note_on_c, 11, 70, 0
12, 38040, Note_on_c, 11, 67, 127
12, 38088, Note_on_c, 11, 67, 0
12, 38100, Note_on_c, 11, 61, 127
12, 38148, Note_on_c, 11, 61, 0
12, 38160, Note_on_c, 11, 68, 127
12, 38352, Note_on_c, 11, 68, 0
12, 38400, Note_on_c, 11, 63, 127
12, 38448, Note_on_c, 11, 63, 0
12, 38460, Note_on_c, 11, 60, 127
12, 38508, Note_on_c, 11, 60, 0
12, 38520, Note_on_c, 11, 65, 127
12, 38712, Note_on_c, 11, 65, 0
12, 38760, Note_on_c, 11, 62, 127
12, 38808, Note_on_c, 11, 62, 0
12, 38820, Note_on_c, 11, 56, 127
12, 38868, Note_on_c, 11, 56, 0
12, 38880, Note_on_c, 11, 55, 127
12, 38976, Note_on_c, 11, 55, 0
12, 39240, Note_on_c, 11, 60, 127
12, 39300, Note_on_c, 11, 60, 0
12, 39360, Note_on_c, 11, 60, 127
12, 39420, Note_on_c, 11, 60, 0
12, 39540, Note_on_c, 11, 60, 127
12, 39588, Note_on_c, 11, 60, 0
12, 39600, Note_on_c, 11, 61, 127
12, 39696, Note_on_c, 11, 61, 0
12, 39720, Note_on_c, 11, 61, 127
12, 39816, Note_on_c, 11, 61, 0
12, 40680, Note_on_c, 11, 60, 127
12, 40740, Note_on_c, 11, 60, 0
12, 40800, Note_on_c, 11, 60, 127
12, 40860, Note_on_c, 11, 60, 0
12, 40980, Note_on_c, 11, 60, 127
12, 41028, Note_on_c, 11, 60, 0
12, 41040, Note_on_c, 11, 61, 127
12, 41136, Note_on_c, 11, 61, 0
12, 41160, Note_on_c, 11, 61, 127
12, 41256, Note_on_c, 11, 61, 0
12, 42120, Note_on_c, 11, 60, 127
12, 42180, Note_on_c, 11, 60, 0
12, 42240, Note_on_c, 11, 60, 127
12, 42300, Note_on_c, 11, 60, 0
12, 42420, Note_on_c, 11, 60, 127
12, 42468, Note_on_c, 11, 60, 0
12, 42480, Note_on_c, 11, 61, 127
12, 42576, Note_on_c, 11, 61, 0
12, 42600, Note_on_c, 11, 61, 127
12, 42696, Note_on_c, 11, 61, 0
12, 45000, Note_on_c, 11, 70, 67
12, 45032, Note_on_c, 11, 70, 0
12, 45040, Note_on_c, 11, 70, 67
12, 45072, Note_on_c, 11, 70, 0
12, 45080, Note_on_c, 11, 70, 67
12, 45112, Note_on_c, 11, 70, 0
12, 45120, Note_on_c, 11, 70, 68
12, 45152, Note_on_c, 11, 70, 0
12, 45160, Note_on_c, 11, 70, 68
12, 45192, Note_on_c, 11, 70, 0
12, 45200, Note_on_c, 11, 70, 68
12, 45232, Note_on_c, 11, 70, 0
12, 45240, Note_on_c, 11, 70, 69
12, 45272, Note_on_c, 11, 70, 0
12, 45280, Note_on_c, 11, 70, 69
12, 45312, Note_on_c, 11, 70, 0
12, 45320, Note_on_c, 11, 70, 69
12, 45352, Note_on_c, 11, 70, 0
12, 45360, Note_on_c, 11, 63, 70
12, 45360, Note_on_c, 11, 75, 70
12, 45392, Note_on_c, 11, 75, 0
12, 45392, Note_on_c, 11, 63, 0
12, 45400, Note_on_c, 11, 75, 72
12, 45400, Note_on_c, 11, 63, 72
12, 45432, Note_on_c, 11, 63, 0
12, 45432, Note_on_c, 11, 75, 0
12, 45440, Note_on_c, 11, 75, 75
12, 45440, Note_on_c, 11, 63, 75
12, 45472, Note_on_c, 11, 63, 0
12, 45472, Note_on_c, 11, 75, 0
12, 45480, Note_on_c, 11, 75, 78
12, 45480, Note_on_c, 11, 63, 78
12, 45512, Note_on_c, 11, 63, 0
12, 45512, Note_on_c, 11, 75, 0
12, 45520, Note_on_c, 11, 75, 81
12, 45520, Note_on_c, 11, 63, 81
12, 45552, Note_on_c, 11, 63, 0
12, 45552, Note_on_c, 11, 75, 0
12, 45560, Note_on_c, 11, 75, 83
12, 45560, Note_on_c, 11, 63, 83
12, 45592, Note_on_c, 11, 63, 0
12, 45592, Note_on_c, 11, 75, 0
12, 45600, Note_on_c, 11, 75, 86
12, 45600, Note_on_c, 11, 63, 86
12, 45632, Note_on_c, 11, 63, 0
12, 45632, Note_on_c, 11, 75, 0
12, 45640, Note_on_c, 11, 75, 89
12, 45640, Note_on_c, 11, 63, 89
12, 45672, Note_on_c, 11, 63, 0
12, 45672, Note_on_c, 11, 75, 0
12, 45680, Note_on_c, 11, 75, 92
12, 45680, Note_on_c, 11, 63, 92
12, 45712, Note_on_c, 11, 63, 0
12, 45712, Note_on_c, 11, 75, 0
12, 45720, Note_on_c, 11, 75, 95
12, 45752, Note_on_c, 11, 75, 0
12, 45760, Note_on_c, 11, 75, 95
12, 45792, Note_on_c, 11, 75, 0
12, 45800, Note_on_c, 11, 75, 95
12, 45832, Note_on_c, 11, 75, 0
12, 45840, Note_on_c, 11, 72, 95
12, 45872, Note_on_c, 11, 72, 0
12, 45880, Note_on_c, 11, 72, 95
12, 45912, Note_on_c, 11, 72, 0
12, 45920, Note_on_c, 11, 72, 95
12, 45952, Note_on_c, 11, 72, 0
12, 45960, Note_on_c, 11, 68, 95
12, 45992, Note_on_c, 11, 68, 0
12, 46000, Note_on_c, 11, 68, 95
12, 46032, Note_on_c, 11, 68, 0
12, 46040, Note_on_c, 11, 68, 95
12, 46072, Note_on_c, 11, 68, 0
12, 46080, Note_on_c, 11, 68, 95
12, 46112, Note_on_c, 11, 68, 0
12, 46120, Note_on_c, 11, 68, 95
12, 46152, Note_on_c, 11, 68, 0
12, 46160, Note_on_c, 11, 68, 95
12, 46192, Note_on_c, 11, 68, 0
12, 46200, Note_on_c, 11, 65, 95
12, 46232, Note_on_c, 11, 65, 0
12, 46240, Note_on_c, 11, 65, 95
12, 46272, Note_on_c, 11, 65, 0
12, 46280, Note_on_c, 11, 65, 95
12, 46312, Note_on_c, 11, 65, 0
12, 46320, Note_on_c, 11, 65, 95
12, 46352, Note_on_c, 11, 65, 0
12, 46360, Note_on_c, 11, 65, 95
12, 46392, Note_on_c, 11, 65, 0
12, 46400, Note_on_c, 11, 65, 95
12, 46432, Note_on_c, 11, 65, 0
12, 46440, Note_on_c, 11, 65, 95
12, 46472, Note_on_c, 11, 65, 0
12, 46480, Note_on_c, 11, 65, 95
12, 46512, Note_on_c, 11, 65, 0
12, 46520, Note_on_c, 11, 65, 95
12, 46552, Note_on_c, 11, 65, 0
12, 46560, Note_on_c, 11, 61, 95
12, 46592, Note_on_c, 11, 61, 0
12, 46600, Note_on_c, 11, 61, 95
12, 46632, Note_on_c, 11, 61, 0
12, 46640, Note_on_c, 11, 61, 95
12, 46672, Note_on_c, 11, 61, 0
12, 46680, Note_on_c, 11, 61, 95
12, 46712, Note_on_c, 11, 61, 0
12, 46720, Note_on_c, 11, 61, 95
12, 46752, Note_on_c, 11, 61, 0
12, 46760, Note_on_c, 11, 61, 95
12, 46792, Note_on_c, 11, 61, 0
12, 46800, Note_on_c, 11, 61, 95
12, 46832, Note_on_c, 11, 61, 0
12, 46840, Note_on_c, 11, 61, 95
12, 46872, Note_on_c, 11, 61, 0
12, 46880, Note_on_c, 11, 61, 95
12, 46912, Note_on_c, 11, 61, 0
12, 46920, Note_on_c, 11, 58, 95
12, 46952, Note_on_c, 11, 58, 0
12, 46960, Note_on_c, 11, 58, 95
12, 46992, Note_on_c, 11, 58, 0
12, 47000, Note_on_c, 11, 58, 95
12, 47032, Note_on_c, 11, 58, 0
12, 47040, Note_on_c, 11, 55, 95
12, 47072, Note_on_c, 11, 55, 0
12, 47080, Note_on_c, 11, 55, 95
12, 47112, Note_on_c, 11, 55, 0
12, 47120, Note_on_c, 11, 55, 95
12, 47152, Note_on_c, 11, 55, 0
12, 47160, Note_on_c, 11, 56, 95
12, 47256, Note_on_c, 11, 56, 0
12, 48060, Note_on_c, 11, 56, 112
12, 48108, Note_on_c, 11, 56, 0
12, 48120, Note_on_c, 11, 58, 112
12, 48168, Note_on_c, 11, 58, 0
12, 48180, Note_on_c, 11, 60, 112
12, 48228, Note_on_c, 11, 60, 0
12, 48240, Note_on_c, 11, 61, 112
12, 48288, Note_on_c, 11, 61, 0
12, 48300, Note_on_c, 11, 63, 112
12, 48348, Note_on_c, 11, 63, 0
12, 48360, Note_on_c, 11, 65, 112
12, 48408, Note_on_c, 11, 65, 0
12, 48420, Note_on_c, 11, 67, 112
12, 48468, Note_on_c, 11, 67, 0
12, 48480, Note_on_c, 11, 68, 112
12, 48528, Note_on_c, 11, 68, 0
12, 48540, Note_on_c, 11, 70, 112
12, 48588, Note_on_c, 11, 70, 0
12, 48600, Note_on_c, 11, 72, 112
12, 48696, Note_on_c, 11, 72, 0
12, 48780, Note_on_c, 11, 60, 98
12, 48828, Note_on_c, 11, 60, 0
12, 48840, Note_on_c, 11, 61, 101
12, 48888, Note_on_c, 11, 61, 0
12, 48900, Note_on_c, 11, 63, 104
12, 48948, Note_on_c, 11, 63, 0
12, 48960, Note_on_c, 11, 65, 107
12, 49008, Note_on_c, 11, 65, 0
12, 49020, Note_on_c, 11, 67, 111
12, 49068, Note_on_c, 11, 67, 0
12, 49080, Note_on_c, 11, 68, 114
12, 49128, Note_on_c, 11, 68, 0
12, 49140, Note_on_c, 11, 70, 117
12, 49188, Note_on_c, 11, 70, 0
12, 49200, Note_on_c, 11, 72, 120
12, 49248, Note_on_c, 11, 72, 0
12, 49260, Note_on_c, 11, 73, 123
12, 49308, Note_on_c, 11, 73, 0
12, 49320, Note_on_c, 11, 73, 127
12, 49320, Note_on_c, 11, 82, 127
12, 49368, Note_on_c, 11, 82, 0
12, 49368, Note_on_c, 11, 73, 0
12, 49380, Note_on_c, 11, 73, 127
12, 49380, Note_on_c, 11, 82, 127
12, 49428, Note_on_c, 11, 82, 0
12, 49428, Note_on_c, 11, 73, 0
12, 49440, Note_on_c, 11, 73, 127
12, 49440, Note_on_c, 11, 82, 127
12, 49488, Note_on_c, 11, 82, 0
12, 49488, Note_on_c, 11, 73, 0
12, 49500, Note_on_c, 11, 73, 127
12, 49500, Note_on_c, 11, 82, 127
12, 49548, Note_on_c, 11, 82, 0
12, 49548, Note_on_c, 11, 73, 0
12, 49560, Note_on_c, 11, 73, 127
12, 49560, Note_on_c, 11, 82, 127
12, 49608, Note_on_c, 11, 82, 0
12, 49608, Note_on_c, 11, 73, 0
12, 49620, Note_on_c, 11, 73, 127
12, 49620, Note_on_c, 11, 82, 127
12, 49668, Note_on_c, 11, 82, 0
12, 49668, Note_on_c, 11, 73, 0
12, 49680, Note_on_c, 11, 82, 127
12, 49680, Note_on_c, 11, 73, 127
12, 49728, Note_on_c, 11, 73, 0
12, 49728, Note_on_c, 11, 82, 0
12, 49740, Note_on_c, 11, 82, 127
12, 49740, Note_on_c, 11, 73, 127
12, 49788, Note_on_c, 11, 73, 0
12, 49788, Note_on_c, 11, 82, 0
12, 49800, Note_on_c, 11, 82, 127
12, 49800, Note_on_c, 11, 73, 127
12, 49848, Note_on_c, 11, 73, 0
12, 49848, Note_on_c, 11, 82, 0
12, 49860, Note_on_c, 11, 82, 127
12, 49860, Note_on_c, 11, 73, 127
12, 49908, Note_on_c, 11, 73, 0
12, 49908, Note_on_c, 11, 82, 0
12, 49920, Note_on_c, 11, 82, 127
12, 49920, Note_on_c, 11, 73, 127
12, 49968, Note_on_c, 11, 73, 0
12, 49968, Note_on_c, 11, 82, 0
12, 49980, Note_on_c, 11, 82, 127
12, 49980, Note_on_c, 11, 73, 127
12, 50028, Note_on_c, 11, 73, 0
12, 50028, Note_on_c, 11, 82, 0
12, 50040, Note_on_c, 11, 72, 127
12, 50040, Note_on_c, 11, 80, 127
12, 50088, Note_on_c, 11, 80, 0
12, 50088, Note_on_c, 11, 72, 0
12, 50100, Note_on_c, 11, 72, 127
12, 50100, Note_on_c, 11, 80, 127
12, 50148, Note_on_c, 11, 80, 0
12, 50148, Note_on_c, 11, 72, 0
12, 50160, Note_on_c, 11, 72, 127
12, 50160, Note_on_c, 11, 80, 127
12, 50208, Note_on_c, 11, 80, 0
12, 50208, Note_on_c, 11, 72, 0
12, 50220, Note_on_c, 11, 72, 127
12, 50220, Note_on_c, 11, 80, 127
12, 50268, Note_on_c, 11, 80, 0
12, 50268, Note_on_c, 11, 72, 0
12, 50280, Note_on_c, 11, 72, 127
12, 50280, Note_on_c, 11, 80, 127
12, 50328, Note_on_c, 11, 80, 0
12, 50328, Note_on_c, 11, 72, 0
12, 50340, Note_on_c, 11, 72, 127
12, 50340, Note_on_c, 11, 80, 127
12, 50388, Note_on_c, 11, 80, 0
12, 50388, Note_on_c, 11, 72, 0
12, 50400, Note_on_c, 11, 73, 127
12, 50400, Note_on_c, 11, 82, 127
12, 50448, Note_on_c, 11, 82, 0
12, 50448, Note_on_c, 11, 73, 0
12, 50460, Note_on_c, 11, 73, 127
12, 50460, Note_on_c, 11, 82, 127
12, 50508, Note_on_c, 11, 82, 0
12, 50508, Note_on_c, 11, 73, 0
12, 50520, Note_on_c, 11, 73, 127
12, 50520, Note_on_c, 11, 82, 127
12, 50568, Note_on_c, 11, 82, 0
12, 50568, Note_on_c, 11, 73, 0
12, 50580, Note_on_c, 11, 73, 127
12, 50580, Note_on_c, 11, 82, 127
12, 50628, Note_on_c, 11, 82, 0
12, 50628, Note_on_c, 11, 73, 0
12, 50640, Note_on_c, 11, 73, 127
12, 50640, Note_on_c, 11, 82, 127
12, 50688, Note_on_c, 11, 82, 0
12, 50688, Note_on_c, 11, 73, 0
12, 50700, Note_on_c, 11, 73, 127
12, 50700, Note_on_c, 11, 82, 127
12, 50748, Note_on_c, 11, 82, 0
12, 50748, Note_on_c, 11, 73, 0
12, 50760, Note_on_c, 11, 80, 127
12, 50760, Note_on_c, 11, 72, 127
12, 50808, Note_on_c, 11, 72, 0
12, 50808, Note_on_c, 11, 80, 0
12, 50820, Note_on_c, 11, 80, 127
12, 50820, Note_on_c, 11, 72, 127
12, 50868, Note_on_c, 11, 72, 0
12, 50868, Note_on_c, 11, 80, 0
12, 50880, Note_on_c, 11, 80, 127
12, 50880, Note_on_c, 11, 72, 127
12, 50928, Note_on_c, 11, 72, 0
12, 50928, Note_on_c, 11, 80, 0
12, 50940, Note_on_c, 11, 80, 127
12, 50940, Note_on_c, 11, 72, 127
12, 50988, Note_on_c, 11, 72, 0
12, 50988, Note_on_c, 11, 80, 0
12, 51000, Note_on_c, 11, 80, 127
12, 51000, Note_on_c, 11, 72, 127
12, 51048, Note_on_c, 11, 72, 0
12, 51048, Note_on_c, 11, 80, 0
12, 51060, Note_on_c, 11, 80, 127
12, 51060, Note_on_c, 11, 72, 127
12, 51108, Note_on_c, 11, 72, 0
12, 51108, Note_on_c, 11, 80, 0
12, 51120, Note_on_c, 11, 73, 127
12, 51120, Note_on_c, 11, 82, 127
12, 51168, Note_on_c, 11, 82, 0
12, 51168, Note_on_c, 11, 73, 0
12, 51180, Note_on_c, 11, 73, 127
12, 51180, Note_on_c, 11, 82, 127
12, 51228, Note_on_c, 11, 82, 0
12, 51228, Note_on_c, 11, 73, 0
12, 51240, Note_on_c, 11, 82, 127
12, 51240, Note_on_c, 11, 73, 127
12, 51288, Note_on_c, 11, 73, 0
12, 51288, Note_on_c, 11, 82, 0
12, 51300, Note_on_c, 11, 82, 127
12, 51300, Note_on_c, 11, 73, 127
12, 51348, Note_on_c, 11, 73, 0
12, 51348, Note_on_c, 11, 82, 0
12, 51360, Note_on_c, 11, 82, 127
12, 51360, Note_on_c, 11, 73, 127
12, 51408, Note_on_c, 11, 73, 0
12, 51408, Note_on_c, 11, 82, 0
12, 51420, Note_on_c, 11, 82, 127
12, 51420, Note_on_c, 11, 73, 127
12, 51468, Note_on_c, 11, 73, 0
12, 51468, Note_on_c, 11, 82, 0
12, 51480, Note_on_c, 11, 72, 127
12, 51480, Note_on_c, 11, 80, 127
12, 51528, Note_on_c, 11, 80, 0
12, 51528, Note_on_c, 11, 72, 0
12, 51540, Note_on_c, 11, 60, 50
12, 51588, Note_on_c, 11, 60, 0
12, 51600, Note_on_c, 11, 60, 50
12, 51648, Note_on_c, 11, 60, 0
12, 51660, Note_on_c, 11, 60, 50
12, 51708, Note_on_c, 11, 60, 0
12, 51720, Note_on_c, 11, 60, 50
12, 51768, Note_on_c, 11, 60, 0
12, 51780, Note_on_c, 11, 60, 50
12, 51828, Note_on_c, 11, 60, 0
12, 51840, Note_on_c, 11, 60, 50
12, 51888, Note_on_c, 11, 60, 0
12, 51900, Note_on_c, 11, 60, 50
12, 51948, Note_on_c, 11, 60, 0
12, 51960, Note_on_c, 11, 60, 50
12, 52008, Note_on_c, 11, 60, 0
12, 52020, Note_on_c, 11, 60, 50
12, 52068, Note_on_c, 11, 60, 0
12, 52080, Note_on_c, 11, 60, 50
12, 52128, Note_on_c, 11, 60, 0
12, 52140, Note_on_c, 11, 60, 50
12, 52188, Note_on_c, 11, 60, 0
12, 52200, Note_on_c, 11, 60, 50
12, 52248, Note_on_c, 11, 60, 0
12, 52260, Note_on_c, 11, 60, 50
12, 52308, Note_on_c, 11, 60, 0
12, 52320, Note_on_c, 11, 60, 50
12, 52368, Note_on_c, 11, 60, 0
12, 52380, Note_on_c, 11, 60, 50
12, 52428, Note_on_c, 11, 60, 0
12, 52440, Note_on_c, 11, 60, 50
12, 52488, Note_on_c, 11, 60, 0
12, 52500, Note_on_c, 11, 60, 50
12, 52548, Note_on_c, 11, 60, 0
12, 52560, Note_on_c, 11, 60, 50
12, 52608, Note_on_c, 11, 60, 0
12, 52620, Note_on_c, 11, 60, 50
12, 52668, Note_on_c, 11, 60, 0
12, 52680, Note_on_c, 11, 60, 50
12, 52728, Note_on_c, 11, 60, 0
12, 52740, Note_on_c, 11, 60, 50
12, 52788, Note_on_c, 11, 60, 0
12, 52800, Note_on_c, 11, 60, 50
12, 52848, Note_on_c, 11, 60, 0
12, 52860, Note_on_c, 11, 60, 50
12, 52908, Note_on_c, 11, 60, 0
12, 52920, Note_on_c, 11, 58, 50
12, 52968, Note_on_c, 11, 58, 0
12, 52980, Note_on_c, 11, 58, 50
12, 53028, Note_on_c, 11, 58, 0
12, 53040, Note_on_c, 11, 58, 50
12, 53088, Note_on_c, 11, 58, 0
12, 53100, Note_on_c, 11, 58, 50
12, 53148, Note_on_c, 11, 58, 0
12, 53160, Note_on_c, 11, 58, 50
12, 53208, Note_on_c, 11, 58, 0
12, 53220, Note_on_c, 11, 58, 50
12, 53268, Note_on_c, 11, 58, 0
12, 53280, Note_on_c, 11, 58, 50
12, 53328, Note_on_c, 11, 58, 0
12, 53340, Note_on_c, 11, 58, 50
12, 53388, Note_on_c, 11, 58, 0
12, 53400, Note_on_c, 11, 58, 50
12, 53448, Note_on_c, 11, 58, 0
12, 53460, Note_on_c, 11, 58, 50
12, 53508, Note_on_c, 11, 58, 0
12, 53520, Note_on_c, 11, 58, 50
12, 53568, Note_on_c, 11, 58, 0
12, 53580, Note_on_c, 11, 58, 50
12, 53628, Note_on_c, 11, 58, 0
12, 53640, Note_on_c, 11, 61, 50
12, 53688, Note_on_c, 11, 61, 0
12, 53700, Note_on_c, 11, 61, 50
12, 53748, Note_on_c, 11, 61, 0
12, 53760, Note_on_c, 11, 61, 50
12, 53808, Note_on_c, 11, 61, 0
12, 53820, Note_on_c, 11, 61, 50
12, 53868, Note_on_c, 11, 61, 0
12, 53880, Note_on_c, 11, 61, 50
12, 53928, Note_on_c, 11, 61, 0
12, 53940, Note_on_c, 11, 61, 50
12, 53988, Note_on_c, 11, 61, 0
12, 54000, Note_on_c, 11, 61, 50
12, 54048, Note_on_c, 11, 61, 0
12, 54060, Note_on_c, 11, 61, 50
12, 54108, Note_on_c, 11, 61, 0
12, 54120, Note_on_c, 11, 61, 50
12, 54168, Note_on_c, 11, 61, 0
12, 54180, Note_on_c, 11, 61, 50
12, 54228, Note_on_c, 11, 61, 0
12, 54240, Note_on_c, 11, 58, 127
12, 54240, Note_on_c, 11, 67, 127
12, 54336, Note_on_c, 11, 67, 0
12, 54336, Note_on_c, 11, 58, 0
12, 54360, Note_on_c, 11, 60, 127
12, 54360, Note_on_c, 11, 68, 127
12, 54408, Note_on_c, 11, 68, 0
12, 54408, Note_on_c, 11, 60, 0
12, 54420, Note_on_c, 11, 60, 50
12, 54468, Note_on_c, 11, 60, 0
12, 54480, Note_on_c, 11, 60, 50
12, 54528, Note_on_c, 11, 60, 0
12, 54540, Note_on_c, 11, 60, 50
12, 54588, Note_on_c, 11, 60, 0
12, 54600, Note_on_c, 11, 60, 50
12, 54648, Note_on_c, 11, 60, 0
12, 54660, Note_on_c, 11, 60, 50
12, 54708, Note_on_c, 11, 60, 0
12, 54720, Note_on_c, 11, 60, 50
12, 54768, Note_on_c, 11, 60, 0
12, 54780, Note_on_c, 11, 60, 50
12, 54828, Note_on_c, 11, 60, 0
12, 54840, Note_on_c, 11, 60, 50
12, 54888, Note_on_c, 11, 60, 0
12, 54900, Note_on_c, 11, 60, 50
12, 54948, Note_on_c, 11, 60, 0
12, 54960, Note_on_c, 11, 60, 50
12, 55008, Note_on_c, 11, 60, 0
12, 55020, Note_on_c, 11, 60, 50
12, 55068, Note_on_c, 11, 60, 0
12, 55080, Note_on_c, 11, 60, 50
12, 55128, Note_on_c, 11, 60, 0
12, 55140, Note_on_c, 11, 60, 50
12, 55188, Note_on_c, 11, 60, 0
12, 55200, Note_on_c, 11, 60, 50
12, 55248, Note_on_c, 11, 60, 0
12, 55260, Note_on_c, 11, 60, 50
12, 55308, Note_on_c, 11, 60, 0
12, 55320, Note_on_c, 11, 60, 50
12, 55368, Note_on_c, 11, 60, 0
12, 55380, Note_on_c, 11, 60, 50
12, 55428, Note_on_c, 11, 60, 0
12, 55440, Note_on_c, 11, 60, 50
12, 55488, Note_on_c, 11, 60, 0
12, 55500, Note_on_c, 11, 60, 50
12, 55548, Note_on_c, 11, 60, 0
12, 55560, Note_on_c, 11, 60, 50
12, 55608, Note_on_c, 11, 60, 0
12, 55620, Note_on_c, 11, 60, 50
12, 55668, Note_on_c, 11, 60, 0
12, 55680, Note_on_c, 11, 60, 50
12, 55728, Note_on_c, 11, 60, 0
12, 55740, Note_on_c, 11, 60, 50
12, 55788, Note_on_c, 11, 60, 0
12, 55800, Note_on_c, 11, 60, 50
12, 55800, Note_on_c, 11, 63, 50
12, 55848, Note_on_c, 11, 63, 0
12, 55848, Note_on_c, 11, 60, 0
12, 55860, Note_on_c, 11, 60, 50
12, 55860, Note_on_c, 11, 63, 50
12, 55908, Note_on_c, 11, 63, 0
12, 55908, Note_on_c, 11, 60, 0
12, 55920, Note_on_c, 11, 63, 50
12, 55920, Note_on_c, 11, 60, 50
12, 55968, Note_on_c, 11, 60, 0
12, 55968, Note_on_c, 11, 63, 0
12, 55980, Note_on_c, 11, 63, 50
12, 55980, Note_on_c, 11, 60, 50
12, 56028, Note_on_c, 11, 60, 0
12, 56028, Note_on_c, 11, 63, 0
12, 56040, Note_on_c, 11, 63, 50
12, 56040, Note_on_c, 11, 60, 50
12, 56088, Note_on_c, 11, 60, 0
12, 56088, Note_on_c, 11, 63, 0
12, 56100, Note_on_c, 11, 63, 50
12, 56100, Note_on_c, 11, 60, 50
12, 56148, Note_on_c, 11, 60, 0
12, 56148, Note_on_c, 11, 63, 0
12, 56160, Note_on_c, 11, 63, 50
12, 56160, Note_on_c, 11, 60, 50
12, 56208, Note_on_c, 11, 60, 0
12, 56208, Note_on_c, 11, 63, 0
12, 56220, Note_on_c, 11, 63, 50
12, 56220, Note_on_c, 11, 60, 50
12, 56268, Note_on_c, 11, 60, 0
12, 56268, Note_on_c, 11, 63, 0
12, 56280, Note_on_c, 11, 60, 50
12, 56280, Note_on_c, 11, 63, 50
12, 56328, Note_on_c, 11, 63, 0
12, 56328, Note_on_c, 11, 60, 0
12, 56340, Note_on_c, 11, 60, 50
12, 56340, Note_on_c, 11, 63, 50
12, 56388, Note_on_c, 11, 63, 0
12, 56388, Note_on_c, 11, 60, 0
12, 56400, Note_on_c, 11, 60, 50
12, 56400, Note_on_c, 11, 63, 50
12, 56448, Note_on_c, 11, 63, 0
12, 56448, Note_on_c, 11, 60, 0
12, 56460, Note_on_c, 11, 60, 50
12, 56460, Note_on_c, 11, 63, 50
12, 56508, Note_on_c, 11, 63, 0
12, 56508, Note_on_c, 11, 60, 0
12, 56520, Note_on_c, 11, 63, 50
12, 56520, Note_on_c, 11, 60, 50
12, 56568, Note_on_c, 11, 60, 0
12, 56568, Note_on_c, 11, 63, 0
12, 56580, Note_on_c, 11, 63, 50
12, 56580, Note_on_c, 11, 60, 50
12, 56628, Note_on_c, 11, 60, 0
12, 56628, Note_on_c, 11, 63, 0
12, 56640, Note_on_c, 11, 60, 50
12, 56640, Note_on_c, 11, 63, 50
12, 56688, Note_on_c, 11, 63, 0
12, 56688, Note_on_c, 11, 60, 0
12, 56700, Note_on_c, 11, 60, 50
12, 56700, Note_on_c, 11, 63, 50
12, 56748, Note_on_c, 11, 63, 0
12, 56748, Note_on_c, 11, 60, 0
12, 56760, Note_on_c, 11, 60, 50
12, 56760, Note_on_c, 11, 63, 50
12, 56808, Note_on_c, 11, 63, 0
12, 56808, Note_on_c, 11, 60, 0
12, 56820, Note_on_c, 11, 60, 50
12, 56820, Note_on_c, 11, 63, 50
12, 56868, Note_on_c, 11, 63, 0
12, 56868, Note_on_c, 11, 60, 0
12, 56880, Note_on_c, 11, 60, 50
12, 56880, Note_on_c, 11, 63, 50
12, 56928, Note_on_c, 11, 63, 0
12, 56928, Note_on_c, 11, 60, 0
12, 56940, Note_on_c, 11, 60, 50
12, 56940, Note_on_c, 11, 63, 50
12, 56988, Note_on_c, 11, 63, 0
12, 56988, Note_on_c, 11, 60, 0
12, 57000, Note_on_c, 11, 60, 50
12, 57000, Note_on_c, 11, 63, 50
12, 57048, Note_on_c, 11, 63, 0
12, 57048, Note_on_c, 11, 60, 0
12, 57060, Note_on_c, 11, 60, 50
12, 57060, Note_on_c, 11, 63, 50
12, 57108, Note_on_c, 11, 63, 0
12, 57108, Note_on_c, 11, 60, 0
12, 57120, Note_on_c, 11, 60, 127
12, 57120, Note_on_c, 11, 69, 127
12, 57216, Note_on_c, 11, 69, 0
12, 57216, Note_on_c, 11, 60, 0
12, 57240, Note_on_c, 11, 70, 127
12, 57288, Note_on_c, 11, 70, 0
12, 57300, Note_on_c, 11, 61, 50
12, 57348, Note_on_c, 11, 61, 0
12, 57360, Note_on_c, 11, 61, 50
12, 57408, Note_on_c, 11, 61, 0
12, 57420, Note_on_c, 11, 61, 50
12, 57468, Note_on_c, 11, 61, 0
12, 57480, Note_on_c, 11, 61, 50
12, 57528, Note_on_c, 11, 61, 0
12, 57540, Note_on_c, 11, 61, 50
12, 57588, Note_on_c, 11, 61, 0
12, 57600, Note_on_c, 11, 61, 50
12, 57648, Note_on_c, 11, 61, 0
12, 57660, Note_on_c, 11, 61, 50
12, 57708, Note_on_c, 11, 61, 0
12, 57720, Note_on_c, 11, 61, 50
12, 57768, Note_on_c, 11, 61, 0
12, 57780, Note_on_c, 11, 61, 50
12, 57828, Note_on_c, 11, 61, 0
12, 57840, Note_on_c, 11, 61, 50
12, 57888, Note_on_c, 11, 61, 0
12, 57900, Note_on_c, 11, 61, 50
12, 57948, Note_on_c, 11, 61, 0
12, 57960, Note_on_c, 11, 61, 50
12, 58008, Note_on_c, 11, 61, 0
12, 58020, Note_on_c, 11, 61, 50
12, 58068, Note_on_c, 11, 61, 0
12, 58080, Note_on_c, 11, 61, 50
12, 58128, Note_on_c, 11, 61, 0
12, 58140, Note_on_c, 11, 61, 50
12, 58188, Note_on_c, 11, 61, 0
12, 58200, Note_on_c, 11, 61, 50
12, 58248, Note_on_c, 11, 61, 0
12, 58260, Note_on_c, 11, 61, 50
12, 58308, Note_on_c, 11, 61, 0
12, 58320, Note_on_c, 11, 61, 50
12, 58368, Note_on_c, 11, 61, 0
12, 58380, Note_on_c, 11, 61, 50
12, 58428, Note_on_c, 11, 61, 0
12, 58440, Note_on_c, 11, 61, 50
12, 58488, Note_on_c, 11, 61, 0
12, 58500, Note_on_c, 11, 61, 50
12, 58548, Note_on_c, 11, 61, 0
12, 58560, Note_on_c, 11, 61, 50
12, 58608, Note_on_c, 11, 61, 0
12, 58620, Note_on_c, 11, 61, 50
12, 58668, Note_on_c, 11, 61, 0
12, 58680, Note_on_c, 11, 63, 50
12, 58680, Note_on_c, 11, 60, 50
12, 58728, Note_on_c, 11, 60, 0
12, 58728, Note_on_c, 11, 63, 0
12, 58740, Note_on_c, 11, 63, 50
12, 58740, Note_on_c, 11, 60, 50
12, 58788, Note_on_c, 11, 60, 0
12, 58788, Note_on_c, 11, 63, 0
12, 58800, Note_on_c, 11, 63, 50
12, 58800, Note_on_c, 11, 60, 50
12, 58848, Note_on_c, 11, 60, 0
12, 58848, Note_on_c, 11, 63, 0
12, 58860, Note_on_c, 11, 63, 50
12, 58860, Note_on_c, 11, 60, 50
12, 58908, Note_on_c, 11, 60, 0
12, 58908, Note_on_c, 11, 63, 0
12, 58920, Note_on_c, 11, 63, 50
12, 58920, Note_on_c, 11, 60, 50
12, 58968, Note_on_c, 11, 60, 0
12, 58968, Note_on_c, 11, 63, 0
12, 58980, Note_on_c, 11, 63, 50
12, 58980, Note_on_c, 11, 60, 50
12, 59028, Note_on_c, 11, 60, 0
12, 59028, Note_on_c, 11, 63, 0
12, 59040, Note_on_c, 11, 60, 50
12, 59040, Note_on_c, 11, 63, 50
12, 59088, Note_on_c, 11, 63, 0
12, 59088, Note_on_c, 11, 60, 0
12, 59100, Note_on_c, 11, 60, 50
12, 59100, Note_on_c, 11, 63, 50
12, 59148, Note_on_c, 11, 63, 0
12, 59148, Note_on_c, 11, 60, 0
12, 59160, Note_on_c, 11, 60, 50
12, 59160, Note_on_c, 11, 63, 50
12, 59208, Note_on_c, 11, 63, 0
12, 59208, Note_on_c, 11, 60, 0
12, 59220, Note_on_c, 11, 60, 50
12, 59220, Note_on_c, 11, 63, 50
12, 59268, Note_on_c, 11, 63, 0
12, 59268, Note_on_c, 11, 60, 0
12, 59280, Note_on_c, 11, 60, 50
12, 59280, Note_on_c, 11, 63, 50
12, 59328, Note_on_c, 11, 63, 0
12, 59328, Note_on_c, 11, 60, 0
12, 59340, Note_on_c, 11, 60, 50
12, 59340, Note_on_c, 11, 63, 50
12, 59388, Note_on_c, 11, 63, 0
12, 59388, Note_on_c, 11, 60, 0
12, 59400, Note_on_c, 11, 60, 50
12, 59400, Note_on_c, 11, 63, 50
12, 59448, Note_on_c, 11, 63, 0
12, 59448, Note_on_c, 11, 60, 0
12, 59460, Note_on_c, 11, 60, 50
12, 59460, Note_on_c, 11, 63, 50
12, 59508, Note_on_c, 11, 63, 0
12, 59508, Note_on_c, 11, 60, 0
12, 59520, Note_on_c, 11, 60, 50
12, 59520, Note_on_c, 11, 63, 50
12, 59568, Note_on_c, 11, 63, 0
12, 59568, Note_on_c, 11, 60, 0
12, 59580, Note_on_c, 11, 60, 50
12, 59580, Note_on_c, 11, 63, 50
12, 59628, Note_on_c, 11, 63, 0
12, 59628, Note_on_c, 11, 60, 0
12, 59640, Note_on_c, 11, 60, 50
12, 59640, Note_on_c, 11, 63, 50
12, 59688, Note_on_c, 11, 63, 0
12, 59688, Note_on_c, 11, 60, 0
12, 59700, Note_on_c, 11, 60, 50
12, 59700, Note_on_c, 11, 63, 50
12, 59748, Note_on_c, 11, 63, 0
12, 59748, Note_on_c, 11, 60, 0
12, 59760, Note_on_c, 11, 60, 50
12, 59760, Note_on_c, 11, 63, 50
12, 59808, Note_on_c, 11, 63, 0
12, 59808, Note_on_c, 11, 60, 0
12, 59820, Note_on_c, 11, 63, 50
12, 59820, Note_on_c, 11, 60, 50
12, 59868, Note_on_c, 11, 60, 0
12, 59868, Note_on_c, 11, 63, 0
12, 59880, Note_on_c, 11, 60, 50
12, 59880, Note_on_c, 11, 63, 50
12, 59928, Note_on_c, 11, 63, 0
12, 59928, Note_on_c, 11, 60, 0
12, 59940, Note_on_c, 11, 63, 50
12, 59940, Note_on_c, 11, 60, 50
12, 59988, Note_on_c, 11, 60, 0
12, 59988, Note_on_c, 11, 63, 0
12, 60000, Note_on_c, 11, 60, 127
12, 60000, Note_on_c, 11, 69, 127
12, 60096, Note_on_c, 11, 69, 0
12, 60096, Note_on_c, 11, 60, 0
12, 60120, Note_on_c, 11, 70, 127
12, 60168, Note_on_c, 11, 70, 0
12, 60180, Note_on_c, 11, 61, 50
12, 60228, Note_on_c, 11, 61, 0
12, 60240, Note_on_c, 11, 61, 50
12, 60288, Note_on_c, 11, 61, 0
12, 60300, Note_on_c, 11, 61, 50
12, 60348, Note_on_c, 11, 61, 0
12, 60360, Note_on_c, 11, 61, 50
12, 60408, Note_on_c, 11, 61, 0
12, 60420, Note_on_c, 11, 61, 50
12, 60468, Note_on_c, 11, 61, 0
12, 60480, Note_on_c, 11, 61, 50
12, 60528, Note_on_c, 11, 61, 0
12, 60540, Note_on_c, 11, 61, 50
12, 60588, Note_on_c, 11, 61, 0
12, 60600, Note_on_c, 11, 61, 50
12, 60648, Note_on_c, 11, 61, 0
12, 60660, Note_on_c, 11, 61, 50
12, 60708, Note_on_c, 11, 61, 0
12, 60720, Note_on_c, 11, 61, 50
12, 60768, Note_on_c, 11, 61, 0
12, 60780, Note_on_c, 11, 61, 50
12, 60828, Note_on_c, 11, 61, 0
12, 60840, Note_on_c, 11, 61, 50
12, 60888, Note_on_c, 11, 61, 0
12, 60900, Note_on_c, 11, 61, 50
12, 60948, Note_on_c, 11, 61, 0
12, 60960, Note_on_c, 11, 61, 50
12, 61008, Note_on_c, 11, 61, 0
12, 61020, Note_on_c, 11, 61, 50
12, 61068, Note_on_c, 11, 61, 0
12, 61080, Note_on_c, 11, 61, 50
12, 61128, Note_on_c, 11, 61, 0
12, 61140, Note_on_c, 11, 61, 50
12, 61188, Note_on_c, 11, 61, 0
12, 61200, Note_on_c, 11, 61, 50
12, 61248, Note_on_c, 11, 61, 0
12, 61260, Note_on_c, 11, 61, 50
12, 61308, Note_on_c, 11, 61, 0
12, 61320, Note_on_c, 11, 61, 50
12, 61368, Note_on_c, 11, 61, 0
12, 61380, Note_on_c, 11, 61, 50
12, 61428, Note_on_c, 11, 61, 0
12, 61440, Note_on_c, 11, 62, 50
12, 61488, Note_on_c, 11, 62, 0
12, 61500, Note_on_c, 11, 62, 50
12, 61548, Note_on_c, 11, 62, 0
12, 61560, Note_on_c, 11, 62, 50
12, 61608, Note_on_c, 11, 62, 0
12, 61620, Note_on_c, 11, 62, 50
12, 61668, Note_on_c, 11, 62, 0
12, 61680, Note_on_c, 11, 62, 50
12, 61728, Note_on_c, 11, 62, 0
12, 61740, Note_on_c, 11, 62, 50
12, 61788, Note_on_c, 11, 62, 0
12, 61800, Note_on_c, 11, 62, 50
12, 61848, Note_on_c, 11, 62, 0
12, 61860, Note_on_c, 11, 62, 50
12, 61908, Note_on_c, 11, 62, 0
12, 61920, Note_on_c, 11, 62, 50
12, 61968, Note_on_c, 11, 62, 0
12, 61980, Note_on_c, 11, 62, 50
12, 62028, Note_on_c, 11, 62, 0
12, 62040, Note_on_c, 11, 62, 50
12, 62088, Note_on_c, 11, 62, 0
12, 62100, Note_on_c, 11, 62, 50
12, 62148, Note_on_c, 11, 62, 0
12, 62160, Note_on_c, 11, 60, 50
12, 62208, Note_on_c, 11, 60, 0
12, 62220, Note_on_c, 11, 60, 50
12, 62268, Note_on_c, 11, 60, 0
12, 62280, Note_on_c, 11, 60, 50
12, 62376, Note_on_c, 11, 60, 0
12, 62460, Note_on_c, 11, 60, 50
12, 62508, Note_on_c, 11, 60, 0
12, 62520, Note_on_c, 11, 60, 50
12, 62568, Note_on_c, 11, 60, 0
12, 62580, Note_on_c, 11, 62, 50
12, 62628, Note_on_c, 11, 62, 0
12, 62640, Note_on_c, 11, 63, 50
12, 62736, Note_on_c, 11, 63, 0
12, 62820, Note_on_c, 11, 63, 55
12, 62868, Note_on_c, 11, 63, 0
12, 62880, Note_on_c, 11, 63, 56
12, 62928, Note_on_c, 11, 63, 0
12, 62940, Note_on_c, 11, 65, 58
12, 62988, Note_on_c, 11, 65, 0
12, 63000, Note_on_c, 11, 67, 60
12, 63096, Note_on_c, 11, 67, 0
12, 63180, Note_on_c, 11, 67, 65
12, 63228, Note_on_c, 11, 67, 0
12, 63240, Note_on_c, 11, 67, 66
12, 63288, Note_on_c, 11, 67, 0
12, 63300, Note_on_c, 11, 68, 68
12, 63348, Note_on_c, 11, 68, 0
12, 63360, Note_on_c, 11, 59, 70
12, 63456, Note_on_c, 11, 59, 0
12, 63540, Note_on_c, 11, 59, 75
12, 63588, Note_on_c, 11, 59, 0
12, 63600, Note_on_c, 11, 59, 76
12, 63648, Note_on_c, 11, 59, 0
12, 63660, Note_on_c, 11, 60, 78
12, 63708, Note_on_c, 11, 60, 0
12, 63720, Note_on_c, 11, 61, 80
12, 63816, Note_on_c, 11, 61, 0
12, 68280, Note_on_c, 11, 68, 96
12, 68328, Note_on_c, 11, 68, 0
12, 68340, Note_on_c, 11, 68, 96
12, 68388, Note_on_c, 11, 68, 0
12, 68400, Note_on_c, 11, 68, 56
12, 68448, Note_on_c, 11, 68, 0
12, 68460, Note_on_c, 11, 68, 56
12, 68508, Note_on_c, 11, 68, 0
12, 68520, Note_on_c, 11, 68, 56
12, 68568, Note_on_c, 11, 68, 0
12, 68580, Note_on_c, 11, 68, 56
12, 68628, Note_on_c, 11, 68, 0
12, 68640, Note_on_c, 11, 68, 56
12, 68688, Note_on_c, 11, 68, 0
12, 68700, Note_on_c, 11, 68, 56
12, 68748, Note_on_c, 11, 68, 0
12, 68760, Note_on_c, 11, 68, 56
12, 68808, Note_on_c, 11, 68, 0
12, 68820, Note_on_c, 11, 68, 56
12, 68868, Note_on_c, 11, 68, 0
12, 68880, Note_on_c, 11, 68, 56
12, 68928, Note_on_c, 11, 68, 0
12, 68940, Note_on_c, 11, 68, 56
12, 68988, Note_on_c, 11, 68, 0
12, 69000, Note_on_c, 11, 68, 56
12, 69048, Note_on_c, 11, 68, 0
12, 69060, Note_on_c, 11, 68, 56
12, 69108, Note_on_c, 11, 68, 0
12, 69120, Note_on_c, 11, 68, 56
12, 69168, Note_on_c, 11, 68, 0
12, 69180, Note_on_c, 11, 68, 56
12, 69228, Note_on_c, 11, 68, 0
12, 69240, Note_on_c, 11, 68, 56
12, 69288, Note_on_c, 11, 68, 0
12, 69300, Note_on_c, 11, 68, 56
12, 69348, Note_on_c, 11, 68, 0
12, 69360, Note_on_c, 11, 71, 56
12, 69408, Note_on_c, 11, 71, 0
12, 69420, Note_on_c, 11, 71, 56
12, 69468, Note_on_c, 11, 71, 0
12, 69480, Note_on_c, 11, 72, 56
12, 69528, Note_on_c, 11, 72, 0
12, 69540, Note_on_c, 11, 72, 56
12, 69588, Note_on_c, 11, 72, 0
12, 69600, Note_on_c, 11, 72, 56
12, 69648, Note_on_c, 11, 72, 0
12, 69660, Note_on_c, 11, 72, 56
12, 69708, Note_on_c, 11, 72, 0
12, 69720, Note_on_c, 11, 67, 96
12, 69720, Note_on_c, 11, 70, 96
12, 69768, Note_on_c, 11, 70, 0
12, 69768, Note_on_c, 11, 67, 0
12, 69780, Note_on_c, 11, 67, 96
12, 69780, Note_on_c, 11, 70, 96
12, 69828, Note_on_c, 11, 70, 0
12, 69828, Note_on_c, 11, 67, 0
12, 69840, Note_on_c, 11, 70, 56
12, 69840, Note_on_c, 11, 67, 56
12, 69888, Note_on_c, 11, 67, 0
12, 69888, Note_on_c, 11, 70, 0
12, 69900, Note_on_c, 11, 70, 56
12, 69900, Note_on_c, 11, 67, 56
12, 69948, Note_on_c, 11, 67, 0
12, 69948, Note_on_c, 11, 70, 0
12, 69960, Note_on_c, 11, 70, 56
12, 69960, Note_on_c, 11, 67, 56
12, 70008, Note_on_c, 11, 67, 0
12, 70008, Note_on_c, 11, 70, 0
12, 70020, Note_on_c, 11, 70, 56
12, 70020, Note_on_c, 11, 67, 56
12, 70068, Note_on_c, 11, 67, 0
12, 70068, Note_on_c, 11, 70, 0
12, 70080, Note_on_c, 11, 70, 56
12, 70080, Note_on_c, 11, 67, 56
12, 70128, Note_on_c, 11, 67, 0
12, 70128, Note_on_c, 11, 70, 0
12, 70140, Note_on_c, 11, 70, 56
12, 70140, Note_on_c, 11, 67, 56
12, 70188, Note_on_c, 11, 67, 0
12, 70188, Note_on_c, 11, 70, 0
12, 70200, Note_on_c, 11, 67, 56
12, 70200, Note_on_c, 11, 70, 56
12, 70248, Note_on_c, 11, 70, 0
12, 70248, Note_on_c, 11, 67, 0
12, 70260, Note_on_c, 11, 67, 56
12, 70260, Note_on_c, 11, 70, 56
12, 70308, Note_on_c, 11, 70, 0
12, 70308, Note_on_c, 11, 67, 0
12, 70320, Note_on_c, 11, 67, 56
12, 70320, Note_on_c, 11, 70, 56
12, 70368, Note_on_c, 11, 70, 0
12, 70368, Note_on_c, 11, 67, 0
12, 70380, Note_on_c, 11, 67, 56
12, 70380, Note_on_c, 11, 70, 56
12, 70428, Note_on_c, 11, 70, 0
12, 70428, Note_on_c, 11, 67, 0
12, 70440, Note_on_c, 11, 67, 56
12, 70440, Note_on_c, 11, 70, 56
12, 70488, Note_on_c, 11, 70, 0
12, 70488, Note_on_c, 11, 67, 0
12, 70500, Note_on_c, 11, 67, 56
12, 70500, Note_on_c, 11, 70, 56
12, 70548, Note_on_c, 11, 70, 0
12, 70548, Note_on_c, 11, 67, 0
12, 70560, Note_on_c, 11, 67, 56
12, 70560, Note_on_c, 11, 70, 56
12, 70608, Note_on_c, 11, 70, 0
12, 70608, Note_on_c, 11, 67, 0
12, 70620, Note_on_c, 11, 67, 56
12, 70620, Note_on_c, 11, 70, 56
12, 70668, Note_on_c, 11, 70, 0
12, 70668, Note_on_c, 11, 67, 0
12, 70680, Note_on_c, 11, 67, 56
12, 70680, Note_on_c, 11, 70, 56
12, 70728, Note_on_c, 11, 70, 0
12, 70728, Note_on_c, 11, 67, 0
12, 70740, Note_on_c, 11, 67, 56
12, 70740, Note_on_c, 11, 70, 56
12, 70788, Note_on_c, 11, 70, 0
12, 70788, Note_on_c, 11, 67, 0
12, 70800, Note_on_c, 11, 67, 56
12, 70800, Note_on_c, 11, 70, 56
12, 70848, Note_on_c, 11, 70, 0
12, 70848, Note_on_c, 11, 67, 0
12, 70860, Note_on_c, 11, 67, 56
12, 70860, Note_on_c, 11, 70, 56
12, 70908, Note_on_c, 11, 70, 0
12, 70908, Note_on_c, 11, 67, 0
12, 70920, Note_on_c, 11, 70, 56
12, 70968, Note_on_c, 11, 70, 0
12, 70980, Note_on_c, 11, 70, 56
12, 71028, Note_on_c, 11, 70, 0
12, 71040, Note_on_c, 11, 68, 56
12, 71088, Note_on_c, 11, 68, 0
12, 71100, Note_on_c, 11, 68, 56
12, 71148, Note_on_c, 11, 68, 0
12, 71160, Note_on_c, 11, 65, 56
12, 71736, Note_on_c, 11, 65, 0
12, 71880, Note_on_c, 11, 65, 56
12, 72144, Note_on_c, 11, 65, 0
12, 72180, Note_on_c, 11, 65, 56
12, 72228, Note_on_c, 11, 65, 0
12, 72240, Note_on_c, 11, 65, 56
12, 72288, Note_on_c, 11, 65, 0
12, 72300, Note_on_c, 11, 67, 56
12, 72348, Note_on_c, 11, 67, 0
12, 72360, Note_on_c, 11, 68, 56
12, 72456, Note_on_c, 11, 68, 0
12, 72480, Note_on_c, 11, 65, 56
12, 72576, Note_on_c, 11, 65, 0
12, 72600, Note_on_c, 11, 65, 56
12, 73176, Note_on_c, 11, 65, 0
12, 73260, Note_on_c, 11, 68, 56
12, 73308, Note_on_c, 11, 68, 0
12, 73320, Note_on_c, 11, 68, 56
12, 73368, Note_on_c, 11, 68, 0
12, 73380, Note_on_c, 11, 67, 56
12, 73428, Note_on_c, 11, 67, 0
12, 73440, Note_on_c, 11, 67, 50
12, 73536, Note_on_c, 11, 67, 0
12, 73620, Note_on_c, 11, 70, 52
12, 73668, Note_on_c, 11, 70, 0
12, 73680, Note_on_c, 11, 70, 53
12, 73728, Note_on_c, 11, 70, 0
12, 73740, Note_on_c, 11, 68, 54
12, 73788, Note_on_c, 11, 68, 0
12, 73800, Note_on_c, 11, 68, 54
12, 73896, Note_on_c, 11, 68, 0
12, 73980, Note_on_c, 11, 77, 57
12, 74028, Note_on_c, 11, 77, 0
12, 74040, Note_on_c, 11, 77, 58
12, 74088, Note_on_c, 11, 77, 0
12, 74100, Note_on_c, 11, 76, 59
12, 74148, Note_on_c, 11, 76, 0
12, 74160, Note_on_c, 11, 76, 59
12, 74256, Note_on_c, 11, 76, 0
12, 74340, Note_on_c, 11, 79, 62
12, 74388, Note_on_c, 11, 79, 0
12, 74400, Note_on_c, 11, 79, 63
12, 74448, Note_on_c, 11, 79, 0
12, 74460, Note_on_c, 11, 77, 64
12, 74508, Note_on_c, 11, 77, 0
12, 74520, Note_on_c, 11, 77, 64
12, 74616, Note_on_c, 11, 77, 0
12, 74700, Note_on_c, 11, 80, 67
12, 74748, Note_on_c, 11, 80, 0
12, 74760, Note_on_c, 11, 80, 68
12, 74808, Note_on_c, 11, 80, 0
12, 74820, Note_on_c, 11, 79, 68
12, 74868, Note_on_c, 11, 79, 0
12, 74880, Note_on_c, 11, 79, 69
12, 74976, Note_on_c, 11, 79, 0
12, 75060, Note_on_c, 11, 70, 72
12, 75108, Note_on_c, 11, 70, 0
12, 75120, Note_on_c, 11, 72, 73
12, 75168, Note_on_c, 11, 72, 0
12, 75180, Note_on_c, 11, 73, 73
12, 75228, Note_on_c, 11, 73, 0
12, 75240, Note_on_c, 11, 73, 74
12, 75336, Note_on_c, 11, 73, 0
12, 75420, Note_on_c, 11, 67, 77
12, 75468, Note_on_c, 11, 67, 0
12, 75480, Note_on_c, 11, 68, 78
12, 75528, Note_on_c, 11, 68, 0
12, 75540, Note_on_c, 11, 70, 78
12, 75588, Note_on_c, 11, 70, 0
12, 75600, Note_on_c, 11, 70, 79
12, 75696, Note_on_c, 11, 70, 0
12, 75780, Note_on_c, 11, 64, 82
12, 75828, Note_on_c, 11, 64, 0
12, 75840, Note_on_c, 11, 65, 82
12, 75888, Note_on_c, 11, 65, 0
12, 75900, Note_on_c, 11, 67, 83
12, 75948, Note_on_c, 11, 67, 0
12, 75960, Note_on_c, 11, 67, 84
12, 76056, Note_on_c, 11, 67, 0
12, 76140, Note_on_c, 11, 67, 87
12, 76188, Note_on_c, 11, 67, 0
12, 76200, Note_on_c, 11, 68, 87
12, 76248, Note_on_c, 11, 68, 0
12, 76260, Note_on_c, 11, 70, 88
12, 76308, Note_on_c, 11, 70, 0
12, 76320, Note_on_c, 11, 70, 89
12, 76416, Note_on_c, 11, 70, 0
12, 76500, Note_on_c, 11, 70, 92
12, 76548, Note_on_c, 11, 70, 0
12, 76560, Note_on_c, 11, 72, 92
12, 76608, Note_on_c, 11, 72, 0
12, 76620, Note_on_c, 11, 73, 93
12, 76668, Note_on_c, 11, 73, 0
12, 76680, Note_on_c, 11, 73, 94
12, 76776, Note_on_c, 11, 73, 0
12, 76860, Note_on_c, 11, 67, 96
12, 76908, Note_on_c, 11, 67, 0
12, 76920, Note_on_c, 11, 68, 97
12, 76968, Note_on_c, 11, 68, 0
12, 76980, Note_on_c, 11, 70, 98
12, 77028, Note_on_c, 11, 70, 0
12, 77040, Note_on_c, 11, 70, 99
12, 77136, Note_on_c, 11, 70, 0
12, 77220, Note_on_c, 11, 64, 101
12, 77268, Note_on_c, 11, 64, 0
12, 77280, Note_on_c, 11, 65, 102
12, 77328, Note_on_c, 11, 65, 0
12, 77340, Note_on_c, 11, 67, 103
12, 77388, Note_on_c, 11, 67, 0
12, 77400, Note_on_c, 11, 67, 104
12, 77496, Note_on_c, 11, 67, 0
12, 77580, Note_on_c, 11, 67, 106
12, 77628, Note_on_c, 11, 67, 0
12, 77640, Note_on_c, 11, 68, 107
12, 77688, Note_on_c, 11, 68, 0
12, 77700, Note_on_c, 11, 70, 108
12, 77748, Note_on_c, 11, 70, 0
12, 77760, Note_on_c, 11, 70, 109
12, 77856, Note_on_c, 11, 70, 0
12, 77940, Note_on_c, 11, 70, 111
12, 77988, Note_on_c, 11, 70, 0
12, 78000, Note_on_c, 11, 72, 112
12, 78048, Note_on_c, 11, 72, 0
12, 78060, Note_on_c, 11, 73, 113
12, 78108, Note_on_c, 11, 73, 0
12, 78120, Note_on_c, 11, 73, 114
12, 78216, Note_on_c, 11, 73, 0
12, 78300, Note_on_c, 11, 70, 116
12, 78348, Note_on_c, 11, 70, 0
12, 78360, Note_on_c, 11, 72, 117
12, 78408, Note_on_c, 11, 72, 0
12, 78420, Note_on_c, 11, 73, 118
12, 78468, Note_on_c, 11, 73, 0
12, 78480, Note_on_c, 11, 73, 119
12, 78576, Note_on_c, 11, 73, 0
12, 78660, Note_on_c, 11, 70, 121
12, 78708, Note_on_c, 11, 70, 0
12, 78720, Note_on_c, 11, 72, 122
12, 78768, Note_on_c, 11, 72, 0
12, 78780, Note_on_c, 11, 73, 123
12, 78828, Note_on_c, 11, 73, 0
12, 78840, Note_on_c, 11, 73, 124
12, 78936, Note_on_c, 11, 73, 0
12, 79080, Note_on_c, 11, 72, 127
12, 79200, Note_on_c, 11, 72, 0
12, 79200, Note_on_c, 11, 73, 127
12, 79320, Note_on_c, 11, 73, 0
12, 79320, Note_on_c, 11, 72, 127
12, 79416, Note_on_c, 11, 72, 0
12, 79440, Note_on_c, 11, 68, 127
12, 79536, Note_on_c, 11, 68, 0
12, 79560, Note_on_c, 11, 65, 127
12, 79656, Note_on_c, 11, 65, 0
12, 79680, Note_on_c, 11, 61, 127
12, 79776, Note_on_c, 11, 61, 0
12, 79800, Note_on_c, 11, 60, 127
12, 79896, Note_on_c, 11, 60, 0
12, 79920, Note_on_c, 11, 56, 127
12, 80160, Note_on_c, 11, 56, 0
12, 80160, Note_on_c, 11, 56, 127
12, 80256, Note_on_c, 11, 56, 0
12, 80280, Note_on_c, 11, 55, 127
12, 80376, Note_on_c, 11, 55, 0
12, 80520, Note_on_c, 11, 72, 127
12, 80640, Note_on_c, 11, 72, 0
12, 80640, Note_on_c, 11, 73, 127
12, 80760, Note_on_c, 11, 73, 0
12, 80760, Note_on_c, 11, 72, 127
12, 80856, Note_on_c, 11, 72, 0
12, 80880, Note_on_c, 11, 70, 127
12, 80976, Note_on_c, 11, 70, 0
12, 81000, Note_on_c, 11, 67, 127
12, 81096, Note_on_c, 11, 67, 0
12, 81120, Note_on_c, 11, 64, 127
12, 81216, Note_on_c, 11, 64, 0
12, 81240, Note_on_c, 11, 61, 127
12, 81336, Note_on_c, 11, 61, 0
12, 81360, Note_on_c, 11, 60, 127
12, 81480, Note_on_c, 11, 60, 0
12, 81480, Note_on_c, 11, 55, 127
12, 81600, Note_on_c, 11, 55, 0
12, 81600, Note_on_c, 11, 58, 127
12, 81696, Note_on_c, 11, 58, 0
12, 81720, Note_on_c, 11, 56, 127
12, 81816, Note_on_c, 11, 56, 0
12, 81960, Note_on_c, 11, 68, 127
12, 82080, Note_on_c, 11, 68, 0
12, 82080, Note_on_c, 11, 70, 127
12, 82320, Note_on_c, 11, 70, 0
12, 82320, Note_on_c, 11, 70, 127
12, 82440, Note_on_c, 11, 70, 0
12, 82440, Note_on_c, 11, 68, 127
12, 82536, Note_on_c, 11, 68, 0
12, 82680, Note_on_c, 11, 65, 127
12, 82944, Note_on_c, 11, 65, 0
12, 82980, Note_on_c, 11, 65, 127
12, 83028, Note_on_c, 11, 65, 0
12, 83040, Note_on_c, 11, 65, 127
12, 83088, Note_on_c, 11, 65, 0
12, 83100, Note_on_c, 11, 67, 127
12, 83148, Note_on_c, 11, 67, 0
12, 83160, Note_on_c, 11, 67, 127
12, 83280, Note_on_c, 11, 67, 0
12, 83280, Note_on_c, 11, 65, 127
12, 83376, Note_on_c, 11, 65, 0
12, 83400, Note_on_c, 11, 68, 127
12, 83520, Note_on_c, 11, 68, 0
12, 83520, Note_on_c, 11, 70, 127
12, 83760, Note_on_c, 11, 70, 0
12, 83760, Note_on_c, 11, 70, 127
12, 83880, Note_on_c, 11, 70, 0
12, 83880, Note_on_c, 11, 68, 127
12, 83976, Note_on_c, 11, 68, 0
12, 84240, Note_on_c, 11, 61, 127
12, 84336, Note_on_c, 11, 61, 0
12, 84420, Note_on_c, 11, 61, 127
12, 84468, Note_on_c, 11, 61, 0
12, 84480, Note_on_c, 11, 63, 127
12, 84528, Note_on_c, 11, 63, 0
12, 84540, Note_on_c, 11, 65, 127
12, 84588, Note_on_c, 11, 65, 0
12, 84600, Note_on_c, 11, 66, 127
12, 84696, Note_on_c, 11, 66, 0
12, 84780, Note_on_c, 11, 63, 127
12, 84828, Note_on_c, 11, 63, 0
12, 84840, Note_on_c, 11, 65, 127
12, 84888, Note_on_c, 11, 65, 0
12, 84900, Note_on_c, 11, 66, 127
12, 84948, Note_on_c, 11, 66, 0
12, 84960, Note_on_c, 11, 68, 127
12, 85056, Note_on_c, 11, 68, 0
12, 85140, Note_on_c, 11, 65, 127
12, 85188, Note_on_c, 11, 65, 0
12, 85200, Note_on_c, 11, 66, 127
12, 85248, Note_on_c, 11, 66, 0
12, 85260, Note_on_c, 11, 68, 127
12, 85308, Note_on_c, 11, 68, 0
12, 85320, Note_on_c, 11, 70, 127
12, 85416, Note_on_c, 11, 70, 0
12, 85440, Note_on_c, 11, 78, 127
12, 85536, Note_on_c, 11, 78, 0
12, 85560, Note_on_c, 11, 75, 127
12, 85656, Note_on_c, 11, 75, 0
12, 85680, Note_on_c, 11, 77, 127
12, 85776, Note_on_c, 11, 77, 0
12, 85860, Note_on_c, 11, 61, 102
12, 85908, Note_on_c, 11, 61, 0
12, 85920, Note_on_c, 11, 63, 103
12, 85968, Note_on_c, 11, 63, 0
12, 85980, Note_on_c, 11, 65, 104
12, 86028, Note_on_c, 11, 65, 0
12, 86040, Note_on_c, 11, 66, 105
12, 86136, Note_on_c, 11, 66, 0
12, 86220, Note_on_c, 11, 63, 109
12, 86268, Note_on_c, 11, 63, 0
12, 86280, Note_on_c, 11, 65, 110
12, 86328, Note_on_c, 11, 65, 0
12, 86340, Note_on_c, 11, 66, 111
12, 86388, Note_on_c, 11, 66, 0
12, 86400, Note_on_c, 11, 68, 112
12, 86496, Note_on_c, 11, 68, 0
12, 86580, Note_on_c, 11, 65, 116
12, 86628, Note_on_c, 11, 65, 0
12, 86640, Note_on_c, 11, 66, 117
12, 86688, Note_on_c, 11, 66, 0
12, 86700, Note_on_c, 11, 68, 118
12, 86748, Note_on_c, 11, 68, 0
12, 86760, Note_on_c, 11, 67, 119
12, 86856, Note_on_c, 11, 67, 0
12, 86880, Note_on_c, 11, 67, 122
12, 86976, Note_on_c, 11, 67, 0
12, 87000, Note_on_c, 11, 68, 124
12, 87096, Note_on_c, 11, 68, 0
12, 87120, Note_on_c, 11, 70, 127
12, 87168, Note_on_c, 11, 70, 0
12, 87180, Note_on_c, 11, 73, 102
12, 87180, Note_on_c, 11, 82, 102
12, 87228, Note_on_c, 11, 82, 0
12, 87228, Note_on_c, 11, 73, 0
12, 87240, Note_on_c, 11, 73, 104
12, 87240, Note_on_c, 11, 82, 104
12, 87288, Note_on_c, 11, 82, 0
12, 87288, Note_on_c, 11, 73, 0
12, 87300, Note_on_c, 11, 73, 106
12, 87300, Note_on_c, 11, 82, 106
12, 87348, Note_on_c, 11, 82, 0
12, 87348, Note_on_c, 11, 73, 0
12, 87360, Note_on_c, 11, 73, 109
12, 87360, Note_on_c, 11, 82, 109
12, 87408, Note_on_c, 11, 82, 0
12, 87408, Note_on_c, 11, 73, 0
12, 87420, Note_on_c, 11, 73, 111
12, 87420, Note_on_c, 11, 82, 111
12, 87468, Note_on_c, 11, 82, 0
12, 87468, Note_on_c, 11, 73, 0
12, 87480, Note_on_c, 11, 73, 113
12, 87480, Note_on_c, 11, 82, 113
12, 87528, Note_on_c, 11, 82, 0
12, 87528, Note_on_c, 11, 73, 0
12, 87540, Note_on_c, 11, 73, 115
12, 87540, Note_on_c, 11, 82, 115
12, 87588, Note_on_c, 11, 82, 0
12, 87588, Note_on_c, 11, 73, 0
12, 87600, Note_on_c, 11, 73, 118
12, 87600, Note_on_c, 11, 82, 118
12, 87648, Note_on_c, 11, 82, 0
12, 87648, Note_on_c, 11, 73, 0
12, 87660, Note_on_c, 11, 73, 120
12, 87660, Note_on_c, 11, 82, 120
12, 87708, Note_on_c, 11, 82, 0
12, 87708, Note_on_c, 11, 73, 0
12, 87720, Note_on_c, 11, 73, 122
12, 87720, Note_on_c, 11, 82, 122
12, 87768, Note_on_c, 11, 82, 0
12, 87768, Note_on_c, 11, 73, 0
12, 87780, Note_on_c, 11, 73, 124
12, 87780, Note_on_c, 11, 82, 124
12, 87828, Note_on_c, 11, 82, 0
12, 87828, Note_on_c, 11, 73, 0
12, 87840, Note_on_c, 11, 72, 127
12, 88080, Note_on_c, 11, 72, 0
12, 88080, Note_on_c, 11, 72, 124
12, 88140, Note_on_c, 11, 72, 0
12, 88140, Note_on_c, 11, 68, 123
12, 88188, Note_on_c, 11, 68, 0
12, 88200, Note_on_c, 11, 73, 122
12, 88440, Note_on_c, 11, 73, 0
12, 88440, Note_on_c, 11, 68, 119
12, 88500, Note_on_c, 11, 68, 0
12, 88500, Note_on_c, 11, 65, 118
12, 88548, Note_on_c, 11, 65, 0
12, 88560, Note_on_c, 11, 70, 117
12, 88800, Note_on_c, 11, 70, 0
12, 88800, Note_on_c, 11, 67, 114
12, 88860, Note_on_c, 11, 67, 0
12, 88860, Note_on_c, 11, 61, 113
12, 88908, Note_on_c, 11, 61, 0
12, 88920, Note_on_c, 11, 72, 112
12, 89160, Note_on_c, 11, 72, 0
12, 89160, Note_on_c, 11, 68, 109
12, 89220, Note_on_c, 11, 68, 0
12, 89220, Note_on_c, 11, 63, 108
12, 89268, Note_on_c, 11, 63, 0
12, 89280, Note_on_c, 11, 63, 107
12, 89520, Note_on_c, 11, 63, 0
12, 89520, Note_on_c, 11, 60, 104
12, 89580, Note_on_c, 11, 60, 0
12, 89580, Note_on_c, 11, 56, 103
12, 89628, Note_on_c, 11, 56, 0
12, 89640, Note_on_c, 11, 61, 102
12, 89880, Note_on_c, 11, 61, 0
12, 89880, Note_on_c, 11, 56, 99
12, 89940, Note_on_c, 11, 56, 0
12, 89940, Note_on_c, 11, 65, 98
12, 89988, Note_on_c, 11, 65, 0
12, 90000, Note_on_c, 11, 58, 97
12, 90240, Note_on_c, 11, 58, 0
12, 90240, Note_on_c, 11, 61, 94
12, 90300, Note_on_c, 11, 61, 0
12, 90300, Note_on_c, 11, 60, 93
12, 90348, Note_on_c, 11, 60, 0
12, 90360, Note_on_c, 11, 56, 92
12, 90456, Note_on_c, 11, 56, 0
12, 90720, Note_on_c, 11, 61, 112
12, 90816, Note_on_c, 11, 61, 0
12, 90840, Note_on_c, 11, 61, 112
12, 90936, Note_on_c, 11, 61, 0
12, 91020, Note_on_c, 11, 61, 112
12, 91068, Note_on_c, 11, 61, 0
12, 91080, Note_on_c, 11, 61, 112
12, 91176, Note_on_c, 11, 61, 0
12, 91200, Note_on_c, 11, 61, 112
12, 91296, Note_on_c, 11, 61, 0
12, 92160, Note_on_c, 11, 61, 112
12, 92256, Note_on_c, 11, 61, 0
12, 92280, Note_on_c, 11, 61, 112
12, 92376, Note_on_c, 11, 61, 0
12, 92460, Note_on_c, 11, 61, 112
12, 92508, Note_on_c, 11, 61, 0
12, 92520, Note_on_c, 11, 61, 112
12, 92616, Note_on_c, 11, 61, 0
12, 92640, Note_on_c, 11, 61, 112
12, 92736, Note_on_c, 11, 61, 0
12, 93600, Note_on_c, 11, 65, 112
12, 93696, Note_on_c, 11, 65, 0
12, 93720, Note_on_c, 11, 65, 112
12, 93816, Note_on_c, 11, 65, 0
12, 93900, Note_on_c, 11, 65, 112
12, 93948, Note_on_c, 11, 65, 0
12, 93960, Note_on_c, 11, 66, 112
12, 94056, Note_on_c, 11, 66, 0
12, 94080, Note_on_c, 11, 66, 112
12, 94176, Note_on_c, 11, 66, 0
12, 96480, Note_on_c, 11, 70, 67
12, 96512, Note_on_c, 11, 70, 0
12, 96520, Note_on_c, 11, 70, 67
12, 96552, Note_on_c, 11, 70, 0
12, 96560, Note_on_c, 11, 70, 67
12, 96592, Note_on_c, 11, 70, 0
12, 96600, Note_on_c, 11, 70, 68
12, 96632, Note_on_c, 11, 70, 0
12, 96640, Note_on_c, 11, 70, 68
12, 96672, Note_on_c, 11, 70, 0
12, 96680, Note_on_c, 11, 70, 68
12, 96712, Note_on_c, 11, 70, 0
12, 96720, Note_on_c, 11, 70, 69
12, 96752, Note_on_c, 11, 70, 0
12, 96760, Note_on_c, 11, 70, 69
12, 96792, Note_on_c, 11, 70, 0
12, 96800, Note_on_c, 11, 70, 69
12, 96832, Note_on_c, 11, 70, 0
12, 96840, Note_on_c, 11, 72, 100
12, 96872, Note_on_c, 11, 72, 0
12, 96880, Note_on_c, 11, 72, 103
12, 96912, Note_on_c, 11, 72, 0
12, 96920, Note_on_c, 11, 72, 106
12, 96952, Note_on_c, 11, 72, 0
12, 96960, Note_on_c, 11, 72, 109
12, 96992, Note_on_c, 11, 72, 0
12, 97000, Note_on_c, 11, 72, 112
12, 97032, Note_on_c, 11, 72, 0
12, 97040, Note_on_c, 11, 72, 115
12, 97072, Note_on_c, 11, 72, 0
12, 97080, Note_on_c, 11, 72, 118
12, 97112, Note_on_c, 11, 72, 0
12, 97120, Note_on_c, 11, 72, 121
12, 97152, Note_on_c, 11, 72, 0
12, 97160, Note_on_c, 11, 72, 124
12, 97192, Note_on_c, 11, 72, 0
12, 97200, Note_on_c, 11, 73, 127
12, 97232, Note_on_c, 11, 73, 0
12, 97240, Note_on_c, 11, 73, 127
12, 97272, Note_on_c, 11, 73, 0
12, 97280, Note_on_c, 11, 73, 127
12, 97312, Note_on_c, 11, 73, 0
12, 97320, Note_on_c, 11, 73, 127
12, 97352, Note_on_c, 11, 73, 0
12, 97360, Note_on_c, 11, 73, 127
12, 97392, Note_on_c, 11, 73, 0
12, 97400, Note_on_c, 11, 73, 127
12, 97432, Note_on_c, 11, 73, 0
12, 97440, Note_on_c, 11, 73, 127
12, 97472, Note_on_c, 11, 73, 0
12, 97480, Note_on_c, 11, 73, 127
12, 97512, Note_on_c, 11, 73, 0
12, 97520, Note_on_c, 11, 73, 127
12, 97552, Note_on_c, 11, 73, 0
12, 97560, Note_on_c, 11, 73, 127
12, 97592, Note_on_c, 11, 73, 0
12, 97600, Note_on_c, 11, 73, 127
12, 97632, Note_on_c, 11, 73, 0
12, 97640, Note_on_c, 11, 73, 127
12, 97672, Note_on_c, 11, 73, 0
12, 97680, Note_on_c, 11, 70, 127
12, 97712, Note_on_c, 11, 70, 0
12, 97720, Note_on_c, 11, 70, 127
12, 97752, Note_on_c, 11, 70, 0
12, 97760, Note_on_c, 11, 70, 127
12, 97792, Note_on_c, 11, 70, 0
12, 97800, Note_on_c, 11, 70, 127
12, 97832, Note_on_c, 11, 70, 0
12, 97840, Note_on_c, 11, 70, 127
12, 97872, Note_on_c, 11, 70, 0
12, 97880, Note_on_c, 11, 70, 127
12, 97912, Note_on_c, 11, 70, 0
12, 97920, Note_on_c, 11, 70, 127
12, 97952, Note_on_c, 11, 70, 0
12, 97960, Note_on_c, 11, 70, 127
12, 97992, Note_on_c, 11, 70, 0
12, 98000, Note_on_c, 11, 70, 127
12, 98032, Note_on_c, 11, 70, 0
12, 98040, Note_on_c, 11, 66, 127
12, 98072, Note_on_c, 11, 66, 0
12, 98080, Note_on_c, 11, 66, 127
12, 98112, Note_on_c, 11, 66, 0
12, 98120, Note_on_c, 11, 66, 127
12, 98152, Note_on_c, 11, 66, 0
12, 98160, Note_on_c, 11, 66, 127
12, 98192, Note_on_c, 11, 66, 0
12, 98200, Note_on_c, 11, 66, 127
12, 98232, Note_on_c, 11, 66, 0
12, 98240, Note_on_c, 11, 66, 127
12, 98272, Note_on_c, 11, 66, 0
12, 98280, Note_on_c, 11, 66, 127
12, 98312, Note_on_c, 11, 66, 0
12, 98320, Note_on_c, 11, 66, 127
12, 98352, Note_on_c, 11, 66, 0
12, 98360, Note_on_c, 11, 66, 127
12, 98392, Note_on_c, 11, 66, 0
12, 98400, Note_on_c, 11, 63, 127
12, 98432, Note_on_c, 11, 63, 0
12, 98440, Note_on_c, 11, 63, 127
12, 98472, Note_on_c, 11, 63, 0
12, 98480, Note_on_c, 11, 63, 127
12, 98512, Note_on_c, 11, 63, 0
12, 98520, Note_on_c, 11, 60, 127
12, 98552, Note_on_c, 11, 60, 0
12, 98560, Note_on_c, 11, 60, 127
12, 98592, Note_on_c, 11, 60, 0
12, 98600, Note_on_c, 11, 60, 127
12, 98632, Note_on_c, 11, 60, 0
12, 98640, Note_on_c, 11, 61, 127
12, 98736, Note_on_c, 11, 61, 0
12, 98820, Note_on_c, 11, 61, 127
12, 98868, Note_on_c, 11, 61, 0
12, 98880, Note_on_c, 11, 63, 127
12, 98928, Note_on_c, 11, 63, 0
12, 98940, Note_on_c, 11, 65, 127
12, 98988, Note_on_c, 11, 65, 0
12, 99000, Note_on_c, 11, 66, 127
12, 99048, Note_on_c, 11, 66, 0
12, 99060, Note_on_c, 11, 68, 127
12, 99108, Note_on_c, 11, 68, 0
12, 99120, Note_on_c, 11, 70, 127
12, 99168, Note_on_c, 11, 70, 0
12, 99180, Note_on_c, 11, 72, 127
12, 99228, Note_on_c, 11, 72, 0
12, 99240, Note_on_c, 11, 73, 127
12, 99288, Note_on_c, 11, 73, 0
12, 99300, Note_on_c, 11, 75, 127
12, 99348, Note_on_c, 11, 75, 0
12, 99360, Note_on_c, 11, 77, 127
12, 99456, Note_on_c, 11, 77, 0
12, 99540, Note_on_c, 11, 65, 127
12, 99588, Note_on_c, 11, 65, 0
12, 99600, Note_on_c, 11, 66, 127
12, 99648, Note_on_c, 11, 66, 0
12, 99660, Note_on_c, 11, 68, 127
12, 99708, Note_on_c, 11, 68, 0
12, 99720, Note_on_c, 11, 70, 127
12, 99768, Note_on_c, 11, 70, 0
12, 99780, Note_on_c, 11, 72, 127
12, 99828, Note_on_c, 11, 72, 0
12, 99840, Note_on_c, 11, 73, 127
12, 99888, Note_on_c, 11, 73, 0
12, 99900, Note_on_c, 11, 75, 127
12, 99948, Note_on_c, 11, 75, 0
12, 99960, Note_on_c, 11, 77, 127
12, 100008, Note_on_c, 11, 77, 0
12, 100020, Note_on_c, 11, 78, 127
12, 100068, Note_on_c, 11, 78, 0
12, 100080, Note_on_c, 11, 80, 127
12, 100176, Note_on_c, 11, 80, 0
12, 100260, Note_on_c, 11, 65, 127
12, 100308, Note_on_c, 11, 65, 0
12, 100320, Note_on_c, 11, 66, 127
12, 100368, Note_on_c, 11, 66, 0
12, 100380, Note_on_c, 11, 68, 127
12, 100428, Note_on_c, 11, 68, 0
12, 100440, Note_on_c, 11, 70, 127
12, 100488, Note_on_c, 11, 70, 0
12, 100500, Note_on_c, 11, 72, 127
12, 100548, Note_on_c, 11, 72, 0
12, 100560, Note_on_c, 11, 73, 127
12, 100608, Note_on_c, 11, 73, 0
12, 100620, Note_on_c, 11, 75, 127
12, 100668, Note_on_c, 11, 75, 0
12, 100680, Note_on_c, 11, 77, 127
12, 100728, Note_on_c, 11, 77, 0
12, 100740, Note_on_c, 11, 78, 127
12, 100788, Note_on_c, 11, 78, 0
12, 100800, Note_on_c, 11, 80, 127
12, 100992, Note_on_c, 11, 80, 0
12, 101040, Note_on_c, 11, 72, 127
12, 101136, Note_on_c, 11, 72, 0
12, 101160, Note_on_c, 11, 80, 127
12, 101352, Note_on_c, 11, 80, 0
12, 101400, Note_on_c, 11, 72, 127
12, 101496, Note_on_c, 11, 72, 0
12, 101520, Note_on_c, 11, 80, 127
12, 101712, Note_on_c, 11, 80, 0
12, 101760, Note_on_c, 11, 73, 127
12, 101856, Note_on_c, 11, 73, 0
12, 101880, Note_on_c, 11, 80, 127
12, 102072, Note_on_c, 11, 80, 0
12, 102120, Note_on_c, 11, 72, 127
12, 102216, Note_on_c, 11, 72, 0
12, 102240, Note_on_c, 11, 80, 127
12, 102432, Note_on_c, 11, 80, 0
12, 102480, Note_on_c, 11, 73, 127
12, 102576, Note_on_c, 11, 73, 0
12, 102600, Note_on_c, 11, 80, 127
12, 102792, Note_on_c, 11, 80, 0
12, 102840, Note_on_c, 11, 72, 127
12, 102936, Note_on_c, 11, 72, 0
12, 102960, Note_on_c, 11, 56, 127
12, 102960, Note_on_c, 11, 65, 127
12, 102960, Note_on_c, 11, 73, 127
12, 103056, Note_on_c, 11, 73, 0
12, 103056, Note_on_c, 11, 65, 0
12, 103056, Note_on_c, 11, 56, 0
12, 104400, Note_on_c, 11, 65, 50
12, 104496, Note_on_c, 11, 65, 0
12, 104520, Note_on_c, 11, 65, 50
12, 104616, Note_on_c, 11, 65, 0
12, 104760, Note_on_c, 11, 65, 50
12, 104856, Note_on_c, 11, 65, 0
12, 104880, Note_on_c, 11, 65, 50
12, 104976, Note_on_c, 11, 65, 0
12, 105120, Note_on_c, 11, 65, 50
12, 105216, Note_on_c, 11, 65, 0
12, 105240, Note_on_c, 11, 65, 50
12, 105336, Note_on_c, 11, 65, 0
12, 105480, Note_on_c, 11, 65, 50
12, 105576, Note_on_c, 11, 65, 0
12, 105600, Note_on_c, 11, 65, 50
12, 105696, Note_on_c, 11, 65, 0
12, 107280, Note_on_c, 11, 61, 50
12, 107376, Note_on_c, 11, 61, 0
12, 107400, Note_on_c, 11, 61, 50
12, 107496, Note_on_c, 11, 61, 0
12, 107640, Note_on_c, 11, 61, 50
12, 107736, Note_on_c, 11, 61, 0
12, 107760, Note_on_c, 11, 61, 50
12, 107856, Note_on_c, 11, 61, 0
12, 108000, Note_on_c, 11, 60, 50
12, 108096, Note_on_c, 11, 60, 0
12, 108120, Note_on_c, 11, 60, 50
12, 108216, Note_on_c, 11, 60, 0
12, 108360, Note_on_c, 11, 60, 50
12, 108456, Note_on_c, 11, 60, 0
12, 108480, Note_on_c, 11, 60, 50
12, 108576, Note_on_c, 11, 60, 0
12, 108720, Note_on_c, 11, 60, 127
12, 108816, Note_on_c, 11, 60, 0
12, 108840, Note_on_c, 11, 60, 127
12, 108936, Note_on_c, 11, 60, 0
12, 109020, Note_on_c, 11, 60, 127
12, 109068, Note_on_c, 11, 60, 0
12, 109080, Note_on_c, 11, 60, 127
12, 109176, Note_on_c, 11, 60, 0
12, 109200, Note_on_c, 11, 60, 127
12, 109296, Note_on_c, 11, 60, 0
12, 109380, Note_on_c, 11, 60, 127
12, 109428, Note_on_c, 11, 60, 0
12, 109440, Note_on_c, 11, 60, 127
12, 109536, Note_on_c, 11, 60, 0
12, 109560, Note_on_c, 11, 60, 127
12, 109656, Note_on_c, 11, 60, 0
12, 109800, Note_on_c, 11, 72, 127
12, 110040, Note_on_c, 11, 72, 0
12, 110040, Note_on_c, 11, 67, 127
12, 110088, Note_on_c, 11, 67, 0
12, 113400, Note_on_c, 11, 67, 50
12, 113424, Note_on_c, 11, 67, 0
12, 113430, Note_on_c, 11, 67, 50
12, 113454, Note_on_c, 11, 67, 0
12, 113460, Note_on_c, 11, 67, 50
12, 113484, Note_on_c, 11, 67, 0
12, 113490, Note_on_c, 11, 67, 50
12, 113514, Note_on_c, 11, 67, 0
12, 113520, Note_on_c, 11, 67, 50
12, 113544, Note_on_c, 11, 67, 0
12, 113550, Note_on_c, 11, 67, 50
12, 113574, Note_on_c, 11, 67, 0
12, 113580, Note_on_c, 11, 67, 50
12, 113604, Note_on_c, 11, 67, 0
12, 113610, Note_on_c, 11, 67, 50
12, 113634, Note_on_c, 11, 67, 0
12, 113640, Note_on_c, 11, 67, 50
12, 113664, Note_on_c, 11, 67, 0
12, 113670, Note_on_c, 11, 67, 50
12, 113694, Note_on_c, 11, 67, 0
12, 113700, Note_on_c, 11, 67, 50
12, 113724, Note_on_c, 11, 67, 0
12, 113730, Note_on_c, 11, 67, 50
12, 113754, Note_on_c, 11, 67, 0
12, 113760, Note_on_c, 11, 67, 50
12, 113784, Note_on_c, 11, 67, 0
12, 113790, Note_on_c, 11, 67, 50
12, 113814, Note_on_c, 11, 67, 0
12, 113820, Note_on_c, 11, 67, 50
12, 113844, Note_on_c, 11, 67, 0
12, 113850, Note_on_c, 11, 67, 50
12, 113874, Note_on_c, 11, 67, 0
12, 113880, Note_on_c, 11, 67, 50
12, 113904, Note_on_c, 11, 67, 0
12, 113910, Note_on_c, 11, 67, 50
12, 113934, Note_on_c, 11, 67, 0
12, 113940, Note_on_c, 11, 67, 50
12, 113964, Note_on_c, 11, 67, 0
12, 113970, Note_on_c, 11, 67, 50
12, 113994, Note_on_c, 11, 67, 0
12, 114000, Note_on_c, 11, 67, 50
12, 114024, Note_on_c, 11, 67, 0
12, 114030, Note_on_c, 11, 67, 50
12, 114054, Note_on_c, 11, 67, 0
12, 114060, Note_on_c, 11, 67, 50
12, 114084, Note_on_c, 11, 67, 0
12, 114090, Note_on_c, 11, 67, 50
12, 114114, Note_on_c, 11, 67, 0
12, 114120, Note_on_c, 11, 67, 50
12, 114144, Note_on_c, 11, 67, 0
12, 114150, Note_on_c, 11, 67, 50
12, 114174, Note_on_c, 11, 67, 0
12, 114180, Note_on_c, 11, 67, 50
12, 114204, Note_on_c, 11, 67, 0
12, 114210, Note_on_c, 11, 67, 50
12, 114234, Note_on_c, 11, 67, 0
12, 114240, Note_on_c, 11, 67, 50
12, 114264, Note_on_c, 11, 67, 0
12, 114270, Note_on_c, 11, 67, 50
12, 114294, Note_on_c, 11, 67, 0
12, 114300, Note_on_c, 11, 67, 50
12, 114324, Note_on_c, 11, 67, 0
12, 114330, Note_on_c, 11, 67, 50
12, 114354, Note_on_c, 11, 67, 0
12, 114360, Note_on_c, 11, 65, 50
12, 114360, Note_on_c, 11, 71, 50
12, 114384, Note_on_c, 11, 71, 0
12, 114384, Note_on_c, 11, 65, 0
12, 114390, Note_on_c, 11, 65, 50
12, 114390, Note_on_c, 11, 71, 50
12, 114414, Note_on_c, 11, 71, 0
12, 114414, Note_on_c, 11, 65, 0
12, 114420, Note_on_c, 11, 65, 50
12, 114420, Note_on_c, 11, 71, 50
12, 114444, Note_on_c, 11, 71, 0
12, 114444, Note_on_c, 11, 65, 0
12, 114450, Note_on_c, 11, 65, 50
12, 114450, Note_on_c, 11, 71, 50
12, 114474, Note_on_c, 11, 71, 0
12, 114474, Note_on_c, 11, 65, 0
12, 114480, Note_on_c, 11, 71, 50
12, 114480, Note_on_c, 11, 65, 50
12, 114504, Note_on_c, 11, 65, 0
12, 114504, Note_on_c, 11, 71, 0
12, 114510, Note_on_c, 11, 71, 50
12, 114510, Note_on_c, 11, 65, 50
12, 114534, Note_on_c, 11, 65, 0
12, 114534, Note_on_c, 11, 71, 0
12, 114540, Note_on_c, 11, 71, 50
12, 114540, Note_on_c, 11, 65, 50
12, 114564, Note_on_c, 11, 65, 0
12, 114564, Note_on_c, 11, 71, 0
12, 114570, Note_on_c, 11, 71, 50
12, 114570, Note_on_c, 11, 65, 50
12, 114594, Note_on_c, 11, 65, 0
12, 114594, Note_on_c, 11, 71, 0
12, 114600, Note_on_c, 11, 71, 50
12, 114600, Note_on_c, 11, 65, 50
12, 114624, Note_on_c, 11, 65, 0
12, 114624, Note_on_c, 11, 71, 0
12, 114630, Note_on_c, 11, 71, 50
12, 114630, Note_on_c, 11, 65, 50
12, 114654, Note_on_c, 11, 65, 0
12, 114654, Note_on_c, 11, 71, 0
12, 114660, Note_on_c, 11, 71, 50
12, 114660, Note_on_c, 11, 65, 50
12, 114684, Note_on_c, 11, 65, 0
12, 114684, Note_on_c, 11, 71, 0
12, 114690, Note_on_c, 11, 71, 50
12, 114690, Note_on_c, 11, 65, 50
12, 114714, Note_on_c, 11, 65, 0
12, 114714, Note_on_c, 11, 71, 0
12, 114720, Note_on_c, 11, 71, 50
12, 114720, Note_on_c, 11, 65, 50
12, 114744, Note_on_c, 11, 65, 0
12, 114744, Note_on_c, 11, 71, 0
12, 114750, Note_on_c, 11, 71, 50
12, 114750, Note_on_c, 11, 65, 50
12, 114774, Note_on_c, 11, 65, 0
12, 114774, Note_on_c, 11, 71, 0
12, 114780, Note_on_c, 11, 71, 50
12, 114780, Note_on_c, 11, 65, 50
12, 114804, Note_on_c, 11, 65, 0
12, 114804, Note_on_c, 11, 71, 0
12, 114810, Note_on_c, 11, 71, 50
12, 114810, Note_on_c, 11, 65, 50
12, 114834, Note_on_c, 11, 65, 0
12, 114834, Note_on_c, 11, 71, 0
12, 114840, Note_on_c, 11, 71, 50
12, 114840, Note_on_c, 11, 65, 50
12, 114864, Note_on_c, 11, 65, 0
12, 114864, Note_on_c, 11, 71, 0
12, 114870, Note_on_c, 11, 71, 50
12, 114870, Note_on_c, 11, 65, 50
12, 114894, Note_on_c, 11, 65, 0
12, 114894, Note_on_c, 11, 71, 0
12, 114900, Note_on_c, 11, 71, 50
12, 114900, Note_on_c, 11, 65, 50
12, 114924, Note_on_c, 11, 65, 0
12, 114924, Note_on_c, 11, 71, 0
12, 114930, Note_on_c, 11, 71, 50
12, 114930, Note_on_c, 11, 65, 50
12, 114954, Note_on_c, 11, 65, 0
12, 114954, Note_on_c, 11, 71, 0
12, 114960, Note_on_c, 11, 65, 50
12, 114960, Note_on_c, 11, 71, 50
12, 114984, Note_on_c, 11, 71, 0
12, 114984, Note_on_c, 11, 65, 0
12, 114990, Note_on_c, 11, 65, 50
12, 114990, Note_on_c, 11, 71, 50
12, 115014, Note_on_c, 11, 71, 0
12, 115014, Note_on_c, 11, 65, 0
12, 115020, Note_on_c, 11, 65, 50
12, 115020, Note_on_c, 11, 71, 50
12, 115044, Note_on_c, 11, 71, 0
12, 115044, Note_on_c, 11, 65, 0
12, 115050, Note_on_c, 11, 65, 50
12, 115050, Note_on_c, 11, 71, 50
12, 115074, Note_on_c, 11, 71, 0
12, 115074, Note_on_c, 11, 65, 0
12, 115080, Note_on_c, 11, 65, 50
12, 115080, Note_on_c, 11, 71, 50
12, 115104, Note_on_c, 11, 71, 0
12, 115104, Note_on_c, 11, 65, 0
12, 115110, Note_on_c, 11, 65, 51
12, 115110, Note_on_c, 11, 71, 51
12, 115134, Note_on_c, 11, 71, 0
12, 115134, Note_on_c, 11, 65, 0
12, 115140, Note_on_c, 11, 65, 52
12, 115140, Note_on_c, 11, 71, 52
12, 115164, Note_on_c, 11, 71, 0
12, 115164, Note_on_c, 11, 65, 0
12, 115170, Note_on_c, 11, 65, 53
12, 115170, Note_on_c, 11, 71, 53
12, 115194, Note_on_c, 11, 71, 0
12, 115194, Note_on_c, 11, 65, 0
12, 115200, Note_on_c, 11, 65, 54
12, 115200, Note_on_c, 11, 71, 54
12, 115224, Note_on_c, 11, 71, 0
12, 115224, Note_on_c, 11, 65, 0
12, 115230, Note_on_c, 11, 65, 55
12, 115230, Note_on_c, 11, 71, 55
12, 115254, Note_on_c, 11, 71, 0
12, 115254, Note_on_c, 11, 65, 0
12, 115260, Note_on_c, 11, 65, 56
12, 115260, Note_on_c, 11, 71, 56
12, 115284, Note_on_c, 11, 71, 0
12, 115284, Note_on_c, 11, 65, 0
12, 115290, Note_on_c, 11, 65, 57
12, 115290, Note_on_c, 11, 71, 57
12, 115314, Note_on_c, 11, 71, 0
12, 115314, Note_on_c, 11, 65, 0
12, 115320, Note_on_c, 11, 70, 58
12, 115344, Note_on_c, 11, 70, 0
12, 115350, Note_on_c, 11, 70, 59
12, 115374, Note_on_c, 11, 70, 0
12, 115380, Note_on_c, 11, 70, 60
12, 115404, Note_on_c, 11, 70, 0
12, 115410, Note_on_c, 11, 70, 61
12, 115434, Note_on_c, 11, 70, 0
12, 115440, Note_on_c, 11, 67, 62
12, 115464, Note_on_c, 11, 67, 0
12, 115470, Note_on_c, 11, 67, 64
12, 115494, Note_on_c, 11, 67, 0
12, 115500, Note_on_c, 11, 67, 65
12, 115524, Note_on_c, 11, 67, 0
12, 115530, Note_on_c, 11, 67, 66
12, 115554, Note_on_c, 11, 67, 0
12, 115560, Note_on_c, 11, 70, 67
12, 115584, Note_on_c, 11, 70, 0
12, 115590, Note_on_c, 11, 70, 68
12, 115614, Note_on_c, 11, 70, 0
12, 115620, Note_on_c, 11, 70, 69
12, 115644, Note_on_c, 11, 70, 0
12, 115650, Note_on_c, 11, 70, 70
12, 115674, Note_on_c, 11, 70, 0
12, 115680, Note_on_c, 11, 67, 71
12, 115704, Note_on_c, 11, 67, 0
12, 115710, Note_on_c, 11, 67, 72
12, 115734, Note_on_c, 11, 67, 0
12, 115740, Note_on_c, 11, 67, 73
12, 115764, Note_on_c, 11, 67, 0
12, 115770, Note_on_c, 11, 67, 74
12, 115794, Note_on_c, 11, 67, 0
12, 115800, Note_on_c, 11, 72, 75
12, 115824, Note_on_c, 11, 72, 0
12, 115830, Note_on_c, 11, 72, 76
12, 115854, Note_on_c, 11, 72, 0
12, 115860, Note_on_c, 11, 72, 78
12, 115884, Note_on_c, 11, 72, 0
12, 115890, Note_on_c, 11, 72, 79
12, 115914, Note_on_c, 11, 72, 0
12, 115920, Note_on_c, 11, 69, 80
12, 115944, Note_on_c, 11, 69, 0
12, 115950, Note_on_c, 11, 69, 81
12, 115974, Note_on_c, 11, 69, 0
12, 115980, Note_on_c, 11, 69, 82
12, 116004, Note_on_c, 11, 69, 0
12, 116010, Note_on_c, 11, 69, 83
12, 116034, Note_on_c, 11, 69, 0
12, 116040, Note_on_c, 11, 72, 84
12, 116064, Note_on_c, 11, 72, 0
12, 116070, Note_on_c, 11, 72, 85
12, 116094, Note_on_c, 11, 72, 0
12, 116100, Note_on_c, 11, 72, 86
12, 116124, Note_on_c, 11, 72, 0
12, 116130, Note_on_c, 11, 72, 87
12, 116154, Note_on_c, 11, 72, 0
12, 116160, Note_on_c, 11, 69, 88
12, 116184, Note_on_c, 11, 69, 0
12, 116190, Note_on_c, 11, 69, 89
12, 116214, Note_on_c, 11, 69, 0
12, 116220, Note_on_c, 11, 69, 90
12, 116244, Note_on_c, 11, 69, 0
12, 116250, Note_on_c, 11, 69, 92
12, 116274, Note_on_c, 11, 69, 0
12, 116280, Note_on_c, 11, 76, 93
12, 116304, Note_on_c, 11, 76, 0
12, 116310, Note_on_c, 11, 75, 94
12, 116334, Note_on_c, 11, 75, 0
12, 116340, Note_on_c, 11, 76, 95
12, 116364, Note_on_c, 11, 76, 0
12, 116370, Note_on_c, 11, 77, 96
12, 116394, Note_on_c, 11, 77, 0
12, 116400, Note_on_c, 11, 76, 97
12, 116448, Note_on_c, 11, 76, 0
12, 116460, Note_on_c, 11, 79, 99
12, 116508, Note_on_c, 11, 79, 0
12, 116520, Note_on_c, 11, 77, 101
12, 116544, Note_on_c, 11, 77, 0
12, 116550, Note_on_c, 11, 76, 102
12, 116574, Note_on_c, 11, 76, 0
12, 116580, Note_on_c, 11, 77, 103
12, 116604, Note_on_c, 11, 77, 0
12, 116610, Note_on_c, 11, 79, 104
12, 116634, Note_on_c, 11, 79, 0
12, 116640, Note_on_c, 11, 81, 106
12, 116688, Note_on_c, 11, 81, 0
12, 116700, Note_on_c, 11, 77, 108
12, 116748, Note_on_c, 11, 77, 0
12, 116760, Note_on_c, 11, 79, 110
12, 116784, Note_on_c, 11, 79, 0
12, 116790, Note_on_c, 11, 79, 111
12, 116814, Note_on_c, 11, 79, 0
12, 116820, Note_on_c, 11, 77, 112
12, 116844, Note_on_c, 11, 77, 0
12, 116850, Note_on_c, 11, 77, 113
12, 116874, Note_on_c, 11, 77, 0
12, 116880, Note_on_c, 11, 79, 114
12, 116904, Note_on_c, 11, 79, 0
12, 116910, Note_on_c, 11, 79, 115
12, 116934, Note_on_c, 11, 79, 0
12, 116940, Note_on_c, 11, 81, 116
12, 116964, Note_on_c, 11, 81, 0
12, 116970, Note_on_c, 11, 81, 117
12, 116994, Note_on_c, 11, 81, 0
12, 117000, Note_on_c, 11, 82, 118
12, 117024, Note_on_c, 11, 82, 0
12, 117030, Note_on_c, 11, 82, 120
12, 117054, Note_on_c, 11, 82, 0
12, 117060, Note_on_c, 11, 84, 121
12, 117084, Note_on_c, 11, 84, 0
12, 117090, Note_on_c, 11, 84, 122
12, 117114, Note_on_c, 11, 84, 0
12, 117120, Note_on_c, 11, 86, 123
12, 117144, Note_on_c, 11, 86, 0
12, 117150, Note_on_c, 11, 86, 124
12, 117174, Note_on_c, 11, 86, 0
12, 117180, Note_on_c, 11, 88, 125
12, 117204, Note_on_c, 11, 88, 0
12, 117210, Note_on_c, 11, 88, 126
12, 117234, Note_on_c, 11, 88, 0
12, 117240, Note_on_c, 11, 89, 127
12, 117264, Note_on_c, 11, 89, 0
12, 117270, Note_on_c, 11, 89, 127
12, 117294, Note_on_c, 11, 89, 0
12, 117300, Note_on_c, 11, 89, 127
12, 117324, Note_on_c, 11, 89, 0
12, 117330, Note_on_c, 11, 89, 127
12, 117354, Note_on_c, 11, 89, 0
12, 117360, Note_on_c, 11, 89, 127
12, 117384, Note_on_c, 11, 89, 0
12, 117390, Note_on_c, 11, 89, 127
12, 117414, Note_on_c, 11, 89, 0
12, 117420, Note_on_c, 11, 89, 127
12, 117444, Note_on_c, 11, 89, 0
12, 117450, Note_on_c, 11, 89, 127
12, 117474, Note_on_c, 11, 89, 0
12, 117480, Note_on_c, 11, 89, 127
12, 117504, Note_on_c, 11, 89, 0
12, 117510, Note_on_c, 11, 89, 127
12, 117534, Note_on_c, 11, 89, 0
12, 117540, Note_on_c, 11, 88, 127
12, 117564, Note_on_c, 11, 88, 0
12, 117570, Note_on_c, 11, 88, 127
12, 117594, Note_on_c, 11, 88, 0
12, 117600, Note_on_c, 11, 84, 127
12, 117624, Note_on_c, 11, 84, 0
12, 117630, Note_on_c, 11, 84, 127
12, 117654, Note_on_c, 11, 84, 0
12, 117660, Note_on_c, 11, 88, 127
12, 117684, Note_on_c, 11, 88, 0
12, 117690, Note_on_c, 11, 88, 127
12, 117714, Note_on_c, 11, 88, 0
12, 117720, Note_on_c, 11, 89, 127
12, 117744, Note_on_c, 11, 89, 0
12, 117750, Note_on_c, 11, 89, 127
12, 117774, Note_on_c, 11, 89, 0
12, 117780, Note_on_c, 11, 89, 127
12, 117804, Note_on_c, 11, 89, 0
12, 117810, Note_on_c, 11, 89, 127
12, 117834, Note_on_c, 11, 89, 0
12, 117840, Note_on_c, 11, 89, 127
12, 117864, Note_on_c, 11, 89, 0
12, 117870, Note_on_c, 11, 89, 127
12, 117894, Note_on_c, 11, 89, 0
12, 117900, Note_on_c, 11, 89, 127
12, 117924, Note_on_c, 11, 89, 0
12, 117930, Note_on_c, 11, 89, 127
12, 117954, Note_on_c, 11, 89, 0
12, 117960, Note_on_c, 11, 89, 127
12, 117984, Note_on_c, 11, 89, 0
12, 117990, Note_on_c, 11, 89, 127
12, 118014, Note_on_c, 11, 89, 0
12, 118020, Note_on_c, 11, 88, 127
12, 118044, Note_on_c, 11, 88, 0
12, 118050, Note_on_c, 11, 88, 127
12, 118074, Note_on_c, 11, 88, 0
12, 118080, Note_on_c, 11, 84, 127
12, 118104, Note_on_c, 11, 84, 0
12, 118110, Note_on_c, 11, 84, 127
12, 118134, Note_on_c, 11, 84, 0
12, 118140, Note_on_c, 11, 88, 127
12, 118164, Note_on_c, 11, 88, 0
12, 118170, Note_on_c, 11, 88, 127
12, 118194, Note_on_c, 11, 88, 0
12, 118200, Note_on_c, 11, 89, 127
12, 118224, Note_on_c, 11, 89, 0
12, 118230, Note_on_c, 11, 89, 127
12, 118254, Note_on_c, 11, 89, 0
12, 118260, Note_on_c, 11, 88, 127
12, 118284, Note_on_c, 11, 88, 0
12, 118290, Note_on_c, 11, 88, 127
12, 118314, Note_on_c, 11, 88, 0
12, 118320, Note_on_c, 11, 84, 127
12, 118344, Note_on_c, 11, 84, 0
12, 118350, Note_on_c, 11, 84, 127
12, 118374, Note_on_c, 11, 84, 0
12, 118380, Note_on_c, 11, 88, 127
12, 118404, Note_on_c, 11, 88, 0
12, 118410, Note_on_c, 11, 88, 127
12, 118434, Note_on_c, 11, 88, 0
12, 118440, Note_on_c, 11, 89, 127
12, 118464, Note_on_c, 11, 89, 0
12, 118470, Note_on_c, 11, 89, 127
12, 118494, Note_on_c, 11, 89, 0
12, 118500, Note_on_c, 11, 88, 127
12, 118524, Note_on_c, 11, 88, 0
12, 118530, Note_on_c, 11, 88, 127
12, 118554, Note_on_c, 11, 88, 0
12, 118560, Note_on_c, 11, 84, 127
12, 118584, Note_on_c, 11, 84, 0
12, 118590, Note_on_c, 11, 84, 127
12, 118614, Note_on_c, 11, 84, 0
12, 118620, Note_on_c, 11, 88, 127
12, 118644, Note_on_c, 11, 88, 0
12, 118650, Note_on_c, 11, 88, 127
12, 118674, Note_on_c, 11, 88, 0
12, 118680, Note_on_c, 11, 89, 127
12, 118704, Note_on_c, 11, 89, 0
12, 118710, Note_on_c, 11, 89, 127
12, 118734, Note_on_c, 11, 89, 0
12, 118740, Note_on_c, 11, 88, 127
12, 118764, Note_on_c, 11, 88, 0
12, 118770, Note_on_c, 11, 88, 127
12, 118794, Note_on_c, 11, 88, 0
12, 118800, Note_on_c, 11, 84, 127
12, 118824, Note_on_c, 11, 84, 0
12, 118830, Note_on_c, 11, 84, 127
12, 118854, Note_on_c, 11, 84, 0
12, 118860, Note_on_c, 11, 88, 127
12, 118884, Note_on_c, 11, 88, 0
12, 118890, Note_on_c, 11, 88, 127
12, 118914, Note_on_c, 11, 88, 0
12, 118920, Note_on_c, 11, 89, 127
12, 118944, Note_on_c, 11, 89, 0
12, 118950, Note_on_c, 11, 89, 127
12, 118974, Note_on_c, 11, 89, 0
12, 118980, Note_on_c, 11, 88, 127
12, 119004, Note_on_c, 11, 88, 0
12, 119010, Note_on_c, 11, 88, 127
12, 119034, Note_on_c, 11, 88, 0
12, 119040, Note_on_c, 11, 84, 127
12, 119064, Note_on_c, 11, 84, 0
12, 119070, Note_on_c, 11, 84, 127
12, 119094, Note_on_c, 11, 84, 0
12, 119100, Note_on_c, 11, 88, 127
12, 119124, Note_on_c, 11, 88, 0
12, 119130, Note_on_c, 11, 88, 127
12, 119154, Note_on_c, 11, 88, 0
12, 119160, Note_on_c, 11, 89, 127
12, 119208, Note_on_c, 11, 89, 0
12, 119220, Note_on_c, 11, 79, 127
12, 119244, Note_on_c, 11, 79, 0
12, 119250, Note_on_c, 11, 79, 127
12, 119274, Note_on_c, 11, 79, 0
12, 119280, Note_on_c, 11, 77, 127
12, 119304, Note_on_c, 11, 77, 0
12, 119310, Note_on_c, 11, 77, 127
12, 119334, Note_on_c, 11, 77, 0
12, 119340, Note_on_c, 11, 76, 127
12, 119364, Note_on_c, 11, 76, 0
12, 119370, Note_on_c, 11, 76, 127
12, 119394, Note_on_c, 11, 76, 0
12, 119400, Note_on_c, 11, 77, 127
12, 119424, Note_on_c, 11, 77, 0
12, 119430, Note_on_c, 11, 77, 127
12, 119454, Note_on_c, 11, 77, 0
12, 119460, Note_on_c, 11, 76, 127
12, 119484, Note_on_c, 11, 76, 0
12, 119490, Note_on_c, 11, 76, 127
12, 119514, Note_on_c, 11, 76, 0
12, 119520, Note_on_c, 11, 74, 127
12, 119544, Note_on_c, 11, 74, 0
12, 119550, Note_on_c, 11, 74, 127
12, 119574, Note_on_c, 11, 74, 0
12, 119580, Note_on_c, 11, 73, 127
12, 119604, Note_on_c, 11, 73, 0
12, 119610, Note_on_c, 11, 73, 127
12, 119634, Note_on_c, 11, 73, 0
12, 119640, Note_on_c, 11, 74, 127
12, 119664, Note_on_c, 11, 74, 0
12, 119670, Note_on_c, 11, 74, 127
12, 119694, Note_on_c, 11, 74, 0
12, 119700, Note_on_c, 11, 72, 127
12, 119724, Note_on_c, 11, 72, 0
12, 119730, Note_on_c, 11, 72, 127
12, 119754, Note_on_c, 11, 72, 0
12, 119760, Note_on_c, 11, 70, 127
12, 119784, Note_on_c, 11, 70, 0
12, 119790, Note_on_c, 11, 70, 127
12, 119814, Note_on_c, 11, 70, 0
12, 119820, Note_on_c, 11, 69, 127
12, 119844, Note_on_c, 11, 69, 0
12, 119850, Note_on_c, 11, 69, 127
12, 119874, Note_on_c, 11, 69, 0
12, 119880, Note_on_c, 11, 70, 127
12, 119904, Note_on_c, 11, 70, 0
12, 119910, Note_on_c, 11, 70, 127
12, 119934, Note_on_c, 11, 70, 0
12, 119940, Note_on_c, 11, 67, 127
12, 119964, Note_on_c, 11, 67, 0
12, 119970, Note_on_c, 11, 67, 127
12, 119994, Note_on_c, 11, 67, 0
12, 120000, Note_on_c, 11, 72, 127
12, 120024, Note_on_c, 11, 72, 0
12, 120030, Note_on_c, 11, 72, 127
12, 120054, Note_on_c, 11, 72, 0
12, 120060, Note_on_c, 11, 72, 127
12, 120084, Note_on_c, 11, 72, 0
12, 120090, Note_on_c, 11, 72, 127
12, 120114, Note_on_c, 11, 72, 0
12, 120120, Note_on_c, 11, 89, 127
12, 120144, Note_on_c, 11, 89, 0
12, 120150, Note_on_c, 11, 89, 127
12, 120174, Note_on_c, 11, 89, 0
12, 120180, Note_on_c, 11, 89, 127
12, 120204, Note_on_c, 11, 89, 0
12, 120210, Note_on_c, 11, 89, 127
12, 120234, Note_on_c, 11, 89, 0
12, 120240, Note_on_c, 11, 89, 127
12, 120264, Note_on_c, 11, 89, 0
12, 120270, Note_on_c, 11, 89, 127
12, 120294, Note_on_c, 11, 89, 0
12, 120300, Note_on_c, 11, 89, 127
12, 120324, Note_on_c, 11, 89, 0
12, 120330, Note_on_c, 11, 89, 127
12, 120354, Note_on_c, 11, 89, 0
12, 120360, Note_on_c, 11, 89, 127
12, 120384, Note_on_c, 11, 89, 0
12, 120390, Note_on_c, 11, 89, 127
12, 120414, Note_on_c, 11, 89, 0
12, 120420, Note_on_c, 11, 88, 127
12, 120444, Note_on_c, 11, 88, 0
12, 120450, Note_on_c, 11, 88, 127
12, 120474, Note_on_c, 11, 88, 0
12, 120480, Note_on_c, 11, 84, 127
12, 120504, Note_on_c, 11, 84, 0
12, 120510, Note_on_c, 11, 84, 127
12, 120534, Note_on_c, 11, 84, 0
12, 120540, Note_on_c, 11, 88, 127
12, 120564, Note_on_c, 11, 88, 0
12, 120570, Note_on_c, 11, 88, 127
12, 120594, Note_on_c, 11, 88, 0
12, 120600, Note_on_c, 11, 89, 127
12, 120624, Note_on_c, 11, 89, 0
12, 120630, Note_on_c, 11, 89, 127
12, 120654, Note_on_c, 11, 89, 0
12, 120660, Note_on_c, 11, 89, 127
12, 120684, Note_on_c, 11, 89, 0
12, 120690, Note_on_c, 11, 89, 127
12, 120714, Note_on_c, 11, 89, 0
12, 120720, Note_on_c, 11, 89, 127
12, 120744, Note_on_c, 11, 89, 0
12, 120750, Note_on_c, 11, 89, 127
12, 120774, Note_on_c, 11, 89, 0
12, 120780, Note_on_c, 11, 89, 127
12, 120804, Note_on_c, 11, 89, 0
12, 120810, Note_on_c, 11, 89, 127
12, 120834, Note_on_c, 11, 89, 0
12, 120840, Note_on_c, 11, 89, 127
12, 120864, Note_on_c, 11, 89, 0
12, 120870, Note_on_c, 11, 89, 127
12, 120894, Note_on_c, 11, 89, 0
12, 120900, Note_on_c, 11, 88, 127
12, 120924, Note_on_c, 11, 88, 0
12, 120930, Note_on_c, 11, 88, 127
12, 120954, Note_on_c, 11, 88, 0
12, 120960, Note_on_c, 11, 84, 127
12, 120984, Note_on_c, 11, 84, 0
12, 120990, Note_on_c, 11, 84, 127
12, 121014, Note_on_c, 11, 84, 0
12, 121020, Note_on_c, 11, 88, 127
12, 121044, Note_on_c, 11, 88, 0
12, 121050, Note_on_c, 11, 88, 127
12, 121074, Note_on_c, 11, 88, 0
12, 121080, Note_on_c, 11, 89, 127
12, 121104, Note_on_c, 11, 89, 0
12, 121110, Note_on_c, 11, 89, 127
12, 121134, Note_on_c, 11, 89, 0
12, 121140, Note_on_c, 11, 88, 127
12, 121164, Note_on_c, 11, 88, 0
12, 121170, Note_on_c, 11, 88, 127
12, 121194, Note_on_c, 11, 88, 0
12, 121200, Note_on_c, 11, 84, 127
12, 121224, Note_on_c, 11, 84, 0
12, 121230, Note_on_c, 11, 84, 127
12, 121254, Note_on_c, 11, 84, 0
12, 121260, Note_on_c, 11, 88, 127
12, 121284, Note_on_c, 11, 88, 0
12, 121290, Note_on_c, 11, 88, 127
12, 121314, Note_on_c, 11, 88, 0
12, 121320, Note_on_c, 11, 89, 127
12, 121344, Note_on_c, 11, 89, 0
12, 121350, Note_on_c, 11, 89, 127
12, 121374, Note_on_c, 11, 89, 0
12, 121380, Note_on_c, 11, 88, 127
12, 121404, Note_on_c, 11, 88, 0
12, 121410, Note_on_c, 11, 88, 127
12, 121434, Note_on_c, 11, 88, 0
12, 121440, Note_on_c, 11, 84, 127
12, 121464, Note_on_c, 11, 84, 0
12, 121470, Note_on_c, 11, 84, 127
12, 121494, Note_on_c, 11, 84, 0
12, 121500, Note_on_c, 11, 88, 127
12, 121524, Note_on_c, 11, 88, 0
12, 121530, Note_on_c, 11, 88, 127
12, 121554, Note_on_c, 11, 88, 0
12, 121560, Note_on_c, 11, 89, 127
12, 121584, Note_on_c, 11, 89, 0
12, 121590, Note_on_c, 11, 89, 127
12, 121614, Note_on_c, 11, 89, 0
12, 121620, Note_on_c, 11, 88, 127
12, 121644, Note_on_c, 11, 88, 0
12, 121650, Note_on_c, 11, 88, 127
12, 121674, Note_on_c, 11, 88, 0
12, 121680, Note_on_c, 11, 84, 127
12, 121704, Note_on_c, 11, 84, 0
12, 121710, Note_on_c, 11, 84, 127
12, 121734, Note_on_c, 11, 84, 0
12, 121740, Note_on_c, 11, 88, 127
12, 121764, Note_on_c, 11, 88, 0
12, 121770, Note_on_c, 11, 88, 127
12, 121794, Note_on_c, 11, 88, 0
12, 121800, Note_on_c, 11, 89, 127
12, 121824, Note_on_c, 11, 89, 0
12, 121830, Note_on_c, 11, 89, 127
12, 121854, Note_on_c, 11, 89, 0
12, 121860, Note_on_c, 11, 88, 127
12, 121884, Note_on_c, 11, 88, 0
12, 121890, Note_on_c, 11, 88, 127
12, 121914, Note_on_c, 11, 88, 0
12, 121920, Note_on_c, 11, 84, 127
12, 121944, Note_on_c, 11, 84, 0
12, 121950, Note_on_c, 11, 84, 127
12, 121974, Note_on_c, 11, 84, 0
12, 121980, Note_on_c, 11, 88, 127
12, 122004, Note_on_c, 11, 88, 0
12, 122010, Note_on_c, 11, 88, 127
12, 122034, Note_on_c, 11, 88, 0
12, 122040, Note_on_c, 11, 89, 127
12, 122088, Note_on_c, 11, 89, 0
12, 122100, Note_on_c, 11, 79, 127
12, 122124, Note_on_c, 11, 79, 0
12, 122130, Note_on_c, 11, 79, 127
12, 122154, Note_on_c, 11, 79, 0
12, 122160, Note_on_c, 11, 77, 127
12, 122184, Note_on_c, 11, 77, 0
12, 122190, Note_on_c, 11, 77, 127
12, 122214, Note_on_c, 11, 77, 0
12, 122220, Note_on_c, 11, 76, 127
12, 122244, Note_on_c, 11, 76, 0
12, 122250, Note_on_c, 11, 76, 127
12, 122274, Note_on_c, 11, 76, 0
12, 122280, Note_on_c, 11, 77, 127
12, 122304, Note_on_c, 11, 77, 0
12, 122310, Note_on_c, 11, 77, 127
12, 122334, Note_on_c, 11, 77, 0
12, 122340, Note_on_c, 11, 76, 127
12, 122364, Note_on_c, 11, 76, 0
12, 122370, Note_on_c, 11, 76, 127
12, 122394, Note_on_c, 11, 76, 0
12, 122400, Note_on_c, 11, 74, 127
12, 122424, Note_on_c, 11, 74, 0
12, 122430, Note_on_c, 11, 74, 127
12, 122454, Note_on_c, 11, 74, 0
12, 122460, Note_on_c, 11, 73, 127
12, 122484, Note_on_c, 11, 73, 0
12, 122490, Note_on_c, 11, 73, 127
12, 122514, Note_on_c, 11, 73, 0
12, 122520, Note_on_c, 11, 74, 127
12, 122544, Note_on_c, 11, 74, 0
12, 122550, Note_on_c, 11, 74, 127
12, 122574, Note_on_c, 11, 74, 0
12, 122580, Note_on_c, 11, 72, 127
12, 122604, Note_on_c, 11, 72, 0
12, 122610, Note_on_c, 11, 72, 127
12, 122634, Note_on_c, 11, 72, 0
12, 122640, Note_on_c, 11, 70, 127
12, 122664, Note_on_c, 11, 70, 0
12, 122670, Note_on_c, 11, 70, 127
12, 122694, Note_on_c, 11, 70, 0
12, 122700, Note_on_c, 11, 69, 127
12, 122724, Note_on_c, 11, 69, 0
12, 122730, Note_on_c, 11, 69, 127
12, 122754, Note_on_c, 11, 69, 0
12, 122760, Note_on_c, 11, 70, 127
12, 122784, Note_on_c, 11, 70, 0
12, 122790, Note_on_c, 11, 70, 127
12, 122814, Note_on_c, 11, 70, 0
12, 122820, Note_on_c, 11, 67, 127
12, 122844, Note_on_c, 11, 67, 0
12, 122850, Note_on_c, 11, 67, 127
12, 122874, Note_on_c, 11, 67, 0
12, 122880, Note_on_c, 11, 72, 127
12, 122904, Note_on_c, 11, 72, 0
12, 122910, Note_on_c, 11, 72, 127
12, 122934, Note_on_c, 11, 72, 0
12, 122940, Note_on_c, 11, 72, 127
12, 122964, Note_on_c, 11, 72, 0
12, 122970, Note_on_c, 11, 72, 127
12, 122994, Note_on_c, 11, 72, 0
12, 123000, Note_on_c, 11, 65, 127
12, 123096, Note_on_c, 11, 65, 0
12, 124980, Note_on_c, 11, 69, 127
12, 125004, Note_on_c, 11, 69, 0
12, 125010, Note_on_c, 11, 70, 127
12, 125034, Note_on_c, 11, 70, 0
12, 125040, Note_on_c, 11, 72, 127
12, 125088, Note_on_c, 11, 72, 0
12, 125100, Note_on_c, 11, 72, 127
12, 125148, Note_on_c, 11, 72, 0
12, 125160, Note_on_c, 11, 72, 127
12, 125208, Note_on_c, 11, 72, 0
12, 125220, Note_on_c, 11, 69, 127
12, 125236, Note_on_c, 11, 69, 0
12, 125240, Note_on_c, 11, 70, 127
12, 125256, Note_on_c, 11, 70, 0
12, 125260, Note_on_c, 11, 72, 127
12, 125276, Note_on_c, 11, 72, 0
12, 125280, Note_on_c, 11, 74, 127
12, 125328, Note_on_c, 11, 74, 0
12, 125340, Note_on_c, 11, 72, 127
12, 125388, Note_on_c, 11, 72, 0
12, 125400, Note_on_c, 11, 70, 127
12, 125448, Note_on_c, 11, 70, 0
12, 125460, Note_on_c, 11, 67, 127
12, 125484, Note_on_c, 11, 67, 0
12, 125490, Note_on_c, 11, 69, 127
12, 125514, Note_on_c, 11, 69, 0
12, 125520, Note_on_c, 11, 70, 127
12, 125568, Note_on_c, 11, 70, 0
12, 125580, Note_on_c, 11, 70, 127
12, 125628, Note_on_c, 11, 70, 0
12, 125640, Note_on_c, 11, 70, 127
12, 125688, Note_on_c, 11, 70, 0
12, 125700, Note_on_c, 11, 67, 127
12, 125716, Note_on_c, 11, 67, 0
12, 125720, Note_on_c, 11, 69, 127
12, 125736, Note_on_c, 11, 69, 0
12, 125740, Note_on_c, 11, 70, 127
12, 125756, Note_on_c, 11, 70, 0
12, 125760, Note_on_c, 11, 72, 127
12, 125808, Note_on_c, 11, 72, 0
12, 125820, Note_on_c, 11, 70, 127
12, 125868, Note_on_c, 11, 70, 0
12, 125880, Note_on_c, 11, 69, 127
12, 125904, Note_on_c, 11, 69, 0
12, 125910, Note_on_c, 11, 69, 127
12, 125934, Note_on_c, 11, 69, 0
12, 125940, Note_on_c, 11, 70, 127
12, 125964, Note_on_c, 11, 70, 0
12, 125970, Note_on_c, 11, 70, 127
12, 125994, Note_on_c, 11, 70, 0
12, 126000, Note_on_c, 11, 72, 127
12, 126024, Note_on_c, 11, 72, 0
12, 126030, Note_on_c, 11, 72, 127
12, 126054, Note_on_c, 11, 72, 0
12, 126060, Note_on_c, 11, 73, 127
12, 126084, Note_on_c, 11, 73, 0
12, 126090, Note_on_c, 11, 73, 127
12, 126114, Note_on_c, 11, 73, 0
12, 126120, Note_on_c, 11, 74, 127
12, 126144, Note_on_c, 11, 74, 0
12, 126150, Note_on_c, 11, 74, 127
12, 126174, Note_on_c, 11, 74, 0
12, 126180, Note_on_c, 11, 72, 127
12, 126204, Note_on_c, 11, 72, 0
12, 126210, Note_on_c, 11, 72, 127
12, 126234, Note_on_c, 11, 72, 0
12, 126240, Note_on_c, 11, 70, 127
12, 126264, Note_on_c, 11, 70, 0
12, 126270, Note_on_c, 11, 70, 127
12, 126294, Note_on_c, 11, 70, 0
12, 126300, Note_on_c, 11, 69, 127
12, 126324, Note_on_c, 11, 69, 0
12, 126330, Note_on_c, 11, 69, 127
12, 126354, Note_on_c, 11, 69, 0
12, 126360, Note_on_c, 11, 70, 127
12, 126384, Note_on_c, 11, 70, 0
12, 126390, Note_on_c, 11, 70, 127
12, 126414, Note_on_c, 11, 70, 0
12, 126420, Note_on_c, 11, 69, 127
12, 126444, Note_on_c, 11, 69, 0
12, 126450, Note_on_c, 11, 69, 127
12, 126474, Note_on_c, 11, 69, 0
12, 126480, Note_on_c, 11, 67, 127
12, 126504, Note_on_c, 11, 67, 0
12, 126510, Note_on_c, 11, 67, 127
12, 126534, Note_on_c, 11, 67, 0
12, 126540, Note_on_c, 11, 69, 127
12, 126564, Note_on_c, 11, 69, 0
12, 126570, Note_on_c, 11, 69, 127
12, 126594, Note_on_c, 11, 69, 0
12, 126600, Note_on_c, 11, 70, 127
12, 126624, Note_on_c, 11, 70, 0
12, 126630, Note_on_c, 11, 70, 127
12, 126654, Note_on_c, 11, 70, 0
12, 126660, Note_on_c, 11, 72, 127
12, 126684, Note_on_c, 11, 72, 0
12, 126690, Note_on_c, 11, 72, 127
12, 126714, Note_on_c, 11, 72, 0
12, 126720, Note_on_c, 11, 74, 127
12, 126744, Note_on_c, 11, 74, 0
12, 126750, Note_on_c, 11, 74, 127
12, 126774, Note_on_c, 11, 74, 0
12, 126780, Note_on_c, 11, 76, 127
12, 126804, Note_on_c, 11, 76, 0
12, 126810, Note_on_c, 11, 76, 127
12, 126834, Note_on_c, 11, 76, 0
12, 126840, Note_on_c, 11, 77, 127
12, 126872, Note_on_c, 11, 77, 0
12, 126880, Note_on_c, 11, 77, 127
12, 126912, Note_on_c, 11, 77, 0
12, 126920, Note_on_c, 11, 77, 127
12, 126952, Note_on_c, 11, 77, 0
12, 126960, Note_on_c, 11, 75, 127
12, 126992, Note_on_c, 11, 75, 0
12, 127000, Note_on_c, 11, 75, 127
12, 127032, Note_on_c, 11, 75, 0
12, 127040, Note_on_c, 11, 75, 127
12, 127072, Note_on_c, 11, 75, 0
12, 127080, Note_on_c, 11, 74, 127
12, 127112, Note_on_c, 11, 74, 0
12, 127120, Note_on_c, 11, 74, 127
12, 127152, Note_on_c, 11, 74, 0
12, 127160, Note_on_c, 11, 74, 127
12, 127192, Note_on_c, 11, 74, 0
12, 127200, Note_on_c, 11, 78, 127
12, 127232, Note_on_c, 11, 78, 0
12, 127240, Note_on_c, 11, 78, 127
12, 127272, Note_on_c, 11, 78, 0
12, 127280, Note_on_c, 11, 78, 127
12, 127312, Note_on_c, 11, 78, 0
12, 127320, Note_on_c, 11, 79, 127
12, 127352, Note_on_c, 11, 79, 0
12, 127360, Note_on_c, 11, 79, 127
12, 127392, Note_on_c, 11, 79, 0
12, 127400, Note_on_c, 11, 79, 127
12, 127432, Note_on_c, 11, 79, 0
12, 127440, Note_on_c, 11, 73, 127
12, 127472, Note_on_c, 11, 73, 0
12, 127480, Note_on_c, 11, 73, 127
12, 127512, Note_on_c, 11, 73, 0
12, 127520, Note_on_c, 11, 73, 127
12, 127552, Note_on_c, 11, 73, 0
12, 127560, Note_on_c, 11, 72, 127
12, 127592, Note_on_c, 11, 72, 0
12, 127600, Note_on_c, 11, 72, 127
12, 127632, Note_on_c, 11, 72, 0
12, 127640, Note_on_c, 11, 72, 127
12, 127672, Note_on_c, 11, 72, 0
12, 127680, Note_on_c, 11, 76, 127
12, 127712, Note_on_c, 11, 76, 0
12, 127720, Note_on_c, 11, 76, 127
12, 127752, Note_on_c, 11, 76, 0
12, 127760, Note_on_c, 11, 76, 127
12, 127792, Note_on_c, 11, 76, 0
12, 127800, Note_on_c, 11, 77, 127
12, 127832, Note_on_c, 11, 77, 0
12, 127840, Note_on_c, 11, 77, 127
12, 127872, Note_on_c, 11, 77, 0
12, 127880, Note_on_c, 11, 77, 127
12, 127912, Note_on_c, 11, 77, 0
12, 127920, Note_on_c, 11, 77, 127
12, 127952, Note_on_c, 11, 77, 0
12, 127960, Note_on_c, 11, 77, 127
12, 127992, Note_on_c, 11, 77, 0
12, 128000, Note_on_c, 11, 77, 127
12, 128032, Note_on_c, 11, 77, 0
12, 128040, Note_on_c, 11, 79, 127
12, 128072, Note_on_c, 11, 79, 0
12, 128080, Note_on_c, 11, 79, 127
12, 128112, Note_on_c, 11, 79, 0
12, 128120, Note_on_c, 11, 79, 127
12, 128152, Note_on_c, 11, 79, 0
12, 128160, Note_on_c, 11, 79, 127
12, 128192, Note_on_c, 11, 79, 0
12, 128200, Note_on_c, 11, 79, 127
12, 128232, Note_on_c, 11, 79, 0
12, 128240, Note_on_c, 11, 79, 127
12, 128272, Note_on_c, 11, 79, 0
12, 128280, Note_on_c, 11, 81, 127
12, 128312, Note_on_c, 11, 81, 0
12, 128320, Note_on_c, 11, 81, 127
12, 128352, Note_on_c, 11, 81, 0
12, 128360, Note_on_c, 11, 81, 127
12, 128392, Note_on_c, 11, 81, 0
12, 128400, Note_on_c, 11, 81, 127
12, 128432, Note_on_c, 11, 81, 0
12, 128440, Note_on_c, 11, 81, 127
12, 128472, Note_on_c, 11, 81, 0
12, 128480, Note_on_c, 11, 81, 127
12, 128512, Note_on_c, 11, 81, 0
12, 128520, Note_on_c, 11, 82, 127
12, 128552, Note_on_c, 11, 82, 0
12, 128560, Note_on_c, 11, 82, 127
12, 128592, Note_on_c, 11, 82, 0
12, 128600, Note_on_c, 11, 82, 127
12, 128632, Note_on_c, 11, 82, 0
12, 128640, Note_on_c, 11, 82, 127
12, 128672, Note_on_c, 11, 82, 0
12, 128680, Note_on_c, 11, 82, 127
12, 128712, Note_on_c, 11, 82, 0
12, 128720, Note_on_c, 11, 82, 127
12, 128752, Note_on_c, 11, 82, 0
12, 128760, Note_on_c, 11, 83, 127
12, 128792, Note_on_c, 11, 83, 0
12, 128800, Note_on_c, 11, 83, 127
12, 128832, Note_on_c, 11, 83, 0
12, 128840, Note_on_c, 11, 83, 127
12, 128872, Note_on_c, 11, 83, 0
12, 128880, Note_on_c, 11, 84, 127
12, 128912, Note_on_c, 11, 84, 0
12, 128920, Note_on_c, 11, 84, 127
12, 128952, Note_on_c, 11, 84, 0
12, 128960, Note_on_c, 11, 84, 127
12, 128992, Note_on_c, 11, 84, 0
12, 129000, Note_on_c, 11, 84, 127
12, 129032, Note_on_c, 11, 84, 0
12, 129040, Note_on_c, 11, 84, 127
12, 129072, Note_on_c, 11, 84, 0
12, 129080, Note_on_c, 11, 84, 127
12, 129112, Note_on_c, 11, 84, 0
12, 129120, Note_on_c, 11, 84, 127
12, 129152, Note_on_c, 11, 84, 0
12, 129160, Note_on_c, 11, 84, 127
12, 129192, Note_on_c, 11, 84, 0
12, 129200, Note_on_c, 11, 84, 127
12, 129232, Note_on_c, 11, 84, 0
12, 129240, Note_on_c, 11, 84, 127
12, 129272, Note_on_c, 11, 84, 0
12, 129280, Note_on_c, 11, 84, 127
12, 129312, Note_on_c, 11, 84, 0
12, 129320, Note_on_c, 11, 84, 127
12, 129352, Note_on_c, 11, 84, 0
12, 129360, Note_on_c, 11, 84, 127
12, 129392, Note_on_c, 11, 84, 0
12, 129400, Note_on_c, 11, 84, 127
12, 129432, Note_on_c, 11, 84, 0
12, 129440, Note_on_c, 11, 84, 127
12, 129472, Note_on_c, 11, 84, 0
12, 129480, Note_on_c, 11, 84, 127
12, 129512, Note_on_c, 11, 84, 0
12, 129520, Note_on_c, 11, 84, 127
12, 129552, Note_on_c, 11, 84, 0
12, 129560, Note_on_c, 11, 84, 127
12, 129592, Note_on_c, 11, 84, 0
12, 129600, Note_on_c, 11, 84, 127
12, 129632, Note_on_c, 11, 84, 0
12, 129640, Note_on_c, 11, 84, 127
12, 129672, Note_on_c, 11, 84, 0
12, 129680, Note_on_c, 11, 84, 127
12, 129712, Note_on_c, 11, 84, 0
12, 129720, Note_on_c, 11, 82, 127
12, 129752, Note_on_c, 11, 82, 0
12, 129760, Note_on_c, 11, 82, 127
12, 129792, Note_on_c, 11, 82, 0
12, 129800, Note_on_c, 11, 82, 127
12, 129832, Note_on_c, 11, 82, 0
12, 129840, Note_on_c, 11, 79, 127
12, 129872, Note_on_c, 11, 79, 0
12, 129880, Note_on_c, 11, 79, 127
12, 129912, Note_on_c, 11, 79, 0
12, 129920, Note_on_c, 11, 79, 127
12, 129952, Note_on_c, 11, 79, 0
12, 129960, Note_on_c, 11, 76, 127
12, 129992, Note_on_c, 11, 76, 0
12, 130000, Note_on_c, 11, 76, 127
12, 130032, Note_on_c, 11, 76, 0
12, 130040, Note_on_c, 11, 76, 127
12, 130072, Note_on_c, 11, 76, 0
12, 130080, Note_on_c, 11, 72, 127
12, 130112, Note_on_c, 11, 72, 0
12, 130120, Note_on_c, 11, 72, 127
12, 130152, Note_on_c, 11, 72, 0
12, 130160, Note_on_c, 11, 72, 127
12, 130192, Note_on_c, 11, 72, 0
12, 130200, Note_on_c, 11, 70, 127
12, 130232, Note_on_c, 11, 70, 0
12, 130240, Note_on_c, 11, 70, 127
12, 130272, Note_on_c, 11, 70, 0
12, 130280, Note_on_c, 11, 70, 127
12, 130312, Note_on_c, 11, 70, 0
12, 130320, Note_on_c, 11, 67, 127
12, 130352, Note_on_c, 11, 67, 0
12, 130360, Note_on_c, 11, 67, 127
12, 130392, Note_on_c, 11, 67, 0
12, 130400, Note_on_c, 11, 67, 127
12, 130432, Note_on_c, 11, 67, 0
12, 130440, Note_on_c, 11, 64, 127
12, 130472, Note_on_c, 11, 64, 0
12, 130480, Note_on_c, 11, 64, 127
12, 130512, Note_on_c, 11, 64, 0
12, 130520, Note_on_c, 11, 64, 127
12, 130552, Note_on_c, 11, 64, 0
12, 130560, Note_on_c, 11, 60, 127
12, 130592, Note_on_c, 11, 60, 0
12, 130600, Note_on_c, 11, 60, 127
12, 130632, Note_on_c, 11, 60, 0
12, 130640, Note_on_c, 11, 60, 127
12, 130672, Note_on_c, 11, 60, 0
12, 130680, Note_on_c, 11, 65, 127
12, 130712, Note_on_c, 11, 65, 0
12, 130720, Note_on_c, 11, 77, 127
12, 130752, Note_on_c, 11, 77, 0
12, 130760, Note_on_c, 11, 77, 127
12, 130792, Note_on_c, 11, 77, 0
12, 130800, Note_on_c, 11, 77, 127
12, 130832, Note_on_c, 11, 77, 0
12, 130840, Note_on_c, 11, 77, 127
12, 130872, Note_on_c, 11, 77, 0
12, 130880, Note_on_c, 11, 77, 127
12, 130912, Note_on_c, 11, 77, 0
12, 130920, Note_on_c, 11, 67, 127
12, 130952, Note_on_c, 11, 67, 0
12, 130960, Note_on_c, 11, 79, 127
12, 130992, Note_on_c, 11, 79, 0
12, 131000, Note_on_c, 11, 79, 127
12, 131032, Note_on_c, 11, 79, 0
12, 131040, Note_on_c, 11, 79, 127
12, 131072, Note_on_c, 11, 79, 0
12, 131080, Note_on_c, 11, 79, 127
12, 131112, Note_on_c, 11, 79, 0
12, 131120, Note_on_c, 11, 79, 127
12, 131152, Note_on_c, 11, 79, 0
12, 131160, Note_on_c, 11, 69, 127
12, 131192, Note_on_c, 11, 69, 0
12, 131200, Note_on_c, 11, 81, 127
12, 131232, Note_on_c, 11, 81, 0
12, 131240, Note_on_c, 11, 81, 127
12, 131272, Note_on_c, 11, 81, 0
12, 131280, Note_on_c, 11, 81, 127
12, 131312, Note_on_c, 11, 81, 0
12, 131320, Note_on_c, 11, 81, 127
12, 131352, Note_on_c, 11, 81, 0
12, 131360, Note_on_c, 11, 81, 127
12, 131392, Note_on_c, 11, 81, 0
12, 131400, Note_on_c, 11, 70, 127
12, 131432, Note_on_c, 11, 70, 0
12, 131440, Note_on_c, 11, 82, 127
12, 131472, Note_on_c, 11, 82, 0
12, 131480, Note_on_c, 11, 82, 127
12, 131512, Note_on_c, 11, 82, 0
12, 131520, Note_on_c, 11, 82, 127
12, 131552, Note_on_c, 11, 82, 0
12, 131560, Note_on_c, 11, 82, 127
12, 131592, Note_on_c, 11, 82, 0
12, 131600, Note_on_c, 11, 82, 127
12, 131632, Note_on_c, 11, 82, 0
12, 131640, Note_on_c, 11, 83, 127
12, 131672, Note_on_c, 11, 83, 0
12, 131680, Note_on_c, 11, 83, 127
12, 131712, Note_on_c, 11, 83, 0
12, 131720, Note_on_c, 11, 83, 127
12, 131752, Note_on_c, 11, 83, 0
12, 131760, Note_on_c, 11, 84, 127
12, 131792, Note_on_c, 11, 84, 0
12, 131800, Note_on_c, 11, 84, 127
12, 131832, Note_on_c, 11, 84, 0
12, 131840, Note_on_c, 11, 84, 127
12, 131872, Note_on_c, 11, 84, 0
12, 131880, Note_on_c, 11, 84, 127
12, 131912, Note_on_c, 11, 84, 0
12, 131920, Note_on_c, 11, 84, 127
12, 131952, Note_on_c, 11, 84, 0
12, 131960, Note_on_c, 11, 84, 127
12, 131992, Note_on_c, 11, 84, 0
12, 132000, Note_on_c, 11, 84, 127
12, 132032, Note_on_c, 11, 84, 0
12, 132040, Note_on_c, 11, 84, 127
12, 132072, Note_on_c, 11, 84, 0
12, 132080, Note_on_c, 11, 84, 127
12, 132112, Note_on_c, 11, 84, 0
12, 132120, Note_on_c, 11, 84, 127
12, 132152, Note_on_c, 11, 84, 0
12, 132160, Note_on_c, 11, 84, 127
12, 132192, Note_on_c, 11, 84, 0
12, 132200, Note_on_c, 11, 84, 127
12, 132232, Note_on_c, 11, 84, 0
12, 132240, Note_on_c, 11, 84, 127
12, 132272, Note_on_c, 11, 84, 0
12, 132280, Note_on_c, 11, 84, 127
12, 132312, Note_on_c, 11, 84, 0
12, 132320, Note_on_c, 11, 84, 127
12, 132352, Note_on_c, 11, 84, 0
12, 132360, Note_on_c, 11, 84, 127
12, 132392, Note_on_c, 11, 84, 0
12, 132400, Note_on_c, 11, 84, 127
12, 132432, Note_on_c, 11, 84, 0
12, 132440, Note_on_c, 11, 84, 127
12, 132472, Note_on_c, 11, 84, 0
12, 132480, Note_on_c, 11, 84, 127
12, 132512, Note_on_c, 11, 84, 0
12, 132520, Note_on_c, 11, 84, 127
12, 132552, Note_on_c, 11, 84, 0
12, 132560, Note_on_c, 11, 84, 127
12, 132592, Note_on_c, 11, 84, 0
12, 132600, Note_on_c, 11, 82, 127
12, 132632, Note_on_c, 11, 82, 0
12, 132640, Note_on_c, 11, 82, 127
12, 132672, Note_on_c, 11, 82, 0
12, 132680, Note_on_c, 11, 82, 127
12, 132712, Note_on_c, 11, 82, 0
12, 132720, Note_on_c, 11, 79, 127
12, 132752, Note_on_c, 11, 79, 0
12, 132760, Note_on_c, 11, 79, 127
12, 132792, Note_on_c, 11, 79, 0
12, 132800, Note_on_c, 11, 79, 127
12, 132832, Note_on_c, 11, 79, 0
12, 132840, Note_on_c, 11, 76, 127
12, 132872, Note_on_c, 11, 76, 0
12, 132880, Note_on_c, 11, 76, 127
12, 132912, Note_on_c, 11, 76, 0
12, 132920, Note_on_c, 11, 76, 127
12, 132952, Note_on_c, 11, 76, 0
12, 132960, Note_on_c, 11, 72, 127
12, 132992, Note_on_c, 11, 72, 0
12, 133000, Note_on_c, 11, 72, 127
12, 133032, Note_on_c, 11, 72, 0
12, 133040, Note_on_c, 11, 72, 127
12, 133072, Note_on_c, 11, 72, 0
12, 133080, Note_on_c, 11, 70, 127
12, 133112, Note_on_c, 11, 70, 0
12, 133120, Note_on_c, 11, 70, 127
12, 133152, Note_on_c, 11, 70, 0
12, 133160, Note_on_c, 11, 70, 127
12, 133192, Note_on_c, 11, 70, 0
12, 133200, Note_on_c, 11, 67, 127
12, 133232, Note_on_c, 11, 67, 0
12, 133240, Note_on_c, 11, 67, 127
12, 133272, Note_on_c, 11, 67, 0
12, 133280, Note_on_c, 11, 67, 127
12, 133312, Note_on_c, 11, 67, 0
12, 133320, Note_on_c, 11, 64, 127
12, 133352, Note_on_c, 11, 64, 0
12, 133360, Note_on_c, 11, 64, 127
12, 133392, Note_on_c, 11, 64, 0
12, 133400, Note_on_c, 11, 64, 127
12, 133432, Note_on_c, 11, 64, 0
12, 133440, Note_on_c, 11, 60, 127
12, 133472, Note_on_c, 11, 60, 0
12, 133480, Note_on_c, 11, 60, 127
12, 133512, Note_on_c, 11, 60, 0
12, 133520, Note_on_c, 11, 60, 127
12, 133552, Note_on_c, 11, 60, 0
12, 133560, Note_on_c, 11, 77, 127
12, 133592, Note_on_c, 11, 77, 0
12, 133600, Note_on_c, 11, 81, 127
12, 133632, Note_on_c, 11, 81, 0
12, 133640, Note_on_c, 11, 81, 127
12, 133672, Note_on_c, 11, 81, 0
12, 133680, Note_on_c, 11, 81, 127
12, 133712, Note_on_c, 11, 81, 0
12, 133720, Note_on_c, 11, 81, 127
12, 133752, Note_on_c, 11, 81, 0
12, 133760, Note_on_c, 11, 81, 127
12, 133792, Note_on_c, 11, 81, 0
12, 133800, Note_on_c, 11, 81, 127
12, 133832, Note_on_c, 11, 81, 0
12, 133840, Note_on_c, 11, 81, 127
12, 133872, Note_on_c, 11, 81, 0
12, 133880, Note_on_c, 11, 81, 127
12, 133912, Note_on_c, 11, 81, 0
12, 133920, Note_on_c, 11, 81, 127
12, 133952, Note_on_c, 11, 81, 0
12, 133960, Note_on_c, 11, 81, 127
12, 133992, Note_on_c, 11, 81, 0
12, 134000, Note_on_c, 11, 81, 127
12, 134032, Note_on_c, 11, 81, 0
12, 134040, Note_on_c, 11, 81, 127
12, 134072, Note_on_c, 11, 81, 0
12, 134080, Note_on_c, 11, 81, 127
12, 134112, Note_on_c, 11, 81, 0
12, 134120, Note_on_c, 11, 81, 127
12, 134152, Note_on_c, 11, 81, 0
12, 134160, Note_on_c, 11, 81, 127
12, 134192, Note_on_c, 11, 81, 0
12, 134200, Note_on_c, 11, 81, 127
12, 134232, Note_on_c, 11, 81, 0
12, 134240, Note_on_c, 11, 81, 127
12, 134272, Note_on_c, 11, 81, 0
12, 134280, Note_on_c, 11, 81, 127
12, 134312, Note_on_c, 11, 81, 0
12, 134320, Note_on_c, 11, 81, 127
12, 134352, Note_on_c, 11, 81, 0
12, 134360, Note_on_c, 11, 81, 127
12, 134392, Note_on_c, 11, 81, 0
12, 134400, Note_on_c, 11, 81, 127
12, 134432, Note_on_c, 11, 81, 0
12, 134440, Note_on_c, 11, 81, 127
12, 134472, Note_on_c, 11, 81, 0
12, 134480, Note_on_c, 11, 81, 127
12, 134512, Note_on_c, 11, 81, 0
12, 134520, Note_on_c, 11, 81, 127
12, 134552, Note_on_c, 11, 81, 0
12, 134560, Note_on_c, 11, 89, 127
12, 134592, Note_on_c, 11, 89, 0
12, 134600, Note_on_c, 11, 89, 127
12, 134632, Note_on_c, 11, 89, 0
12, 134640, Note_on_c, 11, 81, 127
12, 134640, Note_on_c, 11, 89, 127
12, 134672, Note_on_c, 11, 89, 0
12, 134672, Note_on_c, 11, 81, 0
12, 134680, Note_on_c, 11, 81, 127
12, 134680, Note_on_c, 11, 89, 127
12, 134712, Note_on_c, 11, 89, 0
12, 134712, Note_on_c, 11, 81, 0
12, 134720, Note_on_c, 11, 81, 127
12, 134720, Note_on_c, 11, 89, 127
12, 134752, Note_on_c, 11, 89, 0
12, 134752, Note_on_c, 11, 81, 0
12, 134760, Note_on_c, 11, 89, 127
12, 134760, Note_on_c, 11, 81, 127
12, 134792, Note_on_c, 11, 81, 0
12, 134792, Note_on_c, 11, 89, 0
12, 134800, Note_on_c, 11, 81, 127
12, 134800, Note_on_c, 11, 89, 127
12, 134832, Note_on_c, 11, 89, 0
12, 134832, Note_on_c, 11, 81, 0
12, 134840, Note_on_c, 11, 81, 127
12, 134840, Note_on_c, 11, 89, 127
12, 134872, Note_on_c, 11, 89, 0
12, 134872, Note_on_c, 11, 81, 0
12, 134880, Note_on_c, 11, 89, 127
12, 134880, Note_on_c, 11, 81, 127
12, 134912, Note_on_c, 11, 81, 0
12, 134912, Note_on_c, 11, 89, 0
12, 134920, Note_on_c, 11, 89, 127
12, 134920, Note_on_c, 11, 81, 127
12, 134952, Note_on_c, 11, 81, 0
12, 134952, Note_on_c, 11, 89, 0
12, 134960, Note_on_c, 11, 89, 127
12, 134960, Note_on_c, 11, 81, 127
12, 134992, Note_on_c, 11, 81, 0
12, 134992, Note_on_c, 11, 89, 0
12, 135000, Note_on_c, 11, 81, 127
12, 135000, Note_on_c, 11, 89, 127
12, 135032, Note_on_c, 11, 89, 0
12, 135032, Note_on_c, 11, 81, 0
12, 135040, Note_on_c, 11, 81, 127
12, 135040, Note_on_c, 11, 89, 127
12, 135072, Note_on_c, 11, 89, 0
12, 135072, Note_on_c, 11, 81, 0
12, 135080, Note_on_c, 11, 81, 127
12, 135080, Note_on_c, 11, 89, 127
12, 135112, Note_on_c, 11, 89, 0
12, 135112, Note_on_c, 11, 81, 0
12, 135120, Note_on_c, 11, 81, 127
12, 135120, Note_on_c, 11, 89, 127
12, 135152, Note_on_c, 11, 89, 0
12, 135152, Note_on_c, 11, 81, 0
12, 135160, Note_on_c, 11, 81, 127
12, 135160, Note_on_c, 11, 89, 127
12, 135192, Note_on_c, 11, 89, 0
12, 135192, Note_on_c, 11, 81, 0
12, 135200, Note_on_c, 11, 81, 127
12, 135200, Note_on_c, 11, 89, 127
12, 135232, Note_on_c, 11, 89, 0
12, 135232, Note_on_c, 11, 81, 0
12, 135240, Note_on_c, 11, 81, 127
12, 135240, Note_on_c, 11, 89, 127
12, 135272, Note_on_c, 11, 89, 0
12, 135272, Note_on_c, 11, 81, 0
12, 135280, Note_on_c, 11, 81, 127
12, 135280, Note_on_c, 11, 89, 127
12, 135312, Note_on_c, 11, 89, 0
12, 135312, Note_on_c, 11, 81, 0
12, 135320, Note_on_c, 11, 81, 127
12, 135320, Note_on_c, 11, 89, 127
12, 135352, Note_on_c, 11, 89, 0
12, 135352, Note_on_c, 11, 81, 0
12, 135360, Note_on_c, 11, 81, 127
12, 135360, Note_on_c, 11, 89, 127
12, 135392, Note_on_c, 11, 89, 0
12, 135392, Note_on_c, 11, 81, 0
12, 135400, Note_on_c, 11, 81, 127
12, 135400, Note_on_c, 11, 89, 127
12, 135432, Note_on_c, 11, 89, 0
12, 135432, Note_on_c, 11, 81, 0
12, 135440, Note_on_c, 11, 81, 127
12, 135440, Note_on_c, 11, 89, 127
12, 135472, Note_on_c, 11, 89, 0
12, 135472, Note_on_c, 11, 81, 0
12, 135480, Note_on_c, 11, 81, 127
12, 135480, Note_on_c, 11, 89, 127
12, 135512, Note_on_c, 11, 89, 0
12, 135512, Note_on_c, 11, 81, 0
12, 135520, Note_on_c, 11, 81, 127
12, 135520, Note_on_c, 11, 89, 127
12, 135552, Note_on_c, 11, 89, 0
12, 135552, Note_on_c, 11, 81, 0
12, 135560, Note_on_c, 11, 81, 127
12, 135560, Note_on_c, 11, 89, 127
12, 135592, Note_on_c, 11, 89, 0
12, 135592, Note_on_c, 11, 81, 0
12, 135600, Note_on_c, 11, 81, 127
12, 135600, Note_on_c, 11, 89, 127
12, 135632, Note_on_c, 11, 89, 0
12, 135632, Note_on_c, 11, 81, 0
12, 135640, Note_on_c, 11, 81, 127
12, 135640, Note_on_c, 11, 89, 127
12, 135672, Note_on_c, 11, 89, 0
12, 135672, Note_on_c, 11, 81, 0
12, 135680, Note_on_c, 11, 81, 127
12, 135680, Note_on_c, 11, 89, 127
12, 135712, Note_on_c, 11, 89, 0
12, 135712, Note_on_c, 11, 81, 0
12, 135720, Note_on_c, 11, 81, 127
12, 135720, Note_on_c, 11, 89, 127
12, 135752, Note_on_c, 11, 89, 0
12, 135752, Note_on_c, 11, 81, 0
12, 135760, Note_on_c, 11, 81, 127
12, 135760, Note_on_c, 11, 89, 127
12, 135792, Note_on_c, 11, 89, 0
12, 135792, Note_on_c, 11, 81, 0
12, 135800, Note_on_c, 11, 81, 127
12, 135800, Note_on_c, 11, 89, 127
12, 135832, Note_on_c, 11, 89, 0
12, 135832, Note_on_c, 11, 81, 0
12, 135840, Note_on_c, 11, 81, 127
12, 135840, Note_on_c, 11, 89, 127
12, 135872, Note_on_c, 11, 89, 0
12, 135872, Note_on_c, 11, 81, 0
12, 135880, Note_on_c, 11, 81, 127
12, 135880, Note_on_c, 11, 89, 127
12, 135912, Note_on_c, 11, 89, 0
12, 135912, Note_on_c, 11, 81, 0
12, 135920, Note_on_c, 11, 81, 127
12, 135920, Note_on_c, 11, 89, 127
12, 135952, Note_on_c, 11, 89, 0
12, 135952, Note_on_c, 11, 81, 0
12, 135960, Note_on_c, 11, 79, 127
12, 135960, Note_on_c, 11, 88, 127
12, 135992, Note_on_c, 11, 88, 0
12, 135992, Note_on_c, 11, 79, 0
12, 136000, Note_on_c, 11, 79, 127
12, 136000, Note_on_c, 11, 88, 127
12, 136032, Note_on_c, 11, 88, 0
12, 136032, Note_on_c, 11, 79, 0
12, 136040, Note_on_c, 11, 79, 127
12, 136040, Note_on_c, 11, 88, 127
12, 136072, Note_on_c, 11, 88, 0
12, 136072, Note_on_c, 11, 79, 0
12, 136080, Note_on_c, 11, 88, 127
12, 136080, Note_on_c, 11, 79, 127
12, 136112, Note_on_c, 11, 79, 0
12, 136112, Note_on_c, 11, 88, 0
12, 136120, Note_on_c, 11, 88, 127
12, 136120, Note_on_c, 11, 79, 127
12, 136152, Note_on_c, 11, 79, 0
12, 136152, Note_on_c, 11, 88, 0
12, 136160, Note_on_c, 11, 88, 127
12, 136160, Note_on_c, 11, 79, 127
12, 136192, Note_on_c, 11, 79, 0
12, 136192, Note_on_c, 11, 88, 0
12, 136200, Note_on_c, 11, 88, 127
12, 136200, Note_on_c, 11, 79, 127
12, 136232, Note_on_c, 11, 79, 0
12, 136232, Note_on_c, 11, 88, 0
12, 136240, Note_on_c, 11, 88, 127
12, 136240, Note_on_c, 11, 79, 127
12, 136272, Note_on_c, 11, 79, 0
12, 136272, Note_on_c, 11, 88, 0
12, 136280, Note_on_c, 11, 88, 127
12, 136280, Note_on_c, 11, 79, 127
12, 136312, Note_on_c, 11, 79, 0
12, 136312, Note_on_c, 11, 88, 0
12, 136320, Note_on_c, 11, 88, 127
12, 136320, Note_on_c, 11, 79, 127
12, 136352, Note_on_c, 11, 79, 0
12, 136352, Note_on_c, 11, 88, 0
12, 136360, Note_on_c, 11, 88, 127
12, 136360, Note_on_c, 11, 79, 127
12, 136392, Note_on_c, 11, 79, 0
12, 136392, Note_on_c, 11, 88, 0
12, 136400, Note_on_c, 11, 88, 127
12, 136400, Note_on_c, 11, 79, 127
12, 136432, Note_on_c, 11, 79, 0
12, 136432, Note_on_c, 11, 88, 0
12, 136440, Note_on_c, 11, 81, 127
12, 136440, Note_on_c, 11, 89, 127
12, 136472, Note_on_c, 11, 89, 0
12, 136472, Note_on_c, 11, 81, 0
12, 136480, Note_on_c, 11, 81, 127
12, 136480, Note_on_c, 11, 89, 127
12, 136512, Note_on_c, 11, 89, 0
12, 136512, Note_on_c, 11, 81, 0
12, 136520, Note_on_c, 11, 81, 127
12, 136520, Note_on_c, 11, 89, 127
12, 136552, Note_on_c, 11, 89, 0
12, 136552, Note_on_c, 11, 81, 0
12, 136560, Note_on_c, 11, 89, 127
12, 136560, Note_on_c, 11, 81, 127
12, 136592, Note_on_c, 11, 81, 0
12, 136592, Note_on_c, 11, 89, 0
12, 136600, Note_on_c, 11, 89, 127
12, 136600, Note_on_c, 11, 81, 127
12, 136632, Note_on_c, 11, 81, 0
12, 136632, Note_on_c, 11, 89, 0
12, 136640, Note_on_c, 11, 89, 127
12, 136640, Note_on_c, 11, 81, 127
12, 136672, Note_on_c, 11, 81, 0
12, 136672, Note_on_c, 11, 89, 0
12, 136680, Note_on_c, 11, 89, 127
12, 136680, Note_on_c, 11, 81, 127
12, 136712, Note_on_c, 11, 81, 0
12, 136712, Note_on_c, 11, 89, 0
12, 136720, Note_on_c, 11, 89, 127
12, 136720, Note_on_c, 11, 81, 127
12, 136752, Note_on_c, 11, 81, 0
12, 136752, Note_on_c, 11, 89, 0
12, 136760, Note_on_c, 11, 89, 127
12, 136760, Note_on_c, 11, 81, 127
12, 136792, Note_on_c, 11, 81, 0
12, 136792, Note_on_c, 11, 89, 0
12, 136800, Note_on_c, 11, 89, 127
12, 136800, Note_on_c, 11, 81, 127
12, 136832, Note_on_c, 11, 81, 0
12, 136832, Note_on_c, 11, 89, 0
12, 136840, Note_on_c, 11, 89, 127
12, 136840, Note_on_c, 11, 81, 127
12, 136872, Note_on_c, 11, 81, 0
12, 136872, Note_on_c, 11, 89, 0
12, 136880, Note_on_c, 11, 89, 127
12, 136880, Note_on_c, 11, 81, 127
12, 136912, Note_on_c, 11, 81, 0
12, 136912, Note_on_c, 11, 89, 0
12, 136920, Note_on_c, 11, 88, 127
12, 136920, Note_on_c, 11, 79, 127
12, 136952, Note_on_c, 11, 79, 0
12, 136952, Note_on_c, 11, 88, 0
12, 136960, Note_on_c, 11, 88, 127
12, 136960, Note_on_c, 11, 79, 127
12, 136992, Note_on_c, 11, 79, 0
12, 136992, Note_on_c, 11, 88, 0
12, 137000, Note_on_c, 11, 88, 127
12, 137000, Note_on_c, 11, 79, 127
12, 137032, Note_on_c, 11, 79, 0
12, 137032, Note_on_c, 11, 88, 0
12, 137040, Note_on_c, 11, 79, 127
12, 137040, Note_on_c, 11, 88, 127
12, 137072, Note_on_c, 11, 88, 0
12, 137072, Note_on_c, 11, 79, 0
12, 137080, Note_on_c, 11, 79, 127
12, 137080, Note_on_c, 11, 88, 127
12, 137112, Note_on_c, 11, 88, 0
12, 137112, Note_on_c, 11, 79, 0
12, 137120, Note_on_c, 11, 79, 127
12, 137120, Note_on_c, 11, 88, 127
12, 137152, Note_on_c, 11, 88, 0
12, 137152, Note_on_c, 11, 79, 0
12, 137160, Note_on_c, 11, 79, 127
12, 137160, Note_on_c, 11, 88, 127
12, 137192, Note_on_c, 11, 88, 0
12, 137192, Note_on_c, 11, 79, 0
12, 137200, Note_on_c, 11, 79, 127
12, 137200, Note_on_c, 11, 88, 127
12, 137232, Note_on_c, 11, 88, 0
12, 137232, Note_on_c, 11, 79, 0
12, 137240, Note_on_c, 11, 79, 127
12, 137240, Note_on_c, 11, 88, 127
12, 137272, Note_on_c, 11, 88, 0
12, 137272, Note_on_c, 11, 79, 0
12, 137280, Note_on_c, 11, 79, 127
12, 137280, Note_on_c, 11, 88, 127
12, 137312, Note_on_c, 11, 88, 0
12, 137312, Note_on_c, 11, 79, 0
12, 137320, Note_on_c, 11, 79, 127
12, 137320, Note_on_c, 11, 88, 127
12, 137352, Note_on_c, 11, 88, 0
12, 137352, Note_on_c, 11, 79, 0
12, 137360, Note_on_c, 11, 79, 127
12, 137360, Note_on_c, 11, 88, 127
12, 137392, Note_on_c, 11, 88, 0
12, 137392, Note_on_c, 11, 79, 0
12, 137400, Note_on_c, 11, 89, 127
12, 137400, Note_on_c, 11, 81, 127
12, 137432, Note_on_c, 11, 81, 0
12, 137432, Note_on_c, 11, 89, 0
12, 137440, Note_on_c, 11, 89, 127
12, 137440, Note_on_c, 11, 81, 127
12, 137472, Note_on_c, 11, 81, 0
12, 137472, Note_on_c, 11, 89, 0
12, 137480, Note_on_c, 11, 89, 127
12, 137480, Note_on_c, 11, 81, 127
12, 137512, Note_on_c, 11, 81, 0
12, 137512, Note_on_c, 11, 89, 0
12, 137520, Note_on_c, 11, 81, 127
12, 137520, Note_on_c, 11, 89, 127
12, 137552, Note_on_c, 11, 89, 0
12, 137552, Note_on_c, 11, 81, 0
12, 137560, Note_on_c, 11, 81, 127
12, 137560, Note_on_c, 11, 89, 127
12, 137592, Note_on_c, 11, 89, 0
12, 137592, Note_on_c, 11, 81, 0
12, 137600, Note_on_c, 11, 81, 127
12, 137600, Note_on_c, 11, 89, 127
12, 137632, Note_on_c, 11, 89, 0
12, 137632, Note_on_c, 11, 81, 0
12, 137640, Note_on_c, 11, 81, 127
12, 137640, Note_on_c, 11, 89, 127
12, 137672, Note_on_c, 11, 89, 0
12, 137672, Note_on_c, 11, 81, 0
12, 137680, Note_on_c, 11, 81, 127
12, 137680, Note_on_c, 11, 89, 127
12, 137712, Note_on_c, 11, 89, 0
12, 137712, Note_on_c, 11, 81, 0
12, 137720, Note_on_c, 11, 81, 127
12, 137720, Note_on_c, 11, 89, 127
12, 137752, Note_on_c, 11, 89, 0
12, 137752, Note_on_c, 11, 81, 0
12, 137760, Note_on_c, 11, 81, 127
12, 137760, Note_on_c, 11, 89, 127
12, 137792, Note_on_c, 11, 89, 0
12, 137792, Note_on_c, 11, 81, 0
12, 137800, Note_on_c, 11, 81, 127
12, 137800, Note_on_c, 11, 89, 127
12, 137832, Note_on_c, 11, 89, 0
12, 137832, Note_on_c, 11, 81, 0
12, 137840, Note_on_c, 11, 81, 127
12, 137840, Note_on_c, 11, 89, 127
12, 137872, Note_on_c, 11, 89, 0
12, 137872, Note_on_c, 11, 81, 0
12, 137880, Note_on_c, 11, 79, 127
12, 137880, Note_on_c, 11, 88, 127
12, 137912, Note_on_c, 11, 88, 0
12, 137912, Note_on_c, 11, 79, 0
12, 137920, Note_on_c, 11, 79, 127
12, 137920, Note_on_c, 11, 88, 127
12, 137952, Note_on_c, 11, 88, 0
12, 137952, Note_on_c, 11, 79, 0
12, 137960, Note_on_c, 11, 79, 127
12, 137960, Note_on_c, 11, 88, 127
12, 137992, Note_on_c, 11, 88, 0
12, 137992, Note_on_c, 11, 79, 0
12, 138000, Note_on_c, 11, 88, 127
12, 138000, Note_on_c, 11, 79, 127
12, 138032, Note_on_c, 11, 79, 0
12, 138032, Note_on_c, 11, 88, 0
12, 138040, Note_on_c, 11, 88, 127
12, 138040, Note_on_c, 11, 79, 127
12, 138072, Note_on_c, 11, 79, 0
12, 138072, Note_on_c, 11, 88, 0
12, 138080, Note_on_c, 11, 88, 127
12, 138080, Note_on_c, 11, 79, 127
12, 138112, Note_on_c, 11, 79, 0
12, 138112, Note_on_c, 11, 88, 0
12, 138120, Note_on_c, 11, 88, 127
12, 138120, Note_on_c, 11, 79, 127
12, 138152, Note_on_c, 11, 79, 0
12, 138152, Note_on_c, 11, 88, 0
12, 138160, Note_on_c, 11, 88, 127
12, 138160, Note_on_c, 11, 79, 127
12, 138192, Note_on_c, 11, 79, 0
12, 138192, Note_on_c, 11, 88, 0
12, 138200, Note_on_c, 11, 88, 127
12, 138200, Note_on_c, 11, 79, 127
12, 138232, Note_on_c, 11, 79, 0
12, 138232, Note_on_c, 11, 88, 0
12, 138240, Note_on_c, 11, 88, 127
12, 138240, Note_on_c, 11, 79, 127
12, 138272, Note_on_c, 11, 79, 0
12, 138272, Note_on_c, 11, 88, 0
12, 138280, Note_on_c, 11, 88, 127
12, 138280, Note_on_c, 11, 79, 127
12, 138312, Note_on_c, 11, 79, 0
12, 138312, Note_on_c, 11, 88, 0
12, 138320, Note_on_c, 11, 88, 127
12, 138320, Note_on_c, 11, 79, 127
12, 138352, Note_on_c, 11, 79, 0
12, 138352, Note_on_c, 11, 88, 0
12, 138360, Note_on_c, 11, 79, 127
12, 138360, Note_on_c, 11, 88, 127
12, 138392, Note_on_c, 11, 88, 0
12, 138392, Note_on_c, 11, 79, 0
12, 138400, Note_on_c, 11, 79, 127
12, 138400, Note_on_c, 11, 88, 127
12, 138432, Note_on_c, 11, 88, 0
12, 138432, Note_on_c, 11, 79, 0
12, 138440, Note_on_c, 11, 79, 127
12, 138440, Note_on_c, 11, 88, 127
12, 138472, Note_on_c, 11, 88, 0
12, 138472, Note_on_c, 11, 79, 0
12, 138480, Note_on_c, 11, 88, 127
12, 138480, Note_on_c, 11, 79, 127
12, 138512, Note_on_c, 11, 79, 0
12, 138512, Note_on_c, 11, 88, 0
12, 138520, Note_on_c, 11, 88, 127
12, 138520, Note_on_c, 11, 79, 127
12, 138552, Note_on_c, 11, 79, 0
12, 138552, Note_on_c, 11, 88, 0
12, 138560, Note_on_c, 11, 88, 127
12, 138560, Note_on_c, 11, 79, 127
12, 138592, Note_on_c, 11, 79, 0
12, 138592, Note_on_c, 11, 88, 0
12, 138600, Note_on_c, 11, 88, 127
12, 138600, Note_on_c, 11, 79, 127
12, 138632, Note_on_c, 11, 79, 0
12, 138632, Note_on_c, 11, 88, 0
12, 138640, Note_on_c, 11, 88, 127
12, 138640, Note_on_c, 11, 79, 127
12, 138672, Note_on_c, 11, 79, 0
12, 138672, Note_on_c, 11, 88, 0
12, 138680, Note_on_c, 11, 88, 127
12, 138680, Note_on_c, 11, 79, 127
12, 138712, Note_on_c, 11, 79, 0
12, 138712, Note_on_c, 11, 88, 0
12, 138720, Note_on_c, 11, 88, 127
12, 138720, Note_on_c, 11, 79, 127
12, 138752, Note_on_c, 11, 79, 0
12, 138752, Note_on_c, 11, 88, 0
12, 138760, Note_on_c, 11, 88, 127
12, 138760, Note_on_c, 11, 79, 127
12, 138792, Note_on_c, 11, 79, 0
12, 138792, Note_on_c, 11, 88, 0
12, 138800, Note_on_c, 11, 88, 127
12, 138800, Note_on_c, 11, 79, 127
12, 138832, Note_on_c, 11, 79, 0
12, 138832, Note_on_c, 11, 88, 0
12, 138840, Note_on_c, 11, 88, 127
12, 138840, Note_on_c, 11, 79, 127
12, 138872, Note_on_c, 11, 79, 0
12, 138872, Note_on_c, 11, 88, 0
12, 138880, Note_on_c, 11, 88, 127
12, 138880, Note_on_c, 11, 79, 127
12, 138912, Note_on_c, 11, 79, 0
12, 138912, Note_on_c, 11, 88, 0
12, 138920, Note_on_c, 11, 88, 127
12, 138920, Note_on_c, 11, 79, 127
12, 138952, Note_on_c, 11, 79, 0
12, 138952, Note_on_c, 11, 88, 0
12, 138960, Note_on_c, 11, 79, 127
12, 138960, Note_on_c, 11, 88, 127
12, 138992, Note_on_c, 11, 88, 0
12, 138992, Note_on_c, 11, 79, 0
12, 139000, Note_on_c, 11, 79, 127
12, 139000, Note_on_c, 11, 88, 127
12, 139032, Note_on_c, 11, 88, 0
12, 139032, Note_on_c, 11, 79, 0
12, 139040, Note_on_c, 11, 79, 127
12, 139040, Note_on_c, 11, 88, 127
12, 139072, Note_on_c, 11, 88, 0
12, 139072, Note_on_c, 11, 79, 0
12, 139080, Note_on_c, 11, 79, 127
12, 139080, Note_on_c, 11, 88, 127
12, 139112, Note_on_c, 11, 88, 0
12, 139112, Note_on_c, 11, 79, 0
12, 139120, Note_on_c, 11, 79, 127
12, 139120, Note_on_c, 11, 88, 127
12, 139152, Note_on_c, 11, 88, 0
12, 139152, Note_on_c, 11, 79, 0
12, 139160, Note_on_c, 11, 79, 127
12, 139160, Note_on_c, 11, 88, 127
12, 139192, Note_on_c, 11, 88, 0
12, 139192, Note_on_c, 11, 79, 0
12, 139200, Note_on_c, 11, 79, 127
12, 139200, Note_on_c, 11, 88, 127
12, 139232, Note_on_c, 11, 88, 0
12, 139232, Note_on_c, 11, 79, 0
12, 139240, Note_on_c, 11, 79, 127
12, 139240, Note_on_c, 11, 88, 127
12, 139272, Note_on_c, 11, 88, 0
12, 139272, Note_on_c, 11, 79, 0
12, 139280, Note_on_c, 11, 79, 127
12, 139280, Note_on_c, 11, 88, 127
12, 139312, Note_on_c, 11, 88, 0
12, 139312, Note_on_c, 11, 79, 0
12, 139320, Note_on_c, 11, 89, 127
12, 139320, Note_on_c, 11, 81, 127
12, 139368, Note_on_c, 11, 81, 0
12, 139368, Note_on_c, 11, 89, 0
12, 139380, Note_on_c, 11, 77, 127
12, 139404, Note_on_c, 11, 77, 0
12, 139410, Note_on_c, 11, 77, 127
12, 139434, Note_on_c, 11, 77, 0
12, 139440, Note_on_c, 11, 79, 127
12, 139464, Note_on_c, 11, 79, 0
12, 139470, Note_on_c, 11, 79, 127
12, 139494, Note_on_c, 11, 79, 0
12, 139500, Note_on_c, 11, 81, 127
12, 139524, Note_on_c, 11, 81, 0
12, 139530, Note_on_c, 11, 81, 127
12, 139554, Note_on_c, 11, 81, 0
12, 139560, Note_on_c, 11, 82, 127
12, 139584, Note_on_c, 11, 82, 0
12, 139590, Note_on_c, 11, 82, 127
12, 139614, Note_on_c, 11, 82, 0
12, 139620, Note_on_c, 11, 81, 127
12, 139644, Note_on_c, 11, 81, 0
12, 139650, Note_on_c, 11, 81, 127
12, 139674, Note_on_c, 11, 81, 0
12, 139680, Note_on_c, 11, 82, 127
12, 139704, Note_on_c, 11, 82, 0
12, 139710, Note_on_c, 11, 82, 127
12, 139734, Note_on_c, 11, 82, 0
12, 139740, Note_on_c, 11, 84, 127
12, 139764, Note_on_c, 11, 84, 0
12, 139770, Note_on_c, 11, 84, 127
12, 139794, Note_on_c, 11, 84, 0
12, 139800, Note_on_c, 11, 86, 127
12, 139824, Note_on_c, 11, 86, 0
12, 139830, Note_on_c, 11, 86, 127
12, 139854, Note_on_c, 11, 86, 0
12, 139860, Note_on_c, 11, 84, 127
12, 139884, Note_on_c, 11, 84, 0
12, 139890, Note_on_c, 11, 84, 127
12, 139914, Note_on_c, 11, 84, 0
12, 139920, Note_on_c, 11, 86, 127
12, 139944, Note_on_c, 11, 86, 0
12, 139950, Note_on_c, 11, 86, 127
12, 139974, Note_on_c, 11, 86, 0
12, 139980, Note_on_c, 11, 88, 127
12, 140004, Note_on_c, 11, 88, 0
12, 140010, Note_on_c, 11, 88, 127
12, 140034, Note_on_c, 11, 88, 0
12, 140040, Note_on_c, 11, 89, 127
12, 140064, Note_on_c, 11, 89, 0
12, 140070, Note_on_c, 11, 89, 127
12, 140094, Note_on_c, 11, 89, 0
12, 140100, Note_on_c, 11, 88, 127
12, 140124, Note_on_c, 11, 88, 0
12, 140130, Note_on_c, 11, 88, 127
12, 140154, Note_on_c, 11, 88, 0
12, 140160, Note_on_c, 11, 89, 127
12, 140184, Note_on_c, 11, 89, 0
12, 140190, Note_on_c, 11, 89, 127
12, 140214, Note_on_c, 11, 89, 0
12, 140220, Note_on_c, 11, 91, 127
12, 140244, Note_on_c, 11, 91, 0
12, 140250, Note_on_c, 11, 91, 127
12, 140274, Note_on_c, 11, 91, 0
12, 140280, Note_on_c, 11, 93, 127
12, 140376, Note_on_c, 11, 93, 0
12, 140760, Note_on_c, 11, 81, 127
12, 140760, Note_on_c, 11, 72, 127
12, 140760, Note_on_c, 11, 65, 127
12, 140856, Note_on_c, 11, 65, 0
12, 140856, Note_on_c, 11, 72, 0
12, 140856, Note_on_c, 11, 81, 0
12, 141240, Note_on_c, 11, 81, 127
12, 141240, Note_on_c, 11, 72, 127
12, 141240, Note_on_c, 11, 65, 127
12, 141336, Note_on_c, 11, 65, 0
12, 141336, Note_on_c, 11, 72, 0
12, 141336, Note_on_c, 11, 81, 0
12, 141720, Note_on_c, 11, 77, 127
12, 141720, Note_on_c, 11, 69, 127
12, 141720, Note_on_c, 11, 65, 127
12, 141816, Note_on_c, 11, 65, 0
12, 141816, Note_on_c, 11, 69, 0
12, 141816, Note_on_c, 11, 77, 0
12, 141960, Note_on_c, 11, 65, 127
12, 141960, Note_on_c, 11, 69, 127
12, 141960, Note_on_c, 11, 77, 127
12, 142056, Note_on_c, 11, 77, 0
12, 142056, Note_on_c, 11, 69, 0
12, 142056, Note_on_c, 11, 65, 0
12, 142200, Note_on_c, 11, 77, 127
12, 142200, Note_on_c, 11, 69, 127
12, 142200, Note_on_c, 11, 65, 127
12, 142296, Note_on_c, 11, 65, 0
12, 142296, Note_on_c, 11, 69, 0
12, 142296, Note_on_c, 11, 77, 0
12, 142296, End_track
13, 0, Start_track
13, 0, Title_t, "Viola"
13, 0, Program_c, 12, 48
13, 0, Control_c, 12, 7, 127
13, 0, Control_c, 12, 10, 86
13, 1440, Note_on_c, 12, 53, 127
13, 2016, Note_on_c, 12, 53, 0
13, 2160, Note_on_c, 12, 48, 100
13, 2160, Note_on_c, 12, 53, 100
13, 2352, Note_on_c, 12, 53, 0
13, 2352, Note_on_c, 12, 48, 0
13, 2400, Note_on_c, 12, 48, 100
13, 2400, Note_on_c, 12, 53, 100
13, 2592, Note_on_c, 12, 53, 0
13, 2592, Note_on_c, 12, 48, 0
13, 2820, Note_on_c, 12, 48, 100
13, 2820, Note_on_c, 12, 53, 100
13, 2868, Note_on_c, 12, 53, 0
13, 2868, Note_on_c, 12, 48, 0
13, 2880, Note_on_c, 12, 51, 100
13, 3072, Note_on_c, 12, 51, 0
13, 3120, Note_on_c, 12, 51, 100
13, 3312, Note_on_c, 12, 51, 0
13, 3540, Note_on_c, 12, 48, 100
13, 3588, Note_on_c, 12, 48, 0
13, 3600, Note_on_c, 12, 55, 100
13, 3792, Note_on_c, 12, 55, 0
13, 3840, Note_on_c, 12, 55, 100
13, 4032, Note_on_c, 12, 55, 0
13, 4260, Note_on_c, 12, 50, 50
13, 4308, Note_on_c, 12, 50, 0
13, 4320, Note_on_c, 12, 48, 50
13, 4416, Note_on_c, 12, 48, 0
13, 6840, Note_on_c, 12, 61, 50
13, 7080, Note_on_c, 12, 61, 0
13, 7080, Note_on_c, 12, 60, 63
13, 7200, Note_on_c, 12, 60, 0
13, 7200, Note_on_c, 12, 53, 70
13, 7776, Note_on_c, 12, 53, 0
13, 7920, Note_on_c, 12, 48, 127
13, 8112, Note_on_c, 12, 48, 0
13, 8160, Note_on_c, 12, 48, 127
13, 8352, Note_on_c, 12, 48, 0
13, 8580, Note_on_c, 12, 48, 127
13, 8628, Note_on_c, 12, 48, 0
13, 8640, Note_on_c, 12, 51, 127
13, 8832, Note_on_c, 12, 51, 0
13, 8880, Note_on_c, 12, 51, 127
13, 9072, Note_on_c, 12, 51, 0
13, 11280, Note_on_c, 12, 51, 50
13, 11280, Note_on_c, 12, 54, 50
13, 11472, Note_on_c, 12, 54, 0
13, 11472, Note_on_c, 12, 51, 0
13, 11520, Note_on_c, 12, 53, 50
13, 11544, Note_on_c, 12, 53, 0
13, 11550, Note_on_c, 12, 53, 50
13, 11550, Note_on_c, 12, 56, 50
13, 11574, Note_on_c, 12, 56, 0
13, 11574, Note_on_c, 12, 53, 0
13, 11580, Note_on_c, 12, 53, 50
13, 11580, Note_on_c, 12, 56, 50
13, 11604, Note_on_c, 12, 56, 0
13, 11604, Note_on_c, 12, 53, 0
13, 11610, Note_on_c, 12, 53, 50
13, 11610, Note_on_c, 12, 56, 50
13, 11634, Note_on_c, 12, 56, 0
13, 11634, Note_on_c, 12, 53, 0
13, 11640, Note_on_c, 12, 53, 50
13, 11640, Note_on_c, 12, 56, 50
13, 11664, Note_on_c, 12, 56, 0
13, 11664, Note_on_c, 12, 53, 0
13, 11670, Note_on_c, 12, 53, 50
13, 11670, Note_on_c, 12, 56, 50
13, 11694, Note_on_c, 12, 56, 0
13, 11694, Note_on_c, 12, 53, 0
13, 11700, Note_on_c, 12, 53, 50
13, 11700, Note_on_c, 12, 56, 50
13, 11724, Note_on_c, 12, 56, 0
13, 11724, Note_on_c, 12, 53, 0
13, 11730, Note_on_c, 12, 53, 50
13, 11730, Note_on_c, 12, 56, 50
13, 11754, Note_on_c, 12, 56, 0
13, 11754, Note_on_c, 12, 53, 0
13, 11760, Note_on_c, 12, 53, 50
13, 11760, Note_on_c, 12, 56, 50
13, 11784, Note_on_c, 12, 56, 0
13, 11784, Note_on_c, 12, 53, 0
13, 11790, Note_on_c, 12, 53, 50
13, 11790, Note_on_c, 12, 56, 50
13, 11814, Note_on_c, 12, 56, 0
13, 11814, Note_on_c, 12, 53, 0
13, 11820, Note_on_c, 12, 56, 50
13, 11820, Note_on_c, 12, 53, 50
13, 11844, Note_on_c, 12, 53, 0
13, 11844, Note_on_c, 12, 56, 0
13, 11850, Note_on_c, 12, 53, 50
13, 11850, Note_on_c, 12, 56, 50
13, 11874, Note_on_c, 12, 56, 0
13, 11874, Note_on_c, 12, 53, 0
13, 11880, Note_on_c, 12, 56, 50
13, 11880, Note_on_c, 12, 53, 50
13, 11904, Note_on_c, 12, 53, 0
13, 11904, Note_on_c, 12, 56, 0
13, 11910, Note_on_c, 12, 53, 50
13, 11910, Note_on_c, 12, 56, 50
13, 11934, Note_on_c, 12, 56, 0
13, 11934, Note_on_c, 12, 53, 0
13, 11940, Note_on_c, 12, 56, 50
13, 11940, Note_on_c, 12, 53, 50
13, 11964, Note_on_c, 12, 53, 0
13, 11964, Note_on_c, 12, 56, 0
13, 11970, Note_on_c, 12, 53, 50
13, 11970, Note_on_c, 12, 56, 50
13, 11994, Note_on_c, 12, 56, 0
13, 11994, Note_on_c, 12, 53, 0
13, 12000, Note_on_c, 12, 53, 50
13, 12000, Note_on_c, 12, 56, 50
13, 12024, Note_on_c, 12, 56, 0
13, 12024, Note_on_c, 12, 53, 0
13, 12030, Note_on_c, 12, 53, 50
13, 12030, Note_on_c, 12, 56, 50
13, 12054, Note_on_c, 12, 56, 0
13, 12054, Note_on_c, 12, 53, 0
13, 12060, Note_on_c, 12, 53, 50
13, 12060, Note_on_c, 12, 56, 50
13, 12084, Note_on_c, 12, 56, 0
13, 12084, Note_on_c, 12, 53, 0
13, 12090, Note_on_c, 12, 53, 50
13, 12090, Note_on_c, 12, 56, 50
13, 12114, Note_on_c, 12, 56, 0
13, 12114, Note_on_c, 12, 53, 0
13, 12120, Note_on_c, 12, 53, 50
13, 12120, Note_on_c, 12, 56, 50
13, 12144, Note_on_c, 12, 56, 0
13, 12144, Note_on_c, 12, 53, 0
13, 12150, Note_on_c, 12, 53, 50
13, 12150, Note_on_c, 12, 56, 50
13, 12174, Note_on_c, 12, 56, 0
13, 12174, Note_on_c, 12, 53, 0
13, 12180, Note_on_c, 12, 53, 50
13, 12180, Note_on_c, 12, 56, 50
13, 12204, Note_on_c, 12, 56, 0
13, 12204, Note_on_c, 12, 53, 0
13, 12210, Note_on_c, 12, 53, 50
13, 12210, Note_on_c, 12, 56, 50
13, 12234, Note_on_c, 12, 56, 0
13, 12234, Note_on_c, 12, 53, 0
13, 12240, Note_on_c, 12, 56, 50
13, 12240, Note_on_c, 12, 53, 50
13, 12264, Note_on_c, 12, 53, 0
13, 12264, Note_on_c, 12, 56, 0
13, 12270, Note_on_c, 12, 56, 50
13, 12270, Note_on_c, 12, 53, 50
13, 12294, Note_on_c, 12, 53, 0
13, 12294, Note_on_c, 12, 56, 0
13, 12300, Note_on_c, 12, 56, 50
13, 12300, Note_on_c, 12, 53, 50
13, 12324, Note_on_c, 12, 53, 0
13, 12324, Note_on_c, 12, 56, 0
13, 12330, Note_on_c, 12, 56, 50
13, 12330, Note_on_c, 12, 53, 50
13, 12354, Note_on_c, 12, 53, 0
13, 12354, Note_on_c, 12, 56, 0
13, 12360, Note_on_c, 12, 56, 50
13, 12360, Note_on_c, 12, 53, 50
13, 12384, Note_on_c, 12, 53, 0
13, 12384, Note_on_c, 12, 56, 0
13, 12390, Note_on_c, 12, 56, 50
13, 12390, Note_on_c, 12, 53, 50
13, 12414, Note_on_c, 12, 53, 0
13, 12414, Note_on_c, 12, 56, 0
13, 12420, Note_on_c, 12, 56, 50
13, 12420, Note_on_c, 12, 53, 50
13, 12444, Note_on_c, 12, 53, 0
13, 12444, Note_on_c, 12, 56, 0
13, 12450, Note_on_c, 12, 56, 50
13, 12450, Note_on_c, 12, 53, 50
13, 12474, Note_on_c, 12, 53, 0
13, 12474, Note_on_c, 12, 56, 0
13, 12480, Note_on_c, 12, 56, 50
13, 12480, Note_on_c, 12, 53, 50
13, 12504, Note_on_c, 12, 53, 0
13, 12504, Note_on_c, 12, 56, 0
13, 12510, Note_on_c, 12, 56, 50
13, 12510, Note_on_c, 12, 53, 50
13, 12534, Note_on_c, 12, 53, 0
13, 12534, Note_on_c, 12, 56, 0
13, 12540, Note_on_c, 12, 53, 50
13, 12540, Note_on_c, 12, 56, 50
13, 12564, Note_on_c, 12, 56, 0
13, 12564, Note_on_c, 12, 53, 0
13, 12570, Note_on_c, 12, 56, 50
13, 12570, Note_on_c, 12, 53, 50
13, 12594, Note_on_c, 12, 53, 0
13, 12594, Note_on_c, 12, 56, 0
13, 12600, Note_on_c, 12, 53, 50
13, 12600, Note_on_c, 12, 56, 50
13, 12624, Note_on_c, 12, 56, 0
13, 12624, Note_on_c, 12, 53, 0
13, 12630, Note_on_c, 12, 56, 50
13, 12630, Note_on_c, 12, 53, 50
13, 12654, Note_on_c, 12, 53, 0
13, 12654, Note_on_c, 12, 56, 0
13, 12660, Note_on_c, 12, 53, 50
13, 12660, Note_on_c, 12, 56, 50
13, 12684, Note_on_c, 12, 56, 0
13, 12684, Note_on_c, 12, 53, 0
13, 12690, Note_on_c, 12, 56, 50
13, 12690, Note_on_c, 12, 53, 50
13, 12714, Note_on_c, 12, 53, 0
13, 12714, Note_on_c, 12, 56, 0
13, 12720, Note_on_c, 12, 56, 50
13, 12720, Note_on_c, 12, 53, 50
13, 12744, Note_on_c, 12, 53, 0
13, 12744, Note_on_c, 12, 56, 0
13, 12750, Note_on_c, 12, 56, 50
13, 12750, Note_on_c, 12, 53, 50
13, 12774, Note_on_c, 12, 53, 0
13, 12774, Note_on_c, 12, 56, 0
13, 12780, Note_on_c, 12, 56, 50
13, 12780, Note_on_c, 12, 53, 50
13, 12804, Note_on_c, 12, 53, 0
13, 12804, Note_on_c, 12, 56, 0
13, 12810, Note_on_c, 12, 56, 50
13, 12810, Note_on_c, 12, 53, 50
13, 12834, Note_on_c, 12, 53, 0
13, 12834, Note_on_c, 12, 56, 0
13, 12840, Note_on_c, 12, 56, 50
13, 12840, Note_on_c, 12, 53, 50
13, 12864, Note_on_c, 12, 53, 0
13, 12864, Note_on_c, 12, 56, 0
13, 12870, Note_on_c, 12, 56, 50
13, 12870, Note_on_c, 12, 53, 50
13, 12894, Note_on_c, 12, 53, 0
13, 12894, Note_on_c, 12, 56, 0
13, 12900, Note_on_c, 12, 56, 50
13, 12900, Note_on_c, 12, 53, 50
13, 12924, Note_on_c, 12, 53, 0
13, 12924, Note_on_c, 12, 56, 0
13, 12930, Note_on_c, 12, 56, 50
13, 12930, Note_on_c, 12, 53, 50
13, 12954, Note_on_c, 12, 53, 0
13, 12954, Note_on_c, 12, 56, 0
13, 12960, Note_on_c, 12, 57, 50
13, 12960, Note_on_c, 12, 54, 50
13, 12984, Note_on_c, 12, 54, 0
13, 12984, Note_on_c, 12, 57, 0
13, 12990, Note_on_c, 12, 54, 50
13, 12990, Note_on_c, 12, 57, 50
13, 13014, Note_on_c, 12, 57, 0
13, 13014, Note_on_c, 12, 54, 0
13, 13020, Note_on_c, 12, 54, 50
13, 13020, Note_on_c, 12, 57, 50
13, 13044, Note_on_c, 12, 57, 0
13, 13044, Note_on_c, 12, 54, 0
13, 13050, Note_on_c, 12, 54, 50
13, 13050, Note_on_c, 12, 57, 50
13, 13074, Note_on_c, 12, 57, 0
13, 13074, Note_on_c, 12, 54, 0
13, 13080, Note_on_c, 12, 54, 50
13, 13080, Note_on_c, 12, 57, 50
13, 13104, Note_on_c, 12, 57, 0
13, 13104, Note_on_c, 12, 54, 0
13, 13110, Note_on_c, 12, 57, 50
13, 13110, Note_on_c, 12, 54, 50
13, 13134, Note_on_c, 12, 54, 0
13, 13134, Note_on_c, 12, 57, 0
13, 13140, Note_on_c, 12, 57, 50
13, 13140, Note_on_c, 12, 54, 50
13, 13164, Note_on_c, 12, 54, 0
13, 13164, Note_on_c, 12, 57, 0
13, 13170, Note_on_c, 12, 57, 50
13, 13170, Note_on_c, 12, 54, 50
13, 13194, Note_on_c, 12, 54, 0
13, 13194, Note_on_c, 12, 57, 0
13, 13200, Note_on_c, 12, 54, 50
13, 13200, Note_on_c, 12, 57, 50
13, 13224, Note_on_c, 12, 57, 0
13, 13224, Note_on_c, 12, 54, 0
13, 13230, Note_on_c, 12, 57, 50
13, 13230, Note_on_c, 12, 54, 50
13, 13254, Note_on_c, 12, 54, 0
13, 13254, Note_on_c, 12, 57, 0
13, 13260, Note_on_c, 12, 57, 50
13, 13260, Note_on_c, 12, 54, 50
13, 13284, Note_on_c, 12, 54, 0
13, 13284, Note_on_c, 12, 57, 0
13, 13290, Note_on_c, 12, 57, 50
13, 13290, Note_on_c, 12, 54, 50
13, 13314, Note_on_c, 12, 54, 0
13, 13314, Note_on_c, 12, 57, 0
13, 13320, Note_on_c, 12, 54, 50
13, 13320, Note_on_c, 12, 57, 50
13, 13344, Note_on_c, 12, 57, 0
13, 13344, Note_on_c, 12, 54, 0
13, 13350, Note_on_c, 12, 57, 50
13, 13350, Note_on_c, 12, 54, 50
13, 13374, Note_on_c, 12, 54, 0
13, 13374, Note_on_c, 12, 57, 0
13, 13380, Note_on_c, 12, 57, 50
13, 13380, Note_on_c, 12, 54, 50
13, 13404, Note_on_c, 12, 54, 0
13, 13404, Note_on_c, 12, 57, 0
13, 13410, Note_on_c, 12, 57, 50
13, 13410, Note_on_c, 12, 54, 50
13, 13434, Note_on_c, 12, 54, 0
13, 13434, Note_on_c, 12, 57, 0
13, 13440, Note_on_c, 12, 54, 50
13, 13440, Note_on_c, 12, 57, 50
13, 13464, Note_on_c, 12, 57, 0
13, 13464, Note_on_c, 12, 54, 0
13, 13470, Note_on_c, 12, 57, 50
13, 13470, Note_on_c, 12, 54, 50
13, 13494, Note_on_c, 12, 54, 0
13, 13494, Note_on_c, 12, 57, 0
13, 13500, Note_on_c, 12, 57, 50
13, 13500, Note_on_c, 12, 54, 50
13, 13524, Note_on_c, 12, 54, 0
13, 13524, Note_on_c, 12, 57, 0
13, 13530, Note_on_c, 12, 57, 50
13, 13530, Note_on_c, 12, 54, 50
13, 13554, Note_on_c, 12, 54, 0
13, 13554, Note_on_c, 12, 57, 0
13, 13560, Note_on_c, 12, 54, 50
13, 13560, Note_on_c, 12, 57, 50
13, 13584, Note_on_c, 12, 57, 0
13, 13584, Note_on_c, 12, 54, 0
13, 13590, Note_on_c, 12, 57, 50
13, 13590, Note_on_c, 12, 54, 50
13, 13614, Note_on_c, 12, 54, 0
13, 13614, Note_on_c, 12, 57, 0
13, 13620, Note_on_c, 12, 57, 50
13, 13620, Note_on_c, 12, 54, 50
13, 13644, Note_on_c, 12, 54, 0
13, 13644, Note_on_c, 12, 57, 0
13, 13650, Note_on_c, 12, 57, 50
13, 13650, Note_on_c, 12, 54, 50
13, 13674, Note_on_c, 12, 54, 0
13, 13674, Note_on_c, 12, 57, 0
13, 13680, Note_on_c, 12, 60, 50
13, 13680, Note_on_c, 12, 54, 50
13, 13704, Note_on_c, 12, 54, 0
13, 13704, Note_on_c, 12, 60, 0
13, 13710, Note_on_c, 12, 54, 50
13, 13710, Note_on_c, 12, 60, 50
13, 13734, Note_on_c, 12, 60, 0
13, 13734, Note_on_c, 12, 54, 0
13, 13740, Note_on_c, 12, 54, 50
13, 13740, Note_on_c, 12, 60, 50
13, 13764, Note_on_c, 12, 60, 0
13, 13764, Note_on_c, 12, 54, 0
13, 13770, Note_on_c, 12, 54, 50
13, 13770, Note_on_c, 12, 60, 50
13, 13794, Note_on_c, 12, 60, 0
13, 13794, Note_on_c, 12, 54, 0
13, 13800, Note_on_c, 12, 54, 50
13, 13800, Note_on_c, 12, 60, 50
13, 13824, Note_on_c, 12, 60, 0
13, 13824, Note_on_c, 12, 54, 0
13, 13830, Note_on_c, 12, 60, 50
13, 13830, Note_on_c, 12, 54, 50
13, 13854, Note_on_c, 12, 54, 0
13, 13854, Note_on_c, 12, 60, 0
13, 13860, Note_on_c, 12, 60, 50
13, 13860, Note_on_c, 12, 54, 50
13, 13884, Note_on_c, 12, 54, 0
13, 13884, Note_on_c, 12, 60, 0
13, 13890, Note_on_c, 12, 60, 50
13, 13890, Note_on_c, 12, 54, 50
13, 13914, Note_on_c, 12, 54, 0
13, 13914, Note_on_c, 12, 60, 0
13, 13920, Note_on_c, 12, 54, 50
13, 13920, Note_on_c, 12, 60, 50
13, 13944, Note_on_c, 12, 60, 0
13, 13944, Note_on_c, 12, 54, 0
13, 13950, Note_on_c, 12, 60, 50
13, 13950, Note_on_c, 12, 54, 50
13, 13974, Note_on_c, 12, 54, 0
13, 13974, Note_on_c, 12, 60, 0
13, 13980, Note_on_c, 12, 60, 50
13, 13980, Note_on_c, 12, 54, 50
13, 14004, Note_on_c, 12, 54, 0
13, 14004, Note_on_c, 12, 60, 0
13, 14010, Note_on_c, 12, 60, 50
13, 14010, Note_on_c, 12, 54, 50
13, 14034, Note_on_c, 12, 54, 0
13, 14034, Note_on_c, 12, 60, 0
13, 14040, Note_on_c, 12, 54, 50
13, 14040, Note_on_c, 12, 60, 50
13, 14064, Note_on_c, 12, 60, 0
13, 14064, Note_on_c, 12, 54, 0
13, 14070, Note_on_c, 12, 60, 50
13, 14070, Note_on_c, 12, 54, 50
13, 14094, Note_on_c, 12, 54, 0
13, 14094, Note_on_c, 12, 60, 0
13, 14100, Note_on_c, 12, 60, 50
13, 14100, Note_on_c, 12, 54, 50
13, 14124, Note_on_c, 12, 54, 0
13, 14124, Note_on_c, 12, 60, 0
13, 14130, Note_on_c, 12, 60, 50
13, 14130, Note_on_c, 12, 54, 50
13, 14154, Note_on_c, 12, 54, 0
13, 14154, Note_on_c, 12, 60, 0
13, 14160, Note_on_c, 12, 60, 50
13, 14160, Note_on_c, 12, 54, 50
13, 14184, Note_on_c, 12, 54, 0
13, 14184, Note_on_c, 12, 60, 0
13, 14190, Note_on_c, 12, 54, 50
13, 14190, Note_on_c, 12, 60, 50
13, 14214, Note_on_c, 12, 60, 0
13, 14214, Note_on_c, 12, 54, 0
13, 14220, Note_on_c, 12, 54, 50
13, 14220, Note_on_c, 12, 60, 50
13, 14244, Note_on_c, 12, 60, 0
13, 14244, Note_on_c, 12, 54, 0
13, 14250, Note_on_c, 12, 54, 50
13, 14250, Note_on_c, 12, 60, 50
13, 14274, Note_on_c, 12, 60, 0
13, 14274, Note_on_c, 12, 54, 0
13, 14280, Note_on_c, 12, 60, 50
13, 14280, Note_on_c, 12, 54, 50
13, 14304, Note_on_c, 12, 54, 0
13, 14304, Note_on_c, 12, 60, 0
13, 14310, Note_on_c, 12, 54, 50
13, 14310, Note_on_c, 12, 60, 50
13, 14334, Note_on_c, 12, 60, 0
13, 14334, Note_on_c, 12, 54, 0
13, 14340, Note_on_c, 12, 54, 50
13, 14340, Note_on_c, 12, 60, 50
13, 14364, Note_on_c, 12, 60, 0
13, 14364, Note_on_c, 12, 54, 0
13, 14370, Note_on_c, 12, 54, 50
13, 14370, Note_on_c, 12, 60, 50
13, 14394, Note_on_c, 12, 60, 0
13, 14394, Note_on_c, 12, 54, 0
13, 14400, Note_on_c, 12, 58, 50
13, 14400, Note_on_c, 12, 53, 50
13, 14424, Note_on_c, 12, 53, 0
13, 14424, Note_on_c, 12, 58, 0
13, 14430, Note_on_c, 12, 53, 50
13, 14430, Note_on_c, 12, 58, 50
13, 14454, Note_on_c, 12, 58, 0
13, 14454, Note_on_c, 12, 53, 0
13, 14460, Note_on_c, 12, 53, 50
13, 14460, Note_on_c, 12, 58, 50
13, 14484, Note_on_c, 12, 58, 0
13, 14484, Note_on_c, 12, 53, 0
13, 14490, Note_on_c, 12, 53, 50
13, 14490, Note_on_c, 12, 58, 50
13, 14514, Note_on_c, 12, 58, 0
13, 14514, Note_on_c, 12, 53, 0
13, 14520, Note_on_c, 12, 53, 50
13, 14520, Note_on_c, 12, 58, 50
13, 14544, Note_on_c, 12, 58, 0
13, 14544, Note_on_c, 12, 53, 0
13, 14550, Note_on_c, 12, 58, 50
13, 14550, Note_on_c, 12, 53, 50
13, 14574, Note_on_c, 12, 53, 0
13, 14574, Note_on_c, 12, 58, 0
13, 14580, Note_on_c, 12, 58, 50
13, 14580, Note_on_c, 12, 53, 50
13, 14604, Note_on_c, 12, 53, 0
13, 14604, Note_on_c, 12, 58, 0
13, 14610, Note_on_c, 12, 58, 50
13, 14610, Note_on_c, 12, 53, 50
13, 14634, Note_on_c, 12, 53, 0
13, 14634, Note_on_c, 12, 58, 0
13, 14640, Note_on_c, 12, 53, 50
13, 14640, Note_on_c, 12, 58, 50
13, 14664, Note_on_c, 12, 58, 0
13, 14664, Note_on_c, 12, 53, 0
13, 14670, Note_on_c, 12, 58, 50
13, 14670, Note_on_c, 12, 53, 50
13, 14694, Note_on_c, 12, 53, 0
13, 14694, Note_on_c, 12, 58, 0
13, 14700, Note_on_c, 12, 58, 50
13, 14700, Note_on_c, 12, 53, 50
13, 14724, Note_on_c, 12, 53, 0
13, 14724, Note_on_c, 12, 58, 0
13, 14730, Note_on_c, 12, 58, 50
13, 14730, Note_on_c, 12, 53, 50
13, 14754, Note_on_c, 12, 53, 0
13, 14754, Note_on_c, 12, 58, 0
13, 14760, Note_on_c, 12, 53, 50
13, 14760, Note_on_c, 12, 58, 50
13, 14784, Note_on_c, 12, 58, 0
13, 14784, Note_on_c, 12, 53, 0
13, 14790, Note_on_c, 12, 58, 50
13, 14790, Note_on_c, 12, 53, 50
13, 14814, Note_on_c, 12, 53, 0
13, 14814, Note_on_c, 12, 58, 0
13, 14820, Note_on_c, 12, 58, 50
13, 14820, Note_on_c, 12, 53, 50
13, 14844, Note_on_c, 12, 53, 0
13, 14844, Note_on_c, 12, 58, 0
13, 14850, Note_on_c, 12, 58, 50
13, 14850, Note_on_c, 12, 53, 50
13, 14874, Note_on_c, 12, 53, 0
13, 14874, Note_on_c, 12, 58, 0
13, 14880, Note_on_c, 12, 58, 50
13, 14880, Note_on_c, 12, 53, 50
13, 14904, Note_on_c, 12, 53, 0
13, 14904, Note_on_c, 12, 58, 0
13, 14910, Note_on_c, 12, 53, 50
13, 14910, Note_on_c, 12, 58, 50
13, 14934, Note_on_c, 12, 58, 0
13, 14934, Note_on_c, 12, 53, 0
13, 14940, Note_on_c, 12, 53, 50
13, 14940, Note_on_c, 12, 58, 50
13, 14964, Note_on_c, 12, 58, 0
13, 14964, Note_on_c, 12, 53, 0
13, 14970, Note_on_c, 12, 53, 50
13, 14970, Note_on_c, 12, 58, 50
13, 14994, Note_on_c, 12, 58, 0
13, 14994, Note_on_c, 12, 53, 0
13, 15000, Note_on_c, 12, 58, 50
13, 15000, Note_on_c, 12, 53, 50
13, 15024, Note_on_c, 12, 53, 0
13, 15024, Note_on_c, 12, 58, 0
13, 15030, Note_on_c, 12, 53, 50
13, 15030, Note_on_c, 12, 58, 50
13, 15054, Note_on_c, 12, 58, 0
13, 15054, Note_on_c, 12, 53, 0
13, 15060, Note_on_c, 12, 53, 50
13, 15060, Note_on_c, 12, 58, 50
13, 15084, Note_on_c, 12, 58, 0
13, 15084, Note_on_c, 12, 53, 0
13, 15090, Note_on_c, 12, 53, 50
13, 15090, Note_on_c, 12, 58, 50
13, 15114, Note_on_c, 12, 58, 0
13, 15114, Note_on_c, 12, 53, 0
13, 15120, Note_on_c, 12, 58, 50
13, 15120, Note_on_c, 12, 52, 50
13, 15144, Note_on_c, 12, 52, 0
13, 15144, Note_on_c, 12, 58, 0
13, 15150, Note_on_c, 12, 52, 50
13, 15150, Note_on_c, 12, 58, 50
13, 15174, Note_on_c, 12, 58, 0
13, 15174, Note_on_c, 12, 52, 0
13, 15180, Note_on_c, 12, 52, 50
13, 15180, Note_on_c, 12, 58, 50
13, 15204, Note_on_c, 12, 58, 0
13, 15204, Note_on_c, 12, 52, 0
13, 15210, Note_on_c, 12, 52, 50
13, 15210, Note_on_c, 12, 58, 50
13, 15234, Note_on_c, 12, 58, 0
13, 15234, Note_on_c, 12, 52, 0
13, 15240, Note_on_c, 12, 52, 50
13, 15240, Note_on_c, 12, 58, 50
13, 15264, Note_on_c, 12, 58, 0
13, 15264, Note_on_c, 12, 52, 0
13, 15270, Note_on_c, 12, 58, 50
13, 15270, Note_on_c, 12, 52, 50
13, 15294, Note_on_c, 12, 52, 0
13, 15294, Note_on_c, 12, 58, 0
13, 15300, Note_on_c, 12, 58, 50
13, 15300, Note_on_c, 12, 52, 50
13, 15324, Note_on_c, 12, 52, 0
13, 15324, Note_on_c, 12, 58, 0
13, 15330, Note_on_c, 12, 58, 50
13, 15330, Note_on_c, 12, 52, 50
13, 15354, Note_on_c, 12, 52, 0
13, 15354, Note_on_c, 12, 58, 0
13, 15360, Note_on_c, 12, 52, 50
13, 15360, Note_on_c, 12, 58, 50
13, 15384, Note_on_c, 12, 58, 0
13, 15384, Note_on_c, 12, 52, 0
13, 15390, Note_on_c, 12, 58, 50
13, 15390, Note_on_c, 12, 52, 50
13, 15414, Note_on_c, 12, 52, 0
13, 15414, Note_on_c, 12, 58, 0
13, 15420, Note_on_c, 12, 58, 50
13, 15420, Note_on_c, 12, 52, 50
13, 15444, Note_on_c, 12, 52, 0
13, 15444, Note_on_c, 12, 58, 0
13, 15450, Note_on_c, 12, 58, 50
13, 15450, Note_on_c, 12, 52, 50
13, 15474, Note_on_c, 12, 52, 0
13, 15474, Note_on_c, 12, 58, 0
13, 15480, Note_on_c, 12, 52, 50
13, 15480, Note_on_c, 12, 58, 50
13, 15504, Note_on_c, 12, 58, 0
13, 15504, Note_on_c, 12, 52, 0
13, 15510, Note_on_c, 12, 58, 50
13, 15510, Note_on_c, 12, 52, 50
13, 15534, Note_on_c, 12, 52, 0
13, 15534, Note_on_c, 12, 58, 0
13, 15540, Note_on_c, 12, 58, 50
13, 15540, Note_on_c, 12, 52, 50
13, 15564, Note_on_c, 12, 52, 0
13, 15564, Note_on_c, 12, 58, 0
13, 15570, Note_on_c, 12, 58, 50
13, 15570, Note_on_c, 12, 52, 50
13, 15594, Note_on_c, 12, 52, 0
13, 15594, Note_on_c, 12, 58, 0
13, 15600, Note_on_c, 12, 58, 50
13, 15600, Note_on_c, 12, 52, 50
13, 15624, Note_on_c, 12, 52, 0
13, 15624, Note_on_c, 12, 58, 0
13, 15630, Note_on_c, 12, 52, 50
13, 15630, Note_on_c, 12, 58, 50
13, 15654, Note_on_c, 12, 58, 0
13, 15654, Note_on_c, 12, 52, 0
13, 15660, Note_on_c, 12, 52, 50
13, 15660, Note_on_c, 12, 58, 50
13, 15684, Note_on_c, 12, 58, 0
13, 15684, Note_on_c, 12, 52, 0
13, 15690, Note_on_c, 12, 52, 50
13, 15690, Note_on_c, 12, 58, 50
13, 15714, Note_on_c, 12, 58, 0
13, 15714, Note_on_c, 12, 52, 0
13, 15720, Note_on_c, 12, 58, 50
13, 15720, Note_on_c, 12, 52, 50
13, 15744, Note_on_c, 12, 52, 0
13, 15744, Note_on_c, 12, 58, 0
13, 15750, Note_on_c, 12, 52, 50
13, 15750, Note_on_c, 12, 58, 50
13, 15774, Note_on_c, 12, 58, 0
13, 15774, Note_on_c, 12, 52, 0
13, 15780, Note_on_c, 12, 52, 50
13, 15780, Note_on_c, 12, 58, 50
13, 15804, Note_on_c, 12, 58, 0
13, 15804, Note_on_c, 12, 52, 0
13, 15810, Note_on_c, 12, 52, 50
13, 15810, Note_on_c, 12, 58, 50
13, 15834, Note_on_c, 12, 58, 0
13, 15834, Note_on_c, 12, 52, 0
13, 15840, Note_on_c, 12, 52, 50
13, 15840, Note_on_c, 12, 55, 50
13, 15840, Note_on_c, 12, 58, 50
13, 15864, Note_on_c, 12, 58, 0
13, 15864, Note_on_c, 12, 55, 0
13, 15864, Note_on_c, 12, 52, 0
13, 15870, Note_on_c, 12, 58, 50
13, 15870, Note_on_c, 12, 55, 50
13, 15870, Note_on_c, 12, 52, 50
13, 15894, Note_on_c, 12, 52, 0
13, 15894, Note_on_c, 12, 55, 0
13, 15894, Note_on_c, 12, 58, 0
13, 15900, Note_on_c, 12, 58, 50
13, 15900, Note_on_c, 12, 55, 50
13, 15900, Note_on_c, 12, 52, 50
13, 15924, Note_on_c, 12, 52, 0
13, 15924, Note_on_c, 12, 55, 0
13, 15924, Note_on_c, 12, 58, 0
13, 15930, Note_on_c, 12, 58, 50
13, 15930, Note_on_c, 12, 55, 50
13, 15930, Note_on_c, 12, 52, 50
13, 15954, Note_on_c, 12, 52, 0
13, 15954, Note_on_c, 12, 55, 0
13, 15954, Note_on_c, 12, 58, 0
13, 15960, Note_on_c, 12, 58, 50
13, 15960, Note_on_c, 12, 55, 50
13, 15960, Note_on_c, 12, 52, 50
13, 15984, Note_on_c, 12, 52, 0
13, 15984, Note_on_c, 12, 55, 0
13, 15984, Note_on_c, 12, 58, 0
13, 15990, Note_on_c, 12, 52, 50
13, 15990, Note_on_c, 12, 55, 50
13, 15990, Note_on_c, 12, 58, 50
13, 16014, Note_on_c, 12, 58, 0
13, 16014, Note_on_c, 12, 55, 0
13, 16014, Note_on_c, 12, 52, 0
13, 16020, Note_on_c, 12, 52, 50
13, 16020, Note_on_c, 12, 55, 50
13, 16020, Note_on_c, 12, 58, 50
13, 16044, Note_on_c, 12, 58, 0
13, 16044, Note_on_c, 12, 55, 0
13, 16044, Note_on_c, 12, 52, 0
13, 16050, Note_on_c, 12, 52, 50
13, 16050, Note_on_c, 12, 55, 50
13, 16050, Note_on_c, 12, 58, 50
13, 16074, Note_on_c, 12, 58, 0
13, 16074, Note_on_c, 12, 55, 0
13, 16074, Note_on_c, 12, 52, 0
13, 16080, Note_on_c, 12, 58, 50
13, 16080, Note_on_c, 12, 55, 50
13, 16080, Note_on_c, 12, 52, 50
13, 16104, Note_on_c, 12, 52, 0
13, 16104, Note_on_c, 12, 55, 0
13, 16104, Note_on_c, 12, 58, 0
13, 16110, Note_on_c, 12, 52, 50
13, 16110, Note_on_c, 12, 55, 50
13, 16110, Note_on_c, 12, 58, 50
13, 16134, Note_on_c, 12, 58, 0
13, 16134, Note_on_c, 12, 55, 0
13, 16134, Note_on_c, 12, 52, 0
13, 16140, Note_on_c, 12, 52, 50
13, 16140, Note_on_c, 12, 55, 50
13, 16140, Note_on_c, 12, 58, 50
13, 16164, Note_on_c, 12, 58, 0
13, 16164, Note_on_c, 12, 55, 0
13, 16164, Note_on_c, 12, 52, 0
13, 16170, Note_on_c, 12, 52, 50
13, 16170, Note_on_c, 12, 55, 50
13, 16170, Note_on_c, 12, 58, 50
13, 16194, Note_on_c, 12, 58, 0
13, 16194, Note_on_c, 12, 55, 0
13, 16194, Note_on_c, 12, 52, 0
13, 16200, Note_on_c, 12, 58, 50
13, 16200, Note_on_c, 12, 55, 50
13, 16200, Note_on_c, 12, 52, 50
13, 16224, Note_on_c, 12, 52, 0
13, 16224, Note_on_c, 12, 55, 0
13, 16224, Note_on_c, 12, 58, 0
13, 16230, Note_on_c, 12, 52, 50
13, 16230, Note_on_c, 12, 55, 50
13, 16230, Note_on_c, 12, 58, 50
13, 16254, Note_on_c, 12, 58, 0
13, 16254, Note_on_c, 12, 55, 0
13, 16254, Note_on_c, 12, 52, 0
13, 16260, Note_on_c, 12, 52, 50
13, 16260, Note_on_c, 12, 55, 50
13, 16260, Note_on_c, 12, 58, 50
13, 16284, Note_on_c, 12, 58, 0
13, 16284, Note_on_c, 12, 55, 0
13, 16284, Note_on_c, 12, 52, 0
13, 16290, Note_on_c, 12, 52, 50
13, 16290, Note_on_c, 12, 55, 50
13, 16290, Note_on_c, 12, 58, 50
13, 16314, Note_on_c, 12, 58, 0
13, 16314, Note_on_c, 12, 55, 0
13, 16314, Note_on_c, 12, 52, 0
13, 16320, Note_on_c, 12, 52, 50
13, 16320, Note_on_c, 12, 55, 50
13, 16320, Note_on_c, 12, 58, 50
13, 16344, Note_on_c, 12, 58, 0
13, 16344, Note_on_c, 12, 55, 0
13, 16344, Note_on_c, 12, 52, 0
13, 16350, Note_on_c, 12, 58, 50
13, 16350, Note_on_c, 12, 55, 50
13, 16350, Note_on_c, 12, 52, 50
13, 16374, Note_on_c, 12, 52, 0
13, 16374, Note_on_c, 12, 55, 0
13, 16374, Note_on_c, 12, 58, 0
13, 16380, Note_on_c, 12, 58, 50
13, 16380, Note_on_c, 12, 55, 50
13, 16380, Note_on_c, 12, 52, 50
13, 16404, Note_on_c, 12, 52, 0
13, 16404, Note_on_c, 12, 55, 0
13, 16404, Note_on_c, 12, 58, 0
13, 16410, Note_on_c, 12, 58, 50
13, 16410, Note_on_c, 12, 55, 50
13, 16410, Note_on_c, 12, 52, 50
13, 16434, Note_on_c, 12, 52, 0
13, 16434, Note_on_c, 12, 55, 0
13, 16434, Note_on_c, 12, 58, 0
13, 16440, Note_on_c, 12, 52, 50
13, 16440, Note_on_c, 12, 55, 50
13, 16440, Note_on_c, 12, 58, 50
13, 16464, Note_on_c, 12, 58, 0
13, 16464, Note_on_c, 12, 55, 0
13, 16464, Note_on_c, 12, 52, 0
13, 16470, Note_on_c, 12, 58, 50
13, 16470, Note_on_c, 12, 55, 50
13, 16470, Note_on_c, 12, 52, 50
13, 16494, Note_on_c, 12, 52, 0
13, 16494, Note_on_c, 12, 55, 0
13, 16494, Note_on_c, 12, 58, 0
13, 16500, Note_on_c, 12, 58, 50
13, 16500, Note_on_c, 12, 55, 50
13, 16500, Note_on_c, 12, 52, 50
13, 16524, Note_on_c, 12, 52, 0
13, 16524, Note_on_c, 12, 55, 0
13, 16524, Note_on_c, 12, 58, 0
13, 16530, Note_on_c, 12, 58, 50
13, 16530, Note_on_c, 12, 55, 50
13, 16530, Note_on_c, 12, 52, 50
13, 16554, Note_on_c, 12, 52, 0
13, 16554, Note_on_c, 12, 55, 0
13, 16554, Note_on_c, 12, 58, 0
13, 16560, Note_on_c, 12, 52, 50
13, 16560, Note_on_c, 12, 55, 50
13, 16560, Note_on_c, 12, 58, 50
13, 16656, Note_on_c, 12, 58, 0
13, 16656, Note_on_c, 12, 55, 0
13, 16656, Note_on_c, 12, 52, 0
13, 17220, Note_on_c, 12, 52, 50
13, 17220, Note_on_c, 12, 55, 50
13, 17220, Note_on_c, 12, 58, 50
13, 17268, Note_on_c, 12, 58, 0
13, 17268, Note_on_c, 12, 55, 0
13, 17268, Note_on_c, 12, 52, 0
13, 17280, Note_on_c, 12, 58, 50
13, 17280, Note_on_c, 12, 55, 50
13, 17280, Note_on_c, 12, 52, 50
13, 17376, Note_on_c, 12, 52, 0
13, 17376, Note_on_c, 12, 55, 0
13, 17376, Note_on_c, 12, 58, 0
13, 17940, Note_on_c, 12, 58, 50
13, 17940, Note_on_c, 12, 55, 50
13, 17940, Note_on_c, 12, 52, 50
13, 17988, Note_on_c, 12, 52, 0
13, 17988, Note_on_c, 12, 55, 0
13, 17988, Note_on_c, 12, 58, 0
13, 18000, Note_on_c, 12, 52, 50
13, 18000, Note_on_c, 12, 55, 50
13, 18000, Note_on_c, 12, 58, 50
13, 18096, Note_on_c, 12, 58, 0
13, 18096, Note_on_c, 12, 55, 0
13, 18096, Note_on_c, 12, 52, 0
13, 20040, Note_on_c, 12, 65, 127
13, 20088, Note_on_c, 12, 65, 0
13, 20100, Note_on_c, 12, 65, 56
13, 20148, Note_on_c, 12, 65, 0
13, 20160, Note_on_c, 12, 65, 56
13, 20208, Note_on_c, 12, 65, 0
13, 20220, Note_on_c, 12, 65, 56
13, 20268, Note_on_c, 12, 65, 0
13, 20280, Note_on_c, 12, 65, 56
13, 20328, Note_on_c, 12, 65, 0
13, 20340, Note_on_c, 12, 65, 56
13, 20388, Note_on_c, 12, 65, 0
13, 20400, Note_on_c, 12, 65, 56
13, 20448, Note_on_c, 12, 65, 0
13, 20460, Note_on_c, 12, 65, 56
13, 20508, Note_on_c, 12, 65, 0
13, 20520, Note_on_c, 12, 65, 56
13, 20568, Note_on_c, 12, 65, 0
13, 20580, Note_on_c, 12, 65, 56
13, 20628, Note_on_c, 12, 65, 0
13, 20640, Note_on_c, 12, 65, 56
13, 20688, Note_on_c, 12, 65, 0
13, 20700, Note_on_c, 12, 65, 56
13, 20748, Note_on_c, 12, 65, 0
13, 20760, Note_on_c, 12, 65, 56
13, 20808, Note_on_c, 12, 65, 0
13, 20820, Note_on_c, 12, 65, 56
13, 20868, Note_on_c, 12, 65, 0
13, 20880, Note_on_c, 12, 65, 56
13, 20928, Note_on_c, 12, 65, 0
13, 20940, Note_on_c, 12, 65, 56
13, 20988, Note_on_c, 12, 65, 0
13, 21000, Note_on_c, 12, 65, 56
13, 21048, Note_on_c, 12, 65, 0
13, 21060, Note_on_c, 12, 65, 56
13, 21108, Note_on_c, 12, 65, 0
13, 21120, Note_on_c, 12, 65, 56
13, 21168, Note_on_c, 12, 65, 0
13, 21180, Note_on_c, 12, 65, 56
13, 21228, Note_on_c, 12, 65, 0
13, 21240, Note_on_c, 12, 67, 56
13, 21288, Note_on_c, 12, 67, 0
13, 21300, Note_on_c, 12, 67, 56
13, 21348, Note_on_c, 12, 67, 0
13, 21360, Note_on_c, 12, 67, 56
13, 21408, Note_on_c, 12, 67, 0
13, 21420, Note_on_c, 12, 67, 56
13, 21468, Note_on_c, 12, 67, 0
13, 21480, Note_on_c, 12, 64, 112
13, 21528, Note_on_c, 12, 64, 0
13, 21540, Note_on_c, 12, 64, 56
13, 21588, Note_on_c, 12, 64, 0
13, 21600, Note_on_c, 12, 64, 56
13, 21648, Note_on_c, 12, 64, 0
13, 21660, Note_on_c, 12, 64, 56
13, 21708, Note_on_c, 12, 64, 0
13, 21720, Note_on_c, 12, 64, 56
13, 21768, Note_on_c, 12, 64, 0
13, 21780, Note_on_c, 12, 64, 56
13, 21828, Note_on_c, 12, 64, 0
13, 21840, Note_on_c, 12, 64, 56
13, 21888, Note_on_c, 12, 64, 0
13, 21900, Note_on_c, 12, 64, 56
13, 21948, Note_on_c, 12, 64, 0
13, 21960, Note_on_c, 12, 64, 56
13, 22008, Note_on_c, 12, 64, 0
13, 22020, Note_on_c, 12, 64, 56
13, 22068, Note_on_c, 12, 64, 0
13, 22080, Note_on_c, 12, 64, 56
13, 22128, Note_on_c, 12, 64, 0
13, 22140, Note_on_c, 12, 64, 56
13, 22188, Note_on_c, 12, 64, 0
13, 22200, Note_on_c, 12, 64, 56
13, 22248, Note_on_c, 12, 64, 0
13, 22260, Note_on_c, 12, 64, 56
13, 22308, Note_on_c, 12, 64, 0
13, 22320, Note_on_c, 12, 64, 56
13, 22368, Note_on_c, 12, 64, 0
13, 22380, Note_on_c, 12, 64, 56
13, 22428, Note_on_c, 12, 64, 0
13, 22440, Note_on_c, 12, 64, 56
13, 22488, Note_on_c, 12, 64, 0
13, 22500, Note_on_c, 12, 64, 56
13, 22548, Note_on_c, 12, 64, 0
13, 22560, Note_on_c, 12, 64, 56
13, 22608, Note_on_c, 12, 64, 0
13, 22620, Note_on_c, 12, 64, 56
13, 22668, Note_on_c, 12, 64, 0
13, 22680, Note_on_c, 12, 64, 56
13, 22728, Note_on_c, 12, 64, 0
13, 22740, Note_on_c, 12, 64, 56
13, 22788, Note_on_c, 12, 64, 0
13, 22800, Note_on_c, 12, 65, 56
13, 22848, Note_on_c, 12, 65, 0
13, 22860, Note_on_c, 12, 65, 56
13, 22908, Note_on_c, 12, 65, 0
13, 22920, Note_on_c, 12, 53, 80
13, 23184, Note_on_c, 12, 53, 0
13, 23220, Note_on_c, 12, 53, 96
13, 23268, Note_on_c, 12, 53, 0
13, 23280, Note_on_c, 12, 53, 96
13, 23328, Note_on_c, 12, 53, 0
13, 23340, Note_on_c, 12, 55, 96
13, 23388, Note_on_c, 12, 55, 0
13, 23400, Note_on_c, 12, 56, 96
13, 23496, Note_on_c, 12, 56, 0
13, 23520, Note_on_c, 12, 53, 80
13, 23616, Note_on_c, 12, 53, 0
13, 23640, Note_on_c, 12, 53, 80
13, 23904, Note_on_c, 12, 53, 0
13, 23940, Note_on_c, 12, 53, 100
13, 23988, Note_on_c, 12, 53, 0
13, 24000, Note_on_c, 12, 53, 100
13, 24048, Note_on_c, 12, 53, 0
13, 24060, Note_on_c, 12, 55, 100
13, 24108, Note_on_c, 12, 55, 0
13, 24120, Note_on_c, 12, 56, 100
13, 24216, Note_on_c, 12, 56, 0
13, 24240, Note_on_c, 12, 53, 80
13, 24336, Note_on_c, 12, 53, 0
13, 24360, Note_on_c, 12, 53, 80
13, 24624, Note_on_c, 12, 53, 0
13, 24660, Note_on_c, 12, 53, 104
13, 24708, Note_on_c, 12, 53, 0
13, 24720, Note_on_c, 12, 53, 104
13, 24768, Note_on_c, 12, 53, 0
13, 24780, Note_on_c, 12, 55, 104
13, 24828, Note_on_c, 12, 55, 0
13, 24840, Note_on_c, 12, 56, 104
13, 24936, Note_on_c, 12, 56, 0
13, 25020, Note_on_c, 12, 65, 73
13, 25068, Note_on_c, 12, 65, 0
13, 25080, Note_on_c, 12, 65, 65
13, 25128, Note_on_c, 12, 65, 0
13, 25140, Note_on_c, 12, 60, 58
13, 25188, Note_on_c, 12, 60, 0
13, 25200, Note_on_c, 12, 60, 50
13, 25296, Note_on_c, 12, 60, 0
13, 25380, Note_on_c, 12, 64, 52
13, 25428, Note_on_c, 12, 64, 0
13, 25440, Note_on_c, 12, 64, 53
13, 25488, Note_on_c, 12, 64, 0
13, 25500, Note_on_c, 12, 65, 54
13, 25548, Note_on_c, 12, 65, 0
13, 25560, Note_on_c, 12, 65, 55
13, 25608, Note_on_c, 12, 65, 0
13, 25620, Note_on_c, 12, 60, 55
13, 25668, Note_on_c, 12, 60, 0
13, 25680, Note_on_c, 12, 60, 56
13, 25872, Note_on_c, 12, 60, 0
13, 25920, Note_on_c, 12, 60, 60
13, 25968, Note_on_c, 12, 60, 0
13, 25980, Note_on_c, 12, 60, 60
13, 26028, Note_on_c, 12, 60, 0
13, 26040, Note_on_c, 12, 60, 61
13, 26232, Note_on_c, 12, 60, 0
13, 26280, Note_on_c, 12, 60, 65
13, 26328, Note_on_c, 12, 60, 0
13, 26340, Note_on_c, 12, 60, 65
13, 26388, Note_on_c, 12, 60, 0
13, 26400, Note_on_c, 12, 60, 66
13, 26592, Note_on_c, 12, 60, 0
13, 26640, Note_on_c, 12, 48, 70
13, 26640, Note_on_c, 12, 58, 70
13, 28008, Note_on_c, 12, 58, 0
13, 28008, Note_on_c, 12, 48, 0
13, 28080, Note_on_c, 12, 58, 90
13, 28080, Note_on_c, 12, 48, 90
13, 29448, Note_on_c, 12, 48, 0
13, 29448, Note_on_c, 12, 58, 0
13, 29520, Note_on_c, 12, 58, 110
13, 29520, Note_on_c, 12, 48, 110
13, 30696, Note_on_c, 12, 48, 0
13, 30696, Note_on_c, 12, 58, 0
13, 30840, Note_on_c, 12, 48, 127
13, 30900, Note_on_c, 12, 48, 0
13, 30900, Note_on_c, 12, 49, 127
13, 30960, Note_on_c, 12, 49, 0
13, 30960, Note_on_c, 12, 48, 127
13, 31020, Note_on_c, 12, 48, 0
13, 31020, Note_on_c, 12, 49, 126
13, 31080, Note_on_c, 12, 49, 0
13, 31080, Note_on_c, 12, 48, 126
13, 31140, Note_on_c, 12, 48, 0
13, 31140, Note_on_c, 12, 49, 125
13, 31200, Note_on_c, 12, 49, 0
13, 31200, Note_on_c, 12, 48, 125
13, 31260, Note_on_c, 12, 48, 0
13, 31260, Note_on_c, 12, 49, 124
13, 31308, Note_on_c, 12, 49, 0
13, 31320, Note_on_c, 12, 48, 124
13, 31380, Note_on_c, 12, 48, 0
13, 31380, Note_on_c, 12, 49, 124
13, 31440, Note_on_c, 12, 49, 0
13, 31440, Note_on_c, 12, 48, 123
13, 31500, Note_on_c, 12, 48, 0
13, 31500, Note_on_c, 12, 49, 123
13, 31560, Note_on_c, 12, 49, 0
13, 31560, Note_on_c, 12, 48, 122
13, 31620, Note_on_c, 12, 48, 0
13, 31620, Note_on_c, 12, 49, 122
13, 31668, Note_on_c, 12, 49, 0
13, 31680, Note_on_c, 12, 48, 121
13, 31740, Note_on_c, 12, 48, 0
13, 31740, Note_on_c, 12, 49, 121
13, 31800, Note_on_c, 12, 49, 0
13, 31800, Note_on_c, 12, 48, 121
13, 31860, Note_on_c, 12, 48, 0
13, 31860, Note_on_c, 12, 49, 120
13, 31920, Note_on_c, 12, 49, 0
13, 31920, Note_on_c, 12, 48, 120
13, 31980, Note_on_c, 12, 48, 0
13, 31980, Note_on_c, 12, 49, 119
13, 32028, Note_on_c, 12, 49, 0
13, 32040, Note_on_c, 12, 48, 119
13, 32100, Note_on_c, 12, 48, 0
13, 32100, Note_on_c, 12, 49, 118
13, 32160, Note_on_c, 12, 49, 0
13, 32160, Note_on_c, 12, 48, 118
13, 32220, Note_on_c, 12, 48, 0
13, 32220, Note_on_c, 12, 49, 117
13, 32280, Note_on_c, 12, 49, 0
13, 32280, Note_on_c, 12, 48, 117
13, 32340, Note_on_c, 12, 48, 0
13, 32340, Note_on_c, 12, 49, 117
13, 32388, Note_on_c, 12, 49, 0
13, 32400, Note_on_c, 12, 48, 116
13, 32460, Note_on_c, 12, 48, 0
13, 32460, Note_on_c, 12, 49, 116
13, 32520, Note_on_c, 12, 49, 0
13, 32520, Note_on_c, 12, 48, 115
13, 32580, Note_on_c, 12, 48, 0
13, 32580, Note_on_c, 12, 49, 115
13, 32640, Note_on_c, 12, 49, 0
13, 32640, Note_on_c, 12, 48, 114
13, 32700, Note_on_c, 12, 48, 0
13, 32700, Note_on_c, 12, 49, 114
13, 32748, Note_on_c, 12, 49, 0
13, 32760, Note_on_c, 12, 48, 114
13, 32820, Note_on_c, 12, 48, 0
13, 32820, Note_on_c, 12, 49, 113
13, 32880, Note_on_c, 12, 49, 0
13, 32880, Note_on_c, 12, 48, 113
13, 32940, Note_on_c, 12, 48, 0
13, 32940, Note_on_c, 12, 49, 112
13, 33000, Note_on_c, 12, 49, 0
13, 33000, Note_on_c, 12, 48, 112
13, 33060, Note_on_c, 12, 48, 0
13, 33060, Note_on_c, 12, 49, 111
13, 33108, Note_on_c, 12, 49, 0
13, 33120, Note_on_c, 12, 48, 111
13, 33180, Note_on_c, 12, 48, 0
13, 33180, Note_on_c, 12, 49, 111
13, 33240, Note_on_c, 12, 49, 0
13, 33240, Note_on_c, 12, 48, 110
13, 33300, Note_on_c, 12, 48, 0
13, 33300, Note_on_c, 12, 49, 110
13, 33360, Note_on_c, 12, 49, 0
13, 33360, Note_on_c, 12, 48, 109
13, 33456, Note_on_c, 12, 48, 0
13, 33480, Note_on_c, 12, 53, 108
13, 33576, Note_on_c, 12, 53, 0
13, 33660, Note_on_c, 12, 56, 107
13, 33708, Note_on_c, 12, 56, 0
13, 33720, Note_on_c, 12, 55, 107
13, 33768, Note_on_c, 12, 55, 0
13, 33780, Note_on_c, 12, 53, 106
13, 33828, Note_on_c, 12, 53, 0
13, 33840, Note_on_c, 12, 58, 106
13, 33936, Note_on_c, 12, 58, 0
13, 34020, Note_on_c, 12, 58, 104
13, 34068, Note_on_c, 12, 58, 0
13, 34080, Note_on_c, 12, 56, 104
13, 34128, Note_on_c, 12, 56, 0
13, 34140, Note_on_c, 12, 55, 104
13, 34188, Note_on_c, 12, 55, 0
13, 34200, Note_on_c, 12, 60, 103
13, 34296, Note_on_c, 12, 60, 0
13, 34380, Note_on_c, 12, 60, 102
13, 34428, Note_on_c, 12, 60, 0
13, 34440, Note_on_c, 12, 58, 101
13, 34488, Note_on_c, 12, 58, 0
13, 34500, Note_on_c, 12, 56, 101
13, 34548, Note_on_c, 12, 56, 0
13, 34560, Note_on_c, 12, 61, 100
13, 34656, Note_on_c, 12, 61, 0
13, 34680, Note_on_c, 12, 58, 109
13, 34776, Note_on_c, 12, 58, 0
13, 34800, Note_on_c, 12, 55, 118
13, 34848, Note_on_c, 12, 55, 0
13, 34860, Note_on_c, 12, 60, 122
13, 34908, Note_on_c, 12, 60, 0
13, 34920, Note_on_c, 12, 53, 127
13, 35016, Note_on_c, 12, 53, 0
13, 35100, Note_on_c, 12, 56, 101
13, 35148, Note_on_c, 12, 56, 0
13, 35160, Note_on_c, 12, 55, 102
13, 35208, Note_on_c, 12, 55, 0
13, 35220, Note_on_c, 12, 53, 103
13, 35268, Note_on_c, 12, 53, 0
13, 35280, Note_on_c, 12, 58, 104
13, 35376, Note_on_c, 12, 58, 0
13, 35460, Note_on_c, 12, 58, 108
13, 35508, Note_on_c, 12, 58, 0
13, 35520, Note_on_c, 12, 56, 109
13, 35568, Note_on_c, 12, 56, 0
13, 35580, Note_on_c, 12, 55, 111
13, 35628, Note_on_c, 12, 55, 0
13, 35640, Note_on_c, 12, 60, 112
13, 35736, Note_on_c, 12, 60, 0
13, 35820, Note_on_c, 12, 60, 115
13, 35868, Note_on_c, 12, 60, 0
13, 35880, Note_on_c, 12, 58, 117
13, 35928, Note_on_c, 12, 58, 0
13, 35940, Note_on_c, 12, 56, 118
13, 35988, Note_on_c, 12, 56, 0
13, 36000, Note_on_c, 12, 68, 119
13, 36096, Note_on_c, 12, 68, 0
13, 36120, Note_on_c, 12, 56, 122
13, 36216, Note_on_c, 12, 56, 0
13, 36240, Note_on_c, 12, 56, 124
13, 36336, Note_on_c, 12, 56, 0
13, 36360, Note_on_c, 12, 55, 127
13, 36552, Note_on_c, 12, 55, 0
13, 36600, Note_on_c, 12, 58, 127
13, 36648, Note_on_c, 12, 58, 0
13, 36660, Note_on_c, 12, 61, 127
13, 36708, Note_on_c, 12, 61, 0
13, 36720, Note_on_c, 12, 56, 127
13, 36912, Note_on_c, 12, 56, 0
13, 36960, Note_on_c, 12, 60, 127
13, 37008, Note_on_c, 12, 60, 0
13, 37020, Note_on_c, 12, 63, 127
13, 37068, Note_on_c, 12, 63, 0
13, 37080, Note_on_c, 12, 53, 127
13, 37272, Note_on_c, 12, 53, 0
13, 37320, Note_on_c, 12, 56, 127
13, 37368, Note_on_c, 12, 56, 0
13, 37380, Note_on_c, 12, 58, 127
13, 37428, Note_on_c, 12, 58, 0
13, 37440, Note_on_c, 12, 51, 112
13, 37632, Note_on_c, 12, 51, 0
13, 37680, Note_on_c, 12, 55, 112
13, 37728, Note_on_c, 12, 55, 0
13, 37740, Note_on_c, 12, 58, 112
13, 37788, Note_on_c, 12, 58, 0
13, 37800, Note_on_c, 12, 51, 112
13, 37992, Note_on_c, 12, 51, 0
13, 38040, Note_on_c, 12, 49, 112
13, 38088, Note_on_c, 12, 49, 0
13, 38100, Note_on_c, 12, 51, 112
13, 38148, Note_on_c, 12, 51, 0
13, 38160, Note_on_c, 12, 48, 112
13, 38352, Note_on_c, 12, 48, 0
13, 38400, Note_on_c, 12, 51, 112
13, 38448, Note_on_c, 12, 51, 0
13, 38460, Note_on_c, 12, 56, 112
13, 38508, Note_on_c, 12, 56, 0
13, 38520, Note_on_c, 12, 50, 112
13, 38712, Note_on_c, 12, 50, 0
13, 38760, Note_on_c, 12, 53, 112
13, 38808, Note_on_c, 12, 53, 0
13, 38820, Note_on_c, 12, 58, 112
13, 38868, Note_on_c, 12, 58, 0
13, 38880, Note_on_c, 12, 58, 112
13, 38976, Note_on_c, 12, 58, 0
13, 39240, Note_on_c, 12, 56, 127
13, 39300, Note_on_c, 12, 56, 0
13, 39360, Note_on_c, 12, 56, 127
13, 39420, Note_on_c, 12, 56, 0
13, 39540, Note_on_c, 12, 56, 127
13, 39588, Note_on_c, 12, 56, 0
13, 39600, Note_on_c, 12, 56, 127
13, 39696, Note_on_c, 12, 56, 0
13, 39720, Note_on_c, 12, 56, 127
13, 39816, Note_on_c, 12, 56, 0
13, 40680, Note_on_c, 12, 56, 127
13, 40740, Note_on_c, 12, 56, 0
13, 40800, Note_on_c, 12, 56, 127
13, 40860, Note_on_c, 12, 56, 0
13, 40980, Note_on_c, 12, 56, 127
13, 41028, Note_on_c, 12, 56, 0
13, 41040, Note_on_c, 12, 56, 127
13, 41136, Note_on_c, 12, 56, 0
13, 41160, Note_on_c, 12, 56, 127
13, 41256, Note_on_c, 12, 56, 0
13, 42120, Note_on_c, 12, 56, 127
13, 42180, Note_on_c, 12, 56, 0
13, 42240, Note_on_c, 12, 56, 127
13, 42300, Note_on_c, 12, 56, 0
13, 42420, Note_on_c, 12, 56, 127
13, 42468, Note_on_c, 12, 56, 0
13, 42480, Note_on_c, 12, 56, 127
13, 42576, Note_on_c, 12, 56, 0
13, 42600, Note_on_c, 12, 56, 127
13, 42696, Note_on_c, 12, 56, 0
13, 42840, Note_on_c, 12, 57, 50
13, 44928, Note_on_c, 12, 57, 0
13, 45000, Note_on_c, 12, 56, 67
13, 45288, Note_on_c, 12, 56, 0
13, 45360, Note_on_c, 12, 55, 70
13, 45648, Note_on_c, 12, 55, 0
13, 45720, Note_on_c, 12, 48, 95
13, 45752, Note_on_c, 12, 48, 0
13, 45760, Note_on_c, 12, 48, 95
13, 45792, Note_on_c, 12, 48, 0
13, 45800, Note_on_c, 12, 48, 95
13, 45832, Note_on_c, 12, 48, 0
13, 45840, Note_on_c, 12, 48, 95
13, 45872, Note_on_c, 12, 48, 0
13, 45880, Note_on_c, 12, 48, 95
13, 45912, Note_on_c, 12, 48, 0
13, 45920, Note_on_c, 12, 48, 95
13, 45952, Note_on_c, 12, 48, 0
13, 45960, Note_on_c, 12, 48, 95
13, 45992, Note_on_c, 12, 48, 0
13, 46000, Note_on_c, 12, 48, 95
13, 46032, Note_on_c, 12, 48, 0
13, 46040, Note_on_c, 12, 48, 95
13, 46072, Note_on_c, 12, 48, 0
13, 46080, Note_on_c, 12, 53, 95
13, 46112, Note_on_c, 12, 53, 0
13, 46120, Note_on_c, 12, 53, 95
13, 46152, Note_on_c, 12, 53, 0
13, 46160, Note_on_c, 12, 53, 95
13, 46192, Note_on_c, 12, 53, 0
13, 46200, Note_on_c, 12, 53, 95
13, 46232, Note_on_c, 12, 53, 0
13, 46240, Note_on_c, 12, 53, 95
13, 46272, Note_on_c, 12, 53, 0
13, 46280, Note_on_c, 12, 53, 95
13, 46312, Note_on_c, 12, 53, 0
13, 46320, Note_on_c, 12, 53, 95
13, 46352, Note_on_c, 12, 53, 0
13, 46360, Note_on_c, 12, 53, 95
13, 46392, Note_on_c, 12, 53, 0
13, 46400, Note_on_c, 12, 53, 95
13, 46432, Note_on_c, 12, 53, 0
13, 46440, Note_on_c, 12, 49, 95
13, 46472, Note_on_c, 12, 49, 0
13, 46480, Note_on_c, 12, 49, 95
13, 46512, Note_on_c, 12, 49, 0
13, 46520, Note_on_c, 12, 49, 95
13, 46552, Note_on_c, 12, 49, 0
13, 46560, Note_on_c, 12, 49, 95
13, 46592, Note_on_c, 12, 49, 0
13, 46600, Note_on_c, 12, 49, 95
13, 46632, Note_on_c, 12, 49, 0
13, 46640, Note_on_c, 12, 49, 95
13, 46672, Note_on_c, 12, 49, 0
13, 46680, Note_on_c, 12, 49, 95
13, 46712, Note_on_c, 12, 49, 0
13, 46720, Note_on_c, 12, 49, 95
13, 46752, Note_on_c, 12, 49, 0
13, 46760, Note_on_c, 12, 49, 95
13, 46792, Note_on_c, 12, 49, 0
13, 46800, Note_on_c, 12, 53, 95
13, 46832, Note_on_c, 12, 53, 0
13, 46840, Note_on_c, 12, 53, 95
13, 46872, Note_on_c, 12, 53, 0
13, 46880, Note_on_c, 12, 53, 95
13, 46912, Note_on_c, 12, 53, 0
13, 46920, Note_on_c, 12, 53, 95
13, 46952, Note_on_c, 12, 53, 0
13, 46960, Note_on_c, 12, 53, 95
13, 46992, Note_on_c, 12, 53, 0
13, 47000, Note_on_c, 12, 53, 95
13, 47032, Note_on_c, 12, 53, 0
13, 47040, Note_on_c, 12, 53, 95
13, 47072, Note_on_c, 12, 53, 0
13, 47080, Note_on_c, 12, 53, 95
13, 47112, Note_on_c, 12, 53, 0
13, 47120, Note_on_c, 12, 53, 95
13, 47152, Note_on_c, 12, 53, 0
13, 47160, Note_on_c, 12, 48, 95
13, 47256, Note_on_c, 12, 48, 0
13, 47880, Note_on_c, 12, 56, 112
13, 47976, Note_on_c, 12, 56, 0
13, 48600, Note_on_c, 12, 56, 112
13, 48696, Note_on_c, 12, 56, 0
13, 49320, Note_on_c, 12, 58, 127
13, 49320, Note_on_c, 12, 61, 127
13, 49368, Note_on_c, 12, 61, 0
13, 49368, Note_on_c, 12, 58, 0
13, 49380, Note_on_c, 12, 58, 127
13, 49380, Note_on_c, 12, 61, 127
13, 49428, Note_on_c, 12, 61, 0
13, 49428, Note_on_c, 12, 58, 0
13, 49440, Note_on_c, 12, 58, 127
13, 49440, Note_on_c, 12, 61, 127
13, 49488, Note_on_c, 12, 61, 0
13, 49488, Note_on_c, 12, 58, 0
13, 49500, Note_on_c, 12, 58, 127
13, 49500, Note_on_c, 12, 61, 127
13, 49548, Note_on_c, 12, 61, 0
13, 49548, Note_on_c, 12, 58, 0
13, 49560, Note_on_c, 12, 58, 127
13, 49560, Note_on_c, 12, 61, 127
13, 49608, Note_on_c, 12, 61, 0
13, 49608, Note_on_c, 12, 58, 0
13, 49620, Note_on_c, 12, 58, 127
13, 49620, Note_on_c, 12, 61, 127
13, 49668, Note_on_c, 12, 61, 0
13, 49668, Note_on_c, 12, 58, 0
13, 49680, Note_on_c, 12, 58, 127
13, 49680, Note_on_c, 12, 61, 127
13, 49728, Note_on_c, 12, 61, 0
13, 49728, Note_on_c, 12, 58, 0
13, 49740, Note_on_c, 12, 58, 127
13, 49740, Note_on_c, 12, 61, 127
13, 49788, Note_on_c, 12, 61, 0
13, 49788, Note_on_c, 12, 58, 0
13, 49800, Note_on_c, 12, 58, 127
13, 49800, Note_on_c, 12, 61, 127
13, 49848, Note_on_c, 12, 61, 0
13, 49848, Note_on_c, 12, 58, 0
13, 49860, Note_on_c, 12, 58, 127
13, 49860, Note_on_c, 12, 61, 127
13, 49908, Note_on_c, 12, 61, 0
13, 49908, Note_on_c, 12, 58, 0
13, 49920, Note_on_c, 12, 58, 127
13, 49920, Note_on_c, 12, 61, 127
13, 49968, Note_on_c, 12, 61, 0
13, 49968, Note_on_c, 12, 58, 0
13, 49980, Note_on_c, 12, 58, 127
13, 49980, Note_on_c, 12, 61, 127
13, 50028, Note_on_c, 12, 61, 0
13, 50028, Note_on_c, 12, 58, 0
13, 50040, Note_on_c, 12, 56, 127
13, 50040, Note_on_c, 12, 60, 127
13, 50088, Note_on_c, 12, 60, 0
13, 50088, Note_on_c, 12, 56, 0
13, 50100, Note_on_c, 12, 56, 127
13, 50100, Note_on_c, 12, 60, 127
13, 50148, Note_on_c, 12, 60, 0
13, 50148, Note_on_c, 12, 56, 0
13, 50160, Note_on_c, 12, 56, 127
13, 50160, Note_on_c, 12, 60, 127
13, 50208, Note_on_c, 12, 60, 0
13, 50208, Note_on_c, 12, 56, 0
13, 50220, Note_on_c, 12, 56, 127
13, 50220, Note_on_c, 12, 60, 127
13, 50268, Note_on_c, 12, 60, 0
13, 50268, Note_on_c, 12, 56, 0
13, 50280, Note_on_c, 12, 60, 127
13, 50280, Note_on_c, 12, 63, 127
13, 50328, Note_on_c, 12, 63, 0
13, 50328, Note_on_c, 12, 60, 0
13, 50340, Note_on_c, 12, 60, 127
13, 50340, Note_on_c, 12, 63, 127
13, 50388, Note_on_c, 12, 63, 0
13, 50388, Note_on_c, 12, 60, 0
13, 50400, Note_on_c, 12, 61, 127
13, 50400, Note_on_c, 12, 58, 127
13, 50448, Note_on_c, 12, 58, 0
13, 50448, Note_on_c, 12, 61, 0
13, 50460, Note_on_c, 12, 61, 127
13, 50460, Note_on_c, 12, 58, 127
13, 50508, Note_on_c, 12, 58, 0
13, 50508, Note_on_c, 12, 61, 0
13, 50520, Note_on_c, 12, 61, 127
13, 50520, Note_on_c, 12, 58, 127
13, 50568, Note_on_c, 12, 58, 0
13, 50568, Note_on_c, 12, 61, 0
13, 50580, Note_on_c, 12, 61, 127
13, 50580, Note_on_c, 12, 58, 127
13, 50628, Note_on_c, 12, 58, 0
13, 50628, Note_on_c, 12, 61, 0
13, 50640, Note_on_c, 12, 61, 127
13, 50640, Note_on_c, 12, 58, 127
13, 50688, Note_on_c, 12, 58, 0
13, 50688, Note_on_c, 12, 61, 0
13, 50700, Note_on_c, 12, 61, 127
13, 50700, Note_on_c, 12, 58, 127
13, 50748, Note_on_c, 12, 58, 0
13, 50748, Note_on_c, 12, 61, 0
13, 50760, Note_on_c, 12, 56, 127
13, 50760, Note_on_c, 12, 60, 127
13, 50808, Note_on_c, 12, 60, 0
13, 50808, Note_on_c, 12, 56, 0
13, 50820, Note_on_c, 12, 56, 127
13, 50820, Note_on_c, 12, 60, 127
13, 50868, Note_on_c, 12, 60, 0
13, 50868, Note_on_c, 12, 56, 0
13, 50880, Note_on_c, 12, 56, 127
13, 50880, Note_on_c, 12, 60, 127
13, 50928, Note_on_c, 12, 60, 0
13, 50928, Note_on_c, 12, 56, 0
13, 50940, Note_on_c, 12, 56, 127
13, 50940, Note_on_c, 12, 60, 127
13, 50988, Note_on_c, 12, 60, 0
13, 50988, Note_on_c, 12, 56, 0
13, 51000, Note_on_c, 12, 60, 127
13, 51000, Note_on_c, 12, 63, 127
13, 51048, Note_on_c, 12, 63, 0
13, 51048, Note_on_c, 12, 60, 0
13, 51060, Note_on_c, 12, 60, 127
13, 51060, Note_on_c, 12, 63, 127
13, 51108, Note_on_c, 12, 63, 0
13, 51108, Note_on_c, 12, 60, 0
13, 51120, Note_on_c, 12, 58, 127
13, 51120, Note_on_c, 12, 61, 127
13, 51168, Note_on_c, 12, 61, 0
13, 51168, Note_on_c, 12, 58, 0
13, 51180, Note_on_c, 12, 58, 127
13, 51180, Note_on_c, 12, 61, 127
13, 51228, Note_on_c, 12, 61, 0
13, 51228, Note_on_c, 12, 58, 0
13, 51240, Note_on_c, 12, 61, 127
13, 51240, Note_on_c, 12, 58, 127
13, 51288, Note_on_c, 12, 58, 0
13, 51288, Note_on_c, 12, 61, 0
13, 51300, Note_on_c, 12, 61, 127
13, 51300, Note_on_c, 12, 58, 127
13, 51348, Note_on_c, 12, 58, 0
13, 51348, Note_on_c, 12, 61, 0
13, 51360, Note_on_c, 12, 61, 127
13, 51360, Note_on_c, 12, 58, 127
13, 51408, Note_on_c, 12, 58, 0
13, 51408, Note_on_c, 12, 61, 0
13, 51420, Note_on_c, 12, 61, 127
13, 51420, Note_on_c, 12, 58, 127
13, 51468, Note_on_c, 12, 58, 0
13, 51468, Note_on_c, 12, 61, 0
13, 51480, Note_on_c, 12, 68, 127
13, 51528, Note_on_c, 12, 68, 0
13, 51540, Note_on_c, 12, 51, 50
13, 51540, Note_on_c, 12, 56, 50
13, 51588, Note_on_c, 12, 56, 0
13, 51588, Note_on_c, 12, 51, 0
13, 51600, Note_on_c, 12, 51, 50
13, 51600, Note_on_c, 12, 56, 50
13, 51648, Note_on_c, 12, 56, 0
13, 51648, Note_on_c, 12, 51, 0
13, 51660, Note_on_c, 12, 51, 50
13, 51660, Note_on_c, 12, 56, 50
13, 51708, Note_on_c, 12, 56, 0
13, 51708, Note_on_c, 12, 51, 0
13, 51720, Note_on_c, 12, 56, 50
13, 51720, Note_on_c, 12, 51, 50
13, 51768, Note_on_c, 12, 51, 0
13, 51768, Note_on_c, 12, 56, 0
13, 51780, Note_on_c, 12, 51, 50
13, 51780, Note_on_c, 12, 56, 50
13, 51828, Note_on_c, 12, 56, 0
13, 51828, Note_on_c, 12, 51, 0
13, 51840, Note_on_c, 12, 56, 50
13, 51840, Note_on_c, 12, 51, 50
13, 51888, Note_on_c, 12, 51, 0
13, 51888, Note_on_c, 12, 56, 0
13, 51900, Note_on_c, 12, 56, 50
13, 51900, Note_on_c, 12, 51, 50
13, 51948, Note_on_c, 12, 51, 0
13, 51948, Note_on_c, 12, 56, 0
13, 51960, Note_on_c, 12, 51, 50
13, 51960, Note_on_c, 12, 56, 50
13, 52008, Note_on_c, 12, 56, 0
13, 52008, Note_on_c, 12, 51, 0
13, 52020, Note_on_c, 12, 56, 50
13, 52020, Note_on_c, 12, 51, 50
13, 52068, Note_on_c, 12, 51, 0
13, 52068, Note_on_c, 12, 56, 0
13, 52080, Note_on_c, 12, 56, 50
13, 52080, Note_on_c, 12, 51, 50
13, 52128, Note_on_c, 12, 51, 0
13, 52128, Note_on_c, 12, 56, 0
13, 52140, Note_on_c, 12, 56, 50
13, 52140, Note_on_c, 12, 51, 50
13, 52188, Note_on_c, 12, 51, 0
13, 52188, Note_on_c, 12, 56, 0
13, 52200, Note_on_c, 12, 51, 50
13, 52200, Note_on_c, 12, 56, 50
13, 52248, Note_on_c, 12, 56, 0
13, 52248, Note_on_c, 12, 51, 0
13, 52260, Note_on_c, 12, 56, 50
13, 52260, Note_on_c, 12, 51, 50
13, 52308, Note_on_c, 12, 51, 0
13, 52308, Note_on_c, 12, 56, 0
13, 52320, Note_on_c, 12, 56, 50
13, 52320, Note_on_c, 12, 51, 50
13, 52368, Note_on_c, 12, 51, 0
13, 52368, Note_on_c, 12, 56, 0
13, 52380, Note_on_c, 12, 56, 50
13, 52380, Note_on_c, 12, 51, 50
13, 52428, Note_on_c, 12, 51, 0
13, 52428, Note_on_c, 12, 56, 0
13, 52440, Note_on_c, 12, 51, 50
13, 52440, Note_on_c, 12, 56, 50
13, 52488, Note_on_c, 12, 56, 0
13, 52488, Note_on_c, 12, 51, 0
13, 52500, Note_on_c, 12, 56, 50
13, 52500, Note_on_c, 12, 51, 50
13, 52548, Note_on_c, 12, 51, 0
13, 52548, Note_on_c, 12, 56, 0
13, 52560, Note_on_c, 12, 56, 50
13, 52560, Note_on_c, 12, 51, 50
13, 52608, Note_on_c, 12, 51, 0
13, 52608, Note_on_c, 12, 56, 0
13, 52620, Note_on_c, 12, 51, 50
13, 52620, Note_on_c, 12, 56, 50
13, 52668, Note_on_c, 12, 56, 0
13, 52668, Note_on_c, 12, 51, 0
13, 52680, Note_on_c, 12, 51, 50
13, 52680, Note_on_c, 12, 56, 50
13, 52728, Note_on_c, 12, 56, 0
13, 52728, Note_on_c, 12, 51, 0
13, 52740, Note_on_c, 12, 51, 50
13, 52740, Note_on_c, 12, 56, 50
13, 52788, Note_on_c, 12, 56, 0
13, 52788, Note_on_c, 12, 51, 0
13, 52800, Note_on_c, 12, 56, 50
13, 52800, Note_on_c, 12, 51, 50
13, 52848, Note_on_c, 12, 51, 0
13, 52848, Note_on_c, 12, 56, 0
13, 52860, Note_on_c, 12, 51, 50
13, 52860, Note_on_c, 12, 56, 50
13, 52908, Note_on_c, 12, 56, 0
13, 52908, Note_on_c, 12, 51, 0
13, 52920, Note_on_c, 12, 51, 50
13, 52920, Note_on_c, 12, 55, 50
13, 52968, Note_on_c, 12, 55, 0
13, 52968, Note_on_c, 12, 51, 0
13, 52980, Note_on_c, 12, 51, 50
13, 52980, Note_on_c, 12, 55, 50
13, 53028, Note_on_c, 12, 55, 0
13, 53028, Note_on_c, 12, 51, 0
13, 53040, Note_on_c, 12, 55, 50
13, 53040, Note_on_c, 12, 51, 50
13, 53088, Note_on_c, 12, 51, 0
13, 53088, Note_on_c, 12, 55, 0
13, 53100, Note_on_c, 12, 55, 50
13, 53100, Note_on_c, 12, 51, 50
13, 53148, Note_on_c, 12, 51, 0
13, 53148, Note_on_c, 12, 55, 0
13, 53160, Note_on_c, 12, 55, 50
13, 53160, Note_on_c, 12, 51, 50
13, 53208, Note_on_c, 12, 51, 0
13, 53208, Note_on_c, 12, 55, 0
13, 53220, Note_on_c, 12, 55, 50
13, 53220, Note_on_c, 12, 51, 50
13, 53268, Note_on_c, 12, 51, 0
13, 53268, Note_on_c, 12, 55, 0
13, 53280, Note_on_c, 12, 55, 50
13, 53280, Note_on_c, 12, 51, 50
13, 53328, Note_on_c, 12, 51, 0
13, 53328, Note_on_c, 12, 55, 0
13, 53340, Note_on_c, 12, 55, 50
13, 53340, Note_on_c, 12, 51, 50
13, 53388, Note_on_c, 12, 51, 0
13, 53388, Note_on_c, 12, 55, 0
13, 53400, Note_on_c, 12, 55, 50
13, 53400, Note_on_c, 12, 51, 50
13, 53448, Note_on_c, 12, 51, 0
13, 53448, Note_on_c, 12, 55, 0
13, 53460, Note_on_c, 12, 55, 50
13, 53460, Note_on_c, 12, 51, 50
13, 53508, Note_on_c, 12, 51, 0
13, 53508, Note_on_c, 12, 55, 0
13, 53520, Note_on_c, 12, 55, 50
13, 53520, Note_on_c, 12, 51, 50
13, 53568, Note_on_c, 12, 51, 0
13, 53568, Note_on_c, 12, 55, 0
13, 53580, Note_on_c, 12, 55, 50
13, 53580, Note_on_c, 12, 51, 50
13, 53628, Note_on_c, 12, 51, 0
13, 53628, Note_on_c, 12, 55, 0
13, 53640, Note_on_c, 12, 55, 50
13, 53640, Note_on_c, 12, 51, 50
13, 53688, Note_on_c, 12, 51, 0
13, 53688, Note_on_c, 12, 55, 0
13, 53700, Note_on_c, 12, 55, 50
13, 53700, Note_on_c, 12, 51, 50
13, 53748, Note_on_c, 12, 51, 0
13, 53748, Note_on_c, 12, 55, 0
13, 53760, Note_on_c, 12, 55, 50
13, 53760, Note_on_c, 12, 51, 50
13, 53808, Note_on_c, 12, 51, 0
13, 53808, Note_on_c, 12, 55, 0
13, 53820, Note_on_c, 12, 55, 50
13, 53820, Note_on_c, 12, 51, 50
13, 53868, Note_on_c, 12, 51, 0
13, 53868, Note_on_c, 12, 55, 0
13, 53880, Note_on_c, 12, 55, 50
13, 53880, Note_on_c, 12, 51, 50
13, 53928, Note_on_c, 12, 51, 0
13, 53928, Note_on_c, 12, 55, 0
13, 53940, Note_on_c, 12, 55, 50
13, 53940, Note_on_c, 12, 51, 50
13, 53988, Note_on_c, 12, 51, 0
13, 53988, Note_on_c, 12, 55, 0
13, 54000, Note_on_c, 12, 51, 50
13, 54000, Note_on_c, 12, 55, 50
13, 54048, Note_on_c, 12, 55, 0
13, 54048, Note_on_c, 12, 51, 0
13, 54060, Note_on_c, 12, 51, 50
13, 54060, Note_on_c, 12, 55, 50
13, 54108, Note_on_c, 12, 55, 0
13, 54108, Note_on_c, 12, 51, 0
13, 54120, Note_on_c, 12, 51, 50
13, 54120, Note_on_c, 12, 55, 50
13, 54168, Note_on_c, 12, 55, 0
13, 54168, Note_on_c, 12, 51, 0
13, 54180, Note_on_c, 12, 51, 50
13, 54180, Note_on_c, 12, 55, 50
13, 54228, Note_on_c, 12, 55, 0
13, 54228, Note_on_c, 12, 51, 0
13, 54240, Note_on_c, 12, 63, 127
13, 54336, Note_on_c, 12, 63, 0
13, 54360, Note_on_c, 12, 56, 127
13, 54408, Note_on_c, 12, 56, 0
13, 54420, Note_on_c, 12, 51, 50
13, 54420, Note_on_c, 12, 56, 50
13, 54468, Note_on_c, 12, 56, 0
13, 54468, Note_on_c, 12, 51, 0
13, 54480, Note_on_c, 12, 56, 50
13, 54480, Note_on_c, 12, 51, 50
13, 54528, Note_on_c, 12, 51, 0
13, 54528, Note_on_c, 12, 56, 0
13, 54540, Note_on_c, 12, 51, 50
13, 54540, Note_on_c, 12, 56, 50
13, 54588, Note_on_c, 12, 56, 0
13, 54588, Note_on_c, 12, 51, 0
13, 54600, Note_on_c, 12, 51, 50
13, 54600, Note_on_c, 12, 56, 50
13, 54648, Note_on_c, 12, 56, 0
13, 54648, Note_on_c, 12, 51, 0
13, 54660, Note_on_c, 12, 56, 50
13, 54660, Note_on_c, 12, 51, 50
13, 54708, Note_on_c, 12, 51, 0
13, 54708, Note_on_c, 12, 56, 0
13, 54720, Note_on_c, 12, 51, 50
13, 54720, Note_on_c, 12, 56, 50
13, 54768, Note_on_c, 12, 56, 0
13, 54768, Note_on_c, 12, 51, 0
13, 54780, Note_on_c, 12, 56, 50
13, 54780, Note_on_c, 12, 51, 50
13, 54828, Note_on_c, 12, 51, 0
13, 54828, Note_on_c, 12, 56, 0
13, 54840, Note_on_c, 12, 51, 50
13, 54840, Note_on_c, 12, 56, 50
13, 54888, Note_on_c, 12, 56, 0
13, 54888, Note_on_c, 12, 51, 0
13, 54900, Note_on_c, 12, 56, 50
13, 54900, Note_on_c, 12, 51, 50
13, 54948, Note_on_c, 12, 51, 0
13, 54948, Note_on_c, 12, 56, 0
13, 54960, Note_on_c, 12, 51, 50
13, 54960, Note_on_c, 12, 56, 50
13, 55008, Note_on_c, 12, 56, 0
13, 55008, Note_on_c, 12, 51, 0
13, 55020, Note_on_c, 12, 56, 50
13, 55020, Note_on_c, 12, 51, 50
13, 55068, Note_on_c, 12, 51, 0
13, 55068, Note_on_c, 12, 56, 0
13, 55080, Note_on_c, 12, 56, 50
13, 55080, Note_on_c, 12, 51, 50
13, 55128, Note_on_c, 12, 51, 0
13, 55128, Note_on_c, 12, 56, 0
13, 55140, Note_on_c, 12, 51, 50
13, 55140, Note_on_c, 12, 56, 50
13, 55188, Note_on_c, 12, 56, 0
13, 55188, Note_on_c, 12, 51, 0
13, 55200, Note_on_c, 12, 56, 50
13, 55200, Note_on_c, 12, 51, 50
13, 55248, Note_on_c, 12, 51, 0
13, 55248, Note_on_c, 12, 56, 0
13, 55260, Note_on_c, 12, 51, 50
13, 55260, Note_on_c, 12, 56, 50
13, 55308, Note_on_c, 12, 56, 0
13, 55308, Note_on_c, 12, 51, 0
13, 55320, Note_on_c, 12, 56, 50
13, 55320, Note_on_c, 12, 51, 50
13, 55368, Note_on_c, 12, 51, 0
13, 55368, Note_on_c, 12, 56, 0
13, 55380, Note_on_c, 12, 51, 50
13, 55380, Note_on_c, 12, 56, 50
13, 55428, Note_on_c, 12, 56, 0
13, 55428, Note_on_c, 12, 51, 0
13, 55440, Note_on_c, 12, 56, 50
13, 55440, Note_on_c, 12, 51, 50
13, 55488, Note_on_c, 12, 51, 0
13, 55488, Note_on_c, 12, 56, 0
13, 55500, Note_on_c, 12, 51, 50
13, 55500, Note_on_c, 12, 56, 50
13, 55548, Note_on_c, 12, 56, 0
13, 55548, Note_on_c, 12, 51, 0
13, 55560, Note_on_c, 12, 56, 50
13, 55560, Note_on_c, 12, 51, 50
13, 55608, Note_on_c, 12, 51, 0
13, 55608, Note_on_c, 12, 56, 0
13, 55620, Note_on_c, 12, 51, 50
13, 55620, Note_on_c, 12, 56, 50
13, 55668, Note_on_c, 12, 56, 0
13, 55668, Note_on_c, 12, 51, 0
13, 55680, Note_on_c, 12, 54, 50
13, 55728, Note_on_c, 12, 54, 0
13, 55740, Note_on_c, 12, 54, 50
13, 55788, Note_on_c, 12, 54, 0
13, 55800, Note_on_c, 12, 53, 50
13, 55848, Note_on_c, 12, 53, 0
13, 55860, Note_on_c, 12, 53, 50
13, 55908, Note_on_c, 12, 53, 0
13, 55920, Note_on_c, 12, 53, 50
13, 55968, Note_on_c, 12, 53, 0
13, 55980, Note_on_c, 12, 53, 50
13, 56028, Note_on_c, 12, 53, 0
13, 56040, Note_on_c, 12, 53, 50
13, 56088, Note_on_c, 12, 53, 0
13, 56100, Note_on_c, 12, 53, 50
13, 56148, Note_on_c, 12, 53, 0
13, 56160, Note_on_c, 12, 53, 50
13, 56208, Note_on_c, 12, 53, 0
13, 56220, Note_on_c, 12, 53, 50
13, 56268, Note_on_c, 12, 53, 0
13, 56280, Note_on_c, 12, 53, 50
13, 56328, Note_on_c, 12, 53, 0
13, 56340, Note_on_c, 12, 53, 50
13, 56388, Note_on_c, 12, 53, 0
13, 56400, Note_on_c, 12, 53, 50
13, 56448, Note_on_c, 12, 53, 0
13, 56460, Note_on_c, 12, 53, 50
13, 56508, Note_on_c, 12, 53, 0
13, 56520, Note_on_c, 12, 53, 50
13, 56520, Note_on_c, 12, 53, 50
13, 56568, Note_on_c, 12, 53, 0
13, 56568, Note_on_c, 12, 53, 0
13, 56580, Note_on_c, 12, 53, 50
13, 56628, Note_on_c, 12, 53, 0
13, 56640, Note_on_c, 12, 53, 50
13, 56688, Note_on_c, 12, 53, 0
13, 56700, Note_on_c, 12, 53, 50
13, 56748, Note_on_c, 12, 53, 0
13, 56760, Note_on_c, 12, 53, 50
13, 56808, Note_on_c, 12, 53, 0
13, 56820, Note_on_c, 12, 53, 50
13, 56868, Note_on_c, 12, 53, 0
13, 56880, Note_on_c, 12, 53, 50
13, 56928, Note_on_c, 12, 53, 0
13, 56940, Note_on_c, 12, 53, 50
13, 56988, Note_on_c, 12, 53, 0
13, 57000, Note_on_c, 12, 53, 50
13, 57048, Note_on_c, 12, 53, 0
13, 57060, Note_on_c, 12, 53, 50
13, 57108, Note_on_c, 12, 53, 0
13, 57120, Note_on_c, 12, 65, 127
13, 57216, Note_on_c, 12, 65, 0
13, 57240, Note_on_c, 12, 58, 127
13, 57288, Note_on_c, 12, 58, 0
13, 57300, Note_on_c, 12, 53, 50
13, 57300, Note_on_c, 12, 58, 50
13, 57348, Note_on_c, 12, 58, 0
13, 57348, Note_on_c, 12, 53, 0
13, 57360, Note_on_c, 12, 53, 50
13, 57360, Note_on_c, 12, 58, 50
13, 57408, Note_on_c, 12, 58, 0
13, 57408, Note_on_c, 12, 53, 0
13, 57420, Note_on_c, 12, 53, 50
13, 57420, Note_on_c, 12, 58, 50
13, 57468, Note_on_c, 12, 58, 0
13, 57468, Note_on_c, 12, 53, 0
13, 57480, Note_on_c, 12, 58, 50
13, 57480, Note_on_c, 12, 53, 50
13, 57528, Note_on_c, 12, 53, 0
13, 57528, Note_on_c, 12, 58, 0
13, 57540, Note_on_c, 12, 58, 50
13, 57540, Note_on_c, 12, 53, 50
13, 57588, Note_on_c, 12, 53, 0
13, 57588, Note_on_c, 12, 58, 0
13, 57600, Note_on_c, 12, 58, 50
13, 57600, Note_on_c, 12, 53, 50
13, 57648, Note_on_c, 12, 53, 0
13, 57648, Note_on_c, 12, 58, 0
13, 57660, Note_on_c, 12, 58, 50
13, 57660, Note_on_c, 12, 53, 50
13, 57708, Note_on_c, 12, 53, 0
13, 57708, Note_on_c, 12, 58, 0
13, 57720, Note_on_c, 12, 58, 50
13, 57720, Note_on_c, 12, 53, 50
13, 57768, Note_on_c, 12, 53, 0
13, 57768, Note_on_c, 12, 58, 0
13, 57780, Note_on_c, 12, 58, 50
13, 57780, Note_on_c, 12, 53, 50
13, 57828, Note_on_c, 12, 53, 0
13, 57828, Note_on_c, 12, 58, 0
13, 57840, Note_on_c, 12, 58, 50
13, 57840, Note_on_c, 12, 53, 50
13, 57888, Note_on_c, 12, 53, 0
13, 57888, Note_on_c, 12, 58, 0
13, 57900, Note_on_c, 12, 58, 50
13, 57900, Note_on_c, 12, 53, 50
13, 57948, Note_on_c, 12, 53, 0
13, 57948, Note_on_c, 12, 58, 0
13, 57960, Note_on_c, 12, 53, 50
13, 57960, Note_on_c, 12, 58, 50
13, 58008, Note_on_c, 12, 58, 0
13, 58008, Note_on_c, 12, 53, 0
13, 58020, Note_on_c, 12, 53, 50
13, 58020, Note_on_c, 12, 58, 50
13, 58068, Note_on_c, 12, 58, 0
13, 58068, Note_on_c, 12, 53, 0
13, 58080, Note_on_c, 12, 53, 50
13, 58080, Note_on_c, 12, 58, 50
13, 58128, Note_on_c, 12, 58, 0
13, 58128, Note_on_c, 12, 53, 0
13, 58140, Note_on_c, 12, 53, 50
13, 58140, Note_on_c, 12, 58, 50
13, 58188, Note_on_c, 12, 58, 0
13, 58188, Note_on_c, 12, 53, 0
13, 58200, Note_on_c, 12, 53, 50
13, 58200, Note_on_c, 12, 58, 50
13, 58248, Note_on_c, 12, 58, 0
13, 58248, Note_on_c, 12, 53, 0
13, 58260, Note_on_c, 12, 53, 50
13, 58260, Note_on_c, 12, 58, 50
13, 58308, Note_on_c, 12, 58, 0
13, 58308, Note_on_c, 12, 53, 0
13, 58320, Note_on_c, 12, 53, 50
13, 58320, Note_on_c, 12, 58, 50
13, 58368, Note_on_c, 12, 58, 0
13, 58368, Note_on_c, 12, 53, 0
13, 58380, Note_on_c, 12, 53, 50
13, 58380, Note_on_c, 12, 58, 50
13, 58428, Note_on_c, 12, 58, 0
13, 58428, Note_on_c, 12, 53, 0
13, 58440, Note_on_c, 12, 53, 50
13, 58440, Note_on_c, 12, 58, 50
13, 58488, Note_on_c, 12, 58, 0
13, 58488, Note_on_c, 12, 53, 0
13, 58500, Note_on_c, 12, 53, 50
13, 58500, Note_on_c, 12, 58, 50
13, 58548, Note_on_c, 12, 58, 0
13, 58548, Note_on_c, 12, 53, 0
13, 58560, Note_on_c, 12, 53, 50
13, 58560, Note_on_c, 12, 58, 50
13, 58608, Note_on_c, 12, 58, 0
13, 58608, Note_on_c, 12, 53, 0
13, 58620, Note_on_c, 12, 53, 50
13, 58620, Note_on_c, 12, 58, 50
13, 58668, Note_on_c, 12, 58, 0
13, 58668, Note_on_c, 12, 53, 0
13, 58680, Note_on_c, 12, 53, 50
13, 58728, Note_on_c, 12, 53, 0
13, 58740, Note_on_c, 12, 53, 50
13, 58788, Note_on_c, 12, 53, 0
13, 58800, Note_on_c, 12, 53, 50
13, 58848, Note_on_c, 12, 53, 0
13, 58860, Note_on_c, 12, 53, 50
13, 58908, Note_on_c, 12, 53, 0
13, 58920, Note_on_c, 12, 53, 50
13, 58968, Note_on_c, 12, 53, 0
13, 58980, Note_on_c, 12, 53, 50
13, 59028, Note_on_c, 12, 53, 0
13, 59040, Note_on_c, 12, 53, 50
13, 59088, Note_on_c, 12, 53, 0
13, 59100, Note_on_c, 12, 53, 50
13, 59148, Note_on_c, 12, 53, 0
13, 59160, Note_on_c, 12, 53, 50
13, 59208, Note_on_c, 12, 53, 0
13, 59220, Note_on_c, 12, 53, 50
13, 59268, Note_on_c, 12, 53, 0
13, 59280, Note_on_c, 12, 53, 50
13, 59328, Note_on_c, 12, 53, 0
13, 59340, Note_on_c, 12, 53, 50
13, 59388, Note_on_c, 12, 53, 0
13, 59400, Note_on_c, 12, 53, 50
13, 59448, Note_on_c, 12, 53, 0
13, 59460, Note_on_c, 12, 53, 50
13, 59508, Note_on_c, 12, 53, 0
13, 59520, Note_on_c, 12, 53, 50
13, 59568, Note_on_c, 12, 53, 0
13, 59580, Note_on_c, 12, 53, 50
13, 59628, Note_on_c, 12, 53, 0
13, 59640, Note_on_c, 12, 53, 50
13, 59688, Note_on_c, 12, 53, 0
13, 59700, Note_on_c, 12, 53, 50
13, 59748, Note_on_c, 12, 53, 0
13, 59760, Note_on_c, 12, 53, 50
13, 59808, Note_on_c, 12, 53, 0
13, 59820, Note_on_c, 12, 53, 50
13, 59868, Note_on_c, 12, 53, 0
13, 59880, Note_on_c, 12, 53, 50
13, 59928, Note_on_c, 12, 53, 0
13, 59940, Note_on_c, 12, 53, 50
13, 59988, Note_on_c, 12, 53, 0
13, 60000, Note_on_c, 12, 65, 127
13, 60096, Note_on_c, 12, 65, 0
13, 60120, Note_on_c, 12, 53, 127
13, 60120, Note_on_c, 12, 58, 127
13, 60168, Note_on_c, 12, 58, 0
13, 60168, Note_on_c, 12, 53, 0
13, 60180, Note_on_c, 12, 53, 50
13, 60180, Note_on_c, 12, 58, 50
13, 60228, Note_on_c, 12, 58, 0
13, 60228, Note_on_c, 12, 53, 0
13, 60240, Note_on_c, 12, 58, 50
13, 60240, Note_on_c, 12, 53, 50
13, 60288, Note_on_c, 12, 53, 0
13, 60288, Note_on_c, 12, 58, 0
13, 60300, Note_on_c, 12, 58, 50
13, 60300, Note_on_c, 12, 53, 50
13, 60348, Note_on_c, 12, 53, 0
13, 60348, Note_on_c, 12, 58, 0
13, 60360, Note_on_c, 12, 58, 50
13, 60360, Note_on_c, 12, 53, 50
13, 60408, Note_on_c, 12, 53, 0
13, 60408, Note_on_c, 12, 58, 0
13, 60420, Note_on_c, 12, 58, 50
13, 60420, Note_on_c, 12, 53, 50
13, 60468, Note_on_c, 12, 53, 0
13, 60468, Note_on_c, 12, 58, 0
13, 60480, Note_on_c, 12, 58, 50
13, 60480, Note_on_c, 12, 53, 50
13, 60528, Note_on_c, 12, 53, 0
13, 60528, Note_on_c, 12, 58, 0
13, 60540, Note_on_c, 12, 58, 50
13, 60540, Note_on_c, 12, 53, 50
13, 60588, Note_on_c, 12, 53, 0
13, 60588, Note_on_c, 12, 58, 0
13, 60600, Note_on_c, 12, 58, 50
13, 60600, Note_on_c, 12, 53, 50
13, 60648, Note_on_c, 12, 53, 0
13, 60648, Note_on_c, 12, 58, 0
13, 60660, Note_on_c, 12, 58, 50
13, 60660, Note_on_c, 12, 53, 50
13, 60708, Note_on_c, 12, 53, 0
13, 60708, Note_on_c, 12, 58, 0
13, 60720, Note_on_c, 12, 58, 50
13, 60720, Note_on_c, 12, 53, 50
13, 60768, Note_on_c, 12, 53, 0
13, 60768, Note_on_c, 12, 58, 0
13, 60780, Note_on_c, 12, 58, 50
13, 60780, Note_on_c, 12, 53, 50
13, 60828, Note_on_c, 12, 53, 0
13, 60828, Note_on_c, 12, 58, 0
13, 60840, Note_on_c, 12, 58, 50
13, 60840, Note_on_c, 12, 53, 50
13, 60888, Note_on_c, 12, 53, 0
13, 60888, Note_on_c, 12, 58, 0
13, 60900, Note_on_c, 12, 58, 50
13, 60900, Note_on_c, 12, 53, 50
13, 60948, Note_on_c, 12, 53, 0
13, 60948, Note_on_c, 12, 58, 0
13, 60960, Note_on_c, 12, 58, 50
13, 60960, Note_on_c, 12, 53, 50
13, 61008, Note_on_c, 12, 53, 0
13, 61008, Note_on_c, 12, 58, 0
13, 61020, Note_on_c, 12, 58, 50
13, 61020, Note_on_c, 12, 53, 50
13, 61068, Note_on_c, 12, 53, 0
13, 61068, Note_on_c, 12, 58, 0
13, 61080, Note_on_c, 12, 58, 50
13, 61080, Note_on_c, 12, 53, 50
13, 61128, Note_on_c, 12, 53, 0
13, 61128, Note_on_c, 12, 58, 0
13, 61140, Note_on_c, 12, 58, 50
13, 61140, Note_on_c, 12, 53, 50
13, 61188, Note_on_c, 12, 53, 0
13, 61188, Note_on_c, 12, 58, 0
13, 61200, Note_on_c, 12, 53, 50
13, 61200, Note_on_c, 12, 58, 50
13, 61248, Note_on_c, 12, 58, 0
13, 61248, Note_on_c, 12, 53, 0
13, 61260, Note_on_c, 12, 53, 50
13, 61260, Note_on_c, 12, 58, 50
13, 61308, Note_on_c, 12, 58, 0
13, 61308, Note_on_c, 12, 53, 0
13, 61320, Note_on_c, 12, 53, 50
13, 61320, Note_on_c, 12, 58, 50
13, 61368, Note_on_c, 12, 58, 0
13, 61368, Note_on_c, 12, 53, 0
13, 61380, Note_on_c, 12, 53, 50
13, 61380, Note_on_c, 12, 58, 50
13, 61428, Note_on_c, 12, 58, 0
13, 61428, Note_on_c, 12, 53, 0
13, 61440, Note_on_c, 12, 53, 50
13, 61440, Note_on_c, 12, 59, 50
13, 61488, Note_on_c, 12, 59, 0
13, 61488, Note_on_c, 12, 53, 0
13, 61500, Note_on_c, 12, 53, 50
13, 61500, Note_on_c, 12, 59, 50
13, 61548, Note_on_c, 12, 59, 0
13, 61548, Note_on_c, 12, 53, 0
13, 61560, Note_on_c, 12, 59, 50
13, 61560, Note_on_c, 12, 53, 50
13, 61608, Note_on_c, 12, 53, 0
13, 61608, Note_on_c, 12, 59, 0
13, 61620, Note_on_c, 12, 59, 50
13, 61620, Note_on_c, 12, 53, 50
13, 61668, Note_on_c, 12, 53, 0
13, 61668, Note_on_c, 12, 59, 0
13, 61680, Note_on_c, 12, 59, 50
13, 61680, Note_on_c, 12, 53, 50
13, 61728, Note_on_c, 12, 53, 0
13, 61728, Note_on_c, 12, 59, 0
13, 61740, Note_on_c, 12, 59, 50
13, 61740, Note_on_c, 12, 53, 50
13, 61788, Note_on_c, 12, 53, 0
13, 61788, Note_on_c, 12, 59, 0
13, 61800, Note_on_c, 12, 59, 50
13, 61800, Note_on_c, 12, 53, 50
13, 61848, Note_on_c, 12, 53, 0
13, 61848, Note_on_c, 12, 59, 0
13, 61860, Note_on_c, 12, 59, 50
13, 61860, Note_on_c, 12, 53, 50
13, 61908, Note_on_c, 12, 53, 0
13, 61908, Note_on_c, 12, 59, 0
13, 61920, Note_on_c, 12, 59, 50
13, 61920, Note_on_c, 12, 53, 50
13, 61968, Note_on_c, 12, 53, 0
13, 61968, Note_on_c, 12, 59, 0
13, 61980, Note_on_c, 12, 59, 50
13, 61980, Note_on_c, 12, 53, 50
13, 62028, Note_on_c, 12, 53, 0
13, 62028, Note_on_c, 12, 59, 0
13, 62040, Note_on_c, 12, 59, 50
13, 62040, Note_on_c, 12, 53, 50
13, 62088, Note_on_c, 12, 53, 0
13, 62088, Note_on_c, 12, 59, 0
13, 62100, Note_on_c, 12, 59, 50
13, 62100, Note_on_c, 12, 53, 50
13, 62148, Note_on_c, 12, 53, 0
13, 62148, Note_on_c, 12, 59, 0
13, 62160, Note_on_c, 12, 55, 50
13, 62208, Note_on_c, 12, 55, 0
13, 62220, Note_on_c, 12, 56, 50
13, 62268, Note_on_c, 12, 56, 0
13, 62280, Note_on_c, 12, 55, 50
13, 62328, Note_on_c, 12, 55, 0
13, 62340, Note_on_c, 12, 56, 50
13, 62388, Note_on_c, 12, 56, 0
13, 62400, Note_on_c, 12, 55, 50
13, 62448, Note_on_c, 12, 55, 0
13, 62460, Note_on_c, 12, 56, 50
13, 62508, Note_on_c, 12, 56, 0
13, 62520, Note_on_c, 12, 55, 50
13, 62568, Note_on_c, 12, 55, 0
13, 62580, Note_on_c, 12, 56, 50
13, 62628, Note_on_c, 12, 56, 0
13, 62640, Note_on_c, 12, 55, 50
13, 62688, Note_on_c, 12, 55, 0
13, 62700, Note_on_c, 12, 56, 51
13, 62748, Note_on_c, 12, 56, 0
13, 62760, Note_on_c, 12, 55, 53
13, 62808, Note_on_c, 12, 55, 0
13, 62820, Note_on_c, 12, 56, 55
13, 62868, Note_on_c, 12, 56, 0
13, 62880, Note_on_c, 12, 55, 56
13, 62928, Note_on_c, 12, 55, 0
13, 62940, Note_on_c, 12, 56, 58
13, 62988, Note_on_c, 12, 56, 0
13, 63000, Note_on_c, 12, 55, 60
13, 63048, Note_on_c, 12, 55, 0
13, 63060, Note_on_c, 12, 56, 61
13, 63108, Note_on_c, 12, 56, 0
13, 63120, Note_on_c, 12, 55, 63
13, 63168, Note_on_c, 12, 55, 0
13, 63180, Note_on_c, 12, 56, 65
13, 63228, Note_on_c, 12, 56, 0
13, 63240, Note_on_c, 12, 55, 66
13, 63288, Note_on_c, 12, 55, 0
13, 63300, Note_on_c, 12, 56, 68
13, 63348, Note_on_c, 12, 56, 0
13, 63360, Note_on_c, 12, 55, 70
13, 63408, Note_on_c, 12, 55, 0
13, 63420, Note_on_c, 12, 56, 71
13, 63468, Note_on_c, 12, 56, 0
13, 63480, Note_on_c, 12, 55, 73
13, 63528, Note_on_c, 12, 55, 0
13, 63540, Note_on_c, 12, 56, 75
13, 63588, Note_on_c, 12, 56, 0
13, 63600, Note_on_c, 12, 55, 76
13, 63648, Note_on_c, 12, 55, 0
13, 63660, Note_on_c, 12, 56, 78
13, 63708, Note_on_c, 12, 56, 0
13, 63720, Note_on_c, 12, 55, 80
13, 63768, Note_on_c, 12, 55, 0
13, 63780, Note_on_c, 12, 56, 81
13, 63828, Note_on_c, 12, 56, 0
13, 63840, Note_on_c, 12, 55, 83
13, 63888, Note_on_c, 12, 55, 0
13, 63900, Note_on_c, 12, 56, 85
13, 63948, Note_on_c, 12, 56, 0
13, 63960, Note_on_c, 12, 55, 86
13, 64008, Note_on_c, 12, 55, 0
13, 64020, Note_on_c, 12, 56, 88
13, 64068, Note_on_c, 12, 56, 0
13, 64080, Note_on_c, 12, 55, 90
13, 64128, Note_on_c, 12, 55, 0
13, 64140, Note_on_c, 12, 56, 91
13, 64188, Note_on_c, 12, 56, 0
13, 64200, Note_on_c, 12, 55, 93
13, 64248, Note_on_c, 12, 55, 0
13, 64260, Note_on_c, 12, 56, 95
13, 64308, Note_on_c, 12, 56, 0
13, 64320, Note_on_c, 12, 55, 96
13, 64368, Note_on_c, 12, 55, 0
13, 64380, Note_on_c, 12, 56, 98
13, 64428, Note_on_c, 12, 56, 0
13, 64440, Note_on_c, 12, 55, 100
13, 64488, Note_on_c, 12, 55, 0
13, 64500, Note_on_c, 12, 56, 101
13, 64548, Note_on_c, 12, 56, 0
13, 64560, Note_on_c, 12, 55, 103
13, 64608, Note_on_c, 12, 55, 0
13, 64620, Note_on_c, 12, 56, 105
13, 64668, Note_on_c, 12, 56, 0
13, 64680, Note_on_c, 12, 55, 106
13, 64776, Note_on_c, 12, 55, 0
13, 66300, Note_on_c, 12, 58, 50
13, 66360, Note_on_c, 12, 58, 0
13, 66360, Note_on_c, 12, 60, 50
13, 66420, Note_on_c, 12, 60, 0
13, 66420, Note_on_c, 12, 58, 50
13, 66480, Note_on_c, 12, 58, 0
13, 66480, Note_on_c, 12, 56, 50
13, 66540, Note_on_c, 12, 56, 0
13, 66540, Note_on_c, 12, 55, 50
13, 66588, Note_on_c, 12, 55, 0
13, 66660, Note_on_c, 12, 58, 50
13, 66720, Note_on_c, 12, 58, 0
13, 66720, Note_on_c, 12, 60, 50
13, 66780, Note_on_c, 12, 60, 0
13, 66780, Note_on_c, 12, 58, 50
13, 66840, Note_on_c, 12, 58, 0
13, 66840, Note_on_c, 12, 56, 50
13, 66900, Note_on_c, 12, 56, 0
13, 66900, Note_on_c, 12, 55, 50
13, 66948, Note_on_c, 12, 55, 0
13, 67020, Note_on_c, 12, 58, 50
13, 67080, Note_on_c, 12, 58, 0
13, 67080, Note_on_c, 12, 60, 50
13, 67140, Note_on_c, 12, 60, 0
13, 67140, Note_on_c, 12, 58, 50
13, 67200, Note_on_c, 12, 58, 0
13, 67200, Note_on_c, 12, 56, 50
13, 67260, Note_on_c, 12, 56, 0
13, 67260, Note_on_c, 12, 55, 50
13, 67308, Note_on_c, 12, 55, 0
13, 67320, Note_on_c, 12, 60, 50
13, 67380, Note_on_c, 12, 60, 0
13, 67380, Note_on_c, 12, 58, 50
13, 67440, Note_on_c, 12, 58, 0
13, 67440, Note_on_c, 12, 56, 50
13, 67500, Note_on_c, 12, 56, 0
13, 67500, Note_on_c, 12, 55, 50
13, 67560, Note_on_c, 12, 55, 0
13, 67560, Note_on_c, 12, 60, 50
13, 67620, Note_on_c, 12, 60, 0
13, 67620, Note_on_c, 12, 58, 52
13, 67668, Note_on_c, 12, 58, 0
13, 67680, Note_on_c, 12, 56, 55
13, 67740, Note_on_c, 12, 56, 0
13, 67740, Note_on_c, 12, 55, 57
13, 67800, Note_on_c, 12, 55, 0
13, 67800, Note_on_c, 12, 60, 60
13, 67860, Note_on_c, 12, 60, 0
13, 67860, Note_on_c, 12, 58, 62
13, 67920, Note_on_c, 12, 58, 0
13, 67920, Note_on_c, 12, 56, 65
13, 67980, Note_on_c, 12, 56, 0
13, 67980, Note_on_c, 12, 55, 67
13, 68028, Note_on_c, 12, 55, 0
13, 68040, Note_on_c, 12, 60, 70
13, 68100, Note_on_c, 12, 60, 0
13, 68100, Note_on_c, 12, 58, 72
13, 68160, Note_on_c, 12, 58, 0
13, 68160, Note_on_c, 12, 56, 75
13, 68220, Note_on_c, 12, 56, 0
13, 68220, Note_on_c, 12, 55, 77
13, 68268, Note_on_c, 12, 55, 0
13, 68280, Note_on_c, 12, 65, 80
13, 68328, Note_on_c, 12, 65, 0
13, 68340, Note_on_c, 12, 65, 80
13, 68388, Note_on_c, 12, 65, 0
13, 68400, Note_on_c, 12, 65, 56
13, 68448, Note_on_c, 12, 65, 0
13, 68460, Note_on_c, 12, 65, 56
13, 68508, Note_on_c, 12, 65, 0
13, 68520, Note_on_c, 12, 65, 56
13, 68568, Note_on_c, 12, 65, 0
13, 68580, Note_on_c, 12, 65, 56
13, 68628, Note_on_c, 12, 65, 0
13, 68640, Note_on_c, 12, 65, 56
13, 68688, Note_on_c, 12, 65, 0
13, 68700, Note_on_c, 12, 65, 56
13, 68748, Note_on_c, 12, 65, 0
13, 68760, Note_on_c, 12, 65, 56
13, 68808, Note_on_c, 12, 65, 0
13, 68820, Note_on_c, 12, 65, 56
13, 68868, Note_on_c, 12, 65, 0
13, 68880, Note_on_c, 12, 65, 56
13, 68928, Note_on_c, 12, 65, 0
13, 68940, Note_on_c, 12, 65, 56
13, 68988, Note_on_c, 12, 65, 0
13, 69000, Note_on_c, 12, 65, 56
13, 69048, Note_on_c, 12, 65, 0
13, 69060, Note_on_c, 12, 65, 56
13, 69108, Note_on_c, 12, 65, 0
13, 69120, Note_on_c, 12, 65, 56
13, 69168, Note_on_c, 12, 65, 0
13, 69180, Note_on_c, 12, 65, 56
13, 69228, Note_on_c, 12, 65, 0
13, 69240, Note_on_c, 12, 65, 56
13, 69288, Note_on_c, 12, 65, 0
13, 69300, Note_on_c, 12, 65, 56
13, 69348, Note_on_c, 12, 65, 0
13, 69360, Note_on_c, 12, 65, 56
13, 69408, Note_on_c, 12, 65, 0
13, 69420, Note_on_c, 12, 65, 56
13, 69468, Note_on_c, 12, 65, 0
13, 69480, Note_on_c, 12, 67, 56
13, 69528, Note_on_c, 12, 67, 0
13, 69540, Note_on_c, 12, 67, 56
13, 69588, Note_on_c, 12, 67, 0
13, 69600, Note_on_c, 12, 67, 56
13, 69648, Note_on_c, 12, 67, 0
13, 69660, Note_on_c, 12, 67, 56
13, 69708, Note_on_c, 12, 67, 0
13, 69720, Note_on_c, 12, 64, 96
13, 69768, Note_on_c, 12, 64, 0
13, 69780, Note_on_c, 12, 64, 96
13, 69828, Note_on_c, 12, 64, 0
13, 69840, Note_on_c, 12, 64, 56
13, 69888, Note_on_c, 12, 64, 0
13, 69900, Note_on_c, 12, 64, 56
13, 69948, Note_on_c, 12, 64, 0
13, 69960, Note_on_c, 12, 64, 56
13, 70008, Note_on_c, 12, 64, 0
13, 70020, Note_on_c, 12, 64, 56
13, 70068, Note_on_c, 12, 64, 0
13, 70080, Note_on_c, 12, 64, 56
13, 70128, Note_on_c, 12, 64, 0
13, 70140, Note_on_c, 12, 64, 56
13, 70188, Note_on_c, 12, 64, 0
13, 70200, Note_on_c, 12, 64, 56
13, 70248, Note_on_c, 12, 64, 0
13, 70260, Note_on_c, 12, 64, 56
13, 70308, Note_on_c, 12, 64, 0
13, 70320, Note_on_c, 12, 64, 56
13, 70368, Note_on_c, 12, 64, 0
13, 70380, Note_on_c, 12, 64, 56
13, 70428, Note_on_c, 12, 64, 0
13, 70440, Note_on_c, 12, 64, 56
13, 70488, Note_on_c, 12, 64, 0
13, 70500, Note_on_c, 12, 64, 56
13, 70548, Note_on_c, 12, 64, 0
13, 70560, Note_on_c, 12, 64, 56
13, 70608, Note_on_c, 12, 64, 0
13, 70620, Note_on_c, 12, 64, 56
13, 70668, Note_on_c, 12, 64, 0
13, 70680, Note_on_c, 12, 64, 56
13, 70728, Note_on_c, 12, 64, 0
13, 70740, Note_on_c, 12, 64, 56
13, 70788, Note_on_c, 12, 64, 0
13, 70800, Note_on_c, 12, 64, 56
13, 70848, Note_on_c, 12, 64, 0
13, 70860, Note_on_c, 12, 64, 56
13, 70908, Note_on_c, 12, 64, 0
13, 70920, Note_on_c, 12, 64, 56
13, 70968, Note_on_c, 12, 64, 0
13, 70980, Note_on_c, 12, 64, 56
13, 71028, Note_on_c, 12, 64, 0
13, 71040, Note_on_c, 12, 65, 56
13, 71088, Note_on_c, 12, 65, 0
13, 71100, Note_on_c, 12, 65, 56
13, 71148, Note_on_c, 12, 65, 0
13, 71160, Note_on_c, 12, 53, 56
13, 71424, Note_on_c, 12, 53, 0
13, 71460, Note_on_c, 12, 53, 56
13, 71508, Note_on_c, 12, 53, 0
13, 71520, Note_on_c, 12, 53, 56
13, 71568, Note_on_c, 12, 53, 0
13, 71580, Note_on_c, 12, 55, 56
13, 71628, Note_on_c, 12, 55, 0
13, 71640, Note_on_c, 12, 56, 56
13, 71736, Note_on_c, 12, 56, 0
13, 71760, Note_on_c, 12, 53, 56
13, 71856, Note_on_c, 12, 53, 0
13, 71880, Note_on_c, 12, 53, 56
13, 72456, Note_on_c, 12, 53, 0
13, 72600, Note_on_c, 12, 53, 56
13, 72864, Note_on_c, 12, 53, 0
13, 72900, Note_on_c, 12, 53, 56
13, 72948, Note_on_c, 12, 53, 0
13, 72960, Note_on_c, 12, 53, 56
13, 73008, Note_on_c, 12, 53, 0
13, 73020, Note_on_c, 12, 55, 56
13, 73068, Note_on_c, 12, 55, 0
13, 73080, Note_on_c, 12, 56, 56
13, 73176, Note_on_c, 12, 56, 0
13, 73260, Note_on_c, 12, 65, 56
13, 73308, Note_on_c, 12, 65, 0
13, 73320, Note_on_c, 12, 65, 56
13, 73368, Note_on_c, 12, 65, 0
13, 73380, Note_on_c, 12, 60, 56
13, 73428, Note_on_c, 12, 60, 0
13, 73440, Note_on_c, 12, 60, 50
13, 73536, Note_on_c, 12, 60, 0
13, 73620, Note_on_c, 12, 64, 52
13, 73668, Note_on_c, 12, 64, 0
13, 73680, Note_on_c, 12, 64, 53
13, 73728, Note_on_c, 12, 64, 0
13, 73740, Note_on_c, 12, 65, 54
13, 73788, Note_on_c, 12, 65, 0
13, 73800, Note_on_c, 12, 65, 54
13, 73848, Note_on_c, 12, 65, 0
13, 73860, Note_on_c, 12, 60, 55
13, 73908, Note_on_c, 12, 60, 0
13, 73920, Note_on_c, 12, 60, 56
13, 74112, Note_on_c, 12, 60, 0
13, 74160, Note_on_c, 12, 60, 59
13, 74208, Note_on_c, 12, 60, 0
13, 74220, Note_on_c, 12, 60, 60
13, 74268, Note_on_c, 12, 60, 0
13, 74280, Note_on_c, 12, 60, 61
13, 74472, Note_on_c, 12, 60, 0
13, 74520, Note_on_c, 12, 60, 64
13, 74568, Note_on_c, 12, 60, 0
13, 74580, Note_on_c, 12, 60, 65
13, 74628, Note_on_c, 12, 60, 0
13, 74640, Note_on_c, 12, 60, 66
13, 74832, Note_on_c, 12, 60, 0
13, 74880, Note_on_c, 12, 48, 69
13, 74880, Note_on_c, 12, 58, 69
13, 76248, Note_on_c, 12, 58, 0
13, 76248, Note_on_c, 12, 48, 0
13, 76320, Note_on_c, 12, 48, 89
13, 76320, Note_on_c, 12, 58, 89
13, 77688, Note_on_c, 12, 58, 0
13, 77688, Note_on_c, 12, 48, 0
13, 77760, Note_on_c, 12, 58, 109
13, 77760, Note_on_c, 12, 48, 109
13, 78953, Note_on_c, 12, 48, 0
13, 78953, Note_on_c, 12, 58, 0
13, 79080, Note_on_c, 12, 48, 127
13, 79140, Note_on_c, 12, 48, 0
13, 79140, Note_on_c, 12, 49, 127
13, 79200, Note_on_c, 12, 49, 0
13, 79200, Note_on_c, 12, 48, 127
13, 79260, Note_on_c, 12, 48, 0
13, 79260, Note_on_c, 12, 49, 127
13, 79320, Note_on_c, 12, 49, 0
13, 79320, Note_on_c, 12, 48, 127
13, 79380, Note_on_c, 12, 48, 0
13, 79380, Note_on_c, 12, 49, 127
13, 79440, Note_on_c, 12, 49, 0
13, 79440, Note_on_c, 12, 48, 127
13, 79500, Note_on_c, 12, 48, 0
13, 79500, Note_on_c, 12, 49, 127
13, 79560, Note_on_c, 12, 49, 0
13, 79560, Note_on_c, 12, 48, 127
13, 79620, Note_on_c, 12, 48, 0
13, 79620, Note_on_c, 12, 49, 127
13, 79680, Note_on_c, 12, 49, 0
13, 79680, Note_on_c, 12, 48, 127
13, 79740, Note_on_c, 12, 48, 0
13, 79740, Note_on_c, 12, 49, 127
13, 79800, Note_on_c, 12, 49, 0
13, 79800, Note_on_c, 12, 48, 127
13, 79860, Note_on_c, 12, 48, 0
13, 79860, Note_on_c, 12, 49, 127
13, 79920, Note_on_c, 12, 49, 0
13, 79920, Note_on_c, 12, 48, 127
13, 79980, Note_on_c, 12, 48, 0
13, 79980, Note_on_c, 12, 49, 127
13, 80040, Note_on_c, 12, 49, 0
13, 80040, Note_on_c, 12, 48, 127
13, 80100, Note_on_c, 12, 48, 0
13, 80100, Note_on_c, 12, 49, 127
13, 80160, Note_on_c, 12, 49, 0
13, 80160, Note_on_c, 12, 48, 127
13, 80220, Note_on_c, 12, 48, 0
13, 80220, Note_on_c, 12, 49, 127
13, 80280, Note_on_c, 12, 49, 0
13, 80280, Note_on_c, 12, 48, 127
13, 80340, Note_on_c, 12, 48, 0
13, 80340, Note_on_c, 12, 49, 127
13, 80400, Note_on_c, 12, 49, 0
13, 80400, Note_on_c, 12, 48, 127
13, 80460, Note_on_c, 12, 48, 0
13, 80460, Note_on_c, 12, 49, 127
13, 80520, Note_on_c, 12, 49, 0
13, 80520, Note_on_c, 12, 48, 127
13, 80580, Note_on_c, 12, 48, 0
13, 80580, Note_on_c, 12, 49, 127
13, 80640, Note_on_c, 12, 49, 0
13, 80640, Note_on_c, 12, 48, 127
13, 80700, Note_on_c, 12, 48, 0
13, 80700, Note_on_c, 12, 49, 127
13, 80760, Note_on_c, 12, 49, 0
13, 80760, Note_on_c, 12, 48, 127
13, 80820, Note_on_c, 12, 48, 0
13, 80820, Note_on_c, 12, 49, 127
13, 80880, Note_on_c, 12, 49, 0
13, 80880, Note_on_c, 12, 48, 127
13, 80940, Note_on_c, 12, 48, 0
13, 80940, Note_on_c, 12, 49, 127
13, 81000, Note_on_c, 12, 49, 0
13, 81000, Note_on_c, 12, 48, 127
13, 81060, Note_on_c, 12, 48, 0
13, 81060, Note_on_c, 12, 49, 127
13, 81120, Note_on_c, 12, 49, 0
13, 81120, Note_on_c, 12, 48, 127
13, 81180, Note_on_c, 12, 48, 0
13, 81180, Note_on_c, 12, 49, 127
13, 81240, Note_on_c, 12, 49, 0
13, 81240, Note_on_c, 12, 48, 127
13, 81300, Note_on_c, 12, 48, 0
13, 81300, Note_on_c, 12, 49, 127
13, 81360, Note_on_c, 12, 49, 0
13, 81360, Note_on_c, 12, 48, 127
13, 81420, Note_on_c, 12, 48, 0
13, 81420, Note_on_c, 12, 49, 127
13, 81480, Note_on_c, 12, 49, 0
13, 81480, Note_on_c, 12, 48, 127
13, 81540, Note_on_c, 12, 48, 0
13, 81540, Note_on_c, 12, 49, 127
13, 81600, Note_on_c, 12, 49, 0
13, 81600, Note_on_c, 12, 48, 127
13, 81696, Note_on_c, 12, 48, 0
13, 81720, Note_on_c, 12, 53, 127
13, 81816, Note_on_c, 12, 53, 0
13, 81960, Note_on_c, 12, 53, 127
13, 82224, Note_on_c, 12, 53, 0
13, 82260, Note_on_c, 12, 53, 127
13, 82308, Note_on_c, 12, 53, 0
13, 82320, Note_on_c, 12, 53, 127
13, 82368, Note_on_c, 12, 53, 0
13, 82380, Note_on_c, 12, 55, 127
13, 82428, Note_on_c, 12, 55, 0
13, 82440, Note_on_c, 12, 56, 127
13, 82536, Note_on_c, 12, 56, 0
13, 82560, Note_on_c, 12, 53, 127
13, 82656, Note_on_c, 12, 53, 0
13, 82680, Note_on_c, 12, 53, 127
13, 82944, Note_on_c, 12, 53, 0
13, 82980, Note_on_c, 12, 53, 127
13, 83028, Note_on_c, 12, 53, 0
13, 83040, Note_on_c, 12, 53, 127
13, 83088, Note_on_c, 12, 53, 0
13, 83100, Note_on_c, 12, 55, 127
13, 83148, Note_on_c, 12, 55, 0
13, 83160, Note_on_c, 12, 56, 127
13, 83256, Note_on_c, 12, 56, 0
13, 83280, Note_on_c, 12, 53, 127
13, 83376, Note_on_c, 12, 53, 0
13, 83400, Note_on_c, 12, 53, 127
13, 83664, Note_on_c, 12, 53, 0
13, 83700, Note_on_c, 12, 53, 127
13, 83748, Note_on_c, 12, 53, 0
13, 83760, Note_on_c, 12, 53, 127
13, 83808, Note_on_c, 12, 53, 0
13, 83820, Note_on_c, 12, 55, 127
13, 83868, Note_on_c, 12, 55, 0
13, 83880, Note_on_c, 12, 56, 127
13, 83976, Note_on_c, 12, 56, 0
13, 84000, Note_on_c, 12, 53, 127
13, 84096, Note_on_c, 12, 53, 0
13, 84240, Note_on_c, 12, 53, 127
13, 84336, Note_on_c, 12, 53, 0
13, 84420, Note_on_c, 12, 53, 127
13, 84468, Note_on_c, 12, 53, 0
13, 84480, Note_on_c, 12, 51, 127
13, 84528, Note_on_c, 12, 51, 0
13, 84540, Note_on_c, 12, 49, 127
13, 84588, Note_on_c, 12, 49, 0
13, 84600, Note_on_c, 12, 54, 127
13, 84696, Note_on_c, 12, 54, 0
13, 84780, Note_on_c, 12, 54, 127
13, 84828, Note_on_c, 12, 54, 0
13, 84840, Note_on_c, 12, 53, 127
13, 84888, Note_on_c, 12, 53, 0
13, 84900, Note_on_c, 12, 51, 127
13, 84948, Note_on_c, 12, 51, 0
13, 84960, Note_on_c, 12, 56, 127
13, 85056, Note_on_c, 12, 56, 0
13, 85140, Note_on_c, 12, 56, 127
13, 85188, Note_on_c, 12, 56, 0
13, 85200, Note_on_c, 12, 54, 127
13, 85248, Note_on_c, 12, 54, 0
13, 85260, Note_on_c, 12, 53, 127
13, 85308, Note_on_c, 12, 53, 0
13, 85320, Note_on_c, 12, 58, 127
13, 85416, Note_on_c, 12, 58, 0
13, 85440, Note_on_c, 12, 54, 127
13, 85536, Note_on_c, 12, 54, 0
13, 85560, Note_on_c, 12, 56, 127
13, 85656, Note_on_c, 12, 56, 0
13, 85680, Note_on_c, 12, 53, 127
13, 85776, Note_on_c, 12, 53, 0
13, 85860, Note_on_c, 12, 53, 102
13, 85908, Note_on_c, 12, 53, 0
13, 85920, Note_on_c, 12, 51, 103
13, 85968, Note_on_c, 12, 51, 0
13, 85980, Note_on_c, 12, 49, 104
13, 86028, Note_on_c, 12, 49, 0
13, 86040, Note_on_c, 12, 54, 105
13, 86136, Note_on_c, 12, 54, 0
13, 86220, Note_on_c, 12, 54, 109
13, 86268, Note_on_c, 12, 54, 0
13, 86280, Note_on_c, 12, 53, 110
13, 86328, Note_on_c, 12, 53, 0
13, 86340, Note_on_c, 12, 51, 111
13, 86388, Note_on_c, 12, 51, 0
13, 86400, Note_on_c, 12, 56, 112
13, 86496, Note_on_c, 12, 56, 0
13, 86580, Note_on_c, 12, 56, 116
13, 86628, Note_on_c, 12, 56, 0
13, 86640, Note_on_c, 12, 54, 117
13, 86688, Note_on_c, 12, 54, 0
13, 86700, Note_on_c, 12, 53, 118
13, 86748, Note_on_c, 12, 53, 0
13, 86760, Note_on_c, 12, 61, 119
13, 86856, Note_on_c, 12, 61, 0
13, 86880, Note_on_c, 12, 61, 122
13, 86976, Note_on_c, 12, 61, 0
13, 87000, Note_on_c, 12, 60, 124
13, 87096, Note_on_c, 12, 60, 0
13, 87120, Note_on_c, 12, 58, 127
13, 87168, Note_on_c, 12, 58, 0
13, 87180, Note_on_c, 12, 55, 102
13, 87228, Note_on_c, 12, 55, 0
13, 87240, Note_on_c, 12, 55, 104
13, 87288, Note_on_c, 12, 55, 0
13, 87300, Note_on_c, 12, 55, 106
13, 87348, Note_on_c, 12, 55, 0
13, 87360, Note_on_c, 12, 55, 109
13, 87408, Note_on_c, 12, 55, 0
13, 87420, Note_on_c, 12, 55, 111
13, 87468, Note_on_c, 12, 55, 0
13, 87480, Note_on_c, 12, 63, 113
13, 87528, Note_on_c, 12, 63, 0
13, 87540, Note_on_c, 12, 63, 115
13, 87588, Note_on_c, 12, 63, 0
13, 87600, Note_on_c, 12, 63, 118
13, 87648, Note_on_c, 12, 63, 0
13, 87660, Note_on_c, 12, 63, 120
13, 87708, Note_on_c, 12, 63, 0
13, 87720, Note_on_c, 12, 63, 122
13, 87768, Note_on_c, 12, 63, 0
13, 87780, Note_on_c, 12, 63, 124
13, 87828, Note_on_c, 12, 63, 0
13, 87840, Note_on_c, 12, 56, 127
13, 88080, Note_on_c, 12, 56, 0
13, 88080, Note_on_c, 12, 60, 124
13, 88140, Note_on_c, 12, 60, 0
13, 88140, Note_on_c, 12, 63, 123
13, 88188, Note_on_c, 12, 63, 0
13, 88200, Note_on_c, 12, 53, 122
13, 88440, Note_on_c, 12, 53, 0
13, 88440, Note_on_c, 12, 56, 119
13, 88500, Note_on_c, 12, 56, 0
13, 88500, Note_on_c, 12, 61, 118
13, 88548, Note_on_c, 12, 61, 0
13, 88560, Note_on_c, 12, 51, 117
13, 88800, Note_on_c, 12, 51, 0
13, 88800, Note_on_c, 12, 55, 114
13, 88860, Note_on_c, 12, 55, 0
13, 88860, Note_on_c, 12, 58, 113
13, 88908, Note_on_c, 12, 58, 0
13, 88920, Note_on_c, 12, 51, 112
13, 89160, Note_on_c, 12, 51, 0
13, 89160, Note_on_c, 12, 56, 109
13, 89220, Note_on_c, 12, 56, 0
13, 89220, Note_on_c, 12, 60, 108
13, 89268, Note_on_c, 12, 60, 0
13, 89280, Note_on_c, 12, 48, 107
13, 89520, Note_on_c, 12, 48, 0
13, 89520, Note_on_c, 12, 51, 104
13, 89580, Note_on_c, 12, 51, 0
13, 89580, Note_on_c, 12, 54, 103
13, 89628, Note_on_c, 12, 54, 0
13, 89640, Note_on_c, 12, 49, 102
13, 89880, Note_on_c, 12, 49, 0
13, 89880, Note_on_c, 12, 53, 99
13, 89940, Note_on_c, 12, 53, 0
13, 89940, Note_on_c, 12, 56, 98
13, 89988, Note_on_c, 12, 56, 0
13, 90000, Note_on_c, 12, 49, 97
13, 90240, Note_on_c, 12, 49, 0
13, 90240, Note_on_c, 12, 51, 94
13, 90300, Note_on_c, 12, 51, 0
13, 90300, Note_on_c, 12, 49, 93
13, 90348, Note_on_c, 12, 49, 0
13, 90360, Note_on_c, 12, 48, 92
13, 90456, Note_on_c, 12, 48, 0
13, 90720, Note_on_c, 12, 53, 112
13, 90816, Note_on_c, 12, 53, 0
13, 90840, Note_on_c, 12, 53, 112
13, 90936, Note_on_c, 12, 53, 0
13, 91020, Note_on_c, 12, 53, 112
13, 91068, Note_on_c, 12, 53, 0
13, 91080, Note_on_c, 12, 54, 112
13, 91176, Note_on_c, 12, 54, 0
13, 91200, Note_on_c, 12, 54, 112
13, 91296, Note_on_c, 12, 54, 0
13, 92160, Note_on_c, 12, 53, 112
13, 92256, Note_on_c, 12, 53, 0
13, 92280, Note_on_c, 12, 53, 112
13, 92376, Note_on_c, 12, 53, 0
13, 92460, Note_on_c, 12, 53, 112
13, 92508, Note_on_c, 12, 53, 0
13, 92520, Note_on_c, 12, 54, 112
13, 92616, Note_on_c, 12, 54, 0
13, 92640, Note_on_c, 12, 54, 112
13, 92736, Note_on_c, 12, 54, 0
13, 93600, Note_on_c, 12, 61, 112
13, 93696, Note_on_c, 12, 61, 0
13, 93720, Note_on_c, 12, 61, 112
13, 93816, Note_on_c, 12, 61, 0
13, 93900, Note_on_c, 12, 61, 112
13, 93948, Note_on_c, 12, 61, 0
13, 93960, Note_on_c, 12, 61, 112
13, 94056, Note_on_c, 12, 61, 0
13, 94080, Note_on_c, 12, 61, 112
13, 94176, Note_on_c, 12, 61, 0
13, 94320, Note_on_c, 12, 50, 50
13, 94320, Note_on_c, 12, 62, 50
13, 96408, Note_on_c, 12, 62, 0
13, 96408, Note_on_c, 12, 50, 0
13, 96480, Note_on_c, 12, 66, 67
13, 96512, Note_on_c, 12, 66, 0
13, 96520, Note_on_c, 12, 66, 67
13, 96552, Note_on_c, 12, 66, 0
13, 96560, Note_on_c, 12, 66, 67
13, 96592, Note_on_c, 12, 66, 0
13, 96600, Note_on_c, 12, 66, 68
13, 96632, Note_on_c, 12, 66, 0
13, 96640, Note_on_c, 12, 66, 68
13, 96672, Note_on_c, 12, 66, 0
13, 96680, Note_on_c, 12, 66, 68
13, 96712, Note_on_c, 12, 66, 0
13, 96720, Note_on_c, 12, 66, 69
13, 96752, Note_on_c, 12, 66, 0
13, 96760, Note_on_c, 12, 66, 69
13, 96792, Note_on_c, 12, 66, 0
13, 96800, Note_on_c, 12, 66, 69
13, 96832, Note_on_c, 12, 66, 0
13, 96840, Note_on_c, 12, 56, 100
13, 96840, Note_on_c, 12, 66, 100
13, 96872, Note_on_c, 12, 66, 0
13, 96872, Note_on_c, 12, 56, 0
13, 96880, Note_on_c, 12, 56, 103
13, 96880, Note_on_c, 12, 66, 103
13, 96912, Note_on_c, 12, 66, 0
13, 96912, Note_on_c, 12, 56, 0
13, 96920, Note_on_c, 12, 56, 106
13, 96920, Note_on_c, 12, 66, 106
13, 96952, Note_on_c, 12, 66, 0
13, 96952, Note_on_c, 12, 56, 0
13, 96960, Note_on_c, 12, 56, 109
13, 96960, Note_on_c, 12, 66, 109
13, 96992, Note_on_c, 12, 66, 0
13, 96992, Note_on_c, 12, 56, 0
13, 97000, Note_on_c, 12, 56, 112
13, 97000, Note_on_c, 12, 66, 112
13, 97032, Note_on_c, 12, 66, 0
13, 97032, Note_on_c, 12, 56, 0
13, 97040, Note_on_c, 12, 56, 115
13, 97040, Note_on_c, 12, 66, 115
13, 97072, Note_on_c, 12, 66, 0
13, 97072, Note_on_c, 12, 56, 0
13, 97080, Note_on_c, 12, 56, 118
13, 97080, Note_on_c, 12, 66, 118
13, 97112, Note_on_c, 12, 66, 0
13, 97112, Note_on_c, 12, 56, 0
13, 97120, Note_on_c, 12, 56, 121
13, 97120, Note_on_c, 12, 66, 121
13, 97152, Note_on_c, 12, 66, 0
13, 97152, Note_on_c, 12, 56, 0
13, 97160, Note_on_c, 12, 56, 124
13, 97160, Note_on_c, 12, 66, 124
13, 97192, Note_on_c, 12, 66, 0
13, 97192, Note_on_c, 12, 56, 0
13, 97200, Note_on_c, 12, 65, 127
13, 97232, Note_on_c, 12, 65, 0
13, 97240, Note_on_c, 12, 65, 127
13, 97272, Note_on_c, 12, 65, 0
13, 97280, Note_on_c, 12, 65, 127
13, 97312, Note_on_c, 12, 65, 0
13, 97320, Note_on_c, 12, 53, 127
13, 97352, Note_on_c, 12, 53, 0
13, 97360, Note_on_c, 12, 53, 127
13, 97392, Note_on_c, 12, 53, 0
13, 97400, Note_on_c, 12, 53, 127
13, 97432, Note_on_c, 12, 53, 0
13, 97440, Note_on_c, 12, 53, 127
13, 97472, Note_on_c, 12, 53, 0
13, 97480, Note_on_c, 12, 53, 127
13, 97512, Note_on_c, 12, 53, 0
13, 97520, Note_on_c, 12, 53, 127
13, 97552, Note_on_c, 12, 53, 0
13, 97560, Note_on_c, 12, 58, 127
13, 97592, Note_on_c, 12, 58, 0
13, 97600, Note_on_c, 12, 58, 127
13, 97632, Note_on_c, 12, 58, 0
13, 97640, Note_on_c, 12, 58, 127
13, 97672, Note_on_c, 12, 58, 0
13, 97680, Note_on_c, 12, 58, 127
13, 97712, Note_on_c, 12, 58, 0
13, 97720, Note_on_c, 12, 58, 127
13, 97752, Note_on_c, 12, 58, 0
13, 97760, Note_on_c, 12, 58, 127
13, 97792, Note_on_c, 12, 58, 0
13, 97800, Note_on_c, 12, 58, 127
13, 97832, Note_on_c, 12, 58, 0
13, 97840, Note_on_c, 12, 58, 127
13, 97872, Note_on_c, 12, 58, 0
13, 97880, Note_on_c, 12, 58, 127
13, 97912, Note_on_c, 12, 58, 0
13, 97920, Note_on_c, 12, 54, 127
13, 97952, Note_on_c, 12, 54, 0
13, 97960, Note_on_c, 12, 54, 127
13, 97992, Note_on_c, 12, 54, 0
13, 98000, Note_on_c, 12, 54, 127
13, 98032, Note_on_c, 12, 54, 0
13, 98040, Note_on_c, 12, 54, 127
13, 98072, Note_on_c, 12, 54, 0
13, 98080, Note_on_c, 12, 54, 127
13, 98112, Note_on_c, 12, 54, 0
13, 98120, Note_on_c, 12, 54, 127
13, 98152, Note_on_c, 12, 54, 0
13, 98160, Note_on_c, 12, 54, 127
13, 98192, Note_on_c, 12, 54, 0
13, 98200, Note_on_c, 12, 54, 127
13, 98232, Note_on_c, 12, 54, 0
13, 98240, Note_on_c, 12, 54, 127
13, 98272, Note_on_c, 12, 54, 0
13, 98280, Note_on_c, 12, 51, 127
13, 98280, Note_on_c, 12, 54, 127
13, 98312, Note_on_c, 12, 54, 0
13, 98312, Note_on_c, 12, 51, 0
13, 98320, Note_on_c, 12, 51, 127
13, 98320, Note_on_c, 12, 54, 127
13, 98352, Note_on_c, 12, 54, 0
13, 98352, Note_on_c, 12, 51, 0
13, 98360, Note_on_c, 12, 51, 127
13, 98360, Note_on_c, 12, 54, 127
13, 98392, Note_on_c, 12, 54, 0
13, 98392, Note_on_c, 12, 51, 0
13, 98400, Note_on_c, 12, 51, 127
13, 98400, Note_on_c, 12, 54, 127
13, 98432, Note_on_c, 12, 54, 0
13, 98432, Note_on_c, 12, 51, 0
13, 98440, Note_on_c, 12, 51, 127
13, 98440, Note_on_c, 12, 54, 127
13, 98472, Note_on_c, 12, 54, 0
13, 98472, Note_on_c, 12, 51, 0
13, 98480, Note_on_c, 12, 51, 127
13, 98480, Note_on_c, 12, 54, 127
13, 98512, Note_on_c, 12, 54, 0
13, 98512, Note_on_c, 12, 51, 0
13, 98520, Note_on_c, 12, 51, 127
13, 98520, Note_on_c, 12, 54, 127
13, 98552, Note_on_c, 12, 54, 0
13, 98552, Note_on_c, 12, 51, 0
13, 98560, Note_on_c, 12, 51, 127
13, 98560, Note_on_c, 12, 54, 127
13, 98592, Note_on_c, 12, 54, 0
13, 98592, Note_on_c, 12, 51, 0
13, 98600, Note_on_c, 12, 51, 127
13, 98600, Note_on_c, 12, 54, 127
13, 98632, Note_on_c, 12, 54, 0
13, 98632, Note_on_c, 12, 51, 0
13, 98640, Note_on_c, 12, 49, 127
13, 98640, Note_on_c, 12, 53, 127
13, 98688, Note_on_c, 12, 53, 0
13, 98688, Note_on_c, 12, 49, 0
13, 98700, Note_on_c, 12, 49, 127
13, 98700, Note_on_c, 12, 53, 127
13, 98700, Note_on_c, 12, 56, 127
13, 98748, Note_on_c, 12, 56, 0
13, 98748, Note_on_c, 12, 53, 0
13, 98748, Note_on_c, 12, 49, 0
13, 98760, Note_on_c, 12, 49, 127
13, 98760, Note_on_c, 12, 53, 127
13, 98760, Note_on_c, 12, 56, 127
13, 98808, Note_on_c, 12, 56, 0
13, 98808, Note_on_c, 12, 53, 0
13, 98808, Note_on_c, 12, 49, 0
13, 98820, Note_on_c, 12, 49, 127
13, 98820, Note_on_c, 12, 53, 127
13, 98820, Note_on_c, 12, 56, 127
13, 98868, Note_on_c, 12, 56, 0
13, 98868, Note_on_c, 12, 53, 0
13, 98868, Note_on_c, 12, 49, 0
13, 98880, Note_on_c, 12, 49, 127
13, 98880, Note_on_c, 12, 53, 127
13, 98880, Note_on_c, 12, 56, 127
13, 98928, Note_on_c, 12, 56, 0
13, 98928, Note_on_c, 12, 53, 0
13, 98928, Note_on_c, 12, 49, 0
13, 98940, Note_on_c, 12, 49, 127
13, 98940, Note_on_c, 12, 53, 127
13, 98940, Note_on_c, 12, 56, 127
13, 98988, Note_on_c, 12, 56, 0
13, 98988, Note_on_c, 12, 53, 0
13, 98988, Note_on_c, 12, 49, 0
13, 99000, Note_on_c, 12, 56, 127
13, 99000, Note_on_c, 12, 53, 127
13, 99000, Note_on_c, 12, 49, 127
13, 99048, Note_on_c, 12, 49, 0
13, 99048, Note_on_c, 12, 53, 0
13, 99048, Note_on_c, 12, 56, 0
13, 99060, Note_on_c, 12, 56, 127
13, 99060, Note_on_c, 12, 53, 127
13, 99060, Note_on_c, 12, 49, 127
13, 99108, Note_on_c, 12, 49, 0
13, 99108, Note_on_c, 12, 53, 0
13, 99108, Note_on_c, 12, 56, 0
13, 99120, Note_on_c, 12, 56, 127
13, 99120, Note_on_c, 12, 53, 127
13, 99120, Note_on_c, 12, 49, 127
13, 99168, Note_on_c, 12, 49, 0
13, 99168, Note_on_c, 12, 53, 0
13, 99168, Note_on_c, 12, 56, 0
13, 99180, Note_on_c, 12, 56, 127
13, 99180, Note_on_c, 12, 53, 127
13, 99180, Note_on_c, 12, 49, 127
13, 99228, Note_on_c, 12, 49, 0
13, 99228, Note_on_c, 12, 53, 0
13, 99228, Note_on_c, 12, 56, 0
13, 99240, Note_on_c, 12, 56, 127
13, 99240, Note_on_c, 12, 53, 127
13, 99240, Note_on_c, 12, 49, 127
13, 99288, Note_on_c, 12, 49, 0
13, 99288, Note_on_c, 12, 53, 0
13, 99288, Note_on_c, 12, 56, 0
13, 99300, Note_on_c, 12, 56, 127
13, 99300, Note_on_c, 12, 53, 127
13, 99300, Note_on_c, 12, 49, 127
13, 99348, Note_on_c, 12, 49, 0
13, 99348, Note_on_c, 12, 53, 0
13, 99348, Note_on_c, 12, 56, 0
13, 99360, Note_on_c, 12, 56, 127
13, 99360, Note_on_c, 12, 53, 127
13, 99360, Note_on_c, 12, 49, 127
13, 99408, Note_on_c, 12, 49, 0
13, 99408, Note_on_c, 12, 53, 0
13, 99408, Note_on_c, 12, 56, 0
13, 99420, Note_on_c, 12, 56, 127
13, 99420, Note_on_c, 12, 53, 127
13, 99420, Note_on_c, 12, 49, 127
13, 99468, Note_on_c, 12, 49, 0
13, 99468, Note_on_c, 12, 53, 0
13, 99468, Note_on_c, 12, 56, 0
13, 99480, Note_on_c, 12, 56, 127
13, 99480, Note_on_c, 12, 53, 127
13, 99480, Note_on_c, 12, 49, 127
13, 99528, Note_on_c, 12, 49, 0
13, 99528, Note_on_c, 12, 53, 0
13, 99528, Note_on_c, 12, 56, 0
13, 99540, Note_on_c, 12, 56, 127
13, 99540, Note_on_c, 12, 53, 127
13, 99540, Note_on_c, 12, 49, 127
13, 99588, Note_on_c, 12, 49, 0
13, 99588, Note_on_c, 12, 53, 0
13, 99588, Note_on_c, 12, 56, 0
13, 99600, Note_on_c, 12, 56, 127
13, 99600, Note_on_c, 12, 53, 127
13, 99600, Note_on_c, 12, 49, 127
13, 99648, Note_on_c, 12, 49, 0
13, 99648, Note_on_c, 12, 53, 0
13, 99648, Note_on_c, 12, 56, 0
13, 99660, Note_on_c, 12, 56, 127
13, 99660, Note_on_c, 12, 53, 127
13, 99660, Note_on_c, 12, 49, 127
13, 99708, Note_on_c, 12, 49, 0
13, 99708, Note_on_c, 12, 53, 0
13, 99708, Note_on_c, 12, 56, 0
13, 99720, Note_on_c, 12, 56, 127
13, 99720, Note_on_c, 12, 53, 127
13, 99720, Note_on_c, 12, 49, 127
13, 99768, Note_on_c, 12, 49, 0
13, 99768, Note_on_c, 12, 53, 0
13, 99768, Note_on_c, 12, 56, 0
13, 99780, Note_on_c, 12, 56, 127
13, 99780, Note_on_c, 12, 53, 127
13, 99780, Note_on_c, 12, 49, 127
13, 99828, Note_on_c, 12, 49, 0
13, 99828, Note_on_c, 12, 53, 0
13, 99828, Note_on_c, 12, 56, 0
13, 99840, Note_on_c, 12, 56, 127
13, 99840, Note_on_c, 12, 53, 127
13, 99840, Note_on_c, 12, 49, 127
13, 99888, Note_on_c, 12, 49, 0
13, 99888, Note_on_c, 12, 53, 0
13, 99888, Note_on_c, 12, 56, 0
13, 99900, Note_on_c, 12, 56, 127
13, 99900, Note_on_c, 12, 53, 127
13, 99900, Note_on_c, 12, 49, 127
13, 99948, Note_on_c, 12, 49, 0
13, 99948, Note_on_c, 12, 53, 0
13, 99948, Note_on_c, 12, 56, 0
13, 99960, Note_on_c, 12, 56, 127
13, 99960, Note_on_c, 12, 53, 127
13, 99960, Note_on_c, 12, 49, 127
13, 100008, Note_on_c, 12, 49, 0
13, 100008, Note_on_c, 12, 53, 0
13, 100008, Note_on_c, 12, 56, 0
13, 100020, Note_on_c, 12, 56, 127
13, 100020, Note_on_c, 12, 53, 127
13, 100020, Note_on_c, 12, 49, 127
13, 100068, Note_on_c, 12, 49, 0
13, 100068, Note_on_c, 12, 53, 0
13, 100068, Note_on_c, 12, 56, 0
13, 100080, Note_on_c, 12, 56, 127
13, 100080, Note_on_c, 12, 53, 127
13, 100080, Note_on_c, 12, 49, 127
13, 100128, Note_on_c, 12, 49, 0
13, 100128, Note_on_c, 12, 53, 0
13, 100128, Note_on_c, 12, 56, 0
13, 100140, Note_on_c, 12, 56, 127
13, 100140, Note_on_c, 12, 53, 127
13, 100140, Note_on_c, 12, 49, 127
13, 100188, Note_on_c, 12, 49, 0
13, 100188, Note_on_c, 12, 53, 0
13, 100188, Note_on_c, 12, 56, 0
13, 100200, Note_on_c, 12, 56, 127
13, 100200, Note_on_c, 12, 53, 127
13, 100200, Note_on_c, 12, 49, 127
13, 100248, Note_on_c, 12, 49, 0
13, 100248, Note_on_c, 12, 53, 0
13, 100248, Note_on_c, 12, 56, 0
13, 100260, Note_on_c, 12, 56, 127
13, 100260, Note_on_c, 12, 53, 127
13, 100260, Note_on_c, 12, 49, 127
13, 100308, Note_on_c, 12, 49, 0
13, 100308, Note_on_c, 12, 53, 0
13, 100308, Note_on_c, 12, 56, 0
13, 100320, Note_on_c, 12, 56, 127
13, 100320, Note_on_c, 12, 53, 127
13, 100320, Note_on_c, 12, 49, 127
13, 100368, Note_on_c, 12, 49, 0
13, 100368, Note_on_c, 12, 53, 0
13, 100368, Note_on_c, 12, 56, 0
13, 100380, Note_on_c, 12, 56, 127
13, 100380, Note_on_c, 12, 53, 127
13, 100380, Note_on_c, 12, 49, 127
13, 100428, Note_on_c, 12, 49, 0
13, 100428, Note_on_c, 12, 53, 0
13, 100428, Note_on_c, 12, 56, 0
13, 100440, Note_on_c, 12, 56, 127
13, 100440, Note_on_c, 12, 53, 127
13, 100440, Note_on_c, 12, 49, 127
13, 100488, Note_on_c, 12, 49, 0
13, 100488, Note_on_c, 12, 53, 0
13, 100488, Note_on_c, 12, 56, 0
13, 100500, Note_on_c, 12, 56, 127
13, 100500, Note_on_c, 12, 53, 127
13, 100500, Note_on_c, 12, 49, 127
13, 100548, Note_on_c, 12, 49, 0
13, 100548, Note_on_c, 12, 53, 0
13, 100548, Note_on_c, 12, 56, 0
13, 100560, Note_on_c, 12, 56, 127
13, 100560, Note_on_c, 12, 53, 127
13, 100560, Note_on_c, 12, 49, 127
13, 100608, Note_on_c, 12, 49, 0
13, 100608, Note_on_c, 12, 53, 0
13, 100608, Note_on_c, 12, 56, 0
13, 100620, Note_on_c, 12, 56, 127
13, 100620, Note_on_c, 12, 53, 127
13, 100620, Note_on_c, 12, 49, 127
13, 100668, Note_on_c, 12, 49, 0
13, 100668, Note_on_c, 12, 53, 0
13, 100668, Note_on_c, 12, 56, 0
13, 100680, Note_on_c, 12, 56, 127
13, 100680, Note_on_c, 12, 53, 127
13, 100680, Note_on_c, 12, 49, 127
13, 100728, Note_on_c, 12, 49, 0
13, 100728, Note_on_c, 12, 53, 0
13, 100728, Note_on_c, 12, 56, 0
13, 100740, Note_on_c, 12, 56, 127
13, 100740, Note_on_c, 12, 53, 127
13, 100740, Note_on_c, 12, 49, 127
13, 100788, Note_on_c, 12, 49, 0
13, 100788, Note_on_c, 12, 53, 0
13, 100788, Note_on_c, 12, 56, 0
13, 100800, Note_on_c, 12, 56, 127
13, 100800, Note_on_c, 12, 54, 127
13, 100800, Note_on_c, 12, 51, 127
13, 100848, Note_on_c, 12, 51, 0
13, 100848, Note_on_c, 12, 54, 0
13, 100848, Note_on_c, 12, 56, 0
13, 100860, Note_on_c, 12, 56, 127
13, 100860, Note_on_c, 12, 54, 127
13, 100860, Note_on_c, 12, 51, 127
13, 100908, Note_on_c, 12, 51, 0
13, 100908, Note_on_c, 12, 54, 0
13, 100908, Note_on_c, 12, 56, 0
13, 100920, Note_on_c, 12, 56, 127
13, 100920, Note_on_c, 12, 54, 127
13, 100920, Note_on_c, 12, 51, 127
13, 100968, Note_on_c, 12, 51, 0
13, 100968, Note_on_c, 12, 54, 0
13, 100968, Note_on_c, 12, 56, 0
13, 100980, Note_on_c, 12, 56, 127
13, 100980, Note_on_c, 12, 54, 127
13, 100980, Note_on_c, 12, 51, 127
13, 101028, Note_on_c, 12, 51, 0
13, 101028, Note_on_c, 12, 54, 0
13, 101028, Note_on_c, 12, 56, 0
13, 101040, Note_on_c, 12, 56, 127
13, 101040, Note_on_c, 12, 54, 127
13, 101040, Note_on_c, 12, 51, 127
13, 101088, Note_on_c, 12, 51, 0
13, 101088, Note_on_c, 12, 54, 0
13, 101088, Note_on_c, 12, 56, 0
13, 101100, Note_on_c, 12, 56, 127
13, 101100, Note_on_c, 12, 54, 127
13, 101100, Note_on_c, 12, 51, 127
13, 101148, Note_on_c, 12, 51, 0
13, 101148, Note_on_c, 12, 54, 0
13, 101148, Note_on_c, 12, 56, 0
13, 101160, Note_on_c, 12, 51, 127
13, 101160, Note_on_c, 12, 54, 127
13, 101160, Note_on_c, 12, 56, 127
13, 101208, Note_on_c, 12, 56, 0
13, 101208, Note_on_c, 12, 54, 0
13, 101208, Note_on_c, 12, 51, 0
13, 101220, Note_on_c, 12, 51, 127
13, 101220, Note_on_c, 12, 54, 127
13, 101220, Note_on_c, 12, 56, 127
13, 101268, Note_on_c, 12, 56, 0
13, 101268, Note_on_c, 12, 54, 0
13, 101268, Note_on_c, 12, 51, 0
13, 101280, Note_on_c, 12, 51, 127
13, 101280, Note_on_c, 12, 54, 127
13, 101280, Note_on_c, 12, 56, 127
13, 101328, Note_on_c, 12, 56, 0
13, 101328, Note_on_c, 12, 54, 0
13, 101328, Note_on_c, 12, 51, 0
13, 101340, Note_on_c, 12, 51, 127
13, 101340, Note_on_c, 12, 54, 127
13, 101340, Note_on_c, 12, 56, 127
13, 101388, Note_on_c, 12, 56, 0
13, 101388, Note_on_c, 12, 54, 0
13, 101388, Note_on_c, 12, 51, 0
13, 101400, Note_on_c, 12, 51, 127
13, 101400, Note_on_c, 12, 54, 127
13, 101400, Note_on_c, 12, 56, 127
13, 101448, Note_on_c, 12, 56, 0
13, 101448, Note_on_c, 12, 54, 0
13, 101448, Note_on_c, 12, 51, 0
13, 101460, Note_on_c, 12, 51, 127
13, 101460, Note_on_c, 12, 54, 127
13, 101460, Note_on_c, 12, 56, 127
13, 101508, Note_on_c, 12, 56, 0
13, 101508, Note_on_c, 12, 54, 0
13, 101508, Note_on_c, 12, 51, 0
13, 101520, Note_on_c, 12, 49, 127
13, 101520, Note_on_c, 12, 53, 127
13, 101520, Note_on_c, 12, 56, 127
13, 101568, Note_on_c, 12, 56, 0
13, 101568, Note_on_c, 12, 53, 0
13, 101568, Note_on_c, 12, 49, 0
13, 101580, Note_on_c, 12, 49, 127
13, 101580, Note_on_c, 12, 53, 127
13, 101580, Note_on_c, 12, 56, 127
13, 101628, Note_on_c, 12, 56, 0
13, 101628, Note_on_c, 12, 53, 0
13, 101628, Note_on_c, 12, 49, 0
13, 101640, Note_on_c, 12, 49, 127
13, 101640, Note_on_c, 12, 53, 127
13, 101640, Note_on_c, 12, 56, 127
13, 101688, Note_on_c, 12, 56, 0
13, 101688, Note_on_c, 12, 53, 0
13, 101688, Note_on_c, 12, 49, 0
13, 101700, Note_on_c, 12, 49, 127
13, 101700, Note_on_c, 12, 53, 127
13, 101700, Note_on_c, 12, 56, 127
13, 101748, Note_on_c, 12, 56, 0
13, 101748, Note_on_c, 12, 53, 0
13, 101748, Note_on_c, 12, 49, 0
13, 101760, Note_on_c, 12, 49, 127
13, 101760, Note_on_c, 12, 53, 127
13, 101760, Note_on_c, 12, 56, 127
13, 101808, Note_on_c, 12, 56, 0
13, 101808, Note_on_c, 12, 53, 0
13, 101808, Note_on_c, 12, 49, 0
13, 101820, Note_on_c, 12, 49, 127
13, 101820, Note_on_c, 12, 53, 127
13, 101820, Note_on_c, 12, 56, 127
13, 101868, Note_on_c, 12, 56, 0
13, 101868, Note_on_c, 12, 53, 0
13, 101868, Note_on_c, 12, 49, 0
13, 101880, Note_on_c, 12, 56, 127
13, 101880, Note_on_c, 12, 54, 127
13, 101880, Note_on_c, 12, 51, 127
13, 101928, Note_on_c, 12, 51, 0
13, 101928, Note_on_c, 12, 54, 0
13, 101928, Note_on_c, 12, 56, 0
13, 101940, Note_on_c, 12, 56, 127
13, 101940, Note_on_c, 12, 54, 127
13, 101940, Note_on_c, 12, 51, 127
13, 101988, Note_on_c, 12, 51, 0
13, 101988, Note_on_c, 12, 54, 0
13, 101988, Note_on_c, 12, 56, 0
13, 102000, Note_on_c, 12, 56, 127
13, 102000, Note_on_c, 12, 54, 127
13, 102000, Note_on_c, 12, 51, 127
13, 102048, Note_on_c, 12, 51, 0
13, 102048, Note_on_c, 12, 54, 0
13, 102048, Note_on_c, 12, 56, 0
13, 102060, Note_on_c, 12, 56, 127
13, 102060, Note_on_c, 12, 54, 127
13, 102060, Note_on_c, 12, 51, 127
13, 102108, Note_on_c, 12, 51, 0
13, 102108, Note_on_c, 12, 54, 0
13, 102108, Note_on_c, 12, 56, 0
13, 102120, Note_on_c, 12, 56, 127
13, 102120, Note_on_c, 12, 54, 127
13, 102120, Note_on_c, 12, 51, 127
13, 102168, Note_on_c, 12, 51, 0
13, 102168, Note_on_c, 12, 54, 0
13, 102168, Note_on_c, 12, 56, 0
13, 102180, Note_on_c, 12, 56, 127
13, 102180, Note_on_c, 12, 54, 127
13, 102180, Note_on_c, 12, 51, 127
13, 102228, Note_on_c, 12, 51, 0
13, 102228, Note_on_c, 12, 54, 0
13, 102228, Note_on_c, 12, 56, 0
13, 102240, Note_on_c, 12, 56, 127
13, 102240, Note_on_c, 12, 53, 127
13, 102240, Note_on_c, 12, 49, 127
13, 102288, Note_on_c, 12, 49, 0
13, 102288, Note_on_c, 12, 53, 0
13, 102288, Note_on_c, 12, 56, 0
13, 102300, Note_on_c, 12, 56, 127
13, 102300, Note_on_c, 12, 53, 127
13, 102300, Note_on_c, 12, 49, 127
13, 102348, Note_on_c, 12, 49, 0
13, 102348, Note_on_c, 12, 53, 0
13, 102348, Note_on_c, 12, 56, 0
13, 102360, Note_on_c, 12, 56, 127
13, 102360, Note_on_c, 12, 53, 127
13, 102360, Note_on_c, 12, 49, 127
13, 102408, Note_on_c, 12, 49, 0
13, 102408, Note_on_c, 12, 53, 0
13, 102408, Note_on_c, 12, 56, 0
13, 102420, Note_on_c, 12, 56, 127
13, 102420, Note_on_c, 12, 53, 127
13, 102420, Note_on_c, 12, 49, 127
13, 102468, Note_on_c, 12, 49, 0
13, 102468, Note_on_c, 12, 53, 0
13, 102468, Note_on_c, 12, 56, 0
13, 102480, Note_on_c, 12, 56, 127
13, 102480, Note_on_c, 12, 53, 127
13, 102480, Note_on_c, 12, 49, 127
13, 102528, Note_on_c, 12, 49, 0
13, 102528, Note_on_c, 12, 53, 0
13, 102528, Note_on_c, 12, 56, 0
13, 102540, Note_on_c, 12, 56, 127
13, 102540, Note_on_c, 12, 53, 127
13, 102540, Note_on_c, 12, 49, 127
13, 102588, Note_on_c, 12, 49, 0
13, 102588, Note_on_c, 12, 53, 0
13, 102588, Note_on_c, 12, 56, 0
13, 102600, Note_on_c, 12, 51, 127
13, 102600, Note_on_c, 12, 54, 127
13, 102600, Note_on_c, 12, 56, 127
13, 102648, Note_on_c, 12, 56, 0
13, 102648, Note_on_c, 12, 54, 0
13, 102648, Note_on_c, 12, 51, 0
13, 102660, Note_on_c, 12, 51, 127
13, 102660, Note_on_c, 12, 54, 127
13, 102660, Note_on_c, 12, 56, 127
13, 102708, Note_on_c, 12, 56, 0
13, 102708, Note_on_c, 12, 54, 0
13, 102708, Note_on_c, 12, 51, 0
13, 102720, Note_on_c, 12, 51, 127
13, 102720, Note_on_c, 12, 54, 127
13, 102720, Note_on_c, 12, 56, 127
13, 102768, Note_on_c, 12, 56, 0
13, 102768, Note_on_c, 12, 54, 0
13, 102768, Note_on_c, 12, 51, 0
13, 102780, Note_on_c, 12, 51, 127
13, 102780, Note_on_c, 12, 54, 127
13, 102780, Note_on_c, 12, 56, 127
13, 102828, Note_on_c, 12, 56, 0
13, 102828, Note_on_c, 12, 54, 0
13, 102828, Note_on_c, 12, 51, 0
13, 102840, Note_on_c, 12, 51, 127
13, 102840, Note_on_c, 12, 54, 127
13, 102840, Note_on_c, 12, 56, 127
13, 102888, Note_on_c, 12, 56, 0
13, 102888, Note_on_c, 12, 54, 0
13, 102888, Note_on_c, 12, 51, 0
13, 102900, Note_on_c, 12, 51, 127
13, 102900, Note_on_c, 12, 54, 127
13, 102900, Note_on_c, 12, 56, 127
13, 102948, Note_on_c, 12, 56, 0
13, 102948, Note_on_c, 12, 54, 0
13, 102948, Note_on_c, 12, 51, 0
13, 102960, Note_on_c, 12, 49, 127
13, 102960, Note_on_c, 12, 53, 127
13, 102960, Note_on_c, 12, 56, 127
13, 103056, Note_on_c, 12, 56, 0
13, 103056, Note_on_c, 12, 53, 0
13, 103056, Note_on_c, 12, 49, 0
13, 104400, Note_on_c, 12, 61, 50
13, 104496, Note_on_c, 12, 61, 0
13, 104520, Note_on_c, 12, 61, 50
13, 104616, Note_on_c, 12, 61, 0
13, 104760, Note_on_c, 12, 61, 50
13, 104856, Note_on_c, 12, 61, 0
13, 104880, Note_on_c, 12, 61, 50
13, 104976, Note_on_c, 12, 61, 0
13, 105120, Note_on_c, 12, 63, 50
13, 105216, Note_on_c, 12, 63, 0
13, 105240, Note_on_c, 12, 63, 50
13, 105336, Note_on_c, 12, 63, 0
13, 105480, Note_on_c, 12, 60, 50
13, 105576, Note_on_c, 12, 60, 0
13, 105600, Note_on_c, 12, 60, 50
13, 105696, Note_on_c, 12, 60, 0
13, 107280, Note_on_c, 12, 58, 50
13, 107376, Note_on_c, 12, 58, 0
13, 107400, Note_on_c, 12, 58, 50
13, 107496, Note_on_c, 12, 58, 0
13, 107640, Note_on_c, 12, 58, 50
13, 107736, Note_on_c, 12, 58, 0
13, 107760, Note_on_c, 12, 58, 50
13, 107856, Note_on_c, 12, 58, 0
13, 108000, Note_on_c, 12, 58, 50
13, 108096, Note_on_c, 12, 58, 0
13, 108120, Note_on_c, 12, 58, 50
13, 108216, Note_on_c, 12, 58, 0
13, 108360, Note_on_c, 12, 55, 50
13, 108456, Note_on_c, 12, 55, 0
13, 108480, Note_on_c, 12, 55, 50
13, 108576, Note_on_c, 12, 55, 0
13, 108720, Note_on_c, 12, 53, 127
13, 108720, Note_on_c, 12, 56, 127
13, 108816, Note_on_c, 12, 56, 0
13, 108816, Note_on_c, 12, 53, 0
13, 108840, Note_on_c, 12, 53, 127
13, 108840, Note_on_c, 12, 56, 127
13, 108936, Note_on_c, 12, 56, 0
13, 108936, Note_on_c, 12, 53, 0
13, 109020, Note_on_c, 12, 53, 127
13, 109020, Note_on_c, 12, 56, 127
13, 109068, Note_on_c, 12, 56, 0
13, 109068, Note_on_c, 12, 53, 0
13, 109080, Note_on_c, 12, 56, 127
13, 109080, Note_on_c, 12, 53, 127
13, 109176, Note_on_c, 12, 53, 0
13, 109176, Note_on_c, 12, 56, 0
13, 109200, Note_on_c, 12, 56, 127
13, 109200, Note_on_c, 12, 53, 127
13, 109296, Note_on_c, 12, 53, 0
13, 109296, Note_on_c, 12, 56, 0
13, 109380, Note_on_c, 12, 56, 127
13, 109428, Note_on_c, 12, 56, 0
13, 109440, Note_on_c, 12, 55, 127
13, 109536, Note_on_c, 12, 55, 0
13, 109560, Note_on_c, 12, 55, 127
13, 109656, Note_on_c, 12, 55, 0
13, 113400, Note_on_c, 12, 64, 50
13, 113424, Note_on_c, 12, 64, 0
13, 113430, Note_on_c, 12, 64, 50
13, 113454, Note_on_c, 12, 64, 0
13, 113460, Note_on_c, 12, 64, 50
13, 113484, Note_on_c, 12, 64, 0
13, 113490, Note_on_c, 12, 64, 50
13, 113514, Note_on_c, 12, 64, 0
13, 113520, Note_on_c, 12, 64, 50
13, 113544, Note_on_c, 12, 64, 0
13, 113550, Note_on_c, 12, 64, 50
13, 113574, Note_on_c, 12, 64, 0
13, 113580, Note_on_c, 12, 64, 50
13, 113604, Note_on_c, 12, 64, 0
13, 113610, Note_on_c, 12, 64, 50
13, 113634, Note_on_c, 12, 64, 0
13, 113640, Note_on_c, 12, 64, 50
13, 113664, Note_on_c, 12, 64, 0
13, 113670, Note_on_c, 12, 64, 50
13, 113694, Note_on_c, 12, 64, 0
13, 113700, Note_on_c, 12, 64, 50
13, 113724, Note_on_c, 12, 64, 0
13, 113730, Note_on_c, 12, 64, 50
13, 113754, Note_on_c, 12, 64, 0
13, 113760, Note_on_c, 12, 64, 50
13, 113784, Note_on_c, 12, 64, 0
13, 113790, Note_on_c, 12, 64, 50
13, 113814, Note_on_c, 12, 64, 0
13, 113820, Note_on_c, 12, 64, 50
13, 113844, Note_on_c, 12, 64, 0
13, 113850, Note_on_c, 12, 64, 50
13, 113874, Note_on_c, 12, 64, 0
13, 113880, Note_on_c, 12, 64, 50
13, 113904, Note_on_c, 12, 64, 0
13, 113910, Note_on_c, 12, 64, 50
13, 113934, Note_on_c, 12, 64, 0
13, 113940, Note_on_c, 12, 64, 50
13, 113964, Note_on_c, 12, 64, 0
13, 113970, Note_on_c, 12, 64, 50
13, 113994, Note_on_c, 12, 64, 0
13, 114000, Note_on_c, 12, 64, 50
13, 114024, Note_on_c, 12, 64, 0
13, 114030, Note_on_c, 12, 64, 50
13, 114054, Note_on_c, 12, 64, 0
13, 114060, Note_on_c, 12, 64, 50
13, 114084, Note_on_c, 12, 64, 0
13, 114090, Note_on_c, 12, 64, 50
13, 114114, Note_on_c, 12, 64, 0
13, 114120, Note_on_c, 12, 64, 50
13, 114144, Note_on_c, 12, 64, 0
13, 114150, Note_on_c, 12, 64, 50
13, 114174, Note_on_c, 12, 64, 0
13, 114180, Note_on_c, 12, 64, 50
13, 114204, Note_on_c, 12, 64, 0
13, 114210, Note_on_c, 12, 64, 50
13, 114234, Note_on_c, 12, 64, 0
13, 114240, Note_on_c, 12, 64, 50
13, 114264, Note_on_c, 12, 64, 0
13, 114270, Note_on_c, 12, 64, 50
13, 114294, Note_on_c, 12, 64, 0
13, 114300, Note_on_c, 12, 64, 50
13, 114324, Note_on_c, 12, 64, 0
13, 114330, Note_on_c, 12, 64, 50
13, 114354, Note_on_c, 12, 64, 0
13, 114360, Note_on_c, 12, 68, 50
13, 114384, Note_on_c, 12, 68, 0
13, 114390, Note_on_c, 12, 68, 50
13, 114414, Note_on_c, 12, 68, 0
13, 114420, Note_on_c, 12, 68, 50
13, 114444, Note_on_c, 12, 68, 0
13, 114450, Note_on_c, 12, 68, 50
13, 114474, Note_on_c, 12, 68, 0
13, 114480, Note_on_c, 12, 68, 50
13, 114504, Note_on_c, 12, 68, 0
13, 114510, Note_on_c, 12, 68, 50
13, 114534, Note_on_c, 12, 68, 0
13, 114540, Note_on_c, 12, 68, 50
13, 114564, Note_on_c, 12, 68, 0
13, 114570, Note_on_c, 12, 68, 50
13, 114594, Note_on_c, 12, 68, 0
13, 114600, Note_on_c, 12, 68, 50
13, 114624, Note_on_c, 12, 68, 0
13, 114630, Note_on_c, 12, 68, 50
13, 114654, Note_on_c, 12, 68, 0
13, 114660, Note_on_c, 12, 68, 50
13, 114684, Note_on_c, 12, 68, 0
13, 114690, Note_on_c, 12, 68, 50
13, 114714, Note_on_c, 12, 68, 0
13, 114720, Note_on_c, 12, 68, 50
13, 114744, Note_on_c, 12, 68, 0
13, 114750, Note_on_c, 12, 68, 50
13, 114774, Note_on_c, 12, 68, 0
13, 114780, Note_on_c, 12, 68, 50
13, 114804, Note_on_c, 12, 68, 0
13, 114810, Note_on_c, 12, 68, 50
13, 114834, Note_on_c, 12, 68, 0
13, 114840, Note_on_c, 12, 68, 50
13, 114864, Note_on_c, 12, 68, 0
13, 114870, Note_on_c, 12, 68, 50
13, 114894, Note_on_c, 12, 68, 0
13, 114900, Note_on_c, 12, 68, 50
13, 114924, Note_on_c, 12, 68, 0
13, 114930, Note_on_c, 12, 68, 50
13, 114954, Note_on_c, 12, 68, 0
13, 114960, Note_on_c, 12, 68, 50
13, 114984, Note_on_c, 12, 68, 0
13, 114990, Note_on_c, 12, 68, 50
13, 115014, Note_on_c, 12, 68, 0
13, 115020, Note_on_c, 12, 68, 50
13, 115044, Note_on_c, 12, 68, 0
13, 115050, Note_on_c, 12, 68, 50
13, 115074, Note_on_c, 12, 68, 0
13, 115080, Note_on_c, 12, 68, 50
13, 115104, Note_on_c, 12, 68, 0
13, 115110, Note_on_c, 12, 68, 51
13, 115134, Note_on_c, 12, 68, 0
13, 115140, Note_on_c, 12, 68, 52
13, 115164, Note_on_c, 12, 68, 0
13, 115170, Note_on_c, 12, 68, 53
13, 115194, Note_on_c, 12, 68, 0
13, 115200, Note_on_c, 12, 68, 54
13, 115224, Note_on_c, 12, 68, 0
13, 115230, Note_on_c, 12, 68, 55
13, 115254, Note_on_c, 12, 68, 0
13, 115260, Note_on_c, 12, 68, 56
13, 115284, Note_on_c, 12, 68, 0
13, 115290, Note_on_c, 12, 68, 57
13, 115314, Note_on_c, 12, 68, 0
13, 115320, Note_on_c, 12, 67, 58
13, 115344, Note_on_c, 12, 67, 0
13, 115350, Note_on_c, 12, 67, 59
13, 115374, Note_on_c, 12, 67, 0
13, 115380, Note_on_c, 12, 67, 60
13, 115404, Note_on_c, 12, 67, 0
13, 115410, Note_on_c, 12, 67, 61
13, 115434, Note_on_c, 12, 67, 0
13, 115440, Note_on_c, 12, 64, 62
13, 115464, Note_on_c, 12, 64, 0
13, 115470, Note_on_c, 12, 64, 64
13, 115494, Note_on_c, 12, 64, 0
13, 115500, Note_on_c, 12, 64, 65
13, 115524, Note_on_c, 12, 64, 0
13, 115530, Note_on_c, 12, 64, 66
13, 115554, Note_on_c, 12, 64, 0
13, 115560, Note_on_c, 12, 67, 67
13, 115584, Note_on_c, 12, 67, 0
13, 115590, Note_on_c, 12, 67, 68
13, 115614, Note_on_c, 12, 67, 0
13, 115620, Note_on_c, 12, 67, 69
13, 115644, Note_on_c, 12, 67, 0
13, 115650, Note_on_c, 12, 67, 70
13, 115674, Note_on_c, 12, 67, 0
13, 115680, Note_on_c, 12, 64, 71
13, 115704, Note_on_c, 12, 64, 0
13, 115710, Note_on_c, 12, 64, 72
13, 115734, Note_on_c, 12, 64, 0
13, 115740, Note_on_c, 12, 64, 73
13, 115764, Note_on_c, 12, 64, 0
13, 115770, Note_on_c, 12, 64, 74
13, 115794, Note_on_c, 12, 64, 0
13, 115800, Note_on_c, 12, 69, 75
13, 115824, Note_on_c, 12, 69, 0
13, 115830, Note_on_c, 12, 69, 76
13, 115854, Note_on_c, 12, 69, 0
13, 115860, Note_on_c, 12, 69, 78
13, 115884, Note_on_c, 12, 69, 0
13, 115890, Note_on_c, 12, 69, 79
13, 115914, Note_on_c, 12, 69, 0
13, 115920, Note_on_c, 12, 65, 80
13, 115944, Note_on_c, 12, 65, 0
13, 115950, Note_on_c, 12, 65, 81
13, 115974, Note_on_c, 12, 65, 0
13, 115980, Note_on_c, 12, 65, 82
13, 116004, Note_on_c, 12, 65, 0
13, 116010, Note_on_c, 12, 65, 83
13, 116034, Note_on_c, 12, 65, 0
13, 116040, Note_on_c, 12, 69, 84
13, 116064, Note_on_c, 12, 69, 0
13, 116070, Note_on_c, 12, 69, 85
13, 116094, Note_on_c, 12, 69, 0
13, 116100, Note_on_c, 12, 69, 86
13, 116124, Note_on_c, 12, 69, 0
13, 116130, Note_on_c, 12, 69, 87
13, 116154, Note_on_c, 12, 69, 0
13, 116160, Note_on_c, 12, 65, 88
13, 116184, Note_on_c, 12, 65, 0
13, 116190, Note_on_c, 12, 65, 89
13, 116214, Note_on_c, 12, 65, 0
13, 116220, Note_on_c, 12, 65, 90
13, 116244, Note_on_c, 12, 65, 0
13, 116250, Note_on_c, 12, 65, 92
13, 116274, Note_on_c, 12, 65, 0
13, 116280, Note_on_c, 12, 60, 93
13, 116328, Note_on_c, 12, 60, 0
13, 116340, Note_on_c, 12, 59, 95
13, 116388, Note_on_c, 12, 59, 0
13, 116400, Note_on_c, 12, 60, 97
13, 116448, Note_on_c, 12, 60, 0
13, 116460, Note_on_c, 12, 60, 99
13, 116508, Note_on_c, 12, 60, 0
13, 116520, Note_on_c, 12, 60, 101
13, 116568, Note_on_c, 12, 60, 0
13, 116580, Note_on_c, 12, 59, 103
13, 116628, Note_on_c, 12, 59, 0
13, 116640, Note_on_c, 12, 60, 106
13, 116688, Note_on_c, 12, 60, 0
13, 116700, Note_on_c, 12, 60, 108
13, 116748, Note_on_c, 12, 60, 0
13, 116760, Note_on_c, 12, 67, 110
13, 116784, Note_on_c, 12, 67, 0
13, 116790, Note_on_c, 12, 72, 111
13, 116814, Note_on_c, 12, 72, 0
13, 116820, Note_on_c, 12, 72, 112
13, 116844, Note_on_c, 12, 72, 0
13, 116850, Note_on_c, 12, 72, 113
13, 116874, Note_on_c, 12, 72, 0
13, 116880, Note_on_c, 12, 72, 114
13, 116904, Note_on_c, 12, 72, 0
13, 116910, Note_on_c, 12, 72, 115
13, 116934, Note_on_c, 12, 72, 0
13, 116940, Note_on_c, 12, 72, 116
13, 116964, Note_on_c, 12, 72, 0
13, 116970, Note_on_c, 12, 72, 117
13, 116994, Note_on_c, 12, 72, 0
13, 117000, Note_on_c, 12, 72, 118
13, 117024, Note_on_c, 12, 72, 0
13, 117030, Note_on_c, 12, 72, 120
13, 117054, Note_on_c, 12, 72, 0
13, 117060, Note_on_c, 12, 72, 121
13, 117084, Note_on_c, 12, 72, 0
13, 117090, Note_on_c, 12, 72, 122
13, 117114, Note_on_c, 12, 72, 0
13, 117120, Note_on_c, 12, 72, 123
13, 117144, Note_on_c, 12, 72, 0
13, 117150, Note_on_c, 12, 72, 124
13, 117174, Note_on_c, 12, 72, 0
13, 117180, Note_on_c, 12, 72, 125
13, 117204, Note_on_c, 12, 72, 0
13, 117210, Note_on_c, 12, 72, 126
13, 117234, Note_on_c, 12, 72, 0
13, 117240, Note_on_c, 12, 72, 127
13, 117264, Note_on_c, 12, 72, 0
13, 117270, Note_on_c, 12, 72, 127
13, 117294, Note_on_c, 12, 72, 0
13, 117300, Note_on_c, 12, 72, 127
13, 117324, Note_on_c, 12, 72, 0
13, 117330, Note_on_c, 12, 72, 127
13, 117354, Note_on_c, 12, 72, 0
13, 117360, Note_on_c, 12, 72, 127
13, 117384, Note_on_c, 12, 72, 0
13, 117390, Note_on_c, 12, 72, 127
13, 117414, Note_on_c, 12, 72, 0
13, 117420, Note_on_c, 12, 72, 127
13, 117444, Note_on_c, 12, 72, 0
13, 117450, Note_on_c, 12, 72, 127
13, 117474, Note_on_c, 12, 72, 0
13, 117480, Note_on_c, 12, 72, 127
13, 117504, Note_on_c, 12, 72, 0
13, 117510, Note_on_c, 12, 72, 127
13, 117534, Note_on_c, 12, 72, 0
13, 117540, Note_on_c, 12, 72, 127
13, 117564, Note_on_c, 12, 72, 0
13, 117570, Note_on_c, 12, 72, 127
13, 117594, Note_on_c, 12, 72, 0
13, 117600, Note_on_c, 12, 72, 127
13, 117624, Note_on_c, 12, 72, 0
13, 117630, Note_on_c, 12, 72, 127
13, 117654, Note_on_c, 12, 72, 0
13, 117660, Note_on_c, 12, 72, 127
13, 117684, Note_on_c, 12, 72, 0
13, 117690, Note_on_c, 12, 72, 127
13, 117714, Note_on_c, 12, 72, 0
13, 117720, Note_on_c, 12, 72, 127
13, 117744, Note_on_c, 12, 72, 0
13, 117750, Note_on_c, 12, 72, 127
13, 117774, Note_on_c, 12, 72, 0
13, 117780, Note_on_c, 12, 72, 127
13, 117804, Note_on_c, 12, 72, 0
13, 117810, Note_on_c, 12, 72, 127
13, 117834, Note_on_c, 12, 72, 0
13, 117840, Note_on_c, 12, 72, 127
13, 117864, Note_on_c, 12, 72, 0
13, 117870, Note_on_c, 12, 72, 127
13, 117894, Note_on_c, 12, 72, 0
13, 117900, Note_on_c, 12, 72, 127
13, 117924, Note_on_c, 12, 72, 0
13, 117930, Note_on_c, 12, 72, 127
13, 117954, Note_on_c, 12, 72, 0
13, 117960, Note_on_c, 12, 72, 127
13, 117984, Note_on_c, 12, 72, 0
13, 117990, Note_on_c, 12, 72, 127
13, 118014, Note_on_c, 12, 72, 0
13, 118020, Note_on_c, 12, 72, 127
13, 118044, Note_on_c, 12, 72, 0
13, 118050, Note_on_c, 12, 72, 127
13, 118074, Note_on_c, 12, 72, 0
13, 118080, Note_on_c, 12, 72, 127
13, 118104, Note_on_c, 12, 72, 0
13, 118110, Note_on_c, 12, 72, 127
13, 118134, Note_on_c, 12, 72, 0
13, 118140, Note_on_c, 12, 72, 127
13, 118164, Note_on_c, 12, 72, 0
13, 118170, Note_on_c, 12, 72, 127
13, 118194, Note_on_c, 12, 72, 0
13, 118200, Note_on_c, 12, 72, 127
13, 118224, Note_on_c, 12, 72, 0
13, 118230, Note_on_c, 12, 72, 127
13, 118254, Note_on_c, 12, 72, 0
13, 118260, Note_on_c, 12, 72, 127
13, 118284, Note_on_c, 12, 72, 0
13, 118290, Note_on_c, 12, 72, 127
13, 118314, Note_on_c, 12, 72, 0
13, 118320, Note_on_c, 12, 72, 127
13, 118344, Note_on_c, 12, 72, 0
13, 118350, Note_on_c, 12, 72, 127
13, 118374, Note_on_c, 12, 72, 0
13, 118380, Note_on_c, 12, 72, 127
13, 118404, Note_on_c, 12, 72, 0
13, 118410, Note_on_c, 12, 72, 127
13, 118434, Note_on_c, 12, 72, 0
13, 118440, Note_on_c, 12, 72, 127
13, 118464, Note_on_c, 12, 72, 0
13, 118470, Note_on_c, 12, 72, 127
13, 118494, Note_on_c, 12, 72, 0
13, 118500, Note_on_c, 12, 72, 127
13, 118524, Note_on_c, 12, 72, 0
13, 118530, Note_on_c, 12, 72, 127
13, 118554, Note_on_c, 12, 72, 0
13, 118560, Note_on_c, 12, 72, 127
13, 118584, Note_on_c, 12, 72, 0
13, 118590, Note_on_c, 12, 72, 127
13, 118614, Note_on_c, 12, 72, 0
13, 118620, Note_on_c, 12, 72, 127
13, 118644, Note_on_c, 12, 72, 0
13, 118650, Note_on_c, 12, 72, 127
13, 118674, Note_on_c, 12, 72, 0
13, 118680, Note_on_c, 12, 72, 127
13, 118704, Note_on_c, 12, 72, 0
13, 118710, Note_on_c, 12, 72, 127
13, 118734, Note_on_c, 12, 72, 0
13, 118740, Note_on_c, 12, 72, 127
13, 118764, Note_on_c, 12, 72, 0
13, 118770, Note_on_c, 12, 72, 127
13, 118794, Note_on_c, 12, 72, 0
13, 118800, Note_on_c, 12, 72, 127
13, 118824, Note_on_c, 12, 72, 0
13, 118830, Note_on_c, 12, 72, 127
13, 118854, Note_on_c, 12, 72, 0
13, 118860, Note_on_c, 12, 72, 127
13, 118884, Note_on_c, 12, 72, 0
13, 118890, Note_on_c, 12, 72, 127
13, 118914, Note_on_c, 12, 72, 0
13, 118920, Note_on_c, 12, 72, 127
13, 118944, Note_on_c, 12, 72, 0
13, 118950, Note_on_c, 12, 72, 127
13, 118974, Note_on_c, 12, 72, 0
13, 118980, Note_on_c, 12, 72, 127
13, 119004, Note_on_c, 12, 72, 0
13, 119010, Note_on_c, 12, 72, 127
13, 119034, Note_on_c, 12, 72, 0
13, 119040, Note_on_c, 12, 72, 127
13, 119064, Note_on_c, 12, 72, 0
13, 119070, Note_on_c, 12, 72, 127
13, 119094, Note_on_c, 12, 72, 0
13, 119100, Note_on_c, 12, 72, 127
13, 119124, Note_on_c, 12, 72, 0
13, 119130, Note_on_c, 12, 72, 127
13, 119154, Note_on_c, 12, 72, 0
13, 119160, Note_on_c, 12, 72, 127
13, 119208, Note_on_c, 12, 72, 0
13, 119220, Note_on_c, 12, 67, 127
13, 119244, Note_on_c, 12, 67, 0
13, 119250, Note_on_c, 12, 67, 127
13, 119274, Note_on_c, 12, 67, 0
13, 119280, Note_on_c, 12, 65, 127
13, 119304, Note_on_c, 12, 65, 0
13, 119310, Note_on_c, 12, 65, 127
13, 119334, Note_on_c, 12, 65, 0
13, 119340, Note_on_c, 12, 64, 127
13, 119364, Note_on_c, 12, 64, 0
13, 119370, Note_on_c, 12, 64, 127
13, 119394, Note_on_c, 12, 64, 0
13, 119400, Note_on_c, 12, 65, 127
13, 119424, Note_on_c, 12, 65, 0
13, 119430, Note_on_c, 12, 65, 127
13, 119454, Note_on_c, 12, 65, 0
13, 119460, Note_on_c, 12, 64, 127
13, 119484, Note_on_c, 12, 64, 0
13, 119490, Note_on_c, 12, 64, 127
13, 119514, Note_on_c, 12, 64, 0
13, 119520, Note_on_c, 12, 62, 127
13, 119544, Note_on_c, 12, 62, 0
13, 119550, Note_on_c, 12, 62, 127
13, 119574, Note_on_c, 12, 62, 0
13, 119580, Note_on_c, 12, 61, 127
13, 119604, Note_on_c, 12, 61, 0
13, 119610, Note_on_c, 12, 61, 127
13, 119634, Note_on_c, 12, 61, 0
13, 119640, Note_on_c, 12, 62, 127
13, 119664, Note_on_c, 12, 62, 0
13, 119670, Note_on_c, 12, 62, 127
13, 119694, Note_on_c, 12, 62, 0
13, 119700, Note_on_c, 12, 60, 127
13, 119724, Note_on_c, 12, 60, 0
13, 119730, Note_on_c, 12, 60, 127
13, 119754, Note_on_c, 12, 60, 0
13, 119760, Note_on_c, 12, 58, 127
13, 119784, Note_on_c, 12, 58, 0
13, 119790, Note_on_c, 12, 58, 127
13, 119814, Note_on_c, 12, 58, 0
13, 119820, Note_on_c, 12, 57, 127
13, 119844, Note_on_c, 12, 57, 0
13, 119850, Note_on_c, 12, 57, 127
13, 119874, Note_on_c, 12, 57, 0
13, 119880, Note_on_c, 12, 58, 127
13, 119904, Note_on_c, 12, 58, 0
13, 119910, Note_on_c, 12, 58, 127
13, 119934, Note_on_c, 12, 58, 0
13, 119940, Note_on_c, 12, 55, 127
13, 119964, Note_on_c, 12, 55, 0
13, 119970, Note_on_c, 12, 55, 127
13, 119994, Note_on_c, 12, 55, 0
13, 120000, Note_on_c, 12, 60, 127
13, 120024, Note_on_c, 12, 60, 0
13, 120030, Note_on_c, 12, 60, 127
13, 120054, Note_on_c, 12, 60, 0
13, 120060, Note_on_c, 12, 60, 127
13, 120084, Note_on_c, 12, 60, 0
13, 120090, Note_on_c, 12, 60, 127
13, 120114, Note_on_c, 12, 60, 0
13, 120120, Note_on_c, 12, 72, 127
13, 120144, Note_on_c, 12, 72, 0
13, 120150, Note_on_c, 12, 72, 127
13, 120174, Note_on_c, 12, 72, 0
13, 120180, Note_on_c, 12, 72, 127
13, 120204, Note_on_c, 12, 72, 0
13, 120210, Note_on_c, 12, 72, 127
13, 120234, Note_on_c, 12, 72, 0
13, 120240, Note_on_c, 12, 72, 127
13, 120264, Note_on_c, 12, 72, 0
13, 120270, Note_on_c, 12, 72, 127
13, 120294, Note_on_c, 12, 72, 0
13, 120300, Note_on_c, 12, 72, 127
13, 120324, Note_on_c, 12, 72, 0
13, 120330, Note_on_c, 12, 72, 127
13, 120354, Note_on_c, 12, 72, 0
13, 120360, Note_on_c, 12, 72, 127
13, 120384, Note_on_c, 12, 72, 0
13, 120390, Note_on_c, 12, 72, 127
13, 120414, Note_on_c, 12, 72, 0
13, 120420, Note_on_c, 12, 72, 127
13, 120444, Note_on_c, 12, 72, 0
13, 120450, Note_on_c, 12, 72, 127
13, 120474, Note_on_c, 12, 72, 0
13, 120480, Note_on_c, 12, 72, 127
13, 120504, Note_on_c, 12, 72, 0
13, 120510, Note_on_c, 12, 72, 127
13, 120534, Note_on_c, 12, 72, 0
13, 120540, Note_on_c, 12, 72, 127
13, 120564, Note_on_c, 12, 72, 0
13, 120570, Note_on_c, 12, 72, 127
13, 120594, Note_on_c, 12, 72, 0
13, 120600, Note_on_c, 12, 72, 127
13, 120624, Note_on_c, 12, 72, 0
13, 120630, Note_on_c, 12, 72, 127
13, 120654, Note_on_c, 12, 72, 0
13, 120660, Note_on_c, 12, 72, 127
13, 120684, Note_on_c, 12, 72, 0
13, 120690, Note_on_c, 12, 72, 127
13, 120714, Note_on_c, 12, 72, 0
13, 120720, Note_on_c, 12, 72, 127
13, 120744, Note_on_c, 12, 72, 0
13, 120750, Note_on_c, 12, 72, 127
13, 120774, Note_on_c, 12, 72, 0
13, 120780, Note_on_c, 12, 72, 127
13, 120804, Note_on_c, 12, 72, 0
13, 120810, Note_on_c, 12, 72, 127
13, 120834, Note_on_c, 12, 72, 0
13, 120840, Note_on_c, 12, 72, 127
13, 120864, Note_on_c, 12, 72, 0
13, 120870, Note_on_c, 12, 72, 127
13, 120894, Note_on_c, 12, 72, 0
13, 120900, Note_on_c, 12, 72, 127
13, 120924, Note_on_c, 12, 72, 0
13, 120930, Note_on_c, 12, 72, 127
13, 120954, Note_on_c, 12, 72, 0
13, 120960, Note_on_c, 12, 72, 127
13, 120984, Note_on_c, 12, 72, 0
13, 120990, Note_on_c, 12, 72, 127
13, 121014, Note_on_c, 12, 72, 0
13, 121020, Note_on_c, 12, 72, 127
13, 121044, Note_on_c, 12, 72, 0
13, 121050, Note_on_c, 12, 72, 127
13, 121074, Note_on_c, 12, 72, 0
13, 121080, Note_on_c, 12, 72, 127
13, 121104, Note_on_c, 12, 72, 0
13, 121110, Note_on_c, 12, 72, 127
13, 121134, Note_on_c, 12, 72, 0
13, 121140, Note_on_c, 12, 72, 127
13, 121164, Note_on_c, 12, 72, 0
13, 121170, Note_on_c, 12, 72, 127
13, 121194, Note_on_c, 12, 72, 0
13, 121200, Note_on_c, 12, 72, 127
13, 121224, Note_on_c, 12, 72, 0
13, 121230, Note_on_c, 12, 72, 127
13, 121254, Note_on_c, 12, 72, 0
13, 121260, Note_on_c, 12, 72, 127
13, 121284, Note_on_c, 12, 72, 0
13, 121290, Note_on_c, 12, 72, 127
13, 121314, Note_on_c, 12, 72, 0
13, 121320, Note_on_c, 12, 72, 127
13, 121344, Note_on_c, 12, 72, 0
13, 121350, Note_on_c, 12, 72, 127
13, 121374, Note_on_c, 12, 72, 0
13, 121380, Note_on_c, 12, 72, 127
13, 121404, Note_on_c, 12, 72, 0
13, 121410, Note_on_c, 12, 72, 127
13, 121434, Note_on_c, 12, 72, 0
13, 121440, Note_on_c, 12, 72, 127
13, 121464, Note_on_c, 12, 72, 0
13, 121470, Note_on_c, 12, 72, 127
13, 121494, Note_on_c, 12, 72, 0
13, 121500, Note_on_c, 12, 72, 127
13, 121524, Note_on_c, 12, 72, 0
13, 121530, Note_on_c, 12, 72, 127
13, 121554, Note_on_c, 12, 72, 0
13, 121560, Note_on_c, 12, 72, 127
13, 121584, Note_on_c, 12, 72, 0
13, 121590, Note_on_c, 12, 72, 127
13, 121614, Note_on_c, 12, 72, 0
13, 121620, Note_on_c, 12, 72, 127
13, 121644, Note_on_c, 12, 72, 0
13, 121650, Note_on_c, 12, 72, 127
13, 121674, Note_on_c, 12, 72, 0
13, 121680, Note_on_c, 12, 72, 127
13, 121704, Note_on_c, 12, 72, 0
13, 121710, Note_on_c, 12, 72, 127
13, 121734, Note_on_c, 12, 72, 0
13, 121740, Note_on_c, 12, 72, 127
13, 121764, Note_on_c, 12, 72, 0
13, 121770, Note_on_c, 12, 72, 127
13, 121794, Note_on_c, 12, 72, 0
13, 121800, Note_on_c, 12, 72, 127
13, 121824, Note_on_c, 12, 72, 0
13, 121830, Note_on_c, 12, 72, 127
13, 121854, Note_on_c, 12, 72, 0
13, 121860, Note_on_c, 12, 72, 127
13, 121884, Note_on_c, 12, 72, 0
13, 121890, Note_on_c, 12, 72, 127
13, 121914, Note_on_c, 12, 72, 0
13, 121920, Note_on_c, 12, 72, 127
13, 121944, Note_on_c, 12, 72, 0
13, 121950, Note_on_c, 12, 72, 127
13, 121974, Note_on_c, 12, 72, 0
13, 121980, Note_on_c, 12, 72, 127
13, 122004, Note_on_c, 12, 72, 0
13, 122010, Note_on_c, 12, 72, 127
13, 122034, Note_on_c, 12, 72, 0
13, 122040, Note_on_c, 12, 72, 127
13, 122088, Note_on_c, 12, 72, 0
13, 122100, Note_on_c, 12, 67, 127
13, 122124, Note_on_c, 12, 67, 0
13, 122130, Note_on_c, 12, 67, 127
13, 122154, Note_on_c, 12, 67, 0
13, 122160, Note_on_c, 12, 65, 127
13, 122184, Note_on_c, 12, 65, 0
13, 122190, Note_on_c, 12, 65, 127
13, 122214, Note_on_c, 12, 65, 0
13, 122220, Note_on_c, 12, 64, 127
13, 122244, Note_on_c, 12, 64, 0
13, 122250, Note_on_c, 12, 64, 127
13, 122274, Note_on_c, 12, 64, 0
13, 122280, Note_on_c, 12, 65, 127
13, 122304, Note_on_c, 12, 65, 0
13, 122310, Note_on_c, 12, 65, 127
13, 122334, Note_on_c, 12, 65, 0
13, 122340, Note_on_c, 12, 64, 127
13, 122364, Note_on_c, 12, 64, 0
13, 122370, Note_on_c, 12, 64, 127
13, 122394, Note_on_c, 12, 64, 0
13, 122400, Note_on_c, 12, 62, 127
13, 122424, Note_on_c, 12, 62, 0
13, 122430, Note_on_c, 12, 62, 127
13, 122454, Note_on_c, 12, 62, 0
13, 122460, Note_on_c, 12, 61, 127
13, 122484, Note_on_c, 12, 61, 0
13, 122490, Note_on_c, 12, 61, 127
13, 122514, Note_on_c, 12, 61, 0
13, 122520, Note_on_c, 12, 62, 127
13, 122544, Note_on_c, 12, 62, 0
13, 122550, Note_on_c, 12, 62, 127
13, 122574, Note_on_c, 12, 62, 0
13, 122580, Note_on_c, 12, 60, 127
13, 122604, Note_on_c, 12, 60, 0
13, 122610, Note_on_c, 12, 60, 127
13, 122634, Note_on_c, 12, 60, 0
13, 122640, Note_on_c, 12, 58, 127
13, 122664, Note_on_c, 12, 58, 0
13, 122670, Note_on_c, 12, 58, 127
13, 122694, Note_on_c, 12, 58, 0
13, 122700, Note_on_c, 12, 57, 127
13, 122724, Note_on_c, 12, 57, 0
13, 122730, Note_on_c, 12, 57, 127
13, 122754, Note_on_c, 12, 57, 0
13, 122760, Note_on_c, 12, 58, 127
13, 122784, Note_on_c, 12, 58, 0
13, 122790, Note_on_c, 12, 58, 127
13, 122814, Note_on_c, 12, 58, 0
13, 122820, Note_on_c, 12, 55, 127
13, 122844, Note_on_c, 12, 55, 0
13, 122850, Note_on_c, 12, 55, 127
13, 122874, Note_on_c, 12, 55, 0
13, 122880, Note_on_c, 12, 60, 127
13, 122904, Note_on_c, 12, 60, 0
13, 122910, Note_on_c, 12, 60, 127
13, 122934, Note_on_c, 12, 60, 0
13, 122940, Note_on_c, 12, 60, 127
13, 122964, Note_on_c, 12, 60, 0
13, 122970, Note_on_c, 12, 60, 127
13, 122994, Note_on_c, 12, 60, 0
13, 123000, Note_on_c, 12, 65, 127
13, 123120, Note_on_c, 12, 65, 0
13, 123120, Note_on_c, 12, 63, 127
13, 123240, Note_on_c, 12, 63, 0
13, 123240, Note_on_c, 12, 62, 127
13, 123360, Note_on_c, 12, 62, 0
13, 123360, Note_on_c, 12, 66, 127
13, 123456, Note_on_c, 12, 66, 0
13, 123480, Note_on_c, 12, 67, 127
13, 123600, Note_on_c, 12, 67, 0
13, 123600, Note_on_c, 12, 61, 127
13, 123720, Note_on_c, 12, 61, 0
13, 123720, Note_on_c, 12, 60, 127
13, 123840, Note_on_c, 12, 60, 0
13, 123840, Note_on_c, 12, 64, 127
13, 123936, Note_on_c, 12, 64, 0
13, 123960, Note_on_c, 12, 65, 127
13, 124080, Note_on_c, 12, 65, 0
13, 124080, Note_on_c, 12, 63, 127
13, 124200, Note_on_c, 12, 63, 0
13, 124200, Note_on_c, 12, 62, 127
13, 124320, Note_on_c, 12, 62, 0
13, 124320, Note_on_c, 12, 66, 127
13, 124416, Note_on_c, 12, 66, 0
13, 124440, Note_on_c, 12, 67, 127
13, 124560, Note_on_c, 12, 67, 0
13, 124560, Note_on_c, 12, 61, 127
13, 124680, Note_on_c, 12, 61, 0
13, 124680, Note_on_c, 12, 60, 127
13, 124800, Note_on_c, 12, 60, 0
13, 124800, Note_on_c, 12, 64, 127
13, 124896, Note_on_c, 12, 64, 0
13, 124920, Note_on_c, 12, 65, 127
13, 125040, Note_on_c, 12, 65, 0
13, 125040, Note_on_c, 12, 63, 127
13, 125160, Note_on_c, 12, 63, 0
13, 125160, Note_on_c, 12, 62, 127
13, 125280, Note_on_c, 12, 62, 0
13, 125280, Note_on_c, 12, 66, 127
13, 125376, Note_on_c, 12, 66, 0
13, 125400, Note_on_c, 12, 67, 127
13, 125520, Note_on_c, 12, 67, 0
13, 125520, Note_on_c, 12, 61, 127
13, 125640, Note_on_c, 12, 61, 0
13, 125640, Note_on_c, 12, 60, 127
13, 125760, Note_on_c, 12, 60, 0
13, 125760, Note_on_c, 12, 64, 127
13, 125856, Note_on_c, 12, 64, 0
13, 125880, Note_on_c, 12, 53, 127
13, 126000, Note_on_c, 12, 53, 0
13, 126000, Note_on_c, 12, 51, 127
13, 126120, Note_on_c, 12, 51, 0
13, 126120, Note_on_c, 12, 50, 127
13, 126240, Note_on_c, 12, 50, 0
13, 126240, Note_on_c, 12, 54, 127
13, 126336, Note_on_c, 12, 54, 0
13, 126360, Note_on_c, 12, 55, 127
13, 126480, Note_on_c, 12, 55, 0
13, 126480, Note_on_c, 12, 49, 127
13, 126600, Note_on_c, 12, 49, 0
13, 126600, Note_on_c, 12, 48, 127
13, 126720, Note_on_c, 12, 48, 0
13, 126720, Note_on_c, 12, 60, 127
13, 126720, Note_on_c, 12, 48, 127
13, 126816, Note_on_c, 12, 48, 0
13, 126816, Note_on_c, 12, 60, 0
13, 126840, Note_on_c, 12, 57, 127
13, 126888, Note_on_c, 12, 57, 0
13, 126900, Note_on_c, 12, 57, 127
13, 126948, Note_on_c, 12, 57, 0
13, 126960, Note_on_c, 12, 58, 127
13, 127008, Note_on_c, 12, 58, 0
13, 127020, Note_on_c, 12, 60, 127
13, 127068, Note_on_c, 12, 60, 0
13, 127080, Note_on_c, 12, 62, 127
13, 127128, Note_on_c, 12, 62, 0
13, 127140, Note_on_c, 12, 60, 127
13, 127188, Note_on_c, 12, 60, 0
13, 127200, Note_on_c, 12, 58, 127
13, 127248, Note_on_c, 12, 58, 0
13, 127260, Note_on_c, 12, 57, 127
13, 127308, Note_on_c, 12, 57, 0
13, 127320, Note_on_c, 12, 58, 127
13, 127368, Note_on_c, 12, 58, 0
13, 127380, Note_on_c, 12, 48, 127
13, 127428, Note_on_c, 12, 48, 0
13, 127440, Note_on_c, 12, 49, 127
13, 127488, Note_on_c, 12, 49, 0
13, 127500, Note_on_c, 12, 58, 127
13, 127548, Note_on_c, 12, 58, 0
13, 127560, Note_on_c, 12, 52, 127
13, 127608, Note_on_c, 12, 52, 0
13, 127620, Note_on_c, 12, 55, 127
13, 127668, Note_on_c, 12, 55, 0
13, 127680, Note_on_c, 12, 55, 127
13, 127728, Note_on_c, 12, 55, 0
13, 127740, Note_on_c, 12, 60, 127
13, 127788, Note_on_c, 12, 60, 0
13, 127800, Note_on_c, 12, 53, 127
13, 127992, Note_on_c, 12, 53, 0
13, 128040, Note_on_c, 12, 52, 127
13, 128232, Note_on_c, 12, 52, 0
13, 128280, Note_on_c, 12, 53, 127
13, 128472, Note_on_c, 12, 53, 0
13, 128520, Note_on_c, 12, 55, 127
13, 128712, Note_on_c, 12, 55, 0
13, 128760, Note_on_c, 12, 56, 127
13, 128856, Note_on_c, 12, 56, 0
13, 128880, Note_on_c, 12, 57, 127
13, 129624, Note_on_c, 12, 57, 0
13, 129720, Note_on_c, 12, 55, 127
13, 129720, Note_on_c, 12, 58, 127
13, 129752, Note_on_c, 12, 58, 0
13, 129752, Note_on_c, 12, 55, 0
13, 129760, Note_on_c, 12, 55, 127
13, 129760, Note_on_c, 12, 64, 127
13, 129792, Note_on_c, 12, 64, 0
13, 129792, Note_on_c, 12, 55, 0
13, 129800, Note_on_c, 12, 55, 127
13, 129800, Note_on_c, 12, 64, 127
13, 129832, Note_on_c, 12, 64, 0
13, 129832, Note_on_c, 12, 55, 0
13, 129840, Note_on_c, 12, 55, 127
13, 129840, Note_on_c, 12, 64, 127
13, 129872, Note_on_c, 12, 64, 0
13, 129872, Note_on_c, 12, 55, 0
13, 129880, Note_on_c, 12, 55, 127
13, 129880, Note_on_c, 12, 64, 127
13, 129912, Note_on_c, 12, 64, 0
13, 129912, Note_on_c, 12, 55, 0
13, 129920, Note_on_c, 12, 55, 127
13, 129920, Note_on_c, 12, 64, 127
13, 129952, Note_on_c, 12, 64, 0
13, 129952, Note_on_c, 12, 55, 0
13, 129960, Note_on_c, 12, 64, 127
13, 129960, Note_on_c, 12, 55, 127
13, 129992, Note_on_c, 12, 55, 0
13, 129992, Note_on_c, 12, 64, 0
13, 130000, Note_on_c, 12, 64, 127
13, 130000, Note_on_c, 12, 55, 127
13, 130032, Note_on_c, 12, 55, 0
13, 130032, Note_on_c, 12, 64, 0
13, 130040, Note_on_c, 12, 64, 127
13, 130040, Note_on_c, 12, 55, 127
13, 130072, Note_on_c, 12, 55, 0
13, 130072, Note_on_c, 12, 64, 0
13, 130080, Note_on_c, 12, 64, 127
13, 130080, Note_on_c, 12, 55, 127
13, 130112, Note_on_c, 12, 55, 0
13, 130112, Note_on_c, 12, 64, 0
13, 130120, Note_on_c, 12, 64, 127
13, 130120, Note_on_c, 12, 55, 127
13, 130152, Note_on_c, 12, 55, 0
13, 130152, Note_on_c, 12, 64, 0
13, 130160, Note_on_c, 12, 64, 127
13, 130160, Note_on_c, 12, 55, 127
13, 130192, Note_on_c, 12, 55, 0
13, 130192, Note_on_c, 12, 64, 0
13, 130200, Note_on_c, 12, 64, 127
13, 130200, Note_on_c, 12, 55, 127
13, 130232, Note_on_c, 12, 55, 0
13, 130232, Note_on_c, 12, 64, 0
13, 130240, Note_on_c, 12, 64, 127
13, 130240, Note_on_c, 12, 55, 127
13, 130272, Note_on_c, 12, 55, 0
13, 130272, Note_on_c, 12, 64, 0
13, 130280, Note_on_c, 12, 64, 127
13, 130280, Note_on_c, 12, 55, 127
13, 130312, Note_on_c, 12, 55, 0
13, 130312, Note_on_c, 12, 64, 0
13, 130320, Note_on_c, 12, 64, 127
13, 130320, Note_on_c, 12, 55, 127
13, 130352, Note_on_c, 12, 55, 0
13, 130352, Note_on_c, 12, 64, 0
13, 130360, Note_on_c, 12, 64, 127
13, 130360, Note_on_c, 12, 55, 127
13, 130392, Note_on_c, 12, 55, 0
13, 130392, Note_on_c, 12, 64, 0
13, 130400, Note_on_c, 12, 64, 127
13, 130400, Note_on_c, 12, 55, 127
13, 130432, Note_on_c, 12, 55, 0
13, 130432, Note_on_c, 12, 64, 0
13, 130440, Note_on_c, 12, 64, 127
13, 130440, Note_on_c, 12, 55, 127
13, 130472, Note_on_c, 12, 55, 0
13, 130472, Note_on_c, 12, 64, 0
13, 130480, Note_on_c, 12, 64, 127
13, 130480, Note_on_c, 12, 55, 127
13, 130512, Note_on_c, 12, 55, 0
13, 130512, Note_on_c, 12, 64, 0
13, 130520, Note_on_c, 12, 64, 127
13, 130520, Note_on_c, 12, 55, 127
13, 130552, Note_on_c, 12, 55, 0
13, 130552, Note_on_c, 12, 64, 0
13, 130560, Note_on_c, 12, 64, 127
13, 130560, Note_on_c, 12, 55, 127
13, 130592, Note_on_c, 12, 55, 0
13, 130592, Note_on_c, 12, 64, 0
13, 130600, Note_on_c, 12, 64, 127
13, 130600, Note_on_c, 12, 55, 127
13, 130632, Note_on_c, 12, 55, 0
13, 130632, Note_on_c, 12, 64, 0
13, 130640, Note_on_c, 12, 64, 127
13, 130640, Note_on_c, 12, 55, 127
13, 130672, Note_on_c, 12, 55, 0
13, 130672, Note_on_c, 12, 64, 0
13, 130680, Note_on_c, 12, 53, 127
13, 130824, Note_on_c, 12, 53, 0
13, 130860, Note_on_c, 12, 53, 127
13, 130908, Note_on_c, 12, 53, 0
13, 130920, Note_on_c, 12, 52, 127
13, 131064, Note_on_c, 12, 52, 0
13, 131100, Note_on_c, 12, 52, 127
13, 131148, Note_on_c, 12, 52, 0
13, 131160, Note_on_c, 12, 53, 127
13, 131304, Note_on_c, 12, 53, 0
13, 131340, Note_on_c, 12, 53, 127
13, 131388, Note_on_c, 12, 53, 0
13, 131400, Note_on_c, 12, 55, 127
13, 131544, Note_on_c, 12, 55, 0
13, 131580, Note_on_c, 12, 55, 127
13, 131628, Note_on_c, 12, 55, 0
13, 131640, Note_on_c, 12, 56, 127
13, 131736, Note_on_c, 12, 56, 0
13, 131760, Note_on_c, 12, 57, 127
13, 132504, Note_on_c, 12, 57, 0
13, 132600, Note_on_c, 12, 58, 127
13, 132600, Note_on_c, 12, 55, 127
13, 132632, Note_on_c, 12, 55, 0
13, 132632, Note_on_c, 12, 58, 0
13, 132640, Note_on_c, 12, 64, 127
13, 132640, Note_on_c, 12, 55, 127
13, 132672, Note_on_c, 12, 55, 0
13, 132672, Note_on_c, 12, 64, 0
13, 132680, Note_on_c, 12, 64, 127
13, 132680, Note_on_c, 12, 55, 127
13, 132712, Note_on_c, 12, 55, 0
13, 132712, Note_on_c, 12, 64, 0
13, 132720, Note_on_c, 12, 64, 127
13, 132720, Note_on_c, 12, 55, 127
13, 132752, Note_on_c, 12, 55, 0
13, 132752, Note_on_c, 12, 64, 0
13, 132760, Note_on_c, 12, 64, 127
13, 132760, Note_on_c, 12, 55, 127
13, 132792, Note_on_c, 12, 55, 0
13, 132792, Note_on_c, 12, 64, 0
13, 132800, Note_on_c, 12, 64, 127
13, 132800, Note_on_c, 12, 55, 127
13, 132832, Note_on_c, 12, 55, 0
13, 132832, Note_on_c, 12, 64, 0
13, 132840, Note_on_c, 12, 55, 127
13, 132840, Note_on_c, 12, 64, 127
13, 132872, Note_on_c, 12, 64, 0
13, 132872, Note_on_c, 12, 55, 0
13, 132880, Note_on_c, 12, 55, 127
13, 132880, Note_on_c, 12, 64, 127
13, 132912, Note_on_c, 12, 64, 0
13, 132912, Note_on_c, 12, 55, 0
13, 132920, Note_on_c, 12, 55, 127
13, 132920, Note_on_c, 12, 64, 127
13, 132952, Note_on_c, 12, 64, 0
13, 132952, Note_on_c, 12, 55, 0
13, 132960, Note_on_c, 12, 55, 127
13, 132960, Note_on_c, 12, 64, 127
13, 132992, Note_on_c, 12, 64, 0
13, 132992, Note_on_c, 12, 55, 0
13, 133000, Note_on_c, 12, 55, 127
13, 133000, Note_on_c, 12, 64, 127
13, 133032, Note_on_c, 12, 64, 0
13, 133032, Note_on_c, 12, 55, 0
13, 133040, Note_on_c, 12, 55, 127
13, 133040, Note_on_c, 12, 64, 127
13, 133072, Note_on_c, 12, 64, 0
13, 133072, Note_on_c, 12, 55, 0
13, 133080, Note_on_c, 12, 55, 127
13, 133080, Note_on_c, 12, 64, 127
13, 133112, Note_on_c, 12, 64, 0
13, 133112, Note_on_c, 12, 55, 0
13, 133120, Note_on_c, 12, 55, 127
13, 133120, Note_on_c, 12, 64, 127
13, 133152, Note_on_c, 12, 64, 0
13, 133152, Note_on_c, 12, 55, 0
13, 133160, Note_on_c, 12, 55, 127
13, 133160, Note_on_c, 12, 64, 127
13, 133192, Note_on_c, 12, 64, 0
13, 133192, Note_on_c, 12, 55, 0
13, 133200, Note_on_c, 12, 55, 127
13, 133200, Note_on_c, 12, 64, 127
13, 133232, Note_on_c, 12, 64, 0
13, 133232, Note_on_c, 12, 55, 0
13, 133240, Note_on_c, 12, 55, 127
13, 133240, Note_on_c, 12, 64, 127
13, 133272, Note_on_c, 12, 64, 0
13, 133272, Note_on_c, 12, 55, 0
13, 133280, Note_on_c, 12, 55, 127
13, 133280, Note_on_c, 12, 64, 127
13, 133312, Note_on_c, 12, 64, 0
13, 133312, Note_on_c, 12, 55, 0
13, 133320, Note_on_c, 12, 55, 127
13, 133320, Note_on_c, 12, 64, 127
13, 133352, Note_on_c, 12, 64, 0
13, 133352, Note_on_c, 12, 55, 0
13, 133360, Note_on_c, 12, 55, 127
13, 133360, Note_on_c, 12, 64, 127
13, 133392, Note_on_c, 12, 64, 0
13, 133392, Note_on_c, 12, 55, 0
13, 133400, Note_on_c, 12, 55, 127
13, 133400, Note_on_c, 12, 64, 127
13, 133432, Note_on_c, 12, 64, 0
13, 133432, Note_on_c, 12, 55, 0
13, 133440, Note_on_c, 12, 55, 127
13, 133440, Note_on_c, 12, 64, 127
13, 133472, Note_on_c, 12, 64, 0
13, 133472, Note_on_c, 12, 55, 0
13, 133480, Note_on_c, 12, 55, 127
13, 133480, Note_on_c, 12, 64, 127
13, 133512, Note_on_c, 12, 64, 0
13, 133512, Note_on_c, 12, 55, 0
13, 133520, Note_on_c, 12, 55, 127
13, 133520, Note_on_c, 12, 64, 127
13, 133552, Note_on_c, 12, 64, 0
13, 133552, Note_on_c, 12, 55, 0
13, 133560, Note_on_c, 12, 57, 127
13, 133560, Note_on_c, 12, 65, 127
13, 133848, Note_on_c, 12, 65, 0
13, 133848, Note_on_c, 12, 57, 0
13, 133920, Note_on_c, 12, 60, 127
13, 134016, Note_on_c, 12, 60, 0
13, 134040, Note_on_c, 12, 65, 127
13, 134136, Note_on_c, 12, 65, 0
13, 134160, Note_on_c, 12, 60, 127
13, 134256, Note_on_c, 12, 60, 0
13, 134280, Note_on_c, 12, 57, 127
13, 134376, Note_on_c, 12, 57, 0
13, 134400, Note_on_c, 12, 60, 127
13, 134496, Note_on_c, 12, 60, 0
13, 134520, Note_on_c, 12, 65, 127
13, 134808, Note_on_c, 12, 65, 0
13, 134880, Note_on_c, 12, 60, 127
13, 134976, Note_on_c, 12, 60, 0
13, 135000, Note_on_c, 12, 65, 127
13, 135096, Note_on_c, 12, 65, 0
13, 135120, Note_on_c, 12, 60, 127
13, 135216, Note_on_c, 12, 60, 0
13, 135240, Note_on_c, 12, 57, 127
13, 135336, Note_on_c, 12, 57, 0
13, 135360, Note_on_c, 12, 60, 127
13, 135456, Note_on_c, 12, 60, 0
13, 135480, Note_on_c, 12, 65, 127
13, 135672, Note_on_c, 12, 65, 0
13, 135720, Note_on_c, 12, 69, 127
13, 135912, Note_on_c, 12, 69, 0
13, 135960, Note_on_c, 12, 72, 127
13, 136248, Note_on_c, 12, 72, 0
13, 136320, Note_on_c, 12, 60, 127
13, 136416, Note_on_c, 12, 60, 0
13, 136440, Note_on_c, 12, 65, 127
13, 136632, Note_on_c, 12, 65, 0
13, 136680, Note_on_c, 12, 69, 127
13, 136872, Note_on_c, 12, 69, 0
13, 136920, Note_on_c, 12, 72, 127
13, 137208, Note_on_c, 12, 72, 0
13, 137280, Note_on_c, 12, 60, 127
13, 137376, Note_on_c, 12, 60, 0
13, 137400, Note_on_c, 12, 65, 127
13, 137592, Note_on_c, 12, 65, 0
13, 137640, Note_on_c, 12, 69, 127
13, 137832, Note_on_c, 12, 69, 0
13, 137880, Note_on_c, 12, 72, 127
13, 138168, Note_on_c, 12, 72, 0
13, 138240, Note_on_c, 12, 60, 127
13, 138336, Note_on_c, 12, 60, 0
13, 138360, Note_on_c, 12, 72, 127
13, 138648, Note_on_c, 12, 72, 0
13, 138720, Note_on_c, 12, 60, 127
13, 138816, Note_on_c, 12, 60, 0
13, 138840, Note_on_c, 12, 72, 127
13, 139128, Note_on_c, 12, 72, 0
13, 139200, Note_on_c, 12, 60, 127
13, 139296, Note_on_c, 12, 60, 0
13, 139320, Note_on_c, 12, 72, 127
13, 139344, Note_on_c, 12, 72, 0
13, 139350, Note_on_c, 12, 72, 127
13, 139374, Note_on_c, 12, 72, 0
13, 139380, Note_on_c, 12, 65, 127
13, 139404, Note_on_c, 12, 65, 0
13, 139410, Note_on_c, 12, 65, 127
13, 139434, Note_on_c, 12, 65, 0
13, 139440, Note_on_c, 12, 67, 127
13, 139464, Note_on_c, 12, 67, 0
13, 139470, Note_on_c, 12, 67, 127
13, 139494, Note_on_c, 12, 67, 0
13, 139500, Note_on_c, 12, 69, 127
13, 139524, Note_on_c, 12, 69, 0
13, 139530, Note_on_c, 12, 69, 127
13, 139554, Note_on_c, 12, 69, 0
13, 139560, Note_on_c, 12, 70, 127
13, 139584, Note_on_c, 12, 70, 0
13, 139590, Note_on_c, 12, 70, 127
13, 139614, Note_on_c, 12, 70, 0
13, 139620, Note_on_c, 12, 69, 127
13, 139644, Note_on_c, 12, 69, 0
13, 139650, Note_on_c, 12, 69, 127
13, 139674, Note_on_c, 12, 69, 0
13, 139680, Note_on_c, 12, 70, 127
13, 139704, Note_on_c, 12, 70, 0
13, 139710, Note_on_c, 12, 70, 127
13, 139734, Note_on_c, 12, 70, 0
13, 139740, Note_on_c, 12, 72, 127
13, 139764, Note_on_c, 12, 72, 0
13, 139770, Note_on_c, 12, 72, 127
13, 139794, Note_on_c, 12, 72, 0
13, 139800, Note_on_c, 12, 74, 127
13, 139824, Note_on_c, 12, 74, 0
13, 139830, Note_on_c, 12, 74, 127
13, 139854, Note_on_c, 12, 74, 0
13, 139860, Note_on_c, 12, 72, 127
13, 139884, Note_on_c, 12, 72, 0
13, 139890, Note_on_c, 12, 72, 127
13, 139914, Note_on_c, 12, 72, 0
13, 139920, Note_on_c, 12, 74, 127
13, 139944, Note_on_c, 12, 74, 0
13, 139950, Note_on_c, 12, 74, 127
13, 139974, Note_on_c, 12, 74, 0
13, 139980, Note_on_c, 12, 76, 127
13, 140004, Note_on_c, 12, 76, 0
13, 140010, Note_on_c, 12, 76, 127
13, 140034, Note_on_c, 12, 76, 0
13, 140040, Note_on_c, 12, 77, 127
13, 140064, Note_on_c, 12, 77, 0
13, 140070, Note_on_c, 12, 77, 127
13, 140094, Note_on_c, 12, 77, 0
13, 140100, Note_on_c, 12, 76, 127
13, 140124, Note_on_c, 12, 76, 0
13, 140130, Note_on_c, 12, 76, 127
13, 140154, Note_on_c, 12, 76, 0
13, 140160, Note_on_c, 12, 77, 127
13, 140184, Note_on_c, 12, 77, 0
13, 140190, Note_on_c, 12, 77, 127
13, 140214, Note_on_c, 12, 77, 0
13, 140220, Note_on_c, 12, 76, 127
13, 140244, Note_on_c, 12, 76, 0
13, 140250, Note_on_c, 12, 76, 127
13, 140274, Note_on_c, 12, 76, 0
13, 140280, Note_on_c, 12, 77, 127
13, 140376, Note_on_c, 12, 77, 0
13, 140760, Note_on_c, 12, 48, 127
13, 140760, Note_on_c, 12, 60, 127
13, 140760, Note_on_c, 12, 69, 127
13, 140856, Note_on_c, 12, 69, 0
13, 140856, Note_on_c, 12, 60, 0
13, 140856, Note_on_c, 12, 48, 0
13, 141240, Note_on_c, 12, 69, 127
13, 141240, Note_on_c, 12, 60, 127
13, 141240, Note_on_c, 12, 48, 127
13, 141336, Note_on_c, 12, 48, 0
13, 141336, Note_on_c, 12, 60, 0
13, 141336, Note_on_c, 12, 69, 0
13, 141720, Note_on_c, 12, 48, 127
13, 141720, Note_on_c, 12, 57, 127
13, 141720, Note_on_c, 12, 65, 127
13, 141816, Note_on_c, 12, 65, 0
13, 141816, Note_on_c, 12, 57, 0
13, 141816, Note_on_c, 12, 48, 0
13, 141960, Note_on_c, 12, 48, 127
13, 141960, Note_on_c, 12, 57, 127
13, 141960, Note_on_c, 12, 65, 127
13, 142056, Note_on_c, 12, 65, 0
13, 142056, Note_on_c, 12, 57, 0
13, 142056, Note_on_c, 12, 48, 0
13, 142200, Note_on_c, 12, 65, 127
13, 142200, Note_on_c, 12, 57, 127
13, 142200, Note_on_c, 12, 48, 127
13, 142296, Note_on_c, 12, 48, 0
13, 142296, Note_on_c, 12, 57, 0
13, 142296, Note_on_c, 12, 65, 0
13, 142296, End_track
14, 0, Start_track
14, 0, Title_t, "Violoncello"
14, 0, Program_c, 13, 48
14, 0, Control_c, 13, 7, 127
14, 0, Control_c, 13, 10, 105
14, 1440, Note_on_c, 13, 41, 127
14, 2016, Note_on_c, 13, 41, 0
14, 2160, Note_on_c, 13, 41, 100
14, 2352, Note_on_c, 13, 41, 0
14, 2400, Note_on_c, 13, 41, 100
14, 2592, Note_on_c, 13, 41, 0
14, 2820, Note_on_c, 13, 41, 100
14, 2868, Note_on_c, 13, 41, 0
14, 2880, Note_on_c, 13, 39, 100
14, 3072, Note_on_c, 13, 39, 0
14, 3120, Note_on_c, 13, 44, 100
14, 3312, Note_on_c, 13, 44, 0
14, 3540, Note_on_c, 13, 44, 100
14, 3588, Note_on_c, 13, 44, 0
14, 3600, Note_on_c, 13, 43, 100
14, 3792, Note_on_c, 13, 43, 0
14, 3840, Note_on_c, 13, 43, 100
14, 4032, Note_on_c, 13, 43, 0
14, 4260, Note_on_c, 13, 55, 50
14, 4308, Note_on_c, 13, 55, 0
14, 4320, Note_on_c, 13, 48, 50
14, 4416, Note_on_c, 13, 48, 0
14, 6720, Note_on_c, 13, 48, 50
14, 7200, Note_on_c, 13, 48, 0
14, 7200, Note_on_c, 13, 41, 70
14, 7776, Note_on_c, 13, 41, 0
14, 7920, Note_on_c, 13, 41, 127
14, 8112, Note_on_c, 13, 41, 0
14, 8160, Note_on_c, 13, 41, 127
14, 8352, Note_on_c, 13, 41, 0
14, 8580, Note_on_c, 13, 41, 127
14, 8580, Note_on_c, 13, 53, 127
14, 8628, Note_on_c, 13, 53, 0
14, 8628, Note_on_c, 13, 41, 0
14, 8640, Note_on_c, 13, 39, 127
14, 8640, Note_on_c, 13, 51, 127
14, 8832, Note_on_c, 13, 51, 0
14, 8832, Note_on_c, 13, 39, 0
14, 8880, Note_on_c, 13, 44, 127
14, 9072, Note_on_c, 13, 44, 0
14, 11280, Program_c, 13, 48
14, 11280, Note_on_c, 13, 44, 50
14, 11472, Note_on_c, 13, 44, 0
14, 11520, Note_on_c, 13, 49, 50
14, 11616, Note_on_c, 13, 49, 0
14, 12180, Note_on_c, 13, 49, 50
14, 12228, Note_on_c, 13, 49, 0
14, 12240, Note_on_c, 13, 49, 50
14, 12432, Note_on_c, 13, 49, 0
14, 12480, Note_on_c, 13, 49, 50
14, 12672, Note_on_c, 13, 49, 0
14, 12900, Note_on_c, 13, 49, 50
14, 12948, Note_on_c, 13, 49, 0
14, 12960, Note_on_c, 13, 48, 50
14, 13152, Note_on_c, 13, 48, 0
14, 13200, Note_on_c, 13, 48, 50
14, 13392, Note_on_c, 13, 48, 0
14, 13620, Note_on_c, 13, 48, 50
14, 13668, Note_on_c, 13, 48, 0
14, 13680, Note_on_c, 13, 45, 50
14, 13872, Note_on_c, 13, 45, 0
14, 13920, Note_on_c, 13, 45, 50
14, 14112, Note_on_c, 13, 45, 0
14, 14340, Note_on_c, 13, 45, 50
14, 14388, Note_on_c, 13, 45, 0
14, 14400, Note_on_c, 13, 46, 50
14, 14592, Note_on_c, 13, 46, 0
14, 14640, Note_on_c, 13, 46, 50
14, 14832, Note_on_c, 13, 46, 0
14, 15060, Note_on_c, 13, 46, 50
14, 15108, Note_on_c, 13, 46, 0
14, 15120, Note_on_c, 13, 43, 50
14, 15312, Note_on_c, 13, 43, 0
14, 15360, Note_on_c, 13, 43, 50
14, 15552, Note_on_c, 13, 43, 0
14, 15780, Note_on_c, 13, 43, 50
14, 15828, Note_on_c, 13, 43, 0
14, 15840, Note_on_c, 13, 40, 50
14, 16032, Note_on_c, 13, 40, 0
14, 16080, Note_on_c, 13, 48, 50
14, 16272, Note_on_c, 13, 48, 0
14, 16500, Note_on_c, 13, 48, 50
14, 16548, Note_on_c, 13, 48, 0
14, 16560, Note_on_c, 13, 48, 50
14, 16656, Note_on_c, 13, 48, 0
14, 17220, Note_on_c, 13, 48, 50
14, 17268, Note_on_c, 13, 48, 0
14, 17280, Note_on_c, 13, 48, 50
14, 17376, Note_on_c, 13, 48, 0
14, 17400, Note_on_c, 13, 58, 50
14, 17496, Note_on_c, 13, 58, 0
14, 17520, Note_on_c, 13, 60, 50
14, 17568, Note_on_c, 13, 60, 0
14, 17580, Note_on_c, 13, 58, 50
14, 17628, Note_on_c, 13, 58, 0
14, 17640, Note_on_c, 13, 56, 50
14, 17688, Note_on_c, 13, 56, 0
14, 17700, Note_on_c, 13, 55, 50
14, 17748, Note_on_c, 13, 55, 0
14, 17760, Note_on_c, 13, 55, 50
14, 17856, Note_on_c, 13, 55, 0
14, 18120, Note_on_c, 13, 58, 50
14, 18216, Note_on_c, 13, 58, 0
14, 18240, Note_on_c, 13, 60, 50
14, 18336, Note_on_c, 13, 60, 0
14, 18360, Note_on_c, 13, 58, 50
14, 18456, Note_on_c, 13, 58, 0
14, 18480, Note_on_c, 13, 56, 50
14, 18576, Note_on_c, 13, 56, 0
14, 18600, Note_on_c, 13, 55, 50
14, 18696, Note_on_c, 13, 55, 0
14, 18780, Program_c, 13, 48
14, 18780, Control_c, 13, 7, 96
14, 18780, Note_on_c, 13, 58, 65
14, 18840, Note_on_c, 13, 58, 0
14, 18840, Note_on_c, 13, 60, 66
14, 18900, Note_on_c, 13, 60, 0
14, 18900, Note_on_c, 13, 58, 68
14, 18960, Note_on_c, 13, 58, 0
14, 18960, Note_on_c, 13, 56, 69
14, 19020, Note_on_c, 13, 56, 0
14, 19020, Note_on_c, 13, 55, 71
14, 19080, Note_on_c, 13, 55, 0
14, 19080, Note_on_c, 13, 60, 72
14, 19140, Note_on_c, 13, 60, 0
14, 19140, Note_on_c, 13, 58, 74
14, 19200, Note_on_c, 13, 58, 0
14, 19200, Note_on_c, 13, 56, 75
14, 19260, Note_on_c, 13, 56, 0
14, 19260, Note_on_c, 13, 55, 77
14, 19320, Note_on_c, 13, 55, 0
14, 19320, Note_on_c, 13, 60, 79
14, 19380, Note_on_c, 13, 60, 0
14, 19380, Note_on_c, 13, 58, 80
14, 19428, Note_on_c, 13, 58, 0
14, 19440, Note_on_c, 13, 56, 82
14, 19500, Note_on_c, 13, 56, 0
14, 19500, Note_on_c, 13, 55, 83
14, 19560, Note_on_c, 13, 55, 0
14, 19560, Note_on_c, 13, 60, 85
14, 19620, Note_on_c, 13, 60, 0
14, 19620, Note_on_c, 13, 58, 86
14, 19680, Note_on_c, 13, 58, 0
14, 19680, Note_on_c, 13, 56, 88
14, 19740, Note_on_c, 13, 56, 0
14, 19740, Note_on_c, 13, 55, 89
14, 19788, Note_on_c, 13, 55, 0
14, 19800, Note_on_c, 13, 60, 91
14, 19860, Note_on_c, 13, 60, 0
14, 19860, Note_on_c, 13, 58, 92
14, 19920, Note_on_c, 13, 58, 0
14, 19920, Note_on_c, 13, 56, 94
14, 19980, Note_on_c, 13, 56, 0
14, 19980, Note_on_c, 13, 55, 95
14, 20028, Note_on_c, 13, 55, 0
14, 20040, Note_on_c, 13, 60, 112
14, 20160, Note_on_c, 13, 60, 0
14, 20160, Note_on_c, 13, 61, 64
14, 20280, Note_on_c, 13, 61, 0
14, 20280, Note_on_c, 13, 60, 64
14, 20400, Note_on_c, 13, 60, 0
14, 20400, Note_on_c, 13, 56, 64
14, 20520, Note_on_c, 13, 56, 0
14, 20520, Note_on_c, 13, 53, 64
14, 20640, Note_on_c, 13, 53, 0
14, 20640, Note_on_c, 13, 49, 64
14, 20760, Note_on_c, 13, 49, 0
14, 20760, Note_on_c, 13, 48, 64
14, 20880, Note_on_c, 13, 48, 0
14, 20880, Note_on_c, 13, 44, 80
14, 21000, Note_on_c, 13, 44, 0
14, 21000, Note_on_c, 13, 41, 80
14, 21120, Note_on_c, 13, 41, 0
14, 21120, Note_on_c, 13, 37, 80
14, 21240, Note_on_c, 13, 37, 0
14, 21240, Note_on_c, 13, 36, 80
14, 21360, Note_on_c, 13, 36, 0
14, 21480, Note_on_c, 13, 60, 112
14, 21600, Note_on_c, 13, 60, 0
14, 21600, Note_on_c, 13, 61, 80
14, 21720, Note_on_c, 13, 61, 0
14, 21720, Note_on_c, 13, 60, 80
14, 21840, Note_on_c, 13, 60, 0
14, 21840, Note_on_c, 13, 58, 80
14, 21960, Note_on_c, 13, 58, 0
14, 21960, Note_on_c, 13, 55, 80
14, 22080, Note_on_c, 13, 55, 0
14, 22080, Note_on_c, 13, 52, 80
14, 22200, Note_on_c, 13, 52, 0
14, 22200, Note_on_c, 13, 49, 80
14, 22320, Note_on_c, 13, 49, 0
14, 22320, Note_on_c, 13, 48, 80
14, 22440, Note_on_c, 13, 48, 0
14, 22440, Note_on_c, 13, 46, 80
14, 22560, Note_on_c, 13, 46, 0
14, 22560, Note_on_c, 13, 43, 80
14, 22620, Note_on_c, 13, 43, 0
14, 22620, Note_on_c, 13, 40, 80
14, 22680, Note_on_c, 13, 40, 0
14, 22680, Note_on_c, 13, 36, 80
14, 22776, Note_on_c, 13, 36, 0
14, 22800, Note_on_c, 13, 41, 80
14, 22896, Note_on_c, 13, 41, 0
14, 22920, Note_on_c, 13, 53, 80
14, 23184, Note_on_c, 13, 53, 0
14, 23220, Note_on_c, 13, 53, 104
14, 23268, Note_on_c, 13, 53, 0
14, 23280, Note_on_c, 13, 53, 104
14, 23328, Note_on_c, 13, 53, 0
14, 23340, Note_on_c, 13, 55, 104
14, 23388, Note_on_c, 13, 55, 0
14, 23400, Note_on_c, 13, 56, 104
14, 23496, Note_on_c, 13, 56, 0
14, 23520, Note_on_c, 13, 53, 80
14, 23616, Note_on_c, 13, 53, 0
14, 23640, Note_on_c, 13, 53, 80
14, 23904, Note_on_c, 13, 53, 0
14, 23940, Note_on_c, 13, 53, 104
14, 23988, Note_on_c, 13, 53, 0
14, 24000, Note_on_c, 13, 53, 104
14, 24048, Note_on_c, 13, 53, 0
14, 24060, Note_on_c, 13, 55, 104
14, 24108, Note_on_c, 13, 55, 0
14, 24120, Note_on_c, 13, 56, 104
14, 24216, Note_on_c, 13, 56, 0
14, 24240, Note_on_c, 13, 53, 80
14, 24336, Note_on_c, 13, 53, 0
14, 24360, Note_on_c, 13, 53, 80
14, 24624, Note_on_c, 13, 53, 0
14, 24660, Note_on_c, 13, 53, 104
14, 24708, Note_on_c, 13, 53, 0
14, 24720, Note_on_c, 13, 53, 104
14, 24768, Note_on_c, 13, 53, 0
14, 24780, Note_on_c, 13, 55, 104
14, 24828, Note_on_c, 13, 55, 0
14, 24840, Note_on_c, 13, 56, 104
14, 24888, Note_on_c, 13, 56, 0
14, 24900, Note_on_c, 13, 48, 104
14, 24948, Note_on_c, 13, 48, 0
14, 24960, Note_on_c, 13, 48, 80
14, 25152, Note_on_c, 13, 48, 0
14, 25200, Note_on_c, 13, 48, 50
14, 25248, Note_on_c, 13, 48, 0
14, 25260, Note_on_c, 13, 48, 50
14, 25308, Note_on_c, 13, 48, 0
14, 25320, Note_on_c, 13, 48, 51
14, 25512, Note_on_c, 13, 48, 0
14, 25560, Note_on_c, 13, 48, 55
14, 25608, Note_on_c, 13, 48, 0
14, 25620, Note_on_c, 13, 48, 55
14, 25668, Note_on_c, 13, 48, 0
14, 25680, Note_on_c, 13, 48, 56
14, 25872, Note_on_c, 13, 48, 0
14, 25920, Note_on_c, 13, 48, 60
14, 25968, Note_on_c, 13, 48, 0
14, 25980, Note_on_c, 13, 48, 60
14, 26028, Note_on_c, 13, 48, 0
14, 26040, Note_on_c, 13, 48, 61
14, 26232, Note_on_c, 13, 48, 0
14, 26280, Note_on_c, 13, 48, 65
14, 26328, Note_on_c, 13, 48, 0
14, 26340, Note_on_c, 13, 48, 65
14, 26388, Note_on_c, 13, 48, 0
14, 26400, Note_on_c, 13, 48, 66
14, 26592, Note_on_c, 13, 48, 0
14, 26640, Note_on_c, 13, 36, 70
14, 26640, Note_on_c, 13, 48, 70
14, 26928, Note_on_c, 13, 48, 0
14, 27000, Note_on_c, 13, 46, 75
14, 27288, Note_on_c, 13, 46, 0
14, 27360, Note_on_c, 13, 43, 80
14, 27648, Note_on_c, 13, 43, 0
14, 27648, Note_on_c, 13, 36, 0
14, 27720, Note_on_c, 13, 40, 85
14, 28008, Note_on_c, 13, 40, 0
14, 28080, Note_on_c, 13, 48, 90
14, 28080, Note_on_c, 13, 36, 90
14, 28368, Note_on_c, 13, 48, 0
14, 28800, Note_on_c, 13, 43, 100
14, 29088, Note_on_c, 13, 43, 0
14, 29088, Note_on_c, 13, 36, 0
14, 29160, Note_on_c, 13, 40, 105
14, 29448, Note_on_c, 13, 40, 0
14, 29520, Note_on_c, 13, 36, 110
14, 29568, Note_on_c, 13, 36, 0
14, 29580, Note_on_c, 13, 36, 111
14, 29628, Note_on_c, 13, 36, 0
14, 29640, Note_on_c, 13, 36, 111
14, 29832, Note_on_c, 13, 36, 0
14, 29880, Note_on_c, 13, 36, 115
14, 29928, Note_on_c, 13, 36, 0
14, 29940, Note_on_c, 13, 36, 116
14, 29988, Note_on_c, 13, 36, 0
14, 30000, Note_on_c, 13, 36, 116
14, 30192, Note_on_c, 13, 36, 0
14, 30240, Note_on_c, 13, 36, 120
14, 30288, Note_on_c, 13, 36, 0
14, 30300, Note_on_c, 13, 36, 121
14, 30348, Note_on_c, 13, 36, 0
14, 30360, Note_on_c, 13, 36, 121
14, 30552, Note_on_c, 13, 36, 0
14, 30600, Note_on_c, 13, 36, 125
14, 30696, Note_on_c, 13, 36, 0
14, 30840, Note_on_c, 13, 36, 127
14, 30900, Note_on_c, 13, 36, 0
14, 30900, Note_on_c, 13, 37, 127
14, 30960, Note_on_c, 13, 37, 0
14, 30960, Note_on_c, 13, 36, 127
14, 31020, Note_on_c, 13, 36, 0
14, 31020, Note_on_c, 13, 37, 126
14, 31080, Note_on_c, 13, 37, 0
14, 31080, Note_on_c, 13, 36, 126
14, 31140, Note_on_c, 13, 36, 0
14, 31140, Note_on_c, 13, 37, 125
14, 31200, Note_on_c, 13, 37, 0
14, 31200, Note_on_c, 13, 36, 125
14, 31260, Note_on_c, 13, 36, 0
14, 31260, Note_on_c, 13, 37, 124
14, 31308, Note_on_c, 13, 37, 0
14, 31320, Note_on_c, 13, 36, 124
14, 31380, Note_on_c, 13, 36, 0
14, 31380, Note_on_c, 13, 37, 124
14, 31440, Note_on_c, 13, 37, 0
14, 31440, Note_on_c, 13, 36, 123
14, 31500, Note_on_c, 13, 36, 0
14, 31500, Note_on_c, 13, 37, 123
14, 31560, Note_on_c, 13, 37, 0
14, 31560, Note_on_c, 13, 36, 122
14, 31620, Note_on_c, 13, 36, 0
14, 31620, Note_on_c, 13, 37, 122
14, 31668, Note_on_c, 13, 37, 0
14, 31680, Note_on_c, 13, 36, 121
14, 31740, Note_on_c, 13, 36, 0
14, 31740, Note_on_c, 13, 37, 121
14, 31800, Note_on_c, 13, 37, 0
14, 31800, Note_on_c, 13, 36, 121
14, 31860, Note_on_c, 13, 36, 0
14, 31860, Note_on_c, 13, 37, 120
14, 31920, Note_on_c, 13, 37, 0
14, 31920, Note_on_c, 13, 36, 120
14, 31980, Note_on_c, 13, 36, 0
14, 31980, Note_on_c, 13, 37, 119
14, 32028, Note_on_c, 13, 37, 0
14, 32040, Note_on_c, 13, 36, 119
14, 32100, Note_on_c, 13, 36, 0
14, 32100, Note_on_c, 13, 37, 118
14, 32160, Note_on_c, 13, 37, 0
14, 32160, Note_on_c, 13, 36, 118
14, 32220, Note_on_c, 13, 36, 0
14, 32220, Note_on_c, 13, 37, 117
14, 32280, Note_on_c, 13, 37, 0
14, 32280, Note_on_c, 13, 36, 117
14, 32340, Note_on_c, 13, 36, 0
14, 32340, Note_on_c, 13, 37, 117
14, 32388, Note_on_c, 13, 37, 0
14, 32400, Note_on_c, 13, 36, 116
14, 32460, Note_on_c, 13, 36, 0
14, 32460, Note_on_c, 13, 37, 116
14, 32520, Note_on_c, 13, 37, 0
14, 32520, Note_on_c, 13, 36, 115
14, 32580, Note_on_c, 13, 36, 0
14, 32580, Note_on_c, 13, 37, 115
14, 32640, Note_on_c, 13, 37, 0
14, 32640, Note_on_c, 13, 36, 114
14, 32700, Note_on_c, 13, 36, 0
14, 32700, Note_on_c, 13, 37, 114
14, 32748, Note_on_c, 13, 37, 0
14, 32760, Note_on_c, 13, 36, 114
14, 32820, Note_on_c, 13, 36, 0
14, 32820, Note_on_c, 13, 37, 113
14, 32880, Note_on_c, 13, 37, 0
14, 32880, Note_on_c, 13, 36, 113
14, 32940, Note_on_c, 13, 36, 0
14, 32940, Note_on_c, 13, 37, 112
14, 33000, Note_on_c, 13, 37, 0
14, 33000, Note_on_c, 13, 36, 112
14, 33060, Note_on_c, 13, 36, 0
14, 33060, Note_on_c, 13, 37, 111
14, 33108, Note_on_c, 13, 37, 0
14, 33120, Note_on_c, 13, 36, 111
14, 33180, Note_on_c, 13, 36, 0
14, 33180, Note_on_c, 13, 37, 111
14, 33240, Note_on_c, 13, 37, 0
14, 33240, Note_on_c, 13, 36, 110
14, 33300, Note_on_c, 13, 36, 0
14, 33300, Note_on_c, 13, 37, 110
14, 33360, Note_on_c, 13, 37, 0
14, 33360, Note_on_c, 13, 36, 109
14, 33456, Note_on_c, 13, 36, 0
14, 33480, Note_on_c, 13, 41, 108
14, 33528, Note_on_c, 13, 41, 0
14, 33540, Note_on_c, 13, 41, 108
14, 33588, Note_on_c, 13, 41, 0
14, 33600, Note_on_c, 13, 41, 107
14, 33792, Note_on_c, 13, 41, 0
14, 33840, Note_on_c, 13, 53, 106
14, 33888, Note_on_c, 13, 53, 0
14, 33900, Note_on_c, 13, 53, 105
14, 33948, Note_on_c, 13, 53, 0
14, 33960, Note_on_c, 13, 53, 105
14, 34152, Note_on_c, 13, 53, 0
14, 34200, Note_on_c, 13, 53, 103
14, 34248, Note_on_c, 13, 53, 0
14, 34260, Note_on_c, 13, 53, 103
14, 34308, Note_on_c, 13, 53, 0
14, 34320, Note_on_c, 13, 53, 102
14, 34512, Note_on_c, 13, 53, 0
14, 34560, Note_on_c, 13, 53, 100
14, 34656, Note_on_c, 13, 53, 0
14, 34680, Note_on_c, 13, 53, 109
14, 34776, Note_on_c, 13, 53, 0
14, 34800, Note_on_c, 13, 53, 118
14, 34896, Note_on_c, 13, 53, 0
14, 34920, Note_on_c, 13, 41, 127
14, 34968, Note_on_c, 13, 41, 0
14, 34980, Note_on_c, 13, 41, 127
14, 35028, Note_on_c, 13, 41, 0
14, 35040, Note_on_c, 13, 41, 100
14, 35232, Note_on_c, 13, 41, 0
14, 35280, Note_on_c, 13, 41, 104
14, 35328, Note_on_c, 13, 41, 0
14, 35340, Note_on_c, 13, 41, 106
14, 35388, Note_on_c, 13, 41, 0
14, 35400, Note_on_c, 13, 41, 107
14, 35592, Note_on_c, 13, 41, 0
14, 35640, Note_on_c, 13, 41, 112
14, 35688, Note_on_c, 13, 41, 0
14, 35700, Note_on_c, 13, 41, 113
14, 35748, Note_on_c, 13, 41, 0
14, 35760, Note_on_c, 13, 41, 114
14, 35952, Note_on_c, 13, 41, 0
14, 36000, Note_on_c, 13, 41, 119
14, 36096, Note_on_c, 13, 41, 0
14, 36120, Note_on_c, 13, 41, 122
14, 36216, Note_on_c, 13, 41, 0
14, 36240, Note_on_c, 13, 40, 124
14, 36336, Note_on_c, 13, 40, 0
14, 36360, Note_on_c, 13, 39, 127
14, 36648, Note_on_c, 13, 39, 0
14, 36720, Note_on_c, 13, 39, 127
14, 37008, Note_on_c, 13, 39, 0
14, 37080, Note_on_c, 13, 39, 127
14, 37368, Note_on_c, 13, 39, 0
14, 37440, Note_on_c, 13, 39, 127
14, 37728, Note_on_c, 13, 39, 0
14, 37800, Note_on_c, 13, 39, 127
14, 38088, Note_on_c, 13, 39, 0
14, 38160, Note_on_c, 13, 39, 127
14, 38448, Note_on_c, 13, 39, 0
14, 38520, Note_on_c, 13, 39, 127
14, 38808, Note_on_c, 13, 39, 0
14, 38880, Note_on_c, 13, 39, 127
14, 38976, Note_on_c, 13, 39, 0
14, 39240, Note_on_c, 13, 44, 127
14, 39300, Note_on_c, 13, 44, 0
14, 39360, Note_on_c, 13, 44, 127
14, 39420, Note_on_c, 13, 44, 0
14, 39540, Note_on_c, 13, 44, 127
14, 39588, Note_on_c, 13, 44, 0
14, 39600, Note_on_c, 13, 49, 127
14, 39696, Note_on_c, 13, 49, 0
14, 39720, Note_on_c, 13, 49, 127
14, 39816, Note_on_c, 13, 49, 0
14, 40680, Note_on_c, 13, 44, 127
14, 40740, Note_on_c, 13, 44, 0
14, 40800, Note_on_c, 13, 44, 127
14, 40860, Note_on_c, 13, 44, 0
14, 40980, Note_on_c, 13, 44, 127
14, 41028, Note_on_c, 13, 44, 0
14, 41040, Note_on_c, 13, 49, 127
14, 41136, Note_on_c, 13, 49, 0
14, 41160, Note_on_c, 13, 49, 127
14, 41256, Note_on_c, 13, 49, 0
14, 42120, Note_on_c, 13, 44, 127
14, 42180, Note_on_c, 13, 44, 0
14, 42240, Note_on_c, 13, 44, 127
14, 42300, Note_on_c, 13, 44, 0
14, 42420, Note_on_c, 13, 44, 127
14, 42468, Note_on_c, 13, 44, 0
14, 42480, Note_on_c, 13, 49, 127
14, 42576, Note_on_c, 13, 49, 0
14, 42600, Note_on_c, 13, 49, 127
14, 42696, Note_on_c, 13, 49, 0
14, 42840, Note_on_c, 13, 45, 50
14, 44928, Note_on_c, 13, 45, 0
14, 45000, Note_on_c, 13, 44, 67
14, 45288, Note_on_c, 13, 44, 0
14, 45360, Note_on_c, 13, 43, 70
14, 45648, Note_on_c, 13, 43, 0
14, 45720, Note_on_c, 13, 44, 95
14, 46008, Note_on_c, 13, 44, 0
14, 46080, Note_on_c, 13, 49, 95
14, 46368, Note_on_c, 13, 49, 0
14, 46440, Note_on_c, 13, 46, 95
14, 46728, Note_on_c, 13, 46, 0
14, 46800, Note_on_c, 13, 51, 95
14, 47088, Note_on_c, 13, 51, 0
14, 47160, Note_on_c, 13, 44, 95
14, 47208, Note_on_c, 13, 44, 0
14, 47220, Note_on_c, 13, 44, 95
14, 47268, Note_on_c, 13, 44, 0
14, 47280, Note_on_c, 13, 44, 95
14, 47328, Note_on_c, 13, 44, 0
14, 47340, Note_on_c, 13, 44, 112
14, 47388, Note_on_c, 13, 44, 0
14, 47400, Note_on_c, 13, 44, 112
14, 47448, Note_on_c, 13, 44, 0
14, 47460, Note_on_c, 13, 44, 112
14, 47508, Note_on_c, 13, 44, 0
14, 47520, Note_on_c, 13, 44, 112
14, 47568, Note_on_c, 13, 44, 0
14, 47580, Note_on_c, 13, 44, 112
14, 47628, Note_on_c, 13, 44, 0
14, 47640, Note_on_c, 13, 44, 112
14, 47688, Note_on_c, 13, 44, 0
14, 47700, Note_on_c, 13, 44, 112
14, 47748, Note_on_c, 13, 44, 0
14, 47760, Note_on_c, 13, 44, 112
14, 47808, Note_on_c, 13, 44, 0
14, 47820, Note_on_c, 13, 44, 112
14, 47868, Note_on_c, 13, 44, 0
14, 47880, Note_on_c, 13, 44, 112
14, 47928, Note_on_c, 13, 44, 0
14, 47940, Note_on_c, 13, 44, 112
14, 47988, Note_on_c, 13, 44, 0
14, 48000, Note_on_c, 13, 44, 112
14, 48048, Note_on_c, 13, 44, 0
14, 48060, Note_on_c, 13, 44, 112
14, 48108, Note_on_c, 13, 44, 0
14, 48120, Note_on_c, 13, 44, 112
14, 48168, Note_on_c, 13, 44, 0
14, 48180, Note_on_c, 13, 44, 112
14, 48228, Note_on_c, 13, 44, 0
14, 48240, Note_on_c, 13, 44, 112
14, 48288, Note_on_c, 13, 44, 0
14, 48300, Note_on_c, 13, 44, 112
14, 48348, Note_on_c, 13, 44, 0
14, 48360, Note_on_c, 13, 44, 112
14, 48408, Note_on_c, 13, 44, 0
14, 48420, Note_on_c, 13, 44, 112
14, 48468, Note_on_c, 13, 44, 0
14, 48480, Note_on_c, 13, 44, 112
14, 48528, Note_on_c, 13, 44, 0
14, 48540, Note_on_c, 13, 44, 112
14, 48588, Note_on_c, 13, 44, 0
14, 48600, Note_on_c, 13, 44, 112
14, 48648, Note_on_c, 13, 44, 0
14, 48660, Note_on_c, 13, 44, 112
14, 48708, Note_on_c, 13, 44, 0
14, 48720, Note_on_c, 13, 44, 95
14, 48768, Note_on_c, 13, 44, 0
14, 48780, Note_on_c, 13, 44, 98
14, 48828, Note_on_c, 13, 44, 0
14, 48840, Note_on_c, 13, 44, 101
14, 48888, Note_on_c, 13, 44, 0
14, 48900, Note_on_c, 13, 44, 104
14, 48948, Note_on_c, 13, 44, 0
14, 48960, Note_on_c, 13, 44, 107
14, 49008, Note_on_c, 13, 44, 0
14, 49020, Note_on_c, 13, 44, 111
14, 49068, Note_on_c, 13, 44, 0
14, 49080, Note_on_c, 13, 44, 114
14, 49128, Note_on_c, 13, 44, 0
14, 49140, Note_on_c, 13, 44, 117
14, 49188, Note_on_c, 13, 44, 0
14, 49200, Note_on_c, 13, 44, 120
14, 49248, Note_on_c, 13, 44, 0
14, 49260, Note_on_c, 13, 44, 123
14, 49308, Note_on_c, 13, 44, 0
14, 49320, Note_on_c, 13, 44, 127
14, 49368, Note_on_c, 13, 44, 0
14, 49380, Note_on_c, 13, 44, 127
14, 49428, Note_on_c, 13, 44, 0
14, 49440, Note_on_c, 13, 44, 127
14, 49488, Note_on_c, 13, 44, 0
14, 49500, Note_on_c, 13, 44, 127
14, 49548, Note_on_c, 13, 44, 0
14, 49560, Note_on_c, 13, 44, 127
14, 49608, Note_on_c, 13, 44, 0
14, 49620, Note_on_c, 13, 44, 127
14, 49668, Note_on_c, 13, 44, 0
14, 49680, Note_on_c, 13, 44, 127
14, 49728, Note_on_c, 13, 44, 0
14, 49740, Note_on_c, 13, 44, 127
14, 49788, Note_on_c, 13, 44, 0
14, 49800, Note_on_c, 13, 44, 127
14, 49848, Note_on_c, 13, 44, 0
14, 49860, Note_on_c, 13, 44, 127
14, 49908, Note_on_c, 13, 44, 0
14, 49920, Note_on_c, 13, 44, 127
14, 49968, Note_on_c, 13, 44, 0
14, 49980, Note_on_c, 13, 44, 127
14, 50028, Note_on_c, 13, 44, 0
14, 50040, Note_on_c, 13, 44, 127
14, 50088, Note_on_c, 13, 44, 0
14, 50100, Note_on_c, 13, 44, 127
14, 50148, Note_on_c, 13, 44, 0
14, 50160, Note_on_c, 13, 44, 127
14, 50208, Note_on_c, 13, 44, 0
14, 50220, Note_on_c, 13, 44, 127
14, 50268, Note_on_c, 13, 44, 0
14, 50280, Note_on_c, 13, 44, 127
14, 50328, Note_on_c, 13, 44, 0
14, 50340, Note_on_c, 13, 44, 127
14, 50388, Note_on_c, 13, 44, 0
14, 50400, Note_on_c, 13, 44, 127
14, 50448, Note_on_c, 13, 44, 0
14, 50460, Note_on_c, 13, 44, 127
14, 50508, Note_on_c, 13, 44, 0
14, 50520, Note_on_c, 13, 44, 127
14, 50568, Note_on_c, 13, 44, 0
14, 50580, Note_on_c, 13, 44, 127
14, 50628, Note_on_c, 13, 44, 0
14, 50640, Note_on_c, 13, 44, 127
14, 50688, Note_on_c, 13, 44, 0
14, 50700, Note_on_c, 13, 44, 127
14, 50748, Note_on_c, 13, 44, 0
14, 50760, Note_on_c, 13, 44, 127
14, 50808, Note_on_c, 13, 44, 0
14, 50820, Note_on_c, 13, 44, 127
14, 50868, Note_on_c, 13, 44, 0
14, 50880, Note_on_c, 13, 44, 127
14, 50928, Note_on_c, 13, 44, 0
14, 50940, Note_on_c, 13, 44, 127
14, 50988, Note_on_c, 13, 44, 0
14, 51000, Note_on_c, 13, 44, 127
14, 51048, Note_on_c, 13, 44, 0
14, 51060, Note_on_c, 13, 44, 127
14, 51108, Note_on_c, 13, 44, 0
14, 51120, Note_on_c, 13, 44, 127
14, 51168, Note_on_c, 13, 44, 0
14, 51180, Note_on_c, 13, 44, 127
14, 51228, Note_on_c, 13, 44, 0
14, 51240, Note_on_c, 13, 44, 127
14, 51288, Note_on_c, 13, 44, 0
14, 51300, Note_on_c, 13, 44, 127
14, 51348, Note_on_c, 13, 44, 0
14, 51360, Note_on_c, 13, 44, 127
14, 51408, Note_on_c, 13, 44, 0
14, 51420, Note_on_c, 13, 44, 127
14, 51468, Note_on_c, 13, 44, 0
14, 51480, Note_on_c, 13, 44, 127
14, 51576, Note_on_c, 13, 44, 0
14, 52920, Note_on_c, 13, 43, 50
14, 53016, Note_on_c, 13, 43, 0
14, 53640, Note_on_c, 13, 51, 50
14, 53736, Note_on_c, 13, 51, 0
14, 54240, Note_on_c, 13, 51, 127
14, 54336, Note_on_c, 13, 51, 0
14, 54360, Note_on_c, 13, 44, 127
14, 54456, Note_on_c, 13, 44, 0
14, 55800, Note_on_c, 13, 45, 50
14, 55896, Note_on_c, 13, 45, 0
14, 56520, Note_on_c, 13, 41, 50
14, 56616, Note_on_c, 13, 41, 0
14, 57120, Note_on_c, 13, 53, 127
14, 57216, Note_on_c, 13, 53, 0
14, 57240, Note_on_c, 13, 46, 127
14, 57336, Note_on_c, 13, 46, 0
14, 58680, Note_on_c, 13, 45, 50
14, 58776, Note_on_c, 13, 45, 0
14, 59400, Note_on_c, 13, 41, 50
14, 59496, Note_on_c, 13, 41, 0
14, 60000, Note_on_c, 13, 53, 127
14, 60096, Note_on_c, 13, 53, 0
14, 60120, Note_on_c, 13, 46, 127
14, 60216, Note_on_c, 13, 46, 0
14, 61440, Note_on_c, 13, 43, 50
14, 61536, Note_on_c, 13, 43, 0
14, 62160, Note_on_c, 13, 55, 50
14, 62280, Note_on_c, 13, 55, 0
14, 62280, Note_on_c, 13, 56, 50
14, 62400, Note_on_c, 13, 56, 0
14, 62400, Note_on_c, 13, 55, 50
14, 62520, Note_on_c, 13, 55, 0
14, 62520, Note_on_c, 13, 51, 50
14, 62640, Note_on_c, 13, 51, 0
14, 62640, Note_on_c, 13, 48, 50
14, 62760, Note_on_c, 13, 48, 0
14, 62760, Note_on_c, 13, 44, 53
14, 62880, Note_on_c, 13, 44, 0
14, 62880, Note_on_c, 13, 43, 56
14, 63000, Note_on_c, 13, 43, 0
14, 63000, Note_on_c, 13, 39, 60
14, 63120, Note_on_c, 13, 39, 0
14, 63120, Note_on_c, 13, 51, 63
14, 63240, Note_on_c, 13, 51, 0
14, 63240, Note_on_c, 13, 48, 66
14, 63360, Note_on_c, 13, 48, 0
14, 63360, Note_on_c, 13, 43, 70
14, 63456, Note_on_c, 13, 43, 0
14, 63600, Note_on_c, 13, 55, 76
14, 63720, Note_on_c, 13, 55, 0
14, 63720, Note_on_c, 13, 56, 80
14, 63840, Note_on_c, 13, 56, 0
14, 63840, Note_on_c, 13, 55, 83
14, 63960, Note_on_c, 13, 55, 0
14, 63960, Note_on_c, 13, 53, 86
14, 64080, Note_on_c, 13, 53, 0
14, 64080, Note_on_c, 13, 50, 90
14, 64200, Note_on_c, 13, 50, 0
14, 64200, Note_on_c, 13, 47, 93
14, 64320, Note_on_c, 13, 47, 0
14, 64320, Note_on_c, 13, 55, 96
14, 64440, Note_on_c, 13, 55, 0
14, 64440, Note_on_c, 13, 53, 100
14, 64560, Note_on_c, 13, 53, 0
14, 64560, Note_on_c, 13, 50, 103
14, 64680, Note_on_c, 13, 50, 0
14, 64680, Note_on_c, 13, 47, 106
14, 64776, Note_on_c, 13, 47, 0
14, 67560, Note_on_c, 13, 60, 50
14, 67620, Note_on_c, 13, 60, 0
14, 67620, Note_on_c, 13, 58, 52
14, 67680, Note_on_c, 13, 58, 0
14, 67680, Note_on_c, 13, 56, 55
14, 67740, Note_on_c, 13, 56, 0
14, 67740, Note_on_c, 13, 55, 57
14, 67800, Note_on_c, 13, 55, 0
14, 67800, Note_on_c, 13, 60, 60
14, 67860, Note_on_c, 13, 60, 0
14, 67860, Note_on_c, 13, 58, 62
14, 67920, Note_on_c, 13, 58, 0
14, 67920, Note_on_c, 13, 56, 65
14, 67980, Note_on_c, 13, 56, 0
14, 67980, Note_on_c, 13, 55, 67
14, 68028, Note_on_c, 13, 55, 0
14, 68040, Note_on_c, 13, 60, 70
14, 68100, Note_on_c, 13, 60, 0
14, 68100, Note_on_c, 13, 58, 72
14, 68160, Note_on_c, 13, 58, 0
14, 68160, Note_on_c, 13, 56, 75
14, 68220, Note_on_c, 13, 56, 0
14, 68220, Note_on_c, 13, 55, 77
14, 68268, Note_on_c, 13, 55, 0
14, 68280, Note_on_c, 13, 60, 112
14, 68400, Note_on_c, 13, 60, 0
14, 68400, Note_on_c, 13, 61, 80
14, 68520, Note_on_c, 13, 61, 0
14, 68520, Note_on_c, 13, 60, 80
14, 68640, Note_on_c, 13, 60, 0
14, 68640, Note_on_c, 13, 56, 80
14, 68760, Note_on_c, 13, 56, 0
14, 68760, Note_on_c, 13, 53, 80
14, 68880, Note_on_c, 13, 53, 0
14, 68880, Note_on_c, 13, 49, 80
14, 69000, Note_on_c, 13, 49, 0
14, 69000, Note_on_c, 13, 48, 80
14, 69120, Note_on_c, 13, 48, 0
14, 69120, Note_on_c, 13, 44, 80
14, 69240, Note_on_c, 13, 44, 0
14, 69240, Note_on_c, 13, 41, 80
14, 69360, Note_on_c, 13, 41, 0
14, 69360, Note_on_c, 13, 37, 80
14, 69480, Note_on_c, 13, 37, 0
14, 69480, Note_on_c, 13, 36, 80
14, 69576, Note_on_c, 13, 36, 0
14, 69720, Note_on_c, 13, 60, 80
14, 69840, Note_on_c, 13, 60, 0
14, 69840, Note_on_c, 13, 61, 80
14, 69960, Note_on_c, 13, 61, 0
14, 69960, Note_on_c, 13, 60, 80
14, 70080, Note_on_c, 13, 60, 0
14, 70080, Note_on_c, 13, 58, 80
14, 70200, Note_on_c, 13, 58, 0
14, 70200, Note_on_c, 13, 55, 80
14, 70320, Note_on_c, 13, 55, 0
14, 70320, Note_on_c, 13, 52, 80
14, 70440, Note_on_c, 13, 52, 0
14, 70440, Note_on_c, 13, 49, 80
14, 70560, Note_on_c, 13, 49, 0
14, 70560, Note_on_c, 13, 48, 80
14, 70680, Note_on_c, 13, 48, 0
14, 70680, Note_on_c, 13, 46, 80
14, 70800, Note_on_c, 13, 46, 0
14, 70800, Note_on_c, 13, 43, 80
14, 70860, Note_on_c, 13, 43, 0
14, 70860, Note_on_c, 13, 40, 80
14, 70908, Note_on_c, 13, 40, 0
14, 70920, Note_on_c, 13, 36, 80
14, 71040, Note_on_c, 13, 36, 0
14, 71040, Note_on_c, 13, 41, 80
14, 71136, Note_on_c, 13, 41, 0
14, 71160, Note_on_c, 13, 53, 80
14, 71424, Note_on_c, 13, 53, 0
14, 71460, Note_on_c, 13, 53, 80
14, 71508, Note_on_c, 13, 53, 0
14, 71520, Note_on_c, 13, 53, 80
14, 71568, Note_on_c, 13, 53, 0
14, 71580, Note_on_c, 13, 55, 80
14, 71628, Note_on_c, 13, 55, 0
14, 71640, Note_on_c, 13, 56, 80
14, 71736, Note_on_c, 13, 56, 0
14, 71760, Note_on_c, 13, 53, 80
14, 71856, Note_on_c, 13, 53, 0
14, 71880, Note_on_c, 13, 53, 80
14, 72456, Note_on_c, 13, 53, 0
14, 72600, Note_on_c, 13, 53, 80
14, 72864, Note_on_c, 13, 53, 0
14, 72900, Note_on_c, 13, 53, 80
14, 72948, Note_on_c, 13, 53, 0
14, 72960, Note_on_c, 13, 53, 80
14, 73008, Note_on_c, 13, 53, 0
14, 73020, Note_on_c, 13, 55, 80
14, 73068, Note_on_c, 13, 55, 0
14, 73080, Note_on_c, 13, 56, 80
14, 73128, Note_on_c, 13, 56, 0
14, 73140, Note_on_c, 13, 48, 80
14, 73188, Note_on_c, 13, 48, 0
14, 73200, Note_on_c, 13, 48, 80
14, 73392, Note_on_c, 13, 48, 0
14, 73440, Note_on_c, 13, 48, 50
14, 73488, Note_on_c, 13, 48, 0
14, 73500, Note_on_c, 13, 48, 50
14, 73548, Note_on_c, 13, 48, 0
14, 73560, Note_on_c, 13, 48, 51
14, 73752, Note_on_c, 13, 48, 0
14, 73800, Note_on_c, 13, 48, 54
14, 73848, Note_on_c, 13, 48, 0
14, 73860, Note_on_c, 13, 48, 55
14, 73908, Note_on_c, 13, 48, 0
14, 73920, Note_on_c, 13, 48, 56
14, 74112, Note_on_c, 13, 48, 0
14, 74160, Note_on_c, 13, 48, 59
14, 74208, Note_on_c, 13, 48, 0
14, 74220, Note_on_c, 13, 48, 60
14, 74268, Note_on_c, 13, 48, 0
14, 74280, Note_on_c, 13, 48, 61
14, 74472, Note_on_c, 13, 48, 0
14, 74520, Note_on_c, 13, 48, 64
14, 74568, Note_on_c, 13, 48, 0
14, 74580, Note_on_c, 13, 48, 65
14, 74628, Note_on_c, 13, 48, 0
14, 74640, Note_on_c, 13, 48, 66
14, 74832, Note_on_c, 13, 48, 0
14, 74880, Note_on_c, 13, 36, 69
14, 74880, Note_on_c, 13, 48, 69
14, 75888, Note_on_c, 13, 48, 0
14, 75888, Note_on_c, 13, 36, 0
14, 75960, Note_on_c, 13, 40, 84
14, 76248, Note_on_c, 13, 40, 0
14, 76320, Note_on_c, 13, 36, 89
14, 76320, Note_on_c, 13, 48, 89
14, 77328, Note_on_c, 13, 48, 0
14, 77328, Note_on_c, 13, 36, 0
14, 77400, Note_on_c, 13, 40, 104
14, 77688, Note_on_c, 13, 40, 0
14, 77760, Note_on_c, 13, 36, 109
14, 77808, Note_on_c, 13, 36, 0
14, 77820, Note_on_c, 13, 36, 110
14, 77868, Note_on_c, 13, 36, 0
14, 77880, Note_on_c, 13, 36, 110
14, 78072, Note_on_c, 13, 36, 0
14, 78120, Note_on_c, 13, 36, 114
14, 78168, Note_on_c, 13, 36, 0
14, 78180, Note_on_c, 13, 36, 115
14, 78228, Note_on_c, 13, 36, 0
14, 78240, Note_on_c, 13, 36, 115
14, 78432, Note_on_c, 13, 36, 0
14, 78480, Note_on_c, 13, 36, 119
14, 78528, Note_on_c, 13, 36, 0
14, 78540, Note_on_c, 13, 36, 120
14, 78588, Note_on_c, 13, 36, 0
14, 78600, Note_on_c, 13, 36, 120
14, 78792, Note_on_c, 13, 36, 0
14, 78840, Note_on_c, 13, 36, 124
14, 78936, Note_on_c, 13, 36, 0
14, 79080, Note_on_c, 13, 36, 127
14, 79140, Note_on_c, 13, 36, 0
14, 79140, Note_on_c, 13, 37, 127
14, 79200, Note_on_c, 13, 37, 0
14, 79200, Note_on_c, 13, 36, 127
14, 79260, Note_on_c, 13, 36, 0
14, 79260, Note_on_c, 13, 37, 127
14, 79320, Note_on_c, 13, 37, 0
14, 79320, Note_on_c, 13, 36, 127
14, 79380, Note_on_c, 13, 36, 0
14, 79380, Note_on_c, 13, 37, 127
14, 79440, Note_on_c, 13, 37, 0
14, 79440, Note_on_c, 13, 36, 127
14, 79500, Note_on_c, 13, 36, 0
14, 79500, Note_on_c, 13, 37, 127
14, 79560, Note_on_c, 13, 37, 0
14, 79560, Note_on_c, 13, 36, 127
14, 79620, Note_on_c, 13, 36, 0
14, 79620, Note_on_c, 13, 37, 127
14, 79680, Note_on_c, 13, 37, 0
14, 79680, Note_on_c, 13, 36, 127
14, 79740, Note_on_c, 13, 36, 0
14, 79740, Note_on_c, 13, 37, 127
14, 79800, Note_on_c, 13, 37, 0
14, 79800, Note_on_c, 13, 36, 127
14, 79860, Note_on_c, 13, 36, 0
14, 79860, Note_on_c, 13, 37, 127
14, 79920, Note_on_c, 13, 37, 0
14, 79920, Note_on_c, 13, 36, 127
14, 79980, Note_on_c, 13, 36, 0
14, 79980, Note_on_c, 13, 37, 127
14, 80040, Note_on_c, 13, 37, 0
14, 80040, Note_on_c, 13, 36, 127
14, 80100, Note_on_c, 13, 36, 0
14, 80100, Note_on_c, 13, 37, 127
14, 80160, Note_on_c, 13, 37, 0
14, 80160, Note_on_c, 13, 36, 127
14, 80220, Note_on_c, 13, 36, 0
14, 80220, Note_on_c, 13, 37, 127
14, 80280, Note_on_c, 13, 37, 0
14, 80280, Note_on_c, 13, 36, 127
14, 80340, Note_on_c, 13, 36, 0
14, 80340, Note_on_c, 13, 37, 127
14, 80400, Note_on_c, 13, 37, 0
14, 80400, Note_on_c, 13, 36, 127
14, 80460, Note_on_c, 13, 36, 0
14, 80460, Note_on_c, 13, 37, 127
14, 80520, Note_on_c, 13, 37, 0
14, 80520, Note_on_c, 13, 36, 127
14, 80580, Note_on_c, 13, 36, 0
14, 80580, Note_on_c, 13, 37, 127
14, 80640, Note_on_c, 13, 37, 0
14, 80640, Note_on_c, 13, 36, 127
14, 80700, Note_on_c, 13, 36, 0
14, 80700, Note_on_c, 13, 37, 127
14, 80760, Note_on_c, 13, 37, 0
14, 80760, Note_on_c, 13, 36, 127
14, 80820, Note_on_c, 13, 36, 0
14, 80820, Note_on_c, 13, 37, 127
14, 80880, Note_on_c, 13, 37, 0
14, 80880, Note_on_c, 13, 36, 127
14, 80940, Note_on_c, 13, 36, 0
14, 80940, Note_on_c, 13, 37, 127
14, 81000, Note_on_c, 13, 37, 0
14, 81000, Note_on_c, 13, 36, 127
14, 81060, Note_on_c, 13, 36, 0
14, 81060, Note_on_c, 13, 37, 127
14, 81120, Note_on_c, 13, 37, 0
14, 81120, Note_on_c, 13, 36, 127
14, 81180, Note_on_c, 13, 36, 0
14, 81180, Note_on_c, 13, 37, 127
14, 81240, Note_on_c, 13, 37, 0
14, 81240, Note_on_c, 13, 36, 127
14, 81300, Note_on_c, 13, 36, 0
14, 81300, Note_on_c, 13, 37, 127
14, 81360, Note_on_c, 13, 37, 0
14, 81360, Note_on_c, 13, 36, 127
14, 81420, Note_on_c, 13, 36, 0
14, 81420, Note_on_c, 13, 37, 127
14, 81480, Note_on_c, 13, 37, 0
14, 81480, Note_on_c, 13, 36, 127
14, 81540, Note_on_c, 13, 36, 0
14, 81540, Note_on_c, 13, 37, 127
14, 81600, Note_on_c, 13, 37, 0
14, 81600, Note_on_c, 13, 36, 127
14, 81696, Note_on_c, 13, 36, 0
14, 81720, Note_on_c, 13, 41, 127
14, 81816, Note_on_c, 13, 41, 0
14, 81840, Note_on_c, 13, 41, 127
14, 81936, Note_on_c, 13, 41, 0
14, 81960, Note_on_c, 13, 53, 127
14, 82224, Note_on_c, 13, 53, 0
14, 82260, Note_on_c, 13, 53, 127
14, 82308, Note_on_c, 13, 53, 0
14, 82320, Note_on_c, 13, 53, 127
14, 82368, Note_on_c, 13, 53, 0
14, 82380, Note_on_c, 13, 55, 127
14, 82428, Note_on_c, 13, 55, 0
14, 82440, Note_on_c, 13, 56, 127
14, 82536, Note_on_c, 13, 56, 0
14, 82560, Note_on_c, 13, 53, 127
14, 82656, Note_on_c, 13, 53, 0
14, 82680, Note_on_c, 13, 53, 127
14, 82944, Note_on_c, 13, 53, 0
14, 82980, Note_on_c, 13, 53, 127
14, 83028, Note_on_c, 13, 53, 0
14, 83040, Note_on_c, 13, 53, 127
14, 83088, Note_on_c, 13, 53, 0
14, 83100, Note_on_c, 13, 55, 127
14, 83148, Note_on_c, 13, 55, 0
14, 83160, Note_on_c, 13, 56, 127
14, 83256, Note_on_c, 13, 56, 0
14, 83280, Note_on_c, 13, 53, 127
14, 83376, Note_on_c, 13, 53, 0
14, 83400, Note_on_c, 13, 53, 127
14, 83664, Note_on_c, 13, 53, 0
14, 83700, Note_on_c, 13, 53, 127
14, 83748, Note_on_c, 13, 53, 0
14, 83760, Note_on_c, 13, 53, 127
14, 83808, Note_on_c, 13, 53, 0
14, 83820, Note_on_c, 13, 55, 127
14, 83868, Note_on_c, 13, 55, 0
14, 83880, Note_on_c, 13, 56, 127
14, 83976, Note_on_c, 13, 56, 0
14, 84000, Note_on_c, 13, 53, 127
14, 84096, Note_on_c, 13, 53, 0
14, 84240, Note_on_c, 13, 49, 127
14, 84288, Note_on_c, 13, 49, 0
14, 84300, Note_on_c, 13, 49, 127
14, 84348, Note_on_c, 13, 49, 0
14, 84360, Note_on_c, 13, 49, 127
14, 84552, Note_on_c, 13, 49, 0
14, 84600, Note_on_c, 13, 49, 127
14, 84648, Note_on_c, 13, 49, 0
14, 84660, Note_on_c, 13, 49, 127
14, 84708, Note_on_c, 13, 49, 0
14, 84720, Note_on_c, 13, 49, 127
14, 84912, Note_on_c, 13, 49, 0
14, 84960, Note_on_c, 13, 49, 127
14, 85008, Note_on_c, 13, 49, 0
14, 85020, Note_on_c, 13, 49, 127
14, 85068, Note_on_c, 13, 49, 0
14, 85080, Note_on_c, 13, 49, 127
14, 85272, Note_on_c, 13, 49, 0
14, 85320, Note_on_c, 13, 49, 127
14, 85416, Note_on_c, 13, 49, 0
14, 85440, Note_on_c, 13, 49, 127
14, 85536, Note_on_c, 13, 49, 0
14, 85560, Note_on_c, 13, 49, 127
14, 85656, Note_on_c, 13, 49, 0
14, 85680, Note_on_c, 13, 49, 127
14, 85728, Note_on_c, 13, 49, 0
14, 85740, Note_on_c, 13, 49, 100
14, 85788, Note_on_c, 13, 49, 0
14, 85800, Note_on_c, 13, 49, 101
14, 85992, Note_on_c, 13, 49, 0
14, 86040, Note_on_c, 13, 49, 105
14, 86088, Note_on_c, 13, 49, 0
14, 86100, Note_on_c, 13, 49, 107
14, 86148, Note_on_c, 13, 49, 0
14, 86160, Note_on_c, 13, 49, 108
14, 86352, Note_on_c, 13, 49, 0
14, 86400, Note_on_c, 13, 49, 112
14, 86448, Note_on_c, 13, 49, 0
14, 86460, Note_on_c, 13, 49, 114
14, 86508, Note_on_c, 13, 49, 0
14, 86520, Note_on_c, 13, 49, 115
14, 86712, Note_on_c, 13, 49, 0
14, 86760, Note_on_c, 13, 46, 119
14, 86856, Note_on_c, 13, 46, 0
14, 86880, Note_on_c, 13, 46, 122
14, 86976, Note_on_c, 13, 46, 0
14, 87000, Note_on_c, 13, 44, 124
14, 87096, Note_on_c, 13, 44, 0
14, 87120, Note_on_c, 13, 43, 127
14, 87168, Note_on_c, 13, 43, 0
14, 87180, Note_on_c, 13, 51, 102
14, 87228, Note_on_c, 13, 51, 0
14, 87240, Note_on_c, 13, 51, 104
14, 87288, Note_on_c, 13, 51, 0
14, 87300, Note_on_c, 13, 51, 106
14, 87348, Note_on_c, 13, 51, 0
14, 87360, Note_on_c, 13, 51, 109
14, 87408, Note_on_c, 13, 51, 0
14, 87420, Note_on_c, 13, 51, 111
14, 87468, Note_on_c, 13, 51, 0
14, 87480, Note_on_c, 13, 51, 113
14, 87528, Note_on_c, 13, 51, 0
14, 87540, Note_on_c, 13, 51, 115
14, 87588, Note_on_c, 13, 51, 0
14, 87600, Note_on_c, 13, 51, 118
14, 87648, Note_on_c, 13, 51, 0
14, 87660, Note_on_c, 13, 51, 120
14, 87708, Note_on_c, 13, 51, 0
14, 87720, Note_on_c, 13, 51, 122
14, 87768, Note_on_c, 13, 51, 0
14, 87780, Note_on_c, 13, 51, 124
14, 87828, Note_on_c, 13, 51, 0
14, 87840, Note_on_c, 13, 44, 127
14, 88128, Note_on_c, 13, 44, 0
14, 88200, Note_on_c, 13, 44, 122
14, 88488, Note_on_c, 13, 44, 0
14, 88560, Note_on_c, 13, 44, 117
14, 88848, Note_on_c, 13, 44, 0
14, 88920, Note_on_c, 13, 44, 112
14, 89208, Note_on_c, 13, 44, 0
14, 89280, Note_on_c, 13, 44, 107
14, 89568, Note_on_c, 13, 44, 0
14, 89640, Note_on_c, 13, 44, 102
14, 89928, Note_on_c, 13, 44, 0
14, 90000, Note_on_c, 13, 44, 97
14, 90288, Note_on_c, 13, 44, 0
14, 90360, Note_on_c, 13, 44, 92
14, 90456, Note_on_c, 13, 44, 0
14, 90720, Note_on_c, 13, 49, 112
14, 90816, Note_on_c, 13, 49, 0
14, 90840, Note_on_c, 13, 49, 112
14, 90936, Note_on_c, 13, 49, 0
14, 91020, Note_on_c, 13, 49, 112
14, 91068, Note_on_c, 13, 49, 0
14, 91080, Note_on_c, 13, 42, 112
14, 91176, Note_on_c, 13, 42, 0
14, 91200, Note_on_c, 13, 42, 112
14, 91296, Note_on_c, 13, 42, 0
14, 92160, Note_on_c, 13, 49, 112
14, 92256, Note_on_c, 13, 49, 0
14, 92280, Note_on_c, 13, 49, 112
14, 92376, Note_on_c, 13, 49, 0
14, 92460, Note_on_c, 13, 49, 112
14, 92508, Note_on_c, 13, 49, 0
14, 92520, Note_on_c, 13, 42, 112
14, 92616, Note_on_c, 13, 42, 0
14, 92640, Note_on_c, 13, 42, 112
14, 92736, Note_on_c, 13, 42, 0
14, 93600, Note_on_c, 13, 49, 112
14, 93696, Note_on_c, 13, 49, 0
14, 93720, Note_on_c, 13, 49, 112
14, 93816, Note_on_c, 13, 49, 0
14, 93900, Note_on_c, 13, 49, 112
14, 93948, Note_on_c, 13, 49, 0
14, 93960, Note_on_c, 13, 42, 112
14, 94056, Note_on_c, 13, 42, 0
14, 94080, Note_on_c, 13, 42, 112
14, 94176, Note_on_c, 13, 42, 0
14, 94320, Note_on_c, 13, 50, 50
14, 96408, Note_on_c, 13, 50, 0
14, 96480, Note_on_c, 13, 51, 67
14, 96768, Note_on_c, 13, 51, 0
14, 96840, Note_on_c, 13, 44, 100
14, 97128, Note_on_c, 13, 44, 0
14, 97200, Note_on_c, 13, 49, 127
14, 97488, Note_on_c, 13, 49, 0
14, 97560, Note_on_c, 13, 42, 127
14, 97848, Note_on_c, 13, 42, 0
14, 97920, Note_on_c, 13, 39, 127
14, 97920, Note_on_c, 13, 51, 127
14, 98208, Note_on_c, 13, 51, 0
14, 98208, Note_on_c, 13, 39, 0
14, 98280, Note_on_c, 13, 44, 127
14, 98568, Note_on_c, 13, 44, 0
14, 98640, Note_on_c, 13, 49, 127
14, 98688, Note_on_c, 13, 49, 0
14, 98700, Note_on_c, 13, 49, 127
14, 98748, Note_on_c, 13, 49, 0
14, 98760, Note_on_c, 13, 49, 127
14, 98808, Note_on_c, 13, 49, 0
14, 98820, Note_on_c, 13, 49, 127
14, 98868, Note_on_c, 13, 49, 0
14, 98880, Note_on_c, 13, 49, 127
14, 98928, Note_on_c, 13, 49, 0
14, 98940, Note_on_c, 13, 49, 127
14, 98988, Note_on_c, 13, 49, 0
14, 99000, Note_on_c, 13, 49, 127
14, 99048, Note_on_c, 13, 49, 0
14, 99060, Note_on_c, 13, 49, 127
14, 99108, Note_on_c, 13, 49, 0
14, 99120, Note_on_c, 13, 49, 127
14, 99168, Note_on_c, 13, 49, 0
14, 99180, Note_on_c, 13, 49, 127
14, 99228, Note_on_c, 13, 49, 0
14, 99240, Note_on_c, 13, 49, 127
14, 99288, Note_on_c, 13, 49, 0
14, 99300, Note_on_c, 13, 49, 127
14, 99348, Note_on_c, 13, 49, 0
14, 99360, Note_on_c, 13, 49, 127
14, 99408, Note_on_c, 13, 49, 0
14, 99420, Note_on_c, 13, 49, 127
14, 99468, Note_on_c, 13, 49, 0
14, 99480, Note_on_c, 13, 49, 127
14, 99528, Note_on_c, 13, 49, 0
14, 99540, Note_on_c, 13, 49, 127
14, 99588, Note_on_c, 13, 49, 0
14, 99600, Note_on_c, 13, 49, 127
14, 99648, Note_on_c, 13, 49, 0
14, 99660, Note_on_c, 13, 49, 127
14, 99708, Note_on_c, 13, 49, 0
14, 99720, Note_on_c, 13, 49, 127
14, 99768, Note_on_c, 13, 49, 0
14, 99780, Note_on_c, 13, 49, 127
14, 99828, Note_on_c, 13, 49, 0
14, 99840, Note_on_c, 13, 49, 127
14, 99888, Note_on_c, 13, 49, 0
14, 99900, Note_on_c, 13, 49, 127
14, 99948, Note_on_c, 13, 49, 0
14, 99960, Note_on_c, 13, 49, 127
14, 100008, Note_on_c, 13, 49, 0
14, 100020, Note_on_c, 13, 49, 127
14, 100068, Note_on_c, 13, 49, 0
14, 100080, Note_on_c, 13, 49, 127
14, 100128, Note_on_c, 13, 49, 0
14, 100140, Note_on_c, 13, 49, 127
14, 100188, Note_on_c, 13, 49, 0
14, 100200, Note_on_c, 13, 49, 127
14, 100248, Note_on_c, 13, 49, 0
14, 100260, Note_on_c, 13, 49, 127
14, 100308, Note_on_c, 13, 49, 0
14, 100320, Note_on_c, 13, 49, 127
14, 100368, Note_on_c, 13, 49, 0
14, 100380, Note_on_c, 13, 49, 127
14, 100428, Note_on_c, 13, 49, 0
14, 100440, Note_on_c, 13, 49, 127
14, 100488, Note_on_c, 13, 49, 0
14, 100500, Note_on_c, 13, 49, 127
14, 100548, Note_on_c, 13, 49, 0
14, 100560, Note_on_c, 13, 49, 127
14, 100608, Note_on_c, 13, 49, 0
14, 100620, Note_on_c, 13, 49, 127
14, 100668, Note_on_c, 13, 49, 0
14, 100680, Note_on_c, 13, 49, 127
14, 100728, Note_on_c, 13, 49, 0
14, 100740, Note_on_c, 13, 49, 127
14, 100788, Note_on_c, 13, 49, 0
14, 100800, Note_on_c, 13, 49, 127
14, 100848, Note_on_c, 13, 49, 0
14, 100860, Note_on_c, 13, 49, 127
14, 100908, Note_on_c, 13, 49, 0
14, 100920, Note_on_c, 13, 49, 127
14, 100968, Note_on_c, 13, 49, 0
14, 100980, Note_on_c, 13, 49, 127
14, 101028, Note_on_c, 13, 49, 0
14, 101040, Note_on_c, 13, 49, 127
14, 101088, Note_on_c, 13, 49, 0
14, 101100, Note_on_c, 13, 49, 127
14, 101148, Note_on_c, 13, 49, 0
14, 101160, Note_on_c, 13, 49, 127
14, 101208, Note_on_c, 13, 49, 0
14, 101220, Note_on_c, 13, 49, 127
14, 101268, Note_on_c, 13, 49, 0
14, 101280, Note_on_c, 13, 49, 127
14, 101328, Note_on_c, 13, 49, 0
14, 101340, Note_on_c, 13, 49, 127
14, 101388, Note_on_c, 13, 49, 0
14, 101400, Note_on_c, 13, 49, 127
14, 101448, Note_on_c, 13, 49, 0
14, 101460, Note_on_c, 13, 49, 127
14, 101508, Note_on_c, 13, 49, 0
14, 101520, Note_on_c, 13, 49, 127
14, 101568, Note_on_c, 13, 49, 0
14, 101580, Note_on_c, 13, 49, 127
14, 101628, Note_on_c, 13, 49, 0
14, 101640, Note_on_c, 13, 49, 127
14, 101688, Note_on_c, 13, 49, 0
14, 101700, Note_on_c, 13, 49, 127
14, 101748, Note_on_c, 13, 49, 0
14, 101760, Note_on_c, 13, 49, 127
14, 101808, Note_on_c, 13, 49, 0
14, 101820, Note_on_c, 13, 49, 127
14, 101868, Note_on_c, 13, 49, 0
14, 101880, Note_on_c, 13, 49, 127
14, 101928, Note_on_c, 13, 49, 0
14, 101940, Note_on_c, 13, 49, 127
14, 101988, Note_on_c, 13, 49, 0
14, 102000, Note_on_c, 13, 49, 127
14, 102048, Note_on_c, 13, 49, 0
14, 102060, Note_on_c, 13, 49, 127
14, 102108, Note_on_c, 13, 49, 0
14, 102120, Note_on_c, 13, 49, 127
14, 102168, Note_on_c, 13, 49, 0
14, 102180, Note_on_c, 13, 49, 127
14, 102228, Note_on_c, 13, 49, 0
14, 102240, Note_on_c, 13, 49, 127
14, 102288, Note_on_c, 13, 49, 0
14, 102300, Note_on_c, 13, 49, 127
14, 102348, Note_on_c, 13, 49, 0
14, 102360, Note_on_c, 13, 49, 127
14, 102408, Note_on_c, 13, 49, 0
14, 102420, Note_on_c, 13, 49, 127
14, 102468, Note_on_c, 13, 49, 0
14, 102480, Note_on_c, 13, 49, 127
14, 102528, Note_on_c, 13, 49, 0
14, 102540, Note_on_c, 13, 49, 127
14, 102588, Note_on_c, 13, 49, 0
14, 102600, Note_on_c, 13, 49, 127
14, 102648, Note_on_c, 13, 49, 0
14, 102660, Note_on_c, 13, 49, 127
14, 102708, Note_on_c, 13, 49, 0
14, 102720, Note_on_c, 13, 49, 127
14, 102768, Note_on_c, 13, 49, 0
14, 102780, Note_on_c, 13, 49, 127
14, 102828, Note_on_c, 13, 49, 0
14, 102840, Note_on_c, 13, 49, 127
14, 102888, Note_on_c, 13, 49, 0
14, 102900, Note_on_c, 13, 49, 127
14, 102948, Note_on_c, 13, 49, 0
14, 102960, Note_on_c, 13, 49, 127
14, 103056, Note_on_c, 13, 49, 0
14, 104400, Note_on_c, 13, 61, 50
14, 104496, Note_on_c, 13, 61, 0
14, 104520, Note_on_c, 13, 61, 50
14, 104616, Note_on_c, 13, 61, 0
14, 104760, Note_on_c, 13, 61, 50
14, 104856, Note_on_c, 13, 61, 0
14, 104880, Note_on_c, 13, 61, 50
14, 104976, Note_on_c, 13, 61, 0
14, 105120, Note_on_c, 13, 60, 50
14, 105216, Note_on_c, 13, 60, 0
14, 105240, Note_on_c, 13, 60, 50
14, 105336, Note_on_c, 13, 60, 0
14, 105480, Note_on_c, 13, 57, 50
14, 105576, Note_on_c, 13, 57, 0
14, 105600, Note_on_c, 13, 57, 50
14, 105696, Note_on_c, 13, 57, 0
14, 107280, Note_on_c, 13, 58, 50
14, 107376, Note_on_c, 13, 58, 0
14, 107400, Note_on_c, 13, 58, 50
14, 107496, Note_on_c, 13, 58, 0
14, 107640, Note_on_c, 13, 58, 50
14, 107736, Note_on_c, 13, 58, 0
14, 107760, Note_on_c, 13, 58, 50
14, 107856, Note_on_c, 13, 58, 0
14, 108000, Note_on_c, 13, 55, 50
14, 108096, Note_on_c, 13, 55, 0
14, 108120, Note_on_c, 13, 55, 50
14, 108216, Note_on_c, 13, 55, 0
14, 108360, Note_on_c, 13, 52, 50
14, 108456, Note_on_c, 13, 52, 0
14, 108480, Note_on_c, 13, 52, 50
14, 108576, Note_on_c, 13, 52, 0
14, 108720, Note_on_c, 13, 41, 127
14, 108816, Note_on_c, 13, 41, 0
14, 108840, Note_on_c, 13, 41, 127
14, 108936, Note_on_c, 13, 41, 0
14, 109020, Note_on_c, 13, 41, 127
14, 109068, Note_on_c, 13, 41, 0
14, 109080, Note_on_c, 13, 41, 127
14, 109176, Note_on_c, 13, 41, 0
14, 109200, Note_on_c, 13, 41, 127
14, 109296, Note_on_c, 13, 41, 0
14, 109380, Note_on_c, 13, 41, 127
14, 109428, Note_on_c, 13, 41, 0
14, 109440, Note_on_c, 13, 40, 127
14, 109536, Note_on_c, 13, 40, 0
14, 109560, Note_on_c, 13, 40, 127
14, 109656, Note_on_c, 13, 40, 0
14, 113400, Note_on_c, 13, 48, 50
14, 113460, Note_on_c, 13, 48, 0
14, 113460, Note_on_c, 13, 47, 50
14, 113508, Note_on_c, 13, 47, 0
14, 113520, Note_on_c, 13, 48, 50
14, 113568, Note_on_c, 13, 48, 0
14, 113580, Note_on_c, 13, 48, 50
14, 113628, Note_on_c, 13, 48, 0
14, 113640, Note_on_c, 13, 48, 50
14, 113688, Note_on_c, 13, 48, 0
14, 113700, Note_on_c, 13, 48, 50
14, 113748, Note_on_c, 13, 48, 0
14, 113760, Note_on_c, 13, 48, 50
14, 113808, Note_on_c, 13, 48, 0
14, 113820, Note_on_c, 13, 48, 50
14, 113868, Note_on_c, 13, 48, 0
14, 113880, Note_on_c, 13, 48, 50
14, 113940, Note_on_c, 13, 48, 0
14, 113940, Note_on_c, 13, 47, 50
14, 113988, Note_on_c, 13, 47, 0
14, 114000, Note_on_c, 13, 48, 50
14, 114048, Note_on_c, 13, 48, 0
14, 114060, Note_on_c, 13, 48, 50
14, 114108, Note_on_c, 13, 48, 0
14, 114120, Note_on_c, 13, 48, 50
14, 114168, Note_on_c, 13, 48, 0
14, 114180, Note_on_c, 13, 48, 50
14, 114228, Note_on_c, 13, 48, 0
14, 114240, Note_on_c, 13, 48, 50
14, 114288, Note_on_c, 13, 48, 0
14, 114300, Note_on_c, 13, 48, 50
14, 114348, Note_on_c, 13, 48, 0
14, 114360, Note_on_c, 13, 48, 50
14, 114420, Note_on_c, 13, 48, 0
14, 114420, Note_on_c, 13, 47, 50
14, 114468, Note_on_c, 13, 47, 0
14, 114480, Note_on_c, 13, 48, 50
14, 114528, Note_on_c, 13, 48, 0
14, 114540, Note_on_c, 13, 48, 50
14, 114588, Note_on_c, 13, 48, 0
14, 114600, Note_on_c, 13, 48, 50
14, 114648, Note_on_c, 13, 48, 0
14, 114660, Note_on_c, 13, 48, 50
14, 114708, Note_on_c, 13, 48, 0
14, 114720, Note_on_c, 13, 48, 50
14, 114768, Note_on_c, 13, 48, 0
14, 114780, Note_on_c, 13, 48, 50
14, 114828, Note_on_c, 13, 48, 0
14, 114840, Note_on_c, 13, 48, 50
14, 114900, Note_on_c, 13, 48, 0
14, 114900, Note_on_c, 13, 47, 50
14, 114948, Note_on_c, 13, 47, 0
14, 114960, Note_on_c, 13, 48, 50
14, 115008, Note_on_c, 13, 48, 0
14, 115020, Note_on_c, 13, 48, 50
14, 115068, Note_on_c, 13, 48, 0
14, 115080, Note_on_c, 13, 48, 50
14, 115128, Note_on_c, 13, 48, 0
14, 115140, Note_on_c, 13, 48, 52
14, 115188, Note_on_c, 13, 48, 0
14, 115200, Note_on_c, 13, 48, 54
14, 115248, Note_on_c, 13, 48, 0
14, 115260, Note_on_c, 13, 48, 56
14, 115308, Note_on_c, 13, 48, 0
14, 115320, Note_on_c, 13, 48, 58
14, 115380, Note_on_c, 13, 48, 0
14, 115380, Note_on_c, 13, 47, 60
14, 115428, Note_on_c, 13, 47, 0
14, 115440, Note_on_c, 13, 48, 62
14, 115488, Note_on_c, 13, 48, 0
14, 115500, Note_on_c, 13, 48, 65
14, 115548, Note_on_c, 13, 48, 0
14, 115560, Note_on_c, 13, 48, 67
14, 115620, Note_on_c, 13, 48, 0
14, 115620, Note_on_c, 13, 47, 69
14, 115668, Note_on_c, 13, 47, 0
14, 115680, Note_on_c, 13, 48, 71
14, 115728, Note_on_c, 13, 48, 0
14, 115740, Note_on_c, 13, 48, 73
14, 115788, Note_on_c, 13, 48, 0
14, 115800, Note_on_c, 13, 48, 75
14, 115860, Note_on_c, 13, 48, 0
14, 115860, Note_on_c, 13, 47, 78
14, 115908, Note_on_c, 13, 47, 0
14, 115920, Note_on_c, 13, 48, 80
14, 115968, Note_on_c, 13, 48, 0
14, 115980, Note_on_c, 13, 48, 82
14, 116028, Note_on_c, 13, 48, 0
14, 116040, Note_on_c, 13, 48, 84
14, 116100, Note_on_c, 13, 48, 0
14, 116100, Note_on_c, 13, 47, 86
14, 116148, Note_on_c, 13, 47, 0
14, 116160, Note_on_c, 13, 48, 88
14, 116208, Note_on_c, 13, 48, 0
14, 116220, Note_on_c, 13, 48, 90
14, 116268, Note_on_c, 13, 48, 0
14, 116280, Note_on_c, 13, 48, 93
14, 116328, Note_on_c, 13, 48, 0
14, 116340, Note_on_c, 13, 47, 95
14, 116388, Note_on_c, 13, 47, 0
14, 116400, Note_on_c, 13, 48, 97
14, 116448, Note_on_c, 13, 48, 0
14, 116460, Note_on_c, 13, 48, 99
14, 116508, Note_on_c, 13, 48, 0
14, 116520, Note_on_c, 13, 48, 101
14, 116568, Note_on_c, 13, 48, 0
14, 116580, Note_on_c, 13, 47, 103
14, 116628, Note_on_c, 13, 47, 0
14, 116640, Note_on_c, 13, 48, 106
14, 116688, Note_on_c, 13, 48, 0
14, 116700, Note_on_c, 13, 48, 108
14, 116748, Note_on_c, 13, 48, 0
14, 116760, Note_on_c, 13, 48, 110
14, 116808, Note_on_c, 13, 48, 0
14, 116820, Note_on_c, 13, 60, 112
14, 116868, Note_on_c, 13, 60, 0
14, 116880, Note_on_c, 13, 60, 114
14, 116928, Note_on_c, 13, 60, 0
14, 116940, Note_on_c, 13, 60, 116
14, 116988, Note_on_c, 13, 60, 0
14, 117000, Note_on_c, 13, 60, 118
14, 117048, Note_on_c, 13, 60, 0
14, 117060, Note_on_c, 13, 60, 121
14, 117108, Note_on_c, 13, 60, 0
14, 117120, Note_on_c, 13, 60, 123
14, 117168, Note_on_c, 13, 60, 0
14, 117180, Note_on_c, 13, 60, 125
14, 117228, Note_on_c, 13, 60, 0
14, 117240, Note_on_c, 13, 53, 127
14, 117528, Note_on_c, 13, 53, 0
14, 117540, Note_on_c, 13, 48, 127
14, 117588, Note_on_c, 13, 48, 0
14, 117600, Note_on_c, 13, 45, 127
14, 117648, Note_on_c, 13, 45, 0
14, 117660, Note_on_c, 13, 48, 127
14, 117708, Note_on_c, 13, 48, 0
14, 117720, Note_on_c, 13, 53, 127
14, 118008, Note_on_c, 13, 53, 0
14, 118020, Note_on_c, 13, 48, 127
14, 118068, Note_on_c, 13, 48, 0
14, 118080, Note_on_c, 13, 45, 127
14, 118128, Note_on_c, 13, 45, 0
14, 118140, Note_on_c, 13, 48, 127
14, 118188, Note_on_c, 13, 48, 0
14, 118200, Note_on_c, 13, 53, 127
14, 118260, Note_on_c, 13, 53, 0
14, 118260, Note_on_c, 13, 48, 127
14, 118308, Note_on_c, 13, 48, 0
14, 118320, Note_on_c, 13, 45, 127
14, 118368, Note_on_c, 13, 45, 0
14, 118380, Note_on_c, 13, 48, 127
14, 118428, Note_on_c, 13, 48, 0
14, 118440, Note_on_c, 13, 53, 127
14, 118500, Note_on_c, 13, 53, 0
14, 118500, Note_on_c, 13, 48, 127
14, 118548, Note_on_c, 13, 48, 0
14, 118560, Note_on_c, 13, 45, 127
14, 118608, Note_on_c, 13, 45, 0
14, 118620, Note_on_c, 13, 48, 127
14, 118668, Note_on_c, 13, 48, 0
14, 118680, Note_on_c, 13, 53, 127
14, 118740, Note_on_c, 13, 53, 0
14, 118740, Note_on_c, 13, 48, 127
14, 118788, Note_on_c, 13, 48, 0
14, 118800, Note_on_c, 13, 45, 127
14, 118848, Note_on_c, 13, 45, 0
14, 118860, Note_on_c, 13, 48, 127
14, 118908, Note_on_c, 13, 48, 0
14, 118920, Note_on_c, 13, 53, 127
14, 118980, Note_on_c, 13, 53, 0
14, 118980, Note_on_c, 13, 48, 127
14, 119028, Note_on_c, 13, 48, 0
14, 119040, Note_on_c, 13, 45, 127
14, 119088, Note_on_c, 13, 45, 0
14, 119100, Note_on_c, 13, 48, 127
14, 119148, Note_on_c, 13, 48, 0
14, 119160, Note_on_c, 13, 53, 127
14, 119352, Note_on_c, 13, 53, 0
14, 119400, Note_on_c, 13, 50, 127
14, 119592, Note_on_c, 13, 50, 0
14, 119640, Note_on_c, 13, 46, 127
14, 119736, Note_on_c, 13, 46, 0
14, 119760, Note_on_c, 13, 43, 127
14, 119856, Note_on_c, 13, 43, 0
14, 119880, Note_on_c, 13, 48, 127
14, 119976, Note_on_c, 13, 48, 0
14, 120000, Note_on_c, 13, 48, 127
14, 120096, Note_on_c, 13, 48, 0
14, 120120, Note_on_c, 13, 53, 127
14, 120408, Note_on_c, 13, 53, 0
14, 120420, Note_on_c, 13, 48, 127
14, 120468, Note_on_c, 13, 48, 0
14, 120480, Note_on_c, 13, 45, 127
14, 120528, Note_on_c, 13, 45, 0
14, 120540, Note_on_c, 13, 48, 127
14, 120588, Note_on_c, 13, 48, 0
14, 120600, Note_on_c, 13, 53, 127
14, 120888, Note_on_c, 13, 53, 0
14, 120900, Note_on_c, 13, 48, 127
14, 120948, Note_on_c, 13, 48, 0
14, 120960, Note_on_c, 13, 45, 127
14, 121008, Note_on_c, 13, 45, 0
14, 121020, Note_on_c, 13, 48, 127
14, 121068, Note_on_c, 13, 48, 0
14, 121080, Note_on_c, 13, 53, 127
14, 121140, Note_on_c, 13, 53, 0
14, 121140, Note_on_c, 13, 48, 127
14, 121188, Note_on_c, 13, 48, 0
14, 121200, Note_on_c, 13, 45, 127
14, 121248, Note_on_c, 13, 45, 0
14, 121260, Note_on_c, 13, 48, 127
14, 121308, Note_on_c, 13, 48, 0
14, 121320, Note_on_c, 13, 53, 127
14, 121380, Note_on_c, 13, 53, 0
14, 121380, Note_on_c, 13, 48, 127
14, 121428, Note_on_c, 13, 48, 0
14, 121440, Note_on_c, 13, 45, 127
14, 121488, Note_on_c, 13, 45, 0
14, 121500, Note_on_c, 13, 48, 127
14, 121548, Note_on_c, 13, 48, 0
14, 121560, Note_on_c, 13, 53, 127
14, 121620, Note_on_c, 13, 53, 0
14, 121620, Note_on_c, 13, 48, 127
14, 121668, Note_on_c, 13, 48, 0
14, 121680, Note_on_c, 13, 45, 127
14, 121728, Note_on_c, 13, 45, 0
14, 121740, Note_on_c, 13, 48, 127
14, 121788, Note_on_c, 13, 48, 0
14, 121800, Note_on_c, 13, 53, 127
14, 121860, Note_on_c, 13, 53, 0
14, 121860, Note_on_c, 13, 48, 127
14, 121908, Note_on_c, 13, 48, 0
14, 121920, Note_on_c, 13, 45, 127
14, 121968, Note_on_c, 13, 45, 0
14, 121980, Note_on_c, 13, 48, 127
14, 122028, Note_on_c, 13, 48, 0
14, 122040, Note_on_c, 13, 53, 127
14, 122232, Note_on_c, 13, 53, 0
14, 122280, Note_on_c, 13, 50, 127
14, 122472, Note_on_c, 13, 50, 0
14, 122520, Note_on_c, 13, 46, 127
14, 122616, Note_on_c, 13, 46, 0
14, 122640, Note_on_c, 13, 43, 127
14, 122736, Note_on_c, 13, 43, 0
14, 122760, Note_on_c, 13, 48, 127
14, 122856, Note_on_c, 13, 48, 0
14, 122880, Note_on_c, 13, 48, 127
14, 122976, Note_on_c, 13, 48, 0
14, 123000, Note_on_c, 13, 65, 127
14, 123120, Note_on_c, 13, 65, 0
14, 123120, Note_on_c, 13, 63, 127
14, 123240, Note_on_c, 13, 63, 0
14, 123240, Note_on_c, 13, 62, 127
14, 123360, Note_on_c, 13, 62, 0
14, 123360, Note_on_c, 13, 66, 127
14, 123456, Note_on_c, 13, 66, 0
14, 123480, Note_on_c, 13, 67, 127
14, 123600, Note_on_c, 13, 67, 0
14, 123600, Note_on_c, 13, 61, 127
14, 123720, Note_on_c, 13, 61, 0
14, 123720, Note_on_c, 13, 60, 127
14, 123840, Note_on_c, 13, 60, 0
14, 123840, Note_on_c, 13, 64, 127
14, 123936, Note_on_c, 13, 64, 0
14, 123960, Note_on_c, 13, 65, 127
14, 124080, Note_on_c, 13, 65, 0
14, 124080, Note_on_c, 13, 63, 127
14, 124200, Note_on_c, 13, 63, 0
14, 124200, Note_on_c, 13, 62, 127
14, 124320, Note_on_c, 13, 62, 0
14, 124320, Note_on_c, 13, 66, 127
14, 124416, Note_on_c, 13, 66, 0
14, 124440, Note_on_c, 13, 67, 127
14, 124560, Note_on_c, 13, 67, 0
14, 124560, Note_on_c, 13, 61, 127
14, 124680, Note_on_c, 13, 61, 0
14, 124680, Note_on_c, 13, 60, 127
14, 124800, Note_on_c, 13, 60, 0
14, 124800, Note_on_c, 13, 64, 127
14, 124896, Note_on_c, 13, 64, 0
14, 124920, Note_on_c, 13, 65, 127
14, 125040, Note_on_c, 13, 65, 0
14, 125040, Note_on_c, 13, 63, 127
14, 125160, Note_on_c, 13, 63, 0
14, 125160, Note_on_c, 13, 62, 127
14, 125280, Note_on_c, 13, 62, 0
14, 125280, Note_on_c, 13, 66, 127
14, 125376, Note_on_c, 13, 66, 0
14, 125400, Note_on_c, 13, 67, 127
14, 125520, Note_on_c, 13, 67, 0
14, 125520, Note_on_c, 13, 61, 127
14, 125640, Note_on_c, 13, 61, 0
14, 125640, Note_on_c, 13, 60, 127
14, 125760, Note_on_c, 13, 60, 0
14, 125760, Note_on_c, 13, 64, 127
14, 125856, Note_on_c, 13, 64, 0
14, 125880, Note_on_c, 13, 41, 127
14, 126000, Note_on_c, 13, 41, 0
14, 126000, Note_on_c, 13, 39, 127
14, 126120, Note_on_c, 13, 39, 0
14, 126120, Note_on_c, 13, 38, 127
14, 126240, Note_on_c, 13, 38, 0
14, 126240, Note_on_c, 13, 42, 127
14, 126336, Note_on_c, 13, 42, 0
14, 126360, Note_on_c, 13, 43, 127
14, 126480, Note_on_c, 13, 43, 0
14, 126480, Note_on_c, 13, 37, 127
14, 126600, Note_on_c, 13, 37, 0
14, 126600, Note_on_c, 13, 36, 127
14, 126720, Note_on_c, 13, 36, 0
14, 126720, Note_on_c, 13, 46, 127
14, 126816, Note_on_c, 13, 46, 0
14, 126840, Note_on_c, 13, 45, 127
14, 126888, Note_on_c, 13, 45, 0
14, 126900, Note_on_c, 13, 45, 127
14, 126948, Note_on_c, 13, 45, 0
14, 126960, Note_on_c, 13, 46, 127
14, 127008, Note_on_c, 13, 46, 0
14, 127020, Note_on_c, 13, 48, 127
14, 127068, Note_on_c, 13, 48, 0
14, 127080, Note_on_c, 13, 50, 127
14, 127128, Note_on_c, 13, 50, 0
14, 127140, Note_on_c, 13, 48, 127
14, 127188, Note_on_c, 13, 48, 0
14, 127200, Note_on_c, 13, 46, 127
14, 127248, Note_on_c, 13, 46, 0
14, 127260, Note_on_c, 13, 45, 127
14, 127308, Note_on_c, 13, 45, 0
14, 127320, Note_on_c, 13, 46, 127
14, 127368, Note_on_c, 13, 46, 0
14, 127380, Note_on_c, 13, 45, 127
14, 127428, Note_on_c, 13, 45, 0
14, 127440, Note_on_c, 13, 46, 127
14, 127488, Note_on_c, 13, 46, 0
14, 127500, Note_on_c, 13, 43, 127
14, 127548, Note_on_c, 13, 43, 0
14, 127560, Note_on_c, 13, 48, 127
14, 127608, Note_on_c, 13, 48, 0
14, 127620, Note_on_c, 13, 36, 127
14, 127668, Note_on_c, 13, 36, 0
14, 127680, Note_on_c, 13, 48, 127
14, 127728, Note_on_c, 13, 48, 0
14, 127740, Note_on_c, 13, 48, 127
14, 127788, Note_on_c, 13, 48, 0
14, 127800, Note_on_c, 13, 41, 127
14, 127992, Note_on_c, 13, 41, 0
14, 128040, Note_on_c, 13, 40, 127
14, 128232, Note_on_c, 13, 40, 0
14, 128280, Note_on_c, 13, 41, 127
14, 128472, Note_on_c, 13, 41, 0
14, 128520, Note_on_c, 13, 43, 127
14, 128712, Note_on_c, 13, 43, 0
14, 128760, Note_on_c, 13, 44, 127
14, 128856, Note_on_c, 13, 44, 0
14, 128880, Note_on_c, 13, 45, 127
14, 129624, Note_on_c, 13, 45, 0
14, 129720, Note_on_c, 13, 36, 127
14, 129720, Note_on_c, 13, 48, 127
14, 129816, Note_on_c, 13, 48, 0
14, 129816, Note_on_c, 13, 36, 0
14, 129840, Note_on_c, 13, 48, 127
14, 129840, Note_on_c, 13, 36, 127
14, 129936, Note_on_c, 13, 36, 0
14, 129936, Note_on_c, 13, 48, 0
14, 129960, Note_on_c, 13, 48, 127
14, 129960, Note_on_c, 13, 36, 127
14, 130056, Note_on_c, 13, 36, 0
14, 130056, Note_on_c, 13, 48, 0
14, 130080, Note_on_c, 13, 48, 127
14, 130080, Note_on_c, 13, 36, 127
14, 130176, Note_on_c, 13, 36, 0
14, 130176, Note_on_c, 13, 48, 0
14, 130200, Note_on_c, 13, 48, 127
14, 130200, Note_on_c, 13, 36, 127
14, 130296, Note_on_c, 13, 36, 0
14, 130296, Note_on_c, 13, 48, 0
14, 130320, Note_on_c, 13, 48, 127
14, 130320, Note_on_c, 13, 36, 127
14, 130416, Note_on_c, 13, 36, 0
14, 130416, Note_on_c, 13, 48, 0
14, 130440, Note_on_c, 13, 48, 127
14, 130440, Note_on_c, 13, 36, 127
14, 130536, Note_on_c, 13, 36, 0
14, 130536, Note_on_c, 13, 48, 0
14, 130560, Note_on_c, 13, 48, 127
14, 130560, Note_on_c, 13, 36, 127
14, 130656, Note_on_c, 13, 36, 0
14, 130656, Note_on_c, 13, 48, 0
14, 130680, Note_on_c, 13, 41, 127
14, 130824, Note_on_c, 13, 41, 0
14, 130860, Note_on_c, 13, 41, 127
14, 130908, Note_on_c, 13, 41, 0
14, 130920, Note_on_c, 13, 40, 127
14, 131064, Note_on_c, 13, 40, 0
14, 131100, Note_on_c, 13, 40, 127
14, 131148, Note_on_c, 13, 40, 0
14, 131160, Note_on_c, 13, 41, 127
14, 131304, Note_on_c, 13, 41, 0
14, 131340, Note_on_c, 13, 41, 127
14, 131388, Note_on_c, 13, 41, 0
14, 131400, Note_on_c, 13, 43, 127
14, 131544, Note_on_c, 13, 43, 0
14, 131580, Note_on_c, 13, 43, 127
14, 131628, Note_on_c, 13, 43, 0
14, 131640, Note_on_c, 13, 44, 127
14, 131736, Note_on_c, 13, 44, 0
14, 131760, Note_on_c, 13, 45, 127
14, 132504, Note_on_c, 13, 45, 0
14, 132600, Note_on_c, 13, 48, 127
14, 132600, Note_on_c, 13, 36, 127
14, 132696, Note_on_c, 13, 36, 0
14, 132696, Note_on_c, 13, 48, 0
14, 132720, Note_on_c, 13, 36, 127
14, 132720, Note_on_c, 13, 48, 127
14, 132816, Note_on_c, 13, 48, 0
14, 132816, Note_on_c, 13, 36, 0
14, 132840, Note_on_c, 13, 36, 127
14, 132840, Note_on_c, 13, 48, 127
14, 132936, Note_on_c, 13, 48, 0
14, 132936, Note_on_c, 13, 36, 0
14, 132960, Note_on_c, 13, 36, 127
14, 132960, Note_on_c, 13, 48, 127
14, 133056, Note_on_c, 13, 48, 0
14, 133056, Note_on_c, 13, 36, 0
14, 133080, Note_on_c, 13, 36, 127
14, 133080, Note_on_c, 13, 48, 127
14, 133176, Note_on_c, 13, 48, 0
14, 133176, Note_on_c, 13, 36, 0
14, 133200, Note_on_c, 13, 36, 127
14, 133200, Note_on_c, 13, 48, 127
14, 133296, Note_on_c, 13, 48, 0
14, 133296, Note_on_c, 13, 36, 0
14, 133320, Note_on_c, 13, 36, 127
14, 133320, Note_on_c, 13, 48, 127
14, 133416, Note_on_c, 13, 48, 0
14, 133416, Note_on_c, 13, 36, 0
14, 133440, Note_on_c, 13, 36, 127
14, 133440, Note_on_c, 13, 48, 127
14, 133536, Note_on_c, 13, 48, 0
14, 133536, Note_on_c, 13, 36, 0
14, 133560, Note_on_c, 13, 53, 127
14, 133848, Note_on_c, 13, 53, 0
14, 133920, Note_on_c, 13, 48, 127
14, 134016, Note_on_c, 13, 48, 0
14, 134040, Note_on_c, 13, 53, 127
14, 134136, Note_on_c, 13, 53, 0
14, 134160, Note_on_c, 13, 48, 127
14, 134256, Note_on_c, 13, 48, 0
14, 134280, Note_on_c, 13, 45, 127
14, 134376, Note_on_c, 13, 45, 0
14, 134400, Note_on_c, 13, 48, 127
14, 134496, Note_on_c, 13, 48, 0
14, 134520, Note_on_c, 13, 53, 127
14, 134808, Note_on_c, 13, 53, 0
14, 134880, Note_on_c, 13, 48, 127
14, 134976, Note_on_c, 13, 48, 0
14, 135000, Note_on_c, 13, 53, 127
14, 135096, Note_on_c, 13, 53, 0
14, 135120, Note_on_c, 13, 48, 127
14, 135216, Note_on_c, 13, 48, 0
14, 135240, Note_on_c, 13, 45, 127
14, 135336, Note_on_c, 13, 45, 0
14, 135360, Note_on_c, 13, 48, 127
14, 135456, Note_on_c, 13, 48, 0
14, 135480, Note_on_c, 13, 53, 127
14, 135672, Note_on_c, 13, 53, 0
14, 135720, Note_on_c, 13, 57, 127
14, 135912, Note_on_c, 13, 57, 0
14, 135960, Note_on_c, 13, 60, 127
14, 136248, Note_on_c, 13, 60, 0
14, 136320, Note_on_c, 13, 48, 127
14, 136416, Note_on_c, 13, 48, 0
14, 136440, Note_on_c, 13, 53, 127
14, 136632, Note_on_c, 13, 53, 0
14, 136680, Note_on_c, 13, 57, 127
14, 136872, Note_on_c, 13, 57, 0
14, 136920, Note_on_c, 13, 60, 127
14, 137208, Note_on_c, 13, 60, 0
14, 137280, Note_on_c, 13, 48, 127
14, 137376, Note_on_c, 13, 48, 0
14, 137400, Note_on_c, 13, 53, 127
14, 137592, Note_on_c, 13, 53, 0
14, 137640, Note_on_c, 13, 57, 127
14, 137832, Note_on_c, 13, 57, 0
14, 137880, Note_on_c, 13, 60, 127
14, 138168, Note_on_c, 13, 60, 0
14, 138240, Note_on_c, 13, 48, 127
14, 138336, Note_on_c, 13, 48, 0
14, 138360, Note_on_c, 13, 60, 127
14, 138648, Note_on_c, 13, 60, 0
14, 138720, Note_on_c, 13, 48, 127
14, 138816, Note_on_c, 13, 48, 0
14, 138840, Note_on_c, 13, 60, 127
14, 139128, Note_on_c, 13, 60, 0
14, 139200, Note_on_c, 13, 48, 127
14, 139296, Note_on_c, 13, 48, 0
14, 139320, Note_on_c, 13, 41, 127
14, 139368, Note_on_c, 13, 41, 0
14, 139380, Note_on_c, 13, 41, 127
14, 139428, Note_on_c, 13, 41, 0
14, 139440, Note_on_c, 13, 41, 127
14, 139488, Note_on_c, 13, 41, 0
14, 139500, Note_on_c, 13, 41, 127
14, 139548, Note_on_c, 13, 41, 0
14, 139560, Note_on_c, 13, 41, 127
14, 139608, Note_on_c, 13, 41, 0
14, 139620, Note_on_c, 13, 41, 127
14, 139668, Note_on_c, 13, 41, 0
14, 139680, Note_on_c, 13, 41, 127
14, 139728, Note_on_c, 13, 41, 0
14, 139740, Note_on_c, 13, 41, 127
14, 139788, Note_on_c, 13, 41, 0
14, 139800, Note_on_c, 13, 41, 127
14, 139848, Note_on_c, 13, 41, 0
14, 139860, Note_on_c, 13, 41, 127
14, 139908, Note_on_c, 13, 41, 0
14, 139920, Note_on_c, 13, 41, 127
14, 139968, Note_on_c, 13, 41, 0
14, 139980, Note_on_c, 13, 41, 127
14, 140028, Note_on_c, 13, 41, 0
14, 140040, Note_on_c, 13, 41, 127
14, 140088, Note_on_c, 13, 41, 0
14, 140100, Note_on_c, 13, 41, 127
14, 140148, Note_on_c, 13, 41, 0
14, 140160, Note_on_c, 13, 41, 127
14, 140208, Note_on_c, 13, 41, 0
14, 140220, Note_on_c, 13, 41, 127
14, 140268, Note_on_c, 13, 41, 0
14, 140280, Note_on_c, 13, 41, 127
14, 140376, Note_on_c, 13, 41, 0
14, 140760, Note_on_c, 13, 41, 127
14, 140856, Note_on_c, 13, 41, 0
14, 141240, Note_on_c, 13, 41, 127
14, 141336, Note_on_c, 13, 41, 0
14, 141720, Note_on_c, 13, 41, 127
14, 141816, Note_on_c, 13, 41, 0
14, 141960, Note_on_c, 13, 41, 127
14, 142056, Note_on_c, 13, 41, 0
14, 142200, Note_on_c, 13, 41, 127
14, 142296, Note_on_c, 13, 41, 0
14, 142296, End_track
15, 0, Start_track
15, 0, Title_t, "Contrabasso"
15, 0, Program_c, 14, 48
15, 0, Control_c, 14, 7, 127
15, 0, Control_c, 14, 10, 120
15, 1440, Note_on_c, 14, 29, 127
15, 2016, Note_on_c, 14, 29, 0
15, 2160, Note_on_c, 14, 29, 100
15, 2352, Note_on_c, 14, 29, 0
15, 2400, Note_on_c, 14, 29, 100
15, 2592, Note_on_c, 14, 29, 0
15, 2820, Note_on_c, 14, 41, 100
15, 2820, Note_on_c, 14, 29, 100
15, 2868, Note_on_c, 14, 29, 0
15, 2868, Note_on_c, 14, 41, 0
15, 2880, Note_on_c, 14, 27, 100
15, 2880, Note_on_c, 14, 39, 100
15, 3072, Note_on_c, 14, 39, 0
15, 3072, Note_on_c, 14, 27, 0
15, 3120, Note_on_c, 14, 32, 100
15, 3312, Note_on_c, 14, 32, 0
15, 3540, Note_on_c, 14, 32, 100
15, 3588, Note_on_c, 14, 32, 0
15, 3600, Note_on_c, 14, 31, 100
15, 3792, Note_on_c, 14, 31, 0
15, 3840, Note_on_c, 14, 31, 100
15, 4032, Note_on_c, 14, 31, 0
15, 4260, Note_on_c, 14, 43, 50
15, 4308, Note_on_c, 14, 43, 0
15, 4320, Note_on_c, 14, 36, 50
15, 4416, Note_on_c, 14, 36, 0
15, 6720, Note_on_c, 14, 36, 50
15, 7200, Note_on_c, 14, 36, 0
15, 7200, Note_on_c, 14, 29, 70
15, 7776, Note_on_c, 14, 29, 0
15, 7920, Note_on_c, 14, 29, 127
15, 8112, Note_on_c, 14, 29, 0
15, 8160, Note_on_c, 14, 29, 127
15, 8352, Note_on_c, 14, 29, 0
15, 8580, Note_on_c, 14, 41, 127
15, 8580, Note_on_c, 14, 29, 127
15, 8628, Note_on_c, 14, 29, 0
15, 8628, Note_on_c, 14, 41, 0
15, 8640, Note_on_c, 14, 39, 127
15, 8640, Note_on_c, 14, 27, 127
15, 8832, Note_on_c, 14, 27, 0
15, 8832, Note_on_c, 14, 39, 0
15, 8880, Note_on_c, 14, 32, 127
15, 9072, Note_on_c, 14, 32, 0
15, 11280, Program_c, 14, 48
15, 11280, Note_on_c, 14, 32, 50
15, 11472, Note_on_c, 14, 32, 0
15, 11520, Note_on_c, 14, 37, 50
15, 11616, Note_on_c, 14, 37, 0
15, 12180, Note_on_c, 14, 37, 50
15, 12228, Note_on_c, 14, 37, 0
15, 12240, Note_on_c, 14, 37, 50
15, 12432, Note_on_c, 14, 37, 0
15, 12480, Note_on_c, 14, 37, 50
15, 12672, Note_on_c, 14, 37, 0
15, 12900, Note_on_c, 14, 37, 50
15, 12948, Note_on_c, 14, 37, 0
15, 12960, Note_on_c, 14, 36, 50
15, 13152, Note_on_c, 14, 36, 0
15, 13200, Note_on_c, 14, 36, 50
15, 13392, Note_on_c, 14, 36, 0
15, 13620, Note_on_c, 14, 36, 50
15, 13668, Note_on_c, 14, 36, 0
15, 13680, Note_on_c, 14, 33, 50
15, 13872, Note_on_c, 14, 33, 0
15, 13920, Note_on_c, 14, 33, 50
15, 14112, Note_on_c, 14, 33, 0
15, 14340, Note_on_c, 14, 33, 50
15, 14388, Note_on_c, 14, 33, 0
15, 14400, Note_on_c, 14, 34, 50
15, 14592, Note_on_c, 14, 34, 0
15, 14640, Note_on_c, 14, 34, 50
15, 14832, Note_on_c, 14, 34, 0
15, 15060, Note_on_c, 14, 34, 50
15, 15108, Note_on_c, 14, 34, 0
15, 15120, Note_on_c, 14, 31, 50
15, 15312, Note_on_c, 14, 31, 0
15, 15360, Note_on_c, 14, 31, 50
15, 15552, Note_on_c, 14, 31, 0
15, 15780, Note_on_c, 14, 31, 50
15, 15828, Note_on_c, 14, 31, 0
15, 15840, Note_on_c, 14, 28, 50
15, 16032, Note_on_c, 14, 28, 0
15, 16080, Note_on_c, 14, 36, 50
15, 16272, Note_on_c, 14, 36, 0
15, 16500, Note_on_c, 14, 36, 50
15, 16548, Note_on_c, 14, 36, 0
15, 16560, Note_on_c, 14, 36, 50
15, 16656, Note_on_c, 14, 36, 0
15, 17220, Note_on_c, 14, 36, 50
15, 17268, Note_on_c, 14, 36, 0
15, 17280, Note_on_c, 14, 36, 50
15, 17376, Note_on_c, 14, 36, 0
15, 17940, Note_on_c, 14, 36, 50
15, 17988, Note_on_c, 14, 36, 0
15, 18000, Note_on_c, 14, 36, 50
15, 18096, Note_on_c, 14, 36, 0
15, 20040, Program_c, 14, 48
15, 20040, Note_on_c, 14, 29, 98
15, 20256, Note_on_c, 14, 29, 0
15, 21480, Note_on_c, 14, 36, 100
15, 21696, Note_on_c, 14, 36, 0
15, 22920, Note_on_c, 14, 29, 80
15, 23016, Note_on_c, 14, 29, 0
15, 23040, Note_on_c, 14, 34, 80
15, 23328, Note_on_c, 14, 34, 0
15, 23400, Note_on_c, 14, 27, 80
15, 23496, Note_on_c, 14, 27, 0
15, 23640, Note_on_c, 14, 29, 80
15, 23736, Note_on_c, 14, 29, 0
15, 23760, Note_on_c, 14, 34, 80
15, 24048, Note_on_c, 14, 34, 0
15, 24120, Note_on_c, 14, 27, 80
15, 24216, Note_on_c, 14, 27, 0
15, 24360, Note_on_c, 14, 29, 80
15, 24456, Note_on_c, 14, 29, 0
15, 24480, Note_on_c, 14, 34, 80
15, 24768, Note_on_c, 14, 34, 0
15, 24840, Note_on_c, 14, 27, 104
15, 24888, Note_on_c, 14, 27, 0
15, 24900, Note_on_c, 14, 36, 104
15, 24948, Note_on_c, 14, 36, 0
15, 24960, Note_on_c, 14, 36, 80
15, 25152, Note_on_c, 14, 36, 0
15, 25200, Note_on_c, 14, 36, 50
15, 25248, Note_on_c, 14, 36, 0
15, 25260, Note_on_c, 14, 36, 50
15, 25308, Note_on_c, 14, 36, 0
15, 25320, Note_on_c, 14, 36, 51
15, 25512, Note_on_c, 14, 36, 0
15, 25560, Note_on_c, 14, 36, 55
15, 25608, Note_on_c, 14, 36, 0
15, 25620, Note_on_c, 14, 36, 55
15, 25668, Note_on_c, 14, 36, 0
15, 25680, Note_on_c, 14, 36, 56
15, 25872, Note_on_c, 14, 36, 0
15, 25920, Note_on_c, 14, 36, 60
15, 25968, Note_on_c, 14, 36, 0
15, 25980, Note_on_c, 14, 36, 60
15, 26028, Note_on_c, 14, 36, 0
15, 26040, Note_on_c, 14, 36, 61
15, 26232, Note_on_c, 14, 36, 0
15, 26280, Note_on_c, 14, 36, 65
15, 26328, Note_on_c, 14, 36, 0
15, 26340, Note_on_c, 14, 36, 65
15, 26388, Note_on_c, 14, 36, 0
15, 26400, Note_on_c, 14, 36, 66
15, 26592, Note_on_c, 14, 36, 0
15, 26640, Note_on_c, 14, 36, 70
15, 26688, Note_on_c, 14, 36, 0
15, 26700, Note_on_c, 14, 36, 70
15, 26748, Note_on_c, 14, 36, 0
15, 26760, Note_on_c, 14, 36, 71
15, 26952, Note_on_c, 14, 36, 0
15, 27000, Note_on_c, 14, 34, 75
15, 27048, Note_on_c, 14, 34, 0
15, 27060, Note_on_c, 14, 34, 75
15, 27108, Note_on_c, 14, 34, 0
15, 27120, Note_on_c, 14, 34, 76
15, 27312, Note_on_c, 14, 34, 0
15, 27360, Note_on_c, 14, 31, 80
15, 27408, Note_on_c, 14, 31, 0
15, 27420, Note_on_c, 14, 31, 80
15, 27468, Note_on_c, 14, 31, 0
15, 27480, Note_on_c, 14, 31, 81
15, 27672, Note_on_c, 14, 31, 0
15, 27720, Note_on_c, 14, 28, 85
15, 27768, Note_on_c, 14, 28, 0
15, 27780, Note_on_c, 14, 28, 85
15, 27828, Note_on_c, 14, 28, 0
15, 27840, Note_on_c, 14, 28, 86
15, 28032, Note_on_c, 14, 28, 0
15, 28080, Note_on_c, 14, 36, 90
15, 28128, Note_on_c, 14, 36, 0
15, 28140, Note_on_c, 14, 36, 91
15, 28188, Note_on_c, 14, 36, 0
15, 28200, Note_on_c, 14, 36, 91
15, 28392, Note_on_c, 14, 36, 0
15, 28440, Note_on_c, 14, 34, 95
15, 28488, Note_on_c, 14, 34, 0
15, 28500, Note_on_c, 14, 34, 96
15, 28548, Note_on_c, 14, 34, 0
15, 28560, Note_on_c, 14, 34, 96
15, 28752, Note_on_c, 14, 34, 0
15, 28800, Note_on_c, 14, 31, 100
15, 28848, Note_on_c, 14, 31, 0
15, 28860, Note_on_c, 14, 31, 101
15, 28908, Note_on_c, 14, 31, 0
15, 28920, Note_on_c, 14, 31, 101
15, 29112, Note_on_c, 14, 31, 0
15, 29160, Note_on_c, 14, 28, 105
15, 29208, Note_on_c, 14, 28, 0
15, 29220, Note_on_c, 14, 28, 106
15, 29268, Note_on_c, 14, 28, 0
15, 29280, Note_on_c, 14, 28, 106
15, 29472, Note_on_c, 14, 28, 0
15, 29520, Note_on_c, 14, 36, 110
15, 29568, Note_on_c, 14, 36, 0
15, 29580, Note_on_c, 14, 36, 111
15, 29628, Note_on_c, 14, 36, 0
15, 29640, Note_on_c, 14, 36, 111
15, 29832, Note_on_c, 14, 36, 0
15, 29880, Note_on_c, 14, 36, 115
15, 29928, Note_on_c, 14, 36, 0
15, 29940, Note_on_c, 14, 36, 116
15, 29988, Note_on_c, 14, 36, 0
15, 30000, Note_on_c, 14, 36, 116
15, 30192, Note_on_c, 14, 36, 0
15, 30240, Note_on_c, 14, 36, 120
15, 30288, Note_on_c, 14, 36, 0
15, 30300, Note_on_c, 14, 36, 121
15, 30348, Note_on_c, 14, 36, 0
15, 30360, Note_on_c, 14, 36, 121
15, 30552, Note_on_c, 14, 36, 0
15, 30600, Note_on_c, 14, 36, 125
15, 30696, Note_on_c, 14, 36, 0
15, 30840, Note_on_c, 14, 29, 127
15, 31776, Note_on_c, 14, 29, 0
15, 31800, Note_on_c, 14, 29, 121
15, 31896, Note_on_c, 14, 29, 0
15, 31920, Note_on_c, 14, 32, 120
15, 32016, Note_on_c, 14, 32, 0
15, 32040, Note_on_c, 14, 36, 119
15, 32136, Note_on_c, 14, 36, 0
15, 32280, Note_on_c, 14, 36, 117
15, 33216, Note_on_c, 14, 36, 0
15, 33240, Note_on_c, 14, 36, 110
15, 33336, Note_on_c, 14, 36, 0
15, 33360, Note_on_c, 14, 36, 109
15, 33456, Note_on_c, 14, 36, 0
15, 33480, Note_on_c, 14, 41, 108
15, 33528, Note_on_c, 14, 41, 0
15, 33540, Note_on_c, 14, 41, 108
15, 33588, Note_on_c, 14, 41, 0
15, 33600, Note_on_c, 14, 41, 107
15, 33792, Note_on_c, 14, 41, 0
15, 33840, Note_on_c, 14, 41, 106
15, 33888, Note_on_c, 14, 41, 0
15, 33900, Note_on_c, 14, 41, 105
15, 33948, Note_on_c, 14, 41, 0
15, 33960, Note_on_c, 14, 41, 105
15, 34152, Note_on_c, 14, 41, 0
15, 34200, Note_on_c, 14, 41, 103
15, 34248, Note_on_c, 14, 41, 0
15, 34260, Note_on_c, 14, 41, 103
15, 34308, Note_on_c, 14, 41, 0
15, 34320, Note_on_c, 14, 41, 102
15, 34512, Note_on_c, 14, 41, 0
15, 34560, Note_on_c, 14, 41, 100
15, 34656, Note_on_c, 14, 41, 0
15, 34680, Note_on_c, 14, 41, 109
15, 34776, Note_on_c, 14, 41, 0
15, 34800, Note_on_c, 14, 41, 118
15, 34896, Note_on_c, 14, 41, 0
15, 34920, Note_on_c, 14, 29, 127
15, 34968, Note_on_c, 14, 29, 0
15, 34980, Note_on_c, 14, 29, 127
15, 35028, Note_on_c, 14, 29, 0
15, 35040, Note_on_c, 14, 29, 100
15, 35232, Note_on_c, 14, 29, 0
15, 35280, Note_on_c, 14, 29, 104
15, 35328, Note_on_c, 14, 29, 0
15, 35340, Note_on_c, 14, 29, 106
15, 35388, Note_on_c, 14, 29, 0
15, 35400, Note_on_c, 14, 29, 107
15, 35592, Note_on_c, 14, 29, 0
15, 35640, Note_on_c, 14, 29, 112
15, 35688, Note_on_c, 14, 29, 0
15, 35700, Note_on_c, 14, 29, 113
15, 35748, Note_on_c, 14, 29, 0
15, 35760, Note_on_c, 14, 29, 114
15, 35952, Note_on_c, 14, 29, 0
15, 36000, Note_on_c, 14, 29, 119
15, 36096, Note_on_c, 14, 29, 0
15, 36120, Note_on_c, 14, 41, 122
15, 36216, Note_on_c, 14, 41, 0
15, 36240, Note_on_c, 14, 40, 124
15, 36336, Note_on_c, 14, 40, 0
15, 36360, Note_on_c, 14, 39, 127
15, 36648, Note_on_c, 14, 39, 0
15, 36720, Note_on_c, 14, 39, 127
15, 37008, Note_on_c, 14, 39, 0
15, 37080, Note_on_c, 14, 39, 127
15, 37368, Note_on_c, 14, 39, 0
15, 37440, Note_on_c, 14, 39, 127
15, 37728, Note_on_c, 14, 39, 0
15, 37800, Note_on_c, 14, 39, 127
15, 38088, Note_on_c, 14, 39, 0
15, 38160, Note_on_c, 14, 39, 127
15, 38448, Note_on_c, 14, 39, 0
15, 38520, Note_on_c, 14, 39, 127
15, 38808, Note_on_c, 14, 39, 0
15, 38880, Note_on_c, 14, 39, 127
15, 38976, Note_on_c, 14, 39, 0
15, 39240, Note_on_c, 14, 32, 127
15, 39300, Note_on_c, 14, 32, 0
15, 39360, Note_on_c, 14, 32, 127
15, 39420, Note_on_c, 14, 32, 0
15, 39540, Note_on_c, 14, 32, 127
15, 39588, Note_on_c, 14, 32, 0
15, 39600, Note_on_c, 14, 37, 127
15, 39696, Note_on_c, 14, 37, 0
15, 39720, Note_on_c, 14, 37, 127
15, 39816, Note_on_c, 14, 37, 0
15, 40680, Note_on_c, 14, 32, 127
15, 40740, Note_on_c, 14, 32, 0
15, 40800, Note_on_c, 14, 32, 127
15, 40860, Note_on_c, 14, 32, 0
15, 40980, Note_on_c, 14, 32, 127
15, 41028, Note_on_c, 14, 32, 0
15, 41040, Note_on_c, 14, 37, 127
15, 41136, Note_on_c, 14, 37, 0
15, 41160, Note_on_c, 14, 37, 127
15, 41256, Note_on_c, 14, 37, 0
15, 42120, Note_on_c, 14, 32, 127
15, 42180, Note_on_c, 14, 32, 0
15, 42240, Note_on_c, 14, 32, 127
15, 42300, Note_on_c, 14, 32, 0
15, 42420, Note_on_c, 14, 32, 127
15, 42468, Note_on_c, 14, 32, 0
15, 42480, Note_on_c, 14, 37, 127
15, 42576, Note_on_c, 14, 37, 0
15, 42600, Note_on_c, 14, 37, 127
15, 42696, Note_on_c, 14, 37, 0
15, 42840, Note_on_c, 14, 33, 50
15, 44928, Note_on_c, 14, 33, 0
15, 45000, Note_on_c, 14, 32, 67
15, 45288, Note_on_c, 14, 32, 0
15, 45360, Note_on_c, 14, 31, 70
15, 45648, Note_on_c, 14, 31, 0
15, 45720, Note_on_c, 14, 32, 95
15, 46008, Note_on_c, 14, 32, 0
15, 46080, Note_on_c, 14, 37, 95
15, 46368, Note_on_c, 14, 37, 0
15, 46440, Note_on_c, 14, 34, 95
15, 46728, Note_on_c, 14, 34, 0
15, 46800, Note_on_c, 14, 39, 95
15, 47088, Note_on_c, 14, 39, 0
15, 47160, Note_on_c, 14, 32, 95
15, 47208, Note_on_c, 14, 32, 0
15, 47220, Note_on_c, 14, 32, 95
15, 47268, Note_on_c, 14, 32, 0
15, 47280, Note_on_c, 14, 32, 95
15, 47328, Note_on_c, 14, 32, 0
15, 47340, Note_on_c, 14, 32, 112
15, 47388, Note_on_c, 14, 32, 0
15, 47400, Note_on_c, 14, 32, 112
15, 47448, Note_on_c, 14, 32, 0
15, 47460, Note_on_c, 14, 32, 112
15, 47508, Note_on_c, 14, 32, 0
15, 47520, Note_on_c, 14, 32, 112
15, 47568, Note_on_c, 14, 32, 0
15, 47580, Note_on_c, 14, 32, 112
15, 47628, Note_on_c, 14, 32, 0
15, 47640, Note_on_c, 14, 32, 112
15, 47688, Note_on_c, 14, 32, 0
15, 47700, Note_on_c, 14, 32, 112
15, 47748, Note_on_c, 14, 32, 0
15, 47760, Note_on_c, 14, 32, 112
15, 47808, Note_on_c, 14, 32, 0
15, 47820, Note_on_c, 14, 32, 112
15, 47868, Note_on_c, 14, 32, 0
15, 47880, Note_on_c, 14, 32, 112
15, 47928, Note_on_c, 14, 32, 0
15, 47940, Note_on_c, 14, 32, 112
15, 47988, Note_on_c, 14, 32, 0
15, 48000, Note_on_c, 14, 32, 112
15, 48048, Note_on_c, 14, 32, 0
15, 48060, Note_on_c, 14, 32, 112
15, 48108, Note_on_c, 14, 32, 0
15, 48120, Note_on_c, 14, 32, 112
15, 48168, Note_on_c, 14, 32, 0
15, 48180, Note_on_c, 14, 32, 112
15, 48228, Note_on_c, 14, 32, 0
15, 48240, Note_on_c, 14, 32, 112
15, 48288, Note_on_c, 14, 32, 0
15, 48300, Note_on_c, 14, 32, 112
15, 48348, Note_on_c, 14, 32, 0
15, 48360, Note_on_c, 14, 32, 112
15, 48408, Note_on_c, 14, 32, 0
15, 48420, Note_on_c, 14, 32, 112
15, 48468, Note_on_c, 14, 32, 0
15, 48480, Note_on_c, 14, 32, 112
15, 48528, Note_on_c, 14, 32, 0
15, 48540, Note_on_c, 14, 32, 112
15, 48588, Note_on_c, 14, 32, 0
15, 48600, Note_on_c, 14, 32, 112
15, 48648, Note_on_c, 14, 32, 0
15, 48660, Note_on_c, 14, 32, 112
15, 48708, Note_on_c, 14, 32, 0
15, 48720, Note_on_c, 14, 32, 95
15, 48768, Note_on_c, 14, 32, 0
15, 48780, Note_on_c, 14, 32, 98
15, 48828, Note_on_c, 14, 32, 0
15, 48840, Note_on_c, 14, 32, 101
15, 48888, Note_on_c, 14, 32, 0
15, 48900, Note_on_c, 14, 32, 104
15, 48948, Note_on_c, 14, 32, 0
15, 48960, Note_on_c, 14, 32, 107
15, 49008, Note_on_c, 14, 32, 0
15, 49020, Note_on_c, 14, 32, 111
15, 49068, Note_on_c, 14, 32, 0
15, 49080, Note_on_c, 14, 32, 114
15, 49128, Note_on_c, 14, 32, 0
15, 49140, Note_on_c, 14, 32, 117
15, 49188, Note_on_c, 14, 32, 0
15, 49200, Note_on_c, 14, 32, 120
15, 49248, Note_on_c, 14, 32, 0
15, 49260, Note_on_c, 14, 32, 123
15, 49308, Note_on_c, 14, 32, 0
15, 49320, Note_on_c, 14, 32, 127
15, 49368, Note_on_c, 14, 32, 0
15, 49380, Note_on_c, 14, 32, 127
15, 49428, Note_on_c, 14, 32, 0
15, 49440, Note_on_c, 14, 32, 127
15, 49488, Note_on_c, 14, 32, 0
15, 49500, Note_on_c, 14, 32, 127
15, 49548, Note_on_c, 14, 32, 0
15, 49560, Note_on_c, 14, 32, 127
15, 49608, Note_on_c, 14, 32, 0
15, 49620, Note_on_c, 14, 32, 127
15, 49668, Note_on_c, 14, 32, 0
15, 49680, Note_on_c, 14, 32, 127
15, 49728, Note_on_c, 14, 32, 0
15, 49740, Note_on_c, 14, 32, 127
15, 49788, Note_on_c, 14, 32, 0
15, 49800, Note_on_c, 14, 32, 127
15, 49848, Note_on_c, 14, 32, 0
15, 49860, Note_on_c, 14, 32, 127
15, 49908, Note_on_c, 14, 32, 0
15, 49920, Note_on_c, 14, 32, 127
15, 49968, Note_on_c, 14, 32, 0
15, 49980, Note_on_c, 14, 32, 127
15, 50028, Note_on_c, 14, 32, 0
15, 50040, Note_on_c, 14, 32, 127
15, 50088, Note_on_c, 14, 32, 0
15, 50100, Note_on_c, 14, 32, 127
15, 50148, Note_on_c, 14, 32, 0
15, 50160, Note_on_c, 14, 32, 127
15, 50208, Note_on_c, 14, 32, 0
15, 50220, Note_on_c, 14, 32, 127
15, 50268, Note_on_c, 14, 32, 0
15, 50280, Note_on_c, 14, 32, 127
15, 50328, Note_on_c, 14, 32, 0
15, 50340, Note_on_c, 14, 32, 127
15, 50388, Note_on_c, 14, 32, 0
15, 50400, Note_on_c, 14, 32, 127
15, 50448, Note_on_c, 14, 32, 0
15, 50460, Note_on_c, 14, 32, 127
15, 50508, Note_on_c, 14, 32, 0
15, 50520, Note_on_c, 14, 32, 127
15, 50568, Note_on_c, 14, 32, 0
15, 50580, Note_on_c, 14, 32, 127
15, 50628, Note_on_c, 14, 32, 0
15, 50640, Note_on_c, 14, 32, 127
15, 50688, Note_on_c, 14, 32, 0
15, 50700, Note_on_c, 14, 32, 127
15, 50748, Note_on_c, 14, 32, 0
15, 50760, Note_on_c, 14, 32, 127
15, 50808, Note_on_c, 14, 32, 0
15, 50820, Note_on_c, 14, 32, 127
15, 50868, Note_on_c, 14, 32, 0
15, 50880, Note_on_c, 14, 32, 127
15, 50928, Note_on_c, 14, 32, 0
15, 50940, Note_on_c, 14, 32, 127
15, 50988, Note_on_c, 14, 32, 0
15, 51000, Note_on_c, 14, 32, 127
15, 51048, Note_on_c, 14, 32, 0
15, 51060, Note_on_c, 14, 32, 127
15, 51108, Note_on_c, 14, 32, 0
15, 51120, Note_on_c, 14, 32, 127
15, 51168, Note_on_c, 14, 32, 0
15, 51180, Note_on_c, 14, 32, 127
15, 51228, Note_on_c, 14, 32, 0
15, 51240, Note_on_c, 14, 32, 127
15, 51288, Note_on_c, 14, 32, 0
15, 51300, Note_on_c, 14, 32, 127
15, 51348, Note_on_c, 14, 32, 0
15, 51360, Note_on_c, 14, 32, 127
15, 51408, Note_on_c, 14, 32, 0
15, 51420, Note_on_c, 14, 32, 127
15, 51468, Note_on_c, 14, 32, 0
15, 51480, Note_on_c, 14, 32, 127
15, 51576, Note_on_c, 14, 32, 0
15, 52920, Note_on_c, 14, 31, 50
15, 53016, Note_on_c, 14, 31, 0
15, 53640, Note_on_c, 14, 39, 50
15, 53736, Note_on_c, 14, 39, 0
15, 54240, Note_on_c, 14, 39, 127
15, 54336, Note_on_c, 14, 39, 0
15, 54360, Note_on_c, 14, 32, 127
15, 54456, Note_on_c, 14, 32, 0
15, 55800, Note_on_c, 14, 33, 50
15, 55896, Note_on_c, 14, 33, 0
15, 56520, Note_on_c, 14, 29, 50
15, 56616, Note_on_c, 14, 29, 0
15, 57120, Note_on_c, 14, 41, 127
15, 57216, Note_on_c, 14, 41, 0
15, 57240, Note_on_c, 14, 34, 127
15, 57336, Note_on_c, 14, 34, 0
15, 58680, Note_on_c, 14, 33, 50
15, 58776, Note_on_c, 14, 33, 0
15, 59400, Note_on_c, 14, 29, 50
15, 59496, Note_on_c, 14, 29, 0
15, 60000, Note_on_c, 14, 41, 127
15, 60096, Note_on_c, 14, 41, 0
15, 60120, Note_on_c, 14, 34, 127
15, 60216, Note_on_c, 14, 34, 0
15, 61440, Note_on_c, 14, 31, 50
15, 61536, Note_on_c, 14, 31, 0
15, 62160, Note_on_c, 14, 43, 50
15, 62280, Note_on_c, 14, 43, 0
15, 62280, Note_on_c, 14, 44, 50
15, 62400, Note_on_c, 14, 44, 0
15, 62400, Note_on_c, 14, 43, 50
15, 62520, Note_on_c, 14, 43, 0
15, 62520, Note_on_c, 14, 39, 50
15, 62640, Note_on_c, 14, 39, 0
15, 62640, Note_on_c, 14, 36, 50
15, 62760, Note_on_c, 14, 36, 0
15, 62760, Note_on_c, 14, 32, 53
15, 62880, Note_on_c, 14, 32, 0
15, 62880, Note_on_c, 14, 31, 56
15, 63000, Note_on_c, 14, 31, 0
15, 63000, Note_on_c, 14, 27, 60
15, 63120, Note_on_c, 14, 27, 0
15, 63120, Note_on_c, 14, 39, 63
15, 63240, Note_on_c, 14, 39, 0
15, 63240, Note_on_c, 14, 36, 66
15, 63360, Note_on_c, 14, 36, 0
15, 63360, Note_on_c, 14, 31, 70
15, 63456, Note_on_c, 14, 31, 0
15, 63600, Note_on_c, 14, 43, 76
15, 63720, Note_on_c, 14, 43, 0
15, 63720, Note_on_c, 14, 44, 80
15, 63840, Note_on_c, 14, 44, 0
15, 63840, Note_on_c, 14, 43, 83
15, 63960, Note_on_c, 14, 43, 0
15, 63960, Note_on_c, 14, 41, 86
15, 64080, Note_on_c, 14, 41, 0
15, 64080, Note_on_c, 14, 38, 90
15, 64200, Note_on_c, 14, 38, 0
15, 64200, Note_on_c, 14, 35, 93
15, 64320, Note_on_c, 14, 35, 0
15, 64320, Note_on_c, 14, 43, 96
15, 64440, Note_on_c, 14, 43, 0
15, 64440, Note_on_c, 14, 41, 100
15, 64560, Note_on_c, 14, 41, 0
15, 64560, Note_on_c, 14, 38, 103
15, 64680, Note_on_c, 14, 38, 0
15, 64680, Note_on_c, 14, 35, 106
15, 64776, Note_on_c, 14, 35, 0
15, 68280, Program_c, 14, 45
15, 68280, Note_on_c, 14, 29, 80
15, 68376, Note_on_c, 14, 29, 0
15, 68400, Note_on_c, 14, 29, 80
15, 68496, Note_on_c, 14, 29, 0
15, 68520, Note_on_c, 14, 29, 80
15, 68616, Note_on_c, 14, 29, 0
15, 68880, Note_on_c, 14, 29, 80
15, 68976, Note_on_c, 14, 29, 0
15, 69240, Note_on_c, 14, 29, 80
15, 69336, Note_on_c, 14, 29, 0
15, 69600, Note_on_c, 14, 36, 80
15, 69696, Note_on_c, 14, 36, 0
15, 69960, Note_on_c, 14, 36, 80
15, 70056, Note_on_c, 14, 36, 0
15, 70320, Note_on_c, 14, 36, 80
15, 70416, Note_on_c, 14, 36, 0
15, 70680, Note_on_c, 14, 36, 80
15, 70776, Note_on_c, 14, 36, 0
15, 71040, Program_c, 14, 48
15, 71040, Note_on_c, 14, 29, 80
15, 71136, Note_on_c, 14, 29, 0
15, 71160, Note_on_c, 14, 29, 80
15, 71280, Note_on_c, 14, 29, 0
15, 71280, Note_on_c, 14, 34, 80
15, 71568, Note_on_c, 14, 34, 0
15, 71640, Note_on_c, 14, 27, 64
15, 71736, Note_on_c, 14, 27, 0
15, 72600, Note_on_c, 14, 29, 64
15, 72720, Note_on_c, 14, 29, 0
15, 72720, Note_on_c, 14, 34, 64
15, 73008, Note_on_c, 14, 34, 0
15, 73080, Note_on_c, 14, 29, 64
15, 73128, Note_on_c, 14, 29, 0
15, 73140, Note_on_c, 14, 36, 64
15, 73188, Note_on_c, 14, 36, 0
15, 73200, Note_on_c, 14, 36, 64
15, 73392, Note_on_c, 14, 36, 0
15, 73440, Note_on_c, 14, 36, 50
15, 73488, Note_on_c, 14, 36, 0
15, 73500, Note_on_c, 14, 36, 50
15, 73548, Note_on_c, 14, 36, 0
15, 73560, Note_on_c, 14, 36, 51
15, 73752, Note_on_c, 14, 36, 0
15, 73800, Note_on_c, 14, 36, 54
15, 73848, Note_on_c, 14, 36, 0
15, 73860, Note_on_c, 14, 36, 55
15, 73908, Note_on_c, 14, 36, 0
15, 73920, Note_on_c, 14, 36, 56
15, 74112, Note_on_c, 14, 36, 0
15, 74160, Note_on_c, 14, 36, 59
15, 74208, Note_on_c, 14, 36, 0
15, 74220, Note_on_c, 14, 36, 60
15, 74268, Note_on_c, 14, 36, 0
15, 74280, Note_on_c, 14, 36, 61
15, 74472, Note_on_c, 14, 36, 0
15, 74520, Note_on_c, 14, 36, 64
15, 74568, Note_on_c, 14, 36, 0
15, 74580, Note_on_c, 14, 36, 65
15, 74628, Note_on_c, 14, 36, 0
15, 74640, Note_on_c, 14, 36, 66
15, 74832, Note_on_c, 14, 36, 0
15, 74880, Note_on_c, 14, 36, 69
15, 74928, Note_on_c, 14, 36, 0
15, 74940, Note_on_c, 14, 36, 70
15, 74988, Note_on_c, 14, 36, 0
15, 75000, Note_on_c, 14, 36, 71
15, 75192, Note_on_c, 14, 36, 0
15, 75240, Note_on_c, 14, 34, 74
15, 75288, Note_on_c, 14, 34, 0
15, 75300, Note_on_c, 14, 34, 75
15, 75348, Note_on_c, 14, 34, 0
15, 75360, Note_on_c, 14, 34, 76
15, 75552, Note_on_c, 14, 34, 0
15, 75600, Note_on_c, 14, 31, 79
15, 75648, Note_on_c, 14, 31, 0
15, 75660, Note_on_c, 14, 31, 80
15, 75708, Note_on_c, 14, 31, 0
15, 75720, Note_on_c, 14, 31, 81
15, 75912, Note_on_c, 14, 31, 0
15, 75960, Note_on_c, 14, 28, 84
15, 76008, Note_on_c, 14, 28, 0
15, 76020, Note_on_c, 14, 28, 85
15, 76068, Note_on_c, 14, 28, 0
15, 76080, Note_on_c, 14, 28, 86
15, 76272, Note_on_c, 14, 28, 0
15, 76320, Note_on_c, 14, 36, 89
15, 76368, Note_on_c, 14, 36, 0
15, 76380, Note_on_c, 14, 36, 90
15, 76428, Note_on_c, 14, 36, 0
15, 76440, Note_on_c, 14, 36, 91
15, 76632, Note_on_c, 14, 36, 0
15, 76680, Note_on_c, 14, 34, 94
15, 76728, Note_on_c, 14, 34, 0
15, 76740, Note_on_c, 14, 34, 95
15, 76788, Note_on_c, 14, 34, 0
15, 76800, Note_on_c, 14, 34, 96
15, 76992, Note_on_c, 14, 34, 0
15, 77040, Note_on_c, 14, 31, 99
15, 77088, Note_on_c, 14, 31, 0
15, 77100, Note_on_c, 14, 31, 100
15, 77148, Note_on_c, 14, 31, 0
15, 77160, Note_on_c, 14, 31, 101
15, 77352, Note_on_c, 14, 31, 0
15, 77400, Note_on_c, 14, 28, 104
15, 77448, Note_on_c, 14, 28, 0
15, 77460, Note_on_c, 14, 28, 105
15, 77508, Note_on_c, 14, 28, 0
15, 77520, Note_on_c, 14, 28, 106
15, 77712, Note_on_c, 14, 28, 0
15, 77760, Note_on_c, 14, 36, 109
15, 77808, Note_on_c, 14, 36, 0
15, 77820, Note_on_c, 14, 36, 110
15, 77868, Note_on_c, 14, 36, 0
15, 77880, Note_on_c, 14, 36, 110
15, 78072, Note_on_c, 14, 36, 0
15, 78120, Note_on_c, 14, 36, 114
15, 78168, Note_on_c, 14, 36, 0
15, 78180, Note_on_c, 14, 36, 115
15, 78228, Note_on_c, 14, 36, 0
15, 78240, Note_on_c, 14, 36, 115
15, 78432, Note_on_c, 14, 36, 0
15, 78480, Note_on_c, 14, 36, 119
15, 78528, Note_on_c, 14, 36, 0
15, 78540, Note_on_c, 14, 36, 120
15, 78588, Note_on_c, 14, 36, 0
15, 78600, Note_on_c, 14, 36, 120
15, 78792, Note_on_c, 14, 36, 0
15, 78840, Note_on_c, 14, 36, 124
15, 78936, Note_on_c, 14, 36, 0
15, 79080, Note_on_c, 14, 29, 127
15, 80016, Note_on_c, 14, 29, 0
15, 80040, Note_on_c, 14, 29, 127
15, 80136, Note_on_c, 14, 29, 0
15, 80160, Note_on_c, 14, 32, 127
15, 80256, Note_on_c, 14, 32, 0
15, 80280, Note_on_c, 14, 36, 127
15, 80376, Note_on_c, 14, 36, 0
15, 80520, Note_on_c, 14, 36, 127
15, 81456, Note_on_c, 14, 36, 0
15, 81480, Note_on_c, 14, 36, 127
15, 81576, Note_on_c, 14, 36, 0
15, 81600, Note_on_c, 14, 36, 127
15, 81696, Note_on_c, 14, 36, 0
15, 81720, Note_on_c, 14, 41, 127
15, 81816, Note_on_c, 14, 41, 0
15, 81840, Note_on_c, 14, 29, 127
15, 81936, Note_on_c, 14, 29, 0
15, 81960, Note_on_c, 14, 29, 127
15, 82056, Note_on_c, 14, 29, 0
15, 82080, Note_on_c, 14, 34, 127
15, 82272, Note_on_c, 14, 34, 0
15, 82320, Note_on_c, 14, 34, 127
15, 82416, Note_on_c, 14, 34, 0
15, 82440, Note_on_c, 14, 29, 127
15, 82536, Note_on_c, 14, 29, 0
15, 83400, Note_on_c, 14, 29, 127
15, 83496, Note_on_c, 14, 29, 0
15, 83520, Note_on_c, 14, 34, 127
15, 83712, Note_on_c, 14, 34, 0
15, 83760, Note_on_c, 14, 34, 127
15, 83856, Note_on_c, 14, 34, 0
15, 83880, Note_on_c, 14, 29, 127
15, 83976, Note_on_c, 14, 29, 0
15, 84240, Note_on_c, 14, 37, 127
15, 84288, Note_on_c, 14, 37, 0
15, 84300, Note_on_c, 14, 37, 127
15, 84348, Note_on_c, 14, 37, 0
15, 84360, Note_on_c, 14, 37, 127
15, 84552, Note_on_c, 14, 37, 0
15, 84600, Note_on_c, 14, 37, 127
15, 84648, Note_on_c, 14, 37, 0
15, 84660, Note_on_c, 14, 37, 127
15, 84708, Note_on_c, 14, 37, 0
15, 84720, Note_on_c, 14, 37, 127
15, 84912, Note_on_c, 14, 37, 0
15, 84960, Note_on_c, 14, 37, 127
15, 85008, Note_on_c, 14, 37, 0
15, 85020, Note_on_c, 14, 37, 127
15, 85068, Note_on_c, 14, 37, 0
15, 85080, Note_on_c, 14, 37, 127
15, 85272, Note_on_c, 14, 37, 0
15, 85320, Note_on_c, 14, 37, 127
15, 85416, Note_on_c, 14, 37, 0
15, 85440, Note_on_c, 14, 37, 127
15, 85536, Note_on_c, 14, 37, 0
15, 85560, Note_on_c, 14, 37, 127
15, 85656, Note_on_c, 14, 37, 0
15, 85680, Note_on_c, 14, 37, 127
15, 85728, Note_on_c, 14, 37, 0
15, 85740, Note_on_c, 14, 37, 100
15, 85788, Note_on_c, 14, 37, 0
15, 85800, Note_on_c, 14, 37, 101
15, 85992, Note_on_c, 14, 37, 0
15, 86040, Note_on_c, 14, 37, 105
15, 86088, Note_on_c, 14, 37, 0
15, 86100, Note_on_c, 14, 37, 107
15, 86148, Note_on_c, 14, 37, 0
15, 86160, Note_on_c, 14, 37, 108
15, 86352, Note_on_c, 14, 37, 0
15, 86400, Note_on_c, 14, 37, 112
15, 86448, Note_on_c, 14, 37, 0
15, 86460, Note_on_c, 14, 37, 114
15, 86508, Note_on_c, 14, 37, 0
15, 86520, Note_on_c, 14, 37, 115
15, 86712, Note_on_c, 14, 37, 0
15, 86760, Note_on_c, 14, 34, 119
15, 86856, Note_on_c, 14, 34, 0
15, 86880, Note_on_c, 14, 34, 122
15, 86976, Note_on_c, 14, 34, 0
15, 87000, Note_on_c, 14, 32, 124
15, 87096, Note_on_c, 14, 32, 0
15, 87120, Note_on_c, 14, 31, 127
15, 87168, Note_on_c, 14, 31, 0
15, 87180, Note_on_c, 14, 39, 102
15, 87228, Note_on_c, 14, 39, 0
15, 87240, Note_on_c, 14, 39, 104
15, 87288, Note_on_c, 14, 39, 0
15, 87300, Note_on_c, 14, 39, 106
15, 87348, Note_on_c, 14, 39, 0
15, 87360, Note_on_c, 14, 39, 109
15, 87408, Note_on_c, 14, 39, 0
15, 87420, Note_on_c, 14, 39, 111
15, 87468, Note_on_c, 14, 39, 0
15, 87480, Note_on_c, 14, 39, 113
15, 87528, Note_on_c, 14, 39, 0
15, 87540, Note_on_c, 14, 39, 115
15, 87588, Note_on_c, 14, 39, 0
15, 87600, Note_on_c, 14, 39, 118
15, 87648, Note_on_c, 14, 39, 0
15, 87660, Note_on_c, 14, 39, 120
15, 87708, Note_on_c, 14, 39, 0
15, 87720, Note_on_c, 14, 39, 122
15, 87768, Note_on_c, 14, 39, 0
15, 87780, Note_on_c, 14, 39, 124
15, 87828, Note_on_c, 14, 39, 0
15, 87840, Note_on_c, 14, 32, 127
15, 88128, Note_on_c, 14, 32, 0
15, 88200, Note_on_c, 14, 32, 122
15, 88488, Note_on_c, 14, 32, 0
15, 88560, Note_on_c, 14, 32, 117
15, 88848, Note_on_c, 14, 32, 0
15, 88920, Note_on_c, 14, 32, 112
15, 89208, Note_on_c, 14, 32, 0
15, 89280, Note_on_c, 14, 32, 107
15, 89568, Note_on_c, 14, 32, 0
15, 89640, Note_on_c, 14, 32, 102
15, 89928, Note_on_c, 14, 32, 0
15, 90000, Note_on_c, 14, 32, 97
15, 90288, Note_on_c, 14, 32, 0
15, 90360, Note_on_c, 14, 32, 92
15, 90456, Note_on_c, 14, 32, 0
15, 90720, Note_on_c, 14, 37, 112
15, 90816, Note_on_c, 14, 37, 0
15, 90840, Note_on_c, 14, 37, 112
15, 90936, Note_on_c, 14, 37, 0
15, 91020, Note_on_c, 14, 37, 112
15, 91068, Note_on_c, 14, 37, 0
15, 91080, Note_on_c, 14, 30, 112
15, 91176, Note_on_c, 14, 30, 0
15, 91200, Note_on_c, 14, 30, 112
15, 91296, Note_on_c, 14, 30, 0
15, 92160, Note_on_c, 14, 37, 112
15, 92256, Note_on_c, 14, 37, 0
15, 92280, Note_on_c, 14, 37, 112
15, 92376, Note_on_c, 14, 37, 0
15, 92460, Note_on_c, 14, 37, 112
15, 92508, Note_on_c, 14, 37, 0
15, 92520, Note_on_c, 14, 30, 112
15, 92616, Note_on_c, 14, 30, 0
15, 92640, Note_on_c, 14, 30, 112
15, 92736, Note_on_c, 14, 30, 0
15, 93600, Note_on_c, 14, 37, 112
15, 93696, Note_on_c, 14, 37, 0
15, 93720, Note_on_c, 14, 37, 112
15, 93816, Note_on_c, 14, 37, 0
15, 93900, Note_on_c, 14, 37, 112
15, 93948, Note_on_c, 14, 37, 0
15, 93960, Note_on_c, 14, 30, 112
15, 94056, Note_on_c, 14, 30, 0
15, 94080, Note_on_c, 14, 30, 112
15, 94176, Note_on_c, 14, 30, 0
15, 96480, Note_on_c, 14, 39, 67
15, 96768, Note_on_c, 14, 39, 0
15, 96840, Note_on_c, 14, 32, 100
15, 97128, Note_on_c, 14, 32, 0
15, 97200, Note_on_c, 14, 37, 127
15, 97488, Note_on_c, 14, 37, 0
15, 97560, Note_on_c, 14, 30, 127
15, 97848, Note_on_c, 14, 30, 0
15, 97920, Note_on_c, 14, 39, 127
15, 97920, Note_on_c, 14, 27, 127
15, 98208, Note_on_c, 14, 27, 0
15, 98208, Note_on_c, 14, 39, 0
15, 98280, Note_on_c, 14, 32, 127
15, 98568, Note_on_c, 14, 32, 0
15, 98640, Note_on_c, 14, 37, 127
15, 98688, Note_on_c, 14, 37, 0
15, 98700, Note_on_c, 14, 37, 127
15, 98748, Note_on_c, 14, 37, 0
15, 98760, Note_on_c, 14, 37, 127
15, 98808, Note_on_c, 14, 37, 0
15, 98820, Note_on_c, 14, 37, 127
15, 98868, Note_on_c, 14, 37, 0
15, 98880, Note_on_c, 14, 37, 127
15, 98928, Note_on_c, 14, 37, 0
15, 98940, Note_on_c, 14, 37, 127
15, 98988, Note_on_c, 14, 37, 0
15, 99000, Note_on_c, 14, 37, 127
15, 99048, Note_on_c, 14, 37, 0
15, 99060, Note_on_c, 14, 37, 127
15, 99108, Note_on_c, 14, 37, 0
15, 99120, Note_on_c, 14, 37, 127
15, 99168, Note_on_c, 14, 37, 0
15, 99180, Note_on_c, 14, 37, 127
15, 99228, Note_on_c, 14, 37, 0
15, 99240, Note_on_c, 14, 37, 127
15, 99288, Note_on_c, 14, 37, 0
15, 99300, Note_on_c, 14, 37, 127
15, 99348, Note_on_c, 14, 37, 0
15, 99360, Note_on_c, 14, 37, 127
15, 99408, Note_on_c, 14, 37, 0
15, 99420, Note_on_c, 14, 37, 127
15, 99468, Note_on_c, 14, 37, 0
15, 99480, Note_on_c, 14, 37, 127
15, 99528, Note_on_c, 14, 37, 0
15, 99540, Note_on_c, 14, 37, 127
15, 99588, Note_on_c, 14, 37, 0
15, 99600, Note_on_c, 14, 37, 127
15, 99648, Note_on_c, 14, 37, 0
15, 99660, Note_on_c, 14, 37, 127
15, 99708, Note_on_c, 14, 37, 0
15, 99720, Note_on_c, 14, 37, 127
15, 99768, Note_on_c, 14, 37, 0
15, 99780, Note_on_c, 14, 37, 127
15, 99828, Note_on_c, 14, 37, 0
15, 99840, Note_on_c, 14, 37, 127
15, 99888, Note_on_c, 14, 37, 0
15, 99900, Note_on_c, 14, 37, 127
15, 99948, Note_on_c, 14, 37, 0
15, 99960, Note_on_c, 14, 37, 127
15, 100008, Note_on_c, 14, 37, 0
15, 100020, Note_on_c, 14, 37, 127
15, 100068, Note_on_c, 14, 37, 0
15, 100080, Note_on_c, 14, 37, 127
15, 100128, Note_on_c, 14, 37, 0
15, 100140, Note_on_c, 14, 37, 127
15, 100188, Note_on_c, 14, 37, 0
15, 100200, Note_on_c, 14, 37, 127
15, 100248, Note_on_c, 14, 37, 0
15, 100260, Note_on_c, 14, 37, 127
15, 100308, Note_on_c, 14, 37, 0
15, 100320, Note_on_c, 14, 37, 127
15, 100368, Note_on_c, 14, 37, 0
15, 100380, Note_on_c, 14, 37, 127
15, 100428, Note_on_c, 14, 37, 0
15, 100440, Note_on_c, 14, 37, 127
15, 100488, Note_on_c, 14, 37, 0
15, 100500, Note_on_c, 14, 37, 127
15, 100548, Note_on_c, 14, 37, 0
15, 100560, Note_on_c, 14, 37, 127
15, 100608, Note_on_c, 14, 37, 0
15, 100620, Note_on_c, 14, 37, 127
15, 100668, Note_on_c, 14, 37, 0
15, 100680, Note_on_c, 14, 37, 127
15, 100728, Note_on_c, 14, 37, 0
15, 100740, Note_on_c, 14, 37, 127
15, 100788, Note_on_c, 14, 37, 0
15, 100800, Note_on_c, 14, 37, 127
15, 100848, Note_on_c, 14, 37, 0
15, 100860, Note_on_c, 14, 37, 127
15, 100908, Note_on_c, 14, 37, 0
15, 100920, Note_on_c, 14, 37, 127
15, 100968, Note_on_c, 14, 37, 0
15, 100980, Note_on_c, 14, 37, 127
15, 101028, Note_on_c, 14, 37, 0
15, 101040, Note_on_c, 14, 37, 127
15, 101088, Note_on_c, 14, 37, 0
15, 101100, Note_on_c, 14, 37, 127
15, 101148, Note_on_c, 14, 37, 0
15, 101160, Note_on_c, 14, 37, 127
15, 101208, Note_on_c, 14, 37, 0
15, 101220, Note_on_c, 14, 37, 127
15, 101268, Note_on_c, 14, 37, 0
15, 101280, Note_on_c, 14, 37, 127
15, 101328, Note_on_c, 14, 37, 0
15, 101340, Note_on_c, 14, 37, 127
15, 101388, Note_on_c, 14, 37, 0
15, 101400, Note_on_c, 14, 37, 127
15, 101448, Note_on_c, 14, 37, 0
15, 101460, Note_on_c, 14, 37, 127
15, 101508, Note_on_c, 14, 37, 0
15, 101520, Note_on_c, 14, 37, 127
15, 101568, Note_on_c, 14, 37, 0
15, 101580, Note_on_c, 14, 37, 127
15, 101628, Note_on_c, 14, 37, 0
15, 101640, Note_on_c, 14, 37, 127
15, 101688, Note_on_c, 14, 37, 0
15, 101700, Note_on_c, 14, 37, 127
15, 101748, Note_on_c, 14, 37, 0
15, 101760, Note_on_c, 14, 37, 127
15, 101808, Note_on_c, 14, 37, 0
15, 101820, Note_on_c, 14, 37, 127
15, 101868, Note_on_c, 14, 37, 0
15, 101880, Note_on_c, 14, 37, 127
15, 101928, Note_on_c, 14, 37, 0
15, 101940, Note_on_c, 14, 37, 127
15, 101988, Note_on_c, 14, 37, 0
15, 102000, Note_on_c, 14, 37, 127
15, 102048, Note_on_c, 14, 37, 0
15, 102060, Note_on_c, 14, 37, 127
15, 102108, Note_on_c, 14, 37, 0
15, 102120, Note_on_c, 14, 37, 127
15, 102168, Note_on_c, 14, 37, 0
15, 102180, Note_on_c, 14, 37, 127
15, 102228, Note_on_c, 14, 37, 0
15, 102240, Note_on_c, 14, 37, 127
15, 102288, Note_on_c, 14, 37, 0
15, 102300, Note_on_c, 14, 37, 127
15, 102348, Note_on_c, 14, 37, 0
15, 102360, Note_on_c, 14, 37, 127
15, 102408, Note_on_c, 14, 37, 0
15, 102420, Note_on_c, 14, 37, 127
15, 102468, Note_on_c, 14, 37, 0
15, 102480, Note_on_c, 14, 37, 127
15, 102528, Note_on_c, 14, 37, 0
15, 102540, Note_on_c, 14, 37, 127
15, 102588, Note_on_c, 14, 37, 0
15, 102600, Note_on_c, 14, 37, 127
15, 102648, Note_on_c, 14, 37, 0
15, 102660, Note_on_c, 14, 37, 127
15, 102708, Note_on_c, 14, 37, 0
15, 102720, Note_on_c, 14, 37, 127
15, 102768, Note_on_c, 14, 37, 0
15, 102780, Note_on_c, 14, 37, 127
15, 102828, Note_on_c, 14, 37, 0
15, 102840, Note_on_c, 14, 37, 127
15, 102888, Note_on_c, 14, 37, 0
15, 102900, Note_on_c, 14, 37, 127
15, 102948, Note_on_c, 14, 37, 0
15, 102960, Note_on_c, 14, 37, 127
15, 103056, Note_on_c, 14, 37, 0
15, 108720, Note_on_c, 14, 29, 127
15, 108816, Note_on_c, 14, 29, 0
15, 108840, Note_on_c, 14, 29, 127
15, 108936, Note_on_c, 14, 29, 0
15, 109020, Note_on_c, 14, 29, 127
15, 109068, Note_on_c, 14, 29, 0
15, 109080, Note_on_c, 14, 29, 127
15, 109176, Note_on_c, 14, 29, 0
15, 109200, Note_on_c, 14, 29, 127
15, 109296, Note_on_c, 14, 29, 0
15, 109380, Note_on_c, 14, 29, 127
15, 109428, Note_on_c, 14, 29, 0
15, 109440, Note_on_c, 14, 28, 127
15, 109536, Note_on_c, 14, 28, 0
15, 109560, Note_on_c, 14, 28, 127
15, 109656, Note_on_c, 14, 28, 0
15, 113400, Note_on_c, 14, 36, 50
15, 113460, Note_on_c, 14, 36, 0
15, 113460, Note_on_c, 14, 35, 50
15, 113508, Note_on_c, 14, 35, 0
15, 113520, Note_on_c, 14, 36, 50
15, 113568, Note_on_c, 14, 36, 0
15, 113580, Note_on_c, 14, 36, 50
15, 113628, Note_on_c, 14, 36, 0
15, 113640, Note_on_c, 14, 36, 50
15, 113688, Note_on_c, 14, 36, 0
15, 113700, Note_on_c, 14, 36, 50
15, 113748, Note_on_c, 14, 36, 0
15, 113760, Note_on_c, 14, 36, 50
15, 113808, Note_on_c, 14, 36, 0
15, 113820, Note_on_c, 14, 36, 50
15, 113868, Note_on_c, 14, 36, 0
15, 113880, Note_on_c, 14, 36, 50
15, 113940, Note_on_c, 14, 36, 0
15, 113940, Note_on_c, 14, 35, 50
15, 113988, Note_on_c, 14, 35, 0
15, 114000, Note_on_c, 14, 36, 50
15, 114048, Note_on_c, 14, 36, 0
15, 114060, Note_on_c, 14, 36, 50
15, 114108, Note_on_c, 14, 36, 0
15, 114120, Note_on_c, 14, 36, 50
15, 114168, Note_on_c, 14, 36, 0
15, 114180, Note_on_c, 14, 36, 50
15, 114228, Note_on_c, 14, 36, 0
15, 114240, Note_on_c, 14, 36, 50
15, 114288, Note_on_c, 14, 36, 0
15, 114300, Note_on_c, 14, 36, 50
15, 114348, Note_on_c, 14, 36, 0
15, 114360, Note_on_c, 14, 36, 50
15, 114420, Note_on_c, 14, 36, 0
15, 114420, Note_on_c, 14, 35, 50
15, 114468, Note_on_c, 14, 35, 0
15, 114480, Note_on_c, 14, 36, 50
15, 114528, Note_on_c, 14, 36, 0
15, 114540, Note_on_c, 14, 36, 50
15, 114588, Note_on_c, 14, 36, 0
15, 114600, Note_on_c, 14, 36, 50
15, 114648, Note_on_c, 14, 36, 0
15, 114660, Note_on_c, 14, 36, 50
15, 114708, Note_on_c, 14, 36, 0
15, 114720, Note_on_c, 14, 36, 50
15, 114768, Note_on_c, 14, 36, 0
15, 114780, Note_on_c, 14, 36, 50
15, 114828, Note_on_c, 14, 36, 0
15, 114840, Note_on_c, 14, 36, 50
15, 114900, Note_on_c, 14, 36, 0
15, 114900, Note_on_c, 14, 35, 50
15, 114948, Note_on_c, 14, 35, 0
15, 114960, Note_on_c, 14, 36, 50
15, 115008, Note_on_c, 14, 36, 0
15, 115020, Note_on_c, 14, 36, 50
15, 115068, Note_on_c, 14, 36, 0
15, 115080, Note_on_c, 14, 36, 50
15, 115128, Note_on_c, 14, 36, 0
15, 115140, Note_on_c, 14, 36, 52
15, 115188, Note_on_c, 14, 36, 0
15, 115200, Note_on_c, 14, 36, 54
15, 115248, Note_on_c, 14, 36, 0
15, 115260, Note_on_c, 14, 36, 56
15, 115308, Note_on_c, 14, 36, 0
15, 115320, Note_on_c, 14, 36, 58
15, 115380, Note_on_c, 14, 36, 0
15, 115380, Note_on_c, 14, 35, 60
15, 115428, Note_on_c, 14, 35, 0
15, 115440, Note_on_c, 14, 36, 62
15, 115488, Note_on_c, 14, 36, 0
15, 115500, Note_on_c, 14, 36, 65
15, 115548, Note_on_c, 14, 36, 0
15, 115560, Note_on_c, 14, 36, 67
15, 115620, Note_on_c, 14, 36, 0
15, 115620, Note_on_c, 14, 35, 69
15, 115668, Note_on_c, 14, 35, 0
15, 115680, Note_on_c, 14, 36, 71
15, 115728, Note_on_c, 14, 36, 0
15, 115740, Note_on_c, 14, 36, 73
15, 115788, Note_on_c, 14, 36, 0
15, 115800, Note_on_c, 14, 36, 75
15, 115860, Note_on_c, 14, 36, 0
15, 115860, Note_on_c, 14, 35, 78
15, 115908, Note_on_c, 14, 35, 0
15, 115920, Note_on_c, 14, 36, 80
15, 115968, Note_on_c, 14, 36, 0
15, 115980, Note_on_c, 14, 36, 82
15, 116028, Note_on_c, 14, 36, 0
15, 116040, Note_on_c, 14, 36, 84
15, 116100, Note_on_c, 14, 36, 0
15, 116100, Note_on_c, 14, 35, 86
15, 116148, Note_on_c, 14, 35, 0
15, 116160, Note_on_c, 14, 36, 88
15, 116208, Note_on_c, 14, 36, 0
15, 116220, Note_on_c, 14, 36, 90
15, 116268, Note_on_c, 14, 36, 0
15, 116280, Note_on_c, 14, 36, 93
15, 116328, Note_on_c, 14, 36, 0
15, 116340, Note_on_c, 14, 35, 95
15, 116388, Note_on_c, 14, 35, 0
15, 116400, Note_on_c, 14, 36, 97
15, 116448, Note_on_c, 14, 36, 0
15, 116460, Note_on_c, 14, 36, 99
15, 116508, Note_on_c, 14, 36, 0
15, 116520, Note_on_c, 14, 36, 101
15, 116568, Note_on_c, 14, 36, 0
15, 116580, Note_on_c, 14, 35, 103
15, 116628, Note_on_c, 14, 35, 0
15, 116640, Note_on_c, 14, 36, 106
15, 116688, Note_on_c, 14, 36, 0
15, 116700, Note_on_c, 14, 36, 108
15, 116748, Note_on_c, 14, 36, 0
15, 116760, Note_on_c, 14, 36, 110
15, 116808, Note_on_c, 14, 36, 0
15, 116820, Note_on_c, 14, 48, 112
15, 116868, Note_on_c, 14, 48, 0
15, 116880, Note_on_c, 14, 48, 114
15, 116928, Note_on_c, 14, 48, 0
15, 116940, Note_on_c, 14, 48, 116
15, 116988, Note_on_c, 14, 48, 0
15, 117000, Note_on_c, 14, 48, 118
15, 117048, Note_on_c, 14, 48, 0
15, 117060, Note_on_c, 14, 48, 121
15, 117108, Note_on_c, 14, 48, 0
15, 117120, Note_on_c, 14, 48, 123
15, 117168, Note_on_c, 14, 48, 0
15, 117180, Note_on_c, 14, 48, 125
15, 117228, Note_on_c, 14, 48, 0
15, 117240, Note_on_c, 14, 41, 127
15, 117528, Note_on_c, 14, 41, 0
15, 117540, Note_on_c, 14, 36, 127
15, 117588, Note_on_c, 14, 36, 0
15, 117600, Note_on_c, 14, 33, 127
15, 117648, Note_on_c, 14, 33, 0
15, 117660, Note_on_c, 14, 36, 127
15, 117708, Note_on_c, 14, 36, 0
15, 117720, Note_on_c, 14, 41, 127
15, 118008, Note_on_c, 14, 41, 0
15, 118020, Note_on_c, 14, 36, 127
15, 118068, Note_on_c, 14, 36, 0
15, 118080, Note_on_c, 14, 33, 127
15, 118128, Note_on_c, 14, 33, 0
15, 118140, Note_on_c, 14, 36, 127
15, 118188, Note_on_c, 14, 36, 0
15, 118200, Note_on_c, 14, 41, 127
15, 118260, Note_on_c, 14, 41, 0
15, 118260, Note_on_c, 14, 36, 127
15, 118308, Note_on_c, 14, 36, 0
15, 118320, Note_on_c, 14, 33, 127
15, 118368, Note_on_c, 14, 33, 0
15, 118380, Note_on_c, 14, 36, 127
15, 118428, Note_on_c, 14, 36, 0
15, 118440, Note_on_c, 14, 41, 127
15, 118500, Note_on_c, 14, 41, 0
15, 118500, Note_on_c, 14, 36, 127
15, 118548, Note_on_c, 14, 36, 0
15, 118560, Note_on_c, 14, 33, 127
15, 118608, Note_on_c, 14, 33, 0
15, 118620, Note_on_c, 14, 36, 127
15, 118668, Note_on_c, 14, 36, 0
15, 118680, Note_on_c, 14, 41, 127
15, 118740, Note_on_c, 14, 41, 0
15, 118740, Note_on_c, 14, 36, 127
15, 118788, Note_on_c, 14, 36, 0
15, 118800, Note_on_c, 14, 33, 127
15, 118848, Note_on_c, 14, 33, 0
15, 118860, Note_on_c, 14, 36, 127
15, 118908, Note_on_c, 14, 36, 0
15, 118920, Note_on_c, 14, 41, 127
15, 118980, Note_on_c, 14, 41, 0
15, 118980, Note_on_c, 14, 36, 127
15, 119028, Note_on_c, 14, 36, 0
15, 119040, Note_on_c, 14, 33, 127
15, 119088, Note_on_c, 14, 33, 0
15, 119100, Note_on_c, 14, 36, 127
15, 119148, Note_on_c, 14, 36, 0
15, 119160, Note_on_c, 14, 41, 127
15, 119352, Note_on_c, 14, 41, 0
15, 119400, Note_on_c, 14, 38, 127
15, 119592, Note_on_c, 14, 38, 0
15, 119640, Note_on_c, 14, 34, 127
15, 119736, Note_on_c, 14, 34, 0
15, 119760, Note_on_c, 14, 31, 127
15, 119856, Note_on_c, 14, 31, 0
15, 119880, Note_on_c, 14, 36, 127
15, 119976, Note_on_c, 14, 36, 0
15, 120000, Note_on_c, 14, 36, 127
15, 120096, Note_on_c, 14, 36, 0
15, 120120, Note_on_c, 14, 41, 127
15, 120408, Note_on_c, 14, 41, 0
15, 120420, Note_on_c, 14, 36, 127
15, 120468, Note_on_c, 14, 36, 0
15, 120480, Note_on_c, 14, 33, 127
15, 120528, Note_on_c, 14, 33, 0
15, 120540, Note_on_c, 14, 36, 127
15, 120588, Note_on_c, 14, 36, 0
15, 120600, Note_on_c, 14, 41, 127
15, 120888, Note_on_c, 14, 41, 0
15, 120900, Note_on_c, 14, 36, 127
15, 120948, Note_on_c, 14, 36, 0
15, 120960, Note_on_c, 14, 33, 127
15, 121008, Note_on_c, 14, 33, 0
15, 121020, Note_on_c, 14, 36, 127
15, 121068, Note_on_c, 14, 36, 0
15, 121080, Note_on_c, 14, 41, 127
15, 121140, Note_on_c, 14, 41, 0
15, 121140, Note_on_c, 14, 36, 127
15, 121188, Note_on_c, 14, 36, 0
15, 121200, Note_on_c, 14, 33, 127
15, 121248, Note_on_c, 14, 33, 0
15, 121260, Note_on_c, 14, 36, 127
15, 121308, Note_on_c, 14, 36, 0
15, 121320, Note_on_c, 14, 41, 127
15, 121380, Note_on_c, 14, 41, 0
15, 121380, Note_on_c, 14, 36, 127
15, 121428, Note_on_c, 14, 36, 0
15, 121440, Note_on_c, 14, 33, 127
15, 121488, Note_on_c, 14, 33, 0
15, 121500, Note_on_c, 14, 36, 127
15, 121548, Note_on_c, 14, 36, 0
15, 121560, Note_on_c, 14, 41, 127
15, 121620, Note_on_c, 14, 41, 0
15, 121620, Note_on_c, 14, 36, 127
15, 121668, Note_on_c, 14, 36, 0
15, 121680, Note_on_c, 14, 33, 127
15, 121728, Note_on_c, 14, 33, 0
15, 121740, Note_on_c, 14, 36, 127
15, 121788, Note_on_c, 14, 36, 0
15, 121800, Note_on_c, 14, 41, 127
15, 121860, Note_on_c, 14, 41, 0
15, 121860, Note_on_c, 14, 36, 127
15, 121908, Note_on_c, 14, 36, 0
15, 121920, Note_on_c, 14, 33, 127
15, 121968, Note_on_c, 14, 33, 0
15, 121980, Note_on_c, 14, 36, 127
15, 122028, Note_on_c, 14, 36, 0
15, 122040, Note_on_c, 14, 41, 127
15, 122232, Note_on_c, 14, 41, 0
15, 122280, Note_on_c, 14, 38, 127
15, 122472, Note_on_c, 14, 38, 0
15, 122520, Note_on_c, 14, 34, 127
15, 122616, Note_on_c, 14, 34, 0
15, 122640, Note_on_c, 14, 31, 127
15, 122736, Note_on_c, 14, 31, 0
15, 122760, Note_on_c, 14, 36, 127
15, 122856, Note_on_c, 14, 36, 0
15, 122880, Note_on_c, 14, 36, 127
15, 122976, Note_on_c, 14, 36, 0
15, 123000, Note_on_c, 14, 29, 127
15, 123096, Note_on_c, 14, 29, 0
15, 125880, Note_on_c, 14, 41, 127
15, 126000, Note_on_c, 14, 41, 0
15, 126000, Note_on_c, 14, 39, 127
15, 126120, Note_on_c, 14, 39, 0
15, 126120, Note_on_c, 14, 38, 127
15, 126240, Note_on_c, 14, 38, 0
15, 126240, Note_on_c, 14, 42, 127
15, 126336, Note_on_c, 14, 42, 0
15, 126360, Note_on_c, 14, 43, 127
15, 126480, Note_on_c, 14, 43, 0
15, 126480, Note_on_c, 14, 37, 127
15, 126600, Note_on_c, 14, 37, 0
15, 126600, Note_on_c, 14, 36, 127
15, 126720, Note_on_c, 14, 36, 0
15, 126720, Note_on_c, 14, 34, 127
15, 126816, Note_on_c, 14, 34, 0
15, 126840, Note_on_c, 14, 33, 127
15, 126888, Note_on_c, 14, 33, 0
15, 126900, Note_on_c, 14, 33, 127
15, 126948, Note_on_c, 14, 33, 0
15, 126960, Note_on_c, 14, 34, 127
15, 127008, Note_on_c, 14, 34, 0
15, 127020, Note_on_c, 14, 36, 127
15, 127068, Note_on_c, 14, 36, 0
15, 127080, Note_on_c, 14, 38, 127
15, 127128, Note_on_c, 14, 38, 0
15, 127140, Note_on_c, 14, 36, 127
15, 127188, Note_on_c, 14, 36, 0
15, 127200, Note_on_c, 14, 34, 127
15, 127248, Note_on_c, 14, 34, 0
15, 127260, Note_on_c, 14, 33, 127
15, 127308, Note_on_c, 14, 33, 0
15, 127320, Note_on_c, 14, 34, 127
15, 127368, Note_on_c, 14, 34, 0
15, 127380, Note_on_c, 14, 33, 127
15, 127428, Note_on_c, 14, 33, 0
15, 127440, Note_on_c, 14, 34, 127
15, 127488, Note_on_c, 14, 34, 0
15, 127500, Note_on_c, 14, 31, 127
15, 127548, Note_on_c, 14, 31, 0
15, 127560, Note_on_c, 14, 36, 127
15, 127608, Note_on_c, 14, 36, 0
15, 127620, Note_on_c, 14, 36, 127
15, 127668, Note_on_c, 14, 36, 0
15, 127680, Note_on_c, 14, 36, 127
15, 127728, Note_on_c, 14, 36, 0
15, 127740, Note_on_c, 14, 36, 127
15, 127788, Note_on_c, 14, 36, 0
15, 127800, Note_on_c, 14, 29, 127
15, 127992, Note_on_c, 14, 29, 0
15, 128040, Note_on_c, 14, 28, 127
15, 128232, Note_on_c, 14, 28, 0
15, 128280, Note_on_c, 14, 29, 127
15, 128472, Note_on_c, 14, 29, 0
15, 128520, Note_on_c, 14, 31, 127
15, 128712, Note_on_c, 14, 31, 0
15, 128760, Note_on_c, 14, 32, 127
15, 128856, Note_on_c, 14, 32, 0
15, 128880, Note_on_c, 14, 33, 127
15, 129624, Note_on_c, 14, 33, 0
15, 129720, Note_on_c, 14, 36, 127
15, 129816, Note_on_c, 14, 36, 0
15, 129840, Note_on_c, 14, 36, 127
15, 129936, Note_on_c, 14, 36, 0
15, 129960, Note_on_c, 14, 36, 127
15, 130056, Note_on_c, 14, 36, 0
15, 130080, Note_on_c, 14, 36, 127
15, 130176, Note_on_c, 14, 36, 0
15, 130200, Note_on_c, 14, 36, 127
15, 130296, Note_on_c, 14, 36, 0
15, 130320, Note_on_c, 14, 36, 127
15, 130416, Note_on_c, 14, 36, 0
15, 130440, Note_on_c, 14, 36, 127
15, 130536, Note_on_c, 14, 36, 0
15, 130560, Note_on_c, 14, 36, 127
15, 130656, Note_on_c, 14, 36, 0
15, 130680, Note_on_c, 14, 29, 127
15, 130824, Note_on_c, 14, 29, 0
15, 130860, Note_on_c, 14, 29, 127
15, 130908, Note_on_c, 14, 29, 0
15, 130920, Note_on_c, 14, 28, 127
15, 131064, Note_on_c, 14, 28, 0
15, 131100, Note_on_c, 14, 28, 127
15, 131148, Note_on_c, 14, 28, 0
15, 131160, Note_on_c, 14, 29, 127
15, 131304, Note_on_c, 14, 29, 0
15, 131340, Note_on_c, 14, 29, 127
15, 131388, Note_on_c, 14, 29, 0
15, 131400, Note_on_c, 14, 31, 127
15, 131544, Note_on_c, 14, 31, 0
15, 131580, Note_on_c, 14, 31, 127
15, 131628, Note_on_c, 14, 31, 0
15, 131640, Note_on_c, 14, 32, 127
15, 131736, Note_on_c, 14, 32, 0
15, 131760, Note_on_c, 14, 33, 127
15, 132504, Note_on_c, 14, 33, 0
15, 132600, Note_on_c, 14, 36, 127
15, 132696, Note_on_c, 14, 36, 0
15, 132720, Note_on_c, 14, 36, 127
15, 132816, Note_on_c, 14, 36, 0
15, 132840, Note_on_c, 14, 36, 127
15, 132936, Note_on_c, 14, 36, 0
15, 132960, Note_on_c, 14, 36, 127
15, 133056, Note_on_c, 14, 36, 0
15, 133080, Note_on_c, 14, 36, 127
15, 133176, Note_on_c, 14, 36, 0
15, 133200, Note_on_c, 14, 36, 127
15, 133296, Note_on_c, 14, 36, 0
15, 133320, Note_on_c, 14, 36, 127
15, 133416, Note_on_c, 14, 36, 0
15, 133440, Note_on_c, 14, 36, 127
15, 133536, Note_on_c, 14, 36, 0
15, 133560, Note_on_c, 14, 41, 127
15, 133752, Note_on_c, 14, 41, 0
15, 133800, Note_on_c, 14, 36, 127
15, 133896, Note_on_c, 14, 36, 0
15, 134040, Note_on_c, 14, 41, 127
15, 134136, Note_on_c, 14, 41, 0
15, 134160, Note_on_c, 14, 36, 127
15, 134256, Note_on_c, 14, 36, 0
15, 134280, Note_on_c, 14, 33, 127
15, 134376, Note_on_c, 14, 33, 0
15, 134400, Note_on_c, 14, 36, 127
15, 134496, Note_on_c, 14, 36, 0
15, 134520, Note_on_c, 14, 41, 127
15, 134808, Note_on_c, 14, 41, 0
15, 134880, Note_on_c, 14, 36, 127
15, 134976, Note_on_c, 14, 36, 0
15, 135000, Note_on_c, 14, 41, 127
15, 135096, Note_on_c, 14, 41, 0
15, 135120, Note_on_c, 14, 36, 127
15, 135216, Note_on_c, 14, 36, 0
15, 135240, Note_on_c, 14, 33, 127
15, 135336, Note_on_c, 14, 33, 0
15, 135360, Note_on_c, 14, 36, 127
15, 135456, Note_on_c, 14, 36, 0
15, 135480, Note_on_c, 14, 41, 127
15, 135672, Note_on_c, 14, 41, 0
15, 135720, Note_on_c, 14, 45, 127
15, 135912, Note_on_c, 14, 45, 0
15, 135960, Note_on_c, 14, 48, 127
15, 136248, Note_on_c, 14, 48, 0
15, 136320, Note_on_c, 14, 36, 127
15, 136416, Note_on_c, 14, 36, 0
15, 136440, Note_on_c, 14, 41, 127
15, 136632, Note_on_c, 14, 41, 0
15, 136680, Note_on_c, 14, 45, 127
15, 136872, Note_on_c, 14, 45, 0
15, 136920, Note_on_c, 14, 48, 127
15, 137208, Note_on_c, 14, 48, 0
15, 137280, Note_on_c, 14, 36, 127
15, 137376, Note_on_c, 14, 36, 0
15, 137400, Note_on_c, 14, 41, 127
15, 137592, Note_on_c, 14, 41, 0
15, 137640, Note_on_c, 14, 45, 127
15, 137832, Note_on_c, 14, 45, 0
15, 137880, Note_on_c, 14, 48, 127
15, 138168, Note_on_c, 14, 48, 0
15, 138240, Note_on_c, 14, 36, 127
15, 138336, Note_on_c, 14, 36, 0
15, 138360, Note_on_c, 14, 48, 127
15, 138648, Note_on_c, 14, 48, 0
15, 138720, Note_on_c, 14, 36, 127
15, 138816, Note_on_c, 14, 36, 0
15, 138840, Note_on_c, 14, 48, 127
15, 139128, Note_on_c, 14, 48, 0
15, 139200, Note_on_c, 14, 36, 127
15, 139296, Note_on_c, 14, 36, 0
15, 139320, Note_on_c, 14, 29, 127
15, 139368, Note_on_c, 14, 29, 0
15, 139380, Note_on_c, 14, 29, 127
15, 139428, Note_on_c, 14, 29, 0
15, 139440, Note_on_c, 14, 29, 127
15, 139488, Note_on_c, 14, 29, 0
15, 139500, Note_on_c, 14, 29, 127
15, 139548, Note_on_c, 14, 29, 0
15, 139560, Note_on_c, 14, 29, 127
15, 139608, Note_on_c, 14, 29, 0
15, 139620, Note_on_c, 14, 29, 127
15, 139668, Note_on_c, 14, 29, 0
15, 139680, Note_on_c, 14, 29, 127
15, 139728, Note_on_c, 14, 29, 0
15, 139740, Note_on_c, 14, 29, 127
15, 139788, Note_on_c, 14, 29, 0
15, 139800, Note_on_c, 14, 29, 127
15, 139848, Note_on_c, 14, 29, 0
15, 139860, Note_on_c, 14, 29, 127
15, 139908, Note_on_c, 14, 29, 0
15, 139920, Note_on_c, 14, 29, 127
15, 139968, Note_on_c, 14, 29, 0
15, 139980, Note_on_c, 14, 29, 127
15, 140028, Note_on_c, 14, 29, 0
15, 140040, Note_on_c, 14, 29, 127
15, 140088, Note_on_c, 14, 29, 0
15, 140100, Note_on_c, 14, 29, 127
15, 140148, Note_on_c, 14, 29, 0
15, 140160, Note_on_c, 14, 29, 127
15, 140208, Note_on_c, 14, 29, 0
15, 140220, Note_on_c, 14, 29, 127
15, 140268, Note_on_c, 14, 29, 0
15, 140280, Note_on_c, 14, 29, 127
15, 140376, Note_on_c, 14, 29, 0
15, 140760, Note_on_c, 14, 29, 127
15, 140856, Note_on_c, 14, 29, 0
15, 141240, Note_on_c, 14, 29, 127
15, 141336, Note_on_c, 14, 29, 0
15, 141720, Note_on_c, 14, 29, 127
15, 141816, Note_on_c, 14, 29, 0
15, 141960, Note_on_c, 14, 29, 127
15, 142056, Note_on_c, 14, 29, 0
15, 142200, Note_on_c, 14, 29, 127
15, 142296, Note_on_c, 14, 29, 0
15, 142296, End_track
0, 0, End_of_file