0, 0, Header, 1, 11, 120
1, 0, Start_track
1, 0, Title_t, "Klavierstuck fur Ferdinand Pringer"
1, 0, Title_t, "WoO 61"
1, 0, Copyright_t, "fiorellaearmando@panet.it"
1, 0, Text_t, "lvb\012"
1, 0, Sequencer_specific, 03, 00, 00, 41
1, 0, Time_signature, 4, 2, 24, 8
1, 0, Key_signature, 2, "major"
1, 0, Tempo, 545455
1, 22240, Tempo, 535714
1, 22246, Tempo, 540541
1, 22250, Tempo, 545455
1, 22253, Tempo, 550459
1, 22260, Tempo, 555556
1, 22263, Tempo, 560748
1, 22266, Tempo, 566038
1, 22273, Tempo, 571429
1, 22276, Tempo, 576923
1, 22280, Tempo, 582524
1, 22286, Tempo, 588235
1, 22290, Tempo, 594059
1, 22293, Tempo, 600000
1, 22300, Tempo, 606061
1, 22303, Tempo, 612245
1, 22306, Tempo, 618557
1, 22313, Tempo, 625000
1, 22316, Tempo, 631579
1, 22320, Tempo, 638298
1, 22326, Tempo, 645161
1, 22330, Tempo, 652174
1, 22333, Tempo, 659341
1, 22336, Tempo, 666667
1, 22343, Tempo, 674157
1, 22346, Tempo, 681818
1, 22350, Tempo, 689655
1, 22356, Tempo, 697674
1, 22360, Tempo, 705882
1, 22363, Tempo, 714286
1, 22370, Tempo, 722892
1, 22373, Tempo, 731707
1, 22376, Tempo, 740741
1, 22383, Tempo, 750000
1, 22386, Tempo, 759494
1, 22390, Tempo, 769231
1, 22396, Tempo, 779221
1, 22400, Tempo, 789474
1, 22403, Tempo, 800000
1, 22410, Tempo, 810811
1, 22413, Tempo, 821918
1, 22416, Tempo, 833333
1, 22423, Tempo, 845070
1, 22426, Tempo, 857143
1, 22430, Tempo, 869565
1, 22433, Tempo, 882353
1, 22440, Tempo, 895522
1, 22443, Tempo, 909091
1, 22446, Tempo, 923077
1, 22453, Tempo, 937500
1, 22456, Tempo, 952381
1, 22460, Tempo, 967742
1, 22466, Tempo, 983607
1, 22470, Tempo, 1000000
1, 22473, Tempo, 1016949
1, 22480, Tempo, 1034483
1, 22483, Tempo, 1052632
1, 22486, Tempo, 1071429
1, 22493, Tempo, 1090909
1, 22496, Tempo, 1111111
1, 22500, Tempo, 1132075
1, 22506, Tempo, 1153846
1, 22510, Tempo, 1176471
1, 22513, Tempo, 1200000
1, 22516, Tempo, 1224490
1, 22523, Tempo, 1250000
1, 22526, Tempo, 1276596
1, 22530, Tempo, 1304348
1, 22536, Tempo, 1333333
1, 22540, Tempo, 1363636
1, 22543, Tempo, 1395349
1, 22550, Tempo, 1428571
1, 22553, Tempo, 1463415
1, 22556, Tempo, 1500000
1, 22563, Tempo, 1538462
1, 22566, Tempo, 1578947
1, 22570, Tempo, 1621622
1, 22576, Tempo, 1666667
1, 22580, Tempo, 1714286
1, 22583, Tempo, 1764706
1, 22590, Tempo, 1818182
1, 22593, Tempo, 1875000
1, 22596, Tempo, 1935484
1, 22603, Tempo, 2000000
1, 22606, Tempo, 2068966
1, 22610, Tempo, 2142857
1, 22613, Tempo, 2222222
1, 22620, Tempo, 2307692
1, 22623, Tempo, 2400000
1, 22626, Tempo, 2500000
1, 22633, Tempo, 2608696
1, 22636, Tempo, 2727273
1, 22640, Tempo, 2857143
1, 22646, Tempo, 3000000
1, 22650, Tempo, 3157895
1, 22653, Tempo, 3333333
1, 22660, Tempo, 3529412
1, 22663, Tempo, 3750000
1, 22666, Tempo, 4000000
1, 22673, Tempo, 4285714
1, 22676, Tempo, 4615385
1, 22680, Tempo, 5000000
1, 22686, Tempo, 5454545
1, 22690, Tempo, 6000000
1, 22693, Tempo, 6666667
1, 22696, Tempo, 7500000
1, 22696, End_track
2, 0, Start_track
2, 0, MIDI_port, 0
2, 0, Control_c, 0, 0, 0
2, 0, Control_c, 0, 32, 0
2, 0, Program_c, 0, 0
2, 0, Control_c, 0, 7, 100
2, 720, Note_on_c, 0, 78, 70
2, 960, Note_on_c, 0, 73, 70
2, 1050, Note_on_c, 0, 74, 70
2, 1051, Note_on_c, 0, 73, 0
2, 1080, Note_on_c, 0, 76, 70
2, 1081, Note_on_c, 0, 74, 0
2, 1200, Note_on_c, 0, 74, 70
2, 1201, Note_on_c, 0, 76, 0
2, 1206, Note_on_c, 0, 78, 0
2, 1290, Note_on_c, 0, 73, 70
2, 1291, Note_on_c, 0, 74, 0
2, 1320, Note_on_c, 0, 71, 70
2, 1321, Note_on_c, 0, 73, 0
2, 1440, Note_on_c, 0, 71, 70
2, 1440, Note_on_c, 0, 79, 70
2, 1441, Note_on_c, 0, 71, 0
2, 1530, Note_on_c, 0, 78, 70
2, 1531, Note_on_c, 0, 79, 0
2, 1560, Note_on_c, 0, 71, 70
2, 1560, Note_on_c, 0, 76, 70
2, 1561, Note_on_c, 0, 78, 0
2, 1561, Note_on_c, 0, 71, 0
2, 1650, Note_on_c, 0, 74, 70
2, 1651, Note_on_c, 0, 76, 0
2, 1680, Note_on_c, 0, 74, 70
2, 1681, Note_on_c, 0, 74, 0
2, 1800, Note_on_c, 0, 70, 70
2, 1800, Note_on_c, 0, 73, 70
2, 1801, Note_on_c, 0, 74, 0
2, 1802, Note_on_c, 0, 71, 0
2, 1921, Note_on_c, 0, 70, 0
2, 1921, Note_on_c, 0, 73, 0
2, 2640, Note_on_c, 0, 78, 70
2, 2880, Note_on_c, 0, 73, 70
2, 2970, Note_on_c, 0, 74, 70
2, 2971, Note_on_c, 0, 73, 0
2, 3000, Note_on_c, 0, 76, 70
2, 3001, Note_on_c, 0, 74, 0
2, 3120, Note_on_c, 0, 74, 70
2, 3121, Note_on_c, 0, 76, 0
2, 3126, Note_on_c, 0, 78, 0
2, 3210, Note_on_c, 0, 73, 70
2, 3211, Note_on_c, 0, 74, 0
2, 3240, Note_on_c, 0, 71, 70
2, 3241, Note_on_c, 0, 73, 0
2, 3360, Note_on_c, 0, 71, 70
2, 3360, Note_on_c, 0, 79, 70
2, 3361, Note_on_c, 0, 71, 0
2, 3450, Note_on_c, 0, 78, 70
2, 3451, Note_on_c, 0, 79, 0
2, 3480, Note_on_c, 0, 71, 70
2, 3480, Note_on_c, 0, 76, 70
2, 3481, Note_on_c, 0, 78, 0
2, 3481, Note_on_c, 0, 71, 0
2, 3570, Note_on_c, 0, 74, 70
2, 3571, Note_on_c, 0, 76, 0
2, 3600, Note_on_c, 0, 74, 70
2, 3601, Note_on_c, 0, 74, 0
2, 3720, Note_on_c, 0, 70, 70
2, 3720, Note_on_c, 0, 73, 70
2, 3721, Note_on_c, 0, 74, 0
2, 3722, Note_on_c, 0, 71, 0
2, 3840, Note_on_c, 0, 69, 70
2, 3840, Note_on_c, 0, 74, 70
2, 3841, Note_on_c, 0, 70, 0
2, 3841, Note_on_c, 0, 73, 0
2, 3960, Note_on_c, 0, 78, 70
2, 3961, Note_on_c, 0, 74, 0
2, 4080, Note_on_c, 0, 73, 70
2, 4082, Note_on_c, 0, 69, 0
2, 4200, Note_on_c, 0, 76, 70
2, 4202, Note_on_c, 0, 78, 0
2, 4260, Note_on_c, 0, 72, 70
2, 4262, Note_on_c, 0, 73, 0
2, 4320, Note_on_c, 0, 72, 0
2, 4320, Note_on_c, 0, 71, 70
2, 4440, Note_on_c, 0, 79, 70
2, 4442, Note_on_c, 0, 76, 0
2, 4560, Note_on_c, 0, 75, 70
2, 4562, Note_on_c, 0, 71, 0
2, 4680, Note_on_c, 0, 78, 70
2, 4682, Note_on_c, 0, 79, 0
2, 4740, Note_on_c, 0, 74, 70
2, 4742, Note_on_c, 0, 75, 0
2, 4800, Note_on_c, 0, 79, 70
2, 4801, Note_on_c, 0, 78, 0
2, 4920, Note_on_c, 0, 83, 70
2, 4920, Note_on_c, 0, 79, 70
2, 4921, Note_on_c, 0, 79, 0
2, 4982, Note_on_c, 0, 74, 0
2, 5041, Note_on_c, 0, 79, 0
2, 5160, Note_on_c, 0, 81, 70
2, 5162, Note_on_c, 0, 83, 0
2, 5400, Note_on_c, 0, 79, 70
2, 5402, Note_on_c, 0, 81, 0
2, 5520, Note_on_c, 0, 69, 70
2, 5640, Note_on_c, 0, 74, 70
2, 5640, Note_on_c, 0, 78, 70
2, 5643, Note_on_c, 0, 69, 0
2, 5646, Note_on_c, 0, 79, 0
2, 5760, Note_on_c, 0, 70, 70
2, 5763, Note_on_c, 0, 74, 0
2, 5880, Note_on_c, 0, 73, 70
2, 5880, Note_on_c, 0, 76, 70
2, 5883, Note_on_c, 0, 70, 0
2, 5886, Note_on_c, 0, 78, 0
2, 6000, Note_on_c, 0, 66, 70
2, 6003, Note_on_c, 0, 73, 0
2, 6120, Note_on_c, 0, 71, 70
2, 6120, Note_on_c, 0, 74, 70
2, 6123, Note_on_c, 0, 66, 0
2, 6126, Note_on_c, 0, 76, 0
2, 6240, Note_on_c, 0, 73, 70
2, 6243, Note_on_c, 0, 74, 0
2, 6360, Note_on_c, 0, 78, 70
2, 6360, Note_on_c, 0, 70, 70
2, 6363, Note_on_c, 0, 73, 0
2, 6480, Note_on_c, 0, 83, 70
2, 6480, Note_on_c, 0, 71, 70
2, 6481, Note_on_c, 0, 71, 0
2, 6483, Note_on_c, 0, 70, 0
2, 6483, Note_on_c, 0, 78, 0
2, 6600, Note_on_c, 0, 67, 70
2, 6603, Note_on_c, 0, 71, 0
2, 6660, Note_on_c, 0, 73, 70
2, 6663, Note_on_c, 0, 83, 0
2, 6720, Note_on_c, 0, 73, 0
2, 6720, Note_on_c, 0, 69, 70
2, 6720, Note_on_c, 0, 74, 70
2, 6723, Note_on_c, 0, 67, 0
2, 6840, Note_on_c, 0, 78, 70
2, 6841, Note_on_c, 0, 74, 0
2, 6960, Note_on_c, 0, 73, 70
2, 6962, Note_on_c, 0, 69, 0
2, 7080, Note_on_c, 0, 76, 70
2, 7082, Note_on_c, 0, 78, 0
2, 7140, Note_on_c, 0, 72, 70
2, 7142, Note_on_c, 0, 73, 0
2, 7200, Note_on_c, 0, 72, 0
2, 7200, Note_on_c, 0, 71, 70
2, 7320, Note_on_c, 0, 79, 70
2, 7322, Note_on_c, 0, 76, 0
2, 7440, Note_on_c, 0, 75, 70
2, 7442, Note_on_c, 0, 71, 0
2, 7560, Note_on_c, 0, 78, 70
2, 7562, Note_on_c, 0, 79, 0
2, 7620, Note_on_c, 0, 74, 70
2, 7622, Note_on_c, 0, 75, 0
2, 7680, Note_on_c, 0, 79, 70
2, 7681, Note_on_c, 0, 78, 0
2, 7800, Note_on_c, 0, 83, 70
2, 7800, Note_on_c, 0, 79, 70
2, 7801, Note_on_c, 0, 79, 0
2, 7862, Note_on_c, 0, 74, 0
2, 7921, Note_on_c, 0, 79, 0
2, 8040, Note_on_c, 0, 81, 70
2, 8042, Note_on_c, 0, 83, 0
2, 8280, Note_on_c, 0, 79, 70
2, 8282, Note_on_c, 0, 81, 0
2, 8400, Note_on_c, 0, 69, 70
2, 8520, Note_on_c, 0, 74, 70
2, 8520, Note_on_c, 0, 78, 70
2, 8523, Note_on_c, 0, 69, 0
2, 8526, Note_on_c, 0, 79, 0
2, 8640, Note_on_c, 0, 70, 70
2, 8643, Note_on_c, 0, 74, 0
2, 8760, Note_on_c, 0, 73, 70
2, 8760, Note_on_c, 0, 76, 70
2, 8763, Note_on_c, 0, 70, 0
2, 8766, Note_on_c, 0, 78, 0
2, 8880, Note_on_c, 0, 66, 70
2, 8883, Note_on_c, 0, 73, 0
2, 9000, Note_on_c, 0, 71, 70
2, 9000, Note_on_c, 0, 74, 70
2, 9003, Note_on_c, 0, 66, 0
2, 9006, Note_on_c, 0, 76, 0
2, 9120, Note_on_c, 0, 73, 70
2, 9123, Note_on_c, 0, 74, 0
2, 9240, Note_on_c, 0, 78, 70
2, 9240, Note_on_c, 0, 70, 70
2, 9243, Note_on_c, 0, 73, 0
2, 9360, Note_on_c, 0, 83, 70
2, 9360, Note_on_c, 0, 71, 70
2, 9361, Note_on_c, 0, 71, 0
2, 9363, Note_on_c, 0, 70, 0
2, 9363, Note_on_c, 0, 78, 0
2, 9480, Note_on_c, 0, 67, 70
2, 9483, Note_on_c, 0, 71, 0
2, 9540, Note_on_c, 0, 73, 70
2, 9543, Note_on_c, 0, 83, 0
2, 9600, Note_on_c, 0, 73, 0
2, 9600, Note_on_c, 0, 71, 70
2, 9600, Note_on_c, 0, 74, 70
2, 9603, Note_on_c, 0, 67, 0
2, 9720, Note_on_c, 0, 70, 70
2, 9720, Note_on_c, 0, 78, 70
2, 9723, Note_on_c, 0, 74, 0
2, 9723, Note_on_c, 0, 71, 0
2, 9840, Note_on_c, 0, 71, 70
2, 9843, Note_on_c, 0, 70, 0
2, 9843, Note_on_c, 0, 78, 0
2, 9960, Note_on_c, 0, 66, 70
2, 9963, Note_on_c, 0, 71, 0
2, 10050, Note_on_c, 0, 64, 70
2, 10051, Note_on_c, 0, 66, 0
2, 10080, Note_on_c, 0, 63, 70
2, 10081, Note_on_c, 0, 64, 0
2, 10320, Note_on_c, 0, 67, 70
2, 10326, Note_on_c, 0, 63, 0
2, 10560, Note_on_c, 0, 58, 70
2, 10566, Note_on_c, 0, 67, 0
2, 10800, Note_on_c, 0, 59, 70
2, 10806, Note_on_c, 0, 58, 0
2, 11040, Note_on_c, 0, 78, 70
2, 11046, Note_on_c, 0, 59, 0
2, 11160, Note_on_c, 0, 63, 71
2, 11160, Note_on_c, 0, 83, 71
2, 11163, Note_on_c, 0, 78, 0
2, 11280, Note_on_c, 0, 67, 72
2, 11280, Note_on_c, 0, 76, 72
2, 11283, Note_on_c, 0, 83, 0
2, 11283, Note_on_c, 0, 63, 0
2, 11370, Note_on_c, 0, 78, 74
2, 11371, Note_on_c, 0, 76, 0
2, 11400, Note_on_c, 0, 79, 74
2, 11401, Note_on_c, 0, 78, 0
2, 11520, Note_on_c, 0, 58, 75
2, 11520, Note_on_c, 0, 73, 75
2, 11523, Note_on_c, 0, 79, 0
2, 11526, Note_on_c, 0, 67, 0
2, 11640, Note_on_c, 0, 78, 77
2, 11643, Note_on_c, 0, 73, 0
2, 11760, Note_on_c, 0, 59, 78
2, 11760, Note_on_c, 0, 74, 78
2, 11763, Note_on_c, 0, 78, 0
2, 11766, Note_on_c, 0, 58, 0
2, 11850, Note_on_c, 0, 73, 79
2, 11851, Note_on_c, 0, 74, 0
2, 11880, Note_on_c, 0, 71, 80
2, 11881, Note_on_c, 0, 73, 0
2, 12000, Note_on_c, 0, 75, 81
2, 12003, Note_on_c, 0, 71, 0
2, 12006, Note_on_c, 0, 59, 0
2, 12120, Note_on_c, 0, 71, 83
2, 12210, Note_on_c, 0, 72, 84
2, 12211, Note_on_c, 0, 71, 0
2, 12240, Note_on_c, 0, 71, 84
2, 12240, Note_on_c, 0, 79, 84
2, 12241, Note_on_c, 0, 72, 0
2, 12246, Note_on_c, 0, 75, 0
2, 12480, Note_on_c, 0, 70, 87
2, 12486, Note_on_c, 0, 71, 0
2, 12486, Note_on_c, 0, 79, 0
2, 12600, Note_on_c, 0, 66, 89
2, 12690, Note_on_c, 0, 67, 90
2, 12691, Note_on_c, 0, 66, 0
2, 12720, Note_on_c, 0, 71, 90
2, 12720, Note_on_c, 0, 66, 90
2, 12721, Note_on_c, 0, 67, 0
2, 12726, Note_on_c, 0, 70, 0
2, 12840, Note_on_c, 0, 74, 92
2, 12843, Note_on_c, 0, 71, 0
2, 12960, Note_on_c, 0, 70, 93
2, 12963, Note_on_c, 0, 74, 0
2, 12966, Note_on_c, 0, 66, 0
2, 13080, Note_on_c, 0, 66, 95
2, 13170, Note_on_c, 0, 67, 96
2, 13171, Note_on_c, 0, 66, 0
2, 13200, Note_on_c, 0, 71, 96
2, 13200, Note_on_c, 0, 66, 96
2, 13201, Note_on_c, 0, 67, 0
2, 13206, Note_on_c, 0, 70, 0
2, 13320, Note_on_c, 0, 78, 98
2, 13323, Note_on_c, 0, 71, 0
2, 13440, Note_on_c, 0, 70, 99
2, 13443, Note_on_c, 0, 78, 0
2, 13446, Note_on_c, 0, 66, 0
2, 13560, Note_on_c, 0, 66, 101
2, 13650, Note_on_c, 0, 67, 102
2, 13651, Note_on_c, 0, 66, 0
2, 13680, Note_on_c, 0, 71, 102
2, 13680, Note_on_c, 0, 66, 102
2, 13681, Note_on_c, 0, 67, 0
2, 13686, Note_on_c, 0, 70, 0
2, 13800, Note_on_c, 0, 83, 104
2, 13803, Note_on_c, 0, 71, 0
2, 13923, Note_on_c, 0, 83, 0
2, 13926, Note_on_c, 0, 66, 0
2, 14040, Note_on_c, 0, 71, 107
2, 14163, Note_on_c, 0, 71, 0
2, 14280, Note_on_c, 0, 71, 109
2, 14280, Note_on_c, 0, 75, 109
2, 14400, Note_on_c, 0, 68, 70
2, 14400, Note_on_c, 0, 73, 70
2, 14403, Note_on_c, 0, 75, 0
2, 14403, Note_on_c, 0, 71, 0
2, 14520, Note_on_c, 0, 66, 70
2, 14520, Note_on_c, 0, 70, 70
2, 14523, Note_on_c, 0, 68, 0
2, 14523, Note_on_c, 0, 73, 0
2, 14580, Note_on_c, 0, 66, 0
2, 14580, Note_on_c, 0, 70, 0
2, 14760, Note_on_c, 0, 71, 70
2, 14760, Note_on_c, 0, 75, 70
2, 14880, Note_on_c, 0, 68, 70
2, 14880, Note_on_c, 0, 73, 70
2, 14883, Note_on_c, 0, 75, 0
2, 14883, Note_on_c, 0, 71, 0
2, 15000, Note_on_c, 0, 66, 70
2, 15000, Note_on_c, 0, 70, 70
2, 15003, Note_on_c, 0, 68, 0
2, 15003, Note_on_c, 0, 73, 0
2, 15060, Note_on_c, 0, 66, 0
2, 15060, Note_on_c, 0, 70, 0
2, 15240, Note_on_c, 0, 71, 70
2, 15240, Note_on_c, 0, 75, 70
2, 15360, Note_on_c, 0, 73, 70
2, 15360, Note_on_c, 0, 70, 70
2, 15363, Note_on_c, 0, 75, 0
2, 15363, Note_on_c, 0, 71, 0
2, 15420, Note_on_c, 0, 73, 0
2, 15420, Note_on_c, 0, 70, 0
2, 15480, Note_on_c, 0, 68, 70
2, 15480, Note_on_c, 0, 78, 70
2, 15540, Note_on_c, 0, 78, 0
2, 15540, Note_on_c, 0, 68, 0
2, 15600, Note_on_c, 0, 78, 70
2, 15600, Note_on_c, 0, 70, 70
2, 15660, Note_on_c, 0, 70, 0
2, 15660, Note_on_c, 0, 78, 0
2, 15720, Note_on_c, 0, 68, 110
2, 15720, Note_on_c, 0, 71, 110
2, 15720, Note_on_c, 0, 77, 110
2, 15780, Note_on_c, 0, 77, 0
2, 15780, Note_on_c, 0, 71, 0
2, 15780, Note_on_c, 0, 68, 0
2, 15840, Note_on_c, 0, 66, 110
2, 15840, Note_on_c, 0, 70, 110
2, 15840, Note_on_c, 0, 78, 110
2, 16200, Note_on_c, 0, 71, 70
2, 16200, Note_on_c, 0, 75, 70
2, 16209, Note_on_c, 0, 78, 0
2, 16209, Note_on_c, 0, 66, 0
2, 16209, Note_on_c, 0, 70, 0
2, 16320, Note_on_c, 0, 68, 70
2, 16320, Note_on_c, 0, 73, 70
2, 16323, Note_on_c, 0, 71, 0
2, 16323, Note_on_c, 0, 75, 0
2, 16440, Note_on_c, 0, 66, 70
2, 16440, Note_on_c, 0, 70, 70
2, 16443, Note_on_c, 0, 68, 0
2, 16443, Note_on_c, 0, 73, 0
2, 16500, Note_on_c, 0, 66, 0
2, 16500, Note_on_c, 0, 70, 0
2, 16680, Note_on_c, 0, 71, 70
2, 16680, Note_on_c, 0, 75, 70
2, 16800, Note_on_c, 0, 68, 70
2, 16800, Note_on_c, 0, 73, 70
2, 16803, Note_on_c, 0, 75, 0
2, 16803, Note_on_c, 0, 71, 0
2, 16920, Note_on_c, 0, 66, 70
2, 16920, Note_on_c, 0, 70, 70
2, 16923, Note_on_c, 0, 68, 0
2, 16923, Note_on_c, 0, 73, 0
2, 16980, Note_on_c, 0, 66, 0
2, 16980, Note_on_c, 0, 70, 0
2, 17160, Note_on_c, 0, 71, 70
2, 17160, Note_on_c, 0, 75, 70
2, 17280, Note_on_c, 0, 73, 70
2, 17280, Note_on_c, 0, 70, 70
2, 17283, Note_on_c, 0, 75, 0
2, 17283, Note_on_c, 0, 71, 0
2, 17340, Note_on_c, 0, 73, 0
2, 17340, Note_on_c, 0, 70, 0
2, 17400, Note_on_c, 0, 68, 70
2, 17400, Note_on_c, 0, 78, 70
2, 17460, Note_on_c, 0, 78, 0
2, 17460, Note_on_c, 0, 68, 0
2, 17520, Note_on_c, 0, 78, 70
2, 17520, Note_on_c, 0, 70, 70
2, 17580, Note_on_c, 0, 70, 0
2, 17580, Note_on_c, 0, 78, 0
2, 17640, Note_on_c, 0, 68, 110
2, 17640, Note_on_c, 0, 71, 110
2, 17640, Note_on_c, 0, 77, 110
2, 17700, Note_on_c, 0, 77, 0
2, 17700, Note_on_c, 0, 71, 0
2, 17700, Note_on_c, 0, 68, 0
2, 17760, Note_on_c, 0, 66, 110
2, 17760, Note_on_c, 0, 70, 110
2, 17760, Note_on_c, 0, 78, 110
2, 18120, Note_on_c, 0, 69, 70
2, 18120, Note_on_c, 0, 78, 70
2, 18129, Note_on_c, 0, 78, 0
2, 18129, Note_on_c, 0, 66, 0
2, 18129, Note_on_c, 0, 70, 0
2, 18240, Note_on_c, 0, 68, 70
2, 18240, Note_on_c, 0, 76, 70
2, 18243, Note_on_c, 0, 69, 0
2, 18243, Note_on_c, 0, 78, 0
2, 18360, Note_on_c, 0, 68, 70
2, 18360, Note_on_c, 0, 73, 70
2, 18363, Note_on_c, 0, 68, 0
2, 18363, Note_on_c, 0, 76, 0
2, 18420, Note_on_c, 0, 68, 0
2, 18420, Note_on_c, 0, 73, 0
2, 18600, Note_on_c, 0, 71, 70
2, 18600, Note_on_c, 0, 76, 70
2, 18720, Note_on_c, 0, 75, 70
2, 18720, Note_on_c, 0, 66, 70
2, 18723, Note_on_c, 0, 76, 0
2, 18723, Note_on_c, 0, 71, 0
2, 18840, Note_on_c, 0, 66, 70
2, 18840, Note_on_c, 0, 71, 70
2, 18843, Note_on_c, 0, 75, 0
2, 18843, Note_on_c, 0, 66, 0
2, 18900, Note_on_c, 0, 66, 0
2, 18900, Note_on_c, 0, 71, 0
2, 19080, Note_on_c, 0, 70, 70
2, 19080, Note_on_c, 0, 80, 70
2, 19200, Note_on_c, 0, 71, 70
2, 19200, Note_on_c, 0, 78, 70
2, 19203, Note_on_c, 0, 80, 0
2, 19203, Note_on_c, 0, 70, 0
2, 19260, Note_on_c, 0, 71, 0
2, 19260, Note_on_c, 0, 78, 0
2, 19320, Note_on_c, 0, 83, 70
2, 19320, Note_on_c, 0, 76, 70
2, 19320, Note_on_c, 0, 71, 70
2, 19380, Note_on_c, 0, 71, 0
2, 19380, Note_on_c, 0, 76, 0
2, 19380, Note_on_c, 0, 83, 0
2, 19440, Note_on_c, 0, 71, 70
2, 19440, Note_on_c, 0, 73, 70
2, 19440, Note_on_c, 0, 76, 70
2, 19440, Note_on_c, 0, 83, 70
2, 19500, Note_on_c, 0, 83, 0
2, 19500, Note_on_c, 0, 71, 0
2, 19500, Note_on_c, 0, 73, 0
2, 19500, Note_on_c, 0, 76, 0
2, 19560, Note_on_c, 0, 82, 100
2, 19560, Note_on_c, 0, 76, 100
2, 19560, Note_on_c, 0, 73, 100
2, 19560, Note_on_c, 0, 70, 100
2, 19620, Note_on_c, 0, 70, 0
2, 19620, Note_on_c, 0, 82, 0
2, 19620, Note_on_c, 0, 76, 0
2, 19620, Note_on_c, 0, 73, 0
2, 19680, Note_on_c, 0, 71, 100
2, 19680, Note_on_c, 0, 75, 100
2, 19680, Note_on_c, 0, 83, 100
2, 20040, Note_on_c, 0, 69, 70
2, 20040, Note_on_c, 0, 78, 70
2, 20049, Note_on_c, 0, 83, 0
2, 20049, Note_on_c, 0, 71, 0
2, 20049, Note_on_c, 0, 75, 0
2, 20160, Note_on_c, 0, 68, 70
2, 20160, Note_on_c, 0, 76, 70
2, 20163, Note_on_c, 0, 69, 0
2, 20163, Note_on_c, 0, 78, 0
2, 20280, Note_on_c, 0, 68, 70
2, 20280, Note_on_c, 0, 73, 70
2, 20283, Note_on_c, 0, 68, 0
2, 20283, Note_on_c, 0, 76, 0
2, 20340, Note_on_c, 0, 68, 0
2, 20340, Note_on_c, 0, 73, 0
2, 20520, Note_on_c, 0, 71, 70
2, 20520, Note_on_c, 0, 76, 70
2, 20640, Note_on_c, 0, 75, 70
2, 20640, Note_on_c, 0, 66, 70
2, 20643, Note_on_c, 0, 76, 0
2, 20643, Note_on_c, 0, 71, 0
2, 20760, Note_on_c, 0, 66, 70
2, 20760, Note_on_c, 0, 71, 70
2, 20763, Note_on_c, 0, 75, 0
2, 20763, Note_on_c, 0, 66, 0
2, 20820, Note_on_c, 0, 66, 0
2, 20820, Note_on_c, 0, 71, 0
2, 21000, Note_on_c, 0, 70, 70
2, 21000, Note_on_c, 0, 80, 70
2, 21120, Note_on_c, 0, 71, 70
2, 21120, Note_on_c, 0, 78, 70
2, 21123, Note_on_c, 0, 80, 0
2, 21123, Note_on_c, 0, 70, 0
2, 21180, Note_on_c, 0, 71, 0
2, 21180, Note_on_c, 0, 78, 0
2, 21240, Note_on_c, 0, 83, 70
2, 21240, Note_on_c, 0, 76, 70
2, 21240, Note_on_c, 0, 71, 70
2, 21300, Note_on_c, 0, 71, 0
2, 21300, Note_on_c, 0, 76, 0
2, 21300, Note_on_c, 0, 83, 0
2, 21360, Note_on_c, 0, 71, 70
2, 21360, Note_on_c, 0, 73, 70
2, 21360, Note_on_c, 0, 76, 70
2, 21360, Note_on_c, 0, 83, 70
2, 21420, Note_on_c, 0, 83, 0
2, 21420, Note_on_c, 0, 71, 0
2, 21420, Note_on_c, 0, 73, 0
2, 21420, Note_on_c, 0, 76, 0
2, 21480, Note_on_c, 0, 82, 100
2, 21480, Note_on_c, 0, 76, 100
2, 21480, Note_on_c, 0, 73, 100
2, 21480, Note_on_c, 0, 70, 100
2, 21540, Note_on_c, 0, 70, 0
2, 21540, Note_on_c, 0, 82, 0
2, 21540, Note_on_c, 0, 76, 0
2, 21540, Note_on_c, 0, 73, 0
2, 21600, Note_on_c, 0, 71, 100
2, 21600, Note_on_c, 0, 75, 100
2, 21600, Note_on_c, 0, 83, 100
2, 22080, Note_on_c, 0, 71, 120
2, 22080, Note_on_c, 0, 75, 120
2, 22080, Note_on_c, 0, 83, 120
2, 22084, Note_on_c, 0, 83, 0
2, 22084, Note_on_c, 0, 71, 0
2, 22084, Note_on_c, 0, 75, 0
2, 22320, Note_on_c, 0, 71, 55
2, 22320, Note_on_c, 0, 74, 55
2, 22320, Note_on_c, 0, 83, 55
2, 22326, Note_on_c, 0, 71, 0
2, 22326, Note_on_c, 0, 83, 0
2, 22326, Note_on_c, 0, 75, 0
2, 22380, Note_on_c, 0, 71, 0
2, 22380, Note_on_c, 0, 74, 0
2, 22380, Note_on_c, 0, 83, 0
2, 22440, Note_on_c, 0, 82, 55
2, 22440, Note_on_c, 0, 73, 55
2, 22440, Note_on_c, 0, 70, 55
2, 22500, Note_on_c, 0, 70, 0
2, 22500, Note_on_c, 0, 73, 0
2, 22500, Note_on_c, 0, 82, 0
2, 22500, End_track
3, 0, Start_track
3, 0, MIDI_port, 0
3, 0, Program_c, 1, 0
3, 0, Control_c, 1, 0, 0
3, 0, Control_c, 1, 32, 0
3, 0, Program_c, 1, 0
3, 0, Control_c, 1, 7, 100
3, 0, Note_on_c, 1, 54, 70
3, 120, Note_on_c, 1, 59, 70
3, 121, Note_on_c, 1, 54, 0
3, 240, Note_on_c, 1, 52, 70
3, 241, Note_on_c, 1, 59, 0
3, 330, Note_on_c, 1, 54, 70
3, 331, Note_on_c, 1, 52, 0
3, 360, Note_on_c, 1, 55, 70
3, 361, Note_on_c, 1, 54, 0
3, 480, Note_on_c, 1, 49, 70
3, 481, Note_on_c, 1, 55, 0
3, 600, Note_on_c, 1, 54, 70
3, 601, Note_on_c, 1, 49, 0
3, 720, Note_on_c, 1, 50, 70
3, 721, Note_on_c, 1, 54, 0
3, 810, Note_on_c, 1, 49, 70
3, 811, Note_on_c, 1, 50, 0
3, 840, Note_on_c, 1, 47, 70
3, 841, Note_on_c, 1, 49, 0
3, 960, Note_on_c, 1, 46, 70
3, 961, Note_on_c, 1, 47, 0
3, 1080, Note_on_c, 1, 42, 70
3, 1081, Note_on_c, 1, 46, 0
3, 1200, Note_on_c, 1, 47, 70
3, 1201, Note_on_c, 1, 42, 0
3, 1320, Note_on_c, 1, 51, 70
3, 1321, Note_on_c, 1, 47, 0
3, 1440, Note_on_c, 1, 52, 70
3, 1441, Note_on_c, 1, 51, 0
3, 1560, Note_on_c, 1, 55, 70
3, 1561, Note_on_c, 1, 52, 0
3, 1680, Note_on_c, 1, 53, 70
3, 1681, Note_on_c, 1, 55, 0
3, 1800, Note_on_c, 1, 54, 70
3, 1801, Note_on_c, 1, 53, 0
3, 1920, Note_on_c, 1, 54, 70
3, 1921, Note_on_c, 1, 54, 0
3, 2040, Note_on_c, 1, 59, 70
3, 2041, Note_on_c, 1, 54, 0
3, 2160, Note_on_c, 1, 52, 70
3, 2161, Note_on_c, 1, 59, 0
3, 2250, Note_on_c, 1, 54, 70
3, 2251, Note_on_c, 1, 52, 0
3, 2280, Note_on_c, 1, 55, 70
3, 2281, Note_on_c, 1, 54, 0
3, 2400, Note_on_c, 1, 49, 70
3, 2401, Note_on_c, 1, 55, 0
3, 2520, Note_on_c, 1, 54, 70
3, 2521, Note_on_c, 1, 49, 0
3, 2640, Note_on_c, 1, 50, 70
3, 2641, Note_on_c, 1, 54, 0
3, 2730, Note_on_c, 1, 49, 70
3, 2731, Note_on_c, 1, 50, 0
3, 2760, Note_on_c, 1, 47, 70
3, 2761, Note_on_c, 1, 49, 0
3, 2880, Note_on_c, 1, 46, 70
3, 2881, Note_on_c, 1, 47, 0
3, 3000, Note_on_c, 1, 42, 70
3, 3001, Note_on_c, 1, 46, 0
3, 3120, Note_on_c, 1, 47, 70
3, 3121, Note_on_c, 1, 42, 0
3, 3240, Note_on_c, 1, 51, 70
3, 3241, Note_on_c, 1, 47, 0
3, 3360, Note_on_c, 1, 52, 70
3, 3361, Note_on_c, 1, 51, 0
3, 3480, Note_on_c, 1, 55, 70
3, 3481, Note_on_c, 1, 52, 0
3, 3600, Note_on_c, 1, 53, 70
3, 3601, Note_on_c, 1, 55, 0
3, 3720, Note_on_c, 1, 54, 70
3, 3721, Note_on_c, 1, 53, 0
3, 3840, Note_on_c, 1, 54, 70
3, 3841, Note_on_c, 1, 54, 0
3, 3960, Note_on_c, 1, 50, 70
3, 3961, Note_on_c, 1, 54, 0
3, 4080, Note_on_c, 1, 57, 70
3, 4081, Note_on_c, 1, 50, 0
3, 4200, Note_on_c, 1, 45, 70
3, 4201, Note_on_c, 1, 57, 0
3, 4320, Note_on_c, 1, 55, 70
3, 4321, Note_on_c, 1, 45, 0
3, 4440, Note_on_c, 1, 52, 70
3, 4441, Note_on_c, 1, 55, 0
3, 4560, Note_on_c, 1, 59, 70
3, 4561, Note_on_c, 1, 52, 0
3, 4680, Note_on_c, 1, 47, 70
3, 4681, Note_on_c, 1, 59, 0
3, 4800, Note_on_c, 1, 59, 70
3, 4801, Note_on_c, 1, 47, 0
3, 4920, Note_on_c, 1, 55, 70
3, 4921, Note_on_c, 1, 59, 0
3, 5040, Note_on_c, 1, 62, 70
3, 5041, Note_on_c, 1, 55, 0
3, 5160, Note_on_c, 1, 50, 70
3, 5161, Note_on_c, 1, 62, 0
3, 5280, Note_on_c, 1, 57, 70
3, 5281, Note_on_c, 1, 50, 0
3, 5400, Note_on_c, 1, 45, 70
3, 5403, Note_on_c, 1, 57, 0
3, 5520, Note_on_c, 1, 50, 70
3, 5523, Note_on_c, 1, 45, 0
3, 5640, Note_on_c, 1, 38, 70
3, 5643, Note_on_c, 1, 50, 0
3, 5760, Note_on_c, 1, 42, 70
3, 5763, Note_on_c, 1, 38, 0
3, 5880, Note_on_c, 1, 54, 70
3, 5883, Note_on_c, 1, 42, 0
3, 6000, Note_on_c, 1, 47, 70
3, 6003, Note_on_c, 1, 54, 0
3, 6120, Note_on_c, 1, 59, 70
3, 6123, Note_on_c, 1, 47, 0
3, 6240, Note_on_c, 1, 54, 70
3, 6240, Note_on_c, 1, 54, 70
3, 6243, Note_on_c, 1, 59, 0
3, 6360, Note_on_c, 1, 64, 70
3, 6363, Note_on_c, 1, 54, 0
3, 6480, Note_on_c, 1, 59, 70
3, 6480, Note_on_c, 1, 62, 70
3, 6483, Note_on_c, 1, 64, 0
3, 6486, Note_on_c, 1, 54, 0
3, 6600, Note_on_c, 1, 64, 70
3, 6600, Note_on_c, 1, 57, 70
3, 6603, Note_on_c, 1, 59, 0
3, 6603, Note_on_c, 1, 62, 0
3, 6720, Note_on_c, 1, 54, 70
3, 6723, Note_on_c, 1, 64, 0
3, 6723, Note_on_c, 1, 57, 0
3, 6840, Note_on_c, 1, 50, 70
3, 6841, Note_on_c, 1, 54, 0
3, 6960, Note_on_c, 1, 57, 70
3, 6961, Note_on_c, 1, 50, 0
3, 7080, Note_on_c, 1, 45, 70
3, 7081, Note_on_c, 1, 57, 0
3, 7200, Note_on_c, 1, 55, 70
3, 7201, Note_on_c, 1, 45, 0
3, 7320, Note_on_c, 1, 52, 70
3, 7321, Note_on_c, 1, 55, 0
3, 7440, Note_on_c, 1, 59, 70
3, 7441, Note_on_c, 1, 52, 0
3, 7560, Note_on_c, 1, 47, 70
3, 7561, Note_on_c, 1, 59, 0
3, 7680, Note_on_c, 1, 59, 70
3, 7681, Note_on_c, 1, 47, 0
3, 7800, Note_on_c, 1, 55, 70
3, 7801, Note_on_c, 1, 59, 0
3, 7920, Note_on_c, 1, 62, 70
3, 7921, Note_on_c, 1, 55, 0
3, 8040, Note_on_c, 1, 50, 70
3, 8041, Note_on_c, 1, 62, 0
3, 8160, Note_on_c, 1, 57, 70
3, 8161, Note_on_c, 1, 50, 0
3, 8280, Note_on_c, 1, 45, 70
3, 8283, Note_on_c, 1, 57, 0
3, 8400, Note_on_c, 1, 50, 70
3, 8403, Note_on_c, 1, 45, 0
3, 8520, Note_on_c, 1, 38, 70
3, 8523, Note_on_c, 1, 50, 0
3, 8640, Note_on_c, 1, 42, 70
3, 8643, Note_on_c, 1, 38, 0
3, 8760, Note_on_c, 1, 54, 70
3, 8763, Note_on_c, 1, 42, 0
3, 8880, Note_on_c, 1, 47, 70
3, 8883, Note_on_c, 1, 54, 0
3, 9000, Note_on_c, 1, 59, 70
3, 9003, Note_on_c, 1, 47, 0
3, 9120, Note_on_c, 1, 54, 70
3, 9120, Note_on_c, 1, 54, 70
3, 9123, Note_on_c, 1, 59, 0
3, 9240, Note_on_c, 1, 64, 70
3, 9243, Note_on_c, 1, 54, 0
3, 9360, Note_on_c, 1, 59, 70
3, 9360, Note_on_c, 1, 62, 70
3, 9363, Note_on_c, 1, 64, 0
3, 9366, Note_on_c, 1, 54, 0
3, 9480, Note_on_c, 1, 64, 70
3, 9480, Note_on_c, 1, 57, 70
3, 9483, Note_on_c, 1, 59, 0
3, 9483, Note_on_c, 1, 62, 0
3, 9600, Note_on_c, 1, 54, 70
3, 9603, Note_on_c, 1, 64, 0
3, 9603, Note_on_c, 1, 57, 0
3, 9720, Note_on_c, 1, 64, 70
3, 9723, Note_on_c, 1, 54, 0
3, 9840, Note_on_c, 1, 62, 70
3, 9840, Note_on_c, 1, 59, 70
3, 9843, Note_on_c, 1, 64, 0
3, 9963, Note_on_c, 1, 59, 0
3, 9963, Note_on_c, 1, 62, 0
3, 10080, Note_on_c, 1, 54, 70
3, 10200, Note_on_c, 1, 59, 70
3, 10203, Note_on_c, 1, 54, 0
3, 10320, Note_on_c, 1, 52, 70
3, 10323, Note_on_c, 1, 59, 0
3, 10410, Note_on_c, 1, 54, 70
3, 10411, Note_on_c, 1, 52, 0
3, 10440, Note_on_c, 1, 55, 70
3, 10441, Note_on_c, 1, 54, 0
3, 10560, Note_on_c, 1, 49, 70
3, 10563, Note_on_c, 1, 55, 0
3, 10680, Note_on_c, 1, 54, 70
3, 10683, Note_on_c, 1, 49, 0
3, 10800, Note_on_c, 1, 50, 70
3, 10803, Note_on_c, 1, 54, 0
3, 10890, Note_on_c, 1, 49, 70
3, 10891, Note_on_c, 1, 50, 0
3, 10920, Note_on_c, 1, 47, 70
3, 10921, Note_on_c, 1, 49, 0
3, 11043, Note_on_c, 1, 47, 0
3, 12000, Note_on_c, 1, 42, 81
3, 12120, Note_on_c, 1, 47, 83
3, 12123, Note_on_c, 1, 42, 0
3, 12240, Note_on_c, 1, 40, 84
3, 12243, Note_on_c, 1, 47, 0
3, 12330, Note_on_c, 1, 42, 85
3, 12331, Note_on_c, 1, 40, 0
3, 12360, Note_on_c, 1, 43, 86
3, 12361, Note_on_c, 1, 42, 0
3, 12480, Note_on_c, 1, 37, 87
3, 12483, Note_on_c, 1, 43, 0
3, 12600, Note_on_c, 1, 42, 89
3, 12603, Note_on_c, 1, 37, 0
3, 12720, Note_on_c, 1, 38, 90
3, 12723, Note_on_c, 1, 42, 0
3, 12810, Note_on_c, 1, 37, 91
3, 12811, Note_on_c, 1, 38, 0
3, 12840, Note_on_c, 1, 35, 92
3, 12841, Note_on_c, 1, 37, 0
3, 12960, Note_on_c, 1, 37, 93
3, 12963, Note_on_c, 1, 35, 0
3, 13080, Note_on_c, 1, 42, 95
3, 13083, Note_on_c, 1, 37, 0
3, 13200, Note_on_c, 1, 38, 96
3, 13203, Note_on_c, 1, 42, 0
3, 13290, Note_on_c, 1, 37, 97
3, 13291, Note_on_c, 1, 38, 0
3, 13320, Note_on_c, 1, 35, 98
3, 13321, Note_on_c, 1, 37, 0
3, 13440, Note_on_c, 1, 37, 99
3, 13443, Note_on_c, 1, 35, 0
3, 13560, Note_on_c, 1, 42, 101
3, 13563, Note_on_c, 1, 37, 0
3, 13680, Note_on_c, 1, 38, 102
3, 13683, Note_on_c, 1, 42, 0
3, 13770, Note_on_c, 1, 37, 103
3, 13771, Note_on_c, 1, 38, 0
3, 13800, Note_on_c, 1, 35, 104
3, 13801, Note_on_c, 1, 37, 0
3, 13923, Note_on_c, 1, 35, 0
3, 14040, Note_on_c, 1, 35, 107
3, 14040, Note_on_c, 1, 47, 107
3, 14163, Note_on_c, 1, 47, 0
3, 14163, Note_on_c, 1, 35, 0
3, 14280, Note_on_c, 1, 47, 109
3, 14280, Note_on_c, 1, 54, 109
3, 14400, Note_on_c, 1, 52, 70
3, 14400, Note_on_c, 1, 56, 70
3, 14403, Note_on_c, 1, 54, 0
3, 14403, Note_on_c, 1, 47, 0
3, 14520, Note_on_c, 1, 54, 70
3, 14520, Note_on_c, 1, 61, 70
3, 14523, Note_on_c, 1, 52, 0
3, 14523, Note_on_c, 1, 56, 0
3, 14580, Note_on_c, 1, 54, 0
3, 14580, Note_on_c, 1, 61, 0
3, 14760, Note_on_c, 1, 47, 70
3, 14760, Note_on_c, 1, 54, 70
3, 14880, Note_on_c, 1, 52, 70
3, 14880, Note_on_c, 1, 56, 70
3, 14883, Note_on_c, 1, 54, 0
3, 14883, Note_on_c, 1, 47, 0
3, 15000, Note_on_c, 1, 54, 70
3, 15000, Note_on_c, 1, 61, 70
3, 15003, Note_on_c, 1, 52, 0
3, 15003, Note_on_c, 1, 56, 0
3, 15060, Note_on_c, 1, 54, 0
3, 15060, Note_on_c, 1, 61, 0
3, 15240, Note_on_c, 1, 56, 70
3, 15240, Note_on_c, 1, 59, 70
3, 15360, Note_on_c, 1, 61, 70
3, 15360, Note_on_c, 1, 58, 70
3, 15363, Note_on_c, 1, 59, 0
3, 15363, Note_on_c, 1, 56, 0
3, 15420, Note_on_c, 1, 61, 0
3, 15420, Note_on_c, 1, 58, 0
3, 15480, Note_on_c, 1, 63, 70
3, 15480, Note_on_c, 1, 59, 70
3, 15540, Note_on_c, 1, 59, 0
3, 15540, Note_on_c, 1, 63, 0
3, 15600, Note_on_c, 1, 66, 70
3, 15600, Note_on_c, 1, 61, 70
3, 15660, Note_on_c, 1, 61, 0
3, 15660, Note_on_c, 1, 66, 0
3, 15720, Note_on_c, 1, 37, 110
3, 15720, Note_on_c, 1, 49, 110
3, 15780, Note_on_c, 1, 49, 0
3, 15780, Note_on_c, 1, 37, 0
3, 15840, Note_on_c, 1, 30, 110
3, 15840, Note_on_c, 1, 42, 110
3, 16200, Note_on_c, 1, 47, 70
3, 16200, Note_on_c, 1, 54, 70
3, 16209, Note_on_c, 1, 42, 0
3, 16209, Note_on_c, 1, 30, 0
3, 16320, Note_on_c, 1, 52, 70
3, 16320, Note_on_c, 1, 56, 70
3, 16323, Note_on_c, 1, 47, 0
3, 16323, Note_on_c, 1, 54, 0
3, 16440, Note_on_c, 1, 54, 70
3, 16440, Note_on_c, 1, 61, 70
3, 16443, Note_on_c, 1, 52, 0
3, 16443, Note_on_c, 1, 56, 0
3, 16500, Note_on_c, 1, 54, 0
3, 16500, Note_on_c, 1, 61, 0
3, 16680, Note_on_c, 1, 47, 70
3, 16680, Note_on_c, 1, 54, 70
3, 16800, Note_on_c, 1, 52, 70
3, 16800, Note_on_c, 1, 56, 70
3, 16803, Note_on_c, 1, 54, 0
3, 16803, Note_on_c, 1, 47, 0
3, 16920, Note_on_c, 1, 54, 70
3, 16920, Note_on_c, 1, 61, 70
3, 16923, Note_on_c, 1, 52, 0
3, 16923, Note_on_c, 1, 56, 0
3, 16980, Note_on_c, 1, 54, 0
3, 16980, Note_on_c, 1, 61, 0
3, 17160, Note_on_c, 1, 56, 70
3, 17160, Note_on_c, 1, 59, 70
3, 17280, Note_on_c, 1, 61, 70
3, 17280, Note_on_c, 1, 58, 70
3, 17283, Note_on_c, 1, 59, 0
3, 17283, Note_on_c, 1, 56, 0
3, 17340, Note_on_c, 1, 61, 0
3, 17340, Note_on_c, 1, 58, 0
3, 17400, Note_on_c, 1, 63, 70
3, 17400, Note_on_c, 1, 59, 70
3, 17460, Note_on_c, 1, 59, 0
3, 17460, Note_on_c, 1, 63, 0
3, 17520, Note_on_c, 1, 66, 70
3, 17520, Note_on_c, 1, 61, 70
3, 17580, Note_on_c, 1, 61, 0
3, 17580, Note_on_c, 1, 66, 0
3, 17640, Note_on_c, 1, 37, 110
3, 17640, Note_on_c, 1, 49, 110
3, 17700, Note_on_c, 1, 49, 0
3, 17700, Note_on_c, 1, 37, 0
3, 17760, Note_on_c, 1, 30, 110
3, 17760, Note_on_c, 1, 42, 110
3, 18120, Note_on_c, 1, 63, 70
3, 18120, Note_on_c, 1, 60, 70
3, 18129, Note_on_c, 1, 42, 0
3, 18129, Note_on_c, 1, 30, 0
3, 18240, Note_on_c, 1, 64, 70
3, 18240, Note_on_c, 1, 61, 70
3, 18243, Note_on_c, 1, 63, 0
3, 18243, Note_on_c, 1, 60, 0
3, 18360, Note_on_c, 1, 64, 70
3, 18363, Note_on_c, 1, 64, 0
3, 18363, Note_on_c, 1, 61, 0
3, 18420, Note_on_c, 1, 64, 0
3, 18600, Note_on_c, 1, 56, 70
3, 18720, Note_on_c, 1, 58, 70
3, 18723, Note_on_c, 1, 56, 0
3, 18840, Note_on_c, 1, 59, 70
3, 18843, Note_on_c, 1, 58, 0
3, 18900, Note_on_c, 1, 59, 0
3, 19080, Note_on_c, 1, 64, 70
3, 19080, Note_on_c, 1, 61, 70
3, 19200, Note_on_c, 1, 66, 70
3, 19200, Note_on_c, 1, 63, 70
3, 19203, Note_on_c, 1, 61, 0
3, 19203, Note_on_c, 1, 64, 0
3, 19260, Note_on_c, 1, 66, 0
3, 19260, Note_on_c, 1, 63, 0
3, 19320, Note_on_c, 1, 49, 70
3, 19320, Note_on_c, 1, 61, 70
3, 19380, Note_on_c, 1, 61, 0
3, 19380, Note_on_c, 1, 49, 0
3, 19440, Note_on_c, 1, 54, 70
3, 19440, Note_on_c, 1, 66, 70
3, 19500, Note_on_c, 1, 66, 0
3, 19500, Note_on_c, 1, 54, 0
3, 19560, Note_on_c, 1, 42, 70
3, 19560, Note_on_c, 1, 54, 70
3, 19620, Note_on_c, 1, 54, 0
3, 19620, Note_on_c, 1, 42, 0
3, 19680, Note_on_c, 1, 35, 70
3, 19680, Note_on_c, 1, 47, 70
3, 20040, Note_on_c, 1, 63, 70
3, 20040, Note_on_c, 1, 60, 70
3, 20049, Note_on_c, 1, 47, 0
3, 20049, Note_on_c, 1, 35, 0
3, 20160, Note_on_c, 1, 64, 70
3, 20160, Note_on_c, 1, 61, 70
3, 20163, Note_on_c, 1, 63, 0
3, 20163, Note_on_c, 1, 60, 0
3, 20280, Note_on_c, 1, 64, 70
3, 20283, Note_on_c, 1, 64, 0
3, 20283, Note_on_c, 1, 61, 0
3, 20340, Note_on_c, 1, 64, 0
3, 20520, Note_on_c, 1, 56, 70
3, 20640, Note_on_c, 1, 58, 70
3, 20643, Note_on_c, 1, 56, 0
3, 20760, Note_on_c, 1, 59, 70
3, 20763, Note_on_c, 1, 58, 0
3, 20820, Note_on_c, 1, 59, 0
3, 21000, Note_on_c, 1, 64, 70
3, 21000, Note_on_c, 1, 61, 70
3, 21120, Note_on_c, 1, 66, 70
3, 21120, Note_on_c, 1, 63, 70
3, 21123, Note_on_c, 1, 61, 0
3, 21123, Note_on_c, 1, 64, 0
3, 21180, Note_on_c, 1, 66, 0
3, 21180, Note_on_c, 1, 63, 0
3, 21240, Note_on_c, 1, 49, 70
3, 21240, Note_on_c, 1, 61, 70
3, 21300, Note_on_c, 1, 61, 0
3, 21300, Note_on_c, 1, 49, 0
3, 21360, Note_on_c, 1, 54, 70
3, 21360, Note_on_c, 1, 66, 70
3, 21420, Note_on_c, 1, 66, 0
3, 21420, Note_on_c, 1, 54, 0
3, 21480, Note_on_c, 1, 42, 100
3, 21480, Note_on_c, 1, 54, 100
3, 21540, Note_on_c, 1, 54, 0
3, 21540, Note_on_c, 1, 42, 0
3, 21600, Note_on_c, 1, 35, 100
3, 21600, Note_on_c, 1, 47, 100
3, 22080, Note_on_c, 1, 35, 70
3, 22080, Note_on_c, 1, 47, 70
3, 22084, Note_on_c, 1, 47, 0
3, 22084, Note_on_c, 1, 35, 0
3, 22320, Note_on_c, 1, 54, 70
3, 22320, Note_on_c, 1, 66, 70
3, 22326, Note_on_c, 1, 35, 0
3, 22326, Note_on_c, 1, 47, 0
3, 22380, Note_on_c, 1, 54, 0
3, 22380, Note_on_c, 1, 66, 0
3, 22440, Note_on_c, 1, 42, 70
3, 22440, Note_on_c, 1, 54, 70
3, 22500, Note_on_c, 1, 54, 0
3, 22500, Note_on_c, 1, 42, 0
3, 22500, End_track
4, 0, Start_track
4, 0, MIDI_port, 0
4, 0, Control_c, 2, 7, 100
4, 0, End_track
5, 0, Start_track
5, 0, MIDI_port, 0
5, 0, Control_c, 3, 7, 100
5, 0, End_track
6, 0, Start_track
6, 0, MIDI_port, 0
6, 0, Control_c, 4, 7, 100
6, 0, End_track
7, 0, Start_track
7, 0, MIDI_port, 0
7, 0, Control_c, 5, 7, 100
7, 0, End_track
8, 0, Start_track
8, 0, MIDI_port, 0
8, 0, Control_c, 6, 7, 100
8, 0, End_track
9, 0, Start_track
9, 0, MIDI_port, 0
9, 0, Control_c, 7, 7, 100
9, 0, End_track
10, 0, Start_track
10, 0, MIDI_port, 0
10, 0, Control_c, 8, 7, 100
10, 0, End_track
11, 0, Start_track
11, 0, MIDI_port, 0
11, 0, Control_c, 9, 7, 100
11, 0, End_track
0, 0, End_of_file