0, 0, Header, 1, 4, 120
1, 0, Start_track
1, 0, Time_signature, 3, 4, 6, 8
1, 0, Key_signature, 0, "major"
1, 0, Tempo, 1333333
1, 90, Time_signature, 9, 4, 6, 8
1, 1980, Time_signature, 6, 4, 6, 8
1, 2160, Time_signature, 3, 4, 6, 8
1, 2250, Time_signature, 9, 4, 6, 8
1, 12780, Time_signature, 12, 4, 6, 8
1, 13140, Time_signature, 6, 4, 6, 8
1, 13320, Time_signature, 9, 4, 6, 8
1, 14940, Time_signature, 12, 4, 6, 8
1, 15300, Time_signature, 6, 4, 6, 8
1, 15480, Time_signature, 9, 4, 6, 8
1, 17100, Time_signature, 6, 4, 6, 8
1, 17280, Time_signature, 1, 3, 12, 8
1, 17340, Time_signature, 3, 3, 12, 8
1, 18600, Time_signature, 2, 3, 12, 8
1, 18720, Time_signature, 1, 3, 12, 8
1, 18780, Time_signature, 3, 3, 12, 8
1, 22920, Time_signature, 2, 3, 12, 8
1, 23040, Time_signature, 2, 4, 6, 8
1, 23100, Time_signature, 6, 4, 6, 8
1, 24360, Time_signature, 4, 4, 6, 8
1, 24480, Time_signature, 2, 4, 6, 8
1, 24540, Time_signature, 6, 4, 6, 8
1, 28500, Time_signature, 4, 4, 6, 8
1, 28620, Time_signature, 3, 4, 6, 8
1, 28710, Time_signature, 9, 4, 6, 8
1, 42480, Key_signature, -3, "major"
1, 46530, Key_signature, 0, "major"
1, 58824, Tempo, 1333333
1, 58838, Tempo, 1363636
1, 58850, Tempo, 1395349
1, 58862, Tempo, 1428571
1, 58874, Tempo, 1463415
1, 58886, Tempo, 1500000
1, 58898, Tempo, 1538462
1, 58912, Tempo, 1578947
1, 58924, Tempo, 1621622
1, 58936, Tempo, 1666667
1, 58948, Tempo, 1714286
1, 58960, Tempo, 1764706
1, 58972, Tempo, 1818182
1, 58984, Tempo, 1875000
1, 58998, Tempo, 1935484
1, 59010, Tempo, 2000000
1, 59022, Tempo, 2068966
1, 59034, Tempo, 2142857
1, 59046, Tempo, 2222222
1, 59058, Tempo, 2307692
1, 59162, Tempo, 4285714
1, 59210, Tempo, 1395349
1, 59242, Tempo, 1428571
1, 59276, Tempo, 1463415
1, 59310, Tempo, 1500000
1, 59344, Tempo, 1538462
1, 59376, Tempo, 1578947
1, 59410, Tempo, 1621622
1, 59444, Tempo, 1666667
1, 59478, Tempo, 1714286
1, 59510, Tempo, 1764706
1, 59544, Tempo, 1818182
1, 59578, Tempo, 1875000
1, 59612, Tempo, 1935484
1, 59644, Tempo, 2000000
1, 59644, End_track
2, 0, Start_track
2, 0, MIDI_port, 0
2, 0, Title_t, "Piano"
2, 0, Program_c, 0, 0
2, 120, Note_on_c, 0, 72, 64
2, 120, Note_on_c, 0, 64, 64
2, 120, Note_on_c, 0, 36, 64
2, 120, Note_on_c, 0, 43, 64
2, 172, Note_on_c, 0, 43, 0
2, 172, Note_on_c, 0, 36, 0
2, 172, Note_on_c, 0, 72, 0
2, 180, Note_on_c, 0, 67, 64
2, 198, Note_on_c, 0, 64, 0
2, 206, Note_on_c, 0, 67, 0
2, 210, Note_on_c, 0, 67, 64
2, 210, Note_on_c, 0, 64, 64
2, 210, Note_on_c, 0, 36, 64
2, 210, Note_on_c, 0, 43, 64
2, 288, Note_on_c, 0, 43, 0
2, 288, Note_on_c, 0, 36, 0
2, 288, Note_on_c, 0, 64, 0
2, 300, Note_on_c, 0, 65, 64
2, 300, Note_on_c, 0, 38, 64
2, 300, Note_on_c, 0, 43, 64
2, 375, Note_on_c, 0, 67, 0
2, 378, Note_on_c, 0, 65, 0
2, 378, Note_on_c, 0, 38, 0
2, 378, Note_on_c, 0, 43, 0
2, 390, Note_on_c, 0, 74, 64
2, 390, Note_on_c, 0, 62, 64
2, 390, Note_on_c, 0, 35, 64
2, 390, Note_on_c, 0, 43, 64
2, 442, Note_on_c, 0, 74, 0
2, 450, Note_on_c, 0, 67, 64
2, 468, Note_on_c, 0, 62, 0
2, 468, Note_on_c, 0, 43, 0
2, 468, Note_on_c, 0, 35, 0
2, 476, Note_on_c, 0, 67, 0
2, 480, Note_on_c, 0, 67, 64
2, 480, Note_on_c, 0, 62, 64
2, 480, Note_on_c, 0, 35, 64
2, 480, Note_on_c, 0, 43, 64
2, 558, Note_on_c, 0, 43, 0
2, 558, Note_on_c, 0, 35, 0
2, 558, Note_on_c, 0, 62, 0
2, 570, Note_on_c, 0, 64, 64
2, 570, Note_on_c, 0, 36, 64
2, 570, Note_on_c, 0, 43, 64
2, 645, Note_on_c, 0, 67, 0
2, 648, Note_on_c, 0, 64, 0
2, 648, Note_on_c, 0, 36, 0
2, 648, Note_on_c, 0, 43, 0
2, 660, Note_on_c, 0, 67, 64
2, 660, Note_on_c, 0, 65, 64
2, 660, Note_on_c, 0, 38, 64
2, 660, Note_on_c, 0, 43, 64
2, 738, Note_on_c, 0, 43, 0
2, 738, Note_on_c, 0, 67, 0
2, 738, Note_on_c, 0, 65, 0
2, 738, Note_on_c, 0, 38, 0
2, 750, Note_on_c, 0, 67, 64
2, 750, Note_on_c, 0, 40, 64
2, 750, Note_on_c, 0, 43, 64
2, 828, Note_on_c, 0, 43, 0
2, 828, Note_on_c, 0, 40, 0
2, 828, Note_on_c, 0, 67, 0
2, 840, Note_on_c, 0, 64, 64
2, 840, Note_on_c, 0, 76, 64
2, 840, Note_on_c, 0, 36, 64
2, 840, Note_on_c, 0, 43, 64
2, 918, Note_on_c, 0, 43, 0
2, 918, Note_on_c, 0, 64, 0
2, 918, Note_on_c, 0, 76, 0
2, 918, Note_on_c, 0, 36, 0
2, 930, Note_on_c, 0, 67, 64
2, 930, Note_on_c, 0, 72, 64
2, 930, Note_on_c, 0, 40, 64
2, 930, Note_on_c, 0, 43, 64
2, 1008, Note_on_c, 0, 43, 0
2, 1008, Note_on_c, 0, 67, 0
2, 1008, Note_on_c, 0, 72, 0
2, 1008, Note_on_c, 0, 40, 0
2, 1020, Note_on_c, 0, 64, 64
2, 1020, Note_on_c, 0, 72, 64
2, 1020, Note_on_c, 0, 31, 64
2, 1020, Note_on_c, 0, 31, 64
2, 1098, Note_on_c, 0, 31, 0
2, 1098, Note_on_c, 0, 64, 0
2, 1098, Note_on_c, 0, 72, 0
2, 1110, Note_on_c, 0, 62, 64
2, 1110, Note_on_c, 0, 71, 64
2, 1110, Note_on_c, 0, 43, 64
2, 1185, Note_on_c, 0, 31, 0
2, 1188, Note_on_c, 0, 62, 0
2, 1188, Note_on_c, 0, 71, 0
2, 1188, Note_on_c, 0, 43, 0
2, 1200, Note_on_c, 0, 62, 64
2, 1200, Note_on_c, 0, 67, 64
2, 1200, Note_on_c, 0, 71, 64
2, 1200, Note_on_c, 0, 31, 64
2, 1200, Note_on_c, 0, 43, 64
2, 1252, Note_on_c, 0, 43, 0
2, 1252, Note_on_c, 0, 31, 0
2, 1260, Note_on_c, 0, 29, 64
2, 1260, Note_on_c, 0, 41, 64
2, 1278, Note_on_c, 0, 62, 0
2, 1278, Note_on_c, 0, 71, 0
2, 1278, Note_on_c, 0, 67, 0
2, 1286, Note_on_c, 0, 29, 0
2, 1286, Note_on_c, 0, 41, 0
2, 1290, Note_on_c, 0, 72, 64
2, 1290, Note_on_c, 0, 67, 64
2, 1290, Note_on_c, 0, 28, 64
2, 1290, Note_on_c, 0, 40, 64
2, 1368, Note_on_c, 0, 72, 0
2, 1380, Note_on_c, 0, 76, 64
2, 1455, Note_on_c, 0, 67, 0
2, 1455, Note_on_c, 0, 40, 0
2, 1455, Note_on_c, 0, 28, 0
2, 1458, Note_on_c, 0, 76, 0
2, 1470, Note_on_c, 0, 79, 64
2, 1470, Note_on_c, 0, 67, 64
2, 1470, Note_on_c, 0, 28, 64
2, 1470, Note_on_c, 0, 40, 64
2, 1548, Note_on_c, 0, 40, 0
2, 1548, Note_on_c, 0, 79, 0
2, 1548, Note_on_c, 0, 67, 0
2, 1548, Note_on_c, 0, 28, 0
2, 1560, Note_on_c, 0, 79, 64
2, 1560, Note_on_c, 0, 69, 64
2, 1560, Note_on_c, 0, 26, 64
2, 1560, Note_on_c, 0, 38, 64
2, 1638, Note_on_c, 0, 79, 0
2, 1650, Note_on_c, 0, 77, 64
2, 1725, Note_on_c, 0, 69, 0
2, 1725, Note_on_c, 0, 38, 0
2, 1725, Note_on_c, 0, 26, 0
2, 1728, Note_on_c, 0, 77, 0
2, 1740, Note_on_c, 0, 69, 64
2, 1740, Note_on_c, 0, 74, 64
2, 1740, Note_on_c, 0, 29, 64
2, 1740, Note_on_c, 0, 41, 64
2, 1792, Note_on_c, 0, 41, 0
2, 1792, Note_on_c, 0, 69, 0
2, 1792, Note_on_c, 0, 74, 0
2, 1792, Note_on_c, 0, 29, 0
2, 1800, Note_on_c, 0, 62, 64
2, 1800, Note_on_c, 0, 69, 64
2, 1800, Note_on_c, 0, 72, 64
2, 1800, Note_on_c, 0, 30, 64
2, 1800, Note_on_c, 0, 42, 64
2, 1826, Note_on_c, 0, 42, 0
2, 1826, Note_on_c, 0, 72, 0
2, 1826, Note_on_c, 0, 62, 0
2, 1826, Note_on_c, 0, 69, 0
2, 1826, Note_on_c, 0, 30, 0
2, 1830, Note_on_c, 0, 62, 64
2, 1830, Note_on_c, 0, 67, 64
2, 1830, Note_on_c, 0, 71, 64
2, 1830, Note_on_c, 0, 43, 64
2, 1830, Note_on_c, 0, 31, 64
2, 1908, Note_on_c, 0, 43, 0
2, 1908, Note_on_c, 0, 71, 0
2, 1908, Note_on_c, 0, 62, 0
2, 1908, Note_on_c, 0, 67, 0
2, 1920, Note_on_c, 0, 60, 64
2, 1920, Note_on_c, 0, 67, 64
2, 1920, Note_on_c, 0, 72, 64
2, 1920, Note_on_c, 0, 45, 64
2, 1995, Note_on_c, 0, 31, 0
2, 1998, Note_on_c, 0, 72, 0
2, 1998, Note_on_c, 0, 60, 0
2, 1998, Note_on_c, 0, 67, 0
2, 1998, Note_on_c, 0, 45, 0
2, 2010, Note_on_c, 0, 62, 64
2, 2010, Note_on_c, 0, 67, 64
2, 2010, Note_on_c, 0, 74, 64
2, 2010, Note_on_c, 0, 47, 64
2, 2062, Note_on_c, 0, 47, 0
2, 2062, Note_on_c, 0, 62, 0
2, 2062, Note_on_c, 0, 67, 0
2, 2062, Note_on_c, 0, 74, 0
2, 2070, Note_on_c, 0, 62, 64
2, 2070, Note_on_c, 0, 67, 64
2, 2070, Note_on_c, 0, 47, 64
2, 2096, Note_on_c, 0, 47, 0
2, 2096, Note_on_c, 0, 67, 0
2, 2100, Note_on_c, 0, 67, 64
2, 2100, Note_on_c, 0, 47, 64
2, 2152, Note_on_c, 0, 47, 0
2, 2152, Note_on_c, 0, 62, 0
2, 2160, Note_on_c, 0, 62, 64
2, 2160, Note_on_c, 0, 47, 64
2, 2186, Note_on_c, 0, 47, 0
2, 2186, Note_on_c, 0, 62, 0
2, 2190, Note_on_c, 0, 60, 64
2, 2190, Note_on_c, 0, 64, 64
2, 2190, Note_on_c, 0, 48, 64
2, 2242, Note_on_c, 0, 48, 0
2, 2242, Note_on_c, 0, 64, 0
2, 2242, Note_on_c, 0, 60, 0
2, 2250, Note_on_c, 0, 59, 64
2, 2250, Note_on_c, 0, 65, 64
2, 2250, Note_on_c, 0, 50, 64
2, 2265, Note_on_c, 0, 67, 0
2, 2276, Note_on_c, 0, 59, 0
2, 2276, Note_on_c, 0, 65, 0
2, 2276, Note_on_c, 0, 50, 0
2, 2280, Note_on_c, 0, 72, 64
2, 2280, Note_on_c, 0, 64, 64
2, 2280, Note_on_c, 0, 36, 64
2, 2280, Note_on_c, 0, 43, 64
2, 2332, Note_on_c, 0, 43, 0
2, 2332, Note_on_c, 0, 36, 0
2, 2332, Note_on_c, 0, 72, 0
2, 2340, Note_on_c, 0, 67, 64
2, 2358, Note_on_c, 0, 64, 0
2, 2366, Note_on_c, 0, 67, 0
2, 2370, Note_on_c, 0, 67, 64
2, 2370, Note_on_c, 0, 64, 64
2, 2370, Note_on_c, 0, 36, 64
2, 2370, Note_on_c, 0, 43, 64
2, 2448, Note_on_c, 0, 43, 0
2, 2448, Note_on_c, 0, 36, 0
2, 2448, Note_on_c, 0, 64, 0
2, 2460, Note_on_c, 0, 65, 64
2, 2460, Note_on_c, 0, 38, 64
2, 2460, Note_on_c, 0, 43, 64
2, 2535, Note_on_c, 0, 67, 0
2, 2538, Note_on_c, 0, 65, 0
2, 2538, Note_on_c, 0, 38, 0
2, 2538, Note_on_c, 0, 43, 0
2, 2550, Note_on_c, 0, 74, 64
2, 2550, Note_on_c, 0, 62, 64
2, 2550, Note_on_c, 0, 35, 64
2, 2550, Note_on_c, 0, 43, 64
2, 2602, Note_on_c, 0, 74, 0
2, 2610, Note_on_c, 0, 67, 64
2, 2628, Note_on_c, 0, 62, 0
2, 2628, Note_on_c, 0, 43, 0
2, 2628, Note_on_c, 0, 35, 0
2, 2636, Note_on_c, 0, 67, 0
2, 2640, Note_on_c, 0, 67, 64
2, 2640, Note_on_c, 0, 62, 64
2, 2640, Note_on_c, 0, 35, 64
2, 2640, Note_on_c, 0, 43, 64
2, 2718, Note_on_c, 0, 43, 0
2, 2718, Note_on_c, 0, 35, 0
2, 2718, Note_on_c, 0, 62, 0
2, 2730, Note_on_c, 0, 64, 64
2, 2730, Note_on_c, 0, 36, 64
2, 2730, Note_on_c, 0, 43, 64
2, 2805, Note_on_c, 0, 67, 0
2, 2808, Note_on_c, 0, 64, 0
2, 2808, Note_on_c, 0, 36, 0
2, 2808, Note_on_c, 0, 43, 0
2, 2820, Note_on_c, 0, 67, 64
2, 2820, Note_on_c, 0, 65, 64
2, 2820, Note_on_c, 0, 38, 64
2, 2820, Note_on_c, 0, 43, 64
2, 2898, Note_on_c, 0, 43, 0
2, 2898, Note_on_c, 0, 67, 0
2, 2898, Note_on_c, 0, 65, 0
2, 2898, Note_on_c, 0, 38, 0
2, 2910, Note_on_c, 0, 67, 64
2, 2910, Note_on_c, 0, 40, 64
2, 2910, Note_on_c, 0, 43, 64
2, 2988, Note_on_c, 0, 43, 0
2, 2988, Note_on_c, 0, 40, 0
2, 2988, Note_on_c, 0, 67, 0
2, 3000, Note_on_c, 0, 64, 64
2, 3000, Note_on_c, 0, 76, 64
2, 3000, Note_on_c, 0, 36, 64
2, 3000, Note_on_c, 0, 43, 64
2, 3078, Note_on_c, 0, 43, 0
2, 3078, Note_on_c, 0, 64, 0
2, 3078, Note_on_c, 0, 76, 0
2, 3078, Note_on_c, 0, 36, 0
2, 3090, Note_on_c, 0, 67, 64
2, 3090, Note_on_c, 0, 72, 64
2, 3090, Note_on_c, 0, 40, 64
2, 3090, Note_on_c, 0, 43, 64
2, 3168, Note_on_c, 0, 43, 0
2, 3168, Note_on_c, 0, 67, 0
2, 3168, Note_on_c, 0, 72, 0
2, 3168, Note_on_c, 0, 40, 0
2, 3180, Note_on_c, 0, 64, 64
2, 3180, Note_on_c, 0, 72, 64
2, 3180, Note_on_c, 0, 31, 64
2, 3180, Note_on_c, 0, 31, 64
2, 3258, Note_on_c, 0, 31, 0
2, 3258, Note_on_c, 0, 64, 0
2, 3258, Note_on_c, 0, 72, 0
2, 3270, Note_on_c, 0, 62, 64
2, 3270, Note_on_c, 0, 71, 64
2, 3270, Note_on_c, 0, 43, 64
2, 3345, Note_on_c, 0, 31, 0
2, 3348, Note_on_c, 0, 62, 0
2, 3348, Note_on_c, 0, 71, 0
2, 3348, Note_on_c, 0, 43, 0
2, 3360, Note_on_c, 0, 62, 64
2, 3360, Note_on_c, 0, 67, 64
2, 3360, Note_on_c, 0, 71, 64
2, 3360, Note_on_c, 0, 31, 64
2, 3360, Note_on_c, 0, 43, 64
2, 3412, Note_on_c, 0, 43, 0
2, 3412, Note_on_c, 0, 31, 0
2, 3420, Note_on_c, 0, 29, 64
2, 3420, Note_on_c, 0, 41, 64
2, 3438, Note_on_c, 0, 62, 0
2, 3438, Note_on_c, 0, 71, 0
2, 3438, Note_on_c, 0, 67, 0
2, 3446, Note_on_c, 0, 29, 0
2, 3446, Note_on_c, 0, 41, 0
2, 3450, Note_on_c, 0, 72, 64
2, 3450, Note_on_c, 0, 67, 64
2, 3450, Note_on_c, 0, 28, 64
2, 3450, Note_on_c, 0, 40, 64
2, 3528, Note_on_c, 0, 72, 0
2, 3540, Note_on_c, 0, 76, 64
2, 3615, Note_on_c, 0, 67, 0
2, 3615, Note_on_c, 0, 40, 0
2, 3615, Note_on_c, 0, 28, 0
2, 3618, Note_on_c, 0, 76, 0
2, 3630, Note_on_c, 0, 79, 64
2, 3630, Note_on_c, 0, 67, 64
2, 3630, Note_on_c, 0, 28, 64
2, 3630, Note_on_c, 0, 40, 64
2, 3708, Note_on_c, 0, 40, 0
2, 3708, Note_on_c, 0, 79, 0
2, 3708, Note_on_c, 0, 67, 0
2, 3708, Note_on_c, 0, 28, 0
2, 3720, Note_on_c, 0, 79, 64
2, 3720, Note_on_c, 0, 69, 64
2, 3720, Note_on_c, 0, 26, 64
2, 3720, Note_on_c, 0, 38, 64
2, 3798, Note_on_c, 0, 79, 0
2, 3810, Note_on_c, 0, 77, 64
2, 3885, Note_on_c, 0, 69, 0
2, 3885, Note_on_c, 0, 38, 0
2, 3885, Note_on_c, 0, 26, 0
2, 3888, Note_on_c, 0, 77, 0
2, 3900, Note_on_c, 0, 69, 64
2, 3900, Note_on_c, 0, 74, 64
2, 3900, Note_on_c, 0, 29, 64
2, 3900, Note_on_c, 0, 41, 64
2, 3952, Note_on_c, 0, 41, 0
2, 3952, Note_on_c, 0, 69, 0
2, 3952, Note_on_c, 0, 74, 0
2, 3952, Note_on_c, 0, 29, 0
2, 3960, Note_on_c, 0, 62, 64
2, 3960, Note_on_c, 0, 69, 64
2, 3960, Note_on_c, 0, 72, 64
2, 3960, Note_on_c, 0, 30, 64
2, 3960, Note_on_c, 0, 42, 64
2, 3986, Note_on_c, 0, 42, 0
2, 3986, Note_on_c, 0, 72, 0
2, 3986, Note_on_c, 0, 62, 0
2, 3986, Note_on_c, 0, 69, 0
2, 3986, Note_on_c, 0, 30, 0
2, 3990, Note_on_c, 0, 62, 64
2, 3990, Note_on_c, 0, 67, 64
2, 3990, Note_on_c, 0, 71, 64
2, 3990, Note_on_c, 0, 43, 64
2, 3990, Note_on_c, 0, 31, 64
2, 4068, Note_on_c, 0, 43, 0
2, 4068, Note_on_c, 0, 71, 0
2, 4068, Note_on_c, 0, 62, 0
2, 4068, Note_on_c, 0, 67, 0
2, 4080, Note_on_c, 0, 60, 64
2, 4080, Note_on_c, 0, 67, 64
2, 4080, Note_on_c, 0, 72, 64
2, 4080, Note_on_c, 0, 45, 64
2, 4155, Note_on_c, 0, 31, 0
2, 4158, Note_on_c, 0, 72, 0
2, 4158, Note_on_c, 0, 60, 0
2, 4158, Note_on_c, 0, 67, 0
2, 4158, Note_on_c, 0, 45, 0
2, 4170, Note_on_c, 0, 62, 64
2, 4170, Note_on_c, 0, 67, 64
2, 4170, Note_on_c, 0, 74, 64
2, 4170, Note_on_c, 0, 47, 64
2, 4222, Note_on_c, 0, 47, 0
2, 4222, Note_on_c, 0, 62, 0
2, 4222, Note_on_c, 0, 67, 0
2, 4222, Note_on_c, 0, 74, 0
2, 4230, Note_on_c, 0, 62, 64
2, 4230, Note_on_c, 0, 67, 64
2, 4230, Note_on_c, 0, 47, 64
2, 4256, Note_on_c, 0, 47, 0
2, 4256, Note_on_c, 0, 67, 0
2, 4260, Note_on_c, 0, 62, 0
2, 4260, Note_on_c, 0, 62, 64
2, 4260, Note_on_c, 0, 67, 64
2, 4260, Note_on_c, 0, 47, 64
2, 4312, Note_on_c, 0, 47, 0
2, 4312, Note_on_c, 0, 62, 0
2, 4320, Note_on_c, 0, 60, 64
2, 4320, Note_on_c, 0, 64, 64
2, 4320, Note_on_c, 0, 48, 64
2, 4346, Note_on_c, 0, 48, 0
2, 4346, Note_on_c, 0, 64, 0
2, 4346, Note_on_c, 0, 60, 0
2, 4350, Note_on_c, 0, 59, 64
2, 4350, Note_on_c, 0, 65, 64
2, 4350, Note_on_c, 0, 50, 64
2, 4402, Note_on_c, 0, 50, 0
2, 4402, Note_on_c, 0, 65, 0
2, 4402, Note_on_c, 0, 59, 0
2, 4410, Note_on_c, 0, 60, 64
2, 4410, Note_on_c, 0, 64, 64
2, 4410, Note_on_c, 0, 48, 64
2, 4425, Note_on_c, 0, 67, 0
2, 4436, Note_on_c, 0, 60, 0
2, 4436, Note_on_c, 0, 64, 0
2, 4436, Note_on_c, 0, 48, 0
2, 4440, Note_on_c, 0, 64, 64
2, 4440, Note_on_c, 0, 52, 64
2, 4518, Note_on_c, 0, 52, 0
2, 4518, Note_on_c, 0, 64, 0
2, 4530, Note_on_c, 0, 72, 64
2, 4530, Note_on_c, 0, 64, 64
2, 4530, Note_on_c, 0, 45, 64
2, 4530, Note_on_c, 0, 45, 64
2, 4608, Note_on_c, 0, 45, 0
2, 4620, Note_on_c, 0, 52, 64
2, 4695, Note_on_c, 0, 72, 0
2, 4695, Note_on_c, 0, 45, 0
2, 4695, Note_on_c, 0, 64, 0
2, 4698, Note_on_c, 0, 52, 0
2, 4710, Note_on_c, 0, 72, 64
2, 4710, Note_on_c, 0, 64, 64
2, 4710, Note_on_c, 0, 45, 64
2, 4710, Note_on_c, 0, 52, 64
2, 4762, Note_on_c, 0, 72, 0
2, 4770, Note_on_c, 0, 71, 64
2, 4788, Note_on_c, 0, 64, 0
2, 4788, Note_on_c, 0, 52, 0
2, 4788, Note_on_c, 0, 45, 0
2, 4796, Note_on_c, 0, 71, 0
2, 4800, Note_on_c, 0, 71, 64
2, 4800, Note_on_c, 0, 64, 64
2, 4800, Note_on_c, 0, 44, 64
2, 4800, Note_on_c, 0, 44, 64
2, 4878, Note_on_c, 0, 44, 0
2, 4890, Note_on_c, 0, 52, 64
2, 4965, Note_on_c, 0, 71, 0
2, 4965, Note_on_c, 0, 44, 0
2, 4965, Note_on_c, 0, 64, 0
2, 4968, Note_on_c, 0, 52, 0
2, 4980, Note_on_c, 0, 71, 64
2, 4980, Note_on_c, 0, 71, 64
2, 4980, Note_on_c, 0, 44, 64
2, 4980, Note_on_c, 0, 52, 64
2, 5032, Note_on_c, 0, 71, 0
2, 5040, Note_on_c, 0, 76, 64
2, 5058, Note_on_c, 0, 71, 0
2, 5058, Note_on_c, 0, 52, 0
2, 5058, Note_on_c, 0, 44, 0
2, 5066, Note_on_c, 0, 76, 0
2, 5070, Note_on_c, 0, 71, 64
2, 5070, Note_on_c, 0, 76, 64
2, 5070, Note_on_c, 0, 44, 64
2, 5070, Note_on_c, 0, 52, 64
2, 5148, Note_on_c, 0, 52, 0
2, 5148, Note_on_c, 0, 71, 0
2, 5148, Note_on_c, 0, 76, 0
2, 5148, Note_on_c, 0, 44, 0
2, 5160, Note_on_c, 0, 72, 64
2, 5160, Note_on_c, 0, 76, 64
2, 5160, Note_on_c, 0, 45, 64
2, 5160, Note_on_c, 0, 52, 64
2, 5238, Note_on_c, 0, 52, 0
2, 5238, Note_on_c, 0, 72, 0
2, 5238, Note_on_c, 0, 76, 0
2, 5238, Note_on_c, 0, 45, 0
2, 5250, Note_on_c, 0, 71, 64
2, 5250, Note_on_c, 0, 74, 64
2, 5250, Note_on_c, 0, 45, 64
2, 5250, Note_on_c, 0, 52, 64
2, 5302, Note_on_c, 0, 74, 0
2, 5302, Note_on_c, 0, 71, 0
2, 5310, Note_on_c, 0, 69, 64
2, 5310, Note_on_c, 0, 72, 64
2, 5328, Note_on_c, 0, 45, 0
2, 5328, Note_on_c, 0, 52, 0
2, 5336, Note_on_c, 0, 69, 0
2, 5336, Note_on_c, 0, 72, 0
2, 5340, Note_on_c, 0, 69, 64
2, 5340, Note_on_c, 0, 72, 64
2, 5340, Note_on_c, 0, 40, 64
2, 5340, Note_on_c, 0, 40, 64
2, 5418, Note_on_c, 0, 40, 0
2, 5418, Note_on_c, 0, 69, 0
2, 5418, Note_on_c, 0, 72, 0
2, 5430, Note_on_c, 0, 68, 64
2, 5430, Note_on_c, 0, 71, 64
2, 5430, Note_on_c, 0, 52, 64
2, 5505, Note_on_c, 0, 40, 0
2, 5508, Note_on_c, 0, 68, 0
2, 5508, Note_on_c, 0, 71, 0
2, 5508, Note_on_c, 0, 52, 0
2, 5520, Note_on_c, 0, 64, 64
2, 5520, Note_on_c, 0, 69, 64
2, 5520, Note_on_c, 0, 72, 64
2, 5520, Note_on_c, 0, 33, 64
2, 5520, Note_on_c, 0, 45, 64
2, 5598, Note_on_c, 0, 45, 0
2, 5598, Note_on_c, 0, 72, 0
2, 5598, Note_on_c, 0, 64, 0
2, 5598, Note_on_c, 0, 69, 0
2, 5598, Note_on_c, 0, 33, 0
2, 5610, Note_on_c, 0, 67, 64
2, 5610, Note_on_c, 0, 71, 64
2, 5610, Note_on_c, 0, 74, 64
2, 5610, Note_on_c, 0, 31, 64
2, 5610, Note_on_c, 0, 43, 64
2, 5775, Note_on_c, 0, 43, 0
2, 5775, Note_on_c, 0, 74, 0
2, 5775, Note_on_c, 0, 67, 0
2, 5775, Note_on_c, 0, 71, 0
2, 5775, Note_on_c, 0, 31, 0
2, 5790, Note_on_c, 0, 67, 64
2, 5790, Note_on_c, 0, 71, 64
2, 5790, Note_on_c, 0, 74, 64
2, 5790, Note_on_c, 0, 31, 64
2, 5790, Note_on_c, 0, 43, 64
2, 5868, Note_on_c, 0, 43, 0
2, 5868, Note_on_c, 0, 74, 0
2, 5868, Note_on_c, 0, 67, 0
2, 5868, Note_on_c, 0, 71, 0
2, 5868, Note_on_c, 0, 31, 0
2, 5880, Note_on_c, 0, 67, 64
2, 5880, Note_on_c, 0, 72, 64
2, 5880, Note_on_c, 0, 76, 64
2, 5880, Note_on_c, 0, 36, 64
2, 5880, Note_on_c, 0, 48, 64
2, 6045, Note_on_c, 0, 48, 0
2, 6045, Note_on_c, 0, 76, 0
2, 6045, Note_on_c, 0, 67, 0
2, 6045, Note_on_c, 0, 72, 0
2, 6045, Note_on_c, 0, 36, 0
2, 6060, Note_on_c, 0, 67, 64
2, 6060, Note_on_c, 0, 72, 64
2, 6060, Note_on_c, 0, 77, 64
2, 6060, Note_on_c, 0, 29, 64
2, 6060, Note_on_c, 0, 41, 64
2, 6138, Note_on_c, 0, 41, 0
2, 6138, Note_on_c, 0, 77, 0
2, 6138, Note_on_c, 0, 67, 0
2, 6138, Note_on_c, 0, 72, 0
2, 6138, Note_on_c, 0, 29, 0
2, 6150, Note_on_c, 0, 67, 64
2, 6150, Note_on_c, 0, 71, 64
2, 6150, Note_on_c, 0, 74, 64
2, 6150, Note_on_c, 0, 31, 64
2, 6150, Note_on_c, 0, 43, 64
2, 6228, Note_on_c, 0, 43, 0
2, 6228, Note_on_c, 0, 74, 0
2, 6228, Note_on_c, 0, 67, 0
2, 6228, Note_on_c, 0, 71, 0
2, 6228, Note_on_c, 0, 31, 0
2, 6240, Note_on_c, 0, 67, 64
2, 6240, Note_on_c, 0, 71, 64
2, 6240, Note_on_c, 0, 74, 64
2, 6240, Note_on_c, 0, 31, 64
2, 6240, Note_on_c, 0, 43, 64
2, 6318, Note_on_c, 0, 43, 0
2, 6318, Note_on_c, 0, 74, 0
2, 6318, Note_on_c, 0, 67, 0
2, 6318, Note_on_c, 0, 71, 0
2, 6318, Note_on_c, 0, 31, 0
2, 6330, Note_on_c, 0, 67, 64
2, 6330, Note_on_c, 0, 71, 64
2, 6330, Note_on_c, 0, 74, 64
2, 6330, Note_on_c, 0, 31, 64
2, 6330, Note_on_c, 0, 43, 64
2, 6382, Note_on_c, 0, 43, 0
2, 6382, Note_on_c, 0, 74, 0
2, 6382, Note_on_c, 0, 67, 0
2, 6382, Note_on_c, 0, 71, 0
2, 6382, Note_on_c, 0, 31, 0
2, 6390, Note_on_c, 0, 71, 64
2, 6390, Note_on_c, 0, 74, 64
2, 6390, Note_on_c, 0, 79, 64
2, 6390, Note_on_c, 0, 31, 64
2, 6390, Note_on_c, 0, 43, 64
2, 6416, Note_on_c, 0, 43, 0
2, 6416, Note_on_c, 0, 79, 0
2, 6416, Note_on_c, 0, 71, 0
2, 6416, Note_on_c, 0, 74, 0
2, 6416, Note_on_c, 0, 31, 0
2, 6420, Note_on_c, 0, 71, 64
2, 6420, Note_on_c, 0, 74, 64
2, 6420, Note_on_c, 0, 79, 64
2, 6420, Note_on_c, 0, 31, 64
2, 6420, Note_on_c, 0, 43, 64
2, 6472, Note_on_c, 0, 43, 0
2, 6472, Note_on_c, 0, 79, 0
2, 6472, Note_on_c, 0, 71, 0
2, 6472, Note_on_c, 0, 74, 0
2, 6472, Note_on_c, 0, 31, 0
2, 6480, Note_on_c, 0, 67, 64
2, 6480, Note_on_c, 0, 72, 64
2, 6480, Note_on_c, 0, 76, 64
2, 6480, Note_on_c, 0, 36, 64
2, 6480, Note_on_c, 0, 48, 64
2, 6506, Note_on_c, 0, 48, 0
2, 6506, Note_on_c, 0, 76, 0
2, 6506, Note_on_c, 0, 67, 0
2, 6506, Note_on_c, 0, 72, 0
2, 6506, Note_on_c, 0, 36, 0
2, 6510, Note_on_c, 0, 67, 64
2, 6510, Note_on_c, 0, 72, 64
2, 6510, Note_on_c, 0, 76, 64
2, 6510, Note_on_c, 0, 36, 64
2, 6510, Note_on_c, 0, 48, 64
2, 6588, Note_on_c, 0, 48, 0
2, 6588, Note_on_c, 0, 76, 0
2, 6588, Note_on_c, 0, 67, 0
2, 6588, Note_on_c, 0, 72, 0
2, 6588, Note_on_c, 0, 36, 0
2, 6600, Note_on_c, 0, 64, 64
2, 6600, Note_on_c, 0, 52, 64
2, 6678, Note_on_c, 0, 52, 0
2, 6678, Note_on_c, 0, 64, 0
2, 6690, Note_on_c, 0, 72, 64
2, 6690, Note_on_c, 0, 64, 64
2, 6690, Note_on_c, 0, 45, 64
2, 6690, Note_on_c, 0, 45, 64
2, 6768, Note_on_c, 0, 45, 0
2, 6780, Note_on_c, 0, 52, 64
2, 6855, Note_on_c, 0, 72, 0
2, 6855, Note_on_c, 0, 45, 0
2, 6855, Note_on_c, 0, 64, 0
2, 6858, Note_on_c, 0, 52, 0
2, 6870, Note_on_c, 0, 72, 64
2, 6870, Note_on_c, 0, 64, 64
2, 6870, Note_on_c, 0, 45, 64
2, 6870, Note_on_c, 0, 52, 64
2, 6922, Note_on_c, 0, 72, 0
2, 6930, Note_on_c, 0, 71, 64
2, 6948, Note_on_c, 0, 64, 0
2, 6948, Note_on_c, 0, 52, 0
2, 6948, Note_on_c, 0, 45, 0
2, 6956, Note_on_c, 0, 71, 0
2, 6960, Note_on_c, 0, 71, 64
2, 6960, Note_on_c, 0, 64, 64
2, 6960, Note_on_c, 0, 44, 64
2, 6960, Note_on_c, 0, 44, 64
2, 7038, Note_on_c, 0, 44, 0
2, 7050, Note_on_c, 0, 52, 64
2, 7125, Note_on_c, 0, 71, 0
2, 7125, Note_on_c, 0, 44, 0
2, 7125, Note_on_c, 0, 64, 0
2, 7128, Note_on_c, 0, 52, 0
2, 7140, Note_on_c, 0, 71, 64
2, 7140, Note_on_c, 0, 71, 64
2, 7140, Note_on_c, 0, 44, 64
2, 7140, Note_on_c, 0, 52, 64
2, 7192, Note_on_c, 0, 71, 0
2, 7200, Note_on_c, 0, 76, 64
2, 7218, Note_on_c, 0, 71, 0
2, 7218, Note_on_c, 0, 52, 0
2, 7218, Note_on_c, 0, 44, 0
2, 7226, Note_on_c, 0, 76, 0
2, 7230, Note_on_c, 0, 71, 64
2, 7230, Note_on_c, 0, 76, 64
2, 7230, Note_on_c, 0, 44, 64
2, 7230, Note_on_c, 0, 52, 64
2, 7308, Note_on_c, 0, 52, 0
2, 7308, Note_on_c, 0, 71, 0
2, 7308, Note_on_c, 0, 76, 0
2, 7308, Note_on_c, 0, 44, 0
2, 7320, Note_on_c, 0, 72, 64
2, 7320, Note_on_c, 0, 76, 64
2, 7320, Note_on_c, 0, 45, 64
2, 7320, Note_on_c, 0, 52, 64
2, 7398, Note_on_c, 0, 52, 0
2, 7398, Note_on_c, 0, 72, 0
2, 7398, Note_on_c, 0, 76, 0
2, 7398, Note_on_c, 0, 45, 0
2, 7410, Note_on_c, 0, 71, 64
2, 7410, Note_on_c, 0, 74, 64
2, 7410, Note_on_c, 0, 45, 64
2, 7410, Note_on_c, 0, 52, 64
2, 7462, Note_on_c, 0, 74, 0
2, 7462, Note_on_c, 0, 71, 0
2, 7470, Note_on_c, 0, 69, 64
2, 7470, Note_on_c, 0, 72, 64
2, 7488, Note_on_c, 0, 45, 0
2, 7488, Note_on_c, 0, 52, 0
2, 7496, Note_on_c, 0, 69, 0
2, 7496, Note_on_c, 0, 72, 0
2, 7500, Note_on_c, 0, 69, 64
2, 7500, Note_on_c, 0, 72, 64
2, 7500, Note_on_c, 0, 40, 64
2, 7500, Note_on_c, 0, 40, 64
2, 7578, Note_on_c, 0, 40, 0
2, 7578, Note_on_c, 0, 69, 0
2, 7578, Note_on_c, 0, 72, 0
2, 7590, Note_on_c, 0, 68, 64
2, 7590, Note_on_c, 0, 71, 64
2, 7590, Note_on_c, 0, 52, 64
2, 7665, Note_on_c, 0, 40, 0
2, 7668, Note_on_c, 0, 68, 0
2, 7668, Note_on_c, 0, 71, 0
2, 7668, Note_on_c, 0, 52, 0
2, 7680, Note_on_c, 0, 64, 64
2, 7680, Note_on_c, 0, 69, 64
2, 7680, Note_on_c, 0, 72, 64
2, 7680, Note_on_c, 0, 33, 64
2, 7680, Note_on_c, 0, 45, 64
2, 7758, Note_on_c, 0, 45, 0
2, 7758, Note_on_c, 0, 72, 0
2, 7758, Note_on_c, 0, 64, 0
2, 7758, Note_on_c, 0, 69, 0
2, 7758, Note_on_c, 0, 33, 0
2, 7770, Note_on_c, 0, 67, 64
2, 7770, Note_on_c, 0, 71, 64
2, 7770, Note_on_c, 0, 74, 64
2, 7770, Note_on_c, 0, 31, 64
2, 7770, Note_on_c, 0, 43, 64
2, 7935, Note_on_c, 0, 43, 0
2, 7935, Note_on_c, 0, 74, 0
2, 7935, Note_on_c, 0, 67, 0
2, 7935, Note_on_c, 0, 71, 0
2, 7935, Note_on_c, 0, 31, 0
2, 7950, Note_on_c, 0, 67, 64
2, 7950, Note_on_c, 0, 71, 64
2, 7950, Note_on_c, 0, 74, 64
2, 7950, Note_on_c, 0, 31, 64
2, 7950, Note_on_c, 0, 43, 64
2, 8028, Note_on_c, 0, 43, 0
2, 8028, Note_on_c, 0, 74, 0
2, 8028, Note_on_c, 0, 67, 0
2, 8028, Note_on_c, 0, 71, 0
2, 8028, Note_on_c, 0, 31, 0
2, 8040, Note_on_c, 0, 67, 64
2, 8040, Note_on_c, 0, 72, 64
2, 8040, Note_on_c, 0, 76, 64
2, 8040, Note_on_c, 0, 36, 64
2, 8040, Note_on_c, 0, 48, 64
2, 8205, Note_on_c, 0, 48, 0
2, 8205, Note_on_c, 0, 76, 0
2, 8205, Note_on_c, 0, 67, 0
2, 8205, Note_on_c, 0, 72, 0
2, 8205, Note_on_c, 0, 36, 0
2, 8220, Note_on_c, 0, 67, 64
2, 8220, Note_on_c, 0, 72, 64
2, 8220, Note_on_c, 0, 77, 64
2, 8220, Note_on_c, 0, 29, 64
2, 8220, Note_on_c, 0, 41, 64
2, 8298, Note_on_c, 0, 41, 0
2, 8298, Note_on_c, 0, 77, 0
2, 8298, Note_on_c, 0, 67, 0
2, 8298, Note_on_c, 0, 72, 0
2, 8298, Note_on_c, 0, 29, 0
2, 8310, Note_on_c, 0, 67, 64
2, 8310, Note_on_c, 0, 71, 64
2, 8310, Note_on_c, 0, 74, 64
2, 8310, Note_on_c, 0, 31, 64
2, 8310, Note_on_c, 0, 43, 64
2, 8388, Note_on_c, 0, 43, 0
2, 8388, Note_on_c, 0, 74, 0
2, 8388, Note_on_c, 0, 67, 0
2, 8388, Note_on_c, 0, 71, 0
2, 8388, Note_on_c, 0, 31, 0
2, 8400, Note_on_c, 0, 67, 64
2, 8400, Note_on_c, 0, 71, 64
2, 8400, Note_on_c, 0, 74, 64
2, 8400, Note_on_c, 0, 31, 64
2, 8400, Note_on_c, 0, 43, 64
2, 8478, Note_on_c, 0, 43, 0
2, 8478, Note_on_c, 0, 74, 0
2, 8478, Note_on_c, 0, 67, 0
2, 8478, Note_on_c, 0, 71, 0
2, 8478, Note_on_c, 0, 31, 0
2, 8490, Note_on_c, 0, 67, 64
2, 8490, Note_on_c, 0, 71, 64
2, 8490, Note_on_c, 0, 74, 64
2, 8490, Note_on_c, 0, 31, 64
2, 8490, Note_on_c, 0, 43, 64
2, 8542, Note_on_c, 0, 43, 0
2, 8542, Note_on_c, 0, 74, 0
2, 8542, Note_on_c, 0, 67, 0
2, 8542, Note_on_c, 0, 71, 0
2, 8542, Note_on_c, 0, 31, 0
2, 8550, Note_on_c, 0, 71, 64
2, 8550, Note_on_c, 0, 74, 64
2, 8550, Note_on_c, 0, 79, 64
2, 8550, Note_on_c, 0, 31, 64
2, 8550, Note_on_c, 0, 43, 64
2, 8576, Note_on_c, 0, 43, 0
2, 8576, Note_on_c, 0, 79, 0
2, 8576, Note_on_c, 0, 71, 0
2, 8576, Note_on_c, 0, 74, 0
2, 8576, Note_on_c, 0, 31, 0
2, 8580, Note_on_c, 0, 71, 64
2, 8580, Note_on_c, 0, 74, 64
2, 8580, Note_on_c, 0, 79, 64
2, 8580, Note_on_c, 0, 31, 64
2, 8580, Note_on_c, 0, 43, 64
2, 8632, Note_on_c, 0, 43, 0
2, 8632, Note_on_c, 0, 79, 0
2, 8632, Note_on_c, 0, 71, 0
2, 8632, Note_on_c, 0, 74, 0
2, 8632, Note_on_c, 0, 31, 0
2, 8640, Note_on_c, 0, 67, 64
2, 8640, Note_on_c, 0, 72, 64
2, 8640, Note_on_c, 0, 76, 64
2, 8640, Note_on_c, 0, 36, 64
2, 8640, Note_on_c, 0, 48, 64
2, 8666, Note_on_c, 0, 48, 0
2, 8666, Note_on_c, 0, 76, 0
2, 8666, Note_on_c, 0, 67, 0
2, 8666, Note_on_c, 0, 72, 0
2, 8666, Note_on_c, 0, 36, 0
2, 8670, Note_on_c, 0, 67, 64
2, 8670, Note_on_c, 0, 72, 64
2, 8670, Note_on_c, 0, 76, 64
2, 8670, Note_on_c, 0, 36, 64
2, 8670, Note_on_c, 0, 48, 64
2, 8696, Note_on_c, 0, 48, 0
2, 8696, Note_on_c, 0, 36, 0
2, 8700, Note_on_c, 0, 55, 64
2, 8726, Note_on_c, 0, 55, 0
2, 8730, Note_on_c, 0, 53, 64
2, 8748, Note_on_c, 0, 76, 0
2, 8748, Note_on_c, 0, 67, 0
2, 8748, Note_on_c, 0, 72, 0
2, 8756, Note_on_c, 0, 53, 0
2, 8760, Note_on_c, 0, 72, 64
2, 8760, Note_on_c, 0, 52, 64
2, 8786, Note_on_c, 0, 52, 0
2, 8790, Note_on_c, 0, 48, 64
2, 8812, Note_on_c, 0, 72, 0
2, 8816, Note_on_c, 0, 48, 0
2, 8820, Note_on_c, 0, 64, 64
2, 8820, Note_on_c, 0, 55, 64
2, 8846, Note_on_c, 0, 64, 0
2, 8850, Note_on_c, 0, 69, 64
2, 8876, Note_on_c, 0, 55, 0
2, 8880, Note_on_c, 0, 49, 64
2, 8902, Note_on_c, 0, 69, 0
2, 8906, Note_on_c, 0, 49, 0
2, 8910, Note_on_c, 0, 64, 64
2, 8910, Note_on_c, 0, 55, 64
2, 8936, Note_on_c, 0, 64, 0
2, 8940, Note_on_c, 0, 67, 64
2, 8966, Note_on_c, 0, 55, 0
2, 8970, Note_on_c, 0, 50, 64
2, 8992, Note_on_c, 0, 67, 0
2, 8996, Note_on_c, 0, 50, 0
2, 9000, Note_on_c, 0, 65, 64
2, 9000, Note_on_c, 0, 55, 64
2, 9026, Note_on_c, 0, 65, 0
2, 9030, Note_on_c, 0, 74, 64
2, 9056, Note_on_c, 0, 55, 0
2, 9060, Note_on_c, 0, 46, 64
2, 9082, Note_on_c, 0, 74, 0
2, 9086, Note_on_c, 0, 46, 0
2, 9090, Note_on_c, 0, 62, 64
2, 9090, Note_on_c, 0, 55, 64
2, 9116, Note_on_c, 0, 62, 0
2, 9120, Note_on_c, 0, 67, 64
2, 9146, Note_on_c, 0, 55, 0
2, 9150, Note_on_c, 0, 47, 64
2, 9172, Note_on_c, 0, 67, 0
2, 9176, Note_on_c, 0, 47, 0
2, 9180, Note_on_c, 0, 62, 64
2, 9180, Note_on_c, 0, 55, 64
2, 9206, Note_on_c, 0, 62, 0
2, 9210, Note_on_c, 0, 65, 64
2, 9236, Note_on_c, 0, 55, 0
2, 9240, Note_on_c, 0, 48, 64
2, 9262, Note_on_c, 0, 65, 0
2, 9266, Note_on_c, 0, 48, 0
2, 9270, Note_on_c, 0, 64, 64
2, 9270, Note_on_c, 0, 55, 64
2, 9296, Note_on_c, 0, 55, 0
2, 9296, Note_on_c, 0, 64, 0
2, 9300, Note_on_c, 0, 67, 64
2, 9300, Note_on_c, 0, 52, 64
2, 9326, Note_on_c, 0, 52, 0
2, 9330, Note_on_c, 0, 50, 64
2, 9352, Note_on_c, 0, 67, 0
2, 9356, Note_on_c, 0, 50, 0
2, 9360, Note_on_c, 0, 65, 64
2, 9360, Note_on_c, 0, 55, 64
2, 9386, Note_on_c, 0, 65, 0
2, 9390, Note_on_c, 0, 69, 64
2, 9416, Note_on_c, 0, 55, 0
2, 9420, Note_on_c, 0, 51, 64
2, 9442, Note_on_c, 0, 69, 0
2, 9446, Note_on_c, 0, 51, 0
2, 9450, Note_on_c, 0, 67, 64
2, 9450, Note_on_c, 0, 52, 64
2, 9476, Note_on_c, 0, 52, 0
2, 9476, Note_on_c, 0, 67, 0
2, 9480, Note_on_c, 0, 76, 64
2, 9480, Note_on_c, 0, 55, 64
2, 9506, Note_on_c, 0, 55, 0
2, 9510, Note_on_c, 0, 48, 64
2, 9532, Note_on_c, 0, 76, 0
2, 9536, Note_on_c, 0, 48, 0
2, 9540, Note_on_c, 0, 64, 64
2, 9540, Note_on_c, 0, 55, 64
2, 9566, Note_on_c, 0, 64, 0
2, 9570, Note_on_c, 0, 72, 64
2, 9596, Note_on_c, 0, 55, 0
2, 9600, Note_on_c, 0, 52, 64
2, 9622, Note_on_c, 0, 72, 0
2, 9626, Note_on_c, 0, 52, 0
2, 9630, Note_on_c, 0, 64, 64
2, 9630, Note_on_c, 0, 55, 64
2, 9656, Note_on_c, 0, 64, 0
2, 9660, Note_on_c, 0, 63, 64
2, 9660, Note_on_c, 0, 72, 64
2, 9686, Note_on_c, 0, 55, 0
2, 9690, Note_on_c, 0, 42, 64
2, 9712, Note_on_c, 0, 72, 0
2, 9712, Note_on_c, 0, 63, 0
2, 9716, Note_on_c, 0, 42, 0
2, 9720, Note_on_c, 0, 62, 64
2, 9720, Note_on_c, 0, 71, 64
2, 9720, Note_on_c, 0, 55, 64
2, 9746, Note_on_c, 0, 71, 0
2, 9746, Note_on_c, 0, 62, 0
2, 9750, Note_on_c, 0, 60, 64
2, 9750, Note_on_c, 0, 69, 64
2, 9776, Note_on_c, 0, 55, 0
2, 9780, Note_on_c, 0, 43, 64
2, 9802, Note_on_c, 0, 69, 0
2, 9802, Note_on_c, 0, 60, 0
2, 9806, Note_on_c, 0, 43, 0
2, 9810, Note_on_c, 0, 59, 64
2, 9810, Note_on_c, 0, 67, 64
2, 9810, Note_on_c, 0, 55, 64
2, 9836, Note_on_c, 0, 67, 0
2, 9836, Note_on_c, 0, 59, 0
2, 9840, Note_on_c, 0, 60, 64
2, 9840, Note_on_c, 0, 69, 64
2, 9866, Note_on_c, 0, 55, 0
2, 9870, Note_on_c, 0, 41, 64
2, 9892, Note_on_c, 0, 69, 0
2, 9892, Note_on_c, 0, 60, 0
2, 9896, Note_on_c, 0, 41, 0
2, 9900, Note_on_c, 0, 62, 64
2, 9900, Note_on_c, 0, 71, 64
2, 9900, Note_on_c, 0, 55, 64
2, 9926, Note_on_c, 0, 71, 0
2, 9926, Note_on_c, 0, 62, 0
2, 9930, Note_on_c, 0, 72, 64
2, 9956, Note_on_c, 0, 55, 0
2, 9960, Note_on_c, 0, 40, 64
2, 9982, Note_on_c, 0, 72, 0
2, 9986, Note_on_c, 0, 40, 0
2, 9990, Note_on_c, 0, 64, 64
2, 9990, Note_on_c, 0, 55, 64
2, 10016, Note_on_c, 0, 64, 0
2, 10020, Note_on_c, 0, 76, 64
2, 10046, Note_on_c, 0, 55, 0
2, 10050, Note_on_c, 0, 36, 64
2, 10072, Note_on_c, 0, 76, 0
2, 10076, Note_on_c, 0, 36, 0
2, 10080, Note_on_c, 0, 67, 64
2, 10080, Note_on_c, 0, 52, 64
2, 10106, Note_on_c, 0, 67, 0
2, 10110, Note_on_c, 0, 70, 64
2, 10110, Note_on_c, 0, 79, 64
2, 10136, Note_on_c, 0, 52, 0
2, 10140, Note_on_c, 0, 36, 64
2, 10162, Note_on_c, 0, 79, 0
2, 10162, Note_on_c, 0, 70, 0
2, 10166, Note_on_c, 0, 36, 0
2, 10170, Note_on_c, 0, 67, 64
2, 10170, Note_on_c, 0, 70, 64
2, 10170, Note_on_c, 0, 52, 64
2, 10196, Note_on_c, 0, 70, 0
2, 10196, Note_on_c, 0, 67, 0
2, 10200, Note_on_c, 0, 79, 64
2, 10200, Note_on_c, 0, 69, 64
2, 10226, Note_on_c, 0, 52, 0
2, 10230, Note_on_c, 0, 37, 64
2, 10252, Note_on_c, 0, 69, 0
2, 10252, Note_on_c, 0, 79, 0
2, 10256, Note_on_c, 0, 37, 0
2, 10260, Note_on_c, 0, 69, 64
2, 10260, Note_on_c, 0, 67, 64
2, 10260, Note_on_c, 0, 52, 64
2, 10286, Note_on_c, 0, 67, 0
2, 10286, Note_on_c, 0, 69, 0
2, 10290, Note_on_c, 0, 77, 64
2, 10290, Note_on_c, 0, 69, 64
2, 10316, Note_on_c, 0, 52, 0
2, 10320, Note_on_c, 0, 38, 64
2, 10342, Note_on_c, 0, 69, 0
2, 10342, Note_on_c, 0, 77, 0
2, 10346, Note_on_c, 0, 38, 0
2, 10350, Note_on_c, 0, 69, 64
2, 10350, Note_on_c, 0, 69, 64
2, 10350, Note_on_c, 0, 53, 64
2, 10376, Note_on_c, 0, 69, 0
2, 10376, Note_on_c, 0, 69, 0
2, 10380, Note_on_c, 0, 74, 64
2, 10380, Note_on_c, 0, 69, 64
2, 10406, Note_on_c, 0, 53, 0
2, 10410, Note_on_c, 0, 42, 64
2, 10432, Note_on_c, 0, 69, 0
2, 10432, Note_on_c, 0, 74, 0
2, 10436, Note_on_c, 0, 42, 0
2, 10440, Note_on_c, 0, 72, 64
2, 10440, Note_on_c, 0, 66, 64
2, 10440, Note_on_c, 0, 57, 64
2, 10466, Note_on_c, 0, 57, 0
2, 10466, Note_on_c, 0, 66, 0
2, 10466, Note_on_c, 0, 72, 0
2, 10470, Note_on_c, 0, 72, 64
2, 10470, Note_on_c, 0, 62, 64
2, 10470, Note_on_c, 0, 65, 64
2, 10470, Note_on_c, 0, 56, 64
2, 10496, Note_on_c, 0, 56, 0
2, 10500, Note_on_c, 0, 43, 64
2, 10522, Note_on_c, 0, 72, 0
2, 10526, Note_on_c, 0, 43, 0
2, 10530, Note_on_c, 0, 71, 64
2, 10530, Note_on_c, 0, 55, 64
2, 10548, Note_on_c, 0, 65, 0
2, 10548, Note_on_c, 0, 62, 0
2, 10556, Note_on_c, 0, 71, 0
2, 10556, Note_on_c, 0, 55, 0
2, 10560, Note_on_c, 0, 72, 64
2, 10560, Note_on_c, 0, 62, 64
2, 10560, Note_on_c, 0, 65, 64
2, 10560, Note_on_c, 0, 57, 64
2, 10586, Note_on_c, 0, 57, 0
2, 10590, Note_on_c, 0, 43, 64
2, 10612, Note_on_c, 0, 72, 0
2, 10616, Note_on_c, 0, 43, 0
2, 10620, Note_on_c, 0, 73, 64
2, 10620, Note_on_c, 0, 58, 64
2, 10638, Note_on_c, 0, 65, 0
2, 10638, Note_on_c, 0, 62, 0
2, 10646, Note_on_c, 0, 73, 0
2, 10650, Note_on_c, 0, 73, 64
2, 10650, Note_on_c, 0, 62, 64
2, 10650, Note_on_c, 0, 65, 64
2, 10676, Note_on_c, 0, 65, 0
2, 10676, Note_on_c, 0, 58, 0
2, 10676, Note_on_c, 0, 73, 0
2, 10676, Note_on_c, 0, 62, 0
2, 10680, Note_on_c, 0, 67, 64
2, 10680, Note_on_c, 0, 74, 64
2, 10680, Note_on_c, 0, 62, 64
2, 10680, Note_on_c, 0, 65, 64
2, 10680, Note_on_c, 0, 59, 64
2, 10706, Note_on_c, 0, 59, 0
2, 10706, Note_on_c, 0, 62, 0
2, 10706, Note_on_c, 0, 67, 0
2, 10706, Note_on_c, 0, 74, 0
2, 10706, Note_on_c, 0, 65, 0
2, 10710, Note_on_c, 0, 67, 64
2, 10710, Note_on_c, 0, 62, 64
2, 10710, Note_on_c, 0, 65, 64
2, 10710, Note_on_c, 0, 59, 64
2, 10736, Note_on_c, 0, 59, 0
2, 10736, Note_on_c, 0, 67, 0
2, 10736, Note_on_c, 0, 62, 0
2, 10736, Note_on_c, 0, 65, 0
2, 10740, Note_on_c, 0, 67, 64
2, 10740, Note_on_c, 0, 62, 64
2, 10740, Note_on_c, 0, 65, 64
2, 10740, Note_on_c, 0, 59, 64
2, 10766, Note_on_c, 0, 59, 0
2, 10766, Note_on_c, 0, 65, 0
2, 10766, Note_on_c, 0, 62, 0
2, 10770, Note_on_c, 0, 64, 64
2, 10770, Note_on_c, 0, 60, 64
2, 10796, Note_on_c, 0, 60, 0
2, 10796, Note_on_c, 0, 64, 0
2, 10800, Note_on_c, 0, 62, 64
2, 10800, Note_on_c, 0, 53, 64
2, 10826, Note_on_c, 0, 53, 0
2, 10826, Note_on_c, 0, 62, 0
2, 10830, Note_on_c, 0, 60, 64
2, 10830, Note_on_c, 0, 52, 64
2, 10856, Note_on_c, 0, 52, 0
2, 10856, Note_on_c, 0, 60, 0
2, 10860, Note_on_c, 0, 62, 64
2, 10860, Note_on_c, 0, 53, 64
2, 10886, Note_on_c, 0, 53, 0
2, 10886, Note_on_c, 0, 62, 0
2, 10890, Note_on_c, 0, 59, 64
2, 10890, Note_on_c, 0, 50, 64
2, 10905, Note_on_c, 0, 67, 0
2, 10916, Note_on_c, 0, 50, 0
2, 10916, Note_on_c, 0, 59, 0
2, 10920, Note_on_c, 0, 72, 64
2, 10920, Note_on_c, 0, 52, 64
2, 10946, Note_on_c, 0, 52, 0
2, 10950, Note_on_c, 0, 48, 64
2, 10972, Note_on_c, 0, 72, 0
2, 10976, Note_on_c, 0, 48, 0
2, 10980, Note_on_c, 0, 64, 64
2, 10980, Note_on_c, 0, 55, 64
2, 11006, Note_on_c, 0, 64, 0
2, 11010, Note_on_c, 0, 69, 64
2, 11036, Note_on_c, 0, 55, 0
2, 11040, Note_on_c, 0, 49, 64
2, 11062, Note_on_c, 0, 69, 0
2, 11066, Note_on_c, 0, 49, 0
2, 11070, Note_on_c, 0, 64, 64
2, 11070, Note_on_c, 0, 55, 64
2, 11096, Note_on_c, 0, 64, 0
2, 11100, Note_on_c, 0, 67, 64
2, 11126, Note_on_c, 0, 55, 0
2, 11130, Note_on_c, 0, 50, 64
2, 11152, Note_on_c, 0, 67, 0
2, 11156, Note_on_c, 0, 50, 0
2, 11160, Note_on_c, 0, 65, 64
2, 11160, Note_on_c, 0, 55, 64
2, 11186, Note_on_c, 0, 65, 0
2, 11190, Note_on_c, 0, 74, 64
2, 11216, Note_on_c, 0, 55, 0
2, 11220, Note_on_c, 0, 46, 64
2, 11242, Note_on_c, 0, 74, 0
2, 11246, Note_on_c, 0, 46, 0
2, 11250, Note_on_c, 0, 62, 64
2, 11250, Note_on_c, 0, 55, 64
2, 11276, Note_on_c, 0, 62, 0
2, 11280, Note_on_c, 0, 67, 64
2, 11306, Note_on_c, 0, 55, 0
2, 11310, Note_on_c, 0, 47, 64
2, 11332, Note_on_c, 0, 67, 0
2, 11336, Note_on_c, 0, 47, 0
2, 11340, Note_on_c, 0, 62, 64
2, 11340, Note_on_c, 0, 55, 64
2, 11366, Note_on_c, 0, 62, 0
2, 11370, Note_on_c, 0, 65, 64
2, 11396, Note_on_c, 0, 55, 0
2, 11400, Note_on_c, 0, 48, 64
2, 11422, Note_on_c, 0, 65, 0
2, 11426, Note_on_c, 0, 48, 0
2, 11430, Note_on_c, 0, 64, 64
2, 11430, Note_on_c, 0, 55, 64
2, 11456, Note_on_c, 0, 55, 0
2, 11456, Note_on_c, 0, 64, 0
2, 11460, Note_on_c, 0, 67, 64
2, 11460, Note_on_c, 0, 52, 64
2, 11486, Note_on_c, 0, 52, 0
2, 11490, Note_on_c, 0, 50, 64
2, 11512, Note_on_c, 0, 67, 0
2, 11516, Note_on_c, 0, 50, 0
2, 11520, Note_on_c, 0, 65, 64
2, 11520, Note_on_c, 0, 55, 64
2, 11546, Note_on_c, 0, 65, 0
2, 11550, Note_on_c, 0, 69, 64
2, 11576, Note_on_c, 0, 55, 0
2, 11580, Note_on_c, 0, 51, 64
2, 11602, Note_on_c, 0, 69, 0
2, 11606, Note_on_c, 0, 51, 0
2, 11610, Note_on_c, 0, 67, 64
2, 11610, Note_on_c, 0, 52, 64
2, 11636, Note_on_c, 0, 52, 0
2, 11636, Note_on_c, 0, 67, 0
2, 11640, Note_on_c, 0, 76, 64
2, 11640, Note_on_c, 0, 55, 64
2, 11666, Note_on_c, 0, 55, 0
2, 11670, Note_on_c, 0, 48, 64
2, 11692, Note_on_c, 0, 76, 0
2, 11696, Note_on_c, 0, 48, 0
2, 11700, Note_on_c, 0, 64, 64
2, 11700, Note_on_c, 0, 55, 64
2, 11726, Note_on_c, 0, 64, 0
2, 11730, Note_on_c, 0, 72, 64
2, 11756, Note_on_c, 0, 55, 0
2, 11760, Note_on_c, 0, 52, 64
2, 11782, Note_on_c, 0, 72, 0
2, 11786, Note_on_c, 0, 52, 0
2, 11790, Note_on_c, 0, 64, 64
2, 11790, Note_on_c, 0, 55, 64
2, 11816, Note_on_c, 0, 64, 0
2, 11820, Note_on_c, 0, 63, 64
2, 11820, Note_on_c, 0, 72, 64
2, 11846, Note_on_c, 0, 55, 0
2, 11850, Note_on_c, 0, 42, 64
2, 11872, Note_on_c, 0, 72, 0
2, 11872, Note_on_c, 0, 63, 0
2, 11876, Note_on_c, 0, 42, 0
2, 11880, Note_on_c, 0, 62, 64
2, 11880, Note_on_c, 0, 71, 64
2, 11880, Note_on_c, 0, 55, 64
2, 11906, Note_on_c, 0, 71, 0
2, 11906, Note_on_c, 0, 62, 0
2, 11910, Note_on_c, 0, 60, 64
2, 11910, Note_on_c, 0, 69, 64
2, 11936, Note_on_c, 0, 55, 0
2, 11940, Note_on_c, 0, 43, 64
2, 11962, Note_on_c, 0, 69, 0
2, 11962, Note_on_c, 0, 60, 0
2, 11966, Note_on_c, 0, 43, 0
2, 11970, Note_on_c, 0, 59, 64
2, 11970, Note_on_c, 0, 67, 64
2, 11970, Note_on_c, 0, 55, 64
2, 11996, Note_on_c, 0, 67, 0
2, 11996, Note_on_c, 0, 59, 0
2, 12000, Note_on_c, 0, 60, 64
2, 12000, Note_on_c, 0, 69, 64
2, 12026, Note_on_c, 0, 55, 0
2, 12030, Note_on_c, 0, 41, 64
2, 12052, Note_on_c, 0, 69, 0
2, 12052, Note_on_c, 0, 60, 0
2, 12056, Note_on_c, 0, 41, 0
2, 12060, Note_on_c, 0, 62, 64
2, 12060, Note_on_c, 0, 71, 64
2, 12060, Note_on_c, 0, 55, 64
2, 12086, Note_on_c, 0, 71, 0
2, 12086, Note_on_c, 0, 62, 0
2, 12090, Note_on_c, 0, 72, 64
2, 12116, Note_on_c, 0, 55, 0
2, 12120, Note_on_c, 0, 40, 64
2, 12142, Note_on_c, 0, 72, 0
2, 12146, Note_on_c, 0, 40, 0
2, 12150, Note_on_c, 0, 64, 64
2, 12150, Note_on_c, 0, 55, 64
2, 12176, Note_on_c, 0, 64, 0
2, 12180, Note_on_c, 0, 76, 64
2, 12206, Note_on_c, 0, 55, 0
2, 12210, Note_on_c, 0, 36, 64
2, 12232, Note_on_c, 0, 76, 0
2, 12236, Note_on_c, 0, 36, 0
2, 12240, Note_on_c, 0, 67, 64
2, 12240, Note_on_c, 0, 52, 64
2, 12266, Note_on_c, 0, 67, 0
2, 12270, Note_on_c, 0, 70, 64
2, 12270, Note_on_c, 0, 79, 64
2, 12296, Note_on_c, 0, 52, 0
2, 12300, Note_on_c, 0, 36, 64
2, 12322, Note_on_c, 0, 79, 0
2, 12322, Note_on_c, 0, 70, 0
2, 12326, Note_on_c, 0, 36, 0
2, 12330, Note_on_c, 0, 67, 64
2, 12330, Note_on_c, 0, 70, 64
2, 12330, Note_on_c, 0, 52, 64
2, 12356, Note_on_c, 0, 70, 0
2, 12356, Note_on_c, 0, 67, 0
2, 12360, Note_on_c, 0, 79, 64
2, 12360, Note_on_c, 0, 69, 64
2, 12386, Note_on_c, 0, 52, 0
2, 12390, Note_on_c, 0, 37, 64
2, 12412, Note_on_c, 0, 69, 0
2, 12412, Note_on_c, 0, 79, 0
2, 12416, Note_on_c, 0, 37, 0
2, 12420, Note_on_c, 0, 69, 64
2, 12420, Note_on_c, 0, 67, 64
2, 12420, Note_on_c, 0, 52, 64
2, 12446, Note_on_c, 0, 67, 0
2, 12446, Note_on_c, 0, 69, 0
2, 12450, Note_on_c, 0, 77, 64
2, 12450, Note_on_c, 0, 69, 64
2, 12476, Note_on_c, 0, 52, 0
2, 12480, Note_on_c, 0, 38, 64
2, 12502, Note_on_c, 0, 69, 0
2, 12502, Note_on_c, 0, 77, 0
2, 12506, Note_on_c, 0, 38, 0
2, 12510, Note_on_c, 0, 69, 64
2, 12510, Note_on_c, 0, 69, 64
2, 12510, Note_on_c, 0, 53, 64
2, 12536, Note_on_c, 0, 69, 0
2, 12536, Note_on_c, 0, 69, 0
2, 12540, Note_on_c, 0, 74, 64
2, 12540, Note_on_c, 0, 69, 64
2, 12566, Note_on_c, 0, 53, 0
2, 12570, Note_on_c, 0, 42, 64
2, 12592, Note_on_c, 0, 69, 0
2, 12592, Note_on_c, 0, 74, 0
2, 12596, Note_on_c, 0, 42, 0
2, 12600, Note_on_c, 0, 72, 64
2, 12600, Note_on_c, 0, 66, 64
2, 12600, Note_on_c, 0, 57, 64
2, 12626, Note_on_c, 0, 57, 0
2, 12626, Note_on_c, 0, 66, 0
2, 12626, Note_on_c, 0, 72, 0
2, 12630, Note_on_c, 0, 72, 64
2, 12630, Note_on_c, 0, 62, 64
2, 12630, Note_on_c, 0, 65, 64
2, 12630, Note_on_c, 0, 56, 64
2, 12656, Note_on_c, 0, 56, 0
2, 12660, Note_on_c, 0, 43, 64
2, 12682, Note_on_c, 0, 72, 0
2, 12686, Note_on_c, 0, 43, 0
2, 12690, Note_on_c, 0, 71, 64
2, 12690, Note_on_c, 0, 55, 64
2, 12708, Note_on_c, 0, 65, 0
2, 12708, Note_on_c, 0, 62, 0
2, 12716, Note_on_c, 0, 71, 0
2, 12716, Note_on_c, 0, 55, 0
2, 12720, Note_on_c, 0, 72, 64
2, 12720, Note_on_c, 0, 62, 64
2, 12720, Note_on_c, 0, 65, 64
2, 12720, Note_on_c, 0, 57, 64
2, 12746, Note_on_c, 0, 57, 0
2, 12750, Note_on_c, 0, 43, 64
2, 12772, Note_on_c, 0, 72, 0
2, 12776, Note_on_c, 0, 43, 0
2, 12780, Note_on_c, 0, 73, 64
2, 12780, Note_on_c, 0, 58, 64
2, 12798, Note_on_c, 0, 65, 0
2, 12798, Note_on_c, 0, 62, 0
2, 12806, Note_on_c, 0, 73, 0
2, 12810, Note_on_c, 0, 73, 64
2, 12810, Note_on_c, 0, 62, 64
2, 12810, Note_on_c, 0, 65, 64
2, 12836, Note_on_c, 0, 65, 0
2, 12836, Note_on_c, 0, 58, 0
2, 12836, Note_on_c, 0, 73, 0
2, 12836, Note_on_c, 0, 62, 0
2, 12840, Note_on_c, 0, 67, 64
2, 12840, Note_on_c, 0, 74, 64
2, 12840, Note_on_c, 0, 62, 64
2, 12840, Note_on_c, 0, 65, 64
2, 12840, Note_on_c, 0, 59, 64
2, 12866, Note_on_c, 0, 59, 0
2, 12866, Note_on_c, 0, 62, 0
2, 12866, Note_on_c, 0, 67, 0
2, 12866, Note_on_c, 0, 74, 0
2, 12866, Note_on_c, 0, 65, 0
2, 12870, Note_on_c, 0, 67, 64
2, 12870, Note_on_c, 0, 62, 64
2, 12870, Note_on_c, 0, 65, 64
2, 12870, Note_on_c, 0, 59, 64
2, 12896, Note_on_c, 0, 59, 0
2, 12896, Note_on_c, 0, 67, 0
2, 12896, Note_on_c, 0, 62, 0
2, 12896, Note_on_c, 0, 65, 0
2, 12900, Note_on_c, 0, 67, 64
2, 12900, Note_on_c, 0, 59, 64
2, 12926, Note_on_c, 0, 59, 0
2, 12930, Note_on_c, 0, 60, 64
2, 12956, Note_on_c, 0, 60, 0
2, 12960, Note_on_c, 0, 62, 64
2, 12986, Note_on_c, 0, 62, 0
2, 12990, Note_on_c, 0, 60, 64
2, 13016, Note_on_c, 0, 60, 0
2, 13016, Note_on_c, 0, 67, 0
2, 13020, Note_on_c, 0, 68, 64
2, 13020, Note_on_c, 0, 59, 64
2, 13046, Note_on_c, 0, 59, 0
2, 13046, Note_on_c, 0, 68, 0
2, 13050, Note_on_c, 0, 69, 64
2, 13050, Note_on_c, 0, 57, 64
2, 13076, Note_on_c, 0, 57, 0
2, 13076, Note_on_c, 0, 69, 0
2, 13080, Note_on_c, 0, 71, 64
2, 13080, Note_on_c, 0, 56, 64
2, 13106, Note_on_c, 0, 56, 0
2, 13106, Note_on_c, 0, 71, 0
2, 13110, Note_on_c, 0, 64, 64
2, 13110, Note_on_c, 0, 57, 64
2, 13136, Note_on_c, 0, 57, 0
2, 13136, Note_on_c, 0, 64, 0
2, 13140, Note_on_c, 0, 64, 64
2, 13140, Note_on_c, 0, 59, 64
2, 13166, Note_on_c, 0, 59, 0
2, 13166, Note_on_c, 0, 64, 0
2, 13170, Note_on_c, 0, 72, 64
2, 13170, Note_on_c, 0, 57, 64
2, 13196, Note_on_c, 0, 57, 0
2, 13200, Note_on_c, 0, 45, 64
2, 13222, Note_on_c, 0, 72, 0
2, 13226, Note_on_c, 0, 45, 0
2, 13230, Note_on_c, 0, 64, 64
2, 13230, Note_on_c, 0, 52, 64
2, 13256, Note_on_c, 0, 64, 0
2, 13260, Note_on_c, 0, 65, 64
2, 13260, Note_on_c, 0, 59, 64
2, 13260, Note_on_c, 0, 62, 64
2, 13286, Note_on_c, 0, 52, 0
2, 13290, Note_on_c, 0, 44, 64
2, 13312, Note_on_c, 0, 65, 0
2, 13312, Note_on_c, 0, 62, 0
2, 13312, Note_on_c, 0, 59, 0
2, 13316, Note_on_c, 0, 44, 0
2, 13320, Note_on_c, 0, 64, 64
2, 13320, Note_on_c, 0, 52, 64
2, 13346, Note_on_c, 0, 52, 0
2, 13346, Note_on_c, 0, 64, 0
2, 13350, Note_on_c, 0, 72, 64
2, 13350, Note_on_c, 0, 52, 64
2, 13376, Note_on_c, 0, 52, 0
2, 13380, Note_on_c, 0, 45, 64
2, 13402, Note_on_c, 0, 72, 0
2, 13406, Note_on_c, 0, 45, 0
2, 13410, Note_on_c, 0, 64, 64
2, 13410, Note_on_c, 0, 52, 64
2, 13436, Note_on_c, 0, 64, 0
2, 13440, Note_on_c, 0, 71, 64
2, 13466, Note_on_c, 0, 52, 0
2, 13470, Note_on_c, 0, 44, 64
2, 13492, Note_on_c, 0, 71, 0
2, 13496, Note_on_c, 0, 44, 0
2, 13500, Note_on_c, 0, 59, 64
2, 13500, Note_on_c, 0, 64, 64
2, 13500, Note_on_c, 0, 52, 64
2, 13526, Note_on_c, 0, 64, 0
2, 13526, Note_on_c, 0, 59, 0
2, 13530, Note_on_c, 0, 60, 64
2, 13530, Note_on_c, 0, 64, 64
2, 13556, Note_on_c, 0, 64, 0
2, 13556, Note_on_c, 0, 60, 0
2, 13556, Note_on_c, 0, 52, 0
2, 13560, Note_on_c, 0, 72, 64
2, 13560, Note_on_c, 0, 45, 64
2, 13586, Note_on_c, 0, 45, 0
2, 13586, Note_on_c, 0, 72, 0
2, 13590, Note_on_c, 0, 71, 64
2, 13590, Note_on_c, 0, 52, 64
2, 13616, Note_on_c, 0, 71, 0
2, 13620, Note_on_c, 0, 72, 64
2, 13646, Note_on_c, 0, 72, 0
2, 13646, Note_on_c, 0, 52, 0
2, 13650, Note_on_c, 0, 71, 64
2, 13650, Note_on_c, 0, 44, 64
2, 13676, Note_on_c, 0, 44, 0
2, 13676, Note_on_c, 0, 71, 0
2, 13680, Note_on_c, 0, 71, 64
2, 13680, Note_on_c, 0, 76, 64
2, 13680, Note_on_c, 0, 56, 64
2, 13706, Note_on_c, 0, 76, 0
2, 13706, Note_on_c, 0, 71, 0
2, 13710, Note_on_c, 0, 56, 0
2, 13710, Note_on_c, 0, 71, 64
2, 13710, Note_on_c, 0, 77, 64
2, 13710, Note_on_c, 0, 55, 64
2, 13736, Note_on_c, 0, 55, 0
2, 13736, Note_on_c, 0, 71, 0
2, 13740, Note_on_c, 0, 71, 64
2, 13740, Note_on_c, 0, 56, 64
2, 13762, Note_on_c, 0, 77, 0
2, 13766, Note_on_c, 0, 56, 0
2, 13766, Note_on_c, 0, 71, 0
2, 13770, Note_on_c, 0, 72, 64
2, 13770, Note_on_c, 0, 76, 64
2, 13770, Note_on_c, 0, 57, 64
2, 13796, Note_on_c, 0, 76, 0
2, 13796, Note_on_c, 0, 72, 0
2, 13800, Note_on_c, 0, 72, 64
2, 13800, Note_on_c, 0, 76, 64
2, 13826, Note_on_c, 0, 76, 0
2, 13826, Note_on_c, 0, 72, 0
2, 13826, Note_on_c, 0, 57, 0
2, 13830, Note_on_c, 0, 68, 64
2, 13830, Note_on_c, 0, 74, 64
2, 13830, Note_on_c, 0, 57, 64
2, 13856, Note_on_c, 0, 57, 0
2, 13856, Note_on_c, 0, 74, 0
2, 13856, Note_on_c, 0, 68, 0
2, 13860, Note_on_c, 0, 68, 64
2, 13860, Note_on_c, 0, 74, 64
2, 13860, Note_on_c, 0, 59, 64
2, 13886, Note_on_c, 0, 74, 0
2, 13886, Note_on_c, 0, 68, 0
2, 13890, Note_on_c, 0, 69, 64
2, 13890, Note_on_c, 0, 72, 64
2, 13916, Note_on_c, 0, 72, 0
2, 13916, Note_on_c, 0, 69, 0
2, 13916, Note_on_c, 0, 59, 0
2, 13920, Note_on_c, 0, 69, 64
2, 13920, Note_on_c, 0, 72, 64
2, 13920, Note_on_c, 0, 60, 64
2, 13946, Note_on_c, 0, 60, 0
2, 13946, Note_on_c, 0, 72, 0
2, 13946, Note_on_c, 0, 69, 0
2, 13950, Note_on_c, 0, 62, 64
2, 13976, Note_on_c, 0, 62, 0
2, 13980, Note_on_c, 0, 69, 64
2, 13980, Note_on_c, 0, 72, 64
2, 13980, Note_on_c, 0, 63, 64
2, 14006, Note_on_c, 0, 72, 0
2, 14006, Note_on_c, 0, 69, 0
2, 14010, Note_on_c, 0, 63, 0
2, 14010, Note_on_c, 0, 68, 64
2, 14010, Note_on_c, 0, 71, 64
2, 14010, Note_on_c, 0, 64, 64
2, 14036, Note_on_c, 0, 64, 0
2, 14036, Note_on_c, 0, 71, 0
2, 14036, Note_on_c, 0, 68, 0
2, 14040, Note_on_c, 0, 68, 64
2, 14040, Note_on_c, 0, 71, 64
2, 14040, Note_on_c, 0, 64, 64
2, 14066, Note_on_c, 0, 71, 0
2, 14066, Note_on_c, 0, 68, 0
2, 14070, Note_on_c, 0, 68, 64
2, 14070, Note_on_c, 0, 71, 64
2, 14096, Note_on_c, 0, 71, 0
2, 14096, Note_on_c, 0, 68, 0
2, 14100, Note_on_c, 0, 64, 0
2, 14100, Note_on_c, 0, 64, 64
2, 14100, Note_on_c, 0, 72, 64
2, 14100, Note_on_c, 0, 57, 64
2, 14126, Note_on_c, 0, 57, 0
2, 14126, Note_on_c, 0, 72, 0
2, 14126, Note_on_c, 0, 64, 0
2, 14130, Note_on_c, 0, 64, 64
2, 14130, Note_on_c, 0, 72, 64
2, 14130, Note_on_c, 0, 57, 64
2, 14156, Note_on_c, 0, 72, 0
2, 14156, Note_on_c, 0, 64, 0
2, 14160, Note_on_c, 0, 64, 64
2, 14160, Note_on_c, 0, 72, 64
2, 14186, Note_on_c, 0, 72, 0
2, 14186, Note_on_c, 0, 64, 0
2, 14186, Note_on_c, 0, 57, 0
2, 14190, Note_on_c, 0, 71, 64
2, 14190, Note_on_c, 0, 74, 64
2, 14190, Note_on_c, 0, 55, 64
2, 14216, Note_on_c, 0, 55, 0
2, 14216, Note_on_c, 0, 74, 0
2, 14216, Note_on_c, 0, 71, 0
2, 14220, Note_on_c, 0, 71, 64
2, 14220, Note_on_c, 0, 74, 64
2, 14220, Note_on_c, 0, 55, 64
2, 14246, Note_on_c, 0, 74, 0
2, 14246, Note_on_c, 0, 71, 0
2, 14250, Note_on_c, 0, 74, 64
2, 14250, Note_on_c, 0, 71, 64
2, 14276, Note_on_c, 0, 55, 0
2, 14280, Note_on_c, 0, 43, 64
2, 14302, Note_on_c, 0, 71, 0
2, 14306, Note_on_c, 0, 43, 0
2, 14310, Note_on_c, 0, 65, 64
2, 14310, Note_on_c, 0, 55, 64
2, 14336, Note_on_c, 0, 65, 0
2, 14340, Note_on_c, 0, 64, 64
2, 14366, Note_on_c, 0, 55, 0
2, 14370, Note_on_c, 0, 43, 64
2, 14392, Note_on_c, 0, 64, 0
2, 14396, Note_on_c, 0, 43, 0
2, 14400, Note_on_c, 0, 65, 64
2, 14400, Note_on_c, 0, 55, 64
2, 14415, Note_on_c, 0, 74, 0
2, 14426, Note_on_c, 0, 65, 0
2, 14430, Note_on_c, 0, 75, 64
2, 14430, Note_on_c, 0, 71, 64
2, 14456, Note_on_c, 0, 55, 0
2, 14460, Note_on_c, 0, 43, 64
2, 14482, Note_on_c, 0, 71, 0
2, 14486, Note_on_c, 0, 43, 0
2, 14490, Note_on_c, 0, 65, 64
2, 14490, Note_on_c, 0, 55, 64
2, 14508, Note_on_c, 0, 75, 0
2, 14516, Note_on_c, 0, 65, 0
2, 14520, Note_on_c, 0, 76, 64
2, 14520, Note_on_c, 0, 70, 64
2, 14546, Note_on_c, 0, 55, 0
2, 14550, Note_on_c, 0, 36, 64
2, 14572, Note_on_c, 0, 70, 0
2, 14576, Note_on_c, 0, 36, 0
2, 14580, Note_on_c, 0, 64, 64
2, 14580, Note_on_c, 0, 52, 64
2, 14598, Note_on_c, 0, 76, 0
2, 14606, Note_on_c, 0, 64, 0
2, 14610, Note_on_c, 0, 76, 64
2, 14610, Note_on_c, 0, 67, 64
2, 14610, Note_on_c, 0, 70, 64
2, 14636, Note_on_c, 0, 52, 0
2, 14640, Note_on_c, 0, 36, 64
2, 14662, Note_on_c, 0, 76, 0
2, 14662, Note_on_c, 0, 70, 0
2, 14662, Note_on_c, 0, 67, 0
2, 14666, Note_on_c, 0, 36, 0
2, 14670, Note_on_c, 0, 79, 64
2, 14670, Note_on_c, 0, 70, 64
2, 14670, Note_on_c, 0, 76, 64
2, 14670, Note_on_c, 0, 52, 64
2, 14696, Note_on_c, 0, 76, 0
2, 14696, Note_on_c, 0, 79, 0
2, 14696, Note_on_c, 0, 70, 0
2, 14700, Note_on_c, 0, 79, 64
2, 14700, Note_on_c, 0, 69, 64
2, 14726, Note_on_c, 0, 52, 0
2, 14730, Note_on_c, 0, 29, 64
2, 14752, Note_on_c, 0, 79, 0
2, 14756, Note_on_c, 0, 29, 0
2, 14760, Note_on_c, 0, 77, 64
2, 14760, Note_on_c, 0, 41, 64
2, 14778, Note_on_c, 0, 69, 0
2, 14786, Note_on_c, 0, 41, 0
2, 14786, Note_on_c, 0, 77, 0
2, 14790, Note_on_c, 0, 76, 64
2, 14790, Note_on_c, 0, 65, 64
2, 14790, Note_on_c, 0, 71, 64
2, 14790, Note_on_c, 0, 43, 64
2, 14816, Note_on_c, 0, 43, 0
2, 14820, Note_on_c, 0, 31, 64
2, 14842, Note_on_c, 0, 76, 0
2, 14846, Note_on_c, 0, 31, 0
2, 14850, Note_on_c, 0, 74, 64
2, 14850, Note_on_c, 0, 43, 64
2, 14868, Note_on_c, 0, 71, 0
2, 14868, Note_on_c, 0, 65, 0
2, 14876, Note_on_c, 0, 74, 0
2, 14880, Note_on_c, 0, 73, 64
2, 14880, Note_on_c, 0, 65, 64
2, 14880, Note_on_c, 0, 71, 64
2, 14906, Note_on_c, 0, 43, 0
2, 14910, Note_on_c, 0, 31, 64
2, 14932, Note_on_c, 0, 73, 0
2, 14936, Note_on_c, 0, 31, 0
2, 14940, Note_on_c, 0, 74, 64
2, 14940, Note_on_c, 0, 43, 64
2, 14958, Note_on_c, 0, 65, 0
2, 14958, Note_on_c, 0, 71, 0
2, 14966, Note_on_c, 0, 74, 0
2, 14970, Note_on_c, 0, 74, 64
2, 14970, Note_on_c, 0, 71, 64
2, 14996, Note_on_c, 0, 74, 0
2, 14996, Note_on_c, 0, 43, 0
2, 15000, Note_on_c, 0, 81, 64
2, 15000, Note_on_c, 0, 31, 64
2, 15022, Note_on_c, 0, 71, 0
2, 15026, Note_on_c, 0, 31, 0
2, 15026, Note_on_c, 0, 81, 0
2, 15030, Note_on_c, 0, 79, 64
2, 15030, Note_on_c, 0, 74, 64
2, 15030, Note_on_c, 0, 47, 64
2, 15056, Note_on_c, 0, 47, 0
2, 15056, Note_on_c, 0, 74, 0
2, 15056, Note_on_c, 0, 79, 0
2, 15060, Note_on_c, 0, 74, 64
2, 15060, Note_on_c, 0, 79, 64
2, 15060, Note_on_c, 0, 47, 64
2, 15060, Note_on_c, 0, 47, 64
2, 15086, Note_on_c, 0, 47, 0
2, 15086, Note_on_c, 0, 74, 0
2, 15086, Note_on_c, 0, 79, 0
2, 15086, Note_on_c, 0, 47, 0
2, 15090, Note_on_c, 0, 71, 64
2, 15090, Note_on_c, 0, 77, 64
2, 15090, Note_on_c, 0, 55, 64
2, 15090, Note_on_c, 0, 43, 64
2, 15116, Note_on_c, 0, 43, 0
2, 15116, Note_on_c, 0, 71, 0
2, 15116, Note_on_c, 0, 77, 0
2, 15116, Note_on_c, 0, 55, 0
2, 15120, Note_on_c, 0, 72, 64
2, 15120, Note_on_c, 0, 76, 64
2, 15120, Note_on_c, 0, 55, 64
2, 15120, Note_on_c, 0, 48, 64
2, 15146, Note_on_c, 0, 55, 0
2, 15146, Note_on_c, 0, 72, 0
2, 15146, Note_on_c, 0, 76, 0
2, 15150, Note_on_c, 0, 72, 64
2, 15150, Note_on_c, 0, 77, 64
2, 15150, Note_on_c, 0, 57, 64
2, 15176, Note_on_c, 0, 57, 0
2, 15176, Note_on_c, 0, 77, 0
2, 15176, Note_on_c, 0, 72, 0
2, 15180, Note_on_c, 0, 72, 64
2, 15180, Note_on_c, 0, 76, 64
2, 15180, Note_on_c, 0, 55, 64
2, 15206, Note_on_c, 0, 55, 0
2, 15206, Note_on_c, 0, 48, 0
2, 15206, Note_on_c, 0, 72, 0
2, 15206, Note_on_c, 0, 76, 0
2, 15210, Note_on_c, 0, 64, 64
2, 15210, Note_on_c, 0, 50, 64
2, 15236, Note_on_c, 0, 50, 0
2, 15236, Note_on_c, 0, 64, 0
2, 15240, Note_on_c, 0, 65, 64
2, 15240, Note_on_c, 0, 53, 64
2, 15266, Note_on_c, 0, 53, 0
2, 15266, Note_on_c, 0, 65, 0
2, 15270, Note_on_c, 0, 64, 64
2, 15270, Note_on_c, 0, 52, 64
2, 15296, Note_on_c, 0, 52, 0
2, 15296, Note_on_c, 0, 64, 0
2, 15300, Note_on_c, 0, 64, 64
2, 15300, Note_on_c, 0, 52, 64
2, 15326, Note_on_c, 0, 64, 0
2, 15330, Note_on_c, 0, 72, 64
2, 15356, Note_on_c, 0, 52, 0
2, 15360, Note_on_c, 0, 45, 64
2, 15382, Note_on_c, 0, 72, 0
2, 15386, Note_on_c, 0, 45, 0
2, 15390, Note_on_c, 0, 60, 64
2, 15390, Note_on_c, 0, 64, 64
2, 15390, Note_on_c, 0, 52, 64
2, 15416, Note_on_c, 0, 64, 0
2, 15416, Note_on_c, 0, 60, 0
2, 15420, Note_on_c, 0, 65, 64
2, 15420, Note_on_c, 0, 59, 64
2, 15420, Note_on_c, 0, 62, 64
2, 15446, Note_on_c, 0, 52, 0
2, 15450, Note_on_c, 0, 44, 64
2, 15472, Note_on_c, 0, 65, 0
2, 15472, Note_on_c, 0, 62, 0
2, 15472, Note_on_c, 0, 59, 0
2, 15476, Note_on_c, 0, 44, 0
2, 15480, Note_on_c, 0, 64, 64
2, 15480, Note_on_c, 0, 52, 64
2, 15506, Note_on_c, 0, 52, 0
2, 15506, Note_on_c, 0, 64, 0
2, 15510, Note_on_c, 0, 72, 64
2, 15510, Note_on_c, 0, 52, 64
2, 15536, Note_on_c, 0, 52, 0
2, 15540, Note_on_c, 0, 45, 64
2, 15562, Note_on_c, 0, 72, 0
2, 15566, Note_on_c, 0, 45, 0
2, 15570, Note_on_c, 0, 64, 64
2, 15570, Note_on_c, 0, 52, 64
2, 15596, Note_on_c, 0, 64, 0
2, 15600, Note_on_c, 0, 71, 64
2, 15626, Note_on_c, 0, 52, 0
2, 15630, Note_on_c, 0, 44, 64
2, 15652, Note_on_c, 0, 71, 0
2, 15656, Note_on_c, 0, 44, 0
2, 15660, Note_on_c, 0, 59, 64
2, 15660, Note_on_c, 0, 64, 64
2, 15660, Note_on_c, 0, 52, 64
2, 15686, Note_on_c, 0, 64, 0
2, 15686, Note_on_c, 0, 59, 0
2, 15690, Note_on_c, 0, 60, 64
2, 15690, Note_on_c, 0, 64, 64
2, 15716, Note_on_c, 0, 64, 0
2, 15716, Note_on_c, 0, 60, 0
2, 15716, Note_on_c, 0, 52, 0
2, 15720, Note_on_c, 0, 72, 64
2, 15720, Note_on_c, 0, 45, 64
2, 15746, Note_on_c, 0, 45, 0
2, 15746, Note_on_c, 0, 72, 0
2, 15750, Note_on_c, 0, 71, 64
2, 15750, Note_on_c, 0, 52, 64
2, 15776, Note_on_c, 0, 71, 0
2, 15780, Note_on_c, 0, 72, 64
2, 15806, Note_on_c, 0, 72, 0
2, 15806, Note_on_c, 0, 52, 0
2, 15810, Note_on_c, 0, 71, 64
2, 15810, Note_on_c, 0, 44, 64
2, 15836, Note_on_c, 0, 44, 0
2, 15836, Note_on_c, 0, 71, 0
2, 15840, Note_on_c, 0, 71, 64
2, 15840, Note_on_c, 0, 76, 64
2, 15840, Note_on_c, 0, 56, 64
2, 15866, Note_on_c, 0, 76, 0
2, 15866, Note_on_c, 0, 71, 0
2, 15870, Note_on_c, 0, 56, 0
2, 15870, Note_on_c, 0, 71, 64
2, 15870, Note_on_c, 0, 77, 64
2, 15870, Note_on_c, 0, 55, 64
2, 15896, Note_on_c, 0, 55, 0
2, 15896, Note_on_c, 0, 71, 0
2, 15900, Note_on_c, 0, 71, 64
2, 15900, Note_on_c, 0, 56, 64
2, 15922, Note_on_c, 0, 77, 0
2, 15926, Note_on_c, 0, 56, 0
2, 15926, Note_on_c, 0, 71, 0
2, 15930, Note_on_c, 0, 72, 64
2, 15930, Note_on_c, 0, 76, 64
2, 15930, Note_on_c, 0, 57, 64
2, 15956, Note_on_c, 0, 76, 0
2, 15956, Note_on_c, 0, 72, 0
2, 15960, Note_on_c, 0, 72, 64
2, 15960, Note_on_c, 0, 76, 64
2, 15986, Note_on_c, 0, 76, 0
2, 15986, Note_on_c, 0, 72, 0
2, 15986, Note_on_c, 0, 57, 0
2, 15990, Note_on_c, 0, 68, 64
2, 15990, Note_on_c, 0, 74, 64
2, 15990, Note_on_c, 0, 57, 64
2, 16016, Note_on_c, 0, 57, 0
2, 16016, Note_on_c, 0, 74, 0
2, 16016, Note_on_c, 0, 68, 0
2, 16020, Note_on_c, 0, 68, 64
2, 16020, Note_on_c, 0, 74, 64
2, 16020, Note_on_c, 0, 59, 64
2, 16046, Note_on_c, 0, 74, 0
2, 16046, Note_on_c, 0, 68, 0
2, 16050, Note_on_c, 0, 69, 64
2, 16050, Note_on_c, 0, 72, 64
2, 16076, Note_on_c, 0, 72, 0
2, 16076, Note_on_c, 0, 69, 0
2, 16076, Note_on_c, 0, 59, 0
2, 16080, Note_on_c, 0, 69, 64
2, 16080, Note_on_c, 0, 72, 64
2, 16080, Note_on_c, 0, 60, 64
2, 16106, Note_on_c, 0, 60, 0
2, 16106, Note_on_c, 0, 72, 0
2, 16106, Note_on_c, 0, 69, 0
2, 16110, Note_on_c, 0, 62, 64
2, 16136, Note_on_c, 0, 62, 0
2, 16140, Note_on_c, 0, 69, 64
2, 16140, Note_on_c, 0, 72, 64
2, 16140, Note_on_c, 0, 63, 64
2, 16166, Note_on_c, 0, 72, 0
2, 16166, Note_on_c, 0, 69, 0
2, 16170, Note_on_c, 0, 63, 0
2, 16170, Note_on_c, 0, 68, 64
2, 16170, Note_on_c, 0, 71, 64
2, 16170, Note_on_c, 0, 64, 64
2, 16196, Note_on_c, 0, 64, 0
2, 16196, Note_on_c, 0, 71, 0
2, 16196, Note_on_c, 0, 68, 0
2, 16200, Note_on_c, 0, 68, 64
2, 16200, Note_on_c, 0, 71, 64
2, 16200, Note_on_c, 0, 64, 64
2, 16226, Note_on_c, 0, 71, 0
2, 16226, Note_on_c, 0, 68, 0
2, 16230, Note_on_c, 0, 68, 64
2, 16230, Note_on_c, 0, 71, 64
2, 16256, Note_on_c, 0, 71, 0
2, 16256, Note_on_c, 0, 68, 0
2, 16260, Note_on_c, 0, 64, 0
2, 16260, Note_on_c, 0, 64, 64
2, 16260, Note_on_c, 0, 72, 64
2, 16260, Note_on_c, 0, 57, 64
2, 16286, Note_on_c, 0, 57, 0
2, 16286, Note_on_c, 0, 72, 0
2, 16286, Note_on_c, 0, 64, 0
2, 16290, Note_on_c, 0, 64, 64
2, 16290, Note_on_c, 0, 72, 64
2, 16290, Note_on_c, 0, 57, 64
2, 16316, Note_on_c, 0, 72, 0
2, 16316, Note_on_c, 0, 64, 0
2, 16320, Note_on_c, 0, 64, 64
2, 16320, Note_on_c, 0, 72, 64
2, 16346, Note_on_c, 0, 72, 0
2, 16346, Note_on_c, 0, 64, 0
2, 16346, Note_on_c, 0, 57, 0
2, 16350, Note_on_c, 0, 71, 64
2, 16350, Note_on_c, 0, 74, 64
2, 16350, Note_on_c, 0, 55, 64
2, 16376, Note_on_c, 0, 55, 0
2, 16376, Note_on_c, 0, 74, 0
2, 16376, Note_on_c, 0, 71, 0
2, 16380, Note_on_c, 0, 71, 64
2, 16380, Note_on_c, 0, 74, 64
2, 16380, Note_on_c, 0, 55, 64
2, 16406, Note_on_c, 0, 74, 0
2, 16406, Note_on_c, 0, 71, 0
2, 16410, Note_on_c, 0, 74, 64
2, 16410, Note_on_c, 0, 71, 64
2, 16436, Note_on_c, 0, 55, 0
2, 16440, Note_on_c, 0, 43, 64
2, 16462, Note_on_c, 0, 71, 0
2, 16466, Note_on_c, 0, 43, 0
2, 16470, Note_on_c, 0, 65, 64
2, 16470, Note_on_c, 0, 55, 64
2, 16496, Note_on_c, 0, 65, 0
2, 16500, Note_on_c, 0, 64, 64
2, 16526, Note_on_c, 0, 55, 0
2, 16530, Note_on_c, 0, 43, 64
2, 16552, Note_on_c, 0, 64, 0
2, 16556, Note_on_c, 0, 43, 0
2, 16560, Note_on_c, 0, 65, 64
2, 16560, Note_on_c, 0, 55, 64
2, 16575, Note_on_c, 0, 74, 0
2, 16586, Note_on_c, 0, 65, 0
2, 16590, Note_on_c, 0, 75, 64
2, 16590, Note_on_c, 0, 71, 64
2, 16616, Note_on_c, 0, 55, 0
2, 16620, Note_on_c, 0, 43, 64
2, 16642, Note_on_c, 0, 71, 0
2, 16646, Note_on_c, 0, 43, 0
2, 16650, Note_on_c, 0, 65, 64
2, 16650, Note_on_c, 0, 55, 64
2, 16668, Note_on_c, 0, 75, 0
2, 16676, Note_on_c, 0, 65, 0
2, 16680, Note_on_c, 0, 76, 64
2, 16680, Note_on_c, 0, 70, 64
2, 16706, Note_on_c, 0, 55, 0
2, 16710, Note_on_c, 0, 36, 64
2, 16732, Note_on_c, 0, 70, 0
2, 16736, Note_on_c, 0, 36, 0
2, 16740, Note_on_c, 0, 64, 64
2, 16740, Note_on_c, 0, 52, 64
2, 16758, Note_on_c, 0, 76, 0
2, 16766, Note_on_c, 0, 64, 0
2, 16770, Note_on_c, 0, 76, 64
2, 16770, Note_on_c, 0, 67, 64
2, 16770, Note_on_c, 0, 70, 64
2, 16796, Note_on_c, 0, 52, 0
2, 16800, Note_on_c, 0, 36, 64
2, 16822, Note_on_c, 0, 76, 0
2, 16822, Note_on_c, 0, 70, 0
2, 16822, Note_on_c, 0, 67, 0
2, 16826, Note_on_c, 0, 36, 0
2, 16830, Note_on_c, 0, 79, 64
2, 16830, Note_on_c, 0, 70, 64
2, 16830, Note_on_c, 0, 76, 64
2, 16830, Note_on_c, 0, 52, 64
2, 16856, Note_on_c, 0, 76, 0
2, 16856, Note_on_c, 0, 79, 0
2, 16856, Note_on_c, 0, 70, 0
2, 16860, Note_on_c, 0, 79, 64
2, 16860, Note_on_c, 0, 69, 64
2, 16886, Note_on_c, 0, 52, 0
2, 16890, Note_on_c, 0, 29, 64
2, 16912, Note_on_c, 0, 79, 0
2, 16916, Note_on_c, 0, 29, 0
2, 16920, Note_on_c, 0, 77, 64
2, 16920, Note_on_c, 0, 41, 64
2, 16938, Note_on_c, 0, 69, 0
2, 16946, Note_on_c, 0, 41, 0
2, 16946, Note_on_c, 0, 77, 0
2, 16950, Note_on_c, 0, 76, 64
2, 16950, Note_on_c, 0, 65, 64
2, 16950, Note_on_c, 0, 71, 64
2, 16950, Note_on_c, 0, 43, 64
2, 16976, Note_on_c, 0, 43, 0
2, 16980, Note_on_c, 0, 31, 64
2, 17002, Note_on_c, 0, 76, 0
2, 17006, Note_on_c, 0, 31, 0
2, 17010, Note_on_c, 0, 74, 64
2, 17010, Note_on_c, 0, 43, 64
2, 17028, Note_on_c, 0, 71, 0
2, 17028, Note_on_c, 0, 65, 0
2, 17036, Note_on_c, 0, 74, 0
2, 17040, Note_on_c, 0, 73, 64
2, 17040, Note_on_c, 0, 65, 64
2, 17040, Note_on_c, 0, 71, 64
2, 17066, Note_on_c, 0, 43, 0
2, 17070, Note_on_c, 0, 31, 64
2, 17092, Note_on_c, 0, 73, 0
2, 17096, Note_on_c, 0, 31, 0
2, 17100, Note_on_c, 0, 74, 64
2, 17100, Note_on_c, 0, 43, 64
2, 17118, Note_on_c, 0, 65, 0
2, 17118, Note_on_c, 0, 71, 0
2, 17126, Note_on_c, 0, 74, 0
2, 17130, Note_on_c, 0, 74, 64
2, 17130, Note_on_c, 0, 71, 64
2, 17156, Note_on_c, 0, 74, 0
2, 17156, Note_on_c, 0, 43, 0
2, 17160, Note_on_c, 0, 81, 64
2, 17160, Note_on_c, 0, 31, 64
2, 17182, Note_on_c, 0, 71, 0
2, 17186, Note_on_c, 0, 31, 0
2, 17186, Note_on_c, 0, 81, 0
2, 17190, Note_on_c, 0, 79, 64
2, 17190, Note_on_c, 0, 74, 64
2, 17190, Note_on_c, 0, 47, 64
2, 17216, Note_on_c, 0, 47, 0
2, 17216, Note_on_c, 0, 74, 0
2, 17216, Note_on_c, 0, 79, 0
2, 17220, Note_on_c, 0, 74, 64
2, 17220, Note_on_c, 0, 79, 64
2, 17220, Note_on_c, 0, 47, 64
2, 17220, Note_on_c, 0, 47, 64
2, 17246, Note_on_c, 0, 47, 0
2, 17246, Note_on_c, 0, 74, 0
2, 17246, Note_on_c, 0, 79, 0
2, 17246, Note_on_c, 0, 47, 0
2, 17250, Note_on_c, 0, 71, 64
2, 17250, Note_on_c, 0, 77, 64
2, 17250, Note_on_c, 0, 55, 64
2, 17250, Note_on_c, 0, 43, 64
2, 17276, Note_on_c, 0, 43, 0
2, 17276, Note_on_c, 0, 71, 0
2, 17276, Note_on_c, 0, 77, 0
2, 17276, Note_on_c, 0, 55, 0
2, 17280, Note_on_c, 0, 72, 64
2, 17280, Note_on_c, 0, 76, 64
2, 17280, Note_on_c, 0, 55, 64
2, 17280, Note_on_c, 0, 48, 64
2, 17306, Note_on_c, 0, 55, 0
2, 17306, Note_on_c, 0, 76, 0
2, 17310, Note_on_c, 0, 77, 64
2, 17310, Note_on_c, 0, 57, 64
2, 17336, Note_on_c, 0, 57, 0
2, 17336, Note_on_c, 0, 77, 0
2, 17340, Note_on_c, 0, 76, 64
2, 17340, Note_on_c, 0, 55, 64
2, 17362, Note_on_c, 0, 48, 0
2, 17366, Note_on_c, 0, 72, 0
2, 17366, Note_on_c, 0, 76, 0
2, 17366, Note_on_c, 0, 55, 0
2, 17370, Note_on_c, 0, 72, 64
2, 17370, Note_on_c, 0, 76, 64
2, 17370, Note_on_c, 0, 55, 64
2, 17370, Note_on_c, 0, 48, 64
2, 17396, Note_on_c, 0, 55, 0
2, 17396, Note_on_c, 0, 72, 0
2, 17396, Note_on_c, 0, 76, 0
2, 17400, Note_on_c, 0, 60, 64
2, 17415, Note_on_c, 0, 55, 64
2, 17422, Note_on_c, 0, 48, 0
2, 17426, Note_on_c, 0, 60, 0
2, 17428, Note_on_c, 0, 55, 0
2, 17430, Note_on_c, 0, 54, 64
2, 17445, Note_on_c, 0, 55, 64
2, 17456, Note_on_c, 0, 54, 0
2, 17458, Note_on_c, 0, 55, 0
2, 17460, Note_on_c, 0, 67, 64
2, 17460, Note_on_c, 0, 76, 64
2, 17460, Note_on_c, 0, 55, 64
2, 17475, Note_on_c, 0, 72, 64
2, 17486, Note_on_c, 0, 55, 0
2, 17486, Note_on_c, 0, 67, 0
2, 17486, Note_on_c, 0, 76, 0
2, 17488, Note_on_c, 0, 72, 0
2, 17490, Note_on_c, 0, 62, 64
2, 17490, Note_on_c, 0, 71, 64
2, 17490, Note_on_c, 0, 55, 64
2, 17505, Note_on_c, 0, 72, 64
2, 17516, Note_on_c, 0, 55, 0
2, 17516, Note_on_c, 0, 62, 0
2, 17516, Note_on_c, 0, 71, 0
2, 17518, Note_on_c, 0, 72, 0
2, 17520, Note_on_c, 0, 65, 64
2, 17520, Note_on_c, 0, 74, 64
2, 17520, Note_on_c, 0, 55, 64
2, 17535, Note_on_c, 0, 71, 64
2, 17546, Note_on_c, 0, 55, 0
2, 17546, Note_on_c, 0, 65, 0
2, 17546, Note_on_c, 0, 74, 0
2, 17548, Note_on_c, 0, 71, 0
2, 17550, Note_on_c, 0, 61, 64
2, 17550, Note_on_c, 0, 70, 64
2, 17550, Note_on_c, 0, 55, 64
2, 17565, Note_on_c, 0, 71, 64
2, 17576, Note_on_c, 0, 55, 0
2, 17576, Note_on_c, 0, 61, 0
2, 17576, Note_on_c, 0, 70, 0
2, 17578, Note_on_c, 0, 71, 0
2, 17580, Note_on_c, 0, 50, 64
2, 17595, Note_on_c, 0, 43, 64
2, 17606, Note_on_c, 0, 50, 0
2, 17608, Note_on_c, 0, 43, 0
2, 17610, Note_on_c, 0, 42, 64
2, 17625, Note_on_c, 0, 43, 64
2, 17636, Note_on_c, 0, 42, 0
2, 17638, Note_on_c, 0, 43, 0
2, 17640, Note_on_c, 0, 53, 64
2, 17640, Note_on_c, 0, 45, 64
2, 17655, Note_on_c, 0, 50, 64
2, 17666, Note_on_c, 0, 45, 0
2, 17666, Note_on_c, 0, 53, 0
2, 17668, Note_on_c, 0, 50, 0
2, 17670, Note_on_c, 0, 49, 64
2, 17670, Note_on_c, 0, 47, 64
2, 17685, Note_on_c, 0, 50, 64
2, 17696, Note_on_c, 0, 49, 0
2, 17698, Note_on_c, 0, 50, 0
2, 17700, Note_on_c, 0, 67, 64
2, 17700, Note_on_c, 0, 67, 64
2, 17713, Note_on_c, 0, 67, 0
2, 17715, Note_on_c, 0, 64, 64
2, 17726, Note_on_c, 0, 67, 0
2, 17726, Note_on_c, 0, 47, 0
2, 17728, Note_on_c, 0, 64, 0
2, 17730, Note_on_c, 0, 63, 64
2, 17730, Note_on_c, 0, 48, 64
2, 17745, Note_on_c, 0, 64, 64
2, 17756, Note_on_c, 0, 48, 0
2, 17756, Note_on_c, 0, 63, 0
2, 17758, Note_on_c, 0, 64, 0
2, 17760, Note_on_c, 0, 67, 64
2, 17760, Note_on_c, 0, 49, 64
2, 17775, Note_on_c, 0, 64, 64
2, 17786, Note_on_c, 0, 49, 0
2, 17786, Note_on_c, 0, 67, 0
2, 17788, Note_on_c, 0, 64, 0
2, 17790, Note_on_c, 0, 67, 64
2, 17790, Note_on_c, 0, 50, 64
2, 17805, Note_on_c, 0, 65, 64
2, 17816, Note_on_c, 0, 50, 0
2, 17816, Note_on_c, 0, 67, 0
2, 17818, Note_on_c, 0, 65, 0
2, 17820, Note_on_c, 0, 69, 64
2, 17820, Note_on_c, 0, 51, 64
2, 17835, Note_on_c, 0, 65, 64
2, 17846, Note_on_c, 0, 51, 0
2, 17846, Note_on_c, 0, 69, 0
2, 17848, Note_on_c, 0, 65, 0
2, 17850, Note_on_c, 0, 69, 64
2, 17850, Note_on_c, 0, 52, 64
2, 17865, Note_on_c, 0, 67, 64
2, 17876, Note_on_c, 0, 52, 0
2, 17876, Note_on_c, 0, 69, 0
2, 17878, Note_on_c, 0, 67, 0
2, 17880, Note_on_c, 0, 67, 64
2, 17880, Note_on_c, 0, 76, 64
2, 17880, Note_on_c, 0, 50, 64
2, 17895, Note_on_c, 0, 47, 64
2, 17906, Note_on_c, 0, 50, 0
2, 17908, Note_on_c, 0, 47, 0
2, 17910, Note_on_c, 0, 50, 64
2, 17925, Note_on_c, 0, 48, 64
2, 17932, Note_on_c, 0, 76, 0
2, 17932, Note_on_c, 0, 67, 0
2, 17936, Note_on_c, 0, 50, 0
2, 17938, Note_on_c, 0, 48, 0
2, 17940, Note_on_c, 0, 67, 64
2, 17940, Note_on_c, 0, 72, 64
2, 17940, Note_on_c, 0, 53, 64
2, 17955, Note_on_c, 0, 51, 64
2, 17966, Note_on_c, 0, 53, 0
2, 17968, Note_on_c, 0, 51, 0
2, 17970, Note_on_c, 0, 53, 64
2, 17985, Note_on_c, 0, 52, 64
2, 17992, Note_on_c, 0, 72, 0
2, 17992, Note_on_c, 0, 67, 0
2, 17996, Note_on_c, 0, 53, 0
2, 17998, Note_on_c, 0, 52, 0
2, 18000, Note_on_c, 0, 72, 64
2, 18000, Note_on_c, 0, 55, 64
2, 18015, Note_on_c, 0, 71, 64
2, 18026, Note_on_c, 0, 72, 0
2, 18028, Note_on_c, 0, 71, 0
2, 18030, Note_on_c, 0, 74, 64
2, 18045, Note_on_c, 0, 72, 64
2, 18052, Note_on_c, 0, 55, 0
2, 18056, Note_on_c, 0, 74, 0
2, 18058, Note_on_c, 0, 72, 0
2, 18060, Note_on_c, 0, 72, 64
2, 18060, Note_on_c, 0, 43, 64
2, 18075, Note_on_c, 0, 69, 64
2, 18086, Note_on_c, 0, 72, 0
2, 18088, Note_on_c, 0, 69, 0
2, 18090, Note_on_c, 0, 72, 64
2, 18105, Note_on_c, 0, 71, 64
2, 18112, Note_on_c, 0, 43, 0
2, 18116, Note_on_c, 0, 72, 0
2, 18118, Note_on_c, 0, 71, 0
2, 18120, Note_on_c, 0, 62, 64
2, 18120, Note_on_c, 0, 67, 64
2, 18120, Note_on_c, 0, 71, 64
2, 18120, Note_on_c, 0, 41, 64
2, 18135, Note_on_c, 0, 40, 64
2, 18146, Note_on_c, 0, 41, 0
2, 18148, Note_on_c, 0, 40, 0
2, 18150, Note_on_c, 0, 43, 64
2, 18165, Note_on_c, 0, 41, 64
2, 18172, Note_on_c, 0, 62, 0
2, 18172, Note_on_c, 0, 71, 0
2, 18172, Note_on_c, 0, 67, 0
2, 18176, Note_on_c, 0, 43, 0
2, 18178, Note_on_c, 0, 41, 0
2, 18180, Note_on_c, 0, 72, 64
2, 18180, Note_on_c, 0, 67, 64
2, 18180, Note_on_c, 0, 40, 64
2, 18195, Note_on_c, 0, 38, 64
2, 18206, Note_on_c, 0, 40, 0
2, 18208, Note_on_c, 0, 38, 0
2, 18210, Note_on_c, 0, 41, 64
2, 18225, Note_on_c, 0, 40, 64
2, 18232, Note_on_c, 0, 67, 0
2, 18232, Note_on_c, 0, 72, 0
2, 18236, Note_on_c, 0, 41, 0
2, 18238, Note_on_c, 0, 40, 0
2, 18240, Note_on_c, 0, 64, 64
2, 18240, Note_on_c, 0, 76, 64
2, 18240, Note_on_c, 0, 36, 64
2, 18255, Note_on_c, 0, 74, 64
2, 18255, Note_on_c, 0, 35, 64
2, 18266, Note_on_c, 0, 36, 0
2, 18266, Note_on_c, 0, 64, 0
2, 18266, Note_on_c, 0, 76, 0
2, 18268, Note_on_c, 0, 74, 0
2, 18268, Note_on_c, 0, 35, 0
2, 18270, Note_on_c, 0, 67, 64
2, 18270, Note_on_c, 0, 77, 64
2, 18270, Note_on_c, 0, 38, 64
2, 18285, Note_on_c, 0, 76, 64
2, 18285, Note_on_c, 0, 36, 64
2, 18296, Note_on_c, 0, 38, 0
2, 18296, Note_on_c, 0, 67, 0
2, 18296, Note_on_c, 0, 77, 0
2, 18298, Note_on_c, 0, 76, 0
2, 18298, Note_on_c, 0, 36, 0
2, 18300, Note_on_c, 0, 74, 64
2, 18300, Note_on_c, 0, 79, 64
2, 18300, Note_on_c, 0, 34, 64
2, 18315, Note_on_c, 0, 73, 64
2, 18315, Note_on_c, 0, 33, 64
2, 18326, Note_on_c, 0, 34, 0
2, 18326, Note_on_c, 0, 74, 0
2, 18328, Note_on_c, 0, 33, 0
2, 18328, Note_on_c, 0, 73, 0
2, 18330, Note_on_c, 0, 76, 64
2, 18330, Note_on_c, 0, 36, 64
2, 18345, Note_on_c, 0, 74, 64
2, 18345, Note_on_c, 0, 34, 64
2, 18356, Note_on_c, 0, 36, 0
2, 18356, Note_on_c, 0, 76, 0
2, 18358, Note_on_c, 0, 34, 0
2, 18358, Note_on_c, 0, 74, 0
2, 18360, Note_on_c, 0, 73, 64
2, 18360, Note_on_c, 0, 33, 64
2, 18375, Note_on_c, 0, 71, 64
2, 18386, Note_on_c, 0, 33, 0
2, 18386, Note_on_c, 0, 79, 0
2, 18386, Note_on_c, 0, 73, 0
2, 18388, Note_on_c, 0, 71, 0
2, 18390, Note_on_c, 0, 74, 64
2, 18390, Note_on_c, 0, 79, 64
2, 18390, Note_on_c, 0, 45, 64
2, 18405, Note_on_c, 0, 73, 64
2, 18416, Note_on_c, 0, 45, 0
2, 18416, Note_on_c, 0, 74, 0
2, 18418, Note_on_c, 0, 73, 0
2, 18420, Note_on_c, 0, 69, 64
2, 18420, Note_on_c, 0, 38, 64
2, 18435, Note_on_c, 0, 76, 64
2, 18446, Note_on_c, 0, 38, 0
2, 18446, Note_on_c, 0, 79, 0
2, 18446, Note_on_c, 0, 69, 0
2, 18448, Note_on_c, 0, 76, 0
2, 18450, Note_on_c, 0, 69, 64
2, 18450, Note_on_c, 0, 79, 64
2, 18450, Note_on_c, 0, 50, 64
2, 18465, Note_on_c, 0, 77, 64
2, 18476, Note_on_c, 0, 50, 0
2, 18476, Note_on_c, 0, 79, 0
2, 18478, Note_on_c, 0, 77, 0
2, 18480, Note_on_c, 0, 76, 64
2, 18480, Note_on_c, 0, 41, 64
2, 18495, Note_on_c, 0, 73, 64
2, 18506, Note_on_c, 0, 41, 0
2, 18506, Note_on_c, 0, 69, 0
2, 18506, Note_on_c, 0, 76, 0
2, 18508, Note_on_c, 0, 73, 0
2, 18510, Note_on_c, 0, 69, 64
2, 18510, Note_on_c, 0, 76, 64
2, 18510, Note_on_c, 0, 42, 64
2, 18525, Note_on_c, 0, 74, 64
2, 18536, Note_on_c, 0, 76, 0
2, 18536, Note_on_c, 0, 69, 0
2, 18538, Note_on_c, 0, 74, 0
2, 18540, Note_on_c, 0, 42, 0
2, 18540, Note_on_c, 0, 72, 64
2, 18540, Note_on_c, 0, 69, 64
2, 18540, Note_on_c, 0, 41, 64
2, 18555, Note_on_c, 0, 41, 64
2, 18566, Note_on_c, 0, 41, 0
2, 18566, Note_on_c, 0, 72, 0
2, 18566, Note_on_c, 0, 69, 0
2, 18568, Note_on_c, 0, 41, 0
2, 18570, Note_on_c, 0, 71, 64
2, 18570, Note_on_c, 0, 62, 64
2, 18570, Note_on_c, 0, 45, 64
2, 18585, Note_on_c, 0, 43, 64
2, 18596, Note_on_c, 0, 45, 0
2, 18596, Note_on_c, 0, 71, 0
2, 18596, Note_on_c, 0, 62, 0
2, 18598, Note_on_c, 0, 43, 0
2, 18600, Note_on_c, 0, 67, 64
2, 18600, Note_on_c, 0, 72, 64
2, 18600, Note_on_c, 0, 45, 64
2, 18600, Note_on_c, 0, 43, 64
2, 18615, Note_on_c, 0, 64, 64
2, 18626, Note_on_c, 0, 45, 0
2, 18626, Note_on_c, 0, 67, 0
2, 18626, Note_on_c, 0, 72, 0
2, 18628, Note_on_c, 0, 64, 0
2, 18630, Note_on_c, 0, 67, 64
2, 18630, Note_on_c, 0, 73, 64
2, 18630, Note_on_c, 0, 46, 64
2, 18645, Note_on_c, 0, 65, 64
2, 18656, Note_on_c, 0, 46, 0
2, 18656, Note_on_c, 0, 73, 0
2, 18656, Note_on_c, 0, 67, 0
2, 18660, Note_on_c, 0, 74, 64
2, 18660, Note_on_c, 0, 46, 64
2, 18673, Note_on_c, 0, 65, 0
2, 18675, Note_on_c, 0, 62, 64
2, 18675, Note_on_c, 0, 65, 64
2, 18686, Note_on_c, 0, 43, 0
2, 18686, Note_on_c, 0, 46, 0
2, 18686, Note_on_c, 0, 74, 0
2, 18688, Note_on_c, 0, 62, 0
2, 18690, Note_on_c, 0, 68, 64
2, 18690, Note_on_c, 0, 74, 64
2, 18690, Note_on_c, 0, 47, 64
2, 18690, Note_on_c, 0, 43, 64
2, 18703, Note_on_c, 0, 65, 0
2, 18705, Note_on_c, 0, 62, 64
2, 18705, Note_on_c, 0, 65, 64
2, 18716, Note_on_c, 0, 68, 0
2, 18716, Note_on_c, 0, 74, 0
2, 18718, Note_on_c, 0, 62, 0
2, 18718, Note_on_c, 0, 65, 0
2, 18720, Note_on_c, 0, 65, 64
2, 18720, Note_on_c, 0, 67, 64
2, 18720, Note_on_c, 0, 62, 64
2, 18733, Note_on_c, 0, 62, 0
2, 18733, Note_on_c, 0, 47, 0
2, 18735, Note_on_c, 0, 62, 64
2, 18735, Note_on_c, 0, 47, 64
2, 18746, Note_on_c, 0, 43, 0
2, 18746, Note_on_c, 0, 67, 0
2, 18746, Note_on_c, 0, 65, 0
2, 18748, Note_on_c, 0, 62, 0
2, 18748, Note_on_c, 0, 47, 0
2, 18750, Note_on_c, 0, 59, 64
2, 18750, Note_on_c, 0, 67, 64
2, 18750, Note_on_c, 0, 50, 64
2, 18765, Note_on_c, 0, 60, 64
2, 18765, Note_on_c, 0, 52, 64
2, 18776, Note_on_c, 0, 50, 0
2, 18776, Note_on_c, 0, 59, 0
2, 18778, Note_on_c, 0, 52, 0
2, 18778, Note_on_c, 0, 60, 0
2, 18780, Note_on_c, 0, 62, 64
2, 18780, Note_on_c, 0, 53, 64
2, 18795, Note_on_c, 0, 60, 64
2, 18795, Note_on_c, 0, 52, 64
2, 18806, Note_on_c, 0, 53, 0
2, 18806, Note_on_c, 0, 67, 0
2, 18806, Note_on_c, 0, 62, 0
2, 18808, Note_on_c, 0, 60, 0
2, 18808, Note_on_c, 0, 52, 0
2, 18810, Note_on_c, 0, 65, 64
2, 18810, Note_on_c, 0, 67, 64
2, 18810, Note_on_c, 0, 50, 64
2, 18825, Note_on_c, 0, 64, 64
2, 18825, Note_on_c, 0, 48, 64
2, 18836, Note_on_c, 0, 50, 0
2, 18836, Note_on_c, 0, 65, 0
2, 18836, Note_on_c, 0, 67, 0
2, 18838, Note_on_c, 0, 64, 0
2, 18838, Note_on_c, 0, 48, 0
2, 18840, Note_on_c, 0, 60, 64
2, 18855, Note_on_c, 0, 55, 64
2, 18866, Note_on_c, 0, 60, 0
2, 18868, Note_on_c, 0, 55, 0
2, 18870, Note_on_c, 0, 54, 64
2, 18885, Note_on_c, 0, 55, 64
2, 18896, Note_on_c, 0, 54, 0
2, 18898, Note_on_c, 0, 55, 0
2, 18900, Note_on_c, 0, 67, 64
2, 18900, Note_on_c, 0, 76, 64
2, 18900, Note_on_c, 0, 55, 64
2, 18915, Note_on_c, 0, 72, 64
2, 18926, Note_on_c, 0, 55, 0
2, 18926, Note_on_c, 0, 67, 0
2, 18926, Note_on_c, 0, 76, 0
2, 18928, Note_on_c, 0, 72, 0
2, 18930, Note_on_c, 0, 62, 64
2, 18930, Note_on_c, 0, 71, 64
2, 18930, Note_on_c, 0, 55, 64
2, 18945, Note_on_c, 0, 72, 64
2, 18956, Note_on_c, 0, 55, 0
2, 18956, Note_on_c, 0, 62, 0
2, 18956, Note_on_c, 0, 71, 0
2, 18958, Note_on_c, 0, 72, 0
2, 18960, Note_on_c, 0, 65, 64
2, 18960, Note_on_c, 0, 74, 64
2, 18960, Note_on_c, 0, 55, 64
2, 18975, Note_on_c, 0, 71, 64
2, 18986, Note_on_c, 0, 55, 0
2, 18986, Note_on_c, 0, 65, 0
2, 18986, Note_on_c, 0, 74, 0
2, 18988, Note_on_c, 0, 71, 0
2, 18990, Note_on_c, 0, 61, 64
2, 18990, Note_on_c, 0, 70, 64
2, 18990, Note_on_c, 0, 55, 64
2, 19005, Note_on_c, 0, 71, 64
2, 19016, Note_on_c, 0, 55, 0
2, 19016, Note_on_c, 0, 61, 0
2, 19016, Note_on_c, 0, 70, 0
2, 19018, Note_on_c, 0, 71, 0
2, 19020, Note_on_c, 0, 50, 64
2, 19035, Note_on_c, 0, 43, 64
2, 19046, Note_on_c, 0, 50, 0
2, 19048, Note_on_c, 0, 43, 0
2, 19050, Note_on_c, 0, 42, 64
2, 19065, Note_on_c, 0, 43, 64
2, 19076, Note_on_c, 0, 42, 0
2, 19078, Note_on_c, 0, 43, 0
2, 19080, Note_on_c, 0, 53, 64
2, 19080, Note_on_c, 0, 45, 64
2, 19095, Note_on_c, 0, 50, 64
2, 19106, Note_on_c, 0, 45, 0
2, 19106, Note_on_c, 0, 53, 0
2, 19108, Note_on_c, 0, 50, 0
2, 19110, Note_on_c, 0, 49, 64
2, 19110, Note_on_c, 0, 47, 64
2, 19125, Note_on_c, 0, 50, 64
2, 19136, Note_on_c, 0, 49, 0
2, 19138, Note_on_c, 0, 50, 0
2, 19140, Note_on_c, 0, 67, 64
2, 19140, Note_on_c, 0, 67, 64
2, 19153, Note_on_c, 0, 67, 0
2, 19155, Note_on_c, 0, 64, 64
2, 19166, Note_on_c, 0, 67, 0
2, 19166, Note_on_c, 0, 47, 0
2, 19168, Note_on_c, 0, 64, 0
2, 19170, Note_on_c, 0, 63, 64
2, 19170, Note_on_c, 0, 48, 64
2, 19185, Note_on_c, 0, 64, 64
2, 19196, Note_on_c, 0, 48, 0
2, 19196, Note_on_c, 0, 63, 0
2, 19198, Note_on_c, 0, 64, 0
2, 19200, Note_on_c, 0, 67, 64
2, 19200, Note_on_c, 0, 49, 64
2, 19215, Note_on_c, 0, 64, 64
2, 19226, Note_on_c, 0, 49, 0
2, 19226, Note_on_c, 0, 67, 0
2, 19228, Note_on_c, 0, 64, 0
2, 19230, Note_on_c, 0, 67, 64
2, 19230, Note_on_c, 0, 50, 64
2, 19245, Note_on_c, 0, 65, 64
2, 19256, Note_on_c, 0, 50, 0
2, 19256, Note_on_c, 0, 67, 0
2, 19258, Note_on_c, 0, 65, 0
2, 19260, Note_on_c, 0, 69, 64
2, 19260, Note_on_c, 0, 51, 64
2, 19275, Note_on_c, 0, 65, 64
2, 19286, Note_on_c, 0, 51, 0
2, 19286, Note_on_c, 0, 69, 0
2, 19288, Note_on_c, 0, 65, 0
2, 19290, Note_on_c, 0, 69, 64
2, 19290, Note_on_c, 0, 52, 64
2, 19305, Note_on_c, 0, 67, 64
2, 19316, Note_on_c, 0, 52, 0
2, 19316, Note_on_c, 0, 69, 0
2, 19318, Note_on_c, 0, 67, 0
2, 19320, Note_on_c, 0, 67, 64
2, 19320, Note_on_c, 0, 76, 64
2, 19320, Note_on_c, 0, 50, 64
2, 19335, Note_on_c, 0, 47, 64
2, 19346, Note_on_c, 0, 50, 0
2, 19348, Note_on_c, 0, 47, 0
2, 19350, Note_on_c, 0, 50, 64
2, 19365, Note_on_c, 0, 48, 64
2, 19372, Note_on_c, 0, 76, 0
2, 19372, Note_on_c, 0, 67, 0
2, 19376, Note_on_c, 0, 50, 0
2, 19378, Note_on_c, 0, 48, 0
2, 19380, Note_on_c, 0, 67, 64
2, 19380, Note_on_c, 0, 72, 64
2, 19380, Note_on_c, 0, 53, 64
2, 19395, Note_on_c, 0, 51, 64
2, 19406, Note_on_c, 0, 53, 0
2, 19408, Note_on_c, 0, 51, 0
2, 19410, Note_on_c, 0, 53, 64
2, 19425, Note_on_c, 0, 52, 64
2, 19432, Note_on_c, 0, 72, 0
2, 19432, Note_on_c, 0, 67, 0
2, 19436, Note_on_c, 0, 53, 0
2, 19438, Note_on_c, 0, 52, 0
2, 19440, Note_on_c, 0, 72, 64
2, 19440, Note_on_c, 0, 55, 64
2, 19455, Note_on_c, 0, 71, 64
2, 19466, Note_on_c, 0, 72, 0
2, 19468, Note_on_c, 0, 71, 0
2, 19470, Note_on_c, 0, 74, 64
2, 19485, Note_on_c, 0, 72, 64
2, 19492, Note_on_c, 0, 55, 0
2, 19496, Note_on_c, 0, 74, 0
2, 19498, Note_on_c, 0, 72, 0
2, 19500, Note_on_c, 0, 72, 64
2, 19500, Note_on_c, 0, 43, 64
2, 19515, Note_on_c, 0, 69, 64
2, 19526, Note_on_c, 0, 72, 0
2, 19528, Note_on_c, 0, 69, 0
2, 19530, Note_on_c, 0, 72, 64
2, 19545, Note_on_c, 0, 71, 64
2, 19552, Note_on_c, 0, 43, 0
2, 19556, Note_on_c, 0, 72, 0
2, 19558, Note_on_c, 0, 71, 0
2, 19560, Note_on_c, 0, 62, 64
2, 19560, Note_on_c, 0, 67, 64
2, 19560, Note_on_c, 0, 71, 64
2, 19560, Note_on_c, 0, 41, 64
2, 19575, Note_on_c, 0, 40, 64
2, 19586, Note_on_c, 0, 41, 0
2, 19588, Note_on_c, 0, 40, 0
2, 19590, Note_on_c, 0, 43, 64
2, 19605, Note_on_c, 0, 41, 64
2, 19612, Note_on_c, 0, 62, 0
2, 19612, Note_on_c, 0, 71, 0
2, 19612, Note_on_c, 0, 67, 0
2, 19616, Note_on_c, 0, 43, 0
2, 19618, Note_on_c, 0, 41, 0
2, 19620, Note_on_c, 0, 72, 64
2, 19620, Note_on_c, 0, 67, 64
2, 19620, Note_on_c, 0, 40, 64
2, 19635, Note_on_c, 0, 38, 64
2, 19646, Note_on_c, 0, 40, 0
2, 19648, Note_on_c, 0, 38, 0
2, 19650, Note_on_c, 0, 41, 64
2, 19665, Note_on_c, 0, 40, 64
2, 19672, Note_on_c, 0, 67, 0
2, 19672, Note_on_c, 0, 72, 0
2, 19676, Note_on_c, 0, 41, 0
2, 19678, Note_on_c, 0, 40, 0
2, 19680, Note_on_c, 0, 64, 64
2, 19680, Note_on_c, 0, 76, 64
2, 19680, Note_on_c, 0, 36, 64
2, 19695, Note_on_c, 0, 74, 64
2, 19695, Note_on_c, 0, 35, 64
2, 19706, Note_on_c, 0, 36, 0
2, 19706, Note_on_c, 0, 64, 0
2, 19706, Note_on_c, 0, 76, 0
2, 19708, Note_on_c, 0, 74, 0
2, 19708, Note_on_c, 0, 35, 0
2, 19710, Note_on_c, 0, 67, 64
2, 19710, Note_on_c, 0, 77, 64
2, 19710, Note_on_c, 0, 38, 64
2, 19725, Note_on_c, 0, 76, 64
2, 19725, Note_on_c, 0, 36, 64
2, 19736, Note_on_c, 0, 38, 0
2, 19736, Note_on_c, 0, 67, 0
2, 19736, Note_on_c, 0, 77, 0
2, 19738, Note_on_c, 0, 76, 0
2, 19738, Note_on_c, 0, 36, 0
2, 19740, Note_on_c, 0, 74, 64
2, 19740, Note_on_c, 0, 79, 64
2, 19740, Note_on_c, 0, 34, 64
2, 19755, Note_on_c, 0, 73, 64
2, 19755, Note_on_c, 0, 33, 64
2, 19766, Note_on_c, 0, 34, 0
2, 19766, Note_on_c, 0, 74, 0
2, 19768, Note_on_c, 0, 33, 0
2, 19768, Note_on_c, 0, 73, 0
2, 19770, Note_on_c, 0, 76, 64
2, 19770, Note_on_c, 0, 36, 64
2, 19785, Note_on_c, 0, 74, 64
2, 19785, Note_on_c, 0, 34, 64
2, 19796, Note_on_c, 0, 36, 0
2, 19796, Note_on_c, 0, 76, 0
2, 19798, Note_on_c, 0, 34, 0
2, 19798, Note_on_c, 0, 74, 0
2, 19800, Note_on_c, 0, 73, 64
2, 19800, Note_on_c, 0, 33, 64
2, 19815, Note_on_c, 0, 71, 64
2, 19826, Note_on_c, 0, 33, 0
2, 19826, Note_on_c, 0, 79, 0
2, 19826, Note_on_c, 0, 73, 0
2, 19828, Note_on_c, 0, 71, 0
2, 19830, Note_on_c, 0, 74, 64
2, 19830, Note_on_c, 0, 79, 64
2, 19830, Note_on_c, 0, 45, 64
2, 19845, Note_on_c, 0, 73, 64
2, 19856, Note_on_c, 0, 45, 0
2, 19856, Note_on_c, 0, 74, 0
2, 19858, Note_on_c, 0, 73, 0
2, 19860, Note_on_c, 0, 69, 64
2, 19860, Note_on_c, 0, 38, 64
2, 19875, Note_on_c, 0, 76, 64
2, 19886, Note_on_c, 0, 38, 0
2, 19886, Note_on_c, 0, 79, 0
2, 19886, Note_on_c, 0, 69, 0
2, 19888, Note_on_c, 0, 76, 0
2, 19890, Note_on_c, 0, 69, 64
2, 19890, Note_on_c, 0, 79, 64
2, 19890, Note_on_c, 0, 50, 64
2, 19905, Note_on_c, 0, 77, 64
2, 19916, Note_on_c, 0, 50, 0
2, 19916, Note_on_c, 0, 79, 0
2, 19918, Note_on_c, 0, 77, 0
2, 19920, Note_on_c, 0, 76, 64
2, 19920, Note_on_c, 0, 41, 64
2, 19935, Note_on_c, 0, 73, 64
2, 19946, Note_on_c, 0, 41, 0
2, 19946, Note_on_c, 0, 69, 0
2, 19946, Note_on_c, 0, 76, 0
2, 19948, Note_on_c, 0, 73, 0
2, 19950, Note_on_c, 0, 69, 64
2, 19950, Note_on_c, 0, 76, 64
2, 19950, Note_on_c, 0, 42, 64
2, 19965, Note_on_c, 0, 74, 64
2, 19976, Note_on_c, 0, 76, 0
2, 19976, Note_on_c, 0, 69, 0
2, 19978, Note_on_c, 0, 74, 0
2, 19980, Note_on_c, 0, 42, 0
2, 19980, Note_on_c, 0, 72, 64
2, 19980, Note_on_c, 0, 69, 64
2, 19980, Note_on_c, 0, 41, 64
2, 19995, Note_on_c, 0, 41, 64
2, 20006, Note_on_c, 0, 41, 0
2, 20006, Note_on_c, 0, 72, 0
2, 20006, Note_on_c, 0, 69, 0
2, 20008, Note_on_c, 0, 41, 0
2, 20010, Note_on_c, 0, 71, 64
2, 20010, Note_on_c, 0, 62, 64
2, 20010, Note_on_c, 0, 45, 64
2, 20025, Note_on_c, 0, 43, 64
2, 20036, Note_on_c, 0, 45, 0
2, 20036, Note_on_c, 0, 71, 0
2, 20036, Note_on_c, 0, 62, 0
2, 20038, Note_on_c, 0, 43, 0
2, 20040, Note_on_c, 0, 67, 64
2, 20040, Note_on_c, 0, 72, 64
2, 20040, Note_on_c, 0, 45, 64
2, 20040, Note_on_c, 0, 43, 64
2, 20055, Note_on_c, 0, 64, 64
2, 20066, Note_on_c, 0, 45, 0
2, 20066, Note_on_c, 0, 67, 0
2, 20066, Note_on_c, 0, 72, 0
2, 20068, Note_on_c, 0, 64, 0
2, 20070, Note_on_c, 0, 67, 64
2, 20070, Note_on_c, 0, 73, 64
2, 20070, Note_on_c, 0, 46, 64
2, 20085, Note_on_c, 0, 65, 64
2, 20096, Note_on_c, 0, 46, 0
2, 20096, Note_on_c, 0, 73, 0
2, 20096, Note_on_c, 0, 67, 0
2, 20100, Note_on_c, 0, 74, 64
2, 20100, Note_on_c, 0, 46, 64
2, 20113, Note_on_c, 0, 65, 0
2, 20115, Note_on_c, 0, 62, 64
2, 20115, Note_on_c, 0, 65, 64
2, 20126, Note_on_c, 0, 43, 0
2, 20126, Note_on_c, 0, 46, 0
2, 20126, Note_on_c, 0, 74, 0
2, 20128, Note_on_c, 0, 62, 0
2, 20130, Note_on_c, 0, 68, 64
2, 20130, Note_on_c, 0, 74, 64
2, 20130, Note_on_c, 0, 47, 64
2, 20130, Note_on_c, 0, 43, 64
2, 20143, Note_on_c, 0, 65, 0
2, 20145, Note_on_c, 0, 62, 64
2, 20145, Note_on_c, 0, 65, 64
2, 20156, Note_on_c, 0, 68, 0
2, 20156, Note_on_c, 0, 74, 0
2, 20158, Note_on_c, 0, 62, 0
2, 20158, Note_on_c, 0, 65, 0
2, 20160, Note_on_c, 0, 47, 0
2, 20160, Note_on_c, 0, 43, 0
2, 20160, Note_on_c, 0, 62, 64
2, 20160, Note_on_c, 0, 65, 64
2, 20160, Note_on_c, 0, 67, 64
2, 20160, Note_on_c, 0, 43, 64
2, 20160, Note_on_c, 0, 47, 64
2, 20175, Note_on_c, 0, 62, 64
2, 20175, Note_on_c, 0, 47, 64
2, 20186, Note_on_c, 0, 47, 0
2, 20186, Note_on_c, 0, 43, 0
2, 20186, Note_on_c, 0, 65, 0
2, 20186, Note_on_c, 0, 67, 0
2, 20186, Note_on_c, 0, 62, 0
2, 20188, Note_on_c, 0, 62, 0
2, 20188, Note_on_c, 0, 47, 0
2, 20190, Note_on_c, 0, 59, 64
2, 20190, Note_on_c, 0, 65, 64
2, 20190, Note_on_c, 0, 67, 64
2, 20190, Note_on_c, 0, 50, 64
2, 20205, Note_on_c, 0, 60, 64
2, 20205, Note_on_c, 0, 64, 64
2, 20205, Note_on_c, 0, 48, 64
2, 20216, Note_on_c, 0, 50, 0
2, 20216, Note_on_c, 0, 65, 0
2, 20216, Note_on_c, 0, 59, 0
2, 20218, Note_on_c, 0, 60, 0
2, 20218, Note_on_c, 0, 64, 0
2, 20218, Note_on_c, 0, 48, 0
2, 20220, Note_on_c, 0, 64, 64
2, 20220, Note_on_c, 0, 48, 64
2, 20235, Note_on_c, 0, 62, 64
2, 20235, Note_on_c, 0, 64, 64
2, 20235, Note_on_c, 0, 68, 64
2, 20235, Note_on_c, 0, 47, 64
2, 20246, Note_on_c, 0, 64, 0
2, 20246, Note_on_c, 0, 48, 0
2, 20246, Note_on_c, 0, 67, 0
2, 20248, Note_on_c, 0, 62, 0
2, 20248, Note_on_c, 0, 47, 0
2, 20248, Note_on_c, 0, 68, 0
2, 20250, Note_on_c, 0, 60, 64
2, 20250, Note_on_c, 0, 69, 64
2, 20250, Note_on_c, 0, 45, 64
2, 20263, Note_on_c, 0, 64, 0
2, 20265, Note_on_c, 0, 59, 64
2, 20265, Note_on_c, 0, 64, 64
2, 20265, Note_on_c, 0, 71, 64
2, 20265, Note_on_c, 0, 44, 64
2, 20276, Note_on_c, 0, 60, 0
2, 20276, Note_on_c, 0, 45, 0
2, 20276, Note_on_c, 0, 69, 0
2, 20278, Note_on_c, 0, 64, 0
2, 20278, Note_on_c, 0, 71, 0
2, 20280, Note_on_c, 0, 64, 64
2, 20293, Note_on_c, 0, 59, 0
2, 20293, Note_on_c, 0, 44, 0
2, 20295, Note_on_c, 0, 59, 64
2, 20295, Note_on_c, 0, 62, 64
2, 20295, Note_on_c, 0, 64, 64
2, 20295, Note_on_c, 0, 44, 64
2, 20306, Note_on_c, 0, 64, 0
2, 20308, Note_on_c, 0, 62, 0
2, 20308, Note_on_c, 0, 44, 0
2, 20308, Note_on_c, 0, 59, 0
2, 20310, Note_on_c, 0, 57, 64
2, 20310, Note_on_c, 0, 60, 64
2, 20310, Note_on_c, 0, 45, 64
2, 20323, Note_on_c, 0, 64, 0
2, 20325, Note_on_c, 0, 56, 64
2, 20325, Note_on_c, 0, 62, 64
2, 20325, Note_on_c, 0, 64, 64
2, 20325, Note_on_c, 0, 47, 64
2, 20336, Note_on_c, 0, 57, 0
2, 20336, Note_on_c, 0, 45, 0
2, 20336, Note_on_c, 0, 60, 0
2, 20338, Note_on_c, 0, 62, 0
2, 20338, Note_on_c, 0, 56, 0
2, 20338, Note_on_c, 0, 64, 0
2, 20338, Note_on_c, 0, 47, 0
2, 20340, Note_on_c, 0, 60, 64
2, 20340, Note_on_c, 0, 72, 64
2, 20340, Note_on_c, 0, 45, 64
2, 20355, Note_on_c, 0, 63, 64
2, 20355, Note_on_c, 0, 51, 64
2, 20366, Note_on_c, 0, 60, 0
2, 20368, Note_on_c, 0, 63, 0
2, 20368, Note_on_c, 0, 51, 0
2, 20370, Note_on_c, 0, 64, 64
2, 20370, Note_on_c, 0, 52, 64
2, 20385, Note_on_c, 0, 71, 64
2, 20385, Note_on_c, 0, 44, 64
2, 20396, Note_on_c, 0, 45, 0
2, 20396, Note_on_c, 0, 72, 0
2, 20398, Note_on_c, 0, 71, 0
2, 20398, Note_on_c, 0, 44, 0
2, 20400, Note_on_c, 0, 72, 64
2, 20400, Note_on_c, 0, 45, 64
2, 20415, Note_on_c, 0, 63, 64
2, 20415, Note_on_c, 0, 51, 64
2, 20426, Note_on_c, 0, 52, 0
2, 20426, Note_on_c, 0, 64, 0
2, 20428, Note_on_c, 0, 63, 0
2, 20428, Note_on_c, 0, 51, 0
2, 20430, Note_on_c, 0, 64, 64
2, 20430, Note_on_c, 0, 52, 64
2, 20445, Note_on_c, 0, 71, 64
2, 20445, Note_on_c, 0, 44, 64
2, 20456, Note_on_c, 0, 45, 0
2, 20456, Note_on_c, 0, 72, 0
2, 20458, Note_on_c, 0, 71, 0
2, 20458, Note_on_c, 0, 44, 0
2, 20460, Note_on_c, 0, 72, 64
2, 20460, Note_on_c, 0, 45, 64
2, 20475, Note_on_c, 0, 63, 64
2, 20475, Note_on_c, 0, 51, 64
2, 20486, Note_on_c, 0, 52, 0
2, 20486, Note_on_c, 0, 64, 0
2, 20488, Note_on_c, 0, 63, 0
2, 20488, Note_on_c, 0, 51, 0
2, 20490, Note_on_c, 0, 64, 64
2, 20490, Note_on_c, 0, 52, 64
2, 20505, Note_on_c, 0, 71, 64
2, 20505, Note_on_c, 0, 44, 64
2, 20516, Note_on_c, 0, 45, 0
2, 20516, Note_on_c, 0, 72, 0
2, 20518, Note_on_c, 0, 71, 0
2, 20518, Note_on_c, 0, 44, 0
2, 20520, Note_on_c, 0, 71, 64
2, 20520, Note_on_c, 0, 44, 64
2, 20535, Note_on_c, 0, 65, 64
2, 20535, Note_on_c, 0, 53, 64
2, 20546, Note_on_c, 0, 52, 0
2, 20546, Note_on_c, 0, 64, 0
2, 20548, Note_on_c, 0, 65, 0
2, 20548, Note_on_c, 0, 53, 0
2, 20550, Note_on_c, 0, 64, 64
2, 20550, Note_on_c, 0, 52, 64
2, 20565, Note_on_c, 0, 72, 64
2, 20565, Note_on_c, 0, 45, 64
2, 20576, Note_on_c, 0, 44, 0
2, 20576, Note_on_c, 0, 71, 0
2, 20578, Note_on_c, 0, 72, 0
2, 20578, Note_on_c, 0, 45, 0
2, 20580, Note_on_c, 0, 71, 64
2, 20580, Note_on_c, 0, 44, 64
2, 20595, Note_on_c, 0, 65, 64
2, 20595, Note_on_c, 0, 53, 64
2, 20606, Note_on_c, 0, 52, 0
2, 20606, Note_on_c, 0, 64, 0
2, 20608, Note_on_c, 0, 65, 0
2, 20608, Note_on_c, 0, 53, 0
2, 20610, Note_on_c, 0, 64, 64
2, 20610, Note_on_c, 0, 52, 64
2, 20625, Note_on_c, 0, 72, 64
2, 20625, Note_on_c, 0, 45, 64
2, 20636, Note_on_c, 0, 44, 0
2, 20636, Note_on_c, 0, 71, 0
2, 20638, Note_on_c, 0, 72, 0
2, 20638, Note_on_c, 0, 45, 0
2, 20640, Note_on_c, 0, 71, 64
2, 20640, Note_on_c, 0, 44, 64
2, 20655, Note_on_c, 0, 65, 64
2, 20655, Note_on_c, 0, 53, 64
2, 20666, Note_on_c, 0, 52, 0
2, 20666, Note_on_c, 0, 64, 0
2, 20668, Note_on_c, 0, 65, 0
2, 20668, Note_on_c, 0, 53, 0
2, 20670, Note_on_c, 0, 64, 64
2, 20670, Note_on_c, 0, 52, 64
2, 20685, Note_on_c, 0, 76, 64
2, 20685, Note_on_c, 0, 43, 64
2, 20696, Note_on_c, 0, 52, 0
2, 20696, Note_on_c, 0, 64, 0
2, 20696, Note_on_c, 0, 71, 0
2, 20696, Note_on_c, 0, 44, 0
2, 20698, Note_on_c, 0, 76, 0
2, 20700, Note_on_c, 0, 71, 64
2, 20700, Note_on_c, 0, 76, 64
2, 20713, Note_on_c, 0, 43, 0
2, 20715, Note_on_c, 0, 32, 64
2, 20715, Note_on_c, 0, 44, 64
2, 20728, Note_on_c, 0, 44, 0
2, 20728, Note_on_c, 0, 32, 0
2, 20730, Note_on_c, 0, 33, 64
2, 20730, Note_on_c, 0, 45, 64
2, 20745, Note_on_c, 0, 72, 64
2, 20745, Note_on_c, 0, 76, 64
2, 20756, Note_on_c, 0, 76, 0
2, 20756, Note_on_c, 0, 71, 0
2, 20758, Note_on_c, 0, 76, 0
2, 20758, Note_on_c, 0, 72, 0
2, 20760, Note_on_c, 0, 72, 64
2, 20760, Note_on_c, 0, 76, 64
2, 20775, Note_on_c, 0, 33, 64
2, 20775, Note_on_c, 0, 45, 64
2, 20786, Note_on_c, 0, 45, 0
2, 20786, Note_on_c, 0, 33, 0
2, 20788, Note_on_c, 0, 45, 0
2, 20788, Note_on_c, 0, 33, 0
2, 20790, Note_on_c, 0, 35, 64
2, 20790, Note_on_c, 0, 47, 64
2, 20805, Note_on_c, 0, 68, 64
2, 20805, Note_on_c, 0, 71, 64
2, 20805, Note_on_c, 0, 74, 64
2, 20816, Note_on_c, 0, 47, 0
2, 20816, Note_on_c, 0, 35, 0
2, 20816, Note_on_c, 0, 76, 0
2, 20816, Note_on_c, 0, 72, 0
2, 20818, Note_on_c, 0, 74, 0
2, 20818, Note_on_c, 0, 68, 0
2, 20818, Note_on_c, 0, 71, 0
2, 20820, Note_on_c, 0, 64, 64
2, 20820, Note_on_c, 0, 71, 64
2, 20820, Note_on_c, 0, 74, 64
2, 20820, Note_on_c, 0, 36, 64
2, 20820, Note_on_c, 0, 48, 64
2, 20835, Note_on_c, 0, 65, 64
2, 20835, Note_on_c, 0, 69, 64
2, 20835, Note_on_c, 0, 72, 64
2, 20835, Note_on_c, 0, 38, 64
2, 20835, Note_on_c, 0, 50, 64
2, 20846, Note_on_c, 0, 48, 0
2, 20846, Note_on_c, 0, 36, 0
2, 20846, Note_on_c, 0, 64, 0
2, 20846, Note_on_c, 0, 74, 0
2, 20846, Note_on_c, 0, 71, 0
2, 20848, Note_on_c, 0, 65, 0
2, 20848, Note_on_c, 0, 38, 0
2, 20848, Note_on_c, 0, 50, 0
2, 20848, Note_on_c, 0, 69, 0
2, 20848, Note_on_c, 0, 72, 0
2, 20850, Note_on_c, 0, 66, 64
2, 20850, Note_on_c, 0, 69, 64
2, 20850, Note_on_c, 0, 72, 64
2, 20850, Note_on_c, 0, 39, 64
2, 20850, Note_on_c, 0, 51, 64
2, 20865, Note_on_c, 0, 59, 64
2, 20865, Note_on_c, 0, 68, 64
2, 20865, Note_on_c, 0, 71, 64
2, 20865, Note_on_c, 0, 40, 64
2, 20865, Note_on_c, 0, 52, 64
2, 20876, Note_on_c, 0, 51, 0
2, 20876, Note_on_c, 0, 39, 0
2, 20876, Note_on_c, 0, 66, 0
2, 20876, Note_on_c, 0, 72, 0
2, 20876, Note_on_c, 0, 69, 0
2, 20878, Note_on_c, 0, 59, 0
2, 20878, Note_on_c, 0, 40, 0
2, 20878, Note_on_c, 0, 52, 0
2, 20878, Note_on_c, 0, 68, 0
2, 20878, Note_on_c, 0, 71, 0
2, 20880, Note_on_c, 0, 59, 64
2, 20880, Note_on_c, 0, 68, 64
2, 20880, Note_on_c, 0, 71, 64
2, 20880, Note_on_c, 0, 40, 64
2, 20880, Note_on_c, 0, 52, 64
2, 20893, Note_on_c, 0, 52, 0
2, 20893, Note_on_c, 0, 71, 0
2, 20893, Note_on_c, 0, 59, 0
2, 20893, Note_on_c, 0, 68, 0
2, 20893, Note_on_c, 0, 40, 0
2, 20895, Note_on_c, 0, 59, 64
2, 20895, Note_on_c, 0, 68, 64
2, 20895, Note_on_c, 0, 71, 64
2, 20895, Note_on_c, 0, 40, 64
2, 20895, Note_on_c, 0, 52, 64
2, 20923, Note_on_c, 0, 52, 0
2, 20923, Note_on_c, 0, 71, 0
2, 20923, Note_on_c, 0, 59, 0
2, 20923, Note_on_c, 0, 68, 0
2, 20923, Note_on_c, 0, 40, 0
2, 20925, Note_on_c, 0, 59, 64
2, 20925, Note_on_c, 0, 68, 64
2, 20925, Note_on_c, 0, 71, 64
2, 20925, Note_on_c, 0, 40, 64
2, 20925, Note_on_c, 0, 52, 64
2, 20953, Note_on_c, 0, 52, 0
2, 20953, Note_on_c, 0, 71, 0
2, 20953, Note_on_c, 0, 59, 0
2, 20953, Note_on_c, 0, 68, 0
2, 20953, Note_on_c, 0, 40, 0
2, 20955, Note_on_c, 0, 60, 64
2, 20955, Note_on_c, 0, 69, 64
2, 20955, Note_on_c, 0, 72, 64
2, 20955, Note_on_c, 0, 33, 64
2, 20955, Note_on_c, 0, 45, 64
2, 20983, Note_on_c, 0, 45, 0
2, 20983, Note_on_c, 0, 72, 0
2, 20983, Note_on_c, 0, 60, 0
2, 20983, Note_on_c, 0, 69, 0
2, 20983, Note_on_c, 0, 33, 0
2, 20985, Note_on_c, 0, 60, 64
2, 20985, Note_on_c, 0, 69, 64
2, 20985, Note_on_c, 0, 72, 64
2, 20985, Note_on_c, 0, 33, 64
2, 20985, Note_on_c, 0, 45, 64
2, 21013, Note_on_c, 0, 45, 0
2, 21013, Note_on_c, 0, 72, 0
2, 21013, Note_on_c, 0, 60, 0
2, 21013, Note_on_c, 0, 69, 0
2, 21013, Note_on_c, 0, 33, 0
2, 21015, Note_on_c, 0, 62, 64
2, 21015, Note_on_c, 0, 71, 64
2, 21015, Note_on_c, 0, 74, 64
2, 21015, Note_on_c, 0, 31, 64
2, 21015, Note_on_c, 0, 43, 64
2, 21028, Note_on_c, 0, 74, 0
2, 21028, Note_on_c, 0, 62, 0
2, 21028, Note_on_c, 0, 71, 0
2, 21030, Note_on_c, 0, 62, 64
2, 21030, Note_on_c, 0, 71, 64
2, 21030, Note_on_c, 0, 74, 64
2, 21043, Note_on_c, 0, 74, 0
2, 21043, Note_on_c, 0, 62, 0
2, 21043, Note_on_c, 0, 43, 0
2, 21043, Note_on_c, 0, 31, 0
2, 21043, Note_on_c, 0, 71, 0
2, 21045, Note_on_c, 0, 74, 64
2, 21045, Note_on_c, 0, 83, 64
2, 21045, Note_on_c, 0, 86, 64
2, 21045, Note_on_c, 0, 31, 64
2, 21045, Note_on_c, 0, 43, 64
2, 21058, Note_on_c, 0, 43, 0
2, 21058, Note_on_c, 0, 86, 0
2, 21058, Note_on_c, 0, 74, 0
2, 21058, Note_on_c, 0, 83, 0
2, 21058, Note_on_c, 0, 31, 0
2, 21060, Note_on_c, 0, 83, 64
2, 21060, Note_on_c, 0, 86, 64
2, 21060, Note_on_c, 0, 74, 64
2, 21060, Note_on_c, 0, 31, 64
2, 21060, Note_on_c, 0, 43, 64
2, 21073, Note_on_c, 0, 74, 0
2, 21075, Note_on_c, 0, 74, 64
2, 21075, Note_on_c, 0, 65, 64
2, 21086, Note_on_c, 0, 31, 0
2, 21086, Note_on_c, 0, 43, 0
2, 21086, Note_on_c, 0, 83, 0
2, 21086, Note_on_c, 0, 86, 0
2, 21088, Note_on_c, 0, 65, 0
2, 21088, Note_on_c, 0, 74, 0
2, 21090, Note_on_c, 0, 73, 64
2, 21090, Note_on_c, 0, 55, 64
2, 21090, Note_on_c, 0, 64, 64
2, 21105, Note_on_c, 0, 74, 64
2, 21105, Note_on_c, 0, 65, 64
2, 21116, Note_on_c, 0, 64, 0
2, 21116, Note_on_c, 0, 73, 0
2, 21118, Note_on_c, 0, 65, 0
2, 21118, Note_on_c, 0, 74, 0
2, 21120, Note_on_c, 0, 74, 64
2, 21120, Note_on_c, 0, 65, 64
2, 21135, Note_on_c, 0, 71, 64
2, 21135, Note_on_c, 0, 62, 64
2, 21146, Note_on_c, 0, 65, 0
2, 21148, Note_on_c, 0, 71, 0
2, 21148, Note_on_c, 0, 62, 0
2, 21150, Note_on_c, 0, 70, 64
2, 21150, Note_on_c, 0, 61, 64
2, 21165, Note_on_c, 0, 71, 64
2, 21165, Note_on_c, 0, 62, 64
2, 21176, Note_on_c, 0, 61, 0
2, 21176, Note_on_c, 0, 70, 0
2, 21178, Note_on_c, 0, 71, 0
2, 21178, Note_on_c, 0, 62, 0
2, 21180, Note_on_c, 0, 67, 64
2, 21180, Note_on_c, 0, 59, 64
2, 21195, Note_on_c, 0, 75, 64
2, 21206, Note_on_c, 0, 59, 0
2, 21206, Note_on_c, 0, 67, 0
2, 21206, Note_on_c, 0, 74, 0
2, 21206, Note_on_c, 0, 55, 0
2, 21208, Note_on_c, 0, 75, 0
2, 21210, Note_on_c, 0, 67, 64
2, 21210, Note_on_c, 0, 77, 64
2, 21210, Note_on_c, 0, 55, 64
2, 21210, Note_on_c, 0, 62, 64
2, 21225, Note_on_c, 0, 76, 64
2, 21225, Note_on_c, 0, 60, 64
2, 21236, Note_on_c, 0, 62, 0
2, 21236, Note_on_c, 0, 77, 0
2, 21238, Note_on_c, 0, 76, 0
2, 21238, Note_on_c, 0, 60, 0
2, 21240, Note_on_c, 0, 76, 64
2, 21240, Note_on_c, 0, 60, 64
2, 21255, Note_on_c, 0, 72, 64
2, 21255, Note_on_c, 0, 64, 64
2, 21266, Note_on_c, 0, 60, 0
2, 21266, Note_on_c, 0, 67, 0
2, 21266, Note_on_c, 0, 55, 0
2, 21268, Note_on_c, 0, 72, 0
2, 21268, Note_on_c, 0, 64, 0
2, 21270, Note_on_c, 0, 71, 64
2, 21270, Note_on_c, 0, 60, 64
2, 21270, Note_on_c, 0, 62, 64
2, 21285, Note_on_c, 0, 72, 64
2, 21285, Note_on_c, 0, 64, 64
2, 21296, Note_on_c, 0, 62, 0
2, 21296, Note_on_c, 0, 71, 0
2, 21298, Note_on_c, 0, 72, 0
2, 21298, Note_on_c, 0, 64, 0
2, 21300, Note_on_c, 0, 72, 64
2, 21300, Note_on_c, 0, 64, 64
2, 21315, Note_on_c, 0, 70, 64
2, 21315, Note_on_c, 0, 67, 64
2, 21326, Note_on_c, 0, 64, 0
2, 21326, Note_on_c, 0, 72, 0
2, 21326, Note_on_c, 0, 60, 0
2, 21326, Note_on_c, 0, 76, 0
2, 21328, Note_on_c, 0, 67, 0
2, 21328, Note_on_c, 0, 70, 0
2, 21330, Note_on_c, 0, 69, 64
2, 21330, Note_on_c, 0, 76, 64
2, 21330, Note_on_c, 0, 60, 64
2, 21330, Note_on_c, 0, 66, 64
2, 21345, Note_on_c, 0, 70, 64
2, 21345, Note_on_c, 0, 67, 64
2, 21356, Note_on_c, 0, 66, 0
2, 21356, Note_on_c, 0, 69, 0
2, 21358, Note_on_c, 0, 70, 0
2, 21358, Note_on_c, 0, 67, 0
2, 21360, Note_on_c, 0, 70, 64
2, 21360, Note_on_c, 0, 67, 64
2, 21373, Note_on_c, 0, 67, 0
2, 21375, Note_on_c, 0, 76, 64
2, 21375, Note_on_c, 0, 67, 64
2, 21386, Note_on_c, 0, 76, 0
2, 21386, Note_on_c, 0, 70, 0
2, 21386, Note_on_c, 0, 60, 0
2, 21388, Note_on_c, 0, 76, 0
2, 21388, Note_on_c, 0, 67, 0
2, 21390, Note_on_c, 0, 70, 64
2, 21390, Note_on_c, 0, 79, 64
2, 21390, Note_on_c, 0, 53, 64
2, 21390, Note_on_c, 0, 64, 64
2, 21405, Note_on_c, 0, 69, 64
2, 21405, Note_on_c, 0, 77, 64
2, 21405, Note_on_c, 0, 65, 64
2, 21416, Note_on_c, 0, 64, 0
2, 21416, Note_on_c, 0, 53, 0
2, 21416, Note_on_c, 0, 70, 0
2, 21416, Note_on_c, 0, 79, 0
2, 21418, Note_on_c, 0, 65, 0
2, 21418, Note_on_c, 0, 69, 0
2, 21418, Note_on_c, 0, 77, 0
2, 21420, Note_on_c, 0, 69, 64
2, 21420, Note_on_c, 0, 74, 64
2, 21420, Note_on_c, 0, 54, 64
2, 21420, Note_on_c, 0, 60, 64
2, 21435, Note_on_c, 0, 72, 64
2, 21435, Note_on_c, 0, 78, 64
2, 21435, Note_on_c, 0, 57, 64
2, 21446, Note_on_c, 0, 60, 0
2, 21446, Note_on_c, 0, 54, 0
2, 21446, Note_on_c, 0, 69, 0
2, 21446, Note_on_c, 0, 74, 0
2, 21448, Note_on_c, 0, 57, 0
2, 21448, Note_on_c, 0, 72, 0
2, 21448, Note_on_c, 0, 78, 0
2, 21450, Note_on_c, 0, 74, 64
2, 21450, Note_on_c, 0, 81, 64
2, 21450, Note_on_c, 0, 54, 64
2, 21450, Note_on_c, 0, 60, 64
2, 21465, Note_on_c, 0, 79, 64
2, 21465, Note_on_c, 0, 55, 64
2, 21465, Note_on_c, 0, 59, 64
2, 21476, Note_on_c, 0, 60, 0
2, 21476, Note_on_c, 0, 54, 0
2, 21476, Note_on_c, 0, 81, 0
2, 21493, Note_on_c, 0, 59, 0
2, 21495, Note_on_c, 0, 75, 64
2, 21495, Note_on_c, 0, 59, 64
2, 21506, Note_on_c, 0, 74, 0
2, 21508, Note_on_c, 0, 75, 0
2, 21508, Note_on_c, 0, 79, 0
2, 21508, Note_on_c, 0, 55, 0
2, 21508, Note_on_c, 0, 59, 0
2, 21510, Note_on_c, 0, 76, 64
2, 21510, Note_on_c, 0, 81, 64
2, 21510, Note_on_c, 0, 55, 64
2, 21510, Note_on_c, 0, 60, 64
2, 21525, Note_on_c, 0, 79, 64
2, 21536, Note_on_c, 0, 60, 0
2, 21536, Note_on_c, 0, 81, 0
2, 21540, Note_on_c, 0, 60, 64
2, 21555, Note_on_c, 0, 77, 64
2, 21555, Note_on_c, 0, 62, 64
2, 21566, Note_on_c, 0, 60, 0
2, 21566, Note_on_c, 0, 76, 0
2, 21566, Note_on_c, 0, 55, 0
2, 21568, Note_on_c, 0, 79, 0
2, 21568, Note_on_c, 0, 77, 0
2, 21568, Note_on_c, 0, 62, 0
2, 21570, Note_on_c, 0, 71, 64
2, 21570, Note_on_c, 0, 77, 64
2, 21570, Note_on_c, 0, 81, 64
2, 21570, Note_on_c, 0, 55, 64
2, 21570, Note_on_c, 0, 62, 64
2, 21570, Note_on_c, 0, 65, 64
2, 21585, Note_on_c, 0, 71, 64
2, 21585, Note_on_c, 0, 74, 64
2, 21585, Note_on_c, 0, 79, 64
2, 21585, Note_on_c, 0, 55, 64
2, 21585, Note_on_c, 0, 62, 64
2, 21585, Note_on_c, 0, 65, 64
2, 21596, Note_on_c, 0, 65, 0
2, 21596, Note_on_c, 0, 55, 0
2, 21596, Note_on_c, 0, 71, 0
2, 21596, Note_on_c, 0, 62, 0
2, 21596, Note_on_c, 0, 81, 0
2, 21596, Note_on_c, 0, 77, 0
2, 21598, Note_on_c, 0, 62, 0
2, 21598, Note_on_c, 0, 55, 0
2, 21598, Note_on_c, 0, 65, 0
2, 21598, Note_on_c, 0, 74, 0
2, 21598, Note_on_c, 0, 71, 0
2, 21598, Note_on_c, 0, 79, 0
2, 21600, Note_on_c, 0, 71, 64
2, 21600, Note_on_c, 0, 74, 64
2, 21600, Note_on_c, 0, 79, 64
2, 21600, Note_on_c, 0, 55, 64
2, 21600, Note_on_c, 0, 62, 64
2, 21600, Note_on_c, 0, 65, 64
2, 21615, Note_on_c, 0, 71, 64
2, 21615, Note_on_c, 0, 43, 64
2, 21615, Note_on_c, 0, 55, 64
2, 21626, Note_on_c, 0, 55, 0
2, 21626, Note_on_c, 0, 71, 0
2, 21626, Note_on_c, 0, 74, 0
2, 21626, Note_on_c, 0, 62, 0
2, 21626, Note_on_c, 0, 65, 0
2, 21628, Note_on_c, 0, 55, 0
2, 21628, Note_on_c, 0, 43, 0
2, 21628, Note_on_c, 0, 71, 0
2, 21630, Note_on_c, 0, 72, 64
2, 21630, Note_on_c, 0, 45, 64
2, 21630, Note_on_c, 0, 57, 64
2, 21645, Note_on_c, 0, 74, 64
2, 21645, Note_on_c, 0, 77, 64
2, 21645, Note_on_c, 0, 47, 64
2, 21645, Note_on_c, 0, 59, 64
2, 21656, Note_on_c, 0, 57, 0
2, 21656, Note_on_c, 0, 45, 0
2, 21656, Note_on_c, 0, 79, 0
2, 21656, Note_on_c, 0, 72, 0
2, 21658, Note_on_c, 0, 74, 0
2, 21658, Note_on_c, 0, 59, 0
2, 21658, Note_on_c, 0, 77, 0
2, 21658, Note_on_c, 0, 47, 0
2, 21660, Note_on_c, 0, 67, 64
2, 21660, Note_on_c, 0, 76, 64
2, 21660, Note_on_c, 0, 48, 64
2, 21660, Note_on_c, 0, 60, 64
2, 21675, Note_on_c, 0, 59, 64
2, 21675, Note_on_c, 0, 50, 64
2, 21686, Note_on_c, 0, 60, 0
2, 21686, Note_on_c, 0, 48, 0
2, 21686, Note_on_c, 0, 67, 0
2, 21686, Note_on_c, 0, 76, 0
2, 21688, Note_on_c, 0, 50, 0
2, 21688, Note_on_c, 0, 59, 0
2, 21690, Note_on_c, 0, 60, 64
2, 21690, Note_on_c, 0, 52, 64
2, 21705, Note_on_c, 0, 62, 64
2, 21705, Note_on_c, 0, 53, 64
2, 21716, Note_on_c, 0, 52, 0
2, 21716, Note_on_c, 0, 60, 0
2, 21718, Note_on_c, 0, 62, 0
2, 21718, Note_on_c, 0, 53, 0
2, 21720, Note_on_c, 0, 60, 64
2, 21720, Note_on_c, 0, 52, 64
2, 21735, Note_on_c, 0, 59, 64
2, 21735, Note_on_c, 0, 64, 64
2, 21735, Note_on_c, 0, 50, 64
2, 21746, Note_on_c, 0, 52, 0
2, 21746, Note_on_c, 0, 60, 0
2, 21748, Note_on_c, 0, 50, 0
2, 21748, Note_on_c, 0, 59, 0
2, 21750, Note_on_c, 0, 57, 64
2, 21750, Note_on_c, 0, 48, 64
2, 21763, Note_on_c, 0, 64, 0
2, 21765, Note_on_c, 0, 56, 64
2, 21765, Note_on_c, 0, 62, 64
2, 21765, Note_on_c, 0, 64, 64
2, 21765, Note_on_c, 0, 47, 64
2, 21776, Note_on_c, 0, 48, 0
2, 21776, Note_on_c, 0, 57, 0
2, 21778, Note_on_c, 0, 64, 0
2, 21778, Note_on_c, 0, 62, 0
2, 21778, Note_on_c, 0, 47, 0
2, 21778, Note_on_c, 0, 56, 0
2, 21780, Note_on_c, 0, 60, 64
2, 21780, Note_on_c, 0, 72, 64
2, 21780, Note_on_c, 0, 45, 64
2, 21795, Note_on_c, 0, 63, 64
2, 21795, Note_on_c, 0, 51, 64
2, 21806, Note_on_c, 0, 60, 0
2, 21808, Note_on_c, 0, 63, 0
2, 21808, Note_on_c, 0, 51, 0
2, 21810, Note_on_c, 0, 64, 64
2, 21810, Note_on_c, 0, 52, 64
2, 21825, Note_on_c, 0, 71, 64
2, 21825, Note_on_c, 0, 44, 64
2, 21836, Note_on_c, 0, 45, 0
2, 21836, Note_on_c, 0, 72, 0
2, 21838, Note_on_c, 0, 71, 0
2, 21838, Note_on_c, 0, 44, 0
2, 21840, Note_on_c, 0, 72, 64
2, 21840, Note_on_c, 0, 45, 64
2, 21855, Note_on_c, 0, 63, 64
2, 21855, Note_on_c, 0, 51, 64
2, 21866, Note_on_c, 0, 52, 0
2, 21866, Note_on_c, 0, 64, 0
2, 21868, Note_on_c, 0, 63, 0
2, 21868, Note_on_c, 0, 51, 0
2, 21870, Note_on_c, 0, 64, 64
2, 21870, Note_on_c, 0, 52, 64
2, 21885, Note_on_c, 0, 71, 64
2, 21885, Note_on_c, 0, 44, 64
2, 21896, Note_on_c, 0, 45, 0
2, 21896, Note_on_c, 0, 72, 0
2, 21898, Note_on_c, 0, 71, 0
2, 21898, Note_on_c, 0, 44, 0
2, 21900, Note_on_c, 0, 72, 64
2, 21900, Note_on_c, 0, 45, 64
2, 21915, Note_on_c, 0, 63, 64
2, 21915, Note_on_c, 0, 51, 64
2, 21926, Note_on_c, 0, 52, 0
2, 21926, Note_on_c, 0, 64, 0
2, 21928, Note_on_c, 0, 63, 0
2, 21928, Note_on_c, 0, 51, 0
2, 21930, Note_on_c, 0, 64, 64
2, 21930, Note_on_c, 0, 52, 64
2, 21945, Note_on_c, 0, 71, 64
2, 21945, Note_on_c, 0, 44, 64
2, 21956, Note_on_c, 0, 45, 0
2, 21956, Note_on_c, 0, 72, 0
2, 21958, Note_on_c, 0, 71, 0
2, 21958, Note_on_c, 0, 44, 0
2, 21960, Note_on_c, 0, 71, 64
2, 21960, Note_on_c, 0, 44, 64
2, 21975, Note_on_c, 0, 65, 64
2, 21975, Note_on_c, 0, 53, 64
2, 21986, Note_on_c, 0, 52, 0
2, 21986, Note_on_c, 0, 64, 0
2, 21988, Note_on_c, 0, 65, 0
2, 21988, Note_on_c, 0, 53, 0
2, 21990, Note_on_c, 0, 64, 64
2, 21990, Note_on_c, 0, 52, 64
2, 22005, Note_on_c, 0, 72, 64
2, 22005, Note_on_c, 0, 45, 64
2, 22016, Note_on_c, 0, 44, 0
2, 22016, Note_on_c, 0, 71, 0
2, 22018, Note_on_c, 0, 72, 0
2, 22018, Note_on_c, 0, 45, 0
2, 22020, Note_on_c, 0, 71, 64
2, 22020, Note_on_c, 0, 44, 64
2, 22035, Note_on_c, 0, 65, 64
2, 22035, Note_on_c, 0, 53, 64
2, 22046, Note_on_c, 0, 52, 0
2, 22046, Note_on_c, 0, 64, 0
2, 22048, Note_on_c, 0, 65, 0
2, 22048, Note_on_c, 0, 53, 0
2, 22050, Note_on_c, 0, 64, 64
2, 22050, Note_on_c, 0, 52, 64
2, 22065, Note_on_c, 0, 72, 64
2, 22065, Note_on_c, 0, 45, 64
2, 22076, Note_on_c, 0, 44, 0
2, 22076, Note_on_c, 0, 71, 0
2, 22078, Note_on_c, 0, 72, 0
2, 22078, Note_on_c, 0, 45, 0
2, 22080, Note_on_c, 0, 71, 64
2, 22080, Note_on_c, 0, 44, 64
2, 22095, Note_on_c, 0, 65, 64
2, 22095, Note_on_c, 0, 53, 64
2, 22106, Note_on_c, 0, 52, 0
2, 22106, Note_on_c, 0, 64, 0
2, 22108, Note_on_c, 0, 65, 0
2, 22108, Note_on_c, 0, 53, 0
2, 22110, Note_on_c, 0, 64, 64
2, 22110, Note_on_c, 0, 52, 64
2, 22125, Note_on_c, 0, 76, 64
2, 22125, Note_on_c, 0, 43, 64
2, 22136, Note_on_c, 0, 52, 0
2, 22136, Note_on_c, 0, 64, 0
2, 22136, Note_on_c, 0, 71, 0
2, 22136, Note_on_c, 0, 44, 0
2, 22138, Note_on_c, 0, 76, 0
2, 22140, Note_on_c, 0, 71, 64
2, 22140, Note_on_c, 0, 76, 64
2, 22153, Note_on_c, 0, 43, 0
2, 22155, Note_on_c, 0, 32, 64
2, 22155, Note_on_c, 0, 44, 64
2, 22168, Note_on_c, 0, 44, 0
2, 22168, Note_on_c, 0, 32, 0
2, 22170, Note_on_c, 0, 33, 64
2, 22170, Note_on_c, 0, 45, 64
2, 22185, Note_on_c, 0, 72, 64
2, 22185, Note_on_c, 0, 76, 64
2, 22196, Note_on_c, 0, 76, 0
2, 22196, Note_on_c, 0, 71, 0
2, 22198, Note_on_c, 0, 76, 0
2, 22198, Note_on_c, 0, 72, 0
2, 22200, Note_on_c, 0, 72, 64
2, 22200, Note_on_c, 0, 76, 64
2, 22215, Note_on_c, 0, 33, 64
2, 22215, Note_on_c, 0, 45, 64
2, 22226, Note_on_c, 0, 45, 0
2, 22226, Note_on_c, 0, 33, 0
2, 22228, Note_on_c, 0, 45, 0
2, 22228, Note_on_c, 0, 33, 0
2, 22230, Note_on_c, 0, 35, 64
2, 22230, Note_on_c, 0, 47, 64
2, 22245, Note_on_c, 0, 68, 64
2, 22245, Note_on_c, 0, 71, 64
2, 22245, Note_on_c, 0, 74, 64
2, 22256, Note_on_c, 0, 47, 0
2, 22256, Note_on_c, 0, 35, 0
2, 22256, Note_on_c, 0, 76, 0
2, 22256, Note_on_c, 0, 72, 0
2, 22258, Note_on_c, 0, 74, 0
2, 22258, Note_on_c, 0, 68, 0
2, 22258, Note_on_c, 0, 71, 0
2, 22260, Note_on_c, 0, 64, 64
2, 22260, Note_on_c, 0, 71, 64
2, 22260, Note_on_c, 0, 74, 64
2, 22260, Note_on_c, 0, 36, 64
2, 22260, Note_on_c, 0, 48, 64
2, 22275, Note_on_c, 0, 65, 64
2, 22275, Note_on_c, 0, 69, 64
2, 22275, Note_on_c, 0, 72, 64
2, 22275, Note_on_c, 0, 38, 64
2, 22275, Note_on_c, 0, 50, 64
2, 22286, Note_on_c, 0, 48, 0
2, 22286, Note_on_c, 0, 36, 0
2, 22286, Note_on_c, 0, 64, 0
2, 22286, Note_on_c, 0, 74, 0
2, 22286, Note_on_c, 0, 71, 0
2, 22288, Note_on_c, 0, 65, 0
2, 22288, Note_on_c, 0, 38, 0
2, 22288, Note_on_c, 0, 50, 0
2, 22288, Note_on_c, 0, 69, 0
2, 22288, Note_on_c, 0, 72, 0
2, 22290, Note_on_c, 0, 66, 64
2, 22290, Note_on_c, 0, 69, 64
2, 22290, Note_on_c, 0, 72, 64
2, 22290, Note_on_c, 0, 39, 64
2, 22290, Note_on_c, 0, 51, 64
2, 22305, Note_on_c, 0, 59, 64
2, 22305, Note_on_c, 0, 68, 64
2, 22305, Note_on_c, 0, 71, 64
2, 22305, Note_on_c, 0, 40, 64
2, 22305, Note_on_c, 0, 52, 64
2, 22316, Note_on_c, 0, 51, 0
2, 22316, Note_on_c, 0, 39, 0
2, 22316, Note_on_c, 0, 66, 0
2, 22316, Note_on_c, 0, 72, 0
2, 22316, Note_on_c, 0, 69, 0
2, 22318, Note_on_c, 0, 59, 0
2, 22318, Note_on_c, 0, 40, 0
2, 22318, Note_on_c, 0, 52, 0
2, 22318, Note_on_c, 0, 68, 0
2, 22318, Note_on_c, 0, 71, 0
2, 22320, Note_on_c, 0, 59, 64
2, 22320, Note_on_c, 0, 68, 64
2, 22320, Note_on_c, 0, 71, 64
2, 22320, Note_on_c, 0, 40, 64
2, 22320, Note_on_c, 0, 52, 64
2, 22333, Note_on_c, 0, 52, 0
2, 22333, Note_on_c, 0, 71, 0
2, 22333, Note_on_c, 0, 59, 0
2, 22333, Note_on_c, 0, 68, 0
2, 22333, Note_on_c, 0, 40, 0
2, 22335, Note_on_c, 0, 59, 64
2, 22335, Note_on_c, 0, 68, 64
2, 22335, Note_on_c, 0, 71, 64
2, 22335, Note_on_c, 0, 40, 64
2, 22335, Note_on_c, 0, 52, 64
2, 22363, Note_on_c, 0, 52, 0
2, 22363, Note_on_c, 0, 71, 0
2, 22363, Note_on_c, 0, 59, 0
2, 22363, Note_on_c, 0, 68, 0
2, 22363, Note_on_c, 0, 40, 0
2, 22365, Note_on_c, 0, 59, 64
2, 22365, Note_on_c, 0, 68, 64
2, 22365, Note_on_c, 0, 71, 64
2, 22365, Note_on_c, 0, 40, 64
2, 22365, Note_on_c, 0, 52, 64
2, 22393, Note_on_c, 0, 52, 0
2, 22393, Note_on_c, 0, 71, 0
2, 22393, Note_on_c, 0, 59, 0
2, 22393, Note_on_c, 0, 68, 0
2, 22393, Note_on_c, 0, 40, 0
2, 22395, Note_on_c, 0, 60, 64
2, 22395, Note_on_c, 0, 69, 64
2, 22395, Note_on_c, 0, 72, 64
2, 22395, Note_on_c, 0, 33, 64
2, 22395, Note_on_c, 0, 45, 64
2, 22423, Note_on_c, 0, 45, 0
2, 22423, Note_on_c, 0, 72, 0
2, 22423, Note_on_c, 0, 60, 0
2, 22423, Note_on_c, 0, 69, 0
2, 22423, Note_on_c, 0, 33, 0
2, 22425, Note_on_c, 0, 60, 64
2, 22425, Note_on_c, 0, 69, 64
2, 22425, Note_on_c, 0, 72, 64
2, 22425, Note_on_c, 0, 33, 64
2, 22425, Note_on_c, 0, 45, 64
2, 22453, Note_on_c, 0, 45, 0
2, 22453, Note_on_c, 0, 72, 0
2, 22453, Note_on_c, 0, 60, 0
2, 22453, Note_on_c, 0, 69, 0
2, 22453, Note_on_c, 0, 33, 0
2, 22455, Note_on_c, 0, 62, 64
2, 22455, Note_on_c, 0, 71, 64
2, 22455, Note_on_c, 0, 74, 64
2, 22455, Note_on_c, 0, 31, 64
2, 22455, Note_on_c, 0, 43, 64
2, 22468, Note_on_c, 0, 74, 0
2, 22468, Note_on_c, 0, 62, 0
2, 22468, Note_on_c, 0, 71, 0
2, 22470, Note_on_c, 0, 62, 64
2, 22470, Note_on_c, 0, 71, 64
2, 22470, Note_on_c, 0, 74, 64
2, 22483, Note_on_c, 0, 74, 0
2, 22483, Note_on_c, 0, 62, 0
2, 22483, Note_on_c, 0, 43, 0
2, 22483, Note_on_c, 0, 31, 0
2, 22483, Note_on_c, 0, 71, 0
2, 22485, Note_on_c, 0, 74, 64
2, 22485, Note_on_c, 0, 83, 64
2, 22485, Note_on_c, 0, 86, 64
2, 22485, Note_on_c, 0, 31, 64
2, 22485, Note_on_c, 0, 43, 64
2, 22498, Note_on_c, 0, 43, 0
2, 22498, Note_on_c, 0, 86, 0
2, 22498, Note_on_c, 0, 74, 0
2, 22498, Note_on_c, 0, 83, 0
2, 22498, Note_on_c, 0, 31, 0
2, 22500, Note_on_c, 0, 83, 64
2, 22500, Note_on_c, 0, 86, 64
2, 22500, Note_on_c, 0, 74, 64
2, 22500, Note_on_c, 0, 31, 64
2, 22500, Note_on_c, 0, 43, 64
2, 22513, Note_on_c, 0, 74, 0
2, 22515, Note_on_c, 0, 74, 64
2, 22515, Note_on_c, 0, 65, 64
2, 22526, Note_on_c, 0, 31, 0
2, 22526, Note_on_c, 0, 43, 0
2, 22526, Note_on_c, 0, 83, 0
2, 22526, Note_on_c, 0, 86, 0
2, 22528, Note_on_c, 0, 65, 0
2, 22528, Note_on_c, 0, 74, 0
2, 22530, Note_on_c, 0, 73, 64
2, 22530, Note_on_c, 0, 55, 64
2, 22530, Note_on_c, 0, 64, 64
2, 22545, Note_on_c, 0, 74, 64
2, 22545, Note_on_c, 0, 65, 64
2, 22556, Note_on_c, 0, 64, 0
2, 22556, Note_on_c, 0, 73, 0
2, 22558, Note_on_c, 0, 65, 0
2, 22558, Note_on_c, 0, 74, 0
2, 22560, Note_on_c, 0, 74, 64
2, 22560, Note_on_c, 0, 65, 64
2, 22575, Note_on_c, 0, 71, 64
2, 22575, Note_on_c, 0, 62, 64
2, 22586, Note_on_c, 0, 65, 0
2, 22588, Note_on_c, 0, 71, 0
2, 22588, Note_on_c, 0, 62, 0
2, 22590, Note_on_c, 0, 70, 64
2, 22590, Note_on_c, 0, 61, 64
2, 22605, Note_on_c, 0, 71, 64
2, 22605, Note_on_c, 0, 62, 64
2, 22616, Note_on_c, 0, 61, 0
2, 22616, Note_on_c, 0, 70, 0
2, 22618, Note_on_c, 0, 71, 0
2, 22618, Note_on_c, 0, 62, 0
2, 22620, Note_on_c, 0, 67, 64
2, 22620, Note_on_c, 0, 59, 64
2, 22635, Note_on_c, 0, 75, 64
2, 22646, Note_on_c, 0, 59, 0
2, 22646, Note_on_c, 0, 67, 0
2, 22646, Note_on_c, 0, 74, 0
2, 22646, Note_on_c, 0, 55, 0
2, 22648, Note_on_c, 0, 75, 0
2, 22650, Note_on_c, 0, 67, 64
2, 22650, Note_on_c, 0, 77, 64
2, 22650, Note_on_c, 0, 55, 64
2, 22650, Note_on_c, 0, 62, 64
2, 22665, Note_on_c, 0, 76, 64
2, 22665, Note_on_c, 0, 60, 64
2, 22676, Note_on_c, 0, 62, 0
2, 22676, Note_on_c, 0, 77, 0
2, 22678, Note_on_c, 0, 76, 0
2, 22678, Note_on_c, 0, 60, 0
2, 22680, Note_on_c, 0, 76, 64
2, 22680, Note_on_c, 0, 60, 64
2, 22695, Note_on_c, 0, 72, 64
2, 22695, Note_on_c, 0, 64, 64
2, 22706, Note_on_c, 0, 60, 0
2, 22706, Note_on_c, 0, 67, 0
2, 22706, Note_on_c, 0, 55, 0
2, 22708, Note_on_c, 0, 72, 0
2, 22708, Note_on_c, 0, 64, 0
2, 22710, Note_on_c, 0, 71, 64
2, 22710, Note_on_c, 0, 60, 64
2, 22710, Note_on_c, 0, 62, 64
2, 22725, Note_on_c, 0, 72, 64
2, 22725, Note_on_c, 0, 64, 64
2, 22736, Note_on_c, 0, 62, 0
2, 22736, Note_on_c, 0, 71, 0
2, 22738, Note_on_c, 0, 72, 0
2, 22738, Note_on_c, 0, 64, 0
2, 22740, Note_on_c, 0, 72, 64
2, 22740, Note_on_c, 0, 64, 64
2, 22755, Note_on_c, 0, 70, 64
2, 22755, Note_on_c, 0, 67, 64
2, 22766, Note_on_c, 0, 64, 0
2, 22766, Note_on_c, 0, 72, 0
2, 22766, Note_on_c, 0, 60, 0
2, 22766, Note_on_c, 0, 76, 0
2, 22768, Note_on_c, 0, 67, 0
2, 22768, Note_on_c, 0, 70, 0
2, 22770, Note_on_c, 0, 69, 64
2, 22770, Note_on_c, 0, 76, 64
2, 22770, Note_on_c, 0, 60, 64
2, 22770, Note_on_c, 0, 66, 64
2, 22785, Note_on_c, 0, 70, 64
2, 22785, Note_on_c, 0, 67, 64
2, 22796, Note_on_c, 0, 66, 0
2, 22796, Note_on_c, 0, 69, 0
2, 22798, Note_on_c, 0, 70, 0
2, 22798, Note_on_c, 0, 67, 0
2, 22800, Note_on_c, 0, 70, 64
2, 22800, Note_on_c, 0, 67, 64
2, 22813, Note_on_c, 0, 67, 0
2, 22815, Note_on_c, 0, 76, 64
2, 22815, Note_on_c, 0, 67, 64
2, 22826, Note_on_c, 0, 76, 0
2, 22826, Note_on_c, 0, 70, 0
2, 22826, Note_on_c, 0, 60, 0
2, 22828, Note_on_c, 0, 76, 0
2, 22828, Note_on_c, 0, 67, 0
2, 22830, Note_on_c, 0, 70, 64
2, 22830, Note_on_c, 0, 79, 64
2, 22830, Note_on_c, 0, 53, 64
2, 22830, Note_on_c, 0, 64, 64
2, 22845, Note_on_c, 0, 69, 64
2, 22845, Note_on_c, 0, 77, 64
2, 22845, Note_on_c, 0, 65, 64
2, 22856, Note_on_c, 0, 64, 0
2, 22856, Note_on_c, 0, 53, 0
2, 22856, Note_on_c, 0, 70, 0
2, 22856, Note_on_c, 0, 79, 0
2, 22858, Note_on_c, 0, 65, 0
2, 22858, Note_on_c, 0, 69, 0
2, 22858, Note_on_c, 0, 77, 0
2, 22860, Note_on_c, 0, 69, 64
2, 22860, Note_on_c, 0, 74, 64
2, 22860, Note_on_c, 0, 54, 64
2, 22860, Note_on_c, 0, 60, 64
2, 22875, Note_on_c, 0, 72, 64
2, 22875, Note_on_c, 0, 78, 64
2, 22875, Note_on_c, 0, 57, 64
2, 22886, Note_on_c, 0, 60, 0
2, 22886, Note_on_c, 0, 54, 0
2, 22886, Note_on_c, 0, 69, 0
2, 22886, Note_on_c, 0, 74, 0
2, 22888, Note_on_c, 0, 57, 0
2, 22888, Note_on_c, 0, 72, 0
2, 22888, Note_on_c, 0, 78, 0
2, 22890, Note_on_c, 0, 74, 64
2, 22890, Note_on_c, 0, 81, 64
2, 22890, Note_on_c, 0, 54, 64
2, 22890, Note_on_c, 0, 60, 64
2, 22905, Note_on_c, 0, 79, 64
2, 22905, Note_on_c, 0, 55, 64
2, 22905, Note_on_c, 0, 59, 64
2, 22916, Note_on_c, 0, 60, 0
2, 22916, Note_on_c, 0, 54, 0
2, 22916, Note_on_c, 0, 81, 0
2, 22933, Note_on_c, 0, 59, 0
2, 22935, Note_on_c, 0, 75, 64
2, 22935, Note_on_c, 0, 59, 64
2, 22946, Note_on_c, 0, 74, 0
2, 22948, Note_on_c, 0, 75, 0
2, 22948, Note_on_c, 0, 79, 0
2, 22948, Note_on_c, 0, 55, 0
2, 22948, Note_on_c, 0, 59, 0
2, 22950, Note_on_c, 0, 76, 64
2, 22950, Note_on_c, 0, 81, 64
2, 22950, Note_on_c, 0, 55, 64
2, 22950, Note_on_c, 0, 60, 64
2, 22965, Note_on_c, 0, 79, 64
2, 22976, Note_on_c, 0, 60, 0
2, 22976, Note_on_c, 0, 81, 0
2, 22980, Note_on_c, 0, 60, 64
2, 22995, Note_on_c, 0, 77, 64
2, 22995, Note_on_c, 0, 62, 64
2, 23006, Note_on_c, 0, 60, 0
2, 23006, Note_on_c, 0, 76, 0
2, 23006, Note_on_c, 0, 55, 0
2, 23008, Note_on_c, 0, 79, 0
2, 23008, Note_on_c, 0, 77, 0
2, 23008, Note_on_c, 0, 62, 0
2, 23010, Note_on_c, 0, 71, 64
2, 23010, Note_on_c, 0, 77, 64
2, 23010, Note_on_c, 0, 81, 64
2, 23010, Note_on_c, 0, 55, 64
2, 23010, Note_on_c, 0, 62, 64
2, 23010, Note_on_c, 0, 65, 64
2, 23025, Note_on_c, 0, 71, 64
2, 23025, Note_on_c, 0, 74, 64
2, 23025, Note_on_c, 0, 79, 64
2, 23025, Note_on_c, 0, 55, 64
2, 23025, Note_on_c, 0, 62, 64
2, 23025, Note_on_c, 0, 65, 64
2, 23036, Note_on_c, 0, 65, 0
2, 23036, Note_on_c, 0, 55, 0
2, 23036, Note_on_c, 0, 71, 0
2, 23036, Note_on_c, 0, 62, 0
2, 23036, Note_on_c, 0, 81, 0
2, 23036, Note_on_c, 0, 77, 0
2, 23038, Note_on_c, 0, 62, 0
2, 23038, Note_on_c, 0, 55, 0
2, 23038, Note_on_c, 0, 65, 0
2, 23038, Note_on_c, 0, 74, 0
2, 23038, Note_on_c, 0, 71, 0
2, 23038, Note_on_c, 0, 79, 0
2, 23040, Note_on_c, 0, 74, 64
2, 23040, Note_on_c, 0, 79, 64
2, 23040, Note_on_c, 0, 71, 64
2, 23040, Note_on_c, 0, 55, 64
2, 23040, Note_on_c, 0, 62, 64
2, 23040, Note_on_c, 0, 65, 64
2, 23053, Note_on_c, 0, 71, 0
2, 23055, Note_on_c, 0, 71, 64
2, 23055, Note_on_c, 0, 43, 64
2, 23055, Note_on_c, 0, 55, 64
2, 23066, Note_on_c, 0, 55, 0
2, 23066, Note_on_c, 0, 79, 0
2, 23066, Note_on_c, 0, 62, 0
2, 23066, Note_on_c, 0, 74, 0
2, 23066, Note_on_c, 0, 65, 0
2, 23068, Note_on_c, 0, 55, 0
2, 23068, Note_on_c, 0, 43, 0
2, 23068, Note_on_c, 0, 71, 0
2, 23070, Note_on_c, 0, 72, 64
2, 23070, Note_on_c, 0, 79, 64
2, 23070, Note_on_c, 0, 45, 64
2, 23070, Note_on_c, 0, 57, 64
2, 23085, Note_on_c, 0, 74, 64
2, 23085, Note_on_c, 0, 77, 64
2, 23085, Note_on_c, 0, 47, 64
2, 23085, Note_on_c, 0, 59, 64
2, 23096, Note_on_c, 0, 57, 0
2, 23096, Note_on_c, 0, 45, 0
2, 23096, Note_on_c, 0, 72, 0
2, 23096, Note_on_c, 0, 79, 0
2, 23098, Note_on_c, 0, 74, 0
2, 23098, Note_on_c, 0, 59, 0
2, 23098, Note_on_c, 0, 77, 0
2, 23098, Note_on_c, 0, 47, 0
2, 23100, Note_on_c, 0, 67, 64
2, 23100, Note_on_c, 0, 76, 64
2, 23100, Note_on_c, 0, 48, 64
2, 23100, Note_on_c, 0, 60, 64
2, 23115, Note_on_c, 0, 74, 64
2, 23115, Note_on_c, 0, 79, 64
2, 23115, Note_on_c, 0, 71, 64
2, 23126, Note_on_c, 0, 60, 0
2, 23126, Note_on_c, 0, 48, 0
2, 23126, Note_on_c, 0, 67, 0
2, 23126, Note_on_c, 0, 76, 0
2, 23128, Note_on_c, 0, 71, 0
2, 23128, Note_on_c, 0, 74, 0
2, 23130, Note_on_c, 0, 76, 64
2, 23130, Note_on_c, 0, 72, 64
2, 23143, Note_on_c, 0, 79, 0
2, 23145, Note_on_c, 0, 77, 64
2, 23145, Note_on_c, 0, 79, 64
2, 23145, Note_on_c, 0, 74, 64
2, 23156, Note_on_c, 0, 72, 0
2, 23156, Note_on_c, 0, 76, 0
2, 23158, Note_on_c, 0, 79, 0
2, 23158, Note_on_c, 0, 77, 0
2, 23158, Note_on_c, 0, 74, 0
2, 23160, Note_on_c, 0, 84, 64
2, 23167, Note_on_c, 0, 79, 64
2, 23173, Note_on_c, 0, 84, 0
2, 23174, Note_on_c, 0, 79, 0
2, 23175, Note_on_c, 0, 76, 64
2, 23182, Note_on_c, 0, 72, 64
2, 23188, Note_on_c, 0, 76, 0
2, 23189, Note_on_c, 0, 72, 0
2, 23190, Note_on_c, 0, 67, 64
2, 23197, Note_on_c, 0, 64, 64
2, 23203, Note_on_c, 0, 67, 0
2, 23204, Note_on_c, 0, 64, 0
2, 23205, Note_on_c, 0, 60, 64
2, 23212, Note_on_c, 0, 55, 64
2, 23218, Note_on_c, 0, 60, 0
2, 23219, Note_on_c, 0, 55, 0
2, 23220, Note_on_c, 0, 64, 64
2, 23220, Note_on_c, 0, 67, 64
2, 23220, Note_on_c, 0, 36, 64
2, 23227, Note_on_c, 0, 40, 64
2, 23233, Note_on_c, 0, 36, 0
2, 23234, Note_on_c, 0, 40, 0
2, 23235, Note_on_c, 0, 43, 64
2, 23241, Note_on_c, 0, 67, 0
2, 23241, Note_on_c, 0, 64, 0
2, 23242, Note_on_c, 0, 64, 64
2, 23242, Note_on_c, 0, 67, 64
2, 23242, Note_on_c, 0, 48, 64
2, 23248, Note_on_c, 0, 43, 0
2, 23249, Note_on_c, 0, 48, 0
2, 23250, Note_on_c, 0, 52, 64
2, 23257, Note_on_c, 0, 55, 64
2, 23263, Note_on_c, 0, 52, 0
2, 23264, Note_on_c, 0, 55, 0
2, 23265, Note_on_c, 0, 59, 64
2, 23271, Note_on_c, 0, 67, 0
2, 23271, Note_on_c, 0, 64, 0
2, 23272, Note_on_c, 0, 64, 64
2, 23272, Note_on_c, 0, 67, 64
2, 23272, Note_on_c, 0, 60, 64
2, 23278, Note_on_c, 0, 59, 0
2, 23279, Note_on_c, 0, 64, 0
2, 23279, Note_on_c, 0, 67, 0
2, 23279, Note_on_c, 0, 60, 0
2, 23280, Note_on_c, 0, 65, 64
2, 23280, Note_on_c, 0, 67, 64
2, 23280, Note_on_c, 0, 38, 64
2, 23287, Note_on_c, 0, 43, 64
2, 23293, Note_on_c, 0, 38, 0
2, 23294, Note_on_c, 0, 43, 0
2, 23295, Note_on_c, 0, 47, 64
2, 23301, Note_on_c, 0, 67, 0
2, 23301, Note_on_c, 0, 65, 0
2, 23302, Note_on_c, 0, 65, 64
2, 23302, Note_on_c, 0, 67, 64
2, 23302, Note_on_c, 0, 50, 64
2, 23308, Note_on_c, 0, 47, 0
2, 23309, Note_on_c, 0, 50, 0
2, 23310, Note_on_c, 0, 55, 64
2, 23317, Note_on_c, 0, 59, 64
2, 23323, Note_on_c, 0, 55, 0
2, 23324, Note_on_c, 0, 59, 0
2, 23325, Note_on_c, 0, 61, 64
2, 23331, Note_on_c, 0, 67, 0
2, 23331, Note_on_c, 0, 65, 0
2, 23332, Note_on_c, 0, 65, 64
2, 23332, Note_on_c, 0, 67, 64
2, 23332, Note_on_c, 0, 62, 64
2, 23338, Note_on_c, 0, 61, 0
2, 23339, Note_on_c, 0, 65, 0
2, 23339, Note_on_c, 0, 67, 0
2, 23339, Note_on_c, 0, 62, 0
2, 23340, Note_on_c, 0, 89, 64
2, 23347, Note_on_c, 0, 86, 64
2, 23353, Note_on_c, 0, 89, 0
2, 23354, Note_on_c, 0, 86, 0
2, 23355, Note_on_c, 0, 83, 64
2, 23362, Note_on_c, 0, 79, 64
2, 23368, Note_on_c, 0, 83, 0
2, 23369, Note_on_c, 0, 79, 0
2, 23370, Note_on_c, 0, 77, 64
2, 23377, Note_on_c, 0, 74, 64
2, 23383, Note_on_c, 0, 77, 0
2, 23384, Note_on_c, 0, 74, 0
2, 23385, Note_on_c, 0, 71, 64
2, 23392, Note_on_c, 0, 67, 64
2, 23398, Note_on_c, 0, 71, 0
2, 23399, Note_on_c, 0, 67, 0
2, 23400, Note_on_c, 0, 65, 64
2, 23400, Note_on_c, 0, 67, 64
2, 23400, Note_on_c, 0, 38, 64
2, 23407, Note_on_c, 0, 43, 64
2, 23413, Note_on_c, 0, 38, 0
2, 23414, Note_on_c, 0, 43, 0
2, 23415, Note_on_c, 0, 47, 64
2, 23421, Note_on_c, 0, 67, 0
2, 23421, Note_on_c, 0, 65, 0
2, 23422, Note_on_c, 0, 65, 64
2, 23422, Note_on_c, 0, 67, 64
2, 23422, Note_on_c, 0, 50, 64
2, 23428, Note_on_c, 0, 47, 0
2, 23429, Note_on_c, 0, 50, 0
2, 23430, Note_on_c, 0, 55, 64
2, 23437, Note_on_c, 0, 59, 64
2, 23443, Note_on_c, 0, 55, 0
2, 23444, Note_on_c, 0, 59, 0
2, 23445, Note_on_c, 0, 61, 64
2, 23451, Note_on_c, 0, 67, 0
2, 23451, Note_on_c, 0, 65, 0
2, 23452, Note_on_c, 0, 65, 64
2, 23452, Note_on_c, 0, 67, 64
2, 23452, Note_on_c, 0, 62, 64
2, 23458, Note_on_c, 0, 61, 0
2, 23459, Note_on_c, 0, 65, 0
2, 23459, Note_on_c, 0, 67, 0
2, 23459, Note_on_c, 0, 62, 0
2, 23460, Note_on_c, 0, 67, 64
2, 23460, Note_on_c, 0, 40, 64
2, 23467, Note_on_c, 0, 43, 64
2, 23473, Note_on_c, 0, 40, 0
2, 23474, Note_on_c, 0, 43, 0
2, 23475, Note_on_c, 0, 48, 64
2, 23481, Note_on_c, 0, 67, 0
2, 23482, Note_on_c, 0, 67, 64
2, 23482, Note_on_c, 0, 52, 64
2, 23488, Note_on_c, 0, 48, 0
2, 23489, Note_on_c, 0, 52, 0
2, 23490, Note_on_c, 0, 55, 64
2, 23497, Note_on_c, 0, 60, 64
2, 23503, Note_on_c, 0, 55, 0
2, 23504, Note_on_c, 0, 60, 0
2, 23505, Note_on_c, 0, 62, 64
2, 23511, Note_on_c, 0, 67, 0
2, 23512, Note_on_c, 0, 67, 64
2, 23512, Note_on_c, 0, 64, 64
2, 23518, Note_on_c, 0, 62, 0
2, 23519, Note_on_c, 0, 64, 0
2, 23519, Note_on_c, 0, 67, 0
2, 23520, Note_on_c, 0, 91, 64
2, 23527, Note_on_c, 0, 88, 64
2, 23533, Note_on_c, 0, 91, 0
2, 23534, Note_on_c, 0, 88, 0
2, 23535, Note_on_c, 0, 84, 64
2, 23542, Note_on_c, 0, 79, 64
2, 23548, Note_on_c, 0, 84, 0
2, 23549, Note_on_c, 0, 79, 0
2, 23550, Note_on_c, 0, 76, 64
2, 23557, Note_on_c, 0, 72, 64
2, 23563, Note_on_c, 0, 76, 0
2, 23564, Note_on_c, 0, 72, 0
2, 23565, Note_on_c, 0, 71, 64
2, 23572, Note_on_c, 0, 79, 64
2, 23578, Note_on_c, 0, 71, 0
2, 23579, Note_on_c, 0, 79, 0
2, 23580, Note_on_c, 0, 67, 64
2, 23580, Note_on_c, 0, 70, 64
2, 23580, Note_on_c, 0, 73, 64
2, 23580, Note_on_c, 0, 79, 64
2, 23580, Note_on_c, 0, 40, 64
2, 23587, Note_on_c, 0, 46, 64
2, 23593, Note_on_c, 0, 40, 0
2, 23594, Note_on_c, 0, 46, 0
2, 23595, Note_on_c, 0, 49, 64
2, 23601, Note_on_c, 0, 73, 0
2, 23601, Note_on_c, 0, 79, 0
2, 23601, Note_on_c, 0, 67, 0
2, 23601, Note_on_c, 0, 70, 0
2, 23602, Note_on_c, 0, 67, 64
2, 23602, Note_on_c, 0, 70, 64
2, 23602, Note_on_c, 0, 73, 64
2, 23602, Note_on_c, 0, 79, 64
2, 23602, Note_on_c, 0, 52, 64
2, 23608, Note_on_c, 0, 49, 0
2, 23609, Note_on_c, 0, 73, 0
2, 23609, Note_on_c, 0, 52, 0
2, 23610, Note_on_c, 0, 70, 0
2, 23610, Note_on_c, 0, 71, 64
2, 23610, Note_on_c, 0, 74, 64
2, 23610, Note_on_c, 0, 53, 64
2, 23617, Note_on_c, 0, 59, 64
2, 23623, Note_on_c, 0, 53, 0
2, 23624, Note_on_c, 0, 59, 0
2, 23625, Note_on_c, 0, 62, 64
2, 23631, Note_on_c, 0, 71, 0
2, 23631, Note_on_c, 0, 74, 0
2, 23631, Note_on_c, 0, 67, 0
2, 23631, Note_on_c, 0, 79, 0
2, 23632, Note_on_c, 0, 67, 64
2, 23632, Note_on_c, 0, 71, 64
2, 23632, Note_on_c, 0, 74, 64
2, 23632, Note_on_c, 0, 79, 64
2, 23632, Note_on_c, 0, 65, 64
2, 23638, Note_on_c, 0, 62, 0
2, 23639, Note_on_c, 0, 71, 0
2, 23639, Note_on_c, 0, 74, 0
2, 23639, Note_on_c, 0, 67, 0
2, 23639, Note_on_c, 0, 65, 0
2, 23639, Note_on_c, 0, 79, 0
2, 23640, Note_on_c, 0, 67, 64
2, 23640, Note_on_c, 0, 71, 64
2, 23640, Note_on_c, 0, 79, 64
2, 23640, Note_on_c, 0, 51, 64
2, 23647, Note_on_c, 0, 55, 64
2, 23653, Note_on_c, 0, 51, 0
2, 23654, Note_on_c, 0, 55, 0
2, 23655, Note_on_c, 0, 59, 64
2, 23661, Note_on_c, 0, 67, 0
2, 23661, Note_on_c, 0, 79, 0
2, 23661, Note_on_c, 0, 71, 0
2, 23662, Note_on_c, 0, 67, 64
2, 23662, Note_on_c, 0, 71, 64
2, 23662, Note_on_c, 0, 79, 64
2, 23662, Note_on_c, 0, 63, 64
2, 23668, Note_on_c, 0, 59, 0
2, 23669, Note_on_c, 0, 63, 0
2, 23669, Note_on_c, 0, 71, 0
2, 23670, Note_on_c, 0, 72, 64
2, 23670, Note_on_c, 0, 52, 64
2, 23677, Note_on_c, 0, 55, 64
2, 23683, Note_on_c, 0, 52, 0
2, 23684, Note_on_c, 0, 55, 0
2, 23685, Note_on_c, 0, 60, 64
2, 23691, Note_on_c, 0, 79, 0
2, 23691, Note_on_c, 0, 72, 0
2, 23691, Note_on_c, 0, 67, 0
2, 23692, Note_on_c, 0, 67, 64
2, 23692, Note_on_c, 0, 72, 64
2, 23692, Note_on_c, 0, 79, 64
2, 23692, Note_on_c, 0, 64, 64
2, 23698, Note_on_c, 0, 60, 0
2, 23699, Note_on_c, 0, 79, 0
2, 23699, Note_on_c, 0, 67, 0
2, 23699, Note_on_c, 0, 72, 0
2, 23699, Note_on_c, 0, 64, 0
2, 23700, Note_on_c, 0, 76, 64
2, 23700, Note_on_c, 0, 79, 64
2, 23700, Note_on_c, 0, 88, 64
2, 23700, Note_on_c, 0, 48, 64
2, 23707, Note_on_c, 0, 52, 64
2, 23713, Note_on_c, 0, 48, 0
2, 23714, Note_on_c, 0, 52, 0
2, 23715, Note_on_c, 0, 55, 64
2, 23721, Note_on_c, 0, 76, 0
2, 23721, Note_on_c, 0, 88, 0
2, 23721, Note_on_c, 0, 79, 0
2, 23722, Note_on_c, 0, 76, 64
2, 23722, Note_on_c, 0, 79, 64
2, 23722, Note_on_c, 0, 88, 64
2, 23722, Note_on_c, 0, 60, 64
2, 23728, Note_on_c, 0, 55, 0
2, 23729, Note_on_c, 0, 60, 0
2, 23730, Note_on_c, 0, 36, 64
2, 23737, Note_on_c, 0, 40, 64
2, 23743, Note_on_c, 0, 36, 0
2, 23744, Note_on_c, 0, 40, 0
2, 23745, Note_on_c, 0, 43, 64
2, 23751, Note_on_c, 0, 88, 0
2, 23751, Note_on_c, 0, 76, 0
2, 23751, Note_on_c, 0, 79, 0
2, 23752, Note_on_c, 0, 72, 64
2, 23752, Note_on_c, 0, 76, 64
2, 23752, Note_on_c, 0, 84, 64
2, 23752, Note_on_c, 0, 48, 64
2, 23758, Note_on_c, 0, 43, 0
2, 23759, Note_on_c, 0, 84, 0
2, 23759, Note_on_c, 0, 72, 0
2, 23759, Note_on_c, 0, 76, 0
2, 23759, Note_on_c, 0, 48, 0
2, 23760, Note_on_c, 0, 84, 64
2, 23760, Note_on_c, 0, 31, 64
2, 23760, Note_on_c, 0, 43, 64
2, 23767, Note_on_c, 0, 81, 64
2, 23773, Note_on_c, 0, 84, 0
2, 23774, Note_on_c, 0, 81, 0
2, 23775, Note_on_c, 0, 78, 64
2, 23781, Note_on_c, 0, 43, 0
2, 23781, Note_on_c, 0, 31, 0
2, 23782, Note_on_c, 0, 75, 64
2, 23782, Note_on_c, 0, 31, 64
2, 23782, Note_on_c, 0, 43, 64
2, 23788, Note_on_c, 0, 78, 0
2, 23789, Note_on_c, 0, 75, 0
2, 23790, Note_on_c, 0, 72, 64
2, 23797, Note_on_c, 0, 69, 64
2, 23803, Note_on_c, 0, 72, 0
2, 23804, Note_on_c, 0, 69, 0
2, 23805, Note_on_c, 0, 65, 64
2, 23811, Note_on_c, 0, 31, 0
2, 23811, Note_on_c, 0, 43, 0
2, 23812, Note_on_c, 0, 63, 64
2, 23812, Note_on_c, 0, 72, 64
2, 23812, Note_on_c, 0, 31, 64
2, 23812, Note_on_c, 0, 43, 64
2, 23818, Note_on_c, 0, 65, 0
2, 23819, Note_on_c, 0, 31, 0
2, 23819, Note_on_c, 0, 63, 0
2, 23819, Note_on_c, 0, 72, 0
2, 23819, Note_on_c, 0, 43, 0
2, 23820, Note_on_c, 0, 83, 64
2, 23820, Note_on_c, 0, 31, 64
2, 23820, Note_on_c, 0, 43, 64
2, 23827, Note_on_c, 0, 79, 64
2, 23833, Note_on_c, 0, 83, 0
2, 23834, Note_on_c, 0, 79, 0
2, 23835, Note_on_c, 0, 74, 64
2, 23841, Note_on_c, 0, 43, 0
2, 23841, Note_on_c, 0, 31, 0
2, 23842, Note_on_c, 0, 71, 64
2, 23842, Note_on_c, 0, 31, 64
2, 23842, Note_on_c, 0, 43, 64
2, 23848, Note_on_c, 0, 74, 0
2, 23849, Note_on_c, 0, 71, 0
2, 23850, Note_on_c, 0, 67, 64
2, 23857, Note_on_c, 0, 62, 64
2, 23863, Note_on_c, 0, 67, 0
2, 23864, Note_on_c, 0, 62, 0
2, 23865, Note_on_c, 0, 59, 64
2, 23871, Note_on_c, 0, 31, 0
2, 23871, Note_on_c, 0, 43, 0
2, 23872, Note_on_c, 0, 71, 64
2, 23872, Note_on_c, 0, 74, 64
2, 23872, Note_on_c, 0, 80, 64
2, 23872, Note_on_c, 0, 83, 64
2, 23872, Note_on_c, 0, 29, 64
2, 23872, Note_on_c, 0, 41, 64
2, 23878, Note_on_c, 0, 59, 0
2, 23879, Note_on_c, 0, 29, 0
2, 23879, Note_on_c, 0, 74, 0
2, 23879, Note_on_c, 0, 80, 0
2, 23879, Note_on_c, 0, 71, 0
2, 23879, Note_on_c, 0, 41, 0
2, 23879, Note_on_c, 0, 83, 0
2, 23880, Note_on_c, 0, 71, 64
2, 23880, Note_on_c, 0, 74, 64
2, 23880, Note_on_c, 0, 80, 64
2, 23880, Note_on_c, 0, 83, 64
2, 23880, Note_on_c, 0, 29, 64
2, 23887, Note_on_c, 0, 35, 64
2, 23893, Note_on_c, 0, 29, 0
2, 23894, Note_on_c, 0, 35, 0
2, 23895, Note_on_c, 0, 38, 64
2, 23901, Note_on_c, 0, 80, 0
2, 23901, Note_on_c, 0, 83, 0
2, 23901, Note_on_c, 0, 71, 0
2, 23901, Note_on_c, 0, 74, 0
2, 23902, Note_on_c, 0, 71, 64
2, 23902, Note_on_c, 0, 74, 64
2, 23902, Note_on_c, 0, 79, 64
2, 23902, Note_on_c, 0, 83, 64
2, 23902, Note_on_c, 0, 41, 64
2, 23908, Note_on_c, 0, 38, 0
2, 23909, Note_on_c, 0, 41, 0
2, 23910, Note_on_c, 0, 47, 64
2, 23917, Note_on_c, 0, 50, 64
2, 23923, Note_on_c, 0, 47, 0
2, 23924, Note_on_c, 0, 50, 0
2, 23925, Note_on_c, 0, 52, 64
2, 23931, Note_on_c, 0, 83, 0
2, 23931, Note_on_c, 0, 79, 0
2, 23931, Note_on_c, 0, 71, 0
2, 23931, Note_on_c, 0, 74, 0
2, 23932, Note_on_c, 0, 71, 64
2, 23932, Note_on_c, 0, 74, 64
2, 23932, Note_on_c, 0, 79, 64
2, 23932, Note_on_c, 0, 83, 64
2, 23932, Note_on_c, 0, 53, 64
2, 23938, Note_on_c, 0, 52, 0
2, 23939, Note_on_c, 0, 74, 0
2, 23939, Note_on_c, 0, 79, 0
2, 23939, Note_on_c, 0, 71, 0
2, 23939, Note_on_c, 0, 53, 0
2, 23939, Note_on_c, 0, 83, 0
2, 23940, Note_on_c, 0, 84, 64
2, 23940, Note_on_c, 0, 40, 64
2, 23940, Note_on_c, 0, 52, 64
2, 23947, Note_on_c, 0, 79, 64
2, 23953, Note_on_c, 0, 52, 0
2, 23953, Note_on_c, 0, 84, 0
2, 23953, Note_on_c, 0, 40, 0
2, 23954, Note_on_c, 0, 79, 0
2, 23955, Note_on_c, 0, 76, 64
2, 23962, Note_on_c, 0, 72, 64
2, 23968, Note_on_c, 0, 76, 0
2, 23969, Note_on_c, 0, 72, 0
2, 23970, Note_on_c, 0, 67, 64
2, 23977, Note_on_c, 0, 64, 64
2, 23983, Note_on_c, 0, 67, 0
2, 23984, Note_on_c, 0, 64, 0
2, 23985, Note_on_c, 0, 76, 64
2, 23985, Note_on_c, 0, 67, 64
2, 23992, Note_on_c, 0, 72, 64
2, 23992, Note_on_c, 0, 64, 64
2, 23998, Note_on_c, 0, 67, 0
2, 23998, Note_on_c, 0, 76, 0
2, 23999, Note_on_c, 0, 72, 0
2, 23999, Note_on_c, 0, 64, 0
2, 24000, Note_on_c, 0, 76, 64
2, 24000, Note_on_c, 0, 60, 64
2, 24007, Note_on_c, 0, 72, 64
2, 24007, Note_on_c, 0, 55, 64
2, 24013, Note_on_c, 0, 60, 0
2, 24013, Note_on_c, 0, 76, 0
2, 24014, Note_on_c, 0, 72, 0
2, 24014, Note_on_c, 0, 55, 0
2, 24015, Note_on_c, 0, 79, 64
2, 24015, Note_on_c, 0, 52, 64
2, 24022, Note_on_c, 0, 76, 64
2, 24022, Note_on_c, 0, 48, 64
2, 24028, Note_on_c, 0, 52, 0
2, 24028, Note_on_c, 0, 79, 0
2, 24029, Note_on_c, 0, 76, 0
2, 24029, Note_on_c, 0, 48, 0
2, 24030, Note_on_c, 0, 72, 64
2, 24030, Note_on_c, 0, 64, 64
2, 24037, Note_on_c, 0, 67, 64
2, 24037, Note_on_c, 0, 60, 64
2, 24043, Note_on_c, 0, 64, 0
2, 24043, Note_on_c, 0, 72, 0
2, 24044, Note_on_c, 0, 67, 0
2, 24044, Note_on_c, 0, 60, 0
2, 24045, Note_on_c, 0, 76, 64
2, 24045, Note_on_c, 0, 55, 64
2, 24052, Note_on_c, 0, 72, 64
2, 24052, Note_on_c, 0, 52, 64
2, 24058, Note_on_c, 0, 55, 0
2, 24058, Note_on_c, 0, 76, 0
2, 24059, Note_on_c, 0, 72, 0
2, 24059, Note_on_c, 0, 52, 0
2, 24060, Note_on_c, 0, 79, 64
2, 24060, Note_on_c, 0, 64, 64
2, 24067, Note_on_c, 0, 76, 64
2, 24067, Note_on_c, 0, 60, 64
2, 24073, Note_on_c, 0, 64, 0
2, 24073, Note_on_c, 0, 79, 0
2, 24074, Note_on_c, 0, 76, 0
2, 24074, Note_on_c, 0, 60, 0
2, 24075, Note_on_c, 0, 84, 64
2, 24075, Note_on_c, 0, 55, 64
2, 24082, Note_on_c, 0, 79, 64
2, 24082, Note_on_c, 0, 52, 64
2, 24088, Note_on_c, 0, 55, 0
2, 24088, Note_on_c, 0, 84, 0
2, 24089, Note_on_c, 0, 79, 0
2, 24089, Note_on_c, 0, 52, 0
2, 24090, Note_on_c, 0, 76, 64
2, 24090, Note_on_c, 0, 60, 64
2, 24097, Note_on_c, 0, 72, 64
2, 24097, Note_on_c, 0, 55, 64
2, 24103, Note_on_c, 0, 60, 0
2, 24103, Note_on_c, 0, 76, 0
2, 24104, Note_on_c, 0, 72, 0
2, 24104, Note_on_c, 0, 55, 0
2, 24105, Note_on_c, 0, 79, 64
2, 24105, Note_on_c, 0, 52, 64
2, 24112, Note_on_c, 0, 76, 64
2, 24112, Note_on_c, 0, 48, 64
2, 24118, Note_on_c, 0, 52, 0
2, 24118, Note_on_c, 0, 79, 0
2, 24119, Note_on_c, 0, 76, 0
2, 24119, Note_on_c, 0, 48, 0
2, 24120, Note_on_c, 0, 57, 64
2, 24127, Note_on_c, 0, 55, 64
2, 24133, Note_on_c, 0, 57, 0
2, 24134, Note_on_c, 0, 55, 0
2, 24135, Note_on_c, 0, 79, 64
2, 24135, Note_on_c, 0, 52, 64
2, 24142, Note_on_c, 0, 76, 64
2, 24142, Note_on_c, 0, 49, 64
2, 24148, Note_on_c, 0, 52, 0
2, 24148, Note_on_c, 0, 79, 0
2, 24149, Note_on_c, 0, 76, 0
2, 24149, Note_on_c, 0, 49, 0
2, 24150, Note_on_c, 0, 73, 64
2, 24150, Note_on_c, 0, 45, 64
2, 24157, Note_on_c, 0, 76, 64
2, 24157, Note_on_c, 0, 55, 64
2, 24163, Note_on_c, 0, 45, 0
2, 24163, Note_on_c, 0, 73, 0
2, 24164, Note_on_c, 0, 76, 0
2, 24164, Note_on_c, 0, 55, 0
2, 24165, Note_on_c, 0, 79, 64
2, 24165, Note_on_c, 0, 52, 64
2, 24172, Note_on_c, 0, 76, 64
2, 24172, Note_on_c, 0, 49, 64
2, 24178, Note_on_c, 0, 52, 0
2, 24178, Note_on_c, 0, 79, 0
2, 24179, Note_on_c, 0, 76, 0
2, 24179, Note_on_c, 0, 49, 0
2, 24180, Note_on_c, 0, 77, 64
2, 24180, Note_on_c, 0, 57, 64
2, 24187, Note_on_c, 0, 74, 64
2, 24187, Note_on_c, 0, 53, 64
2, 24193, Note_on_c, 0, 57, 0
2, 24193, Note_on_c, 0, 77, 0
2, 24194, Note_on_c, 0, 74, 0
2, 24194, Note_on_c, 0, 53, 0
2, 24195, Note_on_c, 0, 77, 64
2, 24195, Note_on_c, 0, 50, 64
2, 24202, Note_on_c, 0, 69, 64
2, 24202, Note_on_c, 0, 53, 64
2, 24208, Note_on_c, 0, 50, 0
2, 24208, Note_on_c, 0, 77, 0
2, 24209, Note_on_c, 0, 69, 0
2, 24209, Note_on_c, 0, 53, 0
2, 24210, Note_on_c, 0, 77, 64
2, 24210, Note_on_c, 0, 50, 64
2, 24217, Note_on_c, 0, 65, 64
2, 24217, Note_on_c, 0, 62, 64
2, 24223, Note_on_c, 0, 50, 0
2, 24223, Note_on_c, 0, 77, 0
2, 24224, Note_on_c, 0, 65, 0
2, 24224, Note_on_c, 0, 62, 0
2, 24225, Note_on_c, 0, 69, 64
2, 24225, Note_on_c, 0, 65, 64
2, 24232, Note_on_c, 0, 65, 64
2, 24232, Note_on_c, 0, 62, 64
2, 24238, Note_on_c, 0, 65, 0
2, 24238, Note_on_c, 0, 69, 0
2, 24239, Note_on_c, 0, 65, 0
2, 24239, Note_on_c, 0, 62, 0
2, 24240, Note_on_c, 0, 69, 64
2, 24240, Note_on_c, 0, 65, 64
2, 24247, Note_on_c, 0, 65, 64
2, 24247, Note_on_c, 0, 62, 64
2, 24253, Note_on_c, 0, 65, 0
2, 24253, Note_on_c, 0, 69, 0
2, 24254, Note_on_c, 0, 65, 0
2, 24254, Note_on_c, 0, 62, 0
2, 24255, Note_on_c, 0, 77, 64
2, 24255, Note_on_c, 0, 57, 64
2, 24262, Note_on_c, 0, 74, 64
2, 24262, Note_on_c, 0, 53, 64
2, 24268, Note_on_c, 0, 57, 0
2, 24268, Note_on_c, 0, 77, 0
2, 24269, Note_on_c, 0, 74, 0
2, 24269, Note_on_c, 0, 53, 0
2, 24270, Note_on_c, 0, 73, 64
2, 24270, Note_on_c, 0, 65, 64
2, 24277, Note_on_c, 0, 81, 64
2, 24277, Note_on_c, 0, 62, 64
2, 24283, Note_on_c, 0, 65, 0
2, 24283, Note_on_c, 0, 73, 0
2, 24284, Note_on_c, 0, 81, 0
2, 24284, Note_on_c, 0, 62, 0
2, 24285, Note_on_c, 0, 77, 64
2, 24285, Note_on_c, 0, 57, 64
2, 24292, Note_on_c, 0, 74, 64
2, 24292, Note_on_c, 0, 53, 64
2, 24298, Note_on_c, 0, 57, 0
2, 24298, Note_on_c, 0, 77, 0
2, 24299, Note_on_c, 0, 74, 0
2, 24299, Note_on_c, 0, 53, 0
2, 24300, Note_on_c, 0, 72, 64
2, 24300, Note_on_c, 0, 55, 64
2, 24307, Note_on_c, 0, 71, 64
2, 24307, Note_on_c, 0, 65, 64
2, 24313, Note_on_c, 0, 55, 0
2, 24313, Note_on_c, 0, 72, 0
2, 24314, Note_on_c, 0, 71, 0
2, 24314, Note_on_c, 0, 65, 0
2, 24315, Note_on_c, 0, 77, 64
2, 24315, Note_on_c, 0, 62, 64
2, 24322, Note_on_c, 0, 74, 64
2, 24322, Note_on_c, 0, 59, 64
2, 24328, Note_on_c, 0, 62, 0
2, 24328, Note_on_c, 0, 77, 0
2, 24329, Note_on_c, 0, 74, 0
2, 24329, Note_on_c, 0, 59, 0
2, 24330, Note_on_c, 0, 83, 64
2, 24330, Note_on_c, 0, 55, 64
2, 24337, Note_on_c, 0, 77, 64
2, 24337, Note_on_c, 0, 59, 64
2, 24343, Note_on_c, 0, 55, 0
2, 24343, Note_on_c, 0, 83, 0
2, 24344, Note_on_c, 0, 77, 0
2, 24344, Note_on_c, 0, 59, 0
2, 24345, Note_on_c, 0, 74, 64
2, 24345, Note_on_c, 0, 62, 64
2, 24352, Note_on_c, 0, 71, 64
2, 24352, Note_on_c, 0, 65, 64
2, 24358, Note_on_c, 0, 62, 0
2, 24358, Note_on_c, 0, 74, 0
2, 24359, Note_on_c, 0, 71, 0
2, 24359, Note_on_c, 0, 65, 0
2, 24360, Note_on_c, 0, 74, 64
2, 24360, Note_on_c, 0, 56, 64
2, 24367, Note_on_c, 0, 72, 64
2, 24367, Note_on_c, 0, 68, 64
2, 24373, Note_on_c, 0, 56, 0
2, 24373, Note_on_c, 0, 74, 0
2, 24374, Note_on_c, 0, 72, 0
2, 24374, Note_on_c, 0, 68, 0
2, 24375, Note_on_c, 0, 80, 64
2, 24375, Note_on_c, 0, 65, 64
2, 24382, Note_on_c, 0, 77, 64
2, 24382, Note_on_c, 0, 60, 64
2, 24388, Note_on_c, 0, 65, 0
2, 24388, Note_on_c, 0, 80, 0
2, 24389, Note_on_c, 0, 77, 0
2, 24389, Note_on_c, 0, 60, 0
2, 24390, Note_on_c, 0, 84, 64
2, 24390, Note_on_c, 0, 57, 64
2, 24397, Note_on_c, 0, 81, 64
2, 24397, Note_on_c, 0, 60, 64
2, 24403, Note_on_c, 0, 57, 0
2, 24403, Note_on_c, 0, 84, 0
2, 24404, Note_on_c, 0, 81, 0
2, 24404, Note_on_c, 0, 60, 0
2, 24405, Note_on_c, 0, 77, 64
2, 24405, Note_on_c, 0, 65, 64
2, 24412, Note_on_c, 0, 72, 64
2, 24412, Note_on_c, 0, 69, 64
2, 24418, Note_on_c, 0, 65, 0
2, 24418, Note_on_c, 0, 77, 0
2, 24419, Note_on_c, 0, 72, 0
2, 24419, Note_on_c, 0, 69, 0
2, 24420, Note_on_c, 0, 75, 64
2, 24420, Note_on_c, 0, 58, 64
2, 24427, Note_on_c, 0, 74, 64
2, 24427, Note_on_c, 0, 70, 64
2, 24433, Note_on_c, 0, 58, 0
2, 24433, Note_on_c, 0, 75, 0
2, 24434, Note_on_c, 0, 74, 0
2, 24434, Note_on_c, 0, 70, 0
2, 24435, Note_on_c, 0, 86, 64
2, 24435, Note_on_c, 0, 58, 64
2, 24442, Note_on_c, 0, 74, 64
2, 24442, Note_on_c, 0, 70, 64
2, 24448, Note_on_c, 0, 58, 0
2, 24448, Note_on_c, 0, 86, 0
2, 24449, Note_on_c, 0, 74, 0
2, 24449, Note_on_c, 0, 70, 0
2, 24450, Note_on_c, 0, 86, 64
2, 24450, Note_on_c, 0, 58, 64
2, 24457, Note_on_c, 0, 74, 64
2, 24457, Note_on_c, 0, 70, 64
2, 24463, Note_on_c, 0, 58, 0
2, 24463, Note_on_c, 0, 86, 0
2, 24464, Note_on_c, 0, 74, 0
2, 24464, Note_on_c, 0, 70, 0
2, 24465, Note_on_c, 0, 86, 64
2, 24465, Note_on_c, 0, 59, 64
2, 24472, Note_on_c, 0, 74, 64
2, 24472, Note_on_c, 0, 79, 64
2, 24472, Note_on_c, 0, 71, 64
2, 24478, Note_on_c, 0, 59, 0
2, 24478, Note_on_c, 0, 86, 0
2, 24479, Note_on_c, 0, 79, 0
2, 24479, Note_on_c, 0, 74, 0
2, 24479, Note_on_c, 0, 71, 0
2, 24480, Note_on_c, 0, 74, 64
2, 24480, Note_on_c, 0, 79, 64
2, 24480, Note_on_c, 0, 59, 64
2, 24487, Note_on_c, 0, 76, 64
2, 24487, Note_on_c, 0, 60, 64
2, 24493, Note_on_c, 0, 59, 0
2, 24493, Note_on_c, 0, 74, 0
2, 24494, Note_on_c, 0, 60, 0
2, 24494, Note_on_c, 0, 76, 0
2, 24495, Note_on_c, 0, 77, 64
2, 24495, Note_on_c, 0, 62, 64
2, 24501, Note_on_c, 0, 79, 0
2, 24502, Note_on_c, 0, 74, 64
2, 24502, Note_on_c, 0, 77, 64
2, 24502, Note_on_c, 0, 79, 64
2, 24502, Note_on_c, 0, 59, 64
2, 24508, Note_on_c, 0, 77, 0
2, 24508, Note_on_c, 0, 62, 0
2, 24509, Note_on_c, 0, 74, 0
2, 24509, Note_on_c, 0, 77, 0
2, 24509, Note_on_c, 0, 59, 0
2, 24510, Note_on_c, 0, 71, 64
2, 24510, Note_on_c, 0, 62, 64
2, 24517, Note_on_c, 0, 72, 64
2, 24517, Note_on_c, 0, 64, 64
2, 24523, Note_on_c, 0, 62, 0
2, 24523, Note_on_c, 0, 71, 0
2, 24524, Note_on_c, 0, 64, 0
2, 24524, Note_on_c, 0, 72, 0
2, 24525, Note_on_c, 0, 74, 64
2, 24525, Note_on_c, 0, 65, 64
2, 24531, Note_on_c, 0, 79, 0
2, 24532, Note_on_c, 0, 72, 64
2, 24532, Note_on_c, 0, 79, 64
2, 24532, Note_on_c, 0, 64, 64
2, 24538, Note_on_c, 0, 65, 0
2, 24538, Note_on_c, 0, 74, 0
2, 24539, Note_on_c, 0, 64, 0
2, 24539, Note_on_c, 0, 72, 0
2, 24540, Note_on_c, 0, 74, 64
2, 24540, Note_on_c, 0, 71, 64
2, 24547, Note_on_c, 0, 76, 64
2, 24547, Note_on_c, 0, 72, 64
2, 24553, Note_on_c, 0, 71, 0
2, 24553, Note_on_c, 0, 74, 0
2, 24554, Note_on_c, 0, 72, 0
2, 24554, Note_on_c, 0, 76, 0
2, 24555, Note_on_c, 0, 77, 64
2, 24555, Note_on_c, 0, 74, 64
2, 24561, Note_on_c, 0, 79, 0
2, 24562, Note_on_c, 0, 76, 64
2, 24562, Note_on_c, 0, 79, 64
2, 24562, Note_on_c, 0, 72, 64
2, 24568, Note_on_c, 0, 74, 0
2, 24568, Note_on_c, 0, 77, 0
2, 24569, Note_on_c, 0, 79, 0
2, 24569, Note_on_c, 0, 76, 0
2, 24569, Note_on_c, 0, 72, 0
2, 24570, Note_on_c, 0, 77, 64
2, 24570, Note_on_c, 0, 74, 64
2, 24577, Note_on_c, 0, 79, 64
2, 24577, Note_on_c, 0, 76, 64
2, 24583, Note_on_c, 0, 74, 0
2, 24583, Note_on_c, 0, 77, 0
2, 24584, Note_on_c, 0, 79, 0
2, 24584, Note_on_c, 0, 76, 0
2, 24585, Note_on_c, 0, 81, 64
2, 24585, Note_on_c, 0, 77, 64
2, 24592, Note_on_c, 0, 83, 64
2, 24592, Note_on_c, 0, 74, 64
2, 24598, Note_on_c, 0, 77, 0
2, 24598, Note_on_c, 0, 81, 0
2, 24599, Note_on_c, 0, 83, 0
2, 24599, Note_on_c, 0, 74, 0
2, 24600, Note_on_c, 0, 84, 64
2, 24607, Note_on_c, 0, 79, 64
2, 24613, Note_on_c, 0, 84, 0
2, 24614, Note_on_c, 0, 79, 0
2, 24615, Note_on_c, 0, 76, 64
2, 24622, Note_on_c, 0, 72, 64
2, 24628, Note_on_c, 0, 76, 0
2, 24629, Note_on_c, 0, 72, 0
2, 24630, Note_on_c, 0, 67, 64
2, 24637, Note_on_c, 0, 64, 64
2, 24643, Note_on_c, 0, 67, 0
2, 24644, Note_on_c, 0, 64, 0
2, 24645, Note_on_c, 0, 60, 64
2, 24652, Note_on_c, 0, 55, 64
2, 24658, Note_on_c, 0, 60, 0
2, 24659, Note_on_c, 0, 55, 0
2, 24660, Note_on_c, 0, 64, 64
2, 24660, Note_on_c, 0, 67, 64
2, 24660, Note_on_c, 0, 36, 64
2, 24667, Note_on_c, 0, 40, 64
2, 24673, Note_on_c, 0, 36, 0
2, 24674, Note_on_c, 0, 40, 0
2, 24675, Note_on_c, 0, 43, 64
2, 24681, Note_on_c, 0, 67, 0
2, 24681, Note_on_c, 0, 64, 0
2, 24682, Note_on_c, 0, 64, 64
2, 24682, Note_on_c, 0, 67, 64
2, 24682, Note_on_c, 0, 48, 64
2, 24688, Note_on_c, 0, 43, 0
2, 24689, Note_on_c, 0, 48, 0
2, 24690, Note_on_c, 0, 52, 64
2, 24697, Note_on_c, 0, 55, 64
2, 24703, Note_on_c, 0, 52, 0
2, 24704, Note_on_c, 0, 55, 0
2, 24705, Note_on_c, 0, 59, 64
2, 24711, Note_on_c, 0, 67, 0
2, 24711, Note_on_c, 0, 64, 0
2, 24712, Note_on_c, 0, 64, 64
2, 24712, Note_on_c, 0, 67, 64
2, 24712, Note_on_c, 0, 60, 64
2, 24718, Note_on_c, 0, 59, 0
2, 24719, Note_on_c, 0, 64, 0
2, 24719, Note_on_c, 0, 67, 0
2, 24719, Note_on_c, 0, 60, 0
2, 24720, Note_on_c, 0, 65, 64
2, 24720, Note_on_c, 0, 67, 64
2, 24720, Note_on_c, 0, 38, 64
2, 24727, Note_on_c, 0, 43, 64
2, 24733, Note_on_c, 0, 38, 0
2, 24734, Note_on_c, 0, 43, 0
2, 24735, Note_on_c, 0, 47, 64
2, 24741, Note_on_c, 0, 67, 0
2, 24741, Note_on_c, 0, 65, 0
2, 24742, Note_on_c, 0, 65, 64
2, 24742, Note_on_c, 0, 67, 64
2, 24742, Note_on_c, 0, 50, 64
2, 24748, Note_on_c, 0, 47, 0
2, 24749, Note_on_c, 0, 50, 0
2, 24750, Note_on_c, 0, 55, 64
2, 24757, Note_on_c, 0, 59, 64
2, 24763, Note_on_c, 0, 55, 0
2, 24764, Note_on_c, 0, 59, 0
2, 24765, Note_on_c, 0, 61, 64
2, 24771, Note_on_c, 0, 67, 0
2, 24771, Note_on_c, 0, 65, 0
2, 24772, Note_on_c, 0, 65, 64
2, 24772, Note_on_c, 0, 67, 64
2, 24772, Note_on_c, 0, 62, 64
2, 24778, Note_on_c, 0, 61, 0
2, 24779, Note_on_c, 0, 65, 0
2, 24779, Note_on_c, 0, 67, 0
2, 24779, Note_on_c, 0, 62, 0
2, 24780, Note_on_c, 0, 89, 64
2, 24787, Note_on_c, 0, 86, 64
2, 24793, Note_on_c, 0, 89, 0
2, 24794, Note_on_c, 0, 86, 0
2, 24795, Note_on_c, 0, 83, 64
2, 24802, Note_on_c, 0, 79, 64
2, 24808, Note_on_c, 0, 83, 0
2, 24809, Note_on_c, 0, 79, 0
2, 24810, Note_on_c, 0, 77, 64
2, 24817, Note_on_c, 0, 74, 64
2, 24823, Note_on_c, 0, 77, 0
2, 24824, Note_on_c, 0, 74, 0
2, 24825, Note_on_c, 0, 71, 64
2, 24832, Note_on_c, 0, 67, 64
2, 24838, Note_on_c, 0, 71, 0
2, 24839, Note_on_c, 0, 67, 0
2, 24840, Note_on_c, 0, 65, 64
2, 24840, Note_on_c, 0, 67, 64
2, 24840, Note_on_c, 0, 38, 64
2, 24847, Note_on_c, 0, 43, 64
2, 24853, Note_on_c, 0, 38, 0
2, 24854, Note_on_c, 0, 43, 0
2, 24855, Note_on_c, 0, 47, 64
2, 24861, Note_on_c, 0, 67, 0
2, 24861, Note_on_c, 0, 65, 0
2, 24862, Note_on_c, 0, 65, 64
2, 24862, Note_on_c, 0, 67, 64
2, 24862, Note_on_c, 0, 50, 64
2, 24868, Note_on_c, 0, 47, 0
2, 24869, Note_on_c, 0, 50, 0
2, 24870, Note_on_c, 0, 55, 64
2, 24877, Note_on_c, 0, 59, 64
2, 24883, Note_on_c, 0, 55, 0
2, 24884, Note_on_c, 0, 59, 0
2, 24885, Note_on_c, 0, 61, 64
2, 24891, Note_on_c, 0, 67, 0
2, 24891, Note_on_c, 0, 65, 0
2, 24892, Note_on_c, 0, 65, 64
2, 24892, Note_on_c, 0, 67, 64
2, 24892, Note_on_c, 0, 62, 64
2, 24898, Note_on_c, 0, 61, 0
2, 24899, Note_on_c, 0, 65, 0
2, 24899, Note_on_c, 0, 67, 0
2, 24899, Note_on_c, 0, 62, 0
2, 24900, Note_on_c, 0, 67, 64
2, 24900, Note_on_c, 0, 40, 64
2, 24907, Note_on_c, 0, 43, 64
2, 24913, Note_on_c, 0, 40, 0
2, 24914, Note_on_c, 0, 43, 0
2, 24915, Note_on_c, 0, 48, 64
2, 24921, Note_on_c, 0, 67, 0
2, 24922, Note_on_c, 0, 67, 64
2, 24922, Note_on_c, 0, 52, 64
2, 24928, Note_on_c, 0, 48, 0
2, 24929, Note_on_c, 0, 52, 0
2, 24930, Note_on_c, 0, 55, 64
2, 24937, Note_on_c, 0, 60, 64
2, 24943, Note_on_c, 0, 55, 0
2, 24944, Note_on_c, 0, 60, 0
2, 24945, Note_on_c, 0, 62, 64
2, 24951, Note_on_c, 0, 67, 0
2, 24952, Note_on_c, 0, 67, 64
2, 24952, Note_on_c, 0, 64, 64
2, 24958, Note_on_c, 0, 62, 0
2, 24959, Note_on_c, 0, 64, 0
2, 24959, Note_on_c, 0, 67, 0
2, 24960, Note_on_c, 0, 91, 64
2, 24967, Note_on_c, 0, 88, 64
2, 24973, Note_on_c, 0, 91, 0
2, 24974, Note_on_c, 0, 88, 0
2, 24975, Note_on_c, 0, 84, 64
2, 24982, Note_on_c, 0, 79, 64
2, 24988, Note_on_c, 0, 84, 0
2, 24989, Note_on_c, 0, 79, 0
2, 24990, Note_on_c, 0, 76, 64
2, 24997, Note_on_c, 0, 72, 64
2, 25003, Note_on_c, 0, 76, 0
2, 25004, Note_on_c, 0, 72, 0
2, 25005, Note_on_c, 0, 71, 64
2, 25012, Note_on_c, 0, 79, 64
2, 25018, Note_on_c, 0, 71, 0
2, 25019, Note_on_c, 0, 79, 0
2, 25020, Note_on_c, 0, 67, 64
2, 25020, Note_on_c, 0, 70, 64
2, 25020, Note_on_c, 0, 73, 64
2, 25020, Note_on_c, 0, 79, 64
2, 25020, Note_on_c, 0, 40, 64
2, 25027, Note_on_c, 0, 46, 64
2, 25033, Note_on_c, 0, 40, 0
2, 25034, Note_on_c, 0, 46, 0
2, 25035, Note_on_c, 0, 49, 64
2, 25041, Note_on_c, 0, 73, 0
2, 25041, Note_on_c, 0, 79, 0
2, 25041, Note_on_c, 0, 67, 0
2, 25041, Note_on_c, 0, 70, 0
2, 25042, Note_on_c, 0, 67, 64
2, 25042, Note_on_c, 0, 70, 64
2, 25042, Note_on_c, 0, 73, 64
2, 25042, Note_on_c, 0, 79, 64
2, 25042, Note_on_c, 0, 52, 64
2, 25048, Note_on_c, 0, 49, 0
2, 25049, Note_on_c, 0, 73, 0
2, 25049, Note_on_c, 0, 52, 0
2, 25050, Note_on_c, 0, 70, 0
2, 25050, Note_on_c, 0, 71, 64
2, 25050, Note_on_c, 0, 74, 64
2, 25050, Note_on_c, 0, 53, 64
2, 25057, Note_on_c, 0, 59, 64
2, 25063, Note_on_c, 0, 53, 0
2, 25064, Note_on_c, 0, 59, 0
2, 25065, Note_on_c, 0, 62, 64
2, 25071, Note_on_c, 0, 71, 0
2, 25071, Note_on_c, 0, 74, 0
2, 25071, Note_on_c, 0, 67, 0
2, 25071, Note_on_c, 0, 79, 0
2, 25072, Note_on_c, 0, 67, 64
2, 25072, Note_on_c, 0, 71, 64
2, 25072, Note_on_c, 0, 74, 64
2, 25072, Note_on_c, 0, 79, 64
2, 25072, Note_on_c, 0, 65, 64
2, 25078, Note_on_c, 0, 62, 0
2, 25079, Note_on_c, 0, 71, 0
2, 25079, Note_on_c, 0, 74, 0
2, 25079, Note_on_c, 0, 67, 0
2, 25079, Note_on_c, 0, 65, 0
2, 25079, Note_on_c, 0, 79, 0
2, 25080, Note_on_c, 0, 67, 64
2, 25080, Note_on_c, 0, 71, 64
2, 25080, Note_on_c, 0, 79, 64
2, 25080, Note_on_c, 0, 51, 64
2, 25087, Note_on_c, 0, 55, 64
2, 25093, Note_on_c, 0, 51, 0
2, 25094, Note_on_c, 0, 55, 0
2, 25095, Note_on_c, 0, 59, 64
2, 25101, Note_on_c, 0, 67, 0
2, 25101, Note_on_c, 0, 79, 0
2, 25101, Note_on_c, 0, 71, 0
2, 25102, Note_on_c, 0, 67, 64
2, 25102, Note_on_c, 0, 71, 64
2, 25102, Note_on_c, 0, 79, 64
2, 25102, Note_on_c, 0, 63, 64
2, 25108, Note_on_c, 0, 59, 0
2, 25109, Note_on_c, 0, 63, 0
2, 25109, Note_on_c, 0, 71, 0
2, 25110, Note_on_c, 0, 72, 64
2, 25110, Note_on_c, 0, 52, 64
2, 25117, Note_on_c, 0, 55, 64
2, 25123, Note_on_c, 0, 52, 0
2, 25124, Note_on_c, 0, 55, 0
2, 25125, Note_on_c, 0, 60, 64
2, 25131, Note_on_c, 0, 79, 0
2, 25131, Note_on_c, 0, 72, 0
2, 25131, Note_on_c, 0, 67, 0
2, 25132, Note_on_c, 0, 67, 64
2, 25132, Note_on_c, 0, 72, 64
2, 25132, Note_on_c, 0, 79, 64
2, 25132, Note_on_c, 0, 64, 64
2, 25138, Note_on_c, 0, 60, 0
2, 25139, Note_on_c, 0, 79, 0
2, 25139, Note_on_c, 0, 67, 0
2, 25139, Note_on_c, 0, 72, 0
2, 25139, Note_on_c, 0, 64, 0
2, 25140, Note_on_c, 0, 76, 64
2, 25140, Note_on_c, 0, 79, 64
2, 25140, Note_on_c, 0, 88, 64
2, 25140, Note_on_c, 0, 48, 64
2, 25147, Note_on_c, 0, 52, 64
2, 25153, Note_on_c, 0, 48, 0
2, 25154, Note_on_c, 0, 52, 0
2, 25155, Note_on_c, 0, 55, 64
2, 25161, Note_on_c, 0, 76, 0
2, 25161, Note_on_c, 0, 88, 0
2, 25161, Note_on_c, 0, 79, 0
2, 25162, Note_on_c, 0, 76, 64
2, 25162, Note_on_c, 0, 79, 64
2, 25162, Note_on_c, 0, 88, 64
2, 25162, Note_on_c, 0, 60, 64
2, 25168, Note_on_c, 0, 55, 0
2, 25169, Note_on_c, 0, 60, 0
2, 25170, Note_on_c, 0, 36, 64
2, 25177, Note_on_c, 0, 40, 64
2, 25183, Note_on_c, 0, 36, 0
2, 25184, Note_on_c, 0, 40, 0
2, 25185, Note_on_c, 0, 43, 64
2, 25191, Note_on_c, 0, 88, 0
2, 25191, Note_on_c, 0, 76, 0
2, 25191, Note_on_c, 0, 79, 0
2, 25192, Note_on_c, 0, 72, 64
2, 25192, Note_on_c, 0, 76, 64
2, 25192, Note_on_c, 0, 84, 64
2, 25192, Note_on_c, 0, 48, 64
2, 25198, Note_on_c, 0, 43, 0
2, 25199, Note_on_c, 0, 84, 0
2, 25199, Note_on_c, 0, 72, 0
2, 25199, Note_on_c, 0, 76, 0
2, 25199, Note_on_c, 0, 48, 0
2, 25200, Note_on_c, 0, 84, 64
2, 25200, Note_on_c, 0, 31, 64
2, 25200, Note_on_c, 0, 43, 64
2, 25207, Note_on_c, 0, 81, 64
2, 25213, Note_on_c, 0, 84, 0
2, 25214, Note_on_c, 0, 81, 0
2, 25215, Note_on_c, 0, 78, 64
2, 25221, Note_on_c, 0, 43, 0
2, 25221, Note_on_c, 0, 31, 0
2, 25222, Note_on_c, 0, 75, 64
2, 25222, Note_on_c, 0, 31, 64
2, 25222, Note_on_c, 0, 43, 64
2, 25228, Note_on_c, 0, 78, 0
2, 25229, Note_on_c, 0, 75, 0
2, 25230, Note_on_c, 0, 72, 64
2, 25237, Note_on_c, 0, 69, 64
2, 25243, Note_on_c, 0, 72, 0
2, 25244, Note_on_c, 0, 69, 0
2, 25245, Note_on_c, 0, 65, 64
2, 25251, Note_on_c, 0, 31, 0
2, 25251, Note_on_c, 0, 43, 0
2, 25252, Note_on_c, 0, 63, 64
2, 25252, Note_on_c, 0, 72, 64
2, 25252, Note_on_c, 0, 31, 64
2, 25252, Note_on_c, 0, 43, 64
2, 25258, Note_on_c, 0, 65, 0
2, 25259, Note_on_c, 0, 31, 0
2, 25259, Note_on_c, 0, 63, 0
2, 25259, Note_on_c, 0, 72, 0
2, 25259, Note_on_c, 0, 43, 0
2, 25260, Note_on_c, 0, 83, 64
2, 25260, Note_on_c, 0, 31, 64
2, 25260, Note_on_c, 0, 43, 64
2, 25267, Note_on_c, 0, 79, 64
2, 25273, Note_on_c, 0, 83, 0
2, 25274, Note_on_c, 0, 79, 0
2, 25275, Note_on_c, 0, 74, 64
2, 25281, Note_on_c, 0, 43, 0
2, 25281, Note_on_c, 0, 31, 0
2, 25282, Note_on_c, 0, 71, 64
2, 25282, Note_on_c, 0, 31, 64
2, 25282, Note_on_c, 0, 43, 64
2, 25288, Note_on_c, 0, 74, 0
2, 25289, Note_on_c, 0, 71, 0
2, 25290, Note_on_c, 0, 67, 64
2, 25297, Note_on_c, 0, 62, 64
2, 25303, Note_on_c, 0, 67, 0
2, 25304, Note_on_c, 0, 62, 0
2, 25305, Note_on_c, 0, 59, 64
2, 25311, Note_on_c, 0, 31, 0
2, 25311, Note_on_c, 0, 43, 0
2, 25312, Note_on_c, 0, 71, 64
2, 25312, Note_on_c, 0, 74, 64
2, 25312, Note_on_c, 0, 80, 64
2, 25312, Note_on_c, 0, 83, 64
2, 25312, Note_on_c, 0, 29, 64
2, 25312, Note_on_c, 0, 41, 64
2, 25318, Note_on_c, 0, 59, 0
2, 25319, Note_on_c, 0, 29, 0
2, 25319, Note_on_c, 0, 74, 0
2, 25319, Note_on_c, 0, 80, 0
2, 25319, Note_on_c, 0, 71, 0
2, 25319, Note_on_c, 0, 41, 0
2, 25319, Note_on_c, 0, 83, 0
2, 25320, Note_on_c, 0, 71, 64
2, 25320, Note_on_c, 0, 74, 64
2, 25320, Note_on_c, 0, 80, 64
2, 25320, Note_on_c, 0, 83, 64
2, 25320, Note_on_c, 0, 29, 64
2, 25327, Note_on_c, 0, 35, 64
2, 25333, Note_on_c, 0, 29, 0
2, 25334, Note_on_c, 0, 35, 0
2, 25335, Note_on_c, 0, 38, 64
2, 25341, Note_on_c, 0, 80, 0
2, 25341, Note_on_c, 0, 83, 0
2, 25341, Note_on_c, 0, 71, 0
2, 25341, Note_on_c, 0, 74, 0
2, 25342, Note_on_c, 0, 71, 64
2, 25342, Note_on_c, 0, 74, 64
2, 25342, Note_on_c, 0, 79, 64
2, 25342, Note_on_c, 0, 83, 64
2, 25342, Note_on_c, 0, 41, 64
2, 25348, Note_on_c, 0, 38, 0
2, 25349, Note_on_c, 0, 41, 0
2, 25350, Note_on_c, 0, 47, 64
2, 25357, Note_on_c, 0, 50, 64
2, 25363, Note_on_c, 0, 47, 0
2, 25364, Note_on_c, 0, 50, 0
2, 25365, Note_on_c, 0, 52, 64
2, 25371, Note_on_c, 0, 83, 0
2, 25371, Note_on_c, 0, 79, 0
2, 25371, Note_on_c, 0, 71, 0
2, 25371, Note_on_c, 0, 74, 0
2, 25372, Note_on_c, 0, 71, 64
2, 25372, Note_on_c, 0, 74, 64
2, 25372, Note_on_c, 0, 79, 64
2, 25372, Note_on_c, 0, 83, 64
2, 25372, Note_on_c, 0, 53, 64
2, 25378, Note_on_c, 0, 52, 0
2, 25379, Note_on_c, 0, 74, 0
2, 25379, Note_on_c, 0, 79, 0
2, 25379, Note_on_c, 0, 71, 0
2, 25379, Note_on_c, 0, 53, 0
2, 25379, Note_on_c, 0, 83, 0
2, 25380, Note_on_c, 0, 84, 64
2, 25380, Note_on_c, 0, 40, 64
2, 25380, Note_on_c, 0, 52, 64
2, 25387, Note_on_c, 0, 79, 64
2, 25393, Note_on_c, 0, 52, 0
2, 25393, Note_on_c, 0, 84, 0
2, 25393, Note_on_c, 0, 40, 0
2, 25394, Note_on_c, 0, 79, 0
2, 25395, Note_on_c, 0, 76, 64
2, 25402, Note_on_c, 0, 72, 64
2, 25408, Note_on_c, 0, 76, 0
2, 25409, Note_on_c, 0, 72, 0
2, 25410, Note_on_c, 0, 67, 64
2, 25417, Note_on_c, 0, 64, 64
2, 25423, Note_on_c, 0, 67, 0
2, 25424, Note_on_c, 0, 64, 0
2, 25425, Note_on_c, 0, 76, 64
2, 25425, Note_on_c, 0, 67, 64
2, 25432, Note_on_c, 0, 72, 64
2, 25432, Note_on_c, 0, 64, 64
2, 25438, Note_on_c, 0, 67, 0
2, 25438, Note_on_c, 0, 76, 0
2, 25439, Note_on_c, 0, 72, 0
2, 25439, Note_on_c, 0, 64, 0
2, 25440, Note_on_c, 0, 76, 64
2, 25440, Note_on_c, 0, 60, 64
2, 25447, Note_on_c, 0, 72, 64
2, 25447, Note_on_c, 0, 55, 64
2, 25453, Note_on_c, 0, 60, 0
2, 25453, Note_on_c, 0, 76, 0
2, 25454, Note_on_c, 0, 72, 0
2, 25454, Note_on_c, 0, 55, 0
2, 25455, Note_on_c, 0, 79, 64
2, 25455, Note_on_c, 0, 52, 64
2, 25462, Note_on_c, 0, 76, 64
2, 25462, Note_on_c, 0, 48, 64
2, 25468, Note_on_c, 0, 52, 0
2, 25468, Note_on_c, 0, 79, 0
2, 25469, Note_on_c, 0, 76, 0
2, 25469, Note_on_c, 0, 48, 0
2, 25470, Note_on_c, 0, 72, 64
2, 25470, Note_on_c, 0, 64, 64
2, 25477, Note_on_c, 0, 67, 64
2, 25477, Note_on_c, 0, 60, 64
2, 25483, Note_on_c, 0, 64, 0
2, 25483, Note_on_c, 0, 72, 0
2, 25484, Note_on_c, 0, 67, 0
2, 25484, Note_on_c, 0, 60, 0
2, 25485, Note_on_c, 0, 76, 64
2, 25485, Note_on_c, 0, 55, 64
2, 25492, Note_on_c, 0, 72, 64
2, 25492, Note_on_c, 0, 52, 64
2, 25498, Note_on_c, 0, 55, 0
2, 25498, Note_on_c, 0, 76, 0
2, 25499, Note_on_c, 0, 72, 0
2, 25499, Note_on_c, 0, 52, 0
2, 25500, Note_on_c, 0, 79, 64
2, 25500, Note_on_c, 0, 64, 64
2, 25507, Note_on_c, 0, 76, 64
2, 25507, Note_on_c, 0, 60, 64
2, 25513, Note_on_c, 0, 64, 0
2, 25513, Note_on_c, 0, 79, 0
2, 25514, Note_on_c, 0, 76, 0
2, 25514, Note_on_c, 0, 60, 0
2, 25515, Note_on_c, 0, 84, 64
2, 25515, Note_on_c, 0, 55, 64
2, 25522, Note_on_c, 0, 79, 64
2, 25522, Note_on_c, 0, 52, 64
2, 25528, Note_on_c, 0, 55, 0
2, 25528, Note_on_c, 0, 84, 0
2, 25529, Note_on_c, 0, 79, 0
2, 25529, Note_on_c, 0, 52, 0
2, 25530, Note_on_c, 0, 76, 64
2, 25530, Note_on_c, 0, 60, 64
2, 25537, Note_on_c, 0, 72, 64
2, 25537, Note_on_c, 0, 55, 64
2, 25543, Note_on_c, 0, 60, 0
2, 25543, Note_on_c, 0, 76, 0
2, 25544, Note_on_c, 0, 72, 0
2, 25544, Note_on_c, 0, 55, 0
2, 25545, Note_on_c, 0, 79, 64
2, 25545, Note_on_c, 0, 52, 64
2, 25552, Note_on_c, 0, 76, 64
2, 25552, Note_on_c, 0, 48, 64
2, 25558, Note_on_c, 0, 52, 0
2, 25558, Note_on_c, 0, 79, 0
2, 25559, Note_on_c, 0, 76, 0
2, 25559, Note_on_c, 0, 48, 0
2, 25560, Note_on_c, 0, 57, 64
2, 25567, Note_on_c, 0, 55, 64
2, 25573, Note_on_c, 0, 57, 0
2, 25574, Note_on_c, 0, 55, 0
2, 25575, Note_on_c, 0, 79, 64
2, 25575, Note_on_c, 0, 52, 64
2, 25582, Note_on_c, 0, 76, 64
2, 25582, Note_on_c, 0, 49, 64
2, 25588, Note_on_c, 0, 52, 0
2, 25588, Note_on_c, 0, 79, 0
2, 25589, Note_on_c, 0, 76, 0
2, 25589, Note_on_c, 0, 49, 0
2, 25590, Note_on_c, 0, 73, 64
2, 25590, Note_on_c, 0, 45, 64
2, 25597, Note_on_c, 0, 76, 64
2, 25597, Note_on_c, 0, 55, 64
2, 25603, Note_on_c, 0, 45, 0
2, 25603, Note_on_c, 0, 73, 0
2, 25604, Note_on_c, 0, 76, 0
2, 25604, Note_on_c, 0, 55, 0
2, 25605, Note_on_c, 0, 79, 64
2, 25605, Note_on_c, 0, 52, 64
2, 25612, Note_on_c, 0, 76, 64
2, 25612, Note_on_c, 0, 49, 64
2, 25618, Note_on_c, 0, 52, 0
2, 25618, Note_on_c, 0, 79, 0
2, 25619, Note_on_c, 0, 76, 0
2, 25619, Note_on_c, 0, 49, 0
2, 25620, Note_on_c, 0, 77, 64
2, 25620, Note_on_c, 0, 57, 64
2, 25627, Note_on_c, 0, 74, 64
2, 25627, Note_on_c, 0, 53, 64
2, 25633, Note_on_c, 0, 57, 0
2, 25633, Note_on_c, 0, 77, 0
2, 25634, Note_on_c, 0, 74, 0
2, 25634, Note_on_c, 0, 53, 0
2, 25635, Note_on_c, 0, 77, 64
2, 25635, Note_on_c, 0, 50, 64
2, 25642, Note_on_c, 0, 69, 64
2, 25642, Note_on_c, 0, 53, 64
2, 25648, Note_on_c, 0, 50, 0
2, 25648, Note_on_c, 0, 77, 0
2, 25649, Note_on_c, 0, 69, 0
2, 25649, Note_on_c, 0, 53, 0
2, 25650, Note_on_c, 0, 77, 64
2, 25650, Note_on_c, 0, 50, 64
2, 25657, Note_on_c, 0, 65, 64
2, 25657, Note_on_c, 0, 62, 64
2, 25663, Note_on_c, 0, 50, 0
2, 25663, Note_on_c, 0, 77, 0
2, 25664, Note_on_c, 0, 65, 0
2, 25664, Note_on_c, 0, 62, 0
2, 25665, Note_on_c, 0, 69, 64
2, 25665, Note_on_c, 0, 65, 64
2, 25672, Note_on_c, 0, 65, 64
2, 25672, Note_on_c, 0, 62, 64
2, 25678, Note_on_c, 0, 65, 0
2, 25678, Note_on_c, 0, 69, 0
2, 25679, Note_on_c, 0, 65, 0
2, 25679, Note_on_c, 0, 62, 0
2, 25680, Note_on_c, 0, 69, 64
2, 25680, Note_on_c, 0, 65, 64
2, 25687, Note_on_c, 0, 65, 64
2, 25687, Note_on_c, 0, 62, 64
2, 25693, Note_on_c, 0, 65, 0
2, 25693, Note_on_c, 0, 69, 0
2, 25694, Note_on_c, 0, 65, 0
2, 25694, Note_on_c, 0, 62, 0
2, 25695, Note_on_c, 0, 77, 64
2, 25695, Note_on_c, 0, 57, 64
2, 25702, Note_on_c, 0, 74, 64
2, 25702, Note_on_c, 0, 53, 64
2, 25708, Note_on_c, 0, 57, 0
2, 25708, Note_on_c, 0, 77, 0
2, 25709, Note_on_c, 0, 74, 0
2, 25709, Note_on_c, 0, 53, 0
2, 25710, Note_on_c, 0, 73, 64
2, 25710, Note_on_c, 0, 65, 64
2, 25717, Note_on_c, 0, 81, 64
2, 25717, Note_on_c, 0, 62, 64
2, 25723, Note_on_c, 0, 65, 0
2, 25723, Note_on_c, 0, 73, 0
2, 25724, Note_on_c, 0, 81, 0
2, 25724, Note_on_c, 0, 62, 0
2, 25725, Note_on_c, 0, 77, 64
2, 25725, Note_on_c, 0, 57, 64
2, 25732, Note_on_c, 0, 74, 64
2, 25732, Note_on_c, 0, 53, 64
2, 25738, Note_on_c, 0, 57, 0
2, 25738, Note_on_c, 0, 77, 0
2, 25739, Note_on_c, 0, 74, 0
2, 25739, Note_on_c, 0, 53, 0
2, 25740, Note_on_c, 0, 72, 64
2, 25740, Note_on_c, 0, 55, 64
2, 25747, Note_on_c, 0, 71, 64
2, 25747, Note_on_c, 0, 65, 64
2, 25753, Note_on_c, 0, 55, 0
2, 25753, Note_on_c, 0, 72, 0
2, 25754, Note_on_c, 0, 71, 0
2, 25754, Note_on_c, 0, 65, 0
2, 25755, Note_on_c, 0, 77, 64
2, 25755, Note_on_c, 0, 62, 64
2, 25762, Note_on_c, 0, 74, 64
2, 25762, Note_on_c, 0, 59, 64
2, 25768, Note_on_c, 0, 62, 0
2, 25768, Note_on_c, 0, 77, 0
2, 25769, Note_on_c, 0, 74, 0
2, 25769, Note_on_c, 0, 59, 0
2, 25770, Note_on_c, 0, 83, 64
2, 25770, Note_on_c, 0, 55, 64
2, 25777, Note_on_c, 0, 77, 64
2, 25777, Note_on_c, 0, 59, 64
2, 25783, Note_on_c, 0, 55, 0
2, 25783, Note_on_c, 0, 83, 0
2, 25784, Note_on_c, 0, 77, 0
2, 25784, Note_on_c, 0, 59, 0
2, 25785, Note_on_c, 0, 74, 64
2, 25785, Note_on_c, 0, 62, 64
2, 25792, Note_on_c, 0, 71, 64
2, 25792, Note_on_c, 0, 65, 64
2, 25798, Note_on_c, 0, 62, 0
2, 25798, Note_on_c, 0, 74, 0
2, 25799, Note_on_c, 0, 71, 0
2, 25799, Note_on_c, 0, 65, 0
2, 25800, Note_on_c, 0, 74, 64
2, 25800, Note_on_c, 0, 56, 64
2, 25807, Note_on_c, 0, 72, 64
2, 25807, Note_on_c, 0, 68, 64
2, 25813, Note_on_c, 0, 56, 0
2, 25813, Note_on_c, 0, 74, 0
2, 25814, Note_on_c, 0, 72, 0
2, 25814, Note_on_c, 0, 68, 0
2, 25815, Note_on_c, 0, 80, 64
2, 25815, Note_on_c, 0, 65, 64
2, 25822, Note_on_c, 0, 77, 64
2, 25822, Note_on_c, 0, 60, 64
2, 25828, Note_on_c, 0, 65, 0
2, 25828, Note_on_c, 0, 80, 0
2, 25829, Note_on_c, 0, 77, 0
2, 25829, Note_on_c, 0, 60, 0
2, 25830, Note_on_c, 0, 84, 64
2, 25830, Note_on_c, 0, 57, 64
2, 25837, Note_on_c, 0, 81, 64
2, 25837, Note_on_c, 0, 60, 64
2, 25843, Note_on_c, 0, 57, 0
2, 25843, Note_on_c, 0, 84, 0
2, 25844, Note_on_c, 0, 81, 0
2, 25844, Note_on_c, 0, 60, 0
2, 25845, Note_on_c, 0, 77, 64
2, 25845, Note_on_c, 0, 65, 64
2, 25852, Note_on_c, 0, 72, 64
2, 25852, Note_on_c, 0, 69, 64
2, 25858, Note_on_c, 0, 65, 0
2, 25858, Note_on_c, 0, 77, 0
2, 25859, Note_on_c, 0, 72, 0
2, 25859, Note_on_c, 0, 69, 0
2, 25860, Note_on_c, 0, 75, 64
2, 25860, Note_on_c, 0, 58, 64
2, 25867, Note_on_c, 0, 74, 64
2, 25867, Note_on_c, 0, 70, 64
2, 25873, Note_on_c, 0, 58, 0
2, 25873, Note_on_c, 0, 75, 0
2, 25874, Note_on_c, 0, 74, 0
2, 25874, Note_on_c, 0, 70, 0
2, 25875, Note_on_c, 0, 86, 64
2, 25875, Note_on_c, 0, 58, 64
2, 25882, Note_on_c, 0, 74, 64
2, 25882, Note_on_c, 0, 70, 64
2, 25888, Note_on_c, 0, 58, 0
2, 25888, Note_on_c, 0, 86, 0
2, 25889, Note_on_c, 0, 74, 0
2, 25889, Note_on_c, 0, 70, 0
2, 25890, Note_on_c, 0, 86, 64
2, 25890, Note_on_c, 0, 58, 64
2, 25897, Note_on_c, 0, 74, 64
2, 25897, Note_on_c, 0, 70, 64
2, 25903, Note_on_c, 0, 58, 0
2, 25903, Note_on_c, 0, 86, 0
2, 25904, Note_on_c, 0, 74, 0
2, 25904, Note_on_c, 0, 70, 0
2, 25905, Note_on_c, 0, 86, 64
2, 25905, Note_on_c, 0, 59, 64
2, 25912, Note_on_c, 0, 74, 64
2, 25912, Note_on_c, 0, 79, 64
2, 25912, Note_on_c, 0, 71, 64
2, 25918, Note_on_c, 0, 59, 0
2, 25918, Note_on_c, 0, 86, 0
2, 25919, Note_on_c, 0, 79, 0
2, 25919, Note_on_c, 0, 74, 0
2, 25919, Note_on_c, 0, 71, 0
2, 25920, Note_on_c, 0, 64, 64
2, 25920, Note_on_c, 0, 72, 64
2, 25920, Note_on_c, 0, 33, 64
2, 25927, Note_on_c, 0, 36, 64
2, 25934, Note_on_c, 0, 36, 0
2, 25934, Note_on_c, 0, 33, 0
2, 25935, Note_on_c, 0, 40, 64
2, 25941, Note_on_c, 0, 72, 0
2, 25941, Note_on_c, 0, 64, 0
2, 25942, Note_on_c, 0, 64, 64
2, 25942, Note_on_c, 0, 72, 64
2, 25942, Note_on_c, 0, 44, 64
2, 25948, Note_on_c, 0, 40, 0
2, 25949, Note_on_c, 0, 44, 0
2, 25950, Note_on_c, 0, 45, 64
2, 25957, Note_on_c, 0, 48, 64
2, 25963, Note_on_c, 0, 45, 0
2, 25964, Note_on_c, 0, 48, 0
2, 25965, Note_on_c, 0, 52, 64
2, 25971, Note_on_c, 0, 72, 0
2, 25971, Note_on_c, 0, 64, 0
2, 25972, Note_on_c, 0, 64, 64
2, 25972, Note_on_c, 0, 72, 64
2, 25972, Note_on_c, 0, 56, 64
2, 25978, Note_on_c, 0, 52, 0
2, 25979, Note_on_c, 0, 64, 0
2, 25979, Note_on_c, 0, 72, 0
2, 25979, Note_on_c, 0, 56, 0
2, 25980, Note_on_c, 0, 84, 64
2, 25980, Note_on_c, 0, 57, 64
2, 25987, Note_on_c, 0, 80, 64
2, 25993, Note_on_c, 0, 84, 0
2, 25994, Note_on_c, 0, 80, 0
2, 25995, Note_on_c, 0, 81, 64
2, 26001, Note_on_c, 0, 57, 0
2, 26002, Note_on_c, 0, 76, 64
2, 26002, Note_on_c, 0, 57, 64
2, 26002, Note_on_c, 0, 60, 64
2, 26002, Note_on_c, 0, 64, 64
2, 26008, Note_on_c, 0, 81, 0
2, 26009, Note_on_c, 0, 76, 0
2, 26010, Note_on_c, 0, 74, 64
2, 26017, Note_on_c, 0, 72, 64
2, 26023, Note_on_c, 0, 74, 0
2, 26024, Note_on_c, 0, 72, 0
2, 26025, Note_on_c, 0, 76, 64
2, 26031, Note_on_c, 0, 64, 0
2, 26031, Note_on_c, 0, 60, 0
2, 26031, Note_on_c, 0, 57, 0
2, 26032, Note_on_c, 0, 72, 64
2, 26032, Note_on_c, 0, 57, 64
2, 26032, Note_on_c, 0, 60, 64
2, 26032, Note_on_c, 0, 64, 64
2, 26038, Note_on_c, 0, 76, 0
2, 26039, Note_on_c, 0, 72, 0
2, 26040, Note_on_c, 0, 71, 64
2, 26047, Note_on_c, 0, 69, 64
2, 26053, Note_on_c, 0, 71, 0
2, 26054, Note_on_c, 0, 69, 0
2, 26055, Note_on_c, 0, 72, 64
2, 26061, Note_on_c, 0, 64, 0
2, 26061, Note_on_c, 0, 60, 0
2, 26061, Note_on_c, 0, 57, 0
2, 26062, Note_on_c, 0, 69, 64
2, 26062, Note_on_c, 0, 57, 64
2, 26062, Note_on_c, 0, 60, 64
2, 26062, Note_on_c, 0, 64, 64
2, 26068, Note_on_c, 0, 72, 0
2, 26069, Note_on_c, 0, 69, 0
2, 26070, Note_on_c, 0, 71, 64
2, 26077, Note_on_c, 0, 69, 64
2, 26083, Note_on_c, 0, 71, 0
2, 26084, Note_on_c, 0, 69, 0
2, 26085, Note_on_c, 0, 72, 64
2, 26091, Note_on_c, 0, 64, 0
2, 26091, Note_on_c, 0, 60, 0
2, 26091, Note_on_c, 0, 57, 0
2, 26092, Note_on_c, 0, 62, 64
2, 26092, Note_on_c, 0, 65, 64
2, 26092, Note_on_c, 0, 71, 64
2, 26092, Note_on_c, 0, 33, 64
2, 26092, Note_on_c, 0, 45, 64
2, 26098, Note_on_c, 0, 72, 0
2, 26099, Note_on_c, 0, 65, 0
2, 26099, Note_on_c, 0, 71, 0
2, 26099, Note_on_c, 0, 62, 0
2, 26099, Note_on_c, 0, 45, 0
2, 26099, Note_on_c, 0, 33, 0
2, 26100, Note_on_c, 0, 62, 64
2, 26100, Note_on_c, 0, 64, 64
2, 26100, Note_on_c, 0, 71, 64
2, 26100, Note_on_c, 0, 32, 64
2, 26107, Note_on_c, 0, 35, 64
2, 26113, Note_on_c, 0, 32, 0
2, 26114, Note_on_c, 0, 35, 0
2, 26115, Note_on_c, 0, 36, 64
2, 26121, Note_on_c, 0, 62, 0
2, 26121, Note_on_c, 0, 71, 0
2, 26121, Note_on_c, 0, 64, 0
2, 26122, Note_on_c, 0, 62, 64
2, 26122, Note_on_c, 0, 64, 64
2, 26122, Note_on_c, 0, 71, 64
2, 26122, Note_on_c, 0, 44, 64
2, 26128, Note_on_c, 0, 36, 0
2, 26129, Note_on_c, 0, 44, 0
2, 26130, Note_on_c, 0, 47, 64
2, 26137, Note_on_c, 0, 52, 64
2, 26143, Note_on_c, 0, 47, 0
2, 26144, Note_on_c, 0, 52, 0
2, 26145, Note_on_c, 0, 56, 64
2, 26151, Note_on_c, 0, 71, 0
2, 26151, Note_on_c, 0, 62, 0
2, 26151, Note_on_c, 0, 64, 0
2, 26152, Note_on_c, 0, 62, 64
2, 26152, Note_on_c, 0, 64, 64
2, 26152, Note_on_c, 0, 71, 64
2, 26152, Note_on_c, 0, 57, 64
2, 26158, Note_on_c, 0, 56, 0
2, 26159, Note_on_c, 0, 71, 0
2, 26159, Note_on_c, 0, 62, 0
2, 26159, Note_on_c, 0, 64, 0
2, 26159, Note_on_c, 0, 57, 0
2, 26160, Note_on_c, 0, 84, 64
2, 26160, Note_on_c, 0, 56, 64
2, 26160, Note_on_c, 0, 59, 64
2, 26160, Note_on_c, 0, 64, 64
2, 26167, Note_on_c, 0, 83, 64
2, 26173, Note_on_c, 0, 84, 0
2, 26174, Note_on_c, 0, 83, 0
2, 26175, Note_on_c, 0, 88, 64
2, 26181, Note_on_c, 0, 56, 0
2, 26181, Note_on_c, 0, 64, 0
2, 26181, Note_on_c, 0, 59, 0
2, 26182, Note_on_c, 0, 83, 64
2, 26182, Note_on_c, 0, 56, 64
2, 26182, Note_on_c, 0, 59, 64
2, 26182, Note_on_c, 0, 64, 64
2, 26188, Note_on_c, 0, 88, 0
2, 26189, Note_on_c, 0, 83, 0
2, 26190, Note_on_c, 0, 81, 64
2, 26197, Note_on_c, 0, 80, 64
2, 26203, Note_on_c, 0, 81, 0
2, 26204, Note_on_c, 0, 80, 0
2, 26205, Note_on_c, 0, 83, 64
2, 26211, Note_on_c, 0, 64, 0
2, 26211, Note_on_c, 0, 59, 0
2, 26211, Note_on_c, 0, 56, 0
2, 26212, Note_on_c, 0, 76, 64
2, 26212, Note_on_c, 0, 56, 64
2, 26212, Note_on_c, 0, 59, 64
2, 26212, Note_on_c, 0, 64, 64
2, 26218, Note_on_c, 0, 83, 0
2, 26219, Note_on_c, 0, 76, 0
2, 26220, Note_on_c, 0, 83, 64
2, 26227, Note_on_c, 0, 76, 64
2, 26233, Note_on_c, 0, 83, 0
2, 26234, Note_on_c, 0, 76, 0
2, 26235, Note_on_c, 0, 77, 64
2, 26241, Note_on_c, 0, 64, 0
2, 26241, Note_on_c, 0, 59, 0
2, 26241, Note_on_c, 0, 56, 0
2, 26242, Note_on_c, 0, 74, 64
2, 26242, Note_on_c, 0, 56, 64
2, 26242, Note_on_c, 0, 59, 64
2, 26242, Note_on_c, 0, 64, 64
2, 26248, Note_on_c, 0, 77, 0
2, 26249, Note_on_c, 0, 74, 0
2, 26250, Note_on_c, 0, 72, 64
2, 26257, Note_on_c, 0, 71, 64
2, 26263, Note_on_c, 0, 72, 0
2, 26264, Note_on_c, 0, 71, 0
2, 26265, Note_on_c, 0, 76, 64
2, 26271, Note_on_c, 0, 64, 0
2, 26271, Note_on_c, 0, 59, 0
2, 26271, Note_on_c, 0, 56, 0
2, 26272, Note_on_c, 0, 71, 64
2, 26272, Note_on_c, 0, 56, 64
2, 26272, Note_on_c, 0, 59, 64
2, 26272, Note_on_c, 0, 64, 64
2, 26278, Note_on_c, 0, 76, 0
2, 26279, Note_on_c, 0, 59, 0
2, 26279, Note_on_c, 0, 71, 0
2, 26279, Note_on_c, 0, 56, 0
2, 26279, Note_on_c, 0, 64, 0
2, 26280, Note_on_c, 0, 72, 64
2, 26280, Note_on_c, 0, 44, 64
2, 26287, Note_on_c, 0, 71, 64
2, 26293, Note_on_c, 0, 72, 0
2, 26294, Note_on_c, 0, 71, 0
2, 26295, Note_on_c, 0, 76, 64
2, 26302, Note_on_c, 0, 71, 64
2, 26302, Note_on_c, 0, 56, 64
2, 26308, Note_on_c, 0, 76, 0
2, 26308, Note_on_c, 0, 44, 0
2, 26309, Note_on_c, 0, 71, 0
2, 26309, Note_on_c, 0, 56, 0
2, 26310, Note_on_c, 0, 74, 64
2, 26310, Note_on_c, 0, 45, 64
2, 26317, Note_on_c, 0, 72, 64
2, 26323, Note_on_c, 0, 74, 0
2, 26324, Note_on_c, 0, 72, 0
2, 26325, Note_on_c, 0, 76, 64
2, 26332, Note_on_c, 0, 72, 64
2, 26332, Note_on_c, 0, 57, 64
2, 26338, Note_on_c, 0, 76, 0
2, 26338, Note_on_c, 0, 45, 0
2, 26339, Note_on_c, 0, 72, 0
2, 26339, Note_on_c, 0, 57, 0
2, 26340, Note_on_c, 0, 76, 64
2, 26340, Note_on_c, 0, 47, 64
2, 26347, Note_on_c, 0, 74, 64
2, 26353, Note_on_c, 0, 76, 0
2, 26354, Note_on_c, 0, 74, 0
2, 26355, Note_on_c, 0, 80, 64
2, 26362, Note_on_c, 0, 74, 64
2, 26362, Note_on_c, 0, 59, 64
2, 26368, Note_on_c, 0, 80, 0
2, 26368, Note_on_c, 0, 47, 0
2, 26369, Note_on_c, 0, 74, 0
2, 26369, Note_on_c, 0, 59, 0
2, 26370, Note_on_c, 0, 77, 64
2, 26370, Note_on_c, 0, 48, 64
2, 26377, Note_on_c, 0, 76, 64
2, 26383, Note_on_c, 0, 77, 0
2, 26384, Note_on_c, 0, 76, 0
2, 26385, Note_on_c, 0, 81, 64
2, 26392, Note_on_c, 0, 76, 64
2, 26392, Note_on_c, 0, 60, 64
2, 26398, Note_on_c, 0, 81, 0
2, 26398, Note_on_c, 0, 48, 0
2, 26399, Note_on_c, 0, 76, 0
2, 26399, Note_on_c, 0, 60, 0
2, 26400, Note_on_c, 0, 81, 64
2, 26400, Note_on_c, 0, 50, 64
2, 26407, Note_on_c, 0, 77, 64
2, 26413, Note_on_c, 0, 81, 0
2, 26414, Note_on_c, 0, 77, 0
2, 26415, Note_on_c, 0, 81, 64
2, 26422, Note_on_c, 0, 71, 64
2, 26422, Note_on_c, 0, 62, 64
2, 26428, Note_on_c, 0, 81, 0
2, 26428, Note_on_c, 0, 50, 0
2, 26429, Note_on_c, 0, 71, 0
2, 26429, Note_on_c, 0, 62, 0
2, 26430, Note_on_c, 0, 81, 64
2, 26430, Note_on_c, 0, 51, 64
2, 26437, Note_on_c, 0, 78, 64
2, 26443, Note_on_c, 0, 81, 0
2, 26444, Note_on_c, 0, 78, 0
2, 26445, Note_on_c, 0, 81, 64
2, 26452, Note_on_c, 0, 72, 64
2, 26452, Note_on_c, 0, 63, 64
2, 26458, Note_on_c, 0, 81, 0
2, 26458, Note_on_c, 0, 51, 0
2, 26459, Note_on_c, 0, 63, 0
2, 26460, Note_on_c, 0, 81, 64
2, 26460, Note_on_c, 0, 64, 64
2, 26467, Note_on_c, 0, 71, 64
2, 26473, Note_on_c, 0, 81, 0
2, 26474, Note_on_c, 0, 72, 0
2, 26474, Note_on_c, 0, 71, 0
2, 26475, Note_on_c, 0, 81, 64
2, 26482, Note_on_c, 0, 80, 64
2, 26488, Note_on_c, 0, 81, 0
2, 26489, Note_on_c, 0, 80, 0
2, 26490, Note_on_c, 0, 74, 64
2, 26490, Note_on_c, 0, 83, 64
2, 26497, Note_on_c, 0, 52, 64
2, 26503, Note_on_c, 0, 64, 0
2, 26504, Note_on_c, 0, 52, 0
2, 26505, Note_on_c, 0, 53, 64
2, 26512, Note_on_c, 0, 52, 64
2, 26518, Note_on_c, 0, 53, 0
2, 26519, Note_on_c, 0, 52, 0
2, 26520, Note_on_c, 0, 57, 64
2, 26527, Note_on_c, 0, 72, 64
2, 26533, Note_on_c, 0, 83, 0
2, 26533, Note_on_c, 0, 74, 0
2, 26534, Note_on_c, 0, 72, 0
2, 26535, Note_on_c, 0, 83, 64
2, 26542, Note_on_c, 0, 81, 64
2, 26548, Note_on_c, 0, 83, 0
2, 26549, Note_on_c, 0, 81, 0
2, 26550, Note_on_c, 0, 76, 64
2, 26550, Note_on_c, 0, 84, 64
2, 26557, Note_on_c, 0, 43, 64
2, 26563, Note_on_c, 0, 57, 0
2, 26564, Note_on_c, 0, 43, 0
2, 26565, Note_on_c, 0, 47, 64
2, 26572, Note_on_c, 0, 45, 64
2, 26578, Note_on_c, 0, 47, 0
2, 26579, Note_on_c, 0, 45, 0
2, 26580, Note_on_c, 0, 43, 64
2, 26587, Note_on_c, 0, 74, 64
2, 26593, Note_on_c, 0, 84, 0
2, 26593, Note_on_c, 0, 76, 0
2, 26594, Note_on_c, 0, 74, 0
2, 26595, Note_on_c, 0, 84, 64
2, 26602, Note_on_c, 0, 83, 64
2, 26608, Note_on_c, 0, 84, 0
2, 26609, Note_on_c, 0, 83, 0
2, 26610, Note_on_c, 0, 77, 64
2, 26610, Note_on_c, 0, 86, 64
2, 26617, Note_on_c, 0, 31, 64
2, 26623, Note_on_c, 0, 43, 0
2, 26624, Note_on_c, 0, 31, 0
2, 26625, Note_on_c, 0, 32, 64
2, 26632, Note_on_c, 0, 77, 64
2, 26632, Note_on_c, 0, 86, 64
2, 26632, Note_on_c, 0, 31, 64
2, 26638, Note_on_c, 0, 86, 0
2, 26638, Note_on_c, 0, 77, 0
2, 26638, Note_on_c, 0, 32, 0
2, 26639, Note_on_c, 0, 77, 0
2, 26639, Note_on_c, 0, 86, 0
2, 26640, Note_on_c, 0, 77, 64
2, 26640, Note_on_c, 0, 79, 64
2, 26640, Note_on_c, 0, 83, 64
2, 26640, Note_on_c, 0, 86, 64
2, 26647, Note_on_c, 0, 35, 64
2, 26654, Note_on_c, 0, 35, 0
2, 26654, Note_on_c, 0, 31, 0
2, 26655, Note_on_c, 0, 38, 64
2, 26661, Note_on_c, 0, 83, 0
2, 26661, Note_on_c, 0, 86, 0
2, 26661, Note_on_c, 0, 77, 0
2, 26661, Note_on_c, 0, 79, 0
2, 26662, Note_on_c, 0, 77, 64
2, 26662, Note_on_c, 0, 79, 64
2, 26662, Note_on_c, 0, 83, 64
2, 26662, Note_on_c, 0, 86, 64
2, 26662, Note_on_c, 0, 43, 64
2, 26668, Note_on_c, 0, 38, 0
2, 26669, Note_on_c, 0, 43, 0
2, 26670, Note_on_c, 0, 47, 64
2, 26677, Note_on_c, 0, 50, 64
2, 26683, Note_on_c, 0, 47, 0
2, 26684, Note_on_c, 0, 50, 0
2, 26685, Note_on_c, 0, 54, 64
2, 26691, Note_on_c, 0, 86, 0
2, 26691, Note_on_c, 0, 83, 0
2, 26691, Note_on_c, 0, 77, 0
2, 26691, Note_on_c, 0, 79, 0
2, 26692, Note_on_c, 0, 77, 64
2, 26692, Note_on_c, 0, 79, 64
2, 26692, Note_on_c, 0, 83, 64
2, 26692, Note_on_c, 0, 86, 64
2, 26692, Note_on_c, 0, 55, 64
2, 26698, Note_on_c, 0, 54, 0
2, 26699, Note_on_c, 0, 55, 0
2, 26700, Note_on_c, 0, 43, 64
2, 26700, Note_on_c, 0, 47, 64
2, 26700, Note_on_c, 0, 50, 64
2, 26700, Note_on_c, 0, 53, 64
2, 26707, Note_on_c, 0, 83, 64
2, 26713, Note_on_c, 0, 83, 0
2, 26713, Note_on_c, 0, 77, 0
2, 26713, Note_on_c, 0, 86, 0
2, 26713, Note_on_c, 0, 79, 0
2, 26714, Note_on_c, 0, 83, 0
2, 26715, Note_on_c, 0, 89, 64
2, 26721, Note_on_c, 0, 43, 0
2, 26721, Note_on_c, 0, 47, 0
2, 26721, Note_on_c, 0, 53, 0
2, 26721, Note_on_c, 0, 50, 0
2, 26722, Note_on_c, 0, 86, 64
2, 26722, Note_on_c, 0, 43, 64
2, 26722, Note_on_c, 0, 47, 64
2, 26722, Note_on_c, 0, 50, 64
2, 26722, Note_on_c, 0, 53, 64
2, 26728, Note_on_c, 0, 89, 0
2, 26729, Note_on_c, 0, 86, 0
2, 26730, Note_on_c, 0, 84, 64
2, 26737, Note_on_c, 0, 83, 64
2, 26743, Note_on_c, 0, 84, 0
2, 26744, Note_on_c, 0, 83, 0
2, 26745, Note_on_c, 0, 86, 64
2, 26751, Note_on_c, 0, 43, 0
2, 26751, Note_on_c, 0, 50, 0
2, 26751, Note_on_c, 0, 47, 0
2, 26751, Note_on_c, 0, 53, 0
2, 26752, Note_on_c, 0, 83, 64
2, 26752, Note_on_c, 0, 43, 64
2, 26752, Note_on_c, 0, 47, 64
2, 26752, Note_on_c, 0, 50, 64
2, 26752, Note_on_c, 0, 53, 64
2, 26758, Note_on_c, 0, 86, 0
2, 26759, Note_on_c, 0, 83, 0
2, 26760, Note_on_c, 0, 79, 64
2, 26767, Note_on_c, 0, 77, 64
2, 26773, Note_on_c, 0, 79, 0
2, 26774, Note_on_c, 0, 77, 0
2, 26775, Note_on_c, 0, 81, 64
2, 26781, Note_on_c, 0, 43, 0
2, 26781, Note_on_c, 0, 50, 0
2, 26781, Note_on_c, 0, 47, 0
2, 26781, Note_on_c, 0, 53, 0
2, 26782, Note_on_c, 0, 77, 64
2, 26782, Note_on_c, 0, 43, 64
2, 26782, Note_on_c, 0, 47, 64
2, 26782, Note_on_c, 0, 50, 64
2, 26782, Note_on_c, 0, 53, 64
2, 26788, Note_on_c, 0, 81, 0
2, 26789, Note_on_c, 0, 77, 0
2, 26790, Note_on_c, 0, 76, 64
2, 26797, Note_on_c, 0, 71, 64
2, 26803, Note_on_c, 0, 76, 0
2, 26804, Note_on_c, 0, 71, 0
2, 26805, Note_on_c, 0, 74, 64
2, 26811, Note_on_c, 0, 43, 0
2, 26811, Note_on_c, 0, 50, 0
2, 26811, Note_on_c, 0, 47, 0
2, 26811, Note_on_c, 0, 53, 0
2, 26812, Note_on_c, 0, 71, 64
2, 26812, Note_on_c, 0, 43, 64
2, 26812, Note_on_c, 0, 47, 64
2, 26812, Note_on_c, 0, 50, 64
2, 26812, Note_on_c, 0, 53, 64
2, 26818, Note_on_c, 0, 74, 0
2, 26819, Note_on_c, 0, 43, 0
2, 26819, Note_on_c, 0, 47, 0
2, 26819, Note_on_c, 0, 71, 0
2, 26819, Note_on_c, 0, 53, 0
2, 26819, Note_on_c, 0, 50, 0
2, 26820, Note_on_c, 0, 67, 64
2, 26820, Note_on_c, 0, 72, 64
2, 26820, Note_on_c, 0, 76, 64
2, 26820, Note_on_c, 0, 36, 64
2, 26827, Note_on_c, 0, 40, 64
2, 26833, Note_on_c, 0, 36, 0
2, 26834, Note_on_c, 0, 40, 0
2, 26835, Note_on_c, 0, 43, 64
2, 26841, Note_on_c, 0, 67, 0
2, 26841, Note_on_c, 0, 76, 0
2, 26841, Note_on_c, 0, 72, 0
2, 26842, Note_on_c, 0, 67, 64
2, 26842, Note_on_c, 0, 72, 64
2, 26842, Note_on_c, 0, 76, 64
2, 26842, Note_on_c, 0, 47, 64
2, 26848, Note_on_c, 0, 43, 0
2, 26849, Note_on_c, 0, 47, 0
2, 26850, Note_on_c, 0, 48, 64
2, 26857, Note_on_c, 0, 52, 64
2, 26863, Note_on_c, 0, 48, 0
2, 26864, Note_on_c, 0, 52, 0
2, 26865, Note_on_c, 0, 55, 64
2, 26871, Note_on_c, 0, 76, 0
2, 26871, Note_on_c, 0, 67, 0
2, 26871, Note_on_c, 0, 72, 0
2, 26872, Note_on_c, 0, 67, 64
2, 26872, Note_on_c, 0, 72, 64
2, 26872, Note_on_c, 0, 76, 64
2, 26872, Note_on_c, 0, 59, 64
2, 26878, Note_on_c, 0, 55, 0
2, 26879, Note_on_c, 0, 59, 0
2, 26880, Note_on_c, 0, 60, 64
2, 26887, Note_on_c, 0, 67, 64
2, 26887, Note_on_c, 0, 71, 64
2, 26887, Note_on_c, 0, 65, 64
2, 26893, Note_on_c, 0, 67, 0
2, 26893, Note_on_c, 0, 60, 0
2, 26893, Note_on_c, 0, 76, 0
2, 26893, Note_on_c, 0, 72, 0
2, 26894, Note_on_c, 0, 67, 0
2, 26894, Note_on_c, 0, 65, 0
2, 26894, Note_on_c, 0, 71, 0
2, 26895, Note_on_c, 0, 69, 64
2, 26895, Note_on_c, 0, 72, 64
2, 26895, Note_on_c, 0, 64, 64
2, 26902, Note_on_c, 0, 71, 64
2, 26902, Note_on_c, 0, 74, 64
2, 26902, Note_on_c, 0, 62, 64
2, 26908, Note_on_c, 0, 64, 0
2, 26908, Note_on_c, 0, 69, 0
2, 26908, Note_on_c, 0, 72, 0
2, 26909, Note_on_c, 0, 71, 0
2, 26909, Note_on_c, 0, 74, 0
2, 26909, Note_on_c, 0, 62, 0
2, 26910, Note_on_c, 0, 67, 64
2, 26910, Note_on_c, 0, 76, 64
2, 26910, Note_on_c, 0, 60, 64
2, 26917, Note_on_c, 0, 64, 64
2, 26917, Note_on_c, 0, 36, 64
2, 26923, Note_on_c, 0, 60, 0
2, 26923, Note_on_c, 0, 67, 0
2, 26924, Note_on_c, 0, 36, 0
2, 26924, Note_on_c, 0, 64, 0
2, 26925, Note_on_c, 0, 65, 64
2, 26925, Note_on_c, 0, 38, 64
2, 26932, Note_on_c, 0, 67, 64
2, 26932, Note_on_c, 0, 40, 64
2, 26938, Note_on_c, 0, 38, 0
2, 26938, Note_on_c, 0, 65, 0
2, 26939, Note_on_c, 0, 40, 0
2, 26939, Note_on_c, 0, 67, 0
2, 26940, Note_on_c, 0, 69, 64
2, 26940, Note_on_c, 0, 41, 64
2, 26947, Note_on_c, 0, 72, 64
2, 26947, Note_on_c, 0, 55, 64
2, 26953, Note_on_c, 0, 41, 0
2, 26953, Note_on_c, 0, 76, 0
2, 26954, Note_on_c, 0, 55, 0
2, 26954, Note_on_c, 0, 72, 0
2, 26955, Note_on_c, 0, 74, 64
2, 26955, Note_on_c, 0, 53, 64
2, 26962, Note_on_c, 0, 76, 64
2, 26962, Note_on_c, 0, 52, 64
2, 26968, Note_on_c, 0, 53, 0
2, 26968, Note_on_c, 0, 74, 0
2, 26969, Note_on_c, 0, 52, 0
2, 26969, Note_on_c, 0, 76, 0
2, 26970, Note_on_c, 0, 77, 64
2, 26970, Note_on_c, 0, 50, 64
2, 26977, Note_on_c, 0, 65, 64
2, 26977, Note_on_c, 0, 38, 64
2, 26983, Note_on_c, 0, 50, 0
2, 26983, Note_on_c, 0, 69, 0
2, 26984, Note_on_c, 0, 38, 0
2, 26984, Note_on_c, 0, 65, 0
2, 26985, Note_on_c, 0, 67, 64
2, 26985, Note_on_c, 0, 40, 64
2, 26992, Note_on_c, 0, 69, 64
2, 26992, Note_on_c, 0, 41, 64
2, 26998, Note_on_c, 0, 40, 0
2, 26998, Note_on_c, 0, 67, 0
2, 26999, Note_on_c, 0, 41, 0
2, 26999, Note_on_c, 0, 69, 0
2, 27000, Note_on_c, 0, 71, 64
2, 27000, Note_on_c, 0, 43, 64
2, 27007, Note_on_c, 0, 70, 64
2, 27007, Note_on_c, 0, 73, 64
2, 27013, Note_on_c, 0, 71, 0
2, 27013, Note_on_c, 0, 77, 0
2, 27014, Note_on_c, 0, 70, 0
2, 27014, Note_on_c, 0, 73, 0
2, 27015, Note_on_c, 0, 71, 64
2, 27015, Note_on_c, 0, 74, 64
2, 27022, Note_on_c, 0, 72, 64
2, 27022, Note_on_c, 0, 76, 64
2, 27026, Note_on_c, 0, 43, 0
2, 27028, Note_on_c, 0, 71, 0
2, 27028, Note_on_c, 0, 74, 0
2, 27029, Note_on_c, 0, 72, 0
2, 27029, Note_on_c, 0, 76, 0
2, 27030, Note_on_c, 0, 71, 64
2, 27030, Note_on_c, 0, 74, 64
2, 27030, Note_on_c, 0, 55, 64
2, 27037, Note_on_c, 0, 54, 64
2, 27043, Note_on_c, 0, 55, 0
2, 27044, Note_on_c, 0, 54, 0
2, 27045, Note_on_c, 0, 55, 64
2, 27052, Note_on_c, 0, 57, 64
2, 27058, Note_on_c, 0, 55, 0
2, 27059, Note_on_c, 0, 57, 0
2, 27060, Note_on_c, 0, 71, 0
2, 27060, Note_on_c, 0, 67, 64
2, 27060, Note_on_c, 0, 59, 64
2, 27067, Note_on_c, 0, 73, 64
2, 27073, Note_on_c, 0, 74, 0
2, 27074, Note_on_c, 0, 73, 0
2, 27075, Note_on_c, 0, 74, 64
2, 27082, Note_on_c, 0, 76, 64
2, 27088, Note_on_c, 0, 74, 0
2, 27089, Note_on_c, 0, 76, 0
2, 27090, Note_on_c, 0, 74, 64
2, 27097, Note_on_c, 0, 69, 64
2, 27097, Note_on_c, 0, 60, 64
2, 27103, Note_on_c, 0, 59, 0
2, 27103, Note_on_c, 0, 67, 0
2, 27104, Note_on_c, 0, 69, 0
2, 27104, Note_on_c, 0, 60, 0
2, 27105, Note_on_c, 0, 71, 64
2, 27105, Note_on_c, 0, 62, 64
2, 27112, Note_on_c, 0, 72, 64
2, 27112, Note_on_c, 0, 64, 64
2, 27118, Note_on_c, 0, 62, 0
2, 27118, Note_on_c, 0, 71, 0
2, 27119, Note_on_c, 0, 64, 0
2, 27119, Note_on_c, 0, 72, 0
2, 27120, Note_on_c, 0, 71, 64
2, 27120, Note_on_c, 0, 65, 64
2, 27127, Note_on_c, 0, 76, 64
2, 27127, Note_on_c, 0, 64, 64
2, 27133, Note_on_c, 0, 65, 0
2, 27133, Note_on_c, 0, 74, 0
2, 27133, Note_on_c, 0, 71, 0
2, 27134, Note_on_c, 0, 76, 0
2, 27134, Note_on_c, 0, 64, 0
2, 27135, Note_on_c, 0, 71, 64
2, 27135, Note_on_c, 0, 77, 64
2, 27135, Note_on_c, 0, 62, 64
2, 27142, Note_on_c, 0, 78, 64
2, 27142, Note_on_c, 0, 60, 64
2, 27148, Note_on_c, 0, 62, 0
2, 27148, Note_on_c, 0, 71, 0
2, 27148, Note_on_c, 0, 77, 0
2, 27149, Note_on_c, 0, 78, 0
2, 27149, Note_on_c, 0, 60, 0
2, 27150, Note_on_c, 0, 79, 64
2, 27150, Note_on_c, 0, 59, 64
2, 27157, Note_on_c, 0, 76, 64
2, 27157, Note_on_c, 0, 60, 64
2, 27163, Note_on_c, 0, 59, 0
2, 27164, Note_on_c, 0, 60, 0
2, 27164, Note_on_c, 0, 76, 0
2, 27165, Note_on_c, 0, 74, 64
2, 27165, Note_on_c, 0, 59, 64
2, 27172, Note_on_c, 0, 72, 64
2, 27172, Note_on_c, 0, 57, 64
2, 27178, Note_on_c, 0, 59, 0
2, 27178, Note_on_c, 0, 74, 0
2, 27179, Note_on_c, 0, 57, 0
2, 27179, Note_on_c, 0, 72, 0
2, 27180, Note_on_c, 0, 74, 64
2, 27180, Note_on_c, 0, 59, 64
2, 27186, Note_on_c, 0, 59, 0
2, 27186, Note_on_c, 0, 74, 0
2, 27187, Note_on_c, 0, 74, 64
2, 27187, Note_on_c, 0, 59, 64
2, 27193, Note_on_c, 0, 79, 0
2, 27195, Note_on_c, 0, 79, 64
2, 27201, Note_on_c, 0, 59, 0
2, 27201, Note_on_c, 0, 74, 0
2, 27202, Note_on_c, 0, 74, 64
2, 27202, Note_on_c, 0, 59, 64
2, 27208, Note_on_c, 0, 79, 0
2, 27210, Note_on_c, 0, 79, 64
2, 27210, Note_on_c, 0, 67, 64
2, 27216, Note_on_c, 0, 67, 0
2, 27216, Note_on_c, 0, 74, 0
2, 27216, Note_on_c, 0, 59, 0
2, 27217, Note_on_c, 0, 67, 64
2, 27217, Note_on_c, 0, 74, 64
2, 27217, Note_on_c, 0, 77, 64
2, 27217, Note_on_c, 0, 59, 64
2, 27223, Note_on_c, 0, 79, 0
2, 27224, Note_on_c, 0, 77, 0
2, 27224, Note_on_c, 0, 59, 0
2, 27224, Note_on_c, 0, 74, 0
2, 27225, Note_on_c, 0, 76, 64
2, 27225, Note_on_c, 0, 60, 64
2, 27231, Note_on_c, 0, 67, 0
2, 27232, Note_on_c, 0, 67, 64
2, 27232, Note_on_c, 0, 74, 64
2, 27232, Note_on_c, 0, 77, 64
2, 27232, Note_on_c, 0, 59, 64
2, 27238, Note_on_c, 0, 60, 0
2, 27238, Note_on_c, 0, 76, 0
2, 27239, Note_on_c, 0, 77, 0
2, 27239, Note_on_c, 0, 74, 0
2, 27239, Note_on_c, 0, 59, 0
2, 27240, Note_on_c, 0, 76, 64
2, 27240, Note_on_c, 0, 60, 64
2, 27246, Note_on_c, 0, 67, 0
2, 27247, Note_on_c, 0, 67, 64
2, 27247, Note_on_c, 0, 74, 64
2, 27247, Note_on_c, 0, 77, 64
2, 27247, Note_on_c, 0, 59, 64
2, 27253, Note_on_c, 0, 60, 0
2, 27253, Note_on_c, 0, 76, 0
2, 27254, Note_on_c, 0, 77, 0
2, 27254, Note_on_c, 0, 74, 0
2, 27254, Note_on_c, 0, 59, 0
2, 27255, Note_on_c, 0, 76, 64
2, 27255, Note_on_c, 0, 60, 64
2, 27261, Note_on_c, 0, 67, 0
2, 27262, Note_on_c, 0, 74, 64
2, 27262, Note_on_c, 0, 62, 64
2, 27268, Note_on_c, 0, 60, 0
2, 27268, Note_on_c, 0, 76, 0
2, 27269, Note_on_c, 0, 74, 0
2, 27269, Note_on_c, 0, 62, 0
2, 27270, Note_on_c, 0, 72, 64
2, 27270, Note_on_c, 0, 72, 64
2, 27270, Note_on_c, 0, 64, 64
2, 27276, Note_on_c, 0, 72, 0
2, 27277, Note_on_c, 0, 71, 64
2, 27277, Note_on_c, 0, 62, 64
2, 27283, Note_on_c, 0, 64, 0
2, 27283, Note_on_c, 0, 72, 0
2, 27284, Note_on_c, 0, 71, 0
2, 27284, Note_on_c, 0, 62, 0
2, 27285, Note_on_c, 0, 72, 64
2, 27285, Note_on_c, 0, 72, 64
2, 27285, Note_on_c, 0, 64, 64
2, 27291, Note_on_c, 0, 72, 0
2, 27292, Note_on_c, 0, 76, 64
2, 27292, Note_on_c, 0, 60, 64
2, 27298, Note_on_c, 0, 64, 0
2, 27298, Note_on_c, 0, 72, 0
2, 27299, Note_on_c, 0, 76, 0
2, 27299, Note_on_c, 0, 60, 0
2, 27300, Note_on_c, 0, 64, 64
2, 27307, Note_on_c, 0, 72, 64
2, 27307, Note_on_c, 0, 76, 64
2, 27313, Note_on_c, 0, 64, 0
2, 27314, Note_on_c, 0, 76, 0
2, 27314, Note_on_c, 0, 72, 0
2, 27315, Note_on_c, 0, 64, 64
2, 27322, Note_on_c, 0, 71, 64
2, 27322, Note_on_c, 0, 74, 64
2, 27322, Note_on_c, 0, 40, 64
2, 27328, Note_on_c, 0, 64, 0
2, 27329, Note_on_c, 0, 71, 0
2, 27329, Note_on_c, 0, 74, 0
2, 27330, Note_on_c, 0, 64, 64
2, 27337, Note_on_c, 0, 69, 64
2, 27337, Note_on_c, 0, 72, 64
2, 27343, Note_on_c, 0, 64, 0
2, 27344, Note_on_c, 0, 72, 0
2, 27344, Note_on_c, 0, 69, 0
2, 27345, Note_on_c, 0, 64, 64
2, 27351, Note_on_c, 0, 40, 0
2, 27352, Note_on_c, 0, 68, 64
2, 27352, Note_on_c, 0, 71, 64
2, 27352, Note_on_c, 0, 40, 64
2, 27358, Note_on_c, 0, 64, 0
2, 27359, Note_on_c, 0, 68, 0
2, 27359, Note_on_c, 0, 71, 0
2, 27359, Note_on_c, 0, 40, 0
2, 27360, Note_on_c, 0, 64, 64
2, 27360, Note_on_c, 0, 72, 64
2, 27360, Note_on_c, 0, 33, 64
2, 27367, Note_on_c, 0, 36, 64
2, 27374, Note_on_c, 0, 36, 0
2, 27374, Note_on_c, 0, 33, 0
2, 27375, Note_on_c, 0, 40, 64
2, 27381, Note_on_c, 0, 72, 0
2, 27381, Note_on_c, 0, 64, 0
2, 27382, Note_on_c, 0, 64, 64
2, 27382, Note_on_c, 0, 72, 64
2, 27382, Note_on_c, 0, 44, 64
2, 27388, Note_on_c, 0, 40, 0
2, 27389, Note_on_c, 0, 44, 0
2, 27390, Note_on_c, 0, 45, 64
2, 27397, Note_on_c, 0, 48, 64
2, 27403, Note_on_c, 0, 45, 0
2, 27404, Note_on_c, 0, 48, 0
2, 27405, Note_on_c, 0, 52, 64
2, 27411, Note_on_c, 0, 72, 0
2, 27411, Note_on_c, 0, 64, 0
2, 27412, Note_on_c, 0, 64, 64
2, 27412, Note_on_c, 0, 72, 64
2, 27412, Note_on_c, 0, 56, 64
2, 27418, Note_on_c, 0, 52, 0
2, 27419, Note_on_c, 0, 64, 0
2, 27419, Note_on_c, 0, 72, 0
2, 27419, Note_on_c, 0, 56, 0
2, 27420, Note_on_c, 0, 84, 64
2, 27420, Note_on_c, 0, 57, 64
2, 27427, Note_on_c, 0, 80, 64
2, 27433, Note_on_c, 0, 84, 0
2, 27434, Note_on_c, 0, 80, 0
2, 27435, Note_on_c, 0, 81, 64
2, 27441, Note_on_c, 0, 57, 0
2, 27442, Note_on_c, 0, 76, 64
2, 27442, Note_on_c, 0, 57, 64
2, 27442, Note_on_c, 0, 60, 64
2, 27442, Note_on_c, 0, 64, 64
2, 27448, Note_on_c, 0, 81, 0
2, 27449, Note_on_c, 0, 76, 0
2, 27450, Note_on_c, 0, 74, 64
2, 27457, Note_on_c, 0, 72, 64
2, 27463, Note_on_c, 0, 74, 0
2, 27464, Note_on_c, 0, 72, 0
2, 27465, Note_on_c, 0, 76, 64
2, 27471, Note_on_c, 0, 64, 0
2, 27471, Note_on_c, 0, 60, 0
2, 27471, Note_on_c, 0, 57, 0
2, 27472, Note_on_c, 0, 72, 64
2, 27472, Note_on_c, 0, 57, 64
2, 27472, Note_on_c, 0, 60, 64
2, 27472, Note_on_c, 0, 64, 64
2, 27478, Note_on_c, 0, 76, 0
2, 27479, Note_on_c, 0, 72, 0
2, 27480, Note_on_c, 0, 71, 64
2, 27487, Note_on_c, 0, 69, 64
2, 27493, Note_on_c, 0, 71, 0
2, 27494, Note_on_c, 0, 69, 0
2, 27495, Note_on_c, 0, 72, 64
2, 27501, Note_on_c, 0, 64, 0
2, 27501, Note_on_c, 0, 60, 0
2, 27501, Note_on_c, 0, 57, 0
2, 27502, Note_on_c, 0, 69, 64
2, 27502, Note_on_c, 0, 57, 64
2, 27502, Note_on_c, 0, 60, 64
2, 27502, Note_on_c, 0, 64, 64
2, 27508, Note_on_c, 0, 72, 0
2, 27509, Note_on_c, 0, 69, 0
2, 27510, Note_on_c, 0, 71, 64
2, 27517, Note_on_c, 0, 69, 64
2, 27523, Note_on_c, 0, 71, 0
2, 27524, Note_on_c, 0, 69, 0
2, 27525, Note_on_c, 0, 72, 64
2, 27531, Note_on_c, 0, 64, 0
2, 27531, Note_on_c, 0, 60, 0
2, 27531, Note_on_c, 0, 57, 0
2, 27532, Note_on_c, 0, 62, 64
2, 27532, Note_on_c, 0, 65, 64
2, 27532, Note_on_c, 0, 71, 64
2, 27532, Note_on_c, 0, 33, 64
2, 27532, Note_on_c, 0, 45, 64
2, 27538, Note_on_c, 0, 72, 0
2, 27539, Note_on_c, 0, 65, 0
2, 27539, Note_on_c, 0, 71, 0
2, 27539, Note_on_c, 0, 62, 0
2, 27539, Note_on_c, 0, 45, 0
2, 27539, Note_on_c, 0, 33, 0
2, 27540, Note_on_c, 0, 62, 64
2, 27540, Note_on_c, 0, 64, 64
2, 27540, Note_on_c, 0, 71, 64
2, 27540, Note_on_c, 0, 32, 64
2, 27547, Note_on_c, 0, 35, 64
2, 27553, Note_on_c, 0, 32, 0
2, 27554, Note_on_c, 0, 35, 0
2, 27555, Note_on_c, 0, 36, 64
2, 27561, Note_on_c, 0, 62, 0
2, 27561, Note_on_c, 0, 71, 0
2, 27561, Note_on_c, 0, 64, 0
2, 27562, Note_on_c, 0, 62, 64
2, 27562, Note_on_c, 0, 64, 64
2, 27562, Note_on_c, 0, 71, 64
2, 27562, Note_on_c, 0, 44, 64
2, 27568, Note_on_c, 0, 36, 0
2, 27569, Note_on_c, 0, 44, 0
2, 27570, Note_on_c, 0, 47, 64
2, 27577, Note_on_c, 0, 52, 64
2, 27583, Note_on_c, 0, 47, 0
2, 27584, Note_on_c, 0, 52, 0
2, 27585, Note_on_c, 0, 56, 64
2, 27591, Note_on_c, 0, 71, 0
2, 27591, Note_on_c, 0, 62, 0
2, 27591, Note_on_c, 0, 64, 0
2, 27592, Note_on_c, 0, 62, 64
2, 27592, Note_on_c, 0, 64, 64
2, 27592, Note_on_c, 0, 71, 64
2, 27592, Note_on_c, 0, 57, 64
2, 27598, Note_on_c, 0, 56, 0
2, 27599, Note_on_c, 0, 71, 0
2, 27599, Note_on_c, 0, 62, 0
2, 27599, Note_on_c, 0, 64, 0
2, 27599, Note_on_c, 0, 57, 0
2, 27600, Note_on_c, 0, 84, 64
2, 27600, Note_on_c, 0, 56, 64
2, 27600, Note_on_c, 0, 59, 64
2, 27600, Note_on_c, 0, 64, 64
2, 27607, Note_on_c, 0, 83, 64
2, 27613, Note_on_c, 0, 84, 0
2, 27614, Note_on_c, 0, 83, 0
2, 27615, Note_on_c, 0, 88, 64
2, 27621, Note_on_c, 0, 56, 0
2, 27621, Note_on_c, 0, 64, 0
2, 27621, Note_on_c, 0, 59, 0
2, 27622, Note_on_c, 0, 83, 64
2, 27622, Note_on_c, 0, 56, 64
2, 27622, Note_on_c, 0, 59, 64
2, 27622, Note_on_c, 0, 64, 64
2, 27628, Note_on_c, 0, 88, 0
2, 27629, Note_on_c, 0, 83, 0
2, 27630, Note_on_c, 0, 81, 64
2, 27637, Note_on_c, 0, 80, 64
2, 27643, Note_on_c, 0, 81, 0
2, 27644, Note_on_c, 0, 80, 0
2, 27645, Note_on_c, 0, 83, 64
2, 27651, Note_on_c, 0, 64, 0
2, 27651, Note_on_c, 0, 59, 0
2, 27651, Note_on_c, 0, 56, 0
2, 27652, Note_on_c, 0, 76, 64
2, 27652, Note_on_c, 0, 56, 64
2, 27652, Note_on_c, 0, 59, 64
2, 27652, Note_on_c, 0, 64, 64
2, 27658, Note_on_c, 0, 83, 0
2, 27659, Note_on_c, 0, 76, 0
2, 27660, Note_on_c, 0, 83, 64
2, 27667, Note_on_c, 0, 76, 64
2, 27673, Note_on_c, 0, 83, 0
2, 27674, Note_on_c, 0, 76, 0
2, 27675, Note_on_c, 0, 77, 64
2, 27681, Note_on_c, 0, 64, 0
2, 27681, Note_on_c, 0, 59, 0
2, 27681, Note_on_c, 0, 56, 0
2, 27682, Note_on_c, 0, 74, 64
2, 27682, Note_on_c, 0, 56, 64
2, 27682, Note_on_c, 0, 59, 64
2, 27682, Note_on_c, 0, 64, 64
2, 27688, Note_on_c, 0, 77, 0
2, 27689, Note_on_c, 0, 74, 0
2, 27690, Note_on_c, 0, 72, 64
2, 27697, Note_on_c, 0, 71, 64
2, 27703, Note_on_c, 0, 72, 0
2, 27704, Note_on_c, 0, 71, 0
2, 27705, Note_on_c, 0, 76, 64
2, 27711, Note_on_c, 0, 64, 0
2, 27711, Note_on_c, 0, 59, 0
2, 27711, Note_on_c, 0, 56, 0
2, 27712, Note_on_c, 0, 71, 64
2, 27712, Note_on_c, 0, 56, 64
2, 27712, Note_on_c, 0, 59, 64
2, 27712, Note_on_c, 0, 64, 64
2, 27718, Note_on_c, 0, 76, 0
2, 27719, Note_on_c, 0, 59, 0
2, 27719, Note_on_c, 0, 71, 0
2, 27719, Note_on_c, 0, 56, 0
2, 27719, Note_on_c, 0, 64, 0
2, 27720, Note_on_c, 0, 72, 64
2, 27720, Note_on_c, 0, 44, 64
2, 27727, Note_on_c, 0, 71, 64
2, 27733, Note_on_c, 0, 72, 0
2, 27734, Note_on_c, 0, 71, 0
2, 27735, Note_on_c, 0, 76, 64
2, 27742, Note_on_c, 0, 71, 64
2, 27742, Note_on_c, 0, 56, 64
2, 27748, Note_on_c, 0, 76, 0
2, 27748, Note_on_c, 0, 44, 0
2, 27749, Note_on_c, 0, 71, 0
2, 27749, Note_on_c, 0, 56, 0
2, 27750, Note_on_c, 0, 74, 64
2, 27750, Note_on_c, 0, 45, 64
2, 27757, Note_on_c, 0, 72, 64
2, 27763, Note_on_c, 0, 74, 0
2, 27764, Note_on_c, 0, 72, 0
2, 27765, Note_on_c, 0, 76, 64
2, 27772, Note_on_c, 0, 72, 64
2, 27772, Note_on_c, 0, 57, 64
2, 27778, Note_on_c, 0, 76, 0
2, 27778, Note_on_c, 0, 45, 0
2, 27779, Note_on_c, 0, 72, 0
2, 27779, Note_on_c, 0, 57, 0
2, 27780, Note_on_c, 0, 76, 64
2, 27780, Note_on_c, 0, 47, 64
2, 27787, Note_on_c, 0, 74, 64
2, 27793, Note_on_c, 0, 76, 0
2, 27794, Note_on_c, 0, 74, 0
2, 27795, Note_on_c, 0, 80, 64
2, 27802, Note_on_c, 0, 74, 64
2, 27802, Note_on_c, 0, 59, 64
2, 27808, Note_on_c, 0, 80, 0
2, 27808, Note_on_c, 0, 47, 0
2, 27809, Note_on_c, 0, 74, 0
2, 27809, Note_on_c, 0, 59, 0
2, 27810, Note_on_c, 0, 77, 64
2, 27810, Note_on_c, 0, 48, 64
2, 27817, Note_on_c, 0, 76, 64
2, 27823, Note_on_c, 0, 77, 0
2, 27824, Note_on_c, 0, 76, 0
2, 27825, Note_on_c, 0, 81, 64
2, 27832, Note_on_c, 0, 76, 64
2, 27832, Note_on_c, 0, 60, 64
2, 27838, Note_on_c, 0, 81, 0
2, 27838, Note_on_c, 0, 48, 0
2, 27839, Note_on_c, 0, 76, 0
2, 27839, Note_on_c, 0, 60, 0
2, 27840, Note_on_c, 0, 81, 64
2, 27840, Note_on_c, 0, 50, 64
2, 27847, Note_on_c, 0, 77, 64
2, 27853, Note_on_c, 0, 81, 0
2, 27854, Note_on_c, 0, 77, 0
2, 27855, Note_on_c, 0, 81, 64
2, 27862, Note_on_c, 0, 71, 64
2, 27862, Note_on_c, 0, 62, 64
2, 27868, Note_on_c, 0, 81, 0
2, 27868, Note_on_c, 0, 50, 0
2, 27869, Note_on_c, 0, 71, 0
2, 27869, Note_on_c, 0, 62, 0
2, 27870, Note_on_c, 0, 81, 64
2, 27870, Note_on_c, 0, 51, 64
2, 27877, Note_on_c, 0, 78, 64
2, 27883, Note_on_c, 0, 81, 0
2, 27884, Note_on_c, 0, 78, 0
2, 27885, Note_on_c, 0, 81, 64
2, 27892, Note_on_c, 0, 72, 64
2, 27892, Note_on_c, 0, 63, 64
2, 27898, Note_on_c, 0, 81, 0
2, 27898, Note_on_c, 0, 51, 0
2, 27899, Note_on_c, 0, 63, 0
2, 27900, Note_on_c, 0, 81, 64
2, 27900, Note_on_c, 0, 64, 64
2, 27907, Note_on_c, 0, 71, 64
2, 27913, Note_on_c, 0, 81, 0
2, 27914, Note_on_c, 0, 72, 0
2, 27914, Note_on_c, 0, 71, 0
2, 27915, Note_on_c, 0, 81, 64
2, 27922, Note_on_c, 0, 80, 64
2, 27928, Note_on_c, 0, 81, 0
2, 27929, Note_on_c, 0, 80, 0
2, 27930, Note_on_c, 0, 74, 64
2, 27930, Note_on_c, 0, 83, 64
2, 27937, Note_on_c, 0, 52, 64
2, 27943, Note_on_c, 0, 64, 0
2, 27944, Note_on_c, 0, 52, 0
2, 27945, Note_on_c, 0, 53, 64
2, 27952, Note_on_c, 0, 52, 64
2, 27958, Note_on_c, 0, 53, 0
2, 27959, Note_on_c, 0, 52, 0
2, 27960, Note_on_c, 0, 57, 64
2, 27967, Note_on_c, 0, 72, 64
2, 27973, Note_on_c, 0, 83, 0
2, 27973, Note_on_c, 0, 74, 0
2, 27974, Note_on_c, 0, 72, 0
2, 27975, Note_on_c, 0, 83, 64
2, 27982, Note_on_c, 0, 81, 64
2, 27988, Note_on_c, 0, 83, 0
2, 27989, Note_on_c, 0, 81, 0
2, 27990, Note_on_c, 0, 76, 64
2, 27990, Note_on_c, 0, 84, 64
2, 27997, Note_on_c, 0, 43, 64
2, 28003, Note_on_c, 0, 57, 0
2, 28004, Note_on_c, 0, 43, 0
2, 28005, Note_on_c, 0, 47, 64
2, 28012, Note_on_c, 0, 45, 64
2, 28018, Note_on_c, 0, 47, 0
2, 28019, Note_on_c, 0, 45, 0
2, 28020, Note_on_c, 0, 43, 64
2, 28027, Note_on_c, 0, 74, 64
2, 28033, Note_on_c, 0, 84, 0
2, 28033, Note_on_c, 0, 76, 0
2, 28034, Note_on_c, 0, 74, 0
2, 28035, Note_on_c, 0, 84, 64
2, 28042, Note_on_c, 0, 83, 64
2, 28048, Note_on_c, 0, 84, 0
2, 28049, Note_on_c, 0, 83, 0
2, 28050, Note_on_c, 0, 77, 64
2, 28050, Note_on_c, 0, 86, 64
2, 28057, Note_on_c, 0, 31, 64
2, 28063, Note_on_c, 0, 43, 0
2, 28064, Note_on_c, 0, 31, 0
2, 28065, Note_on_c, 0, 32, 64
2, 28072, Note_on_c, 0, 77, 64
2, 28072, Note_on_c, 0, 86, 64
2, 28072, Note_on_c, 0, 31, 64
2, 28078, Note_on_c, 0, 86, 0
2, 28078, Note_on_c, 0, 77, 0
2, 28078, Note_on_c, 0, 32, 0
2, 28079, Note_on_c, 0, 77, 0
2, 28079, Note_on_c, 0, 86, 0
2, 28080, Note_on_c, 0, 77, 64
2, 28080, Note_on_c, 0, 79, 64
2, 28080, Note_on_c, 0, 83, 64
2, 28080, Note_on_c, 0, 86, 64
2, 28087, Note_on_c, 0, 35, 64
2, 28094, Note_on_c, 0, 35, 0
2, 28094, Note_on_c, 0, 31, 0
2, 28095, Note_on_c, 0, 38, 64
2, 28101, Note_on_c, 0, 83, 0
2, 28101, Note_on_c, 0, 86, 0
2, 28101, Note_on_c, 0, 77, 0
2, 28101, Note_on_c, 0, 79, 0
2, 28102, Note_on_c, 0, 77, 64
2, 28102, Note_on_c, 0, 79, 64
2, 28102, Note_on_c, 0, 83, 64
2, 28102, Note_on_c, 0, 86, 64
2, 28102, Note_on_c, 0, 43, 64
2, 28108, Note_on_c, 0, 38, 0
2, 28109, Note_on_c, 0, 43, 0
2, 28110, Note_on_c, 0, 47, 64
2, 28117, Note_on_c, 0, 50, 64
2, 28123, Note_on_c, 0, 47, 0
2, 28124, Note_on_c, 0, 50, 0
2, 28125, Note_on_c, 0, 54, 64
2, 28131, Note_on_c, 0, 86, 0
2, 28131, Note_on_c, 0, 83, 0
2, 28131, Note_on_c, 0, 77, 0
2, 28131, Note_on_c, 0, 79, 0
2, 28132, Note_on_c, 0, 77, 64
2, 28132, Note_on_c, 0, 79, 64
2, 28132, Note_on_c, 0, 83, 64
2, 28132, Note_on_c, 0, 86, 64
2, 28132, Note_on_c, 0, 55, 64
2, 28138, Note_on_c, 0, 54, 0
2, 28139, Note_on_c, 0, 55, 0
2, 28140, Note_on_c, 0, 43, 64
2, 28140, Note_on_c, 0, 47, 64
2, 28140, Note_on_c, 0, 50, 64
2, 28140, Note_on_c, 0, 53, 64
2, 28147, Note_on_c, 0, 83, 64
2, 28153, Note_on_c, 0, 83, 0
2, 28153, Note_on_c, 0, 77, 0
2, 28153, Note_on_c, 0, 86, 0
2, 28153, Note_on_c, 0, 79, 0
2, 28154, Note_on_c, 0, 83, 0
2, 28155, Note_on_c, 0, 89, 64
2, 28161, Note_on_c, 0, 43, 0
2, 28161, Note_on_c, 0, 47, 0
2, 28161, Note_on_c, 0, 53, 0
2, 28161, Note_on_c, 0, 50, 0
2, 28162, Note_on_c, 0, 86, 64
2, 28162, Note_on_c, 0, 43, 64
2, 28162, Note_on_c, 0, 47, 64
2, 28162, Note_on_c, 0, 50, 64
2, 28162, Note_on_c, 0, 53, 64
2, 28168, Note_on_c, 0, 89, 0
2, 28169, Note_on_c, 0, 86, 0
2, 28170, Note_on_c, 0, 84, 64
2, 28177, Note_on_c, 0, 83, 64
2, 28183, Note_on_c, 0, 84, 0
2, 28184, Note_on_c, 0, 83, 0
2, 28185, Note_on_c, 0, 86, 64
2, 28191, Note_on_c, 0, 43, 0
2, 28191, Note_on_c, 0, 50, 0
2, 28191, Note_on_c, 0, 47, 0
2, 28191, Note_on_c, 0, 53, 0
2, 28192, Note_on_c, 0, 83, 64
2, 28192, Note_on_c, 0, 43, 64
2, 28192, Note_on_c, 0, 47, 64
2, 28192, Note_on_c, 0, 50, 64
2, 28192, Note_on_c, 0, 53, 64
2, 28198, Note_on_c, 0, 86, 0
2, 28199, Note_on_c, 0, 83, 0
2, 28200, Note_on_c, 0, 79, 64
2, 28207, Note_on_c, 0, 77, 64
2, 28213, Note_on_c, 0, 79, 0
2, 28214, Note_on_c, 0, 77, 0
2, 28215, Note_on_c, 0, 81, 64
2, 28221, Note_on_c, 0, 43, 0
2, 28221, Note_on_c, 0, 50, 0
2, 28221, Note_on_c, 0, 47, 0
2, 28221, Note_on_c, 0, 53, 0
2, 28222, Note_on_c, 0, 77, 64
2, 28222, Note_on_c, 0, 43, 64
2, 28222, Note_on_c, 0, 47, 64
2, 28222, Note_on_c, 0, 50, 64
2, 28222, Note_on_c, 0, 53, 64
2, 28228, Note_on_c, 0, 81, 0
2, 28229, Note_on_c, 0, 77, 0
2, 28230, Note_on_c, 0, 76, 64
2, 28237, Note_on_c, 0, 71, 64
2, 28243, Note_on_c, 0, 76, 0
2, 28244, Note_on_c, 0, 71, 0
2, 28245, Note_on_c, 0, 74, 64
2, 28251, Note_on_c, 0, 43, 0
2, 28251, Note_on_c, 0, 50, 0
2, 28251, Note_on_c, 0, 47, 0
2, 28251, Note_on_c, 0, 53, 0
2, 28252, Note_on_c, 0, 71, 64
2, 28252, Note_on_c, 0, 43, 64
2, 28252, Note_on_c, 0, 47, 64
2, 28252, Note_on_c, 0, 50, 64
2, 28252, Note_on_c, 0, 53, 64
2, 28258, Note_on_c, 0, 74, 0
2, 28259, Note_on_c, 0, 43, 0
2, 28259, Note_on_c, 0, 47, 0
2, 28259, Note_on_c, 0, 71, 0
2, 28259, Note_on_c, 0, 53, 0
2, 28259, Note_on_c, 0, 50, 0
2, 28260, Note_on_c, 0, 67, 64
2, 28260, Note_on_c, 0, 72, 64
2, 28260, Note_on_c, 0, 76, 64
2, 28260, Note_on_c, 0, 36, 64
2, 28267, Note_on_c, 0, 40, 64
2, 28273, Note_on_c, 0, 36, 0
2, 28274, Note_on_c, 0, 40, 0
2, 28275, Note_on_c, 0, 43, 64
2, 28281, Note_on_c, 0, 67, 0
2, 28281, Note_on_c, 0, 76, 0
2, 28281, Note_on_c, 0, 72, 0
2, 28282, Note_on_c, 0, 67, 64
2, 28282, Note_on_c, 0, 72, 64
2, 28282, Note_on_c, 0, 76, 64
2, 28282, Note_on_c, 0, 47, 64
2, 28288, Note_on_c, 0, 43, 0
2, 28289, Note_on_c, 0, 47, 0
2, 28290, Note_on_c, 0, 48, 64
2, 28297, Note_on_c, 0, 52, 64
2, 28303, Note_on_c, 0, 48, 0
2, 28304, Note_on_c, 0, 52, 0
2, 28305, Note_on_c, 0, 55, 64
2, 28311, Note_on_c, 0, 76, 0
2, 28311, Note_on_c, 0, 67, 0
2, 28311, Note_on_c, 0, 72, 0
2, 28312, Note_on_c, 0, 67, 64
2, 28312, Note_on_c, 0, 72, 64
2, 28312, Note_on_c, 0, 76, 64
2, 28312, Note_on_c, 0, 59, 64
2, 28318, Note_on_c, 0, 55, 0
2, 28319, Note_on_c, 0, 59, 0
2, 28320, Note_on_c, 0, 60, 64
2, 28327, Note_on_c, 0, 67, 64
2, 28327, Note_on_c, 0, 71, 64
2, 28327, Note_on_c, 0, 65, 64
2, 28333, Note_on_c, 0, 67, 0
2, 28333, Note_on_c, 0, 60, 0
2, 28333, Note_on_c, 0, 76, 0
2, 28333, Note_on_c, 0, 72, 0
2, 28334, Note_on_c, 0, 67, 0
2, 28334, Note_on_c, 0, 65, 0
2, 28334, Note_on_c, 0, 71, 0
2, 28335, Note_on_c, 0, 69, 64
2, 28335, Note_on_c, 0, 72, 64
2, 28335, Note_on_c, 0, 64, 64
2, 28342, Note_on_c, 0, 71, 64
2, 28342, Note_on_c, 0, 74, 64
2, 28342, Note_on_c, 0, 62, 64
2, 28348, Note_on_c, 0, 64, 0
2, 28348, Note_on_c, 0, 69, 0
2, 28348, Note_on_c, 0, 72, 0
2, 28349, Note_on_c, 0, 71, 0
2, 28349, Note_on_c, 0, 74, 0
2, 28349, Note_on_c, 0, 62, 0
2, 28350, Note_on_c, 0, 67, 64
2, 28350, Note_on_c, 0, 76, 64
2, 28350, Note_on_c, 0, 60, 64
2, 28357, Note_on_c, 0, 64, 64
2, 28357, Note_on_c, 0, 36, 64
2, 28363, Note_on_c, 0, 60, 0
2, 28363, Note_on_c, 0, 67, 0
2, 28364, Note_on_c, 0, 36, 0
2, 28364, Note_on_c, 0, 64, 0
2, 28365, Note_on_c, 0, 65, 64
2, 28365, Note_on_c, 0, 38, 64
2, 28372, Note_on_c, 0, 67, 64
2, 28372, Note_on_c, 0, 40, 64
2, 28378, Note_on_c, 0, 38, 0
2, 28378, Note_on_c, 0, 65, 0
2, 28379, Note_on_c, 0, 40, 0
2, 28379, Note_on_c, 0, 67, 0
2, 28380, Note_on_c, 0, 69, 64
2, 28380, Note_on_c, 0, 41, 64
2, 28387, Note_on_c, 0, 72, 64
2, 28387, Note_on_c, 0, 55, 64
2, 28393, Note_on_c, 0, 41, 0
2, 28393, Note_on_c, 0, 76, 0
2, 28394, Note_on_c, 0, 55, 0
2, 28394, Note_on_c, 0, 72, 0
2, 28395, Note_on_c, 0, 74, 64
2, 28395, Note_on_c, 0, 53, 64
2, 28402, Note_on_c, 0, 76, 64
2, 28402, Note_on_c, 0, 52, 64
2, 28408, Note_on_c, 0, 53, 0
2, 28408, Note_on_c, 0, 74, 0
2, 28409, Note_on_c, 0, 52, 0
2, 28409, Note_on_c, 0, 76, 0
2, 28410, Note_on_c, 0, 77, 64
2, 28410, Note_on_c, 0, 50, 64
2, 28417, Note_on_c, 0, 65, 64
2, 28417, Note_on_c, 0, 38, 64
2, 28423, Note_on_c, 0, 50, 0
2, 28423, Note_on_c, 0, 69, 0
2, 28424, Note_on_c, 0, 38, 0
2, 28424, Note_on_c, 0, 65, 0
2, 28425, Note_on_c, 0, 67, 64
2, 28425, Note_on_c, 0, 40, 64
2, 28432, Note_on_c, 0, 69, 64
2, 28432, Note_on_c, 0, 41, 64
2, 28438, Note_on_c, 0, 40, 0
2, 28438, Note_on_c, 0, 67, 0
2, 28439, Note_on_c, 0, 41, 0
2, 28439, Note_on_c, 0, 69, 0
2, 28440, Note_on_c, 0, 71, 64
2, 28440, Note_on_c, 0, 43, 64
2, 28447, Note_on_c, 0, 70, 64
2, 28447, Note_on_c, 0, 73, 64
2, 28453, Note_on_c, 0, 71, 0
2, 28453, Note_on_c, 0, 77, 0
2, 28454, Note_on_c, 0, 70, 0
2, 28454, Note_on_c, 0, 73, 0
2, 28455, Note_on_c, 0, 71, 64
2, 28455, Note_on_c, 0, 74, 64
2, 28462, Note_on_c, 0, 72, 64
2, 28462, Note_on_c, 0, 76, 64
2, 28466, Note_on_c, 0, 43, 0
2, 28468, Note_on_c, 0, 71, 0
2, 28468, Note_on_c, 0, 74, 0
2, 28469, Note_on_c, 0, 72, 0
2, 28469, Note_on_c, 0, 76, 0
2, 28470, Note_on_c, 0, 71, 64
2, 28470, Note_on_c, 0, 74, 64
2, 28470, Note_on_c, 0, 55, 64
2, 28477, Note_on_c, 0, 54, 64
2, 28483, Note_on_c, 0, 55, 0
2, 28484, Note_on_c, 0, 54, 0
2, 28485, Note_on_c, 0, 55, 64
2, 28492, Note_on_c, 0, 57, 64
2, 28498, Note_on_c, 0, 55, 0
2, 28499, Note_on_c, 0, 57, 0
2, 28500, Note_on_c, 0, 71, 0
2, 28500, Note_on_c, 0, 67, 64
2, 28500, Note_on_c, 0, 59, 64
2, 28507, Note_on_c, 0, 73, 64
2, 28513, Note_on_c, 0, 74, 0
2, 28514, Note_on_c, 0, 73, 0
2, 28515, Note_on_c, 0, 74, 64
2, 28522, Note_on_c, 0, 76, 64
2, 28528, Note_on_c, 0, 74, 0
2, 28529, Note_on_c, 0, 76, 0
2, 28530, Note_on_c, 0, 74, 64
2, 28537, Note_on_c, 0, 69, 64
2, 28537, Note_on_c, 0, 60, 64
2, 28543, Note_on_c, 0, 59, 0
2, 28543, Note_on_c, 0, 67, 0
2, 28544, Note_on_c, 0, 69, 0
2, 28544, Note_on_c, 0, 60, 0
2, 28545, Note_on_c, 0, 71, 64
2, 28545, Note_on_c, 0, 62, 64
2, 28552, Note_on_c, 0, 72, 64
2, 28552, Note_on_c, 0, 64, 64
2, 28558, Note_on_c, 0, 62, 0
2, 28558, Note_on_c, 0, 71, 0
2, 28559, Note_on_c, 0, 64, 0
2, 28559, Note_on_c, 0, 72, 0
2, 28560, Note_on_c, 0, 71, 64
2, 28560, Note_on_c, 0, 65, 64
2, 28567, Note_on_c, 0, 76, 64
2, 28567, Note_on_c, 0, 64, 64
2, 28573, Note_on_c, 0, 65, 0
2, 28573, Note_on_c, 0, 74, 0
2, 28573, Note_on_c, 0, 71, 0
2, 28574, Note_on_c, 0, 76, 0
2, 28574, Note_on_c, 0, 64, 0
2, 28575, Note_on_c, 0, 71, 64
2, 28575, Note_on_c, 0, 77, 64
2, 28575, Note_on_c, 0, 62, 64
2, 28582, Note_on_c, 0, 78, 64
2, 28582, Note_on_c, 0, 60, 64
2, 28588, Note_on_c, 0, 62, 0
2, 28588, Note_on_c, 0, 71, 0
2, 28588, Note_on_c, 0, 77, 0
2, 28589, Note_on_c, 0, 78, 0
2, 28589, Note_on_c, 0, 60, 0
2, 28590, Note_on_c, 0, 79, 64
2, 28590, Note_on_c, 0, 59, 64
2, 28597, Note_on_c, 0, 76, 64
2, 28597, Note_on_c, 0, 60, 64
2, 28603, Note_on_c, 0, 59, 0
2, 28604, Note_on_c, 0, 60, 0
2, 28604, Note_on_c, 0, 76, 0
2, 28605, Note_on_c, 0, 74, 64
2, 28605, Note_on_c, 0, 59, 64
2, 28612, Note_on_c, 0, 72, 64
2, 28612, Note_on_c, 0, 57, 64
2, 28618, Note_on_c, 0, 59, 0
2, 28618, Note_on_c, 0, 74, 0
2, 28619, Note_on_c, 0, 57, 0
2, 28619, Note_on_c, 0, 72, 0
2, 28620, Note_on_c, 0, 79, 0
2, 28620, Note_on_c, 0, 79, 64
2, 28620, Note_on_c, 0, 74, 64
2, 28620, Note_on_c, 0, 59, 64
2, 28626, Note_on_c, 0, 59, 0
2, 28626, Note_on_c, 0, 74, 0
2, 28627, Note_on_c, 0, 74, 64
2, 28627, Note_on_c, 0, 59, 64
2, 28633, Note_on_c, 0, 79, 0
2, 28635, Note_on_c, 0, 79, 64
2, 28641, Note_on_c, 0, 59, 0
2, 28641, Note_on_c, 0, 74, 0
2, 28642, Note_on_c, 0, 74, 64
2, 28642, Note_on_c, 0, 59, 64
2, 28648, Note_on_c, 0, 79, 0
2, 28650, Note_on_c, 0, 79, 64
2, 28650, Note_on_c, 0, 67, 64
2, 28656, Note_on_c, 0, 67, 0
2, 28656, Note_on_c, 0, 74, 0
2, 28656, Note_on_c, 0, 59, 0
2, 28657, Note_on_c, 0, 67, 64
2, 28657, Note_on_c, 0, 74, 64
2, 28657, Note_on_c, 0, 77, 64
2, 28657, Note_on_c, 0, 59, 64
2, 28663, Note_on_c, 0, 79, 0
2, 28664, Note_on_c, 0, 77, 0
2, 28664, Note_on_c, 0, 59, 0
2, 28664, Note_on_c, 0, 74, 0
2, 28665, Note_on_c, 0, 76, 64
2, 28665, Note_on_c, 0, 60, 64
2, 28671, Note_on_c, 0, 67, 0
2, 28672, Note_on_c, 0, 67, 64
2, 28672, Note_on_c, 0, 74, 64
2, 28672, Note_on_c, 0, 77, 64
2, 28672, Note_on_c, 0, 59, 64
2, 28678, Note_on_c, 0, 60, 0
2, 28678, Note_on_c, 0, 76, 0
2, 28679, Note_on_c, 0, 77, 0
2, 28679, Note_on_c, 0, 74, 0
2, 28679, Note_on_c, 0, 59, 0
2, 28680, Note_on_c, 0, 76, 64
2, 28680, Note_on_c, 0, 60, 64
2, 28686, Note_on_c, 0, 67, 0
2, 28687, Note_on_c, 0, 60, 64
2, 28687, Note_on_c, 0, 65, 64
2, 28687, Note_on_c, 0, 45, 64
2, 28693, Note_on_c, 0, 60, 0
2, 28693, Note_on_c, 0, 76, 0
2, 28694, Note_on_c, 0, 60, 0
2, 28694, Note_on_c, 0, 65, 0
2, 28694, Note_on_c, 0, 45, 0
2, 28695, Note_on_c, 0, 59, 64
2, 28695, Note_on_c, 0, 64, 64
2, 28695, Note_on_c, 0, 43, 64
2, 28702, Note_on_c, 0, 57, 64
2, 28702, Note_on_c, 0, 62, 64
2, 28702, Note_on_c, 0, 41, 64
2, 28708, Note_on_c, 0, 43, 0
2, 28708, Note_on_c, 0, 59, 0
2, 28708, Note_on_c, 0, 64, 0
2, 28709, Note_on_c, 0, 57, 0
2, 28709, Note_on_c, 0, 62, 0
2, 28709, Note_on_c, 0, 41, 0
2, 28710, Note_on_c, 0, 55, 64
2, 28710, Note_on_c, 0, 60, 64
2, 28710, Note_on_c, 0, 40, 64
2, 28717, Note_on_c, 0, 59, 64
2, 28717, Note_on_c, 0, 41, 64
2, 28723, Note_on_c, 0, 40, 0
2, 28723, Note_on_c, 0, 55, 0
2, 28724, Note_on_c, 0, 41, 0
2, 28724, Note_on_c, 0, 59, 0
2, 28725, Note_on_c, 0, 55, 64
2, 28725, Note_on_c, 0, 40, 64
2, 28732, Note_on_c, 0, 53, 64
2, 28732, Note_on_c, 0, 38, 64
2, 28738, Note_on_c, 0, 40, 0
2, 28738, Note_on_c, 0, 60, 0
2, 28738, Note_on_c, 0, 55, 0
2, 28739, Note_on_c, 0, 53, 0
2, 28739, Note_on_c, 0, 38, 0
2, 28740, Note_on_c, 0, 52, 64
2, 28740, Note_on_c, 0, 60, 64
2, 28740, Note_on_c, 0, 36, 64
2, 28748, Note_on_c, 0, 36, 0
2, 28749, Note_on_c, 0, 43, 64
2, 28758, Note_on_c, 0, 43, 0
2, 28759, Note_on_c, 0, 36, 64
2, 28766, Note_on_c, 0, 60, 0
2, 28766, Note_on_c, 0, 52, 0
2, 28768, Note_on_c, 0, 36, 0
2, 28770, Note_on_c, 0, 52, 64
2, 28770, Note_on_c, 0, 55, 64
2, 28770, Note_on_c, 0, 60, 64
2, 28770, Note_on_c, 0, 43, 64
2, 28778, Note_on_c, 0, 43, 0
2, 28779, Note_on_c, 0, 36, 64
2, 28788, Note_on_c, 0, 36, 0
2, 28789, Note_on_c, 0, 43, 64
2, 28798, Note_on_c, 0, 43, 0
2, 28800, Note_on_c, 0, 36, 64
2, 28808, Note_on_c, 0, 36, 0
2, 28809, Note_on_c, 0, 43, 64
2, 28818, Note_on_c, 0, 43, 0
2, 28819, Note_on_c, 0, 36, 64
2, 28826, Note_on_c, 0, 52, 0
2, 28826, Note_on_c, 0, 60, 0
2, 28826, Note_on_c, 0, 55, 0
2, 28828, Note_on_c, 0, 36, 0
2, 28830, Note_on_c, 0, 43, 64
2, 28838, Note_on_c, 0, 43, 0
2, 28839, Note_on_c, 0, 36, 64
2, 28848, Note_on_c, 0, 36, 0
2, 28849, Note_on_c, 0, 43, 64
2, 28858, Note_on_c, 0, 43, 0
2, 28860, Note_on_c, 0, 47, 64
2, 28860, Note_on_c, 0, 50, 64
2, 28860, Note_on_c, 0, 53, 64
2, 28860, Note_on_c, 0, 55, 64
2, 28860, Note_on_c, 0, 36, 64
2, 28868, Note_on_c, 0, 36, 0
2, 28869, Note_on_c, 0, 43, 64
2, 28878, Note_on_c, 0, 43, 0
2, 28879, Note_on_c, 0, 36, 64
2, 28888, Note_on_c, 0, 36, 0
2, 28890, Note_on_c, 0, 43, 64
2, 28898, Note_on_c, 0, 43, 0
2, 28899, Note_on_c, 0, 36, 64
2, 28908, Note_on_c, 0, 36, 0
2, 28909, Note_on_c, 0, 43, 64
2, 28916, Note_on_c, 0, 53, 0
2, 28916, Note_on_c, 0, 55, 0
2, 28916, Note_on_c, 0, 47, 0
2, 28916, Note_on_c, 0, 50, 0
2, 28918, Note_on_c, 0, 43, 0
2, 28920, Note_on_c, 0, 36, 64
2, 28928, Note_on_c, 0, 36, 0
2, 28929, Note_on_c, 0, 43, 64
2, 28938, Note_on_c, 0, 43, 0
2, 28939, Note_on_c, 0, 36, 64
2, 28948, Note_on_c, 0, 36, 0
2, 28950, Note_on_c, 0, 47, 64
2, 28950, Note_on_c, 0, 50, 64
2, 28950, Note_on_c, 0, 53, 64
2, 28950, Note_on_c, 0, 55, 64
2, 28950, Note_on_c, 0, 43, 64
2, 28958, Note_on_c, 0, 43, 0
2, 28959, Note_on_c, 0, 36, 64
2, 28968, Note_on_c, 0, 36, 0
2, 28969, Note_on_c, 0, 43, 64
2, 28978, Note_on_c, 0, 43, 0
2, 28980, Note_on_c, 0, 36, 64
2, 28988, Note_on_c, 0, 36, 0
2, 28989, Note_on_c, 0, 43, 64
2, 28998, Note_on_c, 0, 43, 0
2, 28999, Note_on_c, 0, 36, 64
2, 29006, Note_on_c, 0, 53, 0
2, 29006, Note_on_c, 0, 55, 0
2, 29006, Note_on_c, 0, 47, 0
2, 29006, Note_on_c, 0, 50, 0
2, 29008, Note_on_c, 0, 36, 0
2, 29010, Note_on_c, 0, 43, 64
2, 29018, Note_on_c, 0, 43, 0
2, 29019, Note_on_c, 0, 36, 64
2, 29028, Note_on_c, 0, 36, 0
2, 29029, Note_on_c, 0, 43, 64
2, 29038, Note_on_c, 0, 43, 0
2, 29040, Note_on_c, 0, 53, 64
2, 29040, Note_on_c, 0, 55, 64
2, 29040, Note_on_c, 0, 59, 64
2, 29040, Note_on_c, 0, 62, 64
2, 29040, Note_on_c, 0, 36, 64
2, 29048, Note_on_c, 0, 36, 0
2, 29049, Note_on_c, 0, 43, 64
2, 29058, Note_on_c, 0, 43, 0
2, 29059, Note_on_c, 0, 36, 64
2, 29068, Note_on_c, 0, 36, 0
2, 29070, Note_on_c, 0, 43, 64
2, 29078, Note_on_c, 0, 43, 0
2, 29079, Note_on_c, 0, 36, 64
2, 29088, Note_on_c, 0, 36, 0
2, 29089, Note_on_c, 0, 43, 64
2, 29096, Note_on_c, 0, 59, 0
2, 29096, Note_on_c, 0, 62, 0
2, 29096, Note_on_c, 0, 53, 0
2, 29096, Note_on_c, 0, 55, 0
2, 29098, Note_on_c, 0, 43, 0
2, 29100, Note_on_c, 0, 36, 64
2, 29108, Note_on_c, 0, 36, 0
2, 29109, Note_on_c, 0, 43, 64
2, 29118, Note_on_c, 0, 43, 0
2, 29119, Note_on_c, 0, 36, 64
2, 29128, Note_on_c, 0, 36, 0
2, 29130, Note_on_c, 0, 50, 64
2, 29130, Note_on_c, 0, 53, 64
2, 29130, Note_on_c, 0, 55, 64
2, 29130, Note_on_c, 0, 43, 64
2, 29138, Note_on_c, 0, 43, 0
2, 29139, Note_on_c, 0, 36, 64
2, 29148, Note_on_c, 0, 36, 0
2, 29149, Note_on_c, 0, 43, 64
2, 29158, Note_on_c, 0, 43, 0
2, 29160, Note_on_c, 0, 50, 0
2, 29160, Note_on_c, 0, 53, 0
2, 29160, Note_on_c, 0, 48, 64
2, 29160, Note_on_c, 0, 52, 64
2, 29160, Note_on_c, 0, 36, 64
2, 29168, Note_on_c, 0, 36, 0
2, 29169, Note_on_c, 0, 43, 64
2, 29178, Note_on_c, 0, 43, 0
2, 29179, Note_on_c, 0, 36, 64
2, 29186, Note_on_c, 0, 52, 0
2, 29186, Note_on_c, 0, 55, 0
2, 29186, Note_on_c, 0, 48, 0
2, 29188, Note_on_c, 0, 36, 0
2, 29190, Note_on_c, 0, 43, 64
2, 29198, Note_on_c, 0, 43, 0
2, 29199, Note_on_c, 0, 36, 64
2, 29208, Note_on_c, 0, 36, 0
2, 29209, Note_on_c, 0, 43, 64
2, 29218, Note_on_c, 0, 43, 0
2, 29220, Note_on_c, 0, 48, 64
2, 29220, Note_on_c, 0, 52, 64
2, 29220, Note_on_c, 0, 55, 64
2, 29220, Note_on_c, 0, 36, 64
2, 29228, Note_on_c, 0, 36, 0
2, 29229, Note_on_c, 0, 43, 64
2, 29238, Note_on_c, 0, 43, 0
2, 29239, Note_on_c, 0, 36, 64
2, 29248, Note_on_c, 0, 36, 0
2, 29250, Note_on_c, 0, 43, 64
2, 29258, Note_on_c, 0, 43, 0
2, 29259, Note_on_c, 0, 36, 64
2, 29268, Note_on_c, 0, 36, 0
2, 29269, Note_on_c, 0, 43, 64
2, 29276, Note_on_c, 0, 48, 0
2, 29276, Note_on_c, 0, 55, 0
2, 29276, Note_on_c, 0, 52, 0
2, 29278, Note_on_c, 0, 43, 0
2, 29280, Note_on_c, 0, 36, 64
2, 29288, Note_on_c, 0, 36, 0
2, 29289, Note_on_c, 0, 43, 64
2, 29298, Note_on_c, 0, 43, 0
2, 29299, Note_on_c, 0, 36, 64
2, 29308, Note_on_c, 0, 36, 0
2, 29310, Note_on_c, 0, 50, 64
2, 29310, Note_on_c, 0, 53, 64
2, 29310, Note_on_c, 0, 55, 64
2, 29310, Note_on_c, 0, 43, 64
2, 29318, Note_on_c, 0, 43, 0
2, 29319, Note_on_c, 0, 36, 64
2, 29328, Note_on_c, 0, 36, 0
2, 29329, Note_on_c, 0, 43, 64
2, 29338, Note_on_c, 0, 43, 0
2, 29340, Note_on_c, 0, 36, 64
2, 29348, Note_on_c, 0, 36, 0
2, 29349, Note_on_c, 0, 43, 64
2, 29358, Note_on_c, 0, 43, 0
2, 29359, Note_on_c, 0, 36, 64
2, 29366, Note_on_c, 0, 50, 0
2, 29366, Note_on_c, 0, 55, 0
2, 29366, Note_on_c, 0, 53, 0
2, 29368, Note_on_c, 0, 36, 0
2, 29370, Note_on_c, 0, 43, 64
2, 29378, Note_on_c, 0, 43, 0
2, 29379, Note_on_c, 0, 36, 64
2, 29388, Note_on_c, 0, 36, 0
2, 29389, Note_on_c, 0, 43, 64
2, 29398, Note_on_c, 0, 43, 0
2, 29400, Note_on_c, 0, 51, 64
2, 29400, Note_on_c, 0, 54, 64
2, 29400, Note_on_c, 0, 55, 64
2, 29400, Note_on_c, 0, 36, 64
2, 29408, Note_on_c, 0, 36, 0
2, 29409, Note_on_c, 0, 43, 64
2, 29418, Note_on_c, 0, 43, 0
2, 29419, Note_on_c, 0, 36, 64
2, 29426, Note_on_c, 0, 54, 0
2, 29428, Note_on_c, 0, 36, 0
2, 29430, Note_on_c, 0, 51, 0
2, 29430, Note_on_c, 0, 52, 64
2, 29430, Note_on_c, 0, 43, 64
2, 29438, Note_on_c, 0, 43, 0
2, 29439, Note_on_c, 0, 36, 64
2, 29448, Note_on_c, 0, 36, 0
2, 29449, Note_on_c, 0, 43, 64
2, 29456, Note_on_c, 0, 52, 0
2, 29456, Note_on_c, 0, 55, 0
2, 29458, Note_on_c, 0, 43, 0
2, 29460, Note_on_c, 0, 36, 64
2, 29468, Note_on_c, 0, 36, 0
2, 29469, Note_on_c, 0, 43, 64
2, 29478, Note_on_c, 0, 43, 0
2, 29479, Note_on_c, 0, 36, 64
2, 29488, Note_on_c, 0, 36, 0
2, 29490, Note_on_c, 0, 52, 64
2, 29490, Note_on_c, 0, 55, 64
2, 29490, Note_on_c, 0, 64, 64
2, 29490, Note_on_c, 0, 43, 64
2, 29498, Note_on_c, 0, 43, 0
2, 29499, Note_on_c, 0, 36, 64
2, 29508, Note_on_c, 0, 36, 0
2, 29509, Note_on_c, 0, 43, 64
2, 29518, Note_on_c, 0, 43, 0
2, 29520, Note_on_c, 0, 36, 64
2, 29528, Note_on_c, 0, 36, 0
2, 29529, Note_on_c, 0, 43, 64
2, 29538, Note_on_c, 0, 43, 0
2, 29539, Note_on_c, 0, 36, 64
2, 29546, Note_on_c, 0, 52, 0
2, 29546, Note_on_c, 0, 64, 0
2, 29546, Note_on_c, 0, 55, 0
2, 29548, Note_on_c, 0, 36, 0
2, 29550, Note_on_c, 0, 43, 64
2, 29558, Note_on_c, 0, 43, 0
2, 29559, Note_on_c, 0, 36, 64
2, 29568, Note_on_c, 0, 36, 0
2, 29569, Note_on_c, 0, 43, 64
2, 29578, Note_on_c, 0, 43, 0
2, 29580, Note_on_c, 0, 51, 64
2, 29580, Note_on_c, 0, 54, 64
2, 29580, Note_on_c, 0, 57, 64
2, 29580, Note_on_c, 0, 60, 64
2, 29580, Note_on_c, 0, 36, 64
2, 29588, Note_on_c, 0, 36, 0
2, 29589, Note_on_c, 0, 43, 64
2, 29598, Note_on_c, 0, 43, 0
2, 29599, Note_on_c, 0, 36, 64
2, 29608, Note_on_c, 0, 36, 0
2, 29610, Note_on_c, 0, 43, 64
2, 29618, Note_on_c, 0, 43, 0
2, 29619, Note_on_c, 0, 36, 64
2, 29628, Note_on_c, 0, 36, 0
2, 29629, Note_on_c, 0, 43, 64
2, 29636, Note_on_c, 0, 57, 0
2, 29636, Note_on_c, 0, 60, 0
2, 29636, Note_on_c, 0, 51, 0
2, 29636, Note_on_c, 0, 54, 0
2, 29638, Note_on_c, 0, 43, 0
2, 29640, Note_on_c, 0, 36, 64
2, 29648, Note_on_c, 0, 36, 0
2, 29649, Note_on_c, 0, 43, 64
2, 29658, Note_on_c, 0, 43, 0
2, 29659, Note_on_c, 0, 36, 64
2, 29668, Note_on_c, 0, 36, 0
2, 29670, Note_on_c, 0, 50, 64
2, 29670, Note_on_c, 0, 53, 64
2, 29670, Note_on_c, 0, 56, 64
2, 29670, Note_on_c, 0, 60, 64
2, 29670, Note_on_c, 0, 43, 64
2, 29678, Note_on_c, 0, 43, 0
2, 29679, Note_on_c, 0, 36, 64
2, 29688, Note_on_c, 0, 36, 0
2, 29689, Note_on_c, 0, 43, 64
2, 29698, Note_on_c, 0, 43, 0
2, 29700, Note_on_c, 0, 36, 64
2, 29708, Note_on_c, 0, 36, 0
2, 29709, Note_on_c, 0, 43, 64
2, 29718, Note_on_c, 0, 43, 0
2, 29719, Note_on_c, 0, 36, 64
2, 29726, Note_on_c, 0, 56, 0
2, 29726, Note_on_c, 0, 60, 0
2, 29726, Note_on_c, 0, 50, 0
2, 29726, Note_on_c, 0, 53, 0
2, 29728, Note_on_c, 0, 36, 0
2, 29730, Note_on_c, 0, 43, 64
2, 29738, Note_on_c, 0, 43, 0
2, 29739, Note_on_c, 0, 36, 64
2, 29748, Note_on_c, 0, 36, 0
2, 29749, Note_on_c, 0, 43, 64
2, 29758, Note_on_c, 0, 43, 0
2, 29760, Note_on_c, 0, 50, 64
2, 29760, Note_on_c, 0, 53, 64
2, 29760, Note_on_c, 0, 56, 64
2, 29760, Note_on_c, 0, 59, 64
2, 29760, Note_on_c, 0, 36, 64
2, 29768, Note_on_c, 0, 36, 0
2, 29769, Note_on_c, 0, 43, 64
2, 29778, Note_on_c, 0, 43, 0
2, 29779, Note_on_c, 0, 36, 64
2, 29788, Note_on_c, 0, 36, 0
2, 29790, Note_on_c, 0, 43, 64
2, 29798, Note_on_c, 0, 43, 0
2, 29799, Note_on_c, 0, 36, 64
2, 29808, Note_on_c, 0, 36, 0
2, 29809, Note_on_c, 0, 43, 64
2, 29816, Note_on_c, 0, 56, 0
2, 29816, Note_on_c, 0, 59, 0
2, 29816, Note_on_c, 0, 50, 0
2, 29816, Note_on_c, 0, 53, 0
2, 29818, Note_on_c, 0, 43, 0
2, 29820, Note_on_c, 0, 36, 64
2, 29828, Note_on_c, 0, 36, 0
2, 29829, Note_on_c, 0, 43, 64
2, 29838, Note_on_c, 0, 43, 0
2, 29839, Note_on_c, 0, 36, 64
2, 29848, Note_on_c, 0, 36, 0
2, 29850, Note_on_c, 0, 50, 64
2, 29850, Note_on_c, 0, 53, 64
2, 29850, Note_on_c, 0, 55, 64
2, 29850, Note_on_c, 0, 59, 64
2, 29850, Note_on_c, 0, 43, 64
2, 29858, Note_on_c, 0, 43, 0
2, 29859, Note_on_c, 0, 36, 64
2, 29868, Note_on_c, 0, 36, 0
2, 29869, Note_on_c, 0, 43, 64
2, 29878, Note_on_c, 0, 43, 0
2, 29880, Note_on_c, 0, 36, 64
2, 29888, Note_on_c, 0, 36, 0
2, 29889, Note_on_c, 0, 43, 64
2, 29898, Note_on_c, 0, 43, 0
2, 29899, Note_on_c, 0, 36, 64
2, 29906, Note_on_c, 0, 55, 0
2, 29906, Note_on_c, 0, 59, 0
2, 29906, Note_on_c, 0, 50, 0
2, 29906, Note_on_c, 0, 53, 0
2, 29908, Note_on_c, 0, 36, 0
2, 29910, Note_on_c, 0, 43, 64
2, 29918, Note_on_c, 0, 43, 0
2, 29919, Note_on_c, 0, 36, 64
2, 29928, Note_on_c, 0, 36, 0
2, 29929, Note_on_c, 0, 43, 64
2, 29938, Note_on_c, 0, 43, 0
2, 29940, Note_on_c, 0, 51, 64
2, 29940, Note_on_c, 0, 54, 64
2, 29940, Note_on_c, 0, 60, 64
2, 29940, Note_on_c, 0, 36, 64
2, 29948, Note_on_c, 0, 36, 0
2, 29949, Note_on_c, 0, 43, 64
2, 29958, Note_on_c, 0, 43, 0
2, 29959, Note_on_c, 0, 36, 64
2, 29968, Note_on_c, 0, 36, 0
2, 29970, Note_on_c, 0, 51, 0
2, 29970, Note_on_c, 0, 54, 0
2, 29970, Note_on_c, 0, 52, 64
2, 29970, Note_on_c, 0, 55, 64
2, 29970, Note_on_c, 0, 43, 64
2, 29978, Note_on_c, 0, 43, 0
2, 29979, Note_on_c, 0, 36, 64
2, 29988, Note_on_c, 0, 36, 0
2, 29989, Note_on_c, 0, 43, 64
2, 29996, Note_on_c, 0, 55, 0
2, 29996, Note_on_c, 0, 60, 0
2, 29996, Note_on_c, 0, 52, 0
2, 29998, Note_on_c, 0, 43, 0
2, 30000, Note_on_c, 0, 36, 64
2, 30008, Note_on_c, 0, 36, 0
2, 30009, Note_on_c, 0, 43, 64
2, 30018, Note_on_c, 0, 43, 0
2, 30019, Note_on_c, 0, 36, 64
2, 30028, Note_on_c, 0, 36, 0
2, 30030, Note_on_c, 0, 55, 64
2, 30030, Note_on_c, 0, 59, 64
2, 30030, Note_on_c, 0, 64, 64
2, 30030, Note_on_c, 0, 43, 64
2, 30038, Note_on_c, 0, 43, 0
2, 30039, Note_on_c, 0, 36, 64
2, 30048, Note_on_c, 0, 36, 0
2, 30049, Note_on_c, 0, 43, 64
2, 30058, Note_on_c, 0, 43, 0
2, 30060, Note_on_c, 0, 59, 0
2, 30060, Note_on_c, 0, 60, 64
2, 30060, Note_on_c, 0, 36, 64
2, 30068, Note_on_c, 0, 36, 0
2, 30069, Note_on_c, 0, 43, 64
2, 30078, Note_on_c, 0, 43, 0
2, 30079, Note_on_c, 0, 36, 64
2, 30086, Note_on_c, 0, 60, 0
2, 30086, Note_on_c, 0, 55, 0
2, 30086, Note_on_c, 0, 64, 0
2, 30088, Note_on_c, 0, 36, 0
2, 30090, Note_on_c, 0, 43, 64
2, 30098, Note_on_c, 0, 43, 0
2, 30099, Note_on_c, 0, 36, 64
2, 30108, Note_on_c, 0, 36, 0
2, 30109, Note_on_c, 0, 43, 64
2, 30118, Note_on_c, 0, 43, 0
2, 30120, Note_on_c, 0, 58, 64
2, 30120, Note_on_c, 0, 61, 64
2, 30120, Note_on_c, 0, 64, 64
2, 30120, Note_on_c, 0, 67, 64
2, 30120, Note_on_c, 0, 36, 64
2, 30128, Note_on_c, 0, 36, 0
2, 30129, Note_on_c, 0, 43, 64
2, 30138, Note_on_c, 0, 43, 0
2, 30139, Note_on_c, 0, 36, 64
2, 30148, Note_on_c, 0, 36, 0
2, 30150, Note_on_c, 0, 43, 64
2, 30158, Note_on_c, 0, 43, 0
2, 30159, Note_on_c, 0, 36, 64
2, 30168, Note_on_c, 0, 36, 0
2, 30169, Note_on_c, 0, 43, 64
2, 30176, Note_on_c, 0, 64, 0
2, 30176, Note_on_c, 0, 67, 0
2, 30176, Note_on_c, 0, 58, 0
2, 30176, Note_on_c, 0, 61, 0
2, 30178, Note_on_c, 0, 43, 0
2, 30180, Note_on_c, 0, 36, 64
2, 30188, Note_on_c, 0, 36, 0
2, 30189, Note_on_c, 0, 43, 64
2, 30198, Note_on_c, 0, 43, 0
2, 30199, Note_on_c, 0, 36, 64
2, 30208, Note_on_c, 0, 36, 0
2, 30210, Note_on_c, 0, 58, 64
2, 30210, Note_on_c, 0, 61, 64
2, 30210, Note_on_c, 0, 64, 64
2, 30210, Note_on_c, 0, 67, 64
2, 30210, Note_on_c, 0, 43, 64
2, 30218, Note_on_c, 0, 43, 0
2, 30219, Note_on_c, 0, 36, 64
2, 30228, Note_on_c, 0, 36, 0
2, 30229, Note_on_c, 0, 43, 64
2, 30238, Note_on_c, 0, 43, 0
2, 30240, Note_on_c, 0, 36, 64
2, 30248, Note_on_c, 0, 36, 0
2, 30249, Note_on_c, 0, 43, 64
2, 30258, Note_on_c, 0, 43, 0
2, 30259, Note_on_c, 0, 36, 64
2, 30266, Note_on_c, 0, 64, 0
2, 30266, Note_on_c, 0, 67, 0
2, 30266, Note_on_c, 0, 58, 0
2, 30266, Note_on_c, 0, 61, 0
2, 30268, Note_on_c, 0, 36, 0
2, 30270, Note_on_c, 0, 45, 64
2, 30278, Note_on_c, 0, 45, 0
2, 30279, Note_on_c, 0, 36, 64
2, 30288, Note_on_c, 0, 36, 0
2, 30289, Note_on_c, 0, 45, 64
2, 30298, Note_on_c, 0, 45, 0
2, 30300, Note_on_c, 0, 53, 64
2, 30300, Note_on_c, 0, 60, 64
2, 30300, Note_on_c, 0, 65, 64
2, 30300, Note_on_c, 0, 36, 64
2, 30308, Note_on_c, 0, 36, 0
2, 30309, Note_on_c, 0, 45, 64
2, 30318, Note_on_c, 0, 45, 0
2, 30319, Note_on_c, 0, 36, 64
2, 30328, Note_on_c, 0, 36, 0
2, 30330, Note_on_c, 0, 45, 64
2, 30338, Note_on_c, 0, 45, 0
2, 30339, Note_on_c, 0, 36, 64
2, 30348, Note_on_c, 0, 36, 0
2, 30349, Note_on_c, 0, 45, 64
2, 30356, Note_on_c, 0, 53, 0
2, 30356, Note_on_c, 0, 65, 0
2, 30356, Note_on_c, 0, 60, 0
2, 30358, Note_on_c, 0, 45, 0
2, 30360, Note_on_c, 0, 36, 64
2, 30368, Note_on_c, 0, 36, 0
2, 30369, Note_on_c, 0, 47, 64
2, 30378, Note_on_c, 0, 47, 0
2, 30379, Note_on_c, 0, 36, 64
2, 30388, Note_on_c, 0, 36, 0
2, 30390, Note_on_c, 0, 53, 64
2, 30390, Note_on_c, 0, 56, 64
2, 30390, Note_on_c, 0, 62, 64
2, 30390, Note_on_c, 0, 47, 64
2, 30398, Note_on_c, 0, 47, 0
2, 30399, Note_on_c, 0, 36, 64
2, 30408, Note_on_c, 0, 36, 0
2, 30409, Note_on_c, 0, 47, 64
2, 30418, Note_on_c, 0, 47, 0
2, 30420, Note_on_c, 0, 36, 64
2, 30428, Note_on_c, 0, 36, 0
2, 30429, Note_on_c, 0, 47, 64
2, 30438, Note_on_c, 0, 47, 0
2, 30439, Note_on_c, 0, 36, 64
2, 30446, Note_on_c, 0, 53, 0
2, 30446, Note_on_c, 0, 62, 0
2, 30446, Note_on_c, 0, 56, 0
2, 30448, Note_on_c, 0, 36, 0
2, 30450, Note_on_c, 0, 50, 64
2, 30458, Note_on_c, 0, 50, 0
2, 30459, Note_on_c, 0, 36, 64
2, 30468, Note_on_c, 0, 36, 0
2, 30469, Note_on_c, 0, 50, 64
2, 30478, Note_on_c, 0, 50, 0
2, 30480, Note_on_c, 0, 53, 64
2, 30480, Note_on_c, 0, 57, 64
2, 30480, Note_on_c, 0, 59, 64
2, 30480, Note_on_c, 0, 36, 64
2, 30488, Note_on_c, 0, 36, 0
2, 30489, Note_on_c, 0, 50, 64
2, 30498, Note_on_c, 0, 50, 0
2, 30499, Note_on_c, 0, 36, 64
2, 30506, Note_on_c, 0, 59, 0
2, 30506, Note_on_c, 0, 53, 0
2, 30506, Note_on_c, 0, 57, 0
2, 30508, Note_on_c, 0, 36, 0
2, 30510, Note_on_c, 0, 53, 64
2, 30510, Note_on_c, 0, 55, 64
2, 30510, Note_on_c, 0, 59, 64
2, 30510, Note_on_c, 0, 50, 64
2, 30518, Note_on_c, 0, 50, 0
2, 30519, Note_on_c, 0, 36, 64
2, 30528, Note_on_c, 0, 36, 0
2, 30529, Note_on_c, 0, 50, 64
2, 30536, Note_on_c, 0, 59, 0
2, 30536, Note_on_c, 0, 53, 0
2, 30536, Note_on_c, 0, 55, 0
2, 30538, Note_on_c, 0, 50, 0
2, 30540, Note_on_c, 0, 36, 64
2, 30548, Note_on_c, 0, 36, 0
2, 30549, Note_on_c, 0, 48, 64
2, 30558, Note_on_c, 0, 48, 0
2, 30559, Note_on_c, 0, 36, 64
2, 30568, Note_on_c, 0, 36, 0
2, 30570, Note_on_c, 0, 53, 64
2, 30570, Note_on_c, 0, 55, 64
2, 30570, Note_on_c, 0, 60, 64
2, 30570, Note_on_c, 0, 48, 64
2, 30578, Note_on_c, 0, 48, 0
2, 30579, Note_on_c, 0, 36, 64
2, 30588, Note_on_c, 0, 36, 0
2, 30589, Note_on_c, 0, 48, 64
2, 30596, Note_on_c, 0, 60, 0
2, 30596, Note_on_c, 0, 53, 0
2, 30596, Note_on_c, 0, 55, 0
2, 30598, Note_on_c, 0, 48, 0
2, 30600, Note_on_c, 0, 52, 64
2, 30600, Note_on_c, 0, 55, 64
2, 30600, Note_on_c, 0, 60, 64
2, 30600, Note_on_c, 0, 36, 64
2, 30608, Note_on_c, 0, 36, 0
2, 30609, Note_on_c, 0, 48, 64
2, 30618, Note_on_c, 0, 48, 0
2, 30619, Note_on_c, 0, 36, 64
2, 30626, Note_on_c, 0, 60, 0
2, 30626, Note_on_c, 0, 52, 0
2, 30626, Note_on_c, 0, 55, 0
2, 30628, Note_on_c, 0, 36, 0
2, 30630, Note_on_c, 0, 47, 64
2, 30638, Note_on_c, 0, 47, 0
2, 30639, Note_on_c, 0, 36, 64
2, 30648, Note_on_c, 0, 36, 0
2, 30649, Note_on_c, 0, 47, 64
2, 30658, Note_on_c, 0, 47, 0
2, 30660, Note_on_c, 0, 53, 64
2, 30660, Note_on_c, 0, 55, 64
2, 30660, Note_on_c, 0, 62, 64
2, 30660, Note_on_c, 0, 36, 64
2, 30668, Note_on_c, 0, 36, 0
2, 30669, Note_on_c, 0, 47, 64
2, 30678, Note_on_c, 0, 47, 0
2, 30679, Note_on_c, 0, 36, 64
2, 30686, Note_on_c, 0, 62, 0
2, 30686, Note_on_c, 0, 53, 0
2, 30686, Note_on_c, 0, 55, 0
2, 30688, Note_on_c, 0, 36, 0
2, 30690, Note_on_c, 0, 50, 64
2, 30690, Note_on_c, 0, 53, 64
2, 30690, Note_on_c, 0, 55, 64
2, 30690, Note_on_c, 0, 47, 64
2, 30698, Note_on_c, 0, 47, 0
2, 30699, Note_on_c, 0, 36, 64
2, 30708, Note_on_c, 0, 36, 0
2, 30709, Note_on_c, 0, 47, 64
2, 30716, Note_on_c, 0, 55, 0
2, 30716, Note_on_c, 0, 50, 0
2, 30716, Note_on_c, 0, 53, 0
2, 30718, Note_on_c, 0, 47, 0
2, 30720, Note_on_c, 0, 55, 64
2, 30720, Note_on_c, 0, 47, 64
2, 30728, Note_on_c, 0, 47, 0
2, 30728, Note_on_c, 0, 55, 0
2, 30729, Note_on_c, 0, 57, 64
2, 30729, Note_on_c, 0, 48, 64
2, 30738, Note_on_c, 0, 48, 0
2, 30738, Note_on_c, 0, 57, 0
2, 30739, Note_on_c, 0, 59, 64
2, 30739, Note_on_c, 0, 50, 64
2, 30748, Note_on_c, 0, 50, 0
2, 30748, Note_on_c, 0, 59, 0
2, 30750, Note_on_c, 0, 60, 64
2, 30750, Note_on_c, 0, 52, 64
2, 30758, Note_on_c, 0, 52, 0
2, 30758, Note_on_c, 0, 60, 0
2, 30759, Note_on_c, 0, 62, 64
2, 30759, Note_on_c, 0, 53, 64
2, 30768, Note_on_c, 0, 53, 0
2, 30768, Note_on_c, 0, 62, 0
2, 30769, Note_on_c, 0, 64, 64
2, 30769, Note_on_c, 0, 55, 64
2, 30778, Note_on_c, 0, 55, 0
2, 30778, Note_on_c, 0, 64, 0
2, 30780, Note_on_c, 0, 65, 64
2, 30780, Note_on_c, 0, 57, 64
2, 30788, Note_on_c, 0, 57, 0
2, 30788, Note_on_c, 0, 65, 0
2, 30789, Note_on_c, 0, 67, 64
2, 30789, Note_on_c, 0, 59, 64
2, 30798, Note_on_c, 0, 59, 0
2, 30798, Note_on_c, 0, 67, 0
2, 30799, Note_on_c, 0, 69, 64
2, 30799, Note_on_c, 0, 60, 64
2, 30808, Note_on_c, 0, 60, 0
2, 30808, Note_on_c, 0, 69, 0
2, 30810, Note_on_c, 0, 71, 64
2, 30810, Note_on_c, 0, 62, 64
2, 30818, Note_on_c, 0, 62, 0
2, 30818, Note_on_c, 0, 71, 0
2, 30819, Note_on_c, 0, 72, 64
2, 30819, Note_on_c, 0, 64, 64
2, 30828, Note_on_c, 0, 64, 0
2, 30828, Note_on_c, 0, 72, 0
2, 30829, Note_on_c, 0, 74, 64
2, 30829, Note_on_c, 0, 65, 64
2, 30838, Note_on_c, 0, 65, 0
2, 30838, Note_on_c, 0, 74, 0
2, 30840, Note_on_c, 0, 76, 64
2, 30840, Note_on_c, 0, 67, 64
2, 30848, Note_on_c, 0, 67, 0
2, 30848, Note_on_c, 0, 76, 0
2, 30849, Note_on_c, 0, 77, 64
2, 30849, Note_on_c, 0, 69, 64
2, 30858, Note_on_c, 0, 69, 0
2, 30858, Note_on_c, 0, 77, 0
2, 30859, Note_on_c, 0, 79, 64
2, 30859, Note_on_c, 0, 71, 64
2, 30868, Note_on_c, 0, 71, 0
2, 30868, Note_on_c, 0, 79, 0
2, 30870, Note_on_c, 0, 81, 64
2, 30870, Note_on_c, 0, 72, 64
2, 30878, Note_on_c, 0, 72, 0
2, 30878, Note_on_c, 0, 81, 0
2, 30879, Note_on_c, 0, 79, 64
2, 30879, Note_on_c, 0, 76, 64
2, 30888, Note_on_c, 0, 76, 0
2, 30888, Note_on_c, 0, 79, 0
2, 30889, Note_on_c, 0, 83, 64
2, 30889, Note_on_c, 0, 74, 64
2, 30898, Note_on_c, 0, 74, 0
2, 30898, Note_on_c, 0, 83, 0
2, 30900, Note_on_c, 0, 84, 64
2, 30900, Note_on_c, 0, 76, 64
2, 30908, Note_on_c, 0, 84, 0
2, 30909, Note_on_c, 0, 86, 64
2, 30913, Note_on_c, 0, 76, 0
2, 30918, Note_on_c, 0, 86, 0
2, 30919, Note_on_c, 0, 84, 64
2, 30928, Note_on_c, 0, 84, 0
2, 30930, Note_on_c, 0, 83, 64
2, 30930, Note_on_c, 0, 76, 64
2, 30938, Note_on_c, 0, 83, 0
2, 30939, Note_on_c, 0, 84, 64
2, 30943, Note_on_c, 0, 76, 0
2, 30948, Note_on_c, 0, 84, 0
2, 30949, Note_on_c, 0, 83, 64
2, 30958, Note_on_c, 0, 83, 0
2, 30960, Note_on_c, 0, 84, 64
2, 30960, Note_on_c, 0, 76, 64
2, 30968, Note_on_c, 0, 84, 0
2, 30969, Note_on_c, 0, 86, 64
2, 30973, Note_on_c, 0, 76, 0
2, 30978, Note_on_c, 0, 86, 0
2, 30979, Note_on_c, 0, 84, 64
2, 30988, Note_on_c, 0, 84, 0
2, 30990, Note_on_c, 0, 79, 64
2, 30990, Note_on_c, 0, 76, 64
2, 30998, Note_on_c, 0, 79, 0
2, 30999, Note_on_c, 0, 81, 64
2, 31003, Note_on_c, 0, 76, 0
2, 31008, Note_on_c, 0, 81, 0
2, 31009, Note_on_c, 0, 79, 64
2, 31018, Note_on_c, 0, 79, 0
2, 31020, Note_on_c, 0, 78, 64
2, 31020, Note_on_c, 0, 75, 64
2, 31028, Note_on_c, 0, 78, 0
2, 31029, Note_on_c, 0, 79, 64
2, 31033, Note_on_c, 0, 75, 0
2, 31038, Note_on_c, 0, 79, 0
2, 31039, Note_on_c, 0, 78, 64
2, 31048, Note_on_c, 0, 78, 0
2, 31050, Note_on_c, 0, 79, 64
2, 31050, Note_on_c, 0, 76, 64
2, 31058, Note_on_c, 0, 79, 0
2, 31059, Note_on_c, 0, 81, 64
2, 31063, Note_on_c, 0, 76, 0
2, 31068, Note_on_c, 0, 81, 0
2, 31069, Note_on_c, 0, 79, 64
2, 31078, Note_on_c, 0, 79, 0
2, 31080, Note_on_c, 0, 78, 64
2, 31080, Note_on_c, 0, 75, 64
2, 31088, Note_on_c, 0, 78, 0
2, 31089, Note_on_c, 0, 79, 64
2, 31093, Note_on_c, 0, 75, 0
2, 31098, Note_on_c, 0, 79, 0
2, 31099, Note_on_c, 0, 78, 64
2, 31108, Note_on_c, 0, 78, 0
2, 31110, Note_on_c, 0, 79, 64
2, 31110, Note_on_c, 0, 76, 64
2, 31118, Note_on_c, 0, 79, 0
2, 31119, Note_on_c, 0, 81, 64
2, 31123, Note_on_c, 0, 76, 0
2, 31128, Note_on_c, 0, 81, 0
2, 31129, Note_on_c, 0, 79, 64
2, 31138, Note_on_c, 0, 79, 0
2, 31140, Note_on_c, 0, 85, 64
2, 31140, Note_on_c, 0, 76, 64
2, 31140, Note_on_c, 0, 79, 64
2, 31148, Note_on_c, 0, 85, 0
2, 31149, Note_on_c, 0, 86, 64
2, 31153, Note_on_c, 0, 79, 0
2, 31153, Note_on_c, 0, 76, 0
2, 31158, Note_on_c, 0, 86, 0
2, 31159, Note_on_c, 0, 85, 64
2, 31168, Note_on_c, 0, 85, 0
2, 31170, Note_on_c, 0, 86, 64
2, 31170, Note_on_c, 0, 77, 64
2, 31170, Note_on_c, 0, 79, 64
2, 31178, Note_on_c, 0, 86, 0
2, 31179, Note_on_c, 0, 88, 64
2, 31183, Note_on_c, 0, 79, 0
2, 31183, Note_on_c, 0, 77, 0
2, 31188, Note_on_c, 0, 88, 0
2, 31189, Note_on_c, 0, 86, 64
2, 31198, Note_on_c, 0, 86, 0
2, 31200, Note_on_c, 0, 85, 64
2, 31200, Note_on_c, 0, 76, 64
2, 31200, Note_on_c, 0, 79, 64
2, 31208, Note_on_c, 0, 85, 0
2, 31209, Note_on_c, 0, 86, 64
2, 31213, Note_on_c, 0, 79, 0
2, 31213, Note_on_c, 0, 76, 0
2, 31218, Note_on_c, 0, 86, 0
2, 31219, Note_on_c, 0, 85, 64
2, 31228, Note_on_c, 0, 85, 0
2, 31230, Note_on_c, 0, 86, 64
2, 31230, Note_on_c, 0, 77, 64
2, 31230, Note_on_c, 0, 79, 64
2, 31238, Note_on_c, 0, 86, 0
2, 31239, Note_on_c, 0, 88, 64
2, 31243, Note_on_c, 0, 79, 0
2, 31243, Note_on_c, 0, 77, 0
2, 31248, Note_on_c, 0, 88, 0
2, 31249, Note_on_c, 0, 86, 64
2, 31258, Note_on_c, 0, 86, 0
2, 31260, Note_on_c, 0, 85, 64
2, 31260, Note_on_c, 0, 76, 64
2, 31260, Note_on_c, 0, 79, 64
2, 31268, Note_on_c, 0, 85, 0
2, 31269, Note_on_c, 0, 86, 64
2, 31273, Note_on_c, 0, 79, 0
2, 31273, Note_on_c, 0, 76, 0
2, 31278, Note_on_c, 0, 86, 0
2, 31279, Note_on_c, 0, 85, 64
2, 31288, Note_on_c, 0, 85, 0
2, 31290, Note_on_c, 0, 86, 64
2, 31290, Note_on_c, 0, 77, 64
2, 31290, Note_on_c, 0, 79, 64
2, 31298, Note_on_c, 0, 86, 0
2, 31299, Note_on_c, 0, 88, 64
2, 31303, Note_on_c, 0, 79, 0
2, 31303, Note_on_c, 0, 77, 0
2, 31308, Note_on_c, 0, 88, 0
2, 31309, Note_on_c, 0, 86, 64
2, 31318, Note_on_c, 0, 86, 0
2, 31320, Note_on_c, 0, 79, 64
2, 31320, Note_on_c, 0, 71, 64
2, 31320, Note_on_c, 0, 77, 64
2, 31328, Note_on_c, 0, 79, 0
2, 31329, Note_on_c, 0, 81, 64
2, 31333, Note_on_c, 0, 77, 0
2, 31333, Note_on_c, 0, 71, 0
2, 31338, Note_on_c, 0, 81, 0
2, 31339, Note_on_c, 0, 79, 64
2, 31348, Note_on_c, 0, 79, 0
2, 31350, Note_on_c, 0, 81, 64
2, 31350, Note_on_c, 0, 72, 64
2, 31350, Note_on_c, 0, 77, 64
2, 31358, Note_on_c, 0, 81, 0
2, 31359, Note_on_c, 0, 83, 64
2, 31363, Note_on_c, 0, 77, 0
2, 31363, Note_on_c, 0, 72, 0
2, 31368, Note_on_c, 0, 83, 0
2, 31369, Note_on_c, 0, 81, 64
2, 31378, Note_on_c, 0, 81, 0
2, 31380, Note_on_c, 0, 79, 64
2, 31380, Note_on_c, 0, 71, 64
2, 31380, Note_on_c, 0, 77, 64
2, 31388, Note_on_c, 0, 79, 0
2, 31389, Note_on_c, 0, 81, 64
2, 31393, Note_on_c, 0, 77, 0
2, 31393, Note_on_c, 0, 71, 0
2, 31398, Note_on_c, 0, 81, 0
2, 31399, Note_on_c, 0, 79, 64
2, 31408, Note_on_c, 0, 79, 0
2, 31410, Note_on_c, 0, 83, 64
2, 31410, Note_on_c, 0, 74, 64
2, 31410, Note_on_c, 0, 77, 64
2, 31418, Note_on_c, 0, 83, 0
2, 31419, Note_on_c, 0, 84, 64
2, 31423, Note_on_c, 0, 77, 0
2, 31423, Note_on_c, 0, 74, 0
2, 31428, Note_on_c, 0, 84, 0
2, 31429, Note_on_c, 0, 83, 64
2, 31438, Note_on_c, 0, 83, 0
2, 31440, Note_on_c, 0, 84, 64
2, 31440, Note_on_c, 0, 76, 64
2, 31440, Note_on_c, 0, 79, 64
2, 31448, Note_on_c, 0, 84, 0
2, 31449, Note_on_c, 0, 86, 64
2, 31453, Note_on_c, 0, 79, 0
2, 31453, Note_on_c, 0, 76, 0
2, 31458, Note_on_c, 0, 86, 0
2, 31459, Note_on_c, 0, 84, 64
2, 31468, Note_on_c, 0, 84, 0
2, 31470, Note_on_c, 0, 86, 64
2, 31470, Note_on_c, 0, 77, 64
2, 31470, Note_on_c, 0, 79, 64
2, 31478, Note_on_c, 0, 86, 0
2, 31479, Note_on_c, 0, 88, 64
2, 31483, Note_on_c, 0, 79, 0
2, 31483, Note_on_c, 0, 77, 0
2, 31488, Note_on_c, 0, 88, 0
2, 31489, Note_on_c, 0, 86, 64
2, 31498, Note_on_c, 0, 86, 0
2, 31500, Note_on_c, 0, 87, 64
2, 31500, Note_on_c, 0, 78, 64
2, 31500, Note_on_c, 0, 79, 64
2, 31508, Note_on_c, 0, 87, 0
2, 31509, Note_on_c, 0, 88, 64
2, 31513, Note_on_c, 0, 79, 0
2, 31513, Note_on_c, 0, 78, 0
2, 31518, Note_on_c, 0, 88, 0
2, 31519, Note_on_c, 0, 87, 64
2, 31528, Note_on_c, 0, 87, 0
2, 31530, Note_on_c, 0, 88, 64
2, 31530, Note_on_c, 0, 79, 64
2, 31538, Note_on_c, 0, 79, 0
2, 31538, Note_on_c, 0, 88, 0
2, 31539, Note_on_c, 0, 81, 64
2, 31539, Note_on_c, 0, 77, 64
2, 31548, Note_on_c, 0, 77, 0
2, 31548, Note_on_c, 0, 81, 0
2, 31549, Note_on_c, 0, 79, 64
2, 31549, Note_on_c, 0, 76, 64
2, 31558, Note_on_c, 0, 76, 0
2, 31558, Note_on_c, 0, 79, 0
2, 31560, Note_on_c, 0, 78, 64
2, 31560, Note_on_c, 0, 75, 64
2, 31568, Note_on_c, 0, 75, 0
2, 31568, Note_on_c, 0, 78, 0
2, 31569, Note_on_c, 0, 81, 64
2, 31569, Note_on_c, 0, 77, 64
2, 31578, Note_on_c, 0, 77, 0
2, 31578, Note_on_c, 0, 81, 0
2, 31579, Note_on_c, 0, 79, 64
2, 31579, Note_on_c, 0, 76, 64
2, 31588, Note_on_c, 0, 76, 0
2, 31588, Note_on_c, 0, 79, 0
2, 31590, Note_on_c, 0, 78, 64
2, 31590, Note_on_c, 0, 75, 64
2, 31598, Note_on_c, 0, 75, 0
2, 31598, Note_on_c, 0, 78, 0
2, 31599, Note_on_c, 0, 81, 64
2, 31599, Note_on_c, 0, 77, 64
2, 31608, Note_on_c, 0, 77, 0
2, 31608, Note_on_c, 0, 81, 0
2, 31609, Note_on_c, 0, 79, 64
2, 31609, Note_on_c, 0, 76, 64
2, 31618, Note_on_c, 0, 76, 0
2, 31618, Note_on_c, 0, 79, 0
2, 31620, Note_on_c, 0, 78, 64
2, 31620, Note_on_c, 0, 75, 64
2, 31628, Note_on_c, 0, 75, 0
2, 31628, Note_on_c, 0, 78, 0
2, 31629, Note_on_c, 0, 79, 64
2, 31629, Note_on_c, 0, 76, 64
2, 31638, Note_on_c, 0, 76, 0
2, 31638, Note_on_c, 0, 79, 0
2, 31639, Note_on_c, 0, 80, 64
2, 31639, Note_on_c, 0, 77, 64
2, 31648, Note_on_c, 0, 77, 0
2, 31648, Note_on_c, 0, 80, 0
2, 31650, Note_on_c, 0, 81, 64
2, 31650, Note_on_c, 0, 78, 64
2, 31658, Note_on_c, 0, 78, 0
2, 31658, Note_on_c, 0, 81, 0
2, 31659, Note_on_c, 0, 82, 64
2, 31659, Note_on_c, 0, 79, 64
2, 31668, Note_on_c, 0, 79, 0
2, 31668, Note_on_c, 0, 82, 0
2, 31669, Note_on_c, 0, 83, 64
2, 31669, Note_on_c, 0, 80, 64
2, 31678, Note_on_c, 0, 80, 0
2, 31678, Note_on_c, 0, 83, 0
2, 31680, Note_on_c, 0, 84, 64
2, 31680, Note_on_c, 0, 81, 64
2, 31688, Note_on_c, 0, 81, 0
2, 31688, Note_on_c, 0, 84, 0
2, 31689, Note_on_c, 0, 85, 64
2, 31689, Note_on_c, 0, 82, 64
2, 31698, Note_on_c, 0, 82, 0
2, 31698, Note_on_c, 0, 85, 0
2, 31699, Note_on_c, 0, 86, 64
2, 31699, Note_on_c, 0, 83, 64
2, 31708, Note_on_c, 0, 83, 0
2, 31708, Note_on_c, 0, 86, 0
2, 31710, Note_on_c, 0, 88, 64
2, 31710, Note_on_c, 0, 84, 64
2, 31718, Note_on_c, 0, 88, 0
2, 31719, Note_on_c, 0, 89, 64
2, 31723, Note_on_c, 0, 84, 0
2, 31728, Note_on_c, 0, 89, 0
2, 31729, Note_on_c, 0, 88, 64
2, 31738, Note_on_c, 0, 88, 0
2, 31740, Note_on_c, 0, 86, 64
2, 31740, Note_on_c, 0, 77, 64
2, 31740, Note_on_c, 0, 79, 64
2, 31748, Note_on_c, 0, 86, 0
2, 31749, Note_on_c, 0, 88, 64
2, 31753, Note_on_c, 0, 79, 0
2, 31753, Note_on_c, 0, 77, 0
2, 31758, Note_on_c, 0, 88, 0
2, 31759, Note_on_c, 0, 86, 64
2, 31768, Note_on_c, 0, 86, 0
2, 31770, Note_on_c, 0, 84, 64
2, 31770, Note_on_c, 0, 76, 64
2, 31770, Note_on_c, 0, 79, 64
2, 31778, Note_on_c, 0, 84, 0
2, 31779, Note_on_c, 0, 86, 64
2, 31783, Note_on_c, 0, 79, 0
2, 31783, Note_on_c, 0, 76, 0
2, 31788, Note_on_c, 0, 86, 0
2, 31789, Note_on_c, 0, 84, 64
2, 31798, Note_on_c, 0, 84, 0
2, 31800, Note_on_c, 0, 83, 64
2, 31800, Note_on_c, 0, 76, 64
2, 31800, Note_on_c, 0, 79, 64
2, 31808, Note_on_c, 0, 83, 0
2, 31809, Note_on_c, 0, 86, 64
2, 31813, Note_on_c, 0, 79, 0
2, 31813, Note_on_c, 0, 76, 0
2, 31818, Note_on_c, 0, 86, 0
2, 31819, Note_on_c, 0, 84, 64
2, 31828, Note_on_c, 0, 84, 0
2, 31830, Note_on_c, 0, 82, 64
2, 31830, Note_on_c, 0, 74, 64
2, 31830, Note_on_c, 0, 79, 64
2, 31838, Note_on_c, 0, 82, 0
2, 31839, Note_on_c, 0, 84, 64
2, 31843, Note_on_c, 0, 79, 0
2, 31843, Note_on_c, 0, 74, 0
2, 31848, Note_on_c, 0, 84, 0
2, 31849, Note_on_c, 0, 83, 64
2, 31858, Note_on_c, 0, 83, 0
2, 31860, Note_on_c, 0, 84, 64
2, 31860, Note_on_c, 0, 76, 64
2, 31860, Note_on_c, 0, 79, 64
2, 31868, Note_on_c, 0, 84, 0
2, 31869, Note_on_c, 0, 86, 64
2, 31873, Note_on_c, 0, 79, 0
2, 31873, Note_on_c, 0, 76, 0
2, 31878, Note_on_c, 0, 86, 0
2, 31879, Note_on_c, 0, 84, 64
2, 31888, Note_on_c, 0, 84, 0
2, 31890, Note_on_c, 0, 83, 64
2, 31890, Note_on_c, 0, 74, 64
2, 31890, Note_on_c, 0, 79, 64
2, 31898, Note_on_c, 0, 83, 0
2, 31899, Note_on_c, 0, 84, 64
2, 31903, Note_on_c, 0, 79, 0
2, 31903, Note_on_c, 0, 74, 0
2, 31908, Note_on_c, 0, 84, 0
2, 31909, Note_on_c, 0, 83, 64
2, 31918, Note_on_c, 0, 83, 0
2, 31920, Note_on_c, 0, 82, 64
2, 31920, Note_on_c, 0, 73, 64
2, 31920, Note_on_c, 0, 79, 64
2, 31928, Note_on_c, 0, 82, 0
2, 31929, Note_on_c, 0, 83, 64
2, 31933, Note_on_c, 0, 79, 0
2, 31933, Note_on_c, 0, 73, 0
2, 31938, Note_on_c, 0, 83, 0
2, 31939, Note_on_c, 0, 82, 64
2, 31948, Note_on_c, 0, 82, 0
2, 31950, Note_on_c, 0, 83, 64
2, 31950, Note_on_c, 0, 74, 64
2, 31950, Note_on_c, 0, 79, 64
2, 31958, Note_on_c, 0, 83, 0
2, 31959, Note_on_c, 0, 84, 64
2, 31963, Note_on_c, 0, 79, 0
2, 31963, Note_on_c, 0, 74, 0
2, 31968, Note_on_c, 0, 84, 0
2, 31969, Note_on_c, 0, 83, 64
2, 31978, Note_on_c, 0, 83, 0
2, 31980, Note_on_c, 0, 84, 64
2, 31980, Note_on_c, 0, 77, 64
2, 31980, Note_on_c, 0, 79, 64
2, 31988, Note_on_c, 0, 84, 0
2, 31989, Note_on_c, 0, 89, 64
2, 31993, Note_on_c, 0, 79, 0
2, 31993, Note_on_c, 0, 77, 0
2, 31998, Note_on_c, 0, 89, 0
2, 31999, Note_on_c, 0, 86, 64
2, 32008, Note_on_c, 0, 86, 0
2, 32010, Note_on_c, 0, 89, 64
2, 32010, Note_on_c, 0, 73, 64
2, 32010, Note_on_c, 0, 79, 64
2, 32018, Note_on_c, 0, 89, 0
2, 32019, Note_on_c, 0, 89, 64
2, 32023, Note_on_c, 0, 79, 0
2, 32023, Note_on_c, 0, 73, 0
2, 32028, Note_on_c, 0, 89, 0
2, 32029, Note_on_c, 0, 89, 64
2, 32038, Note_on_c, 0, 89, 0
2, 32040, Note_on_c, 0, 89, 64
2, 32040, Note_on_c, 0, 74, 64
2, 32040, Note_on_c, 0, 79, 64
2, 32048, Note_on_c, 0, 89, 0
2, 32049, Note_on_c, 0, 91, 64
2, 32053, Note_on_c, 0, 79, 0
2, 32053, Note_on_c, 0, 74, 0
2, 32058, Note_on_c, 0, 91, 0
2, 32059, Note_on_c, 0, 89, 64
2, 32068, Note_on_c, 0, 89, 0
2, 32070, Note_on_c, 0, 79, 64
2, 32070, Note_on_c, 0, 76, 64
2, 32078, Note_on_c, 0, 79, 0
2, 32079, Note_on_c, 0, 91, 64
2, 32083, Note_on_c, 0, 76, 0
2, 32088, Note_on_c, 0, 91, 0
2, 32089, Note_on_c, 0, 79, 64
2, 32098, Note_on_c, 0, 79, 0
2, 32100, Note_on_c, 0, 84, 64
2, 32100, Note_on_c, 0, 76, 64
2, 32108, Note_on_c, 0, 84, 0
2, 32109, Note_on_c, 0, 91, 64
2, 32113, Note_on_c, 0, 76, 0
2, 32118, Note_on_c, 0, 91, 0
2, 32119, Note_on_c, 0, 84, 64
2, 32128, Note_on_c, 0, 84, 0
2, 32130, Note_on_c, 0, 83, 64
2, 32130, Note_on_c, 0, 76, 64
2, 32138, Note_on_c, 0, 83, 0
2, 32139, Note_on_c, 0, 91, 64
2, 32143, Note_on_c, 0, 76, 0
2, 32148, Note_on_c, 0, 91, 0
2, 32149, Note_on_c, 0, 83, 64
2, 32158, Note_on_c, 0, 83, 0
2, 32160, Note_on_c, 0, 84, 64
2, 32160, Note_on_c, 0, 76, 64
2, 32168, Note_on_c, 0, 84, 0
2, 32169, Note_on_c, 0, 91, 64
2, 32173, Note_on_c, 0, 76, 0
2, 32178, Note_on_c, 0, 91, 0
2, 32179, Note_on_c, 0, 86, 64
2, 32188, Note_on_c, 0, 86, 0
2, 32190, Note_on_c, 0, 87, 64
2, 32190, Note_on_c, 0, 84, 64
2, 32198, Note_on_c, 0, 87, 0
2, 32199, Note_on_c, 0, 91, 64
2, 32203, Note_on_c, 0, 84, 0
2, 32208, Note_on_c, 0, 91, 0
2, 32209, Note_on_c, 0, 88, 64
2, 32218, Note_on_c, 0, 88, 0
2, 32220, Note_on_c, 0, 89, 64
2, 32220, Note_on_c, 0, 86, 64
2, 32228, Note_on_c, 0, 89, 0
2, 32229, Note_on_c, 0, 91, 64
2, 32233, Note_on_c, 0, 86, 0
2, 32238, Note_on_c, 0, 91, 0
2, 32239, Note_on_c, 0, 90, 64
2, 32248, Note_on_c, 0, 90, 0
2, 32250, Note_on_c, 0, 91, 64
2, 32250, Note_on_c, 0, 88, 64
2, 32258, Note_on_c, 0, 91, 0
2, 32259, Note_on_c, 0, 93, 64
2, 32263, Note_on_c, 0, 88, 0
2, 32268, Note_on_c, 0, 93, 0
2, 32269, Note_on_c, 0, 90, 64
2, 32278, Note_on_c, 0, 90, 0
2, 32280, Note_on_c, 0, 91, 64
2, 32280, Note_on_c, 0, 88, 64
2, 32288, Note_on_c, 0, 91, 0
2, 32289, Note_on_c, 0, 90, 64
2, 32293, Note_on_c, 0, 88, 0
2, 32298, Note_on_c, 0, 90, 0
2, 32299, Note_on_c, 0, 91, 64
2, 32308, Note_on_c, 0, 91, 0
2, 32310, Note_on_c, 0, 85, 64
2, 32310, Note_on_c, 0, 76, 64
2, 32310, Note_on_c, 0, 82, 64
2, 32318, Note_on_c, 0, 85, 0
2, 32319, Note_on_c, 0, 93, 64
2, 32323, Note_on_c, 0, 82, 0
2, 32323, Note_on_c, 0, 76, 0
2, 32328, Note_on_c, 0, 93, 0
2, 32329, Note_on_c, 0, 91, 64
2, 32338, Note_on_c, 0, 91, 0
2, 32340, Note_on_c, 0, 85, 64
2, 32340, Note_on_c, 0, 76, 64
2, 32340, Note_on_c, 0, 82, 64
2, 32348, Note_on_c, 0, 85, 0
2, 32349, Note_on_c, 0, 93, 64
2, 32353, Note_on_c, 0, 82, 0
2, 32353, Note_on_c, 0, 76, 0
2, 32358, Note_on_c, 0, 93, 0
2, 32359, Note_on_c, 0, 91, 64
2, 32368, Note_on_c, 0, 91, 0
2, 32370, Note_on_c, 0, 85, 64
2, 32370, Note_on_c, 0, 76, 64
2, 32370, Note_on_c, 0, 79, 64
2, 32378, Note_on_c, 0, 85, 0
2, 32379, Note_on_c, 0, 89, 64
2, 32383, Note_on_c, 0, 79, 0
2, 32383, Note_on_c, 0, 76, 0
2, 32388, Note_on_c, 0, 89, 0
2, 32389, Note_on_c, 0, 88, 64
2, 32398, Note_on_c, 0, 88, 0
2, 32400, Note_on_c, 0, 85, 64
2, 32400, Note_on_c, 0, 76, 64
2, 32400, Note_on_c, 0, 82, 64
2, 32408, Note_on_c, 0, 85, 0
2, 32409, Note_on_c, 0, 93, 64
2, 32413, Note_on_c, 0, 82, 0
2, 32413, Note_on_c, 0, 76, 0
2, 32418, Note_on_c, 0, 93, 0
2, 32419, Note_on_c, 0, 91, 64
2, 32428, Note_on_c, 0, 91, 0
2, 32430, Note_on_c, 0, 85, 64
2, 32430, Note_on_c, 0, 76, 64
2, 32430, Note_on_c, 0, 82, 64
2, 32438, Note_on_c, 0, 85, 0
2, 32439, Note_on_c, 0, 93, 64
2, 32443, Note_on_c, 0, 82, 0
2, 32443, Note_on_c, 0, 76, 0
2, 32448, Note_on_c, 0, 93, 0
2, 32449, Note_on_c, 0, 91, 64
2, 32458, Note_on_c, 0, 91, 0
2, 32460, Note_on_c, 0, 85, 64
2, 32460, Note_on_c, 0, 77, 64
2, 32460, Note_on_c, 0, 81, 64
2, 32468, Note_on_c, 0, 85, 0
2, 32469, Note_on_c, 0, 91, 64
2, 32473, Note_on_c, 0, 81, 0
2, 32473, Note_on_c, 0, 77, 0
2, 32478, Note_on_c, 0, 91, 0
2, 32479, Note_on_c, 0, 89, 64
2, 32488, Note_on_c, 0, 89, 0
2, 32490, Note_on_c, 0, 81, 64
2, 32490, Note_on_c, 0, 77, 64
2, 32498, Note_on_c, 0, 81, 0
2, 32499, Note_on_c, 0, 88, 64
2, 32503, Note_on_c, 0, 77, 0
2, 32508, Note_on_c, 0, 88, 0
2, 32509, Note_on_c, 0, 86, 64
2, 32518, Note_on_c, 0, 86, 0
2, 32520, Note_on_c, 0, 80, 64
2, 32520, Note_on_c, 0, 77, 64
2, 32528, Note_on_c, 0, 80, 0
2, 32529, Note_on_c, 0, 88, 64
2, 32533, Note_on_c, 0, 77, 0
2, 32538, Note_on_c, 0, 88, 0
2, 32539, Note_on_c, 0, 86, 64
2, 32548, Note_on_c, 0, 86, 0
2, 32550, Note_on_c, 0, 79, 64
2, 32550, Note_on_c, 0, 77, 64
2, 32558, Note_on_c, 0, 79, 0
2, 32559, Note_on_c, 0, 88, 64
2, 32563, Note_on_c, 0, 77, 0
2, 32568, Note_on_c, 0, 88, 0
2, 32569, Note_on_c, 0, 86, 64
2, 32578, Note_on_c, 0, 86, 0
2, 32580, Note_on_c, 0, 79, 64
2, 32580, Note_on_c, 0, 76, 64
2, 32588, Note_on_c, 0, 79, 0
2, 32589, Note_on_c, 0, 86, 64
2, 32593, Note_on_c, 0, 76, 0
2, 32598, Note_on_c, 0, 86, 0
2, 32599, Note_on_c, 0, 84, 64
2, 32608, Note_on_c, 0, 84, 0
2, 32610, Note_on_c, 0, 79, 64
2, 32610, Note_on_c, 0, 76, 64
2, 32618, Note_on_c, 0, 79, 0
2, 32619, Note_on_c, 0, 86, 64
2, 32623, Note_on_c, 0, 76, 0
2, 32628, Note_on_c, 0, 86, 0
2, 32629, Note_on_c, 0, 84, 64
2, 32638, Note_on_c, 0, 84, 0
2, 32640, Note_on_c, 0, 77, 64
2, 32640, Note_on_c, 0, 74, 64
2, 32648, Note_on_c, 0, 77, 0
2, 32649, Note_on_c, 0, 84, 64
2, 32653, Note_on_c, 0, 74, 0
2, 32658, Note_on_c, 0, 84, 0
2, 32659, Note_on_c, 0, 83, 64
2, 32668, Note_on_c, 0, 83, 0
2, 32670, Note_on_c, 0, 79, 64
2, 32670, Note_on_c, 0, 76, 64
2, 32678, Note_on_c, 0, 79, 0
2, 32679, Note_on_c, 0, 86, 64
2, 32683, Note_on_c, 0, 76, 0
2, 32688, Note_on_c, 0, 86, 0
2, 32689, Note_on_c, 0, 84, 64
2, 32698, Note_on_c, 0, 84, 0
2, 32700, Note_on_c, 0, 79, 64
2, 32700, Note_on_c, 0, 76, 64
2, 32708, Note_on_c, 0, 79, 0
2, 32709, Note_on_c, 0, 86, 64
2, 32713, Note_on_c, 0, 76, 0
2, 32718, Note_on_c, 0, 86, 0
2, 32719, Note_on_c, 0, 84, 64
2, 32728, Note_on_c, 0, 84, 0
2, 32730, Note_on_c, 0, 79, 64
2, 32730, Note_on_c, 0, 76, 64
2, 32738, Note_on_c, 0, 79, 0
2, 32739, Note_on_c, 0, 86, 64
2, 32743, Note_on_c, 0, 76, 0
2, 32748, Note_on_c, 0, 86, 0
2, 32749, Note_on_c, 0, 85, 64
2, 32758, Note_on_c, 0, 85, 0
2, 32760, Note_on_c, 0, 81, 64
2, 32760, Note_on_c, 0, 77, 64
2, 32768, Note_on_c, 0, 81, 0
2, 32769, Note_on_c, 0, 88, 64
2, 32773, Note_on_c, 0, 77, 0
2, 32778, Note_on_c, 0, 88, 0
2, 32779, Note_on_c, 0, 86, 64
2, 32788, Note_on_c, 0, 86, 0
2, 32790, Note_on_c, 0, 81, 64
2, 32790, Note_on_c, 0, 78, 64
2, 32798, Note_on_c, 0, 81, 0
2, 32799, Note_on_c, 0, 88, 64
2, 32803, Note_on_c, 0, 78, 0
2, 32808, Note_on_c, 0, 88, 0
2, 32809, Note_on_c, 0, 86, 64
2, 32818, Note_on_c, 0, 86, 0
2, 32820, Note_on_c, 0, 83, 64
2, 32820, Note_on_c, 0, 79, 64
2, 32828, Note_on_c, 0, 83, 0
2, 32829, Note_on_c, 0, 88, 64
2, 32833, Note_on_c, 0, 79, 0
2, 32838, Note_on_c, 0, 88, 0
2, 32839, Note_on_c, 0, 86, 64
2, 32848, Note_on_c, 0, 86, 0
2, 32850, Note_on_c, 0, 85, 64
2, 32850, Note_on_c, 0, 71, 64
2, 32850, Note_on_c, 0, 77, 64
2, 32858, Note_on_c, 0, 85, 0
2, 32859, Note_on_c, 0, 86, 64
2, 32863, Note_on_c, 0, 77, 0
2, 32863, Note_on_c, 0, 71, 0
2, 32868, Note_on_c, 0, 86, 0
2, 32869, Note_on_c, 0, 79, 64
2, 32878, Note_on_c, 0, 79, 0
2, 32880, Note_on_c, 0, 81, 64
2, 32880, Note_on_c, 0, 71, 64
2, 32880, Note_on_c, 0, 77, 64
2, 32888, Note_on_c, 0, 81, 0
2, 32889, Note_on_c, 0, 78, 64
2, 32893, Note_on_c, 0, 77, 0
2, 32893, Note_on_c, 0, 71, 0
2, 32898, Note_on_c, 0, 78, 0
2, 32899, Note_on_c, 0, 79, 64
2, 32908, Note_on_c, 0, 79, 0
2, 32910, Note_on_c, 0, 81, 64
2, 32910, Note_on_c, 0, 72, 64
2, 32910, Note_on_c, 0, 76, 64
2, 32918, Note_on_c, 0, 81, 0
2, 32919, Note_on_c, 0, 78, 64
2, 32923, Note_on_c, 0, 76, 0
2, 32923, Note_on_c, 0, 72, 0
2, 32928, Note_on_c, 0, 78, 0
2, 32929, Note_on_c, 0, 79, 64
2, 32938, Note_on_c, 0, 79, 0
2, 32940, Note_on_c, 0, 81, 64
2, 32940, Note_on_c, 0, 74, 64
2, 32940, Note_on_c, 0, 77, 64
2, 32948, Note_on_c, 0, 81, 0
2, 32949, Note_on_c, 0, 78, 64
2, 32953, Note_on_c, 0, 77, 0
2, 32953, Note_on_c, 0, 74, 0
2, 32958, Note_on_c, 0, 78, 0
2, 32959, Note_on_c, 0, 79, 64
2, 32968, Note_on_c, 0, 79, 0
2, 32970, Note_on_c, 0, 81, 64
2, 32970, Note_on_c, 0, 74, 64
2, 32970, Note_on_c, 0, 77, 64
2, 32978, Note_on_c, 0, 81, 0
2, 32979, Note_on_c, 0, 78, 64
2, 32983, Note_on_c, 0, 77, 0
2, 32983, Note_on_c, 0, 74, 0
2, 32988, Note_on_c, 0, 78, 0
2, 32989, Note_on_c, 0, 79, 64
2, 32998, Note_on_c, 0, 79, 0
2, 33000, Note_on_c, 0, 81, 64
2, 33000, Note_on_c, 0, 72, 64
2, 33000, Note_on_c, 0, 76, 64
2, 33008, Note_on_c, 0, 81, 0
2, 33009, Note_on_c, 0, 78, 64
2, 33013, Note_on_c, 0, 76, 0
2, 33013, Note_on_c, 0, 72, 0
2, 33018, Note_on_c, 0, 78, 0
2, 33019, Note_on_c, 0, 79, 64
2, 33028, Note_on_c, 0, 79, 0
2, 33030, Note_on_c, 0, 81, 64
2, 33030, Note_on_c, 0, 71, 64
2, 33030, Note_on_c, 0, 74, 64
2, 33038, Note_on_c, 0, 81, 0
2, 33039, Note_on_c, 0, 80, 64
2, 33043, Note_on_c, 0, 74, 0
2, 33043, Note_on_c, 0, 71, 0
2, 33048, Note_on_c, 0, 80, 0
2, 33049, Note_on_c, 0, 88, 64
2, 33058, Note_on_c, 0, 88, 0
2, 33060, Note_on_c, 0, 83, 64
2, 33060, Note_on_c, 0, 69, 64
2, 33060, Note_on_c, 0, 72, 64
2, 33068, Note_on_c, 0, 83, 0
2, 33069, Note_on_c, 0, 81, 64
2, 33073, Note_on_c, 0, 72, 0
2, 33073, Note_on_c, 0, 69, 0
2, 33078, Note_on_c, 0, 81, 0
2, 33079, Note_on_c, 0, 88, 64
2, 33088, Note_on_c, 0, 88, 0
2, 33090, Note_on_c, 0, 84, 64
2, 33090, Note_on_c, 0, 68, 64
2, 33090, Note_on_c, 0, 71, 64
2, 33098, Note_on_c, 0, 84, 0
2, 33099, Note_on_c, 0, 83, 64
2, 33103, Note_on_c, 0, 71, 0
2, 33103, Note_on_c, 0, 68, 0
2, 33108, Note_on_c, 0, 83, 0
2, 33109, Note_on_c, 0, 88, 64
2, 33118, Note_on_c, 0, 88, 0
2, 33120, Note_on_c, 0, 52, 64
2, 33128, Note_on_c, 0, 52, 0
2, 33129, Note_on_c, 0, 40, 64
2, 33138, Note_on_c, 0, 40, 0
2, 33139, Note_on_c, 0, 52, 64
2, 33148, Note_on_c, 0, 52, 0
2, 33150, Note_on_c, 0, 40, 64
2, 33158, Note_on_c, 0, 40, 0
2, 33159, Note_on_c, 0, 52, 64
2, 33168, Note_on_c, 0, 52, 0
2, 33169, Note_on_c, 0, 40, 64
2, 33178, Note_on_c, 0, 40, 0
2, 33180, Note_on_c, 0, 59, 64
2, 33180, Note_on_c, 0, 60, 64
2, 33180, Note_on_c, 0, 52, 64
2, 33188, Note_on_c, 0, 52, 0
2, 33189, Note_on_c, 0, 40, 64
2, 33198, Note_on_c, 0, 40, 0
2, 33199, Note_on_c, 0, 52, 64
2, 33208, Note_on_c, 0, 52, 0
2, 33210, Note_on_c, 0, 59, 0
2, 33210, Note_on_c, 0, 57, 64
2, 33210, Note_on_c, 0, 40, 64
2, 33218, Note_on_c, 0, 40, 0
2, 33219, Note_on_c, 0, 52, 64
2, 33228, Note_on_c, 0, 52, 0
2, 33229, Note_on_c, 0, 40, 64
2, 33236, Note_on_c, 0, 57, 0
2, 33236, Note_on_c, 0, 60, 0
2, 33238, Note_on_c, 0, 40, 0
2, 33240, Note_on_c, 0, 52, 64
2, 33248, Note_on_c, 0, 52, 0
2, 33249, Note_on_c, 0, 40, 64
2, 33258, Note_on_c, 0, 40, 0
2, 33259, Note_on_c, 0, 52, 64
2, 33268, Note_on_c, 0, 52, 0
2, 33270, Note_on_c, 0, 59, 64
2, 33270, Note_on_c, 0, 60, 64
2, 33270, Note_on_c, 0, 40, 64
2, 33278, Note_on_c, 0, 40, 0
2, 33279, Note_on_c, 0, 52, 64
2, 33288, Note_on_c, 0, 52, 0
2, 33289, Note_on_c, 0, 40, 64
2, 33298, Note_on_c, 0, 40, 0
2, 33300, Note_on_c, 0, 59, 0
2, 33300, Note_on_c, 0, 57, 64
2, 33300, Note_on_c, 0, 52, 64
2, 33308, Note_on_c, 0, 52, 0
2, 33309, Note_on_c, 0, 40, 64
2, 33318, Note_on_c, 0, 40, 0
2, 33319, Note_on_c, 0, 52, 64
2, 33326, Note_on_c, 0, 57, 0
2, 33326, Note_on_c, 0, 60, 0
2, 33328, Note_on_c, 0, 52, 0
2, 33330, Note_on_c, 0, 40, 64
2, 33338, Note_on_c, 0, 40, 0
2, 33339, Note_on_c, 0, 52, 64
2, 33348, Note_on_c, 0, 52, 0
2, 33349, Note_on_c, 0, 40, 64
2, 33358, Note_on_c, 0, 40, 0
2, 33360, Note_on_c, 0, 59, 64
2, 33360, Note_on_c, 0, 60, 64
2, 33360, Note_on_c, 0, 52, 64
2, 33368, Note_on_c, 0, 52, 0
2, 33369, Note_on_c, 0, 40, 64
2, 33378, Note_on_c, 0, 40, 0
2, 33379, Note_on_c, 0, 52, 64
2, 33388, Note_on_c, 0, 52, 0
2, 33390, Note_on_c, 0, 59, 0
2, 33390, Note_on_c, 0, 57, 64
2, 33390, Note_on_c, 0, 40, 64
2, 33398, Note_on_c, 0, 40, 0
2, 33399, Note_on_c, 0, 52, 64
2, 33408, Note_on_c, 0, 52, 0
2, 33409, Note_on_c, 0, 40, 64
2, 33416, Note_on_c, 0, 57, 0
2, 33416, Note_on_c, 0, 60, 0
2, 33418, Note_on_c, 0, 40, 0
2, 33420, Note_on_c, 0, 52, 64
2, 33428, Note_on_c, 0, 52, 0
2, 33429, Note_on_c, 0, 40, 64
2, 33438, Note_on_c, 0, 40, 0
2, 33439, Note_on_c, 0, 52, 64
2, 33448, Note_on_c, 0, 52, 0
2, 33450, Note_on_c, 0, 57, 64
2, 33450, Note_on_c, 0, 59, 64
2, 33450, Note_on_c, 0, 40, 64
2, 33458, Note_on_c, 0, 40, 0
2, 33459, Note_on_c, 0, 52, 64
2, 33468, Note_on_c, 0, 52, 0
2, 33469, Note_on_c, 0, 40, 64
2, 33478, Note_on_c, 0, 40, 0
2, 33480, Note_on_c, 0, 57, 0
2, 33480, Note_on_c, 0, 56, 64
2, 33480, Note_on_c, 0, 52, 64
2, 33488, Note_on_c, 0, 52, 0
2, 33489, Note_on_c, 0, 40, 64
2, 33498, Note_on_c, 0, 40, 0
2, 33499, Note_on_c, 0, 52, 64
2, 33506, Note_on_c, 0, 56, 0
2, 33506, Note_on_c, 0, 59, 0
2, 33508, Note_on_c, 0, 52, 0
2, 33510, Note_on_c, 0, 40, 64
2, 33518, Note_on_c, 0, 40, 0
2, 33519, Note_on_c, 0, 52, 64
2, 33528, Note_on_c, 0, 52, 0
2, 33529, Note_on_c, 0, 40, 64
2, 33538, Note_on_c, 0, 40, 0
2, 33540, Note_on_c, 0, 57, 64
2, 33540, Note_on_c, 0, 59, 64
2, 33540, Note_on_c, 0, 52, 64
2, 33548, Note_on_c, 0, 52, 0
2, 33549, Note_on_c, 0, 40, 64
2, 33558, Note_on_c, 0, 40, 0
2, 33559, Note_on_c, 0, 52, 64
2, 33568, Note_on_c, 0, 52, 0
2, 33570, Note_on_c, 0, 57, 0
2, 33570, Note_on_c, 0, 56, 64
2, 33570, Note_on_c, 0, 40, 64
2, 33578, Note_on_c, 0, 40, 0
2, 33579, Note_on_c, 0, 52, 64
2, 33588, Note_on_c, 0, 52, 0
2, 33589, Note_on_c, 0, 40, 64
2, 33596, Note_on_c, 0, 56, 0
2, 33596, Note_on_c, 0, 59, 0
2, 33598, Note_on_c, 0, 40, 0
2, 33600, Note_on_c, 0, 52, 64
2, 33608, Note_on_c, 0, 52, 0
2, 33609, Note_on_c, 0, 40, 64
2, 33618, Note_on_c, 0, 40, 0
2, 33619, Note_on_c, 0, 52, 64
2, 33628, Note_on_c, 0, 52, 0
2, 33630, Note_on_c, 0, 57, 64
2, 33630, Note_on_c, 0, 59, 64
2, 33630, Note_on_c, 0, 64, 64
2, 33630, Note_on_c, 0, 40, 64
2, 33638, Note_on_c, 0, 40, 0
2, 33639, Note_on_c, 0, 52, 64
2, 33648, Note_on_c, 0, 52, 0
2, 33649, Note_on_c, 0, 40, 64
2, 33658, Note_on_c, 0, 40, 0
2, 33660, Note_on_c, 0, 57, 0
2, 33660, Note_on_c, 0, 56, 64
2, 33660, Note_on_c, 0, 52, 64
2, 33668, Note_on_c, 0, 52, 0
2, 33669, Note_on_c, 0, 40, 64
2, 33678, Note_on_c, 0, 40, 0
2, 33679, Note_on_c, 0, 52, 64
2, 33686, Note_on_c, 0, 56, 0
2, 33686, Note_on_c, 0, 59, 0
2, 33686, Note_on_c, 0, 64, 0
2, 33688, Note_on_c, 0, 52, 0
2, 33690, Note_on_c, 0, 40, 64
2, 33698, Note_on_c, 0, 40, 0
2, 33699, Note_on_c, 0, 52, 64
2, 33708, Note_on_c, 0, 52, 0
2, 33709, Note_on_c, 0, 40, 64
2, 33718, Note_on_c, 0, 40, 0
2, 33720, Note_on_c, 0, 56, 64
2, 33720, Note_on_c, 0, 60, 64
2, 33720, Note_on_c, 0, 64, 64
2, 33720, Note_on_c, 0, 52, 64
2, 33728, Note_on_c, 0, 52, 0
2, 33729, Note_on_c, 0, 40, 64
2, 33738, Note_on_c, 0, 40, 0
2, 33739, Note_on_c, 0, 52, 64
2, 33748, Note_on_c, 0, 52, 0
2, 33750, Note_on_c, 0, 56, 0
2, 33750, Note_on_c, 0, 57, 64
2, 33750, Note_on_c, 0, 40, 64
2, 33758, Note_on_c, 0, 40, 0
2, 33759, Note_on_c, 0, 52, 64
2, 33768, Note_on_c, 0, 52, 0
2, 33769, Note_on_c, 0, 40, 64
2, 33776, Note_on_c, 0, 57, 0
2, 33776, Note_on_c, 0, 60, 0
2, 33776, Note_on_c, 0, 64, 0
2, 33778, Note_on_c, 0, 40, 0
2, 33780, Note_on_c, 0, 52, 64
2, 33788, Note_on_c, 0, 52, 0
2, 33789, Note_on_c, 0, 40, 64
2, 33798, Note_on_c, 0, 40, 0
2, 33799, Note_on_c, 0, 52, 64
2, 33808, Note_on_c, 0, 52, 0
2, 33810, Note_on_c, 0, 56, 64
2, 33810, Note_on_c, 0, 60, 64
2, 33810, Note_on_c, 0, 64, 64
2, 33810, Note_on_c, 0, 40, 64
2, 33818, Note_on_c, 0, 40, 0
2, 33819, Note_on_c, 0, 52, 64
2, 33828, Note_on_c, 0, 52, 0
2, 33829, Note_on_c, 0, 40, 64
2, 33838, Note_on_c, 0, 40, 0
2, 33840, Note_on_c, 0, 56, 0
2, 33840, Note_on_c, 0, 57, 64
2, 33840, Note_on_c, 0, 52, 64
2, 33848, Note_on_c, 0, 52, 0
2, 33849, Note_on_c, 0, 40, 64
2, 33858, Note_on_c, 0, 40, 0
2, 33859, Note_on_c, 0, 52, 64
2, 33866, Note_on_c, 0, 57, 0
2, 33866, Note_on_c, 0, 60, 0
2, 33866, Note_on_c, 0, 64, 0
2, 33868, Note_on_c, 0, 52, 0
2, 33870, Note_on_c, 0, 40, 64
2, 33878, Note_on_c, 0, 40, 0
2, 33879, Note_on_c, 0, 52, 64
2, 33888, Note_on_c, 0, 52, 0
2, 33889, Note_on_c, 0, 40, 64
2, 33898, Note_on_c, 0, 40, 0
2, 33900, Note_on_c, 0, 59, 64
2, 33900, Note_on_c, 0, 62, 64
2, 33900, Note_on_c, 0, 52, 64
2, 33908, Note_on_c, 0, 52, 0
2, 33909, Note_on_c, 0, 40, 64
2, 33918, Note_on_c, 0, 40, 0
2, 33919, Note_on_c, 0, 52, 64
2, 33928, Note_on_c, 0, 52, 0
2, 33930, Note_on_c, 0, 62, 0
2, 33930, Note_on_c, 0, 59, 0
2, 33930, Note_on_c, 0, 57, 64
2, 33930, Note_on_c, 0, 60, 64
2, 33930, Note_on_c, 0, 40, 64
2, 33938, Note_on_c, 0, 40, 0
2, 33939, Note_on_c, 0, 52, 64
2, 33948, Note_on_c, 0, 52, 0
2, 33949, Note_on_c, 0, 40, 64
2, 33956, Note_on_c, 0, 60, 0
2, 33956, Note_on_c, 0, 57, 0
2, 33958, Note_on_c, 0, 40, 0
2, 33960, Note_on_c, 0, 52, 64
2, 33968, Note_on_c, 0, 52, 0
2, 33969, Note_on_c, 0, 40, 64
2, 33978, Note_on_c, 0, 40, 0
2, 33979, Note_on_c, 0, 52, 64
2, 33988, Note_on_c, 0, 52, 0
2, 33990, Note_on_c, 0, 51, 64
2, 33990, Note_on_c, 0, 54, 64
2, 33990, Note_on_c, 0, 57, 64
2, 33990, Note_on_c, 0, 60, 64
2, 33990, Note_on_c, 0, 40, 64
2, 33998, Note_on_c, 0, 40, 0
2, 33999, Note_on_c, 0, 52, 64
2, 34008, Note_on_c, 0, 52, 0
2, 34009, Note_on_c, 0, 40, 64
2, 34018, Note_on_c, 0, 40, 0
2, 34020, Note_on_c, 0, 52, 64
2, 34028, Note_on_c, 0, 52, 0
2, 34029, Note_on_c, 0, 40, 64
2, 34038, Note_on_c, 0, 40, 0
2, 34039, Note_on_c, 0, 52, 64
2, 34046, Note_on_c, 0, 57, 0
2, 34046, Note_on_c, 0, 60, 0
2, 34046, Note_on_c, 0, 51, 0
2, 34046, Note_on_c, 0, 54, 0
2, 34048, Note_on_c, 0, 52, 0
2, 34050, Note_on_c, 0, 40, 64
2, 34058, Note_on_c, 0, 40, 0
2, 34059, Note_on_c, 0, 52, 64
2, 34068, Note_on_c, 0, 52, 0
2, 34069, Note_on_c, 0, 40, 64
2, 34078, Note_on_c, 0, 40, 0
2, 34080, Note_on_c, 0, 50, 64
2, 34080, Note_on_c, 0, 53, 64
2, 34080, Note_on_c, 0, 56, 64
2, 34080, Note_on_c, 0, 59, 64
2, 34080, Note_on_c, 0, 52, 64
2, 34088, Note_on_c, 0, 52, 0
2, 34089, Note_on_c, 0, 40, 64
2, 34098, Note_on_c, 0, 40, 0
2, 34099, Note_on_c, 0, 52, 64
2, 34108, Note_on_c, 0, 52, 0
2, 34110, Note_on_c, 0, 40, 64
2, 34118, Note_on_c, 0, 40, 0
2, 34119, Note_on_c, 0, 52, 64
2, 34128, Note_on_c, 0, 52, 0
2, 34129, Note_on_c, 0, 40, 64
2, 34136, Note_on_c, 0, 56, 0
2, 34136, Note_on_c, 0, 59, 0
2, 34136, Note_on_c, 0, 50, 0
2, 34136, Note_on_c, 0, 53, 0
2, 34138, Note_on_c, 0, 40, 0
2, 34140, Note_on_c, 0, 45, 64
2, 34148, Note_on_c, 0, 45, 0
2, 34149, Note_on_c, 0, 33, 64
2, 34158, Note_on_c, 0, 33, 0
2, 34159, Note_on_c, 0, 45, 64
2, 34168, Note_on_c, 0, 45, 0
2, 34170, Note_on_c, 0, 52, 64
2, 34170, Note_on_c, 0, 57, 64
2, 34170, Note_on_c, 0, 60, 64
2, 34170, Note_on_c, 0, 33, 64
2, 34178, Note_on_c, 0, 33, 0
2, 34179, Note_on_c, 0, 45, 64
2, 34188, Note_on_c, 0, 45, 0
2, 34189, Note_on_c, 0, 33, 64
2, 34198, Note_on_c, 0, 33, 0
2, 34200, Note_on_c, 0, 45, 64
2, 34208, Note_on_c, 0, 45, 0
2, 34209, Note_on_c, 0, 33, 64
2, 34218, Note_on_c, 0, 33, 0
2, 34219, Note_on_c, 0, 45, 64
2, 34226, Note_on_c, 0, 52, 0
2, 34226, Note_on_c, 0, 60, 0
2, 34226, Note_on_c, 0, 57, 0
2, 34228, Note_on_c, 0, 45, 0
2, 34230, Note_on_c, 0, 31, 64
2, 34238, Note_on_c, 0, 31, 0
2, 34239, Note_on_c, 0, 43, 64
2, 34248, Note_on_c, 0, 43, 0
2, 34249, Note_on_c, 0, 31, 64
2, 34258, Note_on_c, 0, 31, 0
2, 34260, Note_on_c, 0, 53, 64
2, 34260, Note_on_c, 0, 60, 64
2, 34260, Note_on_c, 0, 62, 64
2, 34260, Note_on_c, 0, 43, 64
2, 34268, Note_on_c, 0, 43, 0
2, 34269, Note_on_c, 0, 31, 64
2, 34278, Note_on_c, 0, 31, 0
2, 34279, Note_on_c, 0, 43, 64
2, 34288, Note_on_c, 0, 43, 0
2, 34290, Note_on_c, 0, 60, 0
2, 34290, Note_on_c, 0, 59, 64
2, 34290, Note_on_c, 0, 31, 64
2, 34298, Note_on_c, 0, 31, 0
2, 34299, Note_on_c, 0, 43, 64
2, 34308, Note_on_c, 0, 43, 0
2, 34309, Note_on_c, 0, 31, 64
2, 34316, Note_on_c, 0, 59, 0
2, 34316, Note_on_c, 0, 53, 0
2, 34316, Note_on_c, 0, 62, 0
2, 34318, Note_on_c, 0, 31, 0
2, 34320, Note_on_c, 0, 43, 64
2, 34328, Note_on_c, 0, 43, 0
2, 34329, Note_on_c, 0, 31, 64
2, 34338, Note_on_c, 0, 31, 0
2, 34339, Note_on_c, 0, 43, 64
2, 34348, Note_on_c, 0, 43, 0
2, 34350, Note_on_c, 0, 48, 64
2, 34350, Note_on_c, 0, 50, 64
2, 34350, Note_on_c, 0, 31, 64
2, 34358, Note_on_c, 0, 31, 0
2, 34359, Note_on_c, 0, 43, 64
2, 34368, Note_on_c, 0, 43, 0
2, 34369, Note_on_c, 0, 31, 64
2, 34378, Note_on_c, 0, 31, 0
2, 34380, Note_on_c, 0, 48, 0
2, 34380, Note_on_c, 0, 47, 64
2, 34380, Note_on_c, 0, 43, 64
2, 34388, Note_on_c, 0, 43, 0
2, 34389, Note_on_c, 0, 31, 64
2, 34398, Note_on_c, 0, 31, 0
2, 34399, Note_on_c, 0, 43, 64
2, 34406, Note_on_c, 0, 47, 0
2, 34406, Note_on_c, 0, 50, 0
2, 34408, Note_on_c, 0, 43, 0
2, 34410, Note_on_c, 0, 31, 64
2, 34418, Note_on_c, 0, 31, 0
2, 34419, Note_on_c, 0, 43, 64
2, 34428, Note_on_c, 0, 43, 0
2, 34429, Note_on_c, 0, 31, 64
2, 34438, Note_on_c, 0, 31, 0
2, 34440, Note_on_c, 0, 53, 64
2, 34440, Note_on_c, 0, 60, 64
2, 34440, Note_on_c, 0, 62, 64
2, 34440, Note_on_c, 0, 43, 64
2, 34448, Note_on_c, 0, 43, 0
2, 34449, Note_on_c, 0, 31, 64
2, 34458, Note_on_c, 0, 31, 0
2, 34459, Note_on_c, 0, 43, 64
2, 34468, Note_on_c, 0, 43, 0
2, 34470, Note_on_c, 0, 60, 0
2, 34470, Note_on_c, 0, 59, 64
2, 34470, Note_on_c, 0, 31, 64
2, 34478, Note_on_c, 0, 31, 0
2, 34479, Note_on_c, 0, 43, 64
2, 34488, Note_on_c, 0, 43, 0
2, 34489, Note_on_c, 0, 31, 64
2, 34496, Note_on_c, 0, 59, 0
2, 34496, Note_on_c, 0, 53, 0
2, 34496, Note_on_c, 0, 62, 0
2, 34498, Note_on_c, 0, 31, 0
2, 34500, Note_on_c, 0, 43, 64
2, 34508, Note_on_c, 0, 43, 0
2, 34509, Note_on_c, 0, 31, 64
2, 34518, Note_on_c, 0, 31, 0
2, 34519, Note_on_c, 0, 43, 64
2, 34528, Note_on_c, 0, 43, 0
2, 34530, Note_on_c, 0, 55, 64
2, 34530, Note_on_c, 0, 62, 64
2, 34530, Note_on_c, 0, 64, 64
2, 34530, Note_on_c, 0, 31, 64
2, 34538, Note_on_c, 0, 31, 0
2, 34539, Note_on_c, 0, 43, 64
2, 34548, Note_on_c, 0, 43, 0
2, 34549, Note_on_c, 0, 31, 64
2, 34558, Note_on_c, 0, 31, 0
2, 34560, Note_on_c, 0, 62, 0
2, 34560, Note_on_c, 0, 60, 64
2, 34560, Note_on_c, 0, 43, 64
2, 34568, Note_on_c, 0, 43, 0
2, 34569, Note_on_c, 0, 31, 64
2, 34578, Note_on_c, 0, 31, 0
2, 34579, Note_on_c, 0, 43, 64
2, 34586, Note_on_c, 0, 60, 0
2, 34586, Note_on_c, 0, 55, 0
2, 34586, Note_on_c, 0, 64, 0
2, 34588, Note_on_c, 0, 43, 0
2, 34590, Note_on_c, 0, 31, 64
2, 34598, Note_on_c, 0, 31, 0
2, 34599, Note_on_c, 0, 43, 64
2, 34608, Note_on_c, 0, 43, 0
2, 34609, Note_on_c, 0, 31, 64
2, 34618, Note_on_c, 0, 31, 0
2, 34620, Note_on_c, 0, 50, 64
2, 34620, Note_on_c, 0, 52, 64
2, 34620, Note_on_c, 0, 43, 64
2, 34628, Note_on_c, 0, 43, 0
2, 34629, Note_on_c, 0, 31, 64
2, 34638, Note_on_c, 0, 31, 0
2, 34639, Note_on_c, 0, 43, 64
2, 34648, Note_on_c, 0, 43, 0
2, 34650, Note_on_c, 0, 50, 0
2, 34650, Note_on_c, 0, 48, 64
2, 34650, Note_on_c, 0, 31, 64
2, 34658, Note_on_c, 0, 31, 0
2, 34659, Note_on_c, 0, 43, 64
2, 34668, Note_on_c, 0, 43, 0
2, 34669, Note_on_c, 0, 31, 64
2, 34676, Note_on_c, 0, 48, 0
2, 34676, Note_on_c, 0, 52, 0
2, 34678, Note_on_c, 0, 31, 0
2, 34680, Note_on_c, 0, 43, 64
2, 34688, Note_on_c, 0, 43, 0
2, 34689, Note_on_c, 0, 31, 64
2, 34698, Note_on_c, 0, 31, 0
2, 34699, Note_on_c, 0, 43, 64
2, 34708, Note_on_c, 0, 43, 0
2, 34710, Note_on_c, 0, 56, 64
2, 34710, Note_on_c, 0, 59, 64
2, 34710, Note_on_c, 0, 62, 64
2, 34710, Note_on_c, 0, 65, 64
2, 34710, Note_on_c, 0, 31, 64
2, 34718, Note_on_c, 0, 31, 0
2, 34719, Note_on_c, 0, 43, 64
2, 34728, Note_on_c, 0, 43, 0
2, 34729, Note_on_c, 0, 31, 64
2, 34738, Note_on_c, 0, 31, 0
2, 34740, Note_on_c, 0, 56, 0
2, 34740, Note_on_c, 0, 55, 64
2, 34740, Note_on_c, 0, 43, 64
2, 34748, Note_on_c, 0, 43, 0
2, 34749, Note_on_c, 0, 31, 64
2, 34758, Note_on_c, 0, 31, 0
2, 34759, Note_on_c, 0, 43, 64
2, 34766, Note_on_c, 0, 55, 0
2, 34766, Note_on_c, 0, 59, 0
2, 34766, Note_on_c, 0, 65, 0
2, 34766, Note_on_c, 0, 62, 0
2, 34768, Note_on_c, 0, 43, 0
2, 34770, Note_on_c, 0, 31, 64
2, 34778, Note_on_c, 0, 31, 0
2, 34779, Note_on_c, 0, 43, 64
2, 34788, Note_on_c, 0, 43, 0
2, 34789, Note_on_c, 0, 31, 64
2, 34798, Note_on_c, 0, 31, 0
2, 34800, Note_on_c, 0, 48, 64
2, 34800, Note_on_c, 0, 50, 64
2, 34800, Note_on_c, 0, 43, 64
2, 34808, Note_on_c, 0, 43, 0
2, 34809, Note_on_c, 0, 31, 64
2, 34818, Note_on_c, 0, 31, 0
2, 34819, Note_on_c, 0, 43, 64
2, 34828, Note_on_c, 0, 43, 0
2, 34830, Note_on_c, 0, 48, 0
2, 34830, Note_on_c, 0, 47, 64
2, 34830, Note_on_c, 0, 31, 64
2, 34838, Note_on_c, 0, 31, 0
2, 34839, Note_on_c, 0, 43, 64
2, 34848, Note_on_c, 0, 43, 0
2, 34849, Note_on_c, 0, 31, 64
2, 34856, Note_on_c, 0, 47, 0
2, 34856, Note_on_c, 0, 50, 0
2, 34858, Note_on_c, 0, 31, 0
2, 34860, Note_on_c, 0, 43, 64
2, 34868, Note_on_c, 0, 43, 0
2, 34869, Note_on_c, 0, 31, 64
2, 34878, Note_on_c, 0, 31, 0
2, 34879, Note_on_c, 0, 43, 64
2, 34888, Note_on_c, 0, 43, 0
2, 34890, Note_on_c, 0, 48, 64
2, 34890, Note_on_c, 0, 50, 64
2, 34890, Note_on_c, 0, 55, 64
2, 34890, Note_on_c, 0, 31, 64
2, 34898, Note_on_c, 0, 31, 0
2, 34899, Note_on_c, 0, 43, 64
2, 34908, Note_on_c, 0, 43, 0
2, 34909, Note_on_c, 0, 31, 64
2, 34918, Note_on_c, 0, 31, 0
2, 34920, Note_on_c, 0, 48, 0
2, 34920, Note_on_c, 0, 47, 64
2, 34920, Note_on_c, 0, 43, 64
2, 34928, Note_on_c, 0, 43, 0
2, 34929, Note_on_c, 0, 31, 64
2, 34938, Note_on_c, 0, 31, 0
2, 34939, Note_on_c, 0, 43, 64
2, 34946, Note_on_c, 0, 47, 0
2, 34946, Note_on_c, 0, 50, 0
2, 34946, Note_on_c, 0, 55, 0
2, 34948, Note_on_c, 0, 43, 0
2, 34950, Note_on_c, 0, 31, 64
2, 34958, Note_on_c, 0, 31, 0
2, 34959, Note_on_c, 0, 43, 64
2, 34968, Note_on_c, 0, 43, 0
2, 34969, Note_on_c, 0, 31, 64
2, 34978, Note_on_c, 0, 31, 0
2, 34980, Note_on_c, 0, 60, 64
2, 34980, Note_on_c, 0, 62, 64
2, 34980, Note_on_c, 0, 67, 64
2, 34980, Note_on_c, 0, 43, 64
2, 34988, Note_on_c, 0, 43, 0
2, 34989, Note_on_c, 0, 31, 64
2, 34998, Note_on_c, 0, 31, 0
2, 34999, Note_on_c, 0, 43, 64
2, 35008, Note_on_c, 0, 43, 0
2, 35010, Note_on_c, 0, 60, 0
2, 35010, Note_on_c, 0, 59, 64
2, 35010, Note_on_c, 0, 31, 64
2, 35018, Note_on_c, 0, 31, 0
2, 35019, Note_on_c, 0, 43, 64
2, 35028, Note_on_c, 0, 43, 0
2, 35029, Note_on_c, 0, 31, 64
2, 35036, Note_on_c, 0, 59, 0
2, 35036, Note_on_c, 0, 62, 0
2, 35036, Note_on_c, 0, 67, 0
2, 35038, Note_on_c, 0, 31, 0
2, 35040, Note_on_c, 0, 43, 64
2, 35048, Note_on_c, 0, 43, 0
2, 35049, Note_on_c, 0, 31, 64
2, 35058, Note_on_c, 0, 31, 0
2, 35059, Note_on_c, 0, 43, 64
2, 35068, Note_on_c, 0, 43, 0
2, 35070, Note_on_c, 0, 47, 64
2, 35070, Note_on_c, 0, 50, 64
2, 35070, Note_on_c, 0, 55, 64
2, 35070, Note_on_c, 0, 31, 64
2, 35078, Note_on_c, 0, 31, 0
2, 35079, Note_on_c, 0, 43, 64
2, 35088, Note_on_c, 0, 43, 0
2, 35089, Note_on_c, 0, 31, 64
2, 35096, Note_on_c, 0, 55, 0
2, 35096, Note_on_c, 0, 47, 0
2, 35096, Note_on_c, 0, 50, 0
2, 35098, Note_on_c, 0, 31, 0
2, 35100, Note_on_c, 0, 48, 64
2, 35100, Note_on_c, 0, 52, 64
2, 35100, Note_on_c, 0, 43, 64
2, 35108, Note_on_c, 0, 43, 0
2, 35109, Note_on_c, 0, 31, 64
2, 35118, Note_on_c, 0, 31, 0
2, 35119, Note_on_c, 0, 43, 64
2, 35126, Note_on_c, 0, 52, 0
2, 35126, Note_on_c, 0, 48, 0
2, 35128, Note_on_c, 0, 43, 0
2, 35130, Note_on_c, 0, 36, 64
2, 35138, Note_on_c, 0, 36, 0
2, 35139, Note_on_c, 0, 43, 64
2, 35148, Note_on_c, 0, 43, 0
2, 35149, Note_on_c, 0, 36, 64
2, 35158, Note_on_c, 0, 36, 0
2, 35160, Note_on_c, 0, 60, 64
2, 35160, Note_on_c, 0, 64, 64
2, 35160, Note_on_c, 0, 43, 64
2, 35168, Note_on_c, 0, 43, 0
2, 35169, Note_on_c, 0, 36, 64
2, 35178, Note_on_c, 0, 36, 0
2, 35179, Note_on_c, 0, 43, 64
2, 35186, Note_on_c, 0, 64, 0
2, 35186, Note_on_c, 0, 60, 0
2, 35188, Note_on_c, 0, 43, 0
2, 35190, Note_on_c, 0, 52, 64
2, 35190, Note_on_c, 0, 36, 64
2, 35198, Note_on_c, 0, 36, 0
2, 35199, Note_on_c, 0, 43, 64
2, 35208, Note_on_c, 0, 43, 0
2, 35209, Note_on_c, 0, 36, 64
2, 35216, Note_on_c, 0, 52, 0
2, 35218, Note_on_c, 0, 36, 0
2, 35220, Note_on_c, 0, 43, 64
2, 35228, Note_on_c, 0, 43, 0
2, 35229, Note_on_c, 0, 35, 64
2, 35238, Note_on_c, 0, 35, 0
2, 35239, Note_on_c, 0, 43, 64
2, 35248, Note_on_c, 0, 43, 0
2, 35250, Note_on_c, 0, 74, 64
2, 35250, Note_on_c, 0, 76, 64
2, 35250, Note_on_c, 0, 35, 64
2, 35258, Note_on_c, 0, 35, 0
2, 35259, Note_on_c, 0, 43, 64
2, 35268, Note_on_c, 0, 43, 0
2, 35269, Note_on_c, 0, 35, 64
2, 35276, Note_on_c, 0, 76, 0
2, 35276, Note_on_c, 0, 74, 0
2, 35278, Note_on_c, 0, 35, 0
2, 35280, Note_on_c, 0, 62, 64
2, 35280, Note_on_c, 0, 64, 64
2, 35280, Note_on_c, 0, 43, 64
2, 35288, Note_on_c, 0, 43, 0
2, 35289, Note_on_c, 0, 35, 64
2, 35298, Note_on_c, 0, 35, 0
2, 35299, Note_on_c, 0, 43, 64
2, 35306, Note_on_c, 0, 64, 0
2, 35306, Note_on_c, 0, 62, 0
2, 35308, Note_on_c, 0, 43, 0
2, 35310, Note_on_c, 0, 64, 64
2, 35310, Note_on_c, 0, 72, 64
2, 35310, Note_on_c, 0, 76, 64
2, 35310, Note_on_c, 0, 33, 64
2, 35310, Note_on_c, 0, 45, 64
2, 35336, Note_on_c, 0, 45, 0
2, 35336, Note_on_c, 0, 76, 0
2, 35336, Note_on_c, 0, 64, 0
2, 35336, Note_on_c, 0, 72, 0
2, 35336, Note_on_c, 0, 33, 0
2, 35340, Note_on_c, 0, 84, 64
2, 35340, Note_on_c, 0, 76, 64
2, 35348, Note_on_c, 0, 84, 0
2, 35349, Note_on_c, 0, 86, 64
2, 35353, Note_on_c, 0, 76, 0
2, 35358, Note_on_c, 0, 86, 0
2, 35359, Note_on_c, 0, 83, 64
2, 35368, Note_on_c, 0, 83, 0
2, 35370, Note_on_c, 0, 84, 64
2, 35370, Note_on_c, 0, 76, 64
2, 35378, Note_on_c, 0, 84, 0
2, 35379, Note_on_c, 0, 83, 64
2, 35383, Note_on_c, 0, 76, 0
2, 35388, Note_on_c, 0, 83, 0
2, 35389, Note_on_c, 0, 81, 64
2, 35398, Note_on_c, 0, 81, 0
2, 35400, Note_on_c, 0, 80, 64
2, 35400, Note_on_c, 0, 76, 64
2, 35408, Note_on_c, 0, 80, 0
2, 35409, Note_on_c, 0, 81, 64
2, 35413, Note_on_c, 0, 76, 0
2, 35418, Note_on_c, 0, 81, 0
2, 35419, Note_on_c, 0, 83, 64
2, 35428, Note_on_c, 0, 83, 0
2, 35430, Note_on_c, 0, 81, 64
2, 35430, Note_on_c, 0, 76, 64
2, 35438, Note_on_c, 0, 81, 0
2, 35439, Note_on_c, 0, 83, 64
2, 35443, Note_on_c, 0, 76, 0
2, 35448, Note_on_c, 0, 83, 0
2, 35449, Note_on_c, 0, 84, 64
2, 35458, Note_on_c, 0, 84, 0
2, 35460, Note_on_c, 0, 83, 64
2, 35460, Note_on_c, 0, 76, 64
2, 35468, Note_on_c, 0, 83, 0
2, 35469, Note_on_c, 0, 84, 64
2, 35473, Note_on_c, 0, 76, 0
2, 35478, Note_on_c, 0, 84, 0
2, 35479, Note_on_c, 0, 86, 64
2, 35488, Note_on_c, 0, 86, 0
2, 35490, Note_on_c, 0, 84, 64
2, 35490, Note_on_c, 0, 76, 64
2, 35498, Note_on_c, 0, 84, 0
2, 35499, Note_on_c, 0, 86, 64
2, 35503, Note_on_c, 0, 76, 0
2, 35508, Note_on_c, 0, 86, 0
2, 35509, Note_on_c, 0, 84, 64
2, 35518, Note_on_c, 0, 84, 0
2, 35520, Note_on_c, 0, 83, 64
2, 35520, Note_on_c, 0, 76, 64
2, 35528, Note_on_c, 0, 83, 0
2, 35529, Note_on_c, 0, 84, 64
2, 35533, Note_on_c, 0, 76, 0
2, 35538, Note_on_c, 0, 84, 0
2, 35539, Note_on_c, 0, 86, 64
2, 35548, Note_on_c, 0, 86, 0
2, 35550, Note_on_c, 0, 84, 64
2, 35550, Note_on_c, 0, 76, 64
2, 35558, Note_on_c, 0, 84, 0
2, 35559, Note_on_c, 0, 83, 64
2, 35563, Note_on_c, 0, 76, 0
2, 35568, Note_on_c, 0, 83, 0
2, 35569, Note_on_c, 0, 81, 64
2, 35578, Note_on_c, 0, 81, 0
2, 35580, Note_on_c, 0, 83, 64
2, 35580, Note_on_c, 0, 76, 64
2, 35588, Note_on_c, 0, 83, 0
2, 35589, Note_on_c, 0, 84, 64
2, 35593, Note_on_c, 0, 76, 0
2, 35598, Note_on_c, 0, 84, 0
2, 35599, Note_on_c, 0, 86, 64
2, 35608, Note_on_c, 0, 86, 0
2, 35610, Note_on_c, 0, 84, 64
2, 35610, Note_on_c, 0, 76, 64
2, 35618, Note_on_c, 0, 84, 0
2, 35619, Note_on_c, 0, 83, 64
2, 35623, Note_on_c, 0, 76, 0
2, 35628, Note_on_c, 0, 83, 0
2, 35629, Note_on_c, 0, 81, 64
2, 35638, Note_on_c, 0, 81, 0
2, 35640, Note_on_c, 0, 80, 64
2, 35640, Note_on_c, 0, 76, 64
2, 35648, Note_on_c, 0, 80, 0
2, 35649, Note_on_c, 0, 81, 64
2, 35653, Note_on_c, 0, 76, 0
2, 35658, Note_on_c, 0, 81, 0
2, 35659, Note_on_c, 0, 83, 64
2, 35668, Note_on_c, 0, 83, 0
2, 35670, Note_on_c, 0, 80, 64
2, 35670, Note_on_c, 0, 76, 64
2, 35678, Note_on_c, 0, 80, 0
2, 35679, Note_on_c, 0, 81, 64
2, 35683, Note_on_c, 0, 76, 0
2, 35688, Note_on_c, 0, 81, 0
2, 35689, Note_on_c, 0, 83, 64
2, 35698, Note_on_c, 0, 83, 0
2, 35700, Note_on_c, 0, 81, 64
2, 35700, Note_on_c, 0, 76, 64
2, 35708, Note_on_c, 0, 81, 0
2, 35709, Note_on_c, 0, 83, 64
2, 35713, Note_on_c, 0, 76, 0
2, 35718, Note_on_c, 0, 83, 0
2, 35719, Note_on_c, 0, 84, 64
2, 35728, Note_on_c, 0, 84, 0
2, 35730, Note_on_c, 0, 83, 64
2, 35730, Note_on_c, 0, 76, 64
2, 35738, Note_on_c, 0, 83, 0
2, 35739, Note_on_c, 0, 84, 64
2, 35743, Note_on_c, 0, 76, 0
2, 35748, Note_on_c, 0, 84, 0
2, 35749, Note_on_c, 0, 86, 64
2, 35758, Note_on_c, 0, 86, 0
2, 35760, Note_on_c, 0, 83, 64
2, 35760, Note_on_c, 0, 76, 64
2, 35768, Note_on_c, 0, 83, 0
2, 35769, Note_on_c, 0, 84, 64
2, 35773, Note_on_c, 0, 76, 0
2, 35778, Note_on_c, 0, 84, 0
2, 35779, Note_on_c, 0, 86, 64
2, 35788, Note_on_c, 0, 86, 0
2, 35790, Note_on_c, 0, 89, 64
2, 35790, Note_on_c, 0, 76, 64
2, 35798, Note_on_c, 0, 89, 0
2, 35799, Note_on_c, 0, 88, 64
2, 35803, Note_on_c, 0, 76, 0
2, 35808, Note_on_c, 0, 88, 0
2, 35809, Note_on_c, 0, 86, 64
2, 35818, Note_on_c, 0, 86, 0
2, 35820, Note_on_c, 0, 84, 64
2, 35820, Note_on_c, 0, 76, 64
2, 35828, Note_on_c, 0, 84, 0
2, 35829, Note_on_c, 0, 83, 64
2, 35833, Note_on_c, 0, 76, 0
2, 35838, Note_on_c, 0, 83, 0
2, 35839, Note_on_c, 0, 88, 64
2, 35848, Note_on_c, 0, 88, 0
2, 35850, Note_on_c, 0, 81, 64
2, 35850, Note_on_c, 0, 76, 64
2, 35858, Note_on_c, 0, 81, 0
2, 35859, Note_on_c, 0, 80, 64
2, 35863, Note_on_c, 0, 76, 0
2, 35868, Note_on_c, 0, 80, 0
2, 35869, Note_on_c, 0, 88, 64
2, 35878, Note_on_c, 0, 88, 0
2, 35880, Note_on_c, 0, 83, 64
2, 35880, Note_on_c, 0, 76, 64
2, 35888, Note_on_c, 0, 83, 0
2, 35889, Note_on_c, 0, 81, 64
2, 35893, Note_on_c, 0, 76, 0
2, 35898, Note_on_c, 0, 81, 0
2, 35899, Note_on_c, 0, 88, 64
2, 35908, Note_on_c, 0, 88, 0
2, 35910, Note_on_c, 0, 84, 64
2, 35910, Note_on_c, 0, 76, 64
2, 35918, Note_on_c, 0, 84, 0
2, 35919, Note_on_c, 0, 83, 64
2, 35923, Note_on_c, 0, 76, 0
2, 35928, Note_on_c, 0, 83, 0
2, 35929, Note_on_c, 0, 88, 64
2, 35938, Note_on_c, 0, 88, 0
2, 35940, Note_on_c, 0, 86, 64
2, 35940, Note_on_c, 0, 76, 64
2, 35948, Note_on_c, 0, 86, 0
2, 35949, Note_on_c, 0, 84, 64
2, 35953, Note_on_c, 0, 76, 0
2, 35958, Note_on_c, 0, 84, 0
2, 35959, Note_on_c, 0, 88, 64
2, 35968, Note_on_c, 0, 88, 0
2, 35970, Note_on_c, 0, 84, 64
2, 35970, Note_on_c, 0, 76, 64
2, 35978, Note_on_c, 0, 84, 0
2, 35979, Note_on_c, 0, 83, 64
2, 35983, Note_on_c, 0, 76, 0
2, 35988, Note_on_c, 0, 83, 0
2, 35989, Note_on_c, 0, 88, 64
2, 35998, Note_on_c, 0, 88, 0
2, 36000, Note_on_c, 0, 86, 64
2, 36000, Note_on_c, 0, 76, 64
2, 36008, Note_on_c, 0, 86, 0
2, 36009, Note_on_c, 0, 84, 64
2, 36013, Note_on_c, 0, 76, 0
2, 36018, Note_on_c, 0, 84, 0
2, 36019, Note_on_c, 0, 88, 64
2, 36028, Note_on_c, 0, 88, 0
2, 36030, Note_on_c, 0, 86, 64
2, 36030, Note_on_c, 0, 76, 64
2, 36038, Note_on_c, 0, 86, 0
2, 36039, Note_on_c, 0, 84, 64
2, 36043, Note_on_c, 0, 76, 0
2, 36048, Note_on_c, 0, 84, 0
2, 36049, Note_on_c, 0, 88, 64
2, 36058, Note_on_c, 0, 88, 0
2, 36060, Note_on_c, 0, 84, 64
2, 36060, Note_on_c, 0, 76, 64
2, 36068, Note_on_c, 0, 84, 0
2, 36069, Note_on_c, 0, 83, 64
2, 36073, Note_on_c, 0, 76, 0
2, 36078, Note_on_c, 0, 83, 0
2, 36079, Note_on_c, 0, 86, 64
2, 36088, Note_on_c, 0, 86, 0
2, 36090, Note_on_c, 0, 83, 64
2, 36090, Note_on_c, 0, 76, 64
2, 36098, Note_on_c, 0, 83, 0
2, 36099, Note_on_c, 0, 81, 64
2, 36103, Note_on_c, 0, 76, 0
2, 36108, Note_on_c, 0, 81, 0
2, 36109, Note_on_c, 0, 84, 64
2, 36118, Note_on_c, 0, 84, 0
2, 36120, Note_on_c, 0, 83, 64
2, 36120, Note_on_c, 0, 76, 64
2, 36128, Note_on_c, 0, 83, 0
2, 36129, Note_on_c, 0, 81, 64
2, 36133, Note_on_c, 0, 76, 0
2, 36138, Note_on_c, 0, 81, 0
2, 36139, Note_on_c, 0, 84, 64
2, 36148, Note_on_c, 0, 84, 0
2, 36150, Note_on_c, 0, 83, 64
2, 36150, Note_on_c, 0, 76, 64
2, 36158, Note_on_c, 0, 83, 0
2, 36159, Note_on_c, 0, 86, 64
2, 36163, Note_on_c, 0, 76, 0
2, 36168, Note_on_c, 0, 86, 0
2, 36169, Note_on_c, 0, 84, 64
2, 36178, Note_on_c, 0, 84, 0
2, 36180, Note_on_c, 0, 83, 64
2, 36180, Note_on_c, 0, 76, 64
2, 36188, Note_on_c, 0, 83, 0
2, 36189, Note_on_c, 0, 81, 64
2, 36193, Note_on_c, 0, 76, 0
2, 36198, Note_on_c, 0, 81, 0
2, 36199, Note_on_c, 0, 84, 64
2, 36208, Note_on_c, 0, 84, 0
2, 36210, Note_on_c, 0, 81, 64
2, 36210, Note_on_c, 0, 76, 64
2, 36218, Note_on_c, 0, 81, 0
2, 36219, Note_on_c, 0, 80, 64
2, 36223, Note_on_c, 0, 76, 0
2, 36228, Note_on_c, 0, 80, 0
2, 36229, Note_on_c, 0, 83, 64
2, 36238, Note_on_c, 0, 83, 0
2, 36240, Note_on_c, 0, 81, 64
2, 36240, Note_on_c, 0, 76, 64
2, 36248, Note_on_c, 0, 81, 0
2, 36249, Note_on_c, 0, 84, 64
2, 36253, Note_on_c, 0, 76, 0
2, 36258, Note_on_c, 0, 84, 0
2, 36259, Note_on_c, 0, 83, 64
2, 36268, Note_on_c, 0, 83, 0
2, 36270, Note_on_c, 0, 81, 64
2, 36270, Note_on_c, 0, 76, 64
2, 36278, Note_on_c, 0, 81, 0
2, 36279, Note_on_c, 0, 80, 64
2, 36283, Note_on_c, 0, 76, 0
2, 36288, Note_on_c, 0, 80, 0
2, 36289, Note_on_c, 0, 83, 64
2, 36298, Note_on_c, 0, 83, 0
2, 36300, Note_on_c, 0, 84, 64
2, 36300, Note_on_c, 0, 69, 64
2, 36308, Note_on_c, 0, 84, 0
2, 36309, Note_on_c, 0, 86, 64
2, 36313, Note_on_c, 0, 69, 0
2, 36318, Note_on_c, 0, 86, 0
2, 36319, Note_on_c, 0, 84, 64
2, 36328, Note_on_c, 0, 84, 0
2, 36330, Note_on_c, 0, 83, 64
2, 36330, Note_on_c, 0, 81, 64
2, 36338, Note_on_c, 0, 83, 0
2, 36339, Note_on_c, 0, 84, 64
2, 36343, Note_on_c, 0, 81, 0
2, 36348, Note_on_c, 0, 84, 0
2, 36349, Note_on_c, 0, 83, 64
2, 36358, Note_on_c, 0, 83, 0
2, 36360, Note_on_c, 0, 84, 64
2, 36360, Note_on_c, 0, 80, 64
2, 36368, Note_on_c, 0, 84, 0
2, 36369, Note_on_c, 0, 86, 64
2, 36373, Note_on_c, 0, 80, 0
2, 36378, Note_on_c, 0, 86, 0
2, 36379, Note_on_c, 0, 84, 64
2, 36388, Note_on_c, 0, 84, 0
2, 36390, Note_on_c, 0, 86, 64
2, 36390, Note_on_c, 0, 79, 64
2, 36398, Note_on_c, 0, 86, 0
2, 36399, Note_on_c, 0, 88, 64
2, 36403, Note_on_c, 0, 79, 0
2, 36408, Note_on_c, 0, 88, 0
2, 36409, Note_on_c, 0, 85, 64
2, 36418, Note_on_c, 0, 85, 0
2, 36420, Note_on_c, 0, 86, 64
2, 36420, Note_on_c, 0, 79, 64
2, 36428, Note_on_c, 0, 86, 0
2, 36429, Note_on_c, 0, 83, 64
2, 36433, Note_on_c, 0, 79, 0
2, 36438, Note_on_c, 0, 83, 0
2, 36439, Note_on_c, 0, 84, 64
2, 36448, Note_on_c, 0, 84, 0
2, 36450, Note_on_c, 0, 82, 64
2, 36450, Note_on_c, 0, 79, 64
2, 36458, Note_on_c, 0, 82, 0
2, 36459, Note_on_c, 0, 83, 64
2, 36463, Note_on_c, 0, 79, 0
2, 36468, Note_on_c, 0, 83, 0
2, 36469, Note_on_c, 0, 81, 64
2, 36478, Note_on_c, 0, 81, 0
2, 36480, Note_on_c, 0, 83, 64
2, 36480, Note_on_c, 0, 79, 64
2, 36488, Note_on_c, 0, 83, 0
2, 36489, Note_on_c, 0, 81, 64
2, 36493, Note_on_c, 0, 79, 0
2, 36498, Note_on_c, 0, 81, 0
2, 36499, Note_on_c, 0, 84, 64
2, 36508, Note_on_c, 0, 84, 0
2, 36510, Note_on_c, 0, 83, 64
2, 36510, Note_on_c, 0, 79, 64
2, 36518, Note_on_c, 0, 83, 0
2, 36519, Note_on_c, 0, 86, 64
2, 36523, Note_on_c, 0, 79, 0
2, 36528, Note_on_c, 0, 86, 0
2, 36529, Note_on_c, 0, 84, 64
2, 36538, Note_on_c, 0, 84, 0
2, 36540, Note_on_c, 0, 86, 64
2, 36540, Note_on_c, 0, 79, 64
2, 36548, Note_on_c, 0, 86, 0
2, 36549, Note_on_c, 0, 85, 64
2, 36553, Note_on_c, 0, 79, 0
2, 36558, Note_on_c, 0, 85, 0
2, 36559, Note_on_c, 0, 87, 64
2, 36568, Note_on_c, 0, 87, 0
2, 36570, Note_on_c, 0, 86, 64
2, 36570, Note_on_c, 0, 79, 64
2, 36578, Note_on_c, 0, 86, 0
2, 36579, Note_on_c, 0, 88, 64
2, 36583, Note_on_c, 0, 79, 0
2, 36588, Note_on_c, 0, 88, 0
2, 36589, Note_on_c, 0, 86, 64
2, 36598, Note_on_c, 0, 86, 0
2, 36600, Note_on_c, 0, 89, 64
2, 36600, Note_on_c, 0, 79, 64
2, 36608, Note_on_c, 0, 89, 0
2, 36609, Note_on_c, 0, 86, 64
2, 36613, Note_on_c, 0, 79, 0
2, 36618, Note_on_c, 0, 86, 0
2, 36619, Note_on_c, 0, 88, 64
2, 36628, Note_on_c, 0, 88, 0
2, 36630, Note_on_c, 0, 87, 64
2, 36630, Note_on_c, 0, 79, 64
2, 36638, Note_on_c, 0, 87, 0
2, 36639, Note_on_c, 0, 89, 64
2, 36643, Note_on_c, 0, 79, 0
2, 36648, Note_on_c, 0, 89, 0
2, 36649, Note_on_c, 0, 87, 64
2, 36658, Note_on_c, 0, 87, 0
2, 36660, Note_on_c, 0, 88, 64
2, 36660, Note_on_c, 0, 79, 64
2, 36668, Note_on_c, 0, 88, 0
2, 36669, Note_on_c, 0, 89, 64
2, 36673, Note_on_c, 0, 79, 0
2, 36678, Note_on_c, 0, 89, 0
2, 36679, Note_on_c, 0, 87, 64
2, 36688, Note_on_c, 0, 87, 0
2, 36690, Note_on_c, 0, 88, 64
2, 36690, Note_on_c, 0, 79, 64
2, 36698, Note_on_c, 0, 88, 0
2, 36699, Note_on_c, 0, 85, 64
2, 36703, Note_on_c, 0, 79, 0
2, 36708, Note_on_c, 0, 85, 0
2, 36709, Note_on_c, 0, 86, 64
2, 36718, Note_on_c, 0, 86, 0
2, 36720, Note_on_c, 0, 83, 64
2, 36720, Note_on_c, 0, 79, 64
2, 36728, Note_on_c, 0, 83, 0
2, 36729, Note_on_c, 0, 86, 64
2, 36733, Note_on_c, 0, 79, 0
2, 36738, Note_on_c, 0, 86, 0
2, 36739, Note_on_c, 0, 84, 64
2, 36748, Note_on_c, 0, 84, 0
2, 36750, Note_on_c, 0, 86, 64
2, 36750, Note_on_c, 0, 79, 64
2, 36758, Note_on_c, 0, 86, 0
2, 36759, Note_on_c, 0, 88, 64
2, 36763, Note_on_c, 0, 79, 0
2, 36768, Note_on_c, 0, 88, 0
2, 36769, Note_on_c, 0, 86, 64
2, 36778, Note_on_c, 0, 86, 0
2, 36780, Note_on_c, 0, 88, 64
2, 36780, Note_on_c, 0, 79, 64
2, 36788, Note_on_c, 0, 88, 0
2, 36789, Note_on_c, 0, 89, 64
2, 36793, Note_on_c, 0, 79, 0
2, 36798, Note_on_c, 0, 89, 0
2, 36799, Note_on_c, 0, 88, 64
2, 36808, Note_on_c, 0, 88, 0
2, 36810, Note_on_c, 0, 89, 64
2, 36810, Note_on_c, 0, 79, 64
2, 36818, Note_on_c, 0, 89, 0
2, 36819, Note_on_c, 0, 87, 64
2, 36823, Note_on_c, 0, 79, 0
2, 36828, Note_on_c, 0, 87, 0
2, 36829, Note_on_c, 0, 88, 64
2, 36838, Note_on_c, 0, 88, 0
2, 36840, Note_on_c, 0, 89, 64
2, 36840, Note_on_c, 0, 81, 64
2, 36848, Note_on_c, 0, 89, 0
2, 36849, Note_on_c, 0, 91, 64
2, 36853, Note_on_c, 0, 81, 0
2, 36858, Note_on_c, 0, 91, 0
2, 36859, Note_on_c, 0, 88, 64
2, 36868, Note_on_c, 0, 88, 0
2, 36870, Note_on_c, 0, 89, 64
2, 36870, Note_on_c, 0, 80, 64
2, 36878, Note_on_c, 0, 89, 0
2, 36879, Note_on_c, 0, 88, 64
2, 36883, Note_on_c, 0, 80, 0
2, 36888, Note_on_c, 0, 88, 0
2, 36889, Note_on_c, 0, 89, 64
2, 36898, Note_on_c, 0, 89, 0
2, 36900, Note_on_c, 0, 88, 64
2, 36900, Note_on_c, 0, 81, 64
2, 36908, Note_on_c, 0, 88, 0
2, 36909, Note_on_c, 0, 91, 64
2, 36913, Note_on_c, 0, 81, 0
2, 36918, Note_on_c, 0, 91, 0
2, 36919, Note_on_c, 0, 89, 64
2, 36928, Note_on_c, 0, 89, 0
2, 36930, Note_on_c, 0, 86, 64
2, 36930, Note_on_c, 0, 82, 64
2, 36938, Note_on_c, 0, 86, 0
2, 36939, Note_on_c, 0, 89, 64
2, 36943, Note_on_c, 0, 82, 0
2, 36948, Note_on_c, 0, 89, 0
2, 36949, Note_on_c, 0, 86, 64
2, 36958, Note_on_c, 0, 86, 0
2, 36960, Note_on_c, 0, 89, 64
2, 36960, Note_on_c, 0, 82, 64
2, 36968, Note_on_c, 0, 89, 0
2, 36969, Note_on_c, 0, 86, 64
2, 36973, Note_on_c, 0, 82, 0
2, 36978, Note_on_c, 0, 86, 0
2, 36979, Note_on_c, 0, 89, 64
2, 36988, Note_on_c, 0, 89, 0
2, 36990, Note_on_c, 0, 86, 64
2, 36990, Note_on_c, 0, 82, 64
2, 36998, Note_on_c, 0, 86, 0
2, 36999, Note_on_c, 0, 89, 64
2, 37003, Note_on_c, 0, 82, 0
2, 37008, Note_on_c, 0, 89, 0
2, 37009, Note_on_c, 0, 86, 64
2, 37018, Note_on_c, 0, 86, 0
2, 37020, Note_on_c, 0, 89, 64
2, 37020, Note_on_c, 0, 82, 64
2, 37028, Note_on_c, 0, 89, 0
2, 37029, Note_on_c, 0, 86, 64
2, 37033, Note_on_c, 0, 82, 0
2, 37038, Note_on_c, 0, 86, 0
2, 37039, Note_on_c, 0, 89, 64
2, 37048, Note_on_c, 0, 89, 0
2, 37050, Note_on_c, 0, 86, 64
2, 37050, Note_on_c, 0, 82, 64
2, 37058, Note_on_c, 0, 86, 0
2, 37059, Note_on_c, 0, 90, 64
2, 37063, Note_on_c, 0, 82, 0
2, 37068, Note_on_c, 0, 90, 0
2, 37069, Note_on_c, 0, 86, 64
2, 37078, Note_on_c, 0, 86, 0
2, 37080, Note_on_c, 0, 90, 64
2, 37080, Note_on_c, 0, 82, 64
2, 37088, Note_on_c, 0, 90, 0
2, 37089, Note_on_c, 0, 86, 64
2, 37093, Note_on_c, 0, 82, 0
2, 37098, Note_on_c, 0, 86, 0
2, 37099, Note_on_c, 0, 90, 64
2, 37108, Note_on_c, 0, 90, 0
2, 37110, Note_on_c, 0, 86, 64
2, 37110, Note_on_c, 0, 82, 64
2, 37118, Note_on_c, 0, 86, 0
2, 37119, Note_on_c, 0, 90, 64
2, 37123, Note_on_c, 0, 82, 0
2, 37128, Note_on_c, 0, 90, 0
2, 37129, Note_on_c, 0, 86, 64
2, 37138, Note_on_c, 0, 86, 0
2, 37140, Note_on_c, 0, 91, 64
2, 37140, Note_on_c, 0, 82, 64
2, 37148, Note_on_c, 0, 91, 0
2, 37149, Note_on_c, 0, 86, 64
2, 37153, Note_on_c, 0, 82, 0
2, 37158, Note_on_c, 0, 86, 0
2, 37159, Note_on_c, 0, 91, 64
2, 37168, Note_on_c, 0, 91, 0
2, 37170, Note_on_c, 0, 86, 64
2, 37170, Note_on_c, 0, 82, 64
2, 37178, Note_on_c, 0, 86, 0
2, 37179, Note_on_c, 0, 91, 64
2, 37183, Note_on_c, 0, 82, 0
2, 37188, Note_on_c, 0, 91, 0
2, 37189, Note_on_c, 0, 86, 64
2, 37198, Note_on_c, 0, 86, 0
2, 37200, Note_on_c, 0, 91, 64
2, 37200, Note_on_c, 0, 83, 64
2, 37208, Note_on_c, 0, 91, 0
2, 37209, Note_on_c, 0, 86, 64
2, 37213, Note_on_c, 0, 83, 0
2, 37218, Note_on_c, 0, 86, 0
2, 37219, Note_on_c, 0, 91, 64
2, 37228, Note_on_c, 0, 91, 0
2, 37230, Note_on_c, 0, 89, 64
2, 37230, Note_on_c, 0, 79, 64
2, 37230, Note_on_c, 0, 83, 64
2, 37238, Note_on_c, 0, 89, 0
2, 37239, Note_on_c, 0, 91, 64
2, 37243, Note_on_c, 0, 83, 0
2, 37243, Note_on_c, 0, 79, 0
2, 37248, Note_on_c, 0, 91, 0
2, 37249, Note_on_c, 0, 86, 64
2, 37258, Note_on_c, 0, 86, 0
2, 37260, Note_on_c, 0, 89, 64
2, 37260, Note_on_c, 0, 84, 64
2, 37268, Note_on_c, 0, 89, 0
2, 37269, Note_on_c, 0, 86, 64
2, 37273, Note_on_c, 0, 84, 0
2, 37278, Note_on_c, 0, 86, 0
2, 37279, Note_on_c, 0, 88, 64
2, 37288, Note_on_c, 0, 88, 0
2, 37290, Note_on_c, 0, 91, 64
2, 37290, Note_on_c, 0, 84, 64
2, 37298, Note_on_c, 0, 91, 0
2, 37299, Note_on_c, 0, 89, 64
2, 37303, Note_on_c, 0, 84, 0
2, 37308, Note_on_c, 0, 89, 0
2, 37309, Note_on_c, 0, 88, 64
2, 37318, Note_on_c, 0, 88, 0
2, 37320, Note_on_c, 0, 89, 64
2, 37320, Note_on_c, 0, 72, 64
2, 37320, Note_on_c, 0, 76, 64
2, 37320, Note_on_c, 0, 79, 64
2, 37328, Note_on_c, 0, 89, 0
2, 37329, Note_on_c, 0, 88, 64
2, 37333, Note_on_c, 0, 72, 0
2, 37333, Note_on_c, 0, 79, 0
2, 37333, Note_on_c, 0, 76, 0
2, 37338, Note_on_c, 0, 88, 0
2, 37339, Note_on_c, 0, 86, 64
2, 37348, Note_on_c, 0, 86, 0
2, 37350, Note_on_c, 0, 89, 64
2, 37350, Note_on_c, 0, 72, 64
2, 37350, Note_on_c, 0, 76, 64
2, 37350, Note_on_c, 0, 79, 64
2, 37358, Note_on_c, 0, 89, 0
2, 37359, Note_on_c, 0, 88, 64
2, 37363, Note_on_c, 0, 72, 0
2, 37363, Note_on_c, 0, 79, 0
2, 37363, Note_on_c, 0, 76, 0
2, 37368, Note_on_c, 0, 88, 0
2, 37369, Note_on_c, 0, 84, 64
2, 37378, Note_on_c, 0, 84, 0
2, 37380, Note_on_c, 0, 91, 64
2, 37380, Note_on_c, 0, 72, 64
2, 37380, Note_on_c, 0, 76, 64
2, 37380, Note_on_c, 0, 79, 64
2, 37388, Note_on_c, 0, 91, 0
2, 37389, Note_on_c, 0, 89, 64
2, 37398, Note_on_c, 0, 89, 0
2, 37399, Note_on_c, 0, 88, 64
2, 37406, Note_on_c, 0, 79, 0
2, 37406, Note_on_c, 0, 72, 0
2, 37406, Note_on_c, 0, 76, 0
2, 37408, Note_on_c, 0, 88, 0
2, 37410, Note_on_c, 0, 89, 64
2, 37410, Note_on_c, 0, 72, 64
2, 37410, Note_on_c, 0, 76, 64
2, 37410, Note_on_c, 0, 79, 64
2, 37418, Note_on_c, 0, 89, 0
2, 37419, Note_on_c, 0, 88, 64
2, 37428, Note_on_c, 0, 88, 0
2, 37429, Note_on_c, 0, 86, 64
2, 37436, Note_on_c, 0, 79, 0
2, 37436, Note_on_c, 0, 72, 0
2, 37436, Note_on_c, 0, 76, 0
2, 37438, Note_on_c, 0, 86, 0
2, 37440, Note_on_c, 0, 89, 64
2, 37440, Note_on_c, 0, 72, 64
2, 37440, Note_on_c, 0, 76, 64
2, 37440, Note_on_c, 0, 79, 64
2, 37448, Note_on_c, 0, 89, 0
2, 37449, Note_on_c, 0, 88, 64
2, 37458, Note_on_c, 0, 88, 0
2, 37459, Note_on_c, 0, 84, 64
2, 37466, Note_on_c, 0, 79, 0
2, 37466, Note_on_c, 0, 72, 0
2, 37466, Note_on_c, 0, 76, 0
2, 37468, Note_on_c, 0, 84, 0
2, 37470, Note_on_c, 0, 89, 64
2, 37470, Note_on_c, 0, 72, 64
2, 37470, Note_on_c, 0, 74, 64
2, 37470, Note_on_c, 0, 77, 64
2, 37470, Note_on_c, 0, 79, 64
2, 37478, Note_on_c, 0, 89, 0
2, 37479, Note_on_c, 0, 88, 64
2, 37488, Note_on_c, 0, 88, 0
2, 37489, Note_on_c, 0, 86, 64
2, 37496, Note_on_c, 0, 79, 0
2, 37496, Note_on_c, 0, 77, 0
2, 37496, Note_on_c, 0, 72, 0
2, 37496, Note_on_c, 0, 74, 0
2, 37498, Note_on_c, 0, 86, 0
2, 37500, Note_on_c, 0, 88, 64
2, 37500, Note_on_c, 0, 72, 64
2, 37500, Note_on_c, 0, 74, 64
2, 37500, Note_on_c, 0, 77, 64
2, 37500, Note_on_c, 0, 79, 64
2, 37508, Note_on_c, 0, 88, 0
2, 37509, Note_on_c, 0, 86, 64
2, 37518, Note_on_c, 0, 86, 0
2, 37519, Note_on_c, 0, 83, 64
2, 37526, Note_on_c, 0, 79, 0
2, 37526, Note_on_c, 0, 77, 0
2, 37526, Note_on_c, 0, 72, 0
2, 37526, Note_on_c, 0, 74, 0
2, 37528, Note_on_c, 0, 83, 0
2, 37530, Note_on_c, 0, 86, 64
2, 37530, Note_on_c, 0, 72, 64
2, 37530, Note_on_c, 0, 74, 64
2, 37530, Note_on_c, 0, 77, 64
2, 37530, Note_on_c, 0, 79, 64
2, 37538, Note_on_c, 0, 86, 0
2, 37539, Note_on_c, 0, 84, 64
2, 37548, Note_on_c, 0, 84, 0
2, 37549, Note_on_c, 0, 83, 64
2, 37556, Note_on_c, 0, 79, 0
2, 37556, Note_on_c, 0, 77, 0
2, 37556, Note_on_c, 0, 72, 0
2, 37556, Note_on_c, 0, 74, 0
2, 37558, Note_on_c, 0, 83, 0
2, 37560, Note_on_c, 0, 89, 64
2, 37560, Note_on_c, 0, 72, 64
2, 37560, Note_on_c, 0, 74, 64
2, 37560, Note_on_c, 0, 77, 64
2, 37560, Note_on_c, 0, 79, 64
2, 37568, Note_on_c, 0, 89, 0
2, 37569, Note_on_c, 0, 88, 64
2, 37578, Note_on_c, 0, 88, 0
2, 37579, Note_on_c, 0, 86, 64
2, 37586, Note_on_c, 0, 79, 0
2, 37586, Note_on_c, 0, 77, 0
2, 37586, Note_on_c, 0, 72, 0
2, 37586, Note_on_c, 0, 74, 0
2, 37588, Note_on_c, 0, 86, 0
2, 37590, Note_on_c, 0, 88, 64
2, 37590, Note_on_c, 0, 72, 64
2, 37590, Note_on_c, 0, 74, 64
2, 37590, Note_on_c, 0, 77, 64
2, 37590, Note_on_c, 0, 79, 64
2, 37598, Note_on_c, 0, 88, 0
2, 37599, Note_on_c, 0, 86, 64
2, 37608, Note_on_c, 0, 86, 0
2, 37609, Note_on_c, 0, 83, 64
2, 37616, Note_on_c, 0, 79, 0
2, 37616, Note_on_c, 0, 77, 0
2, 37616, Note_on_c, 0, 72, 0
2, 37616, Note_on_c, 0, 74, 0
2, 37618, Note_on_c, 0, 83, 0
2, 37620, Note_on_c, 0, 86, 64
2, 37620, Note_on_c, 0, 72, 64
2, 37620, Note_on_c, 0, 74, 64
2, 37620, Note_on_c, 0, 77, 64
2, 37620, Note_on_c, 0, 79, 64
2, 37628, Note_on_c, 0, 86, 0
2, 37629, Note_on_c, 0, 84, 64
2, 37638, Note_on_c, 0, 84, 0
2, 37639, Note_on_c, 0, 83, 64
2, 37646, Note_on_c, 0, 79, 0
2, 37646, Note_on_c, 0, 77, 0
2, 37646, Note_on_c, 0, 72, 0
2, 37646, Note_on_c, 0, 74, 0
2, 37648, Note_on_c, 0, 83, 0
2, 37650, Note_on_c, 0, 89, 64
2, 37650, Note_on_c, 0, 72, 64
2, 37650, Note_on_c, 0, 74, 64
2, 37650, Note_on_c, 0, 77, 64
2, 37650, Note_on_c, 0, 79, 64
2, 37658, Note_on_c, 0, 89, 0
2, 37659, Note_on_c, 0, 88, 64
2, 37668, Note_on_c, 0, 88, 0
2, 37669, Note_on_c, 0, 86, 64
2, 37676, Note_on_c, 0, 79, 0
2, 37676, Note_on_c, 0, 77, 0
2, 37676, Note_on_c, 0, 72, 0
2, 37676, Note_on_c, 0, 74, 0
2, 37678, Note_on_c, 0, 86, 0
2, 37680, Note_on_c, 0, 88, 64
2, 37680, Note_on_c, 0, 72, 64
2, 37680, Note_on_c, 0, 74, 64
2, 37680, Note_on_c, 0, 77, 64
2, 37680, Note_on_c, 0, 79, 64
2, 37688, Note_on_c, 0, 88, 0
2, 37689, Note_on_c, 0, 86, 64
2, 37698, Note_on_c, 0, 86, 0
2, 37699, Note_on_c, 0, 83, 64
2, 37706, Note_on_c, 0, 79, 0
2, 37706, Note_on_c, 0, 77, 0
2, 37706, Note_on_c, 0, 72, 0
2, 37706, Note_on_c, 0, 74, 0
2, 37708, Note_on_c, 0, 83, 0
2, 37710, Note_on_c, 0, 86, 64
2, 37710, Note_on_c, 0, 72, 64
2, 37710, Note_on_c, 0, 74, 64
2, 37710, Note_on_c, 0, 77, 64
2, 37710, Note_on_c, 0, 79, 64
2, 37718, Note_on_c, 0, 86, 0
2, 37719, Note_on_c, 0, 84, 64
2, 37728, Note_on_c, 0, 84, 0
2, 37729, Note_on_c, 0, 83, 64
2, 37736, Note_on_c, 0, 79, 0
2, 37736, Note_on_c, 0, 77, 0
2, 37736, Note_on_c, 0, 72, 0
2, 37736, Note_on_c, 0, 74, 0
2, 37738, Note_on_c, 0, 83, 0
2, 37740, Note_on_c, 0, 91, 64
2, 37740, Note_on_c, 0, 72, 64
2, 37740, Note_on_c, 0, 76, 64
2, 37740, Note_on_c, 0, 79, 64
2, 37748, Note_on_c, 0, 91, 0
2, 37749, Note_on_c, 0, 89, 64
2, 37758, Note_on_c, 0, 89, 0
2, 37759, Note_on_c, 0, 88, 64
2, 37766, Note_on_c, 0, 79, 0
2, 37766, Note_on_c, 0, 72, 0
2, 37766, Note_on_c, 0, 76, 0
2, 37768, Note_on_c, 0, 88, 0
2, 37770, Note_on_c, 0, 89, 64
2, 37770, Note_on_c, 0, 72, 64
2, 37770, Note_on_c, 0, 76, 64
2, 37770, Note_on_c, 0, 79, 64
2, 37778, Note_on_c, 0, 89, 0
2, 37779, Note_on_c, 0, 88, 64
2, 37788, Note_on_c, 0, 88, 0
2, 37789, Note_on_c, 0, 86, 64
2, 37796, Note_on_c, 0, 79, 0
2, 37796, Note_on_c, 0, 72, 0
2, 37796, Note_on_c, 0, 76, 0
2, 37798, Note_on_c, 0, 86, 0
2, 37800, Note_on_c, 0, 89, 64
2, 37800, Note_on_c, 0, 72, 64
2, 37800, Note_on_c, 0, 76, 64
2, 37800, Note_on_c, 0, 79, 64
2, 37808, Note_on_c, 0, 89, 0
2, 37809, Note_on_c, 0, 88, 64
2, 37818, Note_on_c, 0, 88, 0
2, 37819, Note_on_c, 0, 84, 64
2, 37826, Note_on_c, 0, 79, 0
2, 37826, Note_on_c, 0, 72, 0
2, 37826, Note_on_c, 0, 76, 0
2, 37828, Note_on_c, 0, 84, 0
2, 37830, Note_on_c, 0, 79, 64
2, 37838, Note_on_c, 0, 79, 0
2, 37839, Note_on_c, 0, 77, 64
2, 37848, Note_on_c, 0, 77, 0
2, 37849, Note_on_c, 0, 76, 64
2, 37858, Note_on_c, 0, 76, 0
2, 37860, Note_on_c, 0, 77, 64
2, 37868, Note_on_c, 0, 77, 0
2, 37869, Note_on_c, 0, 76, 64
2, 37878, Note_on_c, 0, 76, 0
2, 37879, Note_on_c, 0, 74, 64
2, 37888, Note_on_c, 0, 74, 0
2, 37890, Note_on_c, 0, 77, 64
2, 37898, Note_on_c, 0, 77, 0
2, 37899, Note_on_c, 0, 76, 64
2, 37908, Note_on_c, 0, 76, 0
2, 37909, Note_on_c, 0, 72, 64
2, 37918, Note_on_c, 0, 72, 0
2, 37920, Note_on_c, 0, 79, 64
2, 37920, Note_on_c, 0, 72, 64
2, 37928, Note_on_c, 0, 79, 0
2, 37929, Note_on_c, 0, 77, 64
2, 37938, Note_on_c, 0, 77, 0
2, 37939, Note_on_c, 0, 76, 64
2, 37946, Note_on_c, 0, 72, 0
2, 37948, Note_on_c, 0, 76, 0
2, 37950, Note_on_c, 0, 77, 64
2, 37950, Note_on_c, 0, 60, 64
2, 37950, Note_on_c, 0, 64, 64
2, 37950, Note_on_c, 0, 67, 64
2, 37958, Note_on_c, 0, 77, 0
2, 37959, Note_on_c, 0, 76, 64
2, 37968, Note_on_c, 0, 76, 0
2, 37969, Note_on_c, 0, 74, 64
2, 37976, Note_on_c, 0, 67, 0
2, 37976, Note_on_c, 0, 60, 0
2, 37976, Note_on_c, 0, 64, 0
2, 37978, Note_on_c, 0, 74, 0
2, 37980, Note_on_c, 0, 77, 64
2, 37980, Note_on_c, 0, 60, 64
2, 37980, Note_on_c, 0, 64, 64
2, 37980, Note_on_c, 0, 67, 64
2, 37988, Note_on_c, 0, 77, 0
2, 37989, Note_on_c, 0, 76, 64
2, 37998, Note_on_c, 0, 76, 0
2, 37999, Note_on_c, 0, 72, 64
2, 38006, Note_on_c, 0, 67, 0
2, 38006, Note_on_c, 0, 60, 0
2, 38006, Note_on_c, 0, 64, 0
2, 38008, Note_on_c, 0, 72, 0
2, 38010, Note_on_c, 0, 77, 64
2, 38010, Note_on_c, 0, 60, 64
2, 38010, Note_on_c, 0, 62, 64
2, 38010, Note_on_c, 0, 65, 64
2, 38010, Note_on_c, 0, 67, 64
2, 38018, Note_on_c, 0, 77, 0
2, 38019, Note_on_c, 0, 76, 64
2, 38028, Note_on_c, 0, 76, 0
2, 38029, Note_on_c, 0, 74, 64
2, 38036, Note_on_c, 0, 67, 0
2, 38036, Note_on_c, 0, 65, 0
2, 38036, Note_on_c, 0, 60, 0
2, 38036, Note_on_c, 0, 62, 0
2, 38038, Note_on_c, 0, 74, 0
2, 38040, Note_on_c, 0, 76, 64
2, 38040, Note_on_c, 0, 60, 64
2, 38040, Note_on_c, 0, 62, 64
2, 38040, Note_on_c, 0, 65, 64
2, 38040, Note_on_c, 0, 67, 64
2, 38048, Note_on_c, 0, 76, 0
2, 38049, Note_on_c, 0, 74, 64
2, 38058, Note_on_c, 0, 74, 0
2, 38059, Note_on_c, 0, 71, 64
2, 38066, Note_on_c, 0, 67, 0
2, 38066, Note_on_c, 0, 65, 0
2, 38066, Note_on_c, 0, 60, 0
2, 38066, Note_on_c, 0, 62, 0
2, 38068, Note_on_c, 0, 71, 0
2, 38070, Note_on_c, 0, 74, 64
2, 38070, Note_on_c, 0, 60, 64
2, 38070, Note_on_c, 0, 62, 64
2, 38070, Note_on_c, 0, 65, 64
2, 38070, Note_on_c, 0, 67, 64
2, 38078, Note_on_c, 0, 74, 0
2, 38079, Note_on_c, 0, 72, 64
2, 38088, Note_on_c, 0, 72, 0
2, 38089, Note_on_c, 0, 71, 64
2, 38096, Note_on_c, 0, 67, 0
2, 38096, Note_on_c, 0, 65, 0
2, 38096, Note_on_c, 0, 60, 0
2, 38096, Note_on_c, 0, 62, 0
2, 38098, Note_on_c, 0, 71, 0
2, 38100, Note_on_c, 0, 77, 64
2, 38100, Note_on_c, 0, 60, 64
2, 38100, Note_on_c, 0, 62, 64
2, 38100, Note_on_c, 0, 65, 64
2, 38100, Note_on_c, 0, 67, 64
2, 38108, Note_on_c, 0, 77, 0
2, 38109, Note_on_c, 0, 76, 64
2, 38118, Note_on_c, 0, 76, 0
2, 38119, Note_on_c, 0, 74, 64
2, 38126, Note_on_c, 0, 67, 0
2, 38126, Note_on_c, 0, 65, 0
2, 38126, Note_on_c, 0, 60, 0
2, 38126, Note_on_c, 0, 62, 0
2, 38128, Note_on_c, 0, 74, 0
2, 38130, Note_on_c, 0, 76, 64
2, 38130, Note_on_c, 0, 60, 64
2, 38130, Note_on_c, 0, 62, 64
2, 38130, Note_on_c, 0, 65, 64
2, 38130, Note_on_c, 0, 67, 64
2, 38138, Note_on_c, 0, 76, 0
2, 38139, Note_on_c, 0, 74, 64
2, 38148, Note_on_c, 0, 74, 0
2, 38149, Note_on_c, 0, 71, 64
2, 38156, Note_on_c, 0, 67, 0
2, 38156, Note_on_c, 0, 65, 0
2, 38156, Note_on_c, 0, 60, 0
2, 38156, Note_on_c, 0, 62, 0
2, 38158, Note_on_c, 0, 71, 0
2, 38160, Note_on_c, 0, 74, 64
2, 38160, Note_on_c, 0, 60, 64
2, 38160, Note_on_c, 0, 62, 64
2, 38160, Note_on_c, 0, 65, 64
2, 38160, Note_on_c, 0, 67, 64
2, 38168, Note_on_c, 0, 74, 0
2, 38169, Note_on_c, 0, 72, 64
2, 38178, Note_on_c, 0, 72, 0
2, 38179, Note_on_c, 0, 71, 64
2, 38186, Note_on_c, 0, 67, 0
2, 38186, Note_on_c, 0, 65, 0
2, 38186, Note_on_c, 0, 60, 0
2, 38186, Note_on_c, 0, 62, 0
2, 38188, Note_on_c, 0, 71, 0
2, 38190, Note_on_c, 0, 77, 64
2, 38190, Note_on_c, 0, 60, 64
2, 38190, Note_on_c, 0, 62, 64
2, 38190, Note_on_c, 0, 65, 64
2, 38190, Note_on_c, 0, 67, 64
2, 38198, Note_on_c, 0, 77, 0
2, 38199, Note_on_c, 0, 76, 64
2, 38208, Note_on_c, 0, 76, 0
2, 38209, Note_on_c, 0, 74, 64
2, 38216, Note_on_c, 0, 67, 0
2, 38216, Note_on_c, 0, 65, 0
2, 38216, Note_on_c, 0, 60, 0
2, 38216, Note_on_c, 0, 62, 0
2, 38218, Note_on_c, 0, 74, 0
2, 38220, Note_on_c, 0, 76, 64
2, 38220, Note_on_c, 0, 60, 64
2, 38220, Note_on_c, 0, 62, 64
2, 38220, Note_on_c, 0, 65, 64
2, 38220, Note_on_c, 0, 67, 64
2, 38228, Note_on_c, 0, 76, 0
2, 38229, Note_on_c, 0, 74, 64
2, 38238, Note_on_c, 0, 74, 0
2, 38239, Note_on_c, 0, 71, 64
2, 38246, Note_on_c, 0, 67, 0
2, 38246, Note_on_c, 0, 65, 0
2, 38246, Note_on_c, 0, 60, 0
2, 38246, Note_on_c, 0, 62, 0
2, 38248, Note_on_c, 0, 71, 0
2, 38250, Note_on_c, 0, 74, 64
2, 38250, Note_on_c, 0, 60, 64
2, 38250, Note_on_c, 0, 62, 64
2, 38250, Note_on_c, 0, 65, 64
2, 38250, Note_on_c, 0, 67, 64
2, 38258, Note_on_c, 0, 74, 0
2, 38259, Note_on_c, 0, 72, 64
2, 38268, Note_on_c, 0, 72, 0
2, 38269, Note_on_c, 0, 71, 64
2, 38276, Note_on_c, 0, 67, 0
2, 38276, Note_on_c, 0, 65, 0
2, 38276, Note_on_c, 0, 60, 0
2, 38276, Note_on_c, 0, 62, 0
2, 38278, Note_on_c, 0, 71, 0
2, 38280, Note_on_c, 0, 48, 64
2, 38288, Note_on_c, 0, 48, 0
2, 38289, Note_on_c, 0, 60, 64
2, 38298, Note_on_c, 0, 60, 0
2, 38299, Note_on_c, 0, 64, 64
2, 38308, Note_on_c, 0, 64, 0
2, 38310, Note_on_c, 0, 52, 64
2, 38318, Note_on_c, 0, 52, 0
2, 38319, Note_on_c, 0, 60, 64
2, 38328, Note_on_c, 0, 60, 0
2, 38329, Note_on_c, 0, 64, 64
2, 38338, Note_on_c, 0, 64, 0
2, 38340, Note_on_c, 0, 55, 64
2, 38348, Note_on_c, 0, 55, 0
2, 38349, Note_on_c, 0, 60, 64
2, 38358, Note_on_c, 0, 60, 0
2, 38359, Note_on_c, 0, 64, 64
2, 38368, Note_on_c, 0, 64, 0
2, 38370, Note_on_c, 0, 72, 64
2, 38370, Note_on_c, 0, 76, 64
2, 38370, Note_on_c, 0, 59, 64
2, 38378, Note_on_c, 0, 59, 0
2, 38379, Note_on_c, 0, 60, 64
2, 38388, Note_on_c, 0, 60, 0
2, 38389, Note_on_c, 0, 64, 64
2, 38398, Note_on_c, 0, 64, 0
2, 38400, Note_on_c, 0, 55, 64
2, 38408, Note_on_c, 0, 55, 0
2, 38409, Note_on_c, 0, 60, 64
2, 38418, Note_on_c, 0, 60, 0
2, 38419, Note_on_c, 0, 64, 64
2, 38428, Note_on_c, 0, 64, 0
2, 38430, Note_on_c, 0, 53, 64
2, 38438, Note_on_c, 0, 53, 0
2, 38439, Note_on_c, 0, 60, 64
2, 38448, Note_on_c, 0, 60, 0
2, 38448, Note_on_c, 0, 76, 0
2, 38448, Note_on_c, 0, 72, 0
2, 38449, Note_on_c, 0, 64, 64
2, 38458, Note_on_c, 0, 64, 0
2, 38460, Note_on_c, 0, 72, 64
2, 38460, Note_on_c, 0, 76, 64
2, 38460, Note_on_c, 0, 52, 64
2, 38468, Note_on_c, 0, 52, 0
2, 38469, Note_on_c, 0, 60, 64
2, 38478, Note_on_c, 0, 60, 0
2, 38479, Note_on_c, 0, 64, 64
2, 38488, Note_on_c, 0, 64, 0
2, 38490, Note_on_c, 0, 50, 64
2, 38498, Note_on_c, 0, 50, 0
2, 38499, Note_on_c, 0, 60, 64
2, 38508, Note_on_c, 0, 60, 0
2, 38509, Note_on_c, 0, 64, 64
2, 38518, Note_on_c, 0, 64, 0
2, 38520, Note_on_c, 0, 48, 64
2, 38528, Note_on_c, 0, 48, 0
2, 38529, Note_on_c, 0, 60, 64
2, 38538, Note_on_c, 0, 60, 0
2, 38539, Note_on_c, 0, 64, 64
2, 38548, Note_on_c, 0, 64, 0
2, 38550, Note_on_c, 0, 45, 64
2, 38558, Note_on_c, 0, 45, 0
2, 38559, Note_on_c, 0, 60, 64
2, 38568, Note_on_c, 0, 60, 0
2, 38569, Note_on_c, 0, 64, 64
2, 38578, Note_on_c, 0, 64, 0
2, 38580, Note_on_c, 0, 48, 64
2, 38588, Note_on_c, 0, 48, 0
2, 38589, Note_on_c, 0, 57, 64
2, 38598, Note_on_c, 0, 57, 0
2, 38599, Note_on_c, 0, 60, 64
2, 38608, Note_on_c, 0, 60, 0
2, 38610, Note_on_c, 0, 52, 64
2, 38618, Note_on_c, 0, 52, 0
2, 38619, Note_on_c, 0, 57, 64
2, 38628, Note_on_c, 0, 57, 0
2, 38628, Note_on_c, 0, 76, 0
2, 38628, Note_on_c, 0, 72, 0
2, 38629, Note_on_c, 0, 60, 64
2, 38638, Note_on_c, 0, 60, 0
2, 38640, Note_on_c, 0, 76, 64
2, 38640, Note_on_c, 0, 84, 64
2, 38640, Note_on_c, 0, 88, 64
2, 38640, Note_on_c, 0, 56, 64
2, 38648, Note_on_c, 0, 56, 0
2, 38649, Note_on_c, 0, 57, 64
2, 38658, Note_on_c, 0, 57, 0
2, 38659, Note_on_c, 0, 60, 64
2, 38668, Note_on_c, 0, 60, 0
2, 38670, Note_on_c, 0, 52, 64
2, 38678, Note_on_c, 0, 52, 0
2, 38679, Note_on_c, 0, 57, 64
2, 38688, Note_on_c, 0, 57, 0
2, 38689, Note_on_c, 0, 60, 64
2, 38698, Note_on_c, 0, 60, 0
2, 38700, Note_on_c, 0, 50, 64
2, 38708, Note_on_c, 0, 50, 0
2, 38709, Note_on_c, 0, 57, 64
2, 38718, Note_on_c, 0, 57, 0
2, 38718, Note_on_c, 0, 88, 0
2, 38718, Note_on_c, 0, 84, 0
2, 38718, Note_on_c, 0, 76, 0
2, 38719, Note_on_c, 0, 60, 64
2, 38728, Note_on_c, 0, 60, 0
2, 38730, Note_on_c, 0, 76, 64
2, 38730, Note_on_c, 0, 84, 64
2, 38730, Note_on_c, 0, 88, 64
2, 38730, Note_on_c, 0, 48, 64
2, 38738, Note_on_c, 0, 48, 0
2, 38739, Note_on_c, 0, 57, 64
2, 38748, Note_on_c, 0, 57, 0
2, 38749, Note_on_c, 0, 60, 64
2, 38758, Note_on_c, 0, 60, 0
2, 38760, Note_on_c, 0, 47, 64
2, 38768, Note_on_c, 0, 47, 0
2, 38769, Note_on_c, 0, 57, 64
2, 38778, Note_on_c, 0, 57, 0
2, 38779, Note_on_c, 0, 60, 64
2, 38788, Note_on_c, 0, 60, 0
2, 38790, Note_on_c, 0, 45, 64
2, 38798, Note_on_c, 0, 45, 0
2, 38799, Note_on_c, 0, 57, 64
2, 38808, Note_on_c, 0, 57, 0
2, 38808, Note_on_c, 0, 88, 0
2, 38808, Note_on_c, 0, 84, 0
2, 38808, Note_on_c, 0, 76, 0
2, 38809, Note_on_c, 0, 60, 64
2, 38818, Note_on_c, 0, 60, 0
2, 38820, Note_on_c, 0, 76, 64
2, 38820, Note_on_c, 0, 84, 64
2, 38820, Note_on_c, 0, 88, 64
2, 38820, Note_on_c, 0, 45, 64
2, 38828, Note_on_c, 0, 45, 0
2, 38829, Note_on_c, 0, 60, 64
2, 38838, Note_on_c, 0, 60, 0
2, 38839, Note_on_c, 0, 64, 64
2, 38848, Note_on_c, 0, 64, 0
2, 38850, Note_on_c, 0, 48, 64
2, 38858, Note_on_c, 0, 48, 0
2, 38859, Note_on_c, 0, 57, 64
2, 38868, Note_on_c, 0, 57, 0
2, 38869, Note_on_c, 0, 60, 64
2, 38878, Note_on_c, 0, 60, 0
2, 38880, Note_on_c, 0, 52, 64
2, 38888, Note_on_c, 0, 52, 0
2, 38889, Note_on_c, 0, 57, 64
2, 38898, Note_on_c, 0, 57, 0
2, 38898, Note_on_c, 0, 88, 0
2, 38898, Note_on_c, 0, 84, 0
2, 38898, Note_on_c, 0, 76, 0
2, 38899, Note_on_c, 0, 60, 64
2, 38908, Note_on_c, 0, 60, 0
2, 38910, Note_on_c, 0, 77, 64
2, 38910, Note_on_c, 0, 86, 64
2, 38910, Note_on_c, 0, 89, 64
2, 38910, Note_on_c, 0, 56, 64
2, 38918, Note_on_c, 0, 56, 0
2, 38919, Note_on_c, 0, 57, 64
2, 38928, Note_on_c, 0, 57, 0
2, 38929, Note_on_c, 0, 60, 64
2, 38938, Note_on_c, 0, 60, 0
2, 38940, Note_on_c, 0, 52, 64
2, 38948, Note_on_c, 0, 52, 0
2, 38949, Note_on_c, 0, 57, 64
2, 38958, Note_on_c, 0, 57, 0
2, 38959, Note_on_c, 0, 60, 64
2, 38968, Note_on_c, 0, 60, 0
2, 38970, Note_on_c, 0, 50, 64
2, 38978, Note_on_c, 0, 50, 0
2, 38979, Note_on_c, 0, 57, 64
2, 38988, Note_on_c, 0, 57, 0
2, 38988, Note_on_c, 0, 89, 0
2, 38988, Note_on_c, 0, 86, 0
2, 38988, Note_on_c, 0, 77, 0
2, 38989, Note_on_c, 0, 60, 64
2, 38998, Note_on_c, 0, 60, 0
2, 39000, Note_on_c, 0, 74, 64
2, 39000, Note_on_c, 0, 83, 64
2, 39000, Note_on_c, 0, 86, 64
2, 39000, Note_on_c, 0, 48, 64
2, 39008, Note_on_c, 0, 48, 0
2, 39009, Note_on_c, 0, 57, 64
2, 39018, Note_on_c, 0, 57, 0
2, 39019, Note_on_c, 0, 60, 64
2, 39028, Note_on_c, 0, 60, 0
2, 39030, Note_on_c, 0, 47, 64
2, 39038, Note_on_c, 0, 47, 0
2, 39039, Note_on_c, 0, 57, 64
2, 39048, Note_on_c, 0, 57, 0
2, 39049, Note_on_c, 0, 60, 64
2, 39052, Note_on_c, 0, 74, 0
2, 39052, Note_on_c, 0, 86, 0
2, 39052, Note_on_c, 0, 83, 0
2, 39058, Note_on_c, 0, 60, 0
2, 39060, Note_on_c, 0, 31, 64
2, 39060, Note_on_c, 0, 45, 64
2, 39060, Control_c, 0, 64, 100
2, 39068, Note_on_c, 0, 45, 0
2, 39068, Note_on_c, 0, 31, 0
2, 39069, Note_on_c, 0, 33, 64
2, 39069, Note_on_c, 0, 57, 64
2, 39078, Note_on_c, 0, 57, 0
2, 39078, Note_on_c, 0, 33, 0
2, 39079, Note_on_c, 0, 35, 64
2, 39079, Note_on_c, 0, 60, 64
2, 39088, Note_on_c, 0, 60, 0
2, 39088, Note_on_c, 0, 35, 0
2, 39090, Note_on_c, 0, 36, 64
2, 39098, Note_on_c, 0, 36, 0
2, 39099, Note_on_c, 0, 40, 64
2, 39108, Note_on_c, 0, 40, 0
2, 39109, Note_on_c, 0, 43, 64
2, 39118, Note_on_c, 0, 43, 0
2, 39120, Note_on_c, 0, 48, 64
2, 39128, Note_on_c, 0, 48, 0
2, 39129, Note_on_c, 0, 52, 64
2, 39138, Note_on_c, 0, 52, 0
2, 39139, Note_on_c, 0, 55, 64
2, 39148, Note_on_c, 0, 55, 0
2, 39150, Note_on_c, 0, 60, 64
2, 39158, Note_on_c, 0, 60, 0
2, 39159, Note_on_c, 0, 64, 64
2, 39168, Note_on_c, 0, 64, 0
2, 39169, Note_on_c, 0, 67, 64
2, 39178, Note_on_c, 0, 67, 0
2, 39180, Note_on_c, 0, 72, 64
2, 39188, Note_on_c, 0, 72, 0
2, 39189, Note_on_c, 0, 76, 64
2, 39198, Note_on_c, 0, 76, 0
2, 39199, Note_on_c, 0, 79, 64
2, 39208, Note_on_c, 0, 79, 0
2, 39210, Note_on_c, 0, 76, 64
2, 39218, Note_on_c, 0, 76, 0
2, 39219, Note_on_c, 0, 79, 64
2, 39228, Note_on_c, 0, 79, 0
2, 39229, Note_on_c, 0, 84, 64
2, 39238, Note_on_c, 0, 84, 0
2, 39240, Note_on_c, 0, 88, 64
2, 39278, Note_on_c, 0, 88, 0
2, 39279, Note_on_c, 0, 83, 64
2, 39286, Control_c, 0, 64, 0
2, 39288, Note_on_c, 0, 83, 0
2, 39289, Note_on_c, 0, 84, 64
2, 39298, Note_on_c, 0, 84, 0
2, 39300, Note_on_c, 0, 86, 64
2, 39308, Note_on_c, 0, 86, 0
2, 39309, Note_on_c, 0, 83, 64
2, 39318, Note_on_c, 0, 83, 0
2, 39319, Note_on_c, 0, 84, 64
2, 39328, Note_on_c, 0, 84, 0
2, 39330, Note_on_c, 0, 88, 64
2, 39338, Note_on_c, 0, 88, 0
2, 39339, Note_on_c, 0, 83, 64
2, 39346, Control_c, 0, 64, 100
2, 39348, Note_on_c, 0, 83, 0
2, 39349, Note_on_c, 0, 84, 64
2, 39358, Note_on_c, 0, 84, 0
2, 39360, Note_on_c, 0, 33, 64
2, 39368, Note_on_c, 0, 33, 0
2, 39369, Note_on_c, 0, 36, 64
2, 39378, Note_on_c, 0, 36, 0
2, 39379, Note_on_c, 0, 40, 64
2, 39388, Note_on_c, 0, 40, 0
2, 39390, Note_on_c, 0, 45, 64
2, 39398, Note_on_c, 0, 45, 0
2, 39399, Note_on_c, 0, 48, 64
2, 39408, Note_on_c, 0, 48, 0
2, 39409, Note_on_c, 0, 52, 64
2, 39418, Note_on_c, 0, 52, 0
2, 39420, Note_on_c, 0, 57, 64
2, 39428, Note_on_c, 0, 57, 0
2, 39429, Note_on_c, 0, 60, 64
2, 39438, Note_on_c, 0, 60, 0
2, 39439, Note_on_c, 0, 64, 64
2, 39448, Note_on_c, 0, 64, 0
2, 39450, Note_on_c, 0, 69, 64
2, 39458, Note_on_c, 0, 69, 0
2, 39459, Note_on_c, 0, 72, 64
2, 39468, Note_on_c, 0, 72, 0
2, 39469, Note_on_c, 0, 76, 64
2, 39478, Note_on_c, 0, 76, 0
2, 39480, Note_on_c, 0, 72, 64
2, 39488, Note_on_c, 0, 72, 0
2, 39489, Note_on_c, 0, 76, 64
2, 39498, Note_on_c, 0, 76, 0
2, 39499, Note_on_c, 0, 81, 64
2, 39508, Note_on_c, 0, 81, 0
2, 39510, Note_on_c, 0, 76, 64
2, 39516, Note_on_c, 0, 76, 0
2, 39517, Note_on_c, 0, 81, 64
2, 39524, Note_on_c, 0, 81, 0
2, 39525, Note_on_c, 0, 84, 64
2, 39530, Control_c, 0, 64, 0
2, 39531, Note_on_c, 0, 84, 0
2, 39532, Note_on_c, 0, 88, 64
2, 39548, Note_on_c, 0, 88, 0
2, 39549, Note_on_c, 0, 83, 64
2, 39558, Note_on_c, 0, 83, 0
2, 39559, Note_on_c, 0, 84, 64
2, 39568, Note_on_c, 0, 84, 0
2, 39570, Note_on_c, 0, 76, 64
2, 39578, Note_on_c, 0, 76, 0
2, 39579, Note_on_c, 0, 83, 64
2, 39588, Note_on_c, 0, 83, 0
2, 39589, Note_on_c, 0, 84, 64
2, 39598, Note_on_c, 0, 84, 0
2, 39600, Note_on_c, 0, 88, 64
2, 39608, Note_on_c, 0, 88, 0
2, 39609, Note_on_c, 0, 83, 64
2, 39618, Note_on_c, 0, 83, 0
2, 39619, Note_on_c, 0, 84, 64
2, 39626, Control_c, 0, 64, 100
2, 39628, Note_on_c, 0, 84, 0
2, 39630, Note_on_c, 0, 31, 64
2, 39638, Note_on_c, 0, 31, 0
2, 39639, Note_on_c, 0, 36, 64
2, 39648, Note_on_c, 0, 36, 0
2, 39649, Note_on_c, 0, 40, 64
2, 39658, Note_on_c, 0, 40, 0
2, 39660, Note_on_c, 0, 88, 64
2, 39660, Note_on_c, 0, 43, 64
2, 39668, Note_on_c, 0, 43, 0
2, 39668, Note_on_c, 0, 88, 0
2, 39669, Note_on_c, 0, 84, 64
2, 39669, Note_on_c, 0, 48, 64
2, 39678, Note_on_c, 0, 48, 0
2, 39678, Note_on_c, 0, 84, 0
2, 39679, Note_on_c, 0, 76, 64
2, 39679, Note_on_c, 0, 52, 64
2, 39688, Note_on_c, 0, 52, 0
2, 39688, Note_on_c, 0, 76, 0
2, 39690, Note_on_c, 0, 88, 64
2, 39690, Note_on_c, 0, 55, 64
2, 39698, Note_on_c, 0, 88, 0
2, 39699, Note_on_c, 0, 85, 64
2, 39706, Control_c, 0, 64, 0
2, 39708, Note_on_c, 0, 85, 0
2, 39709, Note_on_c, 0, 76, 64
2, 39716, Note_on_c, 0, 55, 0
2, 39718, Note_on_c, 0, 76, 0
2, 39720, Note_on_c, 0, 31, 64
2, 39720, Control_c, 0, 64, 98
2, 39728, Note_on_c, 0, 31, 0
2, 39729, Note_on_c, 0, 36, 64
2, 39738, Note_on_c, 0, 36, 0
2, 39739, Note_on_c, 0, 40, 64
2, 39748, Note_on_c, 0, 40, 0
2, 39750, Note_on_c, 0, 89, 64
2, 39750, Note_on_c, 0, 43, 64
2, 39758, Note_on_c, 0, 43, 0
2, 39758, Note_on_c, 0, 89, 0
2, 39759, Note_on_c, 0, 86, 64
2, 39759, Note_on_c, 0, 48, 64
2, 39768, Note_on_c, 0, 48, 0
2, 39768, Note_on_c, 0, 86, 0
2, 39769, Note_on_c, 0, 77, 64
2, 39769, Note_on_c, 0, 52, 64
2, 39778, Note_on_c, 0, 52, 0
2, 39778, Note_on_c, 0, 77, 0
2, 39780, Note_on_c, 0, 89, 64
2, 39780, Note_on_c, 0, 55, 64
2, 39788, Note_on_c, 0, 89, 0
2, 39789, Note_on_c, 0, 86, 64
2, 39796, Control_c, 0, 64, 0
2, 39798, Note_on_c, 0, 86, 0
2, 39799, Note_on_c, 0, 77, 64
2, 39806, Note_on_c, 0, 55, 0
2, 39808, Note_on_c, 0, 77, 0
2, 39810, Note_on_c, 0, 88, 64
2, 39818, Note_on_c, 0, 88, 0
2, 39819, Note_on_c, 0, 85, 64
2, 39828, Note_on_c, 0, 85, 0
2, 39829, Note_on_c, 0, 76, 64
2, 39838, Note_on_c, 0, 76, 0
2, 39840, Note_on_c, 0, 89, 64
2, 39848, Note_on_c, 0, 89, 0
2, 39849, Note_on_c, 0, 86, 64
2, 39858, Note_on_c, 0, 86, 0
2, 39859, Note_on_c, 0, 77, 64
2, 39868, Note_on_c, 0, 77, 0
2, 39870, Note_on_c, 0, 86, 64
2, 39878, Note_on_c, 0, 86, 0
2, 39879, Note_on_c, 0, 83, 64
2, 39888, Note_on_c, 0, 83, 0
2, 39889, Note_on_c, 0, 74, 64
2, 39898, Note_on_c, 0, 74, 0
2, 39900, Note_on_c, 0, 73, 64
2, 39903, Note_on_c, 0, 73, 0
2, 39903, Note_on_c, 0, 76, 64
2, 39907, Note_on_c, 0, 76, 0
2, 39907, Note_on_c, 0, 74, 64
2, 39914, Note_on_c, 0, 74, 0
2, 39915, Note_on_c, 0, 76, 64
2, 39921, Note_on_c, 0, 76, 0
2, 39922, Note_on_c, 0, 74, 64
2, 39929, Note_on_c, 0, 74, 0
2, 39930, Note_on_c, 0, 76, 64
2, 39936, Note_on_c, 0, 76, 0
2, 39937, Note_on_c, 0, 74, 64
2, 39944, Note_on_c, 0, 74, 0
2, 39945, Note_on_c, 0, 76, 64
2, 39951, Note_on_c, 0, 76, 0
2, 39952, Note_on_c, 0, 74, 64
2, 39959, Note_on_c, 0, 74, 0
2, 39960, Note_on_c, 0, 76, 64
2, 39966, Note_on_c, 0, 76, 0
2, 39967, Note_on_c, 0, 74, 64
2, 39974, Note_on_c, 0, 74, 0
2, 39975, Note_on_c, 0, 76, 64
2, 39981, Note_on_c, 0, 76, 0
2, 39982, Note_on_c, 0, 74, 64
2, 39989, Note_on_c, 0, 74, 0
2, 39990, Note_on_c, 0, 76, 64
2, 39996, Note_on_c, 0, 76, 0
2, 39997, Note_on_c, 0, 74, 64
2, 40004, Note_on_c, 0, 74, 0
2, 40005, Note_on_c, 0, 76, 64
2, 40011, Note_on_c, 0, 76, 0
2, 40012, Note_on_c, 0, 74, 64
2, 40019, Note_on_c, 0, 74, 0
2, 40020, Note_on_c, 0, 76, 64
2, 40026, Note_on_c, 0, 76, 0
2, 40027, Note_on_c, 0, 74, 64
2, 40034, Note_on_c, 0, 74, 0
2, 40035, Note_on_c, 0, 76, 64
2, 40041, Note_on_c, 0, 76, 0
2, 40042, Note_on_c, 0, 74, 64
2, 40049, Note_on_c, 0, 74, 0
2, 40050, Note_on_c, 0, 76, 64
2, 40056, Note_on_c, 0, 76, 0
2, 40057, Note_on_c, 0, 74, 64
2, 40064, Note_on_c, 0, 74, 0
2, 40065, Note_on_c, 0, 76, 64
2, 40071, Note_on_c, 0, 76, 0
2, 40072, Note_on_c, 0, 74, 64
2, 40079, Note_on_c, 0, 74, 0
2, 40080, Note_on_c, 0, 76, 64
2, 40080, Note_on_c, 0, 36, 64
2, 40080, Note_on_c, 0, 48, 64
2, 40086, Note_on_c, 0, 76, 0
2, 40087, Note_on_c, 0, 74, 64
2, 40094, Note_on_c, 0, 74, 0
2, 40095, Note_on_c, 0, 76, 64
2, 40101, Note_on_c, 0, 76, 0
2, 40102, Note_on_c, 0, 74, 64
2, 40109, Note_on_c, 0, 74, 0
2, 40110, Note_on_c, 0, 76, 64
2, 40116, Note_on_c, 0, 76, 0
2, 40117, Note_on_c, 0, 74, 64
2, 40124, Note_on_c, 0, 74, 0
2, 40125, Note_on_c, 0, 76, 64
2, 40131, Note_on_c, 0, 76, 0
2, 40132, Note_on_c, 0, 48, 0
2, 40132, Note_on_c, 0, 36, 0
2, 40132, Note_on_c, 0, 74, 64
2, 40139, Note_on_c, 0, 74, 0
2, 40140, Note_on_c, 0, 76, 64
2, 40140, Note_on_c, 0, 31, 64
2, 40140, Note_on_c, 0, 43, 64
2, 40146, Note_on_c, 0, 76, 0
2, 40147, Note_on_c, 0, 74, 64
2, 40154, Note_on_c, 0, 74, 0
2, 40155, Note_on_c, 0, 76, 64
2, 40161, Note_on_c, 0, 76, 0
2, 40162, Note_on_c, 0, 74, 64
2, 40166, Note_on_c, 0, 43, 0
2, 40166, Note_on_c, 0, 31, 0
2, 40169, Note_on_c, 0, 74, 0
2, 40170, Note_on_c, 0, 76, 64
2, 40170, Note_on_c, 0, 31, 64
2, 40170, Note_on_c, 0, 43, 64
2, 40176, Note_on_c, 0, 76, 0
2, 40177, Note_on_c, 0, 74, 64
2, 40184, Note_on_c, 0, 74, 0
2, 40185, Note_on_c, 0, 76, 64
2, 40191, Note_on_c, 0, 76, 0
2, 40192, Note_on_c, 0, 74, 64
2, 40199, Note_on_c, 0, 74, 0
2, 40200, Note_on_c, 0, 76, 64
2, 40206, Note_on_c, 0, 76, 0
2, 40207, Note_on_c, 0, 74, 64
2, 40214, Note_on_c, 0, 74, 0
2, 40215, Note_on_c, 0, 76, 64
2, 40221, Note_on_c, 0, 76, 0
2, 40222, Note_on_c, 0, 74, 64
2, 40229, Note_on_c, 0, 74, 0
2, 40230, Note_on_c, 0, 76, 64
2, 40236, Note_on_c, 0, 76, 0
2, 40237, Note_on_c, 0, 74, 64
2, 40244, Note_on_c, 0, 74, 0
2, 40245, Note_on_c, 0, 76, 64
2, 40251, Note_on_c, 0, 76, 0
2, 40252, Note_on_c, 0, 74, 64
2, 40259, Note_on_c, 0, 74, 0
2, 40260, Note_on_c, 0, 76, 64
2, 40266, Note_on_c, 0, 76, 0
2, 40267, Note_on_c, 0, 74, 64
2, 40274, Note_on_c, 0, 74, 0
2, 40275, Note_on_c, 0, 76, 64
2, 40281, Note_on_c, 0, 76, 0
2, 40282, Note_on_c, 0, 74, 64
2, 40289, Note_on_c, 0, 74, 0
2, 40290, Note_on_c, 0, 76, 64
2, 40296, Note_on_c, 0, 76, 0
2, 40297, Note_on_c, 0, 74, 64
2, 40304, Note_on_c, 0, 74, 0
2, 40305, Note_on_c, 0, 76, 64
2, 40311, Note_on_c, 0, 76, 0
2, 40312, Note_on_c, 0, 74, 64
2, 40319, Note_on_c, 0, 74, 0
2, 40320, Note_on_c, 0, 76, 64
2, 40326, Note_on_c, 0, 76, 0
2, 40327, Note_on_c, 0, 74, 64
2, 40334, Note_on_c, 0, 74, 0
2, 40335, Note_on_c, 0, 43, 0
2, 40335, Note_on_c, 0, 31, 0
2, 40335, Note_on_c, 0, 76, 64
2, 40341, Note_on_c, 0, 76, 0
2, 40342, Note_on_c, 0, 74, 64
2, 40349, Note_on_c, 0, 74, 0
2, 40350, Note_on_c, 0, 76, 64
2, 40350, Note_on_c, 0, 81, 64
2, 40350, Note_on_c, 0, 72, 64
2, 40356, Note_on_c, 0, 76, 0
2, 40357, Note_on_c, 0, 74, 64
2, 40364, Note_on_c, 0, 74, 0
2, 40365, Note_on_c, 0, 76, 64
2, 40371, Note_on_c, 0, 76, 0
2, 40372, Note_on_c, 0, 74, 64
2, 40379, Note_on_c, 0, 74, 0
2, 40380, Note_on_c, 0, 76, 64
2, 40386, Note_on_c, 0, 76, 0
2, 40387, Note_on_c, 0, 74, 64
2, 40394, Note_on_c, 0, 74, 0
2, 40395, Note_on_c, 0, 76, 64
2, 40401, Note_on_c, 0, 76, 0
2, 40402, Note_on_c, 0, 72, 0
2, 40402, Note_on_c, 0, 81, 0
2, 40402, Note_on_c, 0, 74, 64
2, 40409, Note_on_c, 0, 74, 0
2, 40410, Note_on_c, 0, 76, 64
2, 40410, Note_on_c, 0, 79, 64
2, 40410, Note_on_c, 0, 71, 64
2, 40416, Note_on_c, 0, 76, 0
2, 40417, Note_on_c, 0, 74, 64
2, 40423, Note_on_c, 0, 79, 0
2, 40424, Note_on_c, 0, 74, 0
2, 40425, Note_on_c, 0, 76, 64
2, 40431, Note_on_c, 0, 76, 0
2, 40432, Note_on_c, 0, 74, 64
2, 40436, Note_on_c, 0, 71, 0
2, 40439, Note_on_c, 0, 74, 0
2, 40440, Note_on_c, 0, 76, 64
2, 40440, Note_on_c, 0, 79, 64
2, 40440, Note_on_c, 0, 71, 64
2, 40446, Note_on_c, 0, 76, 0
2, 40447, Note_on_c, 0, 74, 64
2, 40454, Note_on_c, 0, 74, 0
2, 40455, Note_on_c, 0, 76, 64
2, 40461, Note_on_c, 0, 76, 0
2, 40462, Note_on_c, 0, 74, 64
2, 40469, Note_on_c, 0, 74, 0
2, 40470, Note_on_c, 0, 76, 64
2, 40476, Note_on_c, 0, 76, 0
2, 40477, Note_on_c, 0, 74, 64
2, 40484, Note_on_c, 0, 74, 0
2, 40485, Note_on_c, 0, 76, 64
2, 40491, Note_on_c, 0, 76, 0
2, 40492, Note_on_c, 0, 74, 64
2, 40499, Note_on_c, 0, 74, 0
2, 40500, Note_on_c, 0, 76, 64
2, 40506, Note_on_c, 0, 76, 0
2, 40507, Note_on_c, 0, 74, 64
2, 40514, Note_on_c, 0, 74, 0
2, 40515, Note_on_c, 0, 76, 64
2, 40521, Note_on_c, 0, 76, 0
2, 40522, Note_on_c, 0, 74, 64
2, 40529, Note_on_c, 0, 74, 0
2, 40530, Note_on_c, 0, 75, 64
2, 40536, Note_on_c, 0, 75, 0
2, 40537, Note_on_c, 0, 74, 64
2, 40544, Note_on_c, 0, 74, 0
2, 40545, Note_on_c, 0, 75, 64
2, 40551, Note_on_c, 0, 75, 0
2, 40552, Note_on_c, 0, 74, 64
2, 40559, Note_on_c, 0, 74, 0
2, 40560, Note_on_c, 0, 75, 64
2, 40566, Note_on_c, 0, 75, 0
2, 40567, Note_on_c, 0, 74, 64
2, 40574, Note_on_c, 0, 74, 0
2, 40575, Note_on_c, 0, 75, 64
2, 40581, Note_on_c, 0, 75, 0
2, 40582, Note_on_c, 0, 74, 64
2, 40589, Note_on_c, 0, 74, 0
2, 40590, Note_on_c, 0, 75, 64
2, 40596, Note_on_c, 0, 75, 0
2, 40597, Note_on_c, 0, 74, 64
2, 40604, Note_on_c, 0, 74, 0
2, 40605, Note_on_c, 0, 71, 0
2, 40605, Note_on_c, 0, 79, 0
2, 40605, Note_on_c, 0, 75, 64
2, 40611, Note_on_c, 0, 75, 0
2, 40612, Note_on_c, 0, 74, 64
2, 40619, Note_on_c, 0, 74, 0
2, 40620, Note_on_c, 0, 75, 64
2, 40620, Note_on_c, 0, 80, 64
2, 40620, Note_on_c, 0, 72, 64
2, 40626, Note_on_c, 0, 75, 0
2, 40627, Note_on_c, 0, 74, 64
2, 40634, Note_on_c, 0, 74, 0
2, 40635, Note_on_c, 0, 75, 64
2, 40641, Note_on_c, 0, 75, 0
2, 40642, Note_on_c, 0, 74, 64
2, 40649, Note_on_c, 0, 74, 0
2, 40650, Note_on_c, 0, 75, 64
2, 40656, Note_on_c, 0, 75, 0
2, 40657, Note_on_c, 0, 74, 64
2, 40664, Note_on_c, 0, 74, 0
2, 40665, Note_on_c, 0, 75, 64
2, 40671, Note_on_c, 0, 75, 0
2, 40672, Note_on_c, 0, 72, 0
2, 40672, Note_on_c, 0, 80, 0
2, 40672, Note_on_c, 0, 74, 64
2, 40679, Note_on_c, 0, 74, 0
2, 40680, Note_on_c, 0, 75, 64
2, 40680, Note_on_c, 0, 79, 64
2, 40680, Note_on_c, 0, 71, 64
2, 40686, Note_on_c, 0, 75, 0
2, 40687, Note_on_c, 0, 74, 64
2, 40694, Note_on_c, 0, 74, 0
2, 40695, Note_on_c, 0, 75, 64
2, 40701, Note_on_c, 0, 75, 0
2, 40702, Note_on_c, 0, 74, 64
2, 40706, Note_on_c, 0, 71, 0
2, 40706, Note_on_c, 0, 79, 0
2, 40709, Note_on_c, 0, 74, 0
2, 40710, Note_on_c, 0, 75, 64
2, 40710, Note_on_c, 0, 79, 64
2, 40710, Note_on_c, 0, 71, 64
2, 40716, Note_on_c, 0, 75, 0
2, 40717, Note_on_c, 0, 74, 64
2, 40724, Note_on_c, 0, 74, 0
2, 40725, Note_on_c, 0, 75, 64
2, 40731, Note_on_c, 0, 75, 0
2, 40732, Note_on_c, 0, 74, 64
2, 40739, Note_on_c, 0, 74, 0
2, 40740, Note_on_c, 0, 75, 64
2, 40746, Note_on_c, 0, 75, 0
2, 40747, Note_on_c, 0, 74, 64
2, 40754, Note_on_c, 0, 74, 0
2, 40755, Note_on_c, 0, 75, 64
2, 40761, Note_on_c, 0, 75, 0
2, 40762, Note_on_c, 0, 74, 64
2, 40769, Note_on_c, 0, 74, 0
2, 40770, Note_on_c, 0, 75, 64
2, 40776, Note_on_c, 0, 75, 0
2, 40777, Note_on_c, 0, 74, 64
2, 40784, Note_on_c, 0, 74, 0
2, 40785, Note_on_c, 0, 75, 64
2, 40788, Note_on_c, 0, 71, 0
2, 40788, Note_on_c, 0, 79, 0
2, 40791, Note_on_c, 0, 75, 0
2, 40792, Note_on_c, 0, 74, 64
2, 40799, Note_on_c, 0, 74, 0
2, 40800, Note_on_c, 0, 75, 64
2, 40800, Note_on_c, 0, 79, 64
2, 40800, Note_on_c, 0, 71, 64
2, 40806, Note_on_c, 0, 75, 0
2, 40807, Note_on_c, 0, 74, 64
2, 40814, Note_on_c, 0, 74, 0
2, 40815, Note_on_c, 0, 75, 64
2, 40821, Note_on_c, 0, 75, 0
2, 40822, Note_on_c, 0, 74, 64
2, 40829, Note_on_c, 0, 74, 0
2, 40830, Note_on_c, 0, 75, 64
2, 40836, Note_on_c, 0, 75, 0
2, 40837, Note_on_c, 0, 74, 64
2, 40844, Note_on_c, 0, 74, 0
2, 40845, Note_on_c, 0, 75, 64
2, 40851, Note_on_c, 0, 75, 0
2, 40852, Note_on_c, 0, 74, 64
2, 40859, Note_on_c, 0, 74, 0
2, 40860, Note_on_c, 0, 75, 64
2, 40866, Note_on_c, 0, 75, 0
2, 40867, Note_on_c, 0, 74, 64
2, 40874, Note_on_c, 0, 74, 0
2, 40875, Note_on_c, 0, 75, 64
2, 40878, Note_on_c, 0, 71, 0
2, 40878, Note_on_c, 0, 79, 0
2, 40881, Note_on_c, 0, 75, 0
2, 40882, Note_on_c, 0, 74, 64
2, 40889, Note_on_c, 0, 74, 0
2, 40890, Note_on_c, 0, 75, 64
2, 40890, Note_on_c, 0, 79, 64
2, 40890, Note_on_c, 0, 71, 64
2, 40896, Note_on_c, 0, 75, 0
2, 40897, Note_on_c, 0, 74, 64
2, 40904, Note_on_c, 0, 74, 0
2, 40905, Note_on_c, 0, 75, 64
2, 40911, Note_on_c, 0, 75, 0
2, 40912, Note_on_c, 0, 74, 64
2, 40919, Note_on_c, 0, 74, 0
2, 40920, Note_on_c, 0, 75, 64
2, 40926, Note_on_c, 0, 75, 0
2, 40927, Note_on_c, 0, 74, 64
2, 40934, Note_on_c, 0, 74, 0
2, 40935, Note_on_c, 0, 75, 64
2, 40941, Note_on_c, 0, 75, 0
2, 40942, Note_on_c, 0, 74, 64
2, 40949, Note_on_c, 0, 74, 0
2, 40950, Note_on_c, 0, 75, 64
2, 40956, Note_on_c, 0, 75, 0
2, 40957, Note_on_c, 0, 74, 64
2, 40964, Note_on_c, 0, 74, 0
2, 40965, Note_on_c, 0, 75, 64
2, 40968, Note_on_c, 0, 71, 0
2, 40968, Note_on_c, 0, 79, 0
2, 40971, Note_on_c, 0, 75, 0
2, 40972, Note_on_c, 0, 74, 64
2, 40979, Note_on_c, 0, 74, 0
2, 40980, Note_on_c, 0, 75, 64
2, 40980, Note_on_c, 0, 79, 64
2, 40980, Note_on_c, 0, 71, 64
2, 40986, Note_on_c, 0, 75, 0
2, 40987, Note_on_c, 0, 74, 64
2, 40994, Note_on_c, 0, 74, 0
2, 40995, Note_on_c, 0, 75, 64
2, 41001, Note_on_c, 0, 75, 0
2, 41002, Note_on_c, 0, 74, 64
2, 41009, Note_on_c, 0, 74, 0
2, 41010, Note_on_c, 0, 75, 64
2, 41016, Note_on_c, 0, 75, 0
2, 41017, Note_on_c, 0, 74, 64
2, 41024, Note_on_c, 0, 74, 0
2, 41025, Note_on_c, 0, 75, 64
2, 41031, Note_on_c, 0, 75, 0
2, 41032, Note_on_c, 0, 74, 64
2, 41039, Note_on_c, 0, 74, 0
2, 41040, Note_on_c, 0, 75, 64
2, 41046, Note_on_c, 0, 75, 0
2, 41047, Note_on_c, 0, 74, 64
2, 41054, Note_on_c, 0, 74, 0
2, 41055, Note_on_c, 0, 75, 64
2, 41058, Note_on_c, 0, 71, 0
2, 41058, Note_on_c, 0, 79, 0
2, 41061, Note_on_c, 0, 75, 0
2, 41062, Note_on_c, 0, 74, 64
2, 41069, Note_on_c, 0, 74, 0
2, 41070, Note_on_c, 0, 75, 64
2, 41070, Note_on_c, 0, 80, 64
2, 41070, Note_on_c, 0, 70, 64
2, 41076, Note_on_c, 0, 75, 0
2, 41077, Note_on_c, 0, 74, 64
2, 41084, Note_on_c, 0, 74, 0
2, 41085, Note_on_c, 0, 75, 64
2, 41091, Note_on_c, 0, 75, 0
2, 41092, Note_on_c, 0, 74, 64
2, 41099, Note_on_c, 0, 74, 0
2, 41100, Note_on_c, 0, 75, 64
2, 41106, Note_on_c, 0, 75, 0
2, 41107, Note_on_c, 0, 74, 64
2, 41114, Note_on_c, 0, 74, 0
2, 41115, Note_on_c, 0, 75, 64
2, 41121, Note_on_c, 0, 75, 0
2, 41122, Note_on_c, 0, 74, 64
2, 41129, Note_on_c, 0, 74, 0
2, 41130, Note_on_c, 0, 75, 64
2, 41136, Note_on_c, 0, 75, 0
2, 41137, Note_on_c, 0, 74, 64
2, 41144, Note_on_c, 0, 74, 0
2, 41145, Note_on_c, 0, 75, 64
2, 41148, Note_on_c, 0, 70, 0
2, 41148, Note_on_c, 0, 80, 0
2, 41151, Note_on_c, 0, 75, 0
2, 41152, Note_on_c, 0, 74, 64
2, 41159, Note_on_c, 0, 74, 0
2, 41160, Note_on_c, 0, 75, 64
2, 41160, Note_on_c, 0, 80, 64
2, 41160, Note_on_c, 0, 41, 64
2, 41160, Note_on_c, 0, 53, 64
2, 41166, Note_on_c, 0, 75, 0
2, 41167, Note_on_c, 0, 74, 64
2, 41174, Note_on_c, 0, 74, 0
2, 41175, Note_on_c, 0, 75, 64
2, 41181, Note_on_c, 0, 75, 0
2, 41182, Note_on_c, 0, 74, 64
2, 41189, Note_on_c, 0, 74, 0
2, 41190, Note_on_c, 0, 75, 64
2, 41196, Note_on_c, 0, 75, 0
2, 41197, Note_on_c, 0, 74, 64
2, 41204, Note_on_c, 0, 74, 0
2, 41205, Note_on_c, 0, 75, 64
2, 41211, Note_on_c, 0, 75, 0
2, 41212, Note_on_c, 0, 53, 0
2, 41212, Note_on_c, 0, 41, 0
2, 41212, Note_on_c, 0, 74, 64
2, 41219, Note_on_c, 0, 74, 0
2, 41220, Note_on_c, 0, 75, 64
2, 41220, Note_on_c, 0, 34, 64
2, 41220, Note_on_c, 0, 46, 64
2, 41226, Note_on_c, 0, 75, 0
2, 41227, Note_on_c, 0, 74, 64
2, 41234, Note_on_c, 0, 74, 0
2, 41235, Note_on_c, 0, 75, 64
2, 41238, Note_on_c, 0, 80, 0
2, 41241, Note_on_c, 0, 75, 0
2, 41242, Note_on_c, 0, 74, 64
2, 41246, Note_on_c, 0, 34, 0
2, 41246, Note_on_c, 0, 46, 0
2, 41249, Note_on_c, 0, 74, 0
2, 41250, Note_on_c, 0, 75, 64
2, 41250, Note_on_c, 0, 80, 64
2, 41250, Note_on_c, 0, 34, 64
2, 41250, Note_on_c, 0, 46, 64
2, 41256, Note_on_c, 0, 75, 0
2, 41257, Note_on_c, 0, 74, 64
2, 41264, Note_on_c, 0, 74, 0
2, 41265, Note_on_c, 0, 75, 64
2, 41271, Note_on_c, 0, 75, 0
2, 41272, Note_on_c, 0, 74, 64
2, 41279, Note_on_c, 0, 74, 0
2, 41280, Note_on_c, 0, 75, 64
2, 41286, Note_on_c, 0, 75, 0
2, 41287, Note_on_c, 0, 74, 64
2, 41294, Note_on_c, 0, 74, 0
2, 41295, Note_on_c, 0, 75, 64
2, 41301, Note_on_c, 0, 75, 0
2, 41302, Note_on_c, 0, 74, 64
2, 41309, Note_on_c, 0, 74, 0
2, 41310, Note_on_c, 0, 75, 64
2, 41316, Note_on_c, 0, 75, 0
2, 41317, Note_on_c, 0, 74, 64
2, 41324, Note_on_c, 0, 74, 0
2, 41325, Note_on_c, 0, 75, 64
2, 41328, Note_on_c, 0, 80, 0
2, 41331, Note_on_c, 0, 75, 0
2, 41332, Note_on_c, 0, 74, 64
2, 41339, Note_on_c, 0, 74, 0
2, 41340, Note_on_c, 0, 75, 64
2, 41340, Note_on_c, 0, 80, 64
2, 41346, Note_on_c, 0, 75, 0
2, 41347, Note_on_c, 0, 74, 64
2, 41354, Note_on_c, 0, 74, 0
2, 41355, Note_on_c, 0, 75, 64
2, 41361, Note_on_c, 0, 75, 0
2, 41362, Note_on_c, 0, 74, 64
2, 41369, Note_on_c, 0, 74, 0
2, 41370, Note_on_c, 0, 75, 64
2, 41376, Note_on_c, 0, 75, 0
2, 41377, Note_on_c, 0, 74, 64
2, 41384, Note_on_c, 0, 74, 0
2, 41385, Note_on_c, 0, 75, 64
2, 41391, Note_on_c, 0, 75, 0
2, 41392, Note_on_c, 0, 74, 64
2, 41399, Note_on_c, 0, 74, 0
2, 41400, Note_on_c, 0, 75, 64
2, 41406, Note_on_c, 0, 75, 0
2, 41407, Note_on_c, 0, 74, 64
2, 41414, Note_on_c, 0, 74, 0
2, 41415, Note_on_c, 0, 46, 0
2, 41415, Note_on_c, 0, 34, 0
2, 41415, Note_on_c, 0, 75, 64
2, 41418, Note_on_c, 0, 80, 0
2, 41421, Note_on_c, 0, 75, 0
2, 41422, Note_on_c, 0, 74, 64
2, 41429, Note_on_c, 0, 74, 0
2, 41430, Note_on_c, 0, 75, 64
2, 41430, Note_on_c, 0, 80, 64
2, 41430, Note_on_c, 0, 65, 64
2, 41436, Note_on_c, 0, 75, 0
2, 41437, Note_on_c, 0, 74, 64
2, 41444, Note_on_c, 0, 74, 0
2, 41445, Note_on_c, 0, 75, 64
2, 41451, Note_on_c, 0, 75, 0
2, 41452, Note_on_c, 0, 74, 64
2, 41459, Note_on_c, 0, 74, 0
2, 41460, Note_on_c, 0, 75, 64
2, 41466, Note_on_c, 0, 75, 0
2, 41467, Note_on_c, 0, 74, 64
2, 41474, Note_on_c, 0, 74, 0
2, 41475, Note_on_c, 0, 75, 64
2, 41481, Note_on_c, 0, 75, 0
2, 41482, Note_on_c, 0, 65, 0
2, 41482, Note_on_c, 0, 74, 64
2, 41489, Note_on_c, 0, 74, 0
2, 41490, Note_on_c, 0, 75, 64
2, 41490, Note_on_c, 0, 58, 64
2, 41496, Note_on_c, 0, 75, 0
2, 41497, Note_on_c, 0, 74, 64
2, 41504, Note_on_c, 0, 74, 0
2, 41505, Note_on_c, 0, 75, 64
2, 41508, Note_on_c, 0, 80, 0
2, 41511, Note_on_c, 0, 75, 0
2, 41512, Note_on_c, 0, 74, 64
2, 41516, Note_on_c, 0, 58, 0
2, 41519, Note_on_c, 0, 74, 0
2, 41520, Note_on_c, 0, 74, 64
2, 41520, Note_on_c, 0, 82, 64
2, 41520, Note_on_c, 0, 67, 64
2, 41520, Note_on_c, 0, 58, 64
2, 41526, Note_on_c, 0, 67, 0
2, 41526, Note_on_c, 0, 74, 0
2, 41526, Note_on_c, 0, 82, 0
2, 41527, Note_on_c, 0, 75, 64
2, 41527, Note_on_c, 0, 80, 64
2, 41527, Note_on_c, 0, 65, 64
2, 41534, Note_on_c, 0, 65, 0
2, 41534, Note_on_c, 0, 80, 0
2, 41534, Note_on_c, 0, 75, 0
2, 41535, Note_on_c, 0, 74, 64
2, 41535, Note_on_c, 0, 82, 64
2, 41535, Note_on_c, 0, 67, 64
2, 41541, Note_on_c, 0, 67, 0
2, 41541, Note_on_c, 0, 82, 0
2, 41541, Note_on_c, 0, 74, 0
2, 41542, Note_on_c, 0, 75, 64
2, 41542, Note_on_c, 0, 80, 64
2, 41542, Note_on_c, 0, 65, 64
2, 41549, Note_on_c, 0, 65, 0
2, 41549, Note_on_c, 0, 80, 0
2, 41549, Note_on_c, 0, 75, 0
2, 41550, Note_on_c, 0, 74, 64
2, 41550, Note_on_c, 0, 82, 64
2, 41550, Note_on_c, 0, 67, 64
2, 41556, Note_on_c, 0, 67, 0
2, 41556, Note_on_c, 0, 82, 0
2, 41556, Note_on_c, 0, 74, 0
2, 41557, Note_on_c, 0, 75, 64
2, 41557, Note_on_c, 0, 80, 64
2, 41557, Note_on_c, 0, 65, 64
2, 41564, Note_on_c, 0, 65, 0
2, 41564, Note_on_c, 0, 80, 0
2, 41564, Note_on_c, 0, 75, 0
2, 41565, Note_on_c, 0, 74, 64
2, 41565, Note_on_c, 0, 82, 64
2, 41565, Note_on_c, 0, 67, 64
2, 41571, Note_on_c, 0, 67, 0
2, 41571, Note_on_c, 0, 82, 0
2, 41571, Note_on_c, 0, 74, 0
2, 41572, Note_on_c, 0, 75, 64
2, 41572, Note_on_c, 0, 80, 64
2, 41572, Note_on_c, 0, 65, 64
2, 41579, Note_on_c, 0, 65, 0
2, 41579, Note_on_c, 0, 80, 0
2, 41579, Note_on_c, 0, 75, 0
2, 41580, Note_on_c, 0, 74, 64
2, 41580, Note_on_c, 0, 82, 64
2, 41580, Note_on_c, 0, 67, 64
2, 41586, Note_on_c, 0, 67, 0
2, 41586, Note_on_c, 0, 82, 0
2, 41586, Note_on_c, 0, 74, 0
2, 41587, Note_on_c, 0, 75, 64
2, 41587, Note_on_c, 0, 80, 64
2, 41587, Note_on_c, 0, 65, 64
2, 41594, Note_on_c, 0, 65, 0
2, 41594, Note_on_c, 0, 80, 0
2, 41594, Note_on_c, 0, 75, 0
2, 41595, Note_on_c, 0, 74, 64
2, 41595, Note_on_c, 0, 82, 64
2, 41595, Note_on_c, 0, 67, 64
2, 41598, Note_on_c, 0, 58, 0
2, 41601, Note_on_c, 0, 74, 0
2, 41601, Note_on_c, 0, 82, 0
2, 41601, Note_on_c, 0, 67, 0
2, 41602, Note_on_c, 0, 75, 64
2, 41602, Note_on_c, 0, 80, 64
2, 41602, Note_on_c, 0, 65, 64
2, 41609, Note_on_c, 0, 65, 0
2, 41609, Note_on_c, 0, 80, 0
2, 41609, Note_on_c, 0, 75, 0
2, 41610, Note_on_c, 0, 74, 64
2, 41610, Note_on_c, 0, 82, 64
2, 41610, Note_on_c, 0, 67, 64
2, 41610, Note_on_c, 0, 58, 64
2, 41616, Note_on_c, 0, 67, 0
2, 41616, Note_on_c, 0, 74, 0
2, 41616, Note_on_c, 0, 82, 0
2, 41617, Note_on_c, 0, 75, 64
2, 41617, Note_on_c, 0, 80, 64
2, 41617, Note_on_c, 0, 65, 64
2, 41624, Note_on_c, 0, 65, 0
2, 41624, Note_on_c, 0, 80, 0
2, 41624, Note_on_c, 0, 75, 0
2, 41625, Note_on_c, 0, 74, 64
2, 41625, Note_on_c, 0, 82, 64
2, 41625, Note_on_c, 0, 67, 64
2, 41631, Note_on_c, 0, 67, 0
2, 41631, Note_on_c, 0, 82, 0
2, 41631, Note_on_c, 0, 74, 0
2, 41632, Note_on_c, 0, 75, 64
2, 41632, Note_on_c, 0, 80, 64
2, 41632, Note_on_c, 0, 65, 64
2, 41639, Note_on_c, 0, 65, 0
2, 41639, Note_on_c, 0, 80, 0
2, 41639, Note_on_c, 0, 75, 0
2, 41640, Note_on_c, 0, 74, 64
2, 41640, Note_on_c, 0, 82, 64
2, 41640, Note_on_c, 0, 67, 64
2, 41646, Note_on_c, 0, 67, 0
2, 41646, Note_on_c, 0, 82, 0
2, 41646, Note_on_c, 0, 74, 0
2, 41647, Note_on_c, 0, 75, 64
2, 41647, Note_on_c, 0, 80, 64
2, 41647, Note_on_c, 0, 65, 64
2, 41654, Note_on_c, 0, 65, 0
2, 41654, Note_on_c, 0, 80, 0
2, 41654, Note_on_c, 0, 75, 0
2, 41655, Note_on_c, 0, 74, 64
2, 41655, Note_on_c, 0, 82, 64
2, 41655, Note_on_c, 0, 67, 64
2, 41661, Note_on_c, 0, 67, 0
2, 41661, Note_on_c, 0, 82, 0
2, 41661, Note_on_c, 0, 74, 0
2, 41662, Note_on_c, 0, 75, 64
2, 41662, Note_on_c, 0, 80, 64
2, 41662, Note_on_c, 0, 65, 64
2, 41669, Note_on_c, 0, 65, 0
2, 41669, Note_on_c, 0, 80, 0
2, 41669, Note_on_c, 0, 75, 0
2, 41670, Note_on_c, 0, 74, 64
2, 41670, Note_on_c, 0, 82, 64
2, 41670, Note_on_c, 0, 67, 64
2, 41676, Note_on_c, 0, 67, 0
2, 41676, Note_on_c, 0, 82, 0
2, 41676, Note_on_c, 0, 74, 0
2, 41677, Note_on_c, 0, 75, 64
2, 41677, Note_on_c, 0, 80, 64
2, 41677, Note_on_c, 0, 65, 64
2, 41684, Note_on_c, 0, 65, 0
2, 41684, Note_on_c, 0, 80, 0
2, 41684, Note_on_c, 0, 75, 0
2, 41685, Note_on_c, 0, 74, 64
2, 41685, Note_on_c, 0, 82, 64
2, 41685, Note_on_c, 0, 67, 64
2, 41688, Note_on_c, 0, 58, 0
2, 41691, Note_on_c, 0, 74, 0
2, 41691, Note_on_c, 0, 82, 0
2, 41691, Note_on_c, 0, 67, 0
2, 41692, Note_on_c, 0, 75, 64
2, 41692, Note_on_c, 0, 80, 64
2, 41692, Note_on_c, 0, 65, 64
2, 41699, Note_on_c, 0, 65, 0
2, 41699, Note_on_c, 0, 80, 0
2, 41699, Note_on_c, 0, 75, 0
2, 41700, Note_on_c, 0, 74, 64
2, 41700, Note_on_c, 0, 82, 64
2, 41700, Note_on_c, 0, 67, 64
2, 41700, Note_on_c, 0, 58, 64
2, 41706, Note_on_c, 0, 67, 0
2, 41706, Note_on_c, 0, 74, 0
2, 41706, Note_on_c, 0, 82, 0
2, 41707, Note_on_c, 0, 75, 64
2, 41707, Note_on_c, 0, 80, 64
2, 41707, Note_on_c, 0, 65, 64
2, 41714, Note_on_c, 0, 65, 0
2, 41714, Note_on_c, 0, 80, 0
2, 41714, Note_on_c, 0, 75, 0
2, 41715, Note_on_c, 0, 74, 64
2, 41715, Note_on_c, 0, 82, 64
2, 41715, Note_on_c, 0, 67, 64
2, 41721, Note_on_c, 0, 67, 0
2, 41721, Note_on_c, 0, 82, 0
2, 41721, Note_on_c, 0, 74, 0
2, 41722, Note_on_c, 0, 75, 64
2, 41722, Note_on_c, 0, 80, 64
2, 41722, Note_on_c, 0, 65, 64
2, 41729, Note_on_c, 0, 65, 0
2, 41729, Note_on_c, 0, 80, 0
2, 41729, Note_on_c, 0, 75, 0
2, 41730, Note_on_c, 0, 74, 64
2, 41730, Note_on_c, 0, 82, 64
2, 41730, Note_on_c, 0, 67, 64
2, 41736, Note_on_c, 0, 67, 0
2, 41736, Note_on_c, 0, 82, 0
2, 41736, Note_on_c, 0, 74, 0
2, 41737, Note_on_c, 0, 75, 64
2, 41737, Note_on_c, 0, 80, 64
2, 41737, Note_on_c, 0, 65, 64
2, 41744, Note_on_c, 0, 65, 0
2, 41744, Note_on_c, 0, 80, 0
2, 41744, Note_on_c, 0, 75, 0
2, 41745, Note_on_c, 0, 74, 64
2, 41745, Note_on_c, 0, 82, 64
2, 41745, Note_on_c, 0, 67, 64
2, 41751, Note_on_c, 0, 67, 0
2, 41751, Note_on_c, 0, 82, 0
2, 41751, Note_on_c, 0, 74, 0
2, 41752, Note_on_c, 0, 75, 64
2, 41752, Note_on_c, 0, 80, 64
2, 41752, Note_on_c, 0, 65, 64
2, 41759, Note_on_c, 0, 65, 0
2, 41759, Note_on_c, 0, 80, 0
2, 41759, Note_on_c, 0, 75, 0
2, 41760, Note_on_c, 0, 74, 64
2, 41760, Note_on_c, 0, 82, 64
2, 41760, Note_on_c, 0, 67, 64
2, 41766, Note_on_c, 0, 67, 0
2, 41766, Note_on_c, 0, 82, 0
2, 41766, Note_on_c, 0, 74, 0
2, 41767, Note_on_c, 0, 75, 64
2, 41767, Note_on_c, 0, 80, 64
2, 41767, Note_on_c, 0, 65, 64
2, 41774, Note_on_c, 0, 65, 0
2, 41774, Note_on_c, 0, 80, 0
2, 41774, Note_on_c, 0, 75, 0
2, 41775, Note_on_c, 0, 74, 64
2, 41775, Note_on_c, 0, 82, 64
2, 41775, Note_on_c, 0, 67, 64
2, 41778, Note_on_c, 0, 58, 0
2, 41781, Note_on_c, 0, 74, 0
2, 41781, Note_on_c, 0, 82, 0
2, 41781, Note_on_c, 0, 67, 0
2, 41782, Note_on_c, 0, 75, 64
2, 41782, Note_on_c, 0, 80, 64
2, 41782, Note_on_c, 0, 65, 64
2, 41789, Note_on_c, 0, 65, 0
2, 41789, Note_on_c, 0, 80, 0
2, 41789, Note_on_c, 0, 75, 0
2, 41790, Note_on_c, 0, 74, 64
2, 41790, Note_on_c, 0, 82, 64
2, 41790, Note_on_c, 0, 67, 64
2, 41790, Note_on_c, 0, 58, 64
2, 41796, Note_on_c, 0, 67, 0
2, 41796, Note_on_c, 0, 74, 0
2, 41796, Note_on_c, 0, 82, 0
2, 41797, Note_on_c, 0, 75, 64
2, 41797, Note_on_c, 0, 80, 64
2, 41797, Note_on_c, 0, 65, 64
2, 41804, Note_on_c, 0, 65, 0
2, 41804, Note_on_c, 0, 80, 0
2, 41804, Note_on_c, 0, 75, 0
2, 41805, Note_on_c, 0, 74, 64
2, 41805, Note_on_c, 0, 82, 64
2, 41805, Note_on_c, 0, 67, 64
2, 41811, Note_on_c, 0, 67, 0
2, 41811, Note_on_c, 0, 82, 0
2, 41811, Note_on_c, 0, 74, 0
2, 41812, Note_on_c, 0, 75, 64
2, 41812, Note_on_c, 0, 80, 64
2, 41812, Note_on_c, 0, 65, 64
2, 41819, Note_on_c, 0, 65, 0
2, 41819, Note_on_c, 0, 80, 0
2, 41819, Note_on_c, 0, 75, 0
2, 41820, Note_on_c, 0, 74, 64
2, 41820, Note_on_c, 0, 82, 64
2, 41820, Note_on_c, 0, 67, 64
2, 41826, Note_on_c, 0, 67, 0
2, 41826, Note_on_c, 0, 82, 0
2, 41826, Note_on_c, 0, 74, 0
2, 41827, Note_on_c, 0, 75, 64
2, 41827, Note_on_c, 0, 80, 64
2, 41827, Note_on_c, 0, 65, 64
2, 41834, Note_on_c, 0, 65, 0
2, 41834, Note_on_c, 0, 80, 0
2, 41834, Note_on_c, 0, 75, 0
2, 41835, Note_on_c, 0, 74, 64
2, 41835, Note_on_c, 0, 82, 64
2, 41835, Note_on_c, 0, 67, 64
2, 41841, Note_on_c, 0, 67, 0
2, 41841, Note_on_c, 0, 82, 0
2, 41841, Note_on_c, 0, 74, 0
2, 41842, Note_on_c, 0, 75, 64
2, 41842, Note_on_c, 0, 80, 64
2, 41842, Note_on_c, 0, 65, 64
2, 41849, Note_on_c, 0, 65, 0
2, 41849, Note_on_c, 0, 80, 0
2, 41849, Note_on_c, 0, 75, 0
2, 41850, Note_on_c, 0, 74, 64
2, 41850, Note_on_c, 0, 82, 64
2, 41850, Note_on_c, 0, 67, 64
2, 41856, Note_on_c, 0, 67, 0
2, 41856, Note_on_c, 0, 82, 0
2, 41856, Note_on_c, 0, 74, 0
2, 41857, Note_on_c, 0, 75, 64
2, 41857, Note_on_c, 0, 80, 64
2, 41857, Note_on_c, 0, 65, 64
2, 41864, Note_on_c, 0, 65, 0
2, 41864, Note_on_c, 0, 80, 0
2, 41864, Note_on_c, 0, 75, 0
2, 41865, Note_on_c, 0, 74, 64
2, 41865, Note_on_c, 0, 82, 64
2, 41865, Note_on_c, 0, 67, 64
2, 41868, Note_on_c, 0, 58, 0
2, 41871, Note_on_c, 0, 74, 0
2, 41871, Note_on_c, 0, 82, 0
2, 41871, Note_on_c, 0, 67, 0
2, 41872, Note_on_c, 0, 75, 64
2, 41872, Note_on_c, 0, 80, 64
2, 41872, Note_on_c, 0, 65, 64
2, 41879, Note_on_c, 0, 65, 0
2, 41879, Note_on_c, 0, 80, 0
2, 41879, Note_on_c, 0, 75, 0
2, 41880, Note_on_c, 0, 74, 64
2, 41880, Note_on_c, 0, 82, 64
2, 41880, Note_on_c, 0, 67, 64
2, 41880, Note_on_c, 0, 58, 64
2, 41886, Note_on_c, 0, 67, 0
2, 41886, Note_on_c, 0, 74, 0
2, 41886, Note_on_c, 0, 82, 0
2, 41887, Note_on_c, 0, 75, 64
2, 41887, Note_on_c, 0, 80, 64
2, 41887, Note_on_c, 0, 65, 64
2, 41894, Note_on_c, 0, 65, 0
2, 41894, Note_on_c, 0, 80, 0
2, 41894, Note_on_c, 0, 75, 0
2, 41895, Note_on_c, 0, 74, 64
2, 41895, Note_on_c, 0, 82, 64
2, 41895, Note_on_c, 0, 67, 64
2, 41901, Note_on_c, 0, 67, 0
2, 41901, Note_on_c, 0, 82, 0
2, 41901, Note_on_c, 0, 74, 0
2, 41902, Note_on_c, 0, 75, 64
2, 41902, Note_on_c, 0, 80, 64
2, 41902, Note_on_c, 0, 65, 64
2, 41909, Note_on_c, 0, 65, 0
2, 41909, Note_on_c, 0, 80, 0
2, 41909, Note_on_c, 0, 75, 0
2, 41910, Note_on_c, 0, 74, 64
2, 41910, Note_on_c, 0, 82, 64
2, 41910, Note_on_c, 0, 67, 64
2, 41916, Note_on_c, 0, 67, 0
2, 41916, Note_on_c, 0, 82, 0
2, 41916, Note_on_c, 0, 74, 0
2, 41917, Note_on_c, 0, 75, 64
2, 41917, Note_on_c, 0, 80, 64
2, 41917, Note_on_c, 0, 65, 64
2, 41924, Note_on_c, 0, 65, 0
2, 41924, Note_on_c, 0, 80, 0
2, 41924, Note_on_c, 0, 75, 0
2, 41925, Note_on_c, 0, 74, 64
2, 41925, Note_on_c, 0, 82, 64
2, 41925, Note_on_c, 0, 67, 64
2, 41931, Note_on_c, 0, 67, 0
2, 41931, Note_on_c, 0, 82, 0
2, 41931, Note_on_c, 0, 74, 0
2, 41932, Note_on_c, 0, 75, 64
2, 41932, Note_on_c, 0, 80, 64
2, 41932, Note_on_c, 0, 65, 64
2, 41939, Note_on_c, 0, 65, 0
2, 41939, Note_on_c, 0, 80, 0
2, 41939, Note_on_c, 0, 75, 0
2, 41940, Note_on_c, 0, 74, 64
2, 41940, Note_on_c, 0, 82, 64
2, 41940, Note_on_c, 0, 67, 64
2, 41946, Note_on_c, 0, 67, 0
2, 41946, Note_on_c, 0, 82, 0
2, 41946, Note_on_c, 0, 74, 0
2, 41947, Note_on_c, 0, 75, 64
2, 41947, Note_on_c, 0, 80, 64
2, 41947, Note_on_c, 0, 65, 64
2, 41954, Note_on_c, 0, 65, 0
2, 41954, Note_on_c, 0, 80, 0
2, 41954, Note_on_c, 0, 75, 0
2, 41955, Note_on_c, 0, 74, 64
2, 41955, Note_on_c, 0, 82, 64
2, 41955, Note_on_c, 0, 67, 64
2, 41958, Note_on_c, 0, 58, 0
2, 41961, Note_on_c, 0, 74, 0
2, 41961, Note_on_c, 0, 82, 0
2, 41961, Note_on_c, 0, 67, 0
2, 41962, Note_on_c, 0, 75, 64
2, 41962, Note_on_c, 0, 80, 64
2, 41962, Note_on_c, 0, 65, 64
2, 41969, Note_on_c, 0, 65, 0
2, 41969, Note_on_c, 0, 80, 0
2, 41969, Note_on_c, 0, 75, 0
2, 41970, Note_on_c, 0, 74, 64
2, 41970, Note_on_c, 0, 82, 64
2, 41970, Note_on_c, 0, 67, 64
2, 41970, Note_on_c, 0, 58, 64
2, 41976, Note_on_c, 0, 67, 0
2, 41976, Note_on_c, 0, 74, 0
2, 41976, Note_on_c, 0, 82, 0
2, 41977, Note_on_c, 0, 75, 64
2, 41977, Note_on_c, 0, 80, 64
2, 41977, Note_on_c, 0, 65, 64
2, 41984, Note_on_c, 0, 65, 0
2, 41984, Note_on_c, 0, 80, 0
2, 41984, Note_on_c, 0, 75, 0
2, 41985, Note_on_c, 0, 74, 64
2, 41985, Note_on_c, 0, 82, 64
2, 41985, Note_on_c, 0, 67, 64
2, 41991, Note_on_c, 0, 67, 0
2, 41991, Note_on_c, 0, 82, 0
2, 41991, Note_on_c, 0, 74, 0
2, 41992, Note_on_c, 0, 75, 64
2, 41992, Note_on_c, 0, 80, 64
2, 41992, Note_on_c, 0, 65, 64
2, 41999, Note_on_c, 0, 65, 0
2, 41999, Note_on_c, 0, 80, 0
2, 41999, Note_on_c, 0, 75, 0
2, 42000, Note_on_c, 0, 74, 64
2, 42000, Note_on_c, 0, 82, 64
2, 42000, Note_on_c, 0, 67, 64
2, 42006, Note_on_c, 0, 67, 0
2, 42006, Note_on_c, 0, 82, 0
2, 42006, Note_on_c, 0, 74, 0
2, 42007, Note_on_c, 0, 75, 64
2, 42007, Note_on_c, 0, 80, 64
2, 42007, Note_on_c, 0, 65, 64
2, 42014, Note_on_c, 0, 65, 0
2, 42014, Note_on_c, 0, 80, 0
2, 42014, Note_on_c, 0, 75, 0
2, 42015, Note_on_c, 0, 74, 64
2, 42015, Note_on_c, 0, 82, 64
2, 42015, Note_on_c, 0, 67, 64
2, 42021, Note_on_c, 0, 67, 0
2, 42021, Note_on_c, 0, 82, 0
2, 42021, Note_on_c, 0, 74, 0
2, 42022, Note_on_c, 0, 75, 64
2, 42022, Note_on_c, 0, 80, 64
2, 42022, Note_on_c, 0, 65, 64
2, 42029, Note_on_c, 0, 65, 0
2, 42029, Note_on_c, 0, 80, 0
2, 42029, Note_on_c, 0, 75, 0
2, 42030, Note_on_c, 0, 74, 64
2, 42030, Note_on_c, 0, 82, 64
2, 42030, Note_on_c, 0, 67, 64
2, 42036, Note_on_c, 0, 67, 0
2, 42036, Note_on_c, 0, 82, 0
2, 42036, Note_on_c, 0, 74, 0
2, 42037, Note_on_c, 0, 75, 64
2, 42037, Note_on_c, 0, 80, 64
2, 42037, Note_on_c, 0, 65, 64
2, 42044, Note_on_c, 0, 65, 0
2, 42044, Note_on_c, 0, 80, 0
2, 42044, Note_on_c, 0, 75, 0
2, 42045, Note_on_c, 0, 74, 64
2, 42045, Note_on_c, 0, 82, 64
2, 42045, Note_on_c, 0, 67, 64
2, 42048, Note_on_c, 0, 58, 0
2, 42051, Note_on_c, 0, 74, 0
2, 42051, Note_on_c, 0, 82, 0
2, 42051, Note_on_c, 0, 67, 0
2, 42052, Note_on_c, 0, 75, 64
2, 42052, Note_on_c, 0, 80, 64
2, 42052, Note_on_c, 0, 65, 64
2, 42059, Note_on_c, 0, 65, 0
2, 42059, Note_on_c, 0, 80, 0
2, 42059, Note_on_c, 0, 75, 0
2, 42060, Note_on_c, 0, 82, 64
2, 42060, Note_on_c, 0, 67, 64
2, 42060, Note_on_c, 0, 58, 64
2, 42066, Note_on_c, 0, 67, 0
2, 42066, Note_on_c, 0, 82, 0
2, 42067, Note_on_c, 0, 80, 64
2, 42067, Note_on_c, 0, 65, 64
2, 42074, Note_on_c, 0, 65, 0
2, 42074, Note_on_c, 0, 80, 0
2, 42075, Note_on_c, 0, 82, 64
2, 42075, Note_on_c, 0, 67, 64
2, 42081, Note_on_c, 0, 67, 0
2, 42081, Note_on_c, 0, 82, 0
2, 42082, Note_on_c, 0, 80, 64
2, 42082, Note_on_c, 0, 65, 64
2, 42089, Note_on_c, 0, 65, 0
2, 42089, Note_on_c, 0, 80, 0
2, 42090, Note_on_c, 0, 82, 64
2, 42090, Note_on_c, 0, 67, 64
2, 42096, Note_on_c, 0, 67, 0
2, 42096, Note_on_c, 0, 82, 0
2, 42097, Note_on_c, 0, 80, 64
2, 42097, Note_on_c, 0, 65, 64
2, 42104, Note_on_c, 0, 65, 0
2, 42104, Note_on_c, 0, 80, 0
2, 42105, Note_on_c, 0, 82, 64
2, 42105, Note_on_c, 0, 67, 64
2, 42111, Note_on_c, 0, 67, 0
2, 42111, Note_on_c, 0, 82, 0
2, 42112, Note_on_c, 0, 80, 64
2, 42112, Note_on_c, 0, 65, 64
2, 42119, Note_on_c, 0, 65, 0
2, 42119, Note_on_c, 0, 80, 0
2, 42120, Note_on_c, 0, 82, 64
2, 42120, Note_on_c, 0, 67, 64
2, 42126, Note_on_c, 0, 67, 0
2, 42126, Note_on_c, 0, 82, 0
2, 42127, Note_on_c, 0, 80, 64
2, 42127, Note_on_c, 0, 65, 64
2, 42134, Note_on_c, 0, 65, 0
2, 42134, Note_on_c, 0, 80, 0
2, 42135, Note_on_c, 0, 82, 64
2, 42135, Note_on_c, 0, 67, 64
2, 42138, Note_on_c, 0, 58, 0
2, 42141, Note_on_c, 0, 67, 0
2, 42141, Note_on_c, 0, 82, 0
2, 42142, Note_on_c, 0, 80, 64
2, 42142, Note_on_c, 0, 65, 64
2, 42149, Note_on_c, 0, 65, 0
2, 42149, Note_on_c, 0, 80, 0
2, 42150, Note_on_c, 0, 82, 64
2, 42156, Note_on_c, 0, 82, 0
2, 42157, Note_on_c, 0, 81, 64
2, 42164, Note_on_c, 0, 81, 0
2, 42165, Note_on_c, 0, 82, 64
2, 42171, Note_on_c, 0, 82, 0
2, 42172, Note_on_c, 0, 81, 64
2, 42179, Note_on_c, 0, 81, 0
2, 42180, Note_on_c, 0, 82, 64
2, 42186, Note_on_c, 0, 82, 0
2, 42187, Note_on_c, 0, 81, 64
2, 42194, Note_on_c, 0, 81, 0
2, 42195, Note_on_c, 0, 82, 64
2, 42201, Note_on_c, 0, 82, 0
2, 42202, Note_on_c, 0, 81, 64
2, 42209, Note_on_c, 0, 81, 0
2, 42210, Note_on_c, 0, 82, 64
2, 42216, Note_on_c, 0, 82, 0
2, 42217, Note_on_c, 0, 81, 64
2, 42224, Note_on_c, 0, 81, 0
2, 42225, Note_on_c, 0, 82, 64
2, 42231, Note_on_c, 0, 82, 0
2, 42232, Note_on_c, 0, 81, 64
2, 42239, Note_on_c, 0, 81, 0
2, 42240, Note_on_c, 0, 83, 64
2, 42246, Note_on_c, 0, 83, 0
2, 42247, Note_on_c, 0, 82, 64
2, 42254, Note_on_c, 0, 82, 0
2, 42255, Note_on_c, 0, 83, 64
2, 42261, Note_on_c, 0, 83, 0
2, 42262, Note_on_c, 0, 82, 64
2, 42269, Note_on_c, 0, 82, 0
2, 42270, Note_on_c, 0, 83, 64
2, 42276, Note_on_c, 0, 83, 0
2, 42277, Note_on_c, 0, 82, 64
2, 42284, Note_on_c, 0, 82, 0
2, 42285, Note_on_c, 0, 83, 64
2, 42291, Note_on_c, 0, 83, 0
2, 42292, Note_on_c, 0, 82, 64
2, 42299, Note_on_c, 0, 82, 0
2, 42300, Note_on_c, 0, 83, 64
2, 42306, Note_on_c, 0, 83, 0
2, 42307, Note_on_c, 0, 82, 64
2, 42314, Note_on_c, 0, 82, 0
2, 42315, Note_on_c, 0, 83, 64
2, 42321, Note_on_c, 0, 83, 0
2, 42322, Note_on_c, 0, 82, 64
2, 42329, Note_on_c, 0, 82, 0
2, 42330, Note_on_c, 0, 83, 64
2, 42336, Note_on_c, 0, 83, 0
2, 42337, Note_on_c, 0, 82, 64
2, 42344, Note_on_c, 0, 82, 0
2, 42345, Note_on_c, 0, 83, 64
2, 42351, Note_on_c, 0, 83, 0
2, 42352, Note_on_c, 0, 82, 64
2, 42359, Note_on_c, 0, 82, 0
2, 42360, Note_on_c, 0, 83, 64
2, 42366, Note_on_c, 0, 83, 0
2, 42367, Note_on_c, 0, 82, 64
2, 42374, Note_on_c, 0, 82, 0
2, 42375, Note_on_c, 0, 83, 64
2, 42381, Note_on_c, 0, 83, 0
2, 42382, Note_on_c, 0, 82, 64
2, 42389, Note_on_c, 0, 82, 0
2, 42390, Note_on_c, 0, 83, 64
2, 42396, Note_on_c, 0, 83, 0
2, 42397, Note_on_c, 0, 82, 64
2, 42404, Note_on_c, 0, 82, 0
2, 42405, Note_on_c, 0, 83, 64
2, 42411, Note_on_c, 0, 83, 0
2, 42412, Note_on_c, 0, 82, 64
2, 42419, Note_on_c, 0, 82, 0
2, 42420, Note_on_c, 0, 84, 64
2, 42426, Note_on_c, 0, 84, 0
2, 42427, Note_on_c, 0, 83, 64
2, 42434, Note_on_c, 0, 83, 0
2, 42435, Note_on_c, 0, 84, 64
2, 42441, Note_on_c, 0, 84, 0
2, 42442, Note_on_c, 0, 83, 64
2, 42449, Note_on_c, 0, 83, 0
2, 42450, Note_on_c, 0, 84, 64
2, 42456, Note_on_c, 0, 84, 0
2, 42457, Note_on_c, 0, 83, 64
2, 42464, Note_on_c, 0, 83, 0
2, 42465, Note_on_c, 0, 84, 64
2, 42471, Note_on_c, 0, 84, 0
2, 42472, Note_on_c, 0, 83, 64
2, 42479, Note_on_c, 0, 83, 0
2, 42480, Note_on_c, 0, 84, 64
2, 42486, Note_on_c, 0, 84, 0
2, 42487, Note_on_c, 0, 83, 64
2, 42494, Note_on_c, 0, 83, 0
2, 42495, Note_on_c, 0, 84, 64
2, 42501, Note_on_c, 0, 84, 0
2, 42502, Note_on_c, 0, 83, 64
2, 42509, Note_on_c, 0, 83, 0
2, 42510, Note_on_c, 0, 85, 64
2, 42516, Note_on_c, 0, 85, 0
2, 42517, Note_on_c, 0, 84, 64
2, 42524, Note_on_c, 0, 84, 0
2, 42525, Note_on_c, 0, 85, 64
2, 42531, Note_on_c, 0, 85, 0
2, 42532, Note_on_c, 0, 84, 64
2, 42539, Note_on_c, 0, 84, 0
2, 42540, Note_on_c, 0, 85, 64
2, 42546, Note_on_c, 0, 85, 0
2, 42547, Note_on_c, 0, 84, 64
2, 42554, Note_on_c, 0, 84, 0
2, 42555, Note_on_c, 0, 85, 64
2, 42561, Note_on_c, 0, 85, 0
2, 42562, Note_on_c, 0, 84, 64
2, 42569, Note_on_c, 0, 84, 0
2, 42570, Note_on_c, 0, 85, 64
2, 42576, Note_on_c, 0, 85, 0
2, 42577, Note_on_c, 0, 84, 64
2, 42584, Note_on_c, 0, 84, 0
2, 42585, Note_on_c, 0, 85, 64
2, 42591, Note_on_c, 0, 85, 0
2, 42592, Note_on_c, 0, 84, 64
2, 42599, Note_on_c, 0, 84, 0
2, 42600, Note_on_c, 0, 85, 64
2, 42606, Note_on_c, 0, 85, 0
2, 42607, Note_on_c, 0, 84, 64
2, 42614, Note_on_c, 0, 84, 0
2, 42615, Note_on_c, 0, 85, 64
2, 42621, Note_on_c, 0, 85, 0
2, 42622, Note_on_c, 0, 84, 64
2, 42629, Note_on_c, 0, 84, 0
2, 42630, Note_on_c, 0, 85, 64
2, 42636, Note_on_c, 0, 85, 0
2, 42637, Note_on_c, 0, 84, 64
2, 42644, Note_on_c, 0, 84, 0
2, 42645, Note_on_c, 0, 85, 64
2, 42651, Note_on_c, 0, 85, 0
2, 42652, Note_on_c, 0, 84, 64
2, 42659, Note_on_c, 0, 84, 0
2, 42660, Note_on_c, 0, 85, 64
2, 42666, Note_on_c, 0, 85, 0
2, 42667, Note_on_c, 0, 84, 64
2, 42674, Note_on_c, 0, 84, 0
2, 42675, Note_on_c, 0, 85, 64
2, 42681, Note_on_c, 0, 85, 0
2, 42682, Note_on_c, 0, 84, 64
2, 42689, Note_on_c, 0, 84, 0
2, 42690, Note_on_c, 0, 86, 64
2, 42696, Note_on_c, 0, 86, 0
2, 42697, Note_on_c, 0, 85, 64
2, 42704, Note_on_c, 0, 85, 0
2, 42705, Note_on_c, 0, 86, 64
2, 42711, Note_on_c, 0, 86, 0
2, 42712, Note_on_c, 0, 85, 64
2, 42719, Note_on_c, 0, 85, 0
2, 42720, Note_on_c, 0, 86, 64
2, 42726, Note_on_c, 0, 86, 0
2, 42727, Note_on_c, 0, 85, 64
2, 42734, Note_on_c, 0, 85, 0
2, 42735, Note_on_c, 0, 86, 64
2, 42741, Note_on_c, 0, 86, 0
2, 42742, Note_on_c, 0, 85, 64
2, 42742, Control_c, 0, 7, 103
2, 42749, Note_on_c, 0, 85, 0
2, 42750, Note_on_c, 0, 86, 64
2, 42756, Note_on_c, 0, 86, 0
2, 42757, Note_on_c, 0, 85, 64
2, 42764, Note_on_c, 0, 85, 0
2, 42765, Note_on_c, 0, 86, 64
2, 42771, Note_on_c, 0, 86, 0
2, 42772, Note_on_c, 0, 85, 64
2, 42779, Note_on_c, 0, 85, 0
2, 42780, Note_on_c, 0, 87, 64
2, 42780, Note_on_c, 0, 34, 64
2, 42786, Note_on_c, 0, 87, 0
2, 42787, Note_on_c, 0, 86, 64
2, 42794, Note_on_c, 0, 86, 0
2, 42795, Note_on_c, 0, 87, 64
2, 42801, Note_on_c, 0, 87, 0
2, 42802, Note_on_c, 0, 86, 64
2, 42809, Note_on_c, 0, 86, 0
2, 42810, Note_on_c, 0, 87, 64
2, 42816, Note_on_c, 0, 87, 0
2, 42817, Note_on_c, 0, 86, 64
2, 42824, Note_on_c, 0, 86, 0
2, 42825, Note_on_c, 0, 87, 64
2, 42831, Note_on_c, 0, 87, 0
2, 42832, Note_on_c, 0, 86, 64
2, 42839, Note_on_c, 0, 86, 0
2, 42840, Note_on_c, 0, 87, 64
2, 42846, Note_on_c, 0, 87, 0
2, 42847, Note_on_c, 0, 86, 64
2, 42854, Note_on_c, 0, 86, 0
2, 42855, Note_on_c, 0, 87, 64
2, 42861, Note_on_c, 0, 87, 0
2, 42862, Note_on_c, 0, 86, 64
2, 42869, Note_on_c, 0, 86, 0
2, 42870, Note_on_c, 0, 87, 64
2, 42876, Note_on_c, 0, 87, 0
2, 42877, Note_on_c, 0, 86, 64
2, 42884, Note_on_c, 0, 86, 0
2, 42885, Note_on_c, 0, 87, 64
2, 42891, Note_on_c, 0, 87, 0
2, 42892, Note_on_c, 0, 86, 64
2, 42899, Note_on_c, 0, 86, 0
2, 42900, Note_on_c, 0, 87, 64
2, 42906, Note_on_c, 0, 87, 0
2, 42907, Note_on_c, 0, 86, 64
2, 42914, Note_on_c, 0, 86, 0
2, 42915, Note_on_c, 0, 87, 64
2, 42921, Note_on_c, 0, 87, 0
2, 42922, Note_on_c, 0, 86, 64
2, 42929, Note_on_c, 0, 86, 0
2, 42930, Note_on_c, 0, 87, 64
2, 42936, Note_on_c, 0, 87, 0
2, 42937, Note_on_c, 0, 86, 64
2, 42944, Note_on_c, 0, 86, 0
2, 42945, Note_on_c, 0, 87, 64
2, 42951, Note_on_c, 0, 87, 0
2, 42952, Note_on_c, 0, 86, 64
2, 42959, Note_on_c, 0, 86, 0
2, 42960, Note_on_c, 0, 87, 64
2, 42966, Note_on_c, 0, 87, 0
2, 42967, Note_on_c, 0, 86, 64
2, 42974, Note_on_c, 0, 86, 0
2, 42975, Note_on_c, 0, 87, 64
2, 42981, Note_on_c, 0, 87, 0
2, 42982, Note_on_c, 0, 86, 64
2, 42989, Note_on_c, 0, 86, 0
2, 42990, Note_on_c, 0, 87, 64
2, 42996, Note_on_c, 0, 87, 0
2, 42997, Note_on_c, 0, 86, 64
2, 43004, Note_on_c, 0, 86, 0
2, 43005, Note_on_c, 0, 87, 64
2, 43011, Note_on_c, 0, 87, 0
2, 43012, Note_on_c, 0, 86, 64
2, 43019, Note_on_c, 0, 86, 0
2, 43020, Note_on_c, 0, 87, 64
2, 43026, Note_on_c, 0, 87, 0
2, 43027, Note_on_c, 0, 86, 64
2, 43034, Note_on_c, 0, 86, 0
2, 43035, Note_on_c, 0, 34, 0
2, 43035, Note_on_c, 0, 87, 64
2, 43041, Note_on_c, 0, 87, 0
2, 43042, Note_on_c, 0, 86, 64
2, 43049, Note_on_c, 0, 86, 0
2, 43050, Note_on_c, 0, 87, 64
2, 43050, Note_on_c, 0, 34, 64
2, 43056, Note_on_c, 0, 87, 0
2, 43057, Note_on_c, 0, 86, 64
2, 43064, Note_on_c, 0, 86, 0
2, 43065, Note_on_c, 0, 87, 64
2, 43071, Note_on_c, 0, 87, 0
2, 43072, Note_on_c, 0, 86, 64
2, 43079, Note_on_c, 0, 86, 0
2, 43080, Note_on_c, 0, 87, 64
2, 43086, Note_on_c, 0, 87, 0
2, 43087, Note_on_c, 0, 86, 64
2, 43094, Note_on_c, 0, 86, 0
2, 43095, Note_on_c, 0, 87, 64
2, 43101, Note_on_c, 0, 87, 0
2, 43102, Note_on_c, 0, 34, 0
2, 43102, Note_on_c, 0, 86, 64
2, 43109, Note_on_c, 0, 86, 0
2, 43110, Note_on_c, 0, 87, 64
2, 43110, Note_on_c, 0, 32, 64
2, 43116, Note_on_c, 0, 87, 0
2, 43117, Note_on_c, 0, 86, 64
2, 43124, Note_on_c, 0, 86, 0
2, 43125, Note_on_c, 0, 84, 64
2, 43131, Note_on_c, 0, 84, 0
2, 43132, Note_on_c, 0, 86, 64
2, 43136, Note_on_c, 0, 32, 0
2, 43139, Note_on_c, 0, 86, 0
2, 43140, Note_on_c, 0, 87, 64
2, 43140, Note_on_c, 0, 31, 64
2, 43218, Note_on_c, 0, 87, 0
2, 43230, Note_on_c, 0, 91, 64
2, 43305, Note_on_c, 0, 31, 0
2, 43308, Note_on_c, 0, 91, 0
2, 43320, Note_on_c, 0, 94, 64
2, 43320, Note_on_c, 0, 30, 64
2, 43398, Note_on_c, 0, 30, 0
2, 43410, Note_on_c, 0, 29, 64
2, 43462, Note_on_c, 0, 94, 0
2, 43470, Note_on_c, 0, 93, 64
2, 43488, Note_on_c, 0, 29, 0
2, 43496, Note_on_c, 0, 93, 0
2, 43500, Note_on_c, 0, 92, 64
2, 43500, Note_on_c, 0, 29, 64
2, 43526, Note_on_c, 0, 92, 0
2, 43530, Note_on_c, 0, 80, 64
2, 43552, Note_on_c, 0, 29, 0
2, 43556, Note_on_c, 0, 80, 0
2, 43560, Note_on_c, 0, 70, 64
2, 43560, Note_on_c, 0, 79, 64
2, 43560, Note_on_c, 0, 31, 64
2, 43586, Note_on_c, 0, 31, 0
2, 43586, Note_on_c, 0, 79, 0
2, 43586, Note_on_c, 0, 70, 0
2, 43590, Note_on_c, 0, 79, 64
2, 43590, Note_on_c, 0, 72, 64
2, 43590, Note_on_c, 0, 32, 64
2, 43616, Note_on_c, 0, 79, 0
2, 43620, Note_on_c, 0, 77, 64
2, 43642, Note_on_c, 0, 32, 0
2, 43642, Note_on_c, 0, 72, 0
2, 43646, Note_on_c, 0, 77, 0
2, 43650, Note_on_c, 0, 75, 64
2, 43650, Note_on_c, 0, 72, 64
2, 43650, Note_on_c, 0, 33, 64
2, 43676, Note_on_c, 0, 33, 0
2, 43676, Note_on_c, 0, 72, 0
2, 43676, Note_on_c, 0, 75, 0
2, 43680, Note_on_c, 0, 75, 64
2, 43680, Note_on_c, 0, 65, 64
2, 43680, Note_on_c, 0, 68, 64
2, 43680, Note_on_c, 0, 34, 64
2, 43706, Note_on_c, 0, 68, 0
2, 43706, Note_on_c, 0, 65, 0
2, 43710, Note_on_c, 0, 65, 64
2, 43710, Note_on_c, 0, 68, 64
2, 43732, Note_on_c, 0, 75, 0
2, 43732, Note_on_c, 0, 34, 0
2, 43736, Note_on_c, 0, 65, 0
2, 43736, Note_on_c, 0, 68, 0
2, 43740, Note_on_c, 0, 74, 64
2, 43740, Note_on_c, 0, 65, 64
2, 43740, Note_on_c, 0, 68, 64
2, 43766, Note_on_c, 0, 68, 0
2, 43766, Note_on_c, 0, 65, 0
2, 43766, Note_on_c, 0, 74, 0
2, 43770, Note_on_c, 0, 65, 64
2, 43770, Note_on_c, 0, 68, 64
2, 43796, Note_on_c, 0, 68, 0
2, 43796, Note_on_c, 0, 65, 0
2, 43800, Note_on_c, 0, 75, 64
2, 43800, Note_on_c, 0, 65, 64
2, 43800, Note_on_c, 0, 68, 64
2, 43826, Note_on_c, 0, 68, 0
2, 43826, Note_on_c, 0, 65, 0
2, 43830, Note_on_c, 0, 65, 64
2, 43830, Note_on_c, 0, 68, 64
2, 43852, Note_on_c, 0, 75, 0
2, 43856, Note_on_c, 0, 68, 0
2, 43856, Note_on_c, 0, 65, 0
2, 43860, Note_on_c, 0, 65, 64
2, 43860, Note_on_c, 0, 68, 64
2, 43886, Note_on_c, 0, 68, 0
2, 43886, Note_on_c, 0, 65, 0
2, 43890, Note_on_c, 0, 77, 64
2, 43890, Note_on_c, 0, 65, 64
2, 43890, Note_on_c, 0, 68, 64
2, 43916, Note_on_c, 0, 68, 0
2, 43916, Note_on_c, 0, 65, 0
2, 43916, Note_on_c, 0, 77, 0
2, 43920, Note_on_c, 0, 70, 64
2, 43920, Note_on_c, 0, 65, 64
2, 43920, Note_on_c, 0, 68, 64
2, 43946, Note_on_c, 0, 68, 0
2, 43946, Note_on_c, 0, 65, 0
2, 43946, Note_on_c, 0, 70, 0
2, 43950, Note_on_c, 0, 67, 64
2, 43950, Note_on_c, 0, 70, 64
2, 43976, Note_on_c, 0, 67, 0
2, 43980, Note_on_c, 0, 67, 64
2, 43980, Note_on_c, 0, 39, 64
2, 43980, Note_on_c, 0, 51, 64
2, 44002, Note_on_c, 0, 70, 0
2, 44006, Note_on_c, 0, 67, 0
2, 44010, Note_on_c, 0, 67, 64
2, 44032, Note_on_c, 0, 39, 0
2, 44032, Note_on_c, 0, 51, 0
2, 44036, Note_on_c, 0, 67, 0
2, 44040, Note_on_c, 0, 67, 64
2, 44066, Note_on_c, 0, 67, 0
2, 44070, Note_on_c, 0, 67, 64
2, 44070, Note_on_c, 0, 41, 64
2, 44070, Note_on_c, 0, 53, 64
2, 44096, Note_on_c, 0, 67, 0
2, 44100, Note_on_c, 0, 67, 64
2, 44122, Note_on_c, 0, 53, 0
2, 44122, Note_on_c, 0, 41, 0
2, 44126, Note_on_c, 0, 67, 0
2, 44130, Note_on_c, 0, 63, 64
2, 44130, Note_on_c, 0, 67, 64
2, 44156, Note_on_c, 0, 67, 0
2, 44156, Note_on_c, 0, 63, 0
2, 44160, Note_on_c, 0, 63, 64
2, 44160, Note_on_c, 0, 67, 64
2, 44160, Note_on_c, 0, 43, 64
2, 44160, Note_on_c, 0, 55, 64
2, 44186, Note_on_c, 0, 55, 0
2, 44186, Note_on_c, 0, 63, 0
2, 44186, Note_on_c, 0, 67, 0
2, 44186, Note_on_c, 0, 43, 0
2, 44190, Note_on_c, 0, 63, 64
2, 44190, Note_on_c, 0, 67, 64
2, 44190, Note_on_c, 0, 36, 64
2, 44190, Note_on_c, 0, 48, 64
2, 44216, Note_on_c, 0, 48, 0
2, 44216, Note_on_c, 0, 63, 0
2, 44216, Note_on_c, 0, 67, 0
2, 44216, Note_on_c, 0, 36, 0
2, 44220, Note_on_c, 0, 65, 64
2, 44220, Note_on_c, 0, 67, 64
2, 44220, Note_on_c, 0, 35, 64
2, 44220, Note_on_c, 0, 47, 64
2, 44246, Note_on_c, 0, 47, 0
2, 44246, Note_on_c, 0, 65, 0
2, 44246, Note_on_c, 0, 67, 0
2, 44246, Note_on_c, 0, 35, 0
2, 44250, Note_on_c, 0, 71, 64
2, 44250, Note_on_c, 0, 65, 64
2, 44250, Note_on_c, 0, 67, 64
2, 44276, Note_on_c, 0, 67, 0
2, 44276, Note_on_c, 0, 65, 0
2, 44280, Note_on_c, 0, 65, 64
2, 44280, Note_on_c, 0, 67, 64
2, 44302, Note_on_c, 0, 71, 0
2, 44306, Note_on_c, 0, 67, 0
2, 44306, Note_on_c, 0, 65, 0
2, 44310, Note_on_c, 0, 65, 64
2, 44310, Note_on_c, 0, 67, 64
2, 44336, Note_on_c, 0, 67, 0
2, 44336, Note_on_c, 0, 65, 0
2, 44340, Note_on_c, 0, 72, 64
2, 44340, Note_on_c, 0, 65, 64
2, 44340, Note_on_c, 0, 67, 64
2, 44366, Note_on_c, 0, 67, 0
2, 44366, Note_on_c, 0, 65, 0
2, 44370, Note_on_c, 0, 65, 64
2, 44370, Note_on_c, 0, 67, 64
2, 44392, Note_on_c, 0, 72, 0
2, 44396, Note_on_c, 0, 67, 0
2, 44396, Note_on_c, 0, 65, 0
2, 44400, Note_on_c, 0, 65, 64
2, 44400, Note_on_c, 0, 67, 64
2, 44426, Note_on_c, 0, 67, 0
2, 44426, Note_on_c, 0, 65, 0
2, 44430, Note_on_c, 0, 74, 64
2, 44430, Note_on_c, 0, 65, 64
2, 44430, Note_on_c, 0, 67, 64
2, 44456, Note_on_c, 0, 67, 0
2, 44456, Note_on_c, 0, 65, 0
2, 44456, Note_on_c, 0, 74, 0
2, 44460, Note_on_c, 0, 67, 64
2, 44460, Note_on_c, 0, 65, 64
2, 44486, Note_on_c, 0, 65, 0
2, 44486, Note_on_c, 0, 67, 0
2, 44490, Note_on_c, 0, 63, 64
2, 44490, Note_on_c, 0, 67, 64
2, 44516, Note_on_c, 0, 63, 0
2, 44520, Note_on_c, 0, 63, 64
2, 44520, Note_on_c, 0, 36, 64
2, 44520, Note_on_c, 0, 48, 64
2, 44542, Note_on_c, 0, 67, 0
2, 44546, Note_on_c, 0, 63, 0
2, 44550, Note_on_c, 0, 63, 64
2, 44572, Note_on_c, 0, 36, 0
2, 44572, Note_on_c, 0, 48, 0
2, 44576, Note_on_c, 0, 63, 0
2, 44580, Note_on_c, 0, 63, 64
2, 44606, Note_on_c, 0, 63, 0
2, 44610, Note_on_c, 0, 63, 64
2, 44610, Note_on_c, 0, 37, 64
2, 44610, Note_on_c, 0, 49, 64
2, 44636, Note_on_c, 0, 63, 0
2, 44640, Note_on_c, 0, 63, 64
2, 44662, Note_on_c, 0, 49, 0
2, 44662, Note_on_c, 0, 37, 0
2, 44666, Note_on_c, 0, 63, 0
2, 44670, Note_on_c, 0, 60, 64
2, 44670, Note_on_c, 0, 63, 64
2, 44696, Note_on_c, 0, 63, 0
2, 44696, Note_on_c, 0, 60, 0
2, 44700, Note_on_c, 0, 60, 64
2, 44700, Note_on_c, 0, 63, 64
2, 44700, Note_on_c, 0, 39, 64
2, 44700, Note_on_c, 0, 51, 64
2, 44726, Note_on_c, 0, 51, 0
2, 44726, Note_on_c, 0, 60, 0
2, 44726, Note_on_c, 0, 63, 0
2, 44726, Note_on_c, 0, 39, 0
2, 44730, Note_on_c, 0, 60, 64
2, 44730, Note_on_c, 0, 63, 64
2, 44730, Note_on_c, 0, 32, 64
2, 44730, Note_on_c, 0, 44, 64
2, 44756, Note_on_c, 0, 44, 0
2, 44756, Note_on_c, 0, 60, 0
2, 44756, Note_on_c, 0, 63, 0
2, 44756, Note_on_c, 0, 32, 0
2, 44760, Note_on_c, 0, 61, 64
2, 44760, Note_on_c, 0, 63, 64
2, 44760, Note_on_c, 0, 31, 64
2, 44760, Note_on_c, 0, 43, 64
2, 44786, Note_on_c, 0, 43, 0
2, 44786, Note_on_c, 0, 61, 0
2, 44786, Note_on_c, 0, 63, 0
2, 44786, Note_on_c, 0, 31, 0
2, 44790, Note_on_c, 0, 67, 64
2, 44790, Note_on_c, 0, 61, 64
2, 44790, Note_on_c, 0, 63, 64
2, 44816, Note_on_c, 0, 63, 0
2, 44816, Note_on_c, 0, 61, 0
2, 44820, Note_on_c, 0, 61, 64
2, 44820, Note_on_c, 0, 63, 64
2, 44842, Note_on_c, 0, 67, 0
2, 44846, Note_on_c, 0, 63, 0
2, 44846, Note_on_c, 0, 61, 0
2, 44850, Note_on_c, 0, 61, 64
2, 44850, Note_on_c, 0, 63, 64
2, 44876, Note_on_c, 0, 63, 0
2, 44876, Note_on_c, 0, 61, 0
2, 44880, Note_on_c, 0, 68, 64
2, 44880, Note_on_c, 0, 61, 64
2, 44880, Note_on_c, 0, 63, 64
2, 44906, Note_on_c, 0, 63, 0
2, 44906, Note_on_c, 0, 61, 0
2, 44910, Note_on_c, 0, 61, 64
2, 44910, Note_on_c, 0, 63, 64
2, 44932, Note_on_c, 0, 68, 0
2, 44936, Note_on_c, 0, 63, 0
2, 44936, Note_on_c, 0, 61, 0
2, 44940, Note_on_c, 0, 61, 64
2, 44940, Note_on_c, 0, 63, 64
2, 44966, Note_on_c, 0, 63, 0
2, 44966, Note_on_c, 0, 61, 0
2, 44970, Note_on_c, 0, 61, 64
2, 44970, Note_on_c, 0, 63, 64
2, 44970, Note_on_c, 0, 70, 64
2, 44996, Note_on_c, 0, 70, 0
2, 44996, Note_on_c, 0, 63, 0
2, 44996, Note_on_c, 0, 61, 0
2, 45000, Note_on_c, 0, 61, 64
2, 45000, Note_on_c, 0, 63, 64
2, 45026, Note_on_c, 0, 63, 0
2, 45026, Note_on_c, 0, 61, 0
2, 45030, Note_on_c, 0, 61, 64
2, 45030, Note_on_c, 0, 63, 64
2, 45056, Note_on_c, 0, 61, 0
2, 45060, Note_on_c, 0, 60, 64
2, 45060, Note_on_c, 0, 44, 64
2, 45060, Note_on_c, 0, 56, 64
2, 45082, Note_on_c, 0, 63, 0
2, 45086, Note_on_c, 0, 60, 0
2, 45090, Note_on_c, 0, 60, 64
2, 45090, Note_on_c, 0, 63, 64
2, 45112, Note_on_c, 0, 44, 0
2, 45112, Note_on_c, 0, 56, 0
2, 45116, Note_on_c, 0, 60, 0
2, 45116, Note_on_c, 0, 63, 0
2, 45120, Note_on_c, 0, 60, 64
2, 45120, Note_on_c, 0, 63, 64
2, 45146, Note_on_c, 0, 63, 0
2, 45146, Note_on_c, 0, 60, 0
2, 45150, Note_on_c, 0, 60, 64
2, 45150, Note_on_c, 0, 62, 64
2, 45150, Note_on_c, 0, 69, 64
2, 45150, Note_on_c, 0, 42, 64
2, 45150, Note_on_c, 0, 54, 64
2, 45176, Note_on_c, 0, 69, 0
2, 45176, Note_on_c, 0, 60, 0
2, 45176, Note_on_c, 0, 62, 0
2, 45180, Note_on_c, 0, 60, 64
2, 45180, Note_on_c, 0, 62, 64
2, 45202, Note_on_c, 0, 42, 0
2, 45202, Note_on_c, 0, 54, 0
2, 45206, Note_on_c, 0, 60, 0
2, 45206, Note_on_c, 0, 62, 0
2, 45210, Note_on_c, 0, 60, 64
2, 45210, Note_on_c, 0, 62, 64
2, 45236, Note_on_c, 0, 60, 0
2, 45240, Note_on_c, 0, 59, 64
2, 45240, Note_on_c, 0, 43, 64
2, 45240, Note_on_c, 0, 55, 64
2, 45262, Note_on_c, 0, 62, 0
2, 45266, Note_on_c, 0, 59, 0
2, 45270, Note_on_c, 0, 59, 64
2, 45270, Note_on_c, 0, 62, 64
2, 45292, Note_on_c, 0, 43, 0
2, 45292, Note_on_c, 0, 55, 0
2, 45296, Note_on_c, 0, 59, 0
2, 45296, Note_on_c, 0, 62, 0
2, 45300, Note_on_c, 0, 58, 64
2, 45300, Note_on_c, 0, 61, 64
2, 45326, Note_on_c, 0, 61, 0
2, 45326, Note_on_c, 0, 58, 0
2, 45330, Note_on_c, 0, 58, 64
2, 45330, Note_on_c, 0, 62, 64
2, 45330, Note_on_c, 0, 67, 64
2, 45330, Note_on_c, 0, 76, 64
2, 45356, Note_on_c, 0, 67, 0
2, 45356, Note_on_c, 0, 58, 0
2, 45356, Note_on_c, 0, 62, 0
2, 45360, Note_on_c, 0, 58, 64
2, 45360, Note_on_c, 0, 60, 64
2, 45382, Note_on_c, 0, 76, 0
2, 45386, Note_on_c, 0, 60, 0
2, 45386, Note_on_c, 0, 58, 0
2, 45390, Note_on_c, 0, 58, 64
2, 45390, Note_on_c, 0, 60, 64
2, 45416, Note_on_c, 0, 58, 0
2, 45420, Note_on_c, 0, 57, 64
2, 45420, Note_on_c, 0, 77, 64
2, 45442, Note_on_c, 0, 60, 0
2, 45446, Note_on_c, 0, 57, 0
2, 45450, Note_on_c, 0, 57, 64
2, 45450, Note_on_c, 0, 60, 64
2, 45472, Note_on_c, 0, 77, 0
2, 45476, Note_on_c, 0, 60, 0
2, 45476, Note_on_c, 0, 57, 0
2, 45480, Note_on_c, 0, 56, 64
2, 45480, Note_on_c, 0, 59, 64
2, 45506, Note_on_c, 0, 59, 0
2, 45506, Note_on_c, 0, 56, 0
2, 45510, Note_on_c, 0, 56, 64
2, 45510, Note_on_c, 0, 58, 64
2, 45510, Note_on_c, 0, 65, 64
2, 45510, Note_on_c, 0, 74, 64
2, 45536, Note_on_c, 0, 65, 0
2, 45536, Note_on_c, 0, 56, 0
2, 45536, Note_on_c, 0, 58, 0
2, 45540, Note_on_c, 0, 56, 64
2, 45540, Note_on_c, 0, 58, 64
2, 45562, Note_on_c, 0, 74, 0
2, 45566, Note_on_c, 0, 58, 0
2, 45566, Note_on_c, 0, 56, 0
2, 45570, Note_on_c, 0, 56, 64
2, 45570, Note_on_c, 0, 58, 64
2, 45596, Note_on_c, 0, 56, 0
2, 45600, Note_on_c, 0, 55, 64
2, 45600, Note_on_c, 0, 39, 64
2, 45600, Note_on_c, 0, 51, 64
2, 45622, Note_on_c, 0, 58, 0
2, 45626, Note_on_c, 0, 55, 0
2, 45630, Note_on_c, 0, 55, 64
2, 45630, Note_on_c, 0, 58, 64
2, 45652, Note_on_c, 0, 39, 0
2, 45652, Note_on_c, 0, 51, 0
2, 45656, Note_on_c, 0, 55, 0
2, 45656, Note_on_c, 0, 58, 0
2, 45660, Note_on_c, 0, 55, 64
2, 45660, Note_on_c, 0, 58, 64
2, 45686, Note_on_c, 0, 58, 0
2, 45686, Note_on_c, 0, 55, 0
2, 45690, Note_on_c, 0, 55, 64
2, 45690, Note_on_c, 0, 63, 64
2, 45690, Note_on_c, 0, 36, 64
2, 45690, Note_on_c, 0, 48, 64
2, 45716, Note_on_c, 0, 63, 0
2, 45716, Note_on_c, 0, 55, 0
2, 45720, Note_on_c, 0, 55, 64
2, 45720, Note_on_c, 0, 57, 64
2, 45742, Note_on_c, 0, 36, 0
2, 45742, Note_on_c, 0, 48, 0
2, 45746, Note_on_c, 0, 55, 0
2, 45746, Note_on_c, 0, 57, 0
2, 45750, Note_on_c, 0, 55, 64
2, 45750, Note_on_c, 0, 57, 64
2, 45750, Note_on_c, 0, 38, 64
2, 45750, Note_on_c, 0, 50, 64
2, 45776, Note_on_c, 0, 50, 0
2, 45776, Note_on_c, 0, 38, 0
2, 45776, Note_on_c, 0, 55, 0
2, 45780, Note_on_c, 0, 54, 64
2, 45780, Note_on_c, 0, 36, 64
2, 45780, Note_on_c, 0, 48, 64
2, 45802, Note_on_c, 0, 57, 0
2, 45806, Note_on_c, 0, 54, 0
2, 45806, Note_on_c, 0, 36, 0
2, 45806, Note_on_c, 0, 48, 0
2, 45810, Note_on_c, 0, 54, 64
2, 45810, Note_on_c, 0, 57, 64
2, 45810, Note_on_c, 0, 62, 64
2, 45836, Note_on_c, 0, 62, 0
2, 45836, Note_on_c, 0, 57, 0
2, 45836, Note_on_c, 0, 54, 0
2, 45840, Note_on_c, 0, 53, 64
2, 45840, Note_on_c, 0, 56, 64
2, 45840, Note_on_c, 0, 62, 64
2, 45840, Note_on_c, 0, 35, 64
2, 45840, Note_on_c, 0, 47, 64
2, 45866, Note_on_c, 0, 47, 0
2, 45866, Note_on_c, 0, 62, 0
2, 45866, Note_on_c, 0, 53, 0
2, 45866, Note_on_c, 0, 56, 0
2, 45866, Note_on_c, 0, 35, 0
2, 45870, Note_on_c, 0, 53, 64
2, 45870, Note_on_c, 0, 55, 64
2, 45870, Note_on_c, 0, 62, 64
2, 45870, Note_on_c, 0, 71, 64
2, 45896, Note_on_c, 0, 62, 0
2, 45896, Note_on_c, 0, 53, 0
2, 45896, Note_on_c, 0, 55, 0
2, 45900, Note_on_c, 0, 53, 64
2, 45900, Note_on_c, 0, 55, 64
2, 45922, Note_on_c, 0, 71, 0
2, 45926, Note_on_c, 0, 55, 0
2, 45926, Note_on_c, 0, 53, 0
2, 45930, Note_on_c, 0, 53, 64
2, 45930, Note_on_c, 0, 55, 64
2, 45956, Note_on_c, 0, 55, 0
2, 45956, Note_on_c, 0, 53, 0
2, 45960, Note_on_c, 0, 51, 64
2, 45960, Note_on_c, 0, 55, 64
2, 45960, Note_on_c, 0, 72, 64
2, 45986, Note_on_c, 0, 55, 0
2, 45986, Note_on_c, 0, 51, 0
2, 45990, Note_on_c, 0, 51, 64
2, 45990, Note_on_c, 0, 55, 64
2, 45990, Note_on_c, 0, 60, 64
2, 46012, Note_on_c, 0, 72, 0
2, 46016, Note_on_c, 0, 51, 0
2, 46016, Note_on_c, 0, 55, 0
2, 46016, Note_on_c, 0, 60, 0
2, 46020, Note_on_c, 0, 51, 64
2, 46020, Note_on_c, 0, 54, 64
2, 46020, Note_on_c, 0, 60, 64
2, 46046, Note_on_c, 0, 60, 0
2, 46046, Note_on_c, 0, 54, 0
2, 46046, Note_on_c, 0, 51, 0
2, 46050, Note_on_c, 0, 51, 64
2, 46050, Note_on_c, 0, 53, 64
2, 46050, Note_on_c, 0, 60, 64
2, 46050, Note_on_c, 0, 69, 64
2, 46076, Note_on_c, 0, 60, 0
2, 46076, Note_on_c, 0, 51, 0
2, 46076, Note_on_c, 0, 53, 0
2, 46080, Note_on_c, 0, 51, 64
2, 46080, Note_on_c, 0, 53, 64
2, 46102, Note_on_c, 0, 69, 0
2, 46106, Note_on_c, 0, 53, 0
2, 46106, Note_on_c, 0, 51, 0
2, 46110, Note_on_c, 0, 51, 64
2, 46110, Note_on_c, 0, 53, 64
2, 46136, Note_on_c, 0, 53, 0
2, 46136, Note_on_c, 0, 51, 0
2, 46140, Note_on_c, 0, 50, 64
2, 46140, Note_on_c, 0, 53, 64
2, 46140, Note_on_c, 0, 34, 64
2, 46140, Note_on_c, 0, 46, 64
2, 46166, Note_on_c, 0, 53, 0
2, 46166, Note_on_c, 0, 50, 0
2, 46170, Note_on_c, 0, 50, 64
2, 46170, Note_on_c, 0, 53, 64
2, 46170, Note_on_c, 0, 58, 64
2, 46192, Note_on_c, 0, 34, 0
2, 46192, Note_on_c, 0, 46, 0
2, 46196, Note_on_c, 0, 53, 0
2, 46196, Note_on_c, 0, 50, 0
2, 46196, Note_on_c, 0, 58, 0
2, 46200, Note_on_c, 0, 50, 64
2, 46200, Note_on_c, 0, 51, 64
2, 46200, Note_on_c, 0, 58, 64
2, 46226, Note_on_c, 0, 58, 0
2, 46226, Note_on_c, 0, 51, 0
2, 46226, Note_on_c, 0, 50, 0
2, 46230, Note_on_c, 0, 50, 64
2, 46230, Note_on_c, 0, 51, 64
2, 46230, Note_on_c, 0, 58, 64
2, 46230, Note_on_c, 0, 31, 64
2, 46230, Note_on_c, 0, 43, 64
2, 46256, Note_on_c, 0, 58, 0
2, 46256, Note_on_c, 0, 50, 0
2, 46256, Note_on_c, 0, 51, 0
2, 46260, Note_on_c, 0, 50, 64
2, 46260, Note_on_c, 0, 51, 64
2, 46282, Note_on_c, 0, 31, 0
2, 46282, Note_on_c, 0, 43, 0
2, 46286, Note_on_c, 0, 50, 0
2, 46286, Note_on_c, 0, 51, 0
2, 46290, Note_on_c, 0, 48, 64
2, 46290, Note_on_c, 0, 51, 64
2, 46290, Note_on_c, 0, 32, 64
2, 46298, Note_on_c, 0, 32, 0
2, 46299, Note_on_c, 0, 44, 64
2, 46308, Note_on_c, 0, 44, 0
2, 46309, Note_on_c, 0, 32, 64
2, 46316, Note_on_c, 0, 51, 0
2, 46316, Note_on_c, 0, 48, 0
2, 46318, Note_on_c, 0, 32, 0
2, 46320, Note_on_c, 0, 48, 64
2, 46320, Note_on_c, 0, 51, 64
2, 46320, Note_on_c, 0, 44, 64
2, 46328, Note_on_c, 0, 44, 0
2, 46329, Note_on_c, 0, 32, 64
2, 46338, Note_on_c, 0, 32, 0
2, 46339, Note_on_c, 0, 44, 64
2, 46346, Note_on_c, 0, 51, 0
2, 46346, Note_on_c, 0, 48, 0
2, 46348, Note_on_c, 0, 44, 0
2, 46350, Note_on_c, 0, 51, 64
2, 46350, Note_on_c, 0, 60, 64
2, 46350, Note_on_c, 0, 32, 64
2, 46358, Note_on_c, 0, 32, 0
2, 46359, Note_on_c, 0, 44, 64
2, 46368, Note_on_c, 0, 44, 0
2, 46369, Note_on_c, 0, 32, 64
2, 46376, Note_on_c, 0, 60, 0
2, 46376, Note_on_c, 0, 51, 0
2, 46378, Note_on_c, 0, 32, 0
2, 46380, Note_on_c, 0, 60, 64
2, 46380, Note_on_c, 0, 63, 64
2, 46380, Note_on_c, 0, 42, 64
2, 46388, Note_on_c, 0, 42, 0
2, 46389, Note_on_c, 0, 30, 64
2, 46398, Note_on_c, 0, 30, 0
2, 46399, Note_on_c, 0, 42, 64
2, 46406, Note_on_c, 0, 63, 0
2, 46406, Note_on_c, 0, 60, 0
2, 46408, Note_on_c, 0, 42, 0
2, 46410, Note_on_c, 0, 60, 64
2, 46410, Note_on_c, 0, 63, 64
2, 46410, Note_on_c, 0, 30, 64
2, 46418, Note_on_c, 0, 30, 0
2, 46419, Note_on_c, 0, 42, 64
2, 46428, Note_on_c, 0, 42, 0
2, 46429, Note_on_c, 0, 30, 64
2, 46436, Note_on_c, 0, 63, 0
2, 46436, Note_on_c, 0, 60, 0
2, 46438, Note_on_c, 0, 30, 0
2, 46440, Note_on_c, 0, 63, 64
2, 46440, Note_on_c, 0, 72, 64
2, 46440, Note_on_c, 0, 42, 64
2, 46448, Note_on_c, 0, 42, 0
2, 46449, Note_on_c, 0, 30, 64
2, 46458, Note_on_c, 0, 30, 0
2, 46459, Note_on_c, 0, 42, 64
2, 46466, Note_on_c, 0, 72, 0
2, 46466, Note_on_c, 0, 63, 0
2, 46468, Note_on_c, 0, 42, 0
2, 46470, Note_on_c, 0, 62, 64
2, 46470, Note_on_c, 0, 72, 64
2, 46470, Note_on_c, 0, 31, 64
2, 46478, Note_on_c, 0, 31, 0
2, 46479, Note_on_c, 0, 43, 64
2, 46488, Note_on_c, 0, 43, 0
2, 46489, Note_on_c, 0, 31, 64
2, 46496, Note_on_c, 0, 72, 0
2, 46496, Note_on_c, 0, 62, 0
2, 46498, Note_on_c, 0, 31, 0
2, 46500, Note_on_c, 0, 62, 64
2, 46500, Note_on_c, 0, 72, 64
2, 46500, Note_on_c, 0, 43, 64
2, 46508, Note_on_c, 0, 43, 0
2, 46509, Note_on_c, 0, 31, 64
2, 46518, Note_on_c, 0, 31, 0
2, 46519, Note_on_c, 0, 43, 64
2, 46526, Note_on_c, 0, 72, 0
2, 46526, Note_on_c, 0, 62, 0
2, 46528, Note_on_c, 0, 43, 0
2, 46530, Note_on_c, 0, 62, 64
2, 46530, Note_on_c, 0, 71, 64
2, 46530, Note_on_c, 0, 31, 64
2, 46538, Note_on_c, 0, 31, 0
2, 46539, Note_on_c, 0, 43, 64
2, 46548, Note_on_c, 0, 43, 0
2, 46549, Note_on_c, 0, 31, 64
2, 46556, Note_on_c, 0, 71, 0
2, 46556, Note_on_c, 0, 62, 0
2, 46558, Note_on_c, 0, 31, 0
2, 46560, Note_on_c, 0, 60, 64
2, 46560, Note_on_c, 0, 64, 64
2, 46560, Note_on_c, 0, 72, 64
2, 46560, Note_on_c, 0, 43, 64
2, 46568, Note_on_c, 0, 43, 0
2, 46569, Note_on_c, 0, 36, 64
2, 46578, Note_on_c, 0, 36, 0
2, 46579, Note_on_c, 0, 40, 64
2, 46586, Note_on_c, 0, 64, 0
2, 46586, Note_on_c, 0, 60, 0
2, 46588, Note_on_c, 0, 40, 0
2, 46590, Note_on_c, 0, 60, 64
2, 46590, Note_on_c, 0, 64, 64
2, 46590, Note_on_c, 0, 43, 64
2, 46598, Note_on_c, 0, 43, 0
2, 46599, Note_on_c, 0, 48, 64
2, 46608, Note_on_c, 0, 48, 0
2, 46609, Note_on_c, 0, 52, 64
2, 46616, Note_on_c, 0, 64, 0
2, 46616, Note_on_c, 0, 72, 0
2, 46616, Note_on_c, 0, 60, 0
2, 46618, Note_on_c, 0, 52, 0
2, 46620, Note_on_c, 0, 60, 64
2, 46620, Note_on_c, 0, 64, 64
2, 46620, Note_on_c, 0, 67, 64
2, 46620, Note_on_c, 0, 48, 64
2, 46628, Note_on_c, 0, 48, 0
2, 46629, Note_on_c, 0, 52, 64
2, 46638, Note_on_c, 0, 52, 0
2, 46639, Note_on_c, 0, 55, 64
2, 46646, Note_on_c, 0, 67, 0
2, 46646, Note_on_c, 0, 60, 0
2, 46646, Note_on_c, 0, 64, 0
2, 46648, Note_on_c, 0, 55, 0
2, 46650, Note_on_c, 0, 64, 64
2, 46650, Note_on_c, 0, 67, 64
2, 46650, Note_on_c, 0, 48, 64
2, 46658, Note_on_c, 0, 48, 0
2, 46659, Note_on_c, 0, 52, 64
2, 46668, Note_on_c, 0, 52, 0
2, 46669, Note_on_c, 0, 55, 64
2, 46676, Note_on_c, 0, 64, 0
2, 46678, Note_on_c, 0, 55, 0
2, 46680, Note_on_c, 0, 62, 64
2, 46680, Note_on_c, 0, 47, 64
2, 46688, Note_on_c, 0, 47, 0
2, 46689, Note_on_c, 0, 50, 64
2, 46698, Note_on_c, 0, 50, 0
2, 46699, Note_on_c, 0, 55, 64
2, 46706, Note_on_c, 0, 62, 0
2, 46708, Note_on_c, 0, 55, 0
2, 46710, Note_on_c, 0, 64, 64
2, 46710, Note_on_c, 0, 48, 64
2, 46718, Note_on_c, 0, 48, 0
2, 46719, Note_on_c, 0, 52, 64
2, 46728, Note_on_c, 0, 52, 0
2, 46729, Note_on_c, 0, 55, 64
2, 46736, Note_on_c, 0, 64, 0
2, 46738, Note_on_c, 0, 55, 0
2, 46740, Note_on_c, 0, 65, 64
2, 46740, Note_on_c, 0, 50, 64
2, 46748, Note_on_c, 0, 50, 0
2, 46749, Note_on_c, 0, 53, 64
2, 46758, Note_on_c, 0, 53, 0
2, 46759, Note_on_c, 0, 55, 64
2, 46766, Note_on_c, 0, 65, 0
2, 46768, Note_on_c, 0, 55, 0
2, 46770, Note_on_c, 0, 64, 64
2, 46770, Note_on_c, 0, 48, 64
2, 46778, Note_on_c, 0, 48, 0
2, 46779, Note_on_c, 0, 52, 64
2, 46788, Note_on_c, 0, 52, 0
2, 46789, Note_on_c, 0, 55, 64
2, 46796, Note_on_c, 0, 64, 0
2, 46798, Note_on_c, 0, 55, 0
2, 46800, Note_on_c, 0, 65, 64
2, 46800, Note_on_c, 0, 50, 64
2, 46808, Note_on_c, 0, 50, 0
2, 46809, Note_on_c, 0, 53, 64
2, 46815, Note_on_c, 0, 67, 0
2, 46818, Note_on_c, 0, 53, 0
2, 46819, Note_on_c, 0, 55, 64
2, 46826, Note_on_c, 0, 65, 0
2, 46828, Note_on_c, 0, 55, 0
2, 46830, Note_on_c, 0, 62, 64
2, 46830, Note_on_c, 0, 74, 64
2, 46830, Note_on_c, 0, 47, 64
2, 46838, Note_on_c, 0, 47, 0
2, 46839, Note_on_c, 0, 50, 64
2, 46848, Note_on_c, 0, 50, 0
2, 46849, Note_on_c, 0, 55, 64
2, 46856, Note_on_c, 0, 62, 0
2, 46858, Note_on_c, 0, 55, 0
2, 46860, Note_on_c, 0, 60, 64
2, 46860, Note_on_c, 0, 45, 64
2, 46868, Note_on_c, 0, 45, 0
2, 46869, Note_on_c, 0, 48, 64
2, 46878, Note_on_c, 0, 48, 0
2, 46879, Note_on_c, 0, 55, 64
2, 46882, Note_on_c, 0, 74, 0
2, 46886, Note_on_c, 0, 60, 0
2, 46888, Note_on_c, 0, 55, 0
2, 46890, Note_on_c, 0, 62, 64
2, 46890, Note_on_c, 0, 65, 64
2, 46890, Note_on_c, 0, 67, 64
2, 46890, Note_on_c, 0, 47, 64
2, 46898, Note_on_c, 0, 47, 0
2, 46899, Note_on_c, 0, 50, 64
2, 46908, Note_on_c, 0, 50, 0
2, 46909, Note_on_c, 0, 55, 64
2, 46916, Note_on_c, 0, 67, 0
2, 46916, Note_on_c, 0, 62, 0
2, 46916, Note_on_c, 0, 65, 0
2, 46918, Note_on_c, 0, 55, 0
2, 46920, Note_on_c, 0, 62, 64
2, 46920, Note_on_c, 0, 67, 64
2, 46920, Note_on_c, 0, 47, 64
2, 46928, Note_on_c, 0, 47, 0
2, 46929, Note_on_c, 0, 50, 64
2, 46938, Note_on_c, 0, 50, 0
2, 46939, Note_on_c, 0, 55, 64
2, 46946, Note_on_c, 0, 62, 0
2, 46948, Note_on_c, 0, 55, 0
2, 46950, Note_on_c, 0, 64, 64
2, 46950, Note_on_c, 0, 48, 64
2, 46958, Note_on_c, 0, 48, 0
2, 46959, Note_on_c, 0, 52, 64
2, 46968, Note_on_c, 0, 52, 0
2, 46969, Note_on_c, 0, 55, 64
2, 46976, Note_on_c, 0, 64, 0
2, 46978, Note_on_c, 0, 55, 0
2, 46980, Note_on_c, 0, 62, 64
2, 46980, Note_on_c, 0, 47, 64
2, 46988, Note_on_c, 0, 47, 0
2, 46989, Note_on_c, 0, 50, 64
2, 46998, Note_on_c, 0, 50, 0
2, 46999, Note_on_c, 0, 55, 64
2, 47006, Note_on_c, 0, 62, 0
2, 47008, Note_on_c, 0, 55, 0
2, 47010, Note_on_c, 0, 64, 64
2, 47010, Note_on_c, 0, 48, 64
2, 47018, Note_on_c, 0, 48, 0
2, 47019, Note_on_c, 0, 52, 64
2, 47028, Note_on_c, 0, 52, 0
2, 47029, Note_on_c, 0, 55, 64
2, 47036, Note_on_c, 0, 64, 0
2, 47038, Note_on_c, 0, 55, 0
2, 47040, Note_on_c, 0, 65, 64
2, 47040, Note_on_c, 0, 50, 64
2, 47048, Note_on_c, 0, 50, 0
2, 47049, Note_on_c, 0, 53, 64
2, 47058, Note_on_c, 0, 53, 0
2, 47059, Note_on_c, 0, 55, 64
2, 47066, Note_on_c, 0, 65, 0
2, 47068, Note_on_c, 0, 55, 0
2, 47070, Note_on_c, 0, 64, 64
2, 47070, Note_on_c, 0, 48, 64
2, 47078, Note_on_c, 0, 48, 0
2, 47079, Note_on_c, 0, 52, 64
2, 47085, Note_on_c, 0, 67, 0
2, 47088, Note_on_c, 0, 52, 0
2, 47089, Note_on_c, 0, 55, 64
2, 47096, Note_on_c, 0, 64, 0
2, 47098, Note_on_c, 0, 55, 0
2, 47100, Note_on_c, 0, 65, 64
2, 47100, Note_on_c, 0, 67, 64
2, 47100, Note_on_c, 0, 50, 64
2, 47108, Note_on_c, 0, 50, 0
2, 47109, Note_on_c, 0, 53, 64
2, 47118, Note_on_c, 0, 53, 0
2, 47119, Note_on_c, 0, 55, 64
2, 47126, Note_on_c, 0, 65, 0
2, 47128, Note_on_c, 0, 55, 0
2, 47130, Note_on_c, 0, 64, 64
2, 47130, Note_on_c, 0, 49, 64
2, 47138, Note_on_c, 0, 49, 0
2, 47139, Note_on_c, 0, 52, 64
2, 47148, Note_on_c, 0, 52, 0
2, 47149, Note_on_c, 0, 55, 64
2, 47156, Note_on_c, 0, 64, 0
2, 47158, Note_on_c, 0, 55, 0
2, 47160, Note_on_c, 0, 65, 64
2, 47160, Note_on_c, 0, 50, 64
2, 47168, Note_on_c, 0, 50, 0
2, 47169, Note_on_c, 0, 53, 64
2, 47178, Note_on_c, 0, 53, 0
2, 47178, Note_on_c, 0, 67, 0
2, 47179, Note_on_c, 0, 55, 64
2, 47186, Note_on_c, 0, 65, 0
2, 47188, Note_on_c, 0, 55, 0
2, 47190, Note_on_c, 0, 60, 64
2, 47190, Note_on_c, 0, 67, 64
2, 47190, Note_on_c, 0, 52, 64
2, 47198, Note_on_c, 0, 52, 0
2, 47199, Note_on_c, 0, 55, 64
2, 47208, Note_on_c, 0, 55, 0
2, 47209, Note_on_c, 0, 52, 64
2, 47216, Note_on_c, 0, 60, 0
2, 47218, Note_on_c, 0, 52, 0
2, 47220, Note_on_c, 0, 59, 64
2, 47220, Note_on_c, 0, 55, 64
2, 47228, Note_on_c, 0, 55, 0
2, 47229, Note_on_c, 0, 52, 64
2, 47238, Note_on_c, 0, 52, 0
2, 47239, Note_on_c, 0, 55, 64
2, 47246, Note_on_c, 0, 59, 0
2, 47248, Note_on_c, 0, 55, 0
2, 47250, Note_on_c, 0, 60, 64
2, 47250, Note_on_c, 0, 52, 64
2, 47258, Note_on_c, 0, 52, 0
2, 47259, Note_on_c, 0, 55, 64
2, 47268, Note_on_c, 0, 55, 0
2, 47268, Note_on_c, 0, 67, 0
2, 47269, Note_on_c, 0, 52, 64
2, 47276, Note_on_c, 0, 60, 0
2, 47278, Note_on_c, 0, 52, 0
2, 47280, Note_on_c, 0, 64, 64
2, 47280, Note_on_c, 0, 76, 64
2, 47280, Note_on_c, 0, 48, 64
2, 47288, Note_on_c, 0, 48, 0
2, 47289, Note_on_c, 0, 55, 64
2, 47298, Note_on_c, 0, 55, 0
2, 47299, Note_on_c, 0, 48, 64
2, 47306, Note_on_c, 0, 64, 0
2, 47308, Note_on_c, 0, 48, 0
2, 47310, Note_on_c, 0, 62, 64
2, 47310, Note_on_c, 0, 55, 64
2, 47318, Note_on_c, 0, 55, 0
2, 47319, Note_on_c, 0, 48, 64
2, 47328, Note_on_c, 0, 48, 0
2, 47329, Note_on_c, 0, 55, 64
2, 47336, Note_on_c, 0, 62, 0
2, 47338, Note_on_c, 0, 55, 0
2, 47340, Note_on_c, 0, 64, 64
2, 47340, Note_on_c, 0, 48, 64
2, 47348, Note_on_c, 0, 48, 0
2, 47349, Note_on_c, 0, 55, 64
2, 47358, Note_on_c, 0, 55, 0
2, 47358, Note_on_c, 0, 76, 0
2, 47359, Note_on_c, 0, 48, 64
2, 47366, Note_on_c, 0, 64, 0
2, 47368, Note_on_c, 0, 48, 0
2, 47370, Note_on_c, 0, 67, 64
2, 47370, Note_on_c, 0, 72, 64
2, 47370, Note_on_c, 0, 52, 64
2, 47378, Note_on_c, 0, 52, 0
2, 47379, Note_on_c, 0, 55, 64
2, 47388, Note_on_c, 0, 55, 0
2, 47389, Note_on_c, 0, 52, 64
2, 47396, Note_on_c, 0, 67, 0
2, 47398, Note_on_c, 0, 52, 0
2, 47400, Note_on_c, 0, 65, 64
2, 47400, Note_on_c, 0, 55, 64
2, 47408, Note_on_c, 0, 55, 0
2, 47409, Note_on_c, 0, 50, 64
2, 47418, Note_on_c, 0, 50, 0
2, 47419, Note_on_c, 0, 55, 64
2, 47426, Note_on_c, 0, 65, 0
2, 47428, Note_on_c, 0, 55, 0
2, 47430, Note_on_c, 0, 64, 64
2, 47430, Note_on_c, 0, 48, 64
2, 47438, Note_on_c, 0, 48, 0
2, 47439, Note_on_c, 0, 55, 64
2, 47448, Note_on_c, 0, 55, 0
2, 47448, Note_on_c, 0, 72, 0
2, 47449, Note_on_c, 0, 48, 64
2, 47456, Note_on_c, 0, 64, 0
2, 47458, Note_on_c, 0, 48, 0
2, 47460, Note_on_c, 0, 64, 64
2, 47460, Note_on_c, 0, 72, 64
2, 47460, Note_on_c, 0, 43, 64
2, 47468, Note_on_c, 0, 43, 0
2, 47469, Note_on_c, 0, 54, 64
2, 47478, Note_on_c, 0, 54, 0
2, 47479, Note_on_c, 0, 55, 64
2, 47486, Note_on_c, 0, 64, 0
2, 47488, Note_on_c, 0, 55, 0
2, 47490, Note_on_c, 0, 63, 64
2, 47490, Note_on_c, 0, 42, 64
2, 47498, Note_on_c, 0, 42, 0
2, 47499, Note_on_c, 0, 54, 64
2, 47508, Note_on_c, 0, 54, 0
2, 47509, Note_on_c, 0, 55, 64
2, 47516, Note_on_c, 0, 63, 0
2, 47518, Note_on_c, 0, 55, 0
2, 47520, Note_on_c, 0, 64, 64
2, 47520, Note_on_c, 0, 43, 64
2, 47528, Note_on_c, 0, 43, 0
2, 47529, Note_on_c, 0, 54, 64
2, 47538, Note_on_c, 0, 54, 0
2, 47538, Note_on_c, 0, 72, 0
2, 47539, Note_on_c, 0, 55, 64
2, 47546, Note_on_c, 0, 64, 0
2, 47548, Note_on_c, 0, 55, 0
2, 47550, Note_on_c, 0, 62, 64
2, 47550, Note_on_c, 0, 71, 64
2, 47550, Note_on_c, 0, 43, 64
2, 47558, Note_on_c, 0, 43, 0
2, 47559, Note_on_c, 0, 54, 64
2, 47568, Note_on_c, 0, 54, 0
2, 47569, Note_on_c, 0, 55, 64
2, 47576, Note_on_c, 0, 62, 0
2, 47578, Note_on_c, 0, 55, 0
2, 47580, Note_on_c, 0, 62, 64
2, 47580, Note_on_c, 0, 42, 64
2, 47588, Note_on_c, 0, 42, 0
2, 47589, Note_on_c, 0, 54, 64
2, 47598, Note_on_c, 0, 54, 0
2, 47599, Note_on_c, 0, 55, 64
2, 47606, Note_on_c, 0, 62, 0
2, 47608, Note_on_c, 0, 55, 0
2, 47610, Note_on_c, 0, 62, 64
2, 47610, Note_on_c, 0, 43, 64
2, 47618, Note_on_c, 0, 43, 0
2, 47619, Note_on_c, 0, 54, 64
2, 47628, Note_on_c, 0, 54, 0
2, 47628, Note_on_c, 0, 71, 0
2, 47629, Note_on_c, 0, 55, 64
2, 47636, Note_on_c, 0, 62, 0
2, 47638, Note_on_c, 0, 55, 0
2, 47640, Note_on_c, 0, 62, 64
2, 47640, Note_on_c, 0, 67, 64
2, 47640, Note_on_c, 0, 71, 64
2, 47640, Note_on_c, 0, 43, 64
2, 47648, Note_on_c, 0, 43, 0
2, 47649, Note_on_c, 0, 54, 64
2, 47658, Note_on_c, 0, 54, 0
2, 47659, Note_on_c, 0, 55, 64
2, 47666, Note_on_c, 0, 67, 0
2, 47666, Note_on_c, 0, 62, 0
2, 47668, Note_on_c, 0, 55, 0
2, 47670, Note_on_c, 0, 62, 64
2, 47670, Note_on_c, 0, 67, 64
2, 47670, Note_on_c, 0, 42, 64
2, 47678, Note_on_c, 0, 42, 0
2, 47679, Note_on_c, 0, 54, 64
2, 47688, Note_on_c, 0, 54, 0
2, 47689, Note_on_c, 0, 55, 64
2, 47696, Note_on_c, 0, 67, 0
2, 47696, Note_on_c, 0, 62, 0
2, 47698, Note_on_c, 0, 55, 0
2, 47700, Note_on_c, 0, 62, 64
2, 47700, Note_on_c, 0, 67, 64
2, 47700, Note_on_c, 0, 41, 64
2, 47708, Note_on_c, 0, 41, 0
2, 47709, Note_on_c, 0, 54, 64
2, 47718, Note_on_c, 0, 54, 0
2, 47718, Note_on_c, 0, 71, 0
2, 47719, Note_on_c, 0, 55, 64
2, 47726, Note_on_c, 0, 67, 0
2, 47726, Note_on_c, 0, 62, 0
2, 47728, Note_on_c, 0, 55, 0
2, 47730, Note_on_c, 0, 67, 64
2, 47730, Note_on_c, 0, 76, 64
2, 47730, Note_on_c, 0, 40, 64
2, 47738, Note_on_c, 0, 40, 0
2, 47739, Note_on_c, 0, 48, 64
2, 47748, Note_on_c, 0, 48, 0
2, 47749, Note_on_c, 0, 55, 64
2, 47756, Note_on_c, 0, 67, 0
2, 47758, Note_on_c, 0, 55, 0
2, 47760, Note_on_c, 0, 66, 64
2, 47760, Note_on_c, 0, 39, 64
2, 47768, Note_on_c, 0, 39, 0
2, 47769, Note_on_c, 0, 48, 64
2, 47778, Note_on_c, 0, 48, 0
2, 47779, Note_on_c, 0, 55, 64
2, 47786, Note_on_c, 0, 66, 0
2, 47788, Note_on_c, 0, 55, 0
2, 47790, Note_on_c, 0, 67, 64
2, 47790, Note_on_c, 0, 40, 64
2, 47798, Note_on_c, 0, 40, 0
2, 47799, Note_on_c, 0, 48, 64
2, 47808, Note_on_c, 0, 48, 0
2, 47808, Note_on_c, 0, 76, 0
2, 47809, Note_on_c, 0, 55, 64
2, 47816, Note_on_c, 0, 67, 0
2, 47818, Note_on_c, 0, 55, 0
2, 47820, Note_on_c, 0, 64, 64
2, 47820, Note_on_c, 0, 76, 64
2, 47820, Note_on_c, 0, 48, 64
2, 47828, Note_on_c, 0, 48, 0
2, 47829, Note_on_c, 0, 52, 64
2, 47838, Note_on_c, 0, 52, 0
2, 47839, Note_on_c, 0, 55, 64
2, 47846, Note_on_c, 0, 64, 0
2, 47848, Note_on_c, 0, 55, 0
2, 47850, Note_on_c, 0, 67, 64
2, 47850, Note_on_c, 0, 47, 64
2, 47858, Note_on_c, 0, 47, 0
2, 47859, Note_on_c, 0, 50, 64
2, 47868, Note_on_c, 0, 50, 0
2, 47869, Note_on_c, 0, 55, 64
2, 47876, Note_on_c, 0, 67, 0
2, 47878, Note_on_c, 0, 55, 0
2, 47880, Note_on_c, 0, 67, 64
2, 47880, Note_on_c, 0, 48, 64
2, 47888, Note_on_c, 0, 48, 0
2, 47889, Note_on_c, 0, 52, 64
2, 47898, Note_on_c, 0, 52, 0
2, 47898, Note_on_c, 0, 76, 0
2, 47899, Note_on_c, 0, 55, 64
2, 47906, Note_on_c, 0, 67, 0
2, 47908, Note_on_c, 0, 55, 0
2, 47910, Note_on_c, 0, 74, 64
2, 47910, Note_on_c, 0, 79, 64
2, 47910, Note_on_c, 0, 46, 64
2, 47918, Note_on_c, 0, 46, 0
2, 47919, Note_on_c, 0, 50, 64
2, 47928, Note_on_c, 0, 50, 0
2, 47929, Note_on_c, 0, 55, 64
2, 47936, Note_on_c, 0, 74, 0
2, 47938, Note_on_c, 0, 55, 0
2, 47940, Note_on_c, 0, 73, 64
2, 47940, Note_on_c, 0, 45, 64
2, 47948, Note_on_c, 0, 45, 0
2, 47949, Note_on_c, 0, 48, 64
2, 47958, Note_on_c, 0, 48, 0
2, 47959, Note_on_c, 0, 55, 64
2, 47966, Note_on_c, 0, 73, 0
2, 47968, Note_on_c, 0, 55, 0
2, 47970, Note_on_c, 0, 74, 64
2, 47970, Note_on_c, 0, 46, 64
2, 47978, Note_on_c, 0, 46, 0
2, 47979, Note_on_c, 0, 50, 64
2, 47988, Note_on_c, 0, 50, 0
2, 47988, Note_on_c, 0, 79, 0
2, 47989, Note_on_c, 0, 55, 64
2, 47996, Note_on_c, 0, 74, 0
2, 47998, Note_on_c, 0, 55, 0
2, 48000, Note_on_c, 0, 73, 64
2, 48000, Note_on_c, 0, 79, 64
2, 48000, Note_on_c, 0, 45, 64
2, 48008, Note_on_c, 0, 45, 0
2, 48009, Note_on_c, 0, 52, 64
2, 48018, Note_on_c, 0, 52, 0
2, 48019, Note_on_c, 0, 55, 64
2, 48026, Note_on_c, 0, 73, 0
2, 48028, Note_on_c, 0, 55, 0
2, 48030, Note_on_c, 0, 71, 64
2, 48030, Note_on_c, 0, 57, 64
2, 48038, Note_on_c, 0, 57, 0
2, 48039, Note_on_c, 0, 55, 64
2, 48048, Note_on_c, 0, 55, 0
2, 48049, Note_on_c, 0, 52, 64
2, 48056, Note_on_c, 0, 71, 0
2, 48058, Note_on_c, 0, 52, 0
2, 48060, Note_on_c, 0, 73, 64
2, 48060, Note_on_c, 0, 45, 64
2, 48068, Note_on_c, 0, 45, 0
2, 48069, Note_on_c, 0, 52, 64
2, 48078, Note_on_c, 0, 52, 0
2, 48078, Note_on_c, 0, 79, 0
2, 48079, Note_on_c, 0, 55, 64
2, 48086, Note_on_c, 0, 73, 0
2, 48088, Note_on_c, 0, 55, 0
2, 48090, Note_on_c, 0, 74, 64
2, 48090, Note_on_c, 0, 77, 64
2, 48090, Note_on_c, 0, 45, 64
2, 48098, Note_on_c, 0, 45, 0
2, 48099, Note_on_c, 0, 50, 64
2, 48108, Note_on_c, 0, 50, 0
2, 48109, Note_on_c, 0, 53, 64
2, 48116, Note_on_c, 0, 74, 0
2, 48118, Note_on_c, 0, 53, 0
2, 48120, Note_on_c, 0, 73, 64
2, 48120, Note_on_c, 0, 57, 64
2, 48128, Note_on_c, 0, 57, 0
2, 48129, Note_on_c, 0, 53, 64
2, 48138, Note_on_c, 0, 53, 0
2, 48139, Note_on_c, 0, 50, 64
2, 48146, Note_on_c, 0, 73, 0
2, 48148, Note_on_c, 0, 50, 0
2, 48150, Note_on_c, 0, 74, 64
2, 48150, Note_on_c, 0, 45, 64
2, 48158, Note_on_c, 0, 45, 0
2, 48159, Note_on_c, 0, 50, 64
2, 48168, Note_on_c, 0, 50, 0
2, 48168, Note_on_c, 0, 77, 0
2, 48169, Note_on_c, 0, 53, 64
2, 48176, Note_on_c, 0, 74, 0
2, 48178, Note_on_c, 0, 53, 0
2, 48180, Note_on_c, 0, 65, 64
2, 48180, Note_on_c, 0, 74, 64
2, 48180, Note_on_c, 0, 45, 64
2, 48188, Note_on_c, 0, 45, 0
2, 48189, Note_on_c, 0, 50, 64
2, 48198, Note_on_c, 0, 50, 0
2, 48199, Note_on_c, 0, 53, 64
2, 48206, Note_on_c, 0, 65, 0
2, 48208, Note_on_c, 0, 53, 0
2, 48210, Note_on_c, 0, 65, 64
2, 48210, Note_on_c, 0, 45, 64
2, 48218, Note_on_c, 0, 45, 0
2, 48219, Note_on_c, 0, 50, 64
2, 48228, Note_on_c, 0, 50, 0
2, 48229, Note_on_c, 0, 53, 64
2, 48232, Note_on_c, 0, 74, 0
2, 48236, Note_on_c, 0, 65, 0
2, 48238, Note_on_c, 0, 53, 0
2, 48240, Note_on_c, 0, 66, 64
2, 48240, Note_on_c, 0, 72, 64
2, 48240, Note_on_c, 0, 44, 64
2, 48248, Note_on_c, 0, 44, 0
2, 48249, Note_on_c, 0, 50, 64
2, 48258, Note_on_c, 0, 50, 0
2, 48259, Note_on_c, 0, 54, 64
2, 48266, Note_on_c, 0, 72, 0
2, 48266, Note_on_c, 0, 66, 0
2, 48268, Note_on_c, 0, 54, 0
2, 48270, Note_on_c, 0, 67, 64
2, 48270, Note_on_c, 0, 71, 64
2, 48270, Note_on_c, 0, 43, 64
2, 48278, Note_on_c, 0, 43, 0
2, 48279, Note_on_c, 0, 50, 64
2, 48288, Note_on_c, 0, 50, 0
2, 48289, Note_on_c, 0, 55, 64
2, 48296, Note_on_c, 0, 67, 0
2, 48298, Note_on_c, 0, 55, 0
2, 48300, Note_on_c, 0, 69, 64
2, 48300, Note_on_c, 0, 45, 64
2, 48308, Note_on_c, 0, 45, 0
2, 48309, Note_on_c, 0, 50, 64
2, 48318, Note_on_c, 0, 50, 0
2, 48319, Note_on_c, 0, 55, 64
2, 48326, Note_on_c, 0, 69, 0
2, 48328, Note_on_c, 0, 55, 0
2, 48330, Note_on_c, 0, 67, 64
2, 48330, Note_on_c, 0, 45, 64
2, 48338, Note_on_c, 0, 45, 0
2, 48339, Note_on_c, 0, 50, 64
2, 48348, Note_on_c, 0, 50, 0
2, 48348, Note_on_c, 0, 71, 0
2, 48349, Note_on_c, 0, 55, 64
2, 48356, Note_on_c, 0, 67, 0
2, 48358, Note_on_c, 0, 55, 0
2, 48360, Note_on_c, 0, 66, 64
2, 48360, Note_on_c, 0, 72, 64
2, 48360, Note_on_c, 0, 43, 64
2, 48368, Note_on_c, 0, 43, 0
2, 48369, Note_on_c, 0, 48, 64
2, 48378, Note_on_c, 0, 48, 0
2, 48379, Note_on_c, 0, 57, 64
2, 48386, Note_on_c, 0, 66, 0
2, 48388, Note_on_c, 0, 57, 0
2, 48390, Note_on_c, 0, 67, 64
2, 48390, Note_on_c, 0, 43, 64
2, 48398, Note_on_c, 0, 43, 0
2, 48399, Note_on_c, 0, 50, 64
2, 48408, Note_on_c, 0, 50, 0
2, 48409, Note_on_c, 0, 57, 64
2, 48416, Note_on_c, 0, 67, 0
2, 48418, Note_on_c, 0, 57, 0
2, 48420, Note_on_c, 0, 66, 64
2, 48420, Note_on_c, 0, 43, 64
2, 48428, Note_on_c, 0, 43, 0
2, 48429, Note_on_c, 0, 50, 64
2, 48438, Note_on_c, 0, 50, 0
2, 48438, Note_on_c, 0, 72, 0
2, 48439, Note_on_c, 0, 57, 64
2, 48446, Note_on_c, 0, 66, 0
2, 48448, Note_on_c, 0, 57, 0
2, 48450, Note_on_c, 0, 65, 64
2, 48450, Note_on_c, 0, 74, 64
2, 48450, Note_on_c, 0, 43, 64
2, 48458, Note_on_c, 0, 43, 0
2, 48459, Note_on_c, 0, 55, 64
2, 48468, Note_on_c, 0, 55, 0
2, 48469, Note_on_c, 0, 59, 64
2, 48476, Note_on_c, 0, 65, 0
2, 48478, Note_on_c, 0, 59, 0
2, 48480, Note_on_c, 0, 65, 64
2, 48480, Note_on_c, 0, 45, 64
2, 48488, Note_on_c, 0, 45, 0
2, 48489, Note_on_c, 0, 55, 64
2, 48498, Note_on_c, 0, 55, 0
2, 48499, Note_on_c, 0, 60, 64
2, 48502, Note_on_c, 0, 74, 0
2, 48506, Note_on_c, 0, 65, 0
2, 48508, Note_on_c, 0, 60, 0
2, 48510, Note_on_c, 0, 65, 64
2, 48510, Note_on_c, 0, 67, 64
2, 48510, Note_on_c, 0, 47, 64
2, 48518, Note_on_c, 0, 47, 0
2, 48519, Note_on_c, 0, 55, 64
2, 48528, Note_on_c, 0, 55, 0
2, 48529, Note_on_c, 0, 62, 64
2, 48536, Note_on_c, 0, 67, 0
2, 48536, Note_on_c, 0, 65, 0
2, 48538, Note_on_c, 0, 62, 0
2, 48540, Note_on_c, 0, 62, 64
2, 48540, Note_on_c, 0, 65, 64
2, 48540, Note_on_c, 0, 67, 64
2, 48540, Note_on_c, 0, 47, 64
2, 48548, Note_on_c, 0, 47, 0
2, 48549, Note_on_c, 0, 55, 64
2, 48558, Note_on_c, 0, 55, 0
2, 48559, Note_on_c, 0, 59, 64
2, 48566, Note_on_c, 0, 65, 0
2, 48566, Note_on_c, 0, 62, 0
2, 48568, Note_on_c, 0, 59, 0
2, 48570, Note_on_c, 0, 60, 64
2, 48570, Note_on_c, 0, 64, 64
2, 48570, Note_on_c, 0, 48, 64
2, 48578, Note_on_c, 0, 48, 0
2, 48579, Note_on_c, 0, 52, 64
2, 48588, Note_on_c, 0, 52, 0
2, 48589, Note_on_c, 0, 55, 64
2, 48596, Note_on_c, 0, 64, 0
2, 48596, Note_on_c, 0, 60, 0
2, 48598, Note_on_c, 0, 55, 0
2, 48600, Note_on_c, 0, 59, 64
2, 48600, Note_on_c, 0, 65, 64
2, 48600, Note_on_c, 0, 50, 64
2, 48608, Note_on_c, 0, 50, 0
2, 48609, Note_on_c, 0, 53, 64
2, 48618, Note_on_c, 0, 53, 0
2, 48619, Note_on_c, 0, 55, 64
2, 48626, Note_on_c, 0, 65, 0
2, 48626, Note_on_c, 0, 59, 0
2, 48628, Note_on_c, 0, 55, 0
2, 48630, Note_on_c, 0, 59, 64
2, 48630, Note_on_c, 0, 65, 64
2, 48630, Note_on_c, 0, 50, 64
2, 48638, Note_on_c, 0, 50, 0
2, 48639, Note_on_c, 0, 53, 64
2, 48648, Note_on_c, 0, 53, 0
2, 48649, Note_on_c, 0, 55, 64
2, 48656, Note_on_c, 0, 65, 0
2, 48656, Note_on_c, 0, 59, 0
2, 48658, Note_on_c, 0, 55, 0
2, 48660, Note_on_c, 0, 60, 64
2, 48660, Note_on_c, 0, 64, 64
2, 48660, Note_on_c, 0, 48, 64
2, 48668, Note_on_c, 0, 48, 0
2, 48669, Note_on_c, 0, 52, 64
2, 48678, Note_on_c, 0, 52, 0
2, 48679, Note_on_c, 0, 55, 64
2, 48682, Note_on_c, 0, 67, 0
2, 48686, Note_on_c, 0, 60, 0
2, 48686, Note_on_c, 0, 64, 0
2, 48688, Note_on_c, 0, 55, 0
2, 48690, Note_on_c, 0, 62, 64
2, 48690, Note_on_c, 0, 64, 64
2, 48690, Note_on_c, 0, 47, 64
2, 48698, Note_on_c, 0, 47, 0
2, 48699, Note_on_c, 0, 52, 64
2, 48708, Note_on_c, 0, 52, 0
2, 48709, Note_on_c, 0, 56, 64
2, 48716, Note_on_c, 0, 64, 0
2, 48716, Note_on_c, 0, 62, 0
2, 48718, Note_on_c, 0, 56, 0
2, 48720, Note_on_c, 0, 62, 64
2, 48720, Note_on_c, 0, 64, 64
2, 48720, Note_on_c, 0, 47, 64
2, 48728, Note_on_c, 0, 47, 0
2, 48729, Note_on_c, 0, 52, 64
2, 48738, Note_on_c, 0, 52, 0
2, 48739, Note_on_c, 0, 56, 64
2, 48746, Note_on_c, 0, 62, 0
2, 48748, Note_on_c, 0, 56, 0
2, 48750, Note_on_c, 0, 60, 64
2, 48750, Note_on_c, 0, 45, 64
2, 48758, Note_on_c, 0, 45, 0
2, 48759, Note_on_c, 0, 52, 64
2, 48768, Note_on_c, 0, 52, 0
2, 48769, Note_on_c, 0, 56, 64
2, 48776, Note_on_c, 0, 60, 0
2, 48776, Note_on_c, 0, 64, 0
2, 48778, Note_on_c, 0, 56, 0
2, 48780, Note_on_c, 0, 59, 64
2, 48780, Note_on_c, 0, 64, 64
2, 48780, Note_on_c, 0, 44, 64
2, 48788, Note_on_c, 0, 44, 0
2, 48789, Note_on_c, 0, 52, 64
2, 48798, Note_on_c, 0, 52, 0
2, 48799, Note_on_c, 0, 56, 64
2, 48806, Note_on_c, 0, 64, 0
2, 48806, Note_on_c, 0, 59, 0
2, 48808, Note_on_c, 0, 56, 0
2, 48810, Note_on_c, 0, 60, 64
2, 48810, Note_on_c, 0, 64, 64
2, 48810, Note_on_c, 0, 72, 64
2, 48810, Note_on_c, 0, 45, 64
2, 48818, Note_on_c, 0, 45, 0
2, 48819, Note_on_c, 0, 52, 64
2, 48828, Note_on_c, 0, 52, 0
2, 48829, Note_on_c, 0, 57, 64
2, 48836, Note_on_c, 0, 64, 0
2, 48836, Note_on_c, 0, 60, 0
2, 48838, Note_on_c, 0, 57, 0
2, 48840, Note_on_c, 0, 64, 64
2, 48840, Note_on_c, 0, 44, 64
2, 48848, Note_on_c, 0, 44, 0
2, 48849, Note_on_c, 0, 52, 64
2, 48858, Note_on_c, 0, 52, 0
2, 48859, Note_on_c, 0, 56, 64
2, 48866, Note_on_c, 0, 64, 0
2, 48868, Note_on_c, 0, 56, 0
2, 48870, Note_on_c, 0, 64, 64
2, 48870, Note_on_c, 0, 45, 64
2, 48878, Note_on_c, 0, 45, 0
2, 48879, Note_on_c, 0, 52, 64
2, 48888, Note_on_c, 0, 52, 0
2, 48889, Note_on_c, 0, 57, 64
2, 48896, Note_on_c, 0, 64, 0
2, 48898, Note_on_c, 0, 57, 0
2, 48900, Note_on_c, 0, 64, 64
2, 48900, Note_on_c, 0, 45, 64
2, 48908, Note_on_c, 0, 45, 0
2, 48909, Note_on_c, 0, 52, 64
2, 48918, Note_on_c, 0, 52, 0
2, 48919, Note_on_c, 0, 57, 64
2, 48926, Note_on_c, 0, 64, 0
2, 48928, Note_on_c, 0, 57, 0
2, 48930, Note_on_c, 0, 64, 64
2, 48930, Note_on_c, 0, 44, 64
2, 48938, Note_on_c, 0, 44, 0
2, 48939, Note_on_c, 0, 52, 64
2, 48948, Note_on_c, 0, 52, 0
2, 48949, Note_on_c, 0, 56, 64
2, 48956, Note_on_c, 0, 64, 0
2, 48958, Note_on_c, 0, 56, 0
2, 48960, Note_on_c, 0, 64, 64
2, 48960, Note_on_c, 0, 45, 64
2, 48968, Note_on_c, 0, 45, 0
2, 48969, Note_on_c, 0, 52, 64
2, 48975, Note_on_c, 0, 72, 0
2, 48978, Note_on_c, 0, 52, 0
2, 48979, Note_on_c, 0, 57, 64
2, 48986, Note_on_c, 0, 64, 0
2, 48988, Note_on_c, 0, 57, 0
2, 48990, Note_on_c, 0, 64, 64
2, 48990, Note_on_c, 0, 72, 64
2, 48990, Note_on_c, 0, 45, 64
2, 48998, Note_on_c, 0, 45, 0
2, 48999, Note_on_c, 0, 52, 64
2, 49008, Note_on_c, 0, 52, 0
2, 49009, Note_on_c, 0, 57, 64
2, 49016, Note_on_c, 0, 64, 0
2, 49018, Note_on_c, 0, 57, 0
2, 49020, Note_on_c, 0, 64, 64
2, 49020, Note_on_c, 0, 45, 64
2, 49028, Note_on_c, 0, 45, 0
2, 49029, Note_on_c, 0, 52, 64
2, 49038, Note_on_c, 0, 52, 0
2, 49039, Note_on_c, 0, 57, 64
2, 49042, Note_on_c, 0, 72, 0
2, 49046, Note_on_c, 0, 64, 0
2, 49048, Note_on_c, 0, 57, 0
2, 49050, Note_on_c, 0, 64, 64
2, 49050, Note_on_c, 0, 71, 64
2, 49050, Note_on_c, 0, 44, 64
2, 49058, Note_on_c, 0, 44, 0
2, 49059, Note_on_c, 0, 52, 64
2, 49068, Note_on_c, 0, 52, 0
2, 49069, Note_on_c, 0, 59, 64
2, 49076, Note_on_c, 0, 71, 0
2, 49076, Note_on_c, 0, 64, 0
2, 49078, Note_on_c, 0, 59, 0
2, 49080, Note_on_c, 0, 64, 64
2, 49080, Note_on_c, 0, 71, 64
2, 49080, Note_on_c, 0, 44, 64
2, 49088, Note_on_c, 0, 44, 0
2, 49089, Note_on_c, 0, 52, 64
2, 49098, Note_on_c, 0, 52, 0
2, 49099, Note_on_c, 0, 59, 64
2, 49106, Note_on_c, 0, 64, 0
2, 49108, Note_on_c, 0, 59, 0
2, 49110, Note_on_c, 0, 64, 64
2, 49110, Note_on_c, 0, 45, 64
2, 49118, Note_on_c, 0, 45, 0
2, 49119, Note_on_c, 0, 52, 64
2, 49128, Note_on_c, 0, 52, 0
2, 49129, Note_on_c, 0, 59, 64
2, 49136, Note_on_c, 0, 64, 0
2, 49138, Note_on_c, 0, 59, 0
2, 49140, Note_on_c, 0, 64, 64
2, 49140, Note_on_c, 0, 44, 64
2, 49148, Note_on_c, 0, 44, 0
2, 49149, Note_on_c, 0, 52, 64
2, 49158, Note_on_c, 0, 52, 0
2, 49159, Note_on_c, 0, 59, 64
2, 49166, Note_on_c, 0, 64, 0
2, 49168, Note_on_c, 0, 59, 0
2, 49170, Note_on_c, 0, 64, 64
2, 49170, Note_on_c, 0, 44, 64
2, 49178, Note_on_c, 0, 44, 0
2, 49179, Note_on_c, 0, 52, 64
2, 49188, Note_on_c, 0, 52, 0
2, 49189, Note_on_c, 0, 59, 64
2, 49196, Note_on_c, 0, 64, 0
2, 49198, Note_on_c, 0, 59, 0
2, 49200, Note_on_c, 0, 64, 64
2, 49200, Note_on_c, 0, 45, 64
2, 49208, Note_on_c, 0, 45, 0
2, 49209, Note_on_c, 0, 52, 64
2, 49218, Note_on_c, 0, 52, 0
2, 49219, Note_on_c, 0, 59, 64
2, 49226, Note_on_c, 0, 64, 0
2, 49228, Note_on_c, 0, 59, 0
2, 49230, Note_on_c, 0, 64, 64
2, 49230, Note_on_c, 0, 44, 64
2, 49238, Note_on_c, 0, 44, 0
2, 49239, Note_on_c, 0, 52, 64
2, 49245, Note_on_c, 0, 71, 0
2, 49248, Note_on_c, 0, 52, 0
2, 49249, Note_on_c, 0, 59, 64
2, 49256, Note_on_c, 0, 64, 0
2, 49258, Note_on_c, 0, 59, 0
2, 49260, Note_on_c, 0, 64, 64
2, 49260, Note_on_c, 0, 71, 64
2, 49260, Note_on_c, 0, 44, 64
2, 49268, Note_on_c, 0, 44, 0
2, 49269, Note_on_c, 0, 52, 64
2, 49278, Note_on_c, 0, 52, 0
2, 49279, Note_on_c, 0, 59, 64
2, 49286, Note_on_c, 0, 64, 0
2, 49288, Note_on_c, 0, 59, 0
2, 49290, Note_on_c, 0, 64, 64
2, 49290, Note_on_c, 0, 45, 64
2, 49298, Note_on_c, 0, 45, 0
2, 49299, Note_on_c, 0, 52, 64
2, 49308, Note_on_c, 0, 52, 0
2, 49309, Note_on_c, 0, 57, 64
2, 49312, Note_on_c, 0, 71, 0
2, 49316, Note_on_c, 0, 64, 0
2, 49318, Note_on_c, 0, 57, 0
2, 49320, Note_on_c, 0, 64, 64
2, 49320, Note_on_c, 0, 71, 64
2, 49320, Note_on_c, 0, 76, 64
2, 49320, Note_on_c, 0, 44, 64
2, 49328, Note_on_c, 0, 44, 0
2, 49329, Note_on_c, 0, 52, 64
2, 49338, Note_on_c, 0, 52, 0
2, 49339, Note_on_c, 0, 59, 64
2, 49346, Note_on_c, 0, 76, 0
2, 49346, Note_on_c, 0, 64, 0
2, 49346, Note_on_c, 0, 71, 0
2, 49348, Note_on_c, 0, 59, 0
2, 49350, Note_on_c, 0, 64, 64
2, 49350, Note_on_c, 0, 71, 64
2, 49350, Note_on_c, 0, 76, 64
2, 49350, Note_on_c, 0, 43, 64
2, 49358, Note_on_c, 0, 43, 0
2, 49359, Note_on_c, 0, 52, 64
2, 49368, Note_on_c, 0, 52, 0
2, 49369, Note_on_c, 0, 59, 64
2, 49376, Note_on_c, 0, 71, 0
2, 49376, Note_on_c, 0, 64, 0
2, 49378, Note_on_c, 0, 59, 0
2, 49380, Note_on_c, 0, 64, 64
2, 49380, Note_on_c, 0, 71, 64
2, 49380, Note_on_c, 0, 45, 64
2, 49388, Note_on_c, 0, 45, 0
2, 49389, Note_on_c, 0, 52, 64
2, 49398, Note_on_c, 0, 52, 0
2, 49399, Note_on_c, 0, 59, 64
2, 49406, Note_on_c, 0, 71, 0
2, 49406, Note_on_c, 0, 64, 0
2, 49408, Note_on_c, 0, 59, 0
2, 49410, Note_on_c, 0, 64, 64
2, 49410, Note_on_c, 0, 71, 64
2, 49410, Note_on_c, 0, 43, 64
2, 49418, Note_on_c, 0, 43, 0
2, 49419, Note_on_c, 0, 52, 64
2, 49428, Note_on_c, 0, 52, 0
2, 49428, Note_on_c, 0, 76, 0
2, 49429, Note_on_c, 0, 59, 64
2, 49436, Note_on_c, 0, 71, 0
2, 49436, Note_on_c, 0, 64, 0
2, 49438, Note_on_c, 0, 59, 0
2, 49440, Note_on_c, 0, 64, 64
2, 49440, Note_on_c, 0, 72, 64
2, 49440, Note_on_c, 0, 76, 64
2, 49440, Note_on_c, 0, 45, 64
2, 49448, Note_on_c, 0, 45, 0
2, 49449, Note_on_c, 0, 52, 64
2, 49458, Note_on_c, 0, 52, 0
2, 49459, Note_on_c, 0, 60, 64
2, 49466, Note_on_c, 0, 72, 0
2, 49466, Note_on_c, 0, 64, 0
2, 49468, Note_on_c, 0, 60, 0
2, 49470, Note_on_c, 0, 64, 64
2, 49470, Note_on_c, 0, 72, 64
2, 49470, Note_on_c, 0, 47, 64
2, 49478, Note_on_c, 0, 47, 0
2, 49479, Note_on_c, 0, 52, 64
2, 49488, Note_on_c, 0, 52, 0
2, 49489, Note_on_c, 0, 60, 64
2, 49496, Note_on_c, 0, 72, 0
2, 49496, Note_on_c, 0, 64, 0
2, 49498, Note_on_c, 0, 60, 0
2, 49500, Note_on_c, 0, 64, 64
2, 49500, Note_on_c, 0, 72, 64
2, 49500, Note_on_c, 0, 45, 64
2, 49508, Note_on_c, 0, 45, 0
2, 49509, Note_on_c, 0, 52, 64
2, 49518, Note_on_c, 0, 52, 0
2, 49518, Note_on_c, 0, 76, 0
2, 49519, Note_on_c, 0, 60, 64
2, 49526, Note_on_c, 0, 72, 0
2, 49526, Note_on_c, 0, 64, 0
2, 49528, Note_on_c, 0, 60, 0
2, 49530, Note_on_c, 0, 71, 64
2, 49530, Note_on_c, 0, 74, 64
2, 49530, Note_on_c, 0, 41, 64
2, 49538, Note_on_c, 0, 41, 0
2, 49539, Note_on_c, 0, 53, 64
2, 49548, Note_on_c, 0, 53, 0
2, 49549, Note_on_c, 0, 41, 64
2, 49556, Note_on_c, 0, 71, 0
2, 49558, Note_on_c, 0, 41, 0
2, 49560, Note_on_c, 0, 68, 64
2, 49560, Note_on_c, 0, 53, 64
2, 49568, Note_on_c, 0, 53, 0
2, 49569, Note_on_c, 0, 41, 64
2, 49578, Note_on_c, 0, 41, 0
2, 49579, Note_on_c, 0, 53, 64
2, 49582, Note_on_c, 0, 74, 0
2, 49586, Note_on_c, 0, 68, 0
2, 49588, Note_on_c, 0, 53, 0
2, 49590, Note_on_c, 0, 71, 64
2, 49590, Note_on_c, 0, 72, 64
2, 49590, Note_on_c, 0, 38, 64
2, 49598, Note_on_c, 0, 38, 0
2, 49599, Note_on_c, 0, 50, 64
2, 49608, Note_on_c, 0, 50, 0
2, 49609, Note_on_c, 0, 38, 64
2, 49616, Note_on_c, 0, 72, 0
2, 49616, Note_on_c, 0, 71, 0
2, 49618, Note_on_c, 0, 38, 0
2, 49620, Note_on_c, 0, 64, 64
2, 49620, Note_on_c, 0, 69, 64
2, 49620, Note_on_c, 0, 72, 64
2, 49620, Note_on_c, 0, 40, 64
2, 49628, Note_on_c, 0, 40, 0
2, 49629, Note_on_c, 0, 51, 64
2, 49638, Note_on_c, 0, 51, 0
2, 49639, Note_on_c, 0, 52, 64
2, 49646, Note_on_c, 0, 69, 0
2, 49646, Note_on_c, 0, 64, 0
2, 49648, Note_on_c, 0, 52, 0
2, 49650, Note_on_c, 0, 64, 64
2, 49650, Note_on_c, 0, 69, 64
2, 49650, Note_on_c, 0, 39, 64
2, 49658, Note_on_c, 0, 39, 0
2, 49659, Note_on_c, 0, 51, 64
2, 49668, Note_on_c, 0, 51, 0
2, 49669, Note_on_c, 0, 52, 64
2, 49676, Note_on_c, 0, 69, 0
2, 49676, Note_on_c, 0, 64, 0
2, 49678, Note_on_c, 0, 52, 0
2, 49680, Note_on_c, 0, 64, 64
2, 49680, Note_on_c, 0, 69, 64
2, 49680, Note_on_c, 0, 40, 64
2, 49688, Note_on_c, 0, 40, 0
2, 49689, Note_on_c, 0, 51, 64
2, 49698, Note_on_c, 0, 51, 0
2, 49698, Note_on_c, 0, 72, 0
2, 49699, Note_on_c, 0, 52, 64
2, 49706, Note_on_c, 0, 69, 0
2, 49706, Note_on_c, 0, 64, 0
2, 49708, Note_on_c, 0, 52, 0
2, 49710, Note_on_c, 0, 64, 64
2, 49710, Note_on_c, 0, 68, 64
2, 49710, Note_on_c, 0, 71, 64
2, 49710, Note_on_c, 0, 40, 64
2, 49718, Note_on_c, 0, 40, 0
2, 49719, Note_on_c, 0, 51, 64
2, 49728, Note_on_c, 0, 51, 0
2, 49729, Note_on_c, 0, 52, 64
2, 49736, Note_on_c, 0, 68, 0
2, 49736, Note_on_c, 0, 64, 0
2, 49738, Note_on_c, 0, 52, 0
2, 49740, Note_on_c, 0, 64, 64
2, 49740, Note_on_c, 0, 68, 64
2, 49740, Note_on_c, 0, 41, 64
2, 49748, Note_on_c, 0, 41, 0
2, 49749, Note_on_c, 0, 51, 64
2, 49758, Note_on_c, 0, 51, 0
2, 49759, Note_on_c, 0, 52, 64
2, 49766, Note_on_c, 0, 68, 0
2, 49766, Note_on_c, 0, 64, 0
2, 49768, Note_on_c, 0, 52, 0
2, 49770, Note_on_c, 0, 64, 64
2, 49770, Note_on_c, 0, 68, 64
2, 49770, Note_on_c, 0, 40, 64
2, 49778, Note_on_c, 0, 40, 0
2, 49779, Note_on_c, 0, 51, 64
2, 49788, Note_on_c, 0, 51, 0
2, 49788, Note_on_c, 0, 71, 0
2, 49789, Note_on_c, 0, 52, 64
2, 49796, Note_on_c, 0, 68, 0
2, 49796, Note_on_c, 0, 64, 0
2, 49798, Note_on_c, 0, 52, 0
2, 49800, Note_on_c, 0, 64, 64
2, 49800, Note_on_c, 0, 69, 64
2, 49800, Note_on_c, 0, 72, 64
2, 49800, Note_on_c, 0, 33, 64
2, 49808, Note_on_c, 0, 33, 0
2, 49809, Note_on_c, 0, 43, 64
2, 49818, Note_on_c, 0, 43, 0
2, 49819, Note_on_c, 0, 45, 64
2, 49826, Note_on_c, 0, 69, 0
2, 49826, Note_on_c, 0, 64, 0
2, 49828, Note_on_c, 0, 45, 0
2, 49830, Note_on_c, 0, 64, 64
2, 49830, Note_on_c, 0, 69, 64
2, 49830, Note_on_c, 0, 32, 64
2, 49838, Note_on_c, 0, 32, 0
2, 49839, Note_on_c, 0, 43, 64
2, 49848, Note_on_c, 0, 43, 0
2, 49849, Note_on_c, 0, 45, 64
2, 49856, Note_on_c, 0, 69, 0
2, 49856, Note_on_c, 0, 64, 0
2, 49858, Note_on_c, 0, 45, 0
2, 49860, Note_on_c, 0, 64, 64
2, 49860, Note_on_c, 0, 69, 64
2, 49860, Note_on_c, 0, 33, 64
2, 49868, Note_on_c, 0, 33, 0
2, 49869, Note_on_c, 0, 43, 64
2, 49878, Note_on_c, 0, 43, 0
2, 49878, Note_on_c, 0, 72, 0
2, 49879, Note_on_c, 0, 45, 64
2, 49886, Note_on_c, 0, 69, 0
2, 49886, Note_on_c, 0, 64, 0
2, 49888, Note_on_c, 0, 45, 0
2, 49890, Note_on_c, 0, 67, 64
2, 49890, Note_on_c, 0, 71, 64
2, 49890, Note_on_c, 0, 74, 64
2, 49890, Note_on_c, 0, 31, 64
2, 49898, Note_on_c, 0, 31, 0
2, 49899, Note_on_c, 0, 42, 64
2, 49908, Note_on_c, 0, 42, 0
2, 49909, Note_on_c, 0, 43, 64
2, 49916, Note_on_c, 0, 71, 0
2, 49916, Note_on_c, 0, 67, 0
2, 49918, Note_on_c, 0, 43, 0
2, 49920, Note_on_c, 0, 67, 64
2, 49920, Note_on_c, 0, 71, 64
2, 49920, Note_on_c, 0, 29, 64
2, 49928, Note_on_c, 0, 29, 0
2, 49929, Note_on_c, 0, 42, 64
2, 49938, Note_on_c, 0, 42, 0
2, 49939, Note_on_c, 0, 43, 64
2, 49946, Note_on_c, 0, 71, 0
2, 49946, Note_on_c, 0, 67, 0
2, 49948, Note_on_c, 0, 43, 0
2, 49950, Note_on_c, 0, 67, 64
2, 49950, Note_on_c, 0, 71, 64
2, 49950, Note_on_c, 0, 31, 64
2, 49958, Note_on_c, 0, 31, 0
2, 49959, Note_on_c, 0, 42, 64
2, 49968, Note_on_c, 0, 42, 0
2, 49969, Note_on_c, 0, 43, 64
2, 49976, Note_on_c, 0, 71, 0
2, 49976, Note_on_c, 0, 67, 0
2, 49978, Note_on_c, 0, 43, 0
2, 49980, Note_on_c, 0, 67, 64
2, 49980, Note_on_c, 0, 71, 64
2, 49980, Note_on_c, 0, 31, 64
2, 49988, Note_on_c, 0, 31, 0
2, 49989, Note_on_c, 0, 42, 64
2, 49998, Note_on_c, 0, 42, 0
2, 49999, Note_on_c, 0, 43, 64
2, 50006, Note_on_c, 0, 71, 0
2, 50006, Note_on_c, 0, 67, 0
2, 50008, Note_on_c, 0, 43, 0
2, 50010, Note_on_c, 0, 67, 64
2, 50010, Note_on_c, 0, 71, 64
2, 50010, Note_on_c, 0, 30, 64
2, 50018, Note_on_c, 0, 30, 0
2, 50019, Note_on_c, 0, 42, 64
2, 50028, Note_on_c, 0, 42, 0
2, 50029, Note_on_c, 0, 43, 64
2, 50036, Note_on_c, 0, 71, 0
2, 50036, Note_on_c, 0, 67, 0
2, 50038, Note_on_c, 0, 43, 0
2, 50040, Note_on_c, 0, 67, 64
2, 50040, Note_on_c, 0, 71, 64
2, 50040, Note_on_c, 0, 31, 64
2, 50048, Note_on_c, 0, 31, 0
2, 50049, Note_on_c, 0, 42, 64
2, 50055, Note_on_c, 0, 74, 0
2, 50058, Note_on_c, 0, 42, 0
2, 50059, Note_on_c, 0, 43, 64
2, 50066, Note_on_c, 0, 71, 0
2, 50066, Note_on_c, 0, 67, 0
2, 50068, Note_on_c, 0, 43, 0
2, 50070, Note_on_c, 0, 65, 64
2, 50070, Note_on_c, 0, 71, 64
2, 50070, Note_on_c, 0, 74, 64
2, 50070, Note_on_c, 0, 31, 64
2, 50078, Note_on_c, 0, 31, 0
2, 50079, Note_on_c, 0, 42, 64
2, 50088, Note_on_c, 0, 42, 0
2, 50089, Note_on_c, 0, 43, 64
2, 50096, Note_on_c, 0, 71, 0
2, 50096, Note_on_c, 0, 65, 0
2, 50098, Note_on_c, 0, 43, 0
2, 50100, Note_on_c, 0, 65, 64
2, 50100, Note_on_c, 0, 71, 64
2, 50100, Note_on_c, 0, 30, 64
2, 50108, Note_on_c, 0, 30, 0
2, 50109, Note_on_c, 0, 42, 64
2, 50118, Note_on_c, 0, 42, 0
2, 50119, Note_on_c, 0, 43, 64
2, 50126, Note_on_c, 0, 71, 0
2, 50126, Note_on_c, 0, 65, 0
2, 50128, Note_on_c, 0, 43, 0
2, 50130, Note_on_c, 0, 65, 64
2, 50130, Note_on_c, 0, 71, 64
2, 50130, Note_on_c, 0, 31, 64
2, 50138, Note_on_c, 0, 31, 0
2, 50139, Note_on_c, 0, 42, 64
2, 50148, Note_on_c, 0, 42, 0
2, 50148, Note_on_c, 0, 74, 0
2, 50149, Note_on_c, 0, 43, 64
2, 50156, Note_on_c, 0, 71, 0
2, 50156, Note_on_c, 0, 65, 0
2, 50158, Note_on_c, 0, 43, 0
2, 50160, Note_on_c, 0, 64, 64
2, 50160, Note_on_c, 0, 70, 64
2, 50160, Note_on_c, 0, 76, 64
2, 50160, Note_on_c, 0, 31, 64
2, 50168, Note_on_c, 0, 31, 0
2, 50169, Note_on_c, 0, 36, 64
2, 50178, Note_on_c, 0, 36, 0
2, 50179, Note_on_c, 0, 43, 64
2, 50186, Note_on_c, 0, 70, 0
2, 50186, Note_on_c, 0, 64, 0
2, 50188, Note_on_c, 0, 43, 0
2, 50190, Note_on_c, 0, 64, 64
2, 50190, Note_on_c, 0, 70, 64
2, 50190, Note_on_c, 0, 30, 64
2, 50198, Note_on_c, 0, 30, 0
2, 50199, Note_on_c, 0, 36, 64
2, 50208, Note_on_c, 0, 36, 0
2, 50209, Note_on_c, 0, 42, 64
2, 50216, Note_on_c, 0, 70, 0
2, 50216, Note_on_c, 0, 64, 0
2, 50218, Note_on_c, 0, 42, 0
2, 50220, Note_on_c, 0, 64, 64
2, 50220, Note_on_c, 0, 70, 64
2, 50220, Note_on_c, 0, 31, 64
2, 50228, Note_on_c, 0, 31, 0
2, 50229, Note_on_c, 0, 36, 64
2, 50238, Note_on_c, 0, 36, 0
2, 50239, Note_on_c, 0, 43, 64
2, 50246, Note_on_c, 0, 70, 0
2, 50246, Note_on_c, 0, 64, 0
2, 50248, Note_on_c, 0, 43, 0
2, 50250, Note_on_c, 0, 64, 64
2, 50250, Note_on_c, 0, 70, 64
2, 50250, Note_on_c, 0, 31, 64
2, 50258, Note_on_c, 0, 31, 0
2, 50259, Note_on_c, 0, 36, 64
2, 50268, Note_on_c, 0, 36, 0
2, 50269, Note_on_c, 0, 43, 64
2, 50276, Note_on_c, 0, 70, 0
2, 50276, Note_on_c, 0, 64, 0
2, 50278, Note_on_c, 0, 43, 0
2, 50280, Note_on_c, 0, 64, 64
2, 50280, Note_on_c, 0, 70, 64
2, 50280, Note_on_c, 0, 30, 64
2, 50288, Note_on_c, 0, 30, 0
2, 50289, Note_on_c, 0, 36, 64
2, 50298, Note_on_c, 0, 36, 0
2, 50299, Note_on_c, 0, 42, 64
2, 50306, Note_on_c, 0, 70, 0
2, 50306, Note_on_c, 0, 64, 0
2, 50308, Note_on_c, 0, 42, 0
2, 50310, Note_on_c, 0, 64, 64
2, 50310, Note_on_c, 0, 70, 64
2, 50310, Note_on_c, 0, 31, 64
2, 50318, Note_on_c, 0, 31, 0
2, 50319, Note_on_c, 0, 36, 64
2, 50325, Note_on_c, 0, 76, 0
2, 50328, Note_on_c, 0, 36, 0
2, 50329, Note_on_c, 0, 43, 64
2, 50336, Note_on_c, 0, 70, 0
2, 50336, Note_on_c, 0, 64, 0
2, 50338, Note_on_c, 0, 43, 0
2, 50340, Note_on_c, 0, 65, 64
2, 50340, Note_on_c, 0, 69, 64
2, 50340, Note_on_c, 0, 77, 64
2, 50340, Note_on_c, 0, 31, 64
2, 50348, Note_on_c, 0, 31, 0
2, 50349, Note_on_c, 0, 36, 64
2, 50358, Note_on_c, 0, 36, 0
2, 50359, Note_on_c, 0, 43, 64
2, 50366, Note_on_c, 0, 69, 0
2, 50366, Note_on_c, 0, 65, 0
2, 50368, Note_on_c, 0, 43, 0
2, 50370, Note_on_c, 0, 69, 64
2, 50370, Note_on_c, 0, 72, 64
2, 50370, Note_on_c, 0, 30, 64
2, 50378, Note_on_c, 0, 30, 0
2, 50379, Note_on_c, 0, 36, 64
2, 50388, Note_on_c, 0, 36, 0
2, 50389, Note_on_c, 0, 42, 64
2, 50396, Note_on_c, 0, 72, 0
2, 50396, Note_on_c, 0, 69, 0
2, 50398, Note_on_c, 0, 42, 0
2, 50400, Note_on_c, 0, 68, 64
2, 50400, Note_on_c, 0, 72, 64
2, 50400, Note_on_c, 0, 31, 64
2, 50408, Note_on_c, 0, 31, 0
2, 50409, Note_on_c, 0, 36, 64
2, 50418, Note_on_c, 0, 36, 0
2, 50418, Note_on_c, 0, 77, 0
2, 50419, Note_on_c, 0, 43, 64
2, 50426, Note_on_c, 0, 72, 0
2, 50426, Note_on_c, 0, 68, 0
2, 50428, Note_on_c, 0, 43, 0
2, 50430, Note_on_c, 0, 67, 64
2, 50430, Note_on_c, 0, 72, 64
2, 50430, Note_on_c, 0, 74, 64
2, 50430, Note_on_c, 0, 31, 64
2, 50438, Note_on_c, 0, 31, 0
2, 50439, Note_on_c, 0, 36, 64
2, 50448, Note_on_c, 0, 36, 0
2, 50449, Note_on_c, 0, 38, 64
2, 50456, Note_on_c, 0, 72, 0
2, 50456, Note_on_c, 0, 67, 0
2, 50458, Note_on_c, 0, 38, 0
2, 50460, Note_on_c, 0, 67, 64
2, 50460, Note_on_c, 0, 72, 64
2, 50460, Note_on_c, 0, 43, 64
2, 50468, Note_on_c, 0, 43, 0
2, 50469, Note_on_c, 0, 48, 64
2, 50478, Note_on_c, 0, 48, 0
2, 50479, Note_on_c, 0, 50, 64
2, 50486, Note_on_c, 0, 72, 0
2, 50486, Note_on_c, 0, 67, 0
2, 50488, Note_on_c, 0, 50, 0
2, 50490, Note_on_c, 0, 67, 64
2, 50490, Note_on_c, 0, 72, 64
2, 50490, Note_on_c, 0, 55, 64
2, 50498, Note_on_c, 0, 55, 0
2, 50499, Note_on_c, 0, 50, 64
2, 50508, Note_on_c, 0, 50, 0
2, 50508, Note_on_c, 0, 74, 0
2, 50509, Note_on_c, 0, 48, 64
2, 50516, Note_on_c, 0, 72, 0
2, 50516, Note_on_c, 0, 67, 0
2, 50518, Note_on_c, 0, 48, 0
2, 50520, Note_on_c, 0, 67, 64
2, 50520, Note_on_c, 0, 72, 64
2, 50520, Note_on_c, 0, 74, 64
2, 50520, Note_on_c, 0, 43, 64
2, 50528, Note_on_c, 0, 43, 0
2, 50529, Note_on_c, 0, 48, 64
2, 50538, Note_on_c, 0, 48, 0
2, 50539, Note_on_c, 0, 50, 64
2, 50546, Note_on_c, 0, 72, 0
2, 50546, Note_on_c, 0, 67, 0
2, 50548, Note_on_c, 0, 50, 0
2, 50550, Note_on_c, 0, 67, 64
2, 50550, Note_on_c, 0, 72, 64
2, 50550, Note_on_c, 0, 55, 64
2, 50558, Note_on_c, 0, 55, 0
2, 50559, Note_on_c, 0, 50, 64
2, 50568, Note_on_c, 0, 50, 0
2, 50569, Note_on_c, 0, 48, 64
2, 50576, Note_on_c, 0, 72, 0
2, 50576, Note_on_c, 0, 67, 0
2, 50578, Note_on_c, 0, 48, 0
2, 50580, Note_on_c, 0, 67, 64
2, 50580, Note_on_c, 0, 72, 64
2, 50580, Note_on_c, 0, 43, 64
2, 50588, Note_on_c, 0, 43, 0
2, 50589, Note_on_c, 0, 55, 64
2, 50598, Note_on_c, 0, 55, 0
2, 50598, Note_on_c, 0, 74, 0
2, 50599, Note_on_c, 0, 60, 64
2, 50606, Note_on_c, 0, 72, 0
2, 50606, Note_on_c, 0, 67, 0
2, 50608, Note_on_c, 0, 60, 0
2, 50610, Note_on_c, 0, 67, 64
2, 50610, Note_on_c, 0, 71, 64
2, 50610, Note_on_c, 0, 74, 64
2, 50610, Note_on_c, 0, 43, 64
2, 50618, Note_on_c, 0, 43, 0
2, 50619, Note_on_c, 0, 55, 64
2, 50628, Note_on_c, 0, 55, 0
2, 50629, Note_on_c, 0, 59, 64
2, 50636, Note_on_c, 0, 71, 0
2, 50636, Note_on_c, 0, 67, 0
2, 50638, Note_on_c, 0, 59, 0
2, 50640, Note_on_c, 0, 67, 64
2, 50640, Note_on_c, 0, 72, 64
2, 50640, Note_on_c, 0, 45, 64
2, 50648, Note_on_c, 0, 45, 0
2, 50649, Note_on_c, 0, 55, 64
2, 50658, Note_on_c, 0, 55, 0
2, 50659, Note_on_c, 0, 60, 64
2, 50662, Note_on_c, 0, 74, 0
2, 50666, Note_on_c, 0, 67, 0
2, 50666, Note_on_c, 0, 72, 0
2, 50668, Note_on_c, 0, 60, 0
2, 50670, Note_on_c, 0, 67, 64
2, 50670, Note_on_c, 0, 74, 64
2, 50670, Note_on_c, 0, 79, 64
2, 50670, Note_on_c, 0, 47, 64
2, 50678, Note_on_c, 0, 47, 0
2, 50679, Note_on_c, 0, 55, 64
2, 50688, Note_on_c, 0, 55, 0
2, 50689, Note_on_c, 0, 62, 64
2, 50696, Note_on_c, 0, 79, 0
2, 50696, Note_on_c, 0, 67, 0
2, 50696, Note_on_c, 0, 74, 0
2, 50698, Note_on_c, 0, 62, 0
2, 50700, Note_on_c, 0, 74, 64
2, 50700, Note_on_c, 0, 79, 64
2, 50700, Note_on_c, 0, 47, 64
2, 50708, Note_on_c, 0, 47, 0
2, 50709, Note_on_c, 0, 55, 64
2, 50718, Note_on_c, 0, 55, 0
2, 50719, Note_on_c, 0, 59, 64
2, 50726, Note_on_c, 0, 74, 0
2, 50728, Note_on_c, 0, 59, 0
2, 50730, Note_on_c, 0, 71, 64
2, 50730, Note_on_c, 0, 43, 64
2, 50738, Note_on_c, 0, 43, 0
2, 50739, Note_on_c, 0, 55, 64
2, 50748, Note_on_c, 0, 55, 0
2, 50749, Note_on_c, 0, 62, 64
2, 50752, Note_on_c, 0, 79, 0
2, 50756, Note_on_c, 0, 71, 0
2, 50758, Note_on_c, 0, 62, 0
2, 50760, Note_on_c, 0, 67, 64
2, 50760, Note_on_c, 0, 76, 64
2, 50760, Note_on_c, 0, 48, 64
2, 50768, Note_on_c, 0, 48, 0
2, 50769, Note_on_c, 0, 55, 64
2, 50778, Note_on_c, 0, 55, 0
2, 50779, Note_on_c, 0, 60, 64
2, 50786, Note_on_c, 0, 76, 0
2, 50786, Note_on_c, 0, 67, 0
2, 50788, Note_on_c, 0, 60, 0
2, 50790, Note_on_c, 0, 64, 64
2, 50790, Note_on_c, 0, 76, 64
2, 50790, Note_on_c, 0, 48, 64
2, 50798, Note_on_c, 0, 48, 0
2, 50799, Note_on_c, 0, 55, 64
2, 50808, Note_on_c, 0, 55, 0
2, 50809, Note_on_c, 0, 60, 64
2, 50816, Note_on_c, 0, 64, 0
2, 50818, Note_on_c, 0, 60, 0
2, 50820, Note_on_c, 0, 63, 64
2, 50820, Note_on_c, 0, 47, 64
2, 50828, Note_on_c, 0, 47, 0
2, 50829, Note_on_c, 0, 55, 64
2, 50838, Note_on_c, 0, 55, 0
2, 50839, Note_on_c, 0, 59, 64
2, 50846, Note_on_c, 0, 63, 0
2, 50848, Note_on_c, 0, 59, 0
2, 50850, Note_on_c, 0, 64, 64
2, 50850, Note_on_c, 0, 48, 64
2, 50858, Note_on_c, 0, 48, 0
2, 50859, Note_on_c, 0, 55, 64
2, 50868, Note_on_c, 0, 55, 0
2, 50868, Note_on_c, 0, 76, 0
2, 50869, Note_on_c, 0, 60, 64
2, 50876, Note_on_c, 0, 64, 0
2, 50878, Note_on_c, 0, 60, 0
2, 50880, Note_on_c, 0, 71, 64
2, 50880, Note_on_c, 0, 76, 64
2, 50880, Note_on_c, 0, 44, 64
2, 50888, Note_on_c, 0, 44, 0
2, 50889, Note_on_c, 0, 52, 64
2, 50898, Note_on_c, 0, 52, 0
2, 50899, Note_on_c, 0, 56, 64
2, 50906, Note_on_c, 0, 71, 0
2, 50908, Note_on_c, 0, 56, 0
2, 50910, Note_on_c, 0, 68, 64
2, 50910, Note_on_c, 0, 40, 64
2, 50918, Note_on_c, 0, 40, 0
2, 50919, Note_on_c, 0, 52, 64
2, 50928, Note_on_c, 0, 52, 0
2, 50929, Note_on_c, 0, 59, 64
2, 50932, Note_on_c, 0, 76, 0
2, 50936, Note_on_c, 0, 68, 0
2, 50938, Note_on_c, 0, 59, 0
2, 50940, Note_on_c, 0, 64, 64
2, 50940, Note_on_c, 0, 72, 64
2, 50940, Note_on_c, 0, 45, 64
2, 50948, Note_on_c, 0, 45, 0
2, 50949, Note_on_c, 0, 52, 64
2, 50958, Note_on_c, 0, 52, 0
2, 50959, Note_on_c, 0, 57, 64
2, 50966, Note_on_c, 0, 72, 0
2, 50966, Note_on_c, 0, 64, 0
2, 50968, Note_on_c, 0, 57, 0
2, 50970, Note_on_c, 0, 64, 64
2, 50970, Note_on_c, 0, 72, 64
2, 50970, Note_on_c, 0, 45, 64
2, 50978, Note_on_c, 0, 45, 0
2, 50979, Note_on_c, 0, 52, 64
2, 50988, Note_on_c, 0, 52, 0
2, 50989, Note_on_c, 0, 57, 64
2, 50996, Note_on_c, 0, 64, 0
2, 50998, Note_on_c, 0, 57, 0
2, 51000, Note_on_c, 0, 64, 64
2, 51000, Note_on_c, 0, 44, 64
2, 51008, Note_on_c, 0, 44, 0
2, 51009, Note_on_c, 0, 52, 64
2, 51018, Note_on_c, 0, 52, 0
2, 51019, Note_on_c, 0, 56, 64
2, 51026, Note_on_c, 0, 64, 0
2, 51028, Note_on_c, 0, 56, 0
2, 51030, Note_on_c, 0, 64, 64
2, 51030, Note_on_c, 0, 45, 64
2, 51038, Note_on_c, 0, 45, 0
2, 51039, Note_on_c, 0, 52, 64
2, 51048, Note_on_c, 0, 52, 0
2, 51048, Note_on_c, 0, 72, 0
2, 51049, Note_on_c, 0, 57, 64
2, 51056, Note_on_c, 0, 64, 0
2, 51058, Note_on_c, 0, 57, 0
2, 51060, Note_on_c, 0, 79, 64
2, 51060, Note_on_c, 0, 84, 64
2, 51060, Note_on_c, 0, 40, 64
2, 51068, Note_on_c, 0, 40, 0
2, 51069, Note_on_c, 0, 48, 64
2, 51078, Note_on_c, 0, 48, 0
2, 51079, Note_on_c, 0, 52, 64
2, 51086, Note_on_c, 0, 79, 0
2, 51088, Note_on_c, 0, 52, 0
2, 51090, Note_on_c, 0, 76, 64
2, 51090, Note_on_c, 0, 36, 64
2, 51098, Note_on_c, 0, 36, 0
2, 51099, Note_on_c, 0, 48, 64
2, 51108, Note_on_c, 0, 48, 0
2, 51109, Note_on_c, 0, 55, 64
2, 51112, Note_on_c, 0, 84, 0
2, 51116, Note_on_c, 0, 76, 0
2, 51118, Note_on_c, 0, 55, 0
2, 51120, Note_on_c, 0, 72, 64
2, 51120, Note_on_c, 0, 81, 64
2, 51120, Note_on_c, 0, 41, 64
2, 51128, Note_on_c, 0, 41, 0
2, 51129, Note_on_c, 0, 48, 64
2, 51138, Note_on_c, 0, 48, 0
2, 51139, Note_on_c, 0, 53, 64
2, 51146, Note_on_c, 0, 81, 0
2, 51146, Note_on_c, 0, 72, 0
2, 51148, Note_on_c, 0, 53, 0
2, 51150, Note_on_c, 0, 72, 64
2, 51150, Note_on_c, 0, 81, 64
2, 51150, Note_on_c, 0, 41, 64
2, 51158, Note_on_c, 0, 41, 0
2, 51159, Note_on_c, 0, 48, 64
2, 51168, Note_on_c, 0, 48, 0
2, 51169, Note_on_c, 0, 53, 64
2, 51176, Note_on_c, 0, 72, 0
2, 51178, Note_on_c, 0, 53, 0
2, 51180, Note_on_c, 0, 73, 64
2, 51180, Note_on_c, 0, 79, 64
2, 51180, Note_on_c, 0, 40, 64
2, 51188, Note_on_c, 0, 40, 0
2, 51189, Note_on_c, 0, 45, 64
2, 51198, Note_on_c, 0, 45, 0
2, 51199, Note_on_c, 0, 52, 64
2, 51206, Note_on_c, 0, 79, 0
2, 51206, Note_on_c, 0, 73, 0
2, 51208, Note_on_c, 0, 52, 0
2, 51210, Note_on_c, 0, 74, 64
2, 51210, Note_on_c, 0, 77, 64
2, 51210, Note_on_c, 0, 38, 64
2, 51218, Note_on_c, 0, 38, 0
2, 51219, Note_on_c, 0, 45, 64
2, 51228, Note_on_c, 0, 45, 0
2, 51228, Note_on_c, 0, 81, 0
2, 51229, Note_on_c, 0, 50, 64
2, 51236, Note_on_c, 0, 77, 0
2, 51236, Note_on_c, 0, 74, 0
2, 51238, Note_on_c, 0, 50, 0
2, 51240, Note_on_c, 0, 76, 64
2, 51240, Note_on_c, 0, 81, 64
2, 51240, Note_on_c, 0, 37, 64
2, 51248, Note_on_c, 0, 37, 0
2, 51249, Note_on_c, 0, 45, 64
2, 51258, Note_on_c, 0, 45, 0
2, 51259, Note_on_c, 0, 49, 64
2, 51266, Note_on_c, 0, 76, 0
2, 51268, Note_on_c, 0, 49, 0
2, 51270, Note_on_c, 0, 73, 64
2, 51270, Note_on_c, 0, 33, 64
2, 51278, Note_on_c, 0, 33, 0
2, 51279, Note_on_c, 0, 45, 64
2, 51288, Note_on_c, 0, 45, 0
2, 51289, Note_on_c, 0, 52, 64
2, 51292, Note_on_c, 0, 81, 0
2, 51296, Note_on_c, 0, 73, 0
2, 51298, Note_on_c, 0, 52, 0
2, 51300, Note_on_c, 0, 69, 64
2, 51300, Note_on_c, 0, 77, 64
2, 51300, Note_on_c, 0, 38, 64
2, 51308, Note_on_c, 0, 38, 0
2, 51309, Note_on_c, 0, 45, 64
2, 51318, Note_on_c, 0, 45, 0
2, 51319, Note_on_c, 0, 50, 64
2, 51326, Note_on_c, 0, 77, 0
2, 51326, Note_on_c, 0, 69, 0
2, 51328, Note_on_c, 0, 50, 0
2, 51330, Note_on_c, 0, 69, 64
2, 51330, Note_on_c, 0, 77, 64
2, 51330, Note_on_c, 0, 38, 64
2, 51338, Note_on_c, 0, 38, 0
2, 51339, Note_on_c, 0, 45, 64
2, 51348, Note_on_c, 0, 45, 0
2, 51349, Note_on_c, 0, 50, 64
2, 51356, Note_on_c, 0, 69, 0
2, 51358, Note_on_c, 0, 50, 0
2, 51360, Note_on_c, 0, 69, 64
2, 51360, Note_on_c, 0, 37, 64
2, 51368, Note_on_c, 0, 37, 0
2, 51369, Note_on_c, 0, 45, 64
2, 51378, Note_on_c, 0, 45, 0
2, 51379, Note_on_c, 0, 49, 64
2, 51386, Note_on_c, 0, 69, 0
2, 51388, Note_on_c, 0, 49, 0
2, 51390, Note_on_c, 0, 69, 64
2, 51390, Note_on_c, 0, 38, 64
2, 51398, Note_on_c, 0, 38, 0
2, 51399, Note_on_c, 0, 45, 64
2, 51408, Note_on_c, 0, 45, 0
2, 51408, Note_on_c, 0, 77, 0
2, 51409, Note_on_c, 0, 50, 64
2, 51416, Note_on_c, 0, 69, 0
2, 51418, Note_on_c, 0, 50, 0
2, 51420, Note_on_c, 0, 68, 64
2, 51420, Note_on_c, 0, 77, 64
2, 51420, Note_on_c, 0, 36, 64
2, 51428, Note_on_c, 0, 36, 0
2, 51429, Note_on_c, 0, 41, 64
2, 51438, Note_on_c, 0, 41, 0
2, 51439, Note_on_c, 0, 48, 64
2, 51446, Note_on_c, 0, 68, 0
2, 51448, Note_on_c, 0, 48, 0
2, 51450, Note_on_c, 0, 68, 64
2, 51450, Note_on_c, 0, 35, 64
2, 51458, Note_on_c, 0, 35, 0
2, 51459, Note_on_c, 0, 41, 64
2, 51468, Note_on_c, 0, 41, 0
2, 51469, Note_on_c, 0, 47, 64
2, 51476, Note_on_c, 0, 68, 0
2, 51478, Note_on_c, 0, 47, 0
2, 51480, Note_on_c, 0, 68, 64
2, 51480, Note_on_c, 0, 36, 64
2, 51488, Note_on_c, 0, 36, 0
2, 51489, Note_on_c, 0, 41, 64
2, 51498, Note_on_c, 0, 41, 0
2, 51498, Note_on_c, 0, 77, 0
2, 51499, Note_on_c, 0, 48, 64
2, 51506, Note_on_c, 0, 68, 0
2, 51508, Note_on_c, 0, 48, 0
2, 51510, Note_on_c, 0, 67, 64
2, 51510, Note_on_c, 0, 74, 64
2, 51510, Note_on_c, 0, 77, 64
2, 51510, Note_on_c, 0, 35, 64
2, 51518, Note_on_c, 0, 35, 0
2, 51519, Note_on_c, 0, 43, 64
2, 51528, Note_on_c, 0, 43, 0
2, 51529, Note_on_c, 0, 48, 64
2, 51536, Note_on_c, 0, 67, 0
2, 51538, Note_on_c, 0, 48, 0
2, 51540, Note_on_c, 0, 67, 64
2, 51540, Note_on_c, 0, 34, 64
2, 51548, Note_on_c, 0, 34, 0
2, 51549, Note_on_c, 0, 43, 64
2, 51558, Note_on_c, 0, 43, 0
2, 51559, Note_on_c, 0, 46, 64
2, 51566, Note_on_c, 0, 67, 0
2, 51568, Note_on_c, 0, 46, 0
2, 51570, Note_on_c, 0, 67, 64
2, 51570, Note_on_c, 0, 35, 64
2, 51578, Note_on_c, 0, 35, 0
2, 51579, Note_on_c, 0, 43, 64
2, 51588, Note_on_c, 0, 43, 0
2, 51589, Note_on_c, 0, 47, 64
2, 51596, Note_on_c, 0, 67, 0
2, 51598, Note_on_c, 0, 47, 0
2, 51600, Note_on_c, 0, 67, 64
2, 51600, Note_on_c, 0, 35, 64
2, 51608, Note_on_c, 0, 35, 0
2, 51609, Note_on_c, 0, 43, 64
2, 51618, Note_on_c, 0, 43, 0
2, 51619, Note_on_c, 0, 47, 64
2, 51626, Note_on_c, 0, 67, 0
2, 51628, Note_on_c, 0, 47, 0
2, 51630, Note_on_c, 0, 67, 64
2, 51630, Note_on_c, 0, 34, 64
2, 51638, Note_on_c, 0, 34, 0
2, 51639, Note_on_c, 0, 43, 64
2, 51648, Note_on_c, 0, 43, 0
2, 51649, Note_on_c, 0, 46, 64
2, 51656, Note_on_c, 0, 67, 0
2, 51658, Note_on_c, 0, 46, 0
2, 51660, Note_on_c, 0, 67, 64
2, 51660, Note_on_c, 0, 35, 64
2, 51668, Note_on_c, 0, 35, 0
2, 51669, Note_on_c, 0, 43, 64
2, 51675, Note_on_c, 0, 74, 0
2, 51675, Note_on_c, 0, 77, 0
2, 51678, Note_on_c, 0, 43, 0
2, 51679, Note_on_c, 0, 47, 64
2, 51686, Note_on_c, 0, 67, 0
2, 51688, Note_on_c, 0, 47, 0
2, 51690, Note_on_c, 0, 67, 64
2, 51690, Note_on_c, 0, 71, 64
2, 51690, Note_on_c, 0, 77, 64
2, 51690, Note_on_c, 0, 31, 64
2, 51698, Note_on_c, 0, 31, 0
2, 51699, Note_on_c, 0, 42, 64
2, 51708, Note_on_c, 0, 42, 0
2, 51709, Note_on_c, 0, 43, 64
2, 51716, Note_on_c, 0, 71, 0
2, 51716, Note_on_c, 0, 67, 0
2, 51718, Note_on_c, 0, 43, 0
2, 51720, Note_on_c, 0, 67, 64
2, 51720, Note_on_c, 0, 72, 64
2, 51720, Note_on_c, 0, 33, 64
2, 51728, Note_on_c, 0, 33, 0
2, 51729, Note_on_c, 0, 43, 64
2, 51738, Note_on_c, 0, 43, 0
2, 51739, Note_on_c, 0, 45, 64
2, 51746, Note_on_c, 0, 72, 0
2, 51746, Note_on_c, 0, 67, 0
2, 51748, Note_on_c, 0, 45, 0
2, 51750, Note_on_c, 0, 67, 64
2, 51750, Note_on_c, 0, 74, 64
2, 51750, Note_on_c, 0, 35, 64
2, 51758, Note_on_c, 0, 35, 0
2, 51759, Note_on_c, 0, 43, 64
2, 51768, Note_on_c, 0, 43, 0
2, 51768, Note_on_c, 0, 77, 0
2, 51769, Note_on_c, 0, 47, 64
2, 51776, Note_on_c, 0, 74, 0
2, 51776, Note_on_c, 0, 67, 0
2, 51778, Note_on_c, 0, 47, 0
2, 51780, Note_on_c, 0, 67, 64
2, 51780, Note_on_c, 0, 76, 64
2, 51780, Note_on_c, 0, 36, 64
2, 51788, Note_on_c, 0, 36, 0
2, 51789, Note_on_c, 0, 43, 64
2, 51798, Note_on_c, 0, 43, 0
2, 51799, Note_on_c, 0, 48, 64
2, 51806, Note_on_c, 0, 67, 0
2, 51808, Note_on_c, 0, 48, 0
2, 51810, Note_on_c, 0, 67, 64
2, 51810, Note_on_c, 0, 35, 64
2, 51818, Note_on_c, 0, 35, 0
2, 51819, Note_on_c, 0, 43, 64
2, 51828, Note_on_c, 0, 43, 0
2, 51829, Note_on_c, 0, 47, 64
2, 51836, Note_on_c, 0, 67, 0
2, 51838, Note_on_c, 0, 47, 0
2, 51840, Note_on_c, 0, 67, 64
2, 51840, Note_on_c, 0, 36, 64
2, 51848, Note_on_c, 0, 36, 0
2, 51849, Note_on_c, 0, 43, 64
2, 51858, Note_on_c, 0, 43, 0
2, 51858, Note_on_c, 0, 76, 0
2, 51859, Note_on_c, 0, 48, 64
2, 51866, Note_on_c, 0, 67, 0
2, 51868, Note_on_c, 0, 48, 0
2, 51870, Note_on_c, 0, 67, 64
2, 51870, Note_on_c, 0, 70, 64
2, 51870, Note_on_c, 0, 79, 64
2, 51870, Note_on_c, 0, 36, 64
2, 51878, Note_on_c, 0, 36, 0
2, 51879, Note_on_c, 0, 47, 64
2, 51888, Note_on_c, 0, 47, 0
2, 51889, Note_on_c, 0, 48, 64
2, 51896, Note_on_c, 0, 70, 0
2, 51896, Note_on_c, 0, 67, 0
2, 51898, Note_on_c, 0, 48, 0
2, 51900, Note_on_c, 0, 67, 64
2, 51900, Note_on_c, 0, 70, 64
2, 51900, Note_on_c, 0, 38, 64
2, 51908, Note_on_c, 0, 38, 0
2, 51909, Note_on_c, 0, 48, 64
2, 51918, Note_on_c, 0, 48, 0
2, 51919, Note_on_c, 0, 50, 64
2, 51926, Note_on_c, 0, 70, 0
2, 51926, Note_on_c, 0, 67, 0
2, 51928, Note_on_c, 0, 50, 0
2, 51930, Note_on_c, 0, 67, 64
2, 51930, Note_on_c, 0, 70, 64
2, 51930, Note_on_c, 0, 40, 64
2, 51938, Note_on_c, 0, 40, 0
2, 51939, Note_on_c, 0, 48, 64
2, 51948, Note_on_c, 0, 48, 0
2, 51948, Note_on_c, 0, 79, 0
2, 51949, Note_on_c, 0, 52, 64
2, 51956, Note_on_c, 0, 70, 0
2, 51956, Note_on_c, 0, 67, 0
2, 51958, Note_on_c, 0, 52, 0
2, 51960, Note_on_c, 0, 69, 64
2, 51960, Note_on_c, 0, 79, 64
2, 51960, Note_on_c, 0, 41, 64
2, 51968, Note_on_c, 0, 41, 0
2, 51969, Note_on_c, 0, 48, 64
2, 51978, Note_on_c, 0, 48, 0
2, 51979, Note_on_c, 0, 53, 64
2, 51986, Note_on_c, 0, 79, 0
2, 51986, Note_on_c, 0, 69, 0
2, 51988, Note_on_c, 0, 53, 0
2, 51990, Note_on_c, 0, 69, 64
2, 51990, Note_on_c, 0, 77, 64
2, 51990, Note_on_c, 0, 41, 64
2, 51998, Note_on_c, 0, 41, 0
2, 51999, Note_on_c, 0, 48, 64
2, 52008, Note_on_c, 0, 48, 0
2, 52009, Note_on_c, 0, 53, 64
2, 52016, Note_on_c, 0, 77, 0
2, 52016, Note_on_c, 0, 69, 0
2, 52018, Note_on_c, 0, 53, 0
2, 52020, Note_on_c, 0, 69, 64
2, 52020, Note_on_c, 0, 72, 64
2, 52020, Note_on_c, 0, 76, 64
2, 52020, Note_on_c, 0, 42, 64
2, 52028, Note_on_c, 0, 42, 0
2, 52029, Note_on_c, 0, 48, 64
2, 52038, Note_on_c, 0, 48, 0
2, 52039, Note_on_c, 0, 54, 64
2, 52046, Note_on_c, 0, 76, 0
2, 52046, Note_on_c, 0, 69, 0
2, 52046, Note_on_c, 0, 72, 0
2, 52048, Note_on_c, 0, 54, 0
2, 52050, Note_on_c, 0, 64, 64
2, 52050, Note_on_c, 0, 67, 64
2, 52050, Note_on_c, 0, 72, 64
2, 52050, Note_on_c, 0, 43, 64
2, 52058, Note_on_c, 0, 43, 0
2, 52059, Note_on_c, 0, 48, 64
2, 52068, Note_on_c, 0, 48, 0
2, 52069, Note_on_c, 0, 55, 64
2, 52076, Note_on_c, 0, 67, 0
2, 52076, Note_on_c, 0, 64, 0
2, 52078, Note_on_c, 0, 55, 0
2, 52080, Note_on_c, 0, 64, 64
2, 52080, Note_on_c, 0, 67, 64
2, 52080, Note_on_c, 0, 43, 64
2, 52088, Note_on_c, 0, 43, 0
2, 52089, Note_on_c, 0, 47, 64
2, 52098, Note_on_c, 0, 47, 0
2, 52099, Note_on_c, 0, 55, 64
2, 52106, Note_on_c, 0, 67, 0
2, 52106, Note_on_c, 0, 64, 0
2, 52108, Note_on_c, 0, 55, 0
2, 52110, Note_on_c, 0, 64, 64
2, 52110, Note_on_c, 0, 67, 64
2, 52110, Note_on_c, 0, 45, 64
2, 52118, Note_on_c, 0, 45, 0
2, 52119, Note_on_c, 0, 48, 64
2, 52128, Note_on_c, 0, 48, 0
2, 52128, Note_on_c, 0, 72, 0
2, 52129, Note_on_c, 0, 55, 64
2, 52136, Note_on_c, 0, 67, 0
2, 52136, Note_on_c, 0, 64, 0
2, 52138, Note_on_c, 0, 55, 0
2, 52140, Note_on_c, 0, 65, 64
2, 52140, Note_on_c, 0, 67, 64
2, 52140, Note_on_c, 0, 76, 64
2, 52140, Note_on_c, 0, 43, 64
2, 52148, Note_on_c, 0, 43, 0
2, 52149, Note_on_c, 0, 47, 64
2, 52158, Note_on_c, 0, 47, 0
2, 52159, Note_on_c, 0, 55, 64
2, 52166, Note_on_c, 0, 67, 0
2, 52166, Note_on_c, 0, 65, 0
2, 52168, Note_on_c, 0, 55, 0
2, 52170, Note_on_c, 0, 65, 64
2, 52170, Note_on_c, 0, 67, 64
2, 52170, Note_on_c, 0, 43, 64
2, 52178, Note_on_c, 0, 43, 0
2, 52179, Note_on_c, 0, 48, 64
2, 52188, Note_on_c, 0, 48, 0
2, 52189, Note_on_c, 0, 55, 64
2, 52192, Note_on_c, 0, 76, 0
2, 52196, Note_on_c, 0, 65, 0
2, 52196, Note_on_c, 0, 67, 0
2, 52198, Note_on_c, 0, 55, 0
2, 52200, Note_on_c, 0, 65, 64
2, 52200, Note_on_c, 0, 67, 64
2, 52200, Note_on_c, 0, 74, 64
2, 52200, Note_on_c, 0, 43, 64
2, 52208, Note_on_c, 0, 43, 0
2, 52209, Note_on_c, 0, 47, 64
2, 52218, Note_on_c, 0, 47, 0
2, 52219, Note_on_c, 0, 55, 64
2, 52226, Note_on_c, 0, 74, 0
2, 52226, Note_on_c, 0, 65, 0
2, 52226, Note_on_c, 0, 67, 0
2, 52228, Note_on_c, 0, 55, 0
2, 52230, Note_on_c, 0, 71, 64
2, 52230, Note_on_c, 0, 55, 64
2, 52230, Note_on_c, 0, 67, 64
2, 52238, Note_on_c, 0, 71, 0
2, 52239, Note_on_c, 0, 74, 64
2, 52248, Note_on_c, 0, 74, 0
2, 52249, Note_on_c, 0, 83, 64
2, 52258, Note_on_c, 0, 83, 0
2, 52260, Note_on_c, 0, 71, 64
2, 52268, Note_on_c, 0, 71, 0
2, 52269, Note_on_c, 0, 74, 64
2, 52278, Note_on_c, 0, 74, 0
2, 52279, Note_on_c, 0, 79, 64
2, 52282, Note_on_c, 0, 67, 0
2, 52282, Note_on_c, 0, 55, 0
2, 52288, Note_on_c, 0, 79, 0
2, 52290, Note_on_c, 0, 72, 64
2, 52290, Note_on_c, 0, 52, 64
2, 52290, Note_on_c, 0, 64, 64
2, 52298, Note_on_c, 0, 72, 0
2, 52299, Note_on_c, 0, 79, 64
2, 52308, Note_on_c, 0, 79, 0
2, 52309, Note_on_c, 0, 84, 64
2, 52316, Note_on_c, 0, 64, 0
2, 52316, Note_on_c, 0, 52, 0
2, 52318, Note_on_c, 0, 84, 0
2, 52320, Note_on_c, 0, 72, 64
2, 52320, Note_on_c, 0, 52, 64
2, 52320, Note_on_c, 0, 64, 64
2, 52328, Note_on_c, 0, 72, 0
2, 52329, Note_on_c, 0, 79, 64
2, 52338, Note_on_c, 0, 79, 0
2, 52339, Note_on_c, 0, 84, 64
2, 52348, Note_on_c, 0, 84, 0
2, 52350, Note_on_c, 0, 71, 64
2, 52358, Note_on_c, 0, 71, 0
2, 52359, Note_on_c, 0, 79, 64
2, 52368, Note_on_c, 0, 79, 0
2, 52369, Note_on_c, 0, 84, 64
2, 52378, Note_on_c, 0, 84, 0
2, 52380, Note_on_c, 0, 72, 64
2, 52388, Note_on_c, 0, 72, 0
2, 52389, Note_on_c, 0, 79, 64
2, 52398, Note_on_c, 0, 79, 0
2, 52398, Note_on_c, 0, 64, 0
2, 52398, Note_on_c, 0, 52, 0
2, 52399, Note_on_c, 0, 84, 64
2, 52408, Note_on_c, 0, 84, 0
2, 52410, Note_on_c, 0, 80, 64
2, 52410, Note_on_c, 0, 52, 64
2, 52410, Note_on_c, 0, 64, 64
2, 52418, Note_on_c, 0, 80, 0
2, 52419, Note_on_c, 0, 83, 64
2, 52428, Note_on_c, 0, 83, 0
2, 52429, Note_on_c, 0, 92, 64
2, 52438, Note_on_c, 0, 92, 0
2, 52440, Note_on_c, 0, 80, 64
2, 52448, Note_on_c, 0, 80, 0
2, 52449, Note_on_c, 0, 83, 64
2, 52458, Note_on_c, 0, 83, 0
2, 52459, Note_on_c, 0, 88, 64
2, 52462, Note_on_c, 0, 64, 0
2, 52462, Note_on_c, 0, 52, 0
2, 52468, Note_on_c, 0, 88, 0
2, 52470, Note_on_c, 0, 81, 64
2, 52470, Note_on_c, 0, 48, 64
2, 52470, Note_on_c, 0, 60, 64
2, 52478, Note_on_c, 0, 81, 0
2, 52479, Note_on_c, 0, 88, 64
2, 52488, Note_on_c, 0, 88, 0
2, 52489, Note_on_c, 0, 93, 64
2, 52496, Note_on_c, 0, 60, 0
2, 52496, Note_on_c, 0, 48, 0
2, 52498, Note_on_c, 0, 93, 0
2, 52500, Note_on_c, 0, 81, 64
2, 52500, Note_on_c, 0, 48, 64
2, 52500, Note_on_c, 0, 60, 64
2, 52508, Note_on_c, 0, 81, 0
2, 52509, Note_on_c, 0, 88, 64
2, 52518, Note_on_c, 0, 88, 0
2, 52519, Note_on_c, 0, 93, 64
2, 52528, Note_on_c, 0, 93, 0
2, 52530, Note_on_c, 0, 80, 64
2, 52538, Note_on_c, 0, 80, 0
2, 52539, Note_on_c, 0, 88, 64
2, 52548, Note_on_c, 0, 88, 0
2, 52549, Note_on_c, 0, 92, 64
2, 52558, Note_on_c, 0, 92, 0
2, 52560, Note_on_c, 0, 81, 64
2, 52568, Note_on_c, 0, 81, 0
2, 52569, Note_on_c, 0, 86, 64
2, 52578, Note_on_c, 0, 86, 0
2, 52578, Note_on_c, 0, 60, 0
2, 52578, Note_on_c, 0, 48, 0
2, 52579, Note_on_c, 0, 93, 64
2, 52588, Note_on_c, 0, 93, 0
2, 52590, Note_on_c, 0, 76, 64
2, 52590, Note_on_c, 0, 48, 64
2, 52590, Note_on_c, 0, 60, 64
2, 52598, Note_on_c, 0, 76, 0
2, 52599, Note_on_c, 0, 79, 64
2, 52608, Note_on_c, 0, 79, 0
2, 52609, Note_on_c, 0, 88, 64
2, 52618, Note_on_c, 0, 88, 0
2, 52620, Note_on_c, 0, 76, 64
2, 52628, Note_on_c, 0, 76, 0
2, 52629, Note_on_c, 0, 79, 64
2, 52638, Note_on_c, 0, 79, 0
2, 52639, Note_on_c, 0, 84, 64
2, 52642, Note_on_c, 0, 60, 0
2, 52642, Note_on_c, 0, 48, 0
2, 52648, Note_on_c, 0, 84, 0
2, 52650, Note_on_c, 0, 77, 64
2, 52650, Note_on_c, 0, 45, 64
2, 52650, Note_on_c, 0, 57, 64
2, 52658, Note_on_c, 0, 77, 0
2, 52659, Note_on_c, 0, 84, 64
2, 52668, Note_on_c, 0, 84, 0
2, 52669, Note_on_c, 0, 89, 64
2, 52676, Note_on_c, 0, 57, 0
2, 52676, Note_on_c, 0, 45, 0
2, 52678, Note_on_c, 0, 89, 0
2, 52680, Note_on_c, 0, 77, 64
2, 52680, Note_on_c, 0, 45, 64
2, 52680, Note_on_c, 0, 57, 64
2, 52688, Note_on_c, 0, 77, 0
2, 52689, Note_on_c, 0, 84, 64
2, 52698, Note_on_c, 0, 84, 0
2, 52699, Note_on_c, 0, 89, 64
2, 52708, Note_on_c, 0, 89, 0
2, 52710, Note_on_c, 0, 76, 64
2, 52718, Note_on_c, 0, 76, 0
2, 52719, Note_on_c, 0, 84, 64
2, 52728, Note_on_c, 0, 84, 0
2, 52729, Note_on_c, 0, 88, 64
2, 52738, Note_on_c, 0, 88, 0
2, 52740, Note_on_c, 0, 77, 64
2, 52748, Note_on_c, 0, 77, 0
2, 52749, Note_on_c, 0, 84, 64
2, 52758, Note_on_c, 0, 84, 0
2, 52758, Note_on_c, 0, 57, 0
2, 52758, Note_on_c, 0, 45, 0
2, 52759, Note_on_c, 0, 89, 64
2, 52768, Note_on_c, 0, 89, 0
2, 52770, Note_on_c, 0, 88, 64
2, 52770, Note_on_c, 0, 93, 64
2, 52770, Note_on_c, 0, 49, 64
2, 52778, Note_on_c, 0, 49, 0
2, 52779, Note_on_c, 0, 57, 64
2, 52788, Note_on_c, 0, 57, 0
2, 52789, Note_on_c, 0, 61, 64
2, 52796, Note_on_c, 0, 88, 0
2, 52798, Note_on_c, 0, 61, 0
2, 52800, Note_on_c, 0, 85, 64
2, 52800, Note_on_c, 0, 45, 64
2, 52808, Note_on_c, 0, 45, 0
2, 52809, Note_on_c, 0, 57, 64
2, 52818, Note_on_c, 0, 57, 0
2, 52819, Note_on_c, 0, 64, 64
2, 52826, Note_on_c, 0, 85, 0
2, 52826, Note_on_c, 0, 93, 0
2, 52828, Note_on_c, 0, 64, 0
2, 52830, Note_on_c, 0, 81, 64
2, 52830, Note_on_c, 0, 89, 64
2, 52830, Note_on_c, 0, 50, 64
2, 52838, Note_on_c, 0, 50, 0
2, 52839, Note_on_c, 0, 57, 64
2, 52848, Note_on_c, 0, 57, 0
2, 52849, Note_on_c, 0, 62, 64
2, 52856, Note_on_c, 0, 89, 0
2, 52856, Note_on_c, 0, 81, 0
2, 52858, Note_on_c, 0, 62, 0
2, 52860, Note_on_c, 0, 81, 64
2, 52860, Note_on_c, 0, 89, 64
2, 52860, Note_on_c, 0, 50, 64
2, 52868, Note_on_c, 0, 50, 0
2, 52869, Note_on_c, 0, 57, 64
2, 52878, Note_on_c, 0, 57, 0
2, 52879, Note_on_c, 0, 62, 64
2, 52886, Note_on_c, 0, 81, 0
2, 52888, Note_on_c, 0, 62, 0
2, 52890, Note_on_c, 0, 81, 64
2, 52890, Note_on_c, 0, 49, 64
2, 52898, Note_on_c, 0, 49, 0
2, 52899, Note_on_c, 0, 57, 64
2, 52908, Note_on_c, 0, 57, 0
2, 52909, Note_on_c, 0, 61, 64
2, 52916, Note_on_c, 0, 81, 0
2, 52918, Note_on_c, 0, 61, 0
2, 52920, Note_on_c, 0, 81, 64
2, 52920, Note_on_c, 0, 50, 64
2, 52928, Note_on_c, 0, 50, 0
2, 52929, Note_on_c, 0, 57, 64
2, 52938, Note_on_c, 0, 57, 0
2, 52938, Note_on_c, 0, 89, 0
2, 52939, Note_on_c, 0, 62, 64
2, 52946, Note_on_c, 0, 81, 0
2, 52948, Note_on_c, 0, 62, 0
2, 52950, Note_on_c, 0, 81, 64
2, 52950, Note_on_c, 0, 86, 64
2, 52950, Note_on_c, 0, 89, 64
2, 52950, Note_on_c, 0, 50, 64
2, 52958, Note_on_c, 0, 50, 0
2, 52959, Note_on_c, 0, 57, 64
2, 52968, Note_on_c, 0, 57, 0
2, 52969, Note_on_c, 0, 62, 64
2, 52976, Note_on_c, 0, 86, 0
2, 52976, Note_on_c, 0, 81, 0
2, 52978, Note_on_c, 0, 62, 0
2, 52980, Note_on_c, 0, 81, 64
2, 52980, Note_on_c, 0, 86, 64
2, 52980, Note_on_c, 0, 49, 64
2, 52988, Note_on_c, 0, 49, 0
2, 52989, Note_on_c, 0, 57, 64
2, 52998, Note_on_c, 0, 57, 0
2, 52999, Note_on_c, 0, 61, 64
2, 53006, Note_on_c, 0, 86, 0
2, 53006, Note_on_c, 0, 81, 0
2, 53008, Note_on_c, 0, 61, 0
2, 53010, Note_on_c, 0, 81, 64
2, 53010, Note_on_c, 0, 86, 64
2, 53010, Note_on_c, 0, 50, 64
2, 53018, Note_on_c, 0, 50, 0
2, 53019, Note_on_c, 0, 57, 64
2, 53028, Note_on_c, 0, 57, 0
2, 53028, Note_on_c, 0, 89, 0
2, 53029, Note_on_c, 0, 62, 64
2, 53036, Note_on_c, 0, 86, 0
2, 53036, Note_on_c, 0, 81, 0
2, 53038, Note_on_c, 0, 62, 0
2, 53040, Note_on_c, 0, 80, 64
2, 53040, Note_on_c, 0, 86, 64
2, 53040, Note_on_c, 0, 89, 64
2, 53040, Note_on_c, 0, 48, 64
2, 53048, Note_on_c, 0, 48, 0
2, 53049, Note_on_c, 0, 53, 64
2, 53058, Note_on_c, 0, 53, 0
2, 53059, Note_on_c, 0, 60, 64
2, 53066, Note_on_c, 0, 86, 0
2, 53066, Note_on_c, 0, 80, 0
2, 53068, Note_on_c, 0, 60, 0
2, 53070, Note_on_c, 0, 80, 64
2, 53070, Note_on_c, 0, 86, 64
2, 53070, Note_on_c, 0, 47, 64
2, 53078, Note_on_c, 0, 47, 0
2, 53079, Note_on_c, 0, 53, 64
2, 53088, Note_on_c, 0, 53, 0
2, 53089, Note_on_c, 0, 59, 64
2, 53096, Note_on_c, 0, 86, 0
2, 53096, Note_on_c, 0, 80, 0
2, 53098, Note_on_c, 0, 59, 0
2, 53100, Note_on_c, 0, 80, 64
2, 53100, Note_on_c, 0, 86, 64
2, 53100, Note_on_c, 0, 48, 64
2, 53108, Note_on_c, 0, 48, 0
2, 53109, Note_on_c, 0, 53, 64
2, 53118, Note_on_c, 0, 53, 0
2, 53118, Note_on_c, 0, 89, 0
2, 53119, Note_on_c, 0, 60, 64
2, 53126, Note_on_c, 0, 86, 0
2, 53126, Note_on_c, 0, 80, 0
2, 53128, Note_on_c, 0, 60, 0
2, 53130, Note_on_c, 0, 79, 64
2, 53130, Note_on_c, 0, 86, 64
2, 53130, Note_on_c, 0, 89, 64
2, 53130, Note_on_c, 0, 47, 64
2, 53138, Note_on_c, 0, 47, 0
2, 53139, Note_on_c, 0, 55, 64
2, 53148, Note_on_c, 0, 55, 0
2, 53149, Note_on_c, 0, 59, 64
2, 53156, Note_on_c, 0, 86, 0
2, 53156, Note_on_c, 0, 79, 0
2, 53158, Note_on_c, 0, 59, 0
2, 53160, Note_on_c, 0, 79, 64
2, 53160, Note_on_c, 0, 86, 64
2, 53160, Note_on_c, 0, 46, 64
2, 53168, Note_on_c, 0, 46, 0
2, 53169, Note_on_c, 0, 55, 64
2, 53178, Note_on_c, 0, 55, 0
2, 53179, Note_on_c, 0, 58, 64
2, 53186, Note_on_c, 0, 86, 0
2, 53186, Note_on_c, 0, 79, 0
2, 53188, Note_on_c, 0, 58, 0
2, 53190, Note_on_c, 0, 79, 64
2, 53190, Note_on_c, 0, 86, 64
2, 53190, Note_on_c, 0, 47, 64
2, 53198, Note_on_c, 0, 47, 0
2, 53199, Note_on_c, 0, 55, 64
2, 53208, Note_on_c, 0, 55, 0
2, 53209, Note_on_c, 0, 59, 64
2, 53216, Note_on_c, 0, 86, 0
2, 53216, Note_on_c, 0, 79, 0
2, 53218, Note_on_c, 0, 59, 0
2, 53220, Note_on_c, 0, 79, 64
2, 53220, Note_on_c, 0, 86, 64
2, 53220, Note_on_c, 0, 47, 64
2, 53228, Note_on_c, 0, 47, 0
2, 53229, Note_on_c, 0, 55, 64
2, 53238, Note_on_c, 0, 55, 0
2, 53239, Note_on_c, 0, 59, 64
2, 53246, Note_on_c, 0, 86, 0
2, 53246, Note_on_c, 0, 79, 0
2, 53248, Note_on_c, 0, 59, 0
2, 53250, Note_on_c, 0, 79, 64
2, 53250, Note_on_c, 0, 86, 64
2, 53250, Note_on_c, 0, 46, 64
2, 53258, Note_on_c, 0, 46, 0
2, 53259, Note_on_c, 0, 55, 64
2, 53268, Note_on_c, 0, 55, 0
2, 53269, Note_on_c, 0, 58, 64
2, 53276, Note_on_c, 0, 86, 0
2, 53276, Note_on_c, 0, 79, 0
2, 53278, Note_on_c, 0, 58, 0
2, 53280, Note_on_c, 0, 79, 64
2, 53280, Note_on_c, 0, 86, 64
2, 53280, Note_on_c, 0, 47, 64
2, 53288, Note_on_c, 0, 47, 0
2, 53289, Note_on_c, 0, 55, 64
2, 53295, Note_on_c, 0, 89, 0
2, 53298, Note_on_c, 0, 55, 0
2, 53299, Note_on_c, 0, 59, 64
2, 53306, Note_on_c, 0, 86, 0
2, 53306, Note_on_c, 0, 79, 0
2, 53308, Note_on_c, 0, 59, 0
2, 53310, Note_on_c, 0, 79, 64
2, 53310, Note_on_c, 0, 86, 64
2, 53310, Note_on_c, 0, 89, 64
2, 53310, Note_on_c, 0, 47, 64
2, 53318, Note_on_c, 0, 47, 0
2, 53319, Note_on_c, 0, 55, 64
2, 53328, Note_on_c, 0, 55, 0
2, 53329, Note_on_c, 0, 59, 64
2, 53336, Note_on_c, 0, 86, 0
2, 53336, Note_on_c, 0, 79, 0
2, 53338, Note_on_c, 0, 59, 0
2, 53340, Note_on_c, 0, 79, 64
2, 53340, Note_on_c, 0, 86, 64
2, 53340, Note_on_c, 0, 46, 64
2, 53348, Note_on_c, 0, 46, 0
2, 53349, Note_on_c, 0, 55, 64
2, 53358, Note_on_c, 0, 55, 0
2, 53359, Note_on_c, 0, 58, 64
2, 53366, Note_on_c, 0, 86, 0
2, 53366, Note_on_c, 0, 79, 0
2, 53368, Note_on_c, 0, 58, 0
2, 53370, Note_on_c, 0, 79, 64
2, 53370, Note_on_c, 0, 86, 64
2, 53370, Note_on_c, 0, 47, 64
2, 53378, Note_on_c, 0, 47, 0
2, 53379, Note_on_c, 0, 55, 64
2, 53388, Note_on_c, 0, 55, 0
2, 53388, Note_on_c, 0, 89, 0
2, 53389, Note_on_c, 0, 59, 64
2, 53396, Note_on_c, 0, 86, 0
2, 53396, Note_on_c, 0, 79, 0
2, 53398, Note_on_c, 0, 59, 0
2, 53400, Note_on_c, 0, 84, 64
2, 53400, Note_on_c, 0, 86, 64
2, 53400, Note_on_c, 0, 90, 64
2, 53400, Note_on_c, 0, 45, 64
2, 53408, Note_on_c, 0, 45, 0
2, 53409, Note_on_c, 0, 50, 64
2, 53418, Note_on_c, 0, 50, 0
2, 53419, Note_on_c, 0, 57, 64
2, 53426, Note_on_c, 0, 86, 0
2, 53426, Note_on_c, 0, 84, 0
2, 53428, Note_on_c, 0, 57, 0
2, 53430, Note_on_c, 0, 84, 64
2, 53430, Note_on_c, 0, 86, 64
2, 53430, Note_on_c, 0, 44, 64
2, 53438, Note_on_c, 0, 44, 0
2, 53439, Note_on_c, 0, 50, 64
2, 53448, Note_on_c, 0, 50, 0
2, 53449, Note_on_c, 0, 56, 64
2, 53456, Note_on_c, 0, 86, 0
2, 53456, Note_on_c, 0, 84, 0
2, 53458, Note_on_c, 0, 56, 0
2, 53460, Note_on_c, 0, 84, 64
2, 53460, Note_on_c, 0, 86, 64
2, 53460, Note_on_c, 0, 45, 64
2, 53468, Note_on_c, 0, 45, 0
2, 53469, Note_on_c, 0, 50, 64
2, 53478, Note_on_c, 0, 50, 0
2, 53479, Note_on_c, 0, 57, 64
2, 53486, Note_on_c, 0, 86, 0
2, 53486, Note_on_c, 0, 84, 0
2, 53488, Note_on_c, 0, 57, 0
2, 53490, Note_on_c, 0, 84, 64
2, 53490, Note_on_c, 0, 86, 64
2, 53490, Note_on_c, 0, 45, 64
2, 53498, Note_on_c, 0, 45, 0
2, 53499, Note_on_c, 0, 50, 64
2, 53508, Note_on_c, 0, 50, 0
2, 53509, Note_on_c, 0, 57, 64
2, 53516, Note_on_c, 0, 86, 0
2, 53516, Note_on_c, 0, 84, 0
2, 53518, Note_on_c, 0, 57, 0
2, 53520, Note_on_c, 0, 84, 64
2, 53520, Note_on_c, 0, 86, 64
2, 53520, Note_on_c, 0, 44, 64
2, 53528, Note_on_c, 0, 44, 0
2, 53529, Note_on_c, 0, 50, 64
2, 53538, Note_on_c, 0, 50, 0
2, 53539, Note_on_c, 0, 56, 64
2, 53546, Note_on_c, 0, 86, 0
2, 53546, Note_on_c, 0, 84, 0
2, 53548, Note_on_c, 0, 56, 0
2, 53550, Note_on_c, 0, 84, 64
2, 53550, Note_on_c, 0, 86, 64
2, 53550, Note_on_c, 0, 45, 64
2, 53558, Note_on_c, 0, 45, 0
2, 53559, Note_on_c, 0, 50, 64
2, 53565, Note_on_c, 0, 90, 0
2, 53568, Note_on_c, 0, 50, 0
2, 53569, Note_on_c, 0, 57, 64
2, 53576, Note_on_c, 0, 86, 0
2, 53576, Note_on_c, 0, 84, 0
2, 53578, Note_on_c, 0, 57, 0
2, 53580, Note_on_c, 0, 84, 64
2, 53580, Note_on_c, 0, 86, 64
2, 53580, Note_on_c, 0, 90, 64
2, 53580, Note_on_c, 0, 45, 64
2, 53588, Note_on_c, 0, 45, 0
2, 53589, Note_on_c, 0, 50, 64
2, 53598, Note_on_c, 0, 50, 0
2, 53599, Note_on_c, 0, 57, 64
2, 53606, Note_on_c, 0, 86, 0
2, 53606, Note_on_c, 0, 84, 0
2, 53608, Note_on_c, 0, 57, 0
2, 53610, Note_on_c, 0, 84, 64
2, 53610, Note_on_c, 0, 86, 64
2, 53610, Note_on_c, 0, 44, 64
2, 53618, Note_on_c, 0, 44, 0
2, 53619, Note_on_c, 0, 50, 64
2, 53628, Note_on_c, 0, 50, 0
2, 53629, Note_on_c, 0, 56, 64
2, 53636, Note_on_c, 0, 86, 0
2, 53636, Note_on_c, 0, 84, 0
2, 53638, Note_on_c, 0, 56, 0
2, 53640, Note_on_c, 0, 84, 64
2, 53640, Note_on_c, 0, 86, 64
2, 53640, Note_on_c, 0, 45, 64
2, 53648, Note_on_c, 0, 45, 0
2, 53649, Note_on_c, 0, 50, 64
2, 53658, Note_on_c, 0, 50, 0
2, 53658, Note_on_c, 0, 90, 0
2, 53659, Note_on_c, 0, 57, 64
2, 53666, Note_on_c, 0, 86, 0
2, 53666, Note_on_c, 0, 84, 0
2, 53668, Note_on_c, 0, 57, 0
2, 53670, Note_on_c, 0, 84, 64
2, 53670, Note_on_c, 0, 88, 64
2, 53670, Note_on_c, 0, 91, 64
2, 53670, Note_on_c, 0, 43, 64
2, 53678, Note_on_c, 0, 43, 0
2, 53679, Note_on_c, 0, 48, 64
2, 53688, Note_on_c, 0, 48, 0
2, 53689, Note_on_c, 0, 55, 64
2, 53696, Note_on_c, 0, 88, 0
2, 53696, Note_on_c, 0, 84, 0
2, 53698, Note_on_c, 0, 55, 0
2, 53700, Note_on_c, 0, 79, 64
2, 53700, Note_on_c, 0, 84, 64
2, 53700, Note_on_c, 0, 88, 64
2, 53700, Note_on_c, 0, 43, 64
2, 53708, Note_on_c, 0, 43, 0
2, 53709, Note_on_c, 0, 47, 64
2, 53718, Note_on_c, 0, 47, 0
2, 53719, Note_on_c, 0, 55, 64
2, 53726, Note_on_c, 0, 88, 0
2, 53726, Note_on_c, 0, 84, 0
2, 53726, Note_on_c, 0, 79, 0
2, 53728, Note_on_c, 0, 55, 0
2, 53730, Note_on_c, 0, 79, 64
2, 53730, Note_on_c, 0, 84, 64
2, 53730, Note_on_c, 0, 88, 64
2, 53730, Note_on_c, 0, 43, 64
2, 53738, Note_on_c, 0, 43, 0
2, 53739, Note_on_c, 0, 48, 64
2, 53748, Note_on_c, 0, 48, 0
2, 53748, Note_on_c, 0, 91, 0
2, 53749, Note_on_c, 0, 55, 64
2, 53756, Note_on_c, 0, 79, 0
2, 53756, Note_on_c, 0, 88, 0
2, 53756, Note_on_c, 0, 84, 0
2, 53758, Note_on_c, 0, 55, 0
2, 53760, Note_on_c, 0, 79, 64
2, 53760, Note_on_c, 0, 83, 64
2, 53760, Note_on_c, 0, 89, 64
2, 53760, Note_on_c, 0, 43, 64
2, 53768, Note_on_c, 0, 43, 0
2, 53769, Note_on_c, 0, 50, 64
2, 53778, Note_on_c, 0, 50, 0
2, 53779, Note_on_c, 0, 55, 64
2, 53786, Note_on_c, 0, 83, 0
2, 53786, Note_on_c, 0, 79, 0
2, 53788, Note_on_c, 0, 55, 0
2, 53790, Note_on_c, 0, 79, 64
2, 53790, Note_on_c, 0, 83, 64
2, 53790, Note_on_c, 0, 43, 64
2, 53798, Note_on_c, 0, 43, 0
2, 53799, Note_on_c, 0, 48, 64
2, 53808, Note_on_c, 0, 48, 0
2, 53809, Note_on_c, 0, 55, 64
2, 53816, Note_on_c, 0, 83, 0
2, 53816, Note_on_c, 0, 79, 0
2, 53818, Note_on_c, 0, 55, 0
2, 53820, Note_on_c, 0, 79, 64
2, 53820, Note_on_c, 0, 83, 64
2, 53820, Note_on_c, 0, 43, 64
2, 53828, Note_on_c, 0, 43, 0
2, 53829, Note_on_c, 0, 50, 64
2, 53838, Note_on_c, 0, 50, 0
2, 53838, Note_on_c, 0, 89, 0
2, 53839, Note_on_c, 0, 55, 64
2, 53846, Note_on_c, 0, 83, 0
2, 53846, Note_on_c, 0, 79, 0
2, 53848, Note_on_c, 0, 55, 0
2, 53850, Note_on_c, 0, 79, 64
2, 53850, Note_on_c, 0, 83, 64
2, 53850, Note_on_c, 0, 91, 64
2, 53850, Note_on_c, 0, 43, 64
2, 53858, Note_on_c, 0, 43, 0
2, 53859, Note_on_c, 0, 52, 64
2, 53868, Note_on_c, 0, 52, 0
2, 53869, Note_on_c, 0, 55, 64
2, 53876, Note_on_c, 0, 83, 0
2, 53876, Note_on_c, 0, 79, 0
2, 53878, Note_on_c, 0, 55, 0
2, 53880, Note_on_c, 0, 79, 64
2, 53880, Note_on_c, 0, 83, 64
2, 53880, Note_on_c, 0, 43, 64
2, 53888, Note_on_c, 0, 43, 0
2, 53889, Note_on_c, 0, 52, 64
2, 53898, Note_on_c, 0, 52, 0
2, 53899, Note_on_c, 0, 55, 64
2, 53902, Note_on_c, 0, 91, 0
2, 53906, Note_on_c, 0, 79, 0
2, 53906, Note_on_c, 0, 83, 0
2, 53908, Note_on_c, 0, 55, 0
2, 53910, Note_on_c, 0, 79, 64
2, 53910, Note_on_c, 0, 83, 64
2, 53910, Note_on_c, 0, 93, 64
2, 53910, Note_on_c, 0, 43, 64
2, 53918, Note_on_c, 0, 43, 0
2, 53919, Note_on_c, 0, 53, 64
2, 53928, Note_on_c, 0, 53, 0
2, 53929, Note_on_c, 0, 55, 64
2, 53936, Note_on_c, 0, 93, 0
2, 53936, Note_on_c, 0, 79, 0
2, 53936, Note_on_c, 0, 83, 0
2, 53938, Note_on_c, 0, 55, 0
2, 53940, Note_on_c, 0, 79, 64
2, 53940, Note_on_c, 0, 83, 64
2, 53940, Note_on_c, 0, 93, 64
2, 53940, Note_on_c, 0, 43, 64
2, 53948, Note_on_c, 0, 43, 0
2, 53949, Note_on_c, 0, 53, 64
2, 53958, Note_on_c, 0, 53, 0
2, 53959, Note_on_c, 0, 55, 64
2, 53966, Note_on_c, 0, 83, 0
2, 53966, Note_on_c, 0, 79, 0
2, 53968, Note_on_c, 0, 55, 0
2, 53970, Note_on_c, 0, 79, 64
2, 53970, Note_on_c, 0, 83, 64
2, 53970, Note_on_c, 0, 43, 64
2, 53978, Note_on_c, 0, 43, 0
2, 53979, Note_on_c, 0, 52, 64
2, 53988, Note_on_c, 0, 52, 0
2, 53989, Note_on_c, 0, 55, 64
2, 53996, Note_on_c, 0, 83, 0
2, 53996, Note_on_c, 0, 79, 0
2, 53998, Note_on_c, 0, 55, 0
2, 54000, Note_on_c, 0, 79, 64
2, 54000, Note_on_c, 0, 83, 64
2, 54000, Note_on_c, 0, 43, 64
2, 54008, Note_on_c, 0, 43, 0
2, 54009, Note_on_c, 0, 53, 64
2, 54018, Note_on_c, 0, 53, 0
2, 54019, Note_on_c, 0, 55, 64
2, 54026, Note_on_c, 0, 83, 0
2, 54026, Note_on_c, 0, 79, 0
2, 54028, Note_on_c, 0, 55, 0
2, 54030, Note_on_c, 0, 79, 64
2, 54030, Note_on_c, 0, 83, 64
2, 54030, Note_on_c, 0, 43, 64
2, 54038, Note_on_c, 0, 43, 0
2, 54039, Note_on_c, 0, 53, 64
2, 54048, Note_on_c, 0, 53, 0
2, 54049, Note_on_c, 0, 55, 64
2, 54056, Note_on_c, 0, 83, 0
2, 54056, Note_on_c, 0, 93, 0
2, 54056, Note_on_c, 0, 79, 0
2, 54058, Note_on_c, 0, 55, 0
2, 54060, Note_on_c, 0, 79, 64
2, 54060, Note_on_c, 0, 83, 64
2, 54060, Note_on_c, 0, 93, 64
2, 54060, Note_on_c, 0, 43, 64
2, 54068, Note_on_c, 0, 43, 0
2, 54069, Note_on_c, 0, 53, 64
2, 54078, Note_on_c, 0, 53, 0
2, 54079, Note_on_c, 0, 55, 64
2, 54086, Note_on_c, 0, 93, 0
2, 54086, Note_on_c, 0, 79, 0
2, 54086, Note_on_c, 0, 83, 0
2, 54088, Note_on_c, 0, 55, 0
2, 54090, Note_on_c, 0, 79, 64
2, 54090, Note_on_c, 0, 83, 64
2, 54090, Note_on_c, 0, 91, 64
2, 54090, Note_on_c, 0, 43, 64
2, 54098, Note_on_c, 0, 43, 0
2, 54099, Note_on_c, 0, 52, 64
2, 54108, Note_on_c, 0, 52, 0
2, 54109, Note_on_c, 0, 55, 64
2, 54116, Note_on_c, 0, 91, 0
2, 54116, Note_on_c, 0, 79, 0
2, 54116, Note_on_c, 0, 83, 0
2, 54118, Note_on_c, 0, 55, 0
2, 54120, Note_on_c, 0, 79, 64
2, 54120, Note_on_c, 0, 83, 64
2, 54120, Note_on_c, 0, 91, 64
2, 54120, Note_on_c, 0, 43, 64
2, 54128, Note_on_c, 0, 43, 0
2, 54129, Note_on_c, 0, 52, 64
2, 54138, Note_on_c, 0, 52, 0
2, 54139, Note_on_c, 0, 55, 64
2, 54146, Note_on_c, 0, 91, 0
2, 54146, Note_on_c, 0, 79, 0
2, 54146, Note_on_c, 0, 83, 0
2, 54148, Note_on_c, 0, 55, 0
2, 54150, Note_on_c, 0, 79, 64
2, 54150, Note_on_c, 0, 83, 64
2, 54150, Note_on_c, 0, 89, 64
2, 54150, Note_on_c, 0, 43, 64
2, 54158, Note_on_c, 0, 43, 0
2, 54159, Note_on_c, 0, 50, 64
2, 54168, Note_on_c, 0, 50, 0
2, 54169, Note_on_c, 0, 55, 64
2, 54176, Note_on_c, 0, 89, 0
2, 54176, Note_on_c, 0, 79, 0
2, 54176, Note_on_c, 0, 83, 0
2, 54178, Note_on_c, 0, 55, 0
2, 54180, Note_on_c, 0, 79, 64
2, 54180, Note_on_c, 0, 83, 64
2, 54180, Note_on_c, 0, 88, 64
2, 54180, Note_on_c, 0, 43, 64
2, 54188, Note_on_c, 0, 43, 0
2, 54189, Note_on_c, 0, 48, 64
2, 54198, Note_on_c, 0, 48, 0
2, 54199, Note_on_c, 0, 55, 64
2, 54206, Note_on_c, 0, 88, 0
2, 54206, Note_on_c, 0, 79, 0
2, 54206, Note_on_c, 0, 83, 0
2, 54208, Note_on_c, 0, 55, 0
2, 54210, Note_on_c, 0, 79, 64
2, 54210, Note_on_c, 0, 84, 64
2, 54210, Note_on_c, 0, 88, 64
2, 54210, Note_on_c, 0, 43, 64
2, 54218, Note_on_c, 0, 43, 0
2, 54219, Note_on_c, 0, 48, 64
2, 54228, Note_on_c, 0, 48, 0
2, 54229, Note_on_c, 0, 55, 64
2, 54236, Note_on_c, 0, 79, 0
2, 54238, Note_on_c, 0, 55, 0
2, 54240, Note_on_c, 0, 79, 64
2, 54240, Note_on_c, 0, 43, 64
2, 54248, Note_on_c, 0, 43, 0
2, 54249, Note_on_c, 0, 47, 64
2, 54258, Note_on_c, 0, 47, 0
2, 54259, Note_on_c, 0, 55, 64
2, 54262, Note_on_c, 0, 88, 0
2, 54262, Note_on_c, 0, 84, 0
2, 54266, Note_on_c, 0, 79, 0
2, 54268, Note_on_c, 0, 55, 0
2, 54270, Note_on_c, 0, 79, 64
2, 54270, Note_on_c, 0, 88, 64
2, 54270, Note_on_c, 0, 91, 64
2, 54270, Note_on_c, 0, 43, 64
2, 54278, Note_on_c, 0, 43, 0
2, 54279, Note_on_c, 0, 48, 64
2, 54288, Note_on_c, 0, 48, 0
2, 54289, Note_on_c, 0, 55, 64
2, 54296, Note_on_c, 0, 91, 0
2, 54296, Note_on_c, 0, 79, 0
2, 54296, Note_on_c, 0, 88, 0
2, 54298, Note_on_c, 0, 55, 0
2, 54300, Note_on_c, 0, 79, 64
2, 54300, Note_on_c, 0, 87, 64
2, 54300, Note_on_c, 0, 90, 64
2, 54300, Note_on_c, 0, 43, 64
2, 54308, Note_on_c, 0, 43, 0
2, 54309, Note_on_c, 0, 45, 64
2, 54318, Note_on_c, 0, 45, 0
2, 54319, Note_on_c, 0, 55, 64
2, 54326, Note_on_c, 0, 79, 0
2, 54328, Note_on_c, 0, 55, 0
2, 54330, Note_on_c, 0, 79, 64
2, 54330, Note_on_c, 0, 43, 64
2, 54338, Note_on_c, 0, 43, 0
2, 54339, Note_on_c, 0, 45, 64
2, 54348, Note_on_c, 0, 45, 0
2, 54349, Note_on_c, 0, 55, 64
2, 54352, Note_on_c, 0, 90, 0
2, 54352, Note_on_c, 0, 87, 0
2, 54356, Note_on_c, 0, 79, 0
2, 54358, Note_on_c, 0, 55, 0
2, 54360, Note_on_c, 0, 79, 64
2, 54360, Note_on_c, 0, 86, 64
2, 54360, Note_on_c, 0, 89, 64
2, 54360, Note_on_c, 0, 43, 64
2, 54368, Note_on_c, 0, 43, 0
2, 54369, Note_on_c, 0, 47, 64
2, 54378, Note_on_c, 0, 47, 0
2, 54379, Note_on_c, 0, 55, 64
2, 54386, Note_on_c, 0, 89, 0
2, 54386, Note_on_c, 0, 79, 0
2, 54386, Note_on_c, 0, 86, 0
2, 54388, Note_on_c, 0, 55, 0
2, 54390, Note_on_c, 0, 79, 64
2, 54390, Note_on_c, 0, 82, 64
2, 54390, Note_on_c, 0, 88, 64
2, 54390, Note_on_c, 0, 43, 64
2, 54398, Note_on_c, 0, 43, 0
2, 54399, Note_on_c, 0, 49, 64
2, 54408, Note_on_c, 0, 49, 0
2, 54409, Note_on_c, 0, 55, 64
2, 54416, Note_on_c, 0, 88, 0
2, 54416, Note_on_c, 0, 79, 0
2, 54416, Note_on_c, 0, 82, 0
2, 54418, Note_on_c, 0, 55, 0
2, 54420, Note_on_c, 0, 79, 64
2, 54420, Note_on_c, 0, 83, 64
2, 54420, Note_on_c, 0, 89, 64
2, 54420, Note_on_c, 0, 43, 64
2, 54428, Note_on_c, 0, 43, 0
2, 54429, Note_on_c, 0, 50, 64
2, 54438, Note_on_c, 0, 50, 0
2, 54439, Note_on_c, 0, 55, 64
2, 54446, Note_on_c, 0, 89, 0
2, 54446, Note_on_c, 0, 79, 0
2, 54446, Note_on_c, 0, 83, 0
2, 54448, Note_on_c, 0, 55, 0
2, 54450, Note_on_c, 0, 79, 64
2, 54450, Note_on_c, 0, 83, 64
2, 54450, Note_on_c, 0, 86, 64
2, 54450, Note_on_c, 0, 43, 64
2, 54456, Note_on_c, 0, 43, 0
2, 54457, Note_on_c, 0, 47, 64
2, 54464, Note_on_c, 0, 47, 0
2, 54465, Note_on_c, 0, 50, 64
2, 54471, Note_on_c, 0, 50, 0
2, 54472, Note_on_c, 0, 53, 64
2, 54476, Note_on_c, 0, 79, 0
2, 54476, Note_on_c, 0, 86, 0
2, 54476, Note_on_c, 0, 83, 0
2, 54479, Note_on_c, 0, 53, 0
2, 54480, Note_on_c, 0, 88, 64
2, 54480, Note_on_c, 0, 55, 64
2, 54486, Note_on_c, 0, 55, 0
2, 54486, Note_on_c, 0, 88, 0
2, 54487, Note_on_c, 0, 86, 64
2, 54487, Note_on_c, 0, 59, 64
2, 54494, Note_on_c, 0, 59, 0
2, 54494, Note_on_c, 0, 86, 0
2, 54495, Note_on_c, 0, 88, 64
2, 54495, Note_on_c, 0, 62, 64
2, 54501, Note_on_c, 0, 62, 0
2, 54501, Note_on_c, 0, 88, 0
2, 54502, Note_on_c, 0, 86, 64
2, 54502, Note_on_c, 0, 65, 64
2, 54509, Note_on_c, 0, 65, 0
2, 54509, Note_on_c, 0, 86, 0
2, 54510, Note_on_c, 0, 88, 64
2, 54516, Note_on_c, 0, 88, 0
2, 54517, Note_on_c, 0, 86, 64
2, 54524, Note_on_c, 0, 86, 0
2, 54525, Note_on_c, 0, 88, 64
2, 54531, Note_on_c, 0, 88, 0
2, 54532, Note_on_c, 0, 86, 64
2, 54539, Note_on_c, 0, 86, 0
2, 54540, Note_on_c, 0, 88, 64
2, 54546, Note_on_c, 0, 88, 0
2, 54547, Note_on_c, 0, 86, 64
2, 54554, Note_on_c, 0, 86, 0
2, 54555, Note_on_c, 0, 85, 64
2, 54561, Note_on_c, 0, 85, 0
2, 54562, Note_on_c, 0, 86, 64
2, 54569, Note_on_c, 0, 86, 0
2, 54570, Note_on_c, 0, 90, 64
2, 54576, Note_on_c, 0, 90, 0
2, 54577, Note_on_c, 0, 91, 64
2, 54584, Note_on_c, 0, 91, 0
2, 54585, Note_on_c, 0, 93, 64
2, 54591, Note_on_c, 0, 93, 0
2, 54592, Note_on_c, 0, 91, 64
2, 54599, Note_on_c, 0, 91, 0
2, 54600, Note_on_c, 0, 93, 64
2, 54606, Note_on_c, 0, 93, 0
2, 54607, Note_on_c, 0, 91, 64
2, 54614, Note_on_c, 0, 91, 0
2, 54615, Note_on_c, 0, 93, 64
2, 54621, Note_on_c, 0, 93, 0
2, 54622, Note_on_c, 0, 91, 64
2, 54629, Note_on_c, 0, 91, 0
2, 54630, Note_on_c, 0, 93, 64
2, 54636, Note_on_c, 0, 93, 0
2, 54637, Note_on_c, 0, 91, 64
2, 54644, Note_on_c, 0, 91, 0
2, 54645, Note_on_c, 0, 93, 64
2, 54651, Note_on_c, 0, 93, 0
2, 54652, Note_on_c, 0, 91, 64
2, 54659, Note_on_c, 0, 91, 0
2, 54660, Note_on_c, 0, 93, 64
2, 54666, Note_on_c, 0, 93, 0
2, 54667, Note_on_c, 0, 91, 64
2, 54674, Note_on_c, 0, 91, 0
2, 54675, Note_on_c, 0, 93, 64
2, 54681, Note_on_c, 0, 93, 0
2, 54682, Note_on_c, 0, 91, 64
2, 54689, Note_on_c, 0, 91, 0
2, 54690, Note_on_c, 0, 93, 64
2, 54696, Note_on_c, 0, 93, 0
2, 54697, Note_on_c, 0, 91, 64
2, 54704, Note_on_c, 0, 91, 0
2, 54705, Note_on_c, 0, 93, 64
2, 54711, Note_on_c, 0, 93, 0
2, 54712, Note_on_c, 0, 91, 64
2, 54719, Note_on_c, 0, 91, 0
2, 54720, Note_on_c, 0, 93, 64
2, 54726, Note_on_c, 0, 93, 0
2, 54727, Note_on_c, 0, 91, 64
2, 54734, Note_on_c, 0, 91, 0
2, 54735, Note_on_c, 0, 93, 64
2, 54741, Note_on_c, 0, 93, 0
2, 54742, Note_on_c, 0, 91, 64
2, 54749, Note_on_c, 0, 91, 0
2, 54750, Note_on_c, 0, 93, 64
2, 54756, Note_on_c, 0, 93, 0
2, 54757, Note_on_c, 0, 91, 64
2, 54764, Note_on_c, 0, 91, 0
2, 54765, Note_on_c, 0, 93, 64
2, 54771, Note_on_c, 0, 93, 0
2, 54772, Note_on_c, 0, 91, 64
2, 54779, Note_on_c, 0, 91, 0
2, 54780, Note_on_c, 0, 93, 64
2, 54786, Note_on_c, 0, 93, 0
2, 54787, Note_on_c, 0, 91, 64
2, 54794, Note_on_c, 0, 91, 0
2, 54795, Note_on_c, 0, 93, 64
2, 54801, Note_on_c, 0, 93, 0
2, 54802, Note_on_c, 0, 91, 64
2, 54809, Note_on_c, 0, 91, 0
2, 54810, Note_on_c, 0, 93, 64
2, 54816, Note_on_c, 0, 93, 0
2, 54817, Note_on_c, 0, 91, 64
2, 54824, Note_on_c, 0, 91, 0
2, 54825, Note_on_c, 0, 93, 64
2, 54831, Note_on_c, 0, 93, 0
2, 54832, Note_on_c, 0, 91, 64
2, 54839, Note_on_c, 0, 91, 0
2, 54840, Note_on_c, 0, 93, 64
2, 54846, Note_on_c, 0, 93, 0
2, 54847, Note_on_c, 0, 91, 64
2, 54854, Note_on_c, 0, 91, 0
2, 54855, Note_on_c, 0, 93, 64
2, 54861, Note_on_c, 0, 93, 0
2, 54862, Note_on_c, 0, 91, 64
2, 54869, Note_on_c, 0, 91, 0
2, 54870, Note_on_c, 0, 93, 64
2, 54876, Note_on_c, 0, 93, 0
2, 54877, Note_on_c, 0, 91, 64
2, 54884, Note_on_c, 0, 91, 0
2, 54885, Note_on_c, 0, 93, 64
2, 54891, Note_on_c, 0, 93, 0
2, 54892, Note_on_c, 0, 91, 64
2, 54899, Note_on_c, 0, 91, 0
2, 54900, Note_on_c, 0, 93, 64
2, 54906, Note_on_c, 0, 93, 0
2, 54907, Note_on_c, 0, 91, 64
2, 54914, Note_on_c, 0, 91, 0
2, 54915, Note_on_c, 0, 93, 64
2, 54921, Note_on_c, 0, 93, 0
2, 54922, Note_on_c, 0, 91, 64
2, 54929, Note_on_c, 0, 91, 0
2, 54930, Note_on_c, 0, 93, 64
2, 54930, Note_on_c, 0, 84, 64
2, 54930, Note_on_c, 0, 76, 64
2, 54936, Note_on_c, 0, 93, 0
2, 54937, Note_on_c, 0, 91, 64
2, 54938, Note_on_c, 0, 76, 0
2, 54939, Note_on_c, 0, 72, 64
2, 54944, Note_on_c, 0, 91, 0
2, 54945, Note_on_c, 0, 93, 64
2, 54948, Note_on_c, 0, 72, 0
2, 54949, Note_on_c, 0, 76, 64
2, 54951, Note_on_c, 0, 93, 0
2, 54952, Note_on_c, 0, 91, 64
2, 54958, Note_on_c, 0, 76, 0
2, 54959, Note_on_c, 0, 91, 0
2, 54960, Note_on_c, 0, 93, 64
2, 54960, Note_on_c, 0, 72, 64
2, 54966, Note_on_c, 0, 93, 0
2, 54967, Note_on_c, 0, 91, 64
2, 54968, Note_on_c, 0, 72, 0
2, 54969, Note_on_c, 0, 76, 64
2, 54974, Note_on_c, 0, 91, 0
2, 54975, Note_on_c, 0, 93, 64
2, 54978, Note_on_c, 0, 76, 0
2, 54979, Note_on_c, 0, 72, 64
2, 54981, Note_on_c, 0, 93, 0
2, 54982, Note_on_c, 0, 84, 0
2, 54982, Note_on_c, 0, 91, 64
2, 54988, Note_on_c, 0, 72, 0
2, 54989, Note_on_c, 0, 91, 0
2, 54990, Note_on_c, 0, 93, 64
2, 54990, Note_on_c, 0, 79, 64
2, 54990, Note_on_c, 0, 76, 64
2, 54996, Note_on_c, 0, 93, 0
2, 54997, Note_on_c, 0, 91, 64
2, 54998, Note_on_c, 0, 76, 0
2, 54999, Note_on_c, 0, 72, 64
2, 55004, Note_on_c, 0, 91, 0
2, 55005, Note_on_c, 0, 93, 64
2, 55008, Note_on_c, 0, 72, 0
2, 55009, Note_on_c, 0, 76, 64
2, 55011, Note_on_c, 0, 93, 0
2, 55012, Note_on_c, 0, 91, 64
2, 55016, Note_on_c, 0, 79, 0
2, 55018, Note_on_c, 0, 76, 0
2, 55019, Note_on_c, 0, 91, 0
2, 55020, Note_on_c, 0, 93, 64
2, 55020, Note_on_c, 0, 79, 64
2, 55020, Note_on_c, 0, 72, 64
2, 55026, Note_on_c, 0, 93, 0
2, 55027, Note_on_c, 0, 91, 64
2, 55028, Note_on_c, 0, 72, 0
2, 55029, Note_on_c, 0, 76, 64
2, 55034, Note_on_c, 0, 91, 0
2, 55035, Note_on_c, 0, 93, 64
2, 55038, Note_on_c, 0, 76, 0
2, 55039, Note_on_c, 0, 72, 64
2, 55041, Note_on_c, 0, 93, 0
2, 55042, Note_on_c, 0, 91, 64
2, 55048, Note_on_c, 0, 72, 0
2, 55049, Note_on_c, 0, 91, 0
2, 55050, Note_on_c, 0, 93, 64
2, 55050, Note_on_c, 0, 76, 64
2, 55056, Note_on_c, 0, 93, 0
2, 55057, Note_on_c, 0, 91, 64
2, 55058, Note_on_c, 0, 76, 0
2, 55059, Note_on_c, 0, 72, 64
2, 55064, Note_on_c, 0, 91, 0
2, 55065, Note_on_c, 0, 93, 64
2, 55068, Note_on_c, 0, 72, 0
2, 55069, Note_on_c, 0, 76, 64
2, 55071, Note_on_c, 0, 93, 0
2, 55072, Note_on_c, 0, 91, 64
2, 55078, Note_on_c, 0, 76, 0
2, 55079, Note_on_c, 0, 91, 0
2, 55080, Note_on_c, 0, 93, 64
2, 55080, Note_on_c, 0, 72, 64
2, 55086, Note_on_c, 0, 93, 0
2, 55087, Note_on_c, 0, 91, 64
2, 55088, Note_on_c, 0, 72, 0
2, 55089, Note_on_c, 0, 76, 64
2, 55094, Note_on_c, 0, 91, 0
2, 55095, Note_on_c, 0, 93, 64
2, 55098, Note_on_c, 0, 76, 0
2, 55099, Note_on_c, 0, 72, 64
2, 55101, Note_on_c, 0, 93, 0
2, 55102, Note_on_c, 0, 91, 64
2, 55108, Note_on_c, 0, 72, 0
2, 55109, Note_on_c, 0, 91, 0
2, 55110, Note_on_c, 0, 93, 64
2, 55110, Note_on_c, 0, 76, 64
2, 55116, Note_on_c, 0, 93, 0
2, 55117, Note_on_c, 0, 91, 64
2, 55118, Note_on_c, 0, 76, 0
2, 55119, Note_on_c, 0, 73, 64
2, 55124, Note_on_c, 0, 91, 0
2, 55125, Note_on_c, 0, 93, 64
2, 55128, Note_on_c, 0, 73, 0
2, 55129, Note_on_c, 0, 76, 64
2, 55131, Note_on_c, 0, 93, 0
2, 55132, Note_on_c, 0, 91, 64
2, 55138, Note_on_c, 0, 76, 0
2, 55139, Note_on_c, 0, 91, 0
2, 55140, Note_on_c, 0, 93, 64
2, 55140, Note_on_c, 0, 73, 64
2, 55146, Note_on_c, 0, 93, 0
2, 55147, Note_on_c, 0, 91, 64
2, 55148, Note_on_c, 0, 73, 0
2, 55149, Note_on_c, 0, 76, 64
2, 55154, Note_on_c, 0, 91, 0
2, 55155, Note_on_c, 0, 93, 64
2, 55158, Note_on_c, 0, 76, 0
2, 55159, Note_on_c, 0, 73, 64
2, 55161, Note_on_c, 0, 93, 0
2, 55162, Note_on_c, 0, 91, 64
2, 55168, Note_on_c, 0, 73, 0
2, 55169, Note_on_c, 0, 91, 0
2, 55170, Note_on_c, 0, 93, 64
2, 55170, Note_on_c, 0, 77, 64
2, 55176, Note_on_c, 0, 93, 0
2, 55177, Note_on_c, 0, 91, 64
2, 55178, Note_on_c, 0, 77, 0
2, 55179, Note_on_c, 0, 74, 64
2, 55184, Note_on_c, 0, 91, 0
2, 55185, Note_on_c, 0, 79, 0
2, 55185, Note_on_c, 0, 93, 64
2, 55188, Note_on_c, 0, 74, 0
2, 55189, Note_on_c, 0, 77, 64
2, 55191, Note_on_c, 0, 93, 0
2, 55192, Note_on_c, 0, 91, 64
2, 55198, Note_on_c, 0, 77, 0
2, 55199, Note_on_c, 0, 91, 0
2, 55200, Note_on_c, 0, 93, 64
2, 55200, Note_on_c, 0, 86, 64
2, 55200, Note_on_c, 0, 71, 64
2, 55206, Note_on_c, 0, 93, 0
2, 55207, Note_on_c, 0, 91, 64
2, 55208, Note_on_c, 0, 71, 0
2, 55209, Note_on_c, 0, 77, 64
2, 55214, Note_on_c, 0, 91, 0
2, 55215, Note_on_c, 0, 93, 64
2, 55218, Note_on_c, 0, 77, 0
2, 55219, Note_on_c, 0, 71, 64
2, 55221, Note_on_c, 0, 93, 0
2, 55222, Note_on_c, 0, 91, 64
2, 55228, Note_on_c, 0, 71, 0
2, 55229, Note_on_c, 0, 91, 0
2, 55230, Note_on_c, 0, 93, 64
2, 55230, Note_on_c, 0, 77, 64
2, 55236, Note_on_c, 0, 93, 0
2, 55237, Note_on_c, 0, 91, 64
2, 55238, Note_on_c, 0, 77, 0
2, 55239, Note_on_c, 0, 71, 64
2, 55244, Note_on_c, 0, 91, 0
2, 55245, Note_on_c, 0, 93, 64
2, 55248, Note_on_c, 0, 71, 0
2, 55249, Note_on_c, 0, 77, 64
2, 55251, Note_on_c, 0, 93, 0
2, 55252, Note_on_c, 0, 86, 0
2, 55252, Note_on_c, 0, 91, 64
2, 55258, Note_on_c, 0, 77, 0
2, 55259, Note_on_c, 0, 91, 0
2, 55260, Note_on_c, 0, 93, 64
2, 55260, Note_on_c, 0, 79, 64
2, 55260, Note_on_c, 0, 71, 64
2, 55266, Note_on_c, 0, 93, 0
2, 55267, Note_on_c, 0, 91, 64
2, 55268, Note_on_c, 0, 71, 0
2, 55269, Note_on_c, 0, 77, 64
2, 55274, Note_on_c, 0, 91, 0
2, 55275, Note_on_c, 0, 93, 64
2, 55278, Note_on_c, 0, 77, 0
2, 55279, Note_on_c, 0, 71, 64
2, 55281, Note_on_c, 0, 93, 0
2, 55282, Note_on_c, 0, 91, 64
2, 55286, Note_on_c, 0, 79, 0
2, 55288, Note_on_c, 0, 71, 0
2, 55289, Note_on_c, 0, 91, 0
2, 55290, Note_on_c, 0, 93, 64
2, 55290, Note_on_c, 0, 79, 64
2, 55290, Note_on_c, 0, 77, 64
2, 55296, Note_on_c, 0, 93, 0
2, 55297, Note_on_c, 0, 91, 64
2, 55298, Note_on_c, 0, 77, 0
2, 55299, Note_on_c, 0, 71, 64
2, 55304, Note_on_c, 0, 91, 0
2, 55305, Note_on_c, 0, 93, 64
2, 55308, Note_on_c, 0, 71, 0
2, 55309, Note_on_c, 0, 77, 64
2, 55311, Note_on_c, 0, 93, 0
2, 55312, Note_on_c, 0, 91, 64
2, 55318, Note_on_c, 0, 77, 0
2, 55319, Note_on_c, 0, 91, 0
2, 55320, Note_on_c, 0, 93, 64
2, 55320, Note_on_c, 0, 71, 64
2, 55326, Note_on_c, 0, 93, 0
2, 55327, Note_on_c, 0, 91, 64
2, 55328, Note_on_c, 0, 71, 0
2, 55329, Note_on_c, 0, 77, 64
2, 55334, Note_on_c, 0, 91, 0
2, 55335, Note_on_c, 0, 93, 64
2, 55338, Note_on_c, 0, 77, 0
2, 55339, Note_on_c, 0, 71, 64
2, 55341, Note_on_c, 0, 93, 0
2, 55342, Note_on_c, 0, 91, 64
2, 55348, Note_on_c, 0, 71, 0
2, 55349, Note_on_c, 0, 91, 0
2, 55350, Note_on_c, 0, 93, 64
2, 55350, Note_on_c, 0, 77, 64
2, 55356, Note_on_c, 0, 93, 0
2, 55357, Note_on_c, 0, 91, 64
2, 55358, Note_on_c, 0, 77, 0
2, 55359, Note_on_c, 0, 71, 64
2, 55364, Note_on_c, 0, 91, 0
2, 55365, Note_on_c, 0, 93, 64
2, 55368, Note_on_c, 0, 71, 0
2, 55369, Note_on_c, 0, 77, 64
2, 55371, Note_on_c, 0, 93, 0
2, 55372, Note_on_c, 0, 91, 64
2, 55378, Note_on_c, 0, 77, 0
2, 55379, Note_on_c, 0, 91, 0
2, 55380, Note_on_c, 0, 93, 64
2, 55380, Note_on_c, 0, 72, 64
2, 55386, Note_on_c, 0, 93, 0
2, 55387, Note_on_c, 0, 91, 64
2, 55388, Note_on_c, 0, 72, 0
2, 55389, Note_on_c, 0, 76, 64
2, 55394, Note_on_c, 0, 91, 0
2, 55395, Note_on_c, 0, 93, 64
2, 55398, Note_on_c, 0, 76, 0
2, 55399, Note_on_c, 0, 72, 64
2, 55401, Note_on_c, 0, 93, 0
2, 55402, Note_on_c, 0, 91, 64
2, 55408, Note_on_c, 0, 72, 0
2, 55409, Note_on_c, 0, 91, 0
2, 55410, Note_on_c, 0, 93, 64
2, 55410, Note_on_c, 0, 76, 64
2, 55416, Note_on_c, 0, 93, 0
2, 55417, Note_on_c, 0, 91, 64
2, 55418, Note_on_c, 0, 76, 0
2, 55419, Note_on_c, 0, 72, 64
2, 55424, Note_on_c, 0, 91, 0
2, 55425, Note_on_c, 0, 93, 64
2, 55428, Note_on_c, 0, 72, 0
2, 55429, Note_on_c, 0, 76, 64
2, 55431, Note_on_c, 0, 93, 0
2, 55432, Note_on_c, 0, 91, 64
2, 55438, Note_on_c, 0, 76, 0
2, 55439, Note_on_c, 0, 91, 0
2, 55440, Note_on_c, 0, 93, 64
2, 55440, Note_on_c, 0, 72, 64
2, 55446, Note_on_c, 0, 93, 0
2, 55447, Note_on_c, 0, 91, 64
2, 55448, Note_on_c, 0, 72, 0
2, 55449, Note_on_c, 0, 76, 64
2, 55454, Note_on_c, 0, 91, 0
2, 55455, Note_on_c, 0, 79, 0
2, 55455, Note_on_c, 0, 93, 64
2, 55458, Note_on_c, 0, 76, 0
2, 55459, Note_on_c, 0, 72, 64
2, 55461, Note_on_c, 0, 93, 0
2, 55462, Note_on_c, 0, 91, 64
2, 55468, Note_on_c, 0, 72, 0
2, 55469, Note_on_c, 0, 91, 0
2, 55470, Note_on_c, 0, 93, 64
2, 55470, Note_on_c, 0, 79, 64
2, 55470, Note_on_c, 0, 77, 64
2, 55476, Note_on_c, 0, 93, 0
2, 55477, Note_on_c, 0, 91, 64
2, 55478, Note_on_c, 0, 77, 0
2, 55479, Note_on_c, 0, 74, 64
2, 55484, Note_on_c, 0, 91, 0
2, 55485, Note_on_c, 0, 93, 64
2, 55488, Note_on_c, 0, 74, 0
2, 55489, Note_on_c, 0, 77, 64
2, 55491, Note_on_c, 0, 93, 0
2, 55492, Note_on_c, 0, 91, 64
2, 55498, Note_on_c, 0, 77, 0
2, 55499, Note_on_c, 0, 91, 0
2, 55500, Note_on_c, 0, 93, 64
2, 55500, Note_on_c, 0, 74, 64
2, 55506, Note_on_c, 0, 93, 0
2, 55507, Note_on_c, 0, 91, 64
2, 55508, Note_on_c, 0, 74, 0
2, 55509, Note_on_c, 0, 77, 64
2, 55514, Note_on_c, 0, 91, 0
2, 55515, Note_on_c, 0, 93, 64
2, 55518, Note_on_c, 0, 77, 0
2, 55519, Note_on_c, 0, 74, 64
2, 55521, Note_on_c, 0, 93, 0
2, 55522, Note_on_c, 0, 91, 64
2, 55528, Note_on_c, 0, 74, 0
2, 55529, Note_on_c, 0, 91, 0
2, 55530, Note_on_c, 0, 93, 64
2, 55530, Note_on_c, 0, 76, 64
2, 55536, Note_on_c, 0, 93, 0
2, 55537, Note_on_c, 0, 91, 64
2, 55538, Note_on_c, 0, 76, 0
2, 55539, Note_on_c, 0, 74, 64
2, 55544, Note_on_c, 0, 91, 0
2, 55545, Note_on_c, 0, 93, 64
2, 55548, Note_on_c, 0, 74, 0
2, 55548, Note_on_c, 0, 79, 0
2, 55549, Note_on_c, 0, 76, 64
2, 55551, Note_on_c, 0, 93, 0
2, 55552, Note_on_c, 0, 91, 64
2, 55558, Note_on_c, 0, 76, 0
2, 55559, Note_on_c, 0, 91, 0
2, 55560, Note_on_c, 0, 93, 64
2, 55560, Note_on_c, 0, 79, 64
2, 55560, Note_on_c, 0, 64, 64
2, 55566, Note_on_c, 0, 93, 0
2, 55567, Note_on_c, 0, 91, 64
2, 55568, Note_on_c, 0, 64, 0
2, 55569, Note_on_c, 0, 76, 64
2, 55574, Note_on_c, 0, 91, 0
2, 55575, Note_on_c, 0, 93, 64
2, 55578, Note_on_c, 0, 76, 0
2, 55579, Note_on_c, 0, 64, 64
2, 55581, Note_on_c, 0, 93, 0
2, 55582, Note_on_c, 0, 91, 64
2, 55588, Note_on_c, 0, 64, 0
2, 55589, Note_on_c, 0, 91, 0
2, 55590, Note_on_c, 0, 93, 64
2, 55590, Note_on_c, 0, 76, 64
2, 55596, Note_on_c, 0, 93, 0
2, 55597, Note_on_c, 0, 91, 64
2, 55598, Note_on_c, 0, 76, 0
2, 55599, Note_on_c, 0, 64, 64
2, 55604, Note_on_c, 0, 91, 0
2, 55605, Note_on_c, 0, 93, 64
2, 55608, Note_on_c, 0, 64, 0
2, 55609, Note_on_c, 0, 76, 64
2, 55611, Note_on_c, 0, 93, 0
2, 55612, Note_on_c, 0, 91, 64
2, 55618, Note_on_c, 0, 76, 0
2, 55619, Note_on_c, 0, 91, 0
2, 55620, Note_on_c, 0, 93, 64
2, 55620, Note_on_c, 0, 64, 64
2, 55626, Note_on_c, 0, 93, 0
2, 55627, Note_on_c, 0, 91, 64
2, 55628, Note_on_c, 0, 64, 0
2, 55629, Note_on_c, 0, 76, 64
2, 55634, Note_on_c, 0, 91, 0
2, 55635, Note_on_c, 0, 93, 64
2, 55638, Note_on_c, 0, 76, 0
2, 55638, Note_on_c, 0, 79, 0
2, 55639, Note_on_c, 0, 64, 64
2, 55641, Note_on_c, 0, 93, 0
2, 55642, Note_on_c, 0, 91, 64
2, 55648, Note_on_c, 0, 64, 0
2, 55649, Note_on_c, 0, 91, 0
2, 55650, Note_on_c, 0, 93, 64
2, 55650, Note_on_c, 0, 88, 64
2, 55650, Note_on_c, 0, 72, 64
2, 55656, Note_on_c, 0, 93, 0
2, 55657, Note_on_c, 0, 91, 64
2, 55658, Note_on_c, 0, 72, 0
2, 55659, Note_on_c, 0, 60, 64
2, 55664, Note_on_c, 0, 91, 0
2, 55665, Note_on_c, 0, 93, 64
2, 55668, Note_on_c, 0, 60, 0
2, 55669, Note_on_c, 0, 72, 64
2, 55671, Note_on_c, 0, 93, 0
2, 55672, Note_on_c, 0, 91, 64
2, 55678, Note_on_c, 0, 72, 0
2, 55679, Note_on_c, 0, 91, 0
2, 55680, Note_on_c, 0, 93, 64
2, 55680, Note_on_c, 0, 60, 64
2, 55686, Note_on_c, 0, 93, 0
2, 55687, Note_on_c, 0, 91, 64
2, 55688, Note_on_c, 0, 60, 0
2, 55689, Note_on_c, 0, 72, 64
2, 55694, Note_on_c, 0, 91, 0
2, 55695, Note_on_c, 0, 93, 64
2, 55698, Note_on_c, 0, 72, 0
2, 55699, Note_on_c, 0, 60, 64
2, 55701, Note_on_c, 0, 93, 0
2, 55702, Note_on_c, 0, 91, 64
2, 55708, Note_on_c, 0, 60, 0
2, 55709, Note_on_c, 0, 91, 0
2, 55710, Note_on_c, 0, 93, 64
2, 55710, Note_on_c, 0, 72, 64
2, 55716, Note_on_c, 0, 93, 0
2, 55717, Note_on_c, 0, 91, 64
2, 55718, Note_on_c, 0, 72, 0
2, 55719, Note_on_c, 0, 60, 64
2, 55724, Note_on_c, 0, 91, 0
2, 55725, Note_on_c, 0, 93, 64
2, 55728, Note_on_c, 0, 60, 0
2, 55728, Note_on_c, 0, 88, 0
2, 55729, Note_on_c, 0, 72, 64
2, 55731, Note_on_c, 0, 93, 0
2, 55732, Note_on_c, 0, 91, 64
2, 55738, Note_on_c, 0, 72, 0
2, 55739, Note_on_c, 0, 91, 0
2, 55740, Note_on_c, 0, 93, 64
2, 55740, Note_on_c, 0, 84, 64
2, 55740, Note_on_c, 0, 64, 64
2, 55746, Note_on_c, 0, 93, 0
2, 55747, Note_on_c, 0, 91, 64
2, 55748, Note_on_c, 0, 64, 0
2, 55749, Note_on_c, 0, 76, 64
2, 55754, Note_on_c, 0, 91, 0
2, 55755, Note_on_c, 0, 93, 64
2, 55758, Note_on_c, 0, 76, 0
2, 55759, Note_on_c, 0, 64, 64
2, 55761, Note_on_c, 0, 93, 0
2, 55762, Note_on_c, 0, 91, 64
2, 55768, Note_on_c, 0, 64, 0
2, 55769, Note_on_c, 0, 91, 0
2, 55770, Note_on_c, 0, 93, 64
2, 55770, Note_on_c, 0, 76, 64
2, 55776, Note_on_c, 0, 93, 0
2, 55777, Note_on_c, 0, 91, 64
2, 55778, Note_on_c, 0, 76, 0
2, 55779, Note_on_c, 0, 64, 64
2, 55784, Note_on_c, 0, 91, 0
2, 55785, Note_on_c, 0, 93, 64
2, 55788, Note_on_c, 0, 64, 0
2, 55789, Note_on_c, 0, 76, 64
2, 55791, Note_on_c, 0, 93, 0
2, 55792, Note_on_c, 0, 91, 64
2, 55798, Note_on_c, 0, 76, 0
2, 55799, Note_on_c, 0, 91, 0
2, 55800, Note_on_c, 0, 93, 64
2, 55800, Note_on_c, 0, 64, 64
2, 55806, Note_on_c, 0, 93, 0
2, 55807, Note_on_c, 0, 91, 64
2, 55808, Note_on_c, 0, 64, 0
2, 55809, Note_on_c, 0, 76, 64
2, 55814, Note_on_c, 0, 91, 0
2, 55815, Note_on_c, 0, 93, 64
2, 55818, Note_on_c, 0, 76, 0
2, 55818, Note_on_c, 0, 84, 0
2, 55819, Note_on_c, 0, 64, 64
2, 55821, Note_on_c, 0, 93, 0
2, 55822, Note_on_c, 0, 91, 64
2, 55828, Note_on_c, 0, 64, 0
2, 55829, Note_on_c, 0, 91, 0
2, 55830, Note_on_c, 0, 93, 64
2, 55830, Note_on_c, 0, 84, 64
2, 55830, Note_on_c, 0, 76, 64
2, 55836, Note_on_c, 0, 93, 0
2, 55837, Note_on_c, 0, 91, 64
2, 55838, Note_on_c, 0, 76, 0
2, 55839, Note_on_c, 0, 67, 64
2, 55844, Note_on_c, 0, 91, 0
2, 55845, Note_on_c, 0, 93, 64
2, 55848, Note_on_c, 0, 67, 0
2, 55849, Note_on_c, 0, 76, 64
2, 55851, Note_on_c, 0, 93, 0
2, 55852, Note_on_c, 0, 91, 64
2, 55858, Note_on_c, 0, 76, 0
2, 55859, Note_on_c, 0, 91, 0
2, 55860, Note_on_c, 0, 93, 64
2, 55860, Note_on_c, 0, 67, 64
2, 55866, Note_on_c, 0, 93, 0
2, 55867, Note_on_c, 0, 91, 64
2, 55868, Note_on_c, 0, 67, 0
2, 55869, Note_on_c, 0, 76, 64
2, 55874, Note_on_c, 0, 91, 0
2, 55875, Note_on_c, 0, 93, 64
2, 55878, Note_on_c, 0, 76, 0
2, 55879, Note_on_c, 0, 67, 64
2, 55881, Note_on_c, 0, 93, 0
2, 55882, Note_on_c, 0, 91, 64
2, 55888, Note_on_c, 0, 67, 0
2, 55889, Note_on_c, 0, 91, 0
2, 55890, Note_on_c, 0, 93, 64
2, 55890, Note_on_c, 0, 76, 64
2, 55896, Note_on_c, 0, 93, 0
2, 55897, Note_on_c, 0, 91, 64
2, 55898, Note_on_c, 0, 76, 0
2, 55899, Note_on_c, 0, 67, 64
2, 55904, Note_on_c, 0, 91, 0
2, 55905, Note_on_c, 0, 93, 64
2, 55908, Note_on_c, 0, 67, 0
2, 55908, Note_on_c, 0, 84, 0
2, 55909, Note_on_c, 0, 76, 64
2, 55911, Note_on_c, 0, 93, 0
2, 55912, Note_on_c, 0, 91, 64
2, 55918, Note_on_c, 0, 76, 0
2, 55919, Note_on_c, 0, 91, 0
2, 55920, Note_on_c, 0, 93, 64
2, 55920, Note_on_c, 0, 83, 64
2, 55920, Note_on_c, 0, 67, 64
2, 55926, Note_on_c, 0, 93, 0
2, 55927, Note_on_c, 0, 91, 64
2, 55928, Note_on_c, 0, 67, 0
2, 55929, Note_on_c, 0, 74, 64
2, 55934, Note_on_c, 0, 91, 0
2, 55935, Note_on_c, 0, 93, 64
2, 55938, Note_on_c, 0, 74, 0
2, 55939, Note_on_c, 0, 67, 64
2, 55941, Note_on_c, 0, 93, 0
2, 55942, Note_on_c, 0, 91, 64
2, 55948, Note_on_c, 0, 67, 0
2, 55949, Note_on_c, 0, 91, 0
2, 55950, Note_on_c, 0, 93, 64
2, 55950, Note_on_c, 0, 74, 64
2, 55956, Note_on_c, 0, 93, 0
2, 55957, Note_on_c, 0, 91, 64
2, 55958, Note_on_c, 0, 74, 0
2, 55959, Note_on_c, 0, 67, 64
2, 55964, Note_on_c, 0, 91, 0
2, 55965, Note_on_c, 0, 93, 64
2, 55968, Note_on_c, 0, 67, 0
2, 55969, Note_on_c, 0, 74, 64
2, 55971, Note_on_c, 0, 93, 0
2, 55972, Note_on_c, 0, 91, 64
2, 55978, Note_on_c, 0, 74, 0
2, 55979, Note_on_c, 0, 91, 0
2, 55980, Note_on_c, 0, 93, 64
2, 55980, Note_on_c, 0, 67, 64
2, 55986, Note_on_c, 0, 93, 0
2, 55987, Note_on_c, 0, 91, 64
2, 55988, Note_on_c, 0, 67, 0
2, 55989, Note_on_c, 0, 74, 64
2, 55994, Note_on_c, 0, 91, 0
2, 55995, Note_on_c, 0, 93, 64
2, 55998, Note_on_c, 0, 74, 0
2, 55998, Note_on_c, 0, 83, 0
2, 55999, Note_on_c, 0, 67, 64
2, 56001, Note_on_c, 0, 93, 0
2, 56002, Note_on_c, 0, 91, 64
2, 56008, Note_on_c, 0, 67, 0
2, 56009, Note_on_c, 0, 91, 0
2, 56010, Note_on_c, 0, 81, 64
2, 56010, Note_on_c, 0, 83, 64
2, 56010, Note_on_c, 0, 74, 64
2, 56016, Note_on_c, 0, 81, 0
2, 56017, Note_on_c, 0, 79, 64
2, 56018, Note_on_c, 0, 74, 0
2, 56019, Note_on_c, 0, 65, 64
2, 56024, Note_on_c, 0, 79, 0
2, 56025, Note_on_c, 0, 81, 64
2, 56028, Note_on_c, 0, 65, 0
2, 56029, Note_on_c, 0, 74, 64
2, 56031, Note_on_c, 0, 81, 0
2, 56032, Note_on_c, 0, 79, 64
2, 56038, Note_on_c, 0, 74, 0
2, 56039, Note_on_c, 0, 79, 0
2, 56040, Note_on_c, 0, 81, 64
2, 56040, Note_on_c, 0, 65, 64
2, 56046, Note_on_c, 0, 81, 0
2, 56047, Note_on_c, 0, 79, 64
2, 56048, Note_on_c, 0, 65, 0
2, 56049, Note_on_c, 0, 74, 64
2, 56054, Note_on_c, 0, 79, 0
2, 56055, Note_on_c, 0, 81, 64
2, 56058, Note_on_c, 0, 74, 0
2, 56059, Note_on_c, 0, 65, 64
2, 56061, Note_on_c, 0, 81, 0
2, 56062, Note_on_c, 0, 79, 64
2, 56068, Note_on_c, 0, 65, 0
2, 56069, Note_on_c, 0, 79, 0
2, 56070, Note_on_c, 0, 81, 64
2, 56070, Note_on_c, 0, 74, 64
2, 56076, Note_on_c, 0, 81, 0
2, 56077, Note_on_c, 0, 79, 64
2, 56078, Note_on_c, 0, 74, 0
2, 56079, Note_on_c, 0, 65, 64
2, 56084, Note_on_c, 0, 79, 0
2, 56085, Note_on_c, 0, 81, 64
2, 56088, Note_on_c, 0, 65, 0
2, 56088, Note_on_c, 0, 83, 0
2, 56089, Note_on_c, 0, 74, 64
2, 56091, Note_on_c, 0, 81, 0
2, 56092, Note_on_c, 0, 79, 64
2, 56098, Note_on_c, 0, 74, 0
2, 56099, Note_on_c, 0, 79, 0
2, 56100, Note_on_c, 0, 81, 64
2, 56100, Note_on_c, 0, 84, 64
2, 56100, Note_on_c, 0, 64, 64
2, 56106, Note_on_c, 0, 81, 0
2, 56107, Note_on_c, 0, 79, 64
2, 56108, Note_on_c, 0, 64, 0
2, 56109, Note_on_c, 0, 67, 64
2, 56114, Note_on_c, 0, 79, 0
2, 56115, Note_on_c, 0, 81, 64
2, 56118, Note_on_c, 0, 67, 0
2, 56119, Note_on_c, 0, 64, 64
2, 56121, Note_on_c, 0, 81, 0
2, 56122, Note_on_c, 0, 79, 64
2, 56128, Note_on_c, 0, 64, 0
2, 56129, Note_on_c, 0, 79, 0
2, 56130, Note_on_c, 0, 81, 64
2, 56130, Note_on_c, 0, 67, 64
2, 56136, Note_on_c, 0, 81, 0
2, 56137, Note_on_c, 0, 79, 64
2, 56138, Note_on_c, 0, 67, 0
2, 56139, Note_on_c, 0, 64, 64
2, 56144, Note_on_c, 0, 79, 0
2, 56145, Note_on_c, 0, 81, 64
2, 56148, Note_on_c, 0, 64, 0
2, 56149, Note_on_c, 0, 67, 64
2, 56151, Note_on_c, 0, 81, 0
2, 56152, Note_on_c, 0, 79, 64
2, 56158, Note_on_c, 0, 67, 0
2, 56159, Note_on_c, 0, 79, 0
2, 56160, Note_on_c, 0, 81, 64
2, 56160, Note_on_c, 0, 64, 64
2, 56166, Note_on_c, 0, 81, 0
2, 56167, Note_on_c, 0, 79, 64
2, 56168, Note_on_c, 0, 64, 0
2, 56169, Note_on_c, 0, 67, 64
2, 56174, Note_on_c, 0, 79, 0
2, 56175, Note_on_c, 0, 81, 64
2, 56178, Note_on_c, 0, 67, 0
2, 56178, Note_on_c, 0, 84, 0
2, 56179, Note_on_c, 0, 64, 64
2, 56181, Note_on_c, 0, 81, 0
2, 56182, Note_on_c, 0, 79, 64
2, 56188, Note_on_c, 0, 64, 0
2, 56189, Note_on_c, 0, 79, 0
2, 56190, Note_on_c, 0, 81, 64
2, 56190, Note_on_c, 0, 88, 64
2, 56190, Note_on_c, 0, 60, 64
2, 56196, Note_on_c, 0, 81, 0
2, 56197, Note_on_c, 0, 79, 64
2, 56198, Note_on_c, 0, 60, 0
2, 56199, Note_on_c, 0, 64, 64
2, 56204, Note_on_c, 0, 79, 0
2, 56205, Note_on_c, 0, 81, 64
2, 56208, Note_on_c, 0, 64, 0
2, 56209, Note_on_c, 0, 60, 64
2, 56211, Note_on_c, 0, 81, 0
2, 56212, Note_on_c, 0, 79, 64
2, 56218, Note_on_c, 0, 60, 0
2, 56219, Note_on_c, 0, 79, 0
2, 56220, Note_on_c, 0, 81, 64
2, 56220, Note_on_c, 0, 64, 64
2, 56226, Note_on_c, 0, 81, 0
2, 56227, Note_on_c, 0, 79, 64
2, 56228, Note_on_c, 0, 64, 0
2, 56229, Note_on_c, 0, 60, 64
2, 56234, Note_on_c, 0, 79, 0
2, 56235, Note_on_c, 0, 81, 64
2, 56238, Note_on_c, 0, 60, 0
2, 56239, Note_on_c, 0, 64, 64
2, 56241, Note_on_c, 0, 81, 0
2, 56242, Note_on_c, 0, 79, 64
2, 56248, Note_on_c, 0, 64, 0
2, 56249, Note_on_c, 0, 79, 0
2, 56250, Note_on_c, 0, 81, 64
2, 56250, Note_on_c, 0, 60, 64
2, 56256, Note_on_c, 0, 81, 0
2, 56257, Note_on_c, 0, 79, 64
2, 56258, Note_on_c, 0, 60, 0
2, 56259, Note_on_c, 0, 64, 64
2, 56264, Note_on_c, 0, 79, 0
2, 56265, Note_on_c, 0, 81, 64
2, 56268, Note_on_c, 0, 64, 0
2, 56268, Note_on_c, 0, 88, 0
2, 56269, Note_on_c, 0, 60, 64
2, 56271, Note_on_c, 0, 81, 0
2, 56272, Note_on_c, 0, 79, 64
2, 56278, Note_on_c, 0, 60, 0
2, 56279, Note_on_c, 0, 79, 0
2, 56280, Note_on_c, 0, 81, 64
2, 56280, Note_on_c, 0, 91, 64
2, 56280, Note_on_c, 0, 58, 64
2, 56286, Note_on_c, 0, 81, 0
2, 56287, Note_on_c, 0, 79, 64
2, 56288, Note_on_c, 0, 58, 0
2, 56289, Note_on_c, 0, 60, 64
2, 56294, Note_on_c, 0, 79, 0
2, 56295, Note_on_c, 0, 81, 64
2, 56298, Note_on_c, 0, 60, 0
2, 56299, Note_on_c, 0, 58, 64
2, 56301, Note_on_c, 0, 81, 0
2, 56302, Note_on_c, 0, 79, 64
2, 56308, Note_on_c, 0, 58, 0
2, 56309, Note_on_c, 0, 79, 0
2, 56310, Note_on_c, 0, 81, 64
2, 56310, Note_on_c, 0, 60, 64
2, 56316, Note_on_c, 0, 81, 0
2, 56317, Note_on_c, 0, 79, 64
2, 56318, Note_on_c, 0, 60, 0
2, 56319, Note_on_c, 0, 58, 64
2, 56324, Note_on_c, 0, 79, 0
2, 56325, Note_on_c, 0, 81, 64
2, 56328, Note_on_c, 0, 58, 0
2, 56329, Note_on_c, 0, 60, 64
2, 56331, Note_on_c, 0, 81, 0
2, 56332, Note_on_c, 0, 79, 64
2, 56338, Note_on_c, 0, 60, 0
2, 56339, Note_on_c, 0, 79, 0
2, 56340, Note_on_c, 0, 81, 64
2, 56340, Note_on_c, 0, 58, 64
2, 56346, Note_on_c, 0, 81, 0
2, 56347, Note_on_c, 0, 79, 64
2, 56348, Note_on_c, 0, 58, 0
2, 56349, Note_on_c, 0, 60, 64
2, 56354, Note_on_c, 0, 79, 0
2, 56355, Note_on_c, 0, 81, 64
2, 56358, Note_on_c, 0, 60, 0
2, 56358, Note_on_c, 0, 91, 0
2, 56359, Note_on_c, 0, 58, 64
2, 56361, Note_on_c, 0, 81, 0
2, 56362, Note_on_c, 0, 79, 64
2, 56368, Note_on_c, 0, 58, 0
2, 56369, Note_on_c, 0, 79, 0
2, 56370, Note_on_c, 0, 81, 64
2, 56370, Note_on_c, 0, 91, 64
2, 56370, Note_on_c, 0, 57, 64
2, 56376, Note_on_c, 0, 81, 0
2, 56377, Note_on_c, 0, 79, 64
2, 56378, Note_on_c, 0, 57, 0
2, 56379, Note_on_c, 0, 60, 64
2, 56384, Note_on_c, 0, 79, 0
2, 56385, Note_on_c, 0, 81, 64
2, 56388, Note_on_c, 0, 60, 0
2, 56389, Note_on_c, 0, 57, 64
2, 56391, Note_on_c, 0, 81, 0
2, 56392, Note_on_c, 0, 79, 64
2, 56398, Note_on_c, 0, 57, 0
2, 56399, Note_on_c, 0, 79, 0
2, 56400, Note_on_c, 0, 81, 64
2, 56400, Note_on_c, 0, 60, 64
2, 56406, Note_on_c, 0, 81, 0
2, 56407, Note_on_c, 0, 79, 64
2, 56408, Note_on_c, 0, 60, 0
2, 56409, Note_on_c, 0, 57, 64
2, 56414, Note_on_c, 0, 79, 0
2, 56415, Note_on_c, 0, 81, 64
2, 56418, Note_on_c, 0, 57, 0
2, 56419, Note_on_c, 0, 60, 64
2, 56421, Note_on_c, 0, 81, 0
2, 56422, Note_on_c, 0, 79, 64
2, 56428, Note_on_c, 0, 60, 0
2, 56429, Note_on_c, 0, 79, 0
2, 56430, Note_on_c, 0, 81, 64
2, 56430, Note_on_c, 0, 57, 64
2, 56436, Note_on_c, 0, 81, 0
2, 56437, Note_on_c, 0, 79, 64
2, 56438, Note_on_c, 0, 57, 0
2, 56439, Note_on_c, 0, 60, 64
2, 56444, Note_on_c, 0, 79, 0
2, 56445, Note_on_c, 0, 81, 64
2, 56448, Note_on_c, 0, 60, 0
2, 56448, Note_on_c, 0, 91, 0
2, 56449, Note_on_c, 0, 57, 64
2, 56451, Note_on_c, 0, 81, 0
2, 56452, Note_on_c, 0, 79, 64
2, 56458, Note_on_c, 0, 57, 0
2, 56459, Note_on_c, 0, 79, 0
2, 56460, Note_on_c, 0, 81, 64
2, 56460, Note_on_c, 0, 89, 64
2, 56460, Note_on_c, 0, 60, 64
2, 56466, Note_on_c, 0, 81, 0
2, 56467, Note_on_c, 0, 79, 64
2, 56468, Note_on_c, 0, 60, 0
2, 56469, Note_on_c, 0, 57, 64
2, 56474, Note_on_c, 0, 79, 0
2, 56475, Note_on_c, 0, 81, 64
2, 56478, Note_on_c, 0, 57, 0
2, 56479, Note_on_c, 0, 60, 64
2, 56481, Note_on_c, 0, 81, 0
2, 56482, Note_on_c, 0, 79, 64
2, 56488, Note_on_c, 0, 60, 0
2, 56489, Note_on_c, 0, 79, 0
2, 56490, Note_on_c, 0, 81, 64
2, 56490, Note_on_c, 0, 59, 64
2, 56496, Note_on_c, 0, 81, 0
2, 56497, Note_on_c, 0, 79, 64
2, 56498, Note_on_c, 0, 59, 0
2, 56499, Note_on_c, 0, 60, 64
2, 56504, Note_on_c, 0, 79, 0
2, 56505, Note_on_c, 0, 81, 64
2, 56508, Note_on_c, 0, 60, 0
2, 56509, Note_on_c, 0, 59, 64
2, 56511, Note_on_c, 0, 81, 0
2, 56512, Note_on_c, 0, 79, 64
2, 56518, Note_on_c, 0, 59, 0
2, 56519, Note_on_c, 0, 79, 0
2, 56520, Note_on_c, 0, 81, 64
2, 56520, Note_on_c, 0, 60, 64
2, 56526, Note_on_c, 0, 81, 0
2, 56527, Note_on_c, 0, 79, 64
2, 56528, Note_on_c, 0, 60, 0
2, 56529, Note_on_c, 0, 59, 64
2, 56534, Note_on_c, 0, 79, 0
2, 56535, Note_on_c, 0, 81, 64
2, 56538, Note_on_c, 0, 59, 0
2, 56538, Note_on_c, 0, 89, 0
2, 56539, Note_on_c, 0, 60, 64
2, 56541, Note_on_c, 0, 81, 0
2, 56542, Note_on_c, 0, 79, 64
2, 56548, Note_on_c, 0, 60, 0
2, 56549, Note_on_c, 0, 79, 0
2, 56550, Note_on_c, 0, 81, 64
2, 56550, Note_on_c, 0, 86, 64
2, 56550, Note_on_c, 0, 59, 64
2, 56556, Note_on_c, 0, 81, 0
2, 56557, Note_on_c, 0, 79, 64
2, 56558, Note_on_c, 0, 59, 0
2, 56559, Note_on_c, 0, 65, 64
2, 56564, Note_on_c, 0, 79, 0
2, 56565, Note_on_c, 0, 81, 64
2, 56568, Note_on_c, 0, 65, 0
2, 56569, Note_on_c, 0, 59, 64
2, 56571, Note_on_c, 0, 81, 0
2, 56572, Note_on_c, 0, 79, 64
2, 56578, Note_on_c, 0, 59, 0
2, 56579, Note_on_c, 0, 79, 0
2, 56580, Note_on_c, 0, 81, 64
2, 56580, Note_on_c, 0, 65, 64
2, 56586, Note_on_c, 0, 81, 0
2, 56587, Note_on_c, 0, 79, 64
2, 56588, Note_on_c, 0, 65, 0
2, 56589, Note_on_c, 0, 59, 64
2, 56594, Note_on_c, 0, 79, 0
2, 56595, Note_on_c, 0, 81, 64
2, 56598, Note_on_c, 0, 59, 0
2, 56599, Note_on_c, 0, 65, 64
2, 56601, Note_on_c, 0, 81, 0
2, 56602, Note_on_c, 0, 86, 0
2, 56602, Note_on_c, 0, 79, 64
2, 56608, Note_on_c, 0, 65, 0
2, 56609, Note_on_c, 0, 79, 0
2, 56610, Note_on_c, 0, 81, 64
2, 56610, Note_on_c, 0, 84, 64
2, 56610, Note_on_c, 0, 64, 64
2, 56616, Note_on_c, 0, 81, 0
2, 56617, Note_on_c, 0, 79, 64
2, 56618, Note_on_c, 0, 64, 0
2, 56619, Note_on_c, 0, 60, 64
2, 56624, Note_on_c, 0, 79, 0
2, 56625, Note_on_c, 0, 81, 64
2, 56628, Note_on_c, 0, 60, 0
2, 56629, Note_on_c, 0, 64, 64
2, 56631, Note_on_c, 0, 81, 0
2, 56632, Note_on_c, 0, 79, 64
2, 56636, Note_on_c, 0, 84, 0
2, 56638, Note_on_c, 0, 64, 0
2, 56639, Note_on_c, 0, 79, 0
2, 56640, Note_on_c, 0, 81, 64
2, 56640, Note_on_c, 0, 83, 64
2, 56640, Note_on_c, 0, 62, 64
2, 56646, Note_on_c, 0, 81, 0
2, 56647, Note_on_c, 0, 79, 64
2, 56648, Note_on_c, 0, 62, 0
2, 56649, Note_on_c, 0, 65, 64
2, 56654, Note_on_c, 0, 79, 0
2, 56655, Note_on_c, 0, 81, 64
2, 56658, Note_on_c, 0, 65, 0
2, 56659, Note_on_c, 0, 62, 64
2, 56661, Note_on_c, 0, 81, 0
2, 56662, Note_on_c, 0, 79, 64
2, 56668, Note_on_c, 0, 62, 0
2, 56669, Note_on_c, 0, 79, 0
2, 56670, Note_on_c, 0, 81, 64
2, 56670, Note_on_c, 0, 67, 64
2, 56676, Note_on_c, 0, 81, 0
2, 56677, Note_on_c, 0, 79, 64
2, 56678, Note_on_c, 0, 67, 0
2, 56679, Note_on_c, 0, 64, 64
2, 56684, Note_on_c, 0, 79, 0
2, 56685, Note_on_c, 0, 81, 64
2, 56688, Note_on_c, 0, 64, 0
2, 56689, Note_on_c, 0, 67, 64
2, 56691, Note_on_c, 0, 81, 0
2, 56692, Note_on_c, 0, 79, 64
2, 56698, Note_on_c, 0, 67, 0
2, 56699, Note_on_c, 0, 79, 0
2, 56700, Note_on_c, 0, 81, 64
2, 56700, Note_on_c, 0, 62, 64
2, 56706, Note_on_c, 0, 81, 0
2, 56707, Note_on_c, 0, 79, 64
2, 56708, Note_on_c, 0, 62, 0
2, 56709, Note_on_c, 0, 65, 64
2, 56714, Note_on_c, 0, 79, 0
2, 56715, Note_on_c, 0, 81, 64
2, 56718, Note_on_c, 0, 65, 0
2, 56718, Note_on_c, 0, 83, 0
2, 56719, Note_on_c, 0, 62, 64
2, 56721, Note_on_c, 0, 81, 0
2, 56722, Note_on_c, 0, 79, 64
2, 56728, Note_on_c, 0, 62, 0
2, 56729, Note_on_c, 0, 79, 0
2, 56730, Note_on_c, 0, 81, 64
2, 56730, Note_on_c, 0, 84, 64
2, 56730, Note_on_c, 0, 60, 64
2, 56736, Note_on_c, 0, 81, 0
2, 56737, Note_on_c, 0, 79, 64
2, 56738, Note_on_c, 0, 60, 0
2, 56739, Note_on_c, 0, 64, 64
2, 56744, Note_on_c, 0, 79, 0
2, 56745, Note_on_c, 0, 81, 64
2, 56748, Note_on_c, 0, 64, 0
2, 56749, Note_on_c, 0, 60, 64
2, 56751, Note_on_c, 0, 81, 0
2, 56752, Note_on_c, 0, 79, 64
2, 56758, Note_on_c, 0, 60, 0
2, 56759, Note_on_c, 0, 79, 0
2, 56760, Note_on_c, 0, 81, 64
2, 56760, Note_on_c, 0, 65, 64
2, 56766, Note_on_c, 0, 81, 0
2, 56767, Note_on_c, 0, 79, 64
2, 56768, Note_on_c, 0, 65, 0
2, 56769, Note_on_c, 0, 62, 64
2, 56774, Note_on_c, 0, 79, 0
2, 56775, Note_on_c, 0, 81, 64
2, 56778, Note_on_c, 0, 62, 0
2, 56779, Note_on_c, 0, 65, 64
2, 56781, Note_on_c, 0, 81, 0
2, 56782, Note_on_c, 0, 79, 64
2, 56788, Note_on_c, 0, 65, 0
2, 56789, Note_on_c, 0, 79, 0
2, 56790, Note_on_c, 0, 81, 64
2, 56790, Note_on_c, 0, 60, 64
2, 56796, Note_on_c, 0, 81, 0
2, 56797, Note_on_c, 0, 79, 64
2, 56798, Note_on_c, 0, 60, 0
2, 56799, Note_on_c, 0, 64, 64
2, 56804, Note_on_c, 0, 79, 0
2, 56805, Note_on_c, 0, 81, 64
2, 56808, Note_on_c, 0, 64, 0
2, 56808, Note_on_c, 0, 84, 0
2, 56809, Note_on_c, 0, 60, 64
2, 56811, Note_on_c, 0, 81, 0
2, 56812, Note_on_c, 0, 79, 64
2, 56818, Note_on_c, 0, 60, 0
2, 56819, Note_on_c, 0, 79, 0
2, 56820, Note_on_c, 0, 81, 64
2, 56820, Note_on_c, 0, 86, 64
2, 56820, Note_on_c, 0, 59, 64
2, 56826, Note_on_c, 0, 81, 0
2, 56827, Note_on_c, 0, 79, 64
2, 56828, Note_on_c, 0, 59, 0
2, 56829, Note_on_c, 0, 62, 64
2, 56834, Note_on_c, 0, 79, 0
2, 56835, Note_on_c, 0, 81, 64
2, 56838, Note_on_c, 0, 62, 0
2, 56839, Note_on_c, 0, 59, 64
2, 56841, Note_on_c, 0, 81, 0
2, 56842, Note_on_c, 0, 79, 64
2, 56848, Note_on_c, 0, 59, 0
2, 56849, Note_on_c, 0, 79, 0
2, 56850, Note_on_c, 0, 81, 64
2, 56850, Note_on_c, 0, 60, 64
2, 56856, Note_on_c, 0, 81, 0
2, 56857, Note_on_c, 0, 79, 64
2, 56858, Note_on_c, 0, 60, 0
2, 56859, Note_on_c, 0, 57, 64
2, 56864, Note_on_c, 0, 79, 0
2, 56865, Note_on_c, 0, 81, 64
2, 56868, Note_on_c, 0, 57, 0
2, 56869, Note_on_c, 0, 60, 64
2, 56871, Note_on_c, 0, 81, 0
2, 56872, Note_on_c, 0, 86, 0
2, 56872, Note_on_c, 0, 79, 64
2, 56878, Note_on_c, 0, 60, 0
2, 56879, Note_on_c, 0, 79, 0
2, 56880, Note_on_c, 0, 81, 64
2, 56880, Note_on_c, 0, 59, 64
2, 56886, Note_on_c, 0, 81, 0
2, 56887, Note_on_c, 0, 79, 64
2, 56888, Note_on_c, 0, 59, 0
2, 56889, Note_on_c, 0, 62, 64
2, 56894, Note_on_c, 0, 79, 0
2, 56895, Note_on_c, 0, 81, 64
2, 56898, Note_on_c, 0, 62, 0
2, 56899, Note_on_c, 0, 59, 64
2, 56901, Note_on_c, 0, 81, 0
2, 56902, Note_on_c, 0, 79, 64
2, 56908, Note_on_c, 0, 59, 0
2, 56909, Note_on_c, 0, 79, 0
2, 56910, Note_on_c, 0, 81, 64
2, 56910, Note_on_c, 0, 48, 64
2, 56916, Note_on_c, 0, 81, 0
2, 56917, Note_on_c, 0, 79, 64
2, 56918, Note_on_c, 0, 48, 0
2, 56919, Note_on_c, 0, 64, 64
2, 56924, Note_on_c, 0, 79, 0
2, 56925, Note_on_c, 0, 81, 64
2, 56928, Note_on_c, 0, 64, 0
2, 56929, Note_on_c, 0, 60, 64
2, 56931, Note_on_c, 0, 81, 0
2, 56932, Note_on_c, 0, 79, 64
2, 56938, Note_on_c, 0, 60, 0
2, 56939, Note_on_c, 0, 79, 0
2, 56940, Note_on_c, 0, 81, 64
2, 56940, Note_on_c, 0, 64, 64
2, 56946, Note_on_c, 0, 81, 0
2, 56947, Note_on_c, 0, 79, 64
2, 56948, Note_on_c, 0, 64, 0
2, 56949, Note_on_c, 0, 60, 64
2, 56954, Note_on_c, 0, 79, 0
2, 56955, Note_on_c, 0, 81, 64
2, 56958, Note_on_c, 0, 60, 0
2, 56959, Note_on_c, 0, 64, 64
2, 56961, Note_on_c, 0, 81, 0
2, 56962, Note_on_c, 0, 79, 64
2, 56968, Note_on_c, 0, 64, 0
2, 56969, Note_on_c, 0, 79, 0
2, 56970, Note_on_c, 0, 81, 64
2, 56970, Note_on_c, 0, 60, 64
2, 56976, Note_on_c, 0, 81, 0
2, 56977, Note_on_c, 0, 79, 64
2, 56978, Note_on_c, 0, 60, 0
2, 56979, Note_on_c, 0, 64, 64
2, 56984, Note_on_c, 0, 79, 0
2, 56985, Note_on_c, 0, 81, 64
2, 56988, Note_on_c, 0, 64, 0
2, 56989, Note_on_c, 0, 60, 64
2, 56991, Note_on_c, 0, 81, 0
2, 56992, Note_on_c, 0, 79, 64
2, 56998, Note_on_c, 0, 60, 0
2, 56999, Note_on_c, 0, 79, 0
2, 57000, Note_on_c, 0, 81, 64
2, 57000, Note_on_c, 0, 48, 64
2, 57006, Note_on_c, 0, 81, 0
2, 57007, Note_on_c, 0, 79, 64
2, 57008, Note_on_c, 0, 48, 0
2, 57009, Note_on_c, 0, 64, 64
2, 57014, Note_on_c, 0, 79, 0
2, 57015, Note_on_c, 0, 81, 64
2, 57018, Note_on_c, 0, 64, 0
2, 57019, Note_on_c, 0, 60, 64
2, 57021, Note_on_c, 0, 81, 0
2, 57022, Note_on_c, 0, 79, 64
2, 57028, Note_on_c, 0, 60, 0
2, 57029, Note_on_c, 0, 79, 0
2, 57030, Note_on_c, 0, 81, 64
2, 57030, Note_on_c, 0, 64, 64
2, 57036, Note_on_c, 0, 81, 0
2, 57037, Note_on_c, 0, 79, 64
2, 57038, Note_on_c, 0, 64, 0
2, 57039, Note_on_c, 0, 60, 64
2, 57044, Note_on_c, 0, 79, 0
2, 57045, Note_on_c, 0, 81, 64
2, 57048, Note_on_c, 0, 60, 0
2, 57049, Note_on_c, 0, 64, 64
2, 57051, Note_on_c, 0, 81, 0
2, 57052, Note_on_c, 0, 79, 64
2, 57058, Note_on_c, 0, 64, 0
2, 57059, Note_on_c, 0, 79, 0
2, 57060, Note_on_c, 0, 81, 64
2, 57060, Note_on_c, 0, 60, 64
2, 57066, Note_on_c, 0, 81, 0
2, 57067, Note_on_c, 0, 79, 64
2, 57068, Note_on_c, 0, 60, 0
2, 57069, Note_on_c, 0, 64, 64
2, 57074, Note_on_c, 0, 79, 0
2, 57075, Note_on_c, 0, 81, 64
2, 57078, Note_on_c, 0, 64, 0
2, 57079, Note_on_c, 0, 60, 64
2, 57081, Note_on_c, 0, 81, 0
2, 57082, Note_on_c, 0, 79, 64
2, 57088, Note_on_c, 0, 60, 0
2, 57089, Note_on_c, 0, 79, 0
2, 57090, Note_on_c, 0, 81, 64
2, 57090, Note_on_c, 0, 74, 64
2, 57090, Note_on_c, 0, 48, 64
2, 57096, Note_on_c, 0, 81, 0
2, 57097, Note_on_c, 0, 79, 64
2, 57098, Note_on_c, 0, 48, 0
2, 57099, Note_on_c, 0, 65, 64
2, 57104, Note_on_c, 0, 79, 0
2, 57105, Note_on_c, 0, 81, 64
2, 57108, Note_on_c, 0, 65, 0
2, 57109, Note_on_c, 0, 60, 64
2, 57111, Note_on_c, 0, 81, 0
2, 57112, Note_on_c, 0, 79, 64
2, 57118, Note_on_c, 0, 60, 0
2, 57119, Note_on_c, 0, 79, 0
2, 57120, Note_on_c, 0, 81, 64
2, 57120, Note_on_c, 0, 65, 64
2, 57126, Note_on_c, 0, 81, 0
2, 57127, Note_on_c, 0, 79, 64
2, 57128, Note_on_c, 0, 65, 0
2, 57129, Note_on_c, 0, 60, 64
2, 57134, Note_on_c, 0, 79, 0
2, 57135, Note_on_c, 0, 81, 64
2, 57138, Note_on_c, 0, 60, 0
2, 57139, Note_on_c, 0, 65, 64
2, 57141, Note_on_c, 0, 81, 0
2, 57142, Note_on_c, 0, 74, 0
2, 57142, Note_on_c, 0, 79, 64
2, 57148, Note_on_c, 0, 65, 0
2, 57149, Note_on_c, 0, 79, 0
2, 57150, Note_on_c, 0, 81, 64
2, 57150, Note_on_c, 0, 71, 64
2, 57150, Note_on_c, 0, 60, 64
2, 57156, Note_on_c, 0, 81, 0
2, 57157, Note_on_c, 0, 79, 64
2, 57158, Note_on_c, 0, 60, 0
2, 57159, Note_on_c, 0, 65, 64
2, 57164, Note_on_c, 0, 79, 0
2, 57165, Note_on_c, 0, 81, 64
2, 57168, Note_on_c, 0, 65, 0
2, 57169, Note_on_c, 0, 60, 64
2, 57171, Note_on_c, 0, 81, 0
2, 57172, Note_on_c, 0, 79, 64
2, 57176, Note_on_c, 0, 71, 0
2, 57178, Note_on_c, 0, 60, 0
2, 57179, Note_on_c, 0, 79, 0
2, 57180, Note_on_c, 0, 81, 64
2, 57180, Note_on_c, 0, 67, 64
2, 57180, Note_on_c, 0, 48, 64
2, 57186, Note_on_c, 0, 81, 0
2, 57187, Note_on_c, 0, 79, 64
2, 57188, Note_on_c, 0, 48, 0
2, 57189, Note_on_c, 0, 64, 64
2, 57194, Note_on_c, 0, 79, 0
2, 57195, Note_on_c, 0, 81, 64
2, 57198, Note_on_c, 0, 64, 0
2, 57199, Note_on_c, 0, 60, 64
2, 57201, Note_on_c, 0, 81, 0
2, 57202, Note_on_c, 0, 79, 64
2, 57208, Note_on_c, 0, 60, 0
2, 57209, Note_on_c, 0, 79, 0
2, 57210, Note_on_c, 0, 81, 64
2, 57210, Note_on_c, 0, 64, 64
2, 57216, Note_on_c, 0, 81, 0
2, 57217, Note_on_c, 0, 79, 64
2, 57218, Note_on_c, 0, 64, 0
2, 57219, Note_on_c, 0, 60, 64
2, 57224, Note_on_c, 0, 79, 0
2, 57225, Note_on_c, 0, 81, 64
2, 57228, Note_on_c, 0, 60, 0
2, 57229, Note_on_c, 0, 64, 64
2, 57231, Note_on_c, 0, 81, 0
2, 57232, Note_on_c, 0, 79, 64
2, 57238, Note_on_c, 0, 64, 0
2, 57239, Note_on_c, 0, 79, 0
2, 57240, Note_on_c, 0, 81, 64
2, 57240, Note_on_c, 0, 60, 64
2, 57246, Note_on_c, 0, 81, 0
2, 57247, Note_on_c, 0, 79, 64
2, 57248, Note_on_c, 0, 60, 0
2, 57249, Note_on_c, 0, 64, 64
2, 57254, Note_on_c, 0, 79, 0
2, 57255, Note_on_c, 0, 81, 64
2, 57258, Note_on_c, 0, 64, 0
2, 57258, Note_on_c, 0, 67, 0
2, 57259, Note_on_c, 0, 60, 64
2, 57261, Note_on_c, 0, 81, 0
2, 57262, Note_on_c, 0, 79, 64
2, 57268, Note_on_c, 0, 60, 0
2, 57269, Note_on_c, 0, 79, 0
2, 57270, Note_on_c, 0, 81, 64
2, 57270, Note_on_c, 0, 67, 64
2, 57270, Note_on_c, 0, 48, 64
2, 57276, Note_on_c, 0, 81, 0
2, 57277, Note_on_c, 0, 79, 64
2, 57278, Note_on_c, 0, 48, 0
2, 57279, Note_on_c, 0, 52, 64
2, 57284, Note_on_c, 0, 79, 0
2, 57285, Note_on_c, 0, 81, 64
2, 57288, Note_on_c, 0, 52, 0
2, 57289, Note_on_c, 0, 48, 64
2, 57291, Note_on_c, 0, 81, 0
2, 57292, Note_on_c, 0, 79, 64
2, 57298, Note_on_c, 0, 48, 0
2, 57299, Note_on_c, 0, 79, 0
2, 57300, Note_on_c, 0, 81, 64
2, 57300, Note_on_c, 0, 52, 64
2, 57306, Note_on_c, 0, 81, 0
2, 57307, Note_on_c, 0, 79, 64
2, 57308, Note_on_c, 0, 52, 0
2, 57309, Note_on_c, 0, 48, 64
2, 57314, Note_on_c, 0, 79, 0
2, 57315, Note_on_c, 0, 81, 64
2, 57318, Note_on_c, 0, 48, 0
2, 57319, Note_on_c, 0, 52, 64
2, 57321, Note_on_c, 0, 81, 0
2, 57322, Note_on_c, 0, 67, 0
2, 57322, Note_on_c, 0, 79, 64
2, 57328, Note_on_c, 0, 52, 0
2, 57329, Note_on_c, 0, 79, 0
2, 57330, Note_on_c, 0, 81, 64
2, 57330, Note_on_c, 0, 84, 64
2, 57330, Note_on_c, 0, 48, 64
2, 57336, Note_on_c, 0, 81, 0
2, 57337, Note_on_c, 0, 79, 64
2, 57338, Note_on_c, 0, 48, 0
2, 57339, Note_on_c, 0, 52, 64
2, 57344, Note_on_c, 0, 79, 0
2, 57345, Note_on_c, 0, 81, 64
2, 57348, Note_on_c, 0, 52, 0
2, 57349, Note_on_c, 0, 48, 64
2, 57351, Note_on_c, 0, 81, 0
2, 57352, Note_on_c, 0, 79, 64
2, 57356, Note_on_c, 0, 84, 0
2, 57358, Note_on_c, 0, 48, 0
2, 57359, Note_on_c, 0, 79, 0
2, 57360, Note_on_c, 0, 81, 64
2, 57360, Note_on_c, 0, 85, 64
2, 57360, Note_on_c, 0, 36, 64
2, 57366, Note_on_c, 0, 81, 0
2, 57367, Note_on_c, 0, 79, 64
2, 57368, Note_on_c, 0, 36, 0
2, 57369, Note_on_c, 0, 53, 64
2, 57374, Note_on_c, 0, 79, 0
2, 57375, Note_on_c, 0, 81, 64
2, 57378, Note_on_c, 0, 53, 0
2, 57379, Note_on_c, 0, 48, 64
2, 57381, Note_on_c, 0, 81, 0
2, 57382, Note_on_c, 0, 79, 64
2, 57386, Note_on_c, 0, 85, 0
2, 57388, Note_on_c, 0, 48, 0
2, 57389, Note_on_c, 0, 79, 0
2, 57390, Note_on_c, 0, 81, 64
2, 57390, Note_on_c, 0, 86, 64
2, 57390, Note_on_c, 0, 53, 64
2, 57396, Note_on_c, 0, 81, 0
2, 57397, Note_on_c, 0, 79, 64
2, 57398, Note_on_c, 0, 53, 0
2, 57399, Note_on_c, 0, 48, 64
2, 57404, Note_on_c, 0, 79, 0
2, 57405, Note_on_c, 0, 81, 64
2, 57408, Note_on_c, 0, 48, 0
2, 57409, Note_on_c, 0, 53, 64
2, 57411, Note_on_c, 0, 81, 0
2, 57412, Note_on_c, 0, 79, 64
2, 57416, Note_on_c, 0, 86, 0
2, 57418, Note_on_c, 0, 53, 0
2, 57419, Note_on_c, 0, 79, 0
2, 57420, Note_on_c, 0, 81, 64
2, 57420, Note_on_c, 0, 79, 64
2, 57420, Note_on_c, 0, 48, 64
2, 57426, Note_on_c, 0, 81, 0
2, 57427, Note_on_c, 0, 79, 64
2, 57428, Note_on_c, 0, 48, 0
2, 57429, Note_on_c, 0, 53, 64
2, 57434, Note_on_c, 0, 79, 0
2, 57435, Note_on_c, 0, 81, 64
2, 57438, Note_on_c, 0, 53, 0
2, 57439, Note_on_c, 0, 48, 64
2, 57441, Note_on_c, 0, 81, 0
2, 57442, Note_on_c, 0, 79, 64
2, 57446, Note_on_c, 0, 79, 0
2, 57448, Note_on_c, 0, 48, 0
2, 57449, Note_on_c, 0, 79, 0
2, 57450, Note_on_c, 0, 81, 64
2, 57450, Note_on_c, 0, 36, 64
2, 57456, Note_on_c, 0, 81, 0
2, 57457, Note_on_c, 0, 79, 64
2, 57458, Note_on_c, 0, 36, 0
2, 57459, Note_on_c, 0, 52, 64
2, 57464, Note_on_c, 0, 79, 0
2, 57465, Note_on_c, 0, 81, 64
2, 57468, Note_on_c, 0, 52, 0
2, 57469, Note_on_c, 0, 48, 64
2, 57471, Note_on_c, 0, 81, 0
2, 57472, Note_on_c, 0, 79, 64
2, 57478, Note_on_c, 0, 48, 0
2, 57479, Note_on_c, 0, 79, 0
2, 57480, Note_on_c, 0, 81, 64
2, 57480, Note_on_c, 0, 52, 64
2, 57486, Note_on_c, 0, 81, 0
2, 57487, Note_on_c, 0, 79, 64
2, 57488, Note_on_c, 0, 52, 0
2, 57489, Note_on_c, 0, 48, 64
2, 57494, Note_on_c, 0, 79, 0
2, 57495, Note_on_c, 0, 81, 64
2, 57498, Note_on_c, 0, 48, 0
2, 57499, Note_on_c, 0, 52, 64
2, 57501, Note_on_c, 0, 81, 0
2, 57502, Note_on_c, 0, 79, 64
2, 57508, Note_on_c, 0, 52, 0
2, 57509, Note_on_c, 0, 79, 0
2, 57510, Note_on_c, 0, 81, 64
2, 57510, Note_on_c, 0, 48, 64
2, 57516, Note_on_c, 0, 81, 0
2, 57517, Note_on_c, 0, 79, 64
2, 57518, Note_on_c, 0, 48, 0
2, 57519, Note_on_c, 0, 52, 64
2, 57524, Note_on_c, 0, 79, 0
2, 57525, Note_on_c, 0, 81, 64
2, 57528, Note_on_c, 0, 52, 0
2, 57529, Note_on_c, 0, 48, 64
2, 57531, Note_on_c, 0, 81, 0
2, 57532, Note_on_c, 0, 79, 64
2, 57538, Note_on_c, 0, 48, 0
2, 57539, Note_on_c, 0, 79, 0
2, 57540, Note_on_c, 0, 81, 64
2, 57540, Note_on_c, 0, 35, 64
2, 57546, Note_on_c, 0, 81, 0
2, 57547, Note_on_c, 0, 79, 64
2, 57548, Note_on_c, 0, 35, 0
2, 57549, Note_on_c, 0, 52, 64
2, 57554, Note_on_c, 0, 79, 0
2, 57555, Note_on_c, 0, 81, 64
2, 57558, Note_on_c, 0, 52, 0
2, 57559, Note_on_c, 0, 48, 64
2, 57561, Note_on_c, 0, 81, 0
2, 57562, Note_on_c, 0, 79, 64
2, 57568, Note_on_c, 0, 48, 0
2, 57569, Note_on_c, 0, 79, 0
2, 57570, Note_on_c, 0, 81, 64
2, 57570, Note_on_c, 0, 52, 64
2, 57576, Note_on_c, 0, 81, 0
2, 57577, Note_on_c, 0, 79, 64
2, 57578, Note_on_c, 0, 52, 0
2, 57579, Note_on_c, 0, 48, 64
2, 57584, Note_on_c, 0, 79, 0
2, 57585, Note_on_c, 0, 81, 64
2, 57588, Note_on_c, 0, 48, 0
2, 57589, Note_on_c, 0, 52, 64
2, 57591, Note_on_c, 0, 81, 0
2, 57592, Note_on_c, 0, 79, 64
2, 57598, Note_on_c, 0, 52, 0
2, 57599, Note_on_c, 0, 79, 0
2, 57600, Note_on_c, 0, 81, 64
2, 57600, Note_on_c, 0, 72, 64
2, 57600, Note_on_c, 0, 48, 64
2, 57606, Note_on_c, 0, 81, 0
2, 57607, Note_on_c, 0, 79, 64
2, 57608, Note_on_c, 0, 48, 0
2, 57609, Note_on_c, 0, 52, 64
2, 57614, Note_on_c, 0, 79, 0
2, 57615, Note_on_c, 0, 81, 64
2, 57618, Note_on_c, 0, 52, 0
2, 57619, Note_on_c, 0, 48, 64
2, 57621, Note_on_c, 0, 81, 0
2, 57622, Note_on_c, 0, 79, 64
2, 57626, Note_on_c, 0, 72, 0
2, 57628, Note_on_c, 0, 48, 0
2, 57629, Note_on_c, 0, 79, 0
2, 57630, Note_on_c, 0, 81, 64
2, 57630, Note_on_c, 0, 73, 64
2, 57630, Note_on_c, 0, 36, 64
2, 57636, Note_on_c, 0, 81, 0
2, 57637, Note_on_c, 0, 79, 64
2, 57638, Note_on_c, 0, 36, 0
2, 57639, Note_on_c, 0, 53, 64
2, 57644, Note_on_c, 0, 79, 0
2, 57645, Note_on_c, 0, 81, 64
2, 57648, Note_on_c, 0, 53, 0
2, 57649, Note_on_c, 0, 48, 64
2, 57651, Note_on_c, 0, 81, 0
2, 57652, Note_on_c, 0, 79, 64
2, 57656, Note_on_c, 0, 73, 0
2, 57658, Note_on_c, 0, 48, 0
2, 57659, Note_on_c, 0, 79, 0
2, 57660, Note_on_c, 0, 81, 64
2, 57660, Note_on_c, 0, 74, 64
2, 57660, Note_on_c, 0, 53, 64
2, 57666, Note_on_c, 0, 81, 0
2, 57667, Note_on_c, 0, 79, 64
2, 57668, Note_on_c, 0, 53, 0
2, 57669, Note_on_c, 0, 48, 64
2, 57674, Note_on_c, 0, 79, 0
2, 57675, Note_on_c, 0, 81, 64
2, 57678, Note_on_c, 0, 48, 0
2, 57679, Note_on_c, 0, 53, 64
2, 57681, Note_on_c, 0, 81, 0
2, 57682, Note_on_c, 0, 79, 64
2, 57686, Note_on_c, 0, 74, 0
2, 57688, Note_on_c, 0, 53, 0
2, 57689, Note_on_c, 0, 79, 0
2, 57690, Note_on_c, 0, 81, 64
2, 57690, Note_on_c, 0, 67, 64
2, 57690, Note_on_c, 0, 48, 64
2, 57696, Note_on_c, 0, 81, 0
2, 57697, Note_on_c, 0, 79, 64
2, 57698, Note_on_c, 0, 48, 0
2, 57699, Note_on_c, 0, 53, 64
2, 57704, Note_on_c, 0, 79, 0
2, 57705, Note_on_c, 0, 81, 64
2, 57708, Note_on_c, 0, 53, 0
2, 57709, Note_on_c, 0, 48, 64
2, 57711, Note_on_c, 0, 81, 0
2, 57712, Note_on_c, 0, 79, 64
2, 57716, Note_on_c, 0, 67, 0
2, 57718, Note_on_c, 0, 48, 0
2, 57719, Note_on_c, 0, 79, 0
2, 57720, Note_on_c, 0, 79, 64
2, 57728, Note_on_c, 0, 79, 0
2, 57729, Note_on_c, 0, 81, 64
2, 57738, Note_on_c, 0, 81, 0
2, 57739, Note_on_c, 0, 79, 64
2, 57748, Note_on_c, 0, 79, 0
2, 57750, Note_on_c, 0, 78, 64
2, 57758, Note_on_c, 0, 78, 0
2, 57759, Note_on_c, 0, 79, 64
2, 57768, Note_on_c, 0, 79, 0
2, 57769, Note_on_c, 0, 81, 64
2, 57778, Note_on_c, 0, 81, 0
2, 57780, Note_on_c, 0, 83, 64
2, 57788, Note_on_c, 0, 83, 0
2, 57789, Note_on_c, 0, 84, 64
2, 57798, Note_on_c, 0, 84, 0
2, 57799, Note_on_c, 0, 81, 64
2, 57808, Note_on_c, 0, 81, 0
2, 57810, Note_on_c, 0, 83, 64
2, 57810, Note_on_c, 0, 79, 64
2, 57818, Note_on_c, 0, 79, 0
2, 57818, Note_on_c, 0, 83, 0
2, 57819, Note_on_c, 0, 84, 64
2, 57819, Note_on_c, 0, 81, 64
2, 57828, Note_on_c, 0, 81, 0
2, 57828, Note_on_c, 0, 84, 0
2, 57829, Note_on_c, 0, 83, 64
2, 57829, Note_on_c, 0, 79, 64
2, 57838, Note_on_c, 0, 79, 0
2, 57838, Note_on_c, 0, 83, 0
2, 57840, Note_on_c, 0, 81, 64
2, 57840, Note_on_c, 0, 78, 64
2, 57848, Note_on_c, 0, 78, 0
2, 57848, Note_on_c, 0, 81, 0
2, 57849, Note_on_c, 0, 83, 64
2, 57849, Note_on_c, 0, 79, 64
2, 57858, Note_on_c, 0, 79, 0
2, 57858, Note_on_c, 0, 83, 0
2, 57859, Note_on_c, 0, 84, 64
2, 57859, Note_on_c, 0, 81, 64
2, 57868, Note_on_c, 0, 81, 0
2, 57868, Note_on_c, 0, 84, 0
2, 57870, Note_on_c, 0, 86, 64
2, 57870, Note_on_c, 0, 83, 64
2, 57878, Note_on_c, 0, 83, 0
2, 57878, Note_on_c, 0, 86, 0
2, 57879, Note_on_c, 0, 88, 64
2, 57879, Note_on_c, 0, 84, 64
2, 57888, Note_on_c, 0, 84, 0
2, 57888, Note_on_c, 0, 88, 0
2, 57889, Note_on_c, 0, 84, 64
2, 57889, Note_on_c, 0, 81, 64
2, 57898, Note_on_c, 0, 81, 0
2, 57898, Note_on_c, 0, 84, 0
2, 57900, Note_on_c, 0, 86, 64
2, 57900, Note_on_c, 0, 83, 64
2, 57908, Note_on_c, 0, 83, 0
2, 57908, Note_on_c, 0, 86, 0
2, 57909, Note_on_c, 0, 88, 64
2, 57909, Note_on_c, 0, 84, 64
2, 57918, Note_on_c, 0, 84, 0
2, 57918, Note_on_c, 0, 88, 0
2, 57919, Note_on_c, 0, 86, 64
2, 57919, Note_on_c, 0, 83, 64
2, 57928, Note_on_c, 0, 83, 0
2, 57928, Note_on_c, 0, 86, 0
2, 57930, Note_on_c, 0, 85, 64
2, 57930, Note_on_c, 0, 82, 64
2, 57938, Note_on_c, 0, 82, 0
2, 57938, Note_on_c, 0, 85, 0
2, 57939, Note_on_c, 0, 86, 64
2, 57939, Note_on_c, 0, 83, 64
2, 57948, Note_on_c, 0, 83, 0
2, 57948, Note_on_c, 0, 86, 0
2, 57949, Note_on_c, 0, 88, 64
2, 57949, Note_on_c, 0, 84, 64
2, 57958, Note_on_c, 0, 84, 0
2, 57958, Note_on_c, 0, 88, 0
2, 57960, Note_on_c, 0, 89, 64
2, 57960, Note_on_c, 0, 86, 64
2, 57968, Note_on_c, 0, 86, 0
2, 57968, Note_on_c, 0, 89, 0
2, 57969, Note_on_c, 0, 91, 64
2, 57969, Note_on_c, 0, 88, 64
2, 57978, Note_on_c, 0, 88, 0
2, 57978, Note_on_c, 0, 91, 0
2, 57979, Note_on_c, 0, 88, 64
2, 57979, Note_on_c, 0, 85, 64
2, 57988, Note_on_c, 0, 85, 0
2, 57988, Note_on_c, 0, 88, 0
2, 57990, Note_on_c, 0, 89, 64
2, 57990, Note_on_c, 0, 86, 64
2, 57998, Note_on_c, 0, 86, 0
2, 57998, Note_on_c, 0, 89, 0
2, 57999, Note_on_c, 0, 91, 64
2, 57999, Note_on_c, 0, 88, 64
2, 58008, Note_on_c, 0, 88, 0
2, 58008, Note_on_c, 0, 91, 0
2, 58009, Note_on_c, 0, 89, 64
2, 58009, Note_on_c, 0, 86, 64
2, 58018, Note_on_c, 0, 86, 0
2, 58018, Note_on_c, 0, 89, 0
2, 58020, Note_on_c, 0, 88, 64
2, 58020, Note_on_c, 0, 84, 64
2, 58028, Note_on_c, 0, 84, 0
2, 58028, Note_on_c, 0, 88, 0
2, 58029, Note_on_c, 0, 89, 64
2, 58029, Note_on_c, 0, 86, 64
2, 58038, Note_on_c, 0, 86, 0
2, 58038, Note_on_c, 0, 89, 0
2, 58039, Note_on_c, 0, 88, 64
2, 58039, Note_on_c, 0, 84, 64
2, 58048, Note_on_c, 0, 84, 0
2, 58048, Note_on_c, 0, 88, 0
2, 58050, Note_on_c, 0, 86, 64
2, 58050, Note_on_c, 0, 83, 64
2, 58058, Note_on_c, 0, 83, 0
2, 58058, Note_on_c, 0, 86, 0
2, 58059, Note_on_c, 0, 88, 64
2, 58059, Note_on_c, 0, 84, 64
2, 58068, Note_on_c, 0, 84, 0
2, 58068, Note_on_c, 0, 88, 0
2, 58069, Note_on_c, 0, 86, 64
2, 58069, Note_on_c, 0, 83, 64
2, 58078, Note_on_c, 0, 83, 0
2, 58078, Note_on_c, 0, 86, 0
2, 58080, Note_on_c, 0, 84, 64
2, 58080, Note_on_c, 0, 81, 64
2, 58088, Note_on_c, 0, 81, 0
2, 58088, Note_on_c, 0, 84, 0
2, 58089, Note_on_c, 0, 86, 64
2, 58089, Note_on_c, 0, 83, 64
2, 58098, Note_on_c, 0, 83, 0
2, 58098, Note_on_c, 0, 86, 0
2, 58099, Note_on_c, 0, 84, 64
2, 58099, Note_on_c, 0, 81, 64
2, 58108, Note_on_c, 0, 81, 0
2, 58108, Note_on_c, 0, 84, 0
2, 58110, Note_on_c, 0, 83, 64
2, 58110, Note_on_c, 0, 79, 64
2, 58118, Note_on_c, 0, 79, 0
2, 58118, Note_on_c, 0, 83, 0
2, 58119, Note_on_c, 0, 84, 64
2, 58119, Note_on_c, 0, 81, 64
2, 58128, Note_on_c, 0, 81, 0
2, 58128, Note_on_c, 0, 84, 0
2, 58129, Note_on_c, 0, 83, 64
2, 58129, Note_on_c, 0, 79, 64
2, 58138, Note_on_c, 0, 79, 0
2, 58138, Note_on_c, 0, 83, 0
2, 58140, Note_on_c, 0, 84, 64
2, 58140, Note_on_c, 0, 81, 64
2, 58148, Note_on_c, 0, 81, 0
2, 58148, Note_on_c, 0, 84, 0
2, 58149, Note_on_c, 0, 86, 64
2, 58149, Note_on_c, 0, 83, 64
2, 58158, Note_on_c, 0, 83, 0
2, 58158, Note_on_c, 0, 86, 0
2, 58159, Note_on_c, 0, 84, 64
2, 58159, Note_on_c, 0, 81, 64
2, 58168, Note_on_c, 0, 81, 0
2, 58168, Note_on_c, 0, 84, 0
2, 58170, Note_on_c, 0, 86, 64
2, 58170, Note_on_c, 0, 83, 64
2, 58178, Note_on_c, 0, 83, 0
2, 58178, Note_on_c, 0, 86, 0
2, 58179, Note_on_c, 0, 88, 64
2, 58179, Note_on_c, 0, 84, 64
2, 58188, Note_on_c, 0, 84, 0
2, 58188, Note_on_c, 0, 88, 0
2, 58189, Note_on_c, 0, 86, 64
2, 58189, Note_on_c, 0, 83, 64
2, 58198, Note_on_c, 0, 83, 0
2, 58198, Note_on_c, 0, 86, 0
2, 58200, Note_on_c, 0, 88, 64
2, 58200, Note_on_c, 0, 84, 64
2, 58208, Note_on_c, 0, 84, 0
2, 58208, Note_on_c, 0, 88, 0
2, 58209, Note_on_c, 0, 89, 64
2, 58209, Note_on_c, 0, 86, 64
2, 58218, Note_on_c, 0, 86, 0
2, 58218, Note_on_c, 0, 89, 0
2, 58219, Note_on_c, 0, 91, 64
2, 58219, Note_on_c, 0, 88, 64
2, 58228, Note_on_c, 0, 88, 0
2, 58228, Note_on_c, 0, 91, 0
2, 58230, Note_on_c, 0, 93, 64
2, 58230, Note_on_c, 0, 89, 64
2, 58238, Note_on_c, 0, 89, 0
2, 58238, Note_on_c, 0, 93, 0
2, 58239, Note_on_c, 0, 91, 64
2, 58239, Note_on_c, 0, 88, 64
2, 58248, Note_on_c, 0, 88, 0
2, 58248, Note_on_c, 0, 91, 0
2, 58249, Note_on_c, 0, 95, 64
2, 58249, Note_on_c, 0, 86, 64
2, 58258, Note_on_c, 0, 86, 0
2, 58258, Note_on_c, 0, 95, 0
2, 58260, Note_on_c, 0, 96, 64
2, 58260, Note_on_c, 0, 84, 64
2, 58268, Note_on_c, 0, 84, 0
2, 58268, Note_on_c, 0, 96, 0
2, 58269, Note_on_c, 0, 95, 64
2, 58269, Note_on_c, 0, 83, 64
2, 58278, Note_on_c, 0, 83, 0
2, 58278, Note_on_c, 0, 95, 0
2, 58279, Note_on_c, 0, 93, 64
2, 58279, Note_on_c, 0, 81, 64
2, 58288, Note_on_c, 0, 81, 0
2, 58288, Note_on_c, 0, 93, 0
2, 58290, Note_on_c, 0, 91, 64
2, 58290, Note_on_c, 0, 79, 64
2, 58298, Note_on_c, 0, 79, 0
2, 58298, Note_on_c, 0, 91, 0
2, 58299, Note_on_c, 0, 89, 64
2, 58299, Note_on_c, 0, 77, 64
2, 58308, Note_on_c, 0, 77, 0
2, 58308, Note_on_c, 0, 89, 0
2, 58309, Note_on_c, 0, 88, 64
2, 58309, Note_on_c, 0, 76, 64
2, 58318, Note_on_c, 0, 76, 0
2, 58318, Note_on_c, 0, 88, 0
2, 58320, Note_on_c, 0, 86, 64
2, 58320, Note_on_c, 0, 74, 64
2, 58328, Note_on_c, 0, 74, 0
2, 58328, Note_on_c, 0, 86, 0
2, 58329, Note_on_c, 0, 84, 64
2, 58329, Note_on_c, 0, 72, 64
2, 58338, Note_on_c, 0, 72, 0
2, 58338, Note_on_c, 0, 84, 0
2, 58339, Note_on_c, 0, 83, 64
2, 58339, Note_on_c, 0, 71, 64
2, 58348, Note_on_c, 0, 71, 0
2, 58348, Note_on_c, 0, 83, 0
2, 58350, Note_on_c, 0, 84, 64
2, 58350, Note_on_c, 0, 72, 64
2, 58358, Note_on_c, 0, 72, 0
2, 58358, Note_on_c, 0, 84, 0
2, 58359, Note_on_c, 0, 83, 64
2, 58359, Note_on_c, 0, 71, 64
2, 58368, Note_on_c, 0, 71, 0
2, 58368, Note_on_c, 0, 83, 0
2, 58369, Note_on_c, 0, 81, 64
2, 58369, Note_on_c, 0, 69, 64
2, 58378, Note_on_c, 0, 69, 0
2, 58378, Note_on_c, 0, 81, 0
2, 58380, Note_on_c, 0, 79, 64
2, 58380, Note_on_c, 0, 67, 64
2, 58388, Note_on_c, 0, 67, 0
2, 58388, Note_on_c, 0, 79, 0
2, 58389, Note_on_c, 0, 77, 64
2, 58389, Note_on_c, 0, 65, 64
2, 58398, Note_on_c, 0, 65, 0
2, 58398, Note_on_c, 0, 77, 0
2, 58399, Note_on_c, 0, 76, 64
2, 58399, Note_on_c, 0, 64, 64
2, 58408, Note_on_c, 0, 64, 0
2, 58408, Note_on_c, 0, 76, 0
2, 58410, Note_on_c, 0, 74, 64
2, 58410, Note_on_c, 0, 62, 64
2, 58418, Note_on_c, 0, 62, 0
2, 58418, Note_on_c, 0, 74, 0
2, 58419, Note_on_c, 0, 72, 64
2, 58419, Note_on_c, 0, 60, 64
2, 58428, Note_on_c, 0, 60, 0
2, 58428, Note_on_c, 0, 72, 0
2, 58429, Note_on_c, 0, 71, 64
2, 58429, Note_on_c, 0, 59, 64
2, 58438, Note_on_c, 0, 59, 0
2, 58438, Note_on_c, 0, 71, 0
2, 58440, Note_on_c, 0, 72, 64
2, 58440, Note_on_c, 0, 60, 64
2, 58448, Note_on_c, 0, 60, 0
2, 58448, Note_on_c, 0, 72, 0
2, 58449, Note_on_c, 0, 71, 64
2, 58449, Note_on_c, 0, 59, 64
2, 58458, Note_on_c, 0, 59, 0
2, 58458, Note_on_c, 0, 71, 0
2, 58459, Note_on_c, 0, 69, 64
2, 58459, Note_on_c, 0, 57, 64
2, 58468, Note_on_c, 0, 57, 0
2, 58468, Note_on_c, 0, 69, 0
2, 58470, Note_on_c, 0, 67, 64
2, 58470, Note_on_c, 0, 55, 64
2, 58478, Note_on_c, 0, 55, 0
2, 58478, Note_on_c, 0, 67, 0
2, 58479, Note_on_c, 0, 65, 64
2, 58479, Note_on_c, 0, 53, 64
2, 58488, Note_on_c, 0, 53, 0
2, 58488, Note_on_c, 0, 65, 0
2, 58489, Note_on_c, 0, 64, 64
2, 58489, Note_on_c, 0, 52, 64
2, 58498, Note_on_c, 0, 52, 0
2, 58498, Note_on_c, 0, 64, 0
2, 58500, Note_on_c, 0, 62, 64
2, 58500, Note_on_c, 0, 50, 64
2, 58508, Note_on_c, 0, 50, 0
2, 58508, Note_on_c, 0, 62, 0
2, 58509, Note_on_c, 0, 60, 64
2, 58509, Note_on_c, 0, 48, 64
2, 58518, Note_on_c, 0, 48, 0
2, 58518, Note_on_c, 0, 60, 0
2, 58519, Note_on_c, 0, 59, 64
2, 58519, Note_on_c, 0, 47, 64
2, 58528, Note_on_c, 0, 47, 0
2, 58528, Note_on_c, 0, 59, 0
2, 58530, Note_on_c, 0, 60, 64
2, 58590, Note_on_c, 0, 55, 64
2, 58616, Note_on_c, 0, 55, 0
2, 58616, Note_on_c, 0, 60, 0
2, 58620, Note_on_c, 0, 55, 64
2, 58620, Note_on_c, 0, 36, 64
2, 58672, Note_on_c, 0, 36, 0
2, 58680, Note_on_c, 0, 31, 64
2, 58698, Note_on_c, 0, 55, 0
2, 58706, Note_on_c, 0, 31, 0
2, 58710, Note_on_c, 0, 77, 64
2, 58710, Note_on_c, 0, 31, 64
2, 58762, Note_on_c, 0, 77, 0
2, 58770, Note_on_c, 0, 71, 64
2, 58796, Note_on_c, 0, 71, 0
2, 58800, Note_on_c, 0, 89, 64
2, 58852, Note_on_c, 0, 89, 0
2, 58860, Note_on_c, 0, 83, 64
2, 58886, Note_on_c, 0, 83, 0
2, 58890, Note_on_c, 0, 74, 64
2, 58890, Note_on_c, 0, 77, 64
2, 58890, Note_on_c, 0, 86, 64
2, 58916, Note_on_c, 0, 31, 0
2, 58920, Note_on_c, 0, 31, 64
2, 58920, Note_on_c, 0, 43, 64
2, 58942, Note_on_c, 0, 74, 0
2, 58942, Note_on_c, 0, 86, 0
2, 58942, Note_on_c, 0, 77, 0
2, 58946, Note_on_c, 0, 31, 0
2, 58946, Note_on_c, 0, 43, 0
2, 58950, Note_on_c, 0, 72, 64
2, 58950, Note_on_c, 0, 76, 64
2, 58950, Note_on_c, 0, 84, 64
2, 58950, Note_on_c, 0, 36, 64
2, 58950, Note_on_c, 0, 48, 64
2, 58976, Note_on_c, 0, 48, 0
2, 58976, Note_on_c, 0, 84, 0
2, 58976, Note_on_c, 0, 72, 0
2, 58976, Note_on_c, 0, 76, 0
2, 58976, Note_on_c, 0, 36, 0
2, 58980, Note_on_c, 0, 72, 64
2, 58980, Note_on_c, 0, 76, 64
2, 58980, Note_on_c, 0, 84, 64
2, 59010, Note_on_c, 0, 43, 64
2, 59010, Note_on_c, 0, 55, 64
2, 59032, Note_on_c, 0, 84, 0
2, 59032, Note_on_c, 0, 72, 0
2, 59032, Note_on_c, 0, 76, 0
2, 59036, Note_on_c, 0, 43, 0
2, 59036, Note_on_c, 0, 55, 0
2, 59040, Note_on_c, 0, 48, 64
2, 59040, Note_on_c, 0, 60, 64
2, 59066, Note_on_c, 0, 60, 0
2, 59066, Note_on_c, 0, 48, 0
2, 59070, Note_on_c, 0, 72, 64
2, 59070, Note_on_c, 0, 76, 64
2, 59070, Note_on_c, 0, 84, 64
2, 59100, Note_on_c, 0, 31, 64
2, 59100, Note_on_c, 0, 43, 64
2, 59122, Note_on_c, 0, 84, 0
2, 59122, Note_on_c, 0, 72, 0
2, 59122, Note_on_c, 0, 76, 0
2, 59126, Note_on_c, 0, 31, 0
2, 59126, Note_on_c, 0, 43, 0
2, 59130, Note_on_c, 0, 36, 64
2, 59130, Note_on_c, 0, 48, 64
2, 59156, Note_on_c, 0, 48, 0
2, 59156, Note_on_c, 0, 36, 0
2, 59160, Note_on_c, 0, 52, 64
2, 59160, Note_on_c, 0, 55, 64
2, 59160, Note_on_c, 0, 60, 64
2, 59160, Note_on_c, 0, 36, 64
2, 59160, Note_on_c, 0, 48, 64
2, 59212, Note_on_c, 0, 48, 0
2, 59212, Note_on_c, 0, 60, 0
2, 59212, Note_on_c, 0, 52, 0
2, 59212, Note_on_c, 0, 55, 0
2, 59212, Note_on_c, 0, 36, 0
2, 59212, End_track
3, 0, Start_track
3, 0, MIDI_port, 0
3, 0, Title_t, "Sequenced By Tony Chavez"
3, 0, End_track
4, 0, Start_track
4, 0, MIDI_port, 0
4, 0, Title_t, "tonychu@chanchan.unitru.edu.pe"
4, 0, End_track
0, 0, End_of_file