0, 0, Header, 1, 21, 240
1, 0, Start_track
1, 0, Time_signature, 4, 2, 24, 8
1, 0, Tempo, 428571
1, 0, Marker_t, "Allegro"
1, 0, Marker_t, "Allegro con brio"
1, 0, Marker_t, "Allegro con brio\012"
1, 0, Marker_t, "Allegro con brio."
1, 0, Marker_t, "Allegro con brio. (TUTTI.)"
1, 0, Marker_t, "Ludwig van Beethoven"
1, 0, Marker_t, "Ludwig van Beethoven"
1, 0, Marker_t, "Mov't. 1 "
1, 0, Marker_t, "Mov't. 3 - RONDO"
1, 0, Marker_t, "Piano Concerto No.1 in C Op.15"
1, 0, Marker_t, "Piano Concerto No.1 in C, Op.15"
1, 100800, Marker_t, "SOLO"
1, 146880, Tempo, 441176
1, 146880, Marker_t, "TUTTI."
1, 154560, Tempo, 428571
1, 154560, Marker_t, "SOLO."
1, 192240, Tempo, 437956
1, 192480, Tempo, 451128
1, 192720, Tempo, 461538
1, 192960, Tempo, 476190
1, 193200, Tempo, 487805
1, 193440, Tempo, 504202
1, 193680, Tempo, 517241
1, 193920, Tempo, 428571
1, 226560, Marker_t, "TUTTI."
1, 254400, Marker_t, "SOLO."
1, 317040, Tempo, 434783
1, 317280, Tempo, 441176
1, 317520, Tempo, 451128
1, 317760, Tempo, 458015
1, 318000, Tempo, 465116
1, 318240, Tempo, 476190
1, 318480, Tempo, 483871
1, 318720, Tempo, 491803
1, 318960, Tempo, 504202
1, 319200, Tempo, 512821
1, 319440, Tempo, 521739
1, 319680, Tempo, 530973
1, 319920, Tempo, 517241
1, 320160, Tempo, 504202
1, 320400, Tempo, 487805
1, 320640, Tempo, 476190
1, 320880, Tempo, 465116
1, 321120, Tempo, 451128
1, 321360, Tempo, 441176
1, 321600, Tempo, 428571
1, 331200, Marker_t, "TUTTI."
1, 337920, Marker_t, "SOLO."
1, 353280, Marker_t, "TUTTI."
1, 361920, Tempo, 441176
1, 372480, Tempo, 428571
1, 383520, Tempo, 425532
1, 384000, Tempo, 422535
1, 384240, Tempo, 419580
1, 384720, Tempo, 416667
1, 384960, Tempo, 413793
1, 385920, Tempo, 410959
1, 396480, Tempo, 400000
1, 396720, Tempo, 402685
1, 396960, Tempo, 408163
1, 397200, Tempo, 413793
1, 397440, Tempo, 419580
1, 397680, Tempo, 425532
1, 397920, Tempo, 431655
1, 398160, Tempo, 437956
1, 398400, Tempo, 444444
1, 398640, Tempo, 451128
1, 398880, Tempo, 458015
1, 399120, Tempo, 461538
1, 399360, Tempo, 468750
1, 399600, Tempo, 476190
1, 399840, Tempo, 483871
1, 400080, Tempo, 491803
1, 400320, Tempo, 500000
1, 400560, Tempo, 508475
1, 400800, Tempo, 517241
1, 401040, Tempo, 526316
1, 401280, Tempo, 535714
1, 402240, Tempo, 428571
1, 416880, Tempo, 431655
1, 417120, Tempo, 434783
1, 417360, Tempo, 441176
1, 417600, Tempo, 444444
1, 417840, Tempo, 451128
1, 418080, Tempo, 454545
1, 418320, Tempo, 458015
1, 418560, Tempo, 465116
1, 418800, Tempo, 468750
1, 419040, Tempo, 476190
1, 419280, Tempo, 480000
1, 419520, Tempo, 483871
1, 419760, Tempo, 491803
1, 420000, Tempo, 495868
1, 420240, Tempo, 504202
1, 420480, Tempo, 508475
1, 420720, Tempo, 512821
1, 420960, Tempo, 521739
1, 421200, Tempo, 526316
1, 421440, Tempo, 535714
1, 421680, Tempo, 521739
1, 421920, Tempo, 504202
1, 422160, Tempo, 491803
1, 422400, Tempo, 476190
1, 422640, Tempo, 465116
1, 422880, Tempo, 451128
1, 423120, Tempo, 441176
1, 423360, Tempo, 428571
1, 423600, Tempo, 451128
1, 423840, Tempo, 444444
1, 424080, Tempo, 437956
1, 424320, Tempo, 428571
1, 428400, Tempo, 437956
1, 428640, Tempo, 451128
1, 428880, Tempo, 461538
1, 429120, Tempo, 476190
1, 429360, Tempo, 487805
1, 429600, Tempo, 504202
1, 429840, Tempo, 517241
1, 430080, Tempo, 535714
1, 430320, Tempo, 545455
1, 430560, Tempo, 555556
1, 430800, Tempo, 566038
1, 431040, Tempo, 576923
1, 431280, Tempo, 555556
1, 431520, Tempo, 530973
1, 431760, Tempo, 512821
1, 432000, Tempo, 491803
1, 432240, Tempo, 476190
1, 432480, Tempo, 458015
1, 432720, Tempo, 444444
1, 432960, Tempo, 428571
1, 432960, Marker_t, "TUTTI."
1, 445440, Time_signature, 2, 2, 24, 8
1, 445920, Time_signature, 4, 2, 24, 8
1, 445920, Marker_t, "Cadenza"
1, 458640, Tempo, 447761
1, 458880, Tempo, 472441
1, 459120, Tempo, 500000
1, 459360, Tempo, 526316
1, 459600, Tempo, 560748
1, 459840, Tempo, 600000
1, 460080, Tempo, 638298
1, 460320, Tempo, 689655
1, 460560, Tempo, 750000
1, 460800, Tempo, 810811
1, 461040, Tempo, 895522
1, 461280, Tempo, 1000000
1, 462240, Tempo, 400000
1, 465120, Tempo, 428571
1, 474960, Tempo, 441176
1, 475200, Tempo, 458015
1, 475440, Tempo, 472441
1, 475680, Tempo, 491803
1, 475920, Tempo, 508475
1, 476160, Tempo, 530973
1, 476400, Tempo, 550459
1, 476640, Tempo, 576923
1, 476880, Tempo, 530973
1, 477120, Tempo, 545455
1, 477360, Tempo, 560748
1, 477600, Tempo, 576923
1, 477840, Tempo, 555556
1, 478080, Tempo, 530973
1, 478320, Tempo, 512821
1, 478560, Tempo, 491803
1, 478800, Tempo, 476190
1, 479040, Tempo, 458015
1, 479280, Tempo, 444444
1, 479520, Tempo, 428571
1, 479520, Marker_t, "TUTTI."
1, 479520, End_track
2, 0, Start_track
2, 0, Title_t, "Flutes"
2, 0, Program_c, 0, 73
2, 0, Control_c, 0, 7, 95
2, 0, Control_c, 0, 10, 39
2, 0, Control_c, 0, 93, 0
2, 0, Control_c, 0, 91, 66
2, 14400, Note_on_c, 0, 72, 115
2, 14880, Note_off_c, 0, 72, 64
2, 14880, Note_on_c, 0, 84, 115
2, 15000, Note_off_c, 0, 84, 64
2, 15120, Note_on_c, 0, 84, 112
2, 15240, Note_off_c, 0, 84, 64
2, 15360, Note_on_c, 0, 84, 119
2, 15480, Note_off_c, 0, 84, 64
2, 15900, Note_on_c, 0, 72, 80
2, 15960, Note_off_c, 0, 72, 64
2, 15960, Note_on_c, 0, 74, 80
2, 16020, Note_off_c, 0, 74, 64
2, 16020, Note_on_c, 0, 76, 80
2, 16080, Note_off_c, 0, 76, 64
2, 16080, Note_on_c, 0, 77, 80
2, 16140, Note_off_c, 0, 77, 64
2, 16140, Note_on_c, 0, 79, 80
2, 16200, Note_off_c, 0, 79, 64
2, 16200, Note_on_c, 0, 81, 80
2, 16260, Note_off_c, 0, 81, 64
2, 16260, Note_on_c, 0, 83, 80
2, 16320, Note_off_c, 0, 83, 64
2, 16320, Note_on_c, 0, 84, 110
2, 16440, Note_off_c, 0, 84, 64
2, 16560, Note_on_c, 0, 86, 112
2, 16680, Note_off_c, 0, 86, 64
2, 16800, Note_on_c, 0, 88, 115
2, 16920, Note_off_c, 0, 88, 64
2, 17040, Note_on_c, 0, 89, 117
2, 17160, Note_off_c, 0, 89, 64
2, 17280, Note_on_c, 0, 88, 117
2, 17400, Note_off_c, 0, 88, 64
2, 17520, Note_on_c, 0, 86, 115
2, 17640, Note_off_c, 0, 86, 64
2, 18240, Note_on_c, 0, 74, 110
2, 18720, Note_off_c, 0, 74, 64
2, 18720, Note_on_c, 0, 86, 112
2, 18840, Note_off_c, 0, 86, 64
2, 18960, Note_on_c, 0, 86, 112
2, 19080, Note_off_c, 0, 86, 64
2, 19200, Note_on_c, 0, 86, 119
2, 19440, Note_off_c, 0, 86, 64
2, 19740, Note_on_c, 0, 67, 112
2, 19800, Note_off_c, 0, 67, 64
2, 19800, Note_on_c, 0, 69, 115
2, 19860, Note_off_c, 0, 69, 64
2, 19860, Note_on_c, 0, 71, 115
2, 19920, Note_off_c, 0, 71, 64
2, 19920, Note_on_c, 0, 72, 115
2, 19980, Note_off_c, 0, 72, 64
2, 19980, Note_on_c, 0, 74, 117
2, 20040, Note_off_c, 0, 74, 64
2, 20040, Note_on_c, 0, 76, 119
2, 20100, Note_off_c, 0, 76, 64
2, 20100, Note_on_c, 0, 78, 115
2, 20160, Note_off_c, 0, 78, 64
2, 20160, Note_on_c, 0, 79, 119
2, 20280, Note_off_c, 0, 79, 64
2, 20400, Note_on_c, 0, 84, 115
2, 20520, Note_off_c, 0, 84, 64
2, 20640, Note_on_c, 0, 86, 123
2, 20760, Note_off_c, 0, 86, 64
2, 20880, Note_on_c, 0, 88, 123
2, 21000, Note_off_c, 0, 88, 64
2, 21120, Note_on_c, 0, 89, 119
2, 21240, Note_off_c, 0, 89, 64
2, 21360, Note_on_c, 0, 88, 119
2, 21480, Note_off_c, 0, 88, 64
2, 21660, Note_on_c, 0, 72, 80
2, 21720, Note_off_c, 0, 72, 64
2, 21720, Note_on_c, 0, 74, 80
2, 21780, Note_off_c, 0, 74, 64
2, 21780, Note_on_c, 0, 76, 80
2, 21840, Note_off_c, 0, 76, 64
2, 21840, Note_on_c, 0, 77, 80
2, 21900, Note_off_c, 0, 77, 64
2, 21900, Note_on_c, 0, 79, 80
2, 21960, Note_off_c, 0, 79, 64
2, 21960, Note_on_c, 0, 81, 80
2, 22020, Note_off_c, 0, 81, 64
2, 22020, Note_on_c, 0, 83, 80
2, 22080, Note_off_c, 0, 83, 64
2, 22080, Note_on_c, 0, 84, 80
2, 22560, Note_off_c, 0, 84, 64
2, 22560, Note_on_c, 0, 81, 80
2, 23040, Note_off_c, 0, 81, 64
2, 23040, Note_on_c, 0, 77, 80
2, 23280, Note_off_c, 0, 77, 64
2, 23580, Note_on_c, 0, 72, 80
2, 23640, Note_off_c, 0, 72, 64
2, 23640, Note_on_c, 0, 74, 80
2, 23700, Note_off_c, 0, 74, 64
2, 23700, Note_on_c, 0, 76, 80
2, 23760, Note_off_c, 0, 76, 64
2, 23760, Note_on_c, 0, 77, 80
2, 23820, Note_off_c, 0, 77, 64
2, 23820, Note_on_c, 0, 79, 80
2, 23880, Note_off_c, 0, 79, 64
2, 23880, Note_on_c, 0, 81, 80
2, 23940, Note_off_c, 0, 81, 64
2, 23940, Note_on_c, 0, 83, 80
2, 24000, Note_off_c, 0, 83, 64
2, 24000, Note_on_c, 0, 84, 80
2, 24480, Note_off_c, 0, 84, 64
2, 24480, Note_on_c, 0, 79, 80
2, 24960, Note_off_c, 0, 79, 64
2, 24960, Note_on_c, 0, 76, 80
2, 25200, Note_off_c, 0, 76, 64
2, 25560, Note_on_c, 0, 84, 80
2, 25620, Note_off_c, 0, 84, 64
2, 25680, Note_on_c, 0, 83, 80
2, 25740, Note_off_c, 0, 83, 64
2, 25740, Note_on_c, 0, 84, 80
2, 25800, Note_off_c, 0, 84, 64
2, 25800, Note_on_c, 0, 86, 80
2, 25860, Note_off_c, 0, 86, 64
2, 25860, Note_on_c, 0, 88, 80
2, 25920, Note_off_c, 0, 88, 64
2, 25920, Note_on_c, 0, 89, 80
2, 26400, Note_off_c, 0, 89, 64
2, 26400, Note_on_c, 0, 86, 115
2, 26520, Note_off_c, 0, 86, 64
2, 26640, Note_on_c, 0, 89, 80
2, 26700, Note_off_c, 0, 89, 64
2, 26700, Note_on_c, 0, 88, 80
2, 26760, Note_off_c, 0, 88, 64
2, 26760, Note_on_c, 0, 86, 80
2, 26820, Note_off_c, 0, 86, 64
2, 26820, Note_on_c, 0, 84, 80
2, 26880, Note_off_c, 0, 84, 64
2, 26880, Note_on_c, 0, 83, 110
2, 27000, Note_off_c, 0, 83, 64
2, 27120, Note_on_c, 0, 86, 80
2, 27180, Note_off_c, 0, 86, 64
2, 27180, Note_on_c, 0, 84, 80
2, 27240, Note_off_c, 0, 84, 64
2, 27240, Note_on_c, 0, 83, 80
2, 27300, Note_off_c, 0, 83, 64
2, 27300, Note_on_c, 0, 81, 80
2, 27360, Note_off_c, 0, 81, 64
2, 27360, Note_on_c, 0, 79, 115
2, 27480, Note_off_c, 0, 79, 64
2, 27600, Note_on_c, 0, 79, 80
2, 27660, Note_off_c, 0, 79, 64
2, 27660, Note_on_c, 0, 77, 80
2, 27720, Note_off_c, 0, 77, 64
2, 27720, Note_on_c, 0, 76, 80
2, 27780, Note_off_c, 0, 76, 64
2, 27780, Note_on_c, 0, 74, 80
2, 27840, Note_off_c, 0, 74, 64
2, 27840, Note_on_c, 0, 72, 80
2, 28080, Note_off_c, 0, 72, 64
2, 29040, Note_on_c, 0, 84, 80
2, 29280, Note_off_c, 0, 84, 64
2, 29280, Note_on_c, 0, 84, 80
2, 29520, Note_off_c, 0, 84, 64
2, 29520, Note_on_c, 0, 84, 80
2, 29760, Note_off_c, 0, 84, 64
2, 29760, Note_on_c, 0, 84, 80
2, 30240, Note_off_c, 0, 84, 64
2, 30240, Note_on_c, 0, 84, 80
2, 30300, Note_off_c, 0, 84, 64
2, 30300, Note_on_c, 0, 72, 80
2, 30360, Note_off_c, 0, 72, 64
2, 30360, Note_on_c, 0, 74, 80
2, 30420, Note_off_c, 0, 74, 64
2, 30420, Note_on_c, 0, 76, 80
2, 30480, Note_off_c, 0, 76, 64
2, 30480, Note_on_c, 0, 77, 80
2, 30540, Note_off_c, 0, 77, 64
2, 30540, Note_on_c, 0, 79, 80
2, 30600, Note_off_c, 0, 79, 64
2, 30600, Note_on_c, 0, 81, 80
2, 30660, Note_off_c, 0, 81, 64
2, 30660, Note_on_c, 0, 84, 80
2, 30720, Note_off_c, 0, 84, 64
2, 30720, Note_on_c, 0, 84, 115
2, 30840, Note_off_c, 0, 84, 64
2, 30960, Note_on_c, 0, 84, 119
2, 31080, Note_off_c, 0, 84, 64
2, 31200, Note_on_c, 0, 81, 107
2, 31320, Note_off_c, 0, 81, 64
2, 31440, Note_on_c, 0, 77, 119
2, 31560, Note_off_c, 0, 77, 64
2, 31680, Note_on_c, 0, 72, 80
2, 31920, Note_off_c, 0, 72, 64
2, 32220, Note_on_c, 0, 72, 80
2, 32280, Note_off_c, 0, 72, 64
2, 32280, Note_on_c, 0, 74, 80
2, 32340, Note_off_c, 0, 74, 64
2, 32340, Note_on_c, 0, 76, 80
2, 32400, Note_off_c, 0, 76, 64
2, 32400, Note_on_c, 0, 77, 80
2, 32460, Note_off_c, 0, 77, 64
2, 32460, Note_on_c, 0, 79, 80
2, 32520, Note_off_c, 0, 79, 64
2, 32520, Note_on_c, 0, 81, 80
2, 32580, Note_off_c, 0, 81, 64
2, 32580, Note_on_c, 0, 83, 80
2, 32640, Note_off_c, 0, 83, 64
2, 32640, Note_on_c, 0, 84, 117
2, 32760, Note_off_c, 0, 84, 64
2, 32880, Note_on_c, 0, 84, 115
2, 33000, Note_off_c, 0, 84, 64
2, 33120, Note_on_c, 0, 79, 119
2, 33240, Note_off_c, 0, 79, 64
2, 33360, Note_on_c, 0, 76, 119
2, 33480, Note_off_c, 0, 76, 64
2, 33600, Note_on_c, 0, 84, 80
2, 34080, Note_off_c, 0, 84, 64
2, 34080, Note_on_c, 0, 81, 80
2, 34560, Note_off_c, 0, 81, 64
2, 34560, Note_on_c, 0, 78, 80
2, 35040, Note_off_c, 0, 78, 64
2, 35040, Note_on_c, 0, 72, 80
2, 35520, Note_off_c, 0, 72, 64
2, 35520, Note_on_c, 0, 71, 80
2, 35760, Note_off_c, 0, 71, 64
2, 37680, Note_on_c, 0, 86, 127
2, 38160, Note_off_c, 0, 86, 64
2, 38160, Note_on_c, 0, 84, 80
2, 38400, Note_off_c, 0, 84, 64
2, 38400, Note_on_c, 0, 83, 115
2, 38520, Note_off_c, 0, 83, 64
2, 38640, Note_on_c, 0, 89, 127
2, 39120, Note_off_c, 0, 89, 64
2, 39120, Note_on_c, 0, 88, 80
2, 39360, Note_off_c, 0, 88, 64
2, 39360, Note_on_c, 0, 86, 112
2, 39480, Note_off_c, 0, 86, 64
2, 39840, Note_on_c, 0, 88, 125
2, 39960, Note_off_c, 0, 88, 64
2, 40320, Note_on_c, 0, 86, 125
2, 40440, Note_off_c, 0, 86, 64
2, 40800, Note_on_c, 0, 88, 125
2, 40920, Note_off_c, 0, 88, 64
2, 41280, Note_on_c, 0, 86, 119
2, 41400, Note_off_c, 0, 86, 64
2, 41520, Note_on_c, 0, 88, 125
2, 41640, Note_off_c, 0, 88, 64
2, 41760, Note_on_c, 0, 86, 123
2, 41880, Note_off_c, 0, 86, 64
2, 42000, Note_on_c, 0, 88, 125
2, 42120, Note_off_c, 0, 88, 64
2, 42240, Note_on_c, 0, 86, 125
2, 42360, Note_off_c, 0, 86, 64
2, 42660, Note_on_c, 0, 79, 125
2, 42720, Note_off_c, 0, 79, 64
2, 42720, Note_on_c, 0, 79, 125
2, 42960, Note_off_c, 0, 79, 64
2, 43140, Note_on_c, 0, 67, 125
2, 43200, Note_off_c, 0, 67, 64
2, 43200, Note_on_c, 0, 67, 125
2, 43440, Note_off_c, 0, 67, 64
2, 49920, Note_on_c, 0, 79, 80
2, 50400, Note_off_c, 0, 79, 64
2, 50400, Note_on_c, 0, 80, 80
2, 50880, Note_off_c, 0, 80, 64
2, 50880, Note_on_c, 0, 82, 80
2, 51360, Note_off_c, 0, 82, 64
2, 51360, Note_on_c, 0, 85, 80
2, 51840, Note_off_c, 0, 85, 64
2, 51840, Note_on_c, 0, 84, 80
2, 52320, Note_off_c, 0, 84, 64
2, 52320, Note_on_c, 0, 82, 80
2, 52800, Note_off_c, 0, 82, 64
2, 52800, Note_on_c, 0, 80, 80
2, 53040, Note_off_c, 0, 80, 64
2, 56640, Note_on_c, 0, 81, 80
2, 57120, Note_off_c, 0, 81, 64
2, 57120, Note_on_c, 0, 82, 80
2, 57600, Note_off_c, 0, 82, 64
2, 57600, Note_on_c, 0, 84, 80
2, 58080, Note_off_c, 0, 84, 64
2, 58080, Note_on_c, 0, 87, 80
2, 58560, Note_off_c, 0, 87, 64
2, 58560, Note_on_c, 0, 86, 80
2, 59040, Note_off_c, 0, 86, 64
2, 59040, Note_on_c, 0, 84, 80
2, 59520, Note_off_c, 0, 84, 64
2, 59520, Note_on_c, 0, 82, 80
2, 59760, Note_off_c, 0, 82, 64
2, 60000, Note_on_c, 0, 85, 80
2, 60120, Note_off_c, 0, 85, 64
2, 60120, Note_on_c, 0, 86, 80
2, 60240, Note_off_c, 0, 86, 64
2, 60240, Note_on_c, 0, 87, 80
2, 60360, Note_off_c, 0, 87, 64
2, 60360, Note_on_c, 0, 86, 80
2, 60480, Note_off_c, 0, 86, 64
2, 60480, Note_on_c, 0, 86, 62
2, 60600, Note_off_c, 0, 86, 64
2, 60600, Note_on_c, 0, 84, 69
2, 60720, Note_off_c, 0, 84, 64
2, 60720, Note_on_c, 0, 82, 71
2, 60840, Note_off_c, 0, 82, 64
2, 60840, Note_on_c, 0, 81, 80
2, 60960, Note_off_c, 0, 81, 64
2, 60960, Note_on_c, 0, 79, 68
2, 61080, Note_off_c, 0, 79, 64
2, 61080, Note_on_c, 0, 78, 80
2, 61200, Note_off_c, 0, 78, 64
2, 61200, Note_on_c, 0, 76, 80
2, 61320, Note_off_c, 0, 76, 64
2, 61320, Note_on_c, 0, 74, 90
2, 61440, Note_off_c, 0, 74, 64
2, 61440, Note_on_c, 0, 79, 72
2, 61560, Note_off_c, 0, 79, 64
2, 61680, Note_on_c, 0, 79, 73
2, 61800, Note_off_c, 0, 79, 64
2, 61890, Note_on_c, 0, 81, 93
2, 61920, Note_off_c, 0, 81, 64
2, 61920, Note_on_c, 0, 79, 93
2, 62040, Note_off_c, 0, 79, 64
2, 62040, Note_on_c, 0, 78, 80
2, 62160, Note_off_c, 0, 78, 64
2, 62160, Note_on_c, 0, 79, 80
2, 62280, Note_off_c, 0, 79, 64
2, 62280, Note_on_c, 0, 82, 80
2, 62400, Note_off_c, 0, 82, 64
2, 62400, Note_on_c, 0, 80, 80
2, 62640, Note_off_c, 0, 80, 64
2, 62640, Note_on_c, 0, 81, 80
2, 62880, Note_off_c, 0, 81, 64
2, 63360, Note_on_c, 0, 83, 78
2, 63480, Note_off_c, 0, 83, 64
2, 63600, Note_on_c, 0, 83, 86
2, 63720, Note_off_c, 0, 83, 64
2, 63810, Note_on_c, 0, 84, 89
2, 63840, Note_off_c, 0, 84, 64
2, 63840, Note_on_c, 0, 83, 95
2, 63960, Note_off_c, 0, 83, 64
2, 63960, Note_on_c, 0, 81, 80
2, 64080, Note_off_c, 0, 81, 64
2, 64080, Note_on_c, 0, 83, 80
2, 64200, Note_off_c, 0, 83, 64
2, 64200, Note_on_c, 0, 86, 80
2, 64320, Note_off_c, 0, 86, 64
2, 64320, Note_on_c, 0, 83, 80
2, 64560, Note_off_c, 0, 83, 64
2, 64560, Note_on_c, 0, 84, 80
2, 64800, Note_off_c, 0, 84, 64
2, 65280, Note_on_c, 0, 86, 84
2, 65400, Note_off_c, 0, 86, 64
2, 65520, Note_on_c, 0, 86, 80
2, 65640, Note_off_c, 0, 86, 64
2, 65730, Note_on_c, 0, 87, 99
2, 65760, Note_off_c, 0, 87, 64
2, 65760, Note_on_c, 0, 86, 94
2, 65880, Note_off_c, 0, 86, 64
2, 65880, Note_on_c, 0, 84, 80
2, 66000, Note_off_c, 0, 84, 64
2, 66000, Note_on_c, 0, 86, 80
2, 66120, Note_off_c, 0, 86, 64
2, 66120, Note_on_c, 0, 89, 80
2, 66240, Note_off_c, 0, 89, 64
2, 66240, Note_on_c, 0, 87, 80
2, 66480, Note_off_c, 0, 87, 64
2, 66480, Note_on_c, 0, 87, 35
2, 66720, Note_off_c, 0, 87, 64
2, 66960, Note_on_c, 0, 91, 36
2, 67200, Note_off_c, 0, 91, 64
2, 67440, Note_on_c, 0, 87, 38
2, 67680, Note_off_c, 0, 87, 64
2, 67920, Note_on_c, 0, 84, 45
2, 68160, Note_off_c, 0, 84, 64
2, 68160, Note_on_c, 0, 79, 34
2, 68400, Note_off_c, 0, 79, 64
2, 72960, Note_on_c, 0, 74, 125
2, 73440, Note_off_c, 0, 74, 64
2, 73440, Note_on_c, 0, 86, 119
2, 73560, Note_off_c, 0, 86, 64
2, 73680, Note_on_c, 0, 86, 125
2, 73800, Note_off_c, 0, 86, 64
2, 73920, Note_on_c, 0, 86, 119
2, 74040, Note_off_c, 0, 86, 64
2, 74040, Note_on_c, 0, 84, 125
2, 74160, Note_off_c, 0, 84, 64
2, 74160, Note_on_c, 0, 82, 119
2, 74220, Note_off_c, 0, 82, 64
2, 74280, Note_on_c, 0, 81, 125
2, 74340, Note_off_c, 0, 81, 64
2, 74400, Note_on_c, 0, 79, 119
2, 74460, Note_off_c, 0, 79, 64
2, 74520, Note_on_c, 0, 77, 123
2, 74580, Note_off_c, 0, 77, 64
2, 74640, Note_on_c, 0, 76, 123
2, 74700, Note_off_c, 0, 76, 64
2, 74760, Note_on_c, 0, 74, 127
2, 74820, Note_off_c, 0, 74, 64
2, 74880, Note_on_c, 0, 72, 119
2, 75360, Note_off_c, 0, 72, 64
2, 75360, Note_on_c, 0, 84, 125
2, 75480, Note_off_c, 0, 84, 64
2, 75600, Note_on_c, 0, 84, 125
2, 75720, Note_off_c, 0, 84, 64
2, 75840, Note_on_c, 0, 84, 123
2, 76800, Note_off_c, 0, 84, 64
2, 76800, Note_on_c, 0, 82, 125
2, 77760, Note_off_c, 0, 82, 64
2, 77760, Note_on_c, 0, 81, 119
2, 78240, Note_off_c, 0, 81, 64
2, 78240, Note_on_c, 0, 81, 105
2, 78360, Note_off_c, 0, 81, 64
2, 78360, Note_on_c, 0, 84, 123
2, 78480, Note_off_c, 0, 84, 64
2, 78480, Note_on_c, 0, 84, 123
2, 78600, Note_off_c, 0, 84, 64
2, 78600, Note_on_c, 0, 84, 125
2, 78720, Note_off_c, 0, 84, 64
2, 78720, Note_on_c, 0, 86, 127
2, 79200, Note_off_c, 0, 86, 64
2, 79200, Note_on_c, 0, 86, 115
2, 79320, Note_off_c, 0, 86, 64
2, 79320, Note_on_c, 0, 86, 127
2, 79440, Note_off_c, 0, 86, 64
2, 79440, Note_on_c, 0, 86, 127
2, 79560, Note_off_c, 0, 86, 64
2, 79560, Note_on_c, 0, 86, 119
2, 79680, Note_off_c, 0, 86, 64
2, 79680, Note_on_c, 0, 88, 127
2, 79920, Note_off_c, 0, 88, 64
2, 80160, Note_on_c, 0, 93, 119
2, 80400, Note_off_c, 0, 93, 64
2, 80640, Note_on_c, 0, 91, 125
2, 80880, Note_off_c, 0, 91, 64
2, 81120, Note_on_c, 0, 83, 127
2, 81360, Note_off_c, 0, 83, 64
2, 81600, Note_on_c, 0, 84, 80
2, 81840, Note_off_c, 0, 84, 64
2, 85440, Note_on_c, 0, 84, 73
2, 85560, Note_off_c, 0, 84, 64
2, 85680, Note_on_c, 0, 79, 81
2, 85800, Note_off_c, 0, 79, 64
2, 85920, Note_on_c, 0, 84, 78
2, 86040, Note_off_c, 0, 84, 64
2, 86160, Note_on_c, 0, 86, 76
2, 86280, Note_off_c, 0, 86, 64
2, 86400, Note_on_c, 0, 88, 101
2, 86760, Note_off_c, 0, 88, 64
2, 86760, Note_on_c, 0, 86, 93
2, 86880, Note_off_c, 0, 86, 64
2, 86880, Note_on_c, 0, 84, 80
2, 87000, Note_off_c, 0, 84, 64
2, 87000, Note_on_c, 0, 86, 73
2, 87120, Note_off_c, 0, 86, 64
2, 87120, Note_on_c, 0, 88, 72
2, 87180, Note_off_c, 0, 88, 64
2, 87240, Note_on_c, 0, 89, 94
2, 87300, Note_off_c, 0, 89, 64
2, 87360, Note_on_c, 0, 91, 81
2, 87480, Note_off_c, 0, 91, 64
2, 87600, Note_on_c, 0, 91, 71
2, 87720, Note_off_c, 0, 91, 64
2, 87840, Note_on_c, 0, 86, 77
2, 87960, Note_off_c, 0, 86, 64
2, 88080, Note_on_c, 0, 86, 85
2, 88200, Note_off_c, 0, 86, 64
2, 88320, Note_on_c, 0, 88, 95
2, 88680, Note_off_c, 0, 88, 64
2, 88680, Note_on_c, 0, 86, 74
2, 88800, Note_off_c, 0, 86, 64
2, 88800, Note_on_c, 0, 84, 80
2, 88920, Note_off_c, 0, 84, 64
2, 88920, Note_on_c, 0, 86, 84
2, 89040, Note_off_c, 0, 86, 64
2, 89040, Note_on_c, 0, 88, 73
2, 89100, Note_off_c, 0, 88, 64
2, 89160, Note_on_c, 0, 89, 84
2, 89220, Note_off_c, 0, 89, 64
2, 89280, Note_on_c, 0, 91, 76
2, 89400, Note_off_c, 0, 91, 64
2, 89520, Note_on_c, 0, 91, 81
2, 89640, Note_off_c, 0, 91, 64
2, 89760, Note_on_c, 0, 86, 81
2, 89880, Note_off_c, 0, 86, 64
2, 90000, Note_on_c, 0, 86, 80
2, 90120, Note_off_c, 0, 86, 64
2, 90240, Note_on_c, 0, 84, 80
2, 91200, Note_off_c, 0, 84, 64
2, 91200, Note_on_c, 0, 84, 80
2, 91680, Note_off_c, 0, 84, 64
2, 91680, Note_on_c, 0, 83, 80
2, 92160, Note_off_c, 0, 83, 64
2, 92160, Note_on_c, 0, 84, 80
2, 92400, Note_off_c, 0, 84, 64
2, 92400, Note_on_c, 0, 88, 80
2, 92640, Note_off_c, 0, 88, 64
2, 92880, Note_on_c, 0, 88, 80
2, 93120, Note_off_c, 0, 88, 64
2, 93120, Note_on_c, 0, 86, 80
2, 93600, Note_off_c, 0, 86, 64
2, 93600, Note_on_c, 0, 86, 80
2, 94080, Note_off_c, 0, 86, 64
2, 94080, Note_on_c, 0, 72, 123
2, 94560, Note_off_c, 0, 72, 64
2, 94560, Note_on_c, 0, 84, 119
2, 94680, Note_off_c, 0, 84, 64
2, 94800, Note_on_c, 0, 84, 127
2, 94920, Note_off_c, 0, 84, 64
2, 95040, Note_on_c, 0, 84, 125
2, 95280, Note_off_c, 0, 84, 64
2, 96000, Note_on_c, 0, 76, 125
2, 96480, Note_off_c, 0, 76, 64
2, 96480, Note_on_c, 0, 88, 127
2, 96600, Note_off_c, 0, 88, 64
2, 96720, Note_on_c, 0, 88, 127
2, 96840, Note_off_c, 0, 88, 64
2, 96960, Note_on_c, 0, 88, 127
2, 97200, Note_off_c, 0, 88, 64
2, 97920, Note_on_c, 0, 91, 125
2, 98400, Note_off_c, 0, 91, 64
2, 98520, Note_on_c, 0, 89, 123
2, 98580, Note_off_c, 0, 89, 64
2, 98580, Note_on_c, 0, 88, 119
2, 98640, Note_off_c, 0, 88, 64
2, 98640, Note_on_c, 0, 86, 117
2, 98700, Note_off_c, 0, 86, 64
2, 98700, Note_on_c, 0, 84, 117
2, 98760, Note_off_c, 0, 84, 64
2, 98760, Note_on_c, 0, 83, 123
2, 98820, Note_off_c, 0, 83, 64
2, 98820, Note_on_c, 0, 81, 119
2, 98880, Note_off_c, 0, 81, 64
2, 98880, Note_on_c, 0, 79, 125
2, 99120, Note_off_c, 0, 79, 64
2, 99360, Note_on_c, 0, 86, 123
2, 99600, Note_off_c, 0, 86, 64
2, 99840, Note_on_c, 0, 88, 127
2, 100080, Note_off_c, 0, 88, 64
2, 100260, Note_on_c, 0, 84, 127
2, 100320, Note_off_c, 0, 84, 64
2, 100320, Note_on_c, 0, 84, 125
2, 100560, Note_off_c, 0, 84, 64
2, 100740, Note_on_c, 0, 72, 125
2, 100800, Note_off_c, 0, 72, 64
2, 100800, Note_on_c, 0, 72, 123
2, 101040, Note_off_c, 0, 72, 64
2, 112320, Note_on_c, 0, 72, 115
2, 112800, Note_off_c, 0, 72, 64
2, 112800, Note_on_c, 0, 84, 125
2, 112920, Note_off_c, 0, 84, 64
2, 113040, Note_on_c, 0, 84, 125
2, 113160, Note_off_c, 0, 84, 64
2, 113280, Note_on_c, 0, 84, 119
2, 113520, Note_off_c, 0, 84, 64
2, 116160, Note_on_c, 0, 74, 125
2, 116640, Note_off_c, 0, 74, 64
2, 116640, Note_on_c, 0, 86, 119
2, 116760, Note_off_c, 0, 86, 64
2, 116880, Note_on_c, 0, 86, 119
2, 117000, Note_off_c, 0, 86, 64
2, 117120, Note_on_c, 0, 86, 127
2, 117360, Note_off_c, 0, 86, 64
2, 147480, Note_on_c, 0, 74, 85
2, 147540, Note_off_c, 0, 74, 64
2, 147600, Note_on_c, 0, 79, 72
2, 147660, Note_off_c, 0, 79, 64
2, 147720, Note_on_c, 0, 83, 62
2, 147780, Note_off_c, 0, 83, 64
2, 147840, Note_on_c, 0, 86, 80
2, 148320, Note_off_c, 0, 86, 64
2, 148320, Note_on_c, 0, 85, 73
2, 148440, Note_off_c, 0, 85, 64
2, 148440, Note_on_c, 0, 86, 84
2, 148560, Note_off_c, 0, 86, 64
2, 148560, Note_on_c, 0, 88, 64
2, 148680, Note_off_c, 0, 88, 64
2, 148680, Note_on_c, 0, 86, 93
2, 148800, Note_off_c, 0, 86, 64
2, 148800, Note_on_c, 0, 86, 86
2, 148920, Note_off_c, 0, 86, 64
2, 148920, Note_on_c, 0, 84, 77
2, 149040, Note_off_c, 0, 84, 64
2, 149040, Note_on_c, 0, 83, 67
2, 149160, Note_off_c, 0, 83, 64
2, 149160, Note_on_c, 0, 81, 78
2, 149280, Note_off_c, 0, 81, 64
2, 149280, Note_on_c, 0, 79, 77
2, 149400, Note_off_c, 0, 79, 64
2, 149400, Note_on_c, 0, 78, 81
2, 149520, Note_off_c, 0, 78, 64
2, 149520, Note_on_c, 0, 76, 81
2, 149640, Note_off_c, 0, 76, 64
2, 149640, Note_on_c, 0, 74, 89
2, 149760, Note_off_c, 0, 74, 64
2, 149760, Note_on_c, 0, 79, 80
2, 150000, Note_off_c, 0, 79, 64
2, 150000, Note_on_c, 0, 79, 94
2, 150210, Note_on_c, 0, 81, 84
2, 150240, Note_off_c, 0, 81, 64
2, 150240, Note_off_c, 0, 79, 64
2, 150240, Note_on_c, 0, 79, 81
2, 150360, Note_off_c, 0, 79, 64
2, 150360, Note_on_c, 0, 78, 64
2, 150480, Note_off_c, 0, 78, 64
2, 150480, Note_on_c, 0, 79, 84
2, 150600, Note_off_c, 0, 79, 64
2, 150600, Note_on_c, 0, 83, 76
2, 150720, Note_off_c, 0, 83, 64
2, 150720, Note_on_c, 0, 80, 82
2, 150960, Note_off_c, 0, 80, 64
2, 150960, Note_on_c, 0, 81, 93
2, 151200, Note_off_c, 0, 81, 64
2, 151680, Note_on_c, 0, 83, 74
2, 152160, Note_off_c, 0, 83, 64
2, 152160, Note_on_c, 0, 82, 72
2, 152280, Note_off_c, 0, 82, 64
2, 152280, Note_on_c, 0, 83, 62
2, 152400, Note_off_c, 0, 83, 64
2, 152400, Note_on_c, 0, 84, 81
2, 152520, Note_off_c, 0, 84, 64
2, 152520, Note_on_c, 0, 83, 84
2, 152640, Note_off_c, 0, 83, 64
2, 152640, Note_on_c, 0, 81, 78
2, 152760, Note_off_c, 0, 81, 64
2, 152760, Note_on_c, 0, 79, 86
2, 152880, Note_off_c, 0, 79, 64
2, 152880, Note_on_c, 0, 78, 81
2, 153000, Note_off_c, 0, 78, 64
2, 153000, Note_on_c, 0, 76, 93
2, 153120, Note_off_c, 0, 76, 64
2, 153120, Note_on_c, 0, 75, 89
2, 153240, Note_off_c, 0, 75, 64
2, 153240, Note_on_c, 0, 76, 94
2, 153360, Note_off_c, 0, 76, 64
2, 153360, Note_on_c, 0, 79, 95
2, 153480, Note_off_c, 0, 79, 64
2, 153480, Note_on_c, 0, 76, 95
2, 153600, Note_off_c, 0, 76, 64
2, 153600, Note_on_c, 0, 74, 95
2, 153960, Note_off_c, 0, 74, 64
2, 153960, Note_on_c, 0, 78, 81
2, 154080, Note_off_c, 0, 78, 64
2, 154080, Note_on_c, 0, 81, 89
2, 154200, Note_off_c, 0, 81, 64
2, 154200, Note_on_c, 0, 80, 90
2, 154320, Note_off_c, 0, 80, 64
2, 154320, Note_on_c, 0, 79, 89
2, 154440, Note_off_c, 0, 79, 64
2, 154440, Note_on_c, 0, 76, 90
2, 154560, Note_off_c, 0, 76, 64
2, 154560, Note_on_c, 0, 74, 84
2, 154800, Note_off_c, 0, 74, 64
2, 166320, Note_on_c, 0, 82, 80
2, 166560, Note_off_c, 0, 82, 64
2, 166560, Note_on_c, 0, 82, 80
2, 166800, Note_off_c, 0, 82, 64
2, 166800, Note_on_c, 0, 82, 80
2, 167040, Note_off_c, 0, 82, 64
2, 167040, Note_on_c, 0, 82, 80
2, 167520, Note_off_c, 0, 82, 64
2, 167520, Note_on_c, 0, 81, 80
2, 167640, Note_off_c, 0, 81, 64
2, 167640, Note_on_c, 0, 82, 80
2, 167760, Note_off_c, 0, 82, 64
2, 167760, Note_on_c, 0, 84, 80
2, 167880, Note_off_c, 0, 84, 64
2, 167880, Note_on_c, 0, 82, 80
2, 168000, Note_off_c, 0, 82, 64
2, 168000, Note_on_c, 0, 79, 80
2, 168240, Note_off_c, 0, 79, 64
2, 168960, Note_on_c, 0, 79, 80
2, 169440, Note_off_c, 0, 79, 64
2, 169440, Note_on_c, 0, 78, 80
2, 169560, Note_off_c, 0, 78, 64
2, 169560, Note_on_c, 0, 79, 80
2, 169680, Note_off_c, 0, 79, 64
2, 169680, Note_on_c, 0, 80, 80
2, 169800, Note_off_c, 0, 80, 64
2, 169800, Note_on_c, 0, 79, 80
2, 169920, Note_off_c, 0, 79, 64
2, 169920, Note_on_c, 0, 75, 80
2, 170160, Note_off_c, 0, 75, 64
2, 173760, Note_on_c, 0, 79, 80
2, 174000, Note_off_c, 0, 79, 64
2, 174000, Note_on_c, 0, 74, 80
2, 174240, Note_off_c, 0, 74, 64
2, 174240, Note_on_c, 0, 79, 80
2, 174480, Note_off_c, 0, 79, 64
2, 174480, Note_on_c, 0, 81, 80
2, 174720, Note_off_c, 0, 81, 64
2, 174720, Note_on_c, 0, 83, 80
2, 175080, Note_off_c, 0, 83, 64
2, 175080, Note_on_c, 0, 81, 80
2, 175200, Note_off_c, 0, 81, 64
2, 175200, Note_on_c, 0, 79, 80
2, 175320, Note_off_c, 0, 79, 64
2, 175320, Note_on_c, 0, 81, 80
2, 175440, Note_off_c, 0, 81, 64
2, 175440, Note_on_c, 0, 83, 80
2, 175560, Note_off_c, 0, 83, 64
2, 175560, Note_on_c, 0, 84, 80
2, 175680, Note_off_c, 0, 84, 64
2, 175680, Note_on_c, 0, 86, 80
2, 175920, Note_off_c, 0, 86, 64
2, 175920, Note_on_c, 0, 86, 80
2, 176160, Note_off_c, 0, 86, 64
2, 176160, Note_on_c, 0, 84, 80
2, 176400, Note_off_c, 0, 84, 64
2, 176400, Note_on_c, 0, 83, 80
2, 176640, Note_off_c, 0, 83, 64
2, 176640, Note_on_c, 0, 81, 80
2, 176880, Note_off_c, 0, 81, 64
2, 215040, Note_on_c, 0, 74, 80
2, 216000, Note_off_c, 0, 74, 64
2, 216000, Note_on_c, 0, 74, 80
2, 216960, Note_off_c, 0, 74, 64
2, 217200, Note_on_c, 0, 83, 89
2, 217680, Note_off_c, 0, 83, 64
2, 217680, Note_on_c, 0, 81, 73
2, 217800, Note_off_c, 0, 81, 64
2, 217920, Note_on_c, 0, 79, 74
2, 218040, Note_off_c, 0, 79, 64
2, 218160, Note_on_c, 0, 86, 93
2, 218640, Note_off_c, 0, 86, 64
2, 218640, Note_on_c, 0, 84, 74
2, 218760, Note_off_c, 0, 84, 64
2, 218880, Note_on_c, 0, 83, 84
2, 219000, Note_off_c, 0, 83, 64
2, 219120, Note_on_c, 0, 86, 89
2, 219600, Note_off_c, 0, 86, 64
2, 219600, Note_on_c, 0, 84, 73
2, 219720, Note_off_c, 0, 84, 64
2, 219840, Note_on_c, 0, 83, 72
2, 219960, Note_off_c, 0, 83, 64
2, 220080, Note_on_c, 0, 81, 71
2, 220200, Note_off_c, 0, 81, 64
2, 220320, Note_on_c, 0, 79, 50
2, 220440, Note_off_c, 0, 79, 64
2, 220560, Note_on_c, 0, 81, 62
2, 220680, Note_off_c, 0, 81, 64
2, 220800, Note_on_c, 0, 83, 80
2, 220920, Note_off_c, 0, 83, 64
2, 226560, Note_on_c, 0, 79, 80
2, 227040, Note_off_c, 0, 79, 64
2, 227520, Note_on_c, 0, 81, 81
2, 228000, Note_off_c, 0, 81, 64
2, 228000, Note_on_c, 0, 93, 86
2, 228120, Note_off_c, 0, 93, 64
2, 228240, Note_on_c, 0, 93, 86
2, 228360, Note_off_c, 0, 93, 64
2, 228480, Note_on_c, 0, 93, 85
2, 228600, Note_off_c, 0, 93, 64
2, 228600, Note_on_c, 0, 91, 82
2, 228720, Note_off_c, 0, 91, 64
2, 228720, Note_on_c, 0, 89, 86
2, 228840, Note_off_c, 0, 89, 64
2, 228840, Note_on_c, 0, 88, 72
2, 228960, Note_off_c, 0, 88, 64
2, 228960, Note_on_c, 0, 86, 74
2, 229080, Note_off_c, 0, 86, 64
2, 229080, Note_on_c, 0, 84, 89
2, 229200, Note_off_c, 0, 84, 64
2, 229200, Note_on_c, 0, 83, 90
2, 229320, Note_off_c, 0, 83, 64
2, 229320, Note_on_c, 0, 81, 99
2, 229440, Note_off_c, 0, 81, 64
2, 229440, Note_on_c, 0, 79, 81
2, 229920, Note_off_c, 0, 79, 64
2, 229920, Note_on_c, 0, 91, 84
2, 230040, Note_off_c, 0, 91, 64
2, 230160, Note_on_c, 0, 91, 84
2, 230280, Note_off_c, 0, 91, 64
2, 230400, Note_on_c, 0, 91, 90
2, 230520, Note_off_c, 0, 91, 64
2, 230520, Note_on_c, 0, 89, 94
2, 230640, Note_off_c, 0, 89, 64
2, 230640, Note_on_c, 0, 88, 89
2, 230760, Note_off_c, 0, 88, 64
2, 230760, Note_on_c, 0, 86, 86
2, 230880, Note_off_c, 0, 86, 64
2, 230880, Note_on_c, 0, 84, 85
2, 231000, Note_off_c, 0, 84, 64
2, 231000, Note_on_c, 0, 83, 90
2, 231120, Note_off_c, 0, 83, 64
2, 231120, Note_on_c, 0, 81, 84
2, 231240, Note_off_c, 0, 81, 64
2, 231240, Note_on_c, 0, 79, 82
2, 231360, Note_off_c, 0, 79, 64
2, 231360, Note_on_c, 0, 78, 86
2, 231840, Note_off_c, 0, 78, 64
2, 231840, Note_on_c, 0, 86, 93
2, 231960, Note_off_c, 0, 86, 64
2, 232080, Note_on_c, 0, 86, 95
2, 232200, Note_off_c, 0, 86, 64
2, 232320, Note_on_c, 0, 86, 71
2, 233280, Note_off_c, 0, 86, 64
2, 233280, Note_on_c, 0, 76, 98
2, 233760, Note_off_c, 0, 76, 64
2, 233760, Note_on_c, 0, 88, 99
2, 233880, Note_off_c, 0, 88, 64
2, 234000, Note_on_c, 0, 88, 98
2, 234120, Note_off_c, 0, 88, 64
2, 234240, Note_on_c, 0, 88, 94
2, 234360, Note_off_c, 0, 88, 64
2, 234360, Note_on_c, 0, 87, 84
2, 234480, Note_off_c, 0, 87, 64
2, 234480, Note_on_c, 0, 88, 94
2, 234600, Note_off_c, 0, 88, 64
2, 234600, Note_on_c, 0, 83, 89
2, 234720, Note_off_c, 0, 83, 64
2, 234720, Note_on_c, 0, 84, 82
2, 234840, Note_off_c, 0, 84, 64
2, 234840, Note_on_c, 0, 83, 85
2, 234960, Note_off_c, 0, 83, 64
2, 234960, Note_on_c, 0, 84, 89
2, 235080, Note_off_c, 0, 84, 64
2, 235080, Note_on_c, 0, 80, 84
2, 235200, Note_off_c, 0, 80, 64
2, 235200, Note_on_c, 0, 81, 94
2, 235320, Note_off_c, 0, 81, 64
2, 235320, Note_on_c, 0, 83, 81
2, 235440, Note_off_c, 0, 83, 64
2, 235440, Note_on_c, 0, 84, 81
2, 235560, Note_off_c, 0, 84, 64
2, 235560, Note_on_c, 0, 83, 86
2, 235680, Note_off_c, 0, 83, 64
2, 235680, Note_on_c, 0, 81, 89
2, 235800, Note_off_c, 0, 81, 64
2, 235800, Note_on_c, 0, 79, 81
2, 235920, Note_off_c, 0, 79, 64
2, 235920, Note_on_c, 0, 78, 89
2, 236040, Note_off_c, 0, 78, 64
2, 236040, Note_on_c, 0, 76, 94
2, 236160, Note_off_c, 0, 76, 64
2, 236160, Note_on_c, 0, 74, 99
2, 236400, Note_off_c, 0, 74, 64
2, 236640, Note_on_c, 0, 83, 93
2, 237120, Note_off_c, 0, 83, 64
2, 237120, Note_on_c, 0, 88, 99
2, 237600, Note_off_c, 0, 88, 64
2, 237600, Note_on_c, 0, 84, 90
2, 238080, Note_off_c, 0, 84, 64
2, 238080, Note_on_c, 0, 83, 62
2, 238320, Note_off_c, 0, 83, 64
2, 238320, Note_on_c, 0, 83, 99
2, 238800, Note_off_c, 0, 83, 64
2, 238800, Note_on_c, 0, 81, 93
2, 238920, Note_off_c, 0, 81, 64
2, 239040, Note_on_c, 0, 79, 80
2, 239160, Note_off_c, 0, 79, 64
2, 239280, Note_on_c, 0, 86, 104
2, 239760, Note_off_c, 0, 86, 64
2, 239760, Note_on_c, 0, 84, 82
2, 239880, Note_off_c, 0, 84, 64
2, 240000, Note_on_c, 0, 83, 93
2, 240120, Note_off_c, 0, 83, 64
2, 240240, Note_on_c, 0, 86, 101
2, 240720, Note_off_c, 0, 86, 64
2, 240720, Note_on_c, 0, 84, 84
2, 240840, Note_off_c, 0, 84, 64
2, 240960, Note_on_c, 0, 83, 93
2, 241080, Note_off_c, 0, 83, 64
2, 241200, Note_on_c, 0, 83, 93
2, 241320, Note_off_c, 0, 83, 64
2, 241440, Note_on_c, 0, 84, 84
2, 241560, Note_off_c, 0, 84, 64
2, 241680, Note_on_c, 0, 81, 99
2, 241800, Note_off_c, 0, 81, 64
2, 241920, Note_on_c, 0, 83, 94
2, 242160, Note_off_c, 0, 83, 64
2, 242400, Note_on_c, 0, 86, 105
2, 242640, Note_off_c, 0, 86, 64
2, 242880, Note_on_c, 0, 86, 105
2, 243120, Note_off_c, 0, 86, 64
2, 243360, Note_on_c, 0, 90, 78
2, 243600, Note_off_c, 0, 90, 64
2, 243840, Note_on_c, 0, 91, 99
2, 244080, Note_off_c, 0, 91, 64
2, 244260, Note_on_c, 0, 79, 80
2, 244320, Note_off_c, 0, 79, 64
2, 244320, Note_on_c, 0, 79, 80
2, 244560, Note_off_c, 0, 79, 64
2, 244740, Note_on_c, 0, 67, 80
2, 244800, Note_off_c, 0, 67, 64
2, 244800, Note_on_c, 0, 67, 80
2, 245040, Note_off_c, 0, 67, 64
2, 249600, Note_on_c, 0, 86, 80
2, 250080, Note_off_c, 0, 86, 64
2, 250080, Note_on_c, 0, 86, 104
2, 250200, Note_off_c, 0, 86, 64
2, 250320, Note_on_c, 0, 86, 105
2, 250440, Note_off_c, 0, 86, 64
2, 250560, Note_on_c, 0, 87, 80
2, 250800, Note_off_c, 0, 87, 64
2, 251520, Note_on_c, 0, 87, 80
2, 251760, Note_off_c, 0, 87, 64
2, 252480, Note_on_c, 0, 87, 80
2, 252720, Note_off_c, 0, 87, 64
2, 253440, Note_on_c, 0, 86, 80
2, 253680, Note_off_c, 0, 86, 64
2, 253920, Note_on_c, 0, 86, 80
2, 254160, Note_off_c, 0, 86, 64
2, 254400, Note_on_c, 0, 87, 80
2, 254640, Note_off_c, 0, 87, 64
2, 254640, Control_c, 0, 7, 90
2, 254640, Control_c, 0, 10, 39
2, 254640, Control_c, 0, 93, 0
2, 254640, Control_c, 0, 91, 66
2, 266160, Control_c, 0, 7, 90
2, 266160, Control_c, 0, 10, 39
2, 266160, Control_c, 0, 93, 0
2, 266160, Control_c, 0, 91, 66
2, 266400, Control_c, 0, 7, 90
2, 266400, Control_c, 0, 10, 39
2, 266400, Control_c, 0, 93, 0
2, 266400, Control_c, 0, 91, 66
2, 266640, Control_c, 0, 7, 90
2, 266640, Control_c, 0, 10, 39
2, 266640, Control_c, 0, 93, 0
2, 266640, Control_c, 0, 91, 66
2, 266880, Control_c, 0, 7, 90
2, 266880, Control_c, 0, 10, 39
2, 266880, Control_c, 0, 93, 0
2, 266880, Control_c, 0, 91, 66
2, 267120, Control_c, 0, 7, 90
2, 267120, Control_c, 0, 10, 39
2, 267120, Control_c, 0, 93, 0
2, 267120, Control_c, 0, 91, 66
2, 267360, Control_c, 0, 7, 90
2, 267360, Control_c, 0, 10, 39
2, 267360, Control_c, 0, 93, 0
2, 267360, Control_c, 0, 91, 66
2, 267600, Control_c, 0, 7, 90
2, 267600, Control_c, 0, 10, 39
2, 267600, Control_c, 0, 93, 0
2, 267600, Control_c, 0, 91, 66
2, 280320, Control_c, 0, 7, 90
2, 280320, Control_c, 0, 10, 39
2, 280320, Control_c, 0, 93, 0
2, 280320, Control_c, 0, 91, 66
2, 280320, Note_on_c, 0, 73, 80
2, 280800, Note_off_c, 0, 73, 64
2, 280800, Note_on_c, 0, 85, 72
2, 280920, Note_off_c, 0, 85, 64
2, 281040, Note_on_c, 0, 85, 64
2, 281160, Note_off_c, 0, 85, 64
2, 281280, Note_on_c, 0, 85, 80
2, 281920, Note_off_c, 0, 85, 64
2, 282240, Note_on_c, 0, 85, 80
2, 282560, Note_off_c, 0, 85, 64
2, 282720, Note_on_c, 0, 84, 80
2, 282880, Note_off_c, 0, 84, 64
2, 282960, Note_on_c, 0, 82, 80
2, 283200, Note_off_c, 0, 82, 64
2, 283200, Note_on_c, 0, 80, 80
2, 283440, Note_off_c, 0, 80, 64
2, 285120, Note_on_c, 0, 77, 80
2, 285600, Note_off_c, 0, 77, 64
2, 285600, Note_on_c, 0, 89, 76
2, 285720, Note_off_c, 0, 89, 64
2, 285840, Note_on_c, 0, 89, 84
2, 285960, Note_off_c, 0, 89, 64
2, 286080, Note_on_c, 0, 89, 80
2, 286560, Note_off_c, 0, 89, 64
2, 286560, Note_on_c, 0, 87, 80
2, 286800, Note_off_c, 0, 87, 64
2, 286800, Note_on_c, 0, 86, 80
2, 287040, Note_off_c, 0, 86, 64
2, 287040, Note_on_c, 0, 84, 80
2, 287280, Note_off_c, 0, 84, 64
2, 288000, Note_on_c, 0, 75, 80
2, 288480, Note_off_c, 0, 75, 64
2, 288480, Note_on_c, 0, 87, 81
2, 288600, Note_off_c, 0, 87, 64
2, 288720, Note_on_c, 0, 87, 78
2, 288840, Note_off_c, 0, 87, 64
2, 288960, Note_on_c, 0, 87, 80
2, 289920, Note_off_c, 0, 87, 64
2, 289920, Note_on_c, 0, 87, 80
2, 290400, Note_off_c, 0, 87, 64
2, 290400, Note_on_c, 0, 86, 80
2, 290640, Note_off_c, 0, 86, 64
2, 290640, Note_on_c, 0, 84, 80
2, 290880, Note_off_c, 0, 84, 64
2, 290880, Note_on_c, 0, 83, 80
2, 291120, Note_off_c, 0, 83, 64
2, 310800, Control_c, 0, 7, 90
2, 310800, Control_c, 0, 10, 39
2, 310800, Control_c, 0, 93, 0
2, 310800, Control_c, 0, 91, 66
2, 311040, Control_c, 0, 7, 90
2, 311040, Control_c, 0, 10, 39
2, 311040, Control_c, 0, 93, 0
2, 311040, Control_c, 0, 91, 66
2, 311280, Control_c, 0, 7, 90
2, 311280, Control_c, 0, 10, 39
2, 311280, Control_c, 0, 93, 0
2, 311280, Control_c, 0, 91, 66
2, 311520, Control_c, 0, 7, 90
2, 311520, Control_c, 0, 10, 39
2, 311520, Control_c, 0, 93, 0
2, 311520, Control_c, 0, 91, 66
2, 311760, Control_c, 0, 7, 90
2, 311760, Control_c, 0, 10, 39
2, 311760, Control_c, 0, 93, 0
2, 311760, Control_c, 0, 91, 66
2, 312000, Control_c, 0, 7, 90
2, 312000, Control_c, 0, 10, 39
2, 312000, Control_c, 0, 93, 0
2, 312000, Control_c, 0, 91, 66
2, 312240, Control_c, 0, 7, 90
2, 312240, Control_c, 0, 10, 39
2, 312240, Control_c, 0, 93, 0
2, 312240, Control_c, 0, 91, 66
2, 312480, Control_c, 0, 7, 90
2, 312480, Control_c, 0, 10, 39
2, 312480, Control_c, 0, 93, 0
2, 312480, Control_c, 0, 91, 66
2, 312720, Control_c, 0, 7, 90
2, 312720, Control_c, 0, 10, 39
2, 312720, Control_c, 0, 93, 0
2, 312720, Control_c, 0, 91, 66
2, 330240, Note_on_c, 0, 83, 80
2, 331200, Note_off_c, 0, 83, 64
2, 331200, Note_on_c, 0, 84, 80
2, 331680, Note_off_c, 0, 84, 64
2, 331680, Note_on_c, 0, 84, 123
2, 331800, Note_off_c, 0, 84, 64
2, 331920, Note_on_c, 0, 84, 119
2, 332040, Note_off_c, 0, 84, 64
2, 332160, Note_on_c, 0, 84, 125
2, 332400, Note_off_c, 0, 84, 64
2, 332700, Note_on_c, 0, 72, 123
2, 332760, Note_off_c, 0, 72, 64
2, 332760, Note_on_c, 0, 74, 125
2, 332820, Note_off_c, 0, 74, 64
2, 332820, Note_on_c, 0, 76, 127
2, 332880, Note_off_c, 0, 76, 64
2, 332880, Note_on_c, 0, 77, 119
2, 332940, Note_off_c, 0, 77, 64
2, 332940, Note_on_c, 0, 79, 125
2, 333000, Note_off_c, 0, 79, 64
2, 333000, Note_on_c, 0, 81, 125
2, 333060, Note_off_c, 0, 81, 64
2, 333060, Note_on_c, 0, 83, 125
2, 333120, Note_off_c, 0, 83, 64
2, 333120, Note_on_c, 0, 84, 123
2, 333240, Note_off_c, 0, 84, 64
2, 333360, Note_on_c, 0, 86, 125
2, 333480, Note_off_c, 0, 86, 64
2, 333600, Note_on_c, 0, 88, 127
2, 333720, Note_off_c, 0, 88, 64
2, 333840, Note_on_c, 0, 89, 127
2, 333960, Note_off_c, 0, 89, 64
2, 334080, Note_on_c, 0, 88, 125
2, 334200, Note_off_c, 0, 88, 64
2, 334320, Note_on_c, 0, 86, 127
2, 334440, Note_off_c, 0, 86, 64
2, 335040, Note_on_c, 0, 74, 127
2, 335520, Note_off_c, 0, 74, 64
2, 335520, Note_on_c, 0, 86, 127
2, 335640, Note_off_c, 0, 86, 64
2, 335760, Note_on_c, 0, 86, 127
2, 335880, Note_off_c, 0, 86, 64
2, 336000, Note_on_c, 0, 86, 127
2, 336240, Note_off_c, 0, 86, 64
2, 336540, Note_on_c, 0, 67, 119
2, 336600, Note_off_c, 0, 67, 64
2, 336600, Note_on_c, 0, 69, 127
2, 336660, Note_off_c, 0, 69, 64
2, 336660, Note_on_c, 0, 71, 127
2, 336720, Note_off_c, 0, 71, 64
2, 336720, Note_on_c, 0, 72, 125
2, 336780, Note_off_c, 0, 72, 64
2, 336780, Note_on_c, 0, 74, 127
2, 336840, Note_off_c, 0, 74, 64
2, 336840, Note_on_c, 0, 76, 127
2, 336900, Note_off_c, 0, 76, 64
2, 336900, Note_on_c, 0, 78, 123
2, 336960, Note_off_c, 0, 78, 64
2, 336960, Note_on_c, 0, 79, 127
2, 337080, Note_off_c, 0, 79, 64
2, 337200, Note_on_c, 0, 84, 127
2, 337320, Note_off_c, 0, 84, 64
2, 337440, Note_on_c, 0, 86, 127
2, 337560, Note_off_c, 0, 86, 64
2, 337680, Note_on_c, 0, 88, 127
2, 337800, Note_off_c, 0, 88, 64
2, 337920, Note_on_c, 0, 89, 127
2, 338040, Note_off_c, 0, 89, 64
2, 338160, Note_on_c, 0, 88, 127
2, 338280, Note_off_c, 0, 88, 64
2, 354240, Note_on_c, 0, 79, 57
2, 355200, Note_off_c, 0, 79, 64
2, 355200, Note_on_c, 0, 79, 69
2, 356160, Note_off_c, 0, 79, 64
2, 356160, Note_on_c, 0, 79, 44
2, 356400, Note_off_c, 0, 79, 64
2, 356400, Note_on_c, 0, 81, 73
2, 356520, Note_off_c, 0, 81, 64
2, 356520, Note_on_c, 0, 83, 74
2, 356580, Note_off_c, 0, 83, 64
2, 356610, Note_on_c, 0, 86, 80
2, 356640, Note_off_c, 0, 86, 64
2, 356640, Note_on_c, 0, 84, 69
2, 356760, Note_off_c, 0, 84, 64
2, 356760, Note_on_c, 0, 83, 65
2, 356880, Note_off_c, 0, 83, 64
2, 356880, Note_on_c, 0, 84, 76
2, 357000, Note_off_c, 0, 84, 64
2, 357000, Note_on_c, 0, 88, 81
2, 357120, Note_off_c, 0, 88, 64
2, 357120, Note_on_c, 0, 85, 77
2, 357360, Note_off_c, 0, 85, 64
2, 357360, Note_on_c, 0, 86, 76
2, 357600, Note_off_c, 0, 86, 64
2, 358080, Note_on_c, 0, 88, 64
2, 358560, Note_off_c, 0, 88, 64
2, 358560, Note_on_c, 0, 87, 73
2, 358680, Note_off_c, 0, 87, 64
2, 358680, Note_on_c, 0, 88, 76
2, 358800, Note_off_c, 0, 88, 64
2, 358800, Note_on_c, 0, 89, 49
2, 358920, Note_off_c, 0, 89, 64
2, 358920, Note_on_c, 0, 88, 69
2, 359040, Note_off_c, 0, 88, 64
2, 359040, Note_on_c, 0, 86, 55
2, 359160, Note_off_c, 0, 86, 64
2, 359160, Note_on_c, 0, 84, 76
2, 359280, Note_off_c, 0, 84, 64
2, 359280, Note_on_c, 0, 83, 71
2, 359400, Note_off_c, 0, 83, 64
2, 359400, Note_on_c, 0, 81, 78
2, 359520, Note_off_c, 0, 81, 64
2, 359520, Note_on_c, 0, 80, 67
2, 359640, Note_off_c, 0, 80, 64
2, 359640, Note_on_c, 0, 81, 71
2, 359760, Note_off_c, 0, 81, 64
2, 359760, Note_on_c, 0, 84, 71
2, 359880, Note_off_c, 0, 84, 64
2, 359880, Note_on_c, 0, 81, 73
2, 360000, Note_off_c, 0, 81, 64
2, 360000, Note_on_c, 0, 79, 71
2, 360360, Note_off_c, 0, 79, 64
2, 360360, Note_on_c, 0, 83, 80
2, 360480, Note_off_c, 0, 83, 64
2, 360480, Note_on_c, 0, 86, 67
2, 360600, Note_off_c, 0, 86, 64
2, 360600, Note_on_c, 0, 85, 68
2, 360720, Note_off_c, 0, 85, 64
2, 360720, Note_on_c, 0, 84, 71
2, 360840, Note_off_c, 0, 84, 64
2, 360840, Note_on_c, 0, 81, 65
2, 360960, Note_off_c, 0, 81, 64
2, 360960, Note_on_c, 0, 79, 71
2, 361200, Note_off_c, 0, 79, 64
2, 380160, Note_on_c, 0, 79, 53
2, 381120, Note_off_c, 0, 79, 64
2, 381120, Note_on_c, 0, 79, 45
2, 382080, Note_off_c, 0, 79, 64
2, 382080, Note_on_c, 0, 79, 44
2, 382200, Note_off_c, 0, 79, 64
2, 382320, Note_on_c, 0, 79, 45
2, 382440, Note_off_c, 0, 79, 64
2, 382560, Note_on_c, 0, 79, 46
2, 382680, Note_off_c, 0, 79, 64
2, 382800, Note_on_c, 0, 79, 54
2, 382920, Note_off_c, 0, 79, 64
2, 383040, Note_on_c, 0, 79, 54
2, 383280, Note_off_c, 0, 79, 64
2, 421440, Note_on_c, 0, 79, 78
2, 422880, Note_off_c, 0, 79, 64
2, 422880, Note_on_c, 0, 79, 64
2, 423600, Note_off_c, 0, 79, 64
2, 423600, Note_on_c, 0, 88, 99
2, 424080, Note_off_c, 0, 88, 64
2, 424080, Note_on_c, 0, 86, 81
2, 424200, Note_off_c, 0, 86, 64
2, 424320, Note_on_c, 0, 84, 82
2, 424440, Note_off_c, 0, 84, 64
2, 424560, Note_on_c, 0, 91, 98
2, 425040, Note_off_c, 0, 91, 64
2, 425040, Note_on_c, 0, 89, 82
2, 425160, Note_off_c, 0, 89, 64
2, 425280, Note_on_c, 0, 88, 80
2, 425400, Note_off_c, 0, 88, 64
2, 425520, Note_on_c, 0, 91, 99
2, 426000, Note_off_c, 0, 91, 64
2, 426000, Note_on_c, 0, 89, 69
2, 426120, Note_off_c, 0, 89, 64
2, 426240, Note_on_c, 0, 88, 94
2, 426360, Note_off_c, 0, 88, 64
2, 426480, Note_on_c, 0, 86, 93
2, 426600, Note_off_c, 0, 86, 64
2, 426720, Note_on_c, 0, 84, 81
2, 426840, Note_off_c, 0, 84, 64
2, 426960, Note_on_c, 0, 86, 94
2, 427080, Note_off_c, 0, 86, 64
2, 430080, Control_c, 0, 7, 90
2, 430080, Control_c, 0, 10, 39
2, 430080, Control_c, 0, 93, 0
2, 430080, Control_c, 0, 91, 66
2, 431040, Control_c, 0, 7, 90
2, 431040, Control_c, 0, 10, 39
2, 431040, Control_c, 0, 93, 0
2, 431040, Control_c, 0, 91, 66
2, 432960, Note_on_c, 0, 84, 112
2, 433920, Note_off_c, 0, 84, 64
2, 433920, Note_on_c, 0, 84, 112
2, 434880, Note_off_c, 0, 84, 64
2, 434880, Note_on_c, 0, 84, 112
2, 435840, Note_off_c, 0, 84, 64
2, 435840, Note_on_c, 0, 88, 107
2, 436800, Note_off_c, 0, 88, 64
2, 436800, Note_on_c, 0, 89, 115
2, 437040, Note_off_c, 0, 89, 64
2, 437760, Note_on_c, 0, 86, 104
2, 438000, Note_off_c, 0, 86, 64
2, 438720, Note_on_c, 0, 88, 125
2, 439680, Note_off_c, 0, 88, 64
2, 439680, Note_on_c, 0, 88, 123
2, 440640, Note_off_c, 0, 88, 64
2, 440640, Note_on_c, 0, 88, 127
2, 441600, Note_off_c, 0, 88, 64
2, 441600, Note_on_c, 0, 88, 94
2, 442560, Note_off_c, 0, 88, 64
2, 442560, Note_on_c, 0, 87, 127
2, 443520, Note_off_c, 0, 87, 64
2, 443520, Note_on_c, 0, 87, 112
2, 443880, Note_off_c, 0, 87, 64
2, 443940, Note_on_c, 0, 87, 127
2, 444000, Note_off_c, 0, 87, 64
2, 444000, Note_on_c, 0, 87, 127
2, 444360, Note_off_c, 0, 87, 64
2, 444420, Note_on_c, 0, 87, 123
2, 444480, Note_off_c, 0, 87, 64
2, 444480, Note_on_c, 0, 88, 127
2, 445440, Control_c, 0, 7, 90
2, 445440, Control_c, 0, 10, 39
2, 445440, Control_c, 0, 93, 0
2, 445440, Control_c, 0, 91, 66
2, 445920, Note_off_c, 0, 88, 64
2, 479520, Note_on_c, 0, 84, 84
2, 479640, Note_off_c, 0, 84, 64
2, 479760, Note_on_c, 0, 79, 72
2, 479880, Note_off_c, 0, 79, 64
2, 480000, Note_on_c, 0, 84, 68
2, 480120, Note_off_c, 0, 84, 64
2, 480240, Note_on_c, 0, 86, 62
2, 480360, Note_off_c, 0, 86, 64
2, 480480, Note_on_c, 0, 88, 115
2, 480840, Note_off_c, 0, 88, 64
2, 480840, Note_on_c, 0, 86, 62
2, 480960, Note_off_c, 0, 86, 64
2, 480960, Note_on_c, 0, 84, 55
2, 481080, Note_off_c, 0, 84, 64
2, 481080, Note_on_c, 0, 86, 50
2, 481200, Note_off_c, 0, 86, 64
2, 481200, Note_on_c, 0, 88, 45
2, 481260, Note_off_c, 0, 88, 64
2, 481320, Note_on_c, 0, 89, 69
2, 481380, Note_off_c, 0, 89, 64
2, 481440, Note_on_c, 0, 91, 70
2, 481560, Note_off_c, 0, 91, 64
2, 481680, Note_on_c, 0, 91, 68
2, 481800, Note_off_c, 0, 91, 64
2, 481920, Note_on_c, 0, 86, 68
2, 482040, Note_off_c, 0, 86, 64
2, 482160, Note_on_c, 0, 86, 76
2, 482280, Note_off_c, 0, 86, 64
2, 482400, Note_on_c, 0, 88, 117
2, 482760, Note_off_c, 0, 88, 64
2, 482760, Note_on_c, 0, 86, 86
2, 482880, Note_off_c, 0, 86, 64
2, 482880, Note_on_c, 0, 84, 64
2, 483000, Note_off_c, 0, 84, 64
2, 483000, Note_on_c, 0, 86, 76
2, 483120, Note_off_c, 0, 86, 64
2, 483120, Note_on_c, 0, 88, 86
2, 483180, Note_off_c, 0, 88, 64
2, 483240, Note_on_c, 0, 89, 89
2, 483300, Note_off_c, 0, 89, 64
2, 483360, Note_on_c, 0, 91, 81
2, 483480, Note_off_c, 0, 91, 64
2, 483600, Note_on_c, 0, 91, 85
2, 483720, Note_off_c, 0, 91, 64
2, 483840, Note_on_c, 0, 86, 82
2, 483960, Note_off_c, 0, 86, 64
2, 484080, Note_on_c, 0, 86, 89
2, 484200, Note_off_c, 0, 86, 64
2, 484320, Note_on_c, 0, 72, 119
2, 484800, Note_off_c, 0, 72, 64
2, 484800, Note_on_c, 0, 84, 119
2, 484920, Note_off_c, 0, 84, 64
2, 485040, Note_on_c, 0, 84, 123
2, 485160, Note_off_c, 0, 84, 64
2, 485280, Note_on_c, 0, 84, 125
2, 485520, Note_off_c, 0, 84, 64
2, 486240, Note_on_c, 0, 76, 127
2, 486720, Note_off_c, 0, 76, 64
2, 486720, Note_on_c, 0, 88, 123
2, 486840, Note_off_c, 0, 88, 64
2, 486960, Note_on_c, 0, 88, 119
2, 487080, Note_off_c, 0, 88, 64
2, 487200, Note_on_c, 0, 88, 125
2, 487440, Note_off_c, 0, 88, 64
2, 488160, Note_on_c, 0, 91, 125
2, 488640, Note_off_c, 0, 91, 64
2, 488760, Note_on_c, 0, 89, 119
2, 488820, Note_off_c, 0, 89, 64
2, 488820, Note_on_c, 0, 88, 119
2, 488880, Note_off_c, 0, 88, 64
2, 488880, Note_on_c, 0, 86, 123
2, 488940, Note_off_c, 0, 86, 64
2, 488940, Note_on_c, 0, 84, 127
2, 489000, Note_off_c, 0, 84, 64
2, 489000, Note_on_c, 0, 83, 125
2, 489060, Note_off_c, 0, 83, 64
2, 489060, Note_on_c, 0, 81, 127
2, 489120, Note_off_c, 0, 81, 64
2, 489120, Note_on_c, 0, 79, 125
2, 489360, Note_off_c, 0, 79, 64
2, 489600, Note_on_c, 0, 86, 119
2, 489840, Note_off_c, 0, 86, 64
2, 490080, Note_on_c, 0, 88, 125
2, 490320, Note_off_c, 0, 88, 64
2, 490500, Note_on_c, 0, 84, 119
2, 490560, Note_off_c, 0, 84, 64
2, 490560, Note_on_c, 0, 84, 125
2, 490800, Note_off_c, 0, 84, 64
2, 490980, Note_on_c, 0, 72, 125
2, 491040, Note_off_c, 0, 72, 64
2, 491040, Note_on_c, 0, 72, 125
2, 491280, Note_off_c, 0, 72, 64
2, 491280, End_track
3, 0, Start_track
3, 0, Title_t, "Oboes"
3, 0, Program_c, 1, 68
3, 0, Control_c, 1, 7, 96
3, 0, Control_c, 1, 10, 64
3, 0, Control_c, 1, 93, 0
3, 0, Control_c, 1, 91, 66
3, 14400, Note_on_c, 1, 72, 110
3, 14400, Note_on_c, 1, 64, 110
3, 14880, Note_off_c, 1, 64, 64
3, 14880, Note_off_c, 1, 72, 64
3, 14880, Note_on_c, 1, 84, 99
3, 14880, Note_on_c, 1, 76, 112
3, 15000, Note_off_c, 1, 76, 64
3, 15000, Note_off_c, 1, 84, 64
3, 15120, Note_on_c, 1, 84, 104
3, 15120, Note_on_c, 1, 76, 107
3, 15240, Note_off_c, 1, 76, 64
3, 15240, Note_off_c, 1, 84, 64
3, 15360, Note_on_c, 1, 84, 101
3, 15360, Note_on_c, 1, 76, 110
3, 15480, Note_off_c, 1, 76, 64
3, 15480, Note_off_c, 1, 84, 64
3, 16320, Note_on_c, 1, 79, 99
3, 16320, Note_on_c, 1, 72, 98
3, 16440, Note_off_c, 1, 72, 64
3, 16440, Note_off_c, 1, 79, 64
3, 16560, Note_on_c, 1, 79, 98
3, 16560, Note_on_c, 1, 74, 94
3, 16680, Note_off_c, 1, 74, 64
3, 16680, Note_off_c, 1, 79, 64
3, 16800, Note_on_c, 1, 84, 94
3, 16800, Note_on_c, 1, 76, 99
3, 16920, Note_off_c, 1, 76, 64
3, 16920, Note_off_c, 1, 84, 64
3, 17040, Note_on_c, 1, 86, 94
3, 17040, Note_on_c, 1, 77, 90
3, 17160, Note_off_c, 1, 77, 64
3, 17160, Note_off_c, 1, 86, 64
3, 17280, Note_on_c, 1, 84, 89
3, 17280, Note_on_c, 1, 76, 99
3, 17400, Note_off_c, 1, 76, 64
3, 17400, Note_off_c, 1, 84, 64
3, 17520, Note_on_c, 1, 83, 94
3, 17520, Note_on_c, 1, 74, 99
3, 17640, Note_off_c, 1, 74, 64
3, 17640, Note_off_c, 1, 83, 64
3, 18240, Note_on_c, 1, 74, 80
3, 18240, Note_on_c, 1, 71, 80
3, 18720, Note_off_c, 1, 71, 64
3, 18720, Note_off_c, 1, 74, 64
3, 18720, Note_on_c, 1, 86, 99
3, 18720, Note_on_c, 1, 83, 94
3, 18840, Note_off_c, 1, 83, 64
3, 18840, Note_off_c, 1, 86, 64
3, 18960, Note_on_c, 1, 86, 104
3, 18960, Note_on_c, 1, 83, 94
3, 19080, Note_off_c, 1, 83, 64
3, 19080, Note_off_c, 1, 86, 64
3, 19200, Note_on_c, 1, 86, 104
3, 19200, Note_on_c, 1, 83, 94
3, 19440, Note_off_c, 1, 83, 64
3, 19440, Note_off_c, 1, 86, 64
3, 20160, Note_on_c, 1, 79, 94
3, 20160, Note_on_c, 1, 67, 94
3, 20280, Note_off_c, 1, 67, 64
3, 20280, Note_off_c, 1, 79, 64
3, 20400, Note_on_c, 1, 79, 95
3, 20400, Note_on_c, 1, 72, 89
3, 20520, Note_off_c, 1, 72, 64
3, 20520, Note_off_c, 1, 79, 64
3, 20640, Note_on_c, 1, 83, 90
3, 20640, Note_on_c, 1, 74, 107
3, 20760, Note_off_c, 1, 74, 64
3, 20760, Note_off_c, 1, 83, 64
3, 20880, Note_on_c, 1, 84, 93
3, 20880, Note_on_c, 1, 76, 104
3, 21000, Note_off_c, 1, 76, 64
3, 21000, Note_off_c, 1, 84, 64
3, 21120, Note_on_c, 1, 86, 99
3, 21120, Note_on_c, 1, 77, 99
3, 21240, Note_off_c, 1, 77, 64
3, 21240, Note_off_c, 1, 86, 64
3, 21360, Note_on_c, 1, 84, 89
3, 21360, Note_on_c, 1, 76, 101
3, 21480, Note_off_c, 1, 76, 64
3, 21480, Note_off_c, 1, 84, 64
3, 22080, Note_on_c, 1, 81, 80
3, 22080, Note_on_c, 1, 77, 80
3, 23040, Note_off_c, 1, 77, 64
3, 23040, Note_off_c, 1, 81, 64
3, 23040, Note_on_c, 1, 81, 80
3, 23040, Note_on_c, 1, 77, 80
3, 24000, Note_off_c, 1, 77, 64
3, 24000, Note_off_c, 1, 81, 64
3, 24000, Note_on_c, 1, 79, 80
3, 24000, Note_on_c, 1, 76, 80
3, 24960, Note_off_c, 1, 76, 64
3, 24960, Note_off_c, 1, 79, 64
3, 24960, Note_on_c, 1, 79, 80
3, 24960, Note_on_c, 1, 76, 80
3, 25920, Note_off_c, 1, 76, 64
3, 25920, Note_off_c, 1, 79, 64
3, 25920, Note_on_c, 1, 77, 80
3, 25920, Note_on_c, 1, 65, 80
3, 26400, Note_off_c, 1, 65, 64
3, 26400, Note_off_c, 1, 77, 64
3, 26400, Note_on_c, 1, 74, 80
3, 26400, Note_on_c, 1, 62, 80
3, 26880, Note_off_c, 1, 62, 64
3, 26880, Note_off_c, 1, 74, 64
3, 26880, Note_on_c, 1, 71, 80
3, 26880, Note_on_c, 1, 62, 80
3, 27360, Note_off_c, 1, 62, 64
3, 27360, Note_off_c, 1, 71, 64
3, 27360, Note_on_c, 1, 79, 80
3, 27360, Note_on_c, 1, 74, 80
3, 27840, Note_off_c, 1, 74, 64
3, 27840, Note_off_c, 1, 79, 64
3, 27840, Note_on_c, 1, 76, 80
3, 27840, Note_on_c, 1, 72, 80
3, 28080, Note_off_c, 1, 72, 64
3, 28080, Note_off_c, 1, 76, 64
3, 29040, Note_on_c, 1, 79, 80
3, 29040, Note_on_c, 1, 76, 80
3, 29280, Note_off_c, 1, 76, 64
3, 29280, Note_off_c, 1, 79, 64
3, 29280, Note_on_c, 1, 79, 80
3, 29280, Note_on_c, 1, 76, 80
3, 29520, Note_off_c, 1, 76, 64
3, 29520, Note_off_c, 1, 79, 64
3, 29520, Note_on_c, 1, 79, 80
3, 29520, Note_on_c, 1, 76, 80
3, 29760, Note_off_c, 1, 76, 64
3, 29760, Note_off_c, 1, 79, 64
3, 29760, Note_on_c, 1, 81, 80
3, 29760, Note_on_c, 1, 77, 80
3, 30720, Note_off_c, 1, 77, 64
3, 30720, Note_off_c, 1, 81, 64
3, 30720, Note_on_c, 1, 81, 80
3, 30720, Note_on_c, 1, 77, 80
3, 30960, Note_off_c, 1, 77, 64
3, 30960, Note_off_c, 1, 81, 64
3, 30960, Note_on_c, 1, 81, 99
3, 30960, Note_on_c, 1, 77, 105
3, 31080, Note_off_c, 1, 77, 64
3, 31080, Note_off_c, 1, 81, 64
3, 31200, Note_on_c, 1, 81, 105
3, 31200, Note_on_c, 1, 77, 110
3, 31320, Note_off_c, 1, 77, 64
3, 31320, Note_off_c, 1, 81, 64
3, 31440, Note_on_c, 1, 81, 99
3, 31440, Note_on_c, 1, 77, 105
3, 31560, Note_off_c, 1, 77, 64
3, 31560, Note_off_c, 1, 81, 64
3, 31680, Note_on_c, 1, 79, 80
3, 31680, Note_on_c, 1, 76, 80
3, 32640, Note_off_c, 1, 76, 64
3, 32640, Note_off_c, 1, 79, 64
3, 32640, Note_on_c, 1, 79, 81
3, 32640, Note_on_c, 1, 76, 84
3, 32760, Note_off_c, 1, 76, 64
3, 32760, Note_off_c, 1, 79, 64
3, 32880, Note_on_c, 1, 79, 104
3, 32880, Note_on_c, 1, 76, 112
3, 33000, Note_off_c, 1, 76, 64
3, 33000, Note_off_c, 1, 79, 64
3, 33120, Note_on_c, 1, 79, 117
3, 33120, Note_on_c, 1, 76, 119
3, 33240, Note_off_c, 1, 76, 64
3, 33240, Note_off_c, 1, 79, 64
3, 33360, Note_on_c, 1, 79, 105
3, 33360, Note_on_c, 1, 76, 115
3, 33480, Note_off_c, 1, 76, 64
3, 33480, Note_off_c, 1, 79, 64
3, 33600, Note_on_c, 1, 78, 80
3, 33600, Note_on_c, 1, 72, 80
3, 34080, Note_off_c, 1, 72, 64
3, 34080, Note_off_c, 1, 78, 64
3, 34080, Note_on_c, 1, 72, 80
3, 34080, Note_on_c, 1, 66, 80
3, 34560, Note_off_c, 1, 66, 64
3, 34560, Note_off_c, 1, 72, 64
3, 34560, Note_on_c, 1, 72, 80
3, 34560, Note_on_c, 1, 66, 80
3, 35040, Note_off_c, 1, 66, 64
3, 35040, Note_off_c, 1, 72, 64
3, 35040, Note_on_c, 1, 72, 80
3, 35040, Note_on_c, 1, 66, 80
3, 35520, Note_off_c, 1, 66, 64
3, 35520, Note_off_c, 1, 72, 64
3, 35520, Note_on_c, 1, 71, 80
3, 35520, Note_on_c, 1, 67, 80
3, 35760, Note_off_c, 1, 67, 64
3, 35760, Note_off_c, 1, 71, 64
3, 37680, Note_on_c, 1, 74, 117
3, 37680, Note_on_c, 1, 65, 119
3, 38160, Note_off_c, 1, 65, 64
3, 38160, Note_off_c, 1, 74, 64
3, 38160, Note_on_c, 1, 72, 80
3, 38160, Note_on_c, 1, 64, 80
3, 38400, Note_off_c, 1, 64, 64
3, 38400, Note_off_c, 1, 72, 64
3, 38400, Note_on_c, 1, 71, 101
3, 38400, Note_on_c, 1, 62, 98
3, 38520, Note_off_c, 1, 62, 64
3, 38520, Note_off_c, 1, 71, 64
3, 38640, Note_on_c, 1, 77, 117
3, 38640, Note_on_c, 1, 74, 119
3, 39120, Note_off_c, 1, 74, 64
3, 39120, Note_off_c, 1, 77, 64
3, 39120, Note_on_c, 1, 76, 80
3, 39120, Note_on_c, 1, 72, 80
3, 39360, Note_off_c, 1, 72, 64
3, 39360, Note_off_c, 1, 76, 64
3, 39360, Note_on_c, 1, 74, 105
3, 39360, Note_on_c, 1, 71, 105
3, 39480, Note_off_c, 1, 71, 64
3, 39480, Note_off_c, 1, 74, 64
3, 39840, Note_on_c, 1, 84, 112
3, 39840, Note_on_c, 1, 76, 112
3, 39960, Note_off_c, 1, 76, 64
3, 39960, Note_off_c, 1, 84, 64
3, 40320, Note_on_c, 1, 83, 112
3, 40320, Note_on_c, 1, 74, 115
3, 40440, Note_off_c, 1, 74, 64
3, 40440, Note_off_c, 1, 83, 64
3, 40800, Note_on_c, 1, 84, 119
3, 40800, Note_on_c, 1, 76, 119
3, 40920, Note_off_c, 1, 76, 64
3, 40920, Note_off_c, 1, 84, 64
3, 41280, Note_on_c, 1, 83, 119
3, 41280, Note_on_c, 1, 74, 119
3, 41400, Note_off_c, 1, 74, 64
3, 41400, Note_off_c, 1, 83, 64
3, 41520, Note_on_c, 1, 84, 119
3, 41520, Note_on_c, 1, 76, 119
3, 41640, Note_off_c, 1, 76, 64
3, 41640, Note_off_c, 1, 84, 64
3, 41760, Note_on_c, 1, 83, 123
3, 41760, Note_on_c, 1, 74, 119
3, 41880, Note_off_c, 1, 74, 64
3, 41880, Note_off_c, 1, 83, 64
3, 42000, Note_on_c, 1, 84, 119
3, 42000, Note_on_c, 1, 76, 123
3, 42120, Note_off_c, 1, 76, 64
3, 42120, Note_off_c, 1, 84, 64
3, 42240, Note_on_c, 1, 83, 125
3, 42240, Note_on_c, 1, 74, 123
3, 42360, Note_off_c, 1, 74, 64
3, 42360, Note_off_c, 1, 83, 64
3, 42660, Note_on_c, 1, 79, 123
3, 42720, Note_off_c, 1, 79, 64
3, 42720, Note_on_c, 1, 79, 119
3, 42960, Note_off_c, 1, 79, 64
3, 43140, Note_on_c, 1, 67, 125
3, 43200, Note_off_c, 1, 67, 64
3, 43200, Note_on_c, 1, 67, 125
3, 43440, Note_off_c, 1, 67, 64
3, 49920, Note_on_c, 1, 76, 80
3, 50400, Note_off_c, 1, 76, 64
3, 50400, Note_on_c, 1, 77, 80
3, 50880, Note_off_c, 1, 77, 64
3, 50880, Note_on_c, 1, 79, 80
3, 51360, Note_off_c, 1, 79, 64
3, 51360, Note_on_c, 1, 73, 80
3, 51840, Note_off_c, 1, 73, 64
3, 51840, Note_on_c, 1, 72, 80
3, 52320, Note_off_c, 1, 72, 64
3, 52320, Note_on_c, 1, 79, 80
3, 52800, Note_off_c, 1, 79, 64
3, 56640, Note_on_c, 1, 78, 80
3, 57120, Note_off_c, 1, 78, 64
3, 57120, Note_on_c, 1, 79, 80
3, 57600, Note_off_c, 1, 79, 64
3, 57600, Note_on_c, 1, 81, 80
3, 58080, Note_off_c, 1, 81, 64
3, 58080, Note_on_c, 1, 75, 80
3, 58560, Note_off_c, 1, 75, 64
3, 58560, Note_on_c, 1, 74, 80
3, 59040, Note_off_c, 1, 74, 64
3, 59040, Note_on_c, 1, 81, 80
3, 59520, Note_off_c, 1, 81, 64
3, 59520, Note_on_c, 1, 79, 80
3, 59760, Note_off_c, 1, 79, 64
3, 62400, Note_on_c, 1, 74, 80
3, 62880, Note_off_c, 1, 74, 64
3, 62880, Note_on_c, 1, 73, 80
3, 63000, Note_off_c, 1, 73, 64
3, 63000, Note_on_c, 1, 74, 80
3, 63120, Note_off_c, 1, 74, 64
3, 63120, Note_on_c, 1, 75, 80
3, 63240, Note_off_c, 1, 75, 64
3, 63240, Note_on_c, 1, 74, 80
3, 63360, Note_off_c, 1, 74, 64
3, 63360, Note_on_c, 1, 74, 80
3, 63600, Note_off_c, 1, 74, 64
3, 64320, Note_on_c, 1, 79, 80
3, 64800, Note_off_c, 1, 79, 64
3, 64800, Note_on_c, 1, 78, 80
3, 64920, Note_off_c, 1, 78, 64
3, 64920, Note_on_c, 1, 79, 80
3, 65040, Note_off_c, 1, 79, 64
3, 65040, Note_on_c, 1, 80, 80
3, 65160, Note_off_c, 1, 80, 64
3, 65160, Note_on_c, 1, 79, 80
3, 65280, Note_off_c, 1, 79, 64
3, 65280, Note_on_c, 1, 79, 80
3, 66240, Note_off_c, 1, 79, 64
3, 66240, Note_on_c, 1, 79, 80
3, 66480, Note_off_c, 1, 79, 64
3, 66480, Note_on_c, 1, 75, 41
3, 66720, Note_off_c, 1, 75, 64
3, 66960, Note_on_c, 1, 79, 42
3, 67200, Note_off_c, 1, 79, 64
3, 67440, Note_on_c, 1, 75, 40
3, 67680, Note_off_c, 1, 75, 64
3, 67920, Note_on_c, 1, 72, 45
3, 68160, Note_off_c, 1, 72, 64
3, 68160, Note_on_c, 1, 67, 31
3, 68400, Note_off_c, 1, 67, 64
3, 69120, Note_on_c, 1, 69, 39
3, 69600, Note_off_c, 1, 69, 64
3, 69600, Note_on_c, 1, 81, 38
3, 69840, Note_off_c, 1, 81, 64
3, 69840, Note_on_c, 1, 81, 43
3, 70080, Note_off_c, 1, 81, 64
3, 70080, Note_on_c, 1, 81, 41
3, 70200, Note_off_c, 1, 81, 64
3, 70200, Note_on_c, 1, 79, 42
3, 70320, Note_off_c, 1, 79, 64
3, 70320, Note_on_c, 1, 77, 38
3, 70440, Note_off_c, 1, 77, 64
3, 70440, Note_on_c, 1, 76, 35
3, 70560, Note_off_c, 1, 76, 64
3, 70560, Note_on_c, 1, 74, 43
3, 70680, Note_off_c, 1, 74, 64
3, 70680, Note_on_c, 1, 72, 38
3, 70800, Note_off_c, 1, 72, 64
3, 70800, Note_on_c, 1, 71, 40
3, 70920, Note_off_c, 1, 71, 64
3, 70920, Note_on_c, 1, 69, 38
3, 71040, Note_off_c, 1, 69, 64
3, 71040, Note_on_c, 1, 67, 50
3, 71520, Note_off_c, 1, 67, 64
3, 71520, Note_on_c, 1, 79, 40
3, 71760, Note_off_c, 1, 79, 64
3, 71760, Note_on_c, 1, 79, 41
3, 72000, Note_off_c, 1, 79, 64
3, 72000, Note_on_c, 1, 79, 117
3, 72120, Note_off_c, 1, 79, 64
3, 72120, Note_on_c, 1, 77, 119
3, 72240, Note_off_c, 1, 77, 64
3, 72240, Note_on_c, 1, 76, 119
3, 72360, Note_off_c, 1, 76, 64
3, 72360, Note_on_c, 1, 74, 119
3, 72480, Note_off_c, 1, 74, 64
3, 72480, Note_on_c, 1, 72, 119
3, 72600, Note_off_c, 1, 72, 64
3, 72600, Note_on_c, 1, 70, 119
3, 72720, Note_off_c, 1, 70, 64
3, 72720, Note_on_c, 1, 69, 117
3, 72840, Note_off_c, 1, 69, 64
3, 72840, Note_on_c, 1, 67, 119
3, 72960, Note_off_c, 1, 67, 64
3, 72960, Note_on_c, 1, 69, 127
3, 72960, Note_on_c, 1, 66, 119
3, 73440, Note_off_c, 1, 66, 64
3, 73440, Note_off_c, 1, 69, 64
3, 73440, Note_on_c, 1, 81, 119
3, 73440, Note_on_c, 1, 78, 119
3, 73560, Note_off_c, 1, 78, 64
3, 73560, Note_off_c, 1, 81, 64
3, 73680, Note_on_c, 1, 81, 119
3, 73680, Note_on_c, 1, 78, 119
3, 73800, Note_off_c, 1, 78, 64
3, 73800, Note_off_c, 1, 81, 64
3, 73920, Note_on_c, 1, 82, 117
3, 73920, Note_on_c, 1, 79, 119
3, 74160, Note_off_c, 1, 79, 64
3, 74160, Note_off_c, 1, 82, 64
3, 74880, Note_on_c, 1, 79, 125
3, 74880, Note_on_c, 1, 76, 119
3, 75360, Note_off_c, 1, 76, 64
3, 75360, Note_off_c, 1, 79, 64
3, 75360, Note_on_c, 1, 79, 119
3, 75360, Note_on_c, 1, 76, 119
3, 75480, Note_off_c, 1, 76, 64
3, 75480, Note_off_c, 1, 79, 64
3, 75600, Note_on_c, 1, 79, 125
3, 75600, Note_on_c, 1, 76, 119
3, 75720, Note_off_c, 1, 76, 64
3, 75720, Note_off_c, 1, 79, 64
3, 75840, Note_on_c, 1, 77, 123
3, 75840, Note_on_c, 1, 72, 117
3, 76800, Note_off_c, 1, 72, 64
3, 76800, Note_off_c, 1, 77, 64
3, 76800, Note_on_c, 1, 76, 127
3, 76800, Note_on_c, 1, 71, 115
3, 76800, Note_on_c, 1, 70, 119
3, 77760, Note_off_c, 1, 70, 64
3, 77760, Note_off_c, 1, 71, 64
3, 77760, Note_off_c, 1, 76, 64
3, 77760, Note_on_c, 1, 77, 125
3, 77760, Note_on_c, 1, 69, 127
3, 78240, Note_off_c, 1, 69, 64
3, 78240, Note_off_c, 1, 77, 64
3, 78240, Note_on_c, 1, 77, 80
3, 78240, Note_on_c, 1, 69, 99
3, 78360, Note_off_c, 1, 69, 64
3, 78360, Note_off_c, 1, 77, 64
3, 78360, Note_on_c, 1, 81, 119
3, 78360, Note_on_c, 1, 72, 115
3, 78480, Note_off_c, 1, 72, 64
3, 78480, Note_off_c, 1, 81, 64
3, 78480, Note_on_c, 1, 81, 119
3, 78480, Note_on_c, 1, 72, 115
3, 78600, Note_off_c, 1, 72, 64
3, 78600, Note_off_c, 1, 81, 64
3, 78600, Note_on_c, 1, 81, 125
3, 78600, Note_on_c, 1, 72, 117
3, 78720, Note_off_c, 1, 72, 64
3, 78720, Note_off_c, 1, 81, 64
3, 78720, Note_on_c, 1, 83, 119
3, 78720, Note_on_c, 1, 74, 119
3, 79200, Note_off_c, 1, 74, 64
3, 79200, Note_off_c, 1, 83, 64
3, 79200, Note_on_c, 1, 83, 86
3, 79200, Note_on_c, 1, 74, 93
3, 79320, Note_off_c, 1, 74, 64
3, 79320, Note_off_c, 1, 83, 64
3, 79320, Note_on_c, 1, 83, 119
3, 79320, Note_on_c, 1, 74, 119
3, 79440, Note_off_c, 1, 74, 64
3, 79440, Note_off_c, 1, 83, 64
3, 79440, Note_on_c, 1, 83, 117
3, 79440, Note_on_c, 1, 74, 123
3, 79560, Note_off_c, 1, 74, 64
3, 79560, Note_off_c, 1, 83, 64
3, 79560, Note_on_c, 1, 83, 119
3, 79560, Note_on_c, 1, 74, 119
3, 79680, Note_off_c, 1, 74, 64
3, 79680, Note_off_c, 1, 83, 64
3, 79680, Note_on_c, 1, 84, 125
3, 79680, Note_on_c, 1, 76, 123
3, 79920, Note_off_c, 1, 76, 64
3, 79920, Note_off_c, 1, 84, 64
3, 80160, Note_on_c, 1, 81, 127
3, 80160, Note_on_c, 1, 72, 123
3, 80400, Note_off_c, 1, 72, 64
3, 80400, Note_off_c, 1, 81, 64
3, 80640, Note_on_c, 1, 79, 125
3, 80640, Note_on_c, 1, 76, 125
3, 80880, Note_off_c, 1, 76, 64
3, 80880, Note_off_c, 1, 79, 64
3, 81120, Note_on_c, 1, 77, 127
3, 81120, Note_on_c, 1, 71, 127
3, 81360, Note_off_c, 1, 71, 64
3, 81360, Note_off_c, 1, 77, 64
3, 81600, Note_on_c, 1, 76, 77
3, 81600, Note_on_c, 1, 72, 51
3, 81720, Note_off_c, 1, 72, 64
3, 81720, Note_off_c, 1, 76, 64
3, 81840, Note_on_c, 1, 67, 68
3, 81960, Note_off_c, 1, 67, 64
3, 82080, Note_on_c, 1, 72, 64
3, 82080, Note_on_c, 1, 64, 74
3, 82200, Note_off_c, 1, 64, 64
3, 82200, Note_off_c, 1, 72, 64
3, 82320, Note_on_c, 1, 74, 59
3, 82320, Note_on_c, 1, 67, 58
3, 82440, Note_off_c, 1, 67, 64
3, 82440, Note_off_c, 1, 74, 64
3, 82560, Note_on_c, 1, 76, 123
3, 82560, Note_on_c, 1, 72, 112
3, 82920, Note_off_c, 1, 72, 64
3, 82920, Note_off_c, 1, 76, 64
3, 82920, Note_on_c, 1, 74, 80
3, 82920, Note_on_c, 1, 67, 84
3, 83040, Note_off_c, 1, 67, 64
3, 83040, Note_off_c, 1, 74, 64
3, 83040, Note_on_c, 1, 72, 64
3, 83040, Note_on_c, 1, 64, 62
3, 83160, Note_off_c, 1, 64, 64
3, 83160, Note_off_c, 1, 72, 64
3, 83160, Note_on_c, 1, 74, 65
3, 83160, Note_on_c, 1, 67, 68
3, 83280, Note_off_c, 1, 67, 64
3, 83280, Note_off_c, 1, 74, 64
3, 83280, Note_on_c, 1, 76, 76
3, 83280, Note_on_c, 1, 72, 61
3, 83340, Note_off_c, 1, 72, 64
3, 83340, Note_off_c, 1, 76, 64
3, 83400, Note_on_c, 1, 77, 57
3, 83400, Note_on_c, 1, 74, 57
3, 83460, Note_off_c, 1, 74, 64
3, 83460, Note_off_c, 1, 77, 64
3, 83520, Note_on_c, 1, 79, 71
3, 83520, Note_on_c, 1, 76, 72
3, 83640, Note_off_c, 1, 76, 64
3, 83640, Note_off_c, 1, 79, 64
3, 83760, Note_on_c, 1, 79, 68
3, 83760, Note_on_c, 1, 76, 73
3, 83880, Note_off_c, 1, 76, 64
3, 83880, Note_off_c, 1, 79, 64
3, 84000, Note_on_c, 1, 77, 73
3, 84000, Note_on_c, 1, 74, 71
3, 84120, Note_off_c, 1, 74, 64
3, 84120, Note_off_c, 1, 77, 64
3, 84240, Note_on_c, 1, 76, 73
3, 84240, Note_on_c, 1, 72, 56
3, 84360, Note_off_c, 1, 72, 64
3, 84360, Note_off_c, 1, 76, 64
3, 84480, Note_on_c, 1, 74, 80
3, 84480, Note_on_c, 1, 71, 80
3, 84720, Note_off_c, 1, 71, 64
3, 84720, Note_off_c, 1, 74, 64
3, 85440, Note_on_c, 1, 72, 43
3, 85440, Note_on_c, 1, 64, 45
3, 85560, Note_off_c, 1, 64, 64
3, 85560, Note_off_c, 1, 72, 64
3, 85680, Note_on_c, 1, 67, 48
3, 85680, Note_on_c, 1, 64, 56
3, 85800, Note_off_c, 1, 64, 64
3, 85800, Note_off_c, 1, 67, 64
3, 85920, Note_on_c, 1, 72, 45
3, 85920, Note_on_c, 1, 64, 53
3, 86040, Note_off_c, 1, 64, 64
3, 86040, Note_off_c, 1, 72, 64
3, 86160, Note_on_c, 1, 74, 65
3, 86160, Note_on_c, 1, 67, 65
3, 86280, Note_off_c, 1, 67, 64
3, 86280, Note_off_c, 1, 74, 64
3, 86400, Note_on_c, 1, 76, 99
3, 86400, Note_on_c, 1, 72, 64
3, 86760, Note_off_c, 1, 72, 64
3, 86760, Note_off_c, 1, 76, 64
3, 86760, Note_on_c, 1, 74, 72
3, 86760, Note_on_c, 1, 67, 72
3, 86880, Note_off_c, 1, 67, 64
3, 86880, Note_off_c, 1, 74, 64
3, 86880, Note_on_c, 1, 72, 45
3, 86880, Note_on_c, 1, 64, 76
3, 87000, Note_off_c, 1, 64, 64
3, 87000, Note_off_c, 1, 72, 64
3, 87000, Note_on_c, 1, 74, 61
3, 87000, Note_on_c, 1, 67, 65
3, 87120, Note_off_c, 1, 67, 64
3, 87120, Note_off_c, 1, 74, 64
3, 87120, Note_on_c, 1, 76, 68
3, 87120, Note_on_c, 1, 72, 46
3, 87180, Note_off_c, 1, 72, 64
3, 87180, Note_off_c, 1, 76, 64
3, 87240, Note_on_c, 1, 77, 64
3, 87240, Note_on_c, 1, 74, 50
3, 87300, Note_off_c, 1, 74, 64
3, 87300, Note_off_c, 1, 77, 64
3, 87360, Note_on_c, 1, 79, 45
3, 87360, Note_on_c, 1, 76, 54
3, 87480, Note_off_c, 1, 76, 64
3, 87480, Note_off_c, 1, 79, 64
3, 87600, Note_on_c, 1, 79, 45
3, 87600, Note_on_c, 1, 76, 56
3, 87720, Note_off_c, 1, 76, 64
3, 87720, Note_off_c, 1, 79, 64
3, 87840, Note_on_c, 1, 74, 64
3, 87840, Note_on_c, 1, 67, 55
3, 87960, Note_off_c, 1, 67, 64
3, 87960, Note_off_c, 1, 74, 64
3, 88080, Note_on_c, 1, 74, 57
3, 88080, Note_on_c, 1, 67, 45
3, 88200, Note_off_c, 1, 67, 64
3, 88200, Note_off_c, 1, 74, 64
3, 88320, Note_on_c, 1, 76, 101
3, 88320, Note_on_c, 1, 72, 71
3, 88680, Note_off_c, 1, 72, 64
3, 88680, Note_off_c, 1, 76, 64
3, 88680, Note_on_c, 1, 74, 64
3, 88680, Note_on_c, 1, 67, 73
3, 88800, Note_off_c, 1, 67, 64
3, 88800, Note_off_c, 1, 74, 64
3, 88800, Note_on_c, 1, 72, 46
3, 88800, Note_on_c, 1, 64, 72
3, 88920, Note_off_c, 1, 64, 64
3, 88920, Note_off_c, 1, 72, 64
3, 88920, Note_on_c, 1, 74, 62
3, 88920, Note_on_c, 1, 67, 64
3, 89040, Note_off_c, 1, 67, 64
3, 89040, Note_off_c, 1, 74, 64
3, 89040, Note_on_c, 1, 76, 68
3, 89040, Note_on_c, 1, 72, 57
3, 89100, Note_off_c, 1, 72, 64
3, 89100, Note_off_c, 1, 76, 64
3, 89160, Note_on_c, 1, 77, 64
3, 89160, Note_on_c, 1, 74, 60
3, 89220, Note_off_c, 1, 74, 64
3, 89220, Note_off_c, 1, 77, 64
3, 89280, Note_on_c, 1, 79, 45
3, 89280, Note_on_c, 1, 76, 50
3, 89400, Note_off_c, 1, 76, 64
3, 89400, Note_off_c, 1, 79, 64
3, 89520, Note_on_c, 1, 79, 57
3, 89520, Note_on_c, 1, 76, 64
3, 89640, Note_off_c, 1, 76, 64
3, 89640, Note_off_c, 1, 79, 64
3, 89760, Note_on_c, 1, 74, 50
3, 89760, Note_on_c, 1, 67, 43
3, 89880, Note_off_c, 1, 67, 64
3, 89880, Note_off_c, 1, 74, 64
3, 90000, Note_on_c, 1, 74, 53
3, 90000, Note_on_c, 1, 67, 45
3, 90120, Note_off_c, 1, 67, 64
3, 90120, Note_off_c, 1, 74, 64
3, 90240, Note_on_c, 1, 76, 80
3, 90240, Note_on_c, 1, 72, 80
3, 91200, Note_off_c, 1, 72, 64
3, 91200, Note_off_c, 1, 76, 64
3, 91200, Note_on_c, 1, 74, 80
3, 91200, Note_on_c, 1, 72, 80
3, 91680, Note_off_c, 1, 72, 64
3, 91680, Note_off_c, 1, 74, 64
3, 91680, Note_on_c, 1, 74, 80
3, 91680, Note_on_c, 1, 71, 80
3, 92160, Note_off_c, 1, 71, 64
3, 92160, Note_off_c, 1, 74, 64
3, 92160, Note_on_c, 1, 76, 80
3, 92160, Note_on_c, 1, 72, 80
3, 92400, Note_off_c, 1, 72, 64
3, 92400, Note_off_c, 1, 76, 64
3, 92400, Note_on_c, 1, 84, 80
3, 92400, Note_on_c, 1, 76, 80
3, 92640, Note_off_c, 1, 76, 64
3, 92640, Note_off_c, 1, 84, 64
3, 92880, Note_on_c, 1, 84, 80
3, 92880, Note_on_c, 1, 76, 80
3, 93120, Note_off_c, 1, 76, 64
3, 93120, Note_off_c, 1, 84, 64
3, 93120, Note_on_c, 1, 84, 80
3, 93120, Note_on_c, 1, 74, 80
3, 93600, Note_off_c, 1, 74, 64
3, 93600, Note_off_c, 1, 84, 64
3, 93600, Note_on_c, 1, 83, 80
3, 93600, Note_on_c, 1, 74, 80
3, 94080, Note_off_c, 1, 74, 64
3, 94080, Note_off_c, 1, 83, 64
3, 94080, Note_on_c, 1, 72, 119
3, 94080, Note_on_c, 1, 60, 119
3, 94560, Note_off_c, 1, 60, 64
3, 94560, Note_off_c, 1, 72, 64
3, 94560, Note_on_c, 1, 84, 119
3, 94560, Note_on_c, 1, 72, 117
3, 94680, Note_off_c, 1, 72, 64
3, 94680, Note_off_c, 1, 84, 64
3, 94800, Note_on_c, 1, 84, 119
3, 94800, Note_on_c, 1, 72, 119
3, 94920, Note_off_c, 1, 72, 64
3, 94920, Note_off_c, 1, 84, 64
3, 95040, Note_on_c, 1, 84, 127
3, 95040, Note_on_c, 1, 72, 115
3, 95280, Note_off_c, 1, 72, 64
3, 95280, Note_off_c, 1, 84, 64
3, 96000, Note_on_c, 1, 64, 127
3, 96480, Note_off_c, 1, 64, 64
3, 96480, Note_on_c, 1, 76, 127
3, 96600, Note_off_c, 1, 76, 64
3, 96720, Note_on_c, 1, 76, 125
3, 96840, Note_off_c, 1, 76, 64
3, 96960, Note_on_c, 1, 76, 127
3, 97200, Note_off_c, 1, 76, 64
3, 97920, Note_on_c, 1, 79, 125
3, 98400, Note_off_c, 1, 79, 64
3, 98520, Note_on_c, 1, 77, 115
3, 98580, Note_off_c, 1, 77, 64
3, 98580, Note_on_c, 1, 76, 119
3, 98640, Note_off_c, 1, 76, 64
3, 98640, Note_on_c, 1, 74, 119
3, 98700, Note_off_c, 1, 74, 64
3, 98700, Note_on_c, 1, 72, 115
3, 98760, Note_off_c, 1, 72, 64
3, 98760, Note_on_c, 1, 71, 115
3, 98820, Note_off_c, 1, 71, 64
3, 98820, Note_on_c, 1, 69, 115
3, 98880, Note_off_c, 1, 69, 64
3, 98880, Note_on_c, 1, 67, 119
3, 99120, Note_off_c, 1, 67, 64
3, 99360, Note_on_c, 1, 83, 115
3, 99360, Note_on_c, 1, 74, 112
3, 99600, Note_off_c, 1, 74, 64
3, 99600, Note_off_c, 1, 83, 64
3, 99840, Note_on_c, 1, 84, 127
3, 99840, Note_on_c, 1, 76, 119
3, 100080, Note_off_c, 1, 76, 64
3, 100080, Note_off_c, 1, 84, 64
3, 100260, Note_on_c, 1, 84, 117
3, 100260, Note_on_c, 1, 76, 112
3, 100320, Note_off_c, 1, 76, 64
3, 100320, Note_off_c, 1, 84, 64
3, 100320, Note_on_c, 1, 84, 119
3, 100320, Note_on_c, 1, 76, 112
3, 100560, Note_off_c, 1, 76, 64
3, 100560, Note_off_c, 1, 84, 64
3, 100740, Note_on_c, 1, 72, 115
3, 100740, Note_on_c, 1, 60, 117
3, 100800, Note_off_c, 1, 60, 64
3, 100800, Note_off_c, 1, 72, 64
3, 100800, Note_on_c, 1, 72, 115
3, 100800, Note_on_c, 1, 60, 112
3, 101040, Note_off_c, 1, 60, 64
3, 101040, Note_off_c, 1, 72, 64
3, 112320, Note_on_c, 1, 72, 99
3, 112320, Note_on_c, 1, 64, 110
3, 112800, Note_off_c, 1, 64, 64
3, 112800, Note_off_c, 1, 72, 64
3, 112800, Note_on_c, 1, 84, 107
3, 112800, Note_on_c, 1, 76, 112
3, 112920, Note_off_c, 1, 76, 64
3, 112920, Note_off_c, 1, 84, 64
3, 113040, Note_on_c, 1, 84, 105
3, 113040, Note_on_c, 1, 76, 112
3, 113160, Note_off_c, 1, 76, 64
3, 113160, Note_off_c, 1, 84, 64
3, 113280, Note_on_c, 1, 84, 101
3, 113280, Note_on_c, 1, 76, 112
3, 113520, Note_off_c, 1, 76, 64
3, 113520, Note_off_c, 1, 84, 64
3, 116160, Note_on_c, 1, 74, 115
3, 116160, Note_on_c, 1, 71, 119
3, 116640, Note_off_c, 1, 71, 64
3, 116640, Note_off_c, 1, 74, 64
3, 116640, Note_on_c, 1, 86, 112
3, 116640, Note_on_c, 1, 83, 112
3, 116760, Note_off_c, 1, 83, 64
3, 116760, Note_off_c, 1, 86, 64
3, 116880, Note_on_c, 1, 86, 115
3, 116880, Note_on_c, 1, 83, 112
3, 117000, Note_off_c, 1, 83, 64
3, 117000, Note_off_c, 1, 86, 64
3, 117120, Note_on_c, 1, 86, 112
3, 117120, Note_on_c, 1, 83, 117
3, 117360, Note_off_c, 1, 83, 64
3, 117360, Note_off_c, 1, 86, 64
3, 138720, Note_on_c, 1, 72, 76
3, 138720, Note_on_c, 1, 69, 73
3, 138840, Note_off_c, 1, 69, 64
3, 138840, Note_off_c, 1, 72, 64
3, 138960, Note_on_c, 1, 72, 80
3, 138960, Note_on_c, 1, 69, 80
3, 139080, Note_off_c, 1, 69, 64
3, 139080, Note_off_c, 1, 72, 64
3, 139200, Note_on_c, 1, 70, 82
3, 139200, Note_on_c, 1, 67, 69
3, 139320, Note_off_c, 1, 67, 64
3, 139320, Note_off_c, 1, 70, 64
3, 139680, Note_on_c, 1, 70, 84
3, 139680, Note_on_c, 1, 67, 72
3, 139800, Note_off_c, 1, 67, 64
3, 139800, Note_off_c, 1, 70, 64
3, 139920, Note_on_c, 1, 70, 76
3, 139920, Note_on_c, 1, 67, 66
3, 140040, Note_off_c, 1, 67, 64
3, 140040, Note_off_c, 1, 70, 64
3, 140160, Note_on_c, 1, 69, 84
3, 140160, Note_on_c, 1, 66, 76
3, 140280, Note_off_c, 1, 66, 64
3, 140280, Note_off_c, 1, 69, 64
3, 142560, Note_on_c, 1, 72, 73
3, 142560, Note_on_c, 1, 69, 74
3, 142680, Note_off_c, 1, 69, 64
3, 142680, Note_off_c, 1, 72, 64
3, 142800, Note_on_c, 1, 72, 76
3, 142800, Note_on_c, 1, 69, 73
3, 142920, Note_off_c, 1, 69, 64
3, 142920, Note_off_c, 1, 72, 64
3, 143040, Note_on_c, 1, 70, 82
3, 143040, Note_on_c, 1, 67, 73
3, 143160, Note_off_c, 1, 67, 64
3, 143160, Note_off_c, 1, 70, 64
3, 143520, Note_on_c, 1, 70, 76
3, 143520, Note_on_c, 1, 67, 76
3, 143640, Note_off_c, 1, 67, 64
3, 143640, Note_off_c, 1, 70, 64
3, 143760, Note_on_c, 1, 70, 74
3, 143760, Note_on_c, 1, 67, 80
3, 143880, Note_off_c, 1, 67, 64
3, 143880, Note_off_c, 1, 70, 64
3, 144000, Note_on_c, 1, 69, 57
3, 144000, Note_on_c, 1, 66, 78
3, 144120, Note_off_c, 1, 66, 64
3, 144120, Note_off_c, 1, 69, 64
3, 147840, Note_on_c, 1, 74, 80
3, 148800, Note_off_c, 1, 74, 64
3, 148800, Note_on_c, 1, 74, 80
3, 149760, Note_off_c, 1, 74, 64
3, 149760, Note_on_c, 1, 74, 80
3, 150720, Note_off_c, 1, 74, 64
3, 151680, Note_on_c, 1, 78, 80
3, 151680, Note_on_c, 1, 71, 86
3, 152160, Note_off_c, 1, 78, 64
3, 152160, Note_on_c, 1, 75, 80
3, 152400, Note_off_c, 1, 71, 64
3, 152400, Note_on_c, 1, 69, 90
3, 152640, Note_off_c, 1, 69, 64
3, 152640, Note_off_c, 1, 75, 64
3, 152640, Note_on_c, 1, 71, 77
3, 152640, Note_on_c, 1, 67, 81
3, 153360, Note_off_c, 1, 67, 64
3, 153360, Note_off_c, 1, 71, 64
3, 153360, Note_on_c, 1, 79, 64
3, 153360, Note_on_c, 1, 71, 81
3, 153480, Note_off_c, 1, 71, 64
3, 153480, Note_off_c, 1, 79, 64
3, 153480, Note_on_c, 1, 76, 77
3, 153480, Note_on_c, 1, 67, 73
3, 153600, Note_off_c, 1, 67, 64
3, 153600, Note_off_c, 1, 76, 64
3, 153600, Note_on_c, 1, 74, 80
3, 153600, Note_on_c, 1, 66, 80
3, 153840, Note_off_c, 1, 66, 64
3, 153840, Note_off_c, 1, 74, 64
3, 153840, Note_on_c, 1, 69, 80
3, 154080, Note_off_c, 1, 69, 64
3, 154080, Note_on_c, 1, 73, 80
3, 154320, Note_off_c, 1, 73, 64
3, 154320, Note_on_c, 1, 67, 80
3, 154560, Note_off_c, 1, 67, 64
3, 154560, Note_on_c, 1, 74, 80
3, 154560, Note_on_c, 1, 66, 80
3, 154800, Note_off_c, 1, 66, 64
3, 154800, Note_off_c, 1, 74, 64
3, 173760, Note_on_c, 1, 74, 80
3, 173760, Note_on_c, 1, 67, 80
3, 174000, Note_off_c, 1, 67, 64
3, 174000, Note_on_c, 1, 62, 80
3, 174240, Note_off_c, 1, 62, 64
3, 174240, Note_on_c, 1, 67, 80
3, 174480, Note_off_c, 1, 67, 64
3, 174480, Note_on_c, 1, 69, 80
3, 174720, Note_off_c, 1, 69, 64
3, 174720, Note_off_c, 1, 74, 64
3, 174720, Note_on_c, 1, 74, 80
3, 174720, Note_on_c, 1, 71, 80
3, 175080, Note_off_c, 1, 71, 64
3, 175080, Note_on_c, 1, 69, 80
3, 175200, Note_off_c, 1, 69, 64
3, 175200, Note_off_c, 1, 74, 64
3, 175200, Note_on_c, 1, 67, 80
3, 175320, Note_off_c, 1, 67, 64
3, 175320, Note_on_c, 1, 69, 80
3, 175440, Note_off_c, 1, 69, 64
3, 175440, Note_on_c, 1, 71, 80
3, 175440, Note_on_c, 1, 67, 80
3, 175560, Note_off_c, 1, 67, 64
3, 175560, Note_off_c, 1, 71, 64
3, 175560, Note_on_c, 1, 72, 80
3, 175560, Note_on_c, 1, 69, 80
3, 175680, Note_off_c, 1, 69, 64
3, 175680, Note_off_c, 1, 72, 64
3, 175680, Note_on_c, 1, 74, 80
3, 175680, Note_on_c, 1, 71, 80
3, 175920, Note_off_c, 1, 71, 64
3, 175920, Note_off_c, 1, 74, 64
3, 175920, Note_on_c, 1, 74, 80
3, 175920, Note_on_c, 1, 71, 80
3, 176160, Note_off_c, 1, 71, 64
3, 176160, Note_off_c, 1, 74, 64
3, 176160, Note_on_c, 1, 72, 80
3, 176160, Note_on_c, 1, 69, 80
3, 176400, Note_off_c, 1, 69, 64
3, 176400, Note_off_c, 1, 72, 64
3, 176400, Note_on_c, 1, 71, 80
3, 176400, Note_on_c, 1, 67, 80
3, 176640, Note_off_c, 1, 67, 64
3, 176640, Note_off_c, 1, 71, 64
3, 176640, Note_on_c, 1, 69, 80
3, 176640, Note_on_c, 1, 66, 80
3, 176880, Note_off_c, 1, 66, 64
3, 176880, Note_off_c, 1, 69, 64
3, 187920, Note_on_c, 1, 72, 80
3, 188160, Note_off_c, 1, 72, 64
3, 188160, Note_on_c, 1, 71, 80
3, 188400, Note_off_c, 1, 71, 64
3, 189840, Note_on_c, 1, 78, 80
3, 190080, Note_off_c, 1, 78, 64
3, 190080, Note_on_c, 1, 79, 80
3, 190320, Note_off_c, 1, 79, 64
3, 215040, Note_on_c, 1, 71, 80
3, 215040, Note_on_c, 1, 67, 80
3, 215280, Note_off_c, 1, 67, 64
3, 215280, Note_off_c, 1, 71, 64
3, 217200, Note_on_c, 1, 74, 84
3, 217200, Note_on_c, 1, 71, 77
3, 217680, Note_off_c, 1, 71, 64
3, 217680, Note_off_c, 1, 74, 64
3, 217680, Note_on_c, 1, 72, 45
3, 217680, Note_on_c, 1, 69, 61
3, 217800, Note_off_c, 1, 69, 64
3, 217800, Note_off_c, 1, 72, 64
3, 217920, Note_on_c, 1, 71, 73
3, 217920, Note_on_c, 1, 67, 71
3, 218040, Note_off_c, 1, 67, 64
3, 218040, Note_off_c, 1, 71, 64
3, 218160, Note_on_c, 1, 83, 43
3, 218160, Note_on_c, 1, 74, 85
3, 218640, Note_off_c, 1, 74, 64
3, 218640, Note_off_c, 1, 83, 64
3, 218640, Note_on_c, 1, 81, 73
3, 218640, Note_on_c, 1, 72, 56
3, 218760, Note_off_c, 1, 72, 64
3, 218760, Note_off_c, 1, 81, 64
3, 218880, Note_on_c, 1, 79, 50
3, 218880, Note_on_c, 1, 71, 71
3, 219000, Note_off_c, 1, 71, 64
3, 219000, Note_off_c, 1, 79, 64
3, 219120, Note_on_c, 1, 83, 74
3, 219600, Note_off_c, 1, 83, 64
3, 219600, Note_on_c, 1, 81, 71
3, 219720, Note_off_c, 1, 81, 64
3, 219840, Note_on_c, 1, 79, 65
3, 219960, Note_off_c, 1, 79, 64
3, 220080, Note_on_c, 1, 78, 54
3, 220200, Note_off_c, 1, 78, 64
3, 220320, Note_on_c, 1, 74, 74
3, 220440, Note_off_c, 1, 74, 64
3, 220560, Note_on_c, 1, 78, 69
3, 220680, Note_off_c, 1, 78, 64
3, 220800, Note_on_c, 1, 79, 65
3, 220920, Note_off_c, 1, 79, 64
3, 226560, Note_on_c, 1, 74, 80
3, 226560, Note_on_c, 1, 67, 80
3, 227040, Note_off_c, 1, 67, 64
3, 227040, Note_off_c, 1, 74, 64
3, 227040, Note_on_c, 1, 79, 80
3, 227160, Note_off_c, 1, 79, 64
3, 227280, Note_on_c, 1, 79, 80
3, 227400, Note_off_c, 1, 79, 64
3, 227520, Note_on_c, 1, 79, 74
3, 227520, Note_on_c, 1, 76, 90
3, 227640, Note_off_c, 1, 76, 64
3, 227640, Note_off_c, 1, 79, 64
3, 227640, Note_on_c, 1, 77, 93
3, 227760, Note_off_c, 1, 77, 64
3, 227760, Note_on_c, 1, 76, 94
3, 227880, Note_off_c, 1, 76, 64
3, 227880, Note_on_c, 1, 74, 94
3, 228000, Note_off_c, 1, 74, 64
3, 228000, Note_on_c, 1, 73, 86
3, 228120, Note_off_c, 1, 73, 64
3, 228120, Note_on_c, 1, 70, 89
3, 228240, Note_off_c, 1, 70, 64
3, 228240, Note_on_c, 1, 69, 93
3, 228360, Note_off_c, 1, 69, 64
3, 228360, Note_on_c, 1, 67, 86
3, 228480, Note_off_c, 1, 67, 64
3, 228480, Note_on_c, 1, 77, 72
3, 228480, Note_on_c, 1, 65, 58
3, 228960, Note_off_c, 1, 65, 64
3, 228960, Note_off_c, 1, 77, 64
3, 228960, Note_on_c, 1, 77, 66
3, 228960, Note_on_c, 1, 69, 94
3, 229080, Note_off_c, 1, 69, 64
3, 229080, Note_off_c, 1, 77, 64
3, 229200, Note_on_c, 1, 77, 74
3, 229200, Note_on_c, 1, 69, 94
3, 229320, Note_off_c, 1, 69, 64
3, 229320, Note_off_c, 1, 77, 64
3, 229440, Note_on_c, 1, 77, 80
3, 229440, Note_on_c, 1, 74, 95
3, 229560, Note_off_c, 1, 74, 64
3, 229560, Note_off_c, 1, 77, 64
3, 229560, Note_on_c, 1, 76, 99
3, 229680, Note_off_c, 1, 76, 64
3, 229680, Note_on_c, 1, 74, 95
3, 229800, Note_off_c, 1, 74, 64
3, 229800, Note_on_c, 1, 72, 86
3, 229920, Note_off_c, 1, 72, 64
3, 229920, Note_on_c, 1, 74, 89
3, 229920, Note_on_c, 1, 71, 86
3, 230040, Note_off_c, 1, 71, 64
3, 230040, Note_off_c, 1, 74, 64
3, 230040, Note_on_c, 1, 69, 86
3, 230160, Note_off_c, 1, 69, 64
3, 230160, Note_on_c, 1, 74, 90
3, 230160, Note_on_c, 1, 67, 62
3, 230280, Note_off_c, 1, 67, 64
3, 230280, Note_off_c, 1, 74, 64
3, 230280, Note_on_c, 1, 65, 81
3, 230400, Note_off_c, 1, 65, 64
3, 230400, Note_on_c, 1, 76, 62
3, 230400, Note_on_c, 1, 64, 71
3, 230520, Note_off_c, 1, 64, 64
3, 230520, Note_off_c, 1, 76, 64
3, 230520, Note_on_c, 1, 77, 82
3, 230640, Note_off_c, 1, 77, 64
3, 230640, Note_on_c, 1, 76, 95
3, 230760, Note_off_c, 1, 76, 64
3, 230760, Note_on_c, 1, 74, 104
3, 230880, Note_off_c, 1, 74, 64
3, 230880, Note_on_c, 1, 72, 81
3, 231000, Note_off_c, 1, 72, 64
3, 231000, Note_on_c, 1, 71, 94
3, 231120, Note_off_c, 1, 71, 64
3, 231120, Note_on_c, 1, 69, 95
3, 231240, Note_off_c, 1, 69, 64
3, 231240, Note_on_c, 1, 67, 84
3, 231360, Note_off_c, 1, 67, 64
3, 231360, Note_on_c, 1, 69, 84
3, 231360, Note_on_c, 1, 66, 89
3, 231840, Note_off_c, 1, 66, 64
3, 231840, Note_off_c, 1, 69, 64
3, 231840, Note_on_c, 1, 81, 73
3, 231840, Note_on_c, 1, 78, 72
3, 231960, Note_off_c, 1, 78, 64
3, 231960, Note_off_c, 1, 81, 64
3, 232080, Note_on_c, 1, 81, 64
3, 232080, Note_on_c, 1, 78, 78
3, 232200, Note_off_c, 1, 78, 64
3, 232200, Note_off_c, 1, 81, 64
3, 232320, Note_on_c, 1, 83, 68
3, 232320, Note_on_c, 1, 79, 90
3, 233280, Note_off_c, 1, 79, 64
3, 233280, Note_off_c, 1, 83, 64
3, 233280, Note_on_c, 1, 83, 58
3, 233280, Note_on_c, 1, 80, 85
3, 233760, Note_off_c, 1, 80, 64
3, 233760, Note_off_c, 1, 83, 64
3, 233760, Note_on_c, 1, 83, 84
3, 233760, Note_on_c, 1, 80, 76
3, 233880, Note_off_c, 1, 80, 64
3, 233880, Note_off_c, 1, 83, 64
3, 234000, Note_on_c, 1, 83, 90
3, 234000, Note_on_c, 1, 80, 80
3, 234120, Note_off_c, 1, 80, 64
3, 234120, Note_off_c, 1, 83, 64
3, 234240, Note_on_c, 1, 84, 76
3, 234240, Note_on_c, 1, 81, 86
3, 234360, Note_off_c, 1, 81, 64
3, 234360, Note_off_c, 1, 84, 64
3, 234360, Note_on_c, 1, 75, 76
3, 234480, Note_off_c, 1, 75, 64
3, 234480, Note_on_c, 1, 76, 95
3, 234600, Note_off_c, 1, 76, 64
3, 234600, Note_on_c, 1, 71, 86
3, 234720, Note_off_c, 1, 71, 64
3, 234720, Note_on_c, 1, 72, 81
3, 234840, Note_off_c, 1, 72, 64
3, 234840, Note_on_c, 1, 71, 81
3, 234960, Note_off_c, 1, 71, 64
3, 234960, Note_on_c, 1, 72, 89
3, 235080, Note_off_c, 1, 72, 64
3, 235080, Note_on_c, 1, 68, 84
3, 235200, Note_off_c, 1, 68, 64
3, 235200, Note_on_c, 1, 69, 84
3, 235320, Note_off_c, 1, 69, 64
3, 235320, Note_on_c, 1, 71, 86
3, 235440, Note_off_c, 1, 71, 64
3, 235440, Note_on_c, 1, 72, 80
3, 235560, Note_off_c, 1, 72, 64
3, 235560, Note_on_c, 1, 71, 93
3, 235680, Note_off_c, 1, 71, 64
3, 235680, Note_on_c, 1, 69, 89
3, 235800, Note_off_c, 1, 69, 64
3, 235800, Note_on_c, 1, 67, 84
3, 235920, Note_off_c, 1, 67, 64
3, 235920, Note_on_c, 1, 66, 89
3, 236040, Note_off_c, 1, 66, 64
3, 236040, Note_on_c, 1, 64, 86
3, 236160, Note_off_c, 1, 64, 64
3, 236160, Note_on_c, 1, 62, 77
3, 236640, Note_off_c, 1, 62, 64
3, 236640, Note_on_c, 1, 83, 82
3, 236640, Note_on_c, 1, 79, 84
3, 237120, Note_off_c, 1, 79, 64
3, 237120, Note_off_c, 1, 83, 64
3, 237120, Note_on_c, 1, 81, 89
3, 237120, Note_on_c, 1, 79, 82
3, 237600, Note_off_c, 1, 79, 64
3, 237600, Note_off_c, 1, 81, 64
3, 237600, Note_on_c, 1, 81, 99
3, 237600, Note_on_c, 1, 78, 82
3, 238080, Note_off_c, 1, 78, 64
3, 238080, Note_off_c, 1, 81, 64
3, 238080, Note_on_c, 1, 79, 69
3, 238080, Note_on_c, 1, 71, 70
3, 238320, Note_off_c, 1, 71, 64
3, 238320, Note_off_c, 1, 79, 64
3, 238320, Note_on_c, 1, 74, 110
3, 238800, Note_off_c, 1, 74, 64
3, 238800, Note_on_c, 1, 72, 62
3, 238920, Note_off_c, 1, 72, 64
3, 239040, Note_on_c, 1, 71, 84
3, 239160, Note_off_c, 1, 71, 64
3, 239280, Note_on_c, 1, 83, 99
3, 239760, Note_off_c, 1, 83, 64
3, 239760, Note_on_c, 1, 81, 93
3, 239880, Note_off_c, 1, 81, 64
3, 240000, Note_on_c, 1, 79, 89
3, 240120, Note_off_c, 1, 79, 64
3, 240240, Note_on_c, 1, 83, 110
3, 240240, Note_on_c, 1, 74, 101
3, 240720, Note_off_c, 1, 74, 64
3, 240720, Note_off_c, 1, 83, 64
3, 240720, Note_on_c, 1, 81, 82
3, 240720, Note_on_c, 1, 72, 63
3, 240840, Note_off_c, 1, 72, 64
3, 240840, Note_off_c, 1, 81, 64
3, 240960, Note_on_c, 1, 79, 78
3, 240960, Note_on_c, 1, 71, 94
3, 241080, Note_off_c, 1, 71, 64
3, 241080, Note_off_c, 1, 79, 64
3, 241200, Note_on_c, 1, 79, 68
3, 241200, Note_on_c, 1, 76, 90
3, 241320, Note_off_c, 1, 76, 64
3, 241320, Note_off_c, 1, 79, 64
3, 241440, Note_on_c, 1, 81, 76
3, 241440, Note_on_c, 1, 76, 93
3, 241560, Note_off_c, 1, 76, 64
3, 241560, Note_off_c, 1, 81, 64
3, 241680, Note_on_c, 1, 78, 81
3, 241680, Note_on_c, 1, 72, 62
3, 241800, Note_off_c, 1, 72, 64
3, 241800, Note_off_c, 1, 78, 64
3, 241920, Note_on_c, 1, 79, 84
3, 241920, Note_on_c, 1, 71, 82
3, 242160, Note_off_c, 1, 71, 64
3, 242160, Note_off_c, 1, 79, 64
3, 242400, Note_on_c, 1, 81, 85
3, 242400, Note_on_c, 1, 78, 84
3, 242640, Note_off_c, 1, 78, 64
3, 242640, Note_off_c, 1, 81, 64
3, 242880, Note_on_c, 1, 83, 81
3, 242880, Note_on_c, 1, 79, 95
3, 243120, Note_off_c, 1, 79, 64
3, 243120, Note_off_c, 1, 83, 64
3, 243360, Note_on_c, 1, 81, 80
3, 243360, Note_on_c, 1, 78, 84
3, 243600, Note_off_c, 1, 78, 64
3, 243600, Note_off_c, 1, 81, 64
3, 243840, Note_on_c, 1, 83, 62
3, 243840, Note_on_c, 1, 79, 84
3, 244080, Note_off_c, 1, 79, 64
3, 244080, Note_off_c, 1, 83, 64
3, 244260, Note_on_c, 1, 79, 80
3, 244320, Note_off_c, 1, 79, 64
3, 244320, Note_on_c, 1, 79, 80
3, 244560, Note_off_c, 1, 79, 64
3, 244740, Note_on_c, 1, 67, 80
3, 244800, Note_off_c, 1, 67, 64
3, 244800, Note_on_c, 1, 67, 80
3, 245040, Note_off_c, 1, 67, 64
3, 246720, Note_on_c, 1, 79, 62
3, 247680, Note_off_c, 1, 79, 64
3, 247680, Note_on_c, 1, 79, 50
3, 248640, Note_off_c, 1, 79, 64
3, 248640, Note_on_c, 1, 77, 56
3, 249120, Note_off_c, 1, 77, 64
3, 249120, Note_on_c, 1, 75, 63
3, 249600, Note_off_c, 1, 75, 64
3, 249600, Note_on_c, 1, 74, 80
3, 249600, Note_on_c, 1, 65, 80
3, 250080, Note_off_c, 1, 65, 64
3, 250080, Note_off_c, 1, 74, 64
3, 250080, Note_on_c, 1, 77, 73
3, 250080, Note_on_c, 1, 74, 90
3, 250200, Note_off_c, 1, 74, 64
3, 250200, Note_off_c, 1, 77, 64
3, 250320, Note_on_c, 1, 77, 80
3, 250320, Note_on_c, 1, 74, 94
3, 250440, Note_off_c, 1, 74, 64
3, 250440, Note_off_c, 1, 77, 64
3, 250560, Note_on_c, 1, 79, 80
3, 250560, Note_on_c, 1, 75, 80
3, 250800, Note_off_c, 1, 75, 64
3, 250800, Note_off_c, 1, 79, 64
3, 251520, Note_on_c, 1, 84, 80
3, 251520, Note_on_c, 1, 75, 80
3, 251760, Note_off_c, 1, 75, 64
3, 251760, Note_off_c, 1, 84, 64
3, 252480, Note_on_c, 1, 82, 80
3, 252480, Note_on_c, 1, 75, 80
3, 252720, Note_off_c, 1, 75, 64
3, 252720, Note_off_c, 1, 82, 64
3, 253440, Note_on_c, 1, 80, 80
3, 253440, Note_on_c, 1, 77, 80
3, 253680, Note_off_c, 1, 77, 64
3, 253680, Note_off_c, 1, 80, 64
3, 253920, Note_on_c, 1, 80, 80
3, 253920, Note_on_c, 1, 77, 80
3, 254160, Note_off_c, 1, 77, 64
3, 254160, Note_off_c, 1, 80, 64
3, 254400, Note_on_c, 1, 79, 80
3, 254400, Note_on_c, 1, 75, 80
3, 254640, Note_off_c, 1, 75, 64
3, 254640, Note_off_c, 1, 79, 64
3, 254640, Control_c, 1, 7, 96
3, 254640, Control_c, 1, 10, 64
3, 254640, Control_c, 1, 93, 0
3, 254640, Control_c, 1, 91, 66
3, 266160, Control_c, 1, 7, 96
3, 266160, Control_c, 1, 10, 64
3, 266160, Control_c, 1, 93, 0
3, 266160, Control_c, 1, 91, 66
3, 266400, Control_c, 1, 7, 96
3, 266400, Control_c, 1, 10, 64
3, 266400, Control_c, 1, 93, 0
3, 266400, Control_c, 1, 91, 66
3, 266640, Control_c, 1, 7, 96
3, 266640, Control_c, 1, 10, 64
3, 266640, Control_c, 1, 93, 0
3, 266640, Control_c, 1, 91, 66
3, 266880, Control_c, 1, 7, 96
3, 266880, Control_c, 1, 10, 64
3, 266880, Control_c, 1, 93, 0
3, 266880, Control_c, 1, 91, 66
3, 267120, Control_c, 1, 7, 96
3, 267120, Control_c, 1, 10, 64
3, 267120, Control_c, 1, 93, 0
3, 267120, Control_c, 1, 91, 66
3, 267360, Control_c, 1, 7, 96
3, 267360, Control_c, 1, 10, 64
3, 267360, Control_c, 1, 93, 0
3, 267360, Control_c, 1, 91, 66
3, 267600, Control_c, 1, 7, 96
3, 267600, Control_c, 1, 10, 64
3, 267600, Control_c, 1, 93, 0
3, 267600, Control_c, 1, 91, 66
3, 280320, Control_c, 1, 7, 96
3, 280320, Control_c, 1, 10, 64
3, 280320, Control_c, 1, 93, 0
3, 280320, Control_c, 1, 91, 66
3, 281280, Note_on_c, 1, 70, 80
3, 281760, Note_off_c, 1, 70, 64
3, 281760, Note_on_c, 1, 82, 67
3, 281880, Note_off_c, 1, 82, 64
3, 282000, Note_on_c, 1, 82, 74
3, 282120, Note_off_c, 1, 82, 64
3, 282240, Note_on_c, 1, 82, 80
3, 282240, Note_on_c, 1, 64, 80
3, 282720, Note_off_c, 1, 64, 64
3, 282720, Note_off_c, 1, 82, 64
3, 282720, Note_on_c, 1, 80, 80
3, 282720, Note_on_c, 1, 76, 80
3, 282960, Note_off_c, 1, 76, 64
3, 282960, Note_off_c, 1, 80, 64
3, 282960, Note_on_c, 1, 79, 80
3, 282960, Note_on_c, 1, 76, 80
3, 283200, Note_off_c, 1, 76, 64
3, 283200, Note_off_c, 1, 79, 64
3, 283200, Note_on_c, 1, 77, 80
3, 283440, Note_off_c, 1, 77, 64
3, 284160, Note_on_c, 1, 68, 80
3, 284160, Note_on_c, 1, 65, 80
3, 284640, Note_off_c, 1, 65, 64
3, 284640, Note_off_c, 1, 68, 64
3, 284640, Note_on_c, 1, 80, 67
3, 284640, Note_on_c, 1, 77, 54
3, 284760, Note_off_c, 1, 77, 64
3, 284760, Note_off_c, 1, 80, 64
3, 284880, Note_on_c, 1, 80, 59
3, 284880, Note_on_c, 1, 77, 40
3, 285000, Note_off_c, 1, 77, 64
3, 285000, Note_off_c, 1, 80, 64
3, 285120, Note_on_c, 1, 80, 80
3, 285120, Note_on_c, 1, 77, 80
3, 285360, Note_off_c, 1, 77, 64
3, 285360, Note_on_c, 1, 75, 80
3, 285600, Note_off_c, 1, 75, 64
3, 285600, Note_on_c, 1, 74, 80
3, 285840, Note_off_c, 1, 74, 64
3, 285840, Note_on_c, 1, 72, 80
3, 286080, Note_off_c, 1, 72, 64
3, 286080, Note_off_c, 1, 80, 64
3, 286080, Note_on_c, 1, 80, 80
3, 286080, Note_on_c, 1, 71, 80
3, 286320, Note_off_c, 1, 71, 64
3, 286320, Note_on_c, 1, 83, 80
3, 286560, Note_off_c, 1, 83, 64
3, 286560, Note_off_c, 1, 80, 64
3, 286560, Note_on_c, 1, 83, 80
3, 286560, Note_on_c, 1, 79, 80
3, 286800, Note_off_c, 1, 79, 64
3, 286800, Note_off_c, 1, 83, 64
3, 286800, Note_on_c, 1, 83, 80
3, 286800, Note_on_c, 1, 77, 80
3, 287040, Note_off_c, 1, 77, 64
3, 287040, Note_off_c, 1, 83, 64
3, 287040, Note_on_c, 1, 84, 80
3, 287040, Note_on_c, 1, 75, 80
3, 287280, Note_off_c, 1, 75, 64
3, 287280, Note_off_c, 1, 84, 64
3, 288000, Note_on_c, 1, 72, 80
3, 288480, Note_off_c, 1, 72, 64
3, 288480, Note_on_c, 1, 84, 77
3, 288480, Note_on_c, 1, 72, 80
3, 288600, Note_off_c, 1, 84, 64
3, 288720, Note_on_c, 1, 84, 77
3, 288840, Note_off_c, 1, 84, 64
3, 288960, Note_off_c, 1, 72, 64
3, 288960, Note_on_c, 1, 84, 80
3, 288960, Note_on_c, 1, 72, 80
3, 289440, Note_off_c, 1, 72, 64
3, 289440, Note_on_c, 1, 75, 80
3, 289680, Note_off_c, 1, 75, 64
3, 289680, Note_on_c, 1, 75, 80
3, 289920, Note_off_c, 1, 75, 64
3, 289920, Note_off_c, 1, 84, 64
3, 289920, Note_on_c, 1, 84, 80
3, 289920, Note_on_c, 1, 75, 80
3, 290400, Note_off_c, 1, 75, 64
3, 290400, Note_off_c, 1, 84, 64
3, 290400, Note_on_c, 1, 83, 80
3, 290400, Note_on_c, 1, 74, 80
3, 290640, Note_off_c, 1, 74, 64
3, 290640, Note_off_c, 1, 83, 64
3, 290640, Note_on_c, 1, 81, 80
3, 290640, Note_on_c, 1, 72, 80
3, 290880, Note_off_c, 1, 72, 64
3, 290880, Note_off_c, 1, 81, 64
3, 290880, Note_on_c, 1, 79, 80
3, 290880, Note_on_c, 1, 71, 80
3, 291120, Note_off_c, 1, 71, 64
3, 291120, Note_off_c, 1, 79, 64
3, 291360, Note_on_c, 1, 79, 65
3, 291480, Note_off_c, 1, 79, 64
3, 291600, Note_on_c, 1, 79, 72
3, 291720, Note_off_c, 1, 79, 64
3, 291840, Note_on_c, 1, 79, 80
3, 292320, Note_off_c, 1, 79, 64
3, 292320, Note_on_c, 1, 77, 80
3, 292440, Note_off_c, 1, 77, 64
3, 292440, Note_on_c, 1, 75, 80
3, 292560, Note_off_c, 1, 75, 64
3, 292560, Note_on_c, 1, 74, 80
3, 292680, Note_off_c, 1, 74, 64
3, 292680, Note_on_c, 1, 72, 80
3, 292800, Note_off_c, 1, 72, 64
3, 292800, Note_on_c, 1, 71, 80
3, 293040, Note_off_c, 1, 71, 64
3, 294840, Note_on_c, 1, 78, 80
3, 294960, Note_off_c, 1, 78, 64
3, 294960, Note_on_c, 1, 79, 80
3, 295080, Note_off_c, 1, 79, 64
3, 295080, Note_on_c, 1, 78, 80
3, 295200, Note_off_c, 1, 78, 64
3, 295200, Note_on_c, 1, 79, 80
3, 295320, Note_off_c, 1, 79, 64
3, 295320, Note_on_c, 1, 78, 80
3, 295440, Note_off_c, 1, 78, 64
3, 295440, Note_on_c, 1, 79, 80
3, 295560, Note_off_c, 1, 79, 64
3, 295560, Note_on_c, 1, 78, 80
3, 295680, Note_off_c, 1, 78, 64
3, 295680, Note_on_c, 1, 79, 80
3, 296160, Note_off_c, 1, 79, 64
3, 296160, Note_on_c, 1, 77, 80
3, 296280, Note_off_c, 1, 77, 64
3, 296280, Note_on_c, 1, 75, 80
3, 296400, Note_off_c, 1, 75, 64
3, 296400, Note_on_c, 1, 74, 80
3, 296520, Note_off_c, 1, 74, 64
3, 296520, Note_on_c, 1, 72, 80
3, 296640, Note_off_c, 1, 72, 64
3, 296640, Note_on_c, 1, 71, 80
3, 296800, Note_off_c, 1, 71, 64
3, 310800, Control_c, 1, 7, 96
3, 310800, Control_c, 1, 10, 64
3, 310800, Control_c, 1, 93, 0
3, 310800, Control_c, 1, 91, 66
3, 311040, Control_c, 1, 7, 96
3, 311040, Control_c, 1, 10, 64
3, 311040, Control_c, 1, 93, 0
3, 311040, Control_c, 1, 91, 66
3, 311280, Control_c, 1, 7, 96
3, 311280, Control_c, 1, 10, 64
3, 311280, Control_c, 1, 93, 0
3, 311280, Control_c, 1, 91, 66
3, 311520, Control_c, 1, 7, 96
3, 311520, Control_c, 1, 10, 64
3, 311520, Control_c, 1, 93, 0
3, 311520, Control_c, 1, 91, 66
3, 311760, Control_c, 1, 7, 96
3, 311760, Control_c, 1, 10, 64
3, 311760, Control_c, 1, 93, 0
3, 311760, Control_c, 1, 91, 66
3, 312000, Control_c, 1, 7, 96
3, 312000, Control_c, 1, 10, 64
3, 312000, Control_c, 1, 93, 0
3, 312000, Control_c, 1, 91, 66
3, 312240, Control_c, 1, 7, 96
3, 312240, Control_c, 1, 10, 64
3, 312240, Control_c, 1, 93, 0
3, 312240, Control_c, 1, 91, 66
3, 312480, Control_c, 1, 7, 96
3, 312480, Control_c, 1, 10, 64
3, 312480, Control_c, 1, 93, 0
3, 312480, Control_c, 1, 91, 66
3, 312720, Control_c, 1, 7, 96
3, 312720, Control_c, 1, 10, 64
3, 312720, Control_c, 1, 93, 0
3, 312720, Control_c, 1, 91, 66
3, 330240, Note_on_c, 1, 77, 80
3, 330240, Note_on_c, 1, 71, 80
3, 331200, Note_off_c, 1, 71, 64
3, 331200, Note_off_c, 1, 77, 64
3, 331200, Note_on_c, 1, 76, 80
3, 331200, Note_on_c, 1, 72, 80
3, 331680, Note_off_c, 1, 72, 64
3, 331680, Note_off_c, 1, 76, 64
3, 331680, Note_on_c, 1, 84, 101
3, 331680, Note_on_c, 1, 76, 110
3, 331800, Note_off_c, 1, 76, 64
3, 331800, Note_off_c, 1, 84, 64
3, 331920, Note_on_c, 1, 84, 99
3, 331920, Note_on_c, 1, 76, 110
3, 332040, Note_off_c, 1, 76, 64
3, 332040, Note_off_c, 1, 84, 64
3, 332160, Note_on_c, 1, 84, 125
3, 332160, Note_on_c, 1, 76, 127
3, 332400, Note_off_c, 1, 76, 64
3, 332400, Note_off_c, 1, 84, 64
3, 333120, Note_on_c, 1, 79, 125
3, 333120, Note_on_c, 1, 72, 119
3, 333240, Note_off_c, 1, 72, 64
3, 333240, Note_off_c, 1, 79, 64
3, 333360, Note_on_c, 1, 79, 125
3, 333360, Note_on_c, 1, 74, 119
3, 333480, Note_off_c, 1, 74, 64
3, 333480, Note_off_c, 1, 79, 64
3, 333600, Note_on_c, 1, 84, 123
3, 333600, Note_on_c, 1, 76, 127
3, 333720, Note_off_c, 1, 76, 64
3, 333720, Note_off_c, 1, 84, 64
3, 333840, Note_on_c, 1, 86, 127
3, 333840, Note_on_c, 1, 77, 123
3, 333960, Note_off_c, 1, 77, 64
3, 333960, Note_off_c, 1, 86, 64
3, 334080, Note_on_c, 1, 84, 125
3, 334080, Note_on_c, 1, 76, 127
3, 334200, Note_off_c, 1, 76, 64
3, 334200, Note_off_c, 1, 84, 64
3, 334320, Note_on_c, 1, 83, 123
3, 334320, Note_on_c, 1, 74, 127
3, 334440, Note_off_c, 1, 74, 64
3, 334440, Note_off_c, 1, 83, 64
3, 335040, Note_on_c, 1, 74, 127
3, 335040, Note_on_c, 1, 71, 125
3, 335520, Note_off_c, 1, 71, 64
3, 335520, Note_off_c, 1, 74, 64
3, 335520, Note_on_c, 1, 86, 127
3, 335520, Note_on_c, 1, 83, 125
3, 335640, Note_off_c, 1, 83, 64
3, 335640, Note_off_c, 1, 86, 64
3, 335760, Note_on_c, 1, 86, 127
3, 335760, Note_on_c, 1, 83, 127
3, 335880, Note_off_c, 1, 83, 64
3, 335880, Note_off_c, 1, 86, 64
3, 336000, Note_on_c, 1, 86, 127
3, 336000, Note_on_c, 1, 83, 125
3, 336240, Note_off_c, 1, 83, 64
3, 336240, Note_off_c, 1, 86, 64
3, 336960, Note_on_c, 1, 79, 123
3, 336960, Note_on_c, 1, 67, 125
3, 337080, Note_off_c, 1, 67, 64
3, 337080, Note_off_c, 1, 79, 64
3, 337200, Note_on_c, 1, 79, 127
3, 337200, Note_on_c, 1, 72, 125
3, 337320, Note_off_c, 1, 72, 64
3, 337320, Note_off_c, 1, 79, 64
3, 337440, Note_on_c, 1, 83, 127
3, 337440, Note_on_c, 1, 74, 127
3, 337560, Note_off_c, 1, 74, 64
3, 337560, Note_off_c, 1, 83, 64
3, 337680, Note_on_c, 1, 84, 123
3, 337680, Note_on_c, 1, 76, 125
3, 337800, Note_off_c, 1, 76, 64
3, 337800, Note_off_c, 1, 84, 64
3, 337920, Note_on_c, 1, 86, 127
3, 337920, Note_on_c, 1, 77, 125
3, 338040, Note_off_c, 1, 77, 64
3, 338040, Note_off_c, 1, 86, 64
3, 338160, Note_on_c, 1, 84, 125
3, 338160, Note_on_c, 1, 76, 127
3, 338280, Note_off_c, 1, 76, 64
3, 338280, Note_off_c, 1, 84, 64
3, 347040, Note_on_c, 1, 77, 80
3, 347040, Note_on_c, 1, 74, 82
3, 347160, Note_off_c, 1, 74, 64
3, 347160, Note_off_c, 1, 77, 64
3, 347280, Note_on_c, 1, 77, 70
3, 347280, Note_on_c, 1, 74, 80
3, 347400, Note_off_c, 1, 74, 64
3, 347400, Note_off_c, 1, 77, 64
3, 347520, Note_on_c, 1, 76, 76
3, 347520, Note_on_c, 1, 72, 58
3, 347640, Note_off_c, 1, 72, 64
3, 347640, Note_off_c, 1, 76, 64
3, 347760, Note_on_c, 1, 76, 76
3, 347760, Note_on_c, 1, 72, 67
3, 347880, Note_off_c, 1, 72, 64
3, 347880, Note_off_c, 1, 76, 64
3, 348000, Note_on_c, 1, 84, 69
3, 348000, Note_on_c, 1, 76, 78
3, 348120, Note_off_c, 1, 76, 64
3, 348120, Note_off_c, 1, 84, 64
3, 348240, Note_on_c, 1, 84, 45
3, 348240, Note_on_c, 1, 76, 73
3, 348360, Note_off_c, 1, 76, 64
3, 348360, Note_off_c, 1, 84, 64
3, 348480, Note_on_c, 1, 83, 62
3, 348480, Note_on_c, 1, 74, 57
3, 348600, Note_off_c, 1, 74, 64
3, 348600, Note_off_c, 1, 83, 64
3, 348960, Note_on_c, 1, 77, 65
3, 348960, Note_on_c, 1, 74, 72
3, 349080, Note_off_c, 1, 74, 64
3, 349080, Note_off_c, 1, 77, 64
3, 349200, Note_on_c, 1, 77, 68
3, 349200, Note_on_c, 1, 74, 76
3, 349320, Note_off_c, 1, 74, 64
3, 349320, Note_off_c, 1, 77, 64
3, 349440, Note_on_c, 1, 75, 78
3, 349440, Note_on_c, 1, 72, 72
3, 349560, Note_off_c, 1, 72, 64
3, 349560, Note_off_c, 1, 75, 64
3, 349680, Note_on_c, 1, 75, 73
3, 349680, Note_on_c, 1, 72, 72
3, 349800, Note_off_c, 1, 72, 64
3, 349800, Note_off_c, 1, 75, 64
3, 349920, Note_on_c, 1, 84, 64
3, 349920, Note_on_c, 1, 75, 73
3, 350040, Note_off_c, 1, 75, 64
3, 350040, Note_off_c, 1, 84, 64
3, 350160, Note_on_c, 1, 84, 68
3, 350160, Note_on_c, 1, 75, 80
3, 350280, Note_off_c, 1, 75, 64
3, 350280, Note_off_c, 1, 84, 64
3, 350400, Note_on_c, 1, 83, 68
3, 350400, Note_on_c, 1, 74, 86
3, 350520, Note_off_c, 1, 74, 64
3, 350520, Note_off_c, 1, 83, 64
3, 354240, Note_on_c, 1, 76, 53
3, 354240, Note_on_c, 1, 67, 43
3, 355200, Note_off_c, 1, 67, 64
3, 355200, Note_off_c, 1, 76, 64
3, 355200, Note_on_c, 1, 77, 61
3, 355200, Note_on_c, 1, 67, 50
3, 356160, Note_off_c, 1, 67, 64
3, 356160, Note_off_c, 1, 77, 64
3, 356160, Note_on_c, 1, 79, 42
3, 356160, Note_on_c, 1, 67, 40
3, 356400, Note_off_c, 1, 67, 64
3, 356400, Note_off_c, 1, 79, 64
3, 356400, Note_on_c, 1, 79, 50
3, 356400, Note_on_c, 1, 67, 45
3, 356640, Note_off_c, 1, 67, 64
3, 356640, Note_off_c, 1, 79, 64
3, 356880, Note_on_c, 1, 76, 54
3, 356880, Note_on_c, 1, 72, 54
3, 357120, Note_off_c, 1, 72, 64
3, 357120, Note_off_c, 1, 76, 64
3, 357360, Note_on_c, 1, 74, 53
3, 357360, Note_on_c, 1, 71, 62
3, 357600, Note_off_c, 1, 71, 64
3, 357600, Note_off_c, 1, 74, 64
3, 358080, Note_on_c, 1, 74, 74
3, 358080, Note_on_c, 1, 71, 69
3, 359040, Note_off_c, 1, 71, 64
3, 359040, Note_off_c, 1, 74, 64
3, 359040, Note_on_c, 1, 72, 59
3, 359040, Note_on_c, 1, 69, 65
3, 359760, Note_off_c, 1, 69, 64
3, 359760, Note_off_c, 1, 72, 64
3, 359760, Note_on_c, 1, 84, 57
3, 359760, Note_on_c, 1, 76, 65
3, 359880, Note_off_c, 1, 76, 64
3, 359880, Note_off_c, 1, 84, 64
3, 359880, Note_on_c, 1, 81, 57
3, 359880, Note_on_c, 1, 72, 55
3, 360000, Note_off_c, 1, 72, 64
3, 360000, Note_off_c, 1, 81, 64
3, 360000, Note_on_c, 1, 79, 46
3, 360000, Note_on_c, 1, 71, 58
3, 360480, Note_off_c, 1, 71, 64
3, 360480, Note_off_c, 1, 79, 64
3, 360480, Note_on_c, 1, 78, 40
3, 360480, Note_on_c, 1, 72, 72
3, 360960, Note_off_c, 1, 72, 64
3, 360960, Note_off_c, 1, 78, 64
3, 360960, Note_on_c, 1, 79, 40
3, 360960, Note_on_c, 1, 71, 61
3, 361200, Note_off_c, 1, 71, 64
3, 361200, Note_off_c, 1, 79, 64
3, 372720, Note_on_c, 1, 75, 47
3, 372960, Note_off_c, 1, 75, 64
3, 372960, Note_on_c, 1, 75, 43
3, 373200, Note_off_c, 1, 75, 64
3, 373200, Note_on_c, 1, 75, 40
3, 373440, Note_off_c, 1, 75, 64
3, 373440, Note_on_c, 1, 75, 53
3, 373920, Note_off_c, 1, 75, 64
3, 373920, Note_on_c, 1, 74, 74
3, 374040, Note_off_c, 1, 74, 64
3, 374040, Note_on_c, 1, 75, 73
3, 374160, Note_off_c, 1, 75, 64
3, 374160, Note_on_c, 1, 77, 57
3, 374280, Note_off_c, 1, 77, 64
3, 374280, Note_on_c, 1, 75, 60
3, 374400, Note_off_c, 1, 75, 64
3, 374400, Note_on_c, 1, 72, 42
3, 374640, Note_off_c, 1, 72, 64
3, 375360, Note_on_c, 1, 72, 50
3, 375840, Note_off_c, 1, 72, 64
3, 375840, Note_on_c, 1, 71, 60
3, 375960, Note_off_c, 1, 71, 64
3, 375960, Note_on_c, 1, 72, 57
3, 376080, Note_off_c, 1, 72, 64
3, 376080, Note_on_c, 1, 73, 58
3, 376200, Note_off_c, 1, 73, 64
3, 376200, Note_on_c, 1, 72, 53
3, 376320, Note_off_c, 1, 72, 64
3, 376320, Note_on_c, 1, 68, 64
3, 376560, Note_off_c, 1, 68, 64
3, 380160, Note_on_c, 1, 72, 43
3, 380160, Note_on_c, 1, 64, 58
3, 380280, Note_off_c, 1, 64, 64
3, 380280, Note_off_c, 1, 72, 64
3, 380400, Note_on_c, 1, 67, 67
3, 380520, Note_off_c, 1, 67, 64
3, 380640, Note_on_c, 1, 72, 63
3, 380640, Note_on_c, 1, 64, 72
3, 380760, Note_off_c, 1, 64, 64
3, 380760, Note_off_c, 1, 72, 64
3, 380880, Note_on_c, 1, 74, 67
3, 380880, Note_on_c, 1, 67, 69
3, 381000, Note_off_c, 1, 67, 64
3, 381000, Note_off_c, 1, 74, 64
3, 381120, Note_on_c, 1, 76, 85
3, 381120, Note_on_c, 1, 72, 90
3, 381480, Note_off_c, 1, 72, 64
3, 381480, Note_off_c, 1, 76, 64
3, 381480, Note_on_c, 1, 74, 53
3, 381480, Note_on_c, 1, 67, 52
3, 381600, Note_off_c, 1, 67, 64
3, 381600, Note_off_c, 1, 74, 64
3, 381600, Note_on_c, 1, 72, 40
3, 381600, Note_on_c, 1, 64, 52
3, 381720, Note_off_c, 1, 64, 64
3, 381720, Note_off_c, 1, 72, 64
3, 381720, Note_on_c, 1, 74, 44
3, 381720, Note_on_c, 1, 67, 64
3, 381840, Note_off_c, 1, 67, 64
3, 381840, Note_off_c, 1, 74, 64
3, 381840, Note_on_c, 1, 76, 43
3, 381840, Note_on_c, 1, 72, 51
3, 381900, Note_off_c, 1, 72, 64
3, 381900, Note_off_c, 1, 76, 64
3, 381960, Note_on_c, 1, 77, 52
3, 381960, Note_on_c, 1, 74, 64
3, 382020, Note_off_c, 1, 74, 64
3, 382020, Note_off_c, 1, 77, 64
3, 382080, Note_on_c, 1, 79, 50
3, 382080, Note_on_c, 1, 76, 68
3, 382200, Note_off_c, 1, 76, 64
3, 382200, Note_off_c, 1, 79, 64
3, 382320, Note_on_c, 1, 79, 56
3, 382320, Note_on_c, 1, 76, 73
3, 382440, Note_off_c, 1, 76, 64
3, 382440, Note_off_c, 1, 79, 64
3, 382560, Note_on_c, 1, 77, 59
3, 382560, Note_on_c, 1, 74, 84
3, 382680, Note_off_c, 1, 74, 64
3, 382680, Note_off_c, 1, 77, 64
3, 382800, Note_on_c, 1, 76, 68
3, 382800, Note_on_c, 1, 72, 55
3, 382920, Note_off_c, 1, 72, 64
3, 382920, Note_off_c, 1, 76, 64
3, 383040, Note_on_c, 1, 74, 72
3, 383040, Note_on_c, 1, 71, 65
3, 383280, Note_off_c, 1, 71, 64
3, 383280, Note_off_c, 1, 74, 64
3, 394320, Note_on_c, 1, 77, 105
3, 394560, Note_off_c, 1, 77, 64
3, 394560, Note_on_c, 1, 76, 85
3, 394800, Note_off_c, 1, 76, 64
3, 396240, Note_on_c, 1, 71, 110
3, 396480, Note_off_c, 1, 71, 64
3, 396480, Note_on_c, 1, 72, 74
3, 396720, Note_off_c, 1, 72, 64
3, 423600, Note_on_c, 1, 76, 78
3, 423600, Note_on_c, 1, 67, 80
3, 424080, Note_off_c, 1, 67, 64
3, 424080, Note_off_c, 1, 76, 64
3, 424080, Note_on_c, 1, 74, 65
3, 424080, Note_on_c, 1, 65, 68
3, 424200, Note_off_c, 1, 65, 64
3, 424200, Note_off_c, 1, 74, 64
3, 424320, Note_on_c, 1, 72, 62
3, 424320, Note_on_c, 1, 64, 80
3, 424440, Note_off_c, 1, 64, 64
3, 424440, Note_off_c, 1, 72, 64
3, 424560, Note_on_c, 1, 79, 77
3, 424560, Note_on_c, 1, 76, 76
3, 425040, Note_off_c, 1, 76, 64
3, 425040, Note_off_c, 1, 79, 64
3, 425040, Note_on_c, 1, 77, 73
3, 425040, Note_on_c, 1, 74, 84
3, 425160, Note_off_c, 1, 74, 64
3, 425160, Note_off_c, 1, 77, 64
3, 425280, Note_on_c, 1, 76, 72
3, 425280, Note_on_c, 1, 72, 54
3, 425400, Note_off_c, 1, 72, 64
3, 425400, Note_off_c, 1, 76, 64
3, 425520, Note_on_c, 1, 79, 86
3, 425520, Note_on_c, 1, 76, 94
3, 426000, Note_off_c, 1, 76, 64
3, 426000, Note_off_c, 1, 79, 64
3, 426000, Note_on_c, 1, 77, 72
3, 426000, Note_on_c, 1, 74, 65
3, 426120, Note_off_c, 1, 74, 64
3, 426120, Note_off_c, 1, 77, 64
3, 426240, Note_on_c, 1, 76, 71
3, 426240, Note_on_c, 1, 72, 55
3, 426360, Note_off_c, 1, 72, 64
3, 426360, Note_off_c, 1, 76, 64
3, 426480, Note_on_c, 1, 74, 77
3, 426480, Note_on_c, 1, 71, 72
3, 426600, Note_off_c, 1, 71, 64
3, 426600, Note_off_c, 1, 74, 64
3, 426720, Note_on_c, 1, 72, 65
3, 426720, Note_on_c, 1, 67, 66
3, 426840, Note_off_c, 1, 67, 64
3, 426840, Note_off_c, 1, 72, 64
3, 426960, Note_on_c, 1, 74, 68
3, 426960, Note_on_c, 1, 71, 65
3, 427080, Note_off_c, 1, 71, 64
3, 427080, Note_off_c, 1, 74, 64
3, 430080, Control_c, 1, 7, 96
3, 430080, Control_c, 1, 10, 64
3, 430080, Control_c, 1, 93, 0
3, 430080, Control_c, 1, 91, 66
3, 431040, Control_c, 1, 7, 96
3, 431040, Control_c, 1, 10, 64
3, 431040, Control_c, 1, 93, 0
3, 431040, Control_c, 1, 91, 66
3, 432960, Note_on_c, 1, 76, 99
3, 432960, Note_on_c, 1, 72, 80
3, 433920, Note_off_c, 1, 72, 64
3, 433920, Note_off_c, 1, 76, 64
3, 433920, Note_on_c, 1, 79, 94
3, 433920, Note_on_c, 1, 76, 86
3, 434880, Note_off_c, 1, 76, 64
3, 434880, Note_off_c, 1, 79, 64
3, 434880, Note_on_c, 1, 81, 98
3, 434880, Note_on_c, 1, 77, 76
3, 435840, Note_off_c, 1, 77, 64
3, 435840, Note_off_c, 1, 81, 64
3, 435840, Note_on_c, 1, 82, 84
3, 435840, Note_on_c, 1, 76, 99
3, 436800, Note_off_c, 1, 76, 64
3, 436800, Note_off_c, 1, 82, 64
3, 436800, Note_on_c, 1, 81, 94
3, 436800, Note_on_c, 1, 77, 80
3, 437040, Note_off_c, 1, 77, 64
3, 437040, Note_off_c, 1, 81, 64
3, 437760, Note_on_c, 1, 83, 90
3, 437760, Note_on_c, 1, 79, 85
3, 438000, Note_off_c, 1, 79, 64
3, 438000, Note_off_c, 1, 83, 64
3, 438720, Note_on_c, 1, 76, 107
3, 438720, Note_on_c, 1, 84, 99
3, 439680, Note_off_c, 1, 84, 64
3, 439680, Note_off_c, 1, 76, 64
3, 439680, Note_on_c, 1, 76, 89
3, 439680, Note_on_c, 1, 84, 74
3, 440640, Note_off_c, 1, 84, 64
3, 440640, Note_off_c, 1, 76, 64
3, 440640, Note_on_c, 1, 76, 105
3, 440640, Note_on_c, 1, 84, 104
3, 441600, Note_off_c, 1, 84, 64
3, 441600, Note_off_c, 1, 76, 64
3, 441600, Note_on_c, 1, 76, 95
3, 441600, Note_on_c, 1, 84, 84
3, 442560, Note_off_c, 1, 84, 64
3, 442560, Note_off_c, 1, 76, 64
3, 442560, Note_on_c, 1, 75, 95
3, 442560, Note_on_c, 1, 84, 104
3, 443520, Note_off_c, 1, 84, 64
3, 443520, Note_off_c, 1, 75, 64
3, 443520, Note_on_c, 1, 84, 90
3, 443520, Note_on_c, 1, 75, 80
3, 443880, Note_off_c, 1, 75, 64
3, 443880, Note_off_c, 1, 84, 64
3, 443940, Note_on_c, 1, 84, 107
3, 443940, Note_on_c, 1, 75, 104
3, 444000, Note_off_c, 1, 75, 64
3, 444000, Note_off_c, 1, 84, 64
3, 444000, Note_on_c, 1, 84, 107
3, 444000, Note_on_c, 1, 75, 99
3, 444360, Note_off_c, 1, 75, 64
3, 444360, Note_off_c, 1, 84, 64
3, 444420, Note_on_c, 1, 75, 98
3, 444420, Note_on_c, 1, 84, 105
3, 444480, Note_off_c, 1, 84, 64
3, 444480, Note_off_c, 1, 75, 64
3, 444480, Note_on_c, 1, 84, 93
3, 444480, Note_on_c, 1, 76, 105
3, 445440, Control_c, 1, 7, 96
3, 445440, Control_c, 1, 10, 64
3, 445440, Control_c, 1, 93, 0
3, 445440, Control_c, 1, 91, 66
3, 445920, Note_off_c, 1, 76, 64
3, 445920, Note_off_c, 1, 84, 64
3, 479520, Note_on_c, 1, 72, 81
3, 479520, Note_on_c, 1, 64, 93
3, 479640, Note_off_c, 1, 64, 64
3, 479640, Note_off_c, 1, 72, 64
3, 479760, Note_on_c, 1, 67, 86
3, 479880, Note_off_c, 1, 67, 64
3, 480000, Note_on_c, 1, 72, 72
3, 480000, Note_on_c, 1, 64, 80
3, 480120, Note_off_c, 1, 64, 64
3, 480120, Note_off_c, 1, 72, 64
3, 480240, Note_on_c, 1, 74, 82
3, 480240, Note_on_c, 1, 67, 69
3, 480360, Note_off_c, 1, 67, 64
3, 480360, Note_off_c, 1, 74, 64
3, 480480, Note_on_c, 1, 76, 105
3, 480480, Note_on_c, 1, 72, 94
3, 480840, Note_off_c, 1, 72, 64
3, 480840, Note_off_c, 1, 76, 64
3, 480840, Note_on_c, 1, 74, 89
3, 480840, Note_on_c, 1, 67, 84
3, 480960, Note_off_c, 1, 67, 64
3, 480960, Note_off_c, 1, 74, 64
3, 480960, Note_on_c, 1, 72, 65
3, 480960, Note_on_c, 1, 64, 70
3, 481080, Note_off_c, 1, 64, 64
3, 481080, Note_off_c, 1, 72, 64
3, 481080, Note_on_c, 1, 74, 84
3, 481080, Note_on_c, 1, 67, 84
3, 481200, Note_off_c, 1, 67, 64
3, 481200, Note_off_c, 1, 74, 64
3, 481200, Note_on_c, 1, 76, 89
3, 481200, Note_on_c, 1, 72, 78
3, 481260, Note_off_c, 1, 72, 64
3, 481260, Note_off_c, 1, 76, 64
3, 481320, Note_on_c, 1, 77, 69
3, 481320, Note_on_c, 1, 74, 89
3, 481380, Note_off_c, 1, 74, 64
3, 481380, Note_off_c, 1, 77, 64
3, 481440, Note_on_c, 1, 79, 52
3, 481440, Note_on_c, 1, 76, 84
3, 481560, Note_off_c, 1, 76, 64
3, 481560, Note_off_c, 1, 79, 64
3, 481680, Note_on_c, 1, 79, 66
3, 481680, Note_on_c, 1, 76, 85
3, 481800, Note_off_c, 1, 76, 64
3, 481800, Note_off_c, 1, 79, 64
3, 481920, Note_on_c, 1, 74, 77
3, 481920, Note_on_c, 1, 67, 78
3, 482040, Note_off_c, 1, 67, 64
3, 482040, Note_off_c, 1, 74, 64
3, 482160, Note_on_c, 1, 74, 81
3, 482160, Note_on_c, 1, 67, 81
3, 482280, Note_off_c, 1, 67, 64
3, 482280, Note_off_c, 1, 74, 64
3, 482400, Note_on_c, 1, 76, 115
3, 482400, Note_on_c, 1, 72, 115
3, 482760, Note_off_c, 1, 72, 64
3, 482760, Note_off_c, 1, 76, 64
3, 482760, Note_on_c, 1, 74, 82
3, 482760, Note_on_c, 1, 67, 80
3, 482880, Note_off_c, 1, 67, 64
3, 482880, Note_off_c, 1, 74, 64
3, 482880, Note_on_c, 1, 72, 68
3, 482880, Note_on_c, 1, 64, 72
3, 483000, Note_off_c, 1, 64, 64
3, 483000, Note_off_c, 1, 72, 64
3, 483000, Note_on_c, 1, 74, 80
3, 483000, Note_on_c, 1, 67, 74
3, 483120, Note_off_c, 1, 67, 64
3, 483120, Note_off_c, 1, 74, 64
3, 483120, Note_on_c, 1, 76, 65
3, 483120, Note_on_c, 1, 72, 70
3, 483180, Note_off_c, 1, 72, 64
3, 483180, Note_off_c, 1, 76, 64
3, 483240, Note_on_c, 1, 77, 53
3, 483240, Note_on_c, 1, 74, 82
3, 483300, Note_off_c, 1, 74, 64
3, 483300, Note_off_c, 1, 77, 64
3, 483360, Note_on_c, 1, 79, 65
3, 483360, Note_on_c, 1, 76, 78
3, 483480, Note_off_c, 1, 76, 64
3, 483480, Note_off_c, 1, 79, 64
3, 483600, Note_on_c, 1, 79, 64
3, 483600, Note_on_c, 1, 76, 81
3, 483720, Note_off_c, 1, 76, 64
3, 483720, Note_off_c, 1, 79, 64
3, 483840, Note_on_c, 1, 74, 65
3, 483840, Note_on_c, 1, 67, 72
3, 483960, Note_off_c, 1, 67, 64
3, 483960, Note_off_c, 1, 74, 64
3, 484080, Note_on_c, 1, 74, 80
3, 484080, Note_on_c, 1, 67, 84
3, 484200, Note_off_c, 1, 67, 64
3, 484200, Note_off_c, 1, 74, 64
3, 484320, Note_on_c, 1, 72, 119
3, 484320, Note_on_c, 1, 60, 119
3, 484800, Note_off_c, 1, 60, 64
3, 484800, Note_off_c, 1, 72, 64
3, 484800, Note_on_c, 1, 84, 125
3, 484800, Note_on_c, 1, 72, 117
3, 484920, Note_off_c, 1, 72, 64
3, 484920, Note_off_c, 1, 84, 64
3, 485040, Note_on_c, 1, 84, 125
3, 485040, Note_on_c, 1, 72, 119
3, 485160, Note_off_c, 1, 72, 64
3, 485160, Note_off_c, 1, 84, 64
3, 485280, Note_on_c, 1, 84, 125
3, 485280, Note_on_c, 1, 72, 125
3, 485520, Note_off_c, 1, 72, 64
3, 485520, Note_off_c, 1, 84, 64
3, 486240, Note_on_c, 1, 64, 127
3, 486720, Note_off_c, 1, 64, 64
3, 486720, Note_on_c, 1, 76, 125
3, 486840, Note_off_c, 1, 76, 64
3, 486960, Note_on_c, 1, 76, 127
3, 487080, Note_off_c, 1, 76, 64
3, 487200, Note_on_c, 1, 76, 127
3, 487440, Note_off_c, 1, 76, 64
3, 488160, Note_on_c, 1, 79, 125
3, 488640, Note_off_c, 1, 79, 64
3, 488760, Note_on_c, 1, 77, 117
3, 488820, Note_off_c, 1, 77, 64
3, 488820, Note_on_c, 1, 76, 125
3, 488880, Note_off_c, 1, 76, 64
3, 488880, Note_on_c, 1, 74, 125
3, 488940, Note_off_c, 1, 74, 64
3, 488940, Note_on_c, 1, 72, 123
3, 489000, Note_off_c, 1, 72, 64
3, 489000, Note_on_c, 1, 71, 125
3, 489060, Note_off_c, 1, 71, 64
3, 489060, Note_on_c, 1, 69, 125
3, 489120, Note_off_c, 1, 69, 64
3, 489120, Note_on_c, 1, 67, 125
3, 489360, Note_off_c, 1, 67, 64
3, 489600, Note_on_c, 1, 83, 119
3, 489600, Note_on_c, 1, 74, 119
3, 489840, Note_off_c, 1, 74, 64
3, 489840, Note_off_c, 1, 83, 64
3, 490080, Note_on_c, 1, 84, 119
3, 490080, Note_on_c, 1, 76, 125
3, 490320, Note_off_c, 1, 76, 64
3, 490320, Note_off_c, 1, 84, 64
3, 490500, Note_on_c, 1, 84, 123
3, 490500, Note_on_c, 1, 76, 119
3, 490560, Note_off_c, 1, 76, 64
3, 490560, Note_off_c, 1, 84, 64
3, 490560, Note_on_c, 1, 84, 127
3, 490560, Note_on_c, 1, 76, 125
3, 490800, Note_off_c, 1, 76, 64
3, 490800, Note_off_c, 1, 84, 64
3, 490980, Note_on_c, 1, 60, 127
3, 490980, Note_on_c, 1, 72, 119
3, 491040, Note_off_c, 1, 72, 64
3, 491040, Note_off_c, 1, 60, 64
3, 491040, Note_on_c, 1, 72, 123
3, 491040, Note_on_c, 1, 60, 127
3, 491280, Note_off_c, 1, 60, 64
3, 491280, Note_off_c, 1, 72, 64
3, 491280, End_track
4, 0, Start_track
4, 0, Title_t, "Clarinets"
4, 0, Program_c, 2, 71
4, 0, Control_c, 2, 7, 100
4, 0, Control_c, 2, 10, 51
4, 0, Control_c, 2, 93, 0
4, 0, Control_c, 2, 91, 66
4, 14400, Note_on_c, 2, 60, 80
4, 14880, Note_off_c, 2, 60, 64
4, 14880, Note_on_c, 2, 72, 89
4, 14880, Note_on_c, 2, 64, 94
4, 15000, Note_off_c, 2, 64, 64
4, 15000, Note_off_c, 2, 72, 64
4, 15120, Note_on_c, 2, 72, 82
4, 15120, Note_on_c, 2, 64, 94
4, 15240, Note_off_c, 2, 64, 64
4, 15240, Note_off_c, 2, 72, 64
4, 15360, Note_on_c, 2, 72, 82
4, 15360, Note_on_c, 2, 64, 90
4, 15480, Note_off_c, 2, 64, 64
4, 15480, Note_off_c, 2, 72, 64
4, 16320, Note_on_c, 2, 67, 84
4, 16320, Note_on_c, 2, 64, 93
4, 16440, Note_off_c, 2, 64, 64
4, 16440, Note_off_c, 2, 67, 64
4, 16560, Note_on_c, 2, 67, 84
4, 16560, Note_on_c, 2, 62, 94
4, 16680, Note_off_c, 2, 62, 64
4, 16680, Note_off_c, 2, 67, 64
4, 16800, Note_on_c, 2, 72, 84
4, 16800, Note_on_c, 2, 64, 98
4, 16920, Note_off_c, 2, 64, 64
4, 16920, Note_off_c, 2, 72, 64
4, 17040, Note_on_c, 2, 74, 95
4, 17040, Note_on_c, 2, 65, 98
4, 17160, Note_off_c, 2, 65, 64
4, 17160, Note_off_c, 2, 74, 64
4, 17280, Note_on_c, 2, 72, 86
4, 17280, Note_on_c, 2, 64, 94
4, 17400, Note_off_c, 2, 64, 64
4, 17400, Note_off_c, 2, 72, 64
4, 17520, Note_on_c, 2, 71, 93
4, 17520, Note_on_c, 2, 62, 80
4, 17640, Note_off_c, 2, 62, 64
4, 17640, Note_off_c, 2, 71, 64
4, 18240, Note_on_c, 2, 71, 93
4, 18240, Note_on_c, 2, 62, 98
4, 18720, Note_off_c, 2, 62, 64
4, 18720, Note_off_c, 2, 71, 64
4, 18720, Note_on_c, 2, 74, 99
4, 18720, Note_on_c, 2, 71, 104
4, 18840, Note_off_c, 2, 71, 64
4, 18840, Note_off_c, 2, 74, 64
4, 18960, Note_on_c, 2, 74, 99
4, 18960, Note_on_c, 2, 71, 104
4, 19080, Note_off_c, 2, 71, 64
4, 19080, Note_off_c, 2, 74, 64
4, 19200, Note_on_c, 2, 74, 104
4, 19200, Note_on_c, 2, 71, 99
4, 19440, Note_off_c, 2, 71, 64
4, 19440, Note_off_c, 2, 74, 64
4, 20160, Note_on_c, 2, 67, 99
4, 20280, Note_off_c, 2, 67, 64
4, 20400, Note_on_c, 2, 67, 94
4, 20400, Note_on_c, 2, 60, 98
4, 20520, Note_off_c, 2, 60, 64
4, 20520, Note_off_c, 2, 67, 64
4, 20640, Note_on_c, 2, 71, 105
4, 20640, Note_on_c, 2, 65, 99
4, 20760, Note_off_c, 2, 65, 64
4, 20760, Note_off_c, 2, 71, 64
4, 20880, Note_on_c, 2, 72, 90
4, 20880, Note_on_c, 2, 64, 99
4, 21000, Note_off_c, 2, 64, 64
4, 21000, Note_off_c, 2, 72, 64
4, 21120, Note_on_c, 2, 74, 94
4, 21120, Note_on_c, 2, 71, 98
4, 21240, Note_off_c, 2, 71, 64
4, 21240, Note_off_c, 2, 74, 64
4, 21360, Note_on_c, 2, 72, 101
4, 21480, Note_off_c, 2, 72, 64
4, 22080, Note_on_c, 2, 69, 80
4, 22080, Note_on_c, 2, 65, 80
4, 23040, Note_off_c, 2, 65, 64
4, 23040, Note_off_c, 2, 69, 64
4, 23040, Note_on_c, 2, 69, 80
4, 23040, Note_on_c, 2, 65, 80
4, 24000, Note_off_c, 2, 65, 64
4, 24000, Note_off_c, 2, 69, 64
4, 24000, Note_on_c, 2, 67, 80
4, 24000, Note_on_c, 2, 64, 80
4, 24960, Note_off_c, 2, 64, 64
4, 24960, Note_off_c, 2, 67, 64
4, 24960, Note_on_c, 2, 67, 80
4, 24960, Note_on_c, 2, 64, 80
4, 25920, Note_off_c, 2, 64, 64
4, 25920, Note_off_c, 2, 67, 64
4, 25920, Note_on_c, 2, 65, 80
4, 25920, Note_on_c, 2, 60, 80
4, 26400, Note_off_c, 2, 60, 64
4, 26400, Note_off_c, 2, 65, 64
4, 26400, Note_on_c, 2, 60, 80
4, 26400, Note_on_c, 2, 69, 80
4, 26880, Note_off_c, 2, 69, 64
4, 26880, Note_off_c, 2, 60, 64
4, 26880, Note_on_c, 2, 62, 80
4, 26880, Note_on_c, 2, 59, 80
4, 27360, Note_off_c, 2, 59, 64
4, 27360, Note_off_c, 2, 62, 64
4, 27360, Note_on_c, 2, 62, 80
4, 27360, Note_on_c, 2, 67, 80
4, 27840, Note_off_c, 2, 67, 64
4, 27840, Note_off_c, 2, 62, 64
4, 27840, Note_on_c, 2, 67, 80
4, 27840, Note_on_c, 2, 64, 80
4, 28080, Note_off_c, 2, 64, 64
4, 28080, Note_off_c, 2, 67, 64
4, 29040, Note_on_c, 2, 67, 80
4, 29040, Note_on_c, 2, 64, 80
4, 29280, Note_off_c, 2, 64, 64
4, 29280, Note_off_c, 2, 67, 64
4, 29280, Note_on_c, 2, 67, 80
4, 29280, Note_on_c, 2, 64, 80
4, 29520, Note_off_c, 2, 64, 64
4, 29520, Note_off_c, 2, 67, 64
4, 29520, Note_on_c, 2, 64, 80
4, 29520, Note_on_c, 2, 67, 80
4, 29760, Note_off_c, 2, 67, 64
4, 29760, Note_off_c, 2, 64, 64
4, 29760, Note_on_c, 2, 69, 80
4, 29760, Note_on_c, 2, 65, 80
4, 30720, Note_off_c, 2, 65, 64
4, 30720, Note_off_c, 2, 69, 64
4, 30720, Note_on_c, 2, 69, 80
4, 30720, Note_on_c, 2, 65, 80
4, 30960, Note_off_c, 2, 65, 64
4, 30960, Note_off_c, 2, 69, 64
4, 30960, Note_on_c, 2, 69, 99
4, 30960, Note_on_c, 2, 65, 107
4, 31080, Note_off_c, 2, 65, 64
4, 31080, Note_off_c, 2, 69, 64
4, 31200, Note_on_c, 2, 69, 107
4, 31200, Note_on_c, 2, 65, 110
4, 31320, Note_off_c, 2, 65, 64
4, 31320, Note_off_c, 2, 69, 64
4, 31440, Note_on_c, 2, 69, 105
4, 31440, Note_on_c, 2, 65, 112
4, 31560, Note_off_c, 2, 65, 64
4, 31560, Note_off_c, 2, 69, 64
4, 31680, Note_on_c, 2, 67, 80
4, 31680, Note_on_c, 2, 64, 80
4, 32640, Note_off_c, 2, 64, 64
4, 32640, Note_off_c, 2, 67, 64
4, 32640, Note_on_c, 2, 67, 80
4, 32640, Note_on_c, 2, 64, 80
4, 32880, Note_off_c, 2, 64, 64
4, 32880, Note_off_c, 2, 67, 64
4, 32880, Note_on_c, 2, 67, 99
4, 32880, Note_on_c, 2, 64, 105
4, 33000, Note_off_c, 2, 64, 64
4, 33000, Note_off_c, 2, 67, 64
4, 33120, Note_on_c, 2, 67, 107
4, 33120, Note_on_c, 2, 64, 112
4, 33240, Note_off_c, 2, 64, 64
4, 33240, Note_off_c, 2, 67, 64
4, 33360, Note_on_c, 2, 67, 105
4, 33360, Note_on_c, 2, 64, 112
4, 33480, Note_off_c, 2, 64, 64
4, 33480, Note_off_c, 2, 67, 64
4, 33600, Note_on_c, 2, 72, 80
4, 33600, Note_on_c, 2, 66, 80
4, 34080, Note_off_c, 2, 66, 64
4, 34080, Note_off_c, 2, 72, 64
4, 34080, Note_on_c, 2, 66, 80
4, 34080, Note_on_c, 2, 60, 80
4, 34560, Note_off_c, 2, 60, 64
4, 34560, Note_off_c, 2, 66, 64
4, 34560, Note_on_c, 2, 66, 80
4, 34560, Note_on_c, 2, 60, 80
4, 35040, Note_off_c, 2, 60, 64
4, 35040, Note_off_c, 2, 66, 64
4, 35040, Note_on_c, 2, 66, 80
4, 35040, Note_on_c, 2, 60, 80
4, 35520, Note_off_c, 2, 60, 64
4, 35520, Note_off_c, 2, 66, 64
4, 35520, Note_on_c, 2, 67, 80
4, 35520, Note_on_c, 2, 59, 80
4, 35760, Note_off_c, 2, 59, 64
4, 35760, Note_off_c, 2, 67, 64
4, 38640, Note_on_c, 2, 74, 119
4, 38640, Note_on_c, 2, 65, 119
4, 39120, Note_off_c, 2, 65, 64
4, 39120, Note_off_c, 2, 74, 64
4, 39120, Note_on_c, 2, 72, 80
4, 39120, Note_on_c, 2, 64, 80
4, 39360, Note_off_c, 2, 64, 64
4, 39360, Note_off_c, 2, 72, 64
4, 39360, Note_on_c, 2, 71, 99
4, 39360, Note_on_c, 2, 62, 101
4, 39480, Note_off_c, 2, 62, 64
4, 39480, Note_off_c, 2, 71, 64
4, 39840, Note_on_c, 2, 72, 112
4, 39840, Note_on_c, 2, 64, 115
4, 39960, Note_off_c, 2, 64, 64
4, 39960, Note_off_c, 2, 72, 64
4, 40320, Note_on_c, 2, 71, 112
4, 40320, Note_on_c, 2, 62, 115
4, 40440, Note_off_c, 2, 62, 64
4, 40440, Note_off_c, 2, 71, 64
4, 40800, Note_on_c, 2, 72, 119
4, 40800, Note_on_c, 2, 64, 119
4, 40920, Note_off_c, 2, 64, 64
4, 40920, Note_off_c, 2, 72, 64
4, 41280, Note_on_c, 2, 71, 115
4, 41280, Note_on_c, 2, 62, 117
4, 41400, Note_off_c, 2, 62, 64
4, 41400, Note_off_c, 2, 71, 64
4, 41520, Note_on_c, 2, 72, 115
4, 41520, Note_on_c, 2, 64, 119
4, 41640, Note_off_c, 2, 64, 64
4, 41640, Note_off_c, 2, 72, 64
4, 41760, Note_on_c, 2, 71, 119
4, 41760, Note_on_c, 2, 62, 115
4, 41880, Note_off_c, 2, 62, 64
4, 41880, Note_off_c, 2, 71, 64
4, 42000, Note_on_c, 2, 72, 119
4, 42000, Note_on_c, 2, 64, 123
4, 42120, Note_off_c, 2, 64, 64
4, 42120, Note_off_c, 2, 72, 64
4, 42240, Note_on_c, 2, 71, 119
4, 42240, Note_on_c, 2, 62, 117
4, 42360, Note_off_c, 2, 62, 64
4, 42360, Note_off_c, 2, 71, 64
4, 42660, Note_on_c, 2, 67, 119
4, 42720, Note_off_c, 2, 67, 64
4, 42720, Note_on_c, 2, 67, 119
4, 42960, Note_off_c, 2, 67, 64
4, 43140, Note_on_c, 2, 67, 125
4, 43200, Note_off_c, 2, 67, 64
4, 43200, Note_on_c, 2, 67, 125
4, 43440, Note_off_c, 2, 67, 64
4, 52320, Note_on_c, 2, 64, 80
4, 52320, Note_on_c, 2, 67, 80
4, 52800, Note_off_c, 2, 67, 64
4, 52800, Note_off_c, 2, 64, 64
4, 59040, Note_on_c, 2, 66, 80
4, 59040, Note_on_c, 2, 69, 80
4, 59520, Note_off_c, 2, 69, 64
4, 59520, Note_off_c, 2, 66, 64
4, 59520, Note_on_c, 2, 70, 80
4, 59520, Note_on_c, 2, 67, 80
4, 59760, Note_off_c, 2, 67, 64
4, 59760, Note_off_c, 2, 70, 64
4, 72000, Note_on_c, 2, 67, 123
4, 72120, Note_off_c, 2, 67, 64
4, 72120, Note_on_c, 2, 65, 123
4, 72240, Note_off_c, 2, 65, 64
4, 72240, Note_on_c, 2, 64, 119
4, 72360, Note_off_c, 2, 64, 64
4, 72360, Note_on_c, 2, 62, 115
4, 72480, Note_off_c, 2, 62, 64
4, 72480, Note_on_c, 2, 60, 119
4, 72600, Note_off_c, 2, 60, 64
4, 72600, Note_on_c, 2, 70, 115
4, 72720, Note_off_c, 2, 70, 64
4, 72720, Note_on_c, 2, 69, 119
4, 72840, Note_off_c, 2, 69, 64
4, 72840, Note_on_c, 2, 67, 119
4, 72960, Note_off_c, 2, 67, 64
4, 72960, Note_on_c, 2, 66, 117
4, 72960, Note_on_c, 2, 62, 117
4, 73440, Note_off_c, 2, 62, 64
4, 73440, Note_off_c, 2, 66, 64
4, 73440, Note_on_c, 2, 69, 119
4, 73440, Note_on_c, 2, 66, 119
4, 73560, Note_off_c, 2, 66, 64
4, 73560, Note_off_c, 2, 69, 64
4, 73680, Note_on_c, 2, 69, 127
4, 73680, Note_on_c, 2, 66, 119
4, 73800, Note_off_c, 2, 66, 64
4, 73800, Note_off_c, 2, 69, 64
4, 73920, Note_on_c, 2, 70, 119
4, 73920, Note_on_c, 2, 67, 117
4, 74160, Note_off_c, 2, 67, 64
4, 74160, Note_off_c, 2, 70, 64
4, 74880, Note_on_c, 2, 67, 127
4, 74880, Note_on_c, 2, 64, 119
4, 75360, Note_off_c, 2, 64, 64
4, 75360, Note_off_c, 2, 67, 64
4, 75360, Note_on_c, 2, 67, 125
4, 75360, Note_on_c, 2, 64, 119
4, 75480, Note_off_c, 2, 64, 64
4, 75480, Note_off_c, 2, 67, 64
4, 75600, Note_on_c, 2, 67, 123
4, 75600, Note_on_c, 2, 64, 125
4, 75720, Note_off_c, 2, 64, 64
4, 75720, Note_off_c, 2, 67, 64
4, 75840, Note_on_c, 2, 65, 125
4, 75840, Note_on_c, 2, 72, 125
4, 76800, Note_off_c, 2, 72, 64
4, 76800, Note_off_c, 2, 65, 64
4, 76800, Note_on_c, 2, 64, 119
4, 76800, Note_on_c, 2, 72, 117
4, 77760, Note_off_c, 2, 72, 64
4, 77760, Note_off_c, 2, 64, 64
4, 77760, Note_on_c, 2, 72, 123
4, 77760, Note_on_c, 2, 69, 125
4, 78240, Note_off_c, 2, 69, 64
4, 78240, Note_off_c, 2, 72, 64
4, 78240, Note_on_c, 2, 72, 77
4, 78240, Note_on_c, 2, 69, 89
4, 78360, Note_off_c, 2, 69, 64
4, 78360, Note_off_c, 2, 72, 64
4, 78360, Note_on_c, 2, 72, 119
4, 78360, Note_on_c, 2, 69, 117
4, 78480, Note_off_c, 2, 69, 64
4, 78480, Note_off_c, 2, 72, 64
4, 78480, Note_on_c, 2, 72, 119
4, 78480, Note_on_c, 2, 69, 119
4, 78600, Note_off_c, 2, 69, 64
4, 78600, Note_off_c, 2, 72, 64
4, 78600, Note_on_c, 2, 69, 119
4, 78600, Note_on_c, 2, 72, 123
4, 78720, Note_off_c, 2, 72, 64
4, 78720, Note_off_c, 2, 69, 64
4, 78720, Note_on_c, 2, 71, 123
4, 78720, Note_on_c, 2, 67, 125
4, 79200, Note_off_c, 2, 67, 64
4, 79200, Note_off_c, 2, 71, 64
4, 79200, Note_on_c, 2, 71, 105
4, 79200, Note_on_c, 2, 67, 105
4, 79320, Note_off_c, 2, 67, 64
4, 79320, Note_off_c, 2, 71, 64
4, 79320, Note_on_c, 2, 71, 119
4, 79320, Note_on_c, 2, 67, 119
4, 79440, Note_off_c, 2, 67, 64
4, 79440, Note_off_c, 2, 71, 64
4, 79440, Note_on_c, 2, 71, 119
4, 79440, Note_on_c, 2, 67, 125
4, 79560, Note_off_c, 2, 67, 64
4, 79560, Note_off_c, 2, 71, 64
4, 79560, Note_on_c, 2, 67, 117
4, 79560, Note_on_c, 2, 71, 119
4, 79680, Note_off_c, 2, 71, 64
4, 79680, Note_off_c, 2, 67, 64
4, 79680, Note_on_c, 2, 72, 119
4, 79680, Note_on_c, 2, 67, 119
4, 79920, Note_off_c, 2, 67, 64
4, 79920, Note_off_c, 2, 72, 64
4, 80160, Note_on_c, 2, 72, 119
4, 80160, Note_on_c, 2, 69, 119
4, 80400, Note_off_c, 2, 69, 64
4, 80400, Note_off_c, 2, 72, 64
4, 80640, Note_on_c, 2, 72, 119
4, 80640, Note_on_c, 2, 64, 119
4, 80880, Note_off_c, 2, 64, 64
4, 80880, Note_off_c, 2, 72, 64
4, 81120, Note_on_c, 2, 71, 127
4, 81120, Note_on_c, 2, 65, 127
4, 81360, Note_off_c, 2, 65, 64
4, 81360, Note_off_c, 2, 71, 64
4, 81600, Note_on_c, 2, 72, 80
4, 81600, Note_on_c, 2, 64, 80
4, 81840, Note_off_c, 2, 64, 64
4, 81840, Note_off_c, 2, 72, 64
4, 85440, Note_on_c, 2, 72, 43
4, 85440, Note_on_c, 2, 64, 45
4, 85560, Note_off_c, 2, 64, 64
4, 85560, Note_off_c, 2, 72, 64
4, 85680, Note_on_c, 2, 67, 48
4, 85680, Note_on_c, 2, 64, 56
4, 85800, Note_off_c, 2, 64, 64
4, 85800, Note_off_c, 2, 67, 64
4, 85920, Note_on_c, 2, 72, 45
4, 85920, Note_on_c, 2, 64, 53
4, 86040, Note_off_c, 2, 64, 64
4, 86040, Note_off_c, 2, 72, 64
4, 86160, Note_on_c, 2, 74, 65
4, 86160, Note_on_c, 2, 67, 65
4, 86280, Note_off_c, 2, 67, 64
4, 86280, Note_off_c, 2, 74, 64
4, 86400, Note_on_c, 2, 76, 94
4, 86400, Note_on_c, 2, 72, 59
4, 86760, Note_off_c, 2, 72, 64
4, 86760, Note_off_c, 2, 76, 64
4, 86760, Note_on_c, 2, 74, 72
4, 86760, Note_on_c, 2, 67, 72
4, 86880, Note_off_c, 2, 67, 64
4, 86880, Note_off_c, 2, 74, 64
4, 86880, Note_on_c, 2, 72, 45
4, 86880, Note_on_c, 2, 64, 76
4, 87000, Note_off_c, 2, 64, 64
4, 87000, Note_off_c, 2, 72, 64
4, 87000, Note_on_c, 2, 74, 61
4, 87000, Note_on_c, 2, 67, 65
4, 87120, Note_off_c, 2, 67, 64
4, 87120, Note_off_c, 2, 74, 64
4, 87120, Note_on_c, 2, 76, 68
4, 87120, Note_on_c, 2, 72, 46
4, 87180, Note_off_c, 2, 72, 64
4, 87180, Note_off_c, 2, 76, 64
4, 87240, Note_on_c, 2, 77, 64
4, 87240, Note_on_c, 2, 74, 50
4, 87300, Note_off_c, 2, 74, 64
4, 87300, Note_off_c, 2, 77, 64
4, 87360, Note_on_c, 2, 79, 45
4, 87360, Note_on_c, 2, 76, 54
4, 87480, Note_off_c, 2, 76, 64
4, 87480, Note_off_c, 2, 79, 64
4, 87600, Note_on_c, 2, 79, 45
4, 87600, Note_on_c, 2, 76, 56
4, 87720, Note_off_c, 2, 76, 64
4, 87720, Note_off_c, 2, 79, 64
4, 87840, Note_on_c, 2, 74, 64
4, 87840, Note_on_c, 2, 67, 55
4, 87960, Note_off_c, 2, 67, 64
4, 87960, Note_off_c, 2, 74, 64
4, 88080, Note_on_c, 2, 74, 57
4, 88080, Note_on_c, 2, 67, 45
4, 88200, Note_off_c, 2, 67, 64
4, 88200, Note_off_c, 2, 74, 64
4, 88320, Note_on_c, 2, 76, 99
4, 88320, Note_on_c, 2, 72, 65
4, 88680, Note_off_c, 2, 72, 64
4, 88680, Note_off_c, 2, 76, 64
4, 88680, Note_on_c, 2, 74, 64
4, 88680, Note_on_c, 2, 67, 73
4, 88800, Note_off_c, 2, 67, 64
4, 88800, Note_off_c, 2, 74, 64
4, 88800, Note_on_c, 2, 72, 46
4, 88800, Note_on_c, 2, 64, 72
4, 88920, Note_off_c, 2, 64, 64
4, 88920, Note_off_c, 2, 72, 64
4, 88920, Note_on_c, 2, 74, 62
4, 88920, Note_on_c, 2, 67, 64
4, 89040, Note_off_c, 2, 67, 64
4, 89040, Note_off_c, 2, 74, 64
4, 89040, Note_on_c, 2, 76, 68
4, 89040, Note_on_c, 2, 72, 57
4, 89100, Note_off_c, 2, 72, 64
4, 89100, Note_off_c, 2, 76, 64
4, 89160, Note_on_c, 2, 77, 64
4, 89160, Note_on_c, 2, 74, 60
4, 89220, Note_off_c, 2, 74, 64
4, 89220, Note_off_c, 2, 77, 64
4, 89280, Note_on_c, 2, 79, 45
4, 89280, Note_on_c, 2, 76, 50
4, 89400, Note_off_c, 2, 76, 64
4, 89400, Note_off_c, 2, 79, 64
4, 89520, Note_on_c, 2, 79, 57
4, 89520, Note_on_c, 2, 76, 64
4, 89640, Note_off_c, 2, 76, 64
4, 89640, Note_off_c, 2, 79, 64
4, 89760, Note_on_c, 2, 74, 50
4, 89760, Note_on_c, 2, 67, 43
4, 89880, Note_off_c, 2, 67, 64
4, 89880, Note_off_c, 2, 74, 64
4, 90000, Note_on_c, 2, 74, 53
4, 90000, Note_on_c, 2, 67, 45
4, 90120, Note_off_c, 2, 67, 64
4, 90120, Note_off_c, 2, 74, 64
4, 90240, Note_on_c, 2, 64, 80
4, 90240, Note_on_c, 2, 72, 80
4, 91200, Note_off_c, 2, 72, 64
4, 91200, Note_off_c, 2, 64, 64
4, 91200, Note_on_c, 2, 72, 80
4, 91200, Note_on_c, 2, 62, 80
4, 91680, Note_off_c, 2, 62, 64
4, 91680, Note_off_c, 2, 72, 64
4, 91680, Note_on_c, 2, 71, 80
4, 92160, Note_off_c, 2, 71, 64
4, 92160, Note_on_c, 2, 72, 80
4, 92160, Note_on_c, 2, 64, 80
4, 92400, Note_off_c, 2, 64, 64
4, 92400, Note_off_c, 2, 72, 64
4, 92400, Note_on_c, 2, 72, 80
4, 92400, Note_on_c, 2, 64, 80
4, 92640, Note_off_c, 2, 64, 64
4, 92640, Note_off_c, 2, 72, 64
4, 92880, Note_on_c, 2, 64, 80
4, 92880, Note_on_c, 2, 72, 80
4, 93120, Note_off_c, 2, 72, 64
4, 93120, Note_off_c, 2, 64, 64
4, 93120, Note_on_c, 2, 72, 80
4, 93120, Note_on_c, 2, 62, 80
4, 93600, Note_off_c, 2, 62, 64
4, 93600, Note_off_c, 2, 72, 64
4, 93600, Note_on_c, 2, 62, 80
4, 93600, Note_on_c, 2, 71, 80
4, 94080, Note_off_c, 2, 71, 64
4, 94080, Note_off_c, 2, 62, 64
4, 94080, Note_on_c, 2, 60, 119
4, 94560, Note_off_c, 2, 60, 64
4, 94560, Note_on_c, 2, 72, 85
4, 94680, Note_off_c, 2, 72, 64
4, 94800, Note_on_c, 2, 72, 77
4, 94920, Note_off_c, 2, 72, 64
4, 95040, Note_on_c, 2, 72, 81
4, 95280, Note_off_c, 2, 72, 64
4, 96000, Note_on_c, 2, 64, 127
4, 96480, Note_off_c, 2, 64, 64
4, 96480, Note_on_c, 2, 76, 127
4, 96600, Note_off_c, 2, 76, 64
4, 96720, Note_on_c, 2, 76, 125
4, 96840, Note_off_c, 2, 76, 64
4, 96960, Note_on_c, 2, 76, 127
4, 97200, Note_off_c, 2, 76, 64
4, 97920, Note_on_c, 2, 79, 119
4, 98400, Note_off_c, 2, 79, 64
4, 98520, Note_on_c, 2, 77, 119
4, 98580, Note_off_c, 2, 77, 64
4, 98580, Note_on_c, 2, 76, 115
4, 98640, Note_off_c, 2, 76, 64
4, 98640, Note_on_c, 2, 74, 117
4, 98700, Note_off_c, 2, 74, 64
4, 98700, Note_on_c, 2, 72, 110
4, 98760, Note_off_c, 2, 72, 64
4, 98760, Note_on_c, 2, 71, 115
4, 98820, Note_off_c, 2, 71, 64
4, 98820, Note_on_c, 2, 69, 119
4, 98880, Note_off_c, 2, 69, 64
4, 98880, Note_on_c, 2, 67, 117
4, 99120, Note_off_c, 2, 67, 64
4, 99360, Note_on_c, 2, 71, 119
4, 99360, Note_on_c, 2, 62, 110
4, 99600, Note_off_c, 2, 62, 64
4, 99600, Note_off_c, 2, 71, 64
4, 99840, Note_on_c, 2, 72, 117
4, 99840, Note_on_c, 2, 64, 115
4, 100080, Note_off_c, 2, 64, 64
4, 100080, Note_off_c, 2, 72, 64
4, 100260, Note_on_c, 2, 72, 119
4, 100260, Note_on_c, 2, 64, 115
4, 100320, Note_off_c, 2, 64, 64
4, 100320, Note_off_c, 2, 72, 64
4, 100320, Note_on_c, 2, 72, 117
4, 100320, Note_on_c, 2, 64, 119
4, 100560, Note_off_c, 2, 64, 64
4, 100560, Note_off_c, 2, 72, 64
4, 100740, Note_on_c, 2, 60, 119
4, 100800, Note_off_c, 2, 60, 64
4, 100800, Note_on_c, 2, 60, 123
4, 101040, Note_off_c, 2, 60, 64
4, 112320, Note_on_c, 2, 72, 105
4, 112320, Note_on_c, 2, 64, 112
4, 112800, Note_off_c, 2, 64, 64
4, 112800, Note_off_c, 2, 72, 64
4, 112800, Note_on_c, 2, 72, 105
4, 112800, Note_on_c, 2, 64, 112
4, 112920, Note_off_c, 2, 64, 64
4, 112920, Note_off_c, 2, 72, 64
4, 113040, Note_on_c, 2, 72, 104
4, 113040, Note_on_c, 2, 64, 112
4, 113160, Note_off_c, 2, 64, 64
4, 113160, Note_off_c, 2, 72, 64
4, 113280, Note_on_c, 2, 72, 105
4, 113280, Note_on_c, 2, 64, 112
4, 113520, Note_off_c, 2, 64, 64
4, 113520, Note_off_c, 2, 72, 64
4, 116160, Note_on_c, 2, 67, 125
4, 116160, Note_on_c, 2, 59, 112
4, 116640, Note_off_c, 2, 59, 64
4, 116640, Note_off_c, 2, 67, 64
4, 116640, Note_on_c, 2, 74, 110
4, 116640, Note_on_c, 2, 71, 115
4, 116760, Note_off_c, 2, 71, 64
4, 116760, Note_off_c, 2, 74, 64
4, 116880, Note_on_c, 2, 74, 117
4, 116880, Note_on_c, 2, 71, 119
4, 117000, Note_off_c, 2, 71, 64
4, 117000, Note_off_c, 2, 74, 64
4, 117120, Note_on_c, 2, 74, 117
4, 117120, Note_on_c, 2, 71, 123
4, 117360, Note_off_c, 2, 71, 64
4, 117360, Note_off_c, 2, 74, 64
4, 147840, Note_on_c, 2, 62, 80
4, 147840, Note_on_c, 2, 71, 80
4, 148800, Note_off_c, 2, 71, 64
4, 148800, Note_off_c, 2, 62, 64
4, 148800, Note_on_c, 2, 62, 80
4, 148800, Note_on_c, 2, 66, 80
4, 149760, Note_off_c, 2, 66, 64
4, 149760, Note_off_c, 2, 62, 64
4, 149760, Note_on_c, 2, 67, 80
4, 149760, Note_on_c, 2, 62, 80
4, 150240, Note_off_c, 2, 62, 64
4, 150240, Note_off_c, 2, 67, 64
4, 150240, Note_on_c, 2, 67, 80
4, 150240, Note_on_c, 2, 71, 80
4, 150720, Note_off_c, 2, 71, 64
4, 150720, Note_off_c, 2, 67, 64
4, 150720, Note_on_c, 2, 62, 80
4, 150960, Note_off_c, 2, 62, 64
4, 151680, Note_on_c, 2, 66, 80
4, 151680, Note_on_c, 2, 69, 80
4, 152640, Note_off_c, 2, 69, 64
4, 152640, Note_off_c, 2, 66, 64
4, 152640, Note_on_c, 2, 64, 80
4, 152640, Note_on_c, 2, 67, 80
4, 153600, Note_off_c, 2, 67, 64
4, 153600, Note_off_c, 2, 64, 64
4, 153600, Note_on_c, 2, 66, 80
4, 153600, Note_on_c, 2, 62, 80
4, 154080, Note_off_c, 2, 62, 64
4, 154080, Note_off_c, 2, 66, 64
4, 154080, Note_on_c, 2, 64, 80
4, 154080, Note_on_c, 2, 67, 80
4, 154560, Note_off_c, 2, 67, 64
4, 154560, Note_off_c, 2, 64, 64
4, 154560, Note_on_c, 2, 66, 80
4, 154560, Note_on_c, 2, 62, 80
4, 154800, Note_off_c, 2, 62, 64
4, 154800, Note_off_c, 2, 66, 64
4, 226560, Note_on_c, 2, 71, 80
4, 226560, Note_on_c, 2, 67, 80
4, 227520, Note_off_c, 2, 67, 64
4, 227520, Note_off_c, 2, 71, 64
4, 227520, Note_on_c, 2, 69, 95
4, 227520, Note_on_c, 2, 67, 84
4, 228000, Note_off_c, 2, 67, 64
4, 228000, Note_off_c, 2, 69, 64
4, 228000, Note_on_c, 2, 81, 65
4, 228000, Note_on_c, 2, 69, 80
4, 228120, Note_off_c, 2, 69, 64
4, 228120, Note_off_c, 2, 81, 64
4, 228240, Note_on_c, 2, 81, 72
4, 228240, Note_on_c, 2, 69, 81
4, 228360, Note_off_c, 2, 69, 64
4, 228360, Note_off_c, 2, 81, 64
4, 228480, Note_on_c, 2, 81, 77
4, 228480, Note_on_c, 2, 69, 89
4, 228600, Note_off_c, 2, 69, 64
4, 228600, Note_off_c, 2, 81, 64
4, 228600, Note_on_c, 2, 79, 93
4, 228720, Note_off_c, 2, 79, 64
4, 228720, Note_on_c, 2, 77, 84
4, 228840, Note_off_c, 2, 77, 64
4, 228840, Note_on_c, 2, 76, 94
4, 228960, Note_off_c, 2, 76, 64
4, 228960, Note_on_c, 2, 74, 95
4, 229080, Note_off_c, 2, 74, 64
4, 229080, Note_on_c, 2, 72, 89
4, 229200, Note_off_c, 2, 72, 64
4, 229200, Note_on_c, 2, 71, 94
4, 229320, Note_off_c, 2, 71, 64
4, 229320, Note_on_c, 2, 69, 99
4, 229440, Note_off_c, 2, 69, 64
4, 229440, Note_on_c, 2, 67, 95
4, 229920, Note_off_c, 2, 67, 64
4, 229920, Note_on_c, 2, 79, 73
4, 229920, Note_on_c, 2, 67, 73
4, 230040, Note_off_c, 2, 67, 64
4, 230040, Note_off_c, 2, 79, 64
4, 230160, Note_on_c, 2, 79, 62
4, 230160, Note_on_c, 2, 67, 62
4, 230280, Note_off_c, 2, 67, 64
4, 230280, Note_off_c, 2, 79, 64
4, 230400, Note_on_c, 2, 79, 86
4, 230400, Note_on_c, 2, 67, 89
4, 230520, Note_off_c, 2, 67, 64
4, 230520, Note_off_c, 2, 79, 64
4, 230520, Note_on_c, 2, 77, 89
4, 230520, Note_on_c, 2, 65, 89
4, 230640, Note_off_c, 2, 65, 64
4, 230640, Note_off_c, 2, 77, 64
4, 230640, Note_on_c, 2, 76, 86
4, 230640, Note_on_c, 2, 64, 94
4, 230760, Note_off_c, 2, 64, 64
4, 230760, Note_off_c, 2, 76, 64
4, 230760, Note_on_c, 2, 74, 98
4, 230760, Note_on_c, 2, 62, 84
4, 230880, Note_off_c, 2, 62, 64
4, 230880, Note_off_c, 2, 74, 64
4, 230880, Note_on_c, 2, 72, 89
4, 230880, Note_on_c, 2, 60, 93
4, 231000, Note_off_c, 2, 60, 64
4, 231000, Note_off_c, 2, 72, 64
4, 231000, Note_on_c, 2, 71, 94
4, 231120, Note_off_c, 2, 71, 64
4, 231120, Note_on_c, 2, 69, 90
4, 231240, Note_off_c, 2, 69, 64
4, 231240, Note_on_c, 2, 67, 86
4, 231360, Note_off_c, 2, 67, 64
4, 231360, Note_on_c, 2, 69, 81
4, 231360, Note_on_c, 2, 66, 89
4, 231840, Note_off_c, 2, 66, 64
4, 231840, Note_off_c, 2, 69, 64
4, 231840, Note_on_c, 2, 69, 86
4, 231840, Note_on_c, 2, 65, 70
4, 231960, Note_off_c, 2, 65, 64
4, 231960, Note_off_c, 2, 69, 64
4, 232080, Note_on_c, 2, 69, 82
4, 232080, Note_on_c, 2, 65, 64
4, 232200, Note_off_c, 2, 65, 64
4, 232200, Note_off_c, 2, 69, 64
4, 232320, Note_on_c, 2, 71, 77
4, 232320, Note_on_c, 2, 67, 78
4, 233280, Note_off_c, 2, 67, 64
4, 233280, Note_off_c, 2, 71, 64
4, 233280, Note_on_c, 2, 71, 77
4, 233280, Note_on_c, 2, 68, 89
4, 233760, Note_off_c, 2, 68, 64
4, 233760, Note_off_c, 2, 71, 64
4, 233760, Note_on_c, 2, 71, 94
4, 233760, Note_on_c, 2, 68, 80
4, 233880, Note_off_c, 2, 68, 64
4, 233880, Note_off_c, 2, 71, 64
4, 234000, Note_on_c, 2, 71, 90
4, 234000, Note_on_c, 2, 68, 76
4, 234120, Note_off_c, 2, 68, 64
4, 234120, Note_off_c, 2, 71, 64
4, 234240, Note_on_c, 2, 72, 84
4, 234240, Note_on_c, 2, 69, 74
4, 234480, Note_off_c, 2, 69, 64
4, 234480, Note_off_c, 2, 72, 64
4, 235200, Note_on_c, 2, 69, 94
4, 235320, Note_off_c, 2, 69, 64
4, 235320, Note_on_c, 2, 71, 93
4, 235440, Note_off_c, 2, 71, 64
4, 235440, Note_on_c, 2, 72, 89
4, 235560, Note_off_c, 2, 72, 64
4, 235560, Note_on_c, 2, 71, 84
4, 235680, Note_off_c, 2, 71, 64
4, 235680, Note_on_c, 2, 69, 95
4, 235800, Note_off_c, 2, 69, 64
4, 235800, Note_on_c, 2, 67, 81
4, 235920, Note_off_c, 2, 67, 64
4, 235920, Note_on_c, 2, 66, 84
4, 236040, Note_off_c, 2, 66, 64
4, 236040, Note_on_c, 2, 64, 99
4, 236160, Note_off_c, 2, 64, 64
4, 236160, Note_on_c, 2, 62, 84
4, 236640, Note_off_c, 2, 62, 64
4, 236640, Note_on_c, 2, 67, 81
4, 236640, Note_on_c, 2, 71, 90
4, 237120, Note_off_c, 2, 71, 64
4, 237120, Note_off_c, 2, 67, 64
4, 237120, Note_on_c, 2, 69, 93
4, 237120, Note_on_c, 2, 67, 81
4, 237600, Note_off_c, 2, 67, 64
4, 237600, Note_off_c, 2, 69, 64
4, 237600, Note_on_c, 2, 66, 90
4, 237600, Note_on_c, 2, 69, 93
4, 238080, Note_off_c, 2, 69, 64
4, 238080, Note_off_c, 2, 66, 64
4, 238080, Note_on_c, 2, 67, 78
4, 238080, Note_on_c, 2, 59, 73
4, 238320, Note_off_c, 2, 59, 64
4, 238320, Note_off_c, 2, 67, 64
4, 238320, Note_on_c, 2, 71, 80
4, 238320, Note_on_c, 2, 62, 94
4, 238800, Note_off_c, 2, 62, 64
4, 238800, Note_off_c, 2, 71, 64
4, 238800, Note_on_c, 2, 69, 80
4, 238800, Note_on_c, 2, 60, 82
4, 238920, Note_off_c, 2, 60, 64
4, 238920, Note_off_c, 2, 69, 64
4, 239040, Note_on_c, 2, 67, 52
4, 239040, Note_on_c, 2, 59, 70
4, 239160, Note_off_c, 2, 59, 64
4, 239160, Note_off_c, 2, 67, 64
4, 239280, Note_on_c, 2, 74, 71
4, 239280, Note_on_c, 2, 71, 90
4, 239760, Note_off_c, 2, 71, 64
4, 239760, Note_off_c, 2, 74, 64
4, 239760, Note_on_c, 2, 72, 46
4, 239760, Note_on_c, 2, 69, 71
4, 239880, Note_off_c, 2, 69, 64
4, 239880, Note_off_c, 2, 72, 64
4, 240000, Note_on_c, 2, 71, 67
4, 240000, Note_on_c, 2, 67, 65
4, 240120, Note_off_c, 2, 67, 64
4, 240120, Note_off_c, 2, 71, 64
4, 240240, Note_on_c, 2, 74, 85
4, 240240, Note_on_c, 2, 71, 95
4, 240720, Note_off_c, 2, 71, 64
4, 240720, Note_off_c, 2, 74, 64
4, 240720, Note_on_c, 2, 69, 69
4, 240840, Note_off_c, 2, 69, 64
4, 240960, Note_on_c, 2, 71, 74
4, 240960, Note_on_c, 2, 67, 66
4, 241080, Note_off_c, 2, 67, 64
4, 241080, Note_off_c, 2, 71, 64
4, 241200, Note_on_c, 2, 71, 78
4, 241200, Note_on_c, 2, 67, 70
4, 241320, Note_off_c, 2, 67, 64
4, 241320, Note_off_c, 2, 71, 64
4, 241440, Note_on_c, 2, 72, 48
4, 241440, Note_on_c, 2, 69, 77
4, 241560, Note_off_c, 2, 69, 64
4, 241560, Note_off_c, 2, 72, 64
4, 241680, Note_on_c, 2, 69, 69
4, 241680, Note_on_c, 2, 66, 80
4, 241800, Note_off_c, 2, 66, 64
4, 241800, Note_off_c, 2, 69, 64
4, 241920, Note_on_c, 2, 71, 84
4, 241920, Note_on_c, 2, 67, 85
4, 242160, Note_off_c, 2, 67, 64
4, 242160, Note_off_c, 2, 71, 64
4, 242400, Note_on_c, 2, 74, 90
4, 242400, Note_on_c, 2, 69, 94
4, 242640, Note_off_c, 2, 69, 64
4, 242640, Note_off_c, 2, 74, 64
4, 242880, Note_on_c, 2, 74, 80
4, 242880, Note_on_c, 2, 71, 98
4, 243120, Note_off_c, 2, 71, 64
4, 243120, Note_off_c, 2, 74, 64
4, 243360, Note_on_c, 2, 74, 81
4, 243360, Note_on_c, 2, 69, 86
4, 243600, Note_off_c, 2, 69, 64
4, 243600, Note_off_c, 2, 74, 64
4, 243840, Note_on_c, 2, 74, 90
4, 243840, Note_on_c, 2, 71, 89
4, 244080, Note_off_c, 2, 71, 64
4, 244080, Note_off_c, 2, 74, 64
4, 244260, Note_on_c, 2, 79, 80
4, 244320, Note_off_c, 2, 79, 64
4, 244320, Note_on_c, 2, 79, 80
4, 244560, Note_off_c, 2, 79, 64
4, 244740, Note_on_c, 2, 67, 80
4, 244800, Note_off_c, 2, 67, 64
4, 244800, Note_on_c, 2, 67, 80
4, 245040, Note_off_c, 2, 67, 64
4, 249600, Note_on_c, 2, 74, 80
4, 249600, Note_on_c, 2, 65, 80
4, 250080, Note_off_c, 2, 65, 64
4, 250080, Note_off_c, 2, 74, 64
4, 250080, Note_on_c, 2, 74, 89
4, 250080, Note_on_c, 2, 70, 84
4, 250200, Note_off_c, 2, 70, 64
4, 250200, Note_off_c, 2, 74, 64
4, 250320, Note_on_c, 2, 74, 93
4, 250320, Note_on_c, 2, 70, 93
4, 250440, Note_off_c, 2, 70, 64
4, 250440, Note_off_c, 2, 74, 64
4, 250560, Note_on_c, 2, 75, 80
4, 250560, Note_on_c, 2, 70, 80
4, 250800, Note_off_c, 2, 70, 64
4, 250800, Note_off_c, 2, 75, 64
4, 251520, Note_on_c, 2, 72, 80
4, 251520, Note_on_c, 2, 63, 80
4, 251760, Note_off_c, 2, 63, 64
4, 251760, Note_off_c, 2, 72, 64
4, 252480, Note_on_c, 2, 70, 80
4, 252480, Note_on_c, 2, 67, 80
4, 252720, Note_off_c, 2, 67, 64
4, 252720, Note_off_c, 2, 70, 64
4, 253440, Note_on_c, 2, 68, 80
4, 253440, Note_on_c, 2, 65, 80
4, 253680, Note_off_c, 2, 65, 64
4, 253680, Note_off_c, 2, 68, 64
4, 253920, Note_on_c, 2, 68, 80
4, 253920, Note_on_c, 2, 65, 80
4, 254160, Note_off_c, 2, 65, 64
4, 254160, Note_off_c, 2, 68, 64
4, 254400, Note_on_c, 2, 67, 80
4, 254400, Note_on_c, 2, 63, 80
4, 254640, Note_off_c, 2, 63, 64
4, 254640, Note_off_c, 2, 67, 64
4, 254640, Control_c, 2, 7, 100
4, 254640, Control_c, 2, 10, 51
4, 254640, Control_c, 2, 93, 0
4, 254640, Control_c, 2, 91, 66
4, 266160, Control_c, 2, 7, 100
4, 266160, Control_c, 2, 10, 51
4, 266160, Control_c, 2, 93, 0
4, 266160, Control_c, 2, 91, 66
4, 266400, Control_c, 2, 7, 100
4, 266400, Control_c, 2, 10, 51
4, 266400, Control_c, 2, 93, 0
4, 266400, Control_c, 2, 91, 66
4, 266640, Control_c, 2, 7, 100
4, 266640, Control_c, 2, 10, 51
4, 266640, Control_c, 2, 93, 0
4, 266640, Control_c, 2, 91, 66
4, 266880, Control_c, 2, 7, 100
4, 266880, Control_c, 2, 10, 51
4, 266880, Control_c, 2, 93, 0
4, 266880, Control_c, 2, 91, 66
4, 267120, Control_c, 2, 7, 100
4, 267120, Control_c, 2, 10, 51
4, 267120, Control_c, 2, 93, 0
4, 267120, Control_c, 2, 91, 66
4, 267360, Control_c, 2, 7, 100
4, 267360, Control_c, 2, 10, 51
4, 267360, Control_c, 2, 93, 0
4, 267360, Control_c, 2, 91, 66
4, 267600, Control_c, 2, 7, 100
4, 267600, Control_c, 2, 10, 51
4, 267600, Control_c, 2, 93, 0
4, 267600, Control_c, 2, 91, 66
4, 280320, Control_c, 2, 7, 100
4, 280320, Control_c, 2, 10, 51
4, 280320, Control_c, 2, 93, 0
4, 280320, Control_c, 2, 91, 66
4, 310800, Control_c, 2, 7, 100
4, 310800, Control_c, 2, 10, 51
4, 310800, Control_c, 2, 93, 0
4, 310800, Control_c, 2, 91, 66
4, 311040, Control_c, 2, 7, 100
4, 311040, Control_c, 2, 10, 51
4, 311040, Control_c, 2, 93, 0
4, 311040, Control_c, 2, 91, 66
4, 311280, Control_c, 2, 7, 100
4, 311280, Control_c, 2, 10, 51
4, 311280, Control_c, 2, 93, 0
4, 311280, Control_c, 2, 91, 66
4, 311520, Control_c, 2, 7, 100
4, 311520, Control_c, 2, 10, 51
4, 311520, Control_c, 2, 93, 0
4, 311520, Control_c, 2, 91, 66
4, 311760, Control_c, 2, 7, 100
4, 311760, Control_c, 2, 10, 51
4, 311760, Control_c, 2, 93, 0
4, 311760, Control_c, 2, 91, 66
4, 312000, Control_c, 2, 7, 100
4, 312000, Control_c, 2, 10, 51
4, 312000, Control_c, 2, 93, 0
4, 312000, Control_c, 2, 91, 66
4, 312240, Control_c, 2, 7, 100
4, 312240, Control_c, 2, 10, 51
4, 312240, Control_c, 2, 93, 0
4, 312240, Control_c, 2, 91, 66
4, 312480, Control_c, 2, 7, 100
4, 312480, Control_c, 2, 10, 51
4, 312480, Control_c, 2, 93, 0
4, 312480, Control_c, 2, 91, 66
4, 312720, Control_c, 2, 7, 100
4, 312720, Control_c, 2, 10, 51
4, 312720, Control_c, 2, 93, 0
4, 312720, Control_c, 2, 91, 66
4, 331200, Note_on_c, 2, 60, 80
4, 331680, Note_off_c, 2, 60, 64
4, 331680, Note_on_c, 2, 72, 104
4, 331680, Note_on_c, 2, 64, 110
4, 331800, Note_off_c, 2, 64, 64
4, 331800, Note_off_c, 2, 72, 64
4, 331920, Note_on_c, 2, 72, 104
4, 331920, Note_on_c, 2, 64, 105
4, 332040, Note_off_c, 2, 64, 64
4, 332040, Note_off_c, 2, 72, 64
4, 332160, Note_on_c, 2, 72, 127
4, 332160, Note_on_c, 2, 64, 127
4, 332400, Note_off_c, 2, 64, 64
4, 332400, Note_off_c, 2, 72, 64
4, 333120, Note_on_c, 2, 67, 123
4, 333120, Note_on_c, 2, 64, 127
4, 333240, Note_off_c, 2, 64, 64
4, 333240, Note_off_c, 2, 67, 64
4, 333360, Note_on_c, 2, 67, 123
4, 333360, Note_on_c, 2, 62, 125
4, 333480, Note_off_c, 2, 62, 64
4, 333480, Note_off_c, 2, 67, 64
4, 333600, Note_on_c, 2, 72, 125
4, 333600, Note_on_c, 2, 64, 125
4, 333720, Note_off_c, 2, 64, 64
4, 333720, Note_off_c, 2, 72, 64
4, 333840, Note_on_c, 2, 74, 127
4, 333840, Note_on_c, 2, 65, 127
4, 333960, Note_off_c, 2, 65, 64
4, 333960, Note_off_c, 2, 74, 64
4, 334080, Note_on_c, 2, 72, 123
4, 334080, Note_on_c, 2, 64, 123
4, 334200, Note_off_c, 2, 64, 64
4, 334200, Note_off_c, 2, 72, 64
4, 334320, Note_on_c, 2, 71, 127
4, 334320, Note_on_c, 2, 62, 125
4, 334440, Note_off_c, 2, 62, 64
4, 334440, Note_off_c, 2, 71, 64
4, 335040, Note_on_c, 2, 71, 127
4, 335040, Note_on_c, 2, 62, 119
4, 335520, Note_off_c, 2, 62, 64
4, 335520, Note_off_c, 2, 71, 64
4, 335520, Note_on_c, 2, 74, 127
4, 335520, Note_on_c, 2, 71, 125
4, 335640, Note_off_c, 2, 71, 64
4, 335640, Note_off_c, 2, 74, 64
4, 335760, Note_on_c, 2, 74, 127
4, 335760, Note_on_c, 2, 71, 127
4, 335880, Note_off_c, 2, 71, 64
4, 335880, Note_off_c, 2, 74, 64
4, 336000, Note_on_c, 2, 74, 127
4, 336000, Note_on_c, 2, 71, 127
4, 336120, Note_off_c, 2, 71, 64
4, 336120, Note_off_c, 2, 74, 64
4, 336960, Note_on_c, 2, 67, 125
4, 337080, Note_off_c, 2, 67, 64
4, 337200, Note_on_c, 2, 67, 123
4, 337200, Note_on_c, 2, 60, 127
4, 337320, Note_off_c, 2, 60, 64
4, 337320, Note_off_c, 2, 67, 64
4, 337440, Note_on_c, 2, 71, 123
4, 337440, Note_on_c, 2, 65, 127
4, 337560, Note_off_c, 2, 65, 64
4, 337560, Note_off_c, 2, 71, 64
4, 337680, Note_on_c, 2, 72, 125
4, 337680, Note_on_c, 2, 64, 127
4, 337800, Note_off_c, 2, 64, 64
4, 337800, Note_off_c, 2, 72, 64
4, 337920, Note_on_c, 2, 74, 127
4, 337920, Note_on_c, 2, 71, 127
4, 338040, Note_off_c, 2, 71, 64
4, 338040, Note_off_c, 2, 74, 64
4, 338160, Note_on_c, 2, 72, 125
4, 338280, Note_off_c, 2, 72, 64
4, 354240, Note_on_c, 2, 64, 63
4, 354240, Note_on_c, 2, 72, 47
4, 355200, Note_off_c, 2, 72, 64
4, 355200, Note_off_c, 2, 64, 64
4, 355200, Note_on_c, 2, 65, 43
4, 355200, Note_on_c, 2, 71, 57
4, 356160, Note_off_c, 2, 71, 64
4, 356160, Note_off_c, 2, 65, 64
4, 356160, Note_on_c, 2, 72, 61
4, 356160, Note_on_c, 2, 67, 64
4, 356280, Note_off_c, 2, 72, 64
4, 356400, Note_on_c, 2, 72, 62
4, 356520, Note_off_c, 2, 72, 64
4, 356610, Note_on_c, 2, 74, 52
4, 356640, Note_off_c, 2, 74, 64
4, 356640, Note_on_c, 2, 72, 55
4, 356760, Note_off_c, 2, 72, 64
4, 356760, Note_on_c, 2, 71, 77
4, 356880, Note_off_c, 2, 71, 64
4, 356880, Note_off_c, 2, 67, 64
4, 356880, Note_on_c, 2, 72, 69
4, 356880, Note_on_c, 2, 67, 43
4, 357000, Note_off_c, 2, 67, 64
4, 357000, Note_off_c, 2, 72, 64
4, 357000, Note_on_c, 2, 72, 56
4, 357000, Note_on_c, 2, 76, 68
4, 357120, Note_off_c, 2, 76, 64
4, 357120, Note_off_c, 2, 72, 64
4, 357120, Note_on_c, 2, 73, 45
4, 357120, Note_on_c, 2, 70, 46
4, 357360, Note_off_c, 2, 70, 64
4, 357360, Note_off_c, 2, 73, 64
4, 357360, Note_on_c, 2, 74, 53
4, 357360, Note_on_c, 2, 71, 57
4, 357600, Note_off_c, 2, 71, 64
4, 357600, Note_off_c, 2, 74, 64
4, 358080, Note_on_c, 2, 64, 43
4, 358080, Note_on_c, 2, 76, 54
4, 359040, Note_off_c, 2, 76, 64
4, 359040, Note_off_c, 2, 64, 64
4, 359040, Note_on_c, 2, 76, 43
4, 359040, Note_on_c, 2, 64, 43
4, 359760, Note_off_c, 2, 64, 64
4, 359760, Note_off_c, 2, 76, 64
4, 359760, Note_on_c, 2, 76, 53
4, 359760, Note_on_c, 2, 72, 57
4, 359880, Note_off_c, 2, 72, 64
4, 359880, Note_off_c, 2, 76, 64
4, 359880, Note_on_c, 2, 69, 52
4, 359880, Note_on_c, 2, 72, 53
4, 360000, Note_off_c, 2, 72, 64
4, 360000, Note_off_c, 2, 69, 64
4, 360000, Note_on_c, 2, 71, 53
4, 360000, Note_on_c, 2, 67, 53
4, 360480, Note_off_c, 2, 67, 64
4, 360480, Note_off_c, 2, 71, 64
4, 360480, Note_on_c, 2, 60, 70
4, 360480, Note_on_c, 2, 66, 71
4, 360960, Note_off_c, 2, 66, 64
4, 360960, Note_off_c, 2, 60, 64
4, 360960, Note_on_c, 2, 67, 45
4, 360960, Note_on_c, 2, 59, 52
4, 361200, Note_off_c, 2, 59, 64
4, 361200, Note_off_c, 2, 67, 64
4, 430080, Control_c, 2, 7, 100
4, 430080, Control_c, 2, 10, 51
4, 430080, Control_c, 2, 93, 0
4, 430080, Control_c, 2, 91, 66
4, 431040, Control_c, 2, 7, 100
4, 431040, Control_c, 2, 10, 51
4, 431040, Control_c, 2, 93, 0
4, 431040, Control_c, 2, 91, 66
4, 432960, Note_on_c, 2, 64, 93
4, 432960, Note_on_c, 2, 72, 81
4, 433920, Note_off_c, 2, 72, 64
4, 433920, Note_off_c, 2, 64, 64
4, 433920, Note_on_c, 2, 64, 94
4, 433920, Note_on_c, 2, 67, 99
4, 434880, Note_off_c, 2, 67, 64
4, 434880, Note_off_c, 2, 64, 64
4, 434880, Note_on_c, 2, 65, 93
4, 434880, Note_on_c, 2, 69, 98
4, 435840, Note_off_c, 2, 69, 64
4, 435840, Note_off_c, 2, 65, 64
4, 435840, Note_on_c, 2, 67, 86
4, 435840, Note_on_c, 2, 70, 90
4, 436800, Note_off_c, 2, 70, 64
4, 436800, Note_off_c, 2, 67, 64
4, 436800, Note_on_c, 2, 72, 82
4, 436800, Note_on_c, 2, 69, 98
4, 437040, Note_off_c, 2, 69, 64
4, 437040, Note_off_c, 2, 72, 64
4, 437760, Note_on_c, 2, 71, 98
4, 437760, Note_on_c, 2, 67, 90
4, 438000, Note_off_c, 2, 67, 64
4, 438000, Note_off_c, 2, 71, 64
4, 438720, Note_on_c, 2, 64, 105
4, 438720, Note_on_c, 2, 72, 94
4, 439680, Note_off_c, 2, 72, 64
4, 439680, Note_off_c, 2, 64, 64
4, 439680, Note_on_c, 2, 64, 93
4, 439680, Note_on_c, 2, 72, 84
4, 440640, Note_off_c, 2, 72, 64
4, 440640, Note_off_c, 2, 64, 64
4, 440640, Note_on_c, 2, 64, 105
4, 440640, Note_on_c, 2, 72, 104
4, 441600, Note_off_c, 2, 72, 64
4, 441600, Note_off_c, 2, 64, 64
4, 441600, Note_on_c, 2, 64, 94
4, 441600, Note_on_c, 2, 72, 81
4, 442560, Note_off_c, 2, 72, 64
4, 442560, Note_off_c, 2, 64, 64
4, 442560, Note_on_c, 2, 63, 104
4, 442560, Note_on_c, 2, 72, 95
4, 443520, Note_off_c, 2, 72, 64
4, 443520, Note_off_c, 2, 63, 64
4, 443520, Note_on_c, 2, 72, 73
4, 443520, Note_on_c, 2, 63, 85
4, 443880, Note_off_c, 2, 63, 64
4, 443880, Note_off_c, 2, 72, 64
4, 443940, Note_on_c, 2, 72, 98
4, 443940, Note_on_c, 2, 69, 94
4, 444000, Note_off_c, 2, 69, 64
4, 444000, Note_off_c, 2, 72, 64
4, 444000, Note_on_c, 2, 72, 98
4, 444000, Note_on_c, 2, 69, 99
4, 444360, Note_off_c, 2, 69, 64
4, 444360, Note_off_c, 2, 72, 64
4, 444420, Note_on_c, 2, 69, 95
4, 444420, Note_on_c, 2, 72, 99
4, 444480, Note_off_c, 2, 72, 64
4, 444480, Note_off_c, 2, 69, 64
4, 444480, Note_on_c, 2, 72, 94
4, 444480, Note_on_c, 2, 67, 99
4, 445440, Control_c, 2, 7, 100
4, 445440, Control_c, 2, 10, 51
4, 445440, Control_c, 2, 93, 0
4, 445440, Control_c, 2, 91, 66
4, 445920, Note_off_c, 2, 67, 64
4, 445920, Note_off_c, 2, 72, 64
4, 479520, Note_on_c, 2, 72, 81
4, 479520, Note_on_c, 2, 64, 93
4, 479640, Note_off_c, 2, 64, 64
4, 479640, Note_off_c, 2, 72, 64
4, 479760, Note_on_c, 2, 67, 86
4, 479880, Note_off_c, 2, 67, 64
4, 480000, Note_on_c, 2, 72, 72
4, 480000, Note_on_c, 2, 64, 80
4, 480120, Note_off_c, 2, 64, 64
4, 480120, Note_off_c, 2, 72, 64
4, 480240, Note_on_c, 2, 74, 82
4, 480240, Note_on_c, 2, 67, 69
4, 480360, Note_off_c, 2, 67, 64
4, 480360, Note_off_c, 2, 74, 64
4, 480480, Note_on_c, 2, 76, 105
4, 480480, Note_on_c, 2, 72, 94
4, 480840, Note_off_c, 2, 72, 64
4, 480840, Note_off_c, 2, 76, 64
4, 480840, Note_on_c, 2, 74, 89
4, 480840, Note_on_c, 2, 67, 84
4, 480960, Note_off_c, 2, 67, 64
4, 480960, Note_off_c, 2, 74, 64
4, 480960, Note_on_c, 2, 72, 65
4, 480960, Note_on_c, 2, 64, 70
4, 481080, Note_off_c, 2, 64, 64
4, 481080, Note_off_c, 2, 72, 64
4, 481080, Note_on_c, 2, 74, 84
4, 481080, Note_on_c, 2, 67, 84
4, 481200, Note_off_c, 2, 67, 64
4, 481200, Note_off_c, 2, 74, 64
4, 481200, Note_on_c, 2, 76, 89
4, 481200, Note_on_c, 2, 72, 78
4, 481260, Note_off_c, 2, 72, 64
4, 481260, Note_off_c, 2, 76, 64
4, 481320, Note_on_c, 2, 77, 69
4, 481320, Note_on_c, 2, 74, 89
4, 481380, Note_off_c, 2, 74, 64
4, 481380, Note_off_c, 2, 77, 64
4, 481440, Note_on_c, 2, 79, 52
4, 481440, Note_on_c, 2, 76, 84
4, 481560, Note_off_c, 2, 76, 64
4, 481560, Note_off_c, 2, 79, 64
4, 481680, Note_on_c, 2, 79, 66
4, 481680, Note_on_c, 2, 76, 85
4, 481800, Note_off_c, 2, 76, 64
4, 481800, Note_off_c, 2, 79, 64
4, 481920, Note_on_c, 2, 74, 77
4, 481920, Note_on_c, 2, 67, 78
4, 482040, Note_off_c, 2, 67, 64
4, 482040, Note_off_c, 2, 74, 64
4, 482160, Note_on_c, 2, 74, 81
4, 482160, Note_on_c, 2, 67, 81
4, 482280, Note_off_c, 2, 67, 64
4, 482280, Note_off_c, 2, 74, 64
4, 482400, Note_on_c, 2, 76, 115
4, 482400, Note_on_c, 2, 72, 115
4, 482760, Note_off_c, 2, 72, 64
4, 482760, Note_off_c, 2, 76, 64
4, 482760, Note_on_c, 2, 74, 82
4, 482760, Note_on_c, 2, 67, 80
4, 482880, Note_off_c, 2, 67, 64
4, 482880, Note_off_c, 2, 74, 64
4, 482880, Note_on_c, 2, 72, 68
4, 482880, Note_on_c, 2, 64, 72
4, 483000, Note_off_c, 2, 64, 64
4, 483000, Note_off_c, 2, 72, 64
4, 483000, Note_on_c, 2, 74, 80
4, 483000, Note_on_c, 2, 67, 74
4, 483120, Note_off_c, 2, 67, 64
4, 483120, Note_off_c, 2, 74, 64
4, 483120, Note_on_c, 2, 76, 65
4, 483120, Note_on_c, 2, 72, 70
4, 483180, Note_off_c, 2, 72, 64
4, 483180, Note_off_c, 2, 76, 64
4, 483240, Note_on_c, 2, 77, 53
4, 483240, Note_on_c, 2, 74, 82
4, 483300, Note_off_c, 2, 74, 64
4, 483300, Note_off_c, 2, 77, 64
4, 483360, Note_on_c, 2, 79, 65
4, 483360, Note_on_c, 2, 76, 78
4, 483480, Note_off_c, 2, 76, 64
4, 483480, Note_off_c, 2, 79, 64
4, 483600, Note_on_c, 2, 79, 64
4, 483600, Note_on_c, 2, 76, 81
4, 483720, Note_off_c, 2, 76, 64
4, 483720, Note_off_c, 2, 79, 64
4, 483840, Note_on_c, 2, 74, 65
4, 483840, Note_on_c, 2, 67, 72
4, 483960, Note_off_c, 2, 67, 64
4, 483960, Note_off_c, 2, 74, 64
4, 484080, Note_on_c, 2, 74, 80
4, 484080, Note_on_c, 2, 67, 84
4, 484200, Note_off_c, 2, 67, 64
4, 484200, Note_off_c, 2, 74, 64
4, 484320, Note_on_c, 2, 60, 119
4, 484800, Note_off_c, 2, 60, 64
4, 484800, Note_on_c, 2, 72, 117
4, 484920, Note_off_c, 2, 72, 64
4, 485040, Note_on_c, 2, 72, 119
4, 485160, Note_off_c, 2, 72, 64
4, 485280, Note_on_c, 2, 72, 125
4, 485520, Note_off_c, 2, 72, 64
4, 486240, Note_on_c, 2, 64, 127
4, 486720, Note_off_c, 2, 64, 64
4, 486720, Note_on_c, 2, 76, 125
4, 486840, Note_off_c, 2, 76, 64
4, 486960, Note_on_c, 2, 76, 127
4, 487080, Note_off_c, 2, 76, 64
4, 487200, Note_on_c, 2, 76, 127
4, 487440, Note_off_c, 2, 76, 64
4, 488160, Note_on_c, 2, 79, 125
4, 488640, Note_off_c, 2, 79, 64
4, 488760, Note_on_c, 2, 77, 117
4, 488820, Note_off_c, 2, 77, 64
4, 488820, Note_on_c, 2, 76, 125
4, 488880, Note_off_c, 2, 76, 64
4, 488880, Note_on_c, 2, 74, 125
4, 488940, Note_off_c, 2, 74, 64
4, 488940, Note_on_c, 2, 72, 123
4, 489000, Note_off_c, 2, 72, 64
4, 489000, Note_on_c, 2, 71, 125
4, 489060, Note_off_c, 2, 71, 64
4, 489060, Note_on_c, 2, 69, 125
4, 489120, Note_off_c, 2, 69, 64
4, 489120, Note_on_c, 2, 67, 115
4, 489360, Note_off_c, 2, 67, 64
4, 489600, Note_on_c, 2, 71, 123
4, 489600, Note_on_c, 2, 62, 112
4, 489840, Note_off_c, 2, 62, 64
4, 489840, Note_off_c, 2, 71, 64
4, 490080, Note_on_c, 2, 72, 125
4, 490080, Note_on_c, 2, 64, 123
4, 490320, Note_off_c, 2, 64, 64
4, 490320, Note_off_c, 2, 72, 64
4, 490500, Note_on_c, 2, 72, 117
4, 490500, Note_on_c, 2, 64, 119
4, 490560, Note_off_c, 2, 64, 64
4, 490560, Note_off_c, 2, 72, 64
4, 490560, Note_on_c, 2, 72, 119
4, 490560, Note_on_c, 2, 64, 123
4, 490800, Note_off_c, 2, 64, 64
4, 490800, Note_off_c, 2, 72, 64
4, 490980, Note_on_c, 2, 60, 125
4, 491040, Note_off_c, 2, 60, 64
4, 491040, Note_on_c, 2, 60, 127
4, 491280, Note_off_c, 2, 60, 64
4, 491280, End_track
5, 0, Start_track
5, 0, Title_t, "Bassoons"
5, 0, Program_c, 3, 70
5, 0, Control_c, 3, 7, 100
5, 0, Control_c, 3, 10, 90
5, 0, Control_c, 3, 93, 0
5, 0, Control_c, 3, 91, 66
5, 14400, Note_on_c, 3, 48, 80
5, 14400, Note_on_c, 3, 36, 80
5, 14880, Note_off_c, 3, 36, 64
5, 14880, Note_off_c, 3, 48, 64
5, 14880, Note_on_c, 3, 48, 94
5, 14880, Note_on_c, 3, 36, 94
5, 15000, Note_off_c, 3, 36, 64
5, 15000, Note_off_c, 3, 48, 64
5, 15120, Note_on_c, 3, 48, 90
5, 15120, Note_on_c, 3, 36, 95
5, 15240, Note_off_c, 3, 36, 64
5, 15240, Note_off_c, 3, 48, 64
5, 15360, Note_on_c, 3, 48, 98
5, 15360, Note_on_c, 3, 36, 104
5, 15480, Note_off_c, 3, 36, 64
5, 15480, Note_off_c, 3, 48, 64
5, 16320, Note_on_c, 3, 60, 86
5, 16320, Note_on_c, 3, 48, 98
5, 16440, Note_off_c, 3, 48, 64
5, 16440, Note_off_c, 3, 60, 64
5, 16560, Note_on_c, 3, 55, 81
5, 16560, Note_on_c, 3, 43, 94
5, 16680, Note_off_c, 3, 43, 64
5, 16680, Note_off_c, 3, 55, 64
5, 16800, Note_on_c, 3, 60, 95
5, 16800, Note_on_c, 3, 48, 101
5, 16920, Note_off_c, 3, 48, 64
5, 16920, Note_off_c, 3, 60, 64
5, 17040, Note_on_c, 3, 55, 82
5, 17040, Note_on_c, 3, 43, 94
5, 17160, Note_off_c, 3, 43, 64
5, 17160, Note_off_c, 3, 55, 64
5, 17280, Note_on_c, 3, 60, 95
5, 17280, Note_on_c, 3, 48, 101
5, 17400, Note_off_c, 3, 48, 64
5, 17400, Note_off_c, 3, 60, 64
5, 17520, Note_on_c, 3, 55, 94
5, 17520, Note_on_c, 3, 43, 98
5, 17640, Note_off_c, 3, 43, 64
5, 17640, Note_off_c, 3, 55, 64
5, 18240, Note_on_c, 3, 50, 105
5, 18240, Note_on_c, 3, 47, 99
5, 18720, Note_off_c, 3, 47, 64
5, 18720, Note_off_c, 3, 50, 64
5, 18720, Note_on_c, 3, 62, 94
5, 18720, Note_on_c, 3, 59, 99
5, 18840, Note_off_c, 3, 59, 64
5, 18840, Note_off_c, 3, 62, 64
5, 18960, Note_on_c, 3, 62, 95
5, 18960, Note_on_c, 3, 59, 98
5, 19080, Note_off_c, 3, 59, 64
5, 19080, Note_off_c, 3, 62, 64
5, 19200, Note_on_c, 3, 62, 95
5, 19200, Note_on_c, 3, 59, 98
5, 19440, Note_off_c, 3, 59, 64
5, 19440, Note_off_c, 3, 62, 64
5, 20160, Note_on_c, 3, 55, 81
5, 20160, Note_on_c, 3, 43, 94
5, 20280, Note_off_c, 3, 43, 64
5, 20280, Note_off_c, 3, 55, 64
5, 20400, Note_on_c, 3, 64, 98
5, 20400, Note_on_c, 3, 52, 101
5, 20520, Note_off_c, 3, 52, 64
5, 20520, Note_off_c, 3, 64, 64
5, 20640, Note_on_c, 3, 62, 94
5, 20640, Note_on_c, 3, 50, 104
5, 20760, Note_off_c, 3, 50, 64
5, 20760, Note_off_c, 3, 62, 64
5, 20880, Note_on_c, 3, 60, 94
5, 20880, Note_on_c, 3, 48, 105
5, 21000, Note_off_c, 3, 48, 64
5, 21000, Note_off_c, 3, 60, 64
5, 21120, Note_on_c, 3, 55, 90
5, 21120, Note_on_c, 3, 43, 98
5, 21240, Note_off_c, 3, 43, 64
5, 21240, Note_off_c, 3, 55, 64
5, 21360, Note_on_c, 3, 60, 99
5, 21360, Note_on_c, 3, 48, 101
5, 21480, Note_off_c, 3, 48, 64
5, 21480, Note_off_c, 3, 60, 64
5, 22080, Note_on_c, 3, 57, 80
5, 22080, Note_on_c, 3, 53, 80
5, 23040, Note_off_c, 3, 53, 64
5, 23040, Note_off_c, 3, 57, 64
5, 23040, Note_on_c, 3, 57, 80
5, 23040, Note_on_c, 3, 53, 80
5, 24000, Note_off_c, 3, 53, 64
5, 24000, Note_off_c, 3, 57, 64
5, 24000, Note_on_c, 3, 55, 80
5, 24000, Note_on_c, 3, 52, 80
5, 24960, Note_off_c, 3, 52, 64
5, 24960, Note_off_c, 3, 55, 64
5, 24960, Note_on_c, 3, 55, 80
5, 24960, Note_on_c, 3, 52, 80
5, 25920, Note_off_c, 3, 52, 64
5, 25920, Note_off_c, 3, 55, 64
5, 25920, Note_on_c, 3, 53, 80
5, 25920, Note_on_c, 3, 50, 80
5, 26400, Note_off_c, 3, 50, 64
5, 26400, Note_off_c, 3, 53, 64
5, 26400, Note_on_c, 3, 53, 80
5, 26400, Note_on_c, 3, 57, 80
5, 26880, Note_off_c, 3, 57, 64
5, 26880, Note_off_c, 3, 53, 64
5, 26880, Note_on_c, 3, 59, 80
5, 26880, Note_on_c, 3, 55, 80
5, 27360, Note_off_c, 3, 55, 64
5, 27360, Note_off_c, 3, 59, 64
5, 27360, Note_on_c, 3, 59, 80
5, 27360, Note_on_c, 3, 62, 80
5, 27840, Note_off_c, 3, 62, 64
5, 27840, Note_off_c, 3, 59, 64
5, 27840, Note_on_c, 3, 64, 80
5, 27840, Note_on_c, 3, 60, 80
5, 28080, Note_off_c, 3, 60, 64
5, 28080, Note_off_c, 3, 64, 64
5, 29040, Note_on_c, 3, 60, 80
5, 29040, Note_on_c, 3, 48, 80
5, 29280, Note_off_c, 3, 48, 64
5, 29280, Note_off_c, 3, 60, 64
5, 29280, Note_on_c, 3, 60, 80
5, 29280, Note_on_c, 3, 48, 80
5, 29520, Note_off_c, 3, 48, 64
5, 29520, Note_off_c, 3, 60, 64
5, 29520, Note_on_c, 3, 48, 80
5, 29520, Note_on_c, 3, 60, 80
5, 29760, Note_off_c, 3, 60, 64
5, 29760, Note_off_c, 3, 48, 64
5, 29760, Note_on_c, 3, 57, 80
5, 29760, Note_on_c, 3, 53, 80
5, 30720, Note_off_c, 3, 53, 64
5, 30720, Note_off_c, 3, 57, 64
5, 30720, Note_on_c, 3, 57, 80
5, 30720, Note_on_c, 3, 53, 80
5, 30960, Note_off_c, 3, 53, 64
5, 30960, Note_off_c, 3, 57, 64
5, 30960, Note_on_c, 3, 57, 105
5, 30960, Note_on_c, 3, 53, 99
5, 31080, Note_off_c, 3, 53, 64
5, 31080, Note_off_c, 3, 57, 64
5, 31200, Note_on_c, 3, 57, 110
5, 31200, Note_on_c, 3, 53, 110
5, 31320, Note_off_c, 3, 53, 64
5, 31320, Note_off_c, 3, 57, 64
5, 31440, Note_on_c, 3, 57, 112
5, 31440, Note_on_c, 3, 53, 112
5, 31560, Note_off_c, 3, 53, 64
5, 31560, Note_off_c, 3, 57, 64
5, 31680, Note_on_c, 3, 55, 80
5, 31680, Note_on_c, 3, 52, 80
5, 32640, Note_off_c, 3, 52, 64
5, 32640, Note_off_c, 3, 55, 64
5, 32640, Note_on_c, 3, 55, 80
5, 32640, Note_on_c, 3, 52, 80
5, 32880, Note_off_c, 3, 52, 64
5, 32880, Note_off_c, 3, 55, 64
5, 32880, Note_on_c, 3, 55, 105
5, 32880, Note_on_c, 3, 52, 112
5, 33000, Note_off_c, 3, 52, 64
5, 33000, Note_off_c, 3, 55, 64
5, 33120, Note_on_c, 3, 55, 99
5, 33120, Note_on_c, 3, 52, 112
5, 33240, Note_off_c, 3, 52, 64
5, 33240, Note_off_c, 3, 55, 64
5, 33360, Note_on_c, 3, 55, 101
5, 33360, Note_on_c, 3, 52, 112
5, 33480, Note_off_c, 3, 52, 64
5, 33480, Note_off_c, 3, 55, 64
5, 33600, Note_on_c, 3, 60, 80
5, 33600, Note_on_c, 3, 57, 80
5, 34080, Note_off_c, 3, 57, 64
5, 34080, Note_off_c, 3, 60, 64
5, 34080, Note_on_c, 3, 57, 80
5, 34080, Note_on_c, 3, 45, 80
5, 34560, Note_off_c, 3, 45, 64
5, 34560, Note_off_c, 3, 57, 64
5, 34560, Note_on_c, 3, 57, 80
5, 34560, Note_on_c, 3, 45, 80
5, 35040, Note_off_c, 3, 45, 64
5, 35040, Note_off_c, 3, 57, 64
5, 35040, Note_on_c, 3, 57, 80
5, 35040, Note_on_c, 3, 45, 80
5, 35520, Note_off_c, 3, 45, 64
5, 35520, Note_off_c, 3, 57, 64
5, 35520, Note_on_c, 3, 55, 80
5, 35520, Note_on_c, 3, 43, 80
5, 35640, Note_off_c, 3, 43, 64
5, 35640, Note_off_c, 3, 55, 64
5, 35640, Note_on_c, 3, 43, 119
5, 35700, Note_off_c, 3, 43, 64
5, 35760, Note_on_c, 3, 45, 119
5, 35820, Note_off_c, 3, 45, 64
5, 35880, Note_on_c, 3, 47, 123
5, 35940, Note_off_c, 3, 47, 64
5, 36000, Note_on_c, 3, 48, 119
5, 36060, Note_off_c, 3, 48, 64
5, 36120, Note_on_c, 3, 50, 119
5, 36180, Note_off_c, 3, 50, 64
5, 36240, Note_on_c, 3, 52, 125
5, 36300, Note_off_c, 3, 52, 64
5, 36360, Note_on_c, 3, 54, 125
5, 36420, Note_off_c, 3, 54, 64
5, 36480, Note_on_c, 3, 55, 125
5, 36540, Note_off_c, 3, 55, 64
5, 36600, Note_on_c, 3, 55, 117
5, 36600, Note_on_c, 3, 43, 119
5, 36660, Note_off_c, 3, 43, 64
5, 36660, Note_off_c, 3, 55, 64
5, 36720, Note_on_c, 3, 57, 123
5, 36720, Note_on_c, 3, 45, 123
5, 36780, Note_off_c, 3, 45, 64
5, 36780, Note_off_c, 3, 57, 64
5, 36840, Note_on_c, 3, 59, 123
5, 36840, Note_on_c, 3, 47, 125
5, 36900, Note_off_c, 3, 47, 64
5, 36900, Note_off_c, 3, 59, 64
5, 36960, Note_on_c, 3, 60, 125
5, 36960, Note_on_c, 3, 48, 127
5, 37020, Note_off_c, 3, 48, 64
5, 37020, Note_off_c, 3, 60, 64
5, 37080, Note_on_c, 3, 62, 123
5, 37080, Note_on_c, 3, 50, 123
5, 37140, Note_off_c, 3, 50, 64
5, 37140, Note_off_c, 3, 62, 64
5, 37200, Note_on_c, 3, 64, 119
5, 37200, Note_on_c, 3, 52, 123
5, 37260, Note_off_c, 3, 52, 64
5, 37260, Note_off_c, 3, 64, 64
5, 37320, Note_on_c, 3, 66, 119
5, 37320, Note_on_c, 3, 54, 117
5, 37380, Note_off_c, 3, 54, 64
5, 37380, Note_off_c, 3, 66, 64
5, 37440, Note_on_c, 3, 67, 119
5, 37440, Note_on_c, 3, 55, 127
5, 37560, Note_off_c, 3, 55, 64
5, 37560, Note_off_c, 3, 67, 64
5, 37680, Note_on_c, 3, 62, 119
5, 37680, Note_on_c, 3, 53, 119
5, 38160, Note_off_c, 3, 53, 64
5, 38160, Note_off_c, 3, 62, 64
5, 38160, Note_on_c, 3, 60, 80
5, 38160, Note_on_c, 3, 52, 80
5, 38400, Note_off_c, 3, 52, 64
5, 38400, Note_off_c, 3, 60, 64
5, 38400, Note_on_c, 3, 59, 89
5, 38400, Note_on_c, 3, 50, 115
5, 38520, Note_off_c, 3, 50, 64
5, 38520, Note_off_c, 3, 59, 64
5, 38640, Note_on_c, 3, 65, 119
5, 38640, Note_on_c, 3, 62, 119
5, 39120, Note_off_c, 3, 62, 64
5, 39120, Note_off_c, 3, 65, 64
5, 39120, Note_on_c, 3, 64, 80
5, 39120, Note_on_c, 3, 60, 80
5, 39360, Note_off_c, 3, 60, 64
5, 39360, Note_off_c, 3, 64, 64
5, 39360, Note_on_c, 3, 62, 98
5, 39360, Note_on_c, 3, 59, 107
5, 39480, Note_off_c, 3, 59, 64
5, 39480, Note_off_c, 3, 62, 64
5, 39840, Note_on_c, 3, 64, 105
5, 39840, Note_on_c, 3, 60, 112
5, 39960, Note_off_c, 3, 60, 64
5, 39960, Note_off_c, 3, 64, 64
5, 40320, Note_on_c, 3, 62, 105
5, 40320, Note_on_c, 3, 59, 112
5, 40440, Note_off_c, 3, 59, 64
5, 40440, Note_off_c, 3, 62, 64
5, 40800, Note_on_c, 3, 64, 112
5, 40800, Note_on_c, 3, 60, 112
5, 40920, Note_off_c, 3, 60, 64
5, 40920, Note_off_c, 3, 64, 64
5, 41280, Note_on_c, 3, 62, 105
5, 41280, Note_on_c, 3, 59, 112
5, 41400, Note_off_c, 3, 59, 64
5, 41400, Note_off_c, 3, 62, 64
5, 41520, Note_on_c, 3, 64, 112
5, 41520, Note_on_c, 3, 60, 117
5, 41640, Note_off_c, 3, 60, 64
5, 41640, Note_off_c, 3, 64, 64
5, 41760, Note_on_c, 3, 62, 110
5, 41760, Note_on_c, 3, 59, 117
5, 41880, Note_off_c, 3, 59, 64
5, 41880, Note_off_c, 3, 62, 64
5, 42000, Note_on_c, 3, 64, 112
5, 42000, Note_on_c, 3, 60, 112
5, 42120, Note_off_c, 3, 60, 64
5, 42120, Note_off_c, 3, 64, 64
5, 42240, Note_on_c, 3, 62, 110
5, 42240, Note_on_c, 3, 59, 115
5, 42360, Note_off_c, 3, 59, 64
5, 42360, Note_off_c, 3, 62, 64
5, 42660, Note_on_c, 3, 55, 123
5, 42720, Note_off_c, 3, 55, 64
5, 42720, Note_on_c, 3, 55, 125
5, 42960, Note_off_c, 3, 55, 64
5, 43140, Note_on_c, 3, 43, 125
5, 43200, Note_off_c, 3, 43, 64
5, 43200, Note_on_c, 3, 43, 125
5, 43440, Note_off_c, 3, 43, 64
5, 49920, Note_on_c, 3, 61, 80
5, 49920, Note_on_c, 3, 58, 80
5, 50400, Note_off_c, 3, 58, 64
5, 50400, Note_off_c, 3, 61, 64
5, 50400, Note_on_c, 3, 60, 80
5, 50400, Note_on_c, 3, 56, 80
5, 50880, Note_off_c, 3, 56, 64
5, 50880, Note_off_c, 3, 60, 64
5, 50880, Note_on_c, 3, 58, 80
5, 50880, Note_on_c, 3, 55, 80
5, 51360, Note_off_c, 3, 55, 64
5, 51360, Note_off_c, 3, 58, 64
5, 51360, Note_on_c, 3, 56, 80
5, 51360, Note_on_c, 3, 53, 80
5, 51840, Note_off_c, 3, 53, 64
5, 51840, Note_off_c, 3, 56, 64
5, 51840, Note_on_c, 3, 55, 80
5, 51840, Note_on_c, 3, 52, 80
5, 52320, Note_off_c, 3, 52, 64
5, 52320, Note_off_c, 3, 55, 64
5, 52320, Note_on_c, 3, 52, 80
5, 52320, Note_on_c, 3, 48, 80
5, 52800, Note_off_c, 3, 48, 64
5, 52800, Note_off_c, 3, 52, 64
5, 56640, Note_on_c, 3, 63, 80
5, 56640, Note_on_c, 3, 60, 80
5, 57120, Note_off_c, 3, 60, 64
5, 57120, Note_off_c, 3, 63, 64
5, 57120, Note_on_c, 3, 62, 80
5, 57120, Note_on_c, 3, 58, 80
5, 57600, Note_off_c, 3, 58, 64
5, 57600, Note_off_c, 3, 62, 64
5, 57600, Note_on_c, 3, 60, 80
5, 57600, Note_on_c, 3, 57, 80
5, 58080, Note_off_c, 3, 57, 64
5, 58080, Note_off_c, 3, 60, 64
5, 58080, Note_on_c, 3, 58, 80
5, 58080, Note_on_c, 3, 55, 80
5, 58560, Note_off_c, 3, 55, 64
5, 58560, Note_off_c, 3, 58, 64
5, 58560, Note_on_c, 3, 57, 80
5, 58560, Note_on_c, 3, 54, 80
5, 59040, Note_off_c, 3, 54, 64
5, 59040, Note_off_c, 3, 57, 64
5, 59040, Note_on_c, 3, 54, 80
5, 59040, Note_on_c, 3, 50, 80
5, 59520, Note_off_c, 3, 50, 64
5, 59520, Note_off_c, 3, 54, 64
5, 59520, Note_on_c, 3, 55, 80
5, 59760, Note_off_c, 3, 55, 64
5, 62400, Note_on_c, 3, 62, 80
5, 62880, Note_off_c, 3, 62, 64
5, 62880, Note_on_c, 3, 61, 80
5, 63000, Note_off_c, 3, 61, 64
5, 63000, Note_on_c, 3, 62, 80
5, 63120, Note_off_c, 3, 62, 64
5, 63120, Note_on_c, 3, 63, 80
5, 63240, Note_off_c, 3, 63, 64
5, 63240, Note_on_c, 3, 62, 80
5, 63360, Note_off_c, 3, 62, 64
5, 63360, Note_on_c, 3, 62, 80
5, 63600, Note_off_c, 3, 62, 64
5, 64320, Note_on_c, 3, 55, 80
5, 64800, Note_off_c, 3, 55, 64
5, 64800, Note_on_c, 3, 54, 80
5, 64920, Note_off_c, 3, 54, 64
5, 64920, Note_on_c, 3, 55, 80
5, 65040, Note_off_c, 3, 55, 64
5, 65040, Note_on_c, 3, 56, 80
5, 65160, Note_off_c, 3, 56, 64
5, 65160, Note_on_c, 3, 55, 80
5, 65280, Note_off_c, 3, 55, 64
5, 65280, Note_on_c, 3, 55, 80
5, 66240, Note_off_c, 3, 55, 64
5, 66240, Note_on_c, 3, 55, 80
5, 66480, Note_off_c, 3, 55, 64
5, 66480, Note_on_c, 3, 63, 31
5, 66480, Note_on_c, 3, 51, 34
5, 66720, Note_off_c, 3, 51, 64
5, 66720, Note_off_c, 3, 63, 64
5, 66960, Note_on_c, 3, 67, 35
5, 66960, Note_on_c, 3, 55, 40
5, 67200, Note_off_c, 3, 55, 64
5, 67200, Note_off_c, 3, 67, 64
5, 67440, Note_on_c, 3, 63, 33
5, 67440, Note_on_c, 3, 51, 45
5, 67680, Note_off_c, 3, 51, 64
5, 67680, Note_off_c, 3, 63, 64
5, 67920, Note_on_c, 3, 60, 43
5, 67920, Note_on_c, 3, 48, 49
5, 68160, Note_off_c, 3, 48, 64
5, 68160, Note_off_c, 3, 60, 64
5, 68160, Note_on_c, 3, 55, 33
5, 68160, Note_on_c, 3, 43, 32
5, 68400, Note_off_c, 3, 43, 64
5, 68640, Note_off_c, 3, 55, 64
5, 68640, Note_on_c, 3, 67, 50
5, 68880, Note_off_c, 3, 67, 64
5, 68880, Note_on_c, 3, 67, 58
5, 69120, Note_off_c, 3, 67, 64
5, 69120, Note_on_c, 3, 67, 58
5, 69240, Note_off_c, 3, 67, 64
5, 69240, Note_on_c, 3, 65, 57
5, 69360, Note_off_c, 3, 65, 64
5, 69360, Note_on_c, 3, 64, 51
5, 69480, Note_off_c, 3, 64, 64
5, 69480, Note_on_c, 3, 62, 50
5, 69600, Note_off_c, 3, 62, 64
5, 69600, Note_on_c, 3, 61, 45
5, 69720, Note_off_c, 3, 61, 64
5, 69720, Note_on_c, 3, 58, 52
5, 69840, Note_off_c, 3, 58, 64
5, 69840, Note_on_c, 3, 57, 67
5, 69960, Note_off_c, 3, 57, 64
5, 69960, Note_on_c, 3, 55, 61
5, 70080, Note_off_c, 3, 55, 64
5, 70080, Note_on_c, 3, 53, 65
5, 70560, Note_off_c, 3, 53, 64
5, 70560, Note_on_c, 3, 65, 43
5, 70800, Note_off_c, 3, 65, 64
5, 70800, Note_on_c, 3, 65, 60
5, 71040, Note_off_c, 3, 65, 64
5, 71040, Note_on_c, 3, 65, 54
5, 71160, Note_off_c, 3, 65, 64
5, 71160, Note_on_c, 3, 64, 44
5, 71280, Note_off_c, 3, 64, 64
5, 71280, Note_on_c, 3, 62, 38
5, 71400, Note_off_c, 3, 62, 64
5, 71400, Note_on_c, 3, 60, 42
5, 71520, Note_off_c, 3, 60, 64
5, 71520, Note_on_c, 3, 59, 40
5, 71640, Note_off_c, 3, 59, 64
5, 71640, Note_on_c, 3, 57, 38
5, 71760, Note_off_c, 3, 57, 64
5, 71760, Note_on_c, 3, 55, 33
5, 71880, Note_off_c, 3, 55, 64
5, 71880, Note_on_c, 3, 53, 29
5, 72000, Note_off_c, 3, 53, 64
5, 72000, Note_on_c, 3, 52, 123
5, 72000, Note_on_c, 3, 48, 125
5, 72240, Note_off_c, 3, 52, 64
5, 72240, Note_on_c, 3, 64, 119
5, 72360, Note_off_c, 3, 64, 64
5, 72360, Note_on_c, 3, 62, 117
5, 72480, Note_off_c, 3, 62, 64
5, 72480, Note_off_c, 3, 48, 64
5, 72480, Note_on_c, 3, 60, 125
5, 72480, Note_on_c, 3, 60, 119
5, 72600, Note_off_c, 3, 60, 64
5, 72600, Note_on_c, 3, 58, 119
5, 72720, Note_off_c, 3, 58, 64
5, 72720, Note_off_c, 3, 60, 64
5, 72720, Note_on_c, 3, 60, 125
5, 72720, Note_on_c, 3, 57, 119
5, 72840, Note_off_c, 3, 57, 64
5, 72840, Note_on_c, 3, 55, 117
5, 72960, Note_off_c, 3, 55, 64
5, 72960, Note_off_c, 3, 60, 64
5, 72960, Note_on_c, 3, 60, 119
5, 72960, Note_on_c, 3, 54, 119
5, 73080, Note_off_c, 3, 60, 64
5, 73080, Note_on_c, 3, 58, 119
5, 73200, Note_off_c, 3, 58, 64
5, 73200, Note_on_c, 3, 57, 125
5, 73260, Note_off_c, 3, 57, 64
5, 73320, Note_on_c, 3, 55, 117
5, 73380, Note_off_c, 3, 55, 64
5, 73440, Note_off_c, 3, 54, 64
5, 73440, Note_on_c, 3, 57, 125
5, 73440, Note_on_c, 3, 54, 125
5, 73500, Note_off_c, 3, 54, 64
5, 73560, Note_off_c, 3, 57, 64
5, 73560, Note_on_c, 3, 52, 125
5, 73620, Note_off_c, 3, 52, 64
5, 73680, Note_on_c, 3, 57, 127
5, 73680, Note_on_c, 3, 50, 125
5, 73740, Note_off_c, 3, 50, 64
5, 73800, Note_off_c, 3, 57, 64
5, 73800, Note_on_c, 3, 48, 125
5, 73860, Note_off_c, 3, 48, 64
5, 73920, Note_on_c, 3, 58, 123
5, 73920, Note_on_c, 3, 46, 119
5, 74400, Note_off_c, 3, 46, 64
5, 74400, Note_off_c, 3, 58, 64
5, 74400, Note_on_c, 3, 58, 123
5, 74520, Note_off_c, 3, 58, 64
5, 74640, Note_on_c, 3, 58, 125
5, 74760, Note_off_c, 3, 58, 64
5, 74880, Note_on_c, 3, 58, 123
5, 75000, Note_off_c, 3, 58, 64
5, 75000, Note_on_c, 3, 57, 125
5, 75060, Note_off_c, 3, 57, 64
5, 75120, Note_on_c, 3, 55, 123
5, 75180, Note_off_c, 3, 55, 64
5, 75240, Note_on_c, 3, 53, 123
5, 75300, Note_off_c, 3, 53, 64
5, 75360, Note_on_c, 3, 52, 123
5, 75420, Note_off_c, 3, 52, 64
5, 75480, Note_on_c, 3, 50, 125
5, 75540, Note_off_c, 3, 50, 64
5, 75600, Note_on_c, 3, 48, 127
5, 75660, Note_off_c, 3, 48, 64
5, 75720, Note_on_c, 3, 46, 119
5, 75780, Note_off_c, 3, 46, 64
5, 75840, Note_on_c, 3, 45, 115
5, 75960, Note_off_c, 3, 45, 64
5, 75960, Note_on_c, 3, 46, 119
5, 76080, Note_off_c, 3, 46, 64
5, 76080, Note_on_c, 3, 48, 119
5, 76200, Note_off_c, 3, 48, 64
5, 76200, Note_on_c, 3, 50, 119
5, 76320, Note_off_c, 3, 50, 64
5, 76320, Note_on_c, 3, 52, 115
5, 76440, Note_off_c, 3, 52, 64
5, 76440, Note_on_c, 3, 53, 119
5, 76560, Note_off_c, 3, 53, 64
5, 76560, Note_on_c, 3, 55, 119
5, 76680, Note_off_c, 3, 55, 64
5, 76680, Note_on_c, 3, 57, 125
5, 76800, Note_off_c, 3, 57, 64
5, 76800, Note_on_c, 3, 55, 119
5, 76920, Note_off_c, 3, 55, 64
5, 76920, Note_on_c, 3, 53, 119
5, 77040, Note_off_c, 3, 53, 64
5, 77040, Note_on_c, 3, 52, 123
5, 77160, Note_off_c, 3, 52, 64
5, 77160, Note_on_c, 3, 50, 119
5, 77280, Note_off_c, 3, 50, 64
5, 77280, Note_on_c, 3, 48, 119
5, 77400, Note_off_c, 3, 48, 64
5, 77400, Note_on_c, 3, 46, 119
5, 77520, Note_off_c, 3, 46, 64
5, 77520, Note_on_c, 3, 45, 117
5, 77640, Note_off_c, 3, 45, 64
5, 77640, Note_on_c, 3, 43, 117
5, 77760, Note_off_c, 3, 43, 64
5, 77760, Note_on_c, 3, 53, 125
5, 77760, Note_on_c, 3, 41, 123
5, 78240, Note_off_c, 3, 41, 64
5, 78240, Note_off_c, 3, 53, 64
5, 78240, Note_on_c, 3, 53, 65
5, 78240, Note_on_c, 3, 41, 80
5, 78360, Note_off_c, 3, 41, 64
5, 78360, Note_off_c, 3, 53, 64
5, 78360, Note_on_c, 3, 53, 119
5, 78360, Note_on_c, 3, 41, 119
5, 78480, Note_off_c, 3, 41, 64
5, 78480, Note_off_c, 3, 53, 64
5, 78480, Note_on_c, 3, 53, 119
5, 78480, Note_on_c, 3, 41, 123
5, 78600, Note_off_c, 3, 41, 64
5, 78600, Note_off_c, 3, 53, 64
5, 78600, Note_on_c, 3, 41, 119
5, 78600, Note_on_c, 3, 53, 119
5, 78720, Note_off_c, 3, 53, 64
5, 78720, Note_off_c, 3, 41, 64
5, 78720, Note_on_c, 3, 53, 119
5, 78720, Note_on_c, 3, 41, 123
5, 79200, Note_off_c, 3, 41, 64
5, 79200, Note_off_c, 3, 53, 64
5, 79200, Note_on_c, 3, 53, 65
5, 79200, Note_on_c, 3, 41, 80
5, 79320, Note_off_c, 3, 41, 64
5, 79320, Note_off_c, 3, 53, 64
5, 79320, Note_on_c, 3, 53, 117
5, 79320, Note_on_c, 3, 41, 119
5, 79440, Note_off_c, 3, 41, 64
5, 79440, Note_off_c, 3, 53, 64
5, 79440, Note_on_c, 3, 53, 123
5, 79440, Note_on_c, 3, 41, 123
5, 79560, Note_off_c, 3, 41, 64
5, 79560, Note_off_c, 3, 53, 64
5, 79560, Note_on_c, 3, 41, 123
5, 79560, Note_on_c, 3, 53, 123
5, 79680, Note_off_c, 3, 53, 64
5, 79680, Note_off_c, 3, 41, 64
5, 79680, Note_on_c, 3, 52, 125
5, 79680, Note_on_c, 3, 40, 123
5, 79920, Note_off_c, 3, 40, 64
5, 79920, Note_off_c, 3, 52, 64
5, 80160, Note_on_c, 3, 65, 123
5, 80160, Note_on_c, 3, 53, 119
5, 80400, Note_off_c, 3, 53, 64
5, 80400, Note_off_c, 3, 65, 64
5, 80640, Note_on_c, 3, 67, 123
5, 80640, Note_on_c, 3, 55, 119
5, 80880, Note_off_c, 3, 55, 64
5, 80880, Note_off_c, 3, 67, 64
5, 81120, Note_on_c, 3, 55, 123
5, 81120, Note_on_c, 3, 43, 119
5, 81360, Note_off_c, 3, 43, 64
5, 81360, Note_off_c, 3, 55, 64
5, 81600, Note_on_c, 3, 60, 80
5, 81600, Note_on_c, 3, 48, 80
5, 81840, Note_off_c, 3, 48, 64
5, 81840, Note_off_c, 3, 60, 64
5, 82560, Note_on_c, 3, 60, 80
5, 82560, Note_on_c, 3, 48, 80
5, 82800, Note_off_c, 3, 48, 64
5, 82800, Note_off_c, 3, 60, 64
5, 83520, Note_on_c, 3, 60, 73
5, 83520, Note_on_c, 3, 48, 86
5, 83640, Note_off_c, 3, 48, 64
5, 83640, Note_off_c, 3, 60, 64
5, 83760, Note_on_c, 3, 60, 73
5, 83760, Note_on_c, 3, 48, 77
5, 83880, Note_off_c, 3, 48, 64
5, 83880, Note_off_c, 3, 60, 64
5, 84000, Note_on_c, 3, 59, 72
5, 84000, Note_on_c, 3, 47, 80
5, 84120, Note_off_c, 3, 47, 64
5, 84120, Note_off_c, 3, 59, 64
5, 84240, Note_on_c, 3, 60, 68
5, 84240, Note_on_c, 3, 48, 73
5, 84360, Note_off_c, 3, 48, 64
5, 84360, Note_off_c, 3, 60, 64
5, 84480, Note_on_c, 3, 55, 80
5, 84480, Note_on_c, 3, 43, 80
5, 84720, Note_off_c, 3, 43, 64
5, 84720, Note_off_c, 3, 55, 64
5, 85440, Note_on_c, 3, 60, 80
5, 85440, Note_on_c, 3, 48, 80
5, 85680, Note_off_c, 3, 48, 64
5, 85680, Note_off_c, 3, 60, 64
5, 86400, Note_on_c, 3, 60, 80
5, 86400, Note_on_c, 3, 48, 80
5, 86640, Note_off_c, 3, 48, 64
5, 86640, Note_off_c, 3, 60, 64
5, 87600, Note_on_c, 3, 55, 47
5, 87600, Note_on_c, 3, 43, 50
5, 87720, Note_off_c, 3, 43, 64
5, 87720, Note_off_c, 3, 55, 64
5, 87840, Note_on_c, 3, 59, 66
5, 87840, Note_on_c, 3, 55, 71
5, 87960, Note_off_c, 3, 55, 64
5, 87960, Note_off_c, 3, 59, 64
5, 88080, Note_on_c, 3, 59, 63
5, 88080, Note_on_c, 3, 55, 61
5, 88200, Note_off_c, 3, 55, 64
5, 88200, Note_off_c, 3, 59, 64
5, 88320, Note_on_c, 3, 60, 80
5, 88320, Note_on_c, 3, 48, 80
5, 88560, Note_off_c, 3, 48, 64
5, 88560, Note_off_c, 3, 60, 64
5, 89520, Note_on_c, 3, 55, 44
5, 89520, Note_on_c, 3, 43, 52
5, 89640, Note_off_c, 3, 43, 64
5, 89640, Note_off_c, 3, 55, 64
5, 89760, Note_on_c, 3, 55, 45
5, 89760, Note_on_c, 3, 43, 62
5, 89880, Note_off_c, 3, 43, 64
5, 89880, Note_off_c, 3, 55, 64
5, 90000, Note_on_c, 3, 55, 43
5, 90000, Note_on_c, 3, 43, 59
5, 90120, Note_off_c, 3, 43, 64
5, 90120, Note_off_c, 3, 55, 64
5, 90240, Note_on_c, 3, 48, 69
5, 90360, Note_off_c, 3, 48, 64
5, 90360, Note_on_c, 3, 60, 77
5, 90480, Note_off_c, 3, 60, 64
5, 90480, Note_on_c, 3, 60, 67
5, 90600, Note_off_c, 3, 60, 64
5, 90600, Note_on_c, 3, 60, 62
5, 90720, Note_off_c, 3, 60, 64
5, 90720, Note_on_c, 3, 57, 84
5, 90840, Note_off_c, 3, 57, 64
5, 90840, Note_on_c, 3, 57, 81
5, 90960, Note_off_c, 3, 57, 64
5, 90960, Note_on_c, 3, 57, 73
5, 91080, Note_off_c, 3, 57, 64
5, 91080, Note_on_c, 3, 57, 89
5, 91200, Note_off_c, 3, 57, 64
5, 91200, Note_on_c, 3, 53, 76
5, 91320, Note_off_c, 3, 53, 64
5, 91320, Note_on_c, 3, 53, 76
5, 91440, Note_off_c, 3, 53, 64
5, 91440, Note_on_c, 3, 53, 74
5, 91560, Note_off_c, 3, 53, 64
5, 91560, Note_on_c, 3, 53, 78
5, 91680, Note_off_c, 3, 53, 64
5, 91680, Note_on_c, 3, 55, 81
5, 91800, Note_off_c, 3, 55, 64
5, 91800, Note_on_c, 3, 55, 78
5, 91920, Note_off_c, 3, 55, 64
5, 91920, Note_on_c, 3, 55, 77
5, 92040, Note_off_c, 3, 55, 64
5, 92040, Note_on_c, 3, 55, 86
5, 92160, Note_off_c, 3, 55, 64
5, 92160, Note_on_c, 3, 48, 89
5, 92280, Note_off_c, 3, 48, 64
5, 92280, Note_on_c, 3, 60, 67
5, 92400, Note_off_c, 3, 60, 64
5, 92400, Note_on_c, 3, 60, 81
5, 92520, Note_off_c, 3, 60, 64
5, 92520, Note_on_c, 3, 60, 85
5, 92640, Note_off_c, 3, 60, 64
5, 92640, Note_on_c, 3, 57, 84
5, 92760, Note_off_c, 3, 57, 64
5, 92760, Note_on_c, 3, 57, 89
5, 92880, Note_off_c, 3, 57, 64
5, 92880, Note_on_c, 3, 57, 89
5, 93000, Note_off_c, 3, 57, 64
5, 93000, Note_on_c, 3, 57, 86
5, 93120, Note_off_c, 3, 57, 64
5, 93120, Note_on_c, 3, 53, 76
5, 93240, Note_off_c, 3, 53, 64
5, 93240, Note_on_c, 3, 53, 85
5, 93360, Note_off_c, 3, 53, 64
5, 93360, Note_on_c, 3, 50, 95
5, 93480, Note_off_c, 3, 50, 64
5, 93480, Note_on_c, 3, 50, 94
5, 93600, Note_off_c, 3, 50, 64
5, 93600, Note_on_c, 3, 55, 86
5, 93720, Note_off_c, 3, 55, 64
5, 93720, Note_on_c, 3, 55, 80
5, 93840, Note_off_c, 3, 55, 64
5, 93840, Note_on_c, 3, 43, 86
5, 93960, Note_off_c, 3, 43, 64
5, 93960, Note_on_c, 3, 43, 90
5, 94080, Note_off_c, 3, 43, 64
5, 94080, Note_on_c, 3, 48, 84
5, 94080, Note_on_c, 3, 36, 99
5, 94560, Note_off_c, 3, 36, 64
5, 94560, Note_off_c, 3, 48, 64
5, 94560, Note_on_c, 3, 60, 80
5, 94560, Note_on_c, 3, 48, 93
5, 94680, Note_off_c, 3, 48, 64
5, 94680, Note_off_c, 3, 60, 64
5, 94800, Note_on_c, 3, 60, 89
5, 94800, Note_on_c, 3, 48, 94
5, 94920, Note_off_c, 3, 48, 64
5, 94920, Note_off_c, 3, 60, 64
5, 95040, Note_on_c, 3, 60, 85
5, 95040, Note_on_c, 3, 48, 94
5, 95280, Note_off_c, 3, 48, 64
5, 95280, Note_off_c, 3, 60, 64
5, 96000, Note_on_c, 3, 52, 127
5, 96000, Note_on_c, 3, 40, 119
5, 96480, Note_off_c, 3, 40, 64
5, 96480, Note_off_c, 3, 52, 64
5, 96480, Note_on_c, 3, 64, 125
5, 96480, Note_on_c, 3, 52, 123
5, 96600, Note_off_c, 3, 52, 64
5, 96600, Note_off_c, 3, 64, 64
5, 96720, Note_on_c, 3, 64, 125
5, 96720, Note_on_c, 3, 52, 123
5, 96840, Note_off_c, 3, 52, 64
5, 96840, Note_off_c, 3, 64, 64
5, 96960, Note_on_c, 3, 64, 127
5, 96960, Note_on_c, 3, 52, 127
5, 97200, Note_off_c, 3, 52, 64
5, 97200, Note_off_c, 3, 64, 64
5, 97920, Note_on_c, 3, 67, 119
5, 97920, Note_on_c, 3, 55, 119
5, 98400, Note_off_c, 3, 55, 64
5, 98400, Note_off_c, 3, 67, 64
5, 98400, Note_on_c, 3, 67, 80
5, 98400, Note_on_c, 3, 55, 80
5, 98520, Note_off_c, 3, 55, 64
5, 98520, Note_off_c, 3, 67, 64
5, 98520, Note_on_c, 3, 65, 80
5, 98520, Note_on_c, 3, 53, 80
5, 98580, Note_off_c, 3, 53, 64
5, 98580, Note_off_c, 3, 65, 64
5, 98580, Note_on_c, 3, 64, 80
5, 98580, Note_on_c, 3, 52, 80
5, 98640, Note_off_c, 3, 52, 64
5, 98640, Note_off_c, 3, 64, 64
5, 98640, Note_on_c, 3, 62, 80
5, 98640, Note_on_c, 3, 50, 80
5, 98700, Note_off_c, 3, 50, 64
5, 98700, Note_off_c, 3, 62, 64
5, 98700, Note_on_c, 3, 60, 80
5, 98700, Note_on_c, 3, 48, 80
5, 98760, Note_off_c, 3, 48, 64
5, 98760, Note_off_c, 3, 60, 64
5, 98760, Note_on_c, 3, 59, 80
5, 98760, Note_on_c, 3, 47, 80
5, 98820, Note_off_c, 3, 47, 64
5, 98820, Note_off_c, 3, 59, 64
5, 98820, Note_on_c, 3, 45, 80
5, 98820, Note_on_c, 3, 57, 80
5, 98880, Note_off_c, 3, 57, 64
5, 98880, Note_off_c, 3, 45, 64
5, 98880, Note_on_c, 3, 55, 80
5, 98880, Note_on_c, 3, 43, 80
5, 99120, Note_off_c, 3, 43, 64
5, 99120, Note_off_c, 3, 55, 64
5, 99360, Note_on_c, 3, 62, 80
5, 99360, Note_on_c, 3, 59, 80
5, 99600, Note_off_c, 3, 59, 64
5, 99600, Note_off_c, 3, 62, 64
5, 99840, Note_on_c, 3, 64, 80
5, 99840, Note_on_c, 3, 60, 80
5, 100080, Note_off_c, 3, 60, 64
5, 100080, Note_off_c, 3, 64, 64
5, 100260, Note_on_c, 3, 60, 80
5, 100260, Note_on_c, 3, 48, 80
5, 100320, Note_off_c, 3, 48, 64
5, 100320, Note_off_c, 3, 60, 64
5, 100320, Note_on_c, 3, 60, 80
5, 100320, Note_on_c, 3, 48, 80
5, 100560, Note_off_c, 3, 48, 64
5, 100560, Note_off_c, 3, 60, 64
5, 100740, Note_on_c, 3, 36, 80
5, 100740, Note_on_c, 3, 48, 80
5, 100800, Note_off_c, 3, 48, 64
5, 100800, Note_off_c, 3, 36, 64
5, 100800, Note_on_c, 3, 48, 80
5, 100800, Note_on_c, 3, 36, 80
5, 101040, Note_off_c, 3, 36, 64
5, 101040, Note_off_c, 3, 48, 64
5, 112320, Note_on_c, 3, 48, 123
5, 112320, Note_on_c, 3, 36, 123
5, 112800, Note_off_c, 3, 36, 64
5, 112800, Note_off_c, 3, 48, 64
5, 112800, Note_on_c, 3, 48, 125
5, 112800, Note_on_c, 3, 36, 127
5, 112920, Note_off_c, 3, 36, 64
5, 112920, Note_off_c, 3, 48, 64
5, 113040, Note_on_c, 3, 48, 127
5, 113040, Note_on_c, 3, 36, 127
5, 113160, Note_off_c, 3, 36, 64
5, 113160, Note_off_c, 3, 48, 64
5, 113280, Note_on_c, 3, 48, 127
5, 113280, Note_on_c, 3, 36, 127
5, 113520, Note_off_c, 3, 36, 64
5, 113520, Note_off_c, 3, 48, 64
5, 116160, Note_on_c, 3, 50, 123
5, 116160, Note_on_c, 3, 47, 119
5, 116640, Note_off_c, 3, 47, 64
5, 116640, Note_off_c, 3, 50, 64
5, 116640, Note_on_c, 3, 62, 112
5, 116640, Note_on_c, 3, 59, 107
5, 116760, Note_off_c, 3, 59, 64
5, 116760, Note_off_c, 3, 62, 64
5, 116880, Note_on_c, 3, 62, 112
5, 116880, Note_on_c, 3, 59, 119
5, 117000, Note_off_c, 3, 59, 64
5, 117000, Note_off_c, 3, 62, 64
5, 117120, Note_on_c, 3, 62, 112
5, 117120, Note_on_c, 3, 59, 115
5, 117360, Note_off_c, 3, 59, 64
5, 117360, Note_off_c, 3, 62, 64
5, 140640, Note_on_c, 3, 60, 84
5, 140640, Note_on_c, 3, 57, 89
5, 140760, Note_off_c, 3, 57, 64
5, 140760, Note_off_c, 3, 60, 64
5, 140880, Note_on_c, 3, 60, 81
5, 140880, Note_on_c, 3, 57, 89
5, 141000, Note_off_c, 3, 57, 64
5, 141000, Note_off_c, 3, 60, 64
5, 141120, Note_on_c, 3, 58, 73
5, 141120, Note_on_c, 3, 55, 73
5, 141240, Note_off_c, 3, 55, 64
5, 141240, Note_off_c, 3, 58, 64
5, 141600, Note_on_c, 3, 58, 81
5, 141600, Note_on_c, 3, 55, 77
5, 141720, Note_off_c, 3, 55, 64
5, 141720, Note_off_c, 3, 58, 64
5, 141840, Note_on_c, 3, 58, 81
5, 141840, Note_on_c, 3, 55, 72
5, 141960, Note_off_c, 3, 55, 64
5, 141960, Note_off_c, 3, 58, 64
5, 142080, Note_on_c, 3, 57, 94
5, 142080, Note_on_c, 3, 54, 70
5, 142200, Note_off_c, 3, 54, 64
5, 142200, Note_off_c, 3, 57, 64
5, 142560, Note_on_c, 3, 60, 84
5, 142560, Note_on_c, 3, 57, 84
5, 142680, Note_off_c, 3, 57, 64
5, 142680, Note_off_c, 3, 60, 64
5, 142800, Note_on_c, 3, 60, 80
5, 142800, Note_on_c, 3, 57, 77
5, 142920, Note_off_c, 3, 57, 64
5, 142920, Note_off_c, 3, 60, 64
5, 143040, Note_on_c, 3, 58, 76
5, 143040, Note_on_c, 3, 55, 71
5, 143160, Note_off_c, 3, 55, 64
5, 143160, Note_off_c, 3, 58, 64
5, 143520, Note_on_c, 3, 58, 82
5, 143520, Note_on_c, 3, 55, 64
5, 143640, Note_off_c, 3, 55, 64
5, 143640, Note_off_c, 3, 58, 64
5, 143760, Note_on_c, 3, 58, 80
5, 143760, Note_on_c, 3, 55, 74
5, 143880, Note_off_c, 3, 55, 64
5, 143880, Note_off_c, 3, 58, 64
5, 144000, Note_on_c, 3, 57, 64
5, 144000, Note_on_c, 3, 54, 71
5, 144120, Note_off_c, 3, 54, 64
5, 144120, Note_off_c, 3, 57, 64
5, 147840, Note_on_c, 3, 43, 80
5, 148080, Note_on_c, 3, 50, 80
5, 148320, Note_off_c, 3, 50, 64
5, 148320, Note_on_c, 3, 55, 80
5, 148560, Note_off_c, 3, 55, 64
5, 148560, Note_on_c, 3, 59, 80
5, 148800, Note_off_c, 3, 59, 64
5, 148800, Note_off_c, 3, 43, 64
5, 148800, Note_on_c, 3, 45, 80
5, 149040, Note_on_c, 3, 50, 80
5, 149280, Note_off_c, 3, 50, 64
5, 149280, Note_on_c, 3, 57, 80
5, 149520, Note_off_c, 3, 57, 64
5, 149520, Note_on_c, 3, 60, 80
5, 149760, Note_off_c, 3, 60, 64
5, 149760, Note_off_c, 3, 45, 64
5, 149760, Note_on_c, 3, 59, 80
5, 149760, Note_on_c, 3, 47, 80
5, 150000, Note_off_c, 3, 59, 64
5, 150000, Note_on_c, 3, 62, 80
5, 150240, Note_off_c, 3, 62, 64
5, 150240, Note_off_c, 3, 47, 64
5, 150240, Note_on_c, 3, 43, 80
5, 150240, Note_on_c, 3, 59, 80
5, 150480, Note_off_c, 3, 59, 64
5, 150480, Note_on_c, 3, 55, 80
5, 150720, Note_off_c, 3, 55, 64
5, 150720, Note_off_c, 3, 43, 64
5, 150720, Note_on_c, 3, 50, 80
5, 150960, Note_off_c, 3, 50, 64
5, 151680, Note_on_c, 3, 51, 80
5, 151920, Note_on_c, 3, 54, 80
5, 152160, Note_off_c, 3, 54, 64
5, 152160, Note_off_c, 3, 51, 64
5, 152160, Note_on_c, 3, 47, 80
5, 152160, Note_on_c, 3, 59, 80
5, 152400, Note_off_c, 3, 59, 64
5, 152400, Note_on_c, 3, 54, 80
5, 152640, Note_off_c, 3, 54, 64
5, 152640, Note_off_c, 3, 47, 64
5, 152640, Note_on_c, 3, 52, 80
5, 152880, Note_on_c, 3, 55, 80
5, 153120, Note_off_c, 3, 55, 64
5, 153120, Note_off_c, 3, 52, 64
5, 153120, Note_on_c, 3, 43, 80
5, 153360, Note_on_c, 3, 59, 80
5, 153480, Note_off_c, 3, 59, 64
5, 153480, Note_on_c, 3, 55, 80
5, 153600, Note_off_c, 3, 55, 64
5, 153600, Note_off_c, 3, 43, 64
5, 153600, Note_on_c, 3, 54, 80
5, 153600, Note_on_c, 3, 45, 80
5, 153840, Note_off_c, 3, 54, 64
5, 153840, Note_on_c, 3, 50, 80
5, 154080, Note_off_c, 3, 50, 64
5, 154080, Note_off_c, 3, 45, 64
5, 154080, Note_on_c, 3, 45, 80
5, 154080, Note_on_c, 3, 57, 80
5, 154320, Note_off_c, 3, 57, 64
5, 154320, Note_on_c, 3, 45, 80
5, 154560, Note_off_c, 3, 45, 64
5, 154560, Note_off_c, 3, 45, 64
5, 154560, Note_on_c, 3, 50, 80
5, 154800, Note_off_c, 3, 50, 64
5, 166320, Note_on_c, 3, 58, 80
5, 166560, Note_off_c, 3, 58, 64
5, 166560, Note_on_c, 3, 58, 80
5, 166800, Note_off_c, 3, 58, 64
5, 166800, Note_on_c, 3, 58, 80
5, 167040, Note_off_c, 3, 58, 64
5, 167040, Note_on_c, 3, 58, 80
5, 167520, Note_off_c, 3, 58, 64
5, 167520, Note_on_c, 3, 57, 80
5, 167640, Note_off_c, 3, 57, 64
5, 167640, Note_on_c, 3, 58, 80
5, 167760, Note_off_c, 3, 58, 64
5, 167760, Note_on_c, 3, 60, 80
5, 167880, Note_off_c, 3, 60, 64
5, 167880, Note_on_c, 3, 58, 80
5, 168000, Note_off_c, 3, 58, 64
5, 168000, Note_on_c, 3, 55, 80
5, 168240, Note_off_c, 3, 55, 64
5, 168960, Note_on_c, 3, 55, 80
5, 169440, Note_off_c, 3, 55, 64
5, 169440, Note_on_c, 3, 54, 80
5, 169560, Note_off_c, 3, 54, 64
5, 169560, Note_on_c, 3, 55, 80
5, 169680, Note_off_c, 3, 55, 64
5, 169680, Note_on_c, 3, 56, 80
5, 169800, Note_off_c, 3, 56, 64
5, 169800, Note_on_c, 3, 55, 80
5, 169920, Note_off_c, 3, 55, 64
5, 169920, Note_on_c, 3, 51, 80
5, 170160, Note_off_c, 3, 51, 64
5, 173760, Note_on_c, 3, 55, 80
5, 173760, Note_on_c, 3, 43, 80
5, 173880, Note_off_c, 3, 55, 64
5, 173880, Note_on_c, 3, 50, 80
5, 174000, Note_off_c, 3, 50, 64
5, 174000, Note_off_c, 3, 43, 64
5, 174000, Note_on_c, 3, 55, 80
5, 174120, Note_off_c, 3, 55, 64
5, 174120, Note_on_c, 3, 50, 80
5, 174240, Note_off_c, 3, 50, 64
5, 174240, Note_on_c, 3, 55, 80
5, 174360, Note_off_c, 3, 55, 64
5, 174360, Note_on_c, 3, 50, 80
5, 174480, Note_off_c, 3, 50, 64
5, 174480, Note_on_c, 3, 54, 80
5, 174600, Note_off_c, 3, 54, 64
5, 174600, Note_on_c, 3, 50, 80
5, 174720, Note_off_c, 3, 50, 64
5, 174720, Note_on_c, 3, 55, 80
5, 174720, Note_on_c, 3, 43, 80
5, 174840, Note_off_c, 3, 55, 64
5, 174840, Note_on_c, 3, 50, 80
5, 174960, Note_off_c, 3, 50, 64
5, 174960, Note_off_c, 3, 43, 64
5, 174960, Note_on_c, 3, 55, 80
5, 175080, Note_off_c, 3, 55, 64
5, 175080, Note_on_c, 3, 50, 80
5, 175200, Note_off_c, 3, 50, 64
5, 175200, Note_on_c, 3, 55, 80
5, 175320, Note_off_c, 3, 55, 64
5, 175320, Note_on_c, 3, 50, 80
5, 175440, Note_off_c, 3, 50, 64
5, 175440, Note_on_c, 3, 55, 80
5, 175560, Note_off_c, 3, 55, 64
5, 175560, Note_on_c, 3, 50, 80
5, 175680, Note_off_c, 3, 50, 64
5, 175680, Note_on_c, 3, 55, 80
5, 175800, Note_off_c, 3, 55, 64
5, 175800, Note_on_c, 3, 50, 80
5, 175920, Note_off_c, 3, 50, 64
5, 175920, Note_on_c, 3, 55, 80
5, 176040, Note_off_c, 3, 55, 64
5, 176040, Note_on_c, 3, 50, 80
5, 176160, Note_off_c, 3, 50, 64
5, 176160, Note_on_c, 3, 54, 80
5, 176280, Note_off_c, 3, 54, 64
5, 176280, Note_on_c, 3, 50, 80
5, 176400, Note_off_c, 3, 50, 64
5, 176400, Note_on_c, 3, 55, 80
5, 176520, Note_off_c, 3, 55, 64
5, 176520, Note_on_c, 3, 50, 80
5, 176640, Note_off_c, 3, 50, 64
5, 176640, Note_on_c, 3, 50, 80
5, 176880, Note_off_c, 3, 50, 64
5, 187920, Note_on_c, 3, 57, 80
5, 188160, Note_off_c, 3, 57, 64
5, 188160, Note_on_c, 3, 55, 80
5, 188400, Note_off_c, 3, 55, 64
5, 188400, Note_on_c, 3, 43, 80
5, 188640, Note_off_c, 3, 43, 64
5, 189840, Note_on_c, 3, 60, 80
5, 190080, Note_off_c, 3, 60, 64
5, 190080, Note_on_c, 3, 59, 80
5, 190320, Note_off_c, 3, 59, 64
5, 199920, Note_on_c, 3, 47, 80
5, 199920, Note_on_c, 3, 43, 73
5, 200040, Note_off_c, 3, 43, 64
5, 200040, Note_off_c, 3, 47, 64
5, 200160, Note_on_c, 3, 48, 72
5, 200160, Note_on_c, 3, 45, 73
5, 200280, Note_off_c, 3, 45, 64
5, 200280, Note_off_c, 3, 48, 64
5, 200400, Note_on_c, 3, 50, 72
5, 200400, Note_on_c, 3, 47, 78
5, 200520, Note_off_c, 3, 47, 64
5, 200520, Note_off_c, 3, 50, 64
5, 200640, Note_on_c, 3, 52, 61
5, 200640, Note_on_c, 3, 48, 76
5, 200760, Note_off_c, 3, 48, 64
5, 200760, Note_off_c, 3, 52, 64
5, 200880, Note_on_c, 3, 54, 46
5, 200880, Note_on_c, 3, 50, 80
5, 201000, Note_off_c, 3, 50, 64
5, 201000, Note_off_c, 3, 54, 64
5, 201120, Note_on_c, 3, 55, 68
5, 201120, Note_on_c, 3, 52, 80
5, 201240, Note_off_c, 3, 52, 64
5, 201240, Note_off_c, 3, 55, 64
5, 201360, Note_on_c, 3, 57, 84
5, 201360, Note_on_c, 3, 54, 71
5, 201480, Note_off_c, 3, 54, 64
5, 201480, Note_off_c, 3, 57, 64
5, 201600, Note_on_c, 3, 59, 73
5, 201600, Note_on_c, 3, 55, 66
5, 201720, Note_off_c, 3, 55, 64
5, 201720, Note_off_c, 3, 59, 64
5, 215040, Note_on_c, 3, 62, 80
5, 215040, Note_on_c, 3, 50, 80
5, 215280, Note_off_c, 3, 50, 64
5, 216000, Note_off_c, 3, 62, 64
5, 216000, Note_on_c, 3, 62, 80
5, 216960, Note_off_c, 3, 62, 64
5, 216960, Note_on_c, 3, 62, 69
5, 217080, Note_off_c, 3, 62, 64
5, 217080, Note_on_c, 3, 50, 81
5, 217140, Note_off_c, 3, 50, 64
5, 217200, Note_on_c, 3, 52, 93
5, 217260, Note_off_c, 3, 52, 64
5, 217320, Note_on_c, 3, 54, 73
5, 217380, Note_off_c, 3, 54, 64
5, 217440, Note_on_c, 3, 55, 82
5, 217500, Note_off_c, 3, 55, 64
5, 217560, Note_on_c, 3, 57, 89
5, 217620, Note_off_c, 3, 57, 64
5, 217680, Note_on_c, 3, 59, 84
5, 217740, Note_off_c, 3, 59, 64
5, 217800, Note_on_c, 3, 60, 86
5, 217860, Note_off_c, 3, 60, 64
5, 217920, Note_on_c, 3, 62, 73
5, 218040, Note_off_c, 3, 62, 64
5, 218040, Note_on_c, 3, 55, 64
5, 218040, Note_on_c, 3, 43, 78
5, 218100, Note_off_c, 3, 43, 64
5, 218100, Note_off_c, 3, 55, 64
5, 218160, Note_on_c, 3, 57, 77
5, 218160, Note_on_c, 3, 45, 84
5, 218220, Note_off_c, 3, 45, 64
5, 218220, Note_off_c, 3, 57, 64
5, 218280, Note_on_c, 3, 59, 76
5, 218280, Note_on_c, 3, 47, 78
5, 218340, Note_off_c, 3, 47, 64
5, 218340, Note_off_c, 3, 59, 64
5, 218400, Note_on_c, 3, 60, 72
5, 218400, Note_on_c, 3, 48, 80
5, 218460, Note_off_c, 3, 48, 64
5, 218460, Note_off_c, 3, 60, 64
5, 218520, Note_on_c, 3, 62, 67
5, 218520, Note_on_c, 3, 50, 82
5, 218580, Note_off_c, 3, 50, 64
5, 218580, Note_off_c, 3, 62, 64
5, 218640, Note_on_c, 3, 64, 76
5, 218640, Note_on_c, 3, 52, 86
5, 218700, Note_off_c, 3, 52, 64
5, 218700, Note_off_c, 3, 64, 64
5, 218760, Note_on_c, 3, 66, 72
5, 218760, Note_on_c, 3, 54, 80
5, 218820, Note_off_c, 3, 54, 64
5, 218820, Note_off_c, 3, 66, 64
5, 218880, Note_on_c, 3, 67, 67
5, 218880, Note_on_c, 3, 55, 80
5, 219000, Note_off_c, 3, 55, 64
5, 219000, Note_off_c, 3, 67, 64
5, 219120, Note_on_c, 3, 62, 73
5, 219120, Note_on_c, 3, 59, 84
5, 219600, Note_off_c, 3, 59, 64
5, 219600, Note_off_c, 3, 62, 64
5, 219600, Note_on_c, 3, 60, 65
5, 219600, Note_on_c, 3, 57, 84
5, 219720, Note_off_c, 3, 57, 64
5, 219720, Note_off_c, 3, 60, 64
5, 219840, Note_on_c, 3, 59, 81
5, 219840, Note_on_c, 3, 55, 73
5, 219960, Note_off_c, 3, 55, 64
5, 219960, Note_off_c, 3, 59, 64
5, 220080, Note_on_c, 3, 57, 57
5, 220080, Note_on_c, 3, 50, 73
5, 220200, Note_off_c, 3, 50, 64
5, 220200, Note_off_c, 3, 57, 64
5, 220320, Note_on_c, 3, 55, 40
5, 220320, Note_on_c, 3, 47, 80
5, 220440, Note_off_c, 3, 47, 64
5, 220440, Note_off_c, 3, 55, 64
5, 220560, Note_on_c, 3, 57, 77
5, 220560, Note_on_c, 3, 50, 90
5, 220680, Note_off_c, 3, 50, 64
5, 220680, Note_off_c, 3, 57, 64
5, 220800, Note_on_c, 3, 59, 76
5, 220800, Note_on_c, 3, 55, 76
5, 220920, Note_off_c, 3, 55, 64
5, 220920, Note_off_c, 3, 59, 64
5, 226560, Note_on_c, 3, 55, 74
5, 226560, Note_on_c, 3, 55, 80
5, 227040, Note_off_c, 3, 55, 64
5, 227040, Note_on_c, 3, 67, 93
5, 227160, Note_off_c, 3, 67, 64
5, 227280, Note_on_c, 3, 67, 89
5, 227400, Note_off_c, 3, 67, 64
5, 227520, Note_off_c, 3, 55, 64
5, 227520, Note_on_c, 3, 67, 77
5, 227520, Note_on_c, 3, 49, 76
5, 227640, Note_off_c, 3, 67, 64
5, 227640, Note_on_c, 3, 65, 94
5, 227760, Note_off_c, 3, 65, 64
5, 227760, Note_on_c, 3, 64, 93
5, 227880, Note_off_c, 3, 64, 64
5, 227880, Note_on_c, 3, 62, 85
5, 228000, Note_off_c, 3, 62, 64
5, 228000, Note_on_c, 3, 61, 84
5, 228120, Note_off_c, 3, 61, 64
5, 228120, Note_on_c, 3, 58, 86
5, 228240, Note_off_c, 3, 58, 64
5, 228240, Note_on_c, 3, 57, 94
5, 228360, Note_off_c, 3, 57, 64
5, 228360, Note_on_c, 3, 55, 89
5, 228480, Note_off_c, 3, 55, 64
5, 228480, Note_off_c, 3, 49, 64
5, 228480, Note_on_c, 3, 53, 84
5, 228480, Note_on_c, 3, 50, 93
5, 228960, Note_off_c, 3, 50, 64
5, 228960, Note_off_c, 3, 53, 64
5, 228960, Note_on_c, 3, 65, 94
5, 229080, Note_off_c, 3, 65, 64
5, 229200, Note_on_c, 3, 65, 94
5, 229320, Note_off_c, 3, 65, 64
5, 229440, Note_on_c, 3, 65, 93
5, 229440, Note_on_c, 3, 47, 95
5, 229560, Note_off_c, 3, 65, 64
5, 229560, Note_on_c, 3, 64, 89
5, 229680, Note_off_c, 3, 64, 64
5, 229680, Note_on_c, 3, 62, 94
5, 229800, Note_off_c, 3, 62, 64
5, 229800, Note_on_c, 3, 60, 89
5, 229920, Note_off_c, 3, 60, 64
5, 229920, Note_on_c, 3, 59, 84
5, 230040, Note_off_c, 3, 59, 64
5, 230040, Note_on_c, 3, 57, 89
5, 230160, Note_off_c, 3, 57, 64
5, 230160, Note_on_c, 3, 55, 84
5, 230280, Note_off_c, 3, 55, 64
5, 230280, Note_on_c, 3, 53, 93
5, 230400, Note_off_c, 3, 53, 64
5, 230400, Note_off_c, 3, 47, 64
5, 230400, Note_on_c, 3, 52, 95
5, 230400, Note_on_c, 3, 48, 76
5, 230640, Note_off_c, 3, 48, 64
5, 230640, Note_off_c, 3, 52, 64
5, 230640, Note_on_c, 3, 64, 89
5, 230760, Note_off_c, 3, 64, 64
5, 230760, Note_on_c, 3, 62, 86
5, 230880, Note_off_c, 3, 62, 64
5, 230880, Note_on_c, 3, 60, 89
5, 231000, Note_off_c, 3, 60, 64
5, 231000, Note_on_c, 3, 59, 94
5, 231120, Note_off_c, 3, 59, 64
5, 231120, Note_on_c, 3, 60, 93
5, 231120, Note_on_c, 3, 57, 94
5, 231240, Note_off_c, 3, 57, 64
5, 231240, Note_off_c, 3, 60, 64
5, 231240, Note_on_c, 3, 55, 82
5, 231360, Note_off_c, 3, 55, 64
5, 231360, Note_on_c, 3, 60, 76
5, 231360, Note_on_c, 3, 54, 86
5, 231480, Note_off_c, 3, 54, 64
5, 231480, Note_off_c, 3, 60, 64
5, 231480, Note_on_c, 3, 59, 94
5, 231600, Note_off_c, 3, 59, 64
5, 231600, Note_on_c, 3, 57, 89
5, 231660, Note_off_c, 3, 57, 64
5, 231720, Note_on_c, 3, 55, 84
5, 231780, Note_off_c, 3, 55, 64
5, 231840, Note_on_c, 3, 54, 84
5, 231900, Note_off_c, 3, 54, 64
5, 231960, Note_on_c, 3, 52, 95
5, 232020, Note_off_c, 3, 52, 64
5, 232080, Note_on_c, 3, 50, 93
5, 232140, Note_off_c, 3, 50, 64
5, 232200, Note_on_c, 3, 48, 89
5, 232260, Note_off_c, 3, 48, 64
5, 232320, Note_on_c, 3, 59, 90
5, 232320, Note_on_c, 3, 47, 94
5, 232800, Note_off_c, 3, 47, 64
5, 232800, Note_off_c, 3, 59, 64
5, 232800, Note_on_c, 3, 62, 94
5, 232920, Note_off_c, 3, 62, 64
5, 233040, Note_on_c, 3, 62, 94
5, 233160, Note_off_c, 3, 62, 64
5, 233280, Note_on_c, 3, 62, 80
5, 233400, Note_off_c, 3, 62, 64
5, 233400, Note_on_c, 3, 60, 84
5, 233520, Note_off_c, 3, 60, 64
5, 233520, Note_on_c, 3, 59, 89
5, 233580, Note_off_c, 3, 59, 64
5, 233640, Note_on_c, 3, 57, 95
5, 233700, Note_off_c, 3, 57, 64
5, 233760, Note_on_c, 3, 56, 93
5, 233820, Note_off_c, 3, 56, 64
5, 233880, Note_on_c, 3, 54, 86
5, 233940, Note_off_c, 3, 54, 64
5, 234000, Note_on_c, 3, 52, 99
5, 234060, Note_off_c, 3, 52, 64
5, 234120, Note_on_c, 3, 50, 98
5, 234180, Note_off_c, 3, 50, 64
5, 234240, Note_on_c, 3, 48, 82
5, 234360, Note_off_c, 3, 48, 64
5, 234360, Note_on_c, 3, 63, 84
5, 234480, Note_off_c, 3, 63, 64
5, 234480, Note_on_c, 3, 64, 94
5, 234600, Note_off_c, 3, 64, 64
5, 234600, Note_on_c, 3, 59, 95
5, 234720, Note_off_c, 3, 59, 64
5, 234720, Note_on_c, 3, 60, 89
5, 234840, Note_off_c, 3, 60, 64
5, 234840, Note_on_c, 3, 59, 89
5, 234960, Note_off_c, 3, 59, 64
5, 234960, Note_on_c, 3, 60, 93
5, 235080, Note_off_c, 3, 60, 64
5, 235080, Note_on_c, 3, 56, 84
5, 235200, Note_off_c, 3, 56, 64
5, 235200, Note_on_c, 3, 57, 94
5, 235320, Note_off_c, 3, 57, 64
5, 235320, Note_on_c, 3, 59, 101
5, 235440, Note_off_c, 3, 59, 64
5, 235440, Note_on_c, 3, 60, 86
5, 235560, Note_off_c, 3, 60, 64
5, 235560, Note_on_c, 3, 59, 95
5, 235680, Note_off_c, 3, 59, 64
5, 235680, Note_on_c, 3, 57, 94
5, 235800, Note_off_c, 3, 57, 64
5, 235800, Note_on_c, 3, 55, 82
5, 235920, Note_off_c, 3, 55, 64
5, 235920, Note_on_c, 3, 54, 89
5, 236040, Note_off_c, 3, 54, 64
5, 236040, Note_on_c, 3, 52, 95
5, 236160, Note_off_c, 3, 52, 64
5, 236160, Note_on_c, 3, 50, 86
5, 236280, Note_off_c, 3, 50, 64
5, 236280, Note_on_c, 3, 62, 64
5, 236280, Note_on_c, 3, 50, 94
5, 236400, Note_off_c, 3, 50, 64
5, 236400, Note_off_c, 3, 62, 64
5, 236400, Note_on_c, 3, 62, 68
5, 236400, Note_on_c, 3, 50, 93
5, 236520, Note_off_c, 3, 50, 64
5, 236520, Note_off_c, 3, 62, 64
5, 236520, Note_on_c, 3, 62, 80
5, 236520, Note_on_c, 3, 50, 98
5, 236640, Note_off_c, 3, 50, 64
5, 236640, Note_off_c, 3, 62, 64
5, 236640, Note_on_c, 3, 52, 93
5, 236640, Note_on_c, 3, 64, 94
5, 237120, Note_off_c, 3, 64, 64
5, 237120, Note_off_c, 3, 52, 64
5, 237120, Note_on_c, 3, 60, 90
5, 237120, Note_on_c, 3, 48, 86
5, 237600, Note_off_c, 3, 48, 64
5, 237600, Note_off_c, 3, 60, 64
5, 237600, Note_on_c, 3, 50, 93
5, 237600, Note_on_c, 3, 62, 73
5, 238080, Note_off_c, 3, 62, 64
5, 238080, Note_off_c, 3, 50, 64
5, 238080, Note_on_c, 3, 55, 82
5, 238080, Note_on_c, 3, 43, 89
5, 238320, Note_off_c, 3, 43, 64
5, 238320, Note_off_c, 3, 55, 64
5, 239160, Note_on_c, 3, 55, 62
5, 239160, Note_on_c, 3, 43, 78
5, 239220, Note_off_c, 3, 43, 64
5, 239220, Note_off_c, 3, 55, 64
5, 239280, Note_on_c, 3, 57, 73
5, 239280, Note_on_c, 3, 45, 76
5, 239340, Note_off_c, 3, 45, 64
5, 239340, Note_off_c, 3, 57, 64
5, 239400, Note_on_c, 3, 59, 62
5, 239400, Note_on_c, 3, 47, 64
5, 239460, Note_off_c, 3, 47, 64
5, 239460, Note_off_c, 3, 59, 64
5, 239520, Note_on_c, 3, 60, 68
5, 239520, Note_on_c, 3, 48, 69
5, 239580, Note_off_c, 3, 48, 64
5, 239580, Note_off_c, 3, 60, 64
5, 239640, Note_on_c, 3, 62, 65
5, 239640, Note_on_c, 3, 50, 73
5, 239700, Note_off_c, 3, 50, 64
5, 239700, Note_off_c, 3, 62, 64
5, 239760, Note_on_c, 3, 64, 73
5, 239760, Note_on_c, 3, 52, 81
5, 239820, Note_off_c, 3, 52, 64
5, 239820, Note_off_c, 3, 64, 64
5, 239880, Note_on_c, 3, 66, 76
5, 239880, Note_on_c, 3, 54, 80
5, 239940, Note_off_c, 3, 54, 64
5, 239940, Note_off_c, 3, 66, 64
5, 240000, Note_on_c, 3, 67, 64
5, 240000, Note_on_c, 3, 55, 69
5, 240120, Note_off_c, 3, 55, 64
5, 240120, Note_off_c, 3, 67, 64
5, 240240, Note_on_c, 3, 62, 80
5, 240240, Note_on_c, 3, 59, 84
5, 240720, Note_off_c, 3, 59, 64
5, 240720, Note_off_c, 3, 62, 64
5, 240720, Note_on_c, 3, 60, 65
5, 240720, Note_on_c, 3, 57, 84
5, 240840, Note_off_c, 3, 57, 64
5, 240840, Note_off_c, 3, 60, 64
5, 240960, Note_on_c, 3, 59, 81
5, 240960, Note_on_c, 3, 55, 84
5, 241080, Note_off_c, 3, 55, 64
5, 241080, Note_off_c, 3, 59, 64
5, 241200, Note_on_c, 3, 59, 72
5, 241200, Note_on_c, 3, 55, 85
5, 241320, Note_off_c, 3, 55, 64
5, 241320, Note_off_c, 3, 59, 64
5, 241440, Note_on_c, 3, 60, 78
5, 241440, Note_on_c, 3, 57, 93
5, 241560, Note_off_c, 3, 57, 64
5, 241560, Note_off_c, 3, 60, 64
5, 241680, Note_on_c, 3, 57, 78
5, 241680, Note_on_c, 3, 54, 84
5, 241800, Note_off_c, 3, 54, 64
5, 241800, Note_off_c, 3, 57, 64
5, 241920, Note_on_c, 3, 55, 84
5, 242160, Note_off_c, 3, 55, 64
5, 242400, Note_on_c, 3, 57, 89
5, 242400, Note_on_c, 3, 54, 89
5, 242640, Note_off_c, 3, 54, 64
5, 242640, Note_off_c, 3, 57, 64
5, 242880, Note_on_c, 3, 59, 86
5, 242880, Note_on_c, 3, 55, 85
5, 243120, Note_off_c, 3, 55, 64
5, 243120, Note_off_c, 3, 59, 64
5, 243360, Note_on_c, 3, 62, 65
5, 243360, Note_on_c, 3, 50, 90
5, 243600, Note_off_c, 3, 50, 64
5, 243600, Note_off_c, 3, 62, 64
5, 243840, Note_on_c, 3, 67, 72
5, 243840, Note_on_c, 3, 55, 89
5, 244080, Note_off_c, 3, 55, 64
5, 244080, Note_off_c, 3, 67, 64
5, 244260, Note_on_c, 3, 55, 80
5, 244320, Note_off_c, 3, 55, 64
5, 244320, Note_on_c, 3, 55, 80
5, 244560, Note_off_c, 3, 55, 64
5, 244740, Note_on_c, 3, 43, 80
5, 244800, Note_off_c, 3, 43, 64
5, 244800, Note_on_c, 3, 43, 80
5, 245040, Note_off_c, 3, 43, 64
5, 249600, Note_on_c, 3, 62, 80
5, 249600, Note_on_c, 3, 56, 80
5, 250080, Note_off_c, 3, 56, 64
5, 250080, Note_off_c, 3, 62, 64
5, 250080, Note_on_c, 3, 58, 89
5, 250080, Note_on_c, 3, 56, 90
5, 250200, Note_off_c, 3, 56, 64
5, 250200, Note_off_c, 3, 58, 64
5, 250320, Note_on_c, 3, 58, 89
5, 250320, Note_on_c, 3, 56, 89
5, 250440, Note_off_c, 3, 56, 64
5, 250440, Note_off_c, 3, 58, 64
5, 250560, Note_on_c, 3, 58, 80
5, 250560, Note_on_c, 3, 55, 80
5, 250800, Note_off_c, 3, 55, 64
5, 250800, Note_off_c, 3, 58, 64
5, 251520, Note_on_c, 3, 60, 80
5, 251520, Note_on_c, 3, 56, 80
5, 251760, Note_off_c, 3, 56, 64
5, 251760, Note_off_c, 3, 60, 64
5, 252480, Note_on_c, 3, 63, 80
5, 252480, Note_on_c, 3, 55, 80
5, 252720, Note_off_c, 3, 55, 64
5, 252720, Note_off_c, 3, 63, 64
5, 253440, Note_on_c, 3, 56, 80
5, 253440, Note_on_c, 3, 53, 80
5, 253680, Note_off_c, 3, 53, 64
5, 253680, Note_off_c, 3, 56, 64
5, 253920, Note_on_c, 3, 56, 80
5, 253920, Note_on_c, 3, 53, 80
5, 254160, Note_off_c, 3, 53, 64
5, 254160, Note_off_c, 3, 56, 64
5, 254400, Note_on_c, 3, 55, 80
5, 254400, Note_on_c, 3, 51, 80
5, 254640, Note_off_c, 3, 51, 64
5, 254640, Note_off_c, 3, 55, 64
5, 254640, Control_c, 3, 7, 100
5, 254640, Control_c, 3, 10, 90
5, 254640, Control_c, 3, 93, 0
5, 254640, Control_c, 3, 91, 66
5, 266160, Control_c, 3, 7, 100
5, 266160, Control_c, 3, 10, 90
5, 266160, Control_c, 3, 93, 0
5, 266160, Control_c, 3, 91, 66
5, 266400, Control_c, 3, 7, 100
5, 266400, Control_c, 3, 10, 90
5, 266400, Control_c, 3, 93, 0
5, 266400, Control_c, 3, 91, 66
5, 266640, Control_c, 3, 7, 100
5, 266640, Control_c, 3, 10, 90
5, 266640, Control_c, 3, 93, 0
5, 266640, Control_c, 3, 91, 66
5, 266880, Control_c, 3, 7, 100
5, 266880, Control_c, 3, 10, 90
5, 266880, Control_c, 3, 93, 0
5, 266880, Control_c, 3, 91, 66
5, 267120, Control_c, 3, 7, 100
5, 267120, Control_c, 3, 10, 90
5, 267120, Control_c, 3, 93, 0
5, 267120, Control_c, 3, 91, 66
5, 267360, Control_c, 3, 7, 100
5, 267360, Control_c, 3, 10, 90
5, 267360, Control_c, 3, 93, 0
5, 267360, Control_c, 3, 91, 66
5, 267600, Control_c, 3, 7, 100
5, 267600, Control_c, 3, 10, 90
5, 267600, Control_c, 3, 93, 0
5, 267600, Control_c, 3, 91, 66
5, 279360, Note_on_c, 3, 48, 80
5, 279840, Note_off_c, 3, 48, 64
5, 279840, Note_on_c, 3, 60, 86
5, 279960, Note_off_c, 3, 60, 64
5, 280080, Note_on_c, 3, 60, 86
5, 280200, Note_off_c, 3, 60, 64
5, 280320, Control_c, 3, 7, 100
5, 280320, Control_c, 3, 10, 90
5, 280320, Control_c, 3, 93, 0
5, 280320, Control_c, 3, 91, 66
5, 280320, Note_on_c, 3, 60, 80
5, 280800, Note_off_c, 3, 60, 64
5, 280800, Note_on_c, 3, 58, 80
5, 281040, Note_off_c, 3, 58, 64
5, 281040, Note_on_c, 3, 56, 80
5, 281280, Note_off_c, 3, 56, 64
5, 281280, Note_on_c, 3, 55, 80
5, 281520, Note_off_c, 3, 55, 64
5, 281520, Note_on_c, 3, 56, 80
5, 281760, Note_off_c, 3, 56, 64
5, 281760, Note_on_c, 3, 55, 80
5, 282000, Note_off_c, 3, 55, 64
5, 282000, Note_on_c, 3, 53, 80
5, 282240, Note_off_c, 3, 53, 64
5, 282240, Note_on_c, 3, 52, 80
5, 282480, Note_off_c, 3, 52, 64
5, 282960, Note_on_c, 3, 48, 80
5, 283200, Note_off_c, 3, 48, 64
5, 283200, Note_on_c, 3, 53, 80
5, 283680, Note_off_c, 3, 53, 64
5, 283680, Note_on_c, 3, 65, 74
5, 283800, Note_off_c, 3, 65, 64
5, 283920, Note_on_c, 3, 65, 80
5, 284040, Note_off_c, 3, 65, 64
5, 284160, Note_on_c, 3, 65, 80
5, 284400, Note_off_c, 3, 65, 64
5, 284400, Note_on_c, 3, 63, 80
5, 284640, Note_off_c, 3, 63, 64
5, 284640, Note_on_c, 3, 61, 80
5, 284880, Note_off_c, 3, 61, 64
5, 284880, Note_on_c, 3, 60, 80
5, 285120, Note_off_c, 3, 60, 64
5, 285120, Note_on_c, 3, 59, 80
5, 285360, Note_off_c, 3, 59, 64
5, 286800, Note_on_c, 3, 43, 80
5, 287040, Note_off_c, 3, 43, 64
5, 287040, Note_on_c, 3, 48, 80
5, 287520, Note_off_c, 3, 48, 64
5, 287520, Note_on_c, 3, 60, 80
5, 287760, Note_off_c, 3, 60, 64
5, 287760, Note_on_c, 3, 60, 80
5, 288000, Note_off_c, 3, 60, 64
5, 288000, Note_on_c, 3, 60, 80
5, 288240, Note_off_c, 3, 60, 64
5, 288240, Note_on_c, 3, 58, 80
5, 288480, Note_off_c, 3, 58, 64
5, 288480, Note_on_c, 3, 56, 80
5, 288720, Note_off_c, 3, 56, 64
5, 288720, Note_on_c, 3, 55, 80
5, 288960, Note_off_c, 3, 55, 64
5, 288960, Note_on_c, 3, 54, 80
5, 289200, Note_off_c, 3, 54, 64
5, 292800, Note_on_c, 3, 55, 80
5, 293040, Note_off_c, 3, 55, 64
5, 293280, Note_on_c, 3, 67, 81
5, 293400, Note_off_c, 3, 67, 64
5, 293520, Note_on_c, 3, 67, 81
5, 293640, Note_off_c, 3, 67, 64
5, 293760, Note_on_c, 3, 67, 80
5, 294240, Note_off_c, 3, 67, 64
5, 294240, Note_on_c, 3, 65, 80
5, 294360, Note_off_c, 3, 65, 64
5, 294360, Note_on_c, 3, 63, 80
5, 294480, Note_off_c, 3, 63, 64
5, 294480, Note_on_c, 3, 62, 80
5, 294600, Note_off_c, 3, 62, 64
5, 294600, Note_on_c, 3, 60, 80
5, 294720, Note_off_c, 3, 60, 64
5, 294720, Note_on_c, 3, 59, 80
5, 294960, Note_off_c, 3, 59, 64
5, 296760, Note_on_c, 3, 66, 80
5, 296880, Note_off_c, 3, 66, 64
5, 296880, Note_on_c, 3, 67, 80
5, 297000, Note_off_c, 3, 67, 64
5, 297000, Note_on_c, 3, 66, 80
5, 297120, Note_off_c, 3, 66, 64
5, 297120, Note_on_c, 3, 67, 80
5, 297240, Note_off_c, 3, 67, 64
5, 297240, Note_on_c, 3, 66, 80
5, 297360, Note_off_c, 3, 66, 64
5, 297360, Note_on_c, 3, 67, 80
5, 297480, Note_off_c, 3, 67, 64
5, 297480, Note_on_c, 3, 66, 80
5, 297600, Note_off_c, 3, 66, 64
5, 297600, Note_on_c, 3, 67, 80
5, 298080, Note_off_c, 3, 67, 64
5, 298080, Note_on_c, 3, 65, 80
5, 298200, Note_off_c, 3, 65, 64
5, 298200, Note_on_c, 3, 63, 80
5, 298320, Note_off_c, 3, 63, 64
5, 298320, Note_on_c, 3, 62, 80
5, 298440, Note_off_c, 3, 62, 64
5, 298440, Note_on_c, 3, 60, 80
5, 298560, Note_off_c, 3, 60, 64
5, 298560, Note_on_c, 3, 55, 80
5, 298800, Note_off_c, 3, 55, 64
5, 310800, Control_c, 3, 7, 100
5, 310800, Control_c, 3, 10, 90
5, 310800, Control_c, 3, 93, 0
5, 310800, Control_c, 3, 91, 66
5, 311040, Control_c, 3, 7, 100
5, 311040, Control_c, 3, 10, 90
5, 311040, Control_c, 3, 93, 0
5, 311040, Control_c, 3, 91, 66
5, 311280, Control_c, 3, 7, 100
5, 311280, Control_c, 3, 10, 90
5, 311280, Control_c, 3, 93, 0
5, 311280, Control_c, 3, 91, 66
5, 311520, Control_c, 3, 7, 100
5, 311520, Control_c, 3, 10, 90
5, 311520, Control_c, 3, 93, 0
5, 311520, Control_c, 3, 91, 66
5, 311760, Control_c, 3, 7, 100
5, 311760, Control_c, 3, 10, 90
5, 311760, Control_c, 3, 93, 0
5, 311760, Control_c, 3, 91, 66
5, 312000, Control_c, 3, 7, 100
5, 312000, Control_c, 3, 10, 90
5, 312000, Control_c, 3, 93, 0
5, 312000, Control_c, 3, 91, 66
5, 312240, Control_c, 3, 7, 100
5, 312240, Control_c, 3, 10, 90
5, 312240, Control_c, 3, 93, 0
5, 312240, Control_c, 3, 91, 66
5, 312480, Control_c, 3, 7, 100
5, 312480, Control_c, 3, 10, 90
5, 312480, Control_c, 3, 93, 0
5, 312480, Control_c, 3, 91, 66
5, 312720, Control_c, 3, 7, 100
5, 312720, Control_c, 3, 10, 90
5, 312720, Control_c, 3, 93, 0
5, 312720, Control_c, 3, 91, 66
5, 331200, Note_on_c, 3, 48, 80
5, 331200, Note_on_c, 3, 36, 80
5, 331680, Note_off_c, 3, 36, 64
5, 331680, Note_off_c, 3, 48, 64
5, 331680, Note_on_c, 3, 60, 125
5, 331680, Note_on_c, 3, 48, 125
5, 331800, Note_off_c, 3, 48, 64
5, 331800, Note_off_c, 3, 60, 64
5, 331920, Note_on_c, 3, 60, 123
5, 331920, Note_on_c, 3, 48, 125
5, 332040, Note_off_c, 3, 48, 64
5, 332040, Note_off_c, 3, 60, 64
5, 332160, Note_on_c, 3, 60, 127
5, 332160, Note_on_c, 3, 48, 127
5, 332400, Note_off_c, 3, 48, 64
5, 332400, Note_off_c, 3, 60, 64
5, 333120, Note_on_c, 3, 60, 123
5, 333120, Note_on_c, 3, 48, 127
5, 333240, Note_off_c, 3, 48, 64
5, 333240, Note_off_c, 3, 60, 64
5, 333360, Note_on_c, 3, 59, 127
5, 333360, Note_on_c, 3, 47, 127
5, 333480, Note_off_c, 3, 47, 64
5, 333480, Note_off_c, 3, 59, 64
5, 333600, Note_on_c, 3, 60, 119
5, 333600, Note_on_c, 3, 48, 127
5, 333720, Note_off_c, 3, 48, 64
5, 333720, Note_off_c, 3, 60, 64
5, 333840, Note_on_c, 3, 55, 123
5, 333840, Note_on_c, 3, 43, 125
5, 333960, Note_off_c, 3, 43, 64
5, 333960, Note_off_c, 3, 55, 64
5, 334080, Note_on_c, 3, 60, 125
5, 334080, Note_on_c, 3, 48, 127
5, 334200, Note_off_c, 3, 48, 64
5, 334200, Note_off_c, 3, 60, 64
5, 334320, Note_on_c, 3, 55, 123
5, 334320, Note_on_c, 3, 43, 125
5, 334440, Note_off_c, 3, 43, 64
5, 334440, Note_off_c, 3, 55, 64
5, 335040, Note_on_c, 3, 50, 125
5, 335040, Note_on_c, 3, 47, 127
5, 335520, Note_off_c, 3, 47, 64
5, 335520, Note_off_c, 3, 50, 64
5, 335520, Note_on_c, 3, 62, 123
5, 335520, Note_on_c, 3, 59, 123
5, 335640, Note_off_c, 3, 59, 64
5, 335640, Note_off_c, 3, 62, 64
5, 335760, Note_on_c, 3, 62, 125
5, 335760, Note_on_c, 3, 59, 127
5, 335880, Note_off_c, 3, 59, 64
5, 335880, Note_off_c, 3, 62, 64
5, 336000, Note_on_c, 3, 62, 127
5, 336000, Note_on_c, 3, 59, 127
5, 336240, Note_off_c, 3, 59, 64
5, 336240, Note_off_c, 3, 62, 64
5, 336960, Note_on_c, 3, 55, 127
5, 336960, Note_on_c, 3, 43, 123
5, 337080, Note_off_c, 3, 43, 64
5, 337080, Note_off_c, 3, 55, 64
5, 337200, Note_on_c, 3, 64, 127
5, 337200, Note_on_c, 3, 52, 127
5, 337320, Note_off_c, 3, 52, 64
5, 337320, Note_off_c, 3, 64, 64
5, 337440, Note_on_c, 3, 62, 125
5, 337440, Note_on_c, 3, 50, 127
5, 337560, Note_off_c, 3, 50, 64
5, 337560, Note_off_c, 3, 62, 64
5, 337680, Note_on_c, 3, 60, 127
5, 337680, Note_on_c, 3, 48, 127
5, 337800, Note_off_c, 3, 48, 64
5, 337800, Note_off_c, 3, 60, 64
5, 337920, Note_on_c, 3, 55, 125
5, 337920, Note_on_c, 3, 43, 125
5, 338040, Note_off_c, 3, 43, 64
5, 338040, Note_off_c, 3, 55, 64
5, 338160, Note_on_c, 3, 60, 123
5, 338160, Note_on_c, 3, 48, 127
5, 338280, Note_off_c, 3, 48, 64
5, 338280, Note_off_c, 3, 60, 64
5, 348960, Note_on_c, 3, 65, 64
5, 348960, Note_on_c, 3, 62, 45
5, 349080, Note_off_c, 3, 62, 64
5, 349080, Note_off_c, 3, 65, 64
5, 349200, Note_on_c, 3, 65, 65
5, 349200, Note_on_c, 3, 62, 43
5, 349320, Note_off_c, 3, 62, 64
5, 349320, Note_off_c, 3, 65, 64
5, 349440, Note_on_c, 3, 63, 73
5, 349440, Note_on_c, 3, 60, 72
5, 349560, Note_off_c, 3, 60, 64
5, 349560, Note_off_c, 3, 63, 64
5, 349680, Note_on_c, 3, 63, 68
5, 349680, Note_on_c, 3, 60, 77
5, 349800, Note_off_c, 3, 60, 64
5, 349800, Note_off_c, 3, 63, 64
5, 349920, Note_on_c, 3, 60, 52
5, 349920, Note_on_c, 3, 48, 65
5, 350040, Note_off_c, 3, 48, 64
5, 350040, Note_off_c, 3, 60, 64
5, 350160, Note_on_c, 3, 60, 32
5, 350160, Note_on_c, 3, 48, 61
5, 350280, Note_off_c, 3, 48, 64
5, 350280, Note_off_c, 3, 60, 64
5, 350400, Note_on_c, 3, 67, 62
5, 350400, Note_on_c, 3, 55, 68
5, 350520, Note_off_c, 3, 55, 64
5, 350520, Note_off_c, 3, 67, 64
5, 353880, Note_on_c, 3, 55, 68
5, 353940, Note_off_c, 3, 55, 64
5, 354000, Note_on_c, 3, 60, 84
5, 354060, Note_off_c, 3, 60, 64
5, 354120, Note_on_c, 3, 64, 82
5, 354180, Note_off_c, 3, 64, 64
5, 354240, Note_on_c, 3, 48, 52
5, 354240, Note_on_c, 3, 67, 64
5, 355200, Note_off_c, 3, 67, 64
5, 355200, Note_off_c, 3, 48, 64
5, 355200, Note_on_c, 3, 50, 51
5, 355200, Note_on_c, 3, 67, 51
5, 355320, Note_off_c, 3, 67, 64
5, 355320, Note_on_c, 3, 65, 60
5, 355440, Note_off_c, 3, 65, 64
5, 355440, Note_on_c, 3, 64, 66
5, 355560, Note_off_c, 3, 64, 64
5, 355560, Note_on_c, 3, 62, 60
5, 355680, Note_off_c, 3, 62, 64
5, 355680, Note_on_c, 3, 60, 56
5, 355800, Note_off_c, 3, 60, 64
5, 355800, Note_on_c, 3, 59, 80
5, 355920, Note_off_c, 3, 59, 64
5, 355920, Note_on_c, 3, 57, 66
5, 356040, Note_off_c, 3, 57, 64
5, 356040, Note_on_c, 3, 55, 62
5, 356160, Note_off_c, 3, 55, 64
5, 356160, Note_off_c, 3, 50, 64
5, 356160, Note_on_c, 3, 60, 46
5, 356160, Note_on_c, 3, 52, 43
5, 356280, Note_off_c, 3, 60, 64
5, 356400, Note_on_c, 3, 60, 46
5, 356520, Note_off_c, 3, 60, 64
5, 356610, Note_on_c, 3, 62, 58
5, 356640, Note_off_c, 3, 62, 64
5, 356640, Note_off_c, 3, 52, 64
5, 356640, Note_on_c, 3, 48, 58
5, 356640, Note_on_c, 3, 60, 63
5, 356760, Note_off_c, 3, 60, 64
5, 356760, Note_on_c, 3, 59, 72
5, 356880, Note_off_c, 3, 59, 64
5, 356880, Note_on_c, 3, 60, 70
5, 357000, Note_off_c, 3, 60, 64
5, 357000, Note_on_c, 3, 64, 72
5, 357120, Note_off_c, 3, 64, 64
5, 357120, Note_off_c, 3, 48, 64
5, 357120, Note_on_c, 3, 61, 53
5, 357120, Note_on_c, 3, 55, 61
5, 357360, Note_off_c, 3, 55, 64
5, 357360, Note_off_c, 3, 61, 64
5, 357360, Note_on_c, 3, 62, 64
5, 357600, Note_off_c, 3, 62, 64
5, 358080, Note_on_c, 3, 56, 55
5, 358320, Note_on_c, 3, 52, 69
5, 358560, Note_off_c, 3, 52, 64
5, 358560, Note_off_c, 3, 56, 64
5, 358560, Note_on_c, 3, 52, 66
5, 358560, Note_on_c, 3, 59, 64
5, 358800, Note_off_c, 3, 59, 64
5, 358800, Note_on_c, 3, 62, 58
5, 359040, Note_off_c, 3, 62, 64
5, 359040, Note_off_c, 3, 52, 64
5, 359040, Note_on_c, 3, 45, 57
5, 359280, Note_on_c, 3, 52, 62
5, 359520, Note_off_c, 3, 52, 64
5, 359520, Note_off_c, 3, 45, 64
5, 359520, Note_on_c, 3, 48, 64
5, 359520, Note_on_c, 3, 57, 67
5, 359760, Note_off_c, 3, 57, 64
5, 359760, Note_on_c, 3, 60, 57
5, 360000, Note_off_c, 3, 60, 64
5, 360000, Note_off_c, 3, 48, 64
5, 360000, Note_on_c, 3, 59, 67
5, 360000, Note_on_c, 3, 50, 55
5, 360240, Note_off_c, 3, 59, 64
5, 360240, Note_on_c, 3, 55, 53
5, 360480, Note_off_c, 3, 55, 64
5, 360480, Note_off_c, 3, 50, 64
5, 360480, Note_on_c, 3, 50, 45
5, 360480, Note_on_c, 3, 62, 68
5, 360600, Note_off_c, 3, 62, 64
5, 360720, Note_on_c, 3, 50, 73
5, 360840, Note_off_c, 3, 50, 64
5, 360960, Note_off_c, 3, 50, 64
5, 360960, Note_on_c, 3, 55, 46
5, 360960, Note_on_c, 3, 43, 64
5, 361200, Note_off_c, 3, 43, 64
5, 361200, Note_off_c, 3, 55, 64
5, 372720, Note_on_c, 3, 63, 46
5, 372960, Note_off_c, 3, 63, 64
5, 372960, Note_on_c, 3, 63, 58
5, 373200, Note_off_c, 3, 63, 64
5, 373200, Note_on_c, 3, 63, 62
5, 373440, Note_off_c, 3, 63, 64
5, 373440, Note_on_c, 3, 63, 61
5, 373920, Note_off_c, 3, 63, 64
5, 373920, Note_on_c, 3, 62, 72
5, 374040, Note_off_c, 3, 62, 64
5, 374040, Note_on_c, 3, 63, 54
5, 374160, Note_off_c, 3, 63, 64
5, 374160, Note_on_c, 3, 65, 57
5, 374280, Note_off_c, 3, 65, 64
5, 374280, Note_on_c, 3, 63, 58
5, 374400, Note_off_c, 3, 63, 64
5, 374400, Note_on_c, 3, 60, 53
5, 374640, Note_off_c, 3, 60, 64
5, 375360, Note_on_c, 3, 60, 56
5, 375840, Note_off_c, 3, 60, 64
5, 375840, Note_on_c, 3, 59, 70
5, 375960, Note_off_c, 3, 59, 64
5, 375960, Note_on_c, 3, 60, 68
5, 376080, Note_off_c, 3, 60, 64
5, 376080, Note_on_c, 3, 61, 46
5, 376200, Note_off_c, 3, 61, 64
5, 376200, Note_on_c, 3, 60, 57
5, 376320, Note_off_c, 3, 60, 64
5, 376320, Note_on_c, 3, 56, 50
5, 376560, Note_off_c, 3, 56, 64
5, 380160, Note_on_c, 3, 55, 68
5, 380160, Note_on_c, 3, 67, 61
5, 381120, Note_off_c, 3, 67, 64
5, 381120, Note_off_c, 3, 55, 64
5, 381120, Note_on_c, 3, 55, 64
5, 381120, Note_on_c, 3, 67, 53
5, 382080, Note_off_c, 3, 67, 64
5, 382080, Note_off_c, 3, 55, 64
5, 382080, Note_on_c, 3, 67, 46
5, 382080, Note_on_c, 3, 55, 53
5, 382320, Note_off_c, 3, 55, 64
5, 382320, Note_off_c, 3, 67, 64
5, 382320, Note_on_c, 3, 64, 54
5, 382320, Note_on_c, 3, 60, 69
5, 382440, Note_off_c, 3, 60, 64
5, 382440, Note_off_c, 3, 64, 64
5, 382560, Note_on_c, 3, 62, 65
5, 382560, Note_on_c, 3, 59, 68
5, 382680, Note_off_c, 3, 59, 64
5, 382680, Note_off_c, 3, 62, 64
5, 382800, Note_on_c, 3, 64, 65
5, 382800, Note_on_c, 3, 60, 61
5, 382920, Note_off_c, 3, 60, 64
5, 382920, Note_off_c, 3, 64, 64
5, 383040, Note_on_c, 3, 62, 67
5, 383040, Note_on_c, 3, 59, 80
5, 383100, Note_off_c, 3, 59, 64
5, 383100, Note_off_c, 3, 62, 64
5, 383160, Note_on_c, 3, 64, 62
5, 383160, Note_on_c, 3, 60, 60
5, 383220, Note_off_c, 3, 60, 64
5, 383220, Note_off_c, 3, 64, 64
5, 383280, Note_on_c, 3, 62, 73
5, 383280, Note_on_c, 3, 59, 76
5, 383340, Note_off_c, 3, 59, 64
5, 383340, Note_off_c, 3, 62, 64
5, 383400, Note_on_c, 3, 60, 64
5, 383400, Note_on_c, 3, 57, 72
5, 383460, Note_off_c, 3, 57, 64
5, 383460, Note_off_c, 3, 60, 64
5, 383520, Note_on_c, 3, 59, 70
5, 383520, Note_on_c, 3, 55, 68
5, 383580, Note_off_c, 3, 55, 64
5, 383580, Note_off_c, 3, 59, 64
5, 383640, Note_on_c, 3, 57, 72
5, 383640, Note_on_c, 3, 53, 65
5, 383700, Note_off_c, 3, 53, 64
5, 383700, Note_off_c, 3, 57, 64
5, 383760, Note_on_c, 3, 55, 68
5, 383760, Note_on_c, 3, 52, 77
5, 383820, Note_off_c, 3, 52, 64
5, 383820, Note_off_c, 3, 55, 64
5, 383880, Note_on_c, 3, 53, 68
5, 383880, Note_on_c, 3, 50, 77
5, 383940, Note_off_c, 3, 50, 64
5, 383940, Note_off_c, 3, 53, 64
5, 384000, Note_on_c, 3, 52, 76
5, 384000, Note_on_c, 3, 48, 74
5, 384240, Note_off_c, 3, 48, 64
5, 384240, Note_off_c, 3, 52, 64
5, 394320, Note_on_c, 3, 62, 99
5, 394560, Note_off_c, 3, 62, 64
5, 394560, Note_on_c, 3, 60, 76
5, 394680, Note_off_c, 3, 60, 64
5, 394800, Note_on_c, 3, 48, 93
5, 394920, Note_off_c, 3, 48, 64
5, 396240, Note_on_c, 3, 65, 105
5, 396480, Note_off_c, 3, 65, 64
5, 396480, Note_on_c, 3, 64, 84
5, 396720, Note_off_c, 3, 64, 64
5, 406320, Note_on_c, 3, 52, 81
5, 406320, Note_on_c, 3, 48, 72
5, 406440, Note_off_c, 3, 48, 64
5, 406440, Note_off_c, 3, 52, 64
5, 406560, Note_on_c, 3, 53, 71
5, 406560, Note_on_c, 3, 50, 82
5, 406680, Note_off_c, 3, 50, 64
5, 406680, Note_off_c, 3, 53, 64
5, 406800, Note_on_c, 3, 55, 62
5, 406800, Note_on_c, 3, 52, 84
5, 406920, Note_off_c, 3, 52, 64
5, 406920, Note_off_c, 3, 55, 64
5, 407040, Note_on_c, 3, 57, 74
5, 407040, Note_on_c, 3, 53, 80
5, 407160, Note_off_c, 3, 53, 64
5, 407160, Note_off_c, 3, 57, 64
5, 407280, Note_on_c, 3, 59, 70
5, 407280, Note_on_c, 3, 55, 77
5, 407400, Note_off_c, 3, 55, 64
5, 407400, Note_off_c, 3, 59, 64
5, 407520, Note_on_c, 3, 60, 69
5, 407520, Note_on_c, 3, 57, 89
5, 407640, Note_off_c, 3, 57, 64
5, 407640, Note_off_c, 3, 60, 64
5, 407760, Note_on_c, 3, 62, 70
5, 407760, Note_on_c, 3, 59, 85
5, 407880, Note_off_c, 3, 59, 64
5, 407880, Note_off_c, 3, 62, 64
5, 408000, Note_on_c, 3, 64, 67
5, 408000, Note_on_c, 3, 60, 80
5, 408120, Note_off_c, 3, 60, 64
5, 408120, Note_off_c, 3, 64, 64
5, 421440, Note_on_c, 3, 67, 65
5, 422400, Note_off_c, 3, 67, 64
5, 422400, Note_on_c, 3, 67, 50
5, 423360, Note_off_c, 3, 67, 64
5, 423360, Note_on_c, 3, 67, 38
5, 423480, Note_off_c, 3, 67, 64
5, 423480, Note_on_c, 3, 43, 76
5, 423540, Note_off_c, 3, 43, 64
5, 423600, Note_on_c, 3, 45, 84
5, 423660, Note_off_c, 3, 45, 64
5, 423720, Note_on_c, 3, 47, 81
5, 423780, Note_off_c, 3, 47, 64
5, 423840, Note_on_c, 3, 48, 93
5, 423900, Note_off_c, 3, 48, 64
5, 423960, Note_on_c, 3, 50, 85
5, 424020, Note_off_c, 3, 50, 64
5, 424080, Note_on_c, 3, 52, 85
5, 424140, Note_off_c, 3, 52, 64
5, 424200, Note_on_c, 3, 53, 84
5, 424260, Note_off_c, 3, 53, 64
5, 424320, Note_on_c, 3, 55, 80
5, 424380, Note_off_c, 3, 55, 64
5, 424440, Note_on_c, 3, 48, 93
5, 424500, Note_off_c, 3, 48, 64
5, 424560, Note_on_c, 3, 50, 94
5, 424620, Note_off_c, 3, 50, 64
5, 424680, Note_on_c, 3, 52, 94
5, 424740, Note_off_c, 3, 52, 64
5, 424800, Note_on_c, 3, 53, 86
5, 424860, Note_off_c, 3, 53, 64
5, 424920, Note_on_c, 3, 55, 73
5, 424980, Note_off_c, 3, 55, 64
5, 425040, Note_on_c, 3, 57, 93
5, 425100, Note_off_c, 3, 57, 64
5, 425160, Note_on_c, 3, 59, 89
5, 425220, Note_off_c, 3, 59, 64
5, 425280, Note_on_c, 3, 60, 80
5, 425520, Note_off_c, 3, 60, 64
5, 430080, Control_c, 3, 7, 100
5, 430080, Control_c, 3, 10, 90
5, 430080, Control_c, 3, 93, 0
5, 430080, Control_c, 3, 91, 66
5, 431040, Control_c, 3, 7, 100
5, 431040, Control_c, 3, 10, 90
5, 431040, Control_c, 3, 93, 0
5, 431040, Control_c, 3, 91, 66
5, 432960, Note_on_c, 3, 48, 101
5, 433440, Note_off_c, 3, 48, 64
5, 433440, Note_on_c, 3, 60, 99
5, 433560, Note_off_c, 3, 60, 64
5, 433680, Note_on_c, 3, 60, 99
5, 433800, Note_off_c, 3, 60, 64
5, 433920, Note_on_c, 3, 58, 86
5, 434040, Note_off_c, 3, 58, 64
5, 434040, Note_on_c, 3, 57, 105
5, 434160, Note_off_c, 3, 57, 64
5, 434160, Note_on_c, 3, 55, 94
5, 434220, Note_off_c, 3, 55, 64
5, 434280, Note_on_c, 3, 53, 93
5, 434340, Note_off_c, 3, 53, 64
5, 434400, Note_on_c, 3, 52, 105
5, 434460, Note_off_c, 3, 52, 64
5, 434520, Note_on_c, 3, 50, 98
5, 434580, Note_off_c, 3, 50, 64
5, 434640, Note_on_c, 3, 48, 99
5, 434700, Note_off_c, 3, 48, 64
5, 434760, Note_on_c, 3, 46, 93
5, 434820, Note_off_c, 3, 46, 64
5, 434880, Note_on_c, 3, 45, 99
5, 435360, Note_off_c, 3, 45, 64
5, 435360, Note_on_c, 3, 57, 107
5, 435480, Note_off_c, 3, 57, 64
5, 435600, Note_on_c, 3, 57, 104
5, 435720, Note_off_c, 3, 57, 64
5, 435840, Note_on_c, 3, 55, 90
5, 435960, Note_off_c, 3, 55, 64
5, 435960, Note_on_c, 3, 53, 89
5, 436080, Note_off_c, 3, 53, 64
5, 436080, Note_on_c, 3, 52, 99
5, 436140, Note_off_c, 3, 52, 64
5, 436200, Note_on_c, 3, 50, 95
5, 436260, Note_off_c, 3, 50, 64
5, 436320, Note_on_c, 3, 48, 94
5, 436380, Note_off_c, 3, 48, 64
5, 436440, Note_on_c, 3, 46, 94
5, 436500, Note_off_c, 3, 46, 64
5, 436560, Note_on_c, 3, 45, 99
5, 436620, Note_off_c, 3, 45, 64
5, 436680, Note_on_c, 3, 43, 94
5, 436740, Note_off_c, 3, 43, 64
5, 436800, Note_on_c, 3, 41, 82
5, 436860, Note_off_c, 3, 41, 64
5, 436860, Note_on_c, 3, 53, 90
5, 436920, Note_off_c, 3, 53, 64
5, 436920, Note_on_c, 3, 53, 94
5, 436980, Note_off_c, 3, 53, 64
5, 436980, Note_on_c, 3, 53, 90
5, 437040, Note_off_c, 3, 53, 64
5, 437040, Note_on_c, 3, 53, 94
5, 437280, Note_off_c, 3, 53, 64
5, 437760, Note_on_c, 3, 41, 101
5, 437820, Note_off_c, 3, 41, 64
5, 437820, Note_on_c, 3, 53, 89
5, 437880, Note_off_c, 3, 53, 64
5, 437880, Note_on_c, 3, 53, 90
5, 437940, Note_off_c, 3, 53, 64
5, 437940, Note_on_c, 3, 53, 86
5, 438000, Note_off_c, 3, 53, 64
5, 438000, Note_on_c, 3, 53, 89
5, 438240, Note_off_c, 3, 53, 64
5, 438720, Note_on_c, 3, 60, 98
5, 438720, Note_on_c, 3, 64, 105
5, 439680, Note_off_c, 3, 64, 64
5, 439680, Note_off_c, 3, 60, 64
5, 439680, Note_on_c, 3, 60, 85
5, 439680, Note_on_c, 3, 64, 99
5, 440640, Note_off_c, 3, 64, 64
5, 440640, Note_off_c, 3, 60, 64
5, 440640, Note_on_c, 3, 60, 98
5, 440640, Note_on_c, 3, 64, 104
5, 441600, Note_off_c, 3, 64, 64
5, 441600, Note_off_c, 3, 60, 64
5, 441600, Note_on_c, 3, 60, 89
5, 441600, Note_on_c, 3, 64, 98
5, 442560, Note_off_c, 3, 64, 64
5, 442560, Note_off_c, 3, 60, 64
5, 442560, Note_on_c, 3, 60, 89
5, 442560, Note_on_c, 3, 63, 93
5, 443520, Note_off_c, 3, 63, 64
5, 443520, Note_off_c, 3, 60, 64
5, 443520, Note_on_c, 3, 63, 81
5, 443520, Note_on_c, 3, 60, 90
5, 443880, Note_off_c, 3, 60, 64
5, 443880, Note_off_c, 3, 63, 64
5, 443940, Note_on_c, 3, 63, 90
5, 443940, Note_on_c, 3, 60, 86
5, 444000, Note_off_c, 3, 60, 64
5, 444000, Note_off_c, 3, 63, 64
5, 444000, Note_on_c, 3, 63, 94
5, 444000, Note_on_c, 3, 60, 94
5, 444360, Note_off_c, 3, 60, 64
5, 444360, Note_off_c, 3, 63, 64
5, 444420, Note_on_c, 3, 60, 84
5, 444420, Note_on_c, 3, 63, 89
5, 444480, Note_off_c, 3, 63, 64
5, 444480, Note_off_c, 3, 60, 64
5, 444480, Note_on_c, 3, 60, 86
5, 444480, Note_on_c, 3, 64, 99
5, 445440, Control_c, 3, 7, 100
5, 445440, Control_c, 3, 10, 90
5, 445440, Control_c, 3, 93, 0
5, 445440, Control_c, 3, 91, 66
5, 445920, Note_off_c, 3, 64, 64
5, 445920, Note_off_c, 3, 60, 64
5, 479520, Note_on_c, 3, 60, 89
5, 479520, Note_on_c, 3, 48, 104
5, 479760, Note_off_c, 3, 48, 64
5, 479760, Note_off_c, 3, 60, 64
5, 480480, Note_on_c, 3, 60, 85
5, 480480, Note_on_c, 3, 48, 105
5, 480720, Note_off_c, 3, 48, 64
5, 480720, Note_off_c, 3, 60, 64
5, 481680, Note_on_c, 3, 55, 77
5, 481680, Note_on_c, 3, 43, 82
5, 481800, Note_off_c, 3, 43, 64
5, 481800, Note_off_c, 3, 55, 64
5, 481920, Note_on_c, 3, 59, 80
5, 481920, Note_on_c, 3, 55, 80
5, 482040, Note_off_c, 3, 55, 64
5, 482040, Note_off_c, 3, 59, 64
5, 482160, Note_on_c, 3, 59, 80
5, 482160, Note_on_c, 3, 55, 84
5, 482280, Note_off_c, 3, 55, 64
5, 482280, Note_off_c, 3, 59, 64
5, 482400, Note_on_c, 3, 60, 123
5, 482400, Note_on_c, 3, 48, 115
5, 482640, Note_off_c, 3, 48, 64
5, 482640, Note_off_c, 3, 60, 64
5, 483600, Note_on_c, 3, 55, 68
5, 483600, Note_on_c, 3, 43, 77
5, 483720, Note_off_c, 3, 43, 64
5, 483720, Note_off_c, 3, 55, 64
5, 483840, Note_on_c, 3, 55, 64
5, 483840, Note_on_c, 3, 43, 80
5, 483960, Note_off_c, 3, 43, 64
5, 483960, Note_off_c, 3, 55, 64
5, 484080, Note_on_c, 3, 55, 77
5, 484080, Note_on_c, 3, 43, 86
5, 484200, Note_off_c, 3, 43, 64
5, 484200, Note_off_c, 3, 55, 64
5, 484320, Note_on_c, 3, 48, 119
5, 484320, Note_on_c, 3, 36, 125
5, 484800, Note_off_c, 3, 36, 64
5, 484800, Note_off_c, 3, 48, 64
5, 484800, Note_on_c, 3, 60, 123
5, 484800, Note_on_c, 3, 48, 123
5, 484920, Note_off_c, 3, 48, 64
5, 484920, Note_off_c, 3, 60, 64
5, 485040, Note_on_c, 3, 60, 127
5, 485040, Note_on_c, 3, 48, 119
5, 485160, Note_off_c, 3, 48, 64
5, 485160, Note_off_c, 3, 60, 64
5, 485280, Note_on_c, 3, 60, 125
5, 485280, Note_on_c, 3, 48, 127
5, 485520, Note_off_c, 3, 48, 64
5, 485520, Note_off_c, 3, 60, 64
5, 486240, Note_on_c, 3, 52, 127
5, 486240, Note_on_c, 3, 40, 123
5, 486720, Note_off_c, 3, 40, 64
5, 486720, Note_off_c, 3, 52, 64
5, 486720, Note_on_c, 3, 64, 123
5, 486720, Note_on_c, 3, 52, 127
5, 486840, Note_off_c, 3, 52, 64
5, 486840, Note_off_c, 3, 64, 64
5, 486960, Note_on_c, 3, 64, 125
5, 486960, Note_on_c, 3, 52, 127
5, 487080, Note_off_c, 3, 52, 64
5, 487080, Note_off_c, 3, 64, 64
5, 487200, Note_on_c, 3, 64, 123
5, 487200, Note_on_c, 3, 52, 123
5, 487440, Note_off_c, 3, 52, 64
5, 487440, Note_off_c, 3, 64, 64
5, 488160, Note_on_c, 3, 67, 123
5, 488160, Note_on_c, 3, 55, 123
5, 488640, Note_off_c, 3, 55, 64
5, 488640, Note_off_c, 3, 67, 64
5, 488760, Note_on_c, 3, 65, 117
5, 488760, Note_on_c, 3, 53, 112
5, 488820, Note_off_c, 3, 53, 64
5, 488820, Note_off_c, 3, 65, 64
5, 488820, Note_on_c, 3, 64, 119
5, 488820, Note_on_c, 3, 52, 119
5, 488880, Note_off_c, 3, 52, 64
5, 488880, Note_off_c, 3, 64, 64
5, 488880, Note_on_c, 3, 62, 115
5, 488880, Note_on_c, 3, 50, 117
5, 488940, Note_off_c, 3, 50, 64
5, 488940, Note_off_c, 3, 62, 64
5, 488940, Note_on_c, 3, 60, 112
5, 488940, Note_on_c, 3, 48, 115
5, 489000, Note_off_c, 3, 48, 64
5, 489000, Note_off_c, 3, 60, 64
5, 489000, Note_on_c, 3, 59, 115
5, 489000, Note_on_c, 3, 47, 115
5, 489060, Note_off_c, 3, 47, 64
5, 489060, Note_off_c, 3, 59, 64
5, 489060, Note_on_c, 3, 45, 115
5, 489060, Note_on_c, 3, 57, 119
5, 489120, Note_off_c, 3, 57, 64
5, 489120, Note_off_c, 3, 45, 64
5, 489120, Note_on_c, 3, 55, 115
5, 489120, Note_on_c, 3, 43, 119
5, 489360, Note_off_c, 3, 43, 64
5, 489360, Note_off_c, 3, 55, 64
5, 489600, Note_on_c, 3, 62, 112
5, 489600, Note_on_c, 3, 59, 115
5, 489840, Note_off_c, 3, 59, 64
5, 489840, Note_off_c, 3, 62, 64
5, 490080, Note_on_c, 3, 64, 112
5, 490080, Note_on_c, 3, 60, 117
5, 490320, Note_off_c, 3, 60, 64
5, 490320, Note_off_c, 3, 64, 64
5, 490500, Note_on_c, 3, 60, 123
5, 490500, Note_on_c, 3, 48, 123
5, 490560, Note_off_c, 3, 48, 64
5, 490560, Note_off_c, 3, 60, 64
5, 490560, Note_on_c, 3, 60, 119
5, 490560, Note_on_c, 3, 48, 123
5, 490800, Note_off_c, 3, 48, 64
5, 490800, Note_off_c, 3, 60, 64
5, 490980, Note_on_c, 3, 36, 127
5, 490980, Note_on_c, 3, 48, 125
5, 491040, Note_off_c, 3, 48, 64
5, 491040, Note_off_c, 3, 36, 64
5, 491040, Note_on_c, 3, 48, 127
5, 491040, Note_on_c, 3, 36, 123
5, 491280, Note_off_c, 3, 36, 64
5, 491280, Note_off_c, 3, 48, 64
5, 491280, End_track
6, 0, Start_track
6, 0, Title_t, "French Horns"
6, 0, Program_c, 4, 60
6, 0, Control_c, 4, 7, 100
6, 0, Control_c, 4, 10, 46
6, 0, Control_c, 4, 93, 0
6, 0, Control_c, 4, 91, 66
6, 14400, Note_on_c, 4, 72, 89
6, 14400, Note_on_c, 4, 64, 98
6, 14880, Note_off_c, 4, 64, 64
6, 14880, Note_off_c, 4, 72, 64
6, 14880, Note_on_c, 4, 72, 89
6, 14880, Note_on_c, 4, 64, 95
6, 15000, Note_off_c, 4, 64, 64
6, 15000, Note_off_c, 4, 72, 64
6, 15120, Note_on_c, 4, 72, 89
6, 15120, Note_on_c, 4, 64, 98
6, 15240, Note_off_c, 4, 64, 64
6, 15240, Note_off_c, 4, 72, 64
6, 15360, Note_on_c, 4, 72, 94
6, 15360, Note_on_c, 4, 64, 104
6, 15480, Note_off_c, 4, 64, 64
6, 15480, Note_off_c, 4, 72, 64
6, 16320, Note_on_c, 4, 72, 89
6, 16320, Note_on_c, 4, 64, 95
6, 16440, Note_off_c, 4, 64, 64
6, 16440, Note_off_c, 4, 72, 64
6, 16560, Note_on_c, 4, 74, 98
6, 16560, Note_on_c, 4, 67, 99
6, 16680, Note_off_c, 4, 67, 64
6, 16680, Note_off_c, 4, 74, 64
6, 16800, Note_on_c, 4, 76, 99
6, 16800, Note_on_c, 4, 72, 98
6, 16920, Note_off_c, 4, 72, 64
6, 16920, Note_off_c, 4, 76, 64
6, 17040, Note_on_c, 4, 77, 89
6, 17040, Note_on_c, 4, 74, 101
6, 17160, Note_off_c, 4, 74, 64
6, 17160, Note_off_c, 4, 77, 64
6, 17280, Note_on_c, 4, 76, 98
6, 17280, Note_on_c, 4, 72, 94
6, 17400, Note_off_c, 4, 72, 64
6, 17400, Note_off_c, 4, 76, 64
6, 17520, Note_on_c, 4, 74, 93
6, 17520, Note_on_c, 4, 67, 98
6, 17640, Note_off_c, 4, 67, 64
6, 17640, Note_off_c, 4, 74, 64
6, 18240, Note_on_c, 4, 67, 98
6, 18240, Note_on_c, 4, 55, 101
6, 18720, Note_off_c, 4, 55, 64
6, 18720, Note_off_c, 4, 67, 64
6, 18720, Note_on_c, 4, 74, 107
6, 18720, Note_on_c, 4, 67, 98
6, 18840, Note_off_c, 4, 67, 64
6, 18840, Note_off_c, 4, 74, 64
6, 18960, Note_on_c, 4, 74, 110
6, 18960, Note_on_c, 4, 67, 94
6, 19080, Note_off_c, 4, 67, 64
6, 19080, Note_off_c, 4, 74, 64
6, 19200, Note_on_c, 4, 74, 110
6, 19200, Note_on_c, 4, 67, 99
6, 19320, Note_off_c, 4, 67, 64
6, 19320, Note_off_c, 4, 74, 64
6, 20160, Note_on_c, 4, 79, 98
6, 20160, Note_on_c, 4, 67, 95
6, 20280, Note_off_c, 4, 67, 64
6, 20280, Note_off_c, 4, 79, 64
6, 20400, Note_on_c, 4, 72, 94
6, 20400, Note_on_c, 4, 64, 104
6, 20520, Note_off_c, 4, 64, 64
6, 20520, Note_off_c, 4, 72, 64
6, 20640, Note_on_c, 4, 74, 101
6, 20640, Note_on_c, 4, 67, 99
6, 20760, Note_off_c, 4, 67, 64
6, 20760, Note_off_c, 4, 74, 64
6, 20880, Note_on_c, 4, 76, 99
6, 20880, Note_on_c, 4, 72, 94
6, 21000, Note_off_c, 4, 72, 64
6, 21000, Note_off_c, 4, 76, 64
6, 21120, Note_on_c, 4, 77, 94
6, 21120, Note_on_c, 4, 74, 105
6, 21240, Note_off_c, 4, 74, 64
6, 21240, Note_off_c, 4, 77, 64
6, 21360, Note_on_c, 4, 76, 104
6, 21360, Note_on_c, 4, 72, 98
6, 21480, Note_off_c, 4, 72, 64
6, 21480, Note_off_c, 4, 76, 64
6, 22080, Note_on_c, 4, 72, 80
6, 22080, Note_on_c, 4, 60, 80
6, 23040, Note_off_c, 4, 60, 64
6, 23040, Note_off_c, 4, 72, 64
6, 23040, Note_on_c, 4, 72, 80
6, 23040, Note_on_c, 4, 60, 80
6, 23280, Note_off_c, 4, 60, 64
6, 23280, Note_off_c, 4, 72, 64
6, 23280, Note_on_c, 4, 72, 80
6, 23280, Note_on_c, 4, 60, 80
6, 23460, Note_off_c, 4, 60, 64
6, 23460, Note_off_c, 4, 72, 64
6, 23460, Note_on_c, 4, 72, 80
6, 23460, Note_on_c, 4, 60, 80
6, 23520, Note_off_c, 4, 60, 64
6, 23520, Note_off_c, 4, 72, 64
6, 23520, Note_on_c, 4, 72, 80
6, 23520, Note_on_c, 4, 60, 80
6, 23760, Note_off_c, 4, 60, 64
6, 23760, Note_off_c, 4, 72, 64
6, 23760, Note_on_c, 4, 72, 80
6, 23760, Note_on_c, 4, 60, 80
6, 24000, Note_off_c, 4, 60, 64
6, 24000, Note_off_c, 4, 72, 64
6, 24000, Note_on_c, 4, 72, 80
6, 24000, Note_on_c, 4, 60, 80
6, 24960, Note_off_c, 4, 60, 64
6, 24960, Note_off_c, 4, 72, 64
6, 24960, Note_on_c, 4, 72, 80
6, 24960, Note_on_c, 4, 60, 80
6, 25200, Note_off_c, 4, 60, 64
6, 25200, Note_off_c, 4, 72, 64
6, 25200, Note_on_c, 4, 72, 80
6, 25200, Note_on_c, 4, 60, 80
6, 25380, Note_off_c, 4, 60, 64
6, 25380, Note_off_c, 4, 72, 64
6, 25380, Note_on_c, 4, 72, 80
6, 25380, Note_on_c, 4, 60, 80
6, 25440, Note_off_c, 4, 60, 64
6, 25440, Note_off_c, 4, 72, 64
6, 25440, Note_on_c, 4, 72, 80
6, 25440, Note_on_c, 4, 60, 80
6, 25680, Note_off_c, 4, 60, 64
6, 25680, Note_off_c, 4, 72, 64
6, 25680, Note_on_c, 4, 72, 80
6, 25680, Note_on_c, 4, 60, 80
6, 25920, Note_off_c, 4, 60, 64
6, 25920, Note_off_c, 4, 72, 64
6, 25920, Note_on_c, 4, 72, 80
6, 25920, Note_on_c, 4, 60, 80
6, 26160, Note_off_c, 4, 60, 64
6, 26160, Note_off_c, 4, 72, 64
6, 28080, Note_on_c, 4, 72, 80
6, 28080, Note_on_c, 4, 60, 80
6, 28320, Note_off_c, 4, 60, 64
6, 28320, Note_off_c, 4, 72, 64
6, 28320, Note_on_c, 4, 76, 80
6, 28320, Note_on_c, 4, 64, 80
6, 28560, Note_off_c, 4, 64, 64
6, 28560, Note_off_c, 4, 76, 64
6, 28560, Note_on_c, 4, 67, 80
6, 28560, Note_on_c, 4, 79, 80
6, 28800, Note_off_c, 4, 79, 64
6, 28800, Note_off_c, 4, 67, 64
6, 28800, Note_on_c, 4, 84, 80
6, 28800, Note_on_c, 4, 72, 80
6, 29040, Note_off_c, 4, 72, 64
6, 29040, Note_off_c, 4, 84, 64
6, 29040, Note_on_c, 4, 79, 80
6, 29040, Note_on_c, 4, 67, 80
6, 29280, Note_off_c, 4, 67, 64
6, 29280, Note_off_c, 4, 79, 64
6, 29280, Note_on_c, 4, 76, 80
6, 29280, Note_on_c, 4, 64, 80
6, 29520, Note_off_c, 4, 64, 64
6, 29520, Note_off_c, 4, 76, 64
6, 29520, Note_on_c, 4, 60, 80
6, 29520, Note_on_c, 4, 72, 80
6, 29760, Note_off_c, 4, 72, 64
6, 29760, Note_off_c, 4, 60, 64
6, 29760, Note_on_c, 4, 60, 80
6, 29760, Note_on_c, 4, 72, 80
6, 30720, Note_off_c, 4, 72, 64
6, 30720, Note_off_c, 4, 60, 64
6, 30720, Note_on_c, 4, 72, 80
6, 30720, Note_on_c, 4, 60, 80
6, 30960, Note_off_c, 4, 60, 64
6, 30960, Note_off_c, 4, 72, 64
6, 30960, Note_on_c, 4, 72, 80
6, 30960, Note_on_c, 4, 60, 80
6, 31140, Note_off_c, 4, 60, 64
6, 31140, Note_off_c, 4, 72, 64
6, 31140, Note_on_c, 4, 72, 80
6, 31140, Note_on_c, 4, 60, 80
6, 31200, Note_off_c, 4, 60, 64
6, 31200, Note_off_c, 4, 72, 64
6, 31200, Note_on_c, 4, 72, 80
6, 31200, Note_on_c, 4, 60, 80
6, 31440, Note_off_c, 4, 60, 64
6, 31440, Note_off_c, 4, 72, 64
6, 31440, Note_on_c, 4, 60, 80
6, 31440, Note_on_c, 4, 72, 80
6, 31680, Note_off_c, 4, 72, 64
6, 31680, Note_off_c, 4, 60, 64
6, 31680, Note_on_c, 4, 60, 80
6, 31680, Note_on_c, 4, 72, 80
6, 32640, Note_off_c, 4, 72, 64
6, 32640, Note_off_c, 4, 60, 64
6, 32640, Note_on_c, 4, 72, 80
6, 32640, Note_on_c, 4, 60, 80
6, 32880, Note_off_c, 4, 60, 64
6, 32880, Note_off_c, 4, 72, 64
6, 32880, Note_on_c, 4, 72, 80
6, 32880, Note_on_c, 4, 60, 80
6, 33060, Note_off_c, 4, 60, 64
6, 33060, Note_off_c, 4, 72, 64
6, 33060, Note_on_c, 4, 72, 80
6, 33060, Note_on_c, 4, 60, 80
6, 33120, Note_off_c, 4, 60, 64
6, 33120, Note_off_c, 4, 72, 64
6, 33120, Note_on_c, 4, 72, 80
6, 33120, Note_on_c, 4, 60, 80
6, 33360, Note_off_c, 4, 60, 64
6, 33360, Note_off_c, 4, 72, 64
6, 33360, Note_on_c, 4, 60, 80
6, 33360, Note_on_c, 4, 72, 80
6, 33600, Note_off_c, 4, 72, 64
6, 33600, Note_off_c, 4, 60, 64
6, 33600, Note_on_c, 4, 72, 80
6, 33600, Note_on_c, 4, 60, 80
6, 34080, Note_off_c, 4, 60, 64
6, 34080, Note_off_c, 4, 72, 64
6, 34080, Note_on_c, 4, 60, 80
6, 34080, Note_on_c, 4, 72, 80
6, 34560, Note_off_c, 4, 72, 64
6, 34560, Note_off_c, 4, 60, 64
6, 34560, Note_on_c, 4, 72, 80
6, 34560, Note_on_c, 4, 60, 80
6, 35040, Note_off_c, 4, 60, 64
6, 35040, Note_off_c, 4, 72, 64
6, 35040, Note_on_c, 4, 60, 80
6, 35040, Note_on_c, 4, 72, 80
6, 35520, Note_off_c, 4, 72, 64
6, 35520, Note_off_c, 4, 60, 64
6, 35520, Note_on_c, 4, 67, 80
6, 35520, Note_on_c, 4, 55, 80
6, 35760, Note_off_c, 4, 55, 64
6, 35760, Note_off_c, 4, 67, 64
6, 36720, Note_on_c, 4, 77, 112
6, 36720, Note_on_c, 4, 74, 119
6, 37200, Note_off_c, 4, 74, 64
6, 37200, Note_off_c, 4, 77, 64
6, 37200, Note_on_c, 4, 76, 80
6, 37200, Note_on_c, 4, 72, 80
6, 37440, Note_off_c, 4, 72, 64
6, 37440, Note_off_c, 4, 76, 64
6, 37440, Note_on_c, 4, 74, 89
6, 37440, Note_on_c, 4, 67, 90
6, 37560, Note_off_c, 4, 67, 64
6, 37560, Note_off_c, 4, 74, 64
6, 37680, Note_on_c, 4, 79, 117
6, 37680, Note_on_c, 4, 67, 115
6, 38160, Note_off_c, 4, 67, 64
6, 38160, Note_off_c, 4, 79, 64
6, 38160, Note_on_c, 4, 79, 80
6, 38160, Note_on_c, 4, 67, 80
6, 38400, Note_off_c, 4, 67, 64
6, 38400, Note_off_c, 4, 79, 64
6, 38400, Note_on_c, 4, 79, 110
6, 38400, Note_on_c, 4, 67, 112
6, 38520, Note_off_c, 4, 67, 64
6, 38520, Note_off_c, 4, 79, 64
6, 38640, Note_on_c, 4, 77, 110
6, 38640, Note_on_c, 4, 74, 115
6, 39120, Note_off_c, 4, 74, 64
6, 39120, Note_off_c, 4, 77, 64
6, 39120, Note_on_c, 4, 76, 80
6, 39120, Note_on_c, 4, 72, 80
6, 39360, Note_off_c, 4, 72, 64
6, 39360, Note_off_c, 4, 76, 64
6, 39360, Note_on_c, 4, 74, 93
6, 39360, Note_on_c, 4, 67, 95
6, 39480, Note_off_c, 4, 67, 64
6, 39480, Note_off_c, 4, 74, 64
6, 39840, Note_on_c, 4, 76, 112
6, 39840, Note_on_c, 4, 72, 107
6, 39960, Note_off_c, 4, 72, 64
6, 39960, Note_off_c, 4, 76, 64
6, 40320, Note_on_c, 4, 74, 117
6, 40320, Note_on_c, 4, 67, 112
6, 40440, Note_off_c, 4, 67, 64
6, 40440, Note_off_c, 4, 74, 64
6, 40800, Note_on_c, 4, 76, 112
6, 40800, Note_on_c, 4, 72, 112
6, 40920, Note_off_c, 4, 72, 64
6, 40920, Note_off_c, 4, 76, 64
6, 41280, Note_on_c, 4, 74, 105
6, 41280, Note_on_c, 4, 67, 110
6, 41400, Note_off_c, 4, 67, 64
6, 41400, Note_off_c, 4, 74, 64
6, 41520, Note_on_c, 4, 76, 107
6, 41520, Note_on_c, 4, 72, 107
6, 41640, Note_off_c, 4, 72, 64
6, 41640, Note_off_c, 4, 76, 64
6, 41760, Note_on_c, 4, 74, 105
6, 41760, Note_on_c, 4, 67, 115
6, 41880, Note_off_c, 4, 67, 64
6, 41880, Note_off_c, 4, 74, 64
6, 42000, Note_on_c, 4, 76, 112
6, 42000, Note_on_c, 4, 72, 112
6, 42120, Note_off_c, 4, 72, 64
6, 42120, Note_off_c, 4, 76, 64
6, 42240, Note_on_c, 4, 74, 110
6, 42240, Note_on_c, 4, 67, 115
6, 42360, Note_off_c, 4, 67, 64
6, 42360, Note_off_c, 4, 74, 64
6, 42660, Note_on_c, 4, 79, 119
6, 42660, Note_on_c, 4, 67, 119
6, 42720, Note_off_c, 4, 67, 64
6, 42720, Note_off_c, 4, 79, 64
6, 42720, Note_on_c, 4, 79, 123
6, 42720, Note_on_c, 4, 67, 123
6, 42960, Note_off_c, 4, 67, 64
6, 42960, Note_off_c, 4, 79, 64
6, 43140, Note_on_c, 4, 67, 125
6, 43140, Note_on_c, 4, 79, 119
6, 43200, Note_off_c, 4, 79, 64
6, 43200, Note_off_c, 4, 67, 64
6, 43200, Note_on_c, 4, 79, 125
6, 43200, Note_on_c, 4, 67, 127
6, 43440, Note_off_c, 4, 67, 64
6, 43440, Note_off_c, 4, 79, 64
6, 52800, Note_on_c, 4, 72, 80
6, 52800, Note_on_c, 4, 60, 80
6, 53760, Note_off_c, 4, 60, 64
6, 53760, Note_off_c, 4, 72, 64
6, 53760, Note_on_c, 4, 72, 80
6, 53760, Note_on_c, 4, 60, 80
6, 54720, Note_off_c, 4, 60, 64
6, 54720, Note_off_c, 4, 72, 64
6, 54720, Note_on_c, 4, 72, 80
6, 54720, Note_on_c, 4, 60, 80
6, 55680, Note_off_c, 4, 60, 64
6, 55680, Note_off_c, 4, 72, 64
6, 55680, Note_on_c, 4, 72, 80
6, 55680, Note_on_c, 4, 60, 80
6, 55920, Note_off_c, 4, 60, 64
6, 55920, Note_off_c, 4, 72, 64
6, 59520, Note_on_c, 4, 74, 80
6, 60480, Note_off_c, 4, 74, 64
6, 60480, Note_on_c, 4, 74, 80
6, 61440, Note_off_c, 4, 74, 64
6, 61440, Note_on_c, 4, 74, 80
6, 62400, Note_off_c, 4, 74, 64
6, 62400, Note_on_c, 4, 74, 80
6, 62640, Note_off_c, 4, 74, 64
6, 63360, Note_on_c, 4, 79, 80
6, 63360, Note_on_c, 4, 67, 80
6, 64320, Note_off_c, 4, 67, 64
6, 64320, Note_off_c, 4, 79, 64
6, 64320, Note_on_c, 4, 79, 80
6, 64320, Note_on_c, 4, 67, 80
6, 65280, Note_off_c, 4, 67, 64
6, 65280, Note_off_c, 4, 79, 64
6, 65280, Note_on_c, 4, 79, 80
6, 65280, Note_on_c, 4, 67, 80
6, 66240, Note_off_c, 4, 67, 64
6, 66240, Note_off_c, 4, 79, 64
6, 66240, Note_on_c, 4, 79, 80
6, 66240, Note_on_c, 4, 67, 80
6, 66480, Note_off_c, 4, 67, 64
6, 66480, Note_off_c, 4, 79, 64
6, 66720, Note_on_c, 4, 79, 44
6, 66720, Note_on_c, 4, 67, 43
6, 66960, Note_off_c, 4, 67, 64
6, 66960, Note_off_c, 4, 79, 64
6, 67200, Note_on_c, 4, 79, 40
6, 67200, Note_on_c, 4, 67, 58
6, 67440, Note_off_c, 4, 67, 64
6, 67440, Note_off_c, 4, 79, 64
6, 67680, Note_on_c, 4, 79, 38
6, 67680, Note_on_c, 4, 67, 45
6, 67920, Note_off_c, 4, 67, 64
6, 67920, Note_off_c, 4, 79, 64
6, 68160, Note_on_c, 4, 79, 38
6, 68160, Note_on_c, 4, 67, 42
6, 68400, Note_off_c, 4, 67, 64
6, 68400, Note_off_c, 4, 79, 64
6, 72000, Note_on_c, 4, 72, 119
6, 72000, Note_on_c, 4, 60, 119
6, 72480, Note_off_c, 4, 60, 64
6, 72480, Note_off_c, 4, 72, 64
6, 72480, Note_on_c, 4, 72, 123
6, 72600, Note_off_c, 4, 72, 64
6, 72720, Note_on_c, 4, 72, 119
6, 72840, Note_off_c, 4, 72, 64
6, 72960, Note_on_c, 4, 74, 117
6, 72960, Note_on_c, 4, 72, 117
6, 73440, Note_off_c, 4, 72, 64
6, 73440, Note_off_c, 4, 74, 64
6, 73440, Note_on_c, 4, 74, 115
6, 73440, Note_on_c, 4, 72, 119
6, 73560, Note_off_c, 4, 72, 64
6, 73560, Note_off_c, 4, 74, 64
6, 73680, Note_on_c, 4, 74, 117
6, 73680, Note_on_c, 4, 72, 125
6, 73800, Note_off_c, 4, 72, 64
6, 73800, Note_off_c, 4, 74, 64
6, 73920, Note_on_c, 4, 74, 123
6, 73920, Note_on_c, 4, 67, 119
6, 74400, Note_off_c, 4, 67, 64
6, 74400, Note_off_c, 4, 74, 64
6, 74400, Note_on_c, 4, 74, 123
6, 74400, Note_on_c, 4, 67, 127
6, 74520, Note_off_c, 4, 67, 64
6, 74520, Note_off_c, 4, 74, 64
6, 74640, Note_on_c, 4, 74, 125
6, 74640, Note_on_c, 4, 67, 123
6, 74760, Note_off_c, 4, 67, 64
6, 74760, Note_off_c, 4, 74, 64
6, 74880, Note_on_c, 4, 72, 123
6, 74880, Note_on_c, 4, 60, 127
6, 75360, Note_off_c, 4, 60, 64
6, 75360, Note_off_c, 4, 72, 64
6, 75360, Note_on_c, 4, 72, 123
6, 75360, Note_on_c, 4, 60, 123
6, 75480, Note_off_c, 4, 60, 64
6, 75480, Note_off_c, 4, 72, 64
6, 75600, Note_on_c, 4, 72, 125
6, 75600, Note_on_c, 4, 60, 123
6, 75720, Note_off_c, 4, 60, 64
6, 75720, Note_off_c, 4, 72, 64
6, 75840, Note_on_c, 4, 60, 125
6, 75840, Note_on_c, 4, 72, 123
6, 76800, Note_off_c, 4, 72, 64
6, 76800, Note_off_c, 4, 60, 64
6, 76800, Note_on_c, 4, 60, 119
6, 76800, Note_on_c, 4, 72, 119
6, 77760, Note_off_c, 4, 72, 64
6, 77760, Note_off_c, 4, 60, 64
6, 77760, Note_on_c, 4, 72, 123
6, 77760, Note_on_c, 4, 60, 123
6, 78240, Note_off_c, 4, 60, 64
6, 78240, Note_off_c, 4, 72, 64
6, 78240, Note_on_c, 4, 72, 42
6, 78240, Note_on_c, 4, 60, 52
6, 78360, Note_off_c, 4, 60, 64
6, 78360, Note_off_c, 4, 72, 64
6, 78360, Note_on_c, 4, 72, 119
6, 78360, Note_on_c, 4, 60, 119
6, 78480, Note_off_c, 4, 60, 64
6, 78480, Note_off_c, 4, 72, 64
6, 78480, Note_on_c, 4, 72, 117
6, 78480, Note_on_c, 4, 60, 123
6, 78600, Note_off_c, 4, 60, 64
6, 78600, Note_off_c, 4, 72, 64
6, 78600, Note_on_c, 4, 60, 123
6, 78600, Note_on_c, 4, 72, 119
6, 78720, Note_off_c, 4, 72, 64
6, 78720, Note_off_c, 4, 60, 64
6, 78720, Note_on_c, 4, 67, 125
6, 78720, Note_on_c, 4, 55, 119
6, 79200, Note_off_c, 4, 55, 64
6, 79200, Note_off_c, 4, 67, 64
6, 79200, Note_on_c, 4, 67, 82
6, 79200, Note_on_c, 4, 55, 84
6, 79320, Note_off_c, 4, 55, 64
6, 79320, Note_off_c, 4, 67, 64
6, 79320, Note_on_c, 4, 67, 119
6, 79320, Note_on_c, 4, 55, 119
6, 79440, Note_off_c, 4, 55, 64
6, 79440, Note_off_c, 4, 67, 64
6, 79440, Note_on_c, 4, 67, 119
6, 79440, Note_on_c, 4, 55, 115
6, 79560, Note_off_c, 4, 55, 64
6, 79560, Note_off_c, 4, 67, 64
6, 79560, Note_on_c, 4, 55, 119
6, 79560, Note_on_c, 4, 67, 119
6, 79680, Note_off_c, 4, 67, 64
6, 79680, Note_off_c, 4, 55, 64
6, 79680, Note_on_c, 4, 72, 119
6, 79680, Note_on_c, 4, 60, 117
6, 79920, Note_off_c, 4, 60, 64
6, 79920, Note_off_c, 4, 72, 64
6, 80160, Note_on_c, 4, 74, 119
6, 80160, Note_on_c, 4, 72, 119
6, 80400, Note_off_c, 4, 72, 64
6, 80400, Note_off_c, 4, 74, 64
6, 80640, Note_on_c, 4, 76, 117
6, 80640, Note_on_c, 4, 72, 115
6, 80880, Note_off_c, 4, 72, 64
6, 80880, Note_off_c, 4, 76, 64
6, 81120, Note_on_c, 4, 74, 105
6, 81120, Note_on_c, 4, 67, 115
6, 81360, Note_off_c, 4, 67, 64
6, 81360, Note_off_c, 4, 74, 64
6, 81600, Note_on_c, 4, 72, 64
6, 81600, Note_on_c, 4, 64, 66
6, 81720, Note_off_c, 4, 64, 64
6, 81720, Note_off_c, 4, 72, 64
6, 81840, Note_on_c, 4, 67, 80
6, 81960, Note_off_c, 4, 67, 64
6, 82080, Note_on_c, 4, 72, 72
6, 82080, Note_on_c, 4, 64, 80
6, 82200, Note_off_c, 4, 64, 64
6, 82200, Note_off_c, 4, 72, 64
6, 82320, Note_on_c, 4, 74, 84
6, 82320, Note_on_c, 4, 67, 81
6, 82440, Note_off_c, 4, 67, 64
6, 82440, Note_off_c, 4, 74, 64
6, 82560, Note_on_c, 4, 76, 119
6, 82560, Note_on_c, 4, 72, 112
6, 82920, Note_off_c, 4, 72, 64
6, 82920, Note_off_c, 4, 76, 64
6, 82920, Note_on_c, 4, 74, 76
6, 82920, Note_on_c, 4, 67, 77
6, 83040, Note_off_c, 4, 67, 64
6, 83040, Note_off_c, 4, 74, 64
6, 83040, Note_on_c, 4, 72, 66
6, 83040, Note_on_c, 4, 64, 74
6, 83160, Note_off_c, 4, 64, 64
6, 83160, Note_off_c, 4, 72, 64
6, 83160, Note_on_c, 4, 74, 73
6, 83160, Note_on_c, 4, 67, 73
6, 83280, Note_off_c, 4, 67, 64
6, 83280, Note_off_c, 4, 74, 64
6, 83280, Note_on_c, 4, 76, 59
6, 83280, Note_on_c, 4, 72, 68
6, 83340, Note_off_c, 4, 72, 64
6, 83340, Note_off_c, 4, 76, 64
6, 83400, Note_on_c, 4, 77, 61
6, 83400, Note_on_c, 4, 74, 73
6, 83460, Note_off_c, 4, 74, 64
6, 83460, Note_off_c, 4, 77, 64
6, 83520, Note_on_c, 4, 79, 45
6, 83520, Note_on_c, 4, 76, 70
6, 83640, Note_off_c, 4, 76, 64
6, 83640, Note_off_c, 4, 79, 64
6, 83760, Note_on_c, 4, 79, 65
6, 83760, Note_on_c, 4, 76, 80
6, 83880, Note_off_c, 4, 76, 64
6, 83880, Note_off_c, 4, 79, 64
6, 84000, Note_on_c, 4, 77, 68
6, 84000, Note_on_c, 4, 74, 53
6, 84120, Note_off_c, 4, 74, 64
6, 84120, Note_off_c, 4, 77, 64
6, 84240, Note_on_c, 4, 76, 73
6, 84240, Note_on_c, 4, 72, 69
6, 84360, Note_off_c, 4, 72, 64
6, 84360, Note_off_c, 4, 76, 64
6, 84480, Note_on_c, 4, 74, 80
6, 84480, Note_on_c, 4, 67, 80
6, 84720, Note_off_c, 4, 67, 64
6, 84720, Note_off_c, 4, 74, 64
6, 85440, Note_on_c, 4, 72, 43
6, 85440, Note_on_c, 4, 64, 45
6, 85560, Note_off_c, 4, 64, 64
6, 85560, Note_off_c, 4, 72, 64
6, 85680, Note_on_c, 4, 67, 48
6, 85800, Note_off_c, 4, 67, 64
6, 85920, Note_on_c, 4, 72, 45
6, 85920, Note_on_c, 4, 64, 53
6, 86040, Note_off_c, 4, 64, 64
6, 86040, Note_off_c, 4, 72, 64
6, 86160, Note_on_c, 4, 74, 65
6, 86160, Note_on_c, 4, 67, 65
6, 86280, Note_off_c, 4, 67, 64
6, 86280, Note_off_c, 4, 74, 64
6, 86400, Note_on_c, 4, 76, 95
6, 86400, Note_on_c, 4, 72, 70
6, 86760, Note_off_c, 4, 72, 64
6, 86760, Note_off_c, 4, 76, 64
6, 86760, Note_on_c, 4, 74, 72
6, 86760, Note_on_c, 4, 67, 72
6, 86880, Note_off_c, 4, 67, 64
6, 86880, Note_off_c, 4, 74, 64
6, 86880, Note_on_c, 4, 72, 45
6, 86880, Note_on_c, 4, 64, 76
6, 87000, Note_off_c, 4, 64, 64
6, 87000, Note_off_c, 4, 72, 64
6, 87000, Note_on_c, 4, 74, 61
6, 87000, Note_on_c, 4, 67, 65
6, 87120, Note_off_c, 4, 67, 64
6, 87120, Note_off_c, 4, 74, 64
6, 87120, Note_on_c, 4, 76, 68
6, 87120, Note_on_c, 4, 72, 46
6, 87180, Note_off_c, 4, 72, 64
6, 87180, Note_off_c, 4, 76, 64
6, 87240, Note_on_c, 4, 77, 64
6, 87240, Note_on_c, 4, 74, 50
6, 87300, Note_off_c, 4, 74, 64
6, 87300, Note_off_c, 4, 77, 64
6, 87360, Note_on_c, 4, 79, 45
6, 87360, Note_on_c, 4, 76, 54
6, 87480, Note_off_c, 4, 76, 64
6, 87480, Note_off_c, 4, 79, 64
6, 87600, Note_on_c, 4, 79, 45
6, 87600, Note_on_c, 4, 76, 56
6, 87720, Note_off_c, 4, 76, 64
6, 87720, Note_off_c, 4, 79, 64
6, 87840, Note_on_c, 4, 74, 64
6, 87840, Note_on_c, 4, 67, 55
6, 87960, Note_off_c, 4, 67, 64
6, 87960, Note_off_c, 4, 74, 64
6, 88080, Note_on_c, 4, 74, 57
6, 88080, Note_on_c, 4, 67, 45
6, 88200, Note_off_c, 4, 67, 64
6, 88200, Note_off_c, 4, 74, 64
6, 88320, Note_on_c, 4, 76, 99
6, 88320, Note_on_c, 4, 72, 73
6, 88680, Note_off_c, 4, 72, 64
6, 88680, Note_off_c, 4, 76, 64
6, 88680, Note_on_c, 4, 74, 64
6, 88680, Note_on_c, 4, 67, 73
6, 88800, Note_off_c, 4, 67, 64
6, 88800, Note_off_c, 4, 74, 64
6, 88800, Note_on_c, 4, 72, 46
6, 88800, Note_on_c, 4, 64, 72
6, 88920, Note_off_c, 4, 64, 64
6, 88920, Note_off_c, 4, 72, 64
6, 88920, Note_on_c, 4, 74, 62
6, 88920, Note_on_c, 4, 67, 64
6, 89040, Note_off_c, 4, 67, 64
6, 89040, Note_off_c, 4, 74, 64
6, 89040, Note_on_c, 4, 76, 68
6, 89040, Note_on_c, 4, 72, 57
6, 89100, Note_off_c, 4, 72, 64
6, 89100, Note_off_c, 4, 76, 64
6, 89160, Note_on_c, 4, 77, 64
6, 89160, Note_on_c, 4, 74, 60
6, 89220, Note_off_c, 4, 74, 64
6, 89220, Note_off_c, 4, 77, 64
6, 89280, Note_on_c, 4, 79, 45
6, 89280, Note_on_c, 4, 76, 50
6, 89400, Note_off_c, 4, 76, 64
6, 89400, Note_off_c, 4, 79, 64
6, 89520, Note_on_c, 4, 79, 57
6, 89520, Note_on_c, 4, 76, 64
6, 89640, Note_off_c, 4, 76, 64
6, 89640, Note_off_c, 4, 79, 64
6, 89760, Note_on_c, 4, 74, 50
6, 89760, Note_on_c, 4, 67, 43
6, 89880, Note_off_c, 4, 67, 64
6, 89880, Note_off_c, 4, 74, 64
6, 90000, Note_on_c, 4, 74, 53
6, 90000, Note_on_c, 4, 67, 45
6, 90120, Note_off_c, 4, 67, 64
6, 90120, Note_off_c, 4, 74, 64
6, 90240, Note_on_c, 4, 72, 80
6, 90240, Note_on_c, 4, 76, 80
6, 91200, Note_off_c, 4, 76, 64
6, 91200, Note_off_c, 4, 72, 64
6, 91200, Note_on_c, 4, 74, 80
6, 91200, Note_on_c, 4, 72, 80
6, 91680, Note_off_c, 4, 72, 64
6, 91680, Note_off_c, 4, 74, 64
6, 91680, Note_on_c, 4, 67, 80
6, 91680, Note_on_c, 4, 74, 80
6, 92160, Note_off_c, 4, 74, 64
6, 92160, Note_off_c, 4, 67, 64
6, 92160, Note_on_c, 4, 76, 80
6, 92160, Note_on_c, 4, 72, 80
6, 92400, Note_off_c, 4, 72, 64
6, 92400, Note_off_c, 4, 76, 64
6, 92400, Note_on_c, 4, 72, 80
6, 92400, Note_on_c, 4, 60, 80
6, 92640, Note_off_c, 4, 60, 64
6, 92640, Note_off_c, 4, 72, 64
6, 92880, Note_on_c, 4, 60, 80
6, 92880, Note_on_c, 4, 72, 80
6, 93120, Note_off_c, 4, 72, 64
6, 93120, Note_off_c, 4, 60, 64
6, 93120, Note_on_c, 4, 74, 80
6, 93120, Note_on_c, 4, 72, 80
6, 93600, Note_off_c, 4, 72, 64
6, 93600, Note_off_c, 4, 74, 64
6, 93600, Note_on_c, 4, 67, 80
6, 93600, Note_on_c, 4, 74, 80
6, 94080, Note_off_c, 4, 74, 64
6, 94080, Note_off_c, 4, 67, 64
6, 94080, Note_on_c, 4, 72, 123
6, 94080, Note_on_c, 4, 60, 119
6, 94560, Note_off_c, 4, 60, 64
6, 94560, Note_off_c, 4, 72, 64
6, 94560, Note_on_c, 4, 72, 119
6, 94560, Note_on_c, 4, 60, 119
6, 94680, Note_off_c, 4, 60, 64
6, 94680, Note_off_c, 4, 72, 64
6, 94800, Note_on_c, 4, 72, 119
6, 94800, Note_on_c, 4, 60, 119
6, 94920, Note_off_c, 4, 60, 64
6, 94920, Note_off_c, 4, 72, 64
6, 95040, Note_on_c, 4, 72, 125
6, 95040, Note_on_c, 4, 60, 123
6, 95280, Note_off_c, 4, 60, 64
6, 95280, Note_off_c, 4, 72, 64
6, 96000, Note_on_c, 4, 76, 123
6, 96000, Note_on_c, 4, 64, 119
6, 96480, Note_off_c, 4, 64, 64
6, 96480, Note_off_c, 4, 76, 64
6, 96480, Note_on_c, 4, 76, 119
6, 96480, Note_on_c, 4, 64, 119
6, 96600, Note_off_c, 4, 64, 64
6, 96600, Note_off_c, 4, 76, 64
6, 96720, Note_on_c, 4, 76, 119
6, 96720, Note_on_c, 4, 64, 119
6, 96840, Note_off_c, 4, 64, 64
6, 96840, Note_off_c, 4, 76, 64
6, 96960, Note_on_c, 4, 76, 125
6, 96960, Note_on_c, 4, 64, 117
6, 97200, Note_off_c, 4, 64, 64
6, 97200, Note_off_c, 4, 76, 64
6, 97920, Note_on_c, 4, 67, 117
6, 97920, Note_on_c, 4, 79, 123
6, 98880, Note_off_c, 4, 79, 64
6, 98880, Note_off_c, 4, 67, 64
6, 98880, Note_on_c, 4, 79, 80
6, 98880, Note_on_c, 4, 67, 80
6, 99120, Note_off_c, 4, 67, 64
6, 99120, Note_off_c, 4, 79, 64
6, 99360, Note_on_c, 4, 74, 80
6, 99360, Note_on_c, 4, 67, 80
6, 99600, Note_off_c, 4, 67, 64
6, 99600, Note_off_c, 4, 74, 64
6, 99840, Note_on_c, 4, 76, 80
6, 99840, Note_on_c, 4, 72, 80
6, 100080, Note_off_c, 4, 72, 64
6, 100080, Note_off_c, 4, 76, 64
6, 100260, Note_on_c, 4, 72, 80
6, 100260, Note_on_c, 4, 60, 80
6, 100320, Note_off_c, 4, 60, 64
6, 100320, Note_off_c, 4, 72, 64
6, 100320, Note_on_c, 4, 72, 80
6, 100320, Note_on_c, 4, 60, 80
6, 100560, Note_off_c, 4, 60, 64
6, 100560, Note_off_c, 4, 72, 64
6, 100740, Note_on_c, 4, 60, 80
6, 100800, Note_off_c, 4, 60, 64
6, 100800, Note_on_c, 4, 60, 80
6, 101040, Note_off_c, 4, 60, 64
6, 112320, Note_on_c, 4, 72, 105
6, 112320, Note_on_c, 4, 64, 112
6, 112800, Note_off_c, 4, 64, 64
6, 112800, Note_off_c, 4, 72, 64
6, 112800, Note_on_c, 4, 72, 105
6, 112800, Note_on_c, 4, 64, 112
6, 112920, Note_off_c, 4, 64, 64
6, 112920, Note_off_c, 4, 72, 64
6, 113040, Note_on_c, 4, 72, 99
6, 113040, Note_on_c, 4, 64, 112
6, 113160, Note_off_c, 4, 64, 64
6, 113160, Note_off_c, 4, 72, 64
6, 113280, Note_on_c, 4, 72, 101
6, 113280, Note_on_c, 4, 64, 110
6, 113520, Note_off_c, 4, 64, 64
6, 113520, Note_off_c, 4, 72, 64
6, 116160, Note_on_c, 4, 74, 105
6, 116160, Note_on_c, 4, 67, 112
6, 116640, Note_off_c, 4, 67, 64
6, 116640, Note_off_c, 4, 74, 64
6, 116640, Note_on_c, 4, 74, 115
6, 116640, Note_on_c, 4, 67, 119
6, 116760, Note_off_c, 4, 67, 64
6, 116760, Note_off_c, 4, 74, 64
6, 116880, Note_on_c, 4, 74, 107
6, 116880, Note_on_c, 4, 67, 119
6, 117000, Note_off_c, 4, 67, 64
6, 117000, Note_off_c, 4, 74, 64
6, 117120, Note_on_c, 4, 74, 117
6, 117120, Note_on_c, 4, 67, 115
6, 117360, Note_off_c, 4, 67, 64
6, 117360, Note_off_c, 4, 74, 64
6, 147840, Note_on_c, 4, 74, 80
6, 148800, Note_off_c, 4, 74, 64
6, 148800, Note_on_c, 4, 74, 80
6, 149760, Note_off_c, 4, 74, 64
6, 149760, Note_on_c, 4, 74, 80
6, 150720, Note_off_c, 4, 74, 64
6, 168960, Note_on_c, 4, 79, 80
6, 168960, Note_on_c, 4, 67, 80
6, 169920, Note_off_c, 4, 67, 64
6, 169920, Note_off_c, 4, 79, 64
6, 173760, Note_on_c, 4, 74, 80
6, 173760, Note_on_c, 4, 74, 80
6, 174720, Note_off_c, 4, 74, 64
6, 174720, Note_off_c, 4, 74, 64
6, 174720, Note_on_c, 4, 74, 80
6, 174720, Note_on_c, 4, 74, 80
6, 175680, Note_off_c, 4, 74, 64
6, 175680, Note_off_c, 4, 74, 64
6, 175680, Note_on_c, 4, 74, 80
6, 175920, Note_off_c, 4, 74, 64
6, 175920, Note_on_c, 4, 74, 80
6, 176160, Note_off_c, 4, 74, 64
6, 176160, Note_on_c, 4, 74, 80
6, 176400, Note_off_c, 4, 74, 64
6, 176400, Note_on_c, 4, 74, 80
6, 176640, Note_off_c, 4, 74, 64
6, 176640, Note_on_c, 4, 74, 80
6, 176880, Note_off_c, 4, 74, 64
6, 186240, Note_on_c, 4, 55, 80
6, 186240, Note_on_c, 4, 67, 80
6, 187200, Note_off_c, 4, 67, 64
6, 187200, Note_off_c, 4, 55, 64
6, 187200, Note_on_c, 4, 55, 80
6, 187200, Note_on_c, 4, 67, 80
6, 188160, Note_off_c, 4, 67, 64
6, 188160, Note_off_c, 4, 55, 64
6, 188160, Note_on_c, 4, 55, 80
6, 188160, Note_on_c, 4, 67, 80
6, 189120, Note_off_c, 4, 67, 64
6, 189120, Note_off_c, 4, 55, 64
6, 189120, Note_on_c, 4, 55, 80
6, 189120, Note_on_c, 4, 67, 80
6, 190080, Note_off_c, 4, 67, 64
6, 190080, Note_off_c, 4, 55, 64
6, 190080, Note_on_c, 4, 67, 80
6, 190080, Note_on_c, 4, 55, 80
6, 190320, Note_off_c, 4, 55, 64
6, 190320, Note_off_c, 4, 67, 64
6, 195840, Note_on_c, 4, 55, 80
6, 195840, Note_on_c, 4, 67, 80
6, 196800, Note_off_c, 4, 67, 64
6, 196800, Note_off_c, 4, 55, 64
6, 196800, Note_on_c, 4, 55, 80
6, 196800, Note_on_c, 4, 67, 80
6, 197760, Note_off_c, 4, 67, 64
6, 197760, Note_off_c, 4, 55, 64
6, 197760, Note_on_c, 4, 55, 80
6, 197760, Note_on_c, 4, 67, 80
6, 198720, Note_off_c, 4, 67, 64
6, 198720, Note_off_c, 4, 55, 64
6, 198720, Note_on_c, 4, 55, 80
6, 198720, Note_on_c, 4, 67, 80
6, 199680, Note_off_c, 4, 67, 64
6, 199680, Note_off_c, 4, 55, 64
6, 199680, Note_on_c, 4, 67, 80
6, 199680, Note_on_c, 4, 55, 80
6, 199920, Note_off_c, 4, 55, 64
6, 199920, Note_off_c, 4, 67, 64
6, 226560, Note_on_c, 4, 79, 80
6, 226560, Note_on_c, 4, 67, 80
6, 227520, Note_off_c, 4, 67, 64
6, 227520, Note_off_c, 4, 79, 64
6, 227520, Note_on_c, 4, 79, 72
6, 227520, Note_on_c, 4, 76, 86
6, 228480, Note_off_c, 4, 76, 64
6, 228480, Note_off_c, 4, 79, 64
6, 228480, Note_on_c, 4, 77, 86
6, 228480, Note_on_c, 4, 74, 81
6, 229440, Note_off_c, 4, 74, 64
6, 229440, Note_off_c, 4, 77, 64
6, 229440, Note_on_c, 4, 74, 99
6, 229440, Note_on_c, 4, 67, 68
6, 230400, Note_off_c, 4, 67, 64
6, 230400, Note_off_c, 4, 74, 64
6, 230400, Note_on_c, 4, 72, 64
6, 230400, Note_on_c, 4, 60, 84
6, 230880, Note_off_c, 4, 60, 64
6, 230880, Note_off_c, 4, 72, 64
6, 230880, Note_on_c, 4, 72, 58
6, 230880, Note_on_c, 4, 60, 86
6, 231000, Note_off_c, 4, 60, 64
6, 231000, Note_off_c, 4, 72, 64
6, 231120, Note_on_c, 4, 72, 53
6, 231120, Note_on_c, 4, 60, 82
6, 231240, Note_off_c, 4, 60, 64
6, 231240, Note_off_c, 4, 72, 64
6, 231360, Note_on_c, 4, 74, 89
6, 231360, Note_on_c, 4, 72, 74
6, 231840, Note_off_c, 4, 72, 64
6, 231840, Note_off_c, 4, 74, 64
6, 231840, Note_on_c, 4, 74, 78
6, 231840, Note_on_c, 4, 72, 62
6, 231960, Note_off_c, 4, 72, 64
6, 231960, Note_off_c, 4, 74, 64
6, 232080, Note_on_c, 4, 74, 89
6, 232080, Note_on_c, 4, 72, 68
6, 232200, Note_off_c, 4, 72, 64
6, 232200, Note_off_c, 4, 74, 64
6, 232320, Note_on_c, 4, 74, 81
6, 232320, Note_on_c, 4, 67, 69
6, 232560, Note_off_c, 4, 67, 64
6, 232560, Note_off_c, 4, 74, 64
6, 233280, Note_on_c, 4, 76, 78
6, 233280, Note_on_c, 4, 64, 95
6, 233760, Note_off_c, 4, 64, 64
6, 233760, Note_off_c, 4, 76, 64
6, 233760, Note_on_c, 4, 76, 82
6, 233760, Note_on_c, 4, 64, 89
6, 233880, Note_off_c, 4, 64, 64
6, 233880, Note_off_c, 4, 76, 64
6, 234000, Note_on_c, 4, 76, 94
6, 234000, Note_on_c, 4, 64, 99
6, 234120, Note_off_c, 4, 64, 64
6, 234120, Note_off_c, 4, 76, 64
6, 234240, Note_on_c, 4, 76, 85
6, 234240, Note_on_c, 4, 64, 84
6, 234480, Note_off_c, 4, 64, 64
6, 234480, Note_off_c, 4, 76, 64
6, 236160, Note_on_c, 4, 74, 99
6, 236640, Note_off_c, 4, 74, 64
6, 236640, Note_on_c, 4, 67, 81
6, 236640, Note_on_c, 4, 79, 89
6, 237120, Note_off_c, 4, 79, 64
6, 237120, Note_off_c, 4, 67, 64
6, 237120, Note_on_c, 4, 81, 89
6, 237120, Note_on_c, 4, 79, 84
6, 237600, Note_off_c, 4, 79, 64
6, 237600, Note_off_c, 4, 81, 64
6, 237600, Note_on_c, 4, 74, 98
6, 237600, Note_on_c, 4, 81, 94
6, 238080, Note_off_c, 4, 81, 64
6, 238080, Note_off_c, 4, 74, 64
6, 238080, Note_on_c, 4, 79, 80
6, 238080, Note_on_c, 4, 67, 80
6, 238320, Note_off_c, 4, 67, 64
6, 238320, Note_off_c, 4, 79, 64
6, 240000, Note_on_c, 4, 74, 94
6, 240000, Note_on_c, 4, 67, 95
6, 240120, Note_off_c, 4, 67, 64
6, 240120, Note_off_c, 4, 74, 64
6, 240960, Note_on_c, 4, 74, 89
6, 240960, Note_on_c, 4, 67, 89
6, 241080, Note_off_c, 4, 74, 64
6, 241200, Note_off_c, 4, 67, 64
6, 241200, Note_on_c, 4, 76, 93
6, 241320, Note_off_c, 4, 76, 64
6, 241440, Note_on_c, 4, 76, 84
6, 241440, Note_on_c, 4, 72, 62
6, 241560, Note_off_c, 4, 72, 64
6, 241560, Note_off_c, 4, 76, 64
6, 241680, Note_on_c, 4, 74, 94
6, 241800, Note_off_c, 4, 74, 64
6, 241920, Note_on_c, 4, 74, 80
6, 241920, Note_on_c, 4, 67, 80
6, 242160, Note_off_c, 4, 67, 64
6, 242160, Note_off_c, 4, 74, 64
6, 242400, Note_on_c, 4, 74, 80
6, 242640, Note_off_c, 4, 74, 64
6, 242880, Note_on_c, 4, 74, 80
6, 243120, Note_off_c, 4, 74, 64
6, 243360, Note_on_c, 4, 74, 80
6, 243600, Note_off_c, 4, 74, 64
6, 243840, Note_on_c, 4, 74, 80
6, 243840, Note_on_c, 4, 67, 80
6, 244080, Note_off_c, 4, 67, 64
6, 244080, Note_off_c, 4, 74, 64
6, 244260, Note_on_c, 4, 79, 80
6, 244260, Note_on_c, 4, 67, 80
6, 244320, Note_off_c, 4, 67, 64
6, 244320, Note_off_c, 4, 79, 64
6, 244320, Note_on_c, 4, 79, 80
6, 244320, Note_on_c, 4, 67, 80
6, 244560, Note_off_c, 4, 67, 64
6, 244560, Note_off_c, 4, 79, 64
6, 244740, Note_on_c, 4, 67, 80
6, 244740, Note_on_c, 4, 79, 80
6, 244800, Note_off_c, 4, 79, 64
6, 244800, Note_off_c, 4, 67, 64
6, 244800, Note_on_c, 4, 79, 80
6, 244800, Note_on_c, 4, 67, 80
6, 245040, Note_off_c, 4, 67, 64
6, 245040, Note_off_c, 4, 79, 64
6, 249600, Note_on_c, 4, 77, 80
6, 249600, Note_on_c, 4, 74, 80
6, 250080, Note_off_c, 4, 74, 64
6, 250080, Note_off_c, 4, 77, 64
6, 250080, Note_on_c, 4, 77, 81
6, 250080, Note_on_c, 4, 74, 93
6, 250200, Note_off_c, 4, 74, 64
6, 250200, Note_off_c, 4, 77, 64
6, 250320, Note_on_c, 4, 77, 84
6, 250320, Note_on_c, 4, 74, 94
6, 250440, Note_off_c, 4, 74, 64
6, 250440, Note_off_c, 4, 77, 64
6, 250560, Note_on_c, 4, 79, 80
6, 250560, Note_on_c, 4, 67, 80
6, 250800, Note_off_c, 4, 67, 64
6, 250800, Note_off_c, 4, 79, 64
6, 251520, Note_on_c, 4, 72, 80
6, 251520, Note_on_c, 4, 60, 80
6, 251760, Note_off_c, 4, 60, 64
6, 251760, Note_off_c, 4, 72, 64
6, 253440, Note_on_c, 4, 77, 80
6, 253680, Note_off_c, 4, 77, 64
6, 253920, Note_on_c, 4, 77, 80
6, 254160, Note_off_c, 4, 77, 64
6, 254400, Note_on_c, 4, 67, 80
6, 254640, Note_off_c, 4, 67, 64
6, 254640, Control_c, 4, 7, 100
6, 254640, Control_c, 4, 10, 46
6, 254640, Control_c, 4, 93, 0
6, 254640, Control_c, 4, 91, 66
6, 266160, Control_c, 4, 7, 100
6, 266160, Control_c, 4, 10, 46
6, 266160, Control_c, 4, 93, 0
6, 266160, Control_c, 4, 91, 66
6, 266400, Control_c, 4, 7, 100
6, 266400, Control_c, 4, 10, 46
6, 266400, Control_c, 4, 93, 0
6, 266400, Control_c, 4, 91, 66
6, 266640, Control_c, 4, 7, 100
6, 266640, Control_c, 4, 10, 46
6, 266640, Control_c, 4, 93, 0
6, 266640, Control_c, 4, 91, 66
6, 266880, Control_c, 4, 7, 100
6, 266880, Control_c, 4, 10, 46
6, 266880, Control_c, 4, 93, 0
6, 266880, Control_c, 4, 91, 66
6, 267120, Control_c, 4, 7, 100
6, 267120, Control_c, 4, 10, 46
6, 267120, Control_c, 4, 93, 0
6, 267120, Control_c, 4, 91, 66
6, 267360, Control_c, 4, 7, 100
6, 267360, Control_c, 4, 10, 46
6, 267360, Control_c, 4, 93, 0
6, 267360, Control_c, 4, 91, 66
6, 267600, Control_c, 4, 7, 100
6, 267600, Control_c, 4, 10, 46
6, 267600, Control_c, 4, 93, 0
6, 267600, Control_c, 4, 91, 66
6, 280320, Control_c, 4, 7, 100
6, 280320, Control_c, 4, 10, 46
6, 280320, Control_c, 4, 93, 0
6, 280320, Control_c, 4, 91, 66
6, 292800, Note_on_c, 4, 79, 80
6, 292800, Note_on_c, 4, 67, 80
6, 293760, Note_off_c, 4, 67, 64
6, 293760, Note_off_c, 4, 79, 64
6, 293760, Note_on_c, 4, 79, 80
6, 293760, Note_on_c, 4, 67, 80
6, 294720, Note_off_c, 4, 67, 64
6, 294720, Note_off_c, 4, 79, 64
6, 294720, Note_on_c, 4, 79, 80
6, 294720, Note_on_c, 4, 67, 80
6, 294960, Note_off_c, 4, 67, 64
6, 294960, Note_off_c, 4, 79, 64
6, 296640, Note_on_c, 4, 79, 80
6, 296640, Note_on_c, 4, 67, 80
6, 297600, Note_off_c, 4, 67, 64
6, 297600, Note_off_c, 4, 79, 64
6, 297600, Note_on_c, 4, 79, 80
6, 297600, Note_on_c, 4, 67, 80
6, 298560, Note_off_c, 4, 67, 64
6, 298560, Note_off_c, 4, 79, 64
6, 298560, Note_on_c, 4, 79, 80
6, 298560, Note_on_c, 4, 67, 80
6, 298800, Note_off_c, 4, 67, 64
6, 298800, Note_off_c, 4, 79, 64
6, 310800, Control_c, 4, 7, 100
6, 310800, Control_c, 4, 10, 46
6, 310800, Control_c, 4, 93, 0
6, 310800, Control_c, 4, 91, 66
6, 311040, Control_c, 4, 7, 100
6, 311040, Control_c, 4, 10, 46
6, 311040, Control_c, 4, 93, 0
6, 311040, Control_c, 4, 91, 66
6, 311280, Control_c, 4, 7, 100
6, 311280, Control_c, 4, 10, 46
6, 311280, Control_c, 4, 93, 0
6, 311280, Control_c, 4, 91, 66
6, 311520, Control_c, 4, 7, 100
6, 311520, Control_c, 4, 10, 46
6, 311520, Control_c, 4, 93, 0
6, 311520, Control_c, 4, 91, 66
6, 311760, Control_c, 4, 7, 100
6, 311760, Control_c, 4, 10, 46
6, 311760, Control_c, 4, 93, 0
6, 311760, Control_c, 4, 91, 66
6, 312000, Note_on_c, 4, 72, 80
6, 312000, Note_on_c, 4, 60, 80
6, 312000, Control_c, 4, 7, 100
6, 312000, Control_c, 4, 10, 46
6, 312000, Control_c, 4, 93, 0
6, 312000, Control_c, 4, 91, 66
6, 312240, Control_c, 4, 7, 100
6, 312240, Control_c, 4, 10, 46
6, 312240, Control_c, 4, 93, 0
6, 312240, Control_c, 4, 91, 66
6, 312480, Control_c, 4, 7, 100
6, 312480, Control_c, 4, 10, 46
6, 312480, Control_c, 4, 93, 0
6, 312480, Control_c, 4, 91, 66
6, 312720, Control_c, 4, 7, 100
6, 312720, Control_c, 4, 10, 46
6, 312720, Control_c, 4, 93, 0
6, 312720, Control_c, 4, 91, 66
6, 312960, Note_off_c, 4, 60, 64
6, 312960, Note_off_c, 4, 72, 64
6, 312960, Note_on_c, 4, 72, 80
6, 312960, Note_on_c, 4, 60, 80
6, 313920, Note_off_c, 4, 60, 64
6, 313920, Note_off_c, 4, 72, 64
6, 313920, Note_on_c, 4, 67, 80
6, 313920, Note_on_c, 4, 55, 80
6, 314160, Note_off_c, 4, 55, 64
6, 314160, Note_off_c, 4, 67, 64
6, 319680, Note_on_c, 4, 67, 43
6, 319680, Note_on_c, 4, 55, 43
6, 320160, Note_off_c, 4, 55, 64
6, 320160, Note_off_c, 4, 67, 64
6, 320160, Note_on_c, 4, 67, 43
6, 320160, Note_on_c, 4, 55, 44
6, 320400, Note_off_c, 4, 55, 64
6, 320400, Note_off_c, 4, 67, 64
6, 320400, Note_on_c, 4, 67, 40
6, 320400, Note_on_c, 4, 55, 40
6, 320640, Note_off_c, 4, 55, 64
6, 320640, Note_off_c, 4, 67, 64
6, 320640, Note_on_c, 4, 67, 41
6, 320640, Note_on_c, 4, 55, 40
6, 320880, Note_off_c, 4, 55, 64
6, 320880, Note_off_c, 4, 67, 64
6, 321600, Note_on_c, 4, 67, 59
6, 321600, Note_on_c, 4, 55, 45
6, 322080, Note_off_c, 4, 55, 64
6, 322080, Note_off_c, 4, 67, 64
6, 322080, Note_on_c, 4, 67, 61
6, 322080, Note_on_c, 4, 55, 44
6, 322320, Note_off_c, 4, 55, 64
6, 322320, Note_off_c, 4, 67, 64
6, 322320, Note_on_c, 4, 67, 43
6, 322320, Note_on_c, 4, 55, 40
6, 322560, Note_off_c, 4, 55, 64
6, 322560, Note_off_c, 4, 67, 64
6, 322560, Note_on_c, 4, 67, 42
6, 322560, Note_on_c, 4, 55, 40
6, 322800, Note_off_c, 4, 55, 64
6, 322800, Note_off_c, 4, 67, 64
6, 323520, Note_on_c, 4, 67, 43
6, 323520, Note_on_c, 4, 55, 44
6, 324000, Note_off_c, 4, 55, 64
6, 324000, Note_off_c, 4, 67, 64
6, 324000, Note_on_c, 4, 67, 43
6, 324000, Note_on_c, 4, 55, 41
6, 324240, Note_off_c, 4, 55, 64
6, 324240, Note_off_c, 4, 67, 64
6, 324240, Note_on_c, 4, 67, 46
6, 324240, Note_on_c, 4, 55, 43
6, 324480, Note_off_c, 4, 55, 64
6, 324480, Note_off_c, 4, 67, 64
6, 324480, Note_on_c, 4, 67, 43
6, 324480, Note_on_c, 4, 55, 43
6, 324720, Note_off_c, 4, 55, 64
6, 324720, Note_off_c, 4, 67, 64
6, 325920, Note_on_c, 4, 67, 45
6, 325920, Note_on_c, 4, 55, 38
6, 326160, Note_off_c, 4, 55, 64
6, 326160, Note_off_c, 4, 67, 64
6, 326160, Note_on_c, 4, 67, 45
6, 326160, Note_on_c, 4, 55, 38
6, 326400, Note_off_c, 4, 55, 64
6, 326400, Note_off_c, 4, 67, 64
6, 326880, Note_on_c, 4, 67, 48
6, 326880, Note_on_c, 4, 55, 40
6, 327120, Note_off_c, 4, 55, 64
6, 327120, Note_off_c, 4, 67, 64
6, 327120, Note_on_c, 4, 67, 40
6, 327120, Note_on_c, 4, 55, 37
6, 327360, Note_off_c, 4, 55, 64
6, 327360, Note_off_c, 4, 67, 64
6, 327840, Note_on_c, 4, 67, 44
6, 327840, Note_on_c, 4, 55, 35
6, 328080, Note_off_c, 4, 55, 64
6, 328080, Note_off_c, 4, 67, 64
6, 328080, Note_on_c, 4, 67, 45
6, 328080, Note_on_c, 4, 55, 38
6, 328320, Note_off_c, 4, 55, 64
6, 328320, Note_off_c, 4, 67, 64
6, 328800, Note_on_c, 4, 67, 45
6, 328800, Note_on_c, 4, 55, 40
6, 329040, Note_off_c, 4, 55, 64
6, 329040, Note_off_c, 4, 67, 64
6, 329040, Note_on_c, 4, 67, 44
6, 329040, Note_on_c, 4, 55, 37
6, 329280, Note_off_c, 4, 55, 64
6, 329280, Note_off_c, 4, 67, 64
6, 329280, Note_on_c, 4, 67, 50
6, 329280, Note_on_c, 4, 55, 40
6, 329520, Note_off_c, 4, 55, 64
6, 329520, Note_off_c, 4, 67, 64
6, 330240, Note_on_c, 4, 74, 80
6, 330240, Note_on_c, 4, 67, 80
6, 331200, Note_off_c, 4, 67, 64
6, 331200, Note_off_c, 4, 74, 64
6, 331200, Note_on_c, 4, 72, 80
6, 331200, Note_on_c, 4, 64, 80
6, 331680, Note_off_c, 4, 64, 64
6, 331680, Note_off_c, 4, 72, 64
6, 331680, Note_on_c, 4, 72, 123
6, 331800, Note_off_c, 4, 72, 64
6, 331920, Note_on_c, 4, 72, 123
6, 332040, Note_off_c, 4, 72, 64
6, 332160, Note_on_c, 4, 72, 123
6, 332400, Note_off_c, 4, 72, 64
6, 333120, Note_on_c, 4, 72, 117
6, 333120, Note_on_c, 4, 64, 115
6, 333240, Note_off_c, 4, 64, 64
6, 333240, Note_off_c, 4, 72, 64
6, 333360, Note_on_c, 4, 74, 123
6, 333360, Note_on_c, 4, 67, 125
6, 333480, Note_off_c, 4, 67, 64
6, 333480, Note_off_c, 4, 74, 64
6, 333600, Note_on_c, 4, 76, 127
6, 333600, Note_on_c, 4, 72, 119
6, 333720, Note_off_c, 4, 72, 64
6, 333720, Note_off_c, 4, 76, 64
6, 333840, Note_on_c, 4, 77, 127
6, 333840, Note_on_c, 4, 74, 127
6, 333960, Note_off_c, 4, 74, 64
6, 333960, Note_off_c, 4, 77, 64
6, 334080, Note_on_c, 4, 76, 127
6, 334080, Note_on_c, 4, 72, 119
6, 334200, Note_off_c, 4, 72, 64
6, 334200, Note_off_c, 4, 76, 64
6, 334320, Note_on_c, 4, 74, 127
6, 334320, Note_on_c, 4, 67, 125
6, 334440, Note_off_c, 4, 67, 64
6, 334440, Note_off_c, 4, 74, 64
6, 335040, Note_on_c, 4, 67, 127
6, 335040, Note_on_c, 4, 55, 125
6, 335520, Note_off_c, 4, 55, 64
6, 335520, Note_off_c, 4, 67, 64
6, 335520, Note_on_c, 4, 74, 127
6, 335520, Note_on_c, 4, 67, 127
6, 335640, Note_off_c, 4, 67, 64
6, 335640, Note_off_c, 4, 74, 64
6, 335760, Note_on_c, 4, 74, 127
6, 335760, Note_on_c, 4, 67, 125
6, 335880, Note_off_c, 4, 67, 64
6, 335880, Note_off_c, 4, 74, 64
6, 336000, Note_on_c, 4, 74, 127
6, 336000, Note_on_c, 4, 67, 125
6, 336240, Note_off_c, 4, 67, 64
6, 336240, Note_off_c, 4, 74, 64
6, 336960, Note_on_c, 4, 79, 127
6, 336960, Note_on_c, 4, 67, 127
6, 337080, Note_off_c, 4, 67, 64
6, 337080, Note_off_c, 4, 79, 64
6, 337200, Note_on_c, 4, 72, 125
6, 337200, Note_on_c, 4, 64, 125
6, 337320, Note_off_c, 4, 64, 64
6, 337320, Note_off_c, 4, 72, 64
6, 337440, Note_on_c, 4, 74, 125
6, 337440, Note_on_c, 4, 67, 125
6, 337560, Note_off_c, 4, 67, 64
6, 337560, Note_off_c, 4, 74, 64
6, 337680, Note_on_c, 4, 76, 127
6, 337680, Note_on_c, 4, 72, 125
6, 337800, Note_off_c, 4, 72, 64
6, 337800, Note_off_c, 4, 76, 64
6, 337920, Note_on_c, 4, 77, 125
6, 337920, Note_on_c, 4, 74, 123
6, 338040, Note_off_c, 4, 74, 64
6, 338040, Note_off_c, 4, 77, 64
6, 338160, Note_on_c, 4, 76, 123
6, 338160, Note_on_c, 4, 72, 123
6, 338280, Note_off_c, 4, 72, 64
6, 338280, Note_off_c, 4, 76, 64
6, 345120, Note_on_c, 4, 77, 76
6, 345120, Note_on_c, 4, 74, 76
6, 345240, Note_off_c, 4, 74, 64
6, 345240, Note_off_c, 4, 77, 64
6, 345360, Note_on_c, 4, 77, 85
6, 345360, Note_on_c, 4, 74, 84
6, 345480, Note_off_c, 4, 74, 64
6, 345480, Note_off_c, 4, 77, 64
6, 345600, Note_on_c, 4, 76, 78
6, 345600, Note_on_c, 4, 72, 57
6, 345720, Note_off_c, 4, 72, 64
6, 345720, Note_off_c, 4, 76, 64
6, 345840, Note_on_c, 4, 76, 80
6, 345840, Note_on_c, 4, 72, 65
6, 345960, Note_off_c, 4, 72, 64
6, 345960, Note_off_c, 4, 76, 64
6, 346080, Note_on_c, 4, 72, 57
6, 346080, Note_on_c, 4, 64, 76
6, 346200, Note_off_c, 4, 64, 64
6, 346200, Note_off_c, 4, 72, 64
6, 346320, Note_on_c, 4, 72, 68
6, 346320, Note_on_c, 4, 64, 80
6, 346440, Note_off_c, 4, 64, 64
6, 346440, Note_off_c, 4, 72, 64
6, 346560, Note_on_c, 4, 74, 66
6, 346560, Note_on_c, 4, 67, 70
6, 346680, Note_off_c, 4, 67, 64
6, 346680, Note_off_c, 4, 74, 64
6, 348960, Note_on_c, 4, 79, 66
6, 348960, Note_on_c, 4, 67, 66
6, 349080, Note_off_c, 4, 67, 64
6, 349080, Note_off_c, 4, 79, 64
6, 349200, Note_on_c, 4, 79, 62
6, 349200, Note_on_c, 4, 67, 58
6, 349320, Note_off_c, 4, 67, 64
6, 349320, Note_off_c, 4, 79, 64
6, 349440, Note_on_c, 4, 79, 70
6, 349440, Note_on_c, 4, 67, 59
6, 349560, Note_off_c, 4, 67, 64
6, 349560, Note_off_c, 4, 79, 64
6, 349680, Note_on_c, 4, 79, 65
6, 349680, Note_on_c, 4, 67, 52
6, 349800, Note_off_c, 4, 67, 64
6, 349800, Note_off_c, 4, 79, 64
6, 349920, Note_on_c, 4, 79, 67
6, 349920, Note_on_c, 4, 67, 62
6, 350040, Note_off_c, 4, 67, 64
6, 350040, Note_off_c, 4, 79, 64
6, 350160, Note_on_c, 4, 79, 68
6, 350160, Note_on_c, 4, 67, 62
6, 350280, Note_off_c, 4, 67, 64
6, 350280, Note_off_c, 4, 79, 64
6, 350400, Note_on_c, 4, 79, 73
6, 350400, Note_on_c, 4, 67, 62
6, 350520, Note_off_c, 4, 67, 64
6, 350520, Note_off_c, 4, 79, 64
6, 354240, Note_on_c, 4, 67, 48
6, 354240, Note_on_c, 4, 79, 48
6, 355200, Note_off_c, 4, 79, 64
6, 355200, Note_off_c, 4, 67, 64
6, 355200, Note_on_c, 4, 67, 44
6, 355200, Note_on_c, 4, 79, 43
6, 356160, Note_off_c, 4, 79, 64
6, 356160, Note_off_c, 4, 67, 64
6, 356160, Note_on_c, 4, 79, 40
6, 356160, Note_on_c, 4, 67, 46
6, 356400, Note_off_c, 4, 67, 64
6, 356400, Note_off_c, 4, 79, 64
6, 356400, Note_on_c, 4, 79, 43
6, 356400, Note_on_c, 4, 67, 58
6, 356640, Note_off_c, 4, 67, 64
6, 356640, Note_off_c, 4, 79, 64
6, 356640, Note_on_c, 4, 76, 45
6, 356640, Note_on_c, 4, 64, 48
6, 356880, Note_off_c, 4, 64, 64
6, 356880, Note_off_c, 4, 76, 64
6, 356880, Note_on_c, 4, 60, 43
6, 356880, Note_on_c, 4, 72, 43
6, 357120, Note_off_c, 4, 72, 64
6, 357120, Note_off_c, 4, 60, 64
6, 357120, Note_on_c, 4, 79, 43
6, 357120, Note_on_c, 4, 67, 45
6, 357360, Note_off_c, 4, 67, 64
6, 357360, Note_off_c, 4, 79, 64
6, 358080, Note_on_c, 4, 64, 59
6, 358080, Note_on_c, 4, 76, 61
6, 359040, Note_off_c, 4, 76, 64
6, 359040, Note_off_c, 4, 64, 64
6, 359040, Note_on_c, 4, 76, 61
6, 359040, Note_on_c, 4, 64, 65
6, 359520, Note_off_c, 4, 64, 64
6, 359520, Note_off_c, 4, 76, 64
6, 359520, Note_on_c, 4, 72, 67
6, 359520, Note_on_c, 4, 76, 66
6, 360000, Note_off_c, 4, 76, 64
6, 360000, Note_off_c, 4, 72, 64
6, 360000, Note_on_c, 4, 74, 81
6, 360480, Note_off_c, 4, 74, 64
6, 360480, Note_on_c, 4, 74, 84
6, 360960, Note_off_c, 4, 74, 64
6, 360960, Note_on_c, 4, 74, 61
6, 360960, Note_on_c, 4, 67, 61
6, 361200, Note_off_c, 4, 67, 64
6, 361200, Note_off_c, 4, 74, 64
6, 375360, Note_on_c, 4, 60, 59
6, 375360, Note_on_c, 4, 72, 57
6, 376320, Note_off_c, 4, 72, 64
6, 376320, Note_off_c, 4, 60, 64
6, 376320, Note_on_c, 4, 72, 43
6, 376320, Note_on_c, 4, 60, 43
6, 376560, Note_off_c, 4, 60, 64
6, 376560, Note_off_c, 4, 72, 64
6, 380160, Note_on_c, 4, 72, 53
6, 380160, Note_on_c, 4, 64, 64
6, 380280, Note_off_c, 4, 64, 64
6, 380280, Note_off_c, 4, 72, 64
6, 380400, Note_on_c, 4, 67, 65
6, 380520, Note_off_c, 4, 67, 64
6, 380640, Note_on_c, 4, 72, 48
6, 380640, Note_on_c, 4, 64, 67
6, 380760, Note_off_c, 4, 64, 64
6, 380760, Note_off_c, 4, 72, 64
6, 380880, Note_on_c, 4, 74, 64
6, 380880, Note_on_c, 4, 67, 74
6, 381000, Note_off_c, 4, 67, 64
6, 381000, Note_off_c, 4, 74, 64
6, 381120, Note_on_c, 4, 76, 80
6, 381120, Note_on_c, 4, 72, 81
6, 381480, Note_off_c, 4, 72, 64
6, 381480, Note_off_c, 4, 76, 64
6, 381480, Note_on_c, 4, 74, 52
6, 381480, Note_on_c, 4, 67, 65
6, 381600, Note_off_c, 4, 67, 64
6, 381600, Note_off_c, 4, 74, 64
6, 381600, Note_on_c, 4, 72, 48
6, 381600, Note_on_c, 4, 64, 64
6, 381720, Note_off_c, 4, 64, 64
6, 381720, Note_off_c, 4, 72, 64
6, 381720, Note_on_c, 4, 74, 62
6, 381720, Note_on_c, 4, 67, 58
6, 381840, Note_off_c, 4, 67, 64
6, 381840, Note_off_c, 4, 74, 64
6, 381840, Note_on_c, 4, 76, 62
6, 381840, Note_on_c, 4, 72, 73
6, 381900, Note_off_c, 4, 72, 64
6, 381900, Note_off_c, 4, 76, 64
6, 381960, Note_on_c, 4, 77, 71
6, 381960, Note_on_c, 4, 74, 82
6, 382020, Note_off_c, 4, 74, 64
6, 382020, Note_off_c, 4, 77, 64
6, 382080, Note_on_c, 4, 79, 62
6, 382080, Note_on_c, 4, 76, 84
6, 382200, Note_off_c, 4, 76, 64
6, 382200, Note_off_c, 4, 79, 64
6, 382320, Note_on_c, 4, 79, 56
6, 382320, Note_on_c, 4, 76, 78
6, 382440, Note_off_c, 4, 76, 64
6, 382440, Note_off_c, 4, 79, 64
6, 382560, Note_on_c, 4, 77, 62
6, 382560, Note_on_c, 4, 74, 86
6, 382680, Note_off_c, 4, 74, 64
6, 382680, Note_off_c, 4, 77, 64
6, 382800, Note_on_c, 4, 76, 84
6, 382800, Note_on_c, 4, 72, 73
6, 382920, Note_off_c, 4, 72, 64
6, 382920, Note_off_c, 4, 76, 64
6, 383040, Note_on_c, 4, 74, 69
6, 383040, Note_on_c, 4, 67, 84
6, 383280, Note_off_c, 4, 67, 64
6, 383280, Note_off_c, 4, 74, 64
6, 392640, Note_on_c, 4, 72, 89
6, 392640, Note_on_c, 4, 60, 101
6, 392880, Note_off_c, 4, 60, 64
6, 392880, Note_off_c, 4, 72, 64
6, 392880, Note_on_c, 4, 60, 80
6, 392880, Note_on_c, 4, 72, 70
6, 393600, Note_off_c, 4, 72, 64
6, 393600, Note_off_c, 4, 60, 64
6, 393600, Note_on_c, 4, 60, 72
6, 393600, Note_on_c, 4, 72, 68
6, 394560, Note_off_c, 4, 72, 64
6, 394560, Note_off_c, 4, 60, 64
6, 394560, Note_on_c, 4, 72, 99
6, 394560, Note_on_c, 4, 60, 99
6, 394800, Note_off_c, 4, 60, 64
6, 394800, Note_off_c, 4, 72, 64
6, 394800, Note_on_c, 4, 60, 65
6, 394800, Note_on_c, 4, 72, 68
6, 395520, Note_off_c, 4, 72, 64
6, 395520, Note_off_c, 4, 60, 64
6, 395520, Note_on_c, 4, 60, 71
6, 395520, Note_on_c, 4, 72, 65
6, 396480, Note_off_c, 4, 72, 64
6, 396480, Note_off_c, 4, 60, 64
6, 396480, Note_on_c, 4, 72, 52
6, 396480, Note_on_c, 4, 60, 46
6, 396720, Note_off_c, 4, 60, 64
6, 396720, Note_off_c, 4, 72, 64
6, 402240, Note_on_c, 4, 72, 95
6, 402240, Note_on_c, 4, 60, 99
6, 402480, Note_off_c, 4, 60, 64
6, 402480, Note_off_c, 4, 72, 64
6, 402480, Note_on_c, 4, 60, 62
6, 402480, Note_on_c, 4, 72, 61
6, 403200, Note_off_c, 4, 72, 64
6, 403200, Note_off_c, 4, 60, 64
6, 403200, Note_on_c, 4, 60, 45
6, 403200, Note_on_c, 4, 72, 45
6, 404160, Note_off_c, 4, 72, 64
6, 404160, Note_off_c, 4, 60, 64
6, 404160, Note_on_c, 4, 72, 89
6, 404160, Note_on_c, 4, 60, 99
6, 404400, Note_off_c, 4, 60, 64
6, 404400, Note_off_c, 4, 72, 64
6, 404400, Note_on_c, 4, 60, 42
6, 404400, Note_on_c, 4, 72, 39
6, 405120, Note_off_c, 4, 72, 64
6, 405120, Note_off_c, 4, 60, 64
6, 405120, Note_on_c, 4, 60, 45
6, 405120, Note_on_c, 4, 72, 48
6, 406080, Note_off_c, 4, 72, 64
6, 406080, Note_off_c, 4, 60, 64
6, 406080, Note_on_c, 4, 72, 64
6, 406080, Note_on_c, 4, 60, 57
6, 406320, Note_off_c, 4, 60, 64
6, 406320, Note_off_c, 4, 72, 64
6, 421680, Note_on_c, 4, 76, 99
6, 421680, Note_on_c, 4, 72, 72
6, 422160, Note_off_c, 4, 72, 64
6, 422160, Note_off_c, 4, 76, 64
6, 422160, Note_on_c, 4, 74, 74
6, 422160, Note_on_c, 4, 67, 80
6, 422280, Note_off_c, 4, 67, 64
6, 422280, Note_off_c, 4, 74, 64
6, 422400, Note_on_c, 4, 72, 67
6, 422400, Note_on_c, 4, 64, 85
6, 422520, Note_off_c, 4, 64, 64
6, 422520, Note_off_c, 4, 72, 64
6, 422640, Note_on_c, 4, 79, 90
6, 422640, Note_on_c, 4, 76, 90
6, 423120, Note_off_c, 4, 76, 64
6, 423120, Note_off_c, 4, 79, 64
6, 423120, Note_on_c, 4, 77, 70
6, 423120, Note_on_c, 4, 74, 72
6, 423240, Note_off_c, 4, 74, 64
6, 423240, Note_off_c, 4, 77, 64
6, 423360, Note_on_c, 4, 76, 86
6, 423360, Note_on_c, 4, 72, 72
6, 423480, Note_off_c, 4, 72, 64
6, 423480, Note_off_c, 4, 76, 64
6, 425520, Note_on_c, 4, 79, 80
6, 425520, Note_on_c, 4, 76, 93
6, 426000, Note_off_c, 4, 76, 64
6, 426000, Note_off_c, 4, 79, 64
6, 426000, Note_on_c, 4, 77, 78
6, 426000, Note_on_c, 4, 74, 80
6, 426120, Note_off_c, 4, 74, 64
6, 426120, Note_off_c, 4, 77, 64
6, 426240, Note_on_c, 4, 76, 93
6, 426240, Note_on_c, 4, 72, 74
6, 426360, Note_off_c, 4, 72, 64
6, 426360, Note_off_c, 4, 76, 64
6, 426480, Note_on_c, 4, 74, 84
6, 426480, Note_on_c, 4, 67, 89
6, 426600, Note_off_c, 4, 67, 64
6, 426600, Note_off_c, 4, 74, 64
6, 426720, Note_on_c, 4, 72, 71
6, 426720, Note_on_c, 4, 64, 89
6, 426840, Note_off_c, 4, 64, 64
6, 426840, Note_off_c, 4, 72, 64
6, 426960, Note_on_c, 4, 74, 76
6, 426960, Note_on_c, 4, 67, 81
6, 427080, Note_off_c, 4, 67, 64
6, 427080, Note_off_c, 4, 74, 64
6, 430080, Control_c, 4, 7, 100
6, 430080, Control_c, 4, 10, 46
6, 430080, Control_c, 4, 93, 0
6, 430080, Control_c, 4, 91, 66
6, 431040, Control_c, 4, 7, 100
6, 431040, Control_c, 4, 10, 46
6, 431040, Control_c, 4, 93, 0
6, 431040, Control_c, 4, 91, 66
6, 432960, Note_on_c, 4, 72, 80
6, 432960, Note_on_c, 4, 60, 89
6, 433440, Note_off_c, 4, 60, 64
6, 433440, Note_off_c, 4, 72, 64
6, 433440, Note_on_c, 4, 72, 84
6, 433440, Note_on_c, 4, 60, 94
6, 433560, Note_off_c, 4, 60, 64
6, 433560, Note_off_c, 4, 72, 64
6, 433680, Note_on_c, 4, 72, 85
6, 433680, Note_on_c, 4, 60, 90
6, 433800, Note_off_c, 4, 60, 64
6, 433800, Note_off_c, 4, 72, 64
6, 433920, Note_on_c, 4, 60, 90
6, 433920, Note_on_c, 4, 72, 86
6, 434880, Note_off_c, 4, 72, 64
6, 434880, Note_off_c, 4, 60, 64
6, 434880, Note_on_c, 4, 72, 84
6, 434880, Note_on_c, 4, 60, 90
6, 435360, Note_off_c, 4, 60, 64
6, 435360, Note_off_c, 4, 72, 64
6, 435360, Note_on_c, 4, 72, 82
6, 435360, Note_on_c, 4, 60, 94
6, 435480, Note_off_c, 4, 60, 64
6, 435480, Note_off_c, 4, 72, 64
6, 435600, Note_on_c, 4, 72, 86
6, 435600, Note_on_c, 4, 60, 90
6, 435720, Note_off_c, 4, 60, 64
6, 435720, Note_off_c, 4, 72, 64
6, 435840, Note_on_c, 4, 60, 95
6, 435840, Note_on_c, 4, 72, 89
6, 436800, Note_off_c, 4, 72, 64
6, 436800, Note_off_c, 4, 60, 64
6, 436800, Note_on_c, 4, 72, 86
6, 436800, Note_on_c, 4, 60, 89
6, 437040, Note_off_c, 4, 60, 64
6, 437040, Note_off_c, 4, 72, 64
6, 437760, Note_on_c, 4, 74, 94
6, 437760, Note_on_c, 4, 67, 85
6, 438000, Note_off_c, 4, 67, 64
6, 438000, Note_off_c, 4, 74, 64
6, 438720, Note_on_c, 4, 72, 95
6, 438720, Note_on_c, 4, 60, 95
6, 439440, Note_off_c, 4, 60, 64
6, 439440, Note_off_c, 4, 72, 64
6, 439620, Note_on_c, 4, 60, 99
6, 439620, Note_on_c, 4, 72, 94
6, 439680, Note_off_c, 4, 72, 64
6, 439680, Note_off_c, 4, 60, 64
6, 439680, Note_on_c, 4, 76, 98
6, 439680, Note_on_c, 4, 64, 99
6, 440040, Note_off_c, 4, 64, 64
6, 440040, Note_off_c, 4, 76, 64
6, 440100, Note_on_c, 4, 76, 98
6, 440100, Note_on_c, 4, 64, 99
6, 440160, Note_off_c, 4, 64, 64
6, 440160, Note_off_c, 4, 76, 64
6, 440160, Note_on_c, 4, 72, 86
6, 440160, Note_on_c, 4, 60, 94
6, 440520, Note_off_c, 4, 60, 64
6, 440520, Note_off_c, 4, 72, 64
6, 440580, Note_on_c, 4, 60, 95
6, 440580, Note_on_c, 4, 72, 89
6, 440640, Note_off_c, 4, 72, 64
6, 440640, Note_off_c, 4, 60, 64
6, 440640, Note_on_c, 4, 72, 98
6, 440640, Note_on_c, 4, 60, 101
6, 441360, Note_off_c, 4, 60, 64
6, 441360, Note_off_c, 4, 72, 64
6, 441540, Note_on_c, 4, 60, 94
6, 441540, Note_on_c, 4, 72, 90
6, 441600, Note_off_c, 4, 72, 64
6, 441600, Note_off_c, 4, 60, 64
6, 441600, Note_on_c, 4, 72, 89
6, 441600, Note_on_c, 4, 60, 94
6, 441960, Note_off_c, 4, 60, 64
6, 441960, Note_off_c, 4, 72, 64
6, 442020, Note_on_c, 4, 72, 89
6, 442020, Note_on_c, 4, 60, 94
6, 442080, Note_off_c, 4, 60, 64
6, 442080, Note_off_c, 4, 72, 64
6, 442080, Note_on_c, 4, 72, 86
6, 442080, Note_on_c, 4, 60, 94
6, 442440, Note_off_c, 4, 60, 64
6, 442440, Note_off_c, 4, 72, 64
6, 442500, Note_on_c, 4, 60, 95
6, 442500, Note_on_c, 4, 72, 89
6, 442560, Note_off_c, 4, 72, 64
6, 442560, Note_off_c, 4, 60, 64
6, 442560, Note_on_c, 4, 72, 99
6, 442560, Note_on_c, 4, 60, 104
6, 443280, Note_off_c, 4, 60, 64
6, 443280, Note_off_c, 4, 72, 64
6, 443460, Note_on_c, 4, 60, 101
6, 443460, Note_on_c, 4, 72, 94
6, 443520, Note_off_c, 4, 72, 64
6, 443520, Note_off_c, 4, 60, 64
6, 443520, Note_on_c, 4, 72, 98
6, 443520, Note_on_c, 4, 60, 99
6, 443880, Note_off_c, 4, 60, 64
6, 443880, Note_off_c, 4, 72, 64
6, 443940, Note_on_c, 4, 72, 99
6, 443940, Note_on_c, 4, 60, 101
6, 444000, Note_off_c, 4, 60, 64
6, 444000, Note_off_c, 4, 72, 64
6, 444000, Note_on_c, 4, 72, 98
6, 444000, Note_on_c, 4, 60, 99
6, 444360, Note_off_c, 4, 60, 64
6, 444360, Note_off_c, 4, 72, 64
6, 444420, Note_on_c, 4, 60, 98
6, 444420, Note_on_c, 4, 72, 90
6, 444480, Note_off_c, 4, 72, 64
6, 444480, Note_off_c, 4, 60, 64
6, 444480, Note_on_c, 4, 72, 119
6, 444480, Note_on_c, 4, 76, 119
6, 445440, Control_c, 4, 7, 100
6, 445440, Control_c, 4, 10, 46
6, 445440, Control_c, 4, 93, 0
6, 445440, Control_c, 4, 91, 66
6, 445920, Note_off_c, 4, 76, 64
6, 445920, Note_off_c, 4, 72, 64
6, 479520, Note_on_c, 4, 72, 81
6, 479520, Note_on_c, 4, 64, 93
6, 479640, Note_off_c, 4, 64, 64
6, 479640, Note_off_c, 4, 72, 64
6, 479760, Note_on_c, 4, 67, 86
6, 479880, Note_off_c, 4, 67, 64
6, 480000, Note_on_c, 4, 72, 72
6, 480000, Note_on_c, 4, 64, 80
6, 480120, Note_off_c, 4, 64, 64
6, 480120, Note_off_c, 4, 72, 64
6, 480240, Note_on_c, 4, 74, 82
6, 480240, Note_on_c, 4, 67, 69
6, 480360, Note_off_c, 4, 67, 64
6, 480360, Note_off_c, 4, 74, 64
6, 480480, Note_on_c, 4, 76, 105
6, 480480, Note_on_c, 4, 72, 94
6, 480840, Note_off_c, 4, 72, 64
6, 480840, Note_off_c, 4, 76, 64
6, 480840, Note_on_c, 4, 74, 89
6, 480840, Note_on_c, 4, 67, 84
6, 480960, Note_off_c, 4, 67, 64
6, 480960, Note_off_c, 4, 74, 64
6, 480960, Note_on_c, 4, 72, 65
6, 480960, Note_on_c, 4, 64, 70
6, 481080, Note_off_c, 4, 64, 64
6, 481080, Note_off_c, 4, 72, 64
6, 481080, Note_on_c, 4, 74, 84
6, 481080, Note_on_c, 4, 67, 84
6, 481200, Note_off_c, 4, 67, 64
6, 481200, Note_off_c, 4, 74, 64
6, 481200, Note_on_c, 4, 76, 89
6, 481200, Note_on_c, 4, 72, 78
6, 481260, Note_off_c, 4, 72, 64
6, 481260, Note_off_c, 4, 76, 64
6, 481320, Note_on_c, 4, 77, 69
6, 481320, Note_on_c, 4, 74, 89
6, 481380, Note_off_c, 4, 74, 64
6, 481380, Note_off_c, 4, 77, 64
6, 481440, Note_on_c, 4, 79, 52
6, 481440, Note_on_c, 4, 76, 84
6, 481560, Note_off_c, 4, 76, 64
6, 481560, Note_off_c, 4, 79, 64
6, 481680, Note_on_c, 4, 79, 66
6, 481680, Note_on_c, 4, 76, 85
6, 481800, Note_off_c, 4, 76, 64
6, 481800, Note_off_c, 4, 79, 64
6, 481920, Note_on_c, 4, 74, 77
6, 481920, Note_on_c, 4, 67, 78
6, 482040, Note_off_c, 4, 67, 64
6, 482040, Note_off_c, 4, 74, 64
6, 482160, Note_on_c, 4, 74, 81
6, 482160, Note_on_c, 4, 67, 81
6, 482280, Note_off_c, 4, 67, 64
6, 482280, Note_off_c, 4, 74, 64
6, 482400, Note_on_c, 4, 76, 115
6, 482400, Note_on_c, 4, 72, 115
6, 482760, Note_off_c, 4, 72, 64
6, 482760, Note_off_c, 4, 76, 64
6, 482760, Note_on_c, 4, 74, 82
6, 482760, Note_on_c, 4, 67, 80
6, 482880, Note_off_c, 4, 67, 64
6, 482880, Note_off_c, 4, 74, 64
6, 482880, Note_on_c, 4, 72, 68
6, 482880, Note_on_c, 4, 64, 72
6, 483000, Note_off_c, 4, 64, 64
6, 483000, Note_off_c, 4, 72, 64
6, 483000, Note_on_c, 4, 74, 80
6, 483000, Note_on_c, 4, 67, 74
6, 483120, Note_off_c, 4, 67, 64
6, 483120, Note_off_c, 4, 74, 64
6, 483120, Note_on_c, 4, 76, 65
6, 483120, Note_on_c, 4, 72, 70
6, 483180, Note_off_c, 4, 72, 64
6, 483180, Note_off_c, 4, 76, 64
6, 483240, Note_on_c, 4, 77, 53
6, 483240, Note_on_c, 4, 74, 82
6, 483300, Note_off_c, 4, 74, 64
6, 483300, Note_off_c, 4, 77, 64
6, 483360, Note_on_c, 4, 79, 65
6, 483360, Note_on_c, 4, 76, 78
6, 483480, Note_off_c, 4, 76, 64
6, 483480, Note_off_c, 4, 79, 64
6, 483600, Note_on_c, 4, 79, 64
6, 483600, Note_on_c, 4, 76, 81
6, 483720, Note_off_c, 4, 76, 64
6, 483720, Note_off_c, 4, 79, 64
6, 483840, Note_on_c, 4, 74, 65
6, 483840, Note_on_c, 4, 67, 72
6, 483960, Note_off_c, 4, 67, 64
6, 483960, Note_off_c, 4, 74, 64
6, 484080, Note_on_c, 4, 74, 80
6, 484080, Note_on_c, 4, 67, 84
6, 484200, Note_off_c, 4, 67, 64
6, 484200, Note_off_c, 4, 74, 64
6, 484320, Note_on_c, 4, 72, 119
6, 484320, Note_on_c, 4, 60, 119
6, 484800, Note_off_c, 4, 60, 64
6, 484800, Note_off_c, 4, 72, 64
6, 484800, Note_on_c, 4, 72, 117
6, 484800, Note_on_c, 4, 60, 119
6, 484920, Note_off_c, 4, 60, 64
6, 484920, Note_off_c, 4, 72, 64
6, 485040, Note_on_c, 4, 72, 123
6, 485040, Note_on_c, 4, 60, 117
6, 485160, Note_off_c, 4, 60, 64
6, 485160, Note_off_c, 4, 72, 64
6, 485280, Note_on_c, 4, 72, 119
6, 485280, Note_on_c, 4, 60, 125
6, 485520, Note_off_c, 4, 60, 64
6, 485520, Note_off_c, 4, 72, 64
6, 486240, Note_on_c, 4, 76, 123
6, 486240, Note_on_c, 4, 64, 123
6, 486720, Note_off_c, 4, 64, 64
6, 486720, Note_off_c, 4, 76, 64
6, 486720, Note_on_c, 4, 76, 123
6, 486720, Note_on_c, 4, 64, 119
6, 486840, Note_off_c, 4, 64, 64
6, 486840, Note_off_c, 4, 76, 64
6, 486960, Note_on_c, 4, 76, 123
6, 486960, Note_on_c, 4, 64, 119
6, 487080, Note_off_c, 4, 64, 64
6, 487080, Note_off_c, 4, 76, 64
6, 487200, Note_on_c, 4, 76, 119
6, 487200, Note_on_c, 4, 64, 119
6, 487440, Note_off_c, 4, 64, 64
6, 487440, Note_off_c, 4, 76, 64
6, 488160, Note_on_c, 4, 67, 127
6, 488160, Note_on_c, 4, 79, 123
6, 489120, Note_off_c, 4, 79, 64
6, 489120, Note_off_c, 4, 67, 64
6, 489120, Note_on_c, 4, 79, 119
6, 489120, Note_on_c, 4, 67, 115
6, 489360, Note_off_c, 4, 67, 64
6, 489360, Note_off_c, 4, 79, 64
6, 489600, Note_on_c, 4, 74, 123
6, 489600, Note_on_c, 4, 67, 119
6, 489840, Note_off_c, 4, 67, 64
6, 489840, Note_off_c, 4, 74, 64
6, 490080, Note_on_c, 4, 76, 119
6, 490080, Note_on_c, 4, 72, 119
6, 490320, Note_off_c, 4, 72, 64
6, 490320, Note_off_c, 4, 76, 64
6, 490500, Note_on_c, 4, 72, 119
6, 490500, Note_on_c, 4, 60, 119
6, 490560, Note_off_c, 4, 60, 64
6, 490560, Note_off_c, 4, 72, 64
6, 490560, Note_on_c, 4, 72, 119
6, 490560, Note_on_c, 4, 60, 119
6, 490800, Note_off_c, 4, 60, 64
6, 490800, Note_off_c, 4, 72, 64
6, 490980, Note_on_c, 4, 60, 123
6, 491040, Note_off_c, 4, 60, 64
6, 491040, Note_on_c, 4, 60, 125
6, 491160, Note_off_c, 4, 60, 64
6, 491160, End_track
7, 0, Start_track
7, 0, Title_t, "Trumpets"
7, 0, Program_c, 5, 56
7, 0, Control_c, 5, 7, 100
7, 0, Control_c, 5, 10, 82
7, 0, Control_c, 5, 93, 0
7, 0, Control_c, 5, 91, 66
7, 14400, Note_on_c, 5, 60, 80
7, 14880, Note_off_c, 5, 60, 64
7, 14880, Note_on_c, 5, 72, 89
7, 14880, Note_on_c, 5, 64, 99
7, 15000, Note_off_c, 5, 64, 64
7, 15000, Note_off_c, 5, 72, 64
7, 15120, Note_on_c, 5, 72, 85
7, 15120, Note_on_c, 5, 64, 98
7, 15240, Note_off_c, 5, 64, 64
7, 15240, Note_off_c, 5, 72, 64
7, 15360, Note_on_c, 5, 72, 90
7, 15360, Note_on_c, 5, 64, 93
7, 15480, Note_off_c, 5, 64, 64
7, 15480, Note_off_c, 5, 72, 64
7, 16320, Note_on_c, 5, 67, 89
7, 16320, Note_on_c, 5, 55, 89
7, 16440, Note_off_c, 5, 55, 64
7, 16440, Note_off_c, 5, 67, 64
7, 16560, Note_on_c, 5, 67, 98
7, 16560, Note_on_c, 5, 55, 98
7, 16680, Note_off_c, 5, 55, 64
7, 16680, Note_off_c, 5, 67, 64
7, 16800, Note_on_c, 5, 67, 98
7, 16800, Note_on_c, 5, 55, 99
7, 16920, Note_off_c, 5, 55, 64
7, 16920, Note_off_c, 5, 67, 64
7, 17040, Note_on_c, 5, 67, 99
7, 17040, Note_on_c, 5, 55, 98
7, 17160, Note_off_c, 5, 55, 64
7, 17160, Note_off_c, 5, 67, 64
7, 17280, Note_on_c, 5, 67, 98
7, 17280, Note_on_c, 5, 55, 99
7, 17400, Note_off_c, 5, 55, 64
7, 17400, Note_off_c, 5, 67, 64
7, 17520, Note_on_c, 5, 67, 99
7, 17520, Note_on_c, 5, 55, 99
7, 17640, Note_off_c, 5, 55, 64
7, 17640, Note_off_c, 5, 67, 64
7, 18240, Note_on_c, 5, 67, 80
7, 18240, Note_on_c, 5, 55, 80
7, 18720, Note_off_c, 5, 55, 64
7, 18720, Note_off_c, 5, 67, 64
7, 18720, Note_on_c, 5, 74, 98
7, 18720, Note_on_c, 5, 67, 94
7, 18840, Note_off_c, 5, 67, 64
7, 18840, Note_off_c, 5, 74, 64
7, 18960, Note_on_c, 5, 74, 104
7, 18960, Note_on_c, 5, 67, 95
7, 19080, Note_off_c, 5, 67, 64
7, 19080, Note_off_c, 5, 74, 64
7, 19200, Note_on_c, 5, 74, 104
7, 19200, Note_on_c, 5, 67, 99
7, 19440, Note_off_c, 5, 67, 64
7, 19440, Note_off_c, 5, 74, 64
7, 20160, Note_on_c, 5, 67, 99
7, 20160, Note_on_c, 5, 55, 95
7, 20280, Note_off_c, 5, 55, 64
7, 20280, Note_off_c, 5, 67, 64
7, 20400, Note_on_c, 5, 67, 94
7, 20400, Note_on_c, 5, 55, 90
7, 20520, Note_off_c, 5, 55, 64
7, 20520, Note_off_c, 5, 67, 64
7, 20640, Note_on_c, 5, 67, 95
7, 20640, Note_on_c, 5, 55, 98
7, 20760, Note_off_c, 5, 55, 64
7, 20760, Note_off_c, 5, 67, 64
7, 20880, Note_on_c, 5, 67, 99
7, 20880, Note_on_c, 5, 55, 95
7, 21000, Note_off_c, 5, 55, 64
7, 21000, Note_off_c, 5, 67, 64
7, 21120, Note_on_c, 5, 74, 101
7, 21120, Note_on_c, 5, 67, 101
7, 21240, Note_off_c, 5, 67, 64
7, 21240, Note_off_c, 5, 74, 64
7, 21360, Note_on_c, 5, 72, 93
7, 21360, Note_on_c, 5, 64, 98
7, 21480, Note_off_c, 5, 64, 64
7, 21480, Note_off_c, 5, 72, 64
7, 22080, Note_on_c, 5, 72, 80
7, 22080, Note_on_c, 5, 60, 80
7, 23040, Note_off_c, 5, 60, 64
7, 23040, Note_off_c, 5, 72, 64
7, 23040, Note_on_c, 5, 72, 80
7, 23040, Note_on_c, 5, 60, 80
7, 23280, Note_off_c, 5, 60, 64
7, 23280, Note_off_c, 5, 72, 64
7, 23280, Note_on_c, 5, 72, 80
7, 23280, Note_on_c, 5, 60, 80
7, 23460, Note_off_c, 5, 60, 64
7, 23460, Note_off_c, 5, 72, 64
7, 23460, Note_on_c, 5, 72, 80
7, 23460, Note_on_c, 5, 60, 80
7, 23520, Note_off_c, 5, 60, 64
7, 23520, Note_off_c, 5, 72, 64
7, 23520, Note_on_c, 5, 72, 80
7, 23520, Note_on_c, 5, 60, 80
7, 23760, Note_off_c, 5, 60, 64
7, 23760, Note_off_c, 5, 72, 64
7, 23760, Note_on_c, 5, 72, 80
7, 23760, Note_on_c, 5, 60, 80
7, 24000, Note_off_c, 5, 60, 64
7, 24000, Note_off_c, 5, 72, 64
7, 24000, Note_on_c, 5, 72, 80
7, 24000, Note_on_c, 5, 60, 80
7, 24960, Note_off_c, 5, 60, 64
7, 24960, Note_off_c, 5, 72, 64
7, 24960, Note_on_c, 5, 72, 80
7, 24960, Note_on_c, 5, 60, 80
7, 25200, Note_off_c, 5, 60, 64
7, 25200, Note_off_c, 5, 72, 64
7, 25200, Note_on_c, 5, 72, 80
7, 25200, Note_on_c, 5, 60, 80
7, 25380, Note_off_c, 5, 60, 64
7, 25380, Note_off_c, 5, 72, 64
7, 25380, Note_on_c, 5, 72, 80
7, 25380, Note_on_c, 5, 60, 80
7, 25440, Note_off_c, 5, 60, 64
7, 25440, Note_off_c, 5, 72, 64
7, 25440, Note_on_c, 5, 72, 80
7, 25440, Note_on_c, 5, 60, 80
7, 25680, Note_off_c, 5, 60, 64
7, 25680, Note_off_c, 5, 72, 64
7, 25680, Note_on_c, 5, 72, 80
7, 25680, Note_on_c, 5, 60, 80
7, 25920, Note_off_c, 5, 60, 64
7, 25920, Note_off_c, 5, 72, 64
7, 25920, Note_on_c, 5, 72, 80
7, 25920, Note_on_c, 5, 60, 80
7, 26160, Note_off_c, 5, 60, 64
7, 26160, Note_off_c, 5, 72, 64
7, 28080, Note_on_c, 5, 60, 80
7, 28320, Note_off_c, 5, 60, 64
7, 28320, Note_on_c, 5, 64, 80
7, 28560, Note_off_c, 5, 64, 64
7, 28560, Note_on_c, 5, 67, 80
7, 28800, Note_off_c, 5, 67, 64
7, 28800, Note_on_c, 5, 72, 80
7, 29040, Note_off_c, 5, 72, 64
7, 29040, Note_on_c, 5, 67, 80
7, 29280, Note_off_c, 5, 67, 64
7, 29280, Note_on_c, 5, 64, 80
7, 29520, Note_off_c, 5, 64, 64
7, 29520, Note_on_c, 5, 60, 80
7, 29760, Note_off_c, 5, 60, 64
7, 29760, Note_on_c, 5, 60, 80
7, 29760, Note_on_c, 5, 72, 80
7, 30720, Note_off_c, 5, 72, 64
7, 30720, Note_off_c, 5, 60, 64
7, 30720, Note_on_c, 5, 72, 80
7, 30720, Note_on_c, 5, 60, 80
7, 30960, Note_off_c, 5, 60, 64
7, 30960, Note_off_c, 5, 72, 64
7, 30960, Note_on_c, 5, 72, 80
7, 30960, Note_on_c, 5, 60, 80
7, 31140, Note_off_c, 5, 60, 64
7, 31140, Note_off_c, 5, 72, 64
7, 31140, Note_on_c, 5, 72, 80
7, 31140, Note_on_c, 5, 60, 80
7, 31200, Note_off_c, 5, 60, 64
7, 31200, Note_off_c, 5, 72, 64
7, 31200, Note_on_c, 5, 72, 80
7, 31200, Note_on_c, 5, 60, 80
7, 31440, Note_off_c, 5, 60, 64
7, 31440, Note_off_c, 5, 72, 64
7, 31440, Note_on_c, 5, 60, 80
7, 31440, Note_on_c, 5, 72, 80
7, 31680, Note_off_c, 5, 72, 64
7, 31680, Note_off_c, 5, 60, 64
7, 31680, Note_on_c, 5, 60, 80
7, 31680, Note_on_c, 5, 72, 80
7, 32640, Note_off_c, 5, 72, 64
7, 32640, Note_off_c, 5, 60, 64
7, 32640, Note_on_c, 5, 72, 80
7, 32640, Note_on_c, 5, 60, 80
7, 32880, Note_off_c, 5, 60, 64
7, 32880, Note_off_c, 5, 72, 64
7, 32880, Note_on_c, 5, 72, 80
7, 32880, Note_on_c, 5, 60, 80
7, 33060, Note_off_c, 5, 60, 64
7, 33060, Note_off_c, 5, 72, 64
7, 33060, Note_on_c, 5, 72, 80
7, 33060, Note_on_c, 5, 60, 80
7, 33120, Note_off_c, 5, 60, 64
7, 33120, Note_off_c, 5, 72, 64
7, 33120, Note_on_c, 5, 72, 80
7, 33120, Note_on_c, 5, 60, 80
7, 33360, Note_off_c, 5, 60, 64
7, 33360, Note_off_c, 5, 72, 64
7, 33360, Note_on_c, 5, 60, 80
7, 33360, Note_on_c, 5, 72, 80
7, 33600, Note_off_c, 5, 72, 64
7, 33600, Note_off_c, 5, 60, 64
7, 33600, Note_on_c, 5, 72, 80
7, 33600, Note_on_c, 5, 60, 80
7, 34080, Note_off_c, 5, 60, 64
7, 34080, Note_off_c, 5, 72, 64
7, 34080, Note_on_c, 5, 60, 80
7, 34080, Note_on_c, 5, 72, 80
7, 34560, Note_off_c, 5, 72, 64
7, 34560, Note_off_c, 5, 60, 64
7, 34560, Note_on_c, 5, 72, 80
7, 34560, Note_on_c, 5, 60, 80
7, 35040, Note_off_c, 5, 60, 64
7, 35040, Note_off_c, 5, 72, 64
7, 35040, Note_on_c, 5, 60, 80
7, 35040, Note_on_c, 5, 72, 80
7, 35520, Note_off_c, 5, 72, 64
7, 35520, Note_off_c, 5, 60, 64
7, 35520, Note_on_c, 5, 67, 80
7, 35520, Note_on_c, 5, 55, 80
7, 35760, Note_off_c, 5, 55, 64
7, 35760, Note_off_c, 5, 67, 64
7, 38640, Note_on_c, 5, 67, 119
7, 38640, Note_on_c, 5, 55, 117
7, 39120, Note_off_c, 5, 55, 64
7, 39120, Note_off_c, 5, 67, 64
7, 39120, Note_on_c, 5, 67, 80
7, 39120, Note_on_c, 5, 55, 80
7, 39360, Note_off_c, 5, 55, 64
7, 39360, Note_off_c, 5, 67, 64
7, 39360, Note_on_c, 5, 67, 104
7, 39360, Note_on_c, 5, 55, 105
7, 39480, Note_off_c, 5, 55, 64
7, 39480, Note_off_c, 5, 67, 64
7, 39840, Note_on_c, 5, 76, 112
7, 39840, Note_on_c, 5, 72, 107
7, 39960, Note_off_c, 5, 72, 64
7, 39960, Note_off_c, 5, 76, 64
7, 40320, Note_on_c, 5, 74, 112
7, 40320, Note_on_c, 5, 67, 115
7, 40440, Note_off_c, 5, 67, 64
7, 40440, Note_off_c, 5, 74, 64
7, 40800, Note_on_c, 5, 76, 107
7, 40800, Note_on_c, 5, 72, 107
7, 40920, Note_off_c, 5, 72, 64
7, 40920, Note_off_c, 5, 76, 64
7, 41280, Note_on_c, 5, 74, 105
7, 41280, Note_on_c, 5, 67, 112
7, 41400, Note_off_c, 5, 67, 64
7, 41400, Note_off_c, 5, 74, 64
7, 41520, Note_on_c, 5, 76, 112
7, 41520, Note_on_c, 5, 72, 112
7, 41640, Note_off_c, 5, 72, 64
7, 41640, Note_off_c, 5, 76, 64
7, 41760, Note_on_c, 5, 74, 110
7, 41760, Note_on_c, 5, 67, 115
7, 41880, Note_off_c, 5, 67, 64
7, 41880, Note_off_c, 5, 74, 64
7, 42000, Note_on_c, 5, 76, 112
7, 42000, Note_on_c, 5, 72, 110
7, 42120, Note_off_c, 5, 72, 64
7, 42120, Note_off_c, 5, 76, 64
7, 42240, Note_on_c, 5, 74, 110
7, 42240, Note_on_c, 5, 67, 115
7, 42360, Note_off_c, 5, 67, 64
7, 42360, Note_off_c, 5, 74, 64
7, 42660, Note_on_c, 5, 67, 119
7, 42720, Note_off_c, 5, 67, 64
7, 42720, Note_on_c, 5, 67, 125
7, 42960, Note_off_c, 5, 67, 64
7, 43140, Note_on_c, 5, 55, 123
7, 43140, Note_on_c, 5, 67, 123
7, 43200, Note_off_c, 5, 67, 64
7, 43200, Note_off_c, 5, 55, 64
7, 43200, Note_on_c, 5, 67, 125
7, 43200, Note_on_c, 5, 55, 119
7, 43440, Note_off_c, 5, 55, 64
7, 43440, Note_off_c, 5, 67, 64
7, 72000, Note_on_c, 5, 60, 123
7, 72480, Note_off_c, 5, 60, 64
7, 72480, Note_on_c, 5, 72, 117
7, 72480, Note_on_c, 5, 60, 123
7, 72600, Note_off_c, 5, 60, 64
7, 72600, Note_off_c, 5, 72, 64
7, 72720, Note_on_c, 5, 72, 125
7, 72720, Note_on_c, 5, 60, 125
7, 72840, Note_off_c, 5, 60, 64
7, 72840, Note_off_c, 5, 72, 64
7, 72960, Note_on_c, 5, 72, 125
7, 72960, Note_on_c, 5, 60, 123
7, 73440, Note_off_c, 5, 60, 64
7, 73440, Note_off_c, 5, 72, 64
7, 73920, Note_on_c, 5, 74, 125
7, 74400, Note_off_c, 5, 74, 64
7, 74400, Note_on_c, 5, 74, 127
7, 74520, Note_off_c, 5, 74, 64
7, 74640, Note_on_c, 5, 74, 127
7, 74760, Note_off_c, 5, 74, 64
7, 74880, Note_on_c, 5, 67, 125
7, 75360, Note_off_c, 5, 67, 64
7, 75360, Note_on_c, 5, 72, 119
7, 75360, Note_on_c, 5, 60, 125
7, 75480, Note_off_c, 5, 60, 64
7, 75480, Note_off_c, 5, 72, 64
7, 75600, Note_on_c, 5, 72, 119
7, 75600, Note_on_c, 5, 60, 125
7, 75720, Note_off_c, 5, 60, 64
7, 75720, Note_off_c, 5, 72, 64
7, 75840, Note_on_c, 5, 60, 123
7, 75840, Note_on_c, 5, 72, 123
7, 76800, Note_off_c, 5, 72, 64
7, 76800, Note_off_c, 5, 60, 64
7, 76800, Note_on_c, 5, 60, 119
7, 76800, Note_on_c, 5, 72, 119
7, 77760, Note_off_c, 5, 72, 64
7, 77760, Note_off_c, 5, 60, 64
7, 77760, Note_on_c, 5, 72, 123
7, 77760, Note_on_c, 5, 60, 123
7, 78240, Note_off_c, 5, 60, 64
7, 78240, Note_off_c, 5, 72, 64
7, 78240, Note_on_c, 5, 72, 42
7, 78240, Note_on_c, 5, 60, 52
7, 78360, Note_off_c, 5, 60, 64
7, 78360, Note_off_c, 5, 72, 64
7, 78360, Note_on_c, 5, 72, 119
7, 78360, Note_on_c, 5, 60, 119
7, 78480, Note_off_c, 5, 60, 64
7, 78480, Note_off_c, 5, 72, 64
7, 78480, Note_on_c, 5, 72, 117
7, 78480, Note_on_c, 5, 60, 123
7, 78600, Note_off_c, 5, 60, 64
7, 78600, Note_off_c, 5, 72, 64
7, 78600, Note_on_c, 5, 60, 123
7, 78600, Note_on_c, 5, 72, 119
7, 78720, Note_off_c, 5, 72, 64
7, 78720, Note_off_c, 5, 60, 64
7, 78720, Note_on_c, 5, 67, 125
7, 78720, Note_on_c, 5, 55, 119
7, 79200, Note_off_c, 5, 55, 64
7, 79200, Note_off_c, 5, 67, 64
7, 79200, Note_on_c, 5, 67, 82
7, 79200, Note_on_c, 5, 55, 84
7, 79320, Note_off_c, 5, 55, 64
7, 79320, Note_off_c, 5, 67, 64
7, 79320, Note_on_c, 5, 67, 119
7, 79320, Note_on_c, 5, 55, 119
7, 79440, Note_off_c, 5, 55, 64
7, 79440, Note_off_c, 5, 67, 64
7, 79440, Note_on_c, 5, 67, 119
7, 79440, Note_on_c, 5, 55, 115
7, 79560, Note_off_c, 5, 55, 64
7, 79560, Note_off_c, 5, 67, 64
7, 79560, Note_on_c, 5, 55, 119
7, 79560, Note_on_c, 5, 67, 119
7, 79680, Note_off_c, 5, 67, 64
7, 79680, Note_off_c, 5, 55, 64
7, 79680, Note_on_c, 5, 72, 117
7, 79680, Note_on_c, 5, 60, 123
7, 79920, Note_off_c, 5, 60, 64
7, 79920, Note_off_c, 5, 72, 64
7, 80160, Note_on_c, 5, 72, 119
7, 80160, Note_on_c, 5, 60, 119
7, 80400, Note_off_c, 5, 60, 64
7, 80400, Note_off_c, 5, 72, 64
7, 80640, Note_on_c, 5, 72, 119
7, 80640, Note_on_c, 5, 60, 123
7, 80880, Note_off_c, 5, 60, 64
7, 80880, Note_off_c, 5, 72, 64
7, 81120, Note_on_c, 5, 67, 127
7, 81120, Note_on_c, 5, 55, 123
7, 81360, Note_off_c, 5, 55, 64
7, 81360, Note_off_c, 5, 67, 64
7, 81600, Note_on_c, 5, 72, 80
7, 81600, Note_on_c, 5, 60, 80
7, 81840, Note_off_c, 5, 60, 64
7, 81840, Note_off_c, 5, 72, 64
7, 85440, Note_on_c, 5, 72, 43
7, 85440, Note_on_c, 5, 64, 45
7, 85560, Note_off_c, 5, 64, 64
7, 85560, Note_off_c, 5, 72, 64
7, 85680, Note_on_c, 5, 67, 48
7, 85800, Note_off_c, 5, 67, 64
7, 85920, Note_on_c, 5, 72, 45
7, 85920, Note_on_c, 5, 64, 53
7, 86040, Note_off_c, 5, 64, 64
7, 86040, Note_off_c, 5, 72, 64
7, 86160, Note_on_c, 5, 74, 65
7, 86160, Note_on_c, 5, 67, 65
7, 86280, Note_off_c, 5, 67, 64
7, 86280, Note_off_c, 5, 74, 64
7, 86400, Note_on_c, 5, 76, 94
7, 86400, Note_on_c, 5, 72, 53
7, 86760, Note_off_c, 5, 72, 64
7, 86760, Note_off_c, 5, 76, 64
7, 86760, Note_on_c, 5, 74, 72
7, 86760, Note_on_c, 5, 67, 72
7, 86880, Note_off_c, 5, 67, 64
7, 86880, Note_off_c, 5, 74, 64
7, 86880, Note_on_c, 5, 72, 45
7, 86880, Note_on_c, 5, 64, 76
7, 87000, Note_off_c, 5, 64, 64
7, 87000, Note_off_c, 5, 72, 64
7, 87000, Note_on_c, 5, 74, 61
7, 87000, Note_on_c, 5, 67, 65
7, 87120, Note_off_c, 5, 67, 64
7, 87120, Note_off_c, 5, 74, 64
7, 87120, Note_on_c, 5, 76, 68
7, 87120, Note_on_c, 5, 72, 46
7, 87180, Note_off_c, 5, 72, 64
7, 87180, Note_off_c, 5, 76, 64
7, 87240, Note_on_c, 5, 77, 64
7, 87240, Note_on_c, 5, 74, 50
7, 87300, Note_off_c, 5, 74, 64
7, 87300, Note_off_c, 5, 77, 64
7, 87360, Note_on_c, 5, 79, 45
7, 87360, Note_on_c, 5, 76, 54
7, 87480, Note_off_c, 5, 76, 64
7, 87480, Note_off_c, 5, 79, 64
7, 87600, Note_on_c, 5, 67, 71
7, 87720, Note_off_c, 5, 67, 64
7, 87840, Note_on_c, 5, 67, 55
7, 87960, Note_off_c, 5, 67, 64
7, 88080, Note_on_c, 5, 67, 45
7, 88200, Note_off_c, 5, 67, 64
7, 88320, Note_on_c, 5, 76, 94
7, 88320, Note_on_c, 5, 72, 76
7, 88680, Note_off_c, 5, 72, 64
7, 88680, Note_off_c, 5, 76, 64
7, 88680, Note_on_c, 5, 74, 64
7, 88680, Note_on_c, 5, 67, 73
7, 88800, Note_off_c, 5, 67, 64
7, 88800, Note_off_c, 5, 74, 64
7, 88800, Note_on_c, 5, 72, 46
7, 88800, Note_on_c, 5, 64, 72
7, 88920, Note_off_c, 5, 64, 64
7, 88920, Note_off_c, 5, 72, 64
7, 88920, Note_on_c, 5, 74, 62
7, 88920, Note_on_c, 5, 67, 64
7, 89040, Note_off_c, 5, 67, 64
7, 89040, Note_off_c, 5, 74, 64
7, 89040, Note_on_c, 5, 76, 68
7, 89040, Note_on_c, 5, 72, 57
7, 89100, Note_off_c, 5, 72, 64
7, 89100, Note_off_c, 5, 76, 64
7, 89160, Note_on_c, 5, 77, 64
7, 89160, Note_on_c, 5, 74, 60
7, 89220, Note_off_c, 5, 74, 64
7, 89220, Note_off_c, 5, 77, 64
7, 89280, Note_on_c, 5, 79, 45
7, 89280, Note_on_c, 5, 76, 50
7, 89400, Note_off_c, 5, 76, 64
7, 89400, Note_off_c, 5, 79, 64
7, 89520, Note_on_c, 5, 67, 73
7, 89640, Note_off_c, 5, 67, 64
7, 89760, Note_on_c, 5, 67, 43
7, 89880, Note_off_c, 5, 67, 64
7, 90000, Note_on_c, 5, 67, 45
7, 90120, Note_off_c, 5, 67, 64
7, 90240, Note_on_c, 5, 72, 80
7, 90240, Note_on_c, 5, 64, 80
7, 90480, Note_off_c, 5, 64, 64
7, 90480, Note_off_c, 5, 72, 64
7, 92160, Note_on_c, 5, 72, 80
7, 92160, Note_on_c, 5, 60, 80
7, 92400, Note_off_c, 5, 60, 64
7, 92400, Note_off_c, 5, 72, 64
7, 92400, Note_on_c, 5, 76, 80
7, 92400, Note_on_c, 5, 72, 80
7, 92640, Note_off_c, 5, 72, 64
7, 92640, Note_off_c, 5, 76, 64
7, 92880, Note_on_c, 5, 72, 80
7, 92880, Note_on_c, 5, 76, 80
7, 93120, Note_off_c, 5, 76, 64
7, 93120, Note_off_c, 5, 72, 64
7, 93120, Note_on_c, 5, 74, 80
7, 93120, Note_on_c, 5, 72, 80
7, 93600, Note_off_c, 5, 72, 64
7, 93600, Note_off_c, 5, 74, 64
7, 93600, Note_on_c, 5, 67, 80
7, 93600, Note_on_c, 5, 74, 80
7, 94080, Note_off_c, 5, 74, 64
7, 94080, Note_off_c, 5, 67, 64
7, 94080, Note_on_c, 5, 72, 68
7, 94080, Note_on_c, 5, 60, 86
7, 94560, Note_off_c, 5, 60, 64
7, 94560, Note_off_c, 5, 72, 64
7, 94560, Note_on_c, 5, 72, 61
7, 94560, Note_on_c, 5, 60, 89
7, 94680, Note_off_c, 5, 60, 64
7, 94680, Note_off_c, 5, 72, 64
7, 94800, Note_on_c, 5, 72, 48
7, 94800, Note_on_c, 5, 60, 94
7, 94920, Note_off_c, 5, 60, 64
7, 94920, Note_off_c, 5, 72, 64
7, 95040, Note_on_c, 5, 72, 61
7, 95040, Note_on_c, 5, 60, 86
7, 95280, Note_off_c, 5, 60, 64
7, 95280, Note_off_c, 5, 72, 64
7, 96000, Note_on_c, 5, 64, 119
7, 96480, Note_off_c, 5, 64, 64
7, 96480, Note_on_c, 5, 76, 119
7, 96480, Note_on_c, 5, 64, 119
7, 96600, Note_off_c, 5, 64, 64
7, 96600, Note_off_c, 5, 76, 64
7, 96720, Note_on_c, 5, 76, 119
7, 96720, Note_on_c, 5, 64, 119
7, 96840, Note_off_c, 5, 64, 64
7, 96840, Note_off_c, 5, 76, 64
7, 96960, Note_on_c, 5, 76, 125
7, 96960, Note_on_c, 5, 64, 117
7, 97200, Note_off_c, 5, 64, 64
7, 97200, Note_off_c, 5, 76, 64
7, 97920, Note_on_c, 5, 79, 89
7, 97920, Note_on_c, 5, 67, 93
7, 98400, Note_off_c, 5, 67, 64
7, 98400, Note_off_c, 5, 79, 64
7, 98880, Note_on_c, 5, 79, 80
7, 98880, Note_on_c, 5, 67, 80
7, 99120, Note_off_c, 5, 67, 64
7, 99120, Note_off_c, 5, 79, 64
7, 99360, Note_on_c, 5, 74, 80
7, 99360, Note_on_c, 5, 67, 80
7, 99600, Note_off_c, 5, 67, 64
7, 99600, Note_off_c, 5, 74, 64
7, 99840, Note_on_c, 5, 76, 80
7, 99840, Note_on_c, 5, 72, 80
7, 100080, Note_off_c, 5, 72, 64
7, 100080, Note_off_c, 5, 76, 64
7, 100260, Note_on_c, 5, 72, 80
7, 100260, Note_on_c, 5, 60, 80
7, 100320, Note_off_c, 5, 60, 64
7, 100320, Note_off_c, 5, 72, 64
7, 100320, Note_on_c, 5, 72, 80
7, 100320, Note_on_c, 5, 60, 80
7, 100560, Note_off_c, 5, 60, 64
7, 100560, Note_off_c, 5, 72, 64
7, 100740, Note_on_c, 5, 60, 80
7, 100800, Note_off_c, 5, 60, 64
7, 100800, Note_on_c, 5, 60, 80
7, 101040, Note_off_c, 5, 60, 64
7, 112320, Note_on_c, 5, 60, 119
7, 112800, Note_off_c, 5, 60, 64
7, 112800, Note_on_c, 5, 72, 110
7, 112800, Note_on_c, 5, 64, 112
7, 112920, Note_off_c, 5, 64, 64
7, 112920, Note_off_c, 5, 72, 64
7, 113040, Note_on_c, 5, 72, 105
7, 113040, Note_on_c, 5, 64, 112
7, 113160, Note_off_c, 5, 64, 64
7, 113160, Note_off_c, 5, 72, 64
7, 113280, Note_on_c, 5, 72, 105
7, 113280, Note_on_c, 5, 64, 112
7, 113520, Note_off_c, 5, 64, 64
7, 113520, Note_off_c, 5, 72, 64
7, 116160, Note_on_c, 5, 67, 125
7, 116160, Note_on_c, 5, 55, 117
7, 116640, Note_off_c, 5, 55, 64
7, 116640, Note_off_c, 5, 67, 64
7, 116640, Note_on_c, 5, 74, 107
7, 116640, Note_on_c, 5, 67, 115
7, 116760, Note_off_c, 5, 67, 64
7, 116760, Note_off_c, 5, 74, 64
7, 116880, Note_on_c, 5, 74, 112
7, 116880, Note_on_c, 5, 67, 119
7, 117000, Note_off_c, 5, 67, 64
7, 117000, Note_off_c, 5, 74, 64
7, 117120, Note_on_c, 5, 74, 112
7, 117120, Note_on_c, 5, 67, 115
7, 117360, Note_off_c, 5, 67, 64
7, 117360, Note_off_c, 5, 74, 64
7, 226560, Note_on_c, 5, 67, 80
7, 226560, Note_on_c, 5, 55, 80
7, 227040, Note_off_c, 5, 55, 64
7, 227040, Note_off_c, 5, 67, 64
7, 229440, Note_on_c, 5, 67, 73
7, 229440, Note_on_c, 5, 55, 86
7, 230400, Note_off_c, 5, 55, 64
7, 230400, Note_off_c, 5, 67, 64
7, 230400, Note_on_c, 5, 60, 99
7, 230880, Note_off_c, 5, 60, 64
7, 230880, Note_on_c, 5, 72, 74
7, 230880, Note_on_c, 5, 60, 90
7, 231000, Note_off_c, 5, 60, 64
7, 231000, Note_off_c, 5, 72, 64
7, 231120, Note_on_c, 5, 72, 65
7, 231120, Note_on_c, 5, 60, 89
7, 231240, Note_off_c, 5, 60, 64
7, 231240, Note_off_c, 5, 72, 64
7, 231360, Note_on_c, 5, 72, 62
7, 231360, Note_on_c, 5, 60, 84
7, 231600, Note_off_c, 5, 60, 64
7, 231600, Note_off_c, 5, 72, 64
7, 232320, Note_on_c, 5, 74, 84
7, 232800, Note_off_c, 5, 74, 64
7, 232800, Note_on_c, 5, 74, 99
7, 232920, Note_off_c, 5, 74, 64
7, 233040, Note_on_c, 5, 74, 104
7, 233160, Note_off_c, 5, 74, 64
7, 233280, Note_on_c, 5, 74, 99
7, 233520, Note_off_c, 5, 74, 64
7, 234240, Note_on_c, 5, 76, 74
7, 234240, Note_on_c, 5, 64, 95
7, 234480, Note_off_c, 5, 64, 64
7, 234480, Note_off_c, 5, 76, 64
7, 236160, Note_on_c, 5, 74, 89
7, 236640, Note_off_c, 5, 74, 64
7, 236640, Note_on_c, 5, 76, 94
7, 237120, Note_off_c, 5, 76, 64
7, 237120, Note_on_c, 5, 76, 90
7, 237600, Note_off_c, 5, 76, 64
7, 237600, Note_on_c, 5, 74, 90
7, 238080, Note_off_c, 5, 74, 64
7, 238080, Note_on_c, 5, 74, 80
7, 238320, Note_off_c, 5, 74, 64
7, 240000, Note_on_c, 5, 67, 93
7, 240000, Note_on_c, 5, 55, 99
7, 240120, Note_off_c, 5, 55, 64
7, 240120, Note_off_c, 5, 67, 64
7, 240960, Note_on_c, 5, 67, 72
7, 240960, Note_on_c, 5, 55, 89
7, 241080, Note_off_c, 5, 55, 64
7, 241080, Note_off_c, 5, 67, 64
7, 241200, Note_on_c, 5, 76, 94
7, 241200, Note_on_c, 5, 64, 86
7, 241320, Note_off_c, 5, 64, 64
7, 241320, Note_off_c, 5, 76, 64
7, 241440, Note_on_c, 5, 76, 85
7, 241440, Note_on_c, 5, 72, 76
7, 241560, Note_off_c, 5, 72, 64
7, 241560, Note_off_c, 5, 76, 64
7, 241680, Note_on_c, 5, 74, 94
7, 241800, Note_off_c, 5, 74, 64
7, 241920, Note_on_c, 5, 74, 80
7, 241920, Note_on_c, 5, 67, 80
7, 242160, Note_off_c, 5, 67, 64
7, 242160, Note_off_c, 5, 74, 64
7, 242400, Note_on_c, 5, 74, 80
7, 242640, Note_off_c, 5, 74, 64
7, 242880, Note_on_c, 5, 74, 80
7, 243120, Note_off_c, 5, 74, 64
7, 243360, Note_on_c, 5, 74, 80
7, 243600, Note_off_c, 5, 74, 64
7, 243840, Note_on_c, 5, 74, 80
7, 243840, Note_on_c, 5, 67, 80
7, 244080, Note_off_c, 5, 67, 64
7, 244080, Note_off_c, 5, 74, 64
7, 244260, Note_on_c, 5, 67, 80
7, 244320, Note_off_c, 5, 67, 64
7, 244320, Note_on_c, 5, 67, 80
7, 244560, Note_off_c, 5, 67, 64
7, 244740, Note_on_c, 5, 55, 80
7, 244740, Note_on_c, 5, 67, 80
7, 244800, Note_off_c, 5, 67, 64
7, 244800, Note_off_c, 5, 55, 64
7, 244800, Note_on_c, 5, 67, 80
7, 244800, Note_on_c, 5, 55, 80
7, 245040, Note_off_c, 5, 55, 64
7, 245040, Note_off_c, 5, 67, 64
7, 254640, Control_c, 5, 7, 100
7, 254640, Control_c, 5, 10, 82
7, 254640, Control_c, 5, 93, 0
7, 254640, Control_c, 5, 91, 66
7, 266160, Control_c, 5, 7, 100
7, 266160, Control_c, 5, 10, 82
7, 266160, Control_c, 5, 93, 0
7, 266160, Control_c, 5, 91, 66
7, 266400, Control_c, 5, 7, 100
7, 266400, Control_c, 5, 10, 82
7, 266400, Control_c, 5, 93, 0
7, 266400, Control_c, 5, 91, 66
7, 266640, Control_c, 5, 7, 100
7, 266640, Control_c, 5, 10, 82
7, 266640, Control_c, 5, 93, 0
7, 266640, Control_c, 5, 91, 66
7, 266880, Control_c, 5, 7, 100
7, 266880, Control_c, 5, 10, 82
7, 266880, Control_c, 5, 93, 0
7, 266880, Control_c, 5, 91, 66
7, 267120, Control_c, 5, 7, 100
7, 267120, Control_c, 5, 10, 82
7, 267120, Control_c, 5, 93, 0
7, 267120, Control_c, 5, 91, 66
7, 267360, Control_c, 5, 7, 100
7, 267360, Control_c, 5, 10, 82
7, 267360, Control_c, 5, 93, 0
7, 267360, Control_c, 5, 91, 66
7, 267600, Control_c, 5, 7, 100
7, 267600, Control_c, 5, 10, 82
7, 267600, Control_c, 5, 93, 0
7, 267600, Control_c, 5, 91, 66
7, 280320, Control_c, 5, 7, 100
7, 280320, Control_c, 5, 10, 82
7, 280320, Control_c, 5, 93, 0
7, 280320, Control_c, 5, 91, 66
7, 310800, Control_c, 5, 7, 100
7, 310800, Control_c, 5, 10, 82
7, 310800, Control_c, 5, 93, 0
7, 310800, Control_c, 5, 91, 66
7, 311040, Control_c, 5, 7, 100
7, 311040, Control_c, 5, 10, 82
7, 311040, Control_c, 5, 93, 0
7, 311040, Control_c, 5, 91, 66
7, 311280, Control_c, 5, 7, 100
7, 311280, Control_c, 5, 10, 82
7, 311280, Control_c, 5, 93, 0
7, 311280, Control_c, 5, 91, 66
7, 311520, Control_c, 5, 7, 100
7, 311520, Control_c, 5, 10, 82
7, 311520, Control_c, 5, 93, 0
7, 311520, Control_c, 5, 91, 66
7, 311760, Control_c, 5, 7, 100
7, 311760, Control_c, 5, 10, 82
7, 311760, Control_c, 5, 93, 0
7, 311760, Control_c, 5, 91, 66
7, 312000, Control_c, 5, 7, 100
7, 312000, Control_c, 5, 10, 82
7, 312000, Control_c, 5, 93, 0
7, 312000, Control_c, 5, 91, 66
7, 312240, Control_c, 5, 7, 100
7, 312240, Control_c, 5, 10, 82
7, 312240, Control_c, 5, 93, 0
7, 312240, Control_c, 5, 91, 66
7, 312480, Control_c, 5, 7, 100
7, 312480, Control_c, 5, 10, 82
7, 312480, Control_c, 5, 93, 0
7, 312480, Control_c, 5, 91, 66
7, 312720, Control_c, 5, 7, 100
7, 312720, Control_c, 5, 10, 82
7, 312720, Control_c, 5, 93, 0
7, 312720, Control_c, 5, 91, 66
7, 331200, Note_on_c, 5, 60, 80
7, 331680, Note_off_c, 5, 60, 64
7, 331680, Note_on_c, 5, 64, 123
7, 331800, Note_off_c, 5, 64, 64
7, 331920, Note_on_c, 5, 64, 119
7, 332040, Note_off_c, 5, 64, 64
7, 332160, Note_on_c, 5, 64, 127
7, 332400, Note_off_c, 5, 64, 64
7, 333120, Note_on_c, 5, 67, 123
7, 333120, Note_on_c, 5, 55, 127
7, 333240, Note_off_c, 5, 55, 64
7, 333240, Note_off_c, 5, 67, 64
7, 333360, Note_on_c, 5, 67, 119
7, 333360, Note_on_c, 5, 55, 123
7, 333480, Note_off_c, 5, 55, 64
7, 333480, Note_off_c, 5, 67, 64
7, 333600, Note_on_c, 5, 67, 125
7, 333600, Note_on_c, 5, 55, 123
7, 333720, Note_off_c, 5, 55, 64
7, 333720, Note_off_c, 5, 67, 64
7, 333840, Note_on_c, 5, 67, 125
7, 333840, Note_on_c, 5, 55, 127
7, 333960, Note_off_c, 5, 55, 64
7, 333960, Note_off_c, 5, 67, 64
7, 334080, Note_on_c, 5, 67, 127
7, 334080, Note_on_c, 5, 55, 127
7, 334200, Note_off_c, 5, 55, 64
7, 334200, Note_off_c, 5, 67, 64
7, 334320, Note_on_c, 5, 67, 125
7, 334320, Note_on_c, 5, 55, 123
7, 334440, Note_off_c, 5, 55, 64
7, 334440, Note_off_c, 5, 67, 64
7, 335040, Note_on_c, 5, 67, 127
7, 335040, Note_on_c, 5, 55, 127
7, 335520, Note_off_c, 5, 55, 64
7, 335520, Note_off_c, 5, 67, 64
7, 335520, Note_on_c, 5, 74, 127
7, 335520, Note_on_c, 5, 67, 127
7, 335640, Note_off_c, 5, 67, 64
7, 335640, Note_off_c, 5, 74, 64
7, 335760, Note_on_c, 5, 74, 125
7, 335760, Note_on_c, 5, 67, 127
7, 335880, Note_off_c, 5, 67, 64
7, 335880, Note_off_c, 5, 74, 64
7, 336000, Note_on_c, 5, 74, 127
7, 336000, Note_on_c, 5, 67, 127
7, 336240, Note_off_c, 5, 67, 64
7, 336240, Note_off_c, 5, 74, 64
7, 336960, Note_on_c, 5, 67, 127
7, 336960, Note_on_c, 5, 55, 127
7, 337080, Note_off_c, 5, 55, 64
7, 337080, Note_off_c, 5, 67, 64
7, 337200, Note_on_c, 5, 67, 127
7, 337200, Note_on_c, 5, 55, 123
7, 337320, Note_off_c, 5, 55, 64
7, 337320, Note_off_c, 5, 67, 64
7, 337440, Note_on_c, 5, 67, 127
7, 337440, Note_on_c, 5, 55, 123
7, 337560, Note_off_c, 5, 55, 64
7, 337560, Note_off_c, 5, 67, 64
7, 337680, Note_on_c, 5, 67, 125
7, 337680, Note_on_c, 5, 55, 127
7, 337800, Note_off_c, 5, 55, 64
7, 337800, Note_off_c, 5, 67, 64
7, 337920, Note_on_c, 5, 74, 125
7, 337920, Note_on_c, 5, 67, 123
7, 338040, Note_off_c, 5, 67, 64
7, 338040, Note_off_c, 5, 74, 64
7, 338160, Note_on_c, 5, 72, 123
7, 338160, Note_on_c, 5, 64, 127
7, 338280, Note_off_c, 5, 64, 64
7, 338280, Note_off_c, 5, 72, 64
7, 430080, Control_c, 5, 7, 100
7, 430080, Control_c, 5, 10, 82
7, 430080, Control_c, 5, 93, 0
7, 430080, Control_c, 5, 91, 66
7, 431040, Control_c, 5, 7, 100
7, 431040, Control_c, 5, 10, 82
7, 431040, Control_c, 5, 93, 0
7, 431040, Control_c, 5, 91, 66
7, 432960, Note_on_c, 5, 72, 85
7, 432960, Note_on_c, 5, 60, 93
7, 433440, Note_off_c, 5, 60, 64
7, 433440, Note_off_c, 5, 72, 64
7, 433440, Note_on_c, 5, 72, 89
7, 433440, Note_on_c, 5, 60, 99
7, 433560, Note_off_c, 5, 60, 64
7, 433560, Note_off_c, 5, 72, 64
7, 433680, Note_on_c, 5, 72, 86
7, 433680, Note_on_c, 5, 60, 94
7, 433800, Note_off_c, 5, 60, 64
7, 433800, Note_off_c, 5, 72, 64
7, 433920, Note_on_c, 5, 60, 94
7, 433920, Note_on_c, 5, 72, 89
7, 434880, Note_off_c, 5, 72, 64
7, 434880, Note_off_c, 5, 60, 64
7, 434880, Note_on_c, 5, 72, 82
7, 434880, Note_on_c, 5, 60, 89
7, 435360, Note_off_c, 5, 60, 64
7, 435360, Note_off_c, 5, 72, 64
7, 435360, Note_on_c, 5, 72, 90
7, 435360, Note_on_c, 5, 60, 94
7, 435480, Note_off_c, 5, 60, 64
7, 435480, Note_off_c, 5, 72, 64
7, 435600, Note_on_c, 5, 72, 90
7, 435600, Note_on_c, 5, 60, 95
7, 435720, Note_off_c, 5, 60, 64
7, 435720, Note_off_c, 5, 72, 64
7, 435840, Note_on_c, 5, 60, 95
7, 435840, Note_on_c, 5, 72, 84
7, 436800, Note_off_c, 5, 72, 64
7, 436800, Note_off_c, 5, 60, 64
7, 436800, Note_on_c, 5, 72, 90
7, 436800, Note_on_c, 5, 60, 99
7, 437040, Note_off_c, 5, 60, 64
7, 437040, Note_off_c, 5, 72, 64
7, 437760, Note_on_c, 5, 67, 94
7, 437760, Note_on_c, 5, 55, 98
7, 438000, Note_off_c, 5, 55, 64
7, 438000, Note_off_c, 5, 67, 64
7, 438720, Note_on_c, 5, 72, 95
7, 438720, Note_on_c, 5, 60, 95
7, 439440, Note_off_c, 5, 60, 64
7, 439440, Note_off_c, 5, 72, 64
7, 439620, Note_on_c, 5, 60, 99
7, 439620, Note_on_c, 5, 72, 94
7, 439680, Note_off_c, 5, 72, 64
7, 439680, Note_off_c, 5, 60, 64
7, 439680, Note_on_c, 5, 76, 98
7, 439680, Note_on_c, 5, 64, 99
7, 440040, Note_off_c, 5, 64, 64
7, 440040, Note_off_c, 5, 76, 64
7, 440100, Note_on_c, 5, 76, 98
7, 440100, Note_on_c, 5, 64, 99
7, 440160, Note_off_c, 5, 64, 64
7, 440160, Note_off_c, 5, 76, 64
7, 440160, Note_on_c, 5, 72, 86
7, 440160, Note_on_c, 5, 60, 94
7, 440520, Note_off_c, 5, 60, 64
7, 440520, Note_off_c, 5, 72, 64
7, 440580, Note_on_c, 5, 60, 95
7, 440580, Note_on_c, 5, 72, 89
7, 440640, Note_off_c, 5, 72, 64
7, 440640, Note_off_c, 5, 60, 64
7, 440640, Note_on_c, 5, 72, 98
7, 440640, Note_on_c, 5, 60, 101
7, 441360, Note_off_c, 5, 60, 64
7, 441360, Note_off_c, 5, 72, 64
7, 441540, Note_on_c, 5, 60, 94
7, 441540, Note_on_c, 5, 72, 90
7, 441600, Note_off_c, 5, 72, 64
7, 441600, Note_off_c, 5, 60, 64
7, 441600, Note_on_c, 5, 72, 89
7, 441600, Note_on_c, 5, 60, 94
7, 441960, Note_off_c, 5, 60, 64
7, 441960, Note_off_c, 5, 72, 64
7, 442020, Note_on_c, 5, 72, 89
7, 442020, Note_on_c, 5, 60, 94
7, 442080, Note_off_c, 5, 60, 64
7, 442080, Note_off_c, 5, 72, 64
7, 442080, Note_on_c, 5, 72, 86
7, 442080, Note_on_c, 5, 60, 94
7, 442440, Note_off_c, 5, 60, 64
7, 442440, Note_off_c, 5, 72, 64
7, 442500, Note_on_c, 5, 72, 89
7, 442500, Note_on_c, 5, 60, 95
7, 442560, Note_off_c, 5, 60, 64
7, 442560, Note_off_c, 5, 72, 64
7, 442560, Note_on_c, 5, 72, 99
7, 442560, Note_on_c, 5, 60, 104
7, 443280, Note_off_c, 5, 60, 64
7, 443280, Note_off_c, 5, 72, 64
7, 443460, Note_on_c, 5, 72, 94
7, 443460, Note_on_c, 5, 60, 101
7, 443520, Note_off_c, 5, 60, 64
7, 443520, Note_off_c, 5, 72, 64
7, 443520, Note_on_c, 5, 72, 98
7, 443520, Note_on_c, 5, 60, 99
7, 443880, Note_off_c, 5, 60, 64
7, 443880, Note_off_c, 5, 72, 64
7, 443940, Note_on_c, 5, 72, 99
7, 443940, Note_on_c, 5, 60, 101
7, 444000, Note_off_c, 5, 60, 64
7, 444000, Note_off_c, 5, 72, 64
7, 444000, Note_on_c, 5, 72, 98
7, 444000, Note_on_c, 5, 60, 99
7, 444360, Note_off_c, 5, 60, 64
7, 444360, Note_off_c, 5, 72, 64
7, 444420, Note_on_c, 5, 72, 90
7, 444420, Note_on_c, 5, 60, 98
7, 444480, Note_off_c, 5, 60, 64
7, 444480, Note_off_c, 5, 72, 64
7, 444480, Note_on_c, 5, 76, 119
7, 444480, Note_on_c, 5, 72, 117
7, 445440, Control_c, 5, 7, 100
7, 445440, Control_c, 5, 10, 82
7, 445440, Control_c, 5, 93, 0
7, 445440, Control_c, 5, 91, 66
7, 445920, Note_off_c, 5, 72, 64
7, 445920, Note_off_c, 5, 76, 64
7, 479520, Note_on_c, 5, 72, 81
7, 479520, Note_on_c, 5, 64, 93
7, 479640, Note_off_c, 5, 64, 64
7, 479640, Note_off_c, 5, 72, 64
7, 479760, Note_on_c, 5, 67, 86
7, 479880, Note_off_c, 5, 67, 64
7, 480000, Note_on_c, 5, 72, 72
7, 480000, Note_on_c, 5, 64, 80
7, 480120, Note_off_c, 5, 64, 64
7, 480120, Note_off_c, 5, 72, 64
7, 480240, Note_on_c, 5, 74, 82
7, 480240, Note_on_c, 5, 67, 69
7, 480360, Note_off_c, 5, 67, 64
7, 480360, Note_off_c, 5, 74, 64
7, 480480, Note_on_c, 5, 76, 105
7, 480480, Note_on_c, 5, 72, 94
7, 480840, Note_off_c, 5, 72, 64
7, 480840, Note_off_c, 5, 76, 64
7, 480840, Note_on_c, 5, 74, 89
7, 480840, Note_on_c, 5, 67, 84
7, 480960, Note_off_c, 5, 67, 64
7, 480960, Note_off_c, 5, 74, 64
7, 480960, Note_on_c, 5, 72, 65
7, 480960, Note_on_c, 5, 64, 70
7, 481080, Note_off_c, 5, 64, 64
7, 481080, Note_off_c, 5, 72, 64
7, 481080, Note_on_c, 5, 74, 84
7, 481080, Note_on_c, 5, 67, 84
7, 481200, Note_off_c, 5, 67, 64
7, 481200, Note_off_c, 5, 74, 64
7, 481200, Note_on_c, 5, 76, 89
7, 481200, Note_on_c, 5, 72, 78
7, 481260, Note_off_c, 5, 72, 64
7, 481260, Note_off_c, 5, 76, 64
7, 481320, Note_on_c, 5, 77, 69
7, 481320, Note_on_c, 5, 74, 89
7, 481380, Note_off_c, 5, 74, 64
7, 481380, Note_off_c, 5, 77, 64
7, 481440, Note_on_c, 5, 79, 52
7, 481440, Note_on_c, 5, 76, 84
7, 481560, Note_off_c, 5, 76, 64
7, 481560, Note_off_c, 5, 79, 64
7, 481680, Note_on_c, 5, 79, 66
7, 481680, Note_on_c, 5, 76, 85
7, 481800, Note_off_c, 5, 76, 64
7, 481800, Note_off_c, 5, 79, 64
7, 481920, Note_on_c, 5, 74, 77
7, 481920, Note_on_c, 5, 67, 78
7, 482040, Note_off_c, 5, 67, 64
7, 482040, Note_off_c, 5, 74, 64
7, 482160, Note_on_c, 5, 74, 81
7, 482160, Note_on_c, 5, 67, 81
7, 482280, Note_off_c, 5, 67, 64
7, 482280, Note_off_c, 5, 74, 64
7, 482400, Note_on_c, 5, 76, 115
7, 482400, Note_on_c, 5, 72, 115
7, 482760, Note_off_c, 5, 72, 64
7, 482760, Note_off_c, 5, 76, 64
7, 482760, Note_on_c, 5, 74, 82
7, 482760, Note_on_c, 5, 67, 80
7, 482880, Note_off_c, 5, 67, 64
7, 482880, Note_off_c, 5, 74, 64
7, 482880, Note_on_c, 5, 72, 68
7, 482880, Note_on_c, 5, 64, 72
7, 483000, Note_off_c, 5, 64, 64
7, 483000, Note_off_c, 5, 72, 64
7, 483000, Note_on_c, 5, 74, 80
7, 483000, Note_on_c, 5, 67, 74
7, 483120, Note_off_c, 5, 67, 64
7, 483120, Note_off_c, 5, 74, 64
7, 483120, Note_on_c, 5, 76, 65
7, 483120, Note_on_c, 5, 72, 70
7, 483180, Note_off_c, 5, 72, 64
7, 483180, Note_off_c, 5, 76, 64
7, 483240, Note_on_c, 5, 77, 53
7, 483240, Note_on_c, 5, 74, 82
7, 483300, Note_off_c, 5, 74, 64
7, 483300, Note_off_c, 5, 77, 64
7, 483360, Note_on_c, 5, 79, 65
7, 483360, Note_on_c, 5, 76, 78
7, 483480, Note_off_c, 5, 76, 64
7, 483480, Note_off_c, 5, 79, 64
7, 483600, Note_on_c, 5, 67, 82
7, 483720, Note_off_c, 5, 67, 64
7, 483840, Note_on_c, 5, 67, 72
7, 483960, Note_off_c, 5, 67, 64
7, 484080, Note_on_c, 5, 67, 84
7, 484200, Note_off_c, 5, 67, 64
7, 484320, Note_on_c, 5, 72, 119
7, 484320, Note_on_c, 5, 60, 119
7, 484800, Note_off_c, 5, 60, 64
7, 484800, Note_off_c, 5, 72, 64
7, 484800, Note_on_c, 5, 72, 117
7, 484800, Note_on_c, 5, 60, 119
7, 484920, Note_off_c, 5, 60, 64
7, 484920, Note_off_c, 5, 72, 64
7, 485040, Note_on_c, 5, 72, 123
7, 485040, Note_on_c, 5, 60, 117
7, 485160, Note_off_c, 5, 60, 64
7, 485160, Note_off_c, 5, 72, 64
7, 485280, Note_on_c, 5, 72, 119
7, 485280, Note_on_c, 5, 60, 125
7, 485520, Note_off_c, 5, 60, 64
7, 485520, Note_off_c, 5, 72, 64
7, 486240, Note_on_c, 5, 76, 123
7, 486240, Note_on_c, 5, 64, 123
7, 486720, Note_off_c, 5, 64, 64
7, 486720, Note_off_c, 5, 76, 64
7, 486720, Note_on_c, 5, 76, 123
7, 486720, Note_on_c, 5, 64, 119
7, 486840, Note_off_c, 5, 64, 64
7, 486840, Note_off_c, 5, 76, 64
7, 486960, Note_on_c, 5, 76, 123
7, 486960, Note_on_c, 5, 64, 119
7, 487080, Note_off_c, 5, 64, 64
7, 487080, Note_off_c, 5, 76, 64
7, 487200, Note_on_c, 5, 76, 119
7, 487200, Note_on_c, 5, 64, 119
7, 487440, Note_off_c, 5, 64, 64
7, 487440, Note_off_c, 5, 76, 64
7, 488160, Note_on_c, 5, 79, 123
7, 488160, Note_on_c, 5, 67, 127
7, 489120, Note_off_c, 5, 67, 64
7, 489120, Note_off_c, 5, 79, 64
7, 489120, Note_on_c, 5, 79, 119
7, 489120, Note_on_c, 5, 67, 115
7, 489360, Note_off_c, 5, 67, 64
7, 489360, Note_off_c, 5, 79, 64
7, 489600, Note_on_c, 5, 74, 123
7, 489600, Note_on_c, 5, 67, 119
7, 489840, Note_off_c, 5, 67, 64
7, 489840, Note_off_c, 5, 74, 64
7, 490080, Note_on_c, 5, 76, 119
7, 490080, Note_on_c, 5, 72, 119
7, 490320, Note_off_c, 5, 72, 64
7, 490320, Note_off_c, 5, 76, 64
7, 490500, Note_on_c, 5, 72, 119
7, 490500, Note_on_c, 5, 60, 119
7, 490560, Note_off_c, 5, 60, 64
7, 490560, Note_off_c, 5, 72, 64
7, 490560, Note_on_c, 5, 72, 119
7, 490560, Note_on_c, 5, 60, 119
7, 490800, Note_off_c, 5, 60, 64
7, 490800, Note_off_c, 5, 72, 64
7, 490980, Note_on_c, 5, 60, 123
7, 491040, Note_off_c, 5, 60, 64
7, 491040, Note_on_c, 5, 60, 125
7, 491160, Note_off_c, 5, 60, 64
7, 491160, End_track
8, 0, Start_track
8, 0, Title_t, "Timpani "
8, 0, Program_c, 6, 47
8, 0, Control_c, 6, 7, 100
8, 0, Control_c, 6, 10, 44
8, 0, Control_c, 6, 93, 0
8, 0, Control_c, 6, 91, 66
8, 14400, Note_on_c, 6, 48, 80
8, 14880, Note_off_c, 6, 48, 64
8, 14880, Note_on_c, 6, 48, 80
8, 15120, Note_off_c, 6, 48, 64
8, 15120, Note_on_c, 6, 48, 80
8, 15360, Note_off_c, 6, 48, 64
8, 15360, Note_on_c, 6, 48, 80
8, 15600, Note_off_c, 6, 48, 64
8, 16320, Note_on_c, 6, 48, 80
8, 16560, Note_off_c, 6, 48, 64
8, 16560, Note_on_c, 6, 43, 80
8, 16800, Note_off_c, 6, 43, 64
8, 16800, Note_on_c, 6, 48, 80
8, 17040, Note_off_c, 6, 48, 64
8, 17040, Note_on_c, 6, 43, 80
8, 17280, Note_off_c, 6, 43, 64
8, 17280, Note_on_c, 6, 48, 80
8, 17520, Note_off_c, 6, 48, 64
8, 17520, Note_on_c, 6, 43, 80
8, 17760, Note_off_c, 6, 43, 64
8, 18240, Note_on_c, 6, 43, 80
8, 18720, Note_off_c, 6, 43, 64
8, 18720, Note_on_c, 6, 43, 117
8, 18840, Note_off_c, 6, 43, 64
8, 18960, Note_on_c, 6, 43, 105
8, 19080, Note_off_c, 6, 43, 64
8, 19200, Note_on_c, 6, 43, 105
8, 19320, Note_off_c, 6, 43, 64
8, 20160, Note_on_c, 6, 43, 117
8, 20280, Note_off_c, 6, 43, 64
8, 20400, Note_on_c, 6, 43, 123
8, 20520, Note_off_c, 6, 43, 64
8, 20640, Note_on_c, 6, 43, 119
8, 20760, Note_off_c, 6, 43, 64
8, 20880, Note_on_c, 6, 48, 123
8, 21000, Note_off_c, 6, 48, 64
8, 21120, Note_on_c, 6, 43, 115
8, 21240, Note_off_c, 6, 43, 64
8, 21360, Note_on_c, 6, 48, 125
8, 21480, Note_off_c, 6, 48, 64
8, 22080, Note_on_c, 6, 48, 80
8, 22320, Note_off_c, 6, 48, 64
8, 23040, Note_on_c, 6, 48, 80
8, 23280, Note_off_c, 6, 48, 64
8, 23280, Note_on_c, 6, 48, 80
8, 23460, Note_off_c, 6, 48, 64
8, 23460, Note_on_c, 6, 48, 80
8, 23520, Note_off_c, 6, 48, 64
8, 23520, Note_on_c, 6, 48, 80
8, 23760, Note_off_c, 6, 48, 64
8, 23760, Note_on_c, 6, 48, 80
8, 24000, Note_off_c, 6, 48, 64
8, 24000, Note_on_c, 6, 48, 80
8, 24240, Note_off_c, 6, 48, 64
8, 25200, Note_on_c, 6, 48, 80
8, 25380, Note_off_c, 6, 48, 64
8, 25380, Note_on_c, 6, 48, 80
8, 25440, Note_off_c, 6, 48, 64
8, 25440, Note_on_c, 6, 48, 80
8, 25680, Note_off_c, 6, 48, 64
8, 25680, Note_on_c, 6, 48, 80
8, 25920, Note_off_c, 6, 48, 64
8, 25920, Note_on_c, 6, 48, 80
8, 26160, Note_off_c, 6, 48, 64
8, 29040, Note_on_c, 6, 48, 80
8, 29280, Note_off_c, 6, 48, 64
8, 29280, Note_on_c, 6, 48, 80
8, 29520, Note_off_c, 6, 48, 64
8, 29520, Note_on_c, 6, 48, 80
8, 29760, Note_off_c, 6, 48, 64
8, 29760, Note_on_c, 6, 48, 80
8, 30000, Note_off_c, 6, 48, 64
8, 30960, Note_on_c, 6, 48, 80
8, 31140, Note_off_c, 6, 48, 64
8, 31140, Note_on_c, 6, 48, 80
8, 31200, Note_off_c, 6, 48, 64
8, 31200, Note_on_c, 6, 48, 80
8, 31440, Note_off_c, 6, 48, 64
8, 31440, Note_on_c, 6, 48, 80
8, 31680, Note_off_c, 6, 48, 64
8, 31680, Note_on_c, 6, 48, 80
8, 31920, Note_off_c, 6, 48, 64
8, 32880, Note_on_c, 6, 48, 80
8, 33060, Note_off_c, 6, 48, 64
8, 33060, Note_on_c, 6, 48, 80
8, 33120, Note_off_c, 6, 48, 64
8, 33120, Note_on_c, 6, 48, 80
8, 33360, Note_off_c, 6, 48, 64
8, 33360, Note_on_c, 6, 48, 80
8, 33600, Note_off_c, 6, 48, 64
8, 33600, Note_on_c, 6, 48, 80
8, 34080, Note_off_c, 6, 48, 64
8, 34080, Note_on_c, 6, 48, 80
8, 34560, Note_off_c, 6, 48, 64
8, 34560, Note_on_c, 6, 48, 80
8, 35040, Note_off_c, 6, 48, 64
8, 35040, Note_on_c, 6, 48, 80
8, 35100, Note_off_c, 6, 48, 64
8, 35100, Note_on_c, 6, 48, 80
8, 35160, Note_off_c, 6, 48, 64
8, 35160, Note_on_c, 6, 48, 80
8, 35220, Note_off_c, 6, 48, 64
8, 35220, Note_on_c, 6, 48, 80
8, 35280, Note_off_c, 6, 48, 64
8, 35280, Note_on_c, 6, 48, 80
8, 35340, Note_off_c, 6, 48, 64
8, 35340, Note_on_c, 6, 48, 80
8, 35400, Note_off_c, 6, 48, 64
8, 35400, Note_on_c, 6, 48, 80
8, 35460, Note_off_c, 6, 48, 64
8, 35460, Note_on_c, 6, 48, 80
8, 35520, Note_off_c, 6, 48, 64
8, 35520, Note_on_c, 6, 43, 80
8, 35760, Note_off_c, 6, 43, 64
8, 37440, Note_on_c, 6, 43, 115
8, 37560, Note_off_c, 6, 43, 64
8, 38400, Note_on_c, 6, 43, 119
8, 38520, Note_off_c, 6, 43, 64
8, 39360, Note_on_c, 6, 43, 107
8, 39600, Note_off_c, 6, 43, 64
8, 39840, Note_on_c, 6, 48, 125
8, 40080, Note_off_c, 6, 48, 64
8, 40320, Note_on_c, 6, 43, 119
8, 40560, Note_off_c, 6, 43, 64
8, 40800, Note_on_c, 6, 48, 119
8, 41040, Note_off_c, 6, 48, 64
8, 41280, Note_on_c, 6, 43, 119
8, 41400, Note_off_c, 6, 43, 64
8, 41520, Note_on_c, 6, 48, 127
8, 41640, Note_off_c, 6, 48, 64
8, 41760, Note_on_c, 6, 43, 119
8, 41880, Note_off_c, 6, 43, 64
8, 42000, Note_on_c, 6, 48, 127
8, 42120, Note_off_c, 6, 48, 64
8, 42240, Note_on_c, 6, 43, 125
8, 42360, Note_off_c, 6, 43, 64
8, 42660, Note_on_c, 6, 43, 125
8, 42720, Note_off_c, 6, 43, 64
8, 42720, Note_on_c, 6, 43, 125
8, 42960, Note_off_c, 6, 43, 64
8, 43140, Note_on_c, 6, 43, 125
8, 43200, Note_off_c, 6, 43, 64
8, 43200, Note_on_c, 6, 43, 125
8, 43440, Note_off_c, 6, 43, 64
8, 72000, Note_on_c, 6, 48, 123
8, 72480, Note_off_c, 6, 48, 64
8, 72480, Note_on_c, 6, 48, 125
8, 72600, Note_off_c, 6, 48, 64
8, 72720, Note_on_c, 6, 48, 127
8, 72840, Note_off_c, 6, 48, 64
8, 72960, Note_on_c, 6, 48, 125
8, 73440, Note_off_c, 6, 48, 64
8, 74880, Note_on_c, 6, 48, 127
8, 75360, Note_off_c, 6, 48, 64
8, 75360, Note_on_c, 6, 48, 125
8, 75480, Note_off_c, 6, 48, 64
8, 75600, Note_on_c, 6, 48, 127
8, 75720, Note_off_c, 6, 48, 64
8, 75840, Note_on_c, 6, 48, 123
8, 75900, Note_off_c, 6, 48, 64
8, 75900, Note_on_c, 6, 48, 117
8, 75960, Note_off_c, 6, 48, 64
8, 75960, Note_on_c, 6, 48, 119
8, 76020, Note_off_c, 6, 48, 64
8, 76020, Note_on_c, 6, 48, 117
8, 76080, Note_off_c, 6, 48, 64
8, 76080, Note_on_c, 6, 48, 119
8, 76140, Note_off_c, 6, 48, 64
8, 76140, Note_on_c, 6, 48, 115
8, 76200, Note_off_c, 6, 48, 64
8, 76200, Note_on_c, 6, 48, 117
8, 76260, Note_off_c, 6, 48, 64
8, 76260, Note_on_c, 6, 48, 115
8, 76320, Note_off_c, 6, 48, 64
8, 76320, Note_on_c, 6, 48, 115
8, 76380, Note_off_c, 6, 48, 64
8, 76380, Note_on_c, 6, 48, 119
8, 76440, Note_off_c, 6, 48, 64
8, 76440, Note_on_c, 6, 48, 119
8, 76500, Note_off_c, 6, 48, 64
8, 76500, Note_on_c, 6, 48, 117
8, 76560, Note_off_c, 6, 48, 64
8, 76560, Note_on_c, 6, 48, 119
8, 76620, Note_off_c, 6, 48, 64
8, 76620, Note_on_c, 6, 48, 115
8, 76680, Note_off_c, 6, 48, 64
8, 76680, Note_on_c, 6, 48, 115
8, 76740, Note_off_c, 6, 48, 64
8, 76740, Note_on_c, 6, 48, 119
8, 76800, Note_off_c, 6, 48, 64
8, 76800, Note_on_c, 6, 48, 117
8, 76860, Note_off_c, 6, 48, 64
8, 76860, Note_on_c, 6, 48, 117
8, 76920, Note_off_c, 6, 48, 64
8, 76920, Note_on_c, 6, 48, 112
8, 76980, Note_off_c, 6, 48, 64
8, 76980, Note_on_c, 6, 48, 119
8, 77040, Note_off_c, 6, 48, 64
8, 77040, Note_on_c, 6, 48, 119
8, 77100, Note_off_c, 6, 48, 64
8, 77100, Note_on_c, 6, 48, 119
8, 77160, Note_off_c, 6, 48, 64
8, 77160, Note_on_c, 6, 48, 123
8, 77220, Note_off_c, 6, 48, 64
8, 77220, Note_on_c, 6, 48, 123
8, 77280, Note_off_c, 6, 48, 64
8, 77280, Note_on_c, 6, 48, 127
8, 77340, Note_off_c, 6, 48, 64
8, 77340, Note_on_c, 6, 48, 119
8, 77400, Note_off_c, 6, 48, 64
8, 77400, Note_on_c, 6, 48, 119
8, 77460, Note_off_c, 6, 48, 64
8, 77460, Note_on_c, 6, 48, 123
8, 77520, Note_off_c, 6, 48, 64
8, 77520, Note_on_c, 6, 48, 119
8, 77580, Note_off_c, 6, 48, 64
8, 77580, Note_on_c, 6, 48, 123
8, 77640, Note_off_c, 6, 48, 64
8, 77640, Note_on_c, 6, 48, 119
8, 77700, Note_off_c, 6, 48, 64
8, 77700, Note_on_c, 6, 48, 125
8, 77760, Note_off_c, 6, 48, 64
8, 77760, Note_on_c, 6, 48, 127
8, 78000, Note_off_c, 6, 48, 64
8, 78720, Note_on_c, 6, 43, 125
8, 78960, Note_off_c, 6, 43, 64
8, 79680, Note_on_c, 6, 48, 125
8, 79920, Note_off_c, 6, 48, 64
8, 80160, Note_on_c, 6, 48, 127
8, 80400, Note_off_c, 6, 48, 64
8, 80640, Note_on_c, 6, 48, 127
8, 80880, Note_off_c, 6, 48, 64
8, 81120, Note_on_c, 6, 43, 119
8, 81360, Note_off_c, 6, 43, 64
8, 81600, Note_on_c, 6, 48, 80
8, 81840, Note_off_c, 6, 48, 64
8, 82560, Note_on_c, 6, 48, 80
8, 82800, Note_off_c, 6, 48, 64
8, 83520, Note_on_c, 6, 48, 80
8, 83760, Note_off_c, 6, 48, 64
8, 83760, Note_on_c, 6, 48, 80
8, 84000, Note_off_c, 6, 48, 64
8, 84000, Note_on_c, 6, 43, 80
8, 84240, Note_off_c, 6, 43, 64
8, 84240, Note_on_c, 6, 48, 80
8, 84480, Note_off_c, 6, 48, 64
8, 84480, Note_on_c, 6, 43, 80
8, 84720, Note_off_c, 6, 43, 64
8, 85440, Note_on_c, 6, 48, 80
8, 85680, Note_off_c, 6, 48, 64
8, 90240, Note_on_c, 6, 48, 80
8, 90480, Note_off_c, 6, 48, 64
8, 90720, Note_on_c, 6, 48, 80
8, 90960, Note_off_c, 6, 48, 64
8, 91200, Note_on_c, 6, 48, 80
8, 91440, Note_off_c, 6, 48, 64
8, 91680, Note_on_c, 6, 43, 80
8, 91920, Note_off_c, 6, 43, 64
8, 92160, Note_on_c, 6, 48, 81
8, 92220, Note_off_c, 6, 48, 64
8, 92220, Note_on_c, 6, 48, 84
8, 92280, Note_off_c, 6, 48, 64
8, 92280, Note_on_c, 6, 48, 86
8, 92340, Note_off_c, 6, 48, 64
8, 92340, Note_on_c, 6, 48, 84
8, 92400, Note_off_c, 6, 48, 64
8, 92400, Note_on_c, 6, 48, 84
8, 92460, Note_off_c, 6, 48, 64
8, 92460, Note_on_c, 6, 48, 84
8, 92520, Note_off_c, 6, 48, 64
8, 92520, Note_on_c, 6, 48, 85
8, 92580, Note_off_c, 6, 48, 64
8, 92580, Note_on_c, 6, 48, 84
8, 92640, Note_off_c, 6, 48, 64
8, 92640, Note_on_c, 6, 48, 93
8, 92700, Note_off_c, 6, 48, 64
8, 92700, Note_on_c, 6, 48, 84
8, 92760, Note_off_c, 6, 48, 64
8, 92760, Note_on_c, 6, 48, 84
8, 92820, Note_off_c, 6, 48, 64
8, 92820, Note_on_c, 6, 48, 89
8, 92880, Note_off_c, 6, 48, 64
8, 92880, Note_on_c, 6, 48, 86
8, 92940, Note_off_c, 6, 48, 64
8, 92940, Note_on_c, 6, 48, 93
8, 93000, Note_off_c, 6, 48, 64
8, 93000, Note_on_c, 6, 48, 94
8, 93060, Note_off_c, 6, 48, 64
8, 93060, Note_on_c, 6, 48, 105
8, 93120, Note_off_c, 6, 48, 64
8, 93120, Note_on_c, 6, 48, 94
8, 93180, Note_off_c, 6, 48, 64
8, 93180, Note_on_c, 6, 48, 94
8, 93240, Note_off_c, 6, 48, 64
8, 93240, Note_on_c, 6, 48, 89
8, 93300, Note_off_c, 6, 48, 64
8, 93300, Note_on_c, 6, 48, 93
8, 93360, Note_off_c, 6, 48, 64
8, 93360, Note_on_c, 6, 48, 85
8, 93420, Note_off_c, 6, 48, 64
8, 93420, Note_on_c, 6, 48, 89
8, 93480, Note_off_c, 6, 48, 64
8, 93480, Note_on_c, 6, 48, 84
8, 93540, Note_off_c, 6, 48, 64
8, 93540, Note_on_c, 6, 48, 95
8, 93600, Note_off_c, 6, 48, 64
8, 93600, Note_on_c, 6, 43, 90
8, 93660, Note_off_c, 6, 43, 64
8, 93660, Note_on_c, 6, 43, 94
8, 93720, Note_off_c, 6, 43, 64
8, 93720, Note_on_c, 6, 43, 95
8, 93780, Note_off_c, 6, 43, 64
8, 93780, Note_on_c, 6, 43, 90
8, 93840, Note_off_c, 6, 43, 64
8, 93840, Note_on_c, 6, 43, 90
8, 93900, Note_off_c, 6, 43, 64
8, 93900, Note_on_c, 6, 43, 94
8, 93960, Note_off_c, 6, 43, 64
8, 93960, Note_on_c, 6, 43, 85
8, 94020, Note_off_c, 6, 43, 64
8, 94020, Note_on_c, 6, 43, 93
8, 94080, Note_off_c, 6, 43, 64
8, 94080, Note_on_c, 6, 48, 125
8, 94560, Note_off_c, 6, 48, 64
8, 94560, Note_on_c, 6, 48, 127
8, 94680, Note_off_c, 6, 48, 64
8, 94800, Note_on_c, 6, 48, 125
8, 94920, Note_off_c, 6, 48, 64
8, 95040, Note_on_c, 6, 48, 127
8, 95280, Note_off_c, 6, 48, 64
8, 97920, Note_on_c, 6, 43, 85
8, 97980, Note_off_c, 6, 43, 64
8, 97980, Note_on_c, 6, 43, 89
8, 98040, Note_off_c, 6, 43, 64
8, 98040, Note_on_c, 6, 43, 86
8, 98100, Note_off_c, 6, 43, 64
8, 98100, Note_on_c, 6, 43, 90
8, 98160, Note_off_c, 6, 43, 64
8, 98160, Note_on_c, 6, 43, 84
8, 98220, Note_off_c, 6, 43, 64
8, 98220, Note_on_c, 6, 43, 86
8, 98280, Note_off_c, 6, 43, 64
8, 98280, Note_on_c, 6, 43, 86
8, 98340, Note_off_c, 6, 43, 64
8, 98340, Note_on_c, 6, 43, 89
8, 98400, Note_off_c, 6, 43, 64
8, 98400, Note_on_c, 6, 43, 89
8, 98460, Note_off_c, 6, 43, 64
8, 98460, Note_on_c, 6, 43, 86
8, 98520, Note_off_c, 6, 43, 64
8, 98520, Note_on_c, 6, 43, 86
8, 98580, Note_off_c, 6, 43, 64
8, 98580, Note_on_c, 6, 43, 86
8, 98640, Note_off_c, 6, 43, 64
8, 98640, Note_on_c, 6, 43, 90
8, 98700, Note_off_c, 6, 43, 64
8, 98700, Note_on_c, 6, 43, 90
8, 98760, Note_off_c, 6, 43, 64
8, 98760, Note_on_c, 6, 43, 95
8, 98820, Note_off_c, 6, 43, 64
8, 98820, Note_on_c, 6, 43, 95
8, 98880, Note_off_c, 6, 43, 64
8, 98880, Note_on_c, 6, 43, 80
8, 99120, Note_off_c, 6, 43, 64
8, 99360, Note_on_c, 6, 43, 80
8, 99600, Note_off_c, 6, 43, 64
8, 99840, Note_on_c, 6, 48, 80
8, 100080, Note_off_c, 6, 48, 64
8, 100260, Note_on_c, 6, 48, 80
8, 100320, Note_off_c, 6, 48, 64
8, 100320, Note_on_c, 6, 48, 80
8, 100560, Note_off_c, 6, 48, 64
8, 100740, Note_on_c, 6, 48, 80
8, 100800, Note_off_c, 6, 48, 64
8, 100800, Note_on_c, 6, 48, 80
8, 101040, Note_off_c, 6, 48, 64
8, 112320, Note_on_c, 6, 48, 80
8, 112800, Note_off_c, 6, 48, 64
8, 112800, Note_on_c, 6, 48, 80
8, 113040, Note_off_c, 6, 48, 64
8, 113040, Note_on_c, 6, 48, 80
8, 113280, Note_off_c, 6, 48, 64
8, 113280, Note_on_c, 6, 48, 80
8, 113520, Note_off_c, 6, 48, 64
8, 116160, Note_on_c, 6, 43, 125
8, 116640, Note_off_c, 6, 43, 64
8, 116640, Note_on_c, 6, 43, 125
8, 116760, Note_off_c, 6, 43, 64
8, 116880, Note_on_c, 6, 43, 123
8, 117000, Note_off_c, 6, 43, 64
8, 117120, Note_on_c, 6, 43, 123
8, 117360, Note_off_c, 6, 43, 64
8, 226560, Note_on_c, 6, 43, 80
8, 227040, Note_off_c, 6, 43, 64
8, 229440, Note_on_c, 6, 43, 71
8, 229680, Note_off_c, 6, 43, 64
8, 229680, Note_on_c, 6, 43, 84
8, 229920, Note_off_c, 6, 43, 64
8, 229920, Note_on_c, 6, 43, 78
8, 230160, Note_off_c, 6, 43, 64
8, 230160, Note_on_c, 6, 43, 89
8, 230400, Note_off_c, 6, 43, 64
8, 230400, Note_on_c, 6, 48, 115
8, 230880, Note_off_c, 6, 48, 64
8, 230880, Note_on_c, 6, 48, 94
8, 231000, Note_off_c, 6, 48, 64
8, 231120, Note_on_c, 6, 48, 101
8, 231240, Note_off_c, 6, 48, 64
8, 231360, Note_on_c, 6, 48, 110
8, 231600, Note_off_c, 6, 48, 64
8, 234240, Note_on_c, 6, 48, 104
8, 234480, Note_off_c, 6, 48, 64
8, 236640, Note_on_c, 6, 43, 99
8, 236700, Note_off_c, 6, 43, 64
8, 236700, Note_on_c, 6, 43, 104
8, 236760, Note_off_c, 6, 43, 64
8, 236760, Note_on_c, 6, 43, 95
8, 236820, Note_off_c, 6, 43, 64
8, 236820, Note_on_c, 6, 43, 99
8, 236880, Note_off_c, 6, 43, 64
8, 236880, Note_on_c, 6, 43, 99
8, 236940, Note_off_c, 6, 43, 64
8, 236940, Note_on_c, 6, 43, 99
8, 237000, Note_off_c, 6, 43, 64
8, 237000, Note_on_c, 6, 43, 104
8, 237060, Note_off_c, 6, 43, 64
8, 237060, Note_on_c, 6, 43, 110
8, 237120, Note_off_c, 6, 43, 64
8, 237120, Note_on_c, 6, 48, 94
8, 237360, Note_off_c, 6, 48, 64
8, 238080, Note_on_c, 6, 43, 80
8, 238320, Note_off_c, 6, 43, 64
8, 239040, Note_on_c, 6, 43, 80
8, 239280, Note_off_c, 6, 43, 64
8, 240000, Note_on_c, 6, 43, 89
8, 240060, Note_off_c, 6, 43, 64
8, 240060, Note_on_c, 6, 43, 93
8, 240120, Note_off_c, 6, 43, 64
8, 240120, Note_on_c, 6, 43, 85
8, 240180, Note_off_c, 6, 43, 64
8, 240180, Note_on_c, 6, 43, 90
8, 240240, Note_off_c, 6, 43, 64
8, 240240, Note_on_c, 6, 43, 86
8, 240300, Note_off_c, 6, 43, 64
8, 240300, Note_on_c, 6, 43, 86
8, 240360, Note_off_c, 6, 43, 64
8, 240360, Note_on_c, 6, 43, 82
8, 240420, Note_off_c, 6, 43, 64
8, 240420, Note_on_c, 6, 43, 89
8, 240480, Note_off_c, 6, 43, 64
8, 240480, Note_on_c, 6, 43, 86
8, 240540, Note_off_c, 6, 43, 64
8, 240540, Note_on_c, 6, 43, 86
8, 240600, Note_off_c, 6, 43, 64
8, 240600, Note_on_c, 6, 43, 84
8, 240660, Note_off_c, 6, 43, 64
8, 240660, Note_on_c, 6, 43, 89
8, 240720, Note_off_c, 6, 43, 64
8, 240720, Note_on_c, 6, 43, 86
8, 240780, Note_off_c, 6, 43, 64
8, 240780, Note_on_c, 6, 43, 90
8, 240840, Note_off_c, 6, 43, 64
8, 240840, Note_on_c, 6, 43, 85
8, 240900, Note_off_c, 6, 43, 64
8, 240900, Note_on_c, 6, 43, 89
8, 240960, Note_off_c, 6, 43, 64
8, 240960, Note_on_c, 6, 43, 90
8, 241080, Note_off_c, 6, 43, 64
8, 241200, Note_on_c, 6, 43, 89
8, 241320, Note_off_c, 6, 43, 64
8, 241440, Note_on_c, 6, 48, 94
8, 241560, Note_off_c, 6, 48, 64
8, 241920, Note_on_c, 6, 43, 80
8, 242160, Note_off_c, 6, 43, 64
8, 242880, Note_on_c, 6, 43, 80
8, 243120, Note_off_c, 6, 43, 64
8, 243840, Note_on_c, 6, 43, 80
8, 244080, Note_off_c, 6, 43, 64
8, 244260, Note_on_c, 6, 43, 80
8, 244320, Note_off_c, 6, 43, 64
8, 244320, Note_on_c, 6, 43, 80
8, 244560, Note_off_c, 6, 43, 64
8, 244740, Note_on_c, 6, 43, 80
8, 244800, Note_off_c, 6, 43, 64
8, 244800, Note_on_c, 6, 43, 80
8, 245040, Note_off_c, 6, 43, 64
8, 254640, Control_c, 6, 7, 100
8, 254640, Control_c, 6, 10, 44
8, 254640, Control_c, 6, 93, 0
8, 254640, Control_c, 6, 91, 66
8, 266160, Control_c, 6, 7, 100
8, 266160, Control_c, 6, 10, 44
8, 266160, Control_c, 6, 93, 0
8, 266160, Control_c, 6, 91, 66
8, 266400, Control_c, 6, 7, 100
8, 266400, Control_c, 6, 10, 44
8, 266400, Control_c, 6, 93, 0
8, 266400, Control_c, 6, 91, 66
8, 266640, Control_c, 6, 7, 100
8, 266640, Control_c, 6, 10, 44
8, 266640, Control_c, 6, 93, 0
8, 266640, Control_c, 6, 91, 66
8, 266880, Control_c, 6, 7, 100
8, 266880, Control_c, 6, 10, 44
8, 266880, Control_c, 6, 93, 0
8, 266880, Control_c, 6, 91, 66
8, 267120, Control_c, 6, 7, 100
8, 267120, Control_c, 6, 10, 44
8, 267120, Control_c, 6, 93, 0
8, 267120, Control_c, 6, 91, 66
8, 267360, Control_c, 6, 7, 100
8, 267360, Control_c, 6, 10, 44
8, 267360, Control_c, 6, 93, 0
8, 267360, Control_c, 6, 91, 66
8, 267600, Control_c, 6, 7, 100
8, 267600, Control_c, 6, 10, 44
8, 267600, Control_c, 6, 93, 0
8, 267600, Control_c, 6, 91, 66
8, 280320, Control_c, 6, 7, 100
8, 280320, Control_c, 6, 10, 44
8, 280320, Control_c, 6, 93, 0
8, 280320, Control_c, 6, 91, 66
8, 310800, Control_c, 6, 7, 100
8, 310800, Control_c, 6, 10, 44
8, 310800, Control_c, 6, 93, 0
8, 310800, Control_c, 6, 91, 66
8, 311040, Control_c, 6, 7, 100
8, 311040, Control_c, 6, 10, 44
8, 311040, Control_c, 6, 93, 0
8, 311040, Control_c, 6, 91, 66
8, 311280, Control_c, 6, 7, 100
8, 311280, Control_c, 6, 10, 44
8, 311280, Control_c, 6, 93, 0
8, 311280, Control_c, 6, 91, 66
8, 311520, Control_c, 6, 7, 100
8, 311520, Control_c, 6, 10, 44
8, 311520, Control_c, 6, 93, 0
8, 311520, Control_c, 6, 91, 66
8, 311760, Control_c, 6, 7, 100
8, 311760, Control_c, 6, 10, 44
8, 311760, Control_c, 6, 93, 0
8, 311760, Control_c, 6, 91, 66
8, 312000, Control_c, 6, 7, 100
8, 312000, Control_c, 6, 10, 44
8, 312000, Control_c, 6, 93, 0
8, 312000, Control_c, 6, 91, 66
8, 312240, Control_c, 6, 7, 100
8, 312240, Control_c, 6, 10, 44
8, 312240, Control_c, 6, 93, 0
8, 312240, Control_c, 6, 91, 66
8, 312480, Control_c, 6, 7, 100
8, 312480, Control_c, 6, 10, 44
8, 312480, Control_c, 6, 93, 0
8, 312480, Control_c, 6, 91, 66
8, 312720, Control_c, 6, 7, 100
8, 312720, Control_c, 6, 10, 44
8, 312720, Control_c, 6, 93, 0
8, 312720, Control_c, 6, 91, 66
8, 331200, Note_on_c, 6, 48, 80
8, 331680, Note_off_c, 6, 48, 64
8, 331680, Note_on_c, 6, 48, 125
8, 331800, Note_off_c, 6, 48, 64
8, 331920, Note_on_c, 6, 48, 125
8, 332040, Note_off_c, 6, 48, 64
8, 332160, Note_on_c, 6, 48, 125
8, 332400, Note_off_c, 6, 48, 64
8, 333120, Note_on_c, 6, 48, 125
8, 333240, Note_off_c, 6, 48, 64
8, 333360, Note_on_c, 6, 43, 119
8, 333480, Note_off_c, 6, 43, 64
8, 333600, Note_on_c, 6, 48, 127
8, 333720, Note_off_c, 6, 48, 64
8, 333840, Note_on_c, 6, 43, 119
8, 333960, Note_off_c, 6, 43, 64
8, 334080, Note_on_c, 6, 48, 125
8, 334200, Note_off_c, 6, 48, 64
8, 334320, Note_on_c, 6, 43, 123
8, 334440, Note_off_c, 6, 43, 64
8, 335040, Note_on_c, 6, 43, 127
8, 335520, Note_off_c, 6, 43, 64
8, 335520, Note_on_c, 6, 43, 125
8, 335640, Note_off_c, 6, 43, 64
8, 335760, Note_on_c, 6, 43, 127
8, 335880, Note_off_c, 6, 43, 64
8, 336000, Note_on_c, 6, 43, 127
8, 336240, Note_off_c, 6, 43, 64
8, 336960, Note_on_c, 6, 43, 125
8, 337080, Note_off_c, 6, 43, 64
8, 337200, Note_on_c, 6, 43, 125
8, 337320, Note_off_c, 6, 43, 64
8, 337440, Note_on_c, 6, 43, 125
8, 337560, Note_off_c, 6, 43, 64
8, 337680, Note_on_c, 6, 48, 125
8, 337800, Note_off_c, 6, 48, 64
8, 337920, Note_on_c, 6, 43, 125
8, 338040, Note_off_c, 6, 43, 64
8, 338160, Note_on_c, 6, 48, 125
8, 338280, Note_off_c, 6, 48, 64
8, 430080, Control_c, 6, 7, 100
8, 430080, Control_c, 6, 10, 44
8, 430080, Control_c, 6, 93, 0
8, 430080, Control_c, 6, 91, 66
8, 431040, Control_c, 6, 7, 100
8, 431040, Control_c, 6, 10, 44
8, 431040, Control_c, 6, 93, 0
8, 431040, Control_c, 6, 91, 66
8, 432960, Note_on_c, 6, 48, 101
8, 433440, Note_off_c, 6, 48, 64
8, 433440, Note_on_c, 6, 48, 99
8, 433560, Note_off_c, 6, 48, 64
8, 433680, Note_on_c, 6, 48, 99
8, 433800, Note_off_c, 6, 48, 64
8, 433920, Note_on_c, 6, 48, 115
8, 433980, Note_off_c, 6, 48, 64
8, 433980, Note_on_c, 6, 48, 115
8, 434040, Note_off_c, 6, 48, 64
8, 434040, Note_on_c, 6, 48, 115
8, 434100, Note_off_c, 6, 48, 64
8, 434100, Note_on_c, 6, 48, 115
8, 434160, Note_off_c, 6, 48, 64
8, 434160, Note_on_c, 6, 48, 115
8, 434220, Note_off_c, 6, 48, 64
8, 434220, Note_on_c, 6, 48, 112
8, 434280, Note_off_c, 6, 48, 64
8, 434280, Note_on_c, 6, 48, 112
8, 434340, Note_off_c, 6, 48, 64
8, 434340, Note_on_c, 6, 48, 112
8, 434400, Note_off_c, 6, 48, 64
8, 434400, Note_on_c, 6, 48, 107
8, 434460, Note_off_c, 6, 48, 64
8, 434460, Note_on_c, 6, 48, 110
8, 434520, Note_off_c, 6, 48, 64
8, 434520, Note_on_c, 6, 48, 107
8, 434580, Note_off_c, 6, 48, 64
8, 434580, Note_on_c, 6, 48, 112
8, 434640, Note_off_c, 6, 48, 64
8, 434640, Note_on_c, 6, 48, 112
8, 434700, Note_off_c, 6, 48, 64
8, 434700, Note_on_c, 6, 48, 112
8, 434760, Note_off_c, 6, 48, 64
8, 434760, Note_on_c, 6, 48, 112
8, 434820, Note_off_c, 6, 48, 64
8, 434820, Note_on_c, 6, 48, 112
8, 434880, Note_off_c, 6, 48, 64
8, 434880, Note_on_c, 6, 48, 99
8, 435120, Note_off_c, 6, 48, 64
8, 435120, Note_on_c, 6, 48, 104
8, 435300, Note_off_c, 6, 48, 64
8, 435300, Note_on_c, 6, 48, 104
8, 435360, Note_off_c, 6, 48, 64
8, 435360, Note_on_c, 6, 48, 101
8, 435480, Note_off_c, 6, 48, 64
8, 435600, Note_on_c, 6, 48, 99
8, 435720, Note_off_c, 6, 48, 64
8, 435840, Note_on_c, 6, 48, 101
8, 435900, Note_off_c, 6, 48, 64
8, 435900, Note_on_c, 6, 48, 99
8, 435960, Note_off_c, 6, 48, 64
8, 435960, Note_on_c, 6, 48, 101
8, 436020, Note_off_c, 6, 48, 64
8, 436020, Note_on_c, 6, 48, 101
8, 436080, Note_off_c, 6, 48, 64
8, 436080, Note_on_c, 6, 48, 99
8, 436140, Note_off_c, 6, 48, 64
8, 436140, Note_on_c, 6, 48, 98
8, 436200, Note_off_c, 6, 48, 64
8, 436200, Note_on_c, 6, 48, 99
8, 436260, Note_off_c, 6, 48, 64
8, 436260, Note_on_c, 6, 48, 101
8, 436320, Note_off_c, 6, 48, 64
8, 436320, Note_on_c, 6, 48, 99
8, 436380, Note_off_c, 6, 48, 64
8, 436380, Note_on_c, 6, 48, 99
8, 436440, Note_off_c, 6, 48, 64
8, 436440, Note_on_c, 6, 48, 99
8, 436500, Note_off_c, 6, 48, 64
8, 436500, Note_on_c, 6, 48, 99
8, 436560, Note_off_c, 6, 48, 64
8, 436560, Note_on_c, 6, 48, 99
8, 436620, Note_off_c, 6, 48, 64
8, 436620, Note_on_c, 6, 48, 99
8, 436680, Note_off_c, 6, 48, 64
8, 436680, Note_on_c, 6, 48, 98
8, 436740, Note_off_c, 6, 48, 64
8, 436740, Note_on_c, 6, 48, 99
8, 436800, Note_off_c, 6, 48, 64
8, 436800, Note_on_c, 6, 48, 99
8, 437040, Note_off_c, 6, 48, 64
8, 437760, Note_on_c, 6, 43, 112
8, 438000, Note_off_c, 6, 43, 64
8, 438720, Note_on_c, 6, 48, 127
8, 438780, Note_off_c, 6, 48, 64
8, 438780, Note_on_c, 6, 48, 119
8, 438840, Note_off_c, 6, 48, 64
8, 438840, Note_on_c, 6, 48, 112
8, 438900, Note_off_c, 6, 48, 64
8, 438900, Note_on_c, 6, 48, 112
8, 438960, Note_off_c, 6, 48, 64
8, 438960, Note_on_c, 6, 48, 115
8, 439020, Note_off_c, 6, 48, 64
8, 439020, Note_on_c, 6, 48, 115
8, 439080, Note_off_c, 6, 48, 64
8, 439080, Note_on_c, 6, 48, 112
8, 439140, Note_off_c, 6, 48, 64
8, 439140, Note_on_c, 6, 48, 115
8, 439200, Note_off_c, 6, 48, 64
8, 439200, Note_on_c, 6, 48, 115
8, 439260, Note_off_c, 6, 48, 64
8, 439260, Note_on_c, 6, 48, 112
8, 439320, Note_off_c, 6, 48, 64
8, 439320, Note_on_c, 6, 48, 112
8, 439380, Note_off_c, 6, 48, 64
8, 439380, Note_on_c, 6, 48, 115
8, 439440, Note_off_c, 6, 48, 64
8, 439440, Note_on_c, 6, 48, 112
8, 439500, Note_off_c, 6, 48, 64
8, 439500, Note_on_c, 6, 48, 115
8, 439560, Note_off_c, 6, 48, 64
8, 439560, Note_on_c, 6, 48, 112
8, 439620, Note_off_c, 6, 48, 64
8, 439620, Note_on_c, 6, 48, 115
8, 439680, Note_off_c, 6, 48, 64
8, 439680, Note_on_c, 6, 48, 119
8, 439740, Note_off_c, 6, 48, 64
8, 439740, Note_on_c, 6, 48, 115
8, 439800, Note_off_c, 6, 48, 64
8, 439800, Note_on_c, 6, 48, 112
8, 439860, Note_off_c, 6, 48, 64
8, 439860, Note_on_c, 6, 48, 115
8, 439920, Note_off_c, 6, 48, 64
8, 439920, Note_on_c, 6, 48, 112
8, 439980, Note_off_c, 6, 48, 64
8, 439980, Note_on_c, 6, 48, 115
8, 440040, Note_off_c, 6, 48, 64
8, 440040, Note_on_c, 6, 48, 115
8, 440100, Note_off_c, 6, 48, 64
8, 440100, Note_on_c, 6, 48, 112
8, 440160, Note_off_c, 6, 48, 64
8, 440160, Note_on_c, 6, 48, 115
8, 440220, Note_off_c, 6, 48, 64
8, 440220, Note_on_c, 6, 48, 117
8, 440280, Note_off_c, 6, 48, 64
8, 440280, Note_on_c, 6, 48, 112
8, 440340, Note_off_c, 6, 48, 64
8, 440340, Note_on_c, 6, 48, 115
8, 440400, Note_off_c, 6, 48, 64
8, 440400, Note_on_c, 6, 48, 112
8, 440460, Note_off_c, 6, 48, 64
8, 440460, Note_on_c, 6, 48, 112
8, 440520, Note_off_c, 6, 48, 64
8, 440520, Note_on_c, 6, 48, 119
8, 440580, Note_off_c, 6, 48, 64
8, 440580, Note_on_c, 6, 48, 112
8, 440640, Note_off_c, 6, 48, 64
8, 440640, Note_on_c, 6, 48, 125
8, 440700, Note_off_c, 6, 48, 64
8, 440700, Note_on_c, 6, 48, 119
8, 440760, Note_off_c, 6, 48, 64
8, 440760, Note_on_c, 6, 48, 112
8, 440820, Note_off_c, 6, 48, 64
8, 440820, Note_on_c, 6, 48, 115
8, 440880, Note_off_c, 6, 48, 64
8, 440880, Note_on_c, 6, 48, 107
8, 440940, Note_off_c, 6, 48, 64
8, 440940, Note_on_c, 6, 48, 112
8, 441000, Note_off_c, 6, 48, 64
8, 441000, Note_on_c, 6, 48, 112
8, 441060, Note_off_c, 6, 48, 64
8, 441060, Note_on_c, 6, 48, 112
8, 441120, Note_off_c, 6, 48, 64
8, 441120, Note_on_c, 6, 48, 115
8, 441180, Note_off_c, 6, 48, 64
8, 441180, Note_on_c, 6, 48, 115
8, 441240, Note_off_c, 6, 48, 64
8, 441240, Note_on_c, 6, 48, 112
8, 441300, Note_off_c, 6, 48, 64
8, 441300, Note_on_c, 6, 48, 115
8, 441360, Note_off_c, 6, 48, 64
8, 441360, Note_on_c, 6, 48, 110
8, 441420, Note_off_c, 6, 48, 64
8, 441420, Note_on_c, 6, 48, 115
8, 441480, Note_off_c, 6, 48, 64
8, 441480, Note_on_c, 6, 48, 115
8, 441540, Note_off_c, 6, 48, 64
8, 441540, Note_on_c, 6, 48, 112
8, 441600, Note_off_c, 6, 48, 64
8, 441600, Note_on_c, 6, 48, 115
8, 441660, Note_off_c, 6, 48, 64
8, 441660, Note_on_c, 6, 48, 115
8, 441720, Note_off_c, 6, 48, 64
8, 441720, Note_on_c, 6, 48, 117
8, 441780, Note_off_c, 6, 48, 64
8, 441780, Note_on_c, 6, 48, 117
8, 441840, Note_off_c, 6, 48, 64
8, 441840, Note_on_c, 6, 48, 115
8, 441900, Note_off_c, 6, 48, 64
8, 441900, Note_on_c, 6, 48, 117
8, 441960, Note_off_c, 6, 48, 64
8, 441960, Note_on_c, 6, 48, 112
8, 442020, Note_off_c, 6, 48, 64
8, 442020, Note_on_c, 6, 48, 112
8, 442080, Note_off_c, 6, 48, 64
8, 442080, Note_on_c, 6, 48, 115
8, 442140, Note_off_c, 6, 48, 64
8, 442140, Note_on_c, 6, 48, 112
8, 442200, Note_off_c, 6, 48, 64
8, 442200, Note_on_c, 6, 48, 115
8, 442260, Note_off_c, 6, 48, 64
8, 442260, Note_on_c, 6, 48, 115
8, 442320, Note_off_c, 6, 48, 64
8, 442320, Note_on_c, 6, 48, 115
8, 442380, Note_off_c, 6, 48, 64
8, 442380, Note_on_c, 6, 48, 115
8, 442440, Note_off_c, 6, 48, 64
8, 442440, Note_on_c, 6, 48, 117
8, 442500, Note_off_c, 6, 48, 64
8, 442500, Note_on_c, 6, 48, 119
8, 442560, Note_off_c, 6, 48, 64
8, 442560, Note_on_c, 6, 48, 127
8, 442620, Note_off_c, 6, 48, 64
8, 442620, Note_on_c, 6, 48, 127
8, 442680, Note_off_c, 6, 48, 64
8, 442680, Note_on_c, 6, 48, 125
8, 442740, Note_off_c, 6, 48, 64
8, 442740, Note_on_c, 6, 48, 119
8, 442800, Note_off_c, 6, 48, 64
8, 442800, Note_on_c, 6, 48, 119
8, 442860, Note_off_c, 6, 48, 64
8, 442860, Note_on_c, 6, 48, 119
8, 442920, Note_off_c, 6, 48, 64
8, 442920, Note_on_c, 6, 48, 119
8, 442980, Note_off_c, 6, 48, 64
8, 442980, Note_on_c, 6, 48, 123
8, 443040, Note_off_c, 6, 48, 64
8, 443040, Note_on_c, 6, 48, 119
8, 443100, Note_off_c, 6, 48, 64
8, 443100, Note_on_c, 6, 48, 117
8, 443160, Note_off_c, 6, 48, 64
8, 443160, Note_on_c, 6, 48, 119
8, 443220, Note_off_c, 6, 48, 64
8, 443220, Note_on_c, 6, 48, 119
8, 443280, Note_off_c, 6, 48, 64
8, 443280, Note_on_c, 6, 48, 119
8, 443340, Note_off_c, 6, 48, 64
8, 443340, Note_on_c, 6, 48, 115
8, 443400, Note_off_c, 6, 48, 64
8, 443400, Note_on_c, 6, 48, 119
8, 443460, Note_off_c, 6, 48, 64
8, 443460, Note_on_c, 6, 48, 119
8, 443520, Note_off_c, 6, 48, 64
8, 443520, Note_on_c, 6, 48, 119
8, 443580, Note_off_c, 6, 48, 64
8, 443580, Note_on_c, 6, 48, 119
8, 443640, Note_off_c, 6, 48, 64
8, 443640, Note_on_c, 6, 48, 119
8, 443700, Note_off_c, 6, 48, 64
8, 443700, Note_on_c, 6, 48, 115
8, 443760, Note_off_c, 6, 48, 64
8, 443760, Note_on_c, 6, 48, 119
8, 443820, Note_off_c, 6, 48, 64
8, 443820, Note_on_c, 6, 48, 119
8, 443880, Note_off_c, 6, 48, 64
8, 443880, Note_on_c, 6, 48, 119
8, 443940, Note_off_c, 6, 48, 64
8, 443940, Note_on_c, 6, 48, 119
8, 444000, Note_off_c, 6, 48, 64
8, 444000, Note_on_c, 6, 48, 119
8, 444060, Note_off_c, 6, 48, 64
8, 444060, Note_on_c, 6, 48, 119
8, 444120, Note_off_c, 6, 48, 64
8, 444120, Note_on_c, 6, 48, 112
8, 444180, Note_off_c, 6, 48, 64
8, 444180, Note_on_c, 6, 48, 123
8, 444240, Note_off_c, 6, 48, 64
8, 444240, Note_on_c, 6, 48, 123
8, 444300, Note_off_c, 6, 48, 64
8, 444300, Note_on_c, 6, 48, 123
8, 444360, Note_off_c, 6, 48, 64
8, 444360, Note_on_c, 6, 48, 119
8, 444420, Note_off_c, 6, 48, 64
8, 444420, Note_on_c, 6, 48, 123
8, 444480, Note_off_c, 6, 48, 64
8, 444480, Note_on_c, 6, 43, 112
8, 444510, Note_off_c, 6, 43, 64
8, 444510, Note_on_c, 6, 43, 115
8, 444540, Note_off_c, 6, 43, 64
8, 444540, Note_on_c, 6, 43, 112
8, 444570, Note_off_c, 6, 43, 64
8, 444570, Note_on_c, 6, 43, 119
8, 444600, Note_off_c, 6, 43, 64
8, 444600, Note_on_c, 6, 43, 115
8, 444630, Note_off_c, 6, 43, 64
8, 444630, Note_on_c, 6, 43, 112
8, 444660, Note_off_c, 6, 43, 64
8, 444660, Note_on_c, 6, 43, 112
8, 444690, Note_off_c, 6, 43, 64
8, 444690, Note_on_c, 6, 43, 112
8, 444720, Note_off_c, 6, 43, 64
8, 444720, Note_on_c, 6, 43, 117
8, 444750, Note_off_c, 6, 43, 64
8, 444750, Note_on_c, 6, 43, 107
8, 444780, Note_off_c, 6, 43, 64
8, 444780, Note_on_c, 6, 43, 112
8, 444810, Note_off_c, 6, 43, 64
8, 444810, Note_on_c, 6, 43, 107
8, 444840, Note_off_c, 6, 43, 64
8, 444840, Note_on_c, 6, 43, 112
8, 444870, Note_off_c, 6, 43, 64
8, 444870, Note_on_c, 6, 43, 115
8, 444900, Note_off_c, 6, 43, 64
8, 444900, Note_on_c, 6, 43, 112
8, 444930, Note_off_c, 6, 43, 64
8, 444930, Note_on_c, 6, 43, 112
8, 444960, Note_off_c, 6, 43, 64
8, 444960, Note_on_c, 6, 43, 112
8, 444990, Note_off_c, 6, 43, 64
8, 444990, Note_on_c, 6, 43, 112
8, 445020, Note_off_c, 6, 43, 64
8, 445020, Note_on_c, 6, 43, 107
8, 445050, Note_off_c, 6, 43, 64
8, 445050, Note_on_c, 6, 43, 117
8, 445080, Note_off_c, 6, 43, 64
8, 445080, Note_on_c, 6, 43, 112
8, 445110, Note_off_c, 6, 43, 64
8, 445110, Note_on_c, 6, 43, 115
8, 445140, Note_off_c, 6, 43, 64
8, 445140, Note_on_c, 6, 43, 110
8, 445170, Note_off_c, 6, 43, 64
8, 445170, Note_on_c, 6, 43, 112
8, 445200, Note_off_c, 6, 43, 64
8, 445200, Note_on_c, 6, 43, 112
8, 445230, Note_off_c, 6, 43, 64
8, 445230, Note_on_c, 6, 43, 115
8, 445260, Note_off_c, 6, 43, 64
8, 445260, Note_on_c, 6, 43, 112
8, 445290, Note_off_c, 6, 43, 64
8, 445290, Note_on_c, 6, 43, 107
8, 445320, Note_off_c, 6, 43, 64
8, 445320, Note_on_c, 6, 43, 115
8, 445350, Note_off_c, 6, 43, 64
8, 445350, Note_on_c, 6, 43, 107
8, 445380, Note_off_c, 6, 43, 64
8, 445380, Note_on_c, 6, 43, 115
8, 445410, Note_off_c, 6, 43, 64
8, 445410, Note_on_c, 6, 43, 112
8, 445440, Note_off_c, 6, 43, 64
8, 445440, Control_c, 6, 7, 100
8, 445440, Control_c, 6, 10, 44
8, 445440, Control_c, 6, 93, 0
8, 445440, Control_c, 6, 91, 66
8, 445440, Note_on_c, 6, 43, 115
8, 445454, Note_on_c, 6, 43, 112
8, 445456, Note_off_c, 6, 43, 64
8, 445470, Note_off_c, 6, 43, 64
8, 445470, Note_on_c, 6, 43, 112
8, 445484, Note_on_c, 6, 43, 112
8, 445486, Note_off_c, 6, 43, 64
8, 445500, Note_off_c, 6, 43, 64
8, 445500, Note_on_c, 6, 43, 107
8, 445514, Note_on_c, 6, 43, 115
8, 445516, Note_off_c, 6, 43, 64
8, 445530, Note_off_c, 6, 43, 64
8, 445530, Note_on_c, 6, 43, 115
8, 445544, Note_on_c, 6, 43, 112
8, 445546, Note_off_c, 6, 43, 64
8, 445560, Note_off_c, 6, 43, 64
8, 445560, Note_on_c, 6, 43, 112
8, 445574, Note_on_c, 6, 43, 112
8, 445576, Note_off_c, 6, 43, 64
8, 445590, Note_off_c, 6, 43, 64
8, 445590, Note_on_c, 6, 43, 115
8, 445604, Note_on_c, 6, 43, 112
8, 445606, Note_off_c, 6, 43, 64
8, 445620, Note_off_c, 6, 43, 64
8, 445620, Note_on_c, 6, 43, 110
8, 445634, Note_on_c, 6, 43, 110
8, 445636, Note_off_c, 6, 43, 64
8, 445650, Note_off_c, 6, 43, 64
8, 445650, Note_on_c, 6, 43, 105
8, 445664, Note_on_c, 6, 43, 110
8, 445666, Note_off_c, 6, 43, 64
8, 445680, Note_off_c, 6, 43, 64
8, 445680, Note_on_c, 6, 43, 115
8, 445694, Note_on_c, 6, 43, 112
8, 445696, Note_off_c, 6, 43, 64
8, 445710, Note_off_c, 6, 43, 64
8, 445710, Note_on_c, 6, 43, 112
8, 445724, Note_on_c, 6, 43, 110
8, 445726, Note_off_c, 6, 43, 64
8, 445740, Note_off_c, 6, 43, 64
8, 445740, Note_on_c, 6, 43, 112
8, 445754, Note_on_c, 6, 43, 112
8, 445756, Note_off_c, 6, 43, 64
8, 445770, Note_off_c, 6, 43, 64
8, 445770, Note_on_c, 6, 43, 112
8, 445784, Note_on_c, 6, 43, 112
8, 445786, Note_off_c, 6, 43, 64
8, 445800, Note_off_c, 6, 43, 64
8, 445800, Note_on_c, 6, 43, 112
8, 445814, Note_on_c, 6, 43, 112
8, 445816, Note_off_c, 6, 43, 64
8, 445830, Note_off_c, 6, 43, 64
8, 445830, Note_on_c, 6, 43, 112
8, 445844, Note_on_c, 6, 43, 112
8, 445846, Note_off_c, 6, 43, 64
8, 445860, Note_off_c, 6, 43, 64
8, 445860, Note_on_c, 6, 43, 107
8, 445874, Note_on_c, 6, 43, 112
8, 445876, Note_off_c, 6, 43, 64
8, 445890, Note_off_c, 6, 43, 64
8, 445890, Note_on_c, 6, 43, 112
8, 445904, Note_on_c, 6, 43, 115
8, 445906, Note_off_c, 6, 43, 64
8, 445920, Note_off_c, 6, 43, 64
8, 479520, Note_on_c, 6, 48, 127
8, 479760, Note_off_c, 6, 48, 64
8, 484320, Note_on_c, 6, 48, 125
8, 484800, Note_off_c, 6, 48, 64
8, 484800, Note_on_c, 6, 48, 125
8, 484920, Note_off_c, 6, 48, 64
8, 485040, Note_on_c, 6, 48, 123
8, 485160, Note_off_c, 6, 48, 64
8, 485280, Note_on_c, 6, 48, 125
8, 485520, Note_off_c, 6, 48, 64
8, 488160, Note_on_c, 6, 43, 115
8, 488220, Note_off_c, 6, 43, 64
8, 488220, Note_on_c, 6, 43, 117
8, 488280, Note_off_c, 6, 43, 64
8, 488280, Note_on_c, 6, 43, 112
8, 488340, Note_off_c, 6, 43, 64
8, 488340, Note_on_c, 6, 43, 115
8, 488400, Note_off_c, 6, 43, 64
8, 488400, Note_on_c, 6, 43, 112
8, 488460, Note_off_c, 6, 43, 64
8, 488460, Note_on_c, 6, 43, 112
8, 488520, Note_off_c, 6, 43, 64
8, 488520, Note_on_c, 6, 43, 112
8, 488580, Note_off_c, 6, 43, 64
8, 488580, Note_on_c, 6, 43, 115
8, 488640, Note_off_c, 6, 43, 64
8, 488640, Note_on_c, 6, 43, 112
8, 488700, Note_off_c, 6, 43, 64
8, 488700, Note_on_c, 6, 43, 115
8, 488760, Note_off_c, 6, 43, 64
8, 488760, Note_on_c, 6, 43, 112
8, 488820, Note_off_c, 6, 43, 64
8, 488820, Note_on_c, 6, 43, 115
8, 488880, Note_off_c, 6, 43, 64
8, 488880, Note_on_c, 6, 43, 112
8, 488940, Note_off_c, 6, 43, 64
8, 488940, Note_on_c, 6, 43, 112
8, 489000, Note_off_c, 6, 43, 64
8, 489000, Note_on_c, 6, 43, 112
8, 489060, Note_off_c, 6, 43, 64
8, 489060, Note_on_c, 6, 43, 115
8, 489120, Note_off_c, 6, 43, 64
8, 489120, Note_on_c, 6, 43, 119
8, 489360, Note_off_c, 6, 43, 64
8, 489600, Note_on_c, 6, 43, 125
8, 489840, Note_off_c, 6, 43, 64
8, 490080, Note_on_c, 6, 48, 125
8, 490320, Note_off_c, 6, 48, 64
8, 490500, Note_on_c, 6, 48, 125
8, 490560, Note_off_c, 6, 48, 64
8, 490560, Note_on_c, 6, 48, 125
8, 490800, Note_off_c, 6, 48, 64
8, 490980, Note_on_c, 6, 48, 127
8, 491040, Note_off_c, 6, 48, 64
8, 491040, Note_on_c, 6, 48, 125
8, 491280, Note_off_c, 6, 48, 64
8, 491280, End_track
9, 0, Start_track
9, 0, Title_t, "Piano R H"
9, 0, Program_c, 7, 0
9, 0, Control_c, 7, 7, 120
9, 0, Control_c, 7, 10, 64
9, 0, Control_c, 7, 93, 0
9, 0, Control_c, 7, 91, 66
9, 101520, Note_on_c, 7, 67, 80
9, 101760, Note_off_c, 7, 67, 64
9, 101760, Note_on_c, 7, 72, 80
9, 102000, Note_off_c, 7, 72, 64
9, 102000, Note_on_c, 7, 71, 80
9, 102120, Note_off_c, 7, 71, 64
9, 102120, Note_on_c, 7, 72, 80
9, 102240, Note_off_c, 7, 72, 64
9, 102240, Note_on_c, 7, 74, 80
9, 102360, Note_off_c, 7, 74, 64
9, 102360, Note_on_c, 7, 72, 80
9, 102480, Note_off_c, 7, 72, 64
9, 102480, Note_on_c, 7, 76, 80
9, 102600, Note_off_c, 7, 76, 64
9, 102600, Note_on_c, 7, 72, 80
9, 102720, Note_off_c, 7, 72, 64
9, 102720, Note_on_c, 7, 71, 80
9, 102720, Note_on_c, 7, 65, 80
9, 102960, Note_off_c, 7, 65, 64
9, 102960, Note_off_c, 7, 71, 64
9, 103440, Note_on_c, 7, 67, 80
9, 103680, Note_off_c, 7, 67, 64
9, 103680, Note_on_c, 7, 76, 80
9, 103800, Note_off_c, 7, 76, 64
9, 103800, Note_on_c, 7, 74, 80
9, 103920, Note_off_c, 7, 74, 64
9, 103920, Note_on_c, 7, 73, 80
9, 104040, Note_off_c, 7, 73, 64
9, 104040, Note_on_c, 7, 74, 80
9, 104160, Note_off_c, 7, 74, 64
9, 104160, Note_on_c, 7, 76, 80
9, 104280, Note_off_c, 7, 76, 64
9, 104280, Note_on_c, 7, 74, 80
9, 104400, Note_off_c, 7, 74, 64
9, 104400, Note_on_c, 7, 77, 80
9, 104520, Note_off_c, 7, 77, 64
9, 104520, Note_on_c, 7, 74, 80
9, 104640, Note_off_c, 7, 74, 64
9, 104640, Note_on_c, 7, 72, 80
9, 104640, Note_on_c, 7, 67, 80
9, 104880, Note_off_c, 7, 67, 64
9, 104880, Note_off_c, 7, 72, 64
9, 105240, Note_on_c, 7, 67, 94
9, 105300, Note_off_c, 7, 67, 64
9, 105360, Note_on_c, 7, 72, 94
9, 105420, Note_off_c, 7, 72, 64
9, 105480, Note_on_c, 7, 76, 99
9, 105540, Note_off_c, 7, 76, 64
9, 105600, Note_on_c, 7, 79, 80
9, 105780, Note_off_c, 7, 79, 64
9, 105780, Note_on_c, 7, 81, 80
9, 105810, Note_off_c, 7, 81, 64
9, 105810, Note_on_c, 7, 79, 80
9, 105840, Note_off_c, 7, 79, 64
9, 105840, Note_on_c, 7, 78, 80
9, 105960, Note_off_c, 7, 78, 64
9, 105960, Note_on_c, 7, 79, 80
9, 106080, Note_off_c, 7, 79, 64
9, 106080, Note_on_c, 7, 81, 80
9, 106200, Note_off_c, 7, 81, 64
9, 106200, Note_on_c, 7, 79, 80
9, 106320, Note_off_c, 7, 79, 64
9, 106320, Note_on_c, 7, 77, 80
9, 106440, Note_off_c, 7, 77, 64
9, 106440, Note_on_c, 7, 76, 80
9, 106560, Note_off_c, 7, 76, 64
9, 106560, Note_on_c, 7, 74, 98
9, 106680, Note_off_c, 7, 74, 64
9, 106800, Note_on_c, 7, 76, 95
9, 106920, Note_off_c, 7, 76, 64
9, 106920, Note_on_c, 7, 74, 80
9, 106980, Note_off_c, 7, 74, 64
9, 106980, Note_on_c, 7, 76, 80
9, 107040, Note_off_c, 7, 76, 64
9, 107040, Note_on_c, 7, 77, 80
9, 107520, Note_off_c, 7, 77, 64
9, 107760, Note_on_c, 7, 74, 80
9, 108000, Note_off_c, 7, 74, 64
9, 108000, Note_on_c, 7, 69, 80
9, 108240, Note_off_c, 7, 69, 64
9, 108240, Note_on_c, 7, 71, 80
9, 108480, Note_off_c, 7, 71, 64
9, 108480, Note_on_c, 7, 72, 80
9, 108600, Note_off_c, 7, 72, 64
9, 108620, Note_on_c, 7, 67, 80
9, 108640, Note_off_c, 7, 67, 64
9, 108660, Note_on_c, 7, 69, 80
9, 108680, Note_off_c, 7, 69, 64
9, 108700, Note_on_c, 7, 71, 80
9, 108720, Note_off_c, 7, 71, 64
9, 108720, Note_on_c, 7, 72, 80
9, 108840, Note_off_c, 7, 72, 64
9, 108900, Note_on_c, 7, 72, 80
9, 108930, Note_off_c, 7, 72, 64
9, 108930, Note_on_c, 7, 74, 80
9, 108960, Note_off_c, 7, 74, 64
9, 108960, Note_on_c, 7, 76, 80
9, 109080, Note_off_c, 7, 76, 64
9, 109110, Note_on_c, 7, 76, 80
9, 109140, Note_off_c, 7, 76, 64
9, 109140, Note_on_c, 7, 77, 80
9, 109170, Note_off_c, 7, 77, 64
9, 109200, Note_on_c, 7, 79, 80
9, 109320, Note_off_c, 7, 79, 64
9, 109320, Note_on_c, 7, 79, 80
9, 109350, Note_off_c, 7, 79, 64
9, 109350, Note_on_c, 7, 81, 80
9, 109380, Note_off_c, 7, 81, 64
9, 109410, Note_on_c, 7, 83, 80
9, 109440, Note_off_c, 7, 83, 64
9, 109440, Note_on_c, 7, 84, 80
9, 109560, Note_off_c, 7, 84, 64
9, 109590, Note_on_c, 7, 81, 80
9, 109620, Note_off_c, 7, 81, 64
9, 109620, Note_on_c, 7, 84, 80
9, 109650, Note_off_c, 7, 84, 64
9, 109650, Note_on_c, 7, 86, 80
9, 109680, Note_off_c, 7, 86, 64
9, 109680, Note_on_c, 7, 88, 80
9, 109920, Note_off_c, 7, 88, 64
9, 109920, Note_on_c, 7, 88, 80
9, 109980, Note_off_c, 7, 88, 64
9, 109980, Note_on_c, 7, 86, 80
9, 110040, Note_off_c, 7, 86, 64
9, 110040, Note_on_c, 7, 84, 80
9, 110100, Note_off_c, 7, 84, 64
9, 110100, Note_on_c, 7, 83, 80
9, 110160, Note_off_c, 7, 83, 64
9, 110160, Note_on_c, 7, 81, 80
9, 110220, Note_off_c, 7, 81, 64
9, 110220, Note_on_c, 7, 79, 80
9, 110280, Note_off_c, 7, 79, 64
9, 110280, Note_on_c, 7, 77, 80
9, 110340, Note_off_c, 7, 77, 64
9, 110340, Note_on_c, 7, 76, 80
9, 110400, Note_off_c, 7, 76, 64
9, 110400, Note_on_c, 7, 74, 95
9, 110520, Note_off_c, 7, 74, 64
9, 110640, Note_on_c, 7, 76, 104
9, 110760, Note_off_c, 7, 76, 64
9, 110760, Note_on_c, 7, 74, 80
9, 110820, Note_off_c, 7, 74, 64
9, 110820, Note_on_c, 7, 76, 80
9, 110880, Note_off_c, 7, 76, 64
9, 110880, Note_on_c, 7, 77, 123
9, 111600, Note_off_c, 7, 77, 64
9, 111600, Note_on_c, 7, 74, 104
9, 111840, Note_off_c, 7, 74, 64
9, 111840, Note_on_c, 7, 69, 94
9, 112080, Note_off_c, 7, 69, 64
9, 112080, Note_on_c, 7, 71, 94
9, 112320, Note_off_c, 7, 71, 64
9, 112320, Note_on_c, 7, 72, 93
9, 112560, Note_off_c, 7, 72, 64
9, 113280, Note_on_c, 7, 84, 123
9, 113340, Note_off_c, 7, 84, 64
9, 113340, Note_on_c, 7, 79, 112
9, 113400, Note_off_c, 7, 79, 64
9, 113400, Note_on_c, 7, 88, 119
9, 113460, Note_off_c, 7, 88, 64
9, 113460, Note_on_c, 7, 84, 115
9, 113520, Note_off_c, 7, 84, 64
9, 113520, Note_on_c, 7, 79, 110
9, 113580, Note_off_c, 7, 79, 64
9, 113580, Note_on_c, 7, 76, 98
9, 113640, Note_off_c, 7, 76, 64
9, 113640, Note_on_c, 7, 84, 101
9, 113700, Note_off_c, 7, 84, 64
9, 113700, Note_on_c, 7, 79, 104
9, 113760, Note_off_c, 7, 79, 64
9, 113760, Note_on_c, 7, 76, 105
9, 113820, Note_off_c, 7, 76, 64
9, 113820, Note_on_c, 7, 72, 93
9, 113880, Note_off_c, 7, 72, 64
9, 113880, Note_on_c, 7, 79, 99
9, 113940, Note_off_c, 7, 79, 64
9, 113940, Note_on_c, 7, 76, 105
9, 114000, Note_off_c, 7, 76, 64
9, 114000, Note_on_c, 7, 72, 99
9, 114060, Note_off_c, 7, 72, 64
9, 114060, Note_on_c, 7, 67, 101
9, 114120, Note_off_c, 7, 67, 64
9, 114120, Note_on_c, 7, 76, 107
9, 114180, Note_off_c, 7, 76, 64
9, 114180, Note_on_c, 7, 72, 98
9, 114240, Note_off_c, 7, 72, 64
9, 114240, Note_on_c, 7, 67, 104
9, 114300, Note_off_c, 7, 67, 64
9, 114300, Note_on_c, 7, 64, 99
9, 114360, Note_off_c, 7, 64, 64
9, 114360, Note_on_c, 7, 72, 99
9, 114420, Note_off_c, 7, 72, 64
9, 114420, Note_on_c, 7, 67, 104
9, 114480, Note_off_c, 7, 67, 64
9, 114480, Note_on_c, 7, 64, 99
9, 114540, Note_off_c, 7, 64, 64
9, 114540, Note_on_c, 7, 60, 101
9, 114600, Note_off_c, 7, 60, 64
9, 114600, Note_on_c, 7, 67, 101
9, 114660, Note_off_c, 7, 67, 64
9, 114660, Note_on_c, 7, 64, 94
9, 114720, Note_off_c, 7, 64, 64
9, 114720, Note_on_c, 7, 60, 104
9, 114780, Note_off_c, 7, 60, 64
9, 114780, Note_on_c, 7, 55, 104
9, 114840, Note_off_c, 7, 55, 64
9, 114840, Note_on_c, 7, 64, 99
9, 114900, Note_off_c, 7, 64, 64
9, 114900, Note_on_c, 7, 60, 104
9, 114960, Note_off_c, 7, 60, 64
9, 114960, Note_on_c, 7, 55, 104
9, 115020, Note_off_c, 7, 55, 64
9, 115020, Note_on_c, 7, 52, 104
9, 115080, Note_off_c, 7, 52, 64
9, 115080, Note_on_c, 7, 60, 99
9, 115140, Note_off_c, 7, 60, 64
9, 115140, Note_on_c, 7, 55, 104
9, 115200, Note_off_c, 7, 55, 64
9, 115200, Note_on_c, 7, 52, 110
9, 115260, Note_off_c, 7, 52, 64
9, 115260, Note_on_c, 7, 48, 110
9, 115320, Note_off_c, 7, 48, 64
9, 115320, Note_on_c, 7, 55, 95
9, 115380, Note_off_c, 7, 55, 64
9, 115380, Note_on_c, 7, 52, 107
9, 115440, Note_off_c, 7, 52, 64
9, 115440, Note_on_c, 7, 48, 105
9, 115500, Note_off_c, 7, 48, 64
9, 117120, Note_on_c, 7, 86, 115
9, 117180, Note_off_c, 7, 86, 64
9, 117180, Note_on_c, 7, 83, 112
9, 117240, Note_off_c, 7, 83, 64
9, 117240, Note_on_c, 7, 89, 112
9, 117300, Note_off_c, 7, 89, 64
9, 117300, Note_on_c, 7, 86, 117
9, 117360, Note_off_c, 7, 86, 64
9, 117360, Note_on_c, 7, 83, 115
9, 117420, Note_off_c, 7, 83, 64
9, 117420, Note_on_c, 7, 77, 112
9, 117480, Note_off_c, 7, 77, 64
9, 117480, Note_on_c, 7, 86, 117
9, 117540, Note_off_c, 7, 86, 64
9, 117540, Note_on_c, 7, 83, 105
9, 117600, Note_off_c, 7, 83, 64
9, 117600, Note_on_c, 7, 77, 115
9, 117660, Note_off_c, 7, 77, 64
9, 117660, Note_on_c, 7, 74, 117
9, 117720, Note_off_c, 7, 74, 64
9, 117720, Note_on_c, 7, 83, 119
9, 117780, Note_off_c, 7, 83, 64
9, 117780, Note_on_c, 7, 77, 119
9, 117840, Note_off_c, 7, 77, 64
9, 117840, Note_on_c, 7, 74, 117
9, 117900, Note_off_c, 7, 74, 64
9, 117900, Note_on_c, 7, 71, 117
9, 117960, Note_off_c, 7, 71, 64
9, 117960, Note_on_c, 7, 77, 115
9, 118020, Note_off_c, 7, 77, 64
9, 118020, Note_on_c, 7, 74, 119
9, 118080, Note_off_c, 7, 74, 64
9, 118080, Note_on_c, 7, 71, 115
9, 118140, Note_off_c, 7, 71, 64
9, 118140, Note_on_c, 7, 65, 115
9, 118200, Note_off_c, 7, 65, 64
9, 118200, Note_on_c, 7, 74, 119
9, 118260, Note_off_c, 7, 74, 64
9, 118260, Note_on_c, 7, 71, 119
9, 118320, Note_off_c, 7, 71, 64
9, 118320, Note_on_c, 7, 65, 125
9, 118380, Note_off_c, 7, 65, 64
9, 118380, Note_on_c, 7, 62, 112
9, 118440, Note_off_c, 7, 62, 64
9, 118440, Note_on_c, 7, 71, 115
9, 118500, Note_off_c, 7, 71, 64
9, 118500, Note_on_c, 7, 65, 119
9, 118560, Note_off_c, 7, 65, 64
9, 118560, Note_on_c, 7, 62, 112
9, 118620, Note_off_c, 7, 62, 64
9, 118620, Note_on_c, 7, 59, 115
9, 118680, Note_off_c, 7, 59, 64
9, 118680, Note_on_c, 7, 65, 117
9, 118740, Note_off_c, 7, 65, 64
9, 118740, Note_on_c, 7, 62, 112
9, 118800, Note_off_c, 7, 62, 64
9, 118800, Note_on_c, 7, 59, 123
9, 118860, Note_off_c, 7, 59, 64
9, 118860, Note_on_c, 7, 53, 115
9, 118920, Note_off_c, 7, 53, 64
9, 118920, Note_on_c, 7, 62, 107
9, 118980, Note_off_c, 7, 62, 64
9, 118980, Note_on_c, 7, 59, 115
9, 119040, Note_off_c, 7, 59, 64
9, 119040, Note_on_c, 7, 53, 115
9, 119100, Note_off_c, 7, 53, 64
9, 119100, Note_on_c, 7, 50, 119
9, 119160, Note_off_c, 7, 50, 64
9, 119160, Note_on_c, 7, 59, 123
9, 119220, Note_off_c, 7, 59, 64
9, 119220, Note_on_c, 7, 53, 115
9, 119280, Note_off_c, 7, 53, 64
9, 119280, Note_on_c, 7, 50, 119
9, 119340, Note_off_c, 7, 50, 64
9, 119340, Note_on_c, 7, 47, 112
9, 119400, Note_off_c, 7, 47, 64
9, 119400, Note_on_c, 7, 53, 115
9, 119460, Note_off_c, 7, 53, 64
9, 119460, Note_on_c, 7, 50, 117
9, 119520, Note_off_c, 7, 50, 64
9, 120000, Note_on_c, 7, 64, 123
9, 120240, Note_off_c, 7, 64, 64
9, 120450, Note_on_c, 7, 75, 119
9, 120480, Note_off_c, 7, 75, 64
9, 120480, Note_on_c, 7, 76, 123
9, 120600, Note_off_c, 7, 76, 64
9, 120690, Note_on_c, 7, 75, 125
9, 120720, Note_off_c, 7, 75, 64
9, 120720, Note_on_c, 7, 76, 125
9, 120840, Note_off_c, 7, 76, 64
9, 120930, Note_on_c, 7, 75, 127
9, 120960, Note_off_c, 7, 75, 64
9, 120960, Note_on_c, 7, 76, 123
9, 121080, Note_off_c, 7, 76, 64
9, 121320, Note_on_c, 7, 64, 112
9, 121380, Note_off_c, 7, 64, 64
9, 121380, Note_on_c, 7, 66, 117
9, 121440, Note_off_c, 7, 66, 64
9, 121440, Note_on_c, 7, 68, 119
9, 121500, Note_off_c, 7, 68, 64
9, 121500, Note_on_c, 7, 69, 112
9, 121560, Note_off_c, 7, 69, 64
9, 121560, Note_on_c, 7, 71, 104
9, 121620, Note_off_c, 7, 71, 64
9, 121620, Note_on_c, 7, 72, 99
9, 121680, Note_off_c, 7, 72, 64
9, 121680, Note_on_c, 7, 74, 107
9, 121740, Note_off_c, 7, 74, 64
9, 121740, Note_on_c, 7, 76, 107
9, 121800, Note_off_c, 7, 76, 64
9, 121800, Note_on_c, 7, 78, 99
9, 121860, Note_off_c, 7, 78, 64
9, 121860, Note_on_c, 7, 80, 104
9, 121920, Note_off_c, 7, 80, 64
9, 121920, Note_on_c, 7, 81, 112
9, 121980, Note_off_c, 7, 81, 64
9, 121980, Note_on_c, 7, 88, 112
9, 122040, Note_off_c, 7, 88, 64
9, 122040, Note_on_c, 7, 87, 119
9, 122100, Note_off_c, 7, 87, 64
9, 122100, Note_on_c, 7, 88, 115
9, 122160, Note_off_c, 7, 88, 64
9, 122160, Note_on_c, 7, 84, 115
9, 122220, Note_off_c, 7, 84, 64
9, 122220, Note_on_c, 7, 88, 112
9, 122280, Note_off_c, 7, 88, 64
9, 122280, Note_on_c, 7, 83, 115
9, 122340, Note_off_c, 7, 83, 64
9, 122340, Note_on_c, 7, 88, 117
9, 122400, Note_off_c, 7, 88, 64
9, 122400, Note_on_c, 7, 81, 112
9, 122460, Note_off_c, 7, 81, 64
9, 122460, Note_on_c, 7, 88, 112
9, 122520, Note_off_c, 7, 88, 64
9, 122520, Note_on_c, 7, 86, 119
9, 122580, Note_off_c, 7, 86, 64
9, 122580, Note_on_c, 7, 88, 110
9, 122640, Note_off_c, 7, 88, 64
9, 122640, Note_on_c, 7, 84, 117
9, 122700, Note_off_c, 7, 84, 64
9, 122700, Note_on_c, 7, 88, 115
9, 122760, Note_off_c, 7, 88, 64
9, 122760, Note_on_c, 7, 83, 115
9, 122820, Note_off_c, 7, 83, 64
9, 122820, Note_on_c, 7, 88, 119
9, 122880, Note_off_c, 7, 88, 64
9, 122880, Note_on_c, 7, 81, 112
9, 122940, Note_off_c, 7, 81, 64
9, 122940, Note_on_c, 7, 83, 112
9, 123000, Note_off_c, 7, 83, 64
9, 123000, Note_on_c, 7, 84, 117
9, 123060, Note_off_c, 7, 84, 64
9, 123060, Note_on_c, 7, 86, 117
9, 123120, Note_off_c, 7, 86, 64
9, 123120, Note_on_c, 7, 88, 119
9, 123180, Note_off_c, 7, 88, 64
9, 123180, Note_on_c, 7, 86, 105
9, 123240, Note_off_c, 7, 86, 64
9, 123240, Note_on_c, 7, 84, 117
9, 123300, Note_off_c, 7, 84, 64
9, 123300, Note_on_c, 7, 83, 115
9, 123360, Note_off_c, 7, 83, 64
9, 123360, Note_on_c, 7, 81, 112
9, 123420, Note_off_c, 7, 81, 64
9, 123420, Note_on_c, 7, 83, 115
9, 123480, Note_off_c, 7, 83, 64
9, 123480, Note_on_c, 7, 84, 112
9, 123540, Note_off_c, 7, 84, 64
9, 123540, Note_on_c, 7, 83, 112
9, 123600, Note_off_c, 7, 83, 64
9, 123600, Note_on_c, 7, 81, 110
9, 123660, Note_off_c, 7, 81, 64
9, 123660, Note_on_c, 7, 79, 115
9, 123720, Note_off_c, 7, 79, 64
9, 123720, Note_on_c, 7, 78, 115
9, 123780, Note_off_c, 7, 78, 64
9, 123780, Note_on_c, 7, 76, 119
9, 123840, Note_off_c, 7, 76, 64
9, 123840, Note_on_c, 7, 74, 123
9, 124080, Note_off_c, 7, 74, 64
9, 124290, Note_on_c, 7, 85, 125
9, 124320, Note_off_c, 7, 85, 64
9, 124320, Note_on_c, 7, 86, 119
9, 124440, Note_off_c, 7, 86, 64
9, 124530, Note_on_c, 7, 85, 127
9, 124560, Note_off_c, 7, 85, 64
9, 124560, Note_on_c, 7, 86, 119
9, 124680, Note_off_c, 7, 86, 64
9, 124770, Note_on_c, 7, 85, 127
9, 124800, Note_off_c, 7, 85, 64
9, 124800, Note_on_c, 7, 86, 123
9, 124920, Note_off_c, 7, 86, 64
9, 125160, Note_on_c, 7, 62, 112
9, 125220, Note_off_c, 7, 62, 64
9, 125220, Note_on_c, 7, 64, 115
9, 125280, Note_off_c, 7, 64, 64
9, 125280, Note_on_c, 7, 66, 119
9, 125340, Note_off_c, 7, 66, 64
9, 125340, Note_on_c, 7, 67, 110
9, 125400, Note_off_c, 7, 67, 64
9, 125400, Note_on_c, 7, 69, 112
9, 125460, Note_off_c, 7, 69, 64
9, 125460, Note_on_c, 7, 71, 105
9, 125520, Note_off_c, 7, 71, 64
9, 125520, Note_on_c, 7, 72, 105
9, 125580, Note_off_c, 7, 72, 64
9, 125580, Note_on_c, 7, 74, 115
9, 125640, Note_off_c, 7, 74, 64
9, 125640, Note_on_c, 7, 76, 107
9, 125700, Note_off_c, 7, 76, 64
9, 125700, Note_on_c, 7, 78, 123
9, 125760, Note_off_c, 7, 78, 64
9, 125760, Note_on_c, 7, 79, 112
9, 125820, Note_off_c, 7, 79, 64
9, 125820, Note_on_c, 7, 86, 115
9, 125880, Note_off_c, 7, 86, 64
9, 125880, Note_on_c, 7, 85, 117
9, 125940, Note_off_c, 7, 85, 64
9, 125940, Note_on_c, 7, 86, 115
9, 126000, Note_off_c, 7, 86, 64
9, 126000, Note_on_c, 7, 84, 112
9, 126060, Note_off_c, 7, 84, 64
9, 126060, Note_on_c, 7, 86, 119
9, 126120, Note_off_c, 7, 86, 64
9, 126120, Note_on_c, 7, 81, 115
9, 126180, Note_off_c, 7, 81, 64
9, 126180, Note_on_c, 7, 86, 115
9, 126240, Note_off_c, 7, 86, 64
9, 126240, Note_on_c, 7, 79, 115
9, 126300, Note_off_c, 7, 79, 64
9, 126300, Note_on_c, 7, 86, 105
9, 126360, Note_off_c, 7, 86, 64
9, 126360, Note_on_c, 7, 84, 112
9, 126420, Note_off_c, 7, 84, 64
9, 126420, Note_on_c, 7, 86, 119
9, 126480, Note_off_c, 7, 86, 64
9, 126480, Note_on_c, 7, 83, 115
9, 126540, Note_off_c, 7, 83, 64
9, 126540, Note_on_c, 7, 86, 105
9, 126600, Note_off_c, 7, 86, 64
9, 126600, Note_on_c, 7, 81, 119
9, 126660, Note_off_c, 7, 81, 64
9, 126660, Note_on_c, 7, 86, 115
9, 126720, Note_off_c, 7, 86, 64
9, 126720, Note_on_c, 7, 79, 115
9, 126780, Note_off_c, 7, 79, 64
9, 126780, Note_on_c, 7, 81, 115
9, 126840, Note_off_c, 7, 81, 64
9, 126840, Note_on_c, 7, 83, 115
9, 126900, Note_off_c, 7, 83, 64
9, 126900, Note_on_c, 7, 84, 112
9, 126960, Note_off_c, 7, 84, 64
9, 126960, Note_on_c, 7, 86, 117
9, 127020, Note_off_c, 7, 86, 64
9, 127020, Note_on_c, 7, 84, 107
9, 127080, Note_off_c, 7, 84, 64
9, 127080, Note_on_c, 7, 83, 115
9, 127140, Note_off_c, 7, 83, 64
9, 127140, Note_on_c, 7, 81, 112
9, 127200, Note_off_c, 7, 81, 64
9, 127200, Note_on_c, 7, 79, 99
9, 127260, Note_off_c, 7, 79, 64
9, 127260, Note_on_c, 7, 78, 112
9, 127320, Note_off_c, 7, 78, 64
9, 127320, Note_on_c, 7, 76, 105
9, 127380, Note_off_c, 7, 76, 64
9, 127380, Note_on_c, 7, 74, 105
9, 127440, Note_off_c, 7, 74, 64
9, 127440, Note_on_c, 7, 72, 112
9, 127500, Note_off_c, 7, 72, 64
9, 127500, Note_on_c, 7, 71, 104
9, 127560, Note_off_c, 7, 71, 64
9, 127560, Note_on_c, 7, 69, 99
9, 127620, Note_off_c, 7, 69, 64
9, 127620, Note_on_c, 7, 67, 112
9, 127680, Note_off_c, 7, 67, 64
9, 127680, Note_on_c, 7, 66, 123
9, 127800, Note_off_c, 7, 66, 64
9, 127920, Note_on_c, 7, 78, 127
9, 128400, Note_off_c, 7, 78, 64
9, 128400, Note_on_c, 7, 66, 119
9, 128640, Note_off_c, 7, 66, 64
9, 128640, Note_on_c, 7, 67, 115
9, 128700, Note_off_c, 7, 67, 64
9, 128760, Note_on_c, 7, 69, 119
9, 128820, Note_off_c, 7, 69, 64
9, 128880, Note_on_c, 7, 71, 123
9, 128940, Note_off_c, 7, 71, 64
9, 129000, Note_on_c, 7, 72, 123
9, 129060, Note_off_c, 7, 72, 64
9, 129120, Note_on_c, 7, 74, 127
9, 129180, Note_off_c, 7, 74, 64
9, 129240, Note_on_c, 7, 76, 125
9, 129300, Note_off_c, 7, 76, 64
9, 129360, Note_on_c, 7, 78, 125
9, 129420, Note_off_c, 7, 78, 64
9, 129480, Note_on_c, 7, 79, 125
9, 129540, Note_off_c, 7, 79, 64
9, 129600, Note_on_c, 7, 81, 119
9, 129720, Note_off_c, 7, 81, 64
9, 129840, Note_on_c, 7, 84, 125
9, 130320, Note_off_c, 7, 84, 64
9, 130320, Note_on_c, 7, 72, 115
9, 130560, Note_off_c, 7, 72, 64
9, 130560, Note_on_c, 7, 71, 112
9, 130680, Note_off_c, 7, 71, 64
9, 130680, Note_on_c, 7, 72, 99
9, 130800, Note_off_c, 7, 72, 64
9, 130800, Note_on_c, 7, 73, 115
9, 130920, Note_off_c, 7, 73, 64
9, 130920, Note_on_c, 7, 74, 110
9, 131040, Note_off_c, 7, 74, 64
9, 131040, Note_on_c, 7, 72, 107
9, 131160, Note_off_c, 7, 72, 64
9, 131160, Note_on_c, 7, 71, 112
9, 131280, Note_off_c, 7, 71, 64
9, 131280, Note_on_c, 7, 69, 112
9, 131400, Note_off_c, 7, 69, 64
9, 131400, Note_on_c, 7, 67, 117
9, 131520, Note_off_c, 7, 67, 64
9, 131520, Note_on_c, 7, 66, 127
9, 131640, Note_off_c, 7, 66, 64
9, 131760, Note_on_c, 7, 78, 127
9, 132240, Note_off_c, 7, 78, 64
9, 132240, Note_on_c, 7, 66, 123
9, 132480, Note_off_c, 7, 66, 64
9, 132480, Note_on_c, 7, 67, 123
9, 132540, Note_off_c, 7, 67, 64
9, 132600, Note_on_c, 7, 69, 123
9, 132660, Note_off_c, 7, 69, 64
9, 132720, Note_on_c, 7, 70, 125
9, 132780, Note_off_c, 7, 70, 64
9, 132840, Note_on_c, 7, 72, 119
9, 132900, Note_off_c, 7, 72, 64
9, 132960, Note_on_c, 7, 74, 119
9, 133020, Note_off_c, 7, 74, 64
9, 133080, Note_on_c, 7, 76, 125
9, 133140, Note_off_c, 7, 76, 64
9, 133200, Note_on_c, 7, 78, 125
9, 133260, Note_off_c, 7, 78, 64
9, 133320, Note_on_c, 7, 79, 127
9, 133380, Note_off_c, 7, 79, 64
9, 133440, Note_on_c, 7, 80, 127
9, 134160, Note_off_c, 7, 80, 64
9, 134160, Note_on_c, 7, 68, 123
9, 134400, Note_off_c, 7, 68, 64
9, 134400, Note_on_c, 7, 67, 112
9, 134520, Note_off_c, 7, 67, 64
9, 134640, Note_on_c, 7, 79, 125
9, 134880, Note_off_c, 7, 79, 64
9, 134880, Note_on_c, 7, 80, 127
9, 135120, Note_off_c, 7, 80, 64
9, 135120, Note_on_c, 7, 68, 112
9, 135360, Note_off_c, 7, 68, 64
9, 135360, Note_on_c, 7, 67, 112
9, 135480, Note_off_c, 7, 67, 64
9, 135600, Note_on_c, 7, 79, 123
9, 135840, Note_off_c, 7, 79, 64
9, 135840, Note_on_c, 7, 80, 127
9, 136080, Note_off_c, 7, 80, 64
9, 136080, Note_on_c, 7, 68, 119
9, 136320, Note_off_c, 7, 68, 64
9, 136320, Note_on_c, 7, 67, 119
9, 136560, Note_off_c, 7, 67, 64
9, 136560, Note_on_c, 7, 79, 117
9, 136800, Note_off_c, 7, 79, 64
9, 136800, Note_on_c, 7, 63, 123
9, 137040, Note_off_c, 7, 63, 64
9, 137040, Note_on_c, 7, 75, 115
9, 137280, Note_off_c, 7, 75, 64
9, 137280, Note_on_c, 7, 62, 117
9, 137520, Note_off_c, 7, 62, 64
9, 137520, Note_on_c, 7, 74, 117
9, 137760, Note_off_c, 7, 74, 64
9, 137760, Note_on_c, 7, 61, 117
9, 138000, Note_off_c, 7, 61, 64
9, 138000, Note_on_c, 7, 73, 117
9, 138240, Note_off_c, 7, 73, 64
9, 138300, Note_on_c, 7, 74, 117
9, 138360, Note_off_c, 7, 74, 64
9, 138360, Note_on_c, 7, 73, 115
9, 138420, Note_off_c, 7, 73, 64
9, 138420, Note_on_c, 7, 74, 119
9, 138480, Note_off_c, 7, 74, 64
9, 138480, Note_on_c, 7, 75, 119
9, 138540, Note_off_c, 7, 75, 64
9, 138540, Note_on_c, 7, 74, 119
9, 138600, Note_off_c, 7, 74, 64
9, 138600, Note_on_c, 7, 76, 115
9, 138660, Note_off_c, 7, 76, 64
9, 138660, Note_on_c, 7, 74, 119
9, 138720, Note_off_c, 7, 74, 64
9, 138720, Note_on_c, 7, 77, 115
9, 138780, Note_off_c, 7, 77, 64
9, 138780, Note_on_c, 7, 74, 115
9, 138840, Note_off_c, 7, 74, 64
9, 138840, Note_on_c, 7, 78, 119
9, 138900, Note_off_c, 7, 78, 64
9, 138900, Note_on_c, 7, 74, 115
9, 138960, Note_off_c, 7, 74, 64
9, 138960, Note_on_c, 7, 79, 119
9, 139020, Note_off_c, 7, 79, 64
9, 139020, Note_on_c, 7, 74, 115
9, 139080, Note_off_c, 7, 74, 64
9, 139080, Note_on_c, 7, 81, 117
9, 139140, Note_off_c, 7, 81, 64
9, 139140, Note_on_c, 7, 74, 117
9, 139200, Note_off_c, 7, 74, 64
9, 139200, Note_on_c, 7, 82, 115
9, 139260, Note_off_c, 7, 82, 64
9, 139260, Note_on_c, 7, 74, 119
9, 139320, Note_off_c, 7, 74, 64
9, 139320, Note_on_c, 7, 84, 123
9, 139380, Note_off_c, 7, 84, 64
9, 139380, Note_on_c, 7, 74, 123
9, 139440, Note_off_c, 7, 74, 64
9, 139440, Note_on_c, 7, 85, 123
9, 139500, Note_off_c, 7, 85, 64
9, 139500, Note_on_c, 7, 74, 112
9, 139560, Note_off_c, 7, 74, 64
9, 139560, Note_on_c, 7, 86, 119
9, 139620, Note_off_c, 7, 86, 64
9, 139620, Note_on_c, 7, 74, 117
9, 139680, Note_off_c, 7, 74, 64
9, 139680, Note_on_c, 7, 84, 123
9, 139740, Note_off_c, 7, 84, 64
9, 139740, Note_on_c, 7, 74, 123
9, 139800, Note_off_c, 7, 74, 64
9, 139800, Note_on_c, 7, 82, 119
9, 139860, Note_off_c, 7, 82, 64
9, 139860, Note_on_c, 7, 74, 119
9, 139920, Note_off_c, 7, 74, 64
9, 139920, Note_on_c, 7, 81, 123
9, 139980, Note_off_c, 7, 81, 64
9, 139980, Note_on_c, 7, 74, 119
9, 140040, Note_off_c, 7, 74, 64
9, 140040, Note_on_c, 7, 79, 119
9, 140100, Note_off_c, 7, 79, 64
9, 140100, Note_on_c, 7, 74, 123
9, 140160, Note_off_c, 7, 74, 64
9, 140160, Note_on_c, 7, 86, 119
9, 140400, Note_off_c, 7, 86, 64
9, 140760, Note_on_c, 7, 87, 123
9, 140760, Note_on_c, 7, 75, 123
9, 140820, Note_off_c, 7, 75, 64
9, 140820, Note_off_c, 7, 87, 64
9, 140880, Note_on_c, 7, 86, 117
9, 140880, Note_on_c, 7, 74, 119
9, 140940, Note_off_c, 7, 74, 64
9, 140940, Note_off_c, 7, 86, 64
9, 141000, Note_on_c, 7, 84, 119
9, 141000, Note_on_c, 7, 72, 112
9, 141060, Note_off_c, 7, 72, 64
9, 141060, Note_off_c, 7, 84, 64
9, 141120, Note_on_c, 7, 82, 119
9, 141120, Note_on_c, 7, 70, 119
9, 141180, Note_off_c, 7, 70, 64
9, 141180, Note_off_c, 7, 82, 64
9, 141240, Note_on_c, 7, 81, 119
9, 141240, Note_on_c, 7, 69, 125
9, 141300, Note_off_c, 7, 69, 64
9, 141300, Note_off_c, 7, 81, 64
9, 141360, Note_on_c, 7, 79, 123
9, 141360, Note_on_c, 7, 67, 123
9, 141600, Note_off_c, 7, 67, 64
9, 141600, Note_off_c, 7, 79, 64
9, 141720, Note_on_c, 7, 79, 117
9, 141720, Note_on_c, 7, 67, 112
9, 141780, Note_off_c, 7, 67, 64
9, 141780, Note_off_c, 7, 79, 64
9, 141840, Note_on_c, 7, 81, 112
9, 141840, Note_on_c, 7, 69, 115
9, 141900, Note_off_c, 7, 69, 64
9, 141900, Note_off_c, 7, 81, 64
9, 141960, Note_on_c, 7, 82, 125
9, 141960, Note_on_c, 7, 70, 125
9, 142020, Note_off_c, 7, 70, 64
9, 142020, Note_off_c, 7, 82, 64
9, 142080, Note_on_c, 7, 81, 119
9, 142140, Note_off_c, 7, 81, 64
9, 142140, Note_on_c, 7, 74, 119
9, 142200, Note_off_c, 7, 74, 64
9, 142200, Note_on_c, 7, 73, 112
9, 142260, Note_off_c, 7, 73, 64
9, 142260, Note_on_c, 7, 74, 119
9, 142320, Note_off_c, 7, 74, 64
9, 142320, Note_on_c, 7, 75, 119
9, 142380, Note_off_c, 7, 75, 64
9, 142380, Note_on_c, 7, 74, 115
9, 142440, Note_off_c, 7, 74, 64
9, 142440, Note_on_c, 7, 76, 119
9, 142500, Note_off_c, 7, 76, 64
9, 142500, Note_on_c, 7, 74, 119
9, 142560, Note_off_c, 7, 74, 64
9, 142560, Note_on_c, 7, 77, 115
9, 142620, Note_off_c, 7, 77, 64
9, 142620, Note_on_c, 7, 74, 115
9, 142680, Note_off_c, 7, 74, 64
9, 142680, Note_on_c, 7, 78, 119
9, 142740, Note_off_c, 7, 78, 64
9, 142740, Note_on_c, 7, 74, 112
9, 142800, Note_off_c, 7, 74, 64
9, 142800, Note_on_c, 7, 79, 117
9, 142860, Note_off_c, 7, 79, 64
9, 142860, Note_on_c, 7, 74, 119
9, 142920, Note_off_c, 7, 74, 64
9, 142920, Note_on_c, 7, 81, 119
9, 142980, Note_off_c, 7, 81, 64
9, 142980, Note_on_c, 7, 74, 119
9, 143040, Note_off_c, 7, 74, 64
9, 143040, Note_on_c, 7, 82, 123
9, 143100, Note_off_c, 7, 82, 64
9, 143100, Note_on_c, 7, 74, 112
9, 143160, Note_off_c, 7, 74, 64
9, 143160, Note_on_c, 7, 84, 115
9, 143220, Note_off_c, 7, 84, 64
9, 143220, Note_on_c, 7, 74, 110
9, 143280, Note_off_c, 7, 74, 64
9, 143280, Note_on_c, 7, 85, 119
9, 143340, Note_off_c, 7, 85, 64
9, 143340, Note_on_c, 7, 74, 105
9, 143400, Note_off_c, 7, 74, 64
9, 143400, Note_on_c, 7, 86, 115
9, 143460, Note_off_c, 7, 86, 64
9, 143460, Note_on_c, 7, 74, 115
9, 143520, Note_off_c, 7, 74, 64
9, 143520, Note_on_c, 7, 84, 112
9, 143580, Note_off_c, 7, 84, 64
9, 143580, Note_on_c, 7, 74, 115
9, 143640, Note_off_c, 7, 74, 64
9, 143640, Note_on_c, 7, 82, 119
9, 143700, Note_off_c, 7, 82, 64
9, 143700, Note_on_c, 7, 74, 112
9, 143760, Note_off_c, 7, 74, 64
9, 143760, Note_on_c, 7, 81, 115
9, 143820, Note_off_c, 7, 81, 64
9, 143820, Note_on_c, 7, 74, 119
9, 143880, Note_off_c, 7, 74, 64
9, 143880, Note_on_c, 7, 79, 112
9, 143940, Note_off_c, 7, 79, 64
9, 143940, Note_on_c, 7, 74, 117
9, 144000, Note_off_c, 7, 74, 64
9, 144000, Note_on_c, 7, 86, 119
9, 144060, Note_off_c, 7, 86, 64
9, 144060, Note_on_c, 7, 74, 119
9, 144120, Note_off_c, 7, 74, 64
9, 144120, Note_on_c, 7, 86, 123
9, 144180, Note_off_c, 7, 86, 64
9, 144180, Note_on_c, 7, 74, 119
9, 144240, Note_off_c, 7, 74, 64
9, 144240, Note_on_c, 7, 87, 119
9, 144300, Note_off_c, 7, 87, 64
9, 144300, Note_on_c, 7, 74, 115
9, 144360, Note_off_c, 7, 74, 64
9, 144360, Note_on_c, 7, 85, 119
9, 144420, Note_off_c, 7, 85, 64
9, 144420, Note_on_c, 7, 74, 119
9, 144480, Note_off_c, 7, 74, 64
9, 144480, Note_on_c, 7, 86, 125
9, 144540, Note_off_c, 7, 86, 64
9, 144540, Note_on_c, 7, 74, 119
9, 144600, Note_off_c, 7, 74, 64
9, 144600, Note_on_c, 7, 86, 119
9, 144660, Note_off_c, 7, 86, 64
9, 144660, Note_on_c, 7, 74, 119
9, 144720, Note_off_c, 7, 74, 64
9, 144720, Note_on_c, 7, 88, 123
9, 144780, Note_off_c, 7, 88, 64
9, 144780, Note_on_c, 7, 74, 117
9, 144840, Note_off_c, 7, 74, 64
9, 144840, Note_on_c, 7, 84, 123
9, 144900, Note_off_c, 7, 84, 64
9, 144900, Note_on_c, 7, 74, 123
9, 144960, Note_off_c, 7, 74, 64
9, 144960, Note_on_c, 7, 86, 125
9, 145020, Note_off_c, 7, 86, 64
9, 145020, Note_on_c, 7, 74, 119
9, 145080, Note_off_c, 7, 74, 64
9, 145080, Note_on_c, 7, 86, 119
9, 145140, Note_off_c, 7, 86, 64
9, 145140, Note_on_c, 7, 74, 117
9, 145200, Note_off_c, 7, 74, 64
9, 145200, Note_on_c, 7, 88, 125
9, 145260, Note_off_c, 7, 88, 64
9, 145260, Note_on_c, 7, 74, 119
9, 145320, Note_off_c, 7, 74, 64
9, 145320, Note_on_c, 7, 85, 119
9, 145380, Note_off_c, 7, 85, 64
9, 145380, Note_on_c, 7, 74, 119
9, 145440, Note_off_c, 7, 74, 64
9, 145440, Note_on_c, 7, 86, 119
9, 145500, Note_off_c, 7, 86, 64
9, 145500, Note_on_c, 7, 74, 119
9, 145560, Note_off_c, 7, 74, 64
9, 145560, Note_on_c, 7, 86, 125
9, 145620, Note_off_c, 7, 86, 64
9, 145620, Note_on_c, 7, 74, 119
9, 145680, Note_off_c, 7, 74, 64
9, 145680, Note_on_c, 7, 88, 119
9, 145740, Note_off_c, 7, 88, 64
9, 145740, Note_on_c, 7, 74, 115
9, 145800, Note_off_c, 7, 74, 64
9, 145800, Note_on_c, 7, 85, 123
9, 145860, Note_off_c, 7, 85, 64
9, 145860, Note_on_c, 7, 74, 119
9, 145920, Note_off_c, 7, 74, 64
9, 145920, Note_on_c, 7, 86, 119
9, 146000, Note_off_c, 7, 86, 64
9, 146000, Note_on_c, 7, 81, 119
9, 146080, Note_off_c, 7, 81, 64
9, 146080, Note_on_c, 7, 78, 119
9, 146160, Note_off_c, 7, 78, 64
9, 146160, Note_on_c, 7, 74, 119
9, 146240, Note_off_c, 7, 74, 64
9, 146240, Note_on_c, 7, 69, 119
9, 146320, Note_off_c, 7, 69, 64
9, 146320, Note_on_c, 7, 66, 123
9, 146400, Note_off_c, 7, 66, 64
9, 146400, Note_on_c, 7, 62, 115
9, 146480, Note_off_c, 7, 62, 64
9, 146480, Note_on_c, 7, 57, 125
9, 146560, Note_off_c, 7, 57, 64
9, 146560, Note_on_c, 7, 54, 123
9, 146640, Note_off_c, 7, 54, 64
9, 154560, Note_on_c, 7, 62, 78
9, 154620, Note_off_c, 7, 62, 64
9, 154620, Note_on_c, 7, 64, 95
9, 154680, Note_off_c, 7, 64, 64
9, 154680, Note_on_c, 7, 66, 80
9, 154740, Note_off_c, 7, 66, 64
9, 154740, Note_on_c, 7, 67, 77
9, 154800, Note_off_c, 7, 67, 64
9, 154800, Note_on_c, 7, 69, 81
9, 154860, Note_off_c, 7, 69, 64
9, 154860, Note_on_c, 7, 71, 94
9, 154920, Note_off_c, 7, 71, 64
9, 154920, Note_on_c, 7, 72, 74
9, 154980, Note_off_c, 7, 72, 64
9, 154980, Note_on_c, 7, 73, 86
9, 155040, Note_off_c, 7, 73, 64
9, 155040, Note_on_c, 7, 74, 86
9, 155100, Note_off_c, 7, 74, 64
9, 155100, Note_on_c, 7, 76, 95
9, 155160, Note_off_c, 7, 76, 64
9, 155160, Note_on_c, 7, 78, 82
9, 155220, Note_off_c, 7, 78, 64
9, 155220, Note_on_c, 7, 79, 89
9, 155280, Note_off_c, 7, 79, 64
9, 155280, Note_on_c, 7, 81, 90
9, 155340, Note_off_c, 7, 81, 64
9, 155340, Note_on_c, 7, 83, 94
9, 155400, Note_off_c, 7, 83, 64
9, 155400, Note_on_c, 7, 84, 89
9, 155460, Note_off_c, 7, 84, 64
9, 155460, Note_on_c, 7, 85, 99
9, 155520, Note_off_c, 7, 85, 64
9, 155520, Note_on_c, 7, 86, 94
9, 156000, Note_off_c, 7, 86, 64
9, 156000, Note_on_c, 7, 85, 68
9, 156120, Note_off_c, 7, 85, 64
9, 156120, Note_on_c, 7, 86, 76
9, 156240, Note_off_c, 7, 86, 64
9, 156240, Note_on_c, 7, 88, 89
9, 156360, Note_off_c, 7, 88, 64
9, 156360, Note_on_c, 7, 86, 84
9, 156480, Note_off_c, 7, 86, 64
9, 156480, Note_on_c, 7, 86, 81
9, 156600, Note_off_c, 7, 86, 64
9, 156600, Note_on_c, 7, 84, 78
9, 156720, Note_off_c, 7, 84, 64
9, 156720, Note_on_c, 7, 83, 81
9, 156840, Note_off_c, 7, 83, 64
9, 156840, Note_on_c, 7, 81, 80
9, 156960, Note_off_c, 7, 81, 64
9, 156960, Note_on_c, 7, 79, 76
9, 157080, Note_off_c, 7, 79, 64
9, 157080, Note_on_c, 7, 78, 84
9, 157200, Note_off_c, 7, 78, 64
9, 157200, Note_on_c, 7, 76, 81
9, 157320, Note_off_c, 7, 76, 64
9, 157320, Note_on_c, 7, 74, 93
9, 157440, Note_off_c, 7, 74, 64
9, 157440, Note_on_c, 7, 79, 94
9, 157680, Note_off_c, 7, 79, 64
9, 157680, Note_on_c, 7, 79, 94
9, 157860, Note_on_c, 7, 81, 85
9, 157890, Note_off_c, 7, 81, 64
9, 157890, Note_on_c, 7, 79, 84
9, 157920, Note_off_c, 7, 79, 64
9, 158010, Note_off_c, 7, 79, 64
9, 158040, Note_on_c, 7, 78, 72
9, 158160, Note_off_c, 7, 78, 64
9, 158160, Note_on_c, 7, 79, 84
9, 158280, Note_off_c, 7, 79, 64
9, 158280, Note_on_c, 7, 83, 84
9, 158400, Note_off_c, 7, 83, 64
9, 158400, Note_on_c, 7, 80, 82
9, 158640, Note_off_c, 7, 80, 64
9, 158640, Note_on_c, 7, 81, 95
9, 158880, Note_off_c, 7, 81, 64
9, 159360, Note_on_c, 7, 83, 80
9, 159840, Note_off_c, 7, 83, 64
9, 159840, Note_on_c, 7, 82, 65
9, 159960, Note_off_c, 7, 82, 64
9, 159960, Note_on_c, 7, 83, 64
9, 160080, Note_off_c, 7, 83, 64
9, 160080, Note_on_c, 7, 84, 84
9, 160200, Note_off_c, 7, 84, 64
9, 160200, Note_on_c, 7, 83, 81
9, 160320, Note_off_c, 7, 83, 64
9, 160320, Note_on_c, 7, 81, 84
9, 160440, Note_off_c, 7, 81, 64
9, 160440, Note_on_c, 7, 79, 76
9, 160560, Note_off_c, 7, 79, 64
9, 160560, Note_on_c, 7, 78, 76
9, 160680, Note_off_c, 7, 78, 64
9, 160680, Note_on_c, 7, 76, 89
9, 160800, Note_off_c, 7, 76, 64
9, 160800, Note_on_c, 7, 75, 81
9, 160920, Note_off_c, 7, 75, 64
9, 160920, Note_on_c, 7, 76, 93
9, 161040, Note_off_c, 7, 76, 64
9, 161040, Note_on_c, 7, 78, 80
9, 161160, Note_off_c, 7, 78, 64
9, 161160, Note_on_c, 7, 79, 67
9, 161280, Note_off_c, 7, 79, 64
9, 161280, Note_on_c, 7, 81, 81
9, 161400, Note_off_c, 7, 81, 64
9, 161400, Note_on_c, 7, 80, 84
9, 161520, Note_off_c, 7, 80, 64
9, 161520, Note_on_c, 7, 81, 89
9, 161640, Note_off_c, 7, 81, 64
9, 161640, Note_on_c, 7, 80, 82
9, 161760, Note_off_c, 7, 80, 64
9, 161760, Note_on_c, 7, 81, 94
9, 161880, Note_off_c, 7, 81, 64
9, 161880, Note_on_c, 7, 80, 72
9, 162000, Note_off_c, 7, 80, 64
9, 162000, Note_on_c, 7, 83, 84
9, 162120, Note_off_c, 7, 83, 64
9, 162120, Note_on_c, 7, 81, 84
9, 162240, Note_off_c, 7, 81, 64
9, 162240, Note_on_c, 7, 79, 90
9, 162360, Note_off_c, 7, 79, 64
9, 162360, Note_on_c, 7, 78, 80
9, 162480, Note_off_c, 7, 78, 64
9, 162480, Note_on_c, 7, 76, 84
9, 162600, Note_off_c, 7, 76, 64
9, 162600, Note_on_c, 7, 74, 90
9, 162720, Note_off_c, 7, 74, 64
9, 162720, Note_on_c, 7, 73, 71
9, 162840, Note_off_c, 7, 73, 64
9, 162840, Note_on_c, 7, 74, 89
9, 162960, Note_off_c, 7, 74, 64
9, 162960, Note_on_c, 7, 76, 89
9, 163080, Note_off_c, 7, 76, 64
9, 163080, Note_on_c, 7, 74, 94
9, 163200, Note_off_c, 7, 74, 64
9, 163200, Note_on_c, 7, 86, 76
9, 163320, Note_off_c, 7, 86, 64
9, 163320, Note_on_c, 7, 85, 76
9, 163440, Note_off_c, 7, 85, 64
9, 163440, Note_on_c, 7, 86, 80
9, 163560, Note_off_c, 7, 86, 64
9, 163560, Note_on_c, 7, 85, 76
9, 163680, Note_off_c, 7, 85, 64
9, 163680, Note_on_c, 7, 86, 86
9, 163800, Note_off_c, 7, 86, 64
9, 163800, Note_on_c, 7, 85, 76
9, 163920, Note_off_c, 7, 85, 64
9, 163920, Note_on_c, 7, 86, 89
9, 164040, Note_off_c, 7, 86, 64
9, 164040, Note_on_c, 7, 85, 74
9, 164160, Note_off_c, 7, 85, 64
9, 164160, Note_on_c, 7, 86, 78
9, 164280, Note_off_c, 7, 86, 64
9, 164280, Note_on_c, 7, 88, 80
9, 164340, Note_off_c, 7, 88, 64
9, 164340, Note_on_c, 7, 86, 89
9, 164400, Note_off_c, 7, 86, 64
9, 164400, Note_on_c, 7, 85, 73
9, 164520, Note_off_c, 7, 85, 64
9, 164520, Note_on_c, 7, 86, 94
9, 164640, Note_off_c, 7, 86, 64
9, 164640, Note_on_c, 7, 90, 84
9, 164760, Note_off_c, 7, 90, 64
9, 164760, Note_on_c, 7, 88, 94
9, 164880, Note_off_c, 7, 88, 64
9, 164880, Note_on_c, 7, 86, 104
9, 165000, Note_off_c, 7, 86, 64
9, 165000, Note_on_c, 7, 84, 89
9, 165120, Note_off_c, 7, 84, 64
9, 165120, Note_on_c, 7, 83, 80
9, 165240, Note_off_c, 7, 83, 64
9, 165240, Note_on_c, 7, 84, 72
9, 165300, Note_off_c, 7, 84, 64
9, 165300, Note_on_c, 7, 83, 74
9, 165360, Note_off_c, 7, 83, 64
9, 165360, Note_on_c, 7, 81, 71
9, 165480, Note_off_c, 7, 81, 64
9, 165480, Note_on_c, 7, 83, 78
9, 165600, Note_off_c, 7, 83, 64
9, 165600, Note_on_c, 7, 86, 74
9, 165720, Note_off_c, 7, 86, 64
9, 165720, Note_on_c, 7, 84, 80
9, 165840, Note_off_c, 7, 84, 64
9, 165840, Note_on_c, 7, 83, 71
9, 165960, Note_off_c, 7, 83, 64
9, 165960, Note_on_c, 7, 81, 86
9, 166080, Note_off_c, 7, 81, 64
9, 166080, Note_on_c, 7, 79, 77
9, 166320, Note_off_c, 7, 79, 64
9, 168060, Note_on_c, 7, 55, 80
9, 168120, Note_off_c, 7, 55, 64
9, 168120, Note_on_c, 7, 56, 85
9, 168180, Note_off_c, 7, 56, 64
9, 168180, Note_on_c, 7, 58, 89
9, 168240, Note_off_c, 7, 58, 64
9, 168240, Note_on_c, 7, 60, 78
9, 168300, Note_off_c, 7, 60, 64
9, 168300, Note_on_c, 7, 62, 89
9, 168360, Note_off_c, 7, 62, 64
9, 168360, Note_on_c, 7, 63, 81
9, 168420, Note_off_c, 7, 63, 64
9, 168420, Note_on_c, 7, 65, 84
9, 168480, Note_off_c, 7, 65, 64
9, 168480, Note_on_c, 7, 67, 77
9, 168540, Note_off_c, 7, 67, 64
9, 168540, Note_on_c, 7, 68, 86
9, 168600, Note_off_c, 7, 68, 64
9, 168600, Note_on_c, 7, 70, 86
9, 168660, Note_off_c, 7, 70, 64
9, 168660, Note_on_c, 7, 72, 72
9, 168720, Note_off_c, 7, 72, 64
9, 168720, Note_on_c, 7, 74, 93
9, 168780, Note_off_c, 7, 74, 64
9, 168780, Note_on_c, 7, 75, 95
9, 168840, Note_off_c, 7, 75, 64
9, 168840, Note_on_c, 7, 77, 89
9, 168900, Note_off_c, 7, 77, 64
9, 168900, Note_on_c, 7, 78, 86
9, 168960, Note_off_c, 7, 78, 64
9, 168960, Note_on_c, 7, 79, 84
9, 169200, Note_off_c, 7, 79, 64
9, 169980, Note_on_c, 7, 63, 80
9, 170040, Note_off_c, 7, 63, 64
9, 170040, Note_on_c, 7, 65, 99
9, 170100, Note_off_c, 7, 65, 64
9, 170100, Note_on_c, 7, 67, 95
9, 170160, Note_off_c, 7, 67, 64
9, 170160, Note_on_c, 7, 68, 73
9, 170220, Note_off_c, 7, 68, 64
9, 170220, Note_on_c, 7, 70, 89
9, 170280, Note_off_c, 7, 70, 64
9, 170280, Note_on_c, 7, 72, 94
9, 170340, Note_off_c, 7, 72, 64
9, 170340, Note_on_c, 7, 74, 99
9, 170400, Note_off_c, 7, 74, 64
9, 170400, Note_on_c, 7, 75, 89
9, 170460, Note_off_c, 7, 75, 64
9, 170460, Note_on_c, 7, 77, 94
9, 170520, Note_off_c, 7, 77, 64
9, 170520, Note_on_c, 7, 79, 94
9, 170580, Note_off_c, 7, 79, 64
9, 170580, Note_on_c, 7, 80, 89
9, 170640, Note_off_c, 7, 80, 64
9, 170640, Note_on_c, 7, 82, 78
9, 170700, Note_off_c, 7, 82, 64
9, 170700, Note_on_c, 7, 84, 99
9, 170760, Note_off_c, 7, 84, 64
9, 170760, Note_on_c, 7, 86, 99
9, 170820, Note_off_c, 7, 86, 64
9, 170820, Note_on_c, 7, 87, 94
9, 170880, Note_off_c, 7, 87, 64
9, 170880, Note_on_c, 7, 86, 93
9, 170940, Note_off_c, 7, 86, 64
9, 170940, Note_on_c, 7, 87, 94
9, 171000, Note_off_c, 7, 87, 64
9, 171000, Note_on_c, 7, 86, 86
9, 171060, Note_off_c, 7, 86, 64
9, 171060, Note_on_c, 7, 87, 86
9, 171120, Note_off_c, 7, 87, 64
9, 171120, Note_on_c, 7, 86, 86
9, 171180, Note_off_c, 7, 86, 64
9, 171180, Note_on_c, 7, 87, 90
9, 171240, Note_off_c, 7, 87, 64
9, 171240, Note_on_c, 7, 86, 89
9, 171300, Note_off_c, 7, 86, 64
9, 171300, Note_on_c, 7, 87, 93
9, 171360, Note_off_c, 7, 87, 64
9, 171360, Note_on_c, 7, 86, 93
9, 171420, Note_off_c, 7, 86, 64
9, 171420, Note_on_c, 7, 87, 93
9, 171480, Note_off_c, 7, 87, 64
9, 171480, Note_on_c, 7, 86, 86
9, 171540, Note_off_c, 7, 86, 64
9, 171540, Note_on_c, 7, 87, 84
9, 171600, Note_off_c, 7, 87, 64
9, 171600, Note_on_c, 7, 86, 93
9, 171660, Note_off_c, 7, 86, 64
9, 171660, Note_on_c, 7, 87, 94
9, 171720, Note_off_c, 7, 87, 64
9, 171720, Note_on_c, 7, 89, 98
9, 171780, Note_off_c, 7, 89, 64
9, 171780, Note_on_c, 7, 87, 89
9, 171840, Note_off_c, 7, 87, 64
9, 171840, Note_on_c, 7, 86, 85
9, 171960, Note_off_c, 7, 86, 64
9, 171960, Note_on_c, 7, 74, 71
9, 172080, Note_off_c, 7, 74, 64
9, 172080, Note_on_c, 7, 79, 89
9, 172200, Note_off_c, 7, 79, 64
9, 172200, Note_on_c, 7, 87, 90
9, 172320, Note_off_c, 7, 87, 64
9, 172320, Note_on_c, 7, 84, 85
9, 172440, Note_off_c, 7, 84, 64
9, 172440, Note_on_c, 7, 72, 77
9, 172560, Note_off_c, 7, 72, 64
9, 172560, Note_on_c, 7, 75, 89
9, 172680, Note_off_c, 7, 75, 64
9, 172680, Note_on_c, 7, 86, 77
9, 172800, Note_off_c, 7, 86, 64
9, 172800, Note_on_c, 7, 82, 93
9, 172920, Note_off_c, 7, 82, 64
9, 172920, Note_on_c, 7, 70, 78
9, 173040, Note_off_c, 7, 70, 64
9, 173040, Note_on_c, 7, 74, 104
9, 173160, Note_off_c, 7, 74, 64
9, 173160, Note_on_c, 7, 84, 86
9, 173280, Note_off_c, 7, 84, 64
9, 173280, Note_on_c, 7, 81, 86
9, 173400, Note_off_c, 7, 81, 64
9, 173400, Note_on_c, 7, 69, 86
9, 173520, Note_off_c, 7, 69, 64
9, 173520, Note_on_c, 7, 74, 99
9, 173640, Note_off_c, 7, 74, 64
9, 173640, Note_on_c, 7, 82, 84
9, 173760, Note_off_c, 7, 82, 64
9, 173760, Note_on_c, 7, 79, 84
9, 174000, Note_off_c, 7, 79, 64
9, 175920, Note_on_c, 7, 74, 84
9, 175980, Note_off_c, 7, 74, 64
9, 175980, Note_on_c, 7, 73, 76
9, 176040, Note_off_c, 7, 73, 64
9, 176040, Note_on_c, 7, 74, 86
9, 176100, Note_off_c, 7, 74, 64
9, 176100, Note_on_c, 7, 73, 80
9, 176160, Note_off_c, 7, 73, 64
9, 176160, Note_on_c, 7, 74, 101
9, 176400, Note_off_c, 7, 74, 64
9, 176400, Note_on_c, 7, 74, 73
9, 176460, Note_off_c, 7, 74, 64
9, 176460, Note_on_c, 7, 73, 80
9, 176520, Note_off_c, 7, 73, 64
9, 176520, Note_on_c, 7, 74, 93
9, 176580, Note_off_c, 7, 74, 64
9, 176580, Note_on_c, 7, 73, 80
9, 176640, Note_off_c, 7, 73, 64
9, 176640, Note_on_c, 7, 74, 86
9, 176760, Note_off_c, 7, 74, 64
9, 176760, Note_on_c, 7, 62, 76
9, 176820, Note_off_c, 7, 62, 64
9, 176820, Note_on_c, 7, 64, 94
9, 176880, Note_off_c, 7, 64, 64
9, 176880, Note_on_c, 7, 66, 85
9, 176940, Note_off_c, 7, 66, 64
9, 176940, Note_on_c, 7, 67, 77
9, 177000, Note_off_c, 7, 67, 64
9, 177000, Note_on_c, 7, 69, 89
9, 177060, Note_off_c, 7, 69, 64
9, 177060, Note_on_c, 7, 71, 86
9, 177120, Note_off_c, 7, 71, 64
9, 177120, Note_on_c, 7, 72, 82
9, 177180, Note_off_c, 7, 72, 64
9, 177180, Note_on_c, 7, 71, 72
9, 177240, Note_off_c, 7, 71, 64
9, 177240, Note_on_c, 7, 69, 81
9, 177300, Note_off_c, 7, 69, 64
9, 177300, Note_on_c, 7, 71, 86
9, 177360, Note_off_c, 7, 71, 64
9, 177360, Note_on_c, 7, 72, 72
9, 177420, Note_off_c, 7, 72, 64
9, 177420, Note_on_c, 7, 74, 90
9, 177480, Note_off_c, 7, 74, 64
9, 177480, Note_on_c, 7, 76, 95
9, 177540, Note_off_c, 7, 76, 64
9, 177540, Note_on_c, 7, 78, 89
9, 177600, Note_off_c, 7, 78, 64
9, 177600, Note_on_c, 7, 79, 90
9, 177660, Note_off_c, 7, 79, 64
9, 177660, Note_on_c, 7, 74, 95
9, 177720, Note_off_c, 7, 74, 64
9, 177720, Note_on_c, 7, 76, 99
9, 177780, Note_off_c, 7, 76, 64
9, 177780, Note_on_c, 7, 74, 94
9, 177840, Note_off_c, 7, 74, 64
9, 177840, Note_on_c, 7, 76, 95
9, 177900, Note_off_c, 7, 76, 64
9, 177900, Note_on_c, 7, 74, 95
9, 177960, Note_off_c, 7, 74, 64
9, 177960, Note_on_c, 7, 76, 95
9, 178020, Note_off_c, 7, 76, 64
9, 178020, Note_on_c, 7, 74, 95
9, 178080, Note_off_c, 7, 74, 64
9, 178080, Note_on_c, 7, 79, 95
9, 178140, Note_off_c, 7, 79, 64
9, 178140, Note_on_c, 7, 74, 95
9, 178200, Note_off_c, 7, 74, 64
9, 178200, Note_on_c, 7, 76, 94
9, 178260, Note_off_c, 7, 76, 64
9, 178260, Note_on_c, 7, 74, 98
9, 178320, Note_off_c, 7, 74, 64
9, 178320, Note_on_c, 7, 81, 86
9, 178380, Note_off_c, 7, 81, 64
9, 178380, Note_on_c, 7, 74, 94
9, 178440, Note_off_c, 7, 74, 64
9, 178440, Note_on_c, 7, 76, 94
9, 178500, Note_off_c, 7, 76, 64
9, 178500, Note_on_c, 7, 74, 99
9, 178560, Note_off_c, 7, 74, 64
9, 178560, Note_on_c, 7, 83, 84
9, 178620, Note_off_c, 7, 83, 64
9, 178620, Note_on_c, 7, 74, 86
9, 178680, Note_off_c, 7, 74, 64
9, 178680, Note_on_c, 7, 73, 71
9, 178740, Note_off_c, 7, 73, 64
9, 178740, Note_on_c, 7, 74, 89
9, 178800, Note_off_c, 7, 74, 64
9, 178800, Note_on_c, 7, 76, 89
9, 178860, Note_off_c, 7, 76, 64
9, 178860, Note_on_c, 7, 74, 89
9, 178920, Note_off_c, 7, 74, 64
9, 178920, Note_on_c, 7, 81, 86
9, 178920, Note_on_c, 7, 76, 89
9, 178980, Note_off_c, 7, 76, 64
9, 178980, Note_off_c, 7, 81, 64
9, 178980, Note_on_c, 7, 74, 89
9, 179040, Note_off_c, 7, 74, 64
9, 179040, Note_on_c, 7, 79, 90
9, 179040, Note_on_c, 7, 76, 94
9, 179100, Note_off_c, 7, 76, 64
9, 179100, Note_off_c, 7, 79, 64
9, 179100, Note_on_c, 7, 74, 81
9, 179160, Note_off_c, 7, 74, 64
9, 179160, Note_on_c, 7, 81, 90
9, 179160, Note_on_c, 7, 78, 85
9, 179220, Note_off_c, 7, 78, 64
9, 179220, Note_off_c, 7, 81, 64
9, 179220, Note_on_c, 7, 74, 84
9, 179280, Note_off_c, 7, 74, 64
9, 179280, Note_on_c, 7, 83, 84
9, 179280, Note_on_c, 7, 79, 99
9, 179340, Note_off_c, 7, 79, 64
9, 179340, Note_off_c, 7, 83, 64
9, 179340, Note_on_c, 7, 74, 93
9, 179400, Note_off_c, 7, 74, 64
9, 179400, Note_on_c, 7, 84, 89
9, 179400, Note_on_c, 7, 81, 99
9, 179460, Note_off_c, 7, 81, 64
9, 179460, Note_off_c, 7, 84, 64
9, 179460, Note_on_c, 7, 74, 89
9, 179520, Note_off_c, 7, 74, 64
9, 179520, Note_on_c, 7, 86, 89
9, 179520, Note_on_c, 7, 83, 90
9, 179580, Note_off_c, 7, 83, 64
9, 179580, Note_off_c, 7, 86, 64
9, 179580, Note_on_c, 7, 74, 94
9, 179640, Note_off_c, 7, 74, 64
9, 179640, Note_on_c, 7, 76, 95
9, 179700, Note_off_c, 7, 76, 64
9, 179700, Note_on_c, 7, 74, 95
9, 179760, Note_off_c, 7, 74, 64
9, 179760, Note_on_c, 7, 86, 90
9, 179760, Note_on_c, 7, 83, 93
9, 179820, Note_off_c, 7, 83, 64
9, 179820, Note_off_c, 7, 86, 64
9, 179820, Note_on_c, 7, 74, 95
9, 179880, Note_off_c, 7, 74, 64
9, 179880, Note_on_c, 7, 76, 90
9, 179940, Note_off_c, 7, 76, 64
9, 179940, Note_on_c, 7, 74, 99
9, 180000, Note_off_c, 7, 74, 64
9, 180000, Note_on_c, 7, 81, 90
9, 180060, Note_off_c, 7, 81, 64
9, 180060, Note_on_c, 7, 74, 95
9, 180120, Note_off_c, 7, 74, 64
9, 180120, Note_on_c, 7, 76, 94
9, 180180, Note_off_c, 7, 76, 64
9, 180180, Note_on_c, 7, 74, 99
9, 180240, Note_off_c, 7, 74, 64
9, 180240, Note_on_c, 7, 81, 94
9, 180300, Note_off_c, 7, 81, 64
9, 180300, Note_on_c, 7, 74, 93
9, 180360, Note_off_c, 7, 74, 64
9, 180360, Note_on_c, 7, 76, 94
9, 180420, Note_off_c, 7, 76, 64
9, 180420, Note_on_c, 7, 74, 99
9, 180480, Note_off_c, 7, 74, 64
9, 180480, Note_on_c, 7, 83, 77
9, 180540, Note_off_c, 7, 83, 64
9, 180540, Note_on_c, 7, 74, 90
9, 180600, Note_off_c, 7, 74, 64
9, 180600, Note_on_c, 7, 73, 78
9, 180660, Note_off_c, 7, 73, 64
9, 180660, Note_on_c, 7, 74, 84
9, 180720, Note_off_c, 7, 74, 64
9, 180720, Note_on_c, 7, 76, 94
9, 180780, Note_off_c, 7, 76, 64
9, 180780, Note_on_c, 7, 74, 84
9, 180840, Note_off_c, 7, 74, 64
9, 180840, Note_on_c, 7, 81, 86
9, 180840, Note_on_c, 7, 76, 94
9, 180900, Note_off_c, 7, 76, 64
9, 180900, Note_off_c, 7, 81, 64
9, 180900, Note_on_c, 7, 74, 89
9, 180960, Note_off_c, 7, 74, 64
9, 180960, Note_on_c, 7, 79, 89
9, 180960, Note_on_c, 7, 76, 94
9, 181020, Note_off_c, 7, 76, 64
9, 181020, Note_off_c, 7, 79, 64
9, 181020, Note_on_c, 7, 74, 93
9, 181080, Note_off_c, 7, 74, 64
9, 181080, Note_on_c, 7, 81, 84
9, 181080, Note_on_c, 7, 78, 84
9, 181140, Note_off_c, 7, 78, 64
9, 181140, Note_off_c, 7, 81, 64
9, 181140, Note_on_c, 7, 74, 94
9, 181200, Note_off_c, 7, 74, 64
9, 181200, Note_on_c, 7, 83, 86
9, 181200, Note_on_c, 7, 79, 95
9, 181260, Note_off_c, 7, 79, 64
9, 181260, Note_off_c, 7, 83, 64
9, 181260, Note_on_c, 7, 74, 74
9, 181320, Note_off_c, 7, 74, 64
9, 181320, Note_on_c, 7, 84, 86
9, 181320, Note_on_c, 7, 81, 99
9, 181380, Note_off_c, 7, 81, 64
9, 181380, Note_off_c, 7, 84, 64
9, 181380, Note_on_c, 7, 74, 90
9, 181440, Note_off_c, 7, 74, 64
9, 181440, Note_on_c, 7, 86, 84
9, 181440, Note_on_c, 7, 83, 93
9, 181500, Note_off_c, 7, 83, 64
9, 181500, Note_off_c, 7, 86, 64
9, 181500, Note_on_c, 7, 74, 90
9, 181560, Note_off_c, 7, 74, 64
9, 181560, Note_on_c, 7, 76, 95
9, 181620, Note_off_c, 7, 76, 64
9, 181620, Note_on_c, 7, 74, 94
9, 181680, Note_off_c, 7, 74, 64
9, 181680, Note_on_c, 7, 86, 73
9, 181680, Note_on_c, 7, 83, 94
9, 181740, Note_off_c, 7, 83, 64
9, 181740, Note_off_c, 7, 86, 64
9, 181740, Note_on_c, 7, 74, 93
9, 181800, Note_off_c, 7, 74, 64
9, 181800, Note_on_c, 7, 76, 93
9, 181860, Note_off_c, 7, 76, 64
9, 181860, Note_on_c, 7, 74, 85
9, 181920, Note_off_c, 7, 74, 64
9, 181920, Note_on_c, 7, 81, 86
9, 181980, Note_off_c, 7, 81, 64
9, 181980, Note_on_c, 7, 74, 89
9, 182040, Note_off_c, 7, 74, 64
9, 182040, Note_on_c, 7, 76, 95
9, 182100, Note_off_c, 7, 76, 64
9, 182100, Note_on_c, 7, 74, 99
9, 182160, Note_off_c, 7, 74, 64
9, 182160, Note_on_c, 7, 81, 93
9, 182220, Note_off_c, 7, 81, 64
9, 182220, Note_on_c, 7, 74, 95
9, 182280, Note_off_c, 7, 74, 64
9, 182280, Note_on_c, 7, 76, 98
9, 182340, Note_off_c, 7, 76, 64
9, 182340, Note_on_c, 7, 74, 99
9, 182400, Note_off_c, 7, 74, 64
9, 182400, Note_on_c, 7, 79, 89
9, 182400, Note_on_c, 7, 71, 73
9, 182640, Note_off_c, 7, 71, 64
9, 182640, Note_off_c, 7, 79, 64
9, 182640, Note_on_c, 7, 79, 94
9, 182700, Note_off_c, 7, 79, 64
9, 182700, Note_on_c, 7, 83, 86
9, 182760, Note_off_c, 7, 83, 64
9, 182760, Note_on_c, 7, 81, 94
9, 182820, Note_off_c, 7, 81, 64
9, 182820, Note_on_c, 7, 79, 77
9, 182880, Note_off_c, 7, 79, 64
9, 182880, Note_on_c, 7, 78, 84
9, 182940, Note_off_c, 7, 78, 64
9, 182940, Note_on_c, 7, 81, 98
9, 183000, Note_off_c, 7, 81, 64
9, 183000, Note_on_c, 7, 79, 86
9, 183060, Note_off_c, 7, 79, 64
9, 183060, Note_on_c, 7, 78, 86
9, 183120, Note_off_c, 7, 78, 64
9, 183120, Note_on_c, 7, 76, 89
9, 183180, Note_off_c, 7, 76, 64
9, 183180, Note_on_c, 7, 79, 94
9, 183240, Note_off_c, 7, 79, 64
9, 183240, Note_on_c, 7, 78, 84
9, 183300, Note_off_c, 7, 78, 64
9, 183300, Note_on_c, 7, 76, 94
9, 183360, Note_off_c, 7, 76, 64
9, 183360, Note_on_c, 7, 74, 84
9, 183420, Note_off_c, 7, 74, 64
9, 183420, Note_on_c, 7, 78, 90
9, 183480, Note_off_c, 7, 78, 64
9, 183480, Note_on_c, 7, 76, 95
9, 183540, Note_off_c, 7, 76, 64
9, 183540, Note_on_c, 7, 74, 95
9, 183600, Note_off_c, 7, 74, 64
9, 183600, Note_on_c, 7, 72, 82
9, 183660, Note_off_c, 7, 72, 64
9, 183660, Note_on_c, 7, 76, 93
9, 183720, Note_off_c, 7, 76, 64
9, 183720, Note_on_c, 7, 74, 98
9, 183780, Note_off_c, 7, 74, 64
9, 183780, Note_on_c, 7, 72, 84
9, 183840, Note_off_c, 7, 72, 64
9, 183840, Note_on_c, 7, 71, 94
9, 183900, Note_off_c, 7, 71, 64
9, 183900, Note_on_c, 7, 74, 99
9, 183960, Note_off_c, 7, 74, 64
9, 183960, Note_on_c, 7, 72, 89
9, 184020, Note_off_c, 7, 72, 64
9, 184020, Note_on_c, 7, 71, 93
9, 184080, Note_off_c, 7, 71, 64
9, 184080, Note_on_c, 7, 69, 86
9, 184140, Note_off_c, 7, 69, 64
9, 184140, Note_on_c, 7, 72, 93
9, 184200, Note_off_c, 7, 72, 64
9, 184200, Note_on_c, 7, 71, 90
9, 184260, Note_off_c, 7, 71, 64
9, 184260, Note_on_c, 7, 69, 90
9, 184320, Note_off_c, 7, 69, 64
9, 184320, Note_on_c, 7, 67, 89
9, 184560, Note_off_c, 7, 67, 64
9, 184560, Note_on_c, 7, 83, 90
9, 184560, Note_on_c, 7, 79, 82
9, 184620, Note_off_c, 7, 79, 64
9, 184620, Note_off_c, 7, 83, 64
9, 184620, Note_on_c, 7, 86, 86
9, 184680, Note_off_c, 7, 86, 64
9, 184680, Note_on_c, 7, 84, 93
9, 184740, Note_off_c, 7, 84, 64
9, 184740, Note_on_c, 7, 83, 99
9, 184800, Note_off_c, 7, 83, 64
9, 184800, Note_on_c, 7, 81, 107
9, 184800, Note_on_c, 7, 78, 84
9, 184860, Note_off_c, 7, 78, 64
9, 184860, Note_off_c, 7, 81, 64
9, 184860, Note_on_c, 7, 84, 80
9, 184920, Note_off_c, 7, 84, 64
9, 184920, Note_on_c, 7, 83, 94
9, 184980, Note_off_c, 7, 83, 64
9, 184980, Note_on_c, 7, 81, 94
9, 185040, Note_off_c, 7, 81, 64
9, 185040, Note_on_c, 7, 79, 99
9, 185040, Note_on_c, 7, 76, 89
9, 185100, Note_off_c, 7, 76, 64
9, 185100, Note_off_c, 7, 79, 64
9, 185100, Note_on_c, 7, 83, 95
9, 185160, Note_off_c, 7, 83, 64
9, 185160, Note_on_c, 7, 81, 95
9, 185220, Note_off_c, 7, 81, 64
9, 185220, Note_on_c, 7, 79, 85
9, 185280, Note_off_c, 7, 79, 64
9, 185280, Note_on_c, 7, 78, 90
9, 185280, Note_on_c, 7, 74, 90
9, 185340, Note_off_c, 7, 74, 64
9, 185340, Note_off_c, 7, 78, 64
9, 185340, Note_on_c, 7, 81, 86
9, 185400, Note_off_c, 7, 81, 64
9, 185400, Note_on_c, 7, 79, 94
9, 185460, Note_off_c, 7, 79, 64
9, 185460, Note_on_c, 7, 78, 85
9, 185520, Note_off_c, 7, 78, 64
9, 185520, Note_on_c, 7, 76, 98
9, 185520, Note_on_c, 7, 72, 76
9, 185580, Note_off_c, 7, 72, 64
9, 185580, Note_off_c, 7, 76, 64
9, 185580, Note_on_c, 7, 79, 95
9, 185640, Note_off_c, 7, 79, 64
9, 185640, Note_on_c, 7, 78, 80
9, 185700, Note_off_c, 7, 78, 64
9, 185700, Note_on_c, 7, 76, 90
9, 185760, Note_off_c, 7, 76, 64
9, 185760, Note_on_c, 7, 74, 99
9, 185760, Note_on_c, 7, 71, 89
9, 185820, Note_off_c, 7, 71, 64
9, 185820, Note_off_c, 7, 74, 64
9, 185820, Note_on_c, 7, 78, 84
9, 185880, Note_off_c, 7, 78, 64
9, 185880, Note_on_c, 7, 76, 94
9, 185940, Note_off_c, 7, 76, 64
9, 185940, Note_on_c, 7, 74, 104
9, 186000, Note_off_c, 7, 74, 64
9, 186000, Note_on_c, 7, 72, 86
9, 186000, Note_on_c, 7, 69, 84
9, 186060, Note_off_c, 7, 69, 64
9, 186060, Note_off_c, 7, 72, 64
9, 186060, Note_on_c, 7, 76, 95
9, 186120, Note_off_c, 7, 76, 64
9, 186120, Note_on_c, 7, 74, 99
9, 186180, Note_off_c, 7, 74, 64
9, 186180, Note_on_c, 7, 72, 90
9, 186240, Note_off_c, 7, 72, 64
9, 186240, Note_on_c, 7, 71, 80
9, 186240, Note_on_c, 7, 67, 80
9, 186480, Note_off_c, 7, 67, 64
9, 186480, Note_off_c, 7, 71, 64
9, 186960, Note_on_c, 7, 59, 80
9, 187080, Note_off_c, 7, 59, 64
9, 187080, Note_on_c, 7, 71, 80
9, 187200, Note_off_c, 7, 71, 64
9, 187200, Note_on_c, 7, 60, 80
9, 187320, Note_off_c, 7, 60, 64
9, 187320, Note_on_c, 7, 72, 80
9, 187440, Note_off_c, 7, 72, 64
9, 187440, Note_on_c, 7, 62, 80
9, 187560, Note_off_c, 7, 62, 64
9, 187560, Note_on_c, 7, 74, 80
9, 187680, Note_off_c, 7, 74, 64
9, 187680, Note_on_c, 7, 64, 80
9, 187800, Note_off_c, 7, 64, 64
9, 187800, Note_on_c, 7, 76, 80
9, 187920, Note_off_c, 7, 76, 64
9, 187920, Note_on_c, 7, 66, 80
9, 188040, Note_off_c, 7, 66, 64
9, 188040, Note_on_c, 7, 78, 80
9, 188160, Note_off_c, 7, 78, 64
9, 188160, Note_on_c, 7, 79, 80
9, 188400, Note_off_c, 7, 79, 64
9, 188880, Note_on_c, 7, 62, 78
9, 189000, Note_off_c, 7, 62, 64
9, 189000, Note_on_c, 7, 71, 84
9, 189000, Note_on_c, 7, 74, 90
9, 189120, Note_off_c, 7, 74, 64
9, 189120, Note_off_c, 7, 71, 64
9, 189120, Note_on_c, 7, 64, 84
9, 189240, Note_off_c, 7, 64, 64
9, 189240, Note_on_c, 7, 76, 86
9, 189240, Note_on_c, 7, 72, 85
9, 189360, Note_off_c, 7, 72, 64
9, 189360, Note_off_c, 7, 76, 64
9, 189360, Note_on_c, 7, 66, 76
9, 189480, Note_off_c, 7, 66, 64
9, 189480, Note_on_c, 7, 78, 77
9, 189480, Note_on_c, 7, 74, 95
9, 189600, Note_off_c, 7, 74, 64
9, 189600, Note_off_c, 7, 78, 64
9, 189600, Note_on_c, 7, 67, 76
9, 189720, Note_off_c, 7, 67, 64
9, 189720, Note_on_c, 7, 79, 80
9, 189720, Note_on_c, 7, 76, 85
9, 189840, Note_off_c, 7, 76, 64
9, 189840, Note_off_c, 7, 79, 64
9, 189840, Note_on_c, 7, 69, 94
9, 189960, Note_off_c, 7, 69, 64
9, 189960, Note_on_c, 7, 77, 89
9, 189960, Note_on_c, 7, 81, 89
9, 190080, Note_off_c, 7, 81, 64
9, 190080, Note_off_c, 7, 77, 64
9, 190080, Note_on_c, 7, 83, 78
9, 190080, Note_on_c, 7, 79, 86
9, 190080, Note_on_c, 7, 71, 94
9, 190320, Note_off_c, 7, 71, 64
9, 190320, Note_off_c, 7, 79, 64
9, 190320, Note_off_c, 7, 83, 64
9, 190320, Note_on_c, 7, 81, 82
9, 190320, Note_on_c, 7, 78, 70
9, 190320, Note_on_c, 7, 74, 76
9, 190320, Note_on_c, 7, 69, 89
9, 190560, Note_off_c, 7, 69, 64
9, 190560, Note_off_c, 7, 74, 64
9, 190560, Note_off_c, 7, 78, 64
9, 190560, Note_off_c, 7, 81, 64
9, 190560, Note_on_c, 7, 83, 59
9, 190560, Note_on_c, 7, 79, 89
9, 190560, Note_on_c, 7, 74, 81
9, 190560, Note_on_c, 7, 71, 89
9, 190800, Note_off_c, 7, 71, 64
9, 190800, Note_off_c, 7, 74, 64
9, 190800, Note_off_c, 7, 79, 64
9, 190800, Note_off_c, 7, 83, 64
9, 190800, Note_on_c, 7, 69, 94
9, 190800, Note_on_c, 7, 74, 84
9, 190800, Note_on_c, 7, 78, 80
9, 190800, Note_on_c, 7, 81, 90
9, 191040, Note_off_c, 7, 81, 64
9, 191040, Note_off_c, 7, 78, 64
9, 191040, Note_off_c, 7, 74, 64
9, 191040, Note_off_c, 7, 69, 64
9, 191040, Note_on_c, 7, 83, 74
9, 191040, Note_on_c, 7, 79, 94
9, 191040, Note_on_c, 7, 74, 90
9, 191040, Note_on_c, 7, 71, 94
9, 191280, Note_off_c, 7, 71, 64
9, 191280, Note_off_c, 7, 74, 64
9, 191280, Note_off_c, 7, 79, 64
9, 191280, Note_off_c, 7, 83, 64
9, 191280, Note_on_c, 7, 83, 89
9, 191280, Note_on_c, 7, 80, 73
9, 191280, Note_on_c, 7, 76, 76
9, 191280, Note_on_c, 7, 71, 89
9, 191520, Note_off_c, 7, 71, 64
9, 191520, Note_off_c, 7, 76, 64
9, 191520, Note_off_c, 7, 80, 64
9, 191520, Note_off_c, 7, 83, 64
9, 191520, Note_on_c, 7, 84, 81
9, 191520, Note_on_c, 7, 81, 89
9, 191520, Note_on_c, 7, 76, 53
9, 191520, Note_on_c, 7, 72, 80
9, 191760, Note_off_c, 7, 72, 64
9, 191760, Note_off_c, 7, 76, 64
9, 191760, Note_off_c, 7, 81, 64
9, 191760, Note_off_c, 7, 84, 64
9, 191760, Note_on_c, 7, 71, 94
9, 191760, Note_on_c, 7, 76, 80
9, 191760, Note_on_c, 7, 79, 93
9, 191760, Note_on_c, 7, 83, 80
9, 192000, Note_off_c, 7, 83, 64
9, 192000, Note_off_c, 7, 79, 64
9, 192000, Note_off_c, 7, 76, 64
9, 192000, Note_off_c, 7, 71, 64
9, 192000, Note_on_c, 7, 84, 78
9, 192000, Note_on_c, 7, 81, 89
9, 192000, Note_on_c, 7, 76, 84
9, 192000, Note_on_c, 7, 72, 89
9, 192240, Note_off_c, 7, 72, 64
9, 192240, Note_off_c, 7, 76, 64
9, 192240, Note_off_c, 7, 81, 64
9, 192240, Note_off_c, 7, 84, 64
9, 192240, Note_on_c, 7, 86, 84
9, 192240, Note_on_c, 7, 83, 84
9, 192240, Note_on_c, 7, 79, 76
9, 192240, Note_on_c, 7, 74, 95
9, 192480, Note_off_c, 7, 74, 64
9, 192480, Note_off_c, 7, 79, 64
9, 192480, Note_off_c, 7, 83, 64
9, 192480, Note_off_c, 7, 86, 64
9, 192480, Note_on_c, 7, 88, 82
9, 192480, Note_on_c, 7, 84, 89
9, 192480, Note_on_c, 7, 79, 76
9, 192480, Note_on_c, 7, 76, 85
9, 192720, Note_off_c, 7, 76, 64
9, 192720, Note_off_c, 7, 79, 64
9, 192720, Note_off_c, 7, 84, 64
9, 192720, Note_off_c, 7, 88, 64
9, 192720, Note_on_c, 7, 74, 98
9, 192720, Note_on_c, 7, 79, 72
9, 192720, Note_on_c, 7, 83, 82
9, 192720, Note_on_c, 7, 86, 80
9, 192960, Note_off_c, 7, 86, 64
9, 192960, Note_off_c, 7, 83, 64
9, 192960, Note_off_c, 7, 79, 64
9, 192960, Note_off_c, 7, 74, 64
9, 192960, Note_on_c, 7, 88, 84
9, 192960, Note_on_c, 7, 84, 89
9, 192960, Note_on_c, 7, 79, 80
9, 192960, Note_on_c, 7, 76, 93
9, 193200, Note_off_c, 7, 76, 64
9, 193200, Note_off_c, 7, 79, 64
9, 193200, Note_off_c, 7, 84, 64
9, 193200, Note_off_c, 7, 88, 64
9, 193200, Note_on_c, 7, 86, 84
9, 193200, Note_on_c, 7, 83, 89
9, 193200, Note_on_c, 7, 79, 76
9, 193200, Note_on_c, 7, 74, 94
9, 193440, Note_off_c, 7, 74, 64
9, 193440, Note_off_c, 7, 79, 64
9, 193440, Note_off_c, 7, 83, 64
9, 193440, Note_off_c, 7, 86, 64
9, 193440, Note_on_c, 7, 88, 81
9, 193440, Note_on_c, 7, 84, 86
9, 193440, Note_on_c, 7, 79, 71
9, 193440, Note_on_c, 7, 76, 89
9, 193680, Note_off_c, 7, 76, 64
9, 193680, Note_off_c, 7, 79, 64
9, 193680, Note_off_c, 7, 84, 64
9, 193680, Note_off_c, 7, 88, 64
9, 193680, Note_on_c, 7, 74, 80
9, 193680, Note_on_c, 7, 79, 80
9, 193680, Note_on_c, 7, 83, 86
9, 193680, Note_on_c, 7, 86, 94
9, 193920, Note_off_c, 7, 86, 64
9, 193920, Note_off_c, 7, 83, 64
9, 193920, Note_off_c, 7, 79, 64
9, 193920, Note_off_c, 7, 74, 64
9, 193920, Note_on_c, 7, 88, 81
9, 193920, Note_on_c, 7, 84, 89
9, 193920, Note_on_c, 7, 79, 73
9, 193920, Note_on_c, 7, 76, 94
9, 194000, Note_off_c, 7, 76, 64
9, 194000, Note_off_c, 7, 79, 64
9, 194000, Note_off_c, 7, 84, 64
9, 194000, Note_off_c, 7, 88, 64
9, 194000, Note_on_c, 7, 72, 80
9, 194080, Note_off_c, 7, 72, 64
9, 194080, Note_on_c, 7, 74, 95
9, 194160, Note_off_c, 7, 74, 64
9, 194160, Note_on_c, 7, 76, 82
9, 194240, Note_off_c, 7, 76, 64
9, 194240, Note_on_c, 7, 77, 86
9, 194320, Note_off_c, 7, 77, 64
9, 194320, Note_on_c, 7, 78, 85
9, 194400, Note_off_c, 7, 78, 64
9, 194400, Note_on_c, 7, 79, 90
9, 194480, Note_off_c, 7, 79, 64
9, 194480, Note_on_c, 7, 78, 80
9, 194560, Note_off_c, 7, 78, 64
9, 194560, Note_on_c, 7, 81, 93
9, 194640, Note_off_c, 7, 81, 64
9, 194640, Note_on_c, 7, 79, 86
9, 194720, Note_off_c, 7, 79, 64
9, 194720, Note_on_c, 7, 78, 80
9, 194800, Note_off_c, 7, 78, 64
9, 194800, Note_on_c, 7, 76, 94
9, 194880, Note_off_c, 7, 76, 64
9, 194880, Note_on_c, 7, 74, 94
9, 194960, Note_off_c, 7, 74, 64
9, 194960, Note_on_c, 7, 79, 81
9, 195040, Note_off_c, 7, 79, 64
9, 195040, Note_on_c, 7, 78, 80
9, 195120, Note_off_c, 7, 78, 64
9, 195120, Note_on_c, 7, 79, 77
9, 195200, Note_off_c, 7, 79, 64
9, 195200, Note_on_c, 7, 74, 94
9, 195280, Note_off_c, 7, 74, 64
9, 195280, Note_on_c, 7, 71, 81
9, 195360, Note_off_c, 7, 71, 64
9, 195360, Note_on_c, 7, 69, 81
9, 195440, Note_off_c, 7, 69, 64
9, 195440, Note_on_c, 7, 74, 95
9, 195520, Note_off_c, 7, 74, 64
9, 195520, Note_on_c, 7, 73, 73
9, 195600, Note_off_c, 7, 73, 64
9, 195600, Note_on_c, 7, 74, 93
9, 195680, Note_off_c, 7, 74, 64
9, 195680, Note_on_c, 7, 72, 81
9, 195760, Note_off_c, 7, 72, 64
9, 195760, Note_on_c, 7, 69, 86
9, 195840, Note_off_c, 7, 69, 64
9, 195840, Note_on_c, 7, 67, 72
9, 195900, Note_off_c, 7, 67, 64
9, 195900, Note_on_c, 7, 66, 76
9, 195960, Note_off_c, 7, 66, 64
9, 195960, Note_on_c, 7, 67, 81
9, 196020, Note_off_c, 7, 67, 64
9, 196020, Note_on_c, 7, 66, 82
9, 196080, Note_off_c, 7, 66, 64
9, 196080, Note_on_c, 7, 67, 84
9, 196140, Note_off_c, 7, 67, 64
9, 196140, Note_on_c, 7, 71, 80
9, 196200, Note_off_c, 7, 71, 64
9, 196200, Note_on_c, 7, 69, 85
9, 196260, Note_off_c, 7, 69, 64
9, 196260, Note_on_c, 7, 67, 86
9, 196320, Note_off_c, 7, 67, 64
9, 196320, Note_on_c, 7, 66, 86
9, 196380, Note_off_c, 7, 66, 64
9, 196380, Note_on_c, 7, 69, 89
9, 196440, Note_off_c, 7, 69, 64
9, 196440, Note_on_c, 7, 67, 77
9, 196500, Note_off_c, 7, 67, 64
9, 196500, Note_on_c, 7, 66, 77
9, 196560, Note_off_c, 7, 66, 64
9, 196560, Note_on_c, 7, 64, 84
9, 196620, Note_off_c, 7, 64, 64
9, 196620, Note_on_c, 7, 67, 84
9, 196680, Note_off_c, 7, 67, 64
9, 196680, Note_on_c, 7, 66, 77
9, 196740, Note_off_c, 7, 66, 64
9, 196740, Note_on_c, 7, 64, 78
9, 196800, Note_off_c, 7, 64, 64
9, 196800, Note_on_c, 7, 62, 80
9, 196860, Note_off_c, 7, 62, 64
9, 196860, Note_on_c, 7, 66, 81
9, 196920, Note_off_c, 7, 66, 64
9, 196920, Note_on_c, 7, 64, 81
9, 196980, Note_off_c, 7, 64, 64
9, 196980, Note_on_c, 7, 62, 81
9, 197040, Note_off_c, 7, 62, 64
9, 197040, Note_on_c, 7, 60, 73
9, 197100, Note_off_c, 7, 60, 64
9, 197100, Note_on_c, 7, 64, 89
9, 197160, Note_off_c, 7, 64, 64
9, 197160, Note_on_c, 7, 62, 81
9, 197220, Note_off_c, 7, 62, 64
9, 197220, Note_on_c, 7, 60, 84
9, 197280, Note_off_c, 7, 60, 64
9, 197280, Note_on_c, 7, 59, 84
9, 197340, Note_off_c, 7, 59, 64
9, 197340, Note_on_c, 7, 62, 85
9, 197400, Note_off_c, 7, 62, 64
9, 197400, Note_on_c, 7, 60, 80
9, 197460, Note_off_c, 7, 60, 64
9, 197460, Note_on_c, 7, 59, 86
9, 197520, Note_off_c, 7, 59, 64
9, 197520, Note_on_c, 7, 57, 93
9, 197580, Note_off_c, 7, 57, 64
9, 197580, Note_on_c, 7, 60, 89
9, 197640, Note_off_c, 7, 60, 64
9, 197640, Note_on_c, 7, 59, 86
9, 197700, Note_off_c, 7, 59, 64
9, 197700, Note_on_c, 7, 57, 95
9, 197760, Note_off_c, 7, 57, 64
9, 197880, Note_on_c, 7, 71, 76
9, 197940, Note_off_c, 7, 71, 64
9, 197940, Note_on_c, 7, 70, 84
9, 198000, Note_off_c, 7, 70, 64
9, 198000, Note_on_c, 7, 71, 86
9, 198060, Note_off_c, 7, 71, 64
9, 198060, Note_on_c, 7, 74, 72
9, 198120, Note_off_c, 7, 74, 64
9, 198120, Note_on_c, 7, 72, 80
9, 198180, Note_off_c, 7, 72, 64
9, 198180, Note_on_c, 7, 71, 84
9, 198240, Note_off_c, 7, 71, 64
9, 198240, Note_on_c, 7, 69, 82
9, 198300, Note_off_c, 7, 69, 64
9, 198300, Note_on_c, 7, 72, 84
9, 198360, Note_off_c, 7, 72, 64
9, 198360, Note_on_c, 7, 71, 89
9, 198420, Note_off_c, 7, 71, 64
9, 198420, Note_on_c, 7, 69, 90
9, 198480, Note_off_c, 7, 69, 64
9, 198480, Note_on_c, 7, 67, 84
9, 198540, Note_off_c, 7, 67, 64
9, 198540, Note_on_c, 7, 71, 90
9, 198600, Note_off_c, 7, 71, 64
9, 198600, Note_on_c, 7, 69, 94
9, 198660, Note_off_c, 7, 69, 64
9, 198660, Note_on_c, 7, 67, 81
9, 198720, Note_off_c, 7, 67, 64
9, 198720, Note_on_c, 7, 66, 81
9, 198780, Note_off_c, 7, 66, 64
9, 198780, Note_on_c, 7, 69, 93
9, 198840, Note_off_c, 7, 69, 64
9, 198840, Note_on_c, 7, 67, 86
9, 198900, Note_off_c, 7, 67, 64
9, 198900, Note_on_c, 7, 66, 86
9, 198960, Note_off_c, 7, 66, 64
9, 198960, Note_on_c, 7, 64, 89
9, 199020, Note_off_c, 7, 64, 64
9, 199020, Note_on_c, 7, 67, 86
9, 199080, Note_off_c, 7, 67, 64
9, 199080, Note_on_c, 7, 66, 84
9, 199140, Note_off_c, 7, 66, 64
9, 199140, Note_on_c, 7, 64, 89
9, 199200, Note_off_c, 7, 64, 64
9, 199200, Note_on_c, 7, 62, 84
9, 199260, Note_off_c, 7, 62, 64
9, 199260, Note_on_c, 7, 66, 86
9, 199320, Note_off_c, 7, 66, 64
9, 199320, Note_on_c, 7, 64, 85
9, 199380, Note_off_c, 7, 64, 64
9, 199380, Note_on_c, 7, 62, 81
9, 199440, Note_off_c, 7, 62, 64
9, 199440, Note_on_c, 7, 60, 85
9, 199500, Note_off_c, 7, 60, 64
9, 199500, Note_on_c, 7, 64, 89
9, 199560, Note_off_c, 7, 64, 64
9, 199560, Note_on_c, 7, 62, 82
9, 199620, Note_off_c, 7, 62, 64
9, 199620, Note_on_c, 7, 60, 82
9, 199680, Note_off_c, 7, 60, 64
9, 199680, Note_on_c, 7, 59, 93
9, 199800, Note_off_c, 7, 59, 64
9, 199800, Note_on_c, 7, 79, 85
9, 199860, Note_off_c, 7, 79, 64
9, 199860, Note_on_c, 7, 78, 81
9, 199920, Note_off_c, 7, 78, 64
9, 199920, Note_on_c, 7, 79, 89
9, 199980, Note_off_c, 7, 79, 64
9, 199980, Note_on_c, 7, 83, 84
9, 200040, Note_off_c, 7, 83, 64
9, 200040, Note_on_c, 7, 81, 89
9, 200100, Note_off_c, 7, 81, 64
9, 200100, Note_on_c, 7, 79, 81
9, 200160, Note_off_c, 7, 79, 64
9, 200160, Note_on_c, 7, 78, 81
9, 200220, Note_off_c, 7, 78, 64
9, 200220, Note_on_c, 7, 81, 89
9, 200280, Note_off_c, 7, 81, 64
9, 200280, Note_on_c, 7, 79, 82
9, 200340, Note_off_c, 7, 79, 64
9, 200340, Note_on_c, 7, 78, 86
9, 200400, Note_off_c, 7, 78, 64
9, 200400, Note_on_c, 7, 76, 84
9, 200460, Note_off_c, 7, 76, 64
9, 200460, Note_on_c, 7, 79, 89
9, 200520, Note_off_c, 7, 79, 64
9, 200520, Note_on_c, 7, 78, 81
9, 200580, Note_off_c, 7, 78, 64
9, 200580, Note_on_c, 7, 76, 82
9, 200640, Note_off_c, 7, 76, 64
9, 200640, Note_on_c, 7, 74, 93
9, 200700, Note_off_c, 7, 74, 64
9, 200700, Note_on_c, 7, 78, 84
9, 200760, Note_off_c, 7, 78, 64
9, 200760, Note_on_c, 7, 76, 85
9, 200820, Note_off_c, 7, 76, 64
9, 200820, Note_on_c, 7, 74, 89
9, 200880, Note_off_c, 7, 74, 64
9, 200880, Note_on_c, 7, 72, 77
9, 200940, Note_off_c, 7, 72, 64
9, 200940, Note_on_c, 7, 76, 94
9, 201000, Note_off_c, 7, 76, 64
9, 201000, Note_on_c, 7, 74, 86
9, 201060, Note_off_c, 7, 74, 64
9, 201060, Note_on_c, 7, 72, 81
9, 201120, Note_off_c, 7, 72, 64
9, 201120, Note_on_c, 7, 71, 84
9, 201180, Note_off_c, 7, 71, 64
9, 201180, Note_on_c, 7, 74, 89
9, 201240, Note_off_c, 7, 74, 64
9, 201240, Note_on_c, 7, 72, 78
9, 201300, Note_off_c, 7, 72, 64
9, 201300, Note_on_c, 7, 71, 86
9, 201360, Note_off_c, 7, 71, 64
9, 201360, Note_on_c, 7, 69, 81
9, 201420, Note_off_c, 7, 69, 64
9, 201420, Note_on_c, 7, 72, 85
9, 201480, Note_off_c, 7, 72, 64
9, 201480, Note_on_c, 7, 71, 86
9, 201540, Note_off_c, 7, 71, 64
9, 201540, Note_on_c, 7, 69, 85
9, 201600, Note_off_c, 7, 69, 64
9, 201600, Note_on_c, 7, 67, 86
9, 201840, Note_off_c, 7, 67, 64
9, 201840, Note_on_c, 7, 74, 84
9, 201920, Note_off_c, 7, 74, 64
9, 201920, Note_on_c, 7, 73, 82
9, 202000, Note_off_c, 7, 73, 64
9, 202000, Note_on_c, 7, 72, 84
9, 202080, Note_off_c, 7, 72, 64
9, 202080, Note_on_c, 7, 71, 90
9, 202160, Note_off_c, 7, 71, 64
9, 202160, Note_on_c, 7, 69, 82
9, 202240, Note_off_c, 7, 69, 64
9, 202240, Note_on_c, 7, 67, 78
9, 202320, Note_off_c, 7, 67, 64
9, 202320, Note_on_c, 7, 74, 94
9, 202400, Note_off_c, 7, 74, 64
9, 202400, Note_on_c, 7, 73, 84
9, 202480, Note_off_c, 7, 73, 64
9, 202480, Note_on_c, 7, 72, 84
9, 202560, Note_off_c, 7, 72, 64
9, 202560, Note_on_c, 7, 71, 84
9, 202640, Note_off_c, 7, 71, 64
9, 202640, Note_on_c, 7, 69, 80
9, 202720, Note_off_c, 7, 69, 64
9, 202720, Note_on_c, 7, 67, 80
9, 202800, Note_off_c, 7, 67, 64
9, 202800, Note_on_c, 7, 76, 89
9, 202880, Note_off_c, 7, 76, 64
9, 202880, Note_on_c, 7, 75, 81
9, 202960, Note_off_c, 7, 75, 64
9, 202960, Note_on_c, 7, 74, 90
9, 203040, Note_off_c, 7, 74, 64
9, 203040, Note_on_c, 7, 72, 81
9, 203120, Note_off_c, 7, 72, 64
9, 203120, Note_on_c, 7, 71, 84
9, 203200, Note_off_c, 7, 71, 64
9, 203200, Note_on_c, 7, 69, 86
9, 203280, Note_off_c, 7, 69, 64
9, 203280, Note_on_c, 7, 76, 95
9, 203360, Note_off_c, 7, 76, 64
9, 203360, Note_on_c, 7, 75, 77
9, 203440, Note_off_c, 7, 75, 64
9, 203440, Note_on_c, 7, 74, 89
9, 203520, Note_off_c, 7, 74, 64
9, 203520, Note_on_c, 7, 72, 77
9, 203600, Note_off_c, 7, 72, 64
9, 203600, Note_on_c, 7, 71, 76
9, 203680, Note_off_c, 7, 71, 64
9, 203680, Note_on_c, 7, 69, 86
9, 203760, Note_off_c, 7, 69, 64
9, 203760, Note_on_c, 7, 79, 85
9, 203840, Note_off_c, 7, 79, 64
9, 203840, Note_on_c, 7, 78, 71
9, 203920, Note_off_c, 7, 78, 64
9, 203920, Note_on_c, 7, 77, 81
9, 204000, Note_off_c, 7, 77, 64
9, 204000, Note_on_c, 7, 76, 89
9, 204080, Note_off_c, 7, 76, 64
9, 204080, Note_on_c, 7, 74, 84
9, 204160, Note_off_c, 7, 74, 64
9, 204160, Note_on_c, 7, 72, 80
9, 204240, Note_off_c, 7, 72, 64
9, 204240, Note_on_c, 7, 79, 89
9, 204320, Note_off_c, 7, 79, 64
9, 204320, Note_on_c, 7, 78, 81
9, 204400, Note_off_c, 7, 78, 64
9, 204400, Note_on_c, 7, 77, 81
9, 204480, Note_off_c, 7, 77, 64
9, 204480, Note_on_c, 7, 76, 82
9, 204560, Note_off_c, 7, 76, 64
9, 204560, Note_on_c, 7, 74, 82
9, 204640, Note_off_c, 7, 74, 64
9, 204640, Note_on_c, 7, 72, 80
9, 204720, Note_off_c, 7, 72, 64
9, 204720, Note_on_c, 7, 79, 85
9, 204800, Note_off_c, 7, 79, 64
9, 204800, Note_on_c, 7, 78, 76
9, 204880, Note_off_c, 7, 78, 64
9, 204880, Note_on_c, 7, 77, 80
9, 204960, Note_off_c, 7, 77, 64
9, 204960, Note_on_c, 7, 76, 93
9, 205040, Note_off_c, 7, 76, 64
9, 205040, Note_on_c, 7, 74, 84
9, 205120, Note_off_c, 7, 74, 64
9, 205120, Note_on_c, 7, 72, 81
9, 205200, Note_off_c, 7, 72, 64
9, 205200, Note_on_c, 7, 79, 82
9, 205280, Note_off_c, 7, 79, 64
9, 205280, Note_on_c, 7, 78, 71
9, 205360, Note_off_c, 7, 78, 64
9, 205360, Note_on_c, 7, 77, 84
9, 205440, Note_off_c, 7, 77, 64
9, 205440, Note_on_c, 7, 76, 89
9, 205520, Note_off_c, 7, 76, 64
9, 205520, Note_on_c, 7, 77, 86
9, 205600, Note_off_c, 7, 77, 64
9, 205600, Note_on_c, 7, 78, 76
9, 205680, Note_off_c, 7, 78, 64
9, 205680, Note_on_c, 7, 79, 84
9, 205760, Note_off_c, 7, 79, 64
9, 205760, Note_on_c, 7, 80, 86
9, 205840, Note_off_c, 7, 80, 64
9, 205840, Note_on_c, 7, 81, 86
9, 205920, Note_off_c, 7, 81, 64
9, 205920, Note_on_c, 7, 82, 90
9, 206000, Note_off_c, 7, 82, 64
9, 206000, Note_on_c, 7, 83, 80
9, 206080, Note_off_c, 7, 83, 64
9, 206080, Note_on_c, 7, 84, 84
9, 206160, Note_off_c, 7, 84, 64
9, 206160, Note_on_c, 7, 85, 90
9, 206240, Note_off_c, 7, 85, 64
9, 206240, Note_on_c, 7, 86, 89
9, 206320, Note_off_c, 7, 86, 64
9, 206320, Note_on_c, 7, 87, 99
9, 206400, Note_off_c, 7, 87, 64
9, 206400, Note_on_c, 7, 88, 94
9, 206640, Note_off_c, 7, 88, 64
9, 206640, Note_on_c, 7, 88, 95
9, 206880, Note_off_c, 7, 88, 64
9, 206880, Note_on_c, 7, 88, 95
9, 207120, Note_off_c, 7, 88, 64
9, 207120, Note_on_c, 7, 88, 105
9, 207360, Note_off_c, 7, 88, 64
9, 207360, Note_on_c, 7, 88, 84
9, 207360, Note_on_c, 7, 79, 70
9, 207480, Note_off_c, 7, 79, 64
9, 207480, Note_off_c, 7, 88, 64
9, 207480, Note_on_c, 7, 78, 74
9, 207600, Note_off_c, 7, 78, 64
9, 207600, Note_on_c, 7, 79, 73
9, 207720, Note_off_c, 7, 79, 64
9, 207720, Note_on_c, 7, 81, 78
9, 207840, Note_off_c, 7, 81, 64
9, 207840, Note_on_c, 7, 82, 85
9, 207960, Note_off_c, 7, 82, 64
9, 207960, Note_on_c, 7, 81, 89
9, 208080, Note_off_c, 7, 81, 64
9, 208080, Note_on_c, 7, 79, 82
9, 208200, Note_off_c, 7, 79, 64
9, 208200, Note_on_c, 7, 78, 86
9, 208320, Note_off_c, 7, 78, 64
9, 208320, Note_on_c, 7, 86, 63
9, 208320, Note_on_c, 7, 79, 80
9, 208440, Note_off_c, 7, 79, 64
9, 208440, Note_off_c, 7, 86, 64
9, 208440, Note_on_c, 7, 78, 68
9, 208560, Note_off_c, 7, 78, 64
9, 208560, Note_on_c, 7, 79, 84
9, 208680, Note_off_c, 7, 79, 64
9, 208680, Note_on_c, 7, 81, 80
9, 208800, Note_off_c, 7, 81, 64
9, 208800, Note_on_c, 7, 82, 76
9, 208920, Note_off_c, 7, 82, 64
9, 208920, Note_on_c, 7, 81, 82
9, 209040, Note_off_c, 7, 81, 64
9, 209040, Note_on_c, 7, 79, 86
9, 209160, Note_off_c, 7, 79, 64
9, 209160, Note_on_c, 7, 78, 80
9, 209280, Note_off_c, 7, 78, 64
9, 209280, Note_on_c, 7, 85, 73
9, 209280, Note_on_c, 7, 79, 94
9, 209400, Note_off_c, 7, 79, 64
9, 209400, Note_off_c, 7, 85, 64
9, 209400, Note_on_c, 7, 78, 81
9, 209520, Note_off_c, 7, 78, 64
9, 209520, Note_on_c, 7, 79, 90
9, 209640, Note_off_c, 7, 79, 64
9, 209640, Note_on_c, 7, 80, 89
9, 209760, Note_off_c, 7, 80, 64
9, 209760, Note_on_c, 7, 82, 94
9, 209880, Note_off_c, 7, 82, 64
9, 209880, Note_on_c, 7, 75, 77
9, 210000, Note_off_c, 7, 75, 64
9, 210000, Note_on_c, 7, 77, 89
9, 210120, Note_off_c, 7, 77, 64
9, 210120, Note_on_c, 7, 79, 98
9, 210240, Note_off_c, 7, 79, 64
9, 210240, Note_on_c, 7, 84, 76
9, 210240, Note_on_c, 7, 80, 82
9, 210360, Note_off_c, 7, 80, 64
9, 210360, Note_off_c, 7, 84, 64
9, 210360, Note_on_c, 7, 72, 76
9, 210480, Note_off_c, 7, 72, 64
9, 210480, Note_on_c, 7, 80, 94
9, 210600, Note_off_c, 7, 80, 64
9, 210600, Note_on_c, 7, 77, 76
9, 210720, Note_off_c, 7, 77, 64
9, 210720, Note_on_c, 7, 82, 84
9, 210720, Note_on_c, 7, 77, 81
9, 210840, Note_off_c, 7, 77, 64
9, 210840, Note_off_c, 7, 82, 64
9, 210840, Note_on_c, 7, 76, 77
9, 210960, Note_off_c, 7, 76, 64
9, 210960, Note_on_c, 7, 74, 80
9, 211080, Note_off_c, 7, 74, 64
9, 211080, Note_on_c, 7, 76, 94
9, 211200, Note_off_c, 7, 76, 64
9, 211200, Note_on_c, 7, 80, 84
9, 211200, Note_on_c, 7, 77, 95
9, 211320, Note_off_c, 7, 77, 64
9, 211320, Note_off_c, 7, 80, 64
9, 211320, Note_on_c, 7, 68, 84
9, 211440, Note_off_c, 7, 68, 64
9, 211440, Note_on_c, 7, 77, 93
9, 211560, Note_off_c, 7, 77, 64
9, 211560, Note_on_c, 7, 73, 67
9, 211680, Note_off_c, 7, 73, 64
9, 211680, Note_on_c, 7, 78, 72
9, 211680, Note_on_c, 7, 73, 86
9, 211800, Note_off_c, 7, 73, 64
9, 211800, Note_off_c, 7, 78, 64
9, 211800, Note_on_c, 7, 72, 84
9, 211920, Note_off_c, 7, 72, 64
9, 211920, Note_on_c, 7, 70, 74
9, 212040, Note_off_c, 7, 70, 64
9, 212040, Note_on_c, 7, 72, 94
9, 212160, Note_off_c, 7, 72, 64
9, 212160, Note_on_c, 7, 77, 84
9, 212160, Note_on_c, 7, 73, 73
9, 212280, Note_off_c, 7, 73, 64
9, 212280, Note_off_c, 7, 77, 64
9, 212280, Note_on_c, 7, 71, 99
9, 212400, Note_off_c, 7, 71, 64
9, 212400, Note_on_c, 7, 76, 95
9, 212520, Note_off_c, 7, 76, 64
9, 212520, Note_on_c, 7, 70, 80
9, 212640, Note_off_c, 7, 70, 64
9, 212640, Note_on_c, 7, 75, 84
9, 212640, Note_on_c, 7, 71, 99
9, 212760, Note_off_c, 7, 71, 64
9, 212760, Note_off_c, 7, 75, 64
9, 212760, Note_on_c, 7, 69, 84
9, 212880, Note_off_c, 7, 69, 64
9, 212880, Note_on_c, 7, 74, 99
9, 213000, Note_off_c, 7, 74, 64
9, 213000, Note_on_c, 7, 68, 82
9, 213120, Note_off_c, 7, 68, 64
9, 213120, Note_on_c, 7, 73, 68
9, 213120, Note_on_c, 7, 69, 89
9, 213240, Note_off_c, 7, 69, 64
9, 213240, Note_off_c, 7, 73, 64
9, 213240, Note_on_c, 7, 67, 76
9, 213360, Note_off_c, 7, 67, 64
9, 213360, Note_on_c, 7, 72, 74
9, 213480, Note_off_c, 7, 72, 64
9, 213480, Note_on_c, 7, 66, 76
9, 213600, Note_off_c, 7, 66, 64
9, 213600, Note_on_c, 7, 71, 90
9, 213600, Note_on_c, 7, 67, 82
9, 213720, Note_off_c, 7, 67, 64
9, 213720, Note_off_c, 7, 71, 64
9, 213720, Note_on_c, 7, 65, 77
9, 213840, Note_off_c, 7, 65, 64
9, 213840, Note_on_c, 7, 72, 73
9, 213840, Note_on_c, 7, 64, 76
9, 213960, Note_off_c, 7, 64, 64
9, 213960, Note_off_c, 7, 72, 64
9, 213960, Note_on_c, 7, 69, 94
9, 214080, Note_off_c, 7, 69, 64
9, 214080, Note_on_c, 7, 66, 82
9, 214080, Note_on_c, 7, 63, 80
9, 214200, Note_off_c, 7, 63, 64
9, 214200, Note_off_c, 7, 66, 64
9, 214200, Note_on_c, 7, 57, 86
9, 214320, Note_off_c, 7, 57, 64
9, 214320, Note_on_c, 7, 63, 84
9, 214440, Note_off_c, 7, 63, 64
9, 214440, Note_on_c, 7, 57, 93
9, 214560, Note_off_c, 7, 57, 64
9, 214560, Note_on_c, 7, 67, 93
9, 214560, Note_on_c, 7, 58, 78
9, 214680, Note_off_c, 7, 58, 64
9, 214680, Note_off_c, 7, 67, 64
9, 214680, Note_on_c, 7, 65, 86
9, 214800, Note_off_c, 7, 65, 64
9, 214800, Note_on_c, 7, 67, 89
9, 214920, Note_off_c, 7, 67, 64
9, 214920, Note_on_c, 7, 64, 95
9, 215040, Note_off_c, 7, 64, 64
9, 215040, Note_on_c, 7, 62, 72
9, 215040, Note_on_c, 7, 59, 85
9, 215160, Note_off_c, 7, 59, 64
9, 215160, Note_off_c, 7, 62, 64
9, 215160, Note_on_c, 7, 50, 77
9, 215280, Note_off_c, 7, 50, 64
9, 215280, Note_on_c, 7, 52, 89
9, 215400, Note_off_c, 7, 52, 64
9, 215400, Note_on_c, 7, 54, 77
9, 215520, Note_off_c, 7, 54, 64
9, 215520, Note_on_c, 7, 55, 84
9, 215640, Note_off_c, 7, 55, 64
9, 215640, Note_on_c, 7, 57, 95
9, 215760, Note_off_c, 7, 57, 64
9, 215760, Note_on_c, 7, 59, 89
9, 215880, Note_off_c, 7, 59, 64
9, 215880, Note_on_c, 7, 60, 84
9, 216000, Note_off_c, 7, 60, 64
9, 216000, Note_on_c, 7, 62, 74
9, 216120, Note_off_c, 7, 62, 64
9, 216120, Note_on_c, 7, 55, 80
9, 216240, Note_off_c, 7, 55, 64
9, 216240, Note_on_c, 7, 57, 99
9, 216360, Note_off_c, 7, 57, 64
9, 216360, Note_on_c, 7, 59, 89
9, 216480, Note_off_c, 7, 59, 64
9, 216480, Note_on_c, 7, 60, 86
9, 216600, Note_off_c, 7, 60, 64
9, 216600, Note_on_c, 7, 62, 84
9, 216720, Note_off_c, 7, 62, 64
9, 216720, Note_on_c, 7, 64, 89
9, 216840, Note_off_c, 7, 64, 64
9, 216840, Note_on_c, 7, 66, 89
9, 216960, Note_off_c, 7, 66, 64
9, 216960, Note_on_c, 7, 67, 46
9, 217200, Note_off_c, 7, 67, 64
9, 218880, Note_on_c, 7, 50, 84
9, 218940, Note_off_c, 7, 50, 64
9, 218940, Note_on_c, 7, 52, 93
9, 219000, Note_off_c, 7, 52, 64
9, 219000, Note_on_c, 7, 54, 86
9, 219060, Note_off_c, 7, 54, 64
9, 219060, Note_on_c, 7, 55, 86
9, 219120, Note_off_c, 7, 55, 64
9, 219120, Note_on_c, 7, 57, 85
9, 219180, Note_off_c, 7, 57, 64
9, 219180, Note_on_c, 7, 59, 86
9, 219240, Note_off_c, 7, 59, 64
9, 219240, Note_on_c, 7, 60, 81
9, 219300, Note_off_c, 7, 60, 64
9, 219300, Note_on_c, 7, 61, 80
9, 219360, Note_off_c, 7, 61, 64
9, 219360, Note_on_c, 7, 62, 74
9, 219420, Note_off_c, 7, 62, 64
9, 219420, Note_on_c, 7, 64, 93
9, 219480, Note_off_c, 7, 64, 64
9, 219480, Note_on_c, 7, 66, 84
9, 219540, Note_off_c, 7, 66, 64
9, 219540, Note_on_c, 7, 67, 80
9, 219600, Note_off_c, 7, 67, 64
9, 219600, Note_on_c, 7, 69, 74
9, 219660, Note_off_c, 7, 69, 64
9, 219660, Note_on_c, 7, 71, 76
9, 219720, Note_off_c, 7, 71, 64
9, 219720, Note_on_c, 7, 72, 84
9, 219780, Note_off_c, 7, 72, 64
9, 219780, Note_on_c, 7, 73, 86
9, 219840, Note_off_c, 7, 73, 64
9, 219840, Note_on_c, 7, 74, 86
9, 219900, Note_off_c, 7, 74, 64
9, 219900, Note_on_c, 7, 76, 94
9, 219960, Note_off_c, 7, 76, 64
9, 219960, Note_on_c, 7, 78, 76
9, 220020, Note_off_c, 7, 78, 64
9, 220020, Note_on_c, 7, 79, 85
9, 220080, Note_off_c, 7, 79, 64
9, 220080, Note_on_c, 7, 81, 80
9, 220140, Note_off_c, 7, 81, 64
9, 220140, Note_on_c, 7, 83, 84
9, 220200, Note_off_c, 7, 83, 64
9, 220200, Note_on_c, 7, 84, 85
9, 220260, Note_off_c, 7, 84, 64
9, 220260, Note_on_c, 7, 85, 82
9, 220320, Note_off_c, 7, 85, 64
9, 220320, Note_on_c, 7, 86, 86
9, 220380, Note_off_c, 7, 86, 64
9, 220380, Note_on_c, 7, 85, 81
9, 220440, Note_off_c, 7, 85, 64
9, 220440, Note_on_c, 7, 86, 89
9, 220500, Note_off_c, 7, 86, 64
9, 220500, Note_on_c, 7, 85, 80
9, 220560, Note_off_c, 7, 85, 64
9, 220560, Note_on_c, 7, 86, 89
9, 220620, Note_off_c, 7, 86, 64
9, 220620, Note_on_c, 7, 85, 76
9, 220680, Note_off_c, 7, 85, 64
9, 220680, Note_on_c, 7, 86, 89
9, 220740, Note_off_c, 7, 86, 64
9, 220740, Note_on_c, 7, 85, 84
9, 220800, Note_off_c, 7, 85, 64
9, 220800, Note_on_c, 7, 86, 85
9, 221040, Note_off_c, 7, 86, 64
9, 221040, Note_on_c, 7, 86, 73
9, 221040, Note_on_c, 7, 83, 78
9, 221280, Note_off_c, 7, 83, 64
9, 221280, Note_off_c, 7, 86, 64
9, 221280, Note_on_c, 7, 86, 66
9, 221280, Note_on_c, 7, 83, 72
9, 221400, Note_off_c, 7, 83, 64
9, 221400, Note_off_c, 7, 86, 64
9, 221400, Note_on_c, 7, 86, 74
9, 221400, Note_on_c, 7, 83, 78
9, 221520, Note_off_c, 7, 83, 64
9, 221520, Note_off_c, 7, 86, 64
9, 221520, Note_on_c, 7, 86, 76
9, 221520, Note_on_c, 7, 83, 77
9, 221640, Note_off_c, 7, 83, 64
9, 221640, Note_off_c, 7, 86, 64
9, 221640, Note_on_c, 7, 81, 84
9, 221640, Note_on_c, 7, 84, 69
9, 221760, Note_off_c, 7, 84, 64
9, 221760, Note_off_c, 7, 81, 64
9, 221760, Note_on_c, 7, 83, 72
9, 221760, Note_on_c, 7, 79, 77
9, 221880, Note_off_c, 7, 79, 64
9, 221880, Note_off_c, 7, 83, 64
9, 221880, Note_on_c, 7, 83, 71
9, 221880, Note_on_c, 7, 74, 69
9, 222000, Note_off_c, 7, 74, 64
9, 222000, Note_off_c, 7, 83, 64
9, 222000, Note_on_c, 7, 83, 72
9, 222000, Note_on_c, 7, 74, 78
9, 222120, Note_off_c, 7, 74, 64
9, 222120, Note_off_c, 7, 83, 64
9, 222120, Note_on_c, 7, 81, 68
9, 222120, Note_on_c, 7, 72, 45
9, 222240, Note_off_c, 7, 72, 64
9, 222240, Note_off_c, 7, 81, 64
9, 222240, Note_on_c, 7, 79, 68
9, 222240, Note_on_c, 7, 71, 66
9, 222360, Note_off_c, 7, 71, 64
9, 222360, Note_off_c, 7, 79, 64
9, 222360, Note_on_c, 7, 79, 66
9, 222360, Note_on_c, 7, 71, 68
9, 222480, Note_off_c, 7, 71, 64
9, 222480, Note_off_c, 7, 79, 64
9, 222480, Note_on_c, 7, 79, 73
9, 222480, Note_on_c, 7, 71, 78
9, 222600, Note_off_c, 7, 71, 64
9, 222600, Note_off_c, 7, 79, 64
9, 222600, Note_on_c, 7, 78, 80
9, 222600, Note_on_c, 7, 81, 86
9, 222720, Note_off_c, 7, 81, 64
9, 222720, Note_off_c, 7, 78, 64
9, 222720, Note_on_c, 7, 83, 81
9, 222720, Note_on_c, 7, 79, 84
9, 222960, Note_off_c, 7, 79, 64
9, 222960, Note_off_c, 7, 83, 64
9, 223680, Note_on_c, 7, 83, 68
9, 223740, Note_off_c, 7, 83, 64
9, 223740, Note_on_c, 7, 82, 74
9, 223800, Note_off_c, 7, 82, 64
9, 223800, Note_on_c, 7, 83, 73
9, 223860, Note_off_c, 7, 83, 64
9, 223860, Note_on_c, 7, 82, 68
9, 223920, Note_off_c, 7, 82, 64
9, 223920, Note_on_c, 7, 83, 78
9, 223980, Note_off_c, 7, 83, 64
9, 223980, Note_on_c, 7, 82, 70
9, 224040, Note_off_c, 7, 82, 64
9, 224040, Note_on_c, 7, 83, 74
9, 224100, Note_off_c, 7, 83, 64
9, 224100, Note_on_c, 7, 82, 68
9, 224160, Note_off_c, 7, 82, 64
9, 224160, Note_on_c, 7, 83, 77
9, 224220, Note_off_c, 7, 83, 64
9, 224220, Note_on_c, 7, 82, 72
9, 224280, Note_off_c, 7, 82, 64
9, 224280, Note_on_c, 7, 83, 76
9, 224340, Note_off_c, 7, 83, 64
9, 224340, Note_on_c, 7, 82, 76
9, 224400, Note_off_c, 7, 82, 64
9, 224400, Note_on_c, 7, 83, 74
9, 224460, Note_off_c, 7, 83, 64
9, 224460, Note_on_c, 7, 82, 76
9, 224520, Note_off_c, 7, 82, 64
9, 224520, Note_on_c, 7, 83, 81
9, 224580, Note_off_c, 7, 83, 64
9, 224580, Note_on_c, 7, 82, 76
9, 224640, Note_off_c, 7, 82, 64
9, 224640, Note_on_c, 7, 81, 82
9, 224670, Note_off_c, 7, 81, 64
9, 224670, Note_on_c, 7, 83, 84
9, 224700, Note_off_c, 7, 83, 64
9, 224700, Note_on_c, 7, 81, 80
9, 224730, Note_off_c, 7, 81, 64
9, 224730, Note_on_c, 7, 83, 74
9, 224760, Note_off_c, 7, 83, 64
9, 224760, Note_on_c, 7, 81, 80
9, 224790, Note_off_c, 7, 81, 64
9, 224790, Note_on_c, 7, 83, 84
9, 224820, Note_off_c, 7, 83, 64
9, 224820, Note_on_c, 7, 81, 80
9, 224850, Note_off_c, 7, 81, 64
9, 224850, Note_on_c, 7, 83, 89
9, 224880, Note_off_c, 7, 83, 64
9, 224880, Note_on_c, 7, 81, 84
9, 224910, Note_off_c, 7, 81, 64
9, 224910, Note_on_c, 7, 83, 78
9, 224940, Note_off_c, 7, 83, 64
9, 224940, Note_on_c, 7, 81, 81
9, 224970, Note_off_c, 7, 81, 64
9, 224970, Note_on_c, 7, 83, 89
9, 225000, Note_off_c, 7, 83, 64
9, 225000, Note_on_c, 7, 81, 84
9, 225030, Note_off_c, 7, 81, 64
9, 225030, Note_on_c, 7, 83, 80
9, 225060, Note_off_c, 7, 83, 64
9, 225060, Note_on_c, 7, 81, 84
9, 225090, Note_off_c, 7, 81, 64
9, 225090, Note_on_c, 7, 83, 82
9, 225120, Note_off_c, 7, 83, 64
9, 225120, Note_on_c, 7, 81, 84
9, 225150, Note_off_c, 7, 81, 64
9, 225150, Note_on_c, 7, 83, 84
9, 225180, Note_off_c, 7, 83, 64
9, 225180, Note_on_c, 7, 81, 85
9, 225210, Note_off_c, 7, 81, 64
9, 225210, Note_on_c, 7, 83, 84
9, 225240, Note_off_c, 7, 83, 64
9, 225240, Note_on_c, 7, 81, 84
9, 225270, Note_off_c, 7, 81, 64
9, 225270, Note_on_c, 7, 83, 74
9, 225300, Note_off_c, 7, 83, 64
9, 225300, Note_on_c, 7, 81, 81
9, 225330, Note_off_c, 7, 81, 64
9, 225330, Note_on_c, 7, 83, 80
9, 225360, Note_off_c, 7, 83, 64
9, 225360, Note_on_c, 7, 81, 86
9, 225390, Note_off_c, 7, 81, 64
9, 225390, Note_on_c, 7, 83, 86
9, 225420, Note_off_c, 7, 83, 64
9, 225420, Note_on_c, 7, 81, 82
9, 225450, Note_off_c, 7, 81, 64
9, 225450, Note_on_c, 7, 83, 82
9, 225480, Note_off_c, 7, 83, 64
9, 225480, Note_on_c, 7, 81, 84
9, 225510, Note_off_c, 7, 81, 64
9, 225510, Note_on_c, 7, 83, 84
9, 225540, Note_off_c, 7, 83, 64
9, 225540, Note_on_c, 7, 81, 80
9, 225570, Note_off_c, 7, 81, 64
9, 225570, Note_on_c, 7, 83, 89
9, 225600, Note_off_c, 7, 83, 64
9, 225600, Note_on_c, 7, 81, 84
9, 225630, Note_off_c, 7, 81, 64
9, 225630, Note_on_c, 7, 83, 80
9, 225660, Note_off_c, 7, 83, 64
9, 225660, Note_on_c, 7, 81, 76
9, 225690, Note_off_c, 7, 81, 64
9, 225690, Note_on_c, 7, 83, 80
9, 225720, Note_off_c, 7, 83, 64
9, 225720, Note_on_c, 7, 81, 84
9, 225750, Note_off_c, 7, 81, 64
9, 225750, Note_on_c, 7, 83, 76
9, 225780, Note_off_c, 7, 83, 64
9, 225780, Note_on_c, 7, 81, 84
9, 225810, Note_off_c, 7, 81, 64
9, 225810, Note_on_c, 7, 83, 77
9, 225840, Note_off_c, 7, 83, 64
9, 225840, Note_on_c, 7, 81, 82
9, 225870, Note_off_c, 7, 81, 64
9, 225870, Note_on_c, 7, 83, 73
9, 225900, Note_off_c, 7, 83, 64
9, 225900, Note_on_c, 7, 81, 78
9, 225930, Note_off_c, 7, 81, 64
9, 225930, Note_on_c, 7, 83, 77
9, 225960, Note_off_c, 7, 83, 64
9, 225960, Note_on_c, 7, 81, 80
9, 225990, Note_off_c, 7, 81, 64
9, 225990, Note_on_c, 7, 83, 77
9, 226020, Note_off_c, 7, 83, 64
9, 226020, Note_on_c, 7, 81, 80
9, 226050, Note_off_c, 7, 81, 64
9, 226050, Note_on_c, 7, 83, 86
9, 226080, Note_off_c, 7, 83, 64
9, 226080, Note_on_c, 7, 81, 89
9, 226110, Note_off_c, 7, 81, 64
9, 226110, Note_on_c, 7, 83, 85
9, 226140, Note_off_c, 7, 83, 64
9, 226140, Note_on_c, 7, 81, 84
9, 226170, Note_off_c, 7, 81, 64
9, 226170, Note_on_c, 7, 83, 86
9, 226200, Note_off_c, 7, 83, 64
9, 226200, Note_on_c, 7, 81, 82
9, 226230, Note_off_c, 7, 81, 64
9, 226230, Note_on_c, 7, 83, 84
9, 226260, Note_off_c, 7, 83, 64
9, 226260, Note_on_c, 7, 81, 81
9, 226290, Note_off_c, 7, 81, 64
9, 226290, Note_on_c, 7, 83, 86
9, 226320, Note_off_c, 7, 83, 64
9, 226320, Note_on_c, 7, 81, 77
9, 226350, Note_off_c, 7, 81, 64
9, 226350, Note_on_c, 7, 83, 86
9, 226380, Note_off_c, 7, 83, 64
9, 226380, Note_on_c, 7, 79, 76
9, 226440, Note_off_c, 7, 79, 64
9, 226440, Note_on_c, 7, 84, 80
9, 226500, Note_off_c, 7, 84, 64
9, 226500, Note_on_c, 7, 81, 77
9, 226560, Note_off_c, 7, 81, 64
9, 226560, Note_on_c, 7, 79, 54
9, 226800, Note_off_c, 7, 79, 64
9, 254400, Note_on_c, 7, 63, 86
9, 254400, Note_on_c, 7, 58, 80
9, 254400, Note_on_c, 7, 55, 84
9, 254640, Note_off_c, 7, 55, 64
9, 254640, Note_off_c, 7, 58, 64
9, 254640, Control_c, 7, 7, 81
9, 254640, Control_c, 7, 10, 64
9, 254640, Control_c, 7, 93, 0
9, 254640, Control_c, 7, 91, 66
9, 254880, Note_off_c, 7, 63, 64
9, 254880, Note_on_c, 7, 63, 85
9, 255000, Note_off_c, 7, 63, 64
9, 255000, Note_on_c, 7, 55, 77
9, 255120, Note_off_c, 7, 55, 64
9, 255120, Note_on_c, 7, 58, 93
9, 255240, Note_off_c, 7, 58, 64
9, 255240, Note_on_c, 7, 63, 84
9, 255360, Note_off_c, 7, 63, 64
9, 255360, Note_on_c, 7, 67, 86
9, 255480, Note_off_c, 7, 67, 64
9, 255480, Note_on_c, 7, 58, 89
9, 255600, Note_off_c, 7, 58, 64
9, 255600, Note_on_c, 7, 63, 76
9, 255720, Note_off_c, 7, 63, 64
9, 255720, Note_on_c, 7, 67, 89
9, 255840, Note_off_c, 7, 67, 64
9, 255840, Note_on_c, 7, 70, 94
9, 255960, Note_off_c, 7, 70, 64
9, 255960, Note_on_c, 7, 63, 80
9, 256080, Note_off_c, 7, 63, 64
9, 256080, Note_on_c, 7, 67, 89
9, 256200, Note_off_c, 7, 67, 64
9, 256200, Note_on_c, 7, 70, 94
9, 256320, Note_off_c, 7, 70, 64
9, 256320, Note_on_c, 7, 75, 89
9, 256440, Note_off_c, 7, 75, 64
9, 256440, Note_on_c, 7, 67, 80
9, 256560, Note_off_c, 7, 67, 64
9, 256560, Note_on_c, 7, 70, 90
9, 256680, Note_off_c, 7, 70, 64
9, 256680, Note_on_c, 7, 75, 95
9, 256800, Note_off_c, 7, 75, 64
9, 256800, Note_on_c, 7, 79, 93
9, 256920, Note_off_c, 7, 79, 64
9, 256920, Note_on_c, 7, 70, 71
9, 257040, Note_off_c, 7, 70, 64
9, 257040, Note_on_c, 7, 75, 95
9, 257160, Note_off_c, 7, 75, 64
9, 257160, Note_on_c, 7, 79, 99
9, 257280, Note_off_c, 7, 79, 64
9, 257280, Note_on_c, 7, 82, 86
9, 257400, Note_off_c, 7, 82, 64
9, 257400, Note_on_c, 7, 81, 94
9, 257520, Note_off_c, 7, 81, 64
9, 257520, Note_on_c, 7, 84, 89
9, 257640, Note_off_c, 7, 84, 64
9, 257640, Note_on_c, 7, 82, 89
9, 257760, Note_off_c, 7, 82, 64
9, 257760, Note_on_c, 7, 80, 86
9, 257880, Note_off_c, 7, 80, 64
9, 257880, Note_on_c, 7, 79, 84
9, 258000, Note_off_c, 7, 79, 64
9, 258000, Note_on_c, 7, 77, 74
9, 258120, Note_off_c, 7, 77, 64
9, 258120, Note_on_c, 7, 75, 89
9, 258240, Note_off_c, 7, 75, 64
9, 258240, Note_on_c, 7, 74, 94
9, 258480, Note_off_c, 7, 74, 64
9, 258800, Note_on_c, 7, 56, 81
9, 258880, Note_off_c, 7, 56, 64
9, 258880, Note_on_c, 7, 55, 73
9, 258960, Note_off_c, 7, 55, 64
9, 258960, Note_on_c, 7, 56, 86
9, 259040, Note_off_c, 7, 56, 64
9, 259040, Note_on_c, 7, 62, 94
9, 259120, Note_off_c, 7, 62, 64
9, 259120, Note_on_c, 7, 65, 86
9, 259200, Note_off_c, 7, 65, 64
9, 259200, Note_on_c, 7, 68, 93
9, 259280, Note_off_c, 7, 68, 64
9, 259280, Note_on_c, 7, 62, 90
9, 259360, Note_off_c, 7, 62, 64
9, 259360, Note_on_c, 7, 61, 73
9, 259440, Note_off_c, 7, 61, 64
9, 259440, Note_on_c, 7, 62, 90
9, 259520, Note_off_c, 7, 62, 64
9, 259520, Note_on_c, 7, 65, 95
9, 259600, Note_off_c, 7, 65, 64
9, 259600, Note_on_c, 7, 68, 89
9, 259680, Note_off_c, 7, 68, 64
9, 259680, Note_on_c, 7, 74, 84
9, 259760, Note_off_c, 7, 74, 64
9, 259760, Note_on_c, 7, 65, 89
9, 259840, Note_off_c, 7, 65, 64
9, 259840, Note_on_c, 7, 64, 81
9, 259920, Note_off_c, 7, 64, 64
9, 259920, Note_on_c, 7, 65, 95
9, 260000, Note_off_c, 7, 65, 64
9, 260000, Note_on_c, 7, 68, 90
9, 260080, Note_off_c, 7, 68, 64
9, 260080, Note_on_c, 7, 74, 84
9, 260160, Note_off_c, 7, 74, 64
9, 260160, Note_on_c, 7, 77, 86
9, 260240, Note_off_c, 7, 77, 64
9, 260240, Note_on_c, 7, 68, 80
9, 260320, Note_off_c, 7, 68, 64
9, 260320, Note_on_c, 7, 67, 65
9, 260400, Note_off_c, 7, 67, 64
9, 260400, Note_on_c, 7, 68, 86
9, 260480, Note_off_c, 7, 68, 64
9, 260480, Note_on_c, 7, 74, 99
9, 260560, Note_off_c, 7, 74, 64
9, 260560, Note_on_c, 7, 77, 90
9, 260640, Note_off_c, 7, 77, 64
9, 260640, Note_on_c, 7, 80, 95
9, 260720, Note_off_c, 7, 80, 64
9, 260720, Note_on_c, 7, 74, 98
9, 260800, Note_off_c, 7, 74, 64
9, 260800, Note_on_c, 7, 73, 72
9, 260880, Note_off_c, 7, 73, 64
9, 260880, Note_on_c, 7, 74, 95
9, 260960, Note_off_c, 7, 74, 64
9, 260960, Note_on_c, 7, 77, 89
9, 261040, Note_off_c, 7, 77, 64
9, 261040, Note_on_c, 7, 80, 85
9, 261120, Note_off_c, 7, 80, 64
9, 261120, Note_on_c, 7, 84, 77
9, 261200, Note_off_c, 7, 84, 64
9, 261200, Note_on_c, 7, 83, 80
9, 261280, Note_off_c, 7, 83, 64
9, 261280, Note_on_c, 7, 86, 81
9, 261360, Note_off_c, 7, 86, 64
9, 261360, Note_on_c, 7, 84, 89
9, 261440, Note_off_c, 7, 84, 64
9, 261440, Note_on_c, 7, 82, 81
9, 261520, Note_off_c, 7, 82, 64
9, 261520, Note_on_c, 7, 80, 85
9, 261600, Note_off_c, 7, 80, 64
9, 261600, Note_on_c, 7, 79, 85
9, 261680, Note_off_c, 7, 79, 64
9, 261680, Note_on_c, 7, 77, 77
9, 261760, Note_off_c, 7, 77, 64
9, 261760, Note_on_c, 7, 75, 84
9, 261840, Note_off_c, 7, 75, 64
9, 261840, Note_on_c, 7, 74, 85
9, 261920, Note_off_c, 7, 74, 64
9, 261920, Note_on_c, 7, 80, 89
9, 262000, Note_off_c, 7, 80, 64
9, 262000, Note_on_c, 7, 77, 89
9, 262080, Note_off_c, 7, 77, 64
9, 262080, Note_on_c, 7, 76, 95
9, 262240, Note_off_c, 7, 76, 64
9, 262640, Note_on_c, 7, 58, 78
9, 262720, Note_off_c, 7, 58, 64
9, 262720, Note_on_c, 7, 57, 94
9, 262800, Note_off_c, 7, 57, 64
9, 262800, Note_on_c, 7, 58, 89
9, 262880, Note_off_c, 7, 58, 64
9, 262880, Note_on_c, 7, 64, 84
9, 262960, Note_off_c, 7, 64, 64
9, 262960, Note_on_c, 7, 67, 84
9, 263040, Note_off_c, 7, 67, 64
9, 263040, Note_on_c, 7, 70, 82
9, 263120, Note_off_c, 7, 70, 64
9, 263120, Note_on_c, 7, 64, 94
9, 263200, Note_off_c, 7, 64, 64
9, 263200, Note_on_c, 7, 63, 76
9, 263280, Note_off_c, 7, 63, 64
9, 263280, Note_on_c, 7, 64, 101
9, 263360, Note_off_c, 7, 64, 64
9, 263360, Note_on_c, 7, 67, 84
9, 263440, Note_off_c, 7, 67, 64
9, 263440, Note_on_c, 7, 70, 90
9, 263520, Note_off_c, 7, 70, 64
9, 263520, Note_on_c, 7, 76, 89
9, 263600, Note_off_c, 7, 76, 64
9, 263600, Note_on_c, 7, 67, 78
9, 263680, Note_off_c, 7, 67, 64
9, 263680, Note_on_c, 7, 66, 82
9, 263760, Note_off_c, 7, 66, 64
9, 263760, Note_on_c, 7, 67, 80
9, 263840, Note_off_c, 7, 67, 64
9, 263840, Note_on_c, 7, 70, 84
9, 263920, Note_off_c, 7, 70, 64
9, 263920, Note_on_c, 7, 76, 86
9, 264000, Note_off_c, 7, 76, 64
9, 264000, Note_on_c, 7, 79, 89
9, 264080, Note_off_c, 7, 79, 64
9, 264080, Note_on_c, 7, 70, 78
9, 264160, Note_off_c, 7, 70, 64
9, 264160, Note_on_c, 7, 69, 89
9, 264240, Note_off_c, 7, 69, 64
9, 264240, Note_on_c, 7, 70, 85
9, 264320, Note_off_c, 7, 70, 64
9, 264320, Note_on_c, 7, 76, 95
9, 264400, Note_off_c, 7, 76, 64
9, 264400, Note_on_c, 7, 79, 95
9, 264480, Note_off_c, 7, 79, 64
9, 264480, Note_on_c, 7, 82, 95
9, 264560, Note_off_c, 7, 82, 64
9, 264560, Note_on_c, 7, 76, 101
9, 264640, Note_off_c, 7, 76, 64
9, 264640, Note_on_c, 7, 75, 82
9, 264720, Note_off_c, 7, 75, 64
9, 264720, Note_on_c, 7, 76, 104
9, 264800, Note_off_c, 7, 76, 64
9, 264800, Note_on_c, 7, 79, 101
9, 264880, Note_off_c, 7, 79, 64
9, 264880, Note_on_c, 7, 82, 86
9, 264960, Note_off_c, 7, 82, 64
9, 264960, Note_on_c, 7, 85, 89
9, 265040, Note_off_c, 7, 85, 64
9, 265040, Note_on_c, 7, 84, 84
9, 265120, Note_off_c, 7, 84, 64
9, 265120, Note_on_c, 7, 87, 95
9, 265200, Note_off_c, 7, 87, 64
9, 265200, Note_on_c, 7, 85, 86
9, 265280, Note_off_c, 7, 85, 64
9, 265280, Note_on_c, 7, 84, 89
9, 265360, Note_off_c, 7, 84, 64
9, 265360, Note_on_c, 7, 82, 71
9, 265440, Note_off_c, 7, 82, 64
9, 265440, Note_on_c, 7, 80, 94
9, 265520, Note_off_c, 7, 80, 64
9, 265520, Note_on_c, 7, 79, 86
9, 265600, Note_off_c, 7, 79, 64
9, 265600, Note_on_c, 7, 77, 76
9, 265680, Note_off_c, 7, 77, 64
9, 265680, Note_on_c, 7, 76, 89
9, 265760, Note_off_c, 7, 76, 64
9, 265760, Note_on_c, 7, 82, 93
9, 265840, Note_off_c, 7, 82, 64
9, 265840, Note_on_c, 7, 79, 93
9, 265920, Note_off_c, 7, 79, 64
9, 265920, Note_on_c, 7, 77, 86
9, 266000, Note_off_c, 7, 77, 64
9, 266000, Note_on_c, 7, 79, 94
9, 266080, Note_off_c, 7, 79, 64
9, 266080, Note_on_c, 7, 76, 90
9, 266160, Note_off_c, 7, 76, 64
9, 266160, Control_c, 7, 7, 88
9, 266160, Control_c, 7, 10, 64
9, 266160, Control_c, 7, 93, 0
9, 266160, Control_c, 7, 91, 66
9, 266160, Note_on_c, 7, 77, 86
9, 266240, Note_off_c, 7, 77, 64
9, 266240, Note_on_c, 7, 78, 84
9, 266320, Note_off_c, 7, 78, 64
9, 266320, Note_on_c, 7, 79, 76
9, 266400, Note_off_c, 7, 79, 64
9, 266400, Control_c, 7, 7, 94
9, 266400, Control_c, 7, 10, 64
9, 266400, Control_c, 7, 93, 0
9, 266400, Control_c, 7, 91, 66
9, 266400, Note_on_c, 7, 80, 84
9, 266480, Note_off_c, 7, 80, 64
9, 266480, Note_on_c, 7, 81, 85
9, 266560, Note_off_c, 7, 81, 64
9, 266560, Note_on_c, 7, 82, 76
9, 266640, Note_off_c, 7, 82, 64
9, 266640, Control_c, 7, 7, 100
9, 266640, Control_c, 7, 10, 64
9, 266640, Control_c, 7, 93, 0
9, 266640, Control_c, 7, 91, 66
9, 266640, Note_on_c, 7, 83, 84
9, 266720, Note_off_c, 7, 83, 64
9, 266720, Note_on_c, 7, 84, 89
9, 266800, Note_off_c, 7, 84, 64
9, 266800, Note_on_c, 7, 84, 90
9, 266880, Note_off_c, 7, 84, 64
9, 266880, Control_c, 7, 7, 96
9, 266880, Control_c, 7, 10, 64
9, 266880, Control_c, 7, 93, 0
9, 266880, Control_c, 7, 91, 66
9, 266880, Note_on_c, 7, 84, 89
9, 267120, Note_off_c, 7, 84, 64
9, 267120, Control_c, 7, 7, 90
9, 267120, Control_c, 7, 10, 64
9, 267120, Control_c, 7, 93, 0
9, 267120, Control_c, 7, 91, 66
9, 267120, Note_on_c, 7, 82, 86
9, 267240, Note_off_c, 7, 82, 64
9, 267240, Note_on_c, 7, 80, 93
9, 267360, Note_off_c, 7, 80, 64
9, 267360, Control_c, 7, 7, 84
9, 267360, Control_c, 7, 10, 64
9, 267360, Control_c, 7, 93, 0
9, 267360, Control_c, 7, 91, 66
9, 267360, Note_on_c, 7, 79, 89
9, 267480, Note_off_c, 7, 79, 64
9, 267480, Note_on_c, 7, 77, 89
9, 267600, Note_off_c, 7, 77, 64
9, 267600, Control_c, 7, 7, 79
9, 267600, Control_c, 7, 10, 64
9, 267600, Control_c, 7, 93, 0
9, 267600, Control_c, 7, 91, 66
9, 267600, Note_on_c, 7, 75, 90
9, 267720, Note_off_c, 7, 75, 64
9, 267720, Note_on_c, 7, 74, 95
9, 267840, Note_off_c, 7, 74, 64
9, 267840, Note_on_c, 7, 75, 93
9, 268080, Note_off_c, 7, 75, 64
9, 268320, Note_on_c, 7, 87, 86
9, 268320, Note_on_c, 7, 82, 82
9, 268320, Note_on_c, 7, 79, 85
9, 268560, Note_off_c, 7, 79, 64
9, 268560, Note_off_c, 7, 82, 64
9, 268560, Note_off_c, 7, 87, 64
9, 268560, Note_on_c, 7, 77, 76
9, 268560, Note_on_c, 7, 80, 84
9, 268560, Note_on_c, 7, 86, 73
9, 268800, Note_off_c, 7, 86, 64
9, 268800, Note_off_c, 7, 80, 64
9, 268800, Note_off_c, 7, 77, 64
9, 268800, Note_on_c, 7, 84, 77
9, 268800, Note_on_c, 7, 79, 94
9, 268800, Note_on_c, 7, 75, 77
9, 269040, Note_off_c, 7, 75, 64
9, 269040, Note_off_c, 7, 79, 64
9, 269040, Note_off_c, 7, 84, 64
9, 269040, Note_on_c, 7, 82, 77
9, 269040, Note_on_c, 7, 77, 93
9, 269040, Note_on_c, 7, 74, 86
9, 269280, Note_off_c, 7, 74, 64
9, 269280, Note_off_c, 7, 77, 64
9, 269280, Note_off_c, 7, 82, 64
9, 269280, Note_on_c, 7, 80, 89
9, 269280, Note_on_c, 7, 75, 93
9, 269280, Note_on_c, 7, 72, 86
9, 269520, Note_off_c, 7, 72, 64
9, 269520, Note_off_c, 7, 75, 64
9, 269520, Note_off_c, 7, 80, 64
9, 269520, Note_on_c, 7, 70, 72
9, 269520, Note_on_c, 7, 74, 101
9, 269520, Note_on_c, 7, 79, 90
9, 269760, Note_off_c, 7, 79, 64
9, 269760, Note_off_c, 7, 74, 64
9, 269760, Note_off_c, 7, 70, 64
9, 269760, Note_on_c, 7, 77, 73
9, 269760, Note_on_c, 7, 72, 85
9, 269760, Note_on_c, 7, 68, 67
9, 270000, Note_off_c, 7, 68, 64
9, 270000, Note_off_c, 7, 72, 64
9, 270000, Note_off_c, 7, 77, 64
9, 270000, Note_on_c, 7, 75, 85
9, 270000, Note_on_c, 7, 70, 86
9, 270000, Note_on_c, 7, 67, 76
9, 270240, Note_off_c, 7, 67, 64
9, 270240, Note_off_c, 7, 70, 64
9, 270240, Note_off_c, 7, 75, 64
9, 270240, Note_on_c, 7, 74, 82
9, 270240, Note_on_c, 7, 68, 81
9, 270240, Note_on_c, 7, 65, 82
9, 270480, Note_off_c, 7, 65, 64
9, 270480, Note_off_c, 7, 68, 64
9, 270480, Note_off_c, 7, 74, 64
9, 270480, Note_on_c, 7, 63, 52
9, 270480, Note_on_c, 7, 67, 99
9, 270480, Note_on_c, 7, 75, 71
9, 270720, Note_off_c, 7, 75, 64
9, 270720, Note_off_c, 7, 67, 64
9, 270720, Note_off_c, 7, 63, 64
9, 270720, Note_on_c, 7, 77, 68
9, 270720, Note_on_c, 7, 65, 76
9, 270960, Note_off_c, 7, 65, 64
9, 270960, Note_off_c, 7, 77, 64
9, 270960, Note_on_c, 7, 79, 76
9, 270960, Note_on_c, 7, 67, 78
9, 271200, Note_off_c, 7, 67, 64
9, 271200, Note_off_c, 7, 79, 64
9, 271200, Note_on_c, 7, 80, 86
9, 271200, Note_on_c, 7, 68, 84
9, 271440, Note_off_c, 7, 68, 64
9, 271440, Note_off_c, 7, 80, 64
9, 271440, Note_on_c, 7, 69, 93
9, 271440, Note_on_c, 7, 81, 84
9, 271680, Note_off_c, 7, 81, 64
9, 271680, Note_off_c, 7, 69, 64
9, 271680, Note_on_c, 7, 82, 72
9, 271680, Note_on_c, 7, 70, 89
9, 271920, Note_off_c, 7, 70, 64
9, 271920, Note_off_c, 7, 82, 64
9, 272160, Note_on_c, 7, 82, 85
9, 272160, Note_on_c, 7, 70, 78
9, 272400, Note_off_c, 7, 70, 64
9, 272400, Note_off_c, 7, 82, 64
9, 272400, Note_on_c, 7, 68, 89
9, 272400, Note_on_c, 7, 80, 90
9, 272640, Note_off_c, 7, 80, 64
9, 272640, Note_off_c, 7, 68, 64
9, 272640, Note_on_c, 7, 78, 85
9, 272640, Note_on_c, 7, 66, 84
9, 272880, Note_off_c, 7, 66, 64
9, 272880, Note_off_c, 7, 78, 64
9, 272880, Note_on_c, 7, 77, 76
9, 272880, Note_on_c, 7, 65, 85
9, 273120, Note_off_c, 7, 65, 64
9, 273120, Note_off_c, 7, 77, 64
9, 273120, Note_on_c, 7, 75, 94
9, 273120, Note_on_c, 7, 63, 86
9, 273360, Note_off_c, 7, 63, 64
9, 273360, Note_off_c, 7, 75, 64
9, 273360, Note_on_c, 7, 61, 81
9, 273360, Note_on_c, 7, 73, 82
9, 273600, Note_off_c, 7, 73, 64
9, 273600, Note_off_c, 7, 61, 64
9, 273600, Note_on_c, 7, 72, 89
9, 273600, Note_on_c, 7, 60, 82
9, 273840, Note_off_c, 7, 60, 64
9, 273840, Note_off_c, 7, 72, 64
9, 273840, Note_on_c, 7, 70, 86
9, 273840, Note_on_c, 7, 58, 84
9, 274080, Note_off_c, 7, 58, 64
9, 274080, Note_off_c, 7, 70, 64
9, 274080, Note_on_c, 7, 69, 84
9, 274080, Note_on_c, 7, 57, 94
9, 274320, Note_off_c, 7, 57, 64
9, 274320, Note_off_c, 7, 69, 64
9, 274320, Note_on_c, 7, 58, 84
9, 274320, Note_on_c, 7, 70, 85
9, 274560, Note_off_c, 7, 70, 64
9, 274560, Note_off_c, 7, 58, 64
9, 274560, Note_on_c, 7, 72, 85
9, 274560, Note_on_c, 7, 60, 85
9, 274800, Note_off_c, 7, 60, 64
9, 274800, Note_off_c, 7, 72, 64
9, 274800, Note_on_c, 7, 74, 85
9, 274800, Note_on_c, 7, 62, 72
9, 275040, Note_off_c, 7, 62, 64
9, 275040, Note_off_c, 7, 74, 64
9, 275040, Note_on_c, 7, 75, 85
9, 275040, Note_on_c, 7, 63, 81
9, 275280, Note_off_c, 7, 63, 64
9, 275280, Note_off_c, 7, 75, 64
9, 275280, Note_on_c, 7, 64, 89
9, 275280, Note_on_c, 7, 76, 89
9, 275520, Note_off_c, 7, 76, 64
9, 275520, Note_off_c, 7, 64, 64
9, 275520, Note_on_c, 7, 77, 84
9, 275520, Note_on_c, 7, 65, 98
9, 275760, Note_off_c, 7, 65, 64
9, 275760, Note_off_c, 7, 77, 64
9, 276000, Note_on_c, 7, 89, 80
9, 276000, Note_on_c, 7, 77, 85
9, 276240, Note_off_c, 7, 77, 64
9, 276240, Note_off_c, 7, 89, 64
9, 276240, Note_on_c, 7, 75, 84
9, 276240, Note_on_c, 7, 87, 89
9, 276480, Note_off_c, 7, 87, 64
9, 276480, Note_off_c, 7, 75, 64
9, 276480, Note_on_c, 7, 85, 89
9, 276480, Note_on_c, 7, 73, 86
9, 276720, Note_off_c, 7, 73, 64
9, 276720, Note_off_c, 7, 85, 64
9, 276720, Note_on_c, 7, 84, 84
9, 276720, Note_on_c, 7, 72, 80
9, 276960, Note_off_c, 7, 72, 64
9, 276960, Note_off_c, 7, 84, 64
9, 276960, Note_on_c, 7, 82, 89
9, 276960, Note_on_c, 7, 70, 84
9, 277200, Note_off_c, 7, 70, 64
9, 277200, Note_off_c, 7, 82, 64
9, 277200, Note_on_c, 7, 68, 90
9, 277200, Note_on_c, 7, 80, 93
9, 277440, Note_off_c, 7, 80, 64
9, 277440, Note_off_c, 7, 68, 64
9, 277440, Note_on_c, 7, 79, 89
9, 277440, Note_on_c, 7, 67, 86
9, 277680, Note_off_c, 7, 67, 64
9, 277680, Note_off_c, 7, 79, 64
9, 277680, Note_on_c, 7, 77, 89
9, 277680, Note_on_c, 7, 65, 95
9, 277920, Note_off_c, 7, 65, 64
9, 277920, Note_off_c, 7, 77, 64
9, 277920, Note_on_c, 7, 76, 90
9, 277920, Note_on_c, 7, 64, 90
9, 278160, Note_off_c, 7, 64, 64
9, 278160, Note_off_c, 7, 76, 64
9, 278160, Note_on_c, 7, 65, 90
9, 278160, Note_on_c, 7, 77, 94
9, 278400, Note_off_c, 7, 77, 64
9, 278400, Note_off_c, 7, 65, 64
9, 278400, Note_on_c, 7, 79, 94
9, 278400, Note_on_c, 7, 67, 82
9, 278640, Note_off_c, 7, 67, 64
9, 278640, Note_off_c, 7, 79, 64
9, 278640, Note_on_c, 7, 81, 89
9, 278640, Note_on_c, 7, 69, 89
9, 278880, Note_off_c, 7, 69, 64
9, 278880, Note_off_c, 7, 81, 64
9, 278880, Note_on_c, 7, 82, 89
9, 278880, Note_on_c, 7, 70, 86
9, 279120, Note_off_c, 7, 70, 64
9, 279120, Note_off_c, 7, 82, 64
9, 279120, Note_on_c, 7, 71, 94
9, 279120, Note_on_c, 7, 83, 94
9, 279360, Note_off_c, 7, 83, 64
9, 279360, Note_off_c, 7, 71, 64
9, 279360, Note_on_c, 7, 84, 85
9, 279360, Note_on_c, 7, 72, 94
9, 279600, Note_off_c, 7, 72, 64
9, 279600, Note_off_c, 7, 84, 64
9, 280320, Control_c, 7, 7, 99
9, 280320, Control_c, 7, 10, 64
9, 280320, Control_c, 7, 93, 0
9, 280320, Control_c, 7, 91, 66
9, 280320, Note_on_c, 7, 41, 89
9, 280400, Note_off_c, 7, 41, 64
9, 280400, Note_on_c, 7, 44, 89
9, 280480, Note_off_c, 7, 44, 64
9, 280480, Note_on_c, 7, 46, 89
9, 280560, Note_off_c, 7, 46, 64
9, 280560, Note_on_c, 7, 48, 90
9, 280640, Note_off_c, 7, 48, 64
9, 280640, Note_on_c, 7, 50, 94
9, 280720, Note_off_c, 7, 50, 64
9, 280720, Note_on_c, 7, 52, 94
9, 280800, Note_off_c, 7, 52, 64
9, 280800, Note_on_c, 7, 53, 80
9, 280880, Note_off_c, 7, 53, 64
9, 280880, Note_on_c, 7, 52, 89
9, 280960, Note_off_c, 7, 52, 64
9, 280960, Note_on_c, 7, 53, 89
9, 281040, Note_off_c, 7, 53, 64
9, 281040, Note_on_c, 7, 56, 84
9, 281120, Note_off_c, 7, 56, 64
9, 281120, Note_on_c, 7, 55, 90
9, 281200, Note_off_c, 7, 55, 64
9, 281200, Note_on_c, 7, 53, 81
9, 281280, Note_off_c, 7, 53, 64
9, 281280, Note_on_c, 7, 55, 85
9, 281520, Note_off_c, 7, 55, 64
9, 282240, Note_on_c, 7, 60, 72
9, 282320, Note_off_c, 7, 60, 64
9, 282320, Note_on_c, 7, 64, 89
9, 282400, Note_off_c, 7, 64, 64
9, 282400, Note_on_c, 7, 65, 89
9, 282480, Note_off_c, 7, 65, 64
9, 282480, Note_on_c, 7, 67, 73
9, 282560, Note_off_c, 7, 67, 64
9, 282560, Note_on_c, 7, 69, 73
9, 282640, Note_off_c, 7, 69, 64
9, 282640, Note_on_c, 7, 71, 80
9, 282720, Note_off_c, 7, 71, 64
9, 282720, Note_on_c, 7, 72, 71
9, 282800, Note_off_c, 7, 72, 64
9, 282800, Note_on_c, 7, 71, 67
9, 282880, Note_off_c, 7, 71, 64
9, 282880, Note_on_c, 7, 72, 64
9, 282960, Note_off_c, 7, 72, 64
9, 282960, Note_on_c, 7, 76, 69
9, 283040, Note_off_c, 7, 76, 64
9, 283040, Note_on_c, 7, 74, 89
9, 283120, Note_off_c, 7, 74, 64
9, 283120, Note_on_c, 7, 72, 76
9, 283200, Note_off_c, 7, 72, 64
9, 283200, Note_on_c, 7, 77, 86
9, 283360, Note_off_c, 7, 77, 64
9, 284160, Note_on_c, 7, 41, 76
9, 284240, Note_off_c, 7, 41, 64
9, 284240, Note_on_c, 7, 44, 86
9, 284320, Note_off_c, 7, 44, 64
9, 284320, Note_on_c, 7, 46, 93
9, 284400, Note_off_c, 7, 46, 64
9, 284400, Note_on_c, 7, 48, 86
9, 284480, Note_off_c, 7, 48, 64
9, 284480, Note_on_c, 7, 49, 84
9, 284560, Note_off_c, 7, 49, 64
9, 284560, Note_on_c, 7, 51, 86
9, 284640, Note_off_c, 7, 51, 64
9, 284640, Note_on_c, 7, 53, 65
9, 284720, Note_off_c, 7, 53, 64
9, 284720, Note_on_c, 7, 52, 95
9, 284800, Note_off_c, 7, 52, 64
9, 284800, Note_on_c, 7, 53, 78
9, 284880, Note_off_c, 7, 53, 64
9, 284880, Note_on_c, 7, 56, 85
9, 284960, Note_off_c, 7, 56, 64
9, 284960, Note_on_c, 7, 55, 74
9, 285040, Note_off_c, 7, 55, 64
9, 285040, Note_on_c, 7, 53, 86
9, 285120, Note_off_c, 7, 53, 64
9, 285120, Note_on_c, 7, 55, 89
9, 285360, Note_off_c, 7, 55, 64
9, 286080, Note_on_c, 7, 55, 70
9, 286160, Note_off_c, 7, 55, 64
9, 286160, Note_on_c, 7, 59, 89
9, 286240, Note_off_c, 7, 59, 64
9, 286240, Note_on_c, 7, 60, 90
9, 286320, Note_off_c, 7, 60, 64
9, 286320, Note_on_c, 7, 62, 78
9, 286400, Note_off_c, 7, 62, 64
9, 286400, Note_on_c, 7, 64, 84
9, 286480, Note_off_c, 7, 64, 64
9, 286480, Note_on_c, 7, 66, 68
9, 286560, Note_off_c, 7, 66, 64
9, 286560, Note_on_c, 7, 67, 73
9, 286640, Note_off_c, 7, 67, 64
9, 286640, Note_on_c, 7, 66, 76
9, 286720, Note_off_c, 7, 66, 64
9, 286720, Note_on_c, 7, 67, 69
9, 286800, Note_off_c, 7, 67, 64
9, 286800, Note_on_c, 7, 71, 84
9, 286880, Note_off_c, 7, 71, 64
9, 286880, Note_on_c, 7, 69, 77
9, 286960, Note_off_c, 7, 69, 64
9, 286960, Note_on_c, 7, 67, 84
9, 287040, Note_off_c, 7, 67, 64
9, 287040, Note_on_c, 7, 72, 84
9, 287280, Note_off_c, 7, 72, 64
9, 288000, Note_on_c, 7, 48, 84
9, 288080, Note_off_c, 7, 48, 64
9, 288080, Note_on_c, 7, 51, 85
9, 288160, Note_off_c, 7, 51, 64
9, 288160, Note_on_c, 7, 53, 89
9, 288240, Note_off_c, 7, 53, 64
9, 288240, Note_on_c, 7, 55, 76
9, 288320, Note_off_c, 7, 55, 64
9, 288320, Note_on_c, 7, 56, 78
9, 288400, Note_off_c, 7, 56, 64
9, 288400, Note_on_c, 7, 58, 85
9, 288480, Note_off_c, 7, 58, 64
9, 288480, Note_on_c, 7, 60, 82
9, 288560, Note_off_c, 7, 60, 64
9, 288560, Note_on_c, 7, 59, 81
9, 288640, Note_off_c, 7, 59, 64
9, 288640, Note_on_c, 7, 60, 80
9, 288720, Note_off_c, 7, 60, 64
9, 288720, Note_on_c, 7, 63, 80
9, 288800, Note_off_c, 7, 63, 64
9, 288800, Note_on_c, 7, 60, 94
9, 288880, Note_off_c, 7, 60, 64
9, 288880, Note_on_c, 7, 55, 86
9, 288960, Note_off_c, 7, 55, 64
9, 288960, Note_on_c, 7, 54, 80
9, 289200, Note_off_c, 7, 54, 64
9, 289920, Note_on_c, 7, 42, 72
9, 290000, Note_off_c, 7, 42, 64
9, 290000, Note_on_c, 7, 45, 95
9, 290080, Note_off_c, 7, 45, 64
9, 290080, Note_on_c, 7, 48, 94
9, 290160, Note_off_c, 7, 48, 64
9, 290160, Note_on_c, 7, 51, 76
9, 290240, Note_off_c, 7, 51, 64
9, 290240, Note_on_c, 7, 54, 77
9, 290320, Note_off_c, 7, 54, 64
9, 290320, Note_on_c, 7, 57, 105
9, 290400, Note_off_c, 7, 57, 64
9, 290400, Note_on_c, 7, 60, 99
9, 290480, Note_off_c, 7, 60, 64
9, 290480, Note_on_c, 7, 57, 105
9, 290560, Note_off_c, 7, 57, 64
9, 290560, Note_on_c, 7, 54, 80
9, 290640, Note_off_c, 7, 54, 64
9, 290640, Note_on_c, 7, 60, 98
9, 290720, Note_off_c, 7, 60, 64
9, 290720, Note_on_c, 7, 57, 104
9, 290800, Note_off_c, 7, 57, 64
9, 290800, Note_on_c, 7, 54, 80
9, 290880, Note_off_c, 7, 54, 64
9, 290880, Note_on_c, 7, 55, 77
9, 290940, Note_off_c, 7, 55, 64
9, 290940, Note_on_c, 7, 59, 93
9, 291000, Note_off_c, 7, 59, 64
9, 291000, Note_on_c, 7, 62, 84
9, 291060, Note_off_c, 7, 62, 64
9, 291060, Note_on_c, 7, 67, 81
9, 291120, Note_off_c, 7, 67, 64
9, 291120, Note_on_c, 7, 59, 80
9, 291180, Note_off_c, 7, 59, 64
9, 291180, Note_on_c, 7, 62, 86
9, 291240, Note_off_c, 7, 62, 64
9, 291240, Note_on_c, 7, 67, 78
9, 291300, Note_off_c, 7, 67, 64
9, 291300, Note_on_c, 7, 71, 76
9, 291360, Note_off_c, 7, 71, 64
9, 291360, Note_on_c, 7, 62, 74
9, 291420, Note_off_c, 7, 62, 64
9, 291420, Note_on_c, 7, 67, 89
9, 291480, Note_off_c, 7, 67, 64
9, 291480, Note_on_c, 7, 71, 89
9, 291540, Note_off_c, 7, 71, 64
9, 291540, Note_on_c, 7, 74, 84
9, 291600, Note_off_c, 7, 74, 64
9, 291600, Note_on_c, 7, 67, 80
9, 291660, Note_off_c, 7, 67, 64
9, 291660, Note_on_c, 7, 71, 95
9, 291720, Note_off_c, 7, 71, 64
9, 291720, Note_on_c, 7, 74, 95
9, 291780, Note_off_c, 7, 74, 64
9, 291780, Note_on_c, 7, 79, 74
9, 291840, Note_off_c, 7, 79, 64
9, 291840, Note_on_c, 7, 60, 78
9, 291900, Note_off_c, 7, 60, 64
9, 291900, Note_on_c, 7, 63, 80
9, 291960, Note_off_c, 7, 63, 64
9, 291960, Note_on_c, 7, 67, 82
9, 292020, Note_off_c, 7, 67, 64
9, 292020, Note_on_c, 7, 72, 81
9, 292080, Note_off_c, 7, 72, 64
9, 292080, Note_on_c, 7, 63, 76
9, 292140, Note_off_c, 7, 63, 64
9, 292140, Note_on_c, 7, 67, 94
9, 292200, Note_off_c, 7, 67, 64
9, 292200, Note_on_c, 7, 72, 86
9, 292260, Note_off_c, 7, 72, 64
9, 292260, Note_on_c, 7, 75, 86
9, 292320, Note_off_c, 7, 75, 64
9, 292320, Note_on_c, 7, 67, 76
9, 292380, Note_off_c, 7, 67, 64
9, 292380, Note_on_c, 7, 72, 86
9, 292440, Note_off_c, 7, 72, 64
9, 292440, Note_on_c, 7, 75, 78
9, 292500, Note_off_c, 7, 75, 64
9, 292500, Note_on_c, 7, 79, 81
9, 292560, Note_off_c, 7, 79, 64
9, 292560, Note_on_c, 7, 72, 78
9, 292620, Note_off_c, 7, 72, 64
9, 292620, Note_on_c, 7, 75, 81
9, 292680, Note_off_c, 7, 75, 64
9, 292680, Note_on_c, 7, 79, 89
9, 292740, Note_off_c, 7, 79, 64
9, 292740, Note_on_c, 7, 84, 76
9, 292800, Note_off_c, 7, 84, 64
9, 292800, Note_on_c, 7, 71, 74
9, 292880, Note_off_c, 7, 71, 64
9, 292880, Note_on_c, 7, 74, 86
9, 292960, Note_off_c, 7, 74, 64
9, 292960, Note_on_c, 7, 83, 76
9, 293040, Note_off_c, 7, 83, 64
9, 293040, Note_on_c, 7, 72, 74
9, 293120, Note_off_c, 7, 72, 64
9, 293120, Note_on_c, 7, 75, 73
9, 293200, Note_off_c, 7, 75, 64
9, 293200, Note_on_c, 7, 84, 81
9, 293280, Note_off_c, 7, 84, 64
9, 293280, Note_on_c, 7, 74, 76
9, 293360, Note_off_c, 7, 74, 64
9, 293360, Note_on_c, 7, 77, 84
9, 293440, Note_off_c, 7, 77, 64
9, 293440, Note_on_c, 7, 86, 80
9, 293520, Note_off_c, 7, 86, 64
9, 293520, Note_on_c, 7, 71, 74
9, 293600, Note_off_c, 7, 71, 64
9, 293600, Note_on_c, 7, 74, 95
9, 293680, Note_off_c, 7, 74, 64
9, 293680, Note_on_c, 7, 83, 74
9, 293760, Note_off_c, 7, 83, 64
9, 293760, Note_on_c, 7, 72, 73
9, 293840, Note_off_c, 7, 72, 64
9, 293840, Note_on_c, 7, 75, 76
9, 293920, Note_off_c, 7, 75, 64
9, 293920, Note_on_c, 7, 84, 81
9, 294000, Note_off_c, 7, 84, 64
9, 294000, Note_on_c, 7, 74, 77
9, 294080, Note_off_c, 7, 74, 64
9, 294080, Note_on_c, 7, 77, 84
9, 294160, Note_off_c, 7, 77, 64
9, 294160, Note_on_c, 7, 86, 85
9, 294240, Note_off_c, 7, 86, 64
9, 294240, Note_on_c, 7, 75, 81
9, 294320, Note_off_c, 7, 75, 64
9, 294320, Note_on_c, 7, 79, 76
9, 294400, Note_off_c, 7, 79, 64
9, 294400, Note_on_c, 7, 87, 94
9, 294480, Note_off_c, 7, 87, 64
9, 294480, Note_on_c, 7, 72, 72
9, 294560, Note_off_c, 7, 72, 64
9, 294560, Note_on_c, 7, 75, 80
9, 294640, Note_off_c, 7, 75, 64
9, 294640, Note_on_c, 7, 84, 76
9, 294720, Note_off_c, 7, 84, 64
9, 294720, Note_on_c, 7, 71, 77
9, 294780, Note_off_c, 7, 71, 64
9, 294780, Note_on_c, 7, 74, 95
9, 294840, Note_off_c, 7, 74, 64
9, 294840, Note_on_c, 7, 79, 67
9, 294900, Note_off_c, 7, 79, 64
9, 294900, Note_on_c, 7, 83, 84
9, 294960, Note_off_c, 7, 83, 64
9, 294960, Note_on_c, 7, 67, 74
9, 295020, Note_off_c, 7, 67, 64
9, 295020, Note_on_c, 7, 71, 94
9, 295080, Note_off_c, 7, 71, 64
9, 295080, Note_on_c, 7, 74, 99
9, 295140, Note_off_c, 7, 74, 64
9, 295140, Note_on_c, 7, 79, 84
9, 295200, Note_off_c, 7, 79, 64
9, 295200, Note_on_c, 7, 62, 69
9, 295260, Note_off_c, 7, 62, 64
9, 295260, Note_on_c, 7, 67, 84
9, 295320, Note_off_c, 7, 67, 64
9, 295320, Note_on_c, 7, 71, 93
9, 295380, Note_off_c, 7, 71, 64
9, 295380, Note_on_c, 7, 74, 89
9, 295440, Note_off_c, 7, 74, 64
9, 295440, Note_on_c, 7, 59, 81
9, 295500, Note_off_c, 7, 59, 64
9, 295500, Note_on_c, 7, 62, 89
9, 295560, Note_off_c, 7, 62, 64
9, 295560, Note_on_c, 7, 67, 84
9, 295620, Note_off_c, 7, 67, 64
9, 295620, Note_on_c, 7, 71, 81
9, 295680, Note_off_c, 7, 71, 64
9, 295680, Note_on_c, 7, 60, 78
9, 295740, Note_off_c, 7, 60, 64
9, 295740, Note_on_c, 7, 63, 73
9, 295800, Note_off_c, 7, 63, 64
9, 295800, Note_on_c, 7, 67, 95
9, 295860, Note_off_c, 7, 67, 64
9, 295860, Note_on_c, 7, 72, 78
9, 295920, Note_off_c, 7, 72, 64
9, 295920, Note_on_c, 7, 55, 68
9, 295980, Note_off_c, 7, 55, 64
9, 295980, Note_on_c, 7, 60, 85
9, 296040, Note_off_c, 7, 60, 64
9, 296040, Note_on_c, 7, 63, 74
9, 296100, Note_off_c, 7, 63, 64
9, 296100, Note_on_c, 7, 67, 86
9, 296160, Note_off_c, 7, 67, 64
9, 296160, Note_on_c, 7, 51, 93
9, 296220, Note_off_c, 7, 51, 64
9, 296220, Note_on_c, 7, 55, 94
9, 296280, Note_off_c, 7, 55, 64
9, 296280, Note_on_c, 7, 60, 93
9, 296340, Note_off_c, 7, 60, 64
9, 296340, Note_on_c, 7, 63, 84
9, 296400, Note_off_c, 7, 63, 64
9, 296400, Note_on_c, 7, 48, 78
9, 296460, Note_off_c, 7, 48, 64
9, 296460, Note_on_c, 7, 51, 80
9, 296520, Note_off_c, 7, 51, 64
9, 296520, Note_on_c, 7, 55, 94
9, 296580, Note_off_c, 7, 55, 64
9, 296580, Note_on_c, 7, 60, 94
9, 296640, Note_off_c, 7, 60, 64
9, 296640, Note_on_c, 7, 47, 89
9, 296720, Note_off_c, 7, 47, 64
9, 296720, Note_on_c, 7, 50, 85
9, 296800, Note_off_c, 7, 50, 64
9, 296800, Note_on_c, 7, 59, 93
9, 296880, Note_off_c, 7, 59, 64
9, 296880, Note_on_c, 7, 48, 95
9, 296960, Note_off_c, 7, 48, 64
9, 296960, Note_on_c, 7, 51, 77
9, 297040, Note_off_c, 7, 51, 64
9, 297040, Note_on_c, 7, 60, 81
9, 297120, Note_off_c, 7, 60, 64
9, 297120, Note_on_c, 7, 50, 86
9, 297200, Note_off_c, 7, 50, 64
9, 297200, Note_on_c, 7, 53, 76
9, 297280, Note_off_c, 7, 53, 64
9, 297280, Note_on_c, 7, 62, 80
9, 297360, Note_off_c, 7, 62, 64
9, 297360, Note_on_c, 7, 47, 86
9, 297440, Note_off_c, 7, 47, 64
9, 297440, Note_on_c, 7, 50, 82
9, 297520, Note_off_c, 7, 50, 64
9, 297520, Note_on_c, 7, 59, 85
9, 297600, Note_off_c, 7, 59, 64
9, 297600, Note_on_c, 7, 48, 99
9, 297680, Note_off_c, 7, 48, 64
9, 297680, Note_on_c, 7, 51, 74
9, 297760, Note_off_c, 7, 51, 64
9, 297760, Note_on_c, 7, 60, 73
9, 297840, Note_off_c, 7, 60, 64
9, 297840, Note_on_c, 7, 50, 94
9, 297920, Note_off_c, 7, 50, 64
9, 297920, Note_on_c, 7, 53, 73
9, 298000, Note_off_c, 7, 53, 64
9, 298000, Note_on_c, 7, 62, 80
9, 298080, Note_off_c, 7, 62, 64
9, 298080, Note_on_c, 7, 51, 80
9, 298160, Note_off_c, 7, 51, 64
9, 298160, Note_on_c, 7, 55, 77
9, 298240, Note_off_c, 7, 55, 64
9, 298240, Note_on_c, 7, 63, 84
9, 298320, Note_off_c, 7, 63, 64
9, 298320, Note_on_c, 7, 48, 94
9, 298400, Note_off_c, 7, 48, 64
9, 298400, Note_on_c, 7, 51, 76
9, 298480, Note_off_c, 7, 51, 64
9, 298480, Note_on_c, 7, 60, 85
9, 298560, Note_off_c, 7, 60, 64
9, 298560, Note_on_c, 7, 59, 74
9, 298560, Note_on_c, 7, 50, 95
9, 298560, Note_on_c, 7, 47, 80
9, 298800, Note_off_c, 7, 47, 64
9, 298800, Note_off_c, 7, 50, 64
9, 298800, Note_off_c, 7, 59, 64
9, 300480, Note_on_c, 7, 86, 90
9, 300560, Note_off_c, 7, 86, 64
9, 300560, Note_on_c, 7, 85, 76
9, 300640, Note_off_c, 7, 85, 64
9, 300640, Note_on_c, 7, 84, 73
9, 300720, Note_off_c, 7, 84, 64
9, 300720, Note_on_c, 7, 83, 77
9, 300800, Note_off_c, 7, 83, 64
9, 300800, Note_on_c, 7, 82, 72
9, 300880, Note_off_c, 7, 82, 64
9, 300880, Note_on_c, 7, 81, 82
9, 300960, Note_off_c, 7, 81, 64
9, 300960, Note_on_c, 7, 80, 73
9, 301040, Note_off_c, 7, 80, 64
9, 301040, Note_on_c, 7, 79, 81
9, 301120, Note_off_c, 7, 79, 64
9, 301120, Note_on_c, 7, 78, 65
9, 301200, Note_off_c, 7, 78, 64
9, 301200, Note_on_c, 7, 77, 68
9, 301280, Note_off_c, 7, 77, 64
9, 301280, Note_on_c, 7, 76, 62
9, 301360, Note_off_c, 7, 76, 64
9, 301360, Note_on_c, 7, 75, 80
9, 301440, Note_off_c, 7, 75, 64
9, 301440, Note_on_c, 7, 74, 80
9, 301520, Note_off_c, 7, 74, 64
9, 301520, Note_on_c, 7, 73, 63
9, 301600, Note_off_c, 7, 73, 64
9, 301600, Note_on_c, 7, 72, 70
9, 301680, Note_off_c, 7, 72, 64
9, 301680, Note_on_c, 7, 71, 69
9, 301760, Note_off_c, 7, 71, 64
9, 301760, Note_on_c, 7, 70, 69
9, 301840, Note_off_c, 7, 70, 64
9, 301840, Note_on_c, 7, 69, 81
9, 301920, Note_off_c, 7, 69, 64
9, 301920, Note_on_c, 7, 68, 71
9, 302000, Note_off_c, 7, 68, 64
9, 302000, Note_on_c, 7, 67, 72
9, 302080, Note_off_c, 7, 67, 64
9, 302080, Note_on_c, 7, 66, 74
9, 302160, Note_off_c, 7, 66, 64
9, 302160, Note_on_c, 7, 65, 71
9, 302220, Note_off_c, 7, 65, 64
9, 302220, Note_on_c, 7, 64, 71
9, 302280, Note_off_c, 7, 64, 64
9, 302280, Note_on_c, 7, 63, 84
9, 302340, Note_off_c, 7, 63, 64
9, 302340, Note_on_c, 7, 62, 73
9, 302400, Note_off_c, 7, 62, 64
9, 302400, Note_on_c, 7, 60, 84
9, 302640, Note_off_c, 7, 60, 64
9, 304320, Note_on_c, 7, 87, 80
9, 304400, Note_off_c, 7, 87, 64
9, 304400, Note_on_c, 7, 86, 80
9, 304480, Note_off_c, 7, 86, 64
9, 304480, Note_on_c, 7, 84, 78
9, 304560, Note_off_c, 7, 84, 64
9, 304560, Note_on_c, 7, 83, 76
9, 304640, Note_off_c, 7, 83, 64
9, 304640, Note_on_c, 7, 82, 69
9, 304720, Note_off_c, 7, 82, 64
9, 304720, Note_on_c, 7, 81, 74
9, 304800, Note_off_c, 7, 81, 64
9, 304800, Note_on_c, 7, 80, 76
9, 304880, Note_off_c, 7, 80, 64
9, 304880, Note_on_c, 7, 79, 80
9, 304960, Note_off_c, 7, 79, 64
9, 304960, Note_on_c, 7, 78, 74
9, 305040, Note_off_c, 7, 78, 64
9, 305040, Note_on_c, 7, 77, 73
9, 305120, Note_off_c, 7, 77, 64
9, 305120, Note_on_c, 7, 76, 80
9, 305200, Note_off_c, 7, 76, 64
9, 305200, Note_on_c, 7, 75, 80
9, 305280, Note_off_c, 7, 75, 64
9, 305280, Note_on_c, 7, 74, 52
9, 305360, Note_off_c, 7, 74, 64
9, 305360, Note_on_c, 7, 73, 65
9, 305440, Note_off_c, 7, 73, 64
9, 305440, Note_on_c, 7, 72, 71
9, 305520, Note_off_c, 7, 72, 64
9, 305520, Note_on_c, 7, 71, 81
9, 305600, Note_off_c, 7, 71, 64
9, 305600, Note_on_c, 7, 70, 80
9, 305680, Note_off_c, 7, 70, 64
9, 305680, Note_on_c, 7, 69, 77
9, 305760, Note_off_c, 7, 69, 64
9, 305760, Note_on_c, 7, 68, 73
9, 305840, Note_off_c, 7, 68, 64
9, 305840, Note_on_c, 7, 67, 68
9, 305920, Note_off_c, 7, 67, 64
9, 305920, Note_on_c, 7, 66, 76
9, 306000, Note_off_c, 7, 66, 64
9, 306000, Note_on_c, 7, 65, 76
9, 306080, Note_off_c, 7, 65, 64
9, 306080, Note_on_c, 7, 64, 69
9, 306160, Note_off_c, 7, 64, 64
9, 306160, Note_on_c, 7, 63, 76
9, 306240, Note_off_c, 7, 63, 64
9, 306240, Note_on_c, 7, 62, 86
9, 306480, Note_off_c, 7, 62, 64
9, 308160, Note_on_c, 7, 89, 81
9, 308240, Note_off_c, 7, 89, 64
9, 308240, Note_on_c, 7, 88, 73
9, 308320, Note_off_c, 7, 88, 64
9, 308320, Note_on_c, 7, 87, 81
9, 308400, Note_off_c, 7, 87, 64
9, 308400, Note_on_c, 7, 86, 76
9, 308480, Note_off_c, 7, 86, 64
9, 308480, Note_on_c, 7, 85, 84
9, 308560, Note_off_c, 7, 85, 64
9, 308560, Note_on_c, 7, 84, 73
9, 308640, Note_off_c, 7, 84, 64
9, 308640, Note_on_c, 7, 83, 76
9, 308720, Note_off_c, 7, 83, 64
9, 308720, Note_on_c, 7, 82, 69
9, 308800, Note_off_c, 7, 82, 64
9, 308800, Note_on_c, 7, 81, 74
9, 308880, Note_off_c, 7, 81, 64
9, 308880, Note_on_c, 7, 80, 69
9, 308960, Note_off_c, 7, 80, 64
9, 308960, Note_on_c, 7, 79, 71
9, 309040, Note_off_c, 7, 79, 64
9, 309040, Note_on_c, 7, 78, 61
9, 309120, Note_off_c, 7, 78, 64
9, 309120, Note_on_c, 7, 77, 73
9, 309200, Note_off_c, 7, 77, 64
9, 309200, Note_on_c, 7, 76, 73
9, 309280, Note_off_c, 7, 76, 64
9, 309280, Note_on_c, 7, 75, 77
9, 309360, Note_off_c, 7, 75, 64
9, 309360, Note_on_c, 7, 74, 74
9, 309440, Note_off_c, 7, 74, 64
9, 309440, Note_on_c, 7, 73, 72
9, 309520, Note_off_c, 7, 73, 64
9, 309520, Note_on_c, 7, 72, 76
9, 309600, Note_off_c, 7, 72, 64
9, 309600, Note_on_c, 7, 71, 84
9, 309840, Note_off_c, 7, 71, 64
9, 309840, Note_on_c, 7, 71, 86
9, 310080, Note_off_c, 7, 71, 64
9, 310080, Note_on_c, 7, 72, 76
9, 310160, Note_off_c, 7, 72, 64
9, 310160, Note_on_c, 7, 73, 74
9, 310240, Note_off_c, 7, 73, 64
9, 310240, Note_on_c, 7, 74, 80
9, 310320, Note_off_c, 7, 74, 64
9, 310320, Note_on_c, 7, 75, 80
9, 310400, Note_off_c, 7, 75, 64
9, 310400, Note_on_c, 7, 76, 80
9, 310480, Note_off_c, 7, 76, 64
9, 310480, Note_on_c, 7, 77, 71
9, 310560, Note_off_c, 7, 77, 64
9, 310560, Note_on_c, 7, 78, 49
9, 310640, Note_off_c, 7, 78, 64
9, 310640, Note_on_c, 7, 79, 59
9, 310720, Note_off_c, 7, 79, 64
9, 310720, Note_on_c, 7, 80, 66
9, 310800, Note_off_c, 7, 80, 64
9, 310800, Control_c, 7, 7, 101
9, 310800, Control_c, 7, 10, 64
9, 310800, Control_c, 7, 93, 0
9, 310800, Control_c, 7, 91, 66
9, 310800, Note_on_c, 7, 81, 72
9, 310880, Note_off_c, 7, 81, 64
9, 310880, Note_on_c, 7, 82, 67
9, 310960, Note_off_c, 7, 82, 64
9, 310960, Note_on_c, 7, 83, 84
9, 311040, Note_off_c, 7, 83, 64
9, 311040, Control_c, 7, 7, 103
9, 311040, Control_c, 7, 10, 64
9, 311040, Control_c, 7, 93, 0
9, 311040, Control_c, 7, 91, 66
9, 311040, Note_on_c, 7, 84, 77
9, 311120, Note_off_c, 7, 84, 64
9, 311120, Note_on_c, 7, 85, 81
9, 311200, Note_off_c, 7, 85, 64
9, 311200, Note_on_c, 7, 86, 89
9, 311280, Note_off_c, 7, 86, 64
9, 311280, Control_c, 7, 7, 105
9, 311280, Control_c, 7, 10, 64
9, 311280, Control_c, 7, 93, 0
9, 311280, Control_c, 7, 91, 66
9, 311280, Note_on_c, 7, 87, 81
9, 311520, Note_off_c, 7, 87, 64
9, 311520, Control_c, 7, 7, 107
9, 311520, Control_c, 7, 10, 64
9, 311520, Control_c, 7, 93, 0
9, 311520, Control_c, 7, 91, 66
9, 311520, Note_on_c, 7, 87, 81
9, 311760, Note_off_c, 7, 87, 64
9, 311760, Note_on_c, 7, 87, 81
9, 311760, Control_c, 7, 7, 109
9, 311760, Control_c, 7, 10, 64
9, 311760, Control_c, 7, 93, 0
9, 311760, Control_c, 7, 91, 66
9, 312000, Note_off_c, 7, 87, 64
9, 312000, Control_c, 7, 7, 111
9, 312000, Control_c, 7, 10, 64
9, 312000, Control_c, 7, 93, 0
9, 312000, Control_c, 7, 91, 66
9, 312000, Note_on_c, 7, 87, 89
9, 312240, Control_c, 7, 7, 114
9, 312240, Control_c, 7, 10, 64
9, 312240, Control_c, 7, 93, 0
9, 312240, Control_c, 7, 91, 66
9, 312480, Control_c, 7, 7, 117
9, 312480, Control_c, 7, 10, 64
9, 312480, Control_c, 7, 93, 0
9, 312480, Control_c, 7, 91, 66
9, 312720, Note_off_c, 7, 87, 64
9, 312720, Control_c, 7, 7, 120
9, 312720, Control_c, 7, 10, 64
9, 312720, Control_c, 7, 93, 0
9, 312720, Control_c, 7, 91, 66
9, 312720, Note_on_c, 7, 86, 61
9, 312780, Note_off_c, 7, 86, 64
9, 312780, Note_on_c, 7, 87, 43
9, 312840, Note_off_c, 7, 87, 64
9, 312840, Note_on_c, 7, 86, 45
9, 312900, Note_off_c, 7, 86, 64
9, 312900, Note_on_c, 7, 87, 64
9, 312960, Note_off_c, 7, 87, 64
9, 312960, Note_on_c, 7, 89, 76
9, 313200, Note_off_c, 7, 89, 64
9, 313200, Note_on_c, 7, 87, 77
9, 313440, Note_off_c, 7, 87, 64
9, 313440, Note_on_c, 7, 86, 80
9, 313680, Note_off_c, 7, 86, 64
9, 313680, Note_on_c, 7, 84, 76
9, 313920, Note_off_c, 7, 84, 64
9, 313920, Note_on_c, 7, 83, 74
9, 314000, Note_off_c, 7, 83, 64
9, 314000, Note_on_c, 7, 74, 85
9, 314080, Note_off_c, 7, 74, 64
9, 314080, Note_on_c, 7, 75, 84
9, 314160, Note_off_c, 7, 75, 64
9, 314160, Note_on_c, 7, 77, 84
9, 314240, Note_off_c, 7, 77, 64
9, 314240, Note_on_c, 7, 74, 82
9, 314320, Note_off_c, 7, 74, 64
9, 314320, Note_on_c, 7, 72, 72
9, 314400, Note_off_c, 7, 72, 64
9, 314400, Note_on_c, 7, 71, 74
9, 314480, Note_off_c, 7, 71, 64
9, 314480, Note_on_c, 7, 74, 86
9, 314560, Note_off_c, 7, 74, 64
9, 314560, Note_on_c, 7, 75, 77
9, 314640, Note_off_c, 7, 75, 64
9, 314640, Note_on_c, 7, 77, 78
9, 314720, Note_off_c, 7, 77, 64
9, 314720, Note_on_c, 7, 74, 80
9, 314800, Note_off_c, 7, 74, 64
9, 314800, Note_on_c, 7, 72, 71
9, 314880, Note_off_c, 7, 72, 64
9, 314880, Note_on_c, 7, 71, 76
9, 314960, Note_off_c, 7, 71, 64
9, 314960, Note_on_c, 7, 74, 84
9, 315040, Note_off_c, 7, 74, 64
9, 315040, Note_on_c, 7, 75, 76
9, 315120, Note_off_c, 7, 75, 64
9, 315120, Note_on_c, 7, 77, 76
9, 315200, Note_off_c, 7, 77, 64
9, 315200, Note_on_c, 7, 74, 73
9, 315280, Note_off_c, 7, 74, 64
9, 315280, Note_on_c, 7, 72, 69
9, 315360, Note_off_c, 7, 72, 64
9, 315360, Note_on_c, 7, 71, 74
9, 315440, Note_off_c, 7, 71, 64
9, 315440, Note_on_c, 7, 74, 82
9, 315520, Note_off_c, 7, 74, 64
9, 315520, Note_on_c, 7, 75, 76
9, 315600, Note_off_c, 7, 75, 64
9, 315600, Note_on_c, 7, 77, 67
9, 315680, Note_off_c, 7, 77, 64
9, 315680, Note_on_c, 7, 74, 72
9, 315760, Note_off_c, 7, 74, 64
9, 315760, Note_on_c, 7, 72, 69
9, 315840, Note_off_c, 7, 72, 64
9, 315840, Note_on_c, 7, 71, 76
9, 315920, Note_off_c, 7, 71, 64
9, 315920, Note_on_c, 7, 74, 84
9, 316000, Note_off_c, 7, 74, 64
9, 316000, Note_on_c, 7, 75, 76
9, 316080, Note_off_c, 7, 75, 64
9, 316080, Note_on_c, 7, 77, 67
9, 316160, Note_off_c, 7, 77, 64
9, 316160, Note_on_c, 7, 79, 80
9, 316240, Note_off_c, 7, 79, 64
9, 316240, Note_on_c, 7, 80, 74
9, 316320, Note_off_c, 7, 80, 64
9, 316320, Note_on_c, 7, 83, 72
9, 316400, Note_off_c, 7, 83, 64
9, 316400, Note_on_c, 7, 86, 89
9, 316480, Note_off_c, 7, 86, 64
9, 316480, Note_on_c, 7, 87, 82
9, 316560, Note_off_c, 7, 87, 64
9, 316560, Note_on_c, 7, 89, 73
9, 316640, Note_off_c, 7, 89, 64
9, 316640, Note_on_c, 7, 86, 84
9, 316720, Note_off_c, 7, 86, 64
9, 316720, Note_on_c, 7, 84, 77
9, 316800, Note_off_c, 7, 84, 64
9, 316800, Note_on_c, 7, 83, 77
9, 316880, Note_off_c, 7, 83, 64
9, 316880, Note_on_c, 7, 86, 90
9, 316960, Note_off_c, 7, 86, 64
9, 316960, Note_on_c, 7, 87, 76
9, 317040, Note_off_c, 7, 87, 64
9, 317040, Note_on_c, 7, 89, 76
9, 317120, Note_off_c, 7, 89, 64
9, 317120, Note_on_c, 7, 86, 89
9, 317200, Note_off_c, 7, 86, 64
9, 317200, Note_on_c, 7, 84, 65
9, 317280, Note_off_c, 7, 84, 64
9, 317280, Note_on_c, 7, 83, 76
9, 317360, Note_off_c, 7, 83, 64
9, 317360, Note_on_c, 7, 86, 84
9, 317440, Note_off_c, 7, 86, 64
9, 317440, Note_on_c, 7, 87, 70
9, 317520, Note_off_c, 7, 87, 64
9, 317520, Note_on_c, 7, 89, 71
9, 317600, Note_off_c, 7, 89, 64
9, 317600, Note_on_c, 7, 86, 84
9, 317680, Note_off_c, 7, 86, 64
9, 317680, Note_on_c, 7, 84, 72
9, 317760, Note_off_c, 7, 84, 64
9, 317760, Note_on_c, 7, 83, 72
9, 317840, Note_off_c, 7, 83, 64
9, 317840, Note_on_c, 7, 86, 89
9, 317920, Note_off_c, 7, 86, 64
9, 317920, Note_on_c, 7, 87, 69
9, 318000, Note_off_c, 7, 87, 64
9, 318000, Note_on_c, 7, 89, 62
9, 318080, Note_off_c, 7, 89, 64
9, 318080, Note_on_c, 7, 86, 80
9, 318160, Note_off_c, 7, 86, 64
9, 318160, Note_on_c, 7, 84, 73
9, 318240, Note_off_c, 7, 84, 64
9, 318240, Note_on_c, 7, 83, 65
9, 318320, Note_off_c, 7, 83, 64
9, 318320, Note_on_c, 7, 86, 66
9, 318400, Note_off_c, 7, 86, 64
9, 318400, Note_on_c, 7, 87, 67
9, 318480, Note_off_c, 7, 87, 64
9, 318480, Note_on_c, 7, 89, 73
9, 318560, Note_off_c, 7, 89, 64
9, 318560, Note_on_c, 7, 86, 63
9, 318640, Note_off_c, 7, 86, 64
9, 318640, Note_on_c, 7, 84, 59
9, 318720, Note_off_c, 7, 84, 64
9, 318720, Note_on_c, 7, 83, 45
9, 318800, Note_off_c, 7, 83, 64
9, 318800, Note_on_c, 7, 86, 44
9, 318880, Note_off_c, 7, 86, 64
9, 318880, Note_on_c, 7, 87, 61
9, 318960, Note_off_c, 7, 87, 64
9, 318960, Note_on_c, 7, 89, 43
9, 319040, Note_off_c, 7, 89, 64
9, 319040, Note_on_c, 7, 86, 39
9, 319120, Note_off_c, 7, 86, 64
9, 319120, Note_on_c, 7, 84, 40
9, 319200, Note_off_c, 7, 84, 64
9, 319200, Note_on_c, 7, 83, 36
9, 319280, Note_off_c, 7, 83, 64
9, 319280, Note_on_c, 7, 86, 36
9, 319360, Note_off_c, 7, 86, 64
9, 319360, Note_on_c, 7, 87, 32
9, 319440, Note_off_c, 7, 87, 64
9, 319440, Note_on_c, 7, 89, 35
9, 319520, Note_off_c, 7, 89, 64
9, 319520, Note_on_c, 7, 86, 40
9, 319600, Note_off_c, 7, 86, 64
9, 319600, Note_on_c, 7, 84, 33
9, 319680, Note_off_c, 7, 84, 64
9, 319680, Note_on_c, 7, 83, 32
9, 319920, Note_off_c, 7, 83, 64
9, 320640, Note_on_c, 7, 87, 33
9, 320640, Note_on_c, 7, 84, 43
9, 320640, Note_on_c, 7, 81, 38
9, 320640, Note_on_c, 7, 78, 33
9, 320644, Control_c, 7, 64, 1
9, 320656, Control_c, 7, 64, 3
9, 320660, Control_c, 7, 64, 7
9, 320664, Control_c, 7, 64, 9
9, 320672, Control_c, 7, 64, 15
9, 320676, Control_c, 7, 64, 21
9, 320680, Control_c, 7, 64, 28
9, 320684, Control_c, 7, 64, 35
9, 320688, Control_c, 7, 64, 37
9, 320692, Control_c, 7, 64, 43
9, 320696, Control_c, 7, 64, 46
9, 320700, Control_c, 7, 64, 50
9, 320704, Control_c, 7, 64, 52
9, 320712, Control_c, 7, 64, 56
9, 320716, Control_c, 7, 64, 60
9, 320732, Control_c, 7, 64, 66
9, 320736, Control_c, 7, 64, 69
9, 320740, Control_c, 7, 64, 73
9, 320744, Control_c, 7, 64, 79
9, 320756, Control_c, 7, 64, 83
9, 320760, Control_c, 7, 64, 86
9, 320768, Control_c, 7, 64, 89
9, 320772, Control_c, 7, 64, 93
9, 320780, Control_c, 7, 64, 96
9, 320792, Control_c, 7, 64, 100
9, 320796, Control_c, 7, 64, 103
9, 320804, Control_c, 7, 64, 106
9, 320812, Control_c, 7, 64, 108
9, 320820, Control_c, 7, 64, 110
9, 320828, Control_c, 7, 64, 112
9, 320836, Control_c, 7, 64, 114
9, 320844, Control_c, 7, 64, 116
9, 320852, Control_c, 7, 64, 117
9, 320856, Control_c, 7, 64, 118
9, 320868, Control_c, 7, 64, 120
9, 320876, Control_c, 7, 64, 121
9, 320880, Control_c, 7, 64, 122
9, 320892, Control_c, 7, 64, 123
9, 320920, Control_c, 7, 64, 124
9, 321068, Control_c, 7, 64, 123
9, 321120, Note_off_c, 7, 78, 64
9, 321120, Note_off_c, 7, 81, 64
9, 321120, Note_off_c, 7, 84, 64
9, 321120, Note_off_c, 7, 87, 64
9, 321120, Note_on_c, 7, 87, 29
9, 321120, Note_on_c, 7, 84, 29
9, 321120, Note_on_c, 7, 81, 33
9, 321120, Note_on_c, 7, 78, 29
9, 321288, Control_c, 7, 64, 124
9, 321360, Note_off_c, 7, 78, 64
9, 321360, Note_off_c, 7, 81, 64
9, 321360, Note_off_c, 7, 84, 64
9, 321360, Note_off_c, 7, 87, 64
9, 321360, Note_on_c, 7, 87, 29
9, 321360, Note_on_c, 7, 84, 29
9, 321360, Note_on_c, 7, 81, 38
9, 321360, Note_on_c, 7, 78, 38
9, 321572, Control_c, 7, 64, 125
9, 321600, Note_off_c, 7, 78, 64
9, 321600, Note_off_c, 7, 81, 64
9, 321600, Note_off_c, 7, 84, 64
9, 321600, Note_off_c, 7, 87, 64
9, 321600, Note_on_c, 7, 86, 38
9, 321600, Note_on_c, 7, 83, 38
9, 321600, Note_on_c, 7, 80, 42
9, 321600, Note_on_c, 7, 77, 45
9, 321840, Note_off_c, 7, 77, 64
9, 321840, Note_off_c, 7, 80, 64
9, 321840, Note_off_c, 7, 83, 64
9, 321840, Note_off_c, 7, 86, 64
9, 322492, Control_c, 7, 64, 127
9, 322560, Note_on_c, 7, 85, 43
9, 322560, Note_on_c, 7, 82, 35
9, 322560, Note_on_c, 7, 79, 38
9, 322560, Note_on_c, 7, 76, 43
9, 322836, Control_c, 7, 64, 121
9, 323040, Note_off_c, 7, 76, 64
9, 323040, Note_off_c, 7, 79, 64
9, 323040, Note_off_c, 7, 82, 64
9, 323040, Note_off_c, 7, 85, 64
9, 323040, Note_on_c, 7, 85, 41
9, 323040, Note_on_c, 7, 82, 41
9, 323040, Note_on_c, 7, 79, 38
9, 323040, Note_on_c, 7, 76, 43
9, 323240, Control_c, 7, 64, 122
9, 323256, Control_c, 7, 64, 123
9, 323280, Note_off_c, 7, 76, 64
9, 323280, Note_off_c, 7, 79, 64
9, 323280, Note_off_c, 7, 82, 64
9, 323280, Note_off_c, 7, 85, 64
9, 323280, Note_on_c, 7, 85, 35
9, 323280, Note_on_c, 7, 82, 35
9, 323280, Note_on_c, 7, 79, 40
9, 323280, Note_on_c, 7, 76, 41
9, 323320, Control_c, 7, 64, 125
9, 323416, Control_c, 7, 64, 126
9, 323520, Note_off_c, 7, 76, 64
9, 323520, Note_off_c, 7, 79, 64
9, 323520, Note_off_c, 7, 82, 64
9, 323520, Note_off_c, 7, 85, 64
9, 323520, Note_on_c, 7, 84, 38
9, 323520, Note_on_c, 7, 81, 39
9, 323520, Note_on_c, 7, 78, 43
9, 323520, Note_on_c, 7, 75, 29
9, 323760, Note_off_c, 7, 75, 64
9, 323760, Note_off_c, 7, 78, 64
9, 323760, Note_off_c, 7, 81, 64
9, 323760, Note_off_c, 7, 84, 64
9, 323868, Control_c, 7, 64, 125
9, 323940, Control_c, 7, 64, 124
9, 324268, Control_c, 7, 64, 123
9, 324344, Control_c, 7, 64, 124
9, 324404, Control_c, 7, 64, 125
9, 324480, Note_on_c, 7, 83, 43
9, 324480, Note_on_c, 7, 80, 37
9, 324480, Note_on_c, 7, 77, 39
9, 324480, Note_on_c, 7, 74, 42
9, 324508, Control_c, 7, 64, 126
9, 324524, Control_c, 7, 64, 127
9, 324772, Control_c, 7, 64, 119
9, 324780, Control_c, 7, 64, 120
9, 324960, Note_off_c, 7, 74, 64
9, 324960, Note_off_c, 7, 77, 64
9, 324960, Note_off_c, 7, 80, 64
9, 324960, Note_off_c, 7, 83, 64
9, 324960, Note_on_c, 7, 83, 40
9, 324960, Note_on_c, 7, 80, 36
9, 324960, Note_on_c, 7, 77, 43
9, 324960, Note_on_c, 7, 74, 41
9, 324996, Control_c, 7, 64, 122
9, 325048, Control_c, 7, 64, 123
9, 325080, Control_c, 7, 64, 124
9, 325184, Control_c, 7, 64, 126
9, 325200, Note_off_c, 7, 74, 64
9, 325200, Note_off_c, 7, 77, 64
9, 325200, Note_off_c, 7, 80, 64
9, 325200, Note_off_c, 7, 83, 64
9, 325200, Note_on_c, 7, 83, 38
9, 325200, Note_on_c, 7, 80, 36
9, 325200, Note_on_c, 7, 77, 39
9, 325200, Note_on_c, 7, 74, 40
9, 325272, Control_c, 7, 64, 127
9, 325440, Note_off_c, 7, 74, 64
9, 325440, Note_off_c, 7, 77, 64
9, 325440, Note_off_c, 7, 80, 64
9, 325440, Note_off_c, 7, 83, 64
9, 325440, Note_on_c, 7, 74, 43
9, 325470, Note_off_c, 7, 74, 64
9, 325470, Note_on_c, 7, 77, 38
9, 325500, Note_off_c, 7, 77, 64
9, 325500, Note_on_c, 7, 79, 40
9, 325530, Note_off_c, 7, 79, 64
9, 325530, Note_on_c, 7, 83, 53
9, 325560, Note_off_c, 7, 83, 64
9, 325768, Control_c, 7, 64, 126
9, 325800, Control_c, 7, 64, 125
9, 325824, Control_c, 7, 64, 124
9, 325832, Control_c, 7, 64, 123
9, 325864, Control_c, 7, 64, 122
9, 325964, Control_c, 7, 64, 121
9, 325976, Control_c, 7, 64, 118
9, 326400, Control_c, 7, 64, 119
9, 326400, Note_on_c, 7, 77, 40
9, 326412, Control_c, 7, 64, 120
9, 326430, Note_off_c, 7, 77, 64
9, 326430, Note_on_c, 7, 79, 40
9, 326460, Note_off_c, 7, 79, 64
9, 326460, Note_on_c, 7, 83, 43
9, 326476, Control_c, 7, 64, 122
9, 326488, Control_c, 7, 64, 123
9, 326490, Note_off_c, 7, 83, 64
9, 326490, Note_on_c, 7, 86, 46
9, 326520, Note_off_c, 7, 86, 64
9, 326584, Control_c, 7, 64, 124
9, 326596, Control_c, 7, 64, 125
9, 326752, Control_c, 7, 64, 124
9, 326856, Control_c, 7, 64, 122
9, 326928, Control_c, 7, 64, 121
9, 326992, Control_c, 7, 64, 120
9, 327240, Control_c, 7, 64, 119
9, 327244, Control_c, 7, 64, 115
9, 327320, Control_c, 7, 64, 116
9, 327360, Note_on_c, 7, 74, 38
9, 327390, Note_off_c, 7, 74, 64
9, 327390, Note_on_c, 7, 77, 38
9, 327420, Note_off_c, 7, 77, 64
9, 327420, Note_on_c, 7, 79, 42
9, 327450, Note_off_c, 7, 79, 64
9, 327450, Note_on_c, 7, 83, 45
9, 327480, Note_off_c, 7, 83, 64
9, 327520, Control_c, 7, 64, 117
9, 327624, Control_c, 7, 64, 116
9, 328028, Control_c, 7, 64, 117
9, 328096, Control_c, 7, 64, 118
9, 328320, Control_c, 7, 64, 119
9, 328320, Note_on_c, 7, 77, 36
9, 328348, Control_c, 7, 64, 120
9, 328350, Note_off_c, 7, 77, 64
9, 328350, Note_on_c, 7, 79, 41
9, 328380, Note_off_c, 7, 79, 64
9, 328380, Note_on_c, 7, 83, 43
9, 328400, Control_c, 7, 64, 121
9, 328410, Note_off_c, 7, 83, 64
9, 328410, Note_on_c, 7, 86, 44
9, 328412, Control_c, 7, 64, 122
9, 328440, Note_off_c, 7, 86, 64
9, 328672, Control_c, 7, 64, 121
9, 328732, Control_c, 7, 64, 120
9, 328744, Control_c, 7, 64, 119
9, 328832, Control_c, 7, 64, 116
9, 328872, Control_c, 7, 64, 115
9, 329040, Control_c, 7, 64, 114
9, 329080, Control_c, 7, 64, 113
9, 329132, Control_c, 7, 64, 112
9, 329144, Control_c, 7, 64, 109
9, 329172, Control_c, 7, 64, 108
9, 329280, Note_on_c, 7, 89, 127
9, 329280, Note_on_c, 7, 77, 123
9, 329344, Control_c, 7, 64, 109
9, 329496, Control_c, 7, 64, 112
9, 329608, Control_c, 7, 64, 113
9, 329636, Control_c, 7, 64, 114
9, 329692, Control_c, 7, 64, 115
9, 329760, Note_off_c, 7, 77, 64
9, 329760, Note_off_c, 7, 89, 64
9, 329820, Note_on_c, 7, 88, 123
9, 329820, Note_on_c, 7, 76, 119
9, 329840, Control_c, 7, 64, 116
9, 329880, Note_off_c, 7, 76, 64
9, 329880, Note_off_c, 7, 88, 64
9, 329880, Note_on_c, 7, 86, 125
9, 329880, Note_on_c, 7, 74, 123
9, 329940, Note_off_c, 7, 74, 64
9, 329940, Note_off_c, 7, 86, 64
9, 329940, Note_on_c, 7, 84, 115
9, 329940, Note_on_c, 7, 72, 112
9, 330000, Note_off_c, 7, 72, 64
9, 330000, Note_off_c, 7, 84, 64
9, 330000, Note_on_c, 7, 83, 119
9, 330000, Note_on_c, 7, 71, 123
9, 330060, Note_off_c, 7, 71, 64
9, 330060, Note_off_c, 7, 83, 64
9, 330060, Note_on_c, 7, 81, 119
9, 330060, Note_on_c, 7, 69, 125
9, 330120, Note_off_c, 7, 69, 64
9, 330120, Note_off_c, 7, 81, 64
9, 330120, Note_on_c, 7, 79, 119
9, 330120, Note_on_c, 7, 67, 123
9, 330180, Note_off_c, 7, 67, 64
9, 330180, Note_off_c, 7, 79, 64
9, 330180, Note_on_c, 7, 77, 125
9, 330180, Note_on_c, 7, 65, 127
9, 330240, Note_off_c, 7, 65, 64
9, 330240, Note_off_c, 7, 77, 64
9, 330240, Note_on_c, 7, 76, 125
9, 330240, Note_on_c, 7, 64, 119
9, 330244, Control_c, 7, 64, 114
9, 330268, Control_c, 7, 64, 115
9, 330300, Note_off_c, 7, 64, 64
9, 330300, Note_off_c, 7, 76, 64
9, 330300, Note_on_c, 7, 74, 125
9, 330300, Note_on_c, 7, 62, 123
9, 330360, Note_off_c, 7, 62, 64
9, 330360, Note_off_c, 7, 74, 64
9, 330360, Note_on_c, 7, 72, 119
9, 330360, Note_on_c, 7, 60, 123
9, 330420, Note_off_c, 7, 60, 64
9, 330420, Note_off_c, 7, 72, 64
9, 330420, Note_on_c, 7, 71, 125
9, 330420, Note_on_c, 7, 59, 119
9, 330480, Note_off_c, 7, 59, 64
9, 330480, Note_off_c, 7, 71, 64
9, 330480, Note_on_c, 7, 69, 125
9, 330480, Note_on_c, 7, 57, 127
9, 330488, Control_c, 7, 64, 116
9, 330540, Note_off_c, 7, 57, 64
9, 330540, Note_off_c, 7, 69, 64
9, 330540, Note_on_c, 7, 67, 123
9, 330540, Note_on_c, 7, 55, 117
9, 330600, Note_off_c, 7, 55, 64
9, 330600, Note_off_c, 7, 67, 64
9, 330600, Note_on_c, 7, 65, 127
9, 330600, Note_on_c, 7, 53, 119
9, 330660, Note_off_c, 7, 53, 64
9, 330660, Note_off_c, 7, 65, 64
9, 330660, Note_on_c, 7, 64, 127
9, 330660, Note_on_c, 7, 52, 123
9, 330712, Control_c, 7, 64, 115
9, 330720, Note_off_c, 7, 52, 64
9, 330720, Note_off_c, 7, 64, 64
9, 330720, Note_on_c, 7, 62, 119
9, 330720, Note_on_c, 7, 50, 119
9, 330780, Note_off_c, 7, 50, 64
9, 330780, Note_off_c, 7, 62, 64
9, 330780, Note_on_c, 7, 60, 123
9, 330780, Note_on_c, 7, 48, 119
9, 330840, Note_off_c, 7, 48, 64
9, 330840, Note_off_c, 7, 60, 64
9, 330840, Note_on_c, 7, 59, 119
9, 330840, Note_on_c, 7, 47, 119
9, 330888, Control_c, 7, 64, 114
9, 330900, Note_off_c, 7, 47, 64
9, 330900, Note_off_c, 7, 59, 64
9, 330900, Note_on_c, 7, 57, 125
9, 330900, Note_on_c, 7, 45, 119
9, 330960, Note_off_c, 7, 45, 64
9, 330960, Note_off_c, 7, 57, 64
9, 330960, Control_c, 7, 64, 113
9, 330960, Note_on_c, 7, 55, 125
9, 330960, Note_on_c, 7, 43, 123
9, 330964, Control_c, 7, 64, 106
9, 331020, Note_off_c, 7, 43, 64
9, 331020, Note_off_c, 7, 55, 64
9, 331020, Note_on_c, 7, 53, 119
9, 331020, Note_on_c, 7, 41, 125
9, 331080, Note_off_c, 7, 41, 64
9, 331080, Note_off_c, 7, 53, 64
9, 331080, Note_on_c, 7, 52, 115
9, 331080, Note_on_c, 7, 40, 123
9, 331140, Note_off_c, 7, 40, 64
9, 331140, Note_off_c, 7, 52, 64
9, 331140, Note_on_c, 7, 50, 123
9, 331140, Note_on_c, 7, 38, 123
9, 331200, Note_off_c, 7, 38, 64
9, 331200, Note_off_c, 7, 50, 64
9, 331200, Note_on_c, 7, 48, 127
9, 331200, Note_on_c, 7, 36, 127
9, 331400, Control_c, 7, 64, 104
9, 331440, Note_off_c, 7, 36, 64
9, 331440, Note_off_c, 7, 48, 64
9, 331516, Control_c, 7, 64, 103
9, 331532, Control_c, 7, 64, 102
9, 331552, Control_c, 7, 64, 101
9, 331580, Control_c, 7, 64, 100
9, 331648, Control_c, 7, 64, 96
9, 331672, Control_c, 7, 64, 94
9, 331684, Control_c, 7, 64, 93
9, 331692, Control_c, 7, 64, 92
9, 331724, Control_c, 7, 64, 89
9, 331748, Control_c, 7, 64, 86
9, 331752, Control_c, 7, 64, 85
9, 331768, Control_c, 7, 64, 83
9, 331792, Control_c, 7, 64, 81
9, 331804, Control_c, 7, 64, 80
9, 331808, Control_c, 7, 64, 79
9, 331840, Control_c, 7, 64, 74
9, 331856, Control_c, 7, 64, 72
9, 331884, Control_c, 7, 64, 67
9, 331892, Control_c, 7, 64, 65
9, 331900, Control_c, 7, 64, 61
9, 331908, Control_c, 7, 64, 59
9, 331912, Control_c, 7, 64, 58
9, 331916, Control_c, 7, 64, 57
9, 331924, Control_c, 7, 64, 53
9, 331928, Control_c, 7, 64, 51
9, 331932, Control_c, 7, 64, 49
9, 331940, Control_c, 7, 64, 47
9, 331944, Control_c, 7, 64, 45
9, 331952, Control_c, 7, 64, 43
9, 331960, Control_c, 7, 64, 40
9, 331964, Control_c, 7, 64, 39
9, 331968, Control_c, 7, 64, 38
9, 331972, Control_c, 7, 64, 37
9, 331976, Control_c, 7, 64, 35
9, 331980, Control_c, 7, 64, 33
9, 331988, Control_c, 7, 64, 32
9, 331992, Control_c, 7, 64, 30
9, 331996, Control_c, 7, 64, 29
9, 332004, Control_c, 7, 64, 28
9, 332008, Control_c, 7, 64, 27
9, 332016, Control_c, 7, 64, 25
9, 332024, Control_c, 7, 64, 24
9, 332028, Control_c, 7, 64, 23
9, 332032, Control_c, 7, 64, 22
9, 332036, Control_c, 7, 64, 21
9, 332040, Control_c, 7, 64, 19
9, 332044, Control_c, 7, 64, 18
9, 332052, Control_c, 7, 64, 16
9, 332060, Control_c, 7, 64, 13
9, 332068, Control_c, 7, 64, 12
9, 332072, Control_c, 7, 64, 11
9, 332076, Control_c, 7, 64, 10
9, 332080, Control_c, 7, 64, 9
9, 332084, Control_c, 7, 64, 8
9, 332092, Control_c, 7, 64, 7
9, 332096, Control_c, 7, 64, 5
9, 332104, Control_c, 7, 64, 4
9, 332108, Control_c, 7, 64, 3
9, 332112, Control_c, 7, 64, 2
9, 332116, Control_c, 7, 64, 1
9, 332120, Control_c, 7, 64, 0
9, 338460, Note_on_c, 7, 72, 110
9, 338520, Note_off_c, 7, 72, 64
9, 338520, Note_on_c, 7, 74, 115
9, 338580, Note_off_c, 7, 74, 64
9, 338580, Note_on_c, 7, 76, 119
9, 338640, Note_off_c, 7, 76, 64
9, 338640, Note_on_c, 7, 77, 115
9, 338700, Note_off_c, 7, 77, 64
9, 338700, Note_on_c, 7, 79, 115
9, 338760, Note_off_c, 7, 79, 64
9, 338760, Note_on_c, 7, 81, 119
9, 338820, Note_off_c, 7, 81, 64
9, 338820, Note_on_c, 7, 83, 119
9, 338880, Note_off_c, 7, 83, 64
9, 338880, Note_on_c, 7, 84, 125
9, 339360, Note_off_c, 7, 84, 64
9, 339360, Note_on_c, 7, 81, 119
9, 339840, Note_off_c, 7, 81, 64
9, 339840, Note_on_c, 7, 77, 115
9, 340080, Note_off_c, 7, 77, 64
9, 340380, Note_on_c, 7, 77, 119
9, 340440, Note_off_c, 7, 77, 64
9, 340440, Note_on_c, 7, 79, 115
9, 340500, Note_off_c, 7, 79, 64
9, 340500, Note_on_c, 7, 81, 112
9, 340560, Note_off_c, 7, 81, 64
9, 340560, Note_on_c, 7, 83, 112
9, 340620, Note_off_c, 7, 83, 64
9, 340620, Note_on_c, 7, 84, 112
9, 340680, Note_off_c, 7, 84, 64
9, 340680, Note_on_c, 7, 86, 115
9, 340740, Note_off_c, 7, 86, 64
9, 340740, Note_on_c, 7, 88, 119
9, 340800, Note_off_c, 7, 88, 64
9, 340800, Note_on_c, 7, 89, 117
9, 341280, Note_off_c, 7, 89, 64
9, 341280, Note_on_c, 7, 86, 119
9, 341760, Note_off_c, 7, 86, 64
9, 341760, Note_on_c, 7, 83, 115
9, 342000, Note_off_c, 7, 83, 64
9, 342480, Note_on_c, 7, 83, 115
9, 342720, Note_off_c, 7, 83, 64
9, 342720, Note_on_c, 7, 84, 119
9, 342840, Note_off_c, 7, 84, 64
9, 342840, Note_on_c, 7, 84, 123
9, 342960, Note_off_c, 7, 84, 64
9, 342960, Note_on_c, 7, 88, 127
9, 343000, Note_off_c, 7, 88, 64
9, 343000, Note_on_c, 7, 89, 127
9, 343040, Note_off_c, 7, 89, 64
9, 343040, Note_on_c, 7, 88, 127
9, 343080, Note_off_c, 7, 88, 64
9, 343080, Note_on_c, 7, 86, 127
9, 343200, Note_off_c, 7, 86, 64
9, 343200, Note_on_c, 7, 84, 127
9, 343240, Note_off_c, 7, 84, 64
9, 343240, Note_on_c, 7, 86, 125
9, 343280, Note_off_c, 7, 86, 64
9, 343280, Note_on_c, 7, 84, 125
9, 343320, Note_off_c, 7, 84, 64
9, 343320, Note_on_c, 7, 83, 127
9, 343440, Note_off_c, 7, 83, 64
9, 343440, Note_on_c, 7, 81, 127
9, 343480, Note_off_c, 7, 81, 64
9, 343480, Note_on_c, 7, 83, 127
9, 343520, Note_off_c, 7, 83, 64
9, 343520, Note_on_c, 7, 81, 127
9, 343560, Note_off_c, 7, 81, 64
9, 343560, Note_on_c, 7, 79, 125
9, 343680, Note_off_c, 7, 79, 64
9, 343680, Note_on_c, 7, 78, 123
9, 343720, Note_off_c, 7, 78, 64
9, 343720, Note_on_c, 7, 79, 127
9, 343760, Note_off_c, 7, 79, 64
9, 343760, Note_on_c, 7, 78, 125
9, 343800, Note_off_c, 7, 78, 64
9, 343800, Note_on_c, 7, 76, 127
9, 343920, Note_off_c, 7, 76, 64
9, 343920, Note_on_c, 7, 74, 127
9, 343960, Note_off_c, 7, 74, 64
9, 343960, Note_on_c, 7, 76, 127
9, 344000, Note_off_c, 7, 76, 64
9, 344000, Note_on_c, 7, 74, 127
9, 344040, Note_off_c, 7, 74, 64
9, 344040, Note_on_c, 7, 72, 125
9, 344160, Note_off_c, 7, 72, 64
9, 344160, Note_on_c, 7, 71, 127
9, 344200, Note_off_c, 7, 71, 64
9, 344200, Note_on_c, 7, 72, 127
9, 344240, Note_off_c, 7, 72, 64
9, 344240, Note_on_c, 7, 71, 127
9, 344280, Note_off_c, 7, 71, 64
9, 344280, Note_on_c, 7, 69, 127
9, 344400, Note_off_c, 7, 69, 64
9, 344400, Note_on_c, 7, 67, 125
9, 344440, Note_off_c, 7, 67, 64
9, 344440, Note_on_c, 7, 69, 127
9, 344480, Note_off_c, 7, 69, 64
9, 344480, Note_on_c, 7, 67, 127
9, 344520, Note_off_c, 7, 67, 64
9, 344520, Note_on_c, 7, 66, 127
9, 344640, Note_off_c, 7, 66, 64
9, 344700, Note_on_c, 7, 67, 68
9, 344760, Note_off_c, 7, 67, 64
9, 344760, Note_on_c, 7, 66, 85
9, 344820, Note_off_c, 7, 66, 64
9, 344820, Note_on_c, 7, 67, 61
9, 344880, Note_off_c, 7, 67, 64
9, 344880, Note_on_c, 7, 69, 85
9, 344940, Note_off_c, 7, 69, 64
9, 344940, Note_on_c, 7, 67, 71
9, 345000, Note_off_c, 7, 67, 64
9, 345000, Note_on_c, 7, 70, 84
9, 345060, Note_off_c, 7, 70, 64
9, 345060, Note_on_c, 7, 67, 81
9, 345120, Note_off_c, 7, 67, 64
9, 345120, Note_on_c, 7, 71, 82
9, 345150, Note_off_c, 7, 71, 64
9, 345180, Note_on_c, 7, 67, 84
9, 345210, Note_off_c, 7, 67, 64
9, 345240, Note_on_c, 7, 72, 74
9, 345270, Note_off_c, 7, 72, 64
9, 345300, Note_on_c, 7, 67, 76
9, 345330, Note_off_c, 7, 67, 64
9, 345360, Note_on_c, 7, 73, 69
9, 345390, Note_off_c, 7, 73, 64
9, 345420, Note_on_c, 7, 67, 86
9, 345450, Note_off_c, 7, 67, 64
9, 345480, Note_on_c, 7, 74, 76
9, 345510, Note_off_c, 7, 74, 64
9, 345540, Note_on_c, 7, 67, 81
9, 345570, Note_off_c, 7, 67, 64
9, 345600, Note_on_c, 7, 76, 84
9, 345630, Note_off_c, 7, 76, 64
9, 345660, Note_on_c, 7, 67, 45
9, 345690, Note_off_c, 7, 67, 64
9, 345720, Note_on_c, 7, 77, 69
9, 345750, Note_off_c, 7, 77, 64
9, 345780, Note_on_c, 7, 67, 53
9, 345810, Note_off_c, 7, 67, 64
9, 345840, Note_on_c, 7, 78, 49
9, 345870, Note_off_c, 7, 78, 64
9, 345900, Note_on_c, 7, 67, 69
9, 345930, Note_off_c, 7, 67, 64
9, 345960, Note_on_c, 7, 79, 51
9, 345990, Note_off_c, 7, 79, 64
9, 346020, Note_on_c, 7, 67, 65
9, 346050, Note_off_c, 7, 67, 64
9, 346080, Note_on_c, 7, 77, 67
9, 346110, Note_off_c, 7, 77, 64
9, 346140, Note_on_c, 7, 67, 71
9, 346170, Note_off_c, 7, 67, 64
9, 346200, Note_on_c, 7, 76, 81
9, 346230, Note_off_c, 7, 76, 64
9, 346260, Note_on_c, 7, 67, 58
9, 346290, Note_off_c, 7, 67, 64
9, 346320, Note_on_c, 7, 74, 57
9, 346350, Note_off_c, 7, 74, 64
9, 346380, Note_on_c, 7, 67, 71
9, 346410, Note_off_c, 7, 67, 64
9, 346440, Note_on_c, 7, 72, 70
9, 346470, Note_off_c, 7, 72, 64
9, 346500, Note_on_c, 7, 67, 62
9, 346530, Note_off_c, 7, 67, 64
9, 346560, Note_on_c, 7, 79, 73
9, 346800, Note_off_c, 7, 79, 64
9, 348540, Note_on_c, 7, 67, 80
9, 348600, Note_off_c, 7, 67, 64
9, 348600, Note_on_c, 7, 66, 77
9, 348660, Note_off_c, 7, 66, 64
9, 348660, Note_on_c, 7, 67, 77
9, 348720, Note_off_c, 7, 67, 64
9, 348720, Note_on_c, 7, 69, 82
9, 348780, Note_off_c, 7, 69, 64
9, 348780, Note_on_c, 7, 67, 73
9, 348840, Note_off_c, 7, 67, 64
9, 348840, Note_on_c, 7, 70, 76
9, 348900, Note_off_c, 7, 70, 64
9, 348900, Note_on_c, 7, 67, 85
9, 348960, Note_off_c, 7, 67, 64
9, 348960, Note_on_c, 7, 71, 81
9, 349020, Note_off_c, 7, 71, 64
9, 349020, Note_on_c, 7, 67, 81
9, 349080, Note_off_c, 7, 67, 64
9, 349080, Note_on_c, 7, 72, 80
9, 349140, Note_off_c, 7, 72, 64
9, 349140, Note_on_c, 7, 67, 81
9, 349200, Note_off_c, 7, 67, 64
9, 349200, Note_on_c, 7, 73, 81
9, 349260, Note_off_c, 7, 73, 64
9, 349260, Note_on_c, 7, 67, 76
9, 349320, Note_off_c, 7, 67, 64
9, 349320, Note_on_c, 7, 74, 90
9, 349380, Note_off_c, 7, 74, 64
9, 349380, Note_on_c, 7, 67, 82
9, 349440, Note_off_c, 7, 67, 64
9, 349440, Note_on_c, 7, 75, 85
9, 349500, Note_off_c, 7, 75, 64
9, 349500, Note_on_c, 7, 67, 77
9, 349560, Note_off_c, 7, 67, 64
9, 349560, Note_on_c, 7, 77, 84
9, 349620, Note_off_c, 7, 77, 64
9, 349620, Note_on_c, 7, 67, 81
9, 349680, Note_off_c, 7, 67, 64
9, 349680, Note_on_c, 7, 78, 77
9, 349740, Note_off_c, 7, 78, 64
9, 349740, Note_on_c, 7, 67, 84
9, 349800, Note_off_c, 7, 67, 64
9, 349800, Note_on_c, 7, 79, 84
9, 349860, Note_off_c, 7, 79, 64
9, 349860, Note_on_c, 7, 67, 74
9, 349920, Note_off_c, 7, 67, 64
9, 349920, Note_on_c, 7, 77, 77
9, 349980, Note_off_c, 7, 77, 64
9, 349980, Note_on_c, 7, 67, 84
9, 350040, Note_off_c, 7, 67, 64
9, 350040, Note_on_c, 7, 75, 84
9, 350100, Note_off_c, 7, 75, 64
9, 350100, Note_on_c, 7, 67, 76
9, 350160, Note_off_c, 7, 67, 64
9, 350160, Note_on_c, 7, 74, 73
9, 350220, Note_off_c, 7, 74, 64
9, 350220, Note_on_c, 7, 67, 80
9, 350280, Note_off_c, 7, 67, 64
9, 350280, Note_on_c, 7, 72, 71
9, 350340, Note_off_c, 7, 72, 64
9, 350340, Note_on_c, 7, 67, 85
9, 350400, Note_off_c, 7, 67, 64
9, 350400, Note_on_c, 7, 79, 73
9, 350460, Note_off_c, 7, 79, 64
9, 350460, Note_on_c, 7, 67, 76
9, 350520, Note_off_c, 7, 67, 64
9, 350520, Note_on_c, 7, 79, 82
9, 350580, Note_off_c, 7, 79, 64
9, 350580, Note_on_c, 7, 67, 73
9, 350640, Note_off_c, 7, 67, 64
9, 350640, Note_on_c, 7, 80, 86
9, 350700, Note_off_c, 7, 80, 64
9, 350700, Note_on_c, 7, 67, 73
9, 350760, Note_off_c, 7, 67, 64
9, 350760, Note_on_c, 7, 78, 74
9, 350820, Note_off_c, 7, 78, 64
9, 350820, Note_on_c, 7, 67, 84
9, 350880, Note_off_c, 7, 67, 64
9, 350880, Note_on_c, 7, 79, 74
9, 350940, Note_off_c, 7, 79, 64
9, 350940, Note_on_c, 7, 67, 84
9, 351000, Note_off_c, 7, 67, 64
9, 351000, Note_on_c, 7, 79, 81
9, 351060, Note_off_c, 7, 79, 64
9, 351060, Note_on_c, 7, 67, 80
9, 351120, Note_off_c, 7, 67, 64
9, 351120, Note_on_c, 7, 81, 82
9, 351180, Note_off_c, 7, 81, 64
9, 351180, Note_on_c, 7, 67, 81
9, 351240, Note_off_c, 7, 67, 64
9, 351240, Note_on_c, 7, 78, 81
9, 351300, Note_off_c, 7, 78, 64
9, 351300, Note_on_c, 7, 67, 72
9, 351360, Note_off_c, 7, 67, 64
9, 351360, Note_on_c, 7, 79, 73
9, 351420, Note_off_c, 7, 79, 64
9, 351420, Note_on_c, 7, 67, 84
9, 351480, Note_off_c, 7, 67, 64
9, 351480, Note_on_c, 7, 79, 80
9, 351540, Note_off_c, 7, 79, 64
9, 351540, Note_on_c, 7, 67, 84
9, 351600, Note_off_c, 7, 67, 64
9, 351600, Note_on_c, 7, 81, 84
9, 351660, Note_off_c, 7, 81, 64
9, 351660, Note_on_c, 7, 67, 84
9, 351720, Note_off_c, 7, 67, 64
9, 351720, Note_on_c, 7, 78, 76
9, 351780, Note_off_c, 7, 78, 64
9, 351780, Note_on_c, 7, 67, 81
9, 351840, Note_off_c, 7, 67, 64
9, 351840, Note_on_c, 7, 79, 76
9, 351900, Note_off_c, 7, 79, 64
9, 351900, Note_on_c, 7, 67, 78
9, 351960, Note_off_c, 7, 67, 64
9, 351960, Note_on_c, 7, 79, 81
9, 352020, Note_off_c, 7, 79, 64
9, 352020, Note_on_c, 7, 67, 76
9, 352080, Note_off_c, 7, 67, 64
9, 352080, Note_on_c, 7, 81, 80
9, 352140, Note_off_c, 7, 81, 64
9, 352140, Note_on_c, 7, 67, 72
9, 352200, Note_off_c, 7, 67, 64
9, 352200, Note_on_c, 7, 78, 76
9, 352260, Note_off_c, 7, 78, 64
9, 352260, Note_on_c, 7, 67, 80
9, 352320, Note_off_c, 7, 67, 64
9, 352320, Note_on_c, 7, 79, 125
9, 352400, Note_off_c, 7, 79, 64
9, 352400, Note_on_c, 7, 74, 123
9, 352480, Note_off_c, 7, 74, 64
9, 352480, Note_on_c, 7, 71, 125
9, 352560, Note_off_c, 7, 71, 64
9, 352560, Note_on_c, 7, 67, 119
9, 352640, Note_off_c, 7, 67, 64
9, 352640, Note_on_c, 7, 62, 117
9, 352720, Note_off_c, 7, 62, 64
9, 352720, Note_on_c, 7, 59, 119
9, 352800, Note_off_c, 7, 59, 64
9, 352800, Note_on_c, 7, 55, 119
9, 352880, Note_off_c, 7, 55, 64
9, 352880, Note_on_c, 7, 50, 119
9, 352960, Note_off_c, 7, 50, 64
9, 352960, Note_on_c, 7, 47, 119
9, 353040, Note_off_c, 7, 47, 64
9, 360960, Note_on_c, 7, 55, 71
9, 361020, Note_off_c, 7, 55, 64
9, 361020, Note_on_c, 7, 57, 85
9, 361080, Note_off_c, 7, 57, 64
9, 361080, Note_on_c, 7, 59, 76
9, 361140, Note_off_c, 7, 59, 64
9, 361140, Note_on_c, 7, 60, 72
9, 361200, Note_off_c, 7, 60, 64
9, 361200, Note_on_c, 7, 62, 68
9, 361260, Note_off_c, 7, 62, 64
9, 361260, Note_on_c, 7, 64, 71
9, 361320, Note_off_c, 7, 64, 64
9, 361320, Note_on_c, 7, 65, 76
9, 361380, Note_off_c, 7, 65, 64
9, 361380, Note_on_c, 7, 66, 82
9, 361440, Note_off_c, 7, 66, 64
9, 361440, Note_on_c, 7, 67, 77
9, 361500, Note_off_c, 7, 67, 64
9, 361500, Note_on_c, 7, 69, 73
9, 361560, Note_off_c, 7, 69, 64
9, 361560, Note_on_c, 7, 71, 74
9, 361620, Note_off_c, 7, 71, 64
9, 361620, Note_on_c, 7, 72, 73
9, 361680, Note_off_c, 7, 72, 64
9, 361680, Note_on_c, 7, 74, 68
9, 361740, Note_off_c, 7, 74, 64
9, 361740, Note_on_c, 7, 76, 72
9, 361800, Note_off_c, 7, 76, 64
9, 361800, Note_on_c, 7, 77, 71
9, 361860, Note_off_c, 7, 77, 64
9, 361860, Note_on_c, 7, 78, 74
9, 361920, Note_off_c, 7, 78, 64
9, 361920, Note_on_c, 7, 79, 45
9, 362400, Note_off_c, 7, 79, 64
9, 362400, Note_on_c, 7, 78, 65
9, 362520, Note_off_c, 7, 78, 64
9, 362520, Note_on_c, 7, 79, 58
9, 362640, Note_off_c, 7, 79, 64
9, 362640, Note_on_c, 7, 81, 73
9, 362760, Note_off_c, 7, 81, 64
9, 362760, Note_on_c, 7, 79, 64
9, 362880, Note_off_c, 7, 79, 64
9, 362880, Note_on_c, 7, 79, 72
9, 363000, Note_off_c, 7, 79, 64
9, 363000, Note_on_c, 7, 77, 76
9, 363120, Note_off_c, 7, 77, 64
9, 363120, Note_on_c, 7, 76, 66
9, 363240, Note_off_c, 7, 76, 64
9, 363240, Note_on_c, 7, 74, 61
9, 363360, Note_off_c, 7, 74, 64
9, 363360, Note_on_c, 7, 72, 68
9, 363480, Note_off_c, 7, 72, 64
9, 363480, Note_on_c, 7, 71, 76
9, 363600, Note_off_c, 7, 71, 64
9, 363600, Note_on_c, 7, 69, 61
9, 363720, Note_off_c, 7, 69, 64
9, 363720, Note_on_c, 7, 67, 47
9, 363840, Note_off_c, 7, 67, 64
9, 363840, Note_on_c, 7, 72, 50
9, 364080, Note_off_c, 7, 72, 64
9, 364080, Note_on_c, 7, 72, 52
9, 364260, Note_off_c, 7, 72, 64
9, 364290, Note_on_c, 7, 74, 76
9, 364320, Note_off_c, 7, 74, 64
9, 364320, Note_on_c, 7, 72, 64
9, 364440, Note_off_c, 7, 72, 64
9, 364440, Note_on_c, 7, 71, 76
9, 364560, Note_off_c, 7, 71, 64
9, 364560, Note_on_c, 7, 72, 62
9, 364680, Note_off_c, 7, 72, 64
9, 364680, Note_on_c, 7, 76, 77
9, 364800, Note_off_c, 7, 76, 64
9, 364800, Note_on_c, 7, 73, 68
9, 365040, Note_off_c, 7, 73, 64
9, 365040, Note_on_c, 7, 74, 77
9, 365280, Note_off_c, 7, 74, 64
9, 365760, Note_on_c, 7, 76, 73
9, 366240, Note_off_c, 7, 76, 64
9, 366240, Note_on_c, 7, 75, 68
9, 366360, Note_off_c, 7, 75, 64
9, 366360, Note_on_c, 7, 76, 67
9, 366480, Note_off_c, 7, 76, 64
9, 366480, Note_on_c, 7, 77, 77
9, 366600, Note_off_c, 7, 77, 64
9, 366600, Note_on_c, 7, 76, 68
9, 366720, Note_off_c, 7, 76, 64
9, 366720, Note_on_c, 7, 74, 74
9, 366840, Note_off_c, 7, 74, 64
9, 366840, Note_on_c, 7, 72, 64
9, 366960, Note_off_c, 7, 72, 64
9, 366960, Note_on_c, 7, 71, 70
9, 367080, Note_off_c, 7, 71, 64
9, 367080, Note_on_c, 7, 69, 74
9, 367200, Note_off_c, 7, 69, 64
9, 367200, Note_on_c, 7, 68, 69
9, 367320, Note_off_c, 7, 68, 64
9, 367320, Note_on_c, 7, 69, 68
9, 367440, Note_off_c, 7, 69, 64
9, 367440, Note_on_c, 7, 71, 69
9, 367560, Note_off_c, 7, 71, 64
9, 367560, Note_on_c, 7, 72, 72
9, 367680, Note_off_c, 7, 72, 64
9, 367680, Note_on_c, 7, 74, 76
9, 367740, Note_off_c, 7, 74, 64
9, 367800, Note_on_c, 7, 73, 67
9, 367920, Note_off_c, 7, 73, 64
9, 367920, Note_on_c, 7, 74, 72
9, 368040, Note_off_c, 7, 74, 64
9, 368040, Note_on_c, 7, 73, 65
9, 368160, Note_off_c, 7, 73, 64
9, 368160, Note_on_c, 7, 74, 78
9, 368280, Note_off_c, 7, 74, 64
9, 368280, Note_on_c, 7, 73, 66
9, 368400, Note_off_c, 7, 73, 64
9, 368400, Note_on_c, 7, 76, 71
9, 368520, Note_off_c, 7, 76, 64
9, 368520, Note_on_c, 7, 74, 74
9, 368640, Note_off_c, 7, 74, 64
9, 368640, Note_on_c, 7, 72, 64
9, 368760, Note_off_c, 7, 72, 64
9, 368760, Note_on_c, 7, 71, 64
9, 368880, Note_off_c, 7, 71, 64
9, 368880, Note_on_c, 7, 69, 67
9, 369000, Note_off_c, 7, 69, 64
9, 369000, Note_on_c, 7, 67, 64
9, 369120, Note_off_c, 7, 67, 64
9, 369120, Note_on_c, 7, 66, 59
9, 369240, Note_off_c, 7, 66, 64
9, 369240, Note_on_c, 7, 67, 61
9, 369360, Note_off_c, 7, 67, 64
9, 369360, Note_on_c, 7, 69, 65
9, 369480, Note_off_c, 7, 69, 64
9, 369480, Note_on_c, 7, 67, 46
9, 369600, Note_off_c, 7, 67, 64
9, 369600, Note_on_c, 7, 79, 58
9, 369660, Note_off_c, 7, 79, 64
9, 369720, Note_on_c, 7, 78, 48
9, 369840, Note_off_c, 7, 78, 64
9, 369840, Note_on_c, 7, 79, 63
9, 369960, Note_off_c, 7, 79, 64
9, 369960, Note_on_c, 7, 78, 60
9, 370080, Note_off_c, 7, 78, 64
9, 370080, Note_on_c, 7, 79, 54
9, 370200, Note_off_c, 7, 79, 64
9, 370200, Note_on_c, 7, 78, 60
9, 370320, Note_off_c, 7, 78, 64
9, 370320, Note_on_c, 7, 79, 43
9, 370440, Note_off_c, 7, 79, 64
9, 370440, Note_on_c, 7, 78, 67
9, 370560, Note_off_c, 7, 78, 64
9, 370560, Note_on_c, 7, 79, 45
9, 370680, Note_off_c, 7, 79, 64
9, 370680, Note_on_c, 7, 81, 62
9, 370740, Note_off_c, 7, 81, 64
9, 370740, Note_on_c, 7, 79, 72
9, 370800, Note_off_c, 7, 79, 64
9, 370800, Note_on_c, 7, 78, 64
9, 370920, Note_off_c, 7, 78, 64
9, 370920, Note_on_c, 7, 79, 67
9, 371040, Note_off_c, 7, 79, 64
9, 371040, Note_on_c, 7, 83, 62
9, 371160, Note_off_c, 7, 83, 64
9, 371160, Note_on_c, 7, 81, 76
9, 371280, Note_off_c, 7, 81, 64
9, 371280, Note_on_c, 7, 79, 62
9, 371400, Note_off_c, 7, 79, 64
9, 371400, Note_on_c, 7, 77, 65
9, 371520, Note_off_c, 7, 77, 64
9, 371520, Note_on_c, 7, 76, 68
9, 371640, Note_off_c, 7, 76, 64
9, 371640, Note_on_c, 7, 77, 65
9, 371700, Note_off_c, 7, 77, 64
9, 371700, Note_on_c, 7, 76, 74
9, 371760, Note_off_c, 7, 76, 64
9, 371760, Note_on_c, 7, 74, 77
9, 371880, Note_off_c, 7, 74, 64
9, 371880, Note_on_c, 7, 76, 76
9, 372000, Note_off_c, 7, 76, 64
9, 372000, Note_on_c, 7, 79, 76
9, 372120, Note_off_c, 7, 79, 64
9, 372120, Note_on_c, 7, 77, 68
9, 372240, Note_off_c, 7, 77, 64
9, 372240, Note_on_c, 7, 76, 64
9, 372360, Note_off_c, 7, 76, 64
9, 372360, Note_on_c, 7, 74, 57
9, 372480, Note_off_c, 7, 74, 64
9, 372480, Note_on_c, 7, 72, 51
9, 372720, Note_off_c, 7, 72, 64
9, 374460, Note_on_c, 7, 60, 73
9, 374520, Note_off_c, 7, 60, 64
9, 374520, Note_on_c, 7, 61, 65
9, 374580, Note_off_c, 7, 61, 64
9, 374580, Note_on_c, 7, 63, 73
9, 374640, Note_off_c, 7, 63, 64
9, 374640, Note_on_c, 7, 65, 72
9, 374700, Note_off_c, 7, 65, 64
9, 374700, Note_on_c, 7, 67, 73
9, 374760, Note_off_c, 7, 67, 64
9, 374760, Note_on_c, 7, 68, 78
9, 374820, Note_off_c, 7, 68, 64
9, 374820, Note_on_c, 7, 70, 68
9, 374880, Note_off_c, 7, 70, 64
9, 374880, Note_on_c, 7, 72, 60
9, 374940, Note_off_c, 7, 72, 64
9, 374940, Note_on_c, 7, 73, 61
9, 375000, Note_off_c, 7, 73, 64
9, 375000, Note_on_c, 7, 75, 72
9, 375060, Note_off_c, 7, 75, 64
9, 375060, Note_on_c, 7, 77, 68
9, 375120, Note_off_c, 7, 77, 64
9, 375120, Note_on_c, 7, 79, 62
9, 375180, Note_off_c, 7, 79, 64
9, 375180, Note_on_c, 7, 80, 72
9, 375240, Note_off_c, 7, 80, 64
9, 375240, Note_on_c, 7, 82, 68
9, 375300, Note_off_c, 7, 82, 64
9, 375300, Note_on_c, 7, 83, 61
9, 375360, Note_off_c, 7, 83, 64
9, 375360, Note_on_c, 7, 84, 63
9, 375600, Note_off_c, 7, 84, 64
9, 376380, Note_on_c, 7, 56, 62
9, 376440, Note_off_c, 7, 56, 64
9, 376440, Note_on_c, 7, 58, 67
9, 376500, Note_off_c, 7, 58, 64
9, 376500, Note_on_c, 7, 60, 64
9, 376560, Note_off_c, 7, 60, 64
9, 376560, Note_on_c, 7, 62, 68
9, 376620, Note_off_c, 7, 62, 64
9, 376620, Note_on_c, 7, 63, 80
9, 376680, Note_off_c, 7, 63, 64
9, 376680, Note_on_c, 7, 65, 89
9, 376740, Note_off_c, 7, 65, 64
9, 376740, Note_on_c, 7, 67, 80
9, 376800, Note_off_c, 7, 67, 64
9, 376800, Note_on_c, 7, 68, 71
9, 376860, Note_off_c, 7, 68, 64
9, 376860, Note_on_c, 7, 70, 85
9, 376920, Note_off_c, 7, 70, 64
9, 376920, Note_on_c, 7, 72, 73
9, 376980, Note_off_c, 7, 72, 64
9, 376980, Note_on_c, 7, 74, 89
9, 377040, Note_off_c, 7, 74, 64
9, 377040, Note_on_c, 7, 75, 45
9, 377100, Note_off_c, 7, 75, 64
9, 377100, Note_on_c, 7, 77, 89
9, 377160, Note_off_c, 7, 77, 64
9, 377160, Note_on_c, 7, 79, 76
9, 377220, Note_off_c, 7, 79, 64
9, 377220, Note_on_c, 7, 80, 76
9, 377280, Note_off_c, 7, 80, 64
9, 377280, Note_on_c, 7, 79, 105
9, 377340, Note_off_c, 7, 79, 64
9, 377340, Note_on_c, 7, 80, 105
9, 377400, Note_off_c, 7, 80, 64
9, 377400, Note_on_c, 7, 79, 86
9, 377460, Note_off_c, 7, 79, 64
9, 377460, Note_on_c, 7, 80, 66
9, 377520, Note_off_c, 7, 80, 64
9, 377520, Note_on_c, 7, 79, 55
9, 377580, Note_off_c, 7, 79, 64
9, 377580, Note_on_c, 7, 80, 52
9, 377640, Note_off_c, 7, 80, 64
9, 377640, Note_on_c, 7, 79, 54
9, 377700, Note_off_c, 7, 79, 64
9, 377700, Note_on_c, 7, 80, 69
9, 377760, Note_off_c, 7, 80, 64
9, 377760, Note_on_c, 7, 79, 47
9, 377820, Note_off_c, 7, 79, 64
9, 377820, Note_on_c, 7, 80, 62
9, 377880, Note_off_c, 7, 80, 64
9, 377880, Note_on_c, 7, 79, 50
9, 377940, Note_off_c, 7, 79, 64
9, 377940, Note_on_c, 7, 80, 65
9, 378000, Note_off_c, 7, 80, 64
9, 378000, Note_on_c, 7, 79, 49
9, 378060, Note_off_c, 7, 79, 64
9, 378060, Note_on_c, 7, 80, 64
9, 378120, Note_off_c, 7, 80, 64
9, 378120, Note_on_c, 7, 82, 72
9, 378180, Note_off_c, 7, 82, 64
9, 378180, Note_on_c, 7, 80, 61
9, 378240, Note_off_c, 7, 80, 64
9, 378240, Note_on_c, 7, 79, 59
9, 378300, Note_off_c, 7, 79, 64
9, 378360, Note_on_c, 7, 67, 54
9, 378420, Note_off_c, 7, 67, 64
9, 378480, Note_on_c, 7, 72, 72
9, 378540, Note_off_c, 7, 72, 64
9, 378600, Note_on_c, 7, 80, 69
9, 378660, Note_off_c, 7, 80, 64
9, 378720, Note_on_c, 7, 77, 76
9, 378780, Note_off_c, 7, 77, 64
9, 378840, Note_on_c, 7, 65, 76
9, 378900, Note_off_c, 7, 65, 64
9, 378960, Note_on_c, 7, 68, 76
9, 379020, Note_off_c, 7, 68, 64
9, 379080, Note_on_c, 7, 79, 57
9, 379140, Note_off_c, 7, 79, 64
9, 379200, Note_on_c, 7, 75, 74
9, 379260, Note_off_c, 7, 75, 64
9, 379320, Note_on_c, 7, 63, 64
9, 379380, Note_off_c, 7, 63, 64
9, 379440, Note_on_c, 7, 67, 74
9, 379500, Note_off_c, 7, 67, 64
9, 379560, Note_on_c, 7, 77, 69
9, 379620, Note_off_c, 7, 77, 64
9, 379680, Note_on_c, 7, 74, 81
9, 379740, Note_off_c, 7, 74, 64
9, 379800, Note_on_c, 7, 62, 71
9, 379860, Note_off_c, 7, 62, 64
9, 379920, Note_on_c, 7, 67, 72
9, 379980, Note_off_c, 7, 67, 64
9, 380040, Note_on_c, 7, 75, 73
9, 380100, Note_off_c, 7, 75, 64
9, 380160, Note_on_c, 7, 72, 68
9, 380400, Note_off_c, 7, 72, 64
9, 382320, Note_on_c, 7, 79, 46
9, 382380, Note_off_c, 7, 79, 64
9, 382380, Note_on_c, 7, 78, 54
9, 382440, Note_off_c, 7, 78, 64
9, 382440, Note_on_c, 7, 79, 68
9, 382500, Note_off_c, 7, 79, 64
9, 382500, Note_on_c, 7, 78, 71
9, 382560, Note_off_c, 7, 78, 64
9, 382560, Note_on_c, 7, 79, 57
9, 382680, Note_off_c, 7, 79, 64
9, 382800, Note_on_c, 7, 79, 61
9, 382860, Note_off_c, 7, 79, 64
9, 382860, Note_on_c, 7, 78, 69
9, 382920, Note_off_c, 7, 78, 64
9, 382920, Note_on_c, 7, 79, 67
9, 382980, Note_off_c, 7, 79, 64
9, 382980, Note_on_c, 7, 78, 67
9, 383040, Note_off_c, 7, 78, 64
9, 383040, Note_on_c, 7, 79, 55
9, 383100, Note_off_c, 7, 79, 64
9, 383160, Note_on_c, 7, 67, 68
9, 383220, Note_off_c, 7, 67, 64
9, 383220, Note_on_c, 7, 69, 80
9, 383280, Note_off_c, 7, 69, 64
9, 383280, Note_on_c, 7, 71, 84
9, 383340, Note_off_c, 7, 71, 64
9, 383340, Note_on_c, 7, 72, 59
9, 383400, Note_off_c, 7, 72, 64
9, 383400, Note_on_c, 7, 74, 89
9, 383460, Note_off_c, 7, 74, 64
9, 383460, Note_on_c, 7, 76, 94
9, 383520, Note_off_c, 7, 76, 64
9, 383520, Note_on_c, 7, 77, 80
9, 383580, Note_off_c, 7, 77, 64
9, 383580, Note_on_c, 7, 76, 82
9, 383640, Note_off_c, 7, 76, 64
9, 383640, Note_on_c, 7, 74, 95
9, 383700, Note_off_c, 7, 74, 64
9, 383700, Note_on_c, 7, 76, 95
9, 383760, Note_off_c, 7, 76, 64
9, 383760, Note_on_c, 7, 77, 86
9, 383820, Note_off_c, 7, 77, 64
9, 383820, Note_on_c, 7, 79, 80
9, 383880, Note_off_c, 7, 79, 64
9, 383880, Note_on_c, 7, 81, 89
9, 383940, Note_off_c, 7, 81, 64
9, 383940, Note_on_c, 7, 83, 89
9, 384000, Note_off_c, 7, 83, 64
9, 384000, Note_on_c, 7, 84, 81
9, 384030, Note_off_c, 7, 84, 64
9, 384060, Note_on_c, 7, 67, 76
9, 384120, Note_off_c, 7, 67, 64
9, 384120, Note_on_c, 7, 69, 90
9, 384180, Note_off_c, 7, 69, 64
9, 384180, Note_on_c, 7, 67, 84
9, 384240, Note_off_c, 7, 67, 64
9, 384240, Note_on_c, 7, 69, 94
9, 384300, Note_off_c, 7, 69, 64
9, 384300, Note_on_c, 7, 67, 82
9, 384360, Note_off_c, 7, 67, 64
9, 384360, Note_on_c, 7, 69, 94
9, 384420, Note_off_c, 7, 69, 64
9, 384420, Note_on_c, 7, 67, 89
9, 384480, Note_off_c, 7, 67, 64
9, 384480, Note_on_c, 7, 72, 85
9, 384510, Note_off_c, 7, 72, 64
9, 384540, Note_on_c, 7, 67, 81
9, 384600, Note_off_c, 7, 67, 64
9, 384600, Note_on_c, 7, 69, 86
9, 384660, Note_off_c, 7, 69, 64
9, 384660, Note_on_c, 7, 67, 89
9, 384720, Note_off_c, 7, 67, 64
9, 384720, Note_on_c, 7, 74, 89
9, 384750, Note_off_c, 7, 74, 64
9, 384780, Note_on_c, 7, 67, 94
9, 384840, Note_off_c, 7, 67, 64
9, 384840, Note_on_c, 7, 69, 94
9, 384900, Note_off_c, 7, 69, 64
9, 384900, Note_on_c, 7, 67, 89
9, 384960, Note_off_c, 7, 67, 64
9, 384960, Note_on_c, 7, 76, 86
9, 385020, Note_on_c, 7, 67, 94
9, 385080, Note_off_c, 7, 67, 64
9, 385080, Note_on_c, 7, 66, 84
9, 385140, Note_off_c, 7, 66, 64
9, 385140, Note_on_c, 7, 67, 94
9, 385200, Note_off_c, 7, 67, 64
9, 385200, Note_on_c, 7, 69, 99
9, 385260, Note_off_c, 7, 69, 64
9, 385260, Note_on_c, 7, 67, 86
9, 385320, Note_off_c, 7, 67, 64
9, 385320, Note_off_c, 7, 76, 64
9, 385320, Note_on_c, 7, 74, 95
9, 385320, Note_on_c, 7, 69, 94
9, 385380, Note_off_c, 7, 69, 64
9, 385380, Note_on_c, 7, 67, 86
9, 385440, Note_off_c, 7, 67, 64
9, 385440, Note_off_c, 7, 74, 64
9, 385440, Note_on_c, 7, 72, 85
9, 385440, Note_on_c, 7, 69, 99
9, 385500, Note_off_c, 7, 69, 64
9, 385500, Note_off_c, 7, 72, 64
9, 385500, Note_on_c, 7, 67, 90
9, 385560, Note_off_c, 7, 67, 64
9, 385560, Note_on_c, 7, 74, 98
9, 385560, Note_on_c, 7, 71, 94
9, 385620, Note_off_c, 7, 71, 64
9, 385620, Note_off_c, 7, 74, 64
9, 385620, Note_on_c, 7, 67, 85
9, 385680, Note_off_c, 7, 67, 64
9, 385680, Note_on_c, 7, 76, 95
9, 385680, Note_on_c, 7, 72, 90
9, 385740, Note_off_c, 7, 72, 64
9, 385740, Note_off_c, 7, 76, 64
9, 385740, Note_on_c, 7, 67, 81
9, 385800, Note_off_c, 7, 67, 64
9, 385800, Note_on_c, 7, 77, 84
9, 385800, Note_on_c, 7, 74, 105
9, 385860, Note_off_c, 7, 74, 64
9, 385860, Note_off_c, 7, 77, 64
9, 385860, Note_on_c, 7, 67, 84
9, 385920, Note_off_c, 7, 67, 64
9, 385920, Note_on_c, 7, 79, 89
9, 385920, Note_on_c, 7, 76, 95
9, 385980, Note_off_c, 7, 76, 64
9, 385980, Note_on_c, 7, 67, 85
9, 386040, Note_off_c, 7, 67, 64
9, 386040, Note_off_c, 7, 79, 64
9, 386040, Note_on_c, 7, 69, 98
9, 386100, Note_off_c, 7, 69, 64
9, 386100, Note_on_c, 7, 67, 82
9, 386160, Note_off_c, 7, 67, 64
9, 386160, Note_on_c, 7, 79, 86
9, 386160, Note_on_c, 7, 76, 95
9, 386220, Note_off_c, 7, 76, 64
9, 386220, Note_on_c, 7, 67, 80
9, 386280, Note_off_c, 7, 67, 64
9, 386280, Note_off_c, 7, 79, 64
9, 386280, Note_on_c, 7, 69, 95
9, 386340, Note_off_c, 7, 69, 64
9, 386340, Note_on_c, 7, 67, 82
9, 386400, Note_off_c, 7, 67, 64
9, 386400, Note_on_c, 7, 74, 99
9, 386400, Note_on_c, 7, 74, 89
9, 386460, Note_off_c, 7, 74, 64
9, 386460, Note_on_c, 7, 67, 71
9, 386520, Note_off_c, 7, 67, 64
9, 386520, Note_off_c, 7, 74, 64
9, 386520, Note_on_c, 7, 69, 101
9, 386580, Note_off_c, 7, 69, 64
9, 386580, Note_on_c, 7, 67, 85
9, 386640, Note_off_c, 7, 67, 64
9, 386640, Note_on_c, 7, 74, 101
9, 386640, Note_on_c, 7, 74, 95
9, 386700, Note_off_c, 7, 74, 64
9, 386700, Note_on_c, 7, 67, 84
9, 386760, Note_off_c, 7, 67, 64
9, 386760, Note_off_c, 7, 74, 64
9, 386760, Note_on_c, 7, 69, 99
9, 386820, Note_off_c, 7, 69, 64
9, 386820, Note_on_c, 7, 67, 84
9, 386880, Note_off_c, 7, 67, 64
9, 386880, Note_on_c, 7, 76, 98
9, 386940, Note_on_c, 7, 67, 99
9, 387000, Note_off_c, 7, 67, 64
9, 387000, Note_on_c, 7, 66, 86
9, 387060, Note_off_c, 7, 66, 64
9, 387060, Note_on_c, 7, 67, 94
9, 387120, Note_off_c, 7, 67, 64
9, 387120, Note_on_c, 7, 69, 94
9, 387180, Note_off_c, 7, 69, 64
9, 387180, Note_on_c, 7, 67, 89
9, 387240, Note_off_c, 7, 67, 64
9, 387240, Note_off_c, 7, 76, 64
9, 387240, Note_on_c, 7, 74, 99
9, 387240, Note_on_c, 7, 69, 94
9, 387300, Note_off_c, 7, 69, 64
9, 387300, Note_on_c, 7, 67, 80
9, 387360, Note_off_c, 7, 67, 64
9, 387360, Note_off_c, 7, 74, 64
9, 387360, Note_on_c, 7, 72, 89
9, 387360, Note_on_c, 7, 69, 99
9, 387420, Note_off_c, 7, 69, 64
9, 387420, Note_off_c, 7, 72, 64
9, 387420, Note_on_c, 7, 67, 86
9, 387480, Note_off_c, 7, 67, 64
9, 387480, Note_on_c, 7, 74, 99
9, 387480, Note_on_c, 7, 71, 95
9, 387540, Note_off_c, 7, 71, 64
9, 387540, Note_off_c, 7, 74, 64
9, 387540, Note_on_c, 7, 67, 84
9, 387600, Note_off_c, 7, 67, 64
9, 387600, Note_on_c, 7, 76, 94
9, 387600, Note_on_c, 7, 72, 93
9, 387660, Note_off_c, 7, 72, 64
9, 387660, Note_off_c, 7, 76, 64
9, 387660, Note_on_c, 7, 67, 84
9, 387720, Note_off_c, 7, 67, 64
9, 387720, Note_on_c, 7, 77, 94
9, 387720, Note_on_c, 7, 74, 101
9, 387780, Note_off_c, 7, 74, 64
9, 387780, Note_off_c, 7, 77, 64
9, 387780, Note_on_c, 7, 67, 84
9, 387840, Note_off_c, 7, 67, 64
9, 387840, Note_on_c, 7, 79, 98
9, 387840, Note_on_c, 7, 76, 101
9, 387900, Note_off_c, 7, 76, 64
9, 387900, Note_on_c, 7, 67, 84
9, 387960, Note_off_c, 7, 67, 64
9, 387960, Note_off_c, 7, 79, 64
9, 387960, Note_on_c, 7, 69, 98
9, 388020, Note_off_c, 7, 69, 64
9, 388020, Note_on_c, 7, 67, 86
9, 388080, Note_off_c, 7, 67, 64
9, 388080, Note_on_c, 7, 79, 90
9, 388080, Note_on_c, 7, 76, 101
9, 388140, Note_off_c, 7, 76, 64
9, 388140, Note_on_c, 7, 67, 82
9, 388200, Note_off_c, 7, 67, 64
9, 388200, Note_off_c, 7, 79, 64
9, 388200, Note_on_c, 7, 69, 98
9, 388260, Note_off_c, 7, 69, 64
9, 388260, Note_on_c, 7, 67, 84
9, 388320, Note_off_c, 7, 67, 64
9, 388320, Note_on_c, 7, 74, 99
9, 388320, Note_on_c, 7, 74, 105
9, 388380, Note_off_c, 7, 74, 64
9, 388380, Note_on_c, 7, 67, 81
9, 388440, Note_off_c, 7, 67, 64
9, 388440, Note_off_c, 7, 74, 64
9, 388440, Note_on_c, 7, 69, 95
9, 388500, Note_off_c, 7, 69, 64
9, 388500, Note_on_c, 7, 67, 85
9, 388560, Note_off_c, 7, 67, 64
9, 388560, Note_on_c, 7, 74, 95
9, 388560, Note_on_c, 7, 74, 105
9, 388620, Note_off_c, 7, 74, 64
9, 388620, Note_on_c, 7, 65, 90
9, 388680, Note_off_c, 7, 65, 64
9, 388680, Note_off_c, 7, 74, 64
9, 388680, Note_on_c, 7, 67, 94
9, 388740, Note_off_c, 7, 67, 64
9, 388740, Note_on_c, 7, 65, 94
9, 388800, Note_off_c, 7, 65, 64
9, 388800, Note_on_c, 7, 72, 94
9, 388800, Note_on_c, 7, 64, 89
9, 389040, Note_off_c, 7, 64, 64
9, 389040, Note_off_c, 7, 72, 64
9, 389040, Note_on_c, 7, 72, 93
9, 389100, Note_off_c, 7, 72, 64
9, 389100, Note_on_c, 7, 76, 101
9, 389160, Note_off_c, 7, 76, 64
9, 389160, Note_on_c, 7, 74, 99
9, 389220, Note_off_c, 7, 74, 64
9, 389220, Note_on_c, 7, 72, 99
9, 389280, Note_off_c, 7, 72, 64
9, 389280, Note_on_c, 7, 71, 94
9, 389340, Note_off_c, 7, 71, 64
9, 389340, Note_on_c, 7, 74, 101
9, 389400, Note_off_c, 7, 74, 64
9, 389400, Note_on_c, 7, 72, 94
9, 389460, Note_off_c, 7, 72, 64
9, 389460, Note_on_c, 7, 71, 95
9, 389520, Note_off_c, 7, 71, 64
9, 389520, Note_on_c, 7, 69, 101
9, 389580, Note_off_c, 7, 69, 64
9, 389580, Note_on_c, 7, 72, 93
9, 389640, Note_off_c, 7, 72, 64
9, 389640, Note_on_c, 7, 71, 99
9, 389700, Note_off_c, 7, 71, 64
9, 389700, Note_on_c, 7, 69, 90
9, 389760, Note_off_c, 7, 69, 64
9, 389760, Note_on_c, 7, 67, 85
9, 389820, Note_off_c, 7, 67, 64
9, 389820, Note_on_c, 7, 71, 105
9, 389880, Note_off_c, 7, 71, 64
9, 389880, Note_on_c, 7, 69, 104
9, 389940, Note_off_c, 7, 69, 64
9, 389940, Note_on_c, 7, 67, 94
9, 390000, Note_off_c, 7, 67, 64
9, 390000, Note_on_c, 7, 65, 95
9, 390060, Note_off_c, 7, 65, 64
9, 390060, Note_on_c, 7, 69, 104
9, 390120, Note_off_c, 7, 69, 64
9, 390120, Note_on_c, 7, 67, 94
9, 390180, Note_off_c, 7, 67, 64
9, 390180, Note_on_c, 7, 65, 94
9, 390240, Note_off_c, 7, 65, 64
9, 390240, Note_on_c, 7, 64, 93
9, 390300, Note_off_c, 7, 64, 64
9, 390300, Note_on_c, 7, 67, 99
9, 390360, Note_off_c, 7, 67, 64
9, 390360, Note_on_c, 7, 65, 95
9, 390420, Note_off_c, 7, 65, 64
9, 390420, Note_on_c, 7, 64, 94
9, 390480, Note_off_c, 7, 64, 64
9, 390480, Note_on_c, 7, 62, 90
9, 390540, Note_off_c, 7, 62, 64
9, 390540, Note_on_c, 7, 65, 99
9, 390600, Note_off_c, 7, 65, 64
9, 390600, Note_on_c, 7, 64, 99
9, 390660, Note_off_c, 7, 64, 64
9, 390660, Note_on_c, 7, 62, 94
9, 390720, Note_off_c, 7, 62, 64
9, 390720, Note_on_c, 7, 60, 94
9, 390960, Note_off_c, 7, 60, 64
9, 390960, Note_on_c, 7, 76, 98
9, 390960, Note_on_c, 7, 72, 85
9, 391020, Note_off_c, 7, 72, 64
9, 391020, Note_off_c, 7, 76, 64
9, 391020, Note_on_c, 7, 79, 94
9, 391080, Note_off_c, 7, 79, 64
9, 391080, Note_on_c, 7, 77, 95
9, 391140, Note_off_c, 7, 77, 64
9, 391140, Note_on_c, 7, 76, 99
9, 391200, Note_off_c, 7, 76, 64
9, 391200, Note_on_c, 7, 74, 98
9, 391200, Note_on_c, 7, 71, 89
9, 391260, Note_off_c, 7, 71, 64
9, 391260, Note_off_c, 7, 74, 64
9, 391260, Note_on_c, 7, 77, 94
9, 391320, Note_off_c, 7, 77, 64
9, 391320, Note_on_c, 7, 76, 98
9, 391380, Note_off_c, 7, 76, 64
9, 391380, Note_on_c, 7, 74, 104
9, 391440, Note_off_c, 7, 74, 64
9, 391440, Note_on_c, 7, 72, 94
9, 391440, Note_on_c, 7, 69, 89
9, 391500, Note_off_c, 7, 69, 64
9, 391500, Note_off_c, 7, 72, 64
9, 391500, Note_on_c, 7, 76, 99
9, 391560, Note_off_c, 7, 76, 64
9, 391560, Note_on_c, 7, 74, 101
9, 391620, Note_off_c, 7, 74, 64
9, 391620, Note_on_c, 7, 72, 94
9, 391680, Note_off_c, 7, 72, 64
9, 391680, Note_on_c, 7, 71, 99
9, 391680, Note_on_c, 7, 67, 89
9, 391740, Note_off_c, 7, 67, 64
9, 391740, Note_off_c, 7, 71, 64
9, 391740, Note_on_c, 7, 74, 101
9, 391800, Note_off_c, 7, 74, 64
9, 391800, Note_on_c, 7, 72, 98
9, 391860, Note_off_c, 7, 72, 64
9, 391860, Note_on_c, 7, 71, 99
9, 391920, Note_off_c, 7, 71, 64
9, 391920, Note_on_c, 7, 69, 98
9, 391920, Note_on_c, 7, 65, 90
9, 391980, Note_off_c, 7, 65, 64
9, 391980, Note_off_c, 7, 69, 64
9, 391980, Note_on_c, 7, 72, 95
9, 392040, Note_off_c, 7, 72, 64
9, 392040, Note_on_c, 7, 71, 101
9, 392100, Note_off_c, 7, 71, 64
9, 392100, Note_on_c, 7, 69, 94
9, 392160, Note_off_c, 7, 69, 64
9, 392160, Note_on_c, 7, 67, 94
9, 392160, Note_on_c, 7, 64, 94
9, 392220, Note_off_c, 7, 64, 64
9, 392220, Note_off_c, 7, 67, 64
9, 392220, Note_on_c, 7, 71, 99
9, 392280, Note_off_c, 7, 71, 64
9, 392280, Note_on_c, 7, 69, 95
9, 392340, Note_off_c, 7, 69, 64
9, 392340, Note_on_c, 7, 67, 93
9, 392400, Note_off_c, 7, 67, 64
9, 392400, Note_on_c, 7, 65, 95
9, 392400, Note_on_c, 7, 62, 89
9, 392460, Note_off_c, 7, 62, 64
9, 392460, Note_off_c, 7, 65, 64
9, 392460, Note_on_c, 7, 69, 104
9, 392520, Note_off_c, 7, 69, 64
9, 392520, Note_on_c, 7, 67, 94
9, 392580, Note_off_c, 7, 67, 64
9, 392580, Note_on_c, 7, 65, 99
9, 392640, Note_off_c, 7, 65, 64
9, 392640, Note_on_c, 7, 64, 90
9, 392640, Note_on_c, 7, 60, 74
9, 392880, Note_off_c, 7, 60, 64
9, 392880, Note_off_c, 7, 64, 64
9, 393360, Note_on_c, 7, 64, 94
9, 393420, Note_off_c, 7, 64, 64
9, 393480, Note_on_c, 7, 76, 84
9, 393540, Note_off_c, 7, 76, 64
9, 393600, Note_on_c, 7, 65, 94
9, 393660, Note_off_c, 7, 65, 64
9, 393720, Note_on_c, 7, 77, 85
9, 393780, Note_off_c, 7, 77, 64
9, 393840, Note_on_c, 7, 67, 84
9, 393900, Note_off_c, 7, 67, 64
9, 393960, Note_on_c, 7, 79, 82
9, 394020, Note_off_c, 7, 79, 64
9, 394080, Note_on_c, 7, 69, 99
9, 394140, Note_off_c, 7, 69, 64
9, 394200, Note_on_c, 7, 81, 84
9, 394260, Note_off_c, 7, 81, 64
9, 394320, Note_on_c, 7, 71, 94
9, 394380, Note_off_c, 7, 71, 64
9, 394440, Note_on_c, 7, 83, 84
9, 394500, Note_off_c, 7, 83, 64
9, 394560, Note_on_c, 7, 84, 81
9, 394560, Note_on_c, 7, 72, 85
9, 394800, Note_off_c, 7, 72, 64
9, 394800, Note_off_c, 7, 84, 64
9, 395280, Note_on_c, 7, 67, 99
9, 395340, Note_off_c, 7, 67, 64
9, 395400, Note_on_c, 7, 79, 84
9, 395400, Note_on_c, 7, 76, 98
9, 395460, Note_off_c, 7, 76, 64
9, 395460, Note_off_c, 7, 79, 64
9, 395520, Note_on_c, 7, 69, 99
9, 395580, Note_off_c, 7, 69, 64
9, 395640, Note_on_c, 7, 81, 89
9, 395640, Note_on_c, 7, 77, 93
9, 395700, Note_off_c, 7, 77, 64
9, 395700, Note_off_c, 7, 81, 64
9, 395760, Note_on_c, 7, 71, 104
9, 395820, Note_off_c, 7, 71, 64
9, 395880, Note_on_c, 7, 83, 86
9, 395880, Note_on_c, 7, 79, 84
9, 395940, Note_off_c, 7, 79, 64
9, 395940, Note_off_c, 7, 83, 64
9, 396000, Note_on_c, 7, 72, 84
9, 396060, Note_off_c, 7, 72, 64
9, 396120, Note_on_c, 7, 84, 82
9, 396120, Note_on_c, 7, 81, 95
9, 396180, Note_off_c, 7, 81, 64
9, 396180, Note_off_c, 7, 84, 64
9, 396240, Note_on_c, 7, 74, 105
9, 396300, Note_off_c, 7, 74, 64
9, 396360, Note_on_c, 7, 86, 85
9, 396360, Note_on_c, 7, 83, 94
9, 396420, Note_off_c, 7, 83, 64
9, 396420, Note_off_c, 7, 86, 64
9, 396480, Note_on_c, 7, 88, 84
9, 396480, Note_on_c, 7, 84, 84
9, 396480, Note_on_c, 7, 72, 84
9, 396600, Note_off_c, 7, 72, 64
9, 396600, Note_off_c, 7, 84, 64
9, 396600, Note_off_c, 7, 88, 64
9, 396720, Note_on_c, 7, 83, 90
9, 396720, Note_on_c, 7, 79, 84
9, 396720, Note_on_c, 7, 71, 94
9, 396840, Note_off_c, 7, 71, 64
9, 396840, Note_off_c, 7, 79, 64
9, 396840, Note_off_c, 7, 83, 64
9, 396960, Note_on_c, 7, 84, 86
9, 396960, Note_on_c, 7, 79, 89
9, 396960, Note_on_c, 7, 76, 82
9, 397080, Note_off_c, 7, 76, 64
9, 397080, Note_off_c, 7, 79, 64
9, 397080, Note_off_c, 7, 84, 64
9, 397200, Note_on_c, 7, 83, 98
9, 397200, Note_on_c, 7, 79, 104
9, 397200, Note_on_c, 7, 74, 101
9, 397320, Note_off_c, 7, 74, 64
9, 397320, Note_off_c, 7, 79, 64
9, 397320, Note_off_c, 7, 83, 64
9, 397440, Note_on_c, 7, 84, 84
9, 397440, Note_on_c, 7, 79, 94
9, 397440, Note_on_c, 7, 76, 89
9, 397560, Note_off_c, 7, 76, 64
9, 397560, Note_off_c, 7, 79, 64
9, 397560, Note_off_c, 7, 84, 64
9, 397680, Note_on_c, 7, 85, 65
9, 397680, Note_on_c, 7, 81, 99
9, 397680, Note_on_c, 7, 76, 99
9, 397800, Note_off_c, 7, 76, 64
9, 397800, Note_off_c, 7, 81, 64
9, 397800, Note_off_c, 7, 85, 64
9, 397920, Note_on_c, 7, 86, 94
9, 397920, Note_on_c, 7, 81, 94
9, 397920, Note_on_c, 7, 77, 89
9, 398040, Note_off_c, 7, 77, 64
9, 398040, Note_off_c, 7, 81, 64
9, 398040, Note_off_c, 7, 86, 64
9, 398160, Note_on_c, 7, 84, 95
9, 398160, Note_on_c, 7, 81, 104
9, 398160, Note_on_c, 7, 76, 105
9, 398280, Note_off_c, 7, 76, 64
9, 398280, Note_off_c, 7, 81, 64
9, 398280, Note_off_c, 7, 84, 64
9, 398400, Note_on_c, 7, 86, 90
9, 398400, Note_on_c, 7, 81, 84
9, 398400, Note_on_c, 7, 77, 73
9, 398520, Note_off_c, 7, 77, 64
9, 398520, Note_off_c, 7, 81, 64
9, 398520, Note_off_c, 7, 86, 64
9, 398640, Note_on_c, 7, 88, 82
9, 398640, Note_on_c, 7, 84, 93
9, 398640, Note_on_c, 7, 79, 93
9, 398760, Note_off_c, 7, 79, 64
9, 398760, Note_off_c, 7, 84, 64
9, 398760, Note_off_c, 7, 88, 64
9, 398880, Note_on_c, 7, 89, 77
9, 398880, Note_on_c, 7, 84, 94
9, 398880, Note_on_c, 7, 81, 84
9, 399000, Note_off_c, 7, 81, 64
9, 399000, Note_off_c, 7, 84, 64
9, 399000, Note_off_c, 7, 89, 64
9, 399120, Note_on_c, 7, 88, 107
9, 399120, Note_on_c, 7, 84, 95
9, 399120, Note_on_c, 7, 79, 95
9, 399240, Note_off_c, 7, 79, 64
9, 399240, Note_off_c, 7, 84, 64
9, 399240, Note_off_c, 7, 88, 64
9, 399360, Note_on_c, 7, 89, 89
9, 399360, Note_on_c, 7, 84, 84
9, 399360, Note_on_c, 7, 81, 71
9, 399480, Note_off_c, 7, 81, 64
9, 399480, Note_off_c, 7, 84, 64
9, 399480, Note_off_c, 7, 89, 64
9, 399600, Note_on_c, 7, 88, 112
9, 399600, Note_on_c, 7, 84, 101
9, 399600, Note_on_c, 7, 79, 101
9, 399720, Note_off_c, 7, 79, 64
9, 399720, Note_off_c, 7, 84, 64
9, 399720, Note_off_c, 7, 88, 64
9, 399840, Note_on_c, 7, 89, 84
9, 399840, Note_on_c, 7, 84, 76
9, 399840, Note_on_c, 7, 81, 61
9, 399960, Note_off_c, 7, 81, 64
9, 399960, Note_off_c, 7, 84, 64
9, 399960, Note_off_c, 7, 89, 64
9, 400080, Note_on_c, 7, 88, 104
9, 400080, Note_on_c, 7, 84, 101
9, 400080, Note_on_c, 7, 79, 99
9, 400200, Note_off_c, 7, 79, 64
9, 400200, Note_off_c, 7, 84, 64
9, 400200, Note_off_c, 7, 88, 64
9, 400320, Note_on_c, 7, 89, 95
9, 400320, Note_on_c, 7, 84, 94
9, 400320, Note_on_c, 7, 81, 89
9, 400380, Note_off_c, 7, 84, 64
9, 400380, Note_off_c, 7, 89, 64
9, 400400, Note_off_c, 7, 81, 64
9, 400400, Note_on_c, 7, 77, 81
9, 400480, Note_off_c, 7, 77, 64
9, 400480, Note_on_c, 7, 79, 86
9, 400560, Note_off_c, 7, 79, 64
9, 400560, Note_on_c, 7, 81, 86
9, 400640, Note_off_c, 7, 81, 64
9, 400640, Note_on_c, 7, 82, 80
9, 400720, Note_off_c, 7, 82, 64
9, 400720, Note_on_c, 7, 83, 72
9, 400800, Note_off_c, 7, 83, 64
9, 400800, Note_on_c, 7, 84, 84
9, 400880, Note_off_c, 7, 84, 64
9, 400880, Note_on_c, 7, 83, 85
9, 400960, Note_off_c, 7, 83, 64
9, 400960, Note_on_c, 7, 86, 89
9, 401040, Note_off_c, 7, 86, 64
9, 401040, Note_on_c, 7, 84, 80
9, 401120, Note_off_c, 7, 84, 64
9, 401120, Note_on_c, 7, 83, 81
9, 401200, Note_off_c, 7, 83, 64
9, 401200, Note_on_c, 7, 81, 81
9, 401280, Note_off_c, 7, 81, 64
9, 401280, Note_on_c, 7, 79, 73
9, 401360, Note_off_c, 7, 79, 64
9, 401360, Note_on_c, 7, 84, 93
9, 401440, Note_off_c, 7, 84, 64
9, 401440, Note_on_c, 7, 83, 94
9, 401520, Note_off_c, 7, 83, 64
9, 401520, Note_on_c, 7, 84, 86
9, 401600, Note_off_c, 7, 84, 64
9, 401600, Note_on_c, 7, 79, 94
9, 401680, Note_off_c, 7, 79, 64
9, 401680, Note_on_c, 7, 76, 85
9, 401760, Note_off_c, 7, 76, 64
9, 401760, Note_on_c, 7, 74, 86
9, 401840, Note_off_c, 7, 74, 64
9, 401840, Note_on_c, 7, 79, 90
9, 401920, Note_off_c, 7, 79, 64
9, 401920, Note_on_c, 7, 78, 84
9, 402000, Note_off_c, 7, 78, 64
9, 402000, Note_on_c, 7, 79, 84
9, 402080, Note_off_c, 7, 79, 64
9, 402080, Note_on_c, 7, 77, 86
9, 402160, Note_off_c, 7, 77, 64
9, 402160, Note_on_c, 7, 74, 94
9, 402240, Note_off_c, 7, 74, 64
9, 402240, Note_on_c, 7, 72, 85
9, 402300, Note_off_c, 7, 72, 64
9, 402300, Note_on_c, 7, 71, 94
9, 402360, Note_off_c, 7, 71, 64
9, 402360, Note_on_c, 7, 72, 82
9, 402420, Note_off_c, 7, 72, 64
9, 402420, Note_on_c, 7, 71, 89
9, 402480, Note_off_c, 7, 71, 64
9, 402480, Note_on_c, 7, 72, 81
9, 402540, Note_off_c, 7, 72, 64
9, 402540, Note_on_c, 7, 76, 93
9, 402600, Note_off_c, 7, 76, 64
9, 402600, Note_on_c, 7, 74, 99
9, 402660, Note_off_c, 7, 74, 64
9, 402660, Note_on_c, 7, 72, 84
9, 402720, Note_off_c, 7, 72, 64
9, 402720, Note_on_c, 7, 71, 95
9, 402780, Note_off_c, 7, 71, 64
9, 402780, Note_on_c, 7, 74, 98
9, 402840, Note_off_c, 7, 74, 64
9, 402840, Note_on_c, 7, 72, 84
9, 402900, Note_off_c, 7, 72, 64
9, 402900, Note_on_c, 7, 71, 94
9, 402960, Note_off_c, 7, 71, 64
9, 402960, Note_on_c, 7, 69, 84
9, 403020, Note_off_c, 7, 69, 64
9, 403020, Note_on_c, 7, 72, 84
9, 403080, Note_off_c, 7, 72, 64
9, 403080, Note_on_c, 7, 71, 93
9, 403140, Note_off_c, 7, 71, 64
9, 403140, Note_on_c, 7, 69, 89
9, 403200, Note_off_c, 7, 69, 64
9, 403200, Note_on_c, 7, 67, 81
9, 403260, Note_off_c, 7, 67, 64
9, 403260, Note_on_c, 7, 71, 95
9, 403320, Note_off_c, 7, 71, 64
9, 403320, Note_on_c, 7, 69, 86
9, 403380, Note_off_c, 7, 69, 64
9, 403380, Note_on_c, 7, 67, 86
9, 403440, Note_off_c, 7, 67, 64
9, 403440, Note_on_c, 7, 65, 85
9, 403500, Note_off_c, 7, 65, 64
9, 403500, Note_on_c, 7, 69, 95
9, 403560, Note_off_c, 7, 69, 64
9, 403560, Note_on_c, 7, 67, 90
9, 403620, Note_off_c, 7, 67, 64
9, 403620, Note_on_c, 7, 65, 86
9, 403680, Note_off_c, 7, 65, 64
9, 403680, Note_on_c, 7, 64, 82
9, 403740, Note_off_c, 7, 64, 64
9, 403740, Note_on_c, 7, 67, 93
9, 403800, Note_off_c, 7, 67, 64
9, 403800, Note_on_c, 7, 65, 89
9, 403860, Note_off_c, 7, 65, 64
9, 403860, Note_on_c, 7, 64, 89
9, 403920, Note_off_c, 7, 64, 64
9, 403920, Note_on_c, 7, 62, 81
9, 403980, Note_off_c, 7, 62, 64
9, 403980, Note_on_c, 7, 65, 95
9, 404040, Note_off_c, 7, 65, 64
9, 404040, Note_on_c, 7, 64, 94
9, 404100, Note_off_c, 7, 64, 64
9, 404100, Note_on_c, 7, 62, 86
9, 404160, Note_off_c, 7, 62, 64
9, 404280, Note_on_c, 7, 76, 93
9, 404340, Note_off_c, 7, 76, 64
9, 404340, Note_on_c, 7, 75, 86
9, 404400, Note_off_c, 7, 75, 64
9, 404400, Note_on_c, 7, 76, 95
9, 404460, Note_off_c, 7, 76, 64
9, 404460, Note_on_c, 7, 79, 86
9, 404520, Note_off_c, 7, 79, 64
9, 404520, Note_on_c, 7, 77, 94
9, 404580, Note_off_c, 7, 77, 64
9, 404580, Note_on_c, 7, 76, 86
9, 404640, Note_off_c, 7, 76, 64
9, 404640, Note_on_c, 7, 74, 94
9, 404700, Note_off_c, 7, 74, 64
9, 404700, Note_on_c, 7, 77, 94
9, 404760, Note_off_c, 7, 77, 64
9, 404760, Note_on_c, 7, 76, 95
9, 404820, Note_off_c, 7, 76, 64
9, 404820, Note_on_c, 7, 74, 98
9, 404880, Note_off_c, 7, 74, 64
9, 404880, Note_on_c, 7, 72, 84
9, 404940, Note_off_c, 7, 72, 64
9, 404940, Note_on_c, 7, 76, 99
9, 405000, Note_off_c, 7, 76, 64
9, 405000, Note_on_c, 7, 74, 95
9, 405060, Note_off_c, 7, 74, 64
9, 405060, Note_on_c, 7, 72, 84
9, 405120, Note_off_c, 7, 72, 64
9, 405120, Note_on_c, 7, 71, 84
9, 405180, Note_off_c, 7, 71, 64
9, 405180, Note_on_c, 7, 74, 98
9, 405240, Note_off_c, 7, 74, 64
9, 405240, Note_on_c, 7, 72, 86
9, 405300, Note_off_c, 7, 72, 64
9, 405300, Note_on_c, 7, 71, 93
9, 405360, Note_off_c, 7, 71, 64
9, 405360, Note_on_c, 7, 69, 81
9, 405420, Note_off_c, 7, 69, 64
9, 405420, Note_on_c, 7, 72, 89
9, 405480, Note_off_c, 7, 72, 64
9, 405480, Note_on_c, 7, 71, 86
9, 405540, Note_off_c, 7, 71, 64
9, 405540, Note_on_c, 7, 69, 89
9, 405600, Note_off_c, 7, 69, 64
9, 405600, Note_on_c, 7, 67, 76
9, 405660, Note_off_c, 7, 67, 64
9, 405660, Note_on_c, 7, 71, 99
9, 405720, Note_off_c, 7, 71, 64
9, 405720, Note_on_c, 7, 69, 94
9, 405780, Note_off_c, 7, 69, 64
9, 405780, Note_on_c, 7, 67, 85
9, 405840, Note_off_c, 7, 67, 64
9, 405840, Note_on_c, 7, 65, 84
9, 405900, Note_off_c, 7, 65, 64
9, 405900, Note_on_c, 7, 69, 95
9, 405960, Note_off_c, 7, 69, 64
9, 405960, Note_on_c, 7, 67, 90
9, 406020, Note_off_c, 7, 67, 64
9, 406020, Note_on_c, 7, 65, 94
9, 406080, Note_off_c, 7, 65, 64
9, 406080, Note_on_c, 7, 64, 99
9, 406200, Note_off_c, 7, 64, 64
9, 406200, Note_on_c, 7, 84, 94
9, 406260, Note_off_c, 7, 84, 64
9, 406260, Note_on_c, 7, 83, 89
9, 406320, Note_off_c, 7, 83, 64
9, 406320, Note_on_c, 7, 84, 90
9, 406380, Note_off_c, 7, 84, 64
9, 406380, Note_on_c, 7, 88, 95
9, 406440, Note_off_c, 7, 88, 64
9, 406440, Note_on_c, 7, 86, 94
9, 406500, Note_off_c, 7, 86, 64
9, 406500, Note_on_c, 7, 84, 85
9, 406560, Note_off_c, 7, 84, 64
9, 406560, Note_on_c, 7, 83, 94
9, 406620, Note_off_c, 7, 83, 64
9, 406620, Note_on_c, 7, 86, 94
9, 406680, Note_off_c, 7, 86, 64
9, 406680, Note_on_c, 7, 84, 80
9, 406740, Note_off_c, 7, 84, 64
9, 406740, Note_on_c, 7, 83, 98
9, 406800, Note_off_c, 7, 83, 64
9, 406800, Note_on_c, 7, 81, 86
9, 406860, Note_off_c, 7, 81, 64
9, 406860, Note_on_c, 7, 84, 89
9, 406920, Note_off_c, 7, 84, 64
9, 406920, Note_on_c, 7, 83, 86
9, 406980, Note_off_c, 7, 83, 64
9, 406980, Note_on_c, 7, 81, 93
9, 407040, Note_off_c, 7, 81, 64
9, 407040, Note_on_c, 7, 79, 84
9, 407100, Note_off_c, 7, 79, 64
9, 407100, Note_on_c, 7, 83, 94
9, 407160, Note_off_c, 7, 83, 64
9, 407160, Note_on_c, 7, 81, 94
9, 407220, Note_off_c, 7, 81, 64
9, 407220, Note_on_c, 7, 79, 85
9, 407280, Note_off_c, 7, 79, 64
9, 407280, Note_on_c, 7, 77, 89
9, 407340, Note_off_c, 7, 77, 64
9, 407340, Note_on_c, 7, 81, 95
9, 407400, Note_off_c, 7, 81, 64
9, 407400, Note_on_c, 7, 79, 93
9, 407460, Note_off_c, 7, 79, 64
9, 407460, Note_on_c, 7, 77, 84
9, 407520, Note_off_c, 7, 77, 64
9, 407520, Note_on_c, 7, 76, 95
9, 407580, Note_off_c, 7, 76, 64
9, 407580, Note_on_c, 7, 79, 84
9, 407640, Note_off_c, 7, 79, 64
9, 407640, Note_on_c, 7, 77, 84
9, 407700, Note_off_c, 7, 77, 64
9, 407700, Note_on_c, 7, 76, 94
9, 407760, Note_off_c, 7, 76, 64
9, 407760, Note_on_c, 7, 74, 94
9, 407820, Note_off_c, 7, 74, 64
9, 407820, Note_on_c, 7, 77, 89
9, 407880, Note_off_c, 7, 77, 64
9, 407880, Note_on_c, 7, 76, 94
9, 407940, Note_off_c, 7, 76, 64
9, 407940, Note_on_c, 7, 74, 98
9, 408000, Note_off_c, 7, 74, 64
9, 408000, Note_on_c, 7, 72, 84
9, 408240, Note_off_c, 7, 72, 64
9, 408240, Note_on_c, 7, 79, 95
9, 408320, Note_off_c, 7, 79, 64
9, 408320, Note_on_c, 7, 78, 95
9, 408400, Note_off_c, 7, 78, 64
9, 408400, Note_on_c, 7, 77, 89
9, 408480, Note_off_c, 7, 77, 64
9, 408480, Note_on_c, 7, 76, 104
9, 408560, Note_off_c, 7, 76, 64
9, 408560, Note_on_c, 7, 74, 101
9, 408640, Note_off_c, 7, 74, 64
9, 408640, Note_on_c, 7, 72, 89
9, 408720, Note_off_c, 7, 72, 64
9, 408720, Note_on_c, 7, 79, 119
9, 408800, Note_off_c, 7, 79, 64
9, 408800, Note_on_c, 7, 78, 86
9, 408880, Note_off_c, 7, 78, 64
9, 408880, Note_on_c, 7, 77, 93
9, 408960, Note_off_c, 7, 77, 64
9, 408960, Note_on_c, 7, 76, 101
9, 409040, Note_off_c, 7, 76, 64
9, 409040, Note_on_c, 7, 74, 99
9, 409120, Note_off_c, 7, 74, 64
9, 409120, Note_on_c, 7, 72, 90
9, 409200, Note_off_c, 7, 72, 64
9, 409200, Note_on_c, 7, 81, 89
9, 409280, Note_off_c, 7, 81, 64
9, 409280, Note_on_c, 7, 80, 94
9, 409360, Note_off_c, 7, 80, 64
9, 409360, Note_on_c, 7, 79, 99
9, 409440, Note_off_c, 7, 79, 64
9, 409440, Note_on_c, 7, 77, 99
9, 409520, Note_off_c, 7, 77, 64
9, 409520, Note_on_c, 7, 76, 99
9, 409600, Note_off_c, 7, 76, 64
9, 409600, Note_on_c, 7, 74, 99
9, 409680, Note_off_c, 7, 74, 64
9, 409680, Note_on_c, 7, 81, 119
9, 409760, Note_off_c, 7, 81, 64
9, 409760, Note_on_c, 7, 80, 104
9, 409840, Note_off_c, 7, 80, 64
9, 409840, Note_on_c, 7, 79, 105
9, 409920, Note_off_c, 7, 79, 64
9, 409920, Note_on_c, 7, 77, 95
9, 410000, Note_off_c, 7, 77, 64
9, 410000, Note_on_c, 7, 76, 98
9, 410080, Note_off_c, 7, 76, 64
9, 410080, Note_on_c, 7, 74, 90
9, 410160, Note_off_c, 7, 74, 64
9, 410160, Note_on_c, 7, 84, 117
9, 410240, Note_off_c, 7, 84, 64
9, 410240, Note_on_c, 7, 83, 86
9, 410320, Note_off_c, 7, 83, 64
9, 410320, Note_on_c, 7, 82, 84
9, 410400, Note_off_c, 7, 82, 64
9, 410400, Note_on_c, 7, 81, 94
9, 410480, Note_off_c, 7, 81, 64
9, 410480, Note_on_c, 7, 79, 89
9, 410560, Note_off_c, 7, 79, 64
9, 410560, Note_on_c, 7, 77, 86
9, 410640, Note_off_c, 7, 77, 64
9, 410640, Note_on_c, 7, 84, 123
9, 410720, Note_off_c, 7, 84, 64
9, 410720, Note_on_c, 7, 83, 90
9, 410800, Note_off_c, 7, 83, 64
9, 410800, Note_on_c, 7, 82, 95
9, 410880, Note_off_c, 7, 82, 64
9, 410880, Note_on_c, 7, 81, 95
9, 410960, Note_off_c, 7, 81, 64
9, 410960, Note_on_c, 7, 79, 94
9, 411040, Note_off_c, 7, 79, 64
9, 411040, Note_on_c, 7, 77, 93
9, 411120, Note_off_c, 7, 77, 64
9, 411120, Note_on_c, 7, 84, 123
9, 411200, Note_off_c, 7, 84, 64
9, 411200, Note_on_c, 7, 83, 89
9, 411280, Note_off_c, 7, 83, 64
9, 411280, Note_on_c, 7, 82, 86
9, 411360, Note_off_c, 7, 82, 64
9, 411360, Note_on_c, 7, 81, 94
9, 411440, Note_off_c, 7, 81, 64
9, 411440, Note_on_c, 7, 79, 89
9, 411520, Note_off_c, 7, 79, 64
9, 411520, Note_on_c, 7, 77, 85
9, 411600, Note_off_c, 7, 77, 64
9, 411600, Note_on_c, 7, 84, 125
9, 411680, Note_off_c, 7, 84, 64
9, 411680, Note_on_c, 7, 83, 105
9, 411760, Note_off_c, 7, 83, 64
9, 411760, Note_on_c, 7, 82, 105
9, 411840, Note_off_c, 7, 82, 64
9, 411840, Note_on_c, 7, 81, 99
9, 411920, Note_off_c, 7, 81, 64
9, 411920, Note_on_c, 7, 69, 93
9, 412000, Note_off_c, 7, 69, 64
9, 412000, Note_on_c, 7, 70, 95
9, 412080, Note_off_c, 7, 70, 64
9, 412080, Note_on_c, 7, 71, 84
9, 412160, Note_off_c, 7, 71, 64
9, 412160, Note_on_c, 7, 72, 86
9, 412240, Note_off_c, 7, 72, 64
9, 412240, Note_on_c, 7, 73, 89
9, 412320, Note_off_c, 7, 73, 64
9, 412320, Note_on_c, 7, 74, 74
9, 412400, Note_off_c, 7, 74, 64
9, 412400, Note_on_c, 7, 75, 81
9, 412480, Note_off_c, 7, 75, 64
9, 412480, Note_on_c, 7, 76, 80
9, 412560, Note_off_c, 7, 76, 64
9, 412560, Note_on_c, 7, 77, 81
9, 412620, Note_off_c, 7, 77, 64
9, 412620, Note_on_c, 7, 78, 80
9, 412680, Note_off_c, 7, 78, 64
9, 412680, Note_on_c, 7, 79, 71
9, 412740, Note_off_c, 7, 79, 64
9, 412740, Note_on_c, 7, 80, 62
9, 412800, Note_off_c, 7, 80, 64
9, 412800, Note_on_c, 7, 81, 72
9, 413040, Note_off_c, 7, 81, 64
9, 413040, Note_on_c, 7, 81, 72
9, 413280, Note_off_c, 7, 81, 64
9, 413280, Note_on_c, 7, 81, 61
9, 413520, Note_off_c, 7, 81, 64
9, 413520, Note_on_c, 7, 81, 58
9, 413760, Note_off_c, 7, 81, 64
9, 413760, Note_on_c, 7, 81, 35
9, 413760, Note_on_c, 7, 72, 42
9, 413880, Note_off_c, 7, 72, 64
9, 413880, Note_on_c, 7, 71, 43
9, 414000, Note_off_c, 7, 71, 64
9, 414000, Note_on_c, 7, 72, 45
9, 414120, Note_off_c, 7, 72, 64
9, 414120, Note_on_c, 7, 74, 56
9, 414240, Note_off_c, 7, 74, 64
9, 414240, Note_on_c, 7, 75, 43
9, 414360, Note_off_c, 7, 75, 64
9, 414360, Note_on_c, 7, 74, 40
9, 414480, Note_off_c, 7, 74, 64
9, 414480, Note_on_c, 7, 72, 38
9, 414600, Note_off_c, 7, 72, 64
9, 414600, Note_on_c, 7, 71, 43
9, 414720, Note_off_c, 7, 71, 64
9, 414720, Note_off_c, 7, 81, 64
9, 414720, Note_on_c, 7, 79, 35
9, 414720, Note_on_c, 7, 72, 40
9, 414840, Note_off_c, 7, 72, 64
9, 414840, Note_on_c, 7, 71, 36
9, 414960, Note_off_c, 7, 71, 64
9, 414960, Note_on_c, 7, 72, 37
9, 415080, Note_off_c, 7, 72, 64
9, 415080, Note_on_c, 7, 74, 43
9, 415200, Note_off_c, 7, 74, 64
9, 415200, Note_on_c, 7, 75, 62
9, 415320, Note_off_c, 7, 75, 64
9, 415320, Note_on_c, 7, 74, 40
9, 415440, Note_off_c, 7, 74, 64
9, 415440, Note_on_c, 7, 72, 43
9, 415560, Note_off_c, 7, 72, 64
9, 415560, Note_on_c, 7, 71, 43
9, 415680, Note_off_c, 7, 71, 64
9, 415680, Note_off_c, 7, 79, 64
9, 415680, Note_on_c, 7, 78, 31
9, 415680, Note_on_c, 7, 72, 43
9, 415800, Note_off_c, 7, 72, 64
9, 415800, Note_on_c, 7, 71, 43
9, 415920, Note_off_c, 7, 71, 64
9, 415920, Note_on_c, 7, 72, 46
9, 416040, Note_off_c, 7, 72, 64
9, 416040, Note_on_c, 7, 73, 52
9, 416160, Note_off_c, 7, 73, 64
9, 416160, Note_on_c, 7, 75, 61
9, 416280, Note_off_c, 7, 75, 64
9, 416280, Note_on_c, 7, 68, 45
9, 416400, Note_off_c, 7, 68, 64
9, 416400, Note_on_c, 7, 70, 70
9, 416520, Note_off_c, 7, 70, 64
9, 416520, Note_on_c, 7, 72, 65
9, 416640, Note_off_c, 7, 72, 64
9, 416640, Note_off_c, 7, 78, 64
9, 416640, Note_on_c, 7, 77, 43
9, 416640, Note_on_c, 7, 73, 44
9, 416760, Note_off_c, 7, 73, 64
9, 416760, Note_on_c, 7, 65, 50
9, 416880, Note_off_c, 7, 65, 64
9, 416880, Note_on_c, 7, 73, 45
9, 417000, Note_off_c, 7, 73, 64
9, 417000, Note_on_c, 7, 70, 46
9, 417120, Note_off_c, 7, 77, 64
9, 417120, Note_on_c, 7, 75, 41
9, 417240, Note_off_c, 7, 70, 64
9, 417240, Note_on_c, 7, 69, 40
9, 417360, Note_off_c, 7, 69, 64
9, 417360, Note_on_c, 7, 67, 40
9, 417480, Note_off_c, 7, 67, 64
9, 417480, Note_on_c, 7, 69, 39
9, 417600, Note_off_c, 7, 69, 64
9, 417600, Note_off_c, 7, 75, 64
9, 417600, Note_on_c, 7, 73, 52
9, 417600, Note_on_c, 7, 70, 35
9, 417720, Note_off_c, 7, 70, 64
9, 417720, Note_on_c, 7, 61, 43
9, 417840, Note_off_c, 7, 61, 64
9, 417840, Note_on_c, 7, 70, 43
9, 417960, Note_off_c, 7, 70, 64
9, 417960, Note_on_c, 7, 66, 40
9, 418080, Note_off_c, 7, 73, 64
9, 418080, Note_on_c, 7, 71, 40
9, 418200, Note_off_c, 7, 66, 64
9, 418200, Note_on_c, 7, 65, 46
9, 418320, Note_off_c, 7, 65, 64
9, 418320, Note_on_c, 7, 63, 45
9, 418440, Note_off_c, 7, 63, 64
9, 418440, Note_on_c, 7, 65, 43
9, 418560, Note_off_c, 7, 65, 64
9, 418560, Note_off_c, 7, 71, 64
9, 418560, Note_on_c, 7, 70, 31
9, 418560, Note_on_c, 7, 66, 42
9, 418680, Note_off_c, 7, 66, 64
9, 418680, Note_on_c, 7, 64, 66
9, 418800, Note_off_c, 7, 70, 64
9, 418800, Note_on_c, 7, 69, 73
9, 418920, Note_off_c, 7, 64, 64
9, 418920, Note_on_c, 7, 63, 84
9, 419040, Note_off_c, 7, 63, 64
9, 419040, Note_off_c, 7, 69, 64
9, 419040, Note_on_c, 7, 68, 77
9, 419040, Note_on_c, 7, 64, 94
9, 419160, Note_off_c, 7, 64, 64
9, 419160, Note_on_c, 7, 62, 89
9, 419280, Note_off_c, 7, 68, 64
9, 419280, Note_on_c, 7, 67, 81
9, 419400, Note_off_c, 7, 62, 64
9, 419400, Note_on_c, 7, 61, 80
9, 419520, Note_off_c, 7, 61, 64
9, 419520, Note_off_c, 7, 67, 64
9, 419520, Note_on_c, 7, 66, 89
9, 419520, Note_on_c, 7, 62, 82
9, 419640, Note_off_c, 7, 62, 64
9, 419640, Note_on_c, 7, 60, 95
9, 419760, Note_off_c, 7, 66, 64
9, 419760, Note_on_c, 7, 65, 99
9, 419880, Note_off_c, 7, 60, 64
9, 419880, Note_on_c, 7, 59, 95
9, 420000, Note_off_c, 7, 59, 64
9, 420000, Note_off_c, 7, 65, 64
9, 420000, Note_on_c, 7, 64, 99
9, 420000, Note_on_c, 7, 60, 93
9, 420120, Note_off_c, 7, 60, 64
9, 420120, Note_on_c, 7, 55, 95
9, 420240, Note_off_c, 7, 55, 64
9, 420240, Note_off_c, 7, 64, 64
9, 420240, Note_on_c, 7, 57, 119
9, 420240, Note_on_c, 7, 65, 110
9, 420360, Note_off_c, 7, 65, 64
9, 420360, Note_on_c, 7, 62, 104
9, 420480, Note_off_c, 7, 62, 64
9, 420480, Note_off_c, 7, 57, 64
9, 420480, Note_on_c, 7, 59, 105
9, 420480, Note_on_c, 7, 56, 95
9, 420600, Note_off_c, 7, 56, 64
9, 420600, Note_on_c, 7, 50, 104
9, 420720, Note_off_c, 7, 50, 64
9, 420720, Note_on_c, 7, 56, 95
9, 420840, Note_off_c, 7, 56, 64
9, 420840, Note_on_c, 7, 50, 105
9, 420960, Note_off_c, 7, 50, 64
9, 420960, Note_off_c, 7, 59, 64
9, 420960, Note_on_c, 7, 51, 115
9, 420960, Note_on_c, 7, 60, 89
9, 421080, Note_off_c, 7, 60, 64
9, 421080, Note_on_c, 7, 59, 101
9, 421200, Note_off_c, 7, 59, 64
9, 421200, Note_on_c, 7, 60, 94
9, 421320, Note_off_c, 7, 60, 64
9, 421320, Note_on_c, 7, 57, 105
9, 421440, Note_off_c, 7, 57, 64
9, 421440, Note_off_c, 7, 51, 64
9, 421440, Note_on_c, 7, 55, 61
9, 421440, Note_on_c, 7, 52, 78
9, 421560, Note_off_c, 7, 52, 64
9, 421560, Note_off_c, 7, 55, 64
9, 421560, Note_on_c, 7, 43, 74
9, 421620, Note_off_c, 7, 43, 64
9, 421680, Note_on_c, 7, 45, 85
9, 421740, Note_off_c, 7, 45, 64
9, 421800, Note_on_c, 7, 47, 89
9, 421860, Note_off_c, 7, 47, 64
9, 421920, Note_on_c, 7, 48, 89
9, 421980, Note_off_c, 7, 48, 64
9, 422040, Note_on_c, 7, 50, 89
9, 422100, Note_off_c, 7, 50, 64
9, 422160, Note_on_c, 7, 52, 94
9, 422220, Note_off_c, 7, 52, 64
9, 422280, Note_on_c, 7, 53, 84
9, 422340, Note_off_c, 7, 53, 64
9, 422400, Note_on_c, 7, 55, 84
9, 422460, Note_off_c, 7, 55, 64
9, 422520, Note_on_c, 7, 48, 94
9, 422580, Note_off_c, 7, 48, 64
9, 422640, Note_on_c, 7, 50, 94
9, 422700, Note_off_c, 7, 50, 64
9, 422760, Note_on_c, 7, 52, 93
9, 422820, Note_off_c, 7, 52, 64
9, 422880, Note_on_c, 7, 53, 80
9, 422940, Note_off_c, 7, 53, 64
9, 423000, Note_on_c, 7, 55, 86
9, 423060, Note_off_c, 7, 55, 64
9, 423120, Note_on_c, 7, 57, 86
9, 423180, Note_off_c, 7, 57, 64
9, 423240, Note_on_c, 7, 59, 93
9, 423300, Note_off_c, 7, 59, 64
9, 423360, Note_on_c, 7, 60, 84
9, 423600, Note_off_c, 7, 60, 64
9, 425280, Note_on_c, 7, 43, 80
9, 425340, Note_off_c, 7, 43, 64
9, 425340, Note_on_c, 7, 45, 89
9, 425400, Note_off_c, 7, 45, 64
9, 425400, Note_on_c, 7, 47, 85
9, 425460, Note_off_c, 7, 47, 64
9, 425460, Note_on_c, 7, 48, 86
9, 425520, Note_off_c, 7, 48, 64
9, 425520, Note_on_c, 7, 50, 80
9, 425580, Note_off_c, 7, 50, 64
9, 425580, Note_on_c, 7, 52, 89
9, 425640, Note_off_c, 7, 52, 64
9, 425640, Note_on_c, 7, 53, 86
9, 425700, Note_off_c, 7, 53, 64
9, 425700, Note_on_c, 7, 54, 72
9, 425760, Note_off_c, 7, 54, 64
9, 425760, Note_on_c, 7, 55, 74
9, 425820, Note_off_c, 7, 55, 64
9, 425820, Note_on_c, 7, 57, 94
9, 425880, Note_off_c, 7, 57, 64
9, 425880, Note_on_c, 7, 59, 82
9, 425940, Note_off_c, 7, 59, 64
9, 425940, Note_on_c, 7, 60, 86
9, 426000, Note_off_c, 7, 60, 64
9, 426000, Note_on_c, 7, 62, 76
9, 426060, Note_off_c, 7, 62, 64
9, 426060, Note_on_c, 7, 64, 86
9, 426120, Note_off_c, 7, 64, 64
9, 426120, Note_on_c, 7, 65, 84
9, 426180, Note_off_c, 7, 65, 64
9, 426180, Note_on_c, 7, 66, 86
9, 426240, Note_off_c, 7, 66, 64
9, 426240, Note_on_c, 7, 67, 81
9, 426300, Note_off_c, 7, 67, 64
9, 426300, Note_on_c, 7, 69, 86
9, 426360, Note_off_c, 7, 69, 64
9, 426360, Note_on_c, 7, 71, 95
9, 426420, Note_off_c, 7, 71, 64
9, 426420, Note_on_c, 7, 72, 84
9, 426480, Note_off_c, 7, 72, 64
9, 426480, Note_on_c, 7, 74, 81
9, 426540, Note_off_c, 7, 74, 64
9, 426540, Note_on_c, 7, 76, 90
9, 426600, Note_off_c, 7, 76, 64
9, 426600, Note_on_c, 7, 77, 81
9, 426660, Note_off_c, 7, 77, 64
9, 426660, Note_on_c, 7, 78, 84
9, 426720, Note_off_c, 7, 78, 64
9, 426720, Note_on_c, 7, 79, 84
9, 426780, Note_off_c, 7, 79, 64
9, 426780, Note_on_c, 7, 78, 81
9, 426840, Note_off_c, 7, 78, 64
9, 426840, Note_on_c, 7, 79, 84
9, 426900, Note_off_c, 7, 79, 64
9, 426900, Note_on_c, 7, 78, 77
9, 426960, Note_off_c, 7, 78, 64
9, 426960, Note_on_c, 7, 79, 84
9, 427020, Note_off_c, 7, 79, 64
9, 427020, Note_on_c, 7, 78, 78
9, 427080, Note_off_c, 7, 78, 64
9, 427080, Note_on_c, 7, 79, 81
9, 427140, Note_off_c, 7, 79, 64
9, 427140, Note_on_c, 7, 78, 84
9, 427200, Note_off_c, 7, 78, 64
9, 427200, Note_on_c, 7, 79, 90
9, 427320, Note_off_c, 7, 79, 64
9, 427440, Note_on_c, 7, 88, 125
9, 427440, Note_on_c, 7, 79, 115
9, 427800, Note_off_c, 7, 79, 64
9, 427800, Note_off_c, 7, 88, 64
9, 427800, Note_on_c, 7, 88, 90
9, 427800, Note_on_c, 7, 79, 82
9, 427860, Note_off_c, 7, 79, 64
9, 427860, Note_off_c, 7, 88, 64
9, 427920, Note_on_c, 7, 88, 89
9, 427920, Note_on_c, 7, 79, 89
9, 427980, Note_off_c, 7, 79, 64
9, 427980, Note_off_c, 7, 88, 64
9, 428040, Note_on_c, 7, 86, 93
9, 428040, Note_on_c, 7, 77, 82
9, 428100, Note_off_c, 7, 77, 64
9, 428100, Note_off_c, 7, 86, 64
9, 428160, Note_on_c, 7, 84, 80
9, 428160, Note_on_c, 7, 76, 95
9, 428220, Note_off_c, 7, 76, 64
9, 428220, Note_off_c, 7, 84, 64
9, 428280, Note_on_c, 7, 79, 82
9, 428280, Note_on_c, 7, 76, 86
9, 428340, Note_off_c, 7, 76, 64
9, 428340, Note_off_c, 7, 79, 64
9, 428400, Note_on_c, 7, 79, 82
9, 428400, Note_on_c, 7, 76, 85
9, 428460, Note_off_c, 7, 76, 64
9, 428460, Note_off_c, 7, 79, 64
9, 428520, Note_on_c, 7, 77, 89
9, 428520, Note_on_c, 7, 74, 86
9, 428580, Note_off_c, 7, 74, 64
9, 428580, Note_off_c, 7, 77, 64
9, 428640, Note_on_c, 7, 76, 95
9, 428640, Note_on_c, 7, 72, 76
9, 428700, Note_off_c, 7, 72, 64
9, 428700, Note_off_c, 7, 76, 64
9, 428760, Note_on_c, 7, 84, 89
9, 428820, Note_off_c, 7, 84, 64
9, 428880, Note_on_c, 7, 84, 85
9, 428940, Note_off_c, 7, 84, 64
9, 429000, Note_on_c, 7, 86, 99
9, 429000, Note_on_c, 7, 84, 89
9, 429060, Note_off_c, 7, 84, 64
9, 429060, Note_off_c, 7, 86, 64
9, 429120, Note_on_c, 7, 88, 89
9, 429120, Note_on_c, 7, 84, 85
9, 429360, Note_off_c, 7, 84, 64
9, 429360, Note_off_c, 7, 88, 64
9, 430080, Control_c, 7, 7, 111
9, 430080, Control_c, 7, 10, 64
9, 430080, Control_c, 7, 93, 0
9, 430080, Control_c, 7, 91, 66
9, 430080, Note_on_c, 7, 88, 105
9, 430140, Note_off_c, 7, 88, 64
9, 430140, Note_on_c, 7, 87, 95
9, 430200, Note_off_c, 7, 87, 64
9, 430200, Note_on_c, 7, 88, 101
9, 430260, Note_off_c, 7, 88, 64
9, 430260, Note_on_c, 7, 87, 99
9, 430320, Note_off_c, 7, 87, 64
9, 430320, Note_on_c, 7, 88, 110
9, 430380, Note_off_c, 7, 88, 64
9, 430380, Note_on_c, 7, 87, 105
9, 430440, Note_off_c, 7, 87, 64
9, 430440, Note_on_c, 7, 88, 112
9, 430500, Note_off_c, 7, 88, 64
9, 430500, Note_on_c, 7, 87, 105
9, 430560, Note_off_c, 7, 87, 64
9, 430560, Note_on_c, 7, 88, 112
9, 430620, Note_off_c, 7, 88, 64
9, 430620, Note_on_c, 7, 87, 107
9, 430680, Note_off_c, 7, 87, 64
9, 430680, Note_on_c, 7, 88, 107
9, 430740, Note_off_c, 7, 88, 64
9, 430740, Note_on_c, 7, 87, 105
9, 430800, Note_off_c, 7, 87, 64
9, 430800, Note_on_c, 7, 88, 110
9, 430860, Note_off_c, 7, 88, 64
9, 430860, Note_on_c, 7, 87, 105
9, 430920, Note_off_c, 7, 87, 64
9, 430920, Note_on_c, 7, 88, 105
9, 430980, Note_off_c, 7, 88, 64
9, 430980, Note_on_c, 7, 87, 112
9, 431040, Note_off_c, 7, 87, 64
9, 431040, Control_c, 7, 7, 90
9, 431040, Control_c, 7, 10, 64
9, 431040, Control_c, 7, 93, 0
9, 431040, Control_c, 7, 91, 66
9, 431040, Note_on_c, 7, 86, 117
9, 431070, Note_off_c, 7, 86, 64
9, 431070, Note_on_c, 7, 88, 123
9, 431100, Note_off_c, 7, 88, 64
9, 431100, Note_on_c, 7, 86, 117
9, 431130, Note_off_c, 7, 86, 64
9, 431130, Note_on_c, 7, 88, 117
9, 431160, Note_off_c, 7, 88, 64
9, 431160, Note_on_c, 7, 86, 115
9, 431190, Note_off_c, 7, 86, 64
9, 431190, Note_on_c, 7, 88, 119
9, 431220, Note_off_c, 7, 88, 64
9, 431220, Note_on_c, 7, 86, 115
9, 431250, Note_off_c, 7, 86, 64
9, 431250, Note_on_c, 7, 88, 117
9, 431280, Note_off_c, 7, 88, 64
9, 431280, Note_on_c, 7, 86, 115
9, 431310, Note_off_c, 7, 86, 64
9, 431310, Note_on_c, 7, 88, 119
9, 431340, Note_off_c, 7, 88, 64
9, 431340, Note_on_c, 7, 86, 115
9, 431370, Note_off_c, 7, 86, 64
9, 431370, Note_on_c, 7, 88, 119
9, 431400, Note_off_c, 7, 88, 64
9, 431400, Note_on_c, 7, 86, 115
9, 431430, Note_off_c, 7, 86, 64
9, 431430, Note_on_c, 7, 88, 115
9, 431460, Note_off_c, 7, 88, 64
9, 431460, Note_on_c, 7, 86, 119
9, 431490, Note_off_c, 7, 86, 64
9, 431490, Note_on_c, 7, 88, 115
9, 431520, Note_off_c, 7, 88, 64
9, 431520, Note_on_c, 7, 86, 112
9, 431550, Note_off_c, 7, 86, 64
9, 431550, Note_on_c, 7, 88, 112
9, 431580, Note_off_c, 7, 88, 64
9, 431580, Note_on_c, 7, 86, 112
9, 431610, Note_off_c, 7, 86, 64
9, 431610, Note_on_c, 7, 88, 115
9, 431640, Note_off_c, 7, 88, 64
9, 431640, Note_on_c, 7, 86, 107
9, 431670, Note_off_c, 7, 86, 64
9, 431670, Note_on_c, 7, 88, 115
9, 431700, Note_off_c, 7, 88, 64
9, 431700, Note_on_c, 7, 86, 112
9, 431730, Note_off_c, 7, 86, 64
9, 431730, Note_on_c, 7, 88, 119
9, 431760, Note_off_c, 7, 88, 64
9, 431760, Note_on_c, 7, 86, 115
9, 431790, Note_off_c, 7, 86, 64
9, 431790, Note_on_c, 7, 88, 115
9, 431820, Note_off_c, 7, 88, 64
9, 431820, Note_on_c, 7, 86, 115
9, 431850, Note_off_c, 7, 86, 64
9, 431850, Note_on_c, 7, 88, 119
9, 431880, Note_off_c, 7, 88, 64
9, 431880, Note_on_c, 7, 86, 115
9, 431910, Note_off_c, 7, 86, 64
9, 431910, Note_on_c, 7, 88, 119
9, 431940, Note_off_c, 7, 88, 64
9, 431940, Note_on_c, 7, 86, 119
9, 431970, Note_off_c, 7, 86, 64
9, 431970, Note_on_c, 7, 88, 119
9, 432000, Note_off_c, 7, 88, 64
9, 432000, Note_on_c, 7, 86, 112
9, 432030, Note_off_c, 7, 86, 64
9, 432030, Note_on_c, 7, 88, 119
9, 432060, Note_off_c, 7, 88, 64
9, 432060, Note_on_c, 7, 86, 115
9, 432090, Note_off_c, 7, 86, 64
9, 432090, Note_on_c, 7, 88, 123
9, 432120, Note_off_c, 7, 88, 64
9, 432120, Note_on_c, 7, 86, 119
9, 432150, Note_off_c, 7, 86, 64
9, 432150, Note_on_c, 7, 88, 119
9, 432180, Note_off_c, 7, 88, 64
9, 432180, Note_on_c, 7, 86, 115
9, 432210, Note_off_c, 7, 86, 64
9, 432210, Note_on_c, 7, 88, 115
9, 432240, Note_off_c, 7, 88, 64
9, 432240, Note_on_c, 7, 86, 115
9, 432270, Note_off_c, 7, 86, 64
9, 432270, Note_on_c, 7, 88, 115
9, 432300, Note_off_c, 7, 88, 64
9, 432300, Note_on_c, 7, 86, 119
9, 432330, Note_off_c, 7, 86, 64
9, 432330, Note_on_c, 7, 88, 119
9, 432360, Note_off_c, 7, 88, 64
9, 432360, Note_on_c, 7, 86, 119
9, 432390, Note_off_c, 7, 86, 64
9, 432390, Note_on_c, 7, 88, 117
9, 432420, Note_off_c, 7, 88, 64
9, 432420, Note_on_c, 7, 86, 115
9, 432450, Note_off_c, 7, 86, 64
9, 432450, Note_on_c, 7, 88, 119
9, 432480, Note_off_c, 7, 88, 64
9, 432480, Note_on_c, 7, 86, 119
9, 432510, Note_off_c, 7, 86, 64
9, 432510, Note_on_c, 7, 88, 115
9, 432540, Note_off_c, 7, 88, 64
9, 432540, Note_on_c, 7, 86, 105
9, 432570, Note_off_c, 7, 86, 64
9, 432570, Note_on_c, 7, 88, 123
9, 432600, Note_off_c, 7, 88, 64
9, 432600, Note_on_c, 7, 86, 112
9, 432630, Note_off_c, 7, 86, 64
9, 432630, Note_on_c, 7, 88, 115
9, 432660, Note_off_c, 7, 88, 64
9, 432660, Note_on_c, 7, 86, 119
9, 432690, Note_off_c, 7, 86, 64
9, 432690, Note_on_c, 7, 88, 125
9, 432720, Note_off_c, 7, 88, 64
9, 432780, Note_on_c, 7, 84, 110
9, 432840, Note_off_c, 7, 84, 64
9, 432840, Note_on_c, 7, 88, 110
9, 432900, Note_off_c, 7, 88, 64
9, 432900, Note_on_c, 7, 86, 112
9, 432960, Note_off_c, 7, 86, 64
9, 432960, Note_on_c, 7, 84, 119
9, 433200, Note_off_c, 7, 84, 64
9, 445440, Control_c, 7, 7, 120
9, 445440, Control_c, 7, 10, 64
9, 445440, Control_c, 7, 93, 0
9, 445440, Control_c, 7, 91, 66
9, 446940, Note_on_c, 7, 76, 80
9, 447000, Note_off_c, 7, 76, 64
9, 447000, Note_on_c, 7, 77, 81
9, 447060, Note_off_c, 7, 77, 64
9, 447060, Note_on_c, 7, 79, 80
9, 447120, Note_off_c, 7, 79, 64
9, 447120, Note_on_c, 7, 81, 84
9, 447180, Note_off_c, 7, 81, 64
9, 447180, Note_on_c, 7, 83, 86
9, 447240, Note_off_c, 7, 83, 64
9, 447240, Note_on_c, 7, 84, 84
9, 447300, Note_off_c, 7, 84, 64
9, 447300, Note_on_c, 7, 86, 93
9, 447360, Note_off_c, 7, 86, 64
9, 447360, Note_on_c, 7, 88, 94
9, 447420, Note_off_c, 7, 88, 64
9, 447420, Note_on_c, 7, 86, 93
9, 447480, Note_off_c, 7, 86, 64
9, 447480, Note_on_c, 7, 84, 81
9, 447540, Note_off_c, 7, 84, 64
9, 447540, Note_on_c, 7, 83, 85
9, 447600, Note_off_c, 7, 83, 64
9, 447600, Note_on_c, 7, 81, 86
9, 447660, Note_off_c, 7, 81, 64
9, 447660, Note_on_c, 7, 79, 69
9, 447720, Note_off_c, 7, 79, 64
9, 447720, Note_on_c, 7, 77, 80
9, 447780, Note_off_c, 7, 77, 64
9, 447780, Note_on_c, 7, 76, 86
9, 447840, Note_off_c, 7, 76, 64
9, 447840, Note_on_c, 7, 77, 77
9, 448080, Note_off_c, 7, 77, 64
9, 448860, Note_on_c, 7, 77, 81
9, 448920, Note_off_c, 7, 77, 64
9, 448920, Note_on_c, 7, 79, 94
9, 448980, Note_off_c, 7, 79, 64
9, 448980, Note_on_c, 7, 81, 94
9, 449040, Note_off_c, 7, 81, 64
9, 449040, Note_on_c, 7, 83, 80
9, 449100, Note_off_c, 7, 83, 64
9, 449100, Note_on_c, 7, 84, 89
9, 449160, Note_off_c, 7, 84, 64
9, 449160, Note_on_c, 7, 86, 95
9, 449220, Note_off_c, 7, 86, 64
9, 449220, Note_on_c, 7, 88, 95
9, 449280, Note_off_c, 7, 88, 64
9, 449280, Note_on_c, 7, 89, 95
9, 449340, Note_off_c, 7, 89, 64
9, 449340, Note_on_c, 7, 88, 95
9, 449400, Note_off_c, 7, 88, 64
9, 449400, Note_on_c, 7, 86, 94
9, 449460, Note_off_c, 7, 86, 64
9, 449460, Note_on_c, 7, 84, 89
9, 449520, Note_off_c, 7, 84, 64
9, 449520, Note_on_c, 7, 83, 89
9, 449580, Note_off_c, 7, 83, 64
9, 449580, Note_on_c, 7, 81, 93
9, 449640, Note_off_c, 7, 81, 64
9, 449640, Note_on_c, 7, 79, 93
9, 449700, Note_off_c, 7, 79, 64
9, 449700, Note_on_c, 7, 77, 85
9, 449760, Note_off_c, 7, 77, 64
9, 449760, Note_on_c, 7, 79, 94
9, 450240, Note_off_c, 7, 79, 64
9, 450240, Note_on_c, 7, 91, 94
9, 450480, Note_off_c, 7, 91, 64
9, 450480, Note_on_c, 7, 91, 95
9, 450720, Note_off_c, 7, 91, 64
9, 450720, Note_on_c, 7, 81, 94
9, 451200, Note_off_c, 7, 81, 64
9, 451200, Note_on_c, 7, 93, 85
9, 451440, Note_off_c, 7, 93, 64
9, 451440, Note_on_c, 7, 93, 95
9, 451680, Note_off_c, 7, 93, 64
9, 451680, Note_on_c, 7, 81, 93
9, 452160, Note_off_c, 7, 81, 64
9, 452160, Note_on_c, 7, 80, 86
9, 452280, Note_off_c, 7, 80, 64
9, 452280, Note_on_c, 7, 81, 85
9, 452400, Note_off_c, 7, 81, 64
9, 452400, Note_on_c, 7, 83, 85
9, 452520, Note_off_c, 7, 83, 64
9, 452520, Note_on_c, 7, 81, 95
9, 452640, Note_off_c, 7, 81, 64
9, 452640, Note_on_c, 7, 79, 86
9, 452760, Note_off_c, 7, 79, 64
9, 452760, Note_on_c, 7, 77, 94
9, 452880, Note_off_c, 7, 77, 64
9, 452880, Note_on_c, 7, 76, 95
9, 453000, Note_off_c, 7, 76, 64
9, 453000, Note_on_c, 7, 74, 84
9, 453120, Note_off_c, 7, 74, 64
9, 453120, Note_on_c, 7, 73, 77
9, 453240, Note_off_c, 7, 73, 64
9, 453240, Note_on_c, 7, 74, 94
9, 453360, Note_off_c, 7, 74, 64
9, 453360, Note_on_c, 7, 77, 90
9, 453480, Note_off_c, 7, 77, 64
9, 453480, Note_on_c, 7, 74, 93
9, 453600, Note_off_c, 7, 74, 64
9, 453600, Note_on_c, 7, 79, 90
9, 454080, Note_off_c, 7, 79, 64
9, 454080, Note_on_c, 7, 78, 85
9, 454200, Note_off_c, 7, 78, 64
9, 454200, Note_on_c, 7, 79, 94
9, 454320, Note_off_c, 7, 79, 64
9, 454320, Note_on_c, 7, 81, 89
9, 454440, Note_off_c, 7, 81, 64
9, 454440, Note_on_c, 7, 79, 93
9, 454560, Note_off_c, 7, 79, 64
9, 454560, Note_on_c, 7, 77, 86
9, 454680, Note_off_c, 7, 77, 64
9, 454680, Note_on_c, 7, 76, 86
9, 454800, Note_off_c, 7, 76, 64
9, 454800, Note_on_c, 7, 74, 95
9, 454920, Note_off_c, 7, 74, 64
9, 454920, Note_on_c, 7, 72, 84
9, 455040, Note_off_c, 7, 72, 64
9, 455040, Note_on_c, 7, 71, 84
9, 455160, Note_off_c, 7, 71, 64
9, 455160, Note_on_c, 7, 72, 94
9, 455280, Note_off_c, 7, 72, 64
9, 455280, Note_on_c, 7, 76, 95
9, 455400, Note_off_c, 7, 76, 64
9, 455400, Note_on_c, 7, 72, 89
9, 455520, Note_off_c, 7, 72, 64
9, 455520, Note_on_c, 7, 71, 89
9, 455640, Note_off_c, 7, 71, 64
9, 455640, Note_on_c, 7, 77, 81
9, 455640, Note_on_c, 7, 74, 95
9, 455760, Note_off_c, 7, 74, 64
9, 455760, Note_off_c, 7, 77, 64
9, 455760, Note_on_c, 7, 77, 82
9, 455760, Note_on_c, 7, 74, 93
9, 455880, Note_off_c, 7, 74, 64
9, 455880, Note_off_c, 7, 77, 64
9, 455880, Note_on_c, 7, 76, 98
9, 455880, Note_on_c, 7, 72, 73
9, 456000, Note_off_c, 7, 72, 64
9, 456000, Note_off_c, 7, 76, 64
9, 456000, Note_on_c, 7, 74, 99
9, 456000, Note_on_c, 7, 71, 85
9, 456120, Note_off_c, 7, 71, 64
9, 456120, Note_off_c, 7, 74, 64
9, 456120, Note_on_c, 7, 86, 89
9, 456120, Note_on_c, 7, 77, 61
9, 456240, Note_off_c, 7, 77, 64
9, 456240, Note_off_c, 7, 86, 64
9, 456240, Note_on_c, 7, 86, 95
9, 456240, Note_on_c, 7, 77, 77
9, 456360, Note_off_c, 7, 77, 64
9, 456360, Note_off_c, 7, 86, 64
9, 456360, Note_on_c, 7, 84, 93
9, 456360, Note_on_c, 7, 76, 90
9, 456480, Note_off_c, 7, 76, 64
9, 456480, Note_off_c, 7, 84, 64
9, 456480, Note_on_c, 7, 83, 94
9, 456540, Note_off_c, 7, 83, 64
9, 456540, Note_on_c, 7, 86, 94
9, 456600, Note_off_c, 7, 86, 64
9, 456600, Note_on_c, 7, 84, 95
9, 456660, Note_off_c, 7, 84, 64
9, 456660, Note_on_c, 7, 83, 95
9, 456720, Note_off_c, 7, 83, 64
9, 456720, Note_on_c, 7, 81, 99
9, 456780, Note_off_c, 7, 81, 64
9, 456780, Note_on_c, 7, 84, 89
9, 456840, Note_off_c, 7, 84, 64
9, 456840, Note_on_c, 7, 83, 99
9, 456900, Note_off_c, 7, 83, 64
9, 456900, Note_on_c, 7, 81, 95
9, 456960, Note_off_c, 7, 81, 64
9, 456960, Note_on_c, 7, 79, 93
9, 457020, Note_off_c, 7, 79, 64
9, 457020, Note_on_c, 7, 83, 95
9, 457080, Note_off_c, 7, 83, 64
9, 457080, Note_on_c, 7, 81, 90
9, 457140, Note_off_c, 7, 81, 64
9, 457140, Note_on_c, 7, 79, 86
9, 457200, Note_off_c, 7, 79, 64
9, 457200, Note_on_c, 7, 77, 84
9, 457260, Note_off_c, 7, 77, 64
9, 457260, Note_on_c, 7, 81, 95
9, 457320, Note_off_c, 7, 81, 64
9, 457320, Note_on_c, 7, 79, 86
9, 457380, Note_off_c, 7, 79, 64
9, 457380, Note_on_c, 7, 77, 85
9, 457440, Note_off_c, 7, 77, 64
9, 457440, Note_on_c, 7, 76, 89
9, 457440, Note_on_c, 7, 72, 77
9, 457560, Note_off_c, 7, 72, 64
9, 457560, Note_off_c, 7, 76, 64
9, 457560, Note_on_c, 7, 79, 80
9, 457560, Note_on_c, 7, 76, 94
9, 457680, Note_off_c, 7, 76, 64
9, 457680, Note_off_c, 7, 79, 64
9, 457680, Note_on_c, 7, 79, 82
9, 457680, Note_on_c, 7, 76, 89
9, 457800, Note_off_c, 7, 76, 64
9, 457800, Note_off_c, 7, 79, 64
9, 457800, Note_on_c, 7, 77, 89
9, 457800, Note_on_c, 7, 74, 80
9, 457920, Note_off_c, 7, 74, 64
9, 457920, Note_off_c, 7, 77, 64
9, 457920, Note_on_c, 7, 76, 77
9, 457920, Note_on_c, 7, 72, 74
9, 458040, Note_off_c, 7, 72, 64
9, 458040, Note_off_c, 7, 76, 64
9, 458040, Note_on_c, 7, 88, 86
9, 458040, Note_on_c, 7, 79, 72
9, 458160, Note_off_c, 7, 79, 64
9, 458160, Note_off_c, 7, 88, 64
9, 458160, Note_on_c, 7, 88, 90
9, 458160, Note_on_c, 7, 79, 80
9, 458280, Note_off_c, 7, 79, 64
9, 458280, Note_off_c, 7, 88, 64
9, 458280, Note_on_c, 7, 86, 95
9, 458280, Note_on_c, 7, 77, 84
9, 458400, Note_off_c, 7, 77, 64
9, 458400, Note_off_c, 7, 86, 64
9, 458400, Note_on_c, 7, 84, 93
9, 458460, Note_off_c, 7, 84, 64
9, 458460, Note_on_c, 7, 88, 95
9, 458520, Note_off_c, 7, 88, 64
9, 458520, Note_on_c, 7, 86, 99
9, 458580, Note_off_c, 7, 86, 64
9, 458580, Note_on_c, 7, 84, 95
9, 458640, Note_off_c, 7, 84, 64
9, 458640, Note_on_c, 7, 83, 89
9, 458700, Note_off_c, 7, 83, 64
9, 458700, Note_on_c, 7, 86, 99
9, 458760, Note_off_c, 7, 86, 64
9, 458760, Note_on_c, 7, 84, 89
9, 458820, Note_off_c, 7, 84, 64
9, 458820, Note_on_c, 7, 83, 85
9, 458880, Note_off_c, 7, 83, 64
9, 458880, Note_on_c, 7, 84, 95
9, 458940, Note_off_c, 7, 84, 64
9, 458940, Note_on_c, 7, 87, 95
9, 459000, Note_off_c, 7, 87, 64
9, 459000, Note_on_c, 7, 86, 98
9, 459060, Note_off_c, 7, 86, 64
9, 459060, Note_on_c, 7, 84, 94
9, 459120, Note_off_c, 7, 84, 64
9, 459120, Note_on_c, 7, 82, 81
9, 459180, Note_off_c, 7, 82, 64
9, 459180, Note_on_c, 7, 86, 104
9, 459240, Note_off_c, 7, 86, 64
9, 459240, Note_on_c, 7, 84, 93
9, 459300, Note_off_c, 7, 84, 64
9, 459300, Note_on_c, 7, 82, 80
9, 459360, Note_off_c, 7, 82, 64
9, 459360, Note_on_c, 7, 80, 81
9, 459420, Note_off_c, 7, 80, 64
9, 459420, Note_on_c, 7, 84, 99
9, 459480, Note_off_c, 7, 84, 64
9, 459480, Note_on_c, 7, 82, 94
9, 459540, Note_off_c, 7, 82, 64
9, 459540, Note_on_c, 7, 80, 84
9, 459600, Note_off_c, 7, 80, 64
9, 459600, Note_on_c, 7, 79, 93
9, 459660, Note_off_c, 7, 79, 64
9, 459660, Note_on_c, 7, 82, 93
9, 459720, Note_off_c, 7, 82, 64
9, 459720, Note_on_c, 7, 80, 86
9, 459780, Note_off_c, 7, 80, 64
9, 459780, Note_on_c, 7, 79, 94
9, 459840, Note_off_c, 7, 79, 64
9, 459840, Note_on_c, 7, 77, 85
9, 459900, Note_off_c, 7, 77, 64
9, 459900, Note_on_c, 7, 80, 94
9, 459960, Note_off_c, 7, 80, 64
9, 459960, Note_on_c, 7, 79, 86
9, 460020, Note_off_c, 7, 79, 64
9, 460020, Note_on_c, 7, 77, 89
9, 460080, Note_off_c, 7, 77, 64
9, 460080, Note_on_c, 7, 75, 84
9, 460140, Note_off_c, 7, 75, 64
9, 460140, Note_on_c, 7, 79, 98
9, 460200, Note_off_c, 7, 79, 64
9, 460200, Note_on_c, 7, 77, 95
9, 460260, Note_off_c, 7, 77, 64
9, 460260, Note_on_c, 7, 75, 81
9, 460320, Note_off_c, 7, 75, 64
9, 460320, Note_on_c, 7, 74, 94
9, 460380, Note_off_c, 7, 74, 64
9, 460380, Note_on_c, 7, 77, 94
9, 460440, Note_off_c, 7, 77, 64
9, 460440, Note_on_c, 7, 75, 86
9, 460500, Note_off_c, 7, 75, 64
9, 460500, Note_on_c, 7, 74, 99
9, 460560, Note_off_c, 7, 74, 64
9, 460560, Note_on_c, 7, 72, 84
9, 460620, Note_off_c, 7, 72, 64
9, 460620, Note_on_c, 7, 75, 90
9, 460680, Note_off_c, 7, 75, 64
9, 460680, Note_on_c, 7, 74, 93
9, 460740, Note_off_c, 7, 74, 64
9, 460740, Note_on_c, 7, 72, 89
9, 460800, Note_off_c, 7, 72, 64
9, 460800, Note_on_c, 7, 70, 81
9, 460860, Note_off_c, 7, 70, 64
9, 460860, Note_on_c, 7, 72, 94
9, 460920, Note_off_c, 7, 72, 64
9, 460920, Note_on_c, 7, 74, 104
9, 460980, Note_off_c, 7, 74, 64
9, 460980, Note_on_c, 7, 75, 95
9, 461040, Note_off_c, 7, 75, 64
9, 461040, Note_on_c, 7, 77, 81
9, 461100, Note_off_c, 7, 77, 64
9, 461100, Note_on_c, 7, 79, 95
9, 461160, Note_off_c, 7, 79, 64
9, 461160, Note_on_c, 7, 80, 95
9, 461220, Note_off_c, 7, 80, 64
9, 461220, Note_on_c, 7, 77, 89
9, 461700, Note_off_c, 7, 77, 64
9, 461880, Note_on_c, 7, 82, 69
9, 462000, Note_off_c, 7, 82, 64
9, 462000, Note_on_c, 7, 80, 80
9, 462120, Note_off_c, 7, 80, 64
9, 462120, Note_on_c, 7, 77, 63
9, 462240, Note_off_c, 7, 77, 64
9, 462240, Note_on_c, 7, 75, 81
9, 462240, Note_on_c, 7, 67, 80
9, 462480, Note_off_c, 7, 67, 64
9, 462480, Note_off_c, 7, 75, 64
9, 462480, Note_on_c, 7, 70, 77
9, 462480, Note_on_c, 7, 67, 73
9, 462720, Note_off_c, 7, 67, 64
9, 462720, Note_off_c, 7, 70, 64
9, 462720, Note_on_c, 7, 75, 70
9, 462720, Note_on_c, 7, 67, 80
9, 462960, Note_off_c, 7, 67, 64
9, 462960, Note_off_c, 7, 75, 64
9, 462960, Note_on_c, 7, 77, 84
9, 462960, Note_on_c, 7, 68, 78
9, 463200, Note_off_c, 7, 68, 64
9, 463200, Note_off_c, 7, 77, 64
9, 463200, Note_on_c, 7, 79, 58
9, 463200, Note_on_c, 7, 67, 62
9, 463560, Note_off_c, 7, 67, 64
9, 463560, Note_off_c, 7, 79, 64
9, 463560, Note_on_c, 7, 77, 84
9, 463680, Note_off_c, 7, 77, 64
9, 463680, Note_on_c, 7, 75, 86
9, 463800, Note_off_c, 7, 75, 64
9, 463800, Note_on_c, 7, 77, 84
9, 463920, Note_off_c, 7, 77, 64
9, 463920, Note_on_c, 7, 79, 84
9, 464040, Note_off_c, 7, 79, 64
9, 464040, Note_on_c, 7, 80, 89
9, 464160, Note_off_c, 7, 80, 64
9, 464160, Note_on_c, 7, 82, 84
9, 464400, Note_off_c, 7, 82, 64
9, 464400, Note_on_c, 7, 82, 86
9, 464640, Note_off_c, 7, 82, 64
9, 464640, Note_on_c, 7, 80, 80
9, 464640, Note_on_c, 7, 74, 99
9, 464880, Note_off_c, 7, 74, 64
9, 464880, Note_off_c, 7, 80, 64
9, 464880, Note_on_c, 7, 79, 85
9, 464880, Note_on_c, 7, 75, 93
9, 465120, Note_off_c, 7, 75, 64
9, 465120, Note_off_c, 7, 79, 64
9, 465120, Note_on_c, 7, 77, 89
9, 465180, Note_off_c, 7, 77, 64
9, 465180, Note_on_c, 7, 82, 90
9, 465240, Note_off_c, 7, 82, 64
9, 465240, Note_on_c, 7, 73, 71
9, 465300, Note_off_c, 7, 73, 64
9, 465300, Note_on_c, 7, 82, 86
9, 465360, Note_off_c, 7, 82, 64
9, 465360, Note_on_c, 7, 73, 69
9, 465420, Note_off_c, 7, 73, 64
9, 465420, Note_on_c, 7, 82, 86
9, 465480, Note_off_c, 7, 82, 64
9, 465480, Note_on_c, 7, 73, 78
9, 465540, Note_off_c, 7, 73, 64
9, 465540, Note_on_c, 7, 82, 86
9, 465600, Note_off_c, 7, 82, 64
9, 465600, Note_on_c, 7, 73, 65
9, 465660, Note_off_c, 7, 73, 64
9, 465660, Note_on_c, 7, 82, 84
9, 465720, Note_off_c, 7, 82, 64
9, 465720, Note_on_c, 7, 73, 68
9, 465780, Note_off_c, 7, 73, 64
9, 465780, Note_on_c, 7, 82, 86
9, 465840, Note_off_c, 7, 82, 64
9, 465840, Note_on_c, 7, 75, 82
9, 465900, Note_off_c, 7, 75, 64
9, 465900, Note_on_c, 7, 81, 95
9, 465960, Note_off_c, 7, 81, 64
9, 465960, Note_on_c, 7, 75, 76
9, 466020, Note_off_c, 7, 75, 64
9, 466020, Note_on_c, 7, 81, 95
9, 466080, Note_off_c, 7, 81, 64
9, 466080, Note_on_c, 7, 73, 71
9, 466140, Note_off_c, 7, 73, 64
9, 466140, Note_on_c, 7, 82, 89
9, 466200, Note_off_c, 7, 82, 64
9, 466200, Note_on_c, 7, 73, 71
9, 466260, Note_off_c, 7, 73, 64
9, 466260, Note_on_c, 7, 82, 89
9, 466320, Note_off_c, 7, 82, 64
9, 466320, Note_on_c, 7, 73, 70
9, 466380, Note_off_c, 7, 73, 64
9, 466380, Note_on_c, 7, 82, 86
9, 466440, Note_off_c, 7, 82, 64
9, 466440, Note_on_c, 7, 73, 71
9, 466500, Note_off_c, 7, 73, 64
9, 466500, Note_on_c, 7, 82, 85
9, 466560, Note_off_c, 7, 82, 64
9, 466560, Note_on_c, 7, 73, 72
9, 466620, Note_off_c, 7, 73, 64
9, 466620, Note_on_c, 7, 82, 84
9, 466680, Note_off_c, 7, 82, 64
9, 466680, Note_on_c, 7, 73, 66
9, 466740, Note_off_c, 7, 73, 64
9, 466740, Note_on_c, 7, 82, 89
9, 466800, Note_off_c, 7, 82, 64
9, 466800, Note_on_c, 7, 73, 65
9, 466860, Note_off_c, 7, 73, 64
9, 466860, Note_on_c, 7, 82, 85
9, 466920, Note_off_c, 7, 82, 64
9, 466920, Note_on_c, 7, 73, 72
9, 466980, Note_off_c, 7, 73, 64
9, 466980, Note_on_c, 7, 82, 90
9, 467040, Note_off_c, 7, 82, 64
9, 467040, Note_on_c, 7, 72, 81
9, 467100, Note_off_c, 7, 72, 64
9, 467100, Note_on_c, 7, 81, 82
9, 467160, Note_off_c, 7, 81, 64
9, 467160, Note_on_c, 7, 72, 78
9, 467220, Note_off_c, 7, 72, 64
9, 467220, Note_on_c, 7, 81, 89
9, 467280, Note_off_c, 7, 81, 64
9, 467280, Note_on_c, 7, 75, 78
9, 467340, Note_off_c, 7, 75, 64
9, 467340, Note_on_c, 7, 84, 89
9, 467400, Note_off_c, 7, 84, 64
9, 467400, Note_on_c, 7, 75, 76
9, 467460, Note_off_c, 7, 75, 64
9, 467460, Note_on_c, 7, 84, 85
9, 467520, Note_off_c, 7, 84, 64
9, 467520, Note_on_c, 7, 75, 78
9, 467580, Note_off_c, 7, 75, 64
9, 467580, Note_on_c, 7, 84, 85
9, 467640, Note_off_c, 7, 84, 64
9, 467640, Note_on_c, 7, 75, 74
9, 467700, Note_off_c, 7, 75, 64
9, 467700, Note_on_c, 7, 84, 82
9, 467760, Note_off_c, 7, 84, 64
9, 467760, Note_on_c, 7, 75, 77
9, 467820, Note_off_c, 7, 75, 64
9, 467820, Note_on_c, 7, 84, 84
9, 467880, Note_off_c, 7, 84, 64
9, 467880, Note_on_c, 7, 75, 76
9, 467940, Note_off_c, 7, 75, 64
9, 467940, Note_on_c, 7, 84, 89
9, 468000, Note_off_c, 7, 84, 64
9, 468000, Note_on_c, 7, 83, 94
9, 468060, Note_off_c, 7, 83, 64
9, 468060, Note_on_c, 7, 79, 81
9, 468120, Note_off_c, 7, 79, 64
9, 468120, Note_on_c, 7, 83, 94
9, 468180, Note_off_c, 7, 83, 64
9, 468180, Note_on_c, 7, 79, 84
9, 468240, Note_off_c, 7, 79, 64
9, 468240, Note_on_c, 7, 86, 94
9, 468300, Note_off_c, 7, 86, 64
9, 468300, Note_on_c, 7, 77, 81
9, 468360, Note_off_c, 7, 77, 64
9, 468360, Note_on_c, 7, 86, 93
9, 468420, Note_off_c, 7, 86, 64
9, 468420, Note_on_c, 7, 77, 80
9, 468480, Note_off_c, 7, 77, 64
9, 468480, Note_on_c, 7, 75, 93
9, 468540, Note_off_c, 7, 75, 64
9, 468540, Note_on_c, 7, 86, 99
9, 468600, Note_off_c, 7, 86, 64
9, 468600, Note_on_c, 7, 75, 71
9, 468660, Note_off_c, 7, 75, 64
9, 468660, Note_on_c, 7, 86, 94
9, 468720, Note_off_c, 7, 86, 64
9, 468720, Note_on_c, 7, 75, 73
9, 468780, Note_off_c, 7, 75, 64
9, 468780, Note_on_c, 7, 84, 86
9, 468840, Note_off_c, 7, 84, 64
9, 468840, Note_on_c, 7, 75, 70
9, 468900, Note_off_c, 7, 75, 64
9, 468900, Note_on_c, 7, 84, 89
9, 468960, Note_off_c, 7, 84, 64
9, 468960, Note_on_c, 7, 74, 89
9, 469020, Note_off_c, 7, 74, 64
9, 469020, Note_on_c, 7, 84, 76
9, 469080, Note_off_c, 7, 84, 64
9, 469080, Note_on_c, 7, 82, 81
9, 469140, Note_off_c, 7, 82, 64
9, 469140, Note_on_c, 7, 74, 89
9, 469200, Note_off_c, 7, 74, 64
9, 469200, Note_on_c, 7, 72, 74
9, 469260, Note_off_c, 7, 72, 64
9, 469260, Note_on_c, 7, 82, 86
9, 469320, Note_off_c, 7, 82, 64
9, 469320, Note_on_c, 7, 80, 89
9, 469380, Note_off_c, 7, 80, 64
9, 469380, Note_on_c, 7, 72, 84
9, 469440, Note_off_c, 7, 72, 64
9, 469440, Note_on_c, 7, 70, 76
9, 469500, Note_off_c, 7, 70, 64
9, 469500, Note_on_c, 7, 80, 98
9, 469560, Note_off_c, 7, 80, 64
9, 469560, Note_on_c, 7, 79, 95
9, 469620, Note_off_c, 7, 79, 64
9, 469620, Note_on_c, 7, 70, 80
9, 469680, Note_off_c, 7, 70, 64
9, 469680, Note_on_c, 7, 68, 77
9, 469740, Note_off_c, 7, 68, 64
9, 469740, Note_on_c, 7, 79, 95
9, 469800, Note_off_c, 7, 79, 64
9, 469800, Note_on_c, 7, 77, 94
9, 469860, Note_off_c, 7, 77, 64
9, 469860, Note_on_c, 7, 68, 74
9, 469920, Note_off_c, 7, 68, 64
9, 469920, Note_on_c, 7, 67, 89
9, 469980, Note_off_c, 7, 67, 64
9, 469980, Note_on_c, 7, 71, 93
9, 470040, Note_off_c, 7, 71, 64
9, 470040, Note_on_c, 7, 74, 94
9, 470100, Note_off_c, 7, 74, 64
9, 470100, Note_on_c, 7, 77, 85
9, 470160, Note_off_c, 7, 77, 64
9, 470160, Note_on_c, 7, 79, 84
9, 470220, Note_off_c, 7, 79, 64
9, 470220, Note_on_c, 7, 83, 89
9, 470280, Note_off_c, 7, 83, 64
9, 470280, Note_on_c, 7, 86, 95
9, 470340, Note_off_c, 7, 86, 64
9, 470340, Note_on_c, 7, 89, 90
9, 470400, Note_off_c, 7, 89, 64
9, 470400, Note_on_c, 7, 79, 89
9, 470460, Note_off_c, 7, 79, 64
9, 470460, Note_on_c, 7, 89, 81
9, 470520, Note_off_c, 7, 89, 64
9, 470520, Note_on_c, 7, 86, 104
9, 470580, Note_off_c, 7, 86, 64
9, 470580, Note_on_c, 7, 83, 86
9, 470640, Note_off_c, 7, 83, 64
9, 470640, Note_on_c, 7, 79, 82
9, 470700, Note_off_c, 7, 79, 64
9, 470700, Note_on_c, 7, 77, 80
9, 470760, Note_off_c, 7, 77, 64
9, 470760, Note_on_c, 7, 74, 84
9, 470820, Note_off_c, 7, 74, 64
9, 470820, Note_on_c, 7, 77, 89
9, 470880, Note_off_c, 7, 77, 64
9, 470880, Note_on_c, 7, 79, 90
9, 470940, Note_off_c, 7, 79, 64
9, 470940, Note_on_c, 7, 77, 89
9, 471000, Note_off_c, 7, 77, 64
9, 471000, Note_on_c, 7, 74, 86
9, 471060, Note_off_c, 7, 74, 64
9, 471060, Note_on_c, 7, 77, 86
9, 471120, Note_off_c, 7, 77, 64
9, 471120, Note_on_c, 7, 79, 90
9, 471180, Note_off_c, 7, 79, 64
9, 471180, Note_on_c, 7, 77, 89
9, 471240, Note_off_c, 7, 77, 64
9, 471240, Note_on_c, 7, 74, 86
9, 471300, Note_off_c, 7, 74, 64
9, 471300, Note_on_c, 7, 77, 93
9, 471360, Note_off_c, 7, 77, 64
9, 471360, Note_on_c, 7, 79, 90
9, 471420, Note_off_c, 7, 79, 64
9, 471420, Note_on_c, 7, 77, 86
9, 471480, Note_off_c, 7, 77, 64
9, 471480, Note_on_c, 7, 74, 89
9, 471540, Note_off_c, 7, 74, 64
9, 471540, Note_on_c, 7, 77, 89
9, 471600, Note_off_c, 7, 77, 64
9, 471600, Note_on_c, 7, 79, 94
9, 471660, Note_off_c, 7, 79, 64
9, 471660, Note_on_c, 7, 77, 81
9, 471720, Note_off_c, 7, 77, 64
9, 471720, Note_on_c, 7, 74, 89
9, 471780, Note_off_c, 7, 74, 64
9, 471780, Note_on_c, 7, 77, 89
9, 471840, Note_off_c, 7, 77, 64
9, 471840, Note_on_c, 7, 69, 93
9, 471900, Note_off_c, 7, 69, 64
9, 471900, Note_on_c, 7, 72, 94
9, 471960, Note_off_c, 7, 72, 64
9, 471960, Note_on_c, 7, 75, 95
9, 472020, Note_off_c, 7, 75, 64
9, 472020, Note_on_c, 7, 78, 81
9, 472080, Note_off_c, 7, 78, 64
9, 472080, Note_on_c, 7, 81, 104
9, 472140, Note_off_c, 7, 81, 64
9, 472140, Note_on_c, 7, 84, 99
9, 472200, Note_off_c, 7, 84, 64
9, 472200, Note_on_c, 7, 87, 101
9, 472260, Note_off_c, 7, 87, 64
9, 472260, Note_on_c, 7, 90, 93
9, 472320, Note_off_c, 7, 90, 64
9, 472320, Note_on_c, 7, 93, 99
9, 472380, Note_off_c, 7, 93, 64
9, 472380, Note_on_c, 7, 90, 95
9, 472440, Note_off_c, 7, 90, 64
9, 472440, Note_on_c, 7, 87, 94
9, 472500, Note_off_c, 7, 87, 64
9, 472500, Note_on_c, 7, 84, 90
9, 472560, Note_off_c, 7, 84, 64
9, 472560, Note_on_c, 7, 81, 86
9, 472620, Note_off_c, 7, 81, 64
9, 472620, Note_on_c, 7, 90, 95
9, 472680, Note_off_c, 7, 90, 64
9, 472680, Note_on_c, 7, 87, 99
9, 472740, Note_off_c, 7, 87, 64
9, 472740, Note_on_c, 7, 84, 95
9, 472800, Note_off_c, 7, 84, 64
9, 472800, Note_on_c, 7, 81, 94
9, 472860, Note_off_c, 7, 81, 64
9, 472860, Note_on_c, 7, 90, 93
9, 472920, Note_off_c, 7, 90, 64
9, 472920, Note_on_c, 7, 87, 99
9, 472980, Note_off_c, 7, 87, 64
9, 472980, Note_on_c, 7, 84, 99
9, 473040, Note_off_c, 7, 84, 64
9, 473040, Note_on_c, 7, 81, 90
9, 473100, Note_off_c, 7, 81, 64
9, 473100, Note_on_c, 7, 90, 89
9, 473160, Note_off_c, 7, 90, 64
9, 473160, Note_on_c, 7, 87, 94
9, 473220, Note_off_c, 7, 87, 64
9, 473220, Note_on_c, 7, 84, 93
9, 473280, Note_off_c, 7, 84, 64
9, 473280, Note_on_c, 7, 81, 94
9, 473340, Note_off_c, 7, 81, 64
9, 473340, Note_on_c, 7, 90, 85
9, 473400, Note_off_c, 7, 90, 64
9, 473400, Note_on_c, 7, 87, 94
9, 473460, Note_off_c, 7, 87, 64
9, 473460, Note_on_c, 7, 84, 94
9, 473520, Note_off_c, 7, 84, 64
9, 473520, Note_on_c, 7, 81, 94
9, 473580, Note_off_c, 7, 81, 64
9, 473580, Note_on_c, 7, 90, 93
9, 473640, Note_off_c, 7, 90, 64
9, 473640, Note_on_c, 7, 87, 95
9, 473700, Note_off_c, 7, 87, 64
9, 473700, Note_on_c, 7, 84, 95
9, 473760, Note_off_c, 7, 84, 64
9, 473760, Note_on_c, 7, 79, 84
9, 473820, Note_off_c, 7, 79, 64
9, 473820, Note_on_c, 7, 91, 94
9, 473880, Note_off_c, 7, 91, 64
9, 473880, Note_on_c, 7, 87, 95
9, 473940, Note_off_c, 7, 87, 64
9, 473940, Note_on_c, 7, 84, 99
9, 474000, Note_off_c, 7, 84, 64
9, 474000, Note_on_c, 7, 79, 80
9, 474060, Note_off_c, 7, 79, 64
9, 474060, Note_on_c, 7, 91, 93
9, 474120, Note_off_c, 7, 91, 64
9, 474120, Note_on_c, 7, 87, 95
9, 474180, Note_off_c, 7, 87, 64
9, 474180, Note_on_c, 7, 84, 94
9, 474240, Note_off_c, 7, 84, 64
9, 474240, Note_on_c, 7, 78, 80
9, 474300, Note_off_c, 7, 78, 64
9, 474300, Note_on_c, 7, 90, 95
9, 474360, Note_off_c, 7, 90, 64
9, 474360, Note_on_c, 7, 87, 104
9, 474420, Note_off_c, 7, 87, 64
9, 474420, Note_on_c, 7, 84, 95
9, 474480, Note_off_c, 7, 84, 64
9, 474480, Note_on_c, 7, 78, 81
9, 474540, Note_off_c, 7, 78, 64
9, 474540, Note_on_c, 7, 90, 94
9, 474600, Note_off_c, 7, 90, 64
9, 474600, Note_on_c, 7, 87, 99
9, 474660, Note_off_c, 7, 87, 64
9, 474660, Note_on_c, 7, 84, 99
9, 474720, Note_off_c, 7, 84, 64
9, 474720, Note_on_c, 7, 89, 95
9, 474720, Note_on_c, 7, 86, 105
9, 474720, Note_on_c, 7, 79, 84
9, 474720, Note_on_c, 7, 77, 85
9, 474840, Note_off_c, 7, 77, 64
9, 474840, Note_off_c, 7, 79, 64
9, 474840, Note_off_c, 7, 86, 64
9, 474840, Note_off_c, 7, 89, 64
9, 474960, Note_on_c, 7, 88, 98
9, 474960, Note_on_c, 7, 84, 94
9, 474960, Note_on_c, 7, 79, 84
9, 474960, Note_on_c, 7, 76, 94
9, 475080, Note_off_c, 7, 76, 64
9, 475080, Note_off_c, 7, 79, 64
9, 475080, Note_off_c, 7, 84, 64
9, 475080, Note_off_c, 7, 88, 64
9, 475200, Note_on_c, 7, 86, 99
9, 475200, Note_on_c, 7, 83, 94
9, 475200, Note_on_c, 7, 77, 89
9, 475200, Note_on_c, 7, 74, 94
9, 475320, Note_off_c, 7, 74, 64
9, 475320, Note_off_c, 7, 77, 64
9, 475320, Note_off_c, 7, 83, 64
9, 475320, Note_off_c, 7, 86, 64
9, 475440, Note_on_c, 7, 84, 89
9, 475440, Note_on_c, 7, 79, 101
9, 475440, Note_on_c, 7, 76, 98
9, 475440, Note_on_c, 7, 72, 81
9, 475560, Note_off_c, 7, 72, 64
9, 475560, Note_off_c, 7, 76, 64
9, 475560, Note_off_c, 7, 79, 64
9, 475560, Note_off_c, 7, 84, 64
9, 475680, Note_on_c, 7, 83, 93
9, 475680, Note_on_c, 7, 79, 94
9, 475680, Note_on_c, 7, 74, 98
9, 475680, Note_on_c, 7, 71, 89
9, 475800, Note_off_c, 7, 71, 64
9, 475800, Note_off_c, 7, 74, 64
9, 475800, Note_off_c, 7, 79, 64
9, 475800, Note_off_c, 7, 83, 64
9, 475920, Note_on_c, 7, 84, 85
9, 475920, Note_on_c, 7, 79, 94
9, 475920, Note_on_c, 7, 76, 94
9, 475920, Note_on_c, 7, 72, 84
9, 476040, Note_off_c, 7, 72, 64
9, 476040, Note_off_c, 7, 76, 64
9, 476040, Note_off_c, 7, 79, 64
9, 476040, Note_off_c, 7, 84, 64
9, 476160, Note_on_c, 7, 81, 93
9, 476160, Note_on_c, 7, 77, 94
9, 476160, Note_on_c, 7, 72, 89
9, 476160, Note_on_c, 7, 69, 84
9, 476280, Note_off_c, 7, 69, 64
9, 476280, Note_off_c, 7, 72, 64
9, 476280, Note_off_c, 7, 77, 64
9, 476280, Note_off_c, 7, 81, 64
9, 476400, Note_on_c, 7, 93, 89
9, 476400, Note_on_c, 7, 90, 93
9, 476400, Note_on_c, 7, 84, 89
9, 476400, Note_on_c, 7, 81, 90
9, 476520, Note_off_c, 7, 81, 64
9, 476520, Note_off_c, 7, 84, 64
9, 476520, Note_off_c, 7, 90, 64
9, 476520, Note_off_c, 7, 93, 64
9, 476640, Note_on_c, 7, 74, 99
9, 476670, Note_off_c, 7, 74, 64
9, 476670, Note_on_c, 7, 76, 99
9, 476700, Note_off_c, 7, 76, 64
9, 476700, Note_on_c, 7, 74, 99
9, 476730, Note_off_c, 7, 74, 64
9, 476730, Note_on_c, 7, 76, 101
9, 476760, Note_off_c, 7, 76, 64
9, 476760, Note_on_c, 7, 74, 99
9, 476790, Note_off_c, 7, 74, 64
9, 476790, Note_on_c, 7, 76, 95
9, 476820, Note_off_c, 7, 76, 64
9, 476820, Note_on_c, 7, 74, 101
9, 476850, Note_off_c, 7, 74, 64
9, 476850, Note_on_c, 7, 76, 99
9, 476880, Note_off_c, 7, 76, 64
9, 476880, Note_on_c, 7, 74, 104
9, 476910, Note_off_c, 7, 74, 64
9, 476910, Note_on_c, 7, 76, 98
9, 476940, Note_off_c, 7, 76, 64
9, 476940, Note_on_c, 7, 74, 99
9, 476970, Note_off_c, 7, 74, 64
9, 476970, Note_on_c, 7, 76, 101
9, 477000, Note_off_c, 7, 76, 64
9, 477000, Note_on_c, 7, 74, 101
9, 477030, Note_off_c, 7, 74, 64
9, 477030, Note_on_c, 7, 76, 99
9, 477060, Note_off_c, 7, 76, 64
9, 477060, Note_on_c, 7, 74, 99
9, 477090, Note_off_c, 7, 74, 64
9, 477090, Note_on_c, 7, 76, 99
9, 477120, Note_off_c, 7, 76, 64
9, 477120, Note_on_c, 7, 74, 99
9, 477150, Note_off_c, 7, 74, 64
9, 477150, Note_on_c, 7, 76, 99
9, 477180, Note_off_c, 7, 76, 64
9, 477180, Note_on_c, 7, 74, 99
9, 477210, Note_off_c, 7, 74, 64
9, 477210, Note_on_c, 7, 76, 95
9, 477240, Note_off_c, 7, 76, 64
9, 477240, Note_on_c, 7, 74, 104
9, 477270, Note_off_c, 7, 74, 64
9, 477270, Note_on_c, 7, 76, 99
9, 477300, Note_off_c, 7, 76, 64
9, 477300, Note_on_c, 7, 74, 99
9, 477330, Note_off_c, 7, 74, 64
9, 477330, Note_on_c, 7, 76, 101
9, 477360, Note_off_c, 7, 76, 64
9, 477360, Note_on_c, 7, 74, 98
9, 477390, Note_off_c, 7, 74, 64
9, 477390, Note_on_c, 7, 76, 99
9, 477420, Note_off_c, 7, 76, 64
9, 477420, Note_on_c, 7, 74, 99
9, 477450, Note_off_c, 7, 74, 64
9, 477450, Note_on_c, 7, 76, 99
9, 477480, Note_off_c, 7, 76, 64
9, 477480, Note_on_c, 7, 74, 99
9, 477510, Note_off_c, 7, 74, 64
9, 477510, Note_on_c, 7, 76, 99
9, 477540, Note_off_c, 7, 76, 64
9, 477540, Note_on_c, 7, 74, 98
9, 477570, Note_off_c, 7, 74, 64
9, 477570, Note_on_c, 7, 76, 99
9, 477600, Note_off_c, 7, 76, 64
9, 477600, Note_on_c, 7, 74, 99
9, 477630, Note_off_c, 7, 74, 64
9, 477630, Note_on_c, 7, 76, 104
9, 477660, Note_off_c, 7, 76, 64
9, 477660, Note_on_c, 7, 74, 99
9, 477690, Note_off_c, 7, 74, 64
9, 477690, Note_on_c, 7, 76, 104
9, 477720, Note_off_c, 7, 76, 64
9, 477720, Note_on_c, 7, 74, 104
9, 477750, Note_off_c, 7, 74, 64
9, 477750, Note_on_c, 7, 76, 99
9, 477780, Note_off_c, 7, 76, 64
9, 477780, Note_on_c, 7, 74, 95
9, 477810, Note_off_c, 7, 74, 64
9, 477810, Note_on_c, 7, 76, 99
9, 477840, Note_off_c, 7, 76, 64
9, 477840, Note_on_c, 7, 74, 104
9, 477870, Note_off_c, 7, 74, 64
9, 477870, Note_on_c, 7, 76, 105
9, 477900, Note_off_c, 7, 76, 64
9, 477900, Note_on_c, 7, 74, 105
9, 477930, Note_off_c, 7, 74, 64
9, 477930, Note_on_c, 7, 76, 105
9, 477960, Note_off_c, 7, 76, 64
9, 477960, Note_on_c, 7, 74, 105
9, 477990, Note_off_c, 7, 74, 64
9, 477990, Note_on_c, 7, 76, 105
9, 478020, Note_off_c, 7, 76, 64
9, 478020, Note_on_c, 7, 74, 105
9, 478050, Note_off_c, 7, 74, 64
9, 478050, Note_on_c, 7, 76, 112
9, 478080, Note_off_c, 7, 76, 64
9, 478080, Note_on_c, 7, 74, 107
9, 478110, Note_off_c, 7, 74, 64
9, 478110, Note_on_c, 7, 76, 107
9, 478140, Note_off_c, 7, 76, 64
9, 478140, Note_on_c, 7, 74, 104
9, 478170, Note_off_c, 7, 74, 64
9, 478170, Note_on_c, 7, 76, 107
9, 478200, Note_off_c, 7, 76, 64
9, 478200, Note_on_c, 7, 74, 104
9, 478230, Note_off_c, 7, 74, 64
9, 478230, Note_on_c, 7, 76, 105
9, 478260, Note_off_c, 7, 76, 64
9, 478260, Note_on_c, 7, 74, 99
9, 478290, Note_off_c, 7, 74, 64
9, 478290, Note_on_c, 7, 76, 105
9, 478320, Note_off_c, 7, 76, 64
9, 478320, Note_on_c, 7, 74, 104
9, 478350, Note_off_c, 7, 74, 64
9, 478350, Note_on_c, 7, 76, 101
9, 478380, Note_off_c, 7, 76, 64
9, 478380, Note_on_c, 7, 74, 99
9, 478410, Note_off_c, 7, 74, 64
9, 478410, Note_on_c, 7, 76, 107
9, 478440, Note_off_c, 7, 76, 64
9, 478440, Note_on_c, 7, 74, 104
9, 478470, Note_off_c, 7, 74, 64
9, 478470, Note_on_c, 7, 76, 101
9, 478500, Note_off_c, 7, 76, 64
9, 478500, Note_on_c, 7, 74, 104
9, 478530, Note_off_c, 7, 74, 64
9, 478530, Note_on_c, 7, 76, 105
9, 478560, Note_off_c, 7, 76, 64
9, 478560, Note_on_c, 7, 74, 105
9, 478590, Note_off_c, 7, 74, 64
9, 478590, Note_on_c, 7, 76, 105
9, 478620, Note_off_c, 7, 76, 64
9, 478620, Note_on_c, 7, 74, 104
9, 478650, Note_off_c, 7, 74, 64
9, 478650, Note_on_c, 7, 76, 101
9, 478680, Note_off_c, 7, 76, 64
9, 478680, Note_on_c, 7, 74, 107
9, 478710, Note_off_c, 7, 74, 64
9, 478710, Note_on_c, 7, 76, 112
9, 478740, Note_off_c, 7, 76, 64
9, 478740, Note_on_c, 7, 74, 107
9, 478770, Note_off_c, 7, 74, 64
9, 478770, Note_on_c, 7, 76, 112
9, 478800, Note_off_c, 7, 76, 64
9, 478800, Note_on_c, 7, 74, 105
9, 478830, Note_off_c, 7, 74, 64
9, 478830, Note_on_c, 7, 76, 104
9, 478860, Note_off_c, 7, 76, 64
9, 478860, Note_on_c, 7, 74, 104
9, 478890, Note_off_c, 7, 74, 64
9, 478890, Note_on_c, 7, 76, 110
9, 478920, Note_off_c, 7, 76, 64
9, 478920, Note_on_c, 7, 74, 101
9, 478950, Note_off_c, 7, 74, 64
9, 478950, Note_on_c, 7, 76, 105
9, 478980, Note_off_c, 7, 76, 64
9, 478980, Note_on_c, 7, 74, 104
9, 479010, Note_off_c, 7, 74, 64
9, 479010, Note_on_c, 7, 76, 110
9, 479040, Note_off_c, 7, 76, 64
9, 479040, Note_on_c, 7, 74, 105
9, 479070, Note_off_c, 7, 74, 64
9, 479070, Note_on_c, 7, 76, 105
9, 479100, Note_off_c, 7, 76, 64
9, 479100, Note_on_c, 7, 74, 99
9, 479130, Note_off_c, 7, 74, 64
9, 479130, Note_on_c, 7, 76, 107
9, 479160, Note_off_c, 7, 76, 64
9, 479160, Note_on_c, 7, 74, 110
9, 479190, Note_off_c, 7, 74, 64
9, 479190, Note_on_c, 7, 76, 110
9, 479220, Note_off_c, 7, 76, 64
9, 479220, Note_on_c, 7, 74, 107
9, 479250, Note_off_c, 7, 74, 64
9, 479250, Note_on_c, 7, 76, 105
9, 479280, Note_off_c, 7, 76, 64
9, 479280, Note_on_c, 7, 74, 105
9, 479310, Note_off_c, 7, 74, 64
9, 479310, Note_on_c, 7, 76, 99
9, 479340, Note_off_c, 7, 76, 64
9, 479340, Note_on_c, 7, 74, 104
9, 479370, Note_off_c, 7, 74, 64
9, 479400, Note_on_c, 7, 72, 89
9, 479460, Note_off_c, 7, 72, 64
9, 479460, Note_on_c, 7, 74, 105
9, 479520, Note_off_c, 7, 74, 64
9, 479520, Note_on_c, 7, 72, 123
9, 479760, Note_off_c, 7, 72, 64
9, 479760, End_track
10, 0, Start_track
10, 0, Title_t, "Piano L H"
10, 0, Program_c, 8, 0
10, 0, Control_c, 8, 7, 120
10, 0, Control_c, 8, 10, 64
10, 0, Control_c, 8, 93, 0
10, 0, Control_c, 8, 91, 66
10, 101760, Note_on_c, 8, 64, 80
10, 101760, Note_on_c, 8, 55, 80
10, 101760, Note_on_c, 8, 48, 80
10, 102720, Note_off_c, 8, 48, 64
10, 102720, Note_off_c, 8, 55, 64
10, 102720, Note_off_c, 8, 64, 64
10, 102720, Note_on_c, 8, 55, 80
10, 102720, Note_on_c, 8, 50, 80
10, 102960, Note_off_c, 8, 50, 64
10, 102960, Note_off_c, 8, 55, 64
10, 103680, Note_on_c, 8, 65, 80
10, 103680, Note_on_c, 8, 59, 80
10, 104640, Note_off_c, 8, 59, 64
10, 104640, Note_off_c, 8, 65, 64
10, 104640, Note_on_c, 8, 64, 80
10, 104640, Note_on_c, 8, 60, 80
10, 104880, Note_off_c, 8, 60, 64
10, 104880, Note_off_c, 8, 64, 64
10, 105600, Note_on_c, 8, 60, 80
10, 105600, Note_on_c, 8, 55, 80
10, 105600, Note_on_c, 8, 52, 80
10, 106560, Note_off_c, 8, 52, 64
10, 106560, Note_off_c, 8, 55, 64
10, 106560, Note_off_c, 8, 60, 64
10, 106560, Note_on_c, 8, 62, 80
10, 106560, Note_on_c, 8, 57, 80
10, 106560, Note_on_c, 8, 53, 80
10, 107520, Note_off_c, 8, 53, 64
10, 107520, Note_off_c, 8, 57, 64
10, 107520, Note_off_c, 8, 62, 64
10, 107520, Note_on_c, 8, 65, 80
10, 107520, Note_on_c, 8, 62, 80
10, 107520, Note_on_c, 8, 55, 80
10, 108480, Note_off_c, 8, 55, 64
10, 108480, Note_off_c, 8, 62, 64
10, 108480, Note_off_c, 8, 65, 64
10, 108480, Note_on_c, 8, 64, 80
10, 108480, Note_on_c, 8, 60, 80
10, 108720, Note_off_c, 8, 60, 64
10, 108720, Note_off_c, 8, 64, 64
10, 109440, Note_on_c, 8, 40, 80
10, 109680, Note_off_c, 8, 40, 64
10, 109680, Note_on_c, 8, 43, 80
10, 109920, Note_off_c, 8, 43, 64
10, 109920, Note_on_c, 8, 48, 80
10, 110160, Note_off_c, 8, 48, 64
10, 110160, Note_on_c, 8, 52, 80
10, 110400, Note_off_c, 8, 52, 64
10, 110400, Note_on_c, 8, 41, 80
10, 110640, Note_off_c, 8, 41, 64
10, 110640, Note_on_c, 8, 47, 80
10, 110880, Note_off_c, 8, 47, 64
10, 110880, Note_on_c, 8, 50, 80
10, 111120, Note_off_c, 8, 50, 64
10, 111120, Note_on_c, 8, 53, 80
10, 111360, Note_off_c, 8, 53, 64
10, 111360, Note_on_c, 8, 43, 80
10, 111600, Note_off_c, 8, 43, 64
10, 111600, Note_on_c, 8, 55, 80
10, 111840, Note_off_c, 8, 55, 64
10, 111840, Note_on_c, 8, 43, 80
10, 112080, Note_off_c, 8, 43, 64
10, 112080, Note_on_c, 8, 55, 80
10, 112320, Note_off_c, 8, 55, 64
10, 112320, Note_on_c, 8, 48, 80
10, 112800, Note_off_c, 8, 48, 64
10, 112800, Note_on_c, 8, 48, 80
10, 113040, Note_off_c, 8, 48, 64
10, 113040, Note_on_c, 8, 48, 80
10, 113280, Note_off_c, 8, 48, 64
10, 113280, Note_on_c, 8, 48, 80
10, 113520, Note_off_c, 8, 48, 64
10, 115500, Note_on_c, 8, 52, 119
10, 115560, Note_off_c, 8, 52, 64
10, 115560, Note_on_c, 8, 48, 115
10, 115620, Note_off_c, 8, 48, 64
10, 115620, Note_on_c, 8, 43, 115
10, 115680, Note_off_c, 8, 43, 64
10, 115680, Note_on_c, 8, 40, 110
10, 115740, Note_off_c, 8, 40, 64
10, 115740, Note_on_c, 8, 48, 115
10, 115800, Note_off_c, 8, 48, 64
10, 115800, Note_on_c, 8, 43, 112
10, 115860, Note_off_c, 8, 43, 64
10, 115860, Note_on_c, 8, 40, 119
10, 115920, Note_off_c, 8, 40, 64
10, 115920, Note_on_c, 8, 36, 123
10, 115980, Note_off_c, 8, 36, 64
10, 115980, Note_on_c, 8, 43, 115
10, 116040, Note_off_c, 8, 43, 64
10, 116040, Note_on_c, 8, 40, 119
10, 116100, Note_off_c, 8, 40, 64
10, 116100, Note_on_c, 8, 36, 123
10, 116160, Note_off_c, 8, 36, 64
10, 116160, Note_on_c, 8, 31, 127
10, 116640, Note_off_c, 8, 31, 64
10, 116640, Note_on_c, 8, 55, 123
10, 116760, Note_off_c, 8, 55, 64
10, 116880, Note_on_c, 8, 55, 127
10, 117000, Note_off_c, 8, 55, 64
10, 117120, Note_on_c, 8, 55, 125
10, 117360, Note_off_c, 8, 55, 64
10, 119520, Note_on_c, 8, 47, 123
10, 119580, Note_off_c, 8, 47, 64
10, 119580, Note_on_c, 8, 50, 117
10, 119640, Note_off_c, 8, 50, 64
10, 119640, Note_on_c, 8, 49, 115
10, 119700, Note_off_c, 8, 49, 64
10, 119700, Note_on_c, 8, 50, 119
10, 119760, Note_off_c, 8, 50, 64
10, 119760, Note_on_c, 8, 45, 117
10, 119820, Note_off_c, 8, 45, 64
10, 119820, Note_on_c, 8, 50, 117
10, 119880, Note_off_c, 8, 50, 64
10, 119880, Note_on_c, 8, 49, 112
10, 119940, Note_off_c, 8, 49, 64
10, 119940, Note_on_c, 8, 50, 119
10, 120000, Note_off_c, 8, 50, 64
10, 120000, Note_on_c, 8, 44, 119
10, 120060, Note_off_c, 8, 44, 64
10, 120060, Note_on_c, 8, 50, 117
10, 120120, Note_off_c, 8, 50, 64
10, 120120, Note_on_c, 8, 49, 115
10, 120180, Note_off_c, 8, 49, 64
10, 120180, Note_on_c, 8, 50, 123
10, 120240, Note_off_c, 8, 50, 64
10, 120240, Note_on_c, 8, 47, 119
10, 120300, Note_off_c, 8, 47, 64
10, 120300, Note_on_c, 8, 50, 119
10, 120360, Note_off_c, 8, 50, 64
10, 120360, Note_on_c, 8, 45, 115
10, 120420, Note_off_c, 8, 45, 64
10, 120420, Note_on_c, 8, 50, 119
10, 120480, Note_off_c, 8, 50, 64
10, 120480, Note_on_c, 8, 43, 119
10, 120540, Note_off_c, 8, 43, 64
10, 120540, Note_on_c, 8, 50, 119
10, 120600, Note_off_c, 8, 50, 64
10, 120600, Note_on_c, 8, 49, 107
10, 120660, Note_off_c, 8, 49, 64
10, 120660, Note_on_c, 8, 50, 112
10, 120720, Note_off_c, 8, 50, 64
10, 120720, Note_on_c, 8, 47, 115
10, 120780, Note_off_c, 8, 47, 64
10, 120780, Note_on_c, 8, 50, 115
10, 120840, Note_off_c, 8, 50, 64
10, 120840, Note_on_c, 8, 45, 117
10, 120900, Note_off_c, 8, 45, 64
10, 120900, Note_on_c, 8, 50, 117
10, 120960, Note_off_c, 8, 50, 64
10, 120960, Note_on_c, 8, 44, 119
10, 121020, Note_off_c, 8, 44, 64
10, 121020, Note_on_c, 8, 50, 117
10, 121080, Note_off_c, 8, 50, 64
10, 121080, Note_on_c, 8, 49, 119
10, 121140, Note_off_c, 8, 49, 64
10, 121140, Note_on_c, 8, 50, 119
10, 121200, Note_off_c, 8, 50, 64
10, 121200, Note_on_c, 8, 47, 112
10, 121260, Note_off_c, 8, 47, 64
10, 121260, Note_on_c, 8, 50, 117
10, 121320, Note_off_c, 8, 50, 64
10, 121320, Note_on_c, 8, 45, 119
10, 121380, Note_off_c, 8, 45, 64
10, 121380, Note_on_c, 8, 50, 115
10, 121440, Note_off_c, 8, 50, 64
10, 121440, Note_on_c, 8, 43, 123
10, 121500, Note_off_c, 8, 43, 64
10, 121500, Note_on_c, 8, 50, 115
10, 121560, Note_off_c, 8, 50, 64
10, 121560, Note_on_c, 8, 42, 123
10, 121620, Note_off_c, 8, 42, 64
10, 121620, Note_on_c, 8, 50, 112
10, 121680, Note_off_c, 8, 50, 64
10, 121680, Note_on_c, 8, 40, 117
10, 121740, Note_off_c, 8, 40, 64
10, 121740, Note_on_c, 8, 50, 119
10, 121800, Note_off_c, 8, 50, 64
10, 121800, Note_on_c, 8, 38, 119
10, 121860, Note_off_c, 8, 38, 64
10, 121860, Note_on_c, 8, 50, 119
10, 121920, Note_off_c, 8, 50, 64
10, 121920, Note_on_c, 8, 48, 119
10, 121920, Note_on_c, 8, 36, 127
10, 122160, Note_off_c, 8, 36, 64
10, 122160, Note_off_c, 8, 48, 64
10, 122400, Note_on_c, 8, 69, 117
10, 122400, Note_on_c, 8, 64, 115
10, 122400, Note_on_c, 8, 60, 110
10, 122520, Note_off_c, 8, 60, 64
10, 122520, Note_off_c, 8, 64, 64
10, 122520, Note_off_c, 8, 69, 64
10, 122640, Note_on_c, 8, 69, 115
10, 122640, Note_on_c, 8, 64, 119
10, 122640, Note_on_c, 8, 60, 117
10, 122760, Note_off_c, 8, 60, 64
10, 122760, Note_off_c, 8, 64, 64
10, 122760, Note_off_c, 8, 69, 64
10, 122880, Note_on_c, 8, 69, 115
10, 122880, Note_on_c, 8, 64, 115
10, 122880, Note_on_c, 8, 60, 112
10, 123000, Note_off_c, 8, 60, 64
10, 123000, Note_off_c, 8, 64, 64
10, 123000, Note_off_c, 8, 69, 64
10, 123840, Note_on_c, 8, 42, 127
10, 123900, Note_off_c, 8, 42, 64
10, 123900, Note_on_c, 8, 48, 117
10, 123960, Note_off_c, 8, 48, 64
10, 123960, Note_on_c, 8, 47, 119
10, 124020, Note_off_c, 8, 47, 64
10, 124020, Note_on_c, 8, 48, 123
10, 124080, Note_off_c, 8, 48, 64
10, 124080, Note_on_c, 8, 45, 123
10, 124140, Note_off_c, 8, 45, 64
10, 124140, Note_on_c, 8, 48, 115
10, 124200, Note_off_c, 8, 48, 64
10, 124200, Note_on_c, 8, 43, 115
10, 124260, Note_off_c, 8, 43, 64
10, 124260, Note_on_c, 8, 48, 119
10, 124320, Note_off_c, 8, 48, 64
10, 124320, Note_on_c, 8, 42, 119
10, 124380, Note_off_c, 8, 42, 64
10, 124380, Note_on_c, 8, 48, 112
10, 124440, Note_off_c, 8, 48, 64
10, 124440, Note_on_c, 8, 47, 119
10, 124500, Note_off_c, 8, 47, 64
10, 124500, Note_on_c, 8, 48, 115
10, 124560, Note_off_c, 8, 48, 64
10, 124560, Note_on_c, 8, 45, 119
10, 124620, Note_off_c, 8, 45, 64
10, 124620, Note_on_c, 8, 48, 115
10, 124680, Note_off_c, 8, 48, 64
10, 124680, Note_on_c, 8, 43, 119
10, 124740, Note_off_c, 8, 43, 64
10, 124740, Note_on_c, 8, 48, 115
10, 124800, Note_off_c, 8, 48, 64
10, 124800, Note_on_c, 8, 42, 123
10, 124860, Note_off_c, 8, 42, 64
10, 124860, Note_on_c, 8, 48, 119
10, 124920, Note_off_c, 8, 48, 64
10, 124920, Note_on_c, 8, 47, 117
10, 124980, Note_off_c, 8, 47, 64
10, 124980, Note_on_c, 8, 48, 112
10, 125040, Note_off_c, 8, 48, 64
10, 125040, Note_on_c, 8, 45, 117
10, 125100, Note_off_c, 8, 45, 64
10, 125100, Note_on_c, 8, 48, 112
10, 125160, Note_off_c, 8, 48, 64
10, 125160, Note_on_c, 8, 43, 115
10, 125220, Note_off_c, 8, 43, 64
10, 125220, Note_on_c, 8, 48, 112
10, 125280, Note_off_c, 8, 48, 64
10, 125280, Note_on_c, 8, 42, 123
10, 125340, Note_off_c, 8, 42, 64
10, 125340, Note_on_c, 8, 48, 115
10, 125400, Note_off_c, 8, 48, 64
10, 125400, Note_on_c, 8, 40, 119
10, 125460, Note_off_c, 8, 40, 64
10, 125460, Note_on_c, 8, 48, 115
10, 125520, Note_off_c, 8, 48, 64
10, 125520, Note_on_c, 8, 38, 119
10, 125580, Note_off_c, 8, 38, 64
10, 125580, Note_on_c, 8, 48, 119
10, 125640, Note_off_c, 8, 48, 64
10, 125640, Note_on_c, 8, 36, 125
10, 125700, Note_off_c, 8, 36, 64
10, 125700, Note_on_c, 8, 48, 123
10, 125760, Note_off_c, 8, 48, 64
10, 125760, Note_on_c, 8, 35, 127
10, 126000, Note_off_c, 8, 35, 64
10, 126240, Note_on_c, 8, 67, 112
10, 126240, Note_on_c, 8, 62, 112
10, 126240, Note_on_c, 8, 59, 112
10, 126360, Note_off_c, 8, 59, 64
10, 126360, Note_off_c, 8, 62, 64
10, 126360, Note_off_c, 8, 67, 64
10, 126480, Note_on_c, 8, 67, 110
10, 126480, Note_on_c, 8, 62, 115
10, 126480, Note_on_c, 8, 59, 112
10, 126600, Note_off_c, 8, 59, 64
10, 126600, Note_off_c, 8, 62, 64
10, 126600, Note_off_c, 8, 67, 64
10, 126720, Note_on_c, 8, 67, 110
10, 126720, Note_on_c, 8, 62, 115
10, 126720, Note_on_c, 8, 59, 117
10, 126840, Note_off_c, 8, 59, 64
10, 126840, Note_off_c, 8, 62, 64
10, 126840, Note_off_c, 8, 67, 64
10, 127680, Note_on_c, 8, 45, 119
10, 127800, Note_off_c, 8, 45, 64
10, 127800, Note_on_c, 8, 57, 123
10, 127920, Note_off_c, 8, 57, 64
10, 127920, Note_on_c, 8, 50, 115
10, 128040, Note_off_c, 8, 50, 64
10, 128040, Note_on_c, 8, 57, 112
10, 128160, Note_off_c, 8, 57, 64
10, 128160, Note_on_c, 8, 45, 117
10, 128280, Note_off_c, 8, 45, 64
10, 128280, Note_on_c, 8, 57, 112
10, 128400, Note_off_c, 8, 57, 64
10, 128400, Note_on_c, 8, 50, 119
10, 128520, Note_off_c, 8, 50, 64
10, 128520, Note_on_c, 8, 57, 112
10, 128640, Note_off_c, 8, 57, 64
10, 128640, Note_on_c, 8, 47, 119
10, 128760, Note_off_c, 8, 47, 64
10, 128760, Note_on_c, 8, 59, 112
10, 128880, Note_off_c, 8, 59, 64
10, 128880, Note_on_c, 8, 50, 117
10, 129000, Note_off_c, 8, 50, 64
10, 129000, Note_on_c, 8, 59, 110
10, 129120, Note_off_c, 8, 59, 64
10, 129120, Note_on_c, 8, 47, 115
10, 129240, Note_off_c, 8, 47, 64
10, 129240, Note_on_c, 8, 59, 115
10, 129360, Note_off_c, 8, 59, 64
10, 129360, Note_on_c, 8, 50, 117
10, 129480, Note_off_c, 8, 50, 64
10, 129480, Note_on_c, 8, 59, 112
10, 129600, Note_off_c, 8, 59, 64
10, 129600, Note_on_c, 8, 42, 117
10, 129720, Note_off_c, 8, 42, 64
10, 129720, Note_on_c, 8, 54, 119
10, 129840, Note_off_c, 8, 54, 64
10, 129840, Note_on_c, 8, 50, 119
10, 129960, Note_off_c, 8, 50, 64
10, 129960, Note_on_c, 8, 54, 115
10, 130080, Note_off_c, 8, 54, 64
10, 130080, Note_on_c, 8, 42, 119
10, 130200, Note_off_c, 8, 42, 64
10, 130200, Note_on_c, 8, 54, 119
10, 130320, Note_off_c, 8, 54, 64
10, 130320, Note_on_c, 8, 50, 119
10, 130440, Note_off_c, 8, 50, 64
10, 130440, Note_on_c, 8, 54, 117
10, 130560, Note_off_c, 8, 54, 64
10, 130560, Note_on_c, 8, 43, 119
10, 130680, Note_off_c, 8, 43, 64
10, 130680, Note_on_c, 8, 55, 115
10, 130800, Note_off_c, 8, 55, 64
10, 130800, Note_on_c, 8, 50, 117
10, 130920, Note_off_c, 8, 50, 64
10, 130920, Note_on_c, 8, 55, 112
10, 131040, Note_off_c, 8, 55, 64
10, 131040, Note_on_c, 8, 43, 115
10, 131160, Note_off_c, 8, 43, 64
10, 131160, Note_on_c, 8, 55, 112
10, 131280, Note_off_c, 8, 55, 64
10, 131280, Note_on_c, 8, 50, 119
10, 131400, Note_off_c, 8, 50, 64
10, 131400, Note_on_c, 8, 55, 112
10, 131520, Note_off_c, 8, 55, 64
10, 131520, Note_on_c, 8, 45, 117
10, 131640, Note_off_c, 8, 45, 64
10, 131640, Note_on_c, 8, 57, 119
10, 131760, Note_off_c, 8, 57, 64
10, 131760, Note_on_c, 8, 50, 119
10, 131880, Note_off_c, 8, 50, 64
10, 131880, Note_on_c, 8, 57, 119
10, 132000, Note_off_c, 8, 57, 64
10, 132000, Note_on_c, 8, 45, 115
10, 132120, Note_off_c, 8, 45, 64
10, 132120, Note_on_c, 8, 57, 117
10, 132240, Note_off_c, 8, 57, 64
10, 132240, Note_on_c, 8, 50, 119
10, 132360, Note_off_c, 8, 50, 64
10, 132360, Note_on_c, 8, 57, 117
10, 132480, Note_off_c, 8, 57, 64
10, 132480, Note_on_c, 8, 46, 119
10, 132600, Note_off_c, 8, 46, 64
10, 132600, Note_on_c, 8, 58, 119
10, 132720, Note_off_c, 8, 58, 64
10, 132720, Note_on_c, 8, 50, 119
10, 132840, Note_off_c, 8, 50, 64
10, 132840, Note_on_c, 8, 58, 115
10, 132960, Note_off_c, 8, 58, 64
10, 132960, Note_on_c, 8, 46, 123
10, 133080, Note_off_c, 8, 46, 64
10, 133080, Note_on_c, 8, 58, 119
10, 133200, Note_off_c, 8, 58, 64
10, 133200, Note_on_c, 8, 50, 119
10, 133320, Note_off_c, 8, 50, 64
10, 133320, Note_on_c, 8, 58, 119
10, 133440, Note_off_c, 8, 58, 64
10, 133560, Note_on_c, 8, 46, 119
10, 133680, Note_off_c, 8, 46, 64
10, 133680, Note_on_c, 8, 50, 117
10, 133800, Note_off_c, 8, 50, 64
10, 133800, Note_on_c, 8, 53, 115
10, 133920, Note_off_c, 8, 53, 64
10, 133920, Note_on_c, 8, 58, 125
10, 134040, Note_off_c, 8, 58, 64
10, 134040, Note_on_c, 8, 53, 115
10, 134160, Note_off_c, 8, 53, 64
10, 134160, Note_on_c, 8, 50, 123
10, 134280, Note_off_c, 8, 50, 64
10, 134280, Note_on_c, 8, 46, 119
10, 134400, Note_off_c, 8, 46, 64
10, 134400, Note_on_c, 8, 51, 115
10, 134520, Note_off_c, 8, 51, 64
10, 134520, Note_on_c, 8, 58, 119
10, 134640, Note_off_c, 8, 58, 64
10, 134640, Note_on_c, 8, 55, 123
10, 134760, Note_off_c, 8, 55, 64
10, 134760, Note_on_c, 8, 51, 127
10, 134880, Note_off_c, 8, 51, 64
10, 134880, Note_on_c, 8, 50, 125
10, 135000, Note_off_c, 8, 50, 64
10, 135000, Note_on_c, 8, 53, 123
10, 135120, Note_off_c, 8, 53, 64
10, 135120, Note_on_c, 8, 46, 123
10, 135240, Note_off_c, 8, 46, 64
10, 135240, Note_on_c, 8, 58, 115
10, 135360, Note_off_c, 8, 58, 64
10, 135360, Note_on_c, 8, 51, 115
10, 135480, Note_off_c, 8, 51, 64
10, 135480, Note_on_c, 8, 58, 119
10, 135600, Note_off_c, 8, 58, 64
10, 135600, Note_on_c, 8, 55, 119
10, 135720, Note_off_c, 8, 55, 64
10, 135720, Note_on_c, 8, 51, 125
10, 135840, Note_off_c, 8, 51, 64
10, 135840, Note_on_c, 8, 50, 125
10, 135960, Note_off_c, 8, 50, 64
10, 135960, Note_on_c, 8, 53, 123
10, 136080, Note_off_c, 8, 53, 64
10, 136080, Note_on_c, 8, 46, 119
10, 136200, Note_off_c, 8, 46, 64
10, 136200, Note_on_c, 8, 58, 119
10, 136320, Note_off_c, 8, 58, 64
10, 136320, Note_on_c, 8, 51, 125
10, 136440, Note_off_c, 8, 51, 64
10, 136440, Note_on_c, 8, 58, 117
10, 136560, Note_off_c, 8, 58, 64
10, 136560, Note_on_c, 8, 51, 119
10, 136680, Note_off_c, 8, 51, 64
10, 136680, Note_on_c, 8, 58, 117
10, 136800, Note_off_c, 8, 58, 64
10, 136800, Note_on_c, 8, 51, 125
10, 136920, Note_off_c, 8, 51, 64
10, 136920, Note_on_c, 8, 55, 112
10, 137040, Note_off_c, 8, 55, 64
10, 137040, Note_on_c, 8, 51, 125
10, 137160, Note_off_c, 8, 51, 64
10, 137160, Note_on_c, 8, 55, 112
10, 137280, Note_off_c, 8, 55, 64
10, 137280, Note_on_c, 8, 51, 127
10, 137400, Note_off_c, 8, 51, 64
10, 137400, Note_on_c, 8, 55, 112
10, 137520, Note_off_c, 8, 55, 64
10, 137520, Note_on_c, 8, 51, 125
10, 137640, Note_off_c, 8, 51, 64
10, 137640, Note_on_c, 8, 55, 112
10, 137760, Note_off_c, 8, 55, 64
10, 137760, Note_on_c, 8, 51, 119
10, 137880, Note_off_c, 8, 51, 64
10, 137880, Note_on_c, 8, 55, 110
10, 138000, Note_off_c, 8, 55, 64
10, 138000, Note_on_c, 8, 51, 123
10, 138120, Note_off_c, 8, 51, 64
10, 138120, Note_on_c, 8, 55, 115
10, 138240, Note_off_c, 8, 55, 64
10, 138240, Note_on_c, 8, 57, 127
10, 138240, Note_on_c, 8, 50, 125
10, 138480, Note_off_c, 8, 50, 64
10, 138480, Note_off_c, 8, 57, 64
10, 140160, Note_on_c, 8, 38, 119
10, 140220, Note_off_c, 8, 38, 64
10, 140220, Note_on_c, 8, 50, 119
10, 140280, Note_off_c, 8, 50, 64
10, 140280, Note_on_c, 8, 49, 123
10, 140340, Note_off_c, 8, 49, 64
10, 140340, Note_on_c, 8, 50, 117
10, 140400, Note_off_c, 8, 50, 64
10, 140400, Note_on_c, 8, 39, 119
10, 140460, Note_off_c, 8, 39, 64
10, 140460, Note_on_c, 8, 50, 117
10, 140520, Note_off_c, 8, 50, 64
10, 140520, Note_on_c, 8, 40, 119
10, 140580, Note_off_c, 8, 40, 64
10, 140580, Note_on_c, 8, 50, 119
10, 140640, Note_off_c, 8, 50, 64
10, 140640, Note_on_c, 8, 41, 119
10, 140700, Note_off_c, 8, 41, 64
10, 140700, Note_on_c, 8, 50, 115
10, 140760, Note_off_c, 8, 50, 64
10, 140760, Note_on_c, 8, 42, 127
10, 140820, Note_off_c, 8, 42, 64
10, 140820, Note_on_c, 8, 50, 119
10, 140880, Note_off_c, 8, 50, 64
10, 140880, Note_on_c, 8, 43, 123
10, 140940, Note_off_c, 8, 43, 64
10, 140940, Note_on_c, 8, 50, 119
10, 141000, Note_off_c, 8, 50, 64
10, 141000, Note_on_c, 8, 45, 125
10, 141060, Note_off_c, 8, 45, 64
10, 141060, Note_on_c, 8, 50, 119
10, 141120, Note_off_c, 8, 50, 64
10, 141120, Note_on_c, 8, 46, 123
10, 141180, Note_off_c, 8, 46, 64
10, 141180, Note_on_c, 8, 50, 119
10, 141240, Note_off_c, 8, 50, 64
10, 141240, Note_on_c, 8, 48, 119
10, 141300, Note_off_c, 8, 48, 64
10, 141300, Note_on_c, 8, 50, 115
10, 141360, Note_off_c, 8, 50, 64
10, 141360, Note_on_c, 8, 49, 119
10, 141420, Note_off_c, 8, 49, 64
10, 141420, Note_on_c, 8, 50, 117
10, 141480, Note_off_c, 8, 50, 64
10, 141480, Note_on_c, 8, 51, 119
10, 141540, Note_off_c, 8, 51, 64
10, 141540, Note_on_c, 8, 50, 115
10, 141600, Note_off_c, 8, 50, 64
10, 141600, Note_on_c, 8, 48, 119
10, 141660, Note_off_c, 8, 48, 64
10, 141660, Note_on_c, 8, 50, 115
10, 141720, Note_off_c, 8, 50, 64
10, 141720, Note_on_c, 8, 46, 119
10, 141780, Note_off_c, 8, 46, 64
10, 141780, Note_on_c, 8, 50, 112
10, 141840, Note_off_c, 8, 50, 64
10, 141840, Note_on_c, 8, 45, 119
10, 141900, Note_off_c, 8, 45, 64
10, 141900, Note_on_c, 8, 50, 115
10, 141960, Note_off_c, 8, 50, 64
10, 141960, Note_on_c, 8, 43, 115
10, 142020, Note_off_c, 8, 43, 64
10, 142020, Note_on_c, 8, 50, 119
10, 142080, Note_off_c, 8, 50, 64
10, 142080, Note_on_c, 8, 38, 125
10, 142320, Note_off_c, 8, 38, 64
10, 142560, Note_on_c, 8, 62, 119
10, 142560, Note_on_c, 8, 50, 119
10, 142800, Note_off_c, 8, 50, 64
10, 142800, Note_off_c, 8, 62, 64
10, 142800, Note_on_c, 8, 50, 123
10, 142800, Note_on_c, 8, 62, 115
10, 143040, Note_off_c, 8, 62, 64
10, 143040, Note_off_c, 8, 50, 64
10, 143040, Note_on_c, 8, 62, 119
10, 143040, Note_on_c, 8, 50, 119
10, 143280, Note_off_c, 8, 50, 64
10, 143280, Note_off_c, 8, 62, 64
10, 143520, Note_on_c, 8, 62, 119
10, 143520, Note_on_c, 8, 50, 119
10, 143760, Note_off_c, 8, 50, 64
10, 143760, Note_off_c, 8, 62, 64
10, 143760, Note_on_c, 8, 50, 119
10, 143760, Note_on_c, 8, 62, 117
10, 144000, Note_off_c, 8, 62, 64
10, 144000, Note_off_c, 8, 50, 64
10, 144000, Note_on_c, 8, 62, 117
10, 144000, Note_on_c, 8, 50, 123
10, 144240, Note_off_c, 8, 50, 64
10, 144240, Note_off_c, 8, 62, 64
10, 144360, Note_on_c, 8, 70, 117
10, 144360, Note_on_c, 8, 67, 119
10, 144420, Note_off_c, 8, 67, 64
10, 144420, Note_off_c, 8, 70, 64
10, 144480, Note_on_c, 8, 69, 123
10, 144480, Note_on_c, 8, 66, 127
10, 144600, Note_off_c, 8, 66, 64
10, 144600, Note_off_c, 8, 69, 64
10, 144840, Note_on_c, 8, 82, 117
10, 144840, Note_on_c, 8, 79, 115
10, 144900, Note_off_c, 8, 79, 64
10, 144900, Note_off_c, 8, 82, 64
10, 144960, Note_on_c, 8, 81, 107
10, 144960, Note_on_c, 8, 78, 115
10, 145020, Note_off_c, 8, 78, 64
10, 145020, Note_off_c, 8, 81, 64
10, 145080, Note_on_c, 8, 81, 105
10, 145080, Note_on_c, 8, 78, 125
10, 145140, Note_off_c, 8, 78, 64
10, 145140, Note_off_c, 8, 81, 64
10, 145200, Note_on_c, 8, 83, 105
10, 145200, Note_on_c, 8, 82, 119
10, 145200, Note_on_c, 8, 79, 112
10, 145260, Note_off_c, 8, 79, 64
10, 145260, Note_off_c, 8, 82, 64
10, 145260, Note_off_c, 8, 83, 64
10, 145320, Note_on_c, 8, 82, 117
10, 145320, Note_on_c, 8, 79, 117
10, 145380, Note_off_c, 8, 79, 64
10, 145380, Note_off_c, 8, 82, 64
10, 145440, Note_on_c, 8, 81, 107
10, 145440, Note_on_c, 8, 78, 119
10, 145500, Note_off_c, 8, 78, 64
10, 145500, Note_off_c, 8, 81, 64
10, 145560, Note_on_c, 8, 81, 115
10, 145560, Note_on_c, 8, 78, 123
10, 145620, Note_off_c, 8, 78, 64
10, 145620, Note_off_c, 8, 81, 64
10, 145680, Note_on_c, 8, 82, 115
10, 145680, Note_on_c, 8, 79, 119
10, 145740, Note_off_c, 8, 79, 64
10, 145740, Note_off_c, 8, 82, 64
10, 145800, Note_on_c, 8, 82, 119
10, 145800, Note_on_c, 8, 79, 119
10, 145860, Note_off_c, 8, 79, 64
10, 145860, Note_off_c, 8, 82, 64
10, 145920, Note_on_c, 8, 81, 123
10, 145920, Note_on_c, 8, 78, 119
10, 146040, Note_off_c, 8, 78, 64
10, 146040, Note_off_c, 8, 81, 64
10, 146640, Note_on_c, 8, 50, 119
10, 146720, Note_off_c, 8, 50, 64
10, 146720, Note_on_c, 8, 45, 123
10, 146800, Note_off_c, 8, 45, 64
10, 146800, Note_on_c, 8, 42, 123
10, 146880, Note_off_c, 8, 42, 64
10, 146880, Note_on_c, 8, 38, 125
10, 147120, Note_off_c, 8, 38, 64
10, 155520, Note_on_c, 8, 55, 76
10, 155640, Note_off_c, 8, 55, 64
10, 155640, Note_on_c, 8, 59, 76
10, 155760, Note_off_c, 8, 59, 64
10, 155760, Note_on_c, 8, 62, 77
10, 155880, Note_off_c, 8, 62, 64
10, 155880, Note_on_c, 8, 59, 94
10, 156000, Note_off_c, 8, 59, 64
10, 156000, Note_on_c, 8, 55, 77
10, 156120, Note_off_c, 8, 55, 64
10, 156120, Note_on_c, 8, 59, 85
10, 156240, Note_off_c, 8, 59, 64
10, 156240, Note_on_c, 8, 62, 82
10, 156360, Note_off_c, 8, 62, 64
10, 156360, Note_on_c, 8, 59, 93
10, 156480, Note_off_c, 8, 59, 64
10, 156480, Note_on_c, 8, 57, 94
10, 156600, Note_off_c, 8, 57, 64
10, 156600, Note_on_c, 8, 60, 90
10, 156720, Note_off_c, 8, 60, 64
10, 156720, Note_on_c, 8, 62, 84
10, 156840, Note_off_c, 8, 62, 64
10, 156840, Note_on_c, 8, 60, 81
10, 156960, Note_off_c, 8, 60, 64
10, 156960, Note_on_c, 8, 57, 93
10, 157080, Note_off_c, 8, 57, 64
10, 157080, Note_on_c, 8, 60, 89
10, 157200, Note_off_c, 8, 60, 64
10, 157200, Note_on_c, 8, 62, 80
10, 157320, Note_off_c, 8, 62, 64
10, 157320, Note_on_c, 8, 60, 77
10, 157440, Note_off_c, 8, 60, 64
10, 157440, Note_on_c, 8, 59, 84
10, 157560, Note_off_c, 8, 59, 64
10, 157560, Note_on_c, 8, 67, 71
10, 157680, Note_off_c, 8, 67, 64
10, 157680, Note_on_c, 8, 62, 84
10, 157800, Note_off_c, 8, 62, 64
10, 157800, Note_on_c, 8, 59, 85
10, 157920, Note_off_c, 8, 59, 64
10, 157920, Note_on_c, 8, 55, 78
10, 158040, Note_off_c, 8, 55, 64
10, 158040, Note_on_c, 8, 62, 80
10, 158160, Note_off_c, 8, 62, 64
10, 158160, Note_on_c, 8, 59, 81
10, 158280, Note_off_c, 8, 59, 64
10, 158280, Note_on_c, 8, 55, 84
10, 158400, Note_off_c, 8, 55, 64
10, 158400, Note_on_c, 8, 50, 89
10, 158520, Note_off_c, 8, 50, 64
10, 158520, Note_on_c, 8, 54, 76
10, 158640, Note_off_c, 8, 54, 64
10, 158640, Note_on_c, 8, 57, 99
10, 158760, Note_off_c, 8, 57, 64
10, 158760, Note_on_c, 8, 55, 86
10, 158880, Note_off_c, 8, 55, 64
10, 158880, Note_on_c, 8, 54, 81
10, 159000, Note_off_c, 8, 54, 64
10, 159000, Note_on_c, 8, 52, 72
10, 159120, Note_off_c, 8, 52, 64
10, 159120, Note_on_c, 8, 50, 90
10, 159240, Note_off_c, 8, 50, 64
10, 159240, Note_on_c, 8, 48, 81
10, 159360, Note_off_c, 8, 48, 64
10, 159360, Note_on_c, 8, 47, 76
10, 159480, Note_off_c, 8, 47, 64
10, 159480, Note_on_c, 8, 51, 81
10, 159600, Note_off_c, 8, 51, 64
10, 159600, Note_on_c, 8, 54, 82
10, 159720, Note_off_c, 8, 54, 64
10, 159720, Note_on_c, 8, 51, 84
10, 159840, Note_off_c, 8, 51, 64
10, 159840, Note_on_c, 8, 47, 81
10, 159960, Note_off_c, 8, 47, 64
10, 159960, Note_on_c, 8, 54, 80
10, 160080, Note_off_c, 8, 54, 64
10, 160080, Note_on_c, 8, 57, 99
10, 160200, Note_off_c, 8, 57, 64
10, 160200, Note_on_c, 8, 54, 81
10, 160320, Note_off_c, 8, 54, 64
10, 160320, Note_on_c, 8, 52, 89
10, 160440, Note_off_c, 8, 52, 64
10, 160440, Note_on_c, 8, 55, 90
10, 160560, Note_off_c, 8, 55, 64
10, 160560, Note_on_c, 8, 59, 86
10, 160680, Note_off_c, 8, 59, 64
10, 160680, Note_on_c, 8, 55, 80
10, 160800, Note_off_c, 8, 55, 64
10, 160800, Note_on_c, 8, 59, 84
10, 160920, Note_off_c, 8, 59, 64
10, 160920, Note_on_c, 8, 55, 81
10, 161040, Note_off_c, 8, 55, 64
10, 161040, Note_on_c, 8, 59, 89
10, 161160, Note_off_c, 8, 59, 64
10, 161160, Note_on_c, 8, 55, 93
10, 161280, Note_off_c, 8, 55, 64
10, 161280, Note_on_c, 8, 52, 85
10, 161400, Note_off_c, 8, 52, 64
10, 161400, Note_on_c, 8, 57, 95
10, 161520, Note_off_c, 8, 57, 64
10, 161520, Note_on_c, 8, 50, 81
10, 161640, Note_off_c, 8, 50, 64
10, 161640, Note_on_c, 8, 57, 94
10, 161760, Note_off_c, 8, 57, 64
10, 161760, Note_on_c, 8, 52, 89
10, 161880, Note_off_c, 8, 52, 64
10, 161880, Note_on_c, 8, 57, 85
10, 162000, Note_off_c, 8, 57, 64
10, 162000, Note_on_c, 8, 49, 74
10, 162120, Note_off_c, 8, 49, 64
10, 162120, Note_on_c, 8, 57, 104
10, 162240, Note_off_c, 8, 57, 64
10, 162240, Note_on_c, 8, 50, 86
10, 162360, Note_off_c, 8, 50, 64
10, 162360, Note_on_c, 8, 54, 78
10, 162480, Note_off_c, 8, 54, 64
10, 162480, Note_on_c, 8, 57, 104
10, 162600, Note_off_c, 8, 57, 64
10, 162600, Note_on_c, 8, 62, 89
10, 162720, Note_off_c, 8, 62, 64
10, 162720, Note_on_c, 8, 61, 77
10, 162840, Note_off_c, 8, 61, 64
10, 162840, Note_on_c, 8, 62, 84
10, 162960, Note_off_c, 8, 62, 64
10, 162960, Note_on_c, 8, 61, 76
10, 163080, Note_off_c, 8, 61, 64
10, 163080, Note_on_c, 8, 62, 74
10, 163200, Note_off_c, 8, 62, 64
10, 163200, Note_on_c, 8, 57, 85
10, 163320, Note_off_c, 8, 57, 64
10, 163320, Note_on_c, 8, 62, 89
10, 163440, Note_off_c, 8, 62, 64
10, 163440, Note_on_c, 8, 55, 81
10, 163560, Note_off_c, 8, 55, 64
10, 163560, Note_on_c, 8, 62, 90
10, 163680, Note_off_c, 8, 62, 64
10, 163680, Note_on_c, 8, 57, 95
10, 163800, Note_off_c, 8, 57, 64
10, 163800, Note_on_c, 8, 62, 74
10, 163920, Note_off_c, 8, 62, 64
10, 163920, Note_on_c, 8, 54, 73
10, 164040, Note_off_c, 8, 54, 64
10, 164040, Note_on_c, 8, 62, 98
10, 164160, Note_off_c, 8, 62, 64
10, 164160, Note_on_c, 8, 55, 80
10, 164280, Note_off_c, 8, 55, 64
10, 164280, Note_on_c, 8, 62, 86
10, 164400, Note_off_c, 8, 62, 64
10, 164400, Note_on_c, 8, 59, 93
10, 164520, Note_off_c, 8, 59, 64
10, 164520, Note_on_c, 8, 55, 82
10, 164640, Note_off_c, 8, 55, 64
10, 164640, Note_on_c, 8, 48, 76
10, 164760, Note_off_c, 8, 48, 64
10, 164760, Note_on_c, 8, 52, 93
10, 164880, Note_off_c, 8, 52, 64
10, 164880, Note_on_c, 8, 57, 98
10, 165000, Note_off_c, 8, 57, 64
10, 165000, Note_on_c, 8, 60, 63
10, 165120, Note_off_c, 8, 60, 64
10, 165120, Note_on_c, 8, 50, 76
10, 165240, Note_off_c, 8, 50, 64
10, 165240, Note_on_c, 8, 55, 89
10, 165360, Note_off_c, 8, 55, 64
10, 165360, Note_on_c, 8, 59, 89
10, 165480, Note_off_c, 8, 59, 64
10, 165480, Note_on_c, 8, 62, 84
10, 165600, Note_off_c, 8, 62, 64
10, 165600, Note_on_c, 8, 50, 81
10, 165720, Note_off_c, 8, 50, 64
10, 165720, Note_on_c, 8, 54, 74
10, 165840, Note_off_c, 8, 54, 64
10, 165840, Note_on_c, 8, 57, 94
10, 165960, Note_off_c, 8, 57, 64
10, 165960, Note_on_c, 8, 62, 86
10, 166080, Note_off_c, 8, 62, 64
10, 166080, Note_on_c, 8, 55, 73
10, 166320, Note_off_c, 8, 55, 64
10, 171000, Note_on_c, 8, 48, 74
10, 171120, Note_off_c, 8, 48, 64
10, 171120, Note_on_c, 8, 51, 80
10, 171240, Note_off_c, 8, 51, 64
10, 171240, Note_on_c, 8, 54, 89
10, 171360, Note_off_c, 8, 54, 64
10, 171360, Note_on_c, 8, 57, 90
10, 171480, Note_off_c, 8, 57, 64
10, 171480, Note_on_c, 8, 60, 85
10, 171600, Note_off_c, 8, 60, 64
10, 171600, Note_on_c, 8, 63, 90
10, 171720, Note_off_c, 8, 63, 64
10, 171720, Note_on_c, 8, 66, 76
10, 171840, Note_off_c, 8, 66, 64
10, 171840, Note_on_c, 8, 46, 86
10, 171960, Note_off_c, 8, 46, 64
10, 171960, Note_on_c, 8, 67, 85
10, 172080, Note_off_c, 8, 67, 64
10, 172080, Note_on_c, 8, 62, 80
10, 172200, Note_off_c, 8, 62, 64
10, 172200, Note_on_c, 8, 67, 89
10, 172320, Note_off_c, 8, 67, 64
10, 172320, Note_on_c, 8, 48, 84
10, 172440, Note_off_c, 8, 48, 64
10, 172440, Note_on_c, 8, 69, 89
10, 172560, Note_off_c, 8, 69, 64
10, 172560, Note_on_c, 8, 63, 66
10, 172680, Note_off_c, 8, 63, 64
10, 172680, Note_on_c, 8, 69, 95
10, 172800, Note_off_c, 8, 69, 64
10, 172800, Note_on_c, 8, 50, 95
10, 172920, Note_off_c, 8, 50, 64
10, 172920, Note_on_c, 8, 67, 84
10, 173040, Note_off_c, 8, 67, 64
10, 173040, Note_on_c, 8, 62, 84
10, 173160, Note_off_c, 8, 62, 64
10, 173160, Note_on_c, 8, 67, 86
10, 173280, Note_off_c, 8, 67, 64
10, 173280, Note_on_c, 8, 50, 84
10, 173400, Note_off_c, 8, 50, 64
10, 173400, Note_on_c, 8, 66, 86
10, 173520, Note_off_c, 8, 66, 64
10, 173520, Note_on_c, 8, 62, 94
10, 173640, Note_off_c, 8, 62, 64
10, 173640, Note_on_c, 8, 66, 93
10, 173760, Note_off_c, 8, 66, 64
10, 173760, Note_on_c, 8, 55, 90
10, 174000, Note_off_c, 8, 55, 64
10, 175920, Note_on_c, 8, 62, 82
10, 175980, Note_off_c, 8, 62, 64
10, 175980, Note_on_c, 8, 61, 57
10, 176040, Note_off_c, 8, 61, 64
10, 176040, Note_on_c, 8, 62, 85
10, 176100, Note_off_c, 8, 62, 64
10, 176100, Note_on_c, 8, 61, 80
10, 176160, Note_off_c, 8, 61, 64
10, 176160, Note_on_c, 8, 62, 93
10, 176400, Note_off_c, 8, 62, 64
10, 176400, Note_on_c, 8, 62, 81
10, 176460, Note_off_c, 8, 62, 64
10, 176460, Note_on_c, 8, 61, 81
10, 176520, Note_off_c, 8, 61, 64
10, 176520, Note_on_c, 8, 62, 89
10, 176580, Note_off_c, 8, 62, 64
10, 176580, Note_on_c, 8, 61, 82
10, 176640, Note_off_c, 8, 61, 64
10, 176640, Note_on_c, 8, 62, 93
10, 176760, Note_off_c, 8, 62, 64
10, 176760, Note_on_c, 8, 50, 90
10, 176820, Note_off_c, 8, 50, 64
10, 176820, Note_on_c, 8, 52, 95
10, 176880, Note_off_c, 8, 52, 64
10, 176880, Note_on_c, 8, 54, 90
10, 176940, Note_off_c, 8, 54, 64
10, 176940, Note_on_c, 8, 55, 90
10, 177000, Note_off_c, 8, 55, 64
10, 177000, Note_on_c, 8, 57, 104
10, 177060, Note_off_c, 8, 57, 64
10, 177060, Note_on_c, 8, 59, 99
10, 177120, Note_off_c, 8, 59, 64
10, 177120, Note_on_c, 8, 60, 94
10, 177180, Note_off_c, 8, 60, 64
10, 177180, Note_on_c, 8, 59, 93
10, 177240, Note_off_c, 8, 59, 64
10, 177240, Note_on_c, 8, 57, 95
10, 177300, Note_off_c, 8, 57, 64
10, 177300, Note_on_c, 8, 59, 84
10, 177360, Note_off_c, 8, 59, 64
10, 177360, Note_on_c, 8, 60, 86
10, 177420, Note_off_c, 8, 60, 64
10, 177420, Note_on_c, 8, 62, 89
10, 177480, Note_off_c, 8, 62, 64
10, 177480, Note_on_c, 8, 64, 95
10, 177540, Note_off_c, 8, 64, 64
10, 177540, Note_on_c, 8, 66, 90
10, 177600, Note_off_c, 8, 66, 64
10, 177600, Note_on_c, 8, 55, 86
10, 177660, Note_off_c, 8, 55, 64
10, 177660, Note_on_c, 8, 62, 94
10, 177720, Note_off_c, 8, 62, 64
10, 177720, Note_on_c, 8, 59, 86
10, 177780, Note_off_c, 8, 59, 64
10, 177780, Note_on_c, 8, 62, 94
10, 177840, Note_off_c, 8, 62, 64
10, 177840, Note_on_c, 8, 59, 95
10, 177900, Note_off_c, 8, 59, 64
10, 177900, Note_on_c, 8, 62, 90
10, 177960, Note_off_c, 8, 62, 64
10, 177960, Note_on_c, 8, 59, 95
10, 178020, Note_off_c, 8, 59, 64
10, 178020, Note_on_c, 8, 62, 84
10, 178080, Note_off_c, 8, 62, 64
10, 178080, Note_on_c, 8, 55, 86
10, 178140, Note_off_c, 8, 55, 64
10, 178140, Note_on_c, 8, 62, 86
10, 178200, Note_off_c, 8, 62, 64
10, 178200, Note_on_c, 8, 59, 90
10, 178260, Note_off_c, 8, 59, 64
10, 178260, Note_on_c, 8, 62, 86
10, 178320, Note_off_c, 8, 62, 64
10, 178320, Note_on_c, 8, 55, 89
10, 178380, Note_off_c, 8, 55, 64
10, 178380, Note_on_c, 8, 66, 98
10, 178440, Note_off_c, 8, 66, 64
10, 178440, Note_on_c, 8, 60, 95
10, 178500, Note_off_c, 8, 60, 64
10, 178500, Note_on_c, 8, 66, 98
10, 178560, Note_off_c, 8, 66, 64
10, 178560, Note_on_c, 8, 55, 82
10, 178620, Note_off_c, 8, 55, 64
10, 178620, Note_on_c, 8, 67, 89
10, 178680, Note_off_c, 8, 67, 64
10, 178680, Note_on_c, 8, 62, 89
10, 178740, Note_off_c, 8, 62, 64
10, 178740, Note_on_c, 8, 67, 93
10, 178800, Note_off_c, 8, 67, 64
10, 178800, Note_on_c, 8, 62, 86
10, 178860, Note_off_c, 8, 62, 64
10, 178860, Note_on_c, 8, 67, 94
10, 178920, Note_off_c, 8, 67, 64
10, 178920, Note_on_c, 8, 62, 89
10, 178980, Note_off_c, 8, 62, 64
10, 178980, Note_on_c, 8, 67, 84
10, 179040, Note_off_c, 8, 67, 64
10, 179040, Note_on_c, 8, 59, 86
10, 179100, Note_off_c, 8, 59, 64
10, 179100, Note_on_c, 8, 67, 90
10, 179160, Note_off_c, 8, 67, 64
10, 179160, Note_on_c, 8, 62, 93
10, 179220, Note_off_c, 8, 62, 64
10, 179220, Note_on_c, 8, 67, 90
10, 179280, Note_off_c, 8, 67, 64
10, 179280, Note_on_c, 8, 55, 82
10, 179340, Note_off_c, 8, 55, 64
10, 179340, Note_on_c, 8, 67, 81
10, 179400, Note_off_c, 8, 67, 64
10, 179400, Note_on_c, 8, 62, 94
10, 179460, Note_off_c, 8, 62, 64
10, 179460, Note_on_c, 8, 67, 81
10, 179520, Note_off_c, 8, 67, 64
10, 179520, Note_on_c, 8, 50, 89
10, 179580, Note_off_c, 8, 50, 64
10, 179580, Note_on_c, 8, 67, 94
10, 179640, Note_off_c, 8, 67, 64
10, 179640, Note_on_c, 8, 62, 94
10, 179700, Note_off_c, 8, 62, 64
10, 179700, Note_on_c, 8, 67, 89
10, 179760, Note_off_c, 8, 67, 64
10, 179760, Note_on_c, 8, 50, 95
10, 179820, Note_off_c, 8, 50, 64
10, 179820, Note_on_c, 8, 67, 94
10, 179880, Note_off_c, 8, 67, 64
10, 179880, Note_on_c, 8, 62, 89
10, 179940, Note_off_c, 8, 62, 64
10, 179940, Note_on_c, 8, 67, 94
10, 180000, Note_off_c, 8, 67, 64
10, 180000, Note_on_c, 8, 50, 95
10, 180060, Note_off_c, 8, 50, 64
10, 180060, Note_on_c, 8, 66, 93
10, 180120, Note_off_c, 8, 66, 64
10, 180120, Note_on_c, 8, 62, 86
10, 180180, Note_off_c, 8, 62, 64
10, 180180, Note_on_c, 8, 66, 93
10, 180240, Note_off_c, 8, 66, 64
10, 180240, Note_on_c, 8, 50, 95
10, 180300, Note_off_c, 8, 50, 64
10, 180300, Note_on_c, 8, 66, 94
10, 180360, Note_off_c, 8, 66, 64
10, 180360, Note_on_c, 8, 62, 95
10, 180420, Note_off_c, 8, 62, 64
10, 180420, Note_on_c, 8, 66, 94
10, 180480, Note_off_c, 8, 66, 64
10, 180480, Note_on_c, 8, 55, 78
10, 180540, Note_off_c, 8, 55, 64
10, 180540, Note_on_c, 8, 67, 98
10, 180600, Note_off_c, 8, 67, 64
10, 180600, Note_on_c, 8, 62, 86
10, 180660, Note_off_c, 8, 62, 64
10, 180660, Note_on_c, 8, 67, 94
10, 180720, Note_off_c, 8, 67, 64
10, 180720, Note_on_c, 8, 62, 89
10, 180780, Note_off_c, 8, 62, 64
10, 180780, Note_on_c, 8, 67, 89
10, 180840, Note_off_c, 8, 67, 64
10, 180840, Note_on_c, 8, 62, 86
10, 180900, Note_off_c, 8, 62, 64
10, 180900, Note_on_c, 8, 67, 93
10, 180960, Note_off_c, 8, 67, 64
10, 180960, Note_on_c, 8, 59, 86
10, 181020, Note_off_c, 8, 59, 64
10, 181020, Note_on_c, 8, 67, 93
10, 181080, Note_off_c, 8, 67, 64
10, 181080, Note_on_c, 8, 62, 95
10, 181140, Note_off_c, 8, 62, 64
10, 181140, Note_on_c, 8, 67, 89
10, 181200, Note_off_c, 8, 67, 64
10, 181200, Note_on_c, 8, 55, 93
10, 181260, Note_off_c, 8, 55, 64
10, 181260, Note_on_c, 8, 67, 90
10, 181320, Note_off_c, 8, 67, 64
10, 181320, Note_on_c, 8, 62, 90
10, 181380, Note_off_c, 8, 62, 64
10, 181380, Note_on_c, 8, 67, 94
10, 181440, Note_off_c, 8, 67, 64
10, 181440, Note_on_c, 8, 50, 94
10, 181500, Note_off_c, 8, 50, 64
10, 181500, Note_on_c, 8, 67, 94
10, 181560, Note_off_c, 8, 67, 64
10, 181560, Note_on_c, 8, 62, 89
10, 181620, Note_off_c, 8, 62, 64
10, 181620, Note_on_c, 8, 67, 89
10, 181680, Note_off_c, 8, 67, 64
10, 181680, Note_on_c, 8, 50, 99
10, 181740, Note_off_c, 8, 50, 64
10, 181740, Note_on_c, 8, 67, 95
10, 181800, Note_off_c, 8, 67, 64
10, 181800, Note_on_c, 8, 62, 89
10, 181860, Note_off_c, 8, 62, 64
10, 181860, Note_on_c, 8, 67, 93
10, 181920, Note_off_c, 8, 67, 64
10, 181920, Note_on_c, 8, 50, 99
10, 181980, Note_off_c, 8, 50, 64
10, 181980, Note_on_c, 8, 66, 89
10, 182040, Note_off_c, 8, 66, 64
10, 182040, Note_on_c, 8, 62, 93
10, 182100, Note_off_c, 8, 62, 64
10, 182100, Note_on_c, 8, 66, 90
10, 182160, Note_off_c, 8, 66, 64
10, 182160, Note_on_c, 8, 50, 99
10, 182220, Note_off_c, 8, 50, 64
10, 182220, Note_on_c, 8, 66, 94
10, 182280, Note_off_c, 8, 66, 64
10, 182280, Note_on_c, 8, 62, 93
10, 182340, Note_off_c, 8, 62, 64
10, 182340, Note_on_c, 8, 66, 95
10, 182400, Note_off_c, 8, 66, 64
10, 182400, Note_on_c, 8, 67, 80
10, 182400, Note_on_c, 8, 55, 80
10, 182640, Note_off_c, 8, 55, 64
10, 182640, Note_off_c, 8, 67, 64
10, 184320, Note_on_c, 8, 55, 80
10, 184320, Note_on_c, 8, 43, 80
10, 184560, Note_off_c, 8, 43, 64
10, 184560, Note_off_c, 8, 55, 64
10, 186480, Note_on_c, 8, 55, 71
10, 186540, Note_off_c, 8, 55, 64
10, 186540, Note_on_c, 8, 59, 94
10, 186600, Note_off_c, 8, 59, 64
10, 186600, Note_on_c, 8, 57, 89
10, 186660, Note_off_c, 8, 57, 64
10, 186660, Note_on_c, 8, 55, 80
10, 186720, Note_off_c, 8, 55, 64
10, 186720, Note_on_c, 8, 54, 74
10, 186780, Note_off_c, 8, 54, 64
10, 186780, Note_on_c, 8, 57, 99
10, 186840, Note_off_c, 8, 57, 64
10, 186840, Note_on_c, 8, 55, 90
10, 186900, Note_off_c, 8, 55, 64
10, 186900, Note_on_c, 8, 54, 85
10, 186960, Note_off_c, 8, 54, 64
10, 186960, Note_on_c, 8, 52, 95
10, 187020, Note_off_c, 8, 52, 64
10, 187020, Note_on_c, 8, 55, 89
10, 187080, Note_off_c, 8, 55, 64
10, 187080, Note_on_c, 8, 54, 82
10, 187140, Note_off_c, 8, 54, 64
10, 187140, Note_on_c, 8, 52, 86
10, 187200, Note_off_c, 8, 52, 64
10, 187200, Note_on_c, 8, 50, 98
10, 187260, Note_off_c, 8, 50, 64
10, 187260, Note_on_c, 8, 54, 89
10, 187320, Note_off_c, 8, 54, 64
10, 187320, Note_on_c, 8, 52, 80
10, 187380, Note_off_c, 8, 52, 64
10, 187380, Note_on_c, 8, 50, 95
10, 187440, Note_off_c, 8, 50, 64
10, 187440, Note_on_c, 8, 48, 85
10, 187500, Note_off_c, 8, 48, 64
10, 187500, Note_on_c, 8, 52, 99
10, 187560, Note_off_c, 8, 52, 64
10, 187560, Note_on_c, 8, 50, 94
10, 187620, Note_off_c, 8, 50, 64
10, 187620, Note_on_c, 8, 48, 89
10, 187680, Note_off_c, 8, 48, 64
10, 187680, Note_on_c, 8, 47, 89
10, 187740, Note_off_c, 8, 47, 64
10, 187740, Note_on_c, 8, 50, 95
10, 187800, Note_off_c, 8, 50, 64
10, 187800, Note_on_c, 8, 48, 94
10, 187860, Note_off_c, 8, 48, 64
10, 187860, Note_on_c, 8, 47, 89
10, 187920, Note_off_c, 8, 47, 64
10, 187920, Note_on_c, 8, 45, 82
10, 187980, Note_off_c, 8, 45, 64
10, 187980, Note_on_c, 8, 48, 95
10, 188040, Note_off_c, 8, 48, 64
10, 188040, Note_on_c, 8, 47, 84
10, 188100, Note_off_c, 8, 47, 64
10, 188100, Note_on_c, 8, 45, 99
10, 188160, Note_off_c, 8, 45, 64
10, 188160, Note_on_c, 8, 43, 95
10, 188220, Note_off_c, 8, 43, 64
10, 188220, Note_on_c, 8, 42, 86
10, 188280, Note_off_c, 8, 42, 64
10, 188280, Note_on_c, 8, 43, 99
10, 188340, Note_off_c, 8, 43, 64
10, 188340, Note_on_c, 8, 42, 89
10, 188400, Note_off_c, 8, 42, 64
10, 188400, Note_on_c, 8, 43, 99
10, 188460, Note_off_c, 8, 43, 64
10, 188460, Note_on_c, 8, 47, 89
10, 188520, Note_off_c, 8, 47, 64
10, 188520, Note_on_c, 8, 45, 93
10, 188580, Note_off_c, 8, 45, 64
10, 188580, Note_on_c, 8, 43, 93
10, 188640, Note_off_c, 8, 43, 64
10, 188640, Note_on_c, 8, 41, 77
10, 188700, Note_off_c, 8, 41, 64
10, 188700, Note_on_c, 8, 45, 95
10, 188760, Note_off_c, 8, 45, 64
10, 188760, Note_on_c, 8, 43, 84
10, 188820, Note_off_c, 8, 43, 64
10, 188820, Note_on_c, 8, 41, 84
10, 188880, Note_off_c, 8, 41, 64
10, 188880, Note_on_c, 8, 40, 85
10, 188940, Note_off_c, 8, 40, 64
10, 188940, Note_on_c, 8, 43, 90
10, 189000, Note_off_c, 8, 43, 64
10, 189000, Note_on_c, 8, 41, 81
10, 189060, Note_off_c, 8, 41, 64
10, 189060, Note_on_c, 8, 40, 94
10, 189120, Note_off_c, 8, 40, 64
10, 189120, Note_on_c, 8, 38, 80
10, 189180, Note_off_c, 8, 38, 64
10, 189180, Note_on_c, 8, 42, 93
10, 189240, Note_off_c, 8, 42, 64
10, 189240, Note_on_c, 8, 40, 89
10, 189300, Note_off_c, 8, 40, 64
10, 189300, Note_on_c, 8, 38, 90
10, 189360, Note_off_c, 8, 38, 64
10, 189360, Note_on_c, 8, 36, 80
10, 189420, Note_off_c, 8, 36, 64
10, 189420, Note_on_c, 8, 40, 93
10, 189480, Note_off_c, 8, 40, 64
10, 189480, Note_on_c, 8, 38, 98
10, 189540, Note_off_c, 8, 38, 64
10, 189540, Note_on_c, 8, 36, 89
10, 189600, Note_off_c, 8, 36, 64
10, 189600, Note_on_c, 8, 35, 80
10, 189660, Note_off_c, 8, 35, 64
10, 189660, Note_on_c, 8, 38, 80
10, 189720, Note_off_c, 8, 38, 64
10, 189720, Note_on_c, 8, 36, 80
10, 189780, Note_off_c, 8, 36, 64
10, 189780, Note_on_c, 8, 35, 80
10, 189840, Note_off_c, 8, 35, 64
10, 189840, Note_on_c, 8, 33, 80
10, 189900, Note_off_c, 8, 33, 64
10, 189900, Note_on_c, 8, 36, 80
10, 189960, Note_off_c, 8, 36, 64
10, 189960, Note_on_c, 8, 35, 80
10, 190020, Note_off_c, 8, 35, 64
10, 190020, Note_on_c, 8, 33, 80
10, 190080, Note_off_c, 8, 33, 64
10, 190080, Note_on_c, 8, 31, 80
10, 190320, Note_off_c, 8, 31, 64
10, 190320, Note_on_c, 8, 50, 89
10, 190400, Note_off_c, 8, 50, 64
10, 190400, Note_on_c, 8, 49, 82
10, 190480, Note_off_c, 8, 49, 64
10, 190480, Note_on_c, 8, 48, 93
10, 190560, Note_off_c, 8, 48, 64
10, 190560, Note_on_c, 8, 47, 86
10, 190640, Note_off_c, 8, 47, 64
10, 190640, Note_on_c, 8, 45, 89
10, 190720, Note_off_c, 8, 45, 64
10, 190720, Note_on_c, 8, 43, 86
10, 190800, Note_off_c, 8, 43, 64
10, 190800, Note_on_c, 8, 50, 95
10, 190880, Note_off_c, 8, 50, 64
10, 190880, Note_on_c, 8, 49, 85
10, 190960, Note_off_c, 8, 49, 64
10, 190960, Note_on_c, 8, 48, 84
10, 191040, Note_off_c, 8, 48, 64
10, 191040, Note_on_c, 8, 47, 89
10, 191120, Note_off_c, 8, 47, 64
10, 191120, Note_on_c, 8, 45, 86
10, 191200, Note_off_c, 8, 45, 64
10, 191200, Note_on_c, 8, 43, 81
10, 191280, Note_off_c, 8, 43, 64
10, 191280, Note_on_c, 8, 52, 94
10, 191360, Note_off_c, 8, 52, 64
10, 191360, Note_on_c, 8, 51, 86
10, 191440, Note_off_c, 8, 51, 64
10, 191440, Note_on_c, 8, 50, 94
10, 191520, Note_off_c, 8, 50, 64
10, 191520, Note_on_c, 8, 48, 89
10, 191600, Note_off_c, 8, 48, 64
10, 191600, Note_on_c, 8, 47, 85
10, 191680, Note_off_c, 8, 47, 64
10, 191680, Note_on_c, 8, 45, 89
10, 191760, Note_off_c, 8, 45, 64
10, 191760, Note_on_c, 8, 52, 94
10, 191840, Note_off_c, 8, 52, 64
10, 191840, Note_on_c, 8, 51, 84
10, 191920, Note_off_c, 8, 51, 64
10, 191920, Note_on_c, 8, 50, 94
10, 192000, Note_off_c, 8, 50, 64
10, 192000, Note_on_c, 8, 48, 89
10, 192080, Note_off_c, 8, 48, 64
10, 192080, Note_on_c, 8, 47, 81
10, 192160, Note_off_c, 8, 47, 64
10, 192160, Note_on_c, 8, 45, 95
10, 192240, Note_off_c, 8, 45, 64
10, 192240, Note_on_c, 8, 55, 80
10, 192320, Note_off_c, 8, 55, 64
10, 192320, Note_on_c, 8, 54, 84
10, 192400, Note_off_c, 8, 54, 64
10, 192400, Note_on_c, 8, 53, 85
10, 192480, Note_off_c, 8, 53, 64
10, 192480, Note_on_c, 8, 52, 93
10, 192560, Note_off_c, 8, 52, 64
10, 192560, Note_on_c, 8, 50, 86
10, 192640, Note_off_c, 8, 50, 64
10, 192640, Note_on_c, 8, 48, 84
10, 192720, Note_off_c, 8, 48, 64
10, 192720, Note_on_c, 8, 55, 90
10, 192800, Note_off_c, 8, 55, 64
10, 192800, Note_on_c, 8, 54, 85
10, 192880, Note_off_c, 8, 54, 64
10, 192880, Note_on_c, 8, 53, 85
10, 192960, Note_off_c, 8, 53, 64
10, 192960, Note_on_c, 8, 52, 95
10, 193040, Note_off_c, 8, 52, 64
10, 193040, Note_on_c, 8, 50, 84
10, 193120, Note_off_c, 8, 50, 64
10, 193120, Note_on_c, 8, 48, 84
10, 193200, Note_off_c, 8, 48, 64
10, 193200, Note_on_c, 8, 55, 89
10, 193280, Note_off_c, 8, 55, 64
10, 193280, Note_on_c, 8, 54, 84
10, 193360, Note_off_c, 8, 54, 64
10, 193360, Note_on_c, 8, 53, 86
10, 193440, Note_off_c, 8, 53, 64
10, 193440, Note_on_c, 8, 52, 89
10, 193520, Note_off_c, 8, 52, 64
10, 193520, Note_on_c, 8, 50, 89
10, 193600, Note_off_c, 8, 50, 64
10, 193600, Note_on_c, 8, 48, 84
10, 193680, Note_off_c, 8, 48, 64
10, 193680, Note_on_c, 8, 55, 89
10, 193760, Note_off_c, 8, 55, 64
10, 193760, Note_on_c, 8, 54, 85
10, 193840, Note_off_c, 8, 54, 64
10, 193840, Note_on_c, 8, 53, 76
10, 193920, Note_off_c, 8, 53, 64
10, 193920, Note_on_c, 8, 52, 98
10, 193920, Note_on_c, 8, 48, 84
10, 194160, Note_off_c, 8, 48, 64
10, 194160, Note_off_c, 8, 52, 64
10, 194400, Note_on_c, 8, 57, 94
10, 194400, Note_on_c, 8, 55, 80
10, 194400, Note_on_c, 8, 49, 81
10, 194640, Note_off_c, 8, 49, 64
10, 194640, Note_off_c, 8, 55, 64
10, 194640, Note_off_c, 8, 57, 64
10, 194880, Note_on_c, 8, 59, 80
10, 194880, Note_on_c, 8, 55, 80
10, 194880, Note_on_c, 8, 50, 80
10, 195120, Note_off_c, 8, 50, 64
10, 195120, Note_off_c, 8, 55, 64
10, 195120, Note_off_c, 8, 59, 64
10, 195360, Note_on_c, 8, 60, 80
10, 195360, Note_on_c, 8, 54, 80
10, 195360, Note_on_c, 8, 50, 80
10, 195600, Note_off_c, 8, 50, 64
10, 195600, Note_off_c, 8, 54, 64
10, 195600, Note_off_c, 8, 60, 64
10, 195840, Note_on_c, 8, 55, 80
10, 195840, Note_on_c, 8, 43, 80
10, 196080, Note_off_c, 8, 43, 64
10, 196080, Note_off_c, 8, 55, 64
10, 197760, Note_on_c, 8, 55, 76
10, 197820, Note_off_c, 8, 55, 64
10, 197820, Note_on_c, 8, 54, 77
10, 197880, Note_off_c, 8, 54, 64
10, 197880, Note_on_c, 8, 55, 89
10, 197940, Note_off_c, 8, 55, 64
10, 197940, Note_on_c, 8, 54, 81
10, 198000, Note_off_c, 8, 54, 64
10, 198000, Note_on_c, 8, 55, 89
10, 198060, Note_off_c, 8, 55, 64
10, 198060, Note_on_c, 8, 59, 82
10, 198120, Note_off_c, 8, 59, 64
10, 198120, Note_on_c, 8, 57, 94
10, 198180, Note_off_c, 8, 57, 64
10, 198180, Note_on_c, 8, 55, 67
10, 198240, Note_off_c, 8, 55, 64
10, 198240, Note_on_c, 8, 54, 80
10, 198300, Note_off_c, 8, 54, 64
10, 198300, Note_on_c, 8, 57, 93
10, 198360, Note_off_c, 8, 57, 64
10, 198360, Note_on_c, 8, 55, 89
10, 198420, Note_off_c, 8, 55, 64
10, 198420, Note_on_c, 8, 54, 81
10, 198480, Note_off_c, 8, 54, 64
10, 198480, Note_on_c, 8, 52, 94
10, 198540, Note_off_c, 8, 52, 64
10, 198540, Note_on_c, 8, 55, 95
10, 198600, Note_off_c, 8, 55, 64
10, 198600, Note_on_c, 8, 54, 85
10, 198660, Note_off_c, 8, 54, 64
10, 198660, Note_on_c, 8, 52, 99
10, 198720, Note_off_c, 8, 52, 64
10, 198720, Note_on_c, 8, 50, 105
10, 198780, Note_off_c, 8, 50, 64
10, 198780, Note_on_c, 8, 54, 84
10, 198840, Note_off_c, 8, 54, 64
10, 198840, Note_on_c, 8, 52, 104
10, 198900, Note_off_c, 8, 52, 64
10, 198900, Note_on_c, 8, 50, 101
10, 198960, Note_off_c, 8, 50, 64
10, 198960, Note_on_c, 8, 48, 89
10, 199020, Note_off_c, 8, 48, 64
10, 199020, Note_on_c, 8, 52, 86
10, 199080, Note_off_c, 8, 52, 64
10, 199080, Note_on_c, 8, 50, 95
10, 199140, Note_off_c, 8, 50, 64
10, 199140, Note_on_c, 8, 48, 84
10, 199200, Note_off_c, 8, 48, 64
10, 199200, Note_on_c, 8, 47, 78
10, 199260, Note_off_c, 8, 47, 64
10, 199260, Note_on_c, 8, 50, 80
10, 199320, Note_off_c, 8, 50, 64
10, 199320, Note_on_c, 8, 48, 89
10, 199380, Note_off_c, 8, 48, 64
10, 199380, Note_on_c, 8, 47, 90
10, 199440, Note_off_c, 8, 47, 64
10, 199440, Note_on_c, 8, 45, 86
10, 199500, Note_off_c, 8, 45, 64
10, 199500, Note_on_c, 8, 48, 93
10, 199560, Note_off_c, 8, 48, 64
10, 199560, Note_on_c, 8, 47, 90
10, 199620, Note_off_c, 8, 47, 64
10, 199620, Note_on_c, 8, 45, 95
10, 199680, Note_off_c, 8, 45, 64
10, 199680, Note_on_c, 8, 43, 99
10, 199800, Note_off_c, 8, 43, 64
10, 199800, Note_on_c, 8, 71, 89
10, 199860, Note_off_c, 8, 71, 64
10, 199860, Note_on_c, 8, 70, 84
10, 199920, Note_off_c, 8, 70, 64
10, 199920, Note_on_c, 8, 71, 89
10, 199980, Note_off_c, 8, 71, 64
10, 199980, Note_on_c, 8, 74, 78
10, 200040, Note_off_c, 8, 74, 64
10, 200040, Note_on_c, 8, 72, 84
10, 200100, Note_off_c, 8, 72, 64
10, 200100, Note_on_c, 8, 71, 90
10, 200160, Note_off_c, 8, 71, 64
10, 200160, Note_on_c, 8, 69, 89
10, 200220, Note_off_c, 8, 69, 64
10, 200220, Note_on_c, 8, 72, 85
10, 200280, Note_off_c, 8, 72, 64
10, 200280, Note_on_c, 8, 71, 89
10, 200340, Note_off_c, 8, 71, 64
10, 200340, Note_on_c, 8, 69, 86
10, 200400, Note_off_c, 8, 69, 64
10, 200400, Note_on_c, 8, 67, 80
10, 200460, Note_off_c, 8, 67, 64
10, 200460, Note_on_c, 8, 71, 94
10, 200520, Note_off_c, 8, 71, 64
10, 200520, Note_on_c, 8, 69, 90
10, 200580, Note_off_c, 8, 69, 64
10, 200580, Note_on_c, 8, 67, 84
10, 200640, Note_off_c, 8, 67, 64
10, 200640, Note_on_c, 8, 66, 78
10, 200700, Note_off_c, 8, 66, 64
10, 200700, Note_on_c, 8, 69, 84
10, 200760, Note_off_c, 8, 69, 64
10, 200760, Note_on_c, 8, 67, 80
10, 200820, Note_off_c, 8, 67, 64
10, 200820, Note_on_c, 8, 66, 86
10, 200880, Note_off_c, 8, 66, 64
10, 200880, Note_on_c, 8, 64, 89
10, 200940, Note_off_c, 8, 64, 64
10, 200940, Note_on_c, 8, 67, 86
10, 201000, Note_off_c, 8, 67, 64
10, 201000, Note_on_c, 8, 66, 86
10, 201060, Note_off_c, 8, 66, 64
10, 201060, Note_on_c, 8, 64, 85
10, 201120, Note_off_c, 8, 64, 64
10, 201120, Note_on_c, 8, 62, 80
10, 201180, Note_off_c, 8, 62, 64
10, 201180, Note_on_c, 8, 66, 84
10, 201240, Note_off_c, 8, 66, 64
10, 201240, Note_on_c, 8, 64, 82
10, 201300, Note_off_c, 8, 64, 64
10, 201300, Note_on_c, 8, 62, 82
10, 201360, Note_off_c, 8, 62, 64
10, 201360, Note_on_c, 8, 60, 77
10, 201420, Note_off_c, 8, 60, 64
10, 201420, Note_on_c, 8, 64, 94
10, 201480, Note_off_c, 8, 64, 64
10, 201480, Note_on_c, 8, 62, 84
10, 201540, Note_off_c, 8, 62, 64
10, 201540, Note_on_c, 8, 60, 84
10, 201600, Note_off_c, 8, 60, 64
10, 201600, Note_on_c, 8, 59, 101
10, 201840, Note_off_c, 8, 59, 64
10, 201840, Note_on_c, 8, 62, 78
10, 201840, Note_on_c, 8, 57, 107
10, 201840, Note_on_c, 8, 54, 69
10, 202080, Note_off_c, 8, 54, 64
10, 202080, Note_off_c, 8, 57, 64
10, 202080, Note_off_c, 8, 62, 64
10, 202080, Note_on_c, 8, 62, 74
10, 202080, Note_on_c, 8, 59, 89
10, 202080, Note_on_c, 8, 55, 80
10, 202320, Note_off_c, 8, 55, 64
10, 202320, Note_off_c, 8, 59, 64
10, 202320, Note_off_c, 8, 62, 64
10, 202320, Note_on_c, 8, 54, 70
10, 202320, Note_on_c, 8, 57, 104
10, 202320, Note_on_c, 8, 62, 72
10, 202560, Note_off_c, 8, 62, 64
10, 202560, Note_off_c, 8, 57, 64
10, 202560, Note_off_c, 8, 54, 64
10, 202560, Note_on_c, 8, 62, 76
10, 202560, Note_on_c, 8, 59, 86
10, 202560, Note_on_c, 8, 55, 72
10, 202800, Note_off_c, 8, 55, 64
10, 202800, Note_off_c, 8, 59, 64
10, 202800, Note_off_c, 8, 62, 64
10, 202800, Note_on_c, 8, 64, 95
10, 202800, Note_on_c, 8, 59, 99
10, 202800, Note_on_c, 8, 56, 82
10, 203040, Note_off_c, 8, 56, 64
10, 203040, Note_off_c, 8, 59, 64
10, 203040, Note_off_c, 8, 64, 64
10, 203040, Note_on_c, 8, 64, 85
10, 203040, Note_on_c, 8, 60, 77
10, 203040, Note_on_c, 8, 57, 89
10, 203280, Note_off_c, 8, 57, 64
10, 203280, Note_off_c, 8, 60, 64
10, 203280, Note_off_c, 8, 64, 64
10, 203280, Note_on_c, 8, 56, 84
10, 203280, Note_on_c, 8, 59, 99
10, 203280, Note_on_c, 8, 64, 93
10, 203520, Note_off_c, 8, 64, 64
10, 203520, Note_off_c, 8, 59, 64
10, 203520, Note_off_c, 8, 56, 64
10, 203520, Note_on_c, 8, 64, 93
10, 203520, Note_on_c, 8, 60, 90
10, 203520, Note_on_c, 8, 57, 99
10, 203760, Note_off_c, 8, 57, 64
10, 203760, Note_off_c, 8, 60, 64
10, 203760, Note_off_c, 8, 64, 64
10, 203760, Note_on_c, 8, 67, 84
10, 203760, Note_on_c, 8, 62, 86
10, 203760, Note_on_c, 8, 59, 68
10, 204000, Note_off_c, 8, 59, 64
10, 204000, Note_off_c, 8, 62, 64
10, 204000, Note_off_c, 8, 67, 64
10, 204000, Note_on_c, 8, 67, 80
10, 204000, Note_on_c, 8, 64, 84
10, 204000, Note_on_c, 8, 60, 81
10, 204240, Note_off_c, 8, 60, 64
10, 204240, Note_off_c, 8, 64, 64
10, 204240, Note_off_c, 8, 67, 64
10, 204240, Note_on_c, 8, 59, 80
10, 204240, Note_on_c, 8, 62, 76
10, 204240, Note_on_c, 8, 67, 78
10, 204480, Note_off_c, 8, 67, 64
10, 204480, Note_off_c, 8, 62, 64
10, 204480, Note_off_c, 8, 59, 64
10, 204480, Note_on_c, 8, 67, 80
10, 204480, Note_on_c, 8, 64, 90
10, 204480, Note_on_c, 8, 60, 80
10, 204720, Note_off_c, 8, 60, 64
10, 204720, Note_off_c, 8, 64, 64
10, 204720, Note_off_c, 8, 67, 64
10, 204720, Note_on_c, 8, 67, 80
10, 204720, Note_on_c, 8, 62, 74
10, 204720, Note_on_c, 8, 59, 84
10, 204960, Note_off_c, 8, 59, 64
10, 204960, Note_off_c, 8, 62, 64
10, 204960, Note_off_c, 8, 67, 64
10, 204960, Note_on_c, 8, 67, 71
10, 204960, Note_on_c, 8, 64, 89
10, 204960, Note_on_c, 8, 60, 72
10, 205200, Note_off_c, 8, 60, 64
10, 205200, Note_off_c, 8, 64, 64
10, 205200, Note_off_c, 8, 67, 64
10, 205200, Note_on_c, 8, 59, 86
10, 205200, Note_on_c, 8, 62, 84
10, 205200, Note_on_c, 8, 67, 80
10, 205440, Note_off_c, 8, 67, 64
10, 205440, Note_off_c, 8, 62, 64
10, 205440, Note_off_c, 8, 59, 64
10, 205440, Note_on_c, 8, 67, 80
10, 205440, Note_on_c, 8, 64, 89
10, 205440, Note_on_c, 8, 60, 76
10, 205680, Note_off_c, 8, 60, 64
10, 205680, Note_off_c, 8, 64, 64
10, 205680, Note_off_c, 8, 67, 64
10, 207360, Note_on_c, 8, 61, 72
10, 207360, Note_on_c, 8, 70, 80
10, 208320, Note_off_c, 8, 70, 64
10, 208320, Note_off_c, 8, 61, 64
10, 208320, Note_on_c, 8, 62, 77
10, 208320, Note_on_c, 8, 70, 80
10, 209280, Note_off_c, 8, 70, 64
10, 209280, Note_off_c, 8, 62, 64
10, 209280, Note_on_c, 8, 63, 70
10, 209280, Note_on_c, 8, 70, 84
10, 210240, Note_off_c, 8, 70, 64
10, 210240, Note_off_c, 8, 63, 64
10, 210240, Note_on_c, 8, 68, 78
10, 210240, Note_on_c, 8, 56, 71
10, 210720, Note_off_c, 8, 56, 64
10, 210720, Note_off_c, 8, 68, 64
10, 210720, Note_on_c, 8, 60, 69
10, 210720, Note_on_c, 8, 67, 80
10, 211200, Note_off_c, 8, 67, 64
10, 211200, Note_off_c, 8, 60, 64
10, 211200, Note_on_c, 8, 65, 60
10, 211200, Note_on_c, 8, 53, 59
10, 211680, Note_off_c, 8, 53, 64
10, 211680, Note_off_c, 8, 65, 64
10, 211680, Note_on_c, 8, 56, 77
10, 211680, Note_on_c, 8, 63, 84
10, 212160, Note_off_c, 8, 63, 64
10, 212160, Note_off_c, 8, 56, 64
10, 212160, Note_on_c, 8, 61, 77
10, 212160, Note_on_c, 8, 49, 73
10, 212400, Note_off_c, 8, 49, 64
10, 212400, Note_off_c, 8, 61, 64
10, 212400, Note_on_c, 8, 61, 78
10, 212400, Note_on_c, 8, 54, 94
10, 212640, Note_off_c, 8, 54, 64
10, 212640, Note_off_c, 8, 61, 64
10, 212640, Note_on_c, 8, 59, 90
10, 212640, Note_on_c, 8, 47, 64
10, 212880, Note_off_c, 8, 47, 64
10, 212880, Note_off_c, 8, 59, 64
10, 212880, Note_on_c, 8, 52, 84
10, 212880, Note_on_c, 8, 59, 93
10, 213120, Note_off_c, 8, 59, 64
10, 213120, Note_off_c, 8, 52, 64
10, 213120, Note_on_c, 8, 57, 94
10, 213120, Note_on_c, 8, 45, 84
10, 213360, Note_off_c, 8, 45, 64
10, 213360, Note_off_c, 8, 57, 64
10, 213360, Note_on_c, 8, 57, 94
10, 213360, Note_on_c, 8, 50, 84
10, 213600, Note_off_c, 8, 50, 64
10, 213600, Note_off_c, 8, 57, 64
10, 213600, Note_on_c, 8, 55, 71
10, 213600, Note_on_c, 8, 43, 80
10, 213840, Note_off_c, 8, 43, 64
10, 213840, Note_off_c, 8, 55, 64
10, 213840, Note_on_c, 8, 36, 90
10, 213840, Note_on_c, 8, 48, 65
10, 214080, Note_off_c, 8, 48, 64
10, 214080, Note_off_c, 8, 36, 64
10, 214080, Note_on_c, 8, 48, 82
10, 214080, Note_on_c, 8, 36, 85
10, 214560, Note_off_c, 8, 36, 64
10, 214560, Note_off_c, 8, 48, 64
10, 214560, Note_on_c, 8, 37, 81
10, 214560, Note_on_c, 8, 49, 85
10, 215040, Note_off_c, 8, 49, 64
10, 215040, Note_off_c, 8, 37, 64
10, 215040, Note_on_c, 8, 50, 86
10, 215040, Note_on_c, 8, 38, 99
10, 215160, Note_off_c, 8, 38, 64
10, 215160, Note_off_c, 8, 50, 64
10, 215160, Note_on_c, 8, 38, 90
10, 215280, Note_off_c, 8, 38, 64
10, 215280, Note_on_c, 8, 40, 98
10, 215400, Note_off_c, 8, 40, 64
10, 215400, Note_on_c, 8, 42, 82
10, 215520, Note_off_c, 8, 42, 64
10, 215520, Note_on_c, 8, 43, 82
10, 215640, Note_off_c, 8, 43, 64
10, 215640, Note_on_c, 8, 45, 89
10, 215760, Note_off_c, 8, 45, 64
10, 215760, Note_on_c, 8, 47, 86
10, 215880, Note_off_c, 8, 47, 64
10, 215880, Note_on_c, 8, 48, 89
10, 216000, Note_off_c, 8, 48, 64
10, 216000, Note_on_c, 8, 50, 89
10, 216120, Note_off_c, 8, 50, 64
10, 216120, Note_on_c, 8, 43, 81
10, 216240, Note_off_c, 8, 43, 64
10, 216240, Note_on_c, 8, 45, 94
10, 216360, Note_off_c, 8, 45, 64
10, 216360, Note_on_c, 8, 47, 90
10, 216480, Note_off_c, 8, 47, 64
10, 216480, Note_on_c, 8, 48, 94
10, 216600, Note_off_c, 8, 48, 64
10, 216600, Note_on_c, 8, 50, 89
10, 216720, Note_off_c, 8, 50, 64
10, 216720, Note_on_c, 8, 52, 99
10, 216840, Note_off_c, 8, 52, 64
10, 216840, Note_on_c, 8, 54, 94
10, 216960, Note_off_c, 8, 54, 64
10, 216960, Note_on_c, 8, 55, 81
10, 217200, Note_off_c, 8, 55, 64
10, 220800, Note_on_c, 8, 38, 90
10, 220860, Note_off_c, 8, 38, 64
10, 220860, Note_on_c, 8, 40, 95
10, 220920, Note_off_c, 8, 40, 64
10, 220920, Note_on_c, 8, 42, 76
10, 220980, Note_off_c, 8, 42, 64
10, 220980, Note_on_c, 8, 43, 94
10, 221040, Note_off_c, 8, 43, 64
10, 221040, Note_on_c, 8, 45, 84
10, 221100, Note_off_c, 8, 45, 64
10, 221100, Note_on_c, 8, 47, 90
10, 221160, Note_off_c, 8, 47, 64
10, 221160, Note_on_c, 8, 48, 93
10, 221220, Note_off_c, 8, 48, 64
10, 221220, Note_on_c, 8, 49, 82
10, 221280, Note_off_c, 8, 49, 64
10, 221280, Note_on_c, 8, 50, 89
10, 221340, Note_off_c, 8, 50, 64
10, 221340, Note_on_c, 8, 52, 94
10, 221400, Note_off_c, 8, 52, 64
10, 221400, Note_on_c, 8, 54, 84
10, 221460, Note_off_c, 8, 54, 64
10, 221460, Note_on_c, 8, 55, 80
10, 221520, Note_off_c, 8, 55, 64
10, 221520, Note_on_c, 8, 57, 95
10, 221580, Note_off_c, 8, 57, 64
10, 221580, Note_on_c, 8, 59, 85
10, 221640, Note_off_c, 8, 59, 64
10, 221640, Note_on_c, 8, 60, 86
10, 221700, Note_off_c, 8, 60, 64
10, 221700, Note_on_c, 8, 61, 73
10, 221760, Note_off_c, 8, 61, 64
10, 221760, Note_on_c, 8, 62, 77
10, 221820, Note_off_c, 8, 62, 64
10, 221820, Note_on_c, 8, 64, 90
10, 221880, Note_off_c, 8, 64, 64
10, 221880, Note_on_c, 8, 66, 76
10, 221940, Note_off_c, 8, 66, 64
10, 221940, Note_on_c, 8, 67, 84
10, 222000, Note_off_c, 8, 67, 64
10, 222000, Note_on_c, 8, 69, 90
10, 222060, Note_off_c, 8, 69, 64
10, 222060, Note_on_c, 8, 71, 90
10, 222120, Note_off_c, 8, 71, 64
10, 222120, Note_on_c, 8, 72, 89
10, 222180, Note_off_c, 8, 72, 64
10, 222180, Note_on_c, 8, 73, 89
10, 222240, Note_off_c, 8, 73, 64
10, 222240, Note_on_c, 8, 74, 99
10, 222300, Note_off_c, 8, 74, 64
10, 222300, Note_on_c, 8, 73, 80
10, 222360, Note_off_c, 8, 73, 64
10, 222360, Note_on_c, 8, 74, 95
10, 222420, Note_off_c, 8, 74, 64
10, 222420, Note_on_c, 8, 73, 76
10, 222480, Note_off_c, 8, 73, 64
10, 222480, Note_on_c, 8, 74, 93
10, 222540, Note_off_c, 8, 74, 64
10, 222540, Note_on_c, 8, 73, 74
10, 222600, Note_off_c, 8, 73, 64
10, 222600, Note_on_c, 8, 74, 90
10, 222660, Note_off_c, 8, 74, 64
10, 222660, Note_on_c, 8, 73, 94
10, 222720, Note_off_c, 8, 73, 64
10, 222720, Note_on_c, 8, 74, 86
10, 222780, Note_off_c, 8, 74, 64
10, 222780, Note_on_c, 8, 73, 80
10, 222840, Note_off_c, 8, 73, 64
10, 222840, Note_on_c, 8, 74, 95
10, 222900, Note_off_c, 8, 74, 64
10, 222900, Note_on_c, 8, 73, 81
10, 222960, Note_off_c, 8, 73, 64
10, 222960, Note_on_c, 8, 74, 95
10, 223020, Note_off_c, 8, 74, 64
10, 223020, Note_on_c, 8, 73, 81
10, 223080, Note_off_c, 8, 73, 64
10, 223080, Note_on_c, 8, 74, 94
10, 223140, Note_off_c, 8, 74, 64
10, 223140, Note_on_c, 8, 73, 95
10, 223200, Note_off_c, 8, 73, 64
10, 223200, Note_on_c, 8, 74, 93
10, 223260, Note_off_c, 8, 74, 64
10, 223260, Note_on_c, 8, 73, 82
10, 223320, Note_off_c, 8, 73, 64
10, 223320, Note_on_c, 8, 74, 99
10, 223380, Note_off_c, 8, 74, 64
10, 223380, Note_on_c, 8, 73, 89
10, 223440, Note_off_c, 8, 73, 64
10, 223440, Note_on_c, 8, 74, 94
10, 223500, Note_off_c, 8, 74, 64
10, 223500, Note_on_c, 8, 73, 81
10, 223560, Note_off_c, 8, 73, 64
10, 223560, Note_on_c, 8, 74, 89
10, 223620, Note_off_c, 8, 74, 64
10, 223620, Note_on_c, 8, 73, 89
10, 223680, Note_off_c, 8, 73, 64
10, 223680, Note_on_c, 8, 74, 99
10, 223740, Note_off_c, 8, 74, 64
10, 223740, Note_on_c, 8, 73, 89
10, 223800, Note_off_c, 8, 73, 64
10, 223800, Note_on_c, 8, 74, 98
10, 223860, Note_off_c, 8, 74, 64
10, 223860, Note_on_c, 8, 73, 84
10, 223920, Note_off_c, 8, 73, 64
10, 223920, Note_on_c, 8, 74, 98
10, 223980, Note_off_c, 8, 74, 64
10, 223980, Note_on_c, 8, 73, 94
10, 224040, Note_off_c, 8, 73, 64
10, 224040, Note_on_c, 8, 74, 99
10, 224100, Note_off_c, 8, 74, 64
10, 224100, Note_on_c, 8, 73, 99
10, 224160, Note_off_c, 8, 73, 64
10, 224160, Note_on_c, 8, 74, 104
10, 224220, Note_off_c, 8, 74, 64
10, 224220, Note_on_c, 8, 73, 95
10, 224280, Note_off_c, 8, 73, 64
10, 224280, Note_on_c, 8, 74, 99
10, 224340, Note_off_c, 8, 74, 64
10, 224340, Note_on_c, 8, 73, 99
10, 224400, Note_off_c, 8, 73, 64
10, 224400, Note_on_c, 8, 74, 99
10, 224460, Note_off_c, 8, 74, 64
10, 224460, Note_on_c, 8, 73, 98
10, 224520, Note_off_c, 8, 73, 64
10, 224520, Note_on_c, 8, 74, 99
10, 224580, Note_off_c, 8, 74, 64
10, 224580, Note_on_c, 8, 73, 105
10, 224640, Note_off_c, 8, 73, 64
10, 224640, Note_on_c, 8, 72, 81
10, 224670, Note_off_c, 8, 72, 64
10, 224670, Note_on_c, 8, 74, 95
10, 224700, Note_off_c, 8, 74, 64
10, 224700, Note_on_c, 8, 72, 78
10, 224730, Note_off_c, 8, 72, 64
10, 224730, Note_on_c, 8, 74, 98
10, 224760, Note_off_c, 8, 74, 64
10, 224760, Note_on_c, 8, 72, 76
10, 224790, Note_off_c, 8, 72, 64
10, 224790, Note_on_c, 8, 74, 89
10, 224820, Note_off_c, 8, 74, 64
10, 224820, Note_on_c, 8, 72, 78
10, 224850, Note_off_c, 8, 72, 64
10, 224850, Note_on_c, 8, 74, 93
10, 224880, Note_off_c, 8, 74, 64
10, 224880, Note_on_c, 8, 72, 80
10, 224910, Note_off_c, 8, 72, 64
10, 224910, Note_on_c, 8, 74, 95
10, 224940, Note_off_c, 8, 74, 64
10, 224940, Note_on_c, 8, 72, 76
10, 224970, Note_off_c, 8, 72, 64
10, 224970, Note_on_c, 8, 74, 84
10, 225000, Note_off_c, 8, 74, 64
10, 225000, Note_on_c, 8, 72, 78
10, 225030, Note_off_c, 8, 72, 64
10, 225030, Note_on_c, 8, 74, 93
10, 225060, Note_off_c, 8, 74, 64
10, 225060, Note_on_c, 8, 72, 80
10, 225090, Note_off_c, 8, 72, 64
10, 225090, Note_on_c, 8, 74, 84
10, 225120, Note_off_c, 8, 74, 64
10, 225120, Note_on_c, 8, 72, 81
10, 225150, Note_off_c, 8, 72, 64
10, 225150, Note_on_c, 8, 74, 94
10, 225180, Note_off_c, 8, 74, 64
10, 225180, Note_on_c, 8, 72, 85
10, 225210, Note_off_c, 8, 72, 64
10, 225210, Note_on_c, 8, 74, 94
10, 225240, Note_off_c, 8, 74, 64
10, 225240, Note_on_c, 8, 72, 84
10, 225270, Note_off_c, 8, 72, 64
10, 225270, Note_on_c, 8, 74, 95
10, 225300, Note_off_c, 8, 74, 64
10, 225300, Note_on_c, 8, 72, 85
10, 225330, Note_off_c, 8, 72, 64
10, 225330, Note_on_c, 8, 74, 94
10, 225360, Note_off_c, 8, 74, 64
10, 225360, Note_on_c, 8, 72, 78
10, 225390, Note_off_c, 8, 72, 64
10, 225390, Note_on_c, 8, 74, 90
10, 225420, Note_off_c, 8, 74, 64
10, 225420, Note_on_c, 8, 72, 81
10, 225450, Note_off_c, 8, 72, 64
10, 225450, Note_on_c, 8, 74, 93
10, 225480, Note_off_c, 8, 74, 64
10, 225480, Note_on_c, 8, 72, 85
10, 225510, Note_off_c, 8, 72, 64
10, 225510, Note_on_c, 8, 74, 89
10, 225540, Note_off_c, 8, 74, 64
10, 225540, Note_on_c, 8, 72, 82
10, 225570, Note_off_c, 8, 72, 64
10, 225570, Note_on_c, 8, 74, 94
10, 225600, Note_off_c, 8, 74, 64
10, 225600, Note_on_c, 8, 72, 84
10, 225630, Note_off_c, 8, 72, 64
10, 225630, Note_on_c, 8, 74, 94
10, 225660, Note_off_c, 8, 74, 64
10, 225660, Note_on_c, 8, 72, 81
10, 225690, Note_off_c, 8, 72, 64
10, 225690, Note_on_c, 8, 74, 95
10, 225720, Note_off_c, 8, 74, 64
10, 225720, Note_on_c, 8, 72, 80
10, 225750, Note_off_c, 8, 72, 64
10, 225750, Note_on_c, 8, 74, 94
10, 225780, Note_off_c, 8, 74, 64
10, 225780, Note_on_c, 8, 72, 84
10, 225810, Note_off_c, 8, 72, 64
10, 225810, Note_on_c, 8, 74, 95
10, 225840, Note_off_c, 8, 74, 64
10, 225840, Note_on_c, 8, 72, 81
10, 225870, Note_off_c, 8, 72, 64
10, 225870, Note_on_c, 8, 74, 94
10, 225900, Note_off_c, 8, 74, 64
10, 225900, Note_on_c, 8, 72, 85
10, 225930, Note_off_c, 8, 72, 64
10, 225930, Note_on_c, 8, 74, 89
10, 225960, Note_off_c, 8, 74, 64
10, 225960, Note_on_c, 8, 72, 85
10, 225990, Note_off_c, 8, 72, 64
10, 225990, Note_on_c, 8, 74, 89
10, 226020, Note_off_c, 8, 74, 64
10, 226020, Note_on_c, 8, 72, 82
10, 226050, Note_off_c, 8, 72, 64
10, 226050, Note_on_c, 8, 74, 89
10, 226080, Note_off_c, 8, 74, 64
10, 226080, Note_on_c, 8, 72, 82
10, 226110, Note_off_c, 8, 72, 64
10, 226110, Note_on_c, 8, 74, 93
10, 226140, Note_off_c, 8, 74, 64
10, 226140, Note_on_c, 8, 72, 73
10, 226170, Note_off_c, 8, 72, 64
10, 226170, Note_on_c, 8, 74, 89
10, 226200, Note_off_c, 8, 74, 64
10, 226200, Note_on_c, 8, 72, 74
10, 226230, Note_off_c, 8, 72, 64
10, 226230, Note_on_c, 8, 74, 86
10, 226260, Note_off_c, 8, 74, 64
10, 226260, Note_on_c, 8, 72, 76
10, 226290, Note_off_c, 8, 72, 64
10, 226290, Note_on_c, 8, 74, 89
10, 226320, Note_off_c, 8, 74, 64
10, 226320, Note_on_c, 8, 72, 81
10, 226350, Note_off_c, 8, 72, 64
10, 226350, Note_on_c, 8, 74, 98
10, 226380, Note_off_c, 8, 74, 64
10, 226380, Note_on_c, 8, 71, 89
10, 226440, Note_off_c, 8, 71, 64
10, 226440, Note_on_c, 8, 74, 98
10, 226500, Note_off_c, 8, 74, 64
10, 226500, Note_on_c, 8, 72, 89
10, 226560, Note_off_c, 8, 72, 64
10, 226560, Note_on_c, 8, 71, 89
10, 226800, Note_off_c, 8, 71, 64
10, 254400, Note_on_c, 8, 39, 99
10, 254480, Note_off_c, 8, 39, 64
10, 254480, Note_on_c, 8, 43, 99
10, 254560, Note_off_c, 8, 43, 64
10, 254560, Note_on_c, 8, 46, 76
10, 254640, Note_off_c, 8, 46, 64
10, 254640, Control_c, 8, 7, 81
10, 254640, Control_c, 8, 10, 64
10, 254640, Control_c, 8, 93, 0
10, 254640, Control_c, 8, 91, 66
10, 254640, Note_on_c, 8, 51, 95
10, 254720, Note_off_c, 8, 51, 64
10, 254720, Note_on_c, 8, 46, 76
10, 254800, Note_off_c, 8, 46, 64
10, 254800, Note_on_c, 8, 43, 99
10, 254880, Note_off_c, 8, 43, 64
10, 254880, Note_on_c, 8, 39, 94
10, 254960, Note_off_c, 8, 39, 64
10, 254960, Note_on_c, 8, 43, 98
10, 255040, Note_off_c, 8, 43, 64
10, 255040, Note_on_c, 8, 46, 76
10, 255120, Note_off_c, 8, 46, 64
10, 255120, Note_on_c, 8, 51, 94
10, 255200, Note_off_c, 8, 51, 64
10, 255200, Note_on_c, 8, 46, 84
10, 255280, Note_off_c, 8, 46, 64
10, 255280, Note_on_c, 8, 43, 99
10, 255360, Note_off_c, 8, 43, 64
10, 255360, Note_on_c, 8, 39, 99
10, 255440, Note_off_c, 8, 39, 64
10, 255440, Note_on_c, 8, 43, 99
10, 255520, Note_off_c, 8, 43, 64
10, 255520, Note_on_c, 8, 46, 76
10, 255600, Note_off_c, 8, 46, 64
10, 255600, Note_on_c, 8, 51, 86
10, 255680, Note_off_c, 8, 51, 64
10, 255680, Note_on_c, 8, 46, 81
10, 255760, Note_off_c, 8, 46, 64
10, 255760, Note_on_c, 8, 43, 94
10, 255840, Note_off_c, 8, 43, 64
10, 255840, Note_on_c, 8, 39, 94
10, 255920, Note_off_c, 8, 39, 64
10, 255920, Note_on_c, 8, 43, 93
10, 256000, Note_off_c, 8, 43, 64
10, 256000, Note_on_c, 8, 46, 77
10, 256080, Note_off_c, 8, 46, 64
10, 256080, Note_on_c, 8, 51, 89
10, 256160, Note_off_c, 8, 51, 64
10, 256160, Note_on_c, 8, 46, 85
10, 256240, Note_off_c, 8, 46, 64
10, 256240, Note_on_c, 8, 43, 99
10, 256320, Note_off_c, 8, 43, 64
10, 256320, Note_on_c, 8, 39, 95
10, 256400, Note_off_c, 8, 39, 64
10, 256400, Note_on_c, 8, 43, 99
10, 256480, Note_off_c, 8, 43, 64
10, 256480, Note_on_c, 8, 46, 77
10, 256560, Note_off_c, 8, 46, 64
10, 256560, Note_on_c, 8, 51, 94
10, 256640, Note_off_c, 8, 51, 64
10, 256640, Note_on_c, 8, 46, 80
10, 256720, Note_off_c, 8, 46, 64
10, 256720, Note_on_c, 8, 43, 95
10, 256800, Note_off_c, 8, 43, 64
10, 256800, Note_on_c, 8, 39, 95
10, 256880, Note_off_c, 8, 39, 64
10, 256880, Note_on_c, 8, 43, 99
10, 256960, Note_off_c, 8, 43, 64
10, 256960, Note_on_c, 8, 46, 81
10, 257040, Note_off_c, 8, 46, 64
10, 257040, Note_on_c, 8, 51, 93
10, 257120, Note_off_c, 8, 51, 64
10, 257120, Note_on_c, 8, 46, 82
10, 257200, Note_off_c, 8, 46, 64
10, 257200, Note_on_c, 8, 43, 99
10, 257280, Note_off_c, 8, 43, 64
10, 257280, Note_on_c, 8, 39, 98
10, 257360, Note_off_c, 8, 39, 64
10, 257360, Note_on_c, 8, 43, 99
10, 257440, Note_off_c, 8, 43, 64
10, 257440, Note_on_c, 8, 46, 81
10, 257520, Note_off_c, 8, 46, 64
10, 257520, Note_on_c, 8, 51, 82
10, 257600, Note_off_c, 8, 51, 64
10, 257600, Note_on_c, 8, 46, 84
10, 257680, Note_off_c, 8, 46, 64
10, 257680, Note_on_c, 8, 43, 98
10, 257760, Note_off_c, 8, 43, 64
10, 257760, Note_on_c, 8, 39, 99
10, 257840, Note_off_c, 8, 39, 64
10, 257840, Note_on_c, 8, 43, 98
10, 257920, Note_off_c, 8, 43, 64
10, 257920, Note_on_c, 8, 46, 84
10, 258000, Note_off_c, 8, 46, 64
10, 258000, Note_on_c, 8, 51, 90
10, 258080, Note_off_c, 8, 51, 64
10, 258080, Note_on_c, 8, 46, 81
10, 258160, Note_off_c, 8, 46, 64
10, 258160, Note_on_c, 8, 43, 99
10, 258240, Note_off_c, 8, 43, 64
10, 258240, Note_on_c, 8, 41, 101
10, 258320, Note_off_c, 8, 41, 64
10, 258320, Note_on_c, 8, 44, 99
10, 258400, Note_off_c, 8, 44, 64
10, 258400, Note_on_c, 8, 46, 89
10, 258480, Note_off_c, 8, 46, 64
10, 258480, Note_on_c, 8, 50, 93
10, 258560, Note_off_c, 8, 50, 64
10, 258560, Note_on_c, 8, 46, 81
10, 258640, Note_off_c, 8, 46, 64
10, 258640, Note_on_c, 8, 44, 93
10, 258720, Note_off_c, 8, 44, 64
10, 258720, Note_on_c, 8, 41, 95
10, 258800, Note_off_c, 8, 41, 64
10, 258800, Note_on_c, 8, 44, 95
10, 258880, Note_off_c, 8, 44, 64
10, 258880, Note_on_c, 8, 46, 82
10, 258960, Note_off_c, 8, 46, 64
10, 258960, Note_on_c, 8, 50, 90
10, 259040, Note_off_c, 8, 50, 64
10, 259040, Note_on_c, 8, 46, 76
10, 259120, Note_off_c, 8, 46, 64
10, 259120, Note_on_c, 8, 44, 98
10, 259200, Note_off_c, 8, 44, 64
10, 259200, Note_on_c, 8, 41, 94
10, 259280, Note_off_c, 8, 41, 64
10, 259280, Note_on_c, 8, 44, 94
10, 259360, Note_off_c, 8, 44, 64
10, 259360, Note_on_c, 8, 46, 80
10, 259440, Note_off_c, 8, 46, 64
10, 259440, Note_on_c, 8, 50, 76
10, 259520, Note_off_c, 8, 50, 64
10, 259520, Note_on_c, 8, 46, 86
10, 259600, Note_off_c, 8, 46, 64
10, 259600, Note_on_c, 8, 44, 95
10, 259680, Note_off_c, 8, 44, 64
10, 259680, Note_on_c, 8, 41, 101
10, 259760, Note_off_c, 8, 41, 64
10, 259760, Note_on_c, 8, 44, 99
10, 259840, Note_off_c, 8, 44, 64
10, 259840, Note_on_c, 8, 46, 85
10, 259920, Note_off_c, 8, 46, 64
10, 259920, Note_on_c, 8, 50, 93
10, 260000, Note_off_c, 8, 50, 64
10, 260000, Note_on_c, 8, 46, 81
10, 260080, Note_off_c, 8, 46, 64
10, 260080, Note_on_c, 8, 44, 99
10, 260160, Note_off_c, 8, 44, 64
10, 260160, Note_on_c, 8, 41, 81
10, 260240, Note_off_c, 8, 41, 64
10, 260240, Note_on_c, 8, 44, 89
10, 260320, Note_off_c, 8, 44, 64
10, 260320, Note_on_c, 8, 46, 86
10, 260400, Note_off_c, 8, 46, 64
10, 260400, Note_on_c, 8, 50, 95
10, 260480, Note_off_c, 8, 50, 64
10, 260480, Note_on_c, 8, 46, 86
10, 260560, Note_off_c, 8, 46, 64
10, 260560, Note_on_c, 8, 44, 86
10, 260640, Note_off_c, 8, 44, 64
10, 260640, Note_on_c, 8, 41, 78
10, 260720, Note_off_c, 8, 41, 64
10, 260720, Note_on_c, 8, 44, 81
10, 260800, Note_off_c, 8, 44, 64
10, 260800, Note_on_c, 8, 46, 81
10, 260880, Note_off_c, 8, 46, 64
10, 260880, Note_on_c, 8, 50, 94
10, 260960, Note_off_c, 8, 50, 64
10, 260960, Note_on_c, 8, 46, 81
10, 261040, Note_off_c, 8, 46, 64
10, 261040, Note_on_c, 8, 44, 80
10, 261120, Note_off_c, 8, 44, 64
10, 261120, Note_on_c, 8, 41, 80
10, 261200, Note_off_c, 8, 41, 64
10, 261200, Note_on_c, 8, 44, 80
10, 261280, Note_off_c, 8, 44, 64
10, 261280, Note_on_c, 8, 46, 86
10, 261360, Note_off_c, 8, 46, 64
10, 261360, Note_on_c, 8, 50, 93
10, 261440, Note_off_c, 8, 50, 64
10, 261440, Note_on_c, 8, 46, 84
10, 261520, Note_off_c, 8, 46, 64
10, 261520, Note_on_c, 8, 44, 84
10, 261600, Note_off_c, 8, 44, 64
10, 261600, Note_on_c, 8, 41, 81
10, 261680, Note_off_c, 8, 41, 64
10, 261680, Note_on_c, 8, 44, 80
10, 261760, Note_off_c, 8, 44, 64
10, 261760, Note_on_c, 8, 46, 86
10, 261840, Note_off_c, 8, 46, 64
10, 261840, Note_on_c, 8, 50, 90
10, 261920, Note_off_c, 8, 50, 64
10, 261920, Note_on_c, 8, 46, 78
10, 262000, Note_off_c, 8, 46, 64
10, 262000, Note_on_c, 8, 44, 85
10, 262080, Note_off_c, 8, 44, 64
10, 262080, Note_on_c, 8, 43, 84
10, 262160, Note_off_c, 8, 43, 64
10, 262160, Note_on_c, 8, 46, 89
10, 262240, Note_off_c, 8, 46, 64
10, 262240, Note_on_c, 8, 49, 81
10, 262320, Note_off_c, 8, 49, 64
10, 262320, Note_on_c, 8, 52, 93
10, 262400, Note_off_c, 8, 52, 64
10, 262400, Note_on_c, 8, 49, 89
10, 262480, Note_off_c, 8, 49, 64
10, 262480, Note_on_c, 8, 46, 85
10, 262560, Note_off_c, 8, 46, 64
10, 262560, Note_on_c, 8, 43, 76
10, 262640, Note_off_c, 8, 43, 64
10, 262640, Note_on_c, 8, 46, 84
10, 262720, Note_off_c, 8, 46, 64
10, 262720, Note_on_c, 8, 49, 84
10, 262800, Note_off_c, 8, 49, 64
10, 262800, Note_on_c, 8, 52, 93
10, 262880, Note_off_c, 8, 52, 64
10, 262880, Note_on_c, 8, 49, 84
10, 262960, Note_off_c, 8, 49, 64
10, 262960, Note_on_c, 8, 46, 80
10, 263040, Note_off_c, 8, 46, 64
10, 263040, Note_on_c, 8, 43, 84
10, 263120, Note_off_c, 8, 43, 64
10, 263120, Note_on_c, 8, 46, 84
10, 263200, Note_off_c, 8, 46, 64
10, 263200, Note_on_c, 8, 49, 85
10, 263280, Note_off_c, 8, 49, 64
10, 263280, Note_on_c, 8, 52, 94
10, 263360, Note_off_c, 8, 52, 64
10, 263360, Note_on_c, 8, 49, 82
10, 263440, Note_off_c, 8, 49, 64
10, 263440, Note_on_c, 8, 46, 82
10, 263520, Note_off_c, 8, 46, 64
10, 263520, Note_on_c, 8, 43, 81
10, 263600, Note_off_c, 8, 43, 64
10, 263600, Note_on_c, 8, 46, 84
10, 263680, Note_off_c, 8, 46, 64
10, 263680, Note_on_c, 8, 49, 84
10, 263760, Note_off_c, 8, 49, 64
10, 263760, Note_on_c, 8, 52, 86
10, 263840, Note_off_c, 8, 52, 64
10, 263840, Note_on_c, 8, 49, 84
10, 263920, Note_off_c, 8, 49, 64
10, 263920, Note_on_c, 8, 46, 82
10, 264000, Note_off_c, 8, 46, 64
10, 264000, Note_on_c, 8, 43, 80
10, 264080, Note_off_c, 8, 43, 64
10, 264080, Note_on_c, 8, 46, 84
10, 264160, Note_off_c, 8, 46, 64
10, 264160, Note_on_c, 8, 49, 85
10, 264240, Note_off_c, 8, 49, 64
10, 264240, Note_on_c, 8, 52, 86
10, 264320, Note_off_c, 8, 52, 64
10, 264320, Note_on_c, 8, 49, 86
10, 264400, Note_off_c, 8, 49, 64
10, 264400, Note_on_c, 8, 46, 84
10, 264480, Note_off_c, 8, 46, 64
10, 264480, Note_on_c, 8, 43, 84
10, 264560, Note_off_c, 8, 43, 64
10, 264560, Note_on_c, 8, 46, 84
10, 264640, Note_off_c, 8, 46, 64
10, 264640, Note_on_c, 8, 49, 90
10, 264720, Note_off_c, 8, 49, 64
10, 264720, Note_on_c, 8, 52, 94
10, 264800, Note_off_c, 8, 52, 64
10, 264800, Note_on_c, 8, 49, 89
10, 264880, Note_off_c, 8, 49, 64
10, 264880, Note_on_c, 8, 46, 85
10, 264960, Note_off_c, 8, 46, 64
10, 264960, Note_on_c, 8, 43, 72
10, 265040, Note_off_c, 8, 43, 64
10, 265040, Note_on_c, 8, 46, 80
10, 265120, Note_off_c, 8, 46, 64
10, 265120, Note_on_c, 8, 49, 80
10, 265200, Note_off_c, 8, 49, 64
10, 265200, Note_on_c, 8, 52, 95
10, 265280, Note_off_c, 8, 52, 64
10, 265280, Note_on_c, 8, 49, 86
10, 265360, Note_off_c, 8, 49, 64
10, 265360, Note_on_c, 8, 46, 86
10, 265440, Note_off_c, 8, 46, 64
10, 265440, Note_on_c, 8, 43, 84
10, 265520, Note_off_c, 8, 43, 64
10, 265520, Note_on_c, 8, 46, 84
10, 265600, Note_off_c, 8, 46, 64
10, 265600, Note_on_c, 8, 49, 80
10, 265680, Note_off_c, 8, 49, 64
10, 265680, Note_on_c, 8, 52, 95
10, 265760, Note_off_c, 8, 52, 64
10, 265760, Note_on_c, 8, 49, 82
10, 265840, Note_off_c, 8, 49, 64
10, 265840, Note_on_c, 8, 46, 80
10, 265920, Note_off_c, 8, 46, 64
10, 265920, Note_on_c, 8, 44, 71
10, 266000, Note_off_c, 8, 44, 64
10, 266000, Note_on_c, 8, 48, 84
10, 266080, Note_off_c, 8, 48, 64
10, 266080, Note_on_c, 8, 53, 89
10, 266160, Note_off_c, 8, 53, 64
10, 266160, Control_c, 8, 7, 88
10, 266160, Control_c, 8, 10, 64
10, 266160, Control_c, 8, 93, 0
10, 266160, Control_c, 8, 91, 66
10, 266160, Note_on_c, 8, 56, 84
10, 266240, Note_off_c, 8, 56, 64
10, 266240, Note_on_c, 8, 53, 90
10, 266320, Note_off_c, 8, 53, 64
10, 266320, Note_on_c, 8, 48, 99
10, 266400, Note_off_c, 8, 48, 64
10, 266400, Control_c, 8, 7, 94
10, 266400, Control_c, 8, 10, 64
10, 266400, Control_c, 8, 93, 0
10, 266400, Control_c, 8, 91, 66
10, 266400, Note_on_c, 8, 44, 72
10, 266480, Note_off_c, 8, 44, 64
10, 266480, Note_on_c, 8, 48, 94
10, 266560, Note_off_c, 8, 48, 64
10, 266560, Note_on_c, 8, 53, 89
10, 266640, Note_off_c, 8, 53, 64
10, 266640, Control_c, 8, 7, 100
10, 266640, Control_c, 8, 10, 64
10, 266640, Control_c, 8, 93, 0
10, 266640, Control_c, 8, 91, 66
10, 266640, Note_on_c, 8, 44, 76
10, 266720, Note_off_c, 8, 44, 64
10, 266720, Note_on_c, 8, 48, 98
10, 266800, Note_off_c, 8, 48, 64
10, 266800, Note_on_c, 8, 53, 94
10, 266880, Note_off_c, 8, 53, 64
10, 266880, Control_c, 8, 7, 96
10, 266880, Control_c, 8, 10, 64
10, 266880, Control_c, 8, 93, 0
10, 266880, Control_c, 8, 91, 66
10, 266880, Note_on_c, 8, 46, 76
10, 266960, Note_off_c, 8, 46, 64
10, 266960, Note_on_c, 8, 50, 99
10, 267040, Note_off_c, 8, 50, 64
10, 267040, Note_on_c, 8, 53, 94
10, 267120, Note_off_c, 8, 53, 64
10, 267120, Control_c, 8, 7, 90
10, 267120, Control_c, 8, 10, 64
10, 267120, Control_c, 8, 93, 0
10, 267120, Control_c, 8, 91, 66
10, 267120, Note_on_c, 8, 56, 86
10, 267200, Note_off_c, 8, 56, 64
10, 267200, Note_on_c, 8, 53, 89
10, 267280, Note_off_c, 8, 53, 64
10, 267280, Note_on_c, 8, 50, 95
10, 267360, Note_off_c, 8, 50, 64
10, 267360, Control_c, 8, 7, 83
10, 267360, Control_c, 8, 10, 64
10, 267360, Control_c, 8, 93, 0
10, 267360, Control_c, 8, 91, 66
10, 267360, Note_on_c, 8, 46, 73
10, 267440, Note_off_c, 8, 46, 64
10, 267440, Note_on_c, 8, 53, 93
10, 267520, Note_off_c, 8, 53, 64
10, 267520, Note_on_c, 8, 56, 94
10, 267600, Note_off_c, 8, 56, 64
10, 267600, Control_c, 8, 7, 79
10, 267600, Control_c, 8, 10, 64
10, 267600, Control_c, 8, 93, 0
10, 267600, Control_c, 8, 91, 66
10, 267600, Note_on_c, 8, 46, 76
10, 267680, Note_off_c, 8, 46, 64
10, 267680, Note_on_c, 8, 53, 90
10, 267760, Note_off_c, 8, 53, 64
10, 267760, Note_on_c, 8, 56, 89
10, 267840, Note_off_c, 8, 56, 64
10, 267840, Note_on_c, 8, 55, 76
10, 267840, Note_on_c, 8, 51, 82
10, 268080, Note_off_c, 8, 51, 64
10, 268080, Note_off_c, 8, 55, 64
10, 268320, Note_on_c, 8, 75, 89
10, 268320, Note_on_c, 8, 70, 82
10, 268320, Note_on_c, 8, 67, 80
10, 268560, Note_off_c, 8, 67, 64
10, 268560, Note_off_c, 8, 70, 64
10, 268560, Note_off_c, 8, 75, 64
10, 268560, Note_on_c, 8, 65, 90
10, 268560, Note_on_c, 8, 68, 86
10, 268560, Note_on_c, 8, 74, 93
10, 268800, Note_off_c, 8, 74, 64
10, 268800, Note_off_c, 8, 68, 64
10, 268800, Note_off_c, 8, 65, 64
10, 268800, Note_on_c, 8, 72, 84
10, 268800, Note_on_c, 8, 67, 89
10, 268800, Note_on_c, 8, 63, 74
10, 269040, Note_off_c, 8, 63, 64
10, 269040, Note_off_c, 8, 67, 64
10, 269040, Note_off_c, 8, 72, 64
10, 269040, Note_on_c, 8, 70, 84
10, 269040, Note_on_c, 8, 65, 94
10, 269040, Note_on_c, 8, 62, 80
10, 269280, Note_off_c, 8, 62, 64
10, 269280, Note_off_c, 8, 65, 64
10, 269280, Note_off_c, 8, 70, 64
10, 269280, Note_on_c, 8, 68, 94
10, 269280, Note_on_c, 8, 63, 89
10, 269280, Note_on_c, 8, 60, 82
10, 269520, Note_off_c, 8, 60, 64
10, 269520, Note_off_c, 8, 63, 64
10, 269520, Note_off_c, 8, 68, 64
10, 269520, Note_on_c, 8, 58, 84
10, 269520, Note_on_c, 8, 62, 98
10, 269520, Note_on_c, 8, 67, 94
10, 269760, Note_off_c, 8, 67, 64
10, 269760, Note_off_c, 8, 62, 64
10, 269760, Note_off_c, 8, 58, 64
10, 269760, Note_on_c, 8, 65, 84
10, 269760, Note_on_c, 8, 60, 90
10, 269760, Note_on_c, 8, 56, 61
10, 270000, Note_off_c, 8, 56, 64
10, 270000, Note_off_c, 8, 60, 64
10, 270000, Note_off_c, 8, 65, 64
10, 270000, Note_on_c, 8, 63, 84
10, 270000, Note_on_c, 8, 58, 86
10, 270000, Note_on_c, 8, 55, 82
10, 270240, Note_off_c, 8, 55, 64
10, 270240, Note_off_c, 8, 58, 64
10, 270240, Note_off_c, 8, 63, 64
10, 270240, Note_on_c, 8, 62, 80
10, 270240, Note_on_c, 8, 56, 84
10, 270240, Note_on_c, 8, 53, 69
10, 270480, Note_off_c, 8, 53, 64
10, 270480, Note_off_c, 8, 56, 64
10, 270480, Note_off_c, 8, 62, 64
10, 270480, Note_on_c, 8, 51, 76
10, 270480, Note_on_c, 8, 55, 99
10, 270720, Note_off_c, 8, 55, 64
10, 270720, Note_off_c, 8, 51, 64
10, 270720, Note_on_c, 8, 53, 89
10, 270720, Note_on_c, 8, 50, 94
10, 270960, Note_off_c, 8, 50, 64
10, 270960, Note_off_c, 8, 53, 64
10, 270960, Note_on_c, 8, 52, 101
10, 270960, Note_on_c, 8, 49, 77
10, 271200, Note_off_c, 8, 49, 64
10, 271200, Note_off_c, 8, 52, 64
10, 271200, Note_on_c, 8, 51, 89
10, 271200, Note_on_c, 8, 48, 81
10, 271440, Note_off_c, 8, 48, 64
10, 271440, Note_off_c, 8, 51, 64
10, 271440, Note_on_c, 8, 47, 85
10, 271440, Note_on_c, 8, 51, 90
10, 271680, Note_off_c, 8, 51, 64
10, 271680, Note_off_c, 8, 47, 64
10, 271680, Note_on_c, 8, 50, 104
10, 271680, Note_on_c, 8, 46, 73
10, 271920, Note_off_c, 8, 46, 64
10, 271920, Note_off_c, 8, 50, 64
10, 272160, Note_on_c, 8, 61, 76
10, 272280, Note_off_c, 8, 61, 64
10, 272280, Note_on_c, 8, 65, 86
10, 272400, Note_off_c, 8, 65, 64
10, 272400, Note_on_c, 8, 60, 86
10, 272520, Note_off_c, 8, 60, 64
10, 272520, Note_on_c, 8, 63, 95
10, 272640, Note_off_c, 8, 63, 64
10, 272640, Note_on_c, 8, 58, 84
10, 272760, Note_off_c, 8, 58, 64
10, 272760, Note_on_c, 8, 61, 84
10, 272880, Note_off_c, 8, 61, 64
10, 272880, Note_on_c, 8, 56, 82
10, 273000, Note_off_c, 8, 56, 64
10, 273000, Note_on_c, 8, 60, 85
10, 273120, Note_off_c, 8, 60, 64
10, 273120, Note_on_c, 8, 54, 89
10, 273240, Note_off_c, 8, 54, 64
10, 273240, Note_on_c, 8, 58, 93
10, 273360, Note_off_c, 8, 58, 64
10, 273360, Note_on_c, 8, 53, 81
10, 273480, Note_off_c, 8, 53, 64
10, 273480, Note_on_c, 8, 56, 94
10, 273600, Note_off_c, 8, 56, 64
10, 273600, Note_on_c, 8, 51, 85
10, 273720, Note_off_c, 8, 51, 64
10, 273720, Note_on_c, 8, 54, 95
10, 273840, Note_off_c, 8, 54, 64
10, 273840, Note_on_c, 8, 49, 86
10, 273960, Note_off_c, 8, 49, 64
10, 273960, Note_on_c, 8, 53, 86
10, 274080, Note_off_c, 8, 53, 64
10, 274080, Note_on_c, 8, 48, 82
10, 274200, Note_off_c, 8, 48, 64
10, 274200, Note_on_c, 8, 51, 95
10, 274320, Note_off_c, 8, 51, 64
10, 274320, Note_on_c, 8, 46, 78
10, 274440, Note_off_c, 8, 46, 64
10, 274440, Note_on_c, 8, 49, 89
10, 274560, Note_off_c, 8, 49, 64
10, 274560, Note_on_c, 8, 45, 98
10, 274680, Note_off_c, 8, 45, 64
10, 274680, Note_on_c, 8, 48, 95
10, 274800, Note_off_c, 8, 48, 64
10, 274800, Note_on_c, 8, 44, 90
10, 274920, Note_off_c, 8, 44, 64
10, 274920, Note_on_c, 8, 47, 98
10, 275040, Note_off_c, 8, 47, 64
10, 275040, Note_on_c, 8, 43, 86
10, 275160, Note_off_c, 8, 43, 64
10, 275160, Note_on_c, 8, 46, 95
10, 275280, Note_off_c, 8, 46, 64
10, 275280, Note_on_c, 8, 42, 90
10, 275400, Note_off_c, 8, 42, 64
10, 275400, Note_on_c, 8, 46, 95
10, 275520, Note_off_c, 8, 46, 64
10, 275520, Note_on_c, 8, 41, 85
10, 275760, Note_off_c, 8, 41, 64
10, 275760, Note_on_c, 8, 72, 84
10, 275880, Note_off_c, 8, 72, 64
10, 275880, Note_on_c, 8, 70, 86
10, 276000, Note_off_c, 8, 70, 64
10, 276000, Note_on_c, 8, 68, 84
10, 276080, Note_off_c, 8, 68, 64
10, 276080, Note_on_c, 8, 72, 84
10, 276160, Note_off_c, 8, 72, 64
10, 276160, Note_on_c, 8, 68, 86
10, 276240, Note_off_c, 8, 68, 64
10, 276240, Note_on_c, 8, 67, 81
10, 276320, Note_off_c, 8, 67, 64
10, 276320, Note_on_c, 8, 70, 86
10, 276400, Note_off_c, 8, 70, 64
10, 276400, Note_on_c, 8, 67, 81
10, 276480, Note_off_c, 8, 67, 64
10, 276480, Note_on_c, 8, 65, 93
10, 276560, Note_off_c, 8, 65, 64
10, 276560, Note_on_c, 8, 68, 86
10, 276640, Note_off_c, 8, 68, 64
10, 276640, Note_on_c, 8, 65, 89
10, 276720, Note_off_c, 8, 65, 64
10, 276720, Note_on_c, 8, 63, 73
10, 276800, Note_off_c, 8, 63, 64
10, 276800, Note_on_c, 8, 67, 94
10, 276880, Note_off_c, 8, 67, 64
10, 276880, Note_on_c, 8, 63, 77
10, 276960, Note_off_c, 8, 63, 64
10, 276960, Note_on_c, 8, 61, 74
10, 277040, Note_off_c, 8, 61, 64
10, 277040, Note_on_c, 8, 65, 89
10, 277120, Note_off_c, 8, 65, 64
10, 277120, Note_on_c, 8, 61, 74
10, 277200, Note_off_c, 8, 61, 64
10, 277200, Note_on_c, 8, 60, 85
10, 277280, Note_off_c, 8, 60, 64
10, 277280, Note_on_c, 8, 63, 93
10, 277360, Note_off_c, 8, 63, 64
10, 277360, Note_on_c, 8, 60, 82
10, 277440, Note_off_c, 8, 60, 64
10, 277440, Note_on_c, 8, 58, 77
10, 277520, Note_off_c, 8, 58, 64
10, 277520, Note_on_c, 8, 61, 94
10, 277600, Note_off_c, 8, 61, 64
10, 277600, Note_on_c, 8, 58, 77
10, 277680, Note_off_c, 8, 58, 64
10, 277680, Note_on_c, 8, 56, 74
10, 277760, Note_off_c, 8, 56, 64
10, 277760, Note_on_c, 8, 60, 89
10, 277840, Note_off_c, 8, 60, 64
10, 277840, Note_on_c, 8, 56, 81
10, 277920, Note_off_c, 8, 56, 64
10, 277920, Note_on_c, 8, 55, 89
10, 278000, Note_off_c, 8, 55, 64
10, 278000, Note_on_c, 8, 58, 90
10, 278080, Note_off_c, 8, 58, 64
10, 278080, Note_on_c, 8, 55, 86
10, 278160, Note_off_c, 8, 55, 64
10, 278160, Note_on_c, 8, 53, 77
10, 278240, Note_off_c, 8, 53, 64
10, 278240, Note_on_c, 8, 56, 95
10, 278320, Note_off_c, 8, 56, 64
10, 278320, Note_on_c, 8, 53, 81
10, 278400, Note_off_c, 8, 53, 64
10, 278400, Note_on_c, 8, 52, 94
10, 278480, Note_off_c, 8, 52, 64
10, 278480, Note_on_c, 8, 55, 95
10, 278560, Note_off_c, 8, 55, 64
10, 278560, Note_on_c, 8, 52, 90
10, 278640, Note_off_c, 8, 52, 64
10, 278640, Note_on_c, 8, 51, 84
10, 278720, Note_off_c, 8, 51, 64
10, 278720, Note_on_c, 8, 54, 95
10, 278800, Note_off_c, 8, 54, 64
10, 278800, Note_on_c, 8, 51, 77
10, 278880, Note_off_c, 8, 51, 64
10, 278880, Note_on_c, 8, 50, 98
10, 278960, Note_off_c, 8, 50, 64
10, 278960, Note_on_c, 8, 53, 94
10, 279040, Note_off_c, 8, 53, 64
10, 279040, Note_on_c, 8, 50, 93
10, 279120, Note_off_c, 8, 50, 64
10, 279120, Note_on_c, 8, 49, 84
10, 279200, Note_off_c, 8, 49, 64
10, 279200, Note_on_c, 8, 53, 95
10, 279280, Note_off_c, 8, 53, 64
10, 279280, Note_on_c, 8, 49, 81
10, 279360, Note_off_c, 8, 49, 64
10, 279360, Note_on_c, 8, 48, 90
10, 279600, Note_off_c, 8, 48, 64
10, 280320, Control_c, 8, 7, 99
10, 280320, Control_c, 8, 10, 64
10, 280320, Control_c, 8, 93, 0
10, 280320, Control_c, 8, 91, 66
10, 280320, Note_on_c, 8, 29, 80
10, 280400, Note_off_c, 8, 29, 64
10, 280400, Note_on_c, 8, 32, 80
10, 280480, Note_off_c, 8, 32, 64
10, 280480, Note_on_c, 8, 34, 80
10, 280560, Note_off_c, 8, 34, 64
10, 280560, Note_on_c, 8, 36, 89
10, 280640, Note_off_c, 8, 36, 64
10, 280640, Note_on_c, 8, 38, 94
10, 280720, Note_off_c, 8, 38, 64
10, 280720, Note_on_c, 8, 40, 95
10, 280800, Note_off_c, 8, 40, 64
10, 280800, Note_on_c, 8, 41, 82
10, 280880, Note_off_c, 8, 41, 64
10, 280880, Note_on_c, 8, 40, 84
10, 280960, Note_off_c, 8, 40, 64
10, 280960, Note_on_c, 8, 41, 89
10, 281040, Note_off_c, 8, 41, 64
10, 281040, Note_on_c, 8, 44, 89
10, 281120, Note_off_c, 8, 44, 64
10, 281120, Note_on_c, 8, 43, 86
10, 281200, Note_off_c, 8, 43, 64
10, 281200, Note_on_c, 8, 41, 89
10, 281280, Note_off_c, 8, 41, 64
10, 281280, Note_on_c, 8, 43, 85
10, 281520, Note_off_c, 8, 43, 64
10, 282240, Note_on_c, 8, 48, 76
10, 282320, Note_off_c, 8, 48, 64
10, 282320, Note_on_c, 8, 52, 94
10, 282400, Note_off_c, 8, 52, 64
10, 282400, Note_on_c, 8, 53, 86
10, 282480, Note_off_c, 8, 53, 64
10, 282480, Note_on_c, 8, 55, 74
10, 282560, Note_off_c, 8, 55, 64
10, 282560, Note_on_c, 8, 57, 93
10, 282640, Note_off_c, 8, 57, 64
10, 282640, Note_on_c, 8, 59, 82
10, 282720, Note_off_c, 8, 59, 64
10, 282720, Note_on_c, 8, 60, 80
10, 282800, Note_off_c, 8, 60, 64
10, 282800, Note_on_c, 8, 59, 81
10, 282880, Note_off_c, 8, 59, 64
10, 282880, Note_on_c, 8, 60, 74
10, 282960, Note_off_c, 8, 60, 64
10, 282960, Note_on_c, 8, 64, 80
10, 283040, Note_off_c, 8, 64, 64
10, 283040, Note_on_c, 8, 62, 74
10, 283120, Note_off_c, 8, 62, 64
10, 283120, Note_on_c, 8, 60, 84
10, 283200, Note_off_c, 8, 60, 64
10, 283200, Note_on_c, 8, 65, 94
10, 283440, Note_off_c, 8, 65, 64
10, 284160, Note_on_c, 8, 29, 80
10, 284240, Note_off_c, 8, 29, 64
10, 284240, Note_on_c, 8, 32, 80
10, 284320, Note_off_c, 8, 32, 64
10, 284320, Note_on_c, 8, 34, 80
10, 284400, Note_off_c, 8, 34, 64
10, 284400, Note_on_c, 8, 36, 89
10, 284480, Note_off_c, 8, 36, 64
10, 284480, Note_on_c, 8, 37, 85
10, 284560, Note_off_c, 8, 37, 64
10, 284560, Note_on_c, 8, 39, 86
10, 284640, Note_off_c, 8, 39, 64
10, 284640, Note_on_c, 8, 41, 81
10, 284720, Note_off_c, 8, 41, 64
10, 284720, Note_on_c, 8, 40, 89
10, 284800, Note_off_c, 8, 40, 64
10, 284800, Note_on_c, 8, 41, 85
10, 284880, Note_off_c, 8, 41, 64
10, 284880, Note_on_c, 8, 44, 81
10, 284960, Note_off_c, 8, 44, 64
10, 284960, Note_on_c, 8, 43, 68
10, 285040, Note_off_c, 8, 43, 64
10, 285040, Note_on_c, 8, 41, 86
10, 285120, Note_off_c, 8, 41, 64
10, 285120, Note_on_c, 8, 43, 68
10, 285360, Note_off_c, 8, 43, 64
10, 286080, Note_on_c, 8, 43, 80
10, 286160, Note_off_c, 8, 43, 64
10, 286160, Note_on_c, 8, 47, 94
10, 286240, Note_off_c, 8, 47, 64
10, 286240, Note_on_c, 8, 48, 94
10, 286320, Note_off_c, 8, 48, 64
10, 286320, Note_on_c, 8, 50, 84
10, 286400, Note_off_c, 8, 50, 64
10, 286400, Note_on_c, 8, 52, 86
10, 286480, Note_off_c, 8, 52, 64
10, 286480, Note_on_c, 8, 54, 76
10, 286560, Note_off_c, 8, 54, 64
10, 286560, Note_on_c, 8, 55, 90
10, 286640, Note_off_c, 8, 55, 64
10, 286640, Note_on_c, 8, 54, 76
10, 286720, Note_off_c, 8, 54, 64
10, 286720, Note_on_c, 8, 55, 84
10, 286800, Note_off_c, 8, 55, 64
10, 286800, Note_on_c, 8, 59, 86
10, 286880, Note_off_c, 8, 59, 64
10, 286880, Note_on_c, 8, 57, 95
10, 286960, Note_off_c, 8, 57, 64
10, 286960, Note_on_c, 8, 55, 81
10, 287040, Note_off_c, 8, 55, 64
10, 287040, Note_on_c, 8, 60, 89
10, 287280, Note_off_c, 8, 60, 64
10, 288000, Note_on_c, 8, 36, 86
10, 288080, Note_off_c, 8, 36, 64
10, 288080, Note_on_c, 8, 39, 86
10, 288160, Note_off_c, 8, 39, 64
10, 288160, Note_on_c, 8, 41, 89
10, 288240, Note_off_c, 8, 41, 64
10, 288240, Note_on_c, 8, 43, 82
10, 288320, Note_off_c, 8, 43, 64
10, 288320, Note_on_c, 8, 44, 90
10, 288400, Note_off_c, 8, 44, 64
10, 288400, Note_on_c, 8, 46, 89
10, 288480, Note_off_c, 8, 46, 64
10, 288480, Note_on_c, 8, 48, 84
10, 288560, Note_off_c, 8, 48, 64
10, 288560, Note_on_c, 8, 47, 93
10, 288640, Note_off_c, 8, 47, 64
10, 288640, Note_on_c, 8, 48, 84
10, 288720, Note_off_c, 8, 48, 64
10, 288720, Note_on_c, 8, 51, 78
10, 288800, Note_off_c, 8, 51, 64
10, 288800, Note_on_c, 8, 48, 99
10, 288880, Note_off_c, 8, 48, 64
10, 288880, Note_on_c, 8, 43, 104
10, 288960, Note_off_c, 8, 43, 64
10, 288960, Note_on_c, 8, 42, 95
10, 289200, Note_off_c, 8, 42, 64
10, 289920, Note_on_c, 8, 29, 80
10, 290000, Note_off_c, 8, 29, 64
10, 290000, Note_on_c, 8, 31, 80
10, 290080, Note_off_c, 8, 31, 64
10, 290080, Note_on_c, 8, 36, 80
10, 290160, Note_off_c, 8, 36, 64
10, 290160, Note_on_c, 8, 39, 78
10, 290240, Note_off_c, 8, 39, 64
10, 290240, Note_on_c, 8, 42, 89
10, 290320, Note_off_c, 8, 42, 64
10, 290320, Note_on_c, 8, 45, 95
10, 290400, Note_off_c, 8, 45, 64
10, 290400, Note_on_c, 8, 48, 99
10, 290480, Note_off_c, 8, 48, 64
10, 290480, Note_on_c, 8, 45, 73
10, 290560, Note_off_c, 8, 45, 64
10, 290560, Note_on_c, 8, 42, 76
10, 290640, Note_off_c, 8, 42, 64
10, 290640, Note_on_c, 8, 48, 95
10, 290720, Note_off_c, 8, 48, 64
10, 290720, Note_on_c, 8, 45, 99
10, 290800, Note_off_c, 8, 45, 64
10, 290800, Note_on_c, 8, 42, 78
10, 290880, Note_off_c, 8, 42, 64
10, 290880, Note_on_c, 8, 43, 95
10, 291120, Note_off_c, 8, 43, 64
10, 291120, Note_on_c, 8, 55, 78
10, 291120, Note_on_c, 8, 43, 94
10, 291360, Note_off_c, 8, 43, 64
10, 291360, Note_off_c, 8, 55, 64
10, 291600, Note_on_c, 8, 55, 68
10, 291600, Note_on_c, 8, 43, 81
10, 291840, Note_off_c, 8, 43, 64
10, 291840, Note_off_c, 8, 55, 64
10, 291840, Note_on_c, 8, 51, 94
10, 291840, Note_on_c, 8, 39, 85
10, 292080, Note_off_c, 8, 39, 64
10, 292080, Note_off_c, 8, 51, 64
10, 292080, Note_on_c, 8, 48, 90
10, 292080, Note_on_c, 8, 36, 94
10, 292320, Note_off_c, 8, 36, 64
10, 292320, Note_off_c, 8, 48, 64
10, 292560, Note_on_c, 8, 48, 70
10, 292560, Note_on_c, 8, 36, 94
10, 292800, Note_off_c, 8, 36, 64
10, 292800, Note_off_c, 8, 48, 64
10, 292800, Note_on_c, 8, 31, 80
10, 292800, Note_on_c, 8, 31, 80
10, 293040, Note_off_c, 8, 31, 64
10, 293040, Note_on_c, 8, 43, 85
10, 293520, Note_off_c, 8, 43, 64
10, 293520, Note_on_c, 8, 43, 68
10, 293760, Note_off_c, 8, 43, 64
10, 293760, Note_off_c, 8, 31, 64
10, 293760, Note_on_c, 8, 31, 80
10, 293760, Note_on_c, 8, 31, 80
10, 294000, Note_off_c, 8, 31, 64
10, 294000, Note_on_c, 8, 43, 81
10, 294480, Note_off_c, 8, 43, 64
10, 294480, Note_on_c, 8, 43, 39
10, 294720, Note_off_c, 8, 43, 64
10, 294720, Note_off_c, 8, 31, 64
10, 294720, Note_on_c, 8, 43, 80
10, 294720, Note_on_c, 8, 31, 80
10, 294960, Note_off_c, 8, 31, 64
10, 294960, Note_off_c, 8, 43, 64
10, 294960, Note_on_c, 8, 55, 80
10, 294960, Note_on_c, 8, 43, 80
10, 295200, Note_off_c, 8, 43, 64
10, 295200, Note_off_c, 8, 55, 64
10, 295440, Note_on_c, 8, 55, 80
10, 295440, Note_on_c, 8, 43, 80
10, 295680, Note_off_c, 8, 43, 64
10, 295680, Note_off_c, 8, 55, 64
10, 295680, Note_on_c, 8, 51, 80
10, 295680, Note_on_c, 8, 39, 80
10, 295920, Note_off_c, 8, 39, 64
10, 295920, Note_off_c, 8, 51, 64
10, 295920, Note_on_c, 8, 48, 80
10, 295920, Note_on_c, 8, 36, 80
10, 296160, Note_off_c, 8, 36, 64
10, 296160, Note_off_c, 8, 48, 64
10, 296400, Note_on_c, 8, 36, 80
10, 296640, Note_off_c, 8, 36, 64
10, 296640, Note_on_c, 8, 31, 80
10, 296880, Note_on_c, 8, 43, 60
10, 297280, Note_off_c, 8, 31, 64
10, 297360, Note_off_c, 8, 43, 64
10, 297360, Note_on_c, 8, 43, 41
10, 297600, Note_off_c, 8, 43, 64
10, 297600, Note_on_c, 8, 31, 80
10, 297840, Note_on_c, 8, 43, 70
10, 298320, Note_off_c, 8, 43, 64
10, 298320, Note_on_c, 8, 43, 65
10, 298560, Note_off_c, 8, 43, 64
10, 298560, Note_off_c, 8, 31, 64
10, 298560, Note_on_c, 8, 43, 72
10, 298640, Note_off_c, 8, 43, 64
10, 298640, Note_on_c, 8, 47, 86
10, 298720, Note_off_c, 8, 47, 64
10, 298720, Note_on_c, 8, 50, 80
10, 298800, Note_off_c, 8, 50, 64
10, 298800, Note_on_c, 8, 55, 76
10, 298880, Note_off_c, 8, 55, 64
10, 298880, Note_on_c, 8, 50, 80
10, 298960, Note_off_c, 8, 50, 64
10, 298960, Note_on_c, 8, 47, 81
10, 299040, Note_off_c, 8, 47, 64
10, 299040, Note_on_c, 8, 43, 80
10, 299120, Note_off_c, 8, 43, 64
10, 299120, Note_on_c, 8, 47, 84
10, 299200, Note_off_c, 8, 47, 64
10, 299200, Note_on_c, 8, 50, 86
10, 299280, Note_off_c, 8, 50, 64
10, 299280, Note_on_c, 8, 55, 68
10, 299360, Note_off_c, 8, 55, 64
10, 299360, Note_on_c, 8, 50, 84
10, 299440, Note_off_c, 8, 50, 64
10, 299440, Note_on_c, 8, 47, 89
10, 299520, Note_off_c, 8, 47, 64
10, 299520, Note_on_c, 8, 43, 82
10, 299600, Note_off_c, 8, 43, 64
10, 299600, Note_on_c, 8, 47, 93
10, 299680, Note_off_c, 8, 47, 64
10, 299680, Note_on_c, 8, 50, 84
10, 299760, Note_off_c, 8, 50, 64
10, 299760, Note_on_c, 8, 55, 76
10, 299840, Note_off_c, 8, 55, 64
10, 299840, Note_on_c, 8, 50, 82
10, 299920, Note_off_c, 8, 50, 64
10, 299920, Note_on_c, 8, 47, 84
10, 300000, Note_off_c, 8, 47, 64
10, 300000, Note_on_c, 8, 43, 80
10, 300080, Note_off_c, 8, 43, 64
10, 300080, Note_on_c, 8, 47, 84
10, 300160, Note_off_c, 8, 47, 64
10, 300160, Note_on_c, 8, 50, 78
10, 300240, Note_off_c, 8, 50, 64
10, 300240, Note_on_c, 8, 55, 72
10, 300320, Note_off_c, 8, 55, 64
10, 300320, Note_on_c, 8, 50, 84
10, 300400, Note_off_c, 8, 50, 64
10, 300400, Note_on_c, 8, 47, 84
10, 300480, Note_off_c, 8, 47, 64
10, 300480, Note_on_c, 8, 43, 81
10, 300560, Note_off_c, 8, 43, 64
10, 300560, Note_on_c, 8, 47, 84
10, 300640, Note_off_c, 8, 47, 64
10, 300640, Note_on_c, 8, 50, 78
10, 300720, Note_off_c, 8, 50, 64
10, 300720, Note_on_c, 8, 55, 70
10, 300800, Note_off_c, 8, 55, 64
10, 300800, Note_on_c, 8, 50, 80
10, 300880, Note_off_c, 8, 50, 64
10, 300880, Note_on_c, 8, 47, 86
10, 300960, Note_off_c, 8, 47, 64
10, 300960, Note_on_c, 8, 43, 89
10, 301040, Note_off_c, 8, 43, 64
10, 301040, Note_on_c, 8, 47, 84
10, 301120, Note_off_c, 8, 47, 64
10, 301120, Note_on_c, 8, 50, 77
10, 301200, Note_off_c, 8, 50, 64
10, 301200, Note_on_c, 8, 55, 76
10, 301280, Note_off_c, 8, 55, 64
10, 301280, Note_on_c, 8, 50, 82
10, 301360, Note_off_c, 8, 50, 64
10, 301360, Note_on_c, 8, 47, 85
10, 301440, Note_off_c, 8, 47, 64
10, 301440, Note_on_c, 8, 43, 89
10, 301520, Note_off_c, 8, 43, 64
10, 301520, Note_on_c, 8, 47, 82
10, 301600, Note_off_c, 8, 47, 64
10, 301600, Note_on_c, 8, 50, 81
10, 301680, Note_off_c, 8, 50, 64
10, 301680, Note_on_c, 8, 55, 76
10, 301760, Note_off_c, 8, 55, 64
10, 301760, Note_on_c, 8, 50, 84
10, 301840, Note_off_c, 8, 50, 64
10, 301840, Note_on_c, 8, 47, 89
10, 301920, Note_off_c, 8, 47, 64
10, 301920, Note_on_c, 8, 43, 89
10, 302000, Note_off_c, 8, 43, 64
10, 302000, Note_on_c, 8, 47, 85
10, 302080, Note_off_c, 8, 47, 64
10, 302080, Note_on_c, 8, 50, 81
10, 302160, Note_off_c, 8, 50, 64
10, 302160, Note_on_c, 8, 55, 80
10, 302240, Note_off_c, 8, 55, 64
10, 302240, Note_on_c, 8, 50, 82
10, 302320, Note_off_c, 8, 50, 64
10, 302320, Note_on_c, 8, 47, 89
10, 302400, Note_off_c, 8, 47, 64
10, 302400, Note_on_c, 8, 43, 94
10, 302480, Note_off_c, 8, 43, 64
10, 302480, Note_on_c, 8, 48, 93
10, 302560, Note_off_c, 8, 48, 64
10, 302560, Note_on_c, 8, 51, 74
10, 302640, Note_off_c, 8, 51, 64
10, 302640, Note_on_c, 8, 55, 74
10, 302720, Note_off_c, 8, 55, 64
10, 302720, Note_on_c, 8, 51, 80
10, 302800, Note_off_c, 8, 51, 64
10, 302800, Note_on_c, 8, 48, 99
10, 302880, Note_off_c, 8, 48, 64
10, 302880, Note_on_c, 8, 43, 99
10, 302960, Note_off_c, 8, 43, 64
10, 302960, Note_on_c, 8, 48, 95
10, 303040, Note_off_c, 8, 48, 64
10, 303040, Note_on_c, 8, 51, 74
10, 303120, Note_off_c, 8, 51, 64
10, 303120, Note_on_c, 8, 55, 71
10, 303200, Note_off_c, 8, 55, 64
10, 303200, Note_on_c, 8, 51, 72
10, 303280, Note_off_c, 8, 51, 64
10, 303280, Note_on_c, 8, 48, 99
10, 303360, Note_off_c, 8, 48, 64
10, 303360, Note_on_c, 8, 43, 95
10, 303440, Note_off_c, 8, 43, 64
10, 303440, Note_on_c, 8, 48, 94
10, 303520, Note_off_c, 8, 48, 64
10, 303520, Note_on_c, 8, 51, 71
10, 303600, Note_off_c, 8, 51, 64
10, 303600, Note_on_c, 8, 55, 70
10, 303680, Note_off_c, 8, 55, 64
10, 303680, Note_on_c, 8, 51, 76
10, 303760, Note_off_c, 8, 51, 64
10, 303760, Note_on_c, 8, 48, 90
10, 303840, Note_off_c, 8, 48, 64
10, 303840, Note_on_c, 8, 43, 94
10, 303920, Note_off_c, 8, 43, 64
10, 303920, Note_on_c, 8, 48, 89
10, 304000, Note_off_c, 8, 48, 64
10, 304000, Note_on_c, 8, 51, 77
10, 304080, Note_off_c, 8, 51, 64
10, 304080, Note_on_c, 8, 55, 69
10, 304160, Note_off_c, 8, 55, 64
10, 304160, Note_on_c, 8, 51, 76
10, 304240, Note_off_c, 8, 51, 64
10, 304240, Note_on_c, 8, 48, 94
10, 304320, Note_off_c, 8, 48, 64
10, 304320, Note_on_c, 8, 43, 98
10, 304400, Note_off_c, 8, 43, 64
10, 304400, Note_on_c, 8, 48, 89
10, 304480, Note_off_c, 8, 48, 64
10, 304480, Note_on_c, 8, 51, 74
10, 304560, Note_off_c, 8, 51, 64
10, 304560, Note_on_c, 8, 55, 65
10, 304640, Note_off_c, 8, 55, 64
10, 304640, Note_on_c, 8, 51, 73
10, 304720, Note_off_c, 8, 51, 64
10, 304720, Note_on_c, 8, 48, 99
10, 304800, Note_off_c, 8, 48, 64
10, 304800, Note_on_c, 8, 43, 94
10, 304880, Note_off_c, 8, 43, 64
10, 304880, Note_on_c, 8, 48, 95
10, 304960, Note_off_c, 8, 48, 64
10, 304960, Note_on_c, 8, 51, 82
10, 305040, Note_off_c, 8, 51, 64
10, 305040, Note_on_c, 8, 55, 74
10, 305120, Note_off_c, 8, 55, 64
10, 305120, Note_on_c, 8, 51, 77
10, 305200, Note_off_c, 8, 51, 64
10, 305200, Note_on_c, 8, 48, 95
10, 305280, Note_off_c, 8, 48, 64
10, 305280, Note_on_c, 8, 43, 95
10, 305360, Note_off_c, 8, 43, 64
10, 305360, Note_on_c, 8, 48, 94
10, 305440, Note_off_c, 8, 48, 64
10, 305440, Note_on_c, 8, 51, 76
10, 305520, Note_off_c, 8, 51, 64
10, 305520, Note_on_c, 8, 55, 76
10, 305600, Note_off_c, 8, 55, 64
10, 305600, Note_on_c, 8, 51, 77
10, 305680, Note_off_c, 8, 51, 64
10, 305680, Note_on_c, 8, 48, 94
10, 305760, Note_off_c, 8, 48, 64
10, 305760, Note_on_c, 8, 43, 94
10, 305840, Note_off_c, 8, 43, 64
10, 305840, Note_on_c, 8, 48, 94
10, 305920, Note_off_c, 8, 48, 64
10, 305920, Note_on_c, 8, 51, 72
10, 306000, Note_off_c, 8, 51, 64
10, 306000, Note_on_c, 8, 55, 80
10, 306080, Note_off_c, 8, 55, 64
10, 306080, Note_on_c, 8, 51, 77
10, 306160, Note_off_c, 8, 51, 64
10, 306160, Note_on_c, 8, 48, 101
10, 306240, Note_off_c, 8, 48, 64
10, 306240, Note_on_c, 8, 43, 89
10, 306320, Note_off_c, 8, 43, 64
10, 306320, Note_on_c, 8, 50, 101
10, 306400, Note_off_c, 8, 50, 64
10, 306400, Note_on_c, 8, 53, 80
10, 306480, Note_off_c, 8, 53, 64
10, 306480, Note_on_c, 8, 55, 76
10, 306560, Note_off_c, 8, 55, 64
10, 306560, Note_on_c, 8, 53, 78
10, 306640, Note_off_c, 8, 53, 64
10, 306640, Note_on_c, 8, 50, 86
10, 306720, Note_off_c, 8, 50, 64
10, 306720, Note_on_c, 8, 43, 82
10, 306800, Note_off_c, 8, 43, 64
10, 306800, Note_on_c, 8, 50, 94
10, 306880, Note_off_c, 8, 50, 64
10, 306880, Note_on_c, 8, 53, 80
10, 306960, Note_off_c, 8, 53, 64
10, 306960, Note_on_c, 8, 55, 73
10, 307040, Note_off_c, 8, 55, 64
10, 307040, Note_on_c, 8, 53, 74
10, 307120, Note_off_c, 8, 53, 64
10, 307120, Note_on_c, 8, 50, 94
10, 307200, Note_off_c, 8, 50, 64
10, 307200, Note_on_c, 8, 43, 84
10, 307280, Note_off_c, 8, 43, 64
10, 307280, Note_on_c, 8, 50, 94
10, 307360, Note_off_c, 8, 50, 64
10, 307360, Note_on_c, 8, 53, 78
10, 307440, Note_off_c, 8, 53, 64
10, 307440, Note_on_c, 8, 55, 76
10, 307520, Note_off_c, 8, 55, 64
10, 307520, Note_on_c, 8, 53, 77
10, 307600, Note_off_c, 8, 53, 64
10, 307600, Note_on_c, 8, 50, 89
10, 307680, Note_off_c, 8, 50, 64
10, 307680, Note_on_c, 8, 43, 86
10, 307760, Note_off_c, 8, 43, 64
10, 307760, Note_on_c, 8, 50, 93
10, 307840, Note_off_c, 8, 50, 64
10, 307840, Note_on_c, 8, 53, 80
10, 307920, Note_off_c, 8, 53, 64
10, 307920, Note_on_c, 8, 55, 74
10, 308000, Note_off_c, 8, 55, 64
10, 308000, Note_on_c, 8, 53, 77
10, 308080, Note_off_c, 8, 53, 64
10, 308080, Note_on_c, 8, 50, 95
10, 308160, Note_off_c, 8, 50, 64
10, 308160, Note_on_c, 8, 43, 89
10, 308240, Note_off_c, 8, 43, 64
10, 308240, Note_on_c, 8, 50, 94
10, 308320, Note_off_c, 8, 50, 64
10, 308320, Note_on_c, 8, 53, 77
10, 308400, Note_off_c, 8, 53, 64
10, 308400, Note_on_c, 8, 55, 74
10, 308480, Note_off_c, 8, 55, 64
10, 308480, Note_on_c, 8, 53, 81
10, 308560, Note_off_c, 8, 53, 64
10, 308560, Note_on_c, 8, 50, 94
10, 308640, Note_off_c, 8, 50, 64
10, 308640, Note_on_c, 8, 43, 90
10, 308720, Note_off_c, 8, 43, 64
10, 308720, Note_on_c, 8, 50, 90
10, 308800, Note_off_c, 8, 50, 64
10, 308800, Note_on_c, 8, 53, 78
10, 308880, Note_off_c, 8, 53, 64
10, 308880, Note_on_c, 8, 55, 76
10, 308960, Note_off_c, 8, 55, 64
10, 308960, Note_on_c, 8, 53, 77
10, 309040, Note_off_c, 8, 53, 64
10, 309040, Note_on_c, 8, 50, 93
10, 309120, Note_off_c, 8, 50, 64
10, 309120, Note_on_c, 8, 43, 85
10, 309200, Note_off_c, 8, 43, 64
10, 309200, Note_on_c, 8, 50, 94
10, 309280, Note_off_c, 8, 50, 64
10, 309280, Note_on_c, 8, 53, 81
10, 309360, Note_off_c, 8, 53, 64
10, 309360, Note_on_c, 8, 55, 72
10, 309440, Note_off_c, 8, 55, 64
10, 309440, Note_on_c, 8, 53, 76
10, 309520, Note_off_c, 8, 53, 64
10, 309520, Note_on_c, 8, 50, 90
10, 309600, Note_off_c, 8, 50, 64
10, 309600, Note_on_c, 8, 43, 86
10, 309680, Note_off_c, 8, 43, 64
10, 309680, Note_on_c, 8, 50, 94
10, 309760, Note_off_c, 8, 50, 64
10, 309760, Note_on_c, 8, 53, 76
10, 309840, Note_off_c, 8, 53, 64
10, 309840, Note_on_c, 8, 55, 74
10, 309920, Note_off_c, 8, 55, 64
10, 309920, Note_on_c, 8, 53, 76
10, 310000, Note_off_c, 8, 53, 64
10, 310000, Note_on_c, 8, 50, 98
10, 310080, Note_off_c, 8, 50, 64
10, 310080, Note_on_c, 8, 43, 98
10, 310160, Note_off_c, 8, 43, 64
10, 310160, Note_on_c, 8, 48, 94
10, 310240, Note_off_c, 8, 48, 64
10, 310240, Note_on_c, 8, 51, 81
10, 310320, Note_off_c, 8, 51, 64
10, 310320, Note_on_c, 8, 55, 80
10, 310400, Note_off_c, 8, 55, 64
10, 310400, Note_on_c, 8, 51, 78
10, 310480, Note_off_c, 8, 51, 64
10, 310480, Note_on_c, 8, 48, 95
10, 310560, Note_off_c, 8, 48, 64
10, 310560, Note_on_c, 8, 43, 99
10, 310640, Note_off_c, 8, 43, 64
10, 310640, Note_on_c, 8, 48, 99
10, 310720, Note_off_c, 8, 48, 64
10, 310720, Note_on_c, 8, 51, 84
10, 310800, Note_off_c, 8, 51, 64
10, 310800, Control_c, 8, 7, 101
10, 310800, Control_c, 8, 10, 64
10, 310800, Control_c, 8, 93, 0
10, 310800, Control_c, 8, 91, 66
10, 310800, Note_on_c, 8, 55, 81
10, 310880, Note_off_c, 8, 55, 64
10, 310880, Note_on_c, 8, 51, 76
10, 310960, Note_off_c, 8, 51, 64
10, 310960, Note_on_c, 8, 48, 99
10, 311040, Note_off_c, 8, 48, 64
10, 311040, Control_c, 8, 7, 103
10, 311040, Control_c, 8, 10, 64
10, 311040, Control_c, 8, 93, 0
10, 311040, Control_c, 8, 91, 66
10, 311040, Note_on_c, 8, 43, 94
10, 311120, Note_off_c, 8, 43, 64
10, 311120, Note_on_c, 8, 48, 90
10, 311200, Note_off_c, 8, 48, 64
10, 311200, Note_on_c, 8, 51, 74
10, 311280, Note_off_c, 8, 51, 64
10, 311280, Control_c, 8, 7, 105
10, 311280, Control_c, 8, 10, 64
10, 311280, Control_c, 8, 93, 0
10, 311280, Control_c, 8, 91, 66
10, 311280, Note_on_c, 8, 55, 81
10, 311360, Note_off_c, 8, 55, 64
10, 311360, Note_on_c, 8, 51, 72
10, 311440, Note_off_c, 8, 51, 64
10, 311440, Note_on_c, 8, 48, 95
10, 311520, Note_off_c, 8, 48, 64
10, 311520, Control_c, 8, 7, 107
10, 311520, Control_c, 8, 10, 64
10, 311520, Control_c, 8, 93, 0
10, 311520, Control_c, 8, 91, 66
10, 311520, Note_on_c, 8, 43, 101
10, 311600, Note_off_c, 8, 43, 64
10, 311600, Note_on_c, 8, 48, 99
10, 311680, Note_off_c, 8, 48, 64
10, 311680, Note_on_c, 8, 51, 73
10, 311760, Note_off_c, 8, 51, 64
10, 311760, Control_c, 8, 7, 109
10, 311760, Control_c, 8, 10, 64
10, 311760, Control_c, 8, 93, 0
10, 311760, Control_c, 8, 91, 66
10, 311760, Note_on_c, 8, 55, 81
10, 311840, Note_off_c, 8, 55, 64
10, 311840, Note_on_c, 8, 51, 73
10, 311920, Note_off_c, 8, 51, 64
10, 311920, Note_on_c, 8, 48, 99
10, 312000, Note_off_c, 8, 48, 64
10, 312000, Control_c, 8, 7, 111
10, 312000, Control_c, 8, 10, 64
10, 312000, Control_c, 8, 93, 0
10, 312000, Control_c, 8, 91, 66
10, 312000, Note_on_c, 8, 44, 93
10, 312080, Note_off_c, 8, 44, 64
10, 312080, Note_on_c, 8, 48, 95
10, 312160, Note_off_c, 8, 48, 64
10, 312160, Note_on_c, 8, 51, 81
10, 312240, Note_off_c, 8, 51, 64
10, 312240, Control_c, 8, 7, 114
10, 312240, Control_c, 8, 10, 64
10, 312240, Control_c, 8, 93, 0
10, 312240, Control_c, 8, 91, 66
10, 312240, Note_on_c, 8, 54, 86
10, 312320, Note_off_c, 8, 54, 64
10, 312320, Note_on_c, 8, 51, 78
10, 312400, Note_off_c, 8, 51, 64
10, 312400, Note_on_c, 8, 48, 99
10, 312480, Note_off_c, 8, 48, 64
10, 312480, Control_c, 8, 7, 117
10, 312480, Control_c, 8, 10, 64
10, 312480, Control_c, 8, 93, 0
10, 312480, Control_c, 8, 91, 66
10, 312480, Note_on_c, 8, 44, 89
10, 312560, Note_off_c, 8, 44, 64
10, 312560, Note_on_c, 8, 48, 93
10, 312640, Note_off_c, 8, 48, 64
10, 312640, Note_on_c, 8, 51, 73
10, 312720, Note_off_c, 8, 51, 64
10, 312720, Control_c, 8, 7, 120
10, 312720, Control_c, 8, 10, 64
10, 312720, Control_c, 8, 93, 0
10, 312720, Control_c, 8, 91, 66
10, 312720, Note_on_c, 8, 54, 85
10, 312800, Note_off_c, 8, 54, 64
10, 312800, Note_on_c, 8, 51, 84
10, 312880, Note_off_c, 8, 51, 64
10, 312880, Note_on_c, 8, 48, 99
10, 312960, Note_off_c, 8, 48, 64
10, 312960, Note_on_c, 8, 44, 90
10, 313040, Note_off_c, 8, 44, 64
10, 313040, Note_on_c, 8, 48, 94
10, 313120, Note_off_c, 8, 48, 64
10, 313120, Note_on_c, 8, 51, 77
10, 313200, Note_off_c, 8, 51, 64
10, 313200, Note_on_c, 8, 54, 84
10, 313280, Note_off_c, 8, 54, 64
10, 313280, Note_on_c, 8, 51, 74
10, 313360, Note_off_c, 8, 51, 64
10, 313360, Note_on_c, 8, 48, 94
10, 313440, Note_off_c, 8, 48, 64
10, 313440, Note_on_c, 8, 44, 86
10, 313520, Note_off_c, 8, 44, 64
10, 313520, Note_on_c, 8, 48, 95
10, 313600, Note_off_c, 8, 48, 64
10, 313600, Note_on_c, 8, 51, 72
10, 313680, Note_off_c, 8, 51, 64
10, 313680, Note_on_c, 8, 54, 82
10, 313760, Note_off_c, 8, 54, 64
10, 313760, Note_on_c, 8, 51, 76
10, 313840, Note_off_c, 8, 51, 64
10, 313840, Note_on_c, 8, 48, 101
10, 313920, Note_off_c, 8, 48, 64
10, 313920, Note_on_c, 8, 55, 76
10, 313920, Note_on_c, 8, 43, 82
10, 314160, Note_off_c, 8, 43, 64
10, 314160, Note_off_c, 8, 55, 64
10, 314640, Note_on_c, 8, 68, 86
10, 314880, Note_off_c, 8, 68, 64
10, 314880, Note_on_c, 8, 67, 80
10, 315120, Note_off_c, 8, 67, 64
10, 315120, Note_on_c, 8, 68, 80
10, 315360, Note_off_c, 8, 68, 64
10, 315360, Note_on_c, 8, 67, 80
10, 315600, Note_off_c, 8, 67, 64
10, 315600, Note_on_c, 8, 68, 80
10, 315840, Note_off_c, 8, 68, 64
10, 315840, Note_on_c, 8, 67, 80
10, 316080, Note_off_c, 8, 67, 64
10, 316560, Note_on_c, 8, 80, 80
10, 316800, Note_off_c, 8, 80, 64
10, 316800, Note_on_c, 8, 79, 78
10, 317040, Note_off_c, 8, 79, 64
10, 317040, Note_on_c, 8, 80, 89
10, 317280, Note_off_c, 8, 80, 64
10, 317280, Note_on_c, 8, 79, 72
10, 317520, Note_off_c, 8, 79, 64
10, 317520, Note_on_c, 8, 80, 84
10, 317760, Note_off_c, 8, 80, 64
10, 317760, Note_on_c, 8, 79, 84
10, 318000, Note_off_c, 8, 79, 64
10, 318480, Note_on_c, 8, 80, 53
10, 318720, Note_off_c, 8, 80, 64
10, 318720, Note_on_c, 8, 79, 46
10, 318960, Note_off_c, 8, 79, 64
10, 319440, Note_on_c, 8, 80, 29
10, 319680, Note_off_c, 8, 80, 64
10, 319680, Note_on_c, 8, 79, 29
10, 319920, Note_off_c, 8, 79, 64
10, 320640, Note_on_c, 8, 75, 29
10, 320640, Note_on_c, 8, 72, 30
10, 320640, Note_on_c, 8, 69, 33
10, 320640, Note_on_c, 8, 66, 29
10, 321120, Note_off_c, 8, 66, 64
10, 321120, Note_off_c, 8, 69, 64
10, 321120, Note_off_c, 8, 72, 64
10, 321120, Note_off_c, 8, 75, 64
10, 321120, Note_on_c, 8, 75, 29
10, 321120, Note_on_c, 8, 72, 29
10, 321120, Note_on_c, 8, 69, 29
10, 321120, Note_on_c, 8, 66, 29
10, 321360, Note_off_c, 8, 66, 64
10, 321360, Note_off_c, 8, 69, 64
10, 321360, Note_off_c, 8, 72, 64
10, 321360, Note_off_c, 8, 75, 64
10, 321360, Note_on_c, 8, 75, 29
10, 321360, Note_on_c, 8, 72, 29
10, 321360, Note_on_c, 8, 69, 29
10, 321360, Note_on_c, 8, 66, 29
10, 321600, Note_off_c, 8, 66, 64
10, 321600, Note_off_c, 8, 69, 64
10, 321600, Note_off_c, 8, 72, 64
10, 321600, Note_off_c, 8, 75, 64
10, 321600, Note_on_c, 8, 74, 36
10, 321600, Note_on_c, 8, 71, 36
10, 321600, Note_on_c, 8, 68, 38
10, 321600, Note_on_c, 8, 65, 41
10, 321840, Note_off_c, 8, 65, 64
10, 321840, Note_off_c, 8, 68, 64
10, 321840, Note_off_c, 8, 71, 64
10, 321840, Note_off_c, 8, 74, 64
10, 322560, Note_on_c, 8, 73, 42
10, 322560, Note_on_c, 8, 70, 39
10, 322560, Note_on_c, 8, 67, 29
10, 322560, Note_on_c, 8, 64, 35
10, 323040, Note_off_c, 8, 64, 64
10, 323040, Note_off_c, 8, 67, 64
10, 323040, Note_off_c, 8, 70, 64
10, 323040, Note_off_c, 8, 73, 64
10, 323040, Note_on_c, 8, 73, 44
10, 323040, Note_on_c, 8, 70, 44
10, 323040, Note_on_c, 8, 67, 40
10, 323040, Note_on_c, 8, 64, 45
10, 323280, Note_off_c, 8, 64, 64
10, 323280, Note_off_c, 8, 67, 64
10, 323280, Note_off_c, 8, 70, 64
10, 323280, Note_off_c, 8, 73, 64
10, 323280, Note_on_c, 8, 73, 46
10, 323280, Note_on_c, 8, 70, 43
10, 323280, Note_on_c, 8, 67, 44
10, 323280, Note_on_c, 8, 64, 50
10, 323520, Note_off_c, 8, 64, 64
10, 323520, Note_off_c, 8, 67, 64
10, 323520, Note_off_c, 8, 70, 64
10, 323520, Note_off_c, 8, 73, 64
10, 323520, Note_on_c, 8, 72, 40
10, 323520, Note_on_c, 8, 69, 43
10, 323520, Note_on_c, 8, 66, 40
10, 323520, Note_on_c, 8, 63, 40
10, 323760, Note_off_c, 8, 63, 64
10, 323760, Note_off_c, 8, 66, 64
10, 323760, Note_off_c, 8, 69, 64
10, 323760, Note_off_c, 8, 72, 64
10, 324480, Note_on_c, 8, 71, 47
10, 324480, Note_on_c, 8, 68, 40
10, 324480, Note_on_c, 8, 65, 44
10, 324480, Note_on_c, 8, 62, 40
10, 324960, Note_off_c, 8, 62, 64
10, 324960, Note_off_c, 8, 65, 64
10, 324960, Note_off_c, 8, 68, 64
10, 324960, Note_off_c, 8, 71, 64
10, 324960, Note_on_c, 8, 71, 44
10, 324960, Note_on_c, 8, 68, 40
10, 324960, Note_on_c, 8, 65, 43
10, 324960, Note_on_c, 8, 62, 43
10, 325200, Note_off_c, 8, 62, 64
10, 325200, Note_off_c, 8, 65, 64
10, 325200, Note_off_c, 8, 68, 64
10, 325200, Note_off_c, 8, 71, 64
10, 325200, Note_on_c, 8, 71, 42
10, 325200, Note_on_c, 8, 68, 40
10, 325200, Note_on_c, 8, 65, 43
10, 325200, Note_on_c, 8, 62, 53
10, 325440, Note_off_c, 8, 62, 64
10, 325440, Note_off_c, 8, 65, 64
10, 325440, Note_off_c, 8, 68, 64
10, 325440, Note_off_c, 8, 71, 64
10, 325440, Note_on_c, 8, 71, 38
10, 325440, Note_on_c, 8, 67, 42
10, 325440, Note_on_c, 8, 65, 44
10, 325440, Note_on_c, 8, 62, 38
10, 325680, Note_off_c, 8, 62, 64
10, 325680, Note_off_c, 8, 65, 64
10, 325680, Note_off_c, 8, 67, 64
10, 325680, Note_off_c, 8, 71, 64
10, 326400, Note_on_c, 8, 74, 38
10, 326400, Note_on_c, 8, 71, 40
10, 326400, Note_on_c, 8, 67, 43
10, 326400, Note_on_c, 8, 65, 31
10, 326640, Note_off_c, 8, 65, 64
10, 326640, Note_off_c, 8, 67, 64
10, 326640, Note_off_c, 8, 71, 64
10, 326640, Note_off_c, 8, 74, 64
10, 327360, Note_on_c, 8, 71, 43
10, 327360, Note_on_c, 8, 67, 42
10, 327360, Note_on_c, 8, 65, 44
10, 327360, Note_on_c, 8, 62, 43
10, 327600, Note_off_c, 8, 62, 64
10, 327600, Note_off_c, 8, 65, 64
10, 327600, Note_off_c, 8, 67, 64
10, 327600, Note_off_c, 8, 71, 64
10, 328320, Note_on_c, 8, 74, 39
10, 328320, Note_on_c, 8, 71, 43
10, 328320, Note_on_c, 8, 67, 40
10, 328320, Note_on_c, 8, 65, 32
10, 328560, Note_off_c, 8, 65, 64
10, 328560, Note_off_c, 8, 67, 64
10, 328560, Note_off_c, 8, 71, 64
10, 328560, Note_off_c, 8, 74, 64
10, 330240, Note_on_c, 8, 31, 125
10, 331200, Note_off_c, 8, 31, 64
10, 339420, Note_on_c, 8, 53, 112
10, 339480, Note_off_c, 8, 53, 64
10, 339480, Note_on_c, 8, 55, 112
10, 339540, Note_off_c, 8, 55, 64
10, 339540, Note_on_c, 8, 57, 115
10, 339600, Note_off_c, 8, 57, 64
10, 339600, Note_on_c, 8, 59, 112
10, 339660, Note_off_c, 8, 59, 64
10, 339660, Note_on_c, 8, 60, 112
10, 339720, Note_off_c, 8, 60, 64
10, 339720, Note_on_c, 8, 62, 112
10, 339780, Note_off_c, 8, 62, 64
10, 339780, Note_on_c, 8, 64, 115
10, 339840, Note_off_c, 8, 64, 64
10, 339840, Note_on_c, 8, 65, 123
10, 340320, Note_off_c, 8, 65, 64
10, 340320, Note_on_c, 8, 62, 119
10, 340800, Note_off_c, 8, 62, 64
10, 340800, Note_on_c, 8, 59, 117
10, 341040, Note_off_c, 8, 59, 64
10, 341340, Note_on_c, 8, 55, 117
10, 341400, Note_off_c, 8, 55, 64
10, 341400, Note_on_c, 8, 57, 115
10, 341460, Note_off_c, 8, 57, 64
10, 341460, Note_on_c, 8, 59, 112
10, 341520, Note_off_c, 8, 59, 64
10, 341520, Note_on_c, 8, 60, 112
10, 341580, Note_off_c, 8, 60, 64
10, 341580, Note_on_c, 8, 62, 110
10, 341640, Note_off_c, 8, 62, 64
10, 341640, Note_on_c, 8, 64, 115
10, 341700, Note_off_c, 8, 64, 64
10, 341700, Note_on_c, 8, 66, 119
10, 341760, Note_off_c, 8, 66, 64
10, 341760, Note_on_c, 8, 67, 119
10, 342240, Note_off_c, 8, 67, 64
10, 342240, Note_on_c, 8, 68, 123
10, 342720, Note_off_c, 8, 68, 64
10, 342720, Note_on_c, 8, 69, 117
10, 342960, Note_off_c, 8, 69, 64
10, 343680, Note_on_c, 8, 62, 127
10, 343680, Note_on_c, 8, 50, 125
10, 343920, Note_off_c, 8, 50, 64
10, 343920, Note_off_c, 8, 62, 64
10, 344640, Note_on_c, 8, 55, 53
10, 344640, Note_on_c, 8, 43, 63
10, 344880, Note_off_c, 8, 43, 64
10, 344880, Note_off_c, 8, 55, 64
10, 346560, Note_on_c, 8, 43, 81
10, 346620, Note_off_c, 8, 43, 64
10, 346620, Note_on_c, 8, 55, 80
10, 346680, Note_off_c, 8, 55, 64
10, 346680, Note_on_c, 8, 54, 70
10, 346740, Note_off_c, 8, 54, 64
10, 346740, Note_on_c, 8, 55, 78
10, 346800, Note_off_c, 8, 55, 64
10, 346800, Note_on_c, 8, 45, 78
10, 346860, Note_off_c, 8, 45, 64
10, 346860, Note_on_c, 8, 55, 78
10, 346920, Note_off_c, 8, 55, 64
10, 346920, Note_on_c, 8, 46, 85
10, 346980, Note_off_c, 8, 46, 64
10, 346980, Note_on_c, 8, 55, 76
10, 347040, Note_off_c, 8, 55, 64
10, 347040, Note_on_c, 8, 47, 80
10, 347100, Note_off_c, 8, 47, 64
10, 347100, Note_on_c, 8, 55, 74
10, 347160, Note_off_c, 8, 55, 64
10, 347160, Note_on_c, 8, 48, 77
10, 347220, Note_off_c, 8, 48, 64
10, 347220, Note_on_c, 8, 55, 76
10, 347280, Note_off_c, 8, 55, 64
10, 347280, Note_on_c, 8, 49, 81
10, 347340, Note_off_c, 8, 49, 64
10, 347340, Note_on_c, 8, 55, 80
10, 347400, Note_off_c, 8, 55, 64
10, 347400, Note_on_c, 8, 50, 80
10, 347460, Note_off_c, 8, 50, 64
10, 347460, Note_on_c, 8, 55, 78
10, 347520, Note_off_c, 8, 55, 64
10, 347520, Note_on_c, 8, 52, 86
10, 347580, Note_off_c, 8, 52, 64
10, 347580, Note_on_c, 8, 55, 81
10, 347640, Note_off_c, 8, 55, 64
10, 347640, Note_on_c, 8, 53, 77
10, 347700, Note_off_c, 8, 53, 64
10, 347700, Note_on_c, 8, 55, 84
10, 347760, Note_off_c, 8, 55, 64
10, 347760, Note_on_c, 8, 54, 80
10, 347820, Note_off_c, 8, 54, 64
10, 347820, Note_on_c, 8, 55, 76
10, 347880, Note_off_c, 8, 55, 64
10, 347880, Note_on_c, 8, 57, 93
10, 347940, Note_off_c, 8, 57, 64
10, 347940, Note_on_c, 8, 55, 74
10, 348000, Note_off_c, 8, 55, 64
10, 348000, Note_on_c, 8, 53, 76
10, 348060, Note_off_c, 8, 53, 64
10, 348060, Note_on_c, 8, 55, 66
10, 348120, Note_off_c, 8, 55, 64
10, 348120, Note_on_c, 8, 52, 81
10, 348180, Note_off_c, 8, 52, 64
10, 348180, Note_on_c, 8, 55, 72
10, 348240, Note_off_c, 8, 55, 64
10, 348240, Note_on_c, 8, 50, 84
10, 348300, Note_off_c, 8, 50, 64
10, 348300, Note_on_c, 8, 55, 78
10, 348360, Note_off_c, 8, 55, 64
10, 348360, Note_on_c, 8, 48, 80
10, 348420, Note_off_c, 8, 48, 64
10, 348420, Note_on_c, 8, 55, 76
10, 348480, Note_off_c, 8, 55, 64
10, 348480, Note_on_c, 8, 43, 80
10, 348720, Note_off_c, 8, 43, 64
10, 350400, Note_on_c, 8, 55, 72
10, 350400, Note_on_c, 8, 43, 78
10, 350640, Note_off_c, 8, 43, 64
10, 350640, Note_off_c, 8, 55, 64
10, 350760, Note_on_c, 8, 63, 67
10, 350760, Note_on_c, 8, 60, 77
10, 350820, Note_off_c, 8, 60, 64
10, 350820, Note_off_c, 8, 63, 64
10, 350880, Note_on_c, 8, 62, 69
10, 350880, Note_on_c, 8, 59, 76
10, 351000, Note_off_c, 8, 59, 64
10, 351000, Note_off_c, 8, 62, 64
10, 351240, Note_on_c, 8, 75, 61
10, 351240, Note_on_c, 8, 72, 68
10, 351300, Note_off_c, 8, 72, 64
10, 351300, Note_off_c, 8, 75, 64
10, 351360, Note_on_c, 8, 74, 69
10, 351360, Note_on_c, 8, 71, 65
10, 351420, Note_off_c, 8, 71, 64
10, 351420, Note_off_c, 8, 74, 64
10, 351480, Note_on_c, 8, 74, 77
10, 351480, Note_on_c, 8, 71, 68
10, 351540, Note_off_c, 8, 71, 64
10, 351540, Note_off_c, 8, 74, 64
10, 351600, Note_on_c, 8, 75, 73
10, 351600, Note_on_c, 8, 72, 45
10, 351660, Note_off_c, 8, 72, 64
10, 351660, Note_off_c, 8, 75, 64
10, 351720, Note_on_c, 8, 75, 65
10, 351720, Note_on_c, 8, 72, 59
10, 351780, Note_off_c, 8, 72, 64
10, 351780, Note_off_c, 8, 75, 64
10, 351840, Note_on_c, 8, 74, 68
10, 351840, Note_on_c, 8, 71, 62
10, 351900, Note_off_c, 8, 71, 64
10, 351900, Note_off_c, 8, 74, 64
10, 351960, Note_on_c, 8, 74, 70
10, 351960, Note_on_c, 8, 71, 71
10, 352020, Note_off_c, 8, 71, 64
10, 352020, Note_off_c, 8, 74, 64
10, 352080, Note_on_c, 8, 75, 70
10, 352080, Note_on_c, 8, 72, 72
10, 352140, Note_off_c, 8, 72, 64
10, 352140, Note_off_c, 8, 75, 64
10, 352200, Note_on_c, 8, 75, 69
10, 352200, Note_on_c, 8, 72, 66
10, 352260, Note_off_c, 8, 72, 64
10, 352260, Note_off_c, 8, 75, 64
10, 352320, Note_on_c, 8, 74, 125
10, 352320, Note_on_c, 8, 71, 123
10, 352440, Note_off_c, 8, 71, 64
10, 352440, Note_off_c, 8, 74, 64
10, 353040, Note_on_c, 8, 43, 125
10, 353120, Note_off_c, 8, 43, 64
10, 353120, Note_on_c, 8, 38, 123
10, 353200, Note_off_c, 8, 38, 64
10, 353200, Note_on_c, 8, 35, 123
10, 353280, Note_off_c, 8, 35, 64
10, 353280, Note_on_c, 8, 31, 125
10, 353440, Note_off_c, 8, 31, 64
10, 361920, Note_on_c, 8, 48, 56
10, 362040, Note_off_c, 8, 48, 64
10, 362040, Note_on_c, 8, 52, 78
10, 362160, Note_off_c, 8, 52, 64
10, 362160, Note_on_c, 8, 55, 55
10, 362280, Note_off_c, 8, 55, 64
10, 362280, Note_on_c, 8, 52, 68
10, 362400, Note_off_c, 8, 52, 64
10, 362400, Note_on_c, 8, 48, 51
10, 362520, Note_off_c, 8, 48, 64
10, 362520, Note_on_c, 8, 52, 70
10, 362640, Note_off_c, 8, 52, 64
10, 362640, Note_on_c, 8, 55, 52
10, 362760, Note_off_c, 8, 55, 64
10, 362760, Note_on_c, 8, 52, 57
10, 362880, Note_off_c, 8, 52, 64
10, 362880, Note_on_c, 8, 50, 68
10, 363000, Note_off_c, 8, 50, 64
10, 363000, Note_on_c, 8, 53, 64
10, 363120, Note_off_c, 8, 53, 64
10, 363120, Note_on_c, 8, 55, 61
10, 363240, Note_off_c, 8, 55, 64
10, 363240, Note_on_c, 8, 53, 62
10, 363360, Note_off_c, 8, 53, 64
10, 363360, Note_on_c, 8, 50, 74
10, 363480, Note_off_c, 8, 50, 64
10, 363480, Note_on_c, 8, 53, 64
10, 363600, Note_off_c, 8, 53, 64
10, 363600, Note_on_c, 8, 55, 52
10, 363720, Note_off_c, 8, 55, 64
10, 363720, Note_on_c, 8, 53, 45
10, 363840, Note_off_c, 8, 53, 64
10, 363840, Note_on_c, 8, 52, 82
10, 363960, Note_off_c, 8, 52, 64
10, 363960, Note_on_c, 8, 60, 61
10, 364080, Note_off_c, 8, 60, 64
10, 364080, Note_on_c, 8, 55, 62
10, 364200, Note_off_c, 8, 55, 64
10, 364200, Note_on_c, 8, 52, 78
10, 364320, Note_off_c, 8, 52, 64
10, 364320, Note_on_c, 8, 48, 43
10, 364440, Note_off_c, 8, 48, 64
10, 364440, Note_on_c, 8, 55, 58
10, 364560, Note_off_c, 8, 55, 64
10, 364560, Note_on_c, 8, 52, 58
10, 364680, Note_off_c, 8, 52, 64
10, 364680, Note_on_c, 8, 48, 68
10, 364800, Note_off_c, 8, 48, 64
10, 364800, Note_on_c, 8, 43, 61
10, 364920, Note_off_c, 8, 43, 64
10, 364920, Note_on_c, 8, 59, 85
10, 365040, Note_off_c, 8, 59, 64
10, 365040, Note_on_c, 8, 62, 70
10, 365160, Note_off_c, 8, 62, 64
10, 365160, Note_on_c, 8, 60, 64
10, 365280, Note_off_c, 8, 60, 64
10, 365280, Note_on_c, 8, 59, 76
10, 365400, Note_off_c, 8, 59, 64
10, 365400, Note_on_c, 8, 57, 86
10, 365520, Note_off_c, 8, 57, 64
10, 365520, Note_on_c, 8, 55, 71
10, 365640, Note_off_c, 8, 55, 64
10, 365640, Note_on_c, 8, 53, 54
10, 365760, Note_off_c, 8, 53, 64
10, 365760, Note_on_c, 8, 52, 81
10, 365880, Note_off_c, 8, 52, 64
10, 365880, Note_on_c, 8, 56, 76
10, 366000, Note_off_c, 8, 56, 64
10, 366000, Note_on_c, 8, 59, 64
10, 366120, Note_off_c, 8, 59, 64
10, 366120, Note_on_c, 8, 56, 67
10, 366240, Note_off_c, 8, 56, 64
10, 366240, Note_on_c, 8, 52, 80
10, 366360, Note_off_c, 8, 52, 64
10, 366360, Note_on_c, 8, 59, 76
10, 366480, Note_off_c, 8, 59, 64
10, 366480, Note_on_c, 8, 62, 68
10, 366600, Note_off_c, 8, 62, 64
10, 366600, Note_on_c, 8, 59, 77
10, 366720, Note_off_c, 8, 59, 64
10, 366720, Note_on_c, 8, 57, 72
10, 366840, Note_off_c, 8, 57, 64
10, 366840, Note_on_c, 8, 60, 68
10, 366960, Note_off_c, 8, 60, 64
10, 366960, Note_on_c, 8, 64, 60
10, 367080, Note_off_c, 8, 64, 64
10, 367080, Note_on_c, 8, 60, 44
10, 367200, Note_off_c, 8, 60, 64
10, 367200, Note_on_c, 8, 64, 67
10, 367320, Note_off_c, 8, 64, 64
10, 367320, Note_on_c, 8, 60, 55
10, 367440, Note_off_c, 8, 60, 64
10, 367440, Note_on_c, 8, 64, 71
10, 367560, Note_off_c, 8, 64, 64
10, 367560, Note_on_c, 8, 60, 47
10, 367680, Note_off_c, 8, 60, 64
10, 367680, Note_on_c, 8, 57, 63
10, 367800, Note_off_c, 8, 57, 64
10, 367800, Note_on_c, 8, 62, 45
10, 367920, Note_off_c, 8, 62, 64
10, 367920, Note_on_c, 8, 55, 62
10, 368040, Note_off_c, 8, 55, 64
10, 368040, Note_on_c, 8, 62, 44
10, 368160, Note_off_c, 8, 62, 64
10, 368160, Note_on_c, 8, 57, 59
10, 368280, Note_off_c, 8, 57, 64
10, 368280, Note_on_c, 8, 62, 62
10, 368400, Note_off_c, 8, 62, 64
10, 368400, Note_on_c, 8, 54, 45
10, 368520, Note_off_c, 8, 54, 64
10, 368520, Note_on_c, 8, 62, 70
10, 368640, Note_off_c, 8, 62, 64
10, 368640, Note_on_c, 8, 55, 62
10, 368760, Note_off_c, 8, 55, 64
10, 368760, Note_on_c, 8, 59, 72
10, 368880, Note_off_c, 8, 59, 64
10, 368880, Note_on_c, 8, 62, 66
10, 369000, Note_off_c, 8, 62, 64
10, 369000, Note_on_c, 8, 59, 53
10, 369120, Note_off_c, 8, 59, 64
10, 369120, Note_on_c, 8, 62, 62
10, 369240, Note_off_c, 8, 62, 64
10, 369240, Note_on_c, 8, 59, 52
10, 369360, Note_off_c, 8, 59, 64
10, 369360, Note_on_c, 8, 62, 62
10, 369480, Note_off_c, 8, 62, 64
10, 369480, Note_on_c, 8, 59, 65
10, 369600, Note_off_c, 8, 59, 64
10, 369600, Note_on_c, 8, 62, 65
10, 369720, Note_off_c, 8, 62, 64
10, 369720, Note_on_c, 8, 67, 72
10, 369840, Note_off_c, 8, 67, 64
10, 369840, Note_on_c, 8, 60, 59
10, 369960, Note_off_c, 8, 60, 64
10, 369960, Note_on_c, 8, 67, 64
10, 370080, Note_off_c, 8, 67, 64
10, 370080, Note_on_c, 8, 62, 57
10, 370200, Note_off_c, 8, 62, 64
10, 370200, Note_on_c, 8, 67, 76
10, 370320, Note_off_c, 8, 67, 64
10, 370320, Note_on_c, 8, 59, 53
10, 370440, Note_off_c, 8, 59, 64
10, 370440, Note_on_c, 8, 67, 64
10, 370560, Note_off_c, 8, 67, 64
10, 370560, Note_on_c, 8, 60, 61
10, 370680, Note_off_c, 8, 60, 64
10, 370680, Note_on_c, 8, 67, 69
10, 370800, Note_off_c, 8, 67, 64
10, 370800, Note_on_c, 8, 64, 54
10, 370920, Note_off_c, 8, 64, 64
10, 370920, Note_on_c, 8, 60, 61
10, 371040, Note_off_c, 8, 60, 64
10, 371040, Note_on_c, 8, 53, 67
10, 371160, Note_off_c, 8, 53, 64
10, 371160, Note_on_c, 8, 57, 84
10, 371280, Note_off_c, 8, 57, 64
10, 371280, Note_on_c, 8, 62, 69
10, 371400, Note_off_c, 8, 62, 64
10, 371400, Note_on_c, 8, 65, 64
10, 371520, Note_off_c, 8, 65, 64
10, 371520, Note_on_c, 8, 55, 58
10, 371640, Note_off_c, 8, 55, 64
10, 371640, Note_on_c, 8, 60, 73
10, 371760, Note_off_c, 8, 60, 64
10, 371760, Note_on_c, 8, 64, 65
10, 371880, Note_off_c, 8, 64, 64
10, 371880, Note_on_c, 8, 67, 60
10, 372000, Note_off_c, 8, 67, 64
10, 372000, Note_on_c, 8, 55, 61
10, 372120, Note_off_c, 8, 55, 64
10, 372120, Note_on_c, 8, 59, 68
10, 372240, Note_off_c, 8, 59, 64
10, 372240, Note_on_c, 8, 62, 73
10, 372360, Note_off_c, 8, 62, 64
10, 372360, Note_on_c, 8, 67, 64
10, 372480, Note_off_c, 8, 67, 64
10, 372480, Note_on_c, 8, 60, 49
10, 372720, Note_off_c, 8, 60, 64
10, 377400, Note_on_c, 8, 41, 71
10, 377460, Note_off_c, 8, 41, 64
10, 377520, Note_on_c, 8, 44, 76
10, 377580, Note_off_c, 8, 44, 64
10, 377640, Note_on_c, 8, 47, 72
10, 377700, Note_off_c, 8, 47, 64
10, 377760, Note_on_c, 8, 50, 69
10, 377820, Note_off_c, 8, 50, 64
10, 377880, Note_on_c, 8, 53, 73
10, 377940, Note_off_c, 8, 53, 64
10, 378000, Note_on_c, 8, 56, 76
10, 378060, Note_off_c, 8, 56, 64
10, 378120, Note_on_c, 8, 59, 74
10, 378180, Note_off_c, 8, 59, 64
10, 378240, Note_on_c, 8, 39, 71
10, 378300, Note_off_c, 8, 39, 64
10, 378360, Note_on_c, 8, 60, 64
10, 378420, Note_off_c, 8, 60, 64
10, 378480, Note_on_c, 8, 55, 72
10, 378540, Note_off_c, 8, 55, 64
10, 378600, Note_on_c, 8, 60, 48
10, 378660, Note_off_c, 8, 60, 64
10, 378720, Note_on_c, 8, 41, 72
10, 378780, Note_off_c, 8, 41, 64
10, 378840, Note_on_c, 8, 62, 52
10, 378900, Note_off_c, 8, 62, 64
10, 378960, Note_on_c, 8, 56, 72
10, 379020, Note_off_c, 8, 56, 64
10, 379080, Note_on_c, 8, 62, 70
10, 379140, Note_off_c, 8, 62, 64
10, 379200, Note_on_c, 8, 43, 44
10, 379260, Note_off_c, 8, 43, 64
10, 379320, Note_on_c, 8, 60, 72
10, 379380, Note_off_c, 8, 60, 64
10, 379440, Note_on_c, 8, 55, 65
10, 379500, Note_off_c, 8, 55, 64
10, 379560, Note_on_c, 8, 60, 72
10, 379620, Note_off_c, 8, 60, 64
10, 379680, Note_on_c, 8, 43, 60
10, 379740, Note_off_c, 8, 43, 64
10, 379800, Note_on_c, 8, 59, 71
10, 379860, Note_off_c, 8, 59, 64
10, 379920, Note_on_c, 8, 55, 74
10, 379980, Note_off_c, 8, 55, 64
10, 380040, Note_on_c, 8, 59, 76
10, 380100, Note_off_c, 8, 59, 64
10, 380160, Note_on_c, 8, 60, 44
10, 380160, Note_on_c, 8, 48, 64
10, 380400, Note_off_c, 8, 48, 64
10, 380400, Note_off_c, 8, 60, 64
10, 382320, Note_on_c, 8, 67, 72
10, 382380, Note_off_c, 8, 67, 64
10, 382380, Note_on_c, 8, 66, 78
10, 382440, Note_off_c, 8, 66, 64
10, 382440, Note_on_c, 8, 67, 84
10, 382500, Note_off_c, 8, 67, 64
10, 382500, Note_on_c, 8, 66, 73
10, 382560, Note_off_c, 8, 66, 64
10, 382560, Note_on_c, 8, 67, 73
10, 382680, Note_off_c, 8, 67, 64
10, 382800, Note_on_c, 8, 67, 84
10, 382860, Note_off_c, 8, 67, 64
10, 382860, Note_on_c, 8, 66, 77
10, 382920, Note_off_c, 8, 66, 64
10, 382920, Note_on_c, 8, 67, 76
10, 382980, Note_off_c, 8, 67, 64
10, 382980, Note_on_c, 8, 66, 78
10, 383040, Note_off_c, 8, 66, 64
10, 383040, Note_on_c, 8, 67, 76
10, 383100, Note_off_c, 8, 67, 64
10, 383160, Note_on_c, 8, 55, 81
10, 383220, Note_off_c, 8, 55, 64
10, 383220, Note_on_c, 8, 57, 99
10, 383280, Note_off_c, 8, 57, 64
10, 383280, Note_on_c, 8, 59, 93
10, 383340, Note_off_c, 8, 59, 64
10, 383340, Note_on_c, 8, 60, 93
10, 383400, Note_off_c, 8, 60, 64
10, 383400, Note_on_c, 8, 62, 89
10, 383460, Note_off_c, 8, 62, 64
10, 383460, Note_on_c, 8, 64, 95
10, 383520, Note_off_c, 8, 64, 64
10, 383520, Note_on_c, 8, 65, 95
10, 383580, Note_off_c, 8, 65, 64
10, 383580, Note_on_c, 8, 64, 86
10, 383640, Note_off_c, 8, 64, 64
10, 383640, Note_on_c, 8, 62, 89
10, 383700, Note_off_c, 8, 62, 64
10, 383700, Note_on_c, 8, 64, 99
10, 383760, Note_off_c, 8, 64, 64
10, 383760, Note_on_c, 8, 65, 95
10, 383820, Note_off_c, 8, 65, 64
10, 383820, Note_on_c, 8, 67, 84
10, 383880, Note_off_c, 8, 67, 64
10, 383880, Note_on_c, 8, 69, 93
10, 383940, Note_off_c, 8, 69, 64
10, 383940, Note_on_c, 8, 71, 101
10, 384000, Note_off_c, 8, 71, 64
10, 384000, Note_on_c, 8, 72, 85
10, 384240, Note_off_c, 8, 72, 64
10, 384480, Note_on_c, 8, 48, 86
10, 384540, Note_off_c, 8, 48, 64
10, 384540, Note_on_c, 8, 55, 80
10, 384600, Note_off_c, 8, 55, 64
10, 384600, Note_on_c, 8, 52, 101
10, 384660, Note_off_c, 8, 52, 64
10, 384660, Note_on_c, 8, 55, 80
10, 384720, Note_off_c, 8, 55, 64
10, 384720, Note_on_c, 8, 48, 99
10, 384780, Note_off_c, 8, 48, 64
10, 384780, Note_on_c, 8, 59, 86
10, 384840, Note_off_c, 8, 59, 64
10, 384840, Note_on_c, 8, 53, 82
10, 384900, Note_off_c, 8, 53, 64
10, 384900, Note_on_c, 8, 59, 94
10, 384960, Note_off_c, 8, 59, 64
10, 384960, Note_on_c, 8, 48, 99
10, 385020, Note_off_c, 8, 48, 64
10, 385020, Note_on_c, 8, 60, 85
10, 385080, Note_off_c, 8, 60, 64
10, 385080, Note_on_c, 8, 55, 94
10, 385140, Note_off_c, 8, 55, 64
10, 385140, Note_on_c, 8, 60, 85
10, 385200, Note_off_c, 8, 60, 64
10, 385200, Note_on_c, 8, 55, 93
10, 385260, Note_off_c, 8, 55, 64
10, 385260, Note_on_c, 8, 60, 85
10, 385320, Note_off_c, 8, 60, 64
10, 385320, Note_on_c, 8, 55, 89
10, 385380, Note_off_c, 8, 55, 64
10, 385380, Note_on_c, 8, 60, 84
10, 385440, Note_off_c, 8, 60, 64
10, 385440, Note_on_c, 8, 52, 99
10, 385500, Note_off_c, 8, 52, 64
10, 385500, Note_on_c, 8, 60, 84
10, 385560, Note_off_c, 8, 60, 64
10, 385560, Note_on_c, 8, 55, 93
10, 385620, Note_off_c, 8, 55, 64
10, 385620, Note_on_c, 8, 60, 85
10, 385680, Note_off_c, 8, 60, 64
10, 385680, Note_on_c, 8, 48, 98
10, 385740, Note_off_c, 8, 48, 64
10, 385740, Note_on_c, 8, 60, 89
10, 385800, Note_off_c, 8, 60, 64
10, 385800, Note_on_c, 8, 55, 98
10, 385860, Note_off_c, 8, 55, 64
10, 385860, Note_on_c, 8, 60, 90
10, 385920, Note_off_c, 8, 60, 64
10, 385920, Note_on_c, 8, 43, 66
10, 385980, Note_off_c, 8, 43, 64
10, 385980, Note_on_c, 8, 60, 84
10, 386040, Note_off_c, 8, 60, 64
10, 386040, Note_on_c, 8, 55, 99
10, 386100, Note_off_c, 8, 55, 64
10, 386100, Note_on_c, 8, 60, 89
10, 386160, Note_off_c, 8, 60, 64
10, 386160, Note_on_c, 8, 43, 93
10, 386220, Note_off_c, 8, 43, 64
10, 386220, Note_on_c, 8, 60, 89
10, 386280, Note_off_c, 8, 60, 64
10, 386280, Note_on_c, 8, 55, 94
10, 386340, Note_off_c, 8, 55, 64
10, 386340, Note_on_c, 8, 60, 93
10, 386400, Note_off_c, 8, 60, 64
10, 386400, Note_on_c, 8, 43, 94
10, 386460, Note_off_c, 8, 43, 64
10, 386460, Note_on_c, 8, 59, 94
10, 386520, Note_off_c, 8, 59, 64
10, 386520, Note_on_c, 8, 55, 95
10, 386580, Note_off_c, 8, 55, 64
10, 386580, Note_on_c, 8, 59, 89
10, 386640, Note_off_c, 8, 59, 64
10, 386640, Note_on_c, 8, 43, 93
10, 386700, Note_off_c, 8, 43, 64
10, 386700, Note_on_c, 8, 59, 94
10, 386760, Note_off_c, 8, 59, 64
10, 386760, Note_on_c, 8, 55, 93
10, 386820, Note_off_c, 8, 55, 64
10, 386820, Note_on_c, 8, 59, 94
10, 386880, Note_off_c, 8, 59, 64
10, 386880, Note_on_c, 8, 48, 104
10, 386940, Note_off_c, 8, 48, 64
10, 386940, Note_on_c, 8, 60, 89
10, 387000, Note_off_c, 8, 60, 64
10, 387000, Note_on_c, 8, 55, 95
10, 387060, Note_off_c, 8, 55, 64
10, 387060, Note_on_c, 8, 60, 94
10, 387120, Note_off_c, 8, 60, 64
10, 387120, Note_on_c, 8, 55, 93
10, 387180, Note_off_c, 8, 55, 64
10, 387180, Note_on_c, 8, 60, 95
10, 387240, Note_off_c, 8, 60, 64
10, 387240, Note_on_c, 8, 55, 86
10, 387300, Note_off_c, 8, 55, 64
10, 387300, Note_on_c, 8, 60, 85
10, 387360, Note_off_c, 8, 60, 64
10, 387360, Note_on_c, 8, 52, 95
10, 387420, Note_off_c, 8, 52, 64
10, 387420, Note_on_c, 8, 60, 86
10, 387480, Note_off_c, 8, 60, 64
10, 387480, Note_on_c, 8, 55, 95
10, 387540, Note_off_c, 8, 55, 64
10, 387540, Note_on_c, 8, 60, 89
10, 387600, Note_off_c, 8, 60, 64
10, 387600, Note_on_c, 8, 48, 104
10, 387660, Note_off_c, 8, 48, 64
10, 387660, Note_on_c, 8, 60, 90
10, 387720, Note_off_c, 8, 60, 64
10, 387720, Note_on_c, 8, 55, 95
10, 387780, Note_off_c, 8, 55, 64
10, 387780, Note_on_c, 8, 60, 94
10, 387840, Note_off_c, 8, 60, 64
10, 387840, Note_on_c, 8, 43, 99
10, 387900, Note_off_c, 8, 43, 64
10, 387900, Note_on_c, 8, 60, 93
10, 387960, Note_off_c, 8, 60, 64
10, 387960, Note_on_c, 8, 55, 95
10, 388020, Note_off_c, 8, 55, 64
10, 388020, Note_on_c, 8, 60, 84
10, 388080, Note_off_c, 8, 60, 64
10, 388080, Note_on_c, 8, 43, 95
10, 388140, Note_off_c, 8, 43, 64
10, 388140, Note_on_c, 8, 60, 94
10, 388200, Note_off_c, 8, 60, 64
10, 388200, Note_on_c, 8, 55, 95
10, 388260, Note_off_c, 8, 55, 64
10, 388260, Note_on_c, 8, 60, 84
10, 388320, Note_off_c, 8, 60, 64
10, 388320, Note_on_c, 8, 43, 101
10, 388380, Note_off_c, 8, 43, 64
10, 388380, Note_on_c, 8, 59, 93
10, 388440, Note_off_c, 8, 59, 64
10, 388440, Note_on_c, 8, 55, 90
10, 388500, Note_off_c, 8, 55, 64
10, 388500, Note_on_c, 8, 59, 95
10, 388560, Note_off_c, 8, 59, 64
10, 388560, Note_on_c, 8, 43, 94
10, 388620, Note_off_c, 8, 43, 64
10, 388620, Note_on_c, 8, 59, 94
10, 388680, Note_off_c, 8, 59, 64
10, 388680, Note_on_c, 8, 55, 94
10, 388740, Note_off_c, 8, 55, 64
10, 388740, Note_on_c, 8, 59, 94
10, 388800, Note_off_c, 8, 59, 64
10, 388800, Note_on_c, 8, 48, 105
10, 389040, Note_off_c, 8, 48, 64
10, 390720, Note_on_c, 8, 48, 93
10, 390720, Note_on_c, 8, 36, 104
10, 390960, Note_off_c, 8, 36, 64
10, 390960, Note_off_c, 8, 48, 64
10, 392880, Note_on_c, 8, 60, 90
10, 392940, Note_off_c, 8, 60, 64
10, 392940, Note_on_c, 8, 64, 89
10, 393000, Note_off_c, 8, 64, 64
10, 393000, Note_on_c, 8, 62, 94
10, 393060, Note_off_c, 8, 62, 64
10, 393060, Note_on_c, 8, 60, 93
10, 393120, Note_off_c, 8, 60, 64
10, 393120, Note_on_c, 8, 59, 94
10, 393180, Note_off_c, 8, 59, 64
10, 393180, Note_on_c, 8, 62, 85
10, 393240, Note_off_c, 8, 62, 64
10, 393240, Note_on_c, 8, 60, 93
10, 393300, Note_off_c, 8, 60, 64
10, 393300, Note_on_c, 8, 59, 89
10, 393360, Note_off_c, 8, 59, 64
10, 393360, Note_on_c, 8, 57, 95
10, 393420, Note_off_c, 8, 57, 64
10, 393420, Note_on_c, 8, 60, 85
10, 393480, Note_off_c, 8, 60, 64
10, 393480, Note_on_c, 8, 59, 99
10, 393540, Note_off_c, 8, 59, 64
10, 393540, Note_on_c, 8, 57, 101
10, 393600, Note_off_c, 8, 57, 64
10, 393600, Note_on_c, 8, 55, 82
10, 393660, Note_off_c, 8, 55, 64
10, 393660, Note_on_c, 8, 59, 90
10, 393720, Note_off_c, 8, 59, 64
10, 393720, Note_on_c, 8, 57, 99
10, 393780, Note_off_c, 8, 57, 64
10, 393780, Note_on_c, 8, 55, 90
10, 393840, Note_off_c, 8, 55, 64
10, 393840, Note_on_c, 8, 53, 85
10, 393900, Note_off_c, 8, 53, 64
10, 393900, Note_on_c, 8, 57, 94
10, 393960, Note_off_c, 8, 57, 64
10, 393960, Note_on_c, 8, 55, 93
10, 394020, Note_off_c, 8, 55, 64
10, 394020, Note_on_c, 8, 53, 89
10, 394080, Note_off_c, 8, 53, 64
10, 394080, Note_on_c, 8, 52, 90
10, 394140, Note_off_c, 8, 52, 64
10, 394140, Note_on_c, 8, 55, 81
10, 394200, Note_off_c, 8, 55, 64
10, 394200, Note_on_c, 8, 53, 89
10, 394260, Note_off_c, 8, 53, 64
10, 394260, Note_on_c, 8, 52, 99
10, 394320, Note_off_c, 8, 52, 64
10, 394320, Note_on_c, 8, 50, 104
10, 394380, Note_off_c, 8, 50, 64
10, 394380, Note_on_c, 8, 53, 81
10, 394440, Note_off_c, 8, 53, 64
10, 394440, Note_on_c, 8, 52, 99
10, 394500, Note_off_c, 8, 52, 64
10, 394500, Note_on_c, 8, 50, 98
10, 394560, Note_off_c, 8, 50, 64
10, 394560, Note_on_c, 8, 48, 95
10, 394620, Note_off_c, 8, 48, 64
10, 394620, Note_on_c, 8, 47, 95
10, 394680, Note_off_c, 8, 47, 64
10, 394680, Note_on_c, 8, 48, 99
10, 394740, Note_off_c, 8, 48, 64
10, 394740, Note_on_c, 8, 47, 94
10, 394800, Note_off_c, 8, 47, 64
10, 394800, Note_on_c, 8, 48, 95
10, 394860, Note_off_c, 8, 48, 64
10, 394860, Note_on_c, 8, 52, 93
10, 394920, Note_off_c, 8, 52, 64
10, 394920, Note_on_c, 8, 50, 99
10, 394980, Note_off_c, 8, 50, 64
10, 394980, Note_on_c, 8, 48, 99
10, 395040, Note_off_c, 8, 48, 64
10, 395040, Note_on_c, 8, 47, 99
10, 395100, Note_off_c, 8, 47, 64
10, 395100, Note_on_c, 8, 50, 89
10, 395160, Note_off_c, 8, 50, 64
10, 395160, Note_on_c, 8, 48, 95
10, 395220, Note_off_c, 8, 48, 64
10, 395220, Note_on_c, 8, 47, 99
10, 395280, Note_off_c, 8, 47, 64
10, 395280, Note_on_c, 8, 45, 95
10, 395340, Note_off_c, 8, 45, 64
10, 395340, Note_on_c, 8, 48, 85
10, 395400, Note_off_c, 8, 48, 64
10, 395400, Note_on_c, 8, 47, 98
10, 395460, Note_off_c, 8, 47, 64
10, 395460, Note_on_c, 8, 45, 89
10, 395520, Note_off_c, 8, 45, 64
10, 395520, Note_on_c, 8, 43, 90
10, 395580, Note_off_c, 8, 43, 64
10, 395580, Note_on_c, 8, 47, 86
10, 395640, Note_off_c, 8, 47, 64
10, 395640, Note_on_c, 8, 45, 94
10, 395700, Note_off_c, 8, 45, 64
10, 395700, Note_on_c, 8, 43, 93
10, 395760, Note_off_c, 8, 43, 64
10, 395760, Note_on_c, 8, 41, 93
10, 395820, Note_off_c, 8, 41, 64
10, 395820, Note_on_c, 8, 45, 84
10, 395880, Note_off_c, 8, 45, 64
10, 395880, Note_on_c, 8, 43, 90
10, 395940, Note_off_c, 8, 43, 64
10, 395940, Note_on_c, 8, 41, 90
10, 396000, Note_off_c, 8, 41, 64
10, 396000, Note_on_c, 8, 40, 99
10, 396060, Note_off_c, 8, 40, 64
10, 396060, Note_on_c, 8, 43, 84
10, 396120, Note_off_c, 8, 43, 64
10, 396120, Note_on_c, 8, 41, 86
10, 396180, Note_off_c, 8, 41, 64
10, 396180, Note_on_c, 8, 40, 99
10, 396240, Note_off_c, 8, 40, 64
10, 396240, Note_on_c, 8, 38, 98
10, 396300, Note_off_c, 8, 38, 64
10, 396300, Note_on_c, 8, 41, 81
10, 396360, Note_off_c, 8, 41, 64
10, 396360, Note_on_c, 8, 40, 98
10, 396420, Note_off_c, 8, 40, 64
10, 396420, Note_on_c, 8, 38, 98
10, 396480, Note_off_c, 8, 38, 64
10, 396480, Note_on_c, 8, 36, 99
10, 396720, Note_off_c, 8, 36, 64
10, 396720, Note_on_c, 8, 43, 94
10, 396800, Note_off_c, 8, 43, 64
10, 396800, Note_on_c, 8, 42, 86
10, 396880, Note_off_c, 8, 42, 64
10, 396880, Note_on_c, 8, 41, 95
10, 396960, Note_off_c, 8, 41, 64
10, 396960, Note_on_c, 8, 40, 94
10, 397040, Note_off_c, 8, 40, 64
10, 397040, Note_on_c, 8, 38, 95
10, 397120, Note_off_c, 8, 38, 64
10, 397120, Note_on_c, 8, 36, 95
10, 397200, Note_off_c, 8, 36, 64
10, 397200, Note_on_c, 8, 43, 82
10, 397280, Note_off_c, 8, 43, 64
10, 397280, Note_on_c, 8, 42, 86
10, 397360, Note_off_c, 8, 42, 64
10, 397360, Note_on_c, 8, 41, 94
10, 397440, Note_off_c, 8, 41, 64
10, 397440, Note_on_c, 8, 40, 98
10, 397520, Note_off_c, 8, 40, 64
10, 397520, Note_on_c, 8, 38, 95
10, 397600, Note_off_c, 8, 38, 64
10, 397600, Note_on_c, 8, 36, 99
10, 397680, Note_off_c, 8, 36, 64
10, 397680, Note_on_c, 8, 45, 93
10, 397760, Note_off_c, 8, 45, 64
10, 397760, Note_on_c, 8, 44, 86
10, 397840, Note_off_c, 8, 44, 64
10, 397840, Note_on_c, 8, 43, 76
10, 397920, Note_off_c, 8, 43, 64
10, 397920, Note_on_c, 8, 41, 90
10, 398000, Note_off_c, 8, 41, 64
10, 398000, Note_on_c, 8, 40, 98
10, 398080, Note_off_c, 8, 40, 64
10, 398080, Note_on_c, 8, 38, 101
10, 398160, Note_off_c, 8, 38, 64
10, 398160, Note_on_c, 8, 45, 90
10, 398240, Note_off_c, 8, 45, 64
10, 398240, Note_on_c, 8, 44, 93
10, 398320, Note_off_c, 8, 44, 64
10, 398320, Note_on_c, 8, 43, 84
10, 398400, Note_off_c, 8, 43, 64
10, 398400, Note_on_c, 8, 41, 93
10, 398480, Note_off_c, 8, 41, 64
10, 398480, Note_on_c, 8, 40, 94
10, 398560, Note_off_c, 8, 40, 64
10, 398560, Note_on_c, 8, 38, 98
10, 398640, Note_off_c, 8, 38, 64
10, 398640, Note_on_c, 8, 48, 86
10, 398720, Note_off_c, 8, 48, 64
10, 398720, Note_on_c, 8, 47, 95
10, 398800, Note_off_c, 8, 47, 64
10, 398800, Note_on_c, 8, 46, 95
10, 398880, Note_off_c, 8, 46, 64
10, 398880, Note_on_c, 8, 45, 86
10, 398960, Note_off_c, 8, 45, 64
10, 398960, Note_on_c, 8, 43, 94
10, 399040, Note_off_c, 8, 43, 64
10, 399040, Note_on_c, 8, 41, 94
10, 399120, Note_off_c, 8, 41, 64
10, 399120, Note_on_c, 8, 48, 86
10, 399200, Note_off_c, 8, 48, 64
10, 399200, Note_on_c, 8, 47, 94
10, 399280, Note_off_c, 8, 47, 64
10, 399280, Note_on_c, 8, 46, 89
10, 399360, Note_off_c, 8, 46, 64
10, 399360, Note_on_c, 8, 45, 80
10, 399440, Note_off_c, 8, 45, 64
10, 399440, Note_on_c, 8, 43, 86
10, 399520, Note_off_c, 8, 43, 64
10, 399520, Note_on_c, 8, 41, 93
10, 399600, Note_off_c, 8, 41, 64
10, 399600, Note_on_c, 8, 48, 86
10, 399680, Note_off_c, 8, 48, 64
10, 399680, Note_on_c, 8, 47, 94
10, 399760, Note_off_c, 8, 47, 64
10, 399760, Note_on_c, 8, 46, 90
10, 399840, Note_off_c, 8, 46, 64
10, 399840, Note_on_c, 8, 45, 89
10, 399920, Note_off_c, 8, 45, 64
10, 399920, Note_on_c, 8, 43, 84
10, 400000, Note_off_c, 8, 43, 64
10, 400000, Note_on_c, 8, 41, 93
10, 400080, Note_off_c, 8, 41, 64
10, 400080, Note_on_c, 8, 48, 86
10, 400160, Note_off_c, 8, 48, 64
10, 400160, Note_on_c, 8, 47, 94
10, 400240, Note_off_c, 8, 47, 64
10, 400240, Note_on_c, 8, 46, 94
10, 400320, Note_off_c, 8, 46, 64
10, 400320, Note_on_c, 8, 45, 94
10, 400560, Note_off_c, 8, 45, 64
10, 400800, Note_on_c, 8, 62, 81
10, 400800, Note_on_c, 8, 60, 94
10, 400800, Note_on_c, 8, 54, 82
10, 401040, Note_off_c, 8, 54, 64
10, 401040, Note_off_c, 8, 60, 64
10, 401040, Note_off_c, 8, 62, 64
10, 401280, Note_on_c, 8, 64, 84
10, 401280, Note_on_c, 8, 60, 89
10, 401280, Note_on_c, 8, 55, 86
10, 401520, Note_off_c, 8, 55, 64
10, 401520, Note_off_c, 8, 60, 64
10, 401520, Note_off_c, 8, 64, 64
10, 401760, Note_on_c, 8, 65, 94
10, 401760, Note_on_c, 8, 59, 94
10, 401760, Note_on_c, 8, 55, 93
10, 402000, Note_off_c, 8, 55, 64
10, 402000, Note_off_c, 8, 59, 64
10, 402000, Note_off_c, 8, 65, 64
10, 402240, Note_on_c, 8, 60, 73
10, 402240, Note_on_c, 8, 48, 81
10, 402480, Note_off_c, 8, 48, 64
10, 402480, Note_off_c, 8, 60, 64
10, 404160, Note_on_c, 8, 60, 93
10, 404220, Note_off_c, 8, 60, 64
10, 404220, Note_on_c, 8, 59, 98
10, 404280, Note_off_c, 8, 59, 64
10, 404280, Note_on_c, 8, 60, 95
10, 404340, Note_off_c, 8, 60, 64
10, 404340, Note_on_c, 8, 59, 95
10, 404400, Note_off_c, 8, 59, 64
10, 404400, Note_on_c, 8, 60, 94
10, 404460, Note_off_c, 8, 60, 64
10, 404460, Note_on_c, 8, 64, 94
10, 404520, Note_off_c, 8, 64, 64
10, 404520, Note_on_c, 8, 62, 90
10, 404580, Note_off_c, 8, 62, 64
10, 404580, Note_on_c, 8, 60, 93
10, 404640, Note_off_c, 8, 60, 64
10, 404640, Note_on_c, 8, 59, 95
10, 404700, Note_off_c, 8, 59, 64
10, 404700, Note_on_c, 8, 62, 93
10, 404760, Note_off_c, 8, 62, 64
10, 404760, Note_on_c, 8, 60, 89
10, 404820, Note_off_c, 8, 60, 64
10, 404820, Note_on_c, 8, 59, 95
10, 404880, Note_off_c, 8, 59, 64
10, 404880, Note_on_c, 8, 57, 94
10, 404940, Note_off_c, 8, 57, 64
10, 404940, Note_on_c, 8, 60, 93
10, 405000, Note_off_c, 8, 60, 64
10, 405000, Note_on_c, 8, 59, 93
10, 405060, Note_off_c, 8, 59, 64
10, 405060, Note_on_c, 8, 57, 104
10, 405120, Note_off_c, 8, 57, 64
10, 405120, Note_on_c, 8, 55, 76
10, 405180, Note_off_c, 8, 55, 64
10, 405180, Note_on_c, 8, 59, 99
10, 405240, Note_off_c, 8, 59, 64
10, 405240, Note_on_c, 8, 57, 99
10, 405300, Note_off_c, 8, 57, 64
10, 405300, Note_on_c, 8, 55, 80
10, 405360, Note_off_c, 8, 55, 64
10, 405360, Note_on_c, 8, 53, 78
10, 405420, Note_off_c, 8, 53, 64
10, 405420, Note_on_c, 8, 57, 101
10, 405480, Note_off_c, 8, 57, 64
10, 405480, Note_on_c, 8, 55, 86
10, 405540, Note_off_c, 8, 55, 64
10, 405540, Note_on_c, 8, 53, 78
10, 405600, Note_off_c, 8, 53, 64
10, 405600, Note_on_c, 8, 52, 86
10, 405660, Note_off_c, 8, 52, 64
10, 405660, Note_on_c, 8, 55, 93
10, 405720, Note_off_c, 8, 55, 64
10, 405720, Note_on_c, 8, 53, 84
10, 405780, Note_off_c, 8, 53, 64
10, 405780, Note_on_c, 8, 52, 94
10, 405840, Note_off_c, 8, 52, 64
10, 405840, Note_on_c, 8, 50, 86
10, 405900, Note_off_c, 8, 50, 64
10, 405900, Note_on_c, 8, 53, 86
10, 405960, Note_off_c, 8, 53, 64
10, 405960, Note_on_c, 8, 52, 95
10, 406020, Note_off_c, 8, 52, 64
10, 406020, Note_on_c, 8, 50, 94
10, 406080, Note_off_c, 8, 50, 64
10, 406080, Note_on_c, 8, 48, 99
10, 406200, Note_off_c, 8, 48, 64
10, 406200, Note_on_c, 8, 76, 101
10, 406260, Note_off_c, 8, 76, 64
10, 406260, Note_on_c, 8, 75, 89
10, 406320, Note_off_c, 8, 75, 64
10, 406320, Note_on_c, 8, 76, 105
10, 406380, Note_off_c, 8, 76, 64
10, 406380, Note_on_c, 8, 79, 90
10, 406440, Note_off_c, 8, 79, 64
10, 406440, Note_on_c, 8, 77, 95
10, 406500, Note_off_c, 8, 77, 64
10, 406500, Note_on_c, 8, 76, 98
10, 406560, Note_off_c, 8, 76, 64
10, 406560, Note_on_c, 8, 74, 101
10, 406620, Note_off_c, 8, 74, 64
10, 406620, Note_on_c, 8, 77, 94
10, 406680, Note_off_c, 8, 77, 64
10, 406680, Note_on_c, 8, 76, 99
10, 406740, Note_off_c, 8, 76, 64
10, 406740, Note_on_c, 8, 74, 104
10, 406800, Note_off_c, 8, 74, 64
10, 406800, Note_on_c, 8, 72, 85
10, 406860, Note_off_c, 8, 72, 64
10, 406860, Note_on_c, 8, 76, 101
10, 406920, Note_off_c, 8, 76, 64
10, 406920, Note_on_c, 8, 74, 95
10, 406980, Note_off_c, 8, 74, 64
10, 406980, Note_on_c, 8, 72, 85
10, 407040, Note_off_c, 8, 72, 64
10, 407040, Note_on_c, 8, 71, 89
10, 407100, Note_off_c, 8, 71, 64
10, 407100, Note_on_c, 8, 74, 99
10, 407160, Note_off_c, 8, 74, 64
10, 407160, Note_on_c, 8, 72, 86
10, 407220, Note_off_c, 8, 72, 64
10, 407220, Note_on_c, 8, 71, 95
10, 407280, Note_off_c, 8, 71, 64
10, 407280, Note_on_c, 8, 69, 95
10, 407340, Note_off_c, 8, 69, 64
10, 407340, Note_on_c, 8, 72, 89
10, 407400, Note_off_c, 8, 72, 64
10, 407400, Note_on_c, 8, 71, 90
10, 407460, Note_off_c, 8, 71, 64
10, 407460, Note_on_c, 8, 69, 86
10, 407520, Note_off_c, 8, 69, 64
10, 407520, Note_on_c, 8, 67, 94
10, 407580, Note_off_c, 8, 67, 64
10, 407580, Note_on_c, 8, 71, 95
10, 407640, Note_off_c, 8, 71, 64
10, 407640, Note_on_c, 8, 69, 93
10, 407700, Note_off_c, 8, 69, 64
10, 407700, Note_on_c, 8, 67, 86
10, 407760, Note_off_c, 8, 67, 64
10, 407760, Note_on_c, 8, 65, 89
10, 407820, Note_off_c, 8, 65, 64
10, 407820, Note_on_c, 8, 69, 86
10, 407880, Note_off_c, 8, 69, 64
10, 407880, Note_on_c, 8, 67, 85
10, 407940, Note_off_c, 8, 67, 64
10, 407940, Note_on_c, 8, 65, 94
10, 408000, Note_off_c, 8, 65, 64
10, 408000, Note_on_c, 8, 64, 94
10, 408240, Note_off_c, 8, 64, 64
10, 408240, Note_on_c, 8, 67, 89
10, 408240, Note_on_c, 8, 62, 90
10, 408240, Note_on_c, 8, 59, 94
10, 408360, Note_off_c, 8, 59, 64
10, 408360, Note_off_c, 8, 62, 64
10, 408360, Note_off_c, 8, 67, 64
10, 408480, Note_on_c, 8, 67, 85
10, 408480, Note_on_c, 8, 64, 93
10, 408480, Note_on_c, 8, 60, 90
10, 408600, Note_off_c, 8, 60, 64
10, 408600, Note_off_c, 8, 64, 64
10, 408600, Note_off_c, 8, 67, 64
10, 408720, Note_on_c, 8, 67, 85
10, 408720, Note_on_c, 8, 62, 85
10, 408720, Note_on_c, 8, 59, 94
10, 408840, Note_off_c, 8, 59, 64
10, 408840, Note_off_c, 8, 62, 64
10, 408840, Note_off_c, 8, 67, 64
10, 408960, Note_on_c, 8, 67, 86
10, 408960, Note_on_c, 8, 64, 94
10, 408960, Note_on_c, 8, 60, 93
10, 409080, Note_off_c, 8, 60, 64
10, 409080, Note_off_c, 8, 64, 64
10, 409080, Note_off_c, 8, 67, 64
10, 409200, Note_on_c, 8, 69, 89
10, 409200, Note_on_c, 8, 64, 99
10, 409200, Note_on_c, 8, 61, 76
10, 409320, Note_off_c, 8, 61, 64
10, 409320, Note_off_c, 8, 64, 64
10, 409320, Note_off_c, 8, 69, 64
10, 409440, Note_on_c, 8, 69, 90
10, 409440, Note_on_c, 8, 65, 94
10, 409440, Note_on_c, 8, 62, 86
10, 409560, Note_off_c, 8, 62, 64
10, 409560, Note_off_c, 8, 65, 64
10, 409560, Note_off_c, 8, 69, 64
10, 409680, Note_on_c, 8, 69, 90
10, 409680, Note_on_c, 8, 64, 94
10, 409680, Note_on_c, 8, 60, 89
10, 409800, Note_off_c, 8, 60, 64
10, 409800, Note_off_c, 8, 64, 64
10, 409800, Note_off_c, 8, 69, 64
10, 409920, Note_on_c, 8, 69, 86
10, 409920, Note_on_c, 8, 65, 90
10, 409920, Note_on_c, 8, 62, 94
10, 410040, Note_off_c, 8, 62, 64
10, 410040, Note_off_c, 8, 65, 64
10, 410040, Note_off_c, 8, 69, 64
10, 410160, Note_on_c, 8, 72, 84
10, 410160, Note_on_c, 8, 67, 94
10, 410160, Note_on_c, 8, 64, 94
10, 410280, Note_off_c, 8, 64, 64
10, 410280, Note_off_c, 8, 67, 64
10, 410280, Note_off_c, 8, 72, 64
10, 410400, Note_on_c, 8, 72, 82
10, 410400, Note_on_c, 8, 69, 95
10, 410400, Note_on_c, 8, 65, 94
10, 410520, Note_off_c, 8, 65, 64
10, 410520, Note_off_c, 8, 69, 64
10, 410520, Note_off_c, 8, 72, 64
10, 410640, Note_on_c, 8, 72, 82
10, 410640, Note_on_c, 8, 67, 90
10, 410640, Note_on_c, 8, 64, 93
10, 410760, Note_off_c, 8, 64, 64
10, 410760, Note_off_c, 8, 67, 64
10, 410760, Note_off_c, 8, 72, 64
10, 410880, Note_on_c, 8, 72, 80
10, 410880, Note_on_c, 8, 69, 90
10, 410880, Note_on_c, 8, 65, 89
10, 411000, Note_off_c, 8, 65, 64
10, 411000, Note_off_c, 8, 69, 64
10, 411000, Note_off_c, 8, 72, 64
10, 411120, Note_on_c, 8, 72, 81
10, 411120, Note_on_c, 8, 67, 85
10, 411120, Note_on_c, 8, 64, 93
10, 411240, Note_off_c, 8, 64, 64
10, 411240, Note_off_c, 8, 67, 64
10, 411240, Note_off_c, 8, 72, 64
10, 411360, Note_on_c, 8, 72, 84
10, 411360, Note_on_c, 8, 69, 93
10, 411360, Note_on_c, 8, 65, 93
10, 411480, Note_off_c, 8, 65, 64
10, 411480, Note_off_c, 8, 69, 64
10, 411480, Note_off_c, 8, 72, 64
10, 411600, Note_on_c, 8, 72, 85
10, 411600, Note_on_c, 8, 67, 89
10, 411600, Note_on_c, 8, 64, 98
10, 411720, Note_off_c, 8, 64, 64
10, 411720, Note_off_c, 8, 67, 64
10, 411720, Note_off_c, 8, 72, 64
10, 411840, Note_on_c, 8, 72, 84
10, 411840, Note_on_c, 8, 69, 94
10, 411840, Note_on_c, 8, 65, 98
10, 412080, Note_off_c, 8, 65, 64
10, 412080, Note_off_c, 8, 69, 64
10, 412080, Note_off_c, 8, 72, 64
10, 413760, Note_on_c, 8, 54, 30
10, 413760, Note_on_c, 8, 63, 32
10, 414720, Note_off_c, 8, 63, 64
10, 414720, Note_off_c, 8, 54, 64
10, 414720, Note_on_c, 8, 55, 43
10, 414720, Note_on_c, 8, 63, 32
10, 415680, Note_off_c, 8, 63, 64
10, 415680, Note_off_c, 8, 55, 64
10, 415680, Note_on_c, 8, 56, 34
10, 415680, Note_on_c, 8, 63, 38
10, 416640, Note_off_c, 8, 63, 64
10, 416640, Note_off_c, 8, 56, 64
10, 416640, Note_on_c, 8, 61, 39
10, 416640, Note_on_c, 8, 49, 45
10, 417120, Note_off_c, 8, 49, 64
10, 417120, Note_off_c, 8, 61, 64
10, 417120, Note_on_c, 8, 53, 53
10, 417120, Note_on_c, 8, 60, 40
10, 417600, Note_off_c, 8, 60, 64
10, 417600, Note_off_c, 8, 53, 64
10, 417600, Note_on_c, 8, 58, 43
10, 417600, Note_on_c, 8, 46, 53
10, 418080, Note_off_c, 8, 46, 64
10, 418080, Note_off_c, 8, 58, 64
10, 418080, Note_on_c, 8, 49, 51
10, 418080, Note_on_c, 8, 56, 48
10, 418560, Note_off_c, 8, 56, 64
10, 418560, Note_off_c, 8, 49, 64
10, 418560, Note_on_c, 8, 54, 43
10, 418560, Note_on_c, 8, 42, 71
10, 418800, Note_off_c, 8, 42, 64
10, 418800, Note_off_c, 8, 54, 64
10, 418800, Note_on_c, 8, 54, 80
10, 418800, Note_on_c, 8, 47, 89
10, 419040, Note_off_c, 8, 47, 64
10, 419040, Note_off_c, 8, 54, 64
10, 419040, Note_on_c, 8, 52, 90
10, 419040, Note_on_c, 8, 40, 90
10, 419280, Note_off_c, 8, 40, 64
10, 419280, Note_off_c, 8, 52, 64
10, 419280, Note_on_c, 8, 45, 93
10, 419280, Note_on_c, 8, 52, 99
10, 419520, Note_off_c, 8, 52, 64
10, 419520, Note_off_c, 8, 45, 64
10, 419520, Note_on_c, 8, 50, 94
10, 419520, Note_on_c, 8, 38, 94
10, 419760, Note_off_c, 8, 38, 64
10, 419760, Note_off_c, 8, 50, 64
10, 419760, Note_on_c, 8, 50, 90
10, 419760, Note_on_c, 8, 43, 90
10, 420000, Note_off_c, 8, 43, 64
10, 420000, Note_off_c, 8, 50, 64
10, 420000, Note_on_c, 8, 48, 99
10, 420000, Note_on_c, 8, 36, 99
10, 420240, Note_off_c, 8, 36, 64
10, 420240, Note_off_c, 8, 48, 64
10, 420240, Note_on_c, 8, 41, 119
10, 420240, Note_on_c, 8, 29, 119
10, 420960, Note_off_c, 8, 29, 64
10, 420960, Note_off_c, 8, 41, 64
10, 420960, Note_on_c, 8, 30, 119
10, 420960, Note_on_c, 8, 42, 123
10, 421440, Note_off_c, 8, 42, 64
10, 421440, Note_off_c, 8, 30, 64
10, 421440, Note_on_c, 8, 43, 80
10, 421440, Note_on_c, 8, 31, 84
10, 421560, Note_off_c, 8, 31, 64
10, 421560, Note_off_c, 8, 43, 64
10, 421560, Note_on_c, 8, 31, 81
10, 421620, Note_off_c, 8, 31, 64
10, 421680, Note_on_c, 8, 33, 84
10, 421740, Note_off_c, 8, 33, 64
10, 421800, Note_on_c, 8, 35, 73
10, 421860, Note_off_c, 8, 35, 64
10, 421920, Note_on_c, 8, 36, 74
10, 421980, Note_off_c, 8, 36, 64
10, 422040, Note_on_c, 8, 38, 81
10, 422100, Note_off_c, 8, 38, 64
10, 422160, Note_on_c, 8, 40, 84
10, 422220, Note_off_c, 8, 40, 64
10, 422280, Note_on_c, 8, 41, 80
10, 422340, Note_off_c, 8, 41, 64
10, 422400, Note_on_c, 8, 43, 84
10, 422460, Note_off_c, 8, 43, 64
10, 422520, Note_on_c, 8, 36, 94
10, 422580, Note_off_c, 8, 36, 64
10, 422640, Note_on_c, 8, 38, 89
10, 422700, Note_off_c, 8, 38, 64
10, 422760, Note_on_c, 8, 40, 89
10, 422820, Note_off_c, 8, 40, 64
10, 422880, Note_on_c, 8, 41, 89
10, 422940, Note_off_c, 8, 41, 64
10, 423000, Note_on_c, 8, 43, 85
10, 423060, Note_off_c, 8, 43, 64
10, 423120, Note_on_c, 8, 45, 90
10, 423180, Note_off_c, 8, 45, 64
10, 423240, Note_on_c, 8, 47, 94
10, 423300, Note_off_c, 8, 47, 64
10, 423360, Note_on_c, 8, 48, 93
10, 423600, Note_off_c, 8, 48, 64
10, 427200, Note_on_c, 8, 31, 77
10, 427260, Note_off_c, 8, 31, 64
10, 427260, Note_on_c, 8, 33, 94
10, 427320, Note_off_c, 8, 33, 64
10, 427320, Note_on_c, 8, 35, 84
10, 427380, Note_off_c, 8, 35, 64
10, 427380, Note_on_c, 8, 36, 95
10, 427440, Note_off_c, 8, 36, 64
10, 427440, Note_on_c, 8, 38, 90
10, 427500, Note_off_c, 8, 38, 64
10, 427500, Note_on_c, 8, 40, 80
10, 427560, Note_off_c, 8, 40, 64
10, 427560, Note_on_c, 8, 41, 84
10, 427620, Note_off_c, 8, 41, 64
10, 427620, Note_on_c, 8, 42, 81
10, 427680, Note_off_c, 8, 42, 64
10, 427680, Note_on_c, 8, 43, 80
10, 427740, Note_off_c, 8, 43, 64
10, 427740, Note_on_c, 8, 45, 99
10, 427800, Note_off_c, 8, 45, 64
10, 427800, Note_on_c, 8, 47, 94
10, 427860, Note_off_c, 8, 47, 64
10, 427860, Note_on_c, 8, 48, 82
10, 427920, Note_off_c, 8, 48, 64
10, 427920, Note_on_c, 8, 50, 80
10, 427980, Note_off_c, 8, 50, 64
10, 427980, Note_on_c, 8, 52, 86
10, 428040, Note_off_c, 8, 52, 64
10, 428040, Note_on_c, 8, 53, 85
10, 428100, Note_off_c, 8, 53, 64
10, 428100, Note_on_c, 8, 54, 86
10, 428160, Note_off_c, 8, 54, 64
10, 428160, Note_on_c, 8, 55, 73
10, 428220, Note_off_c, 8, 55, 64
10, 428220, Note_on_c, 8, 57, 99
10, 428280, Note_off_c, 8, 57, 64
10, 428280, Note_on_c, 8, 59, 86
10, 428340, Note_off_c, 8, 59, 64
10, 428340, Note_on_c, 8, 60, 90
10, 428400, Note_off_c, 8, 60, 64
10, 428400, Note_on_c, 8, 62, 80
10, 428460, Note_off_c, 8, 62, 64
10, 428460, Note_on_c, 8, 64, 84
10, 428520, Note_off_c, 8, 64, 64
10, 428520, Note_on_c, 8, 65, 94
10, 428580, Note_off_c, 8, 65, 64
10, 428580, Note_on_c, 8, 66, 89
10, 428640, Note_off_c, 8, 66, 64
10, 428640, Note_on_c, 8, 67, 84
10, 428700, Note_off_c, 8, 67, 64
10, 428700, Note_on_c, 8, 69, 93
10, 428760, Note_off_c, 8, 69, 64
10, 428760, Note_on_c, 8, 71, 86
10, 428820, Note_off_c, 8, 71, 64
10, 428820, Note_on_c, 8, 72, 82
10, 428880, Note_off_c, 8, 72, 64
10, 428880, Note_on_c, 8, 74, 80
10, 428940, Note_off_c, 8, 74, 64
10, 428940, Note_on_c, 8, 76, 93
10, 429000, Note_off_c, 8, 76, 64
10, 429000, Note_on_c, 8, 77, 86
10, 429060, Note_off_c, 8, 77, 64
10, 429060, Note_on_c, 8, 78, 82
10, 429120, Note_off_c, 8, 78, 64
10, 429120, Note_on_c, 8, 79, 84
10, 429180, Note_off_c, 8, 79, 64
10, 429180, Note_on_c, 8, 78, 73
10, 429240, Note_off_c, 8, 78, 64
10, 429240, Note_on_c, 8, 79, 89
10, 429300, Note_off_c, 8, 79, 64
10, 429300, Note_on_c, 8, 78, 77
10, 429360, Note_off_c, 8, 78, 64
10, 429360, Note_on_c, 8, 79, 90
10, 429420, Note_off_c, 8, 79, 64
10, 429420, Note_on_c, 8, 78, 86
10, 429480, Note_off_c, 8, 78, 64
10, 429480, Note_on_c, 8, 79, 99
10, 429540, Note_off_c, 8, 79, 64
10, 429540, Note_on_c, 8, 78, 93
10, 429600, Note_off_c, 8, 78, 64
10, 429600, Note_on_c, 8, 79, 95
10, 429660, Note_off_c, 8, 79, 64
10, 429660, Note_on_c, 8, 78, 99
10, 429720, Note_off_c, 8, 78, 64
10, 429720, Note_on_c, 8, 79, 99
10, 429780, Note_off_c, 8, 79, 64
10, 429780, Note_on_c, 8, 78, 98
10, 429840, Note_off_c, 8, 78, 64
10, 429840, Note_on_c, 8, 79, 99
10, 429900, Note_off_c, 8, 79, 64
10, 429900, Note_on_c, 8, 78, 90
10, 429960, Note_off_c, 8, 78, 64
10, 429960, Note_on_c, 8, 79, 101
10, 430020, Note_off_c, 8, 79, 64
10, 430020, Note_on_c, 8, 78, 90
10, 430080, Note_off_c, 8, 78, 64
10, 430080, Control_c, 8, 7, 111
10, 430080, Control_c, 8, 10, 64
10, 430080, Control_c, 8, 93, 0
10, 430080, Control_c, 8, 91, 66
10, 430080, Note_on_c, 8, 79, 101
10, 430140, Note_off_c, 8, 79, 64
10, 430140, Note_on_c, 8, 78, 94
10, 430200, Note_off_c, 8, 78, 64
10, 430200, Note_on_c, 8, 79, 99
10, 430260, Note_off_c, 8, 79, 64
10, 430260, Note_on_c, 8, 78, 94
10, 430320, Note_off_c, 8, 78, 64
10, 430320, Note_on_c, 8, 79, 99
10, 430380, Note_off_c, 8, 79, 64
10, 430380, Note_on_c, 8, 78, 86
10, 430440, Note_off_c, 8, 78, 64
10, 430440, Note_on_c, 8, 79, 99
10, 430500, Note_off_c, 8, 79, 64
10, 430500, Note_on_c, 8, 78, 93
10, 430560, Note_off_c, 8, 78, 64
10, 430560, Note_on_c, 8, 79, 99
10, 430620, Note_off_c, 8, 79, 64
10, 430620, Note_on_c, 8, 78, 94
10, 430680, Note_off_c, 8, 78, 64
10, 430680, Note_on_c, 8, 79, 99
10, 430740, Note_off_c, 8, 79, 64
10, 430740, Note_on_c, 8, 78, 89
10, 430800, Note_off_c, 8, 78, 64
10, 430800, Note_on_c, 8, 79, 99
10, 430860, Note_off_c, 8, 79, 64
10, 430860, Note_on_c, 8, 78, 84
10, 430920, Note_off_c, 8, 78, 64
10, 430920, Note_on_c, 8, 79, 99
10, 430980, Note_off_c, 8, 79, 64
10, 430980, Note_on_c, 8, 78, 94
10, 431040, Note_off_c, 8, 78, 64
10, 431040, Control_c, 8, 7, 90
10, 431040, Control_c, 8, 10, 64
10, 431040, Control_c, 8, 93, 0
10, 431040, Control_c, 8, 91, 66
10, 431040, Note_on_c, 8, 77, 107
10, 431070, Note_off_c, 8, 77, 64
10, 431070, Note_on_c, 8, 79, 112
10, 431100, Note_off_c, 8, 79, 64
10, 431100, Note_on_c, 8, 77, 105
10, 431130, Note_off_c, 8, 77, 64
10, 431130, Note_on_c, 8, 79, 110
10, 431160, Note_off_c, 8, 79, 64
10, 431160, Note_on_c, 8, 77, 107
10, 431190, Note_off_c, 8, 77, 64
10, 431190, Note_on_c, 8, 79, 107
10, 431220, Note_off_c, 8, 79, 64
10, 431220, Note_on_c, 8, 77, 105
10, 431250, Note_off_c, 8, 77, 64
10, 431250, Note_on_c, 8, 79, 105
10, 431280, Note_off_c, 8, 79, 64
10, 431280, Note_on_c, 8, 77, 104
10, 431310, Note_off_c, 8, 77, 64
10, 431310, Note_on_c, 8, 79, 105
10, 431340, Note_off_c, 8, 79, 64
10, 431340, Note_on_c, 8, 77, 104
10, 431370, Note_off_c, 8, 77, 64
10, 431370, Note_on_c, 8, 79, 105
10, 431400, Note_off_c, 8, 79, 64
10, 431400, Note_on_c, 8, 77, 105
10, 431430, Note_off_c, 8, 77, 64
10, 431430, Note_on_c, 8, 79, 105
10, 431460, Note_off_c, 8, 79, 64
10, 431460, Note_on_c, 8, 77, 105
10, 431490, Note_off_c, 8, 77, 64
10, 431490, Note_on_c, 8, 79, 110
10, 431520, Note_off_c, 8, 79, 64
10, 431520, Note_on_c, 8, 77, 110
10, 431550, Note_off_c, 8, 77, 64
10, 431550, Note_on_c, 8, 79, 119
10, 431580, Note_off_c, 8, 79, 64
10, 431580, Note_on_c, 8, 77, 112
10, 431610, Note_off_c, 8, 77, 64
10, 431610, Note_on_c, 8, 79, 112
10, 431640, Note_off_c, 8, 79, 64
10, 431640, Note_on_c, 8, 77, 110
10, 431670, Note_off_c, 8, 77, 64
10, 431670, Note_on_c, 8, 79, 112
10, 431700, Note_off_c, 8, 79, 64
10, 431700, Note_on_c, 8, 77, 112
10, 431730, Note_off_c, 8, 77, 64
10, 431730, Note_on_c, 8, 79, 117
10, 431760, Note_off_c, 8, 79, 64
10, 431760, Note_on_c, 8, 77, 107
10, 431790, Note_off_c, 8, 77, 64
10, 431790, Note_on_c, 8, 79, 112
10, 431820, Note_off_c, 8, 79, 64
10, 431820, Note_on_c, 8, 77, 107
10, 431850, Note_off_c, 8, 77, 64
10, 431850, Note_on_c, 8, 79, 110
10, 431880, Note_off_c, 8, 79, 64
10, 431880, Note_on_c, 8, 77, 105
10, 431910, Note_off_c, 8, 77, 64
10, 431910, Note_on_c, 8, 79, 107
10, 431940, Note_off_c, 8, 79, 64
10, 431940, Note_on_c, 8, 77, 110
10, 431970, Note_off_c, 8, 77, 64
10, 431970, Note_on_c, 8, 79, 115
10, 432000, Note_off_c, 8, 79, 64
10, 432000, Note_on_c, 8, 77, 107
10, 432000, Note_on_c, 8, 67, 117
10, 432030, Note_off_c, 8, 77, 64
10, 432030, Note_on_c, 8, 79, 119
10, 432060, Note_off_c, 8, 79, 64
10, 432060, Note_on_c, 8, 77, 112
10, 432090, Note_off_c, 8, 77, 64
10, 432090, Note_on_c, 8, 79, 117
10, 432120, Note_off_c, 8, 79, 64
10, 432120, Note_on_c, 8, 77, 112
10, 432150, Note_off_c, 8, 77, 64
10, 432150, Note_on_c, 8, 79, 112
10, 432180, Note_off_c, 8, 79, 64
10, 432180, Note_on_c, 8, 77, 107
10, 432210, Note_off_c, 8, 77, 64
10, 432210, Note_on_c, 8, 79, 112
10, 432240, Note_off_c, 8, 79, 64
10, 432240, Note_on_c, 8, 77, 107
10, 432270, Note_off_c, 8, 77, 64
10, 432270, Note_on_c, 8, 79, 105
10, 432300, Note_off_c, 8, 79, 64
10, 432300, Note_on_c, 8, 77, 110
10, 432330, Note_off_c, 8, 77, 64
10, 432330, Note_on_c, 8, 79, 112
10, 432360, Note_off_c, 8, 79, 64
10, 432360, Note_on_c, 8, 77, 107
10, 432390, Note_off_c, 8, 77, 64
10, 432390, Note_on_c, 8, 79, 107
10, 432420, Note_off_c, 8, 79, 64
10, 432420, Note_on_c, 8, 77, 105
10, 432450, Note_off_c, 8, 77, 64
10, 432450, Note_on_c, 8, 79, 110
10, 432480, Note_off_c, 8, 79, 64
10, 432480, Note_on_c, 8, 77, 107
10, 432510, Note_off_c, 8, 77, 64
10, 432510, Note_on_c, 8, 79, 110
10, 432540, Note_off_c, 8, 79, 64
10, 432540, Note_on_c, 8, 77, 110
10, 432570, Note_off_c, 8, 77, 64
10, 432570, Note_on_c, 8, 79, 112
10, 432600, Note_off_c, 8, 79, 64
10, 432600, Note_on_c, 8, 77, 105
10, 432630, Note_off_c, 8, 77, 64
10, 432630, Note_on_c, 8, 79, 110
10, 432660, Note_off_c, 8, 79, 64
10, 432660, Note_on_c, 8, 77, 105
10, 432690, Note_off_c, 8, 77, 64
10, 432690, Note_on_c, 8, 79, 115
10, 432720, Note_off_c, 8, 79, 64
10, 432780, Note_on_c, 8, 76, 110
10, 432840, Note_off_c, 8, 76, 64
10, 432840, Note_on_c, 8, 79, 112
10, 432900, Note_off_c, 8, 79, 64
10, 432900, Note_on_c, 8, 77, 105
10, 432960, Note_off_c, 8, 77, 64
10, 432960, Note_off_c, 8, 67, 64
10, 432960, Note_on_c, 8, 76, 119
10, 432960, Note_on_c, 8, 72, 112
10, 433200, Note_off_c, 8, 72, 64
10, 433200, Note_off_c, 8, 76, 64
10, 445440, Control_c, 8, 7, 120
10, 445440, Control_c, 8, 10, 64
10, 445440, Control_c, 8, 93, 0
10, 445440, Control_c, 8, 91, 66
10, 445920, Note_on_c, 8, 64, 110
10, 445920, Note_on_c, 8, 64, 67
10, 445920, Note_on_c, 8, 60, 112
10, 445920, Note_on_c, 8, 60, 76
10, 446400, Note_off_c, 8, 60, 64
10, 446400, Note_off_c, 8, 60, 64
10, 446400, Note_off_c, 8, 64, 64
10, 446400, Note_off_c, 8, 64, 64
10, 446400, Note_on_c, 8, 76, 105
10, 446400, Note_on_c, 8, 76, 73
10, 446400, Note_on_c, 8, 72, 110
10, 446400, Note_on_c, 8, 72, 69
10, 446640, Note_off_c, 8, 72, 64
10, 446640, Note_off_c, 8, 72, 64
10, 446640, Note_off_c, 8, 76, 64
10, 446640, Note_off_c, 8, 76, 64
10, 446640, Note_on_c, 8, 76, 110
10, 446640, Note_on_c, 8, 76, 73
10, 446640, Note_on_c, 8, 72, 112
10, 446640, Note_on_c, 8, 72, 68
10, 446880, Note_off_c, 8, 72, 64
10, 446880, Note_off_c, 8, 72, 64
10, 446880, Note_off_c, 8, 76, 64
10, 446880, Note_off_c, 8, 76, 64
10, 446880, Note_on_c, 8, 76, 112
10, 446880, Note_on_c, 8, 76, 73
10, 446880, Note_on_c, 8, 72, 105
10, 446880, Note_on_c, 8, 72, 69
10, 447120, Note_off_c, 8, 72, 64
10, 447120, Note_off_c, 8, 72, 64
10, 447120, Note_off_c, 8, 76, 64
10, 447120, Note_off_c, 8, 76, 64
10, 447840, Note_on_c, 8, 65, 105
10, 447840, Note_on_c, 8, 65, 82
10, 447840, Note_on_c, 8, 62, 84
10, 447840, Note_on_c, 8, 62, 77
10, 448320, Note_off_c, 8, 62, 64
10, 448320, Note_off_c, 8, 62, 64
10, 448320, Note_off_c, 8, 65, 64
10, 448320, Note_off_c, 8, 65, 64
10, 448320, Note_on_c, 8, 77, 99
10, 448320, Note_on_c, 8, 77, 81
10, 448320, Note_on_c, 8, 74, 93
10, 448320, Note_on_c, 8, 74, 84
10, 448560, Note_off_c, 8, 74, 64
10, 448560, Note_off_c, 8, 74, 64
10, 448560, Note_off_c, 8, 77, 64
10, 448560, Note_off_c, 8, 77, 64
10, 448560, Note_on_c, 8, 77, 95
10, 448560, Note_on_c, 8, 77, 80
10, 448560, Note_on_c, 8, 74, 94
10, 448560, Note_on_c, 8, 74, 74
10, 448800, Note_off_c, 8, 74, 64
10, 448800, Note_off_c, 8, 74, 64
10, 448800, Note_off_c, 8, 77, 64
10, 448800, Note_off_c, 8, 77, 64
10, 448800, Note_on_c, 8, 77, 94
10, 448800, Note_on_c, 8, 77, 80
10, 448800, Note_on_c, 8, 74, 89
10, 448800, Note_on_c, 8, 74, 84
10, 449040, Note_off_c, 8, 74, 64
10, 449040, Note_off_c, 8, 74, 64
10, 449040, Note_off_c, 8, 77, 64
10, 449040, Note_off_c, 8, 77, 64
10, 449820, Note_on_c, 8, 52, 93
10, 449880, Note_off_c, 8, 52, 64
10, 449880, Note_on_c, 8, 53, 89
10, 449940, Note_off_c, 8, 53, 64
10, 449940, Note_on_c, 8, 55, 93
10, 450000, Note_off_c, 8, 55, 64
10, 450000, Note_on_c, 8, 57, 95
10, 450060, Note_off_c, 8, 57, 64
10, 450060, Note_on_c, 8, 59, 94
10, 450120, Note_off_c, 8, 59, 64
10, 450120, Note_on_c, 8, 60, 89
10, 450180, Note_off_c, 8, 60, 64
10, 450180, Note_on_c, 8, 62, 86
10, 450240, Note_off_c, 8, 62, 64
10, 450240, Note_on_c, 8, 64, 95
10, 450300, Note_off_c, 8, 64, 64
10, 450300, Note_on_c, 8, 62, 90
10, 450360, Note_off_c, 8, 62, 64
10, 450360, Note_on_c, 8, 60, 89
10, 450420, Note_off_c, 8, 60, 64
10, 450420, Note_on_c, 8, 59, 94
10, 450480, Note_off_c, 8, 59, 64
10, 450480, Note_on_c, 8, 57, 94
10, 450540, Note_off_c, 8, 57, 64
10, 450540, Note_on_c, 8, 55, 84
10, 450600, Note_off_c, 8, 55, 64
10, 450600, Note_on_c, 8, 53, 86
10, 450660, Note_off_c, 8, 53, 64
10, 450660, Note_on_c, 8, 52, 90
10, 450720, Note_off_c, 8, 52, 64
10, 450780, Note_on_c, 8, 53, 80
10, 450840, Note_off_c, 8, 53, 64
10, 450840, Note_on_c, 8, 55, 94
10, 450900, Note_off_c, 8, 55, 64
10, 450900, Note_on_c, 8, 57, 101
10, 450960, Note_off_c, 8, 57, 64
10, 450960, Note_on_c, 8, 59, 84
10, 451020, Note_off_c, 8, 59, 64
10, 451020, Note_on_c, 8, 60, 93
10, 451080, Note_off_c, 8, 60, 64
10, 451080, Note_on_c, 8, 62, 90
10, 451140, Note_off_c, 8, 62, 64
10, 451140, Note_on_c, 8, 64, 90
10, 451200, Note_off_c, 8, 64, 64
10, 451200, Note_on_c, 8, 65, 95
10, 451260, Note_off_c, 8, 65, 64
10, 451260, Note_on_c, 8, 64, 94
10, 451320, Note_off_c, 8, 64, 64
10, 451320, Note_on_c, 8, 62, 84
10, 451380, Note_off_c, 8, 62, 64
10, 451380, Note_on_c, 8, 60, 77
10, 451440, Note_off_c, 8, 60, 64
10, 451440, Note_on_c, 8, 59, 89
10, 451500, Note_off_c, 8, 59, 64
10, 451500, Note_on_c, 8, 57, 95
10, 451560, Note_off_c, 8, 57, 64
10, 451560, Note_on_c, 8, 55, 84
10, 451620, Note_off_c, 8, 55, 64
10, 451620, Note_on_c, 8, 53, 81
10, 451680, Note_off_c, 8, 53, 64
10, 451680, Note_on_c, 8, 53, 86
10, 451800, Note_off_c, 8, 53, 64
10, 451800, Note_on_c, 8, 57, 104
10, 451920, Note_off_c, 8, 57, 64
10, 451920, Note_on_c, 8, 62, 82
10, 452040, Note_off_c, 8, 62, 64
10, 452040, Note_on_c, 8, 57, 99
10, 452160, Note_off_c, 8, 57, 64
10, 452160, Note_on_c, 8, 53, 86
10, 452280, Note_off_c, 8, 53, 64
10, 452280, Note_on_c, 8, 57, 105
10, 452400, Note_off_c, 8, 57, 64
10, 452400, Note_on_c, 8, 62, 84
10, 452520, Note_off_c, 8, 62, 64
10, 452520, Note_on_c, 8, 57, 104
10, 452640, Note_off_c, 8, 57, 64
10, 452640, Note_on_c, 8, 53, 86
10, 452760, Note_off_c, 8, 53, 64
10, 452760, Note_on_c, 8, 57, 104
10, 452880, Note_off_c, 8, 57, 64
10, 452880, Note_on_c, 8, 62, 82
10, 453000, Note_off_c, 8, 62, 64
10, 453000, Note_on_c, 8, 57, 104
10, 453120, Note_off_c, 8, 57, 64
10, 453120, Note_on_c, 8, 53, 89
10, 453240, Note_off_c, 8, 53, 64
10, 453240, Note_on_c, 8, 57, 104
10, 453360, Note_off_c, 8, 57, 64
10, 453360, Note_on_c, 8, 62, 81
10, 453480, Note_off_c, 8, 62, 64
10, 453480, Note_on_c, 8, 57, 104
10, 453600, Note_off_c, 8, 57, 64
10, 453600, Note_on_c, 8, 52, 95
10, 453720, Note_off_c, 8, 52, 64
10, 453720, Note_on_c, 8, 55, 93
10, 453840, Note_off_c, 8, 55, 64
10, 453840, Note_on_c, 8, 60, 86
10, 453960, Note_off_c, 8, 60, 64
10, 453960, Note_on_c, 8, 55, 90
10, 454080, Note_off_c, 8, 55, 64
10, 454080, Note_on_c, 8, 52, 95
10, 454200, Note_off_c, 8, 52, 64
10, 454200, Note_on_c, 8, 55, 93
10, 454320, Note_off_c, 8, 55, 64
10, 454320, Note_on_c, 8, 60, 85
10, 454440, Note_off_c, 8, 60, 64
10, 454440, Note_on_c, 8, 55, 93
10, 454560, Note_off_c, 8, 55, 64
10, 454560, Note_on_c, 8, 52, 99
10, 454680, Note_off_c, 8, 52, 64
10, 454680, Note_on_c, 8, 55, 93
10, 454800, Note_off_c, 8, 55, 64
10, 454800, Note_on_c, 8, 60, 86
10, 454920, Note_off_c, 8, 60, 64
10, 454920, Note_on_c, 8, 55, 90
10, 455040, Note_off_c, 8, 55, 64
10, 455040, Note_on_c, 8, 52, 95
10, 455160, Note_off_c, 8, 52, 64
10, 455160, Note_on_c, 8, 55, 90
10, 455280, Note_off_c, 8, 55, 64
10, 455280, Note_on_c, 8, 60, 82
10, 455400, Note_off_c, 8, 60, 64
10, 455400, Note_on_c, 8, 55, 94
10, 455520, Note_off_c, 8, 55, 64
10, 455520, Note_on_c, 8, 43, 90
10, 455580, Note_off_c, 8, 43, 64
10, 455580, Note_on_c, 8, 45, 94
10, 455640, Note_off_c, 8, 45, 64
10, 455640, Note_on_c, 8, 47, 93
10, 455700, Note_off_c, 8, 47, 64
10, 455700, Note_on_c, 8, 48, 99
10, 455760, Note_off_c, 8, 48, 64
10, 455760, Note_on_c, 8, 50, 94
10, 455820, Note_off_c, 8, 50, 64
10, 455820, Note_on_c, 8, 52, 99
10, 455880, Note_off_c, 8, 52, 64
10, 455880, Note_on_c, 8, 53, 76
10, 455940, Note_off_c, 8, 53, 64
10, 455940, Note_on_c, 8, 54, 86
10, 456000, Note_off_c, 8, 54, 64
10, 456000, Note_on_c, 8, 55, 89
10, 456060, Note_off_c, 8, 55, 64
10, 456060, Note_on_c, 8, 57, 95
10, 456120, Note_off_c, 8, 57, 64
10, 456120, Note_on_c, 8, 59, 99
10, 456180, Note_off_c, 8, 59, 64
10, 456180, Note_on_c, 8, 60, 98
10, 456240, Note_off_c, 8, 60, 64
10, 456240, Note_on_c, 8, 62, 89
10, 456300, Note_off_c, 8, 62, 64
10, 456300, Note_on_c, 8, 64, 94
10, 456360, Note_off_c, 8, 64, 64
10, 456360, Note_on_c, 8, 65, 90
10, 456420, Note_off_c, 8, 65, 64
10, 456420, Note_on_c, 8, 66, 89
10, 456480, Note_off_c, 8, 66, 64
10, 456480, Note_on_c, 8, 67, 90
10, 456720, Note_off_c, 8, 67, 64
10, 456720, Note_on_c, 8, 69, 89
10, 456720, Note_on_c, 8, 65, 81
10, 456960, Note_off_c, 8, 65, 64
10, 456960, Note_off_c, 8, 69, 64
10, 456960, Note_on_c, 8, 67, 90
10, 456960, Note_on_c, 8, 64, 77
10, 457200, Note_off_c, 8, 64, 64
10, 457200, Note_off_c, 8, 67, 64
10, 457200, Note_on_c, 8, 65, 95
10, 457200, Note_on_c, 8, 62, 73
10, 457440, Note_off_c, 8, 62, 64
10, 457440, Note_off_c, 8, 65, 64
10, 457440, Note_on_c, 8, 43, 94
10, 457500, Note_off_c, 8, 43, 64
10, 457500, Note_on_c, 8, 45, 89
10, 457560, Note_off_c, 8, 45, 64
10, 457560, Note_on_c, 8, 47, 90
10, 457620, Note_off_c, 8, 47, 64
10, 457620, Note_on_c, 8, 48, 95
10, 457680, Note_off_c, 8, 48, 64
10, 457680, Note_on_c, 8, 50, 90
10, 457740, Note_off_c, 8, 50, 64
10, 457740, Note_on_c, 8, 52, 99
10, 457800, Note_off_c, 8, 52, 64
10, 457800, Note_on_c, 8, 53, 94
10, 457860, Note_off_c, 8, 53, 64
10, 457860, Note_on_c, 8, 54, 86
10, 457920, Note_off_c, 8, 54, 64
10, 457920, Note_on_c, 8, 55, 94
10, 457980, Note_off_c, 8, 55, 64
10, 457980, Note_on_c, 8, 57, 95
10, 458040, Note_off_c, 8, 57, 64
10, 458040, Note_on_c, 8, 59, 95
10, 458100, Note_off_c, 8, 59, 64
10, 458100, Note_on_c, 8, 60, 89
10, 458160, Note_off_c, 8, 60, 64
10, 458160, Note_on_c, 8, 62, 82
10, 458220, Note_off_c, 8, 62, 64
10, 458220, Note_on_c, 8, 64, 94
10, 458280, Note_off_c, 8, 64, 64
10, 458280, Note_on_c, 8, 65, 98
10, 458340, Note_off_c, 8, 65, 64
10, 458340, Note_on_c, 8, 66, 93
10, 458400, Note_off_c, 8, 66, 64
10, 458400, Note_on_c, 8, 67, 99
10, 458640, Note_off_c, 8, 67, 64
10, 458640, Note_on_c, 8, 77, 84
10, 458640, Note_on_c, 8, 74, 89
10, 458880, Note_off_c, 8, 74, 64
10, 458880, Note_off_c, 8, 77, 64
10, 458880, Note_on_c, 8, 79, 80
10, 458880, Note_on_c, 8, 75, 89
10, 459120, Note_off_c, 8, 75, 64
10, 459120, Note_off_c, 8, 79, 64
10, 459120, Note_on_c, 8, 77, 89
10, 459120, Note_on_c, 8, 74, 84
10, 459360, Note_off_c, 8, 74, 64
10, 459360, Note_off_c, 8, 77, 64
10, 459360, Note_on_c, 8, 75, 89
10, 459360, Note_on_c, 8, 72, 78
10, 459600, Note_off_c, 8, 72, 64
10, 459600, Note_off_c, 8, 75, 64
10, 459600, Note_on_c, 8, 74, 84
10, 459600, Note_on_c, 8, 70, 89
10, 459840, Note_off_c, 8, 70, 64
10, 459840, Note_off_c, 8, 74, 64
10, 459840, Note_on_c, 8, 72, 78
10, 459840, Note_on_c, 8, 68, 73
10, 460080, Note_off_c, 8, 68, 64
10, 460080, Note_off_c, 8, 72, 64
10, 460080, Note_on_c, 8, 70, 80
10, 460080, Note_on_c, 8, 67, 89
10, 460320, Note_off_c, 8, 67, 64
10, 460320, Note_off_c, 8, 70, 64
10, 460320, Note_on_c, 8, 68, 84
10, 460320, Note_on_c, 8, 65, 82
10, 460560, Note_off_c, 8, 65, 64
10, 460560, Note_off_c, 8, 68, 64
10, 460560, Note_on_c, 8, 67, 80
10, 460560, Note_on_c, 8, 63, 84
10, 460800, Note_off_c, 8, 63, 64
10, 460800, Note_off_c, 8, 67, 64
10, 460800, Note_on_c, 8, 65, 86
10, 460800, Note_on_c, 8, 62, 81
10, 461040, Note_off_c, 8, 62, 64
10, 461040, Note_off_c, 8, 65, 64
10, 461040, Note_on_c, 8, 58, 77
10, 461040, Note_on_c, 8, 62, 99
10, 461040, Note_on_c, 8, 65, 94
10, 461040, Note_on_c, 8, 68, 64
10, 462000, Note_off_c, 8, 68, 64
10, 462000, Note_off_c, 8, 65, 64
10, 462000, Note_off_c, 8, 62, 64
10, 462000, Note_off_c, 8, 58, 64
10, 462240, Note_on_c, 8, 55, 84
10, 462240, Note_on_c, 8, 51, 70
10, 462360, Note_off_c, 8, 51, 64
10, 462360, Note_off_c, 8, 55, 64
10, 462360, Note_on_c, 8, 58, 76
10, 462480, Note_off_c, 8, 58, 64
10, 462480, Note_on_c, 8, 55, 94
10, 462480, Note_on_c, 8, 51, 81
10, 462600, Note_off_c, 8, 51, 64
10, 462600, Note_off_c, 8, 55, 64
10, 462600, Note_on_c, 8, 58, 74
10, 462720, Note_off_c, 8, 58, 64
10, 462720, Note_on_c, 8, 51, 89
10, 462840, Note_off_c, 8, 51, 64
10, 462840, Note_on_c, 8, 58, 76
10, 462960, Note_off_c, 8, 58, 64
10, 462960, Note_on_c, 8, 50, 99
10, 463080, Note_off_c, 8, 50, 64
10, 463080, Note_on_c, 8, 58, 73
10, 463200, Note_off_c, 8, 58, 64
10, 463200, Note_on_c, 8, 51, 89
10, 463320, Note_off_c, 8, 51, 64
10, 463320, Note_on_c, 8, 58, 72
10, 463440, Note_off_c, 8, 58, 64
10, 463440, Note_on_c, 8, 51, 86
10, 463560, Note_off_c, 8, 51, 64
10, 463560, Note_on_c, 8, 58, 78
10, 463680, Note_off_c, 8, 58, 64
10, 463680, Note_on_c, 8, 51, 89
10, 463800, Note_off_c, 8, 51, 64
10, 463800, Note_on_c, 8, 62, 73
10, 463920, Note_off_c, 8, 62, 64
10, 463920, Note_on_c, 8, 63, 94
10, 464040, Note_off_c, 8, 63, 64
10, 464040, Note_on_c, 8, 65, 94
10, 464160, Note_off_c, 8, 65, 64
10, 464160, Note_on_c, 8, 67, 73
10, 464280, Note_off_c, 8, 67, 64
10, 464280, Note_on_c, 8, 58, 86
10, 464400, Note_off_c, 8, 58, 64
10, 464400, Note_on_c, 8, 67, 85
10, 464520, Note_off_c, 8, 67, 64
10, 464520, Note_on_c, 8, 58, 85
10, 464640, Note_off_c, 8, 58, 64
10, 464640, Note_on_c, 8, 65, 81
10, 464760, Note_off_c, 8, 65, 64
10, 464760, Note_on_c, 8, 58, 85
10, 464880, Note_off_c, 8, 58, 64
10, 464880, Note_on_c, 8, 63, 86
10, 465000, Note_off_c, 8, 63, 64
10, 465000, Note_on_c, 8, 58, 89
10, 465120, Note_off_c, 8, 58, 64
10, 465120, Note_on_c, 8, 58, 90
10, 465360, Note_off_c, 8, 58, 64
10, 465360, Note_on_c, 8, 53, 94
10, 465600, Note_off_c, 8, 53, 64
10, 465600, Note_on_c, 8, 58, 89
10, 465840, Note_off_c, 8, 58, 64
10, 465840, Note_on_c, 8, 60, 94
10, 466080, Note_off_c, 8, 60, 64
10, 466080, Note_on_c, 8, 61, 89
10, 466440, Note_off_c, 8, 61, 64
10, 466440, Note_on_c, 8, 60, 95
10, 466560, Note_off_c, 8, 60, 64
10, 466560, Note_on_c, 8, 58, 93
10, 466680, Note_off_c, 8, 58, 64
10, 466680, Note_on_c, 8, 60, 89
10, 466800, Note_off_c, 8, 60, 64
10, 466800, Note_on_c, 8, 61, 93
10, 466920, Note_off_c, 8, 61, 64
10, 466920, Note_on_c, 8, 64, 99
10, 467040, Note_off_c, 8, 64, 64
10, 467040, Note_on_c, 8, 65, 99
10, 467400, Note_off_c, 8, 65, 64
10, 467400, Note_on_c, 8, 63, 93
10, 467520, Note_off_c, 8, 63, 64
10, 467520, Note_on_c, 8, 62, 95
10, 467640, Note_off_c, 8, 62, 64
10, 467640, Note_on_c, 8, 63, 90
10, 467760, Note_off_c, 8, 63, 64
10, 467760, Note_on_c, 8, 65, 99
10, 467880, Note_off_c, 8, 65, 64
10, 467880, Note_on_c, 8, 66, 94
10, 468000, Note_off_c, 8, 66, 64
10, 468000, Note_on_c, 8, 67, 95
10, 468240, Note_off_c, 8, 67, 64
10, 468240, Note_on_c, 8, 59, 95
10, 468480, Note_off_c, 8, 59, 64
10, 468480, Note_on_c, 8, 60, 94
10, 468720, Note_off_c, 8, 60, 64
10, 468720, Note_on_c, 8, 56, 93
10, 468960, Note_off_c, 8, 56, 64
10, 468960, Note_on_c, 8, 58, 86
10, 469080, Note_off_c, 8, 58, 64
10, 469080, Note_on_c, 8, 55, 89
10, 469200, Note_off_c, 8, 55, 64
10, 469200, Note_on_c, 8, 56, 89
10, 469320, Note_off_c, 8, 56, 64
10, 469320, Note_on_c, 8, 53, 94
10, 469440, Note_off_c, 8, 53, 64
10, 469440, Note_on_c, 8, 55, 89
10, 469560, Note_off_c, 8, 55, 64
10, 469560, Note_on_c, 8, 51, 93
10, 469680, Note_off_c, 8, 51, 64
10, 469680, Note_on_c, 8, 53, 94
10, 469800, Note_off_c, 8, 53, 64
10, 469800, Note_on_c, 8, 50, 99
10, 469920, Note_off_c, 8, 50, 64
10, 469920, Note_on_c, 8, 55, 71
10, 469920, Note_on_c, 8, 53, 72
10, 469920, Note_on_c, 8, 50, 98
10, 469920, Note_on_c, 8, 47, 90
10, 470400, Note_off_c, 8, 47, 64
10, 470400, Note_off_c, 8, 50, 64
10, 470400, Note_off_c, 8, 53, 64
10, 470400, Note_off_c, 8, 55, 64
10, 470400, Note_on_c, 8, 67, 81
10, 470400, Note_on_c, 8, 65, 89
10, 470400, Note_on_c, 8, 62, 94
10, 470400, Note_on_c, 8, 59, 89
10, 470640, Note_off_c, 8, 59, 64
10, 470640, Note_off_c, 8, 62, 64
10, 470640, Note_off_c, 8, 65, 64
10, 470640, Note_off_c, 8, 67, 64
10, 470640, Note_on_c, 8, 67, 90
10, 470640, Note_on_c, 8, 65, 90
10, 470640, Note_on_c, 8, 62, 93
10, 470640, Note_on_c, 8, 59, 89
10, 470880, Note_off_c, 8, 59, 64
10, 470880, Note_off_c, 8, 62, 64
10, 470880, Note_off_c, 8, 65, 64
10, 470880, Note_off_c, 8, 67, 64
10, 470880, Note_on_c, 8, 67, 89
10, 470880, Note_on_c, 8, 65, 94
10, 470880, Note_on_c, 8, 62, 89
10, 470880, Note_on_c, 8, 59, 85
10, 471120, Note_off_c, 8, 59, 64
10, 471120, Note_off_c, 8, 62, 64
10, 471120, Note_off_c, 8, 65, 64
10, 471120, Note_off_c, 8, 67, 64
10, 471840, Note_on_c, 8, 42, 117
10, 471840, Note_on_c, 8, 30, 105
10, 472320, Note_off_c, 8, 30, 64
10, 472320, Note_off_c, 8, 42, 64
10, 472320, Note_on_c, 8, 54, 84
10, 472320, Note_on_c, 8, 51, 82
10, 472320, Note_on_c, 8, 48, 86
10, 472320, Note_on_c, 8, 42, 94
10, 472560, Note_off_c, 8, 42, 64
10, 472560, Note_off_c, 8, 48, 64
10, 472560, Note_off_c, 8, 51, 64
10, 472560, Note_off_c, 8, 54, 64
10, 472560, Note_on_c, 8, 54, 89
10, 472560, Note_on_c, 8, 51, 90
10, 472560, Note_on_c, 8, 48, 82
10, 472560, Note_on_c, 8, 42, 94
10, 472800, Note_off_c, 8, 42, 64
10, 472800, Note_off_c, 8, 48, 64
10, 472800, Note_off_c, 8, 51, 64
10, 472800, Note_off_c, 8, 54, 64
10, 472800, Note_on_c, 8, 54, 85
10, 472800, Note_on_c, 8, 51, 84
10, 472800, Note_on_c, 8, 48, 82
10, 472800, Note_on_c, 8, 42, 95
10, 473040, Note_off_c, 8, 42, 64
10, 473040, Note_off_c, 8, 48, 64
10, 473040, Note_off_c, 8, 51, 64
10, 473040, Note_off_c, 8, 54, 64
10, 473760, Note_on_c, 8, 55, 80
10, 473760, Note_on_c, 8, 51, 81
10, 473760, Note_on_c, 8, 48, 82
10, 473760, Note_on_c, 8, 43, 93
10, 474000, Note_off_c, 8, 43, 64
10, 474000, Note_off_c, 8, 48, 64
10, 474000, Note_off_c, 8, 51, 64
10, 474000, Note_off_c, 8, 55, 64
10, 474240, Note_on_c, 8, 57, 99
10, 474240, Note_on_c, 8, 54, 82
10, 474240, Note_on_c, 8, 48, 99
10, 474240, Note_on_c, 8, 45, 95
10, 474480, Note_off_c, 8, 45, 64
10, 474480, Note_off_c, 8, 48, 64
10, 474480, Note_off_c, 8, 54, 64
10, 474480, Note_off_c, 8, 57, 64
10, 474720, Note_on_c, 8, 59, 89
10, 474720, Note_on_c, 8, 55, 86
10, 474720, Note_on_c, 8, 50, 93
10, 474720, Note_on_c, 8, 47, 89
10, 474840, Note_off_c, 8, 47, 64
10, 474840, Note_off_c, 8, 50, 64
10, 474840, Note_off_c, 8, 55, 64
10, 474840, Note_off_c, 8, 59, 64
10, 474960, Note_on_c, 8, 60, 89
10, 474960, Note_on_c, 8, 55, 77
10, 474960, Note_on_c, 8, 52, 94
10, 474960, Note_on_c, 8, 48, 86
10, 475080, Note_off_c, 8, 48, 64
10, 475080, Note_off_c, 8, 52, 64
10, 475080, Note_off_c, 8, 55, 64
10, 475080, Note_off_c, 8, 60, 64
10, 475200, Note_on_c, 8, 62, 85
10, 475200, Note_on_c, 8, 59, 99
10, 475200, Note_on_c, 8, 53, 84
10, 475200, Note_on_c, 8, 50, 90
10, 475320, Note_off_c, 8, 50, 64
10, 475320, Note_off_c, 8, 53, 64
10, 475320, Note_off_c, 8, 59, 64
10, 475320, Note_off_c, 8, 62, 64
10, 475440, Note_on_c, 8, 64, 93
10, 475440, Note_on_c, 8, 60, 94
10, 475440, Note_on_c, 8, 55, 86
10, 475440, Note_on_c, 8, 52, 94
10, 475560, Note_off_c, 8, 52, 64
10, 475560, Note_off_c, 8, 55, 64
10, 475560, Note_off_c, 8, 60, 64
10, 475560, Note_off_c, 8, 64, 64
10, 475680, Note_on_c, 8, 65, 89
10, 475680, Note_on_c, 8, 62, 94
10, 475680, Note_on_c, 8, 59, 89
10, 475680, Note_on_c, 8, 53, 90
10, 475800, Note_off_c, 8, 53, 64
10, 475800, Note_off_c, 8, 59, 64
10, 475800, Note_off_c, 8, 62, 64
10, 475800, Note_off_c, 8, 65, 64
10, 475920, Note_on_c, 8, 64, 93
10, 475920, Note_on_c, 8, 60, 94
10, 475920, Note_on_c, 8, 55, 85
10, 475920, Note_on_c, 8, 52, 90
10, 476040, Note_off_c, 8, 52, 64
10, 476040, Note_off_c, 8, 55, 64
10, 476040, Note_off_c, 8, 60, 64
10, 476040, Note_off_c, 8, 64, 64
10, 476160, Note_on_c, 8, 65, 95
10, 476160, Note_on_c, 8, 60, 90
10, 476160, Note_on_c, 8, 57, 99
10, 476160, Note_on_c, 8, 53, 82
10, 476280, Note_off_c, 8, 53, 64
10, 476280, Note_off_c, 8, 57, 64
10, 476280, Note_off_c, 8, 60, 64
10, 476280, Note_off_c, 8, 65, 64
10, 476400, Note_on_c, 8, 66, 89
10, 476400, Note_on_c, 8, 60, 93
10, 476400, Note_on_c, 8, 54, 94
10, 476520, Note_off_c, 8, 54, 64
10, 476520, Note_off_c, 8, 60, 64
10, 476520, Note_off_c, 8, 66, 64
10, 476640, Note_on_c, 8, 67, 112
10, 476880, Note_off_c, 8, 67, 64
10, 477600, Note_on_c, 8, 31, 90
10, 477660, Note_off_c, 8, 31, 64
10, 477660, Note_on_c, 8, 33, 98
10, 477720, Note_off_c, 8, 33, 64
10, 477720, Note_on_c, 8, 35, 99
10, 477780, Note_off_c, 8, 35, 64
10, 477780, Note_on_c, 8, 36, 98
10, 477840, Note_off_c, 8, 36, 64
10, 477840, Note_on_c, 8, 38, 99
10, 477900, Note_off_c, 8, 38, 64
10, 477900, Note_on_c, 8, 40, 101
10, 477960, Note_off_c, 8, 40, 64
10, 477960, Note_on_c, 8, 41, 89
10, 478020, Note_off_c, 8, 41, 64
10, 478020, Note_on_c, 8, 42, 90
10, 478080, Note_off_c, 8, 42, 64
10, 478080, Note_on_c, 8, 43, 98
10, 478140, Note_off_c, 8, 43, 64
10, 478140, Note_on_c, 8, 45, 95
10, 478200, Note_off_c, 8, 45, 64
10, 478200, Note_on_c, 8, 47, 99
10, 478260, Note_off_c, 8, 47, 64
10, 478260, Note_on_c, 8, 48, 104
10, 478320, Note_off_c, 8, 48, 64
10, 478320, Note_on_c, 8, 50, 99
10, 478380, Note_off_c, 8, 50, 64
10, 478380, Note_on_c, 8, 52, 104
10, 478440, Note_off_c, 8, 52, 64
10, 478440, Note_on_c, 8, 53, 84
10, 478500, Note_off_c, 8, 53, 64
10, 478500, Note_on_c, 8, 54, 90
10, 478560, Note_off_c, 8, 54, 64
10, 478560, Note_on_c, 8, 55, 98
10, 478620, Note_off_c, 8, 55, 64
10, 478620, Note_on_c, 8, 57, 105
10, 478680, Note_off_c, 8, 57, 64
10, 478680, Note_on_c, 8, 59, 104
10, 478740, Note_off_c, 8, 59, 64
10, 478740, Note_on_c, 8, 60, 98
10, 478800, Note_off_c, 8, 60, 64
10, 478800, Note_on_c, 8, 62, 94
10, 478860, Note_off_c, 8, 62, 64
10, 478860, Note_on_c, 8, 64, 104
10, 478920, Note_off_c, 8, 64, 64
10, 478920, Note_on_c, 8, 65, 99
10, 478950, Note_off_c, 8, 65, 64
10, 478950, Note_on_c, 8, 67, 99
10, 478980, Note_off_c, 8, 67, 64
10, 478980, Note_on_c, 8, 65, 104
10, 479010, Note_off_c, 8, 65, 64
10, 479010, Note_on_c, 8, 67, 99
10, 479040, Note_off_c, 8, 67, 64
10, 479040, Note_on_c, 8, 65, 104
10, 479070, Note_off_c, 8, 65, 64
10, 479070, Note_on_c, 8, 67, 98
10, 479100, Note_off_c, 8, 67, 64
10, 479100, Note_on_c, 8, 65, 101
10, 479130, Note_off_c, 8, 65, 64
10, 479130, Note_on_c, 8, 67, 99
10, 479160, Note_off_c, 8, 67, 64
10, 479160, Note_on_c, 8, 65, 101
10, 479190, Note_off_c, 8, 65, 64
10, 479190, Note_on_c, 8, 67, 99
10, 479220, Note_off_c, 8, 67, 64
10, 479220, Note_on_c, 8, 65, 98
10, 479250, Note_off_c, 8, 65, 64
10, 479250, Note_on_c, 8, 67, 98
10, 479280, Note_off_c, 8, 67, 64
10, 479280, Note_on_c, 8, 65, 99
10, 479310, Note_off_c, 8, 65, 64
10, 479310, Note_on_c, 8, 67, 99
10, 479340, Note_off_c, 8, 67, 64
10, 479340, Note_on_c, 8, 65, 98
10, 479370, Note_off_c, 8, 65, 64
10, 479400, Note_on_c, 8, 64, 90
10, 479460, Note_off_c, 8, 64, 64
10, 479460, Note_on_c, 8, 65, 101
10, 479520, Note_off_c, 8, 65, 64
10, 479520, Note_on_c, 8, 64, 125
10, 479760, Note_off_c, 8, 64, 64
10, 479760, End_track
11, 0, Start_track
11, 0, Title_t, "1st Violins"
11, 0, Program_c, 10, 48
11, 0, Control_c, 10, 7, 95
11, 0, Control_c, 10, 10, 26
11, 0, Control_c, 10, 93, 0
11, 0, Control_c, 10, 91, 66
11, 0, Note_on_c, 10, 60, 80
11, 480, Note_off_c, 10, 60, 64
11, 480, Note_on_c, 10, 72, 71
11, 600, Note_off_c, 10, 72, 64
11, 720, Note_on_c, 10, 72, 78
11, 840, Note_off_c, 10, 72, 64
11, 960, Note_on_c, 10, 72, 84
11, 1080, Note_off_c, 10, 72, 64
11, 1500, Note_on_c, 10, 60, 80
11, 1560, Note_off_c, 10, 60, 64
11, 1560, Note_on_c, 10, 62, 80
11, 1620, Note_off_c, 10, 62, 64
11, 1620, Note_on_c, 10, 64, 80
11, 1680, Note_off_c, 10, 64, 64
11, 1680, Note_on_c, 10, 65, 80
11, 1740, Note_off_c, 10, 65, 64
11, 1740, Note_on_c, 10, 67, 80
11, 1800, Note_off_c, 10, 67, 64
11, 1800, Note_on_c, 10, 69, 80
11, 1860, Note_off_c, 10, 69, 64
11, 1860, Note_on_c, 10, 71, 80
11, 1920, Note_off_c, 10, 71, 64
11, 1920, Note_on_c, 10, 72, 61
11, 2040, Note_off_c, 10, 72, 64
11, 2160, Note_on_c, 10, 74, 78
11, 2280, Note_off_c, 10, 74, 64
11, 2400, Note_on_c, 10, 76, 70
11, 2520, Note_off_c, 10, 76, 64
11, 2640, Note_on_c, 10, 77, 60
11, 2760, Note_off_c, 10, 77, 64
11, 2880, Note_on_c, 10, 76, 62
11, 3000, Note_off_c, 10, 76, 64
11, 3120, Note_on_c, 10, 74, 81
11, 3240, Note_off_c, 10, 74, 64
11, 3840, Note_on_c, 10, 62, 80
11, 4320, Note_off_c, 10, 62, 64
11, 4320, Note_on_c, 10, 74, 64
11, 4440, Note_off_c, 10, 74, 64
11, 4560, Note_on_c, 10, 74, 71
11, 4680, Note_off_c, 10, 74, 64
11, 4800, Note_on_c, 10, 74, 58
11, 4920, Note_off_c, 10, 74, 64
11, 5340, Note_on_c, 10, 55, 80
11, 5400, Note_off_c, 10, 55, 64
11, 5400, Note_on_c, 10, 57, 80
11, 5460, Note_off_c, 10, 57, 64
11, 5460, Note_on_c, 10, 59, 80
11, 5520, Note_off_c, 10, 59, 64
11, 5520, Note_on_c, 10, 60, 80
11, 5580, Note_off_c, 10, 60, 64
11, 5580, Note_on_c, 10, 62, 80
11, 5640, Note_off_c, 10, 62, 64
11, 5640, Note_on_c, 10, 64, 80
11, 5700, Note_off_c, 10, 64, 64
11, 5700, Note_on_c, 10, 66, 80
11, 5760, Note_off_c, 10, 66, 64
11, 5760, Note_on_c, 10, 67, 58
11, 5880, Note_off_c, 10, 67, 64
11, 6000, Note_on_c, 10, 72, 59
11, 6120, Note_off_c, 10, 72, 64
11, 6240, Note_on_c, 10, 74, 70
11, 6360, Note_off_c, 10, 74, 64
11, 6480, Note_on_c, 10, 76, 80
11, 6600, Note_off_c, 10, 76, 64
11, 6720, Note_on_c, 10, 77, 69
11, 6840, Note_off_c, 10, 77, 64
11, 6960, Note_on_c, 10, 76, 84
11, 7080, Note_off_c, 10, 76, 64
11, 7320, Note_on_c, 10, 72, 80
11, 7440, Note_off_c, 10, 72, 64
11, 7440, Note_on_c, 10, 71, 80
11, 7560, Note_off_c, 10, 71, 64
11, 7560, Note_on_c, 10, 72, 80
11, 7680, Note_off_c, 10, 72, 64
11, 7680, Note_on_c, 10, 81, 80
11, 8160, Note_off_c, 10, 81, 64
11, 8160, Note_on_c, 10, 81, 80
11, 8400, Note_off_c, 10, 81, 64
11, 8400, Note_on_c, 10, 81, 80
11, 8640, Note_off_c, 10, 81, 64
11, 8640, Note_on_c, 10, 84, 80
11, 9120, Note_off_c, 10, 84, 64
11, 9120, Note_on_c, 10, 84, 80
11, 9240, Note_off_c, 10, 84, 64
11, 9240, Note_on_c, 10, 83, 80
11, 9360, Note_off_c, 10, 83, 64
11, 9360, Note_on_c, 10, 81, 80
11, 9480, Note_off_c, 10, 81, 64
11, 9480, Note_on_c, 10, 79, 78
11, 9540, Note_off_c, 10, 79, 64
11, 9570, Note_on_c, 10, 79, 94
11, 9600, Note_off_c, 10, 79, 64
11, 9600, Note_on_c, 10, 77, 90
11, 9840, Note_off_c, 10, 77, 64
11, 9840, Note_on_c, 10, 77, 80
11, 10080, Note_off_c, 10, 77, 64
11, 10080, Note_on_c, 10, 77, 80
11, 10320, Note_off_c, 10, 77, 64
11, 10320, Note_on_c, 10, 77, 80
11, 10560, Note_off_c, 10, 77, 64
11, 10560, Note_on_c, 10, 76, 80
11, 10800, Note_off_c, 10, 76, 64
11, 11520, Note_on_c, 10, 74, 80
11, 12000, Note_off_c, 10, 74, 64
11, 12000, Note_on_c, 10, 74, 81
11, 12120, Note_off_c, 10, 74, 64
11, 12240, Note_on_c, 10, 74, 101
11, 12360, Note_off_c, 10, 74, 64
11, 12480, Note_on_c, 10, 79, 80
11, 13200, Note_off_c, 10, 79, 64
11, 13200, Note_on_c, 10, 77, 80
11, 13260, Note_off_c, 10, 77, 64
11, 13260, Note_on_c, 10, 76, 80
11, 13320, Note_off_c, 10, 76, 64
11, 13320, Note_on_c, 10, 74, 80
11, 13380, Note_off_c, 10, 74, 64
11, 13380, Note_on_c, 10, 72, 80
11, 13440, Note_off_c, 10, 72, 64
11, 13440, Note_on_c, 10, 73, 80
11, 13680, Note_off_c, 10, 73, 64
11, 13680, Note_on_c, 10, 74, 80
11, 13920, Note_off_c, 10, 74, 64
11, 13920, Note_on_c, 10, 77, 80
11, 14160, Note_off_c, 10, 77, 64
11, 14160, Note_on_c, 10, 71, 80
11, 14400, Note_off_c, 10, 71, 64
11, 14400, Note_on_c, 10, 72, 80
11, 14400, Note_on_c, 10, 64, 80
11, 14400, Note_on_c, 10, 55, 80
11, 14640, Note_off_c, 10, 55, 64
11, 14640, Note_off_c, 10, 64, 64
11, 14880, Note_off_c, 10, 72, 64
11, 15900, Note_on_c, 10, 60, 80
11, 15960, Note_off_c, 10, 60, 64
11, 15960, Note_on_c, 10, 62, 80
11, 16020, Note_off_c, 10, 62, 64
11, 16020, Note_on_c, 10, 64, 80
11, 16080, Note_off_c, 10, 64, 64
11, 16080, Note_on_c, 10, 65, 80
11, 16140, Note_off_c, 10, 65, 64
11, 16140, Note_on_c, 10, 67, 80
11, 16200, Note_off_c, 10, 67, 64
11, 16200, Note_on_c, 10, 69, 80
11, 16260, Note_off_c, 10, 69, 64
11, 16260, Note_on_c, 10, 71, 80
11, 16320, Note_off_c, 10, 71, 64
11, 16320, Note_on_c, 10, 72, 105
11, 16440, Note_off_c, 10, 72, 64
11, 16560, Note_on_c, 10, 74, 119
11, 16680, Note_off_c, 10, 74, 64
11, 16800, Note_on_c, 10, 76, 115
11, 16920, Note_off_c, 10, 76, 64
11, 17040, Note_on_c, 10, 77, 119
11, 17160, Note_off_c, 10, 77, 64
11, 17280, Note_on_c, 10, 76, 119
11, 17400, Note_off_c, 10, 76, 64
11, 17520, Note_on_c, 10, 74, 123
11, 17640, Note_off_c, 10, 74, 64
11, 18240, Note_on_c, 10, 74, 80
11, 18240, Note_on_c, 10, 67, 80
11, 18240, Note_on_c, 10, 59, 80
11, 18720, Note_off_c, 10, 59, 64
11, 18720, Note_off_c, 10, 67, 64
11, 18720, Note_off_c, 10, 74, 64
11, 19740, Note_on_c, 10, 55, 115
11, 19800, Note_off_c, 10, 55, 64
11, 19800, Note_on_c, 10, 57, 119
11, 19860, Note_off_c, 10, 57, 64
11, 19860, Note_on_c, 10, 59, 115
11, 19920, Note_off_c, 10, 59, 64
11, 19920, Note_on_c, 10, 60, 123
11, 19980, Note_off_c, 10, 60, 64
11, 19980, Note_on_c, 10, 62, 119
11, 20040, Note_off_c, 10, 62, 64
11, 20040, Note_on_c, 10, 64, 125
11, 20100, Note_off_c, 10, 64, 64
11, 20100, Note_on_c, 10, 66, 123
11, 20160, Note_off_c, 10, 66, 64
11, 20160, Note_on_c, 10, 67, 119
11, 20280, Note_off_c, 10, 67, 64
11, 20400, Note_on_c, 10, 72, 123
11, 20520, Note_off_c, 10, 72, 64
11, 20640, Note_on_c, 10, 74, 123
11, 20760, Note_off_c, 10, 74, 64
11, 20880, Note_on_c, 10, 76, 110
11, 20880, Note_on_c, 10, 72, 117
11, 21000, Note_off_c, 10, 72, 64
11, 21000, Note_off_c, 10, 76, 64
11, 21120, Note_on_c, 10, 77, 112
11, 21120, Note_on_c, 10, 74, 119
11, 21240, Note_off_c, 10, 74, 64
11, 21240, Note_off_c, 10, 77, 64
11, 21360, Note_on_c, 10, 76, 115
11, 21360, Note_on_c, 10, 72, 115
11, 21480, Note_off_c, 10, 72, 64
11, 21480, Note_off_c, 10, 76, 64
11, 21660, Note_on_c, 10, 72, 117
11, 21720, Note_off_c, 10, 72, 64
11, 21720, Note_on_c, 10, 74, 119
11, 21780, Note_off_c, 10, 74, 64
11, 21780, Note_on_c, 10, 76, 119
11, 21840, Note_off_c, 10, 76, 64
11, 21840, Note_on_c, 10, 77, 119
11, 21900, Note_off_c, 10, 77, 64
11, 21900, Note_on_c, 10, 79, 117
11, 21960, Note_off_c, 10, 79, 64
11, 21960, Note_on_c, 10, 81, 119
11, 22020, Note_off_c, 10, 81, 64
11, 22020, Note_on_c, 10, 83, 119
11, 22080, Note_off_c, 10, 83, 64
11, 22080, Note_on_c, 10, 84, 80
11, 22560, Note_off_c, 10, 84, 64
11, 22560, Note_on_c, 10, 81, 80
11, 23040, Note_off_c, 10, 81, 64
11, 23040, Note_on_c, 10, 77, 80
11, 23280, Note_off_c, 10, 77, 64
11, 23580, Note_on_c, 10, 72, 80
11, 23640, Note_off_c, 10, 72, 64
11, 23640, Note_on_c, 10, 74, 80
11, 23700, Note_off_c, 10, 74, 64
11, 23700, Note_on_c, 10, 76, 80
11, 23760, Note_off_c, 10, 76, 64
11, 23760, Note_on_c, 10, 77, 80
11, 23820, Note_off_c, 10, 77, 64
11, 23820, Note_on_c, 10, 79, 80
11, 23880, Note_off_c, 10, 79, 64
11, 23880, Note_on_c, 10, 81, 80
11, 23940, Note_off_c, 10, 81, 64
11, 23940, Note_on_c, 10, 83, 80
11, 24000, Note_off_c, 10, 83, 64
11, 24000, Note_on_c, 10, 84, 80
11, 24480, Note_off_c, 10, 84, 64
11, 24480, Note_on_c, 10, 79, 80
11, 24960, Note_off_c, 10, 79, 64
11, 24960, Note_on_c, 10, 76, 80
11, 25200, Note_off_c, 10, 76, 64
11, 25560, Note_on_c, 10, 72, 80
11, 25680, Note_off_c, 10, 72, 64
11, 25680, Note_on_c, 10, 71, 80
11, 25740, Note_off_c, 10, 71, 64
11, 25740, Note_on_c, 10, 72, 80
11, 25800, Note_off_c, 10, 72, 64
11, 25800, Note_on_c, 10, 74, 80
11, 25860, Note_off_c, 10, 74, 64
11, 25860, Note_on_c, 10, 76, 80
11, 25920, Note_off_c, 10, 76, 64
11, 25920, Note_on_c, 10, 77, 123
11, 26040, Note_off_c, 10, 77, 64
11, 26160, Note_on_c, 10, 81, 115
11, 26220, Note_off_c, 10, 81, 64
11, 26220, Note_on_c, 10, 79, 115
11, 26280, Note_off_c, 10, 79, 64
11, 26280, Note_on_c, 10, 77, 117
11, 26340, Note_off_c, 10, 77, 64
11, 26340, Note_on_c, 10, 76, 115
11, 26400, Note_off_c, 10, 76, 64
11, 26400, Note_on_c, 10, 74, 127
11, 26520, Note_off_c, 10, 74, 64
11, 26640, Note_on_c, 10, 77, 123
11, 26700, Note_off_c, 10, 77, 64
11, 26700, Note_on_c, 10, 76, 117
11, 26760, Note_off_c, 10, 76, 64
11, 26760, Note_on_c, 10, 74, 119
11, 26820, Note_off_c, 10, 74, 64
11, 26820, Note_on_c, 10, 72, 115
11, 26880, Note_off_c, 10, 72, 64
11, 26880, Note_on_c, 10, 71, 125
11, 27000, Note_off_c, 10, 71, 64
11, 27120, Note_on_c, 10, 74, 119
11, 27180, Note_off_c, 10, 74, 64
11, 27180, Note_on_c, 10, 72, 112
11, 27240, Note_off_c, 10, 72, 64
11, 27240, Note_on_c, 10, 71, 117
11, 27300, Note_off_c, 10, 71, 64
11, 27300, Note_on_c, 10, 69, 119
11, 27360, Note_off_c, 10, 69, 64
11, 27360, Note_on_c, 10, 67, 125
11, 27480, Note_off_c, 10, 67, 64
11, 27600, Note_on_c, 10, 67, 123
11, 27660, Note_off_c, 10, 67, 64
11, 27660, Note_on_c, 10, 65, 119
11, 27720, Note_off_c, 10, 65, 64
11, 27720, Note_on_c, 10, 64, 119
11, 27780, Note_off_c, 10, 64, 64
11, 27780, Note_on_c, 10, 62, 115
11, 27840, Note_off_c, 10, 62, 64
11, 27840, Note_on_c, 10, 60, 78
11, 27900, Note_off_c, 10, 60, 64
11, 27900, Note_on_c, 10, 67, 44
11, 27900, Note_on_c, 10, 60, 62
11, 27960, Note_off_c, 10, 60, 64
11, 27960, Note_off_c, 10, 67, 64
11, 27960, Note_on_c, 10, 67, 39
11, 27960, Note_on_c, 10, 60, 68
11, 28020, Note_off_c, 10, 60, 64
11, 28020, Note_off_c, 10, 67, 64
11, 28020, Note_on_c, 10, 67, 64
11, 28020, Note_on_c, 10, 60, 82
11, 28080, Note_off_c, 10, 60, 64
11, 28080, Note_off_c, 10, 67, 64
11, 28080, Note_on_c, 10, 67, 62
11, 28080, Note_on_c, 10, 60, 78
11, 28140, Note_off_c, 10, 60, 64
11, 28140, Note_off_c, 10, 67, 64
11, 28140, Note_on_c, 10, 67, 64
11, 28140, Note_on_c, 10, 60, 80
11, 28200, Note_off_c, 10, 60, 64
11, 28200, Note_off_c, 10, 67, 64
11, 28200, Note_on_c, 10, 67, 43
11, 28200, Note_on_c, 10, 60, 55
11, 28260, Note_off_c, 10, 60, 64
11, 28260, Note_off_c, 10, 67, 64
11, 28260, Note_on_c, 10, 67, 63
11, 28260, Note_on_c, 10, 60, 85
11, 28320, Note_off_c, 10, 60, 64
11, 28320, Note_off_c, 10, 67, 64
11, 28320, Note_on_c, 10, 67, 51
11, 28320, Note_on_c, 10, 60, 73
11, 28380, Note_off_c, 10, 60, 64
11, 28380, Note_off_c, 10, 67, 64
11, 28380, Note_on_c, 10, 67, 53
11, 28380, Note_on_c, 10, 60, 84
11, 28440, Note_off_c, 10, 60, 64
11, 28440, Note_off_c, 10, 67, 64
11, 28440, Note_on_c, 10, 67, 44
11, 28440, Note_on_c, 10, 60, 76
11, 28500, Note_off_c, 10, 60, 64
11, 28500, Note_off_c, 10, 67, 64
11, 28500, Note_on_c, 10, 67, 38
11, 28500, Note_on_c, 10, 60, 76
11, 28560, Note_off_c, 10, 60, 64
11, 28560, Note_off_c, 10, 67, 64
11, 28560, Note_on_c, 10, 67, 81
11, 28560, Note_on_c, 10, 60, 84
11, 28620, Note_off_c, 10, 60, 64
11, 28620, Note_off_c, 10, 67, 64
11, 28620, Note_on_c, 10, 67, 73
11, 28620, Note_on_c, 10, 60, 84
11, 28680, Note_off_c, 10, 60, 64
11, 28680, Note_off_c, 10, 67, 64
11, 28680, Note_on_c, 10, 67, 62
11, 28680, Note_on_c, 10, 60, 86
11, 28740, Note_off_c, 10, 60, 64
11, 28740, Note_off_c, 10, 67, 64
11, 28740, Note_on_c, 10, 60, 86
11, 28740, Note_on_c, 10, 67, 59
11, 28800, Note_off_c, 10, 67, 64
11, 28800, Note_off_c, 10, 60, 64
11, 28800, Note_on_c, 10, 67, 57
11, 28800, Note_on_c, 10, 60, 73
11, 28860, Note_off_c, 10, 60, 64
11, 28860, Note_off_c, 10, 67, 64
11, 28860, Note_on_c, 10, 67, 61
11, 28860, Note_on_c, 10, 60, 68
11, 28920, Note_off_c, 10, 60, 64
11, 28920, Note_off_c, 10, 67, 64
11, 28920, Note_on_c, 10, 67, 58
11, 28920, Note_on_c, 10, 60, 78
11, 28980, Note_off_c, 10, 60, 64
11, 28980, Note_off_c, 10, 67, 64
11, 28980, Note_on_c, 10, 67, 73
11, 28980, Note_on_c, 10, 60, 80
11, 29040, Note_off_c, 10, 60, 64
11, 29040, Note_off_c, 10, 67, 64
11, 29040, Note_on_c, 10, 67, 72
11, 29040, Note_on_c, 10, 60, 80
11, 29100, Note_off_c, 10, 60, 64
11, 29100, Note_off_c, 10, 67, 64
11, 29100, Note_on_c, 10, 67, 73
11, 29100, Note_on_c, 10, 60, 77
11, 29160, Note_off_c, 10, 60, 64
11, 29160, Note_off_c, 10, 67, 64
11, 29160, Note_on_c, 10, 67, 73
11, 29160, Note_on_c, 10, 60, 73
11, 29220, Note_off_c, 10, 60, 64
11, 29220, Note_off_c, 10, 67, 64
11, 29220, Note_on_c, 10, 67, 76
11, 29220, Note_on_c, 10, 60, 76
11, 29280, Note_off_c, 10, 60, 64
11, 29280, Note_off_c, 10, 67, 64
11, 29280, Note_on_c, 10, 67, 73
11, 29280, Note_on_c, 10, 60, 76
11, 29340, Note_off_c, 10, 60, 64
11, 29340, Note_off_c, 10, 67, 64
11, 29340, Note_on_c, 10, 67, 71
11, 29340, Note_on_c, 10, 60, 82
11, 29400, Note_off_c, 10, 60, 64
11, 29400, Note_off_c, 10, 67, 64
11, 29400, Note_on_c, 10, 67, 63
11, 29400, Note_on_c, 10, 60, 76
11, 29460, Note_off_c, 10, 60, 64
11, 29460, Note_off_c, 10, 67, 64
11, 29460, Note_on_c, 10, 67, 72
11, 29460, Note_on_c, 10, 60, 80
11, 29520, Note_off_c, 10, 60, 64
11, 29520, Note_off_c, 10, 67, 64
11, 29520, Note_on_c, 10, 67, 80
11, 29520, Note_on_c, 10, 60, 85
11, 29580, Note_off_c, 10, 60, 64
11, 29580, Note_off_c, 10, 67, 64
11, 29580, Note_on_c, 10, 67, 77
11, 29580, Note_on_c, 10, 60, 80
11, 29640, Note_off_c, 10, 60, 64
11, 29640, Note_off_c, 10, 67, 64
11, 29640, Note_on_c, 10, 67, 77
11, 29640, Note_on_c, 10, 60, 73
11, 29700, Note_off_c, 10, 60, 64
11, 29700, Note_off_c, 10, 67, 64
11, 29700, Note_on_c, 10, 60, 89
11, 29700, Note_on_c, 10, 67, 81
11, 29760, Note_off_c, 10, 67, 64
11, 29760, Note_off_c, 10, 60, 64
11, 29760, Note_on_c, 10, 69, 52
11, 29760, Note_on_c, 10, 60, 73
11, 30000, Note_off_c, 10, 60, 64
11, 30000, Note_off_c, 10, 69, 64
11, 30300, Note_on_c, 10, 72, 80
11, 30360, Note_off_c, 10, 72, 64
11, 30360, Note_on_c, 10, 74, 80
11, 30420, Note_off_c, 10, 74, 64
11, 30420, Note_on_c, 10, 76, 80
11, 30480, Note_off_c, 10, 76, 64
11, 30480, Note_on_c, 10, 77, 80
11, 30540, Note_off_c, 10, 77, 64
11, 30540, Note_on_c, 10, 79, 80
11, 30600, Note_off_c, 10, 79, 64
11, 30600, Note_on_c, 10, 81, 80
11, 30660, Note_off_c, 10, 81, 64
11, 30660, Note_on_c, 10, 83, 80
11, 30720, Note_off_c, 10, 83, 64
11, 30720, Note_on_c, 10, 84, 119
11, 30840, Note_off_c, 10, 84, 64
11, 30960, Note_on_c, 10, 84, 119
11, 31080, Note_off_c, 10, 84, 64
11, 31200, Note_on_c, 10, 81, 112
11, 31320, Note_off_c, 10, 81, 64
11, 31440, Note_on_c, 10, 77, 123
11, 31560, Note_off_c, 10, 77, 64
11, 31680, Note_on_c, 10, 72, 119
11, 31920, Note_off_c, 10, 72, 64
11, 32220, Note_on_c, 10, 72, 80
11, 32280, Note_off_c, 10, 72, 64
11, 32280, Note_on_c, 10, 74, 80
11, 32340, Note_off_c, 10, 74, 64
11, 32340, Note_on_c, 10, 76, 80
11, 32400, Note_off_c, 10, 76, 64
11, 32400, Note_on_c, 10, 77, 80
11, 32460, Note_off_c, 10, 77, 64
11, 32460, Note_on_c, 10, 79, 80
11, 32520, Note_off_c, 10, 79, 64
11, 32520, Note_on_c, 10, 81, 80
11, 32580, Note_off_c, 10, 81, 64
11, 32580, Note_on_c, 10, 83, 80
11, 32640, Note_off_c, 10, 83, 64
11, 32640, Note_on_c, 10, 84, 119
11, 32760, Note_off_c, 10, 84, 64
11, 32880, Note_on_c, 10, 84, 119
11, 33000, Note_off_c, 10, 84, 64
11, 33120, Note_on_c, 10, 79, 119
11, 33240, Note_off_c, 10, 79, 64
11, 33360, Note_on_c, 10, 76, 125
11, 33480, Note_off_c, 10, 76, 64
11, 33600, Note_on_c, 10, 84, 80
11, 34080, Note_off_c, 10, 84, 64
11, 34080, Note_on_c, 10, 81, 80
11, 34560, Note_off_c, 10, 81, 64
11, 34560, Note_on_c, 10, 78, 123
11, 35040, Note_off_c, 10, 78, 64
11, 35040, Note_on_c, 10, 72, 123
11, 35520, Note_off_c, 10, 72, 64
11, 35520, Note_on_c, 10, 71, 123
11, 35640, Note_off_c, 10, 71, 64
11, 35760, Note_on_c, 10, 74, 127
11, 36240, Note_off_c, 10, 74, 64
11, 36240, Note_on_c, 10, 72, 80
11, 36480, Note_off_c, 10, 72, 64
11, 36480, Note_on_c, 10, 71, 119
11, 36600, Note_off_c, 10, 71, 64
11, 36720, Note_on_c, 10, 77, 125
11, 37200, Note_off_c, 10, 77, 64
11, 37200, Note_on_c, 10, 76, 80
11, 37440, Note_off_c, 10, 76, 64
11, 37440, Note_on_c, 10, 74, 94
11, 37500, Note_off_c, 10, 74, 64
11, 37560, Note_on_c, 10, 55, 86
11, 37620, Note_off_c, 10, 55, 64
11, 37620, Note_on_c, 10, 55, 89
11, 37680, Note_off_c, 10, 55, 64
11, 37680, Note_on_c, 10, 57, 99
11, 37740, Note_off_c, 10, 57, 64
11, 37740, Note_on_c, 10, 57, 101
11, 37800, Note_off_c, 10, 57, 64
11, 37800, Note_on_c, 10, 59, 68
11, 37860, Note_off_c, 10, 59, 64
11, 37860, Note_on_c, 10, 59, 89
11, 37920, Note_off_c, 10, 59, 64
11, 37920, Note_on_c, 10, 60, 84
11, 37980, Note_off_c, 10, 60, 64
11, 37980, Note_on_c, 10, 60, 84
11, 38040, Note_off_c, 10, 60, 64
11, 38040, Note_on_c, 10, 62, 84
11, 38100, Note_off_c, 10, 62, 64
11, 38100, Note_on_c, 10, 62, 89
11, 38160, Note_off_c, 10, 62, 64
11, 38160, Note_on_c, 10, 64, 89
11, 38220, Note_off_c, 10, 64, 64
11, 38220, Note_on_c, 10, 64, 95
11, 38280, Note_off_c, 10, 64, 64
11, 38280, Note_on_c, 10, 66, 84
11, 38340, Note_off_c, 10, 66, 64
11, 38340, Note_on_c, 10, 66, 76
11, 38400, Note_off_c, 10, 66, 64
11, 38400, Note_on_c, 10, 67, 93
11, 38460, Note_off_c, 10, 67, 64
11, 38520, Note_on_c, 10, 67, 94
11, 38580, Note_off_c, 10, 67, 64
11, 38580, Note_on_c, 10, 67, 94
11, 38640, Note_off_c, 10, 67, 64
11, 38640, Note_on_c, 10, 69, 89
11, 38700, Note_off_c, 10, 69, 64
11, 38700, Note_on_c, 10, 69, 95
11, 38760, Note_off_c, 10, 69, 64
11, 38760, Note_on_c, 10, 71, 89
11, 38820, Note_off_c, 10, 71, 64
11, 38820, Note_on_c, 10, 71, 98
11, 38880, Note_off_c, 10, 71, 64
11, 38880, Note_on_c, 10, 72, 89
11, 38940, Note_off_c, 10, 72, 64
11, 38940, Note_on_c, 10, 72, 94
11, 39000, Note_off_c, 10, 72, 64
11, 39000, Note_on_c, 10, 74, 99
11, 39060, Note_off_c, 10, 74, 64
11, 39060, Note_on_c, 10, 74, 98
11, 39120, Note_off_c, 10, 74, 64
11, 39120, Note_on_c, 10, 76, 98
11, 39180, Note_off_c, 10, 76, 64
11, 39180, Note_on_c, 10, 76, 93
11, 39240, Note_off_c, 10, 76, 64
11, 39240, Note_on_c, 10, 78, 80
11, 39300, Note_off_c, 10, 78, 64
11, 39300, Note_on_c, 10, 78, 76
11, 39360, Note_off_c, 10, 78, 64
11, 39360, Note_on_c, 10, 79, 80
11, 39600, Note_off_c, 10, 79, 64
11, 39840, Note_on_c, 10, 84, 110
11, 39840, Note_on_c, 10, 76, 112
11, 39840, Note_on_c, 10, 67, 123
11, 39960, Note_off_c, 10, 67, 64
11, 39960, Note_off_c, 10, 76, 64
11, 39960, Note_off_c, 10, 84, 64
11, 40320, Note_on_c, 10, 83, 110
11, 40320, Note_on_c, 10, 74, 117
11, 40320, Note_on_c, 10, 67, 112
11, 40440, Note_off_c, 10, 67, 64
11, 40440, Note_off_c, 10, 74, 64
11, 40440, Note_off_c, 10, 83, 64
11, 40800, Note_on_c, 10, 84, 115
11, 40800, Note_on_c, 10, 76, 117
11, 40800, Note_on_c, 10, 67, 119
11, 40920, Note_off_c, 10, 67, 64
11, 40920, Note_off_c, 10, 76, 64
11, 40920, Note_off_c, 10, 84, 64
11, 41280, Note_on_c, 10, 83, 115
11, 41280, Note_on_c, 10, 74, 119
11, 41280, Note_on_c, 10, 67, 117
11, 41400, Note_off_c, 10, 67, 64
11, 41400, Note_off_c, 10, 74, 64
11, 41400, Note_off_c, 10, 83, 64
11, 41520, Note_on_c, 10, 84, 112
11, 41520, Note_on_c, 10, 76, 119
11, 41520, Note_on_c, 10, 67, 119
11, 41640, Note_off_c, 10, 67, 64
11, 41640, Note_off_c, 10, 76, 64
11, 41640, Note_off_c, 10, 84, 64
11, 41760, Note_on_c, 10, 83, 112
11, 41760, Note_on_c, 10, 74, 117
11, 41760, Note_on_c, 10, 67, 117
11, 41880, Note_off_c, 10, 67, 64
11, 41880, Note_off_c, 10, 74, 64
11, 41880, Note_off_c, 10, 83, 64
11, 42000, Note_on_c, 10, 84, 107
11, 42000, Note_on_c, 10, 76, 123
11, 42000, Note_on_c, 10, 67, 117
11, 42120, Note_off_c, 10, 67, 64
11, 42120, Note_off_c, 10, 76, 64
11, 42120, Note_off_c, 10, 84, 64
11, 42240, Note_on_c, 10, 83, 115
11, 42240, Note_on_c, 10, 74, 119
11, 42240, Note_on_c, 10, 67, 115
11, 42360, Note_off_c, 10, 67, 64
11, 42360, Note_off_c, 10, 74, 64
11, 42360, Note_off_c, 10, 83, 64
11, 42660, Note_on_c, 10, 67, 80
11, 42720, Note_off_c, 10, 67, 64
11, 42720, Note_on_c, 10, 67, 80
11, 42960, Note_off_c, 10, 67, 64
11, 43140, Note_on_c, 10, 55, 80
11, 43200, Note_off_c, 10, 55, 64
11, 43200, Note_on_c, 10, 55, 80
11, 43440, Note_off_c, 10, 55, 64
11, 46080, Note_on_c, 10, 70, 80
11, 46560, Note_off_c, 10, 70, 64
11, 46560, Note_on_c, 10, 69, 80
11, 46680, Note_off_c, 10, 69, 64
11, 46680, Note_on_c, 10, 70, 80
11, 46800, Note_off_c, 10, 70, 64
11, 46800, Note_on_c, 10, 72, 80
11, 46920, Note_off_c, 10, 72, 64
11, 46920, Note_on_c, 10, 70, 80
11, 47040, Note_off_c, 10, 70, 64
11, 47040, Note_on_c, 10, 70, 72
11, 47160, Note_off_c, 10, 70, 64
11, 47160, Note_on_c, 10, 68, 89
11, 47280, Note_off_c, 10, 68, 64
11, 47280, Note_on_c, 10, 67, 52
11, 47400, Note_off_c, 10, 67, 64
11, 47400, Note_on_c, 10, 65, 60
11, 47520, Note_off_c, 10, 65, 64
11, 47520, Note_on_c, 10, 63, 77
11, 47640, Note_off_c, 10, 63, 64
11, 47640, Note_on_c, 10, 62, 73
11, 47760, Note_off_c, 10, 62, 64
11, 47760, Note_on_c, 10, 60, 78
11, 47880, Note_off_c, 10, 60, 64
11, 47880, Note_on_c, 10, 58, 76
11, 48000, Note_off_c, 10, 58, 64
11, 48000, Note_on_c, 10, 63, 64
11, 48120, Note_off_c, 10, 63, 64
11, 48240, Note_on_c, 10, 63, 81
11, 48360, Note_off_c, 10, 63, 64
11, 48420, Note_on_c, 10, 65, 86
11, 48450, Note_off_c, 10, 65, 64
11, 48450, Note_on_c, 10, 63, 89
11, 48570, Note_off_c, 10, 63, 64
11, 48600, Note_on_c, 10, 62, 80
11, 48720, Note_off_c, 10, 62, 64
11, 48720, Note_on_c, 10, 63, 80
11, 48840, Note_off_c, 10, 63, 64
11, 48840, Note_on_c, 10, 67, 80
11, 48960, Note_off_c, 10, 67, 64
11, 48960, Note_on_c, 10, 64, 80
11, 49200, Note_off_c, 10, 64, 64
11, 49200, Note_on_c, 10, 65, 80
11, 49440, Note_off_c, 10, 65, 64
11, 49920, Note_on_c, 10, 61, 80
11, 50160, Note_off_c, 10, 61, 64
11, 50160, Note_on_c, 10, 73, 80
11, 50400, Note_off_c, 10, 73, 64
11, 50640, Note_on_c, 10, 72, 80
11, 50880, Note_off_c, 10, 72, 64
11, 50880, Note_on_c, 10, 72, 80
11, 51120, Note_off_c, 10, 72, 64
11, 51120, Note_on_c, 10, 70, 80
11, 51360, Note_off_c, 10, 70, 64
11, 51600, Note_on_c, 10, 68, 80
11, 51840, Note_off_c, 10, 68, 64
11, 51840, Note_on_c, 10, 68, 80
11, 52080, Note_off_c, 10, 68, 64
11, 52080, Note_on_c, 10, 67, 80
11, 52320, Note_off_c, 10, 67, 64
11, 52560, Note_on_c, 10, 64, 80
11, 52800, Note_off_c, 10, 64, 64
11, 52800, Note_on_c, 10, 72, 80
11, 53280, Note_off_c, 10, 72, 64
11, 53280, Note_on_c, 10, 71, 80
11, 53400, Note_off_c, 10, 71, 64
11, 53400, Note_on_c, 10, 72, 80
11, 53520, Note_off_c, 10, 72, 64
11, 53520, Note_on_c, 10, 73, 80
11, 53640, Note_off_c, 10, 73, 64
11, 53640, Note_on_c, 10, 72, 80
11, 53760, Note_off_c, 10, 72, 64
11, 53760, Note_on_c, 10, 72, 59
11, 53880, Note_off_c, 10, 72, 64
11, 53880, Note_on_c, 10, 70, 81
11, 54000, Note_off_c, 10, 70, 64
11, 54000, Note_on_c, 10, 68, 86
11, 54120, Note_off_c, 10, 68, 64
11, 54120, Note_on_c, 10, 67, 63
11, 54240, Note_off_c, 10, 67, 64
11, 54240, Note_on_c, 10, 65, 94
11, 54360, Note_off_c, 10, 65, 64
11, 54360, Note_on_c, 10, 64, 85
11, 54480, Note_off_c, 10, 64, 64
11, 54480, Note_on_c, 10, 62, 89
11, 54600, Note_off_c, 10, 62, 64
11, 54600, Note_on_c, 10, 60, 90
11, 54720, Note_off_c, 10, 60, 64
11, 54720, Note_on_c, 10, 65, 62
11, 54840, Note_off_c, 10, 65, 64
11, 54960, Note_on_c, 10, 65, 89
11, 55080, Note_off_c, 10, 65, 64
11, 55170, Note_on_c, 10, 67, 93
11, 55200, Note_off_c, 10, 67, 64
11, 55200, Note_on_c, 10, 65, 90
11, 55320, Note_off_c, 10, 65, 64
11, 55320, Note_on_c, 10, 64, 80
11, 55440, Note_off_c, 10, 64, 64
11, 55440, Note_on_c, 10, 65, 80
11, 55560, Note_off_c, 10, 65, 64
11, 55560, Note_on_c, 10, 68, 80
11, 55680, Note_off_c, 10, 68, 64
11, 55680, Note_on_c, 10, 66, 80
11, 55920, Note_off_c, 10, 66, 64
11, 55920, Note_on_c, 10, 67, 80
11, 56160, Note_off_c, 10, 67, 64
11, 56640, Note_on_c, 10, 63, 80
11, 56880, Note_off_c, 10, 63, 64
11, 56880, Note_on_c, 10, 75, 80
11, 57120, Note_off_c, 10, 75, 64
11, 57360, Note_on_c, 10, 74, 80
11, 57600, Note_off_c, 10, 74, 64
11, 57840, Note_on_c, 10, 72, 80
11, 58080, Note_off_c, 10, 72, 64
11, 58320, Note_on_c, 10, 70, 80
11, 58560, Note_off_c, 10, 70, 64
11, 58800, Note_on_c, 10, 69, 80
11, 59040, Note_off_c, 10, 69, 64
11, 59280, Note_on_c, 10, 66, 80
11, 59520, Note_off_c, 10, 66, 64
11, 59520, Note_on_c, 10, 74, 80
11, 60000, Note_off_c, 10, 74, 64
11, 60000, Note_on_c, 10, 73, 80
11, 60120, Note_off_c, 10, 73, 64
11, 60120, Note_on_c, 10, 74, 80
11, 60240, Note_off_c, 10, 74, 64
11, 60240, Note_on_c, 10, 75, 80
11, 60360, Note_off_c, 10, 75, 64
11, 60360, Note_on_c, 10, 74, 80
11, 60480, Note_off_c, 10, 74, 64
11, 60480, Note_on_c, 10, 74, 85
11, 60600, Note_off_c, 10, 74, 64
11, 60600, Note_on_c, 10, 72, 68
11, 60720, Note_off_c, 10, 72, 64
11, 60720, Note_on_c, 10, 70, 80
11, 60840, Note_off_c, 10, 70, 64
11, 60840, Note_on_c, 10, 69, 82
11, 60960, Note_off_c, 10, 69, 64
11, 60960, Note_on_c, 10, 67, 80
11, 61080, Note_off_c, 10, 67, 64
11, 61080, Note_on_c, 10, 66, 65
11, 61200, Note_off_c, 10, 66, 64
11, 61200, Note_on_c, 10, 64, 85
11, 61320, Note_off_c, 10, 64, 64
11, 61320, Note_on_c, 10, 62, 81
11, 61440, Note_off_c, 10, 62, 64
11, 61440, Note_on_c, 10, 67, 77
11, 61560, Note_off_c, 10, 67, 64
11, 61680, Note_on_c, 10, 67, 84
11, 61800, Note_off_c, 10, 67, 64
11, 61890, Note_on_c, 10, 67, 90
11, 61920, Note_off_c, 10, 67, 64
11, 61920, Note_on_c, 10, 66, 95
11, 62040, Note_off_c, 10, 66, 64
11, 62040, Note_on_c, 10, 66, 80
11, 62160, Note_off_c, 10, 66, 64
11, 62160, Note_on_c, 10, 67, 80
11, 62280, Note_off_c, 10, 67, 64
11, 62280, Note_on_c, 10, 70, 80
11, 62400, Note_off_c, 10, 70, 64
11, 62400, Note_on_c, 10, 68, 80
11, 62640, Note_off_c, 10, 68, 64
11, 62640, Note_on_c, 10, 69, 80
11, 62880, Note_off_c, 10, 69, 64
11, 63360, Note_on_c, 10, 71, 77
11, 63480, Note_off_c, 10, 71, 64
11, 63600, Note_on_c, 10, 71, 82
11, 63720, Note_off_c, 10, 71, 64
11, 63810, Note_on_c, 10, 72, 73
11, 63840, Note_off_c, 10, 72, 64
11, 63840, Note_on_c, 10, 71, 94
11, 63960, Note_off_c, 10, 71, 64
11, 63960, Note_on_c, 10, 69, 80
11, 64080, Note_off_c, 10, 69, 64
11, 64080, Note_on_c, 10, 71, 80
11, 64200, Note_off_c, 10, 71, 64
11, 64200, Note_on_c, 10, 74, 80
11, 64320, Note_off_c, 10, 74, 64
11, 64320, Note_on_c, 10, 71, 80
11, 64560, Note_off_c, 10, 71, 64
11, 64560, Note_on_c, 10, 72, 80
11, 64800, Note_off_c, 10, 72, 64
11, 65280, Note_on_c, 10, 74, 80
11, 65400, Note_off_c, 10, 74, 64
11, 65520, Note_on_c, 10, 74, 77
11, 65640, Note_off_c, 10, 74, 64
11, 65730, Note_on_c, 10, 75, 90
11, 65760, Note_off_c, 10, 75, 64
11, 65760, Note_on_c, 10, 74, 94
11, 65880, Note_off_c, 10, 74, 64
11, 65880, Note_on_c, 10, 72, 80
11, 66000, Note_off_c, 10, 72, 64
11, 66000, Note_on_c, 10, 74, 80
11, 66120, Note_off_c, 10, 74, 64
11, 66120, Note_on_c, 10, 77, 80
11, 66240, Note_off_c, 10, 77, 64
11, 66240, Note_on_c, 10, 75, 80
11, 66480, Note_off_c, 10, 75, 64
11, 66720, Note_on_c, 10, 79, 30
11, 66960, Note_off_c, 10, 79, 64
11, 67200, Note_on_c, 10, 75, 38
11, 67440, Note_off_c, 10, 75, 64
11, 67680, Note_on_c, 10, 72, 38
11, 67920, Note_off_c, 10, 72, 64
11, 68160, Note_on_c, 10, 67, 38
11, 68400, Note_off_c, 10, 67, 64
11, 69120, Note_on_c, 10, 64, 38
11, 69240, Note_off_c, 10, 64, 64
11, 69240, Note_on_c, 10, 65, 43
11, 69300, Note_off_c, 10, 65, 64
11, 69300, Note_on_c, 10, 67, 35
11, 69360, Note_off_c, 10, 67, 64
11, 69360, Note_on_c, 10, 69, 43
11, 69420, Note_off_c, 10, 69, 64
11, 69420, Note_on_c, 10, 71, 41
11, 69480, Note_off_c, 10, 71, 64
11, 69480, Note_on_c, 10, 73, 43
11, 69540, Note_off_c, 10, 73, 64
11, 69540, Note_on_c, 10, 74, 40
11, 69600, Note_off_c, 10, 74, 64
11, 69600, Note_on_c, 10, 76, 40
11, 69720, Note_off_c, 10, 76, 64
11, 69840, Note_on_c, 10, 76, 44
11, 69960, Note_off_c, 10, 76, 64
11, 70080, Note_on_c, 10, 77, 29
11, 70320, Note_off_c, 10, 77, 64
11, 71040, Note_on_c, 10, 62, 38
11, 71160, Note_off_c, 10, 62, 64
11, 71160, Note_on_c, 10, 64, 43
11, 71220, Note_off_c, 10, 64, 64
11, 71220, Note_on_c, 10, 65, 43
11, 71280, Note_off_c, 10, 65, 64
11, 71280, Note_on_c, 10, 67, 35
11, 71340, Note_off_c, 10, 67, 64
11, 71340, Note_on_c, 10, 69, 38
11, 71400, Note_off_c, 10, 69, 64
11, 71400, Note_on_c, 10, 71, 37
11, 71460, Note_off_c, 10, 71, 64
11, 71460, Note_on_c, 10, 72, 32
11, 71520, Note_off_c, 10, 72, 64
11, 71520, Note_on_c, 10, 74, 33
11, 71640, Note_off_c, 10, 74, 64
11, 71760, Note_on_c, 10, 74, 40
11, 71880, Note_off_c, 10, 74, 64
11, 72000, Note_on_c, 10, 76, 125
11, 72240, Note_off_c, 10, 76, 64
11, 72960, Note_on_c, 10, 74, 125
11, 73440, Note_off_c, 10, 74, 64
11, 73440, Note_on_c, 10, 86, 117
11, 73440, Note_on_c, 10, 74, 123
11, 73560, Note_off_c, 10, 74, 64
11, 73560, Note_off_c, 10, 86, 64
11, 73680, Note_on_c, 10, 86, 123
11, 73680, Note_on_c, 10, 74, 123
11, 73800, Note_off_c, 10, 74, 64
11, 73800, Note_off_c, 10, 86, 64
11, 73920, Note_on_c, 10, 86, 123
11, 74040, Note_off_c, 10, 86, 64
11, 74040, Note_on_c, 10, 84, 119
11, 74160, Note_off_c, 10, 84, 64
11, 74160, Note_on_c, 10, 82, 119
11, 74220, Note_off_c, 10, 82, 64
11, 74280, Note_on_c, 10, 81, 117
11, 74340, Note_off_c, 10, 81, 64
11, 74400, Note_on_c, 10, 79, 125
11, 74460, Note_off_c, 10, 79, 64
11, 74520, Note_on_c, 10, 77, 119
11, 74580, Note_off_c, 10, 77, 64
11, 74640, Note_on_c, 10, 76, 125
11, 74700, Note_off_c, 10, 76, 64
11, 74760, Note_on_c, 10, 74, 127
11, 74820, Note_off_c, 10, 74, 64
11, 74880, Note_on_c, 10, 72, 123
11, 75360, Note_off_c, 10, 72, 64
11, 75360, Note_on_c, 10, 84, 127
11, 75480, Note_off_c, 10, 84, 64
11, 75600, Note_on_c, 10, 84, 119
11, 75720, Note_off_c, 10, 84, 64
11, 75840, Note_on_c, 10, 84, 123
11, 75960, Note_off_c, 10, 84, 64
11, 76320, Note_on_c, 10, 72, 119
11, 76440, Note_off_c, 10, 72, 64
11, 76800, Note_on_c, 10, 70, 123
11, 76920, Note_off_c, 10, 70, 64
11, 77280, Note_on_c, 10, 82, 117
11, 77280, Note_on_c, 10, 70, 123
11, 77400, Note_off_c, 10, 70, 64
11, 77400, Note_off_c, 10, 82, 64
11, 77760, Note_on_c, 10, 81, 119
11, 77760, Note_on_c, 10, 69, 117
11, 77880, Note_off_c, 10, 69, 64
11, 77880, Note_off_c, 10, 81, 64
11, 78240, Note_on_c, 10, 81, 119
11, 78300, Note_off_c, 10, 81, 64
11, 78300, Note_on_c, 10, 79, 119
11, 78360, Note_off_c, 10, 79, 64
11, 78360, Note_on_c, 10, 77, 123
11, 78420, Note_off_c, 10, 77, 64
11, 78420, Note_on_c, 10, 76, 125
11, 78480, Note_off_c, 10, 76, 64
11, 78480, Note_on_c, 10, 74, 123
11, 78540, Note_off_c, 10, 74, 64
11, 78540, Note_on_c, 10, 72, 117
11, 78600, Note_off_c, 10, 72, 64
11, 78600, Note_on_c, 10, 71, 119
11, 78660, Note_off_c, 10, 71, 64
11, 78660, Note_on_c, 10, 69, 125
11, 78720, Note_off_c, 10, 69, 64
11, 78720, Note_on_c, 10, 71, 123
11, 78720, Note_on_c, 10, 62, 105
11, 78720, Note_on_c, 10, 55, 104
11, 78960, Note_off_c, 10, 55, 64
11, 78960, Note_off_c, 10, 62, 64
11, 78960, Note_off_c, 10, 71, 64
11, 79200, Note_on_c, 10, 71, 125
11, 79260, Note_off_c, 10, 71, 64
11, 79260, Note_on_c, 10, 72, 112
11, 79320, Note_off_c, 10, 72, 64
11, 79320, Note_on_c, 10, 74, 123
11, 79380, Note_off_c, 10, 74, 64
11, 79380, Note_on_c, 10, 76, 119
11, 79440, Note_off_c, 10, 76, 64
11, 79440, Note_on_c, 10, 77, 123
11, 79500, Note_off_c, 10, 77, 64
11, 79500, Note_on_c, 10, 79, 123
11, 79560, Note_off_c, 10, 79, 64
11, 79560, Note_on_c, 10, 81, 117
11, 79620, Note_off_c, 10, 81, 64
11, 79620, Note_on_c, 10, 83, 117
11, 79680, Note_off_c, 10, 83, 64
11, 79680, Note_on_c, 10, 84, 119
11, 79920, Note_off_c, 10, 84, 64
11, 80160, Note_on_c, 10, 81, 119
11, 80160, Note_on_c, 10, 72, 99
11, 80160, Note_on_c, 10, 65, 117
11, 80400, Note_off_c, 10, 65, 64
11, 80400, Note_off_c, 10, 72, 64
11, 80400, Note_off_c, 10, 81, 64
11, 80640, Note_on_c, 10, 79, 115
11, 80640, Note_on_c, 10, 72, 112
11, 80640, Note_on_c, 10, 64, 123
11, 80880, Note_off_c, 10, 64, 64
11, 80880, Note_off_c, 10, 72, 64
11, 80880, Note_off_c, 10, 79, 64
11, 81120, Note_on_c, 10, 71, 117
11, 81120, Note_on_c, 10, 62, 112
11, 81120, Note_on_c, 10, 55, 117
11, 81360, Note_off_c, 10, 55, 64
11, 81360, Note_off_c, 10, 62, 64
11, 81360, Note_off_c, 10, 71, 64
11, 81600, Note_on_c, 10, 72, 80
11, 81600, Note_on_c, 10, 64, 80
11, 81600, Note_on_c, 10, 55, 80
11, 81840, Note_off_c, 10, 55, 64
11, 81840, Note_off_c, 10, 64, 64
11, 81840, Note_off_c, 10, 72, 64
11, 83760, Note_on_c, 10, 79, 80
11, 83820, Note_off_c, 10, 79, 64
11, 83820, Note_on_c, 10, 78, 80
11, 83880, Note_off_c, 10, 78, 64
11, 83880, Note_on_c, 10, 79, 80
11, 83940, Note_off_c, 10, 79, 64
11, 83940, Note_on_c, 10, 78, 80
11, 84000, Note_off_c, 10, 78, 64
11, 84000, Note_on_c, 10, 79, 74
11, 84120, Note_off_c, 10, 79, 64
11, 84240, Note_on_c, 10, 79, 80
11, 84300, Note_off_c, 10, 79, 64
11, 84300, Note_on_c, 10, 78, 80
11, 84360, Note_off_c, 10, 78, 64
11, 84360, Note_on_c, 10, 79, 80
11, 84420, Note_off_c, 10, 79, 64
11, 84420, Note_on_c, 10, 78, 80
11, 84480, Note_off_c, 10, 78, 64
11, 84480, Note_on_c, 10, 79, 80
11, 84600, Note_off_c, 10, 79, 64
11, 84720, Note_on_c, 10, 67, 72
11, 84780, Note_off_c, 10, 67, 64
11, 84780, Note_on_c, 10, 66, 61
11, 84840, Note_off_c, 10, 66, 64
11, 84840, Note_on_c, 10, 67, 73
11, 84900, Note_off_c, 10, 67, 64
11, 84900, Note_on_c, 10, 66, 68
11, 84960, Note_off_c, 10, 66, 64
11, 84960, Note_on_c, 10, 67, 67
11, 85020, Note_off_c, 10, 67, 64
11, 85020, Note_on_c, 10, 69, 74
11, 85080, Note_off_c, 10, 69, 64
11, 85080, Note_on_c, 10, 71, 80
11, 85140, Note_off_c, 10, 71, 64
11, 85140, Note_on_c, 10, 72, 72
11, 85200, Note_off_c, 10, 72, 64
11, 85200, Note_on_c, 10, 74, 84
11, 85260, Note_off_c, 10, 74, 64
11, 85260, Note_on_c, 10, 76, 73
11, 85320, Note_off_c, 10, 76, 64
11, 85320, Note_on_c, 10, 77, 78
11, 85380, Note_off_c, 10, 77, 64
11, 85380, Note_on_c, 10, 74, 94
11, 85440, Note_off_c, 10, 74, 64
11, 85440, Note_on_c, 10, 72, 80
11, 85680, Note_off_c, 10, 72, 64
11, 87600, Note_on_c, 10, 79, 80
11, 87660, Note_off_c, 10, 79, 64
11, 87660, Note_on_c, 10, 78, 80
11, 87720, Note_off_c, 10, 78, 64
11, 87720, Note_on_c, 10, 79, 80
11, 87780, Note_off_c, 10, 79, 64
11, 87780, Note_on_c, 10, 78, 80
11, 87840, Note_off_c, 10, 78, 64
11, 87840, Note_on_c, 10, 79, 82
11, 87960, Note_off_c, 10, 79, 64
11, 88080, Note_on_c, 10, 79, 80
11, 88140, Note_off_c, 10, 79, 64
11, 88140, Note_on_c, 10, 78, 80
11, 88200, Note_off_c, 10, 78, 64
11, 88200, Note_on_c, 10, 79, 80
11, 88260, Note_off_c, 10, 79, 64
11, 88260, Note_on_c, 10, 78, 80
11, 88320, Note_off_c, 10, 78, 64
11, 88320, Note_on_c, 10, 79, 72
11, 88440, Note_off_c, 10, 79, 64
11, 89520, Note_on_c, 10, 79, 80
11, 89580, Note_off_c, 10, 79, 64
11, 89580, Note_on_c, 10, 78, 80
11, 89640, Note_off_c, 10, 78, 64
11, 89640, Note_on_c, 10, 79, 80
11, 89700, Note_off_c, 10, 79, 64
11, 89700, Note_on_c, 10, 78, 80
11, 89760, Note_off_c, 10, 78, 64
11, 89760, Note_on_c, 10, 79, 78
11, 89880, Note_off_c, 10, 79, 64
11, 90000, Note_on_c, 10, 79, 80
11, 90060, Note_off_c, 10, 79, 64
11, 90060, Note_on_c, 10, 77, 80
11, 90120, Note_off_c, 10, 77, 64
11, 90120, Note_on_c, 10, 76, 80
11, 90180, Note_off_c, 10, 76, 64
11, 90180, Note_on_c, 10, 74, 80
11, 90240, Note_off_c, 10, 74, 64
11, 90240, Note_on_c, 10, 72, 80
11, 90480, Note_off_c, 10, 72, 64
11, 90480, Note_on_c, 10, 76, 74
11, 90540, Note_off_c, 10, 76, 64
11, 90540, Note_on_c, 10, 75, 77
11, 90600, Note_off_c, 10, 75, 64
11, 90600, Note_on_c, 10, 76, 84
11, 90660, Note_off_c, 10, 76, 64
11, 90660, Note_on_c, 10, 75, 72
11, 90720, Note_off_c, 10, 75, 64
11, 90720, Note_on_c, 10, 76, 67
11, 90780, Note_off_c, 10, 76, 64
11, 90780, Note_on_c, 10, 74, 84
11, 90840, Note_off_c, 10, 74, 64
11, 90840, Note_on_c, 10, 72, 76
11, 90900, Note_off_c, 10, 72, 64
11, 90900, Note_on_c, 10, 71, 80
11, 90960, Note_off_c, 10, 71, 64
11, 90960, Note_on_c, 10, 69, 82
11, 91020, Note_off_c, 10, 69, 64
11, 91020, Note_on_c, 10, 67, 73
11, 91080, Note_off_c, 10, 67, 64
11, 91080, Note_on_c, 10, 65, 78
11, 91140, Note_off_c, 10, 65, 64
11, 91140, Note_on_c, 10, 64, 95
11, 91200, Note_off_c, 10, 64, 64
11, 91200, Note_on_c, 10, 62, 80
11, 91440, Note_off_c, 10, 62, 64
11, 91440, Note_on_c, 10, 74, 85
11, 91500, Note_off_c, 10, 74, 64
11, 91500, Note_on_c, 10, 73, 84
11, 91560, Note_off_c, 10, 73, 64
11, 91560, Note_on_c, 10, 74, 89
11, 91620, Note_off_c, 10, 74, 64
11, 91620, Note_on_c, 10, 73, 74
11, 91680, Note_off_c, 10, 73, 64
11, 91680, Note_on_c, 10, 74, 84
11, 91740, Note_off_c, 10, 74, 64
11, 91740, Note_on_c, 10, 72, 77
11, 91800, Note_off_c, 10, 72, 64
11, 91800, Note_on_c, 10, 71, 84
11, 91860, Note_off_c, 10, 71, 64
11, 91860, Note_on_c, 10, 69, 78
11, 91920, Note_off_c, 10, 69, 64
11, 91920, Note_on_c, 10, 67, 84
11, 91980, Note_off_c, 10, 67, 64
11, 91980, Note_on_c, 10, 65, 85
11, 92040, Note_off_c, 10, 65, 64
11, 92040, Note_on_c, 10, 64, 80
11, 92100, Note_off_c, 10, 64, 64
11, 92100, Note_on_c, 10, 62, 84
11, 92160, Note_off_c, 10, 62, 64
11, 92160, Note_on_c, 10, 64, 85
11, 92400, Note_off_c, 10, 64, 64
11, 92400, Note_on_c, 10, 84, 117
11, 92460, Note_off_c, 10, 84, 64
11, 92460, Note_on_c, 10, 83, 107
11, 92520, Note_off_c, 10, 83, 64
11, 92520, Note_on_c, 10, 84, 98
11, 92580, Note_off_c, 10, 84, 64
11, 92580, Note_on_c, 10, 83, 104
11, 92640, Note_off_c, 10, 83, 64
11, 92640, Note_on_c, 10, 84, 99
11, 92700, Note_off_c, 10, 84, 64
11, 92700, Note_on_c, 10, 83, 95
11, 92760, Note_off_c, 10, 83, 64
11, 92760, Note_on_c, 10, 81, 105
11, 92820, Note_off_c, 10, 81, 64
11, 92820, Note_on_c, 10, 79, 105
11, 92880, Note_off_c, 10, 79, 64
11, 92880, Note_on_c, 10, 77, 105
11, 92940, Note_off_c, 10, 77, 64
11, 92940, Note_on_c, 10, 76, 105
11, 93000, Note_off_c, 10, 76, 64
11, 93000, Note_on_c, 10, 74, 112
11, 93060, Note_off_c, 10, 74, 64
11, 93060, Note_on_c, 10, 72, 104
11, 93120, Note_off_c, 10, 72, 64
11, 93120, Note_on_c, 10, 81, 94
11, 93180, Note_off_c, 10, 81, 64
11, 93180, Note_on_c, 10, 80, 86
11, 93240, Note_off_c, 10, 80, 64
11, 93240, Note_on_c, 10, 81, 95
11, 93300, Note_off_c, 10, 81, 64
11, 93300, Note_on_c, 10, 80, 94
11, 93360, Note_off_c, 10, 80, 64
11, 93360, Note_on_c, 10, 81, 94
11, 93420, Note_off_c, 10, 81, 64
11, 93420, Note_on_c, 10, 79, 93
11, 93480, Note_off_c, 10, 79, 64
11, 93480, Note_on_c, 10, 77, 90
11, 93540, Note_off_c, 10, 77, 64
11, 93540, Note_on_c, 10, 76, 80
11, 93600, Note_off_c, 10, 76, 64
11, 93600, Note_on_c, 10, 74, 98
11, 93660, Note_off_c, 10, 74, 64
11, 93660, Note_on_c, 10, 72, 89
11, 93720, Note_off_c, 10, 72, 64
11, 93720, Note_on_c, 10, 71, 93
11, 93780, Note_off_c, 10, 71, 64
11, 93780, Note_on_c, 10, 69, 95
11, 93840, Note_off_c, 10, 69, 64
11, 93840, Note_on_c, 10, 67, 86
11, 93900, Note_off_c, 10, 67, 64
11, 93900, Note_on_c, 10, 65, 99
11, 93960, Note_off_c, 10, 65, 64
11, 93960, Note_on_c, 10, 64, 95
11, 94020, Note_off_c, 10, 64, 64
11, 94020, Note_on_c, 10, 62, 94
11, 94080, Note_off_c, 10, 62, 64
11, 94080, Note_on_c, 10, 60, 80
11, 94320, Note_off_c, 10, 60, 64
11, 95040, Note_on_c, 10, 60, 125
11, 95520, Note_off_c, 10, 60, 64
11, 95520, Note_on_c, 10, 72, 123
11, 95640, Note_off_c, 10, 72, 64
11, 95760, Note_on_c, 10, 72, 119
11, 95880, Note_off_c, 10, 72, 64
11, 96000, Note_on_c, 10, 72, 125
11, 96240, Note_off_c, 10, 72, 64
11, 96960, Note_on_c, 10, 64, 125
11, 97440, Note_off_c, 10, 64, 64
11, 97440, Note_on_c, 10, 76, 125
11, 97560, Note_off_c, 10, 76, 64
11, 97680, Note_on_c, 10, 76, 127
11, 97800, Note_off_c, 10, 76, 64
11, 97920, Note_on_c, 10, 79, 80
11, 98400, Note_off_c, 10, 79, 64
11, 98400, Note_on_c, 10, 79, 80
11, 98520, Note_off_c, 10, 79, 64
11, 98520, Note_on_c, 10, 77, 80
11, 98580, Note_off_c, 10, 77, 64
11, 98580, Note_on_c, 10, 76, 80
11, 98640, Note_off_c, 10, 76, 64
11, 98640, Note_on_c, 10, 74, 80
11, 98700, Note_off_c, 10, 74, 64
11, 98700, Note_on_c, 10, 72, 80
11, 98760, Note_off_c, 10, 72, 64
11, 98760, Note_on_c, 10, 71, 80
11, 98820, Note_off_c, 10, 71, 64
11, 98820, Note_on_c, 10, 69, 80
11, 98880, Note_off_c, 10, 69, 64
11, 98880, Note_on_c, 10, 67, 80
11, 99120, Note_off_c, 10, 67, 64
11, 99360, Note_on_c, 10, 83, 80
11, 99360, Note_on_c, 10, 74, 80
11, 99360, Note_on_c, 10, 67, 80
11, 99600, Note_off_c, 10, 67, 64
11, 99600, Note_off_c, 10, 74, 64
11, 99600, Note_off_c, 10, 83, 64
11, 99840, Note_on_c, 10, 84, 80
11, 99840, Note_on_c, 10, 76, 80
11, 99840, Note_on_c, 10, 67, 80
11, 100080, Note_off_c, 10, 67, 64
11, 100080, Note_off_c, 10, 76, 64
11, 100080, Note_off_c, 10, 84, 64
11, 100260, Note_on_c, 10, 72, 80
11, 100260, Note_on_c, 10, 64, 80
11, 100320, Note_off_c, 10, 64, 64
11, 100320, Note_off_c, 10, 72, 64
11, 100320, Note_on_c, 10, 72, 80
11, 100320, Note_on_c, 10, 64, 80
11, 100560, Note_off_c, 10, 64, 64
11, 100560, Note_off_c, 10, 72, 64
11, 100740, Note_on_c, 10, 60, 80
11, 100800, Note_off_c, 10, 60, 64
11, 100800, Note_on_c, 10, 60, 80
11, 101040, Note_off_c, 10, 60, 64
11, 109440, Note_on_c, 10, 72, 80
11, 110160, Note_off_c, 10, 72, 64
11, 110160, Note_on_c, 10, 73, 80
11, 110400, Note_off_c, 10, 73, 64
11, 110400, Note_on_c, 10, 74, 80
11, 110640, Note_off_c, 10, 74, 64
11, 110640, Note_on_c, 10, 65, 80
11, 110880, Note_off_c, 10, 65, 64
11, 110880, Note_on_c, 10, 65, 80
11, 111120, Note_off_c, 10, 65, 64
11, 111120, Note_on_c, 10, 65, 80
11, 111360, Note_off_c, 10, 65, 64
11, 111600, Note_on_c, 10, 65, 80
11, 111840, Note_off_c, 10, 65, 64
11, 111840, Note_on_c, 10, 65, 80
11, 112080, Note_off_c, 10, 65, 64
11, 112080, Note_on_c, 10, 65, 80
11, 112320, Note_off_c, 10, 65, 64
11, 112320, Note_on_c, 10, 72, 80
11, 112320, Note_on_c, 10, 64, 80
11, 112320, Note_on_c, 10, 55, 80
11, 112560, Note_off_c, 10, 55, 64
11, 112560, Note_off_c, 10, 64, 64
11, 112560, Note_off_c, 10, 72, 64
11, 115440, Note_on_c, 10, 67, 80
11, 115680, Note_off_c, 10, 67, 64
11, 115680, Note_on_c, 10, 72, 80
11, 115920, Note_off_c, 10, 72, 64
11, 115920, Note_on_c, 10, 76, 80
11, 116160, Note_off_c, 10, 76, 64
11, 116160, Note_on_c, 10, 74, 80
11, 116160, Note_on_c, 10, 67, 80
11, 116160, Note_on_c, 10, 59, 80
11, 116640, Note_off_c, 10, 59, 64
11, 116640, Note_off_c, 10, 67, 64
11, 116640, Note_off_c, 10, 74, 64
11, 119280, Note_on_c, 10, 74, 80
11, 119520, Note_off_c, 10, 74, 64
11, 119520, Note_on_c, 10, 76, 80
11, 119760, Note_off_c, 10, 76, 64
11, 119760, Note_on_c, 10, 77, 80
11, 120000, Note_off_c, 10, 77, 64
11, 120000, Note_on_c, 10, 76, 80
11, 120240, Note_off_c, 10, 76, 64
11, 121920, Note_on_c, 10, 69, 98
11, 121980, Note_off_c, 10, 69, 64
11, 122040, Note_on_c, 10, 76, 80
11, 122160, Note_off_c, 10, 76, 64
11, 122160, Note_on_c, 10, 72, 80
11, 122280, Note_off_c, 10, 72, 64
11, 122280, Note_on_c, 10, 71, 80
11, 122400, Note_off_c, 10, 71, 64
11, 122400, Note_on_c, 10, 69, 95
11, 122460, Note_off_c, 10, 69, 64
11, 122520, Note_on_c, 10, 76, 80
11, 122640, Note_off_c, 10, 76, 64
11, 122640, Note_on_c, 10, 72, 80
11, 122760, Note_off_c, 10, 72, 64
11, 122760, Note_on_c, 10, 71, 80
11, 122880, Note_off_c, 10, 71, 64
11, 122880, Note_on_c, 10, 69, 80
11, 123120, Note_off_c, 10, 69, 64
11, 125760, Note_on_c, 10, 67, 95
11, 125820, Note_off_c, 10, 67, 64
11, 125880, Note_on_c, 10, 74, 80
11, 126000, Note_off_c, 10, 74, 64
11, 126000, Note_on_c, 10, 71, 80
11, 126120, Note_off_c, 10, 71, 64
11, 126120, Note_on_c, 10, 69, 80
11, 126240, Note_off_c, 10, 69, 64
11, 126240, Note_on_c, 10, 67, 99
11, 126300, Note_off_c, 10, 67, 64
11, 126360, Note_on_c, 10, 74, 80
11, 126480, Note_off_c, 10, 74, 64
11, 126480, Note_on_c, 10, 71, 80
11, 126600, Note_off_c, 10, 71, 64
11, 126600, Note_on_c, 10, 69, 80
11, 126720, Note_off_c, 10, 69, 64
11, 126720, Note_on_c, 10, 67, 80
11, 126960, Note_off_c, 10, 67, 64
11, 127920, Note_on_c, 10, 62, 80
11, 128160, Note_off_c, 10, 62, 64
11, 128160, Note_on_c, 10, 74, 80
11, 128400, Note_off_c, 10, 74, 64
11, 128400, Note_on_c, 10, 62, 80
11, 128640, Note_off_c, 10, 62, 64
11, 128880, Note_on_c, 10, 62, 80
11, 129120, Note_off_c, 10, 62, 64
11, 129120, Note_on_c, 10, 74, 80
11, 129360, Note_off_c, 10, 74, 64
11, 129360, Note_on_c, 10, 62, 80
11, 129600, Note_off_c, 10, 62, 64
11, 129840, Note_on_c, 10, 62, 80
11, 130080, Note_off_c, 10, 62, 64
11, 130080, Note_on_c, 10, 74, 80
11, 130320, Note_off_c, 10, 74, 64
11, 130320, Note_on_c, 10, 62, 80
11, 130560, Note_off_c, 10, 62, 64
11, 130800, Note_on_c, 10, 62, 80
11, 131040, Note_off_c, 10, 62, 64
11, 131040, Note_on_c, 10, 74, 80
11, 131280, Note_off_c, 10, 74, 64
11, 131280, Note_on_c, 10, 62, 80
11, 131520, Note_off_c, 10, 62, 64
11, 131760, Note_on_c, 10, 62, 80
11, 132000, Note_off_c, 10, 62, 64
11, 132000, Note_on_c, 10, 74, 80
11, 132240, Note_off_c, 10, 74, 64
11, 132240, Note_on_c, 10, 62, 80
11, 132480, Note_off_c, 10, 62, 64
11, 132720, Note_on_c, 10, 62, 80
11, 132960, Note_off_c, 10, 62, 64
11, 132960, Note_on_c, 10, 74, 80
11, 133200, Note_off_c, 10, 74, 64
11, 133200, Note_on_c, 10, 62, 80
11, 133440, Note_off_c, 10, 62, 64
11, 133680, Note_on_c, 10, 62, 80
11, 133920, Note_off_c, 10, 62, 64
11, 133920, Note_on_c, 10, 65, 80
11, 134160, Note_off_c, 10, 65, 64
11, 134160, Note_on_c, 10, 62, 80
11, 134400, Note_off_c, 10, 62, 64
11, 134400, Note_on_c, 10, 67, 32
11, 134640, Note_off_c, 10, 67, 64
11, 134640, Note_on_c, 10, 67, 72
11, 134880, Note_off_c, 10, 67, 64
11, 134880, Note_on_c, 10, 68, 61
11, 135120, Note_off_c, 10, 68, 64
11, 135120, Note_on_c, 10, 74, 76
11, 135360, Note_off_c, 10, 74, 64
11, 135360, Note_on_c, 10, 75, 70
11, 135600, Note_off_c, 10, 75, 64
11, 135600, Note_on_c, 10, 67, 71
11, 135840, Note_off_c, 10, 67, 64
11, 135840, Note_on_c, 10, 68, 89
11, 136080, Note_off_c, 10, 68, 64
11, 136080, Note_on_c, 10, 74, 80
11, 136320, Note_off_c, 10, 74, 64
11, 136320, Note_on_c, 10, 75, 86
11, 136560, Note_off_c, 10, 75, 64
11, 136800, Note_on_c, 10, 67, 63
11, 137280, Note_off_c, 10, 67, 64
11, 137280, Note_on_c, 10, 67, 67
11, 138240, Note_off_c, 10, 67, 64
11, 138240, Note_on_c, 10, 66, 76
11, 138480, Note_off_c, 10, 66, 64
11, 144840, Note_on_c, 10, 70, 73
11, 144900, Note_off_c, 10, 70, 64
11, 144960, Note_on_c, 10, 69, 84
11, 145080, Note_off_c, 10, 69, 64
11, 145200, Note_on_c, 10, 70, 84
11, 145320, Note_off_c, 10, 70, 64
11, 145440, Note_on_c, 10, 69, 82
11, 145560, Note_off_c, 10, 69, 64
11, 145680, Note_on_c, 10, 70, 80
11, 145800, Note_off_c, 10, 70, 64
11, 145920, Note_on_c, 10, 69, 86
11, 146040, Note_off_c, 10, 69, 64
11, 146400, Note_on_c, 10, 62, 64
11, 146520, Note_off_c, 10, 62, 64
11, 146880, Note_on_c, 10, 62, 68
11, 147000, Note_off_c, 10, 62, 64
11, 147480, Note_on_c, 10, 62, 80
11, 147540, Note_off_c, 10, 62, 64
11, 147600, Note_on_c, 10, 67, 84
11, 147660, Note_off_c, 10, 67, 64
11, 147720, Note_on_c, 10, 71, 84
11, 147780, Note_off_c, 10, 71, 64
11, 147840, Note_on_c, 10, 74, 80
11, 148320, Note_off_c, 10, 74, 64
11, 148320, Note_on_c, 10, 73, 59
11, 148440, Note_off_c, 10, 73, 64
11, 148440, Note_on_c, 10, 74, 86
11, 148560, Note_off_c, 10, 74, 64
11, 148560, Note_on_c, 10, 76, 89
11, 148680, Note_off_c, 10, 76, 64
11, 148680, Note_on_c, 10, 74, 94
11, 148800, Note_off_c, 10, 74, 64
11, 148800, Note_on_c, 10, 74, 94
11, 148920, Note_off_c, 10, 74, 64
11, 148920, Note_on_c, 10, 72, 81
11, 149040, Note_off_c, 10, 72, 64
11, 149040, Note_on_c, 10, 71, 73
11, 149160, Note_off_c, 10, 71, 64
11, 149160, Note_on_c, 10, 69, 81
11, 149280, Note_off_c, 10, 69, 64
11, 149280, Note_on_c, 10, 67, 80
11, 149400, Note_off_c, 10, 67, 64
11, 149400, Note_on_c, 10, 66, 74
11, 149520, Note_off_c, 10, 66, 64
11, 149520, Note_on_c, 10, 64, 78
11, 149640, Note_off_c, 10, 64, 64
11, 149640, Note_on_c, 10, 62, 89
11, 149760, Note_off_c, 10, 62, 64
11, 149760, Note_on_c, 10, 67, 90
11, 150000, Note_off_c, 10, 67, 64
11, 150000, Note_on_c, 10, 67, 95
11, 150210, Note_on_c, 10, 69, 86
11, 150240, Note_off_c, 10, 69, 64
11, 150240, Note_off_c, 10, 67, 64
11, 150240, Note_on_c, 10, 67, 89
11, 150360, Note_off_c, 10, 67, 64
11, 150360, Note_on_c, 10, 66, 84
11, 150480, Note_off_c, 10, 66, 64
11, 150480, Note_on_c, 10, 67, 89
11, 150600, Note_off_c, 10, 67, 64
11, 150600, Note_on_c, 10, 71, 80
11, 150720, Note_off_c, 10, 71, 64
11, 150720, Note_on_c, 10, 68, 73
11, 150960, Note_off_c, 10, 68, 64
11, 150960, Note_on_c, 10, 69, 82
11, 151200, Note_off_c, 10, 69, 64
11, 151680, Note_on_c, 10, 71, 89
11, 152160, Note_off_c, 10, 71, 64
11, 152160, Note_on_c, 10, 70, 74
11, 152280, Note_off_c, 10, 70, 64
11, 152280, Note_on_c, 10, 71, 80
11, 152400, Note_off_c, 10, 71, 64
11, 152400, Note_on_c, 10, 72, 78
11, 152520, Note_off_c, 10, 72, 64
11, 152520, Note_on_c, 10, 71, 78
11, 152640, Note_off_c, 10, 71, 64
11, 152640, Note_on_c, 10, 69, 86
11, 152760, Note_off_c, 10, 69, 64
11, 152760, Note_on_c, 10, 67, 73
11, 152880, Note_off_c, 10, 67, 64
11, 152880, Note_on_c, 10, 66, 77
11, 153000, Note_off_c, 10, 66, 64
11, 153000, Note_on_c, 10, 64, 89
11, 153120, Note_off_c, 10, 64, 64
11, 153120, Note_on_c, 10, 63, 82
11, 153240, Note_off_c, 10, 63, 64
11, 153240, Note_on_c, 10, 64, 84
11, 153360, Note_off_c, 10, 64, 64
11, 153360, Note_on_c, 10, 67, 86
11, 153480, Note_off_c, 10, 67, 64
11, 153480, Note_on_c, 10, 64, 94
11, 153600, Note_off_c, 10, 64, 64
11, 153600, Note_on_c, 10, 62, 94
11, 153960, Note_off_c, 10, 62, 64
11, 153960, Note_on_c, 10, 66, 89
11, 154080, Note_off_c, 10, 66, 64
11, 154080, Note_on_c, 10, 69, 85
11, 154200, Note_off_c, 10, 69, 64
11, 154200, Note_on_c, 10, 68, 94
11, 154320, Note_off_c, 10, 68, 64
11, 154320, Note_on_c, 10, 67, 84
11, 154440, Note_off_c, 10, 67, 64
11, 154440, Note_on_c, 10, 64, 94
11, 154560, Note_off_c, 10, 64, 64
11, 154560, Note_on_c, 10, 62, 89
11, 154800, Note_off_c, 10, 62, 64
11, 155520, Note_on_c, 10, 71, 80
11, 156480, Note_off_c, 10, 71, 64
11, 156480, Note_on_c, 10, 72, 80
11, 157440, Note_off_c, 10, 72, 64
11, 157440, Note_on_c, 10, 74, 80
11, 157680, Note_off_c, 10, 74, 64
11, 157680, Note_on_c, 10, 74, 80
11, 157920, Note_off_c, 10, 74, 64
11, 158160, Note_on_c, 10, 71, 80
11, 158400, Note_off_c, 10, 71, 64
11, 158640, Note_on_c, 10, 69, 80
11, 158880, Note_off_c, 10, 69, 64
11, 159360, Note_on_c, 10, 69, 80
11, 159840, Note_off_c, 10, 69, 64
11, 159840, Note_on_c, 10, 69, 80
11, 160320, Note_off_c, 10, 69, 64
11, 160320, Note_on_c, 10, 67, 80
11, 160560, Note_off_c, 10, 67, 64
11, 161040, Note_on_c, 10, 67, 80
11, 161280, Note_off_c, 10, 67, 64
11, 161280, Note_on_c, 10, 67, 80
11, 161520, Note_off_c, 10, 67, 64
11, 161520, Note_on_c, 10, 67, 80
11, 161760, Note_off_c, 10, 67, 64
11, 161760, Note_on_c, 10, 67, 80
11, 162000, Note_off_c, 10, 67, 64
11, 162000, Note_on_c, 10, 67, 80
11, 162240, Note_off_c, 10, 67, 64
11, 162240, Note_on_c, 10, 66, 80
11, 162480, Note_off_c, 10, 66, 64
11, 162960, Note_on_c, 10, 66, 80
11, 163200, Note_off_c, 10, 66, 64
11, 163200, Note_on_c, 10, 72, 80
11, 163440, Note_off_c, 10, 72, 64
11, 163440, Note_on_c, 10, 72, 80
11, 163680, Note_off_c, 10, 72, 64
11, 163680, Note_on_c, 10, 72, 80
11, 163920, Note_off_c, 10, 72, 64
11, 163920, Note_on_c, 10, 72, 80
11, 164160, Note_off_c, 10, 72, 64
11, 164160, Note_on_c, 10, 71, 80
11, 164400, Note_off_c, 10, 71, 64
11, 164400, Note_on_c, 10, 71, 80
11, 164640, Note_off_c, 10, 71, 64
11, 164880, Note_on_c, 10, 72, 80
11, 165120, Note_off_c, 10, 72, 64
11, 165360, Note_on_c, 10, 71, 80
11, 165600, Note_off_c, 10, 71, 64
11, 165840, Note_on_c, 10, 69, 80
11, 166080, Note_off_c, 10, 69, 64
11, 166080, Note_on_c, 10, 67, 80
11, 166320, Note_off_c, 10, 67, 64
11, 167040, Note_on_c, 10, 68, 80
11, 168000, Note_off_c, 10, 68, 64
11, 168000, Note_on_c, 10, 67, 80
11, 168240, Note_off_c, 10, 67, 64
11, 168960, Note_on_c, 10, 65, 80
11, 169920, Note_off_c, 10, 65, 64
11, 169920, Note_on_c, 10, 63, 80
11, 170160, Note_off_c, 10, 63, 64
11, 170880, Note_on_c, 10, 75, 80
11, 171840, Note_off_c, 10, 75, 64
11, 171840, Note_on_c, 10, 74, 80
11, 172080, Note_off_c, 10, 74, 64
11, 172080, Note_on_c, 10, 74, 80
11, 172320, Note_off_c, 10, 74, 64
11, 172560, Note_on_c, 10, 72, 80
11, 172800, Note_off_c, 10, 72, 64
11, 173040, Note_on_c, 10, 70, 80
11, 173280, Note_off_c, 10, 70, 64
11, 173520, Note_on_c, 10, 69, 80
11, 173760, Note_off_c, 10, 69, 64
11, 173760, Note_on_c, 10, 67, 80
11, 174000, Note_off_c, 10, 67, 64
11, 174720, Note_on_c, 10, 74, 80
11, 175680, Note_off_c, 10, 74, 64
11, 175680, Note_on_c, 10, 74, 80
11, 175920, Note_off_c, 10, 74, 64
11, 175920, Note_on_c, 10, 62, 80
11, 176160, Note_off_c, 10, 62, 64
11, 176160, Note_on_c, 10, 62, 80
11, 176400, Note_off_c, 10, 62, 64
11, 176400, Note_on_c, 10, 62, 80
11, 176640, Note_off_c, 10, 62, 64
11, 176640, Note_on_c, 10, 62, 78
11, 176760, Note_off_c, 10, 62, 64
11, 176760, Note_on_c, 10, 71, 80
11, 176880, Note_off_c, 10, 71, 64
11, 176880, Note_on_c, 10, 69, 77
11, 177000, Note_off_c, 10, 69, 64
11, 177000, Note_on_c, 10, 67, 76
11, 177120, Note_off_c, 10, 67, 64
11, 177120, Note_on_c, 10, 66, 86
11, 177240, Note_off_c, 10, 66, 64
11, 177240, Note_on_c, 10, 64, 85
11, 177360, Note_off_c, 10, 64, 64
11, 177360, Note_on_c, 10, 62, 74
11, 177480, Note_off_c, 10, 62, 64
11, 177480, Note_on_c, 10, 60, 82
11, 177600, Note_off_c, 10, 60, 64
11, 177600, Note_on_c, 10, 59, 86
11, 177840, Note_off_c, 10, 59, 64
11, 179760, Note_on_c, 10, 71, 80
11, 180000, Note_off_c, 10, 71, 64
11, 180240, Note_on_c, 10, 69, 80
11, 180480, Note_off_c, 10, 69, 64
11, 180480, Note_on_c, 10, 71, 80
11, 180720, Note_off_c, 10, 71, 64
11, 181680, Note_on_c, 10, 62, 80
11, 181920, Note_off_c, 10, 62, 64
11, 182160, Note_on_c, 10, 62, 80
11, 182400, Note_off_c, 10, 62, 64
11, 182400, Note_on_c, 10, 62, 80
11, 182640, Note_off_c, 10, 62, 64
11, 184080, Note_on_c, 10, 66, 74
11, 184110, Note_off_c, 10, 66, 64
11, 184110, Note_on_c, 10, 67, 69
11, 184140, Note_off_c, 10, 67, 64
11, 184140, Note_on_c, 10, 66, 74
11, 184170, Note_off_c, 10, 66, 64
11, 184170, Note_on_c, 10, 67, 76
11, 184200, Note_off_c, 10, 67, 64
11, 184200, Note_on_c, 10, 66, 78
11, 184230, Note_off_c, 10, 66, 64
11, 184230, Note_on_c, 10, 67, 82
11, 184260, Note_off_c, 10, 67, 64
11, 184260, Note_on_c, 10, 66, 81
11, 184290, Note_off_c, 10, 66, 64
11, 184290, Note_on_c, 10, 67, 74
11, 184320, Note_off_c, 10, 67, 64
11, 184320, Note_on_c, 10, 67, 80
11, 184560, Note_off_c, 10, 67, 64
11, 184560, Note_on_c, 10, 55, 80
11, 184800, Note_off_c, 10, 55, 64
11, 186000, Note_on_c, 10, 69, 80
11, 186030, Note_off_c, 10, 69, 64
11, 186030, Note_on_c, 10, 71, 55
11, 186060, Note_off_c, 10, 71, 64
11, 186060, Note_on_c, 10, 69, 74
11, 186090, Note_off_c, 10, 69, 64
11, 186090, Note_on_c, 10, 71, 72
11, 186120, Note_off_c, 10, 71, 64
11, 186120, Note_on_c, 10, 69, 81
11, 186150, Note_off_c, 10, 69, 64
11, 186150, Note_on_c, 10, 71, 48
11, 186180, Note_off_c, 10, 71, 64
11, 186180, Note_on_c, 10, 69, 76
11, 186210, Note_off_c, 10, 69, 64
11, 186210, Note_on_c, 10, 71, 73
11, 186240, Note_off_c, 10, 71, 64
11, 186240, Note_on_c, 10, 71, 80
11, 186480, Note_off_c, 10, 71, 64
11, 186480, Note_on_c, 10, 55, 80
11, 186720, Note_off_c, 10, 55, 64
11, 193920, Note_on_c, 10, 67, 80
11, 194160, Note_off_c, 10, 67, 64
11, 194160, Note_on_c, 10, 67, 80
11, 194400, Note_off_c, 10, 67, 64
11, 194640, Note_on_c, 10, 69, 80
11, 194880, Note_off_c, 10, 69, 64
11, 195120, Note_on_c, 10, 71, 80
11, 195360, Note_off_c, 10, 71, 64
11, 195600, Note_on_c, 10, 66, 80
11, 195840, Note_off_c, 10, 66, 64
11, 195840, Note_on_c, 10, 67, 80
11, 196080, Note_off_c, 10, 67, 64
11, 197520, Note_on_c, 10, 78, 80
11, 197550, Note_off_c, 10, 78, 64
11, 197550, Note_on_c, 10, 79, 80
11, 197580, Note_off_c, 10, 79, 64
11, 197580, Note_on_c, 10, 78, 77
11, 197610, Note_off_c, 10, 78, 64
11, 197610, Note_on_c, 10, 79, 89
11, 197640, Note_off_c, 10, 79, 64
11, 197640, Note_on_c, 10, 78, 74
11, 197670, Note_off_c, 10, 78, 64
11, 197670, Note_on_c, 10, 79, 84
11, 197700, Note_off_c, 10, 79, 64
11, 197700, Note_on_c, 10, 78, 84
11, 197730, Note_off_c, 10, 78, 64
11, 197730, Note_on_c, 10, 79, 89
11, 197760, Note_off_c, 10, 79, 64
11, 197760, Note_on_c, 10, 79, 80
11, 198000, Note_off_c, 10, 79, 64
11, 198000, Note_on_c, 10, 67, 80
11, 198240, Note_off_c, 10, 67, 64
11, 199440, Note_on_c, 10, 81, 81
11, 199470, Note_off_c, 10, 81, 64
11, 199470, Note_on_c, 10, 83, 74
11, 199500, Note_off_c, 10, 83, 64
11, 199500, Note_on_c, 10, 81, 80
11, 199530, Note_off_c, 10, 81, 64
11, 199530, Note_on_c, 10, 83, 78
11, 199560, Note_off_c, 10, 83, 64
11, 199560, Note_on_c, 10, 81, 81
11, 199590, Note_off_c, 10, 81, 64
11, 199590, Note_on_c, 10, 83, 77
11, 199620, Note_off_c, 10, 83, 64
11, 199620, Note_on_c, 10, 81, 76
11, 199650, Note_off_c, 10, 81, 64
11, 199650, Note_on_c, 10, 83, 66
11, 199680, Note_off_c, 10, 83, 64
11, 199680, Note_on_c, 10, 83, 80
11, 199920, Note_off_c, 10, 83, 64
11, 199920, Note_on_c, 10, 59, 84
11, 200040, Note_off_c, 10, 59, 64
11, 200160, Note_on_c, 10, 60, 68
11, 200280, Note_off_c, 10, 60, 64
11, 200400, Note_on_c, 10, 62, 70
11, 200520, Note_off_c, 10, 62, 64
11, 200640, Note_on_c, 10, 64, 81
11, 200760, Note_off_c, 10, 64, 64
11, 200880, Note_on_c, 10, 66, 82
11, 201000, Note_off_c, 10, 66, 64
11, 201120, Note_on_c, 10, 67, 76
11, 201240, Note_off_c, 10, 67, 64
11, 201360, Note_on_c, 10, 69, 84
11, 201480, Note_off_c, 10, 69, 64
11, 201600, Note_on_c, 10, 71, 62
11, 201720, Note_off_c, 10, 71, 64
11, 205440, Note_on_c, 10, 76, 80
11, 206400, Note_off_c, 10, 76, 64
11, 206400, Note_on_c, 10, 76, 80
11, 207360, Note_off_c, 10, 76, 64
11, 207360, Note_on_c, 10, 76, 80
11, 208320, Note_off_c, 10, 76, 64
11, 208320, Note_on_c, 10, 74, 80
11, 209280, Note_off_c, 10, 74, 64
11, 209280, Note_on_c, 10, 73, 80
11, 210240, Note_off_c, 10, 73, 64
11, 210240, Note_on_c, 10, 72, 80
11, 210480, Note_off_c, 10, 72, 64
11, 214080, Note_on_c, 10, 78, 80
11, 214560, Note_off_c, 10, 78, 64
11, 214560, Note_on_c, 10, 79, 80
11, 214680, Note_off_c, 10, 79, 64
11, 214680, Note_on_c, 10, 78, 80
11, 214800, Note_off_c, 10, 78, 64
11, 214800, Note_on_c, 10, 79, 80
11, 214920, Note_off_c, 10, 79, 64
11, 214920, Note_on_c, 10, 76, 80
11, 215040, Note_off_c, 10, 76, 64
11, 215040, Note_on_c, 10, 74, 74
11, 215280, Note_off_c, 10, 74, 64
11, 215280, Note_on_c, 10, 71, 84
11, 215760, Note_off_c, 10, 71, 64
11, 215760, Note_on_c, 10, 69, 76
11, 216000, Note_off_c, 10, 69, 64
11, 216000, Note_on_c, 10, 67, 73
11, 216240, Note_off_c, 10, 67, 64
11, 216240, Note_on_c, 10, 74, 80
11, 216720, Note_off_c, 10, 74, 64
11, 216720, Note_on_c, 10, 72, 76
11, 216960, Note_off_c, 10, 72, 64
11, 216960, Note_on_c, 10, 71, 86
11, 217200, Note_off_c, 10, 71, 64
11, 224640, Note_on_c, 10, 69, 84
11, 224640, Note_on_c, 10, 66, 76
11, 224760, Note_off_c, 10, 66, 64
11, 224760, Note_off_c, 10, 69, 64
11, 224760, Note_on_c, 10, 69, 89
11, 224760, Note_on_c, 10, 66, 80
11, 224880, Note_off_c, 10, 66, 64
11, 224880, Note_off_c, 10, 69, 64
11, 224880, Note_on_c, 10, 69, 84
11, 224880, Note_on_c, 10, 66, 73
11, 225000, Note_off_c, 10, 66, 64
11, 225000, Note_off_c, 10, 69, 64
11, 225000, Note_on_c, 10, 69, 82
11, 225000, Note_on_c, 10, 66, 76
11, 225120, Note_off_c, 10, 66, 64
11, 225120, Note_off_c, 10, 69, 64
11, 225120, Note_on_c, 10, 69, 84
11, 225120, Note_on_c, 10, 66, 77
11, 225240, Note_off_c, 10, 66, 64
11, 225240, Note_off_c, 10, 69, 64
11, 225240, Note_on_c, 10, 69, 84
11, 225240, Note_on_c, 10, 66, 74
11, 225360, Note_off_c, 10, 66, 64
11, 225360, Note_off_c, 10, 69, 64
11, 225360, Note_on_c, 10, 69, 84
11, 225360, Note_on_c, 10, 66, 76
11, 225480, Note_off_c, 10, 66, 64
11, 225480, Note_off_c, 10, 69, 64
11, 225480, Note_on_c, 10, 69, 84
11, 225480, Note_on_c, 10, 66, 71
11, 225600, Note_off_c, 10, 66, 64
11, 225600, Note_off_c, 10, 69, 64
11, 225600, Note_on_c, 10, 69, 84
11, 225600, Note_on_c, 10, 66, 72
11, 225720, Note_off_c, 10, 66, 64
11, 225720, Note_off_c, 10, 69, 64
11, 225720, Note_on_c, 10, 69, 84
11, 225720, Note_on_c, 10, 66, 77
11, 225840, Note_off_c, 10, 66, 64
11, 225840, Note_off_c, 10, 69, 64
11, 225840, Note_on_c, 10, 69, 84
11, 225840, Note_on_c, 10, 66, 72
11, 225960, Note_off_c, 10, 66, 64
11, 225960, Note_off_c, 10, 69, 64
11, 225960, Note_on_c, 10, 69, 81
11, 225960, Note_on_c, 10, 66, 73
11, 226080, Note_off_c, 10, 66, 64
11, 226080, Note_off_c, 10, 69, 64
11, 226080, Note_on_c, 10, 69, 81
11, 226080, Note_on_c, 10, 66, 69
11, 226200, Note_off_c, 10, 66, 64
11, 226200, Note_off_c, 10, 69, 64
11, 226200, Note_on_c, 10, 69, 80
11, 226200, Note_on_c, 10, 66, 73
11, 226320, Note_off_c, 10, 66, 64
11, 226320, Note_off_c, 10, 69, 64
11, 226320, Note_on_c, 10, 69, 80
11, 226320, Note_on_c, 10, 66, 76
11, 226440, Note_off_c, 10, 66, 64
11, 226440, Note_off_c, 10, 69, 64
11, 226440, Note_on_c, 10, 69, 84
11, 226440, Note_on_c, 10, 66, 81
11, 226560, Note_off_c, 10, 66, 64
11, 226560, Note_off_c, 10, 69, 64
11, 226560, Note_on_c, 10, 67, 65
11, 226560, Note_on_c, 10, 55, 90
11, 227040, Note_off_c, 10, 55, 64
11, 227040, Note_off_c, 10, 67, 64
11, 227520, Note_on_c, 10, 64, 94
11, 227640, Note_off_c, 10, 64, 64
11, 227640, Note_on_c, 10, 65, 89
11, 227700, Note_off_c, 10, 65, 64
11, 227700, Note_on_c, 10, 67, 94
11, 227760, Note_off_c, 10, 67, 64
11, 227760, Note_on_c, 10, 69, 94
11, 227820, Note_off_c, 10, 69, 64
11, 227820, Note_on_c, 10, 71, 94
11, 227880, Note_off_c, 10, 71, 64
11, 227880, Note_on_c, 10, 73, 76
11, 227940, Note_off_c, 10, 73, 64
11, 227940, Note_on_c, 10, 74, 98
11, 228000, Note_off_c, 10, 74, 64
11, 228000, Note_on_c, 10, 76, 76
11, 228120, Note_off_c, 10, 76, 64
11, 228240, Note_on_c, 10, 76, 89
11, 228360, Note_off_c, 10, 76, 64
11, 228480, Note_on_c, 10, 77, 89
11, 228720, Note_off_c, 10, 77, 64
11, 229440, Note_on_c, 10, 62, 85
11, 229560, Note_off_c, 10, 62, 64
11, 229560, Note_on_c, 10, 64, 89
11, 229620, Note_off_c, 10, 64, 64
11, 229620, Note_on_c, 10, 65, 95
11, 229680, Note_off_c, 10, 65, 64
11, 229680, Note_on_c, 10, 67, 93
11, 229740, Note_off_c, 10, 67, 64
11, 229740, Note_on_c, 10, 69, 89
11, 229800, Note_off_c, 10, 69, 64
11, 229800, Note_on_c, 10, 71, 89
11, 229860, Note_off_c, 10, 71, 64
11, 229860, Note_on_c, 10, 72, 86
11, 229920, Note_off_c, 10, 72, 64
11, 229920, Note_on_c, 10, 74, 90
11, 230040, Note_off_c, 10, 74, 64
11, 230160, Note_on_c, 10, 74, 94
11, 230280, Note_off_c, 10, 74, 64
11, 230400, Note_on_c, 10, 76, 80
11, 230640, Note_off_c, 10, 76, 64
11, 231360, Note_on_c, 10, 74, 105
11, 231840, Note_off_c, 10, 74, 64
11, 231840, Note_on_c, 10, 86, 95
11, 231960, Note_off_c, 10, 86, 64
11, 232080, Note_on_c, 10, 86, 99
11, 232200, Note_off_c, 10, 86, 64
11, 232320, Note_on_c, 10, 86, 76
11, 232440, Note_off_c, 10, 86, 64
11, 232440, Note_on_c, 10, 84, 89
11, 232560, Note_off_c, 10, 84, 64
11, 232560, Note_on_c, 10, 83, 84
11, 232620, Note_off_c, 10, 83, 64
11, 232680, Note_on_c, 10, 81, 93
11, 232740, Note_off_c, 10, 81, 64
11, 232800, Note_on_c, 10, 79, 89
11, 232860, Note_off_c, 10, 79, 64
11, 232920, Note_on_c, 10, 77, 86
11, 232980, Note_off_c, 10, 77, 64
11, 233040, Note_on_c, 10, 76, 94
11, 233100, Note_off_c, 10, 76, 64
11, 233160, Note_on_c, 10, 74, 99
11, 233220, Note_off_c, 10, 74, 64
11, 233280, Note_on_c, 10, 76, 99
11, 233760, Note_off_c, 10, 76, 64
11, 233760, Note_on_c, 10, 88, 99
11, 233880, Note_off_c, 10, 88, 64
11, 234000, Note_on_c, 10, 88, 99
11, 234120, Note_off_c, 10, 88, 64
11, 234240, Note_on_c, 10, 88, 78
11, 234300, Note_off_c, 10, 88, 64
11, 234300, Note_on_c, 10, 88, 66
11, 234360, Note_off_c, 10, 88, 64
11, 234360, Note_on_c, 10, 87, 82
11, 234420, Note_off_c, 10, 87, 64
11, 234420, Note_on_c, 10, 87, 86
11, 234480, Note_off_c, 10, 87, 64
11, 234480, Note_on_c, 10, 88, 85
11, 234540, Note_off_c, 10, 88, 64
11, 234540, Note_on_c, 10, 88, 86
11, 234600, Note_off_c, 10, 88, 64
11, 234600, Note_on_c, 10, 83, 85
11, 234660, Note_off_c, 10, 83, 64
11, 234660, Note_on_c, 10, 83, 86
11, 234720, Note_off_c, 10, 83, 64
11, 234720, Note_on_c, 10, 84, 93
11, 234780, Note_off_c, 10, 84, 64
11, 234780, Note_on_c, 10, 84, 84
11, 234840, Note_off_c, 10, 84, 64
11, 234840, Note_on_c, 10, 83, 84
11, 234900, Note_off_c, 10, 83, 64
11, 234900, Note_on_c, 10, 83, 84
11, 234960, Note_off_c, 10, 83, 64
11, 234960, Note_on_c, 10, 84, 89
11, 235020, Note_off_c, 10, 84, 64
11, 235020, Note_on_c, 10, 84, 89
11, 235080, Note_off_c, 10, 84, 64
11, 235080, Note_on_c, 10, 80, 85
11, 235140, Note_off_c, 10, 80, 64
11, 235140, Note_on_c, 10, 80, 82
11, 235200, Note_off_c, 10, 80, 64
11, 235200, Note_on_c, 10, 81, 89
11, 235260, Note_off_c, 10, 81, 64
11, 235260, Note_on_c, 10, 81, 85
11, 235320, Note_off_c, 10, 81, 64
11, 235320, Note_on_c, 10, 83, 89
11, 235380, Note_off_c, 10, 83, 64
11, 235380, Note_on_c, 10, 83, 89
11, 235440, Note_off_c, 10, 83, 64
11, 235440, Note_on_c, 10, 84, 84
11, 235500, Note_off_c, 10, 84, 64
11, 235500, Note_on_c, 10, 84, 81
11, 235560, Note_off_c, 10, 84, 64
11, 235560, Note_on_c, 10, 83, 94
11, 235620, Note_off_c, 10, 83, 64
11, 235620, Note_on_c, 10, 83, 94
11, 235680, Note_off_c, 10, 83, 64
11, 235680, Note_on_c, 10, 81, 94
11, 235740, Note_off_c, 10, 81, 64
11, 235740, Note_on_c, 10, 81, 89
11, 235800, Note_off_c, 10, 81, 64
11, 235800, Note_on_c, 10, 79, 85
11, 235860, Note_off_c, 10, 79, 64
11, 235860, Note_on_c, 10, 79, 84
11, 235920, Note_off_c, 10, 79, 64
11, 235920, Note_on_c, 10, 78, 86
11, 235980, Note_off_c, 10, 78, 64
11, 235980, Note_on_c, 10, 78, 85
11, 236040, Note_off_c, 10, 78, 64
11, 236040, Note_on_c, 10, 76, 95
11, 236100, Note_off_c, 10, 76, 64
11, 236100, Note_on_c, 10, 76, 99
11, 236160, Note_off_c, 10, 76, 64
11, 236160, Note_on_c, 10, 74, 84
11, 236220, Note_off_c, 10, 74, 64
11, 236220, Note_on_c, 10, 79, 89
11, 236280, Note_off_c, 10, 79, 64
11, 236280, Note_on_c, 10, 79, 86
11, 236340, Note_off_c, 10, 79, 64
11, 236340, Note_on_c, 10, 79, 76
11, 236400, Note_off_c, 10, 79, 64
11, 236400, Note_on_c, 10, 79, 84
11, 236460, Note_off_c, 10, 79, 64
11, 236460, Note_on_c, 10, 79, 84
11, 236520, Note_off_c, 10, 79, 64
11, 236520, Note_on_c, 10, 79, 89
11, 236580, Note_off_c, 10, 79, 64
11, 236580, Note_on_c, 10, 79, 89
11, 236640, Note_off_c, 10, 79, 64
11, 236640, Note_on_c, 10, 79, 89
11, 236700, Note_off_c, 10, 79, 64
11, 236700, Note_on_c, 10, 79, 89
11, 236760, Note_off_c, 10, 79, 64
11, 236760, Note_on_c, 10, 79, 86
11, 236820, Note_off_c, 10, 79, 64
11, 236820, Note_on_c, 10, 79, 95
11, 236880, Note_off_c, 10, 79, 64
11, 236880, Note_on_c, 10, 79, 94
11, 236940, Note_off_c, 10, 79, 64
11, 236940, Note_on_c, 10, 79, 94
11, 237000, Note_off_c, 10, 79, 64
11, 237000, Note_on_c, 10, 79, 94
11, 237060, Note_off_c, 10, 79, 64
11, 237060, Note_on_c, 10, 79, 99
11, 237120, Note_off_c, 10, 79, 64
11, 237120, Note_on_c, 10, 79, 95
11, 237180, Note_off_c, 10, 79, 64
11, 237180, Note_on_c, 10, 79, 99
11, 237240, Note_off_c, 10, 79, 64
11, 237240, Note_on_c, 10, 79, 93
11, 237300, Note_off_c, 10, 79, 64
11, 237300, Note_on_c, 10, 79, 94
11, 237360, Note_off_c, 10, 79, 64
11, 237360, Note_on_c, 10, 79, 95
11, 237420, Note_off_c, 10, 79, 64
11, 237420, Note_on_c, 10, 79, 90
11, 237480, Note_off_c, 10, 79, 64
11, 237480, Note_on_c, 10, 79, 89
11, 237540, Note_off_c, 10, 79, 64
11, 237540, Note_on_c, 10, 79, 94
11, 237600, Note_off_c, 10, 79, 64
11, 237600, Note_on_c, 10, 78, 94
11, 237660, Note_off_c, 10, 78, 64
11, 237660, Note_on_c, 10, 78, 93
11, 237720, Note_off_c, 10, 78, 64
11, 237720, Note_on_c, 10, 78, 89
11, 237780, Note_off_c, 10, 78, 64
11, 237780, Note_on_c, 10, 78, 90
11, 237840, Note_off_c, 10, 78, 64
11, 237840, Note_on_c, 10, 78, 90
11, 237900, Note_off_c, 10, 78, 64
11, 237900, Note_on_c, 10, 78, 86
11, 237960, Note_off_c, 10, 78, 64
11, 237960, Note_on_c, 10, 78, 94
11, 238020, Note_off_c, 10, 78, 64
11, 238020, Note_on_c, 10, 78, 99
11, 238080, Note_off_c, 10, 78, 64
11, 238080, Note_on_c, 10, 79, 80
11, 238320, Note_off_c, 10, 79, 64
11, 240000, Note_on_c, 10, 74, 80
11, 240240, Note_off_c, 10, 74, 64
11, 240240, Note_on_c, 10, 86, 84
11, 240720, Note_off_c, 10, 86, 64
11, 240720, Note_on_c, 10, 84, 82
11, 240840, Note_off_c, 10, 84, 64
11, 240960, Note_on_c, 10, 83, 86
11, 241080, Note_off_c, 10, 83, 64
11, 241200, Note_on_c, 10, 83, 89
11, 241320, Note_off_c, 10, 83, 64
11, 241440, Note_on_c, 10, 84, 86
11, 241560, Note_off_c, 10, 84, 64
11, 241680, Note_on_c, 10, 81, 94
11, 241800, Note_off_c, 10, 81, 64
11, 241920, Note_on_c, 10, 79, 43
11, 242160, Note_off_c, 10, 79, 64
11, 242400, Note_on_c, 10, 81, 78
11, 242400, Note_on_c, 10, 74, 85
11, 242400, Note_on_c, 10, 66, 86
11, 242640, Note_off_c, 10, 66, 64
11, 242640, Note_off_c, 10, 74, 64
11, 242640, Note_off_c, 10, 81, 64
11, 242880, Note_on_c, 10, 83, 73
11, 242880, Note_on_c, 10, 74, 89
11, 242880, Note_on_c, 10, 67, 85
11, 243120, Note_off_c, 10, 67, 64
11, 243120, Note_off_c, 10, 74, 64
11, 243120, Note_off_c, 10, 83, 64
11, 243360, Note_on_c, 10, 78, 78
11, 243360, Note_on_c, 10, 69, 76
11, 243360, Note_on_c, 10, 62, 86
11, 243600, Note_off_c, 10, 62, 64
11, 243600, Note_off_c, 10, 69, 64
11, 243600, Note_off_c, 10, 78, 64
11, 243840, Note_on_c, 10, 79, 84
11, 243840, Note_on_c, 10, 71, 74
11, 243840, Note_on_c, 10, 62, 95
11, 244080, Note_off_c, 10, 62, 64
11, 244080, Note_off_c, 10, 71, 64
11, 244080, Note_off_c, 10, 79, 64
11, 244260, Note_on_c, 10, 67, 80
11, 244320, Note_off_c, 10, 67, 64
11, 244320, Note_on_c, 10, 67, 80
11, 244560, Note_off_c, 10, 67, 64
11, 244740, Note_on_c, 10, 55, 80
11, 244800, Note_off_c, 10, 55, 64
11, 244800, Note_on_c, 10, 55, 80
11, 245040, Note_off_c, 10, 55, 64
11, 245760, Note_on_c, 10, 55, 80
11, 246240, Note_off_c, 10, 55, 64
11, 246240, Note_on_c, 10, 67, 62
11, 246360, Note_off_c, 10, 67, 64
11, 246480, Note_on_c, 10, 67, 59
11, 246600, Note_off_c, 10, 67, 64
11, 246720, Note_on_c, 10, 67, 65
11, 246840, Note_off_c, 10, 67, 64
11, 247680, Note_on_c, 10, 56, 80
11, 248160, Note_off_c, 10, 56, 64
11, 248160, Note_on_c, 10, 68, 80
11, 248280, Note_off_c, 10, 68, 64
11, 248400, Note_on_c, 10, 68, 63
11, 248520, Note_off_c, 10, 68, 64
11, 248640, Note_on_c, 10, 68, 61
11, 248760, Note_off_c, 10, 68, 64
11, 249600, Note_on_c, 10, 74, 89
11, 249600, Note_on_c, 10, 65, 86
11, 249600, Note_on_c, 10, 58, 89
11, 250080, Note_off_c, 10, 58, 64
11, 250080, Note_off_c, 10, 65, 64
11, 250080, Note_off_c, 10, 74, 64
11, 250080, Note_on_c, 10, 77, 98
11, 250080, Note_on_c, 10, 70, 81
11, 250080, Note_on_c, 10, 62, 84
11, 250200, Note_off_c, 10, 62, 64
11, 250200, Note_off_c, 10, 70, 64
11, 250200, Note_off_c, 10, 77, 64
11, 250320, Note_on_c, 10, 77, 94
11, 250320, Note_on_c, 10, 70, 85
11, 250320, Note_on_c, 10, 62, 86
11, 250440, Note_off_c, 10, 62, 64
11, 250440, Note_off_c, 10, 70, 64
11, 250440, Note_off_c, 10, 77, 64
11, 250560, Note_on_c, 10, 79, 84
11, 250560, Note_on_c, 10, 70, 84
11, 250560, Note_on_c, 10, 63, 94
11, 250800, Note_off_c, 10, 63, 64
11, 250800, Note_off_c, 10, 70, 64
11, 250800, Note_off_c, 10, 79, 64
11, 251520, Note_on_c, 10, 84, 84
11, 251520, Note_on_c, 10, 75, 84
11, 251520, Note_on_c, 10, 68, 95
11, 251760, Note_off_c, 10, 68, 64
11, 251760, Note_off_c, 10, 75, 64
11, 251760, Note_off_c, 10, 84, 64
11, 252480, Note_on_c, 10, 82, 82
11, 252480, Note_on_c, 10, 75, 78
11, 252480, Note_on_c, 10, 67, 94
11, 252720, Note_off_c, 10, 67, 64
11, 252720, Note_off_c, 10, 75, 64
11, 252720, Note_off_c, 10, 82, 64
11, 253440, Note_on_c, 10, 74, 89
11, 253440, Note_on_c, 10, 65, 82
11, 253440, Note_on_c, 10, 58, 90
11, 253680, Note_off_c, 10, 58, 64
11, 253680, Note_off_c, 10, 65, 64
11, 253680, Note_off_c, 10, 74, 64
11, 253920, Note_on_c, 10, 74, 94
11, 253920, Note_on_c, 10, 65, 78
11, 253920, Note_on_c, 10, 58, 84
11, 254160, Note_off_c, 10, 58, 64
11, 254160, Note_off_c, 10, 65, 64
11, 254160, Note_off_c, 10, 74, 64
11, 254400, Note_on_c, 10, 75, 70
11, 254400, Note_on_c, 10, 63, 63
11, 254400, Note_on_c, 10, 55, 82
11, 254640, Note_off_c, 10, 55, 64
11, 254640, Note_off_c, 10, 63, 64
11, 254640, Note_off_c, 10, 75, 64
11, 254640, Control_c, 10, 7, 90
11, 254640, Control_c, 10, 10, 26
11, 254640, Control_c, 10, 93, 0
11, 254640, Control_c, 10, 91, 66
11, 257280, Note_on_c, 10, 63, 80
11, 257920, Note_off_c, 10, 63, 64
11, 258240, Note_on_c, 10, 62, 80
11, 258400, Note_off_c, 10, 62, 64
11, 261120, Note_on_c, 10, 62, 80
11, 261760, Note_off_c, 10, 62, 64
11, 262080, Note_on_c, 10, 61, 80
11, 262240, Note_off_c, 10, 61, 64
11, 264960, Note_on_c, 10, 64, 80
11, 265920, Note_off_c, 10, 64, 64
11, 265920, Note_on_c, 10, 65, 80
11, 266160, Note_off_c, 10, 65, 64
11, 266160, Control_c, 10, 7, 90
11, 266160, Control_c, 10, 10, 26
11, 266160, Control_c, 10, 93, 0
11, 266160, Control_c, 10, 91, 66
11, 266400, Control_c, 10, 7, 90
11, 266400, Control_c, 10, 10, 26
11, 266400, Control_c, 10, 93, 0
11, 266400, Control_c, 10, 91, 66
11, 266640, Control_c, 10, 7, 90
11, 266640, Control_c, 10, 10, 26
11, 266640, Control_c, 10, 93, 0
11, 266640, Control_c, 10, 91, 66
11, 266880, Control_c, 10, 7, 90
11, 266880, Control_c, 10, 10, 26
11, 266880, Control_c, 10, 93, 0
11, 266880, Control_c, 10, 91, 66
11, 266880, Note_on_c, 10, 62, 80
11, 267120, Note_off_c, 10, 62, 64
11, 267120, Control_c, 10, 7, 90
11, 267120, Control_c, 10, 10, 26
11, 267120, Control_c, 10, 93, 0
11, 267120, Control_c, 10, 91, 66
11, 267360, Control_c, 10, 7, 90
11, 267360, Control_c, 10, 10, 26
11, 267360, Control_c, 10, 93, 0
11, 267360, Control_c, 10, 91, 66
11, 267360, Note_on_c, 10, 62, 80
11, 267600, Note_off_c, 10, 62, 64
11, 267600, Control_c, 10, 7, 90
11, 267600, Control_c, 10, 10, 26
11, 267600, Control_c, 10, 93, 0
11, 267600, Control_c, 10, 91, 66
11, 267840, Note_on_c, 10, 63, 80
11, 268080, Note_off_c, 10, 63, 64
11, 279360, Note_on_c, 10, 72, 80
11, 280320, Note_off_c, 10, 72, 64
11, 280320, Note_on_c, 10, 73, 80
11, 280320, Control_c, 10, 7, 90
11, 280320, Control_c, 10, 10, 26
11, 280320, Control_c, 10, 93, 0
11, 280320, Control_c, 10, 91, 66
11, 281280, Note_off_c, 10, 73, 64
11, 281280, Note_on_c, 10, 73, 80
11, 282240, Note_off_c, 10, 73, 64
11, 282240, Note_on_c, 10, 72, 80
11, 283200, Note_off_c, 10, 72, 64
11, 283200, Note_on_c, 10, 72, 80
11, 284160, Note_off_c, 10, 72, 64
11, 284160, Note_on_c, 10, 72, 80
11, 284640, Note_off_c, 10, 72, 64
11, 284640, Note_on_c, 10, 73, 80
11, 284880, Note_off_c, 10, 73, 64
11, 284880, Note_on_c, 10, 72, 80
11, 285120, Note_off_c, 10, 72, 64
11, 285120, Note_on_c, 10, 71, 80
11, 286080, Note_off_c, 10, 71, 64
11, 286080, Note_on_c, 10, 71, 80
11, 287040, Note_off_c, 10, 71, 64
11, 287040, Note_on_c, 10, 72, 80
11, 288000, Note_off_c, 10, 72, 64
11, 288000, Note_on_c, 10, 67, 80
11, 288960, Note_off_c, 10, 67, 64
11, 288960, Note_on_c, 10, 69, 80
11, 289440, Note_off_c, 10, 69, 64
11, 289440, Note_on_c, 10, 63, 80
11, 289920, Note_off_c, 10, 63, 64
11, 289920, Note_on_c, 10, 64, 80
11, 290160, Note_off_c, 10, 64, 64
11, 290160, Note_on_c, 10, 60, 80
11, 290400, Note_off_c, 10, 60, 64
11, 290400, Note_on_c, 10, 62, 80
11, 290640, Note_off_c, 10, 62, 64
11, 290640, Note_on_c, 10, 63, 80
11, 290880, Note_off_c, 10, 63, 64
11, 290880, Note_on_c, 10, 62, 80
11, 291120, Note_off_c, 10, 62, 64
11, 292800, Note_on_c, 10, 62, 80
11, 293040, Note_off_c, 10, 62, 64
11, 293760, Note_on_c, 10, 63, 80
11, 294000, Note_off_c, 10, 63, 64
11, 294720, Note_on_c, 10, 62, 80
11, 294960, Note_off_c, 10, 62, 64
11, 296640, Note_on_c, 10, 71, 80
11, 296880, Note_off_c, 10, 71, 64
11, 297600, Note_on_c, 10, 72, 80
11, 297840, Note_off_c, 10, 72, 64
11, 298560, Note_on_c, 10, 71, 80
11, 298800, Note_off_c, 10, 71, 64
11, 302400, Note_on_c, 10, 60, 80
11, 302640, Note_off_c, 10, 60, 64
11, 302640, Note_on_c, 10, 72, 80
11, 302880, Note_off_c, 10, 72, 64
11, 303120, Note_on_c, 10, 75, 80
11, 303360, Note_off_c, 10, 75, 64
11, 303600, Note_on_c, 10, 79, 80
11, 303840, Note_off_c, 10, 79, 64
11, 304080, Note_on_c, 10, 84, 80
11, 304320, Note_off_c, 10, 84, 64
11, 306240, Note_on_c, 10, 62, 80
11, 306480, Note_off_c, 10, 62, 64
11, 306720, Note_on_c, 10, 74, 80
11, 306960, Note_off_c, 10, 74, 64
11, 306960, Note_on_c, 10, 77, 80
11, 307200, Note_off_c, 10, 77, 64
11, 307440, Note_on_c, 10, 83, 80
11, 307680, Note_off_c, 10, 83, 64
11, 307920, Note_on_c, 10, 86, 80
11, 308160, Note_off_c, 10, 86, 64
11, 308160, Note_on_c, 10, 65, 80
11, 309120, Note_off_c, 10, 65, 64
11, 309120, Note_on_c, 10, 65, 80
11, 310080, Note_off_c, 10, 65, 64
11, 310080, Note_on_c, 10, 63, 80
11, 310800, Control_c, 10, 7, 90
11, 310800, Control_c, 10, 10, 26
11, 310800, Control_c, 10, 93, 0
11, 310800, Control_c, 10, 91, 66
11, 311040, Note_off_c, 10, 63, 64
11, 311040, Note_on_c, 10, 63, 80
11, 311040, Control_c, 10, 7, 90
11, 311040, Control_c, 10, 10, 26
11, 311040, Control_c, 10, 93, 0
11, 311040, Control_c, 10, 91, 66
11, 311280, Control_c, 10, 7, 90
11, 311280, Control_c, 10, 10, 26
11, 311280, Control_c, 10, 93, 0
11, 311280, Control_c, 10, 91, 66
11, 311520, Control_c, 10, 7, 90
11, 311520, Control_c, 10, 10, 26
11, 311520, Control_c, 10, 93, 0
11, 311520, Control_c, 10, 91, 66
11, 311760, Control_c, 10, 7, 90
11, 311760, Control_c, 10, 10, 26
11, 311760, Control_c, 10, 93, 0
11, 311760, Control_c, 10, 91, 66
11, 312000, Note_off_c, 10, 63, 64
11, 312000, Note_on_c, 10, 63, 80
11, 312000, Control_c, 10, 7, 90
11, 312000, Control_c, 10, 10, 26
11, 312000, Control_c, 10, 93, 0
11, 312000, Control_c, 10, 91, 66
11, 312240, Control_c, 10, 7, 90
11, 312240, Control_c, 10, 10, 26
11, 312240, Control_c, 10, 93, 0
11, 312240, Control_c, 10, 91, 66
11, 312480, Control_c, 10, 7, 90
11, 312480, Control_c, 10, 10, 26
11, 312480, Control_c, 10, 93, 0
11, 312480, Control_c, 10, 91, 66
11, 312720, Control_c, 10, 7, 90
11, 312720, Control_c, 10, 10, 26
11, 312720, Control_c, 10, 93, 0
11, 312720, Control_c, 10, 91, 66
11, 312960, Note_off_c, 10, 63, 64
11, 312960, Note_on_c, 10, 66, 80
11, 313920, Note_off_c, 10, 66, 64
11, 313920, Note_on_c, 10, 67, 80
11, 314160, Note_off_c, 10, 67, 64
11, 315840, Note_on_c, 10, 67, 80
11, 316080, Note_off_c, 10, 67, 64
11, 330240, Note_on_c, 10, 65, 80
11, 330240, Note_on_c, 10, 55, 80
11, 330480, Note_off_c, 10, 55, 64
11, 330480, Note_off_c, 10, 65, 64
11, 331200, Note_on_c, 10, 72, 80
11, 331200, Note_on_c, 10, 64, 80
11, 331200, Note_on_c, 10, 55, 80
11, 331680, Note_off_c, 10, 55, 64
11, 331680, Note_off_c, 10, 64, 64
11, 331680, Note_off_c, 10, 72, 64
11, 331680, Note_on_c, 10, 72, 119
11, 331680, Note_on_c, 10, 64, 125
11, 331800, Note_off_c, 10, 64, 64
11, 331800, Note_off_c, 10, 72, 64
11, 331920, Note_on_c, 10, 72, 127
11, 331920, Note_on_c, 10, 64, 127
11, 332040, Note_off_c, 10, 64, 64
11, 332040, Note_off_c, 10, 72, 64
11, 332160, Note_on_c, 10, 72, 119
11, 332160, Note_on_c, 10, 64, 123
11, 332400, Note_off_c, 10, 64, 64
11, 332400, Note_off_c, 10, 72, 64
11, 332700, Note_on_c, 10, 60, 125
11, 332760, Note_off_c, 10, 60, 64
11, 332760, Note_on_c, 10, 62, 119
11, 332820, Note_off_c, 10, 62, 64
11, 332820, Note_on_c, 10, 64, 125
11, 332880, Note_off_c, 10, 64, 64
11, 332880, Note_on_c, 10, 65, 125
11, 332940, Note_off_c, 10, 65, 64
11, 332940, Note_on_c, 10, 67, 127
11, 333000, Note_off_c, 10, 67, 64
11, 333000, Note_on_c, 10, 69, 123
11, 333060, Note_off_c, 10, 69, 64
11, 333060, Note_on_c, 10, 71, 123
11, 333120, Note_off_c, 10, 71, 64
11, 333120, Note_on_c, 10, 72, 119
11, 333240, Note_off_c, 10, 72, 64
11, 333360, Note_on_c, 10, 74, 127
11, 333480, Note_off_c, 10, 74, 64
11, 333600, Note_on_c, 10, 76, 127
11, 333720, Note_off_c, 10, 76, 64
11, 333840, Note_on_c, 10, 77, 125
11, 333960, Note_off_c, 10, 77, 64
11, 334080, Note_on_c, 10, 76, 125
11, 334200, Note_off_c, 10, 76, 64
11, 334320, Note_on_c, 10, 74, 127
11, 334440, Note_off_c, 10, 74, 64
11, 335040, Note_on_c, 10, 74, 119
11, 335040, Note_on_c, 10, 67, 117
11, 335040, Note_on_c, 10, 59, 119
11, 335520, Note_off_c, 10, 59, 64
11, 335520, Note_off_c, 10, 67, 64
11, 335520, Note_off_c, 10, 74, 64
11, 335520, Note_on_c, 10, 74, 127
11, 335520, Note_on_c, 10, 67, 112
11, 335520, Note_on_c, 10, 59, 117
11, 335640, Note_off_c, 10, 59, 64
11, 335640, Note_off_c, 10, 67, 64
11, 335640, Note_off_c, 10, 74, 64
11, 335760, Note_on_c, 10, 74, 125
11, 335760, Note_on_c, 10, 67, 112
11, 335760, Note_on_c, 10, 59, 112
11, 335880, Note_off_c, 10, 59, 64
11, 335880, Note_off_c, 10, 67, 64
11, 335880, Note_off_c, 10, 74, 64
11, 336000, Note_on_c, 10, 74, 125
11, 336000, Note_on_c, 10, 67, 112
11, 336000, Note_on_c, 10, 59, 115
11, 336240, Note_off_c, 10, 59, 64
11, 336240, Note_off_c, 10, 67, 64
11, 336240, Note_off_c, 10, 74, 64
11, 336540, Note_on_c, 10, 55, 125
11, 336600, Note_off_c, 10, 55, 64
11, 336600, Note_on_c, 10, 57, 125
11, 336660, Note_off_c, 10, 57, 64
11, 336660, Note_on_c, 10, 59, 125
11, 336720, Note_off_c, 10, 59, 64
11, 336720, Note_on_c, 10, 60, 119
11, 336780, Note_off_c, 10, 60, 64
11, 336780, Note_on_c, 10, 62, 125
11, 336840, Note_off_c, 10, 62, 64
11, 336840, Note_on_c, 10, 64, 125
11, 336900, Note_off_c, 10, 64, 64
11, 336900, Note_on_c, 10, 66, 127
11, 336960, Note_off_c, 10, 66, 64
11, 336960, Note_on_c, 10, 67, 125
11, 337080, Note_off_c, 10, 67, 64
11, 337200, Note_on_c, 10, 72, 125
11, 337320, Note_off_c, 10, 72, 64
11, 337440, Note_on_c, 10, 74, 127
11, 337560, Note_off_c, 10, 74, 64
11, 337680, Note_on_c, 10, 76, 123
11, 337680, Note_on_c, 10, 72, 127
11, 337800, Note_off_c, 10, 72, 64
11, 337800, Note_off_c, 10, 76, 64
11, 337920, Note_on_c, 10, 77, 125
11, 337920, Note_on_c, 10, 74, 127
11, 338040, Note_off_c, 10, 74, 64
11, 338040, Note_off_c, 10, 77, 64
11, 338160, Note_on_c, 10, 76, 123
11, 338160, Note_on_c, 10, 72, 123
11, 338280, Note_off_c, 10, 72, 64
11, 338280, Note_off_c, 10, 76, 64
11, 342960, Note_on_c, 10, 64, 70
11, 343200, Note_off_c, 10, 64, 64
11, 343200, Note_on_c, 10, 64, 73
11, 343440, Note_off_c, 10, 64, 64
11, 343440, Note_on_c, 10, 64, 72
11, 343680, Note_off_c, 10, 64, 64
11, 343920, Note_on_c, 10, 66, 68
11, 344160, Note_off_c, 10, 66, 64
11, 344160, Note_on_c, 10, 66, 74
11, 344400, Note_off_c, 10, 66, 64
11, 344400, Note_on_c, 10, 66, 78
11, 344640, Note_off_c, 10, 66, 64
11, 344640, Note_on_c, 10, 67, 57
11, 345600, Note_off_c, 10, 67, 64
11, 345600, Note_on_c, 10, 67, 53
11, 346560, Note_off_c, 10, 67, 64
11, 346560, Note_on_c, 10, 67, 44
11, 347520, Note_off_c, 10, 67, 64
11, 347520, Note_on_c, 10, 67, 46
11, 348240, Note_off_c, 10, 67, 64
11, 348240, Note_on_c, 10, 67, 44
11, 348480, Note_off_c, 10, 67, 64
11, 348480, Note_on_c, 10, 79, 43
11, 349440, Note_off_c, 10, 79, 64
11, 349440, Note_on_c, 10, 79, 54
11, 350400, Note_off_c, 10, 79, 64
11, 350400, Note_on_c, 10, 79, 50
11, 350640, Note_off_c, 10, 79, 64
11, 351240, Note_on_c, 10, 63, 66
11, 351300, Note_off_c, 10, 63, 64
11, 351360, Note_on_c, 10, 62, 77
11, 351480, Note_off_c, 10, 62, 64
11, 351600, Note_on_c, 10, 63, 74
11, 351720, Note_off_c, 10, 63, 64
11, 351840, Note_on_c, 10, 62, 73
11, 351960, Note_off_c, 10, 62, 64
11, 352080, Note_on_c, 10, 63, 80
11, 352200, Note_off_c, 10, 63, 64
11, 352320, Note_on_c, 10, 62, 81
11, 352440, Note_off_c, 10, 62, 64
11, 352800, Note_on_c, 10, 67, 43
11, 352920, Note_off_c, 10, 67, 64
11, 353280, Note_on_c, 10, 55, 62
11, 353400, Note_off_c, 10, 55, 64
11, 353880, Note_on_c, 10, 67, 69
11, 353940, Note_off_c, 10, 67, 64
11, 354000, Note_on_c, 10, 72, 74
11, 354060, Note_off_c, 10, 72, 64
11, 354120, Note_on_c, 10, 76, 81
11, 354180, Note_off_c, 10, 76, 64
11, 354240, Note_on_c, 10, 79, 38
11, 354720, Note_off_c, 10, 79, 64
11, 354720, Note_on_c, 10, 78, 65
11, 354840, Note_off_c, 10, 78, 64
11, 354840, Note_on_c, 10, 79, 62
11, 354960, Note_off_c, 10, 79, 64
11, 354960, Note_on_c, 10, 81, 65
11, 355080, Note_off_c, 10, 81, 64
11, 355080, Note_on_c, 10, 79, 67
11, 355200, Note_off_c, 10, 79, 64
11, 355200, Note_on_c, 10, 79, 68
11, 355320, Note_off_c, 10, 79, 64
11, 355320, Note_on_c, 10, 77, 72
11, 355440, Note_off_c, 10, 77, 64
11, 355440, Note_on_c, 10, 76, 53
11, 355560, Note_off_c, 10, 76, 64
11, 355560, Note_on_c, 10, 74, 76
11, 355680, Note_off_c, 10, 74, 64
11, 355680, Note_on_c, 10, 72, 65
11, 355800, Note_off_c, 10, 72, 64
11, 355800, Note_on_c, 10, 71, 50
11, 355920, Note_off_c, 10, 71, 64
11, 355920, Note_on_c, 10, 69, 57
11, 356040, Note_off_c, 10, 69, 64
11, 356040, Note_on_c, 10, 67, 65
11, 356160, Note_off_c, 10, 67, 64
11, 356160, Note_on_c, 10, 72, 60
11, 356280, Note_off_c, 10, 72, 64
11, 356400, Note_on_c, 10, 72, 57
11, 356520, Note_off_c, 10, 72, 64
11, 356610, Note_on_c, 10, 74, 76
11, 356640, Note_off_c, 10, 74, 64
11, 356640, Note_on_c, 10, 72, 45
11, 356760, Note_off_c, 10, 72, 64
11, 356760, Note_on_c, 10, 71, 65
11, 356880, Note_off_c, 10, 71, 64
11, 356880, Note_on_c, 10, 72, 59
11, 357000, Note_off_c, 10, 72, 64
11, 357000, Note_on_c, 10, 76, 72
11, 357120, Note_off_c, 10, 76, 64
11, 357120, Note_on_c, 10, 73, 67
11, 357360, Note_off_c, 10, 73, 64
11, 357360, Note_on_c, 10, 74, 82
11, 357600, Note_off_c, 10, 74, 64
11, 358080, Note_on_c, 10, 76, 65
11, 358560, Note_off_c, 10, 76, 64
11, 358560, Note_on_c, 10, 75, 78
11, 358680, Note_off_c, 10, 75, 64
11, 358680, Note_on_c, 10, 76, 74
11, 358800, Note_off_c, 10, 76, 64
11, 358800, Note_on_c, 10, 77, 69
11, 358920, Note_off_c, 10, 77, 64
11, 358920, Note_on_c, 10, 76, 73
11, 359040, Note_off_c, 10, 76, 64
11, 359040, Note_on_c, 10, 74, 70
11, 359160, Note_off_c, 10, 74, 64
11, 359160, Note_on_c, 10, 72, 63
11, 359280, Note_off_c, 10, 72, 64
11, 359280, Note_on_c, 10, 71, 67
11, 359400, Note_off_c, 10, 71, 64
11, 359400, Note_on_c, 10, 69, 68
11, 359520, Note_off_c, 10, 69, 64
11, 359520, Note_on_c, 10, 68, 65
11, 359640, Note_off_c, 10, 68, 64
11, 359640, Note_on_c, 10, 69, 74
11, 359760, Note_off_c, 10, 69, 64
11, 359760, Note_on_c, 10, 72, 59
11, 359880, Note_off_c, 10, 72, 64
11, 359880, Note_on_c, 10, 69, 80
11, 360000, Note_off_c, 10, 69, 64
11, 360000, Note_on_c, 10, 67, 72
11, 360360, Note_off_c, 10, 67, 64
11, 360360, Note_on_c, 10, 71, 80
11, 360480, Note_off_c, 10, 71, 64
11, 360480, Note_on_c, 10, 74, 78
11, 360600, Note_off_c, 10, 74, 64
11, 360600, Note_on_c, 10, 73, 61
11, 360720, Note_off_c, 10, 73, 64
11, 360720, Note_on_c, 10, 72, 60
11, 360840, Note_off_c, 10, 72, 64
11, 360840, Note_on_c, 10, 69, 67
11, 360960, Note_off_c, 10, 69, 64
11, 360960, Note_on_c, 10, 67, 69
11, 361200, Note_off_c, 10, 67, 64
11, 361920, Note_on_c, 10, 64, 67
11, 362880, Note_off_c, 10, 64, 64
11, 362880, Note_on_c, 10, 65, 59
11, 363840, Note_off_c, 10, 65, 64
11, 363840, Note_on_c, 10, 67, 47
11, 364080, Note_off_c, 10, 67, 64
11, 364080, Note_on_c, 10, 67, 62
11, 364320, Note_off_c, 10, 67, 64
11, 364560, Note_on_c, 10, 64, 59
11, 364800, Note_off_c, 10, 64, 64
11, 365040, Note_on_c, 10, 62, 65
11, 365280, Note_off_c, 10, 62, 64
11, 365760, Note_on_c, 10, 64, 60
11, 366000, Note_off_c, 10, 64, 64
11, 366240, Note_on_c, 10, 64, 71
11, 366480, Note_off_c, 10, 64, 64
11, 366720, Note_on_c, 10, 64, 68
11, 366960, Note_off_c, 10, 64, 64
11, 367440, Note_on_c, 10, 64, 56
11, 367680, Note_off_c, 10, 64, 64
11, 367680, Note_on_c, 10, 69, 62
11, 367800, Note_off_c, 10, 69, 64
11, 367920, Note_on_c, 10, 67, 50
11, 368040, Note_off_c, 10, 67, 64
11, 368160, Note_on_c, 10, 69, 55
11, 368280, Note_off_c, 10, 69, 64
11, 368400, Note_on_c, 10, 66, 61
11, 368520, Note_off_c, 10, 66, 64
11, 368640, Note_on_c, 10, 62, 44
11, 368880, Note_off_c, 10, 62, 64
11, 369360, Note_on_c, 10, 59, 56
11, 369600, Note_off_c, 10, 59, 64
11, 369600, Note_on_c, 10, 65, 62
11, 369720, Note_off_c, 10, 65, 64
11, 369840, Note_on_c, 10, 65, 57
11, 369960, Note_off_c, 10, 65, 64
11, 370080, Note_on_c, 10, 65, 61
11, 370200, Note_off_c, 10, 65, 64
11, 370320, Note_on_c, 10, 65, 65
11, 370440, Note_off_c, 10, 65, 64
11, 370560, Note_on_c, 10, 64, 57
11, 370800, Note_off_c, 10, 64, 64
11, 370800, Note_on_c, 10, 67, 48
11, 371040, Note_off_c, 10, 67, 64
11, 371040, Note_on_c, 10, 69, 54
11, 371280, Note_off_c, 10, 69, 64
11, 371280, Note_on_c, 10, 65, 46
11, 371520, Note_off_c, 10, 65, 64
11, 371520, Note_on_c, 10, 64, 48
11, 371640, Note_off_c, 10, 64, 64
11, 371760, Note_on_c, 10, 72, 58
11, 371880, Note_off_c, 10, 72, 64
11, 372240, Note_on_c, 10, 71, 44
11, 372480, Note_off_c, 10, 71, 64
11, 372480, Note_on_c, 10, 72, 44
11, 372720, Note_off_c, 10, 72, 64
11, 373440, Note_on_c, 10, 73, 60
11, 374400, Note_off_c, 10, 73, 64
11, 374400, Note_on_c, 10, 72, 52
11, 374640, Note_off_c, 10, 72, 64
11, 375360, Note_on_c, 10, 70, 59
11, 376320, Note_off_c, 10, 70, 64
11, 376320, Note_on_c, 10, 68, 68
11, 376560, Note_off_c, 10, 68, 64
11, 377280, Note_on_c, 10, 68, 119
11, 377520, Note_off_c, 10, 68, 64
11, 377520, Note_on_c, 10, 68, 74
11, 378240, Note_off_c, 10, 68, 64
11, 378240, Note_on_c, 10, 67, 78
11, 378480, Note_off_c, 10, 67, 64
11, 378480, Note_on_c, 10, 67, 76
11, 378720, Note_off_c, 10, 67, 64
11, 378960, Note_on_c, 10, 65, 59
11, 379200, Note_off_c, 10, 65, 64
11, 379440, Note_on_c, 10, 63, 64
11, 379680, Note_off_c, 10, 63, 64
11, 379920, Note_on_c, 10, 62, 64
11, 380160, Note_off_c, 10, 62, 64
11, 380160, Note_on_c, 10, 60, 61
11, 380280, Note_off_c, 10, 60, 64
11, 380280, Note_on_c, 10, 55, 45
11, 380400, Note_off_c, 10, 55, 64
11, 380400, Note_on_c, 10, 60, 59
11, 380520, Note_off_c, 10, 60, 64
11, 380520, Note_on_c, 10, 55, 61
11, 380640, Note_off_c, 10, 55, 64
11, 380640, Note_on_c, 10, 60, 65
11, 380760, Note_off_c, 10, 60, 64
11, 380760, Note_on_c, 10, 55, 44
11, 380880, Note_off_c, 10, 55, 64
11, 380880, Note_on_c, 10, 62, 45
11, 381000, Note_off_c, 10, 62, 64
11, 381000, Note_on_c, 10, 55, 60
11, 381120, Note_off_c, 10, 55, 64
11, 381120, Note_on_c, 10, 64, 64
11, 381240, Note_off_c, 10, 64, 64
11, 381240, Note_on_c, 10, 55, 57
11, 381360, Note_off_c, 10, 55, 64
11, 381360, Note_on_c, 10, 64, 65
11, 381480, Note_off_c, 10, 64, 64
11, 381480, Note_on_c, 10, 55, 58
11, 381600, Note_off_c, 10, 55, 64
11, 381600, Note_on_c, 10, 64, 62
11, 381720, Note_off_c, 10, 64, 64
11, 381720, Note_on_c, 10, 55, 57
11, 381840, Note_off_c, 10, 55, 64
11, 381840, Note_on_c, 10, 64, 62
11, 381960, Note_off_c, 10, 64, 64
11, 381960, Note_on_c, 10, 55, 67
11, 382080, Note_off_c, 10, 55, 64
11, 382080, Note_on_c, 10, 64, 61
11, 382200, Note_off_c, 10, 64, 64
11, 382200, Note_on_c, 10, 55, 62
11, 382320, Note_off_c, 10, 55, 64
11, 382320, Note_on_c, 10, 64, 56
11, 382440, Note_off_c, 10, 64, 64
11, 382440, Note_on_c, 10, 55, 62
11, 382560, Note_off_c, 10, 55, 64
11, 382560, Note_on_c, 10, 65, 76
11, 382680, Note_off_c, 10, 65, 64
11, 382680, Note_on_c, 10, 55, 61
11, 382800, Note_off_c, 10, 55, 64
11, 382800, Note_on_c, 10, 64, 62
11, 382920, Note_off_c, 10, 64, 64
11, 382920, Note_on_c, 10, 55, 68
11, 383040, Note_off_c, 10, 55, 64
11, 383040, Note_on_c, 10, 62, 61
11, 383280, Note_off_c, 10, 62, 64
11, 386160, Note_on_c, 10, 64, 89
11, 386400, Note_off_c, 10, 64, 64
11, 386640, Note_on_c, 10, 62, 85
11, 386880, Note_off_c, 10, 62, 64
11, 386880, Note_on_c, 10, 64, 90
11, 387120, Note_off_c, 10, 64, 64
11, 388080, Note_on_c, 10, 64, 86
11, 388320, Note_off_c, 10, 64, 64
11, 388560, Note_on_c, 10, 65, 85
11, 388800, Note_off_c, 10, 65, 64
11, 388800, Note_on_c, 10, 64, 89
11, 389040, Note_off_c, 10, 64, 64
11, 390480, Note_on_c, 10, 71, 99
11, 390528, Note_off_c, 10, 71, 64
11, 390528, Note_on_c, 10, 72, 89
11, 390576, Note_off_c, 10, 72, 64
11, 390576, Note_on_c, 10, 71, 99
11, 390624, Note_off_c, 10, 71, 64
11, 390624, Note_on_c, 10, 72, 93
11, 390672, Note_off_c, 10, 72, 64
11, 390672, Note_on_c, 10, 71, 101
11, 390720, Note_off_c, 10, 71, 64
11, 390720, Note_on_c, 10, 72, 93
11, 390840, Note_off_c, 10, 72, 64
11, 390960, Note_on_c, 10, 60, 95
11, 391080, Note_off_c, 10, 60, 64
11, 392400, Note_on_c, 10, 74, 101
11, 392448, Note_off_c, 10, 74, 64
11, 392448, Note_on_c, 10, 76, 99
11, 392496, Note_off_c, 10, 76, 64
11, 392496, Note_on_c, 10, 74, 98
11, 392544, Note_off_c, 10, 74, 64
11, 392544, Note_on_c, 10, 76, 99
11, 392592, Note_off_c, 10, 76, 64
11, 392592, Note_on_c, 10, 74, 104
11, 392640, Note_off_c, 10, 74, 64
11, 392640, Note_on_c, 10, 76, 104
11, 392760, Note_off_c, 10, 76, 64
11, 392880, Note_on_c, 10, 60, 90
11, 393000, Note_off_c, 10, 60, 64
11, 400320, Note_on_c, 10, 69, 53
11, 400560, Note_off_c, 10, 69, 64
11, 400560, Note_on_c, 10, 69, 64
11, 400800, Note_off_c, 10, 69, 64
11, 401040, Note_on_c, 10, 69, 73
11, 401280, Note_off_c, 10, 69, 64
11, 401520, Note_on_c, 10, 67, 73
11, 401760, Note_off_c, 10, 67, 64
11, 402000, Note_on_c, 10, 67, 77
11, 402240, Note_off_c, 10, 67, 64
11, 402240, Note_on_c, 10, 67, 78
11, 402480, Note_off_c, 10, 67, 64
11, 403920, Note_on_c, 10, 71, 89
11, 403968, Note_off_c, 10, 71, 64
11, 403968, Note_on_c, 10, 72, 89
11, 404016, Note_off_c, 10, 72, 64
11, 404016, Note_on_c, 10, 71, 89
11, 404064, Note_off_c, 10, 71, 64
11, 404064, Note_on_c, 10, 72, 89
11, 404112, Note_off_c, 10, 72, 64
11, 404112, Note_on_c, 10, 71, 99
11, 404160, Note_off_c, 10, 71, 64
11, 404160, Note_on_c, 10, 72, 89
11, 404280, Note_off_c, 10, 72, 64
11, 404400, Note_on_c, 10, 60, 85
11, 404520, Note_off_c, 10, 60, 64
11, 405840, Note_on_c, 10, 74, 94
11, 405888, Note_off_c, 10, 74, 64
11, 405888, Note_on_c, 10, 76, 93
11, 405936, Note_off_c, 10, 76, 64
11, 405936, Note_on_c, 10, 74, 95
11, 405984, Note_off_c, 10, 74, 64
11, 405984, Note_on_c, 10, 76, 94
11, 406032, Note_off_c, 10, 76, 64
11, 406032, Note_on_c, 10, 74, 94
11, 406080, Note_off_c, 10, 74, 64
11, 406080, Note_on_c, 10, 76, 95
11, 406200, Note_off_c, 10, 76, 64
11, 406320, Note_on_c, 10, 64, 90
11, 406440, Note_off_c, 10, 64, 64
11, 406560, Note_on_c, 10, 65, 101
11, 406680, Note_off_c, 10, 65, 64
11, 406800, Note_on_c, 10, 67, 98
11, 406920, Note_off_c, 10, 67, 64
11, 407040, Note_on_c, 10, 69, 99
11, 407160, Note_off_c, 10, 69, 64
11, 407280, Note_on_c, 10, 71, 95
11, 407400, Note_off_c, 10, 71, 64
11, 407520, Note_on_c, 10, 72, 93
11, 407640, Note_off_c, 10, 72, 64
11, 407760, Note_on_c, 10, 74, 104
11, 407880, Note_off_c, 10, 74, 64
11, 408000, Note_on_c, 10, 76, 104
11, 408120, Note_off_c, 10, 76, 64
11, 411840, Note_on_c, 10, 69, 33
11, 412800, Note_off_c, 10, 69, 64
11, 412800, Note_on_c, 10, 69, 42
11, 413760, Note_off_c, 10, 69, 64
11, 413760, Note_on_c, 10, 69, 40
11, 414720, Note_off_c, 10, 69, 64
11, 414720, Note_on_c, 10, 67, 40
11, 415680, Note_off_c, 10, 67, 64
11, 415680, Note_on_c, 10, 66, 31
11, 416640, Note_off_c, 10, 66, 64
11, 416640, Note_on_c, 10, 65, 38
11, 416880, Note_off_c, 10, 65, 64
11, 420480, Note_on_c, 10, 71, 73
11, 420960, Note_off_c, 10, 71, 64
11, 420960, Note_on_c, 10, 72, 76
11, 421080, Note_off_c, 10, 72, 64
11, 421080, Note_on_c, 10, 71, 84
11, 421200, Note_off_c, 10, 71, 64
11, 421200, Note_on_c, 10, 72, 76
11, 421320, Note_off_c, 10, 72, 64
11, 421320, Note_on_c, 10, 69, 41
11, 421440, Note_off_c, 10, 69, 64
11, 421440, Note_on_c, 10, 67, 86
11, 421680, Note_off_c, 10, 67, 64
11, 430080, Control_c, 10, 7, 90
11, 430080, Control_c, 10, 10, 26
11, 430080, Control_c, 10, 93, 0
11, 430080, Control_c, 10, 91, 66
11, 431040, Control_c, 10, 7, 90
11, 431040, Control_c, 10, 10, 26
11, 431040, Control_c, 10, 93, 0
11, 431040, Control_c, 10, 91, 66
11, 431040, Note_on_c, 10, 74, 70
11, 431040, Note_on_c, 10, 65, 67
11, 431160, Note_off_c, 10, 65, 64
11, 431160, Note_off_c, 10, 74, 64
11, 431160, Note_on_c, 10, 74, 73
11, 431160, Note_on_c, 10, 65, 76
11, 431280, Note_off_c, 10, 65, 64
11, 431280, Note_off_c, 10, 74, 64
11, 431280, Note_on_c, 10, 74, 69
11, 431280, Note_on_c, 10, 65, 76
11, 431400, Note_off_c, 10, 65, 64
11, 431400, Note_off_c, 10, 74, 64
11, 431400, Note_on_c, 10, 74, 74
11, 431400, Note_on_c, 10, 65, 78
11, 431520, Note_off_c, 10, 65, 64
11, 431520, Note_off_c, 10, 74, 64
11, 431520, Note_on_c, 10, 74, 68
11, 431520, Note_on_c, 10, 65, 70
11, 431640, Note_off_c, 10, 65, 64
11, 431640, Note_off_c, 10, 74, 64
11, 431640, Note_on_c, 10, 74, 67
11, 431640, Note_on_c, 10, 65, 71
11, 431760, Note_off_c, 10, 65, 64
11, 431760, Note_off_c, 10, 74, 64
11, 431760, Note_on_c, 10, 74, 69
11, 431760, Note_on_c, 10, 65, 72
11, 431880, Note_off_c, 10, 65, 64
11, 431880, Note_off_c, 10, 74, 64
11, 431880, Note_on_c, 10, 65, 77
11, 431880, Note_on_c, 10, 74, 67
11, 432000, Note_off_c, 10, 74, 64
11, 432000, Note_off_c, 10, 65, 64
11, 432000, Note_on_c, 10, 74, 119
11, 432000, Note_on_c, 10, 65, 119
11, 432120, Note_off_c, 10, 65, 64
11, 432120, Note_off_c, 10, 74, 64
11, 432120, Note_on_c, 10, 74, 64
11, 432120, Note_on_c, 10, 65, 85
11, 432240, Note_off_c, 10, 65, 64
11, 432240, Note_off_c, 10, 74, 64
11, 432240, Note_on_c, 10, 74, 71
11, 432240, Note_on_c, 10, 65, 89
11, 432360, Note_off_c, 10, 65, 64
11, 432360, Note_off_c, 10, 74, 64
11, 432360, Note_on_c, 10, 74, 71
11, 432360, Note_on_c, 10, 65, 84
11, 432480, Note_off_c, 10, 65, 64
11, 432480, Note_off_c, 10, 74, 64
11, 432480, Note_on_c, 10, 74, 125
11, 432480, Note_on_c, 10, 65, 127
11, 432600, Note_off_c, 10, 65, 64
11, 432600, Note_off_c, 10, 74, 64
11, 432600, Note_on_c, 10, 74, 94
11, 432600, Note_on_c, 10, 65, 94
11, 432720, Note_off_c, 10, 65, 64
11, 432720, Note_off_c, 10, 74, 64
11, 432720, Note_on_c, 10, 74, 90
11, 432720, Note_on_c, 10, 65, 90
11, 432840, Note_off_c, 10, 65, 64
11, 432840, Note_off_c, 10, 74, 64
11, 432840, Note_on_c, 10, 65, 98
11, 432840, Note_on_c, 10, 74, 98
11, 432960, Note_off_c, 10, 74, 64
11, 432960, Note_off_c, 10, 65, 64
11, 432960, Note_on_c, 10, 72, 105
11, 432960, Note_on_c, 10, 64, 115
11, 432960, Note_on_c, 10, 55, 105
11, 433200, Note_off_c, 10, 55, 64
11, 433200, Note_off_c, 10, 64, 64
11, 433440, Note_off_c, 10, 72, 64
11, 433920, Note_on_c, 10, 72, 85
11, 434400, Note_off_c, 10, 72, 64
11, 434400, Note_on_c, 10, 84, 86
11, 434520, Note_off_c, 10, 84, 64
11, 434640, Note_on_c, 10, 84, 93
11, 434760, Note_off_c, 10, 84, 64
11, 434880, Note_on_c, 10, 84, 84
11, 435000, Note_off_c, 10, 84, 64
11, 435000, Note_on_c, 10, 82, 93
11, 435120, Note_off_c, 10, 82, 64
11, 435120, Note_on_c, 10, 81, 94
11, 435180, Note_off_c, 10, 81, 64
11, 435240, Note_on_c, 10, 79, 94
11, 435300, Note_off_c, 10, 79, 64
11, 435360, Note_on_c, 10, 77, 94
11, 435420, Note_off_c, 10, 77, 64
11, 435480, Note_on_c, 10, 76, 99
11, 435540, Note_off_c, 10, 76, 64
11, 435600, Note_on_c, 10, 74, 99
11, 435660, Note_off_c, 10, 74, 64
11, 435720, Note_on_c, 10, 72, 84
11, 435780, Note_off_c, 10, 72, 64
11, 435840, Note_on_c, 10, 70, 95
11, 436320, Note_off_c, 10, 70, 64
11, 436320, Note_on_c, 10, 82, 93
11, 436440, Note_off_c, 10, 82, 64
11, 436560, Note_on_c, 10, 82, 94
11, 436680, Note_off_c, 10, 82, 64
11, 436800, Note_on_c, 10, 81, 99
11, 437040, Note_off_c, 10, 81, 64
11, 437280, Note_on_c, 10, 81, 127
11, 437340, Note_off_c, 10, 81, 64
11, 437340, Note_on_c, 10, 79, 112
11, 437400, Note_off_c, 10, 79, 64
11, 437400, Note_on_c, 10, 77, 99
11, 437460, Note_off_c, 10, 77, 64
11, 437460, Note_on_c, 10, 76, 110
11, 437520, Note_off_c, 10, 76, 64
11, 437520, Note_on_c, 10, 74, 99
11, 437580, Note_off_c, 10, 74, 64
11, 437580, Note_on_c, 10, 72, 99
11, 437640, Note_off_c, 10, 72, 64
11, 437640, Note_on_c, 10, 71, 99
11, 437700, Note_off_c, 10, 71, 64
11, 437700, Note_on_c, 10, 69, 110
11, 437760, Note_off_c, 10, 69, 64
11, 437760, Note_on_c, 10, 71, 98
11, 438000, Note_off_c, 10, 71, 64
11, 438240, Note_on_c, 10, 71, 127
11, 438300, Note_off_c, 10, 71, 64
11, 438300, Note_on_c, 10, 72, 115
11, 438360, Note_off_c, 10, 72, 64
11, 438360, Note_on_c, 10, 74, 101
11, 438420, Note_off_c, 10, 74, 64
11, 438420, Note_on_c, 10, 76, 99
11, 438480, Note_off_c, 10, 76, 64
11, 438480, Note_on_c, 10, 77, 89
11, 438540, Note_off_c, 10, 77, 64
11, 438540, Note_on_c, 10, 79, 90
11, 438600, Note_off_c, 10, 79, 64
11, 438600, Note_on_c, 10, 81, 99
11, 438660, Note_off_c, 10, 81, 64
11, 438660, Note_on_c, 10, 83, 94
11, 438720, Note_off_c, 10, 83, 64
11, 438720, Note_on_c, 10, 84, 119
11, 439440, Note_off_c, 10, 84, 64
11, 439620, Note_on_c, 10, 72, 95
11, 439680, Note_off_c, 10, 72, 64
11, 439680, Note_on_c, 10, 76, 99
11, 440040, Note_off_c, 10, 76, 64
11, 440100, Note_on_c, 10, 76, 98
11, 440160, Note_off_c, 10, 76, 64
11, 440160, Note_on_c, 10, 72, 94
11, 440520, Note_off_c, 10, 72, 64
11, 440580, Note_on_c, 10, 72, 95
11, 440640, Note_off_c, 10, 72, 64
11, 440640, Note_on_c, 10, 69, 125
11, 441360, Note_off_c, 10, 69, 64
11, 441540, Note_on_c, 10, 69, 99
11, 441600, Note_off_c, 10, 69, 64
11, 441600, Note_on_c, 10, 72, 93
11, 441960, Note_off_c, 10, 72, 64
11, 442020, Note_on_c, 10, 72, 94
11, 442080, Note_off_c, 10, 72, 64
11, 442080, Note_on_c, 10, 69, 94
11, 442440, Note_off_c, 10, 69, 64
11, 442500, Note_on_c, 10, 69, 99
11, 442560, Note_off_c, 10, 69, 64
11, 442560, Note_on_c, 10, 66, 125
11, 442920, Note_off_c, 10, 66, 64
11, 442980, Note_on_c, 10, 66, 127
11, 443040, Note_off_c, 10, 66, 64
11, 443040, Note_on_c, 10, 69, 127
11, 443400, Note_off_c, 10, 69, 64
11, 443460, Note_on_c, 10, 72, 123
11, 443520, Note_off_c, 10, 72, 64
11, 443520, Note_on_c, 10, 75, 123
11, 443880, Note_off_c, 10, 75, 64
11, 443940, Note_on_c, 10, 72, 125
11, 444000, Note_off_c, 10, 72, 64
11, 444000, Note_on_c, 10, 69, 125
11, 444360, Note_off_c, 10, 69, 64
11, 444420, Note_on_c, 10, 66, 125
11, 444480, Note_off_c, 10, 66, 64
11, 444480, Note_on_c, 10, 67, 115
11, 444480, Note_on_c, 10, 55, 117
11, 445440, Control_c, 10, 7, 90
11, 445440, Control_c, 10, 10, 26
11, 445440, Control_c, 10, 93, 0
11, 445440, Control_c, 10, 91, 66
11, 445920, Note_off_c, 10, 55, 64
11, 445920, Note_off_c, 10, 67, 64
11, 479520, Note_on_c, 10, 72, 86
11, 479520, Note_on_c, 10, 64, 93
11, 479520, Note_on_c, 10, 55, 101
11, 479760, Note_off_c, 10, 55, 64
11, 479760, Note_off_c, 10, 64, 64
11, 479760, Note_off_c, 10, 72, 64
11, 481680, Note_on_c, 10, 79, 57
11, 481740, Note_off_c, 10, 79, 64
11, 481740, Note_on_c, 10, 78, 57
11, 481800, Note_off_c, 10, 78, 64
11, 481800, Note_on_c, 10, 79, 66
11, 481860, Note_off_c, 10, 79, 64
11, 481860, Note_on_c, 10, 78, 67
11, 481920, Note_off_c, 10, 78, 64
11, 481920, Note_on_c, 10, 79, 84
11, 482040, Note_off_c, 10, 79, 64
11, 482160, Note_on_c, 10, 79, 74
11, 482220, Note_off_c, 10, 79, 64
11, 482220, Note_on_c, 10, 78, 68
11, 482280, Note_off_c, 10, 78, 64
11, 482280, Note_on_c, 10, 79, 81
11, 482340, Note_off_c, 10, 79, 64
11, 482340, Note_on_c, 10, 78, 69
11, 482400, Note_off_c, 10, 78, 64
11, 482400, Note_on_c, 10, 79, 78
11, 482520, Note_off_c, 10, 79, 64
11, 483600, Note_on_c, 10, 79, 71
11, 483660, Note_off_c, 10, 79, 64
11, 483660, Note_on_c, 10, 78, 64
11, 483720, Note_off_c, 10, 78, 64
11, 483720, Note_on_c, 10, 79, 81
11, 483780, Note_off_c, 10, 79, 64
11, 483780, Note_on_c, 10, 78, 67
11, 483840, Note_off_c, 10, 78, 64
11, 483840, Note_on_c, 10, 79, 84
11, 483960, Note_off_c, 10, 79, 64
11, 484080, Note_on_c, 10, 79, 80
11, 484140, Note_off_c, 10, 79, 64
11, 484140, Note_on_c, 10, 77, 80
11, 484200, Note_off_c, 10, 77, 64
11, 484200, Note_on_c, 10, 76, 84
11, 484260, Note_off_c, 10, 76, 64
11, 484260, Note_on_c, 10, 74, 81
11, 484320, Note_off_c, 10, 74, 64
11, 484320, Note_on_c, 10, 72, 119
11, 484560, Note_off_c, 10, 72, 64
11, 485280, Note_on_c, 10, 60, 119
11, 485760, Note_off_c, 10, 60, 64
11, 485760, Note_on_c, 10, 72, 119
11, 485880, Note_off_c, 10, 72, 64
11, 486000, Note_on_c, 10, 72, 123
11, 486120, Note_off_c, 10, 72, 64
11, 486240, Note_on_c, 10, 72, 119
11, 486480, Note_off_c, 10, 72, 64
11, 487200, Note_on_c, 10, 64, 125
11, 487680, Note_off_c, 10, 64, 64
11, 487680, Note_on_c, 10, 76, 125
11, 487800, Note_off_c, 10, 76, 64
11, 487920, Note_on_c, 10, 76, 125
11, 488040, Note_off_c, 10, 76, 64
11, 488160, Note_on_c, 10, 79, 127
11, 488640, Note_off_c, 10, 79, 64
11, 488760, Note_on_c, 10, 77, 119
11, 488820, Note_off_c, 10, 77, 64
11, 488820, Note_on_c, 10, 76, 119
11, 488880, Note_off_c, 10, 76, 64
11, 488880, Note_on_c, 10, 74, 123
11, 488940, Note_off_c, 10, 74, 64
11, 488940, Note_on_c, 10, 72, 119
11, 489000, Note_off_c, 10, 72, 64
11, 489000, Note_on_c, 10, 71, 125
11, 489060, Note_off_c, 10, 71, 64
11, 489060, Note_on_c, 10, 69, 127
11, 489120, Note_off_c, 10, 69, 64
11, 489120, Note_on_c, 10, 67, 123
11, 489360, Note_off_c, 10, 67, 64
11, 489600, Note_on_c, 10, 83, 123
11, 489600, Note_on_c, 10, 74, 115
11, 489600, Note_on_c, 10, 67, 117
11, 489840, Note_off_c, 10, 67, 64
11, 489840, Note_off_c, 10, 74, 64
11, 489840, Note_off_c, 10, 83, 64
11, 490080, Note_on_c, 10, 84, 105
11, 490080, Note_on_c, 10, 76, 117
11, 490080, Note_on_c, 10, 67, 107
11, 490320, Note_off_c, 10, 67, 64
11, 490320, Note_off_c, 10, 76, 64
11, 490320, Note_off_c, 10, 84, 64
11, 490500, Note_on_c, 10, 72, 119
11, 490500, Note_on_c, 10, 64, 119
11, 490560, Note_off_c, 10, 64, 64
11, 490560, Note_off_c, 10, 72, 64
11, 490560, Note_on_c, 10, 72, 119
11, 490560, Note_on_c, 10, 64, 119
11, 490800, Note_off_c, 10, 64, 64
11, 490800, Note_off_c, 10, 72, 64
11, 490980, Note_on_c, 10, 60, 127
11, 491040, Note_off_c, 10, 60, 64
11, 491040, Note_on_c, 10, 60, 127
11, 491280, Note_off_c, 10, 60, 64
11, 491280, End_track
12, 0, Start_track
12, 0, Title_t, "2nd Violins"
12, 0, Program_c, 11, 48
12, 0, Control_c, 11, 7, 95
12, 0, Control_c, 11, 10, 13
12, 0, Control_c, 11, 93, 0
12, 0, Control_c, 11, 91, 66
12, 0, Note_on_c, 11, 55, 80
12, 480, Note_off_c, 11, 55, 64
12, 480, Note_on_c, 11, 67, 64
12, 600, Note_off_c, 11, 67, 64
12, 720, Note_on_c, 11, 67, 76
12, 840, Note_off_c, 11, 67, 64
12, 960, Note_on_c, 11, 67, 62
12, 1080, Note_off_c, 11, 67, 64
12, 1920, Note_on_c, 11, 64, 66
12, 2040, Note_off_c, 11, 64, 64
12, 2160, Note_on_c, 11, 67, 72
12, 2280, Note_off_c, 11, 67, 64
12, 2400, Note_on_c, 11, 67, 72
12, 2520, Note_off_c, 11, 67, 64
12, 2640, Note_on_c, 11, 74, 68
12, 2760, Note_off_c, 11, 74, 64
12, 2880, Note_on_c, 11, 72, 72
12, 3000, Note_off_c, 11, 72, 64
12, 3120, Note_on_c, 11, 71, 72
12, 3240, Note_off_c, 11, 71, 64
12, 3840, Note_on_c, 11, 59, 80
12, 4320, Note_off_c, 11, 59, 64
12, 4320, Note_on_c, 11, 71, 59
12, 4440, Note_off_c, 11, 71, 64
12, 4560, Note_on_c, 11, 71, 56
12, 4680, Note_off_c, 11, 71, 64
12, 4800, Note_on_c, 11, 71, 57
12, 4920, Note_off_c, 11, 71, 64
12, 5760, Note_on_c, 11, 55, 80
12, 5880, Note_off_c, 11, 55, 64
12, 6000, Note_on_c, 11, 67, 68
12, 6120, Note_off_c, 11, 67, 64
12, 6240, Note_on_c, 11, 67, 71
12, 6360, Note_off_c, 11, 67, 64
12, 6480, Note_on_c, 11, 67, 72
12, 6600, Note_off_c, 11, 67, 64
12, 6720, Note_on_c, 11, 71, 72
12, 6840, Note_off_c, 11, 71, 64
12, 6960, Note_on_c, 11, 72, 71
12, 7080, Note_off_c, 11, 72, 64
12, 7680, Note_on_c, 11, 72, 80
12, 7680, Note_on_c, 11, 69, 80
12, 8160, Note_off_c, 11, 69, 64
12, 8160, Note_off_c, 11, 72, 64
12, 8160, Note_on_c, 11, 72, 80
12, 8160, Note_on_c, 11, 69, 80
12, 8400, Note_off_c, 11, 69, 64
12, 8400, Note_off_c, 11, 72, 64
12, 8400, Note_on_c, 11, 72, 80
12, 8400, Note_on_c, 11, 69, 80
12, 8640, Note_off_c, 11, 69, 64
12, 8640, Note_off_c, 11, 72, 64
12, 8640, Note_on_c, 11, 72, 80
12, 8640, Note_on_c, 11, 67, 80
12, 9600, Note_off_c, 11, 67, 64
12, 9600, Note_off_c, 11, 72, 64
12, 9600, Note_on_c, 11, 74, 80
12, 9600, Note_on_c, 11, 67, 80
12, 9840, Note_off_c, 11, 67, 64
12, 9840, Note_off_c, 11, 74, 64
12, 9840, Note_on_c, 11, 74, 80
12, 9840, Note_on_c, 11, 67, 80
12, 10080, Note_off_c, 11, 67, 64
12, 10080, Note_off_c, 11, 74, 64
12, 10080, Note_on_c, 11, 74, 80
12, 10080, Note_on_c, 11, 67, 80
12, 10320, Note_off_c, 11, 67, 64
12, 10320, Note_off_c, 11, 74, 64
12, 10320, Note_on_c, 11, 74, 80
12, 10320, Note_on_c, 11, 67, 80
12, 10560, Note_off_c, 11, 67, 64
12, 10560, Note_off_c, 11, 74, 64
12, 10560, Note_on_c, 11, 67, 80
12, 10800, Note_off_c, 11, 67, 64
12, 11520, Note_on_c, 11, 62, 80
12, 12000, Note_off_c, 11, 62, 64
12, 12000, Note_on_c, 11, 62, 69
12, 12120, Note_off_c, 11, 62, 64
12, 12240, Note_on_c, 11, 62, 89
12, 12360, Note_off_c, 11, 62, 64
12, 12480, Note_on_c, 11, 62, 80
12, 12720, Note_off_c, 11, 62, 64
12, 12720, Note_on_c, 11, 67, 80
12, 12960, Note_off_c, 11, 67, 64
12, 13200, Note_on_c, 11, 67, 80
12, 13440, Note_off_c, 11, 67, 64
12, 13440, Note_on_c, 11, 69, 80
12, 13680, Note_off_c, 11, 69, 64
12, 13680, Note_on_c, 11, 65, 80
12, 13920, Note_off_c, 11, 65, 64
12, 14160, Note_on_c, 11, 65, 80
12, 14400, Note_off_c, 11, 65, 64
12, 14400, Note_on_c, 11, 72, 80
12, 14400, Note_on_c, 11, 64, 80
12, 14400, Note_on_c, 11, 55, 80
12, 14880, Note_off_c, 11, 55, 64
12, 14880, Note_off_c, 11, 64, 64
12, 14880, Note_off_c, 11, 72, 64
12, 15900, Note_on_c, 11, 60, 80
12, 15960, Note_off_c, 11, 60, 64
12, 15960, Note_on_c, 11, 62, 80
12, 16020, Note_off_c, 11, 62, 64
12, 16020, Note_on_c, 11, 64, 80
12, 16080, Note_off_c, 11, 64, 64
12, 16080, Note_on_c, 11, 65, 80
12, 16140, Note_off_c, 11, 65, 64
12, 16140, Note_on_c, 11, 67, 80
12, 16200, Note_off_c, 11, 67, 64
12, 16200, Note_on_c, 11, 69, 80
12, 16260, Note_off_c, 11, 69, 64
12, 16260, Note_on_c, 11, 71, 80
12, 16320, Note_off_c, 11, 71, 64
12, 16320, Note_on_c, 11, 72, 101
12, 16440, Note_off_c, 11, 72, 64
12, 16560, Note_on_c, 11, 74, 95
12, 16560, Note_on_c, 11, 67, 101
12, 16680, Note_off_c, 11, 67, 64
12, 16680, Note_off_c, 11, 74, 64
12, 16800, Note_on_c, 11, 72, 99
12, 16800, Note_on_c, 11, 67, 98
12, 16920, Note_off_c, 11, 67, 64
12, 16920, Note_off_c, 11, 72, 64
12, 17040, Note_on_c, 11, 72, 94
12, 17040, Note_on_c, 11, 65, 95
12, 17040, Note_on_c, 11, 55, 93
12, 17160, Note_off_c, 11, 55, 64
12, 17160, Note_off_c, 11, 65, 64
12, 17160, Note_off_c, 11, 72, 64
12, 17280, Note_on_c, 11, 72, 94
12, 17280, Note_on_c, 11, 64, 95
12, 17280, Note_on_c, 11, 55, 94
12, 17400, Note_off_c, 11, 55, 64
12, 17400, Note_off_c, 11, 64, 64
12, 17400, Note_off_c, 11, 72, 64
12, 17520, Note_on_c, 11, 71, 101
12, 17520, Note_on_c, 11, 62, 93
12, 17520, Note_on_c, 11, 55, 99
12, 17640, Note_off_c, 11, 55, 64
12, 17640, Note_off_c, 11, 62, 64
12, 17640, Note_off_c, 11, 71, 64
12, 18240, Note_on_c, 11, 74, 80
12, 18240, Note_on_c, 11, 67, 80
12, 18240, Note_on_c, 11, 59, 80
12, 18720, Note_off_c, 11, 59, 64
12, 18720, Note_off_c, 11, 67, 64
12, 18720, Note_off_c, 11, 74, 64
12, 19740, Note_on_c, 11, 55, 80
12, 19800, Note_off_c, 11, 55, 64
12, 19800, Note_on_c, 11, 57, 80
12, 19860, Note_off_c, 11, 57, 64
12, 19860, Note_on_c, 11, 59, 80
12, 19920, Note_off_c, 11, 59, 64
12, 19920, Note_on_c, 11, 60, 80
12, 19980, Note_off_c, 11, 60, 64
12, 19980, Note_on_c, 11, 62, 80
12, 20040, Note_off_c, 11, 62, 64
12, 20040, Note_on_c, 11, 64, 80
12, 20100, Note_off_c, 11, 64, 64
12, 20100, Note_on_c, 11, 66, 80
12, 20160, Note_off_c, 11, 66, 64
12, 20160, Note_on_c, 11, 67, 104
12, 20280, Note_off_c, 11, 67, 64
12, 20400, Note_on_c, 11, 55, 105
12, 20520, Note_off_c, 11, 55, 64
12, 20640, Note_on_c, 11, 71, 99
12, 20640, Note_on_c, 11, 62, 95
12, 20640, Note_on_c, 11, 55, 94
12, 20760, Note_off_c, 11, 55, 64
12, 20760, Note_off_c, 11, 62, 64
12, 20760, Note_off_c, 11, 71, 64
12, 20880, Note_on_c, 11, 72, 86
12, 20880, Note_on_c, 11, 64, 95
12, 20880, Note_on_c, 11, 55, 99
12, 21000, Note_off_c, 11, 55, 64
12, 21000, Note_off_c, 11, 64, 64
12, 21000, Note_off_c, 11, 72, 64
12, 21120, Note_on_c, 11, 74, 104
12, 21120, Note_on_c, 11, 65, 99
12, 21120, Note_on_c, 11, 55, 98
12, 21240, Note_off_c, 11, 55, 64
12, 21240, Note_off_c, 11, 65, 64
12, 21240, Note_off_c, 11, 74, 64
12, 21360, Note_on_c, 11, 72, 84
12, 21360, Note_on_c, 11, 64, 99
12, 21360, Note_on_c, 11, 55, 98
12, 21480, Note_off_c, 11, 55, 64
12, 21480, Note_off_c, 11, 64, 64
12, 21480, Note_off_c, 11, 72, 64
12, 21660, Note_on_c, 11, 60, 80
12, 21720, Note_off_c, 11, 60, 64
12, 21720, Note_on_c, 11, 62, 80
12, 21780, Note_off_c, 11, 62, 64
12, 21780, Note_on_c, 11, 64, 80
12, 21840, Note_off_c, 11, 64, 64
12, 21840, Note_on_c, 11, 65, 80
12, 21900, Note_off_c, 11, 65, 64
12, 21900, Note_on_c, 11, 67, 80
12, 21960, Note_off_c, 11, 67, 64
12, 21960, Note_on_c, 11, 69, 80
12, 22020, Note_off_c, 11, 69, 64
12, 22020, Note_on_c, 11, 71, 80
12, 22080, Note_off_c, 11, 71, 64
12, 22080, Note_on_c, 11, 72, 80
12, 22140, Note_off_c, 11, 72, 64
12, 22140, Note_on_c, 11, 72, 80
12, 22200, Note_off_c, 11, 72, 64
12, 22200, Note_on_c, 11, 72, 80
12, 22260, Note_off_c, 11, 72, 64
12, 22260, Note_on_c, 11, 72, 80
12, 22320, Note_off_c, 11, 72, 64
12, 22320, Note_on_c, 11, 69, 80
12, 22380, Note_off_c, 11, 69, 64
12, 22380, Note_on_c, 11, 69, 80
12, 22440, Note_off_c, 11, 69, 64
12, 22440, Note_on_c, 11, 65, 80
12, 22500, Note_off_c, 11, 65, 64
12, 22500, Note_on_c, 11, 65, 80
12, 22560, Note_off_c, 11, 65, 64
12, 22560, Note_on_c, 11, 60, 80
12, 22620, Note_off_c, 11, 60, 64
12, 22620, Note_on_c, 11, 60, 80
12, 22680, Note_off_c, 11, 60, 64
12, 22680, Note_on_c, 11, 72, 80
12, 22740, Note_off_c, 11, 72, 64
12, 22740, Note_on_c, 11, 72, 80
12, 22800, Note_off_c, 11, 72, 64
12, 22800, Note_on_c, 11, 69, 80
12, 22800, Note_on_c, 11, 69, 80
12, 22860, Note_off_c, 11, 69, 64
12, 22860, Note_off_c, 11, 69, 64
12, 22860, Note_on_c, 11, 69, 80
12, 22920, Note_off_c, 11, 69, 64
12, 22920, Note_on_c, 11, 65, 80
12, 22980, Note_off_c, 11, 65, 64
12, 22980, Note_on_c, 11, 65, 80
12, 23040, Note_off_c, 11, 65, 64
12, 23040, Note_on_c, 11, 60, 80
12, 23100, Note_off_c, 11, 60, 64
12, 23100, Note_on_c, 11, 60, 80
12, 23160, Note_off_c, 11, 60, 64
12, 23160, Note_on_c, 11, 72, 80
12, 23220, Note_off_c, 11, 72, 64
12, 23220, Note_on_c, 11, 72, 80
12, 23220, Note_on_c, 11, 72, 80
12, 23280, Note_off_c, 11, 72, 64
12, 23280, Note_off_c, 11, 72, 64
12, 23280, Note_on_c, 11, 69, 80
12, 23340, Note_off_c, 11, 69, 64
12, 23340, Note_on_c, 11, 69, 80
12, 23400, Note_off_c, 11, 69, 64
12, 23400, Note_on_c, 11, 65, 80
12, 23460, Note_off_c, 11, 65, 64
12, 23460, Note_on_c, 11, 65, 80
12, 23520, Note_off_c, 11, 65, 64
12, 23520, Note_on_c, 11, 60, 80
12, 23580, Note_off_c, 11, 60, 64
12, 23580, Note_on_c, 11, 60, 80
12, 23640, Note_off_c, 11, 60, 64
12, 23640, Note_on_c, 11, 72, 80
12, 23700, Note_off_c, 11, 72, 64
12, 23700, Note_on_c, 11, 72, 80
12, 23760, Note_off_c, 11, 72, 64
12, 23760, Note_on_c, 11, 69, 80
12, 23820, Note_off_c, 11, 69, 64
12, 23820, Note_on_c, 11, 69, 80
12, 23880, Note_off_c, 11, 69, 64
12, 23880, Note_on_c, 11, 65, 80
12, 23940, Note_off_c, 11, 65, 64
12, 23940, Note_on_c, 11, 65, 80
12, 24000, Note_off_c, 11, 65, 64
12, 24000, Note_on_c, 11, 60, 80
12, 24060, Note_off_c, 11, 60, 64
12, 24060, Note_on_c, 11, 60, 80
12, 24120, Note_off_c, 11, 60, 64
12, 24120, Note_on_c, 11, 72, 80
12, 24180, Note_off_c, 11, 72, 64
12, 24180, Note_on_c, 11, 72, 80
12, 24240, Note_off_c, 11, 72, 64
12, 24240, Note_on_c, 11, 67, 80
12, 24300, Note_off_c, 11, 67, 64
12, 24300, Note_on_c, 11, 67, 80
12, 24360, Note_off_c, 11, 67, 64
12, 24360, Note_on_c, 11, 64, 80
12, 24420, Note_off_c, 11, 64, 64
12, 24420, Note_on_c, 11, 64, 80
12, 24480, Note_off_c, 11, 64, 64
12, 24480, Note_on_c, 11, 60, 80
12, 24540, Note_off_c, 11, 60, 64
12, 24540, Note_on_c, 11, 60, 80
12, 24600, Note_off_c, 11, 60, 64
12, 24600, Note_on_c, 11, 72, 80
12, 24660, Note_off_c, 11, 72, 64
12, 24660, Note_on_c, 11, 72, 80
12, 24720, Note_off_c, 11, 72, 64
12, 24720, Note_on_c, 11, 67, 80
12, 24780, Note_off_c, 11, 67, 64
12, 24780, Note_on_c, 11, 67, 80
12, 24840, Note_off_c, 11, 67, 64
12, 24840, Note_on_c, 11, 64, 80
12, 24900, Note_off_c, 11, 64, 64
12, 24900, Note_on_c, 11, 64, 80
12, 24960, Note_off_c, 11, 64, 64
12, 24960, Note_on_c, 11, 60, 81
12, 25020, Note_off_c, 11, 60, 64
12, 25020, Note_on_c, 11, 60, 85
12, 25080, Note_off_c, 11, 60, 64
12, 25080, Note_on_c, 11, 72, 71
12, 25140, Note_off_c, 11, 72, 64
12, 25140, Note_on_c, 11, 72, 62
12, 25200, Note_off_c, 11, 72, 64
12, 25200, Note_on_c, 11, 67, 78
12, 25260, Note_off_c, 11, 67, 64
12, 25260, Note_on_c, 11, 67, 84
12, 25320, Note_off_c, 11, 67, 64
12, 25320, Note_on_c, 11, 64, 80
12, 25380, Note_off_c, 11, 64, 64
12, 25380, Note_on_c, 11, 64, 85
12, 25440, Note_off_c, 11, 64, 64
12, 25440, Note_on_c, 11, 60, 76
12, 25500, Note_off_c, 11, 60, 64
12, 25500, Note_on_c, 11, 60, 85
12, 25560, Note_off_c, 11, 60, 64
12, 25560, Note_on_c, 11, 72, 46
12, 25620, Note_off_c, 11, 72, 64
12, 25620, Note_on_c, 11, 72, 77
12, 25680, Note_off_c, 11, 72, 64
12, 25680, Note_on_c, 11, 67, 78
12, 25740, Note_off_c, 11, 67, 64
12, 25740, Note_on_c, 11, 67, 84
12, 25800, Note_off_c, 11, 67, 64
12, 25800, Note_on_c, 11, 64, 89
12, 25860, Note_off_c, 11, 64, 64
12, 25860, Note_on_c, 11, 64, 86
12, 25920, Note_off_c, 11, 64, 64
12, 25920, Note_on_c, 11, 65, 99
12, 25980, Note_off_c, 11, 65, 64
12, 25980, Note_on_c, 11, 65, 94
12, 26040, Note_off_c, 11, 65, 64
12, 26040, Note_on_c, 11, 65, 99
12, 26100, Note_off_c, 11, 65, 64
12, 26100, Note_on_c, 11, 65, 99
12, 26160, Note_off_c, 11, 65, 64
12, 26160, Note_on_c, 11, 65, 99
12, 26220, Note_off_c, 11, 65, 64
12, 26220, Note_on_c, 11, 65, 94
12, 26280, Note_off_c, 11, 65, 64
12, 26280, Note_on_c, 11, 65, 94
12, 26340, Note_off_c, 11, 65, 64
12, 26340, Note_on_c, 11, 65, 105
12, 26400, Note_off_c, 11, 65, 64
12, 26400, Note_on_c, 11, 69, 85
12, 26460, Note_off_c, 11, 69, 64
12, 26460, Note_on_c, 11, 69, 93
12, 26520, Note_off_c, 11, 69, 64
12, 26520, Note_on_c, 11, 69, 99
12, 26580, Note_off_c, 11, 69, 64
12, 26580, Note_on_c, 11, 69, 99
12, 26640, Note_off_c, 11, 69, 64
12, 26640, Note_on_c, 11, 69, 101
12, 26700, Note_off_c, 11, 69, 64
12, 26700, Note_on_c, 11, 69, 95
12, 26760, Note_off_c, 11, 69, 64
12, 26760, Note_on_c, 11, 69, 95
12, 26820, Note_off_c, 11, 69, 64
12, 26820, Note_on_c, 11, 69, 99
12, 26880, Note_off_c, 11, 69, 64
12, 26880, Note_on_c, 11, 59, 84
12, 26880, Note_on_c, 11, 55, 72
12, 26940, Note_off_c, 11, 55, 64
12, 26940, Note_off_c, 11, 59, 64
12, 26940, Note_on_c, 11, 59, 84
12, 26940, Note_on_c, 11, 55, 69
12, 27000, Note_off_c, 11, 55, 64
12, 27000, Note_off_c, 11, 59, 64
12, 27000, Note_on_c, 11, 59, 86
12, 27000, Note_on_c, 11, 55, 73
12, 27060, Note_off_c, 11, 55, 64
12, 27060, Note_off_c, 11, 59, 64
12, 27060, Note_on_c, 11, 59, 89
12, 27060, Note_on_c, 11, 55, 76
12, 27120, Note_off_c, 11, 55, 64
12, 27120, Note_off_c, 11, 59, 64
12, 27120, Note_on_c, 11, 59, 85
12, 27120, Note_on_c, 11, 55, 76
12, 27180, Note_off_c, 11, 55, 64
12, 27180, Note_off_c, 11, 59, 64
12, 27180, Note_on_c, 11, 59, 89
12, 27180, Note_on_c, 11, 55, 65
12, 27240, Note_off_c, 11, 55, 64
12, 27240, Note_off_c, 11, 59, 64
12, 27240, Note_on_c, 11, 59, 86
12, 27240, Note_on_c, 11, 55, 74
12, 27300, Note_off_c, 11, 55, 64
12, 27300, Note_off_c, 11, 59, 64
12, 27300, Note_on_c, 11, 59, 84
12, 27300, Note_on_c, 11, 55, 71
12, 27360, Note_off_c, 11, 55, 64
12, 27360, Note_off_c, 11, 59, 64
12, 27360, Note_on_c, 11, 65, 71
12, 27360, Note_on_c, 11, 55, 72
12, 27420, Note_off_c, 11, 55, 64
12, 27420, Note_off_c, 11, 65, 64
12, 27420, Note_on_c, 11, 65, 82
12, 27420, Note_on_c, 11, 55, 74
12, 27480, Note_off_c, 11, 55, 64
12, 27480, Note_off_c, 11, 65, 64
12, 27480, Note_on_c, 11, 65, 82
12, 27480, Note_on_c, 11, 55, 66
12, 27540, Note_off_c, 11, 55, 64
12, 27540, Note_off_c, 11, 65, 64
12, 27540, Note_on_c, 11, 65, 85
12, 27540, Note_on_c, 11, 55, 76
12, 27600, Note_off_c, 11, 55, 64
12, 27600, Note_off_c, 11, 65, 64
12, 27600, Note_on_c, 11, 65, 89
12, 27600, Note_on_c, 11, 55, 71
12, 27660, Note_off_c, 11, 55, 64
12, 27660, Note_off_c, 11, 65, 64
12, 27660, Note_on_c, 11, 65, 85
12, 27660, Note_on_c, 11, 55, 68
12, 27720, Note_off_c, 11, 55, 64
12, 27720, Note_off_c, 11, 65, 64
12, 27720, Note_on_c, 11, 65, 82
12, 27720, Note_on_c, 11, 55, 59
12, 27780, Note_off_c, 11, 55, 64
12, 27780, Note_off_c, 11, 65, 64
12, 27780, Note_on_c, 11, 55, 68
12, 27780, Note_on_c, 11, 65, 84
12, 27840, Note_off_c, 11, 65, 64
12, 27840, Note_off_c, 11, 55, 64
12, 27840, Note_on_c, 11, 64, 81
12, 27840, Note_on_c, 11, 55, 76
12, 27900, Note_off_c, 11, 55, 64
12, 27900, Note_off_c, 11, 64, 64
12, 27900, Note_on_c, 11, 64, 90
12, 27960, Note_off_c, 11, 64, 64
12, 27960, Note_on_c, 11, 64, 93
12, 28020, Note_off_c, 11, 64, 64
12, 28020, Note_on_c, 11, 64, 94
12, 28080, Note_off_c, 11, 64, 64
12, 28080, Note_on_c, 11, 64, 94
12, 28140, Note_off_c, 11, 64, 64
12, 28140, Note_on_c, 11, 64, 89
12, 28200, Note_off_c, 11, 64, 64
12, 28200, Note_on_c, 11, 64, 86
12, 28260, Note_off_c, 11, 64, 64
12, 28260, Note_on_c, 11, 64, 90
12, 28320, Note_off_c, 11, 64, 64
12, 28320, Note_on_c, 11, 64, 99
12, 28380, Note_off_c, 11, 64, 64
12, 28380, Note_on_c, 11, 64, 95
12, 28440, Note_off_c, 11, 64, 64
12, 28440, Note_on_c, 11, 64, 99
12, 28500, Note_off_c, 11, 64, 64
12, 28500, Note_on_c, 11, 64, 99
12, 28560, Note_off_c, 11, 64, 64
12, 28560, Note_on_c, 11, 64, 99
12, 28620, Note_off_c, 11, 64, 64
12, 28620, Note_on_c, 11, 64, 99
12, 28680, Note_off_c, 11, 64, 64
12, 28680, Note_on_c, 11, 64, 93
12, 28740, Note_off_c, 11, 64, 64
12, 28740, Note_on_c, 11, 64, 94
12, 28800, Note_off_c, 11, 64, 64
12, 28800, Note_on_c, 11, 64, 99
12, 28860, Note_off_c, 11, 64, 64
12, 28860, Note_on_c, 11, 64, 89
12, 28920, Note_off_c, 11, 64, 64
12, 28920, Note_on_c, 11, 64, 99
12, 28980, Note_off_c, 11, 64, 64
12, 28980, Note_on_c, 11, 64, 101
12, 29040, Note_off_c, 11, 64, 64
12, 29040, Note_on_c, 11, 64, 95
12, 29100, Note_off_c, 11, 64, 64
12, 29100, Note_on_c, 11, 64, 95
12, 29160, Note_off_c, 11, 64, 64
12, 29160, Note_on_c, 11, 64, 95
12, 29220, Note_off_c, 11, 64, 64
12, 29220, Note_on_c, 11, 64, 99
12, 29280, Note_off_c, 11, 64, 64
12, 29280, Note_on_c, 11, 64, 99
12, 29340, Note_off_c, 11, 64, 64
12, 29340, Note_on_c, 11, 64, 99
12, 29400, Note_off_c, 11, 64, 64
12, 29400, Note_on_c, 11, 64, 99
12, 29460, Note_off_c, 11, 64, 64
12, 29460, Note_on_c, 11, 64, 98
12, 29520, Note_off_c, 11, 64, 64
12, 29520, Note_on_c, 11, 64, 98
12, 29580, Note_off_c, 11, 64, 64
12, 29580, Note_on_c, 11, 64, 95
12, 29640, Note_off_c, 11, 64, 64
12, 29640, Note_on_c, 11, 64, 95
12, 29700, Note_off_c, 11, 64, 64
12, 29700, Note_on_c, 11, 64, 94
12, 29760, Note_off_c, 11, 64, 64
12, 29760, Note_on_c, 11, 65, 98
12, 29820, Note_off_c, 11, 65, 64
12, 29820, Note_on_c, 11, 65, 95
12, 29880, Note_off_c, 11, 65, 64
12, 29880, Note_on_c, 11, 72, 80
12, 29940, Note_off_c, 11, 72, 64
12, 29940, Note_on_c, 11, 72, 89
12, 30000, Note_off_c, 11, 72, 64
12, 30000, Note_on_c, 11, 69, 86
12, 30060, Note_off_c, 11, 69, 64
12, 30060, Note_on_c, 11, 69, 99
12, 30120, Note_off_c, 11, 69, 64
12, 30120, Note_on_c, 11, 65, 90
12, 30180, Note_off_c, 11, 65, 64
12, 30180, Note_on_c, 11, 65, 93
12, 30240, Note_off_c, 11, 65, 64
12, 30240, Note_on_c, 11, 60, 86
12, 30300, Note_off_c, 11, 60, 64
12, 30300, Note_on_c, 11, 60, 89
12, 30360, Note_off_c, 11, 60, 64
12, 30360, Note_on_c, 11, 72, 89
12, 30420, Note_off_c, 11, 72, 64
12, 30420, Note_on_c, 11, 72, 86
12, 30480, Note_off_c, 11, 72, 64
12, 30480, Note_on_c, 11, 69, 86
12, 30540, Note_off_c, 11, 69, 64
12, 30540, Note_on_c, 11, 69, 89
12, 30600, Note_off_c, 11, 69, 64
12, 30600, Note_on_c, 11, 65, 95
12, 30660, Note_off_c, 11, 65, 64
12, 30660, Note_on_c, 11, 65, 95
12, 30720, Note_off_c, 11, 65, 64
12, 30720, Note_on_c, 11, 60, 78
12, 30780, Note_off_c, 11, 60, 64
12, 30780, Note_on_c, 11, 60, 93
12, 30840, Note_off_c, 11, 60, 64
12, 30840, Note_on_c, 11, 72, 76
12, 30900, Note_off_c, 11, 72, 64
12, 30900, Note_on_c, 11, 72, 76
12, 30960, Note_off_c, 11, 72, 64
12, 30960, Note_on_c, 11, 69, 84
12, 31020, Note_off_c, 11, 69, 64
12, 31020, Note_on_c, 11, 69, 85
12, 31080, Note_off_c, 11, 69, 64
12, 31080, Note_on_c, 11, 65, 71
12, 31140, Note_off_c, 11, 65, 64
12, 31140, Note_on_c, 11, 65, 84
12, 31200, Note_off_c, 11, 65, 64
12, 31200, Note_on_c, 11, 60, 76
12, 31260, Note_off_c, 11, 60, 64
12, 31260, Note_on_c, 11, 60, 89
12, 31320, Note_off_c, 11, 60, 64
12, 31320, Note_on_c, 11, 72, 76
12, 31380, Note_off_c, 11, 72, 64
12, 31380, Note_on_c, 11, 72, 81
12, 31440, Note_off_c, 11, 72, 64
12, 31440, Note_on_c, 11, 69, 69
12, 31500, Note_off_c, 11, 69, 64
12, 31500, Note_on_c, 11, 69, 89
12, 31560, Note_off_c, 11, 69, 64
12, 31560, Note_on_c, 11, 65, 89
12, 31620, Note_off_c, 11, 65, 64
12, 31620, Note_on_c, 11, 65, 93
12, 31680, Note_off_c, 11, 65, 64
12, 31680, Note_on_c, 11, 64, 89
12, 31740, Note_off_c, 11, 64, 64
12, 31740, Note_on_c, 11, 64, 95
12, 31800, Note_off_c, 11, 64, 64
12, 31800, Note_on_c, 11, 72, 84
12, 31860, Note_off_c, 11, 72, 64
12, 31860, Note_on_c, 11, 72, 84
12, 31920, Note_off_c, 11, 72, 64
12, 31920, Note_on_c, 11, 67, 85
12, 31980, Note_off_c, 11, 67, 64
12, 31980, Note_on_c, 11, 67, 82
12, 32040, Note_off_c, 11, 67, 64
12, 32040, Note_on_c, 11, 64, 86
12, 32100, Note_off_c, 11, 64, 64
12, 32100, Note_on_c, 11, 64, 94
12, 32160, Note_off_c, 11, 64, 64
12, 32160, Note_on_c, 11, 60, 89
12, 32220, Note_off_c, 11, 60, 64
12, 32220, Note_on_c, 11, 60, 90
12, 32280, Note_off_c, 11, 60, 64
12, 32280, Note_on_c, 11, 72, 70
12, 32340, Note_off_c, 11, 72, 64
12, 32340, Note_on_c, 11, 72, 81
12, 32400, Note_off_c, 11, 72, 64
12, 32400, Note_on_c, 11, 67, 84
12, 32460, Note_off_c, 11, 67, 64
12, 32460, Note_on_c, 11, 67, 84
12, 32520, Note_off_c, 11, 67, 64
12, 32520, Note_on_c, 11, 64, 86
12, 32580, Note_off_c, 11, 64, 64
12, 32580, Note_on_c, 11, 64, 85
12, 32640, Note_off_c, 11, 64, 64
12, 32640, Note_on_c, 11, 60, 89
12, 32700, Note_off_c, 11, 60, 64
12, 32700, Note_on_c, 11, 60, 86
12, 32760, Note_off_c, 11, 60, 64
12, 32760, Note_on_c, 11, 72, 68
12, 32820, Note_off_c, 11, 72, 64
12, 32820, Note_on_c, 11, 72, 74
12, 32880, Note_off_c, 11, 72, 64
12, 32880, Note_on_c, 11, 67, 80
12, 32940, Note_off_c, 11, 67, 64
12, 32940, Note_on_c, 11, 67, 84
12, 33000, Note_off_c, 11, 67, 64
12, 33000, Note_on_c, 11, 64, 89
12, 33060, Note_off_c, 11, 64, 64
12, 33060, Note_on_c, 11, 64, 93
12, 33120, Note_off_c, 11, 64, 64
12, 33120, Note_on_c, 11, 60, 93
12, 33180, Note_off_c, 11, 60, 64
12, 33180, Note_on_c, 11, 60, 89
12, 33240, Note_off_c, 11, 60, 64
12, 33240, Note_on_c, 11, 72, 71
12, 33300, Note_off_c, 11, 72, 64
12, 33300, Note_on_c, 11, 72, 76
12, 33360, Note_off_c, 11, 72, 64
12, 33360, Note_on_c, 11, 67, 89
12, 33420, Note_off_c, 11, 67, 64
12, 33420, Note_on_c, 11, 67, 93
12, 33480, Note_off_c, 11, 67, 64
12, 33480, Note_on_c, 11, 64, 94
12, 33540, Note_off_c, 11, 64, 64
12, 33540, Note_on_c, 11, 64, 95
12, 33600, Note_off_c, 11, 64, 64
12, 33600, Note_on_c, 11, 72, 80
12, 34080, Note_off_c, 11, 72, 64
12, 34080, Note_on_c, 11, 69, 80
12, 34560, Note_off_c, 11, 69, 64
12, 34560, Note_on_c, 11, 66, 80
12, 35040, Note_off_c, 11, 66, 64
12, 35040, Note_on_c, 11, 60, 80
12, 35520, Note_off_c, 11, 60, 64
12, 35520, Note_on_c, 11, 59, 119
12, 35640, Note_off_c, 11, 59, 64
12, 35760, Note_on_c, 11, 65, 125
12, 36240, Note_off_c, 11, 65, 64
12, 36240, Note_on_c, 11, 64, 80
12, 36480, Note_off_c, 11, 64, 64
12, 36480, Note_on_c, 11, 62, 119
12, 36600, Note_off_c, 11, 62, 64
12, 36720, Note_on_c, 11, 74, 125
12, 37200, Note_off_c, 11, 74, 64
12, 37200, Note_on_c, 11, 72, 80
12, 37440, Note_off_c, 11, 72, 64
12, 37440, Note_on_c, 11, 71, 84
12, 37500, Note_off_c, 11, 71, 64
12, 37560, Note_on_c, 11, 55, 78
12, 37620, Note_off_c, 11, 55, 64
12, 37620, Note_on_c, 11, 55, 86
12, 37680, Note_off_c, 11, 55, 64
12, 37680, Note_on_c, 11, 57, 95
12, 37740, Note_off_c, 11, 57, 64
12, 37740, Note_on_c, 11, 57, 98
12, 37800, Note_off_c, 11, 57, 64
12, 37800, Note_on_c, 11, 59, 93
12, 37860, Note_off_c, 11, 59, 64
12, 37860, Note_on_c, 11, 59, 98
12, 37920, Note_off_c, 11, 59, 64
12, 37920, Note_on_c, 11, 60, 72
12, 37980, Note_off_c, 11, 60, 64
12, 37980, Note_on_c, 11, 60, 89
12, 38040, Note_off_c, 11, 60, 64
12, 38040, Note_on_c, 11, 62, 93
12, 38100, Note_off_c, 11, 62, 64
12, 38100, Note_on_c, 11, 62, 89
12, 38160, Note_off_c, 11, 62, 64
12, 38160, Note_on_c, 11, 64, 94
12, 38220, Note_off_c, 11, 64, 64
12, 38220, Note_on_c, 11, 64, 86
12, 38280, Note_off_c, 11, 64, 64
12, 38280, Note_on_c, 11, 66, 84
12, 38340, Note_off_c, 11, 66, 64
12, 38340, Note_on_c, 11, 66, 94
12, 38400, Note_off_c, 11, 66, 64
12, 38400, Note_on_c, 11, 67, 93
12, 38460, Note_off_c, 11, 67, 64
12, 38520, Note_on_c, 11, 55, 73
12, 38580, Note_off_c, 11, 55, 64
12, 38580, Note_on_c, 11, 55, 89
12, 38640, Note_off_c, 11, 55, 64
12, 38640, Note_on_c, 11, 57, 95
12, 38700, Note_off_c, 11, 57, 64
12, 38700, Note_on_c, 11, 57, 104
12, 38760, Note_off_c, 11, 57, 64
12, 38760, Note_on_c, 11, 59, 98
12, 38820, Note_off_c, 11, 59, 64
12, 38820, Note_on_c, 11, 59, 95
12, 38880, Note_off_c, 11, 59, 64
12, 38880, Note_on_c, 11, 60, 86
12, 38940, Note_off_c, 11, 60, 64
12, 38940, Note_on_c, 11, 60, 90
12, 39000, Note_off_c, 11, 60, 64
12, 39000, Note_on_c, 11, 62, 89
12, 39060, Note_off_c, 11, 62, 64
12, 39060, Note_on_c, 11, 62, 89
12, 39120, Note_off_c, 11, 62, 64
12, 39120, Note_on_c, 11, 64, 90
12, 39180, Note_off_c, 11, 64, 64
12, 39180, Note_on_c, 11, 64, 95
12, 39240, Note_off_c, 11, 64, 64
12, 39240, Note_on_c, 11, 66, 94
12, 39300, Note_off_c, 11, 66, 64
12, 39300, Note_on_c, 11, 66, 110
12, 39360, Note_off_c, 11, 66, 64
12, 39360, Note_on_c, 11, 67, 80
12, 39600, Note_off_c, 11, 67, 64
12, 39840, Note_on_c, 11, 79, 112
12, 39840, Note_on_c, 11, 72, 110
12, 39840, Note_on_c, 11, 64, 112
12, 39960, Note_off_c, 11, 64, 64
12, 39960, Note_off_c, 11, 72, 64
12, 39960, Note_off_c, 11, 79, 64
12, 40320, Note_on_c, 11, 79, 105
12, 40320, Note_on_c, 11, 71, 110
12, 40320, Note_on_c, 11, 62, 110
12, 40440, Note_off_c, 11, 62, 64
12, 40440, Note_off_c, 11, 71, 64
12, 40440, Note_off_c, 11, 79, 64
12, 40800, Note_on_c, 11, 79, 112
12, 40800, Note_on_c, 11, 72, 105
12, 40800, Note_on_c, 11, 64, 112
12, 40920, Note_off_c, 11, 64, 64
12, 40920, Note_off_c, 11, 72, 64
12, 40920, Note_off_c, 11, 79, 64
12, 41280, Note_on_c, 11, 79, 107
12, 41280, Note_on_c, 11, 71, 112
12, 41280, Note_on_c, 11, 62, 115
12, 41400, Note_off_c, 11, 62, 64
12, 41400, Note_off_c, 11, 71, 64
12, 41400, Note_off_c, 11, 79, 64
12, 41520, Note_on_c, 11, 79, 112
12, 41520, Note_on_c, 11, 72, 110
12, 41520, Note_on_c, 11, 64, 115
12, 41640, Note_off_c, 11, 64, 64
12, 41640, Note_off_c, 11, 72, 64
12, 41640, Note_off_c, 11, 79, 64
12, 41760, Note_on_c, 11, 79, 112
12, 41760, Note_on_c, 11, 71, 115
12, 41760, Note_on_c, 11, 62, 115
12, 41880, Note_off_c, 11, 62, 64
12, 41880, Note_off_c, 11, 71, 64
12, 41880, Note_off_c, 11, 79, 64
12, 42000, Note_on_c, 11, 79, 115
12, 42000, Note_on_c, 11, 72, 115
12, 42000, Note_on_c, 11, 64, 123
12, 42120, Note_off_c, 11, 64, 64
12, 42120, Note_off_c, 11, 72, 64
12, 42120, Note_off_c, 11, 79, 64
12, 42240, Note_on_c, 11, 79, 112
12, 42240, Note_on_c, 11, 71, 112
12, 42240, Note_on_c, 11, 62, 110
12, 42360, Note_off_c, 11, 62, 64
12, 42360, Note_off_c, 11, 71, 64
12, 42360, Note_off_c, 11, 79, 64
12, 42660, Note_on_c, 11, 67, 80
12, 42720, Note_off_c, 11, 67, 64
12, 42720, Note_on_c, 11, 67, 80
12, 42960, Note_off_c, 11, 67, 64
12, 43140, Note_on_c, 11, 55, 80
12, 43200, Note_off_c, 11, 55, 64
12, 43200, Note_on_c, 11, 55, 80
12, 43440, Note_off_c, 11, 55, 64
12, 44160, Note_on_c, 11, 55, 54
12, 44280, Note_off_c, 11, 55, 64
12, 44280, Note_on_c, 11, 58, 43
12, 44400, Note_off_c, 11, 58, 64
12, 44400, Note_on_c, 11, 55, 45
12, 44520, Note_off_c, 11, 55, 64
12, 44520, Note_on_c, 11, 58, 29
12, 44640, Note_off_c, 11, 58, 64
12, 44640, Note_on_c, 11, 55, 35
12, 44760, Note_off_c, 11, 55, 64
12, 44760, Note_on_c, 11, 58, 42
12, 44880, Note_off_c, 11, 58, 64
12, 44880, Note_on_c, 11, 55, 43
12, 45000, Note_off_c, 11, 55, 64
12, 45000, Note_on_c, 11, 58, 40
12, 45120, Note_off_c, 11, 58, 64
12, 45120, Note_on_c, 11, 55, 43
12, 45240, Note_off_c, 11, 55, 64
12, 45240, Note_on_c, 11, 58, 29
12, 45360, Note_off_c, 11, 58, 64
12, 45360, Note_on_c, 11, 55, 40
12, 45480, Note_off_c, 11, 55, 64
12, 45480, Note_on_c, 11, 58, 34
12, 45600, Note_off_c, 11, 58, 64
12, 45600, Note_on_c, 11, 55, 50
12, 45720, Note_off_c, 11, 55, 64
12, 45720, Note_on_c, 11, 58, 42
12, 45840, Note_off_c, 11, 58, 64
12, 45840, Note_on_c, 11, 55, 44
12, 45960, Note_off_c, 11, 55, 64
12, 45960, Note_on_c, 11, 58, 40
12, 46080, Note_off_c, 11, 58, 64
12, 46080, Note_on_c, 11, 55, 76
12, 46200, Note_off_c, 11, 55, 64
12, 46200, Note_on_c, 11, 58, 86
12, 46320, Note_off_c, 11, 58, 64
12, 46320, Note_on_c, 11, 55, 68
12, 46440, Note_off_c, 11, 55, 64
12, 46440, Note_on_c, 11, 58, 77
12, 46560, Note_off_c, 11, 58, 64
12, 46560, Note_on_c, 11, 55, 71
12, 46680, Note_off_c, 11, 55, 64
12, 46680, Note_on_c, 11, 58, 76
12, 46800, Note_off_c, 11, 58, 64
12, 46800, Note_on_c, 11, 55, 68
12, 46920, Note_off_c, 11, 55, 64
12, 46920, Note_on_c, 11, 58, 89
12, 47040, Note_off_c, 11, 58, 64
12, 47040, Note_on_c, 11, 56, 80
12, 47160, Note_off_c, 11, 56, 64
12, 47160, Note_on_c, 11, 58, 84
12, 47280, Note_off_c, 11, 58, 64
12, 47280, Note_on_c, 11, 56, 81
12, 47400, Note_off_c, 11, 56, 64
12, 47400, Note_on_c, 11, 58, 81
12, 47520, Note_off_c, 11, 58, 64
12, 47520, Note_on_c, 11, 56, 76
12, 47640, Note_off_c, 11, 56, 64
12, 47640, Note_on_c, 11, 58, 76
12, 47760, Note_off_c, 11, 58, 64
12, 47760, Note_on_c, 11, 56, 76
12, 47880, Note_off_c, 11, 56, 64
12, 47880, Note_on_c, 11, 58, 85
12, 48000, Note_off_c, 11, 58, 64
12, 48000, Note_on_c, 11, 55, 54
12, 48120, Note_off_c, 11, 55, 64
12, 48120, Note_on_c, 11, 58, 81
12, 48240, Note_off_c, 11, 58, 64
12, 48240, Note_on_c, 11, 63, 62
12, 48360, Note_off_c, 11, 63, 64
12, 48360, Note_on_c, 11, 58, 77
12, 48480, Note_off_c, 11, 58, 64
12, 48480, Note_on_c, 11, 55, 61
12, 48600, Note_off_c, 11, 55, 64
12, 48600, Note_on_c, 11, 58, 86
12, 48720, Note_off_c, 11, 58, 64
12, 48720, Note_on_c, 11, 63, 84
12, 48840, Note_off_c, 11, 63, 64
12, 48840, Note_on_c, 11, 58, 85
12, 48960, Note_off_c, 11, 58, 64
12, 48960, Note_on_c, 11, 61, 82
12, 49080, Note_off_c, 11, 61, 64
12, 49080, Note_on_c, 11, 58, 78
12, 49200, Note_off_c, 11, 58, 64
12, 49200, Note_on_c, 11, 62, 81
12, 49320, Note_off_c, 11, 62, 64
12, 49320, Note_on_c, 11, 58, 76
12, 49440, Note_off_c, 11, 58, 64
12, 49440, Note_on_c, 11, 62, 86
12, 49560, Note_off_c, 11, 62, 64
12, 49560, Note_on_c, 11, 58, 80
12, 49680, Note_off_c, 11, 58, 64
12, 49680, Note_on_c, 11, 62, 85
12, 49800, Note_off_c, 11, 62, 64
12, 49800, Note_on_c, 11, 58, 84
12, 49920, Note_off_c, 11, 58, 64
12, 50160, Note_on_c, 11, 61, 80
12, 50400, Note_off_c, 11, 61, 64
12, 50640, Note_on_c, 11, 60, 80
12, 50880, Note_off_c, 11, 60, 64
12, 50880, Note_on_c, 11, 60, 80
12, 51120, Note_off_c, 11, 60, 64
12, 51120, Note_on_c, 11, 58, 80
12, 51360, Note_off_c, 11, 58, 64
12, 51600, Note_on_c, 11, 56, 80
12, 51840, Note_off_c, 11, 56, 64
12, 51840, Note_on_c, 11, 56, 80
12, 52080, Note_off_c, 11, 56, 64
12, 52080, Note_on_c, 11, 55, 80
12, 52320, Note_off_c, 11, 55, 64
12, 52560, Note_on_c, 11, 64, 80
12, 52800, Note_off_c, 11, 64, 64
12, 52800, Note_on_c, 11, 56, 52
12, 52920, Note_off_c, 11, 56, 64
12, 52920, Note_on_c, 11, 60, 82
12, 53040, Note_off_c, 11, 60, 64
12, 53040, Note_on_c, 11, 56, 54
12, 53160, Note_off_c, 11, 56, 64
12, 53160, Note_on_c, 11, 60, 84
12, 53280, Note_off_c, 11, 60, 64
12, 53280, Note_on_c, 11, 56, 43
12, 53400, Note_off_c, 11, 56, 64
12, 53400, Note_on_c, 11, 60, 86
12, 53520, Note_off_c, 11, 60, 64
12, 53520, Note_on_c, 11, 56, 53
12, 53640, Note_off_c, 11, 56, 64
12, 53640, Note_on_c, 11, 60, 94
12, 53760, Note_off_c, 11, 60, 64
12, 53760, Note_on_c, 11, 58, 86
12, 53880, Note_off_c, 11, 58, 64
12, 53880, Note_on_c, 11, 60, 93
12, 54000, Note_off_c, 11, 60, 64
12, 54000, Note_on_c, 11, 58, 81
12, 54120, Note_off_c, 11, 58, 64
12, 54120, Note_on_c, 11, 60, 86
12, 54240, Note_off_c, 11, 60, 64
12, 54240, Note_on_c, 11, 58, 84
12, 54360, Note_off_c, 11, 58, 64
12, 54360, Note_on_c, 11, 60, 86
12, 54480, Note_off_c, 11, 60, 64
12, 54480, Note_on_c, 11, 58, 80
12, 54600, Note_off_c, 11, 58, 64
12, 54600, Note_on_c, 11, 60, 85
12, 54720, Note_off_c, 11, 60, 64
12, 54720, Note_on_c, 11, 56, 70
12, 54840, Note_off_c, 11, 56, 64
12, 54840, Note_on_c, 11, 60, 80
12, 54960, Note_off_c, 11, 60, 64
12, 54960, Note_on_c, 11, 65, 81
12, 55080, Note_off_c, 11, 65, 64
12, 55080, Note_on_c, 11, 60, 84
12, 55200, Note_off_c, 11, 60, 64
12, 55200, Note_on_c, 11, 56, 68
12, 55320, Note_off_c, 11, 56, 64
12, 55320, Note_on_c, 11, 60, 81
12, 55440, Note_off_c, 11, 60, 64
12, 55440, Note_on_c, 11, 65, 86
12, 55560, Note_off_c, 11, 65, 64
12, 55560, Note_on_c, 11, 60, 86
12, 55680, Note_off_c, 11, 60, 64
12, 55680, Note_on_c, 11, 63, 81
12, 55800, Note_off_c, 11, 63, 64
12, 55800, Note_on_c, 11, 60, 76
12, 55920, Note_off_c, 11, 60, 64
12, 55920, Note_on_c, 11, 64, 89
12, 56040, Note_off_c, 11, 64, 64
12, 56040, Note_on_c, 11, 60, 74
12, 56160, Note_off_c, 11, 60, 64
12, 56160, Note_on_c, 11, 64, 89
12, 56280, Note_off_c, 11, 64, 64
12, 56280, Note_on_c, 11, 60, 72
12, 56400, Note_off_c, 11, 60, 64
12, 56400, Note_on_c, 11, 64, 94
12, 56520, Note_off_c, 11, 64, 64
12, 56520, Note_on_c, 11, 60, 74
12, 56640, Note_off_c, 11, 60, 64
12, 56640, Note_on_c, 11, 63, 80
12, 56880, Note_off_c, 11, 63, 64
12, 56880, Note_on_c, 11, 63, 80
12, 57120, Note_off_c, 11, 63, 64
12, 57360, Note_on_c, 11, 62, 80
12, 57600, Note_off_c, 11, 62, 64
12, 57840, Note_on_c, 11, 60, 80
12, 58080, Note_off_c, 11, 60, 64
12, 58320, Note_on_c, 11, 58, 80
12, 58560, Note_off_c, 11, 58, 64
12, 58800, Note_on_c, 11, 57, 80
12, 59040, Note_off_c, 11, 57, 64
12, 59280, Note_on_c, 11, 66, 80
12, 59520, Note_off_c, 11, 66, 64
12, 59520, Note_on_c, 11, 58, 73
12, 59640, Note_off_c, 11, 58, 64
12, 59640, Note_on_c, 11, 62, 86
12, 59760, Note_off_c, 11, 62, 64
12, 59760, Note_on_c, 11, 58, 68
12, 59880, Note_off_c, 11, 58, 64
12, 59880, Note_on_c, 11, 62, 94
12, 60000, Note_off_c, 11, 62, 64
12, 60000, Note_on_c, 11, 58, 71
12, 60120, Note_off_c, 11, 58, 64
12, 60120, Note_on_c, 11, 62, 94
12, 60240, Note_off_c, 11, 62, 64
12, 60240, Note_on_c, 11, 58, 73
12, 60360, Note_off_c, 11, 58, 64
12, 60360, Note_on_c, 11, 62, 95
12, 60480, Note_off_c, 11, 62, 64
12, 60480, Note_on_c, 11, 60, 80
12, 60600, Note_off_c, 11, 60, 64
12, 60600, Note_on_c, 11, 62, 82
12, 60720, Note_off_c, 11, 62, 64
12, 60720, Note_on_c, 11, 60, 85
12, 60840, Note_off_c, 11, 60, 64
12, 60840, Note_on_c, 11, 62, 89
12, 60960, Note_off_c, 11, 62, 64
12, 60960, Note_on_c, 11, 60, 82
12, 61080, Note_off_c, 11, 60, 64
12, 61080, Note_on_c, 11, 62, 86
12, 61200, Note_off_c, 11, 62, 64
12, 61200, Note_on_c, 11, 60, 85
12, 61320, Note_off_c, 11, 60, 64
12, 61320, Note_on_c, 11, 62, 86
12, 61440, Note_off_c, 11, 62, 64
12, 61440, Note_on_c, 11, 55, 73
12, 61560, Note_off_c, 11, 55, 64
12, 61560, Note_on_c, 11, 58, 85
12, 61680, Note_off_c, 11, 58, 64
12, 61680, Note_on_c, 11, 62, 93
12, 61800, Note_off_c, 11, 62, 64
12, 61800, Note_on_c, 11, 58, 84
12, 61920, Note_off_c, 11, 58, 64
12, 61920, Note_on_c, 11, 55, 77
12, 62040, Note_off_c, 11, 55, 64
12, 62040, Note_on_c, 11, 58, 77
12, 62160, Note_off_c, 11, 58, 64
12, 62160, Note_on_c, 11, 62, 93
12, 62280, Note_off_c, 11, 62, 64
12, 62280, Note_on_c, 11, 58, 86
12, 62400, Note_off_c, 11, 58, 64
12, 62400, Note_on_c, 11, 57, 89
12, 62520, Note_off_c, 11, 57, 64
12, 62520, Note_on_c, 11, 60, 77
12, 62640, Note_off_c, 11, 60, 64
12, 62640, Note_on_c, 11, 62, 80
12, 62760, Note_off_c, 11, 62, 64
12, 62760, Note_on_c, 11, 60, 58
12, 62880, Note_off_c, 11, 60, 64
12, 62880, Note_on_c, 11, 57, 90
12, 63000, Note_off_c, 11, 57, 64
12, 63000, Note_on_c, 11, 60, 84
12, 63120, Note_off_c, 11, 60, 64
12, 63120, Note_on_c, 11, 62, 72
12, 63240, Note_off_c, 11, 62, 64
12, 63240, Note_on_c, 11, 60, 74
12, 63360, Note_off_c, 11, 60, 64
12, 63360, Note_on_c, 11, 55, 78
12, 63480, Note_off_c, 11, 55, 64
12, 63480, Note_on_c, 11, 59, 84
12, 63600, Note_off_c, 11, 59, 64
12, 63600, Note_on_c, 11, 62, 77
12, 63720, Note_off_c, 11, 62, 64
12, 63720, Note_on_c, 11, 59, 85
12, 63840, Note_off_c, 11, 59, 64
12, 63840, Note_on_c, 11, 55, 76
12, 63960, Note_off_c, 11, 55, 64
12, 63960, Note_on_c, 11, 59, 89
12, 64080, Note_off_c, 11, 59, 64
12, 64080, Note_on_c, 11, 62, 78
12, 64200, Note_off_c, 11, 62, 64
12, 64200, Note_on_c, 11, 59, 78
12, 64320, Note_off_c, 11, 59, 64
12, 64320, Note_on_c, 11, 55, 85
12, 64440, Note_off_c, 11, 55, 64
12, 64440, Note_on_c, 11, 60, 94
12, 64560, Note_off_c, 11, 60, 64
12, 64560, Note_on_c, 11, 63, 76
12, 64680, Note_off_c, 11, 63, 64
12, 64680, Note_on_c, 11, 60, 90
12, 64800, Note_off_c, 11, 60, 64
12, 64800, Note_on_c, 11, 55, 84
12, 64920, Note_off_c, 11, 55, 64
12, 64920, Note_on_c, 11, 60, 86
12, 65040, Note_off_c, 11, 60, 64
12, 65040, Note_on_c, 11, 63, 81
12, 65160, Note_off_c, 11, 63, 64
12, 65160, Note_on_c, 11, 60, 89
12, 65280, Note_off_c, 11, 60, 64
12, 65280, Note_on_c, 11, 55, 71
12, 65400, Note_off_c, 11, 55, 64
12, 65400, Note_on_c, 11, 62, 76
12, 65520, Note_off_c, 11, 62, 64
12, 65520, Note_on_c, 11, 65, 68
12, 65640, Note_off_c, 11, 65, 64
12, 65640, Note_on_c, 11, 62, 80
12, 65760, Note_off_c, 11, 62, 64
12, 65760, Note_on_c, 11, 55, 68
12, 65880, Note_off_c, 11, 55, 64
12, 65880, Note_on_c, 11, 59, 90
12, 66000, Note_off_c, 11, 59, 64
12, 66000, Note_on_c, 11, 62, 78
12, 66120, Note_off_c, 11, 62, 64
12, 66120, Note_on_c, 11, 59, 89
12, 66240, Note_off_c, 11, 59, 64
12, 66240, Note_on_c, 11, 63, 80
12, 66480, Note_off_c, 11, 63, 64
12, 66720, Note_on_c, 11, 67, 34
12, 66960, Note_off_c, 11, 67, 64
12, 67200, Note_on_c, 11, 63, 29
12, 67440, Note_off_c, 11, 63, 64
12, 67680, Note_on_c, 11, 60, 39
12, 67920, Note_off_c, 11, 60, 64
12, 68160, Note_on_c, 11, 55, 35
12, 68400, Note_off_c, 11, 55, 64
12, 69120, Note_on_c, 11, 67, 35
12, 69120, Note_on_c, 11, 57, 40
12, 70080, Note_off_c, 11, 57, 64
12, 70080, Note_off_c, 11, 67, 64
12, 70080, Note_on_c, 11, 65, 32
12, 70080, Note_on_c, 11, 57, 40
12, 71040, Note_off_c, 11, 57, 64
12, 71040, Note_off_c, 11, 65, 64
12, 71040, Note_on_c, 11, 55, 29
12, 71040, Note_on_c, 11, 55, 80
12, 71040, Note_on_c, 11, 65, 35
12, 72000, Note_off_c, 11, 65, 64
12, 72000, Note_off_c, 11, 55, 64
12, 72000, Note_off_c, 11, 55, 64
12, 72000, Note_on_c, 11, 64, 127
12, 72000, Note_on_c, 11, 55, 119
12, 72240, Note_off_c, 11, 55, 64
12, 72240, Note_off_c, 11, 64, 64
12, 72960, Note_on_c, 11, 66, 125
12, 73080, Note_off_c, 11, 66, 64
12, 73080, Note_on_c, 11, 67, 119
12, 73140, Note_off_c, 11, 67, 64
12, 73140, Note_on_c, 11, 69, 125
12, 73200, Note_off_c, 11, 69, 64
12, 73200, Note_on_c, 11, 70, 123
12, 73260, Note_off_c, 11, 70, 64
12, 73260, Note_on_c, 11, 72, 112
12, 73320, Note_off_c, 11, 72, 64
12, 73320, Note_on_c, 11, 74, 123
12, 73380, Note_off_c, 11, 74, 64
12, 73380, Note_on_c, 11, 76, 125
12, 73440, Note_off_c, 11, 76, 64
12, 73440, Note_on_c, 11, 78, 125
12, 73560, Note_off_c, 11, 78, 64
12, 73680, Note_on_c, 11, 78, 127
12, 73800, Note_off_c, 11, 78, 64
12, 73920, Note_on_c, 11, 79, 125
12, 74160, Note_off_c, 11, 79, 64
12, 74880, Note_on_c, 11, 64, 125
12, 75000, Note_off_c, 11, 64, 64
12, 75000, Note_on_c, 11, 65, 125
12, 75060, Note_off_c, 11, 65, 64
12, 75060, Note_on_c, 11, 67, 119
12, 75120, Note_off_c, 11, 67, 64
12, 75120, Note_on_c, 11, 69, 119
12, 75180, Note_off_c, 11, 69, 64
12, 75180, Note_on_c, 11, 70, 125
12, 75240, Note_off_c, 11, 70, 64
12, 75240, Note_on_c, 11, 72, 115
12, 75300, Note_off_c, 11, 72, 64
12, 75300, Note_on_c, 11, 74, 123
12, 75360, Note_off_c, 11, 74, 64
12, 75360, Note_on_c, 11, 76, 127
12, 75480, Note_off_c, 11, 76, 64
12, 75600, Note_on_c, 11, 76, 127
12, 75720, Note_off_c, 11, 76, 64
12, 75840, Note_on_c, 11, 77, 125
12, 75960, Note_off_c, 11, 77, 64
12, 76320, Note_on_c, 11, 65, 127
12, 76320, Note_on_c, 11, 60, 125
12, 76440, Note_off_c, 11, 60, 64
12, 76440, Note_off_c, 11, 65, 64
12, 76800, Note_on_c, 11, 64, 115
12, 76800, Note_on_c, 11, 60, 117
12, 76920, Note_off_c, 11, 60, 64
12, 76920, Note_off_c, 11, 64, 64
12, 77280, Note_on_c, 11, 76, 112
12, 77280, Note_on_c, 11, 72, 107
12, 77280, Note_on_c, 11, 64, 117
12, 77400, Note_off_c, 11, 64, 64
12, 77400, Note_off_c, 11, 72, 64
12, 77400, Note_off_c, 11, 76, 64
12, 77760, Note_on_c, 11, 77, 105
12, 77760, Note_on_c, 11, 72, 105
12, 77760, Note_on_c, 11, 65, 119
12, 77880, Note_off_c, 11, 65, 64
12, 77880, Note_off_c, 11, 72, 64
12, 77880, Note_off_c, 11, 77, 64
12, 78240, Note_on_c, 11, 69, 127
12, 78300, Note_off_c, 11, 69, 64
12, 78300, Note_on_c, 11, 67, 125
12, 78360, Note_off_c, 11, 67, 64
12, 78360, Note_on_c, 11, 65, 125
12, 78420, Note_off_c, 11, 65, 64
12, 78420, Note_on_c, 11, 64, 127
12, 78480, Note_off_c, 11, 64, 64
12, 78480, Note_on_c, 11, 62, 123
12, 78540, Note_off_c, 11, 62, 64
12, 78540, Note_on_c, 11, 60, 125
12, 78600, Note_off_c, 11, 60, 64
12, 78600, Note_on_c, 11, 59, 123
12, 78660, Note_off_c, 11, 59, 64
12, 78660, Note_on_c, 11, 57, 125
12, 78720, Note_off_c, 11, 57, 64
12, 78720, Note_on_c, 11, 62, 115
12, 78720, Note_on_c, 11, 59, 117
12, 78960, Note_off_c, 11, 59, 64
12, 78960, Note_off_c, 11, 62, 64
12, 79200, Note_on_c, 11, 59, 125
12, 79260, Note_off_c, 11, 59, 64
12, 79260, Note_on_c, 11, 60, 119
12, 79320, Note_off_c, 11, 60, 64
12, 79320, Note_on_c, 11, 62, 117
12, 79380, Note_off_c, 11, 62, 64
12, 79380, Note_on_c, 11, 64, 119
12, 79440, Note_off_c, 11, 64, 64
12, 79440, Note_on_c, 11, 65, 123
12, 79500, Note_off_c, 11, 65, 64
12, 79500, Note_on_c, 11, 67, 119
12, 79560, Note_off_c, 11, 67, 64
12, 79560, Note_on_c, 11, 69, 123
12, 79620, Note_off_c, 11, 69, 64
12, 79620, Note_on_c, 11, 71, 119
12, 79680, Note_off_c, 11, 71, 64
12, 79680, Note_on_c, 11, 72, 119
12, 79920, Note_off_c, 11, 72, 64
12, 80160, Note_on_c, 11, 81, 115
12, 80160, Note_on_c, 11, 72, 104
12, 80160, Note_on_c, 11, 65, 112
12, 80400, Note_off_c, 11, 65, 64
12, 80400, Note_off_c, 11, 72, 64
12, 80400, Note_off_c, 11, 81, 64
12, 80640, Note_on_c, 11, 79, 112
12, 80640, Note_on_c, 11, 72, 105
12, 80640, Note_on_c, 11, 64, 115
12, 80880, Note_off_c, 11, 64, 64
12, 80880, Note_off_c, 11, 72, 64
12, 80880, Note_off_c, 11, 79, 64
12, 81120, Note_on_c, 11, 71, 119
12, 81120, Note_on_c, 11, 62, 112
12, 81120, Note_on_c, 11, 55, 112
12, 81360, Note_off_c, 11, 55, 64
12, 81360, Note_off_c, 11, 62, 64
12, 81360, Note_off_c, 11, 71, 64
12, 81600, Note_on_c, 11, 60, 86
12, 81720, Note_off_c, 11, 60, 64
12, 81720, Note_on_c, 11, 55, 84
12, 81840, Note_off_c, 11, 55, 64
12, 81840, Note_on_c, 11, 60, 86
12, 81960, Note_off_c, 11, 60, 64
12, 81960, Note_on_c, 11, 55, 80
12, 82080, Note_off_c, 11, 55, 64
12, 82080, Note_on_c, 11, 60, 89
12, 82200, Note_off_c, 11, 60, 64
12, 82200, Note_on_c, 11, 55, 74
12, 82320, Note_off_c, 11, 55, 64
12, 82320, Note_on_c, 11, 62, 80
12, 82440, Note_off_c, 11, 62, 64
12, 82440, Note_on_c, 11, 55, 78
12, 82560, Note_off_c, 11, 55, 64
12, 82560, Note_on_c, 11, 64, 58
12, 82680, Note_off_c, 11, 64, 64
12, 82680, Note_on_c, 11, 55, 80
12, 82800, Note_off_c, 11, 55, 64
12, 82800, Note_on_c, 11, 64, 86
12, 82920, Note_off_c, 11, 64, 64
12, 82920, Note_on_c, 11, 55, 80
12, 83040, Note_off_c, 11, 55, 64
12, 83040, Note_on_c, 11, 64, 78
12, 83160, Note_off_c, 11, 64, 64
12, 83160, Note_on_c, 11, 55, 73
12, 83280, Note_off_c, 11, 55, 64
12, 83280, Note_on_c, 11, 64, 77
12, 83400, Note_off_c, 11, 64, 64
12, 83400, Note_on_c, 11, 55, 73
12, 83520, Note_off_c, 11, 55, 64
12, 83520, Note_on_c, 11, 64, 71
12, 83640, Note_off_c, 11, 64, 64
12, 83640, Note_on_c, 11, 55, 64
12, 83760, Note_off_c, 11, 55, 64
12, 83760, Note_on_c, 11, 64, 74
12, 83880, Note_off_c, 11, 64, 64
12, 83880, Note_on_c, 11, 55, 69
12, 84000, Note_off_c, 11, 55, 64
12, 84000, Note_on_c, 11, 65, 84
12, 84120, Note_off_c, 11, 65, 64
12, 84120, Note_on_c, 11, 55, 76
12, 84240, Note_off_c, 11, 55, 64
12, 84240, Note_on_c, 11, 64, 80
12, 84360, Note_off_c, 11, 64, 64
12, 84360, Note_on_c, 11, 55, 80
12, 84480, Note_off_c, 11, 55, 64
12, 84480, Note_on_c, 11, 62, 82
12, 84600, Note_off_c, 11, 62, 64
12, 84600, Note_on_c, 11, 55, 81
12, 84720, Note_off_c, 11, 55, 64
12, 84720, Note_on_c, 11, 62, 81
12, 84840, Note_off_c, 11, 62, 64
12, 84840, Note_on_c, 11, 55, 82
12, 84960, Note_off_c, 11, 55, 64
12, 84960, Note_on_c, 11, 65, 72
12, 85080, Note_off_c, 11, 65, 64
12, 85080, Note_on_c, 11, 55, 76
12, 85200, Note_off_c, 11, 55, 64
12, 85200, Note_on_c, 11, 62, 94
12, 85320, Note_off_c, 11, 62, 64
12, 85320, Note_on_c, 11, 55, 76
12, 85440, Note_off_c, 11, 55, 64
12, 85440, Note_on_c, 11, 64, 93
12, 85560, Note_off_c, 11, 64, 64
12, 85560, Note_on_c, 11, 55, 78
12, 85680, Note_off_c, 11, 55, 64
12, 85680, Note_on_c, 11, 60, 93
12, 85800, Note_off_c, 11, 60, 64
12, 85800, Note_on_c, 11, 55, 73
12, 85920, Note_off_c, 11, 55, 64
12, 85920, Note_on_c, 11, 60, 94
12, 86040, Note_off_c, 11, 60, 64
12, 86040, Note_on_c, 11, 55, 76
12, 86160, Note_off_c, 11, 55, 64
12, 86160, Note_on_c, 11, 62, 85
12, 86280, Note_off_c, 11, 62, 64
12, 86280, Note_on_c, 11, 55, 76
12, 86400, Note_off_c, 11, 55, 64
12, 86400, Note_on_c, 11, 64, 89
12, 86520, Note_off_c, 11, 64, 64
12, 86520, Note_on_c, 11, 55, 72
12, 86640, Note_off_c, 11, 55, 64
12, 86640, Note_on_c, 11, 64, 86
12, 86760, Note_off_c, 11, 64, 64
12, 86760, Note_on_c, 11, 55, 84
12, 86880, Note_off_c, 11, 55, 64
12, 86880, Note_on_c, 11, 64, 93
12, 87000, Note_off_c, 11, 64, 64
12, 87000, Note_on_c, 11, 55, 74
12, 87120, Note_off_c, 11, 55, 64
12, 87120, Note_on_c, 11, 64, 89
12, 87240, Note_off_c, 11, 64, 64
12, 87240, Note_on_c, 11, 55, 77
12, 87360, Note_off_c, 11, 55, 64
12, 87360, Note_on_c, 11, 64, 86
12, 87480, Note_off_c, 11, 64, 64
12, 87480, Note_on_c, 11, 55, 72
12, 87600, Note_off_c, 11, 55, 64
12, 87600, Note_on_c, 11, 64, 94
12, 87720, Note_off_c, 11, 64, 64
12, 87720, Note_on_c, 11, 55, 81
12, 87840, Note_off_c, 11, 55, 64
12, 87840, Note_on_c, 11, 62, 86
12, 87960, Note_off_c, 11, 62, 64
12, 87960, Note_on_c, 11, 55, 72
12, 88080, Note_off_c, 11, 55, 64
12, 88080, Note_on_c, 11, 62, 89
12, 88200, Note_off_c, 11, 62, 64
12, 88200, Note_on_c, 11, 55, 74
12, 88320, Note_off_c, 11, 55, 64
12, 88320, Note_on_c, 11, 64, 86
12, 88440, Note_off_c, 11, 64, 64
12, 88440, Note_on_c, 11, 55, 73
12, 88560, Note_off_c, 11, 55, 64
12, 88560, Note_on_c, 11, 64, 86
12, 88680, Note_off_c, 11, 64, 64
12, 88680, Note_on_c, 11, 55, 72
12, 88800, Note_off_c, 11, 55, 64
12, 88800, Note_on_c, 11, 64, 84
12, 88920, Note_off_c, 11, 64, 64
12, 88920, Note_on_c, 11, 55, 70
12, 89040, Note_off_c, 11, 55, 64
12, 89040, Note_on_c, 11, 64, 86
12, 89160, Note_off_c, 11, 64, 64
12, 89160, Note_on_c, 11, 55, 64
12, 89280, Note_off_c, 11, 55, 64
12, 89280, Note_on_c, 11, 64, 86
12, 89400, Note_off_c, 11, 64, 64
12, 89400, Note_on_c, 11, 55, 65
12, 89520, Note_off_c, 11, 55, 64
12, 89520, Note_on_c, 11, 64, 89
12, 89640, Note_off_c, 11, 64, 64
12, 89640, Note_on_c, 11, 55, 74
12, 89760, Note_off_c, 11, 55, 64
12, 89760, Note_on_c, 11, 62, 72
12, 89880, Note_off_c, 11, 62, 64
12, 89880, Note_on_c, 11, 55, 81
12, 90000, Note_off_c, 11, 55, 64
12, 90000, Note_on_c, 11, 62, 86
12, 90120, Note_off_c, 11, 62, 64
12, 90120, Note_on_c, 11, 55, 72
12, 90240, Note_off_c, 11, 55, 64
12, 90240, Note_on_c, 11, 64, 81
12, 90300, Note_off_c, 11, 64, 64
12, 90300, Note_on_c, 11, 64, 77
12, 90360, Note_off_c, 11, 64, 64
12, 90360, Note_on_c, 11, 64, 86
12, 90420, Note_off_c, 11, 64, 64
12, 90420, Note_on_c, 11, 64, 84
12, 90480, Note_off_c, 11, 64, 64
12, 90480, Note_on_c, 11, 64, 84
12, 90540, Note_off_c, 11, 64, 64
12, 90540, Note_on_c, 11, 64, 81
12, 90600, Note_off_c, 11, 64, 64
12, 90600, Note_on_c, 11, 64, 94
12, 90660, Note_off_c, 11, 64, 64
12, 90660, Note_on_c, 11, 64, 84
12, 90720, Note_off_c, 11, 64, 64
12, 90720, Note_on_c, 11, 64, 93
12, 90780, Note_off_c, 11, 64, 64
12, 90780, Note_on_c, 11, 64, 89
12, 90840, Note_off_c, 11, 64, 64
12, 90840, Note_on_c, 11, 64, 86
12, 90900, Note_off_c, 11, 64, 64
12, 90900, Note_on_c, 11, 64, 84
12, 90960, Note_off_c, 11, 64, 64
12, 90960, Note_on_c, 11, 64, 94
12, 91020, Note_off_c, 11, 64, 64
12, 91020, Note_on_c, 11, 64, 95
12, 91080, Note_off_c, 11, 64, 64
12, 91080, Note_on_c, 11, 64, 95
12, 91140, Note_off_c, 11, 64, 64
12, 91140, Note_on_c, 11, 64, 104
12, 91200, Note_off_c, 11, 64, 64
12, 91200, Note_on_c, 11, 62, 95
12, 91260, Note_off_c, 11, 62, 64
12, 91260, Note_on_c, 11, 62, 94
12, 91320, Note_off_c, 11, 62, 64
12, 91320, Note_on_c, 11, 62, 90
12, 91380, Note_off_c, 11, 62, 64
12, 91380, Note_on_c, 11, 62, 85
12, 91440, Note_off_c, 11, 62, 64
12, 91440, Note_on_c, 11, 62, 90
12, 91500, Note_off_c, 11, 62, 64
12, 91500, Note_on_c, 11, 62, 93
12, 91560, Note_off_c, 11, 62, 64
12, 91560, Note_on_c, 11, 62, 93
12, 91620, Note_off_c, 11, 62, 64
12, 91620, Note_on_c, 11, 62, 95
12, 91680, Note_off_c, 11, 62, 64
12, 91680, Note_on_c, 11, 62, 94
12, 91740, Note_off_c, 11, 62, 64
12, 91740, Note_on_c, 11, 62, 95
12, 91800, Note_off_c, 11, 62, 64
12, 91800, Note_on_c, 11, 62, 94
12, 91860, Note_off_c, 11, 62, 64
12, 91860, Note_on_c, 11, 62, 95
12, 91920, Note_off_c, 11, 62, 64
12, 91920, Note_on_c, 11, 62, 98
12, 91980, Note_off_c, 11, 62, 64
12, 91980, Note_on_c, 11, 62, 95
12, 92040, Note_off_c, 11, 62, 64
12, 92040, Note_on_c, 11, 62, 98
12, 92100, Note_off_c, 11, 62, 64
12, 92100, Note_on_c, 11, 62, 98
12, 92160, Note_off_c, 11, 62, 64
12, 92160, Note_on_c, 11, 64, 110
12, 92400, Note_off_c, 11, 64, 64
12, 92400, Note_on_c, 11, 72, 127
12, 92460, Note_off_c, 11, 72, 64
12, 92460, Note_on_c, 11, 71, 112
12, 92520, Note_off_c, 11, 71, 64
12, 92520, Note_on_c, 11, 72, 107
12, 92580, Note_off_c, 11, 72, 64
12, 92580, Note_on_c, 11, 71, 112
12, 92640, Note_off_c, 11, 71, 64
12, 92640, Note_on_c, 11, 72, 104
12, 92700, Note_off_c, 11, 72, 64
12, 92700, Note_on_c, 11, 71, 115
12, 92760, Note_off_c, 11, 71, 64
12, 92760, Note_on_c, 11, 69, 112
12, 92820, Note_off_c, 11, 69, 64
12, 92820, Note_on_c, 11, 67, 112
12, 92880, Note_off_c, 11, 67, 64
12, 92880, Note_on_c, 11, 65, 115
12, 92940, Note_off_c, 11, 65, 64
12, 92940, Note_on_c, 11, 64, 117
12, 93000, Note_off_c, 11, 64, 64
12, 93000, Note_on_c, 11, 62, 112
12, 93060, Note_off_c, 11, 62, 64
12, 93060, Note_on_c, 11, 60, 115
12, 93120, Note_off_c, 11, 60, 64
12, 93120, Note_on_c, 11, 69, 104
12, 93180, Note_off_c, 11, 69, 64
12, 93180, Note_on_c, 11, 68, 112
12, 93240, Note_off_c, 11, 68, 64
12, 93240, Note_on_c, 11, 69, 101
12, 93300, Note_off_c, 11, 69, 64
12, 93300, Note_on_c, 11, 68, 112
12, 93360, Note_off_c, 11, 68, 64
12, 93360, Note_on_c, 11, 69, 99
12, 93420, Note_off_c, 11, 69, 64
12, 93420, Note_on_c, 11, 67, 99
12, 93480, Note_off_c, 11, 67, 64
12, 93480, Note_on_c, 11, 65, 105
12, 93540, Note_off_c, 11, 65, 64
12, 93540, Note_on_c, 11, 64, 104
12, 93600, Note_off_c, 11, 64, 64
12, 93600, Note_on_c, 11, 62, 105
12, 93660, Note_off_c, 11, 62, 64
12, 93660, Note_on_c, 11, 60, 105
12, 93720, Note_off_c, 11, 60, 64
12, 93720, Note_on_c, 11, 59, 115
12, 93780, Note_off_c, 11, 59, 64
12, 93780, Note_on_c, 11, 57, 119
12, 93840, Note_off_c, 11, 57, 64
12, 93840, Note_on_c, 11, 55, 101
12, 93900, Note_off_c, 11, 55, 64
12, 93900, Note_on_c, 11, 65, 105
12, 93960, Note_off_c, 11, 65, 64
12, 93960, Note_on_c, 11, 64, 105
12, 94020, Note_off_c, 11, 64, 64
12, 94020, Note_on_c, 11, 62, 104
12, 94080, Note_off_c, 11, 62, 64
12, 94080, Note_on_c, 11, 60, 80
12, 94320, Note_off_c, 11, 60, 64
12, 95040, Note_on_c, 11, 60, 125
12, 95520, Note_off_c, 11, 60, 64
12, 95520, Note_on_c, 11, 72, 123
12, 95640, Note_off_c, 11, 72, 64
12, 95760, Note_on_c, 11, 72, 119
12, 95880, Note_off_c, 11, 72, 64
12, 96000, Note_on_c, 11, 72, 125
12, 96240, Note_off_c, 11, 72, 64
12, 96960, Note_on_c, 11, 64, 125
12, 97440, Note_off_c, 11, 64, 64
12, 97440, Note_on_c, 11, 76, 125
12, 97560, Note_off_c, 11, 76, 64
12, 97680, Note_on_c, 11, 76, 127
12, 97800, Note_off_c, 11, 76, 64
12, 97920, Note_on_c, 11, 79, 80
12, 98400, Note_off_c, 11, 79, 64
12, 98400, Note_on_c, 11, 79, 80
12, 98520, Note_off_c, 11, 79, 64
12, 98520, Note_on_c, 11, 77, 80
12, 98580, Note_off_c, 11, 77, 64
12, 98580, Note_on_c, 11, 76, 80
12, 98640, Note_off_c, 11, 76, 64
12, 98640, Note_on_c, 11, 74, 80
12, 98700, Note_off_c, 11, 74, 64
12, 98700, Note_on_c, 11, 72, 80
12, 98760, Note_off_c, 11, 72, 64
12, 98760, Note_on_c, 11, 71, 80
12, 98820, Note_off_c, 11, 71, 64
12, 98820, Note_on_c, 11, 69, 80
12, 98880, Note_off_c, 11, 69, 64
12, 98880, Note_on_c, 11, 67, 80
12, 99120, Note_off_c, 11, 67, 64
12, 99360, Note_on_c, 11, 79, 80
12, 99360, Note_on_c, 11, 71, 80
12, 99360, Note_on_c, 11, 62, 80
12, 99600, Note_off_c, 11, 62, 64
12, 99600, Note_off_c, 11, 71, 64
12, 99600, Note_off_c, 11, 79, 64
12, 99840, Note_on_c, 11, 79, 80
12, 99840, Note_on_c, 11, 72, 80
12, 99840, Note_on_c, 11, 64, 80
12, 100080, Note_off_c, 11, 64, 64
12, 100080, Note_off_c, 11, 72, 64
12, 100080, Note_off_c, 11, 79, 64
12, 100260, Note_on_c, 11, 64, 80
12, 100260, Note_on_c, 11, 60, 80
12, 100320, Note_off_c, 11, 60, 64
12, 100320, Note_off_c, 11, 64, 64
12, 100320, Note_on_c, 11, 64, 80
12, 100320, Note_on_c, 11, 60, 80
12, 100560, Note_off_c, 11, 60, 64
12, 100560, Note_off_c, 11, 64, 64
12, 100740, Note_on_c, 11, 60, 80
12, 100800, Note_off_c, 11, 60, 64
12, 100800, Note_on_c, 11, 60, 80
12, 101040, Note_off_c, 11, 60, 64
12, 109440, Note_on_c, 11, 60, 80
12, 110160, Note_off_c, 11, 60, 64
12, 110160, Note_on_c, 11, 61, 80
12, 110400, Note_off_c, 11, 61, 64
12, 110400, Note_on_c, 11, 62, 80
12, 110640, Note_off_c, 11, 62, 64
12, 110640, Note_on_c, 11, 62, 80
12, 110880, Note_off_c, 11, 62, 64
12, 110880, Note_on_c, 11, 62, 80
12, 111120, Note_off_c, 11, 62, 64
12, 111120, Note_on_c, 11, 62, 80
12, 111360, Note_off_c, 11, 62, 64
12, 111600, Note_on_c, 11, 62, 80
12, 111840, Note_off_c, 11, 62, 64
12, 111840, Note_on_c, 11, 62, 80
12, 112080, Note_off_c, 11, 62, 64
12, 112080, Note_on_c, 11, 62, 80
12, 112320, Note_off_c, 11, 62, 64
12, 112320, Note_on_c, 11, 72, 80
12, 112320, Note_on_c, 11, 64, 80
12, 112320, Note_on_c, 11, 55, 80
12, 112560, Note_off_c, 11, 55, 64
12, 112560, Note_off_c, 11, 64, 64
12, 112560, Note_off_c, 11, 72, 64
12, 114480, Note_on_c, 11, 55, 80
12, 114720, Note_off_c, 11, 55, 64
12, 114720, Note_on_c, 11, 60, 80
12, 114960, Note_off_c, 11, 60, 64
12, 114960, Note_on_c, 11, 64, 80
12, 115200, Note_off_c, 11, 64, 64
12, 115200, Note_on_c, 11, 67, 80
12, 115440, Note_off_c, 11, 67, 64
12, 115440, Note_on_c, 11, 64, 80
12, 115680, Note_off_c, 11, 64, 64
12, 115680, Note_on_c, 11, 67, 80
12, 115920, Note_off_c, 11, 67, 64
12, 115920, Note_on_c, 11, 72, 80
12, 116160, Note_off_c, 11, 72, 64
12, 116160, Note_on_c, 11, 71, 80
12, 116160, Note_on_c, 11, 62, 80
12, 116160, Note_on_c, 11, 55, 80
12, 116640, Note_off_c, 11, 55, 64
12, 116640, Note_off_c, 11, 62, 64
12, 116640, Note_off_c, 11, 71, 64
12, 118320, Note_on_c, 11, 62, 80
12, 118560, Note_off_c, 11, 62, 64
12, 118560, Note_on_c, 11, 65, 80
12, 118800, Note_off_c, 11, 65, 64
12, 118800, Note_on_c, 11, 71, 80
12, 119040, Note_off_c, 11, 71, 64
12, 119040, Note_on_c, 11, 74, 93
12, 119160, Note_off_c, 11, 74, 64
12, 119280, Note_on_c, 11, 62, 80
12, 119520, Note_off_c, 11, 62, 64
12, 119520, Note_on_c, 11, 64, 80
12, 119760, Note_off_c, 11, 64, 64
12, 119760, Note_on_c, 11, 65, 80
12, 120000, Note_off_c, 11, 65, 64
12, 120000, Note_on_c, 11, 64, 80
12, 120240, Note_off_c, 11, 64, 64
12, 121920, Note_on_c, 11, 64, 80
12, 122160, Note_off_c, 11, 64, 64
12, 122400, Note_on_c, 11, 64, 80
12, 122640, Note_off_c, 11, 64, 64
12, 122880, Note_on_c, 11, 64, 80
12, 123120, Note_off_c, 11, 64, 64
12, 125760, Note_on_c, 11, 62, 80
12, 126000, Note_off_c, 11, 62, 64
12, 126240, Note_on_c, 11, 62, 80
12, 126480, Note_off_c, 11, 62, 64
12, 126720, Note_on_c, 11, 62, 80
12, 126960, Note_off_c, 11, 62, 64
12, 133680, Note_on_c, 11, 58, 74
12, 134160, Note_off_c, 11, 58, 64
12, 134160, Note_on_c, 11, 58, 76
12, 134400, Note_off_c, 11, 58, 64
12, 134400, Note_on_c, 11, 58, 73
12, 134640, Note_off_c, 11, 58, 64
12, 134640, Note_on_c, 11, 58, 81
12, 135120, Note_off_c, 11, 58, 64
12, 135120, Note_on_c, 11, 65, 81
12, 135360, Note_off_c, 11, 65, 64
12, 135360, Note_on_c, 11, 67, 68
12, 135600, Note_off_c, 11, 67, 64
12, 135600, Note_on_c, 11, 58, 86
12, 136080, Note_off_c, 11, 58, 64
12, 136080, Note_on_c, 11, 65, 73
12, 136320, Note_off_c, 11, 65, 64
12, 136320, Note_on_c, 11, 67, 71
12, 136560, Note_off_c, 11, 67, 64
12, 136800, Note_on_c, 11, 55, 53
12, 137280, Note_off_c, 11, 55, 64
12, 137280, Note_on_c, 11, 58, 76
12, 137760, Note_off_c, 11, 58, 64
12, 137760, Note_on_c, 11, 55, 74
12, 138240, Note_off_c, 11, 55, 64
12, 138240, Note_on_c, 11, 57, 71
12, 138480, Note_off_c, 11, 57, 64
12, 144840, Note_on_c, 11, 67, 78
12, 144900, Note_off_c, 11, 67, 64
12, 144960, Note_on_c, 11, 66, 81
12, 145080, Note_off_c, 11, 66, 64
12, 145200, Note_on_c, 11, 67, 85
12, 145320, Note_off_c, 11, 67, 64
12, 145440, Note_on_c, 11, 66, 80
12, 145560, Note_off_c, 11, 66, 64
12, 145680, Note_on_c, 11, 67, 76
12, 145800, Note_off_c, 11, 67, 64
12, 145920, Note_on_c, 11, 66, 80
12, 146040, Note_off_c, 11, 66, 64
12, 146400, Note_on_c, 11, 62, 43
12, 146520, Note_off_c, 11, 62, 64
12, 146880, Note_on_c, 11, 62, 41
12, 147000, Note_off_c, 11, 62, 64
12, 147840, Note_on_c, 11, 59, 81
12, 147960, Note_off_c, 11, 59, 64
12, 147960, Note_on_c, 11, 62, 84
12, 148080, Note_off_c, 11, 62, 64
12, 148080, Note_on_c, 11, 59, 72
12, 148200, Note_off_c, 11, 59, 64
12, 148200, Note_on_c, 11, 62, 82
12, 148320, Note_off_c, 11, 62, 64
12, 148320, Note_on_c, 11, 59, 84
12, 148440, Note_off_c, 11, 59, 64
12, 148440, Note_on_c, 11, 62, 84
12, 148560, Note_off_c, 11, 62, 64
12, 148560, Note_on_c, 11, 59, 81
12, 148680, Note_off_c, 11, 59, 64
12, 148680, Note_on_c, 11, 62, 90
12, 148800, Note_off_c, 11, 62, 64
12, 148800, Note_on_c, 11, 60, 80
12, 148920, Note_off_c, 11, 60, 64
12, 148920, Note_on_c, 11, 62, 82
12, 149040, Note_off_c, 11, 62, 64
12, 149040, Note_on_c, 11, 60, 84
12, 149160, Note_off_c, 11, 60, 64
12, 149160, Note_on_c, 11, 62, 76
12, 149280, Note_off_c, 11, 62, 64
12, 149280, Note_on_c, 11, 60, 80
12, 149400, Note_off_c, 11, 60, 64
12, 149400, Note_on_c, 11, 62, 81
12, 149520, Note_off_c, 11, 62, 64
12, 149520, Note_on_c, 11, 60, 84
12, 149640, Note_off_c, 11, 60, 64
12, 149640, Note_on_c, 11, 62, 86
12, 149760, Note_off_c, 11, 62, 64
12, 149760, Note_on_c, 11, 62, 86
12, 149880, Note_off_c, 11, 62, 64
12, 149880, Note_on_c, 11, 67, 82
12, 150000, Note_off_c, 11, 67, 64
12, 150000, Note_on_c, 11, 62, 94
12, 150120, Note_off_c, 11, 62, 64
12, 150120, Note_on_c, 11, 60, 84
12, 150240, Note_off_c, 11, 60, 64
12, 150240, Note_on_c, 11, 59, 84
12, 150360, Note_off_c, 11, 59, 64
12, 150360, Note_on_c, 11, 62, 89
12, 150480, Note_off_c, 11, 62, 64
12, 150480, Note_on_c, 11, 59, 86
12, 150600, Note_off_c, 11, 59, 64
12, 150600, Note_on_c, 11, 62, 93
12, 150720, Note_off_c, 11, 62, 64
12, 150720, Note_on_c, 11, 65, 93
12, 150840, Note_off_c, 11, 65, 64
12, 150840, Note_on_c, 11, 62, 80
12, 150960, Note_off_c, 11, 62, 64
12, 150960, Note_on_c, 11, 66, 89
12, 151080, Note_off_c, 11, 66, 64
12, 151080, Note_on_c, 11, 64, 86
12, 151200, Note_off_c, 11, 64, 64
12, 151200, Note_on_c, 11, 62, 81
12, 151320, Note_off_c, 11, 62, 64
12, 151320, Note_on_c, 11, 64, 84
12, 151440, Note_off_c, 11, 64, 64
12, 151440, Note_on_c, 11, 62, 81
12, 151560, Note_off_c, 11, 62, 64
12, 151560, Note_on_c, 11, 60, 80
12, 151680, Note_off_c, 11, 60, 64
12, 151680, Note_on_c, 11, 59, 80
12, 151800, Note_off_c, 11, 59, 64
12, 151800, Note_on_c, 11, 66, 82
12, 151920, Note_off_c, 11, 66, 64
12, 151920, Note_on_c, 11, 69, 89
12, 152040, Note_off_c, 11, 69, 64
12, 152040, Note_on_c, 11, 66, 90
12, 152160, Note_off_c, 11, 66, 64
12, 152160, Note_on_c, 11, 59, 84
12, 152280, Note_off_c, 11, 59, 64
12, 152280, Note_on_c, 11, 63, 81
12, 152400, Note_off_c, 11, 63, 64
12, 152400, Note_on_c, 11, 66, 89
12, 152520, Note_off_c, 11, 66, 64
12, 152520, Note_on_c, 11, 63, 86
12, 152640, Note_off_c, 11, 63, 64
12, 152640, Note_on_c, 11, 59, 89
12, 152760, Note_off_c, 11, 59, 64
12, 152760, Note_on_c, 11, 59, 94
12, 153000, Note_off_c, 11, 59, 64
12, 153000, Note_on_c, 11, 59, 95
12, 153240, Note_off_c, 11, 59, 64
12, 153240, Note_on_c, 11, 59, 99
12, 153480, Note_off_c, 11, 59, 64
12, 153480, Note_on_c, 11, 59, 101
12, 153600, Note_off_c, 11, 59, 64
12, 153600, Note_on_c, 11, 57, 95
12, 153720, Note_off_c, 11, 57, 64
12, 153720, Note_on_c, 11, 57, 98
12, 153840, Note_off_c, 11, 57, 64
12, 153840, Note_on_c, 11, 62, 81
12, 153960, Note_off_c, 11, 62, 64
12, 153960, Note_on_c, 11, 57, 99
12, 154080, Note_off_c, 11, 57, 64
12, 154080, Note_on_c, 11, 61, 76
12, 154200, Note_off_c, 11, 61, 64
12, 154200, Note_on_c, 11, 57, 104
12, 154320, Note_off_c, 11, 57, 64
12, 154320, Note_on_c, 11, 61, 85
12, 154440, Note_off_c, 11, 61, 64
12, 154440, Note_on_c, 11, 61, 94
12, 154560, Note_off_c, 11, 61, 64
12, 154560, Note_on_c, 11, 62, 95
12, 154800, Note_off_c, 11, 62, 64
12, 155520, Note_on_c, 11, 67, 80
12, 156480, Note_off_c, 11, 67, 64
12, 156480, Note_on_c, 11, 66, 80
12, 157440, Note_off_c, 11, 66, 64
12, 157440, Note_on_c, 11, 67, 80
12, 157680, Note_off_c, 11, 67, 64
12, 157680, Note_on_c, 11, 67, 80
12, 157920, Note_off_c, 11, 67, 64
12, 158160, Note_on_c, 11, 67, 80
12, 158400, Note_off_c, 11, 67, 64
12, 158640, Note_on_c, 11, 66, 80
12, 158880, Note_off_c, 11, 66, 64
12, 159360, Note_on_c, 11, 66, 80
12, 159840, Note_off_c, 11, 66, 64
12, 159840, Note_on_c, 11, 63, 80
12, 160320, Note_off_c, 11, 63, 64
12, 160320, Note_on_c, 11, 64, 80
12, 160560, Note_off_c, 11, 64, 64
12, 161040, Note_on_c, 11, 64, 80
12, 161280, Note_off_c, 11, 64, 64
12, 161280, Note_on_c, 11, 64, 80
12, 161520, Note_off_c, 11, 64, 64
12, 161520, Note_on_c, 11, 62, 80
12, 161760, Note_off_c, 11, 62, 64
12, 161760, Note_on_c, 11, 64, 80
12, 162000, Note_off_c, 11, 64, 64
12, 162000, Note_on_c, 11, 61, 80
12, 162240, Note_off_c, 11, 61, 64
12, 162240, Note_on_c, 11, 62, 80
12, 162480, Note_off_c, 11, 62, 64
12, 162960, Note_on_c, 11, 62, 80
12, 163200, Note_off_c, 11, 62, 64
12, 163200, Note_on_c, 11, 69, 80
12, 163440, Note_off_c, 11, 69, 64
12, 163440, Note_on_c, 11, 67, 80
12, 163680, Note_off_c, 11, 67, 64
12, 163680, Note_on_c, 11, 69, 80
12, 163920, Note_off_c, 11, 69, 64
12, 163920, Note_on_c, 11, 66, 80
12, 164160, Note_off_c, 11, 66, 64
12, 164160, Note_on_c, 11, 67, 80
12, 164400, Note_off_c, 11, 67, 64
12, 164400, Note_on_c, 11, 67, 80
12, 164640, Note_off_c, 11, 67, 64
12, 164880, Note_on_c, 11, 69, 80
12, 165120, Note_off_c, 11, 69, 64
12, 165360, Note_on_c, 11, 67, 80
12, 165600, Note_off_c, 11, 67, 64
12, 165840, Note_on_c, 11, 66, 80
12, 166080, Note_off_c, 11, 66, 64
12, 166080, Note_on_c, 11, 62, 80
12, 166320, Note_off_c, 11, 62, 64
12, 167040, Note_on_c, 11, 62, 80
12, 168000, Note_off_c, 11, 62, 64
12, 168000, Note_on_c, 11, 63, 80
12, 168240, Note_off_c, 11, 63, 64
12, 168960, Note_on_c, 11, 59, 80
12, 169920, Note_off_c, 11, 59, 64
12, 169920, Note_on_c, 11, 60, 80
12, 170160, Note_off_c, 11, 60, 64
12, 170880, Note_on_c, 11, 69, 80
12, 171840, Note_off_c, 11, 69, 64
12, 171840, Note_on_c, 11, 70, 80
12, 172080, Note_off_c, 11, 70, 64
12, 172080, Note_on_c, 11, 70, 80
12, 172320, Note_off_c, 11, 70, 64
12, 172560, Note_on_c, 11, 69, 80
12, 172800, Note_off_c, 11, 69, 64
12, 173040, Note_on_c, 11, 67, 80
12, 173280, Note_off_c, 11, 67, 64
12, 173520, Note_on_c, 11, 66, 80
12, 173760, Note_off_c, 11, 66, 64
12, 173760, Note_on_c, 11, 62, 80
12, 174000, Note_off_c, 11, 62, 64
12, 174720, Note_on_c, 11, 62, 80
12, 175680, Note_off_c, 11, 62, 64
12, 175680, Note_on_c, 11, 62, 80
12, 175920, Note_off_c, 11, 62, 64
12, 175920, Note_on_c, 11, 59, 80
12, 176160, Note_off_c, 11, 59, 64
12, 176160, Note_on_c, 11, 60, 80
12, 176400, Note_off_c, 11, 60, 64
12, 176400, Note_on_c, 11, 59, 80
12, 176640, Note_off_c, 11, 59, 64
12, 176640, Note_on_c, 11, 57, 80
12, 176760, Note_off_c, 11, 57, 64
12, 176760, Note_on_c, 11, 67, 78
12, 176880, Note_off_c, 11, 67, 64
12, 176880, Note_on_c, 11, 66, 82
12, 177000, Note_off_c, 11, 66, 64
12, 177000, Note_on_c, 11, 64, 84
12, 177120, Note_off_c, 11, 64, 64
12, 177120, Note_on_c, 11, 62, 80
12, 177240, Note_off_c, 11, 62, 64
12, 177240, Note_on_c, 11, 60, 81
12, 177360, Note_off_c, 11, 60, 64
12, 177360, Note_on_c, 11, 59, 86
12, 177480, Note_off_c, 11, 59, 64
12, 177480, Note_on_c, 11, 57, 89
12, 177600, Note_off_c, 11, 57, 64
12, 177600, Note_on_c, 11, 55, 94
12, 177840, Note_off_c, 11, 55, 64
12, 179760, Note_on_c, 11, 67, 80
12, 180000, Note_off_c, 11, 67, 64
12, 180240, Note_on_c, 11, 66, 80
12, 180480, Note_off_c, 11, 66, 64
12, 180480, Note_on_c, 11, 67, 80
12, 180720, Note_off_c, 11, 67, 64
12, 181680, Note_on_c, 11, 59, 80
12, 181920, Note_off_c, 11, 59, 64
12, 182160, Note_on_c, 11, 57, 80
12, 182400, Note_off_c, 11, 57, 64
12, 182400, Note_on_c, 11, 59, 80
12, 182640, Note_off_c, 11, 59, 64
12, 186000, Note_on_c, 11, 66, 80
12, 186030, Note_off_c, 11, 66, 64
12, 186030, Note_on_c, 11, 67, 81
12, 186060, Note_off_c, 11, 67, 64
12, 186060, Note_on_c, 11, 66, 78
12, 186090, Note_off_c, 11, 66, 64
12, 186090, Note_on_c, 11, 67, 82
12, 186120, Note_off_c, 11, 67, 64
12, 186120, Note_on_c, 11, 66, 80
12, 186150, Note_off_c, 11, 66, 64
12, 186150, Note_on_c, 11, 67, 80
12, 186180, Note_off_c, 11, 67, 64
12, 186180, Note_on_c, 11, 66, 81
12, 186210, Note_off_c, 11, 66, 64
12, 186210, Note_on_c, 11, 67, 80
12, 186240, Note_off_c, 11, 67, 64
12, 186240, Note_on_c, 11, 67, 80
12, 186480, Note_off_c, 11, 67, 64
12, 186480, Note_on_c, 11, 55, 80
12, 186720, Note_off_c, 11, 55, 64
12, 193920, Note_on_c, 11, 64, 80
12, 194160, Note_off_c, 11, 64, 64
12, 194160, Note_on_c, 11, 64, 80
12, 194400, Note_off_c, 11, 64, 64
12, 194640, Note_on_c, 11, 67, 80
12, 194880, Note_off_c, 11, 67, 64
12, 195120, Note_on_c, 11, 67, 80
12, 195360, Note_off_c, 11, 67, 64
12, 195600, Note_on_c, 11, 60, 80
12, 195840, Note_off_c, 11, 60, 64
12, 195840, Note_on_c, 11, 59, 80
12, 196080, Note_off_c, 11, 59, 64
12, 199440, Note_on_c, 11, 78, 78
12, 199470, Note_off_c, 11, 78, 64
12, 199470, Note_on_c, 11, 79, 76
12, 199500, Note_off_c, 11, 79, 64
12, 199500, Note_on_c, 11, 78, 76
12, 199530, Note_off_c, 11, 78, 64
12, 199530, Note_on_c, 11, 79, 89
12, 199560, Note_off_c, 11, 79, 64
12, 199560, Note_on_c, 11, 78, 76
12, 199590, Note_off_c, 11, 78, 64
12, 199590, Note_on_c, 11, 79, 89
12, 199620, Note_off_c, 11, 79, 64
12, 199620, Note_on_c, 11, 78, 78
12, 199650, Note_off_c, 11, 78, 64
12, 199650, Note_on_c, 11, 79, 93
12, 199680, Note_off_c, 11, 79, 64
12, 199680, Note_on_c, 11, 79, 80
12, 199920, Note_off_c, 11, 79, 64
12, 199920, Note_on_c, 11, 55, 84
12, 200040, Note_off_c, 11, 55, 64
12, 200160, Note_on_c, 11, 57, 39
12, 200280, Note_off_c, 11, 57, 64
12, 200400, Note_on_c, 11, 59, 93
12, 200520, Note_off_c, 11, 59, 64
12, 200640, Note_on_c, 11, 60, 86
12, 200760, Note_off_c, 11, 60, 64
12, 200880, Note_on_c, 11, 62, 85
12, 201000, Note_off_c, 11, 62, 64
12, 201120, Note_on_c, 11, 64, 90
12, 201240, Note_off_c, 11, 64, 64
12, 201360, Note_on_c, 11, 66, 90
12, 201480, Note_off_c, 11, 66, 64
12, 201600, Note_on_c, 11, 67, 93
12, 201720, Note_off_c, 11, 67, 64
12, 205440, Note_on_c, 11, 72, 80
12, 206400, Note_off_c, 11, 72, 64
12, 206400, Note_on_c, 11, 72, 80
12, 207360, Note_off_c, 11, 72, 64
12, 207360, Note_on_c, 11, 70, 80
12, 208320, Note_off_c, 11, 70, 64
12, 208320, Note_on_c, 11, 70, 80
12, 209280, Note_off_c, 11, 70, 64
12, 209280, Note_on_c, 11, 70, 80
12, 210240, Note_off_c, 11, 70, 64
12, 210240, Note_on_c, 11, 68, 80
12, 210480, Note_off_c, 11, 68, 64
12, 214080, Note_on_c, 11, 69, 76
12, 214560, Note_off_c, 11, 69, 64
12, 214560, Note_on_c, 11, 70, 84
12, 215040, Note_off_c, 11, 70, 64
12, 215040, Note_on_c, 11, 71, 47
12, 215280, Note_off_c, 11, 71, 64
12, 215280, Note_on_c, 11, 62, 80
12, 215760, Note_off_c, 11, 62, 64
12, 215760, Note_on_c, 11, 60, 77
12, 216000, Note_off_c, 11, 60, 64
12, 216000, Note_on_c, 11, 59, 84
12, 216240, Note_off_c, 11, 59, 64
12, 216240, Note_on_c, 11, 71, 74
12, 216720, Note_off_c, 11, 71, 64
12, 216720, Note_on_c, 11, 69, 85
12, 216960, Note_off_c, 11, 69, 64
12, 216960, Note_on_c, 11, 67, 54
12, 217200, Note_off_c, 11, 67, 64
12, 224640, Note_on_c, 11, 63, 74
12, 224760, Note_off_c, 11, 63, 64
12, 224760, Note_on_c, 11, 63, 85
12, 224880, Note_off_c, 11, 63, 64
12, 224880, Note_on_c, 11, 63, 84
12, 225000, Note_off_c, 11, 63, 64
12, 225000, Note_on_c, 11, 63, 78
12, 225120, Note_off_c, 11, 63, 64
12, 225120, Note_on_c, 11, 63, 89
12, 225240, Note_off_c, 11, 63, 64
12, 225240, Note_on_c, 11, 63, 86
12, 225360, Note_off_c, 11, 63, 64
12, 225360, Note_on_c, 11, 63, 94
12, 225480, Note_off_c, 11, 63, 64
12, 225480, Note_on_c, 11, 63, 89
12, 225600, Note_off_c, 11, 63, 64
12, 225600, Note_on_c, 11, 60, 84
12, 225720, Note_off_c, 11, 60, 64
12, 225720, Note_on_c, 11, 60, 89
12, 225840, Note_off_c, 11, 60, 64
12, 225840, Note_on_c, 11, 60, 85
12, 225960, Note_off_c, 11, 60, 64
12, 225960, Note_on_c, 11, 60, 85
12, 226080, Note_off_c, 11, 60, 64
12, 226080, Note_on_c, 11, 60, 93
12, 226200, Note_off_c, 11, 60, 64
12, 226200, Note_on_c, 11, 60, 90
12, 226320, Note_off_c, 11, 60, 64
12, 226320, Note_on_c, 11, 60, 84
12, 226440, Note_off_c, 11, 60, 64
12, 226440, Note_on_c, 11, 60, 94
12, 226560, Note_off_c, 11, 60, 64
12, 226560, Note_on_c, 11, 67, 77
12, 226560, Note_on_c, 11, 59, 82
12, 227040, Note_off_c, 11, 59, 64
12, 227040, Note_off_c, 11, 67, 64
12, 227520, Note_on_c, 11, 64, 93
12, 227640, Note_off_c, 11, 64, 64
12, 227640, Note_on_c, 11, 65, 86
12, 227700, Note_off_c, 11, 65, 64
12, 227700, Note_on_c, 11, 67, 90
12, 227760, Note_off_c, 11, 67, 64
12, 227760, Note_on_c, 11, 69, 99
12, 227820, Note_off_c, 11, 69, 64
12, 227820, Note_on_c, 11, 71, 95
12, 227880, Note_off_c, 11, 71, 64
12, 227880, Note_on_c, 11, 73, 80
12, 227940, Note_off_c, 11, 73, 64
12, 227940, Note_on_c, 11, 74, 98
12, 228000, Note_off_c, 11, 74, 64
12, 228000, Note_on_c, 11, 76, 94
12, 228120, Note_off_c, 11, 76, 64
12, 228240, Note_on_c, 11, 76, 99
12, 228360, Note_off_c, 11, 76, 64
12, 228480, Note_on_c, 11, 77, 89
12, 228720, Note_off_c, 11, 77, 64
12, 229440, Note_on_c, 11, 62, 86
12, 229560, Note_off_c, 11, 62, 64
12, 229560, Note_on_c, 11, 64, 81
12, 229620, Note_off_c, 11, 64, 64
12, 229620, Note_on_c, 11, 65, 90
12, 229680, Note_off_c, 11, 65, 64
12, 229680, Note_on_c, 11, 67, 80
12, 229740, Note_off_c, 11, 67, 64
12, 229740, Note_on_c, 11, 69, 90
12, 229800, Note_off_c, 11, 69, 64
12, 229800, Note_on_c, 11, 71, 86
12, 229860, Note_off_c, 11, 71, 64
12, 229860, Note_on_c, 11, 72, 90
12, 229920, Note_off_c, 11, 72, 64
12, 229920, Note_on_c, 11, 74, 98
12, 230040, Note_off_c, 11, 74, 64
12, 230160, Note_on_c, 11, 74, 94
12, 230280, Note_off_c, 11, 74, 64
12, 230400, Note_on_c, 11, 76, 94
12, 230640, Note_off_c, 11, 76, 64
12, 231360, Note_on_c, 11, 66, 95
12, 231480, Note_off_c, 11, 66, 64
12, 231480, Note_on_c, 11, 67, 94
12, 231540, Note_off_c, 11, 67, 64
12, 231540, Note_on_c, 11, 69, 110
12, 231600, Note_off_c, 11, 69, 64
12, 231600, Note_on_c, 11, 71, 110
12, 231660, Note_off_c, 11, 71, 64
12, 231660, Note_on_c, 11, 72, 110
12, 231720, Note_off_c, 11, 72, 64
12, 231720, Note_on_c, 11, 74, 115
12, 231780, Note_off_c, 11, 74, 64
12, 231780, Note_on_c, 11, 76, 93
12, 231840, Note_off_c, 11, 76, 64
12, 231840, Note_on_c, 11, 78, 86
12, 231960, Note_off_c, 11, 78, 64
12, 232080, Note_on_c, 11, 78, 90
12, 232200, Note_off_c, 11, 78, 64
12, 232320, Note_on_c, 11, 79, 46
12, 232560, Note_off_c, 11, 79, 64
12, 233280, Note_on_c, 11, 68, 89
12, 233400, Note_off_c, 11, 68, 64
12, 233400, Note_on_c, 11, 69, 89
12, 233460, Note_off_c, 11, 69, 64
12, 233460, Note_on_c, 11, 71, 93
12, 233520, Note_off_c, 11, 71, 64
12, 233520, Note_on_c, 11, 72, 84
12, 233580, Note_off_c, 11, 72, 64
12, 233580, Note_on_c, 11, 74, 95
12, 233640, Note_off_c, 11, 74, 64
12, 233640, Note_on_c, 11, 76, 89
12, 233700, Note_off_c, 11, 76, 64
12, 233700, Note_on_c, 11, 78, 93
12, 233760, Note_off_c, 11, 78, 64
12, 233760, Note_on_c, 11, 80, 89
12, 233880, Note_off_c, 11, 80, 64
12, 234000, Note_on_c, 11, 80, 94
12, 234120, Note_off_c, 11, 80, 64
12, 234240, Note_on_c, 11, 81, 95
12, 234360, Note_off_c, 11, 81, 64
12, 234360, Note_on_c, 11, 75, 85
12, 234420, Note_off_c, 11, 75, 64
12, 234420, Note_on_c, 11, 75, 84
12, 234480, Note_off_c, 11, 75, 64
12, 234480, Note_on_c, 11, 76, 93
12, 234540, Note_off_c, 11, 76, 64
12, 234540, Note_on_c, 11, 76, 95
12, 234600, Note_off_c, 11, 76, 64
12, 234600, Note_on_c, 11, 71, 84
12, 234660, Note_off_c, 11, 71, 64
12, 234660, Note_on_c, 11, 71, 93
12, 234720, Note_off_c, 11, 71, 64
12, 234720, Note_on_c, 11, 72, 84
12, 234780, Note_off_c, 11, 72, 64
12, 234780, Note_on_c, 11, 72, 89
12, 234840, Note_off_c, 11, 72, 64
12, 234840, Note_on_c, 11, 71, 93
12, 234900, Note_off_c, 11, 71, 64
12, 234900, Note_on_c, 11, 71, 95
12, 234960, Note_off_c, 11, 71, 64
12, 234960, Note_on_c, 11, 72, 84
12, 235020, Note_off_c, 11, 72, 64
12, 235020, Note_on_c, 11, 72, 90
12, 235080, Note_off_c, 11, 72, 64
12, 235080, Note_on_c, 11, 68, 86
12, 235140, Note_off_c, 11, 68, 64
12, 235140, Note_on_c, 11, 68, 94
12, 235200, Note_off_c, 11, 68, 64
12, 235200, Note_on_c, 11, 69, 89
12, 235260, Note_off_c, 11, 69, 64
12, 235260, Note_on_c, 11, 69, 89
12, 235320, Note_off_c, 11, 69, 64
12, 235320, Note_on_c, 11, 71, 89
12, 235380, Note_off_c, 11, 71, 64
12, 235380, Note_on_c, 11, 71, 94
12, 235440, Note_off_c, 11, 71, 64
12, 235440, Note_on_c, 11, 72, 69
12, 235500, Note_off_c, 11, 72, 64
12, 235500, Note_on_c, 11, 72, 82
12, 235560, Note_off_c, 11, 72, 64
12, 235560, Note_on_c, 11, 71, 94
12, 235620, Note_off_c, 11, 71, 64
12, 235620, Note_on_c, 11, 71, 94
12, 235680, Note_off_c, 11, 71, 64
12, 235680, Note_on_c, 11, 69, 82
12, 235740, Note_off_c, 11, 69, 64
12, 235740, Note_on_c, 11, 69, 86
12, 235800, Note_off_c, 11, 69, 64
12, 235800, Note_on_c, 11, 67, 82
12, 235860, Note_off_c, 11, 67, 64
12, 235860, Note_on_c, 11, 67, 93
12, 235920, Note_off_c, 11, 67, 64
12, 235920, Note_on_c, 11, 66, 89
12, 235980, Note_off_c, 11, 66, 64
12, 235980, Note_on_c, 11, 66, 84
12, 236040, Note_off_c, 11, 66, 64
12, 236040, Note_on_c, 11, 64, 98
12, 236100, Note_off_c, 11, 64, 64
12, 236100, Note_on_c, 11, 64, 95
12, 236160, Note_off_c, 11, 64, 64
12, 236160, Note_on_c, 11, 62, 86
12, 236220, Note_off_c, 11, 62, 64
12, 236220, Note_on_c, 11, 71, 84
12, 236280, Note_off_c, 11, 71, 64
12, 236280, Note_on_c, 11, 71, 84
12, 236340, Note_off_c, 11, 71, 64
12, 236340, Note_on_c, 11, 71, 84
12, 236400, Note_off_c, 11, 71, 64
12, 236400, Note_on_c, 11, 71, 89
12, 236460, Note_off_c, 11, 71, 64
12, 236460, Note_on_c, 11, 71, 89
12, 236520, Note_off_c, 11, 71, 64
12, 236520, Note_on_c, 11, 71, 94
12, 236580, Note_off_c, 11, 71, 64
12, 236580, Note_on_c, 11, 71, 95
12, 236640, Note_off_c, 11, 71, 64
12, 236640, Note_on_c, 11, 71, 94
12, 236700, Note_off_c, 11, 71, 64
12, 236700, Note_on_c, 11, 71, 93
12, 236760, Note_off_c, 11, 71, 64
12, 236760, Note_on_c, 11, 71, 89
12, 236820, Note_off_c, 11, 71, 64
12, 236820, Note_on_c, 11, 71, 94
12, 236880, Note_off_c, 11, 71, 64
12, 236880, Note_on_c, 11, 71, 95
12, 236940, Note_off_c, 11, 71, 64
12, 236940, Note_on_c, 11, 71, 89
12, 237000, Note_off_c, 11, 71, 64
12, 237000, Note_on_c, 11, 71, 89
12, 237060, Note_off_c, 11, 71, 64
12, 237060, Note_on_c, 11, 71, 94
12, 237120, Note_off_c, 11, 71, 64
12, 237120, Note_on_c, 11, 76, 95
12, 237180, Note_off_c, 11, 76, 64
12, 237180, Note_on_c, 11, 76, 90
12, 237240, Note_off_c, 11, 76, 64
12, 237240, Note_on_c, 11, 76, 99
12, 237300, Note_off_c, 11, 76, 64
12, 237300, Note_on_c, 11, 76, 94
12, 237360, Note_off_c, 11, 76, 64
12, 237360, Note_on_c, 11, 76, 93
12, 237420, Note_off_c, 11, 76, 64
12, 237420, Note_on_c, 11, 76, 94
12, 237480, Note_off_c, 11, 76, 64
12, 237480, Note_on_c, 11, 76, 94
12, 237540, Note_off_c, 11, 76, 64
12, 237540, Note_on_c, 11, 76, 99
12, 237600, Note_off_c, 11, 76, 64
12, 237600, Note_on_c, 11, 72, 80
12, 237660, Note_off_c, 11, 72, 64
12, 237660, Note_on_c, 11, 72, 89
12, 237720, Note_off_c, 11, 72, 64
12, 237720, Note_on_c, 11, 72, 84
12, 237780, Note_off_c, 11, 72, 64
12, 237780, Note_on_c, 11, 72, 85
12, 237840, Note_off_c, 11, 72, 64
12, 237840, Note_on_c, 11, 72, 90
12, 237900, Note_off_c, 11, 72, 64
12, 237900, Note_on_c, 11, 72, 84
12, 237960, Note_off_c, 11, 72, 64
12, 237960, Note_on_c, 11, 72, 81
12, 238020, Note_off_c, 11, 72, 64
12, 238020, Note_on_c, 11, 72, 84
12, 238080, Note_off_c, 11, 72, 64
12, 238080, Note_on_c, 11, 71, 84
12, 238140, Note_off_c, 11, 71, 64
12, 238200, Note_on_c, 11, 55, 80
12, 238260, Note_off_c, 11, 55, 64
12, 238320, Note_on_c, 11, 57, 89
12, 238380, Note_off_c, 11, 57, 64
12, 238440, Note_on_c, 11, 59, 89
12, 238500, Note_off_c, 11, 59, 64
12, 238560, Note_on_c, 11, 60, 74
12, 238620, Note_off_c, 11, 60, 64
12, 238680, Note_on_c, 11, 62, 84
12, 238740, Note_off_c, 11, 62, 64
12, 238800, Note_on_c, 11, 64, 82
12, 238860, Note_off_c, 11, 64, 64
12, 238920, Note_on_c, 11, 66, 84
12, 238980, Note_off_c, 11, 66, 64
12, 239040, Note_on_c, 11, 67, 85
12, 239100, Note_off_c, 11, 67, 64
12, 239160, Note_on_c, 11, 59, 86
12, 239220, Note_off_c, 11, 59, 64
12, 239280, Note_on_c, 11, 60, 89
12, 239340, Note_off_c, 11, 60, 64
12, 239400, Note_on_c, 11, 62, 81
12, 239460, Note_off_c, 11, 62, 64
12, 239520, Note_on_c, 11, 64, 81
12, 239580, Note_off_c, 11, 64, 64
12, 239640, Note_on_c, 11, 66, 81
12, 239700, Note_off_c, 11, 66, 64
12, 239760, Note_on_c, 11, 67, 84
12, 239820, Note_off_c, 11, 67, 64
12, 239880, Note_on_c, 11, 69, 82
12, 239940, Note_off_c, 11, 69, 64
12, 240000, Note_on_c, 11, 71, 95
12, 240240, Note_off_c, 11, 71, 64
12, 240240, Note_on_c, 11, 83, 86
12, 240720, Note_off_c, 11, 83, 64
12, 240720, Note_on_c, 11, 81, 86
12, 240840, Note_off_c, 11, 81, 64
12, 240960, Note_on_c, 11, 79, 86
12, 241080, Note_off_c, 11, 79, 64
12, 241200, Note_on_c, 11, 79, 89
12, 241320, Note_off_c, 11, 79, 64
12, 241440, Note_on_c, 11, 81, 90
12, 241560, Note_off_c, 11, 81, 64
12, 241680, Note_on_c, 11, 78, 80
12, 241800, Note_off_c, 11, 78, 64
12, 241920, Note_on_c, 11, 71, 89
12, 242160, Note_off_c, 11, 71, 64
12, 242400, Note_on_c, 11, 81, 80
12, 242400, Note_on_c, 11, 74, 94
12, 242400, Note_on_c, 11, 66, 82
12, 242640, Note_off_c, 11, 66, 64
12, 242640, Note_off_c, 11, 74, 64
12, 242640, Note_off_c, 11, 81, 64
12, 242880, Note_on_c, 11, 83, 80
12, 242880, Note_on_c, 11, 74, 84
12, 242880, Note_on_c, 11, 67, 89
12, 243120, Note_off_c, 11, 67, 64
12, 243120, Note_off_c, 11, 74, 64
12, 243120, Note_off_c, 11, 83, 64
12, 243360, Note_on_c, 11, 78, 80
12, 243360, Note_on_c, 11, 69, 77
12, 243360, Note_on_c, 11, 62, 89
12, 243600, Note_off_c, 11, 62, 64
12, 243600, Note_off_c, 11, 69, 64
12, 243600, Note_off_c, 11, 78, 64
12, 243840, Note_on_c, 11, 79, 84
12, 243840, Note_on_c, 11, 71, 76
12, 243840, Note_on_c, 11, 62, 93
12, 244080, Note_off_c, 11, 62, 64
12, 244080, Note_off_c, 11, 71, 64
12, 244080, Note_off_c, 11, 79, 64
12, 244260, Note_on_c, 11, 67, 80
12, 244320, Note_off_c, 11, 67, 64
12, 244320, Note_on_c, 11, 67, 80
12, 244560, Note_off_c, 11, 67, 64
12, 244740, Note_on_c, 11, 55, 80
12, 244800, Note_off_c, 11, 55, 64
12, 244800, Note_on_c, 11, 55, 80
12, 245040, Note_off_c, 11, 55, 64
12, 245760, Note_on_c, 11, 55, 80
12, 246240, Note_off_c, 11, 55, 64
12, 246240, Note_on_c, 11, 67, 54
12, 246360, Note_off_c, 11, 67, 64
12, 246480, Note_on_c, 11, 67, 64
12, 246600, Note_off_c, 11, 67, 64
12, 246720, Note_on_c, 11, 67, 62
12, 246840, Note_off_c, 11, 67, 64
12, 247680, Note_on_c, 11, 56, 80
12, 248160, Note_off_c, 11, 56, 64
12, 248160, Note_on_c, 11, 68, 57
12, 248280, Note_off_c, 11, 68, 64
12, 248400, Note_on_c, 11, 68, 67
12, 248520, Note_off_c, 11, 68, 64
12, 248640, Note_on_c, 11, 68, 68
12, 248760, Note_off_c, 11, 68, 64
12, 249600, Note_on_c, 11, 74, 85
12, 249600, Note_on_c, 11, 65, 84
12, 249600, Note_on_c, 11, 58, 89
12, 250080, Note_off_c, 11, 58, 64
12, 250080, Note_off_c, 11, 65, 64
12, 250080, Note_off_c, 11, 74, 64
12, 250080, Note_on_c, 11, 74, 93
12, 250080, Note_on_c, 11, 65, 85
12, 250080, Note_on_c, 11, 58, 85
12, 250200, Note_off_c, 11, 58, 64
12, 250200, Note_off_c, 11, 65, 64
12, 250200, Note_off_c, 11, 74, 64
12, 250320, Note_on_c, 11, 74, 101
12, 250320, Note_on_c, 11, 65, 89
12, 250320, Note_on_c, 11, 58, 93
12, 250440, Note_off_c, 11, 58, 64
12, 250440, Note_off_c, 11, 65, 64
12, 250440, Note_off_c, 11, 74, 64
12, 250560, Note_on_c, 11, 75, 99
12, 250560, Note_on_c, 11, 67, 78
12, 250560, Note_on_c, 11, 58, 89
12, 250800, Note_off_c, 11, 58, 64
12, 250800, Note_off_c, 11, 67, 64
12, 250800, Note_off_c, 11, 75, 64
12, 251520, Note_on_c, 11, 72, 73
12, 251520, Note_on_c, 11, 63, 84
12, 251520, Note_on_c, 11, 56, 86
12, 251760, Note_off_c, 11, 56, 64
12, 251760, Note_off_c, 11, 63, 64
12, 251760, Note_off_c, 11, 72, 64
12, 252480, Note_on_c, 11, 70, 82
12, 252480, Note_on_c, 11, 63, 80
12, 252480, Note_on_c, 11, 55, 98
12, 252720, Note_off_c, 11, 55, 64
12, 252720, Note_off_c, 11, 63, 64
12, 252720, Note_off_c, 11, 70, 64
12, 253440, Note_on_c, 11, 62, 85
12, 253440, Note_on_c, 11, 56, 85
12, 253680, Note_off_c, 11, 56, 64
12, 253680, Note_off_c, 11, 62, 64
12, 253920, Note_on_c, 11, 62, 93
12, 253920, Note_on_c, 11, 56, 90
12, 254160, Note_off_c, 11, 56, 64
12, 254160, Note_off_c, 11, 62, 64
12, 254400, Note_on_c, 11, 63, 81
12, 254400, Note_on_c, 11, 55, 84
12, 254640, Note_off_c, 11, 55, 64
12, 254640, Note_off_c, 11, 63, 64
12, 254640, Control_c, 11, 7, 95
12, 254640, Control_c, 11, 10, 13
12, 254640, Control_c, 11, 93, 0
12, 254640, Control_c, 11, 91, 66
12, 257280, Note_on_c, 11, 55, 80
12, 257920, Note_off_c, 11, 55, 64
12, 258240, Note_on_c, 11, 56, 80
12, 258400, Note_off_c, 11, 56, 64
12, 261120, Note_on_c, 11, 56, 80
12, 261760, Note_off_c, 11, 56, 64
12, 262080, Note_on_c, 11, 58, 80
12, 262240, Note_off_c, 11, 58, 64
12, 264960, Note_on_c, 11, 61, 80
12, 265920, Note_off_c, 11, 61, 64
12, 265920, Note_on_c, 11, 60, 80
12, 266160, Note_off_c, 11, 60, 64
12, 266160, Control_c, 11, 7, 95
12, 266160, Control_c, 11, 10, 13
12, 266160, Control_c, 11, 93, 0
12, 266160, Control_c, 11, 91, 66
12, 266400, Control_c, 11, 7, 95
12, 266400, Control_c, 11, 10, 13
12, 266400, Control_c, 11, 93, 0
12, 266400, Control_c, 11, 91, 66
12, 266640, Control_c, 11, 7, 95
12, 266640, Control_c, 11, 10, 13
12, 266640, Control_c, 11, 93, 0
12, 266640, Control_c, 11, 91, 66
12, 266880, Control_c, 11, 7, 95
12, 266880, Control_c, 11, 10, 13
12, 266880, Control_c, 11, 93, 0
12, 266880, Control_c, 11, 91, 66
12, 266880, Note_on_c, 11, 56, 80
12, 267120, Note_off_c, 11, 56, 64
12, 267120, Control_c, 11, 7, 95
12, 267120, Control_c, 11, 10, 13
12, 267120, Control_c, 11, 93, 0
12, 267120, Control_c, 11, 91, 66
12, 267360, Control_c, 11, 7, 95
12, 267360, Control_c, 11, 10, 13
12, 267360, Control_c, 11, 93, 0
12, 267360, Control_c, 11, 91, 66
12, 267360, Note_on_c, 11, 56, 80
12, 267600, Note_off_c, 11, 56, 64
12, 267600, Control_c, 11, 7, 95
12, 267600, Control_c, 11, 10, 13
12, 267600, Control_c, 11, 93, 0
12, 267600, Control_c, 11, 91, 66
12, 267840, Note_on_c, 11, 55, 80
12, 268080, Note_off_c, 11, 55, 64
12, 279360, Note_on_c, 11, 72, 80
12, 280320, Note_off_c, 11, 72, 64
12, 280320, Note_on_c, 11, 72, 80
12, 280320, Control_c, 11, 7, 95
12, 280320, Control_c, 11, 10, 13
12, 280320, Control_c, 11, 93, 0
12, 280320, Control_c, 11, 91, 66
12, 281280, Note_off_c, 11, 72, 64
12, 281280, Note_on_c, 11, 70, 80
12, 282240, Note_off_c, 11, 70, 64
12, 282240, Note_on_c, 11, 70, 80
12, 283200, Note_off_c, 11, 70, 64
12, 283200, Note_on_c, 11, 68, 80
12, 284160, Note_off_c, 11, 68, 64
12, 284160, Note_on_c, 11, 68, 80
12, 285120, Note_off_c, 11, 68, 64
12, 285120, Note_on_c, 11, 68, 80
12, 286080, Note_off_c, 11, 68, 64
12, 286080, Note_on_c, 11, 67, 80
12, 287040, Note_off_c, 11, 67, 64
12, 287040, Note_on_c, 11, 67, 80
12, 288000, Note_off_c, 11, 67, 64
12, 288000, Note_on_c, 11, 63, 80
12, 288960, Note_off_c, 11, 63, 64
12, 288960, Note_on_c, 11, 63, 80
12, 289440, Note_off_c, 11, 63, 64
12, 289440, Note_on_c, 11, 60, 80
12, 289920, Note_off_c, 11, 60, 64
12, 289920, Note_on_c, 11, 60, 80
12, 290160, Note_off_c, 11, 60, 64
12, 290160, Note_on_c, 11, 57, 80
12, 290400, Note_off_c, 11, 57, 64
12, 290400, Note_on_c, 11, 59, 80
12, 290640, Note_off_c, 11, 59, 64
12, 290640, Note_on_c, 11, 60, 80
12, 290880, Note_off_c, 11, 60, 64
12, 290880, Note_on_c, 11, 59, 80
12, 291120, Note_off_c, 11, 59, 64
12, 292800, Note_on_c, 11, 59, 80
12, 293040, Note_off_c, 11, 59, 64
12, 293760, Note_on_c, 11, 60, 80
12, 294000, Note_off_c, 11, 60, 64
12, 294720, Note_on_c, 11, 59, 80
12, 294960, Note_off_c, 11, 59, 64
12, 296640, Note_on_c, 11, 62, 80
12, 296880, Note_off_c, 11, 62, 64
12, 297600, Note_on_c, 11, 63, 80
12, 297840, Note_off_c, 11, 63, 64
12, 298560, Note_on_c, 11, 62, 80
12, 298800, Note_off_c, 11, 62, 64
12, 302400, Note_on_c, 11, 60, 80
12, 302640, Note_off_c, 11, 60, 64
12, 302640, Note_on_c, 11, 60, 80
12, 302880, Note_off_c, 11, 60, 64
12, 303120, Note_on_c, 11, 63, 80
12, 303360, Note_off_c, 11, 63, 64
12, 303600, Note_on_c, 11, 67, 80
12, 303840, Note_off_c, 11, 67, 64
12, 304080, Note_on_c, 11, 72, 80
12, 304320, Note_off_c, 11, 72, 64
12, 306240, Note_on_c, 11, 62, 80
12, 306480, Note_off_c, 11, 62, 64
12, 306480, Note_on_c, 11, 62, 80
12, 306720, Note_off_c, 11, 62, 64
12, 306960, Note_on_c, 11, 65, 80
12, 307200, Note_off_c, 11, 65, 64
12, 307440, Note_on_c, 11, 71, 80
12, 307680, Note_off_c, 11, 71, 64
12, 307920, Note_on_c, 11, 74, 80
12, 308160, Note_off_c, 11, 74, 64
12, 308160, Note_on_c, 11, 62, 80
12, 309120, Note_off_c, 11, 62, 64
12, 309120, Note_on_c, 11, 62, 80
12, 310080, Note_off_c, 11, 62, 64
12, 310080, Note_on_c, 11, 60, 80
12, 310800, Control_c, 11, 7, 95
12, 310800, Control_c, 11, 10, 13
12, 310800, Control_c, 11, 93, 0
12, 310800, Control_c, 11, 91, 66
12, 311040, Note_off_c, 11, 60, 64
12, 311040, Note_on_c, 11, 60, 80
12, 311040, Control_c, 11, 7, 95
12, 311040, Control_c, 11, 10, 13
12, 311040, Control_c, 11, 93, 0
12, 311040, Control_c, 11, 91, 66
12, 311280, Control_c, 11, 7, 95
12, 311280, Control_c, 11, 10, 13
12, 311280, Control_c, 11, 93, 0
12, 311280, Control_c, 11, 91, 66
12, 311520, Control_c, 11, 7, 95
12, 311520, Control_c, 11, 10, 13
12, 311520, Control_c, 11, 93, 0
12, 311520, Control_c, 11, 91, 66
12, 311760, Control_c, 11, 7, 95
12, 311760, Control_c, 11, 10, 13
12, 311760, Control_c, 11, 93, 0
12, 311760, Control_c, 11, 91, 66
12, 312000, Note_off_c, 11, 60, 64
12, 312000, Note_on_c, 11, 60, 80
12, 312000, Control_c, 11, 7, 95
12, 312000, Control_c, 11, 10, 13
12, 312000, Control_c, 11, 93, 0
12, 312000, Control_c, 11, 91, 66
12, 312240, Control_c, 11, 7, 95
12, 312240, Control_c, 11, 10, 13
12, 312240, Control_c, 11, 93, 0
12, 312240, Control_c, 11, 91, 66
12, 312480, Control_c, 11, 7, 95
12, 312480, Control_c, 11, 10, 13
12, 312480, Control_c, 11, 93, 0
12, 312480, Control_c, 11, 91, 66
12, 312720, Control_c, 11, 7, 95
12, 312720, Control_c, 11, 10, 13
12, 312720, Control_c, 11, 93, 0
12, 312720, Control_c, 11, 91, 66
12, 312960, Note_off_c, 11, 60, 64
12, 312960, Note_on_c, 11, 60, 80
12, 313920, Note_off_c, 11, 60, 64
12, 313920, Note_on_c, 11, 59, 80
12, 314160, Note_off_c, 11, 59, 64
12, 315840, Note_on_c, 11, 55, 80
12, 316080, Note_off_c, 11, 55, 64
12, 330240, Note_on_c, 11, 62, 80
12, 330480, Note_off_c, 11, 62, 64
12, 331200, Note_on_c, 11, 72, 80
12, 331200, Note_on_c, 11, 64, 80
12, 331200, Note_on_c, 11, 55, 80
12, 331680, Note_off_c, 11, 55, 64
12, 331680, Note_off_c, 11, 64, 64
12, 331680, Note_off_c, 11, 72, 64
12, 331680, Note_on_c, 11, 55, 119
12, 331800, Note_off_c, 11, 55, 64
12, 331920, Note_on_c, 11, 55, 117
12, 332040, Note_off_c, 11, 55, 64
12, 332160, Note_on_c, 11, 55, 127
12, 332400, Note_off_c, 11, 55, 64
12, 332700, Note_on_c, 11, 60, 119
12, 332760, Note_off_c, 11, 60, 64
12, 332760, Note_on_c, 11, 62, 123
12, 332820, Note_off_c, 11, 62, 64
12, 332820, Note_on_c, 11, 64, 125
12, 332880, Note_off_c, 11, 64, 64
12, 332880, Note_on_c, 11, 65, 125
12, 332940, Note_off_c, 11, 65, 64
12, 332940, Note_on_c, 11, 67, 125
12, 333000, Note_off_c, 11, 67, 64
12, 333000, Note_on_c, 11, 69, 125
12, 333060, Note_off_c, 11, 69, 64
12, 333060, Note_on_c, 11, 71, 127
12, 333120, Note_off_c, 11, 71, 64
12, 333120, Note_on_c, 11, 72, 119
12, 333240, Note_off_c, 11, 72, 64
12, 333360, Note_on_c, 11, 74, 123
12, 333360, Note_on_c, 11, 67, 125
12, 333480, Note_off_c, 11, 67, 64
12, 333480, Note_off_c, 11, 74, 64
12, 333600, Note_on_c, 11, 72, 119
12, 333600, Note_on_c, 11, 67, 125
12, 333720, Note_off_c, 11, 67, 64
12, 333720, Note_off_c, 11, 72, 64
12, 333840, Note_on_c, 11, 74, 127
12, 333840, Note_on_c, 11, 65, 123
12, 333960, Note_off_c, 11, 65, 64
12, 333960, Note_off_c, 11, 74, 64
12, 334080, Note_on_c, 11, 72, 123
12, 334080, Note_on_c, 11, 64, 127
12, 334200, Note_off_c, 11, 64, 64
12, 334200, Note_off_c, 11, 72, 64
12, 334320, Note_on_c, 11, 71, 123
12, 334320, Note_on_c, 11, 62, 117
12, 334440, Note_off_c, 11, 62, 64
12, 334440, Note_off_c, 11, 71, 64
12, 335040, Note_on_c, 11, 74, 123
12, 335040, Note_on_c, 11, 67, 115
12, 335040, Note_on_c, 11, 59, 119
12, 335520, Note_off_c, 11, 59, 64
12, 335520, Note_off_c, 11, 67, 64
12, 335520, Note_off_c, 11, 74, 64
12, 335520, Note_on_c, 11, 74, 127
12, 335520, Note_on_c, 11, 67, 117
12, 335520, Note_on_c, 11, 59, 119
12, 335640, Note_off_c, 11, 59, 64
12, 335640, Note_off_c, 11, 67, 64
12, 335640, Note_off_c, 11, 74, 64
12, 335760, Note_on_c, 11, 74, 127
12, 335760, Note_on_c, 11, 67, 112
12, 335760, Note_on_c, 11, 59, 117
12, 335880, Note_off_c, 11, 59, 64
12, 335880, Note_off_c, 11, 67, 64
12, 335880, Note_off_c, 11, 74, 64
12, 336000, Note_on_c, 11, 74, 127
12, 336000, Note_on_c, 11, 67, 117
12, 336000, Note_on_c, 11, 59, 117
12, 336240, Note_off_c, 11, 59, 64
12, 336240, Note_off_c, 11, 67, 64
12, 336240, Note_off_c, 11, 74, 64
12, 336540, Note_on_c, 11, 55, 119
12, 336600, Note_off_c, 11, 55, 64
12, 336600, Note_on_c, 11, 57, 127
12, 336660, Note_off_c, 11, 57, 64
12, 336660, Note_on_c, 11, 59, 127
12, 336720, Note_off_c, 11, 59, 64
12, 336720, Note_on_c, 11, 60, 125
12, 336780, Note_off_c, 11, 60, 64
12, 336780, Note_on_c, 11, 62, 125
12, 336840, Note_off_c, 11, 62, 64
12, 336840, Note_on_c, 11, 64, 125
12, 336900, Note_off_c, 11, 64, 64
12, 336900, Note_on_c, 11, 66, 127
12, 336960, Note_off_c, 11, 66, 64
12, 336960, Note_on_c, 11, 67, 127
12, 337080, Note_off_c, 11, 67, 64
12, 337200, Note_on_c, 11, 55, 123
12, 337320, Note_off_c, 11, 55, 64
12, 337440, Note_on_c, 11, 71, 119
12, 337440, Note_on_c, 11, 62, 117
12, 337440, Note_on_c, 11, 55, 119
12, 337560, Note_off_c, 11, 55, 64
12, 337560, Note_off_c, 11, 62, 64
12, 337560, Note_off_c, 11, 71, 64
12, 337680, Note_on_c, 11, 72, 119
12, 337680, Note_on_c, 11, 64, 112
12, 337680, Note_on_c, 11, 55, 115
12, 337800, Note_off_c, 11, 55, 64
12, 337800, Note_off_c, 11, 64, 64
12, 337800, Note_off_c, 11, 72, 64
12, 337920, Note_on_c, 11, 74, 123
12, 337920, Note_on_c, 11, 65, 117
12, 337920, Note_on_c, 11, 55, 115
12, 338040, Note_off_c, 11, 55, 64
12, 338040, Note_off_c, 11, 65, 64
12, 338040, Note_off_c, 11, 74, 64
12, 338160, Note_on_c, 11, 72, 119
12, 338160, Note_on_c, 11, 64, 117
12, 338160, Note_on_c, 11, 55, 115
12, 338280, Note_off_c, 11, 55, 64
12, 338280, Note_off_c, 11, 64, 64
12, 338280, Note_off_c, 11, 72, 64
12, 342960, Note_on_c, 11, 60, 58
12, 343200, Note_off_c, 11, 60, 64
12, 343200, Note_on_c, 11, 60, 62
12, 343440, Note_off_c, 11, 60, 64
12, 343440, Note_on_c, 11, 60, 52
12, 343680, Note_off_c, 11, 60, 64
12, 343920, Note_on_c, 11, 60, 63
12, 344160, Note_off_c, 11, 60, 64
12, 344160, Note_on_c, 11, 60, 61
12, 344400, Note_off_c, 11, 60, 64
12, 344400, Note_on_c, 11, 60, 49
12, 344640, Note_off_c, 11, 60, 64
12, 344640, Note_on_c, 11, 55, 68
12, 346080, Note_off_c, 11, 55, 64
12, 346080, Note_on_c, 11, 55, 56
12, 347520, Note_off_c, 11, 55, 64
12, 347520, Note_on_c, 11, 55, 56
12, 348240, Note_off_c, 11, 55, 64
12, 348240, Note_on_c, 11, 55, 69
12, 348480, Note_off_c, 11, 55, 64
12, 348480, Note_on_c, 11, 67, 43
12, 349920, Note_off_c, 11, 67, 64
12, 349920, Note_on_c, 11, 67, 65
12, 350640, Note_off_c, 11, 67, 64
12, 351240, Note_on_c, 11, 60, 70
12, 351300, Note_off_c, 11, 60, 64
12, 351360, Note_on_c, 11, 59, 73
12, 351480, Note_off_c, 11, 59, 64
12, 351600, Note_on_c, 11, 60, 74
12, 351720, Note_off_c, 11, 60, 64
12, 351840, Note_on_c, 11, 59, 71
12, 351960, Note_off_c, 11, 59, 64
12, 352080, Note_on_c, 11, 60, 73
12, 352200, Note_off_c, 11, 60, 64
12, 352320, Note_on_c, 11, 59, 81
12, 352440, Note_off_c, 11, 59, 64
12, 352800, Note_on_c, 11, 67, 45
12, 352920, Note_off_c, 11, 67, 64
12, 353280, Note_on_c, 11, 55, 73
12, 353400, Note_off_c, 11, 55, 64
12, 354240, Note_on_c, 11, 64, 72
12, 354360, Note_off_c, 11, 64, 64
12, 354360, Note_on_c, 11, 67, 61
12, 354480, Note_off_c, 11, 67, 64
12, 354480, Note_on_c, 11, 64, 72
12, 354600, Note_off_c, 11, 64, 64
12, 354600, Note_on_c, 11, 67, 65
12, 354720, Note_off_c, 11, 67, 64
12, 354720, Note_on_c, 11, 64, 64
12, 354840, Note_off_c, 11, 64, 64
12, 354840, Note_on_c, 11, 67, 62
12, 354960, Note_off_c, 11, 67, 64
12, 354960, Note_on_c, 11, 64, 71
12, 355080, Note_off_c, 11, 64, 64
12, 355080, Note_on_c, 11, 67, 65
12, 355200, Note_off_c, 11, 67, 64
12, 355200, Note_on_c, 11, 65, 67
12, 355320, Note_off_c, 11, 65, 64
12, 355320, Note_on_c, 11, 67, 54
12, 355440, Note_off_c, 11, 67, 64
12, 355440, Note_on_c, 11, 65, 63
12, 355560, Note_off_c, 11, 65, 64
12, 355560, Note_on_c, 11, 67, 45
12, 355680, Note_off_c, 11, 67, 64
12, 355680, Note_on_c, 11, 65, 72
12, 355800, Note_off_c, 11, 65, 64
12, 355800, Note_on_c, 11, 67, 61
12, 355920, Note_off_c, 11, 67, 64
12, 355920, Note_on_c, 11, 65, 63
12, 356040, Note_off_c, 11, 65, 64
12, 356040, Note_on_c, 11, 67, 63
12, 356160, Note_off_c, 11, 67, 64
12, 356160, Note_on_c, 11, 67, 67
12, 356220, Note_off_c, 11, 67, 64
12, 356280, Note_on_c, 11, 67, 65
12, 356400, Note_off_c, 11, 67, 64
12, 356400, Note_on_c, 11, 66, 74
12, 356520, Note_off_c, 11, 66, 64
12, 356520, Note_on_c, 11, 67, 68
12, 356640, Note_off_c, 11, 67, 64
12, 356640, Note_on_c, 11, 64, 65
12, 356760, Note_off_c, 11, 64, 64
12, 356760, Note_on_c, 11, 67, 51
12, 356880, Note_off_c, 11, 67, 64
12, 356880, Note_on_c, 11, 64, 61
12, 357000, Note_off_c, 11, 64, 64
12, 357000, Note_on_c, 11, 60, 57
12, 357120, Note_off_c, 11, 60, 64
12, 357120, Note_on_c, 11, 58, 65
12, 357240, Note_off_c, 11, 58, 64
12, 357240, Note_on_c, 11, 55, 76
12, 357360, Note_off_c, 11, 55, 64
12, 357360, Note_on_c, 11, 59, 69
12, 357480, Note_off_c, 11, 59, 64
12, 357480, Note_on_c, 11, 55, 40
12, 357600, Note_off_c, 11, 55, 64
12, 357600, Note_on_c, 11, 59, 53
12, 357720, Note_off_c, 11, 59, 64
12, 357720, Note_on_c, 11, 55, 46
12, 357840, Note_off_c, 11, 55, 64
12, 357840, Note_on_c, 11, 59, 58
12, 357960, Note_off_c, 11, 59, 64
12, 357960, Note_on_c, 11, 55, 58
12, 358080, Note_off_c, 11, 55, 64
12, 358080, Note_on_c, 11, 59, 53
12, 358200, Note_off_c, 11, 59, 64
12, 358200, Note_on_c, 11, 62, 61
12, 358320, Note_off_c, 11, 62, 64
12, 358320, Note_on_c, 11, 59, 64
12, 358440, Note_off_c, 11, 59, 64
12, 358440, Note_on_c, 11, 57, 89
12, 358560, Note_off_c, 11, 57, 64
12, 358560, Note_on_c, 11, 56, 69
12, 358680, Note_off_c, 11, 56, 64
12, 358680, Note_on_c, 11, 59, 73
12, 358800, Note_off_c, 11, 59, 64
12, 358800, Note_on_c, 11, 56, 69
12, 358920, Note_off_c, 11, 56, 64
12, 358920, Note_on_c, 11, 59, 72
12, 359040, Note_off_c, 11, 59, 64
12, 359040, Note_on_c, 11, 57, 71
12, 359160, Note_off_c, 11, 57, 64
12, 359160, Note_on_c, 11, 64, 68
12, 359400, Note_off_c, 11, 64, 64
12, 359400, Note_on_c, 11, 64, 50
12, 359640, Note_off_c, 11, 64, 64
12, 359640, Note_on_c, 11, 64, 70
12, 359880, Note_off_c, 11, 64, 64
12, 359880, Note_on_c, 11, 64, 74
12, 360000, Note_off_c, 11, 64, 64
12, 360000, Note_on_c, 11, 59, 72
12, 360120, Note_off_c, 11, 59, 64
12, 360120, Note_on_c, 11, 62, 67
12, 360180, Note_off_c, 11, 62, 64
12, 360240, Note_on_c, 11, 59, 69
12, 360360, Note_off_c, 11, 59, 64
12, 360360, Note_on_c, 11, 62, 76
12, 360480, Note_off_c, 11, 62, 64
12, 360480, Note_on_c, 11, 57, 70
12, 360600, Note_off_c, 11, 57, 64
12, 360600, Note_on_c, 11, 62, 72
12, 360720, Note_off_c, 11, 62, 64
12, 360720, Note_on_c, 11, 60, 72
12, 360840, Note_off_c, 11, 60, 64
12, 360840, Note_on_c, 11, 62, 74
12, 360960, Note_off_c, 11, 62, 64
12, 360960, Note_on_c, 11, 59, 73
12, 361200, Note_off_c, 11, 59, 64
12, 361920, Note_on_c, 11, 60, 63
12, 362880, Note_off_c, 11, 60, 64
12, 362880, Note_on_c, 11, 59, 64
12, 363840, Note_off_c, 11, 59, 64
12, 363840, Note_on_c, 11, 60, 65
12, 364080, Note_off_c, 11, 60, 64
12, 364080, Note_on_c, 11, 60, 58
12, 364320, Note_off_c, 11, 60, 64
12, 364560, Note_on_c, 11, 60, 59
12, 364800, Note_off_c, 11, 60, 64
12, 365040, Note_on_c, 11, 59, 61
12, 365280, Note_off_c, 11, 59, 64
12, 365760, Note_on_c, 11, 62, 55
12, 366000, Note_off_c, 11, 62, 64
12, 366240, Note_on_c, 11, 59, 65
12, 366480, Note_off_c, 11, 59, 64
12, 366720, Note_on_c, 11, 60, 61
12, 366960, Note_off_c, 11, 60, 64
12, 367440, Note_on_c, 11, 60, 68
12, 367680, Note_off_c, 11, 60, 64
12, 367680, Note_on_c, 11, 60, 44
12, 367800, Note_off_c, 11, 60, 64
12, 367920, Note_on_c, 11, 60, 63
12, 368040, Note_off_c, 11, 60, 64
12, 368160, Note_on_c, 11, 60, 61
12, 368280, Note_off_c, 11, 60, 64
12, 368400, Note_on_c, 11, 60, 72
12, 368520, Note_off_c, 11, 60, 64
12, 368640, Note_on_c, 11, 59, 53
12, 368880, Note_off_c, 11, 59, 64
12, 369360, Note_on_c, 11, 59, 59
12, 369600, Note_off_c, 11, 59, 64
12, 369600, Note_on_c, 11, 62, 53
12, 369720, Note_off_c, 11, 62, 64
12, 369840, Note_on_c, 11, 60, 72
12, 369960, Note_off_c, 11, 60, 64
12, 370080, Note_on_c, 11, 62, 71
12, 370200, Note_off_c, 11, 62, 64
12, 370320, Note_on_c, 11, 59, 74
12, 370440, Note_off_c, 11, 59, 64
12, 370560, Note_on_c, 11, 60, 63
12, 370800, Note_off_c, 11, 60, 64
12, 370800, Note_on_c, 11, 60, 61
12, 371280, Note_off_c, 11, 60, 64
12, 371280, Note_on_c, 11, 60, 59
12, 371520, Note_off_c, 11, 60, 64
12, 371520, Note_on_c, 11, 60, 61
12, 371640, Note_off_c, 11, 60, 64
12, 371760, Note_on_c, 11, 64, 61
12, 371880, Note_off_c, 11, 64, 64
12, 372240, Note_on_c, 11, 62, 53
12, 372480, Note_off_c, 11, 62, 64
12, 372480, Note_on_c, 11, 64, 46
12, 372720, Note_off_c, 11, 64, 64
12, 373440, Note_on_c, 11, 67, 68
12, 374400, Note_off_c, 11, 67, 64
12, 374400, Note_on_c, 11, 68, 43
12, 374640, Note_off_c, 11, 68, 64
12, 375360, Note_on_c, 11, 64, 63
12, 376320, Note_off_c, 11, 64, 64
12, 376320, Note_on_c, 11, 65, 62
12, 376560, Note_off_c, 11, 65, 64
12, 377280, Note_on_c, 11, 62, 112
12, 377520, Note_off_c, 11, 62, 64
12, 377520, Note_on_c, 11, 62, 57
12, 378240, Note_off_c, 11, 62, 64
12, 378240, Note_on_c, 11, 63, 73
12, 378480, Note_off_c, 11, 63, 64
12, 378480, Note_on_c, 11, 63, 80
12, 378720, Note_off_c, 11, 63, 64
12, 378960, Note_on_c, 11, 62, 74
12, 379200, Note_off_c, 11, 62, 64
12, 379440, Note_on_c, 11, 60, 60
12, 379680, Note_off_c, 11, 60, 64
12, 379920, Note_on_c, 11, 59, 62
12, 380160, Note_off_c, 11, 59, 64
12, 380160, Note_on_c, 11, 60, 57
12, 380280, Note_off_c, 11, 60, 64
12, 380280, Note_on_c, 11, 55, 58
12, 380400, Note_off_c, 11, 55, 64
12, 380400, Note_on_c, 11, 60, 63
12, 380520, Note_off_c, 11, 60, 64
12, 380520, Note_on_c, 11, 55, 47
12, 380640, Note_off_c, 11, 55, 64
12, 380640, Note_on_c, 11, 60, 73
12, 380760, Note_off_c, 11, 60, 64
12, 380760, Note_on_c, 11, 55, 53
12, 380880, Note_off_c, 11, 55, 64
12, 380880, Note_on_c, 11, 59, 49
12, 381000, Note_off_c, 11, 59, 64
12, 381000, Note_on_c, 11, 55, 52
12, 381120, Note_off_c, 11, 55, 64
12, 381120, Note_on_c, 11, 60, 57
12, 381240, Note_off_c, 11, 60, 64
12, 381240, Note_on_c, 11, 55, 43
12, 381360, Note_off_c, 11, 55, 64
12, 381360, Note_on_c, 11, 60, 64
12, 381480, Note_off_c, 11, 60, 64
12, 381480, Note_on_c, 11, 55, 46
12, 381600, Note_off_c, 11, 55, 64
12, 381600, Note_on_c, 11, 60, 56
12, 381720, Note_off_c, 11, 60, 64
12, 381720, Note_on_c, 11, 55, 51
12, 381840, Note_off_c, 11, 55, 64
12, 381840, Note_on_c, 11, 60, 65
12, 381960, Note_off_c, 11, 60, 64
12, 381960, Note_on_c, 11, 55, 42
12, 382080, Note_off_c, 11, 55, 64
12, 382080, Note_on_c, 11, 60, 62
12, 382200, Note_off_c, 11, 60, 64
12, 382200, Note_on_c, 11, 55, 45
12, 382320, Note_off_c, 11, 55, 64
12, 382320, Note_on_c, 11, 60, 64
12, 382440, Note_off_c, 11, 60, 64
12, 382440, Note_on_c, 11, 55, 43
12, 382560, Note_off_c, 11, 55, 64
12, 382560, Note_on_c, 11, 62, 43
12, 382680, Note_off_c, 11, 62, 64
12, 382680, Note_on_c, 11, 55, 53
12, 382800, Note_off_c, 11, 55, 64
12, 382800, Note_on_c, 11, 60, 71
12, 382920, Note_off_c, 11, 60, 64
12, 382920, Note_on_c, 11, 55, 64
12, 383040, Note_off_c, 11, 55, 64
12, 383040, Note_on_c, 11, 59, 58
12, 383280, Note_off_c, 11, 59, 64
12, 386160, Note_on_c, 11, 60, 85
12, 386400, Note_off_c, 11, 60, 64
12, 386640, Note_on_c, 11, 59, 90
12, 386880, Note_off_c, 11, 59, 64
12, 386880, Note_on_c, 11, 60, 86
12, 387120, Note_off_c, 11, 60, 64
12, 388080, Note_on_c, 11, 60, 82
12, 388320, Note_off_c, 11, 60, 64
12, 388560, Note_on_c, 11, 59, 99
12, 388800, Note_off_c, 11, 59, 64
12, 388800, Note_on_c, 11, 60, 82
12, 389040, Note_off_c, 11, 60, 64
12, 392400, Note_on_c, 11, 71, 94
12, 392448, Note_off_c, 11, 71, 64
12, 392448, Note_on_c, 11, 72, 89
12, 392496, Note_off_c, 11, 72, 64
12, 392496, Note_on_c, 11, 71, 95
12, 392544, Note_off_c, 11, 71, 64
12, 392544, Note_on_c, 11, 72, 93
12, 392592, Note_off_c, 11, 72, 64
12, 392592, Note_on_c, 11, 71, 101
12, 392640, Note_off_c, 11, 71, 64
12, 392640, Note_on_c, 11, 72, 94
12, 392760, Note_off_c, 11, 72, 64
12, 392880, Note_on_c, 11, 60, 94
12, 393000, Note_off_c, 11, 60, 64
12, 400320, Note_on_c, 11, 60, 72
12, 400560, Note_off_c, 11, 60, 64
12, 400560, Note_on_c, 11, 60, 74
12, 400800, Note_off_c, 11, 60, 64
12, 401040, Note_on_c, 11, 60, 78
12, 401280, Note_off_c, 11, 60, 64
12, 401520, Note_on_c, 11, 60, 80
12, 401760, Note_off_c, 11, 60, 64
12, 402000, Note_on_c, 11, 59, 85
12, 402240, Note_off_c, 11, 59, 64
12, 402240, Note_on_c, 11, 60, 80
12, 402480, Note_off_c, 11, 60, 64
12, 405840, Note_on_c, 11, 71, 89
12, 405888, Note_off_c, 11, 71, 64
12, 405888, Note_on_c, 11, 72, 89
12, 405936, Note_off_c, 11, 72, 64
12, 405936, Note_on_c, 11, 71, 95
12, 405984, Note_off_c, 11, 71, 64
12, 405984, Note_on_c, 11, 72, 86
12, 406032, Note_off_c, 11, 72, 64
12, 406032, Note_on_c, 11, 71, 93
12, 406080, Note_off_c, 11, 71, 64
12, 406080, Note_on_c, 11, 72, 94
12, 406200, Note_off_c, 11, 72, 64
12, 406320, Note_on_c, 11, 60, 89
12, 406440, Note_off_c, 11, 60, 64
12, 406560, Note_on_c, 11, 62, 90
12, 406680, Note_off_c, 11, 62, 64
12, 406800, Note_on_c, 11, 64, 101
12, 406920, Note_off_c, 11, 64, 64
12, 407040, Note_on_c, 11, 65, 94
12, 407160, Note_off_c, 11, 65, 64
12, 407280, Note_on_c, 11, 67, 93
12, 407400, Note_off_c, 11, 67, 64
12, 407520, Note_on_c, 11, 69, 94
12, 407640, Note_off_c, 11, 69, 64
12, 407760, Note_on_c, 11, 71, 99
12, 407880, Note_off_c, 11, 71, 64
12, 408000, Note_on_c, 11, 72, 90
12, 408120, Note_off_c, 11, 72, 64
12, 411840, Note_on_c, 11, 65, 58
12, 412800, Note_off_c, 11, 65, 64
12, 412800, Note_on_c, 11, 65, 54
12, 413760, Note_off_c, 11, 65, 64
12, 413760, Note_on_c, 11, 63, 51
12, 414720, Note_off_c, 11, 63, 64
12, 414720, Note_on_c, 11, 63, 34
12, 415680, Note_off_c, 11, 63, 64
12, 415680, Note_on_c, 11, 63, 43
12, 416640, Note_off_c, 11, 63, 64
12, 416640, Note_on_c, 11, 61, 61
12, 416880, Note_off_c, 11, 61, 64
12, 420480, Note_on_c, 11, 62, 61
12, 420960, Note_off_c, 11, 62, 64
12, 420960, Note_on_c, 11, 63, 62
12, 421440, Note_off_c, 11, 63, 64
12, 421440, Note_on_c, 11, 64, 82
12, 421680, Note_off_c, 11, 64, 64
12, 430080, Control_c, 11, 7, 95
12, 430080, Control_c, 11, 10, 13
12, 430080, Control_c, 11, 93, 0
12, 430080, Control_c, 11, 91, 66
12, 431040, Control_c, 11, 7, 95
12, 431040, Control_c, 11, 10, 13
12, 431040, Control_c, 11, 93, 0
12, 431040, Control_c, 11, 91, 66
12, 431040, Note_on_c, 11, 68, 62
12, 431160, Note_off_c, 11, 68, 64
12, 431160, Note_on_c, 11, 68, 60
12, 431280, Note_off_c, 11, 68, 64
12, 431280, Note_on_c, 11, 68, 57
12, 431400, Note_off_c, 11, 68, 64
12, 431400, Note_on_c, 11, 68, 64
12, 431520, Note_off_c, 11, 68, 64
12, 431520, Note_on_c, 11, 68, 57
12, 431640, Note_off_c, 11, 68, 64
12, 431640, Note_on_c, 11, 68, 62
12, 431760, Note_off_c, 11, 68, 64
12, 431760, Note_on_c, 11, 68, 58
12, 431880, Note_off_c, 11, 68, 64
12, 431880, Note_on_c, 11, 68, 64
12, 432000, Note_off_c, 11, 68, 64
12, 432000, Note_on_c, 11, 71, 117
12, 432120, Note_off_c, 11, 71, 64
12, 432120, Note_on_c, 11, 71, 99
12, 432240, Note_off_c, 11, 71, 64
12, 432240, Note_on_c, 11, 71, 85
12, 432360, Note_off_c, 11, 71, 64
12, 432360, Note_on_c, 11, 71, 89
12, 432480, Note_off_c, 11, 71, 64
12, 432480, Note_on_c, 11, 71, 123
12, 432600, Note_off_c, 11, 71, 64
12, 432600, Note_on_c, 11, 71, 105
12, 432720, Note_off_c, 11, 71, 64
12, 432720, Note_on_c, 11, 71, 89
12, 432840, Note_off_c, 11, 71, 64
12, 432840, Note_on_c, 11, 71, 95
12, 432960, Note_off_c, 11, 71, 64
12, 432960, Note_on_c, 11, 72, 85
12, 432960, Note_on_c, 11, 64, 89
12, 432960, Note_on_c, 11, 55, 90
12, 433200, Note_off_c, 11, 55, 64
12, 433200, Note_off_c, 11, 64, 64
12, 433440, Note_off_c, 11, 72, 64
12, 433920, Note_on_c, 11, 60, 94
12, 434400, Note_off_c, 11, 60, 64
12, 434400, Note_on_c, 11, 72, 93
12, 434520, Note_off_c, 11, 72, 64
12, 434640, Note_on_c, 11, 72, 95
12, 434760, Note_off_c, 11, 72, 64
12, 434880, Note_on_c, 11, 72, 86
12, 435000, Note_off_c, 11, 72, 64
12, 435000, Note_on_c, 11, 70, 90
12, 435120, Note_off_c, 11, 70, 64
12, 435120, Note_on_c, 11, 69, 94
12, 435180, Note_off_c, 11, 69, 64
12, 435240, Note_on_c, 11, 67, 86
12, 435300, Note_off_c, 11, 67, 64
12, 435360, Note_on_c, 11, 65, 95
12, 435420, Note_off_c, 11, 65, 64
12, 435480, Note_on_c, 11, 64, 95
12, 435540, Note_off_c, 11, 64, 64
12, 435600, Note_on_c, 11, 62, 95
12, 435660, Note_off_c, 11, 62, 64
12, 435720, Note_on_c, 11, 60, 90
12, 435780, Note_off_c, 11, 60, 64
12, 435840, Note_on_c, 11, 58, 89
12, 436320, Note_off_c, 11, 58, 64
12, 436320, Note_on_c, 11, 70, 94
12, 436440, Note_off_c, 11, 70, 64
12, 436560, Note_on_c, 11, 70, 95
12, 436680, Note_off_c, 11, 70, 64
12, 436800, Note_on_c, 11, 69, 95
12, 437040, Note_off_c, 11, 69, 64
12, 437280, Note_on_c, 11, 69, 117
12, 437340, Note_off_c, 11, 69, 64
12, 437340, Note_on_c, 11, 67, 115
12, 437400, Note_off_c, 11, 67, 64
12, 437400, Note_on_c, 11, 65, 104
12, 437460, Note_off_c, 11, 65, 64
12, 437460, Note_on_c, 11, 64, 101
12, 437520, Note_off_c, 11, 64, 64
12, 437520, Note_on_c, 11, 62, 86
12, 437580, Note_off_c, 11, 62, 64
12, 437580, Note_on_c, 11, 60, 94
12, 437640, Note_off_c, 11, 60, 64
12, 437640, Note_on_c, 11, 59, 90
12, 437700, Note_off_c, 11, 59, 64
12, 437700, Note_on_c, 11, 57, 99
12, 437760, Note_off_c, 11, 57, 64
12, 437760, Note_on_c, 11, 59, 99
12, 438000, Note_off_c, 11, 59, 64
12, 438240, Note_on_c, 11, 59, 110
12, 438300, Note_off_c, 11, 59, 64
12, 438300, Note_on_c, 11, 60, 99
12, 438360, Note_off_c, 11, 60, 64
12, 438360, Note_on_c, 11, 62, 89
12, 438420, Note_off_c, 11, 62, 64
12, 438420, Note_on_c, 11, 64, 84
12, 438480, Note_off_c, 11, 64, 64
12, 438480, Note_on_c, 11, 65, 86
12, 438540, Note_off_c, 11, 65, 64
12, 438540, Note_on_c, 11, 67, 85
12, 438600, Note_off_c, 11, 67, 64
12, 438600, Note_on_c, 11, 69, 94
12, 438660, Note_off_c, 11, 69, 64
12, 438660, Note_on_c, 11, 71, 94
12, 438720, Note_off_c, 11, 71, 64
12, 438720, Note_on_c, 11, 72, 115
12, 439440, Note_off_c, 11, 72, 64
12, 439620, Note_on_c, 11, 60, 94
12, 439680, Note_off_c, 11, 60, 64
12, 439680, Note_on_c, 11, 64, 99
12, 440040, Note_off_c, 11, 64, 64
12, 440100, Note_on_c, 11, 64, 95
12, 440160, Note_off_c, 11, 64, 64
12, 440160, Note_on_c, 11, 60, 93
12, 440520, Note_off_c, 11, 60, 64
12, 440580, Note_on_c, 11, 60, 99
12, 440640, Note_off_c, 11, 60, 64
12, 440640, Note_on_c, 11, 57, 125
12, 441360, Note_off_c, 11, 57, 64
12, 441540, Note_on_c, 11, 57, 107
12, 441600, Note_off_c, 11, 57, 64
12, 441600, Note_on_c, 11, 60, 86
12, 441960, Note_off_c, 11, 60, 64
12, 442020, Note_on_c, 11, 60, 94
12, 442080, Note_off_c, 11, 60, 64
12, 442080, Note_on_c, 11, 57, 104
12, 442440, Note_off_c, 11, 57, 64
12, 442500, Note_on_c, 11, 57, 99
12, 442560, Note_off_c, 11, 57, 64
12, 442560, Note_on_c, 11, 66, 125
12, 442920, Note_off_c, 11, 66, 64
12, 442980, Note_on_c, 11, 66, 123
12, 443040, Note_off_c, 11, 66, 64
12, 443040, Note_on_c, 11, 69, 123
12, 443400, Note_off_c, 11, 69, 64
12, 443460, Note_on_c, 11, 72, 119
12, 443520, Note_off_c, 11, 72, 64
12, 443520, Note_on_c, 11, 75, 125
12, 443880, Note_off_c, 11, 75, 64
12, 443940, Note_on_c, 11, 72, 119
12, 444000, Note_off_c, 11, 72, 64
12, 444000, Note_on_c, 11, 69, 119
12, 444360, Note_off_c, 11, 69, 64
12, 444420, Note_on_c, 11, 66, 127
12, 444480, Note_off_c, 11, 66, 64
12, 444480, Note_on_c, 11, 67, 112
12, 444480, Note_on_c, 11, 55, 112
12, 445440, Control_c, 11, 7, 95
12, 445440, Control_c, 11, 10, 13
12, 445440, Control_c, 11, 93, 0
12, 445440, Control_c, 11, 91, 66
12, 445920, Note_off_c, 11, 55, 64
12, 445920, Note_off_c, 11, 67, 64
12, 479520, Note_on_c, 11, 60, 104
12, 479640, Note_off_c, 11, 60, 64
12, 479640, Note_on_c, 11, 55, 68
12, 479760, Note_off_c, 11, 55, 64
12, 479760, Note_on_c, 11, 60, 93
12, 479880, Note_off_c, 11, 60, 64
12, 479880, Note_on_c, 11, 55, 72
12, 480000, Note_off_c, 11, 55, 64
12, 480000, Note_on_c, 11, 60, 82
12, 480120, Note_off_c, 11, 60, 64
12, 480120, Note_on_c, 11, 55, 74
12, 480240, Note_off_c, 11, 55, 64
12, 480240, Note_on_c, 11, 62, 86
12, 480360, Note_off_c, 11, 62, 64
12, 480360, Note_on_c, 11, 55, 72
12, 480480, Note_off_c, 11, 55, 64
12, 480480, Note_on_c, 11, 64, 86
12, 480600, Note_off_c, 11, 64, 64
12, 480600, Note_on_c, 11, 55, 70
12, 480720, Note_off_c, 11, 55, 64
12, 480720, Note_on_c, 11, 64, 81
12, 480840, Note_off_c, 11, 64, 64
12, 480840, Note_on_c, 11, 55, 72
12, 480960, Note_off_c, 11, 55, 64
12, 480960, Note_on_c, 11, 64, 78
12, 481080, Note_off_c, 11, 64, 64
12, 481080, Note_on_c, 11, 55, 73
12, 481200, Note_off_c, 11, 55, 64
12, 481200, Note_on_c, 11, 64, 84
12, 481320, Note_off_c, 11, 64, 64
12, 481320, Note_on_c, 11, 55, 72
12, 481440, Note_off_c, 11, 55, 64
12, 481440, Note_on_c, 11, 64, 84
12, 481560, Note_off_c, 11, 64, 64
12, 481560, Note_on_c, 11, 55, 74
12, 481680, Note_off_c, 11, 55, 64
12, 481680, Note_on_c, 11, 64, 89
12, 481800, Note_off_c, 11, 64, 64
12, 481800, Note_on_c, 11, 55, 74
12, 481920, Note_off_c, 11, 55, 64
12, 481920, Note_on_c, 11, 62, 84
12, 482040, Note_off_c, 11, 62, 64
12, 482040, Note_on_c, 11, 55, 69
12, 482160, Note_off_c, 11, 55, 64
12, 482160, Note_on_c, 11, 62, 86
12, 482280, Note_off_c, 11, 62, 64
12, 482280, Note_on_c, 11, 55, 72
12, 482400, Note_off_c, 11, 55, 64
12, 482400, Note_on_c, 11, 64, 82
12, 482520, Note_off_c, 11, 64, 64
12, 482520, Note_on_c, 11, 55, 76
12, 482640, Note_off_c, 11, 55, 64
12, 482640, Note_on_c, 11, 64, 86
12, 482760, Note_off_c, 11, 64, 64
12, 482760, Note_on_c, 11, 55, 72
12, 482880, Note_off_c, 11, 55, 64
12, 482880, Note_on_c, 11, 64, 89
12, 483000, Note_off_c, 11, 64, 64
12, 483000, Note_on_c, 11, 55, 64
12, 483120, Note_off_c, 11, 55, 64
12, 483120, Note_on_c, 11, 64, 86
12, 483240, Note_off_c, 11, 64, 64
12, 483240, Note_on_c, 11, 55, 72
12, 483360, Note_off_c, 11, 55, 64
12, 483360, Note_on_c, 11, 64, 89
12, 483480, Note_off_c, 11, 64, 64
12, 483480, Note_on_c, 11, 55, 72
12, 483600, Note_off_c, 11, 55, 64
12, 483600, Note_on_c, 11, 64, 89
12, 483720, Note_off_c, 11, 64, 64
12, 483720, Note_on_c, 11, 55, 73
12, 483840, Note_off_c, 11, 55, 64
12, 483840, Note_on_c, 11, 62, 81
12, 483960, Note_off_c, 11, 62, 64
12, 483960, Note_on_c, 11, 55, 70
12, 484080, Note_off_c, 11, 55, 64
12, 484080, Note_on_c, 11, 62, 85
12, 484200, Note_off_c, 11, 62, 64
12, 484200, Note_on_c, 11, 55, 73
12, 484320, Note_off_c, 11, 55, 64
12, 484320, Note_on_c, 11, 60, 125
12, 484560, Note_off_c, 11, 60, 64
12, 485280, Note_on_c, 11, 60, 119
12, 485760, Note_off_c, 11, 60, 64
12, 485760, Note_on_c, 11, 72, 119
12, 485880, Note_off_c, 11, 72, 64
12, 486000, Note_on_c, 11, 72, 123
12, 486120, Note_off_c, 11, 72, 64
12, 486240, Note_on_c, 11, 72, 119
12, 486480, Note_off_c, 11, 72, 64
12, 487200, Note_on_c, 11, 64, 125
12, 487680, Note_off_c, 11, 64, 64
12, 487680, Note_on_c, 11, 76, 125
12, 487800, Note_off_c, 11, 76, 64
12, 487920, Note_on_c, 11, 76, 125
12, 488040, Note_off_c, 11, 76, 64
12, 488160, Note_on_c, 11, 79, 127
12, 488640, Note_off_c, 11, 79, 64
12, 488760, Note_on_c, 11, 77, 119
12, 488820, Note_off_c, 11, 77, 64
12, 488820, Note_on_c, 11, 76, 119
12, 488880, Note_off_c, 11, 76, 64
12, 488880, Note_on_c, 11, 74, 123
12, 488940, Note_off_c, 11, 74, 64
12, 488940, Note_on_c, 11, 72, 119
12, 489000, Note_off_c, 11, 72, 64
12, 489000, Note_on_c, 11, 71, 125
12, 489060, Note_off_c, 11, 71, 64
12, 489060, Note_on_c, 11, 69, 127
12, 489120, Note_off_c, 11, 69, 64
12, 489120, Note_on_c, 11, 67, 123
12, 489360, Note_off_c, 11, 67, 64
12, 489600, Note_on_c, 11, 79, 117
12, 489600, Note_on_c, 11, 71, 107
12, 489600, Note_on_c, 11, 62, 107
12, 489840, Note_off_c, 11, 62, 64
12, 489840, Note_off_c, 11, 71, 64
12, 489840, Note_off_c, 11, 79, 64
12, 490080, Note_on_c, 11, 79, 112
12, 490080, Note_on_c, 11, 72, 105
12, 490080, Note_on_c, 11, 64, 117
12, 490320, Note_off_c, 11, 64, 64
12, 490320, Note_off_c, 11, 72, 64
12, 490320, Note_off_c, 11, 79, 64
12, 490500, Note_on_c, 11, 64, 119
12, 490500, Note_on_c, 11, 60, 119
12, 490560, Note_off_c, 11, 60, 64
12, 490560, Note_off_c, 11, 64, 64
12, 490560, Note_on_c, 11, 64, 125
12, 490560, Note_on_c, 11, 60, 125
12, 490800, Note_off_c, 11, 60, 64
12, 490800, Note_off_c, 11, 64, 64
12, 490980, Note_on_c, 11, 60, 125
12, 491040, Note_off_c, 11, 60, 64
12, 491040, Note_on_c, 11, 60, 127
12, 491280, Note_off_c, 11, 60, 64
12, 491280, End_track
13, 0, Start_track
13, 0, Title_t, "Violas"
13, 0, Program_c, 12, 48
13, 0, Control_c, 12, 7, 100
13, 0, Control_c, 12, 10, 64
13, 0, Control_c, 12, 93, 0
13, 0, Control_c, 12, 91, 66
13, 0, Note_on_c, 12, 52, 80
13, 480, Note_off_c, 12, 52, 64
13, 480, Note_on_c, 12, 64, 59
13, 600, Note_off_c, 12, 64, 64
13, 720, Note_on_c, 12, 64, 71
13, 840, Note_off_c, 12, 64, 64
13, 960, Note_on_c, 12, 64, 63
13, 1080, Note_off_c, 12, 64, 64
13, 1920, Note_on_c, 12, 67, 60
13, 2040, Note_off_c, 12, 67, 64
13, 2160, Note_on_c, 12, 67, 68
13, 2280, Note_off_c, 12, 67, 64
13, 2400, Note_on_c, 12, 67, 72
13, 2520, Note_off_c, 12, 67, 64
13, 2640, Note_on_c, 12, 67, 73
13, 2760, Note_off_c, 12, 67, 64
13, 2880, Note_on_c, 12, 67, 73
13, 3000, Note_off_c, 12, 67, 64
13, 3120, Note_on_c, 12, 67, 76
13, 3240, Note_off_c, 12, 67, 64
13, 3840, Note_on_c, 12, 55, 80
13, 4320, Note_off_c, 12, 55, 64
13, 4320, Note_on_c, 12, 67, 43
13, 4440, Note_off_c, 12, 67, 64
13, 4560, Note_on_c, 12, 67, 58
13, 4680, Note_off_c, 12, 67, 64
13, 4800, Note_on_c, 12, 67, 59
13, 4920, Note_off_c, 12, 67, 64
13, 5760, Note_on_c, 12, 55, 68
13, 5880, Note_off_c, 12, 55, 64
13, 6000, Note_on_c, 12, 55, 80
13, 6120, Note_off_c, 12, 55, 64
13, 6240, Note_on_c, 12, 59, 76
13, 6360, Note_off_c, 12, 59, 64
13, 6480, Note_on_c, 12, 60, 74
13, 6600, Note_off_c, 12, 60, 64
13, 6720, Note_on_c, 12, 62, 62
13, 6840, Note_off_c, 12, 62, 64
13, 6960, Note_on_c, 12, 60, 76
13, 7080, Note_off_c, 12, 60, 64
13, 7680, Note_on_c, 12, 65, 80
13, 8160, Note_off_c, 12, 65, 64
13, 8160, Note_on_c, 12, 65, 80
13, 8400, Note_off_c, 12, 65, 64
13, 8400, Note_on_c, 12, 65, 80
13, 8640, Note_off_c, 12, 65, 64
13, 8640, Note_on_c, 12, 64, 80
13, 9600, Note_off_c, 12, 64, 64
13, 9600, Note_on_c, 12, 59, 80
13, 9840, Note_off_c, 12, 59, 64
13, 9840, Note_on_c, 12, 59, 80
13, 10080, Note_off_c, 12, 59, 64
13, 10080, Note_on_c, 12, 59, 80
13, 10320, Note_off_c, 12, 59, 64
13, 10320, Note_on_c, 12, 59, 80
13, 10560, Note_off_c, 12, 59, 64
13, 10560, Note_on_c, 12, 60, 80
13, 10800, Note_off_c, 12, 60, 64
13, 11520, Note_on_c, 12, 57, 80
13, 12000, Note_off_c, 12, 57, 64
13, 12000, Note_on_c, 12, 57, 73
13, 12120, Note_off_c, 12, 57, 64
13, 12240, Note_on_c, 12, 57, 99
13, 12360, Note_off_c, 12, 57, 64
13, 12480, Note_on_c, 12, 59, 80
13, 12720, Note_off_c, 12, 59, 64
13, 12720, Note_on_c, 12, 55, 80
13, 12960, Note_off_c, 12, 55, 64
13, 12960, Note_on_c, 12, 60, 80
13, 13200, Note_off_c, 12, 60, 64
13, 13200, Note_on_c, 12, 55, 80
13, 13440, Note_off_c, 12, 55, 64
13, 13440, Note_on_c, 12, 57, 80
13, 13680, Note_off_c, 12, 57, 64
13, 13680, Note_on_c, 12, 62, 80
13, 13920, Note_off_c, 12, 62, 64
13, 14160, Note_on_c, 12, 62, 80
13, 14400, Note_off_c, 12, 62, 64
13, 14400, Note_on_c, 12, 60, 80
13, 14400, Note_on_c, 12, 48, 80
13, 14880, Note_off_c, 12, 48, 64
13, 14880, Note_off_c, 12, 60, 64
13, 15900, Note_on_c, 12, 48, 80
13, 15960, Note_off_c, 12, 48, 64
13, 15960, Note_on_c, 12, 50, 80
13, 16020, Note_off_c, 12, 50, 64
13, 16020, Note_on_c, 12, 52, 80
13, 16080, Note_off_c, 12, 52, 64
13, 16080, Note_on_c, 12, 53, 80
13, 16140, Note_off_c, 12, 53, 64
13, 16140, Note_on_c, 12, 55, 80
13, 16200, Note_off_c, 12, 55, 64
13, 16200, Note_on_c, 12, 57, 80
13, 16260, Note_off_c, 12, 57, 64
13, 16260, Note_on_c, 12, 59, 80
13, 16320, Note_off_c, 12, 59, 64
13, 16320, Note_on_c, 12, 60, 99
13, 16440, Note_off_c, 12, 60, 64
13, 16560, Note_on_c, 12, 59, 104
13, 16680, Note_off_c, 12, 59, 64
13, 16800, Note_on_c, 12, 60, 105
13, 16920, Note_off_c, 12, 60, 64
13, 17040, Note_on_c, 12, 55, 99
13, 17160, Note_off_c, 12, 55, 64
13, 17280, Note_on_c, 12, 60, 98
13, 17400, Note_off_c, 12, 60, 64
13, 17520, Note_on_c, 12, 55, 104
13, 17640, Note_off_c, 12, 55, 64
13, 18240, Note_on_c, 12, 67, 80
13, 18240, Note_on_c, 12, 55, 80
13, 18720, Note_off_c, 12, 55, 64
13, 18720, Note_off_c, 12, 67, 64
13, 20160, Note_on_c, 12, 67, 105
13, 20280, Note_off_c, 12, 67, 64
13, 20400, Note_on_c, 12, 64, 115
13, 20520, Note_off_c, 12, 64, 64
13, 20640, Note_on_c, 12, 62, 112
13, 20760, Note_off_c, 12, 62, 64
13, 20880, Note_on_c, 12, 60, 119
13, 21000, Note_off_c, 12, 60, 64
13, 21120, Note_on_c, 12, 55, 117
13, 21240, Note_off_c, 12, 55, 64
13, 21360, Note_on_c, 12, 60, 119
13, 21480, Note_off_c, 12, 60, 64
13, 22620, Note_on_c, 12, 60, 80
13, 22680, Note_off_c, 12, 60, 64
13, 22680, Note_on_c, 12, 62, 80
13, 22740, Note_off_c, 12, 62, 64
13, 22740, Note_on_c, 12, 64, 80
13, 22800, Note_off_c, 12, 64, 64
13, 22800, Note_on_c, 12, 65, 80
13, 22860, Note_off_c, 12, 65, 64
13, 22860, Note_on_c, 12, 67, 80
13, 22920, Note_off_c, 12, 67, 64
13, 22920, Note_on_c, 12, 69, 80
13, 22980, Note_off_c, 12, 69, 64
13, 22980, Note_on_c, 12, 71, 80
13, 23040, Note_off_c, 12, 71, 64
13, 23040, Note_on_c, 12, 72, 115
13, 23160, Note_off_c, 12, 72, 64
13, 23280, Note_on_c, 12, 72, 110
13, 23400, Note_off_c, 12, 72, 64
13, 23520, Note_on_c, 12, 69, 119
13, 23640, Note_off_c, 12, 69, 64
13, 23760, Note_on_c, 12, 65, 125
13, 23880, Note_off_c, 12, 65, 64
13, 24000, Note_on_c, 12, 60, 80
13, 24240, Note_off_c, 12, 60, 64
13, 24540, Note_on_c, 12, 60, 80
13, 24600, Note_off_c, 12, 60, 64
13, 24600, Note_on_c, 12, 62, 80
13, 24660, Note_off_c, 12, 62, 64
13, 24660, Note_on_c, 12, 64, 80
13, 24720, Note_off_c, 12, 64, 64
13, 24720, Note_on_c, 12, 65, 80
13, 24780, Note_off_c, 12, 65, 64
13, 24780, Note_on_c, 12, 67, 80
13, 24840, Note_off_c, 12, 67, 64
13, 24840, Note_on_c, 12, 69, 80
13, 24900, Note_off_c, 12, 69, 64
13, 24900, Note_on_c, 12, 71, 80
13, 24960, Note_off_c, 12, 71, 64
13, 24960, Note_on_c, 12, 72, 117
13, 25080, Note_off_c, 12, 72, 64
13, 25200, Note_on_c, 12, 67, 119
13, 25320, Note_off_c, 12, 67, 64
13, 25440, Note_on_c, 12, 64, 119
13, 25560, Note_off_c, 12, 64, 64
13, 25680, Note_on_c, 12, 60, 125
13, 25800, Note_off_c, 12, 60, 64
13, 25920, Note_on_c, 12, 62, 119
13, 26040, Note_off_c, 12, 62, 64
13, 26160, Note_on_c, 12, 74, 125
13, 26280, Note_off_c, 12, 74, 64
13, 26400, Note_on_c, 12, 53, 119
13, 26520, Note_off_c, 12, 53, 64
13, 26640, Note_on_c, 12, 65, 125
13, 26760, Note_off_c, 12, 65, 64
13, 26880, Note_on_c, 12, 55, 119
13, 27000, Note_off_c, 12, 55, 64
13, 27120, Note_on_c, 12, 67, 115
13, 27240, Note_off_c, 12, 67, 64
13, 27360, Note_on_c, 12, 59, 127
13, 27480, Note_off_c, 12, 59, 64
13, 27600, Note_on_c, 12, 71, 123
13, 27720, Note_off_c, 12, 71, 64
13, 27840, Note_on_c, 12, 60, 80
13, 28080, Note_off_c, 12, 60, 64
13, 28800, Note_on_c, 12, 60, 80
13, 29040, Note_off_c, 12, 60, 64
13, 29340, Note_on_c, 12, 60, 80
13, 29400, Note_off_c, 12, 60, 64
13, 29400, Note_on_c, 12, 62, 80
13, 29460, Note_off_c, 12, 62, 64
13, 29460, Note_on_c, 12, 64, 80
13, 29520, Note_off_c, 12, 64, 64
13, 29520, Note_on_c, 12, 65, 80
13, 29580, Note_off_c, 12, 65, 64
13, 29580, Note_on_c, 12, 67, 80
13, 29640, Note_off_c, 12, 67, 64
13, 29640, Note_on_c, 12, 69, 80
13, 29700, Note_off_c, 12, 69, 64
13, 29700, Note_on_c, 12, 71, 80
13, 29760, Note_off_c, 12, 71, 64
13, 29760, Note_on_c, 12, 72, 80
13, 30240, Note_off_c, 12, 72, 64
13, 30240, Note_on_c, 12, 69, 80
13, 30720, Note_off_c, 12, 69, 64
13, 30720, Note_on_c, 12, 65, 80
13, 30960, Note_off_c, 12, 65, 64
13, 31260, Note_on_c, 12, 60, 80
13, 31320, Note_off_c, 12, 60, 64
13, 31320, Note_on_c, 12, 62, 80
13, 31380, Note_off_c, 12, 62, 64
13, 31380, Note_on_c, 12, 64, 80
13, 31440, Note_off_c, 12, 64, 64
13, 31440, Note_on_c, 12, 65, 80
13, 31500, Note_off_c, 12, 65, 64
13, 31500, Note_on_c, 12, 67, 80
13, 31560, Note_off_c, 12, 67, 64
13, 31560, Note_on_c, 12, 69, 80
13, 31620, Note_off_c, 12, 69, 64
13, 31620, Note_on_c, 12, 71, 80
13, 31680, Note_off_c, 12, 71, 64
13, 31680, Note_on_c, 12, 72, 80
13, 32160, Note_off_c, 12, 72, 64
13, 32160, Note_on_c, 12, 67, 80
13, 32640, Note_off_c, 12, 67, 64
13, 32640, Note_on_c, 12, 64, 80
13, 32880, Note_off_c, 12, 64, 64
13, 32880, Note_on_c, 12, 60, 80
13, 33120, Note_off_c, 12, 60, 64
13, 33360, Note_on_c, 12, 60, 80
13, 33600, Note_off_c, 12, 60, 64
13, 33600, Note_on_c, 12, 66, 53
13, 33600, Note_on_c, 12, 57, 93
13, 33720, Note_off_c, 12, 57, 64
13, 33720, Note_off_c, 12, 66, 64
13, 33720, Note_on_c, 12, 66, 64
13, 33720, Note_on_c, 12, 57, 98
13, 33840, Note_off_c, 12, 57, 64
13, 33840, Note_off_c, 12, 66, 64
13, 33840, Note_on_c, 12, 66, 60
13, 33840, Note_on_c, 12, 57, 95
13, 33960, Note_off_c, 12, 57, 64
13, 33960, Note_off_c, 12, 66, 64
13, 33960, Note_on_c, 12, 66, 68
13, 33960, Note_on_c, 12, 57, 99
13, 34080, Note_off_c, 12, 57, 64
13, 34080, Note_off_c, 12, 66, 64
13, 34080, Note_on_c, 12, 66, 68
13, 34080, Note_on_c, 12, 57, 94
13, 34200, Note_off_c, 12, 57, 64
13, 34200, Note_off_c, 12, 66, 64
13, 34200, Note_on_c, 12, 66, 62
13, 34200, Note_on_c, 12, 57, 98
13, 34320, Note_off_c, 12, 57, 64
13, 34320, Note_off_c, 12, 66, 64
13, 34320, Note_on_c, 12, 66, 65
13, 34320, Note_on_c, 12, 57, 95
13, 34440, Note_off_c, 12, 57, 64
13, 34440, Note_off_c, 12, 66, 64
13, 34440, Note_on_c, 12, 57, 104
13, 34440, Note_on_c, 12, 66, 65
13, 34560, Note_off_c, 12, 66, 64
13, 34560, Note_off_c, 12, 57, 64
13, 34560, Note_on_c, 12, 66, 53
13, 34560, Note_on_c, 12, 57, 94
13, 34680, Note_off_c, 12, 57, 64
13, 34680, Note_off_c, 12, 66, 64
13, 34680, Note_on_c, 12, 66, 53
13, 34680, Note_on_c, 12, 57, 99
13, 34800, Note_off_c, 12, 57, 64
13, 34800, Note_off_c, 12, 66, 64
13, 34800, Note_on_c, 12, 66, 58
13, 34800, Note_on_c, 12, 57, 98
13, 34920, Note_off_c, 12, 57, 64
13, 34920, Note_off_c, 12, 66, 64
13, 34920, Note_on_c, 12, 66, 44
13, 34920, Note_on_c, 12, 57, 98
13, 35040, Note_off_c, 12, 57, 64
13, 35040, Note_off_c, 12, 66, 64
13, 35040, Note_on_c, 12, 66, 53
13, 35040, Note_on_c, 12, 57, 99
13, 35160, Note_off_c, 12, 57, 64
13, 35160, Note_off_c, 12, 66, 64
13, 35160, Note_on_c, 12, 66, 52
13, 35160, Note_on_c, 12, 57, 104
13, 35280, Note_off_c, 12, 57, 64
13, 35280, Note_off_c, 12, 66, 64
13, 35280, Note_on_c, 12, 66, 63
13, 35280, Note_on_c, 12, 57, 99
13, 35400, Note_off_c, 12, 57, 64
13, 35400, Note_off_c, 12, 66, 64
13, 35400, Note_on_c, 12, 57, 104
13, 35400, Note_on_c, 12, 66, 65
13, 35520, Note_off_c, 12, 66, 64
13, 35520, Note_off_c, 12, 57, 64
13, 35520, Note_on_c, 12, 67, 80
13, 35520, Note_on_c, 12, 55, 80
13, 35760, Note_off_c, 12, 55, 64
13, 35760, Note_off_c, 12, 67, 64
13, 36480, Note_on_c, 12, 55, 80
13, 36720, Note_off_c, 12, 55, 64
13, 37440, Note_on_c, 12, 67, 80
13, 37680, Note_off_c, 12, 67, 64
13, 38400, Note_on_c, 12, 67, 80
13, 38640, Note_off_c, 12, 67, 64
13, 39360, Note_on_c, 12, 67, 119
13, 39480, Note_off_c, 12, 67, 64
13, 39480, Note_on_c, 12, 55, 123
13, 39600, Note_off_c, 12, 55, 64
13, 39600, Note_on_c, 12, 57, 125
13, 39720, Note_off_c, 12, 57, 64
13, 39720, Note_on_c, 12, 59, 117
13, 39840, Note_off_c, 12, 59, 64
13, 39840, Note_on_c, 12, 60, 123
13, 39960, Note_off_c, 12, 60, 64
13, 39960, Note_on_c, 12, 62, 117
13, 40080, Note_off_c, 12, 62, 64
13, 40080, Note_on_c, 12, 64, 119
13, 40200, Note_off_c, 12, 64, 64
13, 40200, Note_on_c, 12, 66, 119
13, 40320, Note_off_c, 12, 66, 64
13, 40320, Note_on_c, 12, 67, 123
13, 40440, Note_off_c, 12, 67, 64
13, 40440, Note_on_c, 12, 55, 119
13, 40560, Note_off_c, 12, 55, 64
13, 40560, Note_on_c, 12, 57, 123
13, 40680, Note_off_c, 12, 57, 64
13, 40680, Note_on_c, 12, 59, 119
13, 40800, Note_off_c, 12, 59, 64
13, 40800, Note_on_c, 12, 60, 119
13, 40920, Note_off_c, 12, 60, 64
13, 40920, Note_on_c, 12, 62, 115
13, 41040, Note_off_c, 12, 62, 64
13, 41040, Note_on_c, 12, 64, 119
13, 41160, Note_off_c, 12, 64, 64
13, 41160, Note_on_c, 12, 66, 115
13, 41280, Note_off_c, 12, 66, 64
13, 41280, Note_on_c, 12, 67, 127
13, 41400, Note_off_c, 12, 67, 64
13, 41520, Note_on_c, 12, 60, 119
13, 41640, Note_off_c, 12, 60, 64
13, 41760, Note_on_c, 12, 67, 125
13, 41880, Note_off_c, 12, 67, 64
13, 42000, Note_on_c, 12, 60, 127
13, 42120, Note_off_c, 12, 60, 64
13, 42240, Note_on_c, 12, 67, 125
13, 42360, Note_off_c, 12, 67, 64
13, 42660, Note_on_c, 12, 67, 123
13, 42720, Note_off_c, 12, 67, 64
13, 42720, Note_on_c, 12, 67, 125
13, 42960, Note_off_c, 12, 67, 64
13, 43140, Note_on_c, 12, 55, 127
13, 43200, Note_off_c, 12, 55, 64
13, 43200, Note_on_c, 12, 55, 123
13, 43440, Note_off_c, 12, 55, 64
13, 46080, Note_on_c, 12, 58, 80
13, 47040, Note_off_c, 12, 58, 64
13, 47040, Note_on_c, 12, 50, 80
13, 48000, Note_off_c, 12, 50, 64
13, 48000, Note_on_c, 12, 51, 80
13, 48240, Note_off_c, 12, 51, 64
13, 48240, Note_on_c, 12, 58, 80
13, 48480, Note_off_c, 12, 58, 64
13, 48720, Note_on_c, 12, 55, 80
13, 48840, Note_off_c, 12, 55, 64
13, 48840, Note_on_c, 12, 51, 80
13, 48960, Note_off_c, 12, 51, 64
13, 48960, Note_on_c, 12, 58, 80
13, 49200, Note_off_c, 12, 58, 64
13, 49920, Note_on_c, 12, 58, 80
13, 50160, Note_off_c, 12, 58, 64
13, 50400, Note_on_c, 12, 56, 80
13, 50640, Note_off_c, 12, 56, 64
13, 50880, Note_on_c, 12, 55, 80
13, 51120, Note_off_c, 12, 55, 64
13, 51360, Note_on_c, 12, 53, 80
13, 51600, Note_off_c, 12, 53, 64
13, 51840, Note_on_c, 12, 52, 80
13, 52080, Note_off_c, 12, 52, 64
13, 52320, Note_on_c, 12, 48, 80
13, 52560, Note_off_c, 12, 48, 64
13, 52800, Note_on_c, 12, 53, 80
13, 53760, Note_off_c, 12, 53, 64
13, 53760, Note_on_c, 12, 52, 80
13, 54720, Note_off_c, 12, 52, 64
13, 54720, Note_on_c, 12, 53, 80
13, 54960, Note_off_c, 12, 53, 64
13, 54960, Note_on_c, 12, 60, 80
13, 55200, Note_off_c, 12, 60, 64
13, 55440, Note_on_c, 12, 56, 80
13, 55560, Note_off_c, 12, 56, 64
13, 55560, Note_on_c, 12, 53, 80
13, 55680, Note_off_c, 12, 53, 64
13, 55680, Note_on_c, 12, 60, 80
13, 55920, Note_off_c, 12, 60, 64
13, 56640, Note_on_c, 12, 60, 80
13, 56880, Note_off_c, 12, 60, 64
13, 57120, Note_on_c, 12, 58, 80
13, 57360, Note_off_c, 12, 58, 64
13, 57600, Note_on_c, 12, 57, 80
13, 57840, Note_off_c, 12, 57, 64
13, 58080, Note_on_c, 12, 55, 80
13, 58320, Note_off_c, 12, 55, 64
13, 58560, Note_on_c, 12, 54, 80
13, 58800, Note_off_c, 12, 54, 64
13, 59040, Note_on_c, 12, 50, 80
13, 59280, Note_off_c, 12, 50, 64
13, 59520, Note_on_c, 12, 50, 80
13, 60480, Note_off_c, 12, 50, 64
13, 60480, Note_on_c, 12, 50, 80
13, 61440, Note_off_c, 12, 50, 64
13, 61440, Note_on_c, 12, 62, 80
13, 61920, Note_off_c, 12, 62, 64
13, 61920, Note_on_c, 12, 58, 80
13, 62400, Note_off_c, 12, 58, 64
13, 62400, Note_on_c, 12, 57, 80
13, 62880, Note_off_c, 12, 57, 64
13, 62880, Note_on_c, 12, 54, 80
13, 63360, Note_off_c, 12, 54, 64
13, 63360, Note_on_c, 12, 55, 80
13, 63840, Note_off_c, 12, 55, 64
13, 63840, Note_on_c, 12, 65, 80
13, 64320, Note_off_c, 12, 65, 64
13, 64320, Note_on_c, 12, 63, 80
13, 64800, Note_off_c, 12, 63, 64
13, 64800, Note_on_c, 12, 60, 80
13, 65280, Note_off_c, 12, 60, 64
13, 65280, Note_on_c, 12, 59, 80
13, 65760, Note_off_c, 12, 59, 64
13, 65760, Note_on_c, 12, 55, 80
13, 66240, Note_off_c, 12, 55, 64
13, 66240, Note_on_c, 12, 60, 80
13, 66480, Note_off_c, 12, 60, 64
13, 66720, Note_on_c, 12, 67, 36
13, 66960, Note_off_c, 12, 67, 64
13, 67200, Note_on_c, 12, 63, 42
13, 67440, Note_off_c, 12, 63, 64
13, 67680, Note_on_c, 12, 60, 33
13, 67920, Note_off_c, 12, 60, 64
13, 68160, Note_on_c, 12, 55, 43
13, 68400, Note_off_c, 12, 55, 64
13, 69120, Note_on_c, 12, 64, 40
13, 70080, Note_off_c, 12, 64, 64
13, 70080, Note_on_c, 12, 62, 39
13, 71040, Note_off_c, 12, 62, 64
13, 71040, Note_on_c, 12, 62, 39
13, 72000, Note_off_c, 12, 62, 64
13, 72000, Note_on_c, 12, 60, 125
13, 72240, Note_off_c, 12, 60, 64
13, 72960, Note_on_c, 12, 62, 125
13, 73440, Note_off_c, 12, 62, 64
13, 73440, Note_on_c, 12, 74, 125
13, 73560, Note_off_c, 12, 74, 64
13, 73680, Note_on_c, 12, 74, 119
13, 73800, Note_off_c, 12, 74, 64
13, 73920, Note_on_c, 12, 74, 119
13, 74040, Note_off_c, 12, 74, 64
13, 74040, Note_on_c, 12, 72, 119
13, 74160, Note_off_c, 12, 72, 64
13, 74160, Note_on_c, 12, 70, 123
13, 74220, Note_off_c, 12, 70, 64
13, 74280, Note_on_c, 12, 69, 119
13, 74340, Note_off_c, 12, 69, 64
13, 74400, Note_on_c, 12, 67, 125
13, 74460, Note_off_c, 12, 67, 64
13, 74520, Note_on_c, 12, 65, 125
13, 74580, Note_off_c, 12, 65, 64
13, 74640, Note_on_c, 12, 64, 125
13, 74700, Note_off_c, 12, 64, 64
13, 74760, Note_on_c, 12, 62, 119
13, 74820, Note_off_c, 12, 62, 64
13, 74880, Note_on_c, 12, 60, 125
13, 75000, Note_off_c, 12, 60, 64
13, 75000, Note_on_c, 12, 69, 123
13, 75120, Note_off_c, 12, 69, 64
13, 75120, Note_on_c, 12, 67, 123
13, 75180, Note_off_c, 12, 67, 64
13, 75240, Note_on_c, 12, 65, 127
13, 75300, Note_off_c, 12, 65, 64
13, 75360, Note_on_c, 12, 64, 123
13, 75420, Note_off_c, 12, 64, 64
13, 75480, Note_on_c, 12, 62, 115
13, 75540, Note_off_c, 12, 62, 64
13, 75600, Note_on_c, 12, 60, 123
13, 75660, Note_off_c, 12, 60, 64
13, 75720, Note_on_c, 12, 58, 123
13, 75780, Note_off_c, 12, 58, 64
13, 75840, Note_on_c, 12, 57, 125
13, 75960, Note_off_c, 12, 57, 64
13, 75960, Note_on_c, 12, 58, 119
13, 76080, Note_off_c, 12, 58, 64
13, 76080, Note_on_c, 12, 60, 115
13, 76200, Note_off_c, 12, 60, 64
13, 76200, Note_on_c, 12, 62, 115
13, 76320, Note_off_c, 12, 62, 64
13, 76320, Note_on_c, 12, 64, 119
13, 76440, Note_off_c, 12, 64, 64
13, 76440, Note_on_c, 12, 65, 119
13, 76560, Note_off_c, 12, 65, 64
13, 76560, Note_on_c, 12, 67, 119
13, 76680, Note_off_c, 12, 67, 64
13, 76680, Note_on_c, 12, 69, 119
13, 76800, Note_off_c, 12, 69, 64
13, 76800, Note_on_c, 12, 67, 115
13, 76920, Note_off_c, 12, 67, 64
13, 76920, Note_on_c, 12, 65, 112
13, 77040, Note_off_c, 12, 65, 64
13, 77040, Note_on_c, 12, 64, 115
13, 77160, Note_off_c, 12, 64, 64
13, 77160, Note_on_c, 12, 62, 115
13, 77280, Note_off_c, 12, 62, 64
13, 77280, Note_on_c, 12, 60, 115
13, 77400, Note_off_c, 12, 60, 64
13, 77400, Note_on_c, 12, 58, 119
13, 77520, Note_off_c, 12, 58, 64
13, 77520, Note_on_c, 12, 57, 112
13, 77640, Note_off_c, 12, 57, 64
13, 77640, Note_on_c, 12, 55, 115
13, 77760, Note_off_c, 12, 55, 64
13, 77760, Note_on_c, 12, 53, 119
13, 77880, Note_off_c, 12, 53, 64
13, 77880, Note_on_c, 12, 65, 117
13, 78000, Note_off_c, 12, 65, 64
13, 78000, Note_on_c, 12, 65, 119
13, 78120, Note_off_c, 12, 65, 64
13, 78120, Note_on_c, 12, 65, 119
13, 78240, Note_off_c, 12, 65, 64
13, 78240, Note_on_c, 12, 65, 123
13, 78480, Note_off_c, 12, 65, 64
13, 78720, Note_on_c, 12, 53, 123
13, 78840, Note_off_c, 12, 53, 64
13, 78840, Note_on_c, 12, 65, 119
13, 78960, Note_off_c, 12, 65, 64
13, 78960, Note_on_c, 12, 65, 119
13, 79080, Note_off_c, 12, 65, 64
13, 79080, Note_on_c, 12, 65, 119
13, 79200, Note_off_c, 12, 65, 64
13, 79200, Note_on_c, 12, 65, 125
13, 79440, Note_off_c, 12, 65, 64
13, 79680, Note_on_c, 12, 64, 117
13, 79800, Note_off_c, 12, 64, 64
13, 79800, Note_on_c, 12, 62, 115
13, 79920, Note_off_c, 12, 62, 64
13, 79920, Note_on_c, 12, 64, 107
13, 80040, Note_off_c, 12, 64, 64
13, 80040, Note_on_c, 12, 60, 115
13, 80160, Note_off_c, 12, 60, 64
13, 80160, Note_on_c, 12, 65, 115
13, 80280, Note_off_c, 12, 65, 64
13, 80280, Note_on_c, 12, 64, 117
13, 80400, Note_off_c, 12, 64, 64
13, 80400, Note_on_c, 12, 65, 115
13, 80520, Note_off_c, 12, 65, 64
13, 80520, Note_on_c, 12, 62, 119
13, 80640, Note_off_c, 12, 62, 64
13, 80640, Note_on_c, 12, 67, 107
13, 80760, Note_off_c, 12, 67, 64
13, 80760, Note_on_c, 12, 64, 115
13, 80880, Note_off_c, 12, 64, 64
13, 80880, Note_on_c, 12, 60, 112
13, 81000, Note_off_c, 12, 60, 64
13, 81000, Note_on_c, 12, 64, 115
13, 81120, Note_off_c, 12, 64, 64
13, 81120, Note_on_c, 12, 55, 112
13, 81240, Note_off_c, 12, 55, 64
13, 81240, Note_on_c, 12, 59, 104
13, 81360, Note_off_c, 12, 59, 64
13, 81360, Note_on_c, 12, 62, 123
13, 81480, Note_off_c, 12, 62, 64
13, 81480, Note_on_c, 12, 67, 119
13, 81600, Note_off_c, 12, 67, 64
13, 81600, Note_on_c, 12, 60, 82
13, 81720, Note_off_c, 12, 60, 64
13, 81720, Note_on_c, 12, 55, 73
13, 81840, Note_off_c, 12, 55, 64
13, 81840, Note_on_c, 12, 60, 89
13, 81960, Note_off_c, 12, 60, 64
13, 81960, Note_on_c, 12, 55, 70
13, 82080, Note_off_c, 12, 55, 64
13, 82080, Note_on_c, 12, 60, 84
13, 82200, Note_off_c, 12, 60, 64
13, 82200, Note_on_c, 12, 55, 74
13, 82320, Note_off_c, 12, 55, 64
13, 82320, Note_on_c, 12, 59, 84
13, 82440, Note_off_c, 12, 59, 64
13, 82440, Note_on_c, 12, 55, 73
13, 82560, Note_off_c, 12, 55, 64
13, 82560, Note_on_c, 12, 60, 82
13, 82680, Note_off_c, 12, 60, 64
13, 82680, Note_on_c, 12, 55, 72
13, 82800, Note_off_c, 12, 55, 64
13, 82800, Note_on_c, 12, 60, 85
13, 82920, Note_off_c, 12, 60, 64
13, 82920, Note_on_c, 12, 55, 74
13, 83040, Note_off_c, 12, 55, 64
13, 83040, Note_on_c, 12, 60, 82
13, 83160, Note_off_c, 12, 60, 64
13, 83160, Note_on_c, 12, 55, 63
13, 83280, Note_off_c, 12, 55, 64
13, 83280, Note_on_c, 12, 60, 86
13, 83400, Note_off_c, 12, 60, 64
13, 83400, Note_on_c, 12, 55, 71
13, 83520, Note_off_c, 12, 55, 64
13, 83520, Note_on_c, 12, 60, 86
13, 83640, Note_off_c, 12, 60, 64
13, 83640, Note_on_c, 12, 55, 76
13, 83760, Note_off_c, 12, 55, 64
13, 83760, Note_on_c, 12, 60, 84
13, 83880, Note_off_c, 12, 60, 64
13, 83880, Note_on_c, 12, 55, 73
13, 84000, Note_off_c, 12, 55, 64
13, 84000, Note_on_c, 12, 62, 86
13, 84120, Note_off_c, 12, 62, 64
13, 84120, Note_on_c, 12, 55, 78
13, 84240, Note_off_c, 12, 55, 64
13, 84240, Note_on_c, 12, 60, 86
13, 84360, Note_off_c, 12, 60, 64
13, 84360, Note_on_c, 12, 55, 80
13, 84480, Note_off_c, 12, 55, 64
13, 84480, Note_on_c, 12, 59, 78
13, 84600, Note_off_c, 12, 59, 64
13, 84600, Note_on_c, 12, 55, 74
13, 84720, Note_off_c, 12, 55, 64
13, 84720, Note_on_c, 12, 59, 93
13, 84840, Note_off_c, 12, 59, 64
13, 84840, Note_on_c, 12, 55, 70
13, 84960, Note_off_c, 12, 55, 64
13, 84960, Note_on_c, 12, 62, 72
13, 85080, Note_off_c, 12, 62, 64
13, 85080, Note_on_c, 12, 55, 77
13, 85200, Note_off_c, 12, 55, 64
13, 85200, Note_on_c, 12, 59, 98
13, 85320, Note_off_c, 12, 59, 64
13, 85320, Note_on_c, 12, 55, 76
13, 85440, Note_off_c, 12, 55, 64
13, 85440, Note_on_c, 12, 60, 72
13, 85560, Note_off_c, 12, 60, 64
13, 85560, Note_on_c, 12, 55, 85
13, 85680, Note_off_c, 12, 55, 64
13, 85680, Note_on_c, 12, 52, 73
13, 85800, Note_off_c, 12, 52, 64
13, 85800, Note_on_c, 12, 55, 82
13, 85920, Note_off_c, 12, 55, 64
13, 85920, Note_on_c, 12, 52, 84
13, 86040, Note_off_c, 12, 52, 64
13, 86040, Note_on_c, 12, 55, 84
13, 86160, Note_off_c, 12, 55, 64
13, 86160, Note_on_c, 12, 59, 80
13, 86280, Note_off_c, 12, 59, 64
13, 86280, Note_on_c, 12, 55, 81
13, 86400, Note_off_c, 12, 55, 64
13, 86400, Note_on_c, 12, 60, 63
13, 86520, Note_off_c, 12, 60, 64
13, 86520, Note_on_c, 12, 55, 62
13, 86640, Note_off_c, 12, 55, 64
13, 86640, Note_on_c, 12, 60, 84
13, 86760, Note_off_c, 12, 60, 64
13, 86760, Note_on_c, 12, 55, 73
13, 86880, Note_off_c, 12, 55, 64
13, 86880, Note_on_c, 12, 60, 72
13, 87000, Note_off_c, 12, 60, 64
13, 87000, Note_on_c, 12, 55, 71
13, 87120, Note_off_c, 12, 55, 64
13, 87120, Note_on_c, 12, 60, 84
13, 87240, Note_off_c, 12, 60, 64
13, 87240, Note_on_c, 12, 55, 68
13, 87360, Note_off_c, 12, 55, 64
13, 87360, Note_on_c, 12, 60, 89
13, 87480, Note_off_c, 12, 60, 64
13, 87480, Note_on_c, 12, 55, 68
13, 87600, Note_off_c, 12, 55, 64
13, 87600, Note_on_c, 12, 60, 84
13, 87720, Note_off_c, 12, 60, 64
13, 87720, Note_on_c, 12, 55, 74
13, 87840, Note_off_c, 12, 55, 64
13, 87840, Note_on_c, 12, 59, 84
13, 87960, Note_off_c, 12, 59, 64
13, 87960, Note_on_c, 12, 55, 72
13, 88080, Note_off_c, 12, 55, 64
13, 88080, Note_on_c, 12, 59, 84
13, 88200, Note_off_c, 12, 59, 64
13, 88200, Note_on_c, 12, 55, 74
13, 88320, Note_off_c, 12, 55, 64
13, 88320, Note_on_c, 12, 60, 80
13, 88440, Note_off_c, 12, 60, 64
13, 88440, Note_on_c, 12, 55, 71
13, 88560, Note_off_c, 12, 55, 64
13, 88560, Note_on_c, 12, 60, 76
13, 88680, Note_off_c, 12, 60, 64
13, 88680, Note_on_c, 12, 55, 71
13, 88800, Note_off_c, 12, 55, 64
13, 88800, Note_on_c, 12, 60, 76
13, 88920, Note_off_c, 12, 60, 64
13, 88920, Note_on_c, 12, 55, 65
13, 89040, Note_off_c, 12, 55, 64
13, 89040, Note_on_c, 12, 60, 76
13, 89160, Note_off_c, 12, 60, 64
13, 89160, Note_on_c, 12, 55, 70
13, 89280, Note_off_c, 12, 55, 64
13, 89280, Note_on_c, 12, 60, 84
13, 89400, Note_off_c, 12, 60, 64
13, 89400, Note_on_c, 12, 55, 66
13, 89520, Note_off_c, 12, 55, 64
13, 89520, Note_on_c, 12, 60, 89
13, 89640, Note_off_c, 12, 60, 64
13, 89640, Note_on_c, 12, 55, 71
13, 89760, Note_off_c, 12, 55, 64
13, 89760, Note_on_c, 12, 59, 86
13, 89880, Note_off_c, 12, 59, 64
13, 89880, Note_on_c, 12, 55, 69
13, 90000, Note_off_c, 12, 55, 64
13, 90000, Note_on_c, 12, 59, 84
13, 90120, Note_off_c, 12, 59, 64
13, 90120, Note_on_c, 12, 55, 80
13, 90240, Note_off_c, 12, 55, 64
13, 90240, Note_on_c, 12, 60, 99
13, 90300, Note_off_c, 12, 60, 64
13, 90300, Note_on_c, 12, 60, 99
13, 90360, Note_off_c, 12, 60, 64
13, 90360, Note_on_c, 12, 60, 99
13, 90420, Note_off_c, 12, 60, 64
13, 90420, Note_on_c, 12, 60, 95
13, 90480, Note_off_c, 12, 60, 64
13, 90480, Note_on_c, 12, 60, 84
13, 90540, Note_off_c, 12, 60, 64
13, 90540, Note_on_c, 12, 60, 86
13, 90600, Note_off_c, 12, 60, 64
13, 90600, Note_on_c, 12, 60, 89
13, 90660, Note_off_c, 12, 60, 64
13, 90660, Note_on_c, 12, 60, 89
13, 90720, Note_off_c, 12, 60, 64
13, 90720, Note_on_c, 12, 60, 85
13, 90780, Note_off_c, 12, 60, 64
13, 90780, Note_on_c, 12, 60, 90
13, 90840, Note_off_c, 12, 60, 64
13, 90840, Note_on_c, 12, 60, 85
13, 90900, Note_off_c, 12, 60, 64
13, 90900, Note_on_c, 12, 60, 89
13, 90960, Note_off_c, 12, 60, 64
13, 90960, Note_on_c, 12, 60, 89
13, 91020, Note_off_c, 12, 60, 64
13, 91020, Note_on_c, 12, 60, 86
13, 91080, Note_off_c, 12, 60, 64
13, 91080, Note_on_c, 12, 60, 89
13, 91140, Note_off_c, 12, 60, 64
13, 91140, Note_on_c, 12, 60, 99
13, 91200, Note_off_c, 12, 60, 64
13, 91200, Note_on_c, 12, 60, 86
13, 91260, Note_off_c, 12, 60, 64
13, 91260, Note_on_c, 12, 60, 94
13, 91320, Note_off_c, 12, 60, 64
13, 91320, Note_on_c, 12, 60, 90
13, 91380, Note_off_c, 12, 60, 64
13, 91380, Note_on_c, 12, 60, 89
13, 91440, Note_off_c, 12, 60, 64
13, 91440, Note_on_c, 12, 60, 94
13, 91500, Note_off_c, 12, 60, 64
13, 91500, Note_on_c, 12, 60, 94
13, 91560, Note_off_c, 12, 60, 64
13, 91560, Note_on_c, 12, 60, 99
13, 91620, Note_off_c, 12, 60, 64
13, 91620, Note_on_c, 12, 60, 95
13, 91680, Note_off_c, 12, 60, 64
13, 91680, Note_on_c, 12, 59, 86
13, 91740, Note_off_c, 12, 59, 64
13, 91740, Note_on_c, 12, 59, 89
13, 91800, Note_off_c, 12, 59, 64
13, 91800, Note_on_c, 12, 59, 94
13, 91860, Note_off_c, 12, 59, 64
13, 91860, Note_on_c, 12, 59, 89
13, 91920, Note_off_c, 12, 59, 64
13, 91920, Note_on_c, 12, 59, 93
13, 91980, Note_off_c, 12, 59, 64
13, 91980, Note_on_c, 12, 59, 94
13, 92040, Note_off_c, 12, 59, 64
13, 92040, Note_on_c, 12, 59, 81
13, 92100, Note_off_c, 12, 59, 64
13, 92100, Note_on_c, 12, 59, 84
13, 92160, Note_off_c, 12, 59, 64
13, 92160, Note_on_c, 12, 60, 99
13, 92220, Note_off_c, 12, 60, 64
13, 92220, Note_on_c, 12, 64, 105
13, 92220, Note_on_c, 12, 60, 94
13, 92280, Note_off_c, 12, 60, 64
13, 92280, Note_off_c, 12, 64, 64
13, 92280, Note_on_c, 12, 64, 101
13, 92280, Note_on_c, 12, 60, 85
13, 92340, Note_off_c, 12, 60, 64
13, 92340, Note_off_c, 12, 64, 64
13, 92340, Note_on_c, 12, 64, 104
13, 92340, Note_on_c, 12, 60, 94
13, 92400, Note_off_c, 12, 60, 64
13, 92400, Note_off_c, 12, 64, 64
13, 92400, Note_on_c, 12, 64, 105
13, 92400, Note_on_c, 12, 60, 94
13, 92460, Note_off_c, 12, 60, 64
13, 92460, Note_off_c, 12, 64, 64
13, 92460, Note_on_c, 12, 64, 105
13, 92460, Note_on_c, 12, 60, 93
13, 92520, Note_off_c, 12, 60, 64
13, 92520, Note_off_c, 12, 64, 64
13, 92520, Note_on_c, 12, 64, 99
13, 92520, Note_on_c, 12, 60, 85
13, 92580, Note_off_c, 12, 60, 64
13, 92580, Note_off_c, 12, 64, 64
13, 92580, Note_on_c, 12, 64, 104
13, 92580, Note_on_c, 12, 60, 86
13, 92640, Note_off_c, 12, 60, 64
13, 92640, Note_off_c, 12, 64, 64
13, 92640, Note_on_c, 12, 64, 99
13, 92640, Note_on_c, 12, 60, 86
13, 92700, Note_off_c, 12, 60, 64
13, 92700, Note_off_c, 12, 64, 64
13, 92700, Note_on_c, 12, 64, 104
13, 92700, Note_on_c, 12, 60, 84
13, 92760, Note_off_c, 12, 60, 64
13, 92760, Note_off_c, 12, 64, 64
13, 92760, Note_on_c, 12, 64, 98
13, 92760, Note_on_c, 12, 60, 89
13, 92820, Note_off_c, 12, 60, 64
13, 92820, Note_off_c, 12, 64, 64
13, 92820, Note_on_c, 12, 64, 99
13, 92820, Note_on_c, 12, 60, 89
13, 92880, Note_off_c, 12, 60, 64
13, 92880, Note_off_c, 12, 64, 64
13, 92880, Note_on_c, 12, 64, 101
13, 92880, Note_on_c, 12, 60, 86
13, 92940, Note_off_c, 12, 60, 64
13, 92940, Note_off_c, 12, 64, 64
13, 92940, Note_on_c, 12, 64, 104
13, 92940, Note_on_c, 12, 60, 90
13, 93000, Note_off_c, 12, 60, 64
13, 93000, Note_off_c, 12, 64, 64
13, 93000, Note_on_c, 12, 64, 104
13, 93000, Note_on_c, 12, 60, 94
13, 93060, Note_off_c, 12, 60, 64
13, 93060, Note_off_c, 12, 64, 64
13, 93060, Note_on_c, 12, 60, 99
13, 93060, Note_on_c, 12, 64, 110
13, 93120, Note_off_c, 12, 64, 64
13, 93120, Note_off_c, 12, 60, 64
13, 93120, Note_on_c, 12, 65, 84
13, 93180, Note_off_c, 12, 65, 64
13, 93180, Note_on_c, 12, 65, 104
13, 93240, Note_off_c, 12, 65, 64
13, 93240, Note_on_c, 12, 65, 110
13, 93300, Note_off_c, 12, 65, 64
13, 93300, Note_on_c, 12, 65, 110
13, 93360, Note_off_c, 12, 65, 64
13, 93360, Note_on_c, 12, 62, 95
13, 93420, Note_off_c, 12, 62, 64
13, 93420, Note_on_c, 12, 62, 94
13, 93480, Note_off_c, 12, 62, 64
13, 93480, Note_on_c, 12, 62, 94
13, 93540, Note_off_c, 12, 62, 64
13, 93540, Note_on_c, 12, 62, 99
13, 93600, Note_off_c, 12, 62, 64
13, 93600, Note_on_c, 12, 67, 112
13, 93660, Note_off_c, 12, 67, 64
13, 93660, Note_on_c, 12, 67, 95
13, 93720, Note_off_c, 12, 67, 64
13, 93720, Note_on_c, 12, 67, 99
13, 93780, Note_off_c, 12, 67, 64
13, 93780, Note_on_c, 12, 67, 105
13, 93840, Note_off_c, 12, 67, 64
13, 93840, Note_on_c, 12, 55, 105
13, 93900, Note_off_c, 12, 55, 64
13, 93900, Note_on_c, 12, 55, 99
13, 93960, Note_off_c, 12, 55, 64
13, 93960, Note_on_c, 12, 55, 99
13, 94020, Note_off_c, 12, 55, 64
13, 94020, Note_on_c, 12, 55, 104
13, 94080, Note_off_c, 12, 55, 64
13, 94080, Note_on_c, 12, 60, 80
13, 94320, Note_off_c, 12, 60, 64
13, 95040, Note_on_c, 12, 60, 125
13, 95520, Note_off_c, 12, 60, 64
13, 95520, Note_on_c, 12, 72, 123
13, 95640, Note_off_c, 12, 72, 64
13, 95760, Note_on_c, 12, 72, 119
13, 95880, Note_off_c, 12, 72, 64
13, 96000, Note_on_c, 12, 72, 125
13, 96240, Note_off_c, 12, 72, 64
13, 96960, Note_on_c, 12, 64, 125
13, 97440, Note_off_c, 12, 64, 64
13, 97440, Note_on_c, 12, 76, 125
13, 97560, Note_off_c, 12, 76, 64
13, 97680, Note_on_c, 12, 76, 127
13, 97800, Note_off_c, 12, 76, 64
13, 97920, Note_on_c, 12, 67, 80
13, 98400, Note_off_c, 12, 67, 64
13, 98400, Note_on_c, 12, 67, 80
13, 98520, Note_off_c, 12, 67, 64
13, 98520, Note_on_c, 12, 65, 80
13, 98580, Note_off_c, 12, 65, 64
13, 98580, Note_on_c, 12, 64, 80
13, 98640, Note_off_c, 12, 64, 64
13, 98640, Note_on_c, 12, 62, 80
13, 98700, Note_off_c, 12, 62, 64
13, 98700, Note_on_c, 12, 60, 80
13, 98760, Note_off_c, 12, 60, 64
13, 98760, Note_on_c, 12, 59, 80
13, 98820, Note_off_c, 12, 59, 64
13, 98820, Note_on_c, 12, 57, 80
13, 98880, Note_off_c, 12, 57, 64
13, 98880, Note_on_c, 12, 55, 80
13, 99120, Note_off_c, 12, 55, 64
13, 99360, Note_on_c, 12, 71, 80
13, 99360, Note_on_c, 12, 62, 80
13, 99360, Note_on_c, 12, 55, 80
13, 99600, Note_off_c, 12, 55, 64
13, 99600, Note_off_c, 12, 62, 64
13, 99600, Note_off_c, 12, 71, 64
13, 99840, Note_on_c, 12, 72, 80
13, 99840, Note_on_c, 12, 64, 80
13, 99840, Note_on_c, 12, 55, 80
13, 100080, Note_off_c, 12, 55, 64
13, 100080, Note_off_c, 12, 64, 64
13, 100080, Note_off_c, 12, 72, 64
13, 100260, Note_on_c, 12, 60, 80
13, 100320, Note_off_c, 12, 60, 64
13, 100320, Note_on_c, 12, 60, 80
13, 100560, Note_off_c, 12, 60, 64
13, 100740, Note_on_c, 12, 48, 80
13, 100800, Note_off_c, 12, 48, 64
13, 100800, Note_on_c, 12, 48, 80
13, 101040, Note_off_c, 12, 48, 64
13, 109440, Note_on_c, 12, 55, 80
13, 110400, Note_off_c, 12, 55, 64
13, 110400, Note_on_c, 12, 57, 80
13, 110640, Note_off_c, 12, 57, 64
13, 110640, Note_on_c, 12, 57, 80
13, 110880, Note_off_c, 12, 57, 64
13, 110880, Note_on_c, 12, 57, 80
13, 111120, Note_off_c, 12, 57, 64
13, 111120, Note_on_c, 12, 57, 80
13, 111360, Note_off_c, 12, 57, 64
13, 111600, Note_on_c, 12, 55, 80
13, 111840, Note_off_c, 12, 55, 64
13, 111840, Note_on_c, 12, 55, 80
13, 112080, Note_off_c, 12, 55, 64
13, 112080, Note_on_c, 12, 55, 80
13, 112320, Note_off_c, 12, 55, 64
13, 112320, Note_on_c, 12, 60, 80
13, 112320, Note_on_c, 12, 48, 80
13, 112560, Note_off_c, 12, 48, 64
13, 112560, Note_off_c, 12, 60, 64
13, 113520, Note_on_c, 12, 52, 80
13, 113760, Note_off_c, 12, 52, 64
13, 113760, Note_on_c, 12, 55, 80
13, 114000, Note_off_c, 12, 55, 64
13, 114000, Note_on_c, 12, 60, 80
13, 114240, Note_off_c, 12, 60, 64
13, 114240, Note_on_c, 12, 64, 80
13, 114480, Note_off_c, 12, 64, 64
13, 115440, Note_on_c, 12, 60, 80
13, 115680, Note_off_c, 12, 60, 64
13, 115680, Note_on_c, 12, 64, 80
13, 115920, Note_off_c, 12, 64, 64
13, 115920, Note_on_c, 12, 67, 80
13, 116160, Note_off_c, 12, 67, 64
13, 116160, Note_on_c, 12, 67, 80
13, 116160, Note_on_c, 12, 55, 80
13, 116640, Note_off_c, 12, 55, 64
13, 116640, Note_off_c, 12, 67, 64
13, 117360, Note_on_c, 12, 50, 80
13, 117600, Note_off_c, 12, 50, 64
13, 117600, Note_on_c, 12, 53, 80
13, 117840, Note_off_c, 12, 53, 64
13, 117840, Note_on_c, 12, 59, 80
13, 118080, Note_off_c, 12, 59, 64
13, 118080, Note_on_c, 12, 62, 80
13, 118200, Note_off_c, 12, 62, 64
13, 119280, Note_on_c, 12, 59, 80
13, 119520, Note_off_c, 12, 59, 64
13, 119760, Note_on_c, 12, 62, 80
13, 120000, Note_off_c, 12, 62, 64
13, 120000, Note_on_c, 12, 62, 80
13, 120000, Note_on_c, 12, 59, 80
13, 120240, Note_off_c, 12, 59, 64
13, 120240, Note_off_c, 12, 62, 64
13, 121920, Note_on_c, 12, 60, 80
13, 122160, Note_off_c, 12, 60, 64
13, 122400, Note_on_c, 12, 60, 80
13, 122640, Note_off_c, 12, 60, 64
13, 122880, Note_on_c, 12, 60, 80
13, 123120, Note_off_c, 12, 60, 64
13, 125760, Note_on_c, 12, 59, 80
13, 126000, Note_off_c, 12, 59, 64
13, 126240, Note_on_c, 12, 59, 80
13, 126480, Note_off_c, 12, 59, 64
13, 126720, Note_on_c, 12, 59, 80
13, 126960, Note_off_c, 12, 59, 64
13, 127680, Note_on_c, 12, 60, 80
13, 128640, Note_off_c, 12, 60, 64
13, 128640, Note_on_c, 12, 62, 80
13, 129600, Note_off_c, 12, 62, 64
13, 129600, Note_on_c, 12, 57, 80
13, 130560, Note_off_c, 12, 57, 64
13, 130560, Note_on_c, 12, 59, 80
13, 131520, Note_off_c, 12, 59, 64
13, 131520, Note_on_c, 12, 60, 80
13, 132480, Note_off_c, 12, 60, 64
13, 132480, Note_on_c, 12, 62, 80
13, 133440, Note_off_c, 12, 62, 64
13, 133440, Note_on_c, 12, 62, 80
13, 133680, Note_off_c, 12, 62, 64
13, 133680, Note_on_c, 12, 53, 80
13, 133920, Note_off_c, 12, 53, 64
13, 133920, Note_on_c, 12, 58, 80
13, 134160, Note_off_c, 12, 58, 64
13, 134160, Note_on_c, 12, 53, 80
13, 134400, Note_off_c, 12, 53, 64
13, 134400, Note_on_c, 12, 55, 80
13, 134640, Note_off_c, 12, 55, 64
13, 134640, Note_on_c, 12, 63, 80
13, 134880, Note_off_c, 12, 63, 64
13, 134880, Note_on_c, 12, 65, 80
13, 135120, Note_off_c, 12, 65, 64
13, 135120, Note_on_c, 12, 58, 80
13, 135360, Note_off_c, 12, 58, 64
13, 135360, Note_on_c, 12, 58, 80
13, 135600, Note_off_c, 12, 58, 64
13, 135600, Note_on_c, 12, 63, 80
13, 135840, Note_off_c, 12, 63, 64
13, 135840, Note_on_c, 12, 65, 80
13, 136080, Note_off_c, 12, 65, 64
13, 136080, Note_on_c, 12, 58, 80
13, 136320, Note_off_c, 12, 58, 64
13, 136320, Note_on_c, 12, 58, 80
13, 136560, Note_off_c, 12, 58, 64
13, 136800, Note_on_c, 12, 51, 72
13, 137280, Note_off_c, 12, 51, 64
13, 137280, Note_on_c, 12, 51, 81
13, 138240, Note_off_c, 12, 51, 64
13, 138240, Note_on_c, 12, 50, 81
13, 138480, Note_off_c, 12, 50, 64
13, 144840, Note_on_c, 12, 62, 66
13, 144900, Note_off_c, 12, 62, 64
13, 144960, Note_on_c, 12, 62, 48
13, 145080, Note_off_c, 12, 62, 64
13, 145200, Note_on_c, 12, 62, 62
13, 145320, Note_off_c, 12, 62, 64
13, 145440, Note_on_c, 12, 62, 58
13, 145560, Note_off_c, 12, 62, 64
13, 145680, Note_on_c, 12, 62, 77
13, 145800, Note_off_c, 12, 62, 64
13, 145920, Note_on_c, 12, 62, 58
13, 146040, Note_off_c, 12, 62, 64
13, 146400, Note_on_c, 12, 50, 38
13, 146520, Note_off_c, 12, 50, 64
13, 146880, Note_on_c, 12, 50, 35
13, 147000, Note_off_c, 12, 50, 64
13, 147840, Note_on_c, 12, 50, 80
13, 148800, Note_off_c, 12, 50, 64
13, 148800, Note_on_c, 12, 50, 80
13, 149760, Note_off_c, 12, 50, 64
13, 149760, Note_on_c, 12, 50, 80
13, 150240, Note_off_c, 12, 50, 64
13, 150240, Note_on_c, 12, 62, 80
13, 150720, Note_off_c, 12, 62, 64
13, 151680, Note_on_c, 12, 63, 80
13, 152160, Note_off_c, 12, 63, 64
13, 152160, Note_on_c, 12, 59, 80
13, 152640, Note_off_c, 12, 59, 64
13, 152640, Note_on_c, 12, 64, 80
13, 153120, Note_off_c, 12, 64, 64
13, 153120, Note_on_c, 12, 55, 80
13, 153600, Note_off_c, 12, 55, 64
13, 153600, Note_on_c, 12, 54, 80
13, 153840, Note_off_c, 12, 54, 64
13, 153840, Note_on_c, 12, 50, 80
13, 154080, Note_off_c, 12, 50, 64
13, 154080, Note_on_c, 12, 52, 80
13, 154320, Note_off_c, 12, 52, 64
13, 154320, Note_on_c, 12, 57, 80
13, 154440, Note_off_c, 12, 57, 64
13, 154440, Note_on_c, 12, 55, 80
13, 154560, Note_off_c, 12, 55, 64
13, 154560, Note_on_c, 12, 54, 80
13, 154800, Note_off_c, 12, 54, 64
13, 155520, Note_on_c, 12, 62, 80
13, 156480, Note_off_c, 12, 62, 64
13, 156480, Note_on_c, 12, 62, 80
13, 157440, Note_off_c, 12, 62, 64
13, 157440, Note_on_c, 12, 62, 80
13, 157680, Note_off_c, 12, 62, 64
13, 157680, Note_on_c, 12, 62, 80
13, 157920, Note_off_c, 12, 62, 64
13, 158160, Note_on_c, 12, 62, 80
13, 158400, Note_off_c, 12, 62, 64
13, 158640, Note_on_c, 12, 62, 80
13, 158880, Note_off_c, 12, 62, 64
13, 159360, Note_on_c, 12, 59, 80
13, 159840, Note_off_c, 12, 59, 64
13, 159840, Note_on_c, 12, 59, 80
13, 160320, Note_off_c, 12, 59, 64
13, 160320, Note_on_c, 12, 59, 80
13, 160560, Note_off_c, 12, 59, 64
13, 161040, Note_on_c, 12, 59, 80
13, 161280, Note_off_c, 12, 59, 64
13, 161280, Note_on_c, 12, 57, 80
13, 161520, Note_off_c, 12, 57, 64
13, 161520, Note_on_c, 12, 57, 80
13, 161760, Note_off_c, 12, 57, 64
13, 161760, Note_on_c, 12, 57, 80
13, 162000, Note_off_c, 12, 57, 64
13, 162000, Note_on_c, 12, 57, 80
13, 162240, Note_off_c, 12, 57, 64
13, 162240, Note_on_c, 12, 57, 80
13, 162480, Note_off_c, 12, 57, 64
13, 162960, Note_on_c, 12, 62, 80
13, 163200, Note_off_c, 12, 62, 64
13, 163200, Note_on_c, 12, 62, 80
13, 163440, Note_off_c, 12, 62, 64
13, 163440, Note_on_c, 12, 62, 80
13, 163680, Note_off_c, 12, 62, 64
13, 163680, Note_on_c, 12, 62, 80
13, 163920, Note_off_c, 12, 62, 64
13, 163920, Note_on_c, 12, 62, 80
13, 164160, Note_off_c, 12, 62, 64
13, 164160, Note_on_c, 12, 62, 80
13, 164400, Note_off_c, 12, 62, 64
13, 164400, Note_on_c, 12, 62, 80
13, 164640, Note_off_c, 12, 62, 64
13, 164880, Note_on_c, 12, 64, 80
13, 165120, Note_off_c, 12, 64, 64
13, 165360, Note_on_c, 12, 62, 80
13, 165600, Note_off_c, 12, 62, 64
13, 165840, Note_on_c, 12, 60, 80
13, 166080, Note_off_c, 12, 60, 64
13, 166080, Note_on_c, 12, 59, 80
13, 166320, Note_off_c, 12, 59, 64
13, 167040, Note_on_c, 12, 58, 80
13, 168000, Note_off_c, 12, 58, 64
13, 168000, Note_on_c, 12, 58, 80
13, 168240, Note_off_c, 12, 58, 64
13, 168960, Note_on_c, 12, 55, 80
13, 169920, Note_off_c, 12, 55, 64
13, 169920, Note_on_c, 12, 55, 80
13, 170160, Note_off_c, 12, 55, 64
13, 170880, Note_on_c, 12, 66, 80
13, 171840, Note_off_c, 12, 66, 64
13, 171840, Note_on_c, 12, 67, 80
13, 172080, Note_off_c, 12, 67, 64
13, 172080, Note_on_c, 12, 67, 80
13, 172320, Note_off_c, 12, 67, 64
13, 172560, Note_on_c, 12, 63, 80
13, 172800, Note_off_c, 12, 63, 64
13, 173040, Note_on_c, 12, 62, 80
13, 173280, Note_off_c, 12, 62, 64
13, 173520, Note_on_c, 12, 60, 80
13, 173760, Note_off_c, 12, 60, 64
13, 173760, Note_on_c, 12, 59, 80
13, 174000, Note_off_c, 12, 59, 64
13, 174720, Note_on_c, 12, 59, 80
13, 174960, Note_off_c, 12, 59, 64
13, 175920, Note_on_c, 12, 55, 80
13, 176160, Note_off_c, 12, 55, 64
13, 176160, Note_on_c, 12, 57, 80
13, 176400, Note_off_c, 12, 57, 64
13, 176400, Note_on_c, 12, 55, 80
13, 176640, Note_off_c, 12, 55, 64
13, 176640, Note_on_c, 12, 54, 80
13, 176880, Note_off_c, 12, 54, 64
13, 179760, Note_on_c, 12, 62, 80
13, 180000, Note_off_c, 12, 62, 64
13, 180240, Note_on_c, 12, 62, 80
13, 180480, Note_off_c, 12, 62, 64
13, 180480, Note_on_c, 12, 62, 80
13, 180720, Note_off_c, 12, 62, 64
13, 181680, Note_on_c, 12, 55, 80
13, 181920, Note_off_c, 12, 55, 64
13, 182160, Note_on_c, 12, 54, 80
13, 182400, Note_off_c, 12, 54, 64
13, 182400, Note_on_c, 12, 55, 80
13, 182640, Note_off_c, 12, 55, 64
13, 184320, Note_on_c, 12, 55, 80
13, 184560, Note_off_c, 12, 55, 64
13, 186240, Note_on_c, 12, 55, 80
13, 186480, Note_off_c, 12, 55, 64
13, 193920, Note_on_c, 12, 64, 80
13, 194160, Note_off_c, 12, 64, 64
13, 194160, Note_on_c, 12, 60, 80
13, 194400, Note_off_c, 12, 60, 64
13, 194640, Note_on_c, 12, 64, 80
13, 194880, Note_off_c, 12, 64, 64
13, 195120, Note_on_c, 12, 62, 80
13, 195360, Note_off_c, 12, 62, 64
13, 195600, Note_on_c, 12, 62, 80
13, 195840, Note_off_c, 12, 62, 64
13, 195840, Note_on_c, 12, 62, 80
13, 196080, Note_off_c, 12, 62, 64
13, 197760, Note_on_c, 12, 59, 80
13, 198000, Note_off_c, 12, 59, 64
13, 199680, Note_on_c, 12, 62, 80
13, 199920, Note_off_c, 12, 62, 64
13, 205440, Note_on_c, 12, 67, 80
13, 206400, Note_off_c, 12, 67, 64
13, 206400, Note_on_c, 12, 67, 80
13, 207360, Note_off_c, 12, 67, 64
13, 207360, Note_on_c, 12, 67, 80
13, 208320, Note_off_c, 12, 67, 64
13, 208320, Note_on_c, 12, 67, 80
13, 209280, Note_off_c, 12, 67, 64
13, 209280, Note_on_c, 12, 67, 80
13, 210240, Note_off_c, 12, 67, 64
13, 210240, Note_on_c, 12, 63, 80
13, 210480, Note_off_c, 12, 63, 64
13, 214080, Note_on_c, 12, 51, 80
13, 214560, Note_off_c, 12, 51, 64
13, 214560, Note_on_c, 12, 52, 80
13, 214800, Note_off_c, 12, 52, 64
13, 214800, Note_on_c, 12, 55, 80
13, 215040, Note_off_c, 12, 55, 64
13, 215040, Note_on_c, 12, 55, 80
13, 215280, Note_off_c, 12, 55, 64
13, 224640, Note_on_c, 12, 60, 84
13, 224760, Note_off_c, 12, 60, 64
13, 224760, Note_on_c, 12, 60, 85
13, 224880, Note_off_c, 12, 60, 64
13, 224880, Note_on_c, 12, 60, 85
13, 225000, Note_off_c, 12, 60, 64
13, 225000, Note_on_c, 12, 60, 94
13, 225120, Note_off_c, 12, 60, 64
13, 225120, Note_on_c, 12, 60, 94
13, 225240, Note_off_c, 12, 60, 64
13, 225240, Note_on_c, 12, 60, 94
13, 225360, Note_off_c, 12, 60, 64
13, 225360, Note_on_c, 12, 60, 93
13, 225480, Note_off_c, 12, 60, 64
13, 225480, Note_on_c, 12, 60, 89
13, 225600, Note_off_c, 12, 60, 64
13, 225600, Note_on_c, 12, 62, 80
13, 225720, Note_off_c, 12, 62, 64
13, 225720, Note_on_c, 12, 62, 82
13, 225840, Note_off_c, 12, 62, 64
13, 225840, Note_on_c, 12, 62, 74
13, 225960, Note_off_c, 12, 62, 64
13, 225960, Note_on_c, 12, 62, 82
13, 226080, Note_off_c, 12, 62, 64
13, 226080, Note_on_c, 12, 62, 81
13, 226200, Note_off_c, 12, 62, 64
13, 226200, Note_on_c, 12, 62, 80
13, 226320, Note_off_c, 12, 62, 64
13, 226320, Note_on_c, 12, 62, 81
13, 226440, Note_off_c, 12, 62, 64
13, 226440, Note_on_c, 12, 62, 90
13, 226560, Note_off_c, 12, 62, 64
13, 226560, Note_on_c, 12, 67, 94
13, 227040, Note_off_c, 12, 67, 64
13, 227520, Note_on_c, 12, 61, 80
13, 228480, Note_off_c, 12, 61, 64
13, 228480, Note_on_c, 12, 62, 86
13, 229440, Note_off_c, 12, 62, 64
13, 229440, Note_on_c, 12, 59, 93
13, 230400, Note_off_c, 12, 59, 64
13, 230400, Note_on_c, 12, 60, 94
13, 230640, Note_off_c, 12, 60, 64
13, 231360, Note_on_c, 12, 62, 112
13, 231840, Note_off_c, 12, 62, 64
13, 231840, Note_on_c, 12, 72, 112
13, 232080, Note_off_c, 12, 72, 64
13, 232080, Note_on_c, 12, 72, 110
13, 232320, Note_off_c, 12, 72, 64
13, 232320, Note_on_c, 12, 74, 76
13, 232440, Note_off_c, 12, 74, 64
13, 232440, Note_on_c, 12, 72, 89
13, 232560, Note_off_c, 12, 72, 64
13, 232560, Note_on_c, 12, 71, 84
13, 232620, Note_off_c, 12, 71, 64
13, 232680, Note_on_c, 12, 69, 93
13, 232740, Note_off_c, 12, 69, 64
13, 232800, Note_on_c, 12, 67, 89
13, 232860, Note_off_c, 12, 67, 64
13, 232920, Note_on_c, 12, 65, 86
13, 232980, Note_off_c, 12, 65, 64
13, 233040, Note_on_c, 12, 64, 94
13, 233100, Note_off_c, 12, 64, 64
13, 233160, Note_on_c, 12, 62, 99
13, 233220, Note_off_c, 12, 62, 64
13, 233280, Note_on_c, 12, 64, 93
13, 233760, Note_off_c, 12, 64, 64
13, 233760, Note_on_c, 12, 76, 98
13, 233880, Note_off_c, 12, 76, 64
13, 234000, Note_on_c, 12, 76, 99
13, 234120, Note_off_c, 12, 76, 64
13, 234240, Note_on_c, 12, 76, 94
13, 234360, Note_off_c, 12, 76, 64
13, 234360, Note_on_c, 12, 63, 81
13, 234480, Note_off_c, 12, 63, 64
13, 234480, Note_on_c, 12, 64, 95
13, 234600, Note_off_c, 12, 64, 64
13, 234600, Note_on_c, 12, 59, 89
13, 234720, Note_off_c, 12, 59, 64
13, 234720, Note_on_c, 12, 60, 90
13, 234840, Note_off_c, 12, 60, 64
13, 234840, Note_on_c, 12, 59, 89
13, 234960, Note_off_c, 12, 59, 64
13, 234960, Note_on_c, 12, 60, 86
13, 235080, Note_off_c, 12, 60, 64
13, 235080, Note_on_c, 12, 56, 84
13, 235200, Note_off_c, 12, 56, 64
13, 235200, Note_on_c, 12, 57, 99
13, 235320, Note_off_c, 12, 57, 64
13, 235320, Note_on_c, 12, 59, 93
13, 235440, Note_off_c, 12, 59, 64
13, 235440, Note_on_c, 12, 60, 86
13, 235560, Note_off_c, 12, 60, 64
13, 235560, Note_on_c, 12, 59, 84
13, 235680, Note_off_c, 12, 59, 64
13, 235680, Note_on_c, 12, 57, 94
13, 235800, Note_off_c, 12, 57, 64
13, 235800, Note_on_c, 12, 55, 84
13, 235920, Note_off_c, 12, 55, 64
13, 235920, Note_on_c, 12, 54, 85
13, 236040, Note_off_c, 12, 54, 64
13, 236040, Note_on_c, 12, 52, 94
13, 236160, Note_off_c, 12, 52, 64
13, 236160, Note_on_c, 12, 50, 95
13, 236220, Note_off_c, 12, 50, 64
13, 236220, Note_on_c, 12, 62, 84
13, 236280, Note_off_c, 12, 62, 64
13, 236280, Note_on_c, 12, 62, 84
13, 236340, Note_off_c, 12, 62, 64
13, 236340, Note_on_c, 12, 62, 90
13, 236400, Note_off_c, 12, 62, 64
13, 236400, Note_on_c, 12, 62, 84
13, 236460, Note_off_c, 12, 62, 64
13, 236460, Note_on_c, 12, 62, 86
13, 236520, Note_off_c, 12, 62, 64
13, 236520, Note_on_c, 12, 62, 89
13, 236580, Note_off_c, 12, 62, 64
13, 236580, Note_on_c, 12, 62, 93
13, 236640, Note_off_c, 12, 62, 64
13, 236640, Note_on_c, 12, 67, 81
13, 236700, Note_off_c, 12, 67, 64
13, 236700, Note_on_c, 12, 67, 84
13, 236760, Note_off_c, 12, 67, 64
13, 236760, Note_on_c, 12, 67, 89
13, 236820, Note_off_c, 12, 67, 64
13, 236820, Note_on_c, 12, 67, 82
13, 236880, Note_off_c, 12, 67, 64
13, 236880, Note_on_c, 12, 67, 90
13, 236940, Note_off_c, 12, 67, 64
13, 236940, Note_on_c, 12, 67, 89
13, 237000, Note_off_c, 12, 67, 64
13, 237000, Note_on_c, 12, 67, 90
13, 237060, Note_off_c, 12, 67, 64
13, 237060, Note_on_c, 12, 67, 89
13, 237120, Note_off_c, 12, 67, 64
13, 237120, Note_on_c, 12, 69, 98
13, 237180, Note_off_c, 12, 69, 64
13, 237180, Note_on_c, 12, 69, 90
13, 237240, Note_off_c, 12, 69, 64
13, 237240, Note_on_c, 12, 69, 94
13, 237300, Note_off_c, 12, 69, 64
13, 237300, Note_on_c, 12, 69, 94
13, 237360, Note_off_c, 12, 69, 64
13, 237360, Note_on_c, 12, 69, 95
13, 237420, Note_off_c, 12, 69, 64
13, 237420, Note_on_c, 12, 69, 95
13, 237480, Note_off_c, 12, 69, 64
13, 237480, Note_on_c, 12, 69, 99
13, 237540, Note_off_c, 12, 69, 64
13, 237540, Note_on_c, 12, 69, 99
13, 237600, Note_off_c, 12, 69, 64
13, 237600, Note_on_c, 12, 69, 95
13, 237660, Note_off_c, 12, 69, 64
13, 237660, Note_on_c, 12, 69, 95
13, 237720, Note_off_c, 12, 69, 64
13, 237720, Note_on_c, 12, 69, 94
13, 237780, Note_off_c, 12, 69, 64
13, 237780, Note_on_c, 12, 69, 98
13, 237840, Note_off_c, 12, 69, 64
13, 237840, Note_on_c, 12, 69, 95
13, 237900, Note_off_c, 12, 69, 64
13, 237900, Note_on_c, 12, 69, 95
13, 237960, Note_off_c, 12, 69, 64
13, 237960, Note_on_c, 12, 69, 86
13, 238020, Note_off_c, 12, 69, 64
13, 238020, Note_on_c, 12, 69, 104
13, 238080, Note_off_c, 12, 69, 64
13, 238080, Note_on_c, 12, 67, 80
13, 238320, Note_off_c, 12, 67, 64
13, 239160, Note_on_c, 12, 55, 72
13, 239220, Note_off_c, 12, 55, 64
13, 239280, Note_on_c, 12, 57, 81
13, 239340, Note_off_c, 12, 57, 64
13, 239400, Note_on_c, 12, 59, 72
13, 239460, Note_off_c, 12, 59, 64
13, 239520, Note_on_c, 12, 60, 76
13, 239580, Note_off_c, 12, 60, 64
13, 239640, Note_on_c, 12, 62, 69
13, 239700, Note_off_c, 12, 62, 64
13, 239760, Note_on_c, 12, 64, 80
13, 239820, Note_off_c, 12, 64, 64
13, 239880, Note_on_c, 12, 66, 72
13, 239940, Note_off_c, 12, 66, 64
13, 240000, Note_on_c, 12, 67, 71
13, 240060, Note_off_c, 12, 67, 64
13, 240120, Note_on_c, 12, 55, 80
13, 240180, Note_off_c, 12, 55, 64
13, 240240, Note_on_c, 12, 57, 90
13, 240300, Note_off_c, 12, 57, 64
13, 240360, Note_on_c, 12, 59, 84
13, 240420, Note_off_c, 12, 59, 64
13, 240480, Note_on_c, 12, 60, 71
13, 240540, Note_off_c, 12, 60, 64
13, 240600, Note_on_c, 12, 62, 84
13, 240660, Note_off_c, 12, 62, 64
13, 240720, Note_on_c, 12, 64, 76
13, 240780, Note_off_c, 12, 64, 64
13, 240840, Note_on_c, 12, 66, 80
13, 240900, Note_off_c, 12, 66, 64
13, 240960, Note_on_c, 12, 67, 74
13, 241080, Note_off_c, 12, 67, 64
13, 241200, Note_on_c, 12, 64, 93
13, 241320, Note_off_c, 12, 64, 64
13, 241440, Note_on_c, 12, 60, 84
13, 241560, Note_off_c, 12, 60, 64
13, 241680, Note_on_c, 12, 62, 73
13, 241800, Note_off_c, 12, 62, 64
13, 241920, Note_on_c, 12, 55, 86
13, 242160, Note_off_c, 12, 55, 64
13, 242400, Note_on_c, 12, 62, 90
13, 242640, Note_off_c, 12, 62, 64
13, 242880, Note_on_c, 12, 67, 89
13, 243120, Note_off_c, 12, 67, 64
13, 243360, Note_on_c, 12, 62, 94
13, 243600, Note_off_c, 12, 62, 64
13, 243840, Note_on_c, 12, 55, 89
13, 244080, Note_off_c, 12, 55, 64
13, 244260, Note_on_c, 12, 67, 80
13, 244320, Note_off_c, 12, 67, 64
13, 244320, Note_on_c, 12, 67, 80
13, 244560, Note_off_c, 12, 67, 64
13, 244740, Note_on_c, 12, 55, 80
13, 244800, Note_off_c, 12, 55, 64
13, 244800, Note_on_c, 12, 55, 80
13, 245040, Note_off_c, 12, 55, 64
13, 245760, Note_on_c, 12, 55, 80
13, 246240, Note_off_c, 12, 55, 64
13, 246240, Note_on_c, 12, 67, 72
13, 246360, Note_off_c, 12, 67, 64
13, 246480, Note_on_c, 12, 67, 72
13, 246600, Note_off_c, 12, 67, 64
13, 246720, Note_on_c, 12, 67, 76
13, 246840, Note_off_c, 12, 67, 64
13, 247680, Note_on_c, 12, 56, 80
13, 248160, Note_off_c, 12, 56, 64
13, 248160, Note_on_c, 12, 68, 77
13, 248280, Note_off_c, 12, 68, 64
13, 248400, Note_on_c, 12, 68, 72
13, 248520, Note_off_c, 12, 68, 64
13, 248640, Note_on_c, 12, 68, 58
13, 248760, Note_off_c, 12, 68, 64
13, 249600, Note_on_c, 12, 56, 80
13, 250080, Note_off_c, 12, 56, 64
13, 250080, Note_on_c, 12, 68, 94
13, 250200, Note_off_c, 12, 68, 64
13, 250320, Note_on_c, 12, 68, 95
13, 250440, Note_off_c, 12, 68, 64
13, 250560, Note_on_c, 12, 67, 89
13, 250680, Note_off_c, 12, 67, 64
13, 251520, Note_on_c, 12, 68, 80
13, 251760, Note_off_c, 12, 68, 64
13, 252480, Note_on_c, 12, 70, 80
13, 252720, Note_off_c, 12, 70, 64
13, 253440, Note_on_c, 12, 58, 80
13, 253680, Note_off_c, 12, 58, 64
13, 253920, Note_on_c, 12, 58, 80
13, 254160, Note_off_c, 12, 58, 64
13, 254400, Note_on_c, 12, 51, 80
13, 254640, Note_off_c, 12, 51, 64
13, 254640, Control_c, 12, 7, 100
13, 254640, Control_c, 12, 10, 64
13, 254640, Control_c, 12, 93, 0
13, 254640, Control_c, 12, 91, 66
13, 257280, Note_on_c, 12, 58, 80
13, 258240, Note_off_c, 12, 58, 64
13, 258240, Note_on_c, 12, 58, 80
13, 258480, Note_off_c, 12, 58, 64
13, 261120, Note_on_c, 12, 58, 80
13, 262080, Note_off_c, 12, 58, 64
13, 262080, Note_on_c, 12, 58, 80
13, 262320, Note_off_c, 12, 58, 64
13, 264960, Note_on_c, 12, 58, 80
13, 265920, Note_off_c, 12, 58, 64
13, 265920, Note_on_c, 12, 56, 80
13, 266160, Note_off_c, 12, 56, 64
13, 266160, Control_c, 12, 7, 100
13, 266160, Control_c, 12, 10, 64
13, 266160, Control_c, 12, 93, 0
13, 266160, Control_c, 12, 91, 66
13, 266400, Control_c, 12, 7, 100
13, 266400, Control_c, 12, 10, 64
13, 266400, Control_c, 12, 93, 0
13, 266400, Control_c, 12, 91, 66
13, 266640, Control_c, 12, 7, 100
13, 266640, Control_c, 12, 10, 64
13, 266640, Control_c, 12, 93, 0
13, 266640, Control_c, 12, 91, 66
13, 266880, Control_c, 12, 7, 100
13, 266880, Control_c, 12, 10, 64
13, 266880, Control_c, 12, 93, 0
13, 266880, Control_c, 12, 91, 66
13, 266880, Note_on_c, 12, 53, 80
13, 267120, Note_off_c, 12, 53, 64
13, 267120, Control_c, 12, 7, 100
13, 267120, Control_c, 12, 10, 64
13, 267120, Control_c, 12, 93, 0
13, 267120, Control_c, 12, 91, 66
13, 267360, Control_c, 12, 7, 100
13, 267360, Control_c, 12, 10, 64
13, 267360, Control_c, 12, 93, 0
13, 267360, Control_c, 12, 91, 66
13, 267360, Note_on_c, 12, 53, 80
13, 267600, Note_off_c, 12, 53, 64
13, 267600, Control_c, 12, 7, 100
13, 267600, Control_c, 12, 10, 64
13, 267600, Control_c, 12, 93, 0
13, 267600, Control_c, 12, 91, 66
13, 279360, Note_on_c, 12, 60, 80
13, 280320, Note_off_c, 12, 60, 64
13, 280320, Note_on_c, 12, 68, 80
13, 280320, Control_c, 12, 7, 100
13, 280320, Control_c, 12, 10, 64
13, 280320, Control_c, 12, 93, 0
13, 280320, Control_c, 12, 91, 66
13, 281280, Note_off_c, 12, 68, 64
13, 281280, Note_on_c, 12, 67, 80
13, 282240, Note_off_c, 12, 67, 64
13, 282240, Note_on_c, 12, 67, 80
13, 283200, Note_off_c, 12, 67, 64
13, 283200, Note_on_c, 12, 65, 80
13, 284160, Note_off_c, 12, 65, 64
13, 284160, Note_on_c, 12, 65, 80
13, 285120, Note_off_c, 12, 65, 64
13, 285120, Note_on_c, 12, 65, 80
13, 286080, Note_off_c, 12, 65, 64
13, 286080, Note_on_c, 12, 65, 80
13, 287040, Note_off_c, 12, 65, 64
13, 287040, Note_on_c, 12, 63, 80
13, 288000, Note_off_c, 12, 63, 64
13, 288000, Note_on_c, 12, 62, 80
13, 288960, Note_off_c, 12, 62, 64
13, 288960, Note_on_c, 12, 60, 80
13, 289440, Note_off_c, 12, 60, 64
13, 289440, Note_on_c, 12, 54, 80
13, 289920, Note_off_c, 12, 54, 64
13, 289920, Note_on_c, 12, 53, 80
13, 290400, Note_off_c, 12, 53, 64
13, 290400, Note_on_c, 12, 54, 80
13, 290880, Note_off_c, 12, 54, 64
13, 290880, Note_on_c, 12, 55, 80
13, 291120, Note_off_c, 12, 55, 64
13, 292800, Note_on_c, 12, 55, 80
13, 293040, Note_off_c, 12, 55, 64
13, 293760, Note_on_c, 12, 55, 80
13, 294000, Note_off_c, 12, 55, 64
13, 294720, Note_on_c, 12, 55, 80
13, 294960, Note_off_c, 12, 55, 64
13, 296640, Note_on_c, 12, 55, 80
13, 296880, Note_off_c, 12, 55, 64
13, 297600, Note_on_c, 12, 67, 80
13, 297840, Note_off_c, 12, 67, 64
13, 298560, Note_on_c, 12, 67, 80
13, 298800, Note_off_c, 12, 67, 64
13, 300480, Note_on_c, 12, 62, 80
13, 300480, Note_on_c, 12, 59, 80
13, 301440, Note_off_c, 12, 59, 64
13, 301440, Note_off_c, 12, 62, 64
13, 301440, Note_on_c, 12, 62, 80
13, 301440, Note_on_c, 12, 59, 80
13, 302400, Note_off_c, 12, 59, 64
13, 302400, Note_off_c, 12, 62, 64
13, 302400, Note_on_c, 12, 63, 80
13, 302400, Note_on_c, 12, 60, 80
13, 302640, Note_off_c, 12, 60, 64
13, 302640, Note_off_c, 12, 63, 64
13, 304320, Note_on_c, 12, 63, 80
13, 304320, Note_on_c, 12, 60, 80
13, 305280, Note_off_c, 12, 60, 64
13, 305280, Note_off_c, 12, 63, 64
13, 305280, Note_on_c, 12, 63, 80
13, 305280, Note_on_c, 12, 60, 80
13, 306240, Note_off_c, 12, 60, 64
13, 306240, Note_off_c, 12, 63, 64
13, 306240, Note_on_c, 12, 65, 80
13, 306240, Note_on_c, 12, 62, 80
13, 306480, Note_off_c, 12, 62, 64
13, 306480, Note_off_c, 12, 65, 64
13, 308160, Note_on_c, 12, 59, 80
13, 309120, Note_off_c, 12, 59, 64
13, 309120, Note_on_c, 12, 55, 80
13, 310080, Note_off_c, 12, 55, 64
13, 310080, Note_on_c, 12, 55, 80
13, 310800, Control_c, 12, 7, 100
13, 310800, Control_c, 12, 10, 64
13, 310800, Control_c, 12, 93, 0
13, 310800, Control_c, 12, 91, 66
13, 311040, Note_off_c, 12, 55, 64
13, 311040, Note_on_c, 12, 55, 80
13, 311040, Control_c, 12, 7, 100
13, 311040, Control_c, 12, 10, 64
13, 311040, Control_c, 12, 93, 0
13, 311040, Control_c, 12, 91, 66
13, 311280, Control_c, 12, 7, 100
13, 311280, Control_c, 12, 10, 64
13, 311280, Control_c, 12, 93, 0
13, 311280, Control_c, 12, 91, 66
13, 311520, Control_c, 12, 7, 100
13, 311520, Control_c, 12, 10, 64
13, 311520, Control_c, 12, 93, 0
13, 311520, Control_c, 12, 91, 66
13, 311760, Control_c, 12, 7, 100
13, 311760, Control_c, 12, 10, 64
13, 311760, Control_c, 12, 93, 0
13, 311760, Control_c, 12, 91, 66
13, 312000, Note_off_c, 12, 55, 64
13, 312000, Note_on_c, 12, 54, 80
13, 312000, Control_c, 12, 7, 100
13, 312000, Control_c, 12, 10, 64
13, 312000, Control_c, 12, 93, 0
13, 312000, Control_c, 12, 91, 66
13, 312240, Control_c, 12, 7, 100
13, 312240, Control_c, 12, 10, 64
13, 312240, Control_c, 12, 93, 0
13, 312240, Control_c, 12, 91, 66
13, 312480, Control_c, 12, 7, 100
13, 312480, Control_c, 12, 10, 64
13, 312480, Control_c, 12, 93, 0
13, 312480, Control_c, 12, 91, 66
13, 312720, Control_c, 12, 7, 100
13, 312720, Control_c, 12, 10, 64
13, 312720, Control_c, 12, 93, 0
13, 312720, Control_c, 12, 91, 66
13, 312960, Note_off_c, 12, 54, 64
13, 312960, Note_on_c, 12, 48, 80
13, 313920, Note_off_c, 12, 48, 64
13, 313920, Note_on_c, 12, 50, 80
13, 314160, Note_off_c, 12, 50, 64
13, 315840, Note_on_c, 12, 55, 80
13, 316080, Note_off_c, 12, 55, 64
13, 330240, Note_on_c, 12, 55, 80
13, 330480, Note_off_c, 12, 55, 64
13, 331200, Note_on_c, 12, 48, 80
13, 331200, Note_on_c, 12, 48, 80
13, 331680, Note_off_c, 12, 48, 64
13, 331680, Note_off_c, 12, 48, 64
13, 331680, Note_on_c, 12, 60, 125
13, 331800, Note_off_c, 12, 60, 64
13, 331920, Note_on_c, 12, 60, 125
13, 332040, Note_off_c, 12, 60, 64
13, 332160, Note_on_c, 12, 60, 127
13, 332400, Note_off_c, 12, 60, 64
13, 333120, Note_on_c, 12, 60, 119
13, 333240, Note_off_c, 12, 60, 64
13, 333360, Note_on_c, 12, 59, 127
13, 333480, Note_off_c, 12, 59, 64
13, 333600, Note_on_c, 12, 60, 125
13, 333720, Note_off_c, 12, 60, 64
13, 333840, Note_on_c, 12, 55, 119
13, 333960, Note_off_c, 12, 55, 64
13, 334080, Note_on_c, 12, 60, 125
13, 334200, Note_off_c, 12, 60, 64
13, 334320, Note_on_c, 12, 55, 125
13, 334440, Note_off_c, 12, 55, 64
13, 335040, Note_on_c, 12, 55, 119
13, 335520, Note_off_c, 12, 55, 64
13, 335520, Note_on_c, 12, 67, 123
13, 335520, Note_on_c, 12, 59, 123
13, 335640, Note_off_c, 12, 59, 64
13, 335640, Note_off_c, 12, 67, 64
13, 335760, Note_on_c, 12, 67, 125
13, 335760, Note_on_c, 12, 59, 125
13, 335880, Note_off_c, 12, 59, 64
13, 335880, Note_off_c, 12, 67, 64
13, 336000, Note_on_c, 12, 67, 127
13, 336000, Note_on_c, 12, 59, 127
13, 336240, Note_off_c, 12, 59, 64
13, 336240, Note_off_c, 12, 67, 64
13, 336960, Note_on_c, 12, 67, 125
13, 337080, Note_off_c, 12, 67, 64
13, 337200, Note_on_c, 12, 64, 125
13, 337320, Note_off_c, 12, 64, 64
13, 337440, Note_on_c, 12, 62, 125
13, 337560, Note_off_c, 12, 62, 64
13, 337680, Note_on_c, 12, 60, 127
13, 337800, Note_off_c, 12, 60, 64
13, 337920, Note_on_c, 12, 55, 125
13, 338040, Note_off_c, 12, 55, 64
13, 338160, Note_on_c, 12, 60, 125
13, 338280, Note_off_c, 12, 60, 64
13, 342960, Note_on_c, 12, 57, 71
13, 343200, Note_off_c, 12, 57, 64
13, 343200, Note_on_c, 12, 57, 84
13, 343440, Note_off_c, 12, 57, 64
13, 343440, Note_on_c, 12, 57, 73
13, 343680, Note_off_c, 12, 57, 64
13, 343920, Note_on_c, 12, 57, 76
13, 344160, Note_off_c, 12, 57, 64
13, 344160, Note_on_c, 12, 57, 69
13, 344400, Note_off_c, 12, 57, 64
13, 344400, Note_on_c, 12, 57, 76
13, 344640, Note_off_c, 12, 57, 64
13, 344640, Note_on_c, 12, 60, 63
13, 344880, Note_off_c, 12, 60, 64
13, 351240, Note_on_c, 12, 55, 71
13, 351300, Note_off_c, 12, 55, 64
13, 351360, Note_on_c, 12, 55, 61
13, 351480, Note_off_c, 12, 55, 64
13, 351600, Note_on_c, 12, 55, 54
13, 351720, Note_off_c, 12, 55, 64
13, 351840, Note_on_c, 12, 55, 67
13, 351960, Note_off_c, 12, 55, 64
13, 352080, Note_on_c, 12, 55, 76
13, 352200, Note_off_c, 12, 55, 64
13, 352320, Note_on_c, 12, 55, 43
13, 352440, Note_off_c, 12, 55, 64
13, 352800, Note_on_c, 12, 67, 32
13, 352920, Note_off_c, 12, 67, 64
13, 353280, Note_on_c, 12, 55, 65
13, 353400, Note_off_c, 12, 55, 64
13, 354240, Note_on_c, 12, 52, 53
13, 354360, Note_off_c, 12, 52, 64
13, 354360, Note_on_c, 12, 55, 52
13, 354480, Note_off_c, 12, 55, 64
13, 354480, Note_on_c, 12, 52, 74
13, 354600, Note_off_c, 12, 52, 64
13, 354600, Note_on_c, 12, 55, 60
13, 354720, Note_off_c, 12, 55, 64
13, 354720, Note_on_c, 12, 52, 67
13, 354840, Note_off_c, 12, 52, 64
13, 354840, Note_on_c, 12, 55, 61
13, 354960, Note_off_c, 12, 55, 64
13, 354960, Note_on_c, 12, 52, 66
13, 355080, Note_off_c, 12, 52, 64
13, 355080, Note_on_c, 12, 55, 44
13, 355200, Note_off_c, 12, 55, 64
13, 355200, Note_on_c, 12, 53, 60
13, 355320, Note_off_c, 12, 53, 64
13, 355320, Note_on_c, 12, 55, 56
13, 355440, Note_off_c, 12, 55, 64
13, 355440, Note_on_c, 12, 53, 65
13, 355560, Note_off_c, 12, 53, 64
13, 355560, Note_on_c, 12, 55, 64
13, 355680, Note_off_c, 12, 55, 64
13, 355680, Note_on_c, 12, 53, 64
13, 355800, Note_off_c, 12, 53, 64
13, 355800, Note_on_c, 12, 55, 62
13, 355920, Note_off_c, 12, 55, 64
13, 355920, Note_on_c, 12, 53, 59
13, 356040, Note_off_c, 12, 53, 64
13, 356040, Note_on_c, 12, 55, 53
13, 356160, Note_off_c, 12, 55, 64
13, 356160, Note_on_c, 12, 55, 63
13, 356220, Note_off_c, 12, 55, 64
13, 356280, Note_on_c, 12, 55, 68
13, 356400, Note_off_c, 12, 55, 64
13, 356400, Note_on_c, 12, 54, 53
13, 356520, Note_off_c, 12, 54, 64
13, 356520, Note_on_c, 12, 55, 68
13, 356640, Note_off_c, 12, 55, 64
13, 356640, Note_on_c, 12, 52, 73
13, 356760, Note_off_c, 12, 52, 64
13, 356760, Note_on_c, 12, 55, 69
13, 356880, Note_off_c, 12, 55, 64
13, 356880, Note_on_c, 12, 52, 73
13, 357000, Note_off_c, 12, 52, 64
13, 357000, Note_on_c, 12, 48, 45
13, 357120, Note_off_c, 12, 48, 64
13, 357120, Note_on_c, 12, 55, 67
13, 357360, Note_off_c, 12, 55, 64
13, 358080, Note_on_c, 12, 56, 40
13, 358560, Note_off_c, 12, 56, 64
13, 358560, Note_on_c, 12, 52, 72
13, 359040, Note_off_c, 12, 52, 64
13, 359040, Note_on_c, 12, 57, 72
13, 359520, Note_off_c, 12, 57, 64
13, 359520, Note_on_c, 12, 60, 55
13, 360000, Note_off_c, 12, 60, 64
13, 360000, Note_on_c, 12, 62, 64
13, 360720, Note_off_c, 12, 62, 64
13, 360720, Note_on_c, 12, 66, 64
13, 360960, Note_off_c, 12, 66, 64
13, 360960, Note_on_c, 12, 67, 70
13, 361200, Note_off_c, 12, 67, 64
13, 361920, Note_on_c, 12, 55, 43
13, 362880, Note_off_c, 12, 55, 64
13, 362880, Note_on_c, 12, 55, 59
13, 363840, Note_off_c, 12, 55, 64
13, 363840, Note_on_c, 12, 55, 46
13, 364080, Note_off_c, 12, 55, 64
13, 364080, Note_on_c, 12, 55, 56
13, 364320, Note_off_c, 12, 55, 64
13, 365040, Note_on_c, 12, 55, 43
13, 365280, Note_off_c, 12, 55, 64
13, 365760, Note_on_c, 12, 59, 52
13, 366000, Note_off_c, 12, 59, 64
13, 366240, Note_on_c, 12, 56, 61
13, 366480, Note_off_c, 12, 56, 64
13, 366720, Note_on_c, 12, 57, 56
13, 366960, Note_off_c, 12, 57, 64
13, 367440, Note_on_c, 12, 64, 50
13, 367680, Note_off_c, 12, 64, 64
13, 367680, Note_on_c, 12, 62, 53
13, 367800, Note_off_c, 12, 62, 64
13, 367920, Note_on_c, 12, 62, 61
13, 368040, Note_off_c, 12, 62, 64
13, 368160, Note_on_c, 12, 62, 58
13, 368280, Note_off_c, 12, 62, 64
13, 368400, Note_on_c, 12, 62, 58
13, 368520, Note_off_c, 12, 62, 64
13, 368640, Note_on_c, 12, 62, 45
13, 368880, Note_off_c, 12, 62, 64
13, 369360, Note_on_c, 12, 55, 46
13, 369600, Note_off_c, 12, 55, 64
13, 369600, Note_on_c, 12, 55, 49
13, 369720, Note_off_c, 12, 55, 64
13, 369840, Note_on_c, 12, 55, 61
13, 369960, Note_off_c, 12, 55, 64
13, 370080, Note_on_c, 12, 55, 59
13, 370200, Note_off_c, 12, 55, 64
13, 370320, Note_on_c, 12, 55, 62
13, 370440, Note_off_c, 12, 55, 64
13, 370560, Note_on_c, 12, 55, 72
13, 370800, Note_off_c, 12, 55, 64
13, 370800, Note_on_c, 12, 64, 66
13, 371040, Note_off_c, 12, 64, 64
13, 371040, Note_on_c, 12, 62, 64
13, 371280, Note_off_c, 12, 62, 64
13, 371280, Note_on_c, 12, 57, 69
13, 371520, Note_off_c, 12, 57, 64
13, 371520, Note_on_c, 12, 55, 57
13, 371640, Note_off_c, 12, 55, 64
13, 371760, Note_on_c, 12, 67, 64
13, 371880, Note_off_c, 12, 67, 64
13, 372240, Note_on_c, 12, 67, 64
13, 372480, Note_off_c, 12, 67, 64
13, 372480, Note_on_c, 12, 67, 61
13, 372720, Note_off_c, 12, 67, 64
13, 373440, Note_on_c, 12, 63, 69
13, 374400, Note_off_c, 12, 63, 64
13, 374400, Note_on_c, 12, 63, 73
13, 374640, Note_off_c, 12, 63, 64
13, 375360, Note_on_c, 12, 60, 68
13, 376320, Note_off_c, 12, 60, 64
13, 376320, Note_on_c, 12, 60, 65
13, 376560, Note_off_c, 12, 60, 64
13, 377280, Note_on_c, 12, 59, 119
13, 377520, Note_off_c, 12, 59, 64
13, 377520, Note_on_c, 12, 59, 80
13, 378240, Note_off_c, 12, 59, 64
13, 378240, Note_on_c, 12, 60, 74
13, 378480, Note_off_c, 12, 60, 64
13, 378480, Note_on_c, 12, 60, 76
13, 378720, Note_off_c, 12, 60, 64
13, 378960, Note_on_c, 12, 56, 72
13, 379200, Note_off_c, 12, 56, 64
13, 379440, Note_on_c, 12, 55, 65
13, 379680, Note_off_c, 12, 55, 64
13, 379920, Note_on_c, 12, 55, 57
13, 380160, Note_off_c, 12, 55, 64
13, 380160, Note_on_c, 12, 60, 64
13, 380400, Note_off_c, 12, 60, 64
13, 381120, Note_on_c, 12, 60, 63
13, 381360, Note_off_c, 12, 60, 64
13, 382080, Note_on_c, 12, 60, 68
13, 382320, Note_off_c, 12, 60, 64
13, 382320, Note_on_c, 12, 60, 73
13, 382560, Note_off_c, 12, 60, 64
13, 382560, Note_on_c, 12, 59, 76
13, 382800, Note_off_c, 12, 59, 64
13, 382800, Note_on_c, 12, 60, 77
13, 383040, Note_off_c, 12, 60, 64
13, 383040, Note_on_c, 12, 55, 61
13, 383280, Note_off_c, 12, 55, 64
13, 386160, Note_on_c, 12, 55, 80
13, 386400, Note_off_c, 12, 55, 64
13, 386640, Note_on_c, 12, 55, 89
13, 386880, Note_off_c, 12, 55, 64
13, 386880, Note_on_c, 12, 55, 90
13, 387120, Note_off_c, 12, 55, 64
13, 388080, Note_on_c, 12, 55, 86
13, 388320, Note_off_c, 12, 55, 64
13, 388560, Note_on_c, 12, 55, 94
13, 388800, Note_off_c, 12, 55, 64
13, 388800, Note_on_c, 12, 55, 89
13, 389040, Note_off_c, 12, 55, 64
13, 390720, Note_on_c, 12, 60, 94
13, 390960, Note_off_c, 12, 60, 64
13, 392640, Note_on_c, 12, 60, 90
13, 392880, Note_off_c, 12, 60, 64
13, 400320, Note_on_c, 12, 67, 80
13, 400560, Note_off_c, 12, 67, 64
13, 400560, Note_on_c, 12, 60, 84
13, 400800, Note_off_c, 12, 60, 64
13, 401040, Note_on_c, 12, 62, 81
13, 401280, Note_off_c, 12, 62, 64
13, 401520, Note_on_c, 12, 64, 89
13, 401760, Note_off_c, 12, 64, 64
13, 402000, Note_on_c, 12, 65, 85
13, 402240, Note_off_c, 12, 65, 64
13, 402240, Note_on_c, 12, 64, 90
13, 402480, Note_off_c, 12, 64, 64
13, 404160, Note_on_c, 12, 64, 89
13, 404400, Note_off_c, 12, 64, 64
13, 406080, Note_on_c, 12, 67, 94
13, 406320, Note_off_c, 12, 67, 64
13, 411840, Note_on_c, 12, 60, 40
13, 412800, Note_off_c, 12, 60, 64
13, 412800, Note_on_c, 12, 60, 43
13, 413760, Note_off_c, 12, 60, 64
13, 413760, Note_on_c, 12, 60, 39
13, 414720, Note_off_c, 12, 60, 64
13, 414720, Note_on_c, 12, 60, 29
13, 415680, Note_off_c, 12, 60, 64
13, 415680, Note_on_c, 12, 60, 43
13, 416640, Note_off_c, 12, 60, 64
13, 416640, Note_on_c, 12, 56, 57
13, 416880, Note_off_c, 12, 56, 64
13, 420480, Note_on_c, 12, 56, 50
13, 420960, Note_off_c, 12, 56, 64
13, 420960, Note_on_c, 12, 57, 101
13, 421200, Note_off_c, 12, 57, 64
13, 421200, Note_on_c, 12, 60, 40
13, 421440, Note_off_c, 12, 60, 64
13, 421440, Note_on_c, 12, 60, 85
13, 421680, Note_off_c, 12, 60, 64
13, 430080, Control_c, 12, 7, 100
13, 430080, Control_c, 12, 10, 64
13, 430080, Control_c, 12, 93, 0
13, 430080, Control_c, 12, 91, 66
13, 431040, Control_c, 12, 7, 100
13, 431040, Control_c, 12, 10, 64
13, 431040, Control_c, 12, 93, 0
13, 431040, Control_c, 12, 91, 66
13, 431040, Note_on_c, 12, 71, 76
13, 431160, Note_off_c, 12, 71, 64
13, 431160, Note_on_c, 12, 71, 73
13, 431280, Note_off_c, 12, 71, 64
13, 431280, Note_on_c, 12, 71, 84
13, 431400, Note_off_c, 12, 71, 64
13, 431400, Note_on_c, 12, 71, 90
13, 431520, Note_off_c, 12, 71, 64
13, 431520, Note_on_c, 12, 71, 84
13, 431640, Note_off_c, 12, 71, 64
13, 431640, Note_on_c, 12, 71, 84
13, 431760, Note_off_c, 12, 71, 64
13, 431760, Note_on_c, 12, 71, 89
13, 431880, Note_off_c, 12, 71, 64
13, 431880, Note_on_c, 12, 71, 86
13, 432000, Note_off_c, 12, 71, 64
13, 432000, Note_on_c, 12, 67, 119
13, 432120, Note_off_c, 12, 67, 64
13, 432120, Note_on_c, 12, 67, 89
13, 432240, Note_off_c, 12, 67, 64
13, 432240, Note_on_c, 12, 67, 86
13, 432360, Note_off_c, 12, 67, 64
13, 432360, Note_on_c, 12, 67, 86
13, 432480, Note_off_c, 12, 67, 64
13, 432480, Note_on_c, 12, 67, 125
13, 432600, Note_off_c, 12, 67, 64
13, 432600, Note_on_c, 12, 67, 104
13, 432720, Note_off_c, 12, 67, 64
13, 432720, Note_on_c, 12, 67, 89
13, 432840, Note_off_c, 12, 67, 64
13, 432840, Note_on_c, 12, 67, 80
13, 432960, Note_off_c, 12, 67, 64
13, 432960, Note_on_c, 12, 64, 112
13, 433440, Note_off_c, 12, 64, 64
13, 433440, Note_on_c, 12, 72, 107
13, 433560, Note_off_c, 12, 72, 64
13, 433680, Note_on_c, 12, 72, 101
13, 433800, Note_off_c, 12, 72, 64
13, 433920, Note_on_c, 12, 70, 80
13, 434040, Note_off_c, 12, 70, 64
13, 434040, Note_on_c, 12, 69, 99
13, 434160, Note_off_c, 12, 69, 64
13, 434160, Note_on_c, 12, 67, 84
13, 434220, Note_off_c, 12, 67, 64
13, 434280, Note_on_c, 12, 65, 99
13, 434340, Note_off_c, 12, 65, 64
13, 434400, Note_on_c, 12, 64, 99
13, 434460, Note_off_c, 12, 64, 64
13, 434520, Note_on_c, 12, 62, 94
13, 434580, Note_off_c, 12, 62, 64
13, 434640, Note_on_c, 12, 60, 94
13, 434700, Note_off_c, 12, 60, 64
13, 434760, Note_on_c, 12, 58, 98
13, 434820, Note_off_c, 12, 58, 64
13, 434880, Note_on_c, 12, 57, 112
13, 435360, Note_off_c, 12, 57, 64
13, 435360, Note_on_c, 12, 69, 104
13, 435480, Note_off_c, 12, 69, 64
13, 435600, Note_on_c, 12, 69, 99
13, 435720, Note_off_c, 12, 69, 64
13, 435840, Note_on_c, 12, 67, 95
13, 435960, Note_off_c, 12, 67, 64
13, 435960, Note_on_c, 12, 65, 104
13, 436080, Note_off_c, 12, 65, 64
13, 436080, Note_on_c, 12, 64, 99
13, 436140, Note_off_c, 12, 64, 64
13, 436200, Note_on_c, 12, 62, 99
13, 436260, Note_off_c, 12, 62, 64
13, 436320, Note_on_c, 12, 60, 99
13, 436380, Note_off_c, 12, 60, 64
13, 436440, Note_on_c, 12, 58, 94
13, 436500, Note_off_c, 12, 58, 64
13, 436560, Note_on_c, 12, 57, 110
13, 436620, Note_off_c, 12, 57, 64
13, 436680, Note_on_c, 12, 55, 95
13, 436740, Note_off_c, 12, 55, 64
13, 436800, Note_on_c, 12, 53, 95
13, 436860, Note_off_c, 12, 53, 64
13, 436860, Note_on_c, 12, 65, 104
13, 436920, Note_off_c, 12, 65, 64
13, 436920, Note_on_c, 12, 65, 105
13, 436980, Note_off_c, 12, 65, 64
13, 436980, Note_on_c, 12, 65, 105
13, 437040, Note_off_c, 12, 65, 64
13, 437040, Note_on_c, 12, 65, 105
13, 437280, Note_off_c, 12, 65, 64
13, 437760, Note_on_c, 12, 53, 89
13, 437880, Note_off_c, 12, 53, 64
13, 437880, Note_on_c, 12, 65, 89
13, 438000, Note_off_c, 12, 65, 64
13, 438000, Note_on_c, 12, 65, 89
13, 438120, Note_off_c, 12, 65, 64
13, 438120, Note_on_c, 12, 65, 93
13, 438240, Note_off_c, 12, 65, 64
13, 438240, Note_on_c, 12, 65, 86
13, 438480, Note_off_c, 12, 65, 64
13, 438720, Note_on_c, 12, 64, 127
13, 439440, Note_off_c, 12, 64, 64
13, 439620, Note_on_c, 12, 60, 119
13, 439680, Note_off_c, 12, 60, 64
13, 439680, Note_on_c, 12, 64, 98
13, 440040, Note_off_c, 12, 64, 64
13, 440100, Note_on_c, 12, 64, 95
13, 440160, Note_off_c, 12, 64, 64
13, 440160, Note_on_c, 12, 60, 94
13, 440520, Note_off_c, 12, 60, 64
13, 440580, Note_on_c, 12, 60, 99
13, 440640, Note_off_c, 12, 60, 64
13, 440640, Note_on_c, 12, 57, 125
13, 441360, Note_off_c, 12, 57, 64
13, 441540, Note_on_c, 12, 69, 99
13, 441600, Note_off_c, 12, 69, 64
13, 441600, Note_on_c, 12, 72, 95
13, 441960, Note_off_c, 12, 72, 64
13, 442020, Note_on_c, 12, 72, 99
13, 442080, Note_off_c, 12, 72, 64
13, 442080, Note_on_c, 12, 69, 99
13, 442440, Note_off_c, 12, 69, 64
13, 442500, Note_on_c, 12, 69, 104
13, 442560, Note_off_c, 12, 69, 64
13, 442560, Note_on_c, 12, 66, 123
13, 442920, Note_off_c, 12, 66, 64
13, 442980, Note_on_c, 12, 54, 125
13, 443040, Note_off_c, 12, 54, 64
13, 443040, Note_on_c, 12, 57, 119
13, 443400, Note_off_c, 12, 57, 64
13, 443460, Note_on_c, 12, 60, 119
13, 443520, Note_off_c, 12, 60, 64
13, 443520, Note_on_c, 12, 63, 117
13, 443880, Note_off_c, 12, 63, 64
13, 443940, Note_on_c, 12, 60, 119
13, 444000, Note_off_c, 12, 60, 64
13, 444000, Note_on_c, 12, 57, 127
13, 444360, Note_off_c, 12, 57, 64
13, 444420, Note_on_c, 12, 54, 119
13, 444480, Note_off_c, 12, 54, 64
13, 444480, Note_on_c, 12, 55, 119
13, 445440, Control_c, 12, 7, 100
13, 445440, Control_c, 12, 10, 64
13, 445440, Control_c, 12, 93, 0
13, 445440, Control_c, 12, 91, 66
13, 445920, Note_off_c, 12, 55, 64
13, 479520, Note_on_c, 12, 60, 105
13, 479640, Note_off_c, 12, 60, 64
13, 479640, Note_on_c, 12, 55, 77
13, 479760, Note_off_c, 12, 55, 64
13, 479760, Note_on_c, 12, 60, 76
13, 479880, Note_off_c, 12, 60, 64
13, 479880, Note_on_c, 12, 55, 68
13, 480000, Note_off_c, 12, 55, 64
13, 480000, Note_on_c, 12, 60, 85
13, 480120, Note_off_c, 12, 60, 64
13, 480120, Note_on_c, 12, 55, 71
13, 480240, Note_off_c, 12, 55, 64
13, 480240, Note_on_c, 12, 59, 81
13, 480360, Note_off_c, 12, 59, 64
13, 480360, Note_on_c, 12, 55, 65
13, 480480, Note_off_c, 12, 55, 64
13, 480480, Note_on_c, 12, 60, 76
13, 480600, Note_off_c, 12, 60, 64
13, 480600, Note_on_c, 12, 55, 67
13, 480720, Note_off_c, 12, 55, 64
13, 480720, Note_on_c, 12, 60, 68
13, 480840, Note_off_c, 12, 60, 64
13, 480840, Note_on_c, 12, 55, 64
13, 480960, Note_off_c, 12, 55, 64
13, 480960, Note_on_c, 12, 60, 73
13, 481080, Note_off_c, 12, 60, 64
13, 481080, Note_on_c, 12, 55, 67
13, 481200, Note_off_c, 12, 55, 64
13, 481200, Note_on_c, 12, 60, 77
13, 481320, Note_off_c, 12, 60, 64
13, 481320, Note_on_c, 12, 55, 71
13, 481440, Note_off_c, 12, 55, 64
13, 481440, Note_on_c, 12, 60, 78
13, 481560, Note_off_c, 12, 60, 64
13, 481560, Note_on_c, 12, 55, 66
13, 481680, Note_off_c, 12, 55, 64
13, 481680, Note_on_c, 12, 60, 84
13, 481800, Note_off_c, 12, 60, 64
13, 481800, Note_on_c, 12, 55, 72
13, 481920, Note_off_c, 12, 55, 64
13, 481920, Note_on_c, 12, 59, 80
13, 482040, Note_off_c, 12, 59, 64
13, 482040, Note_on_c, 12, 55, 69
13, 482160, Note_off_c, 12, 55, 64
13, 482160, Note_on_c, 12, 59, 89
13, 482280, Note_off_c, 12, 59, 64
13, 482280, Note_on_c, 12, 55, 68
13, 482400, Note_off_c, 12, 55, 64
13, 482400, Note_on_c, 12, 60, 85
13, 482520, Note_off_c, 12, 60, 64
13, 482520, Note_on_c, 12, 55, 74
13, 482640, Note_off_c, 12, 55, 64
13, 482640, Note_on_c, 12, 60, 73
13, 482760, Note_off_c, 12, 60, 64
13, 482760, Note_on_c, 12, 55, 72
13, 482880, Note_off_c, 12, 55, 64
13, 482880, Note_on_c, 12, 60, 81
13, 483000, Note_off_c, 12, 60, 64
13, 483000, Note_on_c, 12, 55, 72
13, 483120, Note_off_c, 12, 55, 64
13, 483120, Note_on_c, 12, 60, 78
13, 483240, Note_off_c, 12, 60, 64
13, 483240, Note_on_c, 12, 55, 68
13, 483360, Note_off_c, 12, 55, 64
13, 483360, Note_on_c, 12, 60, 84
13, 483480, Note_off_c, 12, 60, 64
13, 483480, Note_on_c, 12, 55, 72
13, 483600, Note_off_c, 12, 55, 64
13, 483600, Note_on_c, 12, 60, 85
13, 483720, Note_off_c, 12, 60, 64
13, 483720, Note_on_c, 12, 55, 72
13, 483840, Note_off_c, 12, 55, 64
13, 483840, Note_on_c, 12, 59, 76
13, 483960, Note_off_c, 12, 59, 64
13, 483960, Note_on_c, 12, 55, 70
13, 484080, Note_off_c, 12, 55, 64
13, 484080, Note_on_c, 12, 59, 81
13, 484200, Note_off_c, 12, 59, 64
13, 484200, Note_on_c, 12, 55, 66
13, 484320, Note_off_c, 12, 55, 64
13, 484320, Note_on_c, 12, 60, 119
13, 484560, Note_off_c, 12, 60, 64
13, 485280, Note_on_c, 12, 48, 119
13, 485760, Note_off_c, 12, 48, 64
13, 485760, Note_on_c, 12, 60, 119
13, 485880, Note_off_c, 12, 60, 64
13, 486000, Note_on_c, 12, 60, 123
13, 486120, Note_off_c, 12, 60, 64
13, 486240, Note_on_c, 12, 60, 119
13, 486480, Note_off_c, 12, 60, 64
13, 487200, Note_on_c, 12, 52, 125
13, 487680, Note_off_c, 12, 52, 64
13, 487680, Note_on_c, 12, 64, 125
13, 487800, Note_off_c, 12, 64, 64
13, 487920, Note_on_c, 12, 64, 125
13, 488040, Note_off_c, 12, 64, 64
13, 488160, Note_on_c, 12, 67, 127
13, 488640, Note_off_c, 12, 67, 64
13, 488760, Note_on_c, 12, 65, 119
13, 488820, Note_off_c, 12, 65, 64
13, 488820, Note_on_c, 12, 64, 119
13, 488880, Note_off_c, 12, 64, 64
13, 488880, Note_on_c, 12, 62, 123
13, 488940, Note_off_c, 12, 62, 64
13, 488940, Note_on_c, 12, 60, 119
13, 489000, Note_off_c, 12, 60, 64
13, 489000, Note_on_c, 12, 59, 125
13, 489060, Note_off_c, 12, 59, 64
13, 489060, Note_on_c, 12, 57, 127
13, 489120, Note_off_c, 12, 57, 64
13, 489120, Note_on_c, 12, 55, 119
13, 489360, Note_off_c, 12, 55, 64
13, 489600, Note_on_c, 12, 71, 119
13, 489600, Note_on_c, 12, 62, 101
13, 489600, Note_on_c, 12, 55, 110
13, 489840, Note_off_c, 12, 55, 64
13, 489840, Note_off_c, 12, 62, 64
13, 489840, Note_off_c, 12, 71, 64
13, 490080, Note_on_c, 12, 72, 112
13, 490080, Note_on_c, 12, 64, 94
13, 490080, Note_on_c, 12, 55, 104
13, 490320, Note_off_c, 12, 55, 64
13, 490320, Note_off_c, 12, 64, 64
13, 490320, Note_off_c, 12, 72, 64
13, 490500, Note_on_c, 12, 60, 119
13, 490560, Note_off_c, 12, 60, 64
13, 490560, Note_on_c, 12, 60, 127
13, 490800, Note_off_c, 12, 60, 64
13, 490980, Note_on_c, 12, 48, 125
13, 491040, Note_off_c, 12, 48, 64
13, 491040, Note_on_c, 12, 48, 127
13, 491280, Note_off_c, 12, 48, 64
13, 491280, End_track
14, 0, Start_track
14, 0, Title_t, "Cellos"
14, 0, Program_c, 13, 48
14, 0, Control_c, 13, 7, 100
14, 0, Control_c, 13, 10, 98
14, 0, Control_c, 13, 93, 0
14, 0, Control_c, 13, 91, 66
14, 0, Note_on_c, 13, 48, 80
14, 480, Note_off_c, 13, 48, 64
14, 480, Note_on_c, 13, 48, 62
14, 600, Note_off_c, 13, 48, 64
14, 720, Note_on_c, 13, 48, 67
14, 840, Note_off_c, 13, 48, 64
14, 960, Note_on_c, 13, 48, 80
14, 1080, Note_off_c, 13, 48, 64
14, 1920, Note_on_c, 13, 60, 73
14, 2040, Note_off_c, 13, 60, 64
14, 2160, Note_on_c, 13, 59, 74
14, 2280, Note_off_c, 13, 59, 64
14, 2400, Note_on_c, 13, 60, 78
14, 2520, Note_off_c, 13, 60, 64
14, 2640, Note_on_c, 13, 55, 81
14, 2760, Note_off_c, 13, 55, 64
14, 2880, Note_on_c, 13, 48, 84
14, 3000, Note_off_c, 13, 48, 64
14, 3120, Note_on_c, 13, 55, 84
14, 3240, Note_off_c, 13, 55, 64
14, 3840, Note_on_c, 13, 43, 80
14, 4320, Note_off_c, 13, 43, 64
14, 4320, Note_on_c, 13, 55, 46
14, 4440, Note_off_c, 13, 55, 64
14, 4560, Note_on_c, 13, 55, 62
14, 4680, Note_off_c, 13, 55, 64
14, 4800, Note_on_c, 13, 55, 73
14, 4920, Note_off_c, 13, 55, 64
14, 5760, Note_on_c, 13, 55, 71
14, 5880, Note_off_c, 13, 55, 64
14, 6000, Note_on_c, 13, 64, 73
14, 6120, Note_off_c, 13, 64, 64
14, 6240, Note_on_c, 13, 62, 67
14, 6360, Note_off_c, 13, 62, 64
14, 6480, Note_on_c, 13, 60, 74
14, 6600, Note_off_c, 13, 60, 64
14, 6720, Note_on_c, 13, 55, 76
14, 6840, Note_off_c, 13, 55, 64
14, 6960, Note_on_c, 13, 60, 69
14, 7080, Note_off_c, 13, 60, 64
14, 7680, Note_on_c, 13, 65, 80
14, 8160, Note_off_c, 13, 65, 64
14, 8160, Note_on_c, 13, 65, 80
14, 8400, Note_off_c, 13, 65, 64
14, 8400, Note_on_c, 13, 65, 80
14, 8640, Note_off_c, 13, 65, 64
14, 8640, Note_on_c, 13, 64, 80
14, 9600, Note_off_c, 13, 64, 64
14, 9600, Note_on_c, 13, 59, 80
14, 9840, Note_off_c, 13, 59, 64
14, 9840, Note_on_c, 13, 59, 80
14, 10080, Note_off_c, 13, 59, 64
14, 10080, Note_on_c, 13, 59, 80
14, 10320, Note_off_c, 13, 59, 64
14, 10320, Note_on_c, 13, 59, 80
14, 10560, Note_off_c, 13, 59, 64
14, 10560, Note_on_c, 13, 60, 80
14, 10800, Note_off_c, 13, 60, 64
14, 11520, Note_on_c, 13, 53, 80
14, 12000, Note_off_c, 13, 53, 64
14, 12000, Note_on_c, 13, 53, 67
14, 12120, Note_off_c, 13, 53, 64
14, 12240, Note_on_c, 13, 53, 89
14, 12360, Note_off_c, 13, 53, 64
14, 12480, Note_on_c, 13, 53, 80
14, 12960, Note_off_c, 13, 53, 64
14, 12960, Note_on_c, 13, 52, 80
14, 13440, Note_off_c, 13, 52, 64
14, 13440, Note_on_c, 13, 53, 80
14, 13920, Note_off_c, 13, 53, 64
14, 13920, Note_on_c, 13, 55, 80
14, 14400, Note_off_c, 13, 55, 64
14, 14400, Note_on_c, 13, 48, 73
14, 14880, Note_off_c, 13, 48, 64
14, 16320, Note_on_c, 13, 60, 99
14, 16440, Note_off_c, 13, 60, 64
14, 16560, Note_on_c, 13, 59, 104
14, 16680, Note_off_c, 13, 59, 64
14, 16800, Note_on_c, 13, 60, 99
14, 16920, Note_off_c, 13, 60, 64
14, 17040, Note_on_c, 13, 55, 104
14, 17160, Note_off_c, 13, 55, 64
14, 17280, Note_on_c, 13, 60, 99
14, 17400, Note_off_c, 13, 60, 64
14, 17520, Note_on_c, 13, 55, 104
14, 17640, Note_off_c, 13, 55, 64
14, 18240, Note_on_c, 13, 43, 80
14, 18720, Note_off_c, 13, 43, 64
14, 20160, Note_on_c, 13, 55, 115
14, 20280, Note_off_c, 13, 55, 64
14, 20400, Note_on_c, 13, 52, 119
14, 20520, Note_off_c, 13, 52, 64
14, 20640, Note_on_c, 13, 50, 123
14, 20760, Note_off_c, 13, 50, 64
14, 20880, Note_on_c, 13, 48, 119
14, 21000, Note_off_c, 13, 48, 64
14, 21120, Note_on_c, 13, 43, 119
14, 21240, Note_off_c, 13, 43, 64
14, 21360, Note_on_c, 13, 48, 125
14, 21480, Note_off_c, 13, 48, 64
14, 22620, Note_on_c, 13, 48, 80
14, 22680, Note_off_c, 13, 48, 64
14, 22680, Note_on_c, 13, 50, 80
14, 22740, Note_off_c, 13, 50, 64
14, 22740, Note_on_c, 13, 52, 80
14, 22800, Note_off_c, 13, 52, 64
14, 22800, Note_on_c, 13, 53, 80
14, 22860, Note_off_c, 13, 53, 64
14, 22860, Note_on_c, 13, 55, 80
14, 22920, Note_off_c, 13, 55, 64
14, 22920, Note_on_c, 13, 57, 80
14, 22980, Note_off_c, 13, 57, 64
14, 22980, Note_on_c, 13, 59, 80
14, 23040, Note_off_c, 13, 59, 64
14, 23040, Note_on_c, 13, 60, 115
14, 23160, Note_off_c, 13, 60, 64
14, 23280, Note_on_c, 13, 60, 119
14, 23400, Note_off_c, 13, 60, 64
14, 23520, Note_on_c, 13, 57, 119
14, 23640, Note_off_c, 13, 57, 64
14, 23760, Note_on_c, 13, 53, 117
14, 23880, Note_off_c, 13, 53, 64
14, 24000, Note_on_c, 13, 48, 80
14, 24240, Note_off_c, 13, 48, 64
14, 24540, Note_on_c, 13, 48, 80
14, 24600, Note_off_c, 13, 48, 64
14, 24600, Note_on_c, 13, 50, 80
14, 24660, Note_off_c, 13, 50, 64
14, 24660, Note_on_c, 13, 52, 80
14, 24720, Note_off_c, 13, 52, 64
14, 24720, Note_on_c, 13, 53, 80
14, 24780, Note_off_c, 13, 53, 64
14, 24780, Note_on_c, 13, 55, 80
14, 24840, Note_off_c, 13, 55, 64
14, 24840, Note_on_c, 13, 57, 80
14, 24900, Note_off_c, 13, 57, 64
14, 24900, Note_on_c, 13, 59, 80
14, 24960, Note_off_c, 13, 59, 64
14, 24960, Note_on_c, 13, 60, 117
14, 25080, Note_off_c, 13, 60, 64
14, 25200, Note_on_c, 13, 55, 117
14, 25320, Note_off_c, 13, 55, 64
14, 25440, Note_on_c, 13, 52, 123
14, 25560, Note_off_c, 13, 52, 64
14, 25680, Note_on_c, 13, 48, 127
14, 25800, Note_off_c, 13, 48, 64
14, 25920, Note_on_c, 13, 50, 125
14, 26040, Note_off_c, 13, 50, 64
14, 26160, Note_on_c, 13, 62, 119
14, 26280, Note_off_c, 13, 62, 64
14, 26400, Note_on_c, 13, 41, 119
14, 26520, Note_off_c, 13, 41, 64
14, 26640, Note_on_c, 13, 53, 123
14, 26760, Note_off_c, 13, 53, 64
14, 26880, Note_on_c, 13, 43, 125
14, 27000, Note_off_c, 13, 43, 64
14, 27120, Note_on_c, 13, 55, 119
14, 27240, Note_off_c, 13, 55, 64
14, 27360, Note_on_c, 13, 47, 125
14, 27480, Note_off_c, 13, 47, 64
14, 27600, Note_on_c, 13, 59, 119
14, 27720, Note_off_c, 13, 59, 64
14, 27840, Note_on_c, 13, 48, 80
14, 28080, Note_off_c, 13, 48, 64
14, 28800, Note_on_c, 13, 48, 80
14, 29040, Note_off_c, 13, 48, 64
14, 29340, Note_on_c, 13, 48, 80
14, 29400, Note_off_c, 13, 48, 64
14, 29400, Note_on_c, 13, 50, 80
14, 29460, Note_off_c, 13, 50, 64
14, 29460, Note_on_c, 13, 52, 80
14, 29520, Note_off_c, 13, 52, 64
14, 29520, Note_on_c, 13, 53, 80
14, 29580, Note_off_c, 13, 53, 64
14, 29580, Note_on_c, 13, 55, 80
14, 29640, Note_off_c, 13, 55, 64
14, 29640, Note_on_c, 13, 57, 80
14, 29700, Note_off_c, 13, 57, 64
14, 29700, Note_on_c, 13, 59, 80
14, 29760, Note_off_c, 13, 59, 64
14, 29760, Note_on_c, 13, 60, 80
14, 30240, Note_off_c, 13, 60, 64
14, 30240, Note_on_c, 13, 57, 80
14, 30720, Note_off_c, 13, 57, 64
14, 30720, Note_on_c, 13, 53, 80
14, 30960, Note_off_c, 13, 53, 64
14, 31260, Note_on_c, 13, 48, 80
14, 31320, Note_off_c, 13, 48, 64
14, 31320, Note_on_c, 13, 50, 80
14, 31380, Note_off_c, 13, 50, 64
14, 31380, Note_on_c, 13, 52, 80
14, 31440, Note_off_c, 13, 52, 64
14, 31440, Note_on_c, 13, 53, 80
14, 31500, Note_off_c, 13, 53, 64
14, 31500, Note_on_c, 13, 55, 80
14, 31560, Note_off_c, 13, 55, 64
14, 31560, Note_on_c, 13, 57, 80
14, 31620, Note_off_c, 13, 57, 64
14, 31620, Note_on_c, 13, 59, 80
14, 31680, Note_off_c, 13, 59, 64
14, 31680, Note_on_c, 13, 60, 80
14, 32160, Note_off_c, 13, 60, 64
14, 32160, Note_on_c, 13, 55, 80
14, 32640, Note_off_c, 13, 55, 64
14, 32640, Note_on_c, 13, 52, 80
14, 32880, Note_off_c, 13, 52, 64
14, 32880, Note_on_c, 13, 48, 80
14, 33120, Note_off_c, 13, 48, 64
14, 33360, Note_on_c, 13, 48, 80
14, 33600, Note_off_c, 13, 48, 64
14, 33600, Note_on_c, 13, 45, 80
14, 33720, Note_off_c, 13, 45, 64
14, 33720, Note_on_c, 13, 57, 80
14, 33840, Note_off_c, 13, 57, 64
14, 33840, Note_on_c, 13, 57, 80
14, 33960, Note_off_c, 13, 57, 64
14, 33960, Note_on_c, 13, 57, 80
14, 34080, Note_off_c, 13, 57, 64
14, 34080, Note_on_c, 13, 57, 80
14, 34200, Note_off_c, 13, 57, 64
14, 34200, Note_on_c, 13, 57, 80
14, 34320, Note_off_c, 13, 57, 64
14, 34320, Note_on_c, 13, 57, 80
14, 34440, Note_off_c, 13, 57, 64
14, 34440, Note_on_c, 13, 57, 80
14, 34560, Note_off_c, 13, 57, 64
14, 34560, Note_on_c, 13, 57, 80
14, 34680, Note_off_c, 13, 57, 64
14, 34680, Note_on_c, 13, 57, 80
14, 34800, Note_off_c, 13, 57, 64
14, 34800, Note_on_c, 13, 57, 80
14, 34920, Note_off_c, 13, 57, 64
14, 34920, Note_on_c, 13, 57, 80
14, 35040, Note_off_c, 13, 57, 64
14, 35040, Note_on_c, 13, 57, 80
14, 35160, Note_off_c, 13, 57, 64
14, 35160, Note_on_c, 13, 57, 80
14, 35280, Note_off_c, 13, 57, 64
14, 35280, Note_on_c, 13, 57, 80
14, 35400, Note_off_c, 13, 57, 64
14, 35400, Note_on_c, 13, 57, 80
14, 35520, Note_off_c, 13, 57, 64
14, 35520, Note_on_c, 13, 55, 80
14, 35760, Note_off_c, 13, 55, 64
14, 36480, Note_on_c, 13, 55, 80
14, 36720, Note_off_c, 13, 55, 64
14, 37440, Note_on_c, 13, 55, 80
14, 37680, Note_off_c, 13, 55, 64
14, 38400, Note_on_c, 13, 55, 80
14, 38640, Note_off_c, 13, 55, 64
14, 39360, Note_on_c, 13, 55, 119
14, 39480, Note_off_c, 13, 55, 64
14, 39480, Note_on_c, 13, 43, 123
14, 39600, Note_off_c, 13, 43, 64
14, 39600, Note_on_c, 13, 45, 125
14, 39720, Note_off_c, 13, 45, 64
14, 39720, Note_on_c, 13, 47, 117
14, 39840, Note_off_c, 13, 47, 64
14, 39840, Note_on_c, 13, 48, 123
14, 39960, Note_off_c, 13, 48, 64
14, 39960, Note_on_c, 13, 50, 117
14, 40080, Note_off_c, 13, 50, 64
14, 40080, Note_on_c, 13, 52, 119
14, 40200, Note_off_c, 13, 52, 64
14, 40200, Note_on_c, 13, 54, 119
14, 40320, Note_off_c, 13, 54, 64
14, 40320, Note_on_c, 13, 55, 123
14, 40440, Note_off_c, 13, 55, 64
14, 40440, Note_on_c, 13, 43, 119
14, 40560, Note_off_c, 13, 43, 64
14, 40560, Note_on_c, 13, 45, 123
14, 40680, Note_off_c, 13, 45, 64
14, 40680, Note_on_c, 13, 47, 119
14, 40800, Note_off_c, 13, 47, 64
14, 40800, Note_on_c, 13, 48, 119
14, 40920, Note_off_c, 13, 48, 64
14, 40920, Note_on_c, 13, 50, 115
14, 41040, Note_off_c, 13, 50, 64
14, 41040, Note_on_c, 13, 52, 119
14, 41160, Note_off_c, 13, 52, 64
14, 41160, Note_on_c, 13, 54, 115
14, 41280, Note_off_c, 13, 54, 64
14, 41280, Note_on_c, 13, 55, 127
14, 41400, Note_off_c, 13, 55, 64
14, 41520, Note_on_c, 13, 48, 127
14, 41640, Note_off_c, 13, 48, 64
14, 41760, Note_on_c, 13, 55, 125
14, 41880, Note_off_c, 13, 55, 64
14, 42000, Note_on_c, 13, 48, 127
14, 42120, Note_off_c, 13, 48, 64
14, 42240, Note_on_c, 13, 55, 125
14, 42360, Note_off_c, 13, 55, 64
14, 42660, Note_on_c, 13, 55, 123
14, 42720, Note_off_c, 13, 55, 64
14, 42720, Note_on_c, 13, 55, 125
14, 42960, Note_off_c, 13, 55, 64
14, 43140, Note_on_c, 13, 43, 127
14, 43200, Note_off_c, 13, 43, 64
14, 43200, Note_on_c, 13, 43, 123
14, 43440, Note_off_c, 13, 43, 64
14, 46080, Note_on_c, 13, 51, 80
14, 47040, Note_off_c, 13, 51, 64
14, 47040, Note_on_c, 13, 53, 80
14, 48000, Note_off_c, 13, 53, 64
14, 48000, Note_on_c, 13, 55, 80
14, 48480, Note_off_c, 13, 55, 64
14, 48480, Note_on_c, 13, 51, 80
14, 48960, Note_off_c, 13, 51, 64
14, 48960, Note_on_c, 13, 46, 80
14, 49200, Note_off_c, 13, 46, 64
14, 49920, Note_on_c, 13, 58, 80
14, 50160, Note_off_c, 13, 58, 64
14, 50400, Note_on_c, 13, 56, 80
14, 50640, Note_off_c, 13, 56, 64
14, 50880, Note_on_c, 13, 55, 80
14, 51120, Note_off_c, 13, 55, 64
14, 51360, Note_on_c, 13, 53, 80
14, 51600, Note_off_c, 13, 53, 64
14, 51840, Note_on_c, 13, 52, 80
14, 52080, Note_off_c, 13, 52, 64
14, 52320, Note_on_c, 13, 48, 80
14, 52560, Note_off_c, 13, 48, 64
14, 52800, Note_on_c, 13, 53, 80
14, 53760, Note_off_c, 13, 53, 64
14, 53760, Note_on_c, 13, 55, 80
14, 54720, Note_off_c, 13, 55, 64
14, 54720, Note_on_c, 13, 56, 80
14, 55200, Note_off_c, 13, 56, 64
14, 55200, Note_on_c, 13, 53, 80
14, 55680, Note_off_c, 13, 53, 64
14, 55680, Note_on_c, 13, 48, 80
14, 55920, Note_off_c, 13, 48, 64
14, 56640, Note_on_c, 13, 60, 80
14, 56880, Note_off_c, 13, 60, 64
14, 57120, Note_on_c, 13, 58, 80
14, 57360, Note_off_c, 13, 58, 64
14, 57600, Note_on_c, 13, 57, 80
14, 57840, Note_off_c, 13, 57, 64
14, 58080, Note_on_c, 13, 55, 80
14, 58320, Note_off_c, 13, 55, 64
14, 58560, Note_on_c, 13, 54, 80
14, 58800, Note_off_c, 13, 54, 64
14, 59040, Note_on_c, 13, 50, 80
14, 59280, Note_off_c, 13, 50, 64
14, 59520, Note_on_c, 13, 55, 80
14, 60480, Note_off_c, 13, 55, 64
14, 60480, Note_on_c, 13, 55, 80
14, 61440, Note_off_c, 13, 55, 64
14, 61440, Note_on_c, 13, 58, 80
14, 61920, Note_off_c, 13, 58, 64
14, 61920, Note_on_c, 13, 55, 80
14, 62400, Note_off_c, 13, 55, 64
14, 62400, Note_on_c, 13, 54, 80
14, 62880, Note_off_c, 13, 54, 64
14, 62880, Note_on_c, 13, 50, 80
14, 63360, Note_off_c, 13, 50, 64
14, 63360, Note_on_c, 13, 55, 80
14, 63840, Note_off_c, 13, 55, 64
14, 63840, Note_on_c, 13, 53, 80
14, 64320, Note_off_c, 13, 53, 64
14, 64320, Note_on_c, 13, 51, 80
14, 64800, Note_off_c, 13, 51, 64
14, 64800, Note_on_c, 13, 48, 80
14, 65280, Note_off_c, 13, 48, 64
14, 65280, Note_on_c, 13, 47, 80
14, 65760, Note_off_c, 13, 47, 64
14, 65760, Note_on_c, 13, 43, 80
14, 66240, Note_off_c, 13, 43, 64
14, 66240, Note_on_c, 13, 48, 80
14, 66480, Note_off_c, 13, 48, 64
14, 66720, Note_on_c, 13, 55, 40
14, 66960, Note_off_c, 13, 55, 64
14, 67200, Note_on_c, 13, 51, 31
14, 67440, Note_off_c, 13, 51, 64
14, 67680, Note_on_c, 13, 48, 41
14, 67920, Note_off_c, 13, 48, 64
14, 68160, Note_on_c, 13, 43, 40
14, 68400, Note_off_c, 13, 43, 64
14, 69120, Note_on_c, 13, 49, 29
14, 70080, Note_off_c, 13, 49, 64
14, 70080, Note_on_c, 13, 50, 45
14, 71040, Note_off_c, 13, 50, 64
14, 71040, Note_on_c, 13, 47, 29
14, 72000, Note_off_c, 13, 47, 64
14, 72000, Note_on_c, 13, 48, 119
14, 72480, Note_off_c, 13, 48, 64
14, 72480, Note_on_c, 13, 60, 123
14, 72600, Note_off_c, 13, 60, 64
14, 72720, Note_on_c, 13, 60, 125
14, 72840, Note_off_c, 13, 60, 64
14, 72960, Note_on_c, 13, 60, 119
14, 73080, Note_off_c, 13, 60, 64
14, 73080, Note_on_c, 13, 58, 125
14, 73200, Note_off_c, 13, 58, 64
14, 73200, Note_on_c, 13, 57, 119
14, 73260, Note_off_c, 13, 57, 64
14, 73320, Note_on_c, 13, 55, 119
14, 73380, Note_off_c, 13, 55, 64
14, 73440, Note_on_c, 13, 54, 123
14, 73500, Note_off_c, 13, 54, 64
14, 73560, Note_on_c, 13, 52, 127
14, 73620, Note_off_c, 13, 52, 64
14, 73680, Note_on_c, 13, 50, 127
14, 73740, Note_off_c, 13, 50, 64
14, 73800, Note_on_c, 13, 48, 125
14, 73860, Note_off_c, 13, 48, 64
14, 73920, Note_on_c, 13, 46, 119
14, 74400, Note_off_c, 13, 46, 64
14, 74400, Note_on_c, 13, 58, 125
14, 74520, Note_off_c, 13, 58, 64
14, 74640, Note_on_c, 13, 58, 125
14, 74760, Note_off_c, 13, 58, 64
14, 74880, Note_on_c, 13, 58, 125
14, 75000, Note_off_c, 13, 58, 64
14, 75000, Note_on_c, 13, 57, 125
14, 75120, Note_off_c, 13, 57, 64
14, 75120, Note_on_c, 13, 55, 125
14, 75180, Note_off_c, 13, 55, 64
14, 75240, Note_on_c, 13, 53, 123
14, 75300, Note_off_c, 13, 53, 64
14, 75360, Note_on_c, 13, 52, 127
14, 75420, Note_off_c, 13, 52, 64
14, 75480, Note_on_c, 13, 50, 125
14, 75540, Note_off_c, 13, 50, 64
14, 75600, Note_on_c, 13, 48, 125
14, 75660, Note_off_c, 13, 48, 64
14, 75720, Note_on_c, 13, 46, 117
14, 75780, Note_off_c, 13, 46, 64
14, 75840, Note_on_c, 13, 45, 119
14, 75960, Note_off_c, 13, 45, 64
14, 75960, Note_on_c, 13, 46, 123
14, 76080, Note_off_c, 13, 46, 64
14, 76080, Note_on_c, 13, 48, 119
14, 76200, Note_off_c, 13, 48, 64
14, 76200, Note_on_c, 13, 50, 123
14, 76320, Note_off_c, 13, 50, 64
14, 76320, Note_on_c, 13, 52, 119
14, 76440, Note_off_c, 13, 52, 64
14, 76440, Note_on_c, 13, 53, 115
14, 76560, Note_off_c, 13, 53, 64
14, 76560, Note_on_c, 13, 55, 119
14, 76680, Note_off_c, 13, 55, 64
14, 76680, Note_on_c, 13, 57, 125
14, 76800, Note_off_c, 13, 57, 64
14, 76800, Note_on_c, 13, 55, 115
14, 76920, Note_off_c, 13, 55, 64
14, 76920, Note_on_c, 13, 53, 112
14, 77040, Note_off_c, 13, 53, 64
14, 77040, Note_on_c, 13, 52, 115
14, 77160, Note_off_c, 13, 52, 64
14, 77160, Note_on_c, 13, 50, 115
14, 77280, Note_off_c, 13, 50, 64
14, 77280, Note_on_c, 13, 48, 115
14, 77400, Note_off_c, 13, 48, 64
14, 77400, Note_on_c, 13, 46, 119
14, 77520, Note_off_c, 13, 46, 64
14, 77520, Note_on_c, 13, 45, 112
14, 77640, Note_off_c, 13, 45, 64
14, 77640, Note_on_c, 13, 43, 115
14, 77760, Note_off_c, 13, 43, 64
14, 77760, Note_on_c, 13, 41, 119
14, 77880, Note_off_c, 13, 41, 64
14, 77880, Note_on_c, 13, 53, 117
14, 78000, Note_off_c, 13, 53, 64
14, 78000, Note_on_c, 13, 53, 119
14, 78120, Note_off_c, 13, 53, 64
14, 78120, Note_on_c, 13, 53, 119
14, 78240, Note_off_c, 13, 53, 64
14, 78240, Note_on_c, 13, 53, 123
14, 78480, Note_off_c, 13, 53, 64
14, 78720, Note_on_c, 13, 41, 123
14, 78840, Note_off_c, 13, 41, 64
14, 78840, Note_on_c, 13, 53, 119
14, 78960, Note_off_c, 13, 53, 64
14, 78960, Note_on_c, 13, 53, 119
14, 79080, Note_off_c, 13, 53, 64
14, 79080, Note_on_c, 13, 53, 119
14, 79200, Note_off_c, 13, 53, 64
14, 79200, Note_on_c, 13, 53, 125
14, 79440, Note_off_c, 13, 53, 64
14, 79680, Note_on_c, 13, 52, 117
14, 79800, Note_off_c, 13, 52, 64
14, 79800, Note_on_c, 13, 50, 115
14, 79920, Note_off_c, 13, 50, 64
14, 79920, Note_on_c, 13, 52, 107
14, 80040, Note_off_c, 13, 52, 64
14, 80040, Note_on_c, 13, 48, 115
14, 80160, Note_off_c, 13, 48, 64
14, 80160, Note_on_c, 13, 53, 115
14, 80280, Note_off_c, 13, 53, 64
14, 80280, Note_on_c, 13, 52, 117
14, 80400, Note_off_c, 13, 52, 64
14, 80400, Note_on_c, 13, 53, 115
14, 80520, Note_off_c, 13, 53, 64
14, 80520, Note_on_c, 13, 50, 119
14, 80640, Note_off_c, 13, 50, 64
14, 80640, Note_on_c, 13, 55, 107
14, 80760, Note_off_c, 13, 55, 64
14, 80760, Note_on_c, 13, 52, 115
14, 80880, Note_off_c, 13, 52, 64
14, 80880, Note_on_c, 13, 48, 112
14, 81000, Note_off_c, 13, 48, 64
14, 81000, Note_on_c, 13, 52, 115
14, 81120, Note_off_c, 13, 52, 64
14, 81120, Note_on_c, 13, 43, 112
14, 81240, Note_off_c, 13, 43, 64
14, 81240, Note_on_c, 13, 47, 104
14, 81360, Note_off_c, 13, 47, 64
14, 81360, Note_on_c, 13, 50, 123
14, 81480, Note_off_c, 13, 50, 64
14, 81480, Note_on_c, 13, 55, 119
14, 81600, Note_off_c, 13, 55, 64
14, 81600, Note_on_c, 13, 48, 80
14, 81840, Note_off_c, 13, 48, 64
14, 82560, Note_on_c, 13, 48, 80
14, 82800, Note_off_c, 13, 48, 64
14, 83520, Note_on_c, 13, 48, 78
14, 83640, Note_off_c, 13, 48, 64
14, 83760, Note_on_c, 13, 48, 81
14, 83880, Note_off_c, 13, 48, 64
14, 84000, Note_on_c, 13, 47, 84
14, 84120, Note_off_c, 13, 47, 64
14, 84240, Note_on_c, 13, 48, 86
14, 84360, Note_off_c, 13, 48, 64
14, 84480, Note_on_c, 13, 43, 80
14, 84720, Note_off_c, 13, 43, 64
14, 85440, Note_on_c, 13, 48, 80
14, 85680, Note_off_c, 13, 48, 64
14, 86400, Note_on_c, 13, 48, 80
14, 86640, Note_off_c, 13, 48, 64
14, 87360, Note_on_c, 13, 55, 80
14, 87600, Note_off_c, 13, 55, 64
14, 87840, Note_on_c, 13, 55, 80
14, 88080, Note_off_c, 13, 55, 64
14, 88320, Note_on_c, 13, 60, 80
14, 88560, Note_off_c, 13, 60, 64
14, 89280, Note_on_c, 13, 55, 80
14, 89520, Note_off_c, 13, 55, 64
14, 89760, Note_on_c, 13, 43, 80
14, 90000, Note_off_c, 13, 43, 64
14, 90240, Note_on_c, 13, 48, 93
14, 90360, Note_off_c, 13, 48, 64
14, 90360, Note_on_c, 13, 60, 94
14, 90480, Note_off_c, 13, 60, 64
14, 90480, Note_on_c, 13, 60, 93
14, 90600, Note_off_c, 13, 60, 64
14, 90600, Note_on_c, 13, 60, 95
14, 90720, Note_off_c, 13, 60, 64
14, 90720, Note_on_c, 13, 57, 107
14, 90840, Note_off_c, 13, 57, 64
14, 90840, Note_on_c, 13, 57, 104
14, 90960, Note_off_c, 13, 57, 64
14, 90960, Note_on_c, 13, 57, 101
14, 91080, Note_off_c, 13, 57, 64
14, 91080, Note_on_c, 13, 57, 105
14, 91200, Note_off_c, 13, 57, 64
14, 91200, Note_on_c, 13, 53, 94
14, 91320, Note_off_c, 13, 53, 64
14, 91320, Note_on_c, 13, 53, 90
14, 91440, Note_off_c, 13, 53, 64
14, 91440, Note_on_c, 13, 53, 94
14, 91560, Note_off_c, 13, 53, 64
14, 91560, Note_on_c, 13, 53, 85
14, 91680, Note_off_c, 13, 53, 64
14, 91680, Note_on_c, 13, 55, 84
14, 91800, Note_off_c, 13, 55, 64
14, 91800, Note_on_c, 13, 55, 84
14, 91920, Note_off_c, 13, 55, 64
14, 91920, Note_on_c, 13, 55, 86
14, 92040, Note_off_c, 13, 55, 64
14, 92040, Note_on_c, 13, 55, 89
14, 92160, Note_off_c, 13, 55, 64
14, 92160, Note_on_c, 13, 48, 112
14, 92280, Note_off_c, 13, 48, 64
14, 92280, Note_on_c, 13, 60, 105
14, 92400, Note_off_c, 13, 60, 64
14, 92400, Note_on_c, 13, 60, 119
14, 92520, Note_off_c, 13, 60, 64
14, 92520, Note_on_c, 13, 60, 112
14, 92640, Note_off_c, 13, 60, 64
14, 92640, Note_on_c, 13, 57, 112
14, 92760, Note_off_c, 13, 57, 64
14, 92760, Note_on_c, 13, 57, 105
14, 92880, Note_off_c, 13, 57, 64
14, 92880, Note_on_c, 13, 57, 110
14, 93000, Note_off_c, 13, 57, 64
14, 93000, Note_on_c, 13, 57, 104
14, 93120, Note_off_c, 13, 57, 64
14, 93120, Note_on_c, 13, 53, 86
14, 93240, Note_off_c, 13, 53, 64
14, 93240, Note_on_c, 13, 53, 99
14, 93360, Note_off_c, 13, 53, 64
14, 93360, Note_on_c, 13, 50, 95
14, 93480, Note_off_c, 13, 50, 64
14, 93480, Note_on_c, 13, 50, 95
14, 93600, Note_off_c, 13, 50, 64
14, 93600, Note_on_c, 13, 55, 90
14, 93720, Note_off_c, 13, 55, 64
14, 93720, Note_on_c, 13, 55, 99
14, 93840, Note_off_c, 13, 55, 64
14, 93840, Note_on_c, 13, 43, 84
14, 93960, Note_off_c, 13, 43, 64
14, 93960, Note_on_c, 13, 43, 95
14, 94080, Note_off_c, 13, 43, 64
14, 94080, Note_on_c, 13, 48, 80
14, 94320, Note_off_c, 13, 48, 64
14, 95040, Note_on_c, 13, 48, 125
14, 95520, Note_off_c, 13, 48, 64
14, 95520, Note_on_c, 13, 60, 123
14, 95640, Note_off_c, 13, 60, 64
14, 95760, Note_on_c, 13, 60, 119
14, 95880, Note_off_c, 13, 60, 64
14, 96000, Note_on_c, 13, 60, 125
14, 96240, Note_off_c, 13, 60, 64
14, 96960, Note_on_c, 13, 52, 125
14, 97440, Note_off_c, 13, 52, 64
14, 97440, Note_on_c, 13, 64, 125
14, 97560, Note_off_c, 13, 64, 64
14, 97680, Note_on_c, 13, 64, 127
14, 97800, Note_off_c, 13, 64, 64
14, 97920, Note_on_c, 13, 55, 80
14, 98400, Note_off_c, 13, 55, 64
14, 98400, Note_on_c, 13, 55, 80
14, 98520, Note_off_c, 13, 55, 64
14, 98520, Note_on_c, 13, 53, 80
14, 98580, Note_off_c, 13, 53, 64
14, 98580, Note_on_c, 13, 52, 80
14, 98640, Note_off_c, 13, 52, 64
14, 98640, Note_on_c, 13, 50, 80
14, 98700, Note_off_c, 13, 50, 64
14, 98700, Note_on_c, 13, 48, 80
14, 98760, Note_off_c, 13, 48, 64
14, 98760, Note_on_c, 13, 47, 80
14, 98820, Note_off_c, 13, 47, 64
14, 98820, Note_on_c, 13, 45, 80
14, 98880, Note_off_c, 13, 45, 64
14, 98880, Note_on_c, 13, 43, 80
14, 99120, Note_off_c, 13, 43, 64
14, 99360, Note_on_c, 13, 55, 80
14, 99600, Note_off_c, 13, 55, 64
14, 99840, Note_on_c, 13, 60, 80
14, 100080, Note_off_c, 13, 60, 64
14, 100260, Note_on_c, 13, 48, 80
14, 100320, Note_off_c, 13, 48, 64
14, 100320, Note_on_c, 13, 48, 80
14, 100560, Note_off_c, 13, 48, 64
14, 100740, Note_on_c, 13, 48, 80
14, 100800, Note_off_c, 13, 48, 64
14, 100800, Note_on_c, 13, 48, 80
14, 101040, Note_off_c, 13, 48, 64
14, 109440, Note_on_c, 13, 52, 80
14, 110400, Note_off_c, 13, 52, 64
14, 110400, Note_on_c, 13, 53, 80
14, 111360, Note_off_c, 13, 53, 64
14, 111360, Note_on_c, 13, 55, 80
14, 111600, Note_off_c, 13, 55, 64
14, 111600, Note_on_c, 13, 43, 80
14, 111840, Note_off_c, 13, 43, 64
14, 111840, Note_on_c, 13, 43, 80
14, 112080, Note_off_c, 13, 43, 64
14, 112080, Note_on_c, 13, 43, 80
14, 112320, Note_off_c, 13, 43, 64
14, 112320, Note_on_c, 13, 48, 80
14, 112800, Note_off_c, 13, 48, 64
14, 115440, Note_on_c, 13, 55, 80
14, 115680, Note_off_c, 13, 55, 64
14, 115680, Note_on_c, 13, 52, 80
14, 115920, Note_off_c, 13, 52, 64
14, 115920, Note_on_c, 13, 48, 80
14, 116160, Note_off_c, 13, 48, 64
14, 116160, Note_on_c, 13, 43, 80
14, 116640, Note_off_c, 13, 43, 64
14, 119280, Note_on_c, 13, 59, 80
14, 119520, Note_off_c, 13, 59, 64
14, 119760, Note_on_c, 13, 57, 80
14, 120000, Note_off_c, 13, 57, 64
14, 120000, Note_on_c, 13, 56, 80
14, 120240, Note_off_c, 13, 56, 64
14, 121920, Note_on_c, 13, 60, 80
14, 122160, Note_off_c, 13, 60, 64
14, 122400, Note_on_c, 13, 60, 80
14, 122640, Note_off_c, 13, 60, 64
14, 122880, Note_on_c, 13, 60, 80
14, 123120, Note_off_c, 13, 60, 64
14, 125760, Note_on_c, 13, 59, 80
14, 126000, Note_off_c, 13, 59, 64
14, 126240, Note_on_c, 13, 59, 80
14, 126480, Note_off_c, 13, 59, 64
14, 126720, Note_on_c, 13, 59, 80
14, 126960, Note_off_c, 13, 59, 64
14, 127680, Note_on_c, 13, 57, 80
14, 128640, Note_off_c, 13, 57, 64
14, 128640, Note_on_c, 13, 59, 80
14, 129600, Note_off_c, 13, 59, 64
14, 129600, Note_on_c, 13, 54, 80
14, 130560, Note_off_c, 13, 54, 64
14, 130560, Note_on_c, 13, 55, 80
14, 131520, Note_off_c, 13, 55, 64
14, 131520, Note_on_c, 13, 57, 80
14, 132480, Note_off_c, 13, 57, 64
14, 132480, Note_on_c, 13, 58, 80
14, 133440, Note_off_c, 13, 58, 64
14, 133440, Note_on_c, 13, 58, 80
14, 133680, Note_off_c, 13, 58, 64
14, 133680, Note_on_c, 13, 46, 80
14, 133920, Note_off_c, 13, 46, 64
14, 133920, Note_on_c, 13, 50, 80
14, 134160, Note_off_c, 13, 50, 64
14, 134160, Note_on_c, 13, 46, 80
14, 134400, Note_off_c, 13, 46, 64
14, 134400, Note_on_c, 13, 51, 80
14, 134880, Note_off_c, 13, 51, 64
14, 134880, Note_on_c, 13, 50, 80
14, 135120, Note_off_c, 13, 50, 64
14, 135120, Note_on_c, 13, 46, 80
14, 135360, Note_off_c, 13, 46, 64
14, 135360, Note_on_c, 13, 51, 80
14, 135840, Note_off_c, 13, 51, 64
14, 135840, Note_on_c, 13, 50, 80
14, 136080, Note_off_c, 13, 50, 64
14, 136080, Note_on_c, 13, 46, 80
14, 136320, Note_off_c, 13, 46, 64
14, 136320, Note_on_c, 13, 51, 80
14, 136560, Note_off_c, 13, 51, 64
14, 136800, Note_on_c, 13, 51, 80
14, 137280, Note_off_c, 13, 51, 64
14, 137280, Note_on_c, 13, 51, 80
14, 138240, Note_off_c, 13, 51, 64
14, 138240, Note_on_c, 13, 50, 80
14, 138480, Note_off_c, 13, 50, 64
14, 144960, Note_on_c, 13, 50, 68
14, 145080, Note_off_c, 13, 50, 64
14, 145200, Note_on_c, 13, 62, 73
14, 145320, Note_off_c, 13, 62, 64
14, 145440, Note_on_c, 13, 62, 71
14, 145560, Note_off_c, 13, 62, 64
14, 145680, Note_on_c, 13, 62, 72
14, 145800, Note_off_c, 13, 62, 64
14, 145920, Note_on_c, 13, 62, 64
14, 146040, Note_off_c, 13, 62, 64
14, 146400, Note_on_c, 13, 50, 30
14, 146520, Note_off_c, 13, 50, 64
14, 146880, Note_on_c, 13, 50, 43
14, 147000, Note_off_c, 13, 50, 64
14, 147840, Note_on_c, 13, 55, 80
14, 148800, Note_off_c, 13, 55, 64
14, 148800, Note_on_c, 13, 57, 80
14, 149760, Note_off_c, 13, 57, 64
14, 149760, Note_on_c, 13, 59, 80
14, 150240, Note_off_c, 13, 59, 64
14, 150240, Note_on_c, 13, 55, 80
14, 150720, Note_off_c, 13, 55, 64
14, 150720, Note_on_c, 13, 50, 80
14, 150960, Note_off_c, 13, 50, 64
14, 151680, Note_on_c, 13, 51, 80
14, 152160, Note_off_c, 13, 51, 64
14, 152160, Note_on_c, 13, 47, 80
14, 152640, Note_off_c, 13, 47, 64
14, 152640, Note_on_c, 13, 52, 80
14, 153120, Note_off_c, 13, 52, 64
14, 153120, Note_on_c, 13, 43, 80
14, 153600, Note_off_c, 13, 43, 64
14, 153600, Note_on_c, 13, 45, 80
14, 154080, Note_off_c, 13, 45, 64
14, 154080, Note_on_c, 13, 45, 80
14, 154560, Note_off_c, 13, 45, 64
14, 154560, Note_on_c, 13, 50, 80
14, 154800, Note_off_c, 13, 50, 64
14, 155520, Note_on_c, 13, 55, 80
14, 156480, Note_off_c, 13, 55, 64
14, 156480, Note_on_c, 13, 57, 80
14, 157440, Note_off_c, 13, 57, 64
14, 157440, Note_on_c, 13, 59, 80
14, 157680, Note_off_c, 13, 59, 64
14, 157920, Note_on_c, 13, 55, 80
14, 158160, Note_off_c, 13, 55, 64
14, 158400, Note_on_c, 13, 50, 80
14, 158640, Note_off_c, 13, 50, 64
14, 159360, Note_on_c, 13, 51, 80
14, 159840, Note_off_c, 13, 51, 64
14, 159840, Note_on_c, 13, 47, 80
14, 160320, Note_off_c, 13, 47, 64
14, 160320, Note_on_c, 13, 52, 80
14, 160560, Note_off_c, 13, 52, 64
14, 161040, Note_on_c, 13, 50, 80
14, 161280, Note_off_c, 13, 50, 64
14, 161280, Note_on_c, 13, 49, 80
14, 161520, Note_off_c, 13, 49, 64
14, 161520, Note_on_c, 13, 47, 80
14, 161760, Note_off_c, 13, 47, 64
14, 161760, Note_on_c, 13, 49, 80
14, 162000, Note_off_c, 13, 49, 64
14, 162000, Note_on_c, 13, 45, 80
14, 162240, Note_off_c, 13, 45, 64
14, 162240, Note_on_c, 13, 50, 80
14, 162480, Note_off_c, 13, 50, 64
14, 162960, Note_on_c, 13, 50, 80
14, 163200, Note_off_c, 13, 50, 64
14, 163200, Note_on_c, 13, 54, 80
14, 163440, Note_off_c, 13, 54, 64
14, 163440, Note_on_c, 13, 52, 80
14, 163680, Note_off_c, 13, 52, 64
14, 163680, Note_on_c, 13, 54, 80
14, 163920, Note_off_c, 13, 54, 64
14, 163920, Note_on_c, 13, 52, 80
14, 164160, Note_off_c, 13, 52, 64
14, 164160, Note_on_c, 13, 55, 80
14, 164400, Note_off_c, 13, 55, 64
14, 164640, Note_on_c, 13, 48, 80
14, 164880, Note_off_c, 13, 48, 64
14, 165120, Note_on_c, 13, 50, 80
14, 165360, Note_off_c, 13, 50, 64
14, 165600, Note_on_c, 13, 50, 80
14, 165840, Note_off_c, 13, 50, 64
14, 166080, Note_on_c, 13, 55, 80
14, 166320, Note_off_c, 13, 55, 64
14, 167040, Note_on_c, 13, 53, 80
14, 168000, Note_off_c, 13, 53, 64
14, 168000, Note_on_c, 13, 51, 80
14, 168240, Note_off_c, 13, 51, 64
14, 168960, Note_on_c, 13, 50, 80
14, 169920, Note_off_c, 13, 50, 64
14, 169920, Note_on_c, 13, 48, 80
14, 170160, Note_off_c, 13, 48, 64
14, 170880, Note_on_c, 13, 60, 80
14, 171840, Note_off_c, 13, 60, 64
14, 171840, Note_on_c, 13, 58, 80
14, 172080, Note_off_c, 13, 58, 64
14, 172320, Note_on_c, 13, 60, 80
14, 172560, Note_off_c, 13, 60, 64
14, 172800, Note_on_c, 13, 62, 80
14, 173040, Note_off_c, 13, 62, 64
14, 173280, Note_on_c, 13, 50, 80
14, 173520, Note_off_c, 13, 50, 64
14, 173760, Note_on_c, 13, 55, 80
14, 174000, Note_off_c, 13, 55, 64
14, 174720, Note_on_c, 13, 55, 80
14, 174960, Note_off_c, 13, 55, 64
14, 175920, Note_on_c, 13, 55, 80
14, 176160, Note_off_c, 13, 55, 64
14, 176160, Note_on_c, 13, 54, 80
14, 176400, Note_off_c, 13, 54, 64
14, 176400, Note_on_c, 13, 55, 80
14, 176640, Note_off_c, 13, 55, 64
14, 176640, Note_on_c, 13, 50, 80
14, 176880, Note_off_c, 13, 50, 64
14, 179520, Note_on_c, 13, 50, 80
14, 179760, Note_off_c, 13, 50, 64
14, 180000, Note_on_c, 13, 50, 80
14, 180240, Note_off_c, 13, 50, 64
14, 180480, Note_on_c, 13, 55, 80
14, 180720, Note_off_c, 13, 55, 64
14, 181440, Note_on_c, 13, 50, 80
14, 181680, Note_off_c, 13, 50, 64
14, 181920, Note_on_c, 13, 50, 80
14, 182160, Note_off_c, 13, 50, 64
14, 182400, Note_on_c, 13, 55, 80
14, 182640, Note_off_c, 13, 55, 64
14, 184320, Note_on_c, 13, 55, 80
14, 184560, Note_off_c, 13, 55, 64
14, 186240, Note_on_c, 13, 55, 80
14, 186480, Note_off_c, 13, 55, 64
14, 193920, Note_on_c, 13, 60, 80
14, 194160, Note_off_c, 13, 60, 64
14, 194400, Note_on_c, 13, 61, 80
14, 194640, Note_off_c, 13, 61, 64
14, 194880, Note_on_c, 13, 62, 80
14, 195120, Note_off_c, 13, 62, 64
14, 195360, Note_on_c, 13, 50, 80
14, 195600, Note_off_c, 13, 50, 64
14, 195840, Note_on_c, 13, 55, 80
14, 196080, Note_off_c, 13, 55, 64
14, 197760, Note_on_c, 13, 55, 80
14, 198000, Note_off_c, 13, 55, 64
14, 199680, Note_on_c, 13, 55, 80
14, 199920, Note_off_c, 13, 55, 64
14, 205440, Note_on_c, 13, 60, 80
14, 206400, Note_off_c, 13, 60, 64
14, 206400, Note_on_c, 13, 60, 80
14, 207360, Note_off_c, 13, 60, 64
14, 207360, Note_on_c, 13, 61, 80
14, 208320, Note_off_c, 13, 61, 64
14, 208320, Note_on_c, 13, 62, 80
14, 209280, Note_off_c, 13, 62, 64
14, 209280, Note_on_c, 13, 63, 80
14, 210240, Note_off_c, 13, 63, 64
14, 210240, Note_on_c, 13, 56, 80
14, 210480, Note_off_c, 13, 56, 64
14, 214080, Note_on_c, 13, 48, 80
14, 214560, Note_off_c, 13, 48, 64
14, 214560, Note_on_c, 13, 49, 80
14, 215040, Note_off_c, 13, 49, 64
14, 215040, Note_on_c, 13, 50, 80
14, 215280, Note_off_c, 13, 50, 64
14, 224640, Note_on_c, 13, 50, 80
14, 224640, Note_on_c, 13, 50, 80
14, 224880, Note_off_c, 13, 50, 64
14, 224880, Note_off_c, 13, 50, 64
14, 225600, Note_on_c, 13, 50, 80
14, 225600, Note_on_c, 13, 50, 80
14, 225600, Note_on_c, 13, 50, 80
14, 225840, Note_off_c, 13, 50, 64
14, 225840, Note_off_c, 13, 50, 64
14, 225840, Note_off_c, 13, 50, 64
14, 226080, Note_on_c, 13, 50, 80
14, 226080, Note_on_c, 13, 50, 80
14, 226080, Note_on_c, 13, 50, 80
14, 226320, Note_off_c, 13, 50, 64
14, 226320, Note_off_c, 13, 50, 64
14, 226320, Note_off_c, 13, 50, 64
14, 226560, Note_on_c, 13, 55, 80
14, 226560, Note_on_c, 13, 55, 80
14, 226560, Note_on_c, 13, 55, 80
14, 227520, Note_off_c, 13, 55, 64
14, 227520, Note_off_c, 13, 55, 64
14, 227520, Note_off_c, 13, 55, 64
14, 227520, Note_on_c, 13, 49, 80
14, 228480, Note_off_c, 13, 49, 64
14, 228480, Note_on_c, 13, 50, 101
14, 229440, Note_off_c, 13, 50, 64
14, 229440, Note_on_c, 13, 47, 84
14, 230400, Note_off_c, 13, 47, 64
14, 230400, Note_on_c, 13, 48, 119
14, 230880, Note_off_c, 13, 48, 64
14, 230880, Note_on_c, 13, 60, 117
14, 231120, Note_off_c, 13, 60, 64
14, 231120, Note_on_c, 13, 60, 115
14, 231360, Note_off_c, 13, 60, 64
14, 231360, Note_on_c, 13, 60, 112
14, 231480, Note_off_c, 13, 60, 64
14, 231480, Note_on_c, 13, 59, 112
14, 231600, Note_off_c, 13, 59, 64
14, 231600, Note_on_c, 13, 57, 115
14, 231720, Note_off_c, 13, 57, 64
14, 231720, Note_on_c, 13, 55, 115
14, 231840, Note_off_c, 13, 55, 64
14, 231840, Note_on_c, 13, 54, 112
14, 231960, Note_off_c, 13, 54, 64
14, 231960, Note_on_c, 13, 52, 115
14, 232080, Note_off_c, 13, 52, 64
14, 232080, Note_on_c, 13, 50, 119
14, 232200, Note_off_c, 13, 50, 64
14, 232200, Note_on_c, 13, 48, 115
14, 232320, Note_off_c, 13, 48, 64
14, 232320, Note_on_c, 13, 47, 94
14, 232800, Note_off_c, 13, 47, 64
14, 232800, Note_on_c, 13, 62, 82
14, 233040, Note_off_c, 13, 62, 64
14, 233040, Note_on_c, 13, 62, 86
14, 233280, Note_off_c, 13, 62, 64
14, 233280, Note_on_c, 13, 62, 80
14, 233400, Note_off_c, 13, 62, 64
14, 233400, Note_on_c, 13, 60, 84
14, 233520, Note_off_c, 13, 60, 64
14, 233520, Note_on_c, 13, 59, 89
14, 233580, Note_off_c, 13, 59, 64
14, 233640, Note_on_c, 13, 57, 95
14, 233700, Note_off_c, 13, 57, 64
14, 233760, Note_on_c, 13, 56, 93
14, 233820, Note_off_c, 13, 56, 64
14, 233880, Note_on_c, 13, 54, 86
14, 233940, Note_off_c, 13, 54, 64
14, 234000, Note_on_c, 13, 52, 99
14, 234060, Note_off_c, 13, 52, 64
14, 234120, Note_on_c, 13, 50, 98
14, 234180, Note_off_c, 13, 50, 64
14, 234240, Note_on_c, 13, 48, 94
14, 234360, Note_off_c, 13, 48, 64
14, 234360, Note_on_c, 13, 63, 81
14, 234480, Note_off_c, 13, 63, 64
14, 234480, Note_on_c, 13, 64, 94
14, 234600, Note_off_c, 13, 64, 64
14, 234600, Note_on_c, 13, 59, 94
14, 234720, Note_off_c, 13, 59, 64
14, 234720, Note_on_c, 13, 60, 94
14, 234840, Note_off_c, 13, 60, 64
14, 234840, Note_on_c, 13, 59, 94
14, 234960, Note_off_c, 13, 59, 64
14, 234960, Note_on_c, 13, 60, 94
14, 235080, Note_off_c, 13, 60, 64
14, 235080, Note_on_c, 13, 56, 84
14, 235200, Note_off_c, 13, 56, 64
14, 235200, Note_on_c, 13, 57, 98
14, 235320, Note_off_c, 13, 57, 64
14, 235320, Note_on_c, 13, 59, 95
14, 235440, Note_off_c, 13, 59, 64
14, 235440, Note_on_c, 13, 60, 90
14, 235560, Note_off_c, 13, 60, 64
14, 235560, Note_on_c, 13, 59, 90
14, 235680, Note_off_c, 13, 59, 64
14, 235680, Note_on_c, 13, 57, 99
14, 235800, Note_off_c, 13, 57, 64
14, 235800, Note_on_c, 13, 55, 86
14, 235920, Note_off_c, 13, 55, 64
14, 235920, Note_on_c, 13, 54, 89
14, 236040, Note_off_c, 13, 54, 64
14, 236040, Note_on_c, 13, 52, 98
14, 236160, Note_off_c, 13, 52, 64
14, 236160, Note_on_c, 13, 50, 98
14, 236280, Note_off_c, 13, 50, 64
14, 236280, Note_on_c, 13, 62, 84
14, 236400, Note_off_c, 13, 62, 64
14, 236400, Note_on_c, 13, 62, 84
14, 236520, Note_off_c, 13, 62, 64
14, 236520, Note_on_c, 13, 62, 89
14, 236640, Note_off_c, 13, 62, 64
14, 236640, Note_on_c, 13, 52, 95
14, 236760, Note_off_c, 13, 52, 64
14, 236760, Note_on_c, 13, 64, 89
14, 236880, Note_off_c, 13, 64, 64
14, 236880, Note_on_c, 13, 64, 89
14, 237000, Note_off_c, 13, 64, 64
14, 237000, Note_on_c, 13, 64, 94
14, 237120, Note_off_c, 13, 64, 64
14, 237120, Note_on_c, 13, 48, 70
14, 237240, Note_off_c, 13, 48, 64
14, 237240, Note_on_c, 13, 60, 89
14, 237360, Note_off_c, 13, 60, 64
14, 237360, Note_on_c, 13, 60, 89
14, 237480, Note_off_c, 13, 60, 64
14, 237480, Note_on_c, 13, 60, 93
14, 237600, Note_off_c, 13, 60, 64
14, 237600, Note_on_c, 13, 50, 95
14, 237720, Note_off_c, 13, 50, 64
14, 237720, Note_on_c, 13, 62, 93
14, 237840, Note_off_c, 13, 62, 64
14, 237840, Note_on_c, 13, 62, 86
14, 237960, Note_off_c, 13, 62, 64
14, 237960, Note_on_c, 13, 62, 84
14, 238080, Note_off_c, 13, 62, 64
14, 238080, Note_on_c, 13, 55, 80
14, 238320, Note_off_c, 13, 55, 64
14, 240120, Note_on_c, 13, 43, 80
14, 240180, Note_off_c, 13, 43, 64
14, 240240, Note_on_c, 13, 45, 90
14, 240300, Note_off_c, 13, 45, 64
14, 240360, Note_on_c, 13, 47, 84
14, 240420, Note_off_c, 13, 47, 64
14, 240480, Note_on_c, 13, 48, 71
14, 240540, Note_off_c, 13, 48, 64
14, 240600, Note_on_c, 13, 50, 84
14, 240660, Note_off_c, 13, 50, 64
14, 240720, Note_on_c, 13, 52, 76
14, 240780, Note_off_c, 13, 52, 64
14, 240840, Note_on_c, 13, 54, 80
14, 240900, Note_off_c, 13, 54, 64
14, 240960, Note_on_c, 13, 55, 74
14, 241080, Note_off_c, 13, 55, 64
14, 241200, Note_on_c, 13, 52, 93
14, 241320, Note_off_c, 13, 52, 64
14, 241440, Note_on_c, 13, 48, 84
14, 241560, Note_off_c, 13, 48, 64
14, 241680, Note_on_c, 13, 50, 73
14, 241800, Note_off_c, 13, 50, 64
14, 241920, Note_on_c, 13, 43, 86
14, 242160, Note_off_c, 13, 43, 64
14, 242400, Note_on_c, 13, 50, 95
14, 242640, Note_off_c, 13, 50, 64
14, 242880, Note_on_c, 13, 55, 90
14, 243120, Note_off_c, 13, 55, 64
14, 243360, Note_on_c, 13, 50, 95
14, 243600, Note_off_c, 13, 50, 64
14, 243840, Note_on_c, 13, 43, 94
14, 244080, Note_off_c, 13, 43, 64
14, 244260, Note_on_c, 13, 55, 80
14, 244320, Note_off_c, 13, 55, 64
14, 244320, Note_on_c, 13, 55, 80
14, 244560, Note_off_c, 13, 55, 64
14, 244740, Note_on_c, 13, 43, 80
14, 244800, Note_off_c, 13, 43, 64
14, 244800, Note_on_c, 13, 43, 80
14, 245040, Note_off_c, 13, 43, 64
14, 245760, Note_on_c, 13, 43, 80
14, 246240, Note_off_c, 13, 43, 64
14, 246240, Note_on_c, 13, 55, 42
14, 246360, Note_off_c, 13, 55, 64
14, 246480, Note_on_c, 13, 55, 49
14, 246600, Note_off_c, 13, 55, 64
14, 246720, Note_on_c, 13, 55, 61
14, 246840, Note_off_c, 13, 55, 64
14, 247680, Note_on_c, 13, 44, 80
14, 248160, Note_off_c, 13, 44, 64
14, 248160, Note_on_c, 13, 56, 60
14, 248280, Note_off_c, 13, 56, 64
14, 248400, Note_on_c, 13, 56, 44
14, 248520, Note_off_c, 13, 56, 64
14, 248640, Note_on_c, 13, 56, 48
14, 248760, Note_off_c, 13, 56, 64
14, 249600, Note_on_c, 13, 44, 80
14, 250080, Note_off_c, 13, 44, 64
14, 250080, Note_on_c, 13, 56, 95
14, 250200, Note_off_c, 13, 56, 64
14, 250320, Note_on_c, 13, 56, 89
14, 250440, Note_off_c, 13, 56, 64
14, 250560, Note_on_c, 13, 55, 94
14, 250680, Note_off_c, 13, 55, 64
14, 251520, Note_on_c, 13, 56, 80
14, 251760, Note_off_c, 13, 56, 64
14, 252480, Note_on_c, 13, 58, 80
14, 252720, Note_off_c, 13, 58, 64
14, 253440, Note_on_c, 13, 46, 80
14, 253680, Note_off_c, 13, 46, 64
14, 253920, Note_on_c, 13, 46, 80
14, 254160, Note_off_c, 13, 46, 64
14, 254400, Note_on_c, 13, 51, 80
14, 254640, Note_off_c, 13, 51, 64
14, 254640, Control_c, 13, 7, 100
14, 254640, Control_c, 13, 10, 98
14, 254640, Control_c, 13, 93, 0
14, 254640, Control_c, 13, 91, 66
14, 257280, Note_on_c, 13, 51, 80
14, 258240, Note_off_c, 13, 51, 64
14, 258240, Note_on_c, 13, 53, 80
14, 258480, Note_off_c, 13, 53, 64
14, 261120, Note_on_c, 13, 53, 80
14, 262080, Note_off_c, 13, 53, 64
14, 262080, Note_on_c, 13, 55, 80
14, 262320, Note_off_c, 13, 55, 64
14, 264960, Note_on_c, 13, 55, 80
14, 265920, Note_off_c, 13, 55, 64
14, 265920, Note_on_c, 13, 56, 80
14, 266160, Note_off_c, 13, 56, 64
14, 266160, Control_c, 13, 7, 100
14, 266160, Control_c, 13, 10, 98
14, 266160, Control_c, 13, 93, 0
14, 266160, Control_c, 13, 91, 66
14, 266400, Control_c, 13, 7, 100
14, 266400, Control_c, 13, 10, 98
14, 266400, Control_c, 13, 93, 0
14, 266400, Control_c, 13, 91, 66
14, 266640, Control_c, 13, 7, 100
14, 266640, Control_c, 13, 10, 98
14, 266640, Control_c, 13, 93, 0
14, 266640, Control_c, 13, 91, 66
14, 266880, Control_c, 13, 7, 100
14, 266880, Control_c, 13, 10, 98
14, 266880, Control_c, 13, 93, 0
14, 266880, Control_c, 13, 91, 66
14, 266880, Note_on_c, 13, 46, 80
14, 267120, Note_off_c, 13, 46, 64
14, 267120, Control_c, 13, 7, 100
14, 267120, Control_c, 13, 10, 98
14, 267120, Control_c, 13, 93, 0
14, 267120, Control_c, 13, 91, 66
14, 267360, Control_c, 13, 7, 100
14, 267360, Control_c, 13, 10, 98
14, 267360, Control_c, 13, 93, 0
14, 267360, Control_c, 13, 91, 66
14, 267360, Note_on_c, 13, 46, 80
14, 267600, Note_off_c, 13, 46, 64
14, 267600, Control_c, 13, 7, 100
14, 267600, Control_c, 13, 10, 98
14, 267600, Control_c, 13, 93, 0
14, 267600, Control_c, 13, 91, 66
14, 279360, Note_on_c, 13, 48, 80
14, 279600, Note_off_c, 13, 48, 64
14, 280320, Control_c, 13, 7, 100
14, 280320, Control_c, 13, 10, 98
14, 280320, Control_c, 13, 93, 0
14, 280320, Control_c, 13, 91, 66
14, 280320, Note_on_c, 13, 53, 80
14, 280560, Note_off_c, 13, 53, 64
14, 281280, Note_on_c, 13, 55, 80
14, 281520, Note_off_c, 13, 55, 64
14, 282240, Note_on_c, 13, 48, 80
14, 282480, Note_off_c, 13, 48, 64
14, 283200, Note_on_c, 13, 41, 80
14, 283440, Note_off_c, 13, 41, 64
14, 284160, Note_on_c, 13, 53, 80
14, 284400, Note_off_c, 13, 53, 64
14, 285120, Note_on_c, 13, 55, 80
14, 285360, Note_off_c, 13, 55, 64
14, 286080, Note_on_c, 13, 43, 80
14, 286320, Note_off_c, 13, 43, 64
14, 287040, Note_on_c, 13, 48, 80
14, 287280, Note_off_c, 13, 48, 64
14, 288000, Note_on_c, 13, 60, 80
14, 288240, Note_off_c, 13, 60, 64
14, 288960, Note_on_c, 13, 54, 80
14, 289200, Note_off_c, 13, 54, 64
14, 289920, Note_on_c, 13, 54, 80
14, 290160, Note_off_c, 13, 54, 64
14, 290880, Note_on_c, 13, 55, 80
14, 291120, Note_off_c, 13, 55, 64
14, 292800, Note_on_c, 13, 55, 80
14, 293040, Note_off_c, 13, 55, 64
14, 293760, Note_on_c, 13, 55, 80
14, 294000, Note_off_c, 13, 55, 64
14, 294720, Note_on_c, 13, 55, 80
14, 294960, Note_off_c, 13, 55, 64
14, 296640, Note_on_c, 13, 55, 80
14, 296880, Note_off_c, 13, 55, 64
14, 297600, Note_on_c, 13, 55, 80
14, 297840, Note_off_c, 13, 55, 64
14, 298560, Note_on_c, 13, 55, 80
14, 298800, Note_off_c, 13, 55, 64
14, 302400, Note_on_c, 13, 43, 80
14, 302640, Note_off_c, 13, 43, 64
14, 308160, Note_on_c, 13, 43, 80
14, 309120, Note_off_c, 13, 43, 64
14, 309120, Note_on_c, 13, 43, 80
14, 310080, Note_off_c, 13, 43, 64
14, 310080, Note_on_c, 13, 43, 80
14, 310800, Control_c, 13, 7, 100
14, 310800, Control_c, 13, 10, 98
14, 310800, Control_c, 13, 93, 0
14, 310800, Control_c, 13, 91, 66
14, 311040, Note_off_c, 13, 43, 64
14, 311040, Note_on_c, 13, 43, 80
14, 311040, Control_c, 13, 7, 100
14, 311040, Control_c, 13, 10, 98
14, 311040, Control_c, 13, 93, 0
14, 311040, Control_c, 13, 91, 66
14, 311280, Control_c, 13, 7, 100
14, 311280, Control_c, 13, 10, 98
14, 311280, Control_c, 13, 93, 0
14, 311280, Control_c, 13, 91, 66
14, 311520, Control_c, 13, 7, 100
14, 311520, Control_c, 13, 10, 98
14, 311520, Control_c, 13, 93, 0
14, 311520, Control_c, 13, 91, 66
14, 311760, Control_c, 13, 7, 100
14, 311760, Control_c, 13, 10, 98
14, 311760, Control_c, 13, 93, 0
14, 311760, Control_c, 13, 91, 66
14, 312000, Note_off_c, 13, 43, 64
14, 312000, Note_on_c, 13, 44, 80
14, 312000, Control_c, 13, 7, 100
14, 312000, Control_c, 13, 10, 98
14, 312000, Control_c, 13, 93, 0
14, 312000, Control_c, 13, 91, 66
14, 312240, Control_c, 13, 7, 100
14, 312240, Control_c, 13, 10, 98
14, 312240, Control_c, 13, 93, 0
14, 312240, Control_c, 13, 91, 66
14, 312480, Control_c, 13, 7, 100
14, 312480, Control_c, 13, 10, 98
14, 312480, Control_c, 13, 93, 0
14, 312480, Control_c, 13, 91, 66
14, 312720, Control_c, 13, 7, 100
14, 312720, Control_c, 13, 10, 98
14, 312720, Control_c, 13, 93, 0
14, 312720, Control_c, 13, 91, 66
14, 312960, Note_off_c, 13, 44, 64
14, 312960, Note_on_c, 13, 45, 80
14, 313920, Note_off_c, 13, 45, 64
14, 313920, Note_on_c, 13, 43, 80
14, 314160, Note_off_c, 13, 43, 64
14, 315840, Note_on_c, 13, 43, 80
14, 316080, Note_off_c, 13, 43, 64
14, 330240, Note_on_c, 13, 43, 80
14, 330480, Note_off_c, 13, 43, 64
14, 331200, Note_on_c, 13, 48, 80
14, 331200, Note_on_c, 13, 48, 80
14, 331200, Note_on_c, 13, 48, 80
14, 331680, Note_off_c, 13, 48, 64
14, 331680, Note_off_c, 13, 48, 64
14, 331680, Note_off_c, 13, 48, 64
14, 331680, Note_on_c, 13, 48, 127
14, 331800, Note_off_c, 13, 48, 64
14, 331920, Note_on_c, 13, 48, 127
14, 332040, Note_off_c, 13, 48, 64
14, 332160, Note_on_c, 13, 48, 127
14, 332400, Note_off_c, 13, 48, 64
14, 333120, Note_on_c, 13, 60, 119
14, 333240, Note_off_c, 13, 60, 64
14, 333360, Note_on_c, 13, 59, 127
14, 333480, Note_off_c, 13, 59, 64
14, 333600, Note_on_c, 13, 60, 125
14, 333720, Note_off_c, 13, 60, 64
14, 333840, Note_on_c, 13, 55, 125
14, 333960, Note_off_c, 13, 55, 64
14, 334080, Note_on_c, 13, 60, 125
14, 334200, Note_off_c, 13, 60, 64
14, 334320, Note_on_c, 13, 55, 125
14, 334440, Note_off_c, 13, 55, 64
14, 335040, Note_on_c, 13, 43, 125
14, 335520, Note_off_c, 13, 43, 64
14, 335520, Note_on_c, 13, 55, 125
14, 335640, Note_off_c, 13, 55, 64
14, 335760, Note_on_c, 13, 55, 125
14, 335880, Note_off_c, 13, 55, 64
14, 336000, Note_on_c, 13, 55, 125
14, 336240, Note_off_c, 13, 55, 64
14, 336960, Note_on_c, 13, 55, 125
14, 337080, Note_off_c, 13, 55, 64
14, 337200, Note_on_c, 13, 52, 127
14, 337320, Note_off_c, 13, 52, 64
14, 337440, Note_on_c, 13, 50, 127
14, 337560, Note_off_c, 13, 50, 64
14, 337680, Note_on_c, 13, 48, 125
14, 337800, Note_off_c, 13, 48, 64
14, 337920, Note_on_c, 13, 43, 127
14, 338040, Note_off_c, 13, 43, 64
14, 338160, Note_on_c, 13, 48, 125
14, 338280, Note_off_c, 13, 48, 64
14, 342720, Note_on_c, 13, 57, 82
14, 342960, Note_off_c, 13, 57, 64
14, 343680, Note_on_c, 13, 50, 84
14, 343920, Note_off_c, 13, 50, 64
14, 344640, Note_on_c, 13, 55, 76
14, 344880, Note_off_c, 13, 55, 64
14, 351360, Note_on_c, 13, 55, 61
14, 351480, Note_off_c, 13, 55, 64
14, 351600, Note_on_c, 13, 55, 76
14, 351720, Note_off_c, 13, 55, 64
14, 351840, Note_on_c, 13, 55, 65
14, 351960, Note_off_c, 13, 55, 64
14, 352080, Note_on_c, 13, 55, 66
14, 352200, Note_off_c, 13, 55, 64
14, 352320, Note_on_c, 13, 55, 77
14, 352440, Note_off_c, 13, 55, 64
14, 352800, Note_on_c, 13, 55, 35
14, 352920, Note_off_c, 13, 55, 64
14, 353280, Note_on_c, 13, 43, 70
14, 353400, Note_off_c, 13, 43, 64
14, 354240, Note_on_c, 13, 48, 84
14, 355200, Note_off_c, 13, 48, 64
14, 355200, Note_on_c, 13, 50, 80
14, 356160, Note_off_c, 13, 50, 64
14, 356160, Note_on_c, 13, 52, 82
14, 356640, Note_off_c, 13, 52, 64
14, 356640, Note_on_c, 13, 48, 80
14, 357120, Note_off_c, 13, 48, 64
14, 357120, Note_on_c, 13, 55, 69
14, 357360, Note_off_c, 13, 55, 64
14, 358080, Note_on_c, 13, 56, 53
14, 358560, Note_off_c, 13, 56, 64
14, 358560, Note_on_c, 13, 52, 71
14, 359040, Note_off_c, 13, 52, 64
14, 359040, Note_on_c, 13, 57, 74
14, 359520, Note_off_c, 13, 57, 64
14, 359520, Note_on_c, 13, 48, 67
14, 360000, Note_off_c, 13, 48, 64
14, 360000, Note_on_c, 13, 50, 62
14, 360480, Note_off_c, 13, 50, 64
14, 360480, Note_on_c, 13, 50, 63
14, 360960, Note_off_c, 13, 50, 64
14, 360960, Note_on_c, 13, 55, 65
14, 361200, Note_off_c, 13, 55, 64
14, 361920, Note_on_c, 13, 48, 58
14, 362880, Note_off_c, 13, 48, 64
14, 362880, Note_on_c, 13, 50, 64
14, 363840, Note_off_c, 13, 50, 64
14, 363840, Note_on_c, 13, 52, 73
14, 364080, Note_off_c, 13, 52, 64
14, 364320, Note_on_c, 13, 48, 69
14, 364560, Note_off_c, 13, 48, 64
14, 364800, Note_on_c, 13, 43, 77
14, 365040, Note_off_c, 13, 43, 64
14, 365760, Note_on_c, 13, 56, 76
14, 366000, Note_off_c, 13, 56, 64
14, 366240, Note_on_c, 13, 52, 78
14, 366480, Note_off_c, 13, 52, 64
14, 366720, Note_on_c, 13, 57, 70
14, 366960, Note_off_c, 13, 57, 64
14, 367440, Note_on_c, 13, 55, 59
14, 367680, Note_off_c, 13, 55, 64
14, 367680, Note_on_c, 13, 54, 60
14, 367800, Note_off_c, 13, 54, 64
14, 367920, Note_on_c, 13, 52, 81
14, 368040, Note_off_c, 13, 52, 64
14, 368160, Note_on_c, 13, 54, 69
14, 368280, Note_off_c, 13, 54, 64
14, 368400, Note_on_c, 13, 50, 77
14, 368520, Note_off_c, 13, 50, 64
14, 368640, Note_on_c, 13, 55, 63
14, 368880, Note_off_c, 13, 55, 64
14, 369360, Note_on_c, 13, 43, 72
14, 369600, Note_off_c, 13, 43, 64
14, 369600, Note_on_c, 13, 47, 77
14, 369720, Note_off_c, 13, 47, 64
14, 369840, Note_on_c, 13, 45, 76
14, 369960, Note_off_c, 13, 45, 64
14, 370080, Note_on_c, 13, 47, 76
14, 370200, Note_off_c, 13, 47, 64
14, 370320, Note_on_c, 13, 43, 71
14, 370440, Note_off_c, 13, 43, 64
14, 370560, Note_on_c, 13, 48, 43
14, 370800, Note_off_c, 13, 48, 64
14, 370800, Note_on_c, 13, 52, 84
14, 371040, Note_off_c, 13, 52, 64
14, 371040, Note_on_c, 13, 53, 76
14, 371280, Note_off_c, 13, 53, 64
14, 371280, Note_on_c, 13, 50, 67
14, 371520, Note_off_c, 13, 50, 64
14, 371520, Note_on_c, 13, 55, 61
14, 371760, Note_off_c, 13, 55, 64
14, 372000, Note_on_c, 13, 43, 57
14, 372240, Note_off_c, 13, 43, 64
14, 372480, Note_on_c, 13, 48, 84
14, 372720, Note_off_c, 13, 48, 64
14, 373440, Note_on_c, 13, 58, 69
14, 374400, Note_off_c, 13, 58, 64
14, 374400, Note_on_c, 13, 56, 71
14, 374640, Note_off_c, 13, 56, 64
14, 375360, Note_on_c, 13, 55, 69
14, 376320, Note_off_c, 13, 55, 64
14, 376320, Note_on_c, 13, 53, 71
14, 376560, Note_off_c, 13, 53, 64
14, 377280, Note_on_c, 13, 53, 112
14, 377520, Note_off_c, 13, 53, 64
14, 377520, Note_on_c, 13, 53, 58
14, 378240, Note_off_c, 13, 53, 64
14, 378240, Note_on_c, 13, 51, 77
14, 378480, Note_off_c, 13, 51, 64
14, 378720, Note_on_c, 13, 53, 72
14, 378960, Note_off_c, 13, 53, 64
14, 379200, Note_on_c, 13, 55, 73
14, 379440, Note_off_c, 13, 55, 64
14, 379680, Note_on_c, 13, 43, 65
14, 379920, Note_off_c, 13, 43, 64
14, 380160, Note_on_c, 13, 48, 76
14, 380400, Note_off_c, 13, 48, 64
14, 381120, Note_on_c, 13, 48, 73
14, 381360, Note_off_c, 13, 48, 64
14, 382080, Note_on_c, 13, 48, 78
14, 382320, Note_off_c, 13, 48, 64
14, 382320, Note_on_c, 13, 60, 68
14, 382560, Note_off_c, 13, 60, 64
14, 382560, Note_on_c, 13, 59, 81
14, 382800, Note_off_c, 13, 59, 64
14, 382800, Note_on_c, 13, 60, 70
14, 383040, Note_off_c, 13, 60, 64
14, 383040, Note_on_c, 13, 55, 71
14, 383280, Note_off_c, 13, 55, 64
14, 385920, Note_on_c, 13, 55, 89
14, 386160, Note_off_c, 13, 55, 64
14, 386400, Note_on_c, 13, 55, 89
14, 386640, Note_off_c, 13, 55, 64
14, 386880, Note_on_c, 13, 60, 94
14, 387120, Note_off_c, 13, 60, 64
14, 387840, Note_on_c, 13, 55, 89
14, 388080, Note_off_c, 13, 55, 64
14, 388320, Note_on_c, 13, 55, 89
14, 388560, Note_off_c, 13, 55, 64
14, 388800, Note_on_c, 13, 48, 99
14, 389040, Note_off_c, 13, 48, 64
14, 390720, Note_on_c, 13, 48, 95
14, 390960, Note_off_c, 13, 48, 64
14, 392640, Note_on_c, 13, 48, 95
14, 392880, Note_off_c, 13, 48, 64
14, 400320, Note_on_c, 13, 53, 76
14, 400560, Note_off_c, 13, 53, 64
14, 400800, Note_on_c, 13, 54, 73
14, 401040, Note_off_c, 13, 54, 64
14, 401280, Note_on_c, 13, 55, 74
14, 401520, Note_off_c, 13, 55, 64
14, 401760, Note_on_c, 13, 55, 78
14, 402000, Note_off_c, 13, 55, 64
14, 402240, Note_on_c, 13, 48, 89
14, 402480, Note_off_c, 13, 48, 64
14, 404160, Note_on_c, 13, 48, 80
14, 404400, Note_off_c, 13, 48, 64
14, 406080, Note_on_c, 13, 48, 93
14, 406320, Note_off_c, 13, 48, 64
14, 411840, Note_on_c, 13, 53, 39
14, 412800, Note_off_c, 13, 53, 64
14, 412800, Note_on_c, 13, 53, 43
14, 413760, Note_off_c, 13, 53, 64
14, 413760, Note_on_c, 13, 54, 43
14, 414720, Note_off_c, 13, 54, 64
14, 414720, Note_on_c, 13, 55, 44
14, 415680, Note_off_c, 13, 55, 64
14, 415680, Note_on_c, 13, 56, 46
14, 416640, Note_off_c, 13, 56, 64
14, 416640, Note_on_c, 13, 49, 45
14, 416880, Note_off_c, 13, 49, 64
14, 420480, Note_on_c, 13, 53, 62
14, 420960, Note_off_c, 13, 53, 64
14, 420960, Note_on_c, 13, 54, 76
14, 421440, Note_off_c, 13, 54, 64
14, 421440, Note_on_c, 13, 55, 86
14, 421680, Note_off_c, 13, 55, 64
14, 430080, Control_c, 13, 7, 100
14, 430080, Control_c, 13, 10, 98
14, 430080, Control_c, 13, 93, 0
14, 430080, Control_c, 13, 91, 66
14, 431040, Control_c, 13, 7, 100
14, 431040, Control_c, 13, 10, 98
14, 431040, Control_c, 13, 93, 0
14, 431040, Control_c, 13, 91, 66
14, 431040, Note_on_c, 13, 55, 81
14, 431280, Note_off_c, 13, 55, 64
14, 431520, Note_on_c, 13, 55, 85
14, 431760, Note_off_c, 13, 55, 64
14, 432000, Note_on_c, 13, 55, 119
14, 432240, Note_off_c, 13, 55, 64
14, 432480, Note_on_c, 13, 55, 123
14, 432720, Note_off_c, 13, 55, 64
14, 432960, Note_on_c, 13, 48, 119
14, 433440, Note_off_c, 13, 48, 64
14, 433440, Note_on_c, 13, 60, 115
14, 433560, Note_off_c, 13, 60, 64
14, 433680, Note_on_c, 13, 60, 112
14, 433800, Note_off_c, 13, 60, 64
14, 433920, Note_on_c, 13, 58, 93
14, 434040, Note_off_c, 13, 58, 64
14, 434040, Note_on_c, 13, 57, 112
14, 434160, Note_off_c, 13, 57, 64
14, 434160, Note_on_c, 13, 55, 90
14, 434220, Note_off_c, 13, 55, 64
14, 434280, Note_on_c, 13, 53, 94
14, 434340, Note_off_c, 13, 53, 64
14, 434400, Note_on_c, 13, 52, 104
14, 434460, Note_off_c, 13, 52, 64
14, 434520, Note_on_c, 13, 50, 99
14, 434580, Note_off_c, 13, 50, 64
14, 434640, Note_on_c, 13, 48, 101
14, 434700, Note_off_c, 13, 48, 64
14, 434760, Note_on_c, 13, 46, 94
14, 434820, Note_off_c, 13, 46, 64
14, 434880, Note_on_c, 13, 45, 104
14, 435360, Note_off_c, 13, 45, 64
14, 435360, Note_on_c, 13, 57, 105
14, 435480, Note_off_c, 13, 57, 64
14, 435600, Note_on_c, 13, 57, 105
14, 435720, Note_off_c, 13, 57, 64
14, 435840, Note_on_c, 13, 55, 86
14, 435960, Note_off_c, 13, 55, 64
14, 435960, Note_on_c, 13, 53, 94
14, 436080, Note_off_c, 13, 53, 64
14, 436080, Note_on_c, 13, 52, 94
14, 436140, Note_off_c, 13, 52, 64
14, 436200, Note_on_c, 13, 50, 99
14, 436260, Note_off_c, 13, 50, 64
14, 436320, Note_on_c, 13, 48, 99
14, 436380, Note_off_c, 13, 48, 64
14, 436440, Note_on_c, 13, 46, 95
14, 436500, Note_off_c, 13, 46, 64
14, 436560, Note_on_c, 13, 45, 104
14, 436620, Note_off_c, 13, 45, 64
14, 436680, Note_on_c, 13, 43, 98
14, 436740, Note_off_c, 13, 43, 64
14, 436800, Note_on_c, 13, 41, 99
14, 436860, Note_off_c, 13, 41, 64
14, 436860, Note_on_c, 13, 53, 94
14, 436920, Note_off_c, 13, 53, 64
14, 436920, Note_on_c, 13, 53, 94
14, 436980, Note_off_c, 13, 53, 64
14, 436980, Note_on_c, 13, 53, 94
14, 437040, Note_off_c, 13, 53, 64
14, 437040, Note_on_c, 13, 53, 99
14, 437280, Note_off_c, 13, 53, 64
14, 437760, Note_on_c, 13, 41, 99
14, 437880, Note_off_c, 13, 41, 64
14, 437880, Note_on_c, 13, 53, 73
14, 438000, Note_off_c, 13, 53, 64
14, 438000, Note_on_c, 13, 53, 85
14, 438120, Note_off_c, 13, 53, 64
14, 438120, Note_on_c, 13, 53, 84
14, 438240, Note_off_c, 13, 53, 64
14, 438240, Note_on_c, 13, 53, 80
14, 438480, Note_off_c, 13, 53, 64
14, 438720, Note_on_c, 13, 52, 110
14, 439440, Note_off_c, 13, 52, 64
14, 439620, Note_on_c, 13, 48, 99
14, 439680, Note_off_c, 13, 48, 64
14, 439680, Note_on_c, 13, 52, 99
14, 440040, Note_off_c, 13, 52, 64
14, 440100, Note_on_c, 13, 52, 99
14, 440160, Note_off_c, 13, 52, 64
14, 440160, Note_on_c, 13, 48, 94
14, 440520, Note_off_c, 13, 48, 64
14, 440580, Note_on_c, 13, 48, 105
14, 440640, Note_off_c, 13, 48, 64
14, 440640, Note_on_c, 13, 45, 105
14, 441360, Note_off_c, 13, 45, 64
14, 441540, Note_on_c, 13, 57, 104
14, 441600, Note_off_c, 13, 57, 64
14, 441600, Note_on_c, 13, 60, 94
14, 441960, Note_off_c, 13, 60, 64
14, 442020, Note_on_c, 13, 60, 94
14, 442080, Note_off_c, 13, 60, 64
14, 442080, Note_on_c, 13, 57, 107
14, 442440, Note_off_c, 13, 57, 64
14, 442500, Note_on_c, 13, 57, 105
14, 442560, Note_off_c, 13, 57, 64
14, 442560, Note_on_c, 13, 54, 119
14, 442920, Note_off_c, 13, 54, 64
14, 442980, Note_on_c, 13, 54, 119
14, 443040, Note_off_c, 13, 54, 64
14, 443040, Note_on_c, 13, 57, 127
14, 443400, Note_off_c, 13, 57, 64
14, 443460, Note_on_c, 13, 60, 119
14, 443520, Note_off_c, 13, 60, 64
14, 443520, Note_on_c, 13, 63, 125
14, 443880, Note_off_c, 13, 63, 64
14, 443940, Note_on_c, 13, 60, 119
14, 444000, Note_off_c, 13, 60, 64
14, 444000, Note_on_c, 13, 57, 125
14, 444360, Note_off_c, 13, 57, 64
14, 444420, Note_on_c, 13, 54, 119
14, 444480, Note_off_c, 13, 54, 64
14, 444480, Note_on_c, 13, 55, 117
14, 445440, Control_c, 13, 7, 100
14, 445440, Control_c, 13, 10, 98
14, 445440, Control_c, 13, 93, 0
14, 445440, Control_c, 13, 91, 66
14, 445920, Note_off_c, 13, 55, 64
14, 479520, Note_on_c, 13, 48, 125
14, 479760, Note_off_c, 13, 48, 64
14, 480480, Note_on_c, 13, 48, 99
14, 480720, Note_off_c, 13, 48, 64
14, 481440, Note_on_c, 13, 55, 84
14, 481680, Note_off_c, 13, 55, 64
14, 481920, Note_on_c, 13, 55, 89
14, 482160, Note_off_c, 13, 55, 64
14, 482400, Note_on_c, 13, 60, 85
14, 482640, Note_off_c, 13, 60, 64
14, 483360, Note_on_c, 13, 55, 81
14, 483600, Note_off_c, 13, 55, 64
14, 483840, Note_on_c, 13, 43, 86
14, 484080, Note_off_c, 13, 43, 64
14, 484320, Note_on_c, 13, 60, 119
14, 484560, Note_off_c, 13, 60, 64
14, 485280, Note_on_c, 13, 48, 119
14, 485760, Note_off_c, 13, 48, 64
14, 485760, Note_on_c, 13, 60, 119
14, 485880, Note_off_c, 13, 60, 64
14, 486000, Note_on_c, 13, 60, 123
14, 486120, Note_off_c, 13, 60, 64
14, 486240, Note_on_c, 13, 60, 119
14, 486480, Note_off_c, 13, 60, 64
14, 487200, Note_on_c, 13, 52, 125
14, 487680, Note_off_c, 13, 52, 64
14, 487680, Note_on_c, 13, 64, 125
14, 487800, Note_off_c, 13, 64, 64
14, 487920, Note_on_c, 13, 64, 125
14, 488040, Note_off_c, 13, 64, 64
14, 488160, Note_on_c, 13, 55, 127
14, 488640, Note_off_c, 13, 55, 64
14, 488760, Note_on_c, 13, 53, 119
14, 488820, Note_off_c, 13, 53, 64
14, 488820, Note_on_c, 13, 52, 119
14, 488880, Note_off_c, 13, 52, 64
14, 488880, Note_on_c, 13, 50, 123
14, 488940, Note_off_c, 13, 50, 64
14, 488940, Note_on_c, 13, 48, 119
14, 489000, Note_off_c, 13, 48, 64
14, 489000, Note_on_c, 13, 47, 125
14, 489060, Note_off_c, 13, 47, 64
14, 489060, Note_on_c, 13, 45, 127
14, 489120, Note_off_c, 13, 45, 64
14, 489120, Note_on_c, 13, 43, 117
14, 489360, Note_off_c, 13, 43, 64
14, 489600, Note_on_c, 13, 55, 117
14, 489840, Note_off_c, 13, 55, 64
14, 490080, Note_on_c, 13, 60, 119
14, 490320, Note_off_c, 13, 60, 64
14, 490500, Note_on_c, 13, 48, 123
14, 490560, Note_off_c, 13, 48, 64
14, 490560, Note_on_c, 13, 48, 127
14, 490800, Note_off_c, 13, 48, 64
14, 490980, Note_on_c, 13, 48, 125
14, 491040, Note_off_c, 13, 48, 64
14, 491040, Note_on_c, 13, 48, 127
14, 491280, Note_off_c, 13, 48, 64
14, 491280, End_track
15, 0, Start_track
15, 0, Title_t, "Contrabasses"
15, 0, Program_c, 14, 48
15, 0, Control_c, 14, 7, 100
15, 0, Control_c, 14, 10, 113
15, 0, Control_c, 14, 93, 0
15, 0, Control_c, 14, 91, 66
15, 0, Note_on_c, 14, 36, 80
15, 480, Note_off_c, 14, 36, 64
15, 480, Note_on_c, 14, 36, 80
15, 600, Note_off_c, 14, 36, 64
15, 720, Note_on_c, 14, 36, 59
15, 840, Note_off_c, 14, 36, 64
15, 960, Note_on_c, 14, 36, 67
15, 1080, Note_off_c, 14, 36, 64
15, 1920, Note_on_c, 14, 48, 65
15, 2040, Note_off_c, 14, 48, 64
15, 2160, Note_on_c, 14, 47, 85
15, 2280, Note_off_c, 14, 47, 64
15, 2400, Note_on_c, 14, 48, 85
15, 2520, Note_off_c, 14, 48, 64
15, 2640, Note_on_c, 14, 43, 81
15, 2760, Note_off_c, 14, 43, 64
15, 2880, Note_on_c, 14, 36, 84
15, 3000, Note_off_c, 14, 36, 64
15, 3120, Note_on_c, 14, 43, 81
15, 3240, Note_off_c, 14, 43, 64
15, 3840, Note_on_c, 14, 31, 80
15, 4320, Note_off_c, 14, 31, 64
15, 4320, Note_on_c, 14, 43, 68
15, 4440, Note_off_c, 14, 43, 64
15, 4560, Note_on_c, 14, 43, 50
15, 4680, Note_off_c, 14, 43, 64
15, 4800, Note_on_c, 14, 43, 61
15, 4920, Note_off_c, 14, 43, 64
15, 5760, Note_on_c, 14, 43, 73
15, 5880, Note_off_c, 14, 43, 64
15, 6000, Note_on_c, 14, 52, 71
15, 6120, Note_off_c, 14, 52, 64
15, 6240, Note_on_c, 14, 50, 77
15, 6360, Note_off_c, 14, 50, 64
15, 6480, Note_on_c, 14, 48, 84
15, 6600, Note_off_c, 14, 48, 64
15, 6720, Note_on_c, 14, 43, 80
15, 6840, Note_off_c, 14, 43, 64
15, 6960, Note_on_c, 14, 48, 76
15, 7080, Note_off_c, 14, 48, 64
15, 7680, Note_on_c, 14, 53, 80
15, 8160, Note_off_c, 14, 53, 64
15, 8160, Note_on_c, 14, 53, 80
15, 8400, Note_off_c, 14, 53, 64
15, 8400, Note_on_c, 14, 53, 80
15, 8640, Note_off_c, 14, 53, 64
15, 8640, Note_on_c, 14, 52, 80
15, 9600, Note_off_c, 14, 52, 64
15, 9600, Note_on_c, 14, 47, 80
15, 9840, Note_off_c, 14, 47, 64
15, 9840, Note_on_c, 14, 47, 80
15, 10080, Note_off_c, 14, 47, 64
15, 10080, Note_on_c, 14, 47, 80
15, 10320, Note_off_c, 14, 47, 64
15, 10320, Note_on_c, 14, 47, 80
15, 10560, Note_off_c, 14, 47, 64
15, 10560, Note_on_c, 14, 48, 80
15, 10800, Note_off_c, 14, 48, 64
15, 11520, Note_on_c, 14, 41, 65
15, 12000, Note_off_c, 14, 41, 64
15, 12000, Note_on_c, 14, 41, 76
15, 12120, Note_off_c, 14, 41, 64
15, 12240, Note_on_c, 14, 41, 94
15, 12360, Note_off_c, 14, 41, 64
15, 12480, Note_on_c, 14, 41, 89
15, 12960, Note_off_c, 14, 41, 64
15, 12960, Note_on_c, 14, 40, 99
15, 13440, Note_off_c, 14, 40, 64
15, 13440, Note_on_c, 14, 41, 95
15, 13920, Note_off_c, 14, 41, 64
15, 13920, Note_on_c, 14, 43, 98
15, 14400, Note_off_c, 14, 43, 64
15, 14400, Note_on_c, 14, 36, 73
15, 14880, Note_off_c, 14, 36, 64
15, 16320, Note_on_c, 14, 48, 105
15, 16440, Note_off_c, 14, 48, 64
15, 16560, Note_on_c, 14, 47, 105
15, 16680, Note_off_c, 14, 47, 64
15, 16800, Note_on_c, 14, 48, 105
15, 16920, Note_off_c, 14, 48, 64
15, 17040, Note_on_c, 14, 43, 105
15, 17160, Note_off_c, 14, 43, 64
15, 17280, Note_on_c, 14, 48, 105
15, 17400, Note_off_c, 14, 48, 64
15, 17520, Note_on_c, 14, 43, 105
15, 17640, Note_off_c, 14, 43, 64
15, 18240, Note_on_c, 14, 31, 80
15, 18720, Note_off_c, 14, 31, 64
15, 20160, Note_on_c, 14, 43, 115
15, 20280, Note_off_c, 14, 43, 64
15, 20400, Note_on_c, 14, 40, 119
15, 20520, Note_off_c, 14, 40, 64
15, 20640, Note_on_c, 14, 38, 123
15, 20760, Note_off_c, 14, 38, 64
15, 20880, Note_on_c, 14, 36, 119
15, 21000, Note_off_c, 14, 36, 64
15, 21120, Note_on_c, 14, 31, 119
15, 21240, Note_off_c, 14, 31, 64
15, 21360, Note_on_c, 14, 36, 125
15, 21480, Note_off_c, 14, 36, 64
15, 22620, Note_on_c, 14, 36, 80
15, 22680, Note_off_c, 14, 36, 64
15, 22680, Note_on_c, 14, 38, 80
15, 22740, Note_off_c, 14, 38, 64
15, 22740, Note_on_c, 14, 40, 80
15, 22800, Note_off_c, 14, 40, 64
15, 22800, Note_on_c, 14, 41, 80
15, 22860, Note_off_c, 14, 41, 64
15, 22860, Note_on_c, 14, 43, 80
15, 22920, Note_off_c, 14, 43, 64
15, 22920, Note_on_c, 14, 45, 80
15, 22980, Note_off_c, 14, 45, 64
15, 22980, Note_on_c, 14, 47, 80
15, 23040, Note_off_c, 14, 47, 64
15, 23040, Note_on_c, 14, 48, 115
15, 23160, Note_off_c, 14, 48, 64
15, 23280, Note_on_c, 14, 48, 119
15, 23400, Note_off_c, 14, 48, 64
15, 23520, Note_on_c, 14, 45, 119
15, 23640, Note_off_c, 14, 45, 64
15, 23760, Note_on_c, 14, 41, 117
15, 23880, Note_off_c, 14, 41, 64
15, 24000, Note_on_c, 14, 36, 80
15, 24240, Note_off_c, 14, 36, 64
15, 24540, Note_on_c, 14, 36, 80
15, 24600, Note_off_c, 14, 36, 64
15, 24600, Note_on_c, 14, 38, 80
15, 24660, Note_off_c, 14, 38, 64
15, 24660, Note_on_c, 14, 40, 80
15, 24720, Note_off_c, 14, 40, 64
15, 24720, Note_on_c, 14, 41, 80
15, 24780, Note_off_c, 14, 41, 64
15, 24780, Note_on_c, 14, 43, 80
15, 24840, Note_off_c, 14, 43, 64
15, 24840, Note_on_c, 14, 45, 80
15, 24900, Note_off_c, 14, 45, 64
15, 24900, Note_on_c, 14, 47, 80
15, 24960, Note_off_c, 14, 47, 64
15, 24960, Note_on_c, 14, 48, 117
15, 25080, Note_off_c, 14, 48, 64
15, 25200, Note_on_c, 14, 43, 117
15, 25320, Note_off_c, 14, 43, 64
15, 25440, Note_on_c, 14, 40, 123
15, 25560, Note_off_c, 14, 40, 64
15, 25680, Note_on_c, 14, 36, 127
15, 25800, Note_off_c, 14, 36, 64
15, 25920, Note_on_c, 14, 38, 125
15, 26040, Note_off_c, 14, 38, 64
15, 26160, Note_on_c, 14, 50, 119
15, 26280, Note_off_c, 14, 50, 64
15, 26400, Note_on_c, 14, 29, 119
15, 26520, Note_off_c, 14, 29, 64
15, 26640, Note_on_c, 14, 41, 123
15, 26760, Note_off_c, 14, 41, 64
15, 26880, Note_on_c, 14, 31, 125
15, 27000, Note_off_c, 14, 31, 64
15, 27120, Note_on_c, 14, 43, 119
15, 27240, Note_off_c, 14, 43, 64
15, 27360, Note_on_c, 14, 35, 125
15, 27480, Note_off_c, 14, 35, 64
15, 27600, Note_on_c, 14, 47, 119
15, 27720, Note_off_c, 14, 47, 64
15, 27840, Note_on_c, 14, 36, 80
15, 28080, Note_off_c, 14, 36, 64
15, 28800, Note_on_c, 14, 36, 80
15, 29040, Note_off_c, 14, 36, 64
15, 29340, Note_on_c, 14, 36, 80
15, 29400, Note_off_c, 14, 36, 64
15, 29400, Note_on_c, 14, 38, 80
15, 29460, Note_off_c, 14, 38, 64
15, 29460, Note_on_c, 14, 40, 80
15, 29520, Note_off_c, 14, 40, 64
15, 29520, Note_on_c, 14, 41, 80
15, 29580, Note_off_c, 14, 41, 64
15, 29580, Note_on_c, 14, 43, 80
15, 29640, Note_off_c, 14, 43, 64
15, 29640, Note_on_c, 14, 45, 80
15, 29700, Note_off_c, 14, 45, 64
15, 29700, Note_on_c, 14, 47, 80
15, 29760, Note_off_c, 14, 47, 64
15, 29760, Note_on_c, 14, 48, 80
15, 30240, Note_off_c, 14, 48, 64
15, 30240, Note_on_c, 14, 45, 80
15, 30720, Note_off_c, 14, 45, 64
15, 30720, Note_on_c, 14, 41, 80
15, 30960, Note_off_c, 14, 41, 64
15, 31260, Note_on_c, 14, 36, 80
15, 31320, Note_off_c, 14, 36, 64
15, 31320, Note_on_c, 14, 38, 80
15, 31380, Note_off_c, 14, 38, 64
15, 31380, Note_on_c, 14, 40, 80
15, 31440, Note_off_c, 14, 40, 64
15, 31440, Note_on_c, 14, 41, 80
15, 31500, Note_off_c, 14, 41, 64
15, 31500, Note_on_c, 14, 43, 80
15, 31560, Note_off_c, 14, 43, 64
15, 31560, Note_on_c, 14, 45, 80
15, 31620, Note_off_c, 14, 45, 64
15, 31620, Note_on_c, 14, 47, 80
15, 31680, Note_off_c, 14, 47, 64
15, 31680, Note_on_c, 14, 48, 80
15, 32160, Note_off_c, 14, 48, 64
15, 32160, Note_on_c, 14, 43, 80
15, 32640, Note_off_c, 14, 43, 64
15, 32640, Note_on_c, 14, 40, 80
15, 32880, Note_off_c, 14, 40, 64
15, 32880, Note_on_c, 14, 36, 80
15, 33120, Note_off_c, 14, 36, 64
15, 33360, Note_on_c, 14, 36, 80
15, 33600, Note_off_c, 14, 36, 64
15, 33600, Note_on_c, 14, 33, 80
15, 33720, Note_off_c, 14, 33, 64
15, 33720, Note_on_c, 14, 45, 80
15, 33840, Note_off_c, 14, 45, 64
15, 33840, Note_on_c, 14, 45, 80
15, 33960, Note_off_c, 14, 45, 64
15, 33960, Note_on_c, 14, 45, 80
15, 34080, Note_off_c, 14, 45, 64
15, 34080, Note_on_c, 14, 45, 80
15, 34200, Note_off_c, 14, 45, 64
15, 34200, Note_on_c, 14, 45, 80
15, 34320, Note_off_c, 14, 45, 64
15, 34320, Note_on_c, 14, 45, 80
15, 34440, Note_off_c, 14, 45, 64
15, 34440, Note_on_c, 14, 45, 80
15, 34560, Note_off_c, 14, 45, 64
15, 34560, Note_on_c, 14, 45, 80
15, 34680, Note_off_c, 14, 45, 64
15, 34680, Note_on_c, 14, 45, 80
15, 34800, Note_off_c, 14, 45, 64
15, 34800, Note_on_c, 14, 45, 80
15, 34920, Note_off_c, 14, 45, 64
15, 34920, Note_on_c, 14, 45, 80
15, 35040, Note_off_c, 14, 45, 64
15, 35040, Note_on_c, 14, 45, 80
15, 35160, Note_off_c, 14, 45, 64
15, 35160, Note_on_c, 14, 45, 80
15, 35280, Note_off_c, 14, 45, 64
15, 35280, Note_on_c, 14, 45, 80
15, 35400, Note_off_c, 14, 45, 64
15, 35400, Note_on_c, 14, 45, 80
15, 35520, Note_off_c, 14, 45, 64
15, 35520, Note_on_c, 14, 43, 80
15, 35760, Note_off_c, 14, 43, 64
15, 36480, Note_on_c, 14, 43, 80
15, 36720, Note_off_c, 14, 43, 64
15, 37440, Note_on_c, 14, 43, 80
15, 37680, Note_off_c, 14, 43, 64
15, 38400, Note_on_c, 14, 43, 80
15, 38640, Note_off_c, 14, 43, 64
15, 39360, Note_on_c, 14, 43, 119
15, 39480, Note_off_c, 14, 43, 64
15, 39480, Note_on_c, 14, 31, 123
15, 39600, Note_off_c, 14, 31, 64
15, 39600, Note_on_c, 14, 33, 125
15, 39720, Note_off_c, 14, 33, 64
15, 39720, Note_on_c, 14, 35, 117
15, 39840, Note_off_c, 14, 35, 64
15, 39840, Note_on_c, 14, 36, 123
15, 39960, Note_off_c, 14, 36, 64
15, 39960, Note_on_c, 14, 38, 117
15, 40080, Note_off_c, 14, 38, 64
15, 40080, Note_on_c, 14, 40, 119
15, 40200, Note_off_c, 14, 40, 64
15, 40200, Note_on_c, 14, 42, 119
15, 40320, Note_off_c, 14, 42, 64
15, 40320, Note_on_c, 14, 43, 123
15, 40440, Note_off_c, 14, 43, 64
15, 40440, Note_on_c, 14, 31, 119
15, 40560, Note_off_c, 14, 31, 64
15, 40560, Note_on_c, 14, 33, 123
15, 40680, Note_off_c, 14, 33, 64
15, 40680, Note_on_c, 14, 35, 119
15, 40800, Note_off_c, 14, 35, 64
15, 40800, Note_on_c, 14, 36, 119
15, 40920, Note_off_c, 14, 36, 64
15, 40920, Note_on_c, 14, 38, 115
15, 41040, Note_off_c, 14, 38, 64
15, 41040, Note_on_c, 14, 40, 119
15, 41160, Note_off_c, 14, 40, 64
15, 41160, Note_on_c, 14, 42, 115
15, 41280, Note_off_c, 14, 42, 64
15, 41280, Note_on_c, 14, 43, 127
15, 41400, Note_off_c, 14, 43, 64
15, 41520, Note_on_c, 14, 36, 125
15, 41640, Note_off_c, 14, 36, 64
15, 41760, Note_on_c, 14, 43, 125
15, 41880, Note_off_c, 14, 43, 64
15, 42000, Note_on_c, 14, 36, 127
15, 42120, Note_off_c, 14, 36, 64
15, 42240, Note_on_c, 14, 43, 125
15, 42360, Note_off_c, 14, 43, 64
15, 42660, Note_on_c, 14, 43, 123
15, 42720, Note_off_c, 14, 43, 64
15, 42720, Note_on_c, 14, 43, 125
15, 42960, Note_off_c, 14, 43, 64
15, 43140, Note_on_c, 14, 31, 127
15, 43200, Note_off_c, 14, 31, 64
15, 43200, Note_on_c, 14, 31, 123
15, 43440, Note_off_c, 14, 31, 64
15, 46080, Note_on_c, 14, 39, 80
15, 47040, Note_off_c, 14, 39, 64
15, 47040, Note_on_c, 14, 41, 80
15, 48000, Note_off_c, 14, 41, 64
15, 48000, Note_on_c, 14, 43, 80
15, 48480, Note_off_c, 14, 43, 64
15, 48480, Note_on_c, 14, 39, 80
15, 48960, Note_off_c, 14, 39, 64
15, 48960, Note_on_c, 14, 34, 80
15, 49200, Note_off_c, 14, 34, 64
15, 49920, Note_on_c, 14, 46, 80
15, 50160, Note_off_c, 14, 46, 64
15, 50400, Note_on_c, 14, 44, 80
15, 50640, Note_off_c, 14, 44, 64
15, 50880, Note_on_c, 14, 43, 80
15, 51120, Note_off_c, 14, 43, 64
15, 51360, Note_on_c, 14, 41, 80
15, 51600, Note_off_c, 14, 41, 64
15, 51840, Note_on_c, 14, 40, 80
15, 52080, Note_off_c, 14, 40, 64
15, 52320, Note_on_c, 14, 36, 80
15, 52560, Note_off_c, 14, 36, 64
15, 52800, Note_on_c, 14, 41, 80
15, 53760, Note_off_c, 14, 41, 64
15, 53760, Note_on_c, 14, 43, 80
15, 54720, Note_off_c, 14, 43, 64
15, 54720, Note_on_c, 14, 44, 80
15, 55200, Note_off_c, 14, 44, 64
15, 55200, Note_on_c, 14, 41, 80
15, 55680, Note_off_c, 14, 41, 64
15, 55680, Note_on_c, 14, 36, 80
15, 55920, Note_off_c, 14, 36, 64
15, 56640, Note_on_c, 14, 48, 80
15, 56880, Note_off_c, 14, 48, 64
15, 57120, Note_on_c, 14, 46, 80
15, 57360, Note_off_c, 14, 46, 64
15, 57600, Note_on_c, 14, 45, 80
15, 57840, Note_off_c, 14, 45, 64
15, 58080, Note_on_c, 14, 43, 80
15, 58320, Note_off_c, 14, 43, 64
15, 58560, Note_on_c, 14, 42, 80
15, 58800, Note_off_c, 14, 42, 64
15, 59040, Note_on_c, 14, 38, 80
15, 59280, Note_off_c, 14, 38, 64
15, 59520, Note_on_c, 14, 43, 80
15, 60480, Note_off_c, 14, 43, 64
15, 60480, Note_on_c, 14, 43, 80
15, 61440, Note_off_c, 14, 43, 64
15, 61440, Note_on_c, 14, 46, 80
15, 61920, Note_off_c, 14, 46, 64
15, 61920, Note_on_c, 14, 43, 80
15, 62400, Note_off_c, 14, 43, 64
15, 62400, Note_on_c, 14, 42, 80
15, 62880, Note_off_c, 14, 42, 64
15, 62880, Note_on_c, 14, 38, 80
15, 63360, Note_off_c, 14, 38, 64
15, 63360, Note_on_c, 14, 43, 80
15, 63840, Note_off_c, 14, 43, 64
15, 63840, Note_on_c, 14, 41, 80
15, 64320, Note_off_c, 14, 41, 64
15, 64320, Note_on_c, 14, 39, 80
15, 64800, Note_off_c, 14, 39, 64
15, 64800, Note_on_c, 14, 36, 80
15, 65280, Note_off_c, 14, 36, 64
15, 65280, Note_on_c, 14, 35, 80
15, 65760, Note_off_c, 14, 35, 64
15, 65760, Note_on_c, 14, 31, 80
15, 66240, Note_off_c, 14, 31, 64
15, 66240, Note_on_c, 14, 36, 80
15, 66480, Note_off_c, 14, 36, 64
15, 66720, Note_on_c, 14, 43, 40
15, 66960, Note_off_c, 14, 43, 64
15, 67200, Note_on_c, 14, 39, 31
15, 67440, Note_off_c, 14, 39, 64
15, 67680, Note_on_c, 14, 36, 41
15, 67920, Note_off_c, 14, 36, 64
15, 68160, Note_on_c, 14, 31, 40
15, 68400, Note_off_c, 14, 31, 64
15, 69120, Note_on_c, 14, 37, 29
15, 70080, Note_off_c, 14, 37, 64
15, 70080, Note_on_c, 14, 38, 45
15, 71040, Note_off_c, 14, 38, 64
15, 71040, Note_on_c, 14, 35, 29
15, 72000, Note_off_c, 14, 35, 64
15, 72000, Note_on_c, 14, 36, 119
15, 72480, Note_off_c, 14, 36, 64
15, 72480, Note_on_c, 14, 48, 123
15, 72600, Note_off_c, 14, 48, 64
15, 72720, Note_on_c, 14, 48, 125
15, 72840, Note_off_c, 14, 48, 64
15, 72960, Note_on_c, 14, 48, 119
15, 73080, Note_off_c, 14, 48, 64
15, 73080, Note_on_c, 14, 46, 125
15, 73200, Note_off_c, 14, 46, 64
15, 73200, Note_on_c, 14, 45, 119
15, 73260, Note_off_c, 14, 45, 64
15, 73320, Note_on_c, 14, 43, 119
15, 73380, Note_off_c, 14, 43, 64
15, 73440, Note_on_c, 14, 42, 123
15, 73500, Note_off_c, 14, 42, 64
15, 73560, Note_on_c, 14, 40, 127
15, 73620, Note_off_c, 14, 40, 64
15, 73680, Note_on_c, 14, 38, 127
15, 73740, Note_off_c, 14, 38, 64
15, 73800, Note_on_c, 14, 36, 125
15, 73860, Note_off_c, 14, 36, 64
15, 73920, Note_on_c, 14, 34, 119
15, 74400, Note_off_c, 14, 34, 64
15, 74400, Note_on_c, 14, 46, 125
15, 74520, Note_off_c, 14, 46, 64
15, 74640, Note_on_c, 14, 46, 125
15, 74760, Note_off_c, 14, 46, 64
15, 74880, Note_on_c, 14, 46, 125
15, 75000, Note_off_c, 14, 46, 64
15, 75000, Note_on_c, 14, 45, 125
15, 75120, Note_off_c, 14, 45, 64
15, 75120, Note_on_c, 14, 43, 125
15, 75180, Note_off_c, 14, 43, 64
15, 75240, Note_on_c, 14, 41, 123
15, 75300, Note_off_c, 14, 41, 64
15, 75360, Note_on_c, 14, 40, 127
15, 75420, Note_off_c, 14, 40, 64
15, 75480, Note_on_c, 14, 38, 125
15, 75540, Note_off_c, 14, 38, 64
15, 75600, Note_on_c, 14, 36, 125
15, 75660, Note_off_c, 14, 36, 64
15, 75720, Note_on_c, 14, 34, 117
15, 75780, Note_off_c, 14, 34, 64
15, 75840, Note_on_c, 14, 33, 119
15, 75960, Note_off_c, 14, 33, 64
15, 75960, Note_on_c, 14, 34, 123
15, 76080, Note_off_c, 14, 34, 64
15, 76080, Note_on_c, 14, 36, 119
15, 76200, Note_off_c, 14, 36, 64
15, 76200, Note_on_c, 14, 38, 123
15, 76320, Note_off_c, 14, 38, 64
15, 76320, Note_on_c, 14, 40, 119
15, 76440, Note_off_c, 14, 40, 64
15, 76440, Note_on_c, 14, 41, 115
15, 76560, Note_off_c, 14, 41, 64
15, 76560, Note_on_c, 14, 43, 119
15, 76680, Note_off_c, 14, 43, 64
15, 76680, Note_on_c, 14, 45, 125
15, 76800, Note_off_c, 14, 45, 64
15, 76800, Note_on_c, 14, 43, 115
15, 76920, Note_off_c, 14, 43, 64
15, 76920, Note_on_c, 14, 41, 112
15, 77040, Note_off_c, 14, 41, 64
15, 77040, Note_on_c, 14, 40, 115
15, 77160, Note_off_c, 14, 40, 64
15, 77160, Note_on_c, 14, 38, 115
15, 77280, Note_off_c, 14, 38, 64
15, 77280, Note_on_c, 14, 36, 115
15, 77400, Note_off_c, 14, 36, 64
15, 77400, Note_on_c, 14, 34, 119
15, 77520, Note_off_c, 14, 34, 64
15, 77520, Note_on_c, 14, 33, 112
15, 77640, Note_off_c, 14, 33, 64
15, 77640, Note_on_c, 14, 31, 115
15, 77760, Note_off_c, 14, 31, 64
15, 77760, Note_on_c, 14, 29, 119
15, 77880, Note_off_c, 14, 29, 64
15, 77880, Note_on_c, 14, 41, 117
15, 78000, Note_off_c, 14, 41, 64
15, 78000, Note_on_c, 14, 41, 119
15, 78120, Note_off_c, 14, 41, 64
15, 78120, Note_on_c, 14, 41, 119
15, 78240, Note_off_c, 14, 41, 64
15, 78240, Note_on_c, 14, 41, 123
15, 78480, Note_off_c, 14, 41, 64
15, 78720, Note_on_c, 14, 29, 123
15, 78840, Note_off_c, 14, 29, 64
15, 78840, Note_on_c, 14, 41, 119
15, 78960, Note_off_c, 14, 41, 64
15, 78960, Note_on_c, 14, 41, 119
15, 79080, Note_off_c, 14, 41, 64
15, 79080, Note_on_c, 14, 41, 119
15, 79200, Note_off_c, 14, 41, 64
15, 79200, Note_on_c, 14, 41, 125
15, 79440, Note_off_c, 14, 41, 64
15, 79680, Note_on_c, 14, 40, 117
15, 79800, Note_off_c, 14, 40, 64
15, 79800, Note_on_c, 14, 38, 115
15, 79920, Note_off_c, 14, 38, 64
15, 79920, Note_on_c, 14, 40, 107
15, 80040, Note_off_c, 14, 40, 64
15, 80040, Note_on_c, 14, 36, 115
15, 80160, Note_off_c, 14, 36, 64
15, 80160, Note_on_c, 14, 41, 115
15, 80280, Note_off_c, 14, 41, 64
15, 80280, Note_on_c, 14, 40, 117
15, 80400, Note_off_c, 14, 40, 64
15, 80400, Note_on_c, 14, 41, 115
15, 80520, Note_off_c, 14, 41, 64
15, 80520, Note_on_c, 14, 38, 119
15, 80640, Note_off_c, 14, 38, 64
15, 80640, Note_on_c, 14, 43, 107
15, 80760, Note_off_c, 14, 43, 64
15, 80760, Note_on_c, 14, 40, 115
15, 80880, Note_off_c, 14, 40, 64
15, 80880, Note_on_c, 14, 36, 112
15, 81000, Note_off_c, 14, 36, 64
15, 81000, Note_on_c, 14, 40, 115
15, 81120, Note_off_c, 14, 40, 64
15, 81120, Note_on_c, 14, 31, 112
15, 81240, Note_off_c, 14, 31, 64
15, 81240, Note_on_c, 14, 35, 104
15, 81360, Note_off_c, 14, 35, 64
15, 81360, Note_on_c, 14, 38, 123
15, 81480, Note_off_c, 14, 38, 64
15, 81480, Note_on_c, 14, 43, 119
15, 81600, Note_off_c, 14, 43, 64
15, 81600, Note_on_c, 14, 36, 80
15, 81840, Note_off_c, 14, 36, 64
15, 82560, Note_on_c, 14, 36, 80
15, 82800, Note_off_c, 14, 36, 64
15, 83520, Note_on_c, 14, 36, 85
15, 83640, Note_off_c, 14, 36, 64
15, 83760, Note_on_c, 14, 36, 86
15, 83880, Note_off_c, 14, 36, 64
15, 84000, Note_on_c, 14, 35, 80
15, 84120, Note_off_c, 14, 35, 64
15, 84240, Note_on_c, 14, 36, 86
15, 84360, Note_off_c, 14, 36, 64
15, 84480, Note_on_c, 14, 31, 80
15, 84720, Note_off_c, 14, 31, 64
15, 85440, Note_on_c, 14, 36, 80
15, 85680, Note_off_c, 14, 36, 64
15, 86400, Note_on_c, 14, 36, 80
15, 86640, Note_off_c, 14, 36, 64
15, 87360, Note_on_c, 14, 43, 80
15, 87600, Note_off_c, 14, 43, 64
15, 87840, Note_on_c, 14, 43, 80
15, 88080, Note_off_c, 14, 43, 64
15, 88320, Note_on_c, 14, 48, 80
15, 88560, Note_off_c, 14, 48, 64
15, 89280, Note_on_c, 14, 43, 80
15, 89520, Note_off_c, 14, 43, 64
15, 89760, Note_on_c, 14, 31, 80
15, 90000, Note_off_c, 14, 31, 64
15, 90240, Note_on_c, 14, 36, 93
15, 90360, Note_off_c, 14, 36, 64
15, 90360, Note_on_c, 14, 48, 94
15, 90480, Note_off_c, 14, 48, 64
15, 90480, Note_on_c, 14, 48, 93
15, 90600, Note_off_c, 14, 48, 64
15, 90600, Note_on_c, 14, 48, 95
15, 90720, Note_off_c, 14, 48, 64
15, 90720, Note_on_c, 14, 45, 107
15, 90840, Note_off_c, 14, 45, 64
15, 90840, Note_on_c, 14, 45, 104
15, 90960, Note_off_c, 14, 45, 64
15, 90960, Note_on_c, 14, 45, 101
15, 91080, Note_off_c, 14, 45, 64
15, 91080, Note_on_c, 14, 45, 105
15, 91200, Note_off_c, 14, 45, 64
15, 91200, Note_on_c, 14, 41, 94
15, 91320, Note_off_c, 14, 41, 64
15, 91320, Note_on_c, 14, 41, 90
15, 91440, Note_off_c, 14, 41, 64
15, 91440, Note_on_c, 14, 41, 94
15, 91560, Note_off_c, 14, 41, 64
15, 91560, Note_on_c, 14, 41, 85
15, 91680, Note_off_c, 14, 41, 64
15, 91680, Note_on_c, 14, 43, 84
15, 91800, Note_off_c, 14, 43, 64
15, 91800, Note_on_c, 14, 43, 84
15, 91920, Note_off_c, 14, 43, 64
15, 91920, Note_on_c, 14, 43, 86
15, 92040, Note_off_c, 14, 43, 64
15, 92040, Note_on_c, 14, 43, 89
15, 92160, Note_off_c, 14, 43, 64
15, 92160, Note_on_c, 14, 36, 112
15, 92280, Note_off_c, 14, 36, 64
15, 92280, Note_on_c, 14, 48, 105
15, 92400, Note_off_c, 14, 48, 64
15, 92400, Note_on_c, 14, 48, 119
15, 92520, Note_off_c, 14, 48, 64
15, 92520, Note_on_c, 14, 48, 112
15, 92640, Note_off_c, 14, 48, 64
15, 92640, Note_on_c, 14, 45, 112
15, 92760, Note_off_c, 14, 45, 64
15, 92760, Note_on_c, 14, 45, 105
15, 92880, Note_off_c, 14, 45, 64
15, 92880, Note_on_c, 14, 45, 110
15, 93000, Note_off_c, 14, 45, 64
15, 93000, Note_on_c, 14, 45, 104
15, 93120, Note_off_c, 14, 45, 64
15, 93120, Note_on_c, 14, 41, 86
15, 93240, Note_off_c, 14, 41, 64
15, 93240, Note_on_c, 14, 41, 99
15, 93360, Note_off_c, 14, 41, 64
15, 93360, Note_on_c, 14, 38, 95
15, 93480, Note_off_c, 14, 38, 64
15, 93480, Note_on_c, 14, 38, 95
15, 93600, Note_off_c, 14, 38, 64
15, 93600, Note_on_c, 14, 43, 90
15, 93720, Note_off_c, 14, 43, 64
15, 93720, Note_on_c, 14, 43, 99
15, 93840, Note_off_c, 14, 43, 64
15, 93840, Note_on_c, 14, 31, 84
15, 93960, Note_off_c, 14, 31, 64
15, 93960, Note_on_c, 14, 31, 95
15, 94080, Note_off_c, 14, 31, 64
15, 94080, Note_on_c, 14, 36, 80
15, 94320, Note_off_c, 14, 36, 64
15, 95040, Note_on_c, 14, 36, 125
15, 95520, Note_off_c, 14, 36, 64
15, 95520, Note_on_c, 14, 48, 123
15, 95640, Note_off_c, 14, 48, 64
15, 95760, Note_on_c, 14, 48, 119
15, 95880, Note_off_c, 14, 48, 64
15, 96000, Note_on_c, 14, 48, 125
15, 96240, Note_off_c, 14, 48, 64
15, 96960, Note_on_c, 14, 40, 125
15, 97440, Note_off_c, 14, 40, 64
15, 97440, Note_on_c, 14, 52, 125
15, 97560, Note_off_c, 14, 52, 64
15, 97680, Note_on_c, 14, 52, 127
15, 97800, Note_off_c, 14, 52, 64
15, 97920, Note_on_c, 14, 43, 80
15, 98400, Note_off_c, 14, 43, 64
15, 98400, Note_on_c, 14, 43, 80
15, 98520, Note_off_c, 14, 43, 64
15, 98520, Note_on_c, 14, 41, 80
15, 98580, Note_off_c, 14, 41, 64
15, 98580, Note_on_c, 14, 40, 80
15, 98640, Note_off_c, 14, 40, 64
15, 98640, Note_on_c, 14, 38, 80
15, 98700, Note_off_c, 14, 38, 64
15, 98700, Note_on_c, 14, 36, 80
15, 98760, Note_off_c, 14, 36, 64
15, 98760, Note_on_c, 14, 35, 80
15, 98820, Note_off_c, 14, 35, 64
15, 98820, Note_on_c, 14, 33, 80
15, 98880, Note_off_c, 14, 33, 64
15, 98880, Note_on_c, 14, 31, 80
15, 99120, Note_off_c, 14, 31, 64
15, 99360, Note_on_c, 14, 43, 80
15, 99600, Note_off_c, 14, 43, 64
15, 99840, Note_on_c, 14, 48, 80
15, 100080, Note_off_c, 14, 48, 64
15, 100260, Note_on_c, 14, 36, 80
15, 100320, Note_off_c, 14, 36, 64
15, 100320, Note_on_c, 14, 36, 80
15, 100560, Note_off_c, 14, 36, 64
15, 100740, Note_on_c, 14, 36, 80
15, 100800, Note_off_c, 14, 36, 64
15, 100800, Note_on_c, 14, 36, 80
15, 101040, Note_off_c, 14, 36, 64
15, 109440, Note_on_c, 14, 40, 80
15, 110400, Note_off_c, 14, 40, 64
15, 110400, Note_on_c, 14, 41, 80
15, 111360, Note_off_c, 14, 41, 64
15, 111360, Note_on_c, 14, 43, 80
15, 111600, Note_off_c, 14, 43, 64
15, 111600, Note_on_c, 14, 31, 80
15, 111840, Note_off_c, 14, 31, 64
15, 111840, Note_on_c, 14, 31, 80
15, 112080, Note_off_c, 14, 31, 64
15, 112080, Note_on_c, 14, 31, 80
15, 112320, Note_off_c, 14, 31, 64
15, 112320, Note_on_c, 14, 36, 80
15, 112800, Note_off_c, 14, 36, 64
15, 115440, Note_on_c, 14, 43, 80
15, 115680, Note_off_c, 14, 43, 64
15, 115680, Note_on_c, 14, 40, 80
15, 115920, Note_off_c, 14, 40, 64
15, 115920, Note_on_c, 14, 36, 80
15, 116160, Note_off_c, 14, 36, 64
15, 116160, Note_on_c, 14, 31, 80
15, 116640, Note_off_c, 14, 31, 64
15, 119280, Note_on_c, 14, 47, 80
15, 119520, Note_off_c, 14, 47, 64
15, 119760, Note_on_c, 14, 45, 80
15, 120000, Note_off_c, 14, 45, 64
15, 120000, Note_on_c, 14, 44, 80
15, 120240, Note_off_c, 14, 44, 64
15, 121920, Note_on_c, 14, 48, 80
15, 122160, Note_off_c, 14, 48, 64
15, 122400, Note_on_c, 14, 48, 80
15, 122640, Note_off_c, 14, 48, 64
15, 122880, Note_on_c, 14, 48, 80
15, 123120, Note_off_c, 14, 48, 64
15, 125760, Note_on_c, 14, 47, 80
15, 126000, Note_off_c, 14, 47, 64
15, 126240, Note_on_c, 14, 47, 80
15, 126480, Note_off_c, 14, 47, 64
15, 126720, Note_on_c, 14, 47, 80
15, 126960, Note_off_c, 14, 47, 64
15, 127680, Note_on_c, 14, 45, 80
15, 128640, Note_off_c, 14, 45, 64
15, 128640, Note_on_c, 14, 47, 80
15, 129600, Note_off_c, 14, 47, 64
15, 129600, Note_on_c, 14, 42, 80
15, 130560, Note_off_c, 14, 42, 64
15, 130560, Note_on_c, 14, 43, 80
15, 131520, Note_off_c, 14, 43, 64
15, 131520, Note_on_c, 14, 45, 80
15, 132480, Note_off_c, 14, 45, 64
15, 132480, Note_on_c, 14, 46, 80
15, 133440, Note_off_c, 14, 46, 64
15, 133440, Note_on_c, 14, 46, 80
15, 133680, Note_off_c, 14, 46, 64
15, 133680, Note_on_c, 14, 34, 80
15, 133920, Note_off_c, 14, 34, 64
15, 133920, Note_on_c, 14, 38, 80
15, 134160, Note_off_c, 14, 38, 64
15, 134160, Note_on_c, 14, 34, 80
15, 134400, Note_off_c, 14, 34, 64
15, 134400, Note_on_c, 14, 39, 80
15, 134880, Note_off_c, 14, 39, 64
15, 134880, Note_on_c, 14, 38, 80
15, 135120, Note_off_c, 14, 38, 64
15, 135120, Note_on_c, 14, 34, 80
15, 135360, Note_off_c, 14, 34, 64
15, 135360, Note_on_c, 14, 39, 80
15, 135840, Note_off_c, 14, 39, 64
15, 135840, Note_on_c, 14, 38, 80
15, 136080, Note_off_c, 14, 38, 64
15, 136080, Note_on_c, 14, 34, 80
15, 136320, Note_off_c, 14, 34, 64
15, 136320, Note_on_c, 14, 39, 80
15, 136560, Note_off_c, 14, 39, 64
15, 136800, Note_on_c, 14, 39, 80
15, 137280, Note_off_c, 14, 39, 64
15, 137280, Note_on_c, 14, 39, 80
15, 138240, Note_off_c, 14, 39, 64
15, 138240, Note_on_c, 14, 38, 80
15, 138480, Note_off_c, 14, 38, 64
15, 144960, Note_on_c, 14, 38, 81
15, 145080, Note_off_c, 14, 38, 64
15, 145200, Note_on_c, 14, 50, 68
15, 145320, Note_off_c, 14, 50, 64
15, 145440, Note_on_c, 14, 50, 78
15, 145560, Note_off_c, 14, 50, 64
15, 145680, Note_on_c, 14, 50, 68
15, 145800, Note_off_c, 14, 50, 64
15, 145920, Note_on_c, 14, 50, 70
15, 146040, Note_off_c, 14, 50, 64
15, 146400, Note_on_c, 14, 38, 29
15, 146520, Note_off_c, 14, 38, 64
15, 146880, Note_on_c, 14, 38, 35
15, 147000, Note_off_c, 14, 38, 64
15, 147840, Note_on_c, 14, 43, 80
15, 148800, Note_off_c, 14, 43, 64
15, 148800, Note_on_c, 14, 45, 80
15, 149760, Note_off_c, 14, 45, 64
15, 149760, Note_on_c, 14, 47, 80
15, 150240, Note_off_c, 14, 47, 64
15, 150240, Note_on_c, 14, 43, 80
15, 150720, Note_off_c, 14, 43, 64
15, 150720, Note_on_c, 14, 38, 80
15, 150960, Note_off_c, 14, 38, 64
15, 151680, Note_on_c, 14, 39, 80
15, 152160, Note_off_c, 14, 39, 64
15, 152160, Note_on_c, 14, 35, 80
15, 152640, Note_off_c, 14, 35, 64
15, 152640, Note_on_c, 14, 40, 80
15, 153120, Note_off_c, 14, 40, 64
15, 153120, Note_on_c, 14, 31, 80
15, 153600, Note_off_c, 14, 31, 64
15, 153600, Note_on_c, 14, 33, 80
15, 154080, Note_off_c, 14, 33, 64
15, 154080, Note_on_c, 14, 33, 80
15, 154560, Note_off_c, 14, 33, 64
15, 154560, Note_on_c, 14, 38, 80
15, 154800, Note_off_c, 14, 38, 64
15, 155520, Note_on_c, 14, 43, 80
15, 156480, Note_off_c, 14, 43, 64
15, 156480, Note_on_c, 14, 45, 80
15, 157440, Note_off_c, 14, 45, 64
15, 157440, Note_on_c, 14, 47, 80
15, 157680, Note_off_c, 14, 47, 64
15, 157920, Note_on_c, 14, 43, 80
15, 158160, Note_off_c, 14, 43, 64
15, 158400, Note_on_c, 14, 38, 80
15, 158640, Note_off_c, 14, 38, 64
15, 159360, Note_on_c, 14, 39, 80
15, 159840, Note_off_c, 14, 39, 64
15, 159840, Note_on_c, 14, 35, 80
15, 160320, Note_off_c, 14, 35, 64
15, 160320, Note_on_c, 14, 40, 80
15, 160560, Note_off_c, 14, 40, 64
15, 161040, Note_on_c, 14, 38, 80
15, 161280, Note_off_c, 14, 38, 64
15, 161280, Note_on_c, 14, 37, 80
15, 161520, Note_off_c, 14, 37, 64
15, 161520, Note_on_c, 14, 35, 80
15, 161760, Note_off_c, 14, 35, 64
15, 161760, Note_on_c, 14, 37, 80
15, 162000, Note_off_c, 14, 37, 64
15, 162000, Note_on_c, 14, 33, 80
15, 162240, Note_off_c, 14, 33, 64
15, 162240, Note_on_c, 14, 38, 80
15, 162480, Note_off_c, 14, 38, 64
15, 162960, Note_on_c, 14, 38, 80
15, 163200, Note_off_c, 14, 38, 64
15, 163200, Note_on_c, 14, 42, 80
15, 163440, Note_off_c, 14, 42, 64
15, 163440, Note_on_c, 14, 40, 80
15, 163680, Note_off_c, 14, 40, 64
15, 163680, Note_on_c, 14, 42, 80
15, 163920, Note_off_c, 14, 42, 64
15, 163920, Note_on_c, 14, 40, 80
15, 164160, Note_off_c, 14, 40, 64
15, 164160, Note_on_c, 14, 43, 80
15, 164400, Note_off_c, 14, 43, 64
15, 164640, Note_on_c, 14, 36, 80
15, 164880, Note_off_c, 14, 36, 64
15, 165120, Note_on_c, 14, 38, 80
15, 165360, Note_off_c, 14, 38, 64
15, 165600, Note_on_c, 14, 38, 80
15, 165840, Note_off_c, 14, 38, 64
15, 166080, Note_on_c, 14, 43, 80
15, 166320, Note_off_c, 14, 43, 64
15, 167040, Note_on_c, 14, 41, 80
15, 168000, Note_off_c, 14, 41, 64
15, 168000, Note_on_c, 14, 39, 80
15, 168240, Note_off_c, 14, 39, 64
15, 168960, Note_on_c, 14, 38, 80
15, 169920, Note_off_c, 14, 38, 64
15, 169920, Note_on_c, 14, 36, 80
15, 170160, Note_off_c, 14, 36, 64
15, 170880, Note_on_c, 14, 48, 80
15, 171840, Note_off_c, 14, 48, 64
15, 171840, Note_on_c, 14, 46, 80
15, 172080, Note_off_c, 14, 46, 64
15, 172320, Note_on_c, 14, 48, 80
15, 172560, Note_off_c, 14, 48, 64
15, 172800, Note_on_c, 14, 50, 80
15, 173040, Note_off_c, 14, 50, 64
15, 173280, Note_on_c, 14, 38, 80
15, 173520, Note_off_c, 14, 38, 64
15, 173760, Note_on_c, 14, 43, 80
15, 174000, Note_off_c, 14, 43, 64
15, 174720, Note_on_c, 14, 43, 80
15, 174960, Note_off_c, 14, 43, 64
15, 175920, Note_on_c, 14, 43, 80
15, 176160, Note_off_c, 14, 43, 64
15, 176160, Note_on_c, 14, 42, 80
15, 176400, Note_off_c, 14, 42, 64
15, 176400, Note_on_c, 14, 43, 80
15, 176640, Note_off_c, 14, 43, 64
15, 176640, Note_on_c, 14, 38, 80
15, 176880, Note_off_c, 14, 38, 64
15, 179520, Note_on_c, 14, 38, 80
15, 179760, Note_off_c, 14, 38, 64
15, 180000, Note_on_c, 14, 38, 80
15, 180240, Note_off_c, 14, 38, 64
15, 180480, Note_on_c, 14, 43, 80
15, 180720, Note_off_c, 14, 43, 64
15, 181440, Note_on_c, 14, 38, 80
15, 181680, Note_off_c, 14, 38, 64
15, 181920, Note_on_c, 14, 38, 80
15, 182160, Note_off_c, 14, 38, 64
15, 182400, Note_on_c, 14, 43, 80
15, 182640, Note_off_c, 14, 43, 64
15, 184320, Note_on_c, 14, 43, 80
15, 184560, Note_off_c, 14, 43, 64
15, 186240, Note_on_c, 14, 43, 80
15, 186480, Note_off_c, 14, 43, 64
15, 193920, Note_on_c, 14, 48, 80
15, 194160, Note_off_c, 14, 48, 64
15, 194400, Note_on_c, 14, 49, 80
15, 194640, Note_off_c, 14, 49, 64
15, 194880, Note_on_c, 14, 50, 80
15, 195120, Note_off_c, 14, 50, 64
15, 195360, Note_on_c, 14, 38, 80
15, 195600, Note_off_c, 14, 38, 64
15, 195840, Note_on_c, 14, 43, 80
15, 196080, Note_off_c, 14, 43, 64
15, 197760, Note_on_c, 14, 43, 80
15, 198000, Note_off_c, 14, 43, 64
15, 199680, Note_on_c, 14, 43, 80
15, 199920, Note_off_c, 14, 43, 64
15, 205440, Note_on_c, 14, 48, 80
15, 206400, Note_off_c, 14, 48, 64
15, 206400, Note_on_c, 14, 48, 80
15, 207360, Note_off_c, 14, 48, 64
15, 207360, Note_on_c, 14, 49, 80
15, 208320, Note_off_c, 14, 49, 64
15, 208320, Note_on_c, 14, 50, 80
15, 209280, Note_off_c, 14, 50, 64
15, 209280, Note_on_c, 14, 51, 80
15, 210240, Note_off_c, 14, 51, 64
15, 210240, Note_on_c, 14, 44, 80
15, 210480, Note_off_c, 14, 44, 64
15, 214080, Note_on_c, 14, 36, 80
15, 214560, Note_off_c, 14, 36, 64
15, 214560, Note_on_c, 14, 37, 80
15, 215040, Note_off_c, 14, 37, 64
15, 215040, Note_on_c, 14, 38, 80
15, 215280, Note_off_c, 14, 38, 64
15, 224640, Note_on_c, 14, 38, 80
15, 224640, Note_on_c, 14, 38, 80
15, 224880, Note_off_c, 14, 38, 64
15, 224880, Note_off_c, 14, 38, 64
15, 225600, Note_on_c, 14, 38, 80
15, 225600, Note_on_c, 14, 38, 80
15, 225600, Note_on_c, 14, 38, 80
15, 225840, Note_off_c, 14, 38, 64
15, 225840, Note_off_c, 14, 38, 64
15, 225840, Note_off_c, 14, 38, 64
15, 226080, Note_on_c, 14, 38, 80
15, 226080, Note_on_c, 14, 38, 80
15, 226080, Note_on_c, 14, 38, 80
15, 226320, Note_off_c, 14, 38, 64
15, 226320, Note_off_c, 14, 38, 64
15, 226320, Note_off_c, 14, 38, 64
15, 226560, Note_on_c, 14, 43, 80
15, 226560, Note_on_c, 14, 43, 80
15, 226560, Note_on_c, 14, 43, 80
15, 227520, Note_off_c, 14, 43, 64
15, 227520, Note_off_c, 14, 43, 64
15, 227520, Note_off_c, 14, 43, 64
15, 227520, Note_on_c, 14, 37, 80
15, 228480, Note_off_c, 14, 37, 64
15, 228480, Note_on_c, 14, 38, 101
15, 229440, Note_off_c, 14, 38, 64
15, 229440, Note_on_c, 14, 35, 84
15, 230400, Note_off_c, 14, 35, 64
15, 230400, Note_on_c, 14, 36, 119
15, 230880, Note_off_c, 14, 36, 64
15, 230880, Note_on_c, 14, 48, 117
15, 231120, Note_off_c, 14, 48, 64
15, 231120, Note_on_c, 14, 48, 115
15, 231360, Note_off_c, 14, 48, 64
15, 231360, Note_on_c, 14, 48, 112
15, 231480, Note_off_c, 14, 48, 64
15, 231480, Note_on_c, 14, 47, 112
15, 231600, Note_off_c, 14, 47, 64
15, 231600, Note_on_c, 14, 45, 115
15, 231720, Note_off_c, 14, 45, 64
15, 231720, Note_on_c, 14, 43, 115
15, 231840, Note_off_c, 14, 43, 64
15, 231840, Note_on_c, 14, 42, 112
15, 231960, Note_off_c, 14, 42, 64
15, 231960, Note_on_c, 14, 40, 115
15, 232080, Note_off_c, 14, 40, 64
15, 232080, Note_on_c, 14, 38, 119
15, 232200, Note_off_c, 14, 38, 64
15, 232200, Note_on_c, 14, 36, 115
15, 232320, Note_off_c, 14, 36, 64
15, 232320, Note_on_c, 14, 35, 94
15, 232800, Note_off_c, 14, 35, 64
15, 232800, Note_on_c, 14, 50, 82
15, 233040, Note_off_c, 14, 50, 64
15, 233040, Note_on_c, 14, 50, 86
15, 233280, Note_off_c, 14, 50, 64
15, 233280, Note_on_c, 14, 50, 80
15, 233400, Note_off_c, 14, 50, 64
15, 233400, Note_on_c, 14, 48, 84
15, 233520, Note_off_c, 14, 48, 64
15, 233520, Note_on_c, 14, 47, 89
15, 233580, Note_off_c, 14, 47, 64
15, 233640, Note_on_c, 14, 45, 95
15, 233700, Note_off_c, 14, 45, 64
15, 233760, Note_on_c, 14, 44, 93
15, 233820, Note_off_c, 14, 44, 64
15, 233880, Note_on_c, 14, 42, 86
15, 233940, Note_off_c, 14, 42, 64
15, 234000, Note_on_c, 14, 40, 99
15, 234060, Note_off_c, 14, 40, 64
15, 234120, Note_on_c, 14, 38, 98
15, 234180, Note_off_c, 14, 38, 64
15, 234240, Note_on_c, 14, 36, 94
15, 234360, Note_off_c, 14, 36, 64
15, 234360, Note_on_c, 14, 51, 81
15, 234480, Note_off_c, 14, 51, 64
15, 234480, Note_on_c, 14, 52, 94
15, 234600, Note_off_c, 14, 52, 64
15, 234600, Note_on_c, 14, 47, 94
15, 234720, Note_off_c, 14, 47, 64
15, 234720, Note_on_c, 14, 48, 94
15, 234840, Note_off_c, 14, 48, 64
15, 234840, Note_on_c, 14, 47, 94
15, 234960, Note_off_c, 14, 47, 64
15, 234960, Note_on_c, 14, 48, 94
15, 235080, Note_off_c, 14, 48, 64
15, 235080, Note_on_c, 14, 44, 84
15, 235200, Note_off_c, 14, 44, 64
15, 235200, Note_on_c, 14, 45, 98
15, 235320, Note_off_c, 14, 45, 64
15, 235320, Note_on_c, 14, 47, 95
15, 235440, Note_off_c, 14, 47, 64
15, 235440, Note_on_c, 14, 48, 90
15, 235560, Note_off_c, 14, 48, 64
15, 235560, Note_on_c, 14, 47, 90
15, 235680, Note_off_c, 14, 47, 64
15, 235680, Note_on_c, 14, 45, 99
15, 235800, Note_off_c, 14, 45, 64
15, 235800, Note_on_c, 14, 43, 86
15, 235920, Note_off_c, 14, 43, 64
15, 235920, Note_on_c, 14, 42, 89
15, 236040, Note_off_c, 14, 42, 64
15, 236040, Note_on_c, 14, 40, 98
15, 236160, Note_off_c, 14, 40, 64
15, 236160, Note_on_c, 14, 38, 98
15, 236280, Note_off_c, 14, 38, 64
15, 236280, Note_on_c, 14, 50, 84
15, 236400, Note_off_c, 14, 50, 64
15, 236400, Note_on_c, 14, 50, 84
15, 236520, Note_off_c, 14, 50, 64
15, 236520, Note_on_c, 14, 50, 89
15, 236640, Note_off_c, 14, 50, 64
15, 236640, Note_on_c, 14, 40, 95
15, 236760, Note_off_c, 14, 40, 64
15, 236760, Note_on_c, 14, 52, 89
15, 236880, Note_off_c, 14, 52, 64
15, 236880, Note_on_c, 14, 52, 89
15, 237000, Note_off_c, 14, 52, 64
15, 237000, Note_on_c, 14, 52, 94
15, 237120, Note_off_c, 14, 52, 64
15, 237120, Note_on_c, 14, 36, 70
15, 237240, Note_off_c, 14, 36, 64
15, 237240, Note_on_c, 14, 48, 89
15, 237360, Note_off_c, 14, 48, 64
15, 237360, Note_on_c, 14, 48, 89
15, 237480, Note_off_c, 14, 48, 64
15, 237480, Note_on_c, 14, 48, 93
15, 237600, Note_off_c, 14, 48, 64
15, 237600, Note_on_c, 14, 38, 95
15, 237720, Note_off_c, 14, 38, 64
15, 237720, Note_on_c, 14, 50, 93
15, 237840, Note_off_c, 14, 50, 64
15, 237840, Note_on_c, 14, 50, 86
15, 237960, Note_off_c, 14, 50, 64
15, 237960, Note_on_c, 14, 50, 84
15, 238080, Note_off_c, 14, 50, 64
15, 238080, Note_on_c, 14, 43, 80
15, 238320, Note_off_c, 14, 43, 64
15, 240120, Note_on_c, 14, 31, 80
15, 240180, Note_off_c, 14, 31, 64
15, 240240, Note_on_c, 14, 33, 90
15, 240300, Note_off_c, 14, 33, 64
15, 240360, Note_on_c, 14, 35, 84
15, 240420, Note_off_c, 14, 35, 64
15, 240480, Note_on_c, 14, 36, 71
15, 240540, Note_off_c, 14, 36, 64
15, 240600, Note_on_c, 14, 38, 84
15, 240660, Note_off_c, 14, 38, 64
15, 240720, Note_on_c, 14, 40, 76
15, 240780, Note_off_c, 14, 40, 64
15, 240840, Note_on_c, 14, 42, 80
15, 240900, Note_off_c, 14, 42, 64
15, 240960, Note_on_c, 14, 43, 74
15, 241080, Note_off_c, 14, 43, 64
15, 241200, Note_on_c, 14, 40, 93
15, 241320, Note_off_c, 14, 40, 64
15, 241440, Note_on_c, 14, 36, 84
15, 241560, Note_off_c, 14, 36, 64
15, 241680, Note_on_c, 14, 38, 73
15, 241800, Note_off_c, 14, 38, 64
15, 241920, Note_on_c, 14, 31, 86
15, 242160, Note_off_c, 14, 31, 64
15, 242400, Note_on_c, 14, 38, 95
15, 242640, Note_off_c, 14, 38, 64
15, 242880, Note_on_c, 14, 43, 90
15, 243120, Note_off_c, 14, 43, 64
15, 243360, Note_on_c, 14, 38, 95
15, 243600, Note_off_c, 14, 38, 64
15, 243840, Note_on_c, 14, 31, 94
15, 244080, Note_off_c, 14, 31, 64
15, 244260, Note_on_c, 14, 43, 80
15, 244320, Note_off_c, 14, 43, 64
15, 244320, Note_on_c, 14, 43, 80
15, 244560, Note_off_c, 14, 43, 64
15, 244740, Note_on_c, 14, 31, 80
15, 244800, Note_off_c, 14, 31, 64
15, 244800, Note_on_c, 14, 31, 80
15, 245040, Note_off_c, 14, 31, 64
15, 245760, Note_on_c, 14, 31, 80
15, 246240, Note_off_c, 14, 31, 64
15, 246240, Note_on_c, 14, 43, 61
15, 246360, Note_off_c, 14, 43, 64
15, 246480, Note_on_c, 14, 43, 67
15, 246600, Note_off_c, 14, 43, 64
15, 246720, Note_on_c, 14, 43, 69
15, 246840, Note_off_c, 14, 43, 64
15, 247680, Note_on_c, 14, 32, 80
15, 248160, Note_off_c, 14, 32, 64
15, 248160, Note_on_c, 14, 44, 76
15, 248280, Note_off_c, 14, 44, 64
15, 248400, Note_on_c, 14, 44, 57
15, 248520, Note_off_c, 14, 44, 64
15, 248640, Note_on_c, 14, 44, 62
15, 248760, Note_off_c, 14, 44, 64
15, 249600, Note_on_c, 14, 32, 80
15, 250080, Note_off_c, 14, 32, 64
15, 250080, Note_on_c, 14, 44, 89
15, 250200, Note_off_c, 14, 44, 64
15, 250320, Note_on_c, 14, 44, 89
15, 250440, Note_off_c, 14, 44, 64
15, 250560, Note_on_c, 14, 43, 99
15, 250680, Note_off_c, 14, 43, 64
15, 251520, Note_on_c, 14, 44, 80
15, 251760, Note_off_c, 14, 44, 64
15, 252480, Note_on_c, 14, 46, 80
15, 252720, Note_off_c, 14, 46, 64
15, 253440, Note_on_c, 14, 34, 80
15, 253680, Note_off_c, 14, 34, 64
15, 253920, Note_on_c, 14, 34, 80
15, 254160, Note_off_c, 14, 34, 64
15, 254400, Note_on_c, 14, 39, 80
15, 254640, Note_off_c, 14, 39, 64
15, 254640, Control_c, 14, 7, 100
15, 254640, Control_c, 14, 10, 113
15, 254640, Control_c, 14, 93, 0
15, 254640, Control_c, 14, 91, 66
15, 257280, Note_on_c, 14, 39, 80
15, 258240, Note_off_c, 14, 39, 64
15, 258240, Note_on_c, 14, 41, 80
15, 258480, Note_off_c, 14, 41, 64
15, 261120, Note_on_c, 14, 41, 80
15, 262080, Note_off_c, 14, 41, 64
15, 262080, Note_on_c, 14, 43, 80
15, 262320, Note_off_c, 14, 43, 64
15, 264960, Note_on_c, 14, 43, 80
15, 265920, Note_off_c, 14, 43, 64
15, 265920, Note_on_c, 14, 44, 80
15, 266160, Note_off_c, 14, 44, 64
15, 266160, Control_c, 14, 7, 100
15, 266160, Control_c, 14, 10, 113
15, 266160, Control_c, 14, 93, 0
15, 266160, Control_c, 14, 91, 66
15, 266400, Control_c, 14, 7, 100
15, 266400, Control_c, 14, 10, 113
15, 266400, Control_c, 14, 93, 0
15, 266400, Control_c, 14, 91, 66
15, 266640, Control_c, 14, 7, 100
15, 266640, Control_c, 14, 10, 113
15, 266640, Control_c, 14, 93, 0
15, 266640, Control_c, 14, 91, 66
15, 266880, Control_c, 14, 7, 100
15, 266880, Control_c, 14, 10, 113
15, 266880, Control_c, 14, 93, 0
15, 266880, Control_c, 14, 91, 66
15, 266880, Note_on_c, 14, 34, 80
15, 267120, Note_off_c, 14, 34, 64
15, 267120, Control_c, 14, 7, 100
15, 267120, Control_c, 14, 10, 113
15, 267120, Control_c, 14, 93, 0
15, 267120, Control_c, 14, 91, 66
15, 267360, Control_c, 14, 7, 100
15, 267360, Control_c, 14, 10, 113
15, 267360, Control_c, 14, 93, 0
15, 267360, Control_c, 14, 91, 66
15, 267360, Note_on_c, 14, 34, 80
15, 267600, Note_off_c, 14, 34, 64
15, 267600, Control_c, 14, 7, 100
15, 267600, Control_c, 14, 10, 113
15, 267600, Control_c, 14, 93, 0
15, 267600, Control_c, 14, 91, 66
15, 279360, Note_on_c, 14, 36, 80
15, 279600, Note_off_c, 14, 36, 64
15, 280320, Control_c, 14, 7, 100
15, 280320, Control_c, 14, 10, 113
15, 280320, Control_c, 14, 93, 0
15, 280320, Control_c, 14, 91, 66
15, 280320, Note_on_c, 14, 41, 80
15, 280560, Note_off_c, 14, 41, 64
15, 281280, Note_on_c, 14, 43, 80
15, 281520, Note_off_c, 14, 43, 64
15, 282240, Note_on_c, 14, 36, 80
15, 282480, Note_off_c, 14, 36, 64
15, 283200, Note_on_c, 14, 29, 80
15, 283440, Note_off_c, 14, 29, 64
15, 284160, Note_on_c, 14, 41, 80
15, 284400, Note_off_c, 14, 41, 64
15, 285120, Note_on_c, 14, 43, 80
15, 285360, Note_off_c, 14, 43, 64
15, 286080, Note_on_c, 14, 31, 80
15, 286320, Note_off_c, 14, 31, 64
15, 287040, Note_on_c, 14, 36, 80
15, 287280, Note_off_c, 14, 36, 64
15, 288000, Note_on_c, 14, 48, 80
15, 288240, Note_off_c, 14, 48, 64
15, 288960, Note_on_c, 14, 42, 80
15, 289200, Note_off_c, 14, 42, 64
15, 289920, Note_on_c, 14, 42, 80
15, 290160, Note_off_c, 14, 42, 64
15, 290880, Note_on_c, 14, 43, 80
15, 291120, Note_off_c, 14, 43, 64
15, 292800, Note_on_c, 14, 43, 80
15, 293040, Note_off_c, 14, 43, 64
15, 293760, Note_on_c, 14, 43, 80
15, 294000, Note_off_c, 14, 43, 64
15, 294720, Note_on_c, 14, 43, 80
15, 294960, Note_off_c, 14, 43, 64
15, 296640, Note_on_c, 14, 43, 80
15, 296880, Note_off_c, 14, 43, 64
15, 297600, Note_on_c, 14, 43, 80
15, 297840, Note_off_c, 14, 43, 64
15, 298560, Note_on_c, 14, 43, 80
15, 298800, Note_off_c, 14, 43, 64
15, 302400, Note_on_c, 14, 31, 80
15, 302640, Note_off_c, 14, 31, 64
15, 308160, Note_on_c, 14, 31, 80
15, 309120, Note_off_c, 14, 31, 64
15, 309120, Note_on_c, 14, 31, 80
15, 310080, Note_off_c, 14, 31, 64
15, 310080, Note_on_c, 14, 31, 80
15, 310800, Control_c, 14, 7, 100
15, 310800, Control_c, 14, 10, 113
15, 310800, Control_c, 14, 93, 0
15, 310800, Control_c, 14, 91, 66
15, 311040, Note_off_c, 14, 31, 64
15, 311040, Note_on_c, 14, 31, 80
15, 311040, Control_c, 14, 7, 100
15, 311040, Control_c, 14, 10, 113
15, 311040, Control_c, 14, 93, 0
15, 311040, Control_c, 14, 91, 66
15, 311280, Control_c, 14, 7, 100
15, 311280, Control_c, 14, 10, 113
15, 311280, Control_c, 14, 93, 0
15, 311280, Control_c, 14, 91, 66
15, 311520, Control_c, 14, 7, 100
15, 311520, Control_c, 14, 10, 113
15, 311520, Control_c, 14, 93, 0
15, 311520, Control_c, 14, 91, 66
15, 311760, Control_c, 14, 7, 100
15, 311760, Control_c, 14, 10, 113
15, 311760, Control_c, 14, 93, 0
15, 311760, Control_c, 14, 91, 66
15, 312000, Note_off_c, 14, 31, 64
15, 312000, Note_on_c, 14, 32, 80
15, 312000, Control_c, 14, 7, 100
15, 312000, Control_c, 14, 10, 113
15, 312000, Control_c, 14, 93, 0
15, 312000, Control_c, 14, 91, 66
15, 312240, Control_c, 14, 7, 100
15, 312240, Control_c, 14, 10, 113
15, 312240, Control_c, 14, 93, 0
15, 312240, Control_c, 14, 91, 66
15, 312480, Control_c, 14, 7, 100
15, 312480, Control_c, 14, 10, 113
15, 312480, Control_c, 14, 93, 0
15, 312480, Control_c, 14, 91, 66
15, 312720, Control_c, 14, 7, 100
15, 312720, Control_c, 14, 10, 113
15, 312720, Control_c, 14, 93, 0
15, 312720, Control_c, 14, 91, 66
15, 312960, Note_off_c, 14, 32, 64
15, 312960, Note_on_c, 14, 33, 80
15, 313920, Note_off_c, 14, 33, 64
15, 313920, Note_on_c, 14, 31, 80
15, 314160, Note_off_c, 14, 31, 64
15, 315840, Note_on_c, 14, 31, 80
15, 316080, Note_off_c, 14, 31, 64
15, 330240, Note_on_c, 14, 31, 80
15, 330480, Note_off_c, 14, 31, 64
15, 331200, Note_on_c, 14, 36, 80
15, 331200, Note_on_c, 14, 36, 80
15, 331200, Note_on_c, 14, 36, 80
15, 331680, Note_off_c, 14, 36, 64
15, 331680, Note_off_c, 14, 36, 64
15, 331680, Note_off_c, 14, 36, 64
15, 331680, Note_on_c, 14, 36, 125
15, 331800, Note_off_c, 14, 36, 64
15, 331920, Note_on_c, 14, 36, 127
15, 332040, Note_off_c, 14, 36, 64
15, 332160, Note_on_c, 14, 36, 127
15, 332400, Note_off_c, 14, 36, 64
15, 333120, Note_on_c, 14, 48, 125
15, 333240, Note_off_c, 14, 48, 64
15, 333360, Note_on_c, 14, 47, 127
15, 333480, Note_off_c, 14, 47, 64
15, 333600, Note_on_c, 14, 48, 127
15, 333720, Note_off_c, 14, 48, 64
15, 333840, Note_on_c, 14, 43, 127
15, 333960, Note_off_c, 14, 43, 64
15, 334080, Note_on_c, 14, 48, 125
15, 334200, Note_off_c, 14, 48, 64
15, 334320, Note_on_c, 14, 43, 123
15, 334440, Note_off_c, 14, 43, 64
15, 335040, Note_on_c, 14, 31, 125
15, 335520, Note_off_c, 14, 31, 64
15, 335520, Note_on_c, 14, 43, 125
15, 335640, Note_off_c, 14, 43, 64
15, 335760, Note_on_c, 14, 43, 125
15, 335880, Note_off_c, 14, 43, 64
15, 336000, Note_on_c, 14, 43, 125
15, 336240, Note_off_c, 14, 43, 64
15, 336960, Note_on_c, 14, 43, 125
15, 337080, Note_off_c, 14, 43, 64
15, 337200, Note_on_c, 14, 40, 127
15, 337320, Note_off_c, 14, 40, 64
15, 337440, Note_on_c, 14, 38, 127
15, 337560, Note_off_c, 14, 38, 64
15, 337680, Note_on_c, 14, 36, 125
15, 337800, Note_off_c, 14, 36, 64
15, 337920, Note_on_c, 14, 31, 127
15, 338040, Note_off_c, 14, 31, 64
15, 338160, Note_on_c, 14, 36, 125
15, 338280, Note_off_c, 14, 36, 64
15, 342720, Note_on_c, 14, 45, 72
15, 342960, Note_off_c, 14, 45, 64
15, 343680, Note_on_c, 14, 38, 68
15, 343920, Note_off_c, 14, 38, 64
15, 344640, Note_on_c, 14, 43, 68
15, 344880, Note_off_c, 14, 43, 64
15, 351360, Note_on_c, 14, 43, 58
15, 351480, Note_off_c, 14, 43, 64
15, 351600, Note_on_c, 14, 43, 46
15, 351720, Note_off_c, 14, 43, 64
15, 351840, Note_on_c, 14, 43, 56
15, 351960, Note_off_c, 14, 43, 64
15, 352080, Note_on_c, 14, 43, 65
15, 352200, Note_off_c, 14, 43, 64
15, 352320, Note_on_c, 14, 43, 69
15, 352440, Note_off_c, 14, 43, 64
15, 352800, Note_on_c, 14, 43, 41
15, 352920, Note_off_c, 14, 43, 64
15, 353280, Note_on_c, 14, 31, 80
15, 353400, Note_off_c, 14, 31, 64
15, 354240, Note_on_c, 14, 36, 76
15, 355200, Note_off_c, 14, 36, 64
15, 355200, Note_on_c, 14, 38, 72
15, 356160, Note_off_c, 14, 38, 64
15, 356160, Note_on_c, 14, 40, 73
15, 356640, Note_off_c, 14, 40, 64
15, 356640, Note_on_c, 14, 36, 82
15, 357120, Note_off_c, 14, 36, 64
15, 357120, Note_on_c, 14, 43, 74
15, 357360, Note_off_c, 14, 43, 64
15, 358080, Note_on_c, 14, 44, 64
15, 358560, Note_off_c, 14, 44, 64
15, 358560, Note_on_c, 14, 40, 61
15, 359040, Note_off_c, 14, 40, 64
15, 359040, Note_on_c, 14, 45, 61
15, 359520, Note_off_c, 14, 45, 64
15, 359520, Note_on_c, 14, 36, 76
15, 360000, Note_off_c, 14, 36, 64
15, 360000, Note_on_c, 14, 38, 72
15, 360480, Note_off_c, 14, 38, 64
15, 360480, Note_on_c, 14, 38, 74
15, 360960, Note_off_c, 14, 38, 64
15, 360960, Note_on_c, 14, 43, 68
15, 361200, Note_off_c, 14, 43, 64
15, 361920, Note_on_c, 14, 36, 58
15, 362880, Note_off_c, 14, 36, 64
15, 362880, Note_on_c, 14, 38, 64
15, 363840, Note_off_c, 14, 38, 64
15, 363840, Note_on_c, 14, 40, 73
15, 364080, Note_off_c, 14, 40, 64
15, 364320, Note_on_c, 14, 36, 69
15, 364560, Note_off_c, 14, 36, 64
15, 364800, Note_on_c, 14, 31, 77
15, 365040, Note_off_c, 14, 31, 64
15, 365760, Note_on_c, 14, 44, 76
15, 366000, Note_off_c, 14, 44, 64
15, 366240, Note_on_c, 14, 40, 78
15, 366480, Note_off_c, 14, 40, 64
15, 366720, Note_on_c, 14, 45, 70
15, 366960, Note_off_c, 14, 45, 64
15, 367440, Note_on_c, 14, 43, 59
15, 367680, Note_off_c, 14, 43, 64
15, 367680, Note_on_c, 14, 42, 60
15, 367800, Note_off_c, 14, 42, 64
15, 367920, Note_on_c, 14, 40, 81
15, 368040, Note_off_c, 14, 40, 64
15, 368160, Note_on_c, 14, 42, 69
15, 368280, Note_off_c, 14, 42, 64
15, 368400, Note_on_c, 14, 38, 77
15, 368520, Note_off_c, 14, 38, 64
15, 368640, Note_on_c, 14, 43, 63
15, 368880, Note_off_c, 14, 43, 64
15, 369360, Note_on_c, 14, 31, 72
15, 369600, Note_off_c, 14, 31, 64
15, 369600, Note_on_c, 14, 35, 77
15, 369720, Note_off_c, 14, 35, 64
15, 369840, Note_on_c, 14, 33, 76
15, 369960, Note_off_c, 14, 33, 64
15, 370080, Note_on_c, 14, 35, 76
15, 370200, Note_off_c, 14, 35, 64
15, 370320, Note_on_c, 14, 31, 71
15, 370440, Note_off_c, 14, 31, 64
15, 370560, Note_on_c, 14, 36, 43
15, 370800, Note_off_c, 14, 36, 64
15, 370800, Note_on_c, 14, 40, 84
15, 371040, Note_off_c, 14, 40, 64
15, 371040, Note_on_c, 14, 41, 76
15, 371280, Note_off_c, 14, 41, 64
15, 371280, Note_on_c, 14, 38, 67
15, 371520, Note_off_c, 14, 38, 64
15, 371520, Note_on_c, 14, 43, 61
15, 371760, Note_off_c, 14, 43, 64
15, 372000, Note_on_c, 14, 31, 57
15, 372240, Note_off_c, 14, 31, 64
15, 372480, Note_on_c, 14, 36, 84
15, 372720, Note_off_c, 14, 36, 64
15, 373440, Note_on_c, 14, 46, 69
15, 374400, Note_off_c, 14, 46, 64
15, 374400, Note_on_c, 14, 44, 71
15, 374640, Note_off_c, 14, 44, 64
15, 375360, Note_on_c, 14, 43, 69
15, 376320, Note_off_c, 14, 43, 64
15, 376320, Note_on_c, 14, 41, 71
15, 376560, Note_off_c, 14, 41, 64
15, 377280, Note_on_c, 14, 41, 112
15, 377520, Note_off_c, 14, 41, 64
15, 377520, Note_on_c, 14, 41, 58
15, 378240, Note_off_c, 14, 41, 64
15, 378240, Note_on_c, 14, 39, 77
15, 378480, Note_off_c, 14, 39, 64
15, 378720, Note_on_c, 14, 41, 72
15, 378960, Note_off_c, 14, 41, 64
15, 379200, Note_on_c, 14, 43, 73
15, 379440, Note_off_c, 14, 43, 64
15, 379680, Note_on_c, 14, 31, 65
15, 379920, Note_off_c, 14, 31, 64
15, 380160, Note_on_c, 14, 36, 76
15, 380400, Note_off_c, 14, 36, 64
15, 381120, Note_on_c, 14, 36, 73
15, 381360, Note_off_c, 14, 36, 64
15, 382080, Note_on_c, 14, 36, 78
15, 382320, Note_off_c, 14, 36, 64
15, 382320, Note_on_c, 14, 48, 68
15, 382560, Note_off_c, 14, 48, 64
15, 382560, Note_on_c, 14, 47, 81
15, 382800, Note_off_c, 14, 47, 64
15, 382800, Note_on_c, 14, 48, 70
15, 383040, Note_off_c, 14, 48, 64
15, 383040, Note_on_c, 14, 43, 71
15, 383280, Note_off_c, 14, 43, 64
15, 385920, Note_on_c, 14, 43, 89
15, 386160, Note_off_c, 14, 43, 64
15, 386400, Note_on_c, 14, 43, 89
15, 386640, Note_off_c, 14, 43, 64
15, 386880, Note_on_c, 14, 48, 94
15, 387120, Note_off_c, 14, 48, 64
15, 387840, Note_on_c, 14, 43, 89
15, 388080, Note_off_c, 14, 43, 64
15, 388320, Note_on_c, 14, 43, 89
15, 388560, Note_off_c, 14, 43, 64
15, 388800, Note_on_c, 14, 36, 99
15, 389040, Note_off_c, 14, 36, 64
15, 390720, Note_on_c, 14, 36, 95
15, 390960, Note_off_c, 14, 36, 64
15, 392640, Note_on_c, 14, 36, 99
15, 392880, Note_off_c, 14, 36, 64
15, 400320, Note_on_c, 14, 41, 76
15, 400560, Note_off_c, 14, 41, 64
15, 400800, Note_on_c, 14, 42, 73
15, 401040, Note_off_c, 14, 42, 64
15, 401280, Note_on_c, 14, 43, 74
15, 401520, Note_off_c, 14, 43, 64
15, 401760, Note_on_c, 14, 43, 78
15, 402000, Note_off_c, 14, 43, 64
15, 402240, Note_on_c, 14, 36, 89
15, 402480, Note_off_c, 14, 36, 64
15, 404160, Note_on_c, 14, 36, 80
15, 404400, Note_off_c, 14, 36, 64
15, 406080, Note_on_c, 14, 36, 101
15, 406320, Note_off_c, 14, 36, 64
15, 411840, Note_on_c, 14, 41, 39
15, 412800, Note_off_c, 14, 41, 64
15, 412800, Note_on_c, 14, 41, 43
15, 413760, Note_off_c, 14, 41, 64
15, 413760, Note_on_c, 14, 42, 43
15, 414720, Note_off_c, 14, 42, 64
15, 414720, Note_on_c, 14, 43, 44
15, 415680, Note_off_c, 14, 43, 64
15, 415680, Note_on_c, 14, 44, 46
15, 416640, Note_off_c, 14, 44, 64
15, 416640, Note_on_c, 14, 37, 45
15, 416880, Note_off_c, 14, 37, 64
15, 420480, Note_on_c, 14, 41, 62
15, 420960, Note_off_c, 14, 41, 64
15, 420960, Note_on_c, 14, 42, 76
15, 421440, Note_off_c, 14, 42, 64
15, 421440, Note_on_c, 14, 43, 85
15, 421680, Note_off_c, 14, 43, 64
15, 430080, Control_c, 14, 7, 100
15, 430080, Control_c, 14, 10, 113
15, 430080, Control_c, 14, 93, 0
15, 430080, Control_c, 14, 91, 66
15, 431040, Control_c, 14, 7, 100
15, 431040, Control_c, 14, 10, 113
15, 431040, Control_c, 14, 93, 0
15, 431040, Control_c, 14, 91, 66
15, 431040, Note_on_c, 14, 43, 81
15, 431280, Note_off_c, 14, 43, 64
15, 431520, Note_on_c, 14, 43, 85
15, 431760, Note_off_c, 14, 43, 64
15, 432000, Note_on_c, 14, 43, 119
15, 432240, Note_off_c, 14, 43, 64
15, 432480, Note_on_c, 14, 43, 123
15, 432720, Note_off_c, 14, 43, 64
15, 432960, Note_on_c, 14, 36, 119
15, 433440, Note_off_c, 14, 36, 64
15, 433440, Note_on_c, 14, 48, 115
15, 433560, Note_off_c, 14, 48, 64
15, 433680, Note_on_c, 14, 48, 112
15, 433800, Note_off_c, 14, 48, 64
15, 433920, Note_on_c, 14, 46, 93
15, 434040, Note_off_c, 14, 46, 64
15, 434040, Note_on_c, 14, 45, 112
15, 434160, Note_off_c, 14, 45, 64
15, 434160, Note_on_c, 14, 43, 90
15, 434220, Note_off_c, 14, 43, 64
15, 434280, Note_on_c, 14, 41, 94
15, 434340, Note_off_c, 14, 41, 64
15, 434400, Note_on_c, 14, 40, 104
15, 434460, Note_off_c, 14, 40, 64
15, 434520, Note_on_c, 14, 38, 99
15, 434580, Note_off_c, 14, 38, 64
15, 434640, Note_on_c, 14, 36, 101
15, 434700, Note_off_c, 14, 36, 64
15, 434760, Note_on_c, 14, 34, 94
15, 434820, Note_off_c, 14, 34, 64
15, 434880, Note_on_c, 14, 33, 104
15, 435360, Note_off_c, 14, 33, 64
15, 435360, Note_on_c, 14, 45, 105
15, 435480, Note_off_c, 14, 45, 64
15, 435600, Note_on_c, 14, 45, 105
15, 435720, Note_off_c, 14, 45, 64
15, 435840, Note_on_c, 14, 43, 86
15, 435960, Note_off_c, 14, 43, 64
15, 435960, Note_on_c, 14, 41, 94
15, 436080, Note_off_c, 14, 41, 64
15, 436080, Note_on_c, 14, 40, 94
15, 436140, Note_off_c, 14, 40, 64
15, 436200, Note_on_c, 14, 38, 99
15, 436260, Note_off_c, 14, 38, 64
15, 436320, Note_on_c, 14, 36, 99
15, 436380, Note_off_c, 14, 36, 64
15, 436440, Note_on_c, 14, 34, 95
15, 436500, Note_off_c, 14, 34, 64
15, 436560, Note_on_c, 14, 33, 104
15, 436620, Note_off_c, 14, 33, 64
15, 436680, Note_on_c, 14, 31, 98
15, 436740, Note_off_c, 14, 31, 64
15, 436800, Note_on_c, 14, 29, 99
15, 436860, Note_off_c, 14, 29, 64
15, 436860, Note_on_c, 14, 41, 94
15, 436920, Note_off_c, 14, 41, 64
15, 436920, Note_on_c, 14, 41, 94
15, 436980, Note_off_c, 14, 41, 64
15, 436980, Note_on_c, 14, 41, 94
15, 437040, Note_off_c, 14, 41, 64
15, 437040, Note_on_c, 14, 41, 99
15, 437280, Note_off_c, 14, 41, 64
15, 437760, Note_on_c, 14, 29, 99
15, 437880, Note_off_c, 14, 29, 64
15, 437880, Note_on_c, 14, 41, 73
15, 438000, Note_off_c, 14, 41, 64
15, 438000, Note_on_c, 14, 41, 85
15, 438120, Note_off_c, 14, 41, 64
15, 438120, Note_on_c, 14, 41, 84
15, 438240, Note_off_c, 14, 41, 64
15, 438240, Note_on_c, 14, 41, 80
15, 438480, Note_off_c, 14, 41, 64
15, 438720, Note_on_c, 14, 40, 110
15, 439440, Note_off_c, 14, 40, 64
15, 439620, Note_on_c, 14, 36, 99
15, 439680, Note_off_c, 14, 36, 64
15, 439680, Note_on_c, 14, 40, 99
15, 440040, Note_off_c, 14, 40, 64
15, 440100, Note_on_c, 14, 40, 99
15, 440160, Note_off_c, 14, 40, 64
15, 440160, Note_on_c, 14, 36, 94
15, 440520, Note_off_c, 14, 36, 64
15, 440580, Note_on_c, 14, 36, 105
15, 440640, Note_off_c, 14, 36, 64
15, 440640, Note_on_c, 14, 33, 105
15, 441360, Note_off_c, 14, 33, 64
15, 441540, Note_on_c, 14, 45, 104
15, 441600, Note_off_c, 14, 45, 64
15, 441600, Note_on_c, 14, 48, 94
15, 441960, Note_off_c, 14, 48, 64
15, 442020, Note_on_c, 14, 48, 94
15, 442080, Note_off_c, 14, 48, 64
15, 442080, Note_on_c, 14, 45, 107
15, 442440, Note_off_c, 14, 45, 64
15, 442500, Note_on_c, 14, 45, 105
15, 442560, Note_off_c, 14, 45, 64
15, 442560, Note_on_c, 14, 42, 119
15, 442920, Note_off_c, 14, 42, 64
15, 442980, Note_on_c, 14, 42, 119
15, 443040, Note_off_c, 14, 42, 64
15, 443040, Note_on_c, 14, 45, 127
15, 443400, Note_off_c, 14, 45, 64
15, 443460, Note_on_c, 14, 48, 119
15, 443520, Note_off_c, 14, 48, 64
15, 443520, Note_on_c, 14, 51, 125
15, 443880, Note_off_c, 14, 51, 64
15, 443940, Note_on_c, 14, 48, 119
15, 444000, Note_off_c, 14, 48, 64
15, 444000, Note_on_c, 14, 45, 125
15, 444360, Note_off_c, 14, 45, 64
15, 444420, Note_on_c, 14, 42, 119
15, 444480, Note_off_c, 14, 42, 64
15, 444480, Note_on_c, 14, 43, 119
15, 445440, Control_c, 14, 7, 100
15, 445440, Control_c, 14, 10, 113
15, 445440, Control_c, 14, 93, 0
15, 445440, Control_c, 14, 91, 66
15, 445920, Note_off_c, 14, 43, 64
15, 479520, Note_on_c, 14, 36, 125
15, 479760, Note_off_c, 14, 36, 64
15, 480480, Note_on_c, 14, 36, 99
15, 480720, Note_off_c, 14, 36, 64
15, 481440, Note_on_c, 14, 43, 84
15, 481680, Note_off_c, 14, 43, 64
15, 481920, Note_on_c, 14, 43, 89
15, 482160, Note_off_c, 14, 43, 64
15, 482400, Note_on_c, 14, 48, 85
15, 482640, Note_off_c, 14, 48, 64
15, 483360, Note_on_c, 14, 43, 81
15, 483600, Note_off_c, 14, 43, 64
15, 483840, Note_on_c, 14, 31, 86
15, 484080, Note_off_c, 14, 31, 64
15, 484320, Note_on_c, 14, 48, 119
15, 484560, Note_off_c, 14, 48, 64
15, 485280, Note_on_c, 14, 36, 119
15, 485760, Note_off_c, 14, 36, 64
15, 485760, Note_on_c, 14, 48, 119
15, 485880, Note_off_c, 14, 48, 64
15, 486000, Note_on_c, 14, 48, 123
15, 486120, Note_off_c, 14, 48, 64
15, 486240, Note_on_c, 14, 48, 119
15, 486480, Note_off_c, 14, 48, 64
15, 487200, Note_on_c, 14, 40, 125
15, 487680, Note_off_c, 14, 40, 64
15, 487680, Note_on_c, 14, 52, 125
15, 487800, Note_off_c, 14, 52, 64
15, 487920, Note_on_c, 14, 52, 125
15, 488040, Note_off_c, 14, 52, 64
15, 488160, Note_on_c, 14, 43, 127
15, 488640, Note_off_c, 14, 43, 64
15, 488760, Note_on_c, 14, 41, 119
15, 488820, Note_off_c, 14, 41, 64
15, 488820, Note_on_c, 14, 40, 119
15, 488880, Note_off_c, 14, 40, 64
15, 488880, Note_on_c, 14, 38, 123
15, 488940, Note_off_c, 14, 38, 64
15, 488940, Note_on_c, 14, 36, 119
15, 489000, Note_off_c, 14, 36, 64
15, 489000, Note_on_c, 14, 35, 125
15, 489060, Note_off_c, 14, 35, 64
15, 489060, Note_on_c, 14, 33, 127
15, 489120, Note_off_c, 14, 33, 64
15, 489120, Note_on_c, 14, 31, 117
15, 489360, Note_off_c, 14, 31, 64
15, 489600, Note_on_c, 14, 43, 117
15, 489840, Note_off_c, 14, 43, 64
15, 490080, Note_on_c, 14, 48, 119
15, 490320, Note_off_c, 14, 48, 64
15, 490500, Note_on_c, 14, 36, 123
15, 490560, Note_off_c, 14, 36, 64
15, 490560, Note_on_c, 14, 36, 127
15, 490800, Note_off_c, 14, 36, 64
15, 490980, Note_on_c, 14, 36, 125
15, 491040, Note_off_c, 14, 36, 64
15, 491040, Note_on_c, 14, 36, 127
15, 491280, Note_off_c, 14, 36, 64
15, 491280, End_track
16, 0, Start_track
16, 0, Title_t, "Pizz. Strings"
16, 0, Program_c, 15, 45
16, 0, Control_c, 15, 7, 111
16, 0, Control_c, 15, 10, 64
16, 0, Control_c, 15, 93, 0
16, 0, Control_c, 15, 91, 66
16, 254640, Control_c, 15, 7, 111
16, 254640, Control_c, 15, 10, 64
16, 254640, Control_c, 15, 93, 0
16, 254640, Control_c, 15, 91, 66
16, 266160, Control_c, 15, 7, 111
16, 266160, Control_c, 15, 10, 64
16, 266160, Control_c, 15, 93, 0
16, 266160, Control_c, 15, 91, 66
16, 266400, Control_c, 15, 7, 111
16, 266400, Control_c, 15, 10, 64
16, 266400, Control_c, 15, 93, 0
16, 266400, Control_c, 15, 91, 66
16, 266640, Control_c, 15, 7, 111
16, 266640, Control_c, 15, 10, 64
16, 266640, Control_c, 15, 93, 0
16, 266640, Control_c, 15, 91, 66
16, 266880, Control_c, 15, 7, 111
16, 266880, Control_c, 15, 10, 64
16, 266880, Control_c, 15, 93, 0
16, 266880, Control_c, 15, 91, 66
16, 267120, Control_c, 15, 7, 111
16, 267120, Control_c, 15, 10, 64
16, 267120, Control_c, 15, 93, 0
16, 267120, Control_c, 15, 91, 66
16, 267360, Control_c, 15, 7, 111
16, 267360, Control_c, 15, 10, 64
16, 267360, Control_c, 15, 93, 0
16, 267360, Control_c, 15, 91, 66
16, 267600, Control_c, 15, 7, 111
16, 267600, Control_c, 15, 10, 64
16, 267600, Control_c, 15, 93, 0
16, 267600, Control_c, 15, 91, 66
16, 267840, Note_on_c, 15, 51, 55
16, 267840, Note_on_c, 15, 39, 74
16, 268320, Note_off_c, 15, 39, 64
16, 268320, Note_off_c, 15, 51, 64
16, 268320, Note_on_c, 15, 63, 58
16, 268320, Note_on_c, 15, 51, 68
16, 268560, Note_off_c, 15, 51, 64
16, 268560, Note_off_c, 15, 63, 64
16, 268560, Note_on_c, 15, 63, 61
16, 268560, Note_on_c, 15, 51, 64
16, 268800, Note_off_c, 15, 51, 64
16, 268800, Note_off_c, 15, 63, 64
16, 268800, Note_on_c, 15, 63, 65
16, 268800, Note_on_c, 15, 51, 73
16, 269040, Note_off_c, 15, 51, 64
16, 269040, Note_off_c, 15, 63, 64
16, 271680, Note_on_c, 15, 58, 84
16, 272160, Note_off_c, 15, 58, 64
16, 272160, Note_on_c, 15, 70, 69
16, 272400, Note_off_c, 15, 70, 64
16, 272400, Note_on_c, 15, 70, 71
16, 272640, Note_off_c, 15, 70, 64
16, 272640, Note_on_c, 15, 70, 73
16, 272880, Note_off_c, 15, 70, 64
16, 275520, Note_on_c, 15, 53, 56
16, 275520, Note_on_c, 15, 41, 66
16, 276000, Note_off_c, 15, 41, 64
16, 276000, Note_off_c, 15, 53, 64
16, 276000, Note_on_c, 15, 65, 72
16, 276000, Note_on_c, 15, 53, 70
16, 276240, Note_off_c, 15, 53, 64
16, 276240, Note_off_c, 15, 65, 64
16, 276240, Note_on_c, 15, 65, 80
16, 276240, Note_on_c, 15, 53, 70
16, 276480, Note_off_c, 15, 53, 64
16, 276480, Note_off_c, 15, 65, 64
16, 276480, Note_on_c, 15, 65, 68
16, 276480, Note_on_c, 15, 53, 69
16, 276720, Note_off_c, 15, 53, 64
16, 276720, Note_off_c, 15, 65, 64
16, 280320, Control_c, 15, 7, 111
16, 280320, Control_c, 15, 10, 64
16, 280320, Control_c, 15, 93, 0
16, 280320, Control_c, 15, 91, 66
16, 310800, Control_c, 15, 7, 111
16, 310800, Control_c, 15, 10, 64
16, 310800, Control_c, 15, 93, 0
16, 310800, Control_c, 15, 91, 66
16, 311040, Control_c, 15, 7, 111
16, 311040, Control_c, 15, 10, 64
16, 311040, Control_c, 15, 93, 0
16, 311040, Control_c, 15, 91, 66
16, 311280, Control_c, 15, 7, 111
16, 311280, Control_c, 15, 10, 64
16, 311280, Control_c, 15, 93, 0
16, 311280, Control_c, 15, 91, 66
16, 311520, Control_c, 15, 7, 111
16, 311520, Control_c, 15, 10, 64
16, 311520, Control_c, 15, 93, 0
16, 311520, Control_c, 15, 91, 66
16, 311760, Control_c, 15, 7, 111
16, 311760, Control_c, 15, 10, 64
16, 311760, Control_c, 15, 93, 0
16, 311760, Control_c, 15, 91, 66
16, 312000, Control_c, 15, 7, 111
16, 312000, Control_c, 15, 10, 64
16, 312000, Control_c, 15, 93, 0
16, 312000, Control_c, 15, 91, 66
16, 312240, Control_c, 15, 7, 111
16, 312240, Control_c, 15, 10, 64
16, 312240, Control_c, 15, 93, 0
16, 312240, Control_c, 15, 91, 66
16, 312480, Control_c, 15, 7, 111
16, 312480, Control_c, 15, 10, 64
16, 312480, Control_c, 15, 93, 0
16, 312480, Control_c, 15, 91, 66
16, 312720, Control_c, 15, 7, 111
16, 312720, Control_c, 15, 10, 64
16, 312720, Control_c, 15, 93, 0
16, 312720, Control_c, 15, 91, 66
16, 430080, Control_c, 15, 7, 111
16, 430080, Control_c, 15, 10, 64
16, 430080, Control_c, 15, 93, 0
16, 430080, Control_c, 15, 91, 66
16, 431040, Control_c, 15, 7, 111
16, 431040, Control_c, 15, 10, 64
16, 431040, Control_c, 15, 93, 0
16, 431040, Control_c, 15, 91, 66
16, 445440, Control_c, 15, 7, 111
16, 445440, Control_c, 15, 10, 64
16, 445440, Control_c, 15, 93, 0
16, 445440, Control_c, 15, 91, 66
16, 445440, End_track
17, 0, Start_track
17, 0, Title_t, "Beethovens Piano Concerto No.1"
17, 0, End_track
18, 0, Start_track
18, 0, Title_t, "  in C Major, Op. 15"
18, 0, End_track
19, 0, Start_track
19, 0, Title_t, "Mov't. 1 - Allegro con brio"
19, 0, End_track
20, 0, Start_track
20, 0, Title_t, "sequenced by Bill Nemitz"
20, 0, End_track
21, 0, Start_track
21, 0, Title_t, "Email at billnem@ix.netcom.com"
21, 0, End_track
0, 0, End_of_file