0, 0, Header, 1, 7, 240
1, 0, Start_track
1, 0, Time_signature, 2, 1, 48, 8
1, 0, Tempo, 428571
1, 42240, Tempo, 379747
1, 84890, Tempo, 377358
1, 86262, Tempo, 375000
1, 87634, Tempo, 372671
1, 89004, Tempo, 370370
1, 90376, Tempo, 368098
1, 91748, Tempo, 365854
1, 93120, Tempo, 363636
1, 100800, Tempo, 400000
1, 100800, End_track
2, 0, Start_track
2, 0, Program_c, 0, 0
2, 0, Control_c, 0, 7, 127
2, 0, Control_c, 0, 10, 64
2, 0, Control_c, 0, 121, 64
2, 0, Control_c, 0, 91, 75
2, 770, Note_on_c, 0, 60, 68
2, 984, Note_off_c, 0, 60, 64
2, 986, Note_on_c, 0, 65, 76
2, 1026, Note_off_c, 0, 65, 64
2, 1204, Note_on_c, 0, 68, 72
2, 1238, Note_off_c, 0, 68, 64
2, 1420, Note_on_c, 0, 72, 72
2, 1456, Note_off_c, 0, 72, 64
2, 1634, Note_on_c, 0, 77, 80
2, 1666, Note_off_c, 0, 77, 64
2, 1858, Note_on_c, 0, 80, 85
2, 2072, Note_on_c, 0, 56, 62
2, 2072, Note_on_c, 0, 53, 64
2, 2072, Note_on_c, 0, 60, 60
2, 2138, Note_on_c, 0, 79, 64
2, 2140, Note_off_c, 0, 80, 64
2, 2188, Note_on_c, 0, 77, 56
2, 2196, Note_off_c, 0, 79, 64
2, 2240, Note_off_c, 0, 77, 64
2, 2240, Note_on_c, 0, 76, 46
2, 2258, Note_off_c, 0, 53, 64
2, 2258, Note_off_c, 0, 56, 64
2, 2264, Note_off_c, 0, 60, 64
2, 2276, Note_off_c, 0, 76, 64
2, 2292, Note_on_c, 0, 77, 68
2, 2292, Note_on_c, 0, 56, 60
2, 2294, Note_on_c, 0, 60, 56
2, 2298, Note_on_c, 0, 53, 59
2, 2332, Note_off_c, 0, 77, 64
2, 2394, Note_off_c, 0, 56, 64
2, 2396, Note_off_c, 0, 53, 64
2, 2400, Note_off_c, 0, 60, 64
2, 2506, Note_on_c, 0, 53, 62
2, 2508, Note_on_c, 0, 56, 51
2, 2510, Note_on_c, 0, 60, 55
2, 2580, Note_off_c, 0, 56, 64
2, 2582, Note_off_c, 0, 60, 64
2, 2584, Note_off_c, 0, 53, 64
2, 2724, Note_on_c, 0, 60, 64
2, 2724, Note_on_c, 0, 52, 68
2, 2726, Note_on_c, 0, 58, 60
2, 2726, Note_on_c, 0, 67, 93
2, 2728, Note_on_c, 0, 55, 64
2, 2764, Note_off_c, 0, 67, 64
2, 2910, Note_off_c, 0, 60, 64
2, 2910, Note_off_c, 0, 58, 64
2, 2910, Note_off_c, 0, 55, 64
2, 2914, Note_off_c, 0, 52, 64
2, 2940, Note_on_c, 0, 72, 80
2, 2982, Note_off_c, 0, 72, 64
2, 3158, Note_on_c, 0, 76, 80
2, 3194, Note_off_c, 0, 76, 64
2, 3376, Note_on_c, 0, 79, 89
2, 3412, Note_off_c, 0, 79, 64
2, 3596, Note_on_c, 0, 82, 80
2, 3820, Note_on_c, 0, 60, 64
2, 3820, Note_on_c, 0, 58, 59
2, 3822, Note_on_c, 0, 55, 62
2, 3824, Note_on_c, 0, 52, 62
2, 3886, Note_on_c, 0, 80, 64
2, 3898, Note_off_c, 0, 82, 64
2, 3914, Note_off_c, 0, 58, 64
2, 3916, Note_off_c, 0, 55, 64
2, 3916, Note_off_c, 0, 52, 64
2, 3918, Note_off_c, 0, 60, 64
2, 3934, Note_off_c, 0, 80, 64
2, 3934, Note_on_c, 0, 79, 64
2, 3984, Note_off_c, 0, 79, 64
2, 3988, Note_on_c, 0, 77, 62
2, 4022, Note_on_c, 0, 60, 51
2, 4026, Note_on_c, 0, 58, 46
2, 4028, Note_off_c, 0, 77, 64
2, 4028, Note_on_c, 0, 55, 55
2, 4030, Note_on_c, 0, 52, 57
2, 4046, Note_on_c, 0, 79, 93
2, 4078, Note_off_c, 0, 79, 64
2, 4098, Note_off_c, 0, 58, 64
2, 4100, Note_off_c, 0, 52, 64
2, 4100, Note_off_c, 0, 55, 64
2, 4108, Note_off_c, 0, 60, 64
2, 4256, Note_on_c, 0, 58, 56
2, 4256, Note_on_c, 0, 60, 64
2, 4258, Note_on_c, 0, 52, 72
2, 4258, Note_on_c, 0, 55, 60
2, 4294, Note_off_c, 0, 55, 64
2, 4294, Note_off_c, 0, 60, 64
2, 4294, Note_off_c, 0, 58, 64
2, 4296, Note_off_c, 0, 52, 64
2, 4438, Note_on_c, 0, 72, 93
2, 4482, Note_off_c, 0, 72, 64
2, 4490, Note_on_c, 0, 80, 76
2, 4712, Note_on_c, 0, 60, 59
2, 4712, Note_on_c, 0, 56, 64
2, 4712, Note_on_c, 0, 53, 64
2, 4764, Note_off_c, 0, 80, 64
2, 4772, Note_on_c, 0, 79, 72
2, 4804, Note_off_c, 0, 56, 64
2, 4804, Note_off_c, 0, 60, 64
2, 4806, Note_off_c, 0, 53, 64
2, 4814, Note_on_c, 0, 77, 64
2, 4820, Note_off_c, 0, 79, 64
2, 4866, Note_off_c, 0, 77, 64
2, 4872, Note_on_c, 0, 76, 68
2, 4908, Note_off_c, 0, 76, 64
2, 4930, Note_on_c, 0, 77, 76
2, 4944, Note_on_c, 0, 60, 62
2, 4944, Note_on_c, 0, 56, 56
2, 4944, Note_on_c, 0, 53, 68
2, 4958, Note_off_c, 0, 77, 64
2, 5000, Note_off_c, 0, 56, 64
2, 5006, Note_off_c, 0, 53, 64
2, 5006, Note_off_c, 0, 60, 64
2, 5164, Note_on_c, 0, 53, 76
2, 5164, Note_on_c, 0, 60, 80
2, 5166, Note_on_c, 0, 56, 62
2, 5200, Note_off_c, 0, 60, 64
2, 5202, Note_off_c, 0, 56, 64
2, 5202, Note_off_c, 0, 53, 64
2, 5322, Note_on_c, 0, 72, 102
2, 5364, Note_off_c, 0, 72, 64
2, 5382, Note_on_c, 0, 82, 93
2, 5612, Note_on_c, 0, 55, 72
2, 5612, Note_on_c, 0, 58, 68
2, 5612, Note_on_c, 0, 64, 68
2, 5680, Note_on_c, 0, 80, 76
2, 5692, Note_off_c, 0, 82, 64
2, 5722, Note_off_c, 0, 55, 64
2, 5728, Note_on_c, 0, 79, 76
2, 5730, Note_off_c, 0, 80, 64
2, 5730, Note_off_c, 0, 58, 64
2, 5736, Note_off_c, 0, 64, 64
2, 5784, Note_on_c, 0, 77, 80
2, 5786, Note_off_c, 0, 79, 64
2, 5824, Note_off_c, 0, 77, 64
2, 5830, Note_on_c, 0, 58, 57
2, 5830, Note_on_c, 0, 64, 50
2, 5836, Note_on_c, 0, 55, 76
2, 5840, Note_on_c, 0, 79, 93
2, 5878, Note_off_c, 0, 79, 64
2, 5908, Note_off_c, 0, 58, 64
2, 5912, Note_off_c, 0, 55, 64
2, 5918, Note_off_c, 0, 64, 64
2, 6074, Note_on_c, 0, 55, 93
2, 6076, Note_on_c, 0, 58, 76
2, 6076, Note_on_c, 0, 64, 93
2, 6118, Note_off_c, 0, 64, 64
2, 6120, Note_off_c, 0, 58, 64
2, 6120, Note_off_c, 0, 55, 64
2, 6252, Note_on_c, 0, 72, 55
2, 6284, Note_on_c, 0, 77, 76
2, 6308, Note_on_c, 0, 80, 102
2, 6324, Note_on_c, 0, 84, 107
2, 6578, Note_on_c, 0, 56, 89
2, 6580, Note_on_c, 0, 60, 93
2, 6582, Note_on_c, 0, 65, 89
2, 6638, Control_c, 0, 64, 127
2, 6892, Note_on_c, 0, 82, 76
2, 6896, Note_off_c, 0, 77, 64
2, 6898, Note_off_c, 0, 72, 64
2, 6902, Note_off_c, 0, 80, 64
2, 6912, Note_off_c, 0, 84, 64
2, 6926, Control_c, 0, 64, 0
2, 6954, Note_off_c, 0, 65, 64
2, 6956, Note_off_c, 0, 60, 64
2, 6962, Note_off_c, 0, 56, 64
2, 7038, Note_on_c, 0, 80, 55
2, 7060, Note_off_c, 0, 82, 64
2, 7200, Note_on_c, 0, 79, 62
2, 7204, Note_off_c, 0, 80, 64
2, 7206, Note_on_c, 0, 58, 36
2, 7208, Note_on_c, 0, 62, 64
2, 7208, Note_on_c, 0, 67, 44
2, 7330, Control_c, 0, 64, 127
2, 7364, Note_on_c, 0, 77, 51
2, 7368, Note_off_c, 0, 79, 64
2, 7512, Control_c, 0, 64, 0
2, 7514, Note_off_c, 0, 58, 64
2, 7518, Note_off_c, 0, 62, 64
2, 7522, Note_off_c, 0, 67, 64
2, 7526, Note_off_c, 0, 77, 64
2, 7526, Note_on_c, 0, 76, 57
2, 7584, Note_on_c, 0, 77, 57
2, 7586, Note_off_c, 0, 76, 64
2, 7630, Note_off_c, 0, 77, 64
2, 7632, Note_on_c, 0, 79, 56
2, 7670, Note_on_c, 0, 77, 50
2, 7684, Note_off_c, 0, 79, 64
2, 8040, Note_on_c, 0, 76, 44
2, 8042, Note_on_c, 0, 60, 51
2, 8046, Note_on_c, 0, 67, 36
2, 8052, Note_off_c, 0, 77, 64
2, 8170, Control_c, 0, 64, 127
2, 8378, Note_off_c, 0, 67, 64
2, 8384, Note_off_c, 0, 60, 64
2, 8388, Note_off_c, 0, 76, 64
2, 8672, Control_c, 0, 64, 0
2, 8974, Note_on_c, 0, 43, 68
2, 9018, Note_off_c, 0, 43, 64
2, 9202, Note_on_c, 0, 48, 62
2, 9236, Note_off_c, 0, 48, 64
2, 9424, Note_on_c, 0, 51, 64
2, 9458, Note_off_c, 0, 51, 64
2, 9644, Note_on_c, 0, 55, 62
2, 9700, Note_off_c, 0, 55, 64
2, 9856, Note_on_c, 0, 60, 76
2, 9896, Note_off_c, 0, 60, 64
2, 10088, Note_on_c, 0, 63, 80
2, 10378, Note_off_c, 0, 63, 64
2, 10384, Note_on_c, 0, 62, 57
2, 10428, Note_on_c, 0, 60, 62
2, 10438, Note_off_c, 0, 62, 64
2, 10466, Note_on_c, 0, 59, 56
2, 10470, Note_off_c, 0, 60, 64
2, 10504, Note_off_c, 0, 59, 64
2, 10512, Note_on_c, 0, 60, 49
2, 10556, Note_off_c, 0, 60, 64
2, 10728, Note_on_c, 0, 60, 72
2, 10762, Note_off_c, 0, 60, 64
2, 10960, Note_on_c, 0, 68, 62
2, 10966, Note_on_c, 0, 60, 62
2, 10970, Note_on_c, 0, 65, 62
2, 11040, Control_c, 0, 64, 127
2, 11262, Note_on_c, 0, 75, 64
2, 11296, Control_c, 0, 64, 0
2, 11310, Note_on_c, 0, 73, 60
2, 11312, Note_off_c, 0, 75, 64
2, 11350, Note_off_c, 0, 73, 64
2, 11354, Note_on_c, 0, 72, 62
2, 11396, Note_off_c, 0, 72, 64
2, 11398, Note_on_c, 0, 73, 60
2, 11422, Note_off_c, 0, 73, 64
2, 11608, Note_on_c, 0, 73, 57
2, 11630, Note_off_c, 0, 73, 64
2, 11666, Note_off_c, 0, 65, 64
2, 11670, Note_off_c, 0, 60, 64
2, 11838, Note_on_c, 0, 73, 76
2, 11842, Note_on_c, 0, 65, 57
2, 11842, Note_on_c, 0, 58, 46
2, 11938, Control_c, 0, 64, 127
2, 12074, Note_off_c, 0, 68, 64
2, 12122, Control_c, 0, 64, 0
2, 12134, Note_on_c, 0, 70, 62
2, 12172, Note_on_c, 0, 68, 68
2, 12176, Note_off_c, 0, 70, 64
2, 12212, Note_off_c, 0, 68, 64
2, 12218, Note_on_c, 0, 67, 60
2, 12258, Note_on_c, 0, 68, 59
2, 12268, Note_off_c, 0, 67, 64
2, 12274, Note_off_c, 0, 68, 64
2, 12470, Note_on_c, 0, 68, 76
2, 12488, Note_off_c, 0, 68, 64
2, 12522, Note_off_c, 0, 58, 64
2, 12526, Note_off_c, 0, 65, 64
2, 12690, Note_on_c, 0, 67, 76
2, 12690, Note_on_c, 0, 58, 52
2, 12690, Note_on_c, 0, 63, 59
2, 12724, Control_c, 0, 64, 127
2, 12814, Note_off_c, 0, 73, 64
2, 12984, Note_on_c, 0, 75, 68
2, 13014, Note_off_c, 0, 75, 64
2, 13018, Control_c, 0, 64, 0
2, 13032, Note_on_c, 0, 73, 68
2, 13062, Note_off_c, 0, 73, 64
2, 13080, Note_on_c, 0, 72, 68
2, 13110, Note_off_c, 0, 72, 64
2, 13128, Note_on_c, 0, 73, 59
2, 13154, Note_off_c, 0, 73, 64
2, 13336, Note_on_c, 0, 73, 62
2, 13358, Note_off_c, 0, 73, 64
2, 13424, Note_off_c, 0, 63, 64
2, 13424, Note_off_c, 0, 58, 64
2, 13546, Note_off_c, 0, 67, 64
2, 13546, Note_on_c, 0, 68, 72
2, 13552, Note_on_c, 0, 56, 56
2, 13556, Note_on_c, 0, 63, 57
2, 13756, Control_c, 0, 64, 127
2, 13844, Note_on_c, 0, 73, 72
2, 13862, Control_c, 0, 64, 0
2, 13886, Note_off_c, 0, 73, 64
2, 13890, Note_on_c, 0, 72, 53
2, 13928, Note_off_c, 0, 72, 64
2, 13928, Note_on_c, 0, 71, 60
2, 13974, Note_off_c, 0, 71, 64
2, 13984, Note_on_c, 0, 72, 56
2, 14016, Note_off_c, 0, 72, 64
2, 14176, Note_on_c, 0, 72, 72
2, 14208, Note_off_c, 0, 72, 64
2, 14212, Note_off_c, 0, 68, 64
2, 14234, Note_off_c, 0, 63, 64
2, 14234, Note_off_c, 0, 56, 64
2, 14394, Note_on_c, 0, 65, 72
2, 14398, Note_on_c, 0, 72, 76
2, 14400, Note_on_c, 0, 61, 64
2, 14458, Control_c, 0, 64, 127
2, 14612, Note_on_c, 0, 70, 89
2, 14618, Note_off_c, 0, 72, 64
2, 14826, Note_off_c, 0, 61, 64
2, 14828, Note_on_c, 0, 62, 76
2, 14844, Control_c, 0, 64, 0
2, 14920, Control_c, 0, 64, 127
2, 15040, Note_off_c, 0, 70, 64
2, 15044, Control_c, 0, 64, 0
2, 15048, Note_on_c, 0, 68, 55
2, 15106, Control_c, 0, 64, 127
2, 15184, Note_off_c, 0, 68, 64
2, 15224, Note_off_c, 0, 65, 64
2, 15244, Note_off_c, 0, 62, 64
2, 15270, Control_c, 0, 64, 0
2, 15274, Note_on_c, 0, 67, 62
2, 15278, Note_on_c, 0, 63, 40
2, 15328, Control_c, 0, 64, 127
2, 15444, Note_off_c, 0, 67, 64
2, 15460, Note_off_c, 0, 63, 64
2, 15484, Control_c, 0, 64, 0
2, 15486, Note_on_c, 0, 75, 68
2, 15698, Note_on_c, 0, 73, 89
2, 15708, Note_off_c, 0, 75, 64
2, 15904, Note_off_c, 0, 73, 64
2, 15906, Note_on_c, 0, 72, 93
2, 15908, Note_on_c, 0, 60, 76
2, 15910, Note_on_c, 0, 63, 76
2, 15974, Control_c, 0, 64, 127
2, 16084, Note_off_c, 0, 60, 64
2, 16108, Note_off_c, 0, 63, 64
2, 16118, Note_on_c, 0, 61, 62
2, 16118, Note_on_c, 0, 65, 68
2, 16118, Control_c, 0, 64, 0
2, 16352, Note_on_c, 0, 70, 56
2, 16362, Note_off_c, 0, 72, 64
2, 16434, Control_c, 0, 64, 127
2, 16484, Note_off_c, 0, 61, 64
2, 16492, Note_off_c, 0, 65, 64
2, 16588, Note_on_c, 0, 65, 51
2, 16590, Control_c, 0, 64, 0
2, 16596, Note_on_c, 0, 62, 60
2, 16666, Control_c, 0, 64, 127
2, 16784, Note_off_c, 0, 70, 64
2, 16804, Control_c, 0, 64, 0
2, 16804, Note_on_c, 0, 68, 72
2, 16850, Control_c, 0, 64, 127
2, 16902, Note_off_c, 0, 68, 64
2, 16904, Note_off_c, 0, 65, 64
2, 16910, Note_off_c, 0, 62, 64
2, 17006, Control_c, 0, 64, 0
2, 17018, Note_on_c, 0, 63, 50
2, 17024, Note_on_c, 0, 67, 76
2, 17058, Control_c, 0, 64, 127
2, 17120, Note_off_c, 0, 67, 64
2, 17126, Note_off_c, 0, 63, 64
2, 17234, Control_c, 0, 64, 0
2, 17246, Note_on_c, 0, 75, 98
2, 17248, Note_on_c, 0, 63, 107
2, 17288, Control_c, 0, 64, 127
2, 17330, Note_off_c, 0, 75, 64
2, 17344, Note_off_c, 0, 63, 64
2, 17454, Control_c, 0, 64, 0
2, 17472, Note_on_c, 0, 61, 107
2, 17474, Note_on_c, 0, 73, 102
2, 17502, Control_c, 0, 64, 127
2, 17536, Note_off_c, 0, 73, 64
2, 17546, Note_off_c, 0, 61, 64
2, 17684, Control_c, 0, 64, 0
2, 17690, Note_on_c, 0, 60, 89
2, 17690, Note_on_c, 0, 51, 72
2, 17690, Note_on_c, 0, 72, 107
2, 17692, Note_on_c, 0, 48, 76
2, 17768, Control_c, 0, 64, 127
2, 17798, Note_off_c, 0, 48, 64
2, 17812, Note_off_c, 0, 51, 64
2, 17914, Control_c, 0, 64, 0
2, 17916, Note_on_c, 0, 53, 68
2, 17920, Note_on_c, 0, 49, 89
2, 17960, Control_c, 0, 64, 127
2, 17986, Note_off_c, 0, 72, 64
2, 18000, Note_off_c, 0, 60, 64
2, 18146, Control_c, 0, 64, 0
2, 18160, Note_on_c, 0, 58, 93
2, 18162, Note_on_c, 0, 70, 102
2, 18216, Control_c, 0, 64, 127
2, 18302, Note_off_c, 0, 49, 64
2, 18304, Note_off_c, 0, 53, 64
2, 18396, Control_c, 0, 64, 0
2, 18412, Note_on_c, 0, 53, 68
2, 18412, Note_on_c, 0, 50, 64
2, 18448, Control_c, 0, 64, 127
2, 18488, Note_off_c, 0, 70, 64
2, 18508, Note_off_c, 0, 58, 64
2, 18662, Control_c, 0, 64, 0
2, 18680, Note_on_c, 0, 68, 64
2, 18682, Note_on_c, 0, 56, 62
2, 18706, Control_c, 0, 64, 127
2, 18722, Note_off_c, 0, 50, 64
2, 18740, Note_off_c, 0, 53, 64
2, 18744, Note_off_c, 0, 68, 64
2, 18754, Note_off_c, 0, 56, 64
2, 18906, Control_c, 0, 64, 0
2, 18934, Note_on_c, 0, 55, 46
2, 18936, Note_on_c, 0, 67, 57
2, 18938, Note_on_c, 0, 51, 46
2, 18966, Control_c, 0, 64, 127
2, 19012, Note_off_c, 0, 55, 64
2, 19024, Note_off_c, 0, 67, 64
2, 19026, Note_off_c, 0, 51, 64
2, 19048, Note_on_c, 0, 63, 50
2, 19126, Control_c, 0, 64, 0
2, 19144, Note_on_c, 0, 51, 55
2, 19150, Note_off_c, 0, 63, 64
2, 19180, Control_c, 0, 64, 127
2, 19244, Note_on_c, 0, 63, 57
2, 19246, Note_off_c, 0, 51, 64
2, 19344, Note_on_c, 0, 51, 55
2, 19346, Note_off_c, 0, 63, 64
2, 19422, Note_off_c, 0, 51, 64
2, 19442, Note_on_c, 0, 63, 52
2, 19528, Note_off_c, 0, 63, 64
2, 19546, Note_on_c, 0, 51, 53
2, 19546, Note_on_c, 0, 76, 85
2, 19560, Control_c, 0, 64, 0
2, 19606, Control_c, 0, 64, 127
2, 19638, Note_off_c, 0, 51, 64
2, 19642, Note_on_c, 0, 63, 55
2, 19730, Note_off_c, 0, 63, 64
2, 19752, Note_on_c, 0, 75, 76
2, 19754, Note_on_c, 0, 51, 48
2, 19754, Control_c, 0, 64, 0
2, 19760, Note_off_c, 0, 76, 64
2, 19798, Control_c, 0, 64, 127
2, 19844, Note_off_c, 0, 51, 64
2, 19850, Note_on_c, 0, 63, 47
2, 19940, Note_off_c, 0, 63, 64
2, 19954, Note_on_c, 0, 73, 80
2, 19954, Note_on_c, 0, 51, 57
2, 19954, Control_c, 0, 64, 0
2, 19956, Note_off_c, 0, 75, 64
2, 20002, Control_c, 0, 64, 127
2, 20044, Note_off_c, 0, 51, 64
2, 20060, Note_on_c, 0, 63, 51
2, 20070, Note_off_c, 0, 73, 64
2, 20132, Note_off_c, 0, 63, 64
2, 20164, Note_on_c, 0, 70, 76
2, 20166, Note_on_c, 0, 51, 55
2, 20174, Control_c, 0, 64, 0
2, 20222, Control_c, 0, 64, 127
2, 20238, Note_off_c, 0, 51, 64
2, 20268, Note_on_c, 0, 63, 48
2, 20312, Note_off_c, 0, 70, 64
2, 20330, Note_off_c, 0, 63, 64
2, 20362, Note_on_c, 0, 51, 56
2, 20370, Note_on_c, 0, 67, 80
2, 20378, Control_c, 0, 64, 0
2, 20416, Control_c, 0, 64, 127
2, 20448, Note_off_c, 0, 51, 64
2, 20456, Note_off_c, 0, 67, 64
2, 20468, Note_on_c, 0, 63, 51
2, 20498, Note_off_c, 0, 63, 64
2, 20572, Control_c, 0, 64, 0
2, 20576, Note_on_c, 0, 51, 60
2, 20578, Note_on_c, 0, 64, 93
2, 20584, Note_on_c, 0, 61, 55
2, 20628, Control_c, 0, 64, 127
2, 20730, Note_off_c, 0, 51, 64
2, 20804, Control_c, 0, 64, 0
2, 20814, Note_on_c, 0, 51, 64
2, 20840, Control_c, 0, 64, 127
2, 20886, Note_off_c, 0, 51, 64
2, 20902, Note_off_c, 0, 64, 64
2, 20908, Note_on_c, 0, 63, 64
2, 20922, Note_off_c, 0, 61, 64
2, 20958, Note_off_c, 0, 63, 64
2, 20994, Control_c, 0, 64, 0
2, 21014, Note_on_c, 0, 68, 68
2, 21018, Note_on_c, 0, 51, 52
2, 21026, Note_on_c, 0, 60, 57
2, 21044, Control_c, 0, 64, 127
2, 21086, Note_off_c, 0, 68, 64
2, 21116, Note_off_c, 0, 60, 64
2, 21120, Note_on_c, 0, 63, 46
2, 21124, Note_off_c, 0, 51, 64
2, 21186, Note_off_c, 0, 63, 64
2, 21218, Control_c, 0, 64, 0
2, 21218, Note_on_c, 0, 51, 62
2, 21224, Note_on_c, 0, 76, 89
2, 21266, Control_c, 0, 64, 127
2, 21314, Note_off_c, 0, 51, 64
2, 21314, Note_on_c, 0, 63, 57
2, 21376, Note_off_c, 0, 76, 64
2, 21388, Note_off_c, 0, 63, 64
2, 21412, Note_on_c, 0, 51, 59
2, 21416, Note_on_c, 0, 75, 98
2, 21428, Control_c, 0, 64, 0
2, 21474, Control_c, 0, 64, 127
2, 21508, Note_off_c, 0, 51, 64
2, 21516, Note_on_c, 0, 63, 57
2, 21600, Note_off_c, 0, 63, 64
2, 21606, Note_off_c, 0, 75, 64
2, 21614, Note_on_c, 0, 51, 56
2, 21616, Note_on_c, 0, 73, 89
2, 21626, Control_c, 0, 64, 0
2, 21664, Control_c, 0, 64, 127
2, 21710, Note_off_c, 0, 51, 64
2, 21714, Note_off_c, 0, 73, 64
2, 21714, Note_on_c, 0, 63, 51
2, 21794, Note_off_c, 0, 63, 64
2, 21820, Note_on_c, 0, 70, 76
2, 21824, Note_on_c, 0, 51, 56
2, 21836, Control_c, 0, 64, 0
2, 21882, Control_c, 0, 64, 127
2, 21920, Note_off_c, 0, 51, 64
2, 21920, Note_on_c, 0, 63, 50
2, 21982, Note_off_c, 0, 70, 64
2, 21986, Note_off_c, 0, 63, 64
2, 22022, Note_on_c, 0, 51, 47
2, 22026, Note_on_c, 0, 67, 80
2, 22026, Control_c, 0, 64, 0
2, 22068, Control_c, 0, 64, 127
2, 22104, Note_off_c, 0, 67, 64
2, 22118, Note_off_c, 0, 51, 64
2, 22130, Note_on_c, 0, 63, 52
2, 22158, Note_off_c, 0, 63, 64
2, 22240, Note_on_c, 0, 51, 62
2, 22242, Note_on_c, 0, 64, 93
2, 22244, Note_on_c, 0, 61, 62
2, 22246, Control_c, 0, 64, 0
2, 22300, Control_c, 0, 64, 127
2, 22374, Note_off_c, 0, 51, 64
2, 22468, Control_c, 0, 64, 0
2, 22468, Note_on_c, 0, 51, 50
2, 22506, Control_c, 0, 64, 127
2, 22552, Note_off_c, 0, 51, 64
2, 22558, Note_on_c, 0, 63, 64
2, 22560, Note_off_c, 0, 64, 64
2, 22582, Note_off_c, 0, 61, 64
2, 22622, Note_off_c, 0, 63, 64
2, 22646, Control_c, 0, 64, 0
2, 22660, Note_on_c, 0, 68, 76
2, 22664, Note_on_c, 0, 51, 51
2, 22666, Note_on_c, 0, 60, 57
2, 22694, Control_c, 0, 64, 127
2, 22728, Note_off_c, 0, 68, 64
2, 22758, Note_off_c, 0, 60, 64
2, 22758, Note_on_c, 0, 63, 51
2, 22766, Note_off_c, 0, 51, 64
2, 22844, Note_off_c, 0, 63, 64
2, 22862, Note_on_c, 0, 51, 59
2, 22862, Control_c, 0, 64, 0
2, 22862, Note_on_c, 0, 76, 98
2, 22908, Control_c, 0, 64, 127
2, 22956, Note_on_c, 0, 63, 52
2, 22960, Note_off_c, 0, 51, 64
2, 23024, Note_off_c, 0, 76, 64
2, 23042, Note_off_c, 0, 63, 64
2, 23060, Note_on_c, 0, 51, 59
2, 23060, Note_on_c, 0, 75, 89
2, 23068, Control_c, 0, 64, 0
2, 23116, Control_c, 0, 64, 127
2, 23164, Note_on_c, 0, 63, 56
2, 23166, Note_off_c, 0, 51, 64
2, 23250, Note_off_c, 0, 63, 64
2, 23260, Note_off_c, 0, 75, 64
2, 23260, Note_on_c, 0, 51, 60
2, 23266, Note_on_c, 0, 73, 85
2, 23268, Control_c, 0, 64, 0
2, 23310, Control_c, 0, 64, 127
2, 23356, Note_off_c, 0, 51, 64
2, 23366, Note_on_c, 0, 63, 57
2, 23448, Note_off_c, 0, 73, 64
2, 23464, Note_on_c, 0, 70, 76
2, 23466, Note_off_c, 0, 63, 64
2, 23468, Control_c, 0, 64, 0
2, 23474, Note_on_c, 0, 61, 45
2, 23522, Control_c, 0, 64, 127
2, 23568, Note_off_c, 0, 61, 64
2, 23570, Note_on_c, 0, 63, 51
2, 23666, Control_c, 0, 64, 0
2, 23668, Note_off_c, 0, 63, 64
2, 23668, Note_off_c, 0, 70, 64
2, 23668, Note_on_c, 0, 67, 72
2, 23670, Note_on_c, 0, 61, 55
2, 23728, Control_c, 0, 64, 127
2, 23764, Note_off_c, 0, 61, 64
2, 23772, Note_on_c, 0, 63, 51
2, 23800, Note_off_c, 0, 67, 64
2, 23860, Note_off_c, 0, 63, 64
2, 23882, Control_c, 0, 64, 0
2, 23882, Note_on_c, 0, 60, 62
2, 23938, Control_c, 0, 64, 127
2, 23970, Note_off_c, 0, 60, 64
2, 23976, Note_on_c, 0, 63, 51
2, 23980, Note_on_c, 0, 67, 76
2, 24060, Control_c, 0, 64, 0
2, 24072, Note_off_c, 0, 67, 64
2, 24076, Note_off_c, 0, 63, 64
2, 24080, Note_on_c, 0, 70, 72
2, 24082, Note_on_c, 0, 60, 60
2, 24128, Control_c, 0, 64, 127
2, 24170, Note_off_c, 0, 70, 64
2, 24178, Note_off_c, 0, 60, 64
2, 24178, Note_on_c, 0, 68, 85
2, 24182, Note_on_c, 0, 63, 57
2, 24220, Note_off_c, 0, 68, 64
2, 24266, Note_off_c, 0, 63, 64
2, 24270, Control_c, 0, 64, 0
2, 24284, Note_on_c, 0, 55, 72
2, 24330, Control_c, 0, 64, 127
2, 24378, Note_off_c, 0, 55, 64
2, 24380, Note_on_c, 0, 63, 60
2, 24382, Note_on_c, 0, 69, 89
2, 24462, Control_c, 0, 64, 0
2, 24468, Note_off_c, 0, 63, 64
2, 24472, Note_off_c, 0, 69, 64
2, 24480, Note_on_c, 0, 72, 80
2, 24482, Note_on_c, 0, 55, 72
2, 24526, Control_c, 0, 64, 127
2, 24578, Note_off_c, 0, 72, 64
2, 24580, Note_on_c, 0, 70, 89
2, 24582, Note_on_c, 0, 63, 60
2, 24586, Note_off_c, 0, 55, 64
2, 24624, Note_off_c, 0, 70, 64
2, 24664, Note_off_c, 0, 63, 64
2, 24676, Control_c, 0, 64, 0
2, 24688, Note_on_c, 0, 56, 64
2, 24746, Control_c, 0, 64, 127
2, 24774, Note_on_c, 0, 63, 64
2, 24782, Note_on_c, 0, 71, 93
2, 24786, Note_off_c, 0, 56, 64
2, 24862, Note_off_c, 0, 71, 64
2, 24870, Control_c, 0, 64, 0
2, 24876, Note_off_c, 0, 63, 64
2, 24876, Note_on_c, 0, 56, 80
2, 24878, Note_on_c, 0, 73, 80
2, 24926, Control_c, 0, 64, 127
2, 24970, Note_off_c, 0, 73, 64
2, 24974, Note_off_c, 0, 56, 64
2, 24974, Note_on_c, 0, 63, 72
2, 24976, Note_on_c, 0, 72, 98
2, 25022, Note_off_c, 0, 72, 64
2, 25036, Note_off_c, 0, 63, 64
2, 25078, Note_on_c, 0, 53, 68
2, 25080, Control_c, 0, 64, 0
2, 25138, Control_c, 0, 64, 127
2, 25176, Note_on_c, 0, 62, 80
2, 25178, Note_on_c, 0, 74, 93
2, 25184, Note_off_c, 0, 53, 64
2, 25264, Note_off_c, 0, 62, 64
2, 25266, Note_off_c, 0, 74, 64
2, 25268, Control_c, 0, 64, 0
2, 25276, Note_on_c, 0, 56, 76
2, 25280, Note_on_c, 0, 80, 98
2, 25310, Control_c, 0, 64, 127
2, 25374, Note_off_c, 0, 56, 64
2, 25376, Note_on_c, 0, 62, 76
2, 25380, Note_off_c, 0, 80, 64
2, 25382, Note_on_c, 0, 74, 98
2, 25430, Note_off_c, 0, 62, 64
2, 25466, Note_off_c, 0, 74, 64
2, 25476, Control_c, 0, 64, 0
2, 25478, Note_on_c, 0, 51, 59
2, 25482, Note_on_c, 0, 75, 98
2, 25526, Control_c, 0, 64, 127
2, 25590, Note_on_c, 0, 63, 55
2, 25596, Note_off_c, 0, 51, 64
2, 25612, Note_off_c, 0, 75, 64
2, 25686, Control_c, 0, 64, 0
2, 25690, Note_off_c, 0, 63, 64
2, 25690, Note_on_c, 0, 55, 68
2, 25752, Control_c, 0, 64, 127
2, 25786, Note_off_c, 0, 55, 64
2, 25792, Note_on_c, 0, 63, 53
2, 25846, Note_off_c, 0, 63, 64
2, 25888, Note_on_c, 0, 53, 56
2, 25892, Control_c, 0, 64, 0
2, 25934, Control_c, 0, 64, 127
2, 25980, Note_on_c, 0, 62, 76
2, 25988, Note_on_c, 0, 74, 93
2, 26010, Note_off_c, 0, 53, 64
2, 26066, Note_off_c, 0, 74, 64
2, 26068, Note_off_c, 0, 62, 64
2, 26068, Control_c, 0, 64, 0
2, 26078, Note_on_c, 0, 56, 80
2, 26080, Note_on_c, 0, 80, 93
2, 26112, Control_c, 0, 64, 127
2, 26176, Note_off_c, 0, 56, 64
2, 26180, Note_off_c, 0, 80, 64
2, 26180, Note_on_c, 0, 74, 89
2, 26184, Note_on_c, 0, 62, 76
2, 26242, Note_off_c, 0, 62, 64
2, 26252, Note_off_c, 0, 74, 64
2, 26272, Control_c, 0, 64, 0
2, 26278, Note_on_c, 0, 51, 62
2, 26280, Note_on_c, 0, 75, 102
2, 26322, Control_c, 0, 64, 127
2, 26376, Note_on_c, 0, 63, 62
2, 26384, Note_off_c, 0, 51, 64
2, 26392, Note_off_c, 0, 75, 64
2, 26470, Note_off_c, 0, 63, 64
2, 26478, Note_on_c, 0, 55, 76
2, 26492, Control_c, 0, 64, 0
2, 26526, Control_c, 0, 64, 127
2, 26574, Note_off_c, 0, 55, 64
2, 26582, Note_on_c, 0, 63, 57
2, 26624, Note_off_c, 0, 63, 64
2, 26672, Note_on_c, 0, 49, 49
2, 26688, Control_c, 0, 64, 0
2, 26726, Control_c, 0, 64, 127
2, 26776, Note_off_c, 0, 49, 64
2, 26778, Note_on_c, 0, 58, 64
2, 26778, Note_on_c, 0, 79, 93
2, 26856, Note_off_c, 0, 79, 64
2, 26860, Note_off_c, 0, 58, 64
2, 26870, Control_c, 0, 64, 0
2, 26874, Note_on_c, 0, 49, 89
2, 26876, Note_on_c, 0, 88, 93
2, 26906, Control_c, 0, 64, 127
2, 26966, Note_off_c, 0, 49, 64
2, 26976, Note_off_c, 0, 88, 64
2, 26976, Note_on_c, 0, 58, 57
2, 26976, Note_on_c, 0, 79, 93
2, 27038, Note_off_c, 0, 58, 64
2, 27050, Note_off_c, 0, 79, 64
2, 27064, Control_c, 0, 64, 0
2, 27072, Note_on_c, 0, 48, 80
2, 27076, Note_on_c, 0, 80, 93
2, 27104, Control_c, 0, 64, 127
2, 27134, Note_off_c, 0, 80, 64
2, 27180, Note_on_c, 0, 56, 62
2, 27208, Note_off_c, 0, 48, 64
2, 27252, Note_off_c, 0, 56, 64
2, 27276, Note_on_c, 0, 51, 60
2, 27346, Note_off_c, 0, 51, 64
2, 27372, Note_on_c, 0, 56, 76
2, 27436, Note_off_c, 0, 56, 64
2, 27466, Control_c, 0, 64, 0
2, 27480, Note_on_c, 0, 49, 60
2, 27520, Control_c, 0, 64, 127
2, 27582, Note_on_c, 0, 58, 72
2, 27584, Note_on_c, 0, 79, 62
2, 27606, Note_off_c, 0, 49, 64
2, 27638, Note_off_c, 0, 79, 64
2, 27656, Note_off_c, 0, 58, 64
2, 27684, Control_c, 0, 64, 0
2, 27686, Note_on_c, 0, 88, 100
2, 27686, Note_on_c, 0, 52, 85
2, 27730, Control_c, 0, 64, 127
2, 27778, Note_on_c, 0, 58, 68
2, 27786, Note_off_c, 0, 52, 64
2, 27786, Note_on_c, 0, 79, 85
2, 27806, Note_off_c, 0, 88, 64
2, 27846, Note_off_c, 0, 79, 64
2, 27848, Note_off_c, 0, 58, 64
2, 27870, Control_c, 0, 64, 0
2, 27888, Note_on_c, 0, 48, 89
2, 27924, Control_c, 0, 64, 127
2, 27982, Note_on_c, 0, 79, 85
2, 27984, Note_on_c, 0, 56, 68
2, 27992, Note_off_c, 0, 48, 64
2, 28076, Control_c, 0, 64, 0
2, 28084, Note_off_c, 0, 79, 64
2, 28090, Note_off_c, 0, 56, 64
2, 28090, Note_on_c, 0, 82, 85
2, 28090, Note_on_c, 0, 51, 76
2, 28118, Control_c, 0, 64, 127
2, 28184, Note_off_c, 0, 82, 64
2, 28188, Note_on_c, 0, 80, 93
2, 28192, Note_off_c, 0, 51, 64
2, 28192, Note_on_c, 0, 56, 68
2, 28236, Note_off_c, 0, 80, 64
2, 28248, Note_off_c, 0, 56, 64
2, 28288, Control_c, 0, 64, 0
2, 28290, Note_on_c, 0, 43, 89
2, 28336, Control_c, 0, 64, 127
2, 28382, Note_off_c, 0, 43, 64
2, 28388, Note_on_c, 0, 81, 89
2, 28390, Note_on_c, 0, 55, 80
2, 28474, Control_c, 0, 64, 0
2, 28476, Note_off_c, 0, 81, 64
2, 28484, Note_off_c, 0, 55, 64
2, 28490, Note_on_c, 0, 84, 89
2, 28490, Note_on_c, 0, 51, 72
2, 28520, Control_c, 0, 64, 127
2, 28584, Note_off_c, 0, 84, 64
2, 28588, Note_on_c, 0, 82, 85
2, 28594, Note_off_c, 0, 51, 64
2, 28596, Note_on_c, 0, 55, 76
2, 28630, Note_off_c, 0, 82, 64
2, 28658, Note_off_c, 0, 55, 64
2, 28690, Control_c, 0, 64, 0
2, 28692, Note_on_c, 0, 44, 80
2, 28732, Control_c, 0, 64, 127
2, 28784, Note_off_c, 0, 44, 64
2, 28786, Note_on_c, 0, 56, 76
2, 28788, Note_on_c, 0, 83, 89
2, 28872, Note_off_c, 0, 56, 64
2, 28872, Note_off_c, 0, 83, 64
2, 28872, Control_c, 0, 64, 0
2, 28884, Note_on_c, 0, 51, 76
2, 28888, Note_on_c, 0, 85, 80
2, 28920, Control_c, 0, 64, 127
2, 28968, Note_off_c, 0, 85, 64
2, 28980, Note_on_c, 0, 84, 85
2, 28984, Note_on_c, 0, 56, 76
2, 28986, Note_off_c, 0, 51, 64
2, 29054, Note_off_c, 0, 84, 64
2, 29068, Note_off_c, 0, 56, 64
2, 29082, Note_on_c, 0, 46, 89
2, 29086, Control_c, 0, 64, 0
2, 29126, Control_c, 0, 64, 127
2, 29180, Note_on_c, 0, 58, 76
2, 29180, Note_on_c, 0, 84, 93
2, 29188, Note_off_c, 0, 46, 64
2, 29274, Note_off_c, 0, 58, 64
2, 29278, Note_off_c, 0, 84, 64
2, 29282, Control_c, 0, 64, 0
2, 29284, Note_on_c, 0, 51, 85
2, 29288, Note_on_c, 0, 89, 98
2, 29322, Control_c, 0, 64, 127
2, 29380, Note_off_c, 0, 51, 64
2, 29380, Note_on_c, 0, 87, 80
2, 29382, Note_on_c, 0, 58, 64
2, 29386, Note_off_c, 0, 89, 64
2, 29440, Note_off_c, 0, 87, 64
2, 29456, Note_off_c, 0, 58, 64
2, 29480, Note_on_c, 0, 48, 93
2, 29484, Control_c, 0, 64, 0
2, 29534, Control_c, 0, 64, 127
2, 29570, Note_on_c, 0, 86, 102
2, 29660, Note_off_c, 0, 86, 64
2, 29672, Control_c, 0, 64, 0
2, 29674, Note_on_c, 0, 51, 93
2, 29674, Note_on_c, 0, 89, 93
2, 29676, Note_off_c, 0, 48, 64
2, 29718, Control_c, 0, 64, 127
2, 29768, Note_off_c, 0, 89, 64
2, 29774, Note_on_c, 0, 87, 85
2, 29804, Control_c, 0, 64, 0
2, 29858, Control_c, 0, 64, 127
2, 29872, Note_on_c, 0, 85, 85
2, 29874, Note_off_c, 0, 87, 64
2, 29962, Note_off_c, 0, 85, 64
2, 29968, Note_on_c, 0, 84, 89
2, 30048, Control_c, 0, 64, 0
2, 30066, Note_off_c, 0, 84, 64
2, 30068, Note_on_c, 0, 56, 76
2, 30068, Note_on_c, 0, 82, 89
2, 30070, Note_off_c, 0, 51, 64
2, 30090, Control_c, 0, 64, 127
2, 30144, Note_off_c, 0, 82, 64
2, 30170, Note_on_c, 0, 80, 93
2, 30194, Note_off_c, 0, 80, 64
2, 30254, Note_off_c, 0, 56, 64
2, 30268, Note_on_c, 0, 49, 85
2, 30268, Control_c, 0, 64, 0
2, 30270, Note_on_c, 0, 79, 93
2, 30320, Control_c, 0, 64, 127
2, 30358, Note_off_c, 0, 79, 64
2, 30364, Note_on_c, 0, 77, 76
2, 30450, Note_off_c, 0, 77, 64
2, 30450, Control_c, 0, 64, 0
2, 30458, Note_off_c, 0, 49, 64
2, 30462, Note_on_c, 0, 75, 89
2, 30464, Note_on_c, 0, 53, 89
2, 30490, Control_c, 0, 64, 127
2, 30562, Note_off_c, 0, 75, 64
2, 30562, Note_on_c, 0, 73, 80
2, 30578, Note_off_c, 0, 73, 64
2, 30664, Note_on_c, 0, 72, 76
2, 30668, Control_c, 0, 64, 0
2, 30702, Control_c, 0, 64, 127
2, 30760, Note_off_c, 0, 72, 64
2, 30762, Note_on_c, 0, 70, 85
2, 30852, Control_c, 0, 64, 0
2, 30854, Note_off_c, 0, 70, 64
2, 30860, Note_on_c, 0, 68, 89
2, 30864, Note_on_c, 0, 58, 72
2, 30866, Note_off_c, 0, 53, 64
2, 30890, Control_c, 0, 64, 127
2, 30950, Note_off_c, 0, 68, 64
2, 30954, Note_on_c, 0, 67, 76
2, 30990, Note_off_c, 0, 67, 64
2, 31020, Note_off_c, 0, 58, 64
2, 31052, Control_c, 0, 64, 0
2, 31056, Note_on_c, 0, 65, 76
2, 31060, Note_on_c, 0, 51, 72
2, 31100, Control_c, 0, 64, 127
2, 31154, Note_on_c, 0, 63, 62
2, 31158, Note_off_c, 0, 65, 64
2, 31252, Note_off_c, 0, 63, 64
2, 31254, Note_off_c, 0, 51, 64
2, 31256, Note_on_c, 0, 62, 76
2, 31256, Note_on_c, 0, 56, 72
2, 31256, Control_c, 0, 64, 0
2, 31304, Control_c, 0, 64, 127
2, 31352, Note_on_c, 0, 63, 72
2, 31356, Note_off_c, 0, 62, 64
2, 31394, Control_c, 0, 64, 0
2, 31438, Control_c, 0, 64, 127
2, 31452, Note_off_c, 0, 63, 64
2, 31454, Note_on_c, 0, 62, 60
2, 31552, Note_off_c, 0, 62, 64
2, 31556, Note_on_c, 0, 63, 62
2, 31606, Note_off_c, 0, 56, 64
2, 31648, Note_off_c, 0, 63, 64
2, 31650, Note_on_c, 0, 62, 72
2, 31654, Control_c, 0, 64, 0
2, 31656, Note_on_c, 0, 60, 85
2, 31700, Control_c, 0, 64, 127
2, 31750, Note_off_c, 0, 62, 64
2, 31750, Note_on_c, 0, 63, 56
2, 31844, Note_off_c, 0, 63, 64
2, 31844, Control_c, 0, 64, 0
2, 31846, Note_off_c, 0, 60, 64
2, 31846, Note_on_c, 0, 62, 76
2, 31846, Note_on_c, 0, 61, 89
2, 31896, Control_c, 0, 64, 127
2, 31944, Note_on_c, 0, 63, 60
2, 31946, Note_off_c, 0, 62, 64
2, 32032, Control_c, 0, 64, 0
2, 32042, Note_off_c, 0, 63, 64
2, 32044, Note_on_c, 0, 65, 72
2, 32048, Note_on_c, 0, 58, 76
2, 32058, Note_off_c, 0, 61, 64
2, 32078, Control_c, 0, 64, 127
2, 32144, Note_on_c, 0, 63, 57
2, 32148, Note_off_c, 0, 65, 64
2, 32230, Control_c, 0, 64, 0
2, 32242, Note_off_c, 0, 63, 64
2, 32244, Note_on_c, 0, 62, 80
2, 32250, Note_off_c, 0, 58, 64
2, 32252, Note_on_c, 0, 55, 72
2, 32274, Control_c, 0, 64, 127
2, 32342, Note_off_c, 0, 62, 64
2, 32346, Note_on_c, 0, 63, 57
2, 32416, Control_c, 0, 64, 0
2, 32426, Note_off_c, 0, 63, 64
2, 32438, Note_on_c, 0, 65, 80
2, 32442, Note_off_c, 0, 55, 64
2, 32442, Note_on_c, 0, 49, 80
2, 32452, Control_c, 0, 64, 127
2, 32478, Note_off_c, 0, 49, 64
2, 32536, Note_on_c, 0, 63, 80
2, 32538, Note_off_c, 0, 65, 64
2, 32560, Note_off_c, 0, 63, 64
2, 32638, Note_on_c, 0, 36, 93
2, 32640, Control_c, 0, 64, 0
2, 32684, Control_c, 0, 64, 127
2, 32732, Note_on_c, 0, 84, 80
2, 32798, Note_off_c, 0, 84, 64
2, 32828, Note_off_c, 0, 36, 64
2, 32830, Control_c, 0, 64, 0
2, 32832, Note_on_c, 0, 39, 85
2, 32834, Note_on_c, 0, 89, 98
2, 32898, Control_c, 0, 64, 127
2, 32926, Note_off_c, 0, 89, 64
2, 32932, Note_on_c, 0, 87, 80
2, 33014, Control_c, 0, 64, 0
2, 33028, Note_on_c, 0, 85, 76
2, 33030, Note_off_c, 0, 87, 64
2, 33050, Control_c, 0, 64, 127
2, 33120, Note_off_c, 0, 85, 64
2, 33124, Note_on_c, 0, 84, 89
2, 33158, Note_off_c, 0, 84, 64
2, 33220, Note_on_c, 0, 82, 76
2, 33222, Control_c, 0, 64, 0
2, 33222, Note_on_c, 0, 44, 76
2, 33226, Note_off_c, 0, 39, 64
2, 33262, Control_c, 0, 64, 127
2, 33316, Note_off_c, 0, 82, 64
2, 33322, Note_on_c, 0, 80, 89
2, 33402, Note_off_c, 0, 80, 64
2, 33404, Note_off_c, 0, 44, 64
2, 33404, Control_c, 0, 64, 0
2, 33414, Note_on_c, 0, 37, 89
2, 33420, Note_on_c, 0, 79, 93
2, 33452, Control_c, 0, 64, 127
2, 33506, Note_off_c, 0, 79, 64
2, 33514, Note_on_c, 0, 77, 89
2, 33548, Note_off_c, 0, 77, 64
2, 33608, Note_on_c, 0, 75, 72
2, 33612, Control_c, 0, 64, 0
2, 33614, Note_on_c, 0, 41, 85
2, 33616, Note_off_c, 0, 37, 64
2, 33660, Control_c, 0, 64, 127
2, 33708, Note_on_c, 0, 73, 72
2, 33712, Note_off_c, 0, 75, 64
2, 33732, Control_c, 0, 64, 0
2, 33770, Control_c, 0, 64, 127
2, 33786, Note_off_c, 0, 73, 64
2, 33812, Note_on_c, 0, 72, 89
2, 33834, Note_off_c, 0, 72, 64
2, 33912, Note_on_c, 0, 70, 80
2, 33966, Note_off_c, 0, 70, 64
2, 33988, Control_c, 0, 64, 0
2, 34000, Note_on_c, 0, 68, 85
2, 34008, Note_on_c, 0, 46, 76
2, 34010, Note_off_c, 0, 41, 64
2, 34030, Control_c, 0, 64, 127
2, 34100, Note_off_c, 0, 68, 64
2, 34100, Note_on_c, 0, 67, 85
2, 34122, Note_off_c, 0, 67, 64
2, 34190, Note_off_c, 0, 46, 64
2, 34192, Note_on_c, 0, 39, 72
2, 34200, Note_on_c, 0, 65, 62
2, 34210, Control_c, 0, 64, 0
2, 34274, Control_c, 0, 64, 127
2, 34294, Note_on_c, 0, 63, 76
2, 34300, Note_off_c, 0, 65, 64
2, 34384, Note_off_c, 0, 39, 64
2, 34386, Note_off_c, 0, 63, 64
2, 34386, Note_on_c, 0, 61, 89
2, 34388, Control_c, 0, 64, 0
2, 34390, Note_on_c, 0, 44, 76
2, 34432, Control_c, 0, 64, 127
2, 34480, Note_off_c, 0, 61, 64
2, 34482, Note_on_c, 0, 60, 89
2, 34518, Note_off_c, 0, 60, 64
2, 34568, Control_c, 0, 64, 0
2, 34580, Note_on_c, 0, 58, 76
2, 34610, Control_c, 0, 64, 127
2, 34674, Note_on_c, 0, 56, 72
2, 34676, Note_off_c, 0, 58, 64
2, 34768, Note_off_c, 0, 56, 64
2, 34772, Note_off_c, 0, 44, 64
2, 34772, Note_on_c, 0, 55, 80
2, 34782, Note_on_c, 0, 48, 76
2, 34784, Control_c, 0, 64, 0
2, 34828, Control_c, 0, 64, 127
2, 34870, Note_off_c, 0, 55, 64
2, 34872, Note_on_c, 0, 53, 85
2, 34922, Note_off_c, 0, 53, 64
2, 34964, Control_c, 0, 64, 0
2, 34972, Note_off_c, 0, 48, 64
2, 34976, Note_on_c, 0, 49, 85
2, 34976, Note_on_c, 0, 51, 80
2, 35012, Control_c, 0, 64, 127
2, 35054, Note_off_c, 0, 51, 64
2, 35062, Note_on_c, 0, 53, 68
2, 35146, Note_off_c, 0, 53, 64
2, 35162, Control_c, 0, 64, 0
2, 35168, Note_on_c, 0, 55, 85
2, 35172, Note_on_c, 0, 46, 85
2, 35176, Note_off_c, 0, 49, 64
2, 35214, Control_c, 0, 64, 127
2, 35264, Note_off_c, 0, 55, 64
2, 35266, Note_on_c, 0, 56, 80
2, 35342, Control_c, 0, 64, 0
2, 35348, Note_off_c, 0, 56, 64
2, 35362, Note_off_c, 0, 46, 64
2, 35364, Note_on_c, 0, 58, 76
2, 35366, Note_on_c, 0, 43, 76
2, 35386, Control_c, 0, 64, 127
2, 35450, Note_off_c, 0, 58, 64
2, 35462, Note_on_c, 0, 60, 89
2, 35496, Note_off_c, 0, 60, 64
2, 35540, Note_off_c, 0, 43, 64
2, 35546, Control_c, 0, 64, 0
2, 35556, Note_on_c, 0, 39, 72
2, 35562, Note_on_c, 0, 61, 89
2, 35584, Control_c, 0, 64, 127
2, 35654, Note_off_c, 0, 61, 64
2, 35660, Note_on_c, 0, 58, 76
2, 35718, Note_off_c, 0, 58, 64
2, 35722, Note_off_c, 0, 39, 64
2, 35726, Control_c, 0, 64, 0
2, 35758, Note_on_c, 0, 56, 98
2, 35762, Note_on_c, 0, 44, 85
2, 35780, Control_c, 0, 64, 127
2, 35822, Note_off_c, 0, 56, 64
2, 35864, Note_off_c, 0, 44, 64
2, 35962, Control_c, 0, 64, 0
2, 35962, Note_on_c, 0, 56, 107
2, 35996, Control_c, 0, 64, 127
2, 36112, Note_off_c, 0, 56, 64
2, 36128, Control_c, 0, 64, 0
2, 36134, Note_on_c, 0, 62, 107
2, 36162, Note_off_c, 0, 62, 64
2, 36164, Note_on_c, 0, 71, 89
2, 36354, Note_on_c, 0, 59, 93
2, 36356, Note_on_c, 0, 50, 93
2, 36356, Note_on_c, 0, 53, 89
2, 36358, Note_on_c, 0, 56, 85
2, 36386, Note_off_c, 0, 50, 64
2, 36386, Note_off_c, 0, 59, 64
2, 36390, Note_off_c, 0, 56, 64
2, 36390, Note_off_c, 0, 53, 64
2, 36434, Note_off_c, 0, 71, 64
2, 36454, Note_on_c, 0, 70, 89
2, 36490, Note_off_c, 0, 70, 64
2, 36556, Note_on_c, 0, 68, 113
2, 36752, Note_on_c, 0, 51, 93
2, 36752, Note_on_c, 0, 56, 93
2, 36752, Note_on_c, 0, 60, 107
2, 36776, Note_off_c, 0, 60, 64
2, 36780, Note_off_c, 0, 56, 64
2, 36780, Note_off_c, 0, 51, 64
2, 36940, Note_off_c, 0, 68, 64
2, 36946, Note_on_c, 0, 67, 107
2, 37134, Note_on_c, 0, 61, 80
2, 37134, Note_on_c, 0, 58, 76
2, 37136, Note_on_c, 0, 51, 85
2, 37146, Control_c, 0, 64, 127
2, 37220, Note_off_c, 0, 51, 64
2, 37224, Note_off_c, 0, 61, 64
2, 37226, Note_off_c, 0, 58, 64
2, 37236, Note_on_c, 0, 75, 102
2, 37238, Control_c, 0, 64, 0
2, 37242, Note_off_c, 0, 67, 64
2, 37282, Note_off_c, 0, 75, 64
2, 37334, Note_on_c, 0, 75, 102
2, 37512, Note_off_c, 0, 75, 64
2, 37516, Note_on_c, 0, 68, 98
2, 37520, Note_on_c, 0, 56, 89
2, 37520, Note_on_c, 0, 60, 93
2, 37608, Note_off_c, 0, 68, 64
2, 37622, Note_off_c, 0, 60, 64
2, 37624, Note_off_c, 0, 56, 64
2, 37676, Note_on_c, 0, 62, 113
2, 37702, Note_off_c, 0, 62, 64
2, 37714, Note_on_c, 0, 71, 102
2, 37904, Note_on_c, 0, 50, 93
2, 37904, Note_on_c, 0, 59, 93
2, 37904, Note_on_c, 0, 53, 80
2, 37904, Note_on_c, 0, 56, 93
2, 37934, Note_off_c, 0, 59, 64
2, 37940, Note_off_c, 0, 56, 64
2, 37940, Note_off_c, 0, 53, 64
2, 37940, Note_off_c, 0, 50, 64
2, 38000, Note_on_c, 0, 70, 80
2, 38008, Note_off_c, 0, 71, 64
2, 38058, Note_off_c, 0, 70, 64
2, 38104, Note_on_c, 0, 68, 107
2, 38292, Note_on_c, 0, 56, 85
2, 38294, Note_on_c, 0, 51, 89
2, 38294, Note_on_c, 0, 60, 93
2, 38336, Note_off_c, 0, 60, 64
2, 38336, Note_off_c, 0, 51, 64
2, 38340, Note_off_c, 0, 56, 64
2, 38478, Note_off_c, 0, 68, 64
2, 38488, Note_on_c, 0, 67, 98
2, 38678, Note_on_c, 0, 61, 107
2, 38678, Note_on_c, 0, 58, 98
2, 38680, Note_on_c, 0, 51, 93
2, 38714, Note_off_c, 0, 61, 64
2, 38716, Note_off_c, 0, 51, 64
2, 38716, Note_off_c, 0, 58, 64
2, 38770, Note_on_c, 0, 75, 89
2, 38776, Note_off_c, 0, 67, 64
2, 38810, Note_off_c, 0, 75, 64
2, 38870, Note_on_c, 0, 75, 107
2, 39052, Note_on_c, 0, 60, 98
2, 39054, Note_on_c, 0, 56, 85
2, 39054, Note_on_c, 0, 68, 102
2, 39056, Note_off_c, 0, 75, 64
2, 39060, Control_c, 0, 64, 127
2, 39088, Note_off_c, 0, 68, 64
2, 39100, Note_off_c, 0, 60, 64
2, 39102, Note_off_c, 0, 56, 64
2, 39192, Control_c, 0, 64, 0
2, 39204, Note_on_c, 0, 74, 107
2, 39230, Note_off_c, 0, 74, 64
2, 39244, Note_on_c, 0, 83, 102
2, 39440, Note_on_c, 0, 62, 98
2, 39442, Note_on_c, 0, 68, 93
2, 39444, Note_on_c, 0, 65, 98
2, 39476, Note_off_c, 0, 65, 64
2, 39476, Note_off_c, 0, 68, 64
2, 39478, Note_off_c, 0, 62, 64
2, 39514, Note_off_c, 0, 83, 64
2, 39538, Note_on_c, 0, 82, 98
2, 39580, Note_off_c, 0, 82, 64
2, 39632, Note_on_c, 0, 80, 113
2, 39828, Note_on_c, 0, 68, 93
2, 39828, Note_on_c, 0, 72, 98
2, 39828, Note_on_c, 0, 63, 93
2, 39854, Note_off_c, 0, 72, 64
2, 39860, Note_off_c, 0, 63, 64
2, 39864, Note_off_c, 0, 68, 64
2, 39974, Note_off_c, 0, 80, 64
2, 40020, Note_on_c, 0, 79, 113
2, 40214, Note_on_c, 0, 73, 93
2, 40214, Note_on_c, 0, 63, 89
2, 40214, Note_on_c, 0, 70, 89
2, 40242, Note_off_c, 0, 73, 64
2, 40246, Note_off_c, 0, 70, 64
2, 40250, Note_off_c, 0, 63, 64
2, 40282, Note_off_c, 0, 79, 64
2, 40312, Note_on_c, 0, 87, 85
2, 40348, Note_off_c, 0, 87, 64
2, 40442, Note_on_c, 0, 87, 98
2, 40444, Note_on_c, 0, 79, 102
2, 40444, Note_on_c, 0, 73, 107
2, 40444, Note_on_c, 0, 56, 89
2, 40444, Note_on_c, 0, 61, 93
2, 40444, Note_on_c, 0, 63, 85
2, 40446, Note_on_c, 0, 67, 93
2, 41026, Control_c, 0, 64, 127
2, 41192, Note_off_c, 0, 87, 64
2, 41198, Note_off_c, 0, 79, 64
2, 41212, Note_off_c, 0, 73, 64
2, 41234, Note_off_c, 0, 61, 64
2, 41238, Note_off_c, 0, 63, 64
2, 41242, Note_off_c, 0, 67, 64
2, 41246, Note_off_c, 0, 56, 64
2, 41412, Note_on_c, 0, 68, 28
2, 41414, Note_on_c, 0, 56, 36
2, 41414, Note_on_c, 0, 80, 51
2, 41414, Note_on_c, 0, 60, 35
2, 41414, Note_on_c, 0, 75, 56
2, 41414, Note_on_c, 0, 72, 37
2, 41416, Note_on_c, 0, 63, 47
2, 41438, Control_c, 0, 64, 0
2, 41500, Control_c, 0, 64, 127
2, 41600, Note_off_c, 0, 60, 64
2, 41616, Note_off_c, 0, 63, 64
2, 41620, Note_off_c, 0, 56, 64
2, 41622, Note_off_c, 0, 68, 64
2, 41624, Note_off_c, 0, 72, 64
2, 41626, Note_off_c, 0, 75, 64
2, 41628, Note_off_c, 0, 80, 64
2, 41726, Control_c, 0, 64, 0
2, 42290, Note_on_c, 0, 63, 64
2, 42532, Note_on_c, 0, 68, 76
2, 42544, Note_off_c, 0, 63, 64
2, 42584, Note_off_c, 0, 68, 64
2, 42776, Note_on_c, 0, 72, 72
2, 42816, Note_off_c, 0, 72, 64
2, 43008, Note_on_c, 0, 75, 76
2, 43044, Note_off_c, 0, 75, 64
2, 43232, Note_on_c, 0, 80, 72
2, 43266, Note_off_c, 0, 80, 64
2, 43476, Note_on_c, 0, 84, 72
2, 43700, Note_on_c, 0, 56, 64
2, 43704, Note_on_c, 0, 63, 36
2, 43706, Note_on_c, 0, 60, 62
2, 43812, Note_on_c, 0, 82, 72
2, 43844, Note_off_c, 0, 84, 64
2, 43868, Note_on_c, 0, 80, 60
2, 43878, Note_off_c, 0, 60, 64
2, 43884, Note_off_c, 0, 82, 64
2, 43884, Note_off_c, 0, 56, 64
2, 43886, Note_off_c, 0, 63, 64
2, 43930, Note_on_c, 0, 63, 50
2, 43932, Note_off_c, 0, 80, 64
2, 43932, Note_on_c, 0, 79, 53
2, 43934, Note_on_c, 0, 56, 50
2, 43934, Note_on_c, 0, 60, 49
2, 43982, Note_on_c, 0, 80, 59
2, 43984, Note_off_c, 0, 79, 64
2, 44050, Note_off_c, 0, 80, 64
2, 44052, Note_off_c, 0, 60, 64
2, 44064, Note_off_c, 0, 56, 64
2, 44064, Note_off_c, 0, 63, 64
2, 44184, Note_on_c, 0, 56, 59
2, 44188, Note_on_c, 0, 63, 50
2, 44192, Note_on_c, 0, 60, 62
2, 44274, Note_off_c, 0, 60, 64
2, 44276, Note_off_c, 0, 63, 64
2, 44286, Note_off_c, 0, 56, 64
2, 44390, Note_on_c, 0, 73, 72
2, 44438, Note_off_c, 0, 73, 64
2, 44456, Note_on_c, 0, 85, 76
2, 44664, Note_on_c, 0, 55, 62
2, 44666, Note_on_c, 0, 61, 59
2, 44666, Note_on_c, 0, 63, 49
2, 44672, Note_on_c, 0, 58, 52
2, 44742, Note_off_c, 0, 58, 64
2, 44742, Note_off_c, 0, 61, 64
2, 44756, Note_off_c, 0, 63, 64
2, 44768, Note_off_c, 0, 55, 64
2, 44774, Note_on_c, 0, 84, 76
2, 44794, Note_off_c, 0, 85, 64
2, 44822, Note_on_c, 0, 82, 56
2, 44844, Note_off_c, 0, 84, 64
2, 44882, Note_on_c, 0, 81, 72
2, 44886, Note_off_c, 0, 82, 64
2, 44902, Note_on_c, 0, 63, 56
2, 44904, Note_on_c, 0, 55, 76
2, 44908, Note_on_c, 0, 61, 62
2, 44910, Note_on_c, 0, 58, 55
2, 44944, Note_off_c, 0, 81, 64
2, 44946, Note_on_c, 0, 82, 62
2, 44960, Note_off_c, 0, 58, 64
2, 44970, Note_off_c, 0, 61, 64
2, 44980, Note_off_c, 0, 63, 64
2, 45000, Note_off_c, 0, 55, 64
2, 45002, Note_off_c, 0, 82, 64
2, 45150, Note_on_c, 0, 55, 80
2, 45154, Note_on_c, 0, 58, 50
2, 45154, Note_on_c, 0, 63, 60
2, 45158, Note_on_c, 0, 61, 72
2, 45178, Note_off_c, 0, 58, 64
2, 45206, Note_off_c, 0, 61, 64
2, 45220, Note_off_c, 0, 55, 64
2, 45232, Note_off_c, 0, 63, 64
2, 45422, Note_on_c, 0, 70, 62
2, 45476, Note_off_c, 0, 70, 64
2, 45648, Note_on_c, 0, 73, 64
2, 45680, Note_off_c, 0, 73, 64
2, 45880, Note_on_c, 0, 79, 76
2, 45924, Note_off_c, 0, 79, 64
2, 46098, Note_on_c, 0, 82, 76
2, 46138, Note_off_c, 0, 82, 64
2, 46274, Note_on_c, 0, 73, 64
2, 46320, Note_off_c, 0, 73, 64
2, 46328, Note_on_c, 0, 85, 68
2, 46546, Note_on_c, 0, 61, 64
2, 46546, Note_on_c, 0, 58, 60
2, 46548, Note_on_c, 0, 55, 64
2, 46548, Note_on_c, 0, 64, 57
2, 46620, Note_off_c, 0, 58, 64
2, 46620, Note_off_c, 0, 61, 64
2, 46638, Note_off_c, 0, 64, 64
2, 46642, Note_on_c, 0, 84, 68
2, 46646, Note_off_c, 0, 55, 64
2, 46656, Note_off_c, 0, 85, 64
2, 46672, Note_off_c, 0, 84, 64
2, 46688, Note_on_c, 0, 82, 56
2, 46748, Note_on_c, 0, 81, 72
2, 46750, Note_off_c, 0, 82, 64
2, 46774, Note_on_c, 0, 55, 76
2, 46776, Note_on_c, 0, 64, 64
2, 46778, Note_on_c, 0, 61, 62
2, 46780, Note_on_c, 0, 58, 57
2, 46804, Note_off_c, 0, 81, 64
2, 46806, Note_on_c, 0, 82, 64
2, 46830, Note_off_c, 0, 61, 64
2, 46832, Note_off_c, 0, 58, 64
2, 46844, Note_off_c, 0, 64, 64
2, 46852, Note_off_c, 0, 82, 64
2, 46854, Note_off_c, 0, 55, 64
2, 47010, Note_on_c, 0, 55, 62
2, 47016, Note_on_c, 0, 64, 64
2, 47016, Note_on_c, 0, 58, 56
2, 47018, Note_on_c, 0, 61, 64
2, 47064, Note_off_c, 0, 58, 64
2, 47074, Note_off_c, 0, 61, 64
2, 47084, Note_off_c, 0, 55, 64
2, 47084, Note_off_c, 0, 64, 64
2, 47214, Note_on_c, 0, 73, 85
2, 47256, Note_off_c, 0, 73, 64
2, 47276, Note_on_c, 0, 85, 62
2, 47478, Note_on_c, 0, 54, 60
2, 47482, Note_on_c, 0, 64, 68
2, 47484, Note_on_c, 0, 61, 68
2, 47484, Note_on_c, 0, 58, 60
2, 47552, Note_off_c, 0, 58, 64
2, 47556, Note_off_c, 0, 61, 64
2, 47566, Note_off_c, 0, 64, 64
2, 47566, Note_off_c, 0, 54, 64
2, 47590, Note_on_c, 0, 84, 64
2, 47614, Note_off_c, 0, 85, 64
2, 47636, Note_on_c, 0, 82, 50
2, 47654, Note_off_c, 0, 84, 64
2, 47688, Note_on_c, 0, 81, 59
2, 47692, Note_off_c, 0, 82, 64
2, 47716, Note_on_c, 0, 54, 62
2, 47720, Note_on_c, 0, 64, 76
2, 47722, Note_on_c, 0, 61, 68
2, 47724, Note_on_c, 0, 58, 64
2, 47746, Note_off_c, 0, 81, 64
2, 47748, Note_on_c, 0, 82, 76
2, 47762, Note_off_c, 0, 58, 64
2, 47766, Note_off_c, 0, 61, 64
2, 47778, Note_off_c, 0, 54, 64
2, 47786, Note_off_c, 0, 64, 64
2, 47788, Note_off_c, 0, 82, 64
2, 47948, Note_on_c, 0, 54, 57
2, 47956, Note_on_c, 0, 61, 60
2, 47956, Note_on_c, 0, 64, 68
2, 47958, Note_on_c, 0, 58, 56
2, 48008, Note_off_c, 0, 54, 64
2, 48016, Note_off_c, 0, 64, 64
2, 48016, Note_off_c, 0, 61, 64
2, 48018, Note_off_c, 0, 58, 64
2, 48180, Note_on_c, 0, 81, 98
2, 48180, Note_on_c, 0, 53, 71
2, 48240, Note_off_c, 0, 53, 64
2, 48242, Control_c, 0, 64, 127
2, 48242, Control_c, 0, 64, 127
2, 48316, Note_on_c, 0, 65, 49
2, 48360, Note_off_c, 0, 81, 64
2, 48426, Note_off_c, 0, 65, 64
2, 48426, Note_on_c, 0, 53, 51
2, 48530, Note_off_c, 0, 53, 64
2, 48548, Note_on_c, 0, 65, 49
2, 48644, Note_off_c, 0, 65, 64
2, 48656, Note_on_c, 0, 53, 44
2, 48674, Control_c, 0, 64, 0
2, 48674, Control_c, 0, 64, 0
2, 48772, Note_off_c, 0, 53, 64
2, 48772, Control_c, 0, 64, 127
2, 48774, Control_c, 0, 64, 127
2, 48780, Note_on_c, 0, 65, 45
2, 48870, Note_off_c, 0, 65, 64
2, 48884, Note_on_c, 0, 53, 44
2, 48912, Note_on_c, 0, 78, 52
2, 48988, Note_off_c, 0, 53, 64
2, 49004, Note_on_c, 0, 65, 45
2, 49104, Note_off_c, 0, 65, 64
2, 49118, Note_on_c, 0, 53, 47
2, 49146, Control_c, 0, 64, 0
2, 49146, Control_c, 0, 64, 0
2, 49156, Note_on_c, 0, 77, 52
2, 49182, Note_off_c, 0, 78, 64
2, 49208, Control_c, 0, 64, 127
2, 49208, Control_c, 0, 64, 127
2, 49228, Note_off_c, 0, 53, 64
2, 49238, Note_on_c, 0, 65, 51
2, 49338, Note_off_c, 0, 65, 64
2, 49352, Note_on_c, 0, 53, 49
2, 49378, Note_on_c, 0, 75, 62
2, 49380, Note_off_c, 0, 77, 64
2, 49440, Note_off_c, 0, 53, 64
2, 49478, Note_on_c, 0, 65, 45
2, 49558, Note_off_c, 0, 65, 64
2, 49586, Note_on_c, 0, 53, 51
2, 49606, Note_on_c, 0, 72, 76
2, 49610, Note_off_c, 0, 75, 64
2, 49694, Note_off_c, 0, 53, 64
2, 49724, Note_on_c, 0, 65, 51
2, 49790, Note_off_c, 0, 65, 64
2, 49836, Note_on_c, 0, 69, 80
2, 49838, Note_on_c, 0, 53, 44
2, 49842, Note_off_c, 0, 72, 64
2, 49920, Note_on_c, 0, 65, 41
2, 49928, Note_off_c, 0, 53, 64
2, 49968, Note_off_c, 0, 65, 64
2, 50054, Control_c, 0, 64, 0
2, 50056, Control_c, 0, 64, 0
2, 50074, Note_on_c, 0, 53, 68
2, 50074, Note_on_c, 0, 63, 78
2, 50074, Note_on_c, 0, 66, 89
2, 50080, Note_off_c, 0, 69, 64
2, 50140, Control_c, 0, 64, 127
2, 50140, Control_c, 0, 64, 127
2, 50248, Note_off_c, 0, 53, 64
2, 50308, Note_on_c, 0, 53, 57
2, 50372, Note_off_c, 0, 53, 64
2, 50420, Note_off_c, 0, 66, 64
2, 50426, Note_on_c, 0, 65, 64
2, 50452, Note_off_c, 0, 63, 64
2, 50526, Control_c, 0, 64, 0
2, 50526, Control_c, 0, 64, 0
2, 50534, Note_on_c, 0, 53, 54
2, 50548, Note_on_c, 0, 61, 54
2, 50550, Note_on_c, 0, 70, 57
2, 50560, Note_off_c, 0, 65, 64
2, 50598, Control_c, 0, 64, 127
2, 50600, Control_c, 0, 64, 127
2, 50630, Note_off_c, 0, 61, 64
2, 50654, Note_off_c, 0, 53, 64
2, 50656, Note_on_c, 0, 65, 49
2, 50710, Note_off_c, 0, 70, 64
2, 50720, Note_off_c, 0, 65, 64
2, 50746, Control_c, 0, 64, 0
2, 50746, Control_c, 0, 64, 0
2, 50758, Note_on_c, 0, 53, 44
2, 50786, Note_on_c, 0, 78, 60
2, 50860, Control_c, 0, 64, 127
2, 50860, Control_c, 0, 64, 127
2, 50878, Note_off_c, 0, 53, 64
2, 50888, Note_on_c, 0, 65, 45
2, 50980, Note_off_c, 0, 65, 64
2, 50990, Note_on_c, 0, 53, 48
2, 51012, Control_c, 0, 64, 0
2, 51012, Control_c, 0, 64, 0
2, 51020, Note_on_c, 0, 77, 62
2, 51034, Note_off_c, 0, 78, 64
2, 51104, Control_c, 0, 64, 127
2, 51104, Control_c, 0, 64, 127
2, 51106, Note_off_c, 0, 53, 64
2, 51116, Note_on_c, 0, 65, 51
2, 51202, Note_off_c, 0, 65, 64
2, 51222, Note_on_c, 0, 53, 42
2, 51228, Control_c, 0, 64, 0
2, 51230, Control_c, 0, 64, 0
2, 51242, Note_on_c, 0, 75, 68
2, 51260, Note_off_c, 0, 77, 64
2, 51314, Control_c, 0, 64, 127
2, 51316, Control_c, 0, 64, 127
2, 51340, Note_off_c, 0, 53, 64
2, 51344, Note_on_c, 0, 65, 49
2, 51416, Note_off_c, 0, 65, 64
2, 51454, Note_on_c, 0, 53, 45
2, 51476, Note_on_c, 0, 72, 72
2, 51480, Note_off_c, 0, 75, 64
2, 51482, Control_c, 0, 64, 0
2, 51484, Control_c, 0, 64, 0
2, 51566, Control_c, 0, 64, 127
2, 51566, Control_c, 0, 64, 127
2, 51570, Note_off_c, 0, 53, 64
2, 51582, Note_on_c, 0, 65, 44
2, 51658, Note_off_c, 0, 65, 64
2, 51692, Note_on_c, 0, 53, 44
2, 51712, Note_on_c, 0, 69, 85
2, 51714, Note_off_c, 0, 72, 64
2, 51786, Note_off_c, 0, 53, 64
2, 51814, Note_on_c, 0, 65, 45
2, 51868, Note_off_c, 0, 65, 64
2, 51900, Control_c, 0, 64, 0
2, 51900, Control_c, 0, 64, 0
2, 51932, Note_on_c, 0, 53, 71
2, 51938, Note_on_c, 0, 66, 89
2, 51938, Note_on_c, 0, 63, 74
2, 51960, Note_off_c, 0, 69, 64
2, 51976, Control_c, 0, 64, 127
2, 51976, Control_c, 0, 64, 127
2, 52106, Note_off_c, 0, 53, 64
2, 52180, Note_on_c, 0, 53, 48
2, 52208, Note_off_c, 0, 63, 64
2, 52244, Note_off_c, 0, 53, 64
2, 52292, Note_off_c, 0, 66, 64
2, 52310, Note_on_c, 0, 65, 56
2, 52376, Control_c, 0, 64, 0
2, 52376, Control_c, 0, 64, 0
2, 52418, Note_on_c, 0, 53, 51
2, 52424, Note_on_c, 0, 61, 57
2, 52438, Note_on_c, 0, 70, 50
2, 52440, Note_off_c, 0, 65, 64
2, 52464, Control_c, 0, 64, 127
2, 52464, Control_c, 0, 64, 127
2, 52488, Note_off_c, 0, 61, 64
2, 52532, Note_off_c, 0, 53, 64
2, 52534, Note_on_c, 0, 65, 48
2, 52570, Note_off_c, 0, 70, 64
2, 52632, Note_off_c, 0, 65, 64
2, 52646, Control_c, 0, 64, 0
2, 52646, Control_c, 0, 64, 0
2, 52648, Note_on_c, 0, 53, 48
2, 52656, Note_on_c, 0, 78, 62
2, 52756, Note_off_c, 0, 53, 64
2, 52760, Control_c, 0, 64, 127
2, 52760, Control_c, 0, 64, 127
2, 52764, Note_on_c, 0, 65, 49
2, 52866, Note_off_c, 0, 65, 64
2, 52876, Note_on_c, 0, 53, 49
2, 52880, Control_c, 0, 64, 0
2, 52880, Control_c, 0, 64, 0
2, 52884, Note_on_c, 0, 77, 80
2, 52892, Note_off_c, 0, 78, 64
2, 52960, Control_c, 0, 64, 127
2, 52960, Control_c, 0, 64, 127
2, 52988, Note_off_c, 0, 53, 64
2, 52994, Note_on_c, 0, 65, 51
2, 53098, Control_c, 0, 64, 0
2, 53100, Control_c, 0, 64, 0
2, 53102, Note_off_c, 0, 65, 64
2, 53108, Note_on_c, 0, 53, 44
2, 53114, Note_on_c, 0, 75, 89
2, 53128, Note_off_c, 0, 77, 64
2, 53172, Control_c, 0, 64, 127
2, 53172, Control_c, 0, 64, 127
2, 53214, Note_off_c, 0, 53, 64
2, 53226, Note_on_c, 0, 65, 57
2, 53300, Control_c, 0, 64, 0
2, 53300, Control_c, 0, 64, 0
2, 53342, Note_on_c, 0, 63, 48
2, 53346, Note_off_c, 0, 65, 64
2, 53352, Note_off_c, 0, 75, 64
2, 53352, Note_on_c, 0, 72, 76
2, 53428, Control_c, 0, 64, 127
2, 53428, Control_c, 0, 64, 127
2, 53456, Note_off_c, 0, 63, 64
2, 53460, Note_on_c, 0, 65, 48
2, 53578, Note_on_c, 0, 63, 48
2, 53580, Note_off_c, 0, 65, 64
2, 53590, Note_off_c, 0, 72, 64
2, 53592, Note_on_c, 0, 69, 64
2, 53678, Control_c, 0, 64, 0
2, 53678, Control_c, 0, 64, 0
2, 53690, Note_off_c, 0, 63, 64
2, 53696, Note_on_c, 0, 65, 57
2, 53792, Note_off_c, 0, 69, 64
2, 53814, Note_off_c, 0, 65, 64
2, 53816, Note_on_c, 0, 61, 44
2, 53836, Control_c, 0, 64, 127
2, 53836, Control_c, 0, 64, 127
2, 53892, Control_c, 0, 64, 0
2, 53892, Control_c, 0, 64, 0
2, 53928, Note_off_c, 0, 61, 64
2, 53928, Note_on_c, 0, 65, 49
2, 53940, Note_on_c, 0, 69, 50
2, 53976, Control_c, 0, 64, 127
2, 53978, Control_c, 0, 64, 127
2, 54050, Note_off_c, 0, 65, 64
2, 54052, Note_on_c, 0, 61, 47
2, 54064, Note_on_c, 0, 72, 60
2, 54068, Control_c, 0, 64, 0
2, 54068, Control_c, 0, 64, 0
2, 54080, Note_off_c, 0, 69, 64
2, 54144, Control_c, 0, 64, 127
2, 54146, Control_c, 0, 64, 127
2, 54156, Note_off_c, 0, 61, 64
2, 54162, Note_on_c, 0, 65, 51
2, 54184, Note_on_c, 0, 70, 56
2, 54196, Note_off_c, 0, 72, 64
2, 54200, Control_c, 0, 64, 0
2, 54200, Control_c, 0, 64, 0
2, 54260, Note_off_c, 0, 70, 64
2, 54284, Note_off_c, 0, 65, 64
2, 54290, Note_on_c, 0, 60, 49
2, 54398, Note_off_c, 0, 60, 64
2, 54398, Note_on_c, 0, 65, 57
2, 54422, Note_on_c, 0, 70, 62
2, 54526, Note_off_c, 0, 65, 64
2, 54528, Note_on_c, 0, 60, 57
2, 54536, Note_on_c, 0, 73, 76
2, 54554, Note_off_c, 0, 70, 64
2, 54596, Control_c, 0, 64, 127
2, 54596, Control_c, 0, 64, 127
2, 54642, Note_off_c, 0, 60, 64
2, 54642, Note_on_c, 0, 65, 57
2, 54652, Note_on_c, 0, 72, 89
2, 54656, Note_off_c, 0, 73, 64
2, 54720, Control_c, 0, 64, 0
2, 54722, Control_c, 0, 64, 0
2, 54728, Note_off_c, 0, 72, 64
2, 54756, Note_off_c, 0, 65, 64
2, 54768, Note_on_c, 0, 58, 49
2, 54828, Control_c, 0, 64, 127
2, 54828, Control_c, 0, 64, 127
2, 54876, Note_off_c, 0, 58, 64
2, 54882, Note_on_c, 0, 65, 60
2, 54884, Note_on_c, 0, 72, 80
2, 54966, Control_c, 0, 64, 0
2, 54968, Control_c, 0, 64, 0
2, 54994, Note_off_c, 0, 65, 64
2, 55004, Note_on_c, 0, 58, 57
2, 55012, Note_on_c, 0, 75, 80
2, 55016, Note_off_c, 0, 72, 64
2, 55052, Control_c, 0, 64, 127
2, 55052, Control_c, 0, 64, 127
2, 55116, Note_off_c, 0, 58, 64
2, 55124, Note_on_c, 0, 65, 68
2, 55128, Note_on_c, 0, 73, 93
2, 55134, Note_off_c, 0, 75, 64
2, 55198, Note_off_c, 0, 73, 64
2, 55204, Note_off_c, 0, 65, 64
2, 55212, Control_c, 0, 64, 0
2, 55212, Control_c, 0, 64, 0
2, 55250, Note_on_c, 0, 56, 74
2, 55310, Control_c, 0, 64, 127
2, 55312, Control_c, 0, 64, 127
2, 55352, Note_off_c, 0, 56, 64
2, 55360, Note_on_c, 0, 71, 98
2, 55372, Note_on_c, 0, 66, 60
2, 55412, Control_c, 0, 64, 0
2, 55412, Control_c, 0, 64, 0
2, 55482, Note_off_c, 0, 66, 64
2, 55482, Control_c, 0, 64, 127
2, 55482, Control_c, 0, 64, 127
2, 55484, Note_off_c, 0, 71, 64
2, 55484, Note_on_c, 0, 73, 93
2, 55486, Note_on_c, 0, 56, 68
2, 55594, Note_on_c, 0, 66, 51
2, 55596, Note_off_c, 0, 73, 64
2, 55600, Note_off_c, 0, 56, 64
2, 55604, Note_on_c, 0, 72, 93
2, 55680, Note_off_c, 0, 66, 64
2, 55700, Control_c, 0, 64, 0
2, 55702, Control_c, 0, 64, 0
2, 55714, Note_on_c, 0, 55, 71
2, 55720, Note_off_c, 0, 72, 64
2, 55726, Note_on_c, 0, 71, 107
2, 55826, Control_c, 0, 64, 127
2, 55826, Control_c, 0, 64, 127
2, 55838, Note_on_c, 0, 67, 42
2, 55840, Note_off_c, 0, 55, 64
2, 55874, Control_c, 0, 64, 0
2, 55876, Control_c, 0, 64, 0
2, 55950, Note_on_c, 0, 55, 60
2, 55952, Note_off_c, 0, 67, 64
2, 55954, Note_off_c, 0, 71, 64
2, 56058, Note_off_c, 0, 55, 64
2, 56078, Note_on_c, 0, 67, 44
2, 56190, Note_off_c, 0, 67, 64
2, 56192, Note_on_c, 0, 55, 45
2, 56296, Note_off_c, 0, 55, 64
2, 56306, Note_on_c, 0, 67, 41
2, 56314, Control_c, 0, 64, 127
2, 56316, Control_c, 0, 64, 127
2, 56412, Note_on_c, 0, 55, 54
2, 56414, Note_off_c, 0, 67, 64
2, 56422, Control_c, 0, 64, 0
2, 56424, Control_c, 0, 64, 0
2, 56436, Note_on_c, 0, 80, 60
2, 56518, Control_c, 0, 64, 127
2, 56518, Control_c, 0, 64, 127
2, 56522, Note_off_c, 0, 55, 64
2, 56538, Note_on_c, 0, 67, 42
2, 56640, Note_on_c, 0, 79, 57
2, 56646, Note_off_c, 0, 67, 64
2, 56646, Note_on_c, 0, 55, 48
2, 56666, Control_c, 0, 64, 0
2, 56668, Control_c, 0, 64, 0
2, 56712, Note_off_c, 0, 80, 64
2, 56756, Note_off_c, 0, 55, 64
2, 56766, Control_c, 0, 64, 127
2, 56768, Control_c, 0, 64, 127
2, 56770, Note_on_c, 0, 67, 48
2, 56830, Note_off_c, 0, 67, 64
2, 56878, Note_off_c, 0, 79, 64
2, 56880, Note_on_c, 0, 55, 44
2, 56902, Control_c, 0, 64, 0
2, 56902, Control_c, 0, 64, 0
2, 56910, Note_on_c, 0, 77, 80
2, 56982, Control_c, 0, 64, 127
2, 56982, Control_c, 0, 64, 127
2, 57000, Note_off_c, 0, 55, 64
2, 57012, Note_on_c, 0, 67, 45
2, 57118, Control_c, 0, 64, 0
2, 57118, Control_c, 0, 64, 0
2, 57124, Note_on_c, 0, 55, 57
2, 57126, Note_off_c, 0, 67, 64
2, 57144, Note_off_c, 0, 77, 64
2, 57144, Note_on_c, 0, 74, 85
2, 57208, Control_c, 0, 64, 127
2, 57210, Control_c, 0, 64, 127
2, 57240, Note_off_c, 0, 55, 64
2, 57248, Note_on_c, 0, 67, 51
2, 57304, Control_c, 0, 64, 0
2, 57304, Control_c, 0, 64, 0
2, 57338, Note_off_c, 0, 67, 64
2, 57362, Note_on_c, 0, 55, 51
2, 57366, Note_off_c, 0, 74, 64
2, 57368, Note_on_c, 0, 71, 93
2, 57378, Control_c, 0, 64, 127
2, 57378, Control_c, 0, 64, 127
2, 57472, Note_off_c, 0, 55, 64
2, 57484, Note_on_c, 0, 67, 44
2, 57558, Note_off_c, 0, 67, 64
2, 57582, Control_c, 0, 64, 0
2, 57584, Control_c, 0, 64, 0
2, 57592, Note_on_c, 0, 65, 71
2, 57598, Note_off_c, 0, 71, 64
2, 57598, Note_on_c, 0, 55, 71
2, 57600, Note_on_c, 0, 68, 93
2, 57674, Control_c, 0, 64, 127
2, 57676, Control_c, 0, 64, 127
2, 57782, Note_off_c, 0, 55, 64
2, 57840, Note_on_c, 0, 55, 68
2, 57884, Note_off_c, 0, 65, 64
2, 57900, Note_off_c, 0, 55, 64
2, 57938, Note_off_c, 0, 68, 64
2, 57944, Note_on_c, 0, 67, 62
2, 58054, Control_c, 0, 64, 0
2, 58054, Control_c, 0, 64, 0
2, 58066, Note_on_c, 0, 72, 44
2, 58072, Note_on_c, 0, 55, 49
2, 58076, Note_on_c, 0, 63, 49
2, 58084, Note_off_c, 0, 67, 64
2, 58132, Control_c, 0, 64, 127
2, 58132, Control_c, 0, 64, 127
2, 58160, Note_off_c, 0, 63, 64
2, 58192, Note_off_c, 0, 72, 64
2, 58194, Note_off_c, 0, 55, 64
2, 58194, Note_on_c, 0, 67, 51
2, 58288, Note_on_c, 0, 80, 50
2, 58298, Control_c, 0, 64, 0
2, 58300, Note_off_c, 0, 67, 64
2, 58300, Control_c, 0, 64, 0
2, 58302, Note_on_c, 0, 55, 54
2, 58414, Note_on_c, 0, 67, 48
2, 58418, Note_off_c, 0, 55, 64
2, 58424, Control_c, 0, 64, 127
2, 58424, Control_c, 0, 64, 127
2, 58514, Note_off_c, 0, 67, 64
2, 58518, Control_c, 0, 64, 0
2, 58518, Control_c, 0, 64, 0
2, 58524, Note_on_c, 0, 55, 44
2, 58534, Note_on_c, 0, 79, 76
2, 58548, Note_off_c, 0, 80, 64
2, 58600, Control_c, 0, 64, 127
2, 58600, Control_c, 0, 64, 127
2, 58636, Note_off_c, 0, 55, 64
2, 58640, Note_on_c, 0, 67, 47
2, 58756, Note_off_c, 0, 67, 64
2, 58758, Note_on_c, 0, 55, 54
2, 58760, Note_on_c, 0, 77, 72
2, 58766, Control_c, 0, 64, 0
2, 58766, Control_c, 0, 64, 0
2, 58770, Note_off_c, 0, 79, 64
2, 58848, Control_c, 0, 64, 127
2, 58848, Control_c, 0, 64, 127
2, 58870, Note_off_c, 0, 55, 64
2, 58876, Note_on_c, 0, 67, 45
2, 58976, Note_off_c, 0, 67, 64
2, 58984, Note_on_c, 0, 55, 54
2, 58990, Control_c, 0, 64, 0
2, 58990, Control_c, 0, 64, 0
2, 58998, Note_off_c, 0, 77, 64
2, 58998, Note_on_c, 0, 74, 64
2, 59068, Control_c, 0, 64, 127
2, 59068, Control_c, 0, 64, 127
2, 59100, Note_off_c, 0, 55, 64
2, 59106, Note_on_c, 0, 67, 47
2, 59182, Note_off_c, 0, 67, 64
2, 59220, Control_c, 0, 64, 0
2, 59220, Control_c, 0, 64, 0
2, 59222, Note_on_c, 0, 55, 57
2, 59232, Note_off_c, 0, 74, 64
2, 59234, Note_on_c, 0, 71, 64
2, 59286, Control_c, 0, 64, 127
2, 59288, Control_c, 0, 64, 127
2, 59324, Note_off_c, 0, 55, 64
2, 59352, Note_on_c, 0, 67, 45
2, 59406, Note_off_c, 0, 67, 64
2, 59442, Control_c, 0, 64, 0
2, 59442, Control_c, 0, 64, 0
2, 59456, Note_on_c, 0, 65, 74
2, 59462, Note_on_c, 0, 68, 98
2, 59462, Note_on_c, 0, 55, 68
2, 59480, Note_off_c, 0, 71, 64
2, 59528, Control_c, 0, 64, 127
2, 59528, Control_c, 0, 64, 127
2, 59626, Note_off_c, 0, 55, 64
2, 59702, Note_on_c, 0, 55, 64
2, 59764, Note_off_c, 0, 65, 64
2, 59766, Note_off_c, 0, 55, 64
2, 59808, Note_on_c, 0, 67, 72
2, 59814, Note_off_c, 0, 68, 64
2, 59906, Control_c, 0, 64, 0
2, 59908, Control_c, 0, 64, 0
2, 59930, Note_on_c, 0, 63, 68
2, 59932, Note_on_c, 0, 72, 60
2, 59932, Note_on_c, 0, 55, 60
2, 59934, Note_off_c, 0, 67, 64
2, 59982, Control_c, 0, 64, 127
2, 59984, Control_c, 0, 64, 127
2, 60008, Note_off_c, 0, 63, 64
2, 60010, Note_off_c, 0, 55, 64
2, 60032, Note_off_c, 0, 72, 64
2, 60158, Note_on_c, 0, 65, 64
2, 60174, Note_on_c, 0, 56, 107
2, 60182, Control_c, 0, 64, 0
2, 60184, Control_c, 0, 64, 0
2, 60268, Note_off_c, 0, 65, 64
2, 60272, Note_on_c, 0, 62, 59
2, 60388, Note_on_c, 0, 65, 62
2, 60392, Note_off_c, 0, 62, 64
2, 60400, Note_off_c, 0, 56, 64
2, 60404, Note_on_c, 0, 55, 89
2, 60506, Note_on_c, 0, 62, 57
2, 60510, Note_off_c, 0, 65, 64
2, 60622, Note_on_c, 0, 65, 64
2, 60624, Note_off_c, 0, 62, 64
2, 60628, Note_off_c, 0, 55, 64
2, 60628, Note_on_c, 0, 53, 85
2, 60742, Note_off_c, 0, 65, 64
2, 60744, Note_on_c, 0, 62, 52
2, 60856, Note_off_c, 0, 62, 64
2, 60856, Note_on_c, 0, 65, 57
2, 60860, Note_off_c, 0, 53, 64
2, 60860, Note_on_c, 0, 50, 89
2, 60970, Note_on_c, 0, 62, 52
2, 60978, Note_off_c, 0, 65, 64
2, 61080, Note_off_c, 0, 62, 64
2, 61084, Note_on_c, 0, 65, 59
2, 61102, Note_on_c, 0, 47, 89
2, 61106, Note_off_c, 0, 50, 64
2, 61206, Note_off_c, 0, 65, 64
2, 61208, Note_on_c, 0, 62, 57
2, 61312, Note_off_c, 0, 62, 64
2, 61316, Note_on_c, 0, 65, 62
2, 61332, Note_off_c, 0, 47, 64
2, 61332, Note_on_c, 0, 44, 85
2, 61432, Note_off_c, 0, 65, 64
2, 61434, Note_on_c, 0, 62, 56
2, 61536, Note_off_c, 0, 62, 64
2, 61544, Note_on_c, 0, 71, 88
2, 61544, Note_on_c, 0, 65, 76
2, 61644, Note_on_c, 0, 43, 80
2, 61650, Note_off_c, 0, 44, 64
2, 61656, Note_on_c, 0, 62, 60
2, 61658, Note_off_c, 0, 65, 64
2, 61758, Note_off_c, 0, 62, 64
2, 61766, Note_on_c, 0, 63, 34
2, 61768, Note_off_c, 0, 43, 64
2, 61772, Note_on_c, 0, 72, 77
2, 61782, Note_on_c, 0, 48, 89
2, 61784, Note_off_c, 0, 71, 64
2, 61882, Note_on_c, 0, 60, 55
2, 61906, Note_off_c, 0, 63, 64
2, 61966, Note_off_c, 0, 48, 64
2, 61972, Note_off_c, 0, 72, 64
2, 62004, Note_on_c, 0, 63, 60
2, 62004, Note_on_c, 0, 54, 102
2, 62010, Note_off_c, 0, 60, 64
2, 62116, Note_off_c, 0, 63, 64
2, 62122, Note_on_c, 0, 60, 56
2, 62230, Note_off_c, 0, 60, 64
2, 62236, Note_on_c, 0, 63, 62
2, 62242, Note_off_c, 0, 54, 64
2, 62246, Note_on_c, 0, 53, 89
2, 62344, Note_off_c, 0, 63, 64
2, 62350, Note_on_c, 0, 60, 57
2, 62462, Note_off_c, 0, 60, 64
2, 62466, Note_on_c, 0, 63, 60
2, 62474, Note_on_c, 0, 51, 85
2, 62490, Note_off_c, 0, 53, 64
2, 62578, Note_off_c, 0, 63, 64
2, 62580, Note_on_c, 0, 60, 55
2, 62690, Note_off_c, 0, 60, 64
2, 62692, Note_on_c, 0, 63, 64
2, 62708, Note_on_c, 0, 48, 89
2, 62718, Note_off_c, 0, 51, 64
2, 62808, Note_off_c, 0, 63, 64
2, 62808, Note_on_c, 0, 60, 57
2, 62918, Note_off_c, 0, 60, 64
2, 62920, Note_on_c, 0, 63, 53
2, 62940, Note_on_c, 0, 45, 89
2, 62956, Note_off_c, 0, 48, 64
2, 63042, Note_off_c, 0, 63, 64
2, 63042, Note_on_c, 0, 60, 57
2, 63148, Note_off_c, 0, 60, 64
2, 63156, Note_on_c, 0, 63, 59
2, 63164, Note_off_c, 0, 45, 64
2, 63164, Note_on_c, 0, 42, 89
2, 63272, Note_off_c, 0, 63, 64
2, 63274, Note_on_c, 0, 60, 62
2, 63368, Note_off_c, 0, 60, 64
2, 63376, Note_on_c, 0, 69, 89
2, 63376, Note_on_c, 0, 63, 76
2, 63484, Note_off_c, 0, 42, 64
2, 63484, Note_on_c, 0, 41, 76
2, 63496, Note_on_c, 0, 60, 62
2, 63512, Note_off_c, 0, 63, 64
2, 63592, Note_off_c, 0, 60, 64
2, 63604, Note_off_c, 0, 41, 64
2, 63604, Note_on_c, 0, 46, 80
2, 63606, Note_on_c, 0, 70, 77
2, 63606, Note_on_c, 0, 61, 72
2, 63616, Note_off_c, 0, 69, 64
2, 63720, Note_on_c, 0, 58, 64
2, 63722, Note_off_c, 0, 61, 64
2, 63784, Note_off_c, 0, 46, 64
2, 63826, Note_off_c, 0, 58, 64
2, 63834, Note_on_c, 0, 52, 107
2, 63836, Note_off_c, 0, 70, 64
2, 63836, Note_on_c, 0, 61, 85
2, 63954, Note_off_c, 0, 61, 64
2, 63958, Note_on_c, 0, 58, 47
2, 64068, Note_off_c, 0, 58, 64
2, 64072, Note_on_c, 0, 61, 72
2, 64082, Note_on_c, 0, 51, 72
2, 64090, Note_off_c, 0, 52, 64
2, 64178, Note_off_c, 0, 61, 64
2, 64178, Note_on_c, 0, 58, 52
2, 64296, Note_on_c, 0, 49, 93
2, 64298, Note_off_c, 0, 51, 64
2, 64298, Note_on_c, 0, 61, 68
2, 64300, Note_off_c, 0, 58, 64
2, 64412, Note_off_c, 0, 61, 64
2, 64416, Note_on_c, 0, 58, 53
2, 64524, Note_off_c, 0, 58, 64
2, 64526, Note_on_c, 0, 61, 72
2, 64536, Note_off_c, 0, 49, 64
2, 64536, Note_on_c, 0, 46, 93
2, 64644, Note_on_c, 0, 58, 55
2, 64646, Note_off_c, 0, 61, 64
2, 64752, Note_on_c, 0, 61, 62
2, 64754, Note_off_c, 0, 58, 64
2, 64756, Note_on_c, 0, 43, 93
2, 64762, Note_off_c, 0, 46, 64
2, 64862, Note_off_c, 0, 61, 64
2, 64864, Note_on_c, 0, 58, 47
2, 64976, Note_off_c, 0, 58, 64
2, 64980, Note_on_c, 0, 61, 60
2, 64982, Note_off_c, 0, 43, 64
2, 64986, Note_on_c, 0, 40, 93
2, 65084, Note_off_c, 0, 61, 64
2, 65090, Note_on_c, 0, 58, 51
2, 65192, Note_off_c, 0, 58, 64
2, 65206, Note_off_c, 0, 40, 64
2, 65206, Note_on_c, 0, 61, 62
2, 65206, Note_on_c, 0, 39, 85
2, 65312, Note_off_c, 0, 61, 64
2, 65316, Note_on_c, 0, 58, 48
2, 65392, Note_off_c, 0, 58, 64
2, 65424, Note_on_c, 0, 67, 100
2, 65424, Note_on_c, 0, 61, 89
2, 65528, Note_on_c, 0, 58, 64
2, 65552, Note_off_c, 0, 61, 64
2, 65628, Note_off_c, 0, 58, 64
2, 65656, Note_on_c, 0, 61, 68
2, 65658, Note_on_c, 0, 51, 102
2, 65666, Note_off_c, 0, 39, 64
2, 65756, Note_on_c, 0, 58, 55
2, 65776, Note_off_c, 0, 61, 64
2, 65852, Note_off_c, 0, 58, 64
2, 65884, Note_on_c, 0, 60, 68
2, 65904, Note_off_c, 0, 67, 64
2, 65984, Note_on_c, 0, 56, 38
2, 66000, Note_off_c, 0, 60, 64
2, 66098, Note_off_c, 0, 56, 64
2, 66112, Note_on_c, 0, 63, 62
2, 66116, Note_on_c, 0, 48, 80
2, 66128, Note_off_c, 0, 51, 64
2, 66222, Note_on_c, 0, 56, 57
2, 66224, Note_off_c, 0, 63, 64
2, 66312, Note_off_c, 0, 56, 64
2, 66330, Note_on_c, 0, 68, 100
2, 66330, Note_on_c, 0, 63, 80
2, 66428, Note_off_c, 0, 63, 64
2, 66436, Note_on_c, 0, 56, 51
2, 66544, Note_on_c, 0, 36, 76
2, 66552, Note_off_c, 0, 56, 64
2, 66552, Note_off_c, 0, 48, 64
2, 66564, Note_on_c, 0, 63, 62
2, 66666, Note_on_c, 0, 56, 51
2, 66672, Note_off_c, 0, 63, 64
2, 66764, Note_off_c, 0, 56, 64
2, 66784, Note_on_c, 0, 61, 68
2, 66810, Note_off_c, 0, 68, 64
2, 66890, Note_off_c, 0, 61, 64
2, 66890, Note_on_c, 0, 56, 53
2, 67000, Note_off_c, 0, 56, 64
2, 67000, Note_off_c, 0, 36, 64
2, 67000, Note_on_c, 0, 37, 76
2, 67012, Note_on_c, 0, 61, 72
2, 67110, Note_on_c, 0, 56, 53
2, 67116, Note_off_c, 0, 61, 64
2, 67210, Note_off_c, 0, 56, 64
2, 67226, Note_on_c, 0, 65, 100
2, 67226, Note_on_c, 0, 61, 85
2, 67326, Note_off_c, 0, 61, 64
2, 67336, Note_on_c, 0, 56, 47
2, 67444, Note_off_c, 0, 56, 64
2, 67448, Note_on_c, 0, 61, 64
2, 67454, Note_on_c, 0, 49, 107
2, 67456, Note_off_c, 0, 37, 64
2, 67548, Note_off_c, 0, 61, 64
2, 67556, Note_on_c, 0, 56, 55
2, 67650, Note_off_c, 0, 56, 64
2, 67670, Note_on_c, 0, 61, 57
2, 67706, Note_off_c, 0, 65, 64
2, 67776, Note_on_c, 0, 55, 62
2, 67778, Note_off_c, 0, 61, 64
2, 67888, Note_off_c, 0, 55, 64
2, 67894, Note_on_c, 0, 61, 62
2, 67896, Note_on_c, 0, 46, 72
2, 67904, Note_off_c, 0, 49, 64
2, 68004, Note_on_c, 0, 55, 38
2, 68006, Note_off_c, 0, 61, 64
2, 68092, Note_off_c, 0, 55, 64
2, 68118, Note_on_c, 0, 67, 100
2, 68118, Note_on_c, 0, 61, 89
2, 68228, Note_off_c, 0, 61, 64
2, 68228, Note_on_c, 0, 55, 56
2, 68328, Note_off_c, 0, 55, 64
2, 68338, Note_on_c, 0, 34, 76
2, 68348, Note_off_c, 0, 46, 64
2, 68348, Note_on_c, 0, 61, 60
2, 68458, Note_on_c, 0, 55, 56
2, 68460, Note_off_c, 0, 61, 64
2, 68550, Note_off_c, 0, 55, 64
2, 68568, Note_on_c, 0, 60, 68
2, 68598, Note_off_c, 0, 67, 64
2, 68676, Note_on_c, 0, 55, 50
2, 68684, Note_off_c, 0, 60, 64
2, 68792, Note_off_c, 0, 55, 64
2, 68792, Note_on_c, 0, 36, 80
2, 68792, Note_on_c, 0, 60, 72
2, 68796, Note_off_c, 0, 34, 64
2, 68898, Note_off_c, 0, 60, 64
2, 68900, Note_on_c, 0, 55, 57
2, 68996, Note_off_c, 0, 55, 64
2, 69012, Note_on_c, 0, 60, 85
2, 69014, Note_on_c, 0, 64, 100
2, 69118, Note_off_c, 0, 60, 64
2, 69120, Note_on_c, 0, 55, 64
2, 69216, Note_off_c, 0, 55, 64
2, 69226, Note_on_c, 0, 60, 59
2, 69242, Note_on_c, 0, 48, 102
2, 69248, Note_off_c, 0, 36, 64
2, 69332, Note_on_c, 0, 55, 62
2, 69342, Note_off_c, 0, 60, 64
2, 69430, Note_off_c, 0, 55, 64
2, 69456, Note_on_c, 0, 56, 72
2, 69494, Note_off_c, 0, 64, 64
2, 69560, Note_on_c, 0, 53, 55
2, 69582, Note_off_c, 0, 56, 64
2, 69674, Note_off_c, 0, 53, 64
2, 69674, Note_on_c, 0, 60, 76
2, 69684, Note_on_c, 0, 44, 89
2, 69696, Note_off_c, 0, 48, 64
2, 69776, Note_on_c, 0, 53, 56
2, 69780, Note_off_c, 0, 60, 64
2, 69870, Note_off_c, 0, 53, 64
2, 69892, Note_on_c, 0, 65, 100
2, 69894, Note_on_c, 0, 60, 93
2, 69998, Note_off_c, 0, 60, 64
2, 69998, Note_on_c, 0, 53, 60
2, 70092, Note_off_c, 0, 53, 64
2, 70104, Note_on_c, 0, 32, 72
2, 70116, Note_off_c, 0, 44, 64
2, 70116, Note_on_c, 0, 60, 76
2, 70218, Note_on_c, 0, 53, 57
2, 70228, Note_off_c, 0, 60, 64
2, 70316, Note_off_c, 0, 32, 64
2, 70324, Note_off_c, 0, 53, 64
2, 70328, Note_off_c, 0, 65, 64
2, 70332, Note_on_c, 0, 61, 57
2, 70438, Note_on_c, 0, 53, 52
2, 70450, Note_off_c, 0, 61, 64
2, 70546, Note_on_c, 0, 34, 98
2, 70552, Note_off_c, 0, 53, 64
2, 70552, Note_on_c, 0, 61, 72
2, 70580, Control_c, 0, 64, 127
2, 70580, Control_c, 0, 64, 127
2, 70662, Note_on_c, 0, 53, 60
2, 70664, Note_off_c, 0, 61, 64
2, 70756, Note_off_c, 0, 53, 64
2, 70774, Note_on_c, 0, 61, 89
2, 70778, Note_on_c, 0, 65, 100
2, 70886, Note_off_c, 0, 61, 64
2, 70886, Note_on_c, 0, 53, 56
2, 70970, Control_c, 0, 64, 0
2, 70972, Control_c, 0, 64, 0
2, 70988, Note_off_c, 0, 53, 64
2, 70990, Note_on_c, 0, 46, 85
2, 70996, Note_on_c, 0, 61, 68
2, 70998, Note_off_c, 0, 34, 64
2, 71104, Note_on_c, 0, 53, 59
2, 71114, Note_off_c, 0, 61, 64
2, 71194, Note_off_c, 0, 53, 64
2, 71208, Note_off_c, 0, 46, 64
2, 71222, Note_on_c, 0, 62, 89
2, 71258, Note_off_c, 0, 65, 64
2, 71326, Note_on_c, 0, 53, 51
2, 71336, Note_off_c, 0, 62, 64
2, 71402, Note_off_c, 0, 53, 64
2, 71438, Note_on_c, 0, 35, 102
2, 71448, Note_on_c, 0, 56, 85
2, 71448, Note_on_c, 0, 62, 98
2, 71448, Note_on_c, 0, 65, 72
2, 71458, Control_c, 0, 64, 127
2, 71458, Control_c, 0, 64, 127
2, 71546, Note_on_c, 0, 53, 59
2, 71556, Note_off_c, 0, 62, 64
2, 71556, Note_off_c, 0, 56, 64
2, 71570, Note_off_c, 0, 65, 64
2, 71656, Note_off_c, 0, 53, 64
2, 71664, Note_on_c, 0, 56, 68
2, 71666, Note_on_c, 0, 62, 93
2, 71668, Note_on_c, 0, 65, 85
2, 71782, Note_on_c, 0, 53, 59
2, 71786, Note_off_c, 0, 65, 64
2, 71786, Note_off_c, 0, 56, 64
2, 71788, Note_off_c, 0, 62, 64
2, 71850, Control_c, 0, 64, 0
2, 71850, Control_c, 0, 64, 0
2, 71864, Note_off_c, 0, 53, 64
2, 71878, Note_on_c, 0, 56, 85
2, 71880, Note_on_c, 0, 65, 89
2, 71882, Note_on_c, 0, 62, 98
2, 71886, Note_on_c, 0, 47, 89
2, 71890, Note_off_c, 0, 35, 64
2, 71908, Control_c, 0, 64, 127
2, 71908, Control_c, 0, 64, 127
2, 71990, Note_on_c, 0, 53, 62
2, 72010, Note_off_c, 0, 62, 64
2, 72020, Note_off_c, 0, 65, 64
2, 72058, Note_off_c, 0, 53, 64
2, 72060, Note_off_c, 0, 47, 64
2, 72070, Note_off_c, 0, 56, 64
2, 72086, Note_on_c, 0, 36, 76
2, 72092, Control_c, 0, 64, 0
2, 72092, Control_c, 0, 64, 0
2, 72098, Note_on_c, 0, 60, 80
2, 72100, Note_on_c, 0, 55, 93
2, 72102, Note_on_c, 0, 64, 93
2, 72206, Note_on_c, 0, 48, 72
2, 72208, Note_off_c, 0, 36, 64
2, 72248, Note_off_c, 0, 55, 64
2, 72254, Note_off_c, 0, 60, 64
2, 72258, Note_off_c, 0, 64, 64
2, 72292, Note_off_c, 0, 48, 64
2, 72304, Note_on_c, 0, 52, 64
2, 72420, Note_on_c, 0, 48, 50
2, 72428, Note_off_c, 0, 52, 64
2, 72524, Note_on_c, 0, 52, 64
2, 72546, Note_off_c, 0, 48, 64
2, 72634, Note_on_c, 0, 48, 60
2, 72648, Note_off_c, 0, 52, 64
2, 72750, Note_on_c, 0, 52, 72
2, 72758, Note_off_c, 0, 48, 64
2, 72766, Note_on_c, 0, 72, 93
2, 72856, Note_on_c, 0, 48, 62
2, 72868, Note_off_c, 0, 52, 64
2, 72972, Note_on_c, 0, 53, 72
2, 72980, Note_off_c, 0, 48, 64
2, 72998, Note_on_c, 0, 68, 80
2, 73006, Note_off_c, 0, 72, 64
2, 73084, Note_on_c, 0, 48, 62
2, 73112, Note_off_c, 0, 53, 64
2, 73160, Note_off_c, 0, 68, 64
2, 73206, Note_on_c, 0, 53, 72
2, 73220, Note_off_c, 0, 48, 64
2, 73320, Note_on_c, 0, 48, 60
2, 73330, Note_off_c, 0, 53, 64
2, 73424, Note_on_c, 0, 53, 62
2, 73446, Note_off_c, 0, 48, 64
2, 73540, Note_on_c, 0, 48, 64
2, 73542, Note_off_c, 0, 53, 64
2, 73636, Note_on_c, 0, 77, 93
2, 73648, Note_on_c, 0, 56, 85
2, 73656, Note_off_c, 0, 48, 64
2, 73740, Note_on_c, 0, 48, 57
2, 73770, Note_off_c, 0, 56, 64
2, 73864, Note_on_c, 0, 76, 76
2, 73864, Note_on_c, 0, 55, 76
2, 73866, Note_off_c, 0, 48, 64
2, 73874, Note_off_c, 0, 77, 64
2, 73964, Note_on_c, 0, 48, 55
2, 73978, Note_off_c, 0, 55, 64
2, 74028, Note_off_c, 0, 76, 64
2, 74084, Note_on_c, 0, 55, 68
2, 74104, Note_off_c, 0, 48, 64
2, 74194, Note_on_c, 0, 48, 59
2, 74204, Note_off_c, 0, 55, 64
2, 74308, Note_on_c, 0, 55, 85
2, 74316, Note_off_c, 0, 48, 64
2, 74416, Note_on_c, 0, 48, 60
2, 74444, Note_off_c, 0, 55, 64
2, 74524, Note_on_c, 0, 84, 93
2, 74532, Note_off_c, 0, 48, 64
2, 74532, Note_on_c, 0, 58, 80
2, 74630, Note_on_c, 0, 48, 68
2, 74696, Note_off_c, 0, 58, 64
2, 74744, Note_on_c, 0, 56, 68
2, 74746, Note_off_c, 0, 48, 64
2, 74750, Note_on_c, 0, 77, 98
2, 74758, Note_off_c, 0, 84, 64
2, 74810, Note_off_c, 0, 77, 64
2, 74852, Note_on_c, 0, 48, 57
2, 74860, Note_off_c, 0, 56, 64
2, 74962, Note_on_c, 0, 60, 85
2, 74966, Note_off_c, 0, 48, 64
2, 75070, Note_on_c, 0, 48, 60
2, 75088, Note_off_c, 0, 60, 64
2, 75190, Note_off_c, 0, 48, 64
2, 75190, Note_on_c, 0, 59, 89
2, 75204, Note_on_c, 0, 77, 102
2, 75206, Note_on_c, 0, 89, 119
2, 75302, Note_on_c, 0, 48, 55
2, 75312, Note_off_c, 0, 59, 64
2, 75410, Note_off_c, 0, 48, 64
2, 75414, Note_on_c, 0, 62, 89
2, 75532, Note_on_c, 0, 48, 68
2, 75534, Note_off_c, 0, 62, 64
2, 75638, Note_off_c, 0, 48, 64
2, 75642, Note_off_c, 0, 89, 64
2, 75642, Note_off_c, 0, 77, 64
2, 75676, Note_on_c, 0, 60, 93
2, 75676, Note_on_c, 0, 76, 89
2, 75676, Note_on_c, 0, 88, 89
2, 75744, Note_on_c, 0, 48, 56
2, 75806, Note_off_c, 0, 60, 64
2, 75828, Note_off_c, 0, 76, 64
2, 75834, Note_off_c, 0, 88, 64
2, 75872, Note_on_c, 0, 52, 76
2, 75878, Note_off_c, 0, 48, 64
2, 75976, Note_on_c, 0, 48, 51
2, 75984, Note_off_c, 0, 52, 64
2, 76098, Note_on_c, 0, 52, 68
2, 76102, Note_off_c, 0, 48, 64
2, 76206, Note_on_c, 0, 48, 55
2, 76216, Note_off_c, 0, 52, 64
2, 76326, Note_off_c, 0, 48, 64
2, 76326, Note_on_c, 0, 55, 72
2, 76356, Note_on_c, 0, 74, 93
2, 76408, Note_on_c, 0, 72, 76
2, 76422, Note_off_c, 0, 74, 64
2, 76442, Note_on_c, 0, 48, 60
2, 76456, Note_off_c, 0, 55, 64
2, 76466, Note_on_c, 0, 71, 80
2, 76468, Note_off_c, 0, 72, 64
2, 76512, Note_on_c, 0, 72, 62
2, 76518, Note_off_c, 0, 71, 64
2, 76570, Note_off_c, 0, 72, 64
2, 76572, Note_on_c, 0, 53, 64
2, 76576, Note_off_c, 0, 48, 64
2, 76596, Note_on_c, 0, 68, 93
2, 76626, Note_off_c, 0, 68, 64
2, 76698, Note_on_c, 0, 48, 60
2, 76706, Note_off_c, 0, 53, 64
2, 76806, Note_on_c, 0, 53, 72
2, 76808, Note_on_c, 0, 68, 89
2, 76814, Note_off_c, 0, 48, 64
2, 76858, Note_off_c, 0, 68, 64
2, 76910, Note_on_c, 0, 48, 57
2, 76924, Note_off_c, 0, 53, 64
2, 77026, Note_on_c, 0, 53, 72
2, 77036, Note_off_c, 0, 48, 64
2, 77136, Note_on_c, 0, 48, 59
2, 77140, Note_off_c, 0, 53, 64
2, 77252, Note_off_c, 0, 48, 64
2, 77260, Note_on_c, 0, 56, 85
2, 77262, Note_on_c, 0, 79, 89
2, 77310, Note_on_c, 0, 77, 76
2, 77318, Note_off_c, 0, 79, 64
2, 77362, Note_on_c, 0, 48, 59
2, 77366, Note_off_c, 0, 77, 64
2, 77366, Note_on_c, 0, 76, 72
2, 77420, Note_off_c, 0, 76, 64
2, 77420, Note_off_c, 0, 56, 64
2, 77432, Note_on_c, 0, 77, 68
2, 77478, Note_off_c, 0, 77, 64
2, 77484, Note_off_c, 0, 48, 64
2, 77484, Note_on_c, 0, 55, 76
2, 77492, Note_on_c, 0, 76, 93
2, 77530, Note_off_c, 0, 76, 64
2, 77598, Note_on_c, 0, 48, 57
2, 77604, Note_off_c, 0, 55, 64
2, 77710, Note_off_c, 0, 48, 64
2, 77710, Note_on_c, 0, 55, 72
2, 77724, Note_on_c, 0, 76, 107
2, 77770, Note_off_c, 0, 76, 64
2, 77826, Note_on_c, 0, 48, 59
2, 77832, Note_off_c, 0, 55, 64
2, 77938, Note_on_c, 0, 55, 72
2, 77942, Note_off_c, 0, 48, 64
2, 78054, Note_on_c, 0, 48, 60
2, 78058, Note_off_c, 0, 55, 64
2, 78168, Note_off_c, 0, 48, 64
2, 78168, Note_on_c, 0, 86, 107
2, 78176, Note_on_c, 0, 58, 80
2, 78220, Note_on_c, 0, 84, 76
2, 78230, Note_off_c, 0, 86, 64
2, 78276, Note_off_c, 0, 84, 64
2, 78278, Note_on_c, 0, 83, 80
2, 78278, Note_on_c, 0, 48, 64
2, 78296, Note_off_c, 0, 58, 64
2, 78332, Note_off_c, 0, 83, 64
2, 78342, Note_on_c, 0, 84, 80
2, 78390, Note_off_c, 0, 84, 64
2, 78398, Note_on_c, 0, 56, 80
2, 78400, Note_off_c, 0, 48, 64
2, 78416, Note_on_c, 0, 77, 76
2, 78460, Note_off_c, 0, 77, 64
2, 78514, Note_on_c, 0, 48, 76
2, 78516, Note_off_c, 0, 56, 64
2, 78628, Note_off_c, 0, 48, 64
2, 78630, Note_on_c, 0, 60, 89
2, 78632, Note_on_c, 0, 77, 107
2, 78680, Note_off_c, 0, 77, 64
2, 78734, Note_on_c, 0, 48, 64
2, 78736, Note_on_c, 0, 48, 64
2, 78738, Note_off_c, 0, 60, 64
2, 78848, Note_off_c, 0, 48, 64
2, 78848, Note_off_c, 0, 48, 64
2, 78850, Note_on_c, 0, 59, 80
2, 78962, Note_on_c, 0, 48, 64
2, 78970, Note_off_c, 0, 59, 64
2, 79068, Note_on_c, 0, 77, 107
2, 79068, Note_on_c, 0, 89, 113
2, 79080, Note_on_c, 0, 62, 85
2, 79104, Note_off_c, 0, 48, 64
2, 79192, Note_on_c, 0, 48, 76
2, 79194, Note_off_c, 0, 62, 64
2, 79266, Note_off_c, 0, 77, 64
2, 79272, Note_off_c, 0, 89, 64
2, 79296, Note_on_c, 0, 76, 85
2, 79298, Note_on_c, 0, 88, 98
2, 79298, Note_on_c, 0, 60, 80
2, 79306, Note_off_c, 0, 48, 64
2, 79332, Note_off_c, 0, 76, 64
2, 79334, Note_off_c, 0, 88, 64
2, 79406, Note_on_c, 0, 48, 68
2, 79410, Note_off_c, 0, 60, 64
2, 79520, Note_on_c, 0, 76, 102
2, 79520, Note_on_c, 0, 88, 113
2, 79524, Note_on_c, 0, 60, 60
2, 79526, Note_off_c, 0, 48, 64
2, 79554, Note_off_c, 0, 88, 64
2, 79554, Note_off_c, 0, 76, 64
2, 79624, Note_on_c, 0, 48, 44
2, 79638, Note_off_c, 0, 60, 64
2, 79744, Note_on_c, 0, 58, 59
2, 79748, Note_off_c, 0, 48, 64
2, 79780, Control_c, 0, 64, 127
2, 79782, Control_c, 0, 64, 127
2, 79834, Control_c, 0, 64, 0
2, 79834, Control_c, 0, 64, 0
2, 79844, Note_on_c, 0, 48, 57
2, 79850, Note_off_c, 0, 58, 64
2, 79964, Note_off_c, 0, 48, 64
2, 79964, Note_on_c, 0, 58, 64
2, 79986, Note_on_c, 0, 73, 107
2, 79990, Note_on_c, 0, 85, 107
2, 80072, Note_on_c, 0, 48, 56
2, 80084, Note_off_c, 0, 58, 64
2, 80192, Note_on_c, 0, 56, 60
2, 80196, Note_off_c, 0, 48, 64
2, 80210, Note_off_c, 0, 73, 64
2, 80214, Note_off_c, 0, 85, 64
2, 80218, Note_on_c, 0, 72, 64
2, 80222, Note_on_c, 0, 84, 76
2, 80222, Control_c, 0, 64, 127
2, 80222, Control_c, 0, 64, 127
2, 80260, Control_c, 0, 64, 0
2, 80260, Control_c, 0, 64, 0
2, 80262, Note_off_c, 0, 72, 64
2, 80270, Note_off_c, 0, 84, 64
2, 80320, Note_on_c, 0, 48, 62
2, 80322, Note_off_c, 0, 56, 64
2, 80422, Note_off_c, 0, 48, 64
2, 80432, Note_on_c, 0, 60, 76
2, 80440, Note_on_c, 0, 84, 85
2, 80440, Note_on_c, 0, 72, 80
2, 80470, Note_off_c, 0, 72, 64
2, 80476, Note_off_c, 0, 84, 64
2, 80540, Note_on_c, 0, 48, 55
2, 80544, Note_off_c, 0, 60, 64
2, 80642, Note_off_c, 0, 48, 64
2, 80646, Note_on_c, 0, 59, 76
2, 80760, Note_on_c, 0, 48, 55
2, 80768, Note_off_c, 0, 59, 64
2, 80876, Note_on_c, 0, 62, 50
2, 80894, Note_on_c, 0, 77, 68
2, 80898, Note_on_c, 0, 89, 85
2, 80918, Note_off_c, 0, 48, 64
2, 80974, Note_off_c, 0, 62, 64
2, 80974, Note_on_c, 0, 48, 50
2, 81082, Note_off_c, 0, 89, 64
2, 81082, Note_off_c, 0, 77, 64
2, 81100, Note_off_c, 0, 48, 64
2, 81108, Note_on_c, 0, 60, 64
2, 81120, Note_on_c, 0, 88, 72
2, 81120, Note_on_c, 0, 76, 52
2, 81172, Note_off_c, 0, 76, 64
2, 81174, Note_off_c, 0, 88, 64
2, 81182, Control_c, 0, 64, 127
2, 81182, Control_c, 0, 64, 127
2, 81216, Note_off_c, 0, 60, 64
2, 81218, Note_on_c, 0, 48, 56
2, 81256, Control_c, 0, 64, 0
2, 81256, Control_c, 0, 64, 0
2, 81336, Note_on_c, 0, 76, 64
2, 81338, Note_off_c, 0, 48, 64
2, 81340, Note_on_c, 0, 88, 64
2, 81340, Note_on_c, 0, 60, 64
2, 81378, Note_off_c, 0, 88, 64
2, 81380, Note_off_c, 0, 76, 64
2, 81438, Note_on_c, 0, 48, 50
2, 81468, Note_off_c, 0, 60, 64
2, 81566, Note_on_c, 0, 58, 51
2, 81570, Note_off_c, 0, 48, 64
2, 81676, Note_off_c, 0, 58, 64
2, 81676, Note_on_c, 0, 48, 53
2, 81792, Note_off_c, 0, 48, 64
2, 81794, Note_on_c, 0, 58, 55
2, 81820, Note_on_c, 0, 73, 62
2, 81822, Note_on_c, 0, 85, 72
2, 81912, Note_off_c, 0, 58, 64
2, 81912, Note_on_c, 0, 48, 55
2, 82024, Note_off_c, 0, 73, 64
2, 82036, Note_off_c, 0, 48, 64
2, 82036, Note_off_c, 0, 85, 64
2, 82036, Note_on_c, 0, 56, 56
2, 82056, Note_on_c, 0, 72, 64
2, 82056, Note_on_c, 0, 84, 62
2, 82102, Note_off_c, 0, 72, 64
2, 82112, Note_off_c, 0, 84, 64
2, 82126, Note_off_c, 0, 56, 64
2, 82158, Note_on_c, 0, 48, 56
2, 82272, Note_off_c, 0, 48, 64
2, 82276, Note_on_c, 0, 60, 50
2, 82296, Note_on_c, 0, 72, 62
2, 82302, Note_on_c, 0, 84, 57
2, 82338, Note_off_c, 0, 72, 64
2, 82348, Note_off_c, 0, 84, 64
2, 82390, Note_on_c, 0, 48, 55
2, 82398, Note_off_c, 0, 60, 64
2, 82532, Note_off_c, 0, 48, 64
2, 82532, Note_on_c, 0, 59, 64
2, 82658, Note_on_c, 0, 48, 60
2, 82660, Note_off_c, 0, 59, 64
2, 82798, Note_on_c, 0, 77, 55
2, 82798, Note_on_c, 0, 89, 57
2, 82798, Note_on_c, 0, 62, 43
2, 82800, Note_off_c, 0, 48, 64
2, 82948, Note_on_c, 0, 48, 45
2, 82956, Note_off_c, 0, 62, 64
2, 83028, Note_off_c, 0, 77, 64
2, 83052, Note_off_c, 0, 89, 64
2, 83106, Note_off_c, 0, 48, 64
2, 83122, Note_on_c, 0, 76, 50
2, 83128, Note_on_c, 0, 88, 50
2, 83132, Note_on_c, 0, 60, 62
2, 83226, Note_off_c, 0, 60, 64
2, 83432, Note_on_c, 0, 60, 68
2, 83440, Note_off_c, 0, 76, 64
2, 83452, Note_off_c, 0, 88, 64
2, 83524, Note_off_c, 0, 60, 64
2, 83740, Note_on_c, 0, 60, 64
2, 83826, Note_off_c, 0, 60, 64
2, 84028, Note_on_c, 0, 60, 72
2, 84112, Note_off_c, 0, 60, 64
2, 84278, Note_on_c, 0, 60, 68
2, 84362, Note_off_c, 0, 60, 64
2, 84554, Note_on_c, 0, 60, 62
2, 84640, Note_off_c, 0, 60, 64
2, 84812, Note_on_c, 0, 60, 68
2, 84886, Note_off_c, 0, 60, 64
2, 85070, Note_on_c, 0, 60, 62
2, 85152, Note_off_c, 0, 60, 64
2, 85324, Note_on_c, 0, 60, 68
2, 85324, Note_on_c, 0, 61, 64
2, 85396, Note_off_c, 0, 60, 64
2, 85402, Note_off_c, 0, 61, 64
2, 85580, Note_on_c, 0, 61, 59
2, 85582, Note_on_c, 0, 60, 72
2, 85648, Note_off_c, 0, 60, 64
2, 85650, Note_off_c, 0, 61, 64
2, 85658, Note_on_c, 0, 68, 76
2, 85708, Note_off_c, 0, 68, 64
2, 85712, Note_on_c, 0, 66, 56
2, 85756, Note_off_c, 0, 66, 64
2, 85760, Note_on_c, 0, 65, 59
2, 85816, Note_off_c, 0, 65, 64
2, 85826, Note_on_c, 0, 66, 72
2, 85834, Note_on_c, 0, 60, 59
2, 85836, Note_on_c, 0, 61, 55
2, 85910, Note_off_c, 0, 61, 64
2, 85910, Note_off_c, 0, 60, 64
2, 85922, Note_off_c, 0, 66, 64
2, 86094, Note_on_c, 0, 61, 57
2, 86096, Note_on_c, 0, 60, 62
2, 86166, Note_off_c, 0, 60, 64
2, 86172, Note_off_c, 0, 61, 64
2, 86332, Note_on_c, 0, 58, 57
2, 86340, Note_on_c, 0, 61, 59
2, 86404, Note_off_c, 0, 58, 64
2, 86434, Note_off_c, 0, 61, 64
2, 86582, Note_on_c, 0, 61, 59
2, 86584, Note_on_c, 0, 58, 60
2, 86654, Note_off_c, 0, 58, 64
2, 86662, Note_on_c, 0, 87, 89
2, 86670, Note_off_c, 0, 61, 64
2, 86710, Note_on_c, 0, 85, 55
2, 86712, Note_off_c, 0, 87, 64
2, 86758, Note_off_c, 0, 85, 64
2, 86772, Note_on_c, 0, 84, 72
2, 86820, Note_off_c, 0, 84, 64
2, 86832, Note_on_c, 0, 85, 68
2, 86854, Note_on_c, 0, 58, 59
2, 86858, Note_on_c, 0, 61, 62
2, 86880, Note_off_c, 0, 85, 64
2, 86920, Note_off_c, 0, 58, 64
2, 86936, Note_off_c, 0, 61, 64
2, 87104, Note_on_c, 0, 61, 60
2, 87108, Note_on_c, 0, 58, 60
2, 87172, Note_off_c, 0, 58, 64
2, 87194, Note_off_c, 0, 61, 64
2, 87354, Note_on_c, 0, 58, 59
2, 87356, Note_on_c, 0, 60, 64
2, 87424, Note_off_c, 0, 58, 64
2, 87434, Note_off_c, 0, 60, 64
2, 87608, Note_on_c, 0, 58, 55
2, 87612, Note_on_c, 0, 60, 60
2, 87674, Note_off_c, 0, 58, 64
2, 87676, Note_off_c, 0, 60, 64
2, 87690, Note_on_c, 0, 65, 85
2, 87738, Note_off_c, 0, 65, 64
2, 87744, Note_on_c, 0, 64, 72
2, 87790, Note_off_c, 0, 64, 64
2, 87802, Note_on_c, 0, 62, 72
2, 87840, Note_off_c, 0, 62, 64
2, 87864, Note_on_c, 0, 60, 62
2, 87864, Note_on_c, 0, 64, 85
2, 87866, Note_on_c, 0, 58, 56
2, 87908, Note_off_c, 0, 64, 64
2, 87934, Note_off_c, 0, 58, 64
2, 87934, Note_off_c, 0, 60, 64
2, 88112, Note_on_c, 0, 60, 62
2, 88116, Note_on_c, 0, 58, 55
2, 88180, Note_off_c, 0, 60, 64
2, 88190, Note_off_c, 0, 58, 64
2, 88370, Note_on_c, 0, 56, 60
2, 88374, Note_on_c, 0, 60, 57
2, 88440, Note_off_c, 0, 56, 64
2, 88456, Note_off_c, 0, 60, 64
2, 88628, Note_on_c, 0, 60, 57
2, 88632, Note_on_c, 0, 56, 56
2, 88682, Note_on_c, 0, 85, 68
2, 88694, Note_off_c, 0, 56, 64
2, 88708, Note_off_c, 0, 60, 64
2, 88726, Note_off_c, 0, 85, 64
2, 88734, Note_on_c, 0, 84, 76
2, 88782, Note_off_c, 0, 84, 64
2, 88792, Note_on_c, 0, 83, 64
2, 88826, Note_off_c, 0, 83, 64
2, 88854, Note_on_c, 0, 84, 89
2, 88880, Note_on_c, 0, 56, 59
2, 88880, Note_on_c, 0, 60, 59
2, 88898, Note_off_c, 0, 84, 64
2, 88950, Note_off_c, 0, 56, 64
2, 88954, Note_off_c, 0, 60, 64
2, 89130, Note_on_c, 0, 60, 57
2, 89130, Note_on_c, 0, 56, 57
2, 89196, Note_off_c, 0, 56, 64
2, 89216, Note_off_c, 0, 60, 64
2, 89386, Note_on_c, 0, 56, 56
2, 89390, Note_on_c, 0, 58, 60
2, 89466, Note_off_c, 0, 56, 64
2, 89478, Note_off_c, 0, 58, 64
2, 89630, Note_on_c, 0, 58, 56
2, 89634, Note_on_c, 0, 56, 56
2, 89714, Note_on_c, 0, 63, 76
2, 89724, Note_off_c, 0, 56, 64
2, 89734, Note_off_c, 0, 58, 64
2, 89762, Note_off_c, 0, 63, 64
2, 89766, Note_on_c, 0, 62, 59
2, 89812, Note_off_c, 0, 62, 64
2, 89818, Note_on_c, 0, 60, 52
2, 89858, Note_off_c, 0, 60, 64
2, 89880, Note_on_c, 0, 62, 89
2, 89896, Note_on_c, 0, 58, 64
2, 89898, Note_on_c, 0, 56, 62
2, 89930, Note_off_c, 0, 62, 64
2, 89972, Note_off_c, 0, 56, 64
2, 89982, Note_off_c, 0, 58, 64
2, 90148, Note_on_c, 0, 58, 64
2, 90150, Note_on_c, 0, 56, 64
2, 90206, Note_off_c, 0, 56, 64
2, 90216, Note_off_c, 0, 58, 64
2, 90410, Note_on_c, 0, 64, 68
2, 90414, Note_on_c, 0, 55, 62
2, 90416, Note_on_c, 0, 58, 62
2, 90500, Note_off_c, 0, 55, 64
2, 90512, Note_off_c, 0, 64, 64
2, 90518, Note_off_c, 0, 58, 64
2, 90652, Note_on_c, 0, 58, 50
2, 90662, Note_on_c, 0, 55, 55
2, 90666, Note_on_c, 0, 64, 53
2, 90736, Note_off_c, 0, 55, 64
2, 90736, Note_off_c, 0, 58, 64
2, 90738, Note_on_c, 0, 84, 72
2, 90750, Note_off_c, 0, 64, 64
2, 90788, Note_on_c, 0, 82, 64
2, 90792, Note_off_c, 0, 84, 64
2, 90832, Note_off_c, 0, 82, 64
2, 90850, Note_on_c, 0, 81, 72
2, 90890, Note_off_c, 0, 81, 64
2, 90910, Note_on_c, 0, 82, 80
2, 90918, Note_on_c, 0, 58, 60
2, 90924, Note_on_c, 0, 55, 64
2, 90928, Note_on_c, 0, 64, 72
2, 90954, Note_off_c, 0, 82, 64
2, 90996, Note_off_c, 0, 55, 64
2, 90996, Note_off_c, 0, 58, 64
2, 91010, Note_off_c, 0, 64, 64
2, 91174, Note_on_c, 0, 58, 68
2, 91176, Note_on_c, 0, 64, 76
2, 91176, Note_on_c, 0, 55, 76
2, 91244, Note_off_c, 0, 58, 64
2, 91246, Note_off_c, 0, 64, 64
2, 91250, Note_off_c, 0, 55, 64
2, 91438, Note_on_c, 0, 56, 76
2, 91442, Note_on_c, 0, 53, 72
2, 91444, Note_on_c, 0, 65, 107
2, 91444, Note_on_c, 0, 60, 59
2, 91512, Note_off_c, 0, 65, 64
2, 91532, Note_off_c, 0, 56, 64
2, 91536, Note_off_c, 0, 53, 64
2, 91538, Note_off_c, 0, 60, 64
2, 91700, Note_on_c, 0, 68, 98
2, 91760, Note_off_c, 0, 68, 64
2, 91970, Note_on_c, 0, 72, 98
2, 92050, Note_off_c, 0, 72, 64
2, 92232, Note_on_c, 0, 77, 93
2, 92302, Note_off_c, 0, 77, 64
2, 92488, Note_on_c, 0, 80, 102
2, 92720, Note_on_c, 0, 53, 60
2, 92720, Note_on_c, 0, 56, 64
2, 92720, Note_on_c, 0, 60, 68
2, 92800, Note_off_c, 0, 56, 64
2, 92802, Note_off_c, 0, 60, 64
2, 92810, Note_off_c, 0, 53, 64
2, 92858, Note_off_c, 0, 80, 64
2, 92868, Note_on_c, 0, 79, 80
2, 92904, Note_on_c, 0, 77, 72
2, 92928, Note_off_c, 0, 79, 64
2, 92956, Note_on_c, 0, 60, 76
2, 92964, Note_off_c, 0, 77, 64
2, 92966, Note_on_c, 0, 76, 72
2, 92970, Note_on_c, 0, 53, 68
2, 92970, Note_on_c, 0, 56, 72
2, 93016, Note_off_c, 0, 76, 64
2, 93018, Note_on_c, 0, 77, 85
2, 93038, Note_off_c, 0, 60, 64
2, 93052, Note_off_c, 0, 56, 64
2, 93056, Note_off_c, 0, 53, 64
2, 93076, Note_off_c, 0, 77, 64
2, 93204, Note_on_c, 0, 56, 80
2, 93210, Note_on_c, 0, 53, 72
2, 93212, Note_on_c, 0, 60, 80
2, 93274, Note_off_c, 0, 60, 64
2, 93278, Note_off_c, 0, 56, 64
2, 93290, Note_off_c, 0, 53, 64
2, 93470, Note_on_c, 0, 67, 98
2, 93474, Note_on_c, 0, 58, 80
2, 93476, Note_on_c, 0, 55, 89
2, 93476, Note_on_c, 0, 52, 93
2, 93492, Note_on_c, 0, 59, 68
2, 93534, Note_off_c, 0, 67, 64
2, 93548, Note_off_c, 0, 59, 64
2, 93576, Note_off_c, 0, 55, 64
2, 93578, Note_off_c, 0, 52, 64
2, 93590, Note_off_c, 0, 58, 64
2, 93724, Note_on_c, 0, 72, 93
2, 93788, Note_off_c, 0, 72, 64
2, 93992, Note_on_c, 0, 76, 98
2, 94050, Note_off_c, 0, 76, 64
2, 94252, Note_on_c, 0, 79, 93
2, 94326, Note_off_c, 0, 79, 64
2, 94508, Note_on_c, 0, 82, 93
2, 94742, Note_on_c, 0, 58, 64
2, 94746, Note_on_c, 0, 55, 76
2, 94748, Note_on_c, 0, 52, 76
2, 94750, Note_on_c, 0, 60, 68
2, 94820, Note_off_c, 0, 60, 64
2, 94820, Note_off_c, 0, 55, 64
2, 94822, Note_off_c, 0, 52, 64
2, 94834, Note_off_c, 0, 58, 64
2, 94876, Note_on_c, 0, 80, 72
2, 94892, Note_off_c, 0, 82, 64
2, 94920, Note_on_c, 0, 79, 76
2, 94944, Note_off_c, 0, 80, 64
2, 94984, Note_on_c, 0, 77, 76
2, 94986, Note_off_c, 0, 79, 64
2, 94996, Note_on_c, 0, 58, 60
2, 94996, Note_on_c, 0, 55, 76
2, 95004, Note_on_c, 0, 52, 80
2, 95006, Note_on_c, 0, 60, 89
2, 95032, Note_on_c, 0, 79, 98
2, 95044, Note_off_c, 0, 77, 64
2, 95070, Note_off_c, 0, 60, 64
2, 95072, Note_off_c, 0, 52, 64
2, 95076, Note_off_c, 0, 55, 64
2, 95082, Note_off_c, 0, 58, 64
2, 95088, Note_off_c, 0, 79, 64
2, 95248, Note_on_c, 0, 55, 76
2, 95250, Note_on_c, 0, 58, 62
2, 95252, Note_on_c, 0, 52, 80
2, 95254, Note_on_c, 0, 60, 76
2, 95314, Note_off_c, 0, 60, 64
2, 95316, Note_off_c, 0, 52, 64
2, 95318, Note_off_c, 0, 58, 64
2, 95320, Note_off_c, 0, 55, 64
2, 95450, Note_on_c, 0, 72, 89
2, 95496, Note_on_c, 0, 80, 102
2, 95500, Note_off_c, 0, 72, 64
2, 95516, Note_on_c, 0, 53, 72
2, 95520, Note_on_c, 0, 60, 98
2, 95520, Note_on_c, 0, 56, 89
2, 95872, Note_off_c, 0, 80, 64
2, 95882, Note_on_c, 0, 79, 72
2, 95906, Note_off_c, 0, 56, 64
2, 95916, Note_off_c, 0, 53, 64
2, 95924, Note_off_c, 0, 60, 64
2, 95932, Note_on_c, 0, 77, 89
2, 95946, Note_off_c, 0, 79, 64
2, 95980, Note_on_c, 0, 76, 89
2, 95984, Note_off_c, 0, 77, 64
2, 96038, Note_off_c, 0, 76, 64
2, 96040, Note_on_c, 0, 77, 89
2, 96096, Note_off_c, 0, 77, 64
2, 96472, Note_on_c, 0, 72, 89
2, 96544, Note_on_c, 0, 55, 89
2, 96544, Note_on_c, 0, 58, 85
2, 96544, Note_on_c, 0, 64, 93
2, 96544, Note_on_c, 0, 82, 89
2, 96556, Note_off_c, 0, 72, 64
2, 96946, Note_on_c, 0, 80, 76
2, 96954, Note_off_c, 0, 82, 64
2, 96986, Note_on_c, 0, 79, 72
2, 97006, Note_off_c, 0, 58, 64
2, 97008, Note_off_c, 0, 55, 64
2, 97016, Note_off_c, 0, 80, 64
2, 97018, Note_off_c, 0, 64, 64
2, 97046, Note_off_c, 0, 79, 64
2, 97054, Note_on_c, 0, 77, 76
2, 97100, Note_off_c, 0, 77, 64
2, 97112, Note_on_c, 0, 79, 98
2, 97198, Note_off_c, 0, 79, 64
2, 97578, Note_on_c, 0, 72, 72
2, 97642, Note_on_c, 0, 77, 76
2, 97692, Note_on_c, 0, 80, 107
2, 97726, Note_on_c, 0, 84, 102
2, 97726, Note_on_c, 0, 65, 89
2, 97726, Note_on_c, 0, 60, 93
2, 97726, Note_on_c, 0, 56, 85
2, 97842, Note_off_c, 0, 60, 64
2, 97852, Note_off_c, 0, 65, 64
2, 97856, Note_off_c, 0, 56, 64
2, 98320, Note_off_c, 0, 72, 64
2, 98324, Note_on_c, 0, 58, 80
2, 98324, Note_on_c, 0, 61, 89
2, 98324, Note_on_c, 0, 67, 93
2, 98324, Note_on_c, 0, 82, 72
2, 98328, Note_off_c, 0, 77, 64
2, 98328, Note_off_c, 0, 80, 64
2, 98356, Note_off_c, 0, 84, 64
2, 98420, Note_off_c, 0, 61, 64
2, 98428, Note_off_c, 0, 67, 64
2, 98432, Note_off_c, 0, 58, 64
2, 98478, Note_on_c, 0, 80, 80
2, 98524, Note_off_c, 0, 82, 64
2, 98630, Note_on_c, 0, 79, 76
2, 98642, Note_off_c, 0, 80, 64
2, 98790, Note_off_c, 0, 79, 64
2, 98790, Note_on_c, 0, 77, 72
2, 98946, Note_off_c, 0, 77, 64
2, 98948, Note_on_c, 0, 76, 76
2, 99008, Note_on_c, 0, 77, 76
2, 99026, Note_off_c, 0, 76, 64
2, 99070, Note_off_c, 0, 77, 64
2, 99076, Note_on_c, 0, 79, 72
2, 99106, Note_off_c, 0, 79, 64
2, 99122, Note_on_c, 0, 77, 76
2, 99122, Note_on_c, 0, 60, 93
2, 99122, Note_on_c, 0, 67, 93
2, 99638, Note_off_c, 0, 60, 64
2, 99646, Note_off_c, 0, 67, 64
2, 99932, Note_on_c, 0, 76, 57
2, 99972, Note_off_c, 0, 77, 64
2, 100558, Note_off_c, 0, 76, 64
2, 100982, Note_on_c, 0, 48, 89
2, 101054, Note_off_c, 0, 48, 64
2, 101212, Note_on_c, 0, 53, 80
2, 101270, Note_off_c, 0, 53, 64
2, 101434, Note_on_c, 0, 56, 85
2, 101476, Note_off_c, 0, 56, 64
2, 101656, Note_on_c, 0, 60, 72
2, 101726, Note_off_c, 0, 60, 64
2, 101896, Note_on_c, 0, 65, 76
2, 101956, Note_off_c, 0, 65, 64
2, 102128, Note_on_c, 0, 68, 76
2, 102440, Note_off_c, 0, 68, 64
2, 102454, Note_on_c, 0, 67, 76
2, 102510, Note_on_c, 0, 65, 68
2, 102518, Note_off_c, 0, 67, 64
2, 102558, Note_off_c, 0, 65, 64
2, 102558, Note_on_c, 0, 64, 76
2, 102610, Note_off_c, 0, 64, 64
2, 102614, Note_on_c, 0, 65, 72
2, 102678, Note_off_c, 0, 65, 64
2, 102838, Note_on_c, 0, 65, 89
2, 102894, Note_off_c, 0, 65, 64
2, 103072, Note_on_c, 0, 66, 72
2, 103076, Note_on_c, 0, 65, 85
2, 103078, Note_on_c, 0, 82, 80
2, 103410, Note_on_c, 0, 80, 64
2, 103422, Note_off_c, 0, 82, 64
2, 103468, Note_on_c, 0, 78, 57
2, 103474, Note_off_c, 0, 80, 64
2, 103518, Note_off_c, 0, 78, 64
2, 103518, Note_on_c, 0, 77, 53
2, 103570, Note_on_c, 0, 78, 68
2, 103580, Note_off_c, 0, 77, 64
2, 103622, Note_off_c, 0, 78, 64
2, 103794, Note_on_c, 0, 78, 72
2, 103846, Note_off_c, 0, 78, 64
2, 103990, Note_off_c, 0, 65, 64
2, 103992, Note_off_c, 0, 66, 64
2, 104032, Note_on_c, 0, 63, 60
2, 104032, Note_on_c, 0, 66, 64
2, 104032, Note_on_c, 0, 78, 76
2, 104380, Note_on_c, 0, 73, 68
2, 104438, Note_on_c, 0, 72, 76
2, 104454, Note_off_c, 0, 73, 64
2, 104494, Note_off_c, 0, 72, 64
2, 104494, Note_on_c, 0, 71, 64
2, 104550, Note_on_c, 0, 72, 89
2, 104556, Note_off_c, 0, 71, 64
2, 104592, Note_off_c, 0, 72, 64
2, 104772, Note_on_c, 0, 72, 89
2, 104818, Note_off_c, 0, 72, 64
2, 104870, Note_off_c, 0, 63, 64
2, 104912, Note_off_c, 0, 66, 64
2, 104956, Note_off_c, 0, 78, 64
2, 104974, Note_on_c, 0, 72, 85
2, 104974, Note_on_c, 0, 69, 89
2, 104974, Note_on_c, 0, 63, 68
2, 105346, Note_on_c, 0, 78, 72
2, 105404, Note_on_c, 0, 77, 76
2, 105408, Note_off_c, 0, 78, 64
2, 105436, Note_on_c, 0, 76, 85
2, 105440, Note_off_c, 0, 77, 64
2, 105490, Note_off_c, 0, 76, 64
2, 105508, Note_on_c, 0, 77, 76
2, 105562, Note_off_c, 0, 77, 64
2, 105718, Note_on_c, 0, 77, 89
2, 105760, Note_off_c, 0, 77, 64
2, 105880, Note_off_c, 0, 72, 64
2, 105904, Note_off_c, 0, 69, 64
2, 105910, Note_off_c, 0, 63, 64
2, 105934, Note_on_c, 0, 77, 93
2, 105936, Note_on_c, 0, 61, 72
2, 105936, Note_on_c, 0, 65, 89
2, 106268, Note_on_c, 0, 72, 64
2, 106308, Note_on_c, 0, 70, 57
2, 106340, Note_off_c, 0, 72, 64
2, 106372, Note_on_c, 0, 69, 80
2, 106380, Note_off_c, 0, 70, 64
2, 106436, Note_off_c, 0, 69, 64
2, 106436, Note_on_c, 0, 70, 89
2, 106476, Note_off_c, 0, 70, 64
2, 106648, Note_on_c, 0, 70, 76
2, 106704, Note_off_c, 0, 70, 64
2, 106766, Note_off_c, 0, 65, 64
2, 106782, Note_off_c, 0, 61, 64
2, 106796, Note_off_c, 0, 77, 64
2, 106896, Note_on_c, 0, 71, 98
2, 106896, Note_on_c, 0, 65, 72
2, 106898, Note_on_c, 0, 62, 72
2, 107276, Note_on_c, 0, 79, 76
2, 107316, Note_on_c, 0, 77, 76
2, 107330, Note_off_c, 0, 79, 64
2, 107356, Note_on_c, 0, 76, 89
2, 107358, Note_off_c, 0, 77, 64
2, 107394, Note_on_c, 0, 77, 102
2, 107404, Note_off_c, 0, 76, 64
2, 107608, Note_off_c, 0, 65, 64
2, 107612, Note_on_c, 0, 64, 76
2, 107618, Note_on_c, 0, 79, 89
2, 107622, Note_off_c, 0, 77, 64
2, 107844, Note_off_c, 0, 79, 64
2, 107848, Note_on_c, 0, 80, 89
2, 107852, Note_on_c, 0, 65, 89
2, 107860, Note_off_c, 0, 64, 64
2, 107932, Note_off_c, 0, 71, 64
2, 108074, Note_off_c, 0, 65, 64
2, 108074, Note_on_c, 0, 67, 80
2, 108076, Note_off_c, 0, 80, 64
2, 108076, Note_on_c, 0, 76, 89
2, 108314, Note_on_c, 0, 68, 76
2, 108316, Note_off_c, 0, 67, 64
2, 108324, Note_on_c, 0, 77, 80
2, 108332, Note_off_c, 0, 76, 64
2, 108540, Note_on_c, 0, 65, 72
2, 108542, Note_off_c, 0, 68, 64
2, 108544, Note_off_c, 0, 77, 64
2, 108546, Note_on_c, 0, 71, 76
2, 108720, Note_off_c, 0, 65, 64
2, 108732, Note_off_c, 0, 62, 64
2, 108772, Note_off_c, 0, 71, 64
2, 108778, Note_on_c, 0, 64, 62
2, 108780, Note_on_c, 0, 60, 72
2, 108780, Note_on_c, 0, 72, 80
2, 109008, Note_off_c, 0, 64, 64
2, 109010, Note_on_c, 0, 76, 98
2, 109014, Note_on_c, 0, 67, 62
2, 109018, Note_off_c, 0, 72, 64
2, 109240, Note_on_c, 0, 65, 72
2, 109246, Note_off_c, 0, 67, 64
2, 109250, Note_on_c, 0, 77, 89
2, 109268, Note_off_c, 0, 76, 64
2, 109462, Note_on_c, 0, 64, 76
2, 109480, Note_on_c, 0, 79, 93
2, 109486, Note_off_c, 0, 65, 64
2, 109486, Note_off_c, 0, 77, 64
2, 109692, Note_off_c, 0, 64, 64
2, 109708, Note_off_c, 0, 79, 64
2, 109710, Note_on_c, 0, 80, 93
2, 109712, Note_on_c, 0, 65, 80
2, 109914, Note_off_c, 0, 65, 64
2, 109944, Note_on_c, 0, 76, 76
2, 109948, Note_on_c, 0, 70, 57
2, 109962, Note_off_c, 0, 80, 64
2, 110162, Note_off_c, 0, 70, 64
2, 110180, Note_on_c, 0, 61, 46
2, 110186, Note_on_c, 0, 68, 80
2, 110190, Note_off_c, 0, 60, 64
2, 110190, Note_on_c, 0, 77, 62
2, 110200, Note_off_c, 0, 76, 64
2, 110404, Note_off_c, 0, 77, 64
2, 110406, Note_on_c, 0, 65, 39
2, 110408, Note_on_c, 0, 71, 76
2, 110412, Note_off_c, 0, 68, 64
2, 110626, Note_off_c, 0, 61, 64
2, 110628, Note_off_c, 0, 71, 64
2, 110628, Note_off_c, 0, 65, 64
2, 110630, Note_on_c, 0, 48, 76
2, 110636, Note_on_c, 0, 72, 80
2, 110642, Note_on_c, 0, 64, 62
2, 110740, Note_off_c, 0, 48, 64
2, 110750, Note_on_c, 0, 60, 64
2, 110852, Note_off_c, 0, 60, 64
2, 110854, Note_on_c, 0, 48, 60
2, 110886, Note_off_c, 0, 72, 64
2, 110888, Note_off_c, 0, 64, 64
2, 110946, Note_off_c, 0, 48, 64
2, 110968, Note_on_c, 0, 60, 52
2, 111056, Note_off_c, 0, 60, 64
2, 111074, Note_on_c, 0, 48, 57
2, 111162, Note_off_c, 0, 48, 64
2, 111196, Note_on_c, 0, 60, 55
2, 111290, Note_off_c, 0, 60, 64
2, 111300, Note_on_c, 0, 73, 85
2, 111308, Note_on_c, 0, 48, 55
2, 111388, Note_off_c, 0, 48, 64
2, 111408, Note_on_c, 0, 60, 55
2, 111504, Note_off_c, 0, 60, 64
2, 111518, Note_on_c, 0, 48, 68
2, 111524, Note_on_c, 0, 72, 76
2, 111538, Note_off_c, 0, 73, 64
2, 111610, Note_off_c, 0, 48, 64
2, 111628, Note_on_c, 0, 60, 46
2, 111728, Note_off_c, 0, 60, 64
2, 111736, Note_on_c, 0, 48, 60
2, 111746, Note_on_c, 0, 70, 76
2, 111768, Note_off_c, 0, 72, 64
2, 111842, Note_off_c, 0, 48, 64
2, 111858, Note_on_c, 0, 60, 50
2, 111952, Note_off_c, 0, 60, 64
2, 111958, Note_on_c, 0, 67, 72
2, 111958, Note_on_c, 0, 48, 72
2, 111966, Note_off_c, 0, 70, 64
2, 112076, Note_off_c, 0, 48, 64
2, 112078, Note_on_c, 0, 60, 56
2, 112152, Note_off_c, 0, 60, 64
2, 112170, Note_on_c, 0, 48, 72
2, 112176, Note_on_c, 0, 64, 80
2, 112178, Note_off_c, 0, 67, 64
2, 112290, Note_off_c, 0, 48, 64
2, 112292, Note_on_c, 0, 60, 72
2, 112366, Note_off_c, 0, 60, 64
2, 112402, Note_on_c, 0, 61, 85
2, 112402, Note_on_c, 0, 58, 80
2, 112406, Note_off_c, 0, 64, 64
2, 112406, Note_on_c, 0, 48, 72
2, 112592, Note_off_c, 0, 48, 64
2, 112632, Note_on_c, 0, 48, 72
2, 112756, Note_on_c, 0, 60, 76
2, 112758, Note_off_c, 0, 61, 64
2, 112802, Note_off_c, 0, 48, 64
2, 112852, Note_off_c, 0, 58, 64
2, 112856, Note_on_c, 0, 48, 76
2, 112860, Note_on_c, 0, 56, 80
2, 112866, Note_on_c, 0, 65, 68
2, 112886, Note_off_c, 0, 60, 64
2, 112910, Control_c, 0, 64, 127
2, 112910, Control_c, 0, 64, 127
2, 112964, Note_off_c, 0, 56, 64
2, 112978, Note_off_c, 0, 48, 64
2, 112980, Note_off_c, 0, 65, 64
2, 112988, Note_on_c, 0, 60, 62
2, 113082, Note_off_c, 0, 60, 64
2, 113084, Control_c, 0, 64, 0
2, 113084, Control_c, 0, 64, 0
2, 113086, Note_on_c, 0, 48, 72
2, 113090, Note_on_c, 0, 85, 93
2, 113178, Control_c, 0, 64, 127
2, 113180, Control_c, 0, 64, 127
2, 113186, Note_off_c, 0, 48, 64
2, 113204, Note_on_c, 0, 60, 53
2, 113288, Note_off_c, 0, 60, 64
2, 113292, Note_off_c, 0, 85, 64
2, 113310, Note_on_c, 0, 48, 76
2, 113324, Note_on_c, 0, 84, 93
2, 113336, Control_c, 0, 64, 0
2, 113336, Control_c, 0, 64, 0
2, 113390, Note_off_c, 0, 48, 64
2, 113398, Control_c, 0, 64, 127
2, 113400, Control_c, 0, 64, 127
2, 113432, Note_on_c, 0, 60, 57
2, 113540, Note_off_c, 0, 60, 64
2, 113540, Control_c, 0, 64, 0
2, 113540, Control_c, 0, 64, 0
2, 113540, Note_on_c, 0, 82, 85
2, 113544, Note_on_c, 0, 48, 64
2, 113556, Note_off_c, 0, 84, 64
2, 113594, Control_c, 0, 64, 127
2, 113596, Control_c, 0, 64, 127
2, 113636, Note_off_c, 0, 48, 64
2, 113666, Note_on_c, 0, 60, 56
2, 113734, Control_c, 0, 64, 0
2, 113736, Control_c, 0, 64, 0
2, 113754, Note_off_c, 0, 60, 64
2, 113764, Note_on_c, 0, 48, 68
2, 113766, Note_on_c, 0, 79, 93
2, 113774, Note_off_c, 0, 82, 64
2, 113788, Control_c, 0, 64, 127
2, 113788, Control_c, 0, 64, 127
2, 113862, Note_off_c, 0, 48, 64
2, 113890, Note_on_c, 0, 60, 51
2, 113950, Control_c, 0, 64, 0
2, 113950, Control_c, 0, 64, 0
2, 113964, Note_off_c, 0, 60, 64
2, 113980, Note_on_c, 0, 48, 72
2, 113998, Note_off_c, 0, 79, 64
2, 114000, Note_on_c, 0, 76, 93
2, 114000, Control_c, 0, 64, 127
2, 114000, Control_c, 0, 64, 127
2, 114082, Note_off_c, 0, 48, 64
2, 114092, Note_on_c, 0, 60, 60
2, 114170, Note_off_c, 0, 60, 64
2, 114192, Note_off_c, 0, 76, 64
2, 114192, Note_on_c, 0, 58, 76
2, 114198, Note_on_c, 0, 48, 85
2, 114214, Note_on_c, 0, 73, 102
2, 114230, Control_c, 0, 64, 0
2, 114232, Control_c, 0, 64, 0
2, 114316, Control_c, 0, 64, 127
2, 114316, Control_c, 0, 64, 127
2, 114384, Note_off_c, 0, 48, 64
2, 114428, Note_on_c, 0, 48, 80
2, 114524, Note_off_c, 0, 73, 64
2, 114530, Control_c, 0, 64, 0
2, 114532, Control_c, 0, 64, 0
2, 114534, Note_on_c, 0, 72, 72
2, 114556, Note_off_c, 0, 48, 64
2, 114644, Note_on_c, 0, 48, 76
2, 114652, Note_on_c, 0, 77, 89
2, 114660, Note_off_c, 0, 72, 64
2, 114660, Note_on_c, 0, 56, 80
2, 114664, Note_off_c, 0, 58, 64
2, 114730, Note_off_c, 0, 77, 64
2, 114754, Note_off_c, 0, 48, 64
2, 114772, Note_on_c, 0, 60, 62
2, 114844, Note_off_c, 0, 60, 64
2, 114870, Note_on_c, 0, 48, 72
2, 114880, Note_on_c, 0, 85, 107
2, 114898, Control_c, 0, 64, 127
2, 114900, Control_c, 0, 64, 127
2, 114926, Note_off_c, 0, 56, 64
2, 114964, Note_off_c, 0, 48, 64
2, 114986, Note_on_c, 0, 60, 53
2, 115066, Note_off_c, 0, 60, 64
2, 115088, Note_off_c, 0, 85, 64
2, 115088, Note_on_c, 0, 48, 68
2, 115102, Note_on_c, 0, 84, 98
2, 115122, Control_c, 0, 64, 0
2, 115124, Control_c, 0, 64, 0
2, 115178, Note_off_c, 0, 48, 64
2, 115190, Control_c, 0, 64, 127
2, 115192, Control_c, 0, 64, 127
2, 115212, Note_on_c, 0, 60, 56
2, 115292, Note_off_c, 0, 60, 64
2, 115306, Note_on_c, 0, 48, 62
2, 115320, Note_on_c, 0, 82, 85
2, 115336, Note_off_c, 0, 84, 64
2, 115340, Control_c, 0, 64, 0
2, 115340, Control_c, 0, 64, 0
2, 115410, Note_off_c, 0, 48, 64
2, 115412, Control_c, 0, 64, 127
2, 115414, Control_c, 0, 64, 127
2, 115418, Note_on_c, 0, 60, 59
2, 115520, Note_off_c, 0, 60, 64
2, 115526, Note_on_c, 0, 58, 62
2, 115528, Note_on_c, 0, 79, 76
2, 115534, Note_off_c, 0, 82, 64
2, 115542, Control_c, 0, 64, 0
2, 115544, Control_c, 0, 64, 0
2, 115630, Note_off_c, 0, 58, 64
2, 115630, Note_on_c, 0, 60, 45
2, 115632, Control_c, 0, 64, 127
2, 115634, Control_c, 0, 64, 127
2, 115732, Note_off_c, 0, 60, 64
2, 115742, Note_off_c, 0, 79, 64
2, 115744, Note_on_c, 0, 76, 57
2, 115746, Note_on_c, 0, 58, 55
2, 115754, Control_c, 0, 64, 0
2, 115756, Control_c, 0, 64, 0
2, 115848, Note_off_c, 0, 58, 64
2, 115858, Note_on_c, 0, 60, 56
2, 115936, Note_off_c, 0, 60, 64
2, 115940, Note_off_c, 0, 76, 64
2, 115962, Note_on_c, 0, 56, 64
2, 116070, Note_on_c, 0, 65, 51
2, 116072, Note_on_c, 0, 76, 72
2, 116088, Note_off_c, 0, 56, 64
2, 116152, Control_c, 0, 64, 127
2, 116152, Control_c, 0, 64, 127
2, 116176, Note_off_c, 0, 65, 64
2, 116190, Note_on_c, 0, 60, 64
2, 116194, Note_on_c, 0, 79, 80
2, 116208, Note_off_c, 0, 76, 64
2, 116236, Control_c, 0, 64, 0
2, 116236, Control_c, 0, 64, 0
2, 116298, Note_on_c, 0, 65, 59
2, 116300, Note_off_c, 0, 60, 64
2, 116302, Note_on_c, 0, 77, 76
2, 116312, Note_off_c, 0, 79, 64
2, 116362, Note_off_c, 0, 77, 64
2, 116378, Note_off_c, 0, 65, 64
2, 116394, Note_on_c, 0, 55, 68
2, 116470, Control_c, 0, 64, 127
2, 116470, Control_c, 0, 64, 127
2, 116518, Note_on_c, 0, 77, 93
2, 116520, Note_on_c, 0, 64, 62
2, 116526, Note_off_c, 0, 55, 64
2, 116608, Note_off_c, 0, 64, 64
2, 116626, Note_on_c, 0, 58, 60
2, 116628, Note_off_c, 0, 77, 64
2, 116628, Note_on_c, 0, 80, 80
2, 116658, Control_c, 0, 64, 0
2, 116658, Control_c, 0, 64, 0
2, 116726, Note_off_c, 0, 58, 64
2, 116730, Note_on_c, 0, 64, 56
2, 116738, Note_on_c, 0, 79, 93
2, 116756, Note_off_c, 0, 80, 64
2, 116784, Note_off_c, 0, 79, 64
2, 116812, Note_off_c, 0, 64, 64
2, 116826, Note_on_c, 0, 53, 80
2, 116896, Control_c, 0, 64, 127
2, 116896, Control_c, 0, 64, 127
2, 116950, Note_on_c, 0, 79, 89
2, 116950, Note_on_c, 0, 60, 64
2, 116964, Note_off_c, 0, 53, 64
2, 117004, Control_c, 0, 64, 0
2, 117004, Control_c, 0, 64, 0
2, 117048, Note_off_c, 0, 60, 64
2, 117058, Note_on_c, 0, 56, 62
2, 117064, Note_on_c, 0, 82, 85
2, 117068, Note_off_c, 0, 79, 64
2, 117106, Control_c, 0, 64, 127
2, 117106, Control_c, 0, 64, 127
2, 117156, Note_off_c, 0, 56, 64
2, 117160, Note_on_c, 0, 60, 57
2, 117164, Note_on_c, 0, 80, 93
2, 117190, Note_off_c, 0, 82, 64
2, 117192, Control_c, 0, 64, 0
2, 117192, Control_c, 0, 64, 0
2, 117210, Note_off_c, 0, 80, 64
2, 117242, Note_off_c, 0, 60, 64
2, 117258, Note_on_c, 0, 50, 80
2, 117374, Note_on_c, 0, 83, 85
2, 117380, Note_off_c, 0, 50, 64
2, 117388, Note_on_c, 0, 59, 62
2, 117416, Control_c, 0, 64, 127
2, 117416, Control_c, 0, 64, 127
2, 117466, Note_off_c, 0, 83, 64
2, 117482, Note_off_c, 0, 59, 64
2, 117484, Note_on_c, 0, 89, 93
2, 117488, Note_on_c, 0, 53, 76
2, 117514, Control_c, 0, 64, 0
2, 117514, Control_c, 0, 64, 0
2, 117596, Note_on_c, 0, 83, 89
2, 117598, Note_off_c, 0, 89, 64
2, 117606, Note_off_c, 0, 53, 64
2, 117608, Note_on_c, 0, 59, 72
2, 117678, Note_off_c, 0, 59, 64
2, 117696, Note_off_c, 0, 83, 64
2, 117696, Note_on_c, 0, 48, 72
2, 117712, Note_on_c, 0, 84, 98
2, 117810, Note_on_c, 0, 60, 56
2, 117832, Note_off_c, 0, 48, 64
2, 117896, Note_off_c, 0, 60, 64
2, 117916, Note_on_c, 0, 52, 64
2, 117962, Note_off_c, 0, 84, 64
2, 118024, Note_off_c, 0, 52, 64
2, 118030, Note_on_c, 0, 60, 28
2, 118118, Note_off_c, 0, 60, 64
2, 118140, Note_on_c, 0, 49, 80
2, 118234, Control_c, 0, 64, 127
2, 118236, Control_c, 0, 64, 127
2, 118236, Note_on_c, 0, 83, 89
2, 118252, Note_on_c, 0, 59, 72
2, 118280, Control_c, 0, 64, 0
2, 118280, Control_c, 0, 64, 0
2, 118284, Note_off_c, 0, 49, 64
2, 118328, Note_off_c, 0, 59, 64
2, 118348, Note_on_c, 0, 53, 64
2, 118358, Note_off_c, 0, 83, 64
2, 118358, Note_on_c, 0, 89, 93
2, 118460, Note_off_c, 0, 53, 64
2, 118464, Note_on_c, 0, 83, 89
2, 118478, Note_off_c, 0, 89, 64
2, 118478, Note_on_c, 0, 59, 76
2, 118540, Note_off_c, 0, 59, 64
2, 118560, Note_off_c, 0, 83, 64
2, 118584, Note_on_c, 0, 48, 80
2, 118584, Note_on_c, 0, 84, 93
2, 118630, Control_c, 0, 64, 127
2, 118630, Control_c, 0, 64, 127
2, 118644, Control_c, 0, 64, 0
2, 118646, Control_c, 0, 64, 0
2, 118674, Note_on_c, 0, 60, 57
2, 118704, Note_off_c, 0, 48, 64
2, 118766, Note_off_c, 0, 60, 64
2, 118780, Note_off_c, 0, 84, 64
2, 118784, Note_on_c, 0, 52, 80
2, 118892, Note_on_c, 0, 60, 64
2, 118896, Note_off_c, 0, 52, 64
2, 118948, Note_off_c, 0, 60, 64
2, 118986, Note_on_c, 0, 46, 89
2, 119100, Note_on_c, 0, 76, 107
2, 119118, Control_c, 0, 64, 127
2, 119120, Control_c, 0, 64, 127
2, 119126, Note_off_c, 0, 46, 64
2, 119202, Note_off_c, 0, 76, 64
2, 119206, Control_c, 0, 64, 0
2, 119208, Control_c, 0, 64, 0
2, 119208, Note_on_c, 0, 49, 57
2, 119218, Note_on_c, 0, 85, 98
2, 119318, Note_off_c, 0, 49, 64
2, 119328, Note_on_c, 0, 76, 76
2, 119328, Note_on_c, 0, 55, 62
2, 119348, Note_off_c, 0, 85, 64
2, 119402, Note_off_c, 0, 55, 64
2, 119422, Note_on_c, 0, 44, 47
2, 119424, Note_off_c, 0, 76, 64
2, 119440, Note_on_c, 0, 77, 60
2, 119540, Note_on_c, 0, 53, 76
2, 119546, Note_off_c, 0, 44, 64
2, 119630, Note_off_c, 0, 53, 64
2, 119652, Note_on_c, 0, 48, 68
2, 119712, Note_off_c, 0, 77, 64
2, 119754, Note_off_c, 0, 48, 64
2, 119766, Note_on_c, 0, 53, 72
2, 119842, Note_off_c, 0, 53, 64
2, 119854, Note_on_c, 0, 46, 62
2, 119960, Note_on_c, 0, 55, 57
2, 119968, Note_on_c, 0, 76, 98
2, 119982, Control_c, 0, 64, 127
2, 119982, Control_c, 0, 64, 127
2, 119992, Note_off_c, 0, 46, 64
2, 120064, Note_off_c, 0, 55, 64
2, 120070, Note_on_c, 0, 49, 56
2, 120076, Note_off_c, 0, 76, 64
2, 120082, Note_on_c, 0, 85, 85
2, 120142, Control_c, 0, 64, 0
2, 120142, Control_c, 0, 64, 0
2, 120180, Note_off_c, 0, 49, 64
2, 120184, Note_on_c, 0, 55, 64
2, 120190, Note_off_c, 0, 85, 64
2, 120194, Note_on_c, 0, 76, 93
2, 120248, Note_off_c, 0, 76, 64
2, 120260, Note_off_c, 0, 55, 64
2, 120272, Note_on_c, 0, 44, 72
2, 120374, Control_c, 0, 64, 127
2, 120376, Control_c, 0, 64, 127
2, 120388, Note_on_c, 0, 53, 60
2, 120398, Note_on_c, 0, 76, 102
2, 120404, Note_off_c, 0, 44, 64
2, 120446, Control_c, 0, 64, 0
2, 120446, Control_c, 0, 64, 0
2, 120486, Note_off_c, 0, 76, 64
2, 120486, Note_off_c, 0, 53, 64
2, 120494, Note_on_c, 0, 48, 76
2, 120508, Note_on_c, 0, 79, 89
2, 120598, Note_off_c, 0, 48, 64
2, 120602, Note_on_c, 0, 53, 64
2, 120618, Note_off_c, 0, 79, 64
2, 120618, Note_on_c, 0, 77, 85
2, 120664, Note_off_c, 0, 77, 64
2, 120674, Note_off_c, 0, 53, 64
2, 120704, Note_on_c, 0, 40, 93
2, 120762, Control_c, 0, 64, 127
2, 120762, Control_c, 0, 64, 127
2, 120812, Note_on_c, 0, 77, 93
2, 120834, Note_on_c, 0, 52, 72
2, 120850, Note_off_c, 0, 40, 64
2, 120924, Note_off_c, 0, 52, 64
2, 120928, Note_on_c, 0, 80, 85
2, 120930, Note_off_c, 0, 77, 64
2, 120944, Note_on_c, 0, 48, 64
2, 121020, Note_off_c, 0, 80, 64
2, 121032, Note_on_c, 0, 79, 93
2, 121040, Control_c, 0, 64, 0
2, 121042, Control_c, 0, 64, 0
2, 121060, Note_off_c, 0, 48, 64
2, 121060, Note_on_c, 0, 52, 80
2, 121080, Note_off_c, 0, 79, 64
2, 121130, Note_off_c, 0, 52, 64
2, 121148, Note_on_c, 0, 41, 62
2, 121200, Control_c, 0, 64, 127
2, 121200, Control_c, 0, 64, 127
2, 121258, Note_on_c, 0, 53, 60
2, 121274, Note_on_c, 0, 79, 107
2, 121294, Note_off_c, 0, 41, 64
2, 121348, Note_off_c, 0, 53, 64
2, 121364, Note_on_c, 0, 48, 68
2, 121376, Note_off_c, 0, 79, 64
2, 121382, Note_on_c, 0, 82, 85
2, 121382, Control_c, 0, 64, 0
2, 121384, Control_c, 0, 64, 0
2, 121476, Note_off_c, 0, 82, 64
2, 121476, Note_on_c, 0, 53, 56
2, 121478, Note_off_c, 0, 48, 64
2, 121490, Note_on_c, 0, 80, 102
2, 121538, Note_off_c, 0, 80, 64
2, 121560, Note_off_c, 0, 53, 64
2, 121576, Note_on_c, 0, 43, 76
2, 121656, Control_c, 0, 64, 127
2, 121656, Control_c, 0, 64, 127
2, 121680, Note_on_c, 0, 55, 64
2, 121690, Note_on_c, 0, 81, 98
2, 121714, Note_off_c, 0, 43, 64
2, 121766, Note_off_c, 0, 55, 64
2, 121774, Note_off_c, 0, 81, 64
2, 121782, Note_on_c, 0, 48, 62
2, 121796, Note_on_c, 0, 84, 85
2, 121876, Control_c, 0, 64, 0
2, 121876, Control_c, 0, 64, 0
2, 121878, Note_off_c, 0, 84, 64
2, 121894, Note_on_c, 0, 55, 76
2, 121900, Note_on_c, 0, 82, 102
2, 121904, Note_off_c, 0, 48, 64
2, 121948, Note_off_c, 0, 82, 64
2, 121976, Note_off_c, 0, 55, 64
2, 122002, Note_on_c, 0, 44, 89
2, 122124, Note_on_c, 0, 84, 98
2, 122150, Control_c, 0, 64, 127
2, 122150, Control_c, 0, 64, 127
2, 122212, Note_off_c, 0, 84, 64
2, 122218, Note_off_c, 0, 44, 64
2, 122230, Note_on_c, 0, 89, 89
2, 122230, Note_on_c, 0, 48, 102
2, 122316, Note_off_c, 0, 89, 64
2, 122338, Note_on_c, 0, 87, 80
2, 122406, Control_c, 0, 64, 0
2, 122406, Control_c, 0, 64, 0
2, 122436, Note_off_c, 0, 87, 64
2, 122458, Note_on_c, 0, 85, 85
2, 122506, Control_c, 0, 64, 127
2, 122506, Control_c, 0, 64, 127
2, 122542, Note_off_c, 0, 85, 64
2, 122568, Note_on_c, 0, 84, 93
2, 122674, Note_on_c, 0, 82, 80
2, 122676, Note_off_c, 0, 84, 64
2, 122680, Note_off_c, 0, 48, 64
2, 122680, Note_on_c, 0, 53, 85
2, 122734, Note_off_c, 0, 82, 64
2, 122786, Note_on_c, 0, 80, 89
2, 122842, Note_off_c, 0, 80, 64
2, 122892, Control_c, 0, 64, 0
2, 122894, Control_c, 0, 64, 0
2, 122896, Note_on_c, 0, 79, 89
2, 122908, Note_off_c, 0, 53, 64
2, 122910, Note_on_c, 0, 46, 93
2, 122988, Control_c, 0, 64, 127
2, 122990, Control_c, 0, 64, 127
2, 122998, Note_off_c, 0, 79, 64
2, 123010, Note_on_c, 0, 77, 80
2, 123084, Note_off_c, 0, 77, 64
2, 123122, Note_on_c, 0, 75, 80
2, 123128, Note_off_c, 0, 46, 64
2, 123138, Note_on_c, 0, 49, 93
2, 123158, Control_c, 0, 64, 0
2, 123158, Control_c, 0, 64, 0
2, 123224, Note_off_c, 0, 75, 64
2, 123228, Note_on_c, 0, 73, 76
2, 123272, Control_c, 0, 64, 127
2, 123272, Control_c, 0, 64, 127
2, 123334, Note_off_c, 0, 73, 64
2, 123334, Control_c, 0, 64, 0
2, 123334, Control_c, 0, 64, 0
2, 123338, Note_on_c, 0, 72, 85
2, 123438, Note_off_c, 0, 72, 64
2, 123450, Note_on_c, 0, 70, 89
2, 123494, Control_c, 0, 64, 127
2, 123494, Control_c, 0, 64, 127
2, 123556, Note_on_c, 0, 68, 72
2, 123566, Note_off_c, 0, 70, 64
2, 123572, Control_c, 0, 64, 0
2, 123572, Control_c, 0, 64, 0
2, 123578, Note_on_c, 0, 55, 93
2, 123580, Note_off_c, 0, 49, 64
2, 123652, Control_c, 0, 64, 127
2, 123652, Control_c, 0, 64, 127
2, 123662, Control_c, 0, 64, 0
2, 123662, Control_c, 0, 64, 0
2, 123664, Note_off_c, 0, 68, 64
2, 123672, Note_on_c, 0, 67, 93
2, 123784, Note_off_c, 0, 67, 64
2, 123784, Note_on_c, 0, 65, 93
2, 123798, Control_c, 0, 64, 127
2, 123798, Control_c, 0, 64, 127
2, 123800, Note_on_c, 0, 48, 98
2, 123804, Note_off_c, 0, 55, 64
2, 123906, Note_on_c, 0, 64, 76
2, 123922, Note_off_c, 0, 65, 64
2, 123934, Control_c, 0, 64, 0
2, 123934, Control_c, 0, 64, 0
2, 124016, Note_on_c, 0, 61, 85
2, 124030, Note_off_c, 0, 64, 64
2, 124034, Note_off_c, 0, 48, 64
2, 124036, Note_on_c, 0, 53, 98
2, 124076, Control_c, 0, 64, 127
2, 124078, Control_c, 0, 64, 127
2, 124128, Note_off_c, 0, 61, 64
2, 124128, Note_on_c, 0, 60, 85
2, 124218, Control_c, 0, 64, 0
2, 124218, Control_c, 0, 64, 0
2, 124228, Note_off_c, 0, 60, 64
2, 124242, Note_on_c, 0, 59, 89
2, 124310, Control_c, 0, 64, 127
2, 124310, Control_c, 0, 64, 127
2, 124362, Note_on_c, 0, 60, 64
2, 124366, Note_off_c, 0, 59, 64
2, 124384, Control_c, 0, 64, 0
2, 124386, Control_c, 0, 64, 0
2, 124464, Note_on_c, 0, 59, 52
2, 124464, Note_on_c, 0, 56, 68
2, 124468, Note_off_c, 0, 60, 64
2, 124490, Note_off_c, 0, 53, 64
2, 124526, Control_c, 0, 64, 127
2, 124526, Control_c, 0, 64, 127
2, 124566, Note_on_c, 0, 60, 64
2, 124584, Note_off_c, 0, 59, 64
2, 124680, Note_off_c, 0, 60, 64
2, 124682, Note_on_c, 0, 59, 60
2, 124688, Note_on_c, 0, 58, 60
2, 124692, Control_c, 0, 64, 0
2, 124692, Control_c, 0, 64, 0
2, 124702, Note_off_c, 0, 56, 64
2, 124796, Note_on_c, 0, 60, 72
2, 124802, Note_off_c, 0, 59, 64
2, 124904, Note_on_c, 0, 61, 59
2, 124918, Note_on_c, 0, 55, 60
2, 124922, Note_off_c, 0, 60, 64
2, 124924, Note_off_c, 0, 58, 64
2, 125016, Note_on_c, 0, 60, 64
2, 125026, Note_off_c, 0, 61, 64
2, 125136, Note_on_c, 0, 59, 59
2, 125140, Note_off_c, 0, 60, 64
2, 125150, Note_on_c, 0, 52, 72
2, 125170, Note_off_c, 0, 55, 64
2, 125242, Note_on_c, 0, 60, 76
2, 125254, Note_off_c, 0, 59, 64
2, 125356, Note_off_c, 0, 60, 64
2, 125360, Note_on_c, 0, 61, 62
2, 125376, Note_on_c, 0, 46, 76
2, 125382, Note_off_c, 0, 52, 64
2, 125460, Note_on_c, 0, 60, 62
2, 125474, Note_off_c, 0, 61, 64
2, 125512, Note_off_c, 0, 60, 64
2, 125598, Note_off_c, 0, 46, 64
2, 125600, Note_on_c, 0, 44, 93
2, 125704, Control_c, 0, 64, 127
2, 125706, Control_c, 0, 64, 127
2, 125720, Note_on_c, 0, 84, 93
2, 125818, Note_off_c, 0, 44, 64
2, 125822, Note_off_c, 0, 84, 64
2, 125826, Note_on_c, 0, 48, 107
2, 125828, Note_on_c, 0, 89, 93
2, 125842, Control_c, 0, 64, 0
2, 125842, Control_c, 0, 64, 0
2, 125948, Note_on_c, 0, 87, 80
2, 125964, Note_off_c, 0, 89, 64
2, 126056, Note_on_c, 0, 85, 80
2, 126080, Note_off_c, 0, 87, 64
2, 126152, Note_off_c, 0, 85, 64
2, 126162, Note_on_c, 0, 84, 89
2, 126196, Control_c, 0, 64, 127
2, 126196, Control_c, 0, 64, 127
2, 126264, Note_on_c, 0, 82, 68
2, 126266, Note_off_c, 0, 84, 64
2, 126304, Note_on_c, 0, 53, 80
2, 126308, Note_off_c, 0, 48, 64
2, 126326, Note_off_c, 0, 82, 64
2, 126380, Note_on_c, 0, 80, 80
2, 126432, Note_off_c, 0, 80, 64
2, 126498, Note_on_c, 0, 79, 93
2, 126504, Control_c, 0, 64, 0
2, 126504, Control_c, 0, 64, 0
2, 126532, Note_on_c, 0, 46, 93
2, 126542, Note_off_c, 0, 53, 64
2, 126558, Note_off_c, 0, 79, 64
2, 126598, Control_c, 0, 64, 127
2, 126598, Control_c, 0, 64, 127
2, 126602, Note_on_c, 0, 77, 68
2, 126670, Control_c, 0, 64, 0
2, 126670, Control_c, 0, 64, 0
2, 126704, Note_off_c, 0, 77, 64
2, 126710, Note_on_c, 0, 75, 72
2, 126754, Note_off_c, 0, 46, 64
2, 126758, Note_on_c, 0, 49, 98
2, 126826, Note_on_c, 0, 73, 72
2, 126838, Note_off_c, 0, 75, 64
2, 126938, Note_off_c, 0, 73, 64
2, 126946, Note_on_c, 0, 72, 89
2, 126972, Control_c, 0, 64, 127
2, 126974, Control_c, 0, 64, 127
2, 127030, Control_c, 0, 64, 0
2, 127030, Control_c, 0, 64, 0
2, 127048, Note_on_c, 0, 70, 64
2, 127080, Note_off_c, 0, 72, 64
2, 127162, Note_on_c, 0, 68, 62
2, 127174, Note_off_c, 0, 70, 64
2, 127210, Note_on_c, 0, 55, 72
2, 127236, Note_off_c, 0, 49, 64
2, 127274, Note_on_c, 0, 67, 80
2, 127284, Note_off_c, 0, 68, 64
2, 127410, Note_off_c, 0, 67, 64
2, 127412, Note_on_c, 0, 65, 102
2, 127446, Note_off_c, 0, 55, 64
2, 127446, Note_on_c, 0, 48, 89
2, 127448, Control_c, 0, 64, 127
2, 127448, Control_c, 0, 64, 127
2, 127476, Control_c, 0, 64, 0
2, 127476, Control_c, 0, 64, 0
2, 127522, Note_on_c, 0, 64, 51
2, 127534, Note_off_c, 0, 65, 64
2, 127632, Note_on_c, 0, 61, 68
2, 127670, Note_off_c, 0, 64, 64
2, 127676, Note_on_c, 0, 53, 93
2, 127686, Note_off_c, 0, 48, 64
2, 127756, Note_off_c, 0, 61, 64
2, 127758, Note_on_c, 0, 60, 57
2, 127854, Note_off_c, 0, 60, 64
2, 127864, Note_on_c, 0, 59, 56
2, 127914, Control_c, 0, 64, 127
2, 127914, Control_c, 0, 64, 127
2, 127968, Control_c, 0, 64, 0
2, 127970, Control_c, 0, 64, 0
2, 127980, Note_off_c, 0, 59, 64
2, 127982, Note_on_c, 0, 60, 62
2, 128090, Note_off_c, 0, 60, 64
2, 128092, Note_on_c, 0, 56, 62
2, 128092, Note_on_c, 0, 59, 56
2, 128142, Note_off_c, 0, 53, 64
2, 128204, Note_off_c, 0, 59, 64
2, 128204, Note_on_c, 0, 60, 62
2, 128260, Note_off_c, 0, 56, 64
2, 128326, Note_off_c, 0, 60, 64
2, 128326, Note_on_c, 0, 59, 68
2, 128362, Control_c, 0, 64, 127
2, 128364, Control_c, 0, 64, 127
2, 128384, Control_c, 0, 64, 0
2, 128386, Control_c, 0, 64, 0
2, 128444, Note_on_c, 0, 60, 76
2, 128454, Note_off_c, 0, 59, 64
2, 128548, Note_on_c, 0, 61, 60
2, 128550, Note_off_c, 0, 60, 64
2, 128576, Note_on_c, 0, 36, 72
2, 128666, Note_on_c, 0, 60, 80
2, 128686, Note_off_c, 0, 61, 64
2, 128748, Note_off_c, 0, 36, 64
2, 128754, Note_off_c, 0, 60, 64
2, 128784, Note_on_c, 0, 60, 51
2, 128792, Note_on_c, 0, 36, 68
2, 128900, Note_on_c, 0, 58, 68
2, 128922, Note_off_c, 0, 60, 64
2, 128970, Note_off_c, 0, 36, 64
2, 129006, Note_on_c, 0, 56, 76
2, 129026, Note_off_c, 0, 58, 64
2, 129026, Note_on_c, 0, 36, 72
2, 129122, Note_on_c, 0, 55, 72
2, 129128, Note_off_c, 0, 56, 64
2, 129222, Note_off_c, 0, 36, 64
2, 129232, Note_off_c, 0, 55, 64
2, 129236, Note_on_c, 0, 41, 64
2, 129248, Note_on_c, 0, 53, 72
2, 129280, Control_c, 0, 64, 127
2, 129280, Control_c, 0, 64, 127
2, 129402, Note_off_c, 0, 53, 64
2, 129460, Note_on_c, 0, 53, 72
2, 129468, Control_c, 0, 64, 0
2, 129468, Control_c, 0, 64, 0
2, 129480, Note_off_c, 0, 41, 64
2, 129586, Note_off_c, 0, 53, 64
2, 129692, Note_on_c, 0, 68, 80
2, 129762, Control_c, 0, 64, 127
2, 129764, Control_c, 0, 64, 127
2, 129912, Note_on_c, 0, 53, 76
2, 129914, Note_on_c, 0, 50, 76
2, 129916, Note_on_c, 0, 59, 76
2, 129974, Note_off_c, 0, 59, 64
2, 129976, Note_off_c, 0, 50, 64
2, 129978, Note_off_c, 0, 53, 64
2, 130028, Note_on_c, 0, 67, 72
2, 130040, Note_off_c, 0, 68, 64
2, 130052, Control_c, 0, 64, 0
2, 130052, Control_c, 0, 64, 0
2, 130150, Note_on_c, 0, 65, 72
2, 130162, Note_off_c, 0, 67, 64
2, 130344, Control_c, 0, 64, 127
2, 130346, Control_c, 0, 64, 127
2, 130408, Note_on_c, 0, 56, 76
2, 130412, Note_on_c, 0, 48, 76
2, 130412, Note_on_c, 0, 60, 85
2, 130412, Note_on_c, 0, 53, 89
2, 130460, Note_off_c, 0, 48, 64
2, 130468, Note_off_c, 0, 53, 64
2, 130470, Note_off_c, 0, 56, 64
2, 130474, Note_off_c, 0, 60, 64
2, 130646, Control_c, 0, 64, 0
2, 130648, Control_c, 0, 64, 0
2, 130648, Note_on_c, 0, 64, 89
2, 130654, Note_off_c, 0, 65, 64
2, 130808, Control_c, 0, 64, 127
2, 130808, Control_c, 0, 64, 127
2, 130890, Note_on_c, 0, 58, 80
2, 130894, Note_on_c, 0, 55, 72
2, 130894, Note_on_c, 0, 48, 85
2, 130940, Note_off_c, 0, 55, 64
2, 130948, Note_off_c, 0, 48, 64
2, 130948, Note_off_c, 0, 58, 64
2, 130998, Note_on_c, 0, 72, 93
2, 131010, Note_off_c, 0, 64, 64
2, 131060, Note_off_c, 0, 72, 64
2, 131064, Control_c, 0, 64, 0
2, 131066, Control_c, 0, 64, 0
2, 131116, Note_on_c, 0, 72, 107
2, 131202, Control_c, 0, 64, 127
2, 131202, Control_c, 0, 64, 127
2, 131348, Control_c, 0, 64, 0
2, 131348, Control_c, 0, 64, 0
2, 131360, Note_on_c, 0, 65, 72
2, 131368, Note_off_c, 0, 72, 64
2, 131370, Note_on_c, 0, 53, 85
2, 131374, Note_on_c, 0, 56, 76
2, 131432, Note_off_c, 0, 53, 64
2, 131440, Note_off_c, 0, 56, 64
2, 131614, Note_on_c, 0, 68, 59
2, 131632, Note_off_c, 0, 65, 64
2, 131826, Note_on_c, 0, 50, 85
2, 131828, Note_on_c, 0, 56, 72
2, 131828, Note_on_c, 0, 59, 89
2, 131828, Note_on_c, 0, 53, 89
2, 131830, Control_c, 0, 64, 127
2, 131832, Control_c, 0, 64, 127
2, 131878, Note_off_c, 0, 50, 64
2, 131882, Note_off_c, 0, 53, 64
2, 131884, Note_off_c, 0, 56, 64
2, 131892, Note_off_c, 0, 59, 64
2, 131946, Note_on_c, 0, 67, 76
2, 131964, Note_off_c, 0, 68, 64
2, 131992, Control_c, 0, 64, 0
2, 131992, Control_c, 0, 64, 0
2, 132066, Note_on_c, 0, 65, 68
2, 132076, Note_off_c, 0, 67, 64
2, 132198, Control_c, 0, 64, 127
2, 132200, Control_c, 0, 64, 127
2, 132310, Note_on_c, 0, 56, 85
2, 132312, Note_on_c, 0, 60, 89
2, 132312, Note_on_c, 0, 53, 89
2, 132318, Note_on_c, 0, 48, 89
2, 132368, Note_off_c, 0, 48, 64
2, 132372, Note_off_c, 0, 60, 64
2, 132374, Note_off_c, 0, 56, 64
2, 132378, Note_off_c, 0, 53, 64
2, 132546, Note_off_c, 0, 65, 64
2, 132548, Note_on_c, 0, 64, 93
2, 132564, Control_c, 0, 64, 0
2, 132566, Control_c, 0, 64, 0
2, 132688, Control_c, 0, 64, 127
2, 132690, Control_c, 0, 64, 127
2, 132786, Note_on_c, 0, 48, 89
2, 132788, Note_on_c, 0, 55, 89
2, 132790, Note_on_c, 0, 58, 76
2, 132840, Note_off_c, 0, 48, 64
2, 132850, Note_off_c, 0, 58, 64
2, 132856, Note_off_c, 0, 55, 64
2, 132912, Note_on_c, 0, 72, 93
2, 132922, Note_off_c, 0, 64, 64
2, 132982, Note_off_c, 0, 72, 64
2, 132986, Control_c, 0, 64, 0
2, 132986, Control_c, 0, 64, 0
2, 133020, Note_on_c, 0, 72, 89
2, 133106, Control_c, 0, 64, 127
2, 133108, Control_c, 0, 64, 127
2, 133238, Note_on_c, 0, 56, 80
2, 133240, Note_on_c, 0, 53, 93
2, 133244, Note_on_c, 0, 65, 89
2, 133250, Note_off_c, 0, 72, 64
2, 133290, Note_off_c, 0, 65, 64
2, 133290, Note_off_c, 0, 53, 64
2, 133298, Note_off_c, 0, 56, 64
2, 133420, Note_on_c, 0, 72, 80
2, 133438, Control_c, 0, 64, 0
2, 133440, Control_c, 0, 64, 0
2, 133466, Note_off_c, 0, 72, 64
2, 133468, Note_on_c, 0, 80, 102
2, 133708, Note_on_c, 0, 61, 98
2, 133708, Note_on_c, 0, 65, 93
2, 133708, Note_on_c, 0, 68, 85
2, 133708, Note_on_c, 0, 71, 98
2, 133736, Control_c, 0, 64, 127
2, 133736, Control_c, 0, 64, 127
2, 133738, Note_on_c, 0, 78, 52
2, 133752, Note_off_c, 0, 78, 64
2, 133754, Note_off_c, 0, 61, 64
2, 133758, Note_off_c, 0, 65, 64
2, 133770, Note_off_c, 0, 68, 64
2, 133776, Note_off_c, 0, 71, 64
2, 133840, Control_c, 0, 64, 0
2, 133840, Control_c, 0, 64, 0
2, 133848, Note_on_c, 0, 79, 89
2, 133880, Note_off_c, 0, 80, 64
2, 133952, Note_off_c, 0, 79, 64
2, 133956, Note_on_c, 0, 77, 85
2, 134178, Note_on_c, 0, 68, 89
2, 134180, Note_on_c, 0, 60, 89
2, 134182, Note_on_c, 0, 72, 85
2, 134182, Note_on_c, 0, 65, 98
2, 134210, Control_c, 0, 64, 127
2, 134212, Control_c, 0, 64, 127
2, 134226, Note_off_c, 0, 72, 64
2, 134232, Note_off_c, 0, 60, 64
2, 134236, Note_off_c, 0, 65, 64
2, 134236, Note_off_c, 0, 68, 64
2, 134388, Control_c, 0, 64, 0
2, 134388, Control_c, 0, 64, 0
2, 134428, Note_off_c, 0, 77, 64
2, 134428, Note_on_c, 0, 76, 107
2, 134648, Control_c, 0, 64, 127
2, 134648, Control_c, 0, 64, 127
2, 134656, Note_on_c, 0, 67, 98
2, 134658, Note_on_c, 0, 58, 98
2, 134662, Note_on_c, 0, 60, 102
2, 134706, Note_off_c, 0, 67, 64
2, 134720, Note_off_c, 0, 60, 64
2, 134724, Note_off_c, 0, 58, 64
2, 134782, Note_off_c, 0, 76, 64
2, 134782, Note_on_c, 0, 84, 98
2, 134830, Control_c, 0, 64, 0
2, 134832, Control_c, 0, 64, 0
2, 134848, Note_off_c, 0, 84, 64
2, 134898, Note_on_c, 0, 60, 102
2, 134898, Note_on_c, 0, 65, 102
2, 134900, Note_on_c, 0, 84, 113
2, 134900, Note_on_c, 0, 75, 113
2, 134900, Note_on_c, 0, 72, 107
2, 134900, Note_on_c, 0, 57, 102
2, 135338, Control_c, 0, 64, 127
2, 135340, Control_c, 0, 64, 127
2, 135632, Note_off_c, 0, 84, 64
2, 135646, Note_off_c, 0, 75, 64
2, 135672, Note_off_c, 0, 72, 64
2, 135756, Note_off_c, 0, 57, 64
2, 135762, Note_off_c, 0, 65, 64
2, 135762, Note_off_c, 0, 60, 64
2, 135892, Note_on_c, 0, 77, 68
2, 135892, Note_on_c, 0, 73, 68
2, 135892, Note_on_c, 0, 70, 51
2, 135892, Note_on_c, 0, 61, 98
2, 135894, Note_on_c, 0, 58, 98
2, 135894, Note_on_c, 0, 65, 107
2, 135932, Control_c, 0, 64, 0
2, 135934, Control_c, 0, 64, 0
2, 135986, Note_off_c, 0, 61, 64
2, 135990, Note_off_c, 0, 58, 64
2, 135996, Note_off_c, 0, 65, 64
2, 136010, Note_off_c, 0, 70, 64
2, 136014, Note_off_c, 0, 73, 64
2, 136022, Note_off_c, 0, 77, 64
2, 136726, Note_on_c, 0, 58, 93
2, 136728, Note_on_c, 0, 61, 93
2, 136728, Note_on_c, 0, 65, 85
2, 136738, Note_on_c, 0, 70, 113
2, 136740, Note_on_c, 0, 73, 107
2, 136742, Note_on_c, 0, 82, 107
2, 136770, Note_off_c, 0, 70, 64
2, 136774, Note_off_c, 0, 73, 64
2, 136780, Note_off_c, 0, 58, 64
2, 136782, Note_off_c, 0, 65, 64
2, 136786, Note_off_c, 0, 82, 64
2, 136786, Note_off_c, 0, 61, 64
2, 136824, Note_on_c, 0, 63, 102
2, 136824, Note_on_c, 0, 82, 98
2, 136824, Note_on_c, 0, 55, 119
2, 136824, Note_on_c, 0, 58, 107
2, 136826, Note_on_c, 0, 70, 119
2, 136826, Note_on_c, 0, 73, 113
2, 136848, Control_c, 0, 64, 127
2, 136848, Control_c, 0, 64, 127
2, 136922, Control_c, 0, 64, 0
2, 136922, Control_c, 0, 64, 0
2, 137088, Control_c, 0, 64, 127
2, 137090, Control_c, 0, 64, 127
2, 137624, Note_off_c, 0, 82, 64
2, 137624, Note_off_c, 0, 63, 64
2, 137626, Note_off_c, 0, 73, 64
2, 137644, Note_off_c, 0, 70, 64
2, 137758, Note_off_c, 0, 55, 64
2, 137812, Note_off_c, 0, 58, 64
2, 137816, Control_c, 0, 64, 0
2, 137818, Control_c, 0, 64, 0
2, 137830, Note_on_c, 0, 56, 93
2, 137830, Note_on_c, 0, 60, 98
2, 137830, Note_on_c, 0, 63, 64
2, 137830, Note_on_c, 0, 75, 89
2, 137832, Note_on_c, 0, 68, 93
2, 137832, Note_on_c, 0, 72, 98
2, 137902, Note_off_c, 0, 72, 64
2, 137904, Note_off_c, 0, 68, 64
2, 137910, Note_off_c, 0, 75, 64
2, 137924, Note_off_c, 0, 63, 64
2, 137930, Note_off_c, 0, 56, 64
2, 137936, Note_off_c, 0, 60, 64
2, 138570, Note_on_c, 0, 53, 107
2, 138570, Note_on_c, 0, 61, 89
2, 138570, Note_on_c, 0, 80, 98
2, 138570, Note_on_c, 0, 72, 113
2, 138570, Note_on_c, 0, 68, 113
2, 138630, Note_off_c, 0, 68, 64
2, 138630, Note_off_c, 0, 72, 64
2, 138630, Note_off_c, 0, 80, 64
2, 138630, Note_off_c, 0, 61, 64
2, 138630, Note_off_c, 0, 53, 64
2, 138780, Note_on_c, 0, 55, 98
2, 138780, Note_on_c, 0, 74, 107
2, 138780, Note_on_c, 0, 70, 102
2, 138780, Note_on_c, 0, 67, 113
2, 138780, Note_on_c, 0, 61, 93
2, 138808, Note_off_c, 0, 67, 64
2, 138808, Note_off_c, 0, 70, 64
2, 138808, Note_off_c, 0, 74, 64
2, 138840, Note_off_c, 0, 61, 64
2, 138840, Note_off_c, 0, 55, 64
2, 139020, Note_on_c, 0, 70, 93
2, 139020, Note_on_c, 0, 52, 102
2, 139020, Note_on_c, 0, 60, 93
2, 139020, Note_on_c, 0, 79, 107
2, 139020, Note_on_c, 0, 67, 98
2, 139048, Note_off_c, 0, 79, 64
2, 139048, Note_off_c, 0, 52, 64
2, 139048, Note_off_c, 0, 70, 64
2, 139080, Note_off_c, 0, 67, 64
2, 139080, Note_off_c, 0, 60, 64
2, 139230, Note_on_c, 0, 53, 107
2, 139230, Note_on_c, 0, 72, 98
2, 139230, Note_on_c, 0, 60, 102
2, 139230, Note_on_c, 0, 65, 98
2, 139230, Note_on_c, 0, 68, 98
2, 139258, Note_off_c, 0, 53, 64
2, 139290, Note_off_c, 0, 68, 64
2, 139290, Note_off_c, 0, 65, 64
2, 139290, Note_off_c, 0, 60, 64
2, 139290, Note_off_c, 0, 72, 64
2, 139440, Note_on_c, 0, 65, 98
2, 139440, Note_on_c, 0, 77, 107
2, 139440, Note_on_c, 0, 61, 98
2, 139440, Note_on_c, 0, 68, 107
2, 139440, Note_on_c, 0, 49, 98
2, 139468, Note_off_c, 0, 65, 64
2, 139500, Note_off_c, 0, 68, 64
2, 139500, Note_off_c, 0, 61, 64
2, 139530, Note_off_c, 0, 49, 64
2, 139530, Note_off_c, 0, 77, 64
2, 139680, Note_on_c, 0, 77, 107
2, 139680, Note_on_c, 0, 49, 64
2, 139680, Note_on_c, 0, 74, 93
2, 139680, Note_on_c, 0, 58, 98
2, 139680, Note_on_c, 0, 46, 85
2, 139680, Note_on_c, 0, 55, 107
2, 139680, Note_on_c, 0, 65, 107
2, 139680, Note_on_c, 0, 67, 113
2, 139708, Note_off_c, 0, 74, 64
2, 139740, Note_off_c, 0, 67, 64
2, 139740, Note_off_c, 0, 65, 64
2, 139740, Note_off_c, 0, 55, 64
2, 139740, Note_off_c, 0, 49, 64
2, 139740, Note_off_c, 0, 77, 64
2, 139770, Note_off_c, 0, 46, 64
2, 139770, Note_off_c, 0, 58, 64
2, 140160, Note_on_c, 0, 70, 107
2, 140160, Note_on_c, 0, 71, 102
2, 140160, Note_on_c, 0, 60, 107
2, 140160, Note_on_c, 0, 55, 107
2, 140160, Note_on_c, 0, 52, 113
2, 140160, Note_on_c, 0, 48, 93
2, 140160, Note_on_c, 0, 76, 107
2, 140160, Note_on_c, 0, 67, 98
2, 140160, Note_on_c, 0, 64, 76
2, 140188, Note_off_c, 0, 71, 64
2, 140220, Note_off_c, 0, 64, 64
2, 140220, Note_off_c, 0, 67, 64
2, 140220, Note_off_c, 0, 76, 64
2, 140220, Note_off_c, 0, 48, 64
2, 140220, Note_off_c, 0, 52, 64
2, 140220, Note_off_c, 0, 55, 64
2, 140220, Note_off_c, 0, 60, 64
2, 140220, Note_off_c, 0, 70, 64
2, 140670, Note_on_c, 0, 48, 102
2, 140670, Note_on_c, 0, 77, 107
2, 140670, Note_on_c, 0, 68, 107
2, 140670, Note_on_c, 0, 72, 113
2, 140670, Note_on_c, 0, 65, 113
2, 140670, Note_on_c, 0, 76, 55
2, 140670, Note_on_c, 0, 44, 85
2, 140670, Note_on_c, 0, 41, 93
2, 140670, Note_on_c, 0, 53, 102
2, 140698, Note_off_c, 0, 76, 64
2, 140730, Note_off_c, 0, 65, 64
2, 140730, Note_off_c, 0, 72, 64
2, 140730, Note_off_c, 0, 68, 64
2, 140730, Note_off_c, 0, 77, 64
2, 140760, Note_off_c, 0, 48, 64
2, 140790, Note_off_c, 0, 53, 64
2, 140820, Note_off_c, 0, 41, 64
2, 140820, Note_off_c, 0, 44, 64
2, 141120, Control_c, 0, 121, 0
2, 141120, End_track
3, 0, Start_track
3, 0, Program_c, 0, 0
3, 0, Control_c, 0, 7, 127
3, 0, Control_c, 0, 10, 64
3, 0, Control_c, 0, 121, 64
3, 0, Control_c, 0, 91, 75
3, 770, Note_on_c, 0, 60, 68
3, 984, Note_off_c, 0, 60, 64
3, 986, Note_on_c, 0, 65, 76
3, 1026, Note_off_c, 0, 65, 64
3, 1204, Note_on_c, 0, 68, 72
3, 1238, Note_off_c, 0, 68, 64
3, 1420, Note_on_c, 0, 72, 72
3, 1456, Note_off_c, 0, 72, 64
3, 1634, Note_on_c, 0, 77, 80
3, 1666, Note_off_c, 0, 77, 64
3, 1858, Note_on_c, 0, 80, 85
3, 2072, Note_on_c, 0, 56, 62
3, 2072, Note_on_c, 0, 53, 64
3, 2072, Note_on_c, 0, 60, 60
3, 2138, Note_on_c, 0, 79, 64
3, 2140, Note_off_c, 0, 80, 64
3, 2188, Note_on_c, 0, 77, 56
3, 2196, Note_off_c, 0, 79, 64
3, 2240, Note_off_c, 0, 77, 64
3, 2240, Note_on_c, 0, 76, 46
3, 2258, Note_off_c, 0, 53, 64
3, 2258, Note_off_c, 0, 56, 64
3, 2264, Note_off_c, 0, 60, 64
3, 2276, Note_off_c, 0, 76, 64
3, 2292, Note_on_c, 0, 77, 68
3, 2292, Note_on_c, 0, 56, 60
3, 2294, Note_on_c, 0, 60, 56
3, 2298, Note_on_c, 0, 53, 59
3, 2332, Note_off_c, 0, 77, 64
3, 2394, Note_off_c, 0, 56, 64
3, 2396, Note_off_c, 0, 53, 64
3, 2400, Note_off_c, 0, 60, 64
3, 2506, Note_on_c, 0, 53, 62
3, 2508, Note_on_c, 0, 56, 51
3, 2510, Note_on_c, 0, 60, 55
3, 2580, Note_off_c, 0, 56, 64
3, 2582, Note_off_c, 0, 60, 64
3, 2584, Note_off_c, 0, 53, 64
3, 2724, Note_on_c, 0, 60, 64
3, 2724, Note_on_c, 0, 52, 68
3, 2726, Note_on_c, 0, 58, 60
3, 2726, Note_on_c, 0, 67, 93
3, 2728, Note_on_c, 0, 55, 64
3, 2764, Note_off_c, 0, 67, 64
3, 2910, Note_off_c, 0, 60, 64
3, 2910, Note_off_c, 0, 58, 64
3, 2910, Note_off_c, 0, 55, 64
3, 2914, Note_off_c, 0, 52, 64
3, 2940, Note_on_c, 0, 72, 80
3, 2982, Note_off_c, 0, 72, 64
3, 3158, Note_on_c, 0, 76, 80
3, 3194, Note_off_c, 0, 76, 64
3, 3376, Note_on_c, 0, 79, 89
3, 3412, Note_off_c, 0, 79, 64
3, 3596, Note_on_c, 0, 82, 80
3, 3820, Note_on_c, 0, 60, 64
3, 3820, Note_on_c, 0, 58, 59
3, 3822, Note_on_c, 0, 55, 62
3, 3824, Note_on_c, 0, 52, 62
3, 3886, Note_on_c, 0, 80, 64
3, 3898, Note_off_c, 0, 82, 64
3, 3914, Note_off_c, 0, 58, 64
3, 3916, Note_off_c, 0, 55, 64
3, 3916, Note_off_c, 0, 52, 64
3, 3918, Note_off_c, 0, 60, 64
3, 3934, Note_off_c, 0, 80, 64
3, 3934, Note_on_c, 0, 79, 64
3, 3984, Note_off_c, 0, 79, 64
3, 3988, Note_on_c, 0, 77, 62
3, 4022, Note_on_c, 0, 60, 51
3, 4026, Note_on_c, 0, 58, 46
3, 4028, Note_off_c, 0, 77, 64
3, 4028, Note_on_c, 0, 55, 55
3, 4030, Note_on_c, 0, 52, 57
3, 4046, Note_on_c, 0, 79, 93
3, 4078, Note_off_c, 0, 79, 64
3, 4098, Note_off_c, 0, 58, 64
3, 4100, Note_off_c, 0, 52, 64
3, 4100, Note_off_c, 0, 55, 64
3, 4108, Note_off_c, 0, 60, 64
3, 4256, Note_on_c, 0, 58, 56
3, 4256, Note_on_c, 0, 60, 64
3, 4258, Note_on_c, 0, 52, 72
3, 4258, Note_on_c, 0, 55, 60
3, 4294, Note_off_c, 0, 55, 64
3, 4294, Note_off_c, 0, 60, 64
3, 4294, Note_off_c, 0, 58, 64
3, 4296, Note_off_c, 0, 52, 64
3, 4438, Note_on_c, 0, 72, 93
3, 4482, Note_off_c, 0, 72, 64
3, 4490, Note_on_c, 0, 80, 76
3, 4712, Note_on_c, 0, 60, 59
3, 4712, Note_on_c, 0, 56, 64
3, 4712, Note_on_c, 0, 53, 64
3, 4764, Note_off_c, 0, 80, 64
3, 4772, Note_on_c, 0, 79, 72
3, 4804, Note_off_c, 0, 56, 64
3, 4804, Note_off_c, 0, 60, 64
3, 4806, Note_off_c, 0, 53, 64
3, 4814, Note_on_c, 0, 77, 64
3, 4820, Note_off_c, 0, 79, 64
3, 4866, Note_off_c, 0, 77, 64
3, 4872, Note_on_c, 0, 76, 68
3, 4908, Note_off_c, 0, 76, 64
3, 4930, Note_on_c, 0, 77, 76
3, 4944, Note_on_c, 0, 60, 62
3, 4944, Note_on_c, 0, 56, 56
3, 4944, Note_on_c, 0, 53, 68
3, 4958, Note_off_c, 0, 77, 64
3, 5000, Note_off_c, 0, 56, 64
3, 5006, Note_off_c, 0, 53, 64
3, 5006, Note_off_c, 0, 60, 64
3, 5164, Note_on_c, 0, 53, 76
3, 5164, Note_on_c, 0, 60, 80
3, 5166, Note_on_c, 0, 56, 62
3, 5200, Note_off_c, 0, 60, 64
3, 5202, Note_off_c, 0, 56, 64
3, 5202, Note_off_c, 0, 53, 64
3, 5322, Note_on_c, 0, 72, 102
3, 5364, Note_off_c, 0, 72, 64
3, 5382, Note_on_c, 0, 82, 93
3, 5612, Note_on_c, 0, 55, 72
3, 5612, Note_on_c, 0, 58, 68
3, 5612, Note_on_c, 0, 64, 68
3, 5680, Note_on_c, 0, 80, 76
3, 5692, Note_off_c, 0, 82, 64
3, 5722, Note_off_c, 0, 55, 64
3, 5728, Note_on_c, 0, 79, 76
3, 5730, Note_off_c, 0, 80, 64
3, 5730, Note_off_c, 0, 58, 64
3, 5736, Note_off_c, 0, 64, 64
3, 5784, Note_on_c, 0, 77, 80
3, 5786, Note_off_c, 0, 79, 64
3, 5824, Note_off_c, 0, 77, 64
3, 5830, Note_on_c, 0, 58, 57
3, 5830, Note_on_c, 0, 64, 50
3, 5836, Note_on_c, 0, 55, 76
3, 5840, Note_on_c, 0, 79, 93
3, 5878, Note_off_c, 0, 79, 64
3, 5908, Note_off_c, 0, 58, 64
3, 5912, Note_off_c, 0, 55, 64
3, 5918, Note_off_c, 0, 64, 64
3, 6074, Note_on_c, 0, 55, 93
3, 6076, Note_on_c, 0, 58, 76
3, 6076, Note_on_c, 0, 64, 93
3, 6118, Note_off_c, 0, 64, 64
3, 6120, Note_off_c, 0, 58, 64
3, 6120, Note_off_c, 0, 55, 64
3, 6252, Note_on_c, 0, 72, 55
3, 6284, Note_on_c, 0, 77, 76
3, 6308, Note_on_c, 0, 80, 102
3, 6324, Note_on_c, 0, 84, 107
3, 6578, Note_on_c, 0, 56, 89
3, 6580, Note_on_c, 0, 60, 93
3, 6582, Note_on_c, 0, 65, 89
3, 6638, Control_c, 0, 64, 127
3, 6892, Note_on_c, 0, 82, 76
3, 6896, Note_off_c, 0, 77, 64
3, 6898, Note_off_c, 0, 72, 64
3, 6902, Note_off_c, 0, 80, 64
3, 6912, Note_off_c, 0, 84, 64
3, 6926, Control_c, 0, 64, 0
3, 6954, Note_off_c, 0, 65, 64
3, 6956, Note_off_c, 0, 60, 64
3, 6962, Note_off_c, 0, 56, 64
3, 7038, Note_on_c, 0, 80, 55
3, 7060, Note_off_c, 0, 82, 64
3, 7200, Note_on_c, 0, 79, 62
3, 7204, Note_off_c, 0, 80, 64
3, 7206, Note_on_c, 0, 58, 36
3, 7208, Note_on_c, 0, 62, 64
3, 7208, Note_on_c, 0, 67, 44
3, 7330, Control_c, 0, 64, 127
3, 7364, Note_on_c, 0, 77, 51
3, 7368, Note_off_c, 0, 79, 64
3, 7512, Control_c, 0, 64, 0
3, 7514, Note_off_c, 0, 58, 64
3, 7518, Note_off_c, 0, 62, 64
3, 7522, Note_off_c, 0, 67, 64
3, 7526, Note_off_c, 0, 77, 64
3, 7526, Note_on_c, 0, 76, 57
3, 7584, Note_on_c, 0, 77, 57
3, 7586, Note_off_c, 0, 76, 64
3, 7630, Note_off_c, 0, 77, 64
3, 7632, Note_on_c, 0, 79, 56
3, 7670, Note_on_c, 0, 77, 50
3, 7684, Note_off_c, 0, 79, 64
3, 8040, Note_on_c, 0, 76, 44
3, 8042, Note_on_c, 0, 60, 51
3, 8046, Note_on_c, 0, 67, 36
3, 8052, Note_off_c, 0, 77, 64
3, 8170, Control_c, 0, 64, 127
3, 8378, Note_off_c, 0, 67, 64
3, 8384, Note_off_c, 0, 60, 64
3, 8388, Note_off_c, 0, 76, 64
3, 8672, Control_c, 0, 64, 0
3, 8974, Note_on_c, 0, 43, 68
3, 9018, Note_off_c, 0, 43, 64
3, 9202, Note_on_c, 0, 48, 62
3, 9236, Note_off_c, 0, 48, 64
3, 9424, Note_on_c, 0, 51, 64
3, 9458, Note_off_c, 0, 51, 64
3, 9644, Note_on_c, 0, 55, 62
3, 9700, Note_off_c, 0, 55, 64
3, 9856, Note_on_c, 0, 60, 76
3, 9896, Note_off_c, 0, 60, 64
3, 10088, Note_on_c, 0, 63, 80
3, 10378, Note_off_c, 0, 63, 64
3, 10384, Note_on_c, 0, 62, 57
3, 10428, Note_on_c, 0, 60, 62
3, 10438, Note_off_c, 0, 62, 64
3, 10466, Note_on_c, 0, 59, 56
3, 10470, Note_off_c, 0, 60, 64
3, 10504, Note_off_c, 0, 59, 64
3, 10512, Note_on_c, 0, 60, 49
3, 10556, Note_off_c, 0, 60, 64
3, 10728, Note_on_c, 0, 60, 72
3, 10762, Note_off_c, 0, 60, 64
3, 10960, Note_on_c, 0, 68, 62
3, 10966, Note_on_c, 0, 60, 62
3, 10970, Note_on_c, 0, 65, 62
3, 11040, Control_c, 0, 64, 127
3, 11262, Note_on_c, 0, 75, 64
3, 11296, Control_c, 0, 64, 0
3, 11310, Note_on_c, 0, 73, 60
3, 11312, Note_off_c, 0, 75, 64
3, 11350, Note_off_c, 0, 73, 64
3, 11354, Note_on_c, 0, 72, 62
3, 11396, Note_off_c, 0, 72, 64
3, 11398, Note_on_c, 0, 73, 60
3, 11422, Note_off_c, 0, 73, 64
3, 11608, Note_on_c, 0, 73, 57
3, 11630, Note_off_c, 0, 73, 64
3, 11666, Note_off_c, 0, 65, 64
3, 11670, Note_off_c, 0, 60, 64
3, 11838, Note_on_c, 0, 73, 76
3, 11842, Note_on_c, 0, 65, 57
3, 11842, Note_on_c, 0, 58, 46
3, 11938, Control_c, 0, 64, 127
3, 12074, Note_off_c, 0, 68, 64
3, 12122, Control_c, 0, 64, 0
3, 12134, Note_on_c, 0, 70, 62
3, 12172, Note_on_c, 0, 68, 68
3, 12176, Note_off_c, 0, 70, 64
3, 12212, Note_off_c, 0, 68, 64
3, 12218, Note_on_c, 0, 67, 60
3, 12258, Note_on_c, 0, 68, 59
3, 12268, Note_off_c, 0, 67, 64
3, 12274, Note_off_c, 0, 68, 64
3, 12470, Note_on_c, 0, 68, 76
3, 12488, Note_off_c, 0, 68, 64
3, 12522, Note_off_c, 0, 58, 64
3, 12526, Note_off_c, 0, 65, 64
3, 12690, Note_on_c, 0, 67, 76
3, 12690, Note_on_c, 0, 58, 52
3, 12690, Note_on_c, 0, 63, 59
3, 12724, Control_c, 0, 64, 127
3, 12814, Note_off_c, 0, 73, 64
3, 12984, Note_on_c, 0, 75, 68
3, 13014, Note_off_c, 0, 75, 64
3, 13018, Control_c, 0, 64, 0
3, 13032, Note_on_c, 0, 73, 68
3, 13062, Note_off_c, 0, 73, 64
3, 13080, Note_on_c, 0, 72, 68
3, 13110, Note_off_c, 0, 72, 64
3, 13128, Note_on_c, 0, 73, 59
3, 13154, Note_off_c, 0, 73, 64
3, 13336, Note_on_c, 0, 73, 62
3, 13358, Note_off_c, 0, 73, 64
3, 13424, Note_off_c, 0, 63, 64
3, 13424, Note_off_c, 0, 58, 64
3, 13546, Note_off_c, 0, 67, 64
3, 13546, Note_on_c, 0, 68, 72
3, 13552, Note_on_c, 0, 56, 56
3, 13556, Note_on_c, 0, 63, 57
3, 13756, Control_c, 0, 64, 127
3, 13844, Note_on_c, 0, 73, 72
3, 13862, Control_c, 0, 64, 0
3, 13886, Note_off_c, 0, 73, 64
3, 13890, Note_on_c, 0, 72, 53
3, 13928, Note_off_c, 0, 72, 64
3, 13928, Note_on_c, 0, 71, 60
3, 13974, Note_off_c, 0, 71, 64
3, 13984, Note_on_c, 0, 72, 56
3, 14016, Note_off_c, 0, 72, 64
3, 14176, Note_on_c, 0, 72, 72
3, 14208, Note_off_c, 0, 72, 64
3, 14212, Note_off_c, 0, 68, 64
3, 14234, Note_off_c, 0, 63, 64
3, 14234, Note_off_c, 0, 56, 64
3, 14394, Note_on_c, 0, 65, 72
3, 14398, Note_on_c, 0, 72, 76
3, 14400, Note_on_c, 0, 61, 64
3, 14458, Control_c, 0, 64, 127
3, 14612, Note_on_c, 0, 70, 89
3, 14618, Note_off_c, 0, 72, 64
3, 14826, Note_off_c, 0, 61, 64
3, 14828, Note_on_c, 0, 62, 76
3, 14844, Control_c, 0, 64, 0
3, 14920, Control_c, 0, 64, 127
3, 15040, Note_off_c, 0, 70, 64
3, 15044, Control_c, 0, 64, 0
3, 15048, Note_on_c, 0, 68, 55
3, 15106, Control_c, 0, 64, 127
3, 15184, Note_off_c, 0, 68, 64
3, 15224, Note_off_c, 0, 65, 64
3, 15244, Note_off_c, 0, 62, 64
3, 15270, Control_c, 0, 64, 0
3, 15274, Note_on_c, 0, 67, 62
3, 15278, Note_on_c, 0, 63, 40
3, 15328, Control_c, 0, 64, 127
3, 15444, Note_off_c, 0, 67, 64
3, 15460, Note_off_c, 0, 63, 64
3, 15484, Control_c, 0, 64, 0
3, 15486, Note_on_c, 0, 75, 68
3, 15698, Note_on_c, 0, 73, 89
3, 15708, Note_off_c, 0, 75, 64
3, 15904, Note_off_c, 0, 73, 64
3, 15906, Note_on_c, 0, 72, 93
3, 15908, Note_on_c, 0, 60, 76
3, 15910, Note_on_c, 0, 63, 76
3, 15974, Control_c, 0, 64, 127
3, 16084, Note_off_c, 0, 60, 64
3, 16108, Note_off_c, 0, 63, 64
3, 16118, Note_on_c, 0, 61, 62
3, 16118, Note_on_c, 0, 65, 68
3, 16118, Control_c, 0, 64, 0
3, 16352, Note_on_c, 0, 70, 56
3, 16362, Note_off_c, 0, 72, 64
3, 16434, Control_c, 0, 64, 127
3, 16484, Note_off_c, 0, 61, 64
3, 16492, Note_off_c, 0, 65, 64
3, 16588, Note_on_c, 0, 65, 51
3, 16590, Control_c, 0, 64, 0
3, 16596, Note_on_c, 0, 62, 60
3, 16666, Control_c, 0, 64, 127
3, 16784, Note_off_c, 0, 70, 64
3, 16804, Control_c, 0, 64, 0
3, 16804, Note_on_c, 0, 68, 72
3, 16850, Control_c, 0, 64, 127
3, 16902, Note_off_c, 0, 68, 64
3, 16904, Note_off_c, 0, 65, 64
3, 16910, Note_off_c, 0, 62, 64
3, 17006, Control_c, 0, 64, 0
3, 17018, Note_on_c, 0, 63, 50
3, 17024, Note_on_c, 0, 67, 76
3, 17058, Control_c, 0, 64, 127
3, 17120, Note_off_c, 0, 67, 64
3, 17126, Note_off_c, 0, 63, 64
3, 17234, Control_c, 0, 64, 0
3, 17246, Note_on_c, 0, 75, 98
3, 17248, Note_on_c, 0, 63, 107
3, 17288, Control_c, 0, 64, 127
3, 17330, Note_off_c, 0, 75, 64
3, 17344, Note_off_c, 0, 63, 64
3, 17454, Control_c, 0, 64, 0
3, 17472, Note_on_c, 0, 61, 107
3, 17474, Note_on_c, 0, 73, 102
3, 17502, Control_c, 0, 64, 127
3, 17536, Note_off_c, 0, 73, 64
3, 17546, Note_off_c, 0, 61, 64
3, 17684, Control_c, 0, 64, 0
3, 17690, Note_on_c, 0, 60, 89
3, 17690, Note_on_c, 0, 51, 72
3, 17690, Note_on_c, 0, 72, 107
3, 17692, Note_on_c, 0, 48, 76
3, 17768, Control_c, 0, 64, 127
3, 17798, Note_off_c, 0, 48, 64
3, 17812, Note_off_c, 0, 51, 64
3, 17914, Control_c, 0, 64, 0
3, 17916, Note_on_c, 0, 53, 68
3, 17920, Note_on_c, 0, 49, 89
3, 17960, Control_c, 0, 64, 127
3, 17986, Note_off_c, 0, 72, 64
3, 18000, Note_off_c, 0, 60, 64
3, 18146, Control_c, 0, 64, 0
3, 18160, Note_on_c, 0, 58, 93
3, 18162, Note_on_c, 0, 70, 102
3, 18216, Control_c, 0, 64, 127
3, 18302, Note_off_c, 0, 49, 64
3, 18304, Note_off_c, 0, 53, 64
3, 18396, Control_c, 0, 64, 0
3, 18412, Note_on_c, 0, 53, 68
3, 18412, Note_on_c, 0, 50, 64
3, 18448, Control_c, 0, 64, 127
3, 18488, Note_off_c, 0, 70, 64
3, 18508, Note_off_c, 0, 58, 64
3, 18662, Control_c, 0, 64, 0
3, 18680, Note_on_c, 0, 68, 64
3, 18682, Note_on_c, 0, 56, 62
3, 18706, Control_c, 0, 64, 127
3, 18722, Note_off_c, 0, 50, 64
3, 18740, Note_off_c, 0, 53, 64
3, 18744, Note_off_c, 0, 68, 64
3, 18754, Note_off_c, 0, 56, 64
3, 18906, Control_c, 0, 64, 0
3, 18934, Note_on_c, 0, 55, 46
3, 18936, Note_on_c, 0, 67, 57
3, 18938, Note_on_c, 0, 51, 46
3, 18966, Control_c, 0, 64, 127
3, 19012, Note_off_c, 0, 55, 64
3, 19024, Note_off_c, 0, 67, 64
3, 19026, Note_off_c, 0, 51, 64
3, 19048, Note_on_c, 0, 63, 50
3, 19126, Control_c, 0, 64, 0
3, 19144, Note_on_c, 0, 51, 55
3, 19150, Note_off_c, 0, 63, 64
3, 19180, Control_c, 0, 64, 127
3, 19244, Note_on_c, 0, 63, 57
3, 19246, Note_off_c, 0, 51, 64
3, 19344, Note_on_c, 0, 51, 55
3, 19346, Note_off_c, 0, 63, 64
3, 19422, Note_off_c, 0, 51, 64
3, 19442, Note_on_c, 0, 63, 52
3, 19528, Note_off_c, 0, 63, 64
3, 19546, Note_on_c, 0, 51, 53
3, 19546, Note_on_c, 0, 76, 85
3, 19560, Control_c, 0, 64, 0
3, 19606, Control_c, 0, 64, 127
3, 19638, Note_off_c, 0, 51, 64
3, 19642, Note_on_c, 0, 63, 55
3, 19730, Note_off_c, 0, 63, 64
3, 19752, Note_on_c, 0, 75, 76
3, 19754, Note_on_c, 0, 51, 48
3, 19754, Control_c, 0, 64, 0
3, 19760, Note_off_c, 0, 76, 64
3, 19798, Control_c, 0, 64, 127
3, 19844, Note_off_c, 0, 51, 64
3, 19850, Note_on_c, 0, 63, 47
3, 19940, Note_off_c, 0, 63, 64
3, 19954, Note_on_c, 0, 73, 80
3, 19954, Note_on_c, 0, 51, 57
3, 19954, Control_c, 0, 64, 0
3, 19956, Note_off_c, 0, 75, 64
3, 20002, Control_c, 0, 64, 127
3, 20044, Note_off_c, 0, 51, 64
3, 20060, Note_on_c, 0, 63, 51
3, 20070, Note_off_c, 0, 73, 64
3, 20132, Note_off_c, 0, 63, 64
3, 20164, Note_on_c, 0, 70, 76
3, 20166, Note_on_c, 0, 51, 55
3, 20174, Control_c, 0, 64, 0
3, 20222, Control_c, 0, 64, 127
3, 20238, Note_off_c, 0, 51, 64
3, 20268, Note_on_c, 0, 63, 48
3, 20312, Note_off_c, 0, 70, 64
3, 20330, Note_off_c, 0, 63, 64
3, 20362, Note_on_c, 0, 51, 56
3, 20370, Note_on_c, 0, 67, 80
3, 20378, Control_c, 0, 64, 0
3, 20416, Control_c, 0, 64, 127
3, 20448, Note_off_c, 0, 51, 64
3, 20456, Note_off_c, 0, 67, 64
3, 20468, Note_on_c, 0, 63, 51
3, 20498, Note_off_c, 0, 63, 64
3, 20572, Control_c, 0, 64, 0
3, 20576, Note_on_c, 0, 51, 60
3, 20578, Note_on_c, 0, 64, 93
3, 20584, Note_on_c, 0, 61, 55
3, 20628, Control_c, 0, 64, 127
3, 20730, Note_off_c, 0, 51, 64
3, 20804, Control_c, 0, 64, 0
3, 20814, Note_on_c, 0, 51, 64
3, 20840, Control_c, 0, 64, 127
3, 20886, Note_off_c, 0, 51, 64
3, 20902, Note_off_c, 0, 64, 64
3, 20908, Note_on_c, 0, 63, 64
3, 20922, Note_off_c, 0, 61, 64
3, 20958, Note_off_c, 0, 63, 64
3, 20994, Control_c, 0, 64, 0
3, 21014, Note_on_c, 0, 68, 68
3, 21018, Note_on_c, 0, 51, 52
3, 21026, Note_on_c, 0, 60, 57
3, 21044, Control_c, 0, 64, 127
3, 21086, Note_off_c, 0, 68, 64
3, 21116, Note_off_c, 0, 60, 64
3, 21120, Note_on_c, 0, 63, 46
3, 21124, Note_off_c, 0, 51, 64
3, 21186, Note_off_c, 0, 63, 64
3, 21218, Control_c, 0, 64, 0
3, 21218, Note_on_c, 0, 51, 62
3, 21224, Note_on_c, 0, 76, 89
3, 21266, Control_c, 0, 64, 127
3, 21314, Note_off_c, 0, 51, 64
3, 21314, Note_on_c, 0, 63, 57
3, 21376, Note_off_c, 0, 76, 64
3, 21388, Note_off_c, 0, 63, 64
3, 21412, Note_on_c, 0, 51, 59
3, 21416, Note_on_c, 0, 75, 98
3, 21428, Control_c, 0, 64, 0
3, 21474, Control_c, 0, 64, 127
3, 21508, Note_off_c, 0, 51, 64
3, 21516, Note_on_c, 0, 63, 57
3, 21600, Note_off_c, 0, 63, 64
3, 21606, Note_off_c, 0, 75, 64
3, 21614, Note_on_c, 0, 51, 56
3, 21616, Note_on_c, 0, 73, 89
3, 21626, Control_c, 0, 64, 0
3, 21664, Control_c, 0, 64, 127
3, 21710, Note_off_c, 0, 51, 64
3, 21714, Note_off_c, 0, 73, 64
3, 21714, Note_on_c, 0, 63, 51
3, 21794, Note_off_c, 0, 63, 64
3, 21820, Note_on_c, 0, 70, 76
3, 21824, Note_on_c, 0, 51, 56
3, 21836, Control_c, 0, 64, 0
3, 21882, Control_c, 0, 64, 127
3, 21920, Note_off_c, 0, 51, 64
3, 21920, Note_on_c, 0, 63, 50
3, 21982, Note_off_c, 0, 70, 64
3, 21986, Note_off_c, 0, 63, 64
3, 22022, Note_on_c, 0, 51, 47
3, 22026, Note_on_c, 0, 67, 80
3, 22026, Control_c, 0, 64, 0
3, 22068, Control_c, 0, 64, 127
3, 22104, Note_off_c, 0, 67, 64
3, 22118, Note_off_c, 0, 51, 64
3, 22130, Note_on_c, 0, 63, 52
3, 22158, Note_off_c, 0, 63, 64
3, 22240, Note_on_c, 0, 51, 62
3, 22242, Note_on_c, 0, 64, 93
3, 22244, Note_on_c, 0, 61, 62
3, 22246, Control_c, 0, 64, 0
3, 22300, Control_c, 0, 64, 127
3, 22374, Note_off_c, 0, 51, 64
3, 22468, Control_c, 0, 64, 0
3, 22468, Note_on_c, 0, 51, 50
3, 22506, Control_c, 0, 64, 127
3, 22552, Note_off_c, 0, 51, 64
3, 22558, Note_on_c, 0, 63, 64
3, 22560, Note_off_c, 0, 64, 64
3, 22582, Note_off_c, 0, 61, 64
3, 22622, Note_off_c, 0, 63, 64
3, 22646, Control_c, 0, 64, 0
3, 22660, Note_on_c, 0, 68, 76
3, 22664, Note_on_c, 0, 51, 51
3, 22666, Note_on_c, 0, 60, 57
3, 22694, Control_c, 0, 64, 127
3, 22728, Note_off_c, 0, 68, 64
3, 22758, Note_off_c, 0, 60, 64
3, 22758, Note_on_c, 0, 63, 51
3, 22766, Note_off_c, 0, 51, 64
3, 22844, Note_off_c, 0, 63, 64
3, 22862, Note_on_c, 0, 51, 59
3, 22862, Control_c, 0, 64, 0
3, 22862, Note_on_c, 0, 76, 98
3, 22908, Control_c, 0, 64, 127
3, 22956, Note_on_c, 0, 63, 52
3, 22960, Note_off_c, 0, 51, 64
3, 23024, Note_off_c, 0, 76, 64
3, 23042, Note_off_c, 0, 63, 64
3, 23060, Note_on_c, 0, 51, 59
3, 23060, Note_on_c, 0, 75, 89
3, 23068, Control_c, 0, 64, 0
3, 23116, Control_c, 0, 64, 127
3, 23164, Note_on_c, 0, 63, 56
3, 23166, Note_off_c, 0, 51, 64
3, 23250, Note_off_c, 0, 63, 64
3, 23260, Note_off_c, 0, 75, 64
3, 23260, Note_on_c, 0, 51, 60
3, 23266, Note_on_c, 0, 73, 85
3, 23268, Control_c, 0, 64, 0
3, 23310, Control_c, 0, 64, 127
3, 23356, Note_off_c, 0, 51, 64
3, 23366, Note_on_c, 0, 63, 57
3, 23448, Note_off_c, 0, 73, 64
3, 23464, Note_on_c, 0, 70, 76
3, 23466, Note_off_c, 0, 63, 64
3, 23468, Control_c, 0, 64, 0
3, 23474, Note_on_c, 0, 61, 45
3, 23522, Control_c, 0, 64, 127
3, 23568, Note_off_c, 0, 61, 64
3, 23570, Note_on_c, 0, 63, 51
3, 23666, Control_c, 0, 64, 0
3, 23668, Note_off_c, 0, 63, 64
3, 23668, Note_off_c, 0, 70, 64
3, 23668, Note_on_c, 0, 67, 72
3, 23670, Note_on_c, 0, 61, 55
3, 23728, Control_c, 0, 64, 127
3, 23764, Note_off_c, 0, 61, 64
3, 23772, Note_on_c, 0, 63, 51
3, 23800, Note_off_c, 0, 67, 64
3, 23860, Note_off_c, 0, 63, 64
3, 23882, Control_c, 0, 64, 0
3, 23882, Note_on_c, 0, 60, 62
3, 23938, Control_c, 0, 64, 127
3, 23970, Note_off_c, 0, 60, 64
3, 23976, Note_on_c, 0, 63, 51
3, 23980, Note_on_c, 0, 67, 76
3, 24060, Control_c, 0, 64, 0
3, 24072, Note_off_c, 0, 67, 64
3, 24076, Note_off_c, 0, 63, 64
3, 24080, Note_on_c, 0, 70, 72
3, 24082, Note_on_c, 0, 60, 60
3, 24128, Control_c, 0, 64, 127
3, 24170, Note_off_c, 0, 70, 64
3, 24178, Note_off_c, 0, 60, 64
3, 24178, Note_on_c, 0, 68, 85
3, 24182, Note_on_c, 0, 63, 57
3, 24220, Note_off_c, 0, 68, 64
3, 24266, Note_off_c, 0, 63, 64
3, 24270, Control_c, 0, 64, 0
3, 24284, Note_on_c, 0, 55, 72
3, 24330, Control_c, 0, 64, 127
3, 24378, Note_off_c, 0, 55, 64
3, 24380, Note_on_c, 0, 63, 60
3, 24382, Note_on_c, 0, 69, 89
3, 24462, Control_c, 0, 64, 0
3, 24468, Note_off_c, 0, 63, 64
3, 24472, Note_off_c, 0, 69, 64
3, 24480, Note_on_c, 0, 72, 80
3, 24482, Note_on_c, 0, 55, 72
3, 24526, Control_c, 0, 64, 127
3, 24578, Note_off_c, 0, 72, 64
3, 24580, Note_on_c, 0, 70, 89
3, 24582, Note_on_c, 0, 63, 60
3, 24586, Note_off_c, 0, 55, 64
3, 24624, Note_off_c, 0, 70, 64
3, 24664, Note_off_c, 0, 63, 64
3, 24676, Control_c, 0, 64, 0
3, 24688, Note_on_c, 0, 56, 64
3, 24746, Control_c, 0, 64, 127
3, 24774, Note_on_c, 0, 63, 64
3, 24782, Note_on_c, 0, 71, 93
3, 24786, Note_off_c, 0, 56, 64
3, 24862, Note_off_c, 0, 71, 64
3, 24870, Control_c, 0, 64, 0
3, 24876, Note_off_c, 0, 63, 64
3, 24876, Note_on_c, 0, 56, 80
3, 24878, Note_on_c, 0, 73, 80
3, 24926, Control_c, 0, 64, 127
3, 24970, Note_off_c, 0, 73, 64
3, 24974, Note_off_c, 0, 56, 64
3, 24974, Note_on_c, 0, 63, 72
3, 24976, Note_on_c, 0, 72, 98
3, 25022, Note_off_c, 0, 72, 64
3, 25036, Note_off_c, 0, 63, 64
3, 25078, Note_on_c, 0, 53, 68
3, 25080, Control_c, 0, 64, 0
3, 25138, Control_c, 0, 64, 127
3, 25176, Note_on_c, 0, 62, 80
3, 25178, Note_on_c, 0, 74, 93
3, 25184, Note_off_c, 0, 53, 64
3, 25264, Note_off_c, 0, 62, 64
3, 25266, Note_off_c, 0, 74, 64
3, 25268, Control_c, 0, 64, 0
3, 25276, Note_on_c, 0, 56, 76
3, 25280, Note_on_c, 0, 80, 98
3, 25310, Control_c, 0, 64, 127
3, 25374, Note_off_c, 0, 56, 64
3, 25376, Note_on_c, 0, 62, 76
3, 25380, Note_off_c, 0, 80, 64
3, 25382, Note_on_c, 0, 74, 98
3, 25430, Note_off_c, 0, 62, 64
3, 25466, Note_off_c, 0, 74, 64
3, 25476, Control_c, 0, 64, 0
3, 25478, Note_on_c, 0, 51, 59
3, 25482, Note_on_c, 0, 75, 98
3, 25526, Control_c, 0, 64, 127
3, 25590, Note_on_c, 0, 63, 55
3, 25596, Note_off_c, 0, 51, 64
3, 25612, Note_off_c, 0, 75, 64
3, 25686, Control_c, 0, 64, 0
3, 25690, Note_off_c, 0, 63, 64
3, 25690, Note_on_c, 0, 55, 68
3, 25752, Control_c, 0, 64, 127
3, 25786, Note_off_c, 0, 55, 64
3, 25792, Note_on_c, 0, 63, 53
3, 25846, Note_off_c, 0, 63, 64
3, 25888, Note_on_c, 0, 53, 56
3, 25892, Control_c, 0, 64, 0
3, 25934, Control_c, 0, 64, 127
3, 25980, Note_on_c, 0, 62, 76
3, 25988, Note_on_c, 0, 74, 93
3, 26010, Note_off_c, 0, 53, 64
3, 26066, Note_off_c, 0, 74, 64
3, 26068, Note_off_c, 0, 62, 64
3, 26068, Control_c, 0, 64, 0
3, 26078, Note_on_c, 0, 56, 80
3, 26080, Note_on_c, 0, 80, 93
3, 26112, Control_c, 0, 64, 127
3, 26176, Note_off_c, 0, 56, 64
3, 26180, Note_off_c, 0, 80, 64
3, 26180, Note_on_c, 0, 74, 89
3, 26184, Note_on_c, 0, 62, 76
3, 26242, Note_off_c, 0, 62, 64
3, 26252, Note_off_c, 0, 74, 64
3, 26272, Control_c, 0, 64, 0
3, 26278, Note_on_c, 0, 51, 62
3, 26280, Note_on_c, 0, 75, 102
3, 26322, Control_c, 0, 64, 127
3, 26376, Note_on_c, 0, 63, 62
3, 26384, Note_off_c, 0, 51, 64
3, 26392, Note_off_c, 0, 75, 64
3, 26470, Note_off_c, 0, 63, 64
3, 26478, Note_on_c, 0, 55, 76
3, 26492, Control_c, 0, 64, 0
3, 26526, Control_c, 0, 64, 127
3, 26574, Note_off_c, 0, 55, 64
3, 26582, Note_on_c, 0, 63, 57
3, 26624, Note_off_c, 0, 63, 64
3, 26672, Note_on_c, 0, 49, 49
3, 26688, Control_c, 0, 64, 0
3, 26726, Control_c, 0, 64, 127
3, 26776, Note_off_c, 0, 49, 64
3, 26778, Note_on_c, 0, 58, 64
3, 26778, Note_on_c, 0, 79, 93
3, 26856, Note_off_c, 0, 79, 64
3, 26860, Note_off_c, 0, 58, 64
3, 26870, Control_c, 0, 64, 0
3, 26874, Note_on_c, 0, 49, 89
3, 26876, Note_on_c, 0, 88, 93
3, 26906, Control_c, 0, 64, 127
3, 26966, Note_off_c, 0, 49, 64
3, 26976, Note_off_c, 0, 88, 64
3, 26976, Note_on_c, 0, 58, 57
3, 26976, Note_on_c, 0, 79, 93
3, 27038, Note_off_c, 0, 58, 64
3, 27050, Note_off_c, 0, 79, 64
3, 27064, Control_c, 0, 64, 0
3, 27072, Note_on_c, 0, 48, 80
3, 27076, Note_on_c, 0, 80, 93
3, 27104, Control_c, 0, 64, 127
3, 27134, Note_off_c, 0, 80, 64
3, 27180, Note_on_c, 0, 56, 62
3, 27208, Note_off_c, 0, 48, 64
3, 27252, Note_off_c, 0, 56, 64
3, 27276, Note_on_c, 0, 51, 60
3, 27346, Note_off_c, 0, 51, 64
3, 27372, Note_on_c, 0, 56, 76
3, 27436, Note_off_c, 0, 56, 64
3, 27466, Control_c, 0, 64, 0
3, 27480, Note_on_c, 0, 49, 60
3, 27520, Control_c, 0, 64, 127
3, 27582, Note_on_c, 0, 58, 72
3, 27584, Note_on_c, 0, 79, 62
3, 27606, Note_off_c, 0, 49, 64
3, 27638, Note_off_c, 0, 79, 64
3, 27656, Note_off_c, 0, 58, 64
3, 27684, Control_c, 0, 64, 0
3, 27686, Note_on_c, 0, 88, 100
3, 27686, Note_on_c, 0, 52, 85
3, 27730, Control_c, 0, 64, 127
3, 27778, Note_on_c, 0, 58, 68
3, 27786, Note_off_c, 0, 52, 64
3, 27786, Note_on_c, 0, 79, 85
3, 27806, Note_off_c, 0, 88, 64
3, 27846, Note_off_c, 0, 79, 64
3, 27848, Note_off_c, 0, 58, 64
3, 27870, Control_c, 0, 64, 0
3, 27888, Note_on_c, 0, 48, 89
3, 27924, Control_c, 0, 64, 127
3, 27982, Note_on_c, 0, 79, 85
3, 27984, Note_on_c, 0, 56, 68
3, 27992, Note_off_c, 0, 48, 64
3, 28076, Control_c, 0, 64, 0
3, 28084, Note_off_c, 0, 79, 64
3, 28090, Note_off_c, 0, 56, 64
3, 28090, Note_on_c, 0, 82, 85
3, 28090, Note_on_c, 0, 51, 76
3, 28118, Control_c, 0, 64, 127
3, 28184, Note_off_c, 0, 82, 64
3, 28188, Note_on_c, 0, 80, 93
3, 28192, Note_off_c, 0, 51, 64
3, 28192, Note_on_c, 0, 56, 68
3, 28236, Note_off_c, 0, 80, 64
3, 28248, Note_off_c, 0, 56, 64
3, 28288, Control_c, 0, 64, 0
3, 28290, Note_on_c, 0, 43, 89
3, 28336, Control_c, 0, 64, 127
3, 28382, Note_off_c, 0, 43, 64
3, 28388, Note_on_c, 0, 81, 89
3, 28390, Note_on_c, 0, 55, 80
3, 28474, Control_c, 0, 64, 0
3, 28476, Note_off_c, 0, 81, 64
3, 28484, Note_off_c, 0, 55, 64
3, 28490, Note_on_c, 0, 84, 89
3, 28490, Note_on_c, 0, 51, 72
3, 28520, Control_c, 0, 64, 127
3, 28584, Note_off_c, 0, 84, 64
3, 28588, Note_on_c, 0, 82, 85
3, 28594, Note_off_c, 0, 51, 64
3, 28596, Note_on_c, 0, 55, 76
3, 28630, Note_off_c, 0, 82, 64
3, 28658, Note_off_c, 0, 55, 64
3, 28690, Control_c, 0, 64, 0
3, 28692, Note_on_c, 0, 44, 80
3, 28732, Control_c, 0, 64, 127
3, 28784, Note_off_c, 0, 44, 64
3, 28786, Note_on_c, 0, 56, 76
3, 28788, Note_on_c, 0, 83, 89
3, 28872, Note_off_c, 0, 56, 64
3, 28872, Note_off_c, 0, 83, 64
3, 28872, Control_c, 0, 64, 0
3, 28884, Note_on_c, 0, 51, 76
3, 28888, Note_on_c, 0, 85, 80
3, 28920, Control_c, 0, 64, 127
3, 28968, Note_off_c, 0, 85, 64
3, 28980, Note_on_c, 0, 84, 85
3, 28984, Note_on_c, 0, 56, 76
3, 28986, Note_off_c, 0, 51, 64
3, 29054, Note_off_c, 0, 84, 64
3, 29068, Note_off_c, 0, 56, 64
3, 29082, Note_on_c, 0, 46, 89
3, 29086, Control_c, 0, 64, 0
3, 29126, Control_c, 0, 64, 127
3, 29180, Note_on_c, 0, 58, 76
3, 29180, Note_on_c, 0, 84, 93
3, 29188, Note_off_c, 0, 46, 64
3, 29274, Note_off_c, 0, 58, 64
3, 29278, Note_off_c, 0, 84, 64
3, 29282, Control_c, 0, 64, 0
3, 29284, Note_on_c, 0, 51, 85
3, 29288, Note_on_c, 0, 89, 98
3, 29322, Control_c, 0, 64, 127
3, 29380, Note_off_c, 0, 51, 64
3, 29380, Note_on_c, 0, 87, 80
3, 29382, Note_on_c, 0, 58, 64
3, 29386, Note_off_c, 0, 89, 64
3, 29440, Note_off_c, 0, 87, 64
3, 29456, Note_off_c, 0, 58, 64
3, 29480, Note_on_c, 0, 48, 93
3, 29484, Control_c, 0, 64, 0
3, 29534, Control_c, 0, 64, 127
3, 29570, Note_on_c, 0, 86, 102
3, 29660, Note_off_c, 0, 86, 64
3, 29672, Control_c, 0, 64, 0
3, 29674, Note_on_c, 0, 51, 93
3, 29674, Note_on_c, 0, 89, 93
3, 29676, Note_off_c, 0, 48, 64
3, 29718, Control_c, 0, 64, 127
3, 29768, Note_off_c, 0, 89, 64
3, 29774, Note_on_c, 0, 87, 85
3, 29804, Control_c, 0, 64, 0
3, 29858, Control_c, 0, 64, 127
3, 29872, Note_on_c, 0, 85, 85
3, 29874, Note_off_c, 0, 87, 64
3, 29962, Note_off_c, 0, 85, 64
3, 29968, Note_on_c, 0, 84, 89
3, 30048, Control_c, 0, 64, 0
3, 30066, Note_off_c, 0, 84, 64
3, 30068, Note_on_c, 0, 56, 76
3, 30068, Note_on_c, 0, 82, 89
3, 30070, Note_off_c, 0, 51, 64
3, 30090, Control_c, 0, 64, 127
3, 30144, Note_off_c, 0, 82, 64
3, 30170, Note_on_c, 0, 80, 93
3, 30194, Note_off_c, 0, 80, 64
3, 30254, Note_off_c, 0, 56, 64
3, 30268, Note_on_c, 0, 49, 85
3, 30268, Control_c, 0, 64, 0
3, 30270, Note_on_c, 0, 79, 93
3, 30320, Control_c, 0, 64, 127
3, 30358, Note_off_c, 0, 79, 64
3, 30364, Note_on_c, 0, 77, 76
3, 30450, Note_off_c, 0, 77, 64
3, 30450, Control_c, 0, 64, 0
3, 30458, Note_off_c, 0, 49, 64
3, 30462, Note_on_c, 0, 75, 89
3, 30464, Note_on_c, 0, 53, 89
3, 30490, Control_c, 0, 64, 127
3, 30562, Note_off_c, 0, 75, 64
3, 30562, Note_on_c, 0, 73, 80
3, 30578, Note_off_c, 0, 73, 64
3, 30664, Note_on_c, 0, 72, 76
3, 30668, Control_c, 0, 64, 0
3, 30702, Control_c, 0, 64, 127
3, 30760, Note_off_c, 0, 72, 64
3, 30762, Note_on_c, 0, 70, 85
3, 30852, Control_c, 0, 64, 0
3, 30854, Note_off_c, 0, 70, 64
3, 30860, Note_on_c, 0, 68, 89
3, 30864, Note_on_c, 0, 58, 72
3, 30866, Note_off_c, 0, 53, 64
3, 30890, Control_c, 0, 64, 127
3, 30950, Note_off_c, 0, 68, 64
3, 30954, Note_on_c, 0, 67, 76
3, 30990, Note_off_c, 0, 67, 64
3, 31020, Note_off_c, 0, 58, 64
3, 31052, Control_c, 0, 64, 0
3, 31056, Note_on_c, 0, 65, 76
3, 31060, Note_on_c, 0, 51, 72
3, 31100, Control_c, 0, 64, 127
3, 31154, Note_on_c, 0, 63, 62
3, 31158, Note_off_c, 0, 65, 64
3, 31252, Note_off_c, 0, 63, 64
3, 31254, Note_off_c, 0, 51, 64
3, 31256, Note_on_c, 0, 62, 76
3, 31256, Note_on_c, 0, 56, 72
3, 31256, Control_c, 0, 64, 0
3, 31304, Control_c, 0, 64, 127
3, 31352, Note_on_c, 0, 63, 72
3, 31356, Note_off_c, 0, 62, 64
3, 31394, Control_c, 0, 64, 0
3, 31438, Control_c, 0, 64, 127
3, 31452, Note_off_c, 0, 63, 64
3, 31454, Note_on_c, 0, 62, 60
3, 31552, Note_off_c, 0, 62, 64
3, 31556, Note_on_c, 0, 63, 62
3, 31606, Note_off_c, 0, 56, 64
3, 31648, Note_off_c, 0, 63, 64
3, 31650, Note_on_c, 0, 62, 72
3, 31654, Control_c, 0, 64, 0
3, 31656, Note_on_c, 0, 60, 85
3, 31700, Control_c, 0, 64, 127
3, 31750, Note_off_c, 0, 62, 64
3, 31750, Note_on_c, 0, 63, 56
3, 31844, Note_off_c, 0, 63, 64
3, 31844, Control_c, 0, 64, 0
3, 31846, Note_off_c, 0, 60, 64
3, 31846, Note_on_c, 0, 62, 76
3, 31846, Note_on_c, 0, 61, 89
3, 31896, Control_c, 0, 64, 127
3, 31944, Note_on_c, 0, 63, 60
3, 31946, Note_off_c, 0, 62, 64
3, 32032, Control_c, 0, 64, 0
3, 32042, Note_off_c, 0, 63, 64
3, 32044, Note_on_c, 0, 65, 72
3, 32048, Note_on_c, 0, 58, 76
3, 32058, Note_off_c, 0, 61, 64
3, 32078, Control_c, 0, 64, 127
3, 32144, Note_on_c, 0, 63, 57
3, 32148, Note_off_c, 0, 65, 64
3, 32230, Control_c, 0, 64, 0
3, 32242, Note_off_c, 0, 63, 64
3, 32244, Note_on_c, 0, 62, 80
3, 32250, Note_off_c, 0, 58, 64
3, 32252, Note_on_c, 0, 55, 72
3, 32274, Control_c, 0, 64, 127
3, 32342, Note_off_c, 0, 62, 64
3, 32346, Note_on_c, 0, 63, 57
3, 32416, Control_c, 0, 64, 0
3, 32426, Note_off_c, 0, 63, 64
3, 32438, Note_on_c, 0, 65, 80
3, 32442, Note_off_c, 0, 55, 64
3, 32442, Note_on_c, 0, 49, 80
3, 32452, Control_c, 0, 64, 127
3, 32478, Note_off_c, 0, 49, 64
3, 32536, Note_on_c, 0, 63, 80
3, 32538, Note_off_c, 0, 65, 64
3, 32560, Note_off_c, 0, 63, 64
3, 32638, Note_on_c, 0, 36, 93
3, 32640, Control_c, 0, 64, 0
3, 32684, Control_c, 0, 64, 127
3, 32732, Note_on_c, 0, 84, 80
3, 32798, Note_off_c, 0, 84, 64
3, 32828, Note_off_c, 0, 36, 64
3, 32830, Control_c, 0, 64, 0
3, 32832, Note_on_c, 0, 39, 85
3, 32834, Note_on_c, 0, 89, 98
3, 32898, Control_c, 0, 64, 127
3, 32926, Note_off_c, 0, 89, 64
3, 32932, Note_on_c, 0, 87, 80
3, 33014, Control_c, 0, 64, 0
3, 33028, Note_on_c, 0, 85, 76
3, 33030, Note_off_c, 0, 87, 64
3, 33050, Control_c, 0, 64, 127
3, 33120, Note_off_c, 0, 85, 64
3, 33124, Note_on_c, 0, 84, 89
3, 33158, Note_off_c, 0, 84, 64
3, 33220, Note_on_c, 0, 82, 76
3, 33222, Control_c, 0, 64, 0
3, 33222, Note_on_c, 0, 44, 76
3, 33226, Note_off_c, 0, 39, 64
3, 33262, Control_c, 0, 64, 127
3, 33316, Note_off_c, 0, 82, 64
3, 33322, Note_on_c, 0, 80, 89
3, 33402, Note_off_c, 0, 80, 64
3, 33404, Note_off_c, 0, 44, 64
3, 33404, Control_c, 0, 64, 0
3, 33414, Note_on_c, 0, 37, 89
3, 33420, Note_on_c, 0, 79, 93
3, 33452, Control_c, 0, 64, 127
3, 33506, Note_off_c, 0, 79, 64
3, 33514, Note_on_c, 0, 77, 89
3, 33548, Note_off_c, 0, 77, 64
3, 33608, Note_on_c, 0, 75, 72
3, 33612, Control_c, 0, 64, 0
3, 33614, Note_on_c, 0, 41, 85
3, 33616, Note_off_c, 0, 37, 64
3, 33660, Control_c, 0, 64, 127
3, 33708, Note_on_c, 0, 73, 72
3, 33712, Note_off_c, 0, 75, 64
3, 33732, Control_c, 0, 64, 0
3, 33770, Control_c, 0, 64, 127
3, 33786, Note_off_c, 0, 73, 64
3, 33812, Note_on_c, 0, 72, 89
3, 33834, Note_off_c, 0, 72, 64
3, 33912, Note_on_c, 0, 70, 80
3, 33966, Note_off_c, 0, 70, 64
3, 33988, Control_c, 0, 64, 0
3, 34000, Note_on_c, 0, 68, 85
3, 34008, Note_on_c, 0, 46, 76
3, 34010, Note_off_c, 0, 41, 64
3, 34030, Control_c, 0, 64, 127
3, 34100, Note_off_c, 0, 68, 64
3, 34100, Note_on_c, 0, 67, 85
3, 34122, Note_off_c, 0, 67, 64
3, 34190, Note_off_c, 0, 46, 64
3, 34192, Note_on_c, 0, 39, 72
3, 34200, Note_on_c, 0, 65, 62
3, 34210, Control_c, 0, 64, 0
3, 34274, Control_c, 0, 64, 127
3, 34294, Note_on_c, 0, 63, 76
3, 34300, Note_off_c, 0, 65, 64
3, 34384, Note_off_c, 0, 39, 64
3, 34386, Note_off_c, 0, 63, 64
3, 34386, Note_on_c, 0, 61, 89
3, 34388, Control_c, 0, 64, 0
3, 34390, Note_on_c, 0, 44, 76
3, 34432, Control_c, 0, 64, 127
3, 34480, Note_off_c, 0, 61, 64
3, 34482, Note_on_c, 0, 60, 89
3, 34518, Note_off_c, 0, 60, 64
3, 34568, Control_c, 0, 64, 0
3, 34580, Note_on_c, 0, 58, 76
3, 34610, Control_c, 0, 64, 127
3, 34674, Note_on_c, 0, 56, 72
3, 34676, Note_off_c, 0, 58, 64
3, 34768, Note_off_c, 0, 56, 64
3, 34772, Note_off_c, 0, 44, 64
3, 34772, Note_on_c, 0, 55, 80
3, 34782, Note_on_c, 0, 48, 76
3, 34784, Control_c, 0, 64, 0
3, 34828, Control_c, 0, 64, 127
3, 34870, Note_off_c, 0, 55, 64
3, 34872, Note_on_c, 0, 53, 85
3, 34922, Note_off_c, 0, 53, 64
3, 34964, Control_c, 0, 64, 0
3, 34972, Note_off_c, 0, 48, 64
3, 34976, Note_on_c, 0, 49, 85
3, 34976, Note_on_c, 0, 51, 80
3, 35012, Control_c, 0, 64, 127
3, 35054, Note_off_c, 0, 51, 64
3, 35062, Note_on_c, 0, 53, 68
3, 35146, Note_off_c, 0, 53, 64
3, 35162, Control_c, 0, 64, 0
3, 35168, Note_on_c, 0, 55, 85
3, 35172, Note_on_c, 0, 46, 85
3, 35176, Note_off_c, 0, 49, 64
3, 35214, Control_c, 0, 64, 127
3, 35264, Note_off_c, 0, 55, 64
3, 35266, Note_on_c, 0, 56, 80
3, 35342, Control_c, 0, 64, 0
3, 35348, Note_off_c, 0, 56, 64
3, 35362, Note_off_c, 0, 46, 64
3, 35364, Note_on_c, 0, 58, 76
3, 35366, Note_on_c, 0, 43, 76
3, 35386, Control_c, 0, 64, 127
3, 35450, Note_off_c, 0, 58, 64
3, 35462, Note_on_c, 0, 60, 89
3, 35496, Note_off_c, 0, 60, 64
3, 35540, Note_off_c, 0, 43, 64
3, 35546, Control_c, 0, 64, 0
3, 35556, Note_on_c, 0, 39, 72
3, 35562, Note_on_c, 0, 61, 89
3, 35584, Control_c, 0, 64, 127
3, 35654, Note_off_c, 0, 61, 64
3, 35660, Note_on_c, 0, 58, 76
3, 35718, Note_off_c, 0, 58, 64
3, 35722, Note_off_c, 0, 39, 64
3, 35726, Control_c, 0, 64, 0
3, 35758, Note_on_c, 0, 56, 98
3, 35762, Note_on_c, 0, 44, 85
3, 35780, Control_c, 0, 64, 127
3, 35822, Note_off_c, 0, 56, 64
3, 35864, Note_off_c, 0, 44, 64
3, 35962, Control_c, 0, 64, 0
3, 35962, Note_on_c, 0, 56, 107
3, 35996, Control_c, 0, 64, 127
3, 36112, Note_off_c, 0, 56, 64
3, 36128, Control_c, 0, 64, 0
3, 36134, Note_on_c, 0, 62, 107
3, 36162, Note_off_c, 0, 62, 64
3, 36164, Note_on_c, 0, 71, 89
3, 36354, Note_on_c, 0, 59, 93
3, 36356, Note_on_c, 0, 50, 93
3, 36356, Note_on_c, 0, 53, 89
3, 36358, Note_on_c, 0, 56, 85
3, 36386, Note_off_c, 0, 50, 64
3, 36386, Note_off_c, 0, 59, 64
3, 36390, Note_off_c, 0, 56, 64
3, 36390, Note_off_c, 0, 53, 64
3, 36434, Note_off_c, 0, 71, 64
3, 36454, Note_on_c, 0, 70, 89
3, 36490, Note_off_c, 0, 70, 64
3, 36556, Note_on_c, 0, 68, 113
3, 36752, Note_on_c, 0, 51, 93
3, 36752, Note_on_c, 0, 56, 93
3, 36752, Note_on_c, 0, 60, 107
3, 36776, Note_off_c, 0, 60, 64
3, 36780, Note_off_c, 0, 56, 64
3, 36780, Note_off_c, 0, 51, 64
3, 36940, Note_off_c, 0, 68, 64
3, 36946, Note_on_c, 0, 67, 107
3, 37134, Note_on_c, 0, 61, 80
3, 37134, Note_on_c, 0, 58, 76
3, 37136, Note_on_c, 0, 51, 85
3, 37146, Control_c, 0, 64, 127
3, 37220, Note_off_c, 0, 51, 64
3, 37224, Note_off_c, 0, 61, 64
3, 37226, Note_off_c, 0, 58, 64
3, 37236, Note_on_c, 0, 75, 102
3, 37238, Control_c, 0, 64, 0
3, 37242, Note_off_c, 0, 67, 64
3, 37282, Note_off_c, 0, 75, 64
3, 37334, Note_on_c, 0, 75, 102
3, 37512, Note_off_c, 0, 75, 64
3, 37516, Note_on_c, 0, 68, 98
3, 37520, Note_on_c, 0, 56, 89
3, 37520, Note_on_c, 0, 60, 93
3, 37608, Note_off_c, 0, 68, 64
3, 37622, Note_off_c, 0, 60, 64
3, 37624, Note_off_c, 0, 56, 64
3, 37676, Note_on_c, 0, 62, 113
3, 37702, Note_off_c, 0, 62, 64
3, 37714, Note_on_c, 0, 71, 102
3, 37904, Note_on_c, 0, 50, 93
3, 37904, Note_on_c, 0, 59, 93
3, 37904, Note_on_c, 0, 53, 80
3, 37904, Note_on_c, 0, 56, 93
3, 37934, Note_off_c, 0, 59, 64
3, 37940, Note_off_c, 0, 56, 64
3, 37940, Note_off_c, 0, 53, 64
3, 37940, Note_off_c, 0, 50, 64
3, 38000, Note_on_c, 0, 70, 80
3, 38008, Note_off_c, 0, 71, 64
3, 38058, Note_off_c, 0, 70, 64
3, 38104, Note_on_c, 0, 68, 107
3, 38292, Note_on_c, 0, 56, 85
3, 38294, Note_on_c, 0, 51, 89
3, 38294, Note_on_c, 0, 60, 93
3, 38336, Note_off_c, 0, 60, 64
3, 38336, Note_off_c, 0, 51, 64
3, 38340, Note_off_c, 0, 56, 64
3, 38478, Note_off_c, 0, 68, 64
3, 38488, Note_on_c, 0, 67, 98
3, 38678, Note_on_c, 0, 61, 107
3, 38678, Note_on_c, 0, 58, 98
3, 38680, Note_on_c, 0, 51, 93
3, 38714, Note_off_c, 0, 61, 64
3, 38716, Note_off_c, 0, 51, 64
3, 38716, Note_off_c, 0, 58, 64
3, 38770, Note_on_c, 0, 75, 89
3, 38776, Note_off_c, 0, 67, 64
3, 38810, Note_off_c, 0, 75, 64
3, 38870, Note_on_c, 0, 75, 107
3, 39052, Note_on_c, 0, 60, 98
3, 39054, Note_on_c, 0, 56, 85
3, 39054, Note_on_c, 0, 68, 102
3, 39056, Note_off_c, 0, 75, 64
3, 39060, Control_c, 0, 64, 127
3, 39088, Note_off_c, 0, 68, 64
3, 39100, Note_off_c, 0, 60, 64
3, 39102, Note_off_c, 0, 56, 64
3, 39192, Control_c, 0, 64, 0
3, 39204, Note_on_c, 0, 74, 107
3, 39230, Note_off_c, 0, 74, 64
3, 39244, Note_on_c, 0, 83, 102
3, 39440, Note_on_c, 0, 62, 98
3, 39442, Note_on_c, 0, 68, 93
3, 39444, Note_on_c, 0, 65, 98
3, 39476, Note_off_c, 0, 65, 64
3, 39476, Note_off_c, 0, 68, 64
3, 39478, Note_off_c, 0, 62, 64
3, 39514, Note_off_c, 0, 83, 64
3, 39538, Note_on_c, 0, 82, 98
3, 39580, Note_off_c, 0, 82, 64
3, 39632, Note_on_c, 0, 80, 113
3, 39828, Note_on_c, 0, 68, 93
3, 39828, Note_on_c, 0, 72, 98
3, 39828, Note_on_c, 0, 63, 93
3, 39854, Note_off_c, 0, 72, 64
3, 39860, Note_off_c, 0, 63, 64
3, 39864, Note_off_c, 0, 68, 64
3, 39974, Note_off_c, 0, 80, 64
3, 40020, Note_on_c, 0, 79, 113
3, 40214, Note_on_c, 0, 73, 93
3, 40214, Note_on_c, 0, 63, 89
3, 40214, Note_on_c, 0, 70, 89
3, 40242, Note_off_c, 0, 73, 64
3, 40246, Note_off_c, 0, 70, 64
3, 40250, Note_off_c, 0, 63, 64
3, 40282, Note_off_c, 0, 79, 64
3, 40312, Note_on_c, 0, 87, 85
3, 40348, Note_off_c, 0, 87, 64
3, 40442, Note_on_c, 0, 87, 98
3, 40444, Note_on_c, 0, 79, 102
3, 40444, Note_on_c, 0, 73, 107
3, 40444, Note_on_c, 0, 56, 89
3, 40444, Note_on_c, 0, 61, 93
3, 40444, Note_on_c, 0, 63, 85
3, 40446, Note_on_c, 0, 67, 93
3, 41026, Control_c, 0, 64, 127
3, 41192, Note_off_c, 0, 87, 64
3, 41198, Note_off_c, 0, 79, 64
3, 41212, Note_off_c, 0, 73, 64
3, 41234, Note_off_c, 0, 61, 64
3, 41238, Note_off_c, 0, 63, 64
3, 41242, Note_off_c, 0, 67, 64
3, 41246, Note_off_c, 0, 56, 64
3, 41412, Note_on_c, 0, 68, 28
3, 41414, Note_on_c, 0, 56, 36
3, 41414, Note_on_c, 0, 80, 51
3, 41414, Note_on_c, 0, 60, 35
3, 41414, Note_on_c, 0, 75, 56
3, 41414, Note_on_c, 0, 72, 37
3, 41416, Note_on_c, 0, 63, 47
3, 41438, Control_c, 0, 64, 0
3, 41500, Control_c, 0, 64, 127
3, 41600, Note_off_c, 0, 60, 64
3, 41616, Note_off_c, 0, 63, 64
3, 41620, Note_off_c, 0, 56, 64
3, 41622, Note_off_c, 0, 68, 64
3, 41624, Note_off_c, 0, 72, 64
3, 41626, Note_off_c, 0, 75, 64
3, 41628, Note_off_c, 0, 80, 64
3, 41726, Control_c, 0, 64, 0
3, 42290, Note_on_c, 0, 63, 64
3, 42532, Note_on_c, 0, 68, 76
3, 42544, Note_off_c, 0, 63, 64
3, 42584, Note_off_c, 0, 68, 64
3, 42776, Note_on_c, 0, 72, 72
3, 42816, Note_off_c, 0, 72, 64
3, 43008, Note_on_c, 0, 75, 76
3, 43044, Note_off_c, 0, 75, 64
3, 43232, Note_on_c, 0, 80, 72
3, 43266, Note_off_c, 0, 80, 64
3, 43476, Note_on_c, 0, 84, 72
3, 43700, Note_on_c, 0, 56, 64
3, 43704, Note_on_c, 0, 63, 36
3, 43706, Note_on_c, 0, 60, 62
3, 43812, Note_on_c, 0, 82, 72
3, 43844, Note_off_c, 0, 84, 64
3, 43868, Note_on_c, 0, 80, 60
3, 43878, Note_off_c, 0, 60, 64
3, 43884, Note_off_c, 0, 82, 64
3, 43884, Note_off_c, 0, 56, 64
3, 43886, Note_off_c, 0, 63, 64
3, 43930, Note_on_c, 0, 63, 50
3, 43932, Note_off_c, 0, 80, 64
3, 43932, Note_on_c, 0, 79, 53
3, 43934, Note_on_c, 0, 56, 50
3, 43934, Note_on_c, 0, 60, 49
3, 43982, Note_on_c, 0, 80, 59
3, 43984, Note_off_c, 0, 79, 64
3, 44050, Note_off_c, 0, 80, 64
3, 44052, Note_off_c, 0, 60, 64
3, 44064, Note_off_c, 0, 56, 64
3, 44064, Note_off_c, 0, 63, 64
3, 44184, Note_on_c, 0, 56, 59
3, 44188, Note_on_c, 0, 63, 50
3, 44192, Note_on_c, 0, 60, 62
3, 44274, Note_off_c, 0, 60, 64
3, 44276, Note_off_c, 0, 63, 64
3, 44286, Note_off_c, 0, 56, 64
3, 44390, Note_on_c, 0, 73, 72
3, 44438, Note_off_c, 0, 73, 64
3, 44456, Note_on_c, 0, 85, 76
3, 44664, Note_on_c, 0, 55, 62
3, 44666, Note_on_c, 0, 61, 59
3, 44666, Note_on_c, 0, 63, 49
3, 44672, Note_on_c, 0, 58, 52
3, 44742, Note_off_c, 0, 58, 64
3, 44742, Note_off_c, 0, 61, 64
3, 44756, Note_off_c, 0, 63, 64
3, 44768, Note_off_c, 0, 55, 64
3, 44774, Note_on_c, 0, 84, 76
3, 44794, Note_off_c, 0, 85, 64
3, 44822, Note_on_c, 0, 82, 56
3, 44844, Note_off_c, 0, 84, 64
3, 44882, Note_on_c, 0, 81, 72
3, 44886, Note_off_c, 0, 82, 64
3, 44902, Note_on_c, 0, 63, 56
3, 44904, Note_on_c, 0, 55, 76
3, 44908, Note_on_c, 0, 61, 62
3, 44910, Note_on_c, 0, 58, 55
3, 44944, Note_off_c, 0, 81, 64
3, 44946, Note_on_c, 0, 82, 62
3, 44960, Note_off_c, 0, 58, 64
3, 44970, Note_off_c, 0, 61, 64
3, 44980, Note_off_c, 0, 63, 64
3, 45000, Note_off_c, 0, 55, 64
3, 45002, Note_off_c, 0, 82, 64
3, 45150, Note_on_c, 0, 55, 80
3, 45154, Note_on_c, 0, 58, 50
3, 45154, Note_on_c, 0, 63, 60
3, 45158, Note_on_c, 0, 61, 72
3, 45178, Note_off_c, 0, 58, 64
3, 45206, Note_off_c, 0, 61, 64
3, 45220, Note_off_c, 0, 55, 64
3, 45232, Note_off_c, 0, 63, 64
3, 45422, Note_on_c, 0, 70, 62
3, 45476, Note_off_c, 0, 70, 64
3, 45648, Note_on_c, 0, 73, 64
3, 45680, Note_off_c, 0, 73, 64
3, 45880, Note_on_c, 0, 79, 76
3, 45924, Note_off_c, 0, 79, 64
3, 46098, Note_on_c, 0, 82, 76
3, 46138, Note_off_c, 0, 82, 64
3, 46274, Note_on_c, 0, 73, 64
3, 46320, Note_off_c, 0, 73, 64
3, 46328, Note_on_c, 0, 85, 68
3, 46546, Note_on_c, 0, 61, 64
3, 46546, Note_on_c, 0, 58, 60
3, 46548, Note_on_c, 0, 55, 64
3, 46548, Note_on_c, 0, 64, 57
3, 46620, Note_off_c, 0, 58, 64
3, 46620, Note_off_c, 0, 61, 64
3, 46638, Note_off_c, 0, 64, 64
3, 46642, Note_on_c, 0, 84, 68
3, 46646, Note_off_c, 0, 55, 64
3, 46656, Note_off_c, 0, 85, 64
3, 46672, Note_off_c, 0, 84, 64
3, 46688, Note_on_c, 0, 82, 56
3, 46748, Note_on_c, 0, 81, 72
3, 46750, Note_off_c, 0, 82, 64
3, 46774, Note_on_c, 0, 55, 76
3, 46776, Note_on_c, 0, 64, 64
3, 46778, Note_on_c, 0, 61, 62
3, 46780, Note_on_c, 0, 58, 57
3, 46804, Note_off_c, 0, 81, 64
3, 46806, Note_on_c, 0, 82, 64
3, 46830, Note_off_c, 0, 61, 64
3, 46832, Note_off_c, 0, 58, 64
3, 46844, Note_off_c, 0, 64, 64
3, 46852, Note_off_c, 0, 82, 64
3, 46854, Note_off_c, 0, 55, 64
3, 47010, Note_on_c, 0, 55, 62
3, 47016, Note_on_c, 0, 64, 64
3, 47016, Note_on_c, 0, 58, 56
3, 47018, Note_on_c, 0, 61, 64
3, 47064, Note_off_c, 0, 58, 64
3, 47074, Note_off_c, 0, 61, 64
3, 47084, Note_off_c, 0, 55, 64
3, 47084, Note_off_c, 0, 64, 64
3, 47214, Note_on_c, 0, 73, 85
3, 47256, Note_off_c, 0, 73, 64
3, 47276, Note_on_c, 0, 85, 62
3, 47478, Note_on_c, 0, 54, 60
3, 47482, Note_on_c, 0, 64, 68
3, 47484, Note_on_c, 0, 61, 68
3, 47484, Note_on_c, 0, 58, 60
3, 47552, Note_off_c, 0, 58, 64
3, 47556, Note_off_c, 0, 61, 64
3, 47566, Note_off_c, 0, 64, 64
3, 47566, Note_off_c, 0, 54, 64
3, 47590, Note_on_c, 0, 84, 64
3, 47614, Note_off_c, 0, 85, 64
3, 47636, Note_on_c, 0, 82, 50
3, 47654, Note_off_c, 0, 84, 64
3, 47688, Note_on_c, 0, 81, 59
3, 47692, Note_off_c, 0, 82, 64
3, 47716, Note_on_c, 0, 54, 62
3, 47720, Note_on_c, 0, 64, 76
3, 47722, Note_on_c, 0, 61, 68
3, 47724, Note_on_c, 0, 58, 64
3, 47746, Note_off_c, 0, 81, 64
3, 47748, Note_on_c, 0, 82, 76
3, 47762, Note_off_c, 0, 58, 64
3, 47766, Note_off_c, 0, 61, 64
3, 47778, Note_off_c, 0, 54, 64
3, 47786, Note_off_c, 0, 64, 64
3, 47788, Note_off_c, 0, 82, 64
3, 47948, Note_on_c, 0, 54, 57
3, 47956, Note_on_c, 0, 61, 60
3, 47956, Note_on_c, 0, 64, 68
3, 47958, Note_on_c, 0, 58, 56
3, 48008, Note_off_c, 0, 54, 64
3, 48016, Note_off_c, 0, 64, 64
3, 48016, Note_off_c, 0, 61, 64
3, 48018, Note_off_c, 0, 58, 64
3, 48180, Note_on_c, 0, 81, 98
3, 48180, Note_on_c, 0, 53, 71
3, 48240, Note_off_c, 0, 53, 64
3, 48242, Control_c, 0, 64, 127
3, 48242, Control_c, 0, 64, 127
3, 48316, Note_on_c, 0, 65, 49
3, 48360, Note_off_c, 0, 81, 64
3, 48426, Note_off_c, 0, 65, 64
3, 48426, Note_on_c, 0, 53, 51
3, 48530, Note_off_c, 0, 53, 64
3, 48548, Note_on_c, 0, 65, 49
3, 48644, Note_off_c, 0, 65, 64
3, 48656, Note_on_c, 0, 53, 44
3, 48674, Control_c, 0, 64, 0
3, 48674, Control_c, 0, 64, 0
3, 48772, Note_off_c, 0, 53, 64
3, 48772, Control_c, 0, 64, 127
3, 48774, Control_c, 0, 64, 127
3, 48780, Note_on_c, 0, 65, 45
3, 48870, Note_off_c, 0, 65, 64
3, 48884, Note_on_c, 0, 53, 44
3, 48912, Note_on_c, 0, 78, 52
3, 48988, Note_off_c, 0, 53, 64
3, 49004, Note_on_c, 0, 65, 45
3, 49104, Note_off_c, 0, 65, 64
3, 49118, Note_on_c, 0, 53, 47
3, 49146, Control_c, 0, 64, 0
3, 49146, Control_c, 0, 64, 0
3, 49156, Note_on_c, 0, 77, 52
3, 49182, Note_off_c, 0, 78, 64
3, 49208, Control_c, 0, 64, 127
3, 49208, Control_c, 0, 64, 127
3, 49228, Note_off_c, 0, 53, 64
3, 49238, Note_on_c, 0, 65, 51
3, 49338, Note_off_c, 0, 65, 64
3, 49352, Note_on_c, 0, 53, 49
3, 49378, Note_on_c, 0, 75, 62
3, 49380, Note_off_c, 0, 77, 64
3, 49440, Note_off_c, 0, 53, 64
3, 49478, Note_on_c, 0, 65, 45
3, 49558, Note_off_c, 0, 65, 64
3, 49586, Note_on_c, 0, 53, 51
3, 49606, Note_on_c, 0, 72, 76
3, 49610, Note_off_c, 0, 75, 64
3, 49694, Note_off_c, 0, 53, 64
3, 49724, Note_on_c, 0, 65, 51
3, 49790, Note_off_c, 0, 65, 64
3, 49836, Note_on_c, 0, 69, 80
3, 49838, Note_on_c, 0, 53, 44
3, 49842, Note_off_c, 0, 72, 64
3, 49920, Note_on_c, 0, 65, 41
3, 49928, Note_off_c, 0, 53, 64
3, 49968, Note_off_c, 0, 65, 64
3, 50054, Control_c, 0, 64, 0
3, 50056, Control_c, 0, 64, 0
3, 50074, Note_on_c, 0, 53, 68
3, 50074, Note_on_c, 0, 63, 78
3, 50074, Note_on_c, 0, 66, 89
3, 50080, Note_off_c, 0, 69, 64
3, 50140, Control_c, 0, 64, 127
3, 50140, Control_c, 0, 64, 127
3, 50248, Note_off_c, 0, 53, 64
3, 50308, Note_on_c, 0, 53, 57
3, 50372, Note_off_c, 0, 53, 64
3, 50420, Note_off_c, 0, 66, 64
3, 50426, Note_on_c, 0, 65, 64
3, 50452, Note_off_c, 0, 63, 64
3, 50526, Control_c, 0, 64, 0
3, 50526, Control_c, 0, 64, 0
3, 50534, Note_on_c, 0, 53, 54
3, 50548, Note_on_c, 0, 61, 54
3, 50550, Note_on_c, 0, 70, 57
3, 50560, Note_off_c, 0, 65, 64
3, 50598, Control_c, 0, 64, 127
3, 50600, Control_c, 0, 64, 127
3, 50630, Note_off_c, 0, 61, 64
3, 50654, Note_off_c, 0, 53, 64
3, 50656, Note_on_c, 0, 65, 49
3, 50710, Note_off_c, 0, 70, 64
3, 50720, Note_off_c, 0, 65, 64
3, 50746, Control_c, 0, 64, 0
3, 50746, Control_c, 0, 64, 0
3, 50758, Note_on_c, 0, 53, 44
3, 50786, Note_on_c, 0, 78, 60
3, 50860, Control_c, 0, 64, 127
3, 50860, Control_c, 0, 64, 127
3, 50878, Note_off_c, 0, 53, 64
3, 50888, Note_on_c, 0, 65, 45
3, 50980, Note_off_c, 0, 65, 64
3, 50990, Note_on_c, 0, 53, 48
3, 51012, Control_c, 0, 64, 0
3, 51012, Control_c, 0, 64, 0
3, 51020, Note_on_c, 0, 77, 62
3, 51034, Note_off_c, 0, 78, 64
3, 51104, Control_c, 0, 64, 127
3, 51104, Control_c, 0, 64, 127
3, 51106, Note_off_c, 0, 53, 64
3, 51116, Note_on_c, 0, 65, 51
3, 51202, Note_off_c, 0, 65, 64
3, 51222, Note_on_c, 0, 53, 42
3, 51228, Control_c, 0, 64, 0
3, 51230, Control_c, 0, 64, 0
3, 51242, Note_on_c, 0, 75, 68
3, 51260, Note_off_c, 0, 77, 64
3, 51314, Control_c, 0, 64, 127
3, 51316, Control_c, 0, 64, 127
3, 51340, Note_off_c, 0, 53, 64
3, 51344, Note_on_c, 0, 65, 49
3, 51416, Note_off_c, 0, 65, 64
3, 51454, Note_on_c, 0, 53, 45
3, 51476, Note_on_c, 0, 72, 72
3, 51480, Note_off_c, 0, 75, 64
3, 51482, Control_c, 0, 64, 0
3, 51484, Control_c, 0, 64, 0
3, 51566, Control_c, 0, 64, 127
3, 51566, Control_c, 0, 64, 127
3, 51570, Note_off_c, 0, 53, 64
3, 51582, Note_on_c, 0, 65, 44
3, 51658, Note_off_c, 0, 65, 64
3, 51692, Note_on_c, 0, 53, 44
3, 51712, Note_on_c, 0, 69, 85
3, 51714, Note_off_c, 0, 72, 64
3, 51786, Note_off_c, 0, 53, 64
3, 51814, Note_on_c, 0, 65, 45
3, 51868, Note_off_c, 0, 65, 64
3, 51900, Control_c, 0, 64, 0
3, 51900, Control_c, 0, 64, 0
3, 51932, Note_on_c, 0, 53, 71
3, 51938, Note_on_c, 0, 66, 89
3, 51938, Note_on_c, 0, 63, 74
3, 51960, Note_off_c, 0, 69, 64
3, 51976, Control_c, 0, 64, 127
3, 51976, Control_c, 0, 64, 127
3, 52106, Note_off_c, 0, 53, 64
3, 52180, Note_on_c, 0, 53, 48
3, 52208, Note_off_c, 0, 63, 64
3, 52244, Note_off_c, 0, 53, 64
3, 52292, Note_off_c, 0, 66, 64
3, 52310, Note_on_c, 0, 65, 56
3, 52376, Control_c, 0, 64, 0
3, 52376, Control_c, 0, 64, 0
3, 52418, Note_on_c, 0, 53, 51
3, 52424, Note_on_c, 0, 61, 57
3, 52438, Note_on_c, 0, 70, 50
3, 52440, Note_off_c, 0, 65, 64
3, 52464, Control_c, 0, 64, 127
3, 52464, Control_c, 0, 64, 127
3, 52488, Note_off_c, 0, 61, 64
3, 52532, Note_off_c, 0, 53, 64
3, 52534, Note_on_c, 0, 65, 48
3, 52570, Note_off_c, 0, 70, 64
3, 52632, Note_off_c, 0, 65, 64
3, 52646, Control_c, 0, 64, 0
3, 52646, Control_c, 0, 64, 0
3, 52648, Note_on_c, 0, 53, 48
3, 52656, Note_on_c, 0, 78, 62
3, 52756, Note_off_c, 0, 53, 64
3, 52760, Control_c, 0, 64, 127
3, 52760, Control_c, 0, 64, 127
3, 52764, Note_on_c, 0, 65, 49
3, 52866, Note_off_c, 0, 65, 64
3, 52876, Note_on_c, 0, 53, 49
3, 52880, Control_c, 0, 64, 0
3, 52880, Control_c, 0, 64, 0
3, 52884, Note_on_c, 0, 77, 80
3, 52892, Note_off_c, 0, 78, 64
3, 52960, Control_c, 0, 64, 127
3, 52960, Control_c, 0, 64, 127
3, 52988, Note_off_c, 0, 53, 64
3, 52994, Note_on_c, 0, 65, 51
3, 53098, Control_c, 0, 64, 0
3, 53100, Control_c, 0, 64, 0
3, 53102, Note_off_c, 0, 65, 64
3, 53108, Note_on_c, 0, 53, 44
3, 53114, Note_on_c, 0, 75, 89
3, 53128, Note_off_c, 0, 77, 64
3, 53172, Control_c, 0, 64, 127
3, 53172, Control_c, 0, 64, 127
3, 53214, Note_off_c, 0, 53, 64
3, 53226, Note_on_c, 0, 65, 57
3, 53300, Control_c, 0, 64, 0
3, 53300, Control_c, 0, 64, 0
3, 53342, Note_on_c, 0, 63, 48
3, 53346, Note_off_c, 0, 65, 64
3, 53352, Note_off_c, 0, 75, 64
3, 53352, Note_on_c, 0, 72, 76
3, 53428, Control_c, 0, 64, 127
3, 53428, Control_c, 0, 64, 127
3, 53456, Note_off_c, 0, 63, 64
3, 53460, Note_on_c, 0, 65, 48
3, 53578, Note_on_c, 0, 63, 48
3, 53580, Note_off_c, 0, 65, 64
3, 53590, Note_off_c, 0, 72, 64
3, 53592, Note_on_c, 0, 69, 64
3, 53678, Control_c, 0, 64, 0
3, 53678, Control_c, 0, 64, 0
3, 53690, Note_off_c, 0, 63, 64
3, 53696, Note_on_c, 0, 65, 57
3, 53792, Note_off_c, 0, 69, 64
3, 53814, Note_off_c, 0, 65, 64
3, 53816, Note_on_c, 0, 61, 44
3, 53836, Control_c, 0, 64, 127
3, 53836, Control_c, 0, 64, 127
3, 53892, Control_c, 0, 64, 0
3, 53892, Control_c, 0, 64, 0
3, 53928, Note_off_c, 0, 61, 64
3, 53928, Note_on_c, 0, 65, 49
3, 53940, Note_on_c, 0, 69, 50
3, 53976, Control_c, 0, 64, 127
3, 53978, Control_c, 0, 64, 127
3, 54050, Note_off_c, 0, 65, 64
3, 54052, Note_on_c, 0, 61, 47
3, 54064, Note_on_c, 0, 72, 60
3, 54068, Control_c, 0, 64, 0
3, 54068, Control_c, 0, 64, 0
3, 54080, Note_off_c, 0, 69, 64
3, 54144, Control_c, 0, 64, 127
3, 54146, Control_c, 0, 64, 127
3, 54156, Note_off_c, 0, 61, 64
3, 54162, Note_on_c, 0, 65, 51
3, 54184, Note_on_c, 0, 70, 56
3, 54196, Note_off_c, 0, 72, 64
3, 54200, Control_c, 0, 64, 0
3, 54200, Control_c, 0, 64, 0
3, 54260, Note_off_c, 0, 70, 64
3, 54284, Note_off_c, 0, 65, 64
3, 54290, Note_on_c, 0, 60, 49
3, 54398, Note_off_c, 0, 60, 64
3, 54398, Note_on_c, 0, 65, 57
3, 54422, Note_on_c, 0, 70, 62
3, 54526, Note_off_c, 0, 65, 64
3, 54528, Note_on_c, 0, 60, 57
3, 54536, Note_on_c, 0, 73, 76
3, 54554, Note_off_c, 0, 70, 64
3, 54596, Control_c, 0, 64, 127
3, 54596, Control_c, 0, 64, 127
3, 54642, Note_off_c, 0, 60, 64
3, 54642, Note_on_c, 0, 65, 57
3, 54652, Note_on_c, 0, 72, 89
3, 54656, Note_off_c, 0, 73, 64
3, 54720, Control_c, 0, 64, 0
3, 54722, Control_c, 0, 64, 0
3, 54728, Note_off_c, 0, 72, 64
3, 54756, Note_off_c, 0, 65, 64
3, 54768, Note_on_c, 0, 58, 49
3, 54828, Control_c, 0, 64, 127
3, 54828, Control_c, 0, 64, 127
3, 54876, Note_off_c, 0, 58, 64
3, 54882, Note_on_c, 0, 65, 60
3, 54884, Note_on_c, 0, 72, 80
3, 54966, Control_c, 0, 64, 0
3, 54968, Control_c, 0, 64, 0
3, 54994, Note_off_c, 0, 65, 64
3, 55004, Note_on_c, 0, 58, 57
3, 55012, Note_on_c, 0, 75, 80
3, 55016, Note_off_c, 0, 72, 64
3, 55052, Control_c, 0, 64, 127
3, 55052, Control_c, 0, 64, 127
3, 55116, Note_off_c, 0, 58, 64
3, 55124, Note_on_c, 0, 65, 68
3, 55128, Note_on_c, 0, 73, 93
3, 55134, Note_off_c, 0, 75, 64
3, 55198, Note_off_c, 0, 73, 64
3, 55204, Note_off_c, 0, 65, 64
3, 55212, Control_c, 0, 64, 0
3, 55212, Control_c, 0, 64, 0
3, 55250, Note_on_c, 0, 56, 74
3, 55310, Control_c, 0, 64, 127
3, 55312, Control_c, 0, 64, 127
3, 55352, Note_off_c, 0, 56, 64
3, 55360, Note_on_c, 0, 71, 98
3, 55372, Note_on_c, 0, 66, 60
3, 55412, Control_c, 0, 64, 0
3, 55412, Control_c, 0, 64, 0
3, 55482, Note_off_c, 0, 66, 64
3, 55482, Control_c, 0, 64, 127
3, 55482, Control_c, 0, 64, 127
3, 55484, Note_off_c, 0, 71, 64
3, 55484, Note_on_c, 0, 73, 93
3, 55486, Note_on_c, 0, 56, 68
3, 55594, Note_on_c, 0, 66, 51
3, 55596, Note_off_c, 0, 73, 64
3, 55600, Note_off_c, 0, 56, 64
3, 55604, Note_on_c, 0, 72, 93
3, 55680, Note_off_c, 0, 66, 64
3, 55700, Control_c, 0, 64, 0
3, 55702, Control_c, 0, 64, 0
3, 55714, Note_on_c, 0, 55, 71
3, 55720, Note_off_c, 0, 72, 64
3, 55726, Note_on_c, 0, 71, 107
3, 55826, Control_c, 0, 64, 127
3, 55826, Control_c, 0, 64, 127
3, 55838, Note_on_c, 0, 67, 42
3, 55840, Note_off_c, 0, 55, 64
3, 55874, Control_c, 0, 64, 0
3, 55876, Control_c, 0, 64, 0
3, 55950, Note_on_c, 0, 55, 60
3, 55952, Note_off_c, 0, 67, 64
3, 55954, Note_off_c, 0, 71, 64
3, 56058, Note_off_c, 0, 55, 64
3, 56078, Note_on_c, 0, 67, 44
3, 56190, Note_off_c, 0, 67, 64
3, 56192, Note_on_c, 0, 55, 45
3, 56296, Note_off_c, 0, 55, 64
3, 56306, Note_on_c, 0, 67, 41
3, 56314, Control_c, 0, 64, 127
3, 56316, Control_c, 0, 64, 127
3, 56412, Note_on_c, 0, 55, 54
3, 56414, Note_off_c, 0, 67, 64
3, 56422, Control_c, 0, 64, 0
3, 56424, Control_c, 0, 64, 0
3, 56436, Note_on_c, 0, 80, 60
3, 56518, Control_c, 0, 64, 127
3, 56518, Control_c, 0, 64, 127
3, 56522, Note_off_c, 0, 55, 64
3, 56538, Note_on_c, 0, 67, 42
3, 56640, Note_on_c, 0, 79, 57
3, 56646, Note_off_c, 0, 67, 64
3, 56646, Note_on_c, 0, 55, 48
3, 56666, Control_c, 0, 64, 0
3, 56668, Control_c, 0, 64, 0
3, 56712, Note_off_c, 0, 80, 64
3, 56756, Note_off_c, 0, 55, 64
3, 56766, Control_c, 0, 64, 127
3, 56768, Control_c, 0, 64, 127
3, 56770, Note_on_c, 0, 67, 48
3, 56830, Note_off_c, 0, 67, 64
3, 56878, Note_off_c, 0, 79, 64
3, 56880, Note_on_c, 0, 55, 44
3, 56902, Control_c, 0, 64, 0
3, 56902, Control_c, 0, 64, 0
3, 56910, Note_on_c, 0, 77, 80
3, 56982, Control_c, 0, 64, 127
3, 56982, Control_c, 0, 64, 127
3, 57000, Note_off_c, 0, 55, 64
3, 57012, Note_on_c, 0, 67, 45
3, 57118, Control_c, 0, 64, 0
3, 57118, Control_c, 0, 64, 0
3, 57124, Note_on_c, 0, 55, 57
3, 57126, Note_off_c, 0, 67, 64
3, 57144, Note_off_c, 0, 77, 64
3, 57144, Note_on_c, 0, 74, 85
3, 57208, Control_c, 0, 64, 127
3, 57210, Control_c, 0, 64, 127
3, 57240, Note_off_c, 0, 55, 64
3, 57248, Note_on_c, 0, 67, 51
3, 57304, Control_c, 0, 64, 0
3, 57304, Control_c, 0, 64, 0
3, 57338, Note_off_c, 0, 67, 64
3, 57362, Note_on_c, 0, 55, 51
3, 57366, Note_off_c, 0, 74, 64
3, 57368, Note_on_c, 0, 71, 93
3, 57378, Control_c, 0, 64, 127
3, 57378, Control_c, 0, 64, 127
3, 57472, Note_off_c, 0, 55, 64
3, 57484, Note_on_c, 0, 67, 44
3, 57558, Note_off_c, 0, 67, 64
3, 57582, Control_c, 0, 64, 0
3, 57584, Control_c, 0, 64, 0
3, 57592, Note_on_c, 0, 65, 71
3, 57598, Note_off_c, 0, 71, 64
3, 57598, Note_on_c, 0, 55, 71
3, 57600, Note_on_c, 0, 68, 93
3, 57674, Control_c, 0, 64, 127
3, 57676, Control_c, 0, 64, 127
3, 57782, Note_off_c, 0, 55, 64
3, 57840, Note_on_c, 0, 55, 68
3, 57884, Note_off_c, 0, 65, 64
3, 57900, Note_off_c, 0, 55, 64
3, 57938, Note_off_c, 0, 68, 64
3, 57944, Note_on_c, 0, 67, 62
3, 58054, Control_c, 0, 64, 0
3, 58054, Control_c, 0, 64, 0
3, 58066, Note_on_c, 0, 72, 44
3, 58072, Note_on_c, 0, 55, 49
3, 58076, Note_on_c, 0, 63, 49
3, 58084, Note_off_c, 0, 67, 64
3, 58132, Control_c, 0, 64, 127
3, 58132, Control_c, 0, 64, 127
3, 58160, Note_off_c, 0, 63, 64
3, 58192, Note_off_c, 0, 72, 64
3, 58194, Note_off_c, 0, 55, 64
3, 58194, Note_on_c, 0, 67, 51
3, 58288, Note_on_c, 0, 80, 50
3, 58298, Control_c, 0, 64, 0
3, 58300, Note_off_c, 0, 67, 64
3, 58300, Control_c, 0, 64, 0
3, 58302, Note_on_c, 0, 55, 54
3, 58414, Note_on_c, 0, 67, 48
3, 58418, Note_off_c, 0, 55, 64
3, 58424, Control_c, 0, 64, 127
3, 58424, Control_c, 0, 64, 127
3, 58514, Note_off_c, 0, 67, 64
3, 58518, Control_c, 0, 64, 0
3, 58518, Control_c, 0, 64, 0
3, 58524, Note_on_c, 0, 55, 44
3, 58534, Note_on_c, 0, 79, 76
3, 58548, Note_off_c, 0, 80, 64
3, 58600, Control_c, 0, 64, 127
3, 58600, Control_c, 0, 64, 127
3, 58636, Note_off_c, 0, 55, 64
3, 58640, Note_on_c, 0, 67, 47
3, 58756, Note_off_c, 0, 67, 64
3, 58758, Note_on_c, 0, 55, 54
3, 58760, Note_on_c, 0, 77, 72
3, 58766, Control_c, 0, 64, 0
3, 58766, Control_c, 0, 64, 0
3, 58770, Note_off_c, 0, 79, 64
3, 58848, Control_c, 0, 64, 127
3, 58848, Control_c, 0, 64, 127
3, 58870, Note_off_c, 0, 55, 64
3, 58876, Note_on_c, 0, 67, 45
3, 58976, Note_off_c, 0, 67, 64
3, 58984, Note_on_c, 0, 55, 54
3, 58990, Control_c, 0, 64, 0
3, 58990, Control_c, 0, 64, 0
3, 58998, Note_off_c, 0, 77, 64
3, 58998, Note_on_c, 0, 74, 64
3, 59068, Control_c, 0, 64, 127
3, 59068, Control_c, 0, 64, 127
3, 59100, Note_off_c, 0, 55, 64
3, 59106, Note_on_c, 0, 67, 47
3, 59182, Note_off_c, 0, 67, 64
3, 59220, Control_c, 0, 64, 0
3, 59220, Control_c, 0, 64, 0
3, 59222, Note_on_c, 0, 55, 57
3, 59232, Note_off_c, 0, 74, 64
3, 59234, Note_on_c, 0, 71, 64
3, 59286, Control_c, 0, 64, 127
3, 59288, Control_c, 0, 64, 127
3, 59324, Note_off_c, 0, 55, 64
3, 59352, Note_on_c, 0, 67, 45
3, 59406, Note_off_c, 0, 67, 64
3, 59442, Control_c, 0, 64, 0
3, 59442, Control_c, 0, 64, 0
3, 59456, Note_on_c, 0, 65, 74
3, 59462, Note_on_c, 0, 68, 98
3, 59462, Note_on_c, 0, 55, 68
3, 59480, Note_off_c, 0, 71, 64
3, 59528, Control_c, 0, 64, 127
3, 59528, Control_c, 0, 64, 127
3, 59626, Note_off_c, 0, 55, 64
3, 59702, Note_on_c, 0, 55, 64
3, 59764, Note_off_c, 0, 65, 64
3, 59766, Note_off_c, 0, 55, 64
3, 59808, Note_on_c, 0, 67, 72
3, 59814, Note_off_c, 0, 68, 64
3, 59906, Control_c, 0, 64, 0
3, 59908, Control_c, 0, 64, 0
3, 59930, Note_on_c, 0, 63, 68
3, 59932, Note_on_c, 0, 72, 60
3, 59932, Note_on_c, 0, 55, 60
3, 59934, Note_off_c, 0, 67, 64
3, 59982, Control_c, 0, 64, 127
3, 59984, Control_c, 0, 64, 127
3, 60008, Note_off_c, 0, 63, 64
3, 60010, Note_off_c, 0, 55, 64
3, 60032, Note_off_c, 0, 72, 64
3, 60158, Note_on_c, 0, 65, 64
3, 60174, Note_on_c, 0, 56, 107
3, 60182, Control_c, 0, 64, 0
3, 60184, Control_c, 0, 64, 0
3, 60268, Note_off_c, 0, 65, 64
3, 60272, Note_on_c, 0, 62, 59
3, 60388, Note_on_c, 0, 65, 62
3, 60392, Note_off_c, 0, 62, 64
3, 60400, Note_off_c, 0, 56, 64
3, 60404, Note_on_c, 0, 55, 89
3, 60506, Note_on_c, 0, 62, 57
3, 60510, Note_off_c, 0, 65, 64
3, 60622, Note_on_c, 0, 65, 64
3, 60624, Note_off_c, 0, 62, 64
3, 60628, Note_off_c, 0, 55, 64
3, 60628, Note_on_c, 0, 53, 85
3, 60742, Note_off_c, 0, 65, 64
3, 60744, Note_on_c, 0, 62, 52
3, 60856, Note_off_c, 0, 62, 64
3, 60856, Note_on_c, 0, 65, 57
3, 60860, Note_off_c, 0, 53, 64
3, 60860, Note_on_c, 0, 50, 89
3, 60970, Note_on_c, 0, 62, 52
3, 60978, Note_off_c, 0, 65, 64
3, 61080, Note_off_c, 0, 62, 64
3, 61084, Note_on_c, 0, 65, 59
3, 61102, Note_on_c, 0, 47, 89
3, 61106, Note_off_c, 0, 50, 64
3, 61206, Note_off_c, 0, 65, 64
3, 61208, Note_on_c, 0, 62, 57
3, 61312, Note_off_c, 0, 62, 64
3, 61316, Note_on_c, 0, 65, 62
3, 61332, Note_off_c, 0, 47, 64
3, 61332, Note_on_c, 0, 44, 85
3, 61432, Note_off_c, 0, 65, 64
3, 61434, Note_on_c, 0, 62, 56
3, 61536, Note_off_c, 0, 62, 64
3, 61544, Note_on_c, 0, 71, 88
3, 61544, Note_on_c, 0, 65, 76
3, 61644, Note_on_c, 0, 43, 80
3, 61650, Note_off_c, 0, 44, 64
3, 61656, Note_on_c, 0, 62, 60
3, 61658, Note_off_c, 0, 65, 64
3, 61758, Note_off_c, 0, 62, 64
3, 61766, Note_on_c, 0, 63, 34
3, 61768, Note_off_c, 0, 43, 64
3, 61772, Note_on_c, 0, 72, 77
3, 61782, Note_on_c, 0, 48, 89
3, 61784, Note_off_c, 0, 71, 64
3, 61882, Note_on_c, 0, 60, 55
3, 61906, Note_off_c, 0, 63, 64
3, 61966, Note_off_c, 0, 48, 64
3, 61972, Note_off_c, 0, 72, 64
3, 62004, Note_on_c, 0, 63, 60
3, 62004, Note_on_c, 0, 54, 102
3, 62010, Note_off_c, 0, 60, 64
3, 62116, Note_off_c, 0, 63, 64
3, 62122, Note_on_c, 0, 60, 56
3, 62230, Note_off_c, 0, 60, 64
3, 62236, Note_on_c, 0, 63, 62
3, 62242, Note_off_c, 0, 54, 64
3, 62246, Note_on_c, 0, 53, 89
3, 62344, Note_off_c, 0, 63, 64
3, 62350, Note_on_c, 0, 60, 57
3, 62462, Note_off_c, 0, 60, 64
3, 62466, Note_on_c, 0, 63, 60
3, 62474, Note_on_c, 0, 51, 85
3, 62490, Note_off_c, 0, 53, 64
3, 62578, Note_off_c, 0, 63, 64
3, 62580, Note_on_c, 0, 60, 55
3, 62690, Note_off_c, 0, 60, 64
3, 62692, Note_on_c, 0, 63, 64
3, 62708, Note_on_c, 0, 48, 89
3, 62718, Note_off_c, 0, 51, 64
3, 62808, Note_off_c, 0, 63, 64
3, 62808, Note_on_c, 0, 60, 57
3, 62918, Note_off_c, 0, 60, 64
3, 62920, Note_on_c, 0, 63, 53
3, 62940, Note_on_c, 0, 45, 89
3, 62956, Note_off_c, 0, 48, 64
3, 63042, Note_off_c, 0, 63, 64
3, 63042, Note_on_c, 0, 60, 57
3, 63148, Note_off_c, 0, 60, 64
3, 63156, Note_on_c, 0, 63, 59
3, 63164, Note_off_c, 0, 45, 64
3, 63164, Note_on_c, 0, 42, 89
3, 63272, Note_off_c, 0, 63, 64
3, 63274, Note_on_c, 0, 60, 62
3, 63368, Note_off_c, 0, 60, 64
3, 63376, Note_on_c, 0, 69, 89
3, 63376, Note_on_c, 0, 63, 76
3, 63484, Note_off_c, 0, 42, 64
3, 63484, Note_on_c, 0, 41, 76
3, 63496, Note_on_c, 0, 60, 62
3, 63512, Note_off_c, 0, 63, 64
3, 63592, Note_off_c, 0, 60, 64
3, 63604, Note_off_c, 0, 41, 64
3, 63604, Note_on_c, 0, 46, 80
3, 63606, Note_on_c, 0, 70, 77
3, 63606, Note_on_c, 0, 61, 72
3, 63616, Note_off_c, 0, 69, 64
3, 63720, Note_on_c, 0, 58, 64
3, 63722, Note_off_c, 0, 61, 64
3, 63784, Note_off_c, 0, 46, 64
3, 63826, Note_off_c, 0, 58, 64
3, 63834, Note_on_c, 0, 52, 107
3, 63836, Note_off_c, 0, 70, 64
3, 63836, Note_on_c, 0, 61, 85
3, 63954, Note_off_c, 0, 61, 64
3, 63958, Note_on_c, 0, 58, 47
3, 64068, Note_off_c, 0, 58, 64
3, 64072, Note_on_c, 0, 61, 72
3, 64082, Note_on_c, 0, 51, 72
3, 64090, Note_off_c, 0, 52, 64
3, 64178, Note_off_c, 0, 61, 64
3, 64178, Note_on_c, 0, 58, 52
3, 64296, Note_on_c, 0, 49, 93
3, 64298, Note_off_c, 0, 51, 64
3, 64298, Note_on_c, 0, 61, 68
3, 64300, Note_off_c, 0, 58, 64
3, 64412, Note_off_c, 0, 61, 64
3, 64416, Note_on_c, 0, 58, 53
3, 64524, Note_off_c, 0, 58, 64
3, 64526, Note_on_c, 0, 61, 72
3, 64536, Note_off_c, 0, 49, 64
3, 64536, Note_on_c, 0, 46, 93
3, 64644, Note_on_c, 0, 58, 55
3, 64646, Note_off_c, 0, 61, 64
3, 64752, Note_on_c, 0, 61, 62
3, 64754, Note_off_c, 0, 58, 64
3, 64756, Note_on_c, 0, 43, 93
3, 64762, Note_off_c, 0, 46, 64
3, 64862, Note_off_c, 0, 61, 64
3, 64864, Note_on_c, 0, 58, 47
3, 64976, Note_off_c, 0, 58, 64
3, 64980, Note_on_c, 0, 61, 60
3, 64982, Note_off_c, 0, 43, 64
3, 64986, Note_on_c, 0, 40, 93
3, 65084, Note_off_c, 0, 61, 64
3, 65090, Note_on_c, 0, 58, 51
3, 65192, Note_off_c, 0, 58, 64
3, 65206, Note_off_c, 0, 40, 64
3, 65206, Note_on_c, 0, 61, 62
3, 65206, Note_on_c, 0, 39, 85
3, 65312, Note_off_c, 0, 61, 64
3, 65316, Note_on_c, 0, 58, 48
3, 65392, Note_off_c, 0, 58, 64
3, 65424, Note_on_c, 0, 67, 100
3, 65424, Note_on_c, 0, 61, 89
3, 65528, Note_on_c, 0, 58, 64
3, 65552, Note_off_c, 0, 61, 64
3, 65628, Note_off_c, 0, 58, 64
3, 65656, Note_on_c, 0, 61, 68
3, 65658, Note_on_c, 0, 51, 102
3, 65666, Note_off_c, 0, 39, 64
3, 65756, Note_on_c, 0, 58, 55
3, 65776, Note_off_c, 0, 61, 64
3, 65852, Note_off_c, 0, 58, 64
3, 65884, Note_on_c, 0, 60, 68
3, 65904, Note_off_c, 0, 67, 64
3, 65984, Note_on_c, 0, 56, 38
3, 66000, Note_off_c, 0, 60, 64
3, 66098, Note_off_c, 0, 56, 64
3, 66112, Note_on_c, 0, 63, 62
3, 66116, Note_on_c, 0, 48, 80
3, 66128, Note_off_c, 0, 51, 64
3, 66222, Note_on_c, 0, 56, 57
3, 66224, Note_off_c, 0, 63, 64
3, 66312, Note_off_c, 0, 56, 64
3, 66330, Note_on_c, 0, 68, 100
3, 66330, Note_on_c, 0, 63, 80
3, 66428, Note_off_c, 0, 63, 64
3, 66436, Note_on_c, 0, 56, 51
3, 66544, Note_on_c, 0, 36, 76
3, 66552, Note_off_c, 0, 56, 64
3, 66552, Note_off_c, 0, 48, 64
3, 66564, Note_on_c, 0, 63, 62
3, 66666, Note_on_c, 0, 56, 51
3, 66672, Note_off_c, 0, 63, 64
3, 66764, Note_off_c, 0, 56, 64
3, 66784, Note_on_c, 0, 61, 68
3, 66810, Note_off_c, 0, 68, 64
3, 66890, Note_off_c, 0, 61, 64
3, 66890, Note_on_c, 0, 56, 53
3, 67000, Note_off_c, 0, 56, 64
3, 67000, Note_off_c, 0, 36, 64
3, 67000, Note_on_c, 0, 37, 76
3, 67012, Note_on_c, 0, 61, 72
3, 67110, Note_on_c, 0, 56, 53
3, 67116, Note_off_c, 0, 61, 64
3, 67210, Note_off_c, 0, 56, 64
3, 67226, Note_on_c, 0, 65, 100
3, 67226, Note_on_c, 0, 61, 85
3, 67326, Note_off_c, 0, 61, 64
3, 67336, Note_on_c, 0, 56, 47
3, 67444, Note_off_c, 0, 56, 64
3, 67448, Note_on_c, 0, 61, 64
3, 67454, Note_on_c, 0, 49, 107
3, 67456, Note_off_c, 0, 37, 64
3, 67548, Note_off_c, 0, 61, 64
3, 67556, Note_on_c, 0, 56, 55
3, 67650, Note_off_c, 0, 56, 64
3, 67670, Note_on_c, 0, 61, 57
3, 67706, Note_off_c, 0, 65, 64
3, 67776, Note_on_c, 0, 55, 62
3, 67778, Note_off_c, 0, 61, 64
3, 67888, Note_off_c, 0, 55, 64
3, 67894, Note_on_c, 0, 61, 62
3, 67896, Note_on_c, 0, 46, 72
3, 67904, Note_off_c, 0, 49, 64
3, 68004, Note_on_c, 0, 55, 38
3, 68006, Note_off_c, 0, 61, 64
3, 68092, Note_off_c, 0, 55, 64
3, 68118, Note_on_c, 0, 67, 100
3, 68118, Note_on_c, 0, 61, 89
3, 68228, Note_off_c, 0, 61, 64
3, 68228, Note_on_c, 0, 55, 56
3, 68328, Note_off_c, 0, 55, 64
3, 68338, Note_on_c, 0, 34, 76
3, 68348, Note_off_c, 0, 46, 64
3, 68348, Note_on_c, 0, 61, 60
3, 68458, Note_on_c, 0, 55, 56
3, 68460, Note_off_c, 0, 61, 64
3, 68550, Note_off_c, 0, 55, 64
3, 68568, Note_on_c, 0, 60, 68
3, 68598, Note_off_c, 0, 67, 64
3, 68676, Note_on_c, 0, 55, 50
3, 68684, Note_off_c, 0, 60, 64
3, 68792, Note_off_c, 0, 55, 64
3, 68792, Note_on_c, 0, 36, 80
3, 68792, Note_on_c, 0, 60, 72
3, 68796, Note_off_c, 0, 34, 64
3, 68898, Note_off_c, 0, 60, 64
3, 68900, Note_on_c, 0, 55, 57
3, 68996, Note_off_c, 0, 55, 64
3, 69012, Note_on_c, 0, 60, 85
3, 69014, Note_on_c, 0, 64, 100
3, 69118, Note_off_c, 0, 60, 64
3, 69120, Note_on_c, 0, 55, 64
3, 69216, Note_off_c, 0, 55, 64
3, 69226, Note_on_c, 0, 60, 59
3, 69242, Note_on_c, 0, 48, 102
3, 69248, Note_off_c, 0, 36, 64
3, 69332, Note_on_c, 0, 55, 62
3, 69342, Note_off_c, 0, 60, 64
3, 69430, Note_off_c, 0, 55, 64
3, 69456, Note_on_c, 0, 56, 72
3, 69494, Note_off_c, 0, 64, 64
3, 69560, Note_on_c, 0, 53, 55
3, 69582, Note_off_c, 0, 56, 64
3, 69674, Note_off_c, 0, 53, 64
3, 69674, Note_on_c, 0, 60, 76
3, 69684, Note_on_c, 0, 44, 89
3, 69696, Note_off_c, 0, 48, 64
3, 69776, Note_on_c, 0, 53, 56
3, 69780, Note_off_c, 0, 60, 64
3, 69870, Note_off_c, 0, 53, 64
3, 69892, Note_on_c, 0, 65, 100
3, 69894, Note_on_c, 0, 60, 93
3, 69998, Note_off_c, 0, 60, 64
3, 69998, Note_on_c, 0, 53, 60
3, 70092, Note_off_c, 0, 53, 64
3, 70104, Note_on_c, 0, 32, 72
3, 70116, Note_off_c, 0, 44, 64
3, 70116, Note_on_c, 0, 60, 76
3, 70218, Note_on_c, 0, 53, 57
3, 70228, Note_off_c, 0, 60, 64
3, 70316, Note_off_c, 0, 32, 64
3, 70324, Note_off_c, 0, 53, 64
3, 70328, Note_off_c, 0, 65, 64
3, 70332, Note_on_c, 0, 61, 57
3, 70438, Note_on_c, 0, 53, 52
3, 70450, Note_off_c, 0, 61, 64
3, 70546, Note_on_c, 0, 34, 98
3, 70552, Note_off_c, 0, 53, 64
3, 70552, Note_on_c, 0, 61, 72
3, 70580, Control_c, 0, 64, 127
3, 70580, Control_c, 0, 64, 127
3, 70662, Note_on_c, 0, 53, 60
3, 70664, Note_off_c, 0, 61, 64
3, 70756, Note_off_c, 0, 53, 64
3, 70774, Note_on_c, 0, 61, 89
3, 70778, Note_on_c, 0, 65, 100
3, 70886, Note_off_c, 0, 61, 64
3, 70886, Note_on_c, 0, 53, 56
3, 70970, Control_c, 0, 64, 0
3, 70972, Control_c, 0, 64, 0
3, 70988, Note_off_c, 0, 53, 64
3, 70990, Note_on_c, 0, 46, 85
3, 70996, Note_on_c, 0, 61, 68
3, 70998, Note_off_c, 0, 34, 64
3, 71104, Note_on_c, 0, 53, 59
3, 71114, Note_off_c, 0, 61, 64
3, 71194, Note_off_c, 0, 53, 64
3, 71208, Note_off_c, 0, 46, 64
3, 71222, Note_on_c, 0, 62, 89
3, 71258, Note_off_c, 0, 65, 64
3, 71326, Note_on_c, 0, 53, 51
3, 71336, Note_off_c, 0, 62, 64
3, 71402, Note_off_c, 0, 53, 64
3, 71438, Note_on_c, 0, 35, 102
3, 71448, Note_on_c, 0, 56, 85
3, 71448, Note_on_c, 0, 62, 98
3, 71448, Note_on_c, 0, 65, 72
3, 71458, Control_c, 0, 64, 127
3, 71458, Control_c, 0, 64, 127
3, 71546, Note_on_c, 0, 53, 59
3, 71556, Note_off_c, 0, 62, 64
3, 71556, Note_off_c, 0, 56, 64
3, 71570, Note_off_c, 0, 65, 64
3, 71656, Note_off_c, 0, 53, 64
3, 71664, Note_on_c, 0, 56, 68
3, 71666, Note_on_c, 0, 62, 93
3, 71668, Note_on_c, 0, 65, 85
3, 71782, Note_on_c, 0, 53, 59
3, 71786, Note_off_c, 0, 65, 64
3, 71786, Note_off_c, 0, 56, 64
3, 71788, Note_off_c, 0, 62, 64
3, 71850, Control_c, 0, 64, 0
3, 71850, Control_c, 0, 64, 0
3, 71864, Note_off_c, 0, 53, 64
3, 71878, Note_on_c, 0, 56, 85
3, 71880, Note_on_c, 0, 65, 89
3, 71882, Note_on_c, 0, 62, 98
3, 71886, Note_on_c, 0, 47, 89
3, 71890, Note_off_c, 0, 35, 64
3, 71908, Control_c, 0, 64, 127
3, 71908, Control_c, 0, 64, 127
3, 71990, Note_on_c, 0, 53, 62
3, 72010, Note_off_c, 0, 62, 64
3, 72020, Note_off_c, 0, 65, 64
3, 72058, Note_off_c, 0, 53, 64
3, 72060, Note_off_c, 0, 47, 64
3, 72070, Note_off_c, 0, 56, 64
3, 72086, Note_on_c, 0, 36, 76
3, 72092, Control_c, 0, 64, 0
3, 72092, Control_c, 0, 64, 0
3, 72098, Note_on_c, 0, 60, 80
3, 72100, Note_on_c, 0, 55, 93
3, 72102, Note_on_c, 0, 64, 93
3, 72206, Note_on_c, 0, 48, 72
3, 72208, Note_off_c, 0, 36, 64
3, 72248, Note_off_c, 0, 55, 64
3, 72254, Note_off_c, 0, 60, 64
3, 72258, Note_off_c, 0, 64, 64
3, 72292, Note_off_c, 0, 48, 64
3, 72304, Note_on_c, 0, 52, 64
3, 72420, Note_on_c, 0, 48, 50
3, 72428, Note_off_c, 0, 52, 64
3, 72524, Note_on_c, 0, 52, 64
3, 72546, Note_off_c, 0, 48, 64
3, 72634, Note_on_c, 0, 48, 60
3, 72648, Note_off_c, 0, 52, 64
3, 72750, Note_on_c, 0, 52, 72
3, 72758, Note_off_c, 0, 48, 64
3, 72766, Note_on_c, 0, 72, 93
3, 72856, Note_on_c, 0, 48, 62
3, 72868, Note_off_c, 0, 52, 64
3, 72972, Note_on_c, 0, 53, 72
3, 72980, Note_off_c, 0, 48, 64
3, 72998, Note_on_c, 0, 68, 80
3, 73006, Note_off_c, 0, 72, 64
3, 73084, Note_on_c, 0, 48, 62
3, 73112, Note_off_c, 0, 53, 64
3, 73160, Note_off_c, 0, 68, 64
3, 73206, Note_on_c, 0, 53, 72
3, 73220, Note_off_c, 0, 48, 64
3, 73320, Note_on_c, 0, 48, 60
3, 73330, Note_off_c, 0, 53, 64
3, 73424, Note_on_c, 0, 53, 62
3, 73446, Note_off_c, 0, 48, 64
3, 73540, Note_on_c, 0, 48, 64
3, 73542, Note_off_c, 0, 53, 64
3, 73636, Note_on_c, 0, 77, 93
3, 73648, Note_on_c, 0, 56, 85
3, 73656, Note_off_c, 0, 48, 64
3, 73740, Note_on_c, 0, 48, 57
3, 73770, Note_off_c, 0, 56, 64
3, 73864, Note_on_c, 0, 76, 76
3, 73864, Note_on_c, 0, 55, 76
3, 73866, Note_off_c, 0, 48, 64
3, 73874, Note_off_c, 0, 77, 64
3, 73964, Note_on_c, 0, 48, 55
3, 73978, Note_off_c, 0, 55, 64
3, 74028, Note_off_c, 0, 76, 64
3, 74084, Note_on_c, 0, 55, 68
3, 74104, Note_off_c, 0, 48, 64
3, 74194, Note_on_c, 0, 48, 59
3, 74204, Note_off_c, 0, 55, 64
3, 74308, Note_on_c, 0, 55, 85
3, 74316, Note_off_c, 0, 48, 64
3, 74416, Note_on_c, 0, 48, 60
3, 74444, Note_off_c, 0, 55, 64
3, 74524, Note_on_c, 0, 84, 93
3, 74532, Note_off_c, 0, 48, 64
3, 74532, Note_on_c, 0, 58, 80
3, 74630, Note_on_c, 0, 48, 68
3, 74696, Note_off_c, 0, 58, 64
3, 74744, Note_on_c, 0, 56, 68
3, 74746, Note_off_c, 0, 48, 64
3, 74750, Note_on_c, 0, 77, 98
3, 74758, Note_off_c, 0, 84, 64
3, 74810, Note_off_c, 0, 77, 64
3, 74852, Note_on_c, 0, 48, 57
3, 74860, Note_off_c, 0, 56, 64
3, 74962, Note_on_c, 0, 60, 85
3, 74966, Note_off_c, 0, 48, 64
3, 75070, Note_on_c, 0, 48, 60
3, 75088, Note_off_c, 0, 60, 64
3, 75190, Note_off_c, 0, 48, 64
3, 75190, Note_on_c, 0, 59, 89
3, 75204, Note_on_c, 0, 77, 102
3, 75206, Note_on_c, 0, 89, 119
3, 75302, Note_on_c, 0, 48, 55
3, 75312, Note_off_c, 0, 59, 64
3, 75410, Note_off_c, 0, 48, 64
3, 75414, Note_on_c, 0, 62, 89
3, 75532, Note_on_c, 0, 48, 68
3, 75534, Note_off_c, 0, 62, 64
3, 75638, Note_off_c, 0, 48, 64
3, 75642, Note_off_c, 0, 89, 64
3, 75642, Note_off_c, 0, 77, 64
3, 75676, Note_on_c, 0, 60, 93
3, 75676, Note_on_c, 0, 76, 89
3, 75676, Note_on_c, 0, 88, 89
3, 75744, Note_on_c, 0, 48, 56
3, 75806, Note_off_c, 0, 60, 64
3, 75828, Note_off_c, 0, 76, 64
3, 75834, Note_off_c, 0, 88, 64
3, 75872, Note_on_c, 0, 52, 76
3, 75878, Note_off_c, 0, 48, 64
3, 75976, Note_on_c, 0, 48, 51
3, 75984, Note_off_c, 0, 52, 64
3, 76098, Note_on_c, 0, 52, 68
3, 76102, Note_off_c, 0, 48, 64
3, 76206, Note_on_c, 0, 48, 55
3, 76216, Note_off_c, 0, 52, 64
3, 76326, Note_off_c, 0, 48, 64
3, 76326, Note_on_c, 0, 55, 72
3, 76356, Note_on_c, 0, 74, 93
3, 76408, Note_on_c, 0, 72, 76
3, 76422, Note_off_c, 0, 74, 64
3, 76442, Note_on_c, 0, 48, 60
3, 76456, Note_off_c, 0, 55, 64
3, 76466, Note_on_c, 0, 71, 80
3, 76468, Note_off_c, 0, 72, 64
3, 76512, Note_on_c, 0, 72, 62
3, 76518, Note_off_c, 0, 71, 64
3, 76570, Note_off_c, 0, 72, 64
3, 76572, Note_on_c, 0, 53, 64
3, 76576, Note_off_c, 0, 48, 64
3, 76596, Note_on_c, 0, 68, 93
3, 76626, Note_off_c, 0, 68, 64
3, 76698, Note_on_c, 0, 48, 60
3, 76706, Note_off_c, 0, 53, 64
3, 76806, Note_on_c, 0, 53, 72
3, 76808, Note_on_c, 0, 68, 89
3, 76814, Note_off_c, 0, 48, 64
3, 76858, Note_off_c, 0, 68, 64
3, 76910, Note_on_c, 0, 48, 57
3, 76924, Note_off_c, 0, 53, 64
3, 77026, Note_on_c, 0, 53, 72
3, 77036, Note_off_c, 0, 48, 64
3, 77136, Note_on_c, 0, 48, 59
3, 77140, Note_off_c, 0, 53, 64
3, 77252, Note_off_c, 0, 48, 64
3, 77260, Note_on_c, 0, 56, 85
3, 77262, Note_on_c, 0, 79, 89
3, 77310, Note_on_c, 0, 77, 76
3, 77318, Note_off_c, 0, 79, 64
3, 77362, Note_on_c, 0, 48, 59
3, 77366, Note_off_c, 0, 77, 64
3, 77366, Note_on_c, 0, 76, 72
3, 77420, Note_off_c, 0, 76, 64
3, 77420, Note_off_c, 0, 56, 64
3, 77432, Note_on_c, 0, 77, 68
3, 77478, Note_off_c, 0, 77, 64
3, 77484, Note_off_c, 0, 48, 64
3, 77484, Note_on_c, 0, 55, 76
3, 77492, Note_on_c, 0, 76, 93
3, 77530, Note_off_c, 0, 76, 64
3, 77598, Note_on_c, 0, 48, 57
3, 77604, Note_off_c, 0, 55, 64
3, 77710, Note_off_c, 0, 48, 64
3, 77710, Note_on_c, 0, 55, 72
3, 77724, Note_on_c, 0, 76, 107
3, 77770, Note_off_c, 0, 76, 64
3, 77826, Note_on_c, 0, 48, 59
3, 77832, Note_off_c, 0, 55, 64
3, 77938, Note_on_c, 0, 55, 72
3, 77942, Note_off_c, 0, 48, 64
3, 78054, Note_on_c, 0, 48, 60
3, 78058, Note_off_c, 0, 55, 64
3, 78168, Note_off_c, 0, 48, 64
3, 78168, Note_on_c, 0, 86, 107
3, 78176, Note_on_c, 0, 58, 80
3, 78220, Note_on_c, 0, 84, 76
3, 78230, Note_off_c, 0, 86, 64
3, 78276, Note_off_c, 0, 84, 64
3, 78278, Note_on_c, 0, 83, 80
3, 78278, Note_on_c, 0, 48, 64
3, 78296, Note_off_c, 0, 58, 64
3, 78332, Note_off_c, 0, 83, 64
3, 78342, Note_on_c, 0, 84, 80
3, 78390, Note_off_c, 0, 84, 64
3, 78398, Note_on_c, 0, 56, 80
3, 78400, Note_off_c, 0, 48, 64
3, 78416, Note_on_c, 0, 77, 76
3, 78460, Note_off_c, 0, 77, 64
3, 78514, Note_on_c, 0, 48, 76
3, 78516, Note_off_c, 0, 56, 64
3, 78628, Note_off_c, 0, 48, 64
3, 78630, Note_on_c, 0, 60, 89
3, 78632, Note_on_c, 0, 77, 107
3, 78680, Note_off_c, 0, 77, 64
3, 78734, Note_on_c, 0, 48, 64
3, 78736, Note_on_c, 0, 48, 64
3, 78738, Note_off_c, 0, 60, 64
3, 78848, Note_off_c, 0, 48, 64
3, 78848, Note_off_c, 0, 48, 64
3, 78850, Note_on_c, 0, 59, 80
3, 78962, Note_on_c, 0, 48, 64
3, 78970, Note_off_c, 0, 59, 64
3, 79068, Note_on_c, 0, 77, 107
3, 79068, Note_on_c, 0, 89, 113
3, 79080, Note_on_c, 0, 62, 85
3, 79104, Note_off_c, 0, 48, 64
3, 79192, Note_on_c, 0, 48, 76
3, 79194, Note_off_c, 0, 62, 64
3, 79266, Note_off_c, 0, 77, 64
3, 79272, Note_off_c, 0, 89, 64
3, 79296, Note_on_c, 0, 76, 85
3, 79298, Note_on_c, 0, 88, 98
3, 79298, Note_on_c, 0, 60, 80
3, 79306, Note_off_c, 0, 48, 64
3, 79332, Note_off_c, 0, 76, 64
3, 79334, Note_off_c, 0, 88, 64
3, 79406, Note_on_c, 0, 48, 68
3, 79410, Note_off_c, 0, 60, 64
3, 79520, Note_on_c, 0, 76, 102
3, 79520, Note_on_c, 0, 88, 113
3, 79524, Note_on_c, 0, 60, 60
3, 79526, Note_off_c, 0, 48, 64
3, 79554, Note_off_c, 0, 88, 64
3, 79554, Note_off_c, 0, 76, 64
3, 79624, Note_on_c, 0, 48, 44
3, 79638, Note_off_c, 0, 60, 64
3, 79744, Note_on_c, 0, 58, 59
3, 79748, Note_off_c, 0, 48, 64
3, 79780, Control_c, 0, 64, 127
3, 79782, Control_c, 0, 64, 127
3, 79834, Control_c, 0, 64, 0
3, 79834, Control_c, 0, 64, 0
3, 79844, Note_on_c, 0, 48, 57
3, 79850, Note_off_c, 0, 58, 64
3, 79964, Note_off_c, 0, 48, 64
3, 79964, Note_on_c, 0, 58, 64
3, 79986, Note_on_c, 0, 73, 107
3, 79990, Note_on_c, 0, 85, 107
3, 80072, Note_on_c, 0, 48, 56
3, 80084, Note_off_c, 0, 58, 64
3, 80192, Note_on_c, 0, 56, 60
3, 80196, Note_off_c, 0, 48, 64
3, 80210, Note_off_c, 0, 73, 64
3, 80214, Note_off_c, 0, 85, 64
3, 80218, Note_on_c, 0, 72, 64
3, 80222, Note_on_c, 0, 84, 76
3, 80222, Control_c, 0, 64, 127
3, 80222, Control_c, 0, 64, 127
3, 80260, Control_c, 0, 64, 0
3, 80260, Control_c, 0, 64, 0
3, 80262, Note_off_c, 0, 72, 64
3, 80270, Note_off_c, 0, 84, 64
3, 80320, Note_on_c, 0, 48, 62
3, 80322, Note_off_c, 0, 56, 64
3, 80422, Note_off_c, 0, 48, 64
3, 80432, Note_on_c, 0, 60, 76
3, 80440, Note_on_c, 0, 84, 85
3, 80440, Note_on_c, 0, 72, 80
3, 80470, Note_off_c, 0, 72, 64
3, 80476, Note_off_c, 0, 84, 64
3, 80540, Note_on_c, 0, 48, 55
3, 80544, Note_off_c, 0, 60, 64
3, 80642, Note_off_c, 0, 48, 64
3, 80646, Note_on_c, 0, 59, 76
3, 80760, Note_on_c, 0, 48, 55
3, 80768, Note_off_c, 0, 59, 64
3, 80876, Note_on_c, 0, 62, 50
3, 80894, Note_on_c, 0, 77, 68
3, 80898, Note_on_c, 0, 89, 85
3, 80918, Note_off_c, 0, 48, 64
3, 80974, Note_off_c, 0, 62, 64
3, 80974, Note_on_c, 0, 48, 50
3, 81082, Note_off_c, 0, 89, 64
3, 81082, Note_off_c, 0, 77, 64
3, 81100, Note_off_c, 0, 48, 64
3, 81108, Note_on_c, 0, 60, 64
3, 81120, Note_on_c, 0, 88, 72
3, 81120, Note_on_c, 0, 76, 52
3, 81172, Note_off_c, 0, 76, 64
3, 81174, Note_off_c, 0, 88, 64
3, 81182, Control_c, 0, 64, 127
3, 81182, Control_c, 0, 64, 127
3, 81216, Note_off_c, 0, 60, 64
3, 81218, Note_on_c, 0, 48, 56
3, 81256, Control_c, 0, 64, 0
3, 81256, Control_c, 0, 64, 0
3, 81336, Note_on_c, 0, 76, 64
3, 81338, Note_off_c, 0, 48, 64
3, 81340, Note_on_c, 0, 88, 64
3, 81340, Note_on_c, 0, 60, 64
3, 81378, Note_off_c, 0, 88, 64
3, 81380, Note_off_c, 0, 76, 64
3, 81438, Note_on_c, 0, 48, 50
3, 81468, Note_off_c, 0, 60, 64
3, 81566, Note_on_c, 0, 58, 51
3, 81570, Note_off_c, 0, 48, 64
3, 81676, Note_off_c, 0, 58, 64
3, 81676, Note_on_c, 0, 48, 53
3, 81792, Note_off_c, 0, 48, 64
3, 81794, Note_on_c, 0, 58, 55
3, 81820, Note_on_c, 0, 73, 62
3, 81822, Note_on_c, 0, 85, 72
3, 81912, Note_off_c, 0, 58, 64
3, 81912, Note_on_c, 0, 48, 55
3, 82024, Note_off_c, 0, 73, 64
3, 82036, Note_off_c, 0, 48, 64
3, 82036, Note_off_c, 0, 85, 64
3, 82036, Note_on_c, 0, 56, 56
3, 82056, Note_on_c, 0, 72, 64
3, 82056, Note_on_c, 0, 84, 62
3, 82102, Note_off_c, 0, 72, 64
3, 82112, Note_off_c, 0, 84, 64
3, 82126, Note_off_c, 0, 56, 64
3, 82158, Note_on_c, 0, 48, 56
3, 82272, Note_off_c, 0, 48, 64
3, 82276, Note_on_c, 0, 60, 50
3, 82296, Note_on_c, 0, 72, 62
3, 82302, Note_on_c, 0, 84, 57
3, 82338, Note_off_c, 0, 72, 64
3, 82348, Note_off_c, 0, 84, 64
3, 82390, Note_on_c, 0, 48, 55
3, 82398, Note_off_c, 0, 60, 64
3, 82532, Note_off_c, 0, 48, 64
3, 82532, Note_on_c, 0, 59, 64
3, 82658, Note_on_c, 0, 48, 60
3, 82660, Note_off_c, 0, 59, 64
3, 82798, Note_on_c, 0, 77, 55
3, 82798, Note_on_c, 0, 89, 57
3, 82798, Note_on_c, 0, 62, 43
3, 82800, Note_off_c, 0, 48, 64
3, 82948, Note_on_c, 0, 48, 45
3, 82956, Note_off_c, 0, 62, 64
3, 83028, Note_off_c, 0, 77, 64
3, 83052, Note_off_c, 0, 89, 64
3, 83106, Note_off_c, 0, 48, 64
3, 83122, Note_on_c, 0, 76, 50
3, 83128, Note_on_c, 0, 88, 50
3, 83132, Note_on_c, 0, 60, 62
3, 83226, Note_off_c, 0, 60, 64
3, 83432, Note_on_c, 0, 60, 68
3, 83440, Note_off_c, 0, 76, 64
3, 83452, Note_off_c, 0, 88, 64
3, 83524, Note_off_c, 0, 60, 64
3, 83740, Note_on_c, 0, 60, 64
3, 83826, Note_off_c, 0, 60, 64
3, 84028, Note_on_c, 0, 60, 72
3, 84112, Note_off_c, 0, 60, 64
3, 84278, Note_on_c, 0, 60, 68
3, 84362, Note_off_c, 0, 60, 64
3, 84554, Note_on_c, 0, 60, 62
3, 84640, Note_off_c, 0, 60, 64
3, 84812, Note_on_c, 0, 60, 68
3, 84886, Note_off_c, 0, 60, 64
3, 85070, Note_on_c, 0, 60, 62
3, 85152, Note_off_c, 0, 60, 64
3, 85324, Note_on_c, 0, 60, 68
3, 85324, Note_on_c, 0, 61, 64
3, 85396, Note_off_c, 0, 60, 64
3, 85402, Note_off_c, 0, 61, 64
3, 85580, Note_on_c, 0, 61, 59
3, 85582, Note_on_c, 0, 60, 72
3, 85648, Note_off_c, 0, 60, 64
3, 85650, Note_off_c, 0, 61, 64
3, 85658, Note_on_c, 0, 68, 76
3, 85708, Note_off_c, 0, 68, 64
3, 85712, Note_on_c, 0, 66, 56
3, 85756, Note_off_c, 0, 66, 64
3, 85760, Note_on_c, 0, 65, 59
3, 85816, Note_off_c, 0, 65, 64
3, 85826, Note_on_c, 0, 66, 72
3, 85834, Note_on_c, 0, 60, 59
3, 85836, Note_on_c, 0, 61, 55
3, 85910, Note_off_c, 0, 61, 64
3, 85910, Note_off_c, 0, 60, 64
3, 85922, Note_off_c, 0, 66, 64
3, 86094, Note_on_c, 0, 61, 57
3, 86096, Note_on_c, 0, 60, 62
3, 86166, Note_off_c, 0, 60, 64
3, 86172, Note_off_c, 0, 61, 64
3, 86332, Note_on_c, 0, 58, 57
3, 86340, Note_on_c, 0, 61, 59
3, 86404, Note_off_c, 0, 58, 64
3, 86434, Note_off_c, 0, 61, 64
3, 86582, Note_on_c, 0, 61, 59
3, 86584, Note_on_c, 0, 58, 60
3, 86654, Note_off_c, 0, 58, 64
3, 86662, Note_on_c, 0, 87, 89
3, 86670, Note_off_c, 0, 61, 64
3, 86710, Note_on_c, 0, 85, 55
3, 86712, Note_off_c, 0, 87, 64
3, 86758, Note_off_c, 0, 85, 64
3, 86772, Note_on_c, 0, 84, 72
3, 86820, Note_off_c, 0, 84, 64
3, 86832, Note_on_c, 0, 85, 68
3, 86854, Note_on_c, 0, 58, 59
3, 86858, Note_on_c, 0, 61, 62
3, 86880, Note_off_c, 0, 85, 64
3, 86920, Note_off_c, 0, 58, 64
3, 86936, Note_off_c, 0, 61, 64
3, 87104, Note_on_c, 0, 61, 60
3, 87108, Note_on_c, 0, 58, 60
3, 87172, Note_off_c, 0, 58, 64
3, 87194, Note_off_c, 0, 61, 64
3, 87354, Note_on_c, 0, 58, 59
3, 87356, Note_on_c, 0, 60, 64
3, 87424, Note_off_c, 0, 58, 64
3, 87434, Note_off_c, 0, 60, 64
3, 87608, Note_on_c, 0, 58, 55
3, 87612, Note_on_c, 0, 60, 60
3, 87674, Note_off_c, 0, 58, 64
3, 87676, Note_off_c, 0, 60, 64
3, 87690, Note_on_c, 0, 65, 85
3, 87738, Note_off_c, 0, 65, 64
3, 87744, Note_on_c, 0, 64, 72
3, 87790, Note_off_c, 0, 64, 64
3, 87802, Note_on_c, 0, 62, 72
3, 87840, Note_off_c, 0, 62, 64
3, 87864, Note_on_c, 0, 60, 62
3, 87864, Note_on_c, 0, 64, 85
3, 87866, Note_on_c, 0, 58, 56
3, 87908, Note_off_c, 0, 64, 64
3, 87934, Note_off_c, 0, 58, 64
3, 87934, Note_off_c, 0, 60, 64
3, 88112, Note_on_c, 0, 60, 62
3, 88116, Note_on_c, 0, 58, 55
3, 88180, Note_off_c, 0, 60, 64
3, 88190, Note_off_c, 0, 58, 64
3, 88370, Note_on_c, 0, 56, 60
3, 88374, Note_on_c, 0, 60, 57
3, 88440, Note_off_c, 0, 56, 64
3, 88456, Note_off_c, 0, 60, 64
3, 88628, Note_on_c, 0, 60, 57
3, 88632, Note_on_c, 0, 56, 56
3, 88682, Note_on_c, 0, 85, 68
3, 88694, Note_off_c, 0, 56, 64
3, 88708, Note_off_c, 0, 60, 64
3, 88726, Note_off_c, 0, 85, 64
3, 88734, Note_on_c, 0, 84, 76
3, 88782, Note_off_c, 0, 84, 64
3, 88792, Note_on_c, 0, 83, 64
3, 88826, Note_off_c, 0, 83, 64
3, 88854, Note_on_c, 0, 84, 89
3, 88880, Note_on_c, 0, 56, 59
3, 88880, Note_on_c, 0, 60, 59
3, 88898, Note_off_c, 0, 84, 64
3, 88950, Note_off_c, 0, 56, 64
3, 88954, Note_off_c, 0, 60, 64
3, 89130, Note_on_c, 0, 60, 57
3, 89130, Note_on_c, 0, 56, 57
3, 89196, Note_off_c, 0, 56, 64
3, 89216, Note_off_c, 0, 60, 64
3, 89386, Note_on_c, 0, 56, 56
3, 89390, Note_on_c, 0, 58, 60
3, 89466, Note_off_c, 0, 56, 64
3, 89478, Note_off_c, 0, 58, 64
3, 89630, Note_on_c, 0, 58, 56
3, 89634, Note_on_c, 0, 56, 56
3, 89714, Note_on_c, 0, 63, 76
3, 89724, Note_off_c, 0, 56, 64
3, 89734, Note_off_c, 0, 58, 64
3, 89762, Note_off_c, 0, 63, 64
3, 89766, Note_on_c, 0, 62, 59
3, 89812, Note_off_c, 0, 62, 64
3, 89818, Note_on_c, 0, 60, 52
3, 89858, Note_off_c, 0, 60, 64
3, 89880, Note_on_c, 0, 62, 89
3, 89896, Note_on_c, 0, 58, 64
3, 89898, Note_on_c, 0, 56, 62
3, 89930, Note_off_c, 0, 62, 64
3, 89972, Note_off_c, 0, 56, 64
3, 89982, Note_off_c, 0, 58, 64
3, 90148, Note_on_c, 0, 58, 64
3, 90150, Note_on_c, 0, 56, 64
3, 90206, Note_off_c, 0, 56, 64
3, 90216, Note_off_c, 0, 58, 64
3, 90410, Note_on_c, 0, 64, 68
3, 90414, Note_on_c, 0, 55, 62
3, 90416, Note_on_c, 0, 58, 62
3, 90500, Note_off_c, 0, 55, 64
3, 90512, Note_off_c, 0, 64, 64
3, 90518, Note_off_c, 0, 58, 64
3, 90652, Note_on_c, 0, 58, 50
3, 90662, Note_on_c, 0, 55, 55
3, 90666, Note_on_c, 0, 64, 53
3, 90736, Note_off_c, 0, 55, 64
3, 90736, Note_off_c, 0, 58, 64
3, 90738, Note_on_c, 0, 84, 72
3, 90750, Note_off_c, 0, 64, 64
3, 90788, Note_on_c, 0, 82, 64
3, 90792, Note_off_c, 0, 84, 64
3, 90832, Note_off_c, 0, 82, 64
3, 90850, Note_on_c, 0, 81, 72
3, 90890, Note_off_c, 0, 81, 64
3, 90910, Note_on_c, 0, 82, 80
3, 90918, Note_on_c, 0, 58, 60
3, 90924, Note_on_c, 0, 55, 64
3, 90928, Note_on_c, 0, 64, 72
3, 90954, Note_off_c, 0, 82, 64
3, 90996, Note_off_c, 0, 55, 64
3, 90996, Note_off_c, 0, 58, 64
3, 91010, Note_off_c, 0, 64, 64
3, 91174, Note_on_c, 0, 58, 68
3, 91176, Note_on_c, 0, 64, 76
3, 91176, Note_on_c, 0, 55, 76
3, 91244, Note_off_c, 0, 58, 64
3, 91246, Note_off_c, 0, 64, 64
3, 91250, Note_off_c, 0, 55, 64
3, 91438, Note_on_c, 0, 56, 76
3, 91442, Note_on_c, 0, 53, 72
3, 91444, Note_on_c, 0, 65, 107
3, 91444, Note_on_c, 0, 60, 59
3, 91512, Note_off_c, 0, 65, 64
3, 91532, Note_off_c, 0, 56, 64
3, 91536, Note_off_c, 0, 53, 64
3, 91538, Note_off_c, 0, 60, 64
3, 91700, Note_on_c, 0, 68, 98
3, 91760, Note_off_c, 0, 68, 64
3, 91970, Note_on_c, 0, 72, 98
3, 92050, Note_off_c, 0, 72, 64
3, 92232, Note_on_c, 0, 77, 93
3, 92302, Note_off_c, 0, 77, 64
3, 92488, Note_on_c, 0, 80, 102
3, 92720, Note_on_c, 0, 53, 60
3, 92720, Note_on_c, 0, 56, 64
3, 92720, Note_on_c, 0, 60, 68
3, 92800, Note_off_c, 0, 56, 64
3, 92802, Note_off_c, 0, 60, 64
3, 92810, Note_off_c, 0, 53, 64
3, 92858, Note_off_c, 0, 80, 64
3, 92868, Note_on_c, 0, 79, 80
3, 92904, Note_on_c, 0, 77, 72
3, 92928, Note_off_c, 0, 79, 64
3, 92956, Note_on_c, 0, 60, 76
3, 92964, Note_off_c, 0, 77, 64
3, 92966, Note_on_c, 0, 76, 72
3, 92970, Note_on_c, 0, 53, 68
3, 92970, Note_on_c, 0, 56, 72
3, 93016, Note_off_c, 0, 76, 64
3, 93018, Note_on_c, 0, 77, 85
3, 93038, Note_off_c, 0, 60, 64
3, 93052, Note_off_c, 0, 56, 64
3, 93056, Note_off_c, 0, 53, 64
3, 93076, Note_off_c, 0, 77, 64
3, 93204, Note_on_c, 0, 56, 80
3, 93210, Note_on_c, 0, 53, 72
3, 93212, Note_on_c, 0, 60, 80
3, 93274, Note_off_c, 0, 60, 64
3, 93278, Note_off_c, 0, 56, 64
3, 93290, Note_off_c, 0, 53, 64
3, 93470, Note_on_c, 0, 67, 98
3, 93474, Note_on_c, 0, 58, 80
3, 93476, Note_on_c, 0, 55, 89
3, 93476, Note_on_c, 0, 52, 93
3, 93492, Note_on_c, 0, 59, 68
3, 93534, Note_off_c, 0, 67, 64
3, 93548, Note_off_c, 0, 59, 64
3, 93576, Note_off_c, 0, 55, 64
3, 93578, Note_off_c, 0, 52, 64
3, 93590, Note_off_c, 0, 58, 64
3, 93724, Note_on_c, 0, 72, 93
3, 93788, Note_off_c, 0, 72, 64
3, 93992, Note_on_c, 0, 76, 98
3, 94050, Note_off_c, 0, 76, 64
3, 94252, Note_on_c, 0, 79, 93
3, 94326, Note_off_c, 0, 79, 64
3, 94508, Note_on_c, 0, 82, 93
3, 94742, Note_on_c, 0, 58, 64
3, 94746, Note_on_c, 0, 55, 76
3, 94748, Note_on_c, 0, 52, 76
3, 94750, Note_on_c, 0, 60, 68
3, 94820, Note_off_c, 0, 60, 64
3, 94820, Note_off_c, 0, 55, 64
3, 94822, Note_off_c, 0, 52, 64
3, 94834, Note_off_c, 0, 58, 64
3, 94876, Note_on_c, 0, 80, 72
3, 94892, Note_off_c, 0, 82, 64
3, 94920, Note_on_c, 0, 79, 76
3, 94944, Note_off_c, 0, 80, 64
3, 94984, Note_on_c, 0, 77, 76
3, 94986, Note_off_c, 0, 79, 64
3, 94996, Note_on_c, 0, 58, 60
3, 94996, Note_on_c, 0, 55, 76
3, 95004, Note_on_c, 0, 52, 80
3, 95006, Note_on_c, 0, 60, 89
3, 95032, Note_on_c, 0, 79, 98
3, 95044, Note_off_c, 0, 77, 64
3, 95070, Note_off_c, 0, 60, 64
3, 95072, Note_off_c, 0, 52, 64
3, 95076, Note_off_c, 0, 55, 64
3, 95082, Note_off_c, 0, 58, 64
3, 95088, Note_off_c, 0, 79, 64
3, 95248, Note_on_c, 0, 55, 76
3, 95250, Note_on_c, 0, 58, 62
3, 95252, Note_on_c, 0, 52, 80
3, 95254, Note_on_c, 0, 60, 76
3, 95314, Note_off_c, 0, 60, 64
3, 95316, Note_off_c, 0, 52, 64
3, 95318, Note_off_c, 0, 58, 64
3, 95320, Note_off_c, 0, 55, 64
3, 95450, Note_on_c, 0, 72, 89
3, 95496, Note_on_c, 0, 80, 102
3, 95500, Note_off_c, 0, 72, 64
3, 95516, Note_on_c, 0, 53, 72
3, 95520, Note_on_c, 0, 60, 98
3, 95520, Note_on_c, 0, 56, 89
3, 95872, Note_off_c, 0, 80, 64
3, 95882, Note_on_c, 0, 79, 72
3, 95906, Note_off_c, 0, 56, 64
3, 95916, Note_off_c, 0, 53, 64
3, 95924, Note_off_c, 0, 60, 64
3, 95932, Note_on_c, 0, 77, 89
3, 95946, Note_off_c, 0, 79, 64
3, 95980, Note_on_c, 0, 76, 89
3, 95984, Note_off_c, 0, 77, 64
3, 96038, Note_off_c, 0, 76, 64
3, 96040, Note_on_c, 0, 77, 89
3, 96096, Note_off_c, 0, 77, 64
3, 96472, Note_on_c, 0, 72, 89
3, 96544, Note_on_c, 0, 55, 89
3, 96544, Note_on_c, 0, 58, 85
3, 96544, Note_on_c, 0, 64, 93
3, 96544, Note_on_c, 0, 82, 89
3, 96556, Note_off_c, 0, 72, 64
3, 96946, Note_on_c, 0, 80, 76
3, 96954, Note_off_c, 0, 82, 64
3, 96986, Note_on_c, 0, 79, 72
3, 97006, Note_off_c, 0, 58, 64
3, 97008, Note_off_c, 0, 55, 64
3, 97016, Note_off_c, 0, 80, 64
3, 97018, Note_off_c, 0, 64, 64
3, 97046, Note_off_c, 0, 79, 64
3, 97054, Note_on_c, 0, 77, 76
3, 97100, Note_off_c, 0, 77, 64
3, 97112, Note_on_c, 0, 79, 98
3, 97198, Note_off_c, 0, 79, 64
3, 97578, Note_on_c, 0, 72, 72
3, 97642, Note_on_c, 0, 77, 76
3, 97692, Note_on_c, 0, 80, 107
3, 97726, Note_on_c, 0, 84, 102
3, 97726, Note_on_c, 0, 65, 89
3, 97726, Note_on_c, 0, 60, 93
3, 97726, Note_on_c, 0, 56, 85
3, 97842, Note_off_c, 0, 60, 64
3, 97852, Note_off_c, 0, 65, 64
3, 97856, Note_off_c, 0, 56, 64
3, 98320, Note_off_c, 0, 72, 64
3, 98324, Note_on_c, 0, 58, 80
3, 98324, Note_on_c, 0, 61, 89
3, 98324, Note_on_c, 0, 67, 93
3, 98324, Note_on_c, 0, 82, 72
3, 98328, Note_off_c, 0, 77, 64
3, 98328, Note_off_c, 0, 80, 64
3, 98356, Note_off_c, 0, 84, 64
3, 98420, Note_off_c, 0, 61, 64
3, 98428, Note_off_c, 0, 67, 64
3, 98432, Note_off_c, 0, 58, 64
3, 98478, Note_on_c, 0, 80, 80
3, 98524, Note_off_c, 0, 82, 64
3, 98630, Note_on_c, 0, 79, 76
3, 98642, Note_off_c, 0, 80, 64
3, 98790, Note_off_c, 0, 79, 64
3, 98790, Note_on_c, 0, 77, 72
3, 98946, Note_off_c, 0, 77, 64
3, 98948, Note_on_c, 0, 76, 76
3, 99008, Note_on_c, 0, 77, 76
3, 99026, Note_off_c, 0, 76, 64
3, 99070, Note_off_c, 0, 77, 64
3, 99076, Note_on_c, 0, 79, 72
3, 99106, Note_off_c, 0, 79, 64
3, 99122, Note_on_c, 0, 77, 76
3, 99122, Note_on_c, 0, 60, 93
3, 99122, Note_on_c, 0, 67, 93
3, 99638, Note_off_c, 0, 60, 64
3, 99646, Note_off_c, 0, 67, 64
3, 99932, Note_on_c, 0, 76, 57
3, 99972, Note_off_c, 0, 77, 64
3, 100558, Note_off_c, 0, 76, 64
3, 100982, Note_on_c, 0, 48, 89
3, 101054, Note_off_c, 0, 48, 64
3, 101212, Note_on_c, 0, 53, 80
3, 101270, Note_off_c, 0, 53, 64
3, 101434, Note_on_c, 0, 56, 85
3, 101476, Note_off_c, 0, 56, 64
3, 101656, Note_on_c, 0, 60, 72
3, 101726, Note_off_c, 0, 60, 64
3, 101896, Note_on_c, 0, 65, 76
3, 101956, Note_off_c, 0, 65, 64
3, 102128, Note_on_c, 0, 68, 76
3, 102440, Note_off_c, 0, 68, 64
3, 102454, Note_on_c, 0, 67, 76
3, 102510, Note_on_c, 0, 65, 68
3, 102518, Note_off_c, 0, 67, 64
3, 102558, Note_off_c, 0, 65, 64
3, 102558, Note_on_c, 0, 64, 76
3, 102610, Note_off_c, 0, 64, 64
3, 102614, Note_on_c, 0, 65, 72
3, 102678, Note_off_c, 0, 65, 64
3, 102838, Note_on_c, 0, 65, 89
3, 102894, Note_off_c, 0, 65, 64
3, 103072, Note_on_c, 0, 66, 72
3, 103076, Note_on_c, 0, 65, 85
3, 103078, Note_on_c, 0, 82, 80
3, 103410, Note_on_c, 0, 80, 64
3, 103422, Note_off_c, 0, 82, 64
3, 103468, Note_on_c, 0, 78, 57
3, 103474, Note_off_c, 0, 80, 64
3, 103518, Note_off_c, 0, 78, 64
3, 103518, Note_on_c, 0, 77, 53
3, 103570, Note_on_c, 0, 78, 68
3, 103580, Note_off_c, 0, 77, 64
3, 103622, Note_off_c, 0, 78, 64
3, 103794, Note_on_c, 0, 78, 72
3, 103846, Note_off_c, 0, 78, 64
3, 103990, Note_off_c, 0, 65, 64
3, 103992, Note_off_c, 0, 66, 64
3, 104032, Note_on_c, 0, 63, 60
3, 104032, Note_on_c, 0, 66, 64
3, 104032, Note_on_c, 0, 78, 76
3, 104380, Note_on_c, 0, 73, 68
3, 104438, Note_on_c, 0, 72, 76
3, 104454, Note_off_c, 0, 73, 64
3, 104494, Note_off_c, 0, 72, 64
3, 104494, Note_on_c, 0, 71, 64
3, 104550, Note_on_c, 0, 72, 89
3, 104556, Note_off_c, 0, 71, 64
3, 104592, Note_off_c, 0, 72, 64
3, 104772, Note_on_c, 0, 72, 89
3, 104818, Note_off_c, 0, 72, 64
3, 104870, Note_off_c, 0, 63, 64
3, 104912, Note_off_c, 0, 66, 64
3, 104956, Note_off_c, 0, 78, 64
3, 104974, Note_on_c, 0, 72, 85
3, 104974, Note_on_c, 0, 69, 89
3, 104974, Note_on_c, 0, 63, 68
3, 105346, Note_on_c, 0, 78, 72
3, 105404, Note_on_c, 0, 77, 76
3, 105408, Note_off_c, 0, 78, 64
3, 105436, Note_on_c, 0, 76, 85
3, 105440, Note_off_c, 0, 77, 64
3, 105490, Note_off_c, 0, 76, 64
3, 105508, Note_on_c, 0, 77, 76
3, 105562, Note_off_c, 0, 77, 64
3, 105718, Note_on_c, 0, 77, 89
3, 105760, Note_off_c, 0, 77, 64
3, 105880, Note_off_c, 0, 72, 64
3, 105904, Note_off_c, 0, 69, 64
3, 105910, Note_off_c, 0, 63, 64
3, 105934, Note_on_c, 0, 77, 93
3, 105936, Note_on_c, 0, 61, 72
3, 105936, Note_on_c, 0, 65, 89
3, 106268, Note_on_c, 0, 72, 64
3, 106308, Note_on_c, 0, 70, 57
3, 106340, Note_off_c, 0, 72, 64
3, 106372, Note_on_c, 0, 69, 80
3, 106380, Note_off_c, 0, 70, 64
3, 106436, Note_off_c, 0, 69, 64
3, 106436, Note_on_c, 0, 70, 89
3, 106476, Note_off_c, 0, 70, 64
3, 106648, Note_on_c, 0, 70, 76
3, 106704, Note_off_c, 0, 70, 64
3, 106766, Note_off_c, 0, 65, 64
3, 106782, Note_off_c, 0, 61, 64
3, 106796, Note_off_c, 0, 77, 64
3, 106896, Note_on_c, 0, 71, 98
3, 106896, Note_on_c, 0, 65, 72
3, 106898, Note_on_c, 0, 62, 72
3, 107276, Note_on_c, 0, 79, 76
3, 107316, Note_on_c, 0, 77, 76
3, 107330, Note_off_c, 0, 79, 64
3, 107356, Note_on_c, 0, 76, 89
3, 107358, Note_off_c, 0, 77, 64
3, 107394, Note_on_c, 0, 77, 102
3, 107404, Note_off_c, 0, 76, 64
3, 107608, Note_off_c, 0, 65, 64
3, 107612, Note_on_c, 0, 64, 76
3, 107618, Note_on_c, 0, 79, 89
3, 107622, Note_off_c, 0, 77, 64
3, 107844, Note_off_c, 0, 79, 64
3, 107848, Note_on_c, 0, 80, 89
3, 107852, Note_on_c, 0, 65, 89
3, 107860, Note_off_c, 0, 64, 64
3, 107932, Note_off_c, 0, 71, 64
3, 108074, Note_off_c, 0, 65, 64
3, 108074, Note_on_c, 0, 67, 80
3, 108076, Note_off_c, 0, 80, 64
3, 108076, Note_on_c, 0, 76, 89
3, 108314, Note_on_c, 0, 68, 76
3, 108316, Note_off_c, 0, 67, 64
3, 108324, Note_on_c, 0, 77, 80
3, 108332, Note_off_c, 0, 76, 64
3, 108540, Note_on_c, 0, 65, 72
3, 108542, Note_off_c, 0, 68, 64
3, 108544, Note_off_c, 0, 77, 64
3, 108546, Note_on_c, 0, 71, 76
3, 108720, Note_off_c, 0, 65, 64
3, 108732, Note_off_c, 0, 62, 64
3, 108772, Note_off_c, 0, 71, 64
3, 108778, Note_on_c, 0, 64, 62
3, 108780, Note_on_c, 0, 60, 72
3, 108780, Note_on_c, 0, 72, 80
3, 109008, Note_off_c, 0, 64, 64
3, 109010, Note_on_c, 0, 76, 98
3, 109014, Note_on_c, 0, 67, 62
3, 109018, Note_off_c, 0, 72, 64
3, 109240, Note_on_c, 0, 65, 72
3, 109246, Note_off_c, 0, 67, 64
3, 109250, Note_on_c, 0, 77, 89
3, 109268, Note_off_c, 0, 76, 64
3, 109462, Note_on_c, 0, 64, 76
3, 109480, Note_on_c, 0, 79, 93
3, 109486, Note_off_c, 0, 65, 64
3, 109486, Note_off_c, 0, 77, 64
3, 109692, Note_off_c, 0, 64, 64
3, 109708, Note_off_c, 0, 79, 64
3, 109710, Note_on_c, 0, 80, 93
3, 109712, Note_on_c, 0, 65, 80
3, 109914, Note_off_c, 0, 65, 64
3, 109944, Note_on_c, 0, 76, 76
3, 109948, Note_on_c, 0, 70, 57
3, 109962, Note_off_c, 0, 80, 64
3, 110162, Note_off_c, 0, 70, 64
3, 110180, Note_on_c, 0, 61, 46
3, 110186, Note_on_c, 0, 68, 80
3, 110190, Note_off_c, 0, 60, 64
3, 110190, Note_on_c, 0, 77, 62
3, 110200, Note_off_c, 0, 76, 64
3, 110404, Note_off_c, 0, 77, 64
3, 110406, Note_on_c, 0, 65, 39
3, 110408, Note_on_c, 0, 71, 76
3, 110412, Note_off_c, 0, 68, 64
3, 110626, Note_off_c, 0, 61, 64
3, 110628, Note_off_c, 0, 71, 64
3, 110628, Note_off_c, 0, 65, 64
3, 110630, Note_on_c, 0, 48, 76
3, 110636, Note_on_c, 0, 72, 80
3, 110642, Note_on_c, 0, 64, 62
3, 110740, Note_off_c, 0, 48, 64
3, 110750, Note_on_c, 0, 60, 64
3, 110852, Note_off_c, 0, 60, 64
3, 110854, Note_on_c, 0, 48, 60
3, 110886, Note_off_c, 0, 72, 64
3, 110888, Note_off_c, 0, 64, 64
3, 110946, Note_off_c, 0, 48, 64
3, 110968, Note_on_c, 0, 60, 52
3, 111056, Note_off_c, 0, 60, 64
3, 111074, Note_on_c, 0, 48, 57
3, 111162, Note_off_c, 0, 48, 64
3, 111196, Note_on_c, 0, 60, 55
3, 111290, Note_off_c, 0, 60, 64
3, 111300, Note_on_c, 0, 73, 85
3, 111308, Note_on_c, 0, 48, 55
3, 111388, Note_off_c, 0, 48, 64
3, 111408, Note_on_c, 0, 60, 55
3, 111504, Note_off_c, 0, 60, 64
3, 111518, Note_on_c, 0, 48, 68
3, 111524, Note_on_c, 0, 72, 76
3, 111538, Note_off_c, 0, 73, 64
3, 111610, Note_off_c, 0, 48, 64
3, 111628, Note_on_c, 0, 60, 46
3, 111728, Note_off_c, 0, 60, 64
3, 111736, Note_on_c, 0, 48, 60
3, 111746, Note_on_c, 0, 70, 76
3, 111768, Note_off_c, 0, 72, 64
3, 111842, Note_off_c, 0, 48, 64
3, 111858, Note_on_c, 0, 60, 50
3, 111952, Note_off_c, 0, 60, 64
3, 111958, Note_on_c, 0, 67, 72
3, 111958, Note_on_c, 0, 48, 72
3, 111966, Note_off_c, 0, 70, 64
3, 112076, Note_off_c, 0, 48, 64
3, 112078, Note_on_c, 0, 60, 56
3, 112152, Note_off_c, 0, 60, 64
3, 112170, Note_on_c, 0, 48, 72
3, 112176, Note_on_c, 0, 64, 80
3, 112178, Note_off_c, 0, 67, 64
3, 112290, Note_off_c, 0, 48, 64
3, 112292, Note_on_c, 0, 60, 72
3, 112366, Note_off_c, 0, 60, 64
3, 112402, Note_on_c, 0, 61, 85
3, 112402, Note_on_c, 0, 58, 80
3, 112406, Note_off_c, 0, 64, 64
3, 112406, Note_on_c, 0, 48, 72
3, 112592, Note_off_c, 0, 48, 64
3, 112632, Note_on_c, 0, 48, 72
3, 112756, Note_on_c, 0, 60, 76
3, 112758, Note_off_c, 0, 61, 64
3, 112802, Note_off_c, 0, 48, 64
3, 112852, Note_off_c, 0, 58, 64
3, 112856, Note_on_c, 0, 48, 76
3, 112860, Note_on_c, 0, 56, 80
3, 112866, Note_on_c, 0, 65, 68
3, 112886, Note_off_c, 0, 60, 64
3, 112910, Control_c, 0, 64, 127
3, 112910, Control_c, 0, 64, 127
3, 112964, Note_off_c, 0, 56, 64
3, 112978, Note_off_c, 0, 48, 64
3, 112980, Note_off_c, 0, 65, 64
3, 112988, Note_on_c, 0, 60, 62
3, 113082, Note_off_c, 0, 60, 64
3, 113084, Control_c, 0, 64, 0
3, 113084, Control_c, 0, 64, 0
3, 113086, Note_on_c, 0, 48, 72
3, 113090, Note_on_c, 0, 85, 93
3, 113178, Control_c, 0, 64, 127
3, 113180, Control_c, 0, 64, 127
3, 113186, Note_off_c, 0, 48, 64
3, 113204, Note_on_c, 0, 60, 53
3, 113288, Note_off_c, 0, 60, 64
3, 113292, Note_off_c, 0, 85, 64
3, 113310, Note_on_c, 0, 48, 76
3, 113324, Note_on_c, 0, 84, 93
3, 113336, Control_c, 0, 64, 0
3, 113336, Control_c, 0, 64, 0
3, 113390, Note_off_c, 0, 48, 64
3, 113398, Control_c, 0, 64, 127
3, 113400, Control_c, 0, 64, 127
3, 113432, Note_on_c, 0, 60, 57
3, 113540, Note_off_c, 0, 60, 64
3, 113540, Control_c, 0, 64, 0
3, 113540, Control_c, 0, 64, 0
3, 113540, Note_on_c, 0, 82, 85
3, 113544, Note_on_c, 0, 48, 64
3, 113556, Note_off_c, 0, 84, 64
3, 113594, Control_c, 0, 64, 127
3, 113596, Control_c, 0, 64, 127
3, 113636, Note_off_c, 0, 48, 64
3, 113666, Note_on_c, 0, 60, 56
3, 113734, Control_c, 0, 64, 0
3, 113736, Control_c, 0, 64, 0
3, 113754, Note_off_c, 0, 60, 64
3, 113764, Note_on_c, 0, 48, 68
3, 113766, Note_on_c, 0, 79, 93
3, 113774, Note_off_c, 0, 82, 64
3, 113788, Control_c, 0, 64, 127
3, 113788, Control_c, 0, 64, 127
3, 113862, Note_off_c, 0, 48, 64
3, 113890, Note_on_c, 0, 60, 51
3, 113950, Control_c, 0, 64, 0
3, 113950, Control_c, 0, 64, 0
3, 113964, Note_off_c, 0, 60, 64
3, 113980, Note_on_c, 0, 48, 72
3, 113998, Note_off_c, 0, 79, 64
3, 114000, Note_on_c, 0, 76, 93
3, 114000, Control_c, 0, 64, 127
3, 114000, Control_c, 0, 64, 127
3, 114082, Note_off_c, 0, 48, 64
3, 114092, Note_on_c, 0, 60, 60
3, 114170, Note_off_c, 0, 60, 64
3, 114192, Note_off_c, 0, 76, 64
3, 114192, Note_on_c, 0, 58, 76
3, 114198, Note_on_c, 0, 48, 85
3, 114214, Note_on_c, 0, 73, 102
3, 114230, Control_c, 0, 64, 0
3, 114232, Control_c, 0, 64, 0
3, 114316, Control_c, 0, 64, 127
3, 114316, Control_c, 0, 64, 127
3, 114384, Note_off_c, 0, 48, 64
3, 114428, Note_on_c, 0, 48, 80
3, 114524, Note_off_c, 0, 73, 64
3, 114530, Control_c, 0, 64, 0
3, 114532, Control_c, 0, 64, 0
3, 114534, Note_on_c, 0, 72, 72
3, 114556, Note_off_c, 0, 48, 64
3, 114644, Note_on_c, 0, 48, 76
3, 114652, Note_on_c, 0, 77, 89
3, 114660, Note_off_c, 0, 72, 64
3, 114660, Note_on_c, 0, 56, 80
3, 114664, Note_off_c, 0, 58, 64
3, 114730, Note_off_c, 0, 77, 64
3, 114754, Note_off_c, 0, 48, 64
3, 114772, Note_on_c, 0, 60, 62
3, 114844, Note_off_c, 0, 60, 64
3, 114870, Note_on_c, 0, 48, 72
3, 114880, Note_on_c, 0, 85, 107
3, 114898, Control_c, 0, 64, 127
3, 114900, Control_c, 0, 64, 127
3, 114926, Note_off_c, 0, 56, 64
3, 114964, Note_off_c, 0, 48, 64
3, 114986, Note_on_c, 0, 60, 53
3, 115066, Note_off_c, 0, 60, 64
3, 115088, Note_off_c, 0, 85, 64
3, 115088, Note_on_c, 0, 48, 68
3, 115102, Note_on_c, 0, 84, 98
3, 115122, Control_c, 0, 64, 0
3, 115124, Control_c, 0, 64, 0
3, 115178, Note_off_c, 0, 48, 64
3, 115190, Control_c, 0, 64, 127
3, 115192, Control_c, 0, 64, 127
3, 115212, Note_on_c, 0, 60, 56
3, 115292, Note_off_c, 0, 60, 64
3, 115306, Note_on_c, 0, 48, 62
3, 115320, Note_on_c, 0, 82, 85
3, 115336, Note_off_c, 0, 84, 64
3, 115340, Control_c, 0, 64, 0
3, 115340, Control_c, 0, 64, 0
3, 115410, Note_off_c, 0, 48, 64
3, 115412, Control_c, 0, 64, 127
3, 115414, Control_c, 0, 64, 127
3, 115418, Note_on_c, 0, 60, 59
3, 115520, Note_off_c, 0, 60, 64
3, 115526, Note_on_c, 0, 58, 62
3, 115528, Note_on_c, 0, 79, 76
3, 115534, Note_off_c, 0, 82, 64
3, 115542, Control_c, 0, 64, 0
3, 115544, Control_c, 0, 64, 0
3, 115630, Note_off_c, 0, 58, 64
3, 115630, Note_on_c, 0, 60, 45
3, 115632, Control_c, 0, 64, 127
3, 115634, Control_c, 0, 64, 127
3, 115732, Note_off_c, 0, 60, 64
3, 115742, Note_off_c, 0, 79, 64
3, 115744, Note_on_c, 0, 76, 57
3, 115746, Note_on_c, 0, 58, 55
3, 115754, Control_c, 0, 64, 0
3, 115756, Control_c, 0, 64, 0
3, 115848, Note_off_c, 0, 58, 64
3, 115858, Note_on_c, 0, 60, 56
3, 115936, Note_off_c, 0, 60, 64
3, 115940, Note_off_c, 0, 76, 64
3, 115962, Note_on_c, 0, 56, 64
3, 116070, Note_on_c, 0, 65, 51
3, 116072, Note_on_c, 0, 76, 72
3, 116088, Note_off_c, 0, 56, 64
3, 116152, Control_c, 0, 64, 127
3, 116152, Control_c, 0, 64, 127
3, 116176, Note_off_c, 0, 65, 64
3, 116190, Note_on_c, 0, 60, 64
3, 116194, Note_on_c, 0, 79, 80
3, 116208, Note_off_c, 0, 76, 64
3, 116236, Control_c, 0, 64, 0
3, 116236, Control_c, 0, 64, 0
3, 116298, Note_on_c, 0, 65, 59
3, 116300, Note_off_c, 0, 60, 64
3, 116302, Note_on_c, 0, 77, 76
3, 116312, Note_off_c, 0, 79, 64
3, 116362, Note_off_c, 0, 77, 64
3, 116378, Note_off_c, 0, 65, 64
3, 116394, Note_on_c, 0, 55, 68
3, 116470, Control_c, 0, 64, 127
3, 116470, Control_c, 0, 64, 127
3, 116518, Note_on_c, 0, 77, 93
3, 116520, Note_on_c, 0, 64, 62
3, 116526, Note_off_c, 0, 55, 64
3, 116608, Note_off_c, 0, 64, 64
3, 116626, Note_on_c, 0, 58, 60
3, 116628, Note_off_c, 0, 77, 64
3, 116628, Note_on_c, 0, 80, 80
3, 116658, Control_c, 0, 64, 0
3, 116658, Control_c, 0, 64, 0
3, 116726, Note_off_c, 0, 58, 64
3, 116730, Note_on_c, 0, 64, 56
3, 116738, Note_on_c, 0, 79, 93
3, 116756, Note_off_c, 0, 80, 64
3, 116784, Note_off_c, 0, 79, 64
3, 116812, Note_off_c, 0, 64, 64
3, 116826, Note_on_c, 0, 53, 80
3, 116896, Control_c, 0, 64, 127
3, 116896, Control_c, 0, 64, 127
3, 116950, Note_on_c, 0, 79, 89
3, 116950, Note_on_c, 0, 60, 64
3, 116964, Note_off_c, 0, 53, 64
3, 117004, Control_c, 0, 64, 0
3, 117004, Control_c, 0, 64, 0
3, 117048, Note_off_c, 0, 60, 64
3, 117058, Note_on_c, 0, 56, 62
3, 117064, Note_on_c, 0, 82, 85
3, 117068, Note_off_c, 0, 79, 64
3, 117106, Control_c, 0, 64, 127
3, 117106, Control_c, 0, 64, 127
3, 117156, Note_off_c, 0, 56, 64
3, 117160, Note_on_c, 0, 60, 57
3, 117164, Note_on_c, 0, 80, 93
3, 117190, Note_off_c, 0, 82, 64
3, 117192, Control_c, 0, 64, 0
3, 117192, Control_c, 0, 64, 0
3, 117210, Note_off_c, 0, 80, 64
3, 117242, Note_off_c, 0, 60, 64
3, 117258, Note_on_c, 0, 50, 80
3, 117374, Note_on_c, 0, 83, 85
3, 117380, Note_off_c, 0, 50, 64
3, 117388, Note_on_c, 0, 59, 62
3, 117416, Control_c, 0, 64, 127
3, 117416, Control_c, 0, 64, 127
3, 117466, Note_off_c, 0, 83, 64
3, 117482, Note_off_c, 0, 59, 64
3, 117484, Note_on_c, 0, 89, 93
3, 117488, Note_on_c, 0, 53, 76
3, 117514, Control_c, 0, 64, 0
3, 117514, Control_c, 0, 64, 0
3, 117596, Note_on_c, 0, 83, 89
3, 117598, Note_off_c, 0, 89, 64
3, 117606, Note_off_c, 0, 53, 64
3, 117608, Note_on_c, 0, 59, 72
3, 117678, Note_off_c, 0, 59, 64
3, 117696, Note_off_c, 0, 83, 64
3, 117696, Note_on_c, 0, 48, 72
3, 117712, Note_on_c, 0, 84, 98
3, 117810, Note_on_c, 0, 60, 56
3, 117832, Note_off_c, 0, 48, 64
3, 117896, Note_off_c, 0, 60, 64
3, 117916, Note_on_c, 0, 52, 64
3, 117962, Note_off_c, 0, 84, 64
3, 118024, Note_off_c, 0, 52, 64
3, 118030, Note_on_c, 0, 60, 28
3, 118118, Note_off_c, 0, 60, 64
3, 118140, Note_on_c, 0, 49, 80
3, 118234, Control_c, 0, 64, 127
3, 118236, Control_c, 0, 64, 127
3, 118236, Note_on_c, 0, 83, 89
3, 118252, Note_on_c, 0, 59, 72
3, 118280, Control_c, 0, 64, 0
3, 118280, Control_c, 0, 64, 0
3, 118284, Note_off_c, 0, 49, 64
3, 118328, Note_off_c, 0, 59, 64
3, 118348, Note_on_c, 0, 53, 64
3, 118358, Note_off_c, 0, 83, 64
3, 118358, Note_on_c, 0, 89, 93
3, 118460, Note_off_c, 0, 53, 64
3, 118464, Note_on_c, 0, 83, 89
3, 118478, Note_off_c, 0, 89, 64
3, 118478, Note_on_c, 0, 59, 76
3, 118540, Note_off_c, 0, 59, 64
3, 118560, Note_off_c, 0, 83, 64
3, 118584, Note_on_c, 0, 48, 80
3, 118584, Note_on_c, 0, 84, 93
3, 118630, Control_c, 0, 64, 127
3, 118630, Control_c, 0, 64, 127
3, 118644, Control_c, 0, 64, 0
3, 118646, Control_c, 0, 64, 0
3, 118674, Note_on_c, 0, 60, 57
3, 118704, Note_off_c, 0, 48, 64
3, 118766, Note_off_c, 0, 60, 64
3, 118780, Note_off_c, 0, 84, 64
3, 118784, Note_on_c, 0, 52, 80
3, 118892, Note_on_c, 0, 60, 64
3, 118896, Note_off_c, 0, 52, 64
3, 118948, Note_off_c, 0, 60, 64
3, 118986, Note_on_c, 0, 46, 89
3, 119100, Note_on_c, 0, 76, 107
3, 119118, Control_c, 0, 64, 127
3, 119120, Control_c, 0, 64, 127
3, 119126, Note_off_c, 0, 46, 64
3, 119202, Note_off_c, 0, 76, 64
3, 119206, Control_c, 0, 64, 0
3, 119208, Control_c, 0, 64, 0
3, 119208, Note_on_c, 0, 49, 57
3, 119218, Note_on_c, 0, 85, 98
3, 119318, Note_off_c, 0, 49, 64
3, 119328, Note_on_c, 0, 76, 76
3, 119328, Note_on_c, 0, 55, 62
3, 119348, Note_off_c, 0, 85, 64
3, 119402, Note_off_c, 0, 55, 64
3, 119422, Note_on_c, 0, 44, 47
3, 119424, Note_off_c, 0, 76, 64
3, 119440, Note_on_c, 0, 77, 60
3, 119540, Note_on_c, 0, 53, 76
3, 119546, Note_off_c, 0, 44, 64
3, 119630, Note_off_c, 0, 53, 64
3, 119652, Note_on_c, 0, 48, 68
3, 119712, Note_off_c, 0, 77, 64
3, 119754, Note_off_c, 0, 48, 64
3, 119766, Note_on_c, 0, 53, 72
3, 119842, Note_off_c, 0, 53, 64
3, 119854, Note_on_c, 0, 46, 62
3, 119960, Note_on_c, 0, 55, 57
3, 119968, Note_on_c, 0, 76, 98
3, 119982, Control_c, 0, 64, 127
3, 119982, Control_c, 0, 64, 127
3, 119992, Note_off_c, 0, 46, 64
3, 120064, Note_off_c, 0, 55, 64
3, 120070, Note_on_c, 0, 49, 56
3, 120076, Note_off_c, 0, 76, 64
3, 120082, Note_on_c, 0, 85, 85
3, 120142, Control_c, 0, 64, 0
3, 120142, Control_c, 0, 64, 0
3, 120180, Note_off_c, 0, 49, 64
3, 120184, Note_on_c, 0, 55, 64
3, 120190, Note_off_c, 0, 85, 64
3, 120194, Note_on_c, 0, 76, 93
3, 120248, Note_off_c, 0, 76, 64
3, 120260, Note_off_c, 0, 55, 64
3, 120272, Note_on_c, 0, 44, 72
3, 120374, Control_c, 0, 64, 127
3, 120376, Control_c, 0, 64, 127
3, 120388, Note_on_c, 0, 53, 60
3, 120398, Note_on_c, 0, 76, 102
3, 120404, Note_off_c, 0, 44, 64
3, 120446, Control_c, 0, 64, 0
3, 120446, Control_c, 0, 64, 0
3, 120486, Note_off_c, 0, 76, 64
3, 120486, Note_off_c, 0, 53, 64
3, 120494, Note_on_c, 0, 48, 76
3, 120508, Note_on_c, 0, 79, 89
3, 120598, Note_off_c, 0, 48, 64
3, 120602, Note_on_c, 0, 53, 64
3, 120618, Note_off_c, 0, 79, 64
3, 120618, Note_on_c, 0, 77, 85
3, 120664, Note_off_c, 0, 77, 64
3, 120674, Note_off_c, 0, 53, 64
3, 120704, Note_on_c, 0, 40, 93
3, 120762, Control_c, 0, 64, 127
3, 120762, Control_c, 0, 64, 127
3, 120812, Note_on_c, 0, 77, 93
3, 120834, Note_on_c, 0, 52, 72
3, 120850, Note_off_c, 0, 40, 64
3, 120924, Note_off_c, 0, 52, 64
3, 120928, Note_on_c, 0, 80, 85
3, 120930, Note_off_c, 0, 77, 64
3, 120944, Note_on_c, 0, 48, 64
3, 121020, Note_off_c, 0, 80, 64
3, 121032, Note_on_c, 0, 79, 93
3, 121040, Control_c, 0, 64, 0
3, 121042, Control_c, 0, 64, 0
3, 121060, Note_off_c, 0, 48, 64
3, 121060, Note_on_c, 0, 52, 80
3, 121080, Note_off_c, 0, 79, 64
3, 121130, Note_off_c, 0, 52, 64
3, 121148, Note_on_c, 0, 41, 62
3, 121200, Control_c, 0, 64, 127
3, 121200, Control_c, 0, 64, 127
3, 121258, Note_on_c, 0, 53, 60
3, 121274, Note_on_c, 0, 79, 107
3, 121294, Note_off_c, 0, 41, 64
3, 121348, Note_off_c, 0, 53, 64
3, 121364, Note_on_c, 0, 48, 68
3, 121376, Note_off_c, 0, 79, 64
3, 121382, Note_on_c, 0, 82, 85
3, 121382, Control_c, 0, 64, 0
3, 121384, Control_c, 0, 64, 0
3, 121476, Note_off_c, 0, 82, 64
3, 121476, Note_on_c, 0, 53, 56
3, 121478, Note_off_c, 0, 48, 64
3, 121490, Note_on_c, 0, 80, 102
3, 121538, Note_off_c, 0, 80, 64
3, 121560, Note_off_c, 0, 53, 64
3, 121576, Note_on_c, 0, 43, 76
3, 121656, Control_c, 0, 64, 127
3, 121656, Control_c, 0, 64, 127
3, 121680, Note_on_c, 0, 55, 64
3, 121690, Note_on_c, 0, 81, 98
3, 121714, Note_off_c, 0, 43, 64
3, 121766, Note_off_c, 0, 55, 64
3, 121774, Note_off_c, 0, 81, 64
3, 121782, Note_on_c, 0, 48, 62
3, 121796, Note_on_c, 0, 84, 85
3, 121876, Control_c, 0, 64, 0
3, 121876, Control_c, 0, 64, 0
3, 121878, Note_off_c, 0, 84, 64
3, 121894, Note_on_c, 0, 55, 76
3, 121900, Note_on_c, 0, 82, 102
3, 121904, Note_off_c, 0, 48, 64
3, 121948, Note_off_c, 0, 82, 64
3, 121976, Note_off_c, 0, 55, 64
3, 122002, Note_on_c, 0, 44, 89
3, 122124, Note_on_c, 0, 84, 98
3, 122150, Control_c, 0, 64, 127
3, 122150, Control_c, 0, 64, 127
3, 122212, Note_off_c, 0, 84, 64
3, 122218, Note_off_c, 0, 44, 64
3, 122230, Note_on_c, 0, 89, 89
3, 122230, Note_on_c, 0, 48, 102
3, 122316, Note_off_c, 0, 89, 64
3, 122338, Note_on_c, 0, 87, 80
3, 122406, Control_c, 0, 64, 0
3, 122406, Control_c, 0, 64, 0
3, 122436, Note_off_c, 0, 87, 64
3, 122458, Note_on_c, 0, 85, 85
3, 122506, Control_c, 0, 64, 127
3, 122506, Control_c, 0, 64, 127
3, 122542, Note_off_c, 0, 85, 64
3, 122568, Note_on_c, 0, 84, 93
3, 122674, Note_on_c, 0, 82, 80
3, 122676, Note_off_c, 0, 84, 64
3, 122680, Note_off_c, 0, 48, 64
3, 122680, Note_on_c, 0, 53, 85
3, 122734, Note_off_c, 0, 82, 64
3, 122786, Note_on_c, 0, 80, 89
3, 122842, Note_off_c, 0, 80, 64
3, 122892, Control_c, 0, 64, 0
3, 122894, Control_c, 0, 64, 0
3, 122896, Note_on_c, 0, 79, 89
3, 122908, Note_off_c, 0, 53, 64
3, 122910, Note_on_c, 0, 46, 93
3, 122988, Control_c, 0, 64, 127
3, 122990, Control_c, 0, 64, 127
3, 122998, Note_off_c, 0, 79, 64
3, 123010, Note_on_c, 0, 77, 80
3, 123084, Note_off_c, 0, 77, 64
3, 123122, Note_on_c, 0, 75, 80
3, 123128, Note_off_c, 0, 46, 64
3, 123138, Note_on_c, 0, 49, 93
3, 123158, Control_c, 0, 64, 0
3, 123158, Control_c, 0, 64, 0
3, 123224, Note_off_c, 0, 75, 64
3, 123228, Note_on_c, 0, 73, 76
3, 123272, Control_c, 0, 64, 127
3, 123272, Control_c, 0, 64, 127
3, 123334, Note_off_c, 0, 73, 64
3, 123334, Control_c, 0, 64, 0
3, 123334, Control_c, 0, 64, 0
3, 123338, Note_on_c, 0, 72, 85
3, 123438, Note_off_c, 0, 72, 64
3, 123450, Note_on_c, 0, 70, 89
3, 123494, Control_c, 0, 64, 127
3, 123494, Control_c, 0, 64, 127
3, 123556, Note_on_c, 0, 68, 72
3, 123566, Note_off_c, 0, 70, 64
3, 123572, Control_c, 0, 64, 0
3, 123572, Control_c, 0, 64, 0
3, 123578, Note_on_c, 0, 55, 93
3, 123580, Note_off_c, 0, 49, 64
3, 123652, Control_c, 0, 64, 127
3, 123652, Control_c, 0, 64, 127
3, 123662, Control_c, 0, 64, 0
3, 123662, Control_c, 0, 64, 0
3, 123664, Note_off_c, 0, 68, 64
3, 123672, Note_on_c, 0, 67, 93
3, 123784, Note_off_c, 0, 67, 64
3, 123784, Note_on_c, 0, 65, 93
3, 123798, Control_c, 0, 64, 127
3, 123798, Control_c, 0, 64, 127
3, 123800, Note_on_c, 0, 48, 98
3, 123804, Note_off_c, 0, 55, 64
3, 123906, Note_on_c, 0, 64, 76
3, 123922, Note_off_c, 0, 65, 64
3, 123934, Control_c, 0, 64, 0
3, 123934, Control_c, 0, 64, 0
3, 124016, Note_on_c, 0, 61, 85
3, 124030, Note_off_c, 0, 64, 64
3, 124034, Note_off_c, 0, 48, 64
3, 124036, Note_on_c, 0, 53, 98
3, 124076, Control_c, 0, 64, 127
3, 124078, Control_c, 0, 64, 127
3, 124128, Note_off_c, 0, 61, 64
3, 124128, Note_on_c, 0, 60, 85
3, 124218, Control_c, 0, 64, 0
3, 124218, Control_c, 0, 64, 0
3, 124228, Note_off_c, 0, 60, 64
3, 124242, Note_on_c, 0, 59, 89
3, 124310, Control_c, 0, 64, 127
3, 124310, Control_c, 0, 64, 127
3, 124362, Note_on_c, 0, 60, 64
3, 124366, Note_off_c, 0, 59, 64
3, 124384, Control_c, 0, 64, 0
3, 124386, Control_c, 0, 64, 0
3, 124464, Note_on_c, 0, 59, 52
3, 124464, Note_on_c, 0, 56, 68
3, 124468, Note_off_c, 0, 60, 64
3, 124490, Note_off_c, 0, 53, 64
3, 124526, Control_c, 0, 64, 127
3, 124526, Control_c, 0, 64, 127
3, 124566, Note_on_c, 0, 60, 64
3, 124584, Note_off_c, 0, 59, 64
3, 124680, Note_off_c, 0, 60, 64
3, 124682, Note_on_c, 0, 59, 60
3, 124688, Note_on_c, 0, 58, 60
3, 124692, Control_c, 0, 64, 0
3, 124692, Control_c, 0, 64, 0
3, 124702, Note_off_c, 0, 56, 64
3, 124796, Note_on_c, 0, 60, 72
3, 124802, Note_off_c, 0, 59, 64
3, 124904, Note_on_c, 0, 61, 59
3, 124918, Note_on_c, 0, 55, 60
3, 124922, Note_off_c, 0, 60, 64
3, 124924, Note_off_c, 0, 58, 64
3, 125016, Note_on_c, 0, 60, 64
3, 125026, Note_off_c, 0, 61, 64
3, 125136, Note_on_c, 0, 59, 59
3, 125140, Note_off_c, 0, 60, 64
3, 125150, Note_on_c, 0, 52, 72
3, 125170, Note_off_c, 0, 55, 64
3, 125242, Note_on_c, 0, 60, 76
3, 125254, Note_off_c, 0, 59, 64
3, 125356, Note_off_c, 0, 60, 64
3, 125360, Note_on_c, 0, 61, 62
3, 125376, Note_on_c, 0, 46, 76
3, 125382, Note_off_c, 0, 52, 64
3, 125460, Note_on_c, 0, 60, 62
3, 125474, Note_off_c, 0, 61, 64
3, 125512, Note_off_c, 0, 60, 64
3, 125598, Note_off_c, 0, 46, 64
3, 125600, Note_on_c, 0, 44, 93
3, 125704, Control_c, 0, 64, 127
3, 125706, Control_c, 0, 64, 127
3, 125720, Note_on_c, 0, 84, 93
3, 125818, Note_off_c, 0, 44, 64
3, 125822, Note_off_c, 0, 84, 64
3, 125826, Note_on_c, 0, 48, 107
3, 125828, Note_on_c, 0, 89, 93
3, 125842, Control_c, 0, 64, 0
3, 125842, Control_c, 0, 64, 0
3, 125948, Note_on_c, 0, 87, 80
3, 125964, Note_off_c, 0, 89, 64
3, 126056, Note_on_c, 0, 85, 80
3, 126080, Note_off_c, 0, 87, 64
3, 126152, Note_off_c, 0, 85, 64
3, 126162, Note_on_c, 0, 84, 89
3, 126196, Control_c, 0, 64, 127
3, 126196, Control_c, 0, 64, 127
3, 126264, Note_on_c, 0, 82, 68
3, 126266, Note_off_c, 0, 84, 64
3, 126304, Note_on_c, 0, 53, 80
3, 126308, Note_off_c, 0, 48, 64
3, 126326, Note_off_c, 0, 82, 64
3, 126380, Note_on_c, 0, 80, 80
3, 126432, Note_off_c, 0, 80, 64
3, 126498, Note_on_c, 0, 79, 93
3, 126504, Control_c, 0, 64, 0
3, 126504, Control_c, 0, 64, 0
3, 126532, Note_on_c, 0, 46, 93
3, 126542, Note_off_c, 0, 53, 64
3, 126558, Note_off_c, 0, 79, 64
3, 126598, Control_c, 0, 64, 127
3, 126598, Control_c, 0, 64, 127
3, 126602, Note_on_c, 0, 77, 68
3, 126670, Control_c, 0, 64, 0
3, 126670, Control_c, 0, 64, 0
3, 126704, Note_off_c, 0, 77, 64
3, 126710, Note_on_c, 0, 75, 72
3, 126754, Note_off_c, 0, 46, 64
3, 126758, Note_on_c, 0, 49, 98
3, 126826, Note_on_c, 0, 73, 72
3, 126838, Note_off_c, 0, 75, 64
3, 126938, Note_off_c, 0, 73, 64
3, 126946, Note_on_c, 0, 72, 89
3, 126972, Control_c, 0, 64, 127
3, 126974, Control_c, 0, 64, 127
3, 127030, Control_c, 0, 64, 0
3, 127030, Control_c, 0, 64, 0
3, 127048, Note_on_c, 0, 70, 64
3, 127080, Note_off_c, 0, 72, 64
3, 127162, Note_on_c, 0, 68, 62
3, 127174, Note_off_c, 0, 70, 64
3, 127210, Note_on_c, 0, 55, 72
3, 127236, Note_off_c, 0, 49, 64
3, 127274, Note_on_c, 0, 67, 80
3, 127284, Note_off_c, 0, 68, 64
3, 127410, Note_off_c, 0, 67, 64
3, 127412, Note_on_c, 0, 65, 102
3, 127446, Note_off_c, 0, 55, 64
3, 127446, Note_on_c, 0, 48, 89
3, 127448, Control_c, 0, 64, 127
3, 127448, Control_c, 0, 64, 127
3, 127476, Control_c, 0, 64, 0
3, 127476, Control_c, 0, 64, 0
3, 127522, Note_on_c, 0, 64, 51
3, 127534, Note_off_c, 0, 65, 64
3, 127632, Note_on_c, 0, 61, 68
3, 127670, Note_off_c, 0, 64, 64
3, 127676, Note_on_c, 0, 53, 93
3, 127686, Note_off_c, 0, 48, 64
3, 127756, Note_off_c, 0, 61, 64
3, 127758, Note_on_c, 0, 60, 57
3, 127854, Note_off_c, 0, 60, 64
3, 127864, Note_on_c, 0, 59, 56
3, 127914, Control_c, 0, 64, 127
3, 127914, Control_c, 0, 64, 127
3, 127968, Control_c, 0, 64, 0
3, 127970, Control_c, 0, 64, 0
3, 127980, Note_off_c, 0, 59, 64
3, 127982, Note_on_c, 0, 60, 62
3, 128090, Note_off_c, 0, 60, 64
3, 128092, Note_on_c, 0, 56, 62
3, 128092, Note_on_c, 0, 59, 56
3, 128142, Note_off_c, 0, 53, 64
3, 128204, Note_off_c, 0, 59, 64
3, 128204, Note_on_c, 0, 60, 62
3, 128260, Note_off_c, 0, 56, 64
3, 128326, Note_off_c, 0, 60, 64
3, 128326, Note_on_c, 0, 59, 68
3, 128362, Control_c, 0, 64, 127
3, 128364, Control_c, 0, 64, 127
3, 128384, Control_c, 0, 64, 0
3, 128386, Control_c, 0, 64, 0
3, 128444, Note_on_c, 0, 60, 76
3, 128454, Note_off_c, 0, 59, 64
3, 128548, Note_on_c, 0, 61, 60
3, 128550, Note_off_c, 0, 60, 64
3, 128576, Note_on_c, 0, 36, 72
3, 128666, Note_on_c, 0, 60, 80
3, 128686, Note_off_c, 0, 61, 64
3, 128748, Note_off_c, 0, 36, 64
3, 128754, Note_off_c, 0, 60, 64
3, 128784, Note_on_c, 0, 60, 51
3, 128792, Note_on_c, 0, 36, 68
3, 128900, Note_on_c, 0, 58, 68
3, 128922, Note_off_c, 0, 60, 64
3, 128970, Note_off_c, 0, 36, 64
3, 129006, Note_on_c, 0, 56, 76
3, 129026, Note_off_c, 0, 58, 64
3, 129026, Note_on_c, 0, 36, 72
3, 129122, Note_on_c, 0, 55, 72
3, 129128, Note_off_c, 0, 56, 64
3, 129222, Note_off_c, 0, 36, 64
3, 129232, Note_off_c, 0, 55, 64
3, 129236, Note_on_c, 0, 41, 64
3, 129248, Note_on_c, 0, 53, 72
3, 129280, Control_c, 0, 64, 127
3, 129280, Control_c, 0, 64, 127
3, 129402, Note_off_c, 0, 53, 64
3, 129460, Note_on_c, 0, 53, 72
3, 129468, Control_c, 0, 64, 0
3, 129468, Control_c, 0, 64, 0
3, 129480, Note_off_c, 0, 41, 64
3, 129586, Note_off_c, 0, 53, 64
3, 129692, Note_on_c, 0, 68, 80
3, 129762, Control_c, 0, 64, 127
3, 129764, Control_c, 0, 64, 127
3, 129912, Note_on_c, 0, 53, 76
3, 129914, Note_on_c, 0, 50, 76
3, 129916, Note_on_c, 0, 59, 76
3, 129974, Note_off_c, 0, 59, 64
3, 129976, Note_off_c, 0, 50, 64
3, 129978, Note_off_c, 0, 53, 64
3, 130028, Note_on_c, 0, 67, 72
3, 130040, Note_off_c, 0, 68, 64
3, 130052, Control_c, 0, 64, 0
3, 130052, Control_c, 0, 64, 0
3, 130150, Note_on_c, 0, 65, 72
3, 130162, Note_off_c, 0, 67, 64
3, 130344, Control_c, 0, 64, 127
3, 130346, Control_c, 0, 64, 127
3, 130408, Note_on_c, 0, 56, 76
3, 130412, Note_on_c, 0, 48, 76
3, 130412, Note_on_c, 0, 60, 85
3, 130412, Note_on_c, 0, 53, 89
3, 130460, Note_off_c, 0, 48, 64
3, 130468, Note_off_c, 0, 53, 64
3, 130470, Note_off_c, 0, 56, 64
3, 130474, Note_off_c, 0, 60, 64
3, 130646, Control_c, 0, 64, 0
3, 130648, Control_c, 0, 64, 0
3, 130648, Note_on_c, 0, 64, 89
3, 130654, Note_off_c, 0, 65, 64
3, 130808, Control_c, 0, 64, 127
3, 130808, Control_c, 0, 64, 127
3, 130890, Note_on_c, 0, 58, 80
3, 130894, Note_on_c, 0, 55, 72
3, 130894, Note_on_c, 0, 48, 85
3, 130940, Note_off_c, 0, 55, 64
3, 130948, Note_off_c, 0, 48, 64
3, 130948, Note_off_c, 0, 58, 64
3, 130998, Note_on_c, 0, 72, 93
3, 131010, Note_off_c, 0, 64, 64
3, 131060, Note_off_c, 0, 72, 64
3, 131064, Control_c, 0, 64, 0
3, 131066, Control_c, 0, 64, 0
3, 131116, Note_on_c, 0, 72, 107
3, 131202, Control_c, 0, 64, 127
3, 131202, Control_c, 0, 64, 127
3, 131348, Control_c, 0, 64, 0
3, 131348, Control_c, 0, 64, 0
3, 131360, Note_on_c, 0, 65, 72
3, 131368, Note_off_c, 0, 72, 64
3, 131370, Note_on_c, 0, 53, 85
3, 131374, Note_on_c, 0, 56, 76
3, 131432, Note_off_c, 0, 53, 64
3, 131440, Note_off_c, 0, 56, 64
3, 131614, Note_on_c, 0, 68, 59
3, 131632, Note_off_c, 0, 65, 64
3, 131826, Note_on_c, 0, 50, 85
3, 131828, Note_on_c, 0, 56, 72
3, 131828, Note_on_c, 0, 59, 89
3, 131828, Note_on_c, 0, 53, 89
3, 131830, Control_c, 0, 64, 127
3, 131832, Control_c, 0, 64, 127
3, 131878, Note_off_c, 0, 50, 64
3, 131882, Note_off_c, 0, 53, 64
3, 131884, Note_off_c, 0, 56, 64
3, 131892, Note_off_c, 0, 59, 64
3, 131946, Note_on_c, 0, 67, 76
3, 131964, Note_off_c, 0, 68, 64
3, 131992, Control_c, 0, 64, 0
3, 131992, Control_c, 0, 64, 0
3, 132066, Note_on_c, 0, 65, 68
3, 132076, Note_off_c, 0, 67, 64
3, 132198, Control_c, 0, 64, 127
3, 132200, Control_c, 0, 64, 127
3, 132310, Note_on_c, 0, 56, 85
3, 132312, Note_on_c, 0, 60, 89
3, 132312, Note_on_c, 0, 53, 89
3, 132318, Note_on_c, 0, 48, 89
3, 132368, Note_off_c, 0, 48, 64
3, 132372, Note_off_c, 0, 60, 64
3, 132374, Note_off_c, 0, 56, 64
3, 132378, Note_off_c, 0, 53, 64
3, 132546, Note_off_c, 0, 65, 64
3, 132548, Note_on_c, 0, 64, 93
3, 132564, Control_c, 0, 64, 0
3, 132566, Control_c, 0, 64, 0
3, 132688, Control_c, 0, 64, 127
3, 132690, Control_c, 0, 64, 127
3, 132786, Note_on_c, 0, 48, 89
3, 132788, Note_on_c, 0, 55, 89
3, 132790, Note_on_c, 0, 58, 76
3, 132840, Note_off_c, 0, 48, 64
3, 132850, Note_off_c, 0, 58, 64
3, 132856, Note_off_c, 0, 55, 64
3, 132912, Note_on_c, 0, 72, 93
3, 132922, Note_off_c, 0, 64, 64
3, 132982, Note_off_c, 0, 72, 64
3, 132986, Control_c, 0, 64, 0
3, 132986, Control_c, 0, 64, 0
3, 133020, Note_on_c, 0, 72, 89
3, 133106, Control_c, 0, 64, 127
3, 133108, Control_c, 0, 64, 127
3, 133238, Note_on_c, 0, 56, 80
3, 133240, Note_on_c, 0, 53, 93
3, 133244, Note_on_c, 0, 65, 89
3, 133250, Note_off_c, 0, 72, 64
3, 133290, Note_off_c, 0, 65, 64
3, 133290, Note_off_c, 0, 53, 64
3, 133298, Note_off_c, 0, 56, 64
3, 133420, Note_on_c, 0, 72, 80
3, 133438, Control_c, 0, 64, 0
3, 133440, Control_c, 0, 64, 0
3, 133466, Note_off_c, 0, 72, 64
3, 133468, Note_on_c, 0, 80, 102
3, 133708, Note_on_c, 0, 61, 98
3, 133708, Note_on_c, 0, 65, 93
3, 133708, Note_on_c, 0, 68, 85
3, 133708, Note_on_c, 0, 71, 98
3, 133736, Control_c, 0, 64, 127
3, 133736, Control_c, 0, 64, 127
3, 133738, Note_on_c, 0, 78, 52
3, 133752, Note_off_c, 0, 78, 64
3, 133754, Note_off_c, 0, 61, 64
3, 133758, Note_off_c, 0, 65, 64
3, 133770, Note_off_c, 0, 68, 64
3, 133776, Note_off_c, 0, 71, 64
3, 133840, Control_c, 0, 64, 0
3, 133840, Control_c, 0, 64, 0
3, 133848, Note_on_c, 0, 79, 89
3, 133880, Note_off_c, 0, 80, 64
3, 133952, Note_off_c, 0, 79, 64
3, 133956, Note_on_c, 0, 77, 85
3, 134178, Note_on_c, 0, 68, 89
3, 134180, Note_on_c, 0, 60, 89
3, 134182, Note_on_c, 0, 72, 85
3, 134182, Note_on_c, 0, 65, 98
3, 134210, Control_c, 0, 64, 127
3, 134212, Control_c, 0, 64, 127
3, 134226, Note_off_c, 0, 72, 64
3, 134232, Note_off_c, 0, 60, 64
3, 134236, Note_off_c, 0, 65, 64
3, 134236, Note_off_c, 0, 68, 64
3, 134388, Control_c, 0, 64, 0
3, 134388, Control_c, 0, 64, 0
3, 134428, Note_off_c, 0, 77, 64
3, 134428, Note_on_c, 0, 76, 107
3, 134648, Control_c, 0, 64, 127
3, 134648, Control_c, 0, 64, 127
3, 134656, Note_on_c, 0, 67, 98
3, 134658, Note_on_c, 0, 58, 98
3, 134662, Note_on_c, 0, 60, 102
3, 134706, Note_off_c, 0, 67, 64
3, 134720, Note_off_c, 0, 60, 64
3, 134724, Note_off_c, 0, 58, 64
3, 134782, Note_off_c, 0, 76, 64
3, 134782, Note_on_c, 0, 84, 98
3, 134830, Control_c, 0, 64, 0
3, 134832, Control_c, 0, 64, 0
3, 134848, Note_off_c, 0, 84, 64
3, 134898, Note_on_c, 0, 60, 102
3, 134898, Note_on_c, 0, 65, 102
3, 134900, Note_on_c, 0, 84, 113
3, 134900, Note_on_c, 0, 75, 113
3, 134900, Note_on_c, 0, 72, 107
3, 134900, Note_on_c, 0, 57, 102
3, 135338, Control_c, 0, 64, 127
3, 135340, Control_c, 0, 64, 127
3, 135632, Note_off_c, 0, 84, 64
3, 135646, Note_off_c, 0, 75, 64
3, 135672, Note_off_c, 0, 72, 64
3, 135756, Note_off_c, 0, 57, 64
3, 135762, Note_off_c, 0, 65, 64
3, 135762, Note_off_c, 0, 60, 64
3, 135892, Note_on_c, 0, 77, 68
3, 135892, Note_on_c, 0, 73, 68
3, 135892, Note_on_c, 0, 70, 51
3, 135892, Note_on_c, 0, 61, 98
3, 135894, Note_on_c, 0, 58, 98
3, 135894, Note_on_c, 0, 65, 107
3, 135932, Control_c, 0, 64, 0
3, 135934, Control_c, 0, 64, 0
3, 135986, Note_off_c, 0, 61, 64
3, 135990, Note_off_c, 0, 58, 64
3, 135996, Note_off_c, 0, 65, 64
3, 136010, Note_off_c, 0, 70, 64
3, 136014, Note_off_c, 0, 73, 64
3, 136022, Note_off_c, 0, 77, 64
3, 136726, Note_on_c, 0, 58, 93
3, 136728, Note_on_c, 0, 61, 93
3, 136728, Note_on_c, 0, 65, 85
3, 136738, Note_on_c, 0, 70, 113
3, 136740, Note_on_c, 0, 73, 107
3, 136742, Note_on_c, 0, 82, 107
3, 136770, Note_off_c, 0, 70, 64
3, 136774, Note_off_c, 0, 73, 64
3, 136780, Note_off_c, 0, 58, 64
3, 136782, Note_off_c, 0, 65, 64
3, 136786, Note_off_c, 0, 82, 64
3, 136786, Note_off_c, 0, 61, 64
3, 136824, Note_on_c, 0, 63, 102
3, 136824, Note_on_c, 0, 82, 98
3, 136824, Note_on_c, 0, 55, 119
3, 136824, Note_on_c, 0, 58, 107
3, 136826, Note_on_c, 0, 70, 119
3, 136826, Note_on_c, 0, 73, 113
3, 136848, Control_c, 0, 64, 127
3, 136848, Control_c, 0, 64, 127
3, 136922, Control_c, 0, 64, 0
3, 136922, Control_c, 0, 64, 0
3, 137088, Control_c, 0, 64, 127
3, 137090, Control_c, 0, 64, 127
3, 137624, Note_off_c, 0, 82, 64
3, 137624, Note_off_c, 0, 63, 64
3, 137626, Note_off_c, 0, 73, 64
3, 137644, Note_off_c, 0, 70, 64
3, 137758, Note_off_c, 0, 55, 64
3, 137812, Note_off_c, 0, 58, 64
3, 137816, Control_c, 0, 64, 0
3, 137818, Control_c, 0, 64, 0
3, 137830, Note_on_c, 0, 56, 93
3, 137830, Note_on_c, 0, 60, 98
3, 137830, Note_on_c, 0, 63, 64
3, 137830, Note_on_c, 0, 75, 89
3, 137832, Note_on_c, 0, 68, 93
3, 137832, Note_on_c, 0, 72, 98
3, 137902, Note_off_c, 0, 72, 64
3, 137904, Note_off_c, 0, 68, 64
3, 137910, Note_off_c, 0, 75, 64
3, 137924, Note_off_c, 0, 63, 64
3, 137930, Note_off_c, 0, 56, 64
3, 137936, Note_off_c, 0, 60, 64
3, 138570, Note_on_c, 0, 53, 107
3, 138570, Note_on_c, 0, 61, 89
3, 138570, Note_on_c, 0, 80, 98
3, 138570, Note_on_c, 0, 72, 113
3, 138570, Note_on_c, 0, 68, 113
3, 138630, Note_off_c, 0, 68, 64
3, 138630, Note_off_c, 0, 72, 64
3, 138630, Note_off_c, 0, 80, 64
3, 138630, Note_off_c, 0, 61, 64
3, 138630, Note_off_c, 0, 53, 64
3, 138780, Note_on_c, 0, 55, 98
3, 138780, Note_on_c, 0, 74, 107
3, 138780, Note_on_c, 0, 70, 102
3, 138780, Note_on_c, 0, 67, 113
3, 138780, Note_on_c, 0, 61, 93
3, 138808, Note_off_c, 0, 67, 64
3, 138808, Note_off_c, 0, 70, 64
3, 138808, Note_off_c, 0, 74, 64
3, 138840, Note_off_c, 0, 61, 64
3, 138840, Note_off_c, 0, 55, 64
3, 139020, Note_on_c, 0, 70, 93
3, 139020, Note_on_c, 0, 52, 102
3, 139020, Note_on_c, 0, 60, 93
3, 139020, Note_on_c, 0, 79, 107
3, 139020, Note_on_c, 0, 67, 98
3, 139048, Note_off_c, 0, 79, 64
3, 139048, Note_off_c, 0, 52, 64
3, 139048, Note_off_c, 0, 70, 64
3, 139080, Note_off_c, 0, 67, 64
3, 139080, Note_off_c, 0, 60, 64
3, 139230, Note_on_c, 0, 53, 107
3, 139230, Note_on_c, 0, 72, 98
3, 139230, Note_on_c, 0, 60, 102
3, 139230, Note_on_c, 0, 65, 98
3, 139230, Note_on_c, 0, 68, 98
3, 139258, Note_off_c, 0, 53, 64
3, 139290, Note_off_c, 0, 68, 64
3, 139290, Note_off_c, 0, 65, 64
3, 139290, Note_off_c, 0, 60, 64
3, 139290, Note_off_c, 0, 72, 64
3, 139440, Note_on_c, 0, 65, 98
3, 139440, Note_on_c, 0, 77, 107
3, 139440, Note_on_c, 0, 61, 98
3, 139440, Note_on_c, 0, 68, 107
3, 139440, Note_on_c, 0, 49, 98
3, 139468, Note_off_c, 0, 65, 64
3, 139500, Note_off_c, 0, 68, 64
3, 139500, Note_off_c, 0, 61, 64
3, 139530, Note_off_c, 0, 49, 64
3, 139530, Note_off_c, 0, 77, 64
3, 139680, Note_on_c, 0, 77, 107
3, 139680, Note_on_c, 0, 49, 64
3, 139680, Note_on_c, 0, 74, 93
3, 139680, Note_on_c, 0, 58, 98
3, 139680, Note_on_c, 0, 46, 85
3, 139680, Note_on_c, 0, 55, 107
3, 139680, Note_on_c, 0, 65, 107
3, 139680, Note_on_c, 0, 67, 113
3, 139708, Note_off_c, 0, 74, 64
3, 139740, Note_off_c, 0, 67, 64
3, 139740, Note_off_c, 0, 65, 64
3, 139740, Note_off_c, 0, 55, 64
3, 139740, Note_off_c, 0, 49, 64
3, 139740, Note_off_c, 0, 77, 64
3, 139770, Note_off_c, 0, 46, 64
3, 139770, Note_off_c, 0, 58, 64
3, 140160, Note_on_c, 0, 70, 107
3, 140160, Note_on_c, 0, 71, 102
3, 140160, Note_on_c, 0, 60, 107
3, 140160, Note_on_c, 0, 55, 107
3, 140160, Note_on_c, 0, 52, 113
3, 140160, Note_on_c, 0, 48, 93
3, 140160, Note_on_c, 0, 76, 107
3, 140160, Note_on_c, 0, 67, 98
3, 140160, Note_on_c, 0, 64, 76
3, 140188, Note_off_c, 0, 71, 64
3, 140220, Note_off_c, 0, 64, 64
3, 140220, Note_off_c, 0, 67, 64
3, 140220, Note_off_c, 0, 76, 64
3, 140220, Note_off_c, 0, 48, 64
3, 140220, Note_off_c, 0, 52, 64
3, 140220, Note_off_c, 0, 55, 64
3, 140220, Note_off_c, 0, 60, 64
3, 140220, Note_off_c, 0, 70, 64
3, 140670, Note_on_c, 0, 48, 102
3, 140670, Note_on_c, 0, 77, 107
3, 140670, Note_on_c, 0, 68, 107
3, 140670, Note_on_c, 0, 72, 113
3, 140670, Note_on_c, 0, 65, 113
3, 140670, Note_on_c, 0, 76, 55
3, 140670, Note_on_c, 0, 44, 85
3, 140670, Note_on_c, 0, 41, 93
3, 140670, Note_on_c, 0, 53, 102
3, 140698, Note_off_c, 0, 76, 64
3, 140730, Note_off_c, 0, 65, 64
3, 140730, Note_off_c, 0, 72, 64
3, 140730, Note_off_c, 0, 68, 64
3, 140730, Note_off_c, 0, 77, 64
3, 140760, Note_off_c, 0, 48, 64
3, 140790, Note_off_c, 0, 53, 64
3, 140820, Note_off_c, 0, 41, 64
3, 140820, Note_off_c, 0, 44, 64
3, 141120, Control_c, 0, 121, 0
3, 141120, End_track
4, 0, Start_track
4, 0, Title_t, "Title:  Piano Sonata in Fmin (Op\001"
4, 0, End_track
5, 0, Start_track
5, 0, Title_t, "Composer:  Ludwig van Beethoven"
5, 0, End_track
6, 0, Start_track
6, 0, Title_t, "Sequence:  Faren Raborn, Copyrig\001"
6, 0, End_track
7, 0, Start_track
7, 0, Title_t, "Email:  raborn@dtx.net"
7, 0, End_track
0, 0, End_of_file