0, 0, Header, 1, 4, 120
1, 0, Start_track
1, 0, Title_t, "Opus 82 Numero 1  Dimmi ben mio che m' ami"
1, 0, Title_t, "Vier arietten und ein duett Opus 82"
1, 0, Copyright_t, "Copyright \251 2003 di FIORELLA ED ARMANDO ORLANDI"
1, 0, Text_t, "Quattro Ariette ed un duetto, per voce e pianoforte, per soprano, tenore e pianoforte, Opus 82, \012"
1, 0, Text_t, "1809 circa (pu= darsi che la prima origine di qualcuna risalga all' epoca degli studi con Salieri; la messa a punto in ogni modo va sempre riferita all' epoca come sopra data) \012"
1, 0, Text_t, "Pubblicati a Lipsia, Breitkopf e Hartel, luglio 1811.\012"
1, 0, Text_t, "G.A. 220 (Serie 23/6) Boett. VIII/5-9 - Bruers 82 -Kinsky-Halm 82 - Nottebohm 82 - L.III, pagina 206 \012"
1, 0, Text_t, "Thayer 163.\012"
1, 0, Text_t, "I. Hoffnung (Speranza):  Dimmi ben mio che m' ami.\012"
1, 0, Text_t, "Dimmi ben mio che m' ami.\012"
1, 0, Text_t, "Dimmi ben mio che m' ami\012"
1, 0, Text_t, "dimmi che mia tu sei,\012"
1, 0, Text_t, "e non invidio agli dei\012"
1, 0, Text_t, "la lor divinit\323.\012"
1, 0, Text_t, "Con un tuo sguardo solo,\012"
1, 0, Text_t, "cara, con un sorriso \012"
1, 0, Text_t, "tu m' apri il paradiso \012"
1, 0, Text_t, "di mia felicit\323, si, di mia felicit\323.\012"
1, 0, Text_t, "Un manoscritto, differente in parte, specialmente nell' accompagnamento, dalla redazione pubblicata dalla G.A. e posteriore ad essa, si trova nella biblioteca del conservatorio di Parigi (Max Unger, pagine\012"
1, 0, Text_t, "98/38) (vedere Hess, catalogo 120 e quinto fascicolo dei Supplemente zur G.A. pagine 32-37 ed 88, 1962).\012"
1, 0, Text_t, "L' autore del testo \336 sconosciuto.\012"
1, 0, Text_t, "La musica \336 molto gentile e segue il modello del delicato melodiare e fraseggiare italiano. Una imitazione di stile preziosa e il ""piacere di una bellezza creata per amabile gioco; a specchio di un mondo classicamente imbevuto di pura armonia, di nitide \012"
1, 0, Text_t, "(Liuzzi, Introduzione alla lirica vocale di Beethoven, pagina16).\012"
1, 0, Time_signature, 4, 2, 24, 8
1, 0, Key_signature, 3, "major"
1, 0, Tempo, 517241
1, 3960, Tempo, 833333
1, 4320, Tempo, 833333
1, 5638, Tempo, 833333
1, 5662, Tempo, 821918
1, 5686, Tempo, 833333
1, 5704, Tempo, 845070
1, 5710, Tempo, 857143
1, 5722, Tempo, 869565
1, 5742, Tempo, 882353
1, 5752, Tempo, 895522
1, 5758, Tempo, 909091
1, 5776, Tempo, 923077
1, 5782, Tempo, 937500
1, 5790, Tempo, 952381
1, 5814, Tempo, 967742
1, 5824, Tempo, 983607
1, 5830, Tempo, 1000000
1, 5842, Tempo, 1016949
1, 5848, Tempo, 1034483
1, 5856, Tempo, 1052632
1, 5872, Tempo, 1071429
1, 5884, Tempo, 1090909
1, 5892, Tempo, 1111111
1, 5914, Tempo, 1132075
1, 5924, Tempo, 1153846
1, 5932, Tempo, 1176471
1, 5950, Tempo, 1200000
1, 5958, Tempo, 1224490
1, 5964, Tempo, 1250000
1, 5996, Tempo, 1276596
1, 6016, Tempo, 517241
1, 12000, Tempo, 555556
1, 21586, Tempo, 550459
1, 21596, Tempo, 555556
1, 21606, Tempo, 560748
1, 21616, Tempo, 566038
1, 21626, Tempo, 571429
1, 21636, Tempo, 576923
1, 21646, Tempo, 582524
1, 21656, Tempo, 588235
1, 21664, Tempo, 594059
1, 21674, Tempo, 600000
1, 21684, Tempo, 606061
1, 21694, Tempo, 612245
1, 21704, Tempo, 618557
1, 21714, Tempo, 625000
1, 21724, Tempo, 631579
1, 21732, Tempo, 638298
1, 21742, Tempo, 645161
1, 21752, Tempo, 652174
1, 21762, Tempo, 659341
1, 21772, Tempo, 666667
1, 21782, Tempo, 674157
1, 21792, Tempo, 681818
1, 21800, Tempo, 689655
1, 21810, Tempo, 697674
1, 21820, Tempo, 705882
1, 21830, Tempo, 714286
1, 21840, Tempo, 722892
1, 21850, Tempo, 731707
1, 21860, Tempo, 740741
1, 21868, Tempo, 750000
1, 21878, Tempo, 759494
1, 21888, Tempo, 769231
1, 21898, Tempo, 779221
1, 21908, Tempo, 789474
1, 21918, Tempo, 800000
1, 21928, Tempo, 810811
1, 21936, Tempo, 821918
1, 21946, Tempo, 833333
1, 21956, Tempo, 845070
1, 21966, Tempo, 857143
1, 21976, Tempo, 869565
1, 21986, Tempo, 882353
1, 21996, Tempo, 895522
1, 22004, Tempo, 909091
1, 22014, Tempo, 923077
1, 22024, Tempo, 937500
1, 22034, Tempo, 952381
1, 22044, Tempo, 967742
1, 22054, Tempo, 983607
1, 22064, Tempo, 1000000
1, 22072, Tempo, 1016949
1, 22072, End_track
2, 0, Start_track
2, 0, Title_t, "Voce"
2, 0, Program_c, 0, 73
2, 0, Control_c, 0, 7, 118
2, 0, Control_c, 0, 10, 64
2, 0, Control_c, 0, 93, 19
2, 0, Control_c, 0, 91, 13
2, 480, Note_on_c, 0, 69, 60
2, 600, Note_on_c, 0, 69, 0
2, 600, Note_on_c, 0, 69, 60
2, 660, Note_on_c, 0, 69, 0
2, 660, Note_on_c, 0, 69, 60
2, 720, Note_on_c, 0, 69, 0
2, 720, Note_on_c, 0, 69, 60
2, 780, Note_on_c, 0, 69, 0
2, 780, Note_on_c, 0, 71, 60
2, 795, Note_on_c, 0, 71, 0
2, 795, Note_on_c, 0, 69, 60
2, 810, Note_on_c, 0, 69, 0
2, 810, Note_on_c, 0, 68, 60
2, 825, Note_on_c, 0, 68, 0
2, 825, Note_on_c, 0, 69, 60
2, 840, Note_on_c, 0, 69, 0
2, 840, Note_on_c, 0, 73, 60
2, 900, Note_on_c, 0, 73, 0
2, 900, Note_on_c, 0, 69, 60
2, 960, Note_on_c, 0, 69, 0
2, 960, Note_on_c, 0, 74, 60
2, 1140, Note_on_c, 0, 74, 0
2, 1140, Note_on_c, 0, 71, 60
2, 1200, Note_on_c, 0, 71, 0
2, 1200, Note_on_c, 0, 68, 60
2, 1320, Note_on_c, 0, 68, 0
2, 1440, Note_on_c, 0, 69, 60
2, 1500, Note_on_c, 0, 69, 0
2, 1500, Note_on_c, 0, 76, 60
2, 1560, Note_on_c, 0, 76, 0
2, 1560, Note_on_c, 0, 75, 60
2, 1620, Note_on_c, 0, 75, 0
2, 1620, Note_on_c, 0, 76, 60
2, 1680, Note_on_c, 0, 76, 0
2, 1680, Note_on_c, 0, 74, 60
2, 1740, Note_on_c, 0, 74, 0
2, 1740, Note_on_c, 0, 73, 60
2, 1800, Note_on_c, 0, 73, 0
2, 1800, Note_on_c, 0, 71, 60
2, 1860, Note_on_c, 0, 71, 0
2, 1860, Note_on_c, 0, 69, 60
2, 1920, Note_on_c, 0, 69, 0
2, 1920, Note_on_c, 0, 74, 60
2, 1980, Note_on_c, 0, 74, 0
2, 1980, Note_on_c, 0, 71, 60
2, 2040, Note_on_c, 0, 71, 0
2, 2040, Note_on_c, 0, 68, 60
2, 2160, Note_on_c, 0, 68, 0
2, 2400, Note_on_c, 0, 69, 58
2, 2520, Note_on_c, 0, 69, 0
2, 2520, Note_on_c, 0, 69, 72
2, 2580, Note_on_c, 0, 69, 0
2, 2580, Note_on_c, 0, 71, 79
2, 2640, Note_on_c, 0, 71, 0
2, 2640, Note_on_c, 0, 73, 86
2, 2760, Note_on_c, 0, 73, 0
2, 2760, Note_on_c, 0, 75, 97
2, 2880, Note_on_c, 0, 75, 0
2, 2880, Note_on_c, 0, 76, 100
2, 3180, Note_on_c, 0, 76, 0
2, 3180, Note_on_c, 0, 75, 100
2, 3240, Note_on_c, 0, 75, 0
2, 3240, Note_on_c, 0, 73, 99
2, 3300, Note_on_c, 0, 73, 0
2, 3300, Note_on_c, 0, 71, 100
2, 3360, Note_on_c, 0, 71, 0
2, 3360, Note_on_c, 0, 73, 100
2, 3570, Note_on_c, 0, 73, 0
2, 3585, Note_on_c, 0, 76, 96
2, 3600, Note_on_c, 0, 76, 0
2, 3600, Note_on_c, 0, 75, 94
2, 3660, Note_on_c, 0, 75, 0
2, 3660, Note_on_c, 0, 73, 91
2, 3720, Note_on_c, 0, 73, 0
2, 3720, Note_on_c, 0, 75, 88
2, 3780, Note_on_c, 0, 75, 0
2, 3780, Note_on_c, 0, 78, 82
2, 3840, Note_on_c, 0, 78, 0
2, 3840, Note_on_c, 0, 76, 78
2, 3960, Note_on_c, 0, 76, 0
2, 4320, Note_on_c, 0, 71, 58
2, 4440, Note_on_c, 0, 71, 0
2, 4440, Note_on_c, 0, 71, 61
2, 4500, Note_on_c, 0, 71, 0
2, 4500, Note_on_c, 0, 69, 61
2, 4560, Note_on_c, 0, 69, 0
2, 4560, Note_on_c, 0, 68, 60
2, 4620, Note_on_c, 0, 68, 0
2, 4620, Note_on_c, 0, 71, 60
2, 4680, Note_on_c, 0, 71, 0
2, 4680, Note_on_c, 0, 69, 60
2, 4740, Note_on_c, 0, 69, 0
2, 4740, Note_on_c, 0, 73, 60
2, 4800, Note_on_c, 0, 73, 0
2, 4800, Note_on_c, 0, 73, 61
2, 4920, Note_on_c, 0, 73, 0
2, 4920, Note_on_c, 0, 71, 60
2, 5040, Note_on_c, 0, 71, 0
2, 5280, Note_on_c, 0, 74, 70
2, 5400, Note_on_c, 0, 74, 0
2, 5400, Note_on_c, 0, 74, 70
2, 5460, Note_on_c, 0, 74, 0
2, 5460, Note_on_c, 0, 73, 71
2, 5520, Note_on_c, 0, 73, 0
2, 5520, Note_on_c, 0, 71, 70
2, 5560, Note_on_c, 0, 71, 0
2, 5560, Note_on_c, 0, 73, 68
2, 5600, Note_on_c, 0, 73, 0
2, 5600, Note_on_c, 0, 74, 67
2, 5640, Note_on_c, 0, 74, 0
2, 5640, Note_on_c, 0, 73, 66
2, 5680, Note_on_c, 0, 73, 0
2, 5680, Note_on_c, 0, 74, 65
2, 5720, Note_on_c, 0, 74, 0
2, 5720, Note_on_c, 0, 76, 64
2, 5760, Note_on_c, 0, 76, 0
2, 5760, Note_on_c, 0, 76, 64
2, 5790, Note_on_c, 0, 76, 0
2, 5790, Note_on_c, 0, 74, 62
2, 5820, Note_on_c, 0, 74, 0
2, 5820, Note_on_c, 0, 73, 62
2, 5850, Note_on_c, 0, 73, 0
2, 5850, Note_on_c, 0, 74, 61
2, 5880, Note_on_c, 0, 74, 0
2, 5880, Note_on_c, 0, 71, 61
2, 6000, Note_on_c, 0, 71, 0
2, 6060, Note_on_c, 0, 72, 70
2, 6120, Note_on_c, 0, 72, 0
2, 6120, Note_on_c, 0, 72, 70
2, 6180, Note_on_c, 0, 72, 0
2, 6180, Note_on_c, 0, 74, 70
2, 6240, Note_on_c, 0, 74, 0
2, 6240, Note_on_c, 0, 76, 80
2, 6480, Note_on_c, 0, 76, 0
2, 6480, Note_on_c, 0, 76, 90
2, 6720, Note_on_c, 0, 76, 0
2, 6720, Note_on_c, 0, 77, 79
2, 6840, Note_on_c, 0, 77, 0
2, 6840, Note_on_c, 0, 77, 82
2, 6900, Note_on_c, 0, 77, 0
2, 6900, Note_on_c, 0, 77, 84
2, 6960, Note_on_c, 0, 77, 0
2, 6960, Note_on_c, 0, 76, 85
2, 7020, Note_on_c, 0, 76, 0
2, 7020, Note_on_c, 0, 74, 88
2, 7080, Note_on_c, 0, 74, 0
2, 7080, Note_on_c, 0, 72, 89
2, 7140, Note_on_c, 0, 72, 0
2, 7140, Note_on_c, 0, 71, 91
2, 7200, Note_on_c, 0, 71, 0
2, 7200, Note_on_c, 0, 72, 92
2, 7380, Note_on_c, 0, 72, 0
2, 7380, Note_on_c, 0, 72, 76
2, 7440, Note_on_c, 0, 72, 0
2, 7440, Note_on_c, 0, 74, 80
2, 7500, Note_on_c, 0, 74, 0
2, 7500, Note_on_c, 0, 76, 84
2, 7560, Note_on_c, 0, 76, 0
2, 7560, Note_on_c, 0, 77, 88
2, 7620, Note_on_c, 0, 77, 0
2, 7620, Note_on_c, 0, 74, 90
2, 7680, Note_on_c, 0, 74, 0
2, 7680, Note_on_c, 0, 79, 92
2, 7800, Note_on_c, 0, 79, 0
2, 7800, Note_on_c, 0, 76, 92
2, 7860, Note_on_c, 0, 76, 0
2, 7860, Note_on_c, 0, 76, 82
2, 7920, Note_on_c, 0, 76, 0
2, 7920, Note_on_c, 0, 74, 85
2, 7980, Note_on_c, 0, 74, 0
2, 7980, Note_on_c, 0, 76, 88
2, 8040, Note_on_c, 0, 76, 0
2, 8040, Note_on_c, 0, 77, 92
2, 8100, Note_on_c, 0, 77, 0
2, 8100, Note_on_c, 0, 74, 97
2, 8160, Note_on_c, 0, 74, 0
2, 8160, Note_on_c, 0, 72, 104
2, 8280, Note_on_c, 0, 72, 0
2, 8880, Note_on_c, 0, 77, 60
2, 8940, Note_on_c, 0, 77, 0
2, 8940, Note_on_c, 0, 74, 58
2, 9000, Note_on_c, 0, 74, 0
2, 9000, Note_on_c, 0, 71, 60
2, 9120, Note_on_c, 0, 71, 0
2, 9840, Note_on_c, 0, 74, 59
2, 9900, Note_on_c, 0, 74, 0
2, 9900, Note_on_c, 0, 71, 56
2, 9960, Note_on_c, 0, 71, 0
2, 9960, Note_on_c, 0, 68, 54
2, 10080, Note_on_c, 0, 68, 0
2, 10320, Note_on_c, 0, 74, 62
2, 10440, Note_on_c, 0, 74, 0
2, 10440, Note_on_c, 0, 71, 63
2, 10500, Note_on_c, 0, 71, 0
2, 10500, Note_on_c, 0, 71, 62
2, 10560, Note_on_c, 0, 71, 0
2, 10560, Note_on_c, 0, 68, 60
2, 10680, Note_on_c, 0, 68, 0
2, 10680, Note_on_c, 0, 76, 60
2, 10920, Note_on_c, 0, 76, 0
2, 10920, Note_on_c, 0, 74, 62
2, 10980, Note_on_c, 0, 74, 0
2, 10980, Note_on_c, 0, 71, 62
2, 11040, Note_on_c, 0, 71, 0
2, 11040, Note_on_c, 0, 68, 61
2, 11160, Note_on_c, 0, 68, 0
2, 11160, Note_on_c, 0, 76, 60
2, 11280, Note_on_c, 0, 76, 0
2, 11280, Note_on_c, 0, 74, 60
2, 11400, Note_on_c, 0, 74, 0
2, 11400, Note_on_c, 0, 71, 62
2, 11520, Note_on_c, 0, 71, 0
2, 11520, Note_on_c, 0, 68, 63
2, 11580, Note_on_c, 0, 68, 0
2, 11580, Note_on_c, 0, 76, 61
2, 11640, Note_on_c, 0, 76, 0
2, 11640, Note_on_c, 0, 74, 61
2, 11700, Note_on_c, 0, 74, 0
2, 11700, Note_on_c, 0, 71, 61
2, 11760, Note_on_c, 0, 71, 0
2, 11760, Note_on_c, 0, 68, 63
2, 11800, Note_on_c, 0, 68, 0
2, 11800, Note_on_c, 0, 78, 63
2, 11840, Note_on_c, 0, 78, 0
2, 11840, Note_on_c, 0, 76, 64
2, 11880, Note_on_c, 0, 76, 0
2, 11880, Note_on_c, 0, 74, 64
2, 11920, Note_on_c, 0, 74, 0
2, 11920, Note_on_c, 0, 73, 65
2, 11960, Note_on_c, 0, 73, 0
2, 11960, Note_on_c, 0, 71, 65
2, 12000, Note_on_c, 0, 71, 0
2, 12000, Note_on_c, 0, 69, 65
2, 12060, Note_on_c, 0, 69, 0
2, 12060, Note_on_c, 0, 76, 65
2, 12120, Note_on_c, 0, 76, 0
2, 12120, Note_on_c, 0, 75, 65
2, 12180, Note_on_c, 0, 75, 0
2, 12180, Note_on_c, 0, 76, 65
2, 12240, Note_on_c, 0, 76, 0
2, 12240, Note_on_c, 0, 74, 65
2, 12280, Note_on_c, 0, 74, 0
2, 12280, Note_on_c, 0, 73, 65
2, 12320, Note_on_c, 0, 73, 0
2, 12320, Note_on_c, 0, 73, 65
2, 12360, Note_on_c, 0, 73, 0
2, 12360, Note_on_c, 0, 73, 64
2, 12400, Note_on_c, 0, 73, 0
2, 12400, Note_on_c, 0, 71, 63
2, 12440, Note_on_c, 0, 71, 0
2, 12440, Note_on_c, 0, 69, 63
2, 12480, Note_on_c, 0, 69, 0
2, 12480, Note_on_c, 0, 76, 62
2, 12540, Note_on_c, 0, 76, 0
2, 12540, Note_on_c, 0, 74, 61
2, 12660, Note_on_c, 0, 74, 0
2, 12660, Note_on_c, 0, 71, 60
2, 12720, Note_on_c, 0, 71, 0
2, 12720, Note_on_c, 0, 68, 60
2, 12840, Note_on_c, 0, 68, 0
2, 12840, Note_on_c, 0, 68, 60
2, 12960, Note_on_c, 0, 68, 0
2, 12960, Note_on_c, 0, 67, 60
2, 13140, Note_on_c, 0, 67, 0
2, 13140, Note_on_c, 0, 67, 60
2, 13200, Note_on_c, 0, 67, 0
2, 13200, Note_on_c, 0, 67, 60
2, 13260, Note_on_c, 0, 67, 0
2, 13275, Note_on_c, 0, 69, 60
2, 13290, Note_on_c, 0, 69, 0
2, 13290, Note_on_c, 0, 67, 60
2, 13305, Note_on_c, 0, 67, 0
2, 13305, Note_on_c, 0, 66, 60
2, 13320, Note_on_c, 0, 66, 0
2, 13320, Note_on_c, 0, 67, 60
2, 13380, Note_on_c, 0, 67, 0
2, 13380, Note_on_c, 0, 69, 60
2, 13440, Note_on_c, 0, 69, 0
2, 13440, Note_on_c, 0, 66, 60
2, 13560, Note_on_c, 0, 66, 0
2, 13560, Note_on_c, 0, 69, 60
2, 13680, Note_on_c, 0, 69, 0
2, 13680, Note_on_c, 0, 74, 60
2, 13800, Note_on_c, 0, 74, 0
2, 13800, Note_on_c, 0, 69, 64
2, 13860, Note_on_c, 0, 69, 0
2, 13860, Note_on_c, 0, 78, 64
2, 13920, Note_on_c, 0, 78, 0
2, 13920, Note_on_c, 0, 78, 65
2, 13980, Note_on_c, 0, 78, 0
2, 13980, Note_on_c, 0, 76, 66
2, 14040, Note_on_c, 0, 76, 0
2, 14040, Note_on_c, 0, 74, 69
2, 14100, Note_on_c, 0, 74, 0
2, 14100, Note_on_c, 0, 73, 69
2, 14160, Note_on_c, 0, 73, 0
2, 14160, Note_on_c, 0, 71, 70
2, 14220, Note_on_c, 0, 71, 0
2, 14220, Note_on_c, 0, 69, 72
2, 14280, Note_on_c, 0, 69, 0
2, 14340, Note_on_c, 0, 67, 75
2, 14400, Note_on_c, 0, 67, 0
2, 14400, Note_on_c, 0, 67, 77
2, 14430, Note_on_c, 0, 67, 0
2, 14430, Note_on_c, 0, 66, 77
2, 14460, Note_on_c, 0, 66, 0
2, 14460, Note_on_c, 0, 69, 78
2, 14490, Note_on_c, 0, 69, 0
2, 14490, Note_on_c, 0, 67, 79
2, 14520, Note_on_c, 0, 67, 0
2, 14520, Note_on_c, 0, 66, 80
2, 14580, Note_on_c, 0, 66, 0
2, 14580, Note_on_c, 0, 68, 83
2, 14640, Note_on_c, 0, 68, 0
2, 14640, Note_on_c, 0, 69, 86
2, 14700, Note_on_c, 0, 69, 0
2, 14700, Note_on_c, 0, 71, 90
2, 14760, Note_on_c, 0, 71, 0
2, 14760, Note_on_c, 0, 73, 96
2, 14820, Note_on_c, 0, 73, 0
2, 14820, Note_on_c, 0, 74, 99
2, 14880, Note_on_c, 0, 74, 0
2, 14880, Note_on_c, 0, 76, 102
2, 15240, Note_on_c, 0, 76, 0
2, 15240, Note_on_c, 0, 74, 86
2, 15300, Note_on_c, 0, 74, 0
2, 15300, Note_on_c, 0, 73, 80
2, 15360, Note_on_c, 0, 73, 0
2, 15360, Note_on_c, 0, 71, 77
2, 15420, Note_on_c, 0, 71, 0
2, 15420, Note_on_c, 0, 73, 72
2, 15480, Note_on_c, 0, 73, 0
2, 15480, Note_on_c, 0, 74, 68
2, 15540, Note_on_c, 0, 74, 0
2, 15540, Note_on_c, 0, 71, 62
2, 15570, Note_on_c, 0, 71, 0
2, 15570, Note_on_c, 0, 73, 60
2, 15600, Note_on_c, 0, 73, 0
2, 15600, Note_on_c, 0, 69, 59
2, 15720, Note_on_c, 0, 69, 0
2, 15720, Note_on_c, 0, 71, 60
2, 15840, Note_on_c, 0, 71, 0
2, 15840, Note_on_c, 0, 69, 56
2, 15960, Note_on_c, 0, 69, 0
2, 16800, Note_on_c, 0, 69, 60
2, 16860, Note_on_c, 0, 69, 0
2, 16860, Note_on_c, 0, 74, 63
2, 16920, Note_on_c, 0, 74, 0
2, 16920, Note_on_c, 0, 74, 65
2, 16980, Note_on_c, 0, 74, 0
2, 16980, Note_on_c, 0, 74, 63
2, 17040, Note_on_c, 0, 74, 0
2, 17040, Note_on_c, 0, 78, 62
2, 17100, Note_on_c, 0, 78, 0
2, 17100, Note_on_c, 0, 74, 62
2, 17160, Note_on_c, 0, 74, 0
2, 17160, Note_on_c, 0, 69, 62
2, 17220, Note_on_c, 0, 69, 0
2, 17220, Note_on_c, 0, 66, 61
2, 17280, Note_on_c, 0, 66, 0
2, 17280, Note_on_c, 0, 69, 59
2, 17340, Note_on_c, 0, 69, 0
2, 17340, Note_on_c, 0, 67, 58
2, 17400, Note_on_c, 0, 67, 0
2, 17400, Note_on_c, 0, 67, 57
2, 17520, Note_on_c, 0, 67, 0
2, 17520, Note_on_c, 0, 69, 53
2, 17700, Note_on_c, 0, 69, 0
2, 17700, Note_on_c, 0, 69, 60
2, 17760, Note_on_c, 0, 69, 0
2, 17760, Note_on_c, 0, 69, 57
2, 17820, Note_on_c, 0, 69, 0
2, 17820, Note_on_c, 0, 74, 58
2, 17880, Note_on_c, 0, 74, 0
2, 17880, Note_on_c, 0, 74, 59
2, 17940, Note_on_c, 0, 74, 0
2, 17940, Note_on_c, 0, 74, 59
2, 18000, Note_on_c, 0, 74, 0
2, 18000, Note_on_c, 0, 74, 59
2, 18060, Note_on_c, 0, 74, 0
2, 18060, Note_on_c, 0, 73, 60
2, 18120, Note_on_c, 0, 73, 0
2, 18120, Note_on_c, 0, 71, 60
2, 18160, Note_on_c, 0, 71, 0
2, 18160, Note_on_c, 0, 73, 59
2, 18200, Note_on_c, 0, 73, 0
2, 18200, Note_on_c, 0, 69, 59
2, 18240, Note_on_c, 0, 69, 0
2, 18240, Note_on_c, 0, 69, 59
2, 18270, Note_on_c, 0, 69, 0
2, 18270, Note_on_c, 0, 68, 60
2, 18300, Note_on_c, 0, 68, 0
2, 18300, Note_on_c, 0, 71, 60
2, 18330, Note_on_c, 0, 71, 0
2, 18330, Note_on_c, 0, 69, 61
2, 18360, Note_on_c, 0, 69, 0
2, 18360, Note_on_c, 0, 68, 62
2, 18420, Note_on_c, 0, 68, 0
2, 18420, Note_on_c, 0, 68, 65
2, 18480, Note_on_c, 0, 68, 0
2, 18480, Note_on_c, 0, 69, 68
2, 18540, Note_on_c, 0, 69, 0
2, 18540, Note_on_c, 0, 71, 74
2, 18600, Note_on_c, 0, 71, 0
2, 18600, Note_on_c, 0, 73, 80
2, 18660, Note_on_c, 0, 73, 0
2, 18660, Note_on_c, 0, 74, 84
2, 18720, Note_on_c, 0, 74, 0
2, 18720, Note_on_c, 0, 76, 94
2, 19080, Note_on_c, 0, 76, 0
2, 19080, Note_on_c, 0, 74, 83
2, 19140, Note_on_c, 0, 74, 0
2, 19140, Note_on_c, 0, 73, 82
2, 19200, Note_on_c, 0, 73, 0
2, 19200, Note_on_c, 0, 78, 82
2, 19320, Note_on_c, 0, 78, 0
2, 19320, Note_on_c, 0, 78, 81
2, 19380, Note_on_c, 0, 78, 0
2, 19380, Note_on_c, 0, 78, 81
2, 19440, Note_on_c, 0, 78, 0
2, 19440, Note_on_c, 0, 78, 81
2, 19530, Note_on_c, 0, 78, 0
2, 19530, Note_on_c, 0, 80, 82
2, 19558, Note_on_c, 0, 80, 0
2, 19560, Note_on_c, 0, 78, 83
2, 19620, Note_on_c, 0, 78, 0
2, 19620, Note_on_c, 0, 76, 86
2, 19680, Note_on_c, 0, 76, 0
2, 19680, Note_on_c, 0, 76, 89
2, 19800, Note_on_c, 0, 76, 0
2, 19800, Note_on_c, 0, 76, 101
2, 20040, Note_on_c, 0, 76, 0
2, 20040, Note_on_c, 0, 74, 67
2, 20100, Note_on_c, 0, 74, 0
2, 20100, Note_on_c, 0, 73, 65
2, 20160, Note_on_c, 0, 73, 0
2, 20160, Note_on_c, 0, 73, 65
2, 20220, Note_on_c, 0, 73, 0
2, 20220, Note_on_c, 0, 71, 64
2, 20280, Note_on_c, 0, 71, 0
2, 20280, Note_on_c, 0, 71, 63
2, 20340, Note_on_c, 0, 71, 0
2, 20340, Note_on_c, 0, 71, 62
2, 20400, Note_on_c, 0, 71, 0
2, 20400, Note_on_c, 0, 71, 61
2, 20440, Note_on_c, 0, 71, 0
2, 20440, Note_on_c, 0, 76, 60
2, 20480, Note_on_c, 0, 76, 0
2, 20480, Note_on_c, 0, 74, 59
2, 20520, Note_on_c, 0, 74, 0
2, 20520, Note_on_c, 0, 73, 59
2, 20560, Note_on_c, 0, 73, 0
2, 20560, Note_on_c, 0, 74, 58
2, 20600, Note_on_c, 0, 74, 0
2, 20600, Note_on_c, 0, 71, 58
2, 20640, Note_on_c, 0, 71, 0
2, 20640, Note_on_c, 0, 69, 57
2, 20760, Note_on_c, 0, 69, 0
2, 20760, End_track
3, 0, Start_track
3, 0, Title_t, "PianoD"
3, 0, Program_c, 1, 0
3, 0, Control_c, 1, 7, 88
3, 0, Control_c, 1, 10, 35
3, 0, Control_c, 1, 93, 10
3, 0, Control_c, 1, 91, 6
3, 480, Note_on_c, 1, 69, 60
3, 480, Note_on_c, 1, 64, 60
3, 480, Note_on_c, 1, 61, 60
3, 540, Note_on_c, 1, 61, 0
3, 540, Note_on_c, 1, 64, 0
3, 540, Note_on_c, 1, 69, 0
3, 600, Note_on_c, 1, 69, 60
3, 600, Note_on_c, 1, 64, 60
3, 600, Note_on_c, 1, 61, 60
3, 660, Note_on_c, 1, 61, 0
3, 660, Note_on_c, 1, 64, 0
3, 660, Note_on_c, 1, 69, 0
3, 720, Note_on_c, 1, 69, 60
3, 720, Note_on_c, 1, 64, 60
3, 720, Note_on_c, 1, 61, 60
3, 780, Note_on_c, 1, 61, 0
3, 780, Note_on_c, 1, 64, 0
3, 780, Note_on_c, 1, 69, 0
3, 840, Note_on_c, 1, 61, 60
3, 840, Note_on_c, 1, 64, 60
3, 840, Note_on_c, 1, 69, 60
3, 900, Note_on_c, 1, 69, 0
3, 900, Note_on_c, 1, 64, 0
3, 900, Note_on_c, 1, 61, 0
3, 960, Note_on_c, 1, 62, 60
3, 960, Note_on_c, 1, 64, 60
3, 960, Note_on_c, 1, 68, 60
3, 1020, Note_on_c, 1, 68, 0
3, 1020, Note_on_c, 1, 64, 0
3, 1020, Note_on_c, 1, 62, 0
3, 1080, Note_on_c, 1, 62, 60
3, 1080, Note_on_c, 1, 64, 60
3, 1080, Note_on_c, 1, 68, 60
3, 1140, Note_on_c, 1, 68, 0
3, 1140, Note_on_c, 1, 64, 0
3, 1140, Note_on_c, 1, 62, 0
3, 1200, Note_on_c, 1, 62, 60
3, 1200, Note_on_c, 1, 64, 60
3, 1200, Note_on_c, 1, 68, 60
3, 1260, Note_on_c, 1, 68, 0
3, 1260, Note_on_c, 1, 64, 0
3, 1260, Note_on_c, 1, 62, 0
3, 1320, Note_on_c, 1, 62, 60
3, 1320, Note_on_c, 1, 64, 60
3, 1320, Note_on_c, 1, 68, 60
3, 1380, Note_on_c, 1, 68, 0
3, 1380, Note_on_c, 1, 64, 0
3, 1380, Note_on_c, 1, 62, 0
3, 1440, Note_on_c, 1, 69, 60
3, 1440, Note_on_c, 1, 64, 60
3, 1440, Note_on_c, 1, 61, 60
3, 1500, Note_on_c, 1, 61, 0
3, 1500, Note_on_c, 1, 64, 0
3, 1500, Note_on_c, 1, 69, 0
3, 1560, Note_on_c, 1, 69, 60
3, 1560, Note_on_c, 1, 64, 60
3, 1560, Note_on_c, 1, 61, 60
3, 1620, Note_on_c, 1, 61, 0
3, 1620, Note_on_c, 1, 64, 0
3, 1620, Note_on_c, 1, 69, 0
3, 1680, Note_on_c, 1, 69, 60
3, 1680, Note_on_c, 1, 64, 60
3, 1680, Note_on_c, 1, 61, 60
3, 1740, Note_on_c, 1, 61, 0
3, 1740, Note_on_c, 1, 64, 0
3, 1740, Note_on_c, 1, 69, 0
3, 1800, Note_on_c, 1, 61, 60
3, 1800, Note_on_c, 1, 64, 60
3, 1800, Note_on_c, 1, 69, 60
3, 1860, Note_on_c, 1, 69, 0
3, 1860, Note_on_c, 1, 64, 0
3, 1860, Note_on_c, 1, 61, 0
3, 1920, Note_on_c, 1, 62, 60
3, 1920, Note_on_c, 1, 64, 60
3, 1920, Note_on_c, 1, 68, 60
3, 1980, Note_on_c, 1, 68, 0
3, 1980, Note_on_c, 1, 64, 0
3, 1980, Note_on_c, 1, 62, 0
3, 2040, Note_on_c, 1, 62, 60
3, 2040, Note_on_c, 1, 64, 60
3, 2040, Note_on_c, 1, 68, 60
3, 2100, Note_on_c, 1, 68, 0
3, 2100, Note_on_c, 1, 64, 0
3, 2100, Note_on_c, 1, 62, 0
3, 2160, Note_on_c, 1, 62, 60
3, 2160, Note_on_c, 1, 64, 60
3, 2160, Note_on_c, 1, 68, 60
3, 2220, Note_on_c, 1, 68, 0
3, 2220, Note_on_c, 1, 64, 0
3, 2220, Note_on_c, 1, 62, 0
3, 2280, Note_on_c, 1, 62, 60
3, 2280, Note_on_c, 1, 64, 60
3, 2280, Note_on_c, 1, 68, 60
3, 2340, Note_on_c, 1, 68, 0
3, 2340, Note_on_c, 1, 64, 0
3, 2340, Note_on_c, 1, 62, 0
3, 2400, Note_on_c, 1, 61, 60
3, 2400, Note_on_c, 1, 64, 60
3, 2400, Note_on_c, 1, 69, 60
3, 2460, Note_on_c, 1, 69, 0
3, 2460, Note_on_c, 1, 64, 0
3, 2460, Note_on_c, 1, 61, 0
3, 2520, Note_on_c, 1, 69, 60
3, 2520, Note_on_c, 1, 64, 60
3, 2520, Note_on_c, 1, 61, 60
3, 2580, Note_on_c, 1, 61, 0
3, 2580, Note_on_c, 1, 64, 0
3, 2580, Note_on_c, 1, 69, 0
3, 2640, Note_on_c, 1, 73, 60
3, 2640, Note_on_c, 1, 69, 60
3, 2640, Note_on_c, 1, 64, 60
3, 2700, Note_on_c, 1, 64, 0
3, 2700, Note_on_c, 1, 69, 0
3, 2700, Note_on_c, 1, 73, 0
3, 2760, Note_on_c, 1, 71, 60
3, 2760, Note_on_c, 1, 75, 60
3, 2760, Note_on_c, 1, 66, 60
3, 2820, Note_on_c, 1, 66, 0
3, 2820, Note_on_c, 1, 75, 0
3, 2820, Note_on_c, 1, 71, 0
3, 2880, Note_on_c, 1, 64, 100
3, 2880, Note_on_c, 1, 71, 100
3, 2880, Note_on_c, 1, 76, 100
3, 2940, Note_on_c, 1, 76, 0
3, 2940, Note_on_c, 1, 71, 0
3, 2940, Note_on_c, 1, 64, 0
3, 3000, Note_on_c, 1, 76, 100
3, 3000, Note_on_c, 1, 71, 100
3, 3000, Note_on_c, 1, 64, 100
3, 3060, Note_on_c, 1, 64, 0
3, 3060, Note_on_c, 1, 71, 0
3, 3060, Note_on_c, 1, 76, 0
3, 3120, Note_on_c, 1, 64, 100
3, 3120, Note_on_c, 1, 71, 100
3, 3120, Note_on_c, 1, 76, 100
3, 3180, Note_on_c, 1, 76, 0
3, 3180, Note_on_c, 1, 71, 0
3, 3180, Note_on_c, 1, 64, 0
3, 3240, Note_on_c, 1, 71, 100
3, 3240, Note_on_c, 1, 64, 100
3, 3300, Note_on_c, 1, 64, 0
3, 3300, Note_on_c, 1, 71, 0
3, 3360, Note_on_c, 1, 73, 100
3, 3360, Note_on_c, 1, 64, 100
3, 3420, Note_on_c, 1, 64, 0
3, 3420, Note_on_c, 1, 73, 0
3, 3480, Note_on_c, 1, 64, 100
3, 3480, Note_on_c, 1, 73, 100
3, 3540, Note_on_c, 1, 73, 0
3, 3540, Note_on_c, 1, 64, 0
3, 3600, Note_on_c, 1, 75, 100
3, 3600, Note_on_c, 1, 69, 100
3, 3600, Note_on_c, 1, 66, 100
3, 3660, Note_on_c, 1, 66, 0
3, 3660, Note_on_c, 1, 69, 0
3, 3660, Note_on_c, 1, 75, 0
3, 3720, Note_on_c, 1, 69, 100
3, 3720, Note_on_c, 1, 66, 100
3, 3720, Note_on_c, 1, 75, 100
3, 3780, Note_on_c, 1, 75, 0
3, 3780, Note_on_c, 1, 66, 0
3, 3780, Note_on_c, 1, 69, 0
3, 3840, Note_on_c, 1, 76, 100
3, 3840, Note_on_c, 1, 68, 100
3, 3960, Note_on_c, 1, 68, 0
3, 3960, Note_on_c, 1, 76, 0
3, 3960, Note_on_c, 1, 71, 70
3, 4200, Note_on_c, 1, 71, 0
3, 4200, Note_on_c, 1, 68, 70
3, 4320, Note_on_c, 1, 68, 0
3, 4320, Note_on_c, 1, 64, 70
3, 4440, Note_on_c, 1, 64, 0
3, 4960, Note_on_c, 1, 64, 70
3, 4970, Note_on_c, 1, 68, 70
3, 4980, Note_on_c, 1, 71, 70
3, 4990, Note_on_c, 1, 74, 70
3, 5200, Note_on_c, 1, 74, 0
3, 5200, Note_on_c, 1, 64, 0
3, 5210, Note_on_c, 1, 68, 0
3, 5220, Note_on_c, 1, 71, 0
3, 5220, Note_on_c, 1, 71, 70
3, 5280, Note_on_c, 1, 71, 0
3, 5320, Note_on_c, 1, 64, 70
3, 5330, Note_on_c, 1, 68, 70
3, 5340, Note_on_c, 1, 71, 70
3, 5350, Note_on_c, 1, 74, 70
3, 5560, Note_on_c, 1, 64, 0
3, 5570, Note_on_c, 1, 68, 0
3, 5580, Note_on_c, 1, 71, 0
3, 5590, Note_on_c, 1, 74, 0
3, 6060, Note_on_c, 1, 67, 70
3, 6060, Note_on_c, 1, 72, 70
3, 6120, Note_on_c, 1, 72, 0
3, 6120, Note_on_c, 1, 67, 0
3, 6120, Note_on_c, 1, 67, 70
3, 6120, Note_on_c, 1, 72, 70
3, 6180, Note_on_c, 1, 72, 0
3, 6180, Note_on_c, 1, 67, 0
3, 6180, Note_on_c, 1, 67, 70
3, 6180, Note_on_c, 1, 71, 70
3, 6180, Note_on_c, 1, 74, 70
3, 6240, Note_on_c, 1, 74, 0
3, 6240, Note_on_c, 1, 71, 0
3, 6240, Note_on_c, 1, 67, 0
3, 6240, Note_on_c, 1, 67, 77
3, 6270, Note_on_c, 1, 67, 0
3, 6270, Note_on_c, 1, 72, 77
3, 6300, Note_on_c, 1, 72, 0
3, 6300, Note_on_c, 1, 76, 78
3, 6330, Note_on_c, 1, 76, 0
3, 6330, Note_on_c, 1, 72, 79
3, 6360, Note_on_c, 1, 72, 0
3, 6360, Note_on_c, 1, 67, 79
3, 6390, Note_on_c, 1, 67, 0
3, 6390, Note_on_c, 1, 72, 81
3, 6420, Note_on_c, 1, 72, 0
3, 6420, Note_on_c, 1, 76, 82
3, 6450, Note_on_c, 1, 76, 0
3, 6450, Note_on_c, 1, 72, 84
3, 6480, Note_on_c, 1, 72, 0
3, 6480, Note_on_c, 1, 67, 85
3, 6510, Note_on_c, 1, 67, 0
3, 6510, Note_on_c, 1, 70, 86
3, 6540, Note_on_c, 1, 70, 0
3, 6540, Note_on_c, 1, 76, 88
3, 6570, Note_on_c, 1, 76, 0
3, 6570, Note_on_c, 1, 70, 89
3, 6600, Note_on_c, 1, 70, 0
3, 6600, Note_on_c, 1, 67, 91
3, 6630, Note_on_c, 1, 67, 0
3, 6630, Note_on_c, 1, 70, 92
3, 6660, Note_on_c, 1, 70, 0
3, 6660, Note_on_c, 1, 76, 94
3, 6690, Note_on_c, 1, 76, 0
3, 6690, Note_on_c, 1, 70, 94
3, 6720, Note_on_c, 1, 70, 0
3, 6720, Note_on_c, 1, 65, 95
3, 6750, Note_on_c, 1, 65, 0
3, 6750, Note_on_c, 1, 69, 96
3, 6780, Note_on_c, 1, 69, 0
3, 6780, Note_on_c, 1, 77, 97
3, 6810, Note_on_c, 1, 77, 0
3, 6810, Note_on_c, 1, 69, 97
3, 6840, Note_on_c, 1, 69, 0
3, 6840, Note_on_c, 1, 65, 97
3, 6870, Note_on_c, 1, 65, 0
3, 6870, Note_on_c, 1, 69, 97
3, 6900, Note_on_c, 1, 69, 0
3, 6900, Note_on_c, 1, 77, 97
3, 6930, Note_on_c, 1, 77, 0
3, 6930, Note_on_c, 1, 69, 97
3, 6960, Note_on_c, 1, 69, 0
3, 6960, Note_on_c, 1, 65, 97
3, 6990, Note_on_c, 1, 65, 0
3, 6990, Note_on_c, 1, 71, 97
3, 7020, Note_on_c, 1, 71, 0
3, 7020, Note_on_c, 1, 74, 97
3, 7050, Note_on_c, 1, 74, 0
3, 7050, Note_on_c, 1, 71, 97
3, 7080, Note_on_c, 1, 71, 0
3, 7080, Note_on_c, 1, 65, 97
3, 7110, Note_on_c, 1, 65, 0
3, 7110, Note_on_c, 1, 71, 97
3, 7140, Note_on_c, 1, 71, 0
3, 7140, Note_on_c, 1, 74, 97
3, 7170, Note_on_c, 1, 74, 0
3, 7170, Note_on_c, 1, 71, 97
3, 7200, Note_on_c, 1, 71, 0
3, 7200, Note_on_c, 1, 64, 96
3, 7230, Note_on_c, 1, 64, 0
3, 7230, Note_on_c, 1, 67, 96
3, 7260, Note_on_c, 1, 67, 0
3, 7260, Note_on_c, 1, 73, 96
3, 7290, Note_on_c, 1, 73, 0
3, 7290, Note_on_c, 1, 67, 95
3, 7320, Note_on_c, 1, 67, 0
3, 7320, Note_on_c, 1, 64, 95
3, 7350, Note_on_c, 1, 64, 0
3, 7350, Note_on_c, 1, 67, 94
3, 7380, Note_on_c, 1, 67, 0
3, 7380, Note_on_c, 1, 73, 94
3, 7410, Note_on_c, 1, 73, 0
3, 7410, Note_on_c, 1, 67, 94
3, 7440, Note_on_c, 1, 67, 0
3, 7440, Note_on_c, 1, 65, 94
3, 7470, Note_on_c, 1, 65, 0
3, 7470, Note_on_c, 1, 67, 94
3, 7500, Note_on_c, 1, 67, 0
3, 7500, Note_on_c, 1, 74, 94
3, 7530, Note_on_c, 1, 74, 0
3, 7530, Note_on_c, 1, 67, 94
3, 7560, Note_on_c, 1, 67, 0
3, 7560, Note_on_c, 1, 65, 95
3, 7590, Note_on_c, 1, 65, 0
3, 7590, Note_on_c, 1, 67, 95
3, 7620, Note_on_c, 1, 67, 0
3, 7620, Note_on_c, 1, 74, 95
3, 7650, Note_on_c, 1, 74, 0
3, 7650, Note_on_c, 1, 67, 95
3, 7680, Note_on_c, 1, 67, 0
3, 7680, Note_on_c, 1, 67, 95
3, 7710, Note_on_c, 1, 67, 0
3, 7710, Note_on_c, 1, 76, 95
3, 7740, Note_on_c, 1, 76, 0
3, 7740, Note_on_c, 1, 79, 95
3, 7770, Note_on_c, 1, 79, 0
3, 7770, Note_on_c, 1, 76, 95
3, 7800, Note_on_c, 1, 76, 0
3, 7800, Note_on_c, 1, 67, 95
3, 7830, Note_on_c, 1, 67, 0
3, 7830, Note_on_c, 1, 72, 95
3, 7860, Note_on_c, 1, 72, 0
3, 7860, Note_on_c, 1, 76, 95
3, 7890, Note_on_c, 1, 76, 0
3, 7890, Note_on_c, 1, 72, 95
3, 7920, Note_on_c, 1, 72, 0
3, 7920, Note_on_c, 1, 65, 95
3, 7950, Note_on_c, 1, 65, 0
3, 7950, Note_on_c, 1, 71, 95
3, 7980, Note_on_c, 1, 71, 0
3, 7980, Note_on_c, 1, 74, 95
3, 8010, Note_on_c, 1, 74, 0
3, 8010, Note_on_c, 1, 71, 95
3, 8040, Note_on_c, 1, 71, 0
3, 8040, Note_on_c, 1, 65, 95
3, 8070, Note_on_c, 1, 65, 0
3, 8070, Note_on_c, 1, 71, 95
3, 8100, Note_on_c, 1, 71, 0
3, 8100, Note_on_c, 1, 74, 95
3, 8130, Note_on_c, 1, 74, 0
3, 8130, Note_on_c, 1, 71, 95
3, 8160, Note_on_c, 1, 71, 0
3, 8160, Note_on_c, 1, 72, 92
3, 8280, Note_on_c, 1, 72, 0
3, 8280, Note_on_c, 1, 72, 69
3, 8340, Note_on_c, 1, 72, 0
3, 8340, Note_on_c, 1, 72, 70
3, 8400, Note_on_c, 1, 72, 0
3, 8400, Note_on_c, 1, 74, 71
3, 8415, Note_on_c, 1, 74, 0
3, 8415, Note_on_c, 1, 72, 71
3, 8430, Note_on_c, 1, 72, 0
3, 8430, Note_on_c, 1, 74, 70
3, 8445, Note_on_c, 1, 74, 0
3, 8445, Note_on_c, 1, 72, 70
3, 8460, Note_on_c, 1, 72, 0
3, 8460, Note_on_c, 1, 74, 70
3, 8475, Note_on_c, 1, 74, 0
3, 8475, Note_on_c, 1, 72, 70
3, 8490, Note_on_c, 1, 72, 0
3, 8490, Note_on_c, 1, 74, 69
3, 8505, Note_on_c, 1, 74, 0
3, 8505, Note_on_c, 1, 72, 69
3, 8520, Note_on_c, 1, 72, 0
3, 8520, Note_on_c, 1, 76, 69
3, 8580, Note_on_c, 1, 76, 0
3, 8580, Note_on_c, 1, 72, 68
3, 8640, Note_on_c, 1, 72, 0
3, 8640, Note_on_c, 1, 77, 67
3, 8700, Note_on_c, 1, 77, 0
3, 8700, Note_on_c, 1, 74, 66
3, 8760, Note_on_c, 1, 74, 0
3, 8760, Note_on_c, 1, 71, 65
3, 8880, Note_on_c, 1, 71, 0
3, 9120, Note_on_c, 1, 72, 66
3, 9240, Note_on_c, 1, 72, 0
3, 9240, Note_on_c, 1, 72, 66
3, 9300, Note_on_c, 1, 72, 0
3, 9300, Note_on_c, 1, 72, 66
3, 9360, Note_on_c, 1, 72, 0
3, 9360, Note_on_c, 1, 74, 66
3, 9375, Note_on_c, 1, 74, 0
3, 9375, Note_on_c, 1, 72, 66
3, 9390, Note_on_c, 1, 72, 0
3, 9390, Note_on_c, 1, 74, 66
3, 9405, Note_on_c, 1, 74, 0
3, 9405, Note_on_c, 1, 72, 66
3, 9420, Note_on_c, 1, 72, 0
3, 9420, Note_on_c, 1, 74, 66
3, 9435, Note_on_c, 1, 74, 0
3, 9435, Note_on_c, 1, 72, 66
3, 9450, Note_on_c, 1, 72, 0
3, 9450, Note_on_c, 1, 74, 65
3, 9465, Note_on_c, 1, 74, 0
3, 9465, Note_on_c, 1, 72, 65
3, 9480, Note_on_c, 1, 72, 0
3, 9480, Note_on_c, 1, 76, 65
3, 9540, Note_on_c, 1, 76, 0
3, 9540, Note_on_c, 1, 72, 64
3, 9600, Note_on_c, 1, 72, 0
3, 9600, Note_on_c, 1, 74, 63
3, 9660, Note_on_c, 1, 74, 0
3, 9660, Note_on_c, 1, 71, 63
3, 9720, Note_on_c, 1, 71, 0
3, 9720, Note_on_c, 1, 68, 61
3, 9840, Note_on_c, 1, 68, 0
3, 10080, Note_on_c, 1, 74, 60
3, 10140, Note_on_c, 1, 74, 0
3, 10140, Note_on_c, 1, 71, 60
3, 10200, Note_on_c, 1, 71, 0
3, 10200, Note_on_c, 1, 68, 60
3, 10320, Note_on_c, 1, 68, 0
3, 10440, Note_on_c, 1, 74, 60
3, 10500, Note_on_c, 1, 74, 0
3, 10500, Note_on_c, 1, 71, 60
3, 10560, Note_on_c, 1, 71, 0
3, 10560, Note_on_c, 1, 68, 60
3, 10680, Note_on_c, 1, 68, 0
3, 10680, Note_on_c, 1, 76, 60
3, 10920, Note_on_c, 1, 76, 0
3, 10920, Note_on_c, 1, 74, 60
3, 10980, Note_on_c, 1, 74, 0
3, 10980, Note_on_c, 1, 71, 60
3, 11040, Note_on_c, 1, 71, 0
3, 11040, Note_on_c, 1, 68, 60
3, 11160, Note_on_c, 1, 68, 0
3, 11160, Note_on_c, 1, 76, 60
3, 11280, Note_on_c, 1, 76, 0
3, 11280, Note_on_c, 1, 74, 60
3, 11400, Note_on_c, 1, 74, 0
3, 11400, Note_on_c, 1, 71, 60
3, 11520, Note_on_c, 1, 71, 0
3, 11520, Note_on_c, 1, 68, 60
3, 11580, Note_on_c, 1, 68, 0
3, 11580, Note_on_c, 1, 76, 60
3, 11640, Note_on_c, 1, 76, 0
3, 11640, Note_on_c, 1, 74, 60
3, 11700, Note_on_c, 1, 74, 0
3, 11700, Note_on_c, 1, 71, 60
3, 11760, Note_on_c, 1, 71, 0
3, 11760, Note_on_c, 1, 68, 60
3, 11800, Note_on_c, 1, 68, 0
3, 11800, Note_on_c, 1, 78, 60
3, 11840, Note_on_c, 1, 78, 0
3, 11840, Note_on_c, 1, 76, 60
3, 11880, Note_on_c, 1, 76, 0
3, 11880, Note_on_c, 1, 74, 60
3, 11920, Note_on_c, 1, 74, 0
3, 11920, Note_on_c, 1, 73, 60
3, 11960, Note_on_c, 1, 73, 0
3, 11960, Note_on_c, 1, 71, 60
3, 12000, Note_on_c, 1, 71, 0
3, 12000, Note_on_c, 1, 69, 60
3, 12000, Note_on_c, 1, 64, 60
3, 12000, Note_on_c, 1, 61, 60
3, 12060, Note_on_c, 1, 61, 0
3, 12060, Note_on_c, 1, 64, 0
3, 12060, Note_on_c, 1, 69, 0
3, 12120, Note_on_c, 1, 69, 60
3, 12120, Note_on_c, 1, 64, 60
3, 12120, Note_on_c, 1, 61, 60
3, 12180, Note_on_c, 1, 61, 0
3, 12180, Note_on_c, 1, 64, 0
3, 12180, Note_on_c, 1, 69, 0
3, 12240, Note_on_c, 1, 69, 58
3, 12240, Note_on_c, 1, 64, 58
3, 12240, Note_on_c, 1, 61, 58
3, 12300, Note_on_c, 1, 61, 0
3, 12300, Note_on_c, 1, 64, 0
3, 12300, Note_on_c, 1, 69, 0
3, 12360, Note_on_c, 1, 61, 58
3, 12360, Note_on_c, 1, 64, 58
3, 12360, Note_on_c, 1, 69, 58
3, 12420, Note_on_c, 1, 69, 0
3, 12420, Note_on_c, 1, 64, 0
3, 12420, Note_on_c, 1, 61, 0
3, 12480, Note_on_c, 1, 62, 57
3, 12480, Note_on_c, 1, 64, 57
3, 12480, Note_on_c, 1, 68, 57
3, 12540, Note_on_c, 1, 68, 0
3, 12540, Note_on_c, 1, 64, 0
3, 12540, Note_on_c, 1, 62, 0
3, 12600, Note_on_c, 1, 62, 56
3, 12600, Note_on_c, 1, 64, 56
3, 12600, Note_on_c, 1, 68, 56
3, 12660, Note_on_c, 1, 68, 0
3, 12660, Note_on_c, 1, 64, 0
3, 12660, Note_on_c, 1, 62, 0
3, 12720, Note_on_c, 1, 62, 60
3, 12720, Note_on_c, 1, 64, 60
3, 12720, Note_on_c, 1, 68, 60
3, 12780, Note_on_c, 1, 68, 0
3, 12780, Note_on_c, 1, 64, 0
3, 12780, Note_on_c, 1, 62, 0
3, 12840, Note_on_c, 1, 62, 60
3, 12840, Note_on_c, 1, 64, 60
3, 12840, Note_on_c, 1, 68, 60
3, 12900, Note_on_c, 1, 68, 0
3, 12900, Note_on_c, 1, 64, 0
3, 12900, Note_on_c, 1, 62, 0
3, 12960, Note_on_c, 1, 67, 60
3, 12960, Note_on_c, 1, 64, 60
3, 13020, Note_on_c, 1, 64, 0
3, 13020, Note_on_c, 1, 67, 0
3, 13080, Note_on_c, 1, 67, 60
3, 13080, Note_on_c, 1, 64, 60
3, 13140, Note_on_c, 1, 64, 0
3, 13140, Note_on_c, 1, 67, 0
3, 13200, Note_on_c, 1, 67, 60
3, 13200, Note_on_c, 1, 64, 60
3, 13260, Note_on_c, 1, 64, 0
3, 13260, Note_on_c, 1, 67, 0
3, 13320, Note_on_c, 1, 64, 60
3, 13320, Note_on_c, 1, 67, 60
3, 13380, Note_on_c, 1, 67, 0
3, 13380, Note_on_c, 1, 64, 0
3, 13440, Note_on_c, 1, 62, 60
3, 13440, Note_on_c, 1, 66, 60
3, 13500, Note_on_c, 1, 66, 0
3, 13500, Note_on_c, 1, 62, 0
3, 13560, Note_on_c, 1, 69, 60
3, 13560, Note_on_c, 1, 66, 60
3, 13620, Note_on_c, 1, 66, 0
3, 13620, Note_on_c, 1, 69, 0
3, 13680, Note_on_c, 1, 66, 60
3, 13680, Note_on_c, 1, 74, 60
3, 13680, Note_on_c, 1, 69, 60
3, 13740, Note_on_c, 1, 69, 0
3, 13740, Note_on_c, 1, 74, 0
3, 13740, Note_on_c, 1, 66, 0
3, 13800, Note_on_c, 1, 66, 60
3, 13800, Note_on_c, 1, 69, 60
3, 13860, Note_on_c, 1, 69, 0
3, 13860, Note_on_c, 1, 66, 0
3, 13920, Note_on_c, 1, 69, 60
3, 13920, Note_on_c, 1, 76, 60
3, 13920, Note_on_c, 1, 67, 60
3, 13980, Note_on_c, 1, 67, 0
3, 13980, Note_on_c, 1, 76, 0
3, 13980, Note_on_c, 1, 69, 0
3, 14040, Note_on_c, 1, 67, 60
3, 14040, Note_on_c, 1, 69, 60
3, 14040, Note_on_c, 1, 76, 60
3, 14100, Note_on_c, 1, 76, 0
3, 14100, Note_on_c, 1, 69, 0
3, 14100, Note_on_c, 1, 67, 0
3, 14160, Note_on_c, 1, 69, 60
3, 14160, Note_on_c, 1, 64, 60
3, 14220, Note_on_c, 1, 64, 0
3, 14220, Note_on_c, 1, 69, 0
3, 14280, Note_on_c, 1, 64, 60
3, 14280, Note_on_c, 1, 67, 60
3, 14340, Note_on_c, 1, 67, 0
3, 14340, Note_on_c, 1, 64, 0
3, 14400, Note_on_c, 1, 62, 60
3, 14400, Note_on_c, 1, 66, 60
3, 14460, Note_on_c, 1, 66, 0
3, 14460, Note_on_c, 1, 62, 0
3, 14520, Note_on_c, 1, 62, 67
3, 14520, Note_on_c, 1, 66, 67
3, 14580, Note_on_c, 1, 66, 0
3, 14580, Note_on_c, 1, 62, 0
3, 14580, Note_on_c, 1, 64, 71
3, 14580, Note_on_c, 1, 68, 71
3, 14640, Note_on_c, 1, 68, 0
3, 14640, Note_on_c, 1, 64, 0
3, 14640, Note_on_c, 1, 66, 77
3, 14640, Note_on_c, 1, 69, 77
3, 14700, Note_on_c, 1, 69, 0
3, 14700, Note_on_c, 1, 66, 0
3, 14700, Note_on_c, 1, 68, 83
3, 14700, Note_on_c, 1, 71, 83
3, 14760, Note_on_c, 1, 71, 0
3, 14760, Note_on_c, 1, 68, 0
3, 14760, Note_on_c, 1, 69, 91
3, 14760, Note_on_c, 1, 73, 91
3, 14820, Note_on_c, 1, 73, 0
3, 14820, Note_on_c, 1, 69, 0
3, 14820, Note_on_c, 1, 71, 104
3, 14820, Note_on_c, 1, 74, 104
3, 14880, Note_on_c, 1, 74, 0
3, 14880, Note_on_c, 1, 71, 0
3, 14880, Note_on_c, 1, 73, 100
3, 14880, Note_on_c, 1, 76, 100
3, 14940, Note_on_c, 1, 76, 0
3, 14940, Note_on_c, 1, 73, 0
3, 14940, Note_on_c, 1, 73, 100
3, 14940, Note_on_c, 1, 76, 100
3, 15000, Note_on_c, 1, 76, 0
3, 15000, Note_on_c, 1, 73, 0
3, 15000, Note_on_c, 1, 73, 100
3, 15000, Note_on_c, 1, 76, 100
3, 15060, Note_on_c, 1, 76, 0
3, 15060, Note_on_c, 1, 73, 0
3, 15060, Note_on_c, 1, 73, 100
3, 15060, Note_on_c, 1, 76, 100
3, 15120, Note_on_c, 1, 76, 0
3, 15120, Note_on_c, 1, 73, 0
3, 15120, Note_on_c, 1, 73, 100
3, 15120, Note_on_c, 1, 76, 100
3, 15180, Note_on_c, 1, 76, 0
3, 15180, Note_on_c, 1, 73, 0
3, 15180, Note_on_c, 1, 73, 80
3, 15180, Note_on_c, 1, 76, 80
3, 15240, Note_on_c, 1, 76, 0
3, 15240, Note_on_c, 1, 73, 0
3, 15240, Note_on_c, 1, 71, 70
3, 15240, Note_on_c, 1, 74, 70
3, 15300, Note_on_c, 1, 74, 0
3, 15300, Note_on_c, 1, 71, 0
3, 15300, Note_on_c, 1, 69, 60
3, 15300, Note_on_c, 1, 73, 60
3, 15360, Note_on_c, 1, 73, 0
3, 15360, Note_on_c, 1, 69, 0
3, 15360, Note_on_c, 1, 71, 60
3, 15360, Note_on_c, 1, 62, 60
3, 15360, Note_on_c, 1, 66, 60
3, 15420, Note_on_c, 1, 66, 0
3, 15420, Note_on_c, 1, 62, 0
3, 15420, Note_on_c, 1, 71, 0
3, 15420, Note_on_c, 1, 71, 60
3, 15420, Note_on_c, 1, 62, 60
3, 15420, Note_on_c, 1, 66, 60
3, 15480, Note_on_c, 1, 66, 0
3, 15480, Note_on_c, 1, 62, 0
3, 15480, Note_on_c, 1, 71, 0
3, 15480, Note_on_c, 1, 71, 60
3, 15480, Note_on_c, 1, 62, 60
3, 15480, Note_on_c, 1, 66, 60
3, 15540, Note_on_c, 1, 66, 0
3, 15540, Note_on_c, 1, 62, 0
3, 15540, Note_on_c, 1, 71, 0
3, 15540, Note_on_c, 1, 71, 60
3, 15540, Note_on_c, 1, 62, 60
3, 15540, Note_on_c, 1, 66, 60
3, 15600, Note_on_c, 1, 66, 0
3, 15600, Note_on_c, 1, 62, 0
3, 15600, Note_on_c, 1, 71, 0
3, 15600, Note_on_c, 1, 61, 60
3, 15600, Note_on_c, 1, 64, 60
3, 15600, Note_on_c, 1, 69, 60
3, 15660, Note_on_c, 1, 69, 0
3, 15660, Note_on_c, 1, 64, 0
3, 15660, Note_on_c, 1, 61, 0
3, 15660, Note_on_c, 1, 69, 60
3, 15660, Note_on_c, 1, 64, 60
3, 15660, Note_on_c, 1, 61, 60
3, 15720, Note_on_c, 1, 61, 0
3, 15720, Note_on_c, 1, 64, 0
3, 15720, Note_on_c, 1, 69, 0
3, 15720, Note_on_c, 1, 71, 60
3, 15720, Note_on_c, 1, 62, 60
3, 15720, Note_on_c, 1, 64, 60
3, 15780, Note_on_c, 1, 64, 0
3, 15780, Note_on_c, 1, 62, 0
3, 15780, Note_on_c, 1, 71, 0
3, 15780, Note_on_c, 1, 71, 60
3, 15780, Note_on_c, 1, 62, 60
3, 15780, Note_on_c, 1, 64, 60
3, 15840, Note_on_c, 1, 64, 0
3, 15840, Note_on_c, 1, 62, 0
3, 15840, Note_on_c, 1, 71, 0
3, 15840, Note_on_c, 1, 69, 60
3, 15900, Note_on_c, 1, 69, 0
3, 15900, Note_on_c, 1, 76, 60
3, 16020, Note_on_c, 1, 76, 0
3, 16020, Note_on_c, 1, 74, 60
3, 16080, Note_on_c, 1, 74, 0
3, 16080, Note_on_c, 1, 73, 60
3, 16140, Note_on_c, 1, 73, 0
3, 16140, Note_on_c, 1, 71, 60
3, 16200, Note_on_c, 1, 71, 0
3, 16200, Note_on_c, 1, 69, 60
3, 16260, Note_on_c, 1, 69, 0
3, 16260, Note_on_c, 1, 68, 60
3, 16320, Note_on_c, 1, 68, 0
3, 16320, Note_on_c, 1, 67, 60
3, 16440, Note_on_c, 1, 67, 0
3, 16440, Note_on_c, 1, 66, 60
3, 16470, Note_on_c, 1, 66, 0
3, 16470, Note_on_c, 1, 67, 60
3, 16500, Note_on_c, 1, 67, 0
3, 16500, Note_on_c, 1, 66, 60
3, 16530, Note_on_c, 1, 66, 0
3, 16530, Note_on_c, 1, 67, 60
3, 16560, Note_on_c, 1, 67, 0
3, 16560, Note_on_c, 1, 67, 62
3, 16590, Note_on_c, 1, 67, 0
3, 16590, Note_on_c, 1, 69, 62
3, 16620, Note_on_c, 1, 69, 0
3, 16620, Note_on_c, 1, 67, 72
3, 16640, Note_on_c, 1, 67, 0
3, 16640, Note_on_c, 1, 66, 72
3, 16660, Note_on_c, 1, 66, 0
3, 16660, Note_on_c, 1, 67, 62
3, 16680, Note_on_c, 1, 67, 0
3, 16680, Note_on_c, 1, 71, 60
3, 16740, Note_on_c, 1, 71, 0
3, 16740, Note_on_c, 1, 67, 60
3, 16800, Note_on_c, 1, 67, 0
3, 16800, Note_on_c, 1, 66, 60
3, 16920, Note_on_c, 1, 66, 0
3, 17040, Note_on_c, 1, 78, 60
3, 17040, Note_on_c, 1, 74, 60
3, 17040, Note_on_c, 1, 69, 60
3, 17100, Note_on_c, 1, 69, 0
3, 17100, Note_on_c, 1, 74, 0
3, 17100, Note_on_c, 1, 78, 0
3, 17280, Note_on_c, 1, 69, 60
3, 17295, Note_on_c, 1, 69, 0
3, 17295, Note_on_c, 1, 67, 60
3, 17310, Note_on_c, 1, 67, 0
3, 17310, Note_on_c, 1, 69, 60
3, 17325, Note_on_c, 1, 69, 0
3, 17325, Note_on_c, 1, 67, 60
3, 17340, Note_on_c, 1, 67, 0
3, 17340, Note_on_c, 1, 69, 60
3, 17370, Note_on_c, 1, 69, 0
3, 17370, Note_on_c, 1, 71, 60
3, 17400, Note_on_c, 1, 71, 0
3, 17400, Note_on_c, 1, 73, 60
3, 17430, Note_on_c, 1, 73, 0
3, 17430, Note_on_c, 1, 74, 60
3, 17460, Note_on_c, 1, 74, 0
3, 17460, Note_on_c, 1, 76, 60
3, 17490, Note_on_c, 1, 76, 0
3, 17490, Note_on_c, 1, 78, 60
3, 17520, Note_on_c, 1, 78, 0
3, 17520, Note_on_c, 1, 79, 60
3, 17550, Note_on_c, 1, 79, 0
3, 17550, Note_on_c, 1, 78, 60
3, 17580, Note_on_c, 1, 78, 0
3, 17580, Note_on_c, 1, 76, 60
3, 17610, Note_on_c, 1, 76, 0
3, 17610, Note_on_c, 1, 74, 60
3, 17640, Note_on_c, 1, 74, 0
3, 17640, Note_on_c, 1, 73, 60
3, 17670, Note_on_c, 1, 73, 0
3, 17670, Note_on_c, 1, 71, 60
3, 17700, Note_on_c, 1, 71, 0
3, 17700, Note_on_c, 1, 69, 60
3, 17730, Note_on_c, 1, 69, 0
3, 17730, Note_on_c, 1, 67, 60
3, 17760, Note_on_c, 1, 67, 0
3, 17760, Note_on_c, 1, 66, 60
3, 17820, Note_on_c, 1, 66, 0
3, 17880, Note_on_c, 1, 74, 60
3, 17880, Note_on_c, 1, 66, 60
3, 17940, Note_on_c, 1, 66, 0
3, 17940, Note_on_c, 1, 74, 0
3, 18000, Note_on_c, 1, 66, 60
3, 18000, Note_on_c, 1, 74, 60
3, 18060, Note_on_c, 1, 74, 0
3, 18060, Note_on_c, 1, 66, 0
3, 18120, Note_on_c, 1, 71, 60
3, 18120, Note_on_c, 1, 66, 60
3, 18180, Note_on_c, 1, 66, 0
3, 18180, Note_on_c, 1, 71, 0
3, 18240, Note_on_c, 1, 68, 60
3, 18240, Note_on_c, 1, 64, 60
3, 18300, Note_on_c, 1, 64, 0
3, 18300, Note_on_c, 1, 68, 0
3, 18360, Note_on_c, 1, 68, 62
3, 18360, Note_on_c, 1, 64, 62
3, 18420, Note_on_c, 1, 64, 0
3, 18420, Note_on_c, 1, 68, 0
3, 18420, Note_on_c, 1, 68, 64
3, 18420, Note_on_c, 1, 64, 64
3, 18480, Note_on_c, 1, 64, 0
3, 18480, Note_on_c, 1, 68, 0
3, 18480, Note_on_c, 1, 69, 75
3, 18480, Note_on_c, 1, 66, 75
3, 18540, Note_on_c, 1, 66, 0
3, 18540, Note_on_c, 1, 69, 0
3, 18540, Note_on_c, 1, 71, 84
3, 18540, Note_on_c, 1, 68, 84
3, 18600, Note_on_c, 1, 68, 0
3, 18600, Note_on_c, 1, 71, 0
3, 18600, Note_on_c, 1, 69, 89
3, 18600, Note_on_c, 1, 73, 89
3, 18660, Note_on_c, 1, 73, 0
3, 18660, Note_on_c, 1, 69, 0
3, 18660, Note_on_c, 1, 74, 95
3, 18660, Note_on_c, 1, 71, 95
3, 18720, Note_on_c, 1, 71, 0
3, 18720, Note_on_c, 1, 74, 0
3, 18720, Note_on_c, 1, 73, 100
3, 18720, Note_on_c, 1, 76, 100
3, 18780, Note_on_c, 1, 76, 0
3, 18780, Note_on_c, 1, 73, 0
3, 18780, Note_on_c, 1, 73, 105
3, 18780, Note_on_c, 1, 76, 105
3, 18840, Note_on_c, 1, 76, 0
3, 18840, Note_on_c, 1, 73, 0
3, 18840, Note_on_c, 1, 73, 108
3, 18840, Note_on_c, 1, 76, 108
3, 18900, Note_on_c, 1, 76, 0
3, 18900, Note_on_c, 1, 73, 0
3, 18900, Note_on_c, 1, 73, 110
3, 18900, Note_on_c, 1, 76, 110
3, 18960, Note_on_c, 1, 76, 0
3, 18960, Note_on_c, 1, 73, 0
3, 18960, Note_on_c, 1, 73, 110
3, 18960, Note_on_c, 1, 76, 110
3, 19020, Note_on_c, 1, 76, 0
3, 19020, Note_on_c, 1, 73, 0
3, 19020, Note_on_c, 1, 73, 110
3, 19020, Note_on_c, 1, 76, 110
3, 19080, Note_on_c, 1, 76, 0
3, 19080, Note_on_c, 1, 73, 0
3, 19080, Note_on_c, 1, 71, 110
3, 19080, Note_on_c, 1, 74, 110
3, 19140, Note_on_c, 1, 74, 0
3, 19140, Note_on_c, 1, 71, 0
3, 19140, Note_on_c, 1, 69, 110
3, 19140, Note_on_c, 1, 73, 110
3, 19200, Note_on_c, 1, 73, 0
3, 19200, Note_on_c, 1, 69, 0
3, 19200, Note_on_c, 1, 62, 110
3, 19200, Note_on_c, 1, 66, 110
3, 19200, Note_on_c, 1, 69, 110
3, 19200, Note_on_c, 1, 74, 110
3, 19200, Note_on_c, 1, 78, 110
3, 19260, Note_on_c, 1, 78, 0
3, 19260, Note_on_c, 1, 69, 0
3, 19260, Note_on_c, 1, 62, 0
3, 19260, Note_on_c, 1, 66, 0
3, 19260, Note_on_c, 1, 74, 0
3, 19260, Note_on_c, 1, 69, 110
3, 19260, Note_on_c, 1, 74, 110
3, 19260, Note_on_c, 1, 78, 110
3, 19320, Note_on_c, 1, 78, 0
3, 19320, Note_on_c, 1, 74, 0
3, 19320, Note_on_c, 1, 69, 0
3, 19320, Note_on_c, 1, 62, 110
3, 19320, Note_on_c, 1, 66, 110
3, 19320, Note_on_c, 1, 69, 110
3, 19320, Note_on_c, 1, 74, 110
3, 19320, Note_on_c, 1, 78, 110
3, 19380, Note_on_c, 1, 78, 0
3, 19380, Note_on_c, 1, 69, 0
3, 19380, Note_on_c, 1, 62, 0
3, 19380, Note_on_c, 1, 66, 0
3, 19380, Note_on_c, 1, 74, 0
3, 19380, Note_on_c, 1, 69, 110
3, 19380, Note_on_c, 1, 74, 110
3, 19380, Note_on_c, 1, 78, 110
3, 19440, Note_on_c, 1, 78, 0
3, 19440, Note_on_c, 1, 74, 0
3, 19440, Note_on_c, 1, 69, 0
3, 19440, Note_on_c, 1, 62, 110
3, 19440, Note_on_c, 1, 66, 110
3, 19440, Note_on_c, 1, 69, 110
3, 19440, Note_on_c, 1, 74, 110
3, 19440, Note_on_c, 1, 78, 110
3, 19500, Note_on_c, 1, 78, 0
3, 19500, Note_on_c, 1, 69, 0
3, 19500, Note_on_c, 1, 62, 0
3, 19500, Note_on_c, 1, 66, 0
3, 19500, Note_on_c, 1, 74, 0
3, 19500, Note_on_c, 1, 69, 110
3, 19500, Note_on_c, 1, 74, 110
3, 19500, Note_on_c, 1, 78, 110
3, 19560, Note_on_c, 1, 78, 0
3, 19560, Note_on_c, 1, 74, 0
3, 19560, Note_on_c, 1, 69, 0
3, 19560, Note_on_c, 1, 62, 110
3, 19560, Note_on_c, 1, 66, 110
3, 19560, Note_on_c, 1, 74, 110
3, 19560, Note_on_c, 1, 78, 110
3, 19620, Note_on_c, 1, 78, 0
3, 19620, Note_on_c, 1, 62, 0
3, 19620, Note_on_c, 1, 66, 0
3, 19620, Note_on_c, 1, 74, 0
3, 19620, Note_on_c, 1, 73, 110
3, 19620, Note_on_c, 1, 76, 110
3, 19680, Note_on_c, 1, 76, 0
3, 19680, Note_on_c, 1, 73, 0
3, 19680, Note_on_c, 1, 73, 110
3, 19680, Note_on_c, 1, 76, 110
3, 19680, Note_on_c, 1, 57, 110
3, 19680, Note_on_c, 1, 61, 110
3, 19680, Note_on_c, 1, 64, 110
3, 19740, Note_on_c, 1, 64, 0
3, 19740, Note_on_c, 1, 57, 0
3, 19740, Note_on_c, 1, 73, 0
3, 19740, Note_on_c, 1, 76, 0
3, 19740, Note_on_c, 1, 61, 0
3, 19740, Note_on_c, 1, 73, 110
3, 19740, Note_on_c, 1, 76, 110
3, 19800, Note_on_c, 1, 76, 0
3, 19800, Note_on_c, 1, 73, 0
3, 19800, Note_on_c, 1, 73, 110
3, 19800, Note_on_c, 1, 76, 110
3, 19800, Note_on_c, 1, 57, 110
3, 19800, Note_on_c, 1, 61, 110
3, 19800, Note_on_c, 1, 64, 110
3, 19860, Note_on_c, 1, 64, 0
3, 19860, Note_on_c, 1, 57, 0
3, 19860, Note_on_c, 1, 73, 0
3, 19860, Note_on_c, 1, 76, 0
3, 19860, Note_on_c, 1, 61, 0
3, 19860, Note_on_c, 1, 73, 110
3, 19860, Note_on_c, 1, 76, 110
3, 19920, Note_on_c, 1, 76, 0
3, 19920, Note_on_c, 1, 73, 0
3, 19920, Note_on_c, 1, 73, 109
3, 19920, Note_on_c, 1, 76, 109
3, 19920, Note_on_c, 1, 57, 109
3, 19920, Note_on_c, 1, 61, 109
3, 19920, Note_on_c, 1, 64, 109
3, 19980, Note_on_c, 1, 64, 0
3, 19980, Note_on_c, 1, 57, 0
3, 19980, Note_on_c, 1, 73, 0
3, 19980, Note_on_c, 1, 76, 0
3, 19980, Note_on_c, 1, 61, 0
3, 19980, Note_on_c, 1, 73, 104
3, 19980, Note_on_c, 1, 76, 104
3, 20040, Note_on_c, 1, 76, 0
3, 20040, Note_on_c, 1, 73, 0
3, 20040, Note_on_c, 1, 71, 91
3, 20040, Note_on_c, 1, 74, 91
3, 20100, Note_on_c, 1, 74, 0
3, 20100, Note_on_c, 1, 71, 0
3, 20100, Note_on_c, 1, 69, 84
3, 20100, Note_on_c, 1, 73, 84
3, 20160, Note_on_c, 1, 73, 0
3, 20160, Note_on_c, 1, 69, 0
3, 20160, Note_on_c, 1, 62, 80
3, 20160, Note_on_c, 1, 68, 80
3, 20160, Note_on_c, 1, 71, 80
3, 20220, Note_on_c, 1, 71, 0
3, 20220, Note_on_c, 1, 68, 0
3, 20220, Note_on_c, 1, 62, 0
3, 20220, Note_on_c, 1, 62, 77
3, 20220, Note_on_c, 1, 71, 77
3, 20220, Note_on_c, 1, 68, 77
3, 20280, Note_on_c, 1, 68, 0
3, 20280, Note_on_c, 1, 71, 0
3, 20280, Note_on_c, 1, 62, 0
3, 20280, Note_on_c, 1, 62, 77
3, 20280, Note_on_c, 1, 68, 77
3, 20280, Note_on_c, 1, 71, 77
3, 20340, Note_on_c, 1, 71, 0
3, 20340, Note_on_c, 1, 68, 0
3, 20340, Note_on_c, 1, 62, 0
3, 20340, Note_on_c, 1, 68, 76
3, 20340, Note_on_c, 1, 62, 76
3, 20340, Note_on_c, 1, 71, 76
3, 20400, Note_on_c, 1, 71, 0
3, 20400, Note_on_c, 1, 62, 0
3, 20400, Note_on_c, 1, 68, 0
3, 20400, Note_on_c, 1, 68, 76
3, 20400, Note_on_c, 1, 71, 76
3, 20400, Note_on_c, 1, 62, 76
3, 20460, Note_on_c, 1, 62, 0
3, 20460, Note_on_c, 1, 71, 0
3, 20460, Note_on_c, 1, 68, 0
3, 20460, Note_on_c, 1, 71, 75
3, 20460, Note_on_c, 1, 62, 75
3, 20460, Note_on_c, 1, 68, 75
3, 20520, Note_on_c, 1, 68, 0
3, 20520, Note_on_c, 1, 62, 0
3, 20520, Note_on_c, 1, 71, 0
3, 20520, Note_on_c, 1, 71, 76
3, 20520, Note_on_c, 1, 68, 76
3, 20520, Note_on_c, 1, 62, 76
3, 20580, Note_on_c, 1, 62, 0
3, 20580, Note_on_c, 1, 68, 0
3, 20580, Note_on_c, 1, 71, 0
3, 20580, Note_on_c, 1, 62, 70
3, 20580, Note_on_c, 1, 68, 70
3, 20580, Note_on_c, 1, 71, 70
3, 20640, Note_on_c, 1, 71, 0
3, 20640, Note_on_c, 1, 68, 0
3, 20640, Note_on_c, 1, 62, 0
3, 20640, Note_on_c, 1, 69, 69
3, 20760, Note_on_c, 1, 69, 0
3, 20760, Note_on_c, 1, 69, 68
3, 20820, Note_on_c, 1, 69, 0
3, 20820, Note_on_c, 1, 69, 67
3, 20880, Note_on_c, 1, 69, 0
3, 20880, Note_on_c, 1, 71, 66
3, 20895, Note_on_c, 1, 71, 0
3, 20895, Note_on_c, 1, 69, 66
3, 20910, Note_on_c, 1, 69, 0
3, 20910, Note_on_c, 1, 71, 65
3, 20925, Note_on_c, 1, 71, 0
3, 20925, Note_on_c, 1, 69, 65
3, 20940, Note_on_c, 1, 69, 0
3, 20940, Note_on_c, 1, 71, 65
3, 20955, Note_on_c, 1, 71, 0
3, 20955, Note_on_c, 1, 69, 64
3, 20970, Note_on_c, 1, 69, 0
3, 20970, Note_on_c, 1, 71, 64
3, 20985, Note_on_c, 1, 71, 0
3, 20985, Note_on_c, 1, 69, 64
3, 21000, Note_on_c, 1, 69, 0
3, 21000, Note_on_c, 1, 73, 64
3, 21060, Note_on_c, 1, 73, 0
3, 21060, Note_on_c, 1, 69, 63
3, 21120, Note_on_c, 1, 69, 0
3, 21120, Note_on_c, 1, 74, 73
3, 21300, Note_on_c, 1, 74, 0
3, 21300, Note_on_c, 1, 69, 71
3, 21360, Note_on_c, 1, 69, 0
3, 21360, Note_on_c, 1, 69, 69
3, 21375, Note_on_c, 1, 69, 0
3, 21375, Note_on_c, 1, 68, 70
3, 21390, Note_on_c, 1, 68, 0
3, 21390, Note_on_c, 1, 69, 73
3, 21420, Note_on_c, 1, 69, 0
3, 21420, Note_on_c, 1, 71, 78
3, 21450, Note_on_c, 1, 71, 0
3, 21450, Note_on_c, 1, 73, 79
3, 21480, Note_on_c, 1, 73, 0
3, 21480, Note_on_c, 1, 74, 82
3, 21510, Note_on_c, 1, 74, 0
3, 21510, Note_on_c, 1, 76, 83
3, 21540, Note_on_c, 1, 76, 0
3, 21540, Note_on_c, 1, 78, 79
3, 21570, Note_on_c, 1, 78, 0
3, 21570, Note_on_c, 1, 80, 76
3, 21600, Note_on_c, 1, 80, 0
3, 21600, Note_on_c, 1, 81, 72
3, 21630, Note_on_c, 1, 81, 0
3, 21630, Note_on_c, 1, 83, 70
3, 21660, Note_on_c, 1, 83, 0
3, 21660, Note_on_c, 1, 85, 67
3, 21690, Note_on_c, 1, 85, 0
3, 21690, Note_on_c, 1, 86, 65
3, 21720, Note_on_c, 1, 86, 0
3, 21720, Note_on_c, 1, 88, 64
3, 21750, Note_on_c, 1, 88, 0
3, 21750, Note_on_c, 1, 90, 62
3, 21780, Note_on_c, 1, 90, 0
3, 21780, Note_on_c, 1, 92, 61
3, 21810, Note_on_c, 1, 92, 0
3, 21810, Note_on_c, 1, 93, 60
3, 21840, Note_on_c, 1, 93, 0
3, 21840, Note_on_c, 1, 88, 58
3, 21900, Note_on_c, 1, 88, 0
3, 21960, Control_c, 1, 64, 127
3, 21960, Note_on_c, 1, 68, 54
3, 21960, Note_on_c, 1, 59, 54
3, 21960, Note_on_c, 1, 62, 54
3, 21960, Note_on_c, 1, 64, 54
3, 22020, Note_on_c, 1, 64, 0
3, 22020, Note_on_c, 1, 68, 0
3, 22020, Note_on_c, 1, 59, 0
3, 22020, Note_on_c, 1, 62, 0
3, 22020, Control_c, 1, 64, 0
3, 22080, Note_on_c, 1, 69, 54
3, 22080, Note_on_c, 1, 64, 54
3, 22080, Note_on_c, 1, 61, 54
3, 22080, Note_on_c, 1, 57, 54
3, 22140, Control_c, 1, 64, 127
3, 22200, Note_on_c, 1, 57, 0
3, 22200, Note_on_c, 1, 69, 0
3, 22200, Note_on_c, 1, 64, 0
3, 22200, Note_on_c, 1, 61, 0
3, 22380, Control_c, 1, 64, 0
3, 22380, End_track
4, 0, Start_track
4, 0, Title_t, "PianoS"
4, 0, Program_c, 2, 0
4, 0, Control_c, 2, 7, 96
4, 0, Control_c, 2, 10, 87
4, 0, Control_c, 2, 93, 10
4, 0, Control_c, 2, 91, 15
4, 480, Note_on_c, 2, 57, 60
4, 480, Note_on_c, 2, 45, 60
4, 540, Note_on_c, 2, 45, 0
4, 540, Note_on_c, 2, 57, 0
4, 540, Note_on_c, 2, 52, 60
4, 600, Note_on_c, 2, 52, 0
4, 600, Note_on_c, 2, 57, 60
4, 600, Note_on_c, 2, 45, 60
4, 660, Note_on_c, 2, 45, 0
4, 660, Note_on_c, 2, 57, 0
4, 660, Note_on_c, 2, 52, 60
4, 720, Note_on_c, 2, 52, 0
4, 720, Note_on_c, 2, 57, 60
4, 720, Note_on_c, 2, 45, 60
4, 780, Note_on_c, 2, 45, 0
4, 780, Note_on_c, 2, 57, 0
4, 780, Note_on_c, 2, 52, 60
4, 840, Note_on_c, 2, 52, 0
4, 840, Note_on_c, 2, 57, 60
4, 840, Note_on_c, 2, 45, 60
4, 900, Note_on_c, 2, 45, 0
4, 900, Note_on_c, 2, 57, 0
4, 900, Note_on_c, 2, 52, 60
4, 960, Note_on_c, 2, 52, 0
4, 960, Note_on_c, 2, 59, 60
4, 960, Note_on_c, 2, 47, 60
4, 1020, Note_on_c, 2, 47, 0
4, 1020, Note_on_c, 2, 59, 0
4, 1020, Note_on_c, 2, 52, 60
4, 1080, Note_on_c, 2, 52, 0
4, 1080, Note_on_c, 2, 47, 60
4, 1080, Note_on_c, 2, 59, 60
4, 1140, Note_on_c, 2, 59, 0
4, 1140, Note_on_c, 2, 47, 0
4, 1140, Note_on_c, 2, 52, 60
4, 1200, Note_on_c, 2, 52, 0
4, 1200, Note_on_c, 2, 47, 60
4, 1200, Note_on_c, 2, 59, 60
4, 1260, Note_on_c, 2, 59, 0
4, 1260, Note_on_c, 2, 47, 0
4, 1260, Note_on_c, 2, 52, 60
4, 1320, Note_on_c, 2, 52, 0
4, 1320, Note_on_c, 2, 59, 60
4, 1320, Note_on_c, 2, 47, 60
4, 1380, Note_on_c, 2, 47, 0
4, 1380, Note_on_c, 2, 59, 0
4, 1380, Note_on_c, 2, 52, 60
4, 1440, Note_on_c, 2, 52, 0
4, 1440, Note_on_c, 2, 45, 60
4, 1440, Note_on_c, 2, 57, 60
4, 1500, Note_on_c, 2, 57, 0
4, 1500, Note_on_c, 2, 45, 0
4, 1500, Note_on_c, 2, 52, 60
4, 1560, Note_on_c, 2, 52, 0
4, 1560, Note_on_c, 2, 45, 60
4, 1560, Note_on_c, 2, 57, 60
4, 1620, Note_on_c, 2, 57, 0
4, 1620, Note_on_c, 2, 45, 0
4, 1620, Note_on_c, 2, 52, 60
4, 1680, Note_on_c, 2, 52, 0
4, 1680, Note_on_c, 2, 45, 60
4, 1680, Note_on_c, 2, 57, 60
4, 1740, Note_on_c, 2, 57, 0
4, 1740, Note_on_c, 2, 45, 0
4, 1740, Note_on_c, 2, 52, 60
4, 1800, Note_on_c, 2, 52, 0
4, 1800, Note_on_c, 2, 45, 60
4, 1800, Note_on_c, 2, 57, 60
4, 1860, Note_on_c, 2, 57, 0
4, 1860, Note_on_c, 2, 45, 0
4, 1860, Note_on_c, 2, 52, 60
4, 1920, Note_on_c, 2, 52, 0
4, 1920, Note_on_c, 2, 47, 60
4, 1920, Note_on_c, 2, 59, 60
4, 1980, Note_on_c, 2, 59, 0
4, 1980, Note_on_c, 2, 47, 0
4, 1980, Note_on_c, 2, 52, 60
4, 2040, Note_on_c, 2, 52, 0
4, 2040, Note_on_c, 2, 59, 60
4, 2040, Note_on_c, 2, 47, 60
4, 2100, Note_on_c, 2, 47, 0
4, 2100, Note_on_c, 2, 59, 0
4, 2100, Note_on_c, 2, 52, 60
4, 2160, Note_on_c, 2, 52, 0
4, 2160, Note_on_c, 2, 47, 60
4, 2160, Note_on_c, 2, 59, 60
4, 2220, Note_on_c, 2, 59, 0
4, 2220, Note_on_c, 2, 47, 0
4, 2220, Note_on_c, 2, 52, 60
4, 2280, Note_on_c, 2, 52, 0
4, 2280, Note_on_c, 2, 47, 60
4, 2280, Note_on_c, 2, 59, 60
4, 2340, Note_on_c, 2, 59, 0
4, 2340, Note_on_c, 2, 47, 0
4, 2340, Note_on_c, 2, 52, 60
4, 2400, Note_on_c, 2, 52, 0
4, 2400, Note_on_c, 2, 45, 60
4, 2400, Note_on_c, 2, 57, 60
4, 2460, Note_on_c, 2, 57, 0
4, 2460, Note_on_c, 2, 45, 0
4, 2460, Note_on_c, 2, 52, 60
4, 2520, Note_on_c, 2, 52, 0
4, 2520, Note_on_c, 2, 45, 60
4, 2520, Note_on_c, 2, 57, 60
4, 2580, Note_on_c, 2, 57, 0
4, 2580, Note_on_c, 2, 45, 0
4, 2580, Note_on_c, 2, 52, 60
4, 2640, Note_on_c, 2, 52, 0
4, 2640, Note_on_c, 2, 45, 60
4, 2640, Note_on_c, 2, 57, 60
4, 2700, Note_on_c, 2, 57, 0
4, 2700, Note_on_c, 2, 45, 0
4, 2700, Note_on_c, 2, 52, 60
4, 2760, Note_on_c, 2, 52, 0
4, 2760, Note_on_c, 2, 57, 60
4, 2760, Note_on_c, 2, 45, 60
4, 2820, Note_on_c, 2, 45, 0
4, 2820, Note_on_c, 2, 57, 0
4, 2820, Note_on_c, 2, 52, 60
4, 2880, Note_on_c, 2, 52, 0
4, 2880, Note_on_c, 2, 44, 100
4, 2880, Note_on_c, 2, 56, 100
4, 2940, Note_on_c, 2, 56, 0
4, 2940, Note_on_c, 2, 44, 0
4, 2940, Note_on_c, 2, 52, 100
4, 3000, Note_on_c, 2, 52, 0
4, 3000, Note_on_c, 2, 56, 100
4, 3000, Note_on_c, 2, 44, 100
4, 3060, Note_on_c, 2, 44, 0
4, 3060, Note_on_c, 2, 56, 0
4, 3060, Note_on_c, 2, 52, 100
4, 3120, Note_on_c, 2, 52, 0
4, 3120, Note_on_c, 2, 44, 100
4, 3120, Note_on_c, 2, 56, 100
4, 3180, Note_on_c, 2, 56, 0
4, 3180, Note_on_c, 2, 44, 0
4, 3180, Note_on_c, 2, 52, 100
4, 3240, Note_on_c, 2, 52, 0
4, 3240, Note_on_c, 2, 44, 100
4, 3240, Note_on_c, 2, 56, 100
4, 3300, Note_on_c, 2, 56, 0
4, 3300, Note_on_c, 2, 44, 0
4, 3300, Note_on_c, 2, 52, 100
4, 3360, Note_on_c, 2, 52, 0
4, 3360, Note_on_c, 2, 45, 100
4, 3360, Note_on_c, 2, 57, 100
4, 3420, Note_on_c, 2, 57, 0
4, 3420, Note_on_c, 2, 45, 0
4, 3420, Note_on_c, 2, 52, 100
4, 3480, Note_on_c, 2, 52, 0
4, 3480, Note_on_c, 2, 45, 100
4, 3480, Note_on_c, 2, 57, 100
4, 3540, Note_on_c, 2, 57, 0
4, 3540, Note_on_c, 2, 45, 0
4, 3540, Note_on_c, 2, 54, 100
4, 3600, Note_on_c, 2, 54, 0
4, 3600, Note_on_c, 2, 47, 100
4, 3600, Note_on_c, 2, 59, 100
4, 3660, Note_on_c, 2, 59, 0
4, 3660, Note_on_c, 2, 47, 0
4, 3660, Note_on_c, 2, 54, 100
4, 3720, Note_on_c, 2, 54, 0
4, 3720, Note_on_c, 2, 47, 100
4, 3720, Note_on_c, 2, 59, 100
4, 3780, Note_on_c, 2, 59, 0
4, 3780, Note_on_c, 2, 47, 0
4, 3780, Note_on_c, 2, 54, 100
4, 3840, Note_on_c, 2, 54, 0
4, 3840, Note_on_c, 2, 40, 100
4, 3840, Note_on_c, 2, 52, 100
4, 3960, Note_on_c, 2, 52, 0
4, 3960, Note_on_c, 2, 40, 0
4, 3960, Note_on_c, 2, 59, 70
4, 4200, Note_on_c, 2, 59, 0
4, 4200, Note_on_c, 2, 56, 70
4, 4320, Note_on_c, 2, 56, 0
4, 4320, Note_on_c, 2, 52, 70
4, 4440, Note_on_c, 2, 52, 0
4, 4920, Note_on_c, 2, 52, 70
4, 4930, Note_on_c, 2, 56, 70
4, 4940, Note_on_c, 2, 59, 70
4, 4950, Note_on_c, 2, 62, 70
4, 5160, Note_on_c, 2, 52, 0
4, 5170, Note_on_c, 2, 56, 0
4, 5180, Note_on_c, 2, 59, 0
4, 5190, Note_on_c, 2, 62, 0
4, 5220, Note_on_c, 2, 59, 70
4, 5280, Note_on_c, 2, 59, 0
4, 5280, Note_on_c, 2, 52, 70
4, 5290, Note_on_c, 2, 56, 70
4, 5300, Note_on_c, 2, 59, 70
4, 5310, Note_on_c, 2, 62, 70
4, 5520, Note_on_c, 2, 52, 0
4, 5530, Note_on_c, 2, 56, 0
4, 5540, Note_on_c, 2, 59, 0
4, 5550, Note_on_c, 2, 62, 0
4, 6060, Note_on_c, 2, 52, 70
4, 6060, Note_on_c, 2, 55, 70
4, 6060, Note_on_c, 2, 60, 70
4, 6120, Note_on_c, 2, 60, 0
4, 6120, Note_on_c, 2, 55, 0
4, 6120, Note_on_c, 2, 52, 0
4, 6120, Note_on_c, 2, 52, 70
4, 6120, Note_on_c, 2, 55, 70
4, 6120, Note_on_c, 2, 60, 70
4, 6180, Note_on_c, 2, 60, 0
4, 6180, Note_on_c, 2, 55, 0
4, 6180, Note_on_c, 2, 52, 0
4, 6180, Note_on_c, 2, 50, 70
4, 6180, Note_on_c, 2, 55, 70
4, 6180, Note_on_c, 2, 59, 70
4, 6240, Note_on_c, 2, 59, 0
4, 6240, Note_on_c, 2, 55, 0
4, 6240, Note_on_c, 2, 50, 0
4, 6240, Note_on_c, 2, 48, 87
4, 6240, Note_on_c, 2, 55, 87
4, 6240, Note_on_c, 2, 60, 87
4, 6300, Note_on_c, 2, 60, 0
4, 6300, Note_on_c, 2, 55, 0
4, 6300, Note_on_c, 2, 48, 0
4, 6360, Note_on_c, 2, 48, 97
4, 6360, Note_on_c, 2, 55, 97
4, 6360, Note_on_c, 2, 60, 97
4, 6420, Note_on_c, 2, 60, 0
4, 6420, Note_on_c, 2, 55, 0
4, 6420, Note_on_c, 2, 48, 0
4, 6480, Note_on_c, 2, 48, 105
4, 6480, Note_on_c, 2, 55, 105
4, 6480, Note_on_c, 2, 60, 105
4, 6540, Note_on_c, 2, 60, 0
4, 6540, Note_on_c, 2, 55, 0
4, 6540, Note_on_c, 2, 48, 0
4, 6600, Note_on_c, 2, 48, 70
4, 6600, Note_on_c, 2, 55, 70
4, 6600, Note_on_c, 2, 60, 70
4, 6660, Note_on_c, 2, 60, 0
4, 6660, Note_on_c, 2, 55, 0
4, 6660, Note_on_c, 2, 48, 0
4, 6720, Note_on_c, 2, 53, 70
4, 6720, Note_on_c, 2, 57, 70
4, 6720, Note_on_c, 2, 60, 70
4, 6780, Note_on_c, 2, 60, 0
4, 6780, Note_on_c, 2, 57, 0
4, 6780, Note_on_c, 2, 53, 0
4, 6840, Note_on_c, 2, 53, 70
4, 6840, Note_on_c, 2, 57, 70
4, 6840, Note_on_c, 2, 60, 70
4, 6900, Note_on_c, 2, 60, 0
4, 6900, Note_on_c, 2, 57, 0
4, 6900, Note_on_c, 2, 53, 0
4, 6960, Note_on_c, 2, 55, 70
4, 6960, Note_on_c, 2, 59, 70
4, 7020, Note_on_c, 2, 59, 0
4, 7020, Note_on_c, 2, 55, 0
4, 7080, Note_on_c, 2, 55, 70
4, 7080, Note_on_c, 2, 59, 70
4, 7140, Note_on_c, 2, 59, 0
4, 7140, Note_on_c, 2, 55, 0
4, 7200, Note_on_c, 2, 48, 70
4, 7200, Note_on_c, 2, 55, 70
4, 7200, Note_on_c, 2, 60, 70
4, 7260, Note_on_c, 2, 60, 0
4, 7260, Note_on_c, 2, 55, 0
4, 7260, Note_on_c, 2, 48, 0
4, 7320, Note_on_c, 2, 48, 70
4, 7320, Note_on_c, 2, 55, 70
4, 7320, Note_on_c, 2, 60, 70
4, 7380, Note_on_c, 2, 60, 0
4, 7380, Note_on_c, 2, 55, 0
4, 7380, Note_on_c, 2, 48, 0
4, 7440, Note_on_c, 2, 48, 70
4, 7440, Note_on_c, 2, 55, 70
4, 7440, Note_on_c, 2, 60, 70
4, 7500, Note_on_c, 2, 60, 0
4, 7500, Note_on_c, 2, 55, 0
4, 7500, Note_on_c, 2, 48, 0
4, 7560, Note_on_c, 2, 48, 70
4, 7560, Note_on_c, 2, 55, 70
4, 7560, Note_on_c, 2, 60, 70
4, 7620, Note_on_c, 2, 60, 0
4, 7620, Note_on_c, 2, 55, 0
4, 7620, Note_on_c, 2, 48, 0
4, 7680, Note_on_c, 2, 48, 92
4, 7680, Note_on_c, 2, 52, 92
4, 7680, Note_on_c, 2, 55, 92
4, 7680, Note_on_c, 2, 60, 92
4, 7740, Note_on_c, 2, 60, 0
4, 7740, Note_on_c, 2, 48, 0
4, 7740, Note_on_c, 2, 52, 0
4, 7740, Note_on_c, 2, 55, 0
4, 7800, Note_on_c, 2, 48, 92
4, 7800, Note_on_c, 2, 52, 92
4, 7800, Note_on_c, 2, 55, 92
4, 7800, Note_on_c, 2, 60, 92
4, 7860, Note_on_c, 2, 60, 0
4, 7860, Note_on_c, 2, 48, 0
4, 7860, Note_on_c, 2, 52, 0
4, 7860, Note_on_c, 2, 55, 0
4, 7920, Note_on_c, 2, 43, 92
4, 7920, Note_on_c, 2, 47, 92
4, 7920, Note_on_c, 2, 50, 92
4, 7920, Note_on_c, 2, 55, 92
4, 7980, Note_on_c, 2, 55, 0
4, 7980, Note_on_c, 2, 43, 0
4, 7980, Note_on_c, 2, 47, 0
4, 7980, Note_on_c, 2, 50, 0
4, 8040, Note_on_c, 2, 43, 92
4, 8040, Note_on_c, 2, 47, 92
4, 8040, Note_on_c, 2, 50, 92
4, 8040, Note_on_c, 2, 55, 92
4, 8100, Note_on_c, 2, 55, 0
4, 8100, Note_on_c, 2, 43, 0
4, 8100, Note_on_c, 2, 47, 0
4, 8100, Note_on_c, 2, 50, 0
4, 8160, Note_on_c, 2, 48, 60
4, 8160, Note_on_c, 2, 52, 60
4, 8220, Note_on_c, 2, 52, 0
4, 8220, Note_on_c, 2, 48, 0
4, 8220, Note_on_c, 2, 55, 60
4, 8280, Note_on_c, 2, 55, 0
4, 8280, Note_on_c, 2, 48, 60
4, 8280, Note_on_c, 2, 52, 60
4, 8340, Note_on_c, 2, 52, 0
4, 8340, Note_on_c, 2, 48, 0
4, 8340, Note_on_c, 2, 55, 60
4, 8400, Note_on_c, 2, 55, 0
4, 8400, Note_on_c, 2, 48, 60
4, 8400, Note_on_c, 2, 52, 60
4, 8460, Note_on_c, 2, 52, 0
4, 8460, Note_on_c, 2, 48, 0
4, 8460, Note_on_c, 2, 55, 60
4, 8520, Note_on_c, 2, 55, 0
4, 8520, Note_on_c, 2, 48, 60
4, 8520, Note_on_c, 2, 52, 60
4, 8580, Note_on_c, 2, 52, 0
4, 8580, Note_on_c, 2, 48, 0
4, 8580, Note_on_c, 2, 55, 60
4, 8640, Note_on_c, 2, 55, 0
4, 8640, Note_on_c, 2, 50, 60
4, 8640, Note_on_c, 2, 53, 60
4, 8700, Note_on_c, 2, 53, 0
4, 8700, Note_on_c, 2, 50, 0
4, 8700, Note_on_c, 2, 55, 60
4, 8760, Note_on_c, 2, 55, 0
4, 8760, Note_on_c, 2, 50, 60
4, 8760, Note_on_c, 2, 53, 60
4, 8820, Note_on_c, 2, 53, 0
4, 8820, Note_on_c, 2, 50, 0
4, 8820, Note_on_c, 2, 55, 60
4, 8880, Note_on_c, 2, 55, 0
4, 8880, Note_on_c, 2, 43, 60
4, 8880, Note_on_c, 2, 50, 60
4, 8940, Note_on_c, 2, 50, 0
4, 8940, Note_on_c, 2, 43, 0
4, 8940, Note_on_c, 2, 55, 60
4, 9000, Note_on_c, 2, 55, 0
4, 9000, Note_on_c, 2, 43, 60
4, 9000, Note_on_c, 2, 50, 60
4, 9060, Note_on_c, 2, 50, 0
4, 9060, Note_on_c, 2, 43, 0
4, 9060, Note_on_c, 2, 55, 60
4, 9120, Note_on_c, 2, 55, 0
4, 9120, Note_on_c, 2, 48, 60
4, 9120, Note_on_c, 2, 52, 60
4, 9180, Note_on_c, 2, 52, 0
4, 9180, Note_on_c, 2, 48, 0
4, 9180, Note_on_c, 2, 55, 60
4, 9240, Note_on_c, 2, 55, 0
4, 9240, Note_on_c, 2, 48, 60
4, 9240, Note_on_c, 2, 52, 60
4, 9300, Note_on_c, 2, 52, 0
4, 9300, Note_on_c, 2, 48, 0
4, 9300, Note_on_c, 2, 55, 60
4, 9360, Note_on_c, 2, 55, 0
4, 9360, Note_on_c, 2, 48, 60
4, 9360, Note_on_c, 2, 52, 60
4, 9420, Note_on_c, 2, 52, 0
4, 9420, Note_on_c, 2, 48, 0
4, 9420, Note_on_c, 2, 55, 60
4, 9480, Note_on_c, 2, 55, 0
4, 9480, Note_on_c, 2, 48, 60
4, 9480, Note_on_c, 2, 52, 60
4, 9540, Note_on_c, 2, 52, 0
4, 9540, Note_on_c, 2, 48, 0
4, 9540, Note_on_c, 2, 55, 60
4, 9600, Note_on_c, 2, 55, 0
4, 9600, Note_on_c, 2, 52, 60
4, 9600, Note_on_c, 2, 56, 60
4, 9660, Note_on_c, 2, 56, 0
4, 9660, Note_on_c, 2, 52, 0
4, 9660, Note_on_c, 2, 59, 60
4, 9720, Note_on_c, 2, 59, 0
4, 9720, Note_on_c, 2, 52, 60
4, 9720, Note_on_c, 2, 56, 60
4, 9780, Note_on_c, 2, 56, 0
4, 9780, Note_on_c, 2, 52, 0
4, 9780, Note_on_c, 2, 59, 60
4, 9840, Note_on_c, 2, 59, 0
4, 9840, Note_on_c, 2, 52, 60
4, 9840, Note_on_c, 2, 56, 60
4, 9900, Note_on_c, 2, 56, 0
4, 9900, Note_on_c, 2, 52, 0
4, 9900, Note_on_c, 2, 59, 60
4, 9960, Note_on_c, 2, 59, 0
4, 9960, Note_on_c, 2, 52, 60
4, 9960, Note_on_c, 2, 56, 60
4, 10020, Note_on_c, 2, 56, 0
4, 10020, Note_on_c, 2, 52, 0
4, 10020, Note_on_c, 2, 59, 60
4, 10080, Note_on_c, 2, 59, 0
4, 10080, Note_on_c, 2, 52, 60
4, 10080, Note_on_c, 2, 56, 60
4, 10140, Note_on_c, 2, 56, 0
4, 10140, Note_on_c, 2, 52, 0
4, 10140, Note_on_c, 2, 59, 60
4, 10200, Note_on_c, 2, 59, 0
4, 10200, Note_on_c, 2, 52, 60
4, 10200, Note_on_c, 2, 56, 60
4, 10260, Note_on_c, 2, 56, 0
4, 10260, Note_on_c, 2, 52, 0
4, 10260, Note_on_c, 2, 59, 60
4, 10320, Note_on_c, 2, 59, 0
4, 10320, Note_on_c, 2, 52, 60
4, 10320, Note_on_c, 2, 56, 60
4, 10380, Note_on_c, 2, 56, 0
4, 10380, Note_on_c, 2, 52, 0
4, 10380, Note_on_c, 2, 59, 60
4, 10440, Note_on_c, 2, 59, 0
4, 10440, Note_on_c, 2, 52, 60
4, 10440, Note_on_c, 2, 56, 60
4, 10500, Note_on_c, 2, 56, 0
4, 10500, Note_on_c, 2, 52, 0
4, 10500, Note_on_c, 2, 59, 60
4, 10560, Note_on_c, 2, 59, 0
4, 10560, Note_on_c, 2, 52, 60
4, 10560, Note_on_c, 2, 56, 60
4, 10680, Note_on_c, 2, 56, 0
4, 10680, Note_on_c, 2, 52, 0
4, 10680, Note_on_c, 2, 64, 60
4, 10920, Note_on_c, 2, 64, 0
4, 10920, Note_on_c, 2, 62, 60
4, 10980, Note_on_c, 2, 62, 0
4, 10980, Note_on_c, 2, 59, 60
4, 11040, Note_on_c, 2, 59, 0
4, 11040, Note_on_c, 2, 56, 60
4, 11160, Note_on_c, 2, 56, 0
4, 11160, Note_on_c, 2, 64, 60
4, 11280, Note_on_c, 2, 64, 0
4, 11280, Note_on_c, 2, 62, 60
4, 11400, Note_on_c, 2, 62, 0
4, 11400, Note_on_c, 2, 59, 60
4, 11520, Note_on_c, 2, 59, 0
4, 11520, Note_on_c, 2, 56, 60
4, 11580, Note_on_c, 2, 56, 0
4, 11580, Note_on_c, 2, 64, 60
4, 11640, Note_on_c, 2, 64, 0
4, 11640, Note_on_c, 2, 62, 60
4, 11700, Note_on_c, 2, 62, 0
4, 11700, Note_on_c, 2, 59, 60
4, 11760, Note_on_c, 2, 59, 0
4, 11760, Note_on_c, 2, 56, 60
4, 11800, Note_on_c, 2, 56, 0
4, 11800, Note_on_c, 2, 66, 60
4, 11840, Note_on_c, 2, 66, 0
4, 11840, Note_on_c, 2, 64, 60
4, 11880, Note_on_c, 2, 64, 0
4, 11880, Note_on_c, 2, 62, 60
4, 11920, Note_on_c, 2, 62, 0
4, 11920, Note_on_c, 2, 61, 60
4, 11960, Note_on_c, 2, 61, 0
4, 11960, Note_on_c, 2, 59, 60
4, 12000, Note_on_c, 2, 59, 0
4, 12000, Note_on_c, 2, 57, 60
4, 12000, Note_on_c, 2, 45, 60
4, 12060, Note_on_c, 2, 45, 0
4, 12060, Note_on_c, 2, 57, 0
4, 12060, Note_on_c, 2, 52, 60
4, 12120, Note_on_c, 2, 52, 0
4, 12120, Note_on_c, 2, 57, 60
4, 12120, Note_on_c, 2, 45, 60
4, 12180, Note_on_c, 2, 45, 0
4, 12180, Note_on_c, 2, 57, 0
4, 12180, Note_on_c, 2, 52, 60
4, 12240, Note_on_c, 2, 52, 0
4, 12240, Note_on_c, 2, 57, 60
4, 12240, Note_on_c, 2, 45, 60
4, 12300, Note_on_c, 2, 45, 0
4, 12300, Note_on_c, 2, 57, 0
4, 12300, Note_on_c, 2, 52, 60
4, 12360, Note_on_c, 2, 52, 0
4, 12360, Note_on_c, 2, 57, 60
4, 12360, Note_on_c, 2, 45, 60
4, 12420, Note_on_c, 2, 45, 0
4, 12420, Note_on_c, 2, 57, 0
4, 12420, Note_on_c, 2, 52, 60
4, 12480, Note_on_c, 2, 52, 0
4, 12480, Note_on_c, 2, 59, 60
4, 12480, Note_on_c, 2, 47, 60
4, 12540, Note_on_c, 2, 47, 0
4, 12540, Note_on_c, 2, 59, 0
4, 12540, Note_on_c, 2, 52, 60
4, 12600, Note_on_c, 2, 52, 0
4, 12600, Note_on_c, 2, 47, 60
4, 12600, Note_on_c, 2, 59, 60
4, 12660, Note_on_c, 2, 59, 0
4, 12660, Note_on_c, 2, 47, 0
4, 12660, Note_on_c, 2, 52, 60
4, 12720, Note_on_c, 2, 52, 0
4, 12720, Note_on_c, 2, 47, 60
4, 12720, Note_on_c, 2, 59, 60
4, 12780, Note_on_c, 2, 59, 0
4, 12780, Note_on_c, 2, 47, 0
4, 12780, Note_on_c, 2, 52, 60
4, 12840, Note_on_c, 2, 52, 0
4, 12840, Note_on_c, 2, 59, 60
4, 12840, Note_on_c, 2, 47, 60
4, 12900, Note_on_c, 2, 47, 0
4, 12900, Note_on_c, 2, 59, 0
4, 12900, Note_on_c, 2, 52, 60
4, 12960, Note_on_c, 2, 52, 0
4, 12960, Note_on_c, 2, 49, 60
4, 12960, Note_on_c, 2, 52, 60
4, 13020, Note_on_c, 2, 52, 0
4, 13020, Note_on_c, 2, 49, 0
4, 13020, Note_on_c, 2, 57, 60
4, 13080, Note_on_c, 2, 57, 0
4, 13080, Note_on_c, 2, 49, 60
4, 13080, Note_on_c, 2, 52, 60
4, 13140, Note_on_c, 2, 52, 0
4, 13140, Note_on_c, 2, 49, 0
4, 13140, Note_on_c, 2, 57, 60
4, 13200, Note_on_c, 2, 57, 0
4, 13200, Note_on_c, 2, 49, 60
4, 13200, Note_on_c, 2, 52, 60
4, 13260, Note_on_c, 2, 52, 0
4, 13260, Note_on_c, 2, 49, 0
4, 13260, Note_on_c, 2, 57, 60
4, 13320, Note_on_c, 2, 57, 0
4, 13320, Note_on_c, 2, 49, 60
4, 13320, Note_on_c, 2, 52, 60
4, 13380, Note_on_c, 2, 52, 0
4, 13380, Note_on_c, 2, 49, 0
4, 13380, Note_on_c, 2, 57, 60
4, 13440, Note_on_c, 2, 57, 0
4, 13440, Note_on_c, 2, 50, 60
4, 13440, Note_on_c, 2, 54, 60
4, 13500, Note_on_c, 2, 54, 0
4, 13500, Note_on_c, 2, 50, 0
4, 13500, Note_on_c, 2, 57, 60
4, 13560, Note_on_c, 2, 57, 0
4, 13560, Note_on_c, 2, 54, 60
4, 13560, Note_on_c, 2, 50, 60
4, 13620, Note_on_c, 2, 50, 0
4, 13620, Note_on_c, 2, 54, 0
4, 13620, Note_on_c, 2, 57, 60
4, 13680, Note_on_c, 2, 57, 0
4, 13680, Note_on_c, 2, 54, 60
4, 13680, Note_on_c, 2, 50, 60
4, 13740, Note_on_c, 2, 50, 0
4, 13740, Note_on_c, 2, 54, 0
4, 13740, Note_on_c, 2, 57, 60
4, 13800, Note_on_c, 2, 57, 0
4, 13800, Note_on_c, 2, 50, 60
4, 13800, Note_on_c, 2, 54, 60
4, 13860, Note_on_c, 2, 54, 0
4, 13860, Note_on_c, 2, 50, 0
4, 13860, Note_on_c, 2, 57, 60
4, 13920, Note_on_c, 2, 57, 0
4, 13920, Note_on_c, 2, 49, 60
4, 13920, Note_on_c, 2, 52, 60
4, 13980, Note_on_c, 2, 52, 0
4, 13980, Note_on_c, 2, 49, 0
4, 13980, Note_on_c, 2, 57, 60
4, 14040, Note_on_c, 2, 57, 0
4, 14040, Note_on_c, 2, 49, 60
4, 14040, Note_on_c, 2, 52, 60
4, 14100, Note_on_c, 2, 52, 0
4, 14100, Note_on_c, 2, 49, 0
4, 14100, Note_on_c, 2, 57, 60
4, 14160, Note_on_c, 2, 57, 0
4, 14160, Note_on_c, 2, 49, 60
4, 14160, Note_on_c, 2, 52, 60
4, 14220, Note_on_c, 2, 52, 0
4, 14220, Note_on_c, 2, 49, 0
4, 14220, Note_on_c, 2, 57, 60
4, 14280, Note_on_c, 2, 57, 0
4, 14280, Note_on_c, 2, 49, 60
4, 14280, Note_on_c, 2, 52, 60
4, 14340, Note_on_c, 2, 52, 0
4, 14340, Note_on_c, 2, 49, 0
4, 14340, Note_on_c, 2, 57, 60
4, 14400, Note_on_c, 2, 57, 0
4, 14400, Note_on_c, 2, 50, 64
4, 14400, Note_on_c, 2, 54, 64
4, 14460, Note_on_c, 2, 54, 0
4, 14460, Note_on_c, 2, 50, 0
4, 14460, Note_on_c, 2, 57, 66
4, 14520, Note_on_c, 2, 57, 0
4, 14520, Note_on_c, 2, 50, 71
4, 14520, Note_on_c, 2, 54, 71
4, 14580, Note_on_c, 2, 54, 0
4, 14580, Note_on_c, 2, 50, 0
4, 14580, Note_on_c, 2, 52, 78
4, 14580, Note_on_c, 2, 56, 78
4, 14640, Note_on_c, 2, 56, 0
4, 14640, Note_on_c, 2, 52, 0
4, 14640, Note_on_c, 2, 54, 84
4, 14640, Note_on_c, 2, 57, 84
4, 14700, Note_on_c, 2, 57, 0
4, 14700, Note_on_c, 2, 54, 0
4, 14700, Note_on_c, 2, 56, 90
4, 14700, Note_on_c, 2, 59, 90
4, 14760, Note_on_c, 2, 59, 0
4, 14760, Note_on_c, 2, 56, 0
4, 14760, Note_on_c, 2, 57, 95
4, 14760, Note_on_c, 2, 61, 95
4, 14820, Note_on_c, 2, 61, 0
4, 14820, Note_on_c, 2, 57, 0
4, 14820, Note_on_c, 2, 62, 102
4, 14820, Note_on_c, 2, 59, 102
4, 14880, Note_on_c, 2, 59, 0
4, 14880, Note_on_c, 2, 62, 0
4, 14880, Note_on_c, 2, 64, 108
4, 14880, Note_on_c, 2, 61, 108
4, 14880, Note_on_c, 2, 57, 108
4, 15240, Note_on_c, 2, 57, 0
4, 15240, Note_on_c, 2, 61, 0
4, 15240, Note_on_c, 2, 64, 0
4, 15240, Note_on_c, 2, 62, 60
4, 15240, Note_on_c, 2, 59, 60
4, 15300, Note_on_c, 2, 59, 0
4, 15300, Note_on_c, 2, 62, 0
4, 15300, Note_on_c, 2, 61, 60
4, 15300, Note_on_c, 2, 57, 60
4, 15360, Note_on_c, 2, 57, 0
4, 15360, Note_on_c, 2, 61, 0
4, 15360, Note_on_c, 2, 50, 60
4, 15360, Note_on_c, 2, 59, 60
4, 15420, Note_on_c, 2, 59, 0
4, 15420, Note_on_c, 2, 50, 0
4, 15480, Note_on_c, 2, 50, 60
4, 15480, Note_on_c, 2, 59, 60
4, 15540, Note_on_c, 2, 59, 0
4, 15540, Note_on_c, 2, 50, 0
4, 15600, Note_on_c, 2, 52, 60
4, 15600, Note_on_c, 2, 57, 60
4, 15660, Note_on_c, 2, 57, 0
4, 15660, Note_on_c, 2, 52, 0
4, 15720, Note_on_c, 2, 52, 60
4, 15720, Note_on_c, 2, 56, 60
4, 15720, Note_on_c, 2, 59, 60
4, 15780, Note_on_c, 2, 59, 0
4, 15780, Note_on_c, 2, 56, 0
4, 15780, Note_on_c, 2, 52, 0
4, 15840, Note_on_c, 2, 49, 60
4, 15840, Note_on_c, 2, 45, 60
4, 15900, Note_on_c, 2, 45, 0
4, 15900, Note_on_c, 2, 49, 0
4, 15900, Note_on_c, 2, 57, 60
4, 15960, Note_on_c, 2, 57, 0
4, 15960, Note_on_c, 2, 47, 60
4, 15960, Note_on_c, 2, 50, 60
4, 16020, Note_on_c, 2, 50, 0
4, 16020, Note_on_c, 2, 47, 0
4, 16020, Note_on_c, 2, 57, 60
4, 16080, Note_on_c, 2, 57, 0
4, 16080, Note_on_c, 2, 47, 60
4, 16080, Note_on_c, 2, 50, 60
4, 16140, Note_on_c, 2, 50, 0
4, 16140, Note_on_c, 2, 47, 0
4, 16140, Note_on_c, 2, 57, 60
4, 16200, Note_on_c, 2, 57, 0
4, 16200, Note_on_c, 2, 47, 60
4, 16200, Note_on_c, 2, 50, 60
4, 16260, Note_on_c, 2, 50, 0
4, 16260, Note_on_c, 2, 47, 0
4, 16260, Note_on_c, 2, 57, 60
4, 16320, Note_on_c, 2, 57, 0
4, 16320, Note_on_c, 2, 49, 60
4, 16320, Note_on_c, 2, 52, 60
4, 16380, Note_on_c, 2, 52, 0
4, 16380, Note_on_c, 2, 49, 0
4, 16380, Note_on_c, 2, 57, 60
4, 16440, Note_on_c, 2, 57, 0
4, 16440, Note_on_c, 2, 49, 60
4, 16440, Note_on_c, 2, 52, 60
4, 16500, Note_on_c, 2, 52, 0
4, 16500, Note_on_c, 2, 49, 0
4, 16500, Note_on_c, 2, 57, 60
4, 16560, Note_on_c, 2, 57, 0
4, 16560, Note_on_c, 2, 52, 60
4, 16560, Note_on_c, 2, 49, 60
4, 16620, Note_on_c, 2, 49, 0
4, 16620, Note_on_c, 2, 52, 0
4, 16620, Note_on_c, 2, 57, 60
4, 16680, Note_on_c, 2, 57, 0
4, 16680, Note_on_c, 2, 52, 60
4, 16680, Note_on_c, 2, 49, 60
4, 16740, Note_on_c, 2, 49, 0
4, 16740, Note_on_c, 2, 52, 0
4, 16740, Note_on_c, 2, 57, 60
4, 16800, Note_on_c, 2, 57, 0
4, 16800, Note_on_c, 2, 50, 60
4, 16800, Note_on_c, 2, 54, 60
4, 16860, Note_on_c, 2, 54, 0
4, 16860, Note_on_c, 2, 50, 0
4, 16860, Note_on_c, 2, 57, 60
4, 16920, Note_on_c, 2, 57, 0
4, 16920, Note_on_c, 2, 50, 60
4, 16920, Note_on_c, 2, 54, 60
4, 16980, Note_on_c, 2, 54, 0
4, 16980, Note_on_c, 2, 50, 0
4, 16980, Note_on_c, 2, 57, 60
4, 17040, Note_on_c, 2, 57, 0
4, 17040, Note_on_c, 2, 50, 60
4, 17040, Note_on_c, 2, 54, 60
4, 17100, Note_on_c, 2, 54, 0
4, 17100, Note_on_c, 2, 50, 0
4, 17100, Note_on_c, 2, 57, 60
4, 17160, Note_on_c, 2, 57, 0
4, 17160, Note_on_c, 2, 50, 60
4, 17160, Note_on_c, 2, 54, 60
4, 17220, Note_on_c, 2, 54, 0
4, 17220, Note_on_c, 2, 50, 0
4, 17220, Note_on_c, 2, 57, 60
4, 17280, Note_on_c, 2, 57, 0
4, 17280, Note_on_c, 2, 49, 60
4, 17280, Note_on_c, 2, 52, 60
4, 17340, Note_on_c, 2, 52, 0
4, 17340, Note_on_c, 2, 49, 0
4, 17340, Note_on_c, 2, 57, 60
4, 17400, Note_on_c, 2, 57, 0
4, 17400, Note_on_c, 2, 49, 60
4, 17400, Note_on_c, 2, 52, 60
4, 17460, Note_on_c, 2, 52, 0
4, 17460, Note_on_c, 2, 49, 0
4, 17460, Note_on_c, 2, 57, 60
4, 17520, Note_on_c, 2, 57, 0
4, 17520, Note_on_c, 2, 52, 60
4, 17520, Note_on_c, 2, 49, 60
4, 17580, Note_on_c, 2, 49, 0
4, 17580, Note_on_c, 2, 52, 0
4, 17580, Note_on_c, 2, 57, 60
4, 17640, Note_on_c, 2, 57, 0
4, 17640, Note_on_c, 2, 52, 60
4, 17640, Note_on_c, 2, 49, 60
4, 17700, Note_on_c, 2, 49, 0
4, 17700, Note_on_c, 2, 52, 0
4, 17700, Note_on_c, 2, 57, 60
4, 17760, Note_on_c, 2, 57, 0
4, 17760, Note_on_c, 2, 50, 60
4, 17760, Note_on_c, 2, 54, 60
4, 17820, Note_on_c, 2, 54, 0
4, 17820, Note_on_c, 2, 50, 0
4, 17820, Note_on_c, 2, 57, 60
4, 17880, Note_on_c, 2, 57, 0
4, 17880, Note_on_c, 2, 50, 60
4, 17880, Note_on_c, 2, 54, 60
4, 17940, Note_on_c, 2, 54, 0
4, 17940, Note_on_c, 2, 50, 0
4, 17940, Note_on_c, 2, 57, 60
4, 18000, Note_on_c, 2, 57, 0
4, 18000, Note_on_c, 2, 54, 60
4, 18000, Note_on_c, 2, 50, 60
4, 18060, Note_on_c, 2, 50, 0
4, 18060, Note_on_c, 2, 54, 0
4, 18060, Note_on_c, 2, 59, 60
4, 18120, Note_on_c, 2, 59, 0
4, 18120, Note_on_c, 2, 54, 60
4, 18120, Note_on_c, 2, 50, 60
4, 18180, Note_on_c, 2, 50, 0
4, 18180, Note_on_c, 2, 54, 0
4, 18180, Note_on_c, 2, 59, 60
4, 18240, Note_on_c, 2, 59, 0
4, 18240, Note_on_c, 2, 52, 60
4, 18240, Note_on_c, 2, 56, 60
4, 18300, Note_on_c, 2, 56, 0
4, 18300, Note_on_c, 2, 52, 0
4, 18300, Note_on_c, 2, 59, 60
4, 18360, Note_on_c, 2, 59, 0
4, 18360, Note_on_c, 2, 52, 60
4, 18360, Note_on_c, 2, 56, 60
4, 18420, Note_on_c, 2, 56, 0
4, 18420, Note_on_c, 2, 52, 0
4, 18420, Note_on_c, 2, 52, 60
4, 18420, Note_on_c, 2, 56, 60
4, 18480, Note_on_c, 2, 56, 0
4, 18480, Note_on_c, 2, 52, 0
4, 18480, Note_on_c, 2, 54, 60
4, 18480, Note_on_c, 2, 57, 60
4, 18540, Note_on_c, 2, 57, 0
4, 18540, Note_on_c, 2, 54, 0
4, 18540, Note_on_c, 2, 59, 60
4, 18540, Note_on_c, 2, 56, 60
4, 18600, Note_on_c, 2, 56, 0
4, 18600, Note_on_c, 2, 59, 0
4, 18600, Note_on_c, 2, 61, 60
4, 18600, Note_on_c, 2, 57, 60
4, 18660, Note_on_c, 2, 57, 0
4, 18660, Note_on_c, 2, 61, 0
4, 18660, Note_on_c, 2, 62, 60
4, 18660, Note_on_c, 2, 59, 60
4, 18720, Note_on_c, 2, 59, 0
4, 18720, Note_on_c, 2, 62, 0
4, 18720, Note_on_c, 2, 64, 110
4, 18720, Note_on_c, 2, 61, 110
4, 18720, Note_on_c, 2, 57, 110
4, 19080, Note_on_c, 2, 57, 0
4, 19080, Note_on_c, 2, 61, 0
4, 19080, Note_on_c, 2, 64, 0
4, 19080, Note_on_c, 2, 59, 110
4, 19080, Note_on_c, 2, 62, 110
4, 19140, Note_on_c, 2, 62, 0
4, 19140, Note_on_c, 2, 59, 0
4, 19140, Note_on_c, 2, 61, 110
4, 19140, Note_on_c, 2, 57, 110
4, 19200, Note_on_c, 2, 57, 0
4, 19200, Note_on_c, 2, 61, 0
4, 20100, Note_on_c, 2, 61, 81
4, 20100, Note_on_c, 2, 57, 81
4, 20160, Note_on_c, 2, 57, 0
4, 20160, Note_on_c, 2, 61, 0
4, 20160, Note_on_c, 2, 52, 80
4, 20160, Note_on_c, 2, 59, 80
4, 20220, Note_on_c, 2, 59, 0
4, 20220, Note_on_c, 2, 52, 0
4, 20280, Note_on_c, 2, 40, 77
4, 20280, Note_on_c, 2, 52, 77
4, 20340, Note_on_c, 2, 52, 0
4, 20340, Note_on_c, 2, 40, 0
4, 20400, Note_on_c, 2, 40, 75
4, 20400, Note_on_c, 2, 52, 75
4, 20460, Note_on_c, 2, 52, 0
4, 20460, Note_on_c, 2, 40, 0
4, 20520, Note_on_c, 2, 40, 72
4, 20520, Note_on_c, 2, 52, 72
4, 20580, Note_on_c, 2, 52, 0
4, 20580, Note_on_c, 2, 40, 0
4, 20640, Note_on_c, 2, 49, 68
4, 20640, Note_on_c, 2, 45, 68
4, 20700, Note_on_c, 2, 45, 0
4, 20700, Note_on_c, 2, 49, 0
4, 20700, Note_on_c, 2, 52, 64
4, 20760, Note_on_c, 2, 52, 0
4, 20760, Note_on_c, 2, 49, 63
4, 20760, Note_on_c, 2, 45, 63
4, 20820, Note_on_c, 2, 45, 0
4, 20820, Note_on_c, 2, 49, 0
4, 20820, Note_on_c, 2, 52, 63
4, 20880, Note_on_c, 2, 52, 0
4, 20880, Note_on_c, 2, 49, 63
4, 20880, Note_on_c, 2, 45, 63
4, 20940, Note_on_c, 2, 45, 0
4, 20940, Note_on_c, 2, 49, 0
4, 20940, Note_on_c, 2, 52, 62
4, 21000, Note_on_c, 2, 52, 0
4, 21000, Note_on_c, 2, 49, 61
4, 21000, Note_on_c, 2, 45, 61
4, 21060, Note_on_c, 2, 45, 0
4, 21060, Note_on_c, 2, 49, 0
4, 21060, Note_on_c, 2, 52, 60
4, 21120, Note_on_c, 2, 52, 0
4, 21120, Note_on_c, 2, 50, 59
4, 21120, Note_on_c, 2, 47, 59
4, 21180, Note_on_c, 2, 47, 0
4, 21180, Note_on_c, 2, 50, 0
4, 21180, Note_on_c, 2, 52, 57
4, 21240, Note_on_c, 2, 52, 0
4, 21240, Note_on_c, 2, 50, 57
4, 21240, Note_on_c, 2, 47, 57
4, 21300, Note_on_c, 2, 47, 0
4, 21300, Note_on_c, 2, 50, 0
4, 21300, Note_on_c, 2, 52, 56
4, 21360, Note_on_c, 2, 52, 0
4, 21360, Note_on_c, 2, 40, 55
4, 21420, Note_on_c, 2, 40, 0
4, 21420, Note_on_c, 2, 52, 54
4, 21480, Note_on_c, 2, 52, 0
4, 21480, Note_on_c, 2, 38, 54
4, 21540, Note_on_c, 2, 38, 0
4, 21540, Note_on_c, 2, 50, 54
4, 21600, Note_on_c, 2, 50, 0
4, 21600, Note_on_c, 2, 37, 54
4, 21600, Note_on_c, 2, 49, 54
4, 21720, Note_on_c, 2, 49, 0
4, 21720, Note_on_c, 2, 37, 0
4, 21840, Note_on_c, 2, 52, 51
4, 21840, Note_on_c, 2, 40, 51
4, 21900, Note_on_c, 2, 40, 0
4, 21900, Note_on_c, 2, 52, 0
4, 21960, Control_c, 2, 64, 127
4, 21960, Note_on_c, 2, 52, 51
4, 21960, Note_on_c, 2, 40, 51
4, 22020, Note_on_c, 2, 40, 0
4, 22020, Note_on_c, 2, 52, 0
4, 22020, Control_c, 2, 64, 0
4, 22080, Control_c, 2, 64, 127
4, 22080, Note_on_c, 2, 33, 49
4, 22080, Note_on_c, 2, 45, 49
4, 22200, Note_on_c, 2, 45, 0
4, 22200, Note_on_c, 2, 33, 0
4, 22320, Control_c, 2, 64, 0
4, 22320, End_track
0, 0, End_of_file