0, 0, Header, 1, 3, 120
1, 0, Start_track
1, 0, Title_t, "Piano Piece in E-Flat Major,"
1, 0, Title_t, "Hess 74 (1800)"
1, 0, Copyright_t, "Copyright \251 2002 di FIORELLA ED ARMANDO ORLANDI"
1, 0, Text_t, "FIORELLA ED ARMANDO ORLANDI\012"
1, 0, Time_signature, 6, 3, 12, 8
1, 0, Key_signature, -3, "major"
1, 0, Tempo, 530973
1, 4620, Tempo, 530973
1, 8640, Tempo, 530973
1, 8646, Tempo, 535714
1, 8650, Tempo, 540541
1, 8654, Tempo, 545455
1, 8658, Tempo, 550459
1, 8662, Tempo, 555556
1, 8666, Tempo, 560748
1, 8670, Tempo, 566038
1, 8674, Tempo, 571429
1, 8678, Tempo, 576923
1, 8682, Tempo, 582524
1, 8686, Tempo, 588235
1, 8690, Tempo, 594059
1, 8694, Tempo, 600000
1, 8698, Tempo, 606061
1, 8702, Tempo, 612245
1, 8706, Tempo, 618557
1, 8710, Tempo, 625000
1, 8714, Tempo, 631579
1, 8718, Tempo, 638298
1, 8722, Tempo, 645161
1, 8726, Tempo, 652174
1, 8730, Tempo, 659341
1, 8736, Tempo, 666667
1, 8740, Tempo, 674157
1, 8744, Tempo, 681818
1, 8748, Tempo, 689655
1, 8752, Tempo, 697674
1, 8756, Tempo, 705882
1, 8760, Tempo, 714286
1, 8764, Tempo, 722892
1, 8768, Tempo, 731707
1, 8772, Tempo, 740741
1, 8776, Tempo, 750000
1, 8780, Tempo, 759494
1, 8784, Tempo, 769231
1, 8788, Tempo, 779221
1, 8792, Tempo, 789474
1, 8796, Tempo, 800000
1, 8800, Tempo, 810811
1, 8804, Tempo, 821918
1, 8808, Tempo, 833333
1, 8812, Tempo, 845070
1, 8816, Tempo, 857143
1, 8820, Tempo, 869565
1, 8824, Tempo, 882353
1, 8830, Tempo, 895522
1, 8834, Tempo, 909091
1, 8838, Tempo, 923077
1, 8842, Tempo, 937500
1, 8846, Tempo, 952381
1, 8850, Tempo, 967742
1, 8854, Tempo, 983607
1, 8858, Tempo, 1000000
1, 8862, Tempo, 1016949
1, 8866, Tempo, 1034483
1, 8870, Tempo, 1052632
1, 8874, Tempo, 1071429
1, 8878, Tempo, 1090909
1, 8882, Tempo, 1111111
1, 8886, Tempo, 1132075
1, 8890, Tempo, 1153846
1, 8894, Tempo, 1176471
1, 8898, Tempo, 1200000
1, 8902, Tempo, 1224490
1, 8906, Tempo, 1250000
1, 8910, Tempo, 1276596
1, 8914, Tempo, 1304348
1, 8918, Tempo, 1333333
1, 8924, Tempo, 1363636
1, 8928, Tempo, 1395349
1, 8932, Tempo, 1428571
1, 8936, Tempo, 1463415
1, 8940, Tempo, 1500000
1, 8944, Tempo, 1538462
1, 8948, Tempo, 1578947
1, 8952, Tempo, 1621622
1, 8956, Tempo, 1666667
1, 8960, Tempo, 1714286
1, 8964, Tempo, 1764706
1, 8968, Tempo, 1818182
1, 8972, Tempo, 1875000
1, 8976, Tempo, 1935484
1, 8980, Tempo, 2000000
1, 8984, Tempo, 2068966
1, 8988, Tempo, 2142857
1, 8992, Tempo, 2222222
1, 8996, Tempo, 2307692
1, 9000, Tempo, 2400000
1, 9004, Tempo, 2500000
1, 9008, Tempo, 2608696
1, 9012, Tempo, 2727273
1, 9012, End_track
2, 0, Start_track
2, 0, MIDI_port, 0
2, 0, Title_t, "PianoR"
2, 0, Program_c, 0, 0
2, 0, Control_c, 0, 7, 113
2, 0, Control_c, 0, 10, 37
2, 0, Control_c, 0, 93, 15
2, 0, Control_c, 0, 91, 21
2, 300, Note_on_c, 0, 70, 71
2, 360, Note_on_c, 0, 70, 0
2, 360, Note_on_c, 0, 58, 60
2, 480, Note_on_c, 0, 58, 0
2, 480, Note_on_c, 0, 58, 60
2, 540, Note_on_c, 0, 58, 0
2, 540, Note_on_c, 0, 60, 63
2, 555, Note_on_c, 0, 60, 0
2, 555, Note_on_c, 0, 58, 64
2, 570, Note_on_c, 0, 58, 0
2, 570, Note_on_c, 0, 60, 65
2, 585, Note_on_c, 0, 60, 0
2, 585, Note_on_c, 0, 58, 65
2, 600, Note_on_c, 0, 58, 0
2, 600, Note_on_c, 0, 60, 65
2, 615, Note_on_c, 0, 60, 0
2, 615, Note_on_c, 0, 58, 66
2, 630, Note_on_c, 0, 58, 0
2, 630, Note_on_c, 0, 60, 67
2, 660, Note_on_c, 0, 60, 0
2, 660, Note_on_c, 0, 62, 70
2, 720, Note_on_c, 0, 62, 0
2, 720, Note_on_c, 0, 65, 60
2, 735, Note_on_c, 0, 65, 0
2, 735, Note_on_c, 0, 63, 59
2, 750, Note_on_c, 0, 63, 0
2, 750, Note_on_c, 0, 65, 59
2, 765, Note_on_c, 0, 65, 0
2, 765, Note_on_c, 0, 63, 61
2, 780, Note_on_c, 0, 63, 0
2, 780, Note_on_c, 0, 65, 61
2, 795, Note_on_c, 0, 65, 0
2, 795, Note_on_c, 0, 63, 61
2, 810, Note_on_c, 0, 63, 0
2, 810, Note_on_c, 0, 67, 62
2, 840, Note_on_c, 0, 67, 0
2, 840, Note_on_c, 0, 70, 66
2, 900, Note_on_c, 0, 70, 0
2, 900, Note_on_c, 0, 70, 78
2, 1020, Note_on_c, 0, 70, 0
2, 1020, Note_on_c, 0, 67, 62
2, 1080, Note_on_c, 0, 67, 0
2, 1080, Note_on_c, 0, 70, 66
2, 1095, Note_on_c, 0, 70, 0
2, 1095, Note_on_c, 0, 68, 68
2, 1110, Note_on_c, 0, 68, 0
2, 1110, Note_on_c, 0, 70, 70
2, 1125, Note_on_c, 0, 70, 0
2, 1125, Note_on_c, 0, 68, 72
2, 1140, Note_on_c, 0, 68, 0
2, 1140, Note_on_c, 0, 70, 73
2, 1155, Note_on_c, 0, 70, 0
2, 1155, Note_on_c, 0, 68, 74
2, 1170, Note_on_c, 0, 68, 0
2, 1170, Note_on_c, 0, 67, 76
2, 1200, Note_on_c, 0, 67, 0
2, 1200, Note_on_c, 0, 68, 80
2, 1260, Note_on_c, 0, 68, 0
2, 1260, Note_on_c, 0, 67, 60
2, 1275, Note_on_c, 0, 67, 0
2, 1275, Note_on_c, 0, 65, 63
2, 1290, Note_on_c, 0, 65, 0
2, 1290, Note_on_c, 0, 67, 65
2, 1305, Note_on_c, 0, 67, 0
2, 1305, Note_on_c, 0, 65, 67
2, 1320, Note_on_c, 0, 65, 0
2, 1320, Note_on_c, 0, 67, 69
2, 1335, Note_on_c, 0, 67, 0
2, 1335, Note_on_c, 0, 65, 70
2, 1350, Note_on_c, 0, 65, 0
2, 1350, Note_on_c, 0, 72, 72
2, 1380, Note_on_c, 0, 72, 0
2, 1380, Note_on_c, 0, 70, 75
2, 1440, Note_on_c, 0, 70, 0
2, 1440, Note_on_c, 0, 68, 60
2, 1455, Note_on_c, 0, 68, 0
2, 1455, Note_on_c, 0, 67, 58
2, 1470, Note_on_c, 0, 67, 0
2, 1470, Note_on_c, 0, 68, 58
2, 1485, Note_on_c, 0, 68, 0
2, 1485, Note_on_c, 0, 67, 64
2, 1500, Note_on_c, 0, 67, 0
2, 1500, Note_on_c, 0, 68, 64
2, 1515, Note_on_c, 0, 68, 0
2, 1515, Note_on_c, 0, 67, 64
2, 1530, Note_on_c, 0, 67, 0
2, 1530, Note_on_c, 0, 65, 67
2, 1560, Note_on_c, 0, 65, 0
2, 1560, Note_on_c, 0, 67, 71
2, 1620, Note_on_c, 0, 67, 0
2, 1620, Note_on_c, 0, 63, 60
2, 1740, Note_on_c, 0, 63, 0
2, 1740, Note_on_c, 0, 70, 60
2, 1800, Note_on_c, 0, 70, 0
2, 1800, Note_on_c, 0, 58, 60
2, 1920, Note_on_c, 0, 58, 0
2, 1920, Note_on_c, 0, 58, 60
2, 1980, Note_on_c, 0, 58, 0
2, 1980, Note_on_c, 0, 60, 69
2, 1995, Note_on_c, 0, 60, 0
2, 1995, Note_on_c, 0, 58, 69
2, 2010, Note_on_c, 0, 58, 0
2, 2010, Note_on_c, 0, 60, 73
2, 2025, Note_on_c, 0, 60, 0
2, 2025, Note_on_c, 0, 58, 76
2, 2040, Note_on_c, 0, 58, 0
2, 2040, Note_on_c, 0, 60, 77
2, 2055, Note_on_c, 0, 60, 0
2, 2055, Note_on_c, 0, 58, 79
2, 2070, Note_on_c, 0, 58, 0
2, 2070, Note_on_c, 0, 60, 81
2, 2100, Note_on_c, 0, 60, 0
2, 2100, Note_on_c, 0, 62, 84
2, 2160, Note_on_c, 0, 62, 0
2, 2160, Note_on_c, 0, 65, 52
2, 2175, Note_on_c, 0, 65, 0
2, 2175, Note_on_c, 0, 63, 55
2, 2190, Note_on_c, 0, 63, 0
2, 2190, Note_on_c, 0, 65, 61
2, 2205, Note_on_c, 0, 65, 0
2, 2205, Note_on_c, 0, 63, 61
2, 2220, Note_on_c, 0, 63, 0
2, 2220, Note_on_c, 0, 65, 69
2, 2235, Note_on_c, 0, 65, 0
2, 2235, Note_on_c, 0, 63, 71
2, 2250, Note_on_c, 0, 63, 0
2, 2250, Note_on_c, 0, 67, 75
2, 2280, Note_on_c, 0, 67, 0
2, 2280, Note_on_c, 0, 70, 78
2, 2340, Note_on_c, 0, 70, 0
2, 2340, Note_on_c, 0, 70, 85
2, 2460, Note_on_c, 0, 70, 0
2, 2460, Note_on_c, 0, 67, 56
2, 2520, Note_on_c, 0, 67, 0
2, 2520, Note_on_c, 0, 70, 60
2, 2535, Note_on_c, 0, 70, 0
2, 2535, Note_on_c, 0, 68, 60
2, 2550, Note_on_c, 0, 68, 0
2, 2550, Note_on_c, 0, 70, 62
2, 2565, Note_on_c, 0, 70, 0
2, 2565, Note_on_c, 0, 68, 66
2, 2580, Note_on_c, 0, 68, 0
2, 2580, Note_on_c, 0, 70, 68
2, 2595, Note_on_c, 0, 70, 0
2, 2595, Note_on_c, 0, 68, 72
2, 2610, Note_on_c, 0, 68, 0
2, 2610, Note_on_c, 0, 67, 74
2, 2640, Note_on_c, 0, 67, 0
2, 2640, Note_on_c, 0, 68, 86
2, 2700, Note_on_c, 0, 68, 0
2, 2700, Note_on_c, 0, 65, 60
2, 2820, Note_on_c, 0, 65, 0
2, 2820, Note_on_c, 0, 70, 60
2, 2880, Note_on_c, 0, 70, 0
2, 2880, Note_on_c, 0, 63, 60
2, 3180, Note_on_c, 0, 63, 0
2, 3180, Note_on_c, 0, 63, 100
2, 3180, Note_on_c, 0, 75, 100
2, 3240, Note_on_c, 0, 75, 0
2, 3240, Note_on_c, 0, 63, 0
2, 3240, Note_on_c, 0, 75, 107
2, 3240, Note_on_c, 0, 65, 107
2, 3330, Note_on_c, 0, 65, 0
2, 3330, Note_on_c, 0, 75, 0
2, 3330, Note_on_c, 0, 75, 97
2, 3330, Note_on_c, 0, 67, 97
2, 3360, Note_on_c, 0, 67, 0
2, 3360, Note_on_c, 0, 75, 0
2, 3360, Note_on_c, 0, 75, 100
2, 3360, Note_on_c, 0, 65, 100
2, 3420, Note_on_c, 0, 65, 0
2, 3420, Note_on_c, 0, 75, 0
2, 3420, Note_on_c, 0, 75, 109
2, 3420, Note_on_c, 0, 63, 109
2, 3540, Note_on_c, 0, 63, 0
2, 3540, Note_on_c, 0, 75, 0
2, 3540, Note_on_c, 0, 75, 90
2, 3540, Note_on_c, 0, 63, 90
2, 3600, Note_on_c, 0, 63, 0
2, 3600, Note_on_c, 0, 75, 0
2, 3600, Note_on_c, 0, 75, 93
2, 3600, Note_on_c, 0, 65, 93
2, 3690, Note_on_c, 0, 65, 0
2, 3690, Note_on_c, 0, 75, 0
2, 3690, Note_on_c, 0, 75, 101
2, 3690, Note_on_c, 0, 67, 101
2, 3720, Note_on_c, 0, 67, 0
2, 3720, Note_on_c, 0, 75, 0
2, 3720, Note_on_c, 0, 75, 104
2, 3720, Note_on_c, 0, 65, 104
2, 3780, Note_on_c, 0, 65, 0
2, 3780, Note_on_c, 0, 75, 0
2, 3780, Note_on_c, 0, 75, 109
2, 3780, Note_on_c, 0, 63, 109
2, 3900, Note_on_c, 0, 63, 0
2, 3900, Note_on_c, 0, 75, 0
2, 3900, Note_on_c, 0, 75, 88
2, 3900, Note_on_c, 0, 63, 88
2, 3960, Note_on_c, 0, 63, 0
2, 3960, Note_on_c, 0, 75, 0
2, 3960, Note_on_c, 0, 75, 106
2, 3960, Note_on_c, 0, 65, 106
2, 4050, Note_on_c, 0, 65, 0
2, 4050, Note_on_c, 0, 75, 0
2, 4050, Note_on_c, 0, 75, 85
2, 4050, Note_on_c, 0, 67, 85
2, 4080, Note_on_c, 0, 67, 0
2, 4080, Note_on_c, 0, 75, 0
2, 4080, Note_on_c, 0, 75, 94
2, 4080, Note_on_c, 0, 65, 94
2, 4140, Note_on_c, 0, 65, 0
2, 4140, Note_on_c, 0, 75, 0
2, 4140, Note_on_c, 0, 75, 87
2, 4140, Note_on_c, 0, 63, 87
2, 4260, Note_on_c, 0, 63, 0
2, 4260, Note_on_c, 0, 75, 0
2, 4260, Note_on_c, 0, 75, 93
2, 4260, Note_on_c, 0, 63, 93
2, 4320, Note_on_c, 0, 63, 0
2, 4320, Note_on_c, 0, 75, 0
2, 4320, Note_on_c, 0, 75, 104
2, 4320, Note_on_c, 0, 62, 104
2, 4320, Control_c, 0, 93, 15
2, 4320, Control_c, 0, 91, 21
2, 4410, Note_on_c, 0, 62, 0
2, 4410, Note_on_c, 0, 75, 0
2, 4410, Note_on_c, 0, 75, 114
2, 4410, Note_on_c, 0, 60, 114
2, 4440, Note_on_c, 0, 60, 0
2, 4440, Note_on_c, 0, 75, 0
2, 4440, Note_on_c, 0, 62, 117
2, 4440, Note_on_c, 0, 75, 117
2, 4500, Note_on_c, 0, 75, 0
2, 4500, Note_on_c, 0, 62, 0
2, 4500, Note_on_c, 0, 75, 117
2, 4500, Note_on_c, 0, 63, 117
2, 4620, Note_on_c, 0, 63, 0
2, 4620, Note_on_c, 0, 75, 0
2, 4620, Note_on_c, 0, 70, 71
2, 4680, Note_on_c, 0, 70, 0
2, 4680, Note_on_c, 0, 58, 60
2, 4800, Note_on_c, 0, 58, 0
2, 4800, Note_on_c, 0, 58, 60
2, 4860, Note_on_c, 0, 58, 0
2, 4860, Note_on_c, 0, 60, 63
2, 4875, Note_on_c, 0, 60, 0
2, 4875, Note_on_c, 0, 58, 64
2, 4890, Note_on_c, 0, 58, 0
2, 4890, Note_on_c, 0, 60, 65
2, 4905, Note_on_c, 0, 60, 0
2, 4905, Note_on_c, 0, 58, 65
2, 4920, Note_on_c, 0, 58, 0
2, 4920, Note_on_c, 0, 60, 65
2, 4935, Note_on_c, 0, 60, 0
2, 4935, Note_on_c, 0, 58, 66
2, 4950, Note_on_c, 0, 58, 0
2, 4950, Note_on_c, 0, 60, 67
2, 4980, Note_on_c, 0, 60, 0
2, 4980, Note_on_c, 0, 62, 70
2, 5040, Note_on_c, 0, 62, 0
2, 5040, Note_on_c, 0, 65, 60
2, 5055, Note_on_c, 0, 65, 0
2, 5055, Note_on_c, 0, 63, 59
2, 5070, Note_on_c, 0, 63, 0
2, 5070, Note_on_c, 0, 65, 59
2, 5085, Note_on_c, 0, 65, 0
2, 5085, Note_on_c, 0, 63, 61
2, 5100, Note_on_c, 0, 63, 0
2, 5100, Note_on_c, 0, 65, 61
2, 5115, Note_on_c, 0, 65, 0
2, 5115, Note_on_c, 0, 63, 61
2, 5130, Note_on_c, 0, 63, 0
2, 5130, Note_on_c, 0, 67, 62
2, 5160, Note_on_c, 0, 67, 0
2, 5160, Note_on_c, 0, 70, 66
2, 5220, Note_on_c, 0, 70, 0
2, 5220, Note_on_c, 0, 70, 78
2, 5340, Note_on_c, 0, 70, 0
2, 5340, Note_on_c, 0, 67, 62
2, 5400, Note_on_c, 0, 67, 0
2, 5400, Note_on_c, 0, 70, 66
2, 5415, Note_on_c, 0, 70, 0
2, 5415, Note_on_c, 0, 68, 68
2, 5430, Note_on_c, 0, 68, 0
2, 5430, Note_on_c, 0, 70, 70
2, 5445, Note_on_c, 0, 70, 0
2, 5445, Note_on_c, 0, 68, 72
2, 5460, Note_on_c, 0, 68, 0
2, 5460, Note_on_c, 0, 70, 73
2, 5475, Note_on_c, 0, 70, 0
2, 5475, Note_on_c, 0, 68, 74
2, 5490, Note_on_c, 0, 68, 0
2, 5490, Note_on_c, 0, 67, 76
2, 5520, Note_on_c, 0, 67, 0
2, 5520, Note_on_c, 0, 68, 80
2, 5580, Note_on_c, 0, 68, 0
2, 5580, Note_on_c, 0, 67, 60
2, 5595, Note_on_c, 0, 67, 0
2, 5595, Note_on_c, 0, 65, 63
2, 5610, Note_on_c, 0, 65, 0
2, 5610, Note_on_c, 0, 67, 65
2, 5625, Note_on_c, 0, 67, 0
2, 5625, Note_on_c, 0, 65, 67
2, 5640, Note_on_c, 0, 65, 0
2, 5640, Note_on_c, 0, 67, 69
2, 5655, Note_on_c, 0, 67, 0
2, 5655, Note_on_c, 0, 65, 70
2, 5670, Note_on_c, 0, 65, 0
2, 5670, Note_on_c, 0, 72, 72
2, 5700, Note_on_c, 0, 72, 0
2, 5700, Note_on_c, 0, 70, 75
2, 5760, Note_on_c, 0, 70, 0
2, 5760, Note_on_c, 0, 68, 60
2, 5775, Note_on_c, 0, 68, 0
2, 5775, Note_on_c, 0, 67, 58
2, 5790, Note_on_c, 0, 67, 0
2, 5790, Note_on_c, 0, 68, 58
2, 5805, Note_on_c, 0, 68, 0
2, 5805, Note_on_c, 0, 67, 64
2, 5820, Note_on_c, 0, 67, 0
2, 5820, Note_on_c, 0, 68, 64
2, 5835, Note_on_c, 0, 68, 0
2, 5835, Note_on_c, 0, 67, 64
2, 5850, Note_on_c, 0, 67, 0
2, 5850, Note_on_c, 0, 65, 67
2, 5880, Note_on_c, 0, 65, 0
2, 5880, Note_on_c, 0, 67, 71
2, 5940, Note_on_c, 0, 67, 0
2, 5940, Note_on_c, 0, 63, 60
2, 6060, Note_on_c, 0, 63, 0
2, 6060, Note_on_c, 0, 70, 60
2, 6120, Note_on_c, 0, 70, 0
2, 6120, Note_on_c, 0, 58, 60
2, 6240, Note_on_c, 0, 58, 0
2, 6240, Note_on_c, 0, 58, 60
2, 6300, Note_on_c, 0, 58, 0
2, 6300, Note_on_c, 0, 60, 69
2, 6315, Note_on_c, 0, 60, 0
2, 6315, Note_on_c, 0, 58, 69
2, 6330, Note_on_c, 0, 58, 0
2, 6330, Note_on_c, 0, 60, 73
2, 6345, Note_on_c, 0, 60, 0
2, 6345, Note_on_c, 0, 58, 76
2, 6360, Note_on_c, 0, 58, 0
2, 6360, Note_on_c, 0, 60, 77
2, 6375, Note_on_c, 0, 60, 0
2, 6375, Note_on_c, 0, 58, 79
2, 6390, Note_on_c, 0, 58, 0
2, 6390, Note_on_c, 0, 60, 81
2, 6420, Note_on_c, 0, 60, 0
2, 6420, Note_on_c, 0, 62, 84
2, 6480, Note_on_c, 0, 62, 0
2, 6480, Note_on_c, 0, 65, 52
2, 6495, Note_on_c, 0, 65, 0
2, 6495, Note_on_c, 0, 63, 55
2, 6510, Note_on_c, 0, 63, 0
2, 6510, Note_on_c, 0, 65, 61
2, 6525, Note_on_c, 0, 65, 0
2, 6525, Note_on_c, 0, 63, 61
2, 6540, Note_on_c, 0, 63, 0
2, 6540, Note_on_c, 0, 65, 69
2, 6555, Note_on_c, 0, 65, 0
2, 6555, Note_on_c, 0, 63, 71
2, 6570, Note_on_c, 0, 63, 0
2, 6570, Note_on_c, 0, 67, 75
2, 6600, Note_on_c, 0, 67, 0
2, 6600, Note_on_c, 0, 70, 78
2, 6660, Note_on_c, 0, 70, 0
2, 6660, Note_on_c, 0, 70, 85
2, 6780, Note_on_c, 0, 70, 0
2, 6780, Note_on_c, 0, 67, 56
2, 6840, Note_on_c, 0, 67, 0
2, 6840, Note_on_c, 0, 70, 60
2, 6855, Note_on_c, 0, 70, 0
2, 6855, Note_on_c, 0, 68, 60
2, 6870, Note_on_c, 0, 68, 0
2, 6870, Note_on_c, 0, 70, 62
2, 6885, Note_on_c, 0, 70, 0
2, 6885, Note_on_c, 0, 68, 66
2, 6900, Note_on_c, 0, 68, 0
2, 6900, Note_on_c, 0, 70, 68
2, 6915, Note_on_c, 0, 70, 0
2, 6915, Note_on_c, 0, 68, 72
2, 6930, Note_on_c, 0, 68, 0
2, 6930, Note_on_c, 0, 67, 74
2, 6960, Note_on_c, 0, 67, 0
2, 6960, Note_on_c, 0, 68, 86
2, 7020, Note_on_c, 0, 68, 0
2, 7020, Note_on_c, 0, 65, 60
2, 7140, Note_on_c, 0, 65, 0
2, 7140, Note_on_c, 0, 70, 60
2, 7200, Note_on_c, 0, 70, 0
2, 7200, Note_on_c, 0, 63, 60
2, 7500, Note_on_c, 0, 63, 0
2, 7500, Note_on_c, 0, 63, 100
2, 7500, Note_on_c, 0, 75, 100
2, 7560, Note_on_c, 0, 75, 0
2, 7560, Note_on_c, 0, 63, 0
2, 7560, Note_on_c, 0, 75, 107
2, 7560, Note_on_c, 0, 65, 107
2, 7650, Note_on_c, 0, 65, 0
2, 7650, Note_on_c, 0, 75, 0
2, 7650, Note_on_c, 0, 75, 97
2, 7650, Note_on_c, 0, 67, 97
2, 7680, Note_on_c, 0, 67, 0
2, 7680, Note_on_c, 0, 75, 0
2, 7680, Note_on_c, 0, 75, 100
2, 7680, Note_on_c, 0, 65, 100
2, 7740, Note_on_c, 0, 65, 0
2, 7740, Note_on_c, 0, 75, 0
2, 7740, Note_on_c, 0, 75, 109
2, 7740, Note_on_c, 0, 63, 109
2, 7860, Note_on_c, 0, 63, 0
2, 7860, Note_on_c, 0, 75, 0
2, 7860, Note_on_c, 0, 75, 90
2, 7860, Note_on_c, 0, 63, 90
2, 7920, Note_on_c, 0, 63, 0
2, 7920, Note_on_c, 0, 75, 0
2, 7920, Note_on_c, 0, 75, 93
2, 7920, Note_on_c, 0, 65, 93
2, 8010, Note_on_c, 0, 65, 0
2, 8010, Note_on_c, 0, 75, 0
2, 8010, Note_on_c, 0, 75, 101
2, 8010, Note_on_c, 0, 67, 101
2, 8040, Note_on_c, 0, 67, 0
2, 8040, Note_on_c, 0, 75, 0
2, 8040, Note_on_c, 0, 75, 104
2, 8040, Note_on_c, 0, 65, 104
2, 8100, Note_on_c, 0, 65, 0
2, 8100, Note_on_c, 0, 75, 0
2, 8100, Note_on_c, 0, 75, 109
2, 8100, Note_on_c, 0, 63, 109
2, 8220, Note_on_c, 0, 63, 0
2, 8220, Note_on_c, 0, 75, 0
2, 8220, Note_on_c, 0, 75, 88
2, 8220, Note_on_c, 0, 63, 88
2, 8280, Note_on_c, 0, 63, 0
2, 8280, Note_on_c, 0, 75, 0
2, 8280, Note_on_c, 0, 75, 106
2, 8280, Note_on_c, 0, 65, 106
2, 8370, Note_on_c, 0, 65, 0
2, 8370, Note_on_c, 0, 75, 0
2, 8370, Note_on_c, 0, 75, 85
2, 8370, Note_on_c, 0, 67, 85
2, 8400, Note_on_c, 0, 67, 0
2, 8400, Note_on_c, 0, 75, 0
2, 8400, Note_on_c, 0, 75, 94
2, 8400, Note_on_c, 0, 65, 94
2, 8460, Note_on_c, 0, 65, 0
2, 8460, Note_on_c, 0, 75, 0
2, 8460, Note_on_c, 0, 75, 87
2, 8460, Note_on_c, 0, 63, 87
2, 8580, Note_on_c, 0, 63, 0
2, 8580, Note_on_c, 0, 75, 0
2, 8580, Note_on_c, 0, 75, 93
2, 8580, Note_on_c, 0, 63, 93
2, 8640, Note_on_c, 0, 63, 0
2, 8640, Note_on_c, 0, 75, 0
2, 8640, Note_on_c, 0, 75, 104
2, 8640, Note_on_c, 0, 62, 104
2, 8730, Note_on_c, 0, 62, 0
2, 8730, Note_on_c, 0, 75, 0
2, 8730, Note_on_c, 0, 75, 114
2, 8730, Note_on_c, 0, 60, 114
2, 8760, Note_on_c, 0, 60, 0
2, 8760, Note_on_c, 0, 75, 0
2, 8760, Note_on_c, 0, 62, 117
2, 8760, Note_on_c, 0, 75, 117
2, 8820, Note_on_c, 0, 75, 0
2, 8820, Note_on_c, 0, 62, 0
2, 8820, Note_on_c, 0, 75, 117
2, 8820, Note_on_c, 0, 63, 117
2, 8940, Note_on_c, 0, 63, 0
2, 8940, Note_on_c, 0, 75, 0
2, 8940, End_track
3, 0, Start_track
3, 0, MIDI_port, 0
3, 0, Title_t, "PianoL"
3, 0, Program_c, 1, 0
3, 0, Control_c, 1, 7, 100
3, 0, Control_c, 1, 10, 89
3, 0, Control_c, 1, 93, 13
3, 0, Control_c, 1, 91, 18
3, 360, Note_on_c, 1, 46, 71
3, 360, Note_on_c, 1, 53, 71
3, 360, Note_on_c, 1, 56, 71
3, 480, Note_on_c, 1, 56, 0
3, 480, Note_on_c, 1, 53, 0
3, 480, Note_on_c, 1, 46, 0
3, 480, Note_on_c, 1, 46, 60
3, 480, Note_on_c, 1, 53, 60
3, 480, Note_on_c, 1, 56, 60
3, 540, Note_on_c, 1, 56, 0
3, 540, Note_on_c, 1, 53, 0
3, 540, Note_on_c, 1, 46, 0
3, 540, Note_on_c, 1, 56, 60
3, 540, Note_on_c, 1, 53, 60
3, 540, Note_on_c, 1, 46, 60
3, 660, Note_on_c, 1, 46, 0
3, 660, Note_on_c, 1, 53, 0
3, 660, Note_on_c, 1, 56, 0
3, 660, Note_on_c, 1, 56, 70
3, 660, Note_on_c, 1, 53, 70
3, 660, Note_on_c, 1, 46, 70
3, 720, Note_on_c, 1, 46, 0
3, 720, Note_on_c, 1, 53, 0
3, 720, Note_on_c, 1, 56, 0
3, 720, Note_on_c, 1, 51, 70
3, 720, Note_on_c, 1, 55, 70
3, 720, Note_on_c, 1, 46, 70
3, 840, Note_on_c, 1, 46, 0
3, 840, Note_on_c, 1, 55, 0
3, 840, Note_on_c, 1, 51, 0
3, 840, Note_on_c, 1, 55, 60
3, 840, Note_on_c, 1, 51, 60
3, 840, Note_on_c, 1, 46, 60
3, 900, Note_on_c, 1, 46, 0
3, 900, Note_on_c, 1, 51, 0
3, 900, Note_on_c, 1, 55, 0
3, 900, Note_on_c, 1, 55, 60
3, 900, Note_on_c, 1, 46, 60
3, 900, Note_on_c, 1, 51, 60
3, 1020, Note_on_c, 1, 51, 0
3, 1020, Note_on_c, 1, 46, 0
3, 1020, Note_on_c, 1, 55, 0
3, 1020, Note_on_c, 1, 55, 67
3, 1020, Note_on_c, 1, 51, 67
3, 1020, Note_on_c, 1, 46, 67
3, 1080, Note_on_c, 1, 46, 0
3, 1080, Note_on_c, 1, 51, 0
3, 1080, Note_on_c, 1, 55, 0
3, 1080, Note_on_c, 1, 50, 68
3, 1080, Note_on_c, 1, 53, 68
3, 1080, Note_on_c, 1, 46, 68
3, 1200, Note_on_c, 1, 46, 0
3, 1200, Note_on_c, 1, 53, 0
3, 1200, Note_on_c, 1, 50, 0
3, 1200, Note_on_c, 1, 50, 60
3, 1200, Note_on_c, 1, 53, 60
3, 1200, Note_on_c, 1, 46, 60
3, 1260, Note_on_c, 1, 46, 0
3, 1260, Note_on_c, 1, 53, 0
3, 1260, Note_on_c, 1, 50, 0
3, 1260, Note_on_c, 1, 46, 60
3, 1260, Note_on_c, 1, 50, 60
3, 1260, Note_on_c, 1, 53, 60
3, 1380, Note_on_c, 1, 53, 0
3, 1380, Note_on_c, 1, 50, 0
3, 1380, Note_on_c, 1, 46, 0
3, 1380, Note_on_c, 1, 50, 70
3, 1380, Note_on_c, 1, 53, 70
3, 1380, Note_on_c, 1, 46, 70
3, 1440, Note_on_c, 1, 46, 0
3, 1440, Note_on_c, 1, 53, 0
3, 1440, Note_on_c, 1, 50, 0
3, 1440, Note_on_c, 1, 51, 70
3, 1440, Note_on_c, 1, 55, 70
3, 1440, Note_on_c, 1, 46, 70
3, 1560, Note_on_c, 1, 46, 0
3, 1560, Note_on_c, 1, 55, 0
3, 1560, Note_on_c, 1, 51, 0
3, 1560, Note_on_c, 1, 55, 60
3, 1560, Note_on_c, 1, 51, 60
3, 1560, Note_on_c, 1, 46, 60
3, 1620, Note_on_c, 1, 46, 0
3, 1620, Note_on_c, 1, 51, 0
3, 1620, Note_on_c, 1, 55, 0
3, 1620, Note_on_c, 1, 55, 60
3, 1620, Note_on_c, 1, 46, 60
3, 1620, Note_on_c, 1, 51, 60
3, 1740, Note_on_c, 1, 51, 0
3, 1740, Note_on_c, 1, 46, 0
3, 1740, Note_on_c, 1, 55, 0
3, 1740, Note_on_c, 1, 55, 60
3, 1740, Note_on_c, 1, 51, 60
3, 1740, Note_on_c, 1, 46, 60
3, 1800, Note_on_c, 1, 46, 0
3, 1800, Note_on_c, 1, 51, 0
3, 1800, Note_on_c, 1, 55, 0
3, 1800, Note_on_c, 1, 46, 60
3, 1800, Note_on_c, 1, 53, 60
3, 1800, Note_on_c, 1, 56, 60
3, 1920, Note_on_c, 1, 56, 0
3, 1920, Note_on_c, 1, 53, 0
3, 1920, Note_on_c, 1, 46, 0
3, 1920, Note_on_c, 1, 46, 60
3, 1920, Note_on_c, 1, 53, 60
3, 1920, Note_on_c, 1, 56, 60
3, 1980, Note_on_c, 1, 56, 0
3, 1980, Note_on_c, 1, 53, 0
3, 1980, Note_on_c, 1, 46, 0
3, 1980, Note_on_c, 1, 56, 60
3, 1980, Note_on_c, 1, 53, 60
3, 1980, Note_on_c, 1, 46, 60
3, 2100, Note_on_c, 1, 46, 0
3, 2100, Note_on_c, 1, 53, 0
3, 2100, Note_on_c, 1, 56, 0
3, 2100, Note_on_c, 1, 56, 60
3, 2100, Note_on_c, 1, 53, 60
3, 2100, Note_on_c, 1, 46, 60
3, 2160, Note_on_c, 1, 46, 0
3, 2160, Note_on_c, 1, 53, 0
3, 2160, Note_on_c, 1, 56, 0
3, 2160, Note_on_c, 1, 51, 60
3, 2160, Note_on_c, 1, 55, 60
3, 2160, Note_on_c, 1, 46, 60
3, 2280, Note_on_c, 1, 46, 0
3, 2280, Note_on_c, 1, 55, 0
3, 2280, Note_on_c, 1, 51, 0
3, 2280, Note_on_c, 1, 55, 60
3, 2280, Note_on_c, 1, 51, 60
3, 2280, Note_on_c, 1, 46, 60
3, 2340, Note_on_c, 1, 46, 0
3, 2340, Note_on_c, 1, 51, 0
3, 2340, Note_on_c, 1, 55, 0
3, 2340, Note_on_c, 1, 55, 60
3, 2340, Note_on_c, 1, 46, 60
3, 2340, Note_on_c, 1, 51, 60
3, 2460, Note_on_c, 1, 51, 0
3, 2460, Note_on_c, 1, 46, 0
3, 2460, Note_on_c, 1, 55, 0
3, 2460, Note_on_c, 1, 55, 60
3, 2460, Note_on_c, 1, 51, 60
3, 2460, Note_on_c, 1, 46, 60
3, 2520, Note_on_c, 1, 46, 0
3, 2520, Note_on_c, 1, 51, 0
3, 2520, Note_on_c, 1, 55, 0
3, 2520, Note_on_c, 1, 50, 60
3, 2520, Note_on_c, 1, 53, 60
3, 2520, Note_on_c, 1, 46, 60
3, 2640, Note_on_c, 1, 46, 0
3, 2640, Note_on_c, 1, 53, 0
3, 2640, Note_on_c, 1, 50, 0
3, 2640, Note_on_c, 1, 53, 60
3, 2640, Note_on_c, 1, 46, 60
3, 2640, Note_on_c, 1, 50, 60
3, 2700, Note_on_c, 1, 50, 0
3, 2700, Note_on_c, 1, 46, 0
3, 2700, Note_on_c, 1, 53, 0
3, 2700, Note_on_c, 1, 50, 60
3, 2700, Note_on_c, 1, 56, 60
3, 2700, Note_on_c, 1, 46, 60
3, 2820, Note_on_c, 1, 46, 0
3, 2820, Note_on_c, 1, 56, 0
3, 2820, Note_on_c, 1, 50, 0
3, 2820, Note_on_c, 1, 56, 60
3, 2820, Note_on_c, 1, 50, 60
3, 2820, Note_on_c, 1, 46, 60
3, 2880, Note_on_c, 1, 46, 0
3, 2880, Note_on_c, 1, 50, 0
3, 2880, Note_on_c, 1, 56, 0
3, 2880, Note_on_c, 1, 51, 60
3, 2880, Note_on_c, 1, 55, 60
3, 3000, Note_on_c, 1, 55, 0
3, 3000, Note_on_c, 1, 51, 0
3, 3000, Note_on_c, 1, 55, 60
3, 3000, Note_on_c, 1, 51, 60
3, 3060, Note_on_c, 1, 51, 0
3, 3060, Note_on_c, 1, 55, 0
3, 3060, Note_on_c, 1, 55, 60
3, 3060, Note_on_c, 1, 51, 60
3, 3180, Note_on_c, 1, 51, 0
3, 3180, Note_on_c, 1, 55, 0
3, 3180, Note_on_c, 1, 58, 106
3, 3180, Note_on_c, 1, 55, 106
3, 3180, Note_on_c, 1, 51, 106
3, 3240, Note_on_c, 1, 51, 0
3, 3240, Note_on_c, 1, 55, 0
3, 3240, Note_on_c, 1, 58, 0
3, 3240, Note_on_c, 1, 51, 107
3, 3240, Note_on_c, 1, 56, 107
3, 3240, Note_on_c, 1, 60, 107
3, 3330, Note_on_c, 1, 60, 0
3, 3330, Note_on_c, 1, 56, 0
3, 3330, Note_on_c, 1, 51, 0
3, 3330, Note_on_c, 1, 51, 72
3, 3330, Note_on_c, 1, 56, 72
3, 3330, Note_on_c, 1, 60, 72
3, 3360, Note_on_c, 1, 60, 0
3, 3360, Note_on_c, 1, 56, 0
3, 3360, Note_on_c, 1, 51, 0
3, 3360, Note_on_c, 1, 51, 77
3, 3360, Note_on_c, 1, 56, 77
3, 3360, Note_on_c, 1, 60, 77
3, 3420, Note_on_c, 1, 60, 0
3, 3420, Note_on_c, 1, 56, 0
3, 3420, Note_on_c, 1, 51, 0
3, 3420, Note_on_c, 1, 51, 88
3, 3420, Note_on_c, 1, 55, 88
3, 3420, Note_on_c, 1, 58, 88
3, 3540, Note_on_c, 1, 58, 0
3, 3540, Note_on_c, 1, 55, 0
3, 3540, Note_on_c, 1, 51, 0
3, 3540, Note_on_c, 1, 51, 64
3, 3540, Note_on_c, 1, 55, 64
3, 3540, Note_on_c, 1, 58, 64
3, 3600, Note_on_c, 1, 58, 0
3, 3600, Note_on_c, 1, 55, 0
3, 3600, Note_on_c, 1, 51, 0
3, 3600, Note_on_c, 1, 51, 74
3, 3600, Note_on_c, 1, 56, 74
3, 3600, Note_on_c, 1, 60, 74
3, 3690, Note_on_c, 1, 60, 0
3, 3690, Note_on_c, 1, 56, 0
3, 3690, Note_on_c, 1, 51, 0
3, 3690, Note_on_c, 1, 51, 87
3, 3690, Note_on_c, 1, 56, 87
3, 3690, Note_on_c, 1, 60, 87
3, 3720, Note_on_c, 1, 60, 0
3, 3720, Note_on_c, 1, 56, 0
3, 3720, Note_on_c, 1, 51, 0
3, 3720, Note_on_c, 1, 51, 91
3, 3720, Note_on_c, 1, 56, 91
3, 3720, Note_on_c, 1, 60, 91
3, 3780, Note_on_c, 1, 60, 0
3, 3780, Note_on_c, 1, 56, 0
3, 3780, Note_on_c, 1, 51, 0
3, 3780, Note_on_c, 1, 51, 63
3, 3780, Note_on_c, 1, 55, 63
3, 3780, Note_on_c, 1, 58, 63
3, 3900, Note_on_c, 1, 58, 0
3, 3900, Note_on_c, 1, 55, 0
3, 3900, Note_on_c, 1, 51, 0
3, 3900, Note_on_c, 1, 51, 90
3, 3900, Note_on_c, 1, 55, 90
3, 3900, Note_on_c, 1, 58, 90
3, 3960, Note_on_c, 1, 58, 0
3, 3960, Note_on_c, 1, 55, 0
3, 3960, Note_on_c, 1, 51, 0
3, 3960, Note_on_c, 1, 51, 94
3, 3960, Note_on_c, 1, 56, 94
3, 3960, Note_on_c, 1, 60, 94
3, 4050, Note_on_c, 1, 60, 0
3, 4050, Note_on_c, 1, 56, 0
3, 4050, Note_on_c, 1, 51, 0
3, 4050, Note_on_c, 1, 51, 89
3, 4050, Note_on_c, 1, 56, 89
3, 4050, Note_on_c, 1, 60, 89
3, 4080, Note_on_c, 1, 60, 0
3, 4080, Note_on_c, 1, 56, 0
3, 4080, Note_on_c, 1, 51, 0
3, 4080, Note_on_c, 1, 51, 97
3, 4080, Note_on_c, 1, 56, 97
3, 4080, Note_on_c, 1, 60, 97
3, 4140, Note_on_c, 1, 60, 0
3, 4140, Note_on_c, 1, 56, 0
3, 4140, Note_on_c, 1, 51, 0
3, 4140, Note_on_c, 1, 51, 102
3, 4140, Note_on_c, 1, 55, 102
3, 4140, Note_on_c, 1, 58, 102
3, 4260, Note_on_c, 1, 58, 0
3, 4260, Note_on_c, 1, 55, 0
3, 4260, Note_on_c, 1, 51, 0
3, 4260, Note_on_c, 1, 51, 92
3, 4260, Note_on_c, 1, 55, 92
3, 4260, Note_on_c, 1, 58, 92
3, 4320, Note_on_c, 1, 58, 0
3, 4320, Note_on_c, 1, 55, 0
3, 4320, Note_on_c, 1, 51, 0
3, 4320, Note_on_c, 1, 51, 90
3, 4320, Note_on_c, 1, 56, 90
3, 4320, Note_on_c, 1, 53, 90
3, 4320, Control_c, 1, 93, 13
3, 4320, Control_c, 1, 91, 18
3, 4410, Note_on_c, 1, 53, 0
3, 4410, Note_on_c, 1, 56, 0
3, 4410, Note_on_c, 1, 51, 0
3, 4410, Note_on_c, 1, 56, 116
3, 4410, Note_on_c, 1, 51, 116
3, 4410, Note_on_c, 1, 53, 116
3, 4440, Note_on_c, 1, 53, 0
3, 4440, Note_on_c, 1, 51, 0
3, 4440, Note_on_c, 1, 56, 0
3, 4440, Note_on_c, 1, 51, 117
3, 4440, Note_on_c, 1, 56, 117
3, 4440, Note_on_c, 1, 53, 117
3, 4500, Note_on_c, 1, 53, 0
3, 4500, Note_on_c, 1, 56, 0
3, 4500, Note_on_c, 1, 51, 0
3, 4500, Note_on_c, 1, 51, 119
3, 4500, Note_on_c, 1, 55, 119
3, 4620, Note_on_c, 1, 55, 0
3, 4620, Note_on_c, 1, 51, 0
3, 4680, Note_on_c, 1, 46, 71
3, 4680, Note_on_c, 1, 53, 71
3, 4680, Note_on_c, 1, 56, 71
3, 4800, Note_on_c, 1, 56, 0
3, 4800, Note_on_c, 1, 53, 0
3, 4800, Note_on_c, 1, 46, 0
3, 4800, Note_on_c, 1, 46, 60
3, 4800, Note_on_c, 1, 53, 60
3, 4800, Note_on_c, 1, 56, 60
3, 4860, Note_on_c, 1, 56, 0
3, 4860, Note_on_c, 1, 53, 0
3, 4860, Note_on_c, 1, 46, 0
3, 4860, Note_on_c, 1, 56, 60
3, 4860, Note_on_c, 1, 53, 60
3, 4860, Note_on_c, 1, 46, 60
3, 4980, Note_on_c, 1, 46, 0
3, 4980, Note_on_c, 1, 53, 0
3, 4980, Note_on_c, 1, 56, 0
3, 4980, Note_on_c, 1, 56, 70
3, 4980, Note_on_c, 1, 53, 70
3, 4980, Note_on_c, 1, 46, 70
3, 5040, Note_on_c, 1, 46, 0
3, 5040, Note_on_c, 1, 53, 0
3, 5040, Note_on_c, 1, 56, 0
3, 5040, Note_on_c, 1, 51, 70
3, 5040, Note_on_c, 1, 55, 70
3, 5040, Note_on_c, 1, 46, 70
3, 5160, Note_on_c, 1, 46, 0
3, 5160, Note_on_c, 1, 55, 0
3, 5160, Note_on_c, 1, 51, 0
3, 5160, Note_on_c, 1, 55, 60
3, 5160, Note_on_c, 1, 51, 60
3, 5160, Note_on_c, 1, 46, 60
3, 5220, Note_on_c, 1, 46, 0
3, 5220, Note_on_c, 1, 51, 0
3, 5220, Note_on_c, 1, 55, 0
3, 5220, Note_on_c, 1, 55, 60
3, 5220, Note_on_c, 1, 46, 60
3, 5220, Note_on_c, 1, 51, 60
3, 5340, Note_on_c, 1, 51, 0
3, 5340, Note_on_c, 1, 46, 0
3, 5340, Note_on_c, 1, 55, 0
3, 5340, Note_on_c, 1, 55, 67
3, 5340, Note_on_c, 1, 51, 67
3, 5340, Note_on_c, 1, 46, 67
3, 5400, Note_on_c, 1, 46, 0
3, 5400, Note_on_c, 1, 51, 0
3, 5400, Note_on_c, 1, 55, 0
3, 5400, Note_on_c, 1, 50, 68
3, 5400, Note_on_c, 1, 53, 68
3, 5400, Note_on_c, 1, 46, 68
3, 5520, Note_on_c, 1, 46, 0
3, 5520, Note_on_c, 1, 53, 0
3, 5520, Note_on_c, 1, 50, 0
3, 5520, Note_on_c, 1, 50, 60
3, 5520, Note_on_c, 1, 53, 60
3, 5520, Note_on_c, 1, 46, 60
3, 5580, Note_on_c, 1, 46, 0
3, 5580, Note_on_c, 1, 53, 0
3, 5580, Note_on_c, 1, 50, 0
3, 5580, Note_on_c, 1, 46, 60
3, 5580, Note_on_c, 1, 50, 60
3, 5580, Note_on_c, 1, 53, 60
3, 5700, Note_on_c, 1, 53, 0
3, 5700, Note_on_c, 1, 50, 0
3, 5700, Note_on_c, 1, 46, 0
3, 5700, Note_on_c, 1, 50, 70
3, 5700, Note_on_c, 1, 53, 70
3, 5700, Note_on_c, 1, 46, 70
3, 5760, Note_on_c, 1, 46, 0
3, 5760, Note_on_c, 1, 53, 0
3, 5760, Note_on_c, 1, 50, 0
3, 5760, Note_on_c, 1, 51, 70
3, 5760, Note_on_c, 1, 55, 70
3, 5760, Note_on_c, 1, 46, 70
3, 5880, Note_on_c, 1, 46, 0
3, 5880, Note_on_c, 1, 55, 0
3, 5880, Note_on_c, 1, 51, 0
3, 5880, Note_on_c, 1, 55, 60
3, 5880, Note_on_c, 1, 51, 60
3, 5880, Note_on_c, 1, 46, 60
3, 5940, Note_on_c, 1, 46, 0
3, 5940, Note_on_c, 1, 51, 0
3, 5940, Note_on_c, 1, 55, 0
3, 5940, Note_on_c, 1, 55, 60
3, 5940, Note_on_c, 1, 46, 60
3, 5940, Note_on_c, 1, 51, 60
3, 6060, Note_on_c, 1, 51, 0
3, 6060, Note_on_c, 1, 46, 0
3, 6060, Note_on_c, 1, 55, 0
3, 6060, Note_on_c, 1, 55, 60
3, 6060, Note_on_c, 1, 51, 60
3, 6060, Note_on_c, 1, 46, 60
3, 6120, Note_on_c, 1, 46, 0
3, 6120, Note_on_c, 1, 51, 0
3, 6120, Note_on_c, 1, 55, 0
3, 6120, Note_on_c, 1, 46, 60
3, 6120, Note_on_c, 1, 53, 60
3, 6120, Note_on_c, 1, 56, 60
3, 6240, Note_on_c, 1, 56, 0
3, 6240, Note_on_c, 1, 53, 0
3, 6240, Note_on_c, 1, 46, 0
3, 6240, Note_on_c, 1, 46, 60
3, 6240, Note_on_c, 1, 53, 60
3, 6240, Note_on_c, 1, 56, 60
3, 6300, Note_on_c, 1, 56, 0
3, 6300, Note_on_c, 1, 53, 0
3, 6300, Note_on_c, 1, 46, 0
3, 6300, Note_on_c, 1, 56, 60
3, 6300, Note_on_c, 1, 53, 60
3, 6300, Note_on_c, 1, 46, 60
3, 6420, Note_on_c, 1, 46, 0
3, 6420, Note_on_c, 1, 53, 0
3, 6420, Note_on_c, 1, 56, 0
3, 6420, Note_on_c, 1, 56, 60
3, 6420, Note_on_c, 1, 53, 60
3, 6420, Note_on_c, 1, 46, 60
3, 6480, Note_on_c, 1, 46, 0
3, 6480, Note_on_c, 1, 53, 0
3, 6480, Note_on_c, 1, 56, 0
3, 6480, Note_on_c, 1, 51, 60
3, 6480, Note_on_c, 1, 55, 60
3, 6480, Note_on_c, 1, 46, 60
3, 6600, Note_on_c, 1, 46, 0
3, 6600, Note_on_c, 1, 55, 0
3, 6600, Note_on_c, 1, 51, 0
3, 6600, Note_on_c, 1, 55, 60
3, 6600, Note_on_c, 1, 51, 60
3, 6600, Note_on_c, 1, 46, 60
3, 6660, Note_on_c, 1, 46, 0
3, 6660, Note_on_c, 1, 51, 0
3, 6660, Note_on_c, 1, 55, 0
3, 6660, Note_on_c, 1, 55, 60
3, 6660, Note_on_c, 1, 46, 60
3, 6660, Note_on_c, 1, 51, 60
3, 6780, Note_on_c, 1, 51, 0
3, 6780, Note_on_c, 1, 46, 0
3, 6780, Note_on_c, 1, 55, 0
3, 6780, Note_on_c, 1, 55, 60
3, 6780, Note_on_c, 1, 51, 60
3, 6780, Note_on_c, 1, 46, 60
3, 6840, Note_on_c, 1, 46, 0
3, 6840, Note_on_c, 1, 51, 0
3, 6840, Note_on_c, 1, 55, 0
3, 6840, Note_on_c, 1, 50, 60
3, 6840, Note_on_c, 1, 53, 60
3, 6840, Note_on_c, 1, 46, 60
3, 6960, Note_on_c, 1, 46, 0
3, 6960, Note_on_c, 1, 53, 0
3, 6960, Note_on_c, 1, 50, 0
3, 6960, Note_on_c, 1, 53, 60
3, 6960, Note_on_c, 1, 46, 60
3, 6960, Note_on_c, 1, 50, 60
3, 7020, Note_on_c, 1, 50, 0
3, 7020, Note_on_c, 1, 46, 0
3, 7020, Note_on_c, 1, 53, 0
3, 7020, Note_on_c, 1, 50, 60
3, 7020, Note_on_c, 1, 56, 60
3, 7020, Note_on_c, 1, 46, 60
3, 7140, Note_on_c, 1, 46, 0
3, 7140, Note_on_c, 1, 56, 0
3, 7140, Note_on_c, 1, 50, 0
3, 7140, Note_on_c, 1, 56, 60
3, 7140, Note_on_c, 1, 50, 60
3, 7140, Note_on_c, 1, 46, 60
3, 7200, Note_on_c, 1, 46, 0
3, 7200, Note_on_c, 1, 50, 0
3, 7200, Note_on_c, 1, 56, 0
3, 7200, Note_on_c, 1, 51, 60
3, 7200, Note_on_c, 1, 55, 60
3, 7320, Note_on_c, 1, 55, 0
3, 7320, Note_on_c, 1, 51, 0
3, 7320, Note_on_c, 1, 55, 60
3, 7320, Note_on_c, 1, 51, 60
3, 7380, Note_on_c, 1, 51, 0
3, 7380, Note_on_c, 1, 55, 0
3, 7380, Note_on_c, 1, 55, 60
3, 7380, Note_on_c, 1, 51, 60
3, 7500, Note_on_c, 1, 51, 0
3, 7500, Note_on_c, 1, 55, 0
3, 7500, Note_on_c, 1, 58, 106
3, 7500, Note_on_c, 1, 55, 106
3, 7500, Note_on_c, 1, 51, 106
3, 7560, Note_on_c, 1, 51, 0
3, 7560, Note_on_c, 1, 55, 0
3, 7560, Note_on_c, 1, 58, 0
3, 7560, Note_on_c, 1, 51, 107
3, 7560, Note_on_c, 1, 56, 107
3, 7560, Note_on_c, 1, 60, 107
3, 7650, Note_on_c, 1, 60, 0
3, 7650, Note_on_c, 1, 56, 0
3, 7650, Note_on_c, 1, 51, 0
3, 7650, Note_on_c, 1, 51, 72
3, 7650, Note_on_c, 1, 56, 72
3, 7650, Note_on_c, 1, 60, 72
3, 7680, Note_on_c, 1, 60, 0
3, 7680, Note_on_c, 1, 56, 0
3, 7680, Note_on_c, 1, 51, 0
3, 7680, Note_on_c, 1, 51, 77
3, 7680, Note_on_c, 1, 56, 77
3, 7680, Note_on_c, 1, 60, 77
3, 7740, Note_on_c, 1, 60, 0
3, 7740, Note_on_c, 1, 56, 0
3, 7740, Note_on_c, 1, 51, 0
3, 7740, Note_on_c, 1, 51, 88
3, 7740, Note_on_c, 1, 55, 88
3, 7740, Note_on_c, 1, 58, 88
3, 7860, Note_on_c, 1, 58, 0
3, 7860, Note_on_c, 1, 55, 0
3, 7860, Note_on_c, 1, 51, 0
3, 7860, Note_on_c, 1, 51, 64
3, 7860, Note_on_c, 1, 55, 64
3, 7860, Note_on_c, 1, 58, 64
3, 7920, Note_on_c, 1, 58, 0
3, 7920, Note_on_c, 1, 55, 0
3, 7920, Note_on_c, 1, 51, 0
3, 7920, Note_on_c, 1, 51, 74
3, 7920, Note_on_c, 1, 56, 74
3, 7920, Note_on_c, 1, 60, 74
3, 8010, Note_on_c, 1, 60, 0
3, 8010, Note_on_c, 1, 56, 0
3, 8010, Note_on_c, 1, 51, 0
3, 8010, Note_on_c, 1, 51, 87
3, 8010, Note_on_c, 1, 56, 87
3, 8010, Note_on_c, 1, 60, 87
3, 8040, Note_on_c, 1, 60, 0
3, 8040, Note_on_c, 1, 56, 0
3, 8040, Note_on_c, 1, 51, 0
3, 8040, Note_on_c, 1, 51, 91
3, 8040, Note_on_c, 1, 56, 91
3, 8040, Note_on_c, 1, 60, 91
3, 8100, Note_on_c, 1, 60, 0
3, 8100, Note_on_c, 1, 56, 0
3, 8100, Note_on_c, 1, 51, 0
3, 8100, Note_on_c, 1, 51, 63
3, 8100, Note_on_c, 1, 55, 63
3, 8100, Note_on_c, 1, 58, 63
3, 8220, Note_on_c, 1, 58, 0
3, 8220, Note_on_c, 1, 55, 0
3, 8220, Note_on_c, 1, 51, 0
3, 8220, Note_on_c, 1, 51, 90
3, 8220, Note_on_c, 1, 55, 90
3, 8220, Note_on_c, 1, 58, 90
3, 8280, Note_on_c, 1, 58, 0
3, 8280, Note_on_c, 1, 55, 0
3, 8280, Note_on_c, 1, 51, 0
3, 8280, Note_on_c, 1, 51, 94
3, 8280, Note_on_c, 1, 56, 94
3, 8280, Note_on_c, 1, 60, 94
3, 8370, Note_on_c, 1, 60, 0
3, 8370, Note_on_c, 1, 56, 0
3, 8370, Note_on_c, 1, 51, 0
3, 8370, Note_on_c, 1, 51, 89
3, 8370, Note_on_c, 1, 56, 89
3, 8370, Note_on_c, 1, 60, 89
3, 8400, Note_on_c, 1, 60, 0
3, 8400, Note_on_c, 1, 56, 0
3, 8400, Note_on_c, 1, 51, 0
3, 8400, Note_on_c, 1, 51, 97
3, 8400, Note_on_c, 1, 56, 97
3, 8400, Note_on_c, 1, 60, 97
3, 8460, Note_on_c, 1, 60, 0
3, 8460, Note_on_c, 1, 56, 0
3, 8460, Note_on_c, 1, 51, 0
3, 8460, Note_on_c, 1, 51, 102
3, 8460, Note_on_c, 1, 55, 102
3, 8460, Note_on_c, 1, 58, 102
3, 8580, Note_on_c, 1, 58, 0
3, 8580, Note_on_c, 1, 55, 0
3, 8580, Note_on_c, 1, 51, 0
3, 8580, Note_on_c, 1, 51, 92
3, 8580, Note_on_c, 1, 55, 92
3, 8580, Note_on_c, 1, 58, 92
3, 8640, Note_on_c, 1, 58, 0
3, 8640, Note_on_c, 1, 55, 0
3, 8640, Note_on_c, 1, 51, 0
3, 8640, Note_on_c, 1, 51, 90
3, 8640, Note_on_c, 1, 56, 90
3, 8640, Note_on_c, 1, 53, 90
3, 8730, Note_on_c, 1, 53, 0
3, 8730, Note_on_c, 1, 56, 0
3, 8730, Note_on_c, 1, 51, 0
3, 8730, Note_on_c, 1, 56, 116
3, 8730, Note_on_c, 1, 51, 116
3, 8730, Note_on_c, 1, 53, 116
3, 8760, Note_on_c, 1, 53, 0
3, 8760, Note_on_c, 1, 51, 0
3, 8760, Note_on_c, 1, 56, 0
3, 8760, Note_on_c, 1, 51, 117
3, 8760, Note_on_c, 1, 56, 117
3, 8760, Note_on_c, 1, 53, 117
3, 8820, Note_on_c, 1, 53, 0
3, 8820, Note_on_c, 1, 56, 0
3, 8820, Note_on_c, 1, 51, 0
3, 8820, Note_on_c, 1, 51, 119
3, 8820, Note_on_c, 1, 55, 119
3, 8940, Note_on_c, 1, 55, 0
3, 8940, Note_on_c, 1, 51, 0
3, 8940, End_track
0, 0, End_of_file