0, 0, Header, 1, 4, 480
1, 0, Start_track
1, 0, Title_t, "beethov.pc"
1, 0, Tempo, 416666
1, 0, Time_signature, 6, 3, 12, 8
1, 0, Key_signature, -2, "minor"
1, 207472, Tempo, 447761
1, 208935, Tempo, 461538
1, 212482, Tempo, 500000
1, 214560, Tempo, 416666
1, 214560, Key_signature, 1, "major"
1, 227610, Tempo, 500000
1, 228960, Tempo, 545454
1, 228960, Key_signature, -2, "major"
1, 231885, Tempo, 416666
1, 281355, Tempo, 500000
1, 282307, Tempo, 416666
1, 377280, Tempo, 461538
1, 380317, Tempo, 413793
1, 380317, End_track
2, 0, Start_track
2, 0, MIDI_port, 0
2, 0, Channel_prefix, 0
2, 0, Control_c, 0, 7, 127
2, 0, Control_c, 0, 10, 83
2, 0, Control_c, 0, 0, 1
2, 0, Control_c, 0, 32, 1
2, 0, Control_c, 0, 3, 68
2, 0, Control_c, 0, 14, 127
2, 0, Program_c, 0, 0
2, 0, End_track
3, 0, Start_track
3, 0, Title_t, "Track 2"
3, 0, MIDI_port, 0
3, 0, Channel_prefix, 0
3, 0, Control_c, 0, 7, 127
3, 0, Control_c, 0, 10, 83
3, 0, Control_c, 0, 0, 1
3, 0, Control_c, 0, 32, 1
3, 0, Control_c, 0, 3, 68
3, 0, Control_c, 0, 14, 127
3, 0, Program_c, 0, 0
3, 1200, Note_on_c, 0, 65, 64
3, 1415, Note_off_c, 0, 65, 0
3, 1440, Note_on_c, 0, 65, 79
3, 1655, Note_off_c, 0, 65, 0
3, 1680, Note_on_c, 0, 62, 79
3, 1895, Note_off_c, 0, 62, 0
3, 1920, Note_on_c, 0, 70, 79
3, 2027, Note_off_c, 0, 70, 0
3, 2160, Note_on_c, 0, 70, 79
3, 2375, Note_off_c, 0, 70, 0
3, 2400, Note_on_c, 0, 65, 79
3, 2615, Note_off_c, 0, 65, 0
3, 2640, Note_on_c, 0, 74, 79
3, 2747, Note_off_c, 0, 74, 0
3, 2880, Note_on_c, 0, 74, 79
3, 3095, Note_off_c, 0, 74, 0
3, 3120, Note_on_c, 0, 70, 79
3, 3335, Note_off_c, 0, 70, 0
3, 3360, Note_on_c, 0, 77, 79
3, 3467, Note_off_c, 0, 77, 0
3, 3600, Note_on_c, 0, 77, 79
3, 4031, Note_off_c, 0, 77, 0
3, 4080, Note_on_c, 0, 75, 79
3, 4080, Note_on_c, 0, 72, 79
3, 4295, Note_off_c, 0, 72, 0
3, 4295, Note_off_c, 0, 75, 0
3, 4320, Note_on_c, 0, 74, 79
3, 4320, Note_on_c, 0, 70, 79
3, 4535, Note_off_c, 0, 70, 0
3, 4535, Note_off_c, 0, 74, 0
3, 4560, Note_on_c, 0, 75, 79
3, 4560, Note_on_c, 0, 72, 79
3, 4667, Note_off_c, 0, 72, 0
3, 4667, Note_off_c, 0, 75, 0
3, 4800, Note_on_c, 0, 77, 79
3, 4800, Note_on_c, 0, 74, 79
3, 4907, Note_off_c, 0, 74, 0
3, 4907, Note_off_c, 0, 77, 0
3, 5040, Note_on_c, 0, 79, 79
3, 5040, Note_on_c, 0, 75, 79
3, 5255, Note_off_c, 0, 75, 0
3, 5255, Note_off_c, 0, 79, 0
3, 5280, Note_on_c, 0, 75, 79
3, 5280, Note_on_c, 0, 72, 79
3, 5495, Note_off_c, 0, 72, 0
3, 5495, Note_off_c, 0, 75, 0
3, 5520, Note_on_c, 0, 74, 79
3, 5520, Note_on_c, 0, 70, 79
3, 5735, Note_off_c, 0, 70, 0
3, 5735, Note_off_c, 0, 74, 0
3, 5760, Note_on_c, 0, 72, 79
3, 5760, Note_on_c, 0, 69, 79
3, 5867, Note_off_c, 0, 69, 0
3, 5867, Note_off_c, 0, 72, 0
3, 6000, Note_on_c, 0, 72, 79
3, 6000, Note_on_c, 0, 69, 79
3, 6107, Note_off_c, 0, 69, 0
3, 6107, Note_off_c, 0, 72, 0
3, 6240, Note_on_c, 0, 75, 79
3, 6240, Note_on_c, 0, 72, 79
3, 6347, Note_off_c, 0, 72, 0
3, 6347, Note_off_c, 0, 75, 0
3, 6360, Note_on_c, 0, 74, 79
3, 6360, Note_on_c, 0, 70, 79
3, 6467, Note_off_c, 0, 70, 0
3, 6467, Note_off_c, 0, 74, 0
3, 6480, Note_on_c, 0, 72, 79
3, 6480, Note_on_c, 0, 69, 79
3, 6911, Note_off_c, 0, 69, 0
3, 6911, Note_off_c, 0, 72, 0
3, 6960, Note_on_c, 0, 65, 79
3, 7175, Note_off_c, 0, 65, 0
3, 7200, Note_on_c, 0, 65, 79
3, 7415, Note_off_c, 0, 65, 0
3, 7440, Note_on_c, 0, 62, 79
3, 7655, Note_off_c, 0, 62, 0
3, 7680, Note_on_c, 0, 70, 79
3, 7787, Note_off_c, 0, 70, 0
3, 7920, Note_on_c, 0, 70, 79
3, 8135, Note_off_c, 0, 70, 0
3, 8160, Note_on_c, 0, 65, 79
3, 8375, Note_off_c, 0, 65, 0
3, 8400, Note_on_c, 0, 74, 79
3, 8507, Note_off_c, 0, 74, 0
3, 8640, Note_on_c, 0, 74, 79
3, 8855, Note_off_c, 0, 74, 0
3, 8880, Note_on_c, 0, 70, 79
3, 9095, Note_off_c, 0, 70, 0
3, 9120, Note_on_c, 0, 77, 79
3, 9227, Note_off_c, 0, 77, 0
3, 9360, Note_on_c, 0, 77, 79
3, 9791, Note_off_c, 0, 77, 0
3, 9840, Note_on_c, 0, 79, 79
3, 9840, Note_on_c, 0, 76, 79
3, 10055, Note_off_c, 0, 76, 0
3, 10055, Note_off_c, 0, 79, 0
3, 10080, Note_on_c, 0, 81, 79
3, 10080, Note_on_c, 0, 77, 79
3, 10295, Note_off_c, 0, 77, 0
3, 10295, Note_off_c, 0, 81, 0
3, 10320, Note_on_c, 0, 82, 79
3, 10320, Note_on_c, 0, 79, 79
3, 10427, Note_off_c, 0, 79, 0
3, 10427, Note_off_c, 0, 82, 0
3, 10560, Note_on_c, 0, 84, 79
3, 10560, Note_on_c, 0, 81, 79
3, 10667, Note_off_c, 0, 81, 0
3, 10667, Note_off_c, 0, 84, 0
3, 10800, Note_on_c, 0, 82, 79
3, 10800, Note_on_c, 0, 79, 79
3, 11015, Note_off_c, 0, 79, 0
3, 11015, Note_off_c, 0, 82, 0
3, 11040, Note_on_c, 0, 81, 79
3, 11040, Note_on_c, 0, 77, 79
3, 11255, Note_off_c, 0, 77, 0
3, 11255, Note_off_c, 0, 81, 0
3, 11280, Note_on_c, 0, 79, 79
3, 11280, Note_on_c, 0, 76, 79
3, 11495, Note_off_c, 0, 76, 0
3, 11495, Note_off_c, 0, 79, 0
3, 11520, Note_on_c, 0, 77, 79
3, 11520, Note_on_c, 0, 69, 79
3, 11627, Note_off_c, 0, 69, 0
3, 11627, Note_off_c, 0, 77, 0
3, 11760, Note_on_c, 0, 77, 79
3, 11760, Note_on_c, 0, 69, 79
3, 11867, Note_off_c, 0, 69, 0
3, 11867, Note_off_c, 0, 77, 0
3, 12000, Note_on_c, 0, 77, 79
3, 12000, Note_on_c, 0, 69, 79
3, 12107, Note_off_c, 0, 69, 0
3, 12107, Note_off_c, 0, 77, 0
3, 12240, Note_on_c, 0, 77, 79
3, 12240, Note_on_c, 0, 69, 79
3, 12455, Note_off_c, 0, 69, 0
3, 12455, Note_off_c, 0, 77, 0
3, 12540, Note_on_c, 0, 72, 79
3, 12593, Note_off_c, 0, 72, 0
3, 12600, Note_on_c, 0, 74, 79
3, 12653, Note_off_c, 0, 74, 0
3, 12660, Note_on_c, 0, 75, 79
3, 12713, Note_off_c, 0, 75, 0
3, 12720, Note_on_c, 0, 77, 79
3, 12773, Note_off_c, 0, 77, 0
3, 12780, Note_on_c, 0, 79, 79
3, 12833, Note_off_c, 0, 79, 0
3, 12840, Note_on_c, 0, 81, 79
3, 12893, Note_off_c, 0, 81, 0
3, 12900, Note_on_c, 0, 82, 79
3, 12953, Note_off_c, 0, 82, 0
3, 12960, Note_on_c, 0, 84, 64
3, 13391, Note_off_c, 0, 84, 0
3, 13440, Note_on_c, 0, 82, 64
3, 13655, Note_off_c, 0, 82, 0
3, 13680, Note_on_c, 0, 82, 64
3, 13733, Note_off_c, 0, 82, 0
3, 13740, Note_on_c, 0, 81, 64
3, 13820, Note_off_c, 0, 81, 0
3, 13920, Note_on_c, 0, 79, 64
3, 14135, Note_off_c, 0, 79, 0
3, 14160, Note_on_c, 0, 81, 64
3, 14267, Note_off_c, 0, 81, 0
3, 14400, Note_on_c, 0, 82, 64
3, 14831, Note_off_c, 0, 82, 0
3, 14880, Note_on_c, 0, 77, 64
3, 15095, Note_off_c, 0, 77, 0
3, 15120, Note_on_c, 0, 74, 64
3, 15551, Note_off_c, 0, 74, 0
3, 15600, Note_on_c, 0, 82, 64
3, 15815, Note_off_c, 0, 82, 0
3, 15840, Note_on_c, 0, 86, 64
3, 15893, Note_off_c, 0, 86, 0
3, 15900, Note_on_c, 0, 84, 64
3, 16295, Note_off_c, 0, 84, 0
3, 16320, Note_on_c, 0, 82, 64
3, 16427, Note_off_c, 0, 82, 0
3, 16560, Note_on_c, 0, 82, 64
3, 16613, Note_off_c, 0, 82, 0
3, 16620, Note_on_c, 0, 81, 64
3, 16781, Note_off_c, 0, 81, 0
3, 16800, Note_on_c, 0, 79, 64
3, 16907, Note_off_c, 0, 79, 0
3, 17040, Note_on_c, 0, 81, 64
3, 17147, Note_off_c, 0, 81, 0
3, 17280, Note_on_c, 0, 82, 64
3, 17711, Note_off_c, 0, 82, 0
3, 17760, Note_on_c, 0, 77, 64
3, 17975, Note_off_c, 0, 77, 0
3, 18000, Note_on_c, 0, 82, 64
3, 18431, Note_off_c, 0, 82, 0
3, 18480, Note_on_c, 0, 86, 64
3, 18695, Note_off_c, 0, 86, 0
3, 18720, Note_on_c, 0, 86, 64
3, 18773, Note_off_c, 0, 86, 0
3, 18780, Note_on_c, 0, 84, 64
3, 19175, Note_off_c, 0, 84, 0
3, 19200, Note_on_c, 0, 82, 64
3, 19307, Note_off_c, 0, 82, 0
3, 19440, Note_on_c, 0, 82, 64
3, 19493, Note_off_c, 0, 82, 0
3, 19500, Note_on_c, 0, 81, 64
3, 19661, Note_off_c, 0, 81, 0
3, 19680, Note_on_c, 0, 79, 64
3, 19787, Note_off_c, 0, 79, 0
3, 19920, Note_on_c, 0, 81, 64
3, 20027, Note_off_c, 0, 81, 0
3, 20160, Note_on_c, 0, 82, 64
3, 20806, Note_off_c, 0, 82, 0
3, 20880, Note_on_c, 0, 77, 64
3, 21311, Note_off_c, 0, 77, 0
3, 21360, Note_on_c, 0, 78, 64
3, 21575, Note_off_c, 0, 78, 0
3, 21600, Note_on_c, 0, 79, 64
3, 22031, Note_off_c, 0, 79, 0
3, 22080, Note_on_c, 0, 79, 64
3, 22295, Note_off_c, 0, 79, 0
3, 22320, Note_on_c, 0, 81, 64
3, 22373, Note_off_c, 0, 81, 0
3, 22380, Note_on_c, 0, 79, 64
3, 22460, Note_off_c, 0, 79, 0
3, 22560, Note_on_c, 0, 78, 64
3, 22667, Note_off_c, 0, 78, 0
3, 22800, Note_on_c, 0, 79, 64
3, 22907, Note_off_c, 0, 79, 0
3, 23040, Note_on_c, 0, 81, 64
3, 23471, Note_off_c, 0, 81, 0
3, 23520, Note_on_c, 0, 78, 64
3, 23735, Note_off_c, 0, 78, 0
3, 23760, Note_on_c, 0, 74, 64
3, 24191, Note_off_c, 0, 74, 0
3, 24240, Note_on_c, 0, 78, 64
3, 24455, Note_off_c, 0, 78, 0
3, 24480, Note_on_c, 0, 79, 64
3, 24565, Note_off_c, 0, 79, 0
3, 24575, Note_on_c, 0, 81, 64
3, 24661, Note_off_c, 0, 81, 0
3, 24671, Note_on_c, 0, 79, 64
3, 24757, Note_off_c, 0, 79, 0
3, 24766, Note_on_c, 0, 78, 64
3, 24852, Note_off_c, 0, 78, 0
3, 24862, Note_on_c, 0, 79, 64
3, 24948, Note_off_c, 0, 79, 0
3, 24958, Note_on_c, 0, 82, 64
3, 25173, Note_off_c, 0, 82, 0
3, 25198, Note_on_c, 0, 79, 64
3, 25283, Note_off_c, 0, 79, 0
3, 25293, Note_on_c, 0, 81, 64
3, 25379, Note_off_c, 0, 81, 0
3, 25389, Note_on_c, 0, 79, 64
3, 25475, Note_off_c, 0, 79, 0
3, 25485, Note_on_c, 0, 78, 64
3, 25570, Note_off_c, 0, 78, 0
3, 25580, Note_on_c, 0, 79, 64
3, 25666, Note_off_c, 0, 79, 0
3, 25676, Note_on_c, 0, 82, 64
3, 25891, Note_off_c, 0, 82, 0
3, 25920, Note_on_c, 0, 79, 64
3, 26005, Note_off_c, 0, 79, 0
3, 26015, Note_on_c, 0, 81, 64
3, 26101, Note_off_c, 0, 81, 0
3, 26111, Note_on_c, 0, 79, 64
3, 26197, Note_off_c, 0, 79, 0
3, 26206, Note_on_c, 0, 78, 64
3, 26292, Note_off_c, 0, 78, 0
3, 26302, Note_on_c, 0, 79, 64
3, 26388, Note_off_c, 0, 79, 0
3, 26398, Note_on_c, 0, 82, 64
3, 26613, Note_off_c, 0, 82, 0
3, 26638, Note_on_c, 0, 72, 64
3, 26745, Note_off_c, 0, 72, 0
3, 26878, Note_on_c, 0, 74, 64
3, 26985, Note_off_c, 0, 74, 0
3, 27118, Note_on_c, 0, 76, 64
3, 27225, Note_off_c, 0, 76, 0
3, 27360, Note_on_c, 0, 77, 64
3, 27445, Note_off_c, 0, 77, 0
3, 27455, Note_on_c, 0, 79, 64
3, 27541, Note_off_c, 0, 79, 0
3, 27551, Note_on_c, 0, 77, 64
3, 27637, Note_off_c, 0, 77, 0
3, 27646, Note_on_c, 0, 76, 64
3, 27732, Note_off_c, 0, 76, 0
3, 27742, Note_on_c, 0, 77, 64
3, 27828, Note_off_c, 0, 77, 0
3, 27838, Note_on_c, 0, 81, 64
3, 28053, Note_off_c, 0, 81, 0
3, 28078, Note_on_c, 0, 72, 64
3, 28185, Note_off_c, 0, 72, 0
3, 28318, Note_on_c, 0, 74, 64
3, 28425, Note_off_c, 0, 74, 0
3, 28558, Note_on_c, 0, 76, 64
3, 28665, Note_off_c, 0, 76, 0
3, 28800, Note_on_c, 0, 77, 64
3, 28885, Note_off_c, 0, 77, 0
3, 28895, Note_on_c, 0, 79, 64
3, 28981, Note_off_c, 0, 79, 0
3, 28991, Note_on_c, 0, 77, 64
3, 29077, Note_off_c, 0, 77, 0
3, 29086, Note_on_c, 0, 76, 64
3, 29172, Note_off_c, 0, 76, 0
3, 29182, Note_on_c, 0, 77, 64
3, 29268, Note_off_c, 0, 77, 0
3, 29278, Note_on_c, 0, 81, 64
3, 29493, Note_off_c, 0, 81, 0
3, 29518, Note_on_c, 0, 72, 64
3, 29625, Note_off_c, 0, 72, 0
3, 29758, Note_on_c, 0, 74, 64
3, 29865, Note_off_c, 0, 74, 0
3, 29998, Note_on_c, 0, 76, 64
3, 30105, Note_off_c, 0, 76, 0
3, 30240, Note_on_c, 0, 77, 64
3, 30325, Note_off_c, 0, 77, 0
3, 30335, Note_on_c, 0, 79, 64
3, 30421, Note_off_c, 0, 79, 0
3, 30431, Note_on_c, 0, 77, 64
3, 30517, Note_off_c, 0, 77, 0
3, 30526, Note_on_c, 0, 76, 64
3, 30612, Note_off_c, 0, 76, 0
3, 30622, Note_on_c, 0, 77, 64
3, 30708, Note_off_c, 0, 77, 0
3, 30718, Note_on_c, 0, 81, 64
3, 30933, Note_off_c, 0, 81, 0
3, 30958, Note_on_c, 0, 77, 64
3, 31043, Note_off_c, 0, 77, 0
3, 31053, Note_on_c, 0, 79, 64
3, 31139, Note_off_c, 0, 79, 0
3, 31149, Note_on_c, 0, 77, 64
3, 31235, Note_off_c, 0, 77, 0
3, 31245, Note_on_c, 0, 76, 64
3, 31330, Note_off_c, 0, 76, 0
3, 31340, Note_on_c, 0, 77, 64
3, 31426, Note_off_c, 0, 77, 0
3, 31436, Note_on_c, 0, 84, 64
3, 31651, Note_off_c, 0, 84, 0
3, 31680, Note_on_c, 0, 77, 64
3, 31765, Note_off_c, 0, 77, 0
3, 31775, Note_on_c, 0, 79, 64
3, 31861, Note_off_c, 0, 79, 0
3, 31871, Note_on_c, 0, 77, 64
3, 31957, Note_off_c, 0, 77, 0
3, 31966, Note_on_c, 0, 76, 64
3, 32052, Note_off_c, 0, 76, 0
3, 32062, Note_on_c, 0, 77, 64
3, 32148, Note_off_c, 0, 77, 0
3, 32158, Note_on_c, 0, 81, 64
3, 32373, Note_off_c, 0, 81, 0
3, 32398, Note_on_c, 0, 77, 64
3, 32483, Note_off_c, 0, 77, 0
3, 32493, Note_on_c, 0, 79, 64
3, 32579, Note_off_c, 0, 79, 0
3, 32589, Note_on_c, 0, 77, 64
3, 32675, Note_off_c, 0, 77, 0
3, 32685, Note_on_c, 0, 76, 64
3, 32770, Note_off_c, 0, 76, 0
3, 32780, Note_on_c, 0, 77, 64
3, 32866, Note_off_c, 0, 77, 0
3, 32876, Note_on_c, 0, 84, 64
3, 33091, Note_off_c, 0, 84, 0
3, 33120, Note_on_c, 0, 81, 79
3, 33227, Note_off_c, 0, 81, 0
3, 33360, Note_on_c, 0, 87, 79
3, 33575, Note_off_c, 0, 87, 0
3, 33600, Note_on_c, 0, 84, 79
3, 33815, Note_off_c, 0, 84, 0
3, 33840, Note_on_c, 0, 81, 79
3, 34055, Note_off_c, 0, 81, 0
3, 34080, Note_on_c, 0, 77, 79
3, 34187, Note_off_c, 0, 77, 0
3, 34320, Note_on_c, 0, 76, 79
3, 34427, Note_off_c, 0, 76, 0
3, 34560, Note_on_c, 0, 75, 79
3, 34775, Note_off_c, 0, 75, 0
3, 34800, Note_on_c, 0, 72, 79
3, 35015, Note_off_c, 0, 72, 0
3, 35040, Note_on_c, 0, 69, 79
3, 35147, Note_off_c, 0, 69, 0
3, 35280, Note_on_c, 0, 65, 79
3, 35495, Note_off_c, 0, 65, 0
3, 35520, Note_on_c, 0, 64, 79
3, 35627, Note_off_c, 0, 64, 0
3, 35760, Note_on_c, 0, 63, 79
3, 35867, Note_off_c, 0, 63, 0
3, 36000, Note_on_c, 0, 62, 64
3, 36215, Note_off_c, 0, 62, 0
3, 36240, Note_on_c, 0, 58, 64
3, 36455, Note_off_c, 0, 58, 0
3, 36480, Note_on_c, 0, 65, 64
3, 36587, Note_off_c, 0, 65, 0
3, 36720, Note_on_c, 0, 65, 64
3, 36935, Note_off_c, 0, 65, 0
3, 36960, Note_on_c, 0, 62, 64
3, 37175, Note_off_c, 0, 62, 0
3, 37200, Note_on_c, 0, 70, 64
3, 37307, Note_off_c, 0, 70, 0
3, 37440, Note_on_c, 0, 70, 64
3, 37655, Note_off_c, 0, 70, 0
3, 37680, Note_on_c, 0, 65, 64
3, 37895, Note_off_c, 0, 65, 0
3, 37920, Note_on_c, 0, 74, 64
3, 38027, Note_off_c, 0, 74, 0
3, 38160, Note_on_c, 0, 77, 64
3, 38591, Note_off_c, 0, 77, 0
3, 38640, Note_on_c, 0, 75, 64
3, 38640, Note_on_c, 0, 72, 64
3, 38855, Note_off_c, 0, 72, 0
3, 38855, Note_off_c, 0, 75, 0
3, 38880, Note_on_c, 0, 74, 64
3, 38880, Note_on_c, 0, 70, 64
3, 39095, Note_off_c, 0, 70, 0
3, 39095, Note_off_c, 0, 74, 0
3, 39120, Note_on_c, 0, 75, 64
3, 39120, Note_on_c, 0, 72, 64
3, 39227, Note_off_c, 0, 72, 0
3, 39227, Note_off_c, 0, 75, 0
3, 39360, Note_on_c, 0, 77, 64
3, 39360, Note_on_c, 0, 74, 64
3, 39467, Note_off_c, 0, 74, 0
3, 39467, Note_off_c, 0, 77, 0
3, 39600, Note_on_c, 0, 79, 64
3, 39600, Note_on_c, 0, 75, 64
3, 39815, Note_off_c, 0, 75, 0
3, 39815, Note_off_c, 0, 79, 0
3, 39840, Note_on_c, 0, 75, 64
3, 39840, Note_on_c, 0, 72, 64
3, 40055, Note_off_c, 0, 72, 0
3, 40055, Note_off_c, 0, 75, 0
3, 40080, Note_on_c, 0, 74, 64
3, 40080, Note_on_c, 0, 70, 64
3, 40187, Note_off_c, 0, 70, 0
3, 40187, Note_off_c, 0, 74, 0
3, 40320, Note_on_c, 0, 72, 64
3, 40320, Note_on_c, 0, 69, 64
3, 40427, Note_off_c, 0, 69, 0
3, 40427, Note_off_c, 0, 72, 0
3, 40560, Note_on_c, 0, 72, 64
3, 40560, Note_on_c, 0, 69, 64
3, 40667, Note_off_c, 0, 69, 0
3, 40667, Note_off_c, 0, 72, 0
3, 40800, Note_on_c, 0, 75, 64
3, 40800, Note_on_c, 0, 72, 64
3, 40907, Note_off_c, 0, 72, 0
3, 40907, Note_off_c, 0, 75, 0
3, 40920, Note_on_c, 0, 74, 64
3, 40920, Note_on_c, 0, 70, 64
3, 41027, Note_off_c, 0, 70, 0
3, 41027, Note_off_c, 0, 74, 0
3, 41040, Note_on_c, 0, 72, 64
3, 41040, Note_on_c, 0, 69, 64
3, 41471, Note_off_c, 0, 69, 0
3, 41471, Note_off_c, 0, 72, 0
3, 41520, Note_on_c, 0, 65, 64
3, 41735, Note_off_c, 0, 65, 0
3, 41760, Note_on_c, 0, 67, 64
3, 41813, Note_off_c, 0, 67, 0
3, 41820, Note_on_c, 0, 65, 64
3, 41981, Note_off_c, 0, 65, 0
3, 42000, Note_on_c, 0, 62, 64
3, 42215, Note_off_c, 0, 62, 0
3, 42240, Note_on_c, 0, 70, 64
3, 42347, Note_off_c, 0, 70, 0
3, 42480, Note_on_c, 0, 72, 64
3, 42533, Note_off_c, 0, 72, 0
3, 42540, Note_on_c, 0, 70, 64
3, 42701, Note_off_c, 0, 70, 0
3, 42720, Note_on_c, 0, 65, 64
3, 42935, Note_off_c, 0, 65, 0
3, 42960, Note_on_c, 0, 74, 64
3, 43067, Note_off_c, 0, 74, 0
3, 43200, Note_on_c, 0, 75, 64
3, 43253, Note_off_c, 0, 75, 0
3, 43260, Note_on_c, 0, 74, 64
3, 43421, Note_off_c, 0, 74, 0
3, 43440, Note_on_c, 0, 70, 64
3, 43655, Note_off_c, 0, 70, 0
3, 43680, Note_on_c, 0, 77, 64
3, 43787, Note_off_c, 0, 77, 0
3, 43920, Note_on_c, 0, 77, 64
3, 44351, Note_off_c, 0, 77, 0
3, 44400, Note_on_c, 0, 79, 64
3, 44400, Note_on_c, 0, 75, 64
3, 44615, Note_off_c, 0, 75, 0
3, 44615, Note_off_c, 0, 79, 0
3, 44640, Note_on_c, 0, 77, 64
3, 44640, Note_on_c, 0, 74, 64
3, 44855, Note_off_c, 0, 74, 0
3, 44855, Note_off_c, 0, 77, 0
3, 44880, Note_on_c, 0, 75, 64
3, 44880, Note_on_c, 0, 72, 64
3, 44987, Note_off_c, 0, 72, 0
3, 44987, Note_off_c, 0, 75, 0
3, 45120, Note_on_c, 0, 74, 64
3, 45120, Note_on_c, 0, 70, 64
3, 45227, Note_off_c, 0, 70, 0
3, 45227, Note_off_c, 0, 74, 0
3, 45360, Note_on_c, 0, 72, 64
3, 45360, Note_on_c, 0, 63, 64
3, 45467, Note_off_c, 0, 63, 0
3, 45467, Note_off_c, 0, 72, 0
3, 45600, Note_on_c, 0, 70, 64
3, 45600, Note_on_c, 0, 62, 64
3, 45707, Note_off_c, 0, 62, 0
3, 45707, Note_off_c, 0, 70, 0
3, 45840, Note_on_c, 0, 69, 64
3, 45840, Note_on_c, 0, 60, 64
3, 45947, Note_off_c, 0, 60, 0
3, 45947, Note_off_c, 0, 69, 0
3, 46080, Note_on_c, 0, 70, 64
3, 46080, Note_on_c, 0, 62, 64
3, 46511, Note_off_c, 0, 62, 0
3, 46511, Note_off_c, 0, 70, 0
3, 47280, Note_on_c, 0, 77, 64
3, 47495, Note_off_c, 0, 77, 0
3, 47520, Note_on_c, 0, 77, 49
3, 47735, Note_off_c, 0, 77, 0
3, 47760, Note_on_c, 0, 69, 49
3, 47975, Note_off_c, 0, 69, 0
3, 48000, Note_on_c, 0, 69, 49
3, 48107, Note_off_c, 0, 69, 0
3, 48240, Note_on_c, 0, 72, 49
3, 48293, Note_off_c, 0, 72, 0
3, 48300, Note_on_c, 0, 70, 49
3, 48380, Note_off_c, 0, 70, 0
3, 48480, Note_on_c, 0, 69, 49
3, 48587, Note_off_c, 0, 69, 0
3, 48720, Note_on_c, 0, 70, 49
3, 48827, Note_off_c, 0, 70, 0
3, 48960, Note_on_c, 0, 71, 49
3, 49606, Note_off_c, 0, 71, 0
3, 49680, Note_on_c, 0, 72, 49
3, 50111, Note_off_c, 0, 72, 0
3, 50160, Note_on_c, 0, 77, 49
3, 50267, Note_off_c, 0, 77, 0
3, 50400, Note_on_c, 0, 77, 49
3, 50615, Note_off_c, 0, 77, 0
3, 50640, Note_on_c, 0, 70, 49
3, 50855, Note_off_c, 0, 70, 0
3, 50880, Note_on_c, 0, 70, 49
3, 50987, Note_off_c, 0, 70, 0
3, 51120, Note_on_c, 0, 74, 49
3, 51173, Note_off_c, 0, 74, 0
3, 51180, Note_on_c, 0, 72, 49
3, 51260, Note_off_c, 0, 72, 0
3, 51360, Note_on_c, 0, 70, 49
3, 51467, Note_off_c, 0, 70, 0
3, 51600, Note_on_c, 0, 72, 49
3, 51707, Note_off_c, 0, 72, 0
3, 51840, Note_on_c, 0, 73, 49
3, 52486, Note_off_c, 0, 73, 0
3, 52560, Note_on_c, 0, 74, 49
3, 52991, Note_off_c, 0, 74, 0
3, 53040, Note_on_c, 0, 77, 49
3, 53255, Note_off_c, 0, 77, 0
3, 53280, Note_on_c, 0, 82, 49
3, 53495, Note_off_c, 0, 82, 0
3, 53520, Note_on_c, 0, 81, 49
3, 53735, Note_off_c, 0, 81, 0
3, 53760, Note_on_c, 0, 79, 49
3, 53867, Note_off_c, 0, 79, 0
3, 54000, Note_on_c, 0, 77, 49
3, 54215, Note_off_c, 0, 77, 0
3, 54240, Note_on_c, 0, 75, 49
3, 54455, Note_off_c, 0, 75, 0
3, 54480, Note_on_c, 0, 74, 49
3, 54587, Note_off_c, 0, 74, 0
3, 54720, Note_on_c, 0, 74, 49
3, 54935, Note_off_c, 0, 74, 0
3, 54960, Note_on_c, 0, 72, 49
3, 55175, Note_off_c, 0, 72, 0
3, 55200, Note_on_c, 0, 71, 49
3, 55415, Note_off_c, 0, 71, 0
3, 55440, Note_on_c, 0, 72, 49
3, 55655, Note_off_c, 0, 72, 0
3, 55680, Note_on_c, 0, 75, 49
3, 55895, Note_off_c, 0, 75, 0
3, 55920, Note_on_c, 0, 79, 49
3, 56135, Note_off_c, 0, 79, 0
3, 56160, Note_on_c, 0, 77, 49
3, 56375, Note_off_c, 0, 77, 0
3, 56400, Note_on_c, 0, 74, 49
3, 56507, Note_off_c, 0, 74, 0
3, 56640, Note_on_c, 0, 70, 49
3, 56747, Note_off_c, 0, 70, 0
3, 56880, Note_on_c, 0, 65, 49
3, 56987, Note_off_c, 0, 65, 0
3, 57120, Note_on_c, 0, 67, 49
3, 57227, Note_off_c, 0, 67, 0
3, 57360, Note_on_c, 0, 69, 49
3, 57467, Note_off_c, 0, 69, 0
3, 57600, Note_on_c, 0, 70, 49
3, 58031, Note_off_c, 0, 70, 0
3, 58320, Note_on_c, 0, 70, 49
3, 58427, Note_off_c, 0, 70, 0
3, 58440, Note_on_c, 0, 72, 49
3, 58547, Note_off_c, 0, 72, 0
3, 58560, Note_on_c, 0, 74, 49
3, 58667, Note_off_c, 0, 74, 0
3, 58680, Note_on_c, 0, 75, 49
3, 58787, Note_off_c, 0, 75, 0
3, 58800, Note_on_c, 0, 77, 49
3, 58853, Note_off_c, 0, 77, 0
3, 58860, Note_on_c, 0, 79, 49
3, 58913, Note_off_c, 0, 79, 0
3, 58920, Note_on_c, 0, 81, 49
3, 58973, Note_off_c, 0, 81, 0
3, 58980, Note_on_c, 0, 82, 49
3, 59033, Note_off_c, 0, 82, 0
3, 59040, Note_on_c, 0, 84, 64
3, 59471, Note_off_c, 0, 84, 0
3, 59520, Note_on_c, 0, 82, 64
3, 59735, Note_off_c, 0, 82, 0
3, 59760, Note_on_c, 0, 82, 64
3, 59813, Note_off_c, 0, 82, 0
3, 59820, Note_on_c, 0, 81, 64
3, 59900, Note_off_c, 0, 81, 0
3, 60000, Note_on_c, 0, 79, 64
3, 60107, Note_off_c, 0, 79, 0
3, 60240, Note_on_c, 0, 81, 64
3, 60347, Note_off_c, 0, 81, 0
3, 60480, Note_on_c, 0, 82, 64
3, 61126, Note_off_c, 0, 82, 0
3, 61200, Note_on_c, 0, 77, 64
3, 61631, Note_off_c, 0, 77, 0
3, 61680, Note_on_c, 0, 86, 64
3, 61787, Note_off_c, 0, 86, 0
3, 61920, Note_on_c, 0, 86, 64
3, 62135, Note_off_c, 0, 86, 0
3, 62160, Note_on_c, 0, 84, 64
3, 62375, Note_off_c, 0, 84, 0
3, 62400, Note_on_c, 0, 83, 64
3, 62507, Note_off_c, 0, 83, 0
3, 62640, Note_on_c, 0, 84, 64
3, 62855, Note_off_c, 0, 84, 0
3, 62880, Note_on_c, 0, 86, 64
3, 63095, Note_off_c, 0, 86, 0
3, 63120, Note_on_c, 0, 82, 64
3, 63227, Note_off_c, 0, 82, 0
3, 63360, Note_on_c, 0, 81, 64
3, 63791, Note_off_c, 0, 81, 0
3, 64080, Note_on_c, 0, 81, 64
3, 64187, Note_off_c, 0, 81, 0
3, 64200, Note_on_c, 0, 79, 64
3, 64307, Note_off_c, 0, 79, 0
3, 64320, Note_on_c, 0, 77, 64
3, 64427, Note_off_c, 0, 77, 0
3, 64440, Note_on_c, 0, 79, 64
3, 64547, Note_off_c, 0, 79, 0
3, 64560, Note_on_c, 0, 81, 64
3, 64613, Note_off_c, 0, 81, 0
3, 64620, Note_on_c, 0, 82, 64
3, 64673, Note_off_c, 0, 82, 0
3, 64680, Note_on_c, 0, 82, 64
3, 64733, Note_off_c, 0, 82, 0
3, 64740, Note_on_c, 0, 84, 64
3, 64793, Note_off_c, 0, 84, 0
3, 64800, Note_on_c, 0, 87, 64
3, 65231, Note_off_c, 0, 87, 0
3, 65280, Note_on_c, 0, 84, 64
3, 65495, Note_off_c, 0, 84, 0
3, 65520, Note_on_c, 0, 82, 64
3, 65573, Note_off_c, 0, 82, 0
3, 65580, Note_on_c, 0, 81, 64
3, 65660, Note_off_c, 0, 81, 0
3, 65760, Note_on_c, 0, 79, 64
3, 65867, Note_off_c, 0, 79, 0
3, 66000, Note_on_c, 0, 81, 64
3, 66107, Note_off_c, 0, 81, 0
3, 66240, Note_on_c, 0, 82, 64
3, 66671, Note_off_c, 0, 82, 0
3, 66960, Note_on_c, 0, 82, 64
3, 67067, Note_off_c, 0, 82, 0
3, 67080, Note_on_c, 0, 81, 64
3, 67187, Note_off_c, 0, 81, 0
3, 67200, Note_on_c, 0, 79, 64
3, 67307, Note_off_c, 0, 79, 0
3, 67320, Note_on_c, 0, 77, 64
3, 67427, Note_off_c, 0, 77, 0
3, 67440, Note_on_c, 0, 75, 64
3, 67547, Note_off_c, 0, 75, 0
3, 67560, Note_on_c, 0, 74, 64
3, 67667, Note_off_c, 0, 74, 0
3, 67680, Note_on_c, 0, 79, 64
3, 67787, Note_off_c, 0, 79, 0
3, 67800, Note_on_c, 0, 77, 64
3, 67907, Note_off_c, 0, 77, 0
3, 67920, Note_on_c, 0, 75, 64
3, 68027, Note_off_c, 0, 75, 0
3, 68040, Note_on_c, 0, 74, 64
3, 68147, Note_off_c, 0, 74, 0
3, 68160, Note_on_c, 0, 72, 64
3, 68267, Note_off_c, 0, 72, 0
3, 68280, Note_on_c, 0, 70, 64
3, 68387, Note_off_c, 0, 70, 0
3, 68400, Note_on_c, 0, 69, 64
3, 68507, Note_off_c, 0, 69, 0
3, 68520, Note_on_c, 0, 67, 64
3, 68627, Note_off_c, 0, 67, 0
3, 68640, Note_on_c, 0, 65, 64
3, 68747, Note_off_c, 0, 65, 0
3, 68760, Note_on_c, 0, 63, 64
3, 68867, Note_off_c, 0, 63, 0
3, 68880, Note_on_c, 0, 62, 64
3, 68987, Note_off_c, 0, 62, 0
3, 69000, Note_on_c, 0, 60, 64
3, 69107, Note_off_c, 0, 60, 0
3, 69120, Note_on_c, 0, 58, 56
3, 69551, Note_off_c, 0, 58, 0
3, 69600, Note_on_c, 0, 53, 56
3, 69815, Note_off_c, 0, 53, 0
3, 69840, Note_on_c, 0, 50, 56
3, 70271, Note_off_c, 0, 50, 0
3, 70320, Note_on_c, 0, 58, 56
3, 70535, Note_off_c, 0, 58, 0
3, 70560, Note_on_c, 0, 60, 56
3, 70560, Note_on_c, 0, 51, 56
3, 70991, Note_off_c, 0, 51, 0
3, 70991, Note_off_c, 0, 60, 0
3, 71040, Note_on_c, 0, 58, 56
3, 71255, Note_off_c, 0, 58, 0
3, 71280, Note_on_c, 0, 58, 56
3, 71280, Note_on_c, 0, 51, 56
3, 71333, Note_off_c, 0, 51, 0
3, 71333, Note_off_c, 0, 58, 0
3, 71340, Note_on_c, 0, 57, 56
3, 71420, Note_off_c, 0, 57, 0
3, 71520, Note_on_c, 0, 55, 56
3, 71627, Note_off_c, 0, 55, 0
3, 71760, Note_on_c, 0, 57, 56
3, 71867, Note_off_c, 0, 57, 0
3, 72000, Note_on_c, 0, 58, 56
3, 72000, Note_on_c, 0, 50, 56
3, 72431, Note_off_c, 0, 50, 0
3, 72431, Note_off_c, 0, 58, 0
3, 72480, Note_on_c, 0, 53, 56
3, 72695, Note_off_c, 0, 53, 0
3, 72720, Note_on_c, 0, 58, 56
3, 73151, Note_off_c, 0, 58, 0
3, 73200, Note_on_c, 0, 62, 56
3, 73415, Note_off_c, 0, 62, 0
3, 73440, Note_on_c, 0, 63, 56
3, 73440, Note_on_c, 0, 53, 56
3, 73871, Note_off_c, 0, 53, 0
3, 73871, Note_off_c, 0, 63, 0
3, 73920, Note_on_c, 0, 63, 56
3, 73920, Note_on_c, 0, 54, 56
3, 74027, Note_off_c, 0, 54, 0
3, 74027, Note_off_c, 0, 63, 0
3, 74160, Note_on_c, 0, 65, 56
3, 74160, Note_on_c, 0, 55, 56
3, 74213, Note_off_c, 0, 55, 0
3, 74213, Note_off_c, 0, 65, 0
3, 74220, Note_on_c, 0, 63, 56
3, 74381, Note_off_c, 0, 63, 0
3, 74400, Note_on_c, 0, 62, 56
3, 74615, Note_off_c, 0, 62, 0
3, 74640, Note_on_c, 0, 63, 56
3, 74640, Note_on_c, 0, 57, 56
3, 74747, Note_off_c, 0, 57, 0
3, 74747, Note_off_c, 0, 63, 0
3, 74880, Note_on_c, 0, 62, 56
3, 74880, Note_on_c, 0, 58, 56
3, 75311, Note_off_c, 0, 58, 0
3, 75311, Note_off_c, 0, 62, 0
3, 75360, Note_on_c, 0, 65, 56
3, 75360, Note_on_c, 0, 62, 56
3, 75575, Note_off_c, 0, 62, 0
3, 75575, Note_off_c, 0, 65, 0
3, 75600, Note_on_c, 0, 70, 56
3, 75600, Note_on_c, 0, 65, 56
3, 76031, Note_off_c, 0, 65, 0
3, 76031, Note_off_c, 0, 70, 0
3, 76080, Note_on_c, 0, 74, 56
3, 76080, Note_on_c, 0, 70, 56
3, 76295, Note_off_c, 0, 70, 0
3, 76295, Note_off_c, 0, 74, 0
3, 76320, Note_on_c, 0, 75, 56
3, 76320, Note_on_c, 0, 65, 56
3, 76751, Note_off_c, 0, 65, 0
3, 76751, Note_off_c, 0, 75, 0
3, 76800, Note_on_c, 0, 75, 56
3, 76800, Note_on_c, 0, 66, 56
3, 76907, Note_off_c, 0, 66, 0
3, 76907, Note_off_c, 0, 75, 0
3, 77040, Note_on_c, 0, 77, 56
3, 77040, Note_on_c, 0, 67, 56
3, 77093, Note_off_c, 0, 67, 0
3, 77093, Note_off_c, 0, 77, 0
3, 77100, Note_on_c, 0, 75, 56
3, 77261, Note_off_c, 0, 75, 0
3, 77280, Note_on_c, 0, 74, 56
3, 77495, Note_off_c, 0, 74, 0
3, 77520, Note_on_c, 0, 75, 56
3, 77520, Note_on_c, 0, 69, 56
3, 77627, Note_off_c, 0, 69, 0
3, 77627, Note_off_c, 0, 75, 0
3, 77760, Note_on_c, 0, 74, 64
3, 77760, Note_on_c, 0, 70, 64
3, 78191, Note_off_c, 0, 70, 0
3, 78191, Note_off_c, 0, 74, 0
3, 78240, Note_on_c, 0, 77, 64
3, 78240, Note_on_c, 0, 74, 64
3, 78455, Note_off_c, 0, 74, 0
3, 78455, Note_off_c, 0, 77, 0
3, 78480, Note_on_c, 0, 82, 64
3, 78480, Note_on_c, 0, 74, 64
3, 78911, Note_off_c, 0, 74, 0
3, 78911, Note_off_c, 0, 82, 0
3, 78960, Note_on_c, 0, 81, 64
3, 78960, Note_on_c, 0, 77, 64
3, 79175, Note_off_c, 0, 77, 0
3, 79175, Note_off_c, 0, 81, 0
3, 79200, Note_on_c, 0, 79, 84
3, 79200, Note_on_c, 0, 75, 84
3, 79631, Note_off_c, 0, 75, 0
3, 79631, Note_off_c, 0, 79, 0
3, 79680, Note_on_c, 0, 84, 84
3, 79680, Note_on_c, 0, 72, 84
3, 79895, Note_off_c, 0, 72, 0
3, 79895, Note_off_c, 0, 84, 0
3, 79920, Note_on_c, 0, 82, 84
3, 79920, Note_on_c, 0, 75, 84
3, 79973, Note_off_c, 0, 75, 0
3, 79973, Note_off_c, 0, 82, 0
3, 79980, Note_on_c, 0, 81, 84
3, 80060, Note_off_c, 0, 81, 0
3, 80160, Note_on_c, 0, 79, 84
3, 80267, Note_off_c, 0, 79, 0
3, 80400, Note_on_c, 0, 81, 84
3, 80507, Note_off_c, 0, 81, 0
3, 80640, Note_on_c, 0, 82, 84
3, 80640, Note_on_c, 0, 74, 84
3, 81071, Note_off_c, 0, 74, 0
3, 81071, Note_off_c, 0, 82, 0
3, 81120, Note_on_c, 0, 77, 84
3, 81335, Note_off_c, 0, 77, 0
3, 81360, Note_on_c, 0, 82, 84
3, 81791, Note_off_c, 0, 82, 0
3, 81840, Note_on_c, 0, 86, 84
3, 82055, Note_off_c, 0, 86, 0
3, 82080, Note_on_c, 0, 79, 84
3, 82080, Note_on_c, 0, 75, 84
3, 82511, Note_off_c, 0, 75, 0
3, 82511, Note_off_c, 0, 79, 0
3, 82560, Note_on_c, 0, 84, 84
3, 82560, Note_on_c, 0, 72, 84
3, 82775, Note_off_c, 0, 72, 0
3, 82775, Note_off_c, 0, 84, 0
3, 82800, Note_on_c, 0, 82, 84
3, 82800, Note_on_c, 0, 75, 84
3, 82853, Note_off_c, 0, 75, 0
3, 82853, Note_off_c, 0, 82, 0
3, 82860, Note_on_c, 0, 81, 84
3, 82940, Note_off_c, 0, 81, 0
3, 83040, Note_on_c, 0, 79, 84
3, 83147, Note_off_c, 0, 79, 0
3, 83280, Note_on_c, 0, 81, 84
3, 83387, Note_off_c, 0, 81, 0
3, 83520, Note_on_c, 0, 70, 49
3, 83627, Note_off_c, 0, 70, 0
3, 83640, Note_on_c, 0, 82, 49
3, 83747, Note_off_c, 0, 82, 0
3, 83760, Note_on_c, 0, 70, 49
3, 83867, Note_off_c, 0, 70, 0
3, 83880, Note_on_c, 0, 82, 49
3, 83987, Note_off_c, 0, 82, 0
3, 84000, Note_on_c, 0, 70, 49
3, 84107, Note_off_c, 0, 70, 0
3, 84120, Note_on_c, 0, 82, 49
3, 84227, Note_off_c, 0, 82, 0
3, 84240, Note_on_c, 0, 70, 49
3, 84347, Note_off_c, 0, 70, 0
3, 84360, Note_on_c, 0, 82, 49
3, 84467, Note_off_c, 0, 82, 0
3, 84480, Note_on_c, 0, 70, 49
3, 84587, Note_off_c, 0, 70, 0
3, 84600, Note_on_c, 0, 82, 49
3, 84707, Note_off_c, 0, 82, 0
3, 84720, Note_on_c, 0, 70, 49
3, 84827, Note_off_c, 0, 70, 0
3, 84840, Note_on_c, 0, 82, 49
3, 84947, Note_off_c, 0, 82, 0
3, 84960, Note_on_c, 0, 70, 49
3, 85067, Note_off_c, 0, 70, 0
3, 85080, Note_on_c, 0, 82, 49
3, 85187, Note_off_c, 0, 82, 0
3, 85200, Note_on_c, 0, 70, 49
3, 85307, Note_off_c, 0, 70, 0
3, 85320, Note_on_c, 0, 82, 49
3, 85427, Note_off_c, 0, 82, 0
3, 85440, Note_on_c, 0, 70, 49
3, 85547, Note_off_c, 0, 70, 0
3, 85560, Note_on_c, 0, 82, 49
3, 85667, Note_off_c, 0, 82, 0
3, 85680, Note_on_c, 0, 70, 49
3, 85787, Note_off_c, 0, 70, 0
3, 85800, Note_on_c, 0, 82, 49
3, 85907, Note_off_c, 0, 82, 0
3, 85920, Note_on_c, 0, 70, 49
3, 86027, Note_off_c, 0, 70, 0
3, 86040, Note_on_c, 0, 82, 49
3, 86147, Note_off_c, 0, 82, 0
3, 86160, Note_on_c, 0, 70, 49
3, 86267, Note_off_c, 0, 70, 0
3, 86280, Note_on_c, 0, 82, 49
3, 86387, Note_off_c, 0, 82, 0
3, 86400, Note_on_c, 0, 70, 49
3, 86507, Note_off_c, 0, 70, 0
3, 86520, Note_on_c, 0, 82, 49
3, 86627, Note_off_c, 0, 82, 0
3, 86640, Note_on_c, 0, 70, 49
3, 86747, Note_off_c, 0, 70, 0
3, 86760, Note_on_c, 0, 82, 49
3, 86867, Note_off_c, 0, 82, 0
3, 86880, Note_on_c, 0, 70, 49
3, 86987, Note_off_c, 0, 70, 0
3, 87000, Note_on_c, 0, 82, 49
3, 87107, Note_off_c, 0, 82, 0
3, 87120, Note_on_c, 0, 70, 49
3, 87227, Note_off_c, 0, 70, 0
3, 87240, Note_on_c, 0, 82, 49
3, 87347, Note_off_c, 0, 82, 0
3, 87360, Note_on_c, 0, 70, 49
3, 87467, Note_off_c, 0, 70, 0
3, 87480, Note_on_c, 0, 82, 49
3, 87587, Note_off_c, 0, 82, 0
3, 87600, Note_on_c, 0, 70, 49
3, 87707, Note_off_c, 0, 70, 0
3, 87720, Note_on_c, 0, 82, 49
3, 87827, Note_off_c, 0, 82, 0
3, 87840, Note_on_c, 0, 70, 49
3, 87947, Note_off_c, 0, 70, 0
3, 87960, Note_on_c, 0, 82, 49
3, 88067, Note_off_c, 0, 82, 0
3, 88080, Note_on_c, 0, 70, 49
3, 88187, Note_off_c, 0, 70, 0
3, 88200, Note_on_c, 0, 82, 49
3, 88307, Note_off_c, 0, 82, 0
3, 88320, Note_on_c, 0, 70, 49
3, 88427, Note_off_c, 0, 70, 0
3, 88440, Note_on_c, 0, 82, 49
3, 88547, Note_off_c, 0, 82, 0
3, 88560, Note_on_c, 0, 70, 49
3, 88667, Note_off_c, 0, 70, 0
3, 88680, Note_on_c, 0, 82, 49
3, 88787, Note_off_c, 0, 82, 0
3, 88800, Note_on_c, 0, 70, 49
3, 88907, Note_off_c, 0, 70, 0
3, 88920, Note_on_c, 0, 82, 49
3, 89027, Note_off_c, 0, 82, 0
3, 89040, Note_on_c, 0, 70, 49
3, 89147, Note_off_c, 0, 70, 0
3, 89160, Note_on_c, 0, 82, 49
3, 89267, Note_off_c, 0, 82, 0
3, 89280, Note_on_c, 0, 70, 49
3, 89387, Note_off_c, 0, 70, 0
3, 89400, Note_on_c, 0, 82, 49
3, 89507, Note_off_c, 0, 82, 0
3, 89520, Note_on_c, 0, 70, 49
3, 89627, Note_off_c, 0, 70, 0
3, 89640, Note_on_c, 0, 82, 49
3, 89747, Note_off_c, 0, 82, 0
3, 89760, Note_on_c, 0, 70, 49
3, 89867, Note_off_c, 0, 70, 0
3, 89880, Note_on_c, 0, 82, 49
3, 89987, Note_off_c, 0, 82, 0
3, 90000, Note_on_c, 0, 70, 49
3, 90107, Note_off_c, 0, 70, 0
3, 90120, Note_on_c, 0, 82, 49
3, 90227, Note_off_c, 0, 82, 0
3, 90240, Note_on_c, 0, 70, 49
3, 90347, Note_off_c, 0, 70, 0
3, 90360, Note_on_c, 0, 82, 49
3, 90467, Note_off_c, 0, 82, 0
3, 90480, Note_on_c, 0, 70, 49
3, 90587, Note_off_c, 0, 70, 0
3, 90600, Note_on_c, 0, 82, 49
3, 90707, Note_off_c, 0, 82, 0
3, 90720, Note_on_c, 0, 70, 39
3, 90827, Note_off_c, 0, 70, 0
3, 90840, Note_on_c, 0, 82, 39
3, 90947, Note_off_c, 0, 82, 0
3, 90960, Note_on_c, 0, 70, 39
3, 91067, Note_off_c, 0, 70, 0
3, 91080, Note_on_c, 0, 82, 39
3, 91187, Note_off_c, 0, 82, 0
3, 91200, Note_on_c, 0, 70, 39
3, 91307, Note_off_c, 0, 70, 0
3, 91320, Note_on_c, 0, 82, 39
3, 91427, Note_off_c, 0, 82, 0
3, 91440, Note_on_c, 0, 70, 39
3, 91547, Note_off_c, 0, 70, 0
3, 91560, Note_on_c, 0, 82, 39
3, 91667, Note_off_c, 0, 82, 0
3, 91680, Note_on_c, 0, 70, 39
3, 91787, Note_off_c, 0, 70, 0
3, 91800, Note_on_c, 0, 82, 39
3, 91907, Note_off_c, 0, 82, 0
3, 91920, Note_on_c, 0, 70, 39
3, 92027, Note_off_c, 0, 70, 0
3, 92040, Note_on_c, 0, 82, 39
3, 92147, Note_off_c, 0, 82, 0
3, 92160, Note_on_c, 0, 70, 39
3, 92267, Note_off_c, 0, 70, 0
3, 92280, Note_on_c, 0, 82, 39
3, 92387, Note_off_c, 0, 82, 0
3, 92400, Note_on_c, 0, 70, 39
3, 92507, Note_off_c, 0, 70, 0
3, 92520, Note_on_c, 0, 82, 39
3, 92627, Note_off_c, 0, 82, 0
3, 92640, Note_on_c, 0, 70, 39
3, 92747, Note_off_c, 0, 70, 0
3, 92760, Note_on_c, 0, 82, 39
3, 92867, Note_off_c, 0, 82, 0
3, 92880, Note_on_c, 0, 70, 39
3, 92987, Note_off_c, 0, 70, 0
3, 93000, Note_on_c, 0, 82, 39
3, 93107, Note_off_c, 0, 82, 0
3, 93120, Note_on_c, 0, 70, 39
3, 93227, Note_off_c, 0, 70, 0
3, 93240, Note_on_c, 0, 82, 39
3, 93347, Note_off_c, 0, 82, 0
3, 93360, Note_on_c, 0, 70, 39
3, 93467, Note_off_c, 0, 70, 0
3, 93480, Note_on_c, 0, 82, 39
3, 93587, Note_off_c, 0, 82, 0
3, 93600, Note_on_c, 0, 70, 39
3, 93707, Note_off_c, 0, 70, 0
3, 93720, Note_on_c, 0, 82, 39
3, 93827, Note_off_c, 0, 82, 0
3, 93840, Note_on_c, 0, 70, 39
3, 93947, Note_off_c, 0, 70, 0
3, 93960, Note_on_c, 0, 82, 39
3, 94067, Note_off_c, 0, 82, 0
3, 94080, Note_on_c, 0, 70, 39
3, 94187, Note_off_c, 0, 70, 0
3, 94200, Note_on_c, 0, 82, 39
3, 94307, Note_off_c, 0, 82, 0
3, 94320, Note_on_c, 0, 82, 39
3, 94320, Note_on_c, 0, 79, 39
3, 94535, Note_off_c, 0, 79, 0
3, 94535, Note_off_c, 0, 82, 0
3, 94560, Note_on_c, 0, 80, 39
3, 94560, Note_on_c, 0, 77, 39
3, 94775, Note_off_c, 0, 77, 0
3, 94775, Note_off_c, 0, 80, 0
3, 94800, Note_on_c, 0, 79, 39
3, 94800, Note_on_c, 0, 75, 39
3, 95015, Note_off_c, 0, 75, 0
3, 95015, Note_off_c, 0, 79, 0
3, 95040, Note_on_c, 0, 77, 39
3, 95040, Note_on_c, 0, 74, 39
3, 95147, Note_off_c, 0, 74, 0
3, 95147, Note_off_c, 0, 77, 0
3, 95280, Note_on_c, 0, 77, 39
3, 95280, Note_on_c, 0, 74, 39
3, 95387, Note_off_c, 0, 74, 0
3, 95387, Note_off_c, 0, 77, 0
3, 95520, Note_on_c, 0, 80, 39
3, 95520, Note_on_c, 0, 77, 39
3, 95627, Note_off_c, 0, 77, 0
3, 95627, Note_off_c, 0, 80, 0
3, 95640, Note_on_c, 0, 79, 39
3, 95640, Note_on_c, 0, 75, 39
3, 95747, Note_off_c, 0, 75, 0
3, 95747, Note_off_c, 0, 79, 0
3, 95760, Note_on_c, 0, 77, 39
3, 95760, Note_on_c, 0, 74, 39
3, 95975, Note_off_c, 0, 74, 0
3, 95975, Note_off_c, 0, 77, 0
3, 96000, Note_on_c, 0, 77, 39
3, 96000, Note_on_c, 0, 74, 39
3, 96107, Note_off_c, 0, 74, 0
3, 96107, Note_off_c, 0, 77, 0
3, 96240, Note_on_c, 0, 80, 39
3, 96240, Note_on_c, 0, 77, 39
3, 96347, Note_off_c, 0, 77, 0
3, 96347, Note_off_c, 0, 80, 0
3, 96360, Note_on_c, 0, 79, 39
3, 96360, Note_on_c, 0, 75, 39
3, 96467, Note_off_c, 0, 75, 0
3, 96467, Note_off_c, 0, 79, 0
3, 96480, Note_on_c, 0, 77, 39
3, 96480, Note_on_c, 0, 74, 39
3, 96695, Note_off_c, 0, 74, 0
3, 96695, Note_off_c, 0, 77, 0
3, 96720, Note_on_c, 0, 77, 39
3, 96720, Note_on_c, 0, 74, 39
3, 96827, Note_off_c, 0, 74, 0
3, 96827, Note_off_c, 0, 77, 0
3, 96960, Note_on_c, 0, 80, 39
3, 96960, Note_on_c, 0, 77, 39
3, 97067, Note_off_c, 0, 77, 0
3, 97067, Note_off_c, 0, 80, 0
3, 97080, Note_on_c, 0, 79, 39
3, 97080, Note_on_c, 0, 75, 39
3, 97187, Note_off_c, 0, 75, 0
3, 97187, Note_off_c, 0, 79, 0
3, 97200, Note_on_c, 0, 77, 39
3, 97200, Note_on_c, 0, 74, 39
3, 97631, Note_off_c, 0, 74, 0
3, 97631, Note_off_c, 0, 77, 0
3, 97680, Note_on_c, 0, 70, 64
3, 97787, Note_off_c, 0, 70, 0
3, 97920, Note_on_c, 0, 70, 64
3, 98027, Note_off_c, 0, 70, 0
3, 98160, Note_on_c, 0, 67, 64
3, 98375, Note_off_c, 0, 67, 0
3, 98400, Note_on_c, 0, 75, 64
3, 98615, Note_off_c, 0, 75, 0
3, 98640, Note_on_c, 0, 75, 64
3, 98747, Note_off_c, 0, 75, 0
3, 98880, Note_on_c, 0, 70, 64
3, 99095, Note_off_c, 0, 70, 0
3, 99120, Note_on_c, 0, 79, 64
3, 99335, Note_off_c, 0, 79, 0
3, 99360, Note_on_c, 0, 79, 64
3, 99467, Note_off_c, 0, 79, 0
3, 99600, Note_on_c, 0, 75, 64
3, 99815, Note_off_c, 0, 75, 0
3, 99840, Note_on_c, 0, 82, 64
3, 100055, Note_off_c, 0, 82, 0
3, 100080, Note_on_c, 0, 82, 64
3, 100511, Note_off_c, 0, 82, 0
3, 100560, Note_on_c, 0, 80, 64
3, 100560, Note_on_c, 0, 77, 64
3, 100775, Note_off_c, 0, 77, 0
3, 100775, Note_off_c, 0, 80, 0
3, 100800, Note_on_c, 0, 79, 64
3, 100800, Note_on_c, 0, 75, 64
3, 101015, Note_off_c, 0, 75, 0
3, 101015, Note_off_c, 0, 79, 0
3, 101040, Note_on_c, 0, 80, 64
3, 101040, Note_on_c, 0, 77, 64
3, 101147, Note_off_c, 0, 77, 0
3, 101147, Note_off_c, 0, 80, 0
3, 101280, Note_on_c, 0, 82, 64
3, 101280, Note_on_c, 0, 79, 64
3, 101387, Note_off_c, 0, 79, 0
3, 101387, Note_off_c, 0, 82, 0
3, 101520, Note_on_c, 0, 84, 64
3, 101520, Note_on_c, 0, 80, 64
3, 101735, Note_off_c, 0, 80, 0
3, 101735, Note_off_c, 0, 84, 0
3, 101760, Note_on_c, 0, 80, 64
3, 101760, Note_on_c, 0, 77, 64
3, 101975, Note_off_c, 0, 77, 0
3, 101975, Note_off_c, 0, 80, 0
3, 102000, Note_on_c, 0, 79, 64
3, 102000, Note_on_c, 0, 75, 64
3, 102215, Note_off_c, 0, 75, 0
3, 102215, Note_off_c, 0, 79, 0
3, 102240, Note_on_c, 0, 77, 64
3, 102240, Note_on_c, 0, 74, 64
3, 102347, Note_off_c, 0, 74, 0
3, 102347, Note_off_c, 0, 77, 0
3, 102480, Note_on_c, 0, 77, 64
3, 102480, Note_on_c, 0, 74, 64
3, 102587, Note_off_c, 0, 74, 0
3, 102587, Note_off_c, 0, 77, 0
3, 102720, Note_on_c, 0, 80, 64
3, 102720, Note_on_c, 0, 77, 64
3, 102827, Note_off_c, 0, 77, 0
3, 102827, Note_off_c, 0, 80, 0
3, 102840, Note_on_c, 0, 79, 64
3, 102840, Note_on_c, 0, 75, 64
3, 102947, Note_off_c, 0, 75, 0
3, 102947, Note_off_c, 0, 79, 0
3, 102960, Note_on_c, 0, 77, 64
3, 102960, Note_on_c, 0, 74, 64
3, 103391, Note_off_c, 0, 74, 0
3, 103391, Note_off_c, 0, 77, 0
3, 103440, Note_on_c, 0, 70, 64
3, 103547, Note_off_c, 0, 70, 0
3, 103680, Note_on_c, 0, 70, 64
3, 103895, Note_off_c, 0, 70, 0
3, 103920, Note_on_c, 0, 67, 64
3, 104135, Note_off_c, 0, 67, 0
3, 104160, Note_on_c, 0, 75, 64
3, 104267, Note_off_c, 0, 75, 0
3, 104400, Note_on_c, 0, 75, 64
3, 104615, Note_off_c, 0, 75, 0
3, 104640, Note_on_c, 0, 70, 64
3, 104855, Note_off_c, 0, 70, 0
3, 104880, Note_on_c, 0, 79, 64
3, 104987, Note_off_c, 0, 79, 0
3, 105120, Note_on_c, 0, 79, 64
3, 105335, Note_off_c, 0, 79, 0
3, 105360, Note_on_c, 0, 75, 64
3, 105575, Note_off_c, 0, 75, 0
3, 105600, Note_on_c, 0, 82, 64
3, 105707, Note_off_c, 0, 82, 0
3, 105840, Note_on_c, 0, 82, 64
3, 106055, Note_off_c, 0, 82, 0
3, 106080, Note_on_c, 0, 79, 64
3, 106295, Note_off_c, 0, 79, 0
3, 106320, Note_on_c, 0, 87, 64
3, 106427, Note_off_c, 0, 87, 0
3, 106560, Note_on_c, 0, 80, 89
3, 106560, Note_on_c, 0, 75, 89
3, 106560, Note_on_c, 0, 72, 89
3, 106667, Note_off_c, 0, 72, 0
3, 106667, Note_off_c, 0, 75, 0
3, 106667, Note_off_c, 0, 80, 0
3, 106680, Note_on_c, 0, 84, 89
3, 106787, Note_off_c, 0, 84, 0
3, 106800, Note_on_c, 0, 80, 89
3, 106800, Note_on_c, 0, 75, 89
3, 106800, Note_on_c, 0, 72, 89
3, 106907, Note_off_c, 0, 72, 0
3, 106907, Note_off_c, 0, 75, 0
3, 106907, Note_off_c, 0, 80, 0
3, 106920, Note_on_c, 0, 84, 89
3, 107027, Note_off_c, 0, 84, 0
3, 107040, Note_on_c, 0, 80, 89
3, 107040, Note_on_c, 0, 75, 89
3, 107040, Note_on_c, 0, 72, 89
3, 107147, Note_off_c, 0, 72, 0
3, 107147, Note_off_c, 0, 75, 0
3, 107147, Note_off_c, 0, 80, 0
3, 107160, Note_on_c, 0, 84, 89
3, 107267, Note_off_c, 0, 84, 0
3, 107280, Note_on_c, 0, 80, 89
3, 107280, Note_on_c, 0, 75, 89
3, 107280, Note_on_c, 0, 72, 89
3, 107387, Note_off_c, 0, 72, 0
3, 107387, Note_off_c, 0, 75, 0
3, 107387, Note_off_c, 0, 80, 0
3, 107400, Note_on_c, 0, 84, 89
3, 107507, Note_off_c, 0, 84, 0
3, 107520, Note_on_c, 0, 80, 89
3, 107520, Note_on_c, 0, 75, 89
3, 107520, Note_on_c, 0, 72, 89
3, 107627, Note_off_c, 0, 72, 0
3, 107627, Note_off_c, 0, 75, 0
3, 107627, Note_off_c, 0, 80, 0
3, 107640, Note_on_c, 0, 84, 89
3, 107747, Note_off_c, 0, 84, 0
3, 107760, Note_on_c, 0, 80, 89
3, 107760, Note_on_c, 0, 75, 89
3, 107760, Note_on_c, 0, 72, 89
3, 107867, Note_off_c, 0, 72, 0
3, 107867, Note_off_c, 0, 75, 0
3, 107867, Note_off_c, 0, 80, 0
3, 107880, Note_on_c, 0, 84, 89
3, 107987, Note_off_c, 0, 84, 0
3, 108000, Note_on_c, 0, 70, 89
3, 108000, Note_on_c, 0, 68, 89
3, 108000, Note_on_c, 0, 65, 89
3, 108107, Note_off_c, 0, 65, 0
3, 108107, Note_off_c, 0, 68, 0
3, 108107, Note_off_c, 0, 70, 0
3, 108120, Note_on_c, 0, 74, 89
3, 108227, Note_off_c, 0, 74, 0
3, 108240, Note_on_c, 0, 70, 89
3, 108240, Note_on_c, 0, 68, 89
3, 108240, Note_on_c, 0, 65, 89
3, 108347, Note_off_c, 0, 65, 0
3, 108347, Note_off_c, 0, 68, 0
3, 108347, Note_off_c, 0, 70, 0
3, 108360, Note_on_c, 0, 74, 89
3, 108467, Note_off_c, 0, 74, 0
3, 108480, Note_on_c, 0, 70, 89
3, 108480, Note_on_c, 0, 68, 89
3, 108480, Note_on_c, 0, 65, 89
3, 108587, Note_off_c, 0, 65, 0
3, 108587, Note_off_c, 0, 68, 0
3, 108587, Note_off_c, 0, 70, 0
3, 108600, Note_on_c, 0, 74, 89
3, 108707, Note_off_c, 0, 74, 0
3, 108720, Note_on_c, 0, 70, 89
3, 108720, Note_on_c, 0, 68, 89
3, 108720, Note_on_c, 0, 65, 89
3, 108827, Note_off_c, 0, 65, 0
3, 108827, Note_off_c, 0, 68, 0
3, 108827, Note_off_c, 0, 70, 0
3, 108840, Note_on_c, 0, 74, 89
3, 108947, Note_off_c, 0, 74, 0
3, 108960, Note_on_c, 0, 70, 89
3, 108960, Note_on_c, 0, 68, 89
3, 108960, Note_on_c, 0, 65, 89
3, 109067, Note_off_c, 0, 65, 0
3, 109067, Note_off_c, 0, 68, 0
3, 109067, Note_off_c, 0, 70, 0
3, 109080, Note_on_c, 0, 74, 89
3, 109187, Note_off_c, 0, 74, 0
3, 109200, Note_on_c, 0, 70, 89
3, 109200, Note_on_c, 0, 68, 89
3, 109200, Note_on_c, 0, 65, 89
3, 109307, Note_off_c, 0, 65, 0
3, 109307, Note_off_c, 0, 68, 0
3, 109307, Note_off_c, 0, 70, 0
3, 109320, Note_on_c, 0, 74, 89
3, 109427, Note_off_c, 0, 74, 0
3, 109440, Note_on_c, 0, 75, 89
3, 109440, Note_on_c, 0, 67, 89
3, 109871, Note_off_c, 0, 67, 0
3, 109871, Note_off_c, 0, 75, 0
3, 109920, Note_on_c, 0, 70, 52
3, 110135, Note_off_c, 0, 70, 0
3, 110160, Note_on_c, 0, 75, 52
3, 110591, Note_off_c, 0, 75, 0
3, 110640, Note_on_c, 0, 79, 52
3, 110855, Note_off_c, 0, 79, 0
3, 110880, Note_on_c, 0, 77, 52
3, 110880, Note_on_c, 0, 68, 52
3, 111311, Note_off_c, 0, 68, 0
3, 111311, Note_off_c, 0, 77, 0
3, 111360, Note_on_c, 0, 75, 52
3, 111575, Note_off_c, 0, 75, 0
3, 111600, Note_on_c, 0, 75, 52
3, 111600, Note_on_c, 0, 65, 52
3, 111653, Note_off_c, 0, 65, 0
3, 111653, Note_off_c, 0, 75, 0
3, 111660, Note_on_c, 0, 74, 52
3, 111740, Note_off_c, 0, 74, 0
3, 111840, Note_on_c, 0, 72, 52
3, 112055, Note_off_c, 0, 72, 0
3, 112080, Note_on_c, 0, 74, 52
3, 112187, Note_off_c, 0, 74, 0
3, 112320, Note_on_c, 0, 75, 52
3, 112320, Note_on_c, 0, 67, 52
3, 112751, Note_off_c, 0, 67, 0
3, 112751, Note_off_c, 0, 75, 0
3, 112800, Note_on_c, 0, 70, 52
3, 113015, Note_off_c, 0, 70, 0
3, 113040, Note_on_c, 0, 75, 52
3, 113471, Note_off_c, 0, 75, 0
3, 113520, Note_on_c, 0, 79, 52
3, 113735, Note_off_c, 0, 79, 0
3, 113760, Note_on_c, 0, 80, 52
3, 113760, Note_on_c, 0, 72, 52
3, 113975, Note_off_c, 0, 72, 0
3, 113975, Note_off_c, 0, 80, 0
3, 114000, Note_on_c, 0, 80, 52
3, 114000, Note_on_c, 0, 74, 52
3, 114107, Note_off_c, 0, 74, 0
3, 114107, Note_off_c, 0, 80, 0
3, 114240, Note_on_c, 0, 80, 52
3, 114240, Note_on_c, 0, 75, 52
3, 114347, Note_off_c, 0, 75, 0
3, 114347, Note_off_c, 0, 80, 0
3, 114480, Note_on_c, 0, 76, 52
3, 114480, Note_on_c, 0, 82, 52
3, 114533, Note_off_c, 0, 82, 0
3, 114540, Note_on_c, 0, 80, 52
3, 114701, Note_off_c, 0, 80, 0
3, 114720, Note_on_c, 0, 79, 52
3, 114911, Note_off_c, 0, 76, 0
3, 114935, Note_off_c, 0, 79, 0
3, 114960, Note_on_c, 0, 77, 52
3, 114960, Note_on_c, 0, 80, 52
3, 115175, Note_off_c, 0, 80, 0
3, 115175, Note_off_c, 0, 77, 0
3, 115200, Note_on_c, 0, 79, 52
3, 115200, Note_on_c, 0, 75, 52
3, 115631, Note_off_c, 0, 75, 0
3, 115631, Note_off_c, 0, 79, 0
3, 115680, Note_on_c, 0, 70, 52
3, 115895, Note_off_c, 0, 70, 0
3, 115920, Note_on_c, 0, 67, 52
3, 116351, Note_off_c, 0, 67, 0
3, 116400, Note_on_c, 0, 79, 52
3, 116615, Note_off_c, 0, 79, 0
3, 116640, Note_on_c, 0, 68, 52
3, 116640, Note_on_c, 0, 78, 52
3, 116855, Note_off_c, 0, 78, 0
3, 116880, Note_on_c, 0, 77, 52
3, 117095, Note_off_c, 0, 77, 0
3, 117120, Note_on_c, 0, 76, 52
3, 117286, Note_off_c, 0, 68, 0
3, 117335, Note_off_c, 0, 76, 0
3, 117360, Note_on_c, 0, 68, 52
3, 117360, Note_on_c, 0, 65, 52
3, 117360, Note_on_c, 0, 75, 52
3, 117413, Note_off_c, 0, 75, 0
3, 117420, Note_on_c, 0, 74, 52
3, 117581, Note_off_c, 0, 74, 0
3, 117600, Note_on_c, 0, 72, 52
3, 117815, Note_off_c, 0, 72, 0
3, 117840, Note_on_c, 0, 74, 52
3, 118006, Note_off_c, 0, 65, 0
3, 118006, Note_off_c, 0, 68, 0
3, 118055, Note_off_c, 0, 74, 0
3, 118080, Note_on_c, 0, 75, 64
3, 118080, Note_on_c, 0, 67, 64
3, 118511, Note_off_c, 0, 67, 0
3, 118511, Note_off_c, 0, 75, 0
3, 118560, Note_on_c, 0, 70, 64
3, 118775, Note_off_c, 0, 70, 0
3, 118800, Note_on_c, 0, 75, 64
3, 119231, Note_off_c, 0, 75, 0
3, 119280, Note_on_c, 0, 79, 64
3, 119495, Note_off_c, 0, 79, 0
3, 119520, Note_on_c, 0, 68, 64
3, 119520, Note_on_c, 0, 78, 64
3, 119735, Note_off_c, 0, 78, 0
3, 119760, Note_on_c, 0, 77, 64
3, 119975, Note_off_c, 0, 77, 0
3, 120000, Note_on_c, 0, 76, 64
3, 120166, Note_off_c, 0, 68, 0
3, 120215, Note_off_c, 0, 76, 0
3, 120240, Note_on_c, 0, 68, 64
3, 120240, Note_on_c, 0, 65, 64
3, 120240, Note_on_c, 0, 75, 64
3, 120293, Note_off_c, 0, 75, 0
3, 120300, Note_on_c, 0, 74, 64
3, 120461, Note_off_c, 0, 74, 0
3, 120480, Note_on_c, 0, 72, 64
3, 120695, Note_off_c, 0, 72, 0
3, 120720, Note_on_c, 0, 74, 64
3, 120886, Note_off_c, 0, 65, 0
3, 120886, Note_off_c, 0, 68, 0
3, 120935, Note_off_c, 0, 74, 0
3, 120960, Note_on_c, 0, 75, 79
3, 120960, Note_on_c, 0, 70, 79
3, 120960, Note_on_c, 0, 67, 79
3, 121175, Note_off_c, 0, 67, 0
3, 121175, Note_off_c, 0, 70, 0
3, 121175, Note_off_c, 0, 75, 0
3, 121200, Note_on_c, 0, 82, 79
3, 121415, Note_off_c, 0, 82, 0
3, 121440, Note_on_c, 0, 79, 79
3, 121655, Note_off_c, 0, 79, 0
3, 121680, Note_on_c, 0, 75, 79
3, 121895, Note_off_c, 0, 75, 0
3, 121920, Note_on_c, 0, 70, 79
3, 122135, Note_off_c, 0, 70, 0
3, 122160, Note_on_c, 0, 67, 79
3, 122375, Note_off_c, 0, 67, 0
3, 122400, Note_on_c, 0, 65, 79
3, 122615, Note_off_c, 0, 65, 0
3, 122640, Note_on_c, 0, 84, 79
3, 122855, Note_off_c, 0, 84, 0
3, 122880, Note_on_c, 0, 80, 79
3, 123095, Note_off_c, 0, 80, 0
3, 123120, Note_on_c, 0, 77, 79
3, 123335, Note_off_c, 0, 77, 0
3, 123360, Note_on_c, 0, 72, 79
3, 123575, Note_off_c, 0, 72, 0
3, 123600, Note_on_c, 0, 68, 79
3, 123815, Note_off_c, 0, 68, 0
3, 123840, Note_on_c, 0, 67, 79
3, 124055, Note_off_c, 0, 67, 0
3, 124080, Note_on_c, 0, 82, 79
3, 124295, Note_off_c, 0, 82, 0
3, 124320, Note_on_c, 0, 79, 79
3, 124535, Note_off_c, 0, 79, 0
3, 124560, Note_on_c, 0, 75, 79
3, 124775, Note_off_c, 0, 75, 0
3, 124800, Note_on_c, 0, 70, 79
3, 125015, Note_off_c, 0, 70, 0
3, 125040, Note_on_c, 0, 67, 79
3, 125255, Note_off_c, 0, 67, 0
3, 125280, Note_on_c, 0, 65, 79
3, 125495, Note_off_c, 0, 65, 0
3, 125520, Note_on_c, 0, 80, 79
3, 125735, Note_off_c, 0, 80, 0
3, 125760, Note_on_c, 0, 77, 79
3, 125975, Note_off_c, 0, 77, 0
3, 126000, Note_on_c, 0, 74, 79
3, 126215, Note_off_c, 0, 74, 0
3, 126240, Note_on_c, 0, 68, 79
3, 126455, Note_off_c, 0, 68, 0
3, 126480, Note_on_c, 0, 65, 79
3, 126695, Note_off_c, 0, 65, 0
3, 126720, Note_on_c, 0, 63, 79
3, 126935, Note_off_c, 0, 63, 0
3, 126960, Note_on_c, 0, 79, 79
3, 127175, Note_off_c, 0, 79, 0
3, 127200, Note_on_c, 0, 75, 79
3, 127415, Note_off_c, 0, 75, 0
3, 127440, Note_on_c, 0, 72, 79
3, 127655, Note_off_c, 0, 72, 0
3, 127680, Note_on_c, 0, 67, 79
3, 127895, Note_off_c, 0, 67, 0
3, 127920, Note_on_c, 0, 63, 79
3, 128135, Note_off_c, 0, 63, 0
3, 128160, Note_on_c, 0, 60, 79
3, 128375, Note_off_c, 0, 60, 0
3, 128400, Note_on_c, 0, 72, 79
3, 128615, Note_off_c, 0, 72, 0
3, 128640, Note_on_c, 0, 70, 79
3, 128855, Note_off_c, 0, 70, 0
3, 128880, Note_on_c, 0, 68, 79
3, 129095, Note_off_c, 0, 68, 0
3, 129120, Note_on_c, 0, 67, 79
3, 129335, Note_off_c, 0, 67, 0
3, 129360, Note_on_c, 0, 65, 79
3, 129575, Note_off_c, 0, 65, 0
3, 129600, Note_on_c, 0, 63, 79
3, 129815, Note_off_c, 0, 63, 0
3, 129840, Note_on_c, 0, 70, 79
3, 130055, Note_off_c, 0, 70, 0
3, 130080, Note_on_c, 0, 68, 79
3, 130295, Note_off_c, 0, 68, 0
3, 130320, Note_on_c, 0, 67, 79
3, 130535, Note_off_c, 0, 67, 0
3, 130560, Note_on_c, 0, 65, 79
3, 130775, Note_off_c, 0, 65, 0
3, 130800, Note_on_c, 0, 63, 79
3, 131015, Note_off_c, 0, 63, 0
3, 131040, Note_on_c, 0, 62, 79
3, 131255, Note_off_c, 0, 62, 0
3, 131280, Note_on_c, 0, 68, 79
3, 131495, Note_off_c, 0, 68, 0
3, 131520, Note_on_c, 0, 67, 79
3, 131735, Note_off_c, 0, 67, 0
3, 131760, Note_on_c, 0, 65, 79
3, 131975, Note_off_c, 0, 65, 0
3, 132000, Note_on_c, 0, 63, 79
3, 132215, Note_off_c, 0, 63, 0
3, 132240, Note_on_c, 0, 62, 79
3, 132455, Note_off_c, 0, 62, 0
3, 132480, Note_on_c, 0, 63, 79
3, 132695, Note_off_c, 0, 63, 0
3, 132720, Note_on_c, 0, 67, 79
3, 132935, Note_off_c, 0, 67, 0
3, 132960, Note_on_c, 0, 72, 79
3, 133175, Note_off_c, 0, 72, 0
3, 133200, Note_on_c, 0, 75, 79
3, 133415, Note_off_c, 0, 75, 0
3, 133440, Note_on_c, 0, 79, 79
3, 133655, Note_off_c, 0, 79, 0
3, 133680, Note_on_c, 0, 84, 79
3, 133895, Note_off_c, 0, 84, 0
3, 133920, Note_on_c, 0, 81, 79
3, 134135, Note_off_c, 0, 81, 0
3, 134160, Note_on_c, 0, 87, 79
3, 134375, Note_off_c, 0, 87, 0
3, 134400, Note_on_c, 0, 86, 79
3, 134615, Note_off_c, 0, 86, 0
3, 134640, Note_on_c, 0, 84, 79
3, 134855, Note_off_c, 0, 84, 0
3, 134880, Note_on_c, 0, 82, 79
3, 135095, Note_off_c, 0, 82, 0
3, 135120, Note_on_c, 0, 81, 79
3, 135335, Note_off_c, 0, 81, 0
3, 135360, Note_on_c, 0, 79, 79
3, 135575, Note_off_c, 0, 79, 0
3, 135600, Note_on_c, 0, 77, 79
3, 135815, Note_off_c, 0, 77, 0
3, 135840, Note_on_c, 0, 75, 79
3, 136055, Note_off_c, 0, 75, 0
3, 136080, Note_on_c, 0, 74, 79
3, 136295, Note_off_c, 0, 74, 0
3, 136320, Note_on_c, 0, 72, 79
3, 136535, Note_off_c, 0, 72, 0
3, 136560, Note_on_c, 0, 70, 79
3, 136775, Note_off_c, 0, 70, 0
3, 136800, Note_on_c, 0, 69, 75
3, 137015, Note_off_c, 0, 69, 0
3, 137040, Note_on_c, 0, 67, 75
3, 137255, Note_off_c, 0, 67, 0
3, 137280, Note_on_c, 0, 65, 75
3, 137495, Note_off_c, 0, 65, 0
3, 137520, Note_on_c, 0, 63, 75
3, 137735, Note_off_c, 0, 63, 0
3, 137760, Note_on_c, 0, 62, 75
3, 137975, Note_off_c, 0, 62, 0
3, 138000, Note_on_c, 0, 60, 75
3, 138215, Note_off_c, 0, 60, 0
3, 138240, Note_on_c, 0, 58, 75
3, 138455, Note_off_c, 0, 58, 0
3, 138480, Note_on_c, 0, 57, 75
3, 138695, Note_off_c, 0, 57, 0
3, 138720, Note_on_c, 0, 55, 75
3, 138935, Note_off_c, 0, 55, 0
3, 138960, Note_on_c, 0, 53, 75
3, 139175, Note_off_c, 0, 53, 0
3, 139200, Note_on_c, 0, 55, 75
3, 139415, Note_off_c, 0, 55, 0
3, 139440, Note_on_c, 0, 57, 75
3, 139655, Note_off_c, 0, 57, 0
3, 139680, Note_on_c, 0, 58, 46
3, 139895, Note_off_c, 0, 58, 0
3, 139920, Note_on_c, 0, 53, 46
3, 140135, Note_off_c, 0, 53, 0
3, 140160, Note_on_c, 0, 62, 46
3, 140267, Note_off_c, 0, 62, 0
3, 140400, Note_on_c, 0, 62, 46
3, 140615, Note_off_c, 0, 62, 0
3, 140640, Note_on_c, 0, 58, 46
3, 140855, Note_off_c, 0, 58, 0
3, 140880, Note_on_c, 0, 65, 64
3, 140987, Note_off_c, 0, 65, 0
3, 141120, Note_on_c, 0, 65, 64
3, 141335, Note_off_c, 0, 65, 0
3, 141360, Note_on_c, 0, 62, 64
3, 141575, Note_off_c, 0, 62, 0
3, 141600, Note_on_c, 0, 70, 64
3, 141707, Note_off_c, 0, 70, 0
3, 141840, Note_on_c, 0, 70, 64
3, 142055, Note_off_c, 0, 70, 0
3, 142080, Note_on_c, 0, 65, 64
3, 142295, Note_off_c, 0, 65, 0
3, 142320, Note_on_c, 0, 74, 64
3, 142427, Note_off_c, 0, 74, 0
3, 142560, Note_on_c, 0, 74, 64
3, 142775, Note_off_c, 0, 74, 0
3, 142800, Note_on_c, 0, 70, 64
3, 143015, Note_off_c, 0, 70, 0
3, 143040, Note_on_c, 0, 77, 64
3, 143147, Note_off_c, 0, 77, 0
3, 143280, Note_on_c, 0, 77, 64
3, 143711, Note_off_c, 0, 77, 0
3, 143760, Note_on_c, 0, 75, 64
3, 143975, Note_off_c, 0, 75, 0
3, 144000, Note_on_c, 0, 74, 64
3, 144000, Note_on_c, 0, 70, 64
3, 144215, Note_off_c, 0, 70, 0
3, 144215, Note_off_c, 0, 74, 0
3, 144240, Note_on_c, 0, 75, 64
3, 144240, Note_on_c, 0, 72, 64
3, 144347, Note_off_c, 0, 72, 0
3, 144347, Note_off_c, 0, 75, 0
3, 144480, Note_on_c, 0, 77, 64
3, 144480, Note_on_c, 0, 74, 64
3, 144587, Note_off_c, 0, 74, 0
3, 144587, Note_off_c, 0, 77, 0
3, 144720, Note_on_c, 0, 79, 64
3, 144720, Note_on_c, 0, 75, 64
3, 144935, Note_off_c, 0, 75, 0
3, 144935, Note_off_c, 0, 79, 0
3, 144960, Note_on_c, 0, 75, 64
3, 144960, Note_on_c, 0, 72, 64
3, 145067, Note_off_c, 0, 72, 0
3, 145067, Note_off_c, 0, 75, 0
3, 145200, Note_on_c, 0, 74, 64
3, 145200, Note_on_c, 0, 70, 64
3, 145307, Note_off_c, 0, 70, 0
3, 145307, Note_off_c, 0, 74, 0
3, 145440, Note_on_c, 0, 72, 64
3, 145440, Note_on_c, 0, 69, 64
3, 145547, Note_off_c, 0, 69, 0
3, 145547, Note_off_c, 0, 72, 0
3, 145680, Note_on_c, 0, 72, 64
3, 145680, Note_on_c, 0, 69, 64
3, 145787, Note_off_c, 0, 69, 0
3, 145787, Note_off_c, 0, 72, 0
3, 145920, Note_on_c, 0, 75, 64
3, 145920, Note_on_c, 0, 72, 64
3, 146027, Note_off_c, 0, 72, 0
3, 146027, Note_off_c, 0, 75, 0
3, 146040, Note_on_c, 0, 74, 64
3, 146040, Note_on_c, 0, 70, 64
3, 146147, Note_off_c, 0, 70, 0
3, 146147, Note_off_c, 0, 74, 0
3, 146160, Note_on_c, 0, 72, 64
3, 146160, Note_on_c, 0, 69, 64
3, 146591, Note_off_c, 0, 69, 0
3, 146591, Note_off_c, 0, 72, 0
3, 146640, Note_on_c, 0, 65, 64
3, 146855, Note_off_c, 0, 65, 0
3, 146880, Note_on_c, 0, 67, 64
3, 146933, Note_off_c, 0, 67, 0
3, 146940, Note_on_c, 0, 65, 64
3, 147101, Note_off_c, 0, 65, 0
3, 147120, Note_on_c, 0, 62, 64
3, 147335, Note_off_c, 0, 62, 0
3, 147360, Note_on_c, 0, 70, 64
3, 147467, Note_off_c, 0, 70, 0
3, 147600, Note_on_c, 0, 72, 64
3, 147653, Note_off_c, 0, 72, 0
3, 147660, Note_on_c, 0, 70, 64
3, 147821, Note_off_c, 0, 70, 0
3, 147840, Note_on_c, 0, 65, 64
3, 148055, Note_off_c, 0, 65, 0
3, 148080, Note_on_c, 0, 74, 64
3, 148187, Note_off_c, 0, 74, 0
3, 148320, Note_on_c, 0, 75, 64
3, 148373, Note_off_c, 0, 75, 0
3, 148380, Note_on_c, 0, 74, 64
3, 148541, Note_off_c, 0, 74, 0
3, 148560, Note_on_c, 0, 70, 64
3, 148775, Note_off_c, 0, 70, 0
3, 148800, Note_on_c, 0, 77, 64
3, 148907, Note_off_c, 0, 77, 0
3, 149040, Note_on_c, 0, 77, 64
3, 149471, Note_off_c, 0, 77, 0
3, 149520, Note_on_c, 0, 79, 64
3, 149520, Note_on_c, 0, 76, 64
3, 149735, Note_off_c, 0, 76, 0
3, 149735, Note_off_c, 0, 79, 0
3, 149760, Note_on_c, 0, 81, 64
3, 149760, Note_on_c, 0, 77, 64
3, 149975, Note_off_c, 0, 77, 0
3, 149975, Note_off_c, 0, 81, 0
3, 150000, Note_on_c, 0, 82, 64
3, 150000, Note_on_c, 0, 79, 64
3, 150107, Note_off_c, 0, 79, 0
3, 150107, Note_off_c, 0, 82, 0
3, 150240, Note_on_c, 0, 84, 64
3, 150240, Note_on_c, 0, 81, 64
3, 150347, Note_off_c, 0, 81, 0
3, 150347, Note_off_c, 0, 84, 0
3, 150480, Note_on_c, 0, 82, 64
3, 150480, Note_on_c, 0, 79, 64
3, 150695, Note_off_c, 0, 79, 0
3, 150695, Note_off_c, 0, 82, 0
3, 150720, Note_on_c, 0, 81, 64
3, 150720, Note_on_c, 0, 77, 64
3, 150935, Note_off_c, 0, 77, 0
3, 150935, Note_off_c, 0, 81, 0
3, 150960, Note_on_c, 0, 79, 64
3, 150960, Note_on_c, 0, 76, 64
3, 151067, Note_off_c, 0, 76, 0
3, 151067, Note_off_c, 0, 79, 0
3, 151200, Note_on_c, 0, 77, 64
3, 151200, Note_on_c, 0, 69, 64
3, 151307, Note_off_c, 0, 69, 0
3, 151307, Note_off_c, 0, 77, 0
3, 151440, Note_on_c, 0, 77, 64
3, 151440, Note_on_c, 0, 69, 64
3, 151547, Note_off_c, 0, 69, 0
3, 151547, Note_off_c, 0, 77, 0
3, 151680, Note_on_c, 0, 77, 64
3, 151680, Note_on_c, 0, 69, 64
3, 151787, Note_off_c, 0, 69, 0
3, 151787, Note_off_c, 0, 77, 0
3, 151920, Note_on_c, 0, 77, 64
3, 151920, Note_on_c, 0, 69, 64
3, 152135, Note_off_c, 0, 69, 0
3, 152135, Note_off_c, 0, 77, 0
3, 152220, Note_on_c, 0, 72, 64
3, 152273, Note_off_c, 0, 72, 0
3, 152280, Note_on_c, 0, 74, 64
3, 152333, Note_off_c, 0, 74, 0
3, 152340, Note_on_c, 0, 75, 64
3, 152393, Note_off_c, 0, 75, 0
3, 152400, Note_on_c, 0, 77, 64
3, 152453, Note_off_c, 0, 77, 0
3, 152460, Note_on_c, 0, 79, 64
3, 152513, Note_off_c, 0, 79, 0
3, 152520, Note_on_c, 0, 81, 64
3, 152573, Note_off_c, 0, 81, 0
3, 152580, Note_on_c, 0, 82, 64
3, 152633, Note_off_c, 0, 82, 0
3, 152640, Note_on_c, 0, 84, 54
3, 153071, Note_off_c, 0, 84, 0
3, 153120, Note_on_c, 0, 82, 54
3, 153335, Note_off_c, 0, 82, 0
3, 153360, Note_on_c, 0, 82, 54
3, 153413, Note_off_c, 0, 82, 0
3, 153420, Note_on_c, 0, 81, 54
3, 153581, Note_off_c, 0, 81, 0
3, 153600, Note_on_c, 0, 79, 54
3, 153707, Note_off_c, 0, 79, 0
3, 153840, Note_on_c, 0, 81, 54
3, 153947, Note_off_c, 0, 81, 0
3, 154080, Note_on_c, 0, 82, 54
3, 154511, Note_off_c, 0, 82, 0
3, 154560, Note_on_c, 0, 77, 54
3, 154775, Note_off_c, 0, 77, 0
3, 154800, Note_on_c, 0, 74, 54
3, 155231, Note_off_c, 0, 74, 0
3, 155280, Note_on_c, 0, 82, 54
3, 155495, Note_off_c, 0, 82, 0
3, 155520, Note_on_c, 0, 86, 54
3, 155573, Note_off_c, 0, 86, 0
3, 155580, Note_on_c, 0, 84, 54
3, 155975, Note_off_c, 0, 84, 0
3, 156000, Note_on_c, 0, 82, 54
3, 156215, Note_off_c, 0, 82, 0
3, 156240, Note_on_c, 0, 82, 54
3, 156293, Note_off_c, 0, 82, 0
3, 156300, Note_on_c, 0, 81, 54
3, 156380, Note_off_c, 0, 81, 0
3, 156480, Note_on_c, 0, 79, 54
3, 156587, Note_off_c, 0, 79, 0
3, 156720, Note_on_c, 0, 81, 54
3, 156827, Note_off_c, 0, 81, 0
3, 156960, Note_on_c, 0, 82, 54
3, 157391, Note_off_c, 0, 82, 0
3, 157440, Note_on_c, 0, 77, 54
3, 157655, Note_off_c, 0, 77, 0
3, 157680, Note_on_c, 0, 82, 54
3, 158111, Note_off_c, 0, 82, 0
3, 158160, Note_on_c, 0, 86, 54
3, 158375, Note_off_c, 0, 86, 0
3, 158400, Note_on_c, 0, 86, 54
3, 158453, Note_off_c, 0, 86, 0
3, 158460, Note_on_c, 0, 84, 54
3, 158855, Note_off_c, 0, 84, 0
3, 158880, Note_on_c, 0, 82, 54
3, 159095, Note_off_c, 0, 82, 0
3, 159120, Note_on_c, 0, 82, 54
3, 159173, Note_off_c, 0, 82, 0
3, 159180, Note_on_c, 0, 81, 54
3, 159260, Note_off_c, 0, 81, 0
3, 159360, Note_on_c, 0, 79, 54
3, 159467, Note_off_c, 0, 79, 0
3, 159600, Note_on_c, 0, 81, 54
3, 159707, Note_off_c, 0, 81, 0
3, 159840, Note_on_c, 0, 82, 54
3, 160486, Note_off_c, 0, 82, 0
3, 160560, Note_on_c, 0, 77, 54
3, 160991, Note_off_c, 0, 77, 0
3, 161040, Note_on_c, 0, 78, 54
3, 161255, Note_off_c, 0, 78, 0
3, 161280, Note_on_c, 0, 79, 54
3, 161711, Note_off_c, 0, 79, 0
3, 161760, Note_on_c, 0, 79, 54
3, 161975, Note_off_c, 0, 79, 0
3, 162000, Note_on_c, 0, 81, 54
3, 162053, Note_off_c, 0, 81, 0
3, 162060, Note_on_c, 0, 79, 54
3, 162221, Note_off_c, 0, 79, 0
3, 162240, Note_on_c, 0, 78, 54
3, 162347, Note_off_c, 0, 78, 0
3, 162480, Note_on_c, 0, 79, 54
3, 162587, Note_off_c, 0, 79, 0
3, 162720, Note_on_c, 0, 81, 54
3, 163151, Note_off_c, 0, 81, 0
3, 163200, Note_on_c, 0, 78, 54
3, 163415, Note_off_c, 0, 78, 0
3, 163440, Note_on_c, 0, 74, 54
3, 163871, Note_off_c, 0, 74, 0
3, 163920, Note_on_c, 0, 78, 54
3, 164135, Note_off_c, 0, 78, 0
3, 164160, Note_on_c, 0, 79, 54
3, 164245, Note_off_c, 0, 79, 0
3, 164255, Note_on_c, 0, 81, 54
3, 164341, Note_off_c, 0, 81, 0
3, 164351, Note_on_c, 0, 79, 54
3, 164437, Note_off_c, 0, 79, 0
3, 164446, Note_on_c, 0, 78, 54
3, 164532, Note_off_c, 0, 78, 0
3, 164542, Note_on_c, 0, 79, 54
3, 164628, Note_off_c, 0, 79, 0
3, 164638, Note_on_c, 0, 82, 54
3, 164853, Note_off_c, 0, 82, 0
3, 164878, Note_on_c, 0, 79, 54
3, 164963, Note_off_c, 0, 79, 0
3, 164973, Note_on_c, 0, 81, 54
3, 165059, Note_off_c, 0, 81, 0
3, 165069, Note_on_c, 0, 79, 54
3, 165155, Note_off_c, 0, 79, 0
3, 165165, Note_on_c, 0, 78, 54
3, 165250, Note_off_c, 0, 78, 0
3, 165260, Note_on_c, 0, 79, 54
3, 165346, Note_off_c, 0, 79, 0
3, 165356, Note_on_c, 0, 82, 54
3, 165571, Note_off_c, 0, 82, 0
3, 165600, Note_on_c, 0, 79, 54
3, 165685, Note_off_c, 0, 79, 0
3, 165695, Note_on_c, 0, 81, 54
3, 165781, Note_off_c, 0, 81, 0
3, 165791, Note_on_c, 0, 79, 54
3, 165877, Note_off_c, 0, 79, 0
3, 165886, Note_on_c, 0, 78, 54
3, 165972, Note_off_c, 0, 78, 0
3, 165982, Note_on_c, 0, 79, 54
3, 166068, Note_off_c, 0, 79, 0
3, 166078, Note_on_c, 0, 82, 54
3, 166293, Note_off_c, 0, 82, 0
3, 166318, Note_on_c, 0, 72, 54
3, 166425, Note_off_c, 0, 72, 0
3, 166558, Note_on_c, 0, 74, 54
3, 166665, Note_off_c, 0, 74, 0
3, 166798, Note_on_c, 0, 76, 54
3, 166905, Note_off_c, 0, 76, 0
3, 167040, Note_on_c, 0, 77, 54
3, 167125, Note_off_c, 0, 77, 0
3, 167135, Note_on_c, 0, 79, 54
3, 167221, Note_off_c, 0, 79, 0
3, 167231, Note_on_c, 0, 77, 54
3, 167317, Note_off_c, 0, 77, 0
3, 167326, Note_on_c, 0, 76, 54
3, 167412, Note_off_c, 0, 76, 0
3, 167422, Note_on_c, 0, 77, 54
3, 167508, Note_off_c, 0, 77, 0
3, 167518, Note_on_c, 0, 81, 54
3, 167733, Note_off_c, 0, 81, 0
3, 167758, Note_on_c, 0, 72, 54
3, 167865, Note_off_c, 0, 72, 0
3, 167998, Note_on_c, 0, 74, 54
3, 168105, Note_off_c, 0, 74, 0
3, 168238, Note_on_c, 0, 76, 54
3, 168345, Note_off_c, 0, 76, 0
3, 168480, Note_on_c, 0, 77, 54
3, 168565, Note_off_c, 0, 77, 0
3, 168575, Note_on_c, 0, 79, 54
3, 168661, Note_off_c, 0, 79, 0
3, 168671, Note_on_c, 0, 77, 54
3, 168757, Note_off_c, 0, 77, 0
3, 168766, Note_on_c, 0, 76, 54
3, 168852, Note_off_c, 0, 76, 0
3, 168862, Note_on_c, 0, 77, 54
3, 168948, Note_off_c, 0, 77, 0
3, 168958, Note_on_c, 0, 81, 54
3, 169173, Note_off_c, 0, 81, 0
3, 169198, Note_on_c, 0, 72, 54
3, 169305, Note_off_c, 0, 72, 0
3, 169438, Note_on_c, 0, 74, 54
3, 169545, Note_off_c, 0, 74, 0
3, 169678, Note_on_c, 0, 76, 54
3, 169785, Note_off_c, 0, 76, 0
3, 169920, Note_on_c, 0, 77, 54
3, 170005, Note_off_c, 0, 77, 0
3, 170015, Note_on_c, 0, 79, 54
3, 170101, Note_off_c, 0, 79, 0
3, 170111, Note_on_c, 0, 77, 54
3, 170197, Note_off_c, 0, 77, 0
3, 170206, Note_on_c, 0, 76, 54
3, 170292, Note_off_c, 0, 76, 0
3, 170302, Note_on_c, 0, 77, 54
3, 170388, Note_off_c, 0, 77, 0
3, 170398, Note_on_c, 0, 81, 54
3, 170613, Note_off_c, 0, 81, 0
3, 170638, Note_on_c, 0, 77, 54
3, 170723, Note_off_c, 0, 77, 0
3, 170733, Note_on_c, 0, 79, 54
3, 170819, Note_off_c, 0, 79, 0
3, 170829, Note_on_c, 0, 77, 54
3, 170915, Note_off_c, 0, 77, 0
3, 170925, Note_on_c, 0, 76, 54
3, 171010, Note_off_c, 0, 76, 0
3, 171020, Note_on_c, 0, 77, 54
3, 171106, Note_off_c, 0, 77, 0
3, 171116, Note_on_c, 0, 84, 54
3, 171331, Note_off_c, 0, 84, 0
3, 171360, Note_on_c, 0, 77, 54
3, 171445, Note_off_c, 0, 77, 0
3, 171455, Note_on_c, 0, 79, 54
3, 171541, Note_off_c, 0, 79, 0
3, 171551, Note_on_c, 0, 77, 54
3, 171637, Note_off_c, 0, 77, 0
3, 171646, Note_on_c, 0, 76, 54
3, 171732, Note_off_c, 0, 76, 0
3, 171742, Note_on_c, 0, 77, 54
3, 171828, Note_off_c, 0, 77, 0
3, 171838, Note_on_c, 0, 81, 54
3, 172053, Note_off_c, 0, 81, 0
3, 172078, Note_on_c, 0, 77, 54
3, 172163, Note_off_c, 0, 77, 0
3, 172173, Note_on_c, 0, 79, 54
3, 172259, Note_off_c, 0, 79, 0
3, 172269, Note_on_c, 0, 77, 54
3, 172355, Note_off_c, 0, 77, 0
3, 172365, Note_on_c, 0, 76, 54
3, 172450, Note_off_c, 0, 76, 0
3, 172460, Note_on_c, 0, 77, 54
3, 172546, Note_off_c, 0, 77, 0
3, 172556, Note_on_c, 0, 84, 54
3, 172771, Note_off_c, 0, 84, 0
3, 172800, Note_on_c, 0, 81, 79
3, 172907, Note_off_c, 0, 81, 0
3, 173040, Note_on_c, 0, 87, 79
3, 173255, Note_off_c, 0, 87, 0
3, 173280, Note_on_c, 0, 84, 79
3, 173495, Note_off_c, 0, 84, 0
3, 173520, Note_on_c, 0, 81, 79
3, 173735, Note_off_c, 0, 81, 0
3, 173760, Note_on_c, 0, 77, 79
3, 173867, Note_off_c, 0, 77, 0
3, 174000, Note_on_c, 0, 76, 79
3, 174107, Note_off_c, 0, 76, 0
3, 174240, Note_on_c, 0, 75, 79
3, 174455, Note_off_c, 0, 75, 0
3, 174480, Note_on_c, 0, 72, 79
3, 174695, Note_off_c, 0, 72, 0
3, 174720, Note_on_c, 0, 69, 79
3, 174827, Note_off_c, 0, 69, 0
3, 174960, Note_on_c, 0, 65, 79
3, 175175, Note_off_c, 0, 65, 0
3, 175200, Note_on_c, 0, 64, 79
3, 175307, Note_off_c, 0, 64, 0
3, 175440, Note_on_c, 0, 63, 79
3, 175547, Note_off_c, 0, 63, 0
3, 175680, Note_on_c, 0, 62, 64
3, 175787, Note_off_c, 0, 62, 0
3, 175920, Note_on_c, 0, 58, 64
3, 176135, Note_off_c, 0, 58, 0
3, 176160, Note_on_c, 0, 65, 64
3, 176375, Note_off_c, 0, 65, 0
3, 176400, Note_on_c, 0, 65, 64
3, 176507, Note_off_c, 0, 65, 0
3, 176640, Note_on_c, 0, 62, 64
3, 176855, Note_off_c, 0, 62, 0
3, 176880, Note_on_c, 0, 70, 64
3, 177095, Note_off_c, 0, 70, 0
3, 177120, Note_on_c, 0, 70, 64
3, 177227, Note_off_c, 0, 70, 0
3, 177360, Note_on_c, 0, 65, 64
3, 177575, Note_off_c, 0, 65, 0
3, 177600, Note_on_c, 0, 74, 64
3, 177815, Note_off_c, 0, 74, 0
3, 177840, Note_on_c, 0, 77, 64
3, 178271, Note_off_c, 0, 77, 0
3, 178320, Note_on_c, 0, 75, 64
3, 178320, Note_on_c, 0, 72, 64
3, 178535, Note_off_c, 0, 72, 0
3, 178535, Note_off_c, 0, 75, 0
3, 178560, Note_on_c, 0, 74, 84
3, 178560, Note_on_c, 0, 70, 84
3, 178775, Note_off_c, 0, 70, 0
3, 178775, Note_off_c, 0, 74, 0
3, 178800, Note_on_c, 0, 75, 84
3, 178800, Note_on_c, 0, 72, 84
3, 178907, Note_off_c, 0, 72, 0
3, 178907, Note_off_c, 0, 75, 0
3, 179040, Note_on_c, 0, 77, 84
3, 179040, Note_on_c, 0, 74, 84
3, 179147, Note_off_c, 0, 74, 0
3, 179147, Note_off_c, 0, 77, 0
3, 179280, Note_on_c, 0, 79, 84
3, 179280, Note_on_c, 0, 75, 84
3, 179495, Note_off_c, 0, 75, 0
3, 179495, Note_off_c, 0, 79, 0
3, 179520, Note_on_c, 0, 75, 84
3, 179520, Note_on_c, 0, 72, 84
3, 179735, Note_off_c, 0, 72, 0
3, 179735, Note_off_c, 0, 75, 0
3, 179760, Note_on_c, 0, 74, 84
3, 179760, Note_on_c, 0, 70, 84
3, 179867, Note_off_c, 0, 70, 0
3, 179867, Note_off_c, 0, 74, 0
3, 180000, Note_on_c, 0, 72, 84
3, 180000, Note_on_c, 0, 69, 84
3, 180107, Note_off_c, 0, 69, 0
3, 180107, Note_off_c, 0, 72, 0
3, 180240, Note_on_c, 0, 72, 84
3, 180240, Note_on_c, 0, 69, 84
3, 180347, Note_off_c, 0, 69, 0
3, 180347, Note_off_c, 0, 72, 0
3, 180480, Note_on_c, 0, 75, 84
3, 180480, Note_on_c, 0, 72, 84
3, 180587, Note_off_c, 0, 72, 0
3, 180587, Note_off_c, 0, 75, 0
3, 180600, Note_on_c, 0, 74, 84
3, 180600, Note_on_c, 0, 70, 84
3, 180707, Note_off_c, 0, 70, 0
3, 180707, Note_off_c, 0, 74, 0
3, 180720, Note_on_c, 0, 72, 84
3, 180720, Note_on_c, 0, 69, 84
3, 181151, Note_off_c, 0, 69, 0
3, 181151, Note_off_c, 0, 72, 0
3, 181200, Note_on_c, 0, 65, 64
3, 181307, Note_off_c, 0, 65, 0
3, 181440, Note_on_c, 0, 67, 84
3, 181493, Note_off_c, 0, 67, 0
3, 181500, Note_on_c, 0, 65, 84
3, 181580, Note_off_c, 0, 65, 0
3, 181680, Note_on_c, 0, 62, 64
3, 181895, Note_off_c, 0, 62, 0
3, 181920, Note_on_c, 0, 70, 84
3, 182135, Note_off_c, 0, 70, 0
3, 182160, Note_on_c, 0, 72, 84
3, 182213, Note_off_c, 0, 72, 0
3, 182220, Note_on_c, 0, 70, 84
3, 182300, Note_off_c, 0, 70, 0
3, 182400, Note_on_c, 0, 65, 64
3, 182615, Note_off_c, 0, 65, 0
3, 182640, Note_on_c, 0, 74, 64
3, 182855, Note_off_c, 0, 74, 0
3, 182880, Note_on_c, 0, 75, 84
3, 182933, Note_off_c, 0, 75, 0
3, 182940, Note_on_c, 0, 74, 84
3, 183020, Note_off_c, 0, 74, 0
3, 183120, Note_on_c, 0, 70, 64
3, 183335, Note_off_c, 0, 70, 0
3, 183360, Note_on_c, 0, 77, 84
3, 183575, Note_off_c, 0, 77, 0
3, 183600, Note_on_c, 0, 77, 84
3, 183600, Note_on_c, 0, 74, 84
3, 183600, Note_on_c, 0, 70, 84
3, 183707, Note_off_c, 0, 70, 0
3, 183707, Note_off_c, 0, 74, 0
3, 183707, Note_off_c, 0, 77, 0
3, 184080, Note_on_c, 0, 79, 64
3, 184080, Note_on_c, 0, 75, 64
3, 184295, Note_off_c, 0, 75, 0
3, 184295, Note_off_c, 0, 79, 0
3, 184320, Note_on_c, 0, 77, 89
3, 184320, Note_on_c, 0, 74, 89
3, 184535, Note_off_c, 0, 74, 0
3, 184535, Note_off_c, 0, 77, 0
3, 184560, Note_on_c, 0, 75, 89
3, 184560, Note_on_c, 0, 72, 89
3, 184667, Note_off_c, 0, 72, 0
3, 184667, Note_off_c, 0, 75, 0
3, 184800, Note_on_c, 0, 74, 89
3, 184800, Note_on_c, 0, 70, 89
3, 184907, Note_off_c, 0, 70, 0
3, 184907, Note_off_c, 0, 74, 0
3, 185040, Note_on_c, 0, 72, 89
3, 185040, Note_on_c, 0, 63, 89
3, 185147, Note_off_c, 0, 63, 0
3, 185147, Note_off_c, 0, 72, 0
3, 185280, Note_on_c, 0, 70, 89
3, 185280, Note_on_c, 0, 62, 89
3, 185387, Note_off_c, 0, 62, 0
3, 185387, Note_off_c, 0, 70, 0
3, 185520, Note_on_c, 0, 69, 89
3, 185520, Note_on_c, 0, 60, 89
3, 185627, Note_off_c, 0, 60, 0
3, 185627, Note_off_c, 0, 69, 0
3, 185760, Note_on_c, 0, 70, 89
3, 185760, Note_on_c, 0, 62, 89
3, 186191, Note_off_c, 0, 62, 0
3, 186191, Note_off_c, 0, 70, 0
3, 186960, Note_on_c, 0, 82, 64
3, 187175, Note_off_c, 0, 82, 0
3, 187200, Note_on_c, 0, 82, 64
3, 187226, Note_off_c, 0, 82, 0
3, 187230, Note_on_c, 0, 84, 64
3, 187256, Note_off_c, 0, 84, 0
3, 187260, Note_on_c, 0, 86, 64
3, 187421, Note_off_c, 0, 86, 0
3, 187440, Note_on_c, 0, 84, 64
3, 187655, Note_off_c, 0, 84, 0
3, 187680, Note_on_c, 0, 82, 64
3, 187895, Note_off_c, 0, 82, 0
3, 187920, Note_on_c, 0, 84, 64
3, 187973, Note_off_c, 0, 84, 0
3, 187980, Note_on_c, 0, 82, 64
3, 188141, Note_off_c, 0, 82, 0
3, 188160, Note_on_c, 0, 81, 64
3, 188375, Note_off_c, 0, 81, 0
3, 188400, Note_on_c, 0, 79, 64
3, 188615, Note_off_c, 0, 79, 0
3, 188640, Note_on_c, 0, 77, 64
3, 188747, Note_off_c, 0, 77, 0
3, 188760, Note_on_c, 0, 75, 64
3, 188867, Note_off_c, 0, 75, 0
3, 188880, Note_on_c, 0, 74, 64
3, 188987, Note_off_c, 0, 74, 0
3, 189000, Note_on_c, 0, 75, 64
3, 189107, Note_off_c, 0, 75, 0
3, 189120, Note_on_c, 0, 77, 64
3, 189173, Note_off_c, 0, 77, 0
3, 189180, Note_on_c, 0, 79, 64
3, 189233, Note_off_c, 0, 79, 0
3, 189240, Note_on_c, 0, 81, 64
3, 189293, Note_off_c, 0, 81, 0
3, 189300, Note_on_c, 0, 82, 64
3, 189353, Note_off_c, 0, 82, 0
3, 189360, Note_on_c, 0, 84, 64
3, 189467, Note_off_c, 0, 84, 0
3, 189480, Note_on_c, 0, 82, 64
3, 189587, Note_off_c, 0, 82, 0
3, 189600, Note_on_c, 0, 81, 64
3, 189707, Note_off_c, 0, 81, 0
3, 189720, Note_on_c, 0, 82, 64
3, 189827, Note_off_c, 0, 82, 0
3, 189840, Note_on_c, 0, 84, 64
3, 189947, Note_off_c, 0, 84, 0
3, 189960, Note_on_c, 0, 86, 64
3, 190067, Note_off_c, 0, 86, 0
3, 190080, Note_on_c, 0, 87, 64
3, 190106, Note_off_c, 0, 87, 0
3, 190110, Note_on_c, 0, 89, 64
3, 190136, Note_off_c, 0, 89, 0
3, 190140, Note_on_c, 0, 91, 64
3, 190301, Note_off_c, 0, 91, 0
3, 190320, Note_on_c, 0, 89, 64
3, 190535, Note_off_c, 0, 89, 0
3, 190560, Note_on_c, 0, 87, 64
3, 190667, Note_off_c, 0, 87, 0
3, 190800, Note_on_c, 0, 86, 64
3, 190853, Note_off_c, 0, 86, 0
3, 190860, Note_on_c, 0, 84, 64
3, 190940, Note_off_c, 0, 84, 0
3, 191040, Note_on_c, 0, 82, 64
3, 191147, Note_off_c, 0, 82, 0
3, 191280, Note_on_c, 0, 81, 64
3, 191387, Note_off_c, 0, 81, 0
3, 191520, Note_on_c, 0, 82, 64
3, 192166, Note_off_c, 0, 82, 0
3, 192240, Note_on_c, 0, 86, 64
3, 192671, Note_off_c, 0, 86, 0
3, 192720, Note_on_c, 0, 79, 64
3, 192827, Note_off_c, 0, 79, 0
3, 192960, Note_on_c, 0, 82, 64
3, 192986, Note_off_c, 0, 82, 0
3, 192990, Note_on_c, 0, 84, 64
3, 193016, Note_off_c, 0, 84, 0
3, 193020, Note_on_c, 0, 86, 64
3, 193181, Note_off_c, 0, 86, 0
3, 193200, Note_on_c, 0, 84, 64
3, 193415, Note_off_c, 0, 84, 0
3, 193440, Note_on_c, 0, 82, 64
3, 193547, Note_off_c, 0, 82, 0
3, 193680, Note_on_c, 0, 84, 64
3, 193733, Note_off_c, 0, 84, 0
3, 193740, Note_on_c, 0, 82, 64
3, 193901, Note_off_c, 0, 82, 0
3, 193920, Note_on_c, 0, 81, 64
3, 194135, Note_off_c, 0, 81, 0
3, 194160, Note_on_c, 0, 79, 64
3, 194267, Note_off_c, 0, 79, 0
3, 194400, Note_on_c, 0, 77, 64
3, 194615, Note_off_c, 0, 77, 0
3, 194640, Note_on_c, 0, 75, 64
3, 194855, Note_off_c, 0, 75, 0
3, 194880, Note_on_c, 0, 74, 64
3, 195095, Note_off_c, 0, 74, 0
3, 195120, Note_on_c, 0, 72, 64
3, 195335, Note_off_c, 0, 72, 0
3, 195360, Note_on_c, 0, 70, 64
3, 195575, Note_off_c, 0, 70, 0
3, 195600, Note_on_c, 0, 69, 64
3, 195815, Note_off_c, 0, 69, 0
3, 195840, Note_on_c, 0, 67, 64
3, 196055, Note_off_c, 0, 67, 0
3, 196080, Note_on_c, 0, 69, 64
3, 196295, Note_off_c, 0, 69, 0
3, 196320, Note_on_c, 0, 70, 64
3, 196535, Note_off_c, 0, 70, 0
3, 196560, Note_on_c, 0, 70, 64
3, 196613, Note_off_c, 0, 70, 0
3, 196620, Note_on_c, 0, 69, 64
3, 196781, Note_off_c, 0, 69, 0
3, 196800, Note_on_c, 0, 67, 64
3, 197015, Note_off_c, 0, 67, 0
3, 197040, Note_on_c, 0, 66, 64
3, 197255, Note_off_c, 0, 66, 0
3, 197280, Note_on_c, 0, 67, 64
3, 197926, Note_off_c, 0, 67, 0
3, 198480, Note_on_c, 0, 86, 64
3, 198695, Note_off_c, 0, 86, 0
3, 198720, Note_on_c, 0, 86, 64
3, 198935, Note_off_c, 0, 86, 0
3, 198960, Note_on_c, 0, 78, 64
3, 199175, Note_off_c, 0, 78, 0
3, 199200, Note_on_c, 0, 78, 64
3, 199307, Note_off_c, 0, 78, 0
3, 199440, Note_on_c, 0, 81, 64
3, 199493, Note_off_c, 0, 81, 0
3, 199500, Note_on_c, 0, 79, 64
3, 199580, Note_off_c, 0, 79, 0
3, 199680, Note_on_c, 0, 78, 64
3, 199787, Note_off_c, 0, 78, 0
3, 199920, Note_on_c, 0, 79, 64
3, 200027, Note_off_c, 0, 79, 0
3, 200160, Note_on_c, 0, 80, 64
3, 200806, Note_off_c, 0, 80, 0
3, 200880, Note_on_c, 0, 81, 64
3, 201311, Note_off_c, 0, 81, 0
3, 201360, Note_on_c, 0, 86, 64
3, 201575, Note_off_c, 0, 86, 0
3, 201600, Note_on_c, 0, 86, 64
3, 201815, Note_off_c, 0, 86, 0
3, 201840, Note_on_c, 0, 79, 64
3, 202055, Note_off_c, 0, 79, 0
3, 202080, Note_on_c, 0, 79, 64
3, 202187, Note_off_c, 0, 79, 0
3, 202320, Note_on_c, 0, 82, 64
3, 202373, Note_off_c, 0, 82, 0
3, 202380, Note_on_c, 0, 81, 64
3, 202460, Note_off_c, 0, 81, 0
3, 202560, Note_on_c, 0, 79, 64
3, 202667, Note_off_c, 0, 79, 0
3, 202800, Note_on_c, 0, 81, 64
3, 202907, Note_off_c, 0, 81, 0
3, 203040, Note_on_c, 0, 81, 64
3, 203686, Note_off_c, 0, 81, 0
3, 203760, Note_on_c, 0, 82, 64
3, 204191, Note_off_c, 0, 82, 0
3, 204240, Note_on_c, 0, 86, 64
3, 204455, Note_off_c, 0, 86, 0
3, 204480, Note_on_c, 0, 87, 64
3, 204695, Note_off_c, 0, 87, 0
3, 204720, Note_on_c, 0, 78, 64
3, 204935, Note_off_c, 0, 78, 0
3, 204960, Note_on_c, 0, 78, 64
3, 205067, Note_off_c, 0, 78, 0
3, 205200, Note_on_c, 0, 78, 64
3, 205631, Note_off_c, 0, 78, 0
3, 205680, Note_on_c, 0, 87, 64
3, 205895, Note_off_c, 0, 87, 0
3, 205920, Note_on_c, 0, 86, 64
3, 206135, Note_off_c, 0, 86, 0
3, 206160, Note_on_c, 0, 79, 64
3, 206375, Note_off_c, 0, 79, 0
3, 206400, Note_on_c, 0, 79, 64
3, 206507, Note_off_c, 0, 79, 0
3, 206640, Note_on_c, 0, 79, 64
3, 207071, Note_off_c, 0, 79, 0
3, 207120, Note_on_c, 0, 86, 64
3, 207227, Note_off_c, 0, 86, 0
3, 207360, Note_on_c, 0, 89, 64
3, 207575, Note_off_c, 0, 89, 0
3, 207600, Note_on_c, 0, 87, 64
3, 207815, Note_off_c, 0, 87, 0
3, 207840, Note_on_c, 0, 86, 64
3, 208055, Note_off_c, 0, 86, 0
3, 208080, Note_on_c, 0, 82, 64
3, 208133, Note_off_c, 0, 82, 0
3, 208140, Note_on_c, 0, 81, 64
3, 208301, Note_off_c, 0, 81, 0
3, 208320, Note_on_c, 0, 79, 64
3, 208427, Note_off_c, 0, 79, 0
3, 208560, Note_on_c, 0, 78, 64
3, 208667, Note_off_c, 0, 78, 0
3, 208800, Note_on_c, 0, 79, 64
3, 209015, Note_off_c, 0, 79, 0
3, 209040, Note_on_c, 0, 73, 64
3, 209147, Note_off_c, 0, 73, 0
3, 209280, Note_on_c, 0, 73, 64
3, 209387, Note_off_c, 0, 73, 0
3, 209520, Note_on_c, 0, 73, 64
3, 210960, Note_on_c, 0, 73, 64
3, 211175, Note_off_c, 0, 73, 0
3, 211200, Note_on_c, 0, 73, 64
3, 211307, Note_off_c, 0, 73, 0
3, 211440, Note_on_c, 0, 73, 64
3, 211547, Note_off_c, 0, 73, 0
3, 211680, Note_on_c, 0, 74, 64
3, 212326, Note_off_c, 0, 74, 0
3, 212400, Note_on_c, 0, 79, 49
3, 212615, Note_off_c, 0, 79, 0
3, 212640, Note_on_c, 0, 83, 49
3, 212747, Note_off_c, 0, 83, 0
3, 212880, Note_on_c, 0, 85, 49
3, 212987, Note_off_c, 0, 85, 0
3, 213120, Note_on_c, 0, 86, 49
3, 213335, Note_off_c, 0, 86, 0
3, 213360, Note_on_c, 0, 88, 49
3, 213575, Note_off_c, 0, 88, 0
3, 213600, Note_on_c, 0, 86, 49
3, 213707, Note_off_c, 0, 86, 0
3, 213840, Note_on_c, 0, 84, 49
3, 213947, Note_off_c, 0, 84, 0
3, 214080, Note_on_c, 0, 83, 49
3, 214187, Note_off_c, 0, 83, 0
3, 214320, Note_on_c, 0, 81, 49
3, 214427, Note_off_c, 0, 81, 0
3, 214560, Note_on_c, 0, 83, 82
3, 214667, Note_off_c, 0, 83, 0
3, 214680, Note_on_c, 0, 86, 82
3, 214787, Note_off_c, 0, 86, 0
3, 214800, Note_on_c, 0, 84, 82
3, 214907, Note_off_c, 0, 84, 0
3, 214920, Note_on_c, 0, 83, 82
3, 215027, Note_off_c, 0, 83, 0
3, 215040, Note_on_c, 0, 81, 82
3, 215147, Note_off_c, 0, 81, 0
3, 215160, Note_on_c, 0, 79, 82
3, 215267, Note_off_c, 0, 79, 0
3, 215280, Note_on_c, 0, 78, 82
3, 215387, Note_off_c, 0, 78, 0
3, 215400, Note_on_c, 0, 76, 82
3, 215507, Note_off_c, 0, 76, 0
3, 215520, Note_on_c, 0, 74, 82
3, 215627, Note_off_c, 0, 74, 0
3, 215640, Note_on_c, 0, 72, 82
3, 215747, Note_off_c, 0, 72, 0
3, 215760, Note_on_c, 0, 71, 82
3, 215867, Note_off_c, 0, 71, 0
3, 215880, Note_on_c, 0, 69, 82
3, 215987, Note_off_c, 0, 69, 0
3, 216000, Note_on_c, 0, 67, 82
3, 216107, Note_off_c, 0, 67, 0
3, 216120, Note_on_c, 0, 66, 82
3, 216227, Note_off_c, 0, 66, 0
3, 216240, Note_on_c, 0, 67, 82
3, 216347, Note_off_c, 0, 67, 0
3, 216360, Note_on_c, 0, 69, 82
3, 216467, Note_off_c, 0, 69, 0
3, 216480, Note_on_c, 0, 71, 82
3, 216587, Note_off_c, 0, 71, 0
3, 216600, Note_on_c, 0, 72, 82
3, 216707, Note_off_c, 0, 72, 0
3, 216720, Note_on_c, 0, 74, 82
3, 216827, Note_off_c, 0, 74, 0
3, 216840, Note_on_c, 0, 76, 82
3, 216947, Note_off_c, 0, 76, 0
3, 216960, Note_on_c, 0, 78, 82
3, 217067, Note_off_c, 0, 78, 0
3, 217080, Note_on_c, 0, 79, 82
3, 217187, Note_off_c, 0, 79, 0
3, 217200, Note_on_c, 0, 81, 82
3, 217307, Note_off_c, 0, 81, 0
3, 217320, Note_on_c, 0, 83, 82
3, 217427, Note_off_c, 0, 83, 0
3, 217440, Note_on_c, 0, 84, 82
3, 217547, Note_off_c, 0, 84, 0
3, 217560, Note_on_c, 0, 86, 82
3, 217667, Note_off_c, 0, 86, 0
3, 217680, Note_on_c, 0, 84, 82
3, 217787, Note_off_c, 0, 84, 0
3, 217800, Note_on_c, 0, 83, 82
3, 217907, Note_off_c, 0, 83, 0
3, 217920, Note_on_c, 0, 84, 82
3, 218027, Note_off_c, 0, 84, 0
3, 218040, Note_on_c, 0, 81, 82
3, 218147, Note_off_c, 0, 81, 0
3, 218160, Note_on_c, 0, 83, 82
3, 218267, Note_off_c, 0, 83, 0
3, 218280, Note_on_c, 0, 84, 82
3, 218387, Note_off_c, 0, 84, 0
3, 218400, Note_on_c, 0, 83, 82
3, 218507, Note_off_c, 0, 83, 0
3, 218520, Note_on_c, 0, 81, 82
3, 218627, Note_off_c, 0, 81, 0
3, 218640, Note_on_c, 0, 83, 82
3, 218747, Note_off_c, 0, 83, 0
3, 218760, Note_on_c, 0, 79, 82
3, 218867, Note_off_c, 0, 79, 0
3, 218880, Note_on_c, 0, 86, 82
3, 218987, Note_off_c, 0, 86, 0
3, 219000, Note_on_c, 0, 81, 82
3, 219107, Note_off_c, 0, 81, 0
3, 219120, Note_on_c, 0, 78, 82
3, 219227, Note_off_c, 0, 78, 0
3, 219240, Note_on_c, 0, 74, 82
3, 219347, Note_off_c, 0, 74, 0
3, 219360, Note_on_c, 0, 69, 82
3, 219467, Note_off_c, 0, 69, 0
3, 219480, Note_on_c, 0, 66, 82
3, 219587, Note_off_c, 0, 66, 0
3, 219600, Note_on_c, 0, 62, 82
3, 220031, Note_off_c, 0, 62, 0
3, 220080, Note_on_c, 0, 86, 82
3, 220187, Note_off_c, 0, 86, 0
3, 220200, Note_on_c, 0, 84, 82
3, 220307, Note_off_c, 0, 84, 0
3, 220320, Note_on_c, 0, 83, 82
3, 220427, Note_off_c, 0, 83, 0
3, 220440, Note_on_c, 0, 86, 82
3, 220547, Note_off_c, 0, 86, 0
3, 220560, Note_on_c, 0, 84, 82
3, 220667, Note_off_c, 0, 84, 0
3, 220680, Note_on_c, 0, 83, 82
3, 220787, Note_off_c, 0, 83, 0
3, 220800, Note_on_c, 0, 81, 82
3, 220907, Note_off_c, 0, 81, 0
3, 220920, Note_on_c, 0, 79, 82
3, 221027, Note_off_c, 0, 79, 0
3, 221040, Note_on_c, 0, 78, 82
3, 221147, Note_off_c, 0, 78, 0
3, 221160, Note_on_c, 0, 76, 82
3, 221267, Note_off_c, 0, 76, 0
3, 221280, Note_on_c, 0, 74, 82
3, 221387, Note_off_c, 0, 74, 0
3, 221400, Note_on_c, 0, 72, 82
3, 221507, Note_off_c, 0, 72, 0
3, 221520, Note_on_c, 0, 71, 82
3, 221627, Note_off_c, 0, 71, 0
3, 221640, Note_on_c, 0, 69, 82
3, 221747, Note_off_c, 0, 69, 0
3, 221760, Note_on_c, 0, 71, 82
3, 221867, Note_off_c, 0, 71, 0
3, 221880, Note_on_c, 0, 74, 82
3, 221987, Note_off_c, 0, 74, 0
3, 222000, Note_on_c, 0, 72, 82
3, 222107, Note_off_c, 0, 72, 0
3, 222120, Note_on_c, 0, 71, 82
3, 222227, Note_off_c, 0, 71, 0
3, 222240, Note_on_c, 0, 69, 82
3, 222347, Note_off_c, 0, 69, 0
3, 222360, Note_on_c, 0, 67, 82
3, 222467, Note_off_c, 0, 67, 0
3, 222480, Note_on_c, 0, 66, 82
3, 222587, Note_off_c, 0, 66, 0
3, 222600, Note_on_c, 0, 64, 82
3, 222707, Note_off_c, 0, 64, 0
3, 222720, Note_on_c, 0, 62, 82
3, 222827, Note_off_c, 0, 62, 0
3, 222840, Note_on_c, 0, 60, 82
3, 222947, Note_off_c, 0, 60, 0
3, 222960, Note_on_c, 0, 59, 82
3, 223067, Note_off_c, 0, 59, 0
3, 223080, Note_on_c, 0, 57, 82
3, 223187, Note_off_c, 0, 57, 0
3, 223200, Note_on_c, 0, 55, 82
3, 223307, Note_off_c, 0, 55, 0
3, 223440, Note_on_c, 0, 59, 82
3, 223547, Note_off_c, 0, 59, 0
3, 223680, Note_on_c, 0, 62, 82
3, 223787, Note_off_c, 0, 62, 0
3, 223920, Note_on_c, 0, 67, 82
3, 223920, Note_on_c, 0, 59, 82
3, 224027, Note_off_c, 0, 59, 0
3, 224027, Note_off_c, 0, 67, 0
3, 224160, Note_on_c, 0, 69, 82
3, 224160, Note_on_c, 0, 60, 82
3, 224267, Note_off_c, 0, 60, 0
3, 224267, Note_off_c, 0, 69, 0
3, 224400, Note_on_c, 0, 66, 82
3, 224400, Note_on_c, 0, 57, 82
3, 224507, Note_off_c, 0, 57, 0
3, 224507, Note_off_c, 0, 66, 0
3, 224640, Note_on_c, 0, 67, 82
3, 224640, Note_on_c, 0, 59, 82
3, 225286, Note_off_c, 0, 59, 0
3, 225286, Note_off_c, 0, 67, 0
3, 225840, Note_on_c, 0, 75, 64
3, 226055, Note_off_c, 0, 75, 0
3, 226080, Note_on_c, 0, 66, 64
3, 226080, Note_on_c, 0, 69, 64
3, 226080, Note_on_c, 0, 75, 64
3, 226295, Note_off_c, 0, 75, 0
3, 226320, Note_on_c, 0, 74, 64
3, 226535, Note_off_c, 0, 74, 0
3, 226560, Note_on_c, 0, 72, 64
3, 226667, Note_off_c, 0, 72, 0
3, 226726, Note_off_c, 0, 69, 0
3, 226726, Note_off_c, 0, 66, 0
3, 226800, Note_on_c, 0, 69, 64
3, 226800, Note_on_c, 0, 66, 64
3, 226800, Note_on_c, 0, 72, 64
3, 227015, Note_off_c, 0, 72, 0
3, 227040, Note_on_c, 0, 74, 64
3, 227255, Note_off_c, 0, 74, 0
3, 227280, Note_on_c, 0, 75, 64
3, 227387, Note_off_c, 0, 75, 0
3, 227446, Note_off_c, 0, 66, 0
3, 227446, Note_off_c, 0, 69, 0
3, 227520, Note_on_c, 0, 69, 64
3, 227520, Note_on_c, 0, 66, 64
3, 227520, Note_on_c, 0, 75, 64
3, 227735, Note_off_c, 0, 75, 0
3, 227760, Note_on_c, 0, 74, 64
3, 227975, Note_off_c, 0, 74, 0
3, 228000, Note_on_c, 0, 72, 64
3, 228107, Note_off_c, 0, 72, 0
3, 228166, Note_off_c, 0, 66, 0
3, 228166, Note_off_c, 0, 69, 0
3, 228240, Note_on_c, 0, 69, 64
3, 228240, Note_on_c, 0, 66, 64
3, 228240, Note_on_c, 0, 72, 64
3, 228886, Note_off_c, 0, 72, 0
3, 228886, Note_off_c, 0, 66, 0
3, 228886, Note_off_c, 0, 69, 0
3, 228960, Note_on_c, 0, 70, 64
3, 229067, Note_off_c, 0, 70, 0
3, 229080, Note_on_c, 0, 69, 64
3, 229187, Note_off_c, 0, 69, 0
3, 229200, Note_on_c, 0, 70, 64
3, 229307, Note_off_c, 0, 70, 0
3, 229320, Note_on_c, 0, 69, 64
3, 229427, Note_off_c, 0, 69, 0
3, 229440, Note_on_c, 0, 70, 64
3, 229547, Note_off_c, 0, 70, 0
3, 229560, Note_on_c, 0, 69, 64
3, 229667, Note_off_c, 0, 69, 0
3, 229680, Note_on_c, 0, 70, 64
3, 230111, Note_off_c, 0, 70, 0
3, 230400, Note_on_c, 0, 74, 64
3, 230507, Note_off_c, 0, 74, 0
3, 230520, Note_on_c, 0, 73, 64
3, 230627, Note_off_c, 0, 73, 0
3, 230640, Note_on_c, 0, 74, 64
3, 230747, Note_off_c, 0, 74, 0
3, 230760, Note_on_c, 0, 73, 64
3, 230867, Note_off_c, 0, 73, 0
3, 230880, Note_on_c, 0, 74, 64
3, 230987, Note_off_c, 0, 74, 0
3, 231000, Note_on_c, 0, 73, 64
3, 231107, Note_off_c, 0, 73, 0
3, 231120, Note_on_c, 0, 74, 64
3, 231551, Note_off_c, 0, 74, 0
3, 231840, Note_on_c, 0, 86, 82
3, 231947, Note_off_c, 0, 86, 0
3, 231960, Note_on_c, 0, 85, 82
3, 232067, Note_off_c, 0, 85, 0
3, 232080, Note_on_c, 0, 86, 82
3, 232187, Note_off_c, 0, 86, 0
3, 232200, Note_on_c, 0, 85, 82
3, 232307, Note_off_c, 0, 85, 0
3, 232320, Note_on_c, 0, 86, 82
3, 232427, Note_off_c, 0, 86, 0
3, 232440, Note_on_c, 0, 85, 82
3, 232547, Note_off_c, 0, 85, 0
3, 232560, Note_on_c, 0, 86, 82
3, 232667, Note_off_c, 0, 86, 0
3, 232680, Note_on_c, 0, 85, 82
3, 232787, Note_off_c, 0, 85, 0
3, 232800, Note_on_c, 0, 86, 82
3, 232907, Note_off_c, 0, 86, 0
3, 232920, Note_on_c, 0, 85, 82
3, 233027, Note_off_c, 0, 85, 0
3, 233040, Note_on_c, 0, 86, 82
3, 233147, Note_off_c, 0, 86, 0
3, 233160, Note_on_c, 0, 84, 82
3, 233267, Note_off_c, 0, 84, 0
3, 233280, Note_on_c, 0, 83, 82
3, 233387, Note_off_c, 0, 83, 0
3, 233400, Note_on_c, 0, 86, 82
3, 233507, Note_off_c, 0, 86, 0
3, 233520, Note_on_c, 0, 84, 82
3, 233627, Note_off_c, 0, 84, 0
3, 233640, Note_on_c, 0, 83, 82
3, 233747, Note_off_c, 0, 83, 0
3, 233760, Note_on_c, 0, 81, 82
3, 233867, Note_off_c, 0, 81, 0
3, 233880, Note_on_c, 0, 79, 82
3, 233987, Note_off_c, 0, 79, 0
3, 234000, Note_on_c, 0, 78, 82
3, 234107, Note_off_c, 0, 78, 0
3, 234120, Note_on_c, 0, 76, 82
3, 234227, Note_off_c, 0, 76, 0
3, 234240, Note_on_c, 0, 74, 82
3, 234347, Note_off_c, 0, 74, 0
3, 234360, Note_on_c, 0, 72, 82
3, 234467, Note_off_c, 0, 72, 0
3, 234480, Note_on_c, 0, 71, 82
3, 234587, Note_off_c, 0, 71, 0
3, 234600, Note_on_c, 0, 69, 82
3, 234707, Note_off_c, 0, 69, 0
3, 234720, Note_on_c, 0, 67, 82
3, 234827, Note_off_c, 0, 67, 0
3, 234840, Note_on_c, 0, 66, 82
3, 234947, Note_off_c, 0, 66, 0
3, 234960, Note_on_c, 0, 64, 82
3, 235067, Note_off_c, 0, 64, 0
3, 235080, Note_on_c, 0, 62, 82
3, 235187, Note_off_c, 0, 62, 0
3, 235200, Note_on_c, 0, 60, 82
3, 235307, Note_off_c, 0, 60, 0
3, 235320, Note_on_c, 0, 59, 82
3, 235427, Note_off_c, 0, 59, 0
3, 235440, Note_on_c, 0, 57, 82
3, 235547, Note_off_c, 0, 57, 0
3, 235560, Note_on_c, 0, 55, 82
3, 235667, Note_off_c, 0, 55, 0
3, 235680, Note_on_c, 0, 54, 82
3, 235787, Note_off_c, 0, 54, 0
3, 235800, Note_on_c, 0, 52, 82
3, 235907, Note_off_c, 0, 52, 0
3, 235920, Note_on_c, 0, 50, 82
3, 236027, Note_off_c, 0, 50, 0
3, 236040, Note_on_c, 0, 48, 82
3, 236147, Note_off_c, 0, 48, 0
3, 239040, Note_on_c, 0, 77, 76
3, 239040, Note_on_c, 0, 74, 76
3, 239040, Note_on_c, 0, 71, 76
3, 239147, Note_off_c, 0, 71, 0
3, 239147, Note_off_c, 0, 74, 0
3, 239147, Note_off_c, 0, 77, 0
3, 239280, Note_on_c, 0, 80, 76
3, 239387, Note_off_c, 0, 80, 0
3, 239400, Note_on_c, 0, 79, 76
3, 239507, Note_off_c, 0, 79, 0
3, 239520, Note_on_c, 0, 77, 76
3, 239627, Note_off_c, 0, 77, 0
3, 239640, Note_on_c, 0, 75, 76
3, 239747, Note_off_c, 0, 75, 0
3, 239760, Note_on_c, 0, 74, 76
3, 240191, Note_off_c, 0, 74, 0
3, 240480, Note_on_c, 0, 74, 76
3, 240480, Note_on_c, 0, 71, 76
3, 240480, Note_on_c, 0, 65, 76
3, 240587, Note_off_c, 0, 65, 0
3, 240587, Note_off_c, 0, 71, 0
3, 240587, Note_off_c, 0, 74, 0
3, 240720, Note_on_c, 0, 77, 76
3, 240827, Note_off_c, 0, 77, 0
3, 240840, Note_on_c, 0, 75, 76
3, 240947, Note_off_c, 0, 75, 0
3, 240960, Note_on_c, 0, 74, 76
3, 241067, Note_off_c, 0, 74, 0
3, 241080, Note_on_c, 0, 72, 76
3, 241187, Note_off_c, 0, 72, 0
3, 241200, Note_on_c, 0, 71, 76
3, 241631, Note_off_c, 0, 71, 0
3, 241920, Note_on_c, 0, 75, 76
3, 241920, Note_on_c, 0, 72, 76
3, 241920, Note_on_c, 0, 67, 76
3, 242027, Note_off_c, 0, 67, 0
3, 242027, Note_off_c, 0, 72, 0
3, 242027, Note_off_c, 0, 75, 0
3, 242160, Note_on_c, 0, 79, 76
3, 242267, Note_off_c, 0, 79, 0
3, 242280, Note_on_c, 0, 77, 76
3, 242387, Note_off_c, 0, 77, 0
3, 242400, Note_on_c, 0, 75, 76
3, 242507, Note_off_c, 0, 75, 0
3, 242520, Note_on_c, 0, 74, 76
3, 242627, Note_off_c, 0, 74, 0
3, 242640, Note_on_c, 0, 72, 76
3, 243071, Note_off_c, 0, 72, 0
3, 243360, Note_on_c, 0, 84, 76
3, 243360, Note_on_c, 0, 75, 76
3, 243467, Note_off_c, 0, 75, 0
3, 243467, Note_off_c, 0, 84, 0
3, 243600, Note_on_c, 0, 84, 76
3, 243707, Note_off_c, 0, 84, 0
3, 243720, Note_on_c, 0, 83, 76
3, 243827, Note_off_c, 0, 83, 0
3, 243840, Note_on_c, 0, 84, 76
3, 243947, Note_off_c, 0, 84, 0
3, 243960, Note_on_c, 0, 86, 76
3, 244067, Note_off_c, 0, 86, 0
3, 244080, Note_on_c, 0, 87, 76
3, 244080, Note_on_c, 0, 78, 76
3, 244511, Note_off_c, 0, 78, 0
3, 244511, Note_off_c, 0, 87, 0
3, 244560, Note_on_c, 0, 84, 76
3, 244775, Note_off_c, 0, 84, 0
3, 244800, Note_on_c, 0, 83, 72
3, 244800, Note_on_c, 0, 79, 72
3, 244907, Note_off_c, 0, 79, 0
3, 244907, Note_off_c, 0, 83, 0
3, 245040, Note_on_c, 0, 86, 72
3, 245147, Note_off_c, 0, 86, 0
3, 245160, Note_on_c, 0, 84, 72
3, 245267, Note_off_c, 0, 84, 0
3, 245280, Note_on_c, 0, 83, 72
3, 245387, Note_off_c, 0, 83, 0
3, 245400, Note_on_c, 0, 81, 72
3, 245507, Note_off_c, 0, 81, 0
3, 245520, Note_on_c, 0, 79, 72
3, 245951, Note_off_c, 0, 79, 0
3, 246240, Note_on_c, 0, 86, 72
3, 246240, Note_on_c, 0, 83, 72
3, 246240, Note_on_c, 0, 77, 72
3, 246347, Note_off_c, 0, 77, 0
3, 246347, Note_off_c, 0, 83, 0
3, 246347, Note_off_c, 0, 86, 0
3, 246480, Note_on_c, 0, 89, 72
3, 246587, Note_off_c, 0, 89, 0
3, 246600, Note_on_c, 0, 87, 72
3, 246707, Note_off_c, 0, 87, 0
3, 246720, Note_on_c, 0, 86, 72
3, 246827, Note_off_c, 0, 86, 0
3, 246840, Note_on_c, 0, 84, 72
3, 246947, Note_off_c, 0, 84, 0
3, 246960, Note_on_c, 0, 83, 72
3, 247391, Note_off_c, 0, 83, 0
3, 247680, Note_on_c, 0, 84, 72
3, 247680, Note_on_c, 0, 79, 72
3, 247680, Note_on_c, 0, 75, 72
3, 247787, Note_off_c, 0, 75, 0
3, 247787, Note_off_c, 0, 79, 0
3, 247787, Note_off_c, 0, 84, 0
3, 247920, Note_on_c, 0, 79, 72
3, 248027, Note_off_c, 0, 79, 0
3, 248040, Note_on_c, 0, 77, 72
3, 248147, Note_off_c, 0, 77, 0
3, 248160, Note_on_c, 0, 75, 72
3, 248267, Note_off_c, 0, 75, 0
3, 248280, Note_on_c, 0, 74, 72
3, 248387, Note_off_c, 0, 74, 0
3, 248400, Note_on_c, 0, 72, 72
3, 248831, Note_off_c, 0, 72, 0
3, 249120, Note_on_c, 0, 84, 72
3, 249120, Note_on_c, 0, 78, 72
3, 249120, Note_on_c, 0, 75, 72
3, 249227, Note_off_c, 0, 75, 0
3, 249227, Note_off_c, 0, 78, 0
3, 249227, Note_off_c, 0, 84, 0
3, 249360, Note_on_c, 0, 87, 72
3, 249467, Note_off_c, 0, 87, 0
3, 249480, Note_on_c, 0, 84, 72
3, 249587, Note_off_c, 0, 84, 0
3, 249600, Note_on_c, 0, 82, 72
3, 249707, Note_off_c, 0, 82, 0
3, 249720, Note_on_c, 0, 80, 72
3, 249827, Note_off_c, 0, 80, 0
3, 249840, Note_on_c, 0, 79, 72
3, 249947, Note_off_c, 0, 79, 0
3, 249960, Note_on_c, 0, 78, 72
3, 250067, Note_off_c, 0, 78, 0
3, 250080, Note_on_c, 0, 75, 72
3, 250187, Note_off_c, 0, 75, 0
3, 250200, Note_on_c, 0, 78, 72
3, 250307, Note_off_c, 0, 78, 0
3, 250320, Note_on_c, 0, 84, 72
3, 250427, Note_off_c, 0, 84, 0
3, 250440, Note_on_c, 0, 78, 72
3, 250547, Note_off_c, 0, 78, 0
3, 250560, Note_on_c, 0, 79, 72
3, 250991, Note_off_c, 0, 79, 0
3, 252000, Note_on_c, 0, 79, 64
3, 252000, Note_on_c, 0, 77, 64
3, 252107, Note_off_c, 0, 77, 0
3, 252107, Note_off_c, 0, 79, 0
3, 252240, Note_on_c, 0, 79, 64
3, 252240, Note_on_c, 0, 77, 64
3, 252347, Note_off_c, 0, 77, 0
3, 252347, Note_off_c, 0, 79, 0
3, 252480, Note_on_c, 0, 79, 64
3, 252480, Note_on_c, 0, 77, 64
3, 252587, Note_off_c, 0, 77, 0
3, 252587, Note_off_c, 0, 79, 0
3, 252720, Note_on_c, 0, 79, 64
3, 252720, Note_on_c, 0, 77, 64
3, 252720, Note_on_c, 0, 74, 64
3, 252827, Note_off_c, 0, 74, 0
3, 252827, Note_off_c, 0, 77, 0
3, 252827, Note_off_c, 0, 79, 0
3, 252960, Note_on_c, 0, 79, 64
3, 252960, Note_on_c, 0, 77, 64
3, 252960, Note_on_c, 0, 74, 64
3, 253067, Note_off_c, 0, 74, 0
3, 253067, Note_off_c, 0, 77, 0
3, 253067, Note_off_c, 0, 79, 0
3, 253200, Note_on_c, 0, 79, 64
3, 253200, Note_on_c, 0, 77, 64
3, 253200, Note_on_c, 0, 74, 64
3, 253307, Note_off_c, 0, 74, 0
3, 253307, Note_off_c, 0, 77, 0
3, 253307, Note_off_c, 0, 79, 0
3, 253440, Note_on_c, 0, 79, 64
3, 253440, Note_on_c, 0, 75, 64
3, 253440, Note_on_c, 0, 72, 64
3, 253547, Note_off_c, 0, 72, 0
3, 253547, Note_off_c, 0, 75, 0
3, 253547, Note_off_c, 0, 79, 0
3, 253680, Note_on_c, 0, 79, 64
3, 253680, Note_on_c, 0, 75, 64
3, 253680, Note_on_c, 0, 72, 64
3, 253787, Note_off_c, 0, 72, 0
3, 253787, Note_off_c, 0, 75, 0
3, 253787, Note_off_c, 0, 79, 0
3, 253920, Note_on_c, 0, 79, 64
3, 253920, Note_on_c, 0, 75, 64
3, 253920, Note_on_c, 0, 72, 64
3, 254027, Note_off_c, 0, 72, 0
3, 254027, Note_off_c, 0, 75, 0
3, 254027, Note_off_c, 0, 79, 0
3, 254160, Note_on_c, 0, 79, 64
3, 254160, Note_on_c, 0, 75, 64
3, 254160, Note_on_c, 0, 72, 64
3, 254267, Note_off_c, 0, 72, 0
3, 254267, Note_off_c, 0, 75, 0
3, 254267, Note_off_c, 0, 79, 0
3, 254400, Note_on_c, 0, 79, 64
3, 254400, Note_on_c, 0, 75, 64
3, 254400, Note_on_c, 0, 72, 64
3, 254507, Note_off_c, 0, 72, 0
3, 254507, Note_off_c, 0, 75, 0
3, 254507, Note_off_c, 0, 79, 0
3, 254640, Note_on_c, 0, 79, 64
3, 254640, Note_on_c, 0, 75, 64
3, 254640, Note_on_c, 0, 72, 64
3, 254747, Note_off_c, 0, 72, 0
3, 254747, Note_off_c, 0, 75, 0
3, 254747, Note_off_c, 0, 79, 0
3, 254880, Note_on_c, 0, 84, 64
3, 254880, Note_on_c, 0, 78, 64
3, 254880, Note_on_c, 0, 72, 64
3, 254987, Note_off_c, 0, 72, 0
3, 254987, Note_off_c, 0, 78, 0
3, 254987, Note_off_c, 0, 84, 0
3, 255120, Note_on_c, 0, 84, 64
3, 255120, Note_on_c, 0, 81, 64
3, 255120, Note_on_c, 0, 78, 64
3, 255120, Note_on_c, 0, 72, 64
3, 255227, Note_off_c, 0, 72, 0
3, 255227, Note_off_c, 0, 78, 0
3, 255227, Note_off_c, 0, 81, 0
3, 255227, Note_off_c, 0, 84, 0
3, 255319, Note_off_c, 0, 73, 0
3, 255360, Note_on_c, 0, 84, 64
3, 255360, Note_on_c, 0, 81, 64
3, 255360, Note_on_c, 0, 78, 64
3, 255360, Note_on_c, 0, 72, 64
3, 255467, Note_off_c, 0, 72, 0
3, 255467, Note_off_c, 0, 78, 0
3, 255467, Note_off_c, 0, 81, 0
3, 255467, Note_off_c, 0, 84, 0
3, 255600, Note_on_c, 0, 84, 64
3, 255600, Note_on_c, 0, 81, 64
3, 255600, Note_on_c, 0, 78, 64
3, 255600, Note_on_c, 0, 75, 64
3, 255600, Note_on_c, 0, 72, 64
3, 255707, Note_off_c, 0, 72, 0
3, 255707, Note_off_c, 0, 75, 0
3, 255707, Note_off_c, 0, 78, 0
3, 255707, Note_off_c, 0, 81, 0
3, 255707, Note_off_c, 0, 84, 0
3, 255840, Note_on_c, 0, 84, 64
3, 255840, Note_on_c, 0, 81, 64
3, 255840, Note_on_c, 0, 78, 64
3, 255840, Note_on_c, 0, 75, 64
3, 255840, Note_on_c, 0, 72, 64
3, 255947, Note_off_c, 0, 72, 0
3, 255947, Note_off_c, 0, 75, 0
3, 255947, Note_off_c, 0, 78, 0
3, 255947, Note_off_c, 0, 81, 0
3, 255947, Note_off_c, 0, 84, 0
3, 256080, Note_on_c, 0, 84, 64
3, 256080, Note_on_c, 0, 81, 64
3, 256080, Note_on_c, 0, 78, 64
3, 256080, Note_on_c, 0, 75, 64
3, 256080, Note_on_c, 0, 72, 64
3, 256187, Note_off_c, 0, 72, 0
3, 256187, Note_off_c, 0, 75, 0
3, 256187, Note_off_c, 0, 78, 0
3, 256187, Note_off_c, 0, 81, 0
3, 256187, Note_off_c, 0, 84, 0
3, 256320, Note_on_c, 0, 83, 64
3, 256320, Note_on_c, 0, 79, 64
3, 256320, Note_on_c, 0, 74, 64
3, 256427, Note_off_c, 0, 74, 0
3, 256427, Note_off_c, 0, 79, 0
3, 256427, Note_off_c, 0, 83, 0
3, 256560, Note_on_c, 0, 83, 64
3, 256560, Note_on_c, 0, 79, 64
3, 256560, Note_on_c, 0, 74, 64
3, 256667, Note_off_c, 0, 74, 0
3, 256667, Note_off_c, 0, 79, 0
3, 256667, Note_off_c, 0, 83, 0
3, 256800, Note_on_c, 0, 83, 64
3, 256800, Note_on_c, 0, 79, 64
3, 256800, Note_on_c, 0, 74, 64
3, 256907, Note_off_c, 0, 74, 0
3, 256907, Note_off_c, 0, 79, 0
3, 256907, Note_off_c, 0, 83, 0
3, 257040, Note_on_c, 0, 83, 64
3, 257040, Note_on_c, 0, 79, 64
3, 257040, Note_on_c, 0, 74, 64
3, 257147, Note_off_c, 0, 74, 0
3, 257147, Note_off_c, 0, 79, 0
3, 257147, Note_off_c, 0, 83, 0
3, 257280, Note_on_c, 0, 83, 64
3, 257280, Note_on_c, 0, 79, 64
3, 257280, Note_on_c, 0, 74, 64
3, 257387, Note_off_c, 0, 74, 0
3, 257387, Note_off_c, 0, 79, 0
3, 257387, Note_off_c, 0, 83, 0
3, 257520, Note_on_c, 0, 83, 64
3, 257520, Note_on_c, 0, 79, 64
3, 257520, Note_on_c, 0, 74, 64
3, 257627, Note_off_c, 0, 74, 0
3, 257627, Note_off_c, 0, 79, 0
3, 257627, Note_off_c, 0, 83, 0
3, 257760, Note_on_c, 0, 84, 64
3, 257760, Note_on_c, 0, 79, 64
3, 257760, Note_on_c, 0, 75, 64
3, 257867, Note_off_c, 0, 75, 0
3, 257867, Note_off_c, 0, 79, 0
3, 257867, Note_off_c, 0, 84, 0
3, 258000, Note_on_c, 0, 79, 64
3, 258000, Note_on_c, 0, 75, 64
3, 258000, Note_on_c, 0, 72, 64
3, 258000, Note_on_c, 0, 67, 64
3, 258107, Note_off_c, 0, 67, 0
3, 258107, Note_off_c, 0, 72, 0
3, 258107, Note_off_c, 0, 75, 0
3, 258107, Note_off_c, 0, 79, 0
3, 258240, Note_on_c, 0, 79, 64
3, 258240, Note_on_c, 0, 75, 64
3, 258240, Note_on_c, 0, 72, 64
3, 258347, Note_off_c, 0, 72, 0
3, 258347, Note_off_c, 0, 75, 0
3, 258347, Note_off_c, 0, 79, 0
3, 258480, Note_on_c, 0, 79, 64
3, 258480, Note_on_c, 0, 75, 64
3, 258480, Note_on_c, 0, 72, 64
3, 258480, Note_on_c, 0, 67, 64
3, 258587, Note_off_c, 0, 67, 0
3, 258587, Note_off_c, 0, 72, 0
3, 258587, Note_off_c, 0, 75, 0
3, 258587, Note_off_c, 0, 79, 0
3, 258720, Note_on_c, 0, 79, 64
3, 258720, Note_on_c, 0, 75, 64
3, 258720, Note_on_c, 0, 72, 64
3, 258720, Note_on_c, 0, 67, 64
3, 258827, Note_off_c, 0, 67, 0
3, 258827, Note_off_c, 0, 72, 0
3, 258827, Note_off_c, 0, 75, 0
3, 258827, Note_off_c, 0, 79, 0
3, 258960, Note_on_c, 0, 79, 64
3, 258960, Note_on_c, 0, 75, 64
3, 258960, Note_on_c, 0, 72, 64
3, 258960, Note_on_c, 0, 67, 64
3, 259067, Note_off_c, 0, 67, 0
3, 259067, Note_off_c, 0, 72, 0
3, 259067, Note_off_c, 0, 75, 0
3, 259067, Note_off_c, 0, 79, 0
3, 259200, Note_on_c, 0, 84, 64
3, 259200, Note_on_c, 0, 80, 64
3, 259200, Note_on_c, 0, 75, 64
3, 259200, Note_on_c, 0, 72, 64
3, 259307, Note_off_c, 0, 72, 0
3, 259307, Note_off_c, 0, 75, 0
3, 259307, Note_off_c, 0, 80, 0
3, 259307, Note_off_c, 0, 84, 0
3, 259440, Note_on_c, 0, 84, 64
3, 259440, Note_on_c, 0, 80, 64
3, 259440, Note_on_c, 0, 75, 64
3, 259440, Note_on_c, 0, 72, 64
3, 259547, Note_off_c, 0, 72, 0
3, 259547, Note_off_c, 0, 75, 0
3, 259547, Note_off_c, 0, 80, 0
3, 259547, Note_off_c, 0, 84, 0
3, 259680, Note_on_c, 0, 84, 64
3, 259680, Note_on_c, 0, 80, 64
3, 259680, Note_on_c, 0, 75, 64
3, 259680, Note_on_c, 0, 72, 64
3, 259787, Note_off_c, 0, 72, 0
3, 259787, Note_off_c, 0, 75, 0
3, 259787, Note_off_c, 0, 80, 0
3, 259787, Note_off_c, 0, 84, 0
3, 259920, Note_on_c, 0, 84, 64
3, 259920, Note_on_c, 0, 81, 64
3, 259920, Note_on_c, 0, 75, 64
3, 259920, Note_on_c, 0, 72, 64
3, 260027, Note_off_c, 0, 72, 0
3, 260027, Note_off_c, 0, 75, 0
3, 260027, Note_off_c, 0, 81, 0
3, 260027, Note_off_c, 0, 84, 0
3, 260160, Note_on_c, 0, 84, 64
3, 260160, Note_on_c, 0, 81, 64
3, 260160, Note_on_c, 0, 75, 64
3, 260160, Note_on_c, 0, 72, 64
3, 260267, Note_off_c, 0, 72, 0
3, 260267, Note_off_c, 0, 75, 0
3, 260267, Note_off_c, 0, 81, 0
3, 260267, Note_off_c, 0, 84, 0
3, 260400, Note_on_c, 0, 84, 64
3, 260400, Note_on_c, 0, 81, 64
3, 260400, Note_on_c, 0, 75, 64
3, 260400, Note_on_c, 0, 72, 64
3, 260507, Note_off_c, 0, 72, 0
3, 260507, Note_off_c, 0, 75, 0
3, 260507, Note_off_c, 0, 81, 0
3, 260507, Note_off_c, 0, 84, 0
3, 260640, Note_on_c, 0, 83, 64
3, 260640, Note_on_c, 0, 79, 64
3, 260640, Note_on_c, 0, 74, 64
3, 260747, Note_off_c, 0, 74, 0
3, 260747, Note_off_c, 0, 79, 0
3, 260747, Note_off_c, 0, 83, 0
3, 260880, Note_on_c, 0, 83, 64
3, 260880, Note_on_c, 0, 79, 64
3, 260880, Note_on_c, 0, 74, 64
3, 260987, Note_off_c, 0, 74, 0
3, 260987, Note_off_c, 0, 79, 0
3, 260987, Note_off_c, 0, 83, 0
3, 261120, Note_on_c, 0, 83, 64
3, 261120, Note_on_c, 0, 79, 64
3, 261120, Note_on_c, 0, 74, 64
3, 261227, Note_off_c, 0, 74, 0
3, 261227, Note_off_c, 0, 79, 0
3, 261227, Note_off_c, 0, 83, 0
3, 261360, Note_on_c, 0, 79, 64
3, 261467, Note_off_c, 0, 79, 0
3, 261480, Note_on_c, 0, 77, 64
3, 261587, Note_off_c, 0, 77, 0
3, 261600, Note_on_c, 0, 79, 64
3, 261707, Note_off_c, 0, 79, 0
3, 261720, Note_on_c, 0, 74, 64
3, 261827, Note_off_c, 0, 74, 0
3, 261840, Note_on_c, 0, 71, 64
3, 261947, Note_off_c, 0, 71, 0
3, 261960, Note_on_c, 0, 67, 64
3, 262067, Note_off_c, 0, 67, 0
3, 262080, Note_on_c, 0, 84, 64
3, 262080, Note_on_c, 0, 79, 64
3, 262080, Note_on_c, 0, 75, 64
3, 262187, Note_off_c, 0, 75, 0
3, 262187, Note_off_c, 0, 79, 0
3, 262187, Note_off_c, 0, 84, 0
3, 262320, Note_on_c, 0, 84, 64
3, 262320, Note_on_c, 0, 79, 64
3, 262320, Note_on_c, 0, 75, 64
3, 262427, Note_off_c, 0, 75, 0
3, 262427, Note_off_c, 0, 79, 0
3, 262427, Note_off_c, 0, 84, 0
3, 262560, Note_on_c, 0, 84, 64
3, 262560, Note_on_c, 0, 79, 64
3, 262560, Note_on_c, 0, 75, 64
3, 262667, Note_off_c, 0, 75, 0
3, 262667, Note_off_c, 0, 79, 0
3, 262667, Note_off_c, 0, 84, 0
3, 262800, Note_on_c, 0, 79, 64
3, 262907, Note_off_c, 0, 79, 0
3, 262920, Note_on_c, 0, 77, 64
3, 263027, Note_off_c, 0, 77, 0
3, 263040, Note_on_c, 0, 79, 64
3, 263147, Note_off_c, 0, 79, 0
3, 263160, Note_on_c, 0, 75, 64
3, 263267, Note_off_c, 0, 75, 0
3, 263280, Note_on_c, 0, 72, 64
3, 263387, Note_off_c, 0, 72, 0
3, 263400, Note_on_c, 0, 67, 64
3, 263507, Note_off_c, 0, 67, 0
3, 263520, Note_on_c, 0, 79, 64
3, 263520, Note_on_c, 0, 74, 64
3, 263520, Note_on_c, 0, 71, 64
3, 263627, Note_off_c, 0, 71, 0
3, 263627, Note_off_c, 0, 74, 0
3, 263627, Note_off_c, 0, 79, 0
3, 263760, Note_on_c, 0, 79, 64
3, 263760, Note_on_c, 0, 74, 64
3, 263760, Note_on_c, 0, 71, 64
3, 263867, Note_off_c, 0, 71, 0
3, 263867, Note_off_c, 0, 74, 0
3, 263867, Note_off_c, 0, 79, 0
3, 264000, Note_on_c, 0, 79, 64
3, 264000, Note_on_c, 0, 74, 64
3, 264000, Note_on_c, 0, 71, 64
3, 264107, Note_off_c, 0, 71, 0
3, 264107, Note_off_c, 0, 74, 0
3, 264107, Note_off_c, 0, 79, 0
3, 264240, Note_on_c, 0, 79, 64
3, 264347, Note_off_c, 0, 79, 0
3, 264360, Note_on_c, 0, 77, 64
3, 264467, Note_off_c, 0, 77, 0
3, 264480, Note_on_c, 0, 79, 64
3, 264587, Note_off_c, 0, 79, 0
3, 264600, Note_on_c, 0, 74, 64
3, 264707, Note_off_c, 0, 74, 0
3, 264720, Note_on_c, 0, 71, 64
3, 264827, Note_off_c, 0, 71, 0
3, 264840, Note_on_c, 0, 67, 64
3, 264947, Note_off_c, 0, 67, 0
3, 264960, Note_on_c, 0, 84, 64
3, 264960, Note_on_c, 0, 79, 64
3, 264960, Note_on_c, 0, 75, 64
3, 265067, Note_off_c, 0, 75, 0
3, 265067, Note_off_c, 0, 79, 0
3, 265067, Note_off_c, 0, 84, 0
3, 265200, Note_on_c, 0, 84, 64
3, 265200, Note_on_c, 0, 79, 64
3, 265200, Note_on_c, 0, 75, 64
3, 265307, Note_off_c, 0, 75, 0
3, 265307, Note_off_c, 0, 79, 0
3, 265307, Note_off_c, 0, 84, 0
3, 265440, Note_on_c, 0, 84, 64
3, 265440, Note_on_c, 0, 79, 64
3, 265440, Note_on_c, 0, 75, 64
3, 265547, Note_off_c, 0, 75, 0
3, 265547, Note_off_c, 0, 79, 0
3, 265547, Note_off_c, 0, 84, 0
3, 265680, Note_on_c, 0, 79, 64
3, 265787, Note_off_c, 0, 79, 0
3, 265800, Note_on_c, 0, 77, 64
3, 265907, Note_off_c, 0, 77, 0
3, 265920, Note_on_c, 0, 79, 64
3, 266027, Note_off_c, 0, 79, 0
3, 266040, Note_on_c, 0, 75, 64
3, 266147, Note_off_c, 0, 75, 0
3, 266160, Note_on_c, 0, 72, 64
3, 266267, Note_off_c, 0, 72, 0
3, 266280, Note_on_c, 0, 67, 64
3, 266387, Note_off_c, 0, 67, 0
3, 266400, Note_on_c, 0, 67, 89
3, 266507, Note_off_c, 0, 67, 0
3, 266520, Note_on_c, 0, 79, 89
3, 266627, Note_off_c, 0, 79, 0
3, 266640, Note_on_c, 0, 67, 89
3, 266747, Note_off_c, 0, 67, 0
3, 266760, Note_on_c, 0, 79, 89
3, 266867, Note_off_c, 0, 79, 0
3, 266880, Note_on_c, 0, 66, 89
3, 266987, Note_off_c, 0, 66, 0
3, 267000, Note_on_c, 0, 78, 89
3, 267107, Note_off_c, 0, 78, 0
3, 267120, Note_on_c, 0, 67, 89
3, 267227, Note_off_c, 0, 67, 0
3, 267240, Note_on_c, 0, 79, 89
3, 267347, Note_off_c, 0, 79, 0
3, 267360, Note_on_c, 0, 67, 89
3, 267467, Note_off_c, 0, 67, 0
3, 267480, Note_on_c, 0, 79, 89
3, 267587, Note_off_c, 0, 79, 0
3, 267600, Note_on_c, 0, 66, 89
3, 267707, Note_off_c, 0, 66, 0
3, 267720, Note_on_c, 0, 78, 89
3, 267827, Note_off_c, 0, 78, 0
3, 267840, Note_on_c, 0, 67, 89
3, 267947, Note_off_c, 0, 67, 0
3, 267960, Note_on_c, 0, 79, 89
3, 268067, Note_off_c, 0, 79, 0
3, 268080, Note_on_c, 0, 67, 89
3, 268187, Note_off_c, 0, 67, 0
3, 268200, Note_on_c, 0, 79, 89
3, 268307, Note_off_c, 0, 79, 0
3, 268320, Note_on_c, 0, 66, 89
3, 268427, Note_off_c, 0, 66, 0
3, 268440, Note_on_c, 0, 78, 89
3, 268547, Note_off_c, 0, 78, 0
3, 268560, Note_on_c, 0, 67, 89
3, 268667, Note_off_c, 0, 67, 0
3, 268680, Note_on_c, 0, 79, 89
3, 268787, Note_off_c, 0, 79, 0
3, 268800, Note_on_c, 0, 67, 89
3, 268907, Note_off_c, 0, 67, 0
3, 268920, Note_on_c, 0, 79, 89
3, 269027, Note_off_c, 0, 79, 0
3, 269040, Note_on_c, 0, 66, 89
3, 269147, Note_off_c, 0, 66, 0
3, 269160, Note_on_c, 0, 78, 89
3, 269267, Note_off_c, 0, 78, 0
3, 269280, Note_on_c, 0, 67, 89
3, 269387, Note_off_c, 0, 67, 0
3, 269400, Note_on_c, 0, 79, 89
3, 269507, Note_off_c, 0, 79, 0
3, 269520, Note_on_c, 0, 67, 89
3, 269627, Note_off_c, 0, 67, 0
3, 269640, Note_on_c, 0, 79, 89
3, 269747, Note_off_c, 0, 79, 0
3, 269760, Note_on_c, 0, 67, 89
3, 269867, Note_off_c, 0, 67, 0
3, 269880, Note_on_c, 0, 79, 89
3, 269987, Note_off_c, 0, 79, 0
3, 270000, Note_on_c, 0, 67, 89
3, 270107, Note_off_c, 0, 67, 0
3, 270120, Note_on_c, 0, 79, 89
3, 270227, Note_off_c, 0, 79, 0
3, 270240, Note_on_c, 0, 67, 89
3, 270347, Note_off_c, 0, 67, 0
3, 270360, Note_on_c, 0, 79, 89
3, 270467, Note_off_c, 0, 79, 0
3, 270480, Note_on_c, 0, 67, 89
3, 270587, Note_off_c, 0, 67, 0
3, 270600, Note_on_c, 0, 79, 89
3, 270707, Note_off_c, 0, 79, 0
3, 270720, Note_on_c, 0, 67, 64
3, 270827, Note_off_c, 0, 67, 0
3, 270960, Note_on_c, 0, 82, 64
3, 271175, Note_off_c, 0, 82, 0
3, 271200, Note_on_c, 0, 79, 64
3, 271415, Note_off_c, 0, 79, 0
3, 271440, Note_on_c, 0, 76, 64
3, 271655, Note_off_c, 0, 76, 0
3, 271680, Note_on_c, 0, 72, 64
3, 271895, Note_off_c, 0, 72, 0
3, 271920, Note_on_c, 0, 70, 64
3, 272135, Note_off_c, 0, 70, 0
3, 272160, Note_on_c, 0, 67, 64
3, 272267, Note_off_c, 0, 67, 0
3, 272400, Note_on_c, 0, 79, 64
3, 272615, Note_off_c, 0, 79, 0
3, 272640, Note_on_c, 0, 76, 64
3, 272855, Note_off_c, 0, 76, 0
3, 272880, Note_on_c, 0, 72, 64
3, 273095, Note_off_c, 0, 72, 0
3, 273120, Note_on_c, 0, 70, 64
3, 273335, Note_off_c, 0, 70, 0
3, 273360, Note_on_c, 0, 67, 64
3, 273575, Note_off_c, 0, 67, 0
3, 273600, Note_on_c, 0, 64, 64
3, 273707, Note_off_c, 0, 64, 0
3, 273840, Note_on_c, 0, 76, 64
3, 274055, Note_off_c, 0, 76, 0
3, 274080, Note_on_c, 0, 72, 64
3, 274295, Note_off_c, 0, 72, 0
3, 274320, Note_on_c, 0, 70, 64
3, 274535, Note_off_c, 0, 70, 0
3, 274560, Note_on_c, 0, 67, 64
3, 274775, Note_off_c, 0, 67, 0
3, 274800, Note_on_c, 0, 64, 64
3, 275015, Note_off_c, 0, 64, 0
3, 275040, Note_on_c, 0, 60, 64
3, 275147, Note_off_c, 0, 60, 0
3, 275280, Note_on_c, 0, 70, 64
3, 275495, Note_off_c, 0, 70, 0
3, 275520, Note_on_c, 0, 67, 64
3, 275735, Note_off_c, 0, 67, 0
3, 275760, Note_on_c, 0, 64, 64
3, 275975, Note_off_c, 0, 64, 0
3, 276000, Note_on_c, 0, 60, 64
3, 276215, Note_off_c, 0, 60, 0
3, 276240, Note_on_c, 0, 58, 64
3, 276455, Note_off_c, 0, 58, 0
3, 276480, Note_on_c, 0, 55, 64
3, 276587, Note_off_c, 0, 55, 0
3, 276720, Note_on_c, 0, 67, 64
3, 276935, Note_off_c, 0, 67, 0
3, 276960, Note_on_c, 0, 64, 64
3, 277175, Note_off_c, 0, 64, 0
3, 277200, Note_on_c, 0, 60, 64
3, 277415, Note_off_c, 0, 60, 0
3, 277440, Note_on_c, 0, 58, 64
3, 277655, Note_off_c, 0, 58, 0
3, 277680, Note_on_c, 0, 55, 64
3, 277895, Note_off_c, 0, 55, 0
3, 285120, Note_on_c, 0, 69, 64
3, 285335, Note_off_c, 0, 69, 0
3, 285360, Note_on_c, 0, 65, 64
3, 285575, Note_off_c, 0, 65, 0
3, 285600, Note_on_c, 0, 72, 64
3, 285707, Note_off_c, 0, 72, 0
3, 285840, Note_on_c, 0, 72, 64
3, 286271, Note_off_c, 0, 72, 0
3, 286320, Note_on_c, 0, 70, 64
3, 286320, Note_on_c, 0, 67, 64
3, 286535, Note_off_c, 0, 67, 0
3, 286535, Note_off_c, 0, 70, 0
3, 286560, Note_on_c, 0, 69, 64
3, 286560, Note_on_c, 0, 65, 64
3, 286991, Note_off_c, 0, 65, 0
3, 286991, Note_off_c, 0, 69, 0
3, 287040, Note_on_c, 0, 72, 64
3, 287147, Note_off_c, 0, 72, 0
3, 287280, Note_on_c, 0, 72, 64
3, 287711, Note_off_c, 0, 72, 0
3, 287760, Note_on_c, 0, 70, 64
3, 287760, Note_on_c, 0, 67, 64
3, 287975, Note_off_c, 0, 67, 0
3, 287975, Note_off_c, 0, 70, 0
3, 288000, Note_on_c, 0, 69, 64
3, 288000, Note_on_c, 0, 65, 64
3, 288431, Note_off_c, 0, 65, 0
3, 288431, Note_off_c, 0, 69, 0
3, 288480, Note_on_c, 0, 74, 64
3, 288587, Note_off_c, 0, 74, 0
3, 288720, Note_on_c, 0, 72, 64
3, 289151, Note_off_c, 0, 72, 0
3, 289200, Note_on_c, 0, 70, 64
3, 289200, Note_on_c, 0, 67, 64
3, 289415, Note_off_c, 0, 67, 0
3, 289415, Note_off_c, 0, 70, 0
3, 289440, Note_on_c, 0, 69, 64
3, 289440, Note_on_c, 0, 65, 64
3, 289871, Note_off_c, 0, 65, 0
3, 289871, Note_off_c, 0, 69, 0
3, 289920, Note_on_c, 0, 75, 64
3, 290027, Note_off_c, 0, 75, 0
3, 290160, Note_on_c, 0, 74, 64
3, 290591, Note_off_c, 0, 74, 0
3, 290640, Note_on_c, 0, 72, 64
3, 290640, Note_on_c, 0, 69, 64
3, 290855, Note_off_c, 0, 69, 0
3, 290855, Note_off_c, 0, 72, 0
3, 290880, Note_on_c, 0, 70, 64
3, 290880, Note_on_c, 0, 67, 64
3, 291311, Note_off_c, 0, 67, 0
3, 291311, Note_off_c, 0, 70, 0
3, 291360, Note_on_c, 0, 75, 64
3, 291467, Note_off_c, 0, 75, 0
3, 291600, Note_on_c, 0, 74, 64
3, 292031, Note_off_c, 0, 74, 0
3, 292080, Note_on_c, 0, 72, 64
3, 292080, Note_on_c, 0, 69, 64
3, 292295, Note_off_c, 0, 69, 0
3, 292295, Note_off_c, 0, 72, 0
3, 292320, Note_on_c, 0, 70, 64
3, 292320, Note_on_c, 0, 67, 64
3, 292751, Note_off_c, 0, 67, 0
3, 292751, Note_off_c, 0, 70, 0
3, 292800, Note_on_c, 0, 79, 64
3, 292907, Note_off_c, 0, 79, 0
3, 293040, Note_on_c, 0, 77, 64
3, 293471, Note_off_c, 0, 77, 0
3, 293520, Note_on_c, 0, 75, 64
3, 293520, Note_on_c, 0, 72, 64
3, 293735, Note_off_c, 0, 72, 0
3, 293735, Note_off_c, 0, 75, 0
3, 293760, Note_on_c, 0, 74, 64
3, 293760, Note_on_c, 0, 70, 64
3, 294191, Note_off_c, 0, 70, 0
3, 294191, Note_off_c, 0, 74, 0
3, 294240, Note_on_c, 0, 79, 64
3, 294347, Note_off_c, 0, 79, 0
3, 294480, Note_on_c, 0, 79, 64
3, 294695, Note_off_c, 0, 79, 0
3, 294720, Note_on_c, 0, 77, 64
3, 294935, Note_off_c, 0, 77, 0
3, 294960, Note_on_c, 0, 75, 64
3, 294960, Note_on_c, 0, 72, 64
3, 295175, Note_off_c, 0, 72, 0
3, 295175, Note_off_c, 0, 75, 0
3, 295200, Note_on_c, 0, 74, 54
3, 295200, Note_on_c, 0, 70, 54
3, 295415, Note_off_c, 0, 70, 0
3, 295415, Note_off_c, 0, 74, 0
3, 295440, Note_on_c, 0, 75, 54
3, 295440, Note_on_c, 0, 72, 54
3, 295655, Note_off_c, 0, 72, 0
3, 295655, Note_off_c, 0, 75, 0
3, 295680, Note_on_c, 0, 77, 54
3, 295680, Note_on_c, 0, 74, 54
3, 295895, Note_off_c, 0, 74, 0
3, 295895, Note_off_c, 0, 77, 0
3, 295920, Note_on_c, 0, 79, 54
3, 295920, Note_on_c, 0, 75, 54
3, 296135, Note_off_c, 0, 75, 0
3, 296135, Note_off_c, 0, 79, 0
3, 296160, Note_on_c, 0, 75, 54
3, 296160, Note_on_c, 0, 72, 54
3, 296375, Note_off_c, 0, 72, 0
3, 296375, Note_off_c, 0, 75, 0
3, 296400, Note_on_c, 0, 74, 54
3, 296400, Note_on_c, 0, 70, 54
3, 296615, Note_off_c, 0, 70, 0
3, 296615, Note_off_c, 0, 74, 0
3, 296640, Note_on_c, 0, 72, 54
3, 296640, Note_on_c, 0, 69, 54
3, 296747, Note_off_c, 0, 69, 0
3, 296747, Note_off_c, 0, 72, 0
3, 296760, Note_on_c, 0, 74, 54
3, 296760, Note_on_c, 0, 70, 54
3, 296867, Note_off_c, 0, 70, 0
3, 296867, Note_off_c, 0, 74, 0
3, 296880, Note_on_c, 0, 72, 54
3, 296880, Note_on_c, 0, 69, 54
3, 296987, Note_off_c, 0, 69, 0
3, 296987, Note_off_c, 0, 72, 0
3, 297000, Note_on_c, 0, 74, 54
3, 297000, Note_on_c, 0, 70, 54
3, 297107, Note_off_c, 0, 70, 0
3, 297107, Note_off_c, 0, 74, 0
3, 297120, Note_on_c, 0, 72, 54
3, 297120, Note_on_c, 0, 69, 54
3, 297227, Note_off_c, 0, 69, 0
3, 297227, Note_off_c, 0, 72, 0
3, 297240, Note_on_c, 0, 74, 54
3, 297240, Note_on_c, 0, 70, 54
3, 297347, Note_off_c, 0, 70, 0
3, 297347, Note_off_c, 0, 74, 0
3, 297360, Note_on_c, 0, 72, 54
3, 297360, Note_on_c, 0, 69, 54
3, 297791, Note_off_c, 0, 69, 0
3, 297791, Note_off_c, 0, 72, 0
3, 297840, Note_on_c, 0, 65, 54
3, 297947, Note_off_c, 0, 65, 0
3, 298080, Note_on_c, 0, 65, 64
3, 298187, Note_off_c, 0, 65, 0
3, 298200, Note_on_c, 0, 62, 64
3, 298307, Note_off_c, 0, 62, 0
3, 298320, Note_on_c, 0, 63, 64
3, 298427, Note_off_c, 0, 63, 0
3, 298440, Note_on_c, 0, 65, 64
3, 298547, Note_off_c, 0, 65, 0
3, 298560, Note_on_c, 0, 67, 64
3, 298667, Note_off_c, 0, 67, 0
3, 298680, Note_on_c, 0, 69, 64
3, 298787, Note_off_c, 0, 69, 0
3, 298800, Note_on_c, 0, 70, 64
3, 298907, Note_off_c, 0, 70, 0
3, 298920, Note_on_c, 0, 65, 64
3, 299027, Note_off_c, 0, 65, 0
3, 299040, Note_on_c, 0, 67, 64
3, 299147, Note_off_c, 0, 67, 0
3, 299160, Note_on_c, 0, 69, 64
3, 299267, Note_off_c, 0, 69, 0
3, 299280, Note_on_c, 0, 70, 64
3, 299387, Note_off_c, 0, 70, 0
3, 299400, Note_on_c, 0, 72, 64
3, 299507, Note_off_c, 0, 72, 0
3, 299520, Note_on_c, 0, 74, 64
3, 299627, Note_off_c, 0, 74, 0
3, 299640, Note_on_c, 0, 69, 64
3, 299747, Note_off_c, 0, 69, 0
3, 299760, Note_on_c, 0, 70, 64
3, 299867, Note_off_c, 0, 70, 0
3, 299880, Note_on_c, 0, 72, 64
3, 299987, Note_off_c, 0, 72, 0
3, 300000, Note_on_c, 0, 74, 64
3, 300107, Note_off_c, 0, 74, 0
3, 300120, Note_on_c, 0, 75, 64
3, 300227, Note_off_c, 0, 75, 0
3, 300240, Note_on_c, 0, 77, 64
3, 300347, Note_off_c, 0, 77, 0
3, 300360, Note_on_c, 0, 74, 64
3, 300467, Note_off_c, 0, 74, 0
3, 300480, Note_on_c, 0, 75, 64
3, 300587, Note_off_c, 0, 75, 0
3, 300600, Note_on_c, 0, 77, 64
3, 300707, Note_off_c, 0, 77, 0
3, 300720, Note_on_c, 0, 79, 64
3, 300827, Note_off_c, 0, 79, 0
3, 300840, Note_on_c, 0, 81, 64
3, 300947, Note_off_c, 0, 81, 0
3, 300960, Note_on_c, 0, 82, 64
3, 301067, Note_off_c, 0, 82, 0
3, 301080, Note_on_c, 0, 81, 64
3, 301187, Note_off_c, 0, 81, 0
3, 301200, Note_on_c, 0, 79, 64
3, 301307, Note_off_c, 0, 79, 0
3, 301320, Note_on_c, 0, 77, 64
3, 301427, Note_off_c, 0, 77, 0
3, 301440, Note_on_c, 0, 75, 64
3, 301547, Note_off_c, 0, 75, 0
3, 301560, Note_on_c, 0, 74, 64
3, 301667, Note_off_c, 0, 74, 0
3, 301680, Note_on_c, 0, 72, 64
3, 301787, Note_off_c, 0, 72, 0
3, 301800, Note_on_c, 0, 70, 64
3, 301907, Note_off_c, 0, 70, 0
3, 301920, Note_on_c, 0, 69, 64
3, 302027, Note_off_c, 0, 69, 0
3, 302040, Note_on_c, 0, 70, 64
3, 302147, Note_off_c, 0, 70, 0
3, 302160, Note_on_c, 0, 74, 64
3, 302267, Note_off_c, 0, 74, 0
3, 302280, Note_on_c, 0, 70, 64
3, 302387, Note_off_c, 0, 70, 0
3, 302400, Note_on_c, 0, 79, 64
3, 302507, Note_off_c, 0, 79, 0
3, 302520, Note_on_c, 0, 77, 64
3, 302627, Note_off_c, 0, 77, 0
3, 302640, Note_on_c, 0, 75, 64
3, 302747, Note_off_c, 0, 75, 0
3, 302760, Note_on_c, 0, 74, 64
3, 302867, Note_off_c, 0, 74, 0
3, 302880, Note_on_c, 0, 72, 64
3, 302987, Note_off_c, 0, 72, 0
3, 303000, Note_on_c, 0, 70, 64
3, 303107, Note_off_c, 0, 70, 0
3, 303120, Note_on_c, 0, 69, 64
3, 303227, Note_off_c, 0, 69, 0
3, 303240, Note_on_c, 0, 67, 64
3, 303347, Note_off_c, 0, 67, 0
3, 303360, Note_on_c, 0, 65, 64
3, 303467, Note_off_c, 0, 65, 0
3, 303480, Note_on_c, 0, 63, 64
3, 303587, Note_off_c, 0, 63, 0
3, 303600, Note_on_c, 0, 62, 64
3, 303707, Note_off_c, 0, 62, 0
3, 303720, Note_on_c, 0, 60, 64
3, 303827, Note_off_c, 0, 60, 0
3, 303840, Note_on_c, 0, 58, 64
3, 303947, Note_off_c, 0, 58, 0
3, 303960, Note_on_c, 0, 62, 64
3, 304067, Note_off_c, 0, 62, 0
3, 304080, Note_on_c, 0, 63, 64
3, 304187, Note_off_c, 0, 63, 0
3, 304200, Note_on_c, 0, 65, 64
3, 304307, Note_off_c, 0, 65, 0
3, 304320, Note_on_c, 0, 67, 64
3, 304427, Note_off_c, 0, 67, 0
3, 304440, Note_on_c, 0, 69, 64
3, 304547, Note_off_c, 0, 69, 0
3, 304560, Note_on_c, 0, 70, 64
3, 304667, Note_off_c, 0, 70, 0
3, 304680, Note_on_c, 0, 65, 64
3, 304787, Note_off_c, 0, 65, 0
3, 304800, Note_on_c, 0, 67, 64
3, 304907, Note_off_c, 0, 67, 0
3, 304920, Note_on_c, 0, 69, 64
3, 305027, Note_off_c, 0, 69, 0
3, 305040, Note_on_c, 0, 70, 64
3, 305147, Note_off_c, 0, 70, 0
3, 305160, Note_on_c, 0, 72, 64
3, 305267, Note_off_c, 0, 72, 0
3, 305280, Note_on_c, 0, 74, 64
3, 305387, Note_off_c, 0, 74, 0
3, 305400, Note_on_c, 0, 69, 64
3, 305507, Note_off_c, 0, 69, 0
3, 305520, Note_on_c, 0, 70, 64
3, 305627, Note_off_c, 0, 70, 0
3, 305640, Note_on_c, 0, 72, 64
3, 305747, Note_off_c, 0, 72, 0
3, 305760, Note_on_c, 0, 74, 64
3, 305867, Note_off_c, 0, 74, 0
3, 305880, Note_on_c, 0, 75, 64
3, 305987, Note_off_c, 0, 75, 0
3, 306000, Note_on_c, 0, 77, 64
3, 306107, Note_off_c, 0, 77, 0
3, 306120, Note_on_c, 0, 74, 64
3, 306227, Note_off_c, 0, 74, 0
3, 306240, Note_on_c, 0, 75, 64
3, 306347, Note_off_c, 0, 75, 0
3, 306360, Note_on_c, 0, 77, 64
3, 306467, Note_off_c, 0, 77, 0
3, 306480, Note_on_c, 0, 79, 64
3, 306587, Note_off_c, 0, 79, 0
3, 306600, Note_on_c, 0, 81, 64
3, 306707, Note_off_c, 0, 81, 0
3, 306720, Note_on_c, 0, 82, 89
3, 306827, Note_off_c, 0, 82, 0
3, 306840, Note_on_c, 0, 81, 89
3, 306947, Note_off_c, 0, 81, 0
3, 306960, Note_on_c, 0, 79, 89
3, 307067, Note_off_c, 0, 79, 0
3, 307080, Note_on_c, 0, 77, 89
3, 307187, Note_off_c, 0, 77, 0
3, 307200, Note_on_c, 0, 75, 89
3, 307307, Note_off_c, 0, 75, 0
3, 307320, Note_on_c, 0, 74, 89
3, 307427, Note_off_c, 0, 74, 0
3, 307440, Note_on_c, 0, 72, 89
3, 307547, Note_off_c, 0, 72, 0
3, 307560, Note_on_c, 0, 70, 89
3, 307667, Note_off_c, 0, 70, 0
3, 307680, Note_on_c, 0, 69, 89
3, 307787, Note_off_c, 0, 69, 0
3, 307800, Note_on_c, 0, 67, 89
3, 307907, Note_off_c, 0, 67, 0
3, 307920, Note_on_c, 0, 65, 89
3, 308027, Note_off_c, 0, 65, 0
3, 308040, Note_on_c, 0, 63, 89
3, 308147, Note_off_c, 0, 63, 0
3, 308160, Note_on_c, 0, 62, 89
3, 308267, Note_off_c, 0, 62, 0
3, 308280, Note_on_c, 0, 60, 89
3, 308387, Note_off_c, 0, 60, 0
3, 308400, Note_on_c, 0, 58, 89
3, 308507, Note_off_c, 0, 58, 0
3, 308520, Note_on_c, 0, 57, 89
3, 308627, Note_off_c, 0, 57, 0
3, 308640, Note_on_c, 0, 55, 89
3, 308747, Note_off_c, 0, 55, 0
3, 308760, Note_on_c, 0, 53, 89
3, 308867, Note_off_c, 0, 53, 0
3, 308880, Note_on_c, 0, 51, 89
3, 308987, Note_off_c, 0, 51, 0
3, 309000, Note_on_c, 0, 50, 89
3, 309107, Note_off_c, 0, 50, 0
3, 309120, Note_on_c, 0, 48, 89
3, 309227, Note_off_c, 0, 48, 0
3, 309240, Note_on_c, 0, 46, 89
3, 309347, Note_off_c, 0, 46, 0
3, 309360, Note_on_c, 0, 45, 89
3, 309467, Note_off_c, 0, 45, 0
3, 309480, Note_on_c, 0, 48, 89
3, 309587, Note_off_c, 0, 48, 0
3, 309600, Note_on_c, 0, 46, 89
3, 309815, Note_off_c, 0, 46, 0
3, 309840, Note_on_c, 0, 50, 89
3, 310055, Note_off_c, 0, 50, 0
3, 310080, Note_on_c, 0, 53, 89
3, 310295, Note_off_c, 0, 53, 0
3, 310320, Note_on_c, 0, 58, 89
3, 310535, Note_off_c, 0, 58, 0
3, 310560, Note_on_c, 0, 62, 89
3, 310775, Note_off_c, 0, 62, 0
3, 310800, Note_on_c, 0, 65, 89
3, 311015, Note_off_c, 0, 65, 0
3, 311040, Note_on_c, 0, 69, 82
3, 311040, Note_on_c, 0, 65, 82
3, 311040, Note_on_c, 0, 60, 82
3, 311471, Note_off_c, 0, 60, 0
3, 311471, Note_off_c, 0, 65, 0
3, 311471, Note_off_c, 0, 69, 0
3, 311520, Note_on_c, 0, 69, 82
3, 311520, Note_on_c, 0, 65, 82
3, 311520, Note_on_c, 0, 60, 82
3, 311735, Note_off_c, 0, 60, 0
3, 311735, Note_off_c, 0, 65, 0
3, 311735, Note_off_c, 0, 69, 0
3, 311760, Note_on_c, 0, 70, 82
3, 311760, Note_on_c, 0, 65, 82
3, 311760, Note_on_c, 0, 62, 82
3, 312191, Note_off_c, 0, 62, 0
3, 312191, Note_off_c, 0, 65, 0
3, 312191, Note_off_c, 0, 70, 0
3, 312240, Note_on_c, 0, 70, 82
3, 312240, Note_on_c, 0, 65, 82
3, 312240, Note_on_c, 0, 62, 82
3, 312455, Note_off_c, 0, 62, 0
3, 312455, Note_off_c, 0, 65, 0
3, 312455, Note_off_c, 0, 70, 0
3, 312480, Note_on_c, 0, 69, 82
3, 312480, Note_on_c, 0, 65, 82
3, 312480, Note_on_c, 0, 60, 82
3, 312911, Note_off_c, 0, 60, 0
3, 312911, Note_off_c, 0, 65, 0
3, 312911, Note_off_c, 0, 69, 0
3, 312960, Note_on_c, 0, 69, 82
3, 312960, Note_on_c, 0, 65, 82
3, 312960, Note_on_c, 0, 60, 82
3, 313175, Note_off_c, 0, 60, 0
3, 313175, Note_off_c, 0, 65, 0
3, 313175, Note_off_c, 0, 69, 0
3, 313200, Note_on_c, 0, 70, 82
3, 313200, Note_on_c, 0, 65, 82
3, 313200, Note_on_c, 0, 62, 82
3, 313631, Note_off_c, 0, 62, 0
3, 313631, Note_off_c, 0, 65, 0
3, 313631, Note_off_c, 0, 70, 0
3, 313680, Note_on_c, 0, 70, 82
3, 313680, Note_on_c, 0, 65, 82
3, 313680, Note_on_c, 0, 62, 82
3, 313895, Note_off_c, 0, 62, 0
3, 313895, Note_off_c, 0, 65, 0
3, 313895, Note_off_c, 0, 70, 0
3, 313920, Note_on_c, 0, 69, 82
3, 313920, Note_on_c, 0, 65, 82
3, 313920, Note_on_c, 0, 60, 82
3, 314351, Note_off_c, 0, 60, 0
3, 314351, Note_off_c, 0, 65, 0
3, 314351, Note_off_c, 0, 69, 0
3, 314400, Note_on_c, 0, 69, 82
3, 314400, Note_on_c, 0, 65, 82
3, 314400, Note_on_c, 0, 60, 82
3, 314615, Note_off_c, 0, 60, 0
3, 314615, Note_off_c, 0, 65, 0
3, 314615, Note_off_c, 0, 69, 0
3, 314640, Note_on_c, 0, 70, 82
3, 314640, Note_on_c, 0, 65, 82
3, 314640, Note_on_c, 0, 62, 82
3, 315071, Note_off_c, 0, 62, 0
3, 315071, Note_off_c, 0, 65, 0
3, 315071, Note_off_c, 0, 70, 0
3, 315120, Note_on_c, 0, 70, 82
3, 315120, Note_on_c, 0, 65, 82
3, 315120, Note_on_c, 0, 62, 82
3, 315227, Note_off_c, 0, 62, 0
3, 315227, Note_off_c, 0, 65, 0
3, 315227, Note_off_c, 0, 70, 0
3, 315360, Note_on_c, 0, 70, 82
3, 315360, Note_on_c, 0, 65, 82
3, 315360, Note_on_c, 0, 62, 82
3, 316006, Note_off_c, 0, 62, 0
3, 316006, Note_off_c, 0, 65, 0
3, 316006, Note_off_c, 0, 70, 0
3, 316800, Note_on_c, 0, 67, 86
3, 316800, Note_on_c, 0, 63, 86
3, 316800, Note_on_c, 0, 58, 86
3, 316800, Note_on_c, 0, 55, 86
3, 317015, Note_off_c, 0, 55, 0
3, 317015, Note_off_c, 0, 58, 0
3, 317015, Note_off_c, 0, 63, 0
3, 317015, Note_off_c, 0, 67, 0
3, 317040, Note_on_c, 0, 67, 86
3, 317255, Note_off_c, 0, 67, 0
3, 317280, Note_on_c, 0, 63, 86
3, 317495, Note_off_c, 0, 63, 0
3, 317520, Note_on_c, 0, 70, 86
3, 317520, Note_on_c, 0, 58, 86
3, 317627, Note_off_c, 0, 58, 0
3, 317627, Note_off_c, 0, 70, 0
3, 317760, Note_on_c, 0, 70, 86
3, 317975, Note_off_c, 0, 70, 0
3, 318000, Note_on_c, 0, 67, 86
3, 318215, Note_off_c, 0, 67, 0
3, 318240, Note_on_c, 0, 75, 86
3, 318240, Note_on_c, 0, 67, 86
3, 318347, Note_off_c, 0, 67, 0
3, 318347, Note_off_c, 0, 75, 0
3, 318480, Note_on_c, 0, 75, 86
3, 318695, Note_off_c, 0, 75, 0
3, 318720, Note_on_c, 0, 70, 86
3, 318935, Note_off_c, 0, 70, 0
3, 318960, Note_on_c, 0, 79, 86
3, 318960, Note_on_c, 0, 70, 86
3, 319067, Note_off_c, 0, 70, 0
3, 319067, Note_off_c, 0, 79, 0
3, 319200, Note_on_c, 0, 79, 86
3, 319415, Note_off_c, 0, 79, 0
3, 319440, Note_on_c, 0, 75, 86
3, 319655, Note_off_c, 0, 75, 0
3, 319680, Note_on_c, 0, 77, 86
3, 319895, Note_off_c, 0, 77, 0
3, 319920, Note_on_c, 0, 74, 86
3, 319920, Note_on_c, 0, 70, 86
3, 319920, Note_on_c, 0, 65, 86
3, 320135, Note_off_c, 0, 65, 0
3, 320135, Note_off_c, 0, 70, 0
3, 320135, Note_off_c, 0, 74, 0
3, 320160, Note_on_c, 0, 74, 86
3, 320160, Note_on_c, 0, 70, 86
3, 320160, Note_on_c, 0, 65, 86
3, 320267, Note_off_c, 0, 65, 0
3, 320267, Note_off_c, 0, 70, 0
3, 320267, Note_off_c, 0, 74, 0
3, 320400, Note_on_c, 0, 76, 86
3, 320615, Note_off_c, 0, 76, 0
3, 320640, Note_on_c, 0, 73, 86
3, 320640, Note_on_c, 0, 70, 86
3, 320640, Note_on_c, 0, 64, 86
3, 320855, Note_off_c, 0, 64, 0
3, 320855, Note_off_c, 0, 70, 0
3, 320880, Note_on_c, 0, 73, 86
3, 320880, Note_on_c, 0, 70, 86
3, 320880, Note_on_c, 0, 64, 86
3, 320987, Note_off_c, 0, 64, 0
3, 320987, Note_off_c, 0, 70, 0
3, 320987, Note_off_c, 0, 73, 0
3, 321120, Note_on_c, 0, 77, 86
3, 321335, Note_off_c, 0, 77, 0
3, 321360, Note_on_c, 0, 74, 86
3, 321360, Note_on_c, 0, 70, 86
3, 321360, Note_on_c, 0, 65, 86
3, 321575, Note_off_c, 0, 65, 0
3, 321575, Note_off_c, 0, 70, 0
3, 321575, Note_off_c, 0, 74, 0
3, 321600, Note_on_c, 0, 74, 86
3, 321600, Note_on_c, 0, 70, 86
3, 321600, Note_on_c, 0, 65, 86
3, 321707, Note_off_c, 0, 65, 0
3, 321707, Note_off_c, 0, 70, 0
3, 321707, Note_off_c, 0, 74, 0
3, 321840, Note_on_c, 0, 76, 86
3, 322055, Note_off_c, 0, 76, 0
3, 322080, Note_on_c, 0, 73, 86
3, 322080, Note_on_c, 0, 70, 86
3, 322080, Note_on_c, 0, 64, 86
3, 322295, Note_off_c, 0, 64, 0
3, 322295, Note_off_c, 0, 70, 0
3, 322295, Note_off_c, 0, 73, 0
3, 322320, Note_on_c, 0, 73, 86
3, 322320, Note_on_c, 0, 70, 86
3, 322320, Note_on_c, 0, 64, 86
3, 322427, Note_off_c, 0, 64, 0
3, 322427, Note_off_c, 0, 70, 0
3, 322427, Note_off_c, 0, 73, 0
3, 322560, Note_on_c, 0, 77, 86
3, 322775, Note_off_c, 0, 77, 0
3, 322800, Note_on_c, 0, 74, 86
3, 322800, Note_on_c, 0, 70, 86
3, 322800, Note_on_c, 0, 65, 86
3, 323015, Note_off_c, 0, 65, 0
3, 323015, Note_off_c, 0, 70, 0
3, 323015, Note_off_c, 0, 74, 0
3, 323040, Note_on_c, 0, 74, 86
3, 323040, Note_on_c, 0, 70, 86
3, 323040, Note_on_c, 0, 65, 86
3, 323147, Note_off_c, 0, 65, 0
3, 323147, Note_off_c, 0, 70, 0
3, 323147, Note_off_c, 0, 74, 0
3, 323280, Note_on_c, 0, 82, 86
3, 323495, Note_off_c, 0, 82, 0
3, 323520, Note_on_c, 0, 77, 86
3, 323520, Note_on_c, 0, 74, 86
3, 323520, Note_on_c, 0, 70, 86
3, 323735, Note_off_c, 0, 70, 0
3, 323735, Note_off_c, 0, 74, 0
3, 323735, Note_off_c, 0, 77, 0
3, 323760, Note_on_c, 0, 77, 86
3, 323760, Note_on_c, 0, 74, 86
3, 323760, Note_on_c, 0, 70, 86
3, 323867, Note_off_c, 0, 70, 0
3, 323867, Note_off_c, 0, 74, 0
3, 323867, Note_off_c, 0, 77, 0
3, 324000, Note_on_c, 0, 86, 86
3, 324215, Note_off_c, 0, 86, 0
3, 324240, Note_on_c, 0, 82, 86
3, 324240, Note_on_c, 0, 77, 86
3, 324240, Note_on_c, 0, 74, 86
3, 324455, Note_off_c, 0, 74, 0
3, 324455, Note_off_c, 0, 77, 0
3, 324455, Note_off_c, 0, 82, 0
3, 324480, Note_on_c, 0, 82, 86
3, 324480, Note_on_c, 0, 77, 86
3, 324480, Note_on_c, 0, 74, 86
3, 324587, Note_off_c, 0, 74, 0
3, 324587, Note_off_c, 0, 77, 0
3, 324587, Note_off_c, 0, 82, 0
3, 324720, Note_on_c, 0, 89, 86
3, 324935, Note_off_c, 0, 89, 0
3, 324960, Note_on_c, 0, 86, 86
3, 324960, Note_on_c, 0, 82, 86
3, 324960, Note_on_c, 0, 77, 86
3, 325175, Note_off_c, 0, 77, 0
3, 325175, Note_off_c, 0, 82, 0
3, 325175, Note_off_c, 0, 86, 0
3, 325200, Note_on_c, 0, 86, 86
3, 325200, Note_on_c, 0, 82, 86
3, 325200, Note_on_c, 0, 77, 86
3, 325307, Note_off_c, 0, 77, 0
3, 325307, Note_off_c, 0, 82, 0
3, 325307, Note_off_c, 0, 86, 0
3, 325440, Note_on_c, 0, 74, 86
3, 325547, Note_off_c, 0, 74, 0
3, 325680, Note_on_c, 0, 89, 86
3, 325895, Note_off_c, 0, 89, 0
3, 325920, Note_on_c, 0, 86, 86
3, 326135, Note_off_c, 0, 86, 0
3, 326160, Note_on_c, 0, 82, 86
3, 326375, Note_off_c, 0, 82, 0
3, 326400, Note_on_c, 0, 77, 86
3, 326615, Note_off_c, 0, 77, 0
3, 326640, Note_on_c, 0, 74, 86
3, 326855, Note_off_c, 0, 74, 0
3, 326880, Note_on_c, 0, 72, 86
3, 326987, Note_off_c, 0, 72, 0
3, 327120, Note_on_c, 0, 87, 86
3, 327335, Note_off_c, 0, 87, 0
3, 327360, Note_on_c, 0, 84, 86
3, 327575, Note_off_c, 0, 84, 0
3, 327600, Note_on_c, 0, 81, 86
3, 327815, Note_off_c, 0, 81, 0
3, 327840, Note_on_c, 0, 77, 86
3, 328055, Note_off_c, 0, 77, 0
3, 328080, Note_on_c, 0, 75, 86
3, 328295, Note_off_c, 0, 75, 0
3, 328320, Note_on_c, 0, 74, 84
3, 328427, Note_off_c, 0, 74, 0
3, 328560, Note_on_c, 0, 89, 84
3, 328667, Note_off_c, 0, 89, 0
3, 328680, Note_on_c, 0, 87, 84
3, 328787, Note_off_c, 0, 87, 0
3, 328800, Note_on_c, 0, 86, 84
3, 328907, Note_off_c, 0, 86, 0
3, 328920, Note_on_c, 0, 84, 84
3, 329027, Note_off_c, 0, 84, 0
3, 329040, Note_on_c, 0, 82, 84
3, 329147, Note_off_c, 0, 82, 0
3, 329160, Note_on_c, 0, 81, 84
3, 329267, Note_off_c, 0, 81, 0
3, 329280, Note_on_c, 0, 79, 84
3, 329387, Note_off_c, 0, 79, 0
3, 329400, Note_on_c, 0, 77, 84
3, 329507, Note_off_c, 0, 77, 0
3, 329520, Note_on_c, 0, 75, 84
3, 329627, Note_off_c, 0, 75, 0
3, 329640, Note_on_c, 0, 74, 84
3, 329747, Note_off_c, 0, 74, 0
3, 329760, Note_on_c, 0, 72, 84
3, 329867, Note_off_c, 0, 72, 0
3, 330000, Note_on_c, 0, 79, 84
3, 330107, Note_off_c, 0, 79, 0
3, 330120, Note_on_c, 0, 77, 84
3, 330227, Note_off_c, 0, 77, 0
3, 330240, Note_on_c, 0, 75, 84
3, 330347, Note_off_c, 0, 75, 0
3, 330360, Note_on_c, 0, 74, 84
3, 330467, Note_off_c, 0, 74, 0
3, 330480, Note_on_c, 0, 72, 84
3, 330587, Note_off_c, 0, 72, 0
3, 330600, Note_on_c, 0, 70, 84
3, 330707, Note_off_c, 0, 70, 0
3, 330720, Note_on_c, 0, 69, 84
3, 330827, Note_off_c, 0, 69, 0
3, 330840, Note_on_c, 0, 67, 84
3, 330947, Note_off_c, 0, 67, 0
3, 330960, Note_on_c, 0, 65, 84
3, 331067, Note_off_c, 0, 65, 0
3, 331080, Note_on_c, 0, 63, 84
3, 331187, Note_off_c, 0, 63, 0
3, 331200, Note_on_c, 0, 62, 84
3, 331307, Note_off_c, 0, 62, 0
3, 331440, Note_on_c, 0, 65, 84
3, 331547, Note_off_c, 0, 65, 0
3, 331680, Note_on_c, 0, 70, 84
3, 331787, Note_off_c, 0, 70, 0
3, 331920, Note_on_c, 0, 74, 84
3, 332027, Note_off_c, 0, 74, 0
3, 332160, Note_on_c, 0, 77, 84
3, 332267, Note_off_c, 0, 77, 0
3, 332400, Note_on_c, 0, 82, 84
3, 332507, Note_off_c, 0, 82, 0
3, 332640, Note_on_c, 0, 77, 86
3, 332640, Note_on_c, 0, 74, 86
3, 332640, Note_on_c, 0, 70, 86
3, 332747, Note_off_c, 0, 70, 0
3, 332747, Note_off_c, 0, 74, 0
3, 332747, Note_off_c, 0, 77, 0
3, 332760, Note_on_c, 0, 82, 86
3, 332867, Note_off_c, 0, 82, 0
3, 332880, Note_on_c, 0, 77, 86
3, 332880, Note_on_c, 0, 74, 86
3, 332880, Note_on_c, 0, 70, 86
3, 332987, Note_off_c, 0, 70, 0
3, 332987, Note_off_c, 0, 74, 0
3, 332987, Note_off_c, 0, 77, 0
3, 333000, Note_on_c, 0, 82, 86
3, 333107, Note_off_c, 0, 82, 0
3, 333120, Note_on_c, 0, 77, 86
3, 333120, Note_on_c, 0, 74, 86
3, 333120, Note_on_c, 0, 70, 86
3, 333227, Note_off_c, 0, 70, 0
3, 333227, Note_off_c, 0, 74, 0
3, 333227, Note_off_c, 0, 77, 0
3, 333240, Note_on_c, 0, 82, 86
3, 333347, Note_off_c, 0, 82, 0
3, 333360, Note_on_c, 0, 77, 86
3, 333360, Note_on_c, 0, 74, 86
3, 333360, Note_on_c, 0, 70, 86
3, 333467, Note_off_c, 0, 70, 0
3, 333467, Note_off_c, 0, 74, 0
3, 333467, Note_off_c, 0, 77, 0
3, 333480, Note_on_c, 0, 82, 86
3, 333587, Note_off_c, 0, 82, 0
3, 333600, Note_on_c, 0, 77, 86
3, 333600, Note_on_c, 0, 74, 86
3, 333600, Note_on_c, 0, 70, 86
3, 333707, Note_off_c, 0, 70, 0
3, 333707, Note_off_c, 0, 74, 0
3, 333707, Note_off_c, 0, 77, 0
3, 333720, Note_on_c, 0, 82, 86
3, 333827, Note_off_c, 0, 82, 0
3, 333840, Note_on_c, 0, 77, 86
3, 333840, Note_on_c, 0, 74, 86
3, 333840, Note_on_c, 0, 70, 86
3, 333947, Note_off_c, 0, 70, 0
3, 333947, Note_off_c, 0, 74, 0
3, 333947, Note_off_c, 0, 77, 0
3, 333960, Note_on_c, 0, 82, 86
3, 334067, Note_off_c, 0, 82, 0
3, 334080, Note_on_c, 0, 77, 86
3, 334080, Note_on_c, 0, 75, 86
3, 334080, Note_on_c, 0, 72, 86
3, 334187, Note_off_c, 0, 72, 0
3, 334187, Note_off_c, 0, 75, 0
3, 334187, Note_off_c, 0, 77, 0
3, 334200, Note_on_c, 0, 81, 86
3, 334307, Note_off_c, 0, 81, 0
3, 334320, Note_on_c, 0, 77, 86
3, 334320, Note_on_c, 0, 75, 86
3, 334320, Note_on_c, 0, 72, 86
3, 334427, Note_off_c, 0, 72, 0
3, 334427, Note_off_c, 0, 75, 0
3, 334427, Note_off_c, 0, 77, 0
3, 334440, Note_on_c, 0, 81, 86
3, 334547, Note_off_c, 0, 81, 0
3, 334560, Note_on_c, 0, 77, 86
3, 334560, Note_on_c, 0, 75, 86
3, 334560, Note_on_c, 0, 72, 86
3, 334667, Note_off_c, 0, 72, 0
3, 334667, Note_off_c, 0, 75, 0
3, 334667, Note_off_c, 0, 77, 0
3, 334680, Note_on_c, 0, 81, 86
3, 334787, Note_off_c, 0, 81, 0
3, 334800, Note_on_c, 0, 77, 86
3, 334800, Note_on_c, 0, 75, 86
3, 334800, Note_on_c, 0, 72, 86
3, 334907, Note_off_c, 0, 72, 0
3, 334907, Note_off_c, 0, 75, 0
3, 334907, Note_off_c, 0, 77, 0
3, 334920, Note_on_c, 0, 81, 86
3, 335027, Note_off_c, 0, 81, 0
3, 335040, Note_on_c, 0, 77, 86
3, 335040, Note_on_c, 0, 75, 86
3, 335040, Note_on_c, 0, 72, 86
3, 335147, Note_off_c, 0, 72, 0
3, 335147, Note_off_c, 0, 75, 0
3, 335147, Note_off_c, 0, 77, 0
3, 335160, Note_on_c, 0, 81, 86
3, 335267, Note_off_c, 0, 81, 0
3, 335280, Note_on_c, 0, 77, 86
3, 335280, Note_on_c, 0, 75, 86
3, 335280, Note_on_c, 0, 72, 86
3, 335387, Note_off_c, 0, 72, 0
3, 335387, Note_off_c, 0, 75, 0
3, 335387, Note_off_c, 0, 77, 0
3, 335400, Note_on_c, 0, 81, 86
3, 335507, Note_off_c, 0, 81, 0
3, 335520, Note_on_c, 0, 82, 79
3, 335520, Note_on_c, 0, 77, 79
3, 335520, Note_on_c, 0, 74, 79
3, 335951, Note_off_c, 0, 74, 0
3, 335951, Note_off_c, 0, 77, 0
3, 335951, Note_off_c, 0, 82, 0
3, 336000, Note_on_c, 0, 82, 79
3, 336000, Note_on_c, 0, 77, 79
3, 336000, Note_on_c, 0, 74, 79
3, 336215, Note_off_c, 0, 74, 0
3, 336215, Note_off_c, 0, 77, 0
3, 336215, Note_off_c, 0, 82, 0
3, 336240, Note_on_c, 0, 81, 79
3, 336240, Note_on_c, 0, 77, 79
3, 336240, Note_on_c, 0, 72, 79
3, 336671, Note_off_c, 0, 72, 0
3, 336671, Note_off_c, 0, 77, 0
3, 336671, Note_off_c, 0, 81, 0
3, 336720, Note_on_c, 0, 81, 79
3, 336720, Note_on_c, 0, 77, 79
3, 336720, Note_on_c, 0, 72, 79
3, 336935, Note_off_c, 0, 72, 0
3, 336935, Note_off_c, 0, 77, 0
3, 336935, Note_off_c, 0, 81, 0
3, 336960, Note_on_c, 0, 82, 79
3, 336960, Note_on_c, 0, 77, 79
3, 336960, Note_on_c, 0, 74, 79
3, 337391, Note_off_c, 0, 74, 0
3, 337391, Note_off_c, 0, 77, 0
3, 337391, Note_off_c, 0, 82, 0
3, 337440, Note_on_c, 0, 82, 79
3, 337440, Note_on_c, 0, 77, 79
3, 337440, Note_on_c, 0, 74, 79
3, 337655, Note_off_c, 0, 74, 0
3, 337655, Note_off_c, 0, 77, 0
3, 337655, Note_off_c, 0, 82, 0
3, 337680, Note_on_c, 0, 81, 79
3, 337680, Note_on_c, 0, 77, 79
3, 337680, Note_on_c, 0, 72, 79
3, 338111, Note_off_c, 0, 72, 0
3, 338111, Note_off_c, 0, 77, 0
3, 338111, Note_off_c, 0, 81, 0
3, 338160, Note_on_c, 0, 81, 79
3, 338160, Note_on_c, 0, 77, 79
3, 338160, Note_on_c, 0, 72, 79
3, 338267, Note_off_c, 0, 72, 0
3, 338267, Note_off_c, 0, 77, 0
3, 338267, Note_off_c, 0, 81, 0
3, 338400, Note_on_c, 0, 70, 52
3, 338507, Note_off_c, 0, 70, 0
3, 338520, Note_on_c, 0, 82, 52
3, 338627, Note_off_c, 0, 82, 0
3, 338640, Note_on_c, 0, 70, 52
3, 338747, Note_off_c, 0, 70, 0
3, 338760, Note_on_c, 0, 82, 52
3, 338867, Note_off_c, 0, 82, 0
3, 338880, Note_on_c, 0, 70, 52
3, 338987, Note_off_c, 0, 70, 0
3, 339000, Note_on_c, 0, 82, 52
3, 339107, Note_off_c, 0, 82, 0
3, 339120, Note_on_c, 0, 70, 52
3, 339227, Note_off_c, 0, 70, 0
3, 339240, Note_on_c, 0, 82, 52
3, 339347, Note_off_c, 0, 82, 0
3, 339360, Note_on_c, 0, 70, 52
3, 339467, Note_off_c, 0, 70, 0
3, 339480, Note_on_c, 0, 82, 52
3, 339587, Note_off_c, 0, 82, 0
3, 339600, Note_on_c, 0, 70, 52
3, 339707, Note_off_c, 0, 70, 0
3, 339720, Note_on_c, 0, 82, 52
3, 339827, Note_off_c, 0, 82, 0
3, 339840, Note_on_c, 0, 70, 52
3, 339947, Note_off_c, 0, 70, 0
3, 339960, Note_on_c, 0, 82, 52
3, 340067, Note_off_c, 0, 82, 0
3, 340080, Note_on_c, 0, 70, 52
3, 340187, Note_off_c, 0, 70, 0
3, 340200, Note_on_c, 0, 82, 52
3, 340307, Note_off_c, 0, 82, 0
3, 340320, Note_on_c, 0, 70, 52
3, 340427, Note_off_c, 0, 70, 0
3, 340440, Note_on_c, 0, 82, 52
3, 340547, Note_off_c, 0, 82, 0
3, 340560, Note_on_c, 0, 70, 52
3, 340667, Note_off_c, 0, 70, 0
3, 340680, Note_on_c, 0, 82, 52
3, 340787, Note_off_c, 0, 82, 0
3, 340800, Note_on_c, 0, 70, 52
3, 340907, Note_off_c, 0, 70, 0
3, 340920, Note_on_c, 0, 82, 52
3, 341027, Note_off_c, 0, 82, 0
3, 341040, Note_on_c, 0, 70, 52
3, 341147, Note_off_c, 0, 70, 0
3, 341160, Note_on_c, 0, 82, 52
3, 341267, Note_off_c, 0, 82, 0
3, 341280, Note_on_c, 0, 70, 52
3, 341387, Note_off_c, 0, 70, 0
3, 341400, Note_on_c, 0, 82, 52
3, 341507, Note_off_c, 0, 82, 0
3, 341520, Note_on_c, 0, 70, 52
3, 341627, Note_off_c, 0, 70, 0
3, 341640, Note_on_c, 0, 82, 52
3, 341747, Note_off_c, 0, 82, 0
3, 341760, Note_on_c, 0, 70, 52
3, 341867, Note_off_c, 0, 70, 0
3, 341880, Note_on_c, 0, 82, 52
3, 341987, Note_off_c, 0, 82, 0
3, 342000, Note_on_c, 0, 70, 52
3, 342107, Note_off_c, 0, 70, 0
3, 342120, Note_on_c, 0, 82, 52
3, 342227, Note_off_c, 0, 82, 0
3, 342240, Note_on_c, 0, 70, 52
3, 342347, Note_off_c, 0, 70, 0
3, 342360, Note_on_c, 0, 82, 52
3, 342467, Note_off_c, 0, 82, 0
3, 342480, Note_on_c, 0, 70, 52
3, 342587, Note_off_c, 0, 70, 0
3, 342600, Note_on_c, 0, 82, 52
3, 342707, Note_off_c, 0, 82, 0
3, 342720, Note_on_c, 0, 70, 52
3, 342827, Note_off_c, 0, 70, 0
3, 342840, Note_on_c, 0, 82, 52
3, 342947, Note_off_c, 0, 82, 0
3, 342960, Note_on_c, 0, 70, 52
3, 343067, Note_off_c, 0, 70, 0
3, 343080, Note_on_c, 0, 82, 52
3, 343187, Note_off_c, 0, 82, 0
3, 343200, Note_on_c, 0, 70, 52
3, 343307, Note_off_c, 0, 70, 0
3, 343320, Note_on_c, 0, 82, 52
3, 343427, Note_off_c, 0, 82, 0
3, 343440, Note_on_c, 0, 70, 52
3, 343547, Note_off_c, 0, 70, 0
3, 343560, Note_on_c, 0, 82, 52
3, 343667, Note_off_c, 0, 82, 0
3, 343680, Note_on_c, 0, 70, 52
3, 343787, Note_off_c, 0, 70, 0
3, 343800, Note_on_c, 0, 82, 52
3, 343907, Note_off_c, 0, 82, 0
3, 343920, Note_on_c, 0, 70, 52
3, 344027, Note_off_c, 0, 70, 0
3, 344040, Note_on_c, 0, 82, 52
3, 344147, Note_off_c, 0, 82, 0
3, 344160, Note_on_c, 0, 70, 52
3, 344267, Note_off_c, 0, 70, 0
3, 344280, Note_on_c, 0, 82, 52
3, 344387, Note_off_c, 0, 82, 0
3, 344400, Note_on_c, 0, 70, 52
3, 344507, Note_off_c, 0, 70, 0
3, 344520, Note_on_c, 0, 82, 52
3, 344627, Note_off_c, 0, 82, 0
3, 344640, Note_on_c, 0, 70, 52
3, 344747, Note_off_c, 0, 70, 0
3, 344760, Note_on_c, 0, 82, 52
3, 344867, Note_off_c, 0, 82, 0
3, 344880, Note_on_c, 0, 70, 52
3, 344987, Note_off_c, 0, 70, 0
3, 345000, Note_on_c, 0, 82, 52
3, 345107, Note_off_c, 0, 82, 0
3, 345120, Note_on_c, 0, 70, 52
3, 345227, Note_off_c, 0, 70, 0
3, 345240, Note_on_c, 0, 82, 52
3, 345347, Note_off_c, 0, 82, 0
3, 345360, Note_on_c, 0, 70, 52
3, 345467, Note_off_c, 0, 70, 0
3, 345480, Note_on_c, 0, 82, 52
3, 345587, Note_off_c, 0, 82, 0
3, 345600, Note_on_c, 0, 70, 52
3, 345707, Note_off_c, 0, 70, 0
3, 345720, Note_on_c, 0, 82, 52
3, 345827, Note_off_c, 0, 82, 0
3, 345840, Note_on_c, 0, 70, 52
3, 345947, Note_off_c, 0, 70, 0
3, 345960, Note_on_c, 0, 82, 52
3, 346067, Note_off_c, 0, 82, 0
3, 346080, Note_on_c, 0, 70, 52
3, 346187, Note_off_c, 0, 70, 0
3, 346200, Note_on_c, 0, 82, 52
3, 346307, Note_off_c, 0, 82, 0
3, 346320, Note_on_c, 0, 70, 52
3, 346427, Note_off_c, 0, 70, 0
3, 346440, Note_on_c, 0, 82, 52
3, 346547, Note_off_c, 0, 82, 0
3, 346560, Note_on_c, 0, 70, 52
3, 346667, Note_off_c, 0, 70, 0
3, 346680, Note_on_c, 0, 82, 52
3, 346787, Note_off_c, 0, 82, 0
3, 346800, Note_on_c, 0, 70, 52
3, 346907, Note_off_c, 0, 70, 0
3, 346920, Note_on_c, 0, 82, 52
3, 347027, Note_off_c, 0, 82, 0
3, 347040, Note_on_c, 0, 70, 52
3, 347147, Note_off_c, 0, 70, 0
3, 347160, Note_on_c, 0, 82, 52
3, 347267, Note_off_c, 0, 82, 0
3, 347280, Note_on_c, 0, 70, 52
3, 347387, Note_off_c, 0, 70, 0
3, 347400, Note_on_c, 0, 82, 52
3, 347507, Note_off_c, 0, 82, 0
3, 347520, Note_on_c, 0, 70, 52
3, 347627, Note_off_c, 0, 70, 0
3, 347640, Note_on_c, 0, 82, 52
3, 347747, Note_off_c, 0, 82, 0
3, 347760, Note_on_c, 0, 70, 52
3, 347867, Note_off_c, 0, 70, 0
3, 347880, Note_on_c, 0, 82, 52
3, 347987, Note_off_c, 0, 82, 0
3, 348000, Note_on_c, 0, 70, 52
3, 348107, Note_off_c, 0, 70, 0
3, 348120, Note_on_c, 0, 82, 52
3, 348227, Note_off_c, 0, 82, 0
3, 348240, Note_on_c, 0, 70, 52
3, 348347, Note_off_c, 0, 70, 0
3, 348360, Note_on_c, 0, 82, 52
3, 348467, Note_off_c, 0, 82, 0
3, 348480, Note_on_c, 0, 70, 52
3, 348587, Note_off_c, 0, 70, 0
3, 348600, Note_on_c, 0, 82, 52
3, 348707, Note_off_c, 0, 82, 0
3, 348720, Note_on_c, 0, 70, 52
3, 348827, Note_off_c, 0, 70, 0
3, 348840, Note_on_c, 0, 82, 52
3, 348947, Note_off_c, 0, 82, 0
3, 348960, Note_on_c, 0, 70, 52
3, 349067, Note_off_c, 0, 70, 0
3, 349080, Note_on_c, 0, 82, 52
3, 349187, Note_off_c, 0, 82, 0
3, 349200, Note_on_c, 0, 70, 52
3, 349307, Note_off_c, 0, 70, 0
3, 349320, Note_on_c, 0, 82, 52
3, 349427, Note_off_c, 0, 82, 0
3, 349440, Note_on_c, 0, 70, 52
3, 349547, Note_off_c, 0, 70, 0
3, 349560, Note_on_c, 0, 82, 52
3, 349667, Note_off_c, 0, 82, 0
3, 349680, Note_on_c, 0, 70, 52
3, 349787, Note_off_c, 0, 70, 0
3, 349800, Note_on_c, 0, 82, 52
3, 349907, Note_off_c, 0, 82, 0
3, 349920, Note_on_c, 0, 70, 52
3, 350027, Note_off_c, 0, 70, 0
3, 350040, Note_on_c, 0, 82, 52
3, 350147, Note_off_c, 0, 82, 0
3, 350160, Note_on_c, 0, 70, 52
3, 350267, Note_off_c, 0, 70, 0
3, 350280, Note_on_c, 0, 82, 52
3, 350387, Note_off_c, 0, 82, 0
3, 350400, Note_on_c, 0, 70, 52
3, 350507, Note_off_c, 0, 70, 0
3, 350520, Note_on_c, 0, 82, 52
3, 350627, Note_off_c, 0, 82, 0
3, 350640, Note_on_c, 0, 70, 52
3, 350747, Note_off_c, 0, 70, 0
3, 350760, Note_on_c, 0, 82, 52
3, 350867, Note_off_c, 0, 82, 0
3, 350880, Note_on_c, 0, 70, 52
3, 350987, Note_off_c, 0, 70, 0
3, 351000, Note_on_c, 0, 82, 52
3, 351107, Note_off_c, 0, 82, 0
3, 351120, Note_on_c, 0, 68, 52
3, 351227, Note_off_c, 0, 68, 0
3, 351240, Note_on_c, 0, 80, 52
3, 351347, Note_off_c, 0, 80, 0
3, 351360, Note_on_c, 0, 68, 52
3, 351467, Note_off_c, 0, 68, 0
3, 351480, Note_on_c, 0, 80, 52
3, 351587, Note_off_c, 0, 80, 0
3, 351600, Note_on_c, 0, 67, 52
3, 351707, Note_off_c, 0, 67, 0
3, 351720, Note_on_c, 0, 79, 52
3, 351827, Note_off_c, 0, 79, 0
3, 351840, Note_on_c, 0, 67, 52
3, 351947, Note_off_c, 0, 67, 0
3, 351960, Note_on_c, 0, 79, 52
3, 352067, Note_off_c, 0, 79, 0
3, 352080, Note_on_c, 0, 67, 52
3, 352187, Note_off_c, 0, 67, 0
3, 352200, Note_on_c, 0, 79, 52
3, 352307, Note_off_c, 0, 79, 0
3, 352320, Note_on_c, 0, 67, 52
3, 352427, Note_off_c, 0, 67, 0
3, 352440, Note_on_c, 0, 79, 52
3, 352547, Note_off_c, 0, 79, 0
3, 352560, Note_on_c, 0, 67, 52
3, 352667, Note_off_c, 0, 67, 0
3, 352680, Note_on_c, 0, 79, 52
3, 352787, Note_off_c, 0, 79, 0
3, 352800, Note_on_c, 0, 67, 52
3, 352907, Note_off_c, 0, 67, 0
3, 352920, Note_on_c, 0, 79, 52
3, 353027, Note_off_c, 0, 79, 0
3, 353040, Note_on_c, 0, 67, 52
3, 353147, Note_off_c, 0, 67, 0
3, 353160, Note_on_c, 0, 79, 52
3, 353267, Note_off_c, 0, 79, 0
3, 353280, Note_on_c, 0, 67, 52
3, 353387, Note_off_c, 0, 67, 0
3, 353400, Note_on_c, 0, 79, 52
3, 353507, Note_off_c, 0, 79, 0
3, 353520, Note_on_c, 0, 67, 52
3, 353627, Note_off_c, 0, 67, 0
3, 353640, Note_on_c, 0, 79, 52
3, 353747, Note_off_c, 0, 79, 0
3, 353760, Note_on_c, 0, 67, 52
3, 353867, Note_off_c, 0, 67, 0
3, 353880, Note_on_c, 0, 79, 52
3, 353987, Note_off_c, 0, 79, 0
3, 354000, Note_on_c, 0, 67, 52
3, 354107, Note_off_c, 0, 67, 0
3, 354120, Note_on_c, 0, 79, 52
3, 354227, Note_off_c, 0, 79, 0
3, 354240, Note_on_c, 0, 67, 52
3, 354347, Note_off_c, 0, 67, 0
3, 354360, Note_on_c, 0, 79, 52
3, 354467, Note_off_c, 0, 79, 0
3, 354480, Note_on_c, 0, 67, 52
3, 354587, Note_off_c, 0, 67, 0
3, 354600, Note_on_c, 0, 79, 52
3, 354707, Note_off_c, 0, 79, 0
3, 354720, Note_on_c, 0, 67, 52
3, 354827, Note_off_c, 0, 67, 0
3, 354840, Note_on_c, 0, 79, 52
3, 354947, Note_off_c, 0, 79, 0
3, 354960, Note_on_c, 0, 67, 52
3, 355067, Note_off_c, 0, 67, 0
3, 355080, Note_on_c, 0, 79, 52
3, 355187, Note_off_c, 0, 79, 0
3, 355200, Note_on_c, 0, 67, 52
3, 355307, Note_off_c, 0, 67, 0
3, 355320, Note_on_c, 0, 79, 52
3, 355427, Note_off_c, 0, 79, 0
3, 355440, Note_on_c, 0, 67, 52
3, 355547, Note_off_c, 0, 67, 0
3, 355560, Note_on_c, 0, 79, 52
3, 355667, Note_off_c, 0, 79, 0
3, 355680, Note_on_c, 0, 67, 52
3, 355787, Note_off_c, 0, 67, 0
3, 355800, Note_on_c, 0, 79, 52
3, 355907, Note_off_c, 0, 79, 0
3, 355920, Note_on_c, 0, 67, 52
3, 356027, Note_off_c, 0, 67, 0
3, 356040, Note_on_c, 0, 79, 52
3, 356147, Note_off_c, 0, 79, 0
3, 356160, Note_on_c, 0, 67, 52
3, 356267, Note_off_c, 0, 67, 0
3, 356280, Note_on_c, 0, 79, 52
3, 356387, Note_off_c, 0, 79, 0
3, 356400, Note_on_c, 0, 67, 52
3, 356507, Note_off_c, 0, 67, 0
3, 356520, Note_on_c, 0, 79, 52
3, 356627, Note_off_c, 0, 79, 0
3, 356640, Note_on_c, 0, 67, 52
3, 356747, Note_off_c, 0, 67, 0
3, 356760, Note_on_c, 0, 79, 52
3, 356867, Note_off_c, 0, 79, 0
3, 356880, Note_on_c, 0, 67, 52
3, 356987, Note_off_c, 0, 67, 0
3, 357000, Note_on_c, 0, 79, 52
3, 357107, Note_off_c, 0, 79, 0
3, 357120, Note_on_c, 0, 67, 52
3, 357227, Note_off_c, 0, 67, 0
3, 357240, Note_on_c, 0, 79, 52
3, 357347, Note_off_c, 0, 79, 0
3, 357360, Note_on_c, 0, 67, 52
3, 357467, Note_off_c, 0, 67, 0
3, 357480, Note_on_c, 0, 79, 52
3, 357587, Note_off_c, 0, 79, 0
3, 357600, Note_on_c, 0, 67, 52
3, 357707, Note_off_c, 0, 67, 0
3, 357720, Note_on_c, 0, 79, 52
3, 357827, Note_off_c, 0, 79, 0
3, 357840, Note_on_c, 0, 67, 52
3, 357947, Note_off_c, 0, 67, 0
3, 357960, Note_on_c, 0, 79, 52
3, 358067, Note_off_c, 0, 79, 0
3, 358080, Note_on_c, 0, 67, 52
3, 358187, Note_off_c, 0, 67, 0
3, 358200, Note_on_c, 0, 79, 52
3, 358307, Note_off_c, 0, 79, 0
3, 358320, Note_on_c, 0, 66, 52
3, 358427, Note_off_c, 0, 66, 0
3, 358440, Note_on_c, 0, 78, 52
3, 358547, Note_off_c, 0, 78, 0
3, 358560, Note_on_c, 0, 65, 46
3, 358667, Note_off_c, 0, 65, 0
3, 358680, Note_on_c, 0, 77, 46
3, 358787, Note_off_c, 0, 77, 0
3, 358800, Note_on_c, 0, 65, 46
3, 358907, Note_off_c, 0, 65, 0
3, 358920, Note_on_c, 0, 77, 46
3, 359027, Note_off_c, 0, 77, 0
3, 359040, Note_on_c, 0, 65, 46
3, 359147, Note_off_c, 0, 65, 0
3, 359160, Note_on_c, 0, 77, 46
3, 359267, Note_off_c, 0, 77, 0
3, 359280, Note_on_c, 0, 65, 46
3, 359387, Note_off_c, 0, 65, 0
3, 359400, Note_on_c, 0, 77, 46
3, 359507, Note_off_c, 0, 77, 0
3, 359520, Note_on_c, 0, 65, 46
3, 359627, Note_off_c, 0, 65, 0
3, 359640, Note_on_c, 0, 77, 46
3, 359747, Note_off_c, 0, 77, 0
3, 359760, Note_on_c, 0, 65, 46
3, 359867, Note_off_c, 0, 65, 0
3, 359880, Note_on_c, 0, 77, 46
3, 359987, Note_off_c, 0, 77, 0
3, 360000, Note_on_c, 0, 65, 46
3, 360107, Note_off_c, 0, 65, 0
3, 360120, Note_on_c, 0, 77, 46
3, 360227, Note_off_c, 0, 77, 0
3, 360240, Note_on_c, 0, 65, 46
3, 360347, Note_off_c, 0, 65, 0
3, 360360, Note_on_c, 0, 77, 46
3, 360467, Note_off_c, 0, 77, 0
3, 360480, Note_on_c, 0, 65, 46
3, 360587, Note_off_c, 0, 65, 0
3, 360600, Note_on_c, 0, 77, 46
3, 360707, Note_off_c, 0, 77, 0
3, 360720, Note_on_c, 0, 65, 46
3, 360827, Note_off_c, 0, 65, 0
3, 360840, Note_on_c, 0, 77, 46
3, 360947, Note_off_c, 0, 77, 0
3, 360960, Note_on_c, 0, 65, 46
3, 361067, Note_off_c, 0, 65, 0
3, 361080, Note_on_c, 0, 77, 46
3, 361187, Note_off_c, 0, 77, 0
3, 361200, Note_on_c, 0, 65, 46
3, 361307, Note_off_c, 0, 65, 0
3, 361320, Note_on_c, 0, 77, 46
3, 361427, Note_off_c, 0, 77, 0
3, 361440, Note_on_c, 0, 65, 46
3, 361547, Note_off_c, 0, 65, 0
3, 361560, Note_on_c, 0, 77, 46
3, 361667, Note_off_c, 0, 77, 0
3, 361680, Note_on_c, 0, 65, 46
3, 361787, Note_off_c, 0, 65, 0
3, 361800, Note_on_c, 0, 77, 46
3, 361907, Note_off_c, 0, 77, 0
3, 361920, Note_on_c, 0, 65, 46
3, 362027, Note_off_c, 0, 65, 0
3, 362040, Note_on_c, 0, 77, 46
3, 362147, Note_off_c, 0, 77, 0
3, 362160, Note_on_c, 0, 65, 46
3, 362267, Note_off_c, 0, 65, 0
3, 362280, Note_on_c, 0, 77, 46
3, 362387, Note_off_c, 0, 77, 0
3, 362400, Note_on_c, 0, 65, 46
3, 362507, Note_off_c, 0, 65, 0
3, 362520, Note_on_c, 0, 77, 46
3, 362627, Note_off_c, 0, 77, 0
3, 362640, Note_on_c, 0, 65, 46
3, 362747, Note_off_c, 0, 65, 0
3, 362760, Note_on_c, 0, 77, 46
3, 362867, Note_off_c, 0, 77, 0
3, 362880, Note_on_c, 0, 65, 46
3, 362987, Note_off_c, 0, 65, 0
3, 363000, Note_on_c, 0, 77, 46
3, 363107, Note_off_c, 0, 77, 0
3, 363120, Note_on_c, 0, 65, 46
3, 363227, Note_off_c, 0, 65, 0
3, 363240, Note_on_c, 0, 77, 46
3, 363347, Note_off_c, 0, 77, 0
3, 363360, Note_on_c, 0, 65, 46
3, 363467, Note_off_c, 0, 65, 0
3, 363480, Note_on_c, 0, 77, 46
3, 363587, Note_off_c, 0, 77, 0
3, 363600, Note_on_c, 0, 69, 82
3, 363707, Note_off_c, 0, 69, 0
3, 363720, Note_on_c, 0, 72, 82
3, 363827, Note_off_c, 0, 72, 0
3, 363840, Note_on_c, 0, 75, 82
3, 363947, Note_off_c, 0, 75, 0
3, 363960, Note_on_c, 0, 77, 82
3, 364067, Note_off_c, 0, 77, 0
3, 364080, Note_on_c, 0, 79, 82
3, 364187, Note_off_c, 0, 79, 0
3, 364200, Note_on_c, 0, 81, 82
3, 364307, Note_off_c, 0, 81, 0
3, 364320, Note_on_c, 0, 82, 82
3, 364427, Note_off_c, 0, 82, 0
3, 364440, Note_on_c, 0, 84, 82
3, 364547, Note_off_c, 0, 84, 0
3, 364560, Note_on_c, 0, 86, 82
3, 364667, Note_off_c, 0, 86, 0
3, 364680, Note_on_c, 0, 87, 82
3, 364787, Note_off_c, 0, 87, 0
3, 364800, Note_on_c, 0, 89, 82
3, 364907, Note_off_c, 0, 89, 0
3, 364920, Note_on_c, 0, 87, 82
3, 365027, Note_off_c, 0, 87, 0
3, 365040, Note_on_c, 0, 86, 82
3, 365147, Note_off_c, 0, 86, 0
3, 365160, Note_on_c, 0, 84, 82
3, 365267, Note_off_c, 0, 84, 0
3, 365280, Note_on_c, 0, 82, 82
3, 365387, Note_off_c, 0, 82, 0
3, 365400, Note_on_c, 0, 81, 82
3, 365507, Note_off_c, 0, 81, 0
3, 365520, Note_on_c, 0, 79, 82
3, 365627, Note_off_c, 0, 79, 0
3, 365640, Note_on_c, 0, 77, 82
3, 365747, Note_off_c, 0, 77, 0
3, 365760, Note_on_c, 0, 75, 82
3, 365867, Note_off_c, 0, 75, 0
3, 365880, Note_on_c, 0, 74, 82
3, 365987, Note_off_c, 0, 74, 0
3, 366000, Note_on_c, 0, 72, 82
3, 366107, Note_off_c, 0, 72, 0
3, 366120, Note_on_c, 0, 70, 82
3, 366227, Note_off_c, 0, 70, 0
3, 366240, Note_on_c, 0, 69, 82
3, 366347, Note_off_c, 0, 69, 0
3, 366360, Note_on_c, 0, 67, 82
3, 366467, Note_off_c, 0, 67, 0
3, 366480, Note_on_c, 0, 65, 82
3, 366587, Note_off_c, 0, 65, 0
3, 366600, Note_on_c, 0, 63, 82
3, 366707, Note_off_c, 0, 63, 0
3, 366720, Note_on_c, 0, 62, 82
3, 366827, Note_off_c, 0, 62, 0
3, 366840, Note_on_c, 0, 60, 82
3, 366947, Note_off_c, 0, 60, 0
3, 366960, Note_on_c, 0, 58, 82
3, 367067, Note_off_c, 0, 58, 0
3, 367080, Note_on_c, 0, 57, 82
3, 367187, Note_off_c, 0, 57, 0
3, 368640, Note_on_c, 0, 60, 46
3, 369071, Note_off_c, 0, 60, 0
3, 369120, Note_on_c, 0, 58, 46
3, 369335, Note_off_c, 0, 58, 0
3, 369360, Note_on_c, 0, 58, 46
3, 369467, Note_off_c, 0, 58, 0
3, 369480, Note_on_c, 0, 57, 46
3, 369587, Note_off_c, 0, 57, 0
3, 369600, Note_on_c, 0, 58, 46
3, 369626, Note_off_c, 0, 58, 0
3, 369630, Note_on_c, 0, 57, 46
3, 369710, Note_off_c, 0, 57, 0
3, 369720, Note_on_c, 0, 56, 46
3, 369827, Note_off_c, 0, 56, 0
3, 369840, Note_on_c, 0, 57, 46
3, 369947, Note_off_c, 0, 57, 0
3, 369960, Note_on_c, 0, 60, 46
3, 370067, Note_off_c, 0, 60, 0
3, 370080, Note_on_c, 0, 58, 46
3, 370187, Note_off_c, 0, 58, 0
3, 370200, Note_on_c, 0, 53, 46
3, 370307, Note_off_c, 0, 53, 0
3, 370320, Note_on_c, 0, 50, 46
3, 370427, Note_off_c, 0, 50, 0
3, 370440, Note_on_c, 0, 53, 46
3, 370547, Note_off_c, 0, 53, 0
3, 370560, Note_on_c, 0, 58, 46
3, 370667, Note_off_c, 0, 58, 0
3, 370680, Note_on_c, 0, 62, 46
3, 370787, Note_off_c, 0, 62, 0
3, 370800, Note_on_c, 0, 62, 46
3, 370907, Note_off_c, 0, 62, 0
3, 370920, Note_on_c, 0, 58, 46
3, 371027, Note_off_c, 0, 58, 0
3, 371040, Note_on_c, 0, 53, 46
3, 371147, Note_off_c, 0, 53, 0
3, 371160, Note_on_c, 0, 58, 46
3, 371267, Note_off_c, 0, 58, 0
3, 371280, Note_on_c, 0, 62, 46
3, 371387, Note_off_c, 0, 62, 0
3, 371400, Note_on_c, 0, 65, 46
3, 371507, Note_off_c, 0, 65, 0
3, 371520, Note_on_c, 0, 65, 46
3, 371546, Note_off_c, 0, 65, 0
3, 371550, Note_on_c, 0, 63, 46
3, 371630, Note_off_c, 0, 63, 0
3, 371640, Note_on_c, 0, 62, 46
3, 371747, Note_off_c, 0, 62, 0
3, 371760, Note_on_c, 0, 65, 46
3, 371786, Note_off_c, 0, 65, 0
3, 371790, Note_on_c, 0, 63, 46
3, 371870, Note_off_c, 0, 63, 0
3, 371880, Note_on_c, 0, 62, 46
3, 371987, Note_off_c, 0, 62, 0
3, 372000, Note_on_c, 0, 65, 46
3, 372026, Note_off_c, 0, 65, 0
3, 372030, Note_on_c, 0, 63, 46
3, 372110, Note_off_c, 0, 63, 0
3, 372120, Note_on_c, 0, 62, 46
3, 372227, Note_off_c, 0, 62, 0
3, 372240, Note_on_c, 0, 65, 46
3, 372266, Note_off_c, 0, 65, 0
3, 372270, Note_on_c, 0, 63, 46
3, 372350, Note_off_c, 0, 63, 0
3, 372360, Note_on_c, 0, 62, 46
3, 372467, Note_off_c, 0, 62, 0
3, 372480, Note_on_c, 0, 63, 46
3, 372587, Note_off_c, 0, 63, 0
3, 372600, Note_on_c, 0, 67, 46
3, 372707, Note_off_c, 0, 67, 0
3, 372720, Note_on_c, 0, 65, 46
3, 372827, Note_off_c, 0, 65, 0
3, 372840, Note_on_c, 0, 63, 46
3, 372947, Note_off_c, 0, 63, 0
3, 372960, Note_on_c, 0, 62, 46
3, 373067, Note_off_c, 0, 62, 0
3, 373080, Note_on_c, 0, 65, 46
3, 373187, Note_off_c, 0, 65, 0
3, 373200, Note_on_c, 0, 67, 46
3, 373307, Note_off_c, 0, 67, 0
3, 373320, Note_on_c, 0, 69, 46
3, 373427, Note_off_c, 0, 69, 0
3, 373440, Note_on_c, 0, 70, 46
3, 373547, Note_off_c, 0, 70, 0
3, 373560, Note_on_c, 0, 72, 46
3, 373667, Note_off_c, 0, 72, 0
3, 373680, Note_on_c, 0, 74, 46
3, 374111, Note_off_c, 0, 74, 0
3, 374160, Note_on_c, 0, 77, 64
3, 374375, Note_off_c, 0, 77, 0
3, 374400, Note_on_c, 0, 77, 52
3, 374426, Note_off_c, 0, 77, 0
3, 374430, Note_on_c, 0, 75, 52
3, 374510, Note_off_c, 0, 75, 0
3, 374520, Note_on_c, 0, 74, 52
3, 374627, Note_off_c, 0, 74, 0
3, 374640, Note_on_c, 0, 77, 52
3, 374666, Note_off_c, 0, 77, 0
3, 374670, Note_on_c, 0, 75, 52
3, 374750, Note_off_c, 0, 75, 0
3, 374760, Note_on_c, 0, 74, 52
3, 374867, Note_off_c, 0, 74, 0
3, 374880, Note_on_c, 0, 77, 52
3, 374906, Note_off_c, 0, 77, 0
3, 374910, Note_on_c, 0, 75, 52
3, 374990, Note_off_c, 0, 75, 0
3, 375000, Note_on_c, 0, 74, 52
3, 375107, Note_off_c, 0, 74, 0
3, 375120, Note_on_c, 0, 77, 52
3, 375146, Note_off_c, 0, 77, 0
3, 375150, Note_on_c, 0, 75, 52
3, 375230, Note_off_c, 0, 75, 0
3, 375240, Note_on_c, 0, 74, 52
3, 375347, Note_off_c, 0, 74, 0
3, 375360, Note_on_c, 0, 75, 52
3, 375467, Note_off_c, 0, 75, 0
3, 375480, Note_on_c, 0, 79, 52
3, 375587, Note_off_c, 0, 79, 0
3, 375600, Note_on_c, 0, 77, 52
3, 375707, Note_off_c, 0, 77, 0
3, 375720, Note_on_c, 0, 75, 52
3, 375827, Note_off_c, 0, 75, 0
3, 375840, Note_on_c, 0, 74, 52
3, 375947, Note_off_c, 0, 74, 0
3, 375960, Note_on_c, 0, 77, 52
3, 376067, Note_off_c, 0, 77, 0
3, 376080, Note_on_c, 0, 79, 52
3, 376187, Note_off_c, 0, 79, 0
3, 376200, Note_on_c, 0, 81, 52
3, 376307, Note_off_c, 0, 81, 0
3, 376320, Note_on_c, 0, 82, 52
3, 376427, Note_off_c, 0, 82, 0
3, 376440, Note_on_c, 0, 84, 52
3, 376547, Note_off_c, 0, 84, 0
3, 376560, Note_on_c, 0, 86, 52
3, 376991, Note_off_c, 0, 86, 0
3, 377040, Note_on_c, 0, 89, 52
3, 377255, Note_off_c, 0, 89, 0
3, 377280, Note_on_c, 0, 79, 64
3, 377280, Note_on_c, 0, 89, 64
3, 377387, Note_off_c, 0, 89, 0
3, 377400, Note_on_c, 0, 87, 64
3, 377507, Note_off_c, 0, 87, 0
3, 377520, Note_on_c, 0, 89, 64
3, 377627, Note_off_c, 0, 89, 0
3, 377640, Note_on_c, 0, 87, 64
3, 377747, Note_off_c, 0, 87, 0
3, 377760, Note_on_c, 0, 86, 64
3, 377867, Note_off_c, 0, 86, 0
3, 377880, Note_on_c, 0, 87, 64
3, 377926, Note_off_c, 0, 79, 0
3, 377987, Note_off_c, 0, 87, 0
3, 378000, Note_on_c, 0, 81, 64
3, 378000, Note_on_c, 0, 89, 64
3, 378107, Note_off_c, 0, 89, 0
3, 378120, Note_on_c, 0, 87, 64
3, 378227, Note_off_c, 0, 87, 0
3, 378240, Note_on_c, 0, 89, 64
3, 378347, Note_off_c, 0, 89, 0
3, 378360, Note_on_c, 0, 87, 64
3, 378467, Note_off_c, 0, 87, 0
3, 378480, Note_on_c, 0, 86, 64
3, 378587, Note_off_c, 0, 86, 0
3, 378600, Note_on_c, 0, 87, 64
3, 378646, Note_off_c, 0, 81, 0
3, 378707, Note_off_c, 0, 87, 0
3, 378720, Note_on_c, 0, 86, 89
3, 378720, Note_on_c, 0, 82, 89
3, 378827, Note_off_c, 0, 82, 0
3, 378827, Note_off_c, 0, 86, 0
3, 378840, Note_on_c, 0, 89, 89
3, 378947, Note_off_c, 0, 89, 0
3, 378960, Note_on_c, 0, 87, 89
3, 379067, Note_off_c, 0, 87, 0
3, 379080, Note_on_c, 0, 86, 89
3, 379187, Note_off_c, 0, 86, 0
3, 379200, Note_on_c, 0, 84, 89
3, 379307, Note_off_c, 0, 84, 0
3, 379320, Note_on_c, 0, 82, 89
3, 379427, Note_off_c, 0, 82, 0
3, 379440, Note_on_c, 0, 81, 89
3, 379547, Note_off_c, 0, 81, 0
3, 379560, Note_on_c, 0, 79, 89
3, 379667, Note_off_c, 0, 79, 0
3, 379680, Note_on_c, 0, 77, 89
3, 379787, Note_off_c, 0, 77, 0
3, 379800, Note_on_c, 0, 75, 89
3, 379907, Note_off_c, 0, 75, 0
3, 379920, Note_on_c, 0, 74, 89
3, 380027, Note_off_c, 0, 74, 0
3, 380040, Note_on_c, 0, 72, 89
3, 380147, Note_off_c, 0, 72, 0
3, 380160, Note_on_c, 0, 70, 89
3, 380267, Note_off_c, 0, 70, 0
3, 380280, Note_on_c, 0, 77, 89
3, 380387, Note_off_c, 0, 77, 0
3, 380400, Note_on_c, 0, 75, 89
3, 380507, Note_off_c, 0, 75, 0
3, 380520, Note_on_c, 0, 74, 89
3, 380627, Note_off_c, 0, 74, 0
3, 380640, Note_on_c, 0, 72, 89
3, 380747, Note_off_c, 0, 72, 0
3, 380760, Note_on_c, 0, 70, 89
3, 380867, Note_off_c, 0, 70, 0
3, 380880, Note_on_c, 0, 69, 89
3, 380987, Note_off_c, 0, 69, 0
3, 381000, Note_on_c, 0, 67, 89
3, 381107, Note_off_c, 0, 67, 0
3, 381120, Note_on_c, 0, 65, 89
3, 381227, Note_off_c, 0, 65, 0
3, 381240, Note_on_c, 0, 63, 89
3, 381347, Note_off_c, 0, 63, 0
3, 381360, Note_on_c, 0, 62, 89
3, 381467, Note_off_c, 0, 62, 0
3, 381480, Note_on_c, 0, 60, 89
3, 381587, Note_off_c, 0, 60, 0
3, 381600, Note_on_c, 0, 58, 89
3, 381707, Note_off_c, 0, 58, 0
3, 381720, Note_on_c, 0, 65, 89
3, 381827, Note_off_c, 0, 65, 0
3, 381840, Note_on_c, 0, 63, 89
3, 381947, Note_off_c, 0, 63, 0
3, 381960, Note_on_c, 0, 62, 89
3, 382067, Note_off_c, 0, 62, 0
3, 382080, Note_on_c, 0, 60, 89
3, 382187, Note_off_c, 0, 60, 0
3, 382200, Note_on_c, 0, 58, 89
3, 382307, Note_off_c, 0, 58, 0
3, 384480, Note_on_c, 0, 70, 114
3, 384480, Note_on_c, 0, 65, 114
3, 384480, Note_on_c, 0, 62, 114
3, 384911, Note_off_c, 0, 62, 0
3, 384911, Note_off_c, 0, 65, 0
3, 384911, Note_off_c, 0, 70, 0
3, 385200, Note_on_c, 0, 74, 114
3, 385200, Note_on_c, 0, 70, 114
3, 385200, Note_on_c, 0, 65, 114
3, 385631, Note_off_c, 0, 65, 0
3, 385631, Note_off_c, 0, 70, 0
3, 385631, Note_off_c, 0, 74, 0
3, 385920, Note_on_c, 0, 70, 124
3, 385920, Note_on_c, 0, 65, 124
3, 385920, Note_on_c, 0, 62, 124
3, 386566, Note_off_c, 0, 62, 0
3, 386566, Note_off_c, 0, 65, 0
3, 386566, Note_off_c, 0, 73, 64
3, 386566, Note_off_c, 0, 70, 0
3, 386566, End_track
4, 0, Start_track
4, 0, Title_t, "Track 3"
4, 0, MIDI_port, 0
4, 0, Channel_prefix, 1
4, 0, Control_c, 1, 7, 127
4, 0, Control_c, 1, 10, 52
4, 0, Control_c, 1, 3, 65
4, 0, Control_c, 1, 14, 127
4, 0, Program_c, 1, 0
4, 1440, Control_c, 1, 64, 127
4, 1440, Note_on_c, 1, 46, 79
4, 1440, Note_on_c, 1, 58, 79
4, 1871, Note_off_c, 1, 58, 0
4, 1871, Note_off_c, 1, 46, 0
4, 1912, Control_c, 1, 64, 0
4, 4080, Note_on_c, 1, 57, 79
4, 4080, Note_on_c, 1, 65, 79
4, 4295, Note_off_c, 1, 57, 0
4, 4320, Note_on_c, 1, 58, 79
4, 4751, Note_off_c, 1, 65, 0
4, 4751, Note_off_c, 1, 58, 0
4, 5040, Note_on_c, 1, 63, 79
4, 5471, Note_off_c, 1, 63, 0
4, 5520, Note_on_c, 1, 64, 79
4, 5735, Note_off_c, 1, 64, 0
4, 5760, Note_on_c, 1, 65, 79
4, 5975, Note_off_c, 1, 65, 0
4, 6000, Note_on_c, 1, 65, 79
4, 6215, Note_off_c, 1, 65, 0
4, 6240, Note_on_c, 1, 64, 79
4, 6455, Note_off_c, 1, 64, 0
4, 6480, Note_on_c, 1, 65, 79
4, 6911, Note_off_c, 1, 65, 0
4, 7200, Note_on_c, 1, 58, 79
4, 7200, Note_on_c, 1, 46, 79
4, 7222, Control_c, 1, 64, 127
4, 7631, Note_off_c, 1, 46, 0
4, 7631, Note_off_c, 1, 58, 0
4, 7642, Control_c, 1, 64, 0
4, 9840, Note_on_c, 1, 58, 79
4, 9840, Note_on_c, 1, 60, 79
4, 10055, Note_off_c, 1, 58, 0
4, 10080, Note_on_c, 1, 57, 79
4, 10295, Note_off_c, 1, 60, 0
4, 10295, Note_off_c, 1, 57, 0
4, 10320, Note_on_c, 1, 55, 79
4, 10427, Note_off_c, 1, 55, 0
4, 10560, Note_on_c, 1, 53, 79
4, 10667, Note_off_c, 1, 53, 0
4, 10800, Note_on_c, 1, 58, 79
4, 11231, Note_off_c, 1, 58, 0
4, 11280, Note_on_c, 1, 60, 79
4, 11495, Note_off_c, 1, 60, 0
4, 11520, Note_on_c, 1, 53, 79
4, 11627, Note_off_c, 1, 53, 0
4, 11760, Note_on_c, 1, 48, 79
4, 11867, Note_off_c, 1, 48, 0
4, 12000, Note_on_c, 1, 45, 79
4, 12107, Note_off_c, 1, 45, 0
4, 12240, Note_on_c, 1, 41, 79
4, 12455, Note_off_c, 1, 41, 0
4, 12960, Note_on_c, 1, 53, 64
4, 12960, Control_c, 1, 64, 127
4, 12960, Note_on_c, 1, 63, 56
4, 13067, Note_off_c, 1, 63, 0
4, 13080, Note_on_c, 1, 65, 56
4, 13187, Note_off_c, 1, 65, 0
4, 13200, Note_on_c, 1, 63, 56
4, 13307, Note_off_c, 1, 63, 0
4, 13320, Note_on_c, 1, 65, 56
4, 13427, Note_off_c, 1, 65, 0
4, 13440, Note_on_c, 1, 63, 56
4, 13547, Note_off_c, 1, 63, 0
4, 13560, Note_on_c, 1, 65, 56
4, 13606, Note_off_c, 1, 53, 0
4, 13657, Control_c, 1, 64, 0
4, 13667, Note_off_c, 1, 65, 0
4, 13680, Note_on_c, 1, 53, 64
4, 13680, Note_on_c, 1, 63, 56
4, 13787, Note_off_c, 1, 63, 0
4, 13800, Note_on_c, 1, 65, 56
4, 13907, Note_off_c, 1, 65, 0
4, 13920, Note_on_c, 1, 63, 56
4, 14027, Note_off_c, 1, 63, 0
4, 14040, Note_on_c, 1, 65, 56
4, 14147, Note_off_c, 1, 65, 0
4, 14160, Note_on_c, 1, 63, 56
4, 14267, Note_off_c, 1, 63, 0
4, 14280, Note_on_c, 1, 65, 56
4, 14326, Note_off_c, 1, 53, 0
4, 14387, Note_off_c, 1, 65, 0
4, 14400, Note_on_c, 1, 53, 64
4, 14400, Control_c, 1, 64, 127
4, 14400, Note_on_c, 1, 62, 56
4, 14507, Note_off_c, 1, 62, 0
4, 14520, Note_on_c, 1, 65, 56
4, 14627, Note_off_c, 1, 65, 0
4, 14640, Note_on_c, 1, 62, 56
4, 14747, Note_off_c, 1, 62, 0
4, 14760, Note_on_c, 1, 65, 56
4, 14867, Note_off_c, 1, 65, 0
4, 14880, Note_on_c, 1, 62, 56
4, 14987, Note_off_c, 1, 62, 0
4, 15000, Note_on_c, 1, 65, 56
4, 15046, Note_off_c, 1, 53, 0
4, 15107, Note_off_c, 1, 65, 0
4, 15120, Note_on_c, 1, 53, 64
4, 15120, Note_on_c, 1, 62, 56
4, 15227, Note_off_c, 1, 62, 0
4, 15240, Note_on_c, 1, 65, 56
4, 15347, Note_off_c, 1, 65, 0
4, 15360, Note_on_c, 1, 62, 56
4, 15467, Note_off_c, 1, 62, 0
4, 15480, Note_on_c, 1, 65, 56
4, 15587, Note_off_c, 1, 65, 0
4, 15600, Note_on_c, 1, 62, 56
4, 15707, Note_off_c, 1, 62, 0
4, 15720, Note_on_c, 1, 65, 56
4, 15766, Note_off_c, 1, 53, 0
4, 15780, Control_c, 1, 64, 0
4, 15827, Note_off_c, 1, 65, 0
4, 15840, Note_on_c, 1, 53, 64
4, 15840, Control_c, 1, 64, 127
4, 15840, Note_on_c, 1, 63, 56
4, 15947, Note_off_c, 1, 63, 0
4, 15960, Note_on_c, 1, 65, 56
4, 16067, Note_off_c, 1, 65, 0
4, 16080, Note_on_c, 1, 63, 56
4, 16187, Note_off_c, 1, 63, 0
4, 16200, Note_on_c, 1, 65, 56
4, 16307, Note_off_c, 1, 65, 0
4, 16320, Note_on_c, 1, 63, 56
4, 16427, Note_off_c, 1, 63, 0
4, 16440, Note_on_c, 1, 65, 56
4, 16486, Note_off_c, 1, 53, 0
4, 16522, Control_c, 1, 64, 0
4, 16547, Note_off_c, 1, 65, 0
4, 16560, Note_on_c, 1, 53, 64
4, 16560, Note_on_c, 1, 63, 56
4, 16667, Note_off_c, 1, 63, 0
4, 16680, Note_on_c, 1, 65, 56
4, 16787, Note_off_c, 1, 65, 0
4, 16800, Note_on_c, 1, 63, 56
4, 16907, Note_off_c, 1, 63, 0
4, 16920, Note_on_c, 1, 65, 56
4, 17027, Note_off_c, 1, 65, 0
4, 17040, Note_on_c, 1, 63, 56
4, 17147, Note_off_c, 1, 63, 0
4, 17160, Note_on_c, 1, 65, 56
4, 17206, Note_off_c, 1, 53, 0
4, 17267, Note_off_c, 1, 65, 0
4, 17280, Note_on_c, 1, 53, 64
4, 17280, Control_c, 1, 64, 127
4, 17280, Note_on_c, 1, 62, 56
4, 17387, Note_off_c, 1, 62, 0
4, 17400, Note_on_c, 1, 65, 56
4, 17507, Note_off_c, 1, 65, 0
4, 17520, Note_on_c, 1, 62, 56
4, 17627, Note_off_c, 1, 62, 0
4, 17640, Note_on_c, 1, 65, 56
4, 17747, Note_off_c, 1, 65, 0
4, 17760, Note_on_c, 1, 62, 56
4, 17867, Note_off_c, 1, 62, 0
4, 17880, Note_on_c, 1, 65, 56
4, 17926, Note_off_c, 1, 53, 0
4, 17987, Note_off_c, 1, 65, 0
4, 18000, Note_on_c, 1, 53, 64
4, 18000, Note_on_c, 1, 62, 56
4, 18107, Note_off_c, 1, 62, 0
4, 18120, Note_on_c, 1, 65, 56
4, 18227, Note_off_c, 1, 65, 0
4, 18240, Note_on_c, 1, 62, 56
4, 18347, Note_off_c, 1, 62, 0
4, 18360, Note_on_c, 1, 65, 56
4, 18467, Note_off_c, 1, 65, 0
4, 18472, Control_c, 1, 64, 0
4, 18480, Note_on_c, 1, 62, 56
4, 18587, Note_off_c, 1, 62, 0
4, 18600, Note_on_c, 1, 65, 56
4, 18646, Note_off_c, 1, 53, 0
4, 18707, Note_off_c, 1, 65, 0
4, 18720, Note_on_c, 1, 63, 56
4, 18827, Note_off_c, 1, 63, 0
4, 18840, Note_on_c, 1, 65, 56
4, 18947, Note_off_c, 1, 65, 0
4, 18960, Note_on_c, 1, 63, 56
4, 19067, Note_off_c, 1, 63, 0
4, 19080, Note_on_c, 1, 65, 56
4, 19187, Note_off_c, 1, 65, 0
4, 19200, Note_on_c, 1, 63, 56
4, 19307, Note_off_c, 1, 63, 0
4, 19320, Note_on_c, 1, 65, 56
4, 19427, Note_off_c, 1, 65, 0
4, 19440, Note_on_c, 1, 60, 56
4, 19547, Note_off_c, 1, 60, 0
4, 19560, Note_on_c, 1, 63, 56
4, 19667, Note_off_c, 1, 63, 0
4, 19680, Note_on_c, 1, 60, 56
4, 19787, Note_off_c, 1, 60, 0
4, 19800, Note_on_c, 1, 63, 56
4, 19907, Note_off_c, 1, 63, 0
4, 19920, Note_on_c, 1, 60, 56
4, 20027, Note_off_c, 1, 60, 0
4, 20040, Note_on_c, 1, 63, 56
4, 20147, Note_off_c, 1, 63, 0
4, 20160, Note_on_c, 1, 62, 56
4, 20190, Control_c, 1, 64, 127
4, 20267, Note_off_c, 1, 62, 0
4, 20280, Note_on_c, 1, 65, 56
4, 20387, Note_off_c, 1, 65, 0
4, 20400, Note_on_c, 1, 62, 56
4, 20507, Note_off_c, 1, 62, 0
4, 20520, Note_on_c, 1, 65, 56
4, 20627, Note_off_c, 1, 65, 0
4, 20640, Note_on_c, 1, 62, 56
4, 20747, Note_off_c, 1, 62, 0
4, 20760, Note_on_c, 1, 65, 56
4, 20867, Note_off_c, 1, 65, 0
4, 20880, Control_c, 1, 64, 0
4, 20880, Note_on_c, 1, 57, 64
4, 20880, Note_on_c, 1, 60, 56
4, 20987, Note_off_c, 1, 60, 0
4, 20987, Note_off_c, 1, 57, 0
4, 21000, Note_on_c, 1, 62, 56
4, 21107, Note_off_c, 1, 62, 0
4, 21120, Note_on_c, 1, 57, 64
4, 21120, Note_on_c, 1, 60, 56
4, 21227, Note_off_c, 1, 60, 0
4, 21227, Note_off_c, 1, 57, 0
4, 21240, Note_on_c, 1, 62, 56
4, 21347, Note_off_c, 1, 62, 0
4, 21360, Note_on_c, 1, 57, 64
4, 21360, Note_on_c, 1, 60, 56
4, 21467, Note_off_c, 1, 60, 0
4, 21467, Note_off_c, 1, 57, 0
4, 21480, Note_on_c, 1, 62, 56
4, 21587, Note_off_c, 1, 62, 0
4, 21600, Note_on_c, 1, 55, 64
4, 21600, Note_on_c, 1, 58, 56
4, 21615, Control_c, 1, 64, 127
4, 21707, Note_off_c, 1, 58, 0
4, 21720, Note_on_c, 1, 62, 56
4, 21827, Note_off_c, 1, 62, 0
4, 21840, Note_on_c, 1, 58, 56
4, 21947, Note_off_c, 1, 58, 0
4, 21960, Note_on_c, 1, 62, 56
4, 22067, Note_off_c, 1, 62, 0
4, 22080, Note_on_c, 1, 58, 56
4, 22147, Control_c, 1, 64, 0
4, 22187, Note_off_c, 1, 58, 0
4, 22200, Note_on_c, 1, 62, 56
4, 22246, Note_off_c, 1, 55, 0
4, 22307, Note_off_c, 1, 62, 0
4, 22320, Note_on_c, 1, 55, 64
4, 22320, Note_on_c, 1, 58, 56
4, 22427, Note_off_c, 1, 58, 0
4, 22440, Note_on_c, 1, 62, 56
4, 22547, Note_off_c, 1, 62, 0
4, 22560, Note_on_c, 1, 58, 56
4, 22667, Note_off_c, 1, 58, 0
4, 22680, Note_on_c, 1, 62, 56
4, 22787, Note_off_c, 1, 62, 0
4, 22800, Note_on_c, 1, 58, 56
4, 22907, Note_off_c, 1, 58, 0
4, 22920, Note_on_c, 1, 62, 56
4, 22966, Note_off_c, 1, 55, 0
4, 23027, Note_off_c, 1, 62, 0
4, 23040, Note_on_c, 1, 50, 64
4, 23040, Control_c, 1, 64, 127
4, 23040, Note_on_c, 1, 60, 56
4, 23147, Note_off_c, 1, 60, 0
4, 23160, Note_on_c, 1, 62, 56
4, 23267, Note_off_c, 1, 62, 0
4, 23280, Note_on_c, 1, 60, 56
4, 23387, Note_off_c, 1, 60, 0
4, 23400, Note_on_c, 1, 62, 56
4, 23507, Note_off_c, 1, 62, 0
4, 23520, Note_on_c, 1, 60, 56
4, 23627, Note_off_c, 1, 60, 0
4, 23640, Note_on_c, 1, 62, 56
4, 23686, Note_off_c, 1, 50, 0
4, 23747, Note_off_c, 1, 62, 0
4, 23760, Note_on_c, 1, 50, 64
4, 23760, Note_on_c, 1, 60, 56
4, 23867, Note_off_c, 1, 60, 0
4, 23880, Note_on_c, 1, 62, 56
4, 23917, Control_c, 1, 64, 0
4, 23987, Note_off_c, 1, 62, 0
4, 24000, Note_on_c, 1, 60, 56
4, 24107, Note_off_c, 1, 60, 0
4, 24120, Note_on_c, 1, 62, 56
4, 24227, Note_off_c, 1, 62, 0
4, 24240, Note_on_c, 1, 60, 56
4, 24347, Note_off_c, 1, 60, 0
4, 24360, Note_on_c, 1, 62, 56
4, 24406, Note_off_c, 1, 50, 0
4, 24467, Note_off_c, 1, 62, 0
4, 24480, Note_on_c, 1, 55, 64
4, 24480, Control_c, 1, 64, 127
4, 24480, Note_on_c, 1, 58, 56
4, 24587, Note_off_c, 1, 58, 0
4, 24600, Note_on_c, 1, 62, 56
4, 24707, Note_off_c, 1, 62, 0
4, 24720, Note_on_c, 1, 58, 56
4, 24817, Control_c, 1, 64, 0
4, 24827, Note_off_c, 1, 58, 0
4, 24840, Note_on_c, 1, 62, 56
4, 24947, Note_off_c, 1, 62, 0
4, 24960, Note_on_c, 1, 58, 56
4, 25067, Note_off_c, 1, 58, 0
4, 25080, Note_on_c, 1, 62, 56
4, 25126, Note_off_c, 1, 55, 0
4, 25177, Control_c, 1, 64, 127
4, 25187, Note_off_c, 1, 62, 0
4, 25200, Note_on_c, 1, 55, 64
4, 25200, Note_on_c, 1, 58, 56
4, 25307, Note_off_c, 1, 58, 0
4, 25320, Note_on_c, 1, 62, 56
4, 25427, Note_off_c, 1, 62, 0
4, 25440, Note_on_c, 1, 58, 56
4, 25547, Note_off_c, 1, 58, 0
4, 25560, Note_on_c, 1, 62, 56
4, 25667, Note_off_c, 1, 62, 0
4, 25680, Note_on_c, 1, 58, 56
4, 25717, Control_c, 1, 64, 0
4, 25787, Note_off_c, 1, 58, 0
4, 25800, Note_on_c, 1, 62, 56
4, 25846, Note_off_c, 1, 55, 0
4, 25907, Note_off_c, 1, 62, 0
4, 25920, Note_on_c, 1, 55, 64
4, 25920, Note_on_c, 1, 58, 56
4, 25987, Control_c, 1, 64, 127
4, 26027, Note_off_c, 1, 58, 0
4, 26040, Note_on_c, 1, 60, 56
4, 26147, Note_off_c, 1, 60, 0
4, 26160, Note_on_c, 1, 58, 56
4, 26267, Note_off_c, 1, 58, 0
4, 26280, Note_on_c, 1, 60, 56
4, 26332, Control_c, 1, 64, 0
4, 26387, Note_off_c, 1, 60, 0
4, 26400, Note_on_c, 1, 58, 56
4, 26507, Note_off_c, 1, 58, 0
4, 26520, Note_on_c, 1, 62, 56
4, 26566, Note_off_c, 1, 55, 0
4, 26627, Note_off_c, 1, 62, 0
4, 26640, Note_on_c, 1, 55, 64
4, 26640, Note_on_c, 1, 58, 56
4, 26747, Note_off_c, 1, 58, 0
4, 26760, Note_on_c, 1, 60, 56
4, 26867, Note_off_c, 1, 60, 0
4, 26880, Note_on_c, 1, 58, 56
4, 26987, Note_off_c, 1, 58, 0
4, 27000, Note_on_c, 1, 60, 56
4, 27107, Note_off_c, 1, 60, 0
4, 27120, Note_on_c, 1, 58, 56
4, 27227, Note_off_c, 1, 58, 0
4, 27240, Note_on_c, 1, 60, 56
4, 27286, Note_off_c, 1, 55, 0
4, 27347, Note_off_c, 1, 60, 0
4, 27360, Note_on_c, 1, 53, 64
4, 27360, Control_c, 1, 64, 127
4, 27360, Note_on_c, 1, 57, 56
4, 27467, Note_off_c, 1, 57, 0
4, 27480, Note_on_c, 1, 60, 56
4, 27587, Note_off_c, 1, 60, 0
4, 27600, Note_on_c, 1, 57, 56
4, 27652, Control_c, 1, 64, 0
4, 27707, Note_off_c, 1, 57, 0
4, 27720, Note_on_c, 1, 60, 56
4, 27827, Note_off_c, 1, 60, 0
4, 27840, Note_on_c, 1, 57, 56
4, 27947, Note_off_c, 1, 57, 0
4, 27960, Note_on_c, 1, 60, 56
4, 28006, Note_off_c, 1, 53, 0
4, 28067, Note_off_c, 1, 60, 0
4, 28080, Note_on_c, 1, 48, 64
4, 28080, Note_on_c, 1, 58, 56
4, 28187, Note_off_c, 1, 58, 0
4, 28200, Note_on_c, 1, 60, 56
4, 28307, Note_off_c, 1, 60, 0
4, 28320, Note_on_c, 1, 58, 56
4, 28427, Note_off_c, 1, 58, 0
4, 28440, Note_on_c, 1, 60, 56
4, 28547, Note_off_c, 1, 60, 0
4, 28560, Note_on_c, 1, 58, 56
4, 28667, Note_off_c, 1, 58, 0
4, 28680, Note_on_c, 1, 60, 56
4, 28726, Note_off_c, 1, 48, 0
4, 28787, Note_off_c, 1, 60, 0
4, 28800, Note_on_c, 1, 53, 64
4, 28800, Control_c, 1, 64, 127
4, 28800, Note_on_c, 1, 57, 56
4, 28907, Note_off_c, 1, 57, 0
4, 28920, Note_on_c, 1, 60, 56
4, 29027, Note_off_c, 1, 60, 0
4, 29040, Note_on_c, 1, 57, 56
4, 29147, Note_off_c, 1, 57, 0
4, 29160, Note_on_c, 1, 60, 56
4, 29220, Control_c, 1, 64, 0
4, 29267, Note_off_c, 1, 60, 0
4, 29280, Note_on_c, 1, 57, 56
4, 29387, Note_off_c, 1, 57, 0
4, 29400, Note_on_c, 1, 60, 56
4, 29446, Note_off_c, 1, 53, 0
4, 29507, Note_off_c, 1, 60, 0
4, 29520, Note_on_c, 1, 48, 64
4, 29520, Note_on_c, 1, 58, 56
4, 29627, Note_off_c, 1, 58, 0
4, 29640, Note_on_c, 1, 60, 56
4, 29747, Note_off_c, 1, 60, 0
4, 29760, Note_on_c, 1, 58, 56
4, 29867, Note_off_c, 1, 58, 0
4, 29880, Note_on_c, 1, 60, 56
4, 29987, Note_off_c, 1, 60, 0
4, 30000, Note_on_c, 1, 58, 56
4, 30107, Note_off_c, 1, 58, 0
4, 30120, Note_on_c, 1, 60, 56
4, 30166, Note_off_c, 1, 48, 0
4, 30227, Note_off_c, 1, 60, 0
4, 30240, Control_c, 1, 64, 127
4, 30240, Note_on_c, 1, 57, 64
4, 30240, Note_on_c, 1, 53, 64
4, 30517, Control_c, 1, 64, 0
4, 30671, Note_off_c, 1, 53, 0
4, 30671, Note_off_c, 1, 57, 0
4, 30967, Control_c, 1, 64, 127
4, 31432, Control_c, 1, 64, 0
4, 33120, Note_on_c, 1, 63, 79
4, 33120, Note_on_c, 1, 60, 79
4, 33120, Note_on_c, 1, 57, 79
4, 33120, Note_on_c, 1, 53, 79
4, 33766, Note_off_c, 1, 53, 0
4, 33766, Note_off_c, 1, 57, 0
4, 33766, Note_off_c, 1, 60, 0
4, 33766, Note_off_c, 1, 63, 0
4, 34560, Control_c, 1, 64, 127
4, 34560, Note_on_c, 1, 51, 79
4, 34560, Note_on_c, 1, 48, 79
4, 34560, Note_on_c, 1, 45, 79
4, 34560, Note_on_c, 1, 41, 79
4, 35137, Control_c, 1, 64, 0
4, 35206, Note_off_c, 1, 41, 0
4, 35206, Note_off_c, 1, 45, 0
4, 35206, Note_off_c, 1, 48, 0
4, 35206, Note_off_c, 1, 51, 0
4, 36000, Control_c, 1, 64, 127
4, 36000, Note_on_c, 1, 46, 64
4, 36431, Note_off_c, 1, 46, 0
4, 36472, Control_c, 1, 64, 0
4, 38640, Note_on_c, 1, 57, 64
4, 38640, Note_on_c, 1, 65, 64
4, 38855, Note_off_c, 1, 57, 0
4, 38880, Note_on_c, 1, 58, 64
4, 39311, Note_off_c, 1, 65, 0
4, 39311, Note_off_c, 1, 58, 0
4, 39600, Note_on_c, 1, 63, 64
4, 40031, Note_off_c, 1, 63, 0
4, 40080, Note_on_c, 1, 64, 64
4, 40295, Note_off_c, 1, 64, 0
4, 40320, Note_on_c, 1, 65, 64
4, 40427, Note_off_c, 1, 65, 0
4, 40560, Note_on_c, 1, 65, 64
4, 40667, Note_off_c, 1, 65, 0
4, 40800, Note_on_c, 1, 64, 64
4, 40907, Note_off_c, 1, 64, 0
4, 41040, Note_on_c, 1, 65, 64
4, 41471, Note_off_c, 1, 65, 0
4, 41760, Note_on_c, 1, 58, 64
4, 41760, Note_on_c, 1, 46, 64
4, 41782, Control_c, 1, 64, 127
4, 42191, Note_off_c, 1, 46, 0
4, 42191, Note_off_c, 1, 58, 0
4, 42202, Control_c, 1, 64, 0
4, 44400, Note_on_c, 1, 51, 64
4, 44640, Note_on_c, 1, 53, 64
4, 45071, Note_off_c, 1, 53, 0
4, 45360, Note_on_c, 1, 41, 64
4, 45791, Note_off_c, 1, 41, 0
4, 46080, Note_on_c, 1, 58, 64
4, 46187, Note_off_c, 1, 58, 0
4, 46320, Note_on_c, 1, 53, 64
4, 46427, Note_off_c, 1, 53, 0
4, 46560, Note_on_c, 1, 50, 64
4, 46667, Note_off_c, 1, 50, 0
4, 46800, Note_on_c, 1, 46, 64
4, 47231, Note_off_c, 1, 46, 0
4, 47520, Note_on_c, 1, 60, 44
4, 47735, Note_off_c, 1, 60, 0
4, 47760, Note_on_c, 1, 63, 44
4, 47975, Note_off_c, 1, 63, 0
4, 48000, Note_on_c, 1, 65, 44
4, 48215, Note_off_c, 1, 65, 0
4, 48240, Note_on_c, 1, 58, 44
4, 48455, Note_off_c, 1, 58, 0
4, 48480, Note_on_c, 1, 62, 44
4, 48695, Note_off_c, 1, 62, 0
4, 48720, Note_on_c, 1, 65, 44
4, 48935, Note_off_c, 1, 65, 0
4, 48960, Note_on_c, 1, 57, 44
4, 49175, Note_off_c, 1, 57, 0
4, 49200, Note_on_c, 1, 60, 44
4, 49415, Note_off_c, 1, 60, 0
4, 49440, Note_on_c, 1, 65, 44
4, 49655, Note_off_c, 1, 65, 0
4, 49680, Note_on_c, 1, 51, 44
4, 49895, Note_off_c, 1, 51, 0
4, 49920, Note_on_c, 1, 57, 44
4, 50135, Note_off_c, 1, 57, 0
4, 50160, Note_on_c, 1, 60, 44
4, 50375, Note_off_c, 1, 60, 0
4, 50400, Note_on_c, 1, 50, 44
4, 50615, Note_off_c, 1, 50, 0
4, 50640, Note_on_c, 1, 53, 44
4, 50855, Note_off_c, 1, 53, 0
4, 50880, Note_on_c, 1, 58, 44
4, 51095, Note_off_c, 1, 58, 0
4, 51120, Note_on_c, 1, 48, 44
4, 51335, Note_off_c, 1, 48, 0
4, 51360, Note_on_c, 1, 53, 44
4, 51575, Note_off_c, 1, 53, 0
4, 51600, Note_on_c, 1, 57, 44
4, 51815, Note_off_c, 1, 57, 0
4, 51840, Note_on_c, 1, 46, 44
4, 52055, Note_off_c, 1, 46, 0
4, 52080, Note_on_c, 1, 53, 44
4, 52295, Note_off_c, 1, 53, 0
4, 52320, Note_on_c, 1, 58, 44
4, 52535, Note_off_c, 1, 58, 0
4, 52560, Note_on_c, 1, 46, 44
4, 52775, Note_off_c, 1, 46, 0
4, 52800, Note_on_c, 1, 53, 44
4, 53015, Note_off_c, 1, 53, 0
4, 53040, Note_on_c, 1, 58, 44
4, 53255, Note_off_c, 1, 58, 0
4, 53280, Note_on_c, 1, 50, 44
4, 53495, Note_off_c, 1, 50, 0
4, 53520, Note_on_c, 1, 53, 44
4, 53735, Note_off_c, 1, 53, 0
4, 53760, Note_on_c, 1, 58, 44
4, 53975, Note_off_c, 1, 58, 0
4, 54000, Note_on_c, 1, 50, 44
4, 54215, Note_off_c, 1, 50, 0
4, 54240, Note_on_c, 1, 53, 44
4, 54455, Note_off_c, 1, 53, 0
4, 54480, Note_on_c, 1, 58, 44
4, 54695, Note_off_c, 1, 58, 0
4, 54720, Note_on_c, 1, 51, 44
4, 54935, Note_off_c, 1, 51, 0
4, 54960, Note_on_c, 1, 55, 44
4, 55175, Note_off_c, 1, 55, 0
4, 55200, Note_on_c, 1, 59, 44
4, 55415, Note_off_c, 1, 59, 0
4, 55440, Note_on_c, 1, 51, 44
4, 55655, Note_off_c, 1, 51, 0
4, 55680, Note_on_c, 1, 55, 44
4, 55895, Note_off_c, 1, 55, 0
4, 55920, Note_on_c, 1, 60, 44
4, 56135, Note_off_c, 1, 60, 0
4, 56160, Note_on_c, 1, 53, 44
4, 56375, Note_off_c, 1, 53, 0
4, 56400, Note_on_c, 1, 58, 44
4, 56615, Note_off_c, 1, 58, 0
4, 56640, Note_on_c, 1, 62, 44
4, 56855, Note_off_c, 1, 62, 0
4, 56880, Note_on_c, 1, 53, 44
4, 57095, Note_off_c, 1, 53, 0
4, 57120, Note_on_c, 1, 60, 44
4, 57335, Note_off_c, 1, 60, 0
4, 57360, Note_on_c, 1, 63, 44
4, 57575, Note_off_c, 1, 63, 0
4, 57600, Note_on_c, 1, 46, 44
4, 57815, Note_off_c, 1, 46, 0
4, 57840, Note_on_c, 1, 50, 44
4, 58055, Note_off_c, 1, 50, 0
4, 58080, Note_on_c, 1, 53, 44
4, 58295, Note_off_c, 1, 53, 0
4, 58320, Note_on_c, 1, 58, 44
4, 58751, Note_off_c, 1, 58, 0
4, 59040, Note_on_c, 1, 51, 64
4, 59255, Note_off_c, 1, 51, 0
4, 59280, Note_on_c, 1, 57, 64
4, 59495, Note_off_c, 1, 57, 0
4, 59520, Note_on_c, 1, 60, 64
4, 59735, Note_off_c, 1, 60, 0
4, 59760, Note_on_c, 1, 51, 64
4, 59975, Note_off_c, 1, 51, 0
4, 60000, Note_on_c, 1, 57, 64
4, 60215, Note_off_c, 1, 57, 0
4, 60240, Note_on_c, 1, 60, 64
4, 60455, Note_off_c, 1, 60, 0
4, 60480, Note_on_c, 1, 50, 64
4, 60695, Note_off_c, 1, 50, 0
4, 60720, Note_on_c, 1, 53, 64
4, 60935, Note_off_c, 1, 53, 0
4, 60960, Note_on_c, 1, 58, 64
4, 61175, Note_off_c, 1, 58, 0
4, 61200, Note_on_c, 1, 50, 64
4, 61415, Note_off_c, 1, 50, 0
4, 61440, Note_on_c, 1, 53, 64
4, 61655, Note_off_c, 1, 53, 0
4, 61680, Note_on_c, 1, 58, 64
4, 61895, Note_off_c, 1, 58, 0
4, 61920, Note_on_c, 1, 51, 64
4, 62135, Note_off_c, 1, 51, 0
4, 62160, Note_on_c, 1, 55, 64
4, 62375, Note_off_c, 1, 55, 0
4, 62400, Note_on_c, 1, 59, 64
4, 62615, Note_off_c, 1, 59, 0
4, 62640, Note_on_c, 1, 52, 64
4, 62855, Note_off_c, 1, 52, 0
4, 62880, Note_on_c, 1, 55, 64
4, 63095, Note_off_c, 1, 55, 0
4, 63120, Note_on_c, 1, 60, 64
4, 63335, Note_off_c, 1, 60, 0
4, 63360, Note_on_c, 1, 53, 64
4, 63575, Note_off_c, 1, 53, 0
4, 63600, Note_on_c, 1, 57, 64
4, 63815, Note_off_c, 1, 57, 0
4, 63840, Note_on_c, 1, 60, 64
4, 64055, Note_off_c, 1, 60, 0
4, 64080, Note_on_c, 1, 53, 64
4, 64295, Note_off_c, 1, 53, 0
4, 64320, Note_on_c, 1, 57, 64
4, 64535, Note_off_c, 1, 57, 0
4, 64560, Note_on_c, 1, 60, 64
4, 64775, Note_off_c, 1, 60, 0
4, 64800, Note_on_c, 1, 51, 64
4, 65015, Note_off_c, 1, 51, 0
4, 65040, Note_on_c, 1, 57, 64
4, 65255, Note_off_c, 1, 57, 0
4, 65280, Note_on_c, 1, 60, 64
4, 65495, Note_off_c, 1, 60, 0
4, 65520, Note_on_c, 1, 51, 64
4, 65735, Note_off_c, 1, 51, 0
4, 65760, Note_on_c, 1, 57, 64
4, 65975, Note_off_c, 1, 57, 0
4, 66000, Note_on_c, 1, 60, 64
4, 66215, Note_off_c, 1, 60, 0
4, 66240, Note_on_c, 1, 50, 64
4, 66455, Note_off_c, 1, 50, 0
4, 66480, Note_on_c, 1, 53, 64
4, 66695, Note_off_c, 1, 53, 0
4, 66720, Note_on_c, 1, 58, 64
4, 66935, Note_off_c, 1, 58, 0
4, 66960, Note_on_c, 1, 50, 64
4, 67175, Note_off_c, 1, 50, 0
4, 67200, Note_on_c, 1, 53, 64
4, 67415, Note_off_c, 1, 53, 0
4, 67440, Note_on_c, 1, 53, 64
4, 67655, Note_off_c, 1, 53, 0
4, 67680, Note_on_c, 1, 39, 64
4, 67895, Note_off_c, 1, 39, 0
4, 67920, Note_on_c, 1, 51, 64
4, 68135, Note_off_c, 1, 51, 0
4, 68160, Note_on_c, 1, 51, 64
4, 68375, Note_off_c, 1, 51, 0
4, 68400, Note_on_c, 1, 41, 64
4, 68615, Note_off_c, 1, 41, 0
4, 68640, Note_on_c, 1, 53, 64
4, 68855, Note_off_c, 1, 53, 0
4, 68880, Note_on_c, 1, 53, 64
4, 69095, Note_off_c, 1, 53, 0
4, 69120, Note_on_c, 1, 34, 54
4, 69227, Note_off_c, 1, 34, 0
4, 69240, Note_on_c, 1, 46, 54
4, 69347, Note_off_c, 1, 46, 0
4, 69360, Note_on_c, 1, 34, 54
4, 69467, Note_off_c, 1, 34, 0
4, 69480, Note_on_c, 1, 46, 54
4, 69587, Note_off_c, 1, 46, 0
4, 69600, Note_on_c, 1, 34, 54
4, 69707, Note_off_c, 1, 34, 0
4, 69720, Note_on_c, 1, 46, 54
4, 69827, Note_off_c, 1, 46, 0
4, 69840, Note_on_c, 1, 34, 54
4, 69947, Note_off_c, 1, 34, 0
4, 69960, Note_on_c, 1, 46, 54
4, 70067, Note_off_c, 1, 46, 0
4, 70080, Note_on_c, 1, 34, 54
4, 70187, Note_off_c, 1, 34, 0
4, 70200, Note_on_c, 1, 46, 54
4, 70307, Note_off_c, 1, 46, 0
4, 70320, Note_on_c, 1, 34, 54
4, 70427, Note_off_c, 1, 34, 0
4, 70440, Note_on_c, 1, 46, 54
4, 70547, Note_off_c, 1, 46, 0
4, 70560, Note_on_c, 1, 34, 54
4, 70667, Note_off_c, 1, 34, 0
4, 70680, Note_on_c, 1, 46, 54
4, 70787, Note_off_c, 1, 46, 0
4, 70800, Note_on_c, 1, 34, 54
4, 70907, Note_off_c, 1, 34, 0
4, 70920, Note_on_c, 1, 46, 54
4, 71027, Note_off_c, 1, 46, 0
4, 71040, Note_on_c, 1, 34, 54
4, 71147, Note_off_c, 1, 34, 0
4, 71160, Note_on_c, 1, 46, 54
4, 71267, Note_off_c, 1, 46, 0
4, 71280, Note_on_c, 1, 34, 54
4, 71387, Note_off_c, 1, 34, 0
4, 71400, Note_on_c, 1, 46, 54
4, 71507, Note_off_c, 1, 46, 0
4, 71520, Note_on_c, 1, 34, 54
4, 71627, Note_off_c, 1, 34, 0
4, 71640, Note_on_c, 1, 46, 54
4, 71747, Note_off_c, 1, 46, 0
4, 71760, Note_on_c, 1, 34, 54
4, 71867, Note_off_c, 1, 34, 0
4, 71880, Note_on_c, 1, 46, 54
4, 71987, Note_off_c, 1, 46, 0
4, 72000, Note_on_c, 1, 34, 54
4, 72107, Note_off_c, 1, 34, 0
4, 72120, Note_on_c, 1, 46, 54
4, 72227, Note_off_c, 1, 46, 0
4, 72240, Note_on_c, 1, 34, 54
4, 72347, Note_off_c, 1, 34, 0
4, 72360, Note_on_c, 1, 46, 54
4, 72467, Note_off_c, 1, 46, 0
4, 72480, Note_on_c, 1, 34, 54
4, 72587, Note_off_c, 1, 34, 0
4, 72600, Note_on_c, 1, 46, 54
4, 72707, Note_off_c, 1, 46, 0
4, 72720, Note_on_c, 1, 34, 54
4, 72827, Note_off_c, 1, 34, 0
4, 72840, Note_on_c, 1, 46, 54
4, 72947, Note_off_c, 1, 46, 0
4, 72960, Note_on_c, 1, 34, 54
4, 73067, Note_off_c, 1, 34, 0
4, 73080, Note_on_c, 1, 46, 54
4, 73187, Note_off_c, 1, 46, 0
4, 73200, Note_on_c, 1, 34, 54
4, 73307, Note_off_c, 1, 34, 0
4, 73320, Note_on_c, 1, 46, 54
4, 73427, Note_off_c, 1, 46, 0
4, 73440, Note_on_c, 1, 34, 54
4, 73547, Note_off_c, 1, 34, 0
4, 73560, Note_on_c, 1, 46, 54
4, 73667, Note_off_c, 1, 46, 0
4, 73680, Note_on_c, 1, 34, 54
4, 73787, Note_off_c, 1, 34, 0
4, 73800, Note_on_c, 1, 46, 54
4, 73907, Note_off_c, 1, 46, 0
4, 73920, Note_on_c, 1, 34, 54
4, 74027, Note_off_c, 1, 34, 0
4, 74040, Note_on_c, 1, 46, 54
4, 74147, Note_off_c, 1, 46, 0
4, 74160, Note_on_c, 1, 34, 54
4, 74267, Note_off_c, 1, 34, 0
4, 74280, Note_on_c, 1, 46, 54
4, 74387, Note_off_c, 1, 46, 0
4, 74400, Note_on_c, 1, 34, 54
4, 74507, Note_off_c, 1, 34, 0
4, 74520, Note_on_c, 1, 46, 54
4, 74627, Note_off_c, 1, 46, 0
4, 74640, Note_on_c, 1, 34, 54
4, 74747, Note_off_c, 1, 34, 0
4, 74760, Note_on_c, 1, 46, 54
4, 74867, Note_off_c, 1, 46, 0
4, 74880, Note_on_c, 1, 34, 54
4, 74987, Note_off_c, 1, 34, 0
4, 75000, Note_on_c, 1, 46, 54
4, 75107, Note_off_c, 1, 46, 0
4, 75120, Note_on_c, 1, 34, 54
4, 75227, Note_off_c, 1, 34, 0
4, 75240, Note_on_c, 1, 46, 54
4, 75347, Note_off_c, 1, 46, 0
4, 75360, Note_on_c, 1, 34, 54
4, 75467, Note_off_c, 1, 34, 0
4, 75480, Note_on_c, 1, 46, 54
4, 75587, Note_off_c, 1, 46, 0
4, 75600, Note_on_c, 1, 34, 54
4, 75707, Note_off_c, 1, 34, 0
4, 75720, Note_on_c, 1, 46, 54
4, 75827, Note_off_c, 1, 46, 0
4, 75840, Note_on_c, 1, 34, 54
4, 75947, Note_off_c, 1, 34, 0
4, 75960, Note_on_c, 1, 46, 54
4, 76067, Note_off_c, 1, 46, 0
4, 76080, Note_on_c, 1, 34, 54
4, 76187, Note_off_c, 1, 34, 0
4, 76200, Note_on_c, 1, 46, 54
4, 76307, Note_off_c, 1, 46, 0
4, 76320, Note_on_c, 1, 34, 54
4, 76427, Note_off_c, 1, 34, 0
4, 76440, Note_on_c, 1, 46, 54
4, 76547, Note_off_c, 1, 46, 0
4, 76560, Note_on_c, 1, 34, 54
4, 76667, Note_off_c, 1, 34, 0
4, 76680, Note_on_c, 1, 46, 54
4, 76787, Note_off_c, 1, 46, 0
4, 76800, Note_on_c, 1, 34, 54
4, 76907, Note_off_c, 1, 34, 0
4, 76920, Note_on_c, 1, 46, 54
4, 77027, Note_off_c, 1, 46, 0
4, 77040, Note_on_c, 1, 34, 54
4, 77147, Note_off_c, 1, 34, 0
4, 77160, Note_on_c, 1, 46, 54
4, 77267, Note_off_c, 1, 46, 0
4, 77280, Note_on_c, 1, 34, 54
4, 77387, Note_off_c, 1, 34, 0
4, 77400, Note_on_c, 1, 46, 54
4, 77507, Note_off_c, 1, 46, 0
4, 77520, Note_on_c, 1, 34, 54
4, 77627, Note_off_c, 1, 34, 0
4, 77640, Note_on_c, 1, 46, 54
4, 77747, Note_off_c, 1, 46, 0
4, 77760, Note_on_c, 1, 34, 64
4, 77867, Note_off_c, 1, 34, 0
4, 77880, Note_on_c, 1, 46, 64
4, 77987, Note_off_c, 1, 46, 0
4, 78000, Note_on_c, 1, 34, 64
4, 78107, Note_off_c, 1, 34, 0
4, 78120, Note_on_c, 1, 46, 64
4, 78227, Note_off_c, 1, 46, 0
4, 78240, Note_on_c, 1, 34, 64
4, 78347, Note_off_c, 1, 34, 0
4, 78360, Note_on_c, 1, 46, 64
4, 78467, Note_off_c, 1, 46, 0
4, 78480, Note_on_c, 1, 34, 64
4, 78587, Note_off_c, 1, 34, 0
4, 78600, Note_on_c, 1, 46, 64
4, 78707, Note_off_c, 1, 46, 0
4, 78720, Note_on_c, 1, 34, 64
4, 78827, Note_off_c, 1, 34, 0
4, 78840, Note_on_c, 1, 46, 64
4, 78947, Note_off_c, 1, 46, 0
4, 78960, Note_on_c, 1, 34, 64
4, 79067, Note_off_c, 1, 34, 0
4, 79080, Note_on_c, 1, 46, 74
4, 79187, Note_off_c, 1, 46, 0
4, 79200, Note_on_c, 1, 34, 74
4, 79307, Note_off_c, 1, 34, 0
4, 79320, Note_on_c, 1, 46, 74
4, 79427, Note_off_c, 1, 46, 0
4, 79440, Note_on_c, 1, 34, 74
4, 79547, Note_off_c, 1, 34, 0
4, 79560, Note_on_c, 1, 46, 74
4, 79667, Note_off_c, 1, 46, 0
4, 79680, Note_on_c, 1, 34, 74
4, 79787, Note_off_c, 1, 34, 0
4, 79800, Note_on_c, 1, 46, 74
4, 79907, Note_off_c, 1, 46, 0
4, 79920, Note_on_c, 1, 34, 74
4, 80027, Note_off_c, 1, 34, 0
4, 80040, Note_on_c, 1, 46, 74
4, 80147, Note_off_c, 1, 46, 0
4, 80160, Note_on_c, 1, 34, 74
4, 80267, Note_off_c, 1, 34, 0
4, 80280, Note_on_c, 1, 46, 74
4, 80387, Note_off_c, 1, 46, 0
4, 80400, Note_on_c, 1, 34, 74
4, 80507, Note_off_c, 1, 34, 0
4, 80520, Note_on_c, 1, 46, 74
4, 80627, Note_off_c, 1, 46, 0
4, 80640, Note_on_c, 1, 34, 74
4, 80747, Note_off_c, 1, 34, 0
4, 80760, Note_on_c, 1, 46, 74
4, 80867, Note_off_c, 1, 46, 0
4, 80880, Note_on_c, 1, 34, 74
4, 80987, Note_off_c, 1, 34, 0
4, 81000, Note_on_c, 1, 46, 74
4, 81107, Note_off_c, 1, 46, 0
4, 81120, Note_on_c, 1, 34, 74
4, 81227, Note_off_c, 1, 34, 0
4, 81240, Note_on_c, 1, 46, 74
4, 81347, Note_off_c, 1, 46, 0
4, 81360, Note_on_c, 1, 34, 74
4, 81467, Note_off_c, 1, 34, 0
4, 81480, Note_on_c, 1, 46, 74
4, 81587, Note_off_c, 1, 46, 0
4, 81600, Note_on_c, 1, 34, 74
4, 81707, Note_off_c, 1, 34, 0
4, 81720, Note_on_c, 1, 46, 74
4, 81827, Note_off_c, 1, 46, 0
4, 81840, Note_on_c, 1, 34, 74
4, 81947, Note_off_c, 1, 34, 0
4, 81960, Note_on_c, 1, 46, 74
4, 82067, Note_off_c, 1, 46, 0
4, 82080, Note_on_c, 1, 34, 74
4, 82187, Note_off_c, 1, 34, 0
4, 82200, Note_on_c, 1, 46, 74
4, 82307, Note_off_c, 1, 46, 0
4, 82320, Note_on_c, 1, 34, 74
4, 82427, Note_off_c, 1, 34, 0
4, 82440, Note_on_c, 1, 46, 74
4, 82547, Note_off_c, 1, 46, 0
4, 82560, Note_on_c, 1, 34, 74
4, 82667, Note_off_c, 1, 34, 0
4, 82680, Note_on_c, 1, 46, 74
4, 82787, Note_off_c, 1, 46, 0
4, 82800, Note_on_c, 1, 34, 74
4, 82907, Note_off_c, 1, 34, 0
4, 82920, Note_on_c, 1, 46, 74
4, 83027, Note_off_c, 1, 46, 0
4, 83040, Note_on_c, 1, 34, 74
4, 83147, Note_off_c, 1, 34, 0
4, 83160, Note_on_c, 1, 46, 74
4, 83267, Note_off_c, 1, 46, 0
4, 83280, Note_on_c, 1, 34, 74
4, 83387, Note_off_c, 1, 34, 0
4, 83400, Note_on_c, 1, 46, 74
4, 83507, Note_off_c, 1, 46, 0
4, 83520, Note_on_c, 1, 34, 64
4, 83627, Note_off_c, 1, 34, 0
4, 84960, Note_on_c, 1, 68, 54
4, 84960, Note_on_c, 1, 65, 54
4, 85175, Note_off_c, 1, 65, 0
4, 85175, Note_off_c, 1, 68, 0
4, 85200, Note_on_c, 1, 67, 54
4, 85200, Note_on_c, 1, 63, 54
4, 85415, Note_off_c, 1, 63, 0
4, 85415, Note_off_c, 1, 67, 0
4, 85440, Note_on_c, 1, 65, 54
4, 85440, Note_on_c, 1, 58, 54
4, 85547, Note_off_c, 1, 58, 0
4, 85547, Note_off_c, 1, 65, 0
4, 85680, Note_on_c, 1, 65, 54
4, 85680, Note_on_c, 1, 58, 54
4, 86111, Note_off_c, 1, 58, 0
4, 86111, Note_off_c, 1, 65, 0
4, 86400, Note_on_c, 1, 67, 54
4, 86400, Note_on_c, 1, 63, 54
4, 86615, Note_off_c, 1, 63, 0
4, 86615, Note_off_c, 1, 67, 0
4, 86640, Note_on_c, 1, 65, 54
4, 86640, Note_on_c, 1, 62, 54
4, 86855, Note_off_c, 1, 62, 0
4, 86855, Note_off_c, 1, 65, 0
4, 86880, Note_on_c, 1, 63, 54
4, 86880, Note_on_c, 1, 55, 54
4, 86987, Note_off_c, 1, 55, 0
4, 86987, Note_off_c, 1, 63, 0
4, 87120, Note_on_c, 1, 63, 54
4, 87120, Note_on_c, 1, 55, 54
4, 87551, Note_off_c, 1, 55, 0
4, 87551, Note_off_c, 1, 63, 0
4, 87600, Note_on_c, 1, 65, 54
4, 87600, Note_on_c, 1, 58, 54
4, 87815, Note_off_c, 1, 58, 0
4, 87815, Note_off_c, 1, 65, 0
4, 87840, Note_on_c, 1, 67, 54
4, 87840, Note_on_c, 1, 63, 54
4, 88271, Note_off_c, 1, 63, 0
4, 88271, Note_off_c, 1, 67, 0
4, 88320, Note_on_c, 1, 65, 54
4, 88320, Note_on_c, 1, 58, 54
4, 88535, Note_off_c, 1, 58, 0
4, 88535, Note_off_c, 1, 65, 0
4, 88560, Note_on_c, 1, 67, 54
4, 88560, Note_on_c, 1, 63, 54
4, 88991, Note_off_c, 1, 63, 0
4, 88991, Note_off_c, 1, 67, 0
4, 89040, Note_on_c, 1, 68, 54
4, 89040, Note_on_c, 1, 65, 54
4, 89255, Note_off_c, 1, 65, 0
4, 89255, Note_off_c, 1, 68, 0
4, 89280, Note_on_c, 1, 65, 54
4, 89280, Note_on_c, 1, 58, 54
4, 89711, Note_off_c, 1, 58, 0
4, 89711, Note_off_c, 1, 65, 0
4, 90720, Note_on_c, 1, 68, 46
4, 90720, Note_on_c, 1, 65, 46
4, 90935, Note_off_c, 1, 65, 0
4, 90935, Note_off_c, 1, 68, 0
4, 90960, Note_on_c, 1, 67, 46
4, 90960, Note_on_c, 1, 63, 46
4, 91175, Note_off_c, 1, 63, 0
4, 91175, Note_off_c, 1, 67, 0
4, 91200, Note_on_c, 1, 65, 46
4, 91200, Note_on_c, 1, 58, 46
4, 91307, Note_off_c, 1, 58, 0
4, 91307, Note_off_c, 1, 65, 0
4, 91440, Note_on_c, 1, 65, 46
4, 91440, Note_on_c, 1, 58, 46
4, 91871, Note_off_c, 1, 58, 0
4, 91871, Note_off_c, 1, 65, 0
4, 92160, Note_on_c, 1, 67, 46
4, 92160, Note_on_c, 1, 63, 46
4, 92375, Note_off_c, 1, 63, 0
4, 92375, Note_off_c, 1, 67, 0
4, 92400, Note_on_c, 1, 65, 46
4, 92400, Note_on_c, 1, 62, 46
4, 92615, Note_off_c, 1, 62, 0
4, 92615, Note_off_c, 1, 65, 0
4, 92640, Note_on_c, 1, 63, 46
4, 92640, Note_on_c, 1, 55, 46
4, 92747, Note_off_c, 1, 55, 0
4, 92747, Note_off_c, 1, 63, 0
4, 92880, Note_on_c, 1, 63, 46
4, 92880, Note_on_c, 1, 55, 46
4, 93311, Note_off_c, 1, 55, 0
4, 93311, Note_off_c, 1, 63, 0
4, 93360, Note_on_c, 1, 65, 46
4, 93360, Note_on_c, 1, 58, 46
4, 93575, Note_off_c, 1, 58, 0
4, 93575, Note_off_c, 1, 65, 0
4, 93600, Note_on_c, 1, 67, 46
4, 93600, Note_on_c, 1, 63, 46
4, 94031, Note_off_c, 1, 63, 0
4, 94031, Note_off_c, 1, 67, 0
4, 94080, Note_on_c, 1, 67, 46
4, 94080, Note_on_c, 1, 63, 46
4, 94295, Note_off_c, 1, 63, 0
4, 94295, Note_off_c, 1, 67, 0
4, 94320, Note_on_c, 1, 65, 46
4, 94320, Note_on_c, 1, 62, 46
4, 94751, Note_off_c, 1, 62, 0
4, 94751, Note_off_c, 1, 65, 0
4, 94800, Note_on_c, 1, 67, 46
4, 94800, Note_on_c, 1, 63, 46
4, 95015, Note_off_c, 1, 63, 0
4, 95015, Note_off_c, 1, 67, 0
4, 95040, Note_on_c, 1, 70, 46
4, 95147, Note_off_c, 1, 70, 0
4, 95280, Note_on_c, 1, 70, 46
4, 95387, Note_off_c, 1, 70, 0
4, 95520, Note_on_c, 1, 69, 46
4, 95735, Note_off_c, 1, 69, 0
4, 95760, Note_on_c, 1, 70, 46
4, 95975, Note_off_c, 1, 70, 0
4, 96000, Note_on_c, 1, 70, 46
4, 96107, Note_off_c, 1, 70, 0
4, 96240, Note_on_c, 1, 69, 46
4, 96455, Note_off_c, 1, 69, 0
4, 96480, Note_on_c, 1, 70, 46
4, 96695, Note_off_c, 1, 70, 0
4, 96720, Note_on_c, 1, 70, 46
4, 96827, Note_off_c, 1, 70, 0
4, 96960, Note_on_c, 1, 69, 46
4, 97067, Note_off_c, 1, 69, 0
4, 97200, Note_on_c, 1, 70, 46
4, 97631, Note_off_c, 1, 70, 0
4, 97920, Note_on_c, 1, 67, 64
4, 97920, Note_on_c, 1, 63, 64
4, 98351, Note_off_c, 1, 63, 0
4, 98351, Note_off_c, 1, 67, 0
4, 98640, Note_on_c, 1, 67, 64
4, 98640, Note_on_c, 1, 63, 64
4, 99071, Note_off_c, 1, 63, 0
4, 99071, Note_off_c, 1, 67, 0
4, 99360, Note_on_c, 1, 67, 64
4, 99360, Note_on_c, 1, 63, 64
4, 99791, Note_off_c, 1, 63, 0
4, 99791, Note_off_c, 1, 67, 0
4, 100560, Note_on_c, 1, 62, 64
4, 100560, Note_on_c, 1, 70, 64
4, 100775, Note_off_c, 1, 62, 0
4, 100800, Note_on_c, 1, 63, 64
4, 101231, Note_off_c, 1, 70, 0
4, 101231, Note_off_c, 1, 63, 0
4, 101520, Note_on_c, 1, 68, 64
4, 101520, Note_on_c, 1, 56, 64
4, 101951, Note_off_c, 1, 56, 0
4, 101951, Note_off_c, 1, 68, 0
4, 102000, Note_on_c, 1, 69, 64
4, 102000, Note_on_c, 1, 57, 64
4, 102215, Note_off_c, 1, 57, 0
4, 102215, Note_off_c, 1, 69, 0
4, 102240, Note_on_c, 1, 70, 64
4, 102240, Note_on_c, 1, 58, 64
4, 102455, Note_off_c, 1, 58, 0
4, 102455, Note_off_c, 1, 70, 0
4, 102480, Note_on_c, 1, 70, 64
4, 102480, Note_on_c, 1, 58, 64
4, 102695, Note_off_c, 1, 58, 0
4, 102695, Note_off_c, 1, 70, 0
4, 102720, Note_on_c, 1, 69, 64
4, 102720, Note_on_c, 1, 57, 64
4, 102935, Note_off_c, 1, 57, 0
4, 102935, Note_off_c, 1, 69, 0
4, 102960, Note_on_c, 1, 70, 64
4, 102960, Note_on_c, 1, 58, 64
4, 103391, Note_off_c, 1, 58, 0
4, 103391, Note_off_c, 1, 70, 0
4, 103440, Note_on_c, 1, 67, 64
4, 103655, Note_off_c, 1, 67, 0
4, 103680, Note_on_c, 1, 67, 64
4, 103895, Note_off_c, 1, 67, 0
4, 103920, Note_on_c, 1, 63, 64
4, 104135, Note_off_c, 1, 63, 0
4, 104160, Note_on_c, 1, 63, 64
4, 104375, Note_off_c, 1, 63, 0
4, 104400, Note_on_c, 1, 63, 64
4, 104615, Note_off_c, 1, 63, 0
4, 104640, Note_on_c, 1, 58, 64
4, 104855, Note_off_c, 1, 58, 0
4, 104880, Note_on_c, 1, 58, 64
4, 105095, Note_off_c, 1, 58, 0
4, 105120, Note_on_c, 1, 58, 64
4, 105335, Note_off_c, 1, 58, 0
4, 105360, Note_on_c, 1, 55, 64
4, 105575, Note_off_c, 1, 55, 0
4, 105600, Note_on_c, 1, 55, 64
4, 105815, Note_off_c, 1, 55, 0
4, 105840, Note_on_c, 1, 55, 64
4, 106055, Note_off_c, 1, 55, 0
4, 106080, Note_on_c, 1, 51, 64
4, 106295, Note_off_c, 1, 51, 0
4, 106320, Note_on_c, 1, 51, 64
4, 106535, Note_off_c, 1, 51, 0
4, 106560, Control_c, 1, 64, 127
4, 106560, Note_on_c, 1, 56, 89
4, 106560, Note_on_c, 1, 44, 89
4, 106775, Note_off_c, 1, 44, 0
4, 106775, Note_off_c, 1, 56, 0
4, 106800, Note_on_c, 1, 56, 89
4, 106800, Note_on_c, 1, 44, 89
4, 107015, Note_off_c, 1, 44, 0
4, 107015, Note_off_c, 1, 56, 0
4, 107040, Note_on_c, 1, 56, 89
4, 107040, Note_on_c, 1, 44, 89
4, 107255, Note_off_c, 1, 44, 0
4, 107255, Note_off_c, 1, 56, 0
4, 107280, Note_on_c, 1, 56, 89
4, 107280, Note_on_c, 1, 44, 89
4, 107495, Note_off_c, 1, 44, 0
4, 107495, Note_off_c, 1, 56, 0
4, 107520, Note_on_c, 1, 56, 89
4, 107520, Note_on_c, 1, 44, 89
4, 107735, Note_off_c, 1, 44, 0
4, 107735, Note_off_c, 1, 56, 0
4, 107760, Note_on_c, 1, 56, 89
4, 107760, Note_on_c, 1, 44, 89
4, 107857, Control_c, 1, 64, 0
4, 107975, Note_off_c, 1, 44, 0
4, 107975, Note_off_c, 1, 56, 0
4, 108000, Note_on_c, 1, 58, 89
4, 108000, Note_on_c, 1, 46, 89
4, 108037, Control_c, 1, 64, 127
4, 108215, Note_off_c, 1, 46, 0
4, 108215, Note_off_c, 1, 58, 0
4, 108240, Note_on_c, 1, 58, 89
4, 108240, Note_on_c, 1, 46, 89
4, 108455, Note_off_c, 1, 46, 0
4, 108455, Note_off_c, 1, 58, 0
4, 108480, Note_on_c, 1, 58, 89
4, 108480, Note_on_c, 1, 46, 89
4, 108695, Note_off_c, 1, 46, 0
4, 108695, Note_off_c, 1, 58, 0
4, 108720, Note_on_c, 1, 58, 89
4, 108720, Note_on_c, 1, 46, 89
4, 108935, Note_off_c, 1, 46, 0
4, 108935, Note_off_c, 1, 58, 0
4, 108960, Note_on_c, 1, 58, 89
4, 108960, Note_on_c, 1, 46, 89
4, 109175, Note_off_c, 1, 46, 0
4, 109175, Note_off_c, 1, 58, 0
4, 109200, Note_on_c, 1, 58, 89
4, 109200, Note_on_c, 1, 46, 89
4, 109252, Control_c, 1, 64, 0
4, 109415, Note_off_c, 1, 46, 0
4, 109415, Note_off_c, 1, 58, 0
4, 109440, Control_c, 1, 64, 0
4, 109440, Note_on_c, 1, 39, 89
4, 109547, Note_off_c, 1, 39, 0
4, 109560, Note_on_c, 1, 51, 64
4, 109667, Note_off_c, 1, 51, 0
4, 109680, Note_on_c, 1, 39, 52
4, 109787, Note_off_c, 1, 39, 0
4, 109800, Note_on_c, 1, 51, 52
4, 109907, Note_off_c, 1, 51, 0
4, 109920, Note_on_c, 1, 39, 52
4, 110027, Note_off_c, 1, 39, 0
4, 110040, Note_on_c, 1, 51, 52
4, 110147, Note_off_c, 1, 51, 0
4, 110160, Note_on_c, 1, 39, 52
4, 110267, Note_off_c, 1, 39, 0
4, 110280, Note_on_c, 1, 51, 52
4, 110387, Note_off_c, 1, 51, 0
4, 110400, Note_on_c, 1, 39, 52
4, 110507, Note_off_c, 1, 39, 0
4, 110520, Note_on_c, 1, 51, 52
4, 110627, Note_off_c, 1, 51, 0
4, 110640, Note_on_c, 1, 39, 52
4, 110747, Note_off_c, 1, 39, 0
4, 110760, Note_on_c, 1, 51, 52
4, 110867, Note_off_c, 1, 51, 0
4, 110880, Note_on_c, 1, 39, 52
4, 110987, Note_off_c, 1, 39, 0
4, 111000, Note_on_c, 1, 51, 52
4, 111107, Note_off_c, 1, 51, 0
4, 111120, Note_on_c, 1, 39, 52
4, 111227, Note_off_c, 1, 39, 0
4, 111240, Note_on_c, 1, 51, 52
4, 111347, Note_off_c, 1, 51, 0
4, 111360, Note_on_c, 1, 39, 52
4, 111467, Note_off_c, 1, 39, 0
4, 111480, Note_on_c, 1, 51, 52
4, 111587, Note_off_c, 1, 51, 0
4, 111600, Note_on_c, 1, 39, 52
4, 111707, Note_off_c, 1, 39, 0
4, 111720, Note_on_c, 1, 51, 52
4, 111827, Note_off_c, 1, 51, 0
4, 111840, Note_on_c, 1, 39, 52
4, 111947, Note_off_c, 1, 39, 0
4, 111960, Note_on_c, 1, 51, 52
4, 112067, Note_off_c, 1, 51, 0
4, 112080, Note_on_c, 1, 39, 52
4, 112187, Note_off_c, 1, 39, 0
4, 112200, Note_on_c, 1, 51, 52
4, 112307, Note_off_c, 1, 51, 0
4, 112320, Note_on_c, 1, 39, 52
4, 112427, Note_off_c, 1, 39, 0
4, 112440, Note_on_c, 1, 51, 52
4, 112547, Note_off_c, 1, 51, 0
4, 112560, Note_on_c, 1, 39, 52
4, 112667, Note_off_c, 1, 39, 0
4, 112680, Note_on_c, 1, 51, 52
4, 112787, Note_off_c, 1, 51, 0
4, 112800, Note_on_c, 1, 39, 52
4, 112907, Note_off_c, 1, 39, 0
4, 112920, Note_on_c, 1, 51, 52
4, 113027, Note_off_c, 1, 51, 0
4, 113040, Note_on_c, 1, 39, 52
4, 113147, Note_off_c, 1, 39, 0
4, 113160, Note_on_c, 1, 51, 52
4, 113267, Note_off_c, 1, 51, 0
4, 113280, Note_on_c, 1, 39, 52
4, 113387, Note_off_c, 1, 39, 0
4, 113400, Note_on_c, 1, 51, 52
4, 113507, Note_off_c, 1, 51, 0
4, 113520, Note_on_c, 1, 39, 52
4, 113627, Note_off_c, 1, 39, 0
4, 113640, Note_on_c, 1, 51, 52
4, 113747, Note_off_c, 1, 51, 0
4, 113760, Note_on_c, 1, 39, 52
4, 113867, Note_off_c, 1, 39, 0
4, 113880, Note_on_c, 1, 51, 52
4, 113987, Note_off_c, 1, 51, 0
4, 114000, Note_on_c, 1, 39, 52
4, 114107, Note_off_c, 1, 39, 0
4, 114120, Note_on_c, 1, 51, 52
4, 114227, Note_off_c, 1, 51, 0
4, 114240, Note_on_c, 1, 39, 52
4, 114347, Note_off_c, 1, 39, 0
4, 114360, Note_on_c, 1, 51, 52
4, 114467, Note_off_c, 1, 51, 0
4, 114480, Note_on_c, 1, 39, 52
4, 114587, Note_off_c, 1, 39, 0
4, 114600, Note_on_c, 1, 51, 52
4, 114707, Note_off_c, 1, 51, 0
4, 114720, Note_on_c, 1, 39, 52
4, 114827, Note_off_c, 1, 39, 0
4, 114840, Note_on_c, 1, 51, 52
4, 114947, Note_off_c, 1, 51, 0
4, 114960, Note_on_c, 1, 39, 52
4, 115067, Note_off_c, 1, 39, 0
4, 115080, Note_on_c, 1, 51, 52
4, 115187, Note_off_c, 1, 51, 0
4, 115200, Note_on_c, 1, 39, 52
4, 115307, Note_off_c, 1, 39, 0
4, 115320, Note_on_c, 1, 51, 52
4, 115427, Note_off_c, 1, 51, 0
4, 115440, Note_on_c, 1, 39, 52
4, 115547, Note_off_c, 1, 39, 0
4, 115560, Note_on_c, 1, 51, 52
4, 115667, Note_off_c, 1, 51, 0
4, 115680, Note_on_c, 1, 39, 52
4, 115787, Note_off_c, 1, 39, 0
4, 115800, Note_on_c, 1, 51, 52
4, 115907, Note_off_c, 1, 51, 0
4, 115920, Note_on_c, 1, 39, 52
4, 116027, Note_off_c, 1, 39, 0
4, 116040, Note_on_c, 1, 51, 52
4, 116147, Note_off_c, 1, 51, 0
4, 116160, Note_on_c, 1, 39, 52
4, 116267, Note_off_c, 1, 39, 0
4, 116280, Note_on_c, 1, 51, 52
4, 116387, Note_off_c, 1, 51, 0
4, 116400, Note_on_c, 1, 39, 52
4, 116507, Note_off_c, 1, 39, 0
4, 116520, Note_on_c, 1, 51, 52
4, 116627, Note_off_c, 1, 51, 0
4, 116640, Note_on_c, 1, 39, 52
4, 116747, Note_off_c, 1, 39, 0
4, 116760, Note_on_c, 1, 51, 52
4, 116867, Note_off_c, 1, 51, 0
4, 116880, Note_on_c, 1, 39, 52
4, 116987, Note_off_c, 1, 39, 0
4, 117000, Note_on_c, 1, 51, 52
4, 117107, Note_off_c, 1, 51, 0
4, 117120, Note_on_c, 1, 39, 52
4, 117227, Note_off_c, 1, 39, 0
4, 117240, Note_on_c, 1, 51, 52
4, 117347, Note_off_c, 1, 51, 0
4, 117360, Note_on_c, 1, 39, 52
4, 117467, Note_off_c, 1, 39, 0
4, 117480, Note_on_c, 1, 51, 52
4, 117587, Note_off_c, 1, 51, 0
4, 117600, Note_on_c, 1, 39, 52
4, 117707, Note_off_c, 1, 39, 0
4, 117720, Note_on_c, 1, 51, 52
4, 117827, Note_off_c, 1, 51, 0
4, 117840, Note_on_c, 1, 39, 52
4, 117947, Note_off_c, 1, 39, 0
4, 117960, Note_on_c, 1, 51, 52
4, 118067, Note_off_c, 1, 51, 0
4, 118080, Note_on_c, 1, 39, 64
4, 118187, Note_off_c, 1, 39, 0
4, 118200, Note_on_c, 1, 51, 64
4, 118307, Note_off_c, 1, 51, 0
4, 118320, Note_on_c, 1, 39, 64
4, 118427, Note_off_c, 1, 39, 0
4, 118440, Note_on_c, 1, 51, 64
4, 118547, Note_off_c, 1, 51, 0
4, 118560, Note_on_c, 1, 39, 64
4, 118667, Note_off_c, 1, 39, 0
4, 118680, Note_on_c, 1, 51, 64
4, 118787, Note_off_c, 1, 51, 0
4, 118800, Note_on_c, 1, 39, 64
4, 118907, Note_off_c, 1, 39, 0
4, 118920, Note_on_c, 1, 51, 64
4, 119027, Note_off_c, 1, 51, 0
4, 119040, Note_on_c, 1, 39, 64
4, 119147, Note_off_c, 1, 39, 0
4, 119160, Note_on_c, 1, 51, 64
4, 119267, Note_off_c, 1, 51, 0
4, 119280, Note_on_c, 1, 39, 64
4, 119387, Note_off_c, 1, 39, 0
4, 119400, Note_on_c, 1, 51, 64
4, 119507, Note_off_c, 1, 51, 0
4, 119520, Note_on_c, 1, 39, 64
4, 119627, Note_off_c, 1, 39, 0
4, 119640, Note_on_c, 1, 51, 64
4, 119747, Note_off_c, 1, 51, 0
4, 119760, Note_on_c, 1, 39, 64
4, 119867, Note_off_c, 1, 39, 0
4, 119880, Note_on_c, 1, 51, 64
4, 119987, Note_off_c, 1, 51, 0
4, 120000, Note_on_c, 1, 39, 64
4, 120107, Note_off_c, 1, 39, 0
4, 120120, Note_on_c, 1, 51, 64
4, 120227, Note_off_c, 1, 51, 0
4, 120240, Note_on_c, 1, 39, 64
4, 120347, Note_off_c, 1, 39, 0
4, 120360, Note_on_c, 1, 51, 64
4, 120467, Note_off_c, 1, 51, 0
4, 120480, Note_on_c, 1, 39, 64
4, 120587, Note_off_c, 1, 39, 0
4, 120600, Note_on_c, 1, 51, 64
4, 120707, Note_off_c, 1, 51, 0
4, 120720, Note_on_c, 1, 39, 64
4, 120827, Note_off_c, 1, 39, 0
4, 120840, Note_on_c, 1, 51, 64
4, 120947, Note_off_c, 1, 51, 0
4, 120960, Note_on_c, 1, 51, 79
4, 120960, Note_on_c, 1, 39, 79
4, 121175, Note_off_c, 1, 39, 0
4, 121175, Note_off_c, 1, 51, 0
4, 122400, Note_on_c, 1, 56, 79
4, 122400, Note_on_c, 1, 53, 79
4, 122400, Note_on_c, 1, 48, 79
4, 122400, Note_on_c, 1, 44, 79
4, 123693, Note_off_c, 1, 44, 0
4, 123693, Note_off_c, 1, 48, 0
4, 123693, Note_off_c, 1, 53, 0
4, 123693, Note_off_c, 1, 56, 0
4, 123840, Note_on_c, 1, 55, 79
4, 123840, Note_on_c, 1, 51, 79
4, 123840, Note_on_c, 1, 46, 79
4, 125133, Note_off_c, 1, 46, 0
4, 125133, Note_off_c, 1, 51, 0
4, 125133, Note_off_c, 1, 55, 0
4, 125280, Note_on_c, 1, 56, 79
4, 125280, Note_on_c, 1, 53, 79
4, 125280, Note_on_c, 1, 47, 79
4, 126142, Note_off_c, 1, 47, 0
4, 126142, Note_off_c, 1, 53, 0
4, 126142, Note_off_c, 1, 56, 0
4, 126720, Note_on_c, 1, 55, 79
4, 126720, Note_on_c, 1, 51, 79
4, 126720, Note_on_c, 1, 48, 79
4, 127582, Note_off_c, 1, 48, 0
4, 127582, Note_off_c, 1, 51, 0
4, 127582, Note_off_c, 1, 55, 0
4, 128160, Note_on_c, 1, 56, 79
4, 128160, Note_on_c, 1, 53, 79
4, 128160, Note_on_c, 1, 44, 79
4, 129022, Note_off_c, 1, 44, 0
4, 129022, Note_off_c, 1, 53, 0
4, 129022, Note_off_c, 1, 56, 0
4, 129600, Note_on_c, 1, 55, 79
4, 129600, Note_on_c, 1, 51, 79
4, 129600, Note_on_c, 1, 46, 79
4, 130462, Note_off_c, 1, 46, 0
4, 130462, Note_off_c, 1, 51, 0
4, 130462, Note_off_c, 1, 55, 0
4, 131040, Note_on_c, 1, 46, 79
4, 131040, Note_on_c, 1, 56, 79
4, 131040, Note_on_c, 1, 53, 79
4, 131686, Note_off_c, 1, 46, 0
4, 131760, Note_on_c, 1, 47, 79
4, 132333, Note_off_c, 1, 56, 0
4, 132333, Note_off_c, 1, 53, 0
4, 132406, Note_off_c, 1, 47, 0
4, 132480, Note_on_c, 1, 51, 79
4, 132480, Note_on_c, 1, 48, 79
4, 132480, Note_on_c, 1, 55, 79
4, 133415, Note_off_c, 1, 55, 0
4, 133415, Note_off_c, 1, 48, 0
4, 133415, Note_off_c, 1, 51, 0
4, 133920, Note_on_c, 1, 53, 79
4, 133920, Note_on_c, 1, 51, 79
4, 133920, Note_on_c, 1, 48, 79
4, 133920, Note_on_c, 1, 45, 79
4, 133920, Note_on_c, 1, 57, 79
4, 136653, Note_off_c, 1, 57, 0
4, 136653, Note_off_c, 1, 45, 0
4, 136653, Note_off_c, 1, 48, 0
4, 136653, Note_off_c, 1, 51, 0
4, 136653, Note_off_c, 1, 53, 0
4, 136800, Note_on_c, 1, 48, 75
4, 136800, Note_on_c, 1, 45, 75
4, 136800, Note_on_c, 1, 41, 75
4, 136800, Note_on_c, 1, 51, 75
4, 139283, Note_off_c, 1, 41, 0
4, 139283, Note_off_c, 1, 45, 0
4, 139283, Note_off_c, 1, 51, 0
4, 139283, Note_off_c, 1, 48, 0
4, 139680, Note_on_c, 1, 46, 46
4, 139895, Note_off_c, 1, 46, 0
4, 139920, Note_on_c, 1, 41, 46
4, 140135, Note_off_c, 1, 41, 0
4, 140160, Note_on_c, 1, 50, 46
4, 140267, Note_off_c, 1, 50, 0
4, 140400, Note_on_c, 1, 50, 46
4, 140615, Note_off_c, 1, 50, 0
4, 140640, Note_on_c, 1, 46, 46
4, 140855, Note_off_c, 1, 46, 0
4, 140880, Note_on_c, 1, 53, 64
4, 140987, Note_off_c, 1, 53, 0
4, 141120, Note_on_c, 1, 53, 64
4, 141335, Note_off_c, 1, 53, 0
4, 141360, Note_on_c, 1, 50, 64
4, 141575, Note_off_c, 1, 50, 0
4, 141600, Note_on_c, 1, 58, 64
4, 141707, Note_off_c, 1, 58, 0
4, 141840, Note_on_c, 1, 58, 64
4, 142055, Note_off_c, 1, 58, 0
4, 142080, Note_on_c, 1, 53, 64
4, 142295, Note_off_c, 1, 53, 0
4, 142320, Note_on_c, 1, 62, 64
4, 142427, Note_off_c, 1, 62, 0
4, 142560, Note_on_c, 1, 62, 64
4, 142775, Note_off_c, 1, 62, 0
4, 142800, Note_on_c, 1, 58, 64
4, 143015, Note_off_c, 1, 58, 0
4, 143040, Note_on_c, 1, 65, 64
4, 143147, Note_off_c, 1, 65, 0
4, 143760, Note_on_c, 1, 57, 64
4, 143760, Note_on_c, 1, 65, 64
4, 143975, Note_off_c, 1, 57, 0
4, 144000, Note_on_c, 1, 58, 64
4, 144431, Note_off_c, 1, 65, 0
4, 144431, Note_off_c, 1, 58, 0
4, 144720, Note_on_c, 1, 63, 64
4, 144720, Note_on_c, 1, 51, 64
4, 145151, Note_off_c, 1, 51, 0
4, 145151, Note_off_c, 1, 63, 0
4, 145200, Note_on_c, 1, 64, 64
4, 145200, Note_on_c, 1, 52, 64
4, 145415, Note_off_c, 1, 52, 0
4, 145415, Note_off_c, 1, 64, 0
4, 145440, Note_on_c, 1, 65, 64
4, 145440, Note_on_c, 1, 53, 64
4, 145655, Note_off_c, 1, 53, 0
4, 145655, Note_off_c, 1, 65, 0
4, 145680, Note_on_c, 1, 65, 64
4, 145680, Note_on_c, 1, 53, 64
4, 145787, Note_off_c, 1, 53, 0
4, 145787, Note_off_c, 1, 65, 0
4, 145920, Note_on_c, 1, 64, 64
4, 145920, Note_on_c, 1, 52, 64
4, 146027, Note_off_c, 1, 52, 0
4, 146027, Note_off_c, 1, 64, 0
4, 146160, Note_on_c, 1, 65, 64
4, 146160, Note_on_c, 1, 53, 64
4, 146591, Note_off_c, 1, 53, 0
4, 146591, Note_off_c, 1, 65, 0
4, 146880, Note_on_c, 1, 58, 64
4, 146902, Control_c, 1, 64, 127
4, 147311, Note_off_c, 1, 58, 0
4, 147322, Control_c, 1, 64, 0
4, 149520, Note_on_c, 1, 58, 64
4, 149520, Note_on_c, 1, 60, 64
4, 149735, Note_off_c, 1, 58, 0
4, 149760, Note_on_c, 1, 57, 64
4, 149975, Note_off_c, 1, 60, 0
4, 149975, Note_off_c, 1, 57, 0
4, 150000, Note_on_c, 1, 55, 64
4, 150107, Note_off_c, 1, 55, 0
4, 150240, Note_on_c, 1, 53, 64
4, 150347, Note_off_c, 1, 53, 0
4, 150480, Note_on_c, 1, 58, 64
4, 150911, Note_off_c, 1, 58, 0
4, 150960, Note_on_c, 1, 60, 64
4, 151175, Note_off_c, 1, 60, 0
4, 151200, Note_on_c, 1, 53, 64
4, 151307, Note_off_c, 1, 53, 0
4, 151440, Note_on_c, 1, 48, 64
4, 151547, Note_off_c, 1, 48, 0
4, 151680, Note_on_c, 1, 45, 64
4, 151787, Note_off_c, 1, 45, 0
4, 151920, Note_on_c, 1, 41, 64
4, 152135, Note_off_c, 1, 41, 0
4, 152640, Note_on_c, 1, 53, 54
4, 152640, Control_c, 1, 64, 127
4, 152640, Note_on_c, 1, 63, 54
4, 152747, Note_off_c, 1, 63, 0
4, 152760, Note_on_c, 1, 65, 54
4, 152867, Note_off_c, 1, 65, 0
4, 152880, Note_on_c, 1, 63, 54
4, 152987, Note_off_c, 1, 63, 0
4, 153000, Note_on_c, 1, 65, 54
4, 153107, Note_off_c, 1, 65, 0
4, 153120, Note_on_c, 1, 63, 54
4, 153227, Note_off_c, 1, 63, 0
4, 153240, Note_on_c, 1, 65, 54
4, 153286, Note_off_c, 1, 53, 0
4, 153337, Control_c, 1, 64, 0
4, 153347, Note_off_c, 1, 65, 0
4, 153360, Note_on_c, 1, 53, 54
4, 153360, Note_on_c, 1, 63, 54
4, 153467, Note_off_c, 1, 63, 0
4, 153480, Note_on_c, 1, 65, 54
4, 153587, Note_off_c, 1, 65, 0
4, 153600, Note_on_c, 1, 63, 54
4, 153707, Note_off_c, 1, 63, 0
4, 153720, Note_on_c, 1, 65, 54
4, 153827, Note_off_c, 1, 65, 0
4, 153840, Note_on_c, 1, 63, 54
4, 153947, Note_off_c, 1, 63, 0
4, 153960, Note_on_c, 1, 65, 54
4, 154006, Note_off_c, 1, 53, 0
4, 154067, Note_off_c, 1, 65, 0
4, 154080, Note_on_c, 1, 53, 54
4, 154080, Control_c, 1, 64, 127
4, 154080, Note_on_c, 1, 62, 54
4, 154187, Note_off_c, 1, 62, 0
4, 154200, Note_on_c, 1, 65, 54
4, 154307, Note_off_c, 1, 65, 0
4, 154320, Note_on_c, 1, 62, 54
4, 154427, Note_off_c, 1, 62, 0
4, 154440, Note_on_c, 1, 65, 54
4, 154547, Note_off_c, 1, 65, 0
4, 154560, Note_on_c, 1, 62, 54
4, 154667, Note_off_c, 1, 62, 0
4, 154680, Note_on_c, 1, 65, 54
4, 154726, Note_off_c, 1, 53, 0
4, 154787, Note_off_c, 1, 65, 0
4, 154800, Note_on_c, 1, 53, 54
4, 154800, Note_on_c, 1, 62, 54
4, 154907, Note_off_c, 1, 62, 0
4, 154920, Note_on_c, 1, 65, 54
4, 155027, Note_off_c, 1, 65, 0
4, 155040, Note_on_c, 1, 62, 54
4, 155147, Note_off_c, 1, 62, 0
4, 155160, Note_on_c, 1, 65, 54
4, 155267, Note_off_c, 1, 65, 0
4, 155280, Note_on_c, 1, 62, 54
4, 155387, Note_off_c, 1, 62, 0
4, 155400, Note_on_c, 1, 65, 54
4, 155446, Note_off_c, 1, 53, 0
4, 155460, Control_c, 1, 64, 0
4, 155507, Note_off_c, 1, 65, 0
4, 155520, Note_on_c, 1, 53, 54
4, 155520, Control_c, 1, 64, 127
4, 155520, Note_on_c, 1, 63, 54
4, 155627, Note_off_c, 1, 63, 0
4, 155640, Note_on_c, 1, 65, 54
4, 155747, Note_off_c, 1, 65, 0
4, 155760, Note_on_c, 1, 63, 54
4, 155867, Note_off_c, 1, 63, 0
4, 155880, Note_on_c, 1, 65, 54
4, 155987, Note_off_c, 1, 65, 0
4, 156000, Note_on_c, 1, 63, 54
4, 156107, Note_off_c, 1, 63, 0
4, 156120, Note_on_c, 1, 65, 54
4, 156166, Note_off_c, 1, 53, 0
4, 156202, Control_c, 1, 64, 0
4, 156227, Note_off_c, 1, 65, 0
4, 156240, Note_on_c, 1, 53, 54
4, 156240, Note_on_c, 1, 63, 54
4, 156347, Note_off_c, 1, 63, 0
4, 156360, Note_on_c, 1, 65, 54
4, 156467, Note_off_c, 1, 65, 0
4, 156480, Note_on_c, 1, 63, 54
4, 156587, Note_off_c, 1, 63, 0
4, 156600, Note_on_c, 1, 65, 54
4, 156707, Note_off_c, 1, 65, 0
4, 156720, Note_on_c, 1, 63, 54
4, 156827, Note_off_c, 1, 63, 0
4, 156840, Note_on_c, 1, 65, 54
4, 156886, Note_off_c, 1, 53, 0
4, 156947, Note_off_c, 1, 65, 0
4, 156960, Note_on_c, 1, 53, 54
4, 156960, Control_c, 1, 64, 127
4, 156960, Note_on_c, 1, 62, 54
4, 157067, Note_off_c, 1, 62, 0
4, 157080, Note_on_c, 1, 65, 54
4, 157187, Note_off_c, 1, 65, 0
4, 157200, Note_on_c, 1, 62, 54
4, 157307, Note_off_c, 1, 62, 0
4, 157320, Note_on_c, 1, 65, 54
4, 157427, Note_off_c, 1, 65, 0
4, 157440, Note_on_c, 1, 62, 54
4, 157547, Note_off_c, 1, 62, 0
4, 157560, Note_on_c, 1, 65, 54
4, 157606, Note_off_c, 1, 53, 0
4, 157667, Note_off_c, 1, 65, 0
4, 157680, Note_on_c, 1, 53, 54
4, 157680, Note_on_c, 1, 62, 54
4, 157787, Note_off_c, 1, 62, 0
4, 157800, Note_on_c, 1, 65, 54
4, 157907, Note_off_c, 1, 65, 0
4, 157920, Note_on_c, 1, 62, 54
4, 158027, Note_off_c, 1, 62, 0
4, 158040, Note_on_c, 1, 65, 54
4, 158147, Note_off_c, 1, 65, 0
4, 158152, Control_c, 1, 64, 0
4, 158160, Note_on_c, 1, 62, 54
4, 158267, Note_off_c, 1, 62, 0
4, 158280, Note_on_c, 1, 65, 54
4, 158326, Note_off_c, 1, 53, 0
4, 158387, Note_off_c, 1, 65, 0
4, 158400, Note_on_c, 1, 63, 54
4, 158507, Note_off_c, 1, 63, 0
4, 158520, Note_on_c, 1, 65, 54
4, 158627, Note_off_c, 1, 65, 0
4, 158640, Note_on_c, 1, 63, 54
4, 158747, Note_off_c, 1, 63, 0
4, 158760, Note_on_c, 1, 65, 54
4, 158867, Note_off_c, 1, 65, 0
4, 158880, Note_on_c, 1, 63, 54
4, 158987, Note_off_c, 1, 63, 0
4, 159000, Note_on_c, 1, 65, 54
4, 159107, Note_off_c, 1, 65, 0
4, 159120, Note_on_c, 1, 60, 54
4, 159227, Note_off_c, 1, 60, 0
4, 159240, Note_on_c, 1, 63, 54
4, 159347, Note_off_c, 1, 63, 0
4, 159360, Note_on_c, 1, 60, 54
4, 159467, Note_off_c, 1, 60, 0
4, 159480, Note_on_c, 1, 63, 54
4, 159587, Note_off_c, 1, 63, 0
4, 159600, Note_on_c, 1, 60, 54
4, 159707, Note_off_c, 1, 60, 0
4, 159720, Note_on_c, 1, 63, 54
4, 159827, Note_off_c, 1, 63, 0
4, 159840, Note_on_c, 1, 62, 54
4, 159870, Control_c, 1, 64, 127
4, 159947, Note_off_c, 1, 62, 0
4, 159960, Note_on_c, 1, 65, 54
4, 160067, Note_off_c, 1, 65, 0
4, 160080, Note_on_c, 1, 62, 54
4, 160187, Note_off_c, 1, 62, 0
4, 160200, Note_on_c, 1, 65, 54
4, 160307, Note_off_c, 1, 65, 0
4, 160320, Note_on_c, 1, 62, 54
4, 160427, Note_off_c, 1, 62, 0
4, 160440, Note_on_c, 1, 65, 54
4, 160547, Note_off_c, 1, 65, 0
4, 160560, Control_c, 1, 64, 0
4, 160560, Note_on_c, 1, 60, 54
4, 160560, Note_on_c, 1, 57, 54
4, 160667, Note_off_c, 1, 57, 0
4, 160667, Note_off_c, 1, 60, 0
4, 160680, Note_on_c, 1, 62, 54
4, 160787, Note_off_c, 1, 62, 0
4, 160800, Note_on_c, 1, 60, 54
4, 160800, Note_on_c, 1, 57, 54
4, 160907, Note_off_c, 1, 57, 0
4, 160907, Note_off_c, 1, 60, 0
4, 160920, Note_on_c, 1, 62, 54
4, 161027, Note_off_c, 1, 62, 0
4, 161040, Note_on_c, 1, 60, 54
4, 161040, Note_on_c, 1, 57, 54
4, 161147, Note_off_c, 1, 57, 0
4, 161147, Note_off_c, 1, 60, 0
4, 161160, Note_on_c, 1, 62, 54
4, 161267, Note_off_c, 1, 62, 0
4, 161280, Note_on_c, 1, 55, 54
4, 161280, Note_on_c, 1, 58, 54
4, 161295, Control_c, 1, 64, 127
4, 161387, Note_off_c, 1, 58, 0
4, 161400, Note_on_c, 1, 62, 54
4, 161507, Note_off_c, 1, 62, 0
4, 161520, Note_on_c, 1, 58, 54
4, 161627, Note_off_c, 1, 58, 0
4, 161640, Note_on_c, 1, 62, 54
4, 161747, Note_off_c, 1, 62, 0
4, 161760, Note_on_c, 1, 58, 54
4, 161827, Control_c, 1, 64, 0
4, 161867, Note_off_c, 1, 58, 0
4, 161880, Note_on_c, 1, 62, 54
4, 161926, Note_off_c, 1, 55, 0
4, 161987, Note_off_c, 1, 62, 0
4, 162000, Note_on_c, 1, 55, 54
4, 162000, Note_on_c, 1, 58, 54
4, 162107, Note_off_c, 1, 58, 0
4, 162120, Note_on_c, 1, 62, 54
4, 162227, Note_off_c, 1, 62, 0
4, 162240, Note_on_c, 1, 58, 54
4, 162347, Note_off_c, 1, 58, 0
4, 162360, Note_on_c, 1, 62, 54
4, 162467, Note_off_c, 1, 62, 0
4, 162480, Note_on_c, 1, 58, 54
4, 162587, Note_off_c, 1, 58, 0
4, 162600, Note_on_c, 1, 62, 54
4, 162646, Note_off_c, 1, 55, 0
4, 162707, Note_off_c, 1, 62, 0
4, 162720, Note_on_c, 1, 50, 54
4, 162720, Control_c, 1, 64, 127
4, 162720, Note_on_c, 1, 60, 54
4, 162827, Note_off_c, 1, 60, 0
4, 162840, Note_on_c, 1, 62, 54
4, 162947, Note_off_c, 1, 62, 0
4, 162960, Note_on_c, 1, 60, 54
4, 163067, Note_off_c, 1, 60, 0
4, 163080, Note_on_c, 1, 62, 54
4, 163187, Note_off_c, 1, 62, 0
4, 163200, Note_on_c, 1, 60, 54
4, 163307, Note_off_c, 1, 60, 0
4, 163320, Note_on_c, 1, 62, 54
4, 163366, Note_off_c, 1, 50, 0
4, 163427, Note_off_c, 1, 62, 0
4, 163440, Note_on_c, 1, 50, 54
4, 163440, Note_on_c, 1, 60, 54
4, 163547, Note_off_c, 1, 60, 0
4, 163560, Note_on_c, 1, 62, 54
4, 163597, Control_c, 1, 64, 0
4, 163667, Note_off_c, 1, 62, 0
4, 163680, Note_on_c, 1, 60, 54
4, 163787, Note_off_c, 1, 60, 0
4, 163800, Note_on_c, 1, 62, 54
4, 163907, Note_off_c, 1, 62, 0
4, 163920, Note_on_c, 1, 60, 54
4, 164027, Note_off_c, 1, 60, 0
4, 164040, Note_on_c, 1, 62, 54
4, 164086, Note_off_c, 1, 50, 0
4, 164147, Note_off_c, 1, 62, 0
4, 164160, Note_on_c, 1, 55, 54
4, 164160, Control_c, 1, 64, 127
4, 164160, Note_on_c, 1, 58, 54
4, 164267, Note_off_c, 1, 58, 0
4, 164280, Note_on_c, 1, 62, 54
4, 164387, Note_off_c, 1, 62, 0
4, 164400, Note_on_c, 1, 58, 54
4, 164497, Control_c, 1, 64, 0
4, 164507, Note_off_c, 1, 58, 0
4, 164520, Note_on_c, 1, 62, 54
4, 164627, Note_off_c, 1, 62, 0
4, 164640, Note_on_c, 1, 58, 54
4, 164747, Note_off_c, 1, 58, 0
4, 164760, Note_on_c, 1, 62, 54
4, 164806, Note_off_c, 1, 55, 0
4, 164857, Control_c, 1, 64, 127
4, 164867, Note_off_c, 1, 62, 0
4, 164880, Note_on_c, 1, 55, 54
4, 164880, Note_on_c, 1, 58, 54
4, 164987, Note_off_c, 1, 58, 0
4, 165000, Note_on_c, 1, 62, 54
4, 165107, Note_off_c, 1, 62, 0
4, 165120, Note_on_c, 1, 58, 54
4, 165227, Note_off_c, 1, 58, 0
4, 165240, Note_on_c, 1, 62, 54
4, 165347, Note_off_c, 1, 62, 0
4, 165360, Note_on_c, 1, 58, 54
4, 165397, Control_c, 1, 64, 0
4, 165467, Note_off_c, 1, 58, 0
4, 165480, Note_on_c, 1, 62, 54
4, 165526, Note_off_c, 1, 55, 0
4, 165587, Note_off_c, 1, 62, 0
4, 165600, Note_on_c, 1, 55, 54
4, 165600, Note_on_c, 1, 58, 54
4, 165667, Control_c, 1, 64, 127
4, 165707, Note_off_c, 1, 58, 0
4, 165720, Note_on_c, 1, 60, 54
4, 165827, Note_off_c, 1, 60, 0
4, 165840, Note_on_c, 1, 58, 54
4, 165947, Note_off_c, 1, 58, 0
4, 165960, Note_on_c, 1, 60, 54
4, 166012, Control_c, 1, 64, 0
4, 166067, Note_off_c, 1, 60, 0
4, 166080, Note_on_c, 1, 58, 54
4, 166187, Note_off_c, 1, 58, 0
4, 166200, Note_on_c, 1, 62, 54
4, 166246, Note_off_c, 1, 55, 0
4, 166307, Note_off_c, 1, 62, 0
4, 166320, Note_on_c, 1, 55, 54
4, 166320, Note_on_c, 1, 58, 54
4, 166427, Note_off_c, 1, 58, 0
4, 166440, Note_on_c, 1, 60, 54
4, 166547, Note_off_c, 1, 60, 0
4, 166560, Note_on_c, 1, 58, 54
4, 166667, Note_off_c, 1, 58, 0
4, 166680, Note_on_c, 1, 60, 54
4, 166787, Note_off_c, 1, 60, 0
4, 166800, Note_on_c, 1, 58, 54
4, 166907, Note_off_c, 1, 58, 0
4, 166920, Note_on_c, 1, 60, 54
4, 166966, Note_off_c, 1, 55, 0
4, 167027, Note_off_c, 1, 60, 0
4, 167040, Note_on_c, 1, 53, 54
4, 167040, Control_c, 1, 64, 127
4, 167040, Note_on_c, 1, 57, 54
4, 167147, Note_off_c, 1, 57, 0
4, 167160, Note_on_c, 1, 60, 54
4, 167267, Note_off_c, 1, 60, 0
4, 167280, Note_on_c, 1, 57, 54
4, 167332, Control_c, 1, 64, 0
4, 167387, Note_off_c, 1, 57, 0
4, 167400, Note_on_c, 1, 60, 54
4, 167507, Note_off_c, 1, 60, 0
4, 167520, Note_on_c, 1, 57, 54
4, 167627, Note_off_c, 1, 57, 0
4, 167640, Note_on_c, 1, 60, 54
4, 167686, Note_off_c, 1, 53, 0
4, 167747, Note_off_c, 1, 60, 0
4, 167760, Note_on_c, 1, 48, 54
4, 167760, Note_on_c, 1, 58, 54
4, 167867, Note_off_c, 1, 58, 0
4, 167880, Note_on_c, 1, 60, 54
4, 167987, Note_off_c, 1, 60, 0
4, 168000, Note_on_c, 1, 58, 54
4, 168107, Note_off_c, 1, 58, 0
4, 168120, Note_on_c, 1, 60, 54
4, 168227, Note_off_c, 1, 60, 0
4, 168240, Note_on_c, 1, 58, 54
4, 168347, Note_off_c, 1, 58, 0
4, 168360, Note_on_c, 1, 60, 54
4, 168406, Note_off_c, 1, 48, 0
4, 168467, Note_off_c, 1, 60, 0
4, 168480, Note_on_c, 1, 53, 54
4, 168480, Control_c, 1, 64, 127
4, 168480, Note_on_c, 1, 57, 54
4, 168587, Note_off_c, 1, 57, 0
4, 168600, Note_on_c, 1, 60, 54
4, 168707, Note_off_c, 1, 60, 0
4, 168720, Note_on_c, 1, 57, 54
4, 168827, Note_off_c, 1, 57, 0
4, 168840, Note_on_c, 1, 60, 54
4, 168900, Control_c, 1, 64, 0
4, 168947, Note_off_c, 1, 60, 0
4, 168960, Note_on_c, 1, 57, 54
4, 169067, Note_off_c, 1, 57, 0
4, 169080, Note_on_c, 1, 60, 54
4, 169126, Note_off_c, 1, 53, 0
4, 169187, Note_off_c, 1, 60, 0
4, 169200, Note_on_c, 1, 48, 54
4, 169200, Note_on_c, 1, 58, 54
4, 169307, Note_off_c, 1, 58, 0
4, 169320, Note_on_c, 1, 60, 54
4, 169427, Note_off_c, 1, 60, 0
4, 169440, Note_on_c, 1, 58, 54
4, 169547, Note_off_c, 1, 58, 0
4, 169560, Note_on_c, 1, 60, 54
4, 169667, Note_off_c, 1, 60, 0
4, 169680, Note_on_c, 1, 58, 54
4, 169787, Note_off_c, 1, 58, 0
4, 169800, Note_on_c, 1, 60, 54
4, 169846, Note_off_c, 1, 48, 0
4, 169907, Note_off_c, 1, 60, 0
4, 169920, Control_c, 1, 64, 127
4, 169920, Note_on_c, 1, 57, 54
4, 169920, Note_on_c, 1, 53, 54
4, 170197, Control_c, 1, 64, 0
4, 170351, Note_off_c, 1, 53, 0
4, 170351, Note_off_c, 1, 57, 0
4, 170647, Control_c, 1, 64, 127
4, 171112, Control_c, 1, 64, 0
4, 172800, Control_c, 1, 64, 127
4, 172800, Note_on_c, 1, 63, 79
4, 172800, Note_on_c, 1, 60, 79
4, 172800, Note_on_c, 1, 57, 79
4, 172800, Note_on_c, 1, 53, 79
4, 173446, Note_off_c, 1, 53, 0
4, 173446, Note_off_c, 1, 57, 0
4, 173446, Note_off_c, 1, 60, 0
4, 173446, Note_off_c, 1, 63, 0
4, 173460, Control_c, 1, 64, 0
4, 174240, Note_on_c, 1, 51, 79
4, 174240, Note_on_c, 1, 48, 79
4, 174240, Note_on_c, 1, 45, 79
4, 174240, Note_on_c, 1, 41, 79
4, 174307, Control_c, 1, 64, 127
4, 174886, Note_off_c, 1, 41, 0
4, 174886, Note_off_c, 1, 45, 0
4, 174886, Note_off_c, 1, 48, 0
4, 174886, Note_off_c, 1, 51, 0
4, 174922, Control_c, 1, 64, 0
4, 175680, Note_on_c, 1, 50, 64
4, 175895, Note_off_c, 1, 50, 0
4, 175920, Note_on_c, 1, 46, 64
4, 176135, Note_off_c, 1, 46, 0
4, 176160, Note_on_c, 1, 53, 64
4, 176375, Note_off_c, 1, 53, 0
4, 176400, Note_on_c, 1, 53, 64
4, 176615, Note_off_c, 1, 53, 0
4, 176640, Note_on_c, 1, 50, 64
4, 176855, Note_off_c, 1, 50, 0
4, 176880, Note_on_c, 1, 58, 64
4, 177095, Note_off_c, 1, 58, 0
4, 177120, Note_on_c, 1, 58, 64
4, 177335, Note_off_c, 1, 58, 0
4, 177360, Note_on_c, 1, 53, 64
4, 177575, Note_off_c, 1, 53, 0
4, 177600, Note_on_c, 1, 62, 64
4, 177815, Note_off_c, 1, 62, 0
4, 178320, Note_on_c, 1, 57, 64
4, 178320, Note_on_c, 1, 45, 64
4, 178535, Note_off_c, 1, 45, 0
4, 178535, Note_off_c, 1, 57, 0
4, 178560, Note_on_c, 1, 46, 84
4, 178667, Note_off_c, 1, 46, 0
4, 178680, Note_on_c, 1, 58, 84
4, 178787, Note_off_c, 1, 58, 0
4, 178800, Note_on_c, 1, 46, 84
4, 178907, Note_off_c, 1, 46, 0
4, 178920, Note_on_c, 1, 58, 84
4, 179027, Note_off_c, 1, 58, 0
4, 179040, Note_on_c, 1, 46, 84
4, 179147, Note_off_c, 1, 46, 0
4, 179160, Note_on_c, 1, 58, 84
4, 179267, Note_off_c, 1, 58, 0
4, 179280, Note_on_c, 1, 39, 84
4, 179387, Note_off_c, 1, 39, 0
4, 179400, Note_on_c, 1, 51, 84
4, 179507, Note_off_c, 1, 51, 0
4, 179520, Note_on_c, 1, 39, 84
4, 179627, Note_off_c, 1, 39, 0
4, 179640, Note_on_c, 1, 51, 84
4, 179747, Note_off_c, 1, 51, 0
4, 179760, Note_on_c, 1, 40, 84
4, 179867, Note_off_c, 1, 40, 0
4, 179880, Note_on_c, 1, 52, 84
4, 179987, Note_off_c, 1, 52, 0
4, 180000, Note_on_c, 1, 41, 84
4, 180107, Note_off_c, 1, 41, 0
4, 180120, Note_on_c, 1, 53, 84
4, 180227, Note_off_c, 1, 53, 0
4, 180240, Note_on_c, 1, 41, 84
4, 180347, Note_off_c, 1, 41, 0
4, 180360, Note_on_c, 1, 53, 84
4, 180467, Note_off_c, 1, 53, 0
4, 180480, Note_on_c, 1, 41, 84
4, 180587, Note_off_c, 1, 41, 0
4, 180600, Note_on_c, 1, 53, 84
4, 180707, Note_off_c, 1, 53, 0
4, 180720, Note_on_c, 1, 53, 84
4, 180720, Note_on_c, 1, 41, 84
4, 181151, Note_off_c, 1, 41, 0
4, 181151, Note_off_c, 1, 53, 0
4, 181440, Note_on_c, 1, 58, 84
4, 181440, Note_on_c, 1, 53, 84
4, 181440, Note_on_c, 1, 46, 84
4, 181871, Note_off_c, 1, 46, 0
4, 181871, Note_off_c, 1, 53, 0
4, 181871, Note_off_c, 1, 58, 0
4, 182160, Note_on_c, 1, 58, 84
4, 182160, Note_on_c, 1, 53, 84
4, 182160, Note_on_c, 1, 46, 84
4, 182591, Note_off_c, 1, 46, 0
4, 182591, Note_off_c, 1, 53, 0
4, 182591, Note_off_c, 1, 58, 0
4, 182880, Note_on_c, 1, 58, 84
4, 182880, Note_on_c, 1, 53, 84
4, 182880, Note_on_c, 1, 46, 84
4, 183311, Note_off_c, 1, 46, 0
4, 183311, Note_off_c, 1, 53, 0
4, 183311, Note_off_c, 1, 58, 0
4, 183600, Note_on_c, 1, 58, 84
4, 183600, Note_on_c, 1, 53, 84
4, 183600, Note_on_c, 1, 46, 84
4, 183815, Note_off_c, 1, 46, 0
4, 183815, Note_off_c, 1, 53, 0
4, 183815, Note_off_c, 1, 58, 0
4, 184080, Note_on_c, 1, 39, 64
4, 184187, Note_off_c, 1, 39, 0
4, 184200, Note_on_c, 1, 51, 64
4, 184307, Note_off_c, 1, 51, 0
4, 184320, Note_on_c, 1, 41, 89
4, 184427, Note_off_c, 1, 41, 0
4, 184440, Note_on_c, 1, 53, 89
4, 184547, Note_off_c, 1, 53, 0
4, 184560, Note_on_c, 1, 41, 89
4, 184667, Note_off_c, 1, 41, 0
4, 184680, Note_on_c, 1, 53, 89
4, 184787, Note_off_c, 1, 53, 0
4, 184800, Note_on_c, 1, 41, 89
4, 184907, Note_off_c, 1, 41, 0
4, 184920, Note_on_c, 1, 53, 89
4, 185027, Note_off_c, 1, 53, 0
4, 185040, Note_on_c, 1, 41, 89
4, 185147, Note_off_c, 1, 41, 0
4, 185160, Note_on_c, 1, 53, 89
4, 185267, Note_off_c, 1, 53, 0
4, 185280, Note_on_c, 1, 41, 89
4, 185387, Note_off_c, 1, 41, 0
4, 185400, Note_on_c, 1, 53, 89
4, 185507, Note_off_c, 1, 53, 0
4, 185520, Note_on_c, 1, 41, 89
4, 185627, Note_off_c, 1, 41, 0
4, 185640, Note_on_c, 1, 53, 89
4, 185747, Note_off_c, 1, 53, 0
4, 185760, Note_on_c, 1, 58, 89
4, 185867, Note_off_c, 1, 58, 0
4, 186000, Note_on_c, 1, 53, 89
4, 186107, Note_off_c, 1, 53, 0
4, 186240, Note_on_c, 1, 50, 89
4, 186347, Note_off_c, 1, 50, 0
4, 186480, Note_on_c, 1, 46, 89
4, 186911, Note_off_c, 1, 46, 0
4, 187200, Note_on_c, 1, 55, 64
4, 187415, Note_off_c, 1, 55, 0
4, 187440, Note_on_c, 1, 58, 64
4, 187655, Note_off_c, 1, 58, 0
4, 187680, Note_on_c, 1, 62, 64
4, 187895, Note_off_c, 1, 62, 0
4, 187920, Note_on_c, 1, 55, 64
4, 188135, Note_off_c, 1, 55, 0
4, 188160, Note_on_c, 1, 58, 64
4, 188375, Note_off_c, 1, 58, 0
4, 188400, Note_on_c, 1, 62, 64
4, 188615, Note_off_c, 1, 62, 0
4, 188640, Note_on_c, 1, 57, 64
4, 188855, Note_off_c, 1, 57, 0
4, 188880, Note_on_c, 1, 60, 64
4, 189095, Note_off_c, 1, 60, 0
4, 189120, Note_on_c, 1, 62, 64
4, 189335, Note_off_c, 1, 62, 0
4, 189360, Note_on_c, 1, 57, 64
4, 189575, Note_off_c, 1, 57, 0
4, 189600, Note_on_c, 1, 60, 64
4, 189815, Note_off_c, 1, 60, 0
4, 189840, Note_on_c, 1, 62, 64
4, 190055, Note_off_c, 1, 62, 0
4, 190080, Note_on_c, 1, 54, 64
4, 190295, Note_off_c, 1, 54, 0
4, 190320, Note_on_c, 1, 57, 64
4, 190535, Note_off_c, 1, 57, 0
4, 190560, Note_on_c, 1, 62, 64
4, 190775, Note_off_c, 1, 62, 0
4, 190800, Note_on_c, 1, 54, 64
4, 191015, Note_off_c, 1, 54, 0
4, 191040, Note_on_c, 1, 57, 64
4, 191255, Note_off_c, 1, 57, 0
4, 191280, Note_on_c, 1, 62, 64
4, 191495, Note_off_c, 1, 62, 0
4, 191520, Note_on_c, 1, 55, 64
4, 191735, Note_off_c, 1, 55, 0
4, 191760, Note_on_c, 1, 58, 64
4, 191975, Note_off_c, 1, 58, 0
4, 192000, Note_on_c, 1, 62, 64
4, 192215, Note_off_c, 1, 62, 0
4, 192240, Note_on_c, 1, 55, 64
4, 192455, Note_off_c, 1, 55, 0
4, 192480, Note_on_c, 1, 58, 64
4, 192695, Note_off_c, 1, 58, 0
4, 192720, Note_on_c, 1, 62, 64
4, 192935, Note_off_c, 1, 62, 0
4, 192960, Note_on_c, 1, 46, 64
4, 193175, Note_off_c, 1, 46, 0
4, 193200, Note_on_c, 1, 50, 64
4, 193415, Note_off_c, 1, 50, 0
4, 193440, Note_on_c, 1, 55, 64
4, 193655, Note_off_c, 1, 55, 0
4, 193680, Note_on_c, 1, 46, 64
4, 193895, Note_off_c, 1, 46, 0
4, 193920, Note_on_c, 1, 50, 64
4, 194135, Note_off_c, 1, 50, 0
4, 194160, Note_on_c, 1, 55, 64
4, 194375, Note_off_c, 1, 55, 0
4, 194400, Note_on_c, 1, 48, 64
4, 194615, Note_off_c, 1, 48, 0
4, 194640, Note_on_c, 1, 51, 64
4, 194855, Note_off_c, 1, 51, 0
4, 194880, Note_on_c, 1, 57, 64
4, 195095, Note_off_c, 1, 57, 0
4, 195120, Note_on_c, 1, 48, 64
4, 195335, Note_off_c, 1, 48, 0
4, 195360, Note_on_c, 1, 51, 64
4, 195575, Note_off_c, 1, 51, 0
4, 195600, Note_on_c, 1, 57, 64
4, 195815, Note_off_c, 1, 57, 0
4, 195840, Note_on_c, 1, 50, 64
4, 196055, Note_off_c, 1, 50, 0
4, 196080, Note_on_c, 1, 55, 64
4, 196295, Note_off_c, 1, 55, 0
4, 196320, Note_on_c, 1, 58, 64
4, 196535, Note_off_c, 1, 58, 0
4, 196560, Note_on_c, 1, 50, 64
4, 196775, Note_off_c, 1, 50, 0
4, 196800, Note_on_c, 1, 57, 64
4, 197015, Note_off_c, 1, 57, 0
4, 197040, Note_on_c, 1, 60, 64
4, 197255, Note_off_c, 1, 60, 0
4, 197280, Note_on_c, 1, 55, 64
4, 197495, Note_off_c, 1, 55, 0
4, 197520, Note_on_c, 1, 58, 64
4, 197735, Note_off_c, 1, 58, 0
4, 197760, Note_on_c, 1, 62, 64
4, 197975, Note_off_c, 1, 62, 0
4, 198000, Note_on_c, 1, 67, 64
4, 198431, Note_off_c, 1, 67, 0
4, 198720, Note_on_c, 1, 57, 64
4, 198935, Note_off_c, 1, 57, 0
4, 198960, Note_on_c, 1, 60, 64
4, 199175, Note_off_c, 1, 60, 0
4, 199200, Note_on_c, 1, 62, 64
4, 199415, Note_off_c, 1, 62, 0
4, 199440, Note_on_c, 1, 55, 64
4, 199655, Note_off_c, 1, 55, 0
4, 199680, Note_on_c, 1, 58, 64
4, 199895, Note_off_c, 1, 58, 0
4, 199920, Note_on_c, 1, 62, 64
4, 200135, Note_off_c, 1, 62, 0
4, 200160, Note_on_c, 1, 54, 64
4, 200375, Note_off_c, 1, 54, 0
4, 200400, Note_on_c, 1, 57, 64
4, 200615, Note_off_c, 1, 57, 0
4, 200640, Note_on_c, 1, 62, 64
4, 200855, Note_off_c, 1, 62, 0
4, 200880, Note_on_c, 1, 50, 64
4, 201095, Note_off_c, 1, 50, 0
4, 201120, Note_on_c, 1, 54, 64
4, 201335, Note_off_c, 1, 54, 0
4, 201360, Note_on_c, 1, 62, 64
4, 201575, Note_off_c, 1, 62, 0
4, 201600, Note_on_c, 1, 46, 64
4, 201815, Note_off_c, 1, 46, 0
4, 201840, Note_on_c, 1, 50, 64
4, 202055, Note_off_c, 1, 50, 0
4, 202080, Note_on_c, 1, 55, 64
4, 202295, Note_off_c, 1, 55, 0
4, 202320, Note_on_c, 1, 45, 64
4, 202535, Note_off_c, 1, 45, 0
4, 202560, Note_on_c, 1, 48, 64
4, 202775, Note_off_c, 1, 48, 0
4, 202800, Note_on_c, 1, 54, 64
4, 203015, Note_off_c, 1, 54, 0
4, 203040, Note_on_c, 1, 43, 64
4, 203255, Note_off_c, 1, 43, 0
4, 203280, Note_on_c, 1, 46, 64
4, 203495, Note_off_c, 1, 46, 0
4, 203520, Note_on_c, 1, 50, 64
4, 203735, Note_off_c, 1, 50, 0
4, 203760, Note_on_c, 1, 43, 64
4, 203975, Note_off_c, 1, 43, 0
4, 204000, Note_on_c, 1, 46, 64
4, 204215, Note_off_c, 1, 46, 0
4, 204240, Note_on_c, 1, 50, 64
4, 204455, Note_off_c, 1, 50, 0
4, 204480, Note_on_c, 1, 48, 64
4, 204695, Note_off_c, 1, 48, 0
4, 204720, Note_on_c, 1, 57, 64
4, 204935, Note_off_c, 1, 57, 0
4, 204960, Note_on_c, 1, 60, 64
4, 205175, Note_off_c, 1, 60, 0
4, 205200, Note_on_c, 1, 48, 64
4, 205415, Note_off_c, 1, 48, 0
4, 205440, Note_on_c, 1, 51, 64
4, 205655, Note_off_c, 1, 51, 0
4, 205680, Note_on_c, 1, 57, 64
4, 205895, Note_off_c, 1, 57, 0
4, 205920, Note_on_c, 1, 46, 64
4, 206135, Note_off_c, 1, 46, 0
4, 206160, Note_on_c, 1, 55, 64
4, 206375, Note_off_c, 1, 55, 0
4, 206400, Note_on_c, 1, 58, 64
4, 206615, Note_off_c, 1, 58, 0
4, 206640, Note_on_c, 1, 46, 64
4, 206855, Note_off_c, 1, 46, 0
4, 206880, Note_on_c, 1, 50, 64
4, 207095, Note_off_c, 1, 50, 0
4, 207120, Note_on_c, 1, 55, 64
4, 207335, Note_off_c, 1, 55, 0
4, 207360, Note_on_c, 1, 48, 64
4, 207575, Note_off_c, 1, 48, 0
4, 207600, Note_on_c, 1, 51, 64
4, 207815, Note_off_c, 1, 51, 0
4, 207840, Note_on_c, 1, 57, 64
4, 208055, Note_off_c, 1, 57, 0
4, 208080, Note_on_c, 1, 50, 64
4, 208295, Note_off_c, 1, 50, 0
4, 208320, Note_on_c, 1, 57, 64
4, 208535, Note_off_c, 1, 57, 0
4, 208560, Note_on_c, 1, 60, 64
4, 208775, Note_off_c, 1, 60, 0
4, 208800, Note_on_c, 1, 51, 64
4, 209015, Note_off_c, 1, 51, 0
4, 209040, Note_on_c, 1, 55, 64
4, 209255, Note_off_c, 1, 55, 0
4, 209280, Note_on_c, 1, 58, 64
4, 209495, Note_off_c, 1, 58, 0
4, 209520, Note_on_c, 1, 51, 64
4, 209735, Note_off_c, 1, 51, 0
4, 209760, Note_on_c, 1, 55, 64
4, 209975, Note_off_c, 1, 55, 0
4, 210000, Note_on_c, 1, 58, 64
4, 210215, Note_off_c, 1, 58, 0
4, 210240, Note_on_c, 1, 51, 64
4, 210455, Note_off_c, 1, 51, 0
4, 210480, Note_on_c, 1, 55, 64
4, 210695, Note_off_c, 1, 55, 0
4, 210720, Note_on_c, 1, 58, 64
4, 210935, Note_off_c, 1, 58, 0
4, 210960, Note_on_c, 1, 51, 64
4, 211175, Note_off_c, 1, 51, 0
4, 211200, Note_on_c, 1, 55, 64
4, 211415, Note_off_c, 1, 55, 0
4, 211440, Note_on_c, 1, 58, 64
4, 211655, Note_off_c, 1, 58, 0
4, 211680, Note_on_c, 1, 50, 64
4, 211895, Note_off_c, 1, 50, 0
4, 211920, Note_on_c, 1, 55, 49
4, 212135, Note_off_c, 1, 55, 0
4, 212160, Note_on_c, 1, 59, 49
4, 212375, Note_off_c, 1, 59, 0
4, 212400, Note_on_c, 1, 50, 49
4, 212615, Note_off_c, 1, 50, 0
4, 212640, Note_on_c, 1, 55, 49
4, 212855, Note_off_c, 1, 55, 0
4, 212880, Note_on_c, 1, 59, 49
4, 213095, Note_off_c, 1, 59, 0
4, 213120, Note_on_c, 1, 50, 49
4, 213335, Note_off_c, 1, 50, 0
4, 213360, Note_on_c, 1, 54, 49
4, 213575, Note_off_c, 1, 54, 0
4, 213600, Note_on_c, 1, 60, 49
4, 213815, Note_off_c, 1, 60, 0
4, 213840, Note_on_c, 1, 50, 49
4, 214055, Note_off_c, 1, 50, 0
4, 214080, Note_on_c, 1, 54, 49
4, 214295, Note_off_c, 1, 54, 0
4, 214320, Note_on_c, 1, 60, 49
4, 214535, Note_off_c, 1, 60, 0
4, 214560, Note_on_c, 1, 55, 82
4, 214560, Note_on_c, 1, 50, 82
4, 214560, Note_on_c, 1, 47, 82
4, 214560, Note_on_c, 1, 43, 82
4, 214991, Note_off_c, 1, 43, 0
4, 214991, Note_off_c, 1, 47, 0
4, 214991, Note_off_c, 1, 50, 0
4, 214991, Note_off_c, 1, 55, 0
4, 215280, Note_on_c, 1, 54, 82
4, 215280, Note_on_c, 1, 50, 82
4, 215280, Note_on_c, 1, 48, 82
4, 215280, Note_on_c, 1, 45, 82
4, 215711, Note_off_c, 1, 45, 0
4, 215711, Note_off_c, 1, 48, 0
4, 215711, Note_off_c, 1, 50, 0
4, 215711, Note_off_c, 1, 54, 0
4, 216000, Note_on_c, 1, 55, 82
4, 216000, Note_on_c, 1, 50, 82
4, 216000, Note_on_c, 1, 47, 82
4, 216431, Note_off_c, 1, 47, 0
4, 216431, Note_off_c, 1, 50, 0
4, 216431, Note_off_c, 1, 55, 0
4, 217440, Note_on_c, 1, 62, 82
4, 217440, Note_on_c, 1, 57, 82
4, 217440, Note_on_c, 1, 54, 82
4, 217871, Note_off_c, 1, 54, 0
4, 217871, Note_off_c, 1, 57, 0
4, 217871, Note_off_c, 1, 62, 0
4, 218160, Note_on_c, 1, 62, 82
4, 218160, Note_on_c, 1, 59, 82
4, 218160, Note_on_c, 1, 55, 82
4, 218591, Note_off_c, 1, 55, 0
4, 218591, Note_off_c, 1, 59, 0
4, 218591, Note_off_c, 1, 62, 0
4, 218880, Note_on_c, 1, 62, 82
4, 218880, Note_on_c, 1, 57, 82
4, 218880, Note_on_c, 1, 54, 82
4, 218880, Note_on_c, 1, 50, 82
4, 219311, Note_off_c, 1, 50, 0
4, 219311, Note_off_c, 1, 54, 0
4, 219311, Note_off_c, 1, 57, 0
4, 219311, Note_off_c, 1, 62, 0
4, 220320, Note_on_c, 1, 55, 82
4, 220320, Note_on_c, 1, 50, 82
4, 220320, Note_on_c, 1, 47, 82
4, 220320, Note_on_c, 1, 43, 82
4, 220751, Note_off_c, 1, 43, 0
4, 220751, Note_off_c, 1, 47, 0
4, 220751, Note_off_c, 1, 50, 0
4, 220751, Note_off_c, 1, 55, 0
4, 221040, Note_on_c, 1, 54, 82
4, 221040, Note_on_c, 1, 50, 82
4, 221040, Note_on_c, 1, 48, 82
4, 221040, Note_on_c, 1, 45, 82
4, 221471, Note_off_c, 1, 45, 0
4, 221471, Note_off_c, 1, 48, 0
4, 221471, Note_off_c, 1, 50, 0
4, 221471, Note_off_c, 1, 54, 0
4, 221760, Note_on_c, 1, 55, 82
4, 221760, Note_on_c, 1, 50, 82
4, 221760, Note_on_c, 1, 47, 82
4, 222191, Note_off_c, 1, 47, 0
4, 222191, Note_off_c, 1, 50, 0
4, 222191, Note_off_c, 1, 55, 0
4, 222480, Note_on_c, 1, 52, 82
4, 222480, Note_on_c, 1, 48, 82
4, 222911, Note_off_c, 1, 48, 0
4, 222911, Note_off_c, 1, 52, 0
4, 223200, Note_on_c, 1, 50, 82
4, 223631, Note_off_c, 1, 50, 0
4, 223920, Note_on_c, 1, 38, 82
4, 224351, Note_off_c, 1, 38, 0
4, 224640, Note_on_c, 1, 43, 82
4, 224855, Note_off_c, 1, 43, 0
4, 224880, Note_on_c, 1, 55, 82
4, 225095, Note_off_c, 1, 55, 0
4, 225120, Note_on_c, 1, 55, 82
4, 225335, Note_off_c, 1, 55, 0
4, 225360, Note_on_c, 1, 55, 82
4, 225791, Note_off_c, 1, 55, 0
4, 226080, Note_on_c, 1, 60, 64
4, 226295, Note_off_c, 1, 60, 0
4, 226320, Note_on_c, 1, 62, 64
4, 226535, Note_off_c, 1, 62, 0
4, 226560, Note_on_c, 1, 63, 64
4, 226775, Note_off_c, 1, 63, 0
4, 226800, Note_on_c, 1, 63, 64
4, 227015, Note_off_c, 1, 63, 0
4, 227040, Note_on_c, 1, 62, 64
4, 227255, Note_off_c, 1, 62, 0
4, 227280, Note_on_c, 1, 60, 64
4, 227495, Note_off_c, 1, 60, 0
4, 227520, Note_on_c, 1, 60, 64
4, 227735, Note_off_c, 1, 60, 0
4, 227760, Note_on_c, 1, 62, 64
4, 227975, Note_off_c, 1, 62, 0
4, 228000, Note_on_c, 1, 63, 64
4, 228215, Note_off_c, 1, 63, 0
4, 228240, Note_on_c, 1, 63, 64
4, 228886, Note_off_c, 1, 63, 0
4, 228960, Note_on_c, 1, 67, 64
4, 228960, Note_on_c, 1, 64, 64
4, 228960, Note_on_c, 1, 61, 64
4, 229067, Note_off_c, 1, 61, 0
4, 229067, Note_off_c, 1, 64, 0
4, 229067, Note_off_c, 1, 67, 0
4, 229200, Note_on_c, 1, 67, 64
4, 229200, Note_on_c, 1, 64, 64
4, 229200, Note_on_c, 1, 61, 64
4, 229307, Note_off_c, 1, 61, 0
4, 229307, Note_off_c, 1, 64, 0
4, 229307, Note_off_c, 1, 67, 0
4, 229440, Note_on_c, 1, 67, 64
4, 229440, Note_on_c, 1, 64, 64
4, 229440, Note_on_c, 1, 61, 64
4, 229547, Note_off_c, 1, 61, 0
4, 229547, Note_off_c, 1, 64, 0
4, 229547, Note_off_c, 1, 67, 0
4, 229680, Note_on_c, 1, 67, 64
4, 229680, Note_on_c, 1, 64, 64
4, 229680, Note_on_c, 1, 61, 64
4, 230111, Note_off_c, 1, 61, 0
4, 230111, Note_off_c, 1, 64, 0
4, 230111, Note_off_c, 1, 67, 0
4, 230400, Note_on_c, 1, 70, 64
4, 230400, Note_on_c, 1, 67, 64
4, 230400, Note_on_c, 1, 62, 64
4, 230507, Note_off_c, 1, 62, 0
4, 230507, Note_off_c, 1, 67, 0
4, 230507, Note_off_c, 1, 70, 0
4, 230640, Note_on_c, 1, 70, 64
4, 230640, Note_on_c, 1, 67, 64
4, 230640, Note_on_c, 1, 62, 64
4, 230747, Note_off_c, 1, 62, 0
4, 230747, Note_off_c, 1, 67, 0
4, 230747, Note_off_c, 1, 70, 0
4, 230880, Note_on_c, 1, 70, 64
4, 230880, Note_on_c, 1, 67, 64
4, 230880, Note_on_c, 1, 62, 64
4, 230987, Note_off_c, 1, 62, 0
4, 230987, Note_off_c, 1, 67, 0
4, 230987, Note_off_c, 1, 70, 0
4, 231120, Note_on_c, 1, 70, 64
4, 231120, Note_on_c, 1, 67, 64
4, 231120, Note_on_c, 1, 62, 64
4, 231551, Note_off_c, 1, 62, 0
4, 231551, Note_off_c, 1, 67, 0
4, 231551, Note_off_c, 1, 70, 0
4, 231840, Note_on_c, 1, 50, 82
4, 231840, Note_on_c, 1, 38, 82
4, 231947, Note_off_c, 1, 38, 0
4, 231947, Note_off_c, 1, 50, 0
4, 232080, Note_on_c, 1, 50, 82
4, 232080, Note_on_c, 1, 38, 82
4, 232187, Note_off_c, 1, 38, 0
4, 232187, Note_off_c, 1, 50, 0
4, 232320, Note_on_c, 1, 50, 82
4, 232320, Note_on_c, 1, 38, 82
4, 232427, Note_off_c, 1, 38, 0
4, 232427, Note_off_c, 1, 50, 0
4, 232560, Note_on_c, 1, 50, 82
4, 232560, Note_on_c, 1, 38, 82
4, 232667, Note_off_c, 1, 38, 0
4, 232667, Note_off_c, 1, 50, 0
4, 232800, Note_on_c, 1, 50, 82
4, 232800, Note_on_c, 1, 38, 82
4, 232907, Note_off_c, 1, 38, 0
4, 232907, Note_off_c, 1, 50, 0
4, 233040, Note_on_c, 1, 50, 82
4, 233040, Note_on_c, 1, 38, 82
4, 233147, Note_off_c, 1, 38, 0
4, 233147, Note_off_c, 1, 50, 0
4, 233280, Note_on_c, 1, 43, 82
4, 233280, Note_on_c, 1, 31, 82
4, 233387, Note_off_c, 1, 31, 0
4, 233387, Note_off_c, 1, 43, 0
4, 233520, Note_on_c, 1, 43, 82
4, 233520, Note_on_c, 1, 31, 82
4, 233627, Note_off_c, 1, 31, 0
4, 233627, Note_off_c, 1, 43, 0
4, 233760, Note_on_c, 1, 43, 82
4, 233760, Note_on_c, 1, 31, 82
4, 233867, Note_off_c, 1, 31, 0
4, 233867, Note_off_c, 1, 43, 0
4, 234000, Note_on_c, 1, 45, 82
4, 234000, Note_on_c, 1, 33, 82
4, 234107, Note_off_c, 1, 33, 0
4, 234107, Note_off_c, 1, 45, 0
4, 234240, Note_on_c, 1, 45, 82
4, 234240, Note_on_c, 1, 33, 82
4, 234347, Note_off_c, 1, 33, 0
4, 234347, Note_off_c, 1, 45, 0
4, 234480, Note_on_c, 1, 45, 82
4, 234480, Note_on_c, 1, 33, 82
4, 234587, Note_off_c, 1, 33, 0
4, 234587, Note_off_c, 1, 45, 0
4, 234720, Note_on_c, 1, 47, 82
4, 234720, Note_on_c, 1, 35, 82
4, 234827, Note_off_c, 1, 35, 0
4, 234827, Note_off_c, 1, 47, 0
4, 234960, Note_on_c, 1, 47, 82
4, 234960, Note_on_c, 1, 35, 82
4, 235067, Note_off_c, 1, 35, 0
4, 235067, Note_off_c, 1, 47, 0
4, 235200, Note_on_c, 1, 47, 82
4, 235200, Note_on_c, 1, 35, 82
4, 235307, Note_off_c, 1, 35, 0
4, 235307, Note_off_c, 1, 47, 0
4, 235440, Note_on_c, 1, 48, 82
4, 235440, Note_on_c, 1, 36, 82
4, 235547, Note_off_c, 1, 36, 0
4, 235547, Note_off_c, 1, 48, 0
4, 235680, Note_on_c, 1, 36, 82
4, 235787, Note_off_c, 1, 36, 0
4, 235920, Note_on_c, 1, 36, 82
4, 236027, Note_off_c, 1, 36, 0
4, 236160, Note_on_c, 1, 38, 82
4, 236160, Note_on_c, 1, 47, 82
4, 236267, Note_off_c, 1, 47, 0
4, 236267, Note_off_c, 1, 38, 0
4, 236280, Note_on_c, 1, 50, 82
4, 236387, Note_off_c, 1, 50, 0
4, 236400, Note_on_c, 1, 38, 82
4, 236400, Note_on_c, 1, 55, 82
4, 236507, Note_off_c, 1, 55, 0
4, 236507, Note_off_c, 1, 38, 0
4, 236520, Note_on_c, 1, 50, 82
4, 236627, Note_off_c, 1, 50, 0
4, 236640, Note_on_c, 1, 38, 82
4, 236640, Note_on_c, 1, 47, 82
4, 236747, Note_off_c, 1, 47, 0
4, 236747, Note_off_c, 1, 38, 0
4, 236760, Note_on_c, 1, 50, 82
4, 236867, Note_off_c, 1, 50, 0
4, 236880, Note_on_c, 1, 38, 82
4, 236880, Note_on_c, 1, 45, 82
4, 236987, Note_off_c, 1, 45, 0
4, 236987, Note_off_c, 1, 38, 0
4, 237000, Note_on_c, 1, 50, 82
4, 237107, Note_off_c, 1, 50, 0
4, 237120, Note_on_c, 1, 38, 82
4, 237120, Note_on_c, 1, 54, 82
4, 237227, Note_off_c, 1, 54, 0
4, 237227, Note_off_c, 1, 38, 0
4, 237240, Note_on_c, 1, 50, 82
4, 237347, Note_off_c, 1, 50, 0
4, 237360, Note_on_c, 1, 38, 82
4, 237360, Note_on_c, 1, 45, 82
4, 237467, Note_off_c, 1, 45, 0
4, 237467, Note_off_c, 1, 38, 0
4, 237480, Note_on_c, 1, 50, 82
4, 237587, Note_off_c, 1, 50, 0
4, 237600, Note_on_c, 1, 31, 82
4, 237600, Note_on_c, 1, 55, 82
4, 237840, Note_on_c, 1, 43, 82
4, 237947, Note_off_c, 1, 43, 0
4, 238080, Note_on_c, 1, 43, 82
4, 238187, Note_off_c, 1, 43, 0
4, 238246, Note_off_c, 1, 55, 0
4, 238320, Note_on_c, 1, 43, 82
4, 238427, Note_off_c, 1, 43, 0
4, 238560, Note_on_c, 1, 43, 64
4, 238667, Note_off_c, 1, 43, 0
4, 238800, Note_on_c, 1, 43, 64
4, 238893, Note_off_c, 1, 31, 0
4, 238907, Note_off_c, 1, 43, 0
4, 239040, Note_on_c, 1, 43, 76
4, 239280, Note_on_c, 1, 55, 76
4, 239387, Note_off_c, 1, 55, 0
4, 239471, Note_off_c, 1, 43, 0
4, 239520, Note_on_c, 1, 55, 76
4, 239627, Note_off_c, 1, 55, 0
4, 239760, Note_on_c, 1, 55, 76
4, 239867, Note_off_c, 1, 55, 0
4, 240000, Note_on_c, 1, 55, 76
4, 240107, Note_off_c, 1, 55, 0
4, 240240, Note_on_c, 1, 55, 76
4, 240347, Note_off_c, 1, 55, 0
4, 240480, Note_on_c, 1, 43, 76
4, 240720, Note_on_c, 1, 55, 76
4, 240827, Note_off_c, 1, 55, 0
4, 240911, Note_off_c, 1, 43, 0
4, 240960, Note_on_c, 1, 55, 76
4, 241067, Note_off_c, 1, 55, 0
4, 241200, Note_on_c, 1, 55, 76
4, 241307, Note_off_c, 1, 55, 0
4, 241440, Note_on_c, 1, 55, 76
4, 241547, Note_off_c, 1, 55, 0
4, 241680, Note_on_c, 1, 55, 76
4, 241787, Note_off_c, 1, 55, 0
4, 241920, Note_on_c, 1, 43, 76
4, 242160, Note_on_c, 1, 55, 76
4, 242267, Note_off_c, 1, 55, 0
4, 242351, Note_off_c, 1, 43, 0
4, 242400, Note_on_c, 1, 55, 76
4, 242507, Note_off_c, 1, 55, 0
4, 242640, Note_on_c, 1, 55, 76
4, 242747, Note_off_c, 1, 55, 0
4, 242880, Note_on_c, 1, 55, 76
4, 242987, Note_off_c, 1, 55, 0
4, 243120, Note_on_c, 1, 55, 76
4, 243227, Note_off_c, 1, 55, 0
4, 243360, Note_on_c, 1, 43, 76
4, 243600, Note_on_c, 1, 55, 76
4, 243707, Note_off_c, 1, 55, 0
4, 243791, Note_off_c, 1, 43, 0
4, 243840, Note_on_c, 1, 55, 76
4, 243947, Note_off_c, 1, 55, 0
4, 244080, Note_on_c, 1, 55, 76
4, 244187, Note_off_c, 1, 55, 0
4, 244320, Note_on_c, 1, 55, 76
4, 244427, Note_off_c, 1, 55, 0
4, 244560, Note_on_c, 1, 55, 76
4, 244667, Note_off_c, 1, 55, 0
4, 244800, Note_on_c, 1, 55, 72
4, 245040, Note_on_c, 1, 67, 72
4, 245147, Note_off_c, 1, 67, 0
4, 245231, Note_off_c, 1, 55, 0
4, 245280, Note_on_c, 1, 67, 72
4, 245387, Note_off_c, 1, 67, 0
4, 245520, Note_on_c, 1, 67, 72
4, 245627, Note_off_c, 1, 67, 0
4, 245760, Note_on_c, 1, 67, 72
4, 245867, Note_off_c, 1, 67, 0
4, 246000, Note_on_c, 1, 67, 72
4, 246107, Note_off_c, 1, 67, 0
4, 246240, Note_on_c, 1, 55, 72
4, 246480, Note_on_c, 1, 67, 72
4, 246587, Note_off_c, 1, 67, 0
4, 246671, Note_off_c, 1, 55, 0
4, 246720, Note_on_c, 1, 67, 72
4, 246827, Note_off_c, 1, 67, 0
4, 246960, Note_on_c, 1, 67, 72
4, 247067, Note_off_c, 1, 67, 0
4, 247200, Note_on_c, 1, 67, 72
4, 247307, Note_off_c, 1, 67, 0
4, 247440, Note_on_c, 1, 67, 72
4, 247547, Note_off_c, 1, 67, 0
4, 247680, Note_on_c, 1, 55, 72
4, 247920, Note_on_c, 1, 67, 72
4, 248027, Note_off_c, 1, 67, 0
4, 248111, Note_off_c, 1, 55, 0
4, 248160, Note_on_c, 1, 67, 72
4, 248267, Note_off_c, 1, 67, 0
4, 248400, Note_on_c, 1, 67, 72
4, 248507, Note_off_c, 1, 67, 0
4, 248640, Note_on_c, 1, 67, 72
4, 248747, Note_off_c, 1, 67, 0
4, 248880, Note_on_c, 1, 67, 72
4, 248987, Note_off_c, 1, 67, 0
4, 249120, Note_on_c, 1, 55, 72
4, 249360, Note_on_c, 1, 67, 72
4, 249467, Note_off_c, 1, 67, 0
4, 249551, Note_off_c, 1, 55, 0
4, 249600, Note_on_c, 1, 67, 72
4, 249707, Note_off_c, 1, 67, 0
4, 249840, Note_on_c, 1, 67, 72
4, 249947, Note_off_c, 1, 67, 0
4, 250080, Note_on_c, 1, 67, 72
4, 250187, Note_off_c, 1, 67, 0
4, 250320, Note_on_c, 1, 67, 72
4, 250427, Note_off_c, 1, 67, 0
4, 250560, Note_on_c, 1, 55, 72
4, 250800, Note_on_c, 1, 67, 72
4, 250907, Note_off_c, 1, 67, 0
4, 250991, Note_off_c, 1, 55, 0
4, 251040, Note_on_c, 1, 67, 72
4, 251147, Note_off_c, 1, 67, 0
4, 251280, Note_on_c, 1, 67, 72
4, 251387, Note_off_c, 1, 67, 0
4, 251520, Note_on_c, 1, 67, 72
4, 251627, Note_off_c, 1, 67, 0
4, 251760, Note_on_c, 1, 67, 72
4, 251867, Note_off_c, 1, 67, 0
4, 252000, Note_on_c, 1, 62, 79
4, 252107, Note_off_c, 1, 62, 0
4, 252240, Note_on_c, 1, 65, 79
4, 252347, Note_off_c, 1, 65, 0
4, 252360, Note_on_c, 1, 63, 79
4, 252467, Note_off_c, 1, 63, 0
4, 252480, Note_on_c, 1, 62, 79
4, 252587, Note_off_c, 1, 62, 0
4, 252600, Note_on_c, 1, 60, 79
4, 252707, Note_off_c, 1, 60, 0
4, 252720, Note_on_c, 1, 59, 79
4, 253151, Note_off_c, 1, 59, 0
4, 253440, Note_on_c, 1, 60, 79
4, 253547, Note_off_c, 1, 60, 0
4, 253680, Note_on_c, 1, 67, 79
4, 253787, Note_off_c, 1, 67, 0
4, 253800, Note_on_c, 1, 65, 79
4, 253907, Note_off_c, 1, 65, 0
4, 253920, Note_on_c, 1, 63, 79
4, 254027, Note_off_c, 1, 63, 0
4, 254040, Note_on_c, 1, 62, 79
4, 254147, Note_off_c, 1, 62, 0
4, 254160, Note_on_c, 1, 60, 79
4, 254591, Note_off_c, 1, 60, 0
4, 254880, Note_on_c, 1, 56, 79
4, 254987, Note_off_c, 1, 56, 0
4, 255120, Note_on_c, 1, 60, 79
4, 255227, Note_off_c, 1, 60, 0
4, 255240, Note_on_c, 1, 58, 79
4, 255347, Note_off_c, 1, 58, 0
4, 255360, Note_on_c, 1, 56, 79
4, 255467, Note_off_c, 1, 56, 0
4, 255480, Note_on_c, 1, 55, 79
4, 255587, Note_off_c, 1, 55, 0
4, 255600, Note_on_c, 1, 54, 79
4, 256031, Note_off_c, 1, 54, 0
4, 256320, Note_on_c, 1, 55, 79
4, 256427, Note_off_c, 1, 55, 0
4, 256560, Note_on_c, 1, 50, 79
4, 256667, Note_off_c, 1, 50, 0
4, 256680, Note_on_c, 1, 48, 79
4, 256787, Note_off_c, 1, 48, 0
4, 256800, Note_on_c, 1, 47, 79
4, 256907, Note_off_c, 1, 47, 0
4, 256920, Note_on_c, 1, 45, 79
4, 257027, Note_off_c, 1, 45, 0
4, 257040, Note_on_c, 1, 43, 79
4, 257471, Note_off_c, 1, 43, 0
4, 257760, Note_on_c, 1, 48, 79
4, 257867, Note_off_c, 1, 48, 0
4, 258000, Note_on_c, 1, 55, 79
4, 258107, Note_off_c, 1, 55, 0
4, 258120, Note_on_c, 1, 53, 79
4, 258227, Note_off_c, 1, 53, 0
4, 258240, Note_on_c, 1, 51, 79
4, 258347, Note_off_c, 1, 51, 0
4, 258360, Note_on_c, 1, 50, 79
4, 258467, Note_off_c, 1, 50, 0
4, 258480, Note_on_c, 1, 48, 79
4, 258911, Note_off_c, 1, 48, 0
4, 259200, Note_on_c, 1, 44, 89
4, 259307, Note_off_c, 1, 44, 0
4, 259440, Note_on_c, 1, 48, 89
4, 259547, Note_off_c, 1, 48, 0
4, 259560, Note_on_c, 1, 46, 89
4, 259667, Note_off_c, 1, 46, 0
4, 259680, Note_on_c, 1, 44, 89
4, 259787, Note_off_c, 1, 44, 0
4, 259800, Note_on_c, 1, 43, 89
4, 259907, Note_off_c, 1, 43, 0
4, 259920, Note_on_c, 1, 42, 89
4, 260351, Note_off_c, 1, 42, 0
4, 260640, Note_on_c, 1, 43, 89
4, 260747, Note_off_c, 1, 43, 0
4, 260760, Note_on_c, 1, 47, 89
4, 260867, Note_off_c, 1, 47, 0
4, 260880, Note_on_c, 1, 48, 89
4, 260987, Note_off_c, 1, 48, 0
4, 261000, Note_on_c, 1, 50, 89
4, 261107, Note_off_c, 1, 50, 0
4, 261120, Note_on_c, 1, 52, 89
4, 261227, Note_off_c, 1, 52, 0
4, 261240, Note_on_c, 1, 54, 89
4, 261347, Note_off_c, 1, 54, 0
4, 261360, Note_on_c, 1, 55, 89
4, 261791, Note_off_c, 1, 55, 0
4, 262080, Note_on_c, 1, 55, 89
4, 262187, Note_off_c, 1, 55, 0
4, 262200, Note_on_c, 1, 59, 89
4, 262307, Note_off_c, 1, 59, 0
4, 262320, Note_on_c, 1, 60, 89
4, 262427, Note_off_c, 1, 60, 0
4, 262440, Note_on_c, 1, 62, 89
4, 262547, Note_off_c, 1, 62, 0
4, 262560, Note_on_c, 1, 63, 89
4, 262667, Note_off_c, 1, 63, 0
4, 262680, Note_on_c, 1, 66, 89
4, 262787, Note_off_c, 1, 66, 0
4, 262800, Note_on_c, 1, 67, 89
4, 263231, Note_off_c, 1, 67, 0
4, 263520, Note_on_c, 1, 43, 89
4, 263627, Note_off_c, 1, 43, 0
4, 263640, Note_on_c, 1, 47, 89
4, 263747, Note_off_c, 1, 47, 0
4, 263760, Note_on_c, 1, 48, 89
4, 263867, Note_off_c, 1, 48, 0
4, 263880, Note_on_c, 1, 50, 89
4, 263987, Note_off_c, 1, 50, 0
4, 264000, Note_on_c, 1, 52, 89
4, 264107, Note_off_c, 1, 52, 0
4, 264120, Note_on_c, 1, 54, 89
4, 264227, Note_off_c, 1, 54, 0
4, 264240, Note_on_c, 1, 55, 89
4, 264671, Note_off_c, 1, 55, 0
4, 264960, Note_on_c, 1, 55, 89
4, 265067, Note_off_c, 1, 55, 0
4, 265080, Note_on_c, 1, 59, 89
4, 265187, Note_off_c, 1, 59, 0
4, 265200, Note_on_c, 1, 60, 89
4, 265307, Note_off_c, 1, 60, 0
4, 265320, Note_on_c, 1, 62, 89
4, 265427, Note_off_c, 1, 62, 0
4, 265440, Note_on_c, 1, 63, 89
4, 265547, Note_off_c, 1, 63, 0
4, 265560, Note_on_c, 1, 66, 89
4, 265667, Note_off_c, 1, 66, 0
4, 265680, Note_on_c, 1, 67, 89
4, 266111, Note_off_c, 1, 67, 0
4, 266400, Note_on_c, 1, 43, 89
4, 266507, Note_off_c, 1, 43, 0
4, 266520, Note_on_c, 1, 55, 89
4, 266627, Note_off_c, 1, 55, 0
4, 266640, Note_on_c, 1, 43, 89
4, 266747, Note_off_c, 1, 43, 0
4, 266760, Note_on_c, 1, 55, 89
4, 266867, Note_off_c, 1, 55, 0
4, 266880, Note_on_c, 1, 44, 89
4, 266987, Note_off_c, 1, 44, 0
4, 267000, Note_on_c, 1, 56, 89
4, 267107, Note_off_c, 1, 56, 0
4, 267120, Note_on_c, 1, 43, 89
4, 267227, Note_off_c, 1, 43, 0
4, 267240, Note_on_c, 1, 55, 89
4, 267347, Note_off_c, 1, 55, 0
4, 267360, Note_on_c, 1, 43, 89
4, 267467, Note_off_c, 1, 43, 0
4, 267480, Note_on_c, 1, 55, 89
4, 267587, Note_off_c, 1, 55, 0
4, 267600, Note_on_c, 1, 44, 89
4, 267707, Note_off_c, 1, 44, 0
4, 267720, Note_on_c, 1, 56, 89
4, 267827, Note_off_c, 1, 56, 0
4, 267840, Note_on_c, 1, 43, 89
4, 267947, Note_off_c, 1, 43, 0
4, 267960, Note_on_c, 1, 55, 89
4, 268067, Note_off_c, 1, 55, 0
4, 268080, Note_on_c, 1, 43, 89
4, 268187, Note_off_c, 1, 43, 0
4, 268200, Note_on_c, 1, 55, 89
4, 268307, Note_off_c, 1, 55, 0
4, 268320, Note_on_c, 1, 44, 89
4, 268427, Note_off_c, 1, 44, 0
4, 268440, Note_on_c, 1, 56, 89
4, 268547, Note_off_c, 1, 56, 0
4, 268560, Note_on_c, 1, 43, 89
4, 268667, Note_off_c, 1, 43, 0
4, 268680, Note_on_c, 1, 55, 89
4, 268787, Note_off_c, 1, 55, 0
4, 268800, Note_on_c, 1, 43, 89
4, 268907, Note_off_c, 1, 43, 0
4, 268920, Note_on_c, 1, 55, 89
4, 269027, Note_off_c, 1, 55, 0
4, 269040, Note_on_c, 1, 44, 89
4, 269147, Note_off_c, 1, 44, 0
4, 269160, Note_on_c, 1, 56, 89
4, 269267, Note_off_c, 1, 56, 0
4, 269280, Note_on_c, 1, 55, 89
4, 269280, Note_on_c, 1, 43, 89
4, 269711, Note_off_c, 1, 43, 0
4, 269711, Note_off_c, 1, 55, 0
4, 270720, Note_on_c, 1, 55, 64
4, 270720, Note_on_c, 1, 52, 64
4, 270720, Note_on_c, 1, 48, 64
4, 270720, Note_on_c, 1, 58, 64
4, 273453, Note_off_c, 1, 58, 0
4, 273453, Note_off_c, 1, 48, 0
4, 273453, Note_off_c, 1, 52, 0
4, 273453, Note_off_c, 1, 55, 0
4, 273600, Note_on_c, 1, 46, 64
4, 273600, Note_on_c, 1, 43, 64
4, 273600, Note_on_c, 1, 40, 64
4, 273600, Note_on_c, 1, 36, 64
4, 273600, Note_on_c, 1, 48, 64
4, 276333, Note_off_c, 1, 46, 0
4, 276480, Note_on_c, 1, 46, 64
4, 276480, Note_on_c, 1, 43, 64
4, 276480, Note_on_c, 1, 40, 64
4, 276480, Note_on_c, 1, 36, 64
4, 276480, Note_on_c, 1, 48, 64
4, 277415, Note_off_c, 1, 43, 0
4, 277415, Note_off_c, 1, 40, 0
4, 277415, Note_off_c, 1, 36, 0
4, 277415, Note_off_c, 1, 48, 0
4, 277415, Note_off_c, 1, 46, 0
4, 277920, Note_on_c, 1, 36, 69
4, 277920, Note_on_c, 1, 48, 69
4, 277920, Note_on_c, 1, 52, 69
4, 277942, Control_c, 1, 64, 127
4, 278135, Note_off_c, 1, 52, 0
4, 278160, Note_on_c, 1, 58, 69
4, 278351, Note_off_c, 1, 36, 0
4, 278351, Note_off_c, 1, 48, 0
4, 278375, Note_off_c, 1, 58, 0
4, 278400, Note_on_c, 1, 52, 69
4, 278615, Note_off_c, 1, 52, 0
4, 278640, Note_on_c, 1, 48, 69
4, 278640, Note_on_c, 1, 36, 69
4, 278640, Note_on_c, 1, 52, 69
4, 278855, Note_off_c, 1, 52, 0
4, 278880, Note_on_c, 1, 58, 69
4, 279071, Note_off_c, 1, 36, 0
4, 279071, Note_off_c, 1, 48, 0
4, 279095, Note_off_c, 1, 58, 0
4, 279120, Note_on_c, 1, 52, 69
4, 279335, Note_off_c, 1, 52, 0
4, 279360, Note_on_c, 1, 48, 59
4, 279360, Note_on_c, 1, 36, 59
4, 279360, Note_on_c, 1, 52, 59
4, 279575, Note_off_c, 1, 52, 0
4, 279600, Note_on_c, 1, 58, 59
4, 279791, Note_off_c, 1, 48, 0
4, 279791, Note_off_c, 1, 36, 0
4, 279815, Note_off_c, 1, 58, 0
4, 279840, Note_on_c, 1, 52, 59
4, 280055, Note_off_c, 1, 52, 0
4, 280080, Note_on_c, 1, 48, 59
4, 280080, Note_on_c, 1, 36, 59
4, 280080, Note_on_c, 1, 52, 59
4, 280295, Note_off_c, 1, 52, 0
4, 280320, Note_on_c, 1, 58, 59
4, 280511, Note_off_c, 1, 48, 0
4, 280511, Note_off_c, 1, 36, 0
4, 280535, Note_off_c, 1, 58, 0
4, 280560, Note_on_c, 1, 52, 59
4, 280775, Note_off_c, 1, 52, 0
4, 280800, Note_on_c, 1, 48, 54
4, 280800, Note_on_c, 1, 36, 54
4, 280800, Note_on_c, 1, 52, 54
4, 281317, Control_c, 1, 64, 0
4, 281446, Note_off_c, 1, 52, 0
4, 281446, Note_off_c, 1, 36, 0
4, 281446, Note_off_c, 1, 48, 0
4, 282000, Note_on_c, 1, 53, 64
4, 282107, Note_off_c, 1, 53, 0
4, 282240, Note_on_c, 1, 41, 64
4, 282240, Note_on_c, 1, 53, 64
4, 282455, Note_off_c, 1, 53, 0
4, 282455, Note_off_c, 1, 41, 0
4, 282480, Note_on_c, 1, 36, 64
4, 282480, Note_on_c, 1, 48, 64
4, 282695, Note_off_c, 1, 36, 0
4, 282695, Note_off_c, 1, 48, 0
4, 282720, Note_on_c, 1, 45, 64
4, 282720, Note_on_c, 1, 57, 64
4, 282827, Note_off_c, 1, 57, 0
4, 282827, Note_off_c, 1, 45, 0
4, 282960, Note_on_c, 1, 45, 64
4, 282960, Note_on_c, 1, 57, 64
4, 283175, Note_off_c, 1, 57, 0
4, 283175, Note_off_c, 1, 45, 0
4, 283200, Note_on_c, 1, 41, 64
4, 283200, Note_on_c, 1, 53, 64
4, 283415, Note_off_c, 1, 53, 0
4, 283415, Note_off_c, 1, 41, 0
4, 283440, Note_on_c, 1, 48, 64
4, 283440, Note_on_c, 1, 60, 64
4, 283547, Note_off_c, 1, 60, 0
4, 283547, Note_off_c, 1, 48, 0
4, 283680, Note_on_c, 1, 48, 64
4, 283680, Note_on_c, 1, 60, 64
4, 283895, Note_off_c, 1, 60, 0
4, 283895, Note_off_c, 1, 48, 0
4, 283920, Note_on_c, 1, 45, 64
4, 283920, Note_on_c, 1, 57, 64
4, 284135, Note_off_c, 1, 57, 0
4, 284135, Note_off_c, 1, 45, 0
4, 284160, Note_on_c, 1, 53, 64
4, 284160, Note_on_c, 1, 65, 64
4, 284267, Note_off_c, 1, 65, 0
4, 284267, Note_off_c, 1, 53, 0
4, 284400, Note_on_c, 1, 53, 64
4, 284400, Note_on_c, 1, 65, 64
4, 284615, Note_off_c, 1, 65, 0
4, 284615, Note_off_c, 1, 53, 0
4, 284640, Note_on_c, 1, 48, 64
4, 284640, Note_on_c, 1, 60, 64
4, 284855, Note_off_c, 1, 60, 0
4, 284855, Note_off_c, 1, 48, 0
4, 284880, Note_on_c, 1, 57, 64
4, 284880, Note_on_c, 1, 69, 64
4, 284987, Note_off_c, 1, 69, 0
4, 284987, Note_off_c, 1, 57, 0
4, 285120, Note_on_c, 1, 57, 64
4, 285335, Note_off_c, 1, 57, 0
4, 285360, Note_on_c, 1, 53, 64
4, 285575, Note_off_c, 1, 53, 0
4, 285600, Note_on_c, 1, 60, 64
4, 285707, Note_off_c, 1, 60, 0
4, 286320, Note_on_c, 1, 60, 64
4, 286320, Note_on_c, 1, 52, 64
4, 286535, Note_off_c, 1, 52, 0
4, 286535, Note_off_c, 1, 60, 0
4, 286560, Note_on_c, 1, 60, 64
4, 286560, Note_on_c, 1, 53, 64
4, 286991, Note_off_c, 1, 53, 0
4, 286991, Note_off_c, 1, 60, 0
4, 287760, Note_on_c, 1, 60, 64
4, 287760, Note_on_c, 1, 52, 64
4, 287975, Note_off_c, 1, 52, 0
4, 287975, Note_off_c, 1, 60, 0
4, 288000, Note_on_c, 1, 53, 64
4, 288431, Note_off_c, 1, 53, 0
4, 289200, Note_on_c, 1, 60, 64
4, 289200, Note_on_c, 1, 52, 64
4, 289415, Note_off_c, 1, 52, 0
4, 289415, Note_off_c, 1, 60, 0
4, 289440, Note_on_c, 1, 53, 64
4, 289871, Note_off_c, 1, 53, 0
4, 290640, Note_on_c, 1, 62, 64
4, 290640, Note_on_c, 1, 54, 64
4, 290855, Note_off_c, 1, 54, 0
4, 290855, Note_off_c, 1, 62, 0
4, 290880, Note_on_c, 1, 55, 64
4, 291311, Note_off_c, 1, 55, 0
4, 292080, Note_on_c, 1, 62, 64
4, 292080, Note_on_c, 1, 54, 64
4, 292295, Note_off_c, 1, 54, 0
4, 292295, Note_off_c, 1, 62, 0
4, 292320, Note_on_c, 1, 62, 64
4, 292320, Note_on_c, 1, 55, 64
4, 292751, Note_off_c, 1, 55, 0
4, 292751, Note_off_c, 1, 62, 0
4, 293520, Note_on_c, 1, 65, 64
4, 293520, Note_on_c, 1, 57, 64
4, 293735, Note_off_c, 1, 57, 0
4, 293735, Note_off_c, 1, 65, 0
4, 293760, Note_on_c, 1, 65, 64
4, 293760, Note_on_c, 1, 58, 64
4, 294191, Note_off_c, 1, 58, 0
4, 294191, Note_off_c, 1, 65, 0
4, 294960, Note_on_c, 1, 65, 64
4, 294960, Note_on_c, 1, 57, 64
4, 295175, Note_off_c, 1, 57, 0
4, 295175, Note_off_c, 1, 65, 0
4, 295200, Note_on_c, 1, 65, 54
4, 295200, Note_on_c, 1, 58, 54
4, 295631, Note_off_c, 1, 58, 0
4, 295631, Note_off_c, 1, 65, 0
4, 295920, Note_on_c, 1, 63, 54
4, 296351, Note_off_c, 1, 63, 0
4, 296400, Note_on_c, 1, 64, 54
4, 296615, Note_off_c, 1, 64, 0
4, 296640, Note_on_c, 1, 65, 54
4, 296747, Note_off_c, 1, 65, 0
4, 296760, Note_on_c, 1, 64, 54
4, 296867, Note_off_c, 1, 64, 0
4, 296880, Note_on_c, 1, 65, 54
4, 296987, Note_off_c, 1, 65, 0
4, 297000, Note_on_c, 1, 64, 54
4, 297107, Note_off_c, 1, 64, 0
4, 297120, Note_on_c, 1, 65, 54
4, 297227, Note_off_c, 1, 65, 0
4, 297240, Note_on_c, 1, 64, 54
4, 297347, Note_off_c, 1, 64, 0
4, 297360, Note_on_c, 1, 65, 54
4, 297791, Note_off_c, 1, 65, 0
4, 298080, Note_on_c, 1, 46, 79
4, 298295, Note_off_c, 1, 46, 0
4, 298320, Note_on_c, 1, 41, 79
4, 298535, Note_off_c, 1, 41, 0
4, 298560, Note_on_c, 1, 41, 79
4, 298667, Note_off_c, 1, 41, 0
4, 298800, Note_on_c, 1, 50, 79
4, 299015, Note_off_c, 1, 50, 0
4, 299040, Note_on_c, 1, 46, 79
4, 299255, Note_off_c, 1, 46, 0
4, 299280, Note_on_c, 1, 46, 79
4, 299387, Note_off_c, 1, 46, 0
4, 299520, Note_on_c, 1, 53, 79
4, 299735, Note_off_c, 1, 53, 0
4, 299760, Note_on_c, 1, 50, 79
4, 299975, Note_off_c, 1, 50, 0
4, 300000, Note_on_c, 1, 50, 79
4, 300107, Note_off_c, 1, 50, 0
4, 300240, Note_on_c, 1, 58, 79
4, 300455, Note_off_c, 1, 58, 0
4, 300480, Note_on_c, 1, 53, 79
4, 300695, Note_off_c, 1, 53, 0
4, 300720, Note_on_c, 1, 53, 79
4, 300827, Note_off_c, 1, 53, 0
4, 300960, Note_on_c, 1, 58, 64
4, 300960, Note_on_c, 1, 53, 64
4, 300960, Note_on_c, 1, 50, 64
4, 301067, Note_off_c, 1, 50, 0
4, 301067, Note_off_c, 1, 53, 0
4, 301067, Note_off_c, 1, 58, 0
4, 301200, Note_on_c, 1, 58, 64
4, 301200, Note_on_c, 1, 53, 64
4, 301200, Note_on_c, 1, 50, 64
4, 301307, Note_off_c, 1, 50, 0
4, 301307, Note_off_c, 1, 53, 0
4, 301307, Note_off_c, 1, 58, 0
4, 301440, Note_on_c, 1, 58, 64
4, 301440, Note_on_c, 1, 53, 64
4, 301440, Note_on_c, 1, 50, 64
4, 301547, Note_off_c, 1, 50, 0
4, 301547, Note_off_c, 1, 53, 0
4, 301547, Note_off_c, 1, 58, 0
4, 301680, Note_on_c, 1, 58, 64
4, 301680, Note_on_c, 1, 53, 64
4, 301680, Note_on_c, 1, 50, 64
4, 301787, Note_off_c, 1, 50, 0
4, 301787, Note_off_c, 1, 53, 0
4, 301787, Note_off_c, 1, 58, 0
4, 301920, Note_on_c, 1, 58, 64
4, 301920, Note_on_c, 1, 53, 64
4, 301920, Note_on_c, 1, 50, 64
4, 302027, Note_off_c, 1, 50, 0
4, 302027, Note_off_c, 1, 53, 0
4, 302027, Note_off_c, 1, 58, 0
4, 302160, Note_on_c, 1, 58, 64
4, 302160, Note_on_c, 1, 53, 64
4, 302160, Note_on_c, 1, 50, 64
4, 302267, Note_off_c, 1, 50, 0
4, 302267, Note_off_c, 1, 53, 0
4, 302267, Note_off_c, 1, 58, 0
4, 302400, Note_on_c, 1, 55, 64
4, 302400, Note_on_c, 1, 51, 64
4, 302507, Note_off_c, 1, 51, 0
4, 302507, Note_off_c, 1, 55, 0
4, 302640, Note_on_c, 1, 55, 64
4, 302640, Note_on_c, 1, 51, 64
4, 302747, Note_off_c, 1, 51, 0
4, 302747, Note_off_c, 1, 55, 0
4, 302880, Note_on_c, 1, 55, 64
4, 302880, Note_on_c, 1, 51, 64
4, 302987, Note_off_c, 1, 51, 0
4, 302987, Note_off_c, 1, 55, 0
4, 303120, Note_on_c, 1, 53, 64
4, 303227, Note_off_c, 1, 53, 0
4, 303360, Note_on_c, 1, 53, 64
4, 303467, Note_off_c, 1, 53, 0
4, 303600, Note_on_c, 1, 53, 64
4, 303707, Note_off_c, 1, 53, 0
4, 303840, Note_on_c, 1, 46, 64
4, 304055, Note_off_c, 1, 46, 0
4, 304080, Note_on_c, 1, 41, 64
4, 304295, Note_off_c, 1, 41, 0
4, 304320, Note_on_c, 1, 41, 64
4, 304427, Note_off_c, 1, 41, 0
4, 304560, Note_on_c, 1, 50, 64
4, 304775, Note_off_c, 1, 50, 0
4, 304800, Note_on_c, 1, 46, 64
4, 305015, Note_off_c, 1, 46, 0
4, 305040, Note_on_c, 1, 46, 64
4, 305147, Note_off_c, 1, 46, 0
4, 305280, Note_on_c, 1, 53, 64
4, 305495, Note_off_c, 1, 53, 0
4, 305520, Note_on_c, 1, 50, 64
4, 305735, Note_off_c, 1, 50, 0
4, 305760, Note_on_c, 1, 50, 64
4, 305867, Note_off_c, 1, 50, 0
4, 306000, Note_on_c, 1, 58, 64
4, 306215, Note_off_c, 1, 58, 0
4, 306240, Note_on_c, 1, 53, 64
4, 306455, Note_off_c, 1, 53, 0
4, 306480, Note_on_c, 1, 53, 64
4, 306587, Note_off_c, 1, 53, 0
4, 306720, Note_on_c, 1, 58, 89
4, 306720, Note_on_c, 1, 53, 89
4, 306720, Note_on_c, 1, 50, 89
4, 306827, Note_off_c, 1, 50, 0
4, 306827, Note_off_c, 1, 53, 0
4, 306827, Note_off_c, 1, 58, 0
4, 306960, Note_on_c, 1, 58, 89
4, 306960, Note_on_c, 1, 53, 89
4, 306960, Note_on_c, 1, 50, 89
4, 307067, Note_off_c, 1, 50, 0
4, 307067, Note_off_c, 1, 53, 0
4, 307067, Note_off_c, 1, 58, 0
4, 307200, Note_on_c, 1, 58, 89
4, 307200, Note_on_c, 1, 53, 89
4, 307200, Note_on_c, 1, 50, 89
4, 307307, Note_off_c, 1, 50, 0
4, 307307, Note_off_c, 1, 53, 0
4, 307307, Note_off_c, 1, 58, 0
4, 307440, Note_on_c, 1, 58, 89
4, 307440, Note_on_c, 1, 53, 89
4, 307440, Note_on_c, 1, 50, 89
4, 307547, Note_off_c, 1, 50, 0
4, 307547, Note_off_c, 1, 53, 0
4, 307547, Note_off_c, 1, 58, 0
4, 307680, Note_on_c, 1, 58, 89
4, 307680, Note_on_c, 1, 53, 89
4, 307680, Note_on_c, 1, 50, 89
4, 307787, Note_off_c, 1, 50, 0
4, 307787, Note_off_c, 1, 53, 0
4, 307787, Note_off_c, 1, 58, 0
4, 307920, Note_on_c, 1, 58, 89
4, 307920, Note_on_c, 1, 53, 89
4, 307920, Note_on_c, 1, 50, 89
4, 308027, Note_off_c, 1, 50, 0
4, 308027, Note_off_c, 1, 53, 0
4, 308027, Note_off_c, 1, 58, 0
4, 308160, Note_on_c, 1, 51, 89
4, 308160, Note_on_c, 1, 39, 89
4, 308267, Note_off_c, 1, 39, 0
4, 308267, Note_off_c, 1, 51, 0
4, 308400, Note_on_c, 1, 51, 89
4, 308400, Note_on_c, 1, 39, 89
4, 308507, Note_off_c, 1, 39, 0
4, 308507, Note_off_c, 1, 51, 0
4, 308640, Note_on_c, 1, 51, 89
4, 308640, Note_on_c, 1, 39, 89
4, 308747, Note_off_c, 1, 39, 0
4, 308747, Note_off_c, 1, 51, 0
4, 308880, Note_on_c, 1, 41, 89
4, 308987, Note_off_c, 1, 41, 0
4, 309120, Note_on_c, 1, 41, 89
4, 309227, Note_off_c, 1, 41, 0
4, 309360, Note_on_c, 1, 41, 89
4, 309467, Note_off_c, 1, 41, 0
4, 309600, Note_on_c, 1, 34, 89
4, 310031, Note_off_c, 1, 34, 0
4, 311040, Note_on_c, 1, 53, 64
4, 311147, Note_off_c, 1, 53, 0
4, 311160, Note_on_c, 1, 55, 64
4, 311267, Note_off_c, 1, 55, 0
4, 311280, Note_on_c, 1, 53, 64
4, 311387, Note_off_c, 1, 53, 0
4, 311400, Note_on_c, 1, 51, 64
4, 311507, Note_off_c, 1, 51, 0
4, 311520, Note_on_c, 1, 50, 64
4, 311627, Note_off_c, 1, 50, 0
4, 311640, Note_on_c, 1, 48, 64
4, 311747, Note_off_c, 1, 48, 0
4, 311760, Note_on_c, 1, 46, 64
4, 311867, Note_off_c, 1, 46, 0
4, 311880, Note_on_c, 1, 45, 64
4, 311987, Note_off_c, 1, 45, 0
4, 312000, Note_on_c, 1, 46, 64
4, 312107, Note_off_c, 1, 46, 0
4, 312120, Note_on_c, 1, 48, 64
4, 312227, Note_off_c, 1, 48, 0
4, 312240, Note_on_c, 1, 50, 64
4, 312347, Note_off_c, 1, 50, 0
4, 312360, Note_on_c, 1, 51, 64
4, 312467, Note_off_c, 1, 51, 0
4, 312480, Note_on_c, 1, 53, 64
4, 312587, Note_off_c, 1, 53, 0
4, 312600, Note_on_c, 1, 55, 64
4, 312707, Note_off_c, 1, 55, 0
4, 312720, Note_on_c, 1, 53, 64
4, 312827, Note_off_c, 1, 53, 0
4, 312840, Note_on_c, 1, 51, 64
4, 312947, Note_off_c, 1, 51, 0
4, 312960, Note_on_c, 1, 50, 64
4, 313067, Note_off_c, 1, 50, 0
4, 313080, Note_on_c, 1, 48, 64
4, 313187, Note_off_c, 1, 48, 0
4, 313200, Note_on_c, 1, 46, 64
4, 313307, Note_off_c, 1, 46, 0
4, 313320, Note_on_c, 1, 45, 64
4, 313427, Note_off_c, 1, 45, 0
4, 313440, Note_on_c, 1, 46, 64
4, 313547, Note_off_c, 1, 46, 0
4, 313560, Note_on_c, 1, 48, 64
4, 313667, Note_off_c, 1, 48, 0
4, 313680, Note_on_c, 1, 50, 64
4, 313787, Note_off_c, 1, 50, 0
4, 313800, Note_on_c, 1, 51, 64
4, 313907, Note_off_c, 1, 51, 0
4, 313920, Note_on_c, 1, 53, 64
4, 314027, Note_off_c, 1, 53, 0
4, 314040, Note_on_c, 1, 55, 64
4, 314147, Note_off_c, 1, 55, 0
4, 314160, Note_on_c, 1, 53, 64
4, 314267, Note_off_c, 1, 53, 0
4, 314280, Note_on_c, 1, 51, 64
4, 314387, Note_off_c, 1, 51, 0
4, 314400, Note_on_c, 1, 50, 64
4, 314507, Note_off_c, 1, 50, 0
4, 314520, Note_on_c, 1, 48, 64
4, 314627, Note_off_c, 1, 48, 0
4, 314640, Note_on_c, 1, 46, 64
4, 314747, Note_off_c, 1, 46, 0
4, 314760, Note_on_c, 1, 45, 64
4, 314867, Note_off_c, 1, 45, 0
4, 314880, Note_on_c, 1, 46, 64
4, 314987, Note_off_c, 1, 46, 0
4, 315000, Note_on_c, 1, 48, 64
4, 315107, Note_off_c, 1, 48, 0
4, 315120, Note_on_c, 1, 50, 64
4, 315227, Note_off_c, 1, 50, 0
4, 315240, Note_on_c, 1, 51, 64
4, 315347, Note_off_c, 1, 51, 0
4, 315360, Note_on_c, 1, 53, 64
4, 315467, Note_off_c, 1, 53, 0
4, 315480, Note_on_c, 1, 55, 64
4, 315587, Note_off_c, 1, 55, 0
4, 315600, Note_on_c, 1, 56, 64
4, 315707, Note_off_c, 1, 56, 0
4, 315720, Note_on_c, 1, 55, 64
4, 315827, Note_off_c, 1, 55, 0
4, 315840, Note_on_c, 1, 53, 64
4, 315947, Note_off_c, 1, 53, 0
4, 315960, Note_on_c, 1, 51, 64
4, 316067, Note_off_c, 1, 51, 0
4, 316080, Note_on_c, 1, 50, 64
4, 316187, Note_off_c, 1, 50, 0
4, 316200, Note_on_c, 1, 48, 64
4, 316307, Note_off_c, 1, 48, 0
4, 316320, Note_on_c, 1, 46, 64
4, 316427, Note_off_c, 1, 46, 0
4, 316440, Note_on_c, 1, 44, 64
4, 316547, Note_off_c, 1, 44, 0
4, 316560, Note_on_c, 1, 43, 64
4, 316667, Note_off_c, 1, 43, 0
4, 316680, Note_on_c, 1, 41, 64
4, 316787, Note_off_c, 1, 41, 0
4, 316800, Note_on_c, 1, 39, 86
4, 316907, Note_off_c, 1, 39, 0
4, 317040, Note_on_c, 1, 55, 86
4, 317040, Note_on_c, 1, 51, 86
4, 317147, Note_off_c, 1, 51, 0
4, 317147, Note_off_c, 1, 55, 0
4, 317280, Note_on_c, 1, 55, 86
4, 317280, Note_on_c, 1, 51, 86
4, 317387, Note_off_c, 1, 51, 0
4, 317387, Note_off_c, 1, 55, 0
4, 317491, Note_off_c, 1, 48, 0
4, 317520, Note_on_c, 1, 39, 86
4, 317627, Note_off_c, 1, 39, 0
4, 317760, Note_on_c, 1, 55, 86
4, 317760, Note_on_c, 1, 51, 86
4, 317867, Note_off_c, 1, 51, 0
4, 317867, Note_off_c, 1, 55, 0
4, 318000, Note_on_c, 1, 55, 86
4, 318000, Note_on_c, 1, 51, 86
4, 318107, Note_off_c, 1, 51, 0
4, 318107, Note_off_c, 1, 55, 0
4, 318240, Note_on_c, 1, 39, 86
4, 318347, Note_off_c, 1, 39, 0
4, 318480, Note_on_c, 1, 55, 86
4, 318480, Note_on_c, 1, 51, 86
4, 318587, Note_off_c, 1, 51, 0
4, 318587, Note_off_c, 1, 55, 0
4, 318720, Note_on_c, 1, 55, 86
4, 318720, Note_on_c, 1, 51, 86
4, 318827, Note_off_c, 1, 51, 0
4, 318827, Note_off_c, 1, 55, 0
4, 318960, Note_on_c, 1, 39, 86
4, 319067, Note_off_c, 1, 39, 0
4, 319200, Note_on_c, 1, 55, 86
4, 319200, Note_on_c, 1, 51, 86
4, 319307, Note_off_c, 1, 51, 0
4, 319307, Note_off_c, 1, 55, 0
4, 319440, Note_on_c, 1, 55, 86
4, 319440, Note_on_c, 1, 51, 86
4, 319547, Note_off_c, 1, 51, 0
4, 319547, Note_off_c, 1, 55, 0
4, 319680, Note_on_c, 1, 41, 86
4, 319787, Note_off_c, 1, 41, 0
4, 319920, Note_on_c, 1, 62, 86
4, 319920, Note_on_c, 1, 58, 86
4, 319920, Note_on_c, 1, 53, 86
4, 320027, Note_off_c, 1, 53, 0
4, 320027, Note_off_c, 1, 58, 0
4, 320027, Note_off_c, 1, 62, 0
4, 320160, Note_on_c, 1, 62, 86
4, 320160, Note_on_c, 1, 58, 86
4, 320160, Note_on_c, 1, 53, 86
4, 320267, Note_off_c, 1, 53, 0
4, 320267, Note_off_c, 1, 58, 0
4, 320267, Note_off_c, 1, 62, 0
4, 320400, Note_on_c, 1, 42, 86
4, 320507, Note_off_c, 1, 42, 0
4, 320640, Note_on_c, 1, 62, 86
4, 320640, Note_on_c, 1, 58, 86
4, 320640, Note_on_c, 1, 54, 86
4, 320747, Note_off_c, 1, 54, 0
4, 320747, Note_off_c, 1, 58, 0
4, 320747, Note_off_c, 1, 62, 0
4, 320880, Note_on_c, 1, 62, 86
4, 320880, Note_on_c, 1, 58, 86
4, 320880, Note_on_c, 1, 54, 86
4, 320987, Note_off_c, 1, 54, 0
4, 320987, Note_off_c, 1, 58, 0
4, 320987, Note_off_c, 1, 62, 0
4, 321081, Note_off_c, 1, 40, 64
4, 321081, Note_off_c, 1, 36, 64
4, 321081, Note_off_c, 1, 43, 64
4, 321120, Note_on_c, 1, 41, 86
4, 321227, Note_off_c, 1, 41, 0
4, 321360, Note_on_c, 1, 62, 86
4, 321360, Note_on_c, 1, 58, 86
4, 321360, Note_on_c, 1, 53, 86
4, 321467, Note_off_c, 1, 53, 0
4, 321467, Note_off_c, 1, 58, 0
4, 321467, Note_off_c, 1, 62, 0
4, 321600, Note_on_c, 1, 62, 86
4, 321600, Note_on_c, 1, 58, 86
4, 321600, Note_on_c, 1, 53, 86
4, 321707, Note_off_c, 1, 53, 0
4, 321707, Note_off_c, 1, 58, 0
4, 321707, Note_off_c, 1, 62, 0
4, 321840, Note_on_c, 1, 42, 86
4, 321947, Note_off_c, 1, 42, 0
4, 322080, Note_on_c, 1, 62, 86
4, 322080, Note_on_c, 1, 58, 86
4, 322080, Note_on_c, 1, 54, 86
4, 322187, Note_off_c, 1, 54, 0
4, 322187, Note_off_c, 1, 58, 0
4, 322187, Note_off_c, 1, 62, 0
4, 322320, Note_on_c, 1, 62, 86
4, 322320, Note_on_c, 1, 58, 86
4, 322320, Note_on_c, 1, 54, 86
4, 322427, Note_off_c, 1, 54, 0
4, 322427, Note_off_c, 1, 58, 0
4, 322427, Note_off_c, 1, 62, 0
4, 322560, Note_on_c, 1, 41, 86
4, 322667, Note_off_c, 1, 41, 0
4, 322800, Note_on_c, 1, 62, 86
4, 322800, Note_on_c, 1, 58, 86
4, 322800, Note_on_c, 1, 53, 86
4, 322907, Note_off_c, 1, 53, 0
4, 322907, Note_off_c, 1, 58, 0
4, 322907, Note_off_c, 1, 62, 0
4, 323040, Note_on_c, 1, 62, 86
4, 323040, Note_on_c, 1, 58, 86
4, 323040, Note_on_c, 1, 53, 86
4, 323147, Note_off_c, 1, 53, 0
4, 323147, Note_off_c, 1, 58, 0
4, 323147, Note_off_c, 1, 62, 0
4, 323280, Note_on_c, 1, 41, 86
4, 323387, Note_off_c, 1, 41, 0
4, 323520, Note_on_c, 1, 62, 86
4, 323520, Note_on_c, 1, 58, 86
4, 323520, Note_on_c, 1, 53, 86
4, 323627, Note_off_c, 1, 53, 0
4, 323627, Note_off_c, 1, 58, 0
4, 323627, Note_off_c, 1, 62, 0
4, 323760, Note_on_c, 1, 62, 86
4, 323760, Note_on_c, 1, 58, 86
4, 323760, Note_on_c, 1, 53, 86
4, 323867, Note_off_c, 1, 53, 0
4, 323867, Note_off_c, 1, 58, 0
4, 323867, Note_off_c, 1, 62, 0
4, 324000, Note_on_c, 1, 53, 86
4, 324107, Note_off_c, 1, 53, 0
4, 324240, Note_on_c, 1, 65, 86
4, 324240, Note_on_c, 1, 62, 86
4, 324240, Note_on_c, 1, 58, 86
4, 324347, Note_off_c, 1, 58, 0
4, 324347, Note_off_c, 1, 62, 0
4, 324347, Note_off_c, 1, 65, 0
4, 324480, Note_on_c, 1, 65, 86
4, 324480, Note_on_c, 1, 62, 86
4, 324480, Note_on_c, 1, 58, 86
4, 324587, Note_off_c, 1, 58, 0
4, 324587, Note_off_c, 1, 62, 0
4, 324587, Note_off_c, 1, 65, 0
4, 324720, Note_on_c, 1, 53, 86
4, 324827, Note_off_c, 1, 53, 0
4, 324960, Note_on_c, 1, 65, 86
4, 324960, Note_on_c, 1, 62, 86
4, 324960, Note_on_c, 1, 58, 86
4, 325067, Note_off_c, 1, 58, 0
4, 325067, Note_off_c, 1, 62, 0
4, 325067, Note_off_c, 1, 65, 0
4, 325200, Note_on_c, 1, 65, 86
4, 325200, Note_on_c, 1, 62, 86
4, 325200, Note_on_c, 1, 58, 86
4, 325307, Note_off_c, 1, 58, 0
4, 325307, Note_off_c, 1, 62, 0
4, 325307, Note_off_c, 1, 65, 0
4, 325440, Note_on_c, 1, 65, 86
4, 325440, Note_on_c, 1, 62, 86
4, 325440, Note_on_c, 1, 58, 86
4, 325440, Note_on_c, 1, 53, 86
4, 326733, Note_off_c, 1, 53, 0
4, 326733, Note_off_c, 1, 58, 0
4, 326733, Note_off_c, 1, 62, 0
4, 326733, Note_off_c, 1, 65, 0
4, 326880, Note_on_c, 1, 65, 86
4, 326880, Note_on_c, 1, 63, 86
4, 326880, Note_on_c, 1, 60, 86
4, 326880, Note_on_c, 1, 57, 86
4, 326880, Note_on_c, 1, 53, 86
4, 328173, Note_off_c, 1, 53, 0
4, 328173, Note_off_c, 1, 57, 0
4, 328173, Note_off_c, 1, 60, 0
4, 328173, Note_off_c, 1, 63, 0
4, 328173, Note_off_c, 1, 65, 0
4, 328320, Note_on_c, 1, 62, 84
4, 328320, Note_on_c, 1, 58, 84
4, 328320, Note_on_c, 1, 53, 84
4, 328320, Note_on_c, 1, 50, 84
4, 328751, Note_off_c, 1, 50, 0
4, 328751, Note_off_c, 1, 53, 0
4, 328751, Note_off_c, 1, 58, 0
4, 328751, Note_off_c, 1, 62, 0
4, 329760, Note_on_c, 1, 60, 84
4, 329760, Note_on_c, 1, 55, 84
4, 329760, Note_on_c, 1, 51, 84
4, 330191, Note_off_c, 1, 55, 0
4, 330191, Note_off_c, 1, 51, 0
4, 330191, Note_off_c, 1, 60, 0
4, 331200, Note_on_c, 1, 58, 84
4, 331200, Note_on_c, 1, 53, 84
4, 331631, Note_off_c, 1, 53, 0
4, 331631, Note_off_c, 1, 58, 0
4, 332640, Note_on_c, 1, 65, 86
4, 332640, Note_on_c, 1, 53, 86
4, 332662, Control_c, 1, 64, 127
4, 332747, Note_off_c, 1, 53, 0
4, 332747, Note_off_c, 1, 65, 0
4, 332880, Note_on_c, 1, 65, 86
4, 332880, Note_on_c, 1, 53, 86
4, 332987, Note_off_c, 1, 53, 0
4, 332987, Note_off_c, 1, 65, 0
4, 333120, Note_on_c, 1, 65, 86
4, 333120, Note_on_c, 1, 53, 86
4, 333227, Note_off_c, 1, 53, 0
4, 333227, Note_off_c, 1, 65, 0
4, 333360, Note_on_c, 1, 65, 86
4, 333360, Note_on_c, 1, 53, 86
4, 333467, Note_off_c, 1, 53, 0
4, 333467, Note_off_c, 1, 65, 0
4, 333600, Note_on_c, 1, 65, 86
4, 333600, Note_on_c, 1, 53, 86
4, 333707, Note_off_c, 1, 53, 0
4, 333707, Note_off_c, 1, 65, 0
4, 333840, Note_on_c, 1, 65, 86
4, 333840, Note_on_c, 1, 53, 86
4, 333922, Control_c, 1, 64, 0
4, 333947, Note_off_c, 1, 53, 0
4, 333947, Note_off_c, 1, 65, 0
4, 334080, Note_on_c, 1, 65, 86
4, 334080, Note_on_c, 1, 53, 86
4, 334087, Control_c, 1, 64, 127
4, 334187, Note_off_c, 1, 53, 0
4, 334187, Note_off_c, 1, 65, 0
4, 334320, Note_on_c, 1, 65, 86
4, 334320, Note_on_c, 1, 53, 86
4, 334427, Note_off_c, 1, 53, 0
4, 334427, Note_off_c, 1, 65, 0
4, 334560, Note_on_c, 1, 65, 86
4, 334560, Note_on_c, 1, 53, 86
4, 334667, Note_off_c, 1, 53, 0
4, 334667, Note_off_c, 1, 65, 0
4, 334800, Note_on_c, 1, 65, 86
4, 334800, Note_on_c, 1, 53, 86
4, 334907, Note_off_c, 1, 53, 0
4, 334907, Note_off_c, 1, 65, 0
4, 335040, Note_on_c, 1, 65, 86
4, 335040, Note_on_c, 1, 53, 86
4, 335147, Note_off_c, 1, 53, 0
4, 335147, Note_off_c, 1, 65, 0
4, 335280, Note_on_c, 1, 65, 86
4, 335280, Note_on_c, 1, 53, 86
4, 335317, Control_c, 1, 64, 0
4, 335387, Note_off_c, 1, 53, 0
4, 335387, Note_off_c, 1, 65, 0
4, 335520, Note_on_c, 1, 58, 64
4, 335627, Note_off_c, 1, 58, 0
4, 335640, Note_on_c, 1, 57, 64
4, 335747, Note_off_c, 1, 57, 0
4, 335760, Note_on_c, 1, 58, 64
4, 335867, Note_off_c, 1, 58, 0
4, 335880, Note_on_c, 1, 60, 64
4, 335987, Note_off_c, 1, 60, 0
4, 336000, Note_on_c, 1, 62, 64
4, 336107, Note_off_c, 1, 62, 0
4, 336120, Note_on_c, 1, 63, 64
4, 336227, Note_off_c, 1, 63, 0
4, 336240, Note_on_c, 1, 65, 64
4, 336347, Note_off_c, 1, 65, 0
4, 336360, Note_on_c, 1, 67, 64
4, 336467, Note_off_c, 1, 67, 0
4, 336480, Note_on_c, 1, 65, 64
4, 336587, Note_off_c, 1, 65, 0
4, 336600, Note_on_c, 1, 63, 64
4, 336707, Note_off_c, 1, 63, 0
4, 336720, Note_on_c, 1, 62, 64
4, 336827, Note_off_c, 1, 62, 0
4, 336840, Note_on_c, 1, 60, 64
4, 336947, Note_off_c, 1, 60, 0
4, 336960, Note_on_c, 1, 58, 64
4, 337067, Note_off_c, 1, 58, 0
4, 337080, Note_on_c, 1, 57, 64
4, 337187, Note_off_c, 1, 57, 0
4, 337200, Note_on_c, 1, 58, 64
4, 337307, Note_off_c, 1, 58, 0
4, 337320, Note_on_c, 1, 60, 64
4, 337427, Note_off_c, 1, 60, 0
4, 337440, Note_on_c, 1, 62, 64
4, 337547, Note_off_c, 1, 62, 0
4, 337560, Note_on_c, 1, 63, 64
4, 337667, Note_off_c, 1, 63, 0
4, 337680, Note_on_c, 1, 65, 64
4, 337787, Note_off_c, 1, 65, 0
4, 337800, Note_on_c, 1, 67, 64
4, 337907, Note_off_c, 1, 67, 0
4, 337920, Note_on_c, 1, 65, 64
4, 338027, Note_off_c, 1, 65, 0
4, 338040, Note_on_c, 1, 63, 64
4, 338147, Note_off_c, 1, 63, 0
4, 338160, Note_on_c, 1, 62, 64
4, 338267, Note_off_c, 1, 62, 0
4, 338280, Note_on_c, 1, 60, 64
4, 338387, Note_off_c, 1, 60, 0
4, 338400, Note_on_c, 1, 58, 64
4, 338831, Note_off_c, 1, 58, 0
4, 339840, Note_on_c, 1, 68, 64
4, 339840, Note_on_c, 1, 65, 64
4, 340055, Note_off_c, 1, 65, 0
4, 340055, Note_off_c, 1, 68, 0
4, 340080, Note_on_c, 1, 67, 64
4, 340080, Note_on_c, 1, 63, 64
4, 340295, Note_off_c, 1, 63, 0
4, 340295, Note_off_c, 1, 67, 0
4, 340320, Note_on_c, 1, 65, 64
4, 340320, Note_on_c, 1, 58, 64
4, 340427, Note_off_c, 1, 58, 0
4, 340427, Note_off_c, 1, 65, 0
4, 340560, Note_on_c, 1, 65, 64
4, 340560, Note_on_c, 1, 58, 64
4, 340991, Note_off_c, 1, 58, 0
4, 340991, Note_off_c, 1, 65, 0
4, 341280, Note_on_c, 1, 67, 64
4, 341280, Note_on_c, 1, 63, 64
4, 341495, Note_off_c, 1, 63, 0
4, 341495, Note_off_c, 1, 67, 0
4, 341520, Note_on_c, 1, 65, 64
4, 341520, Note_on_c, 1, 62, 64
4, 341735, Note_off_c, 1, 62, 0
4, 341735, Note_off_c, 1, 65, 0
4, 341760, Note_on_c, 1, 63, 64
4, 341760, Note_on_c, 1, 55, 64
4, 341867, Note_off_c, 1, 55, 0
4, 341867, Note_off_c, 1, 63, 0
4, 342000, Note_on_c, 1, 63, 64
4, 342000, Note_on_c, 1, 55, 64
4, 342431, Note_off_c, 1, 55, 0
4, 342431, Note_off_c, 1, 63, 0
4, 342480, Note_on_c, 1, 65, 64
4, 342480, Note_on_c, 1, 58, 64
4, 342695, Note_off_c, 1, 58, 0
4, 342695, Note_off_c, 1, 65, 0
4, 342720, Note_on_c, 1, 67, 64
4, 342720, Note_on_c, 1, 63, 64
4, 343151, Note_off_c, 1, 63, 0
4, 343151, Note_off_c, 1, 67, 0
4, 343200, Note_on_c, 1, 65, 64
4, 343200, Note_on_c, 1, 58, 64
4, 343415, Note_off_c, 1, 58, 0
4, 343415, Note_off_c, 1, 65, 0
4, 343440, Note_on_c, 1, 67, 64
4, 343440, Note_on_c, 1, 63, 64
4, 343871, Note_off_c, 1, 63, 0
4, 343871, Note_off_c, 1, 67, 0
4, 343920, Note_on_c, 1, 68, 64
4, 343920, Note_on_c, 1, 65, 64
4, 344135, Note_off_c, 1, 65, 0
4, 344135, Note_off_c, 1, 68, 0
4, 344160, Note_on_c, 1, 65, 64
4, 344160, Note_on_c, 1, 58, 64
4, 344806, Note_off_c, 1, 58, 0
4, 344806, Note_off_c, 1, 65, 0
4, 345600, Note_on_c, 1, 68, 64
4, 345600, Note_on_c, 1, 65, 64
4, 345815, Note_off_c, 1, 65, 0
4, 345815, Note_off_c, 1, 68, 0
4, 345840, Note_on_c, 1, 67, 64
4, 345840, Note_on_c, 1, 63, 64
4, 346055, Note_off_c, 1, 63, 0
4, 346055, Note_off_c, 1, 67, 0
4, 346080, Note_on_c, 1, 65, 64
4, 346080, Note_on_c, 1, 58, 64
4, 346187, Note_off_c, 1, 58, 0
4, 346187, Note_off_c, 1, 65, 0
4, 346320, Note_on_c, 1, 65, 64
4, 346320, Note_on_c, 1, 58, 64
4, 346751, Note_off_c, 1, 58, 0
4, 346751, Note_off_c, 1, 65, 0
4, 347040, Note_on_c, 1, 67, 64
4, 347040, Note_on_c, 1, 63, 64
4, 347255, Note_off_c, 1, 63, 0
4, 347255, Note_off_c, 1, 67, 0
4, 347280, Note_on_c, 1, 65, 64
4, 347280, Note_on_c, 1, 62, 64
4, 347495, Note_off_c, 1, 62, 0
4, 347495, Note_off_c, 1, 65, 0
4, 347520, Note_on_c, 1, 63, 64
4, 347520, Note_on_c, 1, 55, 64
4, 347627, Note_off_c, 1, 55, 0
4, 347627, Note_off_c, 1, 63, 0
4, 347760, Note_on_c, 1, 63, 64
4, 347760, Note_on_c, 1, 55, 64
4, 348191, Note_off_c, 1, 55, 0
4, 348191, Note_off_c, 1, 63, 0
4, 348240, Note_on_c, 1, 65, 64
4, 348240, Note_on_c, 1, 58, 64
4, 348455, Note_off_c, 1, 58, 0
4, 348455, Note_off_c, 1, 65, 0
4, 348480, Note_on_c, 1, 67, 64
4, 348480, Note_on_c, 1, 63, 64
4, 348911, Note_off_c, 1, 63, 0
4, 348911, Note_off_c, 1, 67, 0
4, 348960, Note_on_c, 1, 67, 64
4, 348960, Note_on_c, 1, 63, 64
4, 349175, Note_off_c, 1, 63, 0
4, 349175, Note_off_c, 1, 67, 0
4, 349200, Note_on_c, 1, 68, 64
4, 349200, Note_on_c, 1, 65, 64
4, 349631, Note_off_c, 1, 65, 0
4, 349631, Note_off_c, 1, 68, 0
4, 349680, Note_on_c, 1, 67, 64
4, 349680, Note_on_c, 1, 63, 64
4, 349895, Note_off_c, 1, 63, 0
4, 349895, Note_off_c, 1, 67, 0
4, 349920, Note_on_c, 1, 65, 64
4, 349920, Note_on_c, 1, 58, 64
4, 350566, Note_off_c, 1, 58, 0
4, 350566, Note_off_c, 1, 65, 0
4, 351360, Note_on_c, 1, 62, 64
4, 351360, Note_on_c, 1, 59, 64
4, 351360, Note_on_c, 1, 65, 64
4, 352511, Note_off_c, 1, 65, 0
4, 352511, Note_off_c, 1, 59, 0
4, 352511, Note_off_c, 1, 62, 0
4, 352560, Note_on_c, 1, 65, 64
4, 352560, Note_on_c, 1, 62, 64
4, 352667, Note_off_c, 1, 62, 0
4, 352667, Note_off_c, 1, 65, 0
4, 352800, Note_on_c, 1, 65, 64
4, 352800, Note_on_c, 1, 62, 64
4, 353015, Note_off_c, 1, 62, 0
4, 353015, Note_off_c, 1, 65, 0
4, 353040, Note_on_c, 1, 63, 64
4, 353040, Note_on_c, 1, 60, 64
4, 353255, Note_off_c, 1, 60, 0
4, 353255, Note_off_c, 1, 63, 0
4, 353280, Note_on_c, 1, 62, 64
4, 353280, Note_on_c, 1, 55, 64
4, 353495, Note_off_c, 1, 55, 0
4, 353495, Note_off_c, 1, 62, 0
4, 353520, Note_on_c, 1, 62, 64
4, 353520, Note_on_c, 1, 55, 64
4, 353951, Note_off_c, 1, 55, 0
4, 353951, Note_off_c, 1, 62, 0
4, 354240, Note_on_c, 1, 63, 64
4, 354240, Note_on_c, 1, 60, 64
4, 354455, Note_off_c, 1, 60, 0
4, 354455, Note_off_c, 1, 63, 0
4, 354480, Note_on_c, 1, 62, 64
4, 354480, Note_on_c, 1, 55, 64
4, 354695, Note_off_c, 1, 55, 0
4, 354695, Note_off_c, 1, 62, 0
4, 354720, Note_on_c, 1, 60, 64
4, 354720, Note_on_c, 1, 51, 64
4, 354827, Note_off_c, 1, 51, 0
4, 354827, Note_off_c, 1, 60, 0
4, 354960, Note_on_c, 1, 60, 64
4, 354960, Note_on_c, 1, 51, 64
4, 355391, Note_off_c, 1, 51, 0
4, 355391, Note_off_c, 1, 60, 0
4, 355440, Note_on_c, 1, 62, 64
4, 355440, Note_on_c, 1, 55, 64
4, 355655, Note_off_c, 1, 55, 0
4, 355655, Note_off_c, 1, 62, 0
4, 355680, Note_on_c, 1, 63, 64
4, 355680, Note_on_c, 1, 60, 64
4, 356111, Note_off_c, 1, 60, 0
4, 356111, Note_off_c, 1, 63, 0
4, 356160, Note_on_c, 1, 62, 64
4, 356160, Note_on_c, 1, 55, 64
4, 356375, Note_off_c, 1, 55, 0
4, 356375, Note_off_c, 1, 62, 0
4, 356400, Note_on_c, 1, 63, 64
4, 356400, Note_on_c, 1, 60, 64
4, 356831, Note_off_c, 1, 60, 0
4, 356831, Note_off_c, 1, 63, 0
4, 356880, Note_on_c, 1, 65, 64
4, 356880, Note_on_c, 1, 62, 64
4, 357095, Note_off_c, 1, 62, 0
4, 357095, Note_off_c, 1, 65, 0
4, 357120, Note_on_c, 1, 62, 64
4, 357120, Note_on_c, 1, 55, 64
4, 357551, Note_off_c, 1, 55, 0
4, 357551, Note_off_c, 1, 62, 0
4, 358560, Note_on_c, 1, 63, 64
4, 358560, Note_on_c, 1, 60, 64
4, 358775, Note_off_c, 1, 60, 0
4, 358775, Note_off_c, 1, 63, 0
4, 358800, Note_on_c, 1, 62, 64
4, 358800, Note_on_c, 1, 58, 64
4, 359015, Note_off_c, 1, 58, 0
4, 359015, Note_off_c, 1, 62, 0
4, 359040, Note_on_c, 1, 60, 64
4, 359040, Note_on_c, 1, 53, 64
4, 359147, Note_off_c, 1, 53, 0
4, 359147, Note_off_c, 1, 60, 0
4, 359280, Note_on_c, 1, 60, 64
4, 359280, Note_on_c, 1, 53, 64
4, 359711, Note_off_c, 1, 53, 0
4, 359711, Note_off_c, 1, 60, 0
4, 360000, Note_on_c, 1, 62, 64
4, 360000, Note_on_c, 1, 58, 64
4, 360215, Note_off_c, 1, 58, 0
4, 360215, Note_off_c, 1, 62, 0
4, 360240, Note_on_c, 1, 60, 64
4, 360240, Note_on_c, 1, 53, 64
4, 360455, Note_off_c, 1, 53, 0
4, 360455, Note_off_c, 1, 60, 0
4, 360480, Note_on_c, 1, 58, 64
4, 360480, Note_on_c, 1, 50, 64
4, 360587, Note_off_c, 1, 50, 0
4, 360587, Note_off_c, 1, 58, 0
4, 360720, Note_on_c, 1, 58, 64
4, 360720, Note_on_c, 1, 50, 64
4, 361151, Note_off_c, 1, 50, 0
4, 361151, Note_off_c, 1, 58, 0
4, 361200, Note_on_c, 1, 60, 64
4, 361200, Note_on_c, 1, 53, 64
4, 361415, Note_off_c, 1, 53, 0
4, 361415, Note_off_c, 1, 60, 0
4, 361440, Note_on_c, 1, 62, 64
4, 361440, Note_on_c, 1, 58, 64
4, 361871, Note_off_c, 1, 58, 0
4, 361871, Note_off_c, 1, 62, 0
4, 361920, Note_on_c, 1, 60, 64
4, 361920, Note_on_c, 1, 53, 64
4, 362135, Note_off_c, 1, 53, 0
4, 362135, Note_off_c, 1, 60, 0
4, 362160, Note_on_c, 1, 62, 64
4, 362160, Note_on_c, 1, 58, 64
4, 362591, Note_off_c, 1, 58, 0
4, 362591, Note_off_c, 1, 62, 0
4, 362640, Note_on_c, 1, 63, 64
4, 362640, Note_on_c, 1, 60, 64
4, 362855, Note_off_c, 1, 60, 0
4, 362855, Note_off_c, 1, 63, 0
4, 362880, Note_on_c, 1, 60, 64
4, 362880, Note_on_c, 1, 53, 64
4, 363526, Note_off_c, 1, 53, 0
4, 363526, Note_off_c, 1, 60, 0
4, 363600, Note_on_c, 1, 51, 64
4, 363600, Note_on_c, 1, 60, 82
4, 363600, Note_on_c, 1, 57, 82
4, 363600, Note_on_c, 1, 53, 82
4, 364246, Note_off_c, 1, 53, 0
4, 364246, Note_off_c, 1, 57, 0
4, 364246, Note_off_c, 1, 60, 0
4, 364246, Note_off_c, 1, 51, 0
4, 364320, Note_on_c, 1, 62, 82
4, 364320, Note_on_c, 1, 58, 82
4, 364320, Note_on_c, 1, 53, 82
4, 364320, Note_on_c, 1, 50, 82
4, 365613, Note_off_c, 1, 50, 0
4, 365613, Note_off_c, 1, 53, 0
4, 365613, Note_off_c, 1, 58, 0
4, 365613, Note_off_c, 1, 62, 0
4, 365760, Note_on_c, 1, 39, 82
4, 365975, Note_off_c, 1, 39, 0
4, 366000, Note_on_c, 1, 51, 82
4, 366215, Note_off_c, 1, 51, 0
4, 366240, Note_on_c, 1, 51, 82
4, 366347, Note_off_c, 1, 51, 0
4, 366480, Note_on_c, 1, 41, 82
4, 366695, Note_off_c, 1, 41, 0
4, 366720, Note_on_c, 1, 53, 82
4, 366935, Note_off_c, 1, 53, 0
4, 366960, Note_on_c, 1, 53, 82
4, 367067, Note_off_c, 1, 53, 0
4, 367200, Note_on_c, 1, 34, 46
4, 367200, Note_on_c, 1, 58, 46
4, 367307, Note_off_c, 1, 58, 0
4, 367307, Note_off_c, 1, 34, 0
4, 367320, Note_on_c, 1, 46, 46
4, 367320, Note_on_c, 1, 53, 46
4, 367427, Note_off_c, 1, 53, 0
4, 367427, Note_off_c, 1, 46, 0
4, 367440, Note_on_c, 1, 34, 46
4, 367440, Note_on_c, 1, 58, 46
4, 367547, Note_off_c, 1, 58, 0
4, 367547, Note_off_c, 1, 34, 0
4, 367560, Note_on_c, 1, 46, 46
4, 367560, Note_on_c, 1, 53, 46
4, 367667, Note_off_c, 1, 53, 0
4, 367667, Note_off_c, 1, 46, 0
4, 367680, Note_on_c, 1, 34, 46
4, 367680, Note_on_c, 1, 50, 46
4, 367787, Note_off_c, 1, 50, 0
4, 367787, Note_off_c, 1, 34, 0
4, 367800, Note_on_c, 1, 46, 46
4, 367800, Note_on_c, 1, 53, 46
4, 367907, Note_off_c, 1, 53, 0
4, 367907, Note_off_c, 1, 46, 0
4, 367920, Note_on_c, 1, 34, 46
4, 367920, Note_on_c, 1, 58, 46
4, 368027, Note_off_c, 1, 58, 0
4, 368027, Note_off_c, 1, 34, 0
4, 368040, Note_on_c, 1, 46, 46
4, 368040, Note_on_c, 1, 53, 46
4, 368147, Note_off_c, 1, 53, 0
4, 368147, Note_off_c, 1, 46, 0
4, 368160, Note_on_c, 1, 34, 46
4, 368160, Note_on_c, 1, 58, 46
4, 368267, Note_off_c, 1, 58, 0
4, 368267, Note_off_c, 1, 34, 0
4, 368280, Note_on_c, 1, 46, 46
4, 368280, Note_on_c, 1, 50, 46
4, 368387, Note_off_c, 1, 50, 0
4, 368387, Note_off_c, 1, 46, 0
4, 368400, Note_on_c, 1, 34, 46
4, 368400, Note_on_c, 1, 58, 46
4, 368507, Note_off_c, 1, 58, 0
4, 368507, Note_off_c, 1, 34, 0
4, 368520, Note_on_c, 1, 46, 46
4, 368520, Note_on_c, 1, 62, 46
4, 368627, Note_off_c, 1, 62, 0
4, 368627, Note_off_c, 1, 46, 0
4, 368640, Note_on_c, 1, 34, 46
4, 368747, Note_off_c, 1, 34, 0
4, 368760, Note_on_c, 1, 46, 46
4, 368867, Note_off_c, 1, 46, 0
4, 368880, Note_on_c, 1, 34, 46
4, 368987, Note_off_c, 1, 34, 0
4, 369000, Note_on_c, 1, 46, 46
4, 369107, Note_off_c, 1, 46, 0
4, 369120, Note_on_c, 1, 34, 46
4, 369227, Note_off_c, 1, 34, 0
4, 369240, Note_on_c, 1, 46, 46
4, 369347, Note_off_c, 1, 46, 0
4, 369360, Note_on_c, 1, 51, 46
4, 369360, Note_on_c, 1, 34, 46
4, 369467, Note_off_c, 1, 34, 0
4, 369480, Note_on_c, 1, 46, 46
4, 369587, Note_off_c, 1, 46, 0
4, 369600, Note_on_c, 1, 34, 46
4, 369707, Note_off_c, 1, 34, 0
4, 369720, Note_on_c, 1, 46, 46
4, 369827, Note_off_c, 1, 46, 0
4, 369840, Note_on_c, 1, 34, 46
4, 369947, Note_off_c, 1, 34, 0
4, 369960, Note_on_c, 1, 46, 46
4, 370006, Note_off_c, 1, 51, 0
4, 370067, Note_off_c, 1, 46, 0
4, 370080, Note_on_c, 1, 34, 46
4, 370187, Note_off_c, 1, 34, 0
4, 370200, Note_on_c, 1, 46, 46
4, 370307, Note_off_c, 1, 46, 0
4, 370320, Note_on_c, 1, 34, 46
4, 370427, Note_off_c, 1, 34, 0
4, 370440, Note_on_c, 1, 46, 46
4, 370547, Note_off_c, 1, 46, 0
4, 370560, Note_on_c, 1, 34, 46
4, 370667, Note_off_c, 1, 34, 0
4, 370680, Note_on_c, 1, 46, 46
4, 370787, Note_off_c, 1, 46, 0
4, 370800, Note_on_c, 1, 34, 46
4, 370907, Note_off_c, 1, 34, 0
4, 370920, Note_on_c, 1, 46, 46
4, 371027, Note_off_c, 1, 46, 0
4, 371040, Note_on_c, 1, 34, 46
4, 371147, Note_off_c, 1, 34, 0
4, 371160, Note_on_c, 1, 46, 46
4, 371267, Note_off_c, 1, 46, 0
4, 371280, Note_on_c, 1, 34, 46
4, 371387, Note_off_c, 1, 34, 0
4, 371400, Note_on_c, 1, 46, 46
4, 371507, Note_off_c, 1, 46, 0
4, 371520, Note_on_c, 1, 55, 46
4, 371520, Note_on_c, 1, 34, 46
4, 371627, Note_off_c, 1, 34, 0
4, 371640, Note_on_c, 1, 46, 46
4, 371747, Note_off_c, 1, 46, 0
4, 371760, Note_on_c, 1, 34, 46
4, 371867, Note_off_c, 1, 34, 0
4, 371880, Note_on_c, 1, 46, 46
4, 371987, Note_off_c, 1, 46, 0
4, 372000, Note_on_c, 1, 34, 46
4, 372107, Note_off_c, 1, 34, 0
4, 372120, Note_on_c, 1, 46, 46
4, 372166, Note_off_c, 1, 55, 0
4, 372227, Note_off_c, 1, 46, 0
4, 372240, Note_on_c, 1, 57, 46
4, 372240, Note_on_c, 1, 34, 46
4, 372347, Note_off_c, 1, 34, 0
4, 372360, Note_on_c, 1, 46, 46
4, 372467, Note_off_c, 1, 46, 0
4, 372480, Note_on_c, 1, 34, 46
4, 372587, Note_off_c, 1, 34, 0
4, 372600, Note_on_c, 1, 46, 46
4, 372707, Note_off_c, 1, 46, 0
4, 372720, Note_on_c, 1, 34, 46
4, 372827, Note_off_c, 1, 34, 0
4, 372840, Note_on_c, 1, 46, 46
4, 372886, Note_off_c, 1, 57, 0
4, 372947, Note_off_c, 1, 46, 0
4, 372960, Note_on_c, 1, 58, 46
4, 372960, Note_on_c, 1, 34, 46
4, 373067, Note_off_c, 1, 34, 0
4, 373080, Note_on_c, 1, 46, 46
4, 373187, Note_off_c, 1, 46, 0
4, 373200, Note_on_c, 1, 34, 46
4, 373307, Note_off_c, 1, 34, 0
4, 373320, Note_on_c, 1, 46, 46
4, 373391, Note_off_c, 1, 58, 0
4, 373427, Note_off_c, 1, 46, 0
4, 373440, Note_on_c, 1, 34, 46
4, 373547, Note_off_c, 1, 34, 0
4, 373560, Note_on_c, 1, 46, 46
4, 373667, Note_off_c, 1, 46, 0
4, 373680, Note_on_c, 1, 34, 46
4, 373787, Note_off_c, 1, 34, 0
4, 373800, Note_on_c, 1, 46, 46
4, 373907, Note_off_c, 1, 46, 0
4, 373920, Note_on_c, 1, 34, 46
4, 374027, Note_off_c, 1, 34, 0
4, 374040, Note_on_c, 1, 46, 46
4, 374147, Note_off_c, 1, 46, 0
4, 374160, Note_on_c, 1, 34, 64
4, 374267, Note_off_c, 1, 34, 0
4, 374280, Note_on_c, 1, 46, 64
4, 374387, Note_off_c, 1, 46, 0
4, 374400, Note_on_c, 1, 67, 52
4, 374400, Note_on_c, 1, 46, 52
4, 374507, Note_off_c, 1, 46, 0
4, 374520, Note_on_c, 1, 58, 52
4, 374627, Note_off_c, 1, 58, 0
4, 374640, Note_on_c, 1, 46, 52
4, 374747, Note_off_c, 1, 46, 0
4, 374760, Note_on_c, 1, 58, 52
4, 374867, Note_off_c, 1, 58, 0
4, 374880, Note_on_c, 1, 46, 52
4, 374987, Note_off_c, 1, 46, 0
4, 375000, Note_on_c, 1, 58, 52
4, 375046, Note_off_c, 1, 67, 0
4, 375107, Note_off_c, 1, 58, 0
4, 375120, Note_on_c, 1, 69, 52
4, 375120, Note_on_c, 1, 46, 52
4, 375227, Note_off_c, 1, 46, 0
4, 375240, Note_on_c, 1, 58, 52
4, 375347, Note_off_c, 1, 58, 0
4, 375360, Note_on_c, 1, 46, 52
4, 375467, Note_off_c, 1, 46, 0
4, 375480, Note_on_c, 1, 58, 52
4, 375587, Note_off_c, 1, 58, 0
4, 375600, Note_on_c, 1, 46, 52
4, 375707, Note_off_c, 1, 46, 0
4, 375720, Note_on_c, 1, 58, 52
4, 375766, Note_off_c, 1, 69, 0
4, 375827, Note_off_c, 1, 58, 0
4, 375840, Note_on_c, 1, 70, 52
4, 375840, Note_on_c, 1, 46, 52
4, 375947, Note_off_c, 1, 46, 0
4, 375960, Note_on_c, 1, 58, 52
4, 376067, Note_off_c, 1, 58, 0
4, 376080, Note_on_c, 1, 46, 52
4, 376187, Note_off_c, 1, 46, 0
4, 376200, Note_on_c, 1, 58, 52
4, 376271, Note_off_c, 1, 70, 0
4, 376307, Note_off_c, 1, 58, 0
4, 376320, Note_on_c, 1, 46, 52
4, 376427, Note_off_c, 1, 46, 0
4, 376440, Note_on_c, 1, 58, 52
4, 376547, Note_off_c, 1, 58, 0
4, 376560, Note_on_c, 1, 46, 52
4, 376667, Note_off_c, 1, 46, 0
4, 376680, Note_on_c, 1, 58, 52
4, 376787, Note_off_c, 1, 58, 0
4, 376800, Note_on_c, 1, 46, 52
4, 376907, Note_off_c, 1, 46, 0
4, 376920, Note_on_c, 1, 58, 52
4, 377027, Note_off_c, 1, 58, 0
4, 377040, Note_on_c, 1, 46, 52
4, 377147, Note_off_c, 1, 46, 0
4, 377160, Note_on_c, 1, 58, 52
4, 377267, Note_off_c, 1, 58, 0
4, 377280, Note_on_c, 1, 46, 64
4, 377387, Note_off_c, 1, 46, 0
4, 377400, Note_on_c, 1, 58, 64
4, 377507, Note_off_c, 1, 58, 0
4, 377520, Note_on_c, 1, 46, 64
4, 377627, Note_off_c, 1, 46, 0
4, 377640, Note_on_c, 1, 58, 64
4, 377747, Note_off_c, 1, 58, 0
4, 377760, Note_on_c, 1, 46, 64
4, 377867, Note_off_c, 1, 46, 0
4, 377880, Note_on_c, 1, 58, 64
4, 377987, Note_off_c, 1, 58, 0
4, 378000, Note_on_c, 1, 46, 64
4, 378107, Note_off_c, 1, 46, 0
4, 378120, Note_on_c, 1, 58, 64
4, 378227, Note_off_c, 1, 58, 0
4, 378240, Note_on_c, 1, 46, 64
4, 378347, Note_off_c, 1, 46, 0
4, 378360, Note_on_c, 1, 58, 64
4, 378467, Note_off_c, 1, 58, 0
4, 378480, Note_on_c, 1, 46, 64
4, 378587, Note_off_c, 1, 46, 0
4, 378600, Note_on_c, 1, 58, 64
4, 378707, Note_off_c, 1, 58, 0
4, 378720, Note_on_c, 1, 46, 89
4, 378720, Note_on_c, 1, 34, 89
4, 379151, Note_off_c, 1, 34, 0
4, 379151, Note_off_c, 1, 46, 0
4, 379920, Note_on_c, 1, 63, 89
4, 379920, Note_on_c, 1, 55, 89
4, 380135, Note_off_c, 1, 55, 0
4, 380135, Note_off_c, 1, 63, 0
4, 380160, Note_on_c, 1, 62, 89
4, 380160, Note_on_c, 1, 58, 89
4, 380591, Note_off_c, 1, 58, 0
4, 380591, Note_off_c, 1, 62, 0
4, 381360, Note_on_c, 1, 51, 89
4, 381360, Note_on_c, 1, 41, 89
4, 381575, Note_off_c, 1, 41, 0
4, 381575, Note_off_c, 1, 51, 0
4, 381600, Note_on_c, 1, 50, 89
4, 381600, Note_on_c, 1, 46, 89
4, 382031, Note_off_c, 1, 46, 0
4, 382031, Note_off_c, 1, 50, 0
4, 382320, Note_on_c, 1, 57, 89
4, 382427, Note_off_c, 1, 57, 0
4, 382440, Note_on_c, 1, 55, 89
4, 382547, Note_off_c, 1, 55, 0
4, 382560, Note_on_c, 1, 53, 89
4, 382667, Note_off_c, 1, 53, 0
4, 382680, Note_on_c, 1, 51, 89
4, 382787, Note_off_c, 1, 51, 0
4, 382800, Note_on_c, 1, 50, 89
4, 382800, Note_on_c, 1, 41, 89
4, 382907, Note_off_c, 1, 50, 0
4, 382920, Note_on_c, 1, 48, 89
4, 383027, Note_off_c, 1, 41, 0
4, 383040, Note_on_c, 1, 46, 89
4, 383147, Note_off_c, 1, 46, 0
4, 383280, Note_on_c, 1, 50, 89
4, 383387, Note_off_c, 1, 50, 0
4, 383520, Note_on_c, 1, 53, 89
4, 383627, Note_off_c, 1, 53, 0
4, 383760, Note_on_c, 1, 58, 89
4, 383760, Note_on_c, 1, 46, 89
4, 383867, Note_off_c, 1, 46, 0
4, 383867, Note_off_c, 1, 58, 0
4, 384000, Note_on_c, 1, 62, 89
4, 384000, Note_on_c, 1, 58, 89
4, 384000, Note_on_c, 1, 41, 89
4, 384107, Note_off_c, 1, 41, 0
4, 384107, Note_off_c, 1, 58, 0
4, 384107, Note_off_c, 1, 62, 0
4, 384240, Note_on_c, 1, 65, 89
4, 384240, Note_on_c, 1, 62, 89
4, 384240, Note_on_c, 1, 38, 89
4, 384347, Note_off_c, 1, 38, 0
4, 384347, Note_off_c, 1, 62, 0
4, 384347, Note_off_c, 1, 65, 0
4, 384480, Note_on_c, 1, 34, 114
4, 384487, Control_c, 1, 64, 127
4, 384712, Control_c, 1, 64, 0
4, 384911, Note_off_c, 1, 34, 0
4, 385200, Note_on_c, 1, 34, 114
4, 385200, Note_on_c, 1, 46, 64
4, 385267, Control_c, 1, 64, 127
4, 385485, Control_c, 1, 64, 0
4, 385631, Note_off_c, 1, 46, 0
4, 385631, Note_off_c, 1, 34, 0
4, 385920, Note_on_c, 1, 46, 124
4, 385920, Note_on_c, 1, 34, 124
4, 385942, Control_c, 1, 64, 127
4, 386566, Note_off_c, 1, 34, 0
4, 386566, Note_off_c, 1, 46, 0
4, 386617, Note_off_c, 1, 51, 64
4, 386617, Note_off_c, 1, 48, 64
4, 386617, Control_c, 1, 64, 0
4, 386617, End_track
0, 0, End_of_file