0, 0, Header, 1, 16, 120
1, 0, Start_track
1, 0, Title_t, "untitled"
1, 0, Time_signature, 3, 3, 12, 8
1, 0, Key_signature, 4, "major"
1, 0, Tempo, 2222222
1, 0, Marker_t, "Largo"
1, 12960, Time_signature, 3, 2, 24, 8
1, 12960, Tempo, 1111111
1, 14402, Tempo, 1132075
1, 14407, Tempo, 1153846
1, 14417, Tempo, 1176471
1, 14422, Tempo, 1200000
1, 14457, Tempo, 1224490
1, 14460, Tempo, 1250000
1, 14472, Tempo, 1276596
1, 14480, Tempo, 1304348
1, 14492, Tempo, 1333333
1, 14497, Tempo, 1363636
1, 14510, Tempo, 1395349
1, 14522, Tempo, 1428571
1, 14567, Tempo, 1463415
1, 14585, Tempo, 1500000
1, 14615, Tempo, 1538462
1, 14617, Tempo, 1578947
1, 14655, Tempo, 1621622
1, 14707, Tempo, 1578947
1, 14710, Tempo, 1538462
1, 14725, Tempo, 1500000
1, 14730, Tempo, 1463415
1, 14735, Tempo, 1428571
1, 14737, Tempo, 1395349
1, 14742, Tempo, 1363636
1, 14747, Tempo, 1333333
1, 14750, Tempo, 1304348
1, 14752, Tempo, 1276596
1, 15840, Time_signature, 3, 3, 12, 8
1, 15840, Tempo, 2222222
1, 15845, Tempo, 2142857
1, 15850, Tempo, 2068966
1, 15855, Tempo, 2000000
1, 15860, Tempo, 1935484
1, 15865, Tempo, 1875000
1, 15870, Tempo, 1818182
1, 15875, Tempo, 1764706
1, 15877, Tempo, 1714286
1, 15882, Tempo, 1666667
1, 15887, Tempo, 1621622
1, 15892, Tempo, 1578947
1, 15897, Tempo, 1538462
1, 15902, Tempo, 1500000
1, 15907, Tempo, 1463415
1, 15912, Tempo, 1428571
1, 15915, Tempo, 1395349
1, 15920, Tempo, 1363636
1, 15925, Tempo, 1333333
1, 15930, Tempo, 1304348
1, 15935, Tempo, 1276596
1, 15940, Tempo, 1250000
1, 15945, Tempo, 1224490
1, 15950, Tempo, 1200000
1, 15952, Tempo, 1176471
1, 15957, Tempo, 1153846
1, 15962, Tempo, 1132075
1, 15967, Tempo, 1111111
1, 15972, Tempo, 1090909
1, 15977, Tempo, 1071429
1, 15982, Tempo, 1052632
1, 15985, Tempo, 1034483
1, 15992, Tempo, 1016949
1, 15997, Tempo, 1000000
1, 16000, Tempo, 983607
1, 16005, Tempo, 967742
1, 16010, Tempo, 952381
1, 16012, Tempo, 937500
1, 16017, Tempo, 923077
1, 16022, Tempo, 909091
1, 16025, Tempo, 895522
1, 16030, Tempo, 882353
1, 16035, Tempo, 869565
1, 16037, Tempo, 857143
1, 16042, Tempo, 845070
1, 16045, Tempo, 833333
1, 18300, Tempo, 2222222
1, 18300, End_track
2, 0, Start_track
2, 0, MIDI_port, 0
2, 0, Title_t, "Flutes"
2, 0, Program_c, 0, 73
2, 0, Control_c, 0, 7, 100
2, 0, Control_c, 0, 10, 53
2, 0, Control_c, 0, 93, 0
2, 0, Control_c, 0, 91, 66
2, 1980, Control_c, 0, 7, 83
2, 2070, Note_on_c, 0, 83, 38
2, 2070, Note_on_c, 0, 75, 64
2, 2100, Note_on_c, 0, 75, 0
2, 2100, Note_on_c, 0, 76, 44
2, 2130, Note_on_c, 0, 76, 0
2, 2130, Note_on_c, 0, 83, 0
2, 2130, Note_on_c, 0, 81, 39
2, 2130, Note_on_c, 0, 78, 50
2, 2160, Note_on_c, 0, 78, 0
2, 2160, Note_on_c, 0, 81, 0
2, 2160, Note_on_c, 0, 80, 45
2, 2160, Note_on_c, 0, 71, 40
2, 2220, Note_on_c, 0, 71, 0
2, 2220, Note_on_c, 0, 76, 65
2, 2280, Note_on_c, 0, 76, 0
2, 2280, Note_on_c, 0, 80, 0
2, 2280, Note_on_c, 0, 81, 64
2, 2280, Note_on_c, 0, 78, 45
2, 2310, Note_on_c, 0, 78, 0
2, 2310, Note_on_c, 0, 76, 56
2, 2325, Note_on_c, 0, 81, 0
2, 2325, Note_on_c, 0, 80, 66
2, 2340, Note_on_c, 0, 80, 0
2, 2340, Note_on_c, 0, 76, 0
2, 2340, Note_on_c, 0, 80, 46
2, 2340, Note_on_c, 0, 75, 43
2, 2370, Note_on_c, 0, 80, 0
2, 2370, Note_on_c, 0, 78, 62
2, 2380, Note_on_c, 0, 78, 0
2, 2380, Note_on_c, 0, 80, 58
2, 2390, Note_on_c, 0, 80, 0
2, 2390, Note_on_c, 0, 78, 62
2, 2400, Note_on_c, 0, 78, 0
2, 2400, Note_on_c, 0, 75, 0
2, 2400, Note_on_c, 0, 76, 58
2, 2400, Note_on_c, 0, 76, 45
2, 2440, Note_on_c, 0, 76, 0
2, 2460, Note_on_c, 0, 76, 0
2, 2460, Note_on_c, 0, 88, 57
2, 2505, Note_on_c, 0, 88, 0
2, 2505, Note_on_c, 0, 87, 58
2, 2520, Note_on_c, 0, 87, 0
2, 2520, Note_on_c, 0, 87, 51
2, 2550, Note_on_c, 0, 87, 0
2, 2550, Note_on_c, 0, 85, 58
2, 2560, Note_on_c, 0, 85, 0
2, 2560, Note_on_c, 0, 87, 65
2, 2570, Note_on_c, 0, 87, 0
2, 2570, Note_on_c, 0, 85, 64
2, 2580, Note_on_c, 0, 85, 0
2, 2580, Note_on_c, 0, 83, 44
2, 2640, Note_on_c, 0, 83, 0
2, 2670, Note_on_c, 0, 88, 77
2, 2700, Note_on_c, 0, 88, 0
2, 2700, Note_on_c, 0, 87, 80
2, 2715, Note_on_c, 0, 87, 0
2, 2715, Note_on_c, 0, 85, 84
2, 2730, Note_on_c, 0, 85, 0
2, 2730, Note_on_c, 0, 83, 84
2, 2745, Note_on_c, 0, 83, 0
2, 2745, Note_on_c, 0, 81, 80
2, 2760, Note_on_c, 0, 81, 0
2, 2760, Note_on_c, 0, 80, 73
2, 2760, Note_on_c, 0, 76, 81
2, 2790, Note_on_c, 0, 80, 0
2, 2790, Note_on_c, 0, 83, 72
2, 2820, Note_on_c, 0, 76, 0
2, 2820, Note_on_c, 0, 75, 77
2, 2835, Note_on_c, 0, 83, 0
2, 2835, Note_on_c, 0, 81, 78
2, 2850, Note_on_c, 0, 81, 0
2, 2850, Note_on_c, 0, 75, 0
2, 2850, Note_on_c, 0, 78, 74
2, 2850, Note_on_c, 0, 69, 86
2, 2865, Note_on_c, 0, 78, 0
2, 2865, Note_on_c, 0, 75, 84
2, 2880, Note_on_c, 0, 75, 0
2, 2880, Note_on_c, 0, 69, 0
2, 2880, Note_on_c, 0, 76, 50
2, 2880, Note_on_c, 0, 68, 41
2, 2940, Note_on_c, 0, 68, 0
2, 2940, Note_on_c, 0, 76, 0
2, 3060, Note_on_c, 0, 76, 60
2, 3060, Note_on_c, 0, 68, 62
2, 3240, Note_on_c, 0, 68, 0
2, 3240, Note_on_c, 0, 76, 0
2, 3240, Note_on_c, 0, 78, 46
2, 3240, Note_on_c, 0, 73, 57
2, 3330, Note_on_c, 0, 73, 0
2, 3330, Note_on_c, 0, 78, 0
2, 3330, Note_on_c, 0, 78, 68
2, 3330, Note_on_c, 0, 73, 68
2, 3360, Note_on_c, 0, 73, 0
2, 3360, Note_on_c, 0, 78, 0
2, 3360, Note_on_c, 0, 80, 51
2, 3360, Note_on_c, 0, 77, 77
2, 3390, Note_on_c, 0, 77, 0
2, 3390, Note_on_c, 0, 80, 0
2, 3390, Note_on_c, 0, 81, 82
2, 3390, Note_on_c, 0, 78, 84
2, 3420, Note_on_c, 0, 78, 0
2, 3420, Note_on_c, 0, 81, 0
2, 3420, Note_on_c, 0, 81, 68
2, 3420, Note_on_c, 0, 75, 80
2, 3510, Note_on_c, 0, 75, 0
2, 3510, Note_on_c, 0, 81, 0
2, 3510, Note_on_c, 0, 81, 65
2, 3510, Note_on_c, 0, 75, 82
2, 3540, Note_on_c, 0, 75, 0
2, 3540, Note_on_c, 0, 81, 0
2, 3540, Note_on_c, 0, 81, 46
2, 3540, Note_on_c, 0, 75, 73
2, 3570, Note_on_c, 0, 75, 0
2, 3570, Note_on_c, 0, 81, 0
2, 3570, Note_on_c, 0, 75, 65
2, 3570, Note_on_c, 0, 69, 68
2, 3600, Note_on_c, 0, 69, 0
2, 3600, Note_on_c, 0, 75, 0
2, 3600, Note_on_c, 0, 76, 61
2, 3600, Note_on_c, 0, 68, 68
2, 3630, Note_on_c, 0, 68, 0
2, 3630, Note_on_c, 0, 76, 0
2, 3630, Note_on_c, 0, 80, 48
2, 3630, Note_on_c, 0, 76, 80
2, 3660, Note_on_c, 0, 76, 0
2, 3660, Note_on_c, 0, 80, 0
2, 3660, Note_on_c, 0, 81, 72
2, 3660, Note_on_c, 0, 75, 93
2, 3750, Note_on_c, 0, 75, 0
2, 3750, Note_on_c, 0, 81, 0
2, 3750, Note_on_c, 0, 75, 68
2, 3750, Note_on_c, 0, 69, 78
2, 3780, Note_on_c, 0, 69, 0
2, 3780, Note_on_c, 0, 75, 0
2, 3780, Note_on_c, 0, 76, 68
2, 3780, Note_on_c, 0, 68, 58
2, 3810, Note_on_c, 0, 68, 0
2, 3810, Note_on_c, 0, 76, 0
2, 3810, Note_on_c, 0, 80, 58
2, 3810, Note_on_c, 0, 76, 80
2, 3840, Note_on_c, 0, 76, 0
2, 3840, Note_on_c, 0, 80, 0
2, 3840, Note_on_c, 0, 81, 80
2, 3840, Note_on_c, 0, 75, 93
2, 3930, Note_on_c, 0, 75, 0
2, 3930, Note_on_c, 0, 81, 0
2, 3930, Note_on_c, 0, 75, 74
2, 3930, Note_on_c, 0, 69, 80
2, 3960, Note_on_c, 0, 69, 0
2, 3960, Note_on_c, 0, 75, 0
2, 3960, Note_on_c, 0, 76, 85
2, 3960, Note_on_c, 0, 68, 84
2, 3990, Note_on_c, 0, 68, 0
2, 3990, Note_on_c, 0, 76, 0
2, 4020, Note_on_c, 0, 83, 64
2, 4020, Note_on_c, 0, 71, 77
2, 4050, Note_on_c, 0, 71, 0
2, 4050, Note_on_c, 0, 83, 0
2, 4080, Note_on_c, 0, 80, 86
2, 4110, Note_on_c, 0, 80, 0
2, 4140, Note_on_c, 0, 76, 99
2, 4200, Note_on_c, 0, 76, 0
2, 5850, Note_on_c, 0, 87, 52
2, 5850, Note_on_c, 0, 78, 61
2, 5880, Note_on_c, 0, 78, 0
2, 5880, Note_on_c, 0, 87, 0
2, 5880, Note_on_c, 0, 85, 35
2, 5880, Note_on_c, 0, 76, 58
2, 5910, Note_on_c, 0, 76, 0
2, 5910, Note_on_c, 0, 85, 0
2, 5910, Note_on_c, 0, 83, 45
2, 5910, Note_on_c, 0, 75, 53
2, 5932, Note_on_c, 0, 85, 40
2, 5932, Note_on_c, 0, 76, 73
2, 5933, Note_on_c, 0, 75, 0
2, 5933, Note_on_c, 0, 83, 0
2, 5940, Note_on_c, 0, 85, 0
2, 5940, Note_on_c, 0, 76, 0
2, 5940, Note_on_c, 0, 83, 53
2, 5940, Note_on_c, 0, 75, 74
2, 6000, Note_on_c, 0, 75, 0
2, 6000, Note_on_c, 0, 83, 0
2, 6000, Note_on_c, 0, 82, 58
2, 6000, Note_on_c, 0, 73, 66
2, 6030, Note_on_c, 0, 73, 0
2, 6030, Note_on_c, 0, 82, 0
2, 6120, Control_c, 0, 7, 99
2, 6480, Note_on_c, 0, 83, 49
2, 6480, Note_on_c, 0, 75, 62
2, 6600, Note_on_c, 0, 75, 0
2, 6600, Note_on_c, 0, 83, 0
2, 6600, Note_on_c, 0, 74, 80
2, 6600, Note_on_c, 0, 83, 54
2, 6660, Note_on_c, 0, 83, 0
2, 6660, Note_on_c, 0, 74, 0
2, 6660, Note_on_c, 0, 84, 46
2, 6660, Note_on_c, 0, 74, 77
2, 6780, Note_on_c, 0, 74, 0
2, 6780, Note_on_c, 0, 84, 0
2, 6780, Note_on_c, 0, 78, 74
2, 6780, Note_on_c, 0, 72, 45
2, 6840, Note_on_c, 0, 72, 0
2, 6840, Note_on_c, 0, 78, 0
2, 6840, Note_on_c, 0, 71, 72
2, 6840, Note_on_c, 0, 79, 60
2, 6900, Note_on_c, 0, 79, 0
2, 6900, Note_on_c, 0, 71, 0
2, 7380, Note_on_c, 0, 81, 59
2, 7440, Note_on_c, 0, 81, 0
2, 7440, Note_on_c, 0, 78, 71
2, 7500, Note_on_c, 0, 78, 0
2, 7500, Note_on_c, 0, 72, 76
2, 7560, Note_on_c, 0, 72, 0
2, 7560, Note_on_c, 0, 71, 61
2, 7620, Note_on_c, 0, 71, 0
2, 7740, Note_on_c, 0, 83, 52
2, 7800, Note_on_c, 0, 83, 0
2, 7800, Note_on_c, 0, 80, 63
2, 7860, Note_on_c, 0, 80, 0
2, 7860, Note_on_c, 0, 74, 50
2, 7920, Note_on_c, 0, 74, 0
2, 7920, Note_on_c, 0, 72, 76
2, 7980, Note_on_c, 0, 72, 0
2, 8190, Note_on_c, 0, 81, 72
2, 8212, Note_on_c, 0, 81, 0
2, 8220, Note_on_c, 0, 81, 63
2, 8242, Note_on_c, 0, 81, 0
2, 8250, Note_on_c, 0, 81, 65
2, 8272, Note_on_c, 0, 81, 0
2, 8280, Note_on_c, 0, 81, 54
2, 8340, Note_on_c, 0, 81, 0
2, 8370, Note_on_c, 0, 81, 57
2, 8392, Note_on_c, 0, 81, 0
2, 8400, Note_on_c, 0, 81, 68
2, 8422, Note_on_c, 0, 81, 0
2, 8430, Note_on_c, 0, 81, 64
2, 8452, Note_on_c, 0, 81, 0
2, 8460, Note_on_c, 0, 81, 54
2, 8520, Note_on_c, 0, 81, 0
2, 8535, Note_on_c, 0, 81, 56
2, 8542, Note_on_c, 0, 81, 0
2, 8542, Note_on_c, 0, 80, 56
2, 8549, Note_on_c, 0, 80, 0
2, 8550, Note_on_c, 0, 81, 61
2, 8557, Note_on_c, 0, 81, 0
2, 8557, Note_on_c, 0, 80, 62
2, 8564, Note_on_c, 0, 80, 0
2, 8565, Note_on_c, 0, 81, 44
2, 8572, Note_on_c, 0, 81, 0
2, 8572, Note_on_c, 0, 80, 60
2, 8579, Note_on_c, 0, 80, 0
2, 8580, Note_on_c, 0, 81, 45
2, 8587, Note_on_c, 0, 81, 0
2, 8587, Note_on_c, 0, 80, 64
2, 8594, Note_on_c, 0, 80, 0
2, 8595, Note_on_c, 0, 81, 45
2, 8602, Note_on_c, 0, 81, 0
2, 8602, Note_on_c, 0, 80, 53
2, 8609, Note_on_c, 0, 80, 0
2, 8610, Note_on_c, 0, 81, 46
2, 8617, Note_on_c, 0, 81, 0
2, 8617, Note_on_c, 0, 80, 38
2, 8624, Note_on_c, 0, 80, 0
2, 8625, Note_on_c, 0, 81, 59
2, 8632, Note_on_c, 0, 81, 0
2, 8632, Note_on_c, 0, 80, 64
2, 8639, Note_on_c, 0, 80, 0
2, 8640, Note_on_c, 0, 81, 57
2, 8670, Note_on_c, 0, 81, 0
2, 8670, Note_on_c, 0, 81, 45
2, 8700, Note_on_c, 0, 81, 0
2, 8730, Note_on_c, 0, 81, 41
2, 8760, Note_on_c, 0, 81, 0
2, 8790, Note_on_c, 0, 81, 42
2, 8820, Note_on_c, 0, 81, 0
2, 8850, Note_on_c, 0, 81, 42
2, 8880, Note_on_c, 0, 81, 0
2, 8910, Note_on_c, 0, 81, 48
2, 8940, Note_on_c, 0, 81, 0
2, 8970, Note_on_c, 0, 81, 41
2, 9000, Note_on_c, 0, 81, 0
2, 9000, Note_on_c, 0, 81, 44
2, 9060, Note_on_c, 0, 81, 0
2, 10020, Note_on_c, 0, 68, 33
2, 10080, Note_on_c, 0, 68, 0
2, 10080, Note_on_c, 0, 76, 46
2, 10080, Note_on_c, 0, 73, 43
2, 10170, Note_on_c, 0, 73, 0
2, 10170, Note_on_c, 0, 76, 0
2, 10170, Note_on_c, 0, 73, 43
2, 10170, Note_on_c, 0, 76, 56
2, 10192, Note_on_c, 0, 76, 0
2, 10192, Note_on_c, 0, 73, 0
2, 10200, Note_on_c, 0, 73, 68
2, 10200, Note_on_c, 0, 76, 67
2, 10222, Note_on_c, 0, 76, 0
2, 10222, Note_on_c, 0, 73, 0
2, 10230, Note_on_c, 0, 73, 80
2, 10230, Note_on_c, 0, 76, 71
2, 10252, Note_on_c, 0, 76, 0
2, 10252, Note_on_c, 0, 73, 0
2, 10260, Note_on_c, 0, 73, 76
2, 10260, Note_on_c, 0, 76, 72
2, 10320, Note_on_c, 0, 76, 0
2, 10320, Note_on_c, 0, 73, 0
2, 10320, Note_on_c, 0, 75, 40
2, 10320, Note_on_c, 0, 71, 53
2, 10380, Note_on_c, 0, 71, 0
2, 10380, Note_on_c, 0, 75, 0
2, 11010, Note_on_c, 0, 67, 31
2, 11040, Note_on_c, 0, 67, 0
2, 11040, Note_on_c, 0, 71, 41
2, 11070, Note_on_c, 0, 71, 0
2, 11070, Note_on_c, 0, 76, 43
2, 11100, Note_on_c, 0, 76, 0
2, 11100, Note_on_c, 0, 75, 43
2, 11160, Note_on_c, 0, 75, 0
2, 11430, Note_on_c, 0, 75, 49
2, 11430, Note_on_c, 0, 83, 46
2, 11460, Note_on_c, 0, 75, 0
2, 11460, Note_on_c, 0, 76, 38
2, 11490, Note_on_c, 0, 76, 0
2, 11490, Note_on_c, 0, 83, 0
2, 11490, Note_on_c, 0, 81, 54
2, 11490, Note_on_c, 0, 78, 45
2, 11520, Note_on_c, 0, 78, 0
2, 11520, Note_on_c, 0, 81, 0
2, 11520, Note_on_c, 0, 71, 40
2, 11520, Note_on_c, 0, 80, 43
2, 11580, Note_on_c, 0, 71, 0
2, 11580, Note_on_c, 0, 76, 57
2, 11640, Note_on_c, 0, 76, 0
2, 11640, Note_on_c, 0, 80, 0
2, 11640, Note_on_c, 0, 78, 50
2, 11640, Note_on_c, 0, 81, 44
2, 11670, Note_on_c, 0, 78, 0
2, 11670, Note_on_c, 0, 76, 62
2, 11685, Note_on_c, 0, 81, 0
2, 11685, Note_on_c, 0, 80, 53
2, 11700, Note_on_c, 0, 80, 0
2, 11700, Note_on_c, 0, 76, 0
2, 11700, Note_on_c, 0, 75, 64
2, 11700, Note_on_c, 0, 80, 52
2, 11730, Note_on_c, 0, 80, 0
2, 11730, Note_on_c, 0, 78, 51
2, 11740, Note_on_c, 0, 78, 0
2, 11740, Note_on_c, 0, 80, 46
2, 11750, Note_on_c, 0, 80, 0
2, 11750, Note_on_c, 0, 78, 64
2, 11760, Note_on_c, 0, 78, 0
2, 11760, Note_on_c, 0, 75, 0
2, 11760, Note_on_c, 0, 76, 47
2, 11760, Note_on_c, 0, 76, 69
2, 11820, Note_on_c, 0, 76, 0
2, 11820, Note_on_c, 0, 76, 0
2, 11820, Note_on_c, 0, 88, 48
2, 11865, Note_on_c, 0, 88, 0
2, 11865, Note_on_c, 0, 87, 62
2, 11880, Note_on_c, 0, 87, 0
2, 11880, Note_on_c, 0, 87, 64
2, 11910, Note_on_c, 0, 87, 0
2, 11910, Note_on_c, 0, 85, 54
2, 11920, Note_on_c, 0, 85, 0
2, 11920, Note_on_c, 0, 87, 61
2, 11930, Note_on_c, 0, 87, 0
2, 11930, Note_on_c, 0, 85, 67
2, 11940, Note_on_c, 0, 85, 0
2, 11940, Note_on_c, 0, 83, 67
2, 12000, Note_on_c, 0, 83, 0
2, 12030, Note_on_c, 0, 88, 58
2, 12060, Note_on_c, 0, 88, 0
2, 12060, Note_on_c, 0, 87, 68
2, 12075, Note_on_c, 0, 87, 0
2, 12075, Note_on_c, 0, 85, 71
2, 12090, Note_on_c, 0, 85, 0
2, 12090, Note_on_c, 0, 83, 58
2, 12105, Note_on_c, 0, 83, 0
2, 12105, Note_on_c, 0, 81, 62
2, 12120, Note_on_c, 0, 81, 0
2, 12120, Note_on_c, 0, 76, 48
2, 12120, Note_on_c, 0, 80, 64
2, 12150, Note_on_c, 0, 80, 0
2, 12150, Note_on_c, 0, 83, 47
2, 12180, Note_on_c, 0, 76, 0
2, 12180, Note_on_c, 0, 75, 61
2, 12195, Note_on_c, 0, 83, 0
2, 12195, Note_on_c, 0, 81, 56
2, 12210, Note_on_c, 0, 81, 0
2, 12210, Note_on_c, 0, 75, 0
2, 12210, Note_on_c, 0, 69, 40
2, 12210, Note_on_c, 0, 78, 65
2, 12225, Note_on_c, 0, 78, 0
2, 12225, Note_on_c, 0, 75, 76
2, 12240, Note_on_c, 0, 75, 0
2, 12240, Note_on_c, 0, 69, 0
2, 12240, Note_on_c, 0, 68, 38
2, 12240, Note_on_c, 0, 76, 53
2, 12300, Note_on_c, 0, 76, 0
2, 12300, Note_on_c, 0, 68, 0
2, 12420, Note_on_c, 0, 76, 42
2, 12420, Note_on_c, 0, 68, 39
2, 12600, Note_on_c, 0, 68, 0
2, 12600, Note_on_c, 0, 76, 0
2, 12600, Note_on_c, 0, 73, 32
2, 12600, Note_on_c, 0, 78, 35
2, 12690, Note_on_c, 0, 78, 0
2, 12690, Note_on_c, 0, 73, 0
2, 12690, Note_on_c, 0, 73, 39
2, 12690, Note_on_c, 0, 78, 61
2, 12720, Note_on_c, 0, 78, 0
2, 12720, Note_on_c, 0, 73, 0
2, 12720, Note_on_c, 0, 80, 53
2, 12720, Note_on_c, 0, 77, 73
2, 12750, Note_on_c, 0, 77, 0
2, 12750, Note_on_c, 0, 80, 0
2, 12750, Note_on_c, 0, 81, 62
2, 12750, Note_on_c, 0, 78, 61
2, 12780, Note_on_c, 0, 78, 0
2, 12780, Note_on_c, 0, 81, 0
2, 12780, Note_on_c, 0, 75, 57
2, 12780, Note_on_c, 0, 81, 77
2, 12870, Note_on_c, 0, 81, 0
2, 12870, Note_on_c, 0, 75, 0
2, 12870, Note_on_c, 0, 75, 43
2, 12870, Note_on_c, 0, 81, 49
2, 12900, Note_on_c, 0, 81, 0
2, 12900, Note_on_c, 0, 75, 0
2, 12900, Note_on_c, 0, 75, 38
2, 12900, Note_on_c, 0, 81, 48
2, 12930, Note_on_c, 0, 81, 0
2, 12930, Note_on_c, 0, 75, 0
2, 12930, Note_on_c, 0, 69, 45
2, 12930, Note_on_c, 0, 75, 43
2, 12960, Note_on_c, 0, 75, 0
2, 12960, Note_on_c, 0, 69, 0
2, 12960, Note_on_c, 0, 76, 45
2, 12960, Note_on_c, 0, 68, 35
2, 13020, Note_on_c, 0, 68, 0
2, 13020, Note_on_c, 0, 76, 0
2, 13680, Note_on_c, 0, 76, 45
2, 13680, Note_on_c, 0, 78, 44
2, 13680, Control_c, 0, 7, 80
2, 14040, Note_on_c, 0, 78, 0
2, 14040, Note_on_c, 0, 76, 0
2, 14040, Control_c, 0, 7, 80
2, 14040, Note_on_c, 0, 75, 45
2, 14040, Note_on_c, 0, 78, 29
2, 14060, Control_c, 0, 7, 81
2, 14080, Control_c, 0, 7, 82
2, 14100, Control_c, 0, 7, 83
2, 14115, Control_c, 0, 7, 84
2, 14135, Control_c, 0, 7, 85
2, 14155, Control_c, 0, 7, 86
2, 14170, Control_c, 0, 7, 87
2, 14190, Control_c, 0, 7, 88
2, 14210, Control_c, 0, 7, 89
2, 14220, Note_on_c, 0, 78, 0
2, 14220, Note_on_c, 0, 75, 0
2, 14220, Note_on_c, 0, 75, 43
2, 14220, Note_on_c, 0, 78, 41
2, 14225, Control_c, 0, 7, 90
2, 14245, Control_c, 0, 7, 91
2, 14265, Note_on_c, 0, 78, 0
2, 14265, Note_on_c, 0, 75, 0
2, 14265, Control_c, 0, 7, 92
2, 14280, Control_c, 0, 7, 93
2, 14280, Note_on_c, 0, 75, 45
2, 14280, Note_on_c, 0, 78, 46
2, 14300, Control_c, 0, 7, 94
2, 14320, Control_c, 0, 7, 95
2, 14325, Note_on_c, 0, 78, 0
2, 14325, Note_on_c, 0, 75, 0
2, 14335, Control_c, 0, 7, 96
2, 14340, Note_on_c, 0, 75, 50
2, 14340, Note_on_c, 0, 78, 48
2, 14355, Control_c, 0, 7, 97
2, 14375, Control_c, 0, 7, 98
2, 14385, Note_on_c, 0, 78, 0
2, 14385, Note_on_c, 0, 75, 0
2, 14390, Control_c, 0, 7, 99
2, 14400, Note_on_c, 0, 76, 43
2, 14400, Note_on_c, 0, 80, 43
2, 14520, Note_on_c, 0, 80, 0
2, 14520, Note_on_c, 0, 76, 0
2, 15120, Note_on_c, 0, 83, 56
2, 15210, Note_on_c, 0, 83, 0
2, 15210, Note_on_c, 0, 88, 72
2, 15210, Note_on_c, 0, 83, 84
2, 15240, Note_on_c, 0, 83, 0
2, 15240, Note_on_c, 0, 88, 0
2, 15240, Note_on_c, 0, 88, 65
2, 15240, Note_on_c, 0, 83, 80
2, 15360, Note_on_c, 0, 83, 0
2, 15360, Note_on_c, 0, 88, 0
2, 15480, Note_on_c, 0, 85, 68
2, 15480, Note_on_c, 0, 76, 93
2, 15570, Note_on_c, 0, 76, 0
2, 15570, Note_on_c, 0, 85, 0
2, 15570, Note_on_c, 0, 88, 64
2, 15570, Note_on_c, 0, 85, 74
2, 15600, Note_on_c, 0, 85, 0
2, 15600, Note_on_c, 0, 88, 0
2, 15600, Note_on_c, 0, 88, 65
2, 15600, Note_on_c, 0, 85, 74
2, 15720, Note_on_c, 0, 85, 0
2, 15720, Note_on_c, 0, 88, 0
2, 15840, Note_on_c, 0, 76, 76
2, 15840, Note_on_c, 0, 80, 61
2, 15900, Note_on_c, 0, 80, 0
2, 15900, Note_on_c, 0, 76, 0
2, 18300, Note_on_c, 0, 75, 47
2, 18300, Note_on_c, 0, 69, 53
2, 18360, Note_on_c, 0, 69, 0
2, 18360, Note_on_c, 0, 75, 0
2, 18360, Note_on_c, 0, 76, 43
2, 18360, Note_on_c, 0, 68, 40
2, 18420, Note_on_c, 0, 68, 0
2, 18420, Note_on_c, 0, 76, 0
2, 19260, Note_on_c, 0, 88, 38
2, 19260, Note_on_c, 0, 76, 38
2, 19500, Note_on_c, 0, 76, 0
2, 19500, Note_on_c, 0, 88, 0
2, 19500, Note_on_c, 0, 71, 38
2, 19500, Note_on_c, 0, 83, 38
2, 19560, Note_on_c, 0, 83, 0
2, 19560, Note_on_c, 0, 71, 0
2, 19560, Note_on_c, 0, 68, 39
2, 19560, Note_on_c, 0, 80, 40
2, 19620, Note_on_c, 0, 80, 0
2, 19620, Note_on_c, 0, 68, 0
2, 19620, Note_on_c, 0, 76, 41
2, 19620, Note_on_c, 0, 64, 35
2, 19680, Note_on_c, 0, 64, 0
2, 19680, Note_on_c, 0, 76, 0
2, 19680, Note_on_c, 0, 88, 94
2, 19680, Note_on_c, 0, 80, 93
2, 19710, Note_on_c, 0, 80, 0
2, 19710, Note_on_c, 0, 88, 0
2, 19710, End_track
3, 0, Start_track
3, 0, MIDI_port, 0
3, 0, Title_t, "Bassoons"
3, 0, Program_c, 1, 70
3, 0, Control_c, 1, 7, 100
3, 0, Control_c, 1, 10, 92
3, 0, Control_c, 1, 93, 0
3, 0, Control_c, 1, 91, 66
3, 1980, Control_c, 1, 7, 90
3, 2070, Note_on_c, 1, 47, 43
3, 2100, Note_on_c, 1, 47, 0
3, 2100, Note_on_c, 1, 49, 62
3, 2130, Note_on_c, 1, 49, 0
3, 2130, Note_on_c, 1, 51, 49
3, 2160, Note_on_c, 1, 51, 0
3, 2160, Note_on_c, 1, 52, 64
3, 2280, Note_on_c, 1, 52, 0
3, 2280, Note_on_c, 1, 51, 52
3, 2310, Note_on_c, 1, 51, 0
3, 2310, Note_on_c, 1, 52, 64
3, 2340, Note_on_c, 1, 52, 0
3, 2340, Note_on_c, 1, 47, 65
3, 2400, Note_on_c, 1, 47, 0
3, 2400, Note_on_c, 1, 52, 77
3, 2460, Note_on_c, 1, 52, 0
3, 2490, Note_on_c, 1, 56, 48
3, 2520, Note_on_c, 1, 56, 0
3, 2520, Note_on_c, 1, 57, 53
3, 2580, Note_on_c, 1, 57, 0
3, 2580, Note_on_c, 1, 56, 62
3, 2640, Note_on_c, 1, 56, 0
3, 2670, Note_on_c, 1, 44, 59
3, 2700, Note_on_c, 1, 44, 0
3, 2700, Note_on_c, 1, 45, 78
3, 2760, Note_on_c, 1, 45, 0
3, 2760, Note_on_c, 1, 47, 86
3, 2820, Note_on_c, 1, 47, 0
3, 2820, Note_on_c, 1, 47, 74
3, 2880, Note_on_c, 1, 47, 0
3, 2880, Note_on_c, 1, 52, 44
3, 3000, Note_on_c, 1, 52, 0
3, 3000, Note_on_c, 1, 52, 54
3, 3045, Note_on_c, 1, 52, 0
3, 3045, Note_on_c, 1, 51, 53
3, 3060, Note_on_c, 1, 51, 0
3, 3060, Note_on_c, 1, 61, 53
3, 3060, Note_on_c, 1, 49, 58
3, 3180, Note_on_c, 1, 49, 0
3, 3180, Note_on_c, 1, 49, 69
3, 3225, Note_on_c, 1, 49, 0
3, 3225, Note_on_c, 1, 47, 74
3, 3240, Note_on_c, 1, 47, 0
3, 3240, Note_on_c, 1, 61, 0
3, 3240, Note_on_c, 1, 61, 55
3, 3240, Note_on_c, 1, 45, 69
3, 3330, Note_on_c, 1, 45, 0
3, 3330, Note_on_c, 1, 61, 0
3, 3330, Note_on_c, 1, 61, 71
3, 3345, Note_on_c, 1, 45, 84
3, 3360, Note_on_c, 1, 45, 0
3, 3360, Note_on_c, 1, 61, 0
3, 3360, Note_on_c, 1, 65, 76
3, 3360, Note_on_c, 1, 44, 82
3, 3390, Note_on_c, 1, 65, 0
3, 3390, Note_on_c, 1, 66, 86
3, 3405, Note_on_c, 1, 44, 0
3, 3405, Note_on_c, 1, 42, 90
3, 3420, Note_on_c, 1, 42, 0
3, 3420, Note_on_c, 1, 66, 0
3, 3420, Note_on_c, 1, 66, 71
3, 3420, Note_on_c, 1, 57, 99
3, 3510, Note_on_c, 1, 57, 0
3, 3510, Note_on_c, 1, 66, 0
3, 3510, Note_on_c, 1, 63, 70
3, 3510, Note_on_c, 1, 57, 93
3, 3540, Note_on_c, 1, 57, 0
3, 3540, Note_on_c, 1, 63, 0
3, 3540, Note_on_c, 1, 63, 58
3, 3540, Note_on_c, 1, 57, 74
3, 3570, Note_on_c, 1, 57, 0
3, 3570, Note_on_c, 1, 63, 0
3, 3570, Note_on_c, 1, 63, 45
3, 3570, Note_on_c, 1, 57, 74
3, 3600, Note_on_c, 1, 57, 0
3, 3600, Note_on_c, 1, 63, 0
3, 3600, Note_on_c, 1, 64, 57
3, 3600, Note_on_c, 1, 56, 50
3, 3660, Note_on_c, 1, 56, 0
3, 3660, Note_on_c, 1, 64, 0
3, 3690, Note_on_c, 1, 47, 94
3, 3720, Note_on_c, 1, 47, 0
3, 3720, Note_on_c, 1, 47, 77
3, 3750, Note_on_c, 1, 47, 0
3, 3750, Note_on_c, 1, 47, 81
3, 3780, Note_on_c, 1, 47, 0
3, 3780, Note_on_c, 1, 52, 76
3, 3840, Note_on_c, 1, 52, 0
3, 3870, Note_on_c, 1, 47, 94
3, 3900, Note_on_c, 1, 47, 0
3, 3900, Note_on_c, 1, 47, 74
3, 3930, Note_on_c, 1, 47, 0
3, 3930, Note_on_c, 1, 47, 73
3, 3960, Note_on_c, 1, 47, 0
3, 3960, Note_on_c, 1, 52, 89
3, 3990, Note_on_c, 1, 52, 0
3, 4020, Note_on_c, 1, 59, 76
3, 4050, Note_on_c, 1, 59, 0
3, 4080, Note_on_c, 1, 56, 86
3, 4110, Note_on_c, 1, 56, 0
3, 4140, Note_on_c, 1, 52, 99
3, 4200, Note_on_c, 1, 52, 0
3, 5610, Note_on_c, 1, 54, 40
3, 5633, Note_on_c, 1, 54, 0
3, 5640, Note_on_c, 1, 54, 48
3, 5663, Note_on_c, 1, 54, 0
3, 5670, Note_on_c, 1, 54, 39
3, 5670, Note_on_c, 1, 47, 43
3, 5693, Note_on_c, 1, 47, 0
3, 5693, Note_on_c, 1, 54, 0
3, 5700, Note_on_c, 1, 54, 68
3, 5700, Note_on_c, 1, 46, 85
3, 5723, Note_on_c, 1, 46, 0
3, 5723, Note_on_c, 1, 54, 0
3, 5730, Note_on_c, 1, 54, 43
3, 5730, Note_on_c, 1, 47, 80
3, 5753, Note_on_c, 1, 47, 0
3, 5753, Note_on_c, 1, 54, 0
3, 5760, Note_on_c, 1, 54, 76
3, 5760, Note_on_c, 1, 42, 89
3, 5850, Note_on_c, 1, 42, 0
3, 5850, Note_on_c, 1, 54, 0
3, 5850, Note_on_c, 1, 54, 44
3, 5850, Note_on_c, 1, 47, 76
3, 5880, Note_on_c, 1, 47, 0
3, 5880, Note_on_c, 1, 54, 0
3, 5880, Note_on_c, 1, 54, 74
3, 5880, Note_on_c, 1, 46, 90
3, 5910, Note_on_c, 1, 46, 0
3, 5910, Note_on_c, 1, 54, 0
3, 5910, Note_on_c, 1, 54, 35
3, 5910, Note_on_c, 1, 47, 67
3, 5940, Note_on_c, 1, 47, 0
3, 5940, Note_on_c, 1, 54, 0
3, 5940, Note_on_c, 1, 54, 56
3, 5940, Note_on_c, 1, 42, 68
3, 5970, Note_on_c, 1, 54, 0
3, 5970, Note_on_c, 1, 54, 62
3, 6000, Note_on_c, 1, 54, 0
3, 6000, Note_on_c, 1, 42, 0
3, 6000, Note_on_c, 1, 54, 63
3, 6030, Note_on_c, 1, 54, 0
3, 6120, Control_c, 1, 7, 99
3, 6480, Note_on_c, 1, 66, 50
3, 6480, Note_on_c, 1, 59, 72
3, 6600, Note_on_c, 1, 59, 0
3, 6600, Note_on_c, 1, 66, 0
3, 6600, Note_on_c, 1, 59, 84
3, 6600, Note_on_c, 1, 66, 61
3, 6660, Note_on_c, 1, 66, 0
3, 6660, Note_on_c, 1, 59, 0
3, 6660, Note_on_c, 1, 66, 74
3, 6660, Note_on_c, 1, 57, 99
3, 6780, Note_on_c, 1, 57, 0
3, 6780, Note_on_c, 1, 66, 0
3, 6780, Note_on_c, 1, 60, 86
3, 6780, Note_on_c, 1, 57, 89
3, 6840, Note_on_c, 1, 57, 0
3, 6840, Note_on_c, 1, 60, 0
3, 6840, Note_on_c, 1, 55, 76
3, 6840, Note_on_c, 1, 59, 77
3, 6900, Note_on_c, 1, 59, 0
3, 6900, Note_on_c, 1, 55, 0
3, 7020, Note_on_c, 1, 62, 61
3, 7080, Note_on_c, 1, 62, 0
3, 7080, Note_on_c, 1, 59, 59
3, 7140, Note_on_c, 1, 59, 0
3, 7140, Note_on_c, 1, 55, 68
3, 7200, Note_on_c, 1, 55, 0
3, 7200, Note_on_c, 1, 54, 73
3, 7260, Note_on_c, 1, 54, 0
3, 7560, Note_on_c, 1, 62, 61
3, 7620, Note_on_c, 1, 62, 0
3, 7620, Note_on_c, 1, 59, 70
3, 7680, Note_on_c, 1, 59, 0
3, 7680, Note_on_c, 1, 53, 78
3, 7740, Note_on_c, 1, 53, 0
3, 7740, Note_on_c, 1, 52, 84
3, 7800, Note_on_c, 1, 52, 0
3, 7920, Note_on_c, 1, 64, 70
3, 8010, Note_on_c, 1, 64, 0
3, 8010, Note_on_c, 1, 64, 73
3, 8032, Note_on_c, 1, 64, 0
3, 8040, Note_on_c, 1, 64, 72
3, 8062, Note_on_c, 1, 64, 0
3, 8070, Note_on_c, 1, 64, 73
3, 8092, Note_on_c, 1, 64, 0
3, 8100, Note_on_c, 1, 63, 68
3, 8220, Note_on_c, 1, 63, 0
3, 8220, Note_on_c, 1, 64, 73
3, 8280, Note_on_c, 1, 64, 0
3, 8280, Note_on_c, 1, 66, 68
3, 8400, Note_on_c, 1, 66, 0
3, 8400, Note_on_c, 1, 64, 71
3, 8460, Note_on_c, 1, 64, 0
3, 8460, Note_on_c, 1, 63, 65
3, 8580, Note_on_c, 1, 63, 0
3, 8580, Note_on_c, 1, 64, 73
3, 8640, Note_on_c, 1, 64, 0
3, 8640, Note_on_c, 1, 66, 70
3, 8670, Note_on_c, 1, 66, 0
3, 8670, Note_on_c, 1, 66, 68
3, 8700, Note_on_c, 1, 66, 0
3, 8730, Note_on_c, 1, 66, 57
3, 8760, Note_on_c, 1, 66, 0
3, 8790, Note_on_c, 1, 66, 49
3, 8820, Note_on_c, 1, 66, 0
3, 8850, Note_on_c, 1, 66, 45
3, 8880, Note_on_c, 1, 66, 0
3, 8910, Note_on_c, 1, 66, 65
3, 8940, Note_on_c, 1, 66, 0
3, 8970, Note_on_c, 1, 66, 32
3, 9000, Note_on_c, 1, 66, 0
3, 9000, Note_on_c, 1, 66, 32
3, 9060, Note_on_c, 1, 66, 0
3, 10080, Note_on_c, 1, 61, 65
3, 10170, Note_on_c, 1, 61, 0
3, 10170, Note_on_c, 1, 61, 70
3, 10192, Note_on_c, 1, 61, 0
3, 10200, Note_on_c, 1, 61, 74
3, 10222, Note_on_c, 1, 61, 0
3, 10230, Note_on_c, 1, 59, 94
3, 10252, Note_on_c, 1, 59, 0
3, 10260, Note_on_c, 1, 46, 89
3, 10260, Note_on_c, 1, 58, 84
3, 10320, Note_on_c, 1, 58, 0
3, 10320, Note_on_c, 1, 46, 0
3, 10320, Note_on_c, 1, 59, 62
3, 10320, Note_on_c, 1, 47, 47
3, 10380, Note_on_c, 1, 47, 0
3, 10380, Note_on_c, 1, 59, 0
3, 11010, Note_on_c, 1, 55, 44
3, 11040, Note_on_c, 1, 55, 0
3, 11040, Note_on_c, 1, 59, 46
3, 11070, Note_on_c, 1, 59, 0
3, 11070, Note_on_c, 1, 64, 57
3, 11100, Note_on_c, 1, 64, 0
3, 11100, Note_on_c, 1, 63, 43
3, 11160, Note_on_c, 1, 63, 0
3, 11430, Note_on_c, 1, 47, 74
3, 11460, Note_on_c, 1, 47, 0
3, 11460, Note_on_c, 1, 49, 66
3, 11490, Note_on_c, 1, 49, 0
3, 11490, Note_on_c, 1, 51, 68
3, 11520, Note_on_c, 1, 51, 0
3, 11520, Note_on_c, 1, 52, 73
3, 11640, Note_on_c, 1, 52, 0
3, 11640, Note_on_c, 1, 51, 71
3, 11670, Note_on_c, 1, 51, 0
3, 11670, Note_on_c, 1, 52, 73
3, 11700, Note_on_c, 1, 52, 0
3, 11700, Note_on_c, 1, 47, 58
3, 11760, Note_on_c, 1, 47, 0
3, 11760, Note_on_c, 1, 52, 77
3, 11820, Note_on_c, 1, 52, 0
3, 11850, Note_on_c, 1, 56, 70
3, 11880, Note_on_c, 1, 56, 0
3, 11880, Note_on_c, 1, 57, 84
3, 11940, Note_on_c, 1, 57, 0
3, 11940, Note_on_c, 1, 56, 84
3, 12000, Note_on_c, 1, 56, 0
3, 12030, Note_on_c, 1, 44, 89
3, 12060, Note_on_c, 1, 44, 0
3, 12060, Note_on_c, 1, 45, 94
3, 12120, Note_on_c, 1, 45, 0
3, 12120, Note_on_c, 1, 47, 89
3, 12180, Note_on_c, 1, 47, 0
3, 12180, Note_on_c, 1, 47, 94
3, 12240, Note_on_c, 1, 47, 0
3, 12240, Note_on_c, 1, 52, 76
3, 12360, Note_on_c, 1, 52, 0
3, 12360, Note_on_c, 1, 52, 56
3, 12405, Note_on_c, 1, 52, 0
3, 12405, Note_on_c, 1, 51, 58
3, 12420, Note_on_c, 1, 51, 0
3, 12420, Note_on_c, 1, 61, 50
3, 12420, Note_on_c, 1, 49, 63
3, 12540, Note_on_c, 1, 49, 0
3, 12540, Note_on_c, 1, 49, 60
3, 12585, Note_on_c, 1, 49, 0
3, 12585, Note_on_c, 1, 47, 66
3, 12600, Note_on_c, 1, 47, 0
3, 12600, Note_on_c, 1, 61, 0
3, 12600, Note_on_c, 1, 45, 68
3, 12600, Note_on_c, 1, 61, 58
3, 12690, Note_on_c, 1, 61, 0
3, 12690, Note_on_c, 1, 61, 58
3, 12705, Note_on_c, 1, 45, 0
3, 12705, Note_on_c, 1, 45, 89
3, 12720, Note_on_c, 1, 45, 0
3, 12720, Note_on_c, 1, 61, 0
3, 12720, Note_on_c, 1, 44, 84
3, 12720, Note_on_c, 1, 65, 61
3, 12750, Note_on_c, 1, 65, 0
3, 12750, Note_on_c, 1, 66, 80
3, 12765, Note_on_c, 1, 44, 0
3, 12765, Note_on_c, 1, 42, 93
3, 12780, Note_on_c, 1, 42, 0
3, 12780, Note_on_c, 1, 66, 0
3, 12780, Note_on_c, 1, 66, 84
3, 12780, Note_on_c, 1, 57, 105
3, 12870, Note_on_c, 1, 57, 0
3, 12870, Note_on_c, 1, 66, 0
3, 12870, Note_on_c, 1, 63, 76
3, 12870, Note_on_c, 1, 57, 86
3, 12900, Note_on_c, 1, 57, 0
3, 12900, Note_on_c, 1, 63, 0
3, 12900, Note_on_c, 1, 63, 65
3, 12900, Note_on_c, 1, 57, 76
3, 12930, Note_on_c, 1, 57, 0
3, 12930, Note_on_c, 1, 63, 0
3, 12930, Note_on_c, 1, 57, 51
3, 12930, Note_on_c, 1, 63, 41
3, 12960, Note_on_c, 1, 63, 0
3, 12960, Note_on_c, 1, 57, 0
3, 12960, Note_on_c, 1, 64, 61
3, 12960, Note_on_c, 1, 56, 53
3, 13020, Note_on_c, 1, 56, 0
3, 13020, Note_on_c, 1, 64, 0
3, 13680, Note_on_c, 1, 58, 43
3, 13680, Note_on_c, 1, 61, 40
3, 14040, Note_on_c, 1, 61, 0
3, 14040, Note_on_c, 1, 58, 0
3, 14040, Note_on_c, 1, 63, 32
3, 14040, Note_on_c, 1, 59, 41
3, 14220, Note_on_c, 1, 59, 0
3, 14220, Note_on_c, 1, 63, 0
3, 14220, Note_on_c, 1, 63, 46
3, 14220, Note_on_c, 1, 57, 44
3, 14280, Note_on_c, 1, 57, 0
3, 14280, Note_on_c, 1, 63, 0
3, 14280, Note_on_c, 1, 57, 74
3, 14280, Note_on_c, 1, 63, 65
3, 14340, Note_on_c, 1, 63, 0
3, 14340, Note_on_c, 1, 57, 0
3, 14340, Note_on_c, 1, 57, 76
3, 14340, Note_on_c, 1, 63, 66
3, 14400, Note_on_c, 1, 63, 0
3, 14400, Note_on_c, 1, 57, 0
3, 14400, Note_on_c, 1, 64, 59
3, 14400, Note_on_c, 1, 56, 40
3, 14520, Note_on_c, 1, 56, 0
3, 14520, Note_on_c, 1, 64, 0
3, 15120, Note_on_c, 1, 44, 95
3, 15210, Note_on_c, 1, 44, 0
3, 15210, Note_on_c, 1, 56, 84
3, 15240, Note_on_c, 1, 56, 0
3, 15240, Note_on_c, 1, 56, 94
3, 15360, Note_on_c, 1, 56, 0
3, 15480, Note_on_c, 1, 45, 105
3, 15570, Note_on_c, 1, 45, 0
3, 15570, Note_on_c, 1, 57, 86
3, 15600, Note_on_c, 1, 57, 0
3, 15600, Note_on_c, 1, 57, 95
3, 15720, Note_on_c, 1, 57, 0
3, 15840, Note_on_c, 1, 47, 94
3, 15900, Note_on_c, 1, 47, 0
3, 18300, Note_on_c, 1, 47, 68
3, 18360, Note_on_c, 1, 47, 0
3, 18360, Note_on_c, 1, 52, 45
3, 18420, Note_on_c, 1, 52, 0
3, 19680, Note_on_c, 1, 52, 95
3, 19680, Note_on_c, 1, 40, 98
3, 19710, Note_on_c, 1, 40, 0
3, 19710, Note_on_c, 1, 52, 0
3, 19710, End_track
4, 0, Start_track
4, 0, MIDI_port, 0
4, 0, Title_t, "French Horns"
4, 0, Program_c, 2, 60
4, 0, Control_c, 2, 7, 100
4, 0, Control_c, 2, 10, 55
4, 0, Control_c, 2, 93, 0
4, 0, Control_c, 2, 91, 66
4, 2070, Note_on_c, 2, 59, 43
4, 2070, Note_on_c, 2, 47, 37
4, 2130, Note_on_c, 2, 47, 0
4, 2130, Note_on_c, 2, 59, 0
4, 2130, Note_on_c, 2, 59, 43
4, 2130, Note_on_c, 2, 47, 43
4, 2160, Note_on_c, 2, 47, 0
4, 2160, Note_on_c, 2, 59, 0
4, 2160, Note_on_c, 2, 59, 40
4, 2160, Note_on_c, 2, 47, 53
4, 2250, Note_on_c, 2, 47, 0
4, 2250, Note_on_c, 2, 59, 0
4, 2250, Note_on_c, 2, 59, 38
4, 2250, Note_on_c, 2, 47, 41
4, 2280, Note_on_c, 2, 47, 0
4, 2280, Note_on_c, 2, 59, 0
4, 2280, Note_on_c, 2, 59, 39
4, 2280, Note_on_c, 2, 47, 41
4, 2310, Note_on_c, 2, 47, 0
4, 2310, Note_on_c, 2, 59, 0
4, 2310, Note_on_c, 2, 59, 46
4, 2310, Note_on_c, 2, 47, 45
4, 2340, Note_on_c, 2, 47, 0
4, 2340, Note_on_c, 2, 59, 0
4, 2340, Note_on_c, 2, 66, 49
4, 2340, Note_on_c, 2, 59, 57
4, 2400, Note_on_c, 2, 59, 0
4, 2400, Note_on_c, 2, 66, 0
4, 2400, Note_on_c, 2, 64, 40
4, 2400, Note_on_c, 2, 56, 45
4, 2430, Note_on_c, 2, 56, 0
4, 2430, Note_on_c, 2, 64, 0
4, 2430, Note_on_c, 2, 64, 46
4, 2430, Note_on_c, 2, 52, 53
4, 2460, Note_on_c, 2, 52, 0
4, 2460, Note_on_c, 2, 64, 0
4, 2460, Note_on_c, 2, 64, 50
4, 2460, Note_on_c, 2, 52, 50
4, 2490, Note_on_c, 2, 52, 0
4, 2490, Note_on_c, 2, 64, 0
4, 2490, Note_on_c, 2, 64, 45
4, 2490, Note_on_c, 2, 52, 46
4, 2520, Note_on_c, 2, 52, 0
4, 2520, Note_on_c, 2, 64, 0
4, 2520, Note_on_c, 2, 64, 43
4, 2520, Note_on_c, 2, 52, 43
4, 2610, Note_on_c, 2, 52, 0
4, 2610, Note_on_c, 2, 64, 0
4, 2610, Note_on_c, 2, 64, 58
4, 2610, Note_on_c, 2, 52, 59
4, 2640, Note_on_c, 2, 52, 0
4, 2640, Note_on_c, 2, 64, 0
4, 2640, Note_on_c, 2, 64, 43
4, 2640, Note_on_c, 2, 52, 43
4, 2670, Note_on_c, 2, 52, 0
4, 2670, Note_on_c, 2, 64, 0
4, 2670, Note_on_c, 2, 64, 66
4, 2670, Note_on_c, 2, 52, 73
4, 2700, Note_on_c, 2, 52, 0
4, 2700, Note_on_c, 2, 64, 0
4, 2700, Note_on_c, 2, 66, 63
4, 2700, Note_on_c, 2, 64, 76
4, 2760, Note_on_c, 2, 64, 0
4, 2760, Note_on_c, 2, 66, 0
4, 2760, Note_on_c, 2, 68, 54
4, 2760, Note_on_c, 2, 64, 86
4, 2820, Note_on_c, 2, 64, 0
4, 2820, Note_on_c, 2, 68, 0
4, 2820, Note_on_c, 2, 66, 55
4, 2820, Note_on_c, 2, 59, 64
4, 2880, Note_on_c, 2, 59, 0
4, 2880, Note_on_c, 2, 66, 0
4, 2880, Note_on_c, 2, 56, 38
4, 2880, Note_on_c, 2, 64, 59
4, 3240, Note_on_c, 2, 64, 0
4, 3240, Note_on_c, 2, 56, 0
4, 3420, Note_on_c, 2, 66, 77
4, 3420, Note_on_c, 2, 59, 94
4, 3510, Note_on_c, 2, 59, 0
4, 3510, Note_on_c, 2, 66, 0
4, 3510, Note_on_c, 2, 66, 73
4, 3510, Note_on_c, 2, 59, 85
4, 3540, Note_on_c, 2, 59, 0
4, 3540, Note_on_c, 2, 66, 0
4, 3540, Note_on_c, 2, 66, 43
4, 3540, Note_on_c, 2, 59, 65
4, 3570, Note_on_c, 2, 59, 0
4, 3570, Note_on_c, 2, 66, 0
4, 3570, Note_on_c, 2, 66, 39
4, 3570, Note_on_c, 2, 59, 53
4, 3600, Note_on_c, 2, 59, 0
4, 3600, Note_on_c, 2, 66, 0
4, 3600, Note_on_c, 2, 64, 68
4, 3600, Note_on_c, 2, 56, 62
4, 3630, Note_on_c, 2, 56, 0
4, 3630, Note_on_c, 2, 64, 0
4, 3630, Note_on_c, 2, 68, 46
4, 3630, Note_on_c, 2, 64, 73
4, 3660, Note_on_c, 2, 64, 0
4, 3660, Note_on_c, 2, 68, 0
4, 3660, Note_on_c, 2, 66, 73
4, 3660, Note_on_c, 2, 59, 99
4, 3750, Note_on_c, 2, 59, 0
4, 3750, Note_on_c, 2, 66, 0
4, 3750, Note_on_c, 2, 66, 43
4, 3750, Note_on_c, 2, 59, 70
4, 3780, Note_on_c, 2, 59, 0
4, 3780, Note_on_c, 2, 66, 0
4, 3780, Note_on_c, 2, 64, 53
4, 3780, Note_on_c, 2, 56, 55
4, 3810, Note_on_c, 2, 56, 0
4, 3810, Note_on_c, 2, 64, 0
4, 3810, Note_on_c, 2, 68, 43
4, 3810, Note_on_c, 2, 64, 72
4, 3840, Note_on_c, 2, 64, 0
4, 3840, Note_on_c, 2, 68, 0
4, 3840, Note_on_c, 2, 66, 72
4, 3840, Note_on_c, 2, 59, 95
4, 3930, Note_on_c, 2, 59, 0
4, 3930, Note_on_c, 2, 66, 0
4, 3930, Note_on_c, 2, 66, 42
4, 3930, Note_on_c, 2, 59, 65
4, 3960, Note_on_c, 2, 59, 0
4, 3960, Note_on_c, 2, 66, 0
4, 3960, Note_on_c, 2, 64, 81
4, 3960, Note_on_c, 2, 56, 89
4, 3990, Note_on_c, 2, 56, 0
4, 3990, Note_on_c, 2, 64, 0
4, 4020, Note_on_c, 2, 71, 76
4, 4020, Note_on_c, 2, 59, 84
4, 4050, Note_on_c, 2, 59, 0
4, 4050, Note_on_c, 2, 71, 0
4, 4080, Note_on_c, 2, 68, 84
4, 4080, Note_on_c, 2, 56, 95
4, 4110, Note_on_c, 2, 56, 0
4, 4110, Note_on_c, 2, 68, 0
4, 4140, Note_on_c, 2, 64, 80
4, 4140, Note_on_c, 2, 52, 93
4, 4200, Note_on_c, 2, 52, 0
4, 4200, Note_on_c, 2, 64, 0
4, 5610, Note_on_c, 2, 66, 45
4, 5633, Note_on_c, 2, 66, 0
4, 5640, Note_on_c, 2, 66, 53
4, 5663, Note_on_c, 2, 66, 0
4, 5670, Note_on_c, 2, 66, 66
4, 5693, Note_on_c, 2, 66, 0
4, 5700, Note_on_c, 2, 66, 61
4, 5723, Note_on_c, 2, 66, 0
4, 5730, Note_on_c, 2, 66, 48
4, 5753, Note_on_c, 2, 66, 0
4, 5760, Note_on_c, 2, 66, 89
4, 5850, Note_on_c, 2, 66, 0
4, 5850, Note_on_c, 2, 66, 64
4, 5873, Note_on_c, 2, 66, 0
4, 5880, Note_on_c, 2, 66, 77
4, 5903, Note_on_c, 2, 66, 0
4, 5910, Note_on_c, 2, 66, 55
4, 5933, Note_on_c, 2, 66, 0
4, 5940, Note_on_c, 2, 66, 73
4, 5970, Note_on_c, 2, 66, 0
4, 5970, Note_on_c, 2, 66, 64
4, 6000, Note_on_c, 2, 66, 0
4, 6000, Note_on_c, 2, 66, 65
4, 6030, Note_on_c, 2, 66, 0
4, 10080, Note_on_c, 2, 68, 57
4, 10080, Note_on_c, 2, 64, 67
4, 10170, Note_on_c, 2, 64, 0
4, 10170, Note_on_c, 2, 68, 0
4, 10170, Note_on_c, 2, 68, 74
4, 10192, Note_on_c, 2, 68, 0
4, 10200, Note_on_c, 2, 68, 86
4, 10222, Note_on_c, 2, 68, 0
4, 10230, Note_on_c, 2, 68, 93
4, 10252, Note_on_c, 2, 68, 0
4, 10260, Note_on_c, 2, 66, 94
4, 10320, Note_on_c, 2, 66, 0
4, 10320, Note_on_c, 2, 66, 70
4, 10380, Note_on_c, 2, 66, 0
4, 11430, Note_on_c, 2, 59, 65
4, 11430, Note_on_c, 2, 47, 68
4, 11490, Note_on_c, 2, 47, 0
4, 11490, Note_on_c, 2, 59, 0
4, 11490, Note_on_c, 2, 47, 66
4, 11490, Note_on_c, 2, 59, 62
4, 11520, Note_on_c, 2, 59, 0
4, 11520, Note_on_c, 2, 47, 0
4, 11520, Note_on_c, 2, 59, 62
4, 11520, Note_on_c, 2, 47, 65
4, 11610, Note_on_c, 2, 47, 0
4, 11610, Note_on_c, 2, 59, 0
4, 11610, Note_on_c, 2, 59, 60
4, 11610, Note_on_c, 2, 47, 65
4, 11640, Note_on_c, 2, 47, 0
4, 11640, Note_on_c, 2, 59, 0
4, 11640, Note_on_c, 2, 59, 65
4, 11640, Note_on_c, 2, 47, 64
4, 11670, Note_on_c, 2, 47, 0
4, 11670, Note_on_c, 2, 59, 0
4, 11670, Note_on_c, 2, 47, 70
4, 11670, Note_on_c, 2, 59, 63
4, 11700, Note_on_c, 2, 59, 0
4, 11700, Note_on_c, 2, 47, 0
4, 11700, Note_on_c, 2, 66, 45
4, 11700, Note_on_c, 2, 59, 72
4, 11760, Note_on_c, 2, 59, 0
4, 11760, Note_on_c, 2, 66, 0
4, 11760, Note_on_c, 2, 64, 66
4, 11760, Note_on_c, 2, 56, 72
4, 11790, Note_on_c, 2, 56, 0
4, 11790, Note_on_c, 2, 64, 0
4, 11790, Note_on_c, 2, 52, 72
4, 11790, Note_on_c, 2, 64, 62
4, 11820, Note_on_c, 2, 64, 0
4, 11820, Note_on_c, 2, 52, 0
4, 11820, Note_on_c, 2, 52, 50
4, 11820, Note_on_c, 2, 64, 58
4, 11850, Note_on_c, 2, 64, 0
4, 11850, Note_on_c, 2, 52, 0
4, 11850, Note_on_c, 2, 52, 64
4, 11850, Note_on_c, 2, 64, 62
4, 11880, Note_on_c, 2, 64, 0
4, 11880, Note_on_c, 2, 52, 0
4, 11880, Note_on_c, 2, 64, 49
4, 11880, Note_on_c, 2, 52, 63
4, 11940, Note_on_c, 2, 52, 0
4, 11940, Note_on_c, 2, 64, 0
4, 11970, Note_on_c, 2, 52, 77
4, 11970, Note_on_c, 2, 64, 74
4, 12000, Note_on_c, 2, 64, 0
4, 12000, Note_on_c, 2, 52, 0
4, 12000, Note_on_c, 2, 52, 76
4, 12000, Note_on_c, 2, 64, 68
4, 12030, Note_on_c, 2, 64, 0
4, 12030, Note_on_c, 2, 52, 0
4, 12030, Note_on_c, 2, 52, 85
4, 12030, Note_on_c, 2, 64, 80
4, 12060, Note_on_c, 2, 64, 0
4, 12060, Note_on_c, 2, 52, 0
4, 12060, Note_on_c, 2, 66, 72
4, 12060, Note_on_c, 2, 64, 78
4, 12120, Note_on_c, 2, 64, 0
4, 12120, Note_on_c, 2, 66, 0
4, 12120, Note_on_c, 2, 68, 67
4, 12120, Note_on_c, 2, 64, 94
4, 12180, Note_on_c, 2, 64, 0
4, 12180, Note_on_c, 2, 68, 0
4, 12180, Note_on_c, 2, 59, 85
4, 12180, Note_on_c, 2, 66, 68
4, 12240, Note_on_c, 2, 66, 0
4, 12240, Note_on_c, 2, 59, 0
4, 12240, Note_on_c, 2, 64, 57
4, 12240, Note_on_c, 2, 56, 39
4, 12600, Note_on_c, 2, 56, 0
4, 12600, Note_on_c, 2, 64, 0
4, 12780, Note_on_c, 2, 66, 72
4, 12780, Note_on_c, 2, 59, 94
4, 12870, Note_on_c, 2, 59, 0
4, 12870, Note_on_c, 2, 66, 0
4, 12870, Note_on_c, 2, 66, 71
4, 12870, Note_on_c, 2, 59, 86
4, 12900, Note_on_c, 2, 59, 0
4, 12900, Note_on_c, 2, 66, 0
4, 12900, Note_on_c, 2, 66, 48
4, 12900, Note_on_c, 2, 59, 72
4, 12930, Note_on_c, 2, 59, 0
4, 12930, Note_on_c, 2, 66, 0
4, 12930, Note_on_c, 2, 59, 64
4, 12930, Note_on_c, 2, 66, 45
4, 12960, Note_on_c, 2, 66, 0
4, 12960, Note_on_c, 2, 59, 0
4, 12960, Note_on_c, 2, 64, 58
4, 12960, Note_on_c, 2, 56, 56
4, 13020, Note_on_c, 2, 56, 0
4, 13020, Note_on_c, 2, 64, 0
4, 14040, Note_on_c, 2, 66, 43
4, 14040, Note_on_c, 2, 59, 45
4, 14220, Note_on_c, 2, 59, 0
4, 14220, Note_on_c, 2, 66, 0
4, 14220, Note_on_c, 2, 66, 47
4, 14220, Note_on_c, 2, 59, 72
4, 14280, Note_on_c, 2, 59, 0
4, 14280, Note_on_c, 2, 66, 0
4, 14280, Note_on_c, 2, 66, 62
4, 14280, Note_on_c, 2, 59, 80
4, 14340, Note_on_c, 2, 59, 0
4, 14340, Note_on_c, 2, 66, 0
4, 14340, Note_on_c, 2, 59, 82
4, 14340, Note_on_c, 2, 66, 60
4, 14400, Note_on_c, 2, 66, 0
4, 14400, Note_on_c, 2, 59, 0
4, 14400, Note_on_c, 2, 68, 43
4, 14400, Note_on_c, 2, 64, 72
4, 14520, Note_on_c, 2, 64, 0
4, 14520, Note_on_c, 2, 68, 0
4, 15120, Note_on_c, 2, 64, 80
4, 15120, Note_on_c, 2, 52, 90
4, 15210, Note_on_c, 2, 52, 0
4, 15210, Note_on_c, 2, 64, 0
4, 15210, Note_on_c, 2, 64, 84
4, 15210, Note_on_c, 2, 52, 90
4, 15240, Note_on_c, 2, 52, 0
4, 15240, Note_on_c, 2, 64, 0
4, 15240, Note_on_c, 2, 64, 89
4, 15240, Note_on_c, 2, 52, 94
4, 15360, Note_on_c, 2, 52, 0
4, 15360, Note_on_c, 2, 64, 0
4, 15480, Note_on_c, 2, 64, 86
4, 15480, Note_on_c, 2, 52, 94
4, 15570, Note_on_c, 2, 52, 0
4, 15570, Note_on_c, 2, 64, 0
4, 15570, Note_on_c, 2, 52, 99
4, 15570, Note_on_c, 2, 64, 94
4, 15600, Note_on_c, 2, 64, 0
4, 15600, Note_on_c, 2, 52, 0
4, 15600, Note_on_c, 2, 52, 95
4, 15600, Note_on_c, 2, 64, 90
4, 15720, Note_on_c, 2, 64, 0
4, 15720, Note_on_c, 2, 52, 0
4, 15840, Note_on_c, 2, 52, 99
4, 15900, Note_on_c, 2, 52, 0
4, 18300, Note_on_c, 2, 66, 57
4, 18300, Note_on_c, 2, 59, 72
4, 18360, Note_on_c, 2, 59, 0
4, 18360, Note_on_c, 2, 66, 0
4, 18360, Note_on_c, 2, 64, 43
4, 18360, Note_on_c, 2, 56, 30
4, 18420, Note_on_c, 2, 56, 0
4, 18420, Note_on_c, 2, 64, 0
4, 18780, Note_on_c, 2, 52, 44
4, 18780, Note_on_c, 2, 40, 43
4, 18802, Note_on_c, 2, 40, 0
4, 18802, Note_on_c, 2, 52, 0
4, 18810, Note_on_c, 2, 52, 45
4, 18810, Note_on_c, 2, 40, 41
4, 18832, Note_on_c, 2, 40, 0
4, 18832, Note_on_c, 2, 52, 0
4, 18840, Note_on_c, 2, 52, 46
4, 18840, Note_on_c, 2, 40, 43
4, 18862, Note_on_c, 2, 40, 0
4, 18862, Note_on_c, 2, 52, 0
4, 18870, Note_on_c, 2, 52, 45
4, 18870, Note_on_c, 2, 40, 45
4, 18892, Note_on_c, 2, 40, 0
4, 18892, Note_on_c, 2, 52, 0
4, 18900, Note_on_c, 2, 52, 42
4, 18900, Note_on_c, 2, 40, 46
4, 18922, Note_on_c, 2, 40, 0
4, 18922, Note_on_c, 2, 52, 0
4, 18930, Note_on_c, 2, 52, 49
4, 18930, Note_on_c, 2, 40, 49
4, 18952, Note_on_c, 2, 40, 0
4, 18952, Note_on_c, 2, 52, 0
4, 18960, Note_on_c, 2, 52, 52
4, 18960, Note_on_c, 2, 40, 44
4, 18982, Note_on_c, 2, 40, 0
4, 18982, Note_on_c, 2, 52, 0
4, 18990, Note_on_c, 2, 52, 46
4, 18990, Note_on_c, 2, 40, 48
4, 19012, Note_on_c, 2, 40, 0
4, 19012, Note_on_c, 2, 52, 0
4, 19020, Note_on_c, 2, 52, 54
4, 19020, Note_on_c, 2, 40, 43
4, 19042, Note_on_c, 2, 40, 0
4, 19042, Note_on_c, 2, 52, 0
4, 19050, Note_on_c, 2, 52, 52
4, 19050, Note_on_c, 2, 40, 43
4, 19072, Note_on_c, 2, 40, 0
4, 19072, Note_on_c, 2, 52, 0
4, 19080, Note_on_c, 2, 52, 43
4, 19080, Note_on_c, 2, 40, 40
4, 19140, Note_on_c, 2, 40, 0
4, 19140, Note_on_c, 2, 52, 0
4, 19260, Note_on_c, 2, 64, 43
4, 19260, Note_on_c, 2, 52, 43
4, 19500, Note_on_c, 2, 52, 0
4, 19500, Note_on_c, 2, 64, 0
4, 19500, Note_on_c, 2, 71, 43
4, 19500, Note_on_c, 2, 59, 43
4, 19560, Note_on_c, 2, 59, 0
4, 19560, Note_on_c, 2, 71, 0
4, 19560, Note_on_c, 2, 68, 49
4, 19560, Note_on_c, 2, 56, 42
4, 19620, Note_on_c, 2, 56, 0
4, 19620, Note_on_c, 2, 68, 0
4, 19620, Note_on_c, 2, 64, 44
4, 19620, Note_on_c, 2, 52, 45
4, 19680, Note_on_c, 2, 52, 0
4, 19680, Note_on_c, 2, 64, 0
4, 19680, Note_on_c, 2, 56, 119
4, 19680, Note_on_c, 2, 64, 125
4, 19710, Note_on_c, 2, 64, 0
4, 19710, Note_on_c, 2, 56, 0
4, 19710, End_track
5, 0, Start_track
5, 0, MIDI_port, 0
5, 0, Title_t, "Piano"
5, 0, Program_c, 3, 0
5, 0, Control_c, 3, 7, 100
5, 0, Control_c, 3, 10, 64
5, 0, Control_c, 3, 93, 0
5, 0, Control_c, 3, 91, 66
5, 0, Control_c, 3, 64, 96
5, 0, Note_on_c, 3, 68, 41
5, 0, Note_on_c, 3, 64, 44
5, 0, Note_on_c, 3, 59, 38
5, 0, Note_on_c, 3, 52, 33
5, 0, Note_on_c, 3, 47, 42
5, 0, Note_on_c, 3, 40, 36
5, 120, Note_on_c, 3, 40, 0
5, 120, Note_on_c, 3, 64, 0
5, 120, Note_on_c, 3, 59, 0
5, 120, Note_on_c, 3, 68, 0
5, 120, Note_on_c, 3, 47, 0
5, 120, Note_on_c, 3, 52, 0
5, 120, Note_on_c, 3, 69, 31
5, 120, Note_on_c, 3, 66, 30
5, 120, Note_on_c, 3, 59, 29
5, 120, Note_on_c, 3, 51, 29
5, 120, Note_on_c, 3, 47, 29
5, 120, Note_on_c, 3, 39, 33
5, 165, Note_on_c, 3, 39, 0
5, 165, Note_on_c, 3, 66, 0
5, 165, Note_on_c, 3, 59, 0
5, 165, Note_on_c, 3, 69, 0
5, 165, Note_on_c, 3, 47, 0
5, 165, Note_on_c, 3, 51, 0
5, 165, Note_on_c, 3, 68, 32
5, 165, Note_on_c, 3, 64, 40
5, 165, Note_on_c, 3, 59, 32
5, 165, Note_on_c, 3, 52, 40
5, 165, Note_on_c, 3, 47, 51
5, 165, Note_on_c, 3, 40, 38
5, 180, Note_on_c, 3, 40, 0
5, 180, Note_on_c, 3, 64, 0
5, 180, Note_on_c, 3, 59, 0
5, 180, Note_on_c, 3, 68, 0
5, 180, Note_on_c, 3, 47, 0
5, 180, Note_on_c, 3, 52, 0
5, 180, Note_on_c, 3, 68, 40
5, 180, Note_on_c, 3, 63, 29
5, 180, Note_on_c, 3, 57, 34
5, 180, Note_on_c, 3, 47, 36
5, 180, Note_on_c, 3, 35, 42
5, 202, Note_on_c, 3, 68, 0
5, 202, Note_on_c, 3, 66, 40
5, 209, Note_on_c, 3, 66, 0
5, 209, Note_on_c, 3, 64, 39
5, 224, Note_on_c, 3, 64, 0
5, 224, Note_on_c, 3, 68, 43
5, 231, Note_on_c, 3, 68, 0
5, 231, Note_on_c, 3, 66, 41
5, 238, Note_on_c, 3, 66, 0
5, 240, Note_on_c, 3, 47, 0
5, 240, Note_on_c, 3, 63, 0
5, 240, Note_on_c, 3, 57, 0
5, 240, Note_on_c, 3, 35, 0
5, 240, Note_on_c, 3, 64, 44
5, 240, Note_on_c, 3, 61, 40
5, 240, Note_on_c, 3, 56, 38
5, 240, Note_on_c, 3, 49, 41
5, 240, Note_on_c, 3, 37, 35
5, 330, Note_on_c, 3, 64, 0
5, 330, Note_on_c, 3, 64, 43
5, 360, Note_on_c, 3, 64, 0
5, 360, Note_on_c, 3, 37, 0
5, 360, Note_on_c, 3, 61, 0
5, 360, Note_on_c, 3, 56, 0
5, 360, Note_on_c, 3, 49, 0
5, 360, Note_on_c, 3, 66, 29
5, 360, Note_on_c, 3, 61, 44
5, 360, Note_on_c, 3, 54, 29
5, 360, Note_on_c, 3, 45, 43
5, 360, Note_on_c, 3, 33, 43
5, 420, Note_on_c, 3, 33, 0
5, 420, Note_on_c, 3, 54, 0
5, 420, Note_on_c, 3, 66, 0
5, 420, Note_on_c, 3, 61, 0
5, 420, Note_on_c, 3, 45, 0
5, 420, Note_on_c, 3, 66, 29
5, 420, Note_on_c, 3, 61, 40
5, 420, Note_on_c, 3, 54, 34
5, 420, Note_on_c, 3, 45, 32
5, 420, Note_on_c, 3, 33, 37
5, 435, Note_on_c, 3, 33, 0
5, 435, Note_on_c, 3, 54, 0
5, 435, Note_on_c, 3, 66, 0
5, 435, Note_on_c, 3, 61, 0
5, 435, Note_on_c, 3, 45, 0
5, 450, Note_on_c, 3, 66, 43
5, 450, Note_on_c, 3, 61, 65
5, 450, Note_on_c, 3, 54, 52
5, 450, Note_on_c, 3, 45, 40
5, 450, Note_on_c, 3, 33, 43
5, 465, Note_on_c, 3, 33, 0
5, 465, Note_on_c, 3, 54, 0
5, 465, Note_on_c, 3, 66, 0
5, 465, Note_on_c, 3, 61, 0
5, 465, Note_on_c, 3, 45, 0
5, 480, Note_on_c, 3, 66, 35
5, 480, Note_on_c, 3, 61, 43
5, 480, Note_on_c, 3, 54, 33
5, 480, Note_on_c, 3, 45, 44
5, 480, Note_on_c, 3, 33, 49
5, 495, Note_on_c, 3, 33, 0
5, 495, Note_on_c, 3, 54, 0
5, 495, Note_on_c, 3, 66, 0
5, 495, Note_on_c, 3, 61, 0
5, 495, Note_on_c, 3, 45, 0
5, 510, Note_on_c, 3, 66, 29
5, 510, Note_on_c, 3, 61, 33
5, 510, Note_on_c, 3, 54, 32
5, 510, Note_on_c, 3, 45, 37
5, 510, Note_on_c, 3, 33, 34
5, 525, Note_on_c, 3, 33, 0
5, 525, Note_on_c, 3, 54, 0
5, 525, Note_on_c, 3, 66, 0
5, 525, Note_on_c, 3, 61, 0
5, 525, Note_on_c, 3, 45, 0
5, 530, Control_c, 3, 64, 96
5, 535, Control_c, 3, 64, 48
5, 540, Note_on_c, 3, 68, 37
5, 540, Note_on_c, 3, 62, 35
5, 540, Note_on_c, 3, 60, 38
5, 540, Note_on_c, 3, 56, 39
5, 540, Control_c, 3, 64, 0
5, 540, Note_on_c, 3, 44, 32
5, 540, Note_on_c, 3, 32, 32
5, 660, Note_on_c, 3, 32, 0
5, 660, Note_on_c, 3, 62, 0
5, 660, Note_on_c, 3, 60, 0
5, 660, Note_on_c, 3, 68, 0
5, 660, Note_on_c, 3, 44, 0
5, 660, Note_on_c, 3, 56, 0
5, 660, Note_on_c, 3, 68, 40
5, 720, Note_on_c, 3, 68, 0
5, 720, Control_c, 3, 64, 96
5, 720, Note_on_c, 3, 76, 29
5, 720, Note_on_c, 3, 73, 29
5, 720, Note_on_c, 3, 68, 40
5, 720, Note_on_c, 3, 64, 31
5, 720, Note_on_c, 3, 61, 44
5, 720, Note_on_c, 3, 56, 45
5, 720, Note_on_c, 3, 49, 48
5, 810, Note_on_c, 3, 49, 0
5, 810, Note_on_c, 3, 61, 0
5, 810, Note_on_c, 3, 73, 0
5, 810, Note_on_c, 3, 68, 0
5, 810, Note_on_c, 3, 76, 0
5, 810, Note_on_c, 3, 56, 0
5, 810, Note_on_c, 3, 64, 0
5, 810, Note_on_c, 3, 76, 29
5, 810, Note_on_c, 3, 73, 29
5, 810, Note_on_c, 3, 68, 33
5, 810, Note_on_c, 3, 64, 35
5, 810, Note_on_c, 3, 61, 29
5, 810, Note_on_c, 3, 56, 29
5, 810, Note_on_c, 3, 49, 29
5, 825, Note_on_c, 3, 49, 0
5, 825, Note_on_c, 3, 61, 0
5, 825, Note_on_c, 3, 73, 0
5, 825, Note_on_c, 3, 68, 0
5, 825, Note_on_c, 3, 76, 0
5, 825, Note_on_c, 3, 56, 0
5, 825, Note_on_c, 3, 64, 0
5, 840, Note_on_c, 3, 76, 29
5, 840, Note_on_c, 3, 73, 29
5, 840, Note_on_c, 3, 68, 35
5, 840, Note_on_c, 3, 64, 29
5, 840, Note_on_c, 3, 61, 32
5, 840, Note_on_c, 3, 56, 29
5, 840, Note_on_c, 3, 49, 40
5, 855, Note_on_c, 3, 49, 0
5, 855, Note_on_c, 3, 61, 0
5, 855, Note_on_c, 3, 73, 0
5, 855, Note_on_c, 3, 68, 0
5, 855, Note_on_c, 3, 76, 0
5, 855, Note_on_c, 3, 56, 0
5, 855, Note_on_c, 3, 64, 0
5, 870, Note_on_c, 3, 76, 40
5, 870, Note_on_c, 3, 73, 29
5, 870, Note_on_c, 3, 68, 38
5, 870, Note_on_c, 3, 64, 35
5, 870, Note_on_c, 3, 59, 29
5, 870, Note_on_c, 3, 56, 39
5, 870, Note_on_c, 3, 47, 42
5, 885, Note_on_c, 3, 47, 0
5, 885, Note_on_c, 3, 59, 0
5, 885, Note_on_c, 3, 73, 0
5, 885, Note_on_c, 3, 68, 0
5, 885, Note_on_c, 3, 76, 0
5, 885, Note_on_c, 3, 56, 0
5, 885, Note_on_c, 3, 64, 0
5, 900, Note_on_c, 3, 46, 43
5, 904, Note_on_c, 3, 46, 0
5, 904, Note_on_c, 3, 54, 32
5, 908, Note_on_c, 3, 54, 0
5, 908, Note_on_c, 3, 58, 43
5, 912, Note_on_c, 3, 58, 0
5, 912, Note_on_c, 3, 64, 52
5, 916, Note_on_c, 3, 64, 0
5, 916, Note_on_c, 3, 66, 57
5, 920, Note_on_c, 3, 66, 0
5, 920, Note_on_c, 3, 73, 44
5, 924, Note_on_c, 3, 73, 0
5, 924, Note_on_c, 3, 76, 45
5, 928, Note_on_c, 3, 76, 0
5, 960, Note_on_c, 3, 47, 38
5, 964, Note_on_c, 3, 47, 0
5, 964, Note_on_c, 3, 54, 36
5, 968, Note_on_c, 3, 54, 0
5, 968, Note_on_c, 3, 59, 40
5, 972, Note_on_c, 3, 59, 0
5, 972, Note_on_c, 3, 63, 36
5, 976, Note_on_c, 3, 63, 0
5, 976, Note_on_c, 3, 66, 29
5, 980, Note_on_c, 3, 66, 0
5, 980, Note_on_c, 3, 71, 56
5, 984, Note_on_c, 3, 71, 0
5, 984, Note_on_c, 3, 75, 38
5, 988, Note_on_c, 3, 75, 0
5, 1020, Control_c, 3, 64, 95
5, 1025, Control_c, 3, 64, 76
5, 1030, Control_c, 3, 64, 57
5, 1035, Control_c, 3, 64, 38
5, 1040, Control_c, 3, 64, 19
5, 1045, Control_c, 3, 64, 0
5, 1050, Note_on_c, 3, 75, 43
5, 1080, Note_on_c, 3, 75, 0
5, 1080, Note_on_c, 3, 73, 34
5, 1080, Note_on_c, 3, 68, 35
5, 1080, Note_on_c, 3, 64, 41
5, 1080, Note_on_c, 3, 52, 40
5, 1095, Note_on_c, 3, 73, 0
5, 1095, Note_on_c, 3, 80, 32
5, 1110, Note_on_c, 3, 80, 0
5, 1110, Note_on_c, 3, 76, 42
5, 1125, Note_on_c, 3, 76, 0
5, 1125, Note_on_c, 3, 73, 60
5, 1140, Note_on_c, 3, 73, 0
5, 1140, Note_on_c, 3, 52, 0
5, 1140, Note_on_c, 3, 64, 0
5, 1140, Note_on_c, 3, 68, 0
5, 1140, Note_on_c, 3, 71, 45
5, 1140, Note_on_c, 3, 66, 33
5, 1140, Note_on_c, 3, 63, 33
5, 1140, Note_on_c, 3, 54, 33
5, 1200, Note_on_c, 3, 54, 0
5, 1200, Note_on_c, 3, 63, 0
5, 1200, Note_on_c, 3, 66, 0
5, 1200, Note_on_c, 3, 64, 43
5, 1200, Note_on_c, 3, 61, 38
5, 1200, Note_on_c, 3, 54, 38
5, 1215, Note_on_c, 3, 71, 0
5, 1215, Note_on_c, 3, 70, 47
5, 1222, Note_on_c, 3, 70, 0
5, 1222, Note_on_c, 3, 71, 43
5, 1229, Note_on_c, 3, 71, 0
5, 1229, Note_on_c, 3, 73, 42
5, 1236, Note_on_c, 3, 73, 0
5, 1236, Note_on_c, 3, 75, 43
5, 1243, Note_on_c, 3, 75, 0
5, 1243, Note_on_c, 3, 76, 61
5, 1250, Note_on_c, 3, 76, 0
5, 1250, Note_on_c, 3, 70, 45
5, 1257, Note_on_c, 3, 70, 0
5, 1260, Note_on_c, 3, 64, 0
5, 1260, Note_on_c, 3, 61, 0
5, 1260, Note_on_c, 3, 54, 0
5, 1260, Note_on_c, 3, 73, 43
5, 1260, Note_on_c, 3, 64, 43
5, 1260, Note_on_c, 3, 56, 29
5, 1260, Note_on_c, 3, 54, 30
5, 1260, Note_on_c, 3, 47, 41
5, 1290, Note_on_c, 3, 64, 0
5, 1290, Note_on_c, 3, 63, 44
5, 1297, Note_on_c, 3, 64, 50
5, 1298, Note_on_c, 3, 63, 0
5, 1305, Note_on_c, 3, 64, 0
5, 1305, Note_on_c, 3, 66, 45
5, 1312, Note_on_c, 3, 64, 50
5, 1313, Note_on_c, 3, 66, 0
5, 1320, Note_on_c, 3, 56, 0
5, 1320, Note_on_c, 3, 73, 0
5, 1320, Note_on_c, 3, 64, 0
5, 1320, Note_on_c, 3, 71, 38
5, 1320, Note_on_c, 3, 63, 37
5, 1320, Note_on_c, 3, 59, 29
5, 1350, Note_on_c, 3, 59, 0
5, 1350, Note_on_c, 3, 71, 0
5, 1350, Note_on_c, 3, 47, 0
5, 1350, Note_on_c, 3, 54, 0
5, 1350, Note_on_c, 3, 63, 0
5, 1372, Note_on_c, 3, 70, 56
5, 1376, Control_c, 3, 64, 95
5, 1380, Note_on_c, 3, 70, 0
5, 1380, Note_on_c, 3, 71, 43
5, 1402, Note_on_c, 3, 70, 36
5, 1410, Note_on_c, 3, 70, 0
5, 1410, Note_on_c, 3, 71, 0
5, 1410, Note_on_c, 3, 71, 36
5, 1440, Note_on_c, 3, 71, 0
5, 1440, Note_on_c, 3, 71, 44
5, 1440, Note_on_c, 3, 62, 39
5, 1440, Note_on_c, 3, 59, 39
5, 1440, Note_on_c, 3, 55, 30
5, 1440, Note_on_c, 3, 50, 35
5, 1440, Note_on_c, 3, 43, 33
5, 1530, Note_on_c, 3, 71, 0
5, 1530, Note_on_c, 3, 71, 41
5, 1545, Note_on_c, 3, 71, 0
5, 1545, Note_on_c, 3, 71, 51
5, 1560, Note_on_c, 3, 71, 0
5, 1560, Note_on_c, 3, 59, 0
5, 1560, Note_on_c, 3, 55, 0
5, 1560, Note_on_c, 3, 62, 0
5, 1560, Note_on_c, 3, 43, 0
5, 1560, Note_on_c, 3, 50, 0
5, 1560, Note_on_c, 3, 71, 46
5, 1560, Note_on_c, 3, 60, 38
5, 1560, Note_on_c, 3, 50, 39
5, 1560, Note_on_c, 3, 38, 38
5, 1575, Note_on_c, 3, 71, 0
5, 1575, Note_on_c, 3, 69, 43
5, 1590, Note_on_c, 3, 69, 0
5, 1590, Note_on_c, 3, 74, 53
5, 1605, Note_on_c, 3, 74, 0
5, 1605, Note_on_c, 3, 66, 43
5, 1620, Note_on_c, 3, 66, 0
5, 1620, Note_on_c, 3, 38, 0
5, 1620, Note_on_c, 3, 50, 0
5, 1620, Note_on_c, 3, 60, 0
5, 1620, Note_on_c, 3, 69, 42
5, 1620, Note_on_c, 3, 59, 43
5, 1620, Note_on_c, 3, 52, 43
5, 1620, Note_on_c, 3, 47, 36
5, 1620, Note_on_c, 3, 40, 35
5, 1650, Note_on_c, 3, 69, 0
5, 1650, Note_on_c, 3, 67, 32
5, 1710, Note_on_c, 3, 67, 0
5, 1710, Note_on_c, 3, 67, 38
5, 1725, Note_on_c, 3, 67, 0
5, 1725, Note_on_c, 3, 67, 43
5, 1740, Note_on_c, 3, 67, 0
5, 1740, Note_on_c, 3, 40, 0
5, 1740, Note_on_c, 3, 59, 0
5, 1740, Note_on_c, 3, 52, 0
5, 1740, Note_on_c, 3, 47, 0
5, 1740, Note_on_c, 3, 67, 43
5, 1740, Note_on_c, 3, 57, 45
5, 1740, Note_on_c, 3, 47, 50
5, 1740, Note_on_c, 3, 35, 40
5, 1755, Note_on_c, 3, 67, 0
5, 1755, Note_on_c, 3, 66, 39
5, 1770, Note_on_c, 3, 66, 0
5, 1770, Note_on_c, 3, 71, 48
5, 1785, Note_on_c, 3, 71, 0
5, 1785, Note_on_c, 3, 63, 43
5, 1786, Control_c, 3, 64, 91
5, 1790, Control_c, 3, 64, 61
5, 1793, Control_c, 3, 64, 31
5, 1796, Control_c, 3, 64, 0
5, 1800, Note_on_c, 3, 63, 0
5, 1800, Note_on_c, 3, 35, 0
5, 1800, Note_on_c, 3, 47, 0
5, 1800, Note_on_c, 3, 57, 0
5, 1800, Control_c, 3, 64, 95
5, 1800, Note_on_c, 3, 64, 73
5, 1800, Note_on_c, 3, 36, 105
5, 1815, Note_on_c, 3, 36, 0
5, 1830, Note_on_c, 3, 64, 0
5, 1830, Note_on_c, 3, 79, 49
5, 1830, Note_on_c, 3, 64, 43
5, 1833, Note_on_c, 3, 48, 57
5, 1834, Note_on_c, 3, 64, 0
5, 1837, Note_on_c, 3, 48, 0
5, 1837, Note_on_c, 3, 64, 43
5, 1840, Note_on_c, 3, 48, 57
5, 1841, Note_on_c, 3, 64, 0
5, 1844, Note_on_c, 3, 48, 0
5, 1844, Note_on_c, 3, 64, 43
5, 1847, Note_on_c, 3, 48, 43
5, 1848, Note_on_c, 3, 64, 0
5, 1851, Note_on_c, 3, 48, 0
5, 1851, Note_on_c, 3, 64, 44
5, 1854, Note_on_c, 3, 48, 65
5, 1855, Note_on_c, 3, 64, 0
5, 1858, Note_on_c, 3, 48, 0
5, 1860, Note_on_c, 3, 64, 42
5, 1863, Note_on_c, 3, 48, 38
5, 1864, Note_on_c, 3, 64, 0
5, 1867, Note_on_c, 3, 48, 0
5, 1867, Note_on_c, 3, 64, 39
5, 1870, Note_on_c, 3, 48, 43
5, 1871, Note_on_c, 3, 64, 0
5, 1874, Note_on_c, 3, 48, 0
5, 1874, Note_on_c, 3, 64, 43
5, 1877, Note_on_c, 3, 48, 40
5, 1878, Note_on_c, 3, 64, 0
5, 1881, Note_on_c, 3, 48, 0
5, 1881, Note_on_c, 3, 64, 42
5, 1884, Note_on_c, 3, 48, 44
5, 1885, Note_on_c, 3, 64, 0
5, 1888, Note_on_c, 3, 48, 0
5, 1888, Note_on_c, 3, 64, 43
5, 1890, Note_on_c, 3, 79, 0
5, 1890, Note_on_c, 3, 79, 62
5, 1891, Note_on_c, 3, 48, 43
5, 1892, Note_on_c, 3, 64, 0
5, 1895, Note_on_c, 3, 48, 0
5, 1895, Note_on_c, 3, 64, 40
5, 1898, Note_on_c, 3, 48, 43
5, 1899, Note_on_c, 3, 64, 0
5, 1900, Note_on_c, 3, 79, 0
5, 1900, Note_on_c, 3, 78, 76
5, 1902, Note_on_c, 3, 48, 0
5, 1902, Note_on_c, 3, 64, 40
5, 1905, Note_on_c, 3, 48, 45
5, 1906, Note_on_c, 3, 64, 0
5, 1909, Note_on_c, 3, 48, 0
5, 1909, Note_on_c, 3, 64, 44
5, 1910, Note_on_c, 3, 78, 0
5, 1910, Note_on_c, 3, 76, 64
5, 1912, Note_on_c, 3, 48, 65
5, 1913, Note_on_c, 3, 64, 0
5, 1916, Note_on_c, 3, 48, 0
5, 1920, Note_on_c, 3, 76, 0
5, 1920, Note_on_c, 3, 76, 72
5, 1920, Note_on_c, 3, 64, 52
5, 1923, Note_on_c, 3, 48, 36
5, 1924, Note_on_c, 3, 64, 0
5, 1927, Note_on_c, 3, 48, 0
5, 1927, Note_on_c, 3, 64, 42
5, 1930, Note_on_c, 3, 76, 0
5, 1930, Note_on_c, 3, 74, 62
5, 1930, Note_on_c, 3, 48, 42
5, 1931, Note_on_c, 3, 64, 0
5, 1934, Note_on_c, 3, 48, 0
5, 1934, Note_on_c, 3, 64, 42
5, 1937, Note_on_c, 3, 48, 39
5, 1938, Note_on_c, 3, 64, 0
5, 1940, Note_on_c, 3, 74, 0
5, 1940, Note_on_c, 3, 72, 59
5, 1941, Note_on_c, 3, 48, 0
5, 1941, Note_on_c, 3, 64, 40
5, 1944, Note_on_c, 3, 48, 40
5, 1945, Note_on_c, 3, 64, 0
5, 1948, Note_on_c, 3, 48, 0
5, 1948, Note_on_c, 3, 64, 36
5, 1950, Note_on_c, 3, 72, 0
5, 1950, Note_on_c, 3, 72, 53
5, 1951, Note_on_c, 3, 48, 38
5, 1952, Note_on_c, 3, 64, 0
5, 1955, Note_on_c, 3, 48, 0
5, 1955, Note_on_c, 3, 64, 38
5, 1958, Note_on_c, 3, 48, 34
5, 1959, Note_on_c, 3, 64, 0
5, 1960, Note_on_c, 3, 72, 0
5, 1960, Note_on_c, 3, 71, 46
5, 1962, Note_on_c, 3, 48, 0
5, 1962, Note_on_c, 3, 64, 40
5, 1965, Note_on_c, 3, 48, 36
5, 1966, Note_on_c, 3, 64, 0
5, 1969, Note_on_c, 3, 48, 0
5, 1969, Note_on_c, 3, 64, 43
5, 1970, Note_on_c, 3, 71, 0
5, 1970, Note_on_c, 3, 70, 43
5, 1972, Note_on_c, 3, 48, 30
5, 1973, Note_on_c, 3, 64, 0
5, 1976, Note_on_c, 3, 48, 0
5, 1976, Control_c, 3, 64, 0
5, 1980, Note_on_c, 3, 70, 0
5, 1980, Note_on_c, 3, 73, 43
5, 1980, Note_on_c, 3, 70, 38
5, 1980, Note_on_c, 3, 67, 45
5, 1980, Note_on_c, 3, 64, 65
5, 1980, Note_on_c, 3, 47, 45
5, 2010, Note_on_c, 3, 47, 0
5, 2010, Note_on_c, 3, 59, 46
5, 2040, Note_on_c, 3, 67, 0
5, 2040, Note_on_c, 3, 64, 0
5, 2040, Note_on_c, 3, 73, 0
5, 2040, Note_on_c, 3, 70, 0
5, 2040, Note_on_c, 3, 71, 41
5, 2040, Note_on_c, 3, 66, 35
5, 2040, Note_on_c, 3, 63, 29
5, 2070, Note_on_c, 3, 63, 0
5, 2070, Note_on_c, 3, 59, 0
5, 2070, Note_on_c, 3, 71, 0
5, 2070, Note_on_c, 3, 66, 0
5, 4230, Note_on_c, 3, 68, 67
5, 4230, Note_on_c, 3, 64, 84
5, 4260, Note_on_c, 3, 64, 0
5, 4260, Note_on_c, 3, 68, 0
5, 4260, Note_on_c, 3, 71, 63
5, 4260, Note_on_c, 3, 68, 74
5, 4290, Note_on_c, 3, 68, 0
5, 4290, Note_on_c, 3, 71, 0
5, 4290, Note_on_c, 3, 71, 81
5, 4290, Note_on_c, 3, 76, 76
5, 4320, Note_on_c, 3, 76, 0
5, 4320, Note_on_c, 3, 71, 0
5, 4320, Note_on_c, 3, 80, 69
5, 4320, Note_on_c, 3, 76, 64
5, 4320, Note_on_c, 3, 40, 80
5, 4350, Note_on_c, 3, 40, 0
5, 4350, Note_on_c, 3, 56, 65
5, 4350, Note_on_c, 3, 52, 72
5, 4380, Note_on_c, 3, 52, 0
5, 4380, Note_on_c, 3, 80, 0
5, 4380, Note_on_c, 3, 76, 0
5, 4380, Note_on_c, 3, 56, 0
5, 4380, Note_on_c, 3, 80, 61
5, 4380, Note_on_c, 3, 76, 62
5, 4380, Note_on_c, 3, 59, 78
5, 4380, Note_on_c, 3, 56, 66
5, 4410, Note_on_c, 3, 56, 0
5, 4410, Note_on_c, 3, 59, 0
5, 4410, Note_on_c, 3, 64, 57
5, 4410, Note_on_c, 3, 59, 74
5, 4440, Note_on_c, 3, 59, 0
5, 4440, Note_on_c, 3, 64, 0
5, 4440, Note_on_c, 3, 68, 63
5, 4440, Note_on_c, 3, 64, 68
5, 4455, Note_on_c, 3, 81, 71
5, 4458, Note_on_c, 3, 80, 67
5, 4459, Note_on_c, 3, 81, 0
5, 4462, Note_on_c, 3, 80, 0
5, 4462, Note_on_c, 3, 78, 68
5, 4465, Note_on_c, 3, 80, 85
5, 4466, Note_on_c, 3, 78, 0
5, 4469, Note_on_c, 3, 80, 0
5, 4470, Note_on_c, 3, 68, 0
5, 4470, Note_on_c, 3, 76, 0
5, 4470, Note_on_c, 3, 80, 0
5, 4470, Note_on_c, 3, 64, 0
5, 4470, Note_on_c, 3, 68, 71
5, 4470, Note_on_c, 3, 71, 74
5, 4470, Note_on_c, 3, 83, 53
5, 4470, Note_on_c, 3, 80, 67
5, 4492, Note_on_c, 3, 78, 54
5, 4492, Note_on_c, 3, 81, 65
5, 4493, Note_on_c, 3, 80, 0
5, 4493, Note_on_c, 3, 83, 0
5, 4500, Note_on_c, 3, 78, 0
5, 4500, Note_on_c, 3, 68, 0
5, 4500, Note_on_c, 3, 81, 0
5, 4500, Note_on_c, 3, 71, 0
5, 4500, Note_on_c, 3, 80, 63
5, 4500, Note_on_c, 3, 76, 73
5, 4500, Note_on_c, 3, 35, 80
5, 4530, Note_on_c, 3, 35, 0
5, 4530, Note_on_c, 3, 76, 0
5, 4530, Note_on_c, 3, 80, 0
5, 4530, Note_on_c, 3, 77, 64
5, 4530, Note_on_c, 3, 74, 66
5, 4530, Note_on_c, 3, 51, 62
5, 4530, Note_on_c, 3, 47, 62
5, 4552, Note_on_c, 3, 78, 70
5, 4552, Note_on_c, 3, 75, 68
5, 4553, Note_on_c, 3, 74, 0
5, 4553, Note_on_c, 3, 77, 0
5, 4560, Note_on_c, 3, 78, 0
5, 4560, Note_on_c, 3, 47, 0
5, 4560, Note_on_c, 3, 75, 0
5, 4560, Note_on_c, 3, 51, 0
5, 4560, Note_on_c, 3, 78, 72
5, 4560, Note_on_c, 3, 75, 72
5, 4560, Note_on_c, 3, 54, 69
5, 4560, Note_on_c, 3, 51, 81
5, 4590, Note_on_c, 3, 51, 0
5, 4590, Note_on_c, 3, 78, 0
5, 4590, Note_on_c, 3, 75, 0
5, 4590, Note_on_c, 3, 54, 0
5, 4590, Note_on_c, 3, 78, 38
5, 4590, Note_on_c, 3, 75, 40
5, 4590, Note_on_c, 3, 59, 78
5, 4590, Note_on_c, 3, 54, 76
5, 4597, Note_on_c, 3, 76, 73
5, 4597, Note_on_c, 3, 73, 43
5, 4598, Note_on_c, 3, 75, 0
5, 4598, Note_on_c, 3, 78, 0
5, 4605, Note_on_c, 3, 76, 0
5, 4605, Note_on_c, 3, 73, 0
5, 4605, Note_on_c, 3, 75, 64
5, 4605, Note_on_c, 3, 71, 40
5, 4612, Note_on_c, 3, 76, 77
5, 4612, Note_on_c, 3, 73, 57
5, 4613, Note_on_c, 3, 71, 0
5, 4613, Note_on_c, 3, 75, 0
5, 4620, Note_on_c, 3, 76, 0
5, 4620, Note_on_c, 3, 59, 0
5, 4620, Note_on_c, 3, 73, 0
5, 4620, Note_on_c, 3, 54, 0
5, 4620, Note_on_c, 3, 75, 73
5, 4620, Note_on_c, 3, 71, 66
5, 4620, Note_on_c, 3, 63, 64
5, 4620, Note_on_c, 3, 59, 64
5, 4627, Note_on_c, 3, 76, 80
5, 4627, Note_on_c, 3, 73, 57
5, 4628, Note_on_c, 3, 71, 0
5, 4628, Note_on_c, 3, 75, 0
5, 4635, Note_on_c, 3, 76, 0
5, 4635, Note_on_c, 3, 73, 0
5, 4635, Note_on_c, 3, 78, 58
5, 4635, Note_on_c, 3, 75, 45
5, 4642, Note_on_c, 3, 80, 56
5, 4642, Note_on_c, 3, 76, 72
5, 4643, Note_on_c, 3, 75, 0
5, 4643, Note_on_c, 3, 78, 0
5, 4650, Note_on_c, 3, 80, 0
5, 4650, Note_on_c, 3, 63, 0
5, 4650, Note_on_c, 3, 76, 0
5, 4650, Note_on_c, 3, 59, 0
5, 4650, Note_on_c, 3, 63, 81
5, 4650, Note_on_c, 3, 66, 58
5, 4650, Note_on_c, 3, 78, 76
5, 4650, Note_on_c, 3, 75, 74
5, 4657, Note_on_c, 3, 80, 59
5, 4657, Note_on_c, 3, 76, 77
5, 4658, Note_on_c, 3, 75, 0
5, 4658, Note_on_c, 3, 78, 0
5, 4665, Note_on_c, 3, 80, 0
5, 4665, Note_on_c, 3, 76, 0
5, 4665, Note_on_c, 3, 81, 71
5, 4665, Note_on_c, 3, 78, 43
5, 4672, Note_on_c, 3, 80, 73
5, 4672, Note_on_c, 3, 83, 82
5, 4673, Note_on_c, 3, 78, 0
5, 4673, Note_on_c, 3, 81, 0
5, 4680, Note_on_c, 3, 80, 0
5, 4680, Note_on_c, 3, 66, 0
5, 4680, Note_on_c, 3, 83, 0
5, 4680, Note_on_c, 3, 63, 0
5, 4680, Note_on_c, 3, 85, 60
5, 4680, Note_on_c, 3, 81, 55
5, 4680, Note_on_c, 3, 47, 86
5, 4710, Note_on_c, 3, 47, 0
5, 4710, Note_on_c, 3, 81, 0
5, 4710, Note_on_c, 3, 85, 0
5, 4710, Note_on_c, 3, 85, 52
5, 4710, Note_on_c, 3, 81, 46
5, 4710, Note_on_c, 3, 63, 66
5, 4710, Note_on_c, 3, 59, 61
5, 4717, Note_on_c, 3, 85, 72
5, 4717, Note_on_c, 3, 81, 77
5, 4718, Note_on_c, 3, 81, 0
5, 4718, Note_on_c, 3, 85, 0
5, 4725, Note_on_c, 3, 85, 0
5, 4725, Note_on_c, 3, 81, 0
5, 4725, Note_on_c, 3, 84, 76
5, 4725, Note_on_c, 3, 80, 50
5, 4732, Note_on_c, 3, 85, 68
5, 4732, Note_on_c, 3, 81, 77
5, 4733, Note_on_c, 3, 80, 0
5, 4733, Note_on_c, 3, 84, 0
5, 4740, Note_on_c, 3, 85, 0
5, 4740, Note_on_c, 3, 63, 0
5, 4740, Note_on_c, 3, 81, 0
5, 4740, Note_on_c, 3, 59, 0
5, 4740, Note_on_c, 3, 85, 65
5, 4740, Note_on_c, 3, 81, 80
5, 4740, Note_on_c, 3, 47, 86
5, 4747, Note_on_c, 3, 83, 77
5, 4747, Note_on_c, 3, 80, 48
5, 4748, Note_on_c, 3, 81, 0
5, 4748, Note_on_c, 3, 85, 0
5, 4755, Note_on_c, 3, 83, 0
5, 4755, Note_on_c, 3, 80, 0
5, 4755, Note_on_c, 3, 82, 73
5, 4755, Note_on_c, 3, 79, 63
5, 4762, Note_on_c, 3, 83, 77
5, 4762, Note_on_c, 3, 80, 48
5, 4763, Note_on_c, 3, 79, 0
5, 4763, Note_on_c, 3, 82, 0
5, 4770, Note_on_c, 3, 47, 0
5, 4770, Note_on_c, 3, 83, 0
5, 4770, Note_on_c, 3, 80, 0
5, 4770, Note_on_c, 3, 82, 73
5, 4770, Note_on_c, 3, 79, 65
5, 4770, Note_on_c, 3, 64, 78
5, 4770, Note_on_c, 3, 61, 65
5, 4777, Note_on_c, 3, 83, 76
5, 4777, Note_on_c, 3, 80, 58
5, 4778, Note_on_c, 3, 79, 0
5, 4778, Note_on_c, 3, 82, 0
5, 4785, Note_on_c, 3, 83, 0
5, 4785, Note_on_c, 3, 80, 0
5, 4785, Note_on_c, 3, 85, 60
5, 4785, Note_on_c, 3, 81, 68
5, 4792, Note_on_c, 3, 83, 58
5, 4792, Note_on_c, 3, 80, 64
5, 4793, Note_on_c, 3, 81, 0
5, 4793, Note_on_c, 3, 85, 0
5, 4800, Note_on_c, 3, 83, 0
5, 4800, Note_on_c, 3, 64, 0
5, 4800, Note_on_c, 3, 80, 0
5, 4800, Note_on_c, 3, 61, 0
5, 4800, Note_on_c, 3, 83, 64
5, 4800, Note_on_c, 3, 80, 60
5, 4800, Note_on_c, 3, 47, 90
5, 4807, Note_on_c, 3, 81, 82
5, 4807, Note_on_c, 3, 78, 57
5, 4808, Note_on_c, 3, 80, 0
5, 4808, Note_on_c, 3, 83, 0
5, 4815, Note_on_c, 3, 81, 0
5, 4815, Note_on_c, 3, 78, 0
5, 4815, Note_on_c, 3, 80, 69
5, 4815, Note_on_c, 3, 77, 59
5, 4822, Note_on_c, 3, 81, 76
5, 4822, Note_on_c, 3, 78, 53
5, 4823, Note_on_c, 3, 77, 0
5, 4823, Note_on_c, 3, 80, 0
5, 4830, Note_on_c, 3, 47, 0
5, 4830, Note_on_c, 3, 81, 0
5, 4830, Note_on_c, 3, 78, 0
5, 4830, Note_on_c, 3, 59, 72
5, 4830, Note_on_c, 3, 63, 65
5, 4830, Note_on_c, 3, 80, 73
5, 4830, Note_on_c, 3, 77, 63
5, 4837, Note_on_c, 3, 81, 78
5, 4837, Note_on_c, 3, 78, 44
5, 4838, Note_on_c, 3, 77, 0
5, 4838, Note_on_c, 3, 80, 0
5, 4845, Note_on_c, 3, 81, 0
5, 4845, Note_on_c, 3, 78, 0
5, 4845, Note_on_c, 3, 83, 76
5, 4845, Note_on_c, 3, 80, 72
5, 4852, Note_on_c, 3, 78, 54
5, 4852, Note_on_c, 3, 81, 81
5, 4853, Note_on_c, 3, 80, 0
5, 4853, Note_on_c, 3, 83, 0
5, 4860, Note_on_c, 3, 78, 0
5, 4860, Note_on_c, 3, 63, 0
5, 4860, Note_on_c, 3, 81, 0
5, 4860, Note_on_c, 3, 59, 0
5, 4860, Note_on_c, 3, 81, 66
5, 4860, Note_on_c, 3, 78, 55
5, 4860, Note_on_c, 3, 52, 73
5, 4890, Note_on_c, 3, 52, 0
5, 4890, Note_on_c, 3, 78, 0
5, 4890, Note_on_c, 3, 81, 0
5, 4890, Note_on_c, 3, 79, 66
5, 4890, Note_on_c, 3, 75, 61
5, 4890, Note_on_c, 3, 68, 62
5, 4890, Note_on_c, 3, 64, 68
5, 4912, Note_on_c, 3, 80, 53
5, 4912, Note_on_c, 3, 76, 72
5, 4913, Note_on_c, 3, 75, 0
5, 4913, Note_on_c, 3, 79, 0
5, 4920, Note_on_c, 3, 80, 0
5, 4920, Note_on_c, 3, 64, 0
5, 4920, Note_on_c, 3, 76, 0
5, 4920, Note_on_c, 3, 68, 0
5, 4920, Note_on_c, 3, 80, 53
5, 4920, Note_on_c, 3, 76, 61
5, 4920, Note_on_c, 3, 68, 72
5, 4920, Note_on_c, 3, 64, 80
5, 4950, Note_on_c, 3, 64, 0
5, 4950, Note_on_c, 3, 80, 0
5, 4950, Note_on_c, 3, 76, 0
5, 4950, Note_on_c, 3, 68, 0
5, 5010, Note_on_c, 3, 68, 90
5, 5010, Note_on_c, 3, 80, 67
5, 5040, Note_on_c, 3, 80, 0
5, 5040, Note_on_c, 3, 68, 0
5, 5040, Note_on_c, 3, 80, 81
5, 5040, Note_on_c, 3, 68, 90
5, 5055, Note_on_c, 3, 68, 0
5, 5055, Note_on_c, 3, 80, 0
5, 5055, Note_on_c, 3, 88, 80
5, 5055, Note_on_c, 3, 76, 86
5, 5070, Note_on_c, 3, 76, 0
5, 5070, Note_on_c, 3, 88, 0
5, 5070, Note_on_c, 3, 88, 85
5, 5070, Note_on_c, 3, 76, 80
5, 5078, Note_on_c, 3, 76, 0
5, 5078, Note_on_c, 3, 88, 0
5, 5085, Note_on_c, 3, 88, 80
5, 5085, Note_on_c, 3, 76, 84
5, 5093, Note_on_c, 3, 76, 0
5, 5093, Note_on_c, 3, 88, 0
5, 5100, Note_on_c, 3, 88, 73
5, 5100, Note_on_c, 3, 76, 72
5, 5115, Note_on_c, 3, 76, 0
5, 5115, Note_on_c, 3, 88, 0
5, 5115, Note_on_c, 3, 87, 80
5, 5115, Note_on_c, 3, 75, 90
5, 5130, Note_on_c, 3, 75, 0
5, 5130, Note_on_c, 3, 87, 0
5, 5130, Note_on_c, 3, 87, 69
5, 5130, Note_on_c, 3, 75, 82
5, 5138, Note_on_c, 3, 75, 0
5, 5138, Note_on_c, 3, 87, 0
5, 5145, Note_on_c, 3, 87, 72
5, 5145, Note_on_c, 3, 75, 86
5, 5153, Note_on_c, 3, 75, 0
5, 5153, Note_on_c, 3, 87, 0
5, 5160, Note_on_c, 3, 87, 84
5, 5160, Note_on_c, 3, 75, 84
5, 5167, Note_on_c, 3, 85, 82
5, 5167, Note_on_c, 3, 73, 70
5, 5168, Note_on_c, 3, 75, 0
5, 5168, Note_on_c, 3, 87, 0
5, 5175, Note_on_c, 3, 85, 0
5, 5175, Note_on_c, 3, 73, 0
5, 5175, Note_on_c, 3, 88, 94
5, 5175, Note_on_c, 3, 76, 84
5, 5182, Note_on_c, 3, 87, 89
5, 5182, Note_on_c, 3, 75, 86
5, 5183, Note_on_c, 3, 76, 0
5, 5183, Note_on_c, 3, 88, 0
5, 5190, Note_on_c, 3, 87, 0
5, 5190, Note_on_c, 3, 75, 0
5, 5190, Note_on_c, 3, 90, 86
5, 5190, Note_on_c, 3, 78, 76
5, 5197, Note_on_c, 3, 88, 90
5, 5197, Note_on_c, 3, 76, 77
5, 5198, Note_on_c, 3, 78, 0
5, 5198, Note_on_c, 3, 90, 0
5, 5205, Note_on_c, 3, 88, 0
5, 5205, Note_on_c, 3, 76, 0
5, 5205, Note_on_c, 3, 87, 90
5, 5205, Note_on_c, 3, 75, 90
5, 5212, Note_on_c, 3, 73, 85
5, 5212, Note_on_c, 3, 85, 77
5, 5213, Note_on_c, 3, 75, 0
5, 5213, Note_on_c, 3, 87, 0
5, 5220, Note_on_c, 3, 73, 0
5, 5220, Note_on_c, 3, 85, 0
5, 5220, Note_on_c, 3, 83, 93
5, 5220, Note_on_c, 3, 71, 94
5, 5250, Note_on_c, 3, 71, 0
5, 5250, Note_on_c, 3, 83, 0
5, 5250, Note_on_c, 3, 83, 73
5, 5250, Note_on_c, 3, 71, 77
5, 5255, Note_on_c, 3, 71, 0
5, 5255, Note_on_c, 3, 83, 0
5, 5255, Note_on_c, 3, 82, 74
5, 5255, Note_on_c, 3, 70, 81
5, 5260, Note_on_c, 3, 70, 0
5, 5260, Note_on_c, 3, 82, 0
5, 5260, Note_on_c, 3, 83, 64
5, 5260, Note_on_c, 3, 71, 73
5, 5265, Note_on_c, 3, 71, 0
5, 5265, Note_on_c, 3, 83, 0
5, 5265, Note_on_c, 3, 87, 80
5, 5265, Note_on_c, 3, 75, 65
5, 5270, Note_on_c, 3, 75, 0
5, 5270, Note_on_c, 3, 87, 0
5, 5270, Note_on_c, 3, 85, 72
5, 5270, Note_on_c, 3, 73, 70
5, 5275, Note_on_c, 3, 73, 0
5, 5275, Note_on_c, 3, 85, 0
5, 5275, Note_on_c, 3, 83, 70
5, 5275, Note_on_c, 3, 71, 80
5, 5280, Note_on_c, 3, 71, 0
5, 5280, Note_on_c, 3, 83, 0
5, 5280, Note_on_c, 3, 82, 73
5, 5280, Note_on_c, 3, 70, 58
5, 5285, Note_on_c, 3, 70, 0
5, 5285, Note_on_c, 3, 82, 0
5, 5285, Note_on_c, 3, 81, 66
5, 5285, Note_on_c, 3, 69, 53
5, 5290, Note_on_c, 3, 69, 0
5, 5290, Note_on_c, 3, 81, 0
5, 5290, Note_on_c, 3, 82, 70
5, 5290, Note_on_c, 3, 70, 74
5, 5295, Note_on_c, 3, 70, 0
5, 5295, Note_on_c, 3, 82, 0
5, 5295, Note_on_c, 3, 85, 64
5, 5295, Note_on_c, 3, 73, 72
5, 5300, Note_on_c, 3, 73, 0
5, 5300, Note_on_c, 3, 85, 0
5, 5300, Note_on_c, 3, 83, 68
5, 5300, Note_on_c, 3, 71, 78
5, 5305, Note_on_c, 3, 71, 0
5, 5305, Note_on_c, 3, 83, 0
5, 5305, Note_on_c, 3, 82, 78
5, 5305, Note_on_c, 3, 70, 73
5, 5310, Note_on_c, 3, 70, 0
5, 5310, Note_on_c, 3, 82, 0
5, 5310, Note_on_c, 3, 80, 73
5, 5310, Note_on_c, 3, 68, 68
5, 5315, Note_on_c, 3, 68, 0
5, 5315, Note_on_c, 3, 80, 0
5, 5315, Note_on_c, 3, 79, 68
5, 5315, Note_on_c, 3, 67, 62
5, 5320, Note_on_c, 3, 67, 0
5, 5320, Note_on_c, 3, 79, 0
5, 5320, Note_on_c, 3, 80, 81
5, 5320, Note_on_c, 3, 68, 71
5, 5325, Note_on_c, 3, 68, 0
5, 5325, Note_on_c, 3, 80, 0
5, 5325, Note_on_c, 3, 83, 71
5, 5325, Note_on_c, 3, 71, 73
5, 5330, Note_on_c, 3, 71, 0
5, 5330, Note_on_c, 3, 83, 0
5, 5330, Note_on_c, 3, 82, 73
5, 5330, Note_on_c, 3, 70, 78
5, 5335, Note_on_c, 3, 70, 0
5, 5335, Note_on_c, 3, 82, 0
5, 5335, Note_on_c, 3, 80, 67
5, 5335, Note_on_c, 3, 68, 76
5, 5340, Note_on_c, 3, 68, 0
5, 5340, Note_on_c, 3, 80, 0
5, 5340, Note_on_c, 3, 78, 68
5, 5340, Note_on_c, 3, 66, 73
5, 5345, Note_on_c, 3, 66, 0
5, 5345, Note_on_c, 3, 78, 0
5, 5345, Note_on_c, 3, 77, 66
5, 5345, Note_on_c, 3, 65, 69
5, 5350, Note_on_c, 3, 65, 0
5, 5350, Note_on_c, 3, 77, 0
5, 5350, Note_on_c, 3, 78, 65
5, 5350, Note_on_c, 3, 66, 73
5, 5355, Note_on_c, 3, 66, 0
5, 5355, Note_on_c, 3, 78, 0
5, 5355, Note_on_c, 3, 82, 66
5, 5355, Note_on_c, 3, 70, 61
5, 5360, Note_on_c, 3, 70, 0
5, 5360, Note_on_c, 3, 82, 0
5, 5360, Note_on_c, 3, 80, 73
5, 5360, Note_on_c, 3, 68, 71
5, 5365, Note_on_c, 3, 68, 0
5, 5365, Note_on_c, 3, 80, 0
5, 5365, Note_on_c, 3, 78, 65
5, 5365, Note_on_c, 3, 66, 77
5, 5370, Note_on_c, 3, 66, 0
5, 5370, Note_on_c, 3, 78, 0
5, 5370, Note_on_c, 3, 76, 67
5, 5370, Note_on_c, 3, 64, 80
5, 5375, Note_on_c, 3, 64, 0
5, 5375, Note_on_c, 3, 76, 0
5, 5375, Note_on_c, 3, 75, 78
5, 5375, Note_on_c, 3, 63, 43
5, 5380, Note_on_c, 3, 63, 0
5, 5380, Note_on_c, 3, 75, 0
5, 5380, Note_on_c, 3, 76, 68
5, 5380, Note_on_c, 3, 64, 72
5, 5385, Note_on_c, 3, 64, 0
5, 5385, Note_on_c, 3, 76, 0
5, 5385, Note_on_c, 3, 80, 68
5, 5385, Note_on_c, 3, 68, 65
5, 5390, Note_on_c, 3, 68, 0
5, 5390, Note_on_c, 3, 80, 0
5, 5390, Note_on_c, 3, 78, 71
5, 5390, Note_on_c, 3, 66, 68
5, 5395, Note_on_c, 3, 66, 0
5, 5395, Note_on_c, 3, 78, 0
5, 5395, Note_on_c, 3, 64, 72
5, 5395, Note_on_c, 3, 76, 76
5, 5400, Note_on_c, 3, 76, 0
5, 5400, Note_on_c, 3, 64, 0
5, 5400, Note_on_c, 3, 75, 58
5, 5400, Note_on_c, 3, 63, 62
5, 5403, Note_on_c, 3, 78, 74
5, 5403, Note_on_c, 3, 66, 65
5, 5404, Note_on_c, 3, 63, 0
5, 5404, Note_on_c, 3, 75, 0
5, 5407, Note_on_c, 3, 78, 0
5, 5407, Note_on_c, 3, 66, 0
5, 5407, Note_on_c, 3, 76, 77
5, 5407, Note_on_c, 3, 64, 55
5, 5410, Note_on_c, 3, 75, 76
5, 5410, Note_on_c, 3, 63, 55
5, 5411, Note_on_c, 3, 64, 0
5, 5411, Note_on_c, 3, 76, 0
5, 5414, Note_on_c, 3, 75, 0
5, 5414, Note_on_c, 3, 63, 0
5, 5414, Note_on_c, 3, 76, 76
5, 5414, Note_on_c, 3, 64, 41
5, 5417, Note_on_c, 3, 78, 73
5, 5417, Note_on_c, 3, 66, 71
5, 5418, Note_on_c, 3, 64, 0
5, 5418, Note_on_c, 3, 76, 0
5, 5421, Note_on_c, 3, 78, 0
5, 5421, Note_on_c, 3, 66, 0
5, 5421, Note_on_c, 3, 80, 74
5, 5421, Note_on_c, 3, 68, 78
5, 5424, Note_on_c, 3, 82, 80
5, 5424, Note_on_c, 3, 70, 84
5, 5425, Note_on_c, 3, 68, 0
5, 5425, Note_on_c, 3, 80, 0
5, 5428, Note_on_c, 3, 82, 0
5, 5428, Note_on_c, 3, 70, 0
5, 5430, Note_on_c, 3, 83, 68
5, 5430, Note_on_c, 3, 71, 76
5, 5433, Note_on_c, 3, 85, 69
5, 5433, Note_on_c, 3, 73, 74
5, 5434, Note_on_c, 3, 71, 0
5, 5434, Note_on_c, 3, 83, 0
5, 5437, Note_on_c, 3, 85, 0
5, 5437, Note_on_c, 3, 73, 0
5, 5437, Note_on_c, 3, 83, 69
5, 5437, Note_on_c, 3, 71, 66
5, 5440, Note_on_c, 3, 82, 68
5, 5440, Note_on_c, 3, 70, 72
5, 5441, Note_on_c, 3, 71, 0
5, 5441, Note_on_c, 3, 83, 0
5, 5444, Note_on_c, 3, 82, 0
5, 5444, Note_on_c, 3, 70, 0
5, 5444, Note_on_c, 3, 83, 76
5, 5444, Note_on_c, 3, 71, 80
5, 5447, Note_on_c, 3, 86, 72
5, 5447, Note_on_c, 3, 74, 81
5, 5448, Note_on_c, 3, 71, 0
5, 5448, Note_on_c, 3, 83, 0
5, 5451, Note_on_c, 3, 86, 0
5, 5451, Note_on_c, 3, 74, 0
5, 5451, Note_on_c, 3, 87, 71
5, 5451, Note_on_c, 3, 75, 84
5, 5454, Note_on_c, 3, 86, 66
5, 5454, Note_on_c, 3, 74, 82
5, 5455, Note_on_c, 3, 75, 0
5, 5455, Note_on_c, 3, 87, 0
5, 5458, Note_on_c, 3, 86, 0
5, 5458, Note_on_c, 3, 74, 0
5, 5460, Note_on_c, 3, 87, 76
5, 5460, Note_on_c, 3, 75, 73
5, 5463, Note_on_c, 3, 86, 72
5, 5463, Note_on_c, 3, 74, 76
5, 5464, Note_on_c, 3, 75, 0
5, 5464, Note_on_c, 3, 87, 0
5, 5467, Note_on_c, 3, 86, 0
5, 5467, Note_on_c, 3, 74, 0
5, 5467, Note_on_c, 3, 87, 54
5, 5467, Note_on_c, 3, 75, 78
5, 5470, Note_on_c, 3, 86, 65
5, 5470, Note_on_c, 3, 74, 72
5, 5471, Note_on_c, 3, 75, 0
5, 5471, Note_on_c, 3, 87, 0
5, 5474, Note_on_c, 3, 86, 0
5, 5474, Note_on_c, 3, 74, 0
5, 5474, Note_on_c, 3, 87, 67
5, 5474, Note_on_c, 3, 75, 76
5, 5477, Note_on_c, 3, 86, 70
5, 5477, Note_on_c, 3, 74, 68
5, 5478, Note_on_c, 3, 75, 0
5, 5478, Note_on_c, 3, 87, 0
5, 5481, Note_on_c, 3, 86, 0
5, 5481, Note_on_c, 3, 74, 0
5, 5481, Note_on_c, 3, 87, 66
5, 5481, Note_on_c, 3, 75, 71
5, 5484, Note_on_c, 3, 86, 68
5, 5484, Note_on_c, 3, 74, 78
5, 5485, Note_on_c, 3, 75, 0
5, 5485, Note_on_c, 3, 87, 0
5, 5488, Note_on_c, 3, 86, 0
5, 5488, Note_on_c, 3, 74, 0
5, 5490, Note_on_c, 3, 88, 80
5, 5490, Note_on_c, 3, 76, 57
5, 5497, Note_on_c, 3, 87, 72
5, 5497, Note_on_c, 3, 75, 69
5, 5498, Note_on_c, 3, 76, 0
5, 5498, Note_on_c, 3, 88, 0
5, 5505, Note_on_c, 3, 87, 0
5, 5505, Note_on_c, 3, 75, 0
5, 5505, Note_on_c, 3, 85, 63
5, 5505, Note_on_c, 3, 73, 65
5, 5512, Note_on_c, 3, 83, 72
5, 5512, Note_on_c, 3, 71, 81
5, 5513, Note_on_c, 3, 73, 0
5, 5513, Note_on_c, 3, 85, 0
5, 5520, Note_on_c, 3, 83, 0
5, 5520, Note_on_c, 3, 71, 0
5, 5520, Note_on_c, 3, 82, 68
5, 5520, Note_on_c, 3, 82, 61
5, 5520, Note_on_c, 3, 70, 68
5, 5520, Note_on_c, 3, 70, 64
5, 5523, Note_on_c, 3, 83, 65
5, 5523, Note_on_c, 3, 71, 68
5, 5524, Note_on_c, 3, 70, 0
5, 5524, Note_on_c, 3, 82, 0
5, 5527, Note_on_c, 3, 83, 0
5, 5527, Note_on_c, 3, 71, 0
5, 5527, Note_on_c, 3, 83, 65
5, 5527, Note_on_c, 3, 71, 65
5, 5528, Note_on_c, 3, 82, 0
5, 5528, Note_on_c, 3, 70, 0
5, 5535, Note_on_c, 3, 83, 0
5, 5535, Note_on_c, 3, 71, 0
5, 5535, Note_on_c, 3, 85, 73
5, 5535, Note_on_c, 3, 73, 65
5, 5542, Note_on_c, 3, 83, 71
5, 5542, Note_on_c, 3, 71, 65
5, 5543, Note_on_c, 3, 73, 0
5, 5543, Note_on_c, 3, 85, 0
5, 5550, Note_on_c, 3, 83, 0
5, 5550, Note_on_c, 3, 71, 0
5, 5550, Note_on_c, 3, 82, 71
5, 5550, Note_on_c, 3, 70, 76
5, 5557, Note_on_c, 3, 80, 71
5, 5557, Note_on_c, 3, 68, 72
5, 5558, Note_on_c, 3, 70, 0
5, 5558, Note_on_c, 3, 82, 0
5, 5565, Note_on_c, 3, 80, 0
5, 5565, Note_on_c, 3, 68, 0
5, 5565, Note_on_c, 3, 78, 76
5, 5565, Note_on_c, 3, 66, 80
5, 5572, Note_on_c, 3, 65, 73
5, 5572, Note_on_c, 3, 77, 76
5, 5573, Note_on_c, 3, 66, 0
5, 5573, Note_on_c, 3, 78, 0
5, 5580, Note_on_c, 3, 65, 0
5, 5580, Note_on_c, 3, 77, 0
5, 5580, Note_on_c, 3, 78, 77
5, 5580, Note_on_c, 3, 66, 51
5, 5640, Note_on_c, 3, 66, 0
5, 5640, Note_on_c, 3, 78, 0
5, 6030, Note_on_c, 3, 75, 86
5, 6030, Note_on_c, 3, 66, 66
5, 6030, Note_on_c, 3, 63, 84
5, 6030, Note_on_c, 3, 59, 94
5, 6035, Note_on_c, 3, 75, 0
5, 6035, Note_on_c, 3, 74, 89
5, 6040, Note_on_c, 3, 74, 0
5, 6040, Note_on_c, 3, 75, 86
5, 6045, Note_on_c, 3, 75, 0
5, 6045, Note_on_c, 3, 78, 89
5, 6050, Note_on_c, 3, 78, 0
5, 6050, Note_on_c, 3, 76, 89
5, 6055, Note_on_c, 3, 76, 0
5, 6055, Note_on_c, 3, 75, 95
5, 6060, Note_on_c, 3, 75, 0
5, 6060, Note_on_c, 3, 59, 0
5, 6060, Note_on_c, 3, 63, 0
5, 6060, Note_on_c, 3, 66, 0
5, 6060, Note_on_c, 3, 73, 84
5, 6060, Note_on_c, 3, 66, 58
5, 6060, Note_on_c, 3, 64, 95
5, 6060, Note_on_c, 3, 58, 76
5, 6065, Note_on_c, 3, 73, 0
5, 6065, Note_on_c, 3, 72, 76
5, 6070, Note_on_c, 3, 72, 0
5, 6070, Note_on_c, 3, 73, 86
5, 6075, Note_on_c, 3, 73, 0
5, 6075, Note_on_c, 3, 76, 89
5, 6080, Note_on_c, 3, 76, 0
5, 6080, Note_on_c, 3, 75, 89
5, 6085, Note_on_c, 3, 75, 0
5, 6085, Note_on_c, 3, 73, 86
5, 6090, Note_on_c, 3, 73, 0
5, 6090, Note_on_c, 3, 58, 0
5, 6090, Note_on_c, 3, 64, 0
5, 6090, Note_on_c, 3, 66, 0
5, 6090, Note_on_c, 3, 66, 56
5, 6090, Note_on_c, 3, 63, 80
5, 6090, Note_on_c, 3, 59, 84
5, 6090, Note_on_c, 3, 71, 89
5, 6095, Note_on_c, 3, 71, 0
5, 6095, Note_on_c, 3, 70, 93
5, 6100, Note_on_c, 3, 70, 0
5, 6100, Note_on_c, 3, 71, 89
5, 6105, Note_on_c, 3, 71, 0
5, 6105, Note_on_c, 3, 75, 93
5, 6110, Note_on_c, 3, 75, 0
5, 6110, Note_on_c, 3, 73, 89
5, 6115, Note_on_c, 3, 73, 0
5, 6115, Note_on_c, 3, 71, 94
5, 6120, Note_on_c, 3, 71, 0
5, 6120, Note_on_c, 3, 59, 0
5, 6120, Note_on_c, 3, 63, 0
5, 6120, Note_on_c, 3, 66, 0
5, 6120, Note_on_c, 3, 70, 82
5, 6120, Note_on_c, 3, 64, 57
5, 6120, Note_on_c, 3, 59, 73
5, 6120, Note_on_c, 3, 52, 65
5, 6150, Note_on_c, 3, 52, 0
5, 6150, Note_on_c, 3, 70, 0
5, 6150, Note_on_c, 3, 64, 0
5, 6150, Note_on_c, 3, 59, 0
5, 6150, Note_on_c, 3, 68, 73
5, 6165, Note_on_c, 3, 68, 0
5, 6168, Note_on_c, 3, 70, 81
5, 6174, Note_on_c, 3, 70, 0
5, 6174, Note_on_c, 3, 68, 77
5, 6180, Note_on_c, 3, 68, 0
5, 6180, Note_on_c, 3, 67, 71
5, 6180, Note_on_c, 3, 59, 38
5, 6180, Note_on_c, 3, 56, 57
5, 6180, Note_on_c, 3, 52, 60
5, 6186, Note_on_c, 3, 67, 0
5, 6186, Note_on_c, 3, 68, 80
5, 6192, Note_on_c, 3, 68, 0
5, 6195, Note_on_c, 3, 70, 80
5, 6202, Note_on_c, 3, 71, 85
5, 6203, Note_on_c, 3, 70, 0
5, 6210, Note_on_c, 3, 52, 0
5, 6210, Note_on_c, 3, 59, 0
5, 6210, Note_on_c, 3, 56, 0
5, 6210, Note_on_c, 3, 71, 0
5, 6210, Note_on_c, 3, 73, 82
5, 6217, Note_on_c, 3, 75, 80
5, 6218, Note_on_c, 3, 73, 0
5, 6225, Note_on_c, 3, 75, 0
5, 6225, Note_on_c, 3, 76, 84
5, 6232, Note_on_c, 3, 78, 84
5, 6233, Note_on_c, 3, 76, 0
5, 6240, Note_on_c, 3, 78, 0
5, 6240, Note_on_c, 3, 80, 81
5, 6240, Note_on_c, 3, 59, 44
5, 6240, Note_on_c, 3, 56, 45
5, 6240, Note_on_c, 3, 52, 64
5, 6247, Note_on_c, 3, 82, 80
5, 6248, Note_on_c, 3, 80, 0
5, 6255, Note_on_c, 3, 82, 0
5, 6255, Note_on_c, 3, 83, 73
5, 6262, Note_on_c, 3, 82, 78
5, 6263, Note_on_c, 3, 83, 0
5, 6270, Note_on_c, 3, 59, 0
5, 6270, Note_on_c, 3, 52, 0
5, 6270, Note_on_c, 3, 56, 0
5, 6270, Note_on_c, 3, 82, 0
5, 6270, Note_on_c, 3, 85, 73
5, 6277, Note_on_c, 3, 83, 73
5, 6278, Note_on_c, 3, 85, 0
5, 6285, Note_on_c, 3, 83, 0
5, 6285, Note_on_c, 3, 82, 80
5, 6292, Note_on_c, 3, 80, 80
5, 6293, Note_on_c, 3, 82, 0
5, 6300, Note_on_c, 3, 80, 0
5, 6300, Note_on_c, 3, 78, 71
5, 6300, Note_on_c, 3, 63, 43
5, 6300, Note_on_c, 3, 59, 84
5, 6300, Note_on_c, 3, 54, 53
5, 6303, Note_on_c, 3, 78, 0
5, 6303, Note_on_c, 3, 80, 72
5, 6306, Note_on_c, 3, 80, 0
5, 6306, Note_on_c, 3, 78, 76
5, 6309, Note_on_c, 3, 78, 0
5, 6309, Note_on_c, 3, 77, 65
5, 6312, Note_on_c, 3, 77, 0
5, 6312, Note_on_c, 3, 78, 72
5, 6315, Note_on_c, 3, 78, 0
5, 6315, Note_on_c, 3, 80, 69
5, 6319, Note_on_c, 3, 80, 0
5, 6324, Note_on_c, 3, 82, 77
5, 6328, Note_on_c, 3, 82, 0
5, 6331, Note_on_c, 3, 83, 85
5, 6335, Note_on_c, 3, 83, 0
5, 6338, Note_on_c, 3, 85, 78
5, 6342, Note_on_c, 3, 85, 0
5, 6345, Note_on_c, 3, 87, 84
5, 6349, Note_on_c, 3, 87, 0
5, 6352, Note_on_c, 3, 88, 95
5, 6356, Note_on_c, 3, 88, 0
5, 6360, Note_on_c, 3, 63, 0
5, 6360, Note_on_c, 3, 59, 0
5, 6360, Note_on_c, 3, 54, 0
5, 6360, Note_on_c, 3, 90, 66
5, 6368, Note_on_c, 3, 90, 0
5, 6375, Note_on_c, 3, 92, 86
5, 6383, Note_on_c, 3, 92, 0
5, 6390, Note_on_c, 3, 94, 90
5, 6398, Note_on_c, 3, 94, 0
5, 6405, Note_on_c, 3, 95, 101
5, 6413, Note_on_c, 3, 95, 0
5, 6420, Note_on_c, 3, 42, 86
5, 6435, Note_on_c, 3, 42, 0
5, 6435, Note_on_c, 3, 80, 101
5, 6450, Note_on_c, 3, 64, 86
5, 6450, Note_on_c, 3, 61, 84
5, 6450, Note_on_c, 3, 58, 86
5, 6450, Note_on_c, 3, 54, 78
5, 6457, Note_on_c, 3, 78, 94
5, 6458, Note_on_c, 3, 80, 0
5, 6461, Note_on_c, 3, 78, 0
5, 6461, Note_on_c, 3, 76, 99
5, 6464, Note_on_c, 3, 75, 94
5, 6465, Note_on_c, 3, 76, 0
5, 6465, Note_on_c, 3, 58, 0
5, 6465, Note_on_c, 3, 54, 0
5, 6465, Note_on_c, 3, 64, 0
5, 6465, Note_on_c, 3, 61, 0
5, 6468, Note_on_c, 3, 75, 0
5, 6468, Note_on_c, 3, 73, 86
5, 6471, Note_on_c, 3, 71, 98
5, 6472, Note_on_c, 3, 73, 0
5, 6475, Note_on_c, 3, 71, 0
5, 6475, Note_on_c, 3, 70, 98
5, 6479, Note_on_c, 3, 70, 0
5, 6479, Note_on_c, 3, 71, 98
5, 6480, Note_on_c, 3, 71, 101
5, 6480, Note_on_c, 3, 63, 84
5, 6480, Note_on_c, 3, 59, 90
5, 6483, Note_on_c, 3, 71, 0
5, 6510, Note_on_c, 3, 71, 0
5, 6540, Note_on_c, 3, 63, 0
5, 6540, Note_on_c, 3, 59, 0
5, 6840, Control_c, 3, 64, 68
5, 6840, Note_on_c, 3, 31, 68
5, 6845, Note_on_c, 3, 31, 0
5, 6845, Note_on_c, 3, 35, 53
5, 6850, Note_on_c, 3, 35, 0
5, 6850, Note_on_c, 3, 38, 45
5, 6855, Note_on_c, 3, 38, 0
5, 6855, Note_on_c, 3, 47, 45
5, 6855, Note_on_c, 3, 43, 59
5, 6860, Note_on_c, 3, 43, 0
5, 6860, Note_on_c, 3, 47, 0
5, 6860, Note_on_c, 3, 50, 60
5, 6865, Note_on_c, 3, 50, 0
5, 6865, Note_on_c, 3, 55, 69
5, 6870, Note_on_c, 3, 55, 0
5, 6870, Note_on_c, 3, 59, 72
5, 6875, Note_on_c, 3, 59, 0
5, 6875, Note_on_c, 3, 55, 72
5, 6880, Note_on_c, 3, 55, 0
5, 6880, Note_on_c, 3, 50, 68
5, 6885, Note_on_c, 3, 50, 0
5, 6885, Note_on_c, 3, 55, 69
5, 6890, Note_on_c, 3, 55, 0
5, 6890, Note_on_c, 3, 50, 74
5, 6895, Note_on_c, 3, 50, 0
5, 6895, Note_on_c, 3, 47, 68
5, 6900, Note_on_c, 3, 47, 0
5, 6900, Note_on_c, 3, 43, 67
5, 6905, Note_on_c, 3, 43, 0
5, 6905, Note_on_c, 3, 47, 72
5, 6910, Note_on_c, 3, 47, 0
5, 6910, Note_on_c, 3, 50, 76
5, 6915, Note_on_c, 3, 50, 0
5, 6915, Note_on_c, 3, 59, 73
5, 6915, Note_on_c, 3, 55, 76
5, 6920, Note_on_c, 3, 55, 0
5, 6920, Note_on_c, 3, 59, 0
5, 6920, Note_on_c, 3, 62, 80
5, 6925, Note_on_c, 3, 62, 0
5, 6925, Note_on_c, 3, 67, 73
5, 6930, Note_on_c, 3, 67, 0
5, 6930, Note_on_c, 3, 71, 78
5, 6935, Note_on_c, 3, 71, 0
5, 6935, Note_on_c, 3, 67, 76
5, 6940, Note_on_c, 3, 67, 0
5, 6940, Note_on_c, 3, 62, 67
5, 6945, Note_on_c, 3, 62, 0
5, 6945, Note_on_c, 3, 67, 53
5, 6950, Note_on_c, 3, 67, 0
5, 6950, Note_on_c, 3, 62, 80
5, 6955, Note_on_c, 3, 62, 0
5, 6955, Note_on_c, 3, 59, 62
5, 6960, Note_on_c, 3, 59, 0
5, 6960, Note_on_c, 3, 55, 74
5, 6965, Note_on_c, 3, 55, 0
5, 6965, Note_on_c, 3, 59, 71
5, 6970, Note_on_c, 3, 59, 0
5, 6970, Note_on_c, 3, 62, 76
5, 6975, Note_on_c, 3, 62, 0
5, 6975, Note_on_c, 3, 71, 73
5, 6975, Note_on_c, 3, 67, 76
5, 6980, Note_on_c, 3, 67, 0
5, 6980, Note_on_c, 3, 71, 0
5, 6980, Note_on_c, 3, 74, 85
5, 6985, Note_on_c, 3, 74, 0
5, 6985, Note_on_c, 3, 79, 76
5, 6990, Note_on_c, 3, 79, 0
5, 6990, Note_on_c, 3, 83, 84
5, 6995, Note_on_c, 3, 83, 0
5, 6995, Note_on_c, 3, 79, 74
5, 7000, Note_on_c, 3, 79, 0
5, 7000, Note_on_c, 3, 74, 73
5, 7005, Note_on_c, 3, 74, 0
5, 7005, Note_on_c, 3, 79, 71
5, 7010, Note_on_c, 3, 79, 0
5, 7010, Note_on_c, 3, 74, 76
5, 7015, Note_on_c, 3, 74, 0
5, 7015, Note_on_c, 3, 71, 64
5, 7020, Note_on_c, 3, 71, 0
5, 7020, Note_on_c, 3, 31, 58
5, 7025, Note_on_c, 3, 31, 0
5, 7025, Note_on_c, 3, 35, 73
5, 7030, Note_on_c, 3, 35, 0
5, 7030, Note_on_c, 3, 38, 55
5, 7035, Note_on_c, 3, 38, 0
5, 7035, Note_on_c, 3, 47, 64
5, 7035, Note_on_c, 3, 43, 61
5, 7040, Note_on_c, 3, 43, 0
5, 7040, Note_on_c, 3, 47, 0
5, 7040, Note_on_c, 3, 50, 81
5, 7045, Note_on_c, 3, 50, 0
5, 7045, Note_on_c, 3, 55, 72
5, 7050, Note_on_c, 3, 55, 0
5, 7050, Note_on_c, 3, 59, 76
5, 7055, Note_on_c, 3, 59, 0
5, 7055, Note_on_c, 3, 55, 73
5, 7060, Note_on_c, 3, 55, 0
5, 7060, Note_on_c, 3, 50, 73
5, 7065, Note_on_c, 3, 50, 0
5, 7065, Note_on_c, 3, 55, 71
5, 7070, Note_on_c, 3, 55, 0
5, 7070, Note_on_c, 3, 50, 76
5, 7075, Note_on_c, 3, 50, 0
5, 7075, Note_on_c, 3, 47, 62
5, 7080, Note_on_c, 3, 47, 0
5, 7080, Note_on_c, 3, 43, 73
5, 7085, Note_on_c, 3, 43, 0
5, 7085, Note_on_c, 3, 47, 69
5, 7090, Note_on_c, 3, 47, 0
5, 7090, Note_on_c, 3, 50, 80
5, 7095, Note_on_c, 3, 50, 0
5, 7095, Note_on_c, 3, 59, 77
5, 7095, Note_on_c, 3, 55, 76
5, 7100, Note_on_c, 3, 55, 0
5, 7100, Note_on_c, 3, 59, 0
5, 7100, Note_on_c, 3, 62, 71
5, 7105, Note_on_c, 3, 62, 0
5, 7105, Note_on_c, 3, 67, 64
5, 7110, Note_on_c, 3, 67, 0
5, 7110, Note_on_c, 3, 71, 73
5, 7115, Note_on_c, 3, 71, 0
5, 7115, Note_on_c, 3, 67, 63
5, 7120, Note_on_c, 3, 67, 0
5, 7120, Note_on_c, 3, 62, 68
5, 7125, Note_on_c, 3, 62, 0
5, 7125, Note_on_c, 3, 67, 73
5, 7130, Note_on_c, 3, 67, 0
5, 7130, Note_on_c, 3, 62, 80
5, 7135, Note_on_c, 3, 62, 0
5, 7135, Note_on_c, 3, 59, 73
5, 7140, Note_on_c, 3, 59, 0
5, 7140, Note_on_c, 3, 55, 76
5, 7145, Note_on_c, 3, 55, 0
5, 7145, Note_on_c, 3, 59, 70
5, 7150, Note_on_c, 3, 59, 0
5, 7150, Note_on_c, 3, 62, 80
5, 7155, Note_on_c, 3, 62, 0
5, 7155, Note_on_c, 3, 71, 76
5, 7155, Note_on_c, 3, 67, 84
5, 7160, Note_on_c, 3, 67, 0
5, 7160, Note_on_c, 3, 71, 0
5, 7160, Note_on_c, 3, 74, 89
5, 7165, Note_on_c, 3, 74, 0
5, 7165, Note_on_c, 3, 79, 76
5, 7170, Note_on_c, 3, 79, 0
5, 7170, Control_c, 3, 64, 0
5, 7170, Note_on_c, 3, 83, 81
5, 7175, Note_on_c, 3, 83, 0
5, 7175, Note_on_c, 3, 79, 80
5, 7180, Note_on_c, 3, 79, 0
5, 7180, Note_on_c, 3, 74, 68
5, 7185, Note_on_c, 3, 74, 0
5, 7185, Note_on_c, 3, 79, 77
5, 7190, Note_on_c, 3, 79, 0
5, 7190, Note_on_c, 3, 74, 85
5, 7195, Note_on_c, 3, 74, 0
5, 7195, Note_on_c, 3, 71, 77
5, 7200, Note_on_c, 3, 71, 0
5, 7200, Control_c, 3, 64, 68
5, 7200, Note_on_c, 3, 33, 53
5, 7205, Note_on_c, 3, 33, 0
5, 7205, Note_on_c, 3, 36, 45
5, 7210, Note_on_c, 3, 36, 0
5, 7210, Note_on_c, 3, 42, 43
5, 7215, Note_on_c, 3, 42, 0
5, 7215, Note_on_c, 3, 48, 64
5, 7215, Note_on_c, 3, 45, 77
5, 7220, Note_on_c, 3, 45, 0
5, 7220, Note_on_c, 3, 48, 0
5, 7220, Note_on_c, 3, 50, 81
5, 7225, Note_on_c, 3, 50, 0
5, 7225, Note_on_c, 3, 54, 67
5, 7230, Note_on_c, 3, 54, 0
5, 7230, Note_on_c, 3, 60, 72
5, 7235, Note_on_c, 3, 60, 0
5, 7235, Note_on_c, 3, 54, 76
5, 7240, Note_on_c, 3, 54, 0
5, 7240, Note_on_c, 3, 50, 73
5, 7245, Note_on_c, 3, 50, 0
5, 7245, Note_on_c, 3, 54, 80
5, 7250, Note_on_c, 3, 54, 0
5, 7250, Note_on_c, 3, 50, 82
5, 7255, Note_on_c, 3, 50, 0
5, 7255, Note_on_c, 3, 48, 67
5, 7260, Note_on_c, 3, 48, 0
5, 7260, Note_on_c, 3, 45, 84
5, 7265, Note_on_c, 3, 45, 0
5, 7265, Note_on_c, 3, 48, 65
5, 7270, Note_on_c, 3, 48, 0
5, 7270, Note_on_c, 3, 54, 67
5, 7275, Note_on_c, 3, 54, 0
5, 7275, Note_on_c, 3, 60, 76
5, 7275, Note_on_c, 3, 57, 90
5, 7280, Note_on_c, 3, 57, 0
5, 7280, Note_on_c, 3, 60, 0
5, 7280, Note_on_c, 3, 62, 84
5, 7285, Note_on_c, 3, 62, 0
5, 7285, Note_on_c, 3, 66, 76
5, 7290, Note_on_c, 3, 66, 0
5, 7290, Note_on_c, 3, 72, 36
5, 7295, Note_on_c, 3, 72, 0
5, 7295, Note_on_c, 3, 66, 85
5, 7300, Note_on_c, 3, 66, 0
5, 7300, Note_on_c, 3, 62, 71
5, 7305, Note_on_c, 3, 62, 0
5, 7305, Note_on_c, 3, 66, 71
5, 7310, Note_on_c, 3, 66, 0
5, 7310, Note_on_c, 3, 62, 71
5, 7315, Note_on_c, 3, 62, 0
5, 7315, Note_on_c, 3, 60, 76
5, 7320, Note_on_c, 3, 60, 0
5, 7320, Note_on_c, 3, 57, 84
5, 7325, Note_on_c, 3, 57, 0
5, 7325, Note_on_c, 3, 60, 68
5, 7330, Note_on_c, 3, 60, 0
5, 7330, Note_on_c, 3, 66, 71
5, 7335, Note_on_c, 3, 66, 0
5, 7335, Note_on_c, 3, 72, 56
5, 7335, Note_on_c, 3, 69, 89
5, 7340, Note_on_c, 3, 69, 0
5, 7340, Note_on_c, 3, 72, 0
5, 7340, Note_on_c, 3, 74, 94
5, 7345, Note_on_c, 3, 74, 0
5, 7345, Note_on_c, 3, 78, 62
5, 7350, Note_on_c, 3, 78, 0
5, 7350, Note_on_c, 3, 84, 76
5, 7355, Note_on_c, 3, 84, 0
5, 7355, Note_on_c, 3, 78, 77
5, 7360, Note_on_c, 3, 78, 0
5, 7360, Note_on_c, 3, 74, 89
5, 7365, Note_on_c, 3, 74, 0
5, 7365, Note_on_c, 3, 78, 73
5, 7370, Note_on_c, 3, 78, 0
5, 7370, Note_on_c, 3, 74, 85
5, 7375, Note_on_c, 3, 74, 0
5, 7375, Note_on_c, 3, 72, 45
5, 7380, Note_on_c, 3, 72, 0
5, 7380, Note_on_c, 3, 30, 48
5, 7385, Note_on_c, 3, 30, 0
5, 7385, Note_on_c, 3, 33, 62
5, 7390, Note_on_c, 3, 33, 0
5, 7390, Note_on_c, 3, 38, 65
5, 7395, Note_on_c, 3, 38, 0
5, 7395, Note_on_c, 3, 50, 63
5, 7395, Note_on_c, 3, 42, 67
5, 7400, Note_on_c, 3, 42, 0
5, 7400, Note_on_c, 3, 50, 0
5, 7400, Note_on_c, 3, 57, 86
5, 7405, Note_on_c, 3, 57, 0
5, 7405, Note_on_c, 3, 60, 74
5, 7410, Note_on_c, 3, 60, 0
5, 7410, Note_on_c, 3, 62, 62
5, 7415, Note_on_c, 3, 62, 0
5, 7415, Note_on_c, 3, 60, 76
5, 7420, Note_on_c, 3, 60, 0
5, 7420, Note_on_c, 3, 57, 76
5, 7425, Note_on_c, 3, 57, 0
5, 7425, Note_on_c, 3, 60, 76
5, 7430, Note_on_c, 3, 60, 0
5, 7430, Note_on_c, 3, 57, 84
5, 7435, Note_on_c, 3, 57, 0
5, 7435, Note_on_c, 3, 50, 85
5, 7440, Note_on_c, 3, 50, 0
5, 7440, Note_on_c, 3, 42, 73
5, 7445, Note_on_c, 3, 42, 0
5, 7445, Note_on_c, 3, 45, 81
5, 7450, Note_on_c, 3, 45, 0
5, 7450, Note_on_c, 3, 50, 74
5, 7455, Note_on_c, 3, 50, 0
5, 7455, Note_on_c, 3, 62, 62
5, 7455, Note_on_c, 3, 54, 76
5, 7460, Note_on_c, 3, 54, 0
5, 7460, Note_on_c, 3, 62, 0
5, 7460, Note_on_c, 3, 69, 89
5, 7465, Note_on_c, 3, 69, 0
5, 7465, Note_on_c, 3, 72, 76
5, 7470, Note_on_c, 3, 72, 0
5, 7470, Note_on_c, 3, 74, 77
5, 7475, Note_on_c, 3, 74, 0
5, 7475, Note_on_c, 3, 72, 89
5, 7480, Note_on_c, 3, 72, 0
5, 7480, Note_on_c, 3, 69, 81
5, 7485, Note_on_c, 3, 69, 0
5, 7485, Note_on_c, 3, 72, 86
5, 7490, Note_on_c, 3, 72, 0
5, 7490, Note_on_c, 3, 69, 89
5, 7495, Note_on_c, 3, 69, 0
5, 7495, Note_on_c, 3, 62, 65
5, 7500, Note_on_c, 3, 62, 0
5, 7500, Note_on_c, 3, 54, 74
5, 7505, Note_on_c, 3, 54, 0
5, 7505, Note_on_c, 3, 57, 76
5, 7510, Note_on_c, 3, 57, 0
5, 7510, Note_on_c, 3, 62, 62
5, 7515, Note_on_c, 3, 62, 0
5, 7515, Note_on_c, 3, 74, 68
5, 7515, Note_on_c, 3, 66, 70
5, 7520, Note_on_c, 3, 66, 0
5, 7520, Note_on_c, 3, 74, 0
5, 7520, Note_on_c, 3, 81, 81
5, 7525, Note_on_c, 3, 81, 0
5, 7525, Note_on_c, 3, 84, 76
5, 7530, Note_on_c, 3, 84, 0
5, 7530, Control_c, 3, 64, 0
5, 7530, Note_on_c, 3, 86, 81
5, 7535, Note_on_c, 3, 86, 0
5, 7535, Note_on_c, 3, 84, 72
5, 7540, Note_on_c, 3, 84, 0
5, 7540, Note_on_c, 3, 81, 68
5, 7545, Note_on_c, 3, 81, 0
5, 7545, Note_on_c, 3, 84, 76
5, 7550, Note_on_c, 3, 84, 0
5, 7550, Note_on_c, 3, 81, 78
5, 7555, Note_on_c, 3, 81, 0
5, 7555, Note_on_c, 3, 74, 76
5, 7560, Note_on_c, 3, 74, 0
5, 7560, Control_c, 3, 64, 68
5, 7560, Note_on_c, 3, 31, 60
5, 7565, Note_on_c, 3, 31, 0
5, 7565, Note_on_c, 3, 35, 63
5, 7570, Note_on_c, 3, 35, 0
5, 7570, Note_on_c, 3, 38, 45
5, 7575, Note_on_c, 3, 38, 0
5, 7575, Note_on_c, 3, 47, 61
5, 7575, Note_on_c, 3, 43, 65
5, 7580, Note_on_c, 3, 43, 0
5, 7580, Note_on_c, 3, 47, 0
5, 7580, Note_on_c, 3, 50, 76
5, 7585, Note_on_c, 3, 50, 0
5, 7585, Note_on_c, 3, 55, 69
5, 7590, Note_on_c, 3, 55, 0
5, 7590, Note_on_c, 3, 59, 76
5, 7595, Note_on_c, 3, 59, 0
5, 7595, Note_on_c, 3, 55, 84
5, 7600, Note_on_c, 3, 55, 0
5, 7600, Note_on_c, 3, 50, 80
5, 7605, Note_on_c, 3, 50, 0
5, 7605, Note_on_c, 3, 55, 61
5, 7610, Note_on_c, 3, 55, 0
5, 7610, Note_on_c, 3, 50, 80
5, 7615, Note_on_c, 3, 50, 0
5, 7615, Note_on_c, 3, 47, 71
5, 7620, Note_on_c, 3, 47, 0
5, 7620, Note_on_c, 3, 43, 69
5, 7625, Note_on_c, 3, 43, 0
5, 7625, Note_on_c, 3, 47, 73
5, 7630, Note_on_c, 3, 47, 0
5, 7630, Note_on_c, 3, 50, 84
5, 7635, Note_on_c, 3, 50, 0
5, 7635, Note_on_c, 3, 59, 77
5, 7635, Note_on_c, 3, 55, 77
5, 7640, Note_on_c, 3, 55, 0
5, 7640, Note_on_c, 3, 59, 0
5, 7640, Note_on_c, 3, 62, 81
5, 7645, Note_on_c, 3, 62, 0
5, 7645, Note_on_c, 3, 67, 77
5, 7650, Note_on_c, 3, 67, 0
5, 7650, Note_on_c, 3, 71, 76
5, 7655, Note_on_c, 3, 71, 0
5, 7655, Note_on_c, 3, 67, 80
5, 7660, Note_on_c, 3, 67, 0
5, 7660, Note_on_c, 3, 62, 72
5, 7665, Note_on_c, 3, 62, 0
5, 7665, Note_on_c, 3, 67, 77
5, 7670, Note_on_c, 3, 67, 0
5, 7670, Note_on_c, 3, 62, 80
5, 7675, Note_on_c, 3, 62, 0
5, 7675, Note_on_c, 3, 59, 69
5, 7680, Note_on_c, 3, 59, 0
5, 7680, Note_on_c, 3, 53, 73
5, 7685, Note_on_c, 3, 53, 0
5, 7685, Note_on_c, 3, 57, 80
5, 7690, Note_on_c, 3, 57, 0
5, 7690, Note_on_c, 3, 62, 73
5, 7695, Note_on_c, 3, 62, 0
5, 7695, Note_on_c, 3, 69, 72
5, 7695, Note_on_c, 3, 65, 84
5, 7700, Note_on_c, 3, 65, 0
5, 7700, Note_on_c, 3, 69, 0
5, 7700, Note_on_c, 3, 74, 94
5, 7705, Note_on_c, 3, 74, 0
5, 7705, Note_on_c, 3, 77, 69
5, 7710, Note_on_c, 3, 77, 0
5, 7710, Control_c, 3, 64, 0
5, 7710, Note_on_c, 3, 81, 85
5, 7715, Note_on_c, 3, 81, 0
5, 7715, Note_on_c, 3, 77, 81
5, 7720, Note_on_c, 3, 77, 0
5, 7720, Note_on_c, 3, 74, 74
5, 7725, Note_on_c, 3, 74, 0
5, 7725, Note_on_c, 3, 77, 76
5, 7730, Note_on_c, 3, 77, 0
5, 7730, Note_on_c, 3, 74, 84
5, 7735, Note_on_c, 3, 74, 0
5, 7735, Note_on_c, 3, 69, 77
5, 7740, Note_on_c, 3, 69, 0
5, 7740, Control_c, 3, 64, 68
5, 7740, Note_on_c, 3, 40, 71
5, 7745, Note_on_c, 3, 40, 0
5, 7745, Note_on_c, 3, 47, 76
5, 7750, Note_on_c, 3, 47, 0
5, 7750, Note_on_c, 3, 50, 76
5, 7755, Note_on_c, 3, 50, 0
5, 7755, Note_on_c, 3, 56, 68
5, 7755, Note_on_c, 3, 52, 84
5, 7760, Note_on_c, 3, 52, 0
5, 7760, Note_on_c, 3, 56, 0
5, 7760, Note_on_c, 3, 59, 84
5, 7765, Note_on_c, 3, 59, 0
5, 7765, Note_on_c, 3, 62, 86
5, 7770, Note_on_c, 3, 62, 0
5, 7770, Note_on_c, 3, 68, 78
5, 7775, Note_on_c, 3, 68, 0
5, 7775, Note_on_c, 3, 62, 84
5, 7780, Note_on_c, 3, 62, 0
5, 7780, Note_on_c, 3, 59, 81
5, 7785, Note_on_c, 3, 59, 0
5, 7785, Note_on_c, 3, 62, 82
5, 7790, Note_on_c, 3, 62, 0
5, 7790, Note_on_c, 3, 59, 84
5, 7795, Note_on_c, 3, 59, 0
5, 7795, Note_on_c, 3, 56, 74
5, 7800, Note_on_c, 3, 56, 0
5, 7800, Note_on_c, 3, 52, 84
5, 7805, Note_on_c, 3, 52, 0
5, 7805, Note_on_c, 3, 59, 72
5, 7810, Note_on_c, 3, 59, 0
5, 7810, Note_on_c, 3, 62, 81
5, 7815, Note_on_c, 3, 62, 0
5, 7815, Note_on_c, 3, 68, 76
5, 7815, Note_on_c, 3, 64, 86
5, 7820, Note_on_c, 3, 64, 0
5, 7820, Note_on_c, 3, 68, 0
5, 7820, Note_on_c, 3, 71, 84
5, 7825, Note_on_c, 3, 71, 0
5, 7825, Note_on_c, 3, 74, 99
5, 7830, Note_on_c, 3, 74, 0
5, 7830, Note_on_c, 3, 80, 84
5, 7835, Note_on_c, 3, 80, 0
5, 7835, Note_on_c, 3, 74, 98
5, 7840, Note_on_c, 3, 74, 0
5, 7840, Note_on_c, 3, 71, 78
5, 7845, Note_on_c, 3, 71, 0
5, 7845, Note_on_c, 3, 74, 86
5, 7850, Note_on_c, 3, 74, 0
5, 7850, Note_on_c, 3, 71, 81
5, 7855, Note_on_c, 3, 71, 0
5, 7855, Note_on_c, 3, 68, 73
5, 7860, Note_on_c, 3, 68, 0
5, 7860, Note_on_c, 3, 56, 77
5, 7865, Note_on_c, 3, 56, 0
5, 7865, Note_on_c, 3, 59, 81
5, 7870, Note_on_c, 3, 59, 0
5, 7870, Note_on_c, 3, 64, 73
5, 7875, Note_on_c, 3, 64, 0
5, 7875, Note_on_c, 3, 76, 73
5, 7875, Note_on_c, 3, 68, 84
5, 7880, Note_on_c, 3, 68, 0
5, 7880, Note_on_c, 3, 76, 0
5, 7880, Note_on_c, 3, 83, 81
5, 7885, Note_on_c, 3, 83, 0
5, 7885, Note_on_c, 3, 86, 80
5, 7890, Note_on_c, 3, 86, 0
5, 7890, Control_c, 3, 64, 0
5, 7890, Note_on_c, 3, 88, 82
5, 7895, Note_on_c, 3, 88, 0
5, 7895, Note_on_c, 3, 86, 81
5, 7900, Note_on_c, 3, 86, 0
5, 7900, Note_on_c, 3, 83, 73
5, 7905, Note_on_c, 3, 83, 0
5, 7905, Note_on_c, 3, 86, 85
5, 7910, Note_on_c, 3, 86, 0
5, 7910, Note_on_c, 3, 83, 81
5, 7915, Note_on_c, 3, 83, 0
5, 7915, Note_on_c, 3, 76, 76
5, 7920, Note_on_c, 3, 76, 0
5, 7920, Control_c, 3, 64, 68
5, 7920, Note_on_c, 3, 33, 76
5, 7925, Note_on_c, 3, 33, 0
5, 7925, Note_on_c, 3, 36, 64
5, 7930, Note_on_c, 3, 36, 0
5, 7930, Note_on_c, 3, 40, 49
5, 7935, Note_on_c, 3, 40, 0
5, 7935, Note_on_c, 3, 48, 63
5, 7935, Note_on_c, 3, 45, 70
5, 7940, Note_on_c, 3, 45, 0
5, 7940, Note_on_c, 3, 48, 0
5, 7940, Note_on_c, 3, 52, 76
5, 7945, Note_on_c, 3, 52, 0
5, 7945, Note_on_c, 3, 57, 84
5, 7950, Note_on_c, 3, 57, 0
5, 7950, Note_on_c, 3, 60, 65
5, 7955, Note_on_c, 3, 60, 0
5, 7955, Note_on_c, 3, 57, 67
5, 7960, Note_on_c, 3, 57, 0
5, 7960, Note_on_c, 3, 52, 69
5, 7965, Note_on_c, 3, 52, 0
5, 7965, Note_on_c, 3, 57, 74
5, 7970, Note_on_c, 3, 57, 0
5, 7970, Note_on_c, 3, 52, 65
5, 7975, Note_on_c, 3, 52, 0
5, 7975, Note_on_c, 3, 48, 55
5, 7980, Note_on_c, 3, 48, 0
5, 7980, Note_on_c, 3, 45, 77
5, 7985, Note_on_c, 3, 45, 0
5, 7985, Note_on_c, 3, 48, 55
5, 7990, Note_on_c, 3, 48, 0
5, 7990, Note_on_c, 3, 52, 74
5, 7995, Note_on_c, 3, 52, 0
5, 7995, Note_on_c, 3, 60, 59
5, 7995, Note_on_c, 3, 57, 82
5, 8000, Note_on_c, 3, 57, 0
5, 8000, Note_on_c, 3, 60, 0
5, 8000, Note_on_c, 3, 64, 65
5, 8005, Note_on_c, 3, 64, 0
5, 8005, Note_on_c, 3, 69, 74
5, 8010, Note_on_c, 3, 69, 0
5, 8010, Note_on_c, 3, 72, 76
5, 8015, Note_on_c, 3, 72, 0
5, 8015, Note_on_c, 3, 69, 76
5, 8020, Note_on_c, 3, 69, 0
5, 8020, Note_on_c, 3, 64, 72
5, 8025, Note_on_c, 3, 64, 0
5, 8025, Note_on_c, 3, 69, 81
5, 8030, Note_on_c, 3, 69, 0
5, 8030, Note_on_c, 3, 64, 85
5, 8035, Note_on_c, 3, 64, 0
5, 8035, Note_on_c, 3, 60, 62
5, 8040, Note_on_c, 3, 60, 0
5, 8040, Note_on_c, 3, 57, 85
5, 8045, Note_on_c, 3, 57, 0
5, 8045, Note_on_c, 3, 60, 67
5, 8050, Note_on_c, 3, 60, 0
5, 8050, Note_on_c, 3, 64, 72
5, 8055, Note_on_c, 3, 64, 0
5, 8055, Note_on_c, 3, 72, 68
5, 8055, Note_on_c, 3, 69, 89
5, 8060, Note_on_c, 3, 69, 0
5, 8060, Note_on_c, 3, 72, 0
5, 8060, Note_on_c, 3, 76, 71
5, 8065, Note_on_c, 3, 76, 0
5, 8065, Note_on_c, 3, 81, 77
5, 8070, Note_on_c, 3, 81, 0
5, 8070, Control_c, 3, 64, 0
5, 8070, Note_on_c, 3, 84, 80
5, 8075, Note_on_c, 3, 84, 0
5, 8075, Note_on_c, 3, 81, 74
5, 8080, Note_on_c, 3, 81, 0
5, 8080, Note_on_c, 3, 76, 74
5, 8085, Note_on_c, 3, 76, 0
5, 8085, Note_on_c, 3, 81, 84
5, 8090, Note_on_c, 3, 81, 0
5, 8090, Note_on_c, 3, 76, 86
5, 8095, Note_on_c, 3, 76, 0
5, 8095, Note_on_c, 3, 72, 89
5, 8100, Note_on_c, 3, 72, 0
5, 8100, Control_c, 3, 64, 69
5, 8100, Note_on_c, 3, 30, 69
5, 8103, Note_on_c, 3, 33, 80
5, 8104, Note_on_c, 3, 30, 0
5, 8107, Note_on_c, 3, 33, 0
5, 8107, Note_on_c, 3, 36, 65
5, 8110, Note_on_c, 3, 39, 72
5, 8111, Note_on_c, 3, 36, 0
5, 8114, Note_on_c, 3, 39, 0
5, 8114, Note_on_c, 3, 45, 53
5, 8114, Note_on_c, 3, 42, 72
5, 8119, Note_on_c, 3, 42, 0
5, 8119, Note_on_c, 3, 45, 0
5, 8119, Note_on_c, 3, 48, 74
5, 8124, Note_on_c, 3, 48, 0
5, 8124, Note_on_c, 3, 51, 58
5, 8129, Note_on_c, 3, 51, 0
5, 8129, Note_on_c, 3, 57, 93
5, 8134, Note_on_c, 3, 57, 0
5, 8134, Note_on_c, 3, 51, 80
5, 8139, Note_on_c, 3, 51, 0
5, 8139, Note_on_c, 3, 48, 64
5, 8144, Note_on_c, 3, 48, 0
5, 8144, Note_on_c, 3, 51, 80
5, 8149, Note_on_c, 3, 51, 0
5, 8149, Note_on_c, 3, 48, 72
5, 8154, Note_on_c, 3, 48, 0
5, 8154, Note_on_c, 3, 45, 84
5, 8159, Note_on_c, 3, 45, 0
5, 8160, Note_on_c, 3, 42, 72
5, 8163, Note_on_c, 3, 45, 89
5, 8164, Note_on_c, 3, 42, 0
5, 8167, Note_on_c, 3, 45, 0
5, 8167, Note_on_c, 3, 48, 89
5, 8170, Note_on_c, 3, 51, 73
5, 8171, Note_on_c, 3, 48, 0
5, 8174, Note_on_c, 3, 51, 0
5, 8174, Note_on_c, 3, 57, 69
5, 8174, Note_on_c, 3, 54, 68
5, 8179, Note_on_c, 3, 54, 0
5, 8179, Note_on_c, 3, 57, 0
5, 8179, Note_on_c, 3, 60, 45
5, 8184, Note_on_c, 3, 60, 0
5, 8184, Note_on_c, 3, 63, 64
5, 8189, Note_on_c, 3, 63, 0
5, 8189, Note_on_c, 3, 69, 84
5, 8194, Note_on_c, 3, 69, 0
5, 8194, Note_on_c, 3, 63, 74
5, 8199, Note_on_c, 3, 63, 0
5, 8199, Note_on_c, 3, 60, 67
5, 8204, Note_on_c, 3, 60, 0
5, 8204, Note_on_c, 3, 63, 71
5, 8209, Note_on_c, 3, 63, 0
5, 8209, Note_on_c, 3, 60, 73
5, 8214, Note_on_c, 3, 60, 0
5, 8214, Note_on_c, 3, 57, 78
5, 8219, Note_on_c, 3, 57, 0
5, 8220, Control_c, 3, 64, 0
5, 8220, Note_on_c, 3, 52, 76
5, 8225, Note_on_c, 3, 52, 0
5, 8225, Note_on_c, 3, 57, 68
5, 8230, Note_on_c, 3, 57, 0
5, 8230, Note_on_c, 3, 60, 61
5, 8235, Note_on_c, 3, 60, 0
5, 8235, Note_on_c, 3, 69, 65
5, 8235, Note_on_c, 3, 64, 82
5, 8240, Note_on_c, 3, 64, 0
5, 8240, Note_on_c, 3, 69, 0
5, 8240, Note_on_c, 3, 72, 85
5, 8245, Note_on_c, 3, 72, 0
5, 8245, Note_on_c, 3, 76, 71
5, 8250, Note_on_c, 3, 76, 0
5, 8250, Note_on_c, 3, 81, 72
5, 8255, Note_on_c, 3, 81, 0
5, 8255, Note_on_c, 3, 76, 84
5, 8260, Note_on_c, 3, 76, 0
5, 8260, Note_on_c, 3, 72, 81
5, 8265, Note_on_c, 3, 72, 0
5, 8265, Note_on_c, 3, 76, 68
5, 8270, Note_on_c, 3, 76, 0
5, 8270, Note_on_c, 3, 72, 86
5, 8275, Note_on_c, 3, 72, 0
5, 8275, Note_on_c, 3, 69, 65
5, 8280, Note_on_c, 3, 69, 0
5, 8280, Control_c, 3, 64, 68
5, 8280, Note_on_c, 3, 39, 76
5, 8285, Note_on_c, 3, 39, 0
5, 8285, Note_on_c, 3, 45, 76
5, 8290, Note_on_c, 3, 45, 0
5, 8290, Note_on_c, 3, 48, 51
5, 8295, Note_on_c, 3, 48, 0
5, 8295, Note_on_c, 3, 57, 46
5, 8295, Note_on_c, 3, 51, 72
5, 8300, Note_on_c, 3, 51, 0
5, 8300, Note_on_c, 3, 57, 0
5, 8300, Note_on_c, 3, 60, 64
5, 8305, Note_on_c, 3, 60, 0
5, 8305, Note_on_c, 3, 66, 71
5, 8310, Note_on_c, 3, 66, 0
5, 8310, Note_on_c, 3, 69, 80
5, 8315, Note_on_c, 3, 69, 0
5, 8315, Note_on_c, 3, 66, 81
5, 8320, Note_on_c, 3, 66, 0
5, 8320, Note_on_c, 3, 60, 67
5, 8325, Note_on_c, 3, 60, 0
5, 8325, Note_on_c, 3, 66, 47
5, 8330, Note_on_c, 3, 66, 0
5, 8330, Note_on_c, 3, 60, 78
5, 8335, Note_on_c, 3, 60, 0
5, 8335, Note_on_c, 3, 57, 72
5, 8340, Note_on_c, 3, 57, 0
5, 8340, Note_on_c, 3, 51, 71
5, 8345, Note_on_c, 3, 51, 0
5, 8345, Note_on_c, 3, 57, 76
5, 8350, Note_on_c, 3, 57, 0
5, 8350, Note_on_c, 3, 60, 71
5, 8355, Note_on_c, 3, 60, 0
5, 8355, Note_on_c, 3, 69, 76
5, 8355, Note_on_c, 3, 66, 80
5, 8360, Note_on_c, 3, 66, 0
5, 8360, Note_on_c, 3, 69, 0
5, 8360, Note_on_c, 3, 72, 78
5, 8365, Note_on_c, 3, 72, 0
5, 8365, Note_on_c, 3, 78, 73
5, 8370, Note_on_c, 3, 78, 0
5, 8370, Note_on_c, 3, 81, 84
5, 8375, Note_on_c, 3, 81, 0
5, 8375, Note_on_c, 3, 78, 80
5, 8380, Note_on_c, 3, 78, 0
5, 8380, Note_on_c, 3, 72, 86
5, 8385, Note_on_c, 3, 72, 0
5, 8385, Note_on_c, 3, 78, 43
5, 8390, Note_on_c, 3, 78, 0
5, 8390, Note_on_c, 3, 72, 86
5, 8395, Note_on_c, 3, 72, 0
5, 8395, Note_on_c, 3, 69, 76
5, 8400, Note_on_c, 3, 69, 0
5, 8400, Control_c, 3, 64, 0
5, 8400, Note_on_c, 3, 52, 65
5, 8405, Note_on_c, 3, 52, 0
5, 8405, Note_on_c, 3, 57, 80
5, 8410, Note_on_c, 3, 57, 0
5, 8410, Note_on_c, 3, 60, 73
5, 8415, Note_on_c, 3, 60, 0
5, 8415, Note_on_c, 3, 69, 65
5, 8415, Note_on_c, 3, 64, 81
5, 8420, Note_on_c, 3, 64, 0
5, 8420, Note_on_c, 3, 69, 0
5, 8420, Note_on_c, 3, 72, 81
5, 8425, Note_on_c, 3, 72, 0
5, 8425, Note_on_c, 3, 76, 61
5, 8430, Note_on_c, 3, 76, 0
5, 8430, Note_on_c, 3, 81, 64
5, 8435, Note_on_c, 3, 81, 0
5, 8435, Note_on_c, 3, 76, 63
5, 8440, Note_on_c, 3, 76, 0
5, 8440, Note_on_c, 3, 72, 78
5, 8445, Note_on_c, 3, 72, 0
5, 8445, Note_on_c, 3, 76, 54
5, 8450, Note_on_c, 3, 76, 0
5, 8450, Note_on_c, 3, 72, 94
5, 8455, Note_on_c, 3, 72, 0
5, 8455, Note_on_c, 3, 69, 76
5, 8455, Control_c, 3, 64, 68
5, 8460, Note_on_c, 3, 69, 0
5, 8460, Note_on_c, 3, 30, 73
5, 8463, Note_on_c, 3, 33, 71
5, 8464, Note_on_c, 3, 30, 0
5, 8467, Note_on_c, 3, 33, 0
5, 8467, Note_on_c, 3, 36, 57
5, 8470, Note_on_c, 3, 39, 76
5, 8471, Note_on_c, 3, 36, 0
5, 8474, Note_on_c, 3, 39, 0
5, 8475, Note_on_c, 3, 45, 73
5, 8475, Note_on_c, 3, 42, 70
5, 8480, Note_on_c, 3, 42, 0
5, 8480, Note_on_c, 3, 45, 0
5, 8480, Note_on_c, 3, 48, 78
5, 8485, Note_on_c, 3, 48, 0
5, 8485, Note_on_c, 3, 51, 76
5, 8490, Note_on_c, 3, 51, 0
5, 8490, Note_on_c, 3, 57, 93
5, 8495, Note_on_c, 3, 57, 0
5, 8495, Note_on_c, 3, 51, 78
5, 8500, Note_on_c, 3, 51, 0
5, 8500, Note_on_c, 3, 48, 67
5, 8505, Note_on_c, 3, 48, 0
5, 8505, Note_on_c, 3, 51, 81
5, 8510, Note_on_c, 3, 51, 0
5, 8510, Note_on_c, 3, 48, 68
5, 8515, Note_on_c, 3, 48, 0
5, 8515, Note_on_c, 3, 45, 57
5, 8520, Note_on_c, 3, 45, 0
5, 8520, Note_on_c, 3, 42, 81
5, 8523, Note_on_c, 3, 45, 82
5, 8524, Note_on_c, 3, 42, 0
5, 8527, Note_on_c, 3, 45, 0
5, 8527, Note_on_c, 3, 48, 61
5, 8530, Note_on_c, 3, 51, 81
5, 8531, Note_on_c, 3, 48, 0
5, 8534, Note_on_c, 3, 51, 0
5, 8534, Note_on_c, 3, 57, 65
5, 8534, Note_on_c, 3, 54, 68
5, 8539, Note_on_c, 3, 54, 0
5, 8539, Note_on_c, 3, 57, 0
5, 8539, Note_on_c, 3, 60, 68
5, 8544, Note_on_c, 3, 60, 0
5, 8544, Note_on_c, 3, 63, 64
5, 8549, Note_on_c, 3, 63, 0
5, 8549, Note_on_c, 3, 69, 76
5, 8554, Note_on_c, 3, 69, 0
5, 8554, Note_on_c, 3, 63, 59
5, 8559, Note_on_c, 3, 63, 0
5, 8559, Note_on_c, 3, 60, 60
5, 8564, Note_on_c, 3, 60, 0
5, 8564, Note_on_c, 3, 63, 62
5, 8569, Note_on_c, 3, 63, 0
5, 8569, Note_on_c, 3, 60, 64
5, 8574, Note_on_c, 3, 60, 0
5, 8574, Note_on_c, 3, 57, 64
5, 8579, Note_on_c, 3, 57, 0
5, 8580, Control_c, 3, 64, 0
5, 8580, Note_on_c, 3, 52, 80
5, 8585, Note_on_c, 3, 52, 0
5, 8585, Note_on_c, 3, 57, 89
5, 8590, Note_on_c, 3, 57, 0
5, 8590, Note_on_c, 3, 60, 52
5, 8595, Note_on_c, 3, 60, 0
5, 8595, Note_on_c, 3, 69, 63
5, 8595, Note_on_c, 3, 64, 82
5, 8600, Note_on_c, 3, 64, 0
5, 8600, Note_on_c, 3, 69, 0
5, 8600, Note_on_c, 3, 72, 72
5, 8605, Note_on_c, 3, 72, 0
5, 8605, Note_on_c, 3, 76, 73
5, 8610, Note_on_c, 3, 76, 0
5, 8610, Note_on_c, 3, 81, 71
5, 8615, Note_on_c, 3, 81, 0
5, 8615, Note_on_c, 3, 76, 72
5, 8620, Note_on_c, 3, 76, 0
5, 8620, Note_on_c, 3, 72, 81
5, 8625, Note_on_c, 3, 72, 0
5, 8625, Note_on_c, 3, 76, 65
5, 8630, Note_on_c, 3, 76, 0
5, 8630, Note_on_c, 3, 72, 85
5, 8635, Note_on_c, 3, 72, 0
5, 8635, Note_on_c, 3, 69, 65
5, 8635, Control_c, 3, 64, 68
5, 8640, Note_on_c, 3, 69, 0
5, 8640, Note_on_c, 3, 51, 82
5, 8645, Note_on_c, 3, 51, 0
5, 8645, Note_on_c, 3, 57, 86
5, 8650, Note_on_c, 3, 57, 0
5, 8650, Note_on_c, 3, 60, 71
5, 8655, Note_on_c, 3, 60, 0
5, 8655, Note_on_c, 3, 69, 76
5, 8655, Note_on_c, 3, 63, 84
5, 8660, Note_on_c, 3, 63, 0
5, 8660, Note_on_c, 3, 69, 0
5, 8660, Note_on_c, 3, 72, 80
5, 8665, Note_on_c, 3, 72, 0
5, 8665, Note_on_c, 3, 78, 69
5, 8670, Note_on_c, 3, 78, 0
5, 8670, Note_on_c, 3, 81, 76
5, 8675, Note_on_c, 3, 81, 0
5, 8675, Note_on_c, 3, 78, 77
5, 8680, Note_on_c, 3, 78, 0
5, 8680, Note_on_c, 3, 72, 86
5, 8685, Note_on_c, 3, 72, 0
5, 8685, Note_on_c, 3, 78, 60
5, 8690, Note_on_c, 3, 78, 0
5, 8690, Note_on_c, 3, 72, 85
5, 8695, Note_on_c, 3, 72, 0
5, 8695, Note_on_c, 3, 69, 77
5, 8700, Note_on_c, 3, 69, 0
5, 8700, Note_on_c, 3, 51, 74
5, 8705, Note_on_c, 3, 51, 0
5, 8705, Note_on_c, 3, 57, 82
5, 8710, Note_on_c, 3, 57, 0
5, 8710, Note_on_c, 3, 60, 65
5, 8715, Note_on_c, 3, 60, 0
5, 8715, Note_on_c, 3, 69, 73
5, 8715, Note_on_c, 3, 63, 78
5, 8720, Note_on_c, 3, 63, 0
5, 8720, Note_on_c, 3, 69, 0
5, 8720, Note_on_c, 3, 72, 74
5, 8725, Note_on_c, 3, 72, 0
5, 8725, Note_on_c, 3, 78, 65
5, 8730, Note_on_c, 3, 78, 0
5, 8730, Note_on_c, 3, 81, 74
5, 8735, Note_on_c, 3, 81, 0
5, 8735, Note_on_c, 3, 78, 78
5, 8740, Note_on_c, 3, 78, 0
5, 8740, Note_on_c, 3, 72, 85
5, 8745, Note_on_c, 3, 72, 0
5, 8745, Note_on_c, 3, 78, 35
5, 8750, Note_on_c, 3, 78, 0
5, 8750, Note_on_c, 3, 72, 85
5, 8755, Note_on_c, 3, 72, 0
5, 8755, Note_on_c, 3, 69, 65
5, 8760, Note_on_c, 3, 69, 0
5, 8760, Note_on_c, 3, 51, 81
5, 8765, Note_on_c, 3, 51, 0
5, 8765, Note_on_c, 3, 57, 82
5, 8770, Note_on_c, 3, 57, 0
5, 8770, Note_on_c, 3, 60, 52
5, 8775, Note_on_c, 3, 60, 0
5, 8775, Note_on_c, 3, 69, 65
5, 8775, Note_on_c, 3, 63, 80
5, 8780, Note_on_c, 3, 63, 0
5, 8780, Note_on_c, 3, 69, 0
5, 8780, Note_on_c, 3, 72, 74
5, 8785, Note_on_c, 3, 72, 0
5, 8785, Note_on_c, 3, 78, 61
5, 8790, Note_on_c, 3, 78, 0
5, 8790, Control_c, 3, 64, 0
5, 8790, Note_on_c, 3, 81, 73
5, 8795, Note_on_c, 3, 81, 0
5, 8795, Note_on_c, 3, 78, 76
5, 8800, Note_on_c, 3, 78, 0
5, 8800, Note_on_c, 3, 72, 84
5, 8805, Note_on_c, 3, 72, 0
5, 8805, Note_on_c, 3, 78, 55
5, 8810, Note_on_c, 3, 78, 0
5, 8810, Note_on_c, 3, 72, 80
5, 8815, Note_on_c, 3, 72, 0
5, 8815, Note_on_c, 3, 69, 70
5, 8820, Note_on_c, 3, 69, 0
5, 8820, Control_c, 3, 64, 68
5, 8820, Note_on_c, 3, 51, 72
5, 8825, Note_on_c, 3, 51, 0
5, 8825, Note_on_c, 3, 57, 81
5, 8830, Note_on_c, 3, 57, 0
5, 8830, Note_on_c, 3, 59, 74
5, 8835, Note_on_c, 3, 59, 0
5, 8835, Note_on_c, 3, 69, 73
5, 8835, Note_on_c, 3, 63, 76
5, 8840, Note_on_c, 3, 63, 0
5, 8840, Note_on_c, 3, 69, 0
5, 8840, Note_on_c, 3, 71, 76
5, 8845, Note_on_c, 3, 71, 0
5, 8845, Note_on_c, 3, 78, 72
5, 8850, Note_on_c, 3, 78, 0
5, 8850, Note_on_c, 3, 81, 76
5, 8855, Note_on_c, 3, 81, 0
5, 8855, Note_on_c, 3, 78, 78
5, 8860, Note_on_c, 3, 78, 0
5, 8860, Note_on_c, 3, 71, 81
5, 8865, Note_on_c, 3, 71, 0
5, 8865, Note_on_c, 3, 78, 80
5, 8870, Note_on_c, 3, 78, 0
5, 8870, Note_on_c, 3, 71, 84
5, 8875, Note_on_c, 3, 71, 0
5, 8875, Note_on_c, 3, 69, 81
5, 8880, Note_on_c, 3, 69, 0
5, 8880, Note_on_c, 3, 51, 85
5, 8885, Note_on_c, 3, 51, 0
5, 8885, Note_on_c, 3, 57, 90
5, 8890, Note_on_c, 3, 57, 0
5, 8890, Note_on_c, 3, 59, 73
5, 8895, Note_on_c, 3, 59, 0
5, 8895, Note_on_c, 3, 69, 78
5, 8895, Note_on_c, 3, 63, 84
5, 8900, Note_on_c, 3, 63, 0
5, 8900, Note_on_c, 3, 69, 0
5, 8900, Note_on_c, 3, 71, 76
5, 8905, Note_on_c, 3, 71, 0
5, 8905, Note_on_c, 3, 78, 68
5, 8910, Note_on_c, 3, 78, 0
5, 8910, Note_on_c, 3, 81, 80
5, 8915, Note_on_c, 3, 81, 0
5, 8915, Note_on_c, 3, 78, 76
5, 8920, Note_on_c, 3, 78, 0
5, 8920, Note_on_c, 3, 71, 76
5, 8925, Note_on_c, 3, 71, 0
5, 8925, Note_on_c, 3, 78, 80
5, 8930, Note_on_c, 3, 78, 0
5, 8930, Note_on_c, 3, 71, 78
5, 8935, Note_on_c, 3, 71, 0
5, 8935, Note_on_c, 3, 69, 82
5, 8940, Note_on_c, 3, 69, 0
5, 8940, Note_on_c, 3, 51, 80
5, 8945, Note_on_c, 3, 51, 0
5, 8945, Note_on_c, 3, 57, 81
5, 8950, Note_on_c, 3, 57, 0
5, 8950, Note_on_c, 3, 59, 70
5, 8955, Note_on_c, 3, 59, 0
5, 8955, Note_on_c, 3, 63, 74
5, 8960, Note_on_c, 3, 63, 0
5, 8960, Note_on_c, 3, 69, 66
5, 8965, Note_on_c, 3, 69, 0
5, 8965, Note_on_c, 3, 71, 82
5, 8970, Note_on_c, 3, 71, 0
5, 8970, Note_on_c, 3, 75, 78
5, 8975, Note_on_c, 3, 75, 0
5, 8975, Note_on_c, 3, 78, 59
5, 8980, Note_on_c, 3, 78, 0
5, 8980, Note_on_c, 3, 81, 84
5, 8985, Note_on_c, 3, 81, 0
5, 8985, Note_on_c, 3, 83, 93
5, 8990, Note_on_c, 3, 83, 0
5, 8990, Note_on_c, 3, 87, 80
5, 8995, Note_on_c, 3, 87, 0
5, 8995, Note_on_c, 3, 90, 76
5, 9000, Note_on_c, 3, 90, 0
5, 9000, Note_on_c, 3, 93, 53
5, 9000, Note_on_c, 3, 57, 40
5, 9000, Note_on_c, 3, 54, 38
5, 9000, Note_on_c, 3, 51, 40
5, 9000, Note_on_c, 3, 47, 43
5, 9005, Note_on_c, 3, 93, 0
5, 9010, Note_on_c, 3, 92, 65
5, 9015, Note_on_c, 3, 92, 0
5, 9020, Note_on_c, 3, 90, 62
5, 9025, Note_on_c, 3, 90, 0
5, 9030, Note_on_c, 3, 51, 0
5, 9030, Note_on_c, 3, 57, 0
5, 9030, Note_on_c, 3, 54, 0
5, 9030, Note_on_c, 3, 47, 0
5, 9030, Control_c, 3, 64, 0
5, 9030, Note_on_c, 3, 88, 53
5, 9035, Note_on_c, 3, 88, 0
5, 9040, Note_on_c, 3, 87, 58
5, 9045, Note_on_c, 3, 87, 0
5, 9050, Note_on_c, 3, 85, 48
5, 9055, Note_on_c, 3, 85, 0
5, 9060, Note_on_c, 3, 83, 50
5, 9065, Note_on_c, 3, 83, 0
5, 9070, Note_on_c, 3, 81, 54
5, 9075, Note_on_c, 3, 81, 0
5, 9080, Note_on_c, 3, 80, 51
5, 9085, Note_on_c, 3, 80, 0
5, 9090, Note_on_c, 3, 78, 58
5, 9095, Note_on_c, 3, 78, 0
5, 9100, Note_on_c, 3, 76, 41
5, 9105, Note_on_c, 3, 76, 0
5, 9110, Note_on_c, 3, 75, 50
5, 9115, Note_on_c, 3, 75, 0
5, 9120, Note_on_c, 3, 73, 63
5, 9125, Note_on_c, 3, 73, 0
5, 9130, Note_on_c, 3, 71, 43
5, 9135, Note_on_c, 3, 71, 0
5, 9140, Note_on_c, 3, 69, 50
5, 9145, Note_on_c, 3, 69, 0
5, 9150, Note_on_c, 3, 68, 46
5, 9155, Note_on_c, 3, 68, 0
5, 9160, Note_on_c, 3, 66, 61
5, 9165, Note_on_c, 3, 66, 0
5, 9170, Note_on_c, 3, 64, 66
5, 9175, Note_on_c, 3, 64, 0
5, 9180, Note_on_c, 3, 63, 29
5, 9185, Note_on_c, 3, 63, 0
5, 9190, Note_on_c, 3, 61, 43
5, 9195, Note_on_c, 3, 61, 0
5, 9200, Note_on_c, 3, 59, 58
5, 9205, Note_on_c, 3, 59, 0
5, 9210, Note_on_c, 3, 57, 53
5, 9214, Note_on_c, 3, 57, 0
5, 9218, Note_on_c, 3, 56, 43
5, 9222, Note_on_c, 3, 56, 0
5, 9225, Note_on_c, 3, 54, 40
5, 9229, Note_on_c, 3, 54, 0
5, 9232, Note_on_c, 3, 52, 56
5, 9236, Note_on_c, 3, 52, 0
5, 9240, Note_on_c, 3, 51, 43
5, 9248, Note_on_c, 3, 51, 0
5, 9255, Note_on_c, 3, 49, 50
5, 9263, Note_on_c, 3, 49, 0
5, 9270, Note_on_c, 3, 47, 53
5, 9278, Note_on_c, 3, 47, 0
5, 9285, Note_on_c, 3, 46, 62
5, 9293, Note_on_c, 3, 46, 0
5, 9300, Note_on_c, 3, 47, 46
5, 9308, Note_on_c, 3, 47, 0
5, 9315, Note_on_c, 3, 63, 58
5, 9315, Note_on_c, 3, 59, 80
5, 9315, Note_on_c, 3, 54, 42
5, 9315, Note_on_c, 3, 47, 50
5, 9315, Note_on_c, 3, 45, 51
5, 9323, Note_on_c, 3, 45, 0
5, 9323, Note_on_c, 3, 54, 0
5, 9323, Note_on_c, 3, 63, 0
5, 9323, Note_on_c, 3, 59, 0
5, 9323, Note_on_c, 3, 47, 0
5, 9330, Note_on_c, 3, 64, 93
5, 9330, Note_on_c, 3, 59, 94
5, 9330, Note_on_c, 3, 56, 58
5, 9330, Note_on_c, 3, 47, 64
5, 9330, Note_on_c, 3, 44, 69
5, 9338, Note_on_c, 3, 44, 0
5, 9338, Note_on_c, 3, 56, 0
5, 9338, Note_on_c, 3, 64, 0
5, 9338, Note_on_c, 3, 59, 0
5, 9338, Note_on_c, 3, 47, 0
5, 9345, Note_on_c, 3, 66, 84
5, 9345, Note_on_c, 3, 63, 73
5, 9345, Note_on_c, 3, 57, 84
5, 9345, Note_on_c, 3, 47, 76
5, 9345, Note_on_c, 3, 42, 78
5, 9353, Note_on_c, 3, 42, 0
5, 9353, Note_on_c, 3, 57, 0
5, 9353, Note_on_c, 3, 66, 0
5, 9353, Note_on_c, 3, 63, 0
5, 9353, Note_on_c, 3, 47, 0
5, 9360, Control_c, 3, 64, 68
5, 9360, Note_on_c, 3, 68, 43
5, 9360, Note_on_c, 3, 64, 40
5, 9360, Note_on_c, 3, 59, 42
5, 9360, Note_on_c, 3, 56, 43
5, 9360, Note_on_c, 3, 52, 43
5, 9360, Note_on_c, 3, 47, 39
5, 9360, Note_on_c, 3, 40, 42
5, 9480, Note_on_c, 3, 40, 0
5, 9480, Note_on_c, 3, 52, 0
5, 9480, Note_on_c, 3, 64, 0
5, 9480, Note_on_c, 3, 59, 0
5, 9480, Note_on_c, 3, 68, 0
5, 9480, Note_on_c, 3, 47, 0
5, 9480, Note_on_c, 3, 56, 0
5, 9480, Note_on_c, 3, 69, 44
5, 9480, Note_on_c, 3, 66, 40
5, 9480, Note_on_c, 3, 59, 43
5, 9480, Note_on_c, 3, 51, 43
5, 9480, Note_on_c, 3, 47, 29
5, 9480, Note_on_c, 3, 39, 31
5, 9525, Note_on_c, 3, 39, 0
5, 9525, Note_on_c, 3, 66, 0
5, 9525, Note_on_c, 3, 59, 0
5, 9525, Note_on_c, 3, 69, 0
5, 9525, Note_on_c, 3, 47, 0
5, 9525, Note_on_c, 3, 51, 0
5, 9525, Note_on_c, 3, 68, 44
5, 9525, Note_on_c, 3, 64, 47
5, 9525, Note_on_c, 3, 59, 43
5, 9525, Note_on_c, 3, 52, 40
5, 9525, Note_on_c, 3, 47, 35
5, 9525, Note_on_c, 3, 40, 43
5, 9540, Note_on_c, 3, 40, 0
5, 9540, Note_on_c, 3, 64, 0
5, 9540, Note_on_c, 3, 59, 0
5, 9540, Note_on_c, 3, 68, 0
5, 9540, Note_on_c, 3, 47, 0
5, 9540, Note_on_c, 3, 52, 0
5, 9540, Note_on_c, 3, 68, 43
5, 9540, Note_on_c, 3, 63, 38
5, 9540, Note_on_c, 3, 57, 39
5, 9540, Note_on_c, 3, 47, 46
5, 9540, Note_on_c, 3, 35, 43
5, 9562, Note_on_c, 3, 66, 31
5, 9563, Note_on_c, 3, 68, 0
5, 9570, Note_on_c, 3, 66, 0
5, 9570, Note_on_c, 3, 64, 45
5, 9585, Note_on_c, 3, 64, 0
5, 9585, Note_on_c, 3, 68, 45
5, 9592, Note_on_c, 3, 66, 43
5, 9593, Note_on_c, 3, 68, 0
5, 9600, Note_on_c, 3, 57, 0
5, 9600, Note_on_c, 3, 47, 0
5, 9600, Note_on_c, 3, 63, 0
5, 9600, Note_on_c, 3, 66, 0
5, 9600, Note_on_c, 3, 35, 0
5, 9600, Note_on_c, 3, 64, 39
5, 9600, Note_on_c, 3, 61, 29
5, 9600, Note_on_c, 3, 56, 29
5, 9600, Note_on_c, 3, 49, 40
5, 9600, Note_on_c, 3, 37, 34
5, 9622, Note_on_c, 3, 76, 46
5, 9622, Note_on_c, 3, 64, 66
5, 9630, Note_on_c, 3, 64, 0
5, 9630, Note_on_c, 3, 37, 0
5, 9630, Note_on_c, 3, 61, 0
5, 9630, Note_on_c, 3, 56, 0
5, 9630, Note_on_c, 3, 64, 0
5, 9630, Note_on_c, 3, 76, 0
5, 9630, Note_on_c, 3, 49, 0
5, 9630, Note_on_c, 3, 88, 50
5, 9630, Note_on_c, 3, 76, 63
5, 9645, Control_c, 3, 64, 0
5, 9675, Note_on_c, 3, 76, 0
5, 9675, Note_on_c, 3, 88, 0
5, 9675, Note_on_c, 3, 87, 53
5, 9675, Note_on_c, 3, 75, 64
5, 9682, Note_on_c, 3, 85, 46
5, 9682, Note_on_c, 3, 73, 49
5, 9683, Note_on_c, 3, 75, 0
5, 9683, Note_on_c, 3, 87, 0
5, 9690, Note_on_c, 3, 85, 0
5, 9690, Note_on_c, 3, 73, 0
5, 9690, Note_on_c, 3, 85, 55
5, 9690, Note_on_c, 3, 73, 48
5, 9697, Note_on_c, 3, 83, 51
5, 9697, Note_on_c, 3, 71, 69
5, 9698, Note_on_c, 3, 73, 0
5, 9698, Note_on_c, 3, 85, 0
5, 9705, Note_on_c, 3, 83, 0
5, 9705, Note_on_c, 3, 71, 0
5, 9705, Note_on_c, 3, 81, 41
5, 9705, Note_on_c, 3, 69, 65
5, 9709, Note_on_c, 3, 69, 0
5, 9709, Note_on_c, 3, 81, 0
5, 9711, Note_on_c, 3, 80, 59
5, 9711, Note_on_c, 3, 68, 56
5, 9715, Note_on_c, 3, 68, 0
5, 9715, Note_on_c, 3, 80, 0
5, 9720, Note_on_c, 3, 78, 62
5, 9720, Note_on_c, 3, 66, 44
5, 9780, Note_on_c, 3, 66, 0
5, 9780, Note_on_c, 3, 78, 0
5, 9900, Control_c, 3, 64, 68
5, 9930, Note_on_c, 3, 87, 74
5, 9930, Note_on_c, 3, 75, 71
5, 9945, Note_on_c, 3, 75, 0
5, 9945, Note_on_c, 3, 87, 0
5, 9945, Note_on_c, 3, 84, 46
5, 9945, Note_on_c, 3, 72, 64
5, 9960, Note_on_c, 3, 72, 0
5, 9960, Note_on_c, 3, 84, 0
5, 9960, Note_on_c, 3, 80, 53
5, 9960, Note_on_c, 3, 68, 53
5, 9975, Note_on_c, 3, 68, 0
5, 9975, Note_on_c, 3, 80, 0
5, 9975, Note_on_c, 3, 75, 85
5, 9975, Note_on_c, 3, 63, 55
5, 9990, Note_on_c, 3, 63, 0
5, 9990, Note_on_c, 3, 75, 0
5, 9990, Note_on_c, 3, 72, 73
5, 9990, Note_on_c, 3, 60, 44
5, 10005, Note_on_c, 3, 60, 0
5, 10005, Note_on_c, 3, 72, 0
5, 10005, Note_on_c, 3, 68, 72
5, 10005, Note_on_c, 3, 56, 64
5, 10020, Note_on_c, 3, 56, 0
5, 10020, Note_on_c, 3, 68, 0
5, 10020, Note_on_c, 3, 66, 61
5, 10020, Note_on_c, 3, 54, 64
5, 10035, Note_on_c, 3, 54, 0
5, 10035, Note_on_c, 3, 66, 0
5, 10035, Note_on_c, 3, 63, 61
5, 10035, Note_on_c, 3, 51, 73
5, 10050, Note_on_c, 3, 51, 0
5, 10050, Note_on_c, 3, 63, 0
5, 10050, Note_on_c, 3, 60, 53
5, 10050, Note_on_c, 3, 48, 66
5, 10065, Note_on_c, 3, 48, 0
5, 10065, Note_on_c, 3, 60, 0
5, 10065, Note_on_c, 3, 56, 57
5, 10065, Note_on_c, 3, 44, 57
5, 10080, Note_on_c, 3, 44, 0
5, 10080, Note_on_c, 3, 56, 0
5, 10080, Control_c, 3, 64, 0
5, 10080, Note_on_c, 3, 61, 58
5, 10080, Note_on_c, 3, 49, 43
5, 10140, Note_on_c, 3, 49, 0
5, 10140, Note_on_c, 3, 61, 0
5, 10260, Note_on_c, 3, 58, 43
5, 10260, Note_on_c, 3, 54, 44
5, 10260, Note_on_c, 3, 49, 55
5, 10260, Note_on_c, 3, 46, 62
5, 10275, Note_on_c, 3, 46, 0
5, 10275, Note_on_c, 3, 58, 0
5, 10275, Note_on_c, 3, 54, 0
5, 10275, Note_on_c, 3, 49, 0
5, 10282, Note_on_c, 3, 66, 89
5, 10290, Note_on_c, 3, 66, 0
5, 10290, Note_on_c, 3, 78, 99
5, 10320, Note_on_c, 3, 59, 62
5, 10320, Note_on_c, 3, 54, 53
5, 10320, Note_on_c, 3, 51, 69
5, 10320, Note_on_c, 3, 47, 72
5, 10335, Note_on_c, 3, 47, 0
5, 10335, Note_on_c, 3, 54, 0
5, 10335, Note_on_c, 3, 51, 0
5, 10335, Note_on_c, 3, 59, 0
5, 10342, Note_on_c, 3, 78, 89
5, 10350, Note_on_c, 3, 78, 0
5, 10350, Note_on_c, 3, 78, 0
5, 10350, Note_on_c, 3, 87, 110
5, 10380, Note_on_c, 3, 87, 0
5, 10387, Note_on_c, 3, 86, 86
5, 10391, Note_on_c, 3, 86, 0
5, 10391, Note_on_c, 3, 87, 86
5, 10394, Note_on_c, 3, 88, 89
5, 10395, Note_on_c, 3, 87, 0
5, 10398, Note_on_c, 3, 88, 0
5, 10398, Note_on_c, 3, 87, 94
5, 10401, Note_on_c, 3, 85, 86
5, 10402, Note_on_c, 3, 87, 0
5, 10405, Note_on_c, 3, 85, 0
5, 10405, Note_on_c, 3, 83, 89
5, 10409, Note_on_c, 3, 83, 0
5, 10410, Note_on_c, 3, 82, 65
5, 10413, Note_on_c, 3, 82, 0
5, 10413, Note_on_c, 3, 83, 64
5, 10416, Note_on_c, 3, 83, 0
5, 10416, Note_on_c, 3, 85, 71
5, 10419, Note_on_c, 3, 85, 0
5, 10419, Note_on_c, 3, 83, 68
5, 10422, Note_on_c, 3, 83, 0
5, 10422, Note_on_c, 3, 82, 69
5, 10425, Note_on_c, 3, 82, 0
5, 10425, Note_on_c, 3, 80, 85
5, 10428, Note_on_c, 3, 80, 0
5, 10428, Note_on_c, 3, 78, 78
5, 10431, Note_on_c, 3, 78, 0
5, 10431, Note_on_c, 3, 76, 81
5, 10434, Note_on_c, 3, 76, 0
5, 10434, Note_on_c, 3, 75, 86
5, 10437, Note_on_c, 3, 75, 0
5, 10440, Note_on_c, 3, 73, 73
5, 10440, Note_on_c, 3, 61, 43
5, 10440, Note_on_c, 3, 56, 61
5, 10440, Note_on_c, 3, 52, 64
5, 10445, Note_on_c, 3, 73, 0
5, 10445, Note_on_c, 3, 75, 71
5, 10450, Note_on_c, 3, 75, 0
5, 10450, Note_on_c, 3, 73, 69
5, 10455, Note_on_c, 3, 73, 0
5, 10455, Note_on_c, 3, 82, 76
5, 10462, Note_on_c, 3, 80, 76
5, 10463, Note_on_c, 3, 82, 0
5, 10470, Note_on_c, 3, 61, 0
5, 10470, Note_on_c, 3, 52, 0
5, 10470, Note_on_c, 3, 56, 0
5, 10470, Note_on_c, 3, 80, 0
5, 10470, Note_on_c, 3, 78, 78
5, 10477, Note_on_c, 3, 76, 82
5, 10478, Note_on_c, 3, 78, 0
5, 10485, Note_on_c, 3, 76, 0
5, 10485, Note_on_c, 3, 75, 81
5, 10492, Note_on_c, 3, 73, 67
5, 10493, Note_on_c, 3, 75, 0
5, 10496, Note_on_c, 3, 73, 0
5, 10496, Note_on_c, 3, 71, 89
5, 10497, Note_on_c, 3, 73, 74
5, 10498, Note_on_c, 3, 71, 0
5, 10499, Note_on_c, 3, 73, 0
5, 10499, Note_on_c, 3, 75, 90
5, 10500, Note_on_c, 3, 73, 76
5, 10500, Note_on_c, 3, 63, 43
5, 10500, Note_on_c, 3, 59, 80
5, 10500, Note_on_c, 3, 54, 62
5, 10501, Note_on_c, 3, 75, 0
5, 10530, Note_on_c, 3, 59, 0
5, 10530, Note_on_c, 3, 73, 0
5, 10530, Note_on_c, 3, 63, 0
5, 10530, Note_on_c, 3, 54, 0
5, 10530, Note_on_c, 3, 71, 58
5, 10560, Note_on_c, 3, 64, 45
5, 10560, Note_on_c, 3, 61, 58
5, 10560, Note_on_c, 3, 54, 50
5, 10575, Note_on_c, 3, 71, 0
5, 10575, Note_on_c, 3, 70, 72
5, 10578, Note_on_c, 3, 71, 54
5, 10579, Note_on_c, 3, 70, 0
5, 10582, Note_on_c, 3, 71, 0
5, 10582, Note_on_c, 3, 70, 80
5, 10585, Note_on_c, 3, 68, 80
5, 10586, Note_on_c, 3, 70, 0
5, 10589, Note_on_c, 3, 68, 0
5, 10589, Note_on_c, 3, 70, 67
5, 10590, Note_on_c, 3, 64, 0
5, 10590, Note_on_c, 3, 54, 0
5, 10590, Note_on_c, 3, 61, 0
5, 10590, Note_on_c, 3, 64, 49
5, 10590, Note_on_c, 3, 61, 43
5, 10590, Note_on_c, 3, 54, 42
5, 10591, Note_on_c, 3, 71, 73
5, 10592, Note_on_c, 3, 70, 0
5, 10594, Note_on_c, 3, 71, 0
5, 10594, Note_on_c, 3, 73, 74
5, 10596, Note_on_c, 3, 75, 78
5, 10597, Note_on_c, 3, 73, 0
5, 10599, Note_on_c, 3, 75, 0
5, 10599, Note_on_c, 3, 76, 82
5, 10601, Note_on_c, 3, 78, 80
5, 10602, Note_on_c, 3, 76, 0
5, 10604, Note_on_c, 3, 78, 0
5, 10604, Note_on_c, 3, 80, 76
5, 10608, Note_on_c, 3, 80, 0
5, 10615, Note_on_c, 3, 70, 70
5, 10619, Note_on_c, 3, 70, 0
5, 10620, Note_on_c, 3, 64, 0
5, 10620, Note_on_c, 3, 61, 0
5, 10620, Note_on_c, 3, 54, 0
5, 10620, Note_on_c, 3, 73, 42
5, 10620, Note_on_c, 3, 64, 59
5, 10620, Note_on_c, 3, 58, 43
5, 10620, Note_on_c, 3, 54, 43
5, 10620, Note_on_c, 3, 47, 68
5, 10650, Note_on_c, 3, 64, 0
5, 10650, Note_on_c, 3, 63, 67
5, 10657, Note_on_c, 3, 64, 76
5, 10658, Note_on_c, 3, 63, 0
5, 10665, Note_on_c, 3, 64, 0
5, 10665, Note_on_c, 3, 66, 65
5, 10672, Note_on_c, 3, 64, 78
5, 10673, Note_on_c, 3, 66, 0
5, 10680, Note_on_c, 3, 58, 0
5, 10680, Note_on_c, 3, 73, 0
5, 10680, Note_on_c, 3, 64, 0
5, 10680, Note_on_c, 3, 71, 43
5, 10680, Note_on_c, 3, 63, 67
5, 10680, Note_on_c, 3, 59, 46
5, 10710, Note_on_c, 3, 59, 0
5, 10710, Note_on_c, 3, 71, 0
5, 10710, Note_on_c, 3, 47, 0
5, 10710, Note_on_c, 3, 54, 0
5, 10710, Note_on_c, 3, 63, 0
5, 10732, Note_on_c, 3, 70, 67
5, 10740, Note_on_c, 3, 70, 0
5, 10740, Note_on_c, 3, 71, 58
5, 10755, Note_on_c, 3, 71, 0
5, 10762, Note_on_c, 3, 70, 50
5, 10770, Note_on_c, 3, 70, 0
5, 10770, Note_on_c, 3, 71, 57
5, 10800, Note_on_c, 3, 71, 0
5, 10800, Control_c, 3, 64, 68
5, 10800, Note_on_c, 3, 71, 58
5, 10800, Note_on_c, 3, 62, 40
5, 10800, Note_on_c, 3, 59, 43
5, 10800, Note_on_c, 3, 55, 39
5, 10800, Note_on_c, 3, 50, 52
5, 10800, Note_on_c, 3, 43, 43
5, 10890, Note_on_c, 3, 71, 0
5, 10890, Note_on_c, 3, 71, 61
5, 10905, Note_on_c, 3, 71, 0
5, 10905, Note_on_c, 3, 71, 68
5, 10920, Note_on_c, 3, 71, 0
5, 10920, Note_on_c, 3, 59, 0
5, 10920, Note_on_c, 3, 55, 0
5, 10920, Note_on_c, 3, 62, 0
5, 10920, Note_on_c, 3, 43, 0
5, 10920, Note_on_c, 3, 50, 0
5, 10920, Note_on_c, 3, 60, 43
5, 10920, Note_on_c, 3, 50, 45
5, 10920, Note_on_c, 3, 38, 42
5, 10920, Note_on_c, 3, 71, 63
5, 10935, Note_on_c, 3, 71, 0
5, 10935, Note_on_c, 3, 69, 66
5, 10950, Note_on_c, 3, 69, 0
5, 10950, Note_on_c, 3, 74, 60
5, 10965, Note_on_c, 3, 74, 0
5, 10965, Note_on_c, 3, 66, 54
5, 10980, Note_on_c, 3, 66, 0
5, 10980, Note_on_c, 3, 38, 0
5, 10980, Note_on_c, 3, 50, 0
5, 10980, Note_on_c, 3, 60, 0
5, 10980, Note_on_c, 3, 69, 62
5, 10980, Note_on_c, 3, 59, 45
5, 10980, Note_on_c, 3, 52, 40
5, 10980, Note_on_c, 3, 47, 44
5, 10980, Note_on_c, 3, 40, 40
5, 11010, Note_on_c, 3, 69, 0
5, 11010, Note_on_c, 3, 67, 62
5, 11040, Note_on_c, 3, 67, 0
5, 11040, Note_on_c, 3, 67, 61
5, 11050, Note_on_c, 3, 67, 0
5, 11050, Note_on_c, 3, 67, 68
5, 11060, Note_on_c, 3, 67, 0
5, 11060, Note_on_c, 3, 67, 61
5, 11070, Note_on_c, 3, 67, 0
5, 11070, Note_on_c, 3, 67, 61
5, 11080, Note_on_c, 3, 67, 0
5, 11080, Note_on_c, 3, 67, 60
5, 11090, Note_on_c, 3, 67, 0
5, 11090, Note_on_c, 3, 67, 68
5, 11100, Note_on_c, 3, 67, 0
5, 11100, Note_on_c, 3, 40, 0
5, 11100, Note_on_c, 3, 59, 0
5, 11100, Note_on_c, 3, 52, 0
5, 11100, Note_on_c, 3, 47, 0
5, 11100, Note_on_c, 3, 57, 50
5, 11100, Note_on_c, 3, 47, 58
5, 11100, Note_on_c, 3, 35, 72
5, 11100, Note_on_c, 3, 67, 52
5, 11115, Note_on_c, 3, 67, 0
5, 11115, Note_on_c, 3, 66, 76
5, 11130, Note_on_c, 3, 66, 0
5, 11130, Note_on_c, 3, 71, 67
5, 11145, Note_on_c, 3, 71, 0
5, 11145, Note_on_c, 3, 63, 55
5, 11145, Control_c, 3, 64, 0
5, 11160, Note_on_c, 3, 63, 0
5, 11160, Note_on_c, 3, 35, 0
5, 11160, Note_on_c, 3, 47, 0
5, 11160, Note_on_c, 3, 57, 0
5, 11160, Control_c, 3, 64, 68
5, 11160, Note_on_c, 3, 67, 78
5, 11160, Note_on_c, 3, 36, 99
5, 11175, Note_on_c, 3, 36, 0
5, 11190, Note_on_c, 3, 67, 0
5, 11190, Note_on_c, 3, 79, 89
5, 11190, Note_on_c, 3, 64, 73
5, 11193, Note_on_c, 3, 48, 71
5, 11194, Note_on_c, 3, 64, 0
5, 11197, Note_on_c, 3, 48, 0
5, 11197, Note_on_c, 3, 64, 67
5, 11200, Note_on_c, 3, 48, 80
5, 11201, Note_on_c, 3, 64, 0
5, 11204, Note_on_c, 3, 48, 0
5, 11204, Note_on_c, 3, 64, 68
5, 11207, Note_on_c, 3, 48, 81
5, 11208, Note_on_c, 3, 64, 0
5, 11211, Note_on_c, 3, 48, 0
5, 11211, Note_on_c, 3, 64, 76
5, 11214, Note_on_c, 3, 48, 89
5, 11215, Note_on_c, 3, 64, 0
5, 11218, Note_on_c, 3, 48, 0
5, 11220, Note_on_c, 3, 79, 0
5, 11220, Note_on_c, 3, 91, 105
5, 11220, Note_on_c, 3, 64, 80
5, 11223, Note_on_c, 3, 48, 78
5, 11224, Note_on_c, 3, 64, 0
5, 11227, Note_on_c, 3, 48, 0
5, 11227, Note_on_c, 3, 64, 72
5, 11230, Note_on_c, 3, 48, 80
5, 11231, Note_on_c, 3, 64, 0
5, 11234, Note_on_c, 3, 48, 0
5, 11234, Note_on_c, 3, 64, 72
5, 11237, Note_on_c, 3, 48, 78
5, 11238, Note_on_c, 3, 64, 0
5, 11241, Note_on_c, 3, 48, 0
5, 11241, Note_on_c, 3, 64, 71
5, 11244, Note_on_c, 3, 48, 84
5, 11245, Note_on_c, 3, 64, 0
5, 11248, Note_on_c, 3, 48, 0
5, 11250, Note_on_c, 3, 91, 0
5, 11250, Note_on_c, 3, 91, 43
5, 11250, Note_on_c, 3, 64, 78
5, 11253, Note_on_c, 3, 90, 80
5, 11253, Note_on_c, 3, 48, 78
5, 11254, Note_on_c, 3, 64, 0
5, 11254, Note_on_c, 3, 91, 0
5, 11257, Note_on_c, 3, 90, 0
5, 11257, Note_on_c, 3, 48, 0
5, 11257, Note_on_c, 3, 88, 81
5, 11257, Note_on_c, 3, 64, 69
5, 11260, Note_on_c, 3, 86, 69
5, 11260, Note_on_c, 3, 48, 80
5, 11261, Note_on_c, 3, 64, 0
5, 11261, Note_on_c, 3, 88, 0
5, 11264, Note_on_c, 3, 86, 0
5, 11264, Note_on_c, 3, 48, 0
5, 11264, Note_on_c, 3, 84, 71
5, 11264, Note_on_c, 3, 64, 72
5, 11267, Note_on_c, 3, 83, 78
5, 11267, Note_on_c, 3, 48, 80
5, 11268, Note_on_c, 3, 64, 0
5, 11268, Note_on_c, 3, 84, 0
5, 11271, Note_on_c, 3, 83, 0
5, 11271, Note_on_c, 3, 48, 0
5, 11271, Note_on_c, 3, 81, 72
5, 11271, Note_on_c, 3, 64, 80
5, 11274, Note_on_c, 3, 79, 80
5, 11274, Note_on_c, 3, 48, 82
5, 11275, Note_on_c, 3, 64, 0
5, 11275, Note_on_c, 3, 81, 0
5, 11278, Note_on_c, 3, 79, 0
5, 11278, Note_on_c, 3, 48, 0
5, 11280, Note_on_c, 3, 78, 89
5, 11280, Note_on_c, 3, 64, 58
5, 11283, Note_on_c, 3, 48, 82
5, 11284, Note_on_c, 3, 64, 0
5, 11285, Note_on_c, 3, 78, 0
5, 11285, Note_on_c, 3, 76, 84
5, 11287, Note_on_c, 3, 48, 0
5, 11287, Note_on_c, 3, 64, 74
5, 11290, Note_on_c, 3, 76, 0
5, 11290, Note_on_c, 3, 74, 86
5, 11290, Note_on_c, 3, 48, 77
5, 11291, Note_on_c, 3, 64, 0
5, 11294, Note_on_c, 3, 48, 0
5, 11294, Note_on_c, 3, 64, 77
5, 11295, Note_on_c, 3, 74, 0
5, 11295, Note_on_c, 3, 72, 62
5, 11297, Note_on_c, 3, 48, 78
5, 11298, Note_on_c, 3, 64, 0
5, 11300, Note_on_c, 3, 72, 0
5, 11300, Note_on_c, 3, 71, 84
5, 11301, Note_on_c, 3, 48, 0
5, 11301, Note_on_c, 3, 64, 81
5, 11304, Note_on_c, 3, 48, 82
5, 11305, Note_on_c, 3, 64, 0
5, 11305, Note_on_c, 3, 71, 0
5, 11305, Note_on_c, 3, 70, 89
5, 11308, Note_on_c, 3, 48, 0
5, 11310, Note_on_c, 3, 70, 0
5, 11310, Note_on_c, 3, 79, 94
5, 11310, Note_on_c, 3, 64, 72
5, 11313, Note_on_c, 3, 48, 74
5, 11314, Note_on_c, 3, 64, 0
5, 11317, Note_on_c, 3, 48, 0
5, 11317, Note_on_c, 3, 64, 71
5, 11320, Note_on_c, 3, 48, 80
5, 11321, Note_on_c, 3, 64, 0
5, 11324, Note_on_c, 3, 48, 0
5, 11324, Note_on_c, 3, 64, 73
5, 11325, Note_on_c, 3, 79, 0
5, 11327, Note_on_c, 3, 48, 81
5, 11328, Note_on_c, 3, 64, 0
5, 11331, Note_on_c, 3, 48, 0
5, 11331, Note_on_c, 3, 64, 73
5, 11332, Note_on_c, 3, 69, 98
5, 11334, Note_on_c, 3, 48, 80
5, 11335, Note_on_c, 3, 64, 0
5, 11335, Control_c, 3, 64, 0
5, 11338, Note_on_c, 3, 48, 0
5, 11340, Note_on_c, 3, 69, 0
5, 11340, Note_on_c, 3, 73, 78
5, 11340, Note_on_c, 3, 70, 77
5, 11340, Note_on_c, 3, 67, 70
5, 11340, Note_on_c, 3, 64, 78
5, 11340, Note_on_c, 3, 47, 80
5, 11370, Note_on_c, 3, 47, 0
5, 11370, Note_on_c, 3, 59, 80
5, 11400, Note_on_c, 3, 67, 0
5, 11400, Note_on_c, 3, 64, 0
5, 11400, Note_on_c, 3, 73, 0
5, 11400, Note_on_c, 3, 70, 0
5, 11400, Note_on_c, 3, 71, 73
5, 11400, Note_on_c, 3, 66, 71
5, 11400, Note_on_c, 3, 63, 64
5, 11430, Note_on_c, 3, 63, 0
5, 11430, Note_on_c, 3, 59, 0
5, 11430, Note_on_c, 3, 71, 0
5, 11430, Note_on_c, 3, 66, 0
5, 12975, Note_on_c, 3, 64, 45
5, 12975, Note_on_c, 3, 52, 62
5, 12983, Note_on_c, 3, 52, 0
5, 12983, Note_on_c, 3, 64, 0
5, 12990, Note_on_c, 3, 66, 51
5, 12990, Note_on_c, 3, 54, 62
5, 12998, Note_on_c, 3, 54, 0
5, 12998, Note_on_c, 3, 66, 0
5, 13005, Note_on_c, 3, 68, 64
5, 13005, Note_on_c, 3, 56, 52
5, 13013, Note_on_c, 3, 56, 0
5, 13013, Note_on_c, 3, 68, 0
5, 13020, Note_on_c, 3, 69, 38
5, 13020, Note_on_c, 3, 57, 57
5, 13028, Note_on_c, 3, 57, 0
5, 13028, Note_on_c, 3, 69, 0
5, 13035, Note_on_c, 3, 71, 60
5, 13035, Note_on_c, 3, 59, 45
5, 13043, Note_on_c, 3, 59, 0
5, 13043, Note_on_c, 3, 71, 0
5, 13050, Note_on_c, 3, 73, 51
5, 13050, Note_on_c, 3, 61, 63
5, 13058, Note_on_c, 3, 61, 0
5, 13058, Note_on_c, 3, 73, 0
5, 13065, Note_on_c, 3, 75, 46
5, 13065, Note_on_c, 3, 63, 66
5, 13073, Note_on_c, 3, 63, 0
5, 13073, Note_on_c, 3, 75, 0
5, 13080, Note_on_c, 3, 76, 56
5, 13080, Note_on_c, 3, 64, 56
5, 13088, Note_on_c, 3, 64, 0
5, 13088, Note_on_c, 3, 76, 0
5, 13095, Note_on_c, 3, 78, 55
5, 13095, Note_on_c, 3, 66, 72
5, 13103, Note_on_c, 3, 66, 0
5, 13103, Note_on_c, 3, 78, 0
5, 13110, Note_on_c, 3, 80, 57
5, 13110, Note_on_c, 3, 68, 68
5, 13118, Note_on_c, 3, 68, 0
5, 13118, Note_on_c, 3, 80, 0
5, 13125, Note_on_c, 3, 81, 43
5, 13125, Note_on_c, 3, 69, 63
5, 13133, Note_on_c, 3, 69, 0
5, 13133, Note_on_c, 3, 81, 0
5, 13140, Note_on_c, 3, 83, 45
5, 13140, Note_on_c, 3, 71, 45
5, 13148, Note_on_c, 3, 71, 0
5, 13148, Note_on_c, 3, 83, 0
5, 13155, Note_on_c, 3, 85, 58
5, 13155, Note_on_c, 3, 73, 57
5, 13163, Note_on_c, 3, 73, 0
5, 13163, Note_on_c, 3, 85, 0
5, 13170, Note_on_c, 3, 86, 47
5, 13170, Note_on_c, 3, 74, 65
5, 13178, Note_on_c, 3, 74, 0
5, 13178, Note_on_c, 3, 86, 0
5, 13185, Note_on_c, 3, 87, 60
5, 13185, Note_on_c, 3, 75, 74
5, 13193, Note_on_c, 3, 75, 0
5, 13193, Note_on_c, 3, 87, 0
5, 13200, Note_on_c, 3, 76, 43
5, 13200, Note_on_c, 3, 88, 44
5, 13320, Note_on_c, 3, 88, 0
5, 13320, Note_on_c, 3, 76, 0
5, 13320, Control_c, 3, 7, 99
5, 13335, Note_on_c, 3, 64, 58
5, 13335, Note_on_c, 3, 52, 60
5, 13343, Note_on_c, 3, 52, 0
5, 13343, Note_on_c, 3, 64, 0
5, 13350, Control_c, 3, 7, 100
5, 13350, Note_on_c, 3, 66, 48
5, 13350, Note_on_c, 3, 54, 58
5, 13358, Note_on_c, 3, 54, 0
5, 13358, Note_on_c, 3, 66, 0
5, 13365, Note_on_c, 3, 68, 55
5, 13365, Note_on_c, 3, 56, 56
5, 13373, Note_on_c, 3, 56, 0
5, 13373, Note_on_c, 3, 68, 0
5, 13380, Control_c, 3, 7, 101
5, 13380, Note_on_c, 3, 69, 43
5, 13380, Note_on_c, 3, 57, 48
5, 13388, Note_on_c, 3, 57, 0
5, 13388, Note_on_c, 3, 69, 0
5, 13395, Note_on_c, 3, 71, 40
5, 13395, Note_on_c, 3, 59, 44
5, 13403, Note_on_c, 3, 59, 0
5, 13403, Note_on_c, 3, 71, 0
5, 13405, Control_c, 3, 7, 102
5, 13410, Note_on_c, 3, 73, 51
5, 13410, Note_on_c, 3, 61, 46
5, 13418, Note_on_c, 3, 61, 0
5, 13418, Note_on_c, 3, 73, 0
5, 13425, Note_on_c, 3, 75, 58
5, 13425, Note_on_c, 3, 63, 61
5, 13433, Note_on_c, 3, 63, 0
5, 13433, Note_on_c, 3, 75, 0
5, 13435, Control_c, 3, 7, 103
5, 13440, Note_on_c, 3, 76, 45
5, 13440, Note_on_c, 3, 64, 42
5, 13448, Note_on_c, 3, 64, 0
5, 13448, Note_on_c, 3, 76, 0
5, 13455, Note_on_c, 3, 78, 43
5, 13455, Note_on_c, 3, 66, 51
5, 13463, Note_on_c, 3, 66, 0
5, 13463, Note_on_c, 3, 78, 0
5, 13465, Control_c, 3, 7, 104
5, 13470, Note_on_c, 3, 80, 43
5, 13470, Note_on_c, 3, 68, 45
5, 13478, Note_on_c, 3, 68, 0
5, 13478, Note_on_c, 3, 80, 0
5, 13485, Note_on_c, 3, 81, 41
5, 13485, Note_on_c, 3, 69, 48
5, 13490, Control_c, 3, 7, 105
5, 13493, Note_on_c, 3, 69, 0
5, 13493, Note_on_c, 3, 81, 0
5, 13500, Note_on_c, 3, 83, 32
5, 13500, Note_on_c, 3, 71, 38
5, 13508, Note_on_c, 3, 71, 0
5, 13508, Note_on_c, 3, 83, 0
5, 13515, Note_on_c, 3, 85, 44
5, 13515, Note_on_c, 3, 73, 46
5, 13520, Control_c, 3, 7, 106
5, 13523, Note_on_c, 3, 73, 0
5, 13523, Note_on_c, 3, 85, 0
5, 13530, Note_on_c, 3, 86, 41
5, 13530, Note_on_c, 3, 74, 58
5, 13538, Note_on_c, 3, 74, 0
5, 13538, Note_on_c, 3, 86, 0
5, 13545, Control_c, 3, 7, 107
5, 13545, Note_on_c, 3, 87, 45
5, 13545, Note_on_c, 3, 75, 58
5, 13553, Note_on_c, 3, 75, 0
5, 13553, Note_on_c, 3, 87, 0
5, 13560, Note_on_c, 3, 76, 55
5, 13560, Note_on_c, 3, 88, 34
5, 13575, Control_c, 3, 7, 108
5, 13605, Control_c, 3, 7, 109
5, 13630, Control_c, 3, 7, 110
5, 13660, Control_c, 3, 7, 111
5, 13680, Note_on_c, 3, 88, 0
5, 13680, Note_on_c, 3, 76, 0
5, 13685, Control_c, 3, 7, 112
5, 13695, Note_on_c, 3, 66, 40
5, 13695, Note_on_c, 3, 54, 42
5, 13703, Note_on_c, 3, 54, 0
5, 13703, Note_on_c, 3, 66, 0
5, 13710, Note_on_c, 3, 68, 42
5, 13710, Note_on_c, 3, 56, 43
5, 13718, Note_on_c, 3, 56, 0
5, 13718, Note_on_c, 3, 68, 0
5, 13725, Note_on_c, 3, 70, 42
5, 13725, Note_on_c, 3, 58, 56
5, 13733, Note_on_c, 3, 58, 0
5, 13733, Note_on_c, 3, 70, 0
5, 13740, Note_on_c, 3, 71, 46
5, 13740, Note_on_c, 3, 59, 52
5, 13748, Note_on_c, 3, 59, 0
5, 13748, Note_on_c, 3, 71, 0
5, 13755, Note_on_c, 3, 73, 42
5, 13755, Note_on_c, 3, 61, 50
5, 13763, Note_on_c, 3, 61, 0
5, 13763, Note_on_c, 3, 73, 0
5, 13770, Note_on_c, 3, 75, 57
5, 13770, Note_on_c, 3, 63, 49
5, 13778, Note_on_c, 3, 63, 0
5, 13778, Note_on_c, 3, 75, 0
5, 13785, Note_on_c, 3, 76, 55
5, 13785, Note_on_c, 3, 64, 43
5, 13793, Note_on_c, 3, 64, 0
5, 13793, Note_on_c, 3, 76, 0
5, 13800, Note_on_c, 3, 78, 43
5, 13800, Note_on_c, 3, 66, 50
5, 13808, Note_on_c, 3, 66, 0
5, 13808, Note_on_c, 3, 78, 0
5, 13815, Note_on_c, 3, 80, 53
5, 13815, Note_on_c, 3, 68, 55
5, 13823, Note_on_c, 3, 68, 0
5, 13823, Note_on_c, 3, 80, 0
5, 13830, Note_on_c, 3, 82, 46
5, 13830, Note_on_c, 3, 70, 62
5, 13838, Note_on_c, 3, 70, 0
5, 13838, Note_on_c, 3, 82, 0
5, 13845, Note_on_c, 3, 83, 41
5, 13845, Note_on_c, 3, 71, 46
5, 13853, Note_on_c, 3, 71, 0
5, 13853, Note_on_c, 3, 83, 0
5, 13860, Note_on_c, 3, 85, 43
5, 13860, Note_on_c, 3, 73, 53
5, 13868, Note_on_c, 3, 73, 0
5, 13868, Note_on_c, 3, 85, 0
5, 13875, Note_on_c, 3, 87, 76
5, 13875, Note_on_c, 3, 75, 76
5, 13883, Note_on_c, 3, 75, 0
5, 13883, Note_on_c, 3, 87, 0
5, 13890, Note_on_c, 3, 88, 50
5, 13890, Note_on_c, 3, 76, 62
5, 13898, Note_on_c, 3, 76, 0
5, 13898, Note_on_c, 3, 88, 0
5, 13905, Note_on_c, 3, 89, 44
5, 13905, Note_on_c, 3, 77, 44
5, 13913, Note_on_c, 3, 77, 0
5, 13913, Note_on_c, 3, 89, 0
5, 13920, Note_on_c, 3, 78, 58
5, 13920, Note_on_c, 3, 90, 50
5, 14040, Note_on_c, 3, 90, 0
5, 14040, Note_on_c, 3, 78, 0
5, 14055, Note_on_c, 3, 59, 43
5, 14055, Note_on_c, 3, 47, 42
5, 14063, Note_on_c, 3, 47, 0
5, 14063, Note_on_c, 3, 59, 0
5, 14070, Note_on_c, 3, 61, 41
5, 14070, Note_on_c, 3, 49, 43
5, 14078, Note_on_c, 3, 49, 0
5, 14078, Note_on_c, 3, 61, 0
5, 14085, Note_on_c, 3, 63, 47
5, 14085, Note_on_c, 3, 51, 48
5, 14093, Note_on_c, 3, 51, 0
5, 14093, Note_on_c, 3, 63, 0
5, 14100, Note_on_c, 3, 64, 69
5, 14100, Note_on_c, 3, 52, 73
5, 14108, Note_on_c, 3, 52, 0
5, 14108, Note_on_c, 3, 64, 0
5, 14115, Note_on_c, 3, 66, 51
5, 14115, Note_on_c, 3, 54, 56
5, 14123, Note_on_c, 3, 54, 0
5, 14123, Note_on_c, 3, 66, 0
5, 14130, Note_on_c, 3, 68, 65
5, 14130, Note_on_c, 3, 56, 57
5, 14138, Note_on_c, 3, 56, 0
5, 14138, Note_on_c, 3, 68, 0
5, 14145, Note_on_c, 3, 69, 68
5, 14145, Note_on_c, 3, 57, 70
5, 14153, Note_on_c, 3, 57, 0
5, 14153, Note_on_c, 3, 69, 0
5, 14160, Note_on_c, 3, 71, 52
5, 14160, Note_on_c, 3, 59, 67
5, 14168, Note_on_c, 3, 59, 0
5, 14168, Note_on_c, 3, 71, 0
5, 14175, Note_on_c, 3, 73, 62
5, 14175, Note_on_c, 3, 61, 78
5, 14183, Note_on_c, 3, 61, 0
5, 14183, Note_on_c, 3, 73, 0
5, 14190, Note_on_c, 3, 75, 76
5, 14190, Note_on_c, 3, 63, 76
5, 14198, Note_on_c, 3, 63, 0
5, 14198, Note_on_c, 3, 75, 0
5, 14205, Note_on_c, 3, 76, 73
5, 14205, Note_on_c, 3, 64, 78
5, 14213, Note_on_c, 3, 64, 0
5, 14213, Note_on_c, 3, 76, 0
5, 14220, Note_on_c, 3, 78, 70
5, 14220, Note_on_c, 3, 66, 81
5, 14228, Note_on_c, 3, 66, 0
5, 14228, Note_on_c, 3, 78, 0
5, 14235, Note_on_c, 3, 80, 81
5, 14235, Note_on_c, 3, 68, 94
5, 14243, Note_on_c, 3, 68, 0
5, 14243, Note_on_c, 3, 80, 0
5, 14250, Note_on_c, 3, 81, 77
5, 14250, Note_on_c, 3, 69, 81
5, 14258, Note_on_c, 3, 69, 0
5, 14258, Note_on_c, 3, 81, 0
5, 14265, Note_on_c, 3, 82, 74
5, 14265, Note_on_c, 3, 70, 90
5, 14273, Note_on_c, 3, 70, 0
5, 14273, Note_on_c, 3, 82, 0
5, 14280, Note_on_c, 3, 83, 71
5, 14280, Note_on_c, 3, 71, 85
5, 14295, Note_on_c, 3, 71, 0
5, 14295, Note_on_c, 3, 83, 0
5, 14310, Note_on_c, 3, 85, 76
5, 14310, Note_on_c, 3, 73, 93
5, 14325, Note_on_c, 3, 73, 0
5, 14325, Note_on_c, 3, 85, 0
5, 14340, Note_on_c, 3, 86, 89
5, 14340, Note_on_c, 3, 74, 98
5, 14355, Note_on_c, 3, 74, 0
5, 14355, Note_on_c, 3, 86, 0
5, 14370, Note_on_c, 3, 87, 80
5, 14370, Note_on_c, 3, 75, 101
5, 14385, Note_on_c, 3, 75, 0
5, 14385, Note_on_c, 3, 87, 0
5, 14385, Note_on_c, 3, 76, 89
5, 14390, Note_on_c, 3, 76, 0
5, 14390, Note_on_c, 3, 80, 72
5, 14395, Note_on_c, 3, 80, 0
5, 14395, Note_on_c, 3, 83, 94
5, 14400, Note_on_c, 3, 83, 0
5, 14400, Note_on_c, 3, 88, 119
5, 14400, Note_on_c, 3, 64, 84
5, 14400, Note_on_c, 3, 59, 82
5, 14400, Note_on_c, 3, 56, 90
5, 14460, Note_on_c, 3, 56, 0
5, 14460, Note_on_c, 3, 88, 0
5, 14460, Note_on_c, 3, 64, 0
5, 14460, Note_on_c, 3, 59, 0
5, 14460, Note_on_c, 3, 88, 68
5, 14467, Note_on_c, 3, 87, 93
5, 14468, Note_on_c, 3, 88, 0
5, 14475, Note_on_c, 3, 87, 0
5, 14475, Note_on_c, 3, 85, 76
5, 14482, Note_on_c, 3, 83, 85
5, 14483, Note_on_c, 3, 85, 0
5, 14490, Note_on_c, 3, 83, 0
5, 14490, Note_on_c, 3, 82, 71
5, 14497, Note_on_c, 3, 83, 93
5, 14498, Note_on_c, 3, 82, 0
5, 14505, Note_on_c, 3, 83, 0
5, 14505, Note_on_c, 3, 85, 89
5, 14512, Note_on_c, 3, 87, 93
5, 14513, Note_on_c, 3, 85, 0
5, 14520, Note_on_c, 3, 87, 0
5, 14520, Note_on_c, 3, 88, 84
5, 14527, Note_on_c, 3, 87, 94
5, 14528, Note_on_c, 3, 88, 0
5, 14535, Note_on_c, 3, 87, 0
5, 14535, Note_on_c, 3, 85, 85
5, 14542, Note_on_c, 3, 83, 84
5, 14543, Note_on_c, 3, 85, 0
5, 14550, Note_on_c, 3, 83, 0
5, 14550, Note_on_c, 3, 82, 73
5, 14557, Note_on_c, 3, 83, 89
5, 14558, Note_on_c, 3, 82, 0
5, 14565, Note_on_c, 3, 83, 0
5, 14565, Note_on_c, 3, 85, 84
5, 14572, Note_on_c, 3, 87, 78
5, 14573, Note_on_c, 3, 85, 0
5, 14580, Note_on_c, 3, 87, 0
5, 14580, Note_on_c, 3, 88, 85
5, 14587, Note_on_c, 3, 87, 89
5, 14588, Note_on_c, 3, 88, 0
5, 14595, Note_on_c, 3, 87, 0
5, 14595, Note_on_c, 3, 85, 84
5, 14602, Note_on_c, 3, 83, 85
5, 14603, Note_on_c, 3, 85, 0
5, 14610, Note_on_c, 3, 83, 0
5, 14610, Note_on_c, 3, 82, 72
5, 14617, Note_on_c, 3, 83, 86
5, 14618, Note_on_c, 3, 82, 0
5, 14625, Note_on_c, 3, 83, 0
5, 14625, Note_on_c, 3, 85, 81
5, 14632, Note_on_c, 3, 87, 93
5, 14633, Note_on_c, 3, 85, 0
5, 14640, Note_on_c, 3, 87, 0
5, 14640, Note_on_c, 3, 88, 73
5, 14647, Note_on_c, 3, 90, 81
5, 14648, Note_on_c, 3, 88, 0
5, 14655, Note_on_c, 3, 90, 0
5, 14655, Note_on_c, 3, 92, 80
5, 14662, Note_on_c, 3, 93, 82
5, 14663, Note_on_c, 3, 92, 0
5, 14670, Note_on_c, 3, 93, 0
5, 14670, Note_on_c, 3, 95, 74
5, 14677, Note_on_c, 3, 93, 82
5, 14678, Note_on_c, 3, 95, 0
5, 14685, Note_on_c, 3, 93, 0
5, 14685, Note_on_c, 3, 92, 84
5, 14692, Note_on_c, 3, 90, 80
5, 14693, Note_on_c, 3, 92, 0
5, 14700, Note_on_c, 3, 90, 0
5, 14700, Note_on_c, 3, 88, 74
5, 14704, Note_on_c, 3, 88, 0
5, 14704, Note_on_c, 3, 87, 84
5, 14708, Note_on_c, 3, 87, 0
5, 14708, Note_on_c, 3, 85, 78
5, 14712, Note_on_c, 3, 85, 0
5, 14712, Note_on_c, 3, 83, 85
5, 14716, Note_on_c, 3, 83, 0
5, 14716, Note_on_c, 3, 81, 80
5, 14720, Note_on_c, 3, 81, 0
5, 14720, Note_on_c, 3, 80, 90
5, 14724, Note_on_c, 3, 80, 0
5, 14724, Note_on_c, 3, 78, 80
5, 14728, Note_on_c, 3, 78, 0
5, 14728, Note_on_c, 3, 76, 81
5, 14732, Note_on_c, 3, 76, 0
5, 14732, Note_on_c, 3, 75, 94
5, 14736, Note_on_c, 3, 75, 0
5, 14736, Note_on_c, 3, 73, 78
5, 14740, Note_on_c, 3, 73, 0
5, 14740, Note_on_c, 3, 71, 82
5, 14744, Note_on_c, 3, 71, 0
5, 14744, Note_on_c, 3, 69, 81
5, 14748, Note_on_c, 3, 69, 0
5, 14748, Note_on_c, 3, 68, 85
5, 14752, Note_on_c, 3, 68, 0
5, 14752, Note_on_c, 3, 66, 86
5, 14756, Note_on_c, 3, 66, 0
5, 14756, Note_on_c, 3, 64, 84
5, 14760, Note_on_c, 3, 64, 0
5, 14760, Note_on_c, 3, 63, 82
5, 14760, Note_on_c, 3, 54, 61
5, 14760, Note_on_c, 3, 49, 78
5, 14760, Note_on_c, 3, 45, 68
5, 14775, Note_on_c, 3, 63, 0
5, 14775, Note_on_c, 3, 61, 77
5, 14790, Note_on_c, 3, 61, 0
5, 14790, Note_on_c, 3, 75, 84
5, 14805, Note_on_c, 3, 75, 0
5, 14805, Note_on_c, 3, 73, 74
5, 14820, Note_on_c, 3, 73, 0
5, 14820, Note_on_c, 3, 45, 0
5, 14820, Note_on_c, 3, 49, 0
5, 14820, Note_on_c, 3, 54, 0
5, 14820, Note_on_c, 3, 71, 45
5, 14835, Note_on_c, 3, 71, 0
5, 14835, Note_on_c, 3, 69, 71
5, 14850, Note_on_c, 3, 69, 0
5, 14850, Note_on_c, 3, 68, 60
5, 14865, Note_on_c, 3, 68, 0
5, 14865, Note_on_c, 3, 66, 57
5, 14872, Note_on_c, 3, 64, 65
5, 14873, Note_on_c, 3, 66, 0
5, 14875, Note_on_c, 3, 64, 0
5, 14875, Note_on_c, 3, 66, 64
5, 14877, Note_on_c, 3, 68, 58
5, 14878, Note_on_c, 3, 66, 0
5, 14880, Note_on_c, 3, 68, 0
5, 14880, Note_on_c, 3, 66, 58
5, 14880, Note_on_c, 3, 56, 33
5, 14880, Note_on_c, 3, 52, 60
5, 14880, Note_on_c, 3, 47, 43
5, 14940, Note_on_c, 3, 47, 0
5, 14940, Note_on_c, 3, 66, 0
5, 14940, Note_on_c, 3, 56, 0
5, 14940, Note_on_c, 3, 52, 0
5, 14940, Note_on_c, 3, 64, 63
5, 15000, Note_on_c, 3, 64, 0
5, 15000, Note_on_c, 3, 64, 38
5, 15000, Note_on_c, 3, 54, 36
5, 15000, Note_on_c, 3, 47, 50
5, 15000, Note_on_c, 3, 45, 40
5, 15015, Note_on_c, 3, 64, 0
5, 15015, Note_on_c, 3, 63, 45
5, 15030, Note_on_c, 3, 63, 0
5, 15030, Note_on_c, 3, 64, 62
5, 15038, Note_on_c, 3, 64, 0
5, 15045, Note_on_c, 3, 66, 71
5, 15053, Note_on_c, 3, 66, 0
5, 15060, Note_on_c, 3, 45, 0
5, 15060, Note_on_c, 3, 47, 0
5, 15060, Note_on_c, 3, 54, 0
5, 15060, Note_on_c, 3, 67, 80
5, 15068, Note_on_c, 3, 67, 0
5, 15075, Note_on_c, 3, 68, 86
5, 15083, Note_on_c, 3, 68, 0
5, 15090, Note_on_c, 3, 69, 93
5, 15098, Note_on_c, 3, 69, 0
5, 15105, Note_on_c, 3, 70, 90
5, 15113, Note_on_c, 3, 70, 0
5, 15120, Note_on_c, 3, 71, 90
5, 15120, Note_on_c, 3, 44, 94
5, 15180, Note_on_c, 3, 71, 0
5, 15210, Note_on_c, 3, 44, 0
5, 15210, Note_on_c, 3, 56, 82
5, 15240, Note_on_c, 3, 56, 0
5, 15240, Note_on_c, 3, 56, 77
5, 15270, Note_on_c, 3, 83, 82
5, 15275, Note_on_c, 3, 83, 0
5, 15275, Note_on_c, 3, 85, 80
5, 15280, Note_on_c, 3, 85, 0
5, 15280, Note_on_c, 3, 83, 89
5, 15285, Note_on_c, 3, 83, 0
5, 15285, Note_on_c, 3, 81, 90
5, 15300, Note_on_c, 3, 81, 0
5, 15300, Note_on_c, 3, 81, 94
5, 15305, Note_on_c, 3, 81, 0
5, 15305, Note_on_c, 3, 83, 86
5, 15310, Note_on_c, 3, 83, 0
5, 15310, Note_on_c, 3, 81, 95
5, 15315, Note_on_c, 3, 81, 0
5, 15315, Note_on_c, 3, 80, 90
5, 15330, Note_on_c, 3, 80, 0
5, 15330, Note_on_c, 3, 80, 89
5, 15335, Note_on_c, 3, 80, 0
5, 15335, Note_on_c, 3, 81, 94
5, 15340, Note_on_c, 3, 81, 0
5, 15340, Note_on_c, 3, 80, 93
5, 15345, Note_on_c, 3, 80, 0
5, 15345, Note_on_c, 3, 78, 86
5, 15360, Note_on_c, 3, 78, 0
5, 15360, Note_on_c, 3, 56, 0
5, 15360, Note_on_c, 3, 78, 86
5, 15365, Note_on_c, 3, 78, 0
5, 15365, Note_on_c, 3, 80, 90
5, 15370, Note_on_c, 3, 80, 0
5, 15370, Note_on_c, 3, 78, 89
5, 15375, Note_on_c, 3, 78, 0
5, 15375, Note_on_c, 3, 76, 101
5, 15390, Note_on_c, 3, 76, 0
5, 15390, Note_on_c, 3, 76, 95
5, 15395, Note_on_c, 3, 76, 0
5, 15395, Note_on_c, 3, 78, 82
5, 15400, Note_on_c, 3, 78, 0
5, 15400, Note_on_c, 3, 76, 95
5, 15405, Note_on_c, 3, 76, 0
5, 15405, Note_on_c, 3, 75, 101
5, 15420, Note_on_c, 3, 75, 0
5, 15420, Note_on_c, 3, 75, 94
5, 15425, Note_on_c, 3, 75, 0
5, 15425, Note_on_c, 3, 76, 80
5, 15430, Note_on_c, 3, 76, 0
5, 15430, Note_on_c, 3, 75, 98
5, 15435, Note_on_c, 3, 75, 0
5, 15435, Note_on_c, 3, 73, 89
5, 15450, Note_on_c, 3, 73, 0
5, 15450, Note_on_c, 3, 73, 89
5, 15455, Note_on_c, 3, 73, 0
5, 15455, Note_on_c, 3, 75, 93
5, 15460, Note_on_c, 3, 75, 0
5, 15460, Note_on_c, 3, 73, 93
5, 15465, Note_on_c, 3, 73, 0
5, 15465, Note_on_c, 3, 71, 101
5, 15480, Note_on_c, 3, 71, 0
5, 15480, Note_on_c, 3, 73, 119
5, 15480, Note_on_c, 3, 45, 99
5, 15570, Note_on_c, 3, 45, 0
5, 15570, Note_on_c, 3, 57, 95
5, 15600, Note_on_c, 3, 57, 0
5, 15600, Note_on_c, 3, 73, 0
5, 15600, Control_c, 3, 7, 126
5, 15600, Note_on_c, 3, 57, 89
5, 15605, Note_on_c, 3, 45, 81
5, 15610, Note_on_c, 3, 45, 0
5, 15610, Note_on_c, 3, 49, 84
5, 15615, Note_on_c, 3, 49, 0
5, 15615, Note_on_c, 3, 52, 81
5, 15620, Note_on_c, 3, 52, 0
5, 15620, Note_on_c, 3, 49, 81
5, 15625, Note_on_c, 3, 49, 0
5, 15625, Note_on_c, 3, 52, 94
5, 15630, Note_on_c, 3, 52, 0
5, 15630, Note_on_c, 3, 57, 90
5, 15635, Note_on_c, 3, 57, 0
5, 15635, Note_on_c, 3, 52, 84
5, 15640, Note_on_c, 3, 52, 0
5, 15640, Note_on_c, 3, 57, 95
5, 15645, Note_on_c, 3, 57, 0
5, 15645, Note_on_c, 3, 61, 73
5, 15650, Note_on_c, 3, 61, 0
5, 15650, Note_on_c, 3, 57, 99
5, 15655, Note_on_c, 3, 57, 0
5, 15655, Note_on_c, 3, 61, 74
5, 15660, Note_on_c, 3, 61, 0
5, 15660, Note_on_c, 3, 64, 82
5, 15665, Note_on_c, 3, 64, 0
5, 15665, Note_on_c, 3, 61, 78
5, 15670, Note_on_c, 3, 61, 0
5, 15670, Note_on_c, 3, 64, 86
5, 15675, Note_on_c, 3, 64, 0
5, 15675, Note_on_c, 3, 69, 84
5, 15680, Note_on_c, 3, 69, 0
5, 15680, Note_on_c, 3, 64, 89
5, 15685, Note_on_c, 3, 64, 0
5, 15685, Note_on_c, 3, 69, 94
5, 15690, Note_on_c, 3, 69, 0
5, 15690, Note_on_c, 3, 73, 77
5, 15695, Note_on_c, 3, 73, 0
5, 15695, Note_on_c, 3, 69, 85
5, 15700, Note_on_c, 3, 69, 0
5, 15700, Note_on_c, 3, 73, 84
5, 15705, Note_on_c, 3, 73, 0
5, 15705, Note_on_c, 3, 76, 89
5, 15710, Note_on_c, 3, 76, 0
5, 15710, Note_on_c, 3, 73, 85
5, 15715, Note_on_c, 3, 73, 0
5, 15715, Note_on_c, 3, 76, 98
5, 15720, Note_on_c, 3, 76, 0
5, 15720, Note_on_c, 3, 57, 0
5, 15720, Note_on_c, 3, 81, 84
5, 15730, Note_on_c, 3, 81, 0
5, 15730, Note_on_c, 3, 75, 95
5, 15740, Note_on_c, 3, 75, 0
5, 15740, Note_on_c, 3, 81, 90
5, 15750, Note_on_c, 3, 81, 0
5, 15750, Note_on_c, 3, 85, 80
5, 15760, Note_on_c, 3, 85, 0
5, 15760, Note_on_c, 3, 81, 84
5, 15770, Note_on_c, 3, 81, 0
5, 15770, Note_on_c, 3, 85, 84
5, 15780, Note_on_c, 3, 85, 0
5, 15780, Note_on_c, 3, 88, 84
5, 15790, Note_on_c, 3, 88, 0
5, 15800, Note_on_c, 3, 86, 98
5, 15810, Note_on_c, 3, 86, 0
5, 15820, Note_on_c, 3, 85, 89
5, 15830, Note_on_c, 3, 85, 0
5, 15840, Control_c, 3, 7, 100
5, 15840, Note_on_c, 3, 83, 99
5, 15900, Note_on_c, 3, 83, 0
5, 15900, Note_on_c, 3, 85, 95
5, 15940, Note_on_c, 3, 85, 0
5, 15940, Note_on_c, 3, 83, 101
5, 15980, Note_on_c, 3, 83, 0
5, 15980, Note_on_c, 3, 85, 94
5, 16020, Note_on_c, 3, 85, 0
5, 16020, Note_on_c, 3, 83, 101
5, 16050, Note_on_c, 3, 83, 0
5, 16050, Note_on_c, 3, 85, 93
5, 16080, Note_on_c, 3, 85, 0
5, 16080, Note_on_c, 3, 83, 95
5, 16110, Note_on_c, 3, 83, 0
5, 16110, Note_on_c, 3, 85, 94
5, 16140, Note_on_c, 3, 85, 0
5, 16140, Note_on_c, 3, 83, 99
5, 16160, Note_on_c, 3, 83, 0
5, 16160, Note_on_c, 3, 85, 93
5, 16180, Note_on_c, 3, 85, 0
5, 16180, Note_on_c, 3, 83, 99
5, 16200, Note_on_c, 3, 83, 0
5, 16200, Note_on_c, 3, 85, 94
5, 16215, Note_on_c, 3, 85, 0
5, 16215, Note_on_c, 3, 83, 95
5, 16230, Note_on_c, 3, 83, 0
5, 16230, Note_on_c, 3, 85, 90
5, 16245, Note_on_c, 3, 85, 0
5, 16245, Note_on_c, 3, 83, 99
5, 16260, Note_on_c, 3, 83, 0
5, 16260, Note_on_c, 3, 85, 93
5, 16270, Note_on_c, 3, 85, 0
5, 16270, Note_on_c, 3, 83, 99
5, 16280, Note_on_c, 3, 83, 0
5, 16280, Note_on_c, 3, 85, 90
5, 16290, Note_on_c, 3, 85, 0
5, 16290, Note_on_c, 3, 83, 99
5, 16300, Note_on_c, 3, 83, 0
5, 16300, Note_on_c, 3, 85, 89
5, 16310, Note_on_c, 3, 85, 0
5, 16310, Note_on_c, 3, 83, 95
5, 16320, Note_on_c, 3, 83, 0
5, 16320, Note_on_c, 3, 82, 86
5, 16380, Note_on_c, 3, 82, 0
5, 16380, Note_on_c, 3, 83, 99
5, 16440, Note_on_c, 3, 83, 0
5, 16440, Note_on_c, 3, 88, 95
5, 16455, Note_on_c, 3, 88, 0
5, 16455, Note_on_c, 3, 87, 94
5, 16470, Note_on_c, 3, 87, 0
5, 16470, Note_on_c, 3, 85, 93
5, 16485, Note_on_c, 3, 85, 0
5, 16485, Note_on_c, 3, 83, 95
5, 16500, Note_on_c, 3, 83, 0
5, 16500, Note_on_c, 3, 81, 93
5, 16515, Note_on_c, 3, 81, 0
5, 16515, Note_on_c, 3, 80, 94
5, 16530, Note_on_c, 3, 80, 0
5, 16530, Note_on_c, 3, 79, 93
5, 16545, Note_on_c, 3, 79, 0
5, 16545, Note_on_c, 3, 80, 99
5, 16560, Note_on_c, 3, 80, 0
5, 16560, Note_on_c, 3, 85, 99
5, 16575, Note_on_c, 3, 85, 0
5, 16575, Note_on_c, 3, 83, 99
5, 16590, Note_on_c, 3, 83, 0
5, 16590, Note_on_c, 3, 81, 104
5, 16605, Note_on_c, 3, 81, 0
5, 16605, Note_on_c, 3, 80, 104
5, 16620, Note_on_c, 3, 80, 0
5, 16620, Note_on_c, 3, 78, 99
5, 16635, Note_on_c, 3, 78, 0
5, 16635, Note_on_c, 3, 76, 105
5, 16650, Note_on_c, 3, 76, 0
5, 16650, Note_on_c, 3, 75, 93
5, 16665, Note_on_c, 3, 75, 0
5, 16665, Note_on_c, 3, 76, 107
5, 16680, Note_on_c, 3, 76, 0
5, 16680, Note_on_c, 3, 80, 93
5, 16695, Note_on_c, 3, 80, 0
5, 16695, Note_on_c, 3, 78, 99
5, 16710, Note_on_c, 3, 78, 0
5, 16710, Note_on_c, 3, 76, 105
5, 16725, Note_on_c, 3, 76, 0
5, 16725, Note_on_c, 3, 75, 104
5, 16740, Note_on_c, 3, 75, 0
5, 16740, Note_on_c, 3, 73, 95
5, 16755, Note_on_c, 3, 73, 0
5, 16755, Note_on_c, 3, 71, 99
5, 16770, Note_on_c, 3, 71, 0
5, 16770, Note_on_c, 3, 70, 94
5, 16785, Note_on_c, 3, 70, 0
5, 16785, Note_on_c, 3, 71, 104
5, 16800, Note_on_c, 3, 71, 0
5, 16800, Note_on_c, 3, 76, 99
5, 16815, Note_on_c, 3, 76, 0
5, 16815, Note_on_c, 3, 75, 99
5, 16830, Note_on_c, 3, 75, 0
5, 16830, Note_on_c, 3, 73, 99
5, 16845, Note_on_c, 3, 73, 0
5, 16845, Note_on_c, 3, 71, 105
5, 16860, Note_on_c, 3, 71, 0
5, 16860, Note_on_c, 3, 69, 99
5, 16875, Note_on_c, 3, 69, 0
5, 16875, Note_on_c, 3, 68, 99
5, 16890, Note_on_c, 3, 68, 0
5, 16890, Note_on_c, 3, 67, 90
5, 16905, Note_on_c, 3, 67, 0
5, 16905, Note_on_c, 3, 68, 104
5, 16920, Note_on_c, 3, 68, 0
5, 16920, Note_on_c, 3, 73, 89
5, 16935, Note_on_c, 3, 73, 0
5, 16935, Note_on_c, 3, 71, 104
5, 16950, Note_on_c, 3, 71, 0
5, 16950, Note_on_c, 3, 69, 101
5, 16965, Note_on_c, 3, 69, 0
5, 16965, Note_on_c, 3, 68, 95
5, 16980, Note_on_c, 3, 68, 0
5, 16980, Note_on_c, 3, 69, 104
5, 16995, Note_on_c, 3, 69, 0
5, 16995, Note_on_c, 3, 66, 98
5, 17010, Note_on_c, 3, 66, 0
5, 17010, Note_on_c, 3, 66, 99
5, 17020, Note_on_c, 3, 66, 0
5, 17020, Note_on_c, 3, 68, 98
5, 17030, Note_on_c, 3, 68, 0
5, 17030, Note_on_c, 3, 66, 93
5, 17040, Note_on_c, 3, 66, 0
5, 17040, Note_on_c, 3, 68, 101
5, 17050, Note_on_c, 3, 68, 0
5, 17050, Note_on_c, 3, 66, 93
5, 17060, Note_on_c, 3, 66, 0
5, 17060, Note_on_c, 3, 68, 99
5, 17070, Note_on_c, 3, 68, 0
5, 17070, Note_on_c, 3, 66, 95
5, 17080, Note_on_c, 3, 66, 0
5, 17080, Note_on_c, 3, 65, 105
5, 17095, Note_on_c, 3, 65, 0
5, 17095, Note_on_c, 3, 66, 99
5, 17110, Note_on_c, 3, 66, 0
5, 17110, Note_on_c, 3, 73, 94
5, 17120, Note_on_c, 3, 73, 0
5, 17120, Note_on_c, 3, 75, 104
5, 17130, Note_on_c, 3, 75, 0
5, 17130, Note_on_c, 3, 73, 89
5, 17140, Note_on_c, 3, 73, 0
5, 17140, Note_on_c, 3, 75, 95
5, 17150, Note_on_c, 3, 75, 0
5, 17150, Note_on_c, 3, 73, 90
5, 17160, Note_on_c, 3, 73, 0
5, 17160, Note_on_c, 3, 75, 104
5, 17170, Note_on_c, 3, 75, 0
5, 17170, Note_on_c, 3, 73, 99
5, 17180, Note_on_c, 3, 73, 0
5, 17180, Note_on_c, 3, 72, 93
5, 17195, Note_on_c, 3, 72, 0
5, 17195, Note_on_c, 3, 73, 99
5, 17210, Note_on_c, 3, 73, 0
5, 17210, Note_on_c, 3, 75, 105
5, 17255, Note_on_c, 3, 75, 0
5, 17255, Note_on_c, 3, 73, 99
5, 17270, Note_on_c, 3, 73, 0
5, 17270, Note_on_c, 3, 71, 105
5, 17330, Note_on_c, 3, 71, 0
5, 17330, Note_on_c, 3, 69, 95
5, 17390, Note_on_c, 3, 69, 0
5, 17390, Note_on_c, 3, 68, 89
5, 17450, Note_on_c, 3, 68, 0
5, 17450, Note_on_c, 3, 66, 81
5, 17510, Note_on_c, 3, 66, 0
5, 17510, Note_on_c, 3, 65, 86
5, 17540, Note_on_c, 3, 65, 0
5, 17540, Note_on_c, 3, 66, 80
5, 17570, Note_on_c, 3, 66, 0
5, 17570, Note_on_c, 3, 68, 81
5, 17600, Note_on_c, 3, 68, 0
5, 17600, Note_on_c, 3, 66, 73
5, 17630, Note_on_c, 3, 66, 0
5, 17630, Note_on_c, 3, 69, 66
5, 17670, Note_on_c, 3, 69, 0
5, 17670, Note_on_c, 3, 66, 74
5, 17710, Note_on_c, 3, 66, 0
5, 17710, Note_on_c, 3, 63, 77
5, 17750, Note_on_c, 3, 63, 0
5, 17750, Note_on_c, 3, 66, 65
5, 17790, Note_on_c, 3, 66, 0
5, 17790, Note_on_c, 3, 64, 81
5, 17830, Note_on_c, 3, 64, 0
5, 17830, Note_on_c, 3, 63, 89
5, 17870, Note_on_c, 3, 63, 0
5, 17870, Note_on_c, 3, 64, 93
5, 18050, Note_on_c, 3, 64, 0
5, 18050, Note_on_c, 3, 61, 68
5, 18080, Note_on_c, 3, 61, 0
5, 18080, Note_on_c, 3, 60, 63
5, 18095, Note_on_c, 3, 60, 0
5, 18095, Note_on_c, 3, 61, 68
5, 18110, Note_on_c, 3, 61, 0
5, 18110, Note_on_c, 3, 63, 76
5, 18125, Note_on_c, 3, 63, 0
5, 18125, Note_on_c, 3, 61, 61
5, 18245, Note_on_c, 3, 61, 0
5, 18245, Note_on_c, 3, 59, 80
5, 18365, Note_on_c, 3, 59, 0
5, 18835, Control_c, 3, 64, 68
5, 18840, Note_on_c, 3, 75, 38
5, 18840, Note_on_c, 3, 78, 43
5, 18840, Note_on_c, 3, 81, 36
5, 18840, Note_on_c, 3, 72, 62
5, 18840, Note_on_c, 3, 69, 40
5, 18840, Note_on_c, 3, 66, 57
5, 18840, Note_on_c, 3, 60, 51
5, 18840, Note_on_c, 3, 63, 48
5, 18885, Note_on_c, 3, 63, 0
5, 18885, Note_on_c, 3, 75, 0
5, 18885, Note_on_c, 3, 69, 0
5, 18885, Note_on_c, 3, 78, 0
5, 18885, Note_on_c, 3, 81, 0
5, 18885, Note_on_c, 3, 72, 0
5, 18885, Note_on_c, 3, 66, 0
5, 18885, Note_on_c, 3, 60, 0
5, 18885, Note_on_c, 3, 71, 45
5, 18885, Note_on_c, 3, 80, 44
5, 18885, Note_on_c, 3, 76, 55
5, 18885, Note_on_c, 3, 68, 44
5, 18885, Note_on_c, 3, 64, 45
5, 18885, Note_on_c, 3, 59, 43
5, 18900, Note_on_c, 3, 59, 0
5, 18900, Note_on_c, 3, 80, 0
5, 18900, Note_on_c, 3, 76, 0
5, 18900, Note_on_c, 3, 71, 0
5, 18900, Note_on_c, 3, 64, 0
5, 18900, Note_on_c, 3, 68, 0
5, 18900, Note_on_c, 3, 69, 48
5, 18900, Note_on_c, 3, 75, 43
5, 18900, Note_on_c, 3, 72, 29
5, 18900, Note_on_c, 3, 57, 61
5, 18900, Note_on_c, 3, 63, 46
5, 18900, Note_on_c, 3, 60, 42
5, 18900, Note_on_c, 3, 66, 59
5, 18900, Note_on_c, 3, 80, 63
5, 18915, Note_on_c, 3, 80, 0
5, 18915, Note_on_c, 3, 78, 61
5, 18930, Note_on_c, 3, 78, 0
5, 18930, Note_on_c, 3, 76, 74
5, 18940, Note_on_c, 3, 76, 0
5, 18940, Note_on_c, 3, 80, 44
5, 18950, Note_on_c, 3, 80, 0
5, 18950, Note_on_c, 3, 78, 44
5, 18960, Note_on_c, 3, 78, 0
5, 18960, Note_on_c, 3, 57, 0
5, 18960, Note_on_c, 3, 63, 0
5, 18960, Note_on_c, 3, 75, 0
5, 18960, Note_on_c, 3, 72, 0
5, 18960, Note_on_c, 3, 66, 0
5, 18960, Note_on_c, 3, 60, 0
5, 18960, Note_on_c, 3, 69, 0
5, 18960, Note_on_c, 3, 71, 43
5, 18960, Note_on_c, 3, 68, 43
5, 18960, Note_on_c, 3, 76, 59
5, 18960, Note_on_c, 3, 56, 58
5, 18960, Note_on_c, 3, 59, 40
5, 18960, Note_on_c, 3, 64, 51
5, 19020, Note_on_c, 3, 64, 0
5, 19020, Note_on_c, 3, 68, 0
5, 19020, Note_on_c, 3, 76, 0
5, 19020, Note_on_c, 3, 71, 0
5, 19020, Note_on_c, 3, 59, 0
5, 19020, Note_on_c, 3, 56, 0
5, 19020, Note_on_c, 3, 75, 99
5, 19020, Note_on_c, 3, 87, 99
5, 19020, Note_on_c, 3, 84, 94
5, 19020, Note_on_c, 3, 81, 90
5, 19020, Control_c, 3, 64, 0
5, 19020, Note_on_c, 3, 72, 84
5, 19020, Note_on_c, 3, 69, 95
5, 19020, Note_on_c, 3, 66, 94
5, 19065, Note_on_c, 3, 66, 0
5, 19065, Note_on_c, 3, 72, 0
5, 19065, Note_on_c, 3, 87, 0
5, 19065, Note_on_c, 3, 84, 0
5, 19065, Note_on_c, 3, 75, 0
5, 19065, Note_on_c, 3, 69, 0
5, 19065, Note_on_c, 3, 81, 0
5, 19065, Note_on_c, 3, 88, 94
5, 19065, Note_on_c, 3, 76, 93
5, 19065, Note_on_c, 3, 83, 90
5, 19065, Note_on_c, 3, 68, 95
5, 19065, Note_on_c, 3, 71, 90
5, 19080, Note_on_c, 3, 71, 0
5, 19080, Note_on_c, 3, 83, 0
5, 19080, Note_on_c, 3, 88, 0
5, 19080, Note_on_c, 3, 76, 0
5, 19080, Note_on_c, 3, 68, 0
5, 19080, Note_on_c, 3, 83, 69
5, 19080, Note_on_c, 3, 76, 74
5, 19080, Note_on_c, 3, 88, 67
5, 19080, Control_c, 3, 64, 68
5, 19080, Note_on_c, 3, 68, 77
5, 19080, Note_on_c, 3, 71, 65
5, 19110, Note_on_c, 3, 71, 0
5, 19110, Note_on_c, 3, 88, 0
5, 19110, Note_on_c, 3, 83, 0
5, 19110, Note_on_c, 3, 76, 0
5, 19110, Note_on_c, 3, 68, 0
5, 19110, Note_on_c, 3, 88, 56
5, 19110, Note_on_c, 3, 76, 70
5, 19140, Note_on_c, 3, 76, 0
5, 19140, Note_on_c, 3, 88, 0
5, 19140, Note_on_c, 3, 59, 64
5, 19140, Note_on_c, 3, 47, 61
5, 19170, Note_on_c, 3, 47, 0
5, 19170, Note_on_c, 3, 59, 0
5, 19170, Note_on_c, 3, 71, 68
5, 19170, Note_on_c, 3, 83, 70
5, 19200, Note_on_c, 3, 83, 0
5, 19200, Note_on_c, 3, 71, 0
5, 19200, Note_on_c, 3, 44, 77
5, 19200, Note_on_c, 3, 56, 72
5, 19230, Note_on_c, 3, 56, 0
5, 19230, Note_on_c, 3, 44, 0
5, 19230, Note_on_c, 3, 68, 70
5, 19230, Note_on_c, 3, 80, 62
5, 19260, Note_on_c, 3, 80, 0
5, 19260, Note_on_c, 3, 68, 0
5, 19260, Note_on_c, 3, 40, 63
5, 19260, Note_on_c, 3, 52, 61
5, 19290, Note_on_c, 3, 52, 0
5, 19290, Note_on_c, 3, 40, 0
5, 19290, Note_on_c, 3, 64, 64
5, 19290, Note_on_c, 3, 76, 50
5, 19320, Note_on_c, 3, 76, 0
5, 19320, Note_on_c, 3, 64, 0
5, 19320, Note_on_c, 3, 47, 57
5, 19320, Note_on_c, 3, 35, 61
5, 19350, Note_on_c, 3, 35, 0
5, 19350, Note_on_c, 3, 47, 0
5, 19350, Note_on_c, 3, 59, 58
5, 19350, Note_on_c, 3, 71, 62
5, 19380, Note_on_c, 3, 71, 0
5, 19380, Note_on_c, 3, 59, 0
5, 19380, Note_on_c, 3, 44, 41
5, 19380, Note_on_c, 3, 32, 45
5, 19410, Note_on_c, 3, 32, 0
5, 19410, Note_on_c, 3, 44, 0
5, 19410, Note_on_c, 3, 68, 42
5, 19410, Note_on_c, 3, 56, 40
5, 19440, Note_on_c, 3, 56, 0
5, 19440, Note_on_c, 3, 68, 0
5, 19440, Note_on_c, 3, 40, 38
5, 19440, Note_on_c, 3, 28, 40
5, 19440, Note_on_c, 3, 52, 38
5, 19440, Note_on_c, 3, 64, 42
5, 19470, Note_on_c, 3, 64, 0
5, 19470, Note_on_c, 3, 40, 0
5, 19470, Note_on_c, 3, 28, 0
5, 19470, Note_on_c, 3, 52, 0
5, 19470, End_track
6, 0, Start_track
6, 0, MIDI_port, 0
6, 0, Title_t, "1st Violins"
6, 0, Program_c, 4, 49
6, 0, Control_c, 4, 7, 100
6, 0, Control_c, 4, 10, 38
6, 0, Control_c, 4, 93, 0
6, 0, Control_c, 4, 91, 66
6, 2070, Note_on_c, 4, 71, 43
6, 2130, Note_on_c, 4, 71, 0
6, 2130, Note_on_c, 4, 69, 50
6, 2160, Note_on_c, 4, 69, 0
6, 2160, Note_on_c, 4, 68, 53
6, 2280, Note_on_c, 4, 68, 0
6, 2280, Note_on_c, 4, 69, 62
6, 2325, Note_on_c, 4, 69, 0
6, 2325, Note_on_c, 4, 68, 65
6, 2340, Note_on_c, 4, 68, 0
6, 2340, Note_on_c, 4, 68, 50
6, 2370, Note_on_c, 4, 68, 0
6, 2370, Note_on_c, 4, 66, 44
6, 2380, Note_on_c, 4, 66, 0
6, 2380, Note_on_c, 4, 68, 66
6, 2390, Note_on_c, 4, 68, 0
6, 2390, Note_on_c, 4, 66, 64
6, 2400, Note_on_c, 4, 66, 0
6, 2400, Note_on_c, 4, 64, 51
6, 2460, Note_on_c, 4, 64, 0
6, 2460, Note_on_c, 4, 76, 55
6, 2505, Note_on_c, 4, 76, 0
6, 2505, Note_on_c, 4, 75, 58
6, 2520, Note_on_c, 4, 75, 0
6, 2520, Note_on_c, 4, 75, 64
6, 2550, Note_on_c, 4, 75, 0
6, 2550, Note_on_c, 4, 73, 67
6, 2560, Note_on_c, 4, 73, 0
6, 2560, Note_on_c, 4, 75, 66
6, 2570, Note_on_c, 4, 75, 0
6, 2570, Note_on_c, 4, 73, 50
6, 2580, Note_on_c, 4, 73, 0
6, 2580, Note_on_c, 4, 71, 46
6, 2610, Note_on_c, 4, 71, 0
6, 2610, Note_on_c, 4, 83, 77
6, 2640, Note_on_c, 4, 83, 0
6, 2640, Note_on_c, 4, 81, 45
6, 2655, Note_on_c, 4, 81, 0
6, 2655, Note_on_c, 4, 80, 73
6, 2670, Note_on_c, 4, 80, 0
6, 2670, Note_on_c, 4, 78, 73
6, 2685, Note_on_c, 4, 78, 0
6, 2685, Note_on_c, 4, 76, 67
6, 2700, Note_on_c, 4, 76, 0
6, 2700, Note_on_c, 4, 75, 74
6, 2715, Note_on_c, 4, 75, 0
6, 2715, Note_on_c, 4, 73, 53
6, 2730, Note_on_c, 4, 73, 0
6, 2730, Note_on_c, 4, 71, 73
6, 2745, Note_on_c, 4, 71, 0
6, 2745, Note_on_c, 4, 69, 71
6, 2760, Note_on_c, 4, 69, 0
6, 2760, Note_on_c, 4, 68, 62
6, 2790, Note_on_c, 4, 68, 0
6, 2790, Note_on_c, 4, 71, 64
6, 2835, Note_on_c, 4, 71, 0
6, 2835, Note_on_c, 4, 69, 58
6, 2850, Note_on_c, 4, 69, 0
6, 2850, Note_on_c, 4, 66, 61
6, 2865, Note_on_c, 4, 66, 0
6, 2865, Note_on_c, 4, 63, 61
6, 2880, Note_on_c, 4, 63, 0
6, 2880, Note_on_c, 4, 64, 45
6, 2903, Note_on_c, 4, 64, 0
6, 2910, Note_on_c, 4, 64, 53
6, 2933, Note_on_c, 4, 64, 0
6, 2940, Note_on_c, 4, 64, 54
6, 2963, Note_on_c, 4, 64, 0
6, 2970, Note_on_c, 4, 64, 49
6, 2993, Note_on_c, 4, 64, 0
6, 3000, Note_on_c, 4, 64, 49
6, 3023, Note_on_c, 4, 64, 0
6, 3030, Note_on_c, 4, 64, 59
6, 3053, Note_on_c, 4, 64, 0
6, 3060, Note_on_c, 4, 64, 62
6, 3083, Note_on_c, 4, 64, 0
6, 3090, Note_on_c, 4, 64, 64
6, 3113, Note_on_c, 4, 64, 0
6, 3120, Note_on_c, 4, 64, 65
6, 3143, Note_on_c, 4, 64, 0
6, 3150, Note_on_c, 4, 64, 58
6, 3173, Note_on_c, 4, 64, 0
6, 3180, Note_on_c, 4, 64, 62
6, 3203, Note_on_c, 4, 64, 0
6, 3210, Note_on_c, 4, 64, 59
6, 3233, Note_on_c, 4, 64, 0
6, 3240, Note_on_c, 4, 66, 61
6, 3263, Note_on_c, 4, 66, 0
6, 3270, Note_on_c, 4, 78, 45
6, 3293, Note_on_c, 4, 78, 0
6, 3300, Note_on_c, 4, 78, 65
6, 3323, Note_on_c, 4, 78, 0
6, 3330, Note_on_c, 4, 78, 56
6, 3360, Note_on_c, 4, 78, 0
6, 3360, Note_on_c, 4, 80, 82
6, 3390, Note_on_c, 4, 80, 0
6, 3390, Note_on_c, 4, 81, 90
6, 3420, Note_on_c, 4, 81, 0
6, 3420, Note_on_c, 4, 81, 94
6, 3480, Note_on_c, 4, 81, 0
6, 3480, Note_on_c, 4, 81, 67
6, 3495, Note_on_c, 4, 81, 0
6, 3495, Note_on_c, 4, 80, 93
6, 3510, Note_on_c, 4, 80, 0
6, 3510, Note_on_c, 4, 83, 84
6, 3525, Note_on_c, 4, 83, 0
6, 3525, Note_on_c, 4, 81, 89
6, 3540, Note_on_c, 4, 81, 0
6, 3540, Note_on_c, 4, 80, 85
6, 3555, Note_on_c, 4, 80, 0
6, 3555, Note_on_c, 4, 78, 67
6, 3570, Note_on_c, 4, 78, 0
6, 3570, Note_on_c, 4, 76, 62
6, 3585, Note_on_c, 4, 76, 0
6, 3585, Note_on_c, 4, 75, 72
6, 3600, Note_on_c, 4, 75, 0
6, 3600, Note_on_c, 4, 76, 67
6, 3660, Note_on_c, 4, 76, 0
6, 3690, Note_on_c, 4, 81, 95
6, 3735, Note_on_c, 4, 81, 0
6, 3735, Note_on_c, 4, 78, 78
6, 3750, Note_on_c, 4, 78, 0
6, 3750, Note_on_c, 4, 76, 59
6, 3765, Note_on_c, 4, 76, 0
6, 3765, Note_on_c, 4, 75, 71
6, 3780, Note_on_c, 4, 75, 0
6, 3780, Note_on_c, 4, 76, 72
6, 3840, Note_on_c, 4, 76, 0
6, 3870, Note_on_c, 4, 81, 93
6, 3900, Note_on_c, 4, 81, 0
6, 3900, Note_on_c, 4, 81, 81
6, 3907, Note_on_c, 4, 85, 72
6, 3908, Note_on_c, 4, 81, 0
6, 3915, Note_on_c, 4, 85, 0
6, 3915, Note_on_c, 4, 83, 76
6, 3922, Note_on_c, 4, 81, 94
6, 3923, Note_on_c, 4, 83, 0
6, 3930, Note_on_c, 4, 81, 0
6, 3930, Note_on_c, 4, 80, 93
6, 3937, Note_on_c, 4, 78, 89
6, 3938, Note_on_c, 4, 80, 0
6, 3945, Note_on_c, 4, 78, 0
6, 3945, Note_on_c, 4, 76, 95
6, 3952, Note_on_c, 4, 75, 94
6, 3953, Note_on_c, 4, 76, 0
6, 3960, Note_on_c, 4, 75, 0
6, 3960, Note_on_c, 4, 76, 81
6, 3990, Note_on_c, 4, 76, 0
6, 4020, Note_on_c, 4, 71, 86
6, 4050, Note_on_c, 4, 71, 0
6, 4080, Note_on_c, 4, 68, 85
6, 4110, Note_on_c, 4, 68, 0
6, 4140, Note_on_c, 4, 64, 85
6, 4170, Note_on_c, 4, 64, 0
6, 4890, Note_on_c, 4, 71, 72
6, 4913, Note_on_c, 4, 71, 0
6, 4920, Note_on_c, 4, 71, 77
6, 4943, Note_on_c, 4, 71, 0
6, 4950, Note_on_c, 4, 71, 84
6, 4973, Note_on_c, 4, 71, 0
6, 4980, Note_on_c, 4, 71, 90
6, 5010, Note_on_c, 4, 71, 0
6, 5010, Note_on_c, 4, 72, 77
6, 5040, Note_on_c, 4, 72, 0
6, 5040, Note_on_c, 4, 73, 69
6, 5070, Note_on_c, 4, 73, 0
6, 5070, Note_on_c, 4, 76, 81
6, 5100, Note_on_c, 4, 76, 0
6, 5130, Note_on_c, 4, 75, 76
6, 5160, Note_on_c, 4, 75, 0
6, 5190, Note_on_c, 4, 73, 68
6, 5220, Note_on_c, 4, 73, 0
6, 5250, Note_on_c, 4, 71, 78
6, 5280, Note_on_c, 4, 71, 0
6, 5280, Note_on_c, 4, 70, 73
6, 5310, Note_on_c, 4, 70, 0
6, 5370, Note_on_c, 4, 70, 73
6, 5400, Note_on_c, 4, 70, 0
6, 5400, Note_on_c, 4, 71, 72
6, 5415, Note_on_c, 4, 71, 0
6, 5430, Note_on_c, 4, 71, 69
6, 5445, Note_on_c, 4, 71, 0
6, 5490, Note_on_c, 4, 75, 78
6, 5520, Note_on_c, 4, 75, 0
6, 5550, Note_on_c, 4, 65, 65
6, 5580, Note_on_c, 4, 65, 0
6, 5580, Note_on_c, 4, 66, 47
6, 5640, Note_on_c, 4, 66, 0
6, 5670, Note_on_c, 4, 75, 78
6, 5700, Note_on_c, 4, 75, 0
6, 5700, Note_on_c, 4, 73, 70
6, 5715, Note_on_c, 4, 73, 0
6, 5727, Note_on_c, 4, 73, 82
6, 5730, Note_on_c, 4, 71, 77
6, 5731, Note_on_c, 4, 73, 0
6, 5737, Note_on_c, 4, 70, 76
6, 5738, Note_on_c, 4, 71, 0
6, 5745, Note_on_c, 4, 70, 0
6, 5745, Note_on_c, 4, 71, 77
6, 5752, Note_on_c, 4, 73, 64
6, 5753, Note_on_c, 4, 71, 0
6, 5760, Note_on_c, 4, 73, 0
6, 5760, Note_on_c, 4, 71, 95
6, 5820, Note_on_c, 4, 71, 0
6, 5820, Note_on_c, 4, 70, 85
6, 5850, Note_on_c, 4, 70, 0
6, 5850, Note_on_c, 4, 75, 78
6, 5872, Note_on_c, 4, 76, 84
6, 5873, Note_on_c, 4, 75, 0
6, 5880, Note_on_c, 4, 76, 0
6, 5880, Note_on_c, 4, 73, 84
6, 5902, Note_on_c, 4, 75, 85
6, 5903, Note_on_c, 4, 73, 0
6, 5906, Note_on_c, 4, 75, 0
6, 5906, Note_on_c, 4, 73, 81
6, 5910, Note_on_c, 4, 73, 0
6, 5910, Note_on_c, 4, 71, 99
6, 5917, Note_on_c, 4, 70, 81
6, 5918, Note_on_c, 4, 71, 0
6, 5925, Note_on_c, 4, 70, 0
6, 5925, Note_on_c, 4, 71, 73
6, 5932, Note_on_c, 4, 73, 74
6, 5933, Note_on_c, 4, 71, 0
6, 5940, Note_on_c, 4, 73, 0
6, 5940, Note_on_c, 4, 71, 94
6, 6000, Note_on_c, 4, 71, 0
6, 6000, Note_on_c, 4, 70, 77
6, 6030, Note_on_c, 4, 70, 0
6, 6150, Note_on_c, 4, 68, 76
6, 6180, Note_on_c, 4, 68, 0
6, 6210, Note_on_c, 4, 68, 69
6, 6240, Note_on_c, 4, 68, 0
6, 6270, Note_on_c, 4, 68, 80
6, 6300, Note_on_c, 4, 68, 0
6, 6300, Note_on_c, 4, 66, 69
6, 6330, Note_on_c, 4, 66, 0
6, 6420, Note_on_c, 4, 70, 71
6, 6450, Note_on_c, 4, 70, 0
6, 6480, Note_on_c, 4, 71, 78
6, 6495, Note_on_c, 4, 71, 0
6, 6495, Note_on_c, 4, 71, 89
6, 6525, Note_on_c, 4, 71, 0
6, 6525, Note_on_c, 4, 71, 81
6, 6555, Note_on_c, 4, 71, 0
6, 6555, Note_on_c, 4, 71, 94
6, 6585, Note_on_c, 4, 71, 0
6, 6585, Note_on_c, 4, 71, 95
6, 6615, Note_on_c, 4, 71, 0
6, 6615, Note_on_c, 4, 71, 93
6, 6645, Note_on_c, 4, 71, 0
6, 6645, Note_on_c, 4, 71, 94
6, 6660, Note_on_c, 4, 71, 0
6, 6660, Note_on_c, 4, 72, 80
6, 6675, Note_on_c, 4, 72, 0
6, 6675, Note_on_c, 4, 84, 95
6, 6705, Note_on_c, 4, 84, 0
6, 6705, Note_on_c, 4, 81, 95
6, 6735, Note_on_c, 4, 81, 0
6, 6735, Note_on_c, 4, 78, 94
6, 6765, Note_on_c, 4, 78, 0
6, 6765, Note_on_c, 4, 74, 99
6, 6795, Note_on_c, 4, 74, 0
6, 6795, Note_on_c, 4, 72, 80
6, 6802, Note_on_c, 4, 72, 0
6, 6810, Note_on_c, 4, 69, 99
6, 6817, Note_on_c, 4, 69, 0
6, 6825, Note_on_c, 4, 66, 99
6, 6832, Note_on_c, 4, 66, 0
6, 6840, Note_on_c, 4, 59, 82
6, 6840, Note_on_c, 4, 67, 72
6, 6900, Note_on_c, 4, 67, 0
6, 6900, Note_on_c, 4, 59, 0
6, 6960, Program_c, 4, 45
6, 7080, Note_on_c, 4, 71, 80
6, 7140, Note_on_c, 4, 71, 0
6, 7140, Note_on_c, 4, 79, 73
6, 7200, Note_on_c, 4, 79, 0
6, 7260, Note_on_c, 4, 72, 69
6, 7320, Note_on_c, 4, 72, 0
6, 7320, Note_on_c, 4, 78, 74
6, 7380, Note_on_c, 4, 78, 0
6, 7440, Note_on_c, 4, 72, 86
6, 7500, Note_on_c, 4, 72, 0
6, 7500, Note_on_c, 4, 81, 61
6, 7560, Note_on_c, 4, 81, 0
6, 7620, Note_on_c, 4, 71, 93
6, 7680, Note_on_c, 4, 71, 0
6, 7680, Note_on_c, 4, 74, 90
6, 7740, Note_on_c, 4, 74, 0
6, 7800, Note_on_c, 4, 83, 84
6, 7860, Note_on_c, 4, 83, 0
6, 7860, Note_on_c, 4, 74, 95
6, 7920, Note_on_c, 4, 74, 0
6, 7980, Note_on_c, 4, 72, 61
6, 8040, Note_on_c, 4, 72, 0
6, 8040, Note_on_c, 4, 81, 68
6, 8100, Note_on_c, 4, 81, 0
6, 8160, Note_on_c, 4, 81, 78
6, 8220, Note_on_c, 4, 81, 0
6, 8220, Note_on_c, 4, 81, 76
6, 8280, Note_on_c, 4, 81, 0
6, 8340, Note_on_c, 4, 81, 71
6, 8400, Note_on_c, 4, 81, 0
6, 8400, Note_on_c, 4, 81, 74
6, 8460, Note_on_c, 4, 81, 0
6, 8520, Note_on_c, 4, 81, 71
6, 8580, Note_on_c, 4, 81, 0
6, 8580, Note_on_c, 4, 81, 74
6, 8640, Note_on_c, 4, 81, 0
6, 8640, Note_on_c, 4, 81, 77
6, 8700, Note_on_c, 4, 81, 0
6, 8700, Note_on_c, 4, 69, 81
6, 8760, Note_on_c, 4, 69, 0
6, 8760, Note_on_c, 4, 69, 84
6, 8820, Note_on_c, 4, 69, 0
6, 8820, Note_on_c, 4, 81, 81
6, 8880, Note_on_c, 4, 81, 0
6, 8880, Note_on_c, 4, 69, 85
6, 8940, Note_on_c, 4, 69, 0
6, 8940, Note_on_c, 4, 69, 84
6, 9000, Note_on_c, 4, 69, 0
6, 9000, Note_on_c, 4, 69, 84
6, 9060, Note_on_c, 4, 69, 0
6, 9360, Program_c, 4, 49
6, 9690, Note_on_c, 4, 64, 71
6, 9720, Note_on_c, 4, 64, 0
6, 9720, Note_on_c, 4, 66, 49
6, 9780, Note_on_c, 4, 66, 0
6, 9780, Note_on_c, 4, 66, 61
6, 9802, Note_on_c, 4, 66, 0
6, 9810, Note_on_c, 4, 66, 78
6, 9832, Note_on_c, 4, 66, 0
6, 9840, Note_on_c, 4, 66, 74
6, 9862, Note_on_c, 4, 66, 0
6, 9870, Note_on_c, 4, 66, 53
6, 9892, Note_on_c, 4, 66, 0
6, 9900, Note_on_c, 4, 68, 57
6, 10020, Note_on_c, 4, 68, 0
6, 10260, Note_on_c, 4, 76, 61
6, 10320, Note_on_c, 4, 76, 0
6, 10320, Note_on_c, 4, 75, 32
6, 10380, Note_on_c, 4, 75, 0
6, 10830, Note_on_c, 4, 71, 59
6, 10860, Note_on_c, 4, 71, 0
6, 10860, Note_on_c, 4, 74, 43
6, 10890, Note_on_c, 4, 74, 0
6, 10890, Note_on_c, 4, 79, 43
6, 10920, Note_on_c, 4, 79, 0
6, 10920, Note_on_c, 4, 78, 40
6, 10980, Note_on_c, 4, 78, 0
6, 11430, Note_on_c, 4, 71, 71
6, 11490, Note_on_c, 4, 71, 0
6, 11490, Note_on_c, 4, 69, 74
6, 11520, Note_on_c, 4, 69, 0
6, 11520, Note_on_c, 4, 68, 62
6, 11640, Note_on_c, 4, 68, 0
6, 11640, Note_on_c, 4, 69, 71
6, 11685, Note_on_c, 4, 69, 0
6, 11685, Note_on_c, 4, 68, 74
6, 11700, Note_on_c, 4, 68, 0
6, 11700, Note_on_c, 4, 68, 78
6, 11730, Note_on_c, 4, 68, 0
6, 11730, Note_on_c, 4, 66, 65
6, 11740, Note_on_c, 4, 66, 0
6, 11740, Note_on_c, 4, 68, 73
6, 11750, Note_on_c, 4, 68, 0
6, 11750, Note_on_c, 4, 66, 72
6, 11760, Note_on_c, 4, 66, 0
6, 11760, Note_on_c, 4, 64, 69
6, 11820, Note_on_c, 4, 64, 0
6, 11820, Note_on_c, 4, 76, 76
6, 11865, Note_on_c, 4, 76, 0
6, 11865, Note_on_c, 4, 75, 80
6, 11880, Note_on_c, 4, 75, 0
6, 11880, Note_on_c, 4, 75, 80
6, 11910, Note_on_c, 4, 75, 0
6, 11910, Note_on_c, 4, 73, 69
6, 11920, Note_on_c, 4, 73, 0
6, 11920, Note_on_c, 4, 75, 89
6, 11930, Note_on_c, 4, 75, 0
6, 11930, Note_on_c, 4, 73, 72
6, 11940, Note_on_c, 4, 73, 0
6, 11940, Note_on_c, 4, 71, 84
6, 11970, Note_on_c, 4, 71, 0
6, 11970, Note_on_c, 4, 83, 81
6, 12000, Note_on_c, 4, 83, 0
6, 12000, Note_on_c, 4, 81, 85
6, 12015, Note_on_c, 4, 81, 0
6, 12015, Note_on_c, 4, 80, 85
6, 12030, Note_on_c, 4, 80, 0
6, 12030, Note_on_c, 4, 78, 84
6, 12045, Note_on_c, 4, 78, 0
6, 12045, Note_on_c, 4, 76, 86
6, 12060, Note_on_c, 4, 76, 0
6, 12060, Note_on_c, 4, 75, 93
6, 12075, Note_on_c, 4, 75, 0
6, 12075, Note_on_c, 4, 73, 86
6, 12090, Note_on_c, 4, 73, 0
6, 12090, Note_on_c, 4, 71, 89
6, 12105, Note_on_c, 4, 71, 0
6, 12105, Note_on_c, 4, 69, 89
6, 12120, Note_on_c, 4, 69, 0
6, 12120, Note_on_c, 4, 68, 90
6, 12150, Note_on_c, 4, 68, 0
6, 12150, Note_on_c, 4, 71, 93
6, 12195, Note_on_c, 4, 71, 0
6, 12195, Note_on_c, 4, 69, 77
6, 12210, Note_on_c, 4, 69, 0
6, 12210, Note_on_c, 4, 66, 89
6, 12225, Note_on_c, 4, 66, 0
6, 12225, Note_on_c, 4, 63, 80
6, 12240, Note_on_c, 4, 63, 0
6, 12240, Note_on_c, 4, 64, 67
6, 12262, Note_on_c, 4, 64, 0
6, 12270, Note_on_c, 4, 64, 64
6, 12292, Note_on_c, 4, 64, 0
6, 12300, Note_on_c, 4, 64, 62
6, 12322, Note_on_c, 4, 64, 0
6, 12330, Note_on_c, 4, 64, 71
6, 12352, Note_on_c, 4, 64, 0
6, 12360, Note_on_c, 4, 64, 66
6, 12382, Note_on_c, 4, 64, 0
6, 12390, Note_on_c, 4, 64, 68
6, 12412, Note_on_c, 4, 64, 0
6, 12420, Note_on_c, 4, 64, 68
6, 12442, Note_on_c, 4, 64, 0
6, 12450, Note_on_c, 4, 64, 64
6, 12472, Note_on_c, 4, 64, 0
6, 12480, Note_on_c, 4, 64, 71
6, 12502, Note_on_c, 4, 64, 0
6, 12510, Note_on_c, 4, 64, 76
6, 12532, Note_on_c, 4, 64, 0
6, 12540, Note_on_c, 4, 64, 65
6, 12562, Note_on_c, 4, 64, 0
6, 12570, Note_on_c, 4, 64, 68
6, 12592, Note_on_c, 4, 64, 0
6, 12600, Note_on_c, 4, 66, 62
6, 12622, Note_on_c, 4, 66, 0
6, 12630, Note_on_c, 4, 78, 53
6, 12652, Note_on_c, 4, 78, 0
6, 12660, Note_on_c, 4, 78, 62
6, 12682, Note_on_c, 4, 78, 0
6, 12690, Note_on_c, 4, 78, 69
6, 12720, Note_on_c, 4, 78, 0
6, 12720, Note_on_c, 4, 80, 84
6, 12750, Note_on_c, 4, 80, 0
6, 12750, Note_on_c, 4, 81, 93
6, 12780, Note_on_c, 4, 81, 0
6, 12780, Note_on_c, 4, 81, 95
6, 12855, Note_on_c, 4, 81, 0
6, 12855, Note_on_c, 4, 80, 95
6, 12870, Note_on_c, 4, 80, 0
6, 12870, Note_on_c, 4, 83, 93
6, 12885, Note_on_c, 4, 83, 0
6, 12885, Note_on_c, 4, 81, 104
6, 12900, Note_on_c, 4, 81, 0
6, 12900, Note_on_c, 4, 80, 90
6, 12915, Note_on_c, 4, 80, 0
6, 12915, Note_on_c, 4, 78, 72
6, 12930, Note_on_c, 4, 78, 0
6, 12930, Note_on_c, 4, 76, 65
6, 12945, Note_on_c, 4, 76, 0
6, 12945, Note_on_c, 4, 75, 48
6, 12960, Note_on_c, 4, 75, 0
6, 12960, Note_on_c, 4, 76, 57
6, 13020, Note_on_c, 4, 76, 0
6, 13680, Note_on_c, 4, 66, 45
6, 13725, Note_on_c, 4, 66, 0
6, 13740, Note_on_c, 4, 66, 50
6, 13785, Note_on_c, 4, 66, 0
6, 13800, Note_on_c, 4, 66, 50
6, 13845, Note_on_c, 4, 66, 0
6, 13860, Note_on_c, 4, 66, 46
6, 13905, Note_on_c, 4, 66, 0
6, 13920, Note_on_c, 4, 66, 45
6, 13965, Note_on_c, 4, 66, 0
6, 13980, Note_on_c, 4, 66, 53
6, 14025, Note_on_c, 4, 66, 0
6, 14040, Note_on_c, 4, 66, 41
6, 14100, Note_on_c, 4, 66, 0
6, 14100, Note_on_c, 4, 75, 53
6, 14160, Note_on_c, 4, 75, 0
6, 14160, Note_on_c, 4, 75, 58
6, 14220, Note_on_c, 4, 75, 0
6, 14220, Note_on_c, 4, 75, 82
6, 14280, Note_on_c, 4, 75, 0
6, 14280, Note_on_c, 4, 75, 94
6, 14340, Note_on_c, 4, 75, 0
6, 14340, Note_on_c, 4, 75, 93
6, 14400, Note_on_c, 4, 75, 0
6, 14400, Note_on_c, 4, 76, 55
6, 14520, Note_on_c, 4, 76, 0
6, 14760, Note_on_c, 4, 66, 73
6, 14820, Note_on_c, 4, 66, 0
6, 14880, Note_on_c, 4, 64, 76
6, 14940, Note_on_c, 4, 64, 0
6, 15000, Note_on_c, 4, 63, 73
6, 15060, Note_on_c, 4, 63, 0
6, 15120, Note_on_c, 4, 71, 94
6, 15210, Note_on_c, 4, 71, 0
6, 15210, Note_on_c, 4, 83, 76
6, 15240, Note_on_c, 4, 83, 0
6, 15240, Note_on_c, 4, 83, 89
6, 15360, Note_on_c, 4, 83, 0
6, 15480, Note_on_c, 4, 73, 94
6, 15570, Note_on_c, 4, 73, 0
6, 15570, Note_on_c, 4, 85, 77
6, 15600, Note_on_c, 4, 85, 0
6, 15600, Note_on_c, 4, 85, 78
6, 15720, Note_on_c, 4, 85, 0
6, 15840, Note_on_c, 4, 59, 99
6, 15900, Note_on_c, 4, 59, 0
6, 18300, Note_on_c, 4, 63, 46
6, 18360, Note_on_c, 4, 63, 0
6, 18360, Note_on_c, 4, 64, 43
6, 18420, Note_on_c, 4, 64, 0
6, 18480, Note_on_c, 4, 69, 44
6, 18525, Note_on_c, 4, 69, 0
6, 18525, Note_on_c, 4, 68, 38
6, 18540, Note_on_c, 4, 68, 0
6, 18540, Note_on_c, 4, 68, 34
6, 18570, Note_on_c, 4, 68, 0
6, 18570, Note_on_c, 4, 66, 64
6, 18580, Note_on_c, 4, 66, 0
6, 18580, Note_on_c, 4, 68, 52
6, 18590, Note_on_c, 4, 68, 0
6, 18590, Note_on_c, 4, 66, 43
6, 18600, Note_on_c, 4, 66, 0
6, 18600, Note_on_c, 4, 64, 40
6, 18630, Note_on_c, 4, 64, 0
6, 18660, Note_on_c, 4, 73, 46
6, 18705, Note_on_c, 4, 73, 0
6, 18705, Note_on_c, 4, 71, 38
6, 18720, Note_on_c, 4, 71, 0
6, 18720, Note_on_c, 4, 71, 59
6, 18750, Note_on_c, 4, 71, 0
6, 18750, Note_on_c, 4, 69, 45
6, 18760, Note_on_c, 4, 69, 0
6, 18760, Note_on_c, 4, 71, 41
6, 18770, Note_on_c, 4, 71, 0
6, 18770, Note_on_c, 4, 69, 44
6, 18780, Note_on_c, 4, 69, 0
6, 18780, Note_on_c, 4, 68, 31
6, 18840, Note_on_c, 4, 68, 0
6, 19680, Note_on_c, 4, 71, 93
6, 19680, Note_on_c, 4, 64, 105
6, 19680, Note_on_c, 4, 80, 104
6, 19710, Note_on_c, 4, 80, 0
6, 19710, Note_on_c, 4, 64, 0
6, 19710, Note_on_c, 4, 71, 0
6, 19710, End_track
7, 0, Start_track
7, 0, MIDI_port, 0
7, 0, Title_t, "2nd Violins"
7, 0, Program_c, 5, 49
7, 0, Control_c, 5, 7, 100
7, 0, Control_c, 5, 10, 13
7, 0, Control_c, 5, 93, 0
7, 0, Control_c, 5, 91, 66
7, 2070, Note_on_c, 5, 63, 42
7, 2100, Note_on_c, 5, 63, 0
7, 2100, Note_on_c, 5, 64, 43
7, 2130, Note_on_c, 5, 64, 0
7, 2130, Note_on_c, 5, 66, 50
7, 2160, Note_on_c, 5, 66, 0
7, 2160, Note_on_c, 5, 59, 37
7, 2220, Note_on_c, 5, 59, 0
7, 2220, Note_on_c, 5, 64, 53
7, 2280, Note_on_c, 5, 64, 0
7, 2280, Note_on_c, 5, 66, 46
7, 2310, Note_on_c, 5, 66, 0
7, 2310, Note_on_c, 5, 59, 43
7, 2340, Note_on_c, 5, 59, 0
7, 2340, Note_on_c, 5, 63, 45
7, 2400, Note_on_c, 5, 63, 0
7, 2400, Note_on_c, 5, 64, 51
7, 2460, Note_on_c, 5, 64, 0
7, 2460, Note_on_c, 5, 76, 40
7, 2505, Note_on_c, 5, 76, 0
7, 2505, Note_on_c, 5, 75, 72
7, 2520, Note_on_c, 5, 75, 0
7, 2520, Note_on_c, 5, 75, 64
7, 2550, Note_on_c, 5, 75, 0
7, 2550, Note_on_c, 5, 73, 67
7, 2560, Note_on_c, 5, 73, 0
7, 2560, Note_on_c, 5, 75, 66
7, 2570, Note_on_c, 5, 75, 0
7, 2570, Note_on_c, 5, 73, 50
7, 2580, Note_on_c, 5, 73, 0
7, 2580, Note_on_c, 5, 71, 46
7, 2610, Note_on_c, 5, 71, 0
7, 2610, Note_on_c, 5, 83, 77
7, 2640, Note_on_c, 5, 83, 0
7, 2640, Note_on_c, 5, 81, 45
7, 2655, Note_on_c, 5, 81, 0
7, 2655, Note_on_c, 5, 80, 73
7, 2670, Note_on_c, 5, 80, 0
7, 2670, Note_on_c, 5, 78, 73
7, 2685, Note_on_c, 5, 78, 0
7, 2685, Note_on_c, 5, 76, 67
7, 2700, Note_on_c, 5, 76, 0
7, 2700, Note_on_c, 5, 75, 74
7, 2715, Note_on_c, 5, 75, 0
7, 2715, Note_on_c, 5, 73, 53
7, 2730, Note_on_c, 5, 73, 0
7, 2730, Note_on_c, 5, 71, 73
7, 2745, Note_on_c, 5, 71, 0
7, 2745, Note_on_c, 5, 69, 71
7, 2760, Note_on_c, 5, 69, 0
7, 2760, Note_on_c, 5, 68, 62
7, 2790, Note_on_c, 5, 68, 0
7, 2790, Note_on_c, 5, 71, 64
7, 2835, Note_on_c, 5, 71, 0
7, 2835, Note_on_c, 5, 69, 58
7, 2850, Note_on_c, 5, 69, 0
7, 2850, Note_on_c, 5, 66, 61
7, 2865, Note_on_c, 5, 66, 0
7, 2865, Note_on_c, 5, 63, 61
7, 2880, Note_on_c, 5, 63, 0
7, 2880, Note_on_c, 5, 64, 59
7, 2910, Note_on_c, 5, 64, 0
7, 2910, Note_on_c, 5, 56, 42
7, 2925, Note_on_c, 5, 56, 0
7, 2940, Note_on_c, 5, 56, 45
7, 2963, Note_on_c, 5, 56, 0
7, 2970, Note_on_c, 5, 56, 43
7, 2993, Note_on_c, 5, 56, 0
7, 3000, Note_on_c, 5, 56, 45
7, 3023, Note_on_c, 5, 56, 0
7, 3030, Note_on_c, 5, 56, 50
7, 3053, Note_on_c, 5, 56, 0
7, 3060, Note_on_c, 5, 56, 46
7, 3083, Note_on_c, 5, 56, 0
7, 3090, Note_on_c, 5, 56, 46
7, 3113, Note_on_c, 5, 56, 0
7, 3120, Note_on_c, 5, 56, 58
7, 3143, Note_on_c, 5, 56, 0
7, 3150, Note_on_c, 5, 56, 47
7, 3173, Note_on_c, 5, 56, 0
7, 3180, Note_on_c, 5, 56, 46
7, 3203, Note_on_c, 5, 56, 0
7, 3210, Note_on_c, 5, 56, 46
7, 3233, Note_on_c, 5, 56, 0
7, 3240, Note_on_c, 5, 57, 54
7, 3263, Note_on_c, 5, 57, 0
7, 3270, Note_on_c, 5, 66, 48
7, 3293, Note_on_c, 5, 66, 0
7, 3300, Note_on_c, 5, 66, 45
7, 3323, Note_on_c, 5, 66, 0
7, 3330, Note_on_c, 5, 66, 64
7, 3360, Note_on_c, 5, 66, 0
7, 3360, Note_on_c, 5, 68, 84
7, 3390, Note_on_c, 5, 68, 0
7, 3390, Note_on_c, 5, 69, 93
7, 3420, Note_on_c, 5, 69, 0
7, 3420, Note_on_c, 5, 69, 95
7, 3480, Note_on_c, 5, 69, 0
7, 3480, Note_on_c, 5, 69, 84
7, 3495, Note_on_c, 5, 69, 0
7, 3495, Note_on_c, 5, 68, 95
7, 3510, Note_on_c, 5, 68, 0
7, 3510, Note_on_c, 5, 71, 86
7, 3525, Note_on_c, 5, 71, 0
7, 3525, Note_on_c, 5, 69, 89
7, 3540, Note_on_c, 5, 69, 0
7, 3540, Note_on_c, 5, 68, 72
7, 3555, Note_on_c, 5, 68, 0
7, 3555, Note_on_c, 5, 66, 54
7, 3570, Note_on_c, 5, 66, 0
7, 3570, Note_on_c, 5, 64, 65
7, 3585, Note_on_c, 5, 64, 0
7, 3585, Note_on_c, 5, 63, 50
7, 3600, Note_on_c, 5, 63, 0
7, 3600, Note_on_c, 5, 64, 62
7, 3660, Note_on_c, 5, 64, 0
7, 3690, Note_on_c, 5, 69, 90
7, 3720, Note_on_c, 5, 69, 0
7, 3720, Note_on_c, 5, 69, 77
7, 3735, Note_on_c, 5, 69, 0
7, 3735, Note_on_c, 5, 66, 67
7, 3750, Note_on_c, 5, 66, 0
7, 3750, Note_on_c, 5, 64, 84
7, 3765, Note_on_c, 5, 64, 0
7, 3765, Note_on_c, 5, 63, 64
7, 3780, Note_on_c, 5, 63, 0
7, 3780, Note_on_c, 5, 64, 72
7, 3840, Note_on_c, 5, 64, 0
7, 3870, Note_on_c, 5, 69, 95
7, 3900, Note_on_c, 5, 69, 0
7, 3900, Note_on_c, 5, 69, 84
7, 3907, Note_on_c, 5, 73, 73
7, 3908, Note_on_c, 5, 69, 0
7, 3915, Note_on_c, 5, 73, 0
7, 3915, Note_on_c, 5, 71, 89
7, 3922, Note_on_c, 5, 69, 84
7, 3923, Note_on_c, 5, 71, 0
7, 3930, Note_on_c, 5, 69, 0
7, 3930, Note_on_c, 5, 68, 93
7, 3937, Note_on_c, 5, 66, 93
7, 3938, Note_on_c, 5, 68, 0
7, 3945, Note_on_c, 5, 66, 0
7, 3945, Note_on_c, 5, 64, 99
7, 3952, Note_on_c, 5, 63, 94
7, 3953, Note_on_c, 5, 64, 0
7, 3960, Note_on_c, 5, 63, 0
7, 3960, Note_on_c, 5, 64, 82
7, 3990, Note_on_c, 5, 64, 0
7, 4020, Note_on_c, 5, 59, 89
7, 4050, Note_on_c, 5, 59, 0
7, 4080, Note_on_c, 5, 68, 86
7, 4110, Note_on_c, 5, 68, 0
7, 4140, Note_on_c, 5, 64, 89
7, 4170, Note_on_c, 5, 64, 0
7, 4890, Note_on_c, 5, 68, 64
7, 4913, Note_on_c, 5, 68, 0
7, 4920, Note_on_c, 5, 68, 73
7, 4943, Note_on_c, 5, 68, 0
7, 4950, Note_on_c, 5, 68, 68
7, 4973, Note_on_c, 5, 68, 0
7, 4980, Note_on_c, 5, 68, 65
7, 5010, Note_on_c, 5, 68, 0
7, 5010, Note_on_c, 5, 66, 80
7, 5040, Note_on_c, 5, 66, 0
7, 5040, Note_on_c, 5, 64, 56
7, 5070, Note_on_c, 5, 64, 0
7, 5070, Note_on_c, 5, 73, 58
7, 5100, Note_on_c, 5, 73, 0
7, 5130, Note_on_c, 5, 72, 64
7, 5160, Note_on_c, 5, 72, 0
7, 5190, Note_on_c, 5, 68, 52
7, 5220, Note_on_c, 5, 68, 0
7, 5250, Note_on_c, 5, 66, 59
7, 5310, Note_on_c, 5, 66, 0
7, 5370, Note_on_c, 5, 64, 65
7, 5400, Note_on_c, 5, 64, 0
7, 5400, Note_on_c, 5, 63, 45
7, 5415, Note_on_c, 5, 63, 0
7, 5430, Note_on_c, 5, 63, 54
7, 5445, Note_on_c, 5, 63, 0
7, 5490, Note_on_c, 5, 71, 68
7, 5520, Note_on_c, 5, 71, 0
7, 5550, Note_on_c, 5, 59, 63
7, 5580, Note_on_c, 5, 59, 0
7, 5580, Note_on_c, 5, 58, 65
7, 5640, Note_on_c, 5, 58, 0
7, 5670, Note_on_c, 5, 66, 59
7, 5700, Note_on_c, 5, 66, 0
7, 5700, Note_on_c, 5, 64, 76
7, 5730, Note_on_c, 5, 64, 0
7, 5730, Note_on_c, 5, 63, 45
7, 5760, Note_on_c, 5, 63, 0
7, 5760, Note_on_c, 5, 63, 81
7, 5820, Note_on_c, 5, 63, 0
7, 5820, Note_on_c, 5, 61, 59
7, 5828, Note_on_c, 5, 61, 0
7, 5835, Note_on_c, 5, 66, 65
7, 5850, Note_on_c, 5, 66, 0
7, 5850, Note_on_c, 5, 66, 81
7, 5865, Note_on_c, 5, 66, 0
7, 5865, Note_on_c, 5, 66, 82
7, 5880, Note_on_c, 5, 66, 0
7, 5880, Note_on_c, 5, 64, 89
7, 5895, Note_on_c, 5, 64, 0
7, 5907, Note_on_c, 5, 64, 95
7, 5910, Note_on_c, 5, 63, 81
7, 5911, Note_on_c, 5, 64, 0
7, 5917, Note_on_c, 5, 61, 68
7, 5918, Note_on_c, 5, 63, 0
7, 5925, Note_on_c, 5, 61, 0
7, 5925, Note_on_c, 5, 63, 65
7, 5932, Note_on_c, 5, 64, 54
7, 5933, Note_on_c, 5, 63, 0
7, 5940, Note_on_c, 5, 64, 0
7, 5940, Note_on_c, 5, 63, 86
7, 6000, Note_on_c, 5, 63, 0
7, 6000, Note_on_c, 5, 61, 68
7, 6030, Note_on_c, 5, 61, 0
7, 6150, Note_on_c, 5, 64, 53
7, 6180, Note_on_c, 5, 64, 0
7, 6210, Note_on_c, 5, 64, 72
7, 6240, Note_on_c, 5, 64, 0
7, 6270, Note_on_c, 5, 64, 58
7, 6300, Note_on_c, 5, 64, 0
7, 6300, Note_on_c, 5, 63, 72
7, 6330, Note_on_c, 5, 63, 0
7, 6420, Note_on_c, 5, 64, 80
7, 6450, Note_on_c, 5, 64, 0
7, 6480, Note_on_c, 5, 63, 71
7, 6495, Note_on_c, 5, 63, 0
7, 6495, Note_on_c, 5, 63, 77
7, 6525, Note_on_c, 5, 63, 0
7, 6525, Note_on_c, 5, 63, 81
7, 6555, Note_on_c, 5, 63, 0
7, 6555, Note_on_c, 5, 63, 84
7, 6585, Note_on_c, 5, 63, 0
7, 6585, Note_on_c, 5, 63, 86
7, 6600, Note_on_c, 5, 63, 0
7, 6600, Note_on_c, 5, 62, 89
7, 6615, Note_on_c, 5, 62, 0
7, 6615, Note_on_c, 5, 62, 89
7, 6645, Note_on_c, 5, 62, 0
7, 6645, Note_on_c, 5, 62, 94
7, 6660, Note_on_c, 5, 62, 0
7, 6660, Note_on_c, 5, 62, 98
7, 6675, Note_on_c, 5, 62, 0
7, 6675, Note_on_c, 5, 72, 86
7, 6705, Note_on_c, 5, 72, 0
7, 6705, Note_on_c, 5, 69, 98
7, 6735, Note_on_c, 5, 69, 0
7, 6735, Note_on_c, 5, 66, 95
7, 6765, Note_on_c, 5, 66, 0
7, 6765, Note_on_c, 5, 62, 95
7, 6795, Note_on_c, 5, 62, 0
7, 6795, Note_on_c, 5, 60, 89
7, 6802, Note_on_c, 5, 60, 0
7, 6810, Note_on_c, 5, 57, 105
7, 6817, Note_on_c, 5, 57, 0
7, 6825, Note_on_c, 5, 66, 99
7, 6832, Note_on_c, 5, 66, 0
7, 6840, Note_on_c, 5, 59, 77
7, 6840, Note_on_c, 5, 67, 64
7, 6900, Note_on_c, 5, 67, 0
7, 6900, Note_on_c, 5, 59, 0
7, 6960, Program_c, 5, 45
7, 7080, Note_on_c, 5, 67, 82
7, 7140, Note_on_c, 5, 67, 0
7, 7140, Note_on_c, 5, 71, 84
7, 7200, Note_on_c, 5, 71, 0
7, 7260, Note_on_c, 5, 66, 80
7, 7320, Note_on_c, 5, 66, 0
7, 7320, Note_on_c, 5, 72, 68
7, 7380, Note_on_c, 5, 72, 0
7, 7440, Note_on_c, 5, 69, 93
7, 7500, Note_on_c, 5, 69, 0
7, 7500, Note_on_c, 5, 72, 78
7, 7560, Note_on_c, 5, 72, 0
7, 7620, Note_on_c, 5, 62, 80
7, 7680, Note_on_c, 5, 62, 0
7, 7680, Note_on_c, 5, 69, 84
7, 7740, Note_on_c, 5, 69, 0
7, 7800, Note_on_c, 5, 68, 90
7, 7860, Note_on_c, 5, 68, 0
7, 7860, Note_on_c, 5, 71, 95
7, 7920, Note_on_c, 5, 71, 0
7, 7980, Note_on_c, 5, 64, 73
7, 8040, Note_on_c, 5, 64, 0
7, 8040, Note_on_c, 5, 76, 77
7, 8100, Note_on_c, 5, 76, 0
7, 8160, Note_on_c, 5, 72, 93
7, 8220, Note_on_c, 5, 72, 0
7, 8220, Note_on_c, 5, 72, 84
7, 8280, Note_on_c, 5, 72, 0
7, 8340, Note_on_c, 5, 72, 85
7, 8400, Note_on_c, 5, 72, 0
7, 8400, Note_on_c, 5, 72, 89
7, 8460, Note_on_c, 5, 72, 0
7, 8520, Note_on_c, 5, 72, 86
7, 8580, Note_on_c, 5, 72, 0
7, 8580, Note_on_c, 5, 72, 84
7, 8640, Note_on_c, 5, 72, 0
7, 8640, Note_on_c, 5, 72, 89
7, 8700, Note_on_c, 5, 72, 0
7, 8700, Note_on_c, 5, 66, 93
7, 8760, Note_on_c, 5, 66, 0
7, 8760, Note_on_c, 5, 66, 89
7, 8820, Note_on_c, 5, 66, 0
7, 8820, Note_on_c, 5, 71, 99
7, 8880, Note_on_c, 5, 71, 0
7, 8880, Note_on_c, 5, 66, 89
7, 8940, Note_on_c, 5, 66, 0
7, 8940, Note_on_c, 5, 66, 86
7, 9000, Note_on_c, 5, 66, 0
7, 9000, Note_on_c, 5, 66, 84
7, 9060, Note_on_c, 5, 66, 0
7, 9360, Program_c, 5, 49
7, 9720, Note_on_c, 5, 61, 53
7, 9780, Note_on_c, 5, 61, 0
7, 9780, Note_on_c, 5, 61, 58
7, 9802, Note_on_c, 5, 61, 0
7, 9810, Note_on_c, 5, 61, 62
7, 9832, Note_on_c, 5, 61, 0
7, 9840, Note_on_c, 5, 61, 76
7, 9862, Note_on_c, 5, 61, 0
7, 9870, Note_on_c, 5, 61, 63
7, 9892, Note_on_c, 5, 61, 0
7, 9900, Note_on_c, 5, 60, 69
7, 10020, Note_on_c, 5, 60, 0
7, 10260, Note_on_c, 5, 73, 68
7, 10320, Note_on_c, 5, 73, 0
7, 10320, Note_on_c, 5, 71, 62
7, 10380, Note_on_c, 5, 71, 0
7, 10830, Note_on_c, 5, 59, 43
7, 10860, Note_on_c, 5, 59, 0
7, 10860, Note_on_c, 5, 62, 43
7, 10890, Note_on_c, 5, 62, 0
7, 10890, Note_on_c, 5, 67, 44
7, 10920, Note_on_c, 5, 67, 0
7, 10920, Note_on_c, 5, 66, 40
7, 10980, Note_on_c, 5, 66, 0
7, 11430, Note_on_c, 5, 63, 44
7, 11460, Note_on_c, 5, 63, 0
7, 11460, Note_on_c, 5, 64, 63
7, 11490, Note_on_c, 5, 64, 0
7, 11490, Note_on_c, 5, 66, 60
7, 11520, Note_on_c, 5, 66, 0
7, 11520, Note_on_c, 5, 59, 68
7, 11580, Note_on_c, 5, 59, 0
7, 11580, Note_on_c, 5, 64, 53
7, 11640, Note_on_c, 5, 64, 0
7, 11640, Note_on_c, 5, 66, 56
7, 11670, Note_on_c, 5, 66, 0
7, 11670, Note_on_c, 5, 59, 56
7, 11700, Note_on_c, 5, 59, 0
7, 11700, Note_on_c, 5, 63, 72
7, 11760, Note_on_c, 5, 63, 0
7, 11760, Note_on_c, 5, 64, 68
7, 11820, Note_on_c, 5, 64, 0
7, 11820, Note_on_c, 5, 76, 72
7, 11865, Note_on_c, 5, 76, 0
7, 11865, Note_on_c, 5, 75, 69
7, 11880, Note_on_c, 5, 75, 0
7, 11880, Note_on_c, 5, 75, 62
7, 11910, Note_on_c, 5, 75, 0
7, 11910, Note_on_c, 5, 73, 65
7, 11920, Note_on_c, 5, 73, 0
7, 11920, Note_on_c, 5, 75, 73
7, 11930, Note_on_c, 5, 75, 0
7, 11930, Note_on_c, 5, 73, 74
7, 11940, Note_on_c, 5, 73, 0
7, 11940, Note_on_c, 5, 71, 89
7, 11970, Note_on_c, 5, 71, 0
7, 11970, Note_on_c, 5, 83, 81
7, 12000, Note_on_c, 5, 83, 0
7, 12000, Note_on_c, 5, 81, 80
7, 12015, Note_on_c, 5, 81, 0
7, 12015, Note_on_c, 5, 80, 85
7, 12030, Note_on_c, 5, 80, 0
7, 12030, Note_on_c, 5, 78, 82
7, 12045, Note_on_c, 5, 78, 0
7, 12045, Note_on_c, 5, 76, 94
7, 12060, Note_on_c, 5, 76, 0
7, 12060, Note_on_c, 5, 75, 94
7, 12075, Note_on_c, 5, 75, 0
7, 12075, Note_on_c, 5, 73, 85
7, 12090, Note_on_c, 5, 73, 0
7, 12090, Note_on_c, 5, 71, 86
7, 12105, Note_on_c, 5, 71, 0
7, 12105, Note_on_c, 5, 69, 94
7, 12120, Note_on_c, 5, 69, 0
7, 12120, Note_on_c, 5, 68, 84
7, 12150, Note_on_c, 5, 68, 0
7, 12150, Note_on_c, 5, 71, 80
7, 12195, Note_on_c, 5, 71, 0
7, 12195, Note_on_c, 5, 69, 80
7, 12210, Note_on_c, 5, 69, 0
7, 12210, Note_on_c, 5, 66, 84
7, 12225, Note_on_c, 5, 66, 0
7, 12225, Note_on_c, 5, 63, 85
7, 12240, Note_on_c, 5, 63, 0
7, 12240, Note_on_c, 5, 64, 53
7, 12270, Note_on_c, 5, 64, 0
7, 12270, Note_on_c, 5, 56, 50
7, 12292, Note_on_c, 5, 56, 0
7, 12300, Note_on_c, 5, 56, 69
7, 12322, Note_on_c, 5, 56, 0
7, 12330, Note_on_c, 5, 56, 57
7, 12352, Note_on_c, 5, 56, 0
7, 12360, Note_on_c, 5, 56, 58
7, 12382, Note_on_c, 5, 56, 0
7, 12390, Note_on_c, 5, 56, 57
7, 12412, Note_on_c, 5, 56, 0
7, 12420, Note_on_c, 5, 56, 59
7, 12442, Note_on_c, 5, 56, 0
7, 12450, Note_on_c, 5, 56, 61
7, 12472, Note_on_c, 5, 56, 0
7, 12480, Note_on_c, 5, 56, 58
7, 12502, Note_on_c, 5, 56, 0
7, 12510, Note_on_c, 5, 56, 43
7, 12532, Note_on_c, 5, 56, 0
7, 12540, Note_on_c, 5, 56, 53
7, 12562, Note_on_c, 5, 56, 0
7, 12570, Note_on_c, 5, 56, 55
7, 12592, Note_on_c, 5, 56, 0
7, 12600, Note_on_c, 5, 57, 61
7, 12622, Note_on_c, 5, 57, 0
7, 12630, Note_on_c, 5, 66, 57
7, 12652, Note_on_c, 5, 66, 0
7, 12660, Note_on_c, 5, 66, 63
7, 12682, Note_on_c, 5, 66, 0
7, 12690, Note_on_c, 5, 66, 61
7, 12720, Note_on_c, 5, 66, 0
7, 12720, Note_on_c, 5, 68, 84
7, 12750, Note_on_c, 5, 68, 0
7, 12750, Note_on_c, 5, 69, 84
7, 12780, Note_on_c, 5, 69, 0
7, 12780, Note_on_c, 5, 69, 99
7, 12855, Note_on_c, 5, 69, 0
7, 12855, Note_on_c, 5, 68, 93
7, 12870, Note_on_c, 5, 68, 0
7, 12870, Note_on_c, 5, 71, 73
7, 12885, Note_on_c, 5, 71, 0
7, 12885, Note_on_c, 5, 69, 86
7, 12900, Note_on_c, 5, 69, 0
7, 12900, Note_on_c, 5, 68, 65
7, 12915, Note_on_c, 5, 68, 0
7, 12915, Note_on_c, 5, 66, 58
7, 12930, Note_on_c, 5, 66, 0
7, 12930, Note_on_c, 5, 64, 67
7, 12945, Note_on_c, 5, 64, 0
7, 12945, Note_on_c, 5, 63, 36
7, 12960, Note_on_c, 5, 63, 0
7, 12960, Note_on_c, 5, 64, 52
7, 13020, Note_on_c, 5, 64, 0
7, 13680, Note_on_c, 5, 64, 35
7, 13725, Note_on_c, 5, 64, 0
7, 13740, Note_on_c, 5, 64, 44
7, 13785, Note_on_c, 5, 64, 0
7, 13800, Note_on_c, 5, 64, 43
7, 13845, Note_on_c, 5, 64, 0
7, 13860, Note_on_c, 5, 64, 44
7, 13905, Note_on_c, 5, 64, 0
7, 13920, Note_on_c, 5, 64, 61
7, 13965, Note_on_c, 5, 64, 0
7, 13980, Note_on_c, 5, 64, 52
7, 14025, Note_on_c, 5, 64, 0
7, 14040, Note_on_c, 5, 63, 42
7, 14100, Note_on_c, 5, 63, 0
7, 14100, Note_on_c, 5, 66, 43
7, 14160, Note_on_c, 5, 66, 0
7, 14160, Note_on_c, 5, 66, 64
7, 14220, Note_on_c, 5, 66, 0
7, 14220, Note_on_c, 5, 66, 74
7, 14280, Note_on_c, 5, 66, 0
7, 14280, Note_on_c, 5, 66, 86
7, 14340, Note_on_c, 5, 66, 0
7, 14340, Note_on_c, 5, 66, 93
7, 14400, Note_on_c, 5, 66, 0
7, 14400, Note_on_c, 5, 64, 43
7, 14520, Note_on_c, 5, 64, 0
7, 14760, Note_on_c, 5, 61, 62
7, 14820, Note_on_c, 5, 61, 0
7, 14880, Note_on_c, 5, 59, 73
7, 14940, Note_on_c, 5, 59, 0
7, 15000, Note_on_c, 5, 59, 65
7, 15060, Note_on_c, 5, 59, 0
7, 15120, Note_on_c, 5, 64, 95
7, 15210, Note_on_c, 5, 64, 0
7, 15210, Note_on_c, 5, 71, 78
7, 15210, Note_on_c, 5, 64, 89
7, 15240, Note_on_c, 5, 64, 0
7, 15240, Note_on_c, 5, 71, 0
7, 15240, Note_on_c, 5, 71, 81
7, 15240, Note_on_c, 5, 64, 95
7, 15360, Note_on_c, 5, 64, 0
7, 15360, Note_on_c, 5, 71, 0
7, 15480, Note_on_c, 5, 64, 101
7, 15570, Note_on_c, 5, 64, 0
7, 15570, Note_on_c, 5, 73, 68
7, 15570, Note_on_c, 5, 64, 99
7, 15600, Note_on_c, 5, 64, 0
7, 15600, Note_on_c, 5, 73, 0
7, 15600, Note_on_c, 5, 73, 65
7, 15600, Note_on_c, 5, 64, 98
7, 15720, Note_on_c, 5, 64, 0
7, 15720, Note_on_c, 5, 73, 0
7, 15840, Note_on_c, 5, 59, 95
7, 15900, Note_on_c, 5, 59, 0
7, 18300, Note_on_c, 5, 57, 64
7, 18360, Note_on_c, 5, 57, 0
7, 18360, Note_on_c, 5, 56, 33
7, 18420, Note_on_c, 5, 56, 0
7, 18480, Note_on_c, 5, 61, 36
7, 18525, Note_on_c, 5, 61, 0
7, 18525, Note_on_c, 5, 59, 40
7, 18540, Note_on_c, 5, 59, 0
7, 18540, Note_on_c, 5, 57, 52
7, 18600, Note_on_c, 5, 57, 0
7, 18600, Note_on_c, 5, 56, 46
7, 18630, Note_on_c, 5, 56, 0
7, 18660, Note_on_c, 5, 69, 44
7, 18705, Note_on_c, 5, 69, 0
7, 18705, Note_on_c, 5, 68, 43
7, 18720, Note_on_c, 5, 68, 0
7, 18720, Note_on_c, 5, 63, 43
7, 18780, Note_on_c, 5, 63, 0
7, 18780, Note_on_c, 5, 64, 43
7, 18810, Note_on_c, 5, 64, 0
7, 19680, Note_on_c, 5, 68, 93
7, 19680, Note_on_c, 5, 76, 110
7, 19680, Note_on_c, 5, 59, 107
7, 19710, Note_on_c, 5, 59, 0
7, 19710, Note_on_c, 5, 76, 0
7, 19710, Note_on_c, 5, 68, 0
7, 19710, End_track
8, 0, Start_track
8, 0, MIDI_port, 0
8, 0, Title_t, "Violas"
8, 0, Program_c, 6, 49
8, 0, Control_c, 6, 7, 100
8, 0, Control_c, 6, 10, 64
8, 0, Control_c, 6, 93, 0
8, 0, Control_c, 6, 91, 66
8, 2070, Note_on_c, 6, 59, 58
8, 2100, Note_on_c, 6, 59, 0
8, 2100, Note_on_c, 6, 61, 61
8, 2130, Note_on_c, 6, 61, 0
8, 2130, Note_on_c, 6, 63, 51
8, 2160, Note_on_c, 6, 63, 0
8, 2160, Note_on_c, 6, 64, 40
8, 2220, Note_on_c, 6, 64, 0
8, 2220, Note_on_c, 6, 59, 41
8, 2280, Note_on_c, 6, 59, 0
8, 2280, Note_on_c, 6, 63, 40
8, 2295, Note_on_c, 6, 63, 0
8, 2295, Note_on_c, 6, 59, 43
8, 2310, Note_on_c, 6, 59, 0
8, 2310, Note_on_c, 6, 64, 41
8, 2325, Note_on_c, 6, 64, 0
8, 2325, Note_on_c, 6, 59, 45
8, 2340, Note_on_c, 6, 59, 0
8, 2340, Note_on_c, 6, 57, 38
8, 2355, Note_on_c, 6, 57, 0
8, 2355, Note_on_c, 6, 59, 53
8, 2370, Note_on_c, 6, 59, 0
8, 2370, Note_on_c, 6, 57, 42
8, 2385, Note_on_c, 6, 57, 0
8, 2385, Note_on_c, 6, 59, 40
8, 2400, Note_on_c, 6, 59, 0
8, 2400, Note_on_c, 6, 56, 64
8, 2415, Note_on_c, 6, 56, 0
8, 2415, Note_on_c, 6, 59, 45
8, 2430, Note_on_c, 6, 59, 0
8, 2430, Note_on_c, 6, 64, 62
8, 2445, Note_on_c, 6, 64, 0
8, 2445, Note_on_c, 6, 68, 64
8, 2460, Note_on_c, 6, 68, 0
8, 2460, Note_on_c, 6, 71, 59
8, 2475, Note_on_c, 6, 71, 0
8, 2475, Note_on_c, 6, 68, 58
8, 2490, Note_on_c, 6, 68, 0
8, 2490, Note_on_c, 6, 64, 65
8, 2505, Note_on_c, 6, 64, 0
8, 2505, Note_on_c, 6, 68, 58
8, 2520, Note_on_c, 6, 68, 0
8, 2520, Note_on_c, 6, 69, 40
8, 2535, Note_on_c, 6, 69, 0
8, 2535, Note_on_c, 6, 64, 44
8, 2550, Note_on_c, 6, 64, 0
8, 2550, Note_on_c, 6, 69, 41
8, 2565, Note_on_c, 6, 69, 0
8, 2565, Note_on_c, 6, 64, 53
8, 2580, Note_on_c, 6, 64, 0
8, 2580, Note_on_c, 6, 64, 68
8, 2595, Note_on_c, 6, 64, 0
8, 2595, Note_on_c, 6, 68, 71
8, 2610, Note_on_c, 6, 68, 0
8, 2610, Note_on_c, 6, 71, 67
8, 2625, Note_on_c, 6, 71, 0
8, 2625, Note_on_c, 6, 68, 73
8, 2640, Note_on_c, 6, 68, 0
8, 2640, Note_on_c, 6, 64, 61
8, 2655, Note_on_c, 6, 64, 0
8, 2655, Note_on_c, 6, 59, 62
8, 2670, Note_on_c, 6, 59, 0
8, 2670, Note_on_c, 6, 56, 67
8, 2685, Note_on_c, 6, 56, 0
8, 2685, Note_on_c, 6, 59, 60
8, 2700, Note_on_c, 6, 59, 0
8, 2700, Note_on_c, 6, 57, 76
8, 2715, Note_on_c, 6, 57, 0
8, 2715, Note_on_c, 6, 61, 67
8, 2730, Note_on_c, 6, 61, 0
8, 2730, Note_on_c, 6, 66, 46
8, 2745, Note_on_c, 6, 66, 0
8, 2745, Note_on_c, 6, 61, 71
8, 2760, Note_on_c, 6, 61, 0
8, 2760, Note_on_c, 6, 59, 61
8, 2775, Note_on_c, 6, 59, 0
8, 2775, Note_on_c, 6, 64, 76
8, 2790, Note_on_c, 6, 64, 0
8, 2790, Note_on_c, 6, 68, 50
8, 2805, Note_on_c, 6, 68, 0
8, 2805, Note_on_c, 6, 64, 84
8, 2820, Note_on_c, 6, 64, 0
8, 2820, Note_on_c, 6, 59, 68
8, 2835, Note_on_c, 6, 59, 0
8, 2835, Note_on_c, 6, 66, 68
8, 2850, Note_on_c, 6, 66, 0
8, 2850, Note_on_c, 6, 69, 64
8, 2865, Note_on_c, 6, 69, 0
8, 2865, Note_on_c, 6, 66, 62
8, 2880, Note_on_c, 6, 66, 0
8, 2880, Note_on_c, 6, 68, 45
8, 2910, Note_on_c, 6, 68, 0
8, 2910, Note_on_c, 6, 59, 49
8, 2925, Note_on_c, 6, 59, 0
8, 2940, Note_on_c, 6, 59, 48
8, 2963, Note_on_c, 6, 59, 0
8, 2970, Note_on_c, 6, 59, 48
8, 2993, Note_on_c, 6, 59, 0
8, 3000, Note_on_c, 6, 59, 58
8, 3023, Note_on_c, 6, 59, 0
8, 3030, Note_on_c, 6, 59, 55
8, 3053, Note_on_c, 6, 59, 0
8, 3060, Note_on_c, 6, 61, 43
8, 3083, Note_on_c, 6, 61, 0
8, 3090, Note_on_c, 6, 61, 56
8, 3113, Note_on_c, 6, 61, 0
8, 3120, Note_on_c, 6, 61, 44
8, 3143, Note_on_c, 6, 61, 0
8, 3150, Note_on_c, 6, 61, 44
8, 3173, Note_on_c, 6, 61, 0
8, 3180, Note_on_c, 6, 61, 50
8, 3203, Note_on_c, 6, 61, 0
8, 3210, Note_on_c, 6, 61, 46
8, 3233, Note_on_c, 6, 61, 0
8, 3240, Note_on_c, 6, 61, 43
8, 3240, Note_on_c, 6, 57, 42
8, 3263, Note_on_c, 6, 57, 0
8, 3263, Note_on_c, 6, 61, 0
8, 3270, Note_on_c, 6, 61, 40
8, 3270, Note_on_c, 6, 57, 52
8, 3293, Note_on_c, 6, 57, 0
8, 3293, Note_on_c, 6, 61, 0
8, 3300, Note_on_c, 6, 61, 46
8, 3300, Note_on_c, 6, 57, 43
8, 3323, Note_on_c, 6, 57, 0
8, 3323, Note_on_c, 6, 61, 0
8, 3330, Note_on_c, 6, 61, 62
8, 3330, Note_on_c, 6, 57, 70
8, 3360, Note_on_c, 6, 57, 0
8, 3360, Note_on_c, 6, 61, 0
8, 3360, Note_on_c, 6, 65, 63
8, 3360, Note_on_c, 6, 59, 72
8, 3390, Note_on_c, 6, 59, 0
8, 3390, Note_on_c, 6, 65, 0
8, 3390, Note_on_c, 6, 66, 59
8, 3390, Note_on_c, 6, 61, 80
8, 3420, Note_on_c, 6, 61, 0
8, 3420, Note_on_c, 6, 66, 0
8, 3420, Note_on_c, 6, 66, 89
8, 3450, Note_on_c, 6, 66, 0
8, 3450, Note_on_c, 6, 57, 105
8, 3450, Note_on_c, 6, 54, 89
8, 3480, Note_on_c, 6, 54, 0
8, 3480, Note_on_c, 6, 57, 0
8, 3480, Note_on_c, 6, 57, 104
8, 3480, Note_on_c, 6, 54, 72
8, 3510, Note_on_c, 6, 54, 0
8, 3510, Note_on_c, 6, 57, 0
8, 3510, Note_on_c, 6, 57, 84
8, 3510, Note_on_c, 6, 54, 76
8, 3540, Note_on_c, 6, 54, 0
8, 3540, Note_on_c, 6, 57, 0
8, 3540, Note_on_c, 6, 57, 76
8, 3540, Note_on_c, 6, 54, 42
8, 3570, Note_on_c, 6, 54, 0
8, 3570, Note_on_c, 6, 57, 0
8, 3570, Note_on_c, 6, 57, 69
8, 3570, Note_on_c, 6, 54, 53
8, 3600, Note_on_c, 6, 54, 0
8, 3600, Note_on_c, 6, 57, 0
8, 3600, Note_on_c, 6, 56, 43
8, 3600, Note_on_c, 6, 52, 70
8, 3660, Note_on_c, 6, 52, 0
8, 3660, Note_on_c, 6, 56, 0
8, 3690, Note_on_c, 6, 57, 82
8, 3690, Note_on_c, 6, 54, 80
8, 3720, Note_on_c, 6, 54, 0
8, 3720, Note_on_c, 6, 57, 0
8, 3720, Note_on_c, 6, 57, 44
8, 3720, Note_on_c, 6, 54, 44
8, 3750, Note_on_c, 6, 54, 0
8, 3750, Note_on_c, 6, 57, 0
8, 3750, Note_on_c, 6, 57, 43
8, 3750, Note_on_c, 6, 54, 50
8, 3780, Note_on_c, 6, 54, 0
8, 3780, Note_on_c, 6, 57, 0
8, 3780, Note_on_c, 6, 56, 45
8, 3780, Note_on_c, 6, 52, 68
8, 3840, Note_on_c, 6, 52, 0
8, 3840, Note_on_c, 6, 56, 0
8, 3870, Note_on_c, 6, 57, 84
8, 3870, Note_on_c, 6, 54, 80
8, 3900, Note_on_c, 6, 54, 0
8, 3900, Note_on_c, 6, 57, 0
8, 3900, Note_on_c, 6, 57, 44
8, 3900, Note_on_c, 6, 54, 43
8, 3930, Note_on_c, 6, 54, 0
8, 3930, Note_on_c, 6, 57, 0
8, 3930, Note_on_c, 6, 57, 51
8, 3930, Note_on_c, 6, 54, 52
8, 3960, Note_on_c, 6, 54, 0
8, 3960, Note_on_c, 6, 57, 0
8, 3960, Note_on_c, 6, 56, 81
8, 3960, Note_on_c, 6, 52, 82
8, 3990, Note_on_c, 6, 52, 0
8, 3990, Note_on_c, 6, 56, 0
8, 4020, Note_on_c, 6, 59, 70
8, 4050, Note_on_c, 6, 59, 0
8, 4080, Note_on_c, 6, 56, 84
8, 4110, Note_on_c, 6, 56, 0
8, 4140, Note_on_c, 6, 52, 95
8, 4170, Note_on_c, 6, 52, 0
8, 4890, Note_on_c, 6, 64, 64
8, 4913, Note_on_c, 6, 64, 0
8, 4920, Note_on_c, 6, 64, 68
8, 4943, Note_on_c, 6, 64, 0
8, 4950, Note_on_c, 6, 68, 68
8, 4973, Note_on_c, 6, 68, 0
8, 4980, Note_on_c, 6, 68, 76
8, 5003, Note_on_c, 6, 68, 0
8, 5010, Note_on_c, 6, 68, 77
8, 5033, Note_on_c, 6, 68, 0
8, 5040, Note_on_c, 6, 68, 53
8, 5070, Note_on_c, 6, 68, 0
8, 5070, Note_on_c, 6, 68, 47
8, 5100, Note_on_c, 6, 68, 0
8, 5130, Note_on_c, 6, 66, 54
8, 5160, Note_on_c, 6, 66, 0
8, 5190, Note_on_c, 6, 64, 76
8, 5220, Note_on_c, 6, 64, 0
8, 5250, Note_on_c, 6, 63, 43
8, 5280, Note_on_c, 6, 63, 0
8, 5280, Note_on_c, 6, 61, 62
8, 5310, Note_on_c, 6, 61, 0
8, 5370, Note_on_c, 6, 61, 49
8, 5400, Note_on_c, 6, 61, 0
8, 5400, Note_on_c, 6, 59, 53
8, 5430, Note_on_c, 6, 59, 0
8, 5460, Note_on_c, 6, 56, 62
8, 5490, Note_on_c, 6, 56, 0
8, 5520, Note_on_c, 6, 61, 58
8, 5550, Note_on_c, 6, 61, 0
8, 5580, Note_on_c, 6, 54, 38
8, 5640, Note_on_c, 6, 54, 0
8, 5670, Note_on_c, 6, 66, 41
8, 5693, Note_on_c, 6, 66, 0
8, 5700, Note_on_c, 6, 66, 71
8, 5723, Note_on_c, 6, 66, 0
8, 5730, Note_on_c, 6, 66, 60
8, 5753, Note_on_c, 6, 66, 0
8, 5760, Note_on_c, 6, 66, 89
8, 5775, Note_on_c, 6, 66, 0
8, 5775, Note_on_c, 6, 65, 72
8, 5790, Note_on_c, 6, 65, 0
8, 5790, Note_on_c, 6, 66, 64
8, 5805, Note_on_c, 6, 66, 0
8, 5805, Note_on_c, 6, 65, 61
8, 5820, Note_on_c, 6, 65, 0
8, 5820, Note_on_c, 6, 66, 61
8, 5850, Note_on_c, 6, 66, 0
8, 5850, Note_on_c, 6, 66, 67
8, 5873, Note_on_c, 6, 66, 0
8, 5880, Note_on_c, 6, 66, 68
8, 5903, Note_on_c, 6, 66, 0
8, 5910, Note_on_c, 6, 66, 50
8, 5933, Note_on_c, 6, 66, 0
8, 5940, Note_on_c, 6, 66, 89
8, 5955, Note_on_c, 6, 66, 0
8, 5955, Note_on_c, 6, 65, 84
8, 5970, Note_on_c, 6, 65, 0
8, 5970, Note_on_c, 6, 66, 72
8, 5985, Note_on_c, 6, 66, 0
8, 5985, Note_on_c, 6, 65, 56
8, 6000, Note_on_c, 6, 65, 0
8, 6000, Note_on_c, 6, 66, 64
8, 6030, Note_on_c, 6, 66, 0
8, 6150, Note_on_c, 6, 59, 73
8, 6180, Note_on_c, 6, 59, 0
8, 6210, Note_on_c, 6, 59, 73
8, 6240, Note_on_c, 6, 59, 0
8, 6270, Note_on_c, 6, 59, 71
8, 6300, Note_on_c, 6, 59, 0
8, 6300, Note_on_c, 6, 59, 78
8, 6330, Note_on_c, 6, 59, 0
8, 6420, Note_on_c, 6, 61, 69
8, 6450, Note_on_c, 6, 61, 0
8, 6480, Note_on_c, 6, 59, 68
8, 6495, Note_on_c, 6, 59, 0
8, 6495, Note_on_c, 6, 66, 60
8, 6525, Note_on_c, 6, 66, 0
8, 6525, Note_on_c, 6, 66, 68
8, 6555, Note_on_c, 6, 66, 0
8, 6555, Note_on_c, 6, 66, 64
8, 6585, Note_on_c, 6, 66, 0
8, 6585, Note_on_c, 6, 66, 64
8, 6615, Note_on_c, 6, 66, 0
8, 6615, Note_on_c, 6, 66, 67
8, 6645, Note_on_c, 6, 66, 0
8, 6645, Note_on_c, 6, 66, 61
8, 6660, Note_on_c, 6, 66, 0
8, 6660, Note_on_c, 6, 66, 69
8, 6660, Note_on_c, 6, 62, 94
8, 6675, Note_on_c, 6, 62, 0
8, 6675, Note_on_c, 6, 66, 0
8, 6675, Note_on_c, 6, 66, 64
8, 6675, Note_on_c, 6, 60, 81
8, 6705, Note_on_c, 6, 60, 0
8, 6705, Note_on_c, 6, 66, 0
8, 6705, Note_on_c, 6, 66, 63
8, 6705, Note_on_c, 6, 60, 89
8, 6735, Note_on_c, 6, 60, 0
8, 6735, Note_on_c, 6, 66, 0
8, 6735, Note_on_c, 6, 66, 72
8, 6735, Note_on_c, 6, 60, 89
8, 6765, Note_on_c, 6, 60, 0
8, 6765, Note_on_c, 6, 66, 0
8, 6765, Note_on_c, 6, 66, 65
8, 6765, Note_on_c, 6, 60, 89
8, 6795, Note_on_c, 6, 60, 0
8, 6795, Note_on_c, 6, 66, 0
8, 6795, Note_on_c, 6, 66, 71
8, 6795, Note_on_c, 6, 60, 95
8, 6825, Note_on_c, 6, 60, 0
8, 6825, Note_on_c, 6, 66, 0
8, 6825, Note_on_c, 6, 57, 84
8, 6825, Note_on_c, 6, 60, 86
8, 6840, Note_on_c, 6, 60, 0
8, 6840, Note_on_c, 6, 57, 0
8, 6840, Note_on_c, 6, 59, 76
8, 6840, Note_on_c, 6, 55, 80
8, 6900, Note_on_c, 6, 55, 0
8, 6900, Note_on_c, 6, 59, 0
8, 6960, Program_c, 6, 45
8, 7080, Note_on_c, 6, 62, 77
8, 7140, Note_on_c, 6, 62, 0
8, 7140, Note_on_c, 6, 74, 84
8, 7200, Note_on_c, 6, 74, 0
8, 7260, Note_on_c, 6, 62, 81
8, 7320, Note_on_c, 6, 62, 0
8, 7320, Note_on_c, 6, 74, 89
8, 7380, Note_on_c, 6, 74, 0
8, 7440, Note_on_c, 6, 62, 84
8, 7500, Note_on_c, 6, 62, 0
8, 7500, Note_on_c, 6, 74, 86
8, 7560, Note_on_c, 6, 74, 0
8, 7620, Note_on_c, 6, 67, 85
8, 7680, Note_on_c, 6, 67, 0
8, 7680, Note_on_c, 6, 65, 90
8, 7740, Note_on_c, 6, 65, 0
8, 7800, Note_on_c, 6, 64, 95
8, 7860, Note_on_c, 6, 64, 0
8, 7860, Note_on_c, 6, 64, 95
8, 7920, Note_on_c, 6, 64, 0
8, 7980, Note_on_c, 6, 69, 80
8, 8040, Note_on_c, 6, 69, 0
8, 8040, Note_on_c, 6, 72, 86
8, 8100, Note_on_c, 6, 72, 0
8, 8160, Note_on_c, 6, 63, 81
8, 8220, Note_on_c, 6, 63, 0
8, 8220, Note_on_c, 6, 64, 95
8, 8280, Note_on_c, 6, 64, 0
8, 8340, Note_on_c, 6, 66, 84
8, 8400, Note_on_c, 6, 66, 0
8, 8400, Note_on_c, 6, 64, 90
8, 8460, Note_on_c, 6, 64, 0
8, 8520, Note_on_c, 6, 63, 81
8, 8580, Note_on_c, 6, 63, 0
8, 8580, Note_on_c, 6, 64, 90
8, 8640, Note_on_c, 6, 64, 0
8, 8640, Note_on_c, 6, 66, 84
8, 8700, Note_on_c, 6, 66, 0
8, 8700, Note_on_c, 6, 60, 86
8, 8760, Note_on_c, 6, 60, 0
8, 8760, Note_on_c, 6, 60, 89
8, 8820, Note_on_c, 6, 60, 0
8, 8820, Note_on_c, 6, 66, 84
8, 8880, Note_on_c, 6, 66, 0
8, 8880, Note_on_c, 6, 60, 86
8, 8940, Note_on_c, 6, 60, 0
8, 8940, Note_on_c, 6, 60, 84
8, 9000, Note_on_c, 6, 60, 0
8, 9000, Note_on_c, 6, 63, 76
8, 9060, Note_on_c, 6, 63, 0
8, 9420, Program_c, 6, 49
8, 9720, Note_on_c, 6, 49, 58
8, 9780, Note_on_c, 6, 49, 0
8, 9780, Note_on_c, 6, 49, 62
8, 9802, Note_on_c, 6, 49, 0
8, 9810, Note_on_c, 6, 49, 81
8, 9832, Note_on_c, 6, 49, 0
8, 9840, Note_on_c, 6, 49, 81
8, 9862, Note_on_c, 6, 49, 0
8, 9870, Note_on_c, 6, 49, 53
8, 9892, Note_on_c, 6, 49, 0
8, 9900, Note_on_c, 6, 51, 56
8, 10020, Note_on_c, 6, 51, 0
8, 10260, Note_on_c, 6, 66, 64
8, 10320, Note_on_c, 6, 66, 0
8, 10320, Note_on_c, 6, 66, 45
8, 10380, Note_on_c, 6, 66, 0
8, 11430, Note_on_c, 6, 59, 65
8, 11460, Note_on_c, 6, 59, 0
8, 11460, Note_on_c, 6, 61, 56
8, 11490, Note_on_c, 6, 61, 0
8, 11490, Note_on_c, 6, 63, 52
8, 11520, Note_on_c, 6, 63, 0
8, 11520, Note_on_c, 6, 64, 58
8, 11580, Note_on_c, 6, 64, 0
8, 11580, Note_on_c, 6, 59, 72
8, 11640, Note_on_c, 6, 59, 0
8, 11640, Note_on_c, 6, 63, 43
8, 11655, Note_on_c, 6, 63, 0
8, 11655, Note_on_c, 6, 59, 57
8, 11670, Note_on_c, 6, 59, 0
8, 11670, Note_on_c, 6, 64, 63
8, 11685, Note_on_c, 6, 64, 0
8, 11685, Note_on_c, 6, 59, 59
8, 11700, Note_on_c, 6, 59, 0
8, 11700, Note_on_c, 6, 57, 71
8, 11715, Note_on_c, 6, 57, 0
8, 11715, Note_on_c, 6, 59, 58
8, 11730, Note_on_c, 6, 59, 0
8, 11730, Note_on_c, 6, 57, 76
8, 11745, Note_on_c, 6, 57, 0
8, 11745, Note_on_c, 6, 59, 65
8, 11760, Note_on_c, 6, 59, 0
8, 11760, Note_on_c, 6, 56, 69
8, 11775, Note_on_c, 6, 56, 0
8, 11775, Note_on_c, 6, 59, 68
8, 11790, Note_on_c, 6, 59, 0
8, 11790, Note_on_c, 6, 64, 73
8, 11805, Note_on_c, 6, 64, 0
8, 11805, Note_on_c, 6, 68, 63
8, 11820, Note_on_c, 6, 68, 0
8, 11820, Note_on_c, 6, 71, 43
8, 11835, Note_on_c, 6, 71, 0
8, 11835, Note_on_c, 6, 68, 60
8, 11850, Note_on_c, 6, 68, 0
8, 11850, Note_on_c, 6, 64, 62
8, 11865, Note_on_c, 6, 64, 0
8, 11865, Note_on_c, 6, 68, 71
8, 11880, Note_on_c, 6, 68, 0
8, 11880, Note_on_c, 6, 69, 62
8, 11895, Note_on_c, 6, 69, 0
8, 11895, Note_on_c, 6, 64, 65
8, 11910, Note_on_c, 6, 64, 0
8, 11910, Note_on_c, 6, 69, 53
8, 11925, Note_on_c, 6, 69, 0
8, 11925, Note_on_c, 6, 64, 73
8, 11940, Note_on_c, 6, 64, 0
8, 11940, Note_on_c, 6, 64, 78
8, 11955, Note_on_c, 6, 64, 0
8, 11955, Note_on_c, 6, 68, 74
8, 11970, Note_on_c, 6, 68, 0
8, 11970, Note_on_c, 6, 71, 73
8, 11985, Note_on_c, 6, 71, 0
8, 11985, Note_on_c, 6, 68, 84
8, 12000, Note_on_c, 6, 68, 0
8, 12000, Note_on_c, 6, 64, 82
8, 12015, Note_on_c, 6, 64, 0
8, 12015, Note_on_c, 6, 59, 89
8, 12030, Note_on_c, 6, 59, 0
8, 12030, Note_on_c, 6, 56, 93
8, 12045, Note_on_c, 6, 56, 0
8, 12045, Note_on_c, 6, 59, 93
8, 12060, Note_on_c, 6, 59, 0
8, 12060, Note_on_c, 6, 57, 104
8, 12075, Note_on_c, 6, 57, 0
8, 12075, Note_on_c, 6, 61, 84
8, 12090, Note_on_c, 6, 61, 0
8, 12090, Note_on_c, 6, 66, 76
8, 12105, Note_on_c, 6, 66, 0
8, 12105, Note_on_c, 6, 61, 81
8, 12120, Note_on_c, 6, 61, 0
8, 12120, Note_on_c, 6, 59, 90
8, 12135, Note_on_c, 6, 59, 0
8, 12135, Note_on_c, 6, 64, 99
8, 12150, Note_on_c, 6, 64, 0
8, 12150, Note_on_c, 6, 68, 80
8, 12165, Note_on_c, 6, 68, 0
8, 12165, Note_on_c, 6, 64, 89
8, 12180, Note_on_c, 6, 64, 0
8, 12180, Note_on_c, 6, 59, 93
8, 12195, Note_on_c, 6, 59, 0
8, 12195, Note_on_c, 6, 66, 80
8, 12210, Note_on_c, 6, 66, 0
8, 12210, Note_on_c, 6, 69, 77
8, 12225, Note_on_c, 6, 69, 0
8, 12225, Note_on_c, 6, 66, 80
8, 12240, Note_on_c, 6, 66, 0
8, 12240, Note_on_c, 6, 68, 56
8, 12270, Note_on_c, 6, 68, 0
8, 12270, Note_on_c, 6, 59, 65
8, 12292, Note_on_c, 6, 59, 0
8, 12300, Note_on_c, 6, 59, 67
8, 12322, Note_on_c, 6, 59, 0
8, 12330, Note_on_c, 6, 59, 61
8, 12352, Note_on_c, 6, 59, 0
8, 12360, Note_on_c, 6, 59, 61
8, 12382, Note_on_c, 6, 59, 0
8, 12390, Note_on_c, 6, 59, 55
8, 12412, Note_on_c, 6, 59, 0
8, 12420, Note_on_c, 6, 61, 55
8, 12442, Note_on_c, 6, 61, 0
8, 12450, Note_on_c, 6, 61, 61
8, 12472, Note_on_c, 6, 61, 0
8, 12480, Note_on_c, 6, 61, 60
8, 12502, Note_on_c, 6, 61, 0
8, 12510, Note_on_c, 6, 61, 56
8, 12532, Note_on_c, 6, 61, 0
8, 12540, Note_on_c, 6, 61, 64
8, 12562, Note_on_c, 6, 61, 0
8, 12570, Note_on_c, 6, 61, 52
8, 12592, Note_on_c, 6, 61, 0
8, 12600, Note_on_c, 6, 61, 44
8, 12600, Note_on_c, 6, 57, 66
8, 12622, Note_on_c, 6, 57, 0
8, 12622, Note_on_c, 6, 61, 0
8, 12630, Note_on_c, 6, 61, 60
8, 12630, Note_on_c, 6, 57, 68
8, 12652, Note_on_c, 6, 57, 0
8, 12652, Note_on_c, 6, 61, 0
8, 12660, Note_on_c, 6, 61, 43
8, 12660, Note_on_c, 6, 57, 46
8, 12682, Note_on_c, 6, 57, 0
8, 12682, Note_on_c, 6, 61, 0
8, 12690, Note_on_c, 6, 61, 72
8, 12690, Note_on_c, 6, 57, 57
8, 12720, Note_on_c, 6, 57, 0
8, 12720, Note_on_c, 6, 61, 0
8, 12720, Note_on_c, 6, 59, 85
8, 12720, Note_on_c, 6, 65, 82
8, 12750, Note_on_c, 6, 65, 0
8, 12750, Note_on_c, 6, 59, 0
8, 12750, Note_on_c, 6, 61, 53
8, 12750, Note_on_c, 6, 66, 84
8, 12780, Note_on_c, 6, 66, 0
8, 12780, Note_on_c, 6, 61, 0
8, 12780, Note_on_c, 6, 66, 99
8, 12810, Note_on_c, 6, 66, 0
8, 12810, Note_on_c, 6, 57, 93
8, 12810, Note_on_c, 6, 54, 85
8, 12840, Note_on_c, 6, 54, 0
8, 12840, Note_on_c, 6, 57, 0
8, 12840, Note_on_c, 6, 54, 86
8, 12840, Note_on_c, 6, 57, 90
8, 12870, Note_on_c, 6, 57, 0
8, 12870, Note_on_c, 6, 54, 0
8, 12870, Note_on_c, 6, 54, 62
8, 12870, Note_on_c, 6, 57, 73
8, 12900, Note_on_c, 6, 57, 0
8, 12900, Note_on_c, 6, 54, 0
8, 12900, Note_on_c, 6, 54, 41
8, 12900, Note_on_c, 6, 57, 48
8, 12930, Note_on_c, 6, 57, 0
8, 12930, Note_on_c, 6, 54, 0
8, 12930, Note_on_c, 6, 54, 69
8, 12930, Note_on_c, 6, 57, 55
8, 12960, Note_on_c, 6, 57, 0
8, 12960, Note_on_c, 6, 54, 0
8, 12960, Control_c, 6, 7, 117
8, 12960, Note_on_c, 6, 52, 43
8, 12960, Note_on_c, 6, 56, 42
8, 13005, Note_on_c, 6, 56, 0
8, 13005, Note_on_c, 6, 52, 0
8, 13020, Note_on_c, 6, 56, 40
8, 13020, Note_on_c, 6, 52, 43
8, 13065, Note_on_c, 6, 52, 0
8, 13065, Note_on_c, 6, 56, 0
8, 13080, Note_on_c, 6, 52, 41
8, 13080, Note_on_c, 6, 56, 32
8, 13125, Note_on_c, 6, 56, 0
8, 13125, Note_on_c, 6, 52, 0
8, 13140, Note_on_c, 6, 52, 47
8, 13140, Note_on_c, 6, 56, 42
8, 13185, Note_on_c, 6, 56, 0
8, 13185, Note_on_c, 6, 52, 0
8, 13200, Note_on_c, 6, 52, 43
8, 13200, Note_on_c, 6, 56, 32
8, 13245, Note_on_c, 6, 56, 0
8, 13245, Note_on_c, 6, 52, 0
8, 13260, Note_on_c, 6, 52, 42
8, 13260, Note_on_c, 6, 56, 40
8, 13305, Note_on_c, 6, 56, 0
8, 13305, Note_on_c, 6, 52, 0
8, 13320, Note_on_c, 6, 52, 44
8, 13320, Note_on_c, 6, 56, 43
8, 13365, Note_on_c, 6, 56, 0
8, 13365, Note_on_c, 6, 52, 0
8, 13380, Note_on_c, 6, 52, 45
8, 13380, Note_on_c, 6, 56, 29
8, 13425, Note_on_c, 6, 56, 0
8, 13425, Note_on_c, 6, 52, 0
8, 13440, Control_c, 6, 7, 115
8, 13440, Note_on_c, 6, 52, 42
8, 13440, Note_on_c, 6, 56, 29
8, 13450, Control_c, 6, 7, 114
8, 13460, Control_c, 6, 7, 113
8, 13470, Control_c, 6, 7, 112
8, 13475, Control_c, 6, 7, 111
8, 13485, Note_on_c, 6, 56, 0
8, 13485, Note_on_c, 6, 52, 0
8, 13485, Control_c, 6, 7, 110
8, 13495, Control_c, 6, 7, 109
8, 13500, Control_c, 6, 7, 108
8, 13500, Note_on_c, 6, 56, 38
8, 13500, Note_on_c, 6, 52, 58
8, 13510, Control_c, 6, 7, 107
8, 13520, Control_c, 6, 7, 106
8, 13530, Control_c, 6, 7, 105
8, 13535, Control_c, 6, 7, 104
8, 13545, Note_on_c, 6, 52, 0
8, 13545, Note_on_c, 6, 56, 0
8, 13545, Control_c, 6, 7, 103
8, 13555, Control_c, 6, 7, 102
8, 13560, Control_c, 6, 7, 101
8, 13560, Note_on_c, 6, 56, 43
8, 13560, Note_on_c, 6, 52, 53
8, 13570, Control_c, 6, 7, 100
8, 13580, Control_c, 6, 7, 99
8, 13585, Control_c, 6, 7, 98
8, 13605, Note_on_c, 6, 52, 0
8, 13605, Note_on_c, 6, 56, 0
8, 13620, Note_on_c, 6, 52, 50
8, 13620, Note_on_c, 6, 56, 52
8, 13665, Note_on_c, 6, 56, 0
8, 13665, Note_on_c, 6, 52, 0
8, 13680, Note_on_c, 6, 54, 43
8, 13680, Note_on_c, 6, 52, 62
8, 13740, Note_on_c, 6, 52, 0
8, 13740, Note_on_c, 6, 54, 0
8, 13740, Note_on_c, 6, 61, 39
8, 13785, Note_on_c, 6, 61, 0
8, 13800, Note_on_c, 6, 61, 35
8, 13845, Note_on_c, 6, 61, 0
8, 13860, Note_on_c, 6, 61, 39
8, 13905, Note_on_c, 6, 61, 0
8, 13920, Note_on_c, 6, 61, 43
8, 13965, Note_on_c, 6, 61, 0
8, 13980, Note_on_c, 6, 61, 45
8, 14025, Note_on_c, 6, 61, 0
8, 14040, Note_on_c, 6, 59, 50
8, 14100, Note_on_c, 6, 59, 0
8, 14100, Note_on_c, 6, 71, 53
8, 14160, Note_on_c, 6, 71, 0
8, 14160, Note_on_c, 6, 71, 56
8, 14220, Note_on_c, 6, 71, 0
8, 14220, Note_on_c, 6, 71, 85
8, 14280, Note_on_c, 6, 71, 0
8, 14280, Note_on_c, 6, 71, 85
8, 14340, Note_on_c, 6, 71, 0
8, 14340, Note_on_c, 6, 71, 95
8, 14400, Note_on_c, 6, 71, 0
8, 14400, Note_on_c, 6, 71, 43
8, 14520, Note_on_c, 6, 71, 0
8, 14760, Note_on_c, 6, 57, 67
8, 14820, Note_on_c, 6, 57, 0
8, 14880, Note_on_c, 6, 56, 67
8, 14940, Note_on_c, 6, 56, 0
8, 15000, Note_on_c, 6, 54, 72
8, 15060, Note_on_c, 6, 54, 0
8, 15120, Note_on_c, 6, 56, 90
8, 15210, Note_on_c, 6, 56, 0
8, 15210, Note_on_c, 6, 68, 90
8, 15240, Note_on_c, 6, 68, 0
8, 15240, Note_on_c, 6, 68, 86
8, 15360, Note_on_c, 6, 68, 0
8, 15480, Note_on_c, 6, 57, 107
8, 15570, Note_on_c, 6, 57, 0
8, 15570, Note_on_c, 6, 69, 93
8, 15600, Note_on_c, 6, 69, 0
8, 15600, Note_on_c, 6, 69, 99
8, 15720, Note_on_c, 6, 69, 0
8, 15840, Note_on_c, 6, 59, 84
8, 15900, Note_on_c, 6, 59, 0
8, 18300, Note_on_c, 6, 54, 56
8, 18360, Note_on_c, 6, 54, 0
8, 18360, Note_on_c, 6, 52, 44
8, 18420, Note_on_c, 6, 52, 0
8, 18480, Note_on_c, 6, 64, 43
8, 18540, Note_on_c, 6, 64, 0
8, 18540, Note_on_c, 6, 63, 40
8, 18600, Note_on_c, 6, 63, 0
8, 18600, Note_on_c, 6, 59, 44
8, 18630, Note_on_c, 6, 59, 0
8, 18660, Note_on_c, 6, 63, 43
8, 18705, Note_on_c, 6, 63, 0
8, 18705, Note_on_c, 6, 64, 56
8, 18720, Note_on_c, 6, 64, 0
8, 18720, Note_on_c, 6, 66, 44
8, 18780, Note_on_c, 6, 66, 0
8, 18780, Note_on_c, 6, 59, 46
8, 18810, Note_on_c, 6, 59, 0
8, 19680, Note_on_c, 6, 64, 94
8, 19680, Note_on_c, 6, 52, 99
8, 19680, Note_on_c, 6, 59, 101
8, 19710, Note_on_c, 6, 59, 0
8, 19710, Note_on_c, 6, 52, 0
8, 19710, Note_on_c, 6, 64, 0
8, 19710, End_track
9, 0, Start_track
9, 0, MIDI_port, 0
9, 0, Title_t, "Cellos"
9, 0, Program_c, 7, 49
9, 0, Control_c, 7, 7, 100
9, 0, Control_c, 7, 10, 88
9, 0, Control_c, 7, 93, 0
9, 0, Control_c, 7, 91, 66
9, 2070, Note_on_c, 7, 47, 50
9, 2100, Note_on_c, 7, 47, 0
9, 2100, Note_on_c, 7, 49, 49
9, 2130, Note_on_c, 7, 49, 0
9, 2130, Note_on_c, 7, 51, 44
9, 2160, Note_on_c, 7, 51, 0
9, 2160, Note_on_c, 7, 47, 52
9, 2175, Note_on_c, 7, 47, 0
9, 2175, Note_on_c, 7, 52, 43
9, 2190, Note_on_c, 7, 52, 0
9, 2190, Note_on_c, 7, 56, 36
9, 2205, Note_on_c, 7, 56, 0
9, 2205, Note_on_c, 7, 52, 71
9, 2220, Note_on_c, 7, 52, 0
9, 2220, Note_on_c, 7, 47, 40
9, 2235, Note_on_c, 7, 47, 0
9, 2235, Note_on_c, 7, 52, 51
9, 2250, Note_on_c, 7, 52, 0
9, 2250, Note_on_c, 7, 56, 43
9, 2265, Note_on_c, 7, 56, 0
9, 2265, Note_on_c, 7, 52, 73
9, 2280, Note_on_c, 7, 52, 0
9, 2280, Note_on_c, 7, 51, 52
9, 2295, Note_on_c, 7, 51, 0
9, 2295, Note_on_c, 7, 47, 65
9, 2310, Note_on_c, 7, 47, 0
9, 2310, Note_on_c, 7, 52, 52
9, 2325, Note_on_c, 7, 52, 0
9, 2325, Note_on_c, 7, 47, 43
9, 2340, Note_on_c, 7, 47, 0
9, 2340, Note_on_c, 7, 45, 43
9, 2355, Note_on_c, 7, 45, 0
9, 2355, Note_on_c, 7, 47, 44
9, 2370, Note_on_c, 7, 47, 0
9, 2370, Note_on_c, 7, 45, 44
9, 2385, Note_on_c, 7, 45, 0
9, 2385, Note_on_c, 7, 47, 59
9, 2400, Note_on_c, 7, 47, 0
9, 2400, Note_on_c, 7, 44, 46
9, 2415, Note_on_c, 7, 44, 0
9, 2415, Note_on_c, 7, 47, 59
9, 2430, Note_on_c, 7, 47, 0
9, 2430, Note_on_c, 7, 52, 57
9, 2445, Note_on_c, 7, 52, 0
9, 2445, Note_on_c, 7, 56, 64
9, 2460, Note_on_c, 7, 56, 0
9, 2460, Note_on_c, 7, 59, 45
9, 2475, Note_on_c, 7, 59, 0
9, 2475, Note_on_c, 7, 56, 64
9, 2490, Note_on_c, 7, 56, 0
9, 2490, Note_on_c, 7, 52, 62
9, 2505, Note_on_c, 7, 52, 0
9, 2505, Note_on_c, 7, 56, 58
9, 2520, Note_on_c, 7, 56, 0
9, 2520, Note_on_c, 7, 57, 43
9, 2535, Note_on_c, 7, 57, 0
9, 2535, Note_on_c, 7, 52, 52
9, 2550, Note_on_c, 7, 52, 0
9, 2550, Note_on_c, 7, 57, 56
9, 2565, Note_on_c, 7, 57, 0
9, 2565, Note_on_c, 7, 52, 58
9, 2580, Note_on_c, 7, 52, 0
9, 2580, Note_on_c, 7, 52, 69
9, 2595, Note_on_c, 7, 52, 0
9, 2595, Note_on_c, 7, 56, 56
9, 2610, Note_on_c, 7, 56, 0
9, 2610, Note_on_c, 7, 59, 65
9, 2625, Note_on_c, 7, 59, 0
9, 2625, Note_on_c, 7, 56, 80
9, 2640, Note_on_c, 7, 56, 0
9, 2640, Note_on_c, 7, 52, 76
9, 2655, Note_on_c, 7, 52, 0
9, 2655, Note_on_c, 7, 47, 67
9, 2670, Note_on_c, 7, 47, 0
9, 2670, Note_on_c, 7, 44, 57
9, 2685, Note_on_c, 7, 44, 0
9, 2685, Note_on_c, 7, 47, 57
9, 2700, Note_on_c, 7, 47, 0
9, 2700, Note_on_c, 7, 45, 76
9, 2715, Note_on_c, 7, 45, 0
9, 2715, Note_on_c, 7, 49, 67
9, 2730, Note_on_c, 7, 49, 0
9, 2730, Note_on_c, 7, 54, 43
9, 2745, Note_on_c, 7, 54, 0
9, 2745, Note_on_c, 7, 49, 61
9, 2760, Note_on_c, 7, 49, 0
9, 2760, Note_on_c, 7, 47, 76
9, 2775, Note_on_c, 7, 47, 0
9, 2775, Note_on_c, 7, 52, 73
9, 2790, Note_on_c, 7, 52, 0
9, 2790, Note_on_c, 7, 56, 64
9, 2805, Note_on_c, 7, 56, 0
9, 2805, Note_on_c, 7, 52, 73
9, 2820, Note_on_c, 7, 52, 0
9, 2820, Note_on_c, 7, 47, 63
9, 2835, Note_on_c, 7, 47, 0
9, 2835, Note_on_c, 7, 54, 60
9, 2850, Note_on_c, 7, 54, 0
9, 2850, Note_on_c, 7, 57, 71
9, 2865, Note_on_c, 7, 57, 0
9, 2865, Note_on_c, 7, 54, 58
9, 2880, Note_on_c, 7, 54, 0
9, 2880, Note_on_c, 7, 56, 60
9, 2940, Note_on_c, 7, 56, 0
9, 3000, Note_on_c, 7, 52, 45
9, 3045, Note_on_c, 7, 52, 0
9, 3045, Note_on_c, 7, 51, 43
9, 3060, Note_on_c, 7, 51, 0
9, 3060, Note_on_c, 7, 49, 42
9, 3180, Note_on_c, 7, 49, 0
9, 3180, Note_on_c, 7, 49, 44
9, 3225, Note_on_c, 7, 49, 0
9, 3225, Note_on_c, 7, 47, 58
9, 3240, Note_on_c, 7, 47, 0
9, 3240, Note_on_c, 7, 45, 57
9, 3330, Note_on_c, 7, 45, 0
9, 3345, Note_on_c, 7, 45, 81
9, 3360, Note_on_c, 7, 45, 0
9, 3360, Note_on_c, 7, 44, 71
9, 3405, Note_on_c, 7, 44, 0
9, 3405, Note_on_c, 7, 42, 84
9, 3420, Note_on_c, 7, 42, 0
9, 3420, Note_on_c, 7, 47, 94
9, 3450, Note_on_c, 7, 47, 0
9, 3450, Note_on_c, 7, 47, 93
9, 3480, Note_on_c, 7, 47, 0
9, 3480, Note_on_c, 7, 47, 93
9, 3510, Note_on_c, 7, 47, 0
9, 3510, Note_on_c, 7, 47, 74
9, 3540, Note_on_c, 7, 47, 0
9, 3540, Note_on_c, 7, 47, 68
9, 3570, Note_on_c, 7, 47, 0
9, 3570, Note_on_c, 7, 47, 64
9, 3600, Note_on_c, 7, 47, 0
9, 3600, Note_on_c, 7, 52, 71
9, 3660, Note_on_c, 7, 52, 0
9, 3690, Note_on_c, 7, 47, 95
9, 3720, Note_on_c, 7, 47, 0
9, 3720, Note_on_c, 7, 47, 74
9, 3750, Note_on_c, 7, 47, 0
9, 3750, Note_on_c, 7, 47, 67
9, 3780, Note_on_c, 7, 47, 0
9, 3780, Note_on_c, 7, 52, 67
9, 3840, Note_on_c, 7, 52, 0
9, 3870, Note_on_c, 7, 47, 94
9, 3900, Note_on_c, 7, 47, 0
9, 3900, Note_on_c, 7, 47, 65
9, 3930, Note_on_c, 7, 47, 0
9, 3930, Note_on_c, 7, 47, 67
9, 3960, Note_on_c, 7, 47, 0
9, 3960, Note_on_c, 7, 52, 84
9, 3990, Note_on_c, 7, 52, 0
9, 4020, Note_on_c, 7, 59, 89
9, 4050, Note_on_c, 7, 59, 0
9, 4080, Note_on_c, 7, 56, 94
9, 4110, Note_on_c, 7, 56, 0
9, 4140, Note_on_c, 7, 52, 98
9, 4170, Note_on_c, 7, 52, 0
9, 4890, Note_on_c, 7, 64, 49
9, 4913, Note_on_c, 7, 64, 0
9, 4920, Note_on_c, 7, 64, 59
9, 4943, Note_on_c, 7, 64, 0
9, 4950, Note_on_c, 7, 64, 68
9, 4973, Note_on_c, 7, 64, 0
9, 4980, Note_on_c, 7, 64, 82
9, 5010, Note_on_c, 7, 64, 0
9, 5010, Note_on_c, 7, 63, 72
9, 5040, Note_on_c, 7, 63, 0
9, 5040, Note_on_c, 7, 61, 43
9, 5070, Note_on_c, 7, 61, 0
9, 5100, Note_on_c, 7, 51, 50
9, 5130, Note_on_c, 7, 51, 0
9, 5160, Note_on_c, 7, 52, 62
9, 5190, Note_on_c, 7, 52, 0
9, 5220, Note_on_c, 7, 54, 43
9, 5280, Note_on_c, 7, 54, 0
9, 5370, Note_on_c, 7, 54, 40
9, 5400, Note_on_c, 7, 54, 0
9, 5400, Note_on_c, 7, 59, 60
9, 5430, Note_on_c, 7, 59, 0
9, 5460, Note_on_c, 7, 56, 57
9, 5490, Note_on_c, 7, 56, 0
9, 5520, Note_on_c, 7, 61, 43
9, 5550, Note_on_c, 7, 61, 0
9, 5580, Note_on_c, 7, 54, 38
9, 5640, Note_on_c, 7, 54, 0
9, 5670, Note_on_c, 7, 66, 41
9, 5693, Note_on_c, 7, 66, 0
9, 5700, Note_on_c, 7, 66, 71
9, 5723, Note_on_c, 7, 66, 0
9, 5730, Note_on_c, 7, 66, 60
9, 5753, Note_on_c, 7, 66, 0
9, 5760, Note_on_c, 7, 66, 89
9, 5775, Note_on_c, 7, 66, 0
9, 5775, Note_on_c, 7, 65, 72
9, 5790, Note_on_c, 7, 65, 0
9, 5790, Note_on_c, 7, 66, 64
9, 5805, Note_on_c, 7, 66, 0
9, 5805, Note_on_c, 7, 65, 61
9, 5820, Note_on_c, 7, 65, 0
9, 5820, Note_on_c, 7, 66, 61
9, 5850, Note_on_c, 7, 66, 0
9, 5850, Note_on_c, 7, 66, 67
9, 5873, Note_on_c, 7, 66, 0
9, 5880, Note_on_c, 7, 66, 68
9, 5903, Note_on_c, 7, 66, 0
9, 5910, Note_on_c, 7, 66, 50
9, 5933, Note_on_c, 7, 66, 0
9, 5940, Note_on_c, 7, 54, 54
9, 6030, Note_on_c, 7, 54, 0
9, 6120, Note_on_c, 7, 52, 67
9, 6150, Note_on_c, 7, 52, 0
9, 6180, Note_on_c, 7, 52, 84
9, 6210, Note_on_c, 7, 52, 0
9, 6240, Note_on_c, 7, 52, 81
9, 6270, Note_on_c, 7, 52, 0
9, 6300, Note_on_c, 7, 54, 72
9, 6330, Note_on_c, 7, 54, 0
9, 6420, Note_on_c, 7, 54, 81
9, 6450, Note_on_c, 7, 54, 0
9, 6480, Note_on_c, 7, 47, 76
9, 6510, Note_on_c, 7, 47, 0
9, 6510, Note_on_c, 7, 59, 70
9, 6540, Note_on_c, 7, 59, 0
9, 6540, Note_on_c, 7, 59, 76
9, 6570, Note_on_c, 7, 59, 0
9, 6570, Note_on_c, 7, 59, 85
9, 6600, Note_on_c, 7, 59, 0
9, 6600, Note_on_c, 7, 59, 94
9, 6630, Note_on_c, 7, 59, 0
9, 6630, Note_on_c, 7, 59, 104
9, 6660, Note_on_c, 7, 59, 0
9, 6660, Note_on_c, 7, 57, 107
9, 6690, Note_on_c, 7, 57, 0
9, 6690, Note_on_c, 7, 57, 105
9, 6720, Note_on_c, 7, 57, 0
9, 6720, Note_on_c, 7, 57, 104
9, 6750, Note_on_c, 7, 57, 0
9, 6750, Note_on_c, 7, 57, 104
9, 6780, Note_on_c, 7, 57, 0
9, 6780, Note_on_c, 7, 50, 95
9, 6810, Note_on_c, 7, 50, 0
9, 6810, Note_on_c, 7, 50, 104
9, 6840, Note_on_c, 7, 50, 0
9, 6840, Note_on_c, 7, 55, 85
9, 6900, Note_on_c, 7, 55, 0
9, 6960, Program_c, 7, 45
9, 7020, Note_on_c, 7, 55, 95
9, 7080, Note_on_c, 7, 55, 0
9, 7200, Note_on_c, 7, 57, 101
9, 7260, Note_on_c, 7, 57, 0
9, 7380, Note_on_c, 7, 54, 90
9, 7440, Note_on_c, 7, 54, 0
9, 7560, Note_on_c, 7, 55, 93
9, 7620, Note_on_c, 7, 55, 0
9, 7680, Note_on_c, 7, 53, 93
9, 7740, Note_on_c, 7, 53, 0
9, 7740, Note_on_c, 7, 52, 99
9, 7800, Note_on_c, 7, 52, 0
9, 7860, Note_on_c, 7, 56, 90
9, 7920, Note_on_c, 7, 56, 0
9, 7920, Note_on_c, 7, 57, 82
9, 7980, Note_on_c, 7, 57, 0
9, 8100, Note_on_c, 7, 54, 72
9, 8220, Note_on_c, 7, 54, 0
9, 8220, Note_on_c, 7, 52, 84
9, 8280, Note_on_c, 7, 52, 0
9, 8280, Note_on_c, 7, 51, 82
9, 8400, Note_on_c, 7, 51, 0
9, 8400, Note_on_c, 7, 52, 89
9, 8460, Note_on_c, 7, 52, 0
9, 8460, Note_on_c, 7, 54, 78
9, 8580, Note_on_c, 7, 54, 0
9, 8580, Note_on_c, 7, 52, 86
9, 8640, Note_on_c, 7, 52, 0
9, 8640, Note_on_c, 7, 51, 84
9, 8700, Note_on_c, 7, 51, 0
9, 8820, Note_on_c, 7, 51, 74
9, 8880, Note_on_c, 7, 51, 0
9, 9000, Note_on_c, 7, 59, 89
9, 9060, Note_on_c, 7, 59, 0
9, 9420, Program_c, 7, 49
9, 9720, Note_on_c, 7, 45, 76
9, 9780, Note_on_c, 7, 45, 0
9, 9780, Note_on_c, 7, 45, 71
9, 9802, Note_on_c, 7, 45, 0
9, 9810, Note_on_c, 7, 45, 90
9, 9832, Note_on_c, 7, 45, 0
9, 9840, Note_on_c, 7, 45, 94
9, 9862, Note_on_c, 7, 45, 0
9, 9870, Note_on_c, 7, 45, 73
9, 9892, Note_on_c, 7, 45, 0
9, 9900, Note_on_c, 7, 44, 59
9, 10020, Note_on_c, 7, 44, 0
9, 10260, Note_on_c, 7, 58, 72
9, 10320, Note_on_c, 7, 58, 0
9, 10320, Note_on_c, 7, 59, 71
9, 10380, Note_on_c, 7, 59, 0
9, 11430, Note_on_c, 7, 47, 64
9, 11460, Note_on_c, 7, 47, 0
9, 11460, Note_on_c, 7, 49, 57
9, 11490, Note_on_c, 7, 49, 0
9, 11490, Note_on_c, 7, 51, 45
9, 11520, Note_on_c, 7, 51, 0
9, 11520, Note_on_c, 7, 47, 48
9, 11535, Note_on_c, 7, 47, 0
9, 11535, Note_on_c, 7, 52, 61
9, 11550, Note_on_c, 7, 52, 0
9, 11550, Note_on_c, 7, 56, 48
9, 11565, Note_on_c, 7, 56, 0
9, 11565, Note_on_c, 7, 52, 57
9, 11580, Note_on_c, 7, 52, 0
9, 11580, Note_on_c, 7, 47, 44
9, 11595, Note_on_c, 7, 47, 0
9, 11595, Note_on_c, 7, 52, 65
9, 11610, Note_on_c, 7, 52, 0
9, 11610, Note_on_c, 7, 56, 49
9, 11625, Note_on_c, 7, 56, 0
9, 11625, Note_on_c, 7, 52, 80
9, 11640, Note_on_c, 7, 52, 0
9, 11640, Note_on_c, 7, 51, 48
9, 11655, Note_on_c, 7, 51, 0
9, 11655, Note_on_c, 7, 47, 43
9, 11670, Note_on_c, 7, 47, 0
9, 11670, Note_on_c, 7, 52, 66
9, 11685, Note_on_c, 7, 52, 0
9, 11685, Note_on_c, 7, 47, 62
9, 11700, Note_on_c, 7, 47, 0
9, 11700, Note_on_c, 7, 45, 64
9, 11715, Note_on_c, 7, 45, 0
9, 11715, Note_on_c, 7, 47, 52
9, 11730, Note_on_c, 7, 47, 0
9, 11730, Note_on_c, 7, 45, 58
9, 11745, Note_on_c, 7, 45, 0
9, 11745, Note_on_c, 7, 47, 72
9, 11760, Note_on_c, 7, 47, 0
9, 11760, Note_on_c, 7, 44, 76
9, 11775, Note_on_c, 7, 44, 0
9, 11775, Note_on_c, 7, 47, 70
9, 11790, Note_on_c, 7, 47, 0
9, 11790, Note_on_c, 7, 52, 76
9, 11805, Note_on_c, 7, 52, 0
9, 11805, Note_on_c, 7, 56, 62
9, 11820, Note_on_c, 7, 56, 0
9, 11820, Note_on_c, 7, 59, 64
9, 11835, Note_on_c, 7, 59, 0
9, 11835, Note_on_c, 7, 56, 68
9, 11850, Note_on_c, 7, 56, 0
9, 11850, Note_on_c, 7, 52, 72
9, 11865, Note_on_c, 7, 52, 0
9, 11865, Note_on_c, 7, 56, 68
9, 11880, Note_on_c, 7, 56, 0
9, 11880, Note_on_c, 7, 57, 62
9, 11895, Note_on_c, 7, 57, 0
9, 11895, Note_on_c, 7, 52, 71
9, 11910, Note_on_c, 7, 52, 0
9, 11910, Note_on_c, 7, 57, 64
9, 11925, Note_on_c, 7, 57, 0
9, 11925, Note_on_c, 7, 52, 62
9, 11940, Note_on_c, 7, 52, 0
9, 11940, Note_on_c, 7, 52, 71
9, 11955, Note_on_c, 7, 52, 0
9, 11955, Note_on_c, 7, 56, 67
9, 11970, Note_on_c, 7, 56, 0
9, 11970, Note_on_c, 7, 59, 62
9, 11985, Note_on_c, 7, 59, 0
9, 11985, Note_on_c, 7, 56, 74
9, 12000, Note_on_c, 7, 56, 0
9, 12000, Note_on_c, 7, 52, 71
9, 12015, Note_on_c, 7, 52, 0
9, 12015, Note_on_c, 7, 47, 62
9, 12030, Note_on_c, 7, 47, 0
9, 12030, Note_on_c, 7, 44, 72
9, 12045, Note_on_c, 7, 44, 0
9, 12045, Note_on_c, 7, 47, 70
9, 12060, Note_on_c, 7, 47, 0
9, 12060, Note_on_c, 7, 45, 80
9, 12075, Note_on_c, 7, 45, 0
9, 12075, Note_on_c, 7, 49, 78
9, 12090, Note_on_c, 7, 49, 0
9, 12090, Note_on_c, 7, 54, 62
9, 12105, Note_on_c, 7, 54, 0
9, 12105, Note_on_c, 7, 49, 72
9, 12120, Note_on_c, 7, 49, 0
9, 12120, Note_on_c, 7, 47, 81
9, 12135, Note_on_c, 7, 47, 0
9, 12135, Note_on_c, 7, 52, 84
9, 12150, Note_on_c, 7, 52, 0
9, 12150, Note_on_c, 7, 56, 61
9, 12165, Note_on_c, 7, 56, 0
9, 12165, Note_on_c, 7, 52, 84
9, 12180, Note_on_c, 7, 52, 0
9, 12180, Note_on_c, 7, 47, 76
9, 12195, Note_on_c, 7, 47, 0
9, 12195, Note_on_c, 7, 54, 72
9, 12210, Note_on_c, 7, 54, 0
9, 12210, Note_on_c, 7, 57, 76
9, 12225, Note_on_c, 7, 57, 0
9, 12225, Note_on_c, 7, 54, 68
9, 12240, Note_on_c, 7, 54, 0
9, 12240, Note_on_c, 7, 56, 52
9, 12300, Note_on_c, 7, 56, 0
9, 12360, Note_on_c, 7, 52, 66
9, 12405, Note_on_c, 7, 52, 0
9, 12405, Note_on_c, 7, 51, 59
9, 12420, Note_on_c, 7, 51, 0
9, 12420, Note_on_c, 7, 49, 58
9, 12540, Note_on_c, 7, 49, 0
9, 12540, Note_on_c, 7, 49, 50
9, 12585, Note_on_c, 7, 49, 0
9, 12585, Note_on_c, 7, 47, 72
9, 12600, Note_on_c, 7, 47, 0
9, 12600, Note_on_c, 7, 45, 72
9, 12705, Note_on_c, 7, 45, 0
9, 12705, Note_on_c, 7, 45, 84
9, 12720, Note_on_c, 7, 45, 0
9, 12720, Note_on_c, 7, 44, 76
9, 12765, Note_on_c, 7, 44, 0
9, 12765, Note_on_c, 7, 42, 93
9, 12780, Note_on_c, 7, 42, 0
9, 12780, Note_on_c, 7, 47, 105
9, 12810, Note_on_c, 7, 47, 0
9, 12810, Note_on_c, 7, 47, 101
9, 12840, Note_on_c, 7, 47, 0
9, 12840, Note_on_c, 7, 47, 89
9, 12870, Note_on_c, 7, 47, 0
9, 12870, Note_on_c, 7, 47, 84
9, 12900, Note_on_c, 7, 47, 0
9, 12900, Note_on_c, 7, 47, 68
9, 12930, Note_on_c, 7, 47, 0
9, 12930, Note_on_c, 7, 47, 57
9, 12960, Note_on_c, 7, 47, 0
9, 12960, Note_on_c, 7, 52, 61
9, 13200, Note_on_c, 7, 52, 0
9, 13200, Note_on_c, 7, 52, 55
9, 13290, Note_on_c, 7, 52, 0
9, 13290, Note_on_c, 7, 51, 43
9, 13320, Note_on_c, 7, 51, 0
9, 13320, Note_on_c, 7, 49, 50
9, 13560, Note_on_c, 7, 49, 0
9, 13560, Note_on_c, 7, 49, 56
9, 13650, Note_on_c, 7, 49, 0
9, 13650, Note_on_c, 7, 47, 44
9, 13680, Note_on_c, 7, 47, 0
9, 13680, Note_on_c, 7, 46, 52
9, 13920, Note_on_c, 7, 46, 0
9, 13920, Note_on_c, 7, 46, 61
9, 14040, Note_on_c, 7, 46, 0
9, 14040, Note_on_c, 7, 45, 65
9, 14100, Note_on_c, 7, 45, 0
9, 14100, Note_on_c, 7, 57, 73
9, 14160, Note_on_c, 7, 57, 0
9, 14160, Note_on_c, 7, 57, 80
9, 14220, Note_on_c, 7, 57, 0
9, 14220, Note_on_c, 7, 57, 90
9, 14280, Note_on_c, 7, 57, 0
9, 14280, Note_on_c, 7, 57, 89
9, 14340, Note_on_c, 7, 57, 0
9, 14340, Note_on_c, 7, 57, 94
9, 14400, Note_on_c, 7, 57, 0
9, 14400, Note_on_c, 7, 56, 42
9, 14520, Note_on_c, 7, 56, 0
9, 14760, Note_on_c, 7, 57, 59
9, 14820, Note_on_c, 7, 57, 0
9, 14880, Note_on_c, 7, 59, 61
9, 14940, Note_on_c, 7, 59, 0
9, 15000, Note_on_c, 7, 57, 53
9, 15060, Note_on_c, 7, 57, 0
9, 15120, Note_on_c, 7, 44, 94
9, 15210, Note_on_c, 7, 44, 0
9, 15210, Note_on_c, 7, 56, 93
9, 15240, Note_on_c, 7, 56, 0
9, 15240, Note_on_c, 7, 56, 84
9, 15360, Note_on_c, 7, 56, 0
9, 15480, Note_on_c, 7, 45, 107
9, 15570, Note_on_c, 7, 45, 0
9, 15570, Note_on_c, 7, 57, 105
9, 15600, Note_on_c, 7, 57, 0
9, 15600, Note_on_c, 7, 57, 105
9, 15720, Note_on_c, 7, 57, 0
9, 15840, Note_on_c, 7, 47, 99
9, 15900, Note_on_c, 7, 47, 0
9, 18300, Note_on_c, 7, 47, 63
9, 18360, Note_on_c, 7, 47, 0
9, 18360, Note_on_c, 7, 52, 44
9, 18382, Note_on_c, 7, 52, 0
9, 18390, Note_on_c, 7, 52, 58
9, 18412, Note_on_c, 7, 52, 0
9, 18420, Note_on_c, 7, 52, 43
9, 18442, Note_on_c, 7, 52, 0
9, 18450, Note_on_c, 7, 52, 53
9, 18472, Note_on_c, 7, 52, 0
9, 18480, Note_on_c, 7, 52, 57
9, 18502, Note_on_c, 7, 52, 0
9, 18510, Note_on_c, 7, 52, 56
9, 18532, Note_on_c, 7, 52, 0
9, 18540, Note_on_c, 7, 52, 38
9, 18562, Note_on_c, 7, 52, 0
9, 18570, Note_on_c, 7, 52, 43
9, 18592, Note_on_c, 7, 52, 0
9, 18600, Note_on_c, 7, 52, 63
9, 18622, Note_on_c, 7, 52, 0
9, 18630, Note_on_c, 7, 52, 44
9, 18652, Note_on_c, 7, 52, 0
9, 18660, Note_on_c, 7, 52, 46
9, 18682, Note_on_c, 7, 52, 0
9, 18690, Note_on_c, 7, 52, 43
9, 18712, Note_on_c, 7, 52, 0
9, 18720, Note_on_c, 7, 52, 40
9, 18742, Note_on_c, 7, 52, 0
9, 18750, Note_on_c, 7, 52, 53
9, 18772, Note_on_c, 7, 52, 0
9, 18780, Note_on_c, 7, 52, 49
9, 18802, Note_on_c, 7, 52, 0
9, 19680, Note_on_c, 7, 40, 119
9, 19710, Note_on_c, 7, 40, 0
9, 19710, End_track
10, 0, Start_track
10, 0, MIDI_port, 0
10, 0, Title_t, "Contrabasses"
10, 0, Program_c, 8, 49
10, 0, Control_c, 8, 7, 100
10, 0, Control_c, 8, 10, 114
10, 0, Control_c, 8, 93, 0
10, 0, Control_c, 8, 91, 66
10, 2070, Note_on_c, 8, 35, 50
10, 2100, Note_on_c, 8, 35, 0
10, 2100, Note_on_c, 8, 37, 49
10, 2130, Note_on_c, 8, 37, 0
10, 2130, Note_on_c, 8, 39, 44
10, 2160, Note_on_c, 8, 39, 0
10, 2160, Note_on_c, 8, 40, 42
10, 2280, Note_on_c, 8, 40, 0
10, 2280, Note_on_c, 8, 39, 44
10, 2310, Note_on_c, 8, 39, 0
10, 2310, Note_on_c, 8, 40, 44
10, 2340, Note_on_c, 8, 40, 0
10, 2340, Note_on_c, 8, 35, 45
10, 2400, Note_on_c, 8, 35, 0
10, 2400, Note_on_c, 8, 40, 54
10, 2460, Note_on_c, 8, 40, 0
10, 2490, Note_on_c, 8, 44, 46
10, 2520, Note_on_c, 8, 44, 0
10, 2520, Note_on_c, 8, 45, 43
10, 2580, Note_on_c, 8, 45, 0
10, 2580, Note_on_c, 8, 44, 71
10, 2640, Note_on_c, 8, 44, 0
10, 2670, Note_on_c, 8, 32, 58
10, 2700, Note_on_c, 8, 32, 0
10, 2700, Note_on_c, 8, 33, 81
10, 2760, Note_on_c, 8, 33, 0
10, 2760, Note_on_c, 8, 35, 59
10, 2820, Note_on_c, 8, 35, 0
10, 2820, Note_on_c, 8, 35, 78
10, 2880, Note_on_c, 8, 35, 0
10, 2880, Note_on_c, 8, 40, 44
10, 3000, Note_on_c, 8, 40, 0
10, 3000, Note_on_c, 8, 40, 54
10, 3045, Note_on_c, 8, 40, 0
10, 3045, Note_on_c, 8, 39, 45
10, 3060, Note_on_c, 8, 39, 0
10, 3060, Note_on_c, 8, 37, 42
10, 3180, Note_on_c, 8, 37, 0
10, 3180, Note_on_c, 8, 37, 44
10, 3225, Note_on_c, 8, 37, 0
10, 3225, Note_on_c, 8, 35, 58
10, 3240, Note_on_c, 8, 35, 0
10, 3240, Note_on_c, 8, 33, 57
10, 3330, Note_on_c, 8, 33, 0
10, 3345, Note_on_c, 8, 33, 81
10, 3360, Note_on_c, 8, 33, 0
10, 3360, Note_on_c, 8, 32, 71
10, 3405, Note_on_c, 8, 32, 0
10, 3405, Note_on_c, 8, 30, 84
10, 3420, Note_on_c, 8, 30, 0
10, 3420, Note_on_c, 8, 35, 94
10, 3450, Note_on_c, 8, 35, 0
10, 3450, Note_on_c, 8, 35, 93
10, 3480, Note_on_c, 8, 35, 0
10, 3480, Note_on_c, 8, 35, 93
10, 3510, Note_on_c, 8, 35, 0
10, 3510, Note_on_c, 8, 35, 74
10, 3540, Note_on_c, 8, 35, 0
10, 3540, Note_on_c, 8, 35, 68
10, 3570, Note_on_c, 8, 35, 0
10, 3570, Note_on_c, 8, 35, 64
10, 3600, Note_on_c, 8, 35, 0
10, 3600, Note_on_c, 8, 40, 71
10, 3660, Note_on_c, 8, 40, 0
10, 3690, Note_on_c, 8, 35, 95
10, 3720, Note_on_c, 8, 35, 0
10, 3720, Note_on_c, 8, 35, 74
10, 3750, Note_on_c, 8, 35, 0
10, 3750, Note_on_c, 8, 35, 67
10, 3780, Note_on_c, 8, 35, 0
10, 3780, Note_on_c, 8, 40, 67
10, 3840, Note_on_c, 8, 40, 0
10, 3870, Note_on_c, 8, 35, 94
10, 3900, Note_on_c, 8, 35, 0
10, 3900, Note_on_c, 8, 35, 65
10, 3930, Note_on_c, 8, 35, 0
10, 3930, Note_on_c, 8, 35, 67
10, 3960, Note_on_c, 8, 35, 0
10, 3960, Note_on_c, 8, 40, 84
10, 3990, Note_on_c, 8, 40, 0
10, 4020, Note_on_c, 8, 47, 89
10, 4050, Note_on_c, 8, 47, 0
10, 4080, Note_on_c, 8, 44, 94
10, 4110, Note_on_c, 8, 44, 0
10, 4140, Note_on_c, 8, 40, 98
10, 4170, Note_on_c, 8, 40, 0
10, 5040, Note_on_c, 8, 37, 67
10, 5070, Note_on_c, 8, 37, 0
10, 5100, Note_on_c, 8, 39, 50
10, 5130, Note_on_c, 8, 39, 0
10, 5160, Note_on_c, 8, 40, 62
10, 5190, Note_on_c, 8, 40, 0
10, 5220, Note_on_c, 8, 42, 43
10, 5280, Note_on_c, 8, 42, 0
10, 5370, Note_on_c, 8, 42, 40
10, 5400, Note_on_c, 8, 42, 0
10, 5400, Note_on_c, 8, 47, 60
10, 5430, Note_on_c, 8, 47, 0
10, 5460, Note_on_c, 8, 44, 57
10, 5490, Note_on_c, 8, 44, 0
10, 5520, Note_on_c, 8, 49, 43
10, 5550, Note_on_c, 8, 49, 0
10, 5580, Note_on_c, 8, 42, 44
10, 5640, Note_on_c, 8, 42, 0
10, 5670, Note_on_c, 8, 47, 51
10, 5700, Note_on_c, 8, 47, 0
10, 5700, Note_on_c, 8, 46, 76
10, 5730, Note_on_c, 8, 46, 0
10, 5730, Note_on_c, 8, 47, 41
10, 5760, Note_on_c, 8, 47, 0
10, 5760, Note_on_c, 8, 42, 72
10, 5850, Note_on_c, 8, 42, 0
10, 5850, Note_on_c, 8, 47, 59
10, 5880, Note_on_c, 8, 47, 0
10, 5880, Note_on_c, 8, 46, 80
10, 5910, Note_on_c, 8, 46, 0
10, 5910, Note_on_c, 8, 47, 44
10, 5940, Note_on_c, 8, 47, 0
10, 5940, Note_on_c, 8, 42, 54
10, 6030, Note_on_c, 8, 42, 0
10, 6120, Note_on_c, 8, 40, 67
10, 6150, Note_on_c, 8, 40, 0
10, 6180, Note_on_c, 8, 40, 84
10, 6210, Note_on_c, 8, 40, 0
10, 6240, Note_on_c, 8, 40, 81
10, 6270, Note_on_c, 8, 40, 0
10, 6300, Note_on_c, 8, 42, 72
10, 6330, Note_on_c, 8, 42, 0
10, 6420, Note_on_c, 8, 54, 81
10, 6450, Note_on_c, 8, 54, 0
10, 6480, Note_on_c, 8, 35, 76
10, 6510, Note_on_c, 8, 35, 0
10, 6510, Note_on_c, 8, 47, 70
10, 6540, Note_on_c, 8, 47, 0
10, 6540, Note_on_c, 8, 47, 76
10, 6570, Note_on_c, 8, 47, 0
10, 6570, Note_on_c, 8, 47, 85
10, 6600, Note_on_c, 8, 47, 0
10, 6600, Note_on_c, 8, 47, 94
10, 6630, Note_on_c, 8, 47, 0
10, 6630, Note_on_c, 8, 47, 104
10, 6660, Note_on_c, 8, 47, 0
10, 6660, Note_on_c, 8, 45, 107
10, 6690, Note_on_c, 8, 45, 0
10, 6690, Note_on_c, 8, 45, 105
10, 6720, Note_on_c, 8, 45, 0
10, 6720, Note_on_c, 8, 45, 104
10, 6750, Note_on_c, 8, 45, 0
10, 6750, Note_on_c, 8, 45, 104
10, 6780, Note_on_c, 8, 45, 0
10, 6780, Note_on_c, 8, 38, 95
10, 6810, Note_on_c, 8, 38, 0
10, 6810, Note_on_c, 8, 38, 104
10, 6840, Note_on_c, 8, 38, 0
10, 6840, Note_on_c, 8, 43, 95
10, 6900, Note_on_c, 8, 43, 0
10, 6960, Program_c, 8, 45
10, 7020, Note_on_c, 8, 43, 94
10, 7080, Note_on_c, 8, 43, 0
10, 7200, Note_on_c, 8, 45, 90
10, 7260, Note_on_c, 8, 45, 0
10, 7380, Note_on_c, 8, 42, 82
10, 7440, Note_on_c, 8, 42, 0
10, 7560, Note_on_c, 8, 43, 94
10, 7620, Note_on_c, 8, 43, 0
10, 7680, Note_on_c, 8, 41, 84
10, 7740, Note_on_c, 8, 41, 0
10, 7740, Note_on_c, 8, 40, 98
10, 7800, Note_on_c, 8, 40, 0
10, 7860, Note_on_c, 8, 44, 93
10, 7920, Note_on_c, 8, 44, 0
10, 7920, Note_on_c, 8, 45, 80
10, 7980, Note_on_c, 8, 45, 0
10, 8100, Note_on_c, 8, 42, 71
10, 8220, Note_on_c, 8, 42, 0
10, 8220, Note_on_c, 8, 40, 84
10, 8280, Note_on_c, 8, 40, 0
10, 8280, Note_on_c, 8, 39, 73
10, 8400, Note_on_c, 8, 39, 0
10, 8400, Note_on_c, 8, 40, 80
10, 8460, Note_on_c, 8, 40, 0
10, 8460, Note_on_c, 8, 42, 76
10, 8580, Note_on_c, 8, 42, 0
10, 8580, Note_on_c, 8, 40, 89
10, 8640, Note_on_c, 8, 40, 0
10, 8640, Note_on_c, 8, 39, 89
10, 8700, Note_on_c, 8, 39, 0
10, 8820, Note_on_c, 8, 39, 78
10, 8880, Note_on_c, 8, 39, 0
10, 9000, Note_on_c, 8, 47, 84
10, 9060, Note_on_c, 8, 47, 0
10, 9480, Program_c, 8, 49
10, 9720, Note_on_c, 8, 33, 76
10, 9780, Note_on_c, 8, 33, 0
10, 9780, Note_on_c, 8, 33, 71
10, 9802, Note_on_c, 8, 33, 0
10, 9810, Note_on_c, 8, 33, 90
10, 9832, Note_on_c, 8, 33, 0
10, 9840, Note_on_c, 8, 33, 94
10, 9862, Note_on_c, 8, 33, 0
10, 9870, Note_on_c, 8, 33, 73
10, 9892, Note_on_c, 8, 33, 0
10, 9900, Note_on_c, 8, 32, 59
10, 10020, Note_on_c, 8, 32, 0
10, 10260, Note_on_c, 8, 46, 72
10, 10320, Note_on_c, 8, 46, 0
10, 10320, Note_on_c, 8, 47, 71
10, 10380, Note_on_c, 8, 47, 0
10, 11430, Note_on_c, 8, 35, 61
10, 11460, Note_on_c, 8, 35, 0
10, 11460, Note_on_c, 8, 37, 58
10, 11490, Note_on_c, 8, 37, 0
10, 11490, Note_on_c, 8, 39, 52
10, 11520, Note_on_c, 8, 39, 0
10, 11520, Note_on_c, 8, 40, 62
10, 11640, Note_on_c, 8, 40, 0
10, 11640, Note_on_c, 8, 39, 68
10, 11670, Note_on_c, 8, 39, 0
10, 11670, Note_on_c, 8, 40, 65
10, 11700, Note_on_c, 8, 40, 0
10, 11700, Note_on_c, 8, 35, 58
10, 11760, Note_on_c, 8, 35, 0
10, 11760, Note_on_c, 8, 40, 72
10, 11820, Note_on_c, 8, 40, 0
10, 11850, Note_on_c, 8, 44, 64
10, 11880, Note_on_c, 8, 44, 0
10, 11880, Note_on_c, 8, 45, 78
10, 11940, Note_on_c, 8, 45, 0
10, 11940, Note_on_c, 8, 44, 84
10, 12000, Note_on_c, 8, 44, 0
10, 12030, Note_on_c, 8, 32, 76
10, 12060, Note_on_c, 8, 32, 0
10, 12060, Note_on_c, 8, 33, 94
10, 12120, Note_on_c, 8, 33, 0
10, 12120, Note_on_c, 8, 35, 93
10, 12180, Note_on_c, 8, 35, 0
10, 12180, Note_on_c, 8, 35, 98
10, 12240, Note_on_c, 8, 35, 0
10, 12240, Note_on_c, 8, 40, 80
10, 12360, Note_on_c, 8, 40, 0
10, 12360, Note_on_c, 8, 40, 66
10, 12405, Note_on_c, 8, 40, 0
10, 12405, Note_on_c, 8, 39, 59
10, 12420, Note_on_c, 8, 39, 0
10, 12420, Note_on_c, 8, 37, 58
10, 12540, Note_on_c, 8, 37, 0
10, 12540, Note_on_c, 8, 37, 50
10, 12585, Note_on_c, 8, 37, 0
10, 12585, Note_on_c, 8, 35, 72
10, 12600, Note_on_c, 8, 35, 0
10, 12600, Note_on_c, 8, 33, 72
10, 12705, Note_on_c, 8, 33, 0
10, 12705, Note_on_c, 8, 33, 84
10, 12720, Note_on_c, 8, 33, 0
10, 12720, Note_on_c, 8, 32, 76
10, 12765, Note_on_c, 8, 32, 0
10, 12765, Note_on_c, 8, 30, 93
10, 12780, Note_on_c, 8, 30, 0
10, 12780, Note_on_c, 8, 35, 105
10, 12810, Note_on_c, 8, 35, 0
10, 12810, Note_on_c, 8, 35, 101
10, 12840, Note_on_c, 8, 35, 0
10, 12840, Note_on_c, 8, 35, 89
10, 12870, Note_on_c, 8, 35, 0
10, 12870, Note_on_c, 8, 35, 84
10, 12900, Note_on_c, 8, 35, 0
10, 12900, Note_on_c, 8, 35, 68
10, 12930, Note_on_c, 8, 35, 0
10, 12930, Note_on_c, 8, 35, 57
10, 12960, Note_on_c, 8, 35, 0
10, 12960, Note_on_c, 8, 40, 61
10, 13200, Note_on_c, 8, 40, 0
10, 13200, Note_on_c, 8, 40, 55
10, 13290, Note_on_c, 8, 40, 0
10, 13290, Note_on_c, 8, 39, 43
10, 13320, Note_on_c, 8, 39, 0
10, 13320, Note_on_c, 8, 37, 50
10, 13560, Note_on_c, 8, 37, 0
10, 13560, Note_on_c, 8, 37, 56
10, 13650, Note_on_c, 8, 37, 0
10, 13650, Note_on_c, 8, 35, 44
10, 13680, Note_on_c, 8, 35, 0
10, 13680, Note_on_c, 8, 34, 52
10, 13920, Note_on_c, 8, 34, 0
10, 13920, Note_on_c, 8, 34, 61
10, 14040, Note_on_c, 8, 34, 0
10, 14040, Note_on_c, 8, 33, 65
10, 14100, Note_on_c, 8, 33, 0
10, 14100, Note_on_c, 8, 45, 73
10, 14160, Note_on_c, 8, 45, 0
10, 14160, Note_on_c, 8, 45, 80
10, 14220, Note_on_c, 8, 45, 0
10, 14220, Note_on_c, 8, 45, 90
10, 14280, Note_on_c, 8, 45, 0
10, 14280, Note_on_c, 8, 45, 89
10, 14340, Note_on_c, 8, 45, 0
10, 14340, Note_on_c, 8, 45, 94
10, 14400, Note_on_c, 8, 45, 0
10, 14400, Note_on_c, 8, 44, 42
10, 14520, Note_on_c, 8, 44, 0
10, 14760, Note_on_c, 8, 45, 59
10, 14820, Note_on_c, 8, 45, 0
10, 14880, Note_on_c, 8, 47, 61
10, 14940, Note_on_c, 8, 47, 0
10, 15000, Note_on_c, 8, 45, 53
10, 15060, Note_on_c, 8, 45, 0
10, 15120, Note_on_c, 8, 32, 94
10, 15210, Note_on_c, 8, 32, 0
10, 15210, Note_on_c, 8, 44, 93
10, 15240, Note_on_c, 8, 44, 0
10, 15240, Note_on_c, 8, 44, 84
10, 15360, Note_on_c, 8, 44, 0
10, 15480, Note_on_c, 8, 33, 107
10, 15570, Note_on_c, 8, 33, 0
10, 15570, Note_on_c, 8, 45, 105
10, 15600, Note_on_c, 8, 45, 0
10, 15600, Note_on_c, 8, 45, 105
10, 15720, Note_on_c, 8, 45, 0
10, 15840, Note_on_c, 8, 35, 99
10, 15900, Note_on_c, 8, 35, 0
10, 18300, Note_on_c, 8, 35, 63
10, 18360, Note_on_c, 8, 35, 0
10, 18360, Note_on_c, 8, 40, 44
10, 18382, Note_on_c, 8, 40, 0
10, 18390, Note_on_c, 8, 40, 58
10, 18412, Note_on_c, 8, 40, 0
10, 18420, Note_on_c, 8, 40, 43
10, 18442, Note_on_c, 8, 40, 0
10, 18450, Note_on_c, 8, 40, 53
10, 18472, Note_on_c, 8, 40, 0
10, 18480, Note_on_c, 8, 40, 57
10, 18502, Note_on_c, 8, 40, 0
10, 18510, Note_on_c, 8, 40, 56
10, 18532, Note_on_c, 8, 40, 0
10, 18540, Note_on_c, 8, 40, 38
10, 18562, Note_on_c, 8, 40, 0
10, 18570, Note_on_c, 8, 40, 43
10, 18592, Note_on_c, 8, 40, 0
10, 18600, Note_on_c, 8, 40, 63
10, 18622, Note_on_c, 8, 40, 0
10, 18630, Note_on_c, 8, 40, 44
10, 18652, Note_on_c, 8, 40, 0
10, 18660, Note_on_c, 8, 40, 46
10, 18682, Note_on_c, 8, 40, 0
10, 18690, Note_on_c, 8, 40, 43
10, 18712, Note_on_c, 8, 40, 0
10, 18720, Note_on_c, 8, 40, 40
10, 18742, Note_on_c, 8, 40, 0
10, 18750, Note_on_c, 8, 40, 53
10, 18772, Note_on_c, 8, 40, 0
10, 18780, Note_on_c, 8, 40, 49
10, 18802, Note_on_c, 8, 40, 0
10, 19680, Note_on_c, 8, 28, 119
10, 19710, Note_on_c, 8, 28, 0
10, 19710, End_track
11, 0, Start_track
11, 0, MIDI_port, 0
11, 0, Title_t, "Ludwig van Beethoven"
11, 0, End_track
12, 0, Start_track
12, 0, MIDI_port, 0
12, 0, Title_t, "Piano Concerto No.3 "
12, 0, End_track
13, 0, Start_track
13, 0, MIDI_port, 0
13, 0, Title_t, "  in C minor, Op. 37"
13, 0, End_track
14, 0, Start_track
14, 0, MIDI_port, 0
14, 0, Title_t, "Mov't. 2 - Largo"
14, 0, End_track
15, 0, Start_track
15, 0, MIDI_port, 0
15, 0, Title_t, "Sequenced by Bill Nemitz"
15, 0, End_track
16, 0, Start_track
16, 0, MIDI_port, 0
16, 0, Title_t, "Email at billnem@ix.netcom.com"
16, 0, End_track
0, 0, End_of_file