0, 0, Header, 1, 4, 480
1, 0, Start_track
1, 0, Time_signature, 4, 2, 24, 8
1, 0, Tempo, 306122
1, 24976, Tempo, 306122
1, 26176, Tempo, 304568
1, 27376, Tempo, 303030
1, 28576, Tempo, 301507
1, 29576, Tempo, 300000
1, 30720, Tempo, 298507
1, 32656, Tempo, 306122
1, 33056, Tempo, 307692
1, 33256, Tempo, 309278
1, 33456, Tempo, 312500
1, 33656, Tempo, 317460
1, 33856, Tempo, 322580
1, 34056, Tempo, 329670
1, 34256, Tempo, 337078
1, 34368, Tempo, 342857
1, 34560, Tempo, 319148
1, 38400, Tempo, 300000
1, 42240, Tempo, 309278
1, 44160, Tempo, 315789
1, 46080, Tempo, 300000
1, 49920, Tempo, 306122
1, 61440, Tempo, 309278
1, 65296, Tempo, 306122
1, 82560, Tempo, 310880
1, 82960, Tempo, 312500
1, 83160, Tempo, 314136
1, 83360, Tempo, 317460
1, 83560, Tempo, 322580
1, 83760, Tempo, 327868
1, 83960, Tempo, 335195
1, 84224, Tempo, 346820
1, 84480, Tempo, 322580
1, 99840, Tempo, 306122
1, 111360, Tempo, 329670
1, 111760, Tempo, 331491
1, 111960, Tempo, 333333
1, 112160, Tempo, 338983
1, 112360, Tempo, 342857
1, 112560, Tempo, 350877
1, 112760, Tempo, 359281
1, 112960, Tempo, 377358
1, 113152, Tempo, 392156
1, 114256, Tempo, 315789
1, 117120, Tempo, 382165
1, 119968, Tempo, 306122
1, 142080, Tempo, 306122
1, 144680, Tempo, 304568
1, 145880, Tempo, 303030
1, 146680, Tempo, 301507
1, 147280, Tempo, 300000
1, 147888, Tempo, 298507
1, 149760, Tempo, 312500
1, 150360, Tempo, 315789
1, 150560, Tempo, 317460
1, 150760, Tempo, 322580
1, 150960, Tempo, 326086
1, 151160, Tempo, 331491
1, 151360, Tempo, 338983
1, 151440, Tempo, 342857
1, 152656, Tempo, 324324
1, 183824, Tempo, 319148
1, 190080, Tempo, 320855
1, 190480, Tempo, 319148
1, 190680, Tempo, 317460
1, 190880, Tempo, 315789
1, 191080, Tempo, 314136
1, 191280, Tempo, 312500
1, 191480, Tempo, 310880
1, 191680, Tempo, 309278
1, 191880, Tempo, 307692
1, 192000, Tempo, 306122
1, 203520, Tempo, 310880
1, 207360, Tempo, 315789
1, 224640, Tempo, 327868
1, 225120, Tempo, 335195
1, 225320, Tempo, 342857
1, 225520, Tempo, 350877
1, 225720, Tempo, 357142
1, 225920, Tempo, 365853
1, 226120, Tempo, 375000
1, 226320, Tempo, 382165
1, 227536, Tempo, 315789
1, 230400, Tempo, 387096
1, 233264, Tempo, 306122
1, 252480, Tempo, 307692
1, 255360, Tempo, 309278
1, 256360, Tempo, 310880
1, 256760, Tempo, 312500
1, 257160, Tempo, 314136
1, 257280, Tempo, 314136
1, 257280, Tempo, 315789
1, 259200, Tempo, 306122
1, 272640, Tempo, 307692
1, 273600, Tempo, 309278
1, 275520, Tempo, 310880
1, 276496, Tempo, 306122
1, 276496, Tempo, 304568
1, 293760, Tempo, 312500
1, 294376, Tempo, 317460
1, 294576, Tempo, 320855
1, 294776, Tempo, 324324
1, 294976, Tempo, 327868
1, 295176, Tempo, 333333
1, 295376, Tempo, 338983
1, 295576, Tempo, 344827
1, 295584, Tempo, 346820
1, 296656, Tempo, 326086
1, 307200, Tempo, 315789
1, 322560, Tempo, 324324
1, 324480, Tempo, 333333
1, 326400, Tempo, 342857
1, 328320, Tempo, 375000
1, 328784, Tempo, 379746
1, 329280, Tempo, 384615
1, 329744, Tempo, 389610
1, 330240, Tempo, 306122
1, 343680, Tempo, 306122
1, 347680, Tempo, 304568
1, 349280, Tempo, 303030
1, 350480, Tempo, 301507
1, 351360, Tempo, 300000
1, 357120, Tempo, 315789
1, 359040, Tempo, 300000
1, 366720, Tempo, 298507
1, 368640, Tempo, 297029
1, 370560, Tempo, 294117
1, 372480, Tempo, 312500
1, 380176, Tempo, 320855
1, 380384, Tempo, 326086
1, 380576, Tempo, 327868
1, 380784, Tempo, 331491
1, 380976, Tempo, 333333
1, 381184, Tempo, 338983
1, 381376, Tempo, 340909
1, 381584, Tempo, 344827
1, 381776, Tempo, 346820
1, 381984, Tempo, 348837
1, 382096, Tempo, 355029
1, 382496, Tempo, 361445
1, 382704, Tempo, 368098
1, 382896, Tempo, 377358
1, 383104, Tempo, 387096
1, 383296, Tempo, 402684
1, 383504, Tempo, 425531
1, 383696, Tempo, 458015
1, 383904, Tempo, 495867
1, 384032, Tempo, 365853
1, 384976, Tempo, 326086
1, 387840, Tempo, 666666
1, 390720, Tempo, 375000
1, 394544, Tempo, 400000
1, 397440, Tempo, 428571
1, 399376, Tempo, 461538
1, 400784, Tempo, 500000
1, 402256, Tempo, 300000
1, 402256, End_track
2, 0, Start_track
2, 0, Sequencer_specific, 04, 43, 00, 01, 00
2, 0, Program_c, 0, 0
2, 0, Control_c, 0, 7, 126
2, 0, Control_c, 0, 91, 110
2, 3120, Note_on_c, 0, 67, 72
2, 3264, Note_on_c, 0, 67, 0
2, 3360, Note_on_c, 0, 72, 72
2, 3504, Note_on_c, 0, 72, 0
2, 3600, Note_on_c, 0, 74, 72
2, 3744, Note_on_c, 0, 74, 0
2, 3840, Note_on_c, 0, 75, 72
2, 4560, Note_on_c, 0, 75, 0
2, 4560, Note_on_c, 0, 77, 72
2, 4800, Note_on_c, 0, 77, 0
2, 4800, Note_on_c, 0, 74, 72
2, 5520, Note_on_c, 0, 74, 0
2, 5520, Note_on_c, 0, 75, 72
2, 5760, Note_on_c, 0, 75, 0
2, 5760, Note_on_c, 0, 72, 72
2, 6528, Note_on_c, 0, 72, 0
2, 6720, Note_on_c, 0, 74, 72
2, 6780, Note_on_c, 0, 74, 0
2, 6780, Note_on_c, 0, 72, 72
2, 6960, Note_on_c, 0, 72, 0
2, 6960, Note_on_c, 0, 71, 72
2, 7200, Note_on_c, 0, 71, 0
2, 7200, Note_on_c, 0, 72, 72
2, 7440, Note_on_c, 0, 72, 0
2, 7440, Note_on_c, 0, 74, 72
2, 7680, Note_on_c, 0, 74, 0
2, 7680, Note_on_c, 0, 77, 72
2, 7740, Note_on_c, 0, 77, 0
2, 7740, Note_on_c, 0, 75, 72
2, 7920, Note_on_c, 0, 75, 0
2, 7920, Note_on_c, 0, 74, 72
2, 8160, Note_on_c, 0, 74, 0
2, 8160, Note_on_c, 0, 75, 72
2, 8400, Note_on_c, 0, 75, 0
2, 8400, Note_on_c, 0, 77, 72
2, 8640, Note_on_c, 0, 77, 0
2, 8640, Note_on_c, 0, 79, 72
2, 8928, Note_on_c, 0, 79, 0
2, 9120, Note_on_c, 0, 79, 72
2, 9408, Note_on_c, 0, 79, 0
2, 9600, Note_on_c, 0, 79, 72
2, 10752, Note_on_c, 0, 79, 0
2, 11040, Note_on_c, 0, 77, 72
2, 11280, Note_on_c, 0, 77, 0
2, 11280, Note_on_c, 0, 79, 72
2, 11520, Note_on_c, 0, 79, 0
2, 11520, Note_on_c, 0, 77, 72
2, 11580, Note_on_c, 0, 77, 0
2, 11580, Note_on_c, 0, 79, 72
2, 11640, Note_on_c, 0, 79, 0
2, 11640, Note_on_c, 0, 80, 92
2, 12480, Note_on_c, 0, 80, 0
2, 12480, Note_on_c, 0, 74, 72
2, 12768, Note_on_c, 0, 74, 0
2, 12960, Note_on_c, 0, 75, 72
2, 13200, Note_on_c, 0, 75, 0
2, 13200, Note_on_c, 0, 77, 72
2, 13440, Note_on_c, 0, 77, 0
2, 13440, Note_on_c, 0, 75, 72
2, 13500, Note_on_c, 0, 75, 0
2, 13500, Note_on_c, 0, 77, 72
2, 13560, Note_on_c, 0, 77, 0
2, 13560, Note_on_c, 0, 79, 92
2, 14400, Note_on_c, 0, 79, 0
2, 14400, Note_on_c, 0, 72, 72
2, 14688, Note_on_c, 0, 72, 0
2, 14880, Note_on_c, 0, 72, 72
2, 15120, Note_on_c, 0, 72, 0
2, 15120, Note_on_c, 0, 74, 72
2, 15360, Note_on_c, 0, 74, 0
2, 15360, Note_on_c, 0, 75, 72
2, 15648, Note_on_c, 0, 75, 0
2, 15840, Note_on_c, 0, 75, 72
2, 16080, Note_on_c, 0, 75, 0
2, 16080, Note_on_c, 0, 77, 72
2, 16320, Note_on_c, 0, 77, 0
2, 16320, Note_on_c, 0, 74, 72
2, 16608, Note_on_c, 0, 74, 0
2, 16800, Note_on_c, 0, 74, 72
2, 17040, Note_on_c, 0, 74, 0
2, 17040, Note_on_c, 0, 75, 72
2, 17280, Note_on_c, 0, 75, 0
2, 17280, Note_on_c, 0, 72, 72
2, 17664, Note_on_c, 0, 72, 0
2, 18720, Note_on_c, 0, 77, 72
2, 18960, Note_on_c, 0, 77, 0
2, 18960, Note_on_c, 0, 79, 72
2, 19200, Note_on_c, 0, 79, 0
2, 19200, Note_on_c, 0, 80, 72
2, 19200, Note_on_c, 0, 68, 72
2, 20160, Note_on_c, 0, 68, 0
2, 20160, Note_on_c, 0, 80, 0
2, 20160, Note_on_c, 0, 74, 72
2, 20448, Note_on_c, 0, 74, 0
2, 20640, Note_on_c, 0, 75, 72
2, 20880, Note_on_c, 0, 75, 0
2, 20880, Note_on_c, 0, 77, 72
2, 21120, Note_on_c, 0, 77, 0
2, 21120, Note_on_c, 0, 67, 72
2, 21120, Note_on_c, 0, 79, 72
2, 22080, Note_on_c, 0, 79, 0
2, 22080, Note_on_c, 0, 67, 0
2, 22080, Note_on_c, 0, 72, 72
2, 22368, Note_on_c, 0, 72, 0
2, 22560, Note_on_c, 0, 72, 72
2, 22800, Note_on_c, 0, 72, 0
2, 22800, Note_on_c, 0, 74, 72
2, 23040, Note_on_c, 0, 74, 0
2, 23040, Note_on_c, 0, 75, 72
2, 23328, Note_on_c, 0, 75, 0
2, 23520, Note_on_c, 0, 75, 72
2, 23760, Note_on_c, 0, 75, 0
2, 23760, Note_on_c, 0, 77, 72
2, 24000, Note_on_c, 0, 77, 0
2, 24000, Note_on_c, 0, 74, 72
2, 24288, Note_on_c, 0, 74, 0
2, 24480, Note_on_c, 0, 74, 72
2, 24720, Note_on_c, 0, 74, 0
2, 24720, Note_on_c, 0, 75, 72
2, 24960, Note_on_c, 0, 75, 0
2, 24960, Note_on_c, 0, 72, 72
2, 25248, Note_on_c, 0, 72, 0
2, 25440, Note_on_c, 0, 82, 72
2, 26208, Note_on_c, 0, 82, 0
2, 26400, Note_on_c, 0, 82, 76
2, 27120, Note_on_c, 0, 82, 0
2, 27120, Note_on_c, 0, 80, 79
2, 27360, Note_on_c, 0, 80, 0
2, 27360, Note_on_c, 0, 79, 80
2, 27600, Note_on_c, 0, 79, 0
2, 27600, Note_on_c, 0, 77, 81
2, 27840, Note_on_c, 0, 77, 0
2, 27840, Note_on_c, 0, 75, 82
2, 28080, Note_on_c, 0, 75, 0
2, 28080, Note_on_c, 0, 74, 83
2, 28320, Note_on_c, 0, 74, 0
2, 28320, Note_on_c, 0, 72, 84
2, 28560, Note_on_c, 0, 72, 0
2, 28560, Note_on_c, 0, 71, 85
2, 28800, Note_on_c, 0, 71, 0
2, 28800, Note_on_c, 0, 72, 86
2, 29088, Note_on_c, 0, 72, 0
2, 29280, Note_on_c, 0, 72, 88
2, 29280, Note_on_c, 0, 84, 88
2, 30240, Note_on_c, 0, 84, 0
2, 30240, Note_on_c, 0, 72, 0
2, 30240, Note_on_c, 0, 82, 91
2, 30960, Note_on_c, 0, 82, 0
2, 30960, Note_on_c, 0, 80, 94
2, 31200, Note_on_c, 0, 80, 0
2, 31200, Note_on_c, 0, 79, 95
2, 31440, Note_on_c, 0, 79, 0
2, 31440, Note_on_c, 0, 77, 96
2, 31680, Note_on_c, 0, 77, 0
2, 31680, Note_on_c, 0, 75, 97
2, 31920, Note_on_c, 0, 75, 0
2, 31920, Note_on_c, 0, 74, 98
2, 32160, Note_on_c, 0, 74, 0
2, 32160, Note_on_c, 0, 72, 99
2, 32400, Note_on_c, 0, 72, 0
2, 32400, Note_on_c, 0, 71, 100
2, 32640, Note_on_c, 0, 71, 0
2, 32640, Note_on_c, 0, 72, 101
2, 32928, Note_on_c, 0, 72, 0
2, 33120, Note_on_c, 0, 75, 105
2, 33180, Note_on_c, 0, 75, 0
2, 33180, Note_on_c, 0, 74, 105
2, 33240, Note_on_c, 0, 74, 0
2, 33240, Note_on_c, 0, 75, 105
2, 33300, Note_on_c, 0, 75, 0
2, 33300, Note_on_c, 0, 74, 105
2, 33360, Note_on_c, 0, 74, 0
2, 33360, Note_on_c, 0, 72, 105
2, 33480, Note_on_c, 0, 72, 0
2, 33480, Note_on_c, 0, 74, 105
2, 33600, Note_on_c, 0, 74, 0
2, 33600, Note_on_c, 0, 75, 105
2, 33888, Note_on_c, 0, 75, 0
2, 34080, Note_on_c, 0, 74, 105
2, 34080, Note_on_c, 0, 71, 105
2, 34080, Note_on_c, 0, 83, 105
2, 34368, Note_on_c, 0, 83, 0
2, 34368, Note_on_c, 0, 71, 0
2, 34368, Note_on_c, 0, 74, 0
2, 34560, Note_on_c, 0, 75, 105
2, 34560, Note_on_c, 0, 72, 105
2, 34560, Note_on_c, 0, 84, 105
2, 34848, Note_on_c, 0, 84, 0
2, 34848, Note_on_c, 0, 72, 0
2, 34848, Note_on_c, 0, 75, 0
2, 36480, Note_on_c, 0, 64, 105
2, 36480, Note_on_c, 0, 60, 105
2, 36480, Note_on_c, 0, 55, 105
2, 38400, Note_on_c, 0, 55, 0
2, 38400, Note_on_c, 0, 60, 0
2, 38400, Note_on_c, 0, 64, 0
2, 38400, Note_on_c, 0, 65, 72
2, 38640, Note_on_c, 0, 65, 0
2, 38640, Note_on_c, 0, 72, 72
2, 38880, Note_on_c, 0, 72, 0
2, 38880, Note_on_c, 0, 68, 72
2, 39120, Note_on_c, 0, 68, 0
2, 39120, Note_on_c, 0, 77, 72
2, 39360, Note_on_c, 0, 77, 0
2, 39360, Note_on_c, 0, 72, 72
2, 39600, Note_on_c, 0, 72, 0
2, 39600, Note_on_c, 0, 80, 72
2, 39840, Note_on_c, 0, 80, 0
2, 39840, Note_on_c, 0, 77, 72
2, 40080, Note_on_c, 0, 77, 0
2, 40080, Note_on_c, 0, 84, 72
2, 40320, Note_on_c, 0, 84, 0
2, 40320, Note_on_c, 0, 82, 72
2, 40560, Note_on_c, 0, 82, 0
2, 40560, Note_on_c, 0, 79, 72
2, 40800, Note_on_c, 0, 79, 0
2, 40800, Note_on_c, 0, 76, 72
2, 41040, Note_on_c, 0, 76, 0
2, 41040, Note_on_c, 0, 72, 72
2, 41280, Note_on_c, 0, 72, 0
2, 41280, Note_on_c, 0, 70, 72
2, 41520, Note_on_c, 0, 70, 0
2, 41520, Note_on_c, 0, 71, 72
2, 41760, Note_on_c, 0, 71, 0
2, 41760, Note_on_c, 0, 72, 72
2, 42000, Note_on_c, 0, 72, 0
2, 42000, Note_on_c, 0, 67, 72
2, 42240, Note_on_c, 0, 67, 0
2, 42240, Note_on_c, 0, 70, 72
2, 43200, Note_on_c, 0, 70, 0
2, 43200, Note_on_c, 0, 68, 72
2, 43584, Note_on_c, 0, 68, 0
2, 44160, Note_on_c, 0, 53, 105
2, 44160, Note_on_c, 0, 62, 105
2, 44160, Note_on_c, 0, 58, 105
2, 46080, Note_on_c, 0, 58, 0
2, 46080, Note_on_c, 0, 62, 0
2, 46080, Note_on_c, 0, 53, 0
2, 46080, Note_on_c, 0, 63, 72
2, 46320, Note_on_c, 0, 63, 0
2, 46320, Note_on_c, 0, 70, 72
2, 46560, Note_on_c, 0, 70, 0
2, 46560, Note_on_c, 0, 67, 72
2, 46800, Note_on_c, 0, 67, 0
2, 46800, Note_on_c, 0, 75, 72
2, 47040, Note_on_c, 0, 75, 0
2, 47040, Note_on_c, 0, 70, 72
2, 47280, Note_on_c, 0, 70, 0
2, 47280, Note_on_c, 0, 79, 72
2, 47520, Note_on_c, 0, 79, 0
2, 47520, Note_on_c, 0, 75, 72
2, 47760, Note_on_c, 0, 75, 0
2, 47760, Note_on_c, 0, 82, 72
2, 48000, Note_on_c, 0, 82, 0
2, 48000, Note_on_c, 0, 80, 72
2, 48240, Note_on_c, 0, 80, 0
2, 48240, Note_on_c, 0, 79, 72
2, 48480, Note_on_c, 0, 79, 0
2, 48480, Note_on_c, 0, 77, 72
2, 48720, Note_on_c, 0, 77, 0
2, 48720, Note_on_c, 0, 75, 72
2, 48960, Note_on_c, 0, 75, 0
2, 48960, Note_on_c, 0, 74, 72
2, 49200, Note_on_c, 0, 74, 0
2, 49200, Note_on_c, 0, 72, 72
2, 49440, Note_on_c, 0, 72, 0
2, 49440, Note_on_c, 0, 70, 72
2, 49680, Note_on_c, 0, 70, 0
2, 49680, Note_on_c, 0, 68, 72
2, 49920, Note_on_c, 0, 68, 0
2, 49920, Note_on_c, 0, 67, 72
2, 50208, Note_on_c, 0, 67, 0
2, 50400, Note_on_c, 0, 70, 72
2, 51360, Note_on_c, 0, 70, 0
2, 51360, Note_on_c, 0, 70, 72
2, 52080, Note_on_c, 0, 70, 0
2, 52080, Note_on_c, 0, 72, 72
2, 52320, Note_on_c, 0, 72, 0
2, 52320, Note_on_c, 0, 74, 72
2, 52560, Note_on_c, 0, 74, 0
2, 52560, Note_on_c, 0, 75, 72
2, 52800, Note_on_c, 0, 75, 0
2, 52800, Note_on_c, 0, 77, 72
2, 53040, Note_on_c, 0, 77, 0
2, 53040, Note_on_c, 0, 79, 72
2, 53280, Note_on_c, 0, 79, 0
2, 53280, Note_on_c, 0, 80, 72
2, 53520, Note_on_c, 0, 80, 0
2, 53520, Note_on_c, 0, 77, 72
2, 53760, Note_on_c, 0, 77, 0
2, 53760, Note_on_c, 0, 80, 72
2, 54000, Note_on_c, 0, 80, 0
2, 54000, Note_on_c, 0, 79, 72
2, 54240, Note_on_c, 0, 79, 0
2, 54240, Note_on_c, 0, 77, 72
2, 54480, Note_on_c, 0, 77, 0
2, 54480, Note_on_c, 0, 75, 72
2, 54720, Note_on_c, 0, 75, 0
2, 54720, Note_on_c, 0, 75, 72
2, 54960, Note_on_c, 0, 75, 0
2, 54960, Note_on_c, 0, 74, 72
2, 55200, Note_on_c, 0, 74, 0
2, 55200, Note_on_c, 0, 72, 72
2, 55440, Note_on_c, 0, 72, 0
2, 55440, Note_on_c, 0, 74, 72
2, 55680, Note_on_c, 0, 74, 0
2, 55680, Note_on_c, 0, 77, 72
2, 55920, Note_on_c, 0, 77, 0
2, 55920, Note_on_c, 0, 75, 72
2, 56160, Note_on_c, 0, 75, 0
2, 56160, Note_on_c, 0, 74, 72
2, 56400, Note_on_c, 0, 74, 0
2, 56400, Note_on_c, 0, 72, 72
2, 56640, Note_on_c, 0, 72, 0
2, 56640, Note_on_c, 0, 70, 72
2, 56640, Note_on_c, 0, 68, 72
2, 56928, Note_on_c, 0, 68, 0
2, 56928, Note_on_c, 0, 70, 0
2, 57120, Note_on_c, 0, 70, 72
2, 57120, Note_on_c, 0, 68, 72
2, 57408, Note_on_c, 0, 68, 0
2, 57408, Note_on_c, 0, 70, 0
2, 57600, Note_on_c, 0, 70, 72
2, 59760, Note_on_c, 0, 70, 0
2, 59760, Note_on_c, 0, 72, 72
2, 60000, Note_on_c, 0, 72, 0
2, 60000, Note_on_c, 0, 74, 72
2, 60240, Note_on_c, 0, 74, 0
2, 60240, Note_on_c, 0, 75, 72
2, 60480, Note_on_c, 0, 75, 0
2, 60480, Note_on_c, 0, 77, 72
2, 60720, Note_on_c, 0, 77, 0
2, 60720, Note_on_c, 0, 78, 72
2, 60960, Note_on_c, 0, 78, 0
2, 60960, Note_on_c, 0, 80, 72
2, 61200, Note_on_c, 0, 80, 0
2, 61200, Note_on_c, 0, 77, 72
2, 61440, Note_on_c, 0, 77, 0
2, 61440, Note_on_c, 0, 78, 72
2, 61824, Note_on_c, 0, 78, 0
2, 61920, Note_on_c, 0, 82, 67
2, 62880, Note_on_c, 0, 82, 0
2, 62880, Note_on_c, 0, 82, 79
2, 63840, Note_on_c, 0, 82, 0
2, 63840, Note_on_c, 0, 87, 92
2, 64800, Note_on_c, 0, 87, 0
2, 64800, Note_on_c, 0, 81, 104
2, 65280, Note_on_c, 0, 81, 0
2, 65280, Note_on_c, 0, 82, 72
2, 66400, Note_on_c, 0, 82, 0
2, 66400, Note_on_c, 0, 81, 72
2, 66560, Note_on_c, 0, 81, 0
2, 66560, Note_on_c, 0, 82, 72
2, 66720, Note_on_c, 0, 82, 0
2, 66720, Note_on_c, 0, 84, 72
2, 66880, Note_on_c, 0, 84, 0
2, 66880, Note_on_c, 0, 82, 72
2, 67040, Note_on_c, 0, 82, 0
2, 67040, Note_on_c, 0, 81, 72
2, 67200, Note_on_c, 0, 81, 0
2, 67200, Note_on_c, 0, 82, 72
2, 68320, Note_on_c, 0, 82, 0
2, 68320, Note_on_c, 0, 81, 72
2, 68480, Note_on_c, 0, 81, 0
2, 68480, Note_on_c, 0, 82, 72
2, 68640, Note_on_c, 0, 82, 0
2, 68640, Note_on_c, 0, 84, 72
2, 68800, Note_on_c, 0, 84, 0
2, 68800, Note_on_c, 0, 82, 72
2, 68960, Note_on_c, 0, 82, 0
2, 68960, Note_on_c, 0, 81, 72
2, 69120, Note_on_c, 0, 81, 0
2, 69280, Note_on_c, 0, 82, 72
2, 69440, Note_on_c, 0, 82, 0
2, 69440, Note_on_c, 0, 84, 72
2, 69600, Note_on_c, 0, 84, 0
2, 69600, Note_on_c, 0, 86, 72
2, 69760, Note_on_c, 0, 86, 0
2, 69760, Note_on_c, 0, 84, 72
2, 69920, Note_on_c, 0, 84, 0
2, 69920, Note_on_c, 0, 82, 72
2, 70080, Note_on_c, 0, 82, 0
2, 70240, Note_on_c, 0, 86, 72
2, 70400, Note_on_c, 0, 86, 0
2, 70400, Note_on_c, 0, 87, 72
2, 70560, Note_on_c, 0, 87, 0
2, 70560, Note_on_c, 0, 89, 72
2, 70720, Note_on_c, 0, 89, 0
2, 70720, Note_on_c, 0, 87, 72
2, 70880, Note_on_c, 0, 87, 0
2, 70880, Note_on_c, 0, 86, 72
2, 71040, Note_on_c, 0, 86, 0
2, 71040, Note_on_c, 0, 89, 72
2, 71200, Note_on_c, 0, 89, 0
2, 71200, Note_on_c, 0, 87, 72
2, 71360, Note_on_c, 0, 87, 0
2, 71360, Note_on_c, 0, 86, 72
2, 71520, Note_on_c, 0, 86, 0
2, 71520, Note_on_c, 0, 84, 72
2, 71680, Note_on_c, 0, 84, 0
2, 71680, Note_on_c, 0, 82, 72
2, 71840, Note_on_c, 0, 82, 0
2, 71840, Note_on_c, 0, 80, 72
2, 72000, Note_on_c, 0, 80, 0
2, 72000, Note_on_c, 0, 79, 72
2, 72160, Note_on_c, 0, 79, 0
2, 72160, Note_on_c, 0, 77, 72
2, 72320, Note_on_c, 0, 77, 0
2, 72320, Note_on_c, 0, 75, 72
2, 72480, Note_on_c, 0, 75, 0
2, 72480, Note_on_c, 0, 74, 72
2, 72600, Note_on_c, 0, 74, 0
2, 72600, Note_on_c, 0, 72, 72
2, 72720, Note_on_c, 0, 72, 0
2, 72720, Note_on_c, 0, 70, 72
2, 72840, Note_on_c, 0, 70, 0
2, 72840, Note_on_c, 0, 68, 72
2, 72960, Note_on_c, 0, 68, 0
2, 72960, Note_on_c, 0, 67, 72
2, 73120, Note_on_c, 0, 67, 0
2, 73120, Note_on_c, 0, 63, 72
2, 73280, Note_on_c, 0, 63, 0
2, 73280, Note_on_c, 0, 65, 72
2, 73440, Note_on_c, 0, 65, 0
2, 73440, Note_on_c, 0, 67, 72
2, 73600, Note_on_c, 0, 67, 0
2, 73600, Note_on_c, 0, 65, 72
2, 73760, Note_on_c, 0, 65, 0
2, 73760, Note_on_c, 0, 63, 72
2, 73920, Note_on_c, 0, 63, 0
2, 73920, Note_on_c, 0, 68, 72
2, 74880, Note_on_c, 0, 68, 0
2, 74880, Note_on_c, 0, 67, 72
2, 75040, Note_on_c, 0, 67, 0
2, 75040, Note_on_c, 0, 75, 72
2, 75200, Note_on_c, 0, 75, 0
2, 75200, Note_on_c, 0, 77, 72
2, 75360, Note_on_c, 0, 77, 0
2, 75360, Note_on_c, 0, 79, 72
2, 75520, Note_on_c, 0, 79, 0
2, 75520, Note_on_c, 0, 77, 72
2, 75680, Note_on_c, 0, 77, 0
2, 75680, Note_on_c, 0, 75, 72
2, 75840, Note_on_c, 0, 75, 0
2, 75840, Note_on_c, 0, 80, 72
2, 76800, Note_on_c, 0, 80, 0
2, 76800, Note_on_c, 0, 79, 72
2, 76960, Note_on_c, 0, 79, 0
2, 76960, Note_on_c, 0, 75, 72
2, 77120, Note_on_c, 0, 75, 0
2, 77120, Note_on_c, 0, 77, 72
2, 77280, Note_on_c, 0, 77, 0
2, 77280, Note_on_c, 0, 79, 72
2, 77440, Note_on_c, 0, 79, 0
2, 77440, Note_on_c, 0, 77, 72
2, 77600, Note_on_c, 0, 77, 0
2, 77600, Note_on_c, 0, 75, 72
2, 77760, Note_on_c, 0, 75, 0
2, 77760, Note_on_c, 0, 82, 72
2, 77920, Note_on_c, 0, 82, 0
2, 77920, Note_on_c, 0, 79, 72
2, 78080, Note_on_c, 0, 79, 0
2, 78080, Note_on_c, 0, 80, 72
2, 78240, Note_on_c, 0, 80, 0
2, 78240, Note_on_c, 0, 82, 72
2, 78400, Note_on_c, 0, 82, 0
2, 78400, Note_on_c, 0, 80, 72
2, 78560, Note_on_c, 0, 80, 0
2, 78560, Note_on_c, 0, 79, 72
2, 78720, Note_on_c, 0, 79, 0
2, 78720, Note_on_c, 0, 85, 72
2, 78880, Note_on_c, 0, 85, 0
2, 78880, Note_on_c, 0, 84, 72
2, 79040, Note_on_c, 0, 84, 0
2, 79040, Note_on_c, 0, 82, 72
2, 79200, Note_on_c, 0, 82, 0
2, 79200, Note_on_c, 0, 80, 72
2, 79360, Note_on_c, 0, 80, 0
2, 79360, Note_on_c, 0, 79, 72
2, 79520, Note_on_c, 0, 79, 0
2, 79520, Note_on_c, 0, 77, 72
2, 79680, Note_on_c, 0, 77, 0
2, 79680, Note_on_c, 0, 75, 72
2, 79840, Note_on_c, 0, 75, 0
2, 79840, Note_on_c, 0, 74, 72
2, 80000, Note_on_c, 0, 74, 0
2, 80000, Note_on_c, 0, 75, 72
2, 80160, Note_on_c, 0, 75, 0
2, 80160, Note_on_c, 0, 76, 72
2, 80320, Note_on_c, 0, 76, 0
2, 80320, Note_on_c, 0, 77, 72
2, 80480, Note_on_c, 0, 77, 0
2, 80480, Note_on_c, 0, 73, 72
2, 80640, Note_on_c, 0, 73, 0
2, 81120, Note_on_c, 0, 60, 72
2, 81280, Note_on_c, 0, 60, 0
2, 81280, Note_on_c, 0, 63, 72
2, 81440, Note_on_c, 0, 63, 0
2, 81440, Note_on_c, 0, 68, 72
2, 81600, Note_on_c, 0, 68, 0
2, 81600, Note_on_c, 0, 72, 72
2, 81760, Note_on_c, 0, 72, 0
2, 81760, Note_on_c, 0, 75, 72
2, 81920, Note_on_c, 0, 75, 0
2, 81920, Note_on_c, 0, 80, 72
2, 82080, Note_on_c, 0, 80, 0
2, 82080, Note_on_c, 0, 84, 72
2, 82224, Note_on_c, 0, 84, 0
2, 82320, Note_on_c, 0, 84, 72
2, 82464, Note_on_c, 0, 84, 0
2, 82560, Note_on_c, 0, 84, 72
2, 82800, Note_on_c, 0, 84, 0
2, 82800, Note_on_c, 0, 82, 72
2, 82944, Note_on_c, 0, 82, 0
2, 83040, Note_on_c, 0, 80, 72
2, 83184, Note_on_c, 0, 80, 0
2, 83280, Note_on_c, 0, 79, 72
2, 83424, Note_on_c, 0, 79, 0
2, 83520, Note_on_c, 0, 79, 72
2, 83760, Note_on_c, 0, 79, 0
2, 83760, Note_on_c, 0, 77, 72
2, 83904, Note_on_c, 0, 77, 0
2, 84000, Note_on_c, 0, 75, 72
2, 84144, Note_on_c, 0, 75, 0
2, 84240, Note_on_c, 0, 74, 72
2, 84384, Note_on_c, 0, 74, 0
2, 84480, Note_on_c, 0, 75, 58
2, 84936, Note_on_c, 0, 75, 0
2, 85920, Note_on_c, 0, 58, 58
2, 86304, Note_on_c, 0, 58, 0
2, 86400, Note_on_c, 0, 65, 58
2, 86856, Note_on_c, 0, 65, 0
2, 86880, Note_on_c, 0, 65, 58
2, 87336, Note_on_c, 0, 65, 0
2, 87360, Note_on_c, 0, 65, 58
2, 87816, Note_on_c, 0, 65, 0
2, 87840, Note_on_c, 0, 65, 58
2, 88296, Note_on_c, 0, 65, 0
2, 88320, Note_on_c, 0, 70, 58
2, 89688, Note_on_c, 0, 70, 0
2, 89760, Note_on_c, 0, 70, 58
2, 90144, Note_on_c, 0, 70, 0
2, 90240, Note_on_c, 0, 68, 58
2, 90864, Note_on_c, 0, 68, 0
2, 91200, Note_on_c, 0, 69, 58
2, 91824, Note_on_c, 0, 69, 0
2, 92160, Note_on_c, 0, 70, 58
2, 93312, Note_on_c, 0, 70, 0
2, 93600, Note_on_c, 0, 70, 58
2, 93984, Note_on_c, 0, 70, 0
2, 94080, Note_on_c, 0, 77, 58
2, 94536, Note_on_c, 0, 77, 0
2, 94560, Note_on_c, 0, 77, 58
2, 95016, Note_on_c, 0, 77, 0
2, 95040, Note_on_c, 0, 77, 58
2, 95496, Note_on_c, 0, 77, 0
2, 95520, Note_on_c, 0, 77, 58
2, 95976, Note_on_c, 0, 77, 0
2, 96000, Note_on_c, 0, 82, 67
2, 97440, Note_on_c, 0, 82, 0
2, 97440, Note_on_c, 0, 83, 93
2, 97920, Note_on_c, 0, 83, 0
2, 97920, Note_on_c, 0, 84, 101
2, 98304, Note_on_c, 0, 84, 0
2, 98880, Note_on_c, 0, 74, 105
2, 99264, Note_on_c, 0, 74, 0
2, 99840, Note_on_c, 0, 67, 72
2, 99840, Note_on_c, 0, 75, 72
2, 100224, Note_on_c, 0, 75, 0
2, 100224, Note_on_c, 0, 67, 0
2, 100960, Note_on_c, 0, 70, 72
2, 101120, Note_on_c, 0, 70, 0
2, 101120, Note_on_c, 0, 72, 72
2, 101280, Note_on_c, 0, 72, 0
2, 101280, Note_on_c, 0, 74, 72
2, 101440, Note_on_c, 0, 74, 0
2, 101440, Note_on_c, 0, 72, 72
2, 101600, Note_on_c, 0, 72, 0
2, 101600, Note_on_c, 0, 70, 72
2, 101760, Note_on_c, 0, 70, 0
2, 101760, Note_on_c, 0, 75, 72
2, 102144, Note_on_c, 0, 75, 0
2, 102880, Note_on_c, 0, 70, 72
2, 103040, Note_on_c, 0, 70, 0
2, 103040, Note_on_c, 0, 72, 72
2, 103200, Note_on_c, 0, 72, 0
2, 103200, Note_on_c, 0, 74, 72
2, 103360, Note_on_c, 0, 74, 0
2, 103360, Note_on_c, 0, 72, 72
2, 103520, Note_on_c, 0, 72, 0
2, 103520, Note_on_c, 0, 70, 72
2, 103680, Note_on_c, 0, 70, 0
2, 103680, Note_on_c, 0, 75, 72
2, 103840, Note_on_c, 0, 75, 0
2, 103840, Note_on_c, 0, 79, 72
2, 104000, Note_on_c, 0, 79, 0
2, 104000, Note_on_c, 0, 77, 72
2, 104160, Note_on_c, 0, 77, 0
2, 104160, Note_on_c, 0, 75, 72
2, 104320, Note_on_c, 0, 75, 0
2, 104320, Note_on_c, 0, 74, 72
2, 104480, Note_on_c, 0, 74, 0
2, 104480, Note_on_c, 0, 72, 72
2, 104640, Note_on_c, 0, 72, 0
2, 104640, Note_on_c, 0, 71, 72
2, 104800, Note_on_c, 0, 71, 0
2, 104800, Note_on_c, 0, 72, 72
2, 104960, Note_on_c, 0, 72, 0
2, 104960, Note_on_c, 0, 70, 72
2, 105120, Note_on_c, 0, 70, 0
2, 105120, Note_on_c, 0, 68, 72
2, 105280, Note_on_c, 0, 68, 0
2, 105280, Note_on_c, 0, 67, 72
2, 105440, Note_on_c, 0, 67, 0
2, 105440, Note_on_c, 0, 65, 72
2, 105600, Note_on_c, 0, 65, 0
2, 105600, Note_on_c, 0, 63, 72
2, 105984, Note_on_c, 0, 63, 0
2, 106720, Note_on_c, 0, 58, 72
2, 106880, Note_on_c, 0, 58, 0
2, 106880, Note_on_c, 0, 60, 72
2, 107040, Note_on_c, 0, 60, 0
2, 107040, Note_on_c, 0, 62, 72
2, 107200, Note_on_c, 0, 62, 0
2, 107200, Note_on_c, 0, 60, 72
2, 107360, Note_on_c, 0, 60, 0
2, 107360, Note_on_c, 0, 58, 72
2, 107520, Note_on_c, 0, 58, 0
2, 107520, Note_on_c, 0, 63, 72
2, 107904, Note_on_c, 0, 63, 0
2, 108640, Note_on_c, 0, 58, 71
2, 108800, Note_on_c, 0, 58, 0
2, 108800, Note_on_c, 0, 60, 70
2, 108960, Note_on_c, 0, 60, 0
2, 108960, Note_on_c, 0, 62, 70
2, 109120, Note_on_c, 0, 62, 0
2, 109120, Note_on_c, 0, 60, 70
2, 109280, Note_on_c, 0, 60, 0
2, 109280, Note_on_c, 0, 58, 70
2, 109440, Note_on_c, 0, 58, 0
2, 109440, Note_on_c, 0, 63, 70
2, 109824, Note_on_c, 0, 63, 0
2, 110560, Note_on_c, 0, 59, 70
2, 110720, Note_on_c, 0, 59, 0
2, 110720, Note_on_c, 0, 60, 70
2, 110880, Note_on_c, 0, 60, 0
2, 110880, Note_on_c, 0, 62, 70
2, 111040, Note_on_c, 0, 62, 0
2, 111040, Note_on_c, 0, 60, 73
2, 111200, Note_on_c, 0, 60, 0
2, 111200, Note_on_c, 0, 59, 77
2, 111360, Note_on_c, 0, 59, 0
2, 111360, Note_on_c, 0, 65, 84
2, 111520, Note_on_c, 0, 65, 0
2, 111520, Note_on_c, 0, 63, 87
2, 111680, Note_on_c, 0, 63, 0
2, 111680, Note_on_c, 0, 62, 90
2, 111840, Note_on_c, 0, 62, 0
2, 111840, Note_on_c, 0, 68, 94
2, 112000, Note_on_c, 0, 68, 0
2, 112000, Note_on_c, 0, 67, 97
2, 112160, Note_on_c, 0, 67, 0
2, 112160, Note_on_c, 0, 65, 101
2, 112320, Note_on_c, 0, 65, 0
2, 112320, Note_on_c, 0, 74, 104
2, 112480, Note_on_c, 0, 74, 0
2, 112480, Note_on_c, 0, 72, 107
2, 112640, Note_on_c, 0, 72, 0
2, 112640, Note_on_c, 0, 71, 111
2, 112800, Note_on_c, 0, 71, 0
2, 112800, Note_on_c, 0, 77, 114
2, 112960, Note_on_c, 0, 77, 0
2, 112960, Note_on_c, 0, 75, 118
2, 113120, Note_on_c, 0, 75, 0
2, 113120, Note_on_c, 0, 74, 121
2, 113280, Note_on_c, 0, 74, 0
2, 113280, Note_on_c, 0, 89, 125
2, 114720, Note_on_c, 0, 89, 0
2, 114720, Note_on_c, 0, 87, 120
2, 114880, Note_on_c, 0, 87, 0
2, 114880, Note_on_c, 0, 86, 118
2, 115040, Note_on_c, 0, 86, 0
2, 115040, Note_on_c, 0, 84, 116
2, 115200, Note_on_c, 0, 84, 0
2, 115200, Note_on_c, 0, 83, 115
2, 115360, Note_on_c, 0, 83, 0
2, 115360, Note_on_c, 0, 80, 116
2, 115520, Note_on_c, 0, 80, 0
2, 115520, Note_on_c, 0, 79, 116
2, 115680, Note_on_c, 0, 79, 0
2, 115680, Note_on_c, 0, 77, 116
2, 115840, Note_on_c, 0, 77, 0
2, 115840, Note_on_c, 0, 75, 116
2, 116000, Note_on_c, 0, 75, 0
2, 116000, Note_on_c, 0, 74, 116
2, 116160, Note_on_c, 0, 74, 0
2, 116160, Note_on_c, 0, 72, 116
2, 116320, Note_on_c, 0, 72, 0
2, 116320, Note_on_c, 0, 71, 116
2, 116480, Note_on_c, 0, 71, 0
2, 116480, Note_on_c, 0, 68, 116
2, 116640, Note_on_c, 0, 68, 0
2, 116640, Note_on_c, 0, 67, 116
2, 116760, Note_on_c, 0, 67, 0
2, 116760, Note_on_c, 0, 65, 116
2, 116880, Note_on_c, 0, 65, 0
2, 116880, Note_on_c, 0, 63, 116
2, 116960, Note_on_c, 0, 63, 0
2, 116960, Note_on_c, 0, 62, 116
2, 117040, Note_on_c, 0, 62, 0
2, 117040, Note_on_c, 0, 60, 116
2, 117120, Note_on_c, 0, 60, 0
2, 117120, Note_on_c, 0, 59, 127
2, 119808, Note_on_c, 0, 59, 0
2, 120240, Note_on_c, 0, 67, 72
2, 120384, Note_on_c, 0, 67, 0
2, 120480, Note_on_c, 0, 72, 72
2, 120624, Note_on_c, 0, 72, 0
2, 120720, Note_on_c, 0, 74, 72
2, 120864, Note_on_c, 0, 74, 0
2, 120960, Note_on_c, 0, 75, 72
2, 121680, Note_on_c, 0, 75, 0
2, 121680, Note_on_c, 0, 77, 72
2, 121920, Note_on_c, 0, 77, 0
2, 121920, Note_on_c, 0, 74, 72
2, 122640, Note_on_c, 0, 74, 0
2, 122640, Note_on_c, 0, 75, 72
2, 122880, Note_on_c, 0, 75, 0
2, 122880, Note_on_c, 0, 72, 72
2, 123648, Note_on_c, 0, 72, 0
2, 123840, Note_on_c, 0, 74, 72
2, 123900, Note_on_c, 0, 74, 0
2, 123900, Note_on_c, 0, 72, 72
2, 124080, Note_on_c, 0, 72, 0
2, 124080, Note_on_c, 0, 71, 72
2, 124320, Note_on_c, 0, 71, 0
2, 124320, Note_on_c, 0, 72, 72
2, 124560, Note_on_c, 0, 72, 0
2, 124560, Note_on_c, 0, 74, 72
2, 124800, Note_on_c, 0, 74, 0
2, 124800, Note_on_c, 0, 77, 72
2, 124860, Note_on_c, 0, 77, 0
2, 124860, Note_on_c, 0, 75, 72
2, 125040, Note_on_c, 0, 75, 0
2, 125040, Note_on_c, 0, 74, 72
2, 125280, Note_on_c, 0, 74, 0
2, 125280, Note_on_c, 0, 75, 72
2, 125520, Note_on_c, 0, 75, 0
2, 125520, Note_on_c, 0, 77, 72
2, 125760, Note_on_c, 0, 77, 0
2, 125760, Note_on_c, 0, 79, 72
2, 126048, Note_on_c, 0, 79, 0
2, 126240, Note_on_c, 0, 79, 72
2, 126528, Note_on_c, 0, 79, 0
2, 126720, Note_on_c, 0, 79, 72
2, 127872, Note_on_c, 0, 79, 0
2, 128160, Note_on_c, 0, 77, 72
2, 128400, Note_on_c, 0, 77, 0
2, 128400, Note_on_c, 0, 79, 72
2, 128640, Note_on_c, 0, 79, 0
2, 128640, Note_on_c, 0, 77, 72
2, 128700, Note_on_c, 0, 77, 0
2, 128700, Note_on_c, 0, 79, 72
2, 128760, Note_on_c, 0, 79, 0
2, 128760, Note_on_c, 0, 80, 92
2, 129600, Note_on_c, 0, 80, 0
2, 129600, Note_on_c, 0, 74, 72
2, 129888, Note_on_c, 0, 74, 0
2, 130080, Note_on_c, 0, 75, 72
2, 130320, Note_on_c, 0, 75, 0
2, 130320, Note_on_c, 0, 77, 72
2, 130560, Note_on_c, 0, 77, 0
2, 130560, Note_on_c, 0, 75, 72
2, 130620, Note_on_c, 0, 75, 0
2, 130620, Note_on_c, 0, 77, 72
2, 130680, Note_on_c, 0, 77, 0
2, 130680, Note_on_c, 0, 79, 92
2, 131520, Note_on_c, 0, 79, 0
2, 131520, Note_on_c, 0, 72, 72
2, 131808, Note_on_c, 0, 72, 0
2, 132000, Note_on_c, 0, 72, 72
2, 132240, Note_on_c, 0, 72, 0
2, 132240, Note_on_c, 0, 74, 72
2, 132480, Note_on_c, 0, 74, 0
2, 132480, Note_on_c, 0, 75, 72
2, 132768, Note_on_c, 0, 75, 0
2, 132960, Note_on_c, 0, 75, 72
2, 133200, Note_on_c, 0, 75, 0
2, 133200, Note_on_c, 0, 77, 72
2, 133440, Note_on_c, 0, 77, 0
2, 133440, Note_on_c, 0, 74, 72
2, 133728, Note_on_c, 0, 74, 0
2, 133920, Note_on_c, 0, 74, 72
2, 134160, Note_on_c, 0, 74, 0
2, 134160, Note_on_c, 0, 75, 72
2, 134400, Note_on_c, 0, 75, 0
2, 134400, Note_on_c, 0, 72, 72
2, 134784, Note_on_c, 0, 72, 0
2, 135840, Note_on_c, 0, 77, 72
2, 136080, Note_on_c, 0, 77, 0
2, 136080, Note_on_c, 0, 79, 72
2, 136320, Note_on_c, 0, 79, 0
2, 136320, Note_on_c, 0, 80, 72
2, 136320, Note_on_c, 0, 68, 72
2, 137280, Note_on_c, 0, 68, 0
2, 137280, Note_on_c, 0, 80, 0
2, 137280, Note_on_c, 0, 74, 72
2, 137568, Note_on_c, 0, 74, 0
2, 137760, Note_on_c, 0, 75, 72
2, 138000, Note_on_c, 0, 75, 0
2, 138000, Note_on_c, 0, 77, 72
2, 138240, Note_on_c, 0, 77, 0
2, 138240, Note_on_c, 0, 79, 72
2, 138240, Note_on_c, 0, 67, 72
2, 139200, Note_on_c, 0, 67, 0
2, 139200, Note_on_c, 0, 79, 0
2, 139200, Note_on_c, 0, 72, 72
2, 139488, Note_on_c, 0, 72, 0
2, 139680, Note_on_c, 0, 72, 72
2, 139920, Note_on_c, 0, 72, 0
2, 139920, Note_on_c, 0, 74, 72
2, 140160, Note_on_c, 0, 74, 0
2, 140160, Note_on_c, 0, 75, 72
2, 140448, Note_on_c, 0, 75, 0
2, 140640, Note_on_c, 0, 75, 72
2, 140880, Note_on_c, 0, 75, 0
2, 140880, Note_on_c, 0, 77, 72
2, 141120, Note_on_c, 0, 77, 0
2, 141120, Note_on_c, 0, 74, 72
2, 141408, Note_on_c, 0, 74, 0
2, 141600, Note_on_c, 0, 74, 72
2, 141840, Note_on_c, 0, 74, 0
2, 141840, Note_on_c, 0, 75, 72
2, 142080, Note_on_c, 0, 75, 0
2, 142080, Note_on_c, 0, 72, 72
2, 142368, Note_on_c, 0, 72, 0
2, 142560, Note_on_c, 0, 82, 71
2, 143328, Note_on_c, 0, 82, 0
2, 143520, Note_on_c, 0, 82, 75
2, 144240, Note_on_c, 0, 82, 0
2, 144240, Note_on_c, 0, 80, 79
2, 144480, Note_on_c, 0, 80, 0
2, 144480, Note_on_c, 0, 79, 80
2, 144720, Note_on_c, 0, 79, 0
2, 144720, Note_on_c, 0, 77, 82
2, 144960, Note_on_c, 0, 77, 0
2, 144960, Note_on_c, 0, 75, 83
2, 145200, Note_on_c, 0, 75, 0
2, 145200, Note_on_c, 0, 74, 85
2, 145440, Note_on_c, 0, 74, 0
2, 145440, Note_on_c, 0, 72, 86
2, 145680, Note_on_c, 0, 72, 0
2, 145680, Note_on_c, 0, 71, 87
2, 145920, Note_on_c, 0, 71, 0
2, 145920, Note_on_c, 0, 72, 89
2, 146208, Note_on_c, 0, 72, 0
2, 146400, Note_on_c, 0, 72, 92
2, 146400, Note_on_c, 0, 84, 92
2, 147168, Note_on_c, 0, 84, 0
2, 147168, Note_on_c, 0, 72, 0
2, 147360, Note_on_c, 0, 82, 97
2, 148080, Note_on_c, 0, 82, 0
2, 148080, Note_on_c, 0, 80, 101
2, 148320, Note_on_c, 0, 80, 0
2, 148320, Note_on_c, 0, 79, 103
2, 148560, Note_on_c, 0, 79, 0
2, 148560, Note_on_c, 0, 77, 104
2, 148800, Note_on_c, 0, 77, 0
2, 148800, Note_on_c, 0, 75, 105
2, 149040, Note_on_c, 0, 75, 0
2, 149040, Note_on_c, 0, 74, 107
2, 149280, Note_on_c, 0, 74, 0
2, 149280, Note_on_c, 0, 72, 108
2, 149520, Note_on_c, 0, 72, 0
2, 149520, Note_on_c, 0, 71, 110
2, 149760, Note_on_c, 0, 71, 0
2, 149760, Note_on_c, 0, 72, 111
2, 150048, Note_on_c, 0, 72, 0
2, 150240, Note_on_c, 0, 75, 115
2, 150300, Note_on_c, 0, 75, 0
2, 150300, Note_on_c, 0, 74, 115
2, 150360, Note_on_c, 0, 74, 0
2, 150360, Note_on_c, 0, 75, 115
2, 150420, Note_on_c, 0, 75, 0
2, 150420, Note_on_c, 0, 74, 115
2, 150480, Note_on_c, 0, 74, 0
2, 150480, Note_on_c, 0, 72, 115
2, 150600, Note_on_c, 0, 72, 0
2, 150600, Note_on_c, 0, 74, 115
2, 150720, Note_on_c, 0, 74, 0
2, 150720, Note_on_c, 0, 75, 115
2, 151104, Note_on_c, 0, 75, 0
2, 151200, Note_on_c, 0, 74, 115
2, 151200, Note_on_c, 0, 71, 115
2, 151200, Note_on_c, 0, 83, 115
2, 151488, Note_on_c, 0, 83, 0
2, 151488, Note_on_c, 0, 71, 0
2, 151488, Note_on_c, 0, 74, 0
2, 151680, Note_on_c, 0, 72, 115
2, 151680, Note_on_c, 0, 75, 115
2, 151680, Note_on_c, 0, 84, 115
2, 151968, Note_on_c, 0, 84, 0
2, 151968, Note_on_c, 0, 75, 0
2, 151968, Note_on_c, 0, 72, 0
2, 153600, Note_on_c, 0, 60, 72
2, 154560, Note_on_c, 0, 60, 0
2, 154560, Note_on_c, 0, 65, 72
2, 155520, Note_on_c, 0, 65, 0
2, 155520, Note_on_c, 0, 58, 72
2, 156480, Note_on_c, 0, 58, 0
2, 156480, Note_on_c, 0, 63, 72
2, 157440, Note_on_c, 0, 63, 0
2, 157440, Note_on_c, 0, 56, 72
2, 158400, Note_on_c, 0, 56, 0
2, 158400, Note_on_c, 0, 61, 72
2, 158880, Note_on_c, 0, 61, 0
2, 158880, Note_on_c, 0, 60, 72
2, 159360, Note_on_c, 0, 60, 0
2, 159360, Note_on_c, 0, 58, 72
2, 159840, Note_on_c, 0, 58, 0
2, 159840, Note_on_c, 0, 56, 72
2, 160320, Note_on_c, 0, 56, 0
2, 160320, Note_on_c, 0, 55, 72
2, 160800, Note_on_c, 0, 55, 0
2, 161760, Note_on_c, 0, 72, 72
2, 162720, Note_on_c, 0, 72, 0
2, 162720, Note_on_c, 0, 65, 72
2, 163680, Note_on_c, 0, 65, 0
2, 163680, Note_on_c, 0, 70, 72
2, 164640, Note_on_c, 0, 70, 0
2, 164640, Note_on_c, 0, 63, 72
2, 165600, Note_on_c, 0, 63, 0
2, 165600, Note_on_c, 0, 68, 72
2, 166080, Note_on_c, 0, 68, 0
2, 166080, Note_on_c, 0, 67, 72
2, 166560, Note_on_c, 0, 67, 0
2, 166560, Note_on_c, 0, 65, 72
2, 167040, Note_on_c, 0, 65, 0
2, 167040, Note_on_c, 0, 63, 72
2, 167520, Note_on_c, 0, 63, 0
2, 167520, Note_on_c, 0, 62, 72
2, 168000, Note_on_c, 0, 62, 0
2, 168000, Note_on_c, 0, 65, 72
2, 168480, Note_on_c, 0, 65, 0
2, 168480, Note_on_c, 0, 63, 72
2, 168960, Note_on_c, 0, 63, 0
2, 168960, Note_on_c, 0, 72, 72
2, 169920, Note_on_c, 0, 72, 0
2, 169920, Note_on_c, 0, 65, 72
2, 169920, Note_on_c, 0, 77, 72
2, 170880, Note_on_c, 0, 77, 0
2, 170880, Note_on_c, 0, 65, 0
2, 170880, Note_on_c, 0, 70, 72
2, 171840, Note_on_c, 0, 70, 0
2, 171840, Note_on_c, 0, 75, 72
2, 172800, Note_on_c, 0, 75, 0
2, 172800, Note_on_c, 0, 68, 72
2, 173760, Note_on_c, 0, 68, 0
2, 173760, Note_on_c, 0, 73, 72
2, 174240, Note_on_c, 0, 73, 0
2, 174240, Note_on_c, 0, 72, 72
2, 174720, Note_on_c, 0, 72, 0
2, 174720, Note_on_c, 0, 70, 72
2, 175200, Note_on_c, 0, 70, 0
2, 175200, Note_on_c, 0, 68, 72
2, 175680, Note_on_c, 0, 68, 0
2, 175680, Note_on_c, 0, 67, 72
2, 176160, Note_on_c, 0, 67, 0
2, 176160, Note_on_c, 0, 63, 72
2, 176544, Note_on_c, 0, 63, 0
2, 177120, Note_on_c, 0, 84, 72
2, 177120, Note_on_c, 0, 72, 72
2, 178080, Note_on_c, 0, 72, 0
2, 178080, Note_on_c, 0, 84, 0
2, 178080, Note_on_c, 0, 77, 72
2, 179040, Note_on_c, 0, 77, 0
2, 179040, Note_on_c, 0, 82, 72
2, 179040, Note_on_c, 0, 70, 72
2, 180000, Note_on_c, 0, 70, 0
2, 180000, Note_on_c, 0, 82, 0
2, 180000, Note_on_c, 0, 75, 72
2, 180960, Note_on_c, 0, 75, 0
2, 180960, Note_on_c, 0, 80, 72
2, 181440, Note_on_c, 0, 80, 0
2, 181440, Note_on_c, 0, 79, 72
2, 181920, Note_on_c, 0, 79, 0
2, 181920, Note_on_c, 0, 77, 72
2, 182400, Note_on_c, 0, 77, 0
2, 182400, Note_on_c, 0, 75, 72
2, 182880, Note_on_c, 0, 75, 0
2, 182880, Note_on_c, 0, 74, 72
2, 183360, Note_on_c, 0, 74, 0
2, 183360, Note_on_c, 0, 77, 72
2, 183840, Note_on_c, 0, 77, 0
2, 183840, Note_on_c, 0, 75, 72
2, 184224, Note_on_c, 0, 75, 0
2, 185760, Note_on_c, 0, 75, 72
2, 186240, Note_on_c, 0, 75, 0
2, 186240, Note_on_c, 0, 72, 72
2, 186720, Note_on_c, 0, 72, 0
2, 186720, Note_on_c, 0, 73, 72
2, 187200, Note_on_c, 0, 73, 0
2, 187200, Note_on_c, 0, 77, 72
2, 187680, Note_on_c, 0, 77, 0
2, 187680, Note_on_c, 0, 67, 72
2, 188160, Note_on_c, 0, 67, 0
2, 188160, Note_on_c, 0, 70, 72
2, 188640, Note_on_c, 0, 70, 0
2, 188640, Note_on_c, 0, 68, 72
2, 189120, Note_on_c, 0, 68, 0
2, 189120, Note_on_c, 0, 72, 72
2, 189600, Note_on_c, 0, 72, 0
2, 189600, Note_on_c, 0, 62, 72
2, 190080, Note_on_c, 0, 62, 0
2, 190080, Note_on_c, 0, 63, 72
2, 190368, Note_on_c, 0, 63, 0
2, 190560, Note_on_c, 0, 82, 72
2, 190944, Note_on_c, 0, 82, 0
2, 191040, Note_on_c, 0, 87, 72
2, 191424, Note_on_c, 0, 87, 0
2, 191520, Note_on_c, 0, 85, 72
2, 191904, Note_on_c, 0, 85, 0
2, 192000, Note_on_c, 0, 84, 72
2, 192960, Note_on_c, 0, 84, 0
2, 192960, Note_on_c, 0, 89, 72
2, 193920, Note_on_c, 0, 89, 0
2, 193920, Note_on_c, 0, 82, 72
2, 194880, Note_on_c, 0, 82, 0
2, 194880, Note_on_c, 0, 87, 72
2, 195840, Note_on_c, 0, 87, 0
2, 195840, Note_on_c, 0, 80, 72
2, 196800, Note_on_c, 0, 80, 0
2, 196800, Note_on_c, 0, 73, 71
2, 196800, Note_on_c, 0, 85, 71
2, 197088, Note_on_c, 0, 85, 0
2, 197088, Note_on_c, 0, 73, 0
2, 197280, Note_on_c, 0, 84, 76
2, 197280, Note_on_c, 0, 72, 76
2, 197568, Note_on_c, 0, 72, 0
2, 197568, Note_on_c, 0, 84, 0
2, 197760, Note_on_c, 0, 70, 81
2, 197760, Note_on_c, 0, 82, 81
2, 198048, Note_on_c, 0, 82, 0
2, 198048, Note_on_c, 0, 70, 0
2, 198240, Note_on_c, 0, 80, 87
2, 198240, Note_on_c, 0, 68, 87
2, 198528, Note_on_c, 0, 68, 0
2, 198528, Note_on_c, 0, 80, 0
2, 198720, Note_on_c, 0, 67, 92
2, 198720, Note_on_c, 0, 79, 92
2, 199008, Note_on_c, 0, 79, 0
2, 199008, Note_on_c, 0, 67, 0
2, 199200, Note_on_c, 0, 73, 98
2, 199488, Note_on_c, 0, 73, 0
2, 199680, Note_on_c, 0, 84, 103
2, 199872, Note_on_c, 0, 84, 0
2, 199920, Note_on_c, 0, 82, 105
2, 200112, Note_on_c, 0, 82, 0
2, 200160, Note_on_c, 0, 80, 105
2, 200352, Note_on_c, 0, 80, 0
2, 200400, Note_on_c, 0, 79, 105
2, 200592, Note_on_c, 0, 79, 0
2, 200640, Note_on_c, 0, 77, 105
2, 200832, Note_on_c, 0, 77, 0
2, 200880, Note_on_c, 0, 75, 105
2, 201072, Note_on_c, 0, 75, 0
2, 201120, Note_on_c, 0, 73, 105
2, 201312, Note_on_c, 0, 73, 0
2, 201360, Note_on_c, 0, 72, 105
2, 201552, Note_on_c, 0, 72, 0
2, 201600, Note_on_c, 0, 70, 105
2, 201792, Note_on_c, 0, 70, 0
2, 201840, Note_on_c, 0, 68, 105
2, 202032, Note_on_c, 0, 68, 0
2, 202080, Note_on_c, 0, 67, 105
2, 202272, Note_on_c, 0, 67, 0
2, 202320, Note_on_c, 0, 65, 105
2, 202512, Note_on_c, 0, 65, 0
2, 202560, Note_on_c, 0, 64, 105
2, 202752, Note_on_c, 0, 64, 0
2, 202800, Note_on_c, 0, 61, 105
2, 202992, Note_on_c, 0, 61, 0
2, 203040, Note_on_c, 0, 60, 105
2, 203232, Note_on_c, 0, 60, 0
2, 203280, Note_on_c, 0, 58, 105
2, 203472, Note_on_c, 0, 58, 0
2, 211320, Note_on_c, 0, 55, 72
2, 211440, Note_on_c, 0, 55, 0
2, 211440, Note_on_c, 0, 59, 72
2, 211560, Note_on_c, 0, 59, 0
2, 211560, Note_on_c, 0, 62, 72
2, 211680, Note_on_c, 0, 62, 0
2, 211680, Note_on_c, 0, 67, 72
2, 211968, Note_on_c, 0, 67, 0
2, 212280, Note_on_c, 0, 55, 81
2, 212400, Note_on_c, 0, 55, 0
2, 212400, Note_on_c, 0, 60, 81
2, 212520, Note_on_c, 0, 60, 0
2, 212520, Note_on_c, 0, 63, 81
2, 212640, Note_on_c, 0, 63, 0
2, 212640, Note_on_c, 0, 67, 81
2, 212928, Note_on_c, 0, 67, 0
2, 213240, Note_on_c, 0, 55, 92
2, 213360, Note_on_c, 0, 55, 0
2, 213360, Note_on_c, 0, 62, 92
2, 213480, Note_on_c, 0, 62, 0
2, 213480, Note_on_c, 0, 65, 92
2, 213600, Note_on_c, 0, 65, 0
2, 213600, Note_on_c, 0, 67, 92
2, 213888, Note_on_c, 0, 67, 0
2, 214200, Note_on_c, 0, 55, 105
2, 214320, Note_on_c, 0, 55, 0
2, 214320, Note_on_c, 0, 60, 105
2, 214440, Note_on_c, 0, 60, 0
2, 214440, Note_on_c, 0, 63, 105
2, 214560, Note_on_c, 0, 63, 0
2, 214560, Note_on_c, 0, 67, 105
2, 214848, Note_on_c, 0, 67, 0
2, 215160, Note_on_c, 0, 67, 116
2, 215280, Note_on_c, 0, 67, 0
2, 215280, Note_on_c, 0, 71, 116
2, 215400, Note_on_c, 0, 71, 0
2, 215400, Note_on_c, 0, 74, 116
2, 215520, Note_on_c, 0, 74, 0
2, 215520, Note_on_c, 0, 79, 116
2, 215808, Note_on_c, 0, 79, 0
2, 216120, Note_on_c, 0, 67, 116
2, 216240, Note_on_c, 0, 67, 0
2, 216240, Note_on_c, 0, 72, 116
2, 216360, Note_on_c, 0, 72, 0
2, 216360, Note_on_c, 0, 75, 116
2, 216480, Note_on_c, 0, 75, 0
2, 216480, Note_on_c, 0, 79, 116
2, 216768, Note_on_c, 0, 79, 0
2, 217080, Note_on_c, 0, 67, 116
2, 217200, Note_on_c, 0, 67, 0
2, 217200, Note_on_c, 0, 74, 116
2, 217320, Note_on_c, 0, 74, 0
2, 217320, Note_on_c, 0, 77, 116
2, 217440, Note_on_c, 0, 77, 0
2, 217440, Note_on_c, 0, 79, 116
2, 217728, Note_on_c, 0, 79, 0
2, 218040, Note_on_c, 0, 67, 116
2, 218160, Note_on_c, 0, 67, 0
2, 218160, Note_on_c, 0, 72, 116
2, 218280, Note_on_c, 0, 72, 0
2, 218280, Note_on_c, 0, 75, 116
2, 218400, Note_on_c, 0, 75, 0
2, 218400, Note_on_c, 0, 79, 116
2, 218688, Note_on_c, 0, 79, 0
2, 219040, Note_on_c, 0, 67, 105
2, 219200, Note_on_c, 0, 67, 0
2, 219200, Note_on_c, 0, 66, 105
2, 219360, Note_on_c, 0, 66, 0
2, 219360, Note_on_c, 0, 67, 105
2, 219520, Note_on_c, 0, 67, 0
2, 219520, Note_on_c, 0, 71, 105
2, 219680, Note_on_c, 0, 71, 0
2, 219680, Note_on_c, 0, 74, 105
2, 219840, Note_on_c, 0, 74, 0
2, 219840, Note_on_c, 0, 79, 125
2, 220000, Note_on_c, 0, 79, 0
2, 220000, Note_on_c, 0, 74, 105
2, 220160, Note_on_c, 0, 74, 0
2, 220160, Note_on_c, 0, 71, 105
2, 220320, Note_on_c, 0, 71, 0
2, 220320, Note_on_c, 0, 67, 105
2, 220608, Note_on_c, 0, 67, 0
2, 220960, Note_on_c, 0, 71, 105
2, 221120, Note_on_c, 0, 71, 0
2, 221120, Note_on_c, 0, 70, 105
2, 221280, Note_on_c, 0, 70, 0
2, 221280, Note_on_c, 0, 71, 105
2, 221440, Note_on_c, 0, 71, 0
2, 221440, Note_on_c, 0, 74, 105
2, 221600, Note_on_c, 0, 74, 0
2, 221600, Note_on_c, 0, 79, 105
2, 221760, Note_on_c, 0, 79, 0
2, 221760, Note_on_c, 0, 83, 125
2, 221920, Note_on_c, 0, 83, 0
2, 221920, Note_on_c, 0, 79, 105
2, 222080, Note_on_c, 0, 79, 0
2, 222080, Note_on_c, 0, 74, 105
2, 222240, Note_on_c, 0, 74, 0
2, 222240, Note_on_c, 0, 71, 105
2, 222528, Note_on_c, 0, 71, 0
2, 222880, Note_on_c, 0, 74, 105
2, 223040, Note_on_c, 0, 74, 0
2, 223040, Note_on_c, 0, 73, 105
2, 223200, Note_on_c, 0, 73, 0
2, 223200, Note_on_c, 0, 74, 105
2, 223360, Note_on_c, 0, 74, 0
2, 223360, Note_on_c, 0, 77, 105
2, 223520, Note_on_c, 0, 77, 0
2, 223520, Note_on_c, 0, 83, 105
2, 223680, Note_on_c, 0, 83, 0
2, 223680, Note_on_c, 0, 86, 125
2, 223840, Note_on_c, 0, 86, 0
2, 223840, Note_on_c, 0, 83, 105
2, 224000, Note_on_c, 0, 83, 0
2, 224000, Note_on_c, 0, 77, 105
2, 224160, Note_on_c, 0, 77, 0
2, 224160, Note_on_c, 0, 74, 105
2, 224448, Note_on_c, 0, 74, 0
2, 224800, Note_on_c, 0, 77, 105
2, 224960, Note_on_c, 0, 77, 0
2, 224960, Note_on_c, 0, 76, 105
2, 225120, Note_on_c, 0, 76, 0
2, 225120, Note_on_c, 0, 77, 107
2, 225280, Note_on_c, 0, 77, 0
2, 225280, Note_on_c, 0, 83, 109
2, 225440, Note_on_c, 0, 83, 0
2, 225440, Note_on_c, 0, 86, 111
2, 225600, Note_on_c, 0, 86, 0
2, 225600, Note_on_c, 0, 89, 112
2, 225760, Note_on_c, 0, 89, 0
2, 225760, Note_on_c, 0, 86, 114
2, 225920, Note_on_c, 0, 86, 0
2, 225920, Note_on_c, 0, 83, 116
2, 226080, Note_on_c, 0, 83, 0
2, 226080, Note_on_c, 0, 89, 118
2, 226240, Note_on_c, 0, 89, 0
2, 226240, Note_on_c, 0, 86, 120
2, 226400, Note_on_c, 0, 86, 0
2, 226400, Note_on_c, 0, 83, 122
2, 226560, Note_on_c, 0, 83, 0
2, 226560, Note_on_c, 0, 89, 127
2, 228000, Note_on_c, 0, 89, 0
2, 228000, Note_on_c, 0, 87, 122
2, 228160, Note_on_c, 0, 87, 0
2, 228160, Note_on_c, 0, 86, 120
2, 228320, Note_on_c, 0, 86, 0
2, 228320, Note_on_c, 0, 84, 118
2, 228480, Note_on_c, 0, 84, 0
2, 228480, Note_on_c, 0, 83, 116
2, 228640, Note_on_c, 0, 83, 0
2, 228640, Note_on_c, 0, 80, 116
2, 228800, Note_on_c, 0, 80, 0
2, 228800, Note_on_c, 0, 79, 116
2, 228960, Note_on_c, 0, 79, 0
2, 228960, Note_on_c, 0, 77, 116
2, 229120, Note_on_c, 0, 77, 0
2, 229120, Note_on_c, 0, 75, 116
2, 229280, Note_on_c, 0, 75, 0
2, 229280, Note_on_c, 0, 74, 116
2, 229440, Note_on_c, 0, 74, 0
2, 229440, Note_on_c, 0, 72, 116
2, 229600, Note_on_c, 0, 72, 0
2, 229600, Note_on_c, 0, 71, 116
2, 229760, Note_on_c, 0, 71, 0
2, 229760, Note_on_c, 0, 68, 116
2, 229920, Note_on_c, 0, 68, 0
2, 229920, Note_on_c, 0, 67, 116
2, 230040, Note_on_c, 0, 67, 0
2, 230040, Note_on_c, 0, 65, 116
2, 230160, Note_on_c, 0, 65, 0
2, 230160, Note_on_c, 0, 63, 116
2, 230240, Note_on_c, 0, 63, 0
2, 230240, Note_on_c, 0, 62, 116
2, 230320, Note_on_c, 0, 62, 0
2, 230320, Note_on_c, 0, 60, 116
2, 230400, Note_on_c, 0, 60, 0
2, 230400, Note_on_c, 0, 59, 127
2, 233088, Note_on_c, 0, 59, 0
2, 233520, Note_on_c, 0, 67, 72
2, 233664, Note_on_c, 0, 67, 0
2, 233760, Note_on_c, 0, 72, 72
2, 233904, Note_on_c, 0, 72, 0
2, 234000, Note_on_c, 0, 74, 72
2, 234144, Note_on_c, 0, 74, 0
2, 234240, Note_on_c, 0, 75, 72
2, 234960, Note_on_c, 0, 75, 0
2, 234960, Note_on_c, 0, 77, 72
2, 235200, Note_on_c, 0, 77, 0
2, 235200, Note_on_c, 0, 74, 72
2, 235920, Note_on_c, 0, 74, 0
2, 235920, Note_on_c, 0, 75, 72
2, 236160, Note_on_c, 0, 75, 0
2, 236160, Note_on_c, 0, 72, 72
2, 236928, Note_on_c, 0, 72, 0
2, 237120, Note_on_c, 0, 74, 72
2, 237180, Note_on_c, 0, 74, 0
2, 237180, Note_on_c, 0, 72, 72
2, 237360, Note_on_c, 0, 72, 0
2, 237360, Note_on_c, 0, 71, 72
2, 237600, Note_on_c, 0, 71, 0
2, 237600, Note_on_c, 0, 72, 72
2, 237840, Note_on_c, 0, 72, 0
2, 237840, Note_on_c, 0, 74, 72
2, 238080, Note_on_c, 0, 74, 0
2, 238080, Note_on_c, 0, 77, 72
2, 238140, Note_on_c, 0, 77, 0
2, 238140, Note_on_c, 0, 75, 72
2, 238320, Note_on_c, 0, 75, 0
2, 238320, Note_on_c, 0, 74, 72
2, 238560, Note_on_c, 0, 74, 0
2, 238560, Note_on_c, 0, 75, 72
2, 238800, Note_on_c, 0, 75, 0
2, 238800, Note_on_c, 0, 77, 72
2, 239040, Note_on_c, 0, 77, 0
2, 239040, Note_on_c, 0, 79, 72
2, 239328, Note_on_c, 0, 79, 0
2, 239520, Note_on_c, 0, 79, 72
2, 239808, Note_on_c, 0, 79, 0
2, 240000, Note_on_c, 0, 79, 72
2, 241152, Note_on_c, 0, 79, 0
2, 241440, Note_on_c, 0, 77, 72
2, 241680, Note_on_c, 0, 77, 0
2, 241680, Note_on_c, 0, 79, 72
2, 241920, Note_on_c, 0, 79, 0
2, 241920, Note_on_c, 0, 77, 72
2, 241980, Note_on_c, 0, 77, 0
2, 241980, Note_on_c, 0, 79, 72
2, 242040, Note_on_c, 0, 79, 0
2, 242040, Note_on_c, 0, 80, 92
2, 242880, Note_on_c, 0, 80, 0
2, 242880, Note_on_c, 0, 74, 72
2, 243168, Note_on_c, 0, 74, 0
2, 243360, Note_on_c, 0, 75, 72
2, 243600, Note_on_c, 0, 75, 0
2, 243600, Note_on_c, 0, 77, 72
2, 243840, Note_on_c, 0, 77, 0
2, 243840, Note_on_c, 0, 75, 72
2, 243900, Note_on_c, 0, 75, 0
2, 243900, Note_on_c, 0, 77, 72
2, 243960, Note_on_c, 0, 77, 0
2, 243960, Note_on_c, 0, 79, 92
2, 244800, Note_on_c, 0, 79, 0
2, 244800, Note_on_c, 0, 72, 72
2, 245088, Note_on_c, 0, 72, 0
2, 245280, Note_on_c, 0, 72, 72
2, 245520, Note_on_c, 0, 72, 0
2, 245520, Note_on_c, 0, 74, 72
2, 245760, Note_on_c, 0, 74, 0
2, 245760, Note_on_c, 0, 75, 72
2, 246048, Note_on_c, 0, 75, 0
2, 246240, Note_on_c, 0, 75, 72
2, 246480, Note_on_c, 0, 75, 0
2, 246480, Note_on_c, 0, 77, 72
2, 246720, Note_on_c, 0, 77, 0
2, 246720, Note_on_c, 0, 74, 72
2, 247008, Note_on_c, 0, 74, 0
2, 247200, Note_on_c, 0, 74, 72
2, 247440, Note_on_c, 0, 74, 0
2, 247440, Note_on_c, 0, 75, 72
2, 247680, Note_on_c, 0, 75, 0
2, 247680, Note_on_c, 0, 72, 58
2, 247968, Note_on_c, 0, 72, 0
2, 255600, Note_on_c, 0, 65, 72
2, 255840, Note_on_c, 0, 65, 0
2, 255840, Note_on_c, 0, 68, 72
2, 256080, Note_on_c, 0, 68, 0
2, 256080, Note_on_c, 0, 72, 72
2, 256320, Note_on_c, 0, 72, 0
2, 256320, Note_on_c, 0, 77, 72
2, 256560, Note_on_c, 0, 77, 0
2, 256560, Note_on_c, 0, 80, 72
2, 256800, Note_on_c, 0, 80, 0
2, 256800, Note_on_c, 0, 84, 72
2, 257040, Note_on_c, 0, 84, 0
2, 257040, Note_on_c, 0, 89, 92
2, 257760, Note_on_c, 0, 89, 0
2, 257760, Note_on_c, 0, 87, 72
2, 258240, Note_on_c, 0, 87, 0
2, 258240, Note_on_c, 0, 86, 72
2, 258720, Note_on_c, 0, 86, 0
2, 258720, Note_on_c, 0, 84, 72
2, 259200, Note_on_c, 0, 84, 0
2, 259200, Note_on_c, 0, 83, 72
2, 259488, Note_on_c, 0, 83, 0
2, 259680, Note_on_c, 0, 79, 72
2, 260448, Note_on_c, 0, 79, 0
2, 260640, Note_on_c, 0, 79, 72
2, 261360, Note_on_c, 0, 79, 0
2, 261360, Note_on_c, 0, 81, 72
2, 261600, Note_on_c, 0, 81, 0
2, 261600, Note_on_c, 0, 83, 72
2, 261840, Note_on_c, 0, 83, 0
2, 261840, Note_on_c, 0, 84, 72
2, 262080, Note_on_c, 0, 84, 0
2, 262080, Note_on_c, 0, 86, 72
2, 262320, Note_on_c, 0, 86, 0
2, 262320, Note_on_c, 0, 88, 72
2, 262560, Note_on_c, 0, 88, 0
2, 262560, Note_on_c, 0, 89, 72
2, 262800, Note_on_c, 0, 89, 0
2, 262800, Note_on_c, 0, 86, 72
2, 263040, Note_on_c, 0, 86, 0
2, 263040, Note_on_c, 0, 89, 72
2, 263280, Note_on_c, 0, 89, 0
2, 263280, Note_on_c, 0, 88, 72
2, 263520, Note_on_c, 0, 88, 0
2, 263520, Note_on_c, 0, 86, 72
2, 263760, Note_on_c, 0, 86, 0
2, 263760, Note_on_c, 0, 84, 72
2, 264000, Note_on_c, 0, 84, 0
2, 264000, Note_on_c, 0, 84, 72
2, 264240, Note_on_c, 0, 84, 0
2, 264240, Note_on_c, 0, 83, 72
2, 264480, Note_on_c, 0, 83, 0
2, 264480, Note_on_c, 0, 81, 72
2, 264720, Note_on_c, 0, 81, 0
2, 264720, Note_on_c, 0, 83, 72
2, 264960, Note_on_c, 0, 83, 0
2, 264960, Note_on_c, 0, 86, 72
2, 265200, Note_on_c, 0, 86, 0
2, 265200, Note_on_c, 0, 84, 72
2, 265440, Note_on_c, 0, 84, 0
2, 265440, Note_on_c, 0, 83, 72
2, 265680, Note_on_c, 0, 83, 0
2, 265680, Note_on_c, 0, 81, 72
2, 265920, Note_on_c, 0, 81, 0
2, 265920, Note_on_c, 0, 79, 72
2, 266208, Note_on_c, 0, 79, 0
2, 266400, Note_on_c, 0, 79, 72
2, 266688, Note_on_c, 0, 79, 0
2, 266880, Note_on_c, 0, 79, 72
2, 269040, Note_on_c, 0, 79, 0
2, 269040, Note_on_c, 0, 81, 72
2, 269280, Note_on_c, 0, 81, 0
2, 269280, Note_on_c, 0, 83, 72
2, 269520, Note_on_c, 0, 83, 0
2, 269520, Note_on_c, 0, 84, 72
2, 269760, Note_on_c, 0, 84, 0
2, 269760, Note_on_c, 0, 86, 72
2, 270000, Note_on_c, 0, 86, 0
2, 270000, Note_on_c, 0, 88, 72
2, 270240, Note_on_c, 0, 88, 0
2, 270240, Note_on_c, 0, 89, 72
2, 270480, Note_on_c, 0, 89, 0
2, 270480, Note_on_c, 0, 86, 72
2, 270720, Note_on_c, 0, 86, 0
2, 270720, Note_on_c, 0, 89, 72
2, 270960, Note_on_c, 0, 89, 0
2, 270960, Note_on_c, 0, 88, 72
2, 271200, Note_on_c, 0, 88, 0
2, 271200, Note_on_c, 0, 86, 72
2, 271440, Note_on_c, 0, 86, 0
2, 271440, Note_on_c, 0, 84, 72
2, 271680, Note_on_c, 0, 84, 0
2, 271680, Note_on_c, 0, 83, 71
2, 271920, Note_on_c, 0, 83, 0
2, 271920, Note_on_c, 0, 84, 72
2, 272160, Note_on_c, 0, 84, 0
2, 272160, Note_on_c, 0, 88, 73
2, 272400, Note_on_c, 0, 88, 0
2, 272400, Note_on_c, 0, 84, 74
2, 272640, Note_on_c, 0, 84, 0
2, 272640, Note_on_c, 0, 83, 76
2, 272880, Note_on_c, 0, 83, 0
2, 272880, Note_on_c, 0, 81, 77
2, 273120, Note_on_c, 0, 81, 0
2, 273120, Note_on_c, 0, 84, 78
2, 273360, Note_on_c, 0, 84, 0
2, 273360, Note_on_c, 0, 81, 79
2, 273600, Note_on_c, 0, 81, 0
2, 273600, Note_on_c, 0, 79, 81
2, 273840, Note_on_c, 0, 79, 0
2, 273840, Note_on_c, 0, 77, 82
2, 274080, Note_on_c, 0, 77, 0
2, 274080, Note_on_c, 0, 81, 83
2, 274320, Note_on_c, 0, 81, 0
2, 274320, Note_on_c, 0, 77, 84
2, 274560, Note_on_c, 0, 77, 0
2, 274560, Note_on_c, 0, 76, 86
2, 274800, Note_on_c, 0, 76, 0
2, 274800, Note_on_c, 0, 74, 87
2, 275040, Note_on_c, 0, 74, 0
2, 275040, Note_on_c, 0, 77, 88
2, 275280, Note_on_c, 0, 77, 0
2, 275280, Note_on_c, 0, 74, 89
2, 275520, Note_on_c, 0, 74, 0
2, 275520, Note_on_c, 0, 81, 91
2, 275760, Note_on_c, 0, 81, 0
2, 275760, Note_on_c, 0, 77, 92
2, 276000, Note_on_c, 0, 77, 0
2, 276000, Note_on_c, 0, 74, 93
2, 276240, Note_on_c, 0, 74, 0
2, 276240, Note_on_c, 0, 72, 94
2, 276480, Note_on_c, 0, 72, 0
2, 276480, Note_on_c, 0, 71, 92
2, 276640, Note_on_c, 0, 71, 0
2, 276640, Note_on_c, 0, 67, 92
2, 276800, Note_on_c, 0, 67, 0
2, 276800, Note_on_c, 0, 69, 92
2, 276960, Note_on_c, 0, 69, 0
2, 276960, Note_on_c, 0, 71, 92
2, 277120, Note_on_c, 0, 71, 0
2, 277120, Note_on_c, 0, 69, 92
2, 277280, Note_on_c, 0, 69, 0
2, 277280, Note_on_c, 0, 67, 92
2, 277440, Note_on_c, 0, 67, 0
2, 277440, Note_on_c, 0, 72, 92
2, 278400, Note_on_c, 0, 72, 0
2, 278400, Note_on_c, 0, 71, 92
2, 278560, Note_on_c, 0, 71, 0
2, 278560, Note_on_c, 0, 67, 92
2, 278720, Note_on_c, 0, 67, 0
2, 278720, Note_on_c, 0, 69, 92
2, 278880, Note_on_c, 0, 69, 0
2, 278880, Note_on_c, 0, 71, 92
2, 279040, Note_on_c, 0, 71, 0
2, 279040, Note_on_c, 0, 69, 92
2, 279200, Note_on_c, 0, 69, 0
2, 279200, Note_on_c, 0, 67, 92
2, 279360, Note_on_c, 0, 67, 0
2, 279360, Note_on_c, 0, 72, 92
2, 280320, Note_on_c, 0, 72, 0
2, 280320, Note_on_c, 0, 71, 92
2, 280480, Note_on_c, 0, 71, 0
2, 280480, Note_on_c, 0, 67, 92
2, 280640, Note_on_c, 0, 67, 0
2, 280640, Note_on_c, 0, 69, 92
2, 280800, Note_on_c, 0, 69, 0
2, 280800, Note_on_c, 0, 71, 92
2, 280960, Note_on_c, 0, 71, 0
2, 280960, Note_on_c, 0, 69, 92
2, 281120, Note_on_c, 0, 69, 0
2, 281120, Note_on_c, 0, 67, 92
2, 281280, Note_on_c, 0, 67, 0
2, 281280, Note_on_c, 0, 74, 92
2, 281440, Note_on_c, 0, 74, 0
2, 281440, Note_on_c, 0, 71, 92
2, 281600, Note_on_c, 0, 71, 0
2, 281600, Note_on_c, 0, 72, 92
2, 281760, Note_on_c, 0, 72, 0
2, 281760, Note_on_c, 0, 74, 92
2, 281920, Note_on_c, 0, 74, 0
2, 281920, Note_on_c, 0, 72, 92
2, 282080, Note_on_c, 0, 72, 0
2, 282080, Note_on_c, 0, 71, 92
2, 282240, Note_on_c, 0, 71, 0
2, 282240, Note_on_c, 0, 77, 112
2, 282400, Note_on_c, 0, 77, 0
2, 282400, Note_on_c, 0, 76, 92
2, 282560, Note_on_c, 0, 76, 0
2, 282560, Note_on_c, 0, 74, 92
2, 282720, Note_on_c, 0, 74, 0
2, 282720, Note_on_c, 0, 72, 92
2, 282880, Note_on_c, 0, 72, 0
2, 282880, Note_on_c, 0, 71, 92
2, 283040, Note_on_c, 0, 71, 0
2, 283040, Note_on_c, 0, 69, 92
2, 283200, Note_on_c, 0, 69, 0
2, 283200, Note_on_c, 0, 67, 92
2, 283360, Note_on_c, 0, 67, 0
2, 283360, Note_on_c, 0, 69, 92
2, 283520, Note_on_c, 0, 69, 0
2, 283520, Note_on_c, 0, 67, 92
2, 283680, Note_on_c, 0, 67, 0
2, 283680, Note_on_c, 0, 65, 92
2, 283840, Note_on_c, 0, 65, 0
2, 283840, Note_on_c, 0, 64, 92
2, 284000, Note_on_c, 0, 64, 0
2, 284000, Note_on_c, 0, 62, 92
2, 284160, Note_on_c, 0, 62, 0
2, 284160, Note_on_c, 0, 64, 92
2, 284320, Note_on_c, 0, 64, 0
2, 284320, Note_on_c, 0, 60, 92
2, 284480, Note_on_c, 0, 60, 0
2, 284480, Note_on_c, 0, 62, 92
2, 284640, Note_on_c, 0, 62, 0
2, 284640, Note_on_c, 0, 64, 92
2, 284800, Note_on_c, 0, 64, 0
2, 284800, Note_on_c, 0, 62, 92
2, 284960, Note_on_c, 0, 62, 0
2, 284960, Note_on_c, 0, 60, 92
2, 285120, Note_on_c, 0, 60, 0
2, 285120, Note_on_c, 0, 65, 92
2, 286080, Note_on_c, 0, 65, 0
2, 286080, Note_on_c, 0, 64, 92
2, 286240, Note_on_c, 0, 64, 0
2, 286240, Note_on_c, 0, 72, 92
2, 286400, Note_on_c, 0, 72, 0
2, 286400, Note_on_c, 0, 74, 92
2, 286560, Note_on_c, 0, 74, 0
2, 286560, Note_on_c, 0, 76, 92
2, 286720, Note_on_c, 0, 76, 0
2, 286720, Note_on_c, 0, 74, 92
2, 286880, Note_on_c, 0, 74, 0
2, 286880, Note_on_c, 0, 72, 92
2, 287040, Note_on_c, 0, 72, 0
2, 287040, Note_on_c, 0, 77, 92
2, 288000, Note_on_c, 0, 77, 0
2, 288000, Note_on_c, 0, 76, 92
2, 288160, Note_on_c, 0, 76, 0
2, 288160, Note_on_c, 0, 72, 92
2, 288320, Note_on_c, 0, 72, 0
2, 288320, Note_on_c, 0, 74, 92
2, 288480, Note_on_c, 0, 74, 0
2, 288480, Note_on_c, 0, 76, 92
2, 288640, Note_on_c, 0, 76, 0
2, 288640, Note_on_c, 0, 74, 92
2, 288800, Note_on_c, 0, 74, 0
2, 288800, Note_on_c, 0, 72, 92
2, 288960, Note_on_c, 0, 72, 0
2, 288960, Note_on_c, 0, 79, 92
2, 289120, Note_on_c, 0, 79, 0
2, 289120, Note_on_c, 0, 76, 92
2, 289280, Note_on_c, 0, 76, 0
2, 289280, Note_on_c, 0, 77, 92
2, 289440, Note_on_c, 0, 77, 0
2, 289440, Note_on_c, 0, 79, 92
2, 289600, Note_on_c, 0, 79, 0
2, 289600, Note_on_c, 0, 77, 92
2, 289760, Note_on_c, 0, 77, 0
2, 289760, Note_on_c, 0, 76, 92
2, 289920, Note_on_c, 0, 76, 0
2, 289920, Note_on_c, 0, 82, 92
2, 290080, Note_on_c, 0, 82, 0
2, 290080, Note_on_c, 0, 81, 92
2, 290240, Note_on_c, 0, 81, 0
2, 290240, Note_on_c, 0, 79, 92
2, 290400, Note_on_c, 0, 79, 0
2, 290400, Note_on_c, 0, 77, 92
2, 290560, Note_on_c, 0, 77, 0
2, 290560, Note_on_c, 0, 76, 92
2, 290720, Note_on_c, 0, 76, 0
2, 290720, Note_on_c, 0, 74, 92
2, 290880, Note_on_c, 0, 74, 0
2, 290880, Note_on_c, 0, 72, 92
2, 291040, Note_on_c, 0, 72, 0
2, 291040, Note_on_c, 0, 71, 92
2, 291200, Note_on_c, 0, 71, 0
2, 291200, Note_on_c, 0, 72, 92
2, 291360, Note_on_c, 0, 72, 0
2, 291360, Note_on_c, 0, 73, 92
2, 291520, Note_on_c, 0, 73, 0
2, 291520, Note_on_c, 0, 74, 92
2, 291680, Note_on_c, 0, 74, 0
2, 291680, Note_on_c, 0, 70, 92
2, 291840, Note_on_c, 0, 70, 0
2, 292320, Note_on_c, 0, 57, 92
2, 292480, Note_on_c, 0, 57, 0
2, 292480, Note_on_c, 0, 60, 92
2, 292640, Note_on_c, 0, 60, 0
2, 292640, Note_on_c, 0, 65, 92
2, 292800, Note_on_c, 0, 65, 0
2, 292800, Note_on_c, 0, 69, 92
2, 292960, Note_on_c, 0, 69, 0
2, 292960, Note_on_c, 0, 72, 92
2, 293120, Note_on_c, 0, 72, 0
2, 293120, Note_on_c, 0, 77, 92
2, 293280, Note_on_c, 0, 77, 0
2, 293280, Note_on_c, 0, 81, 92
2, 293424, Note_on_c, 0, 81, 0
2, 293520, Note_on_c, 0, 81, 92
2, 293664, Note_on_c, 0, 81, 0
2, 293760, Note_on_c, 0, 81, 92
2, 294000, Note_on_c, 0, 81, 0
2, 294000, Note_on_c, 0, 79, 92
2, 294144, Note_on_c, 0, 79, 0
2, 294240, Note_on_c, 0, 77, 92
2, 294384, Note_on_c, 0, 77, 0
2, 294480, Note_on_c, 0, 76, 92
2, 294624, Note_on_c, 0, 76, 0
2, 294720, Note_on_c, 0, 76, 92
2, 294960, Note_on_c, 0, 76, 0
2, 294960, Note_on_c, 0, 74, 92
2, 295104, Note_on_c, 0, 74, 0
2, 295200, Note_on_c, 0, 72, 92
2, 295344, Note_on_c, 0, 72, 0
2, 295440, Note_on_c, 0, 71, 92
2, 295584, Note_on_c, 0, 71, 0
2, 295680, Note_on_c, 0, 72, 81
2, 296064, Note_on_c, 0, 72, 0
2, 297120, Note_on_c, 0, 67, 72
2, 297504, Note_on_c, 0, 67, 0
2, 297600, Note_on_c, 0, 71, 72
2, 297600, Note_on_c, 0, 74, 72
2, 298056, Note_on_c, 0, 74, 0
2, 298056, Note_on_c, 0, 71, 0
2, 298080, Note_on_c, 0, 71, 72
2, 298080, Note_on_c, 0, 74, 72
2, 298536, Note_on_c, 0, 74, 0
2, 298536, Note_on_c, 0, 71, 0
2, 298560, Note_on_c, 0, 71, 72
2, 298560, Note_on_c, 0, 74, 72
2, 299016, Note_on_c, 0, 74, 0
2, 299016, Note_on_c, 0, 71, 0
2, 299040, Note_on_c, 0, 71, 72
2, 299040, Note_on_c, 0, 74, 72
2, 299496, Note_on_c, 0, 74, 0
2, 299496, Note_on_c, 0, 71, 0
2, 299520, Note_on_c, 0, 72, 72
2, 299520, Note_on_c, 0, 79, 72
2, 300888, Note_on_c, 0, 79, 0
2, 300888, Note_on_c, 0, 72, 0
2, 300960, Note_on_c, 0, 79, 72
2, 300960, Note_on_c, 0, 72, 72
2, 301344, Note_on_c, 0, 72, 0
2, 301344, Note_on_c, 0, 79, 0
2, 301440, Note_on_c, 0, 75, 72
2, 301440, Note_on_c, 0, 78, 72
2, 301440, Note_on_c, 0, 72, 72
2, 302064, Note_on_c, 0, 72, 0
2, 302064, Note_on_c, 0, 78, 0
2, 302064, Note_on_c, 0, 75, 0
2, 302400, Note_on_c, 0, 74, 72
2, 302400, Note_on_c, 0, 78, 72
2, 302400, Note_on_c, 0, 72, 72
2, 303024, Note_on_c, 0, 72, 0
2, 303024, Note_on_c, 0, 78, 0
2, 303024, Note_on_c, 0, 74, 0
2, 303360, Note_on_c, 0, 74, 72
2, 303360, Note_on_c, 0, 79, 72
2, 303360, Note_on_c, 0, 71, 72
2, 303744, Note_on_c, 0, 71, 0
2, 303744, Note_on_c, 0, 79, 0
2, 303744, Note_on_c, 0, 74, 0
2, 304800, Note_on_c, 0, 55, 72
2, 305184, Note_on_c, 0, 55, 0
2, 305280, Note_on_c, 0, 62, 72
2, 305736, Note_on_c, 0, 62, 0
2, 305760, Note_on_c, 0, 62, 72
2, 306216, Note_on_c, 0, 62, 0
2, 306240, Note_on_c, 0, 62, 72
2, 306696, Note_on_c, 0, 62, 0
2, 306720, Note_on_c, 0, 62, 72
2, 307176, Note_on_c, 0, 62, 0
2, 307200, Note_on_c, 0, 67, 72
2, 308352, Note_on_c, 0, 67, 0
2, 308640, Note_on_c, 0, 67, 72
2, 309024, Note_on_c, 0, 67, 0
2, 309120, Note_on_c, 0, 65, 72
2, 309576, Note_on_c, 0, 65, 0
2, 309600, Note_on_c, 0, 65, 72
2, 310056, Note_on_c, 0, 65, 0
2, 310080, Note_on_c, 0, 65, 72
2, 310536, Note_on_c, 0, 65, 0
2, 310560, Note_on_c, 0, 65, 72
2, 311016, Note_on_c, 0, 65, 0
2, 311040, Note_on_c, 0, 70, 72
2, 312192, Note_on_c, 0, 70, 0
2, 312480, Note_on_c, 0, 70, 72
2, 312864, Note_on_c, 0, 70, 0
2, 312960, Note_on_c, 0, 69, 72
2, 313416, Note_on_c, 0, 69, 0
2, 313440, Note_on_c, 0, 69, 72
2, 313896, Note_on_c, 0, 69, 0
2, 313920, Note_on_c, 0, 69, 72
2, 314376, Note_on_c, 0, 69, 0
2, 314400, Note_on_c, 0, 69, 72
2, 314856, Note_on_c, 0, 69, 0
2, 314880, Note_on_c, 0, 74, 63
2, 316248, Note_on_c, 0, 74, 0
2, 316320, Note_on_c, 0, 69, 73
2, 316800, Note_on_c, 0, 69, 0
2, 316800, Note_on_c, 0, 74, 70
2, 318168, Note_on_c, 0, 74, 0
2, 318240, Note_on_c, 0, 74, 63
2, 318720, Note_on_c, 0, 74, 0
2, 318720, Note_on_c, 0, 79, 65
2, 320088, Note_on_c, 0, 79, 0
2, 320160, Note_on_c, 0, 74, 74
2, 320640, Note_on_c, 0, 74, 0
2, 320640, Note_on_c, 0, 79, 72
2, 322008, Note_on_c, 0, 79, 0
2, 322080, Note_on_c, 0, 74, 66
2, 322560, Note_on_c, 0, 74, 0
2, 322560, Note_on_c, 0, 80, 74
2, 324480, Note_on_c, 0, 80, 0
2, 324480, Note_on_c, 0, 79, 71
2, 326400, Note_on_c, 0, 79, 0
2, 326400, Note_on_c, 0, 78, 68
2, 328320, Note_on_c, 0, 78, 0
2, 328320, Note_on_c, 0, 77, 65
2, 330240, Note_on_c, 0, 77, 0
2, 330240, Note_on_c, 0, 67, 72
2, 330240, Note_on_c, 0, 72, 72
2, 330240, Note_on_c, 0, 75, 72
2, 330960, Note_on_c, 0, 75, 0
2, 330960, Note_on_c, 0, 72, 0
2, 330960, Note_on_c, 0, 67, 0
2, 330960, Note_on_c, 0, 77, 72
2, 331200, Note_on_c, 0, 77, 0
2, 331200, Note_on_c, 0, 74, 72
2, 331920, Note_on_c, 0, 74, 0
2, 331920, Note_on_c, 0, 75, 72
2, 332160, Note_on_c, 0, 75, 0
2, 332160, Note_on_c, 0, 72, 72
2, 332928, Note_on_c, 0, 72, 0
2, 333120, Note_on_c, 0, 74, 72
2, 333180, Note_on_c, 0, 74, 0
2, 333180, Note_on_c, 0, 72, 72
2, 333360, Note_on_c, 0, 72, 0
2, 333360, Note_on_c, 0, 71, 72
2, 333600, Note_on_c, 0, 71, 0
2, 333600, Note_on_c, 0, 72, 72
2, 333840, Note_on_c, 0, 72, 0
2, 333840, Note_on_c, 0, 74, 72
2, 334080, Note_on_c, 0, 74, 0
2, 334080, Note_on_c, 0, 77, 72
2, 334140, Note_on_c, 0, 77, 0
2, 334140, Note_on_c, 0, 75, 72
2, 334320, Note_on_c, 0, 75, 0
2, 334320, Note_on_c, 0, 74, 72
2, 334560, Note_on_c, 0, 74, 0
2, 334560, Note_on_c, 0, 75, 72
2, 334800, Note_on_c, 0, 75, 0
2, 334800, Note_on_c, 0, 77, 72
2, 335040, Note_on_c, 0, 77, 0
2, 335040, Note_on_c, 0, 79, 72
2, 335328, Note_on_c, 0, 79, 0
2, 335520, Note_on_c, 0, 79, 72
2, 335808, Note_on_c, 0, 79, 0
2, 336000, Note_on_c, 0, 79, 72
2, 337152, Note_on_c, 0, 79, 0
2, 337440, Note_on_c, 0, 77, 72
2, 337680, Note_on_c, 0, 77, 0
2, 337680, Note_on_c, 0, 79, 72
2, 337920, Note_on_c, 0, 79, 0
2, 337920, Note_on_c, 0, 77, 72
2, 337980, Note_on_c, 0, 77, 0
2, 337980, Note_on_c, 0, 79, 72
2, 338040, Note_on_c, 0, 79, 0
2, 338040, Note_on_c, 0, 80, 92
2, 338880, Note_on_c, 0, 80, 0
2, 338880, Note_on_c, 0, 74, 72
2, 339168, Note_on_c, 0, 74, 0
2, 339360, Note_on_c, 0, 75, 72
2, 339600, Note_on_c, 0, 75, 0
2, 339600, Note_on_c, 0, 77, 72
2, 339840, Note_on_c, 0, 77, 0
2, 339840, Note_on_c, 0, 75, 72
2, 339900, Note_on_c, 0, 75, 0
2, 339900, Note_on_c, 0, 77, 72
2, 339960, Note_on_c, 0, 77, 0
2, 339960, Note_on_c, 0, 79, 92
2, 340800, Note_on_c, 0, 79, 0
2, 340800, Note_on_c, 0, 72, 72
2, 341088, Note_on_c, 0, 72, 0
2, 341280, Note_on_c, 0, 72, 72
2, 341520, Note_on_c, 0, 72, 0
2, 341520, Note_on_c, 0, 74, 72
2, 341760, Note_on_c, 0, 74, 0
2, 341760, Note_on_c, 0, 75, 72
2, 342048, Note_on_c, 0, 75, 0
2, 342240, Note_on_c, 0, 75, 72
2, 342480, Note_on_c, 0, 75, 0
2, 342480, Note_on_c, 0, 77, 72
2, 342720, Note_on_c, 0, 77, 0
2, 342720, Note_on_c, 0, 74, 72
2, 343008, Note_on_c, 0, 74, 0
2, 343200, Note_on_c, 0, 74, 72
2, 343440, Note_on_c, 0, 74, 0
2, 343440, Note_on_c, 0, 75, 72
2, 343680, Note_on_c, 0, 75, 0
2, 343680, Note_on_c, 0, 72, 72
2, 343824, Note_on_c, 0, 72, 0
2, 343920, Note_on_c, 0, 71, 72
2, 344160, Note_on_c, 0, 71, 0
2, 344160, Note_on_c, 0, 72, 72
2, 344400, Note_on_c, 0, 72, 0
2, 344400, Note_on_c, 0, 74, 72
2, 344640, Note_on_c, 0, 74, 0
2, 344640, Note_on_c, 0, 75, 72
2, 344880, Note_on_c, 0, 75, 0
2, 344880, Note_on_c, 0, 76, 72
2, 345120, Note_on_c, 0, 76, 0
2, 345120, Note_on_c, 0, 77, 72
2, 345360, Note_on_c, 0, 77, 0
2, 345360, Note_on_c, 0, 79, 72
2, 345600, Note_on_c, 0, 79, 0
2, 345600, Note_on_c, 0, 80, 71
2, 345840, Note_on_c, 0, 80, 0
2, 345840, Note_on_c, 0, 79, 72
2, 346080, Note_on_c, 0, 79, 0
2, 346080, Note_on_c, 0, 82, 74
2, 346320, Note_on_c, 0, 82, 0
2, 346320, Note_on_c, 0, 80, 76
2, 346560, Note_on_c, 0, 80, 0
2, 346560, Note_on_c, 0, 79, 78
2, 346800, Note_on_c, 0, 79, 0
2, 346800, Note_on_c, 0, 77, 79
2, 347040, Note_on_c, 0, 77, 0
2, 347040, Note_on_c, 0, 75, 81
2, 347280, Note_on_c, 0, 75, 0
2, 347280, Note_on_c, 0, 74, 83
2, 347520, Note_on_c, 0, 74, 0
2, 347520, Note_on_c, 0, 79, 85
2, 347760, Note_on_c, 0, 79, 0
2, 347760, Note_on_c, 0, 78, 87
2, 348000, Note_on_c, 0, 78, 0
2, 348000, Note_on_c, 0, 80, 88
2, 348240, Note_on_c, 0, 80, 0
2, 348240, Note_on_c, 0, 79, 90
2, 348480, Note_on_c, 0, 79, 0
2, 348480, Note_on_c, 0, 77, 92
2, 348720, Note_on_c, 0, 77, 0
2, 348720, Note_on_c, 0, 75, 94
2, 348960, Note_on_c, 0, 75, 0
2, 348960, Note_on_c, 0, 74, 96
2, 349200, Note_on_c, 0, 74, 0
2, 349200, Note_on_c, 0, 72, 97
2, 349440, Note_on_c, 0, 72, 0
2, 349440, Note_on_c, 0, 75, 99
2, 349680, Note_on_c, 0, 75, 0
2, 349680, Note_on_c, 0, 74, 101
2, 349920, Note_on_c, 0, 74, 0
2, 349920, Note_on_c, 0, 77, 103
2, 350160, Note_on_c, 0, 77, 0
2, 350160, Note_on_c, 0, 75, 105
2, 350400, Note_on_c, 0, 75, 0
2, 350400, Note_on_c, 0, 74, 106
2, 350640, Note_on_c, 0, 74, 0
2, 350640, Note_on_c, 0, 73, 108
2, 350880, Note_on_c, 0, 73, 0
2, 350880, Note_on_c, 0, 75, 110
2, 351120, Note_on_c, 0, 75, 0
2, 351120, Note_on_c, 0, 74, 112
2, 351360, Note_on_c, 0, 74, 0
2, 351360, Note_on_c, 0, 72, 72
2, 351744, Note_on_c, 0, 72, 0
2, 352480, Note_on_c, 0, 84, 73
2, 352640, Note_on_c, 0, 84, 0
2, 352640, Note_on_c, 0, 86, 74
2, 352800, Note_on_c, 0, 86, 0
2, 352800, Note_on_c, 0, 88, 76
2, 352960, Note_on_c, 0, 88, 0
2, 352960, Note_on_c, 0, 86, 77
2, 353120, Note_on_c, 0, 86, 0
2, 353120, Note_on_c, 0, 84, 79
2, 353280, Note_on_c, 0, 84, 0
2, 353280, Note_on_c, 0, 89, 101
2, 353568, Note_on_c, 0, 89, 0
2, 354400, Note_on_c, 0, 84, 82
2, 354560, Note_on_c, 0, 84, 0
2, 354560, Note_on_c, 0, 86, 84
2, 354720, Note_on_c, 0, 86, 0
2, 354720, Note_on_c, 0, 88, 86
2, 354880, Note_on_c, 0, 88, 0
2, 354880, Note_on_c, 0, 86, 88
2, 355040, Note_on_c, 0, 86, 0
2, 355040, Note_on_c, 0, 84, 90
2, 355200, Note_on_c, 0, 84, 0
2, 355200, Note_on_c, 0, 89, 112
2, 355488, Note_on_c, 0, 89, 0
2, 356320, Note_on_c, 0, 84, 90
2, 356480, Note_on_c, 0, 84, 0
2, 356480, Note_on_c, 0, 86, 92
2, 356640, Note_on_c, 0, 86, 0
2, 356640, Note_on_c, 0, 88, 94
2, 356800, Note_on_c, 0, 88, 0
2, 356800, Note_on_c, 0, 86, 96
2, 356960, Note_on_c, 0, 86, 0
2, 356960, Note_on_c, 0, 84, 99
2, 357120, Note_on_c, 0, 84, 0
2, 357120, Note_on_c, 0, 89, 116
2, 357408, Note_on_c, 0, 89, 0
2, 357600, Note_on_c, 0, 78, 116
2, 357600, Note_on_c, 0, 84, 116
2, 357600, Note_on_c, 0, 72, 116
2, 357600, Note_on_c, 0, 75, 116
2, 357888, Note_on_c, 0, 75, 0
2, 357888, Note_on_c, 0, 72, 0
2, 357888, Note_on_c, 0, 84, 0
2, 357888, Note_on_c, 0, 78, 0
2, 358080, Note_on_c, 0, 79, 116
2, 358080, Note_on_c, 0, 75, 116
2, 358080, Note_on_c, 0, 84, 116
2, 358080, Note_on_c, 0, 72, 116
2, 358368, Note_on_c, 0, 72, 0
2, 358368, Note_on_c, 0, 84, 0
2, 358368, Note_on_c, 0, 75, 0
2, 358368, Note_on_c, 0, 79, 0
2, 358560, Note_on_c, 0, 79, 116
2, 358560, Note_on_c, 0, 83, 116
2, 358560, Note_on_c, 0, 71, 116
2, 358560, Note_on_c, 0, 74, 116
2, 358848, Note_on_c, 0, 74, 0
2, 358848, Note_on_c, 0, 71, 0
2, 358848, Note_on_c, 0, 83, 0
2, 358848, Note_on_c, 0, 79, 0
2, 359040, Note_on_c, 0, 72, 116
2, 359040, Note_on_c, 0, 84, 116
2, 359040, Note_on_c, 0, 79, 116
2, 359040, Note_on_c, 0, 75, 116
2, 359328, Note_on_c, 0, 75, 0
2, 359328, Note_on_c, 0, 79, 0
2, 359328, Note_on_c, 0, 84, 0
2, 359328, Note_on_c, 0, 72, 0
2, 360160, Note_on_c, 0, 72, 105
2, 360320, Note_on_c, 0, 72, 0
2, 360320, Note_on_c, 0, 74, 107
2, 360480, Note_on_c, 0, 74, 0
2, 360480, Note_on_c, 0, 76, 109
2, 360640, Note_on_c, 0, 76, 0
2, 360640, Note_on_c, 0, 74, 111
2, 360800, Note_on_c, 0, 74, 0
2, 360800, Note_on_c, 0, 72, 113
2, 360960, Note_on_c, 0, 72, 0
2, 360960, Note_on_c, 0, 77, 125
2, 361248, Note_on_c, 0, 77, 0
2, 362080, Note_on_c, 0, 72, 106
2, 362240, Note_on_c, 0, 72, 0
2, 362240, Note_on_c, 0, 74, 107
2, 362400, Note_on_c, 0, 74, 0
2, 362400, Note_on_c, 0, 76, 108
2, 362560, Note_on_c, 0, 76, 0
2, 362560, Note_on_c, 0, 74, 109
2, 362720, Note_on_c, 0, 74, 0
2, 362720, Note_on_c, 0, 72, 110
2, 362880, Note_on_c, 0, 72, 0
2, 362880, Note_on_c, 0, 77, 125
2, 363168, Note_on_c, 0, 77, 0
2, 364000, Note_on_c, 0, 60, 105
2, 364160, Note_on_c, 0, 60, 0
2, 364160, Note_on_c, 0, 62, 104
2, 364320, Note_on_c, 0, 62, 0
2, 364320, Note_on_c, 0, 64, 104
2, 364480, Note_on_c, 0, 64, 0
2, 364480, Note_on_c, 0, 62, 104
2, 364640, Note_on_c, 0, 62, 0
2, 364640, Note_on_c, 0, 60, 105
2, 364800, Note_on_c, 0, 60, 0
2, 364800, Note_on_c, 0, 65, 92
2, 364896, Note_on_c, 0, 65, 0
2, 364960, Note_on_c, 0, 60, 73
2, 365120, Note_on_c, 0, 60, 0
2, 365120, Note_on_c, 0, 62, 74
2, 365280, Note_on_c, 0, 62, 0
2, 365280, Note_on_c, 0, 63, 75
2, 365440, Note_on_c, 0, 63, 0
2, 365440, Note_on_c, 0, 62, 76
2, 365600, Note_on_c, 0, 62, 0
2, 365600, Note_on_c, 0, 60, 72
2, 365760, Note_on_c, 0, 60, 0
2, 365760, Note_on_c, 0, 66, 92
2, 365856, Note_on_c, 0, 66, 0
2, 365920, Note_on_c, 0, 60, 73
2, 366080, Note_on_c, 0, 60, 0
2, 366080, Note_on_c, 0, 62, 74
2, 366240, Note_on_c, 0, 62, 0
2, 366240, Note_on_c, 0, 63, 75
2, 366400, Note_on_c, 0, 63, 0
2, 366400, Note_on_c, 0, 62, 77
2, 366560, Note_on_c, 0, 62, 0
2, 366560, Note_on_c, 0, 60, 78
2, 366720, Note_on_c, 0, 60, 0
2, 366720, Note_on_c, 0, 67, 92
2, 366816, Note_on_c, 0, 67, 0
2, 366880, Note_on_c, 0, 60, 75
2, 367040, Note_on_c, 0, 60, 0
2, 367040, Note_on_c, 0, 62, 77
2, 367200, Note_on_c, 0, 62, 0
2, 367200, Note_on_c, 0, 63, 79
2, 367360, Note_on_c, 0, 63, 0
2, 367360, Note_on_c, 0, 62, 81
2, 367520, Note_on_c, 0, 62, 0
2, 367520, Note_on_c, 0, 60, 83
2, 367680, Note_on_c, 0, 60, 0
2, 367680, Note_on_c, 0, 69, 99
2, 367776, Note_on_c, 0, 69, 0
2, 367840, Note_on_c, 0, 60, 82
2, 368000, Note_on_c, 0, 60, 0
2, 368000, Note_on_c, 0, 62, 83
2, 368160, Note_on_c, 0, 62, 0
2, 368160, Note_on_c, 0, 63, 84
2, 368320, Note_on_c, 0, 63, 0
2, 368320, Note_on_c, 0, 62, 85
2, 368480, Note_on_c, 0, 62, 0
2, 368480, Note_on_c, 0, 60, 86
2, 368640, Note_on_c, 0, 60, 0
2, 368640, Note_on_c, 0, 71, 105
2, 368736, Note_on_c, 0, 71, 0
2, 368800, Note_on_c, 0, 59, 84
2, 368960, Note_on_c, 0, 59, 0
2, 368960, Note_on_c, 0, 60, 87
2, 369120, Note_on_c, 0, 60, 0
2, 369120, Note_on_c, 0, 62, 89
2, 369280, Note_on_c, 0, 62, 0
2, 369280, Note_on_c, 0, 60, 92
2, 369440, Note_on_c, 0, 60, 0
2, 369440, Note_on_c, 0, 59, 95
2, 369600, Note_on_c, 0, 59, 0
2, 369600, Note_on_c, 0, 72, 112
2, 369696, Note_on_c, 0, 72, 0
2, 369760, Note_on_c, 0, 60, 93
2, 369920, Note_on_c, 0, 60, 0
2, 369920, Note_on_c, 0, 62, 94
2, 370080, Note_on_c, 0, 62, 0
2, 370080, Note_on_c, 0, 63, 96
2, 370240, Note_on_c, 0, 63, 0
2, 370240, Note_on_c, 0, 62, 98
2, 370400, Note_on_c, 0, 62, 0
2, 370400, Note_on_c, 0, 60, 99
2, 370560, Note_on_c, 0, 60, 0
2, 370560, Note_on_c, 0, 74, 116
2, 370656, Note_on_c, 0, 74, 0
2, 370720, Note_on_c, 0, 62, 96
2, 370880, Note_on_c, 0, 62, 0
2, 370880, Note_on_c, 0, 63, 98
2, 371040, Note_on_c, 0, 63, 0
2, 371040, Note_on_c, 0, 65, 100
2, 371200, Note_on_c, 0, 65, 0
2, 371200, Note_on_c, 0, 63, 102
2, 371360, Note_on_c, 0, 63, 0
2, 371360, Note_on_c, 0, 62, 104
2, 371520, Note_on_c, 0, 62, 0
2, 371520, Note_on_c, 0, 71, 125
2, 371616, Note_on_c, 0, 71, 0
2, 371680, Note_on_c, 0, 59, 103
2, 371840, Note_on_c, 0, 59, 0
2, 371840, Note_on_c, 0, 60, 105
2, 372000, Note_on_c, 0, 60, 0
2, 372000, Note_on_c, 0, 62, 106
2, 372160, Note_on_c, 0, 62, 0
2, 372160, Note_on_c, 0, 60, 108
2, 372320, Note_on_c, 0, 60, 0
2, 372320, Note_on_c, 0, 59, 110
2, 372480, Note_on_c, 0, 59, 0
2, 372480, Note_on_c, 0, 60, 105
2, 372480, Note_on_c, 0, 72, 125
2, 372768, Note_on_c, 0, 72, 0
2, 372864, Note_on_c, 0, 60, 0
2, 373440, Note_on_c, 0, 79, 125
2, 373920, Note_on_c, 0, 79, 0
2, 373920, Note_on_c, 0, 77, 113
2, 374040, Note_on_c, 0, 77, 0
2, 374040, Note_on_c, 0, 75, 111
2, 374160, Note_on_c, 0, 75, 0
2, 374160, Note_on_c, 0, 74, 108
2, 374280, Note_on_c, 0, 74, 0
2, 374280, Note_on_c, 0, 72, 105
2, 374400, Note_on_c, 0, 72, 0
2, 374400, Note_on_c, 0, 74, 103
2, 374688, Note_on_c, 0, 74, 0
2, 375360, Note_on_c, 0, 77, 125
2, 375840, Note_on_c, 0, 77, 0
2, 375840, Note_on_c, 0, 75, 114
2, 375960, Note_on_c, 0, 75, 0
2, 375960, Note_on_c, 0, 74, 111
2, 376080, Note_on_c, 0, 74, 0
2, 376080, Note_on_c, 0, 72, 108
2, 376200, Note_on_c, 0, 72, 0
2, 376200, Note_on_c, 0, 71, 105
2, 376320, Note_on_c, 0, 71, 0
2, 376320, Note_on_c, 0, 72, 105
2, 376608, Note_on_c, 0, 72, 0
2, 377280, Note_on_c, 0, 79, 125
2, 377760, Note_on_c, 0, 79, 0
2, 377760, Note_on_c, 0, 77, 113
2, 377880, Note_on_c, 0, 77, 0
2, 377880, Note_on_c, 0, 75, 111
2, 378000, Note_on_c, 0, 75, 0
2, 378000, Note_on_c, 0, 74, 108
2, 378120, Note_on_c, 0, 74, 0
2, 378120, Note_on_c, 0, 72, 106
2, 378240, Note_on_c, 0, 72, 0
2, 378240, Note_on_c, 0, 74, 105
2, 378528, Note_on_c, 0, 74, 0
2, 379200, Note_on_c, 0, 77, 125
2, 379680, Note_on_c, 0, 77, 0
2, 379680, Note_on_c, 0, 75, 112
2, 379800, Note_on_c, 0, 75, 0
2, 379800, Note_on_c, 0, 74, 110
2, 379920, Note_on_c, 0, 74, 0
2, 379920, Note_on_c, 0, 72, 108
2, 380040, Note_on_c, 0, 72, 0
2, 380040, Note_on_c, 0, 71, 106
2, 380160, Note_on_c, 0, 71, 0
2, 380160, Note_on_c, 0, 72, 105
2, 380448, Note_on_c, 0, 72, 0
2, 381120, Note_on_c, 0, 79, 125
2, 381600, Note_on_c, 0, 79, 0
2, 381600, Note_on_c, 0, 77, 114
2, 381720, Note_on_c, 0, 77, 0
2, 381720, Note_on_c, 0, 75, 111
2, 381840, Note_on_c, 0, 75, 0
2, 381840, Note_on_c, 0, 74, 109
2, 381960, Note_on_c, 0, 74, 0
2, 381960, Note_on_c, 0, 72, 106
2, 382080, Note_on_c, 0, 72, 0
2, 382080, Note_on_c, 0, 73, 105
2, 382368, Note_on_c, 0, 73, 0
2, 383040, Note_on_c, 0, 89, 127
2, 385440, Note_on_c, 0, 89, 0
2, 385440, Note_on_c, 0, 87, 116
2, 385600, Note_on_c, 0, 87, 0
2, 385600, Note_on_c, 0, 85, 116
2, 385760, Note_on_c, 0, 85, 0
2, 385760, Note_on_c, 0, 84, 116
2, 385920, Note_on_c, 0, 84, 0
2, 385920, Note_on_c, 0, 82, 116
2, 386080, Note_on_c, 0, 82, 0
2, 386080, Note_on_c, 0, 80, 116
2, 386240, Note_on_c, 0, 80, 0
2, 386240, Note_on_c, 0, 79, 116
2, 386400, Note_on_c, 0, 79, 0
2, 386400, Note_on_c, 0, 77, 116
2, 386560, Note_on_c, 0, 77, 0
2, 386560, Note_on_c, 0, 75, 116
2, 386720, Note_on_c, 0, 75, 0
2, 386720, Note_on_c, 0, 73, 116
2, 386880, Note_on_c, 0, 73, 0
2, 386880, Note_on_c, 0, 72, 116
2, 386960, Note_on_c, 0, 72, 0
2, 386960, Note_on_c, 0, 70, 116
2, 387040, Note_on_c, 0, 70, 0
2, 387040, Note_on_c, 0, 68, 116
2, 387120, Note_on_c, 0, 68, 0
2, 387120, Note_on_c, 0, 67, 116
2, 387200, Note_on_c, 0, 67, 0
2, 387200, Note_on_c, 0, 65, 116
2, 387280, Note_on_c, 0, 65, 0
2, 387280, Note_on_c, 0, 63, 116
2, 387360, Note_on_c, 0, 63, 0
2, 391200, Note_on_c, 0, 56, 64
2, 391440, Note_on_c, 0, 56, 0
2, 391440, Note_on_c, 0, 58, 67
2, 391680, Note_on_c, 0, 58, 0
2, 391680, Note_on_c, 0, 60, 69
2, 392400, Note_on_c, 0, 60, 0
2, 392400, Note_on_c, 0, 61, 72
2, 392640, Note_on_c, 0, 61, 0
2, 392640, Note_on_c, 0, 58, 71
2, 393360, Note_on_c, 0, 58, 0
2, 393360, Note_on_c, 0, 60, 68
2, 393600, Note_on_c, 0, 60, 0
2, 393600, Note_on_c, 0, 56, 67
2, 393984, Note_on_c, 0, 56, 0
2, 395040, Note_on_c, 0, 68, 65
2, 395280, Note_on_c, 0, 68, 0
2, 395280, Note_on_c, 0, 70, 69
2, 395520, Note_on_c, 0, 70, 0
2, 395520, Note_on_c, 0, 72, 72
2, 396240, Note_on_c, 0, 72, 0
2, 396240, Note_on_c, 0, 73, 72
2, 396480, Note_on_c, 0, 73, 0
2, 396480, Note_on_c, 0, 70, 72
2, 397200, Note_on_c, 0, 70, 0
2, 397200, Note_on_c, 0, 72, 66
2, 397440, Note_on_c, 0, 72, 0
2, 397440, Note_on_c, 0, 68, 64
2, 397824, Note_on_c, 0, 68, 0
2, 398880, Note_on_c, 0, 72, 56
2, 399360, Note_on_c, 0, 72, 0
2, 399360, Note_on_c, 0, 78, 54
2, 399360, Note_on_c, 0, 75, 54
2, 399648, Note_on_c, 0, 75, 0
2, 399648, Note_on_c, 0, 78, 0
2, 400800, Note_on_c, 0, 72, 51
2, 401280, Note_on_c, 0, 72, 0
2, 401280, Note_on_c, 0, 79, 49
2, 401280, Note_on_c, 0, 75, 49
2, 401568, Note_on_c, 0, 75, 0
2, 401568, Note_on_c, 0, 79, 0
2, 402720, Note_on_c, 0, 87, 124
2, 402880, Note_on_c, 0, 87, 0
2, 402880, Note_on_c, 0, 86, 124
2, 403040, Note_on_c, 0, 86, 0
2, 403040, Note_on_c, 0, 84, 124
2, 403200, Note_on_c, 0, 84, 0
2, 403200, Note_on_c, 0, 89, 124
2, 403360, Note_on_c, 0, 89, 0
2, 403360, Note_on_c, 0, 87, 124
2, 403520, Note_on_c, 0, 87, 0
2, 403520, Note_on_c, 0, 86, 124
2, 403680, Note_on_c, 0, 86, 0
2, 403680, Note_on_c, 0, 84, 124
2, 403840, Note_on_c, 0, 84, 0
2, 403840, Note_on_c, 0, 83, 124
2, 404000, Note_on_c, 0, 83, 0
2, 404000, Note_on_c, 0, 80, 124
2, 404160, Note_on_c, 0, 80, 0
2, 404160, Note_on_c, 0, 79, 124
2, 404320, Note_on_c, 0, 79, 0
2, 404320, Note_on_c, 0, 77, 124
2, 404480, Note_on_c, 0, 77, 0
2, 404480, Note_on_c, 0, 75, 124
2, 404640, Note_on_c, 0, 75, 0
2, 404640, Note_on_c, 0, 74, 124
2, 404800, Note_on_c, 0, 74, 0
2, 404800, Note_on_c, 0, 72, 124
2, 404960, Note_on_c, 0, 72, 0
2, 404960, Note_on_c, 0, 71, 124
2, 405120, Note_on_c, 0, 71, 0
2, 405120, Note_on_c, 0, 72, 124
2, 405504, Note_on_c, 0, 72, 0
2, 405504, End_track
3, 0, Start_track
3, 0, Sequencer_specific, 04, 43, 00, 01, 00
3, 0, Program_c, 1, 0
3, 0, Control_c, 1, 7, 122
3, 0, Control_c, 1, 91, 110
3, 0, Control_c, 1, 91, 110
3, 57600, Note_on_c, 1, 68, 58
3, 57792, Note_on_c, 1, 68, 0
3, 57840, Note_on_c, 1, 67, 58
3, 58032, Note_on_c, 1, 67, 0
3, 58080, Note_on_c, 1, 65, 58
3, 58272, Note_on_c, 1, 65, 0
3, 58320, Note_on_c, 1, 63, 58
3, 58512, Note_on_c, 1, 63, 0
3, 58560, Note_on_c, 1, 63, 58
3, 58752, Note_on_c, 1, 63, 0
3, 58800, Note_on_c, 1, 62, 58
3, 58992, Note_on_c, 1, 62, 0
3, 59040, Note_on_c, 1, 60, 58
3, 59232, Note_on_c, 1, 60, 0
3, 59280, Note_on_c, 1, 62, 58
3, 59472, Note_on_c, 1, 62, 0
3, 59520, Note_on_c, 1, 63, 58
3, 59712, Note_on_c, 1, 63, 0
3, 65760, Note_on_c, 1, 62, 58
3, 65760, Note_on_c, 1, 65, 58
3, 65760, Note_on_c, 1, 58, 58
3, 66048, Note_on_c, 1, 58, 0
3, 66048, Note_on_c, 1, 65, 0
3, 66048, Note_on_c, 1, 62, 0
3, 66240, Note_on_c, 1, 63, 78
3, 66240, Note_on_c, 1, 58, 78
3, 66240, Note_on_c, 1, 66, 78
3, 67008, Note_on_c, 1, 66, 0
3, 67008, Note_on_c, 1, 58, 0
3, 67008, Note_on_c, 1, 63, 0
3, 67680, Note_on_c, 1, 58, 58
3, 67680, Note_on_c, 1, 62, 58
3, 67680, Note_on_c, 1, 65, 58
3, 67968, Note_on_c, 1, 65, 0
3, 67968, Note_on_c, 1, 62, 0
3, 67968, Note_on_c, 1, 58, 0
3, 68160, Note_on_c, 1, 58, 78
3, 68160, Note_on_c, 1, 63, 78
3, 68160, Note_on_c, 1, 66, 78
3, 68928, Note_on_c, 1, 66, 0
3, 68928, Note_on_c, 1, 63, 0
3, 68928, Note_on_c, 1, 58, 0
3, 69120, Note_on_c, 1, 58, 58
3, 69120, Note_on_c, 1, 62, 58
3, 69120, Note_on_c, 1, 65, 58
3, 69408, Note_on_c, 1, 65, 0
3, 69408, Note_on_c, 1, 62, 0
3, 69408, Note_on_c, 1, 58, 0
3, 70080, Note_on_c, 1, 58, 58
3, 70080, Note_on_c, 1, 65, 58
3, 70080, Note_on_c, 1, 68, 58
3, 70368, Note_on_c, 1, 68, 0
3, 70368, Note_on_c, 1, 65, 0
3, 70368, Note_on_c, 1, 58, 0
3, 71040, Note_on_c, 1, 58, 58
3, 71040, Note_on_c, 1, 62, 58
3, 71040, Note_on_c, 1, 68, 58
3, 71040, Note_on_c, 1, 65, 58
3, 71328, Note_on_c, 1, 65, 0
3, 71328, Note_on_c, 1, 68, 0
3, 71328, Note_on_c, 1, 62, 0
3, 71328, Note_on_c, 1, 58, 0
3, 72960, Note_on_c, 1, 51, 58
3, 73344, Note_on_c, 1, 51, 0
3, 74080, Note_on_c, 1, 58, 58
3, 74240, Note_on_c, 1, 58, 0
3, 74240, Note_on_c, 1, 60, 58
3, 74400, Note_on_c, 1, 60, 0
3, 74400, Note_on_c, 1, 62, 58
3, 74560, Note_on_c, 1, 62, 0
3, 74560, Note_on_c, 1, 60, 58
3, 74720, Note_on_c, 1, 60, 0
3, 74720, Note_on_c, 1, 58, 58
3, 74880, Note_on_c, 1, 58, 0
3, 74880, Note_on_c, 1, 63, 58
3, 75264, Note_on_c, 1, 63, 0
3, 76000, Note_on_c, 1, 58, 58
3, 76160, Note_on_c, 1, 58, 0
3, 76160, Note_on_c, 1, 60, 58
3, 76320, Note_on_c, 1, 60, 0
3, 76320, Note_on_c, 1, 62, 58
3, 76480, Note_on_c, 1, 62, 0
3, 76480, Note_on_c, 1, 60, 58
3, 76640, Note_on_c, 1, 60, 0
3, 76640, Note_on_c, 1, 58, 58
3, 76800, Note_on_c, 1, 58, 0
3, 76800, Note_on_c, 1, 63, 58
3, 77184, Note_on_c, 1, 63, 0
3, 77760, Note_on_c, 1, 63, 58
3, 78144, Note_on_c, 1, 63, 0
3, 78720, Note_on_c, 1, 55, 58
3, 78720, Note_on_c, 1, 58, 58
3, 78720, Note_on_c, 1, 61, 58
3, 78720, Note_on_c, 1, 63, 58
3, 79104, Note_on_c, 1, 63, 0
3, 79104, Note_on_c, 1, 61, 0
3, 79104, Note_on_c, 1, 58, 0
3, 79104, Note_on_c, 1, 55, 0
3, 82560, Note_on_c, 1, 63, 58
3, 82560, Note_on_c, 1, 58, 58
3, 82560, Note_on_c, 1, 67, 58
3, 82944, Note_on_c, 1, 67, 0
3, 82944, Note_on_c, 1, 58, 0
3, 82944, Note_on_c, 1, 63, 0
3, 83520, Note_on_c, 1, 68, 58
3, 83520, Note_on_c, 1, 65, 58
3, 83520, Note_on_c, 1, 58, 58
3, 83904, Note_on_c, 1, 58, 0
3, 83904, Note_on_c, 1, 65, 0
3, 83904, Note_on_c, 1, 68, 0
3, 84480, Note_on_c, 1, 63, 58
3, 84480, Note_on_c, 1, 67, 58
3, 84936, Note_on_c, 1, 67, 0
3, 84936, Note_on_c, 1, 63, 0
3, 86400, Note_on_c, 1, 62, 58
3, 86400, Note_on_c, 1, 56, 58
3, 86400, Note_on_c, 1, 58, 58
3, 86784, Note_on_c, 1, 62, 0
3, 86856, Note_on_c, 1, 58, 0
3, 86856, Note_on_c, 1, 56, 0
3, 86880, Note_on_c, 1, 56, 58
3, 86880, Note_on_c, 1, 58, 58
3, 86880, Note_on_c, 1, 62, 58
3, 87264, Note_on_c, 1, 62, 0
3, 87336, Note_on_c, 1, 58, 0
3, 87336, Note_on_c, 1, 56, 0
3, 87360, Note_on_c, 1, 62, 58
3, 87360, Note_on_c, 1, 56, 58
3, 87360, Note_on_c, 1, 58, 58
3, 87744, Note_on_c, 1, 62, 0
3, 87816, Note_on_c, 1, 58, 0
3, 87816, Note_on_c, 1, 56, 0
3, 87840, Note_on_c, 1, 58, 58
3, 87840, Note_on_c, 1, 56, 58
3, 87840, Note_on_c, 1, 62, 58
3, 88224, Note_on_c, 1, 62, 0
3, 88296, Note_on_c, 1, 56, 0
3, 88296, Note_on_c, 1, 58, 0
3, 88320, Note_on_c, 1, 63, 58
3, 88320, Note_on_c, 1, 58, 58
3, 88320, Note_on_c, 1, 55, 58
3, 89688, Note_on_c, 1, 55, 0
3, 89688, Note_on_c, 1, 58, 0
3, 89688, Note_on_c, 1, 63, 0
3, 89760, Note_on_c, 1, 55, 58
3, 89760, Note_on_c, 1, 63, 58
3, 90144, Note_on_c, 1, 63, 0
3, 90144, Note_on_c, 1, 55, 0
3, 90240, Note_on_c, 1, 63, 58
3, 90240, Note_on_c, 1, 60, 58
3, 90864, Note_on_c, 1, 60, 0
3, 90864, Note_on_c, 1, 63, 0
3, 91200, Note_on_c, 1, 65, 58
3, 91200, Note_on_c, 1, 63, 58
3, 91200, Note_on_c, 1, 59, 58
3, 91824, Note_on_c, 1, 59, 0
3, 91824, Note_on_c, 1, 63, 0
3, 91824, Note_on_c, 1, 65, 0
3, 92160, Note_on_c, 1, 62, 58
3, 92160, Note_on_c, 1, 65, 58
3, 92160, Note_on_c, 1, 58, 58
3, 93312, Note_on_c, 1, 58, 0
3, 93312, Note_on_c, 1, 65, 0
3, 93312, Note_on_c, 1, 62, 0
3, 94080, Note_on_c, 1, 70, 58
3, 94536, Note_on_c, 1, 70, 0
3, 94560, Note_on_c, 1, 70, 58
3, 95016, Note_on_c, 1, 70, 0
3, 95040, Note_on_c, 1, 70, 58
3, 95496, Note_on_c, 1, 70, 0
3, 95520, Note_on_c, 1, 70, 57
3, 95976, Note_on_c, 1, 70, 0
3, 96000, Note_on_c, 1, 70, 63
3, 96960, Note_on_c, 1, 70, 0
3, 96960, Note_on_c, 1, 73, 87
3, 97920, Note_on_c, 1, 73, 0
3, 97920, Note_on_c, 1, 72, 105
3, 98304, Note_on_c, 1, 72, 0
3, 98880, Note_on_c, 1, 68, 105
3, 98880, Note_on_c, 1, 65, 105
3, 99264, Note_on_c, 1, 65, 0
3, 99264, Note_on_c, 1, 68, 0
3, 100000, Note_on_c, 1, 63, 58
3, 100160, Note_on_c, 1, 63, 0
3, 100160, Note_on_c, 1, 65, 58
3, 100320, Note_on_c, 1, 65, 0
3, 100320, Note_on_c, 1, 67, 58
3, 100480, Note_on_c, 1, 67, 0
3, 100480, Note_on_c, 1, 65, 58
3, 100640, Note_on_c, 1, 65, 0
3, 100640, Note_on_c, 1, 63, 58
3, 100800, Note_on_c, 1, 63, 0
3, 100800, Note_on_c, 1, 68, 58
3, 101760, Note_on_c, 1, 68, 0
3, 101760, Note_on_c, 1, 67, 58
3, 101920, Note_on_c, 1, 67, 0
3, 101920, Note_on_c, 1, 63, 58
3, 102080, Note_on_c, 1, 63, 0
3, 102080, Note_on_c, 1, 65, 58
3, 102240, Note_on_c, 1, 65, 0
3, 102240, Note_on_c, 1, 67, 58
3, 102400, Note_on_c, 1, 67, 0
3, 102400, Note_on_c, 1, 65, 58
3, 102560, Note_on_c, 1, 65, 0
3, 102560, Note_on_c, 1, 63, 58
3, 102720, Note_on_c, 1, 63, 0
3, 102720, Note_on_c, 1, 68, 58
3, 103680, Note_on_c, 1, 68, 0
3, 103680, Note_on_c, 1, 63, 58
3, 103680, Note_on_c, 1, 67, 58
3, 103968, Note_on_c, 1, 67, 0
3, 103968, Note_on_c, 1, 63, 0
3, 104160, Note_on_c, 1, 60, 58
3, 104448, Note_on_c, 1, 60, 0
3, 104640, Note_on_c, 1, 56, 58
3, 104928, Note_on_c, 1, 56, 0
3, 105120, Note_on_c, 1, 58, 58
3, 105408, Note_on_c, 1, 58, 0
3, 120960, Note_on_c, 1, 48, 58
3, 121200, Note_on_c, 1, 48, 0
3, 121200, Note_on_c, 1, 51, 58
3, 121440, Note_on_c, 1, 51, 0
3, 121440, Note_on_c, 1, 55, 58
3, 121680, Note_on_c, 1, 55, 0
3, 121680, Note_on_c, 1, 60, 58
3, 121920, Note_on_c, 1, 60, 0
3, 121920, Note_on_c, 1, 48, 58
3, 122160, Note_on_c, 1, 48, 0
3, 122160, Note_on_c, 1, 53, 58
3, 122400, Note_on_c, 1, 53, 0
3, 122400, Note_on_c, 1, 55, 58
3, 122640, Note_on_c, 1, 55, 0
3, 122640, Note_on_c, 1, 59, 58
3, 122880, Note_on_c, 1, 59, 0
3, 122880, Note_on_c, 1, 48, 58
3, 123120, Note_on_c, 1, 48, 0
3, 123120, Note_on_c, 1, 51, 58
3, 123360, Note_on_c, 1, 51, 0
3, 123360, Note_on_c, 1, 55, 58
3, 123600, Note_on_c, 1, 55, 0
3, 123600, Note_on_c, 1, 60, 58
3, 123840, Note_on_c, 1, 60, 0
3, 123840, Note_on_c, 1, 63, 58
3, 124080, Note_on_c, 1, 63, 0
3, 124080, Note_on_c, 1, 67, 58
3, 124320, Note_on_c, 1, 67, 0
3, 124320, Note_on_c, 1, 63, 58
3, 124560, Note_on_c, 1, 63, 0
3, 124560, Note_on_c, 1, 62, 58
3, 124800, Note_on_c, 1, 62, 0
3, 124800, Note_on_c, 1, 60, 58
3, 125040, Note_on_c, 1, 60, 0
3, 125040, Note_on_c, 1, 67, 58
3, 125280, Note_on_c, 1, 67, 0
3, 125280, Note_on_c, 1, 60, 58
3, 125520, Note_on_c, 1, 60, 0
3, 125520, Note_on_c, 1, 67, 58
3, 125760, Note_on_c, 1, 67, 0
3, 125760, Note_on_c, 1, 62, 58
3, 125760, Note_on_c, 1, 59, 58
3, 126000, Note_on_c, 1, 59, 0
3, 126000, Note_on_c, 1, 62, 0
3, 126000, Note_on_c, 1, 67, 58
3, 126240, Note_on_c, 1, 67, 0
3, 126240, Note_on_c, 1, 56, 58
3, 126240, Note_on_c, 1, 60, 58
3, 126480, Note_on_c, 1, 60, 0
3, 126480, Note_on_c, 1, 56, 0
3, 126480, Note_on_c, 1, 67, 58
3, 126720, Note_on_c, 1, 67, 0
3, 126720, Note_on_c, 1, 55, 58
3, 126960, Note_on_c, 1, 55, 0
3, 126960, Note_on_c, 1, 59, 58
3, 127200, Note_on_c, 1, 59, 0
3, 127200, Note_on_c, 1, 62, 58
3, 127440, Note_on_c, 1, 62, 0
3, 127440, Note_on_c, 1, 67, 58
3, 127680, Note_on_c, 1, 67, 0
3, 127680, Note_on_c, 1, 55, 58
3, 127920, Note_on_c, 1, 55, 0
3, 127920, Note_on_c, 1, 59, 58
3, 128160, Note_on_c, 1, 59, 0
3, 128160, Note_on_c, 1, 62, 58
3, 128400, Note_on_c, 1, 62, 0
3, 128400, Note_on_c, 1, 67, 58
3, 128640, Note_on_c, 1, 67, 0
3, 128640, Note_on_c, 1, 53, 58
3, 128880, Note_on_c, 1, 53, 0
3, 128880, Note_on_c, 1, 56, 58
3, 129120, Note_on_c, 1, 56, 0
3, 129120, Note_on_c, 1, 59, 58
3, 129360, Note_on_c, 1, 59, 0
3, 129360, Note_on_c, 1, 62, 58
3, 129600, Note_on_c, 1, 62, 0
3, 129600, Note_on_c, 1, 53, 58
3, 129840, Note_on_c, 1, 53, 0
3, 129840, Note_on_c, 1, 56, 58
3, 130080, Note_on_c, 1, 56, 0
3, 130080, Note_on_c, 1, 59, 58
3, 130320, Note_on_c, 1, 59, 0
3, 130320, Note_on_c, 1, 62, 58
3, 130560, Note_on_c, 1, 62, 0
3, 130560, Note_on_c, 1, 51, 58
3, 130800, Note_on_c, 1, 51, 0
3, 130800, Note_on_c, 1, 55, 58
3, 131040, Note_on_c, 1, 55, 0
3, 131040, Note_on_c, 1, 60, 58
3, 131280, Note_on_c, 1, 60, 0
3, 131280, Note_on_c, 1, 63, 58
3, 131520, Note_on_c, 1, 63, 0
3, 131520, Note_on_c, 1, 56, 58
3, 131760, Note_on_c, 1, 56, 0
3, 131760, Note_on_c, 1, 60, 58
3, 132000, Note_on_c, 1, 60, 0
3, 132000, Note_on_c, 1, 63, 58
3, 132240, Note_on_c, 1, 63, 0
3, 132240, Note_on_c, 1, 66, 58
3, 132480, Note_on_c, 1, 66, 0
3, 132480, Note_on_c, 1, 55, 58
3, 132720, Note_on_c, 1, 55, 0
3, 132720, Note_on_c, 1, 60, 58
3, 132960, Note_on_c, 1, 60, 0
3, 132960, Note_on_c, 1, 63, 58
3, 133200, Note_on_c, 1, 63, 0
3, 133200, Note_on_c, 1, 67, 58
3, 133440, Note_on_c, 1, 67, 0
3, 133440, Note_on_c, 1, 55, 58
3, 133680, Note_on_c, 1, 55, 0
3, 133680, Note_on_c, 1, 59, 58
3, 133920, Note_on_c, 1, 59, 0
3, 133920, Note_on_c, 1, 62, 58
3, 134160, Note_on_c, 1, 62, 0
3, 134160, Note_on_c, 1, 67, 58
3, 134400, Note_on_c, 1, 67, 0
3, 134640, Note_on_c, 1, 48, 58
3, 134880, Note_on_c, 1, 48, 0
3, 134880, Note_on_c, 1, 51, 58
3, 135120, Note_on_c, 1, 51, 0
3, 135120, Note_on_c, 1, 55, 58
3, 135360, Note_on_c, 1, 55, 0
3, 135360, Note_on_c, 1, 60, 58
3, 135744, Note_on_c, 1, 60, 0
3, 136560, Note_on_c, 1, 41, 58
3, 136800, Note_on_c, 1, 41, 0
3, 136800, Note_on_c, 1, 47, 58
3, 137040, Note_on_c, 1, 47, 0
3, 137040, Note_on_c, 1, 50, 58
3, 137280, Note_on_c, 1, 50, 0
3, 137280, Note_on_c, 1, 53, 58
3, 137520, Note_on_c, 1, 53, 0
3, 137520, Note_on_c, 1, 56, 58
3, 137760, Note_on_c, 1, 56, 0
3, 137760, Note_on_c, 1, 55, 58
3, 138000, Note_on_c, 1, 55, 0
3, 138000, Note_on_c, 1, 53, 58
3, 138240, Note_on_c, 1, 53, 0
3, 138480, Note_on_c, 1, 39, 58
3, 138720, Note_on_c, 1, 39, 0
3, 138720, Note_on_c, 1, 43, 58
3, 138960, Note_on_c, 1, 43, 0
3, 138960, Note_on_c, 1, 48, 58
3, 139200, Note_on_c, 1, 48, 0
3, 139200, Note_on_c, 1, 51, 58
3, 139440, Note_on_c, 1, 51, 0
3, 139440, Note_on_c, 1, 55, 58
3, 139680, Note_on_c, 1, 55, 0
3, 139680, Note_on_c, 1, 56, 58
3, 139920, Note_on_c, 1, 56, 0
3, 139920, Note_on_c, 1, 54, 58
3, 140160, Note_on_c, 1, 54, 0
3, 140160, Note_on_c, 1, 43, 58
3, 140400, Note_on_c, 1, 43, 0
3, 140400, Note_on_c, 1, 55, 58
3, 140640, Note_on_c, 1, 55, 0
3, 140640, Note_on_c, 1, 60, 58
3, 140880, Note_on_c, 1, 60, 0
3, 140880, Note_on_c, 1, 55, 58
3, 141120, Note_on_c, 1, 55, 0
3, 141120, Note_on_c, 1, 43, 58
3, 141360, Note_on_c, 1, 43, 0
3, 141360, Note_on_c, 1, 55, 58
3, 141600, Note_on_c, 1, 55, 0
3, 141600, Note_on_c, 1, 59, 58
3, 141840, Note_on_c, 1, 59, 0
3, 141840, Note_on_c, 1, 55, 58
3, 142080, Note_on_c, 1, 55, 0
3, 152880, Note_on_c, 1, 44, 72
3, 153120, Note_on_c, 1, 44, 0
3, 153120, Note_on_c, 1, 48, 72
3, 153360, Note_on_c, 1, 48, 0
3, 153360, Note_on_c, 1, 51, 72
3, 153600, Note_on_c, 1, 51, 0
3, 153600, Note_on_c, 1, 56, 72
3, 154560, Note_on_c, 1, 56, 0
3, 154560, Note_on_c, 1, 49, 72
3, 155520, Note_on_c, 1, 49, 0
3, 155520, Note_on_c, 1, 55, 72
3, 156480, Note_on_c, 1, 55, 0
3, 156480, Note_on_c, 1, 48, 72
3, 157440, Note_on_c, 1, 48, 0
3, 157440, Note_on_c, 1, 53, 72
3, 157920, Note_on_c, 1, 53, 0
3, 157920, Note_on_c, 1, 46, 72
3, 158880, Note_on_c, 1, 46, 0
3, 158880, Note_on_c, 1, 48, 72
3, 159360, Note_on_c, 1, 48, 0
3, 159360, Note_on_c, 1, 49, 72
3, 159840, Note_on_c, 1, 49, 0
3, 159840, Note_on_c, 1, 50, 72
3, 160320, Note_on_c, 1, 50, 0
3, 160320, Note_on_c, 1, 51, 72
3, 160800, Note_on_c, 1, 51, 0
3, 160800, Note_on_c, 1, 39, 72
3, 161280, Note_on_c, 1, 39, 0
3, 161280, Note_on_c, 1, 44, 72
3, 162240, Note_on_c, 1, 44, 0
3, 162240, Note_on_c, 1, 49, 72
3, 163200, Note_on_c, 1, 49, 0
3, 163200, Note_on_c, 1, 43, 72
3, 164160, Note_on_c, 1, 43, 0
3, 164160, Note_on_c, 1, 48, 72
3, 165120, Note_on_c, 1, 48, 0
3, 165120, Note_on_c, 1, 41, 72
3, 166080, Note_on_c, 1, 41, 0
3, 166080, Note_on_c, 1, 43, 72
3, 166560, Note_on_c, 1, 43, 0
3, 166560, Note_on_c, 1, 44, 72
3, 167040, Note_on_c, 1, 44, 0
3, 167040, Note_on_c, 1, 45, 72
3, 167520, Note_on_c, 1, 45, 0
3, 167520, Note_on_c, 1, 46, 72
3, 168000, Note_on_c, 1, 46, 0
3, 168000, Note_on_c, 1, 39, 72
3, 168480, Note_on_c, 1, 39, 0
3, 169440, Note_on_c, 1, 60, 58
3, 169440, Note_on_c, 1, 56, 58
3, 170400, Note_on_c, 1, 56, 0
3, 170400, Note_on_c, 1, 60, 0
3, 170400, Note_on_c, 1, 49, 58
3, 170400, Note_on_c, 1, 53, 58
3, 171360, Note_on_c, 1, 53, 0
3, 171360, Note_on_c, 1, 49, 0
3, 171360, Note_on_c, 1, 55, 58
3, 171360, Note_on_c, 1, 58, 58
3, 171840, Note_on_c, 1, 63, 58
3, 172320, Note_on_c, 1, 58, 0
3, 172320, Note_on_c, 1, 55, 0
3, 172320, Note_on_c, 1, 48, 58
3, 172320, Note_on_c, 1, 51, 58
3, 173280, Note_on_c, 1, 51, 0
3, 173280, Note_on_c, 1, 48, 0
3, 173280, Note_on_c, 1, 63, 0
3, 173280, Note_on_c, 1, 56, 58
3, 173280, Note_on_c, 1, 60, 58
3, 173280, Note_on_c, 1, 53, 58
3, 173760, Note_on_c, 1, 53, 0
3, 173760, Note_on_c, 1, 60, 0
3, 173760, Note_on_c, 1, 56, 0
3, 173760, Note_on_c, 1, 46, 58
3, 173760, Note_on_c, 1, 65, 58
3, 174240, Note_on_c, 1, 65, 0
3, 174240, Note_on_c, 1, 46, 0
3, 174240, Note_on_c, 1, 48, 58
3, 174240, Note_on_c, 1, 63, 58
3, 174720, Note_on_c, 1, 63, 0
3, 174720, Note_on_c, 1, 48, 0
3, 174720, Note_on_c, 1, 49, 58
3, 174720, Note_on_c, 1, 61, 58
3, 175200, Note_on_c, 1, 61, 0
3, 175200, Note_on_c, 1, 49, 0
3, 175200, Note_on_c, 1, 50, 58
3, 175200, Note_on_c, 1, 60, 58
3, 175680, Note_on_c, 1, 60, 0
3, 175680, Note_on_c, 1, 50, 0
3, 175680, Note_on_c, 1, 58, 58
3, 175680, Note_on_c, 1, 51, 58
3, 176160, Note_on_c, 1, 51, 0
3, 176160, Note_on_c, 1, 58, 0
3, 176640, Note_on_c, 1, 60, 58
3, 176640, Note_on_c, 1, 56, 58
3, 177600, Note_on_c, 1, 56, 0
3, 177600, Note_on_c, 1, 60, 0
3, 177600, Note_on_c, 1, 62, 58
3, 177600, Note_on_c, 1, 65, 58
3, 178560, Note_on_c, 1, 65, 0
3, 178560, Note_on_c, 1, 62, 0
3, 178560, Note_on_c, 1, 55, 58
3, 178560, Note_on_c, 1, 58, 58
3, 179520, Note_on_c, 1, 58, 0
3, 179520, Note_on_c, 1, 55, 0
3, 179520, Note_on_c, 1, 63, 58
3, 179520, Note_on_c, 1, 60, 58
3, 180480, Note_on_c, 1, 60, 0
3, 180480, Note_on_c, 1, 63, 0
3, 180480, Note_on_c, 1, 53, 58
3, 180480, Note_on_c, 1, 72, 58
3, 181440, Note_on_c, 1, 72, 0
3, 181440, Note_on_c, 1, 53, 0
3, 181440, Note_on_c, 1, 55, 58
3, 181440, Note_on_c, 1, 70, 58
3, 181920, Note_on_c, 1, 70, 0
3, 181920, Note_on_c, 1, 55, 0
3, 181920, Note_on_c, 1, 56, 58
3, 181920, Note_on_c, 1, 68, 58
3, 182400, Note_on_c, 1, 68, 0
3, 182400, Note_on_c, 1, 56, 0
3, 182400, Note_on_c, 1, 57, 58
3, 182400, Note_on_c, 1, 67, 58
3, 182880, Note_on_c, 1, 67, 0
3, 182880, Note_on_c, 1, 57, 0
3, 182880, Note_on_c, 1, 65, 58
3, 182880, Note_on_c, 1, 58, 58
3, 183360, Note_on_c, 1, 58, 0
3, 183360, Note_on_c, 1, 65, 0
3, 183360, Note_on_c, 1, 51, 58
3, 183360, Note_on_c, 1, 68, 58
3, 183648, Note_on_c, 1, 51, 0
3, 183840, Note_on_c, 1, 68, 0
3, 183840, Note_on_c, 1, 63, 58
3, 183840, Note_on_c, 1, 67, 58
3, 184224, Note_on_c, 1, 67, 0
3, 184224, Note_on_c, 1, 63, 0
3, 184320, Note_on_c, 1, 62, 58
3, 184800, Note_on_c, 1, 62, 0
3, 184800, Note_on_c, 1, 63, 58
3, 185280, Note_on_c, 1, 63, 0
3, 185280, Note_on_c, 1, 66, 58
3, 185760, Note_on_c, 1, 66, 0
3, 185760, Note_on_c, 1, 57, 58
3, 186240, Note_on_c, 1, 57, 0
3, 186240, Note_on_c, 1, 58, 58
3, 186624, Note_on_c, 1, 58, 0
3, 187680, Note_on_c, 1, 61, 58
3, 187680, Note_on_c, 1, 51, 58
3, 188160, Note_on_c, 1, 51, 0
3, 188160, Note_on_c, 1, 61, 0
3, 188160, Note_on_c, 1, 56, 58
3, 188160, Note_on_c, 1, 60, 58
3, 188544, Note_on_c, 1, 60, 0
3, 188544, Note_on_c, 1, 56, 0
3, 189600, Note_on_c, 1, 46, 58
3, 189600, Note_on_c, 1, 56, 58
3, 190080, Note_on_c, 1, 56, 0
3, 190080, Note_on_c, 1, 46, 0
3, 190080, Note_on_c, 1, 55, 58
3, 190080, Note_on_c, 1, 51, 58
3, 190464, Note_on_c, 1, 51, 0
3, 190464, Note_on_c, 1, 55, 0
3, 191280, Note_on_c, 1, 75, 58
3, 191424, Note_on_c, 1, 75, 0
3, 191520, Note_on_c, 1, 77, 58
3, 191664, Note_on_c, 1, 77, 0
3, 191760, Note_on_c, 1, 79, 58
3, 191904, Note_on_c, 1, 79, 0
3, 192000, Note_on_c, 1, 80, 58
3, 192144, Note_on_c, 1, 80, 0
3, 192240, Note_on_c, 1, 79, 58
3, 192384, Note_on_c, 1, 79, 0
3, 192480, Note_on_c, 1, 77, 58
3, 192624, Note_on_c, 1, 77, 0
3, 192720, Note_on_c, 1, 75, 58
3, 192864, Note_on_c, 1, 75, 0
3, 192960, Note_on_c, 1, 73, 58
3, 193104, Note_on_c, 1, 73, 0
3, 193200, Note_on_c, 1, 72, 58
3, 193344, Note_on_c, 1, 72, 0
3, 193440, Note_on_c, 1, 70, 58
3, 193584, Note_on_c, 1, 70, 0
3, 193680, Note_on_c, 1, 68, 58
3, 193824, Note_on_c, 1, 68, 0
3, 199680, Note_on_c, 1, 44, 105
3, 200640, Note_on_c, 1, 44, 0
3, 200640, Note_on_c, 1, 49, 105
3, 201600, Note_on_c, 1, 49, 0
3, 201600, Note_on_c, 1, 43, 105
3, 202560, Note_on_c, 1, 43, 0
3, 202560, Note_on_c, 1, 48, 105
3, 203520, Note_on_c, 1, 48, 0
3, 203520, Note_on_c, 1, 41, 105
3, 204288, Note_on_c, 1, 41, 0
3, 204480, Note_on_c, 1, 29, 125
3, 204480, Note_on_c, 1, 41, 125
3, 206400, Note_on_c, 1, 41, 0
3, 206400, Note_on_c, 1, 29, 0
3, 206400, Note_on_c, 1, 30, 105
3, 206400, Note_on_c, 1, 42, 105
3, 207360, Note_on_c, 1, 42, 0
3, 207360, Note_on_c, 1, 30, 0
3, 207480, Note_on_c, 1, 43, 72
3, 207600, Note_on_c, 1, 43, 0
3, 207600, Note_on_c, 1, 47, 72
3, 207720, Note_on_c, 1, 47, 0
3, 207720, Note_on_c, 1, 50, 72
3, 207840, Note_on_c, 1, 50, 0
3, 207840, Note_on_c, 1, 55, 72
3, 208128, Note_on_c, 1, 55, 0
3, 208440, Note_on_c, 1, 43, 72
3, 208560, Note_on_c, 1, 43, 0
3, 208560, Note_on_c, 1, 48, 72
3, 208680, Note_on_c, 1, 48, 0
3, 208680, Note_on_c, 1, 51, 72
3, 208800, Note_on_c, 1, 51, 0
3, 208800, Note_on_c, 1, 55, 72
3, 209088, Note_on_c, 1, 55, 0
3, 209400, Note_on_c, 1, 43, 72
3, 209520, Note_on_c, 1, 43, 0
3, 209520, Note_on_c, 1, 50, 72
3, 209640, Note_on_c, 1, 50, 0
3, 209640, Note_on_c, 1, 53, 72
3, 209760, Note_on_c, 1, 53, 0
3, 209760, Note_on_c, 1, 55, 72
3, 210048, Note_on_c, 1, 55, 0
3, 210360, Note_on_c, 1, 43, 72
3, 210480, Note_on_c, 1, 43, 0
3, 210480, Note_on_c, 1, 48, 72
3, 210600, Note_on_c, 1, 48, 0
3, 210600, Note_on_c, 1, 51, 72
3, 210720, Note_on_c, 1, 51, 0
3, 210720, Note_on_c, 1, 55, 72
3, 211008, Note_on_c, 1, 55, 0
3, 238080, Note_on_c, 1, 60, 58
3, 238320, Note_on_c, 1, 60, 0
3, 238320, Note_on_c, 1, 67, 58
3, 238560, Note_on_c, 1, 67, 0
3, 238560, Note_on_c, 1, 60, 58
3, 238560, Note_on_c, 1, 63, 58
3, 238800, Note_on_c, 1, 63, 0
3, 238800, Note_on_c, 1, 60, 0
3, 238800, Note_on_c, 1, 67, 58
3, 239040, Note_on_c, 1, 67, 0
3, 239040, Note_on_c, 1, 62, 58
3, 239040, Note_on_c, 1, 59, 58
3, 239280, Note_on_c, 1, 59, 0
3, 239280, Note_on_c, 1, 62, 0
3, 239280, Note_on_c, 1, 67, 58
3, 239520, Note_on_c, 1, 67, 0
3, 239520, Note_on_c, 1, 56, 58
3, 239520, Note_on_c, 1, 60, 58
3, 239760, Note_on_c, 1, 60, 0
3, 239760, Note_on_c, 1, 56, 0
3, 239760, Note_on_c, 1, 67, 58
3, 240000, Note_on_c, 1, 67, 0
3, 240000, Note_on_c, 1, 55, 58
3, 240240, Note_on_c, 1, 55, 0
3, 240240, Note_on_c, 1, 59, 58
3, 240480, Note_on_c, 1, 59, 0
3, 240480, Note_on_c, 1, 62, 58
3, 240720, Note_on_c, 1, 62, 0
3, 240720, Note_on_c, 1, 67, 58
3, 240960, Note_on_c, 1, 67, 0
3, 240960, Note_on_c, 1, 55, 58
3, 241200, Note_on_c, 1, 55, 0
3, 241200, Note_on_c, 1, 59, 58
3, 241440, Note_on_c, 1, 59, 0
3, 241440, Note_on_c, 1, 62, 58
3, 241680, Note_on_c, 1, 62, 0
3, 241680, Note_on_c, 1, 67, 58
3, 241920, Note_on_c, 1, 67, 0
3, 241920, Note_on_c, 1, 53, 58
3, 242160, Note_on_c, 1, 53, 0
3, 242160, Note_on_c, 1, 56, 58
3, 242400, Note_on_c, 1, 56, 0
3, 242400, Note_on_c, 1, 59, 58
3, 242640, Note_on_c, 1, 59, 0
3, 242640, Note_on_c, 1, 62, 58
3, 242880, Note_on_c, 1, 62, 0
3, 242880, Note_on_c, 1, 53, 58
3, 243120, Note_on_c, 1, 53, 0
3, 243120, Note_on_c, 1, 56, 58
3, 243360, Note_on_c, 1, 56, 0
3, 243360, Note_on_c, 1, 59, 58
3, 243600, Note_on_c, 1, 59, 0
3, 243600, Note_on_c, 1, 62, 58
3, 243840, Note_on_c, 1, 62, 0
3, 243840, Note_on_c, 1, 51, 58
3, 244080, Note_on_c, 1, 51, 0
3, 244080, Note_on_c, 1, 55, 58
3, 244320, Note_on_c, 1, 55, 0
3, 244320, Note_on_c, 1, 60, 58
3, 244560, Note_on_c, 1, 60, 0
3, 244560, Note_on_c, 1, 63, 58
3, 244800, Note_on_c, 1, 63, 0
3, 244800, Note_on_c, 1, 56, 58
3, 245040, Note_on_c, 1, 56, 0
3, 245040, Note_on_c, 1, 60, 58
3, 245280, Note_on_c, 1, 60, 0
3, 245280, Note_on_c, 1, 63, 58
3, 245520, Note_on_c, 1, 63, 0
3, 245520, Note_on_c, 1, 66, 58
3, 245760, Note_on_c, 1, 66, 0
3, 245760, Note_on_c, 1, 55, 58
3, 246000, Note_on_c, 1, 55, 0
3, 246000, Note_on_c, 1, 60, 58
3, 246240, Note_on_c, 1, 60, 0
3, 246240, Note_on_c, 1, 63, 58
3, 246480, Note_on_c, 1, 63, 0
3, 246480, Note_on_c, 1, 67, 58
3, 246720, Note_on_c, 1, 67, 0
3, 246720, Note_on_c, 1, 55, 58
3, 246960, Note_on_c, 1, 55, 0
3, 246960, Note_on_c, 1, 59, 58
3, 247200, Note_on_c, 1, 59, 0
3, 247200, Note_on_c, 1, 62, 58
3, 247440, Note_on_c, 1, 62, 0
3, 247440, Note_on_c, 1, 67, 58
3, 247680, Note_on_c, 1, 67, 0
3, 249840, Note_on_c, 1, 59, 58
3, 250080, Note_on_c, 1, 59, 0
3, 250080, Note_on_c, 1, 62, 58
3, 250320, Note_on_c, 1, 62, 0
3, 250320, Note_on_c, 1, 65, 58
3, 250560, Note_on_c, 1, 65, 0
3, 250800, Note_on_c, 1, 77, 58
3, 251040, Note_on_c, 1, 77, 0
3, 251040, Note_on_c, 1, 74, 58
3, 251280, Note_on_c, 1, 74, 0
3, 251280, Note_on_c, 1, 71, 58
3, 251520, Note_on_c, 1, 71, 0
3, 251760, Note_on_c, 1, 60, 58
3, 252000, Note_on_c, 1, 60, 0
3, 252000, Note_on_c, 1, 63, 58
3, 252240, Note_on_c, 1, 63, 0
3, 252240, Note_on_c, 1, 67, 58
3, 252480, Note_on_c, 1, 67, 0
3, 252720, Note_on_c, 1, 79, 58
3, 252960, Note_on_c, 1, 79, 0
3, 252960, Note_on_c, 1, 75, 58
3, 253200, Note_on_c, 1, 75, 0
3, 253200, Note_on_c, 1, 72, 58
3, 253440, Note_on_c, 1, 72, 0
3, 253680, Note_on_c, 1, 64, 58
3, 253920, Note_on_c, 1, 64, 0
3, 253920, Note_on_c, 1, 67, 58
3, 254160, Note_on_c, 1, 67, 0
3, 254160, Note_on_c, 1, 70, 58
3, 254400, Note_on_c, 1, 70, 0
3, 254640, Note_on_c, 1, 82, 58
3, 254880, Note_on_c, 1, 82, 0
3, 254880, Note_on_c, 1, 79, 58
3, 255120, Note_on_c, 1, 79, 0
3, 255120, Note_on_c, 1, 76, 58
3, 255360, Note_on_c, 1, 76, 0
3, 257280, Note_on_c, 1, 56, 58
3, 257280, Note_on_c, 1, 60, 58
3, 257760, Note_on_c, 1, 60, 0
3, 257760, Note_on_c, 1, 65, 58
3, 258240, Note_on_c, 1, 65, 0
3, 258240, Note_on_c, 1, 56, 0
3, 258240, Note_on_c, 1, 56, 58
3, 258240, Note_on_c, 1, 60, 58
3, 258720, Note_on_c, 1, 60, 0
3, 258720, Note_on_c, 1, 66, 58
3, 259200, Note_on_c, 1, 66, 0
3, 259200, Note_on_c, 1, 56, 0
3, 259200, Note_on_c, 1, 55, 58
3, 259488, Note_on_c, 1, 55, 0
3, 259680, Note_on_c, 1, 67, 58
3, 260160, Note_on_c, 1, 67, 0
3, 260160, Note_on_c, 1, 65, 58
3, 260640, Note_on_c, 1, 65, 0
3, 260640, Note_on_c, 1, 67, 58
3, 261120, Note_on_c, 1, 67, 0
3, 261120, Note_on_c, 1, 64, 58
3, 261600, Note_on_c, 1, 64, 0
3, 261600, Note_on_c, 1, 67, 58
3, 262080, Note_on_c, 1, 67, 0
3, 262080, Note_on_c, 1, 59, 58
3, 262560, Note_on_c, 1, 59, 0
3, 262560, Note_on_c, 1, 67, 58
3, 263040, Note_on_c, 1, 67, 0
3, 263040, Note_on_c, 1, 60, 58
3, 263520, Note_on_c, 1, 60, 0
3, 263520, Note_on_c, 1, 67, 58
3, 264000, Note_on_c, 1, 67, 0
3, 264000, Note_on_c, 1, 74, 58
3, 264000, Note_on_c, 1, 65, 58
3, 264480, Note_on_c, 1, 65, 0
3, 264480, Note_on_c, 1, 67, 58
3, 264960, Note_on_c, 1, 67, 0
3, 264960, Note_on_c, 1, 74, 0
3, 264960, Note_on_c, 1, 64, 58
3, 264960, Note_on_c, 1, 72, 58
3, 265440, Note_on_c, 1, 64, 0
3, 265440, Note_on_c, 1, 67, 58
3, 265920, Note_on_c, 1, 67, 0
3, 265920, Note_on_c, 1, 72, 0
3, 265920, Note_on_c, 1, 77, 58
3, 265920, Note_on_c, 1, 59, 58
3, 266208, Note_on_c, 1, 77, 0
3, 266400, Note_on_c, 1, 59, 0
3, 266400, Note_on_c, 1, 77, 58
3, 266400, Note_on_c, 1, 67, 58
3, 266688, Note_on_c, 1, 77, 0
3, 266880, Note_on_c, 1, 67, 0
3, 266880, Note_on_c, 1, 60, 58
3, 266880, Note_on_c, 1, 77, 58
3, 267120, Note_on_c, 1, 77, 0
3, 267120, Note_on_c, 1, 76, 58
3, 267360, Note_on_c, 1, 76, 0
3, 267360, Note_on_c, 1, 60, 0
3, 267360, Note_on_c, 1, 67, 58
3, 267360, Note_on_c, 1, 74, 58
3, 267600, Note_on_c, 1, 74, 0
3, 267600, Note_on_c, 1, 72, 58
3, 267840, Note_on_c, 1, 72, 0
3, 267840, Note_on_c, 1, 67, 0
3, 267840, Note_on_c, 1, 72, 58
3, 267840, Note_on_c, 1, 65, 58
3, 268080, Note_on_c, 1, 72, 0
3, 268080, Note_on_c, 1, 71, 58
3, 268320, Note_on_c, 1, 71, 0
3, 268320, Note_on_c, 1, 65, 0
3, 268320, Note_on_c, 1, 69, 58
3, 268320, Note_on_c, 1, 67, 58
3, 268560, Note_on_c, 1, 69, 0
3, 268560, Note_on_c, 1, 71, 58
3, 268800, Note_on_c, 1, 71, 0
3, 268800, Note_on_c, 1, 67, 0
3, 268800, Note_on_c, 1, 64, 58
3, 268800, Note_on_c, 1, 72, 58
3, 268992, Note_on_c, 1, 72, 0
3, 269280, Note_on_c, 1, 64, 0
3, 269280, Note_on_c, 1, 67, 58
3, 269760, Note_on_c, 1, 67, 0
3, 269760, Note_on_c, 1, 59, 58
3, 270240, Note_on_c, 1, 59, 0
3, 270240, Note_on_c, 1, 67, 58
3, 270720, Note_on_c, 1, 67, 0
3, 270720, Note_on_c, 1, 60, 58
3, 271200, Note_on_c, 1, 60, 0
3, 271200, Note_on_c, 1, 67, 58
3, 271680, Note_on_c, 1, 67, 0
3, 271680, Note_on_c, 1, 64, 58
3, 271680, Note_on_c, 1, 72, 58
3, 272160, Note_on_c, 1, 72, 0
3, 272160, Note_on_c, 1, 67, 60
3, 272448, Note_on_c, 1, 64, 0
3, 272640, Note_on_c, 1, 67, 0
3, 272640, Note_on_c, 1, 65, 64
3, 272640, Note_on_c, 1, 72, 64
3, 273120, Note_on_c, 1, 72, 0
3, 273120, Note_on_c, 1, 69, 67
3, 273408, Note_on_c, 1, 65, 0
3, 273600, Note_on_c, 1, 69, 0
3, 273600, Note_on_c, 1, 65, 71
3, 273600, Note_on_c, 1, 73, 71
3, 274080, Note_on_c, 1, 73, 0
3, 274080, Note_on_c, 1, 69, 75
3, 274368, Note_on_c, 1, 65, 0
3, 274560, Note_on_c, 1, 69, 0
3, 274560, Note_on_c, 1, 65, 79
3, 274560, Note_on_c, 1, 74, 79
3, 274944, Note_on_c, 1, 65, 0
3, 275040, Note_on_c, 1, 74, 0
3, 275040, Note_on_c, 1, 69, 82
3, 275520, Note_on_c, 1, 69, 0
3, 275520, Note_on_c, 1, 65, 86
3, 276000, Note_on_c, 1, 65, 0
3, 276000, Note_on_c, 1, 66, 90
3, 276480, Note_on_c, 1, 66, 0
3, 276480, Note_on_c, 1, 67, 92
3, 276672, Note_on_c, 1, 67, 0
3, 277600, Note_on_c, 1, 62, 92
3, 277760, Note_on_c, 1, 62, 0
3, 277760, Note_on_c, 1, 64, 92
3, 277920, Note_on_c, 1, 64, 0
3, 277920, Note_on_c, 1, 66, 92
3, 278080, Note_on_c, 1, 66, 0
3, 278080, Note_on_c, 1, 64, 92
3, 278240, Note_on_c, 1, 64, 0
3, 278240, Note_on_c, 1, 62, 92
3, 278400, Note_on_c, 1, 62, 0
3, 278400, Note_on_c, 1, 67, 92
3, 278592, Note_on_c, 1, 67, 0
3, 279520, Note_on_c, 1, 62, 92
3, 279680, Note_on_c, 1, 62, 0
3, 279680, Note_on_c, 1, 64, 92
3, 279840, Note_on_c, 1, 64, 0
3, 279840, Note_on_c, 1, 66, 92
3, 280000, Note_on_c, 1, 66, 0
3, 280000, Note_on_c, 1, 64, 92
3, 280160, Note_on_c, 1, 64, 0
3, 280160, Note_on_c, 1, 62, 92
3, 280320, Note_on_c, 1, 62, 0
3, 280320, Note_on_c, 1, 67, 92
3, 280512, Note_on_c, 1, 67, 0
3, 281280, Note_on_c, 1, 67, 92
3, 281664, Note_on_c, 1, 67, 0
3, 282240, Note_on_c, 1, 65, 92
3, 282624, Note_on_c, 1, 65, 0
3, 297600, Note_on_c, 1, 65, 58
3, 297600, Note_on_c, 1, 67, 58
3, 298056, Note_on_c, 1, 67, 0
3, 298056, Note_on_c, 1, 65, 0
3, 298080, Note_on_c, 1, 65, 58
3, 298080, Note_on_c, 1, 67, 58
3, 298536, Note_on_c, 1, 67, 0
3, 298536, Note_on_c, 1, 65, 0
3, 298560, Note_on_c, 1, 65, 58
3, 298560, Note_on_c, 1, 67, 58
3, 299016, Note_on_c, 1, 67, 0
3, 299016, Note_on_c, 1, 65, 0
3, 299040, Note_on_c, 1, 65, 58
3, 299040, Note_on_c, 1, 67, 58
3, 299496, Note_on_c, 1, 67, 0
3, 299496, Note_on_c, 1, 65, 0
3, 299520, Note_on_c, 1, 67, 58
3, 299520, Note_on_c, 1, 64, 58
3, 300888, Note_on_c, 1, 64, 0
3, 300888, Note_on_c, 1, 67, 0
3, 300960, Note_on_c, 1, 64, 58
3, 301344, Note_on_c, 1, 64, 0
3, 301440, Note_on_c, 1, 69, 58
3, 302064, Note_on_c, 1, 69, 0
3, 302400, Note_on_c, 1, 69, 58
3, 303024, Note_on_c, 1, 69, 0
3, 303360, Note_on_c, 1, 67, 58
3, 303744, Note_on_c, 1, 67, 0
3, 305280, Note_on_c, 1, 59, 58
3, 305280, Note_on_c, 1, 53, 58
3, 305280, Note_on_c, 1, 55, 58
3, 305664, Note_on_c, 1, 59, 0
3, 305736, Note_on_c, 1, 55, 0
3, 305736, Note_on_c, 1, 53, 0
3, 305760, Note_on_c, 1, 55, 58
3, 305760, Note_on_c, 1, 59, 58
3, 305760, Note_on_c, 1, 53, 58
3, 306144, Note_on_c, 1, 59, 0
3, 306216, Note_on_c, 1, 53, 0
3, 306216, Note_on_c, 1, 55, 0
3, 306240, Note_on_c, 1, 59, 58
3, 306240, Note_on_c, 1, 53, 58
3, 306240, Note_on_c, 1, 55, 58
3, 306624, Note_on_c, 1, 59, 0
3, 306696, Note_on_c, 1, 55, 0
3, 306696, Note_on_c, 1, 53, 0
3, 306720, Note_on_c, 1, 55, 58
3, 306720, Note_on_c, 1, 53, 58
3, 306720, Note_on_c, 1, 59, 58
3, 307104, Note_on_c, 1, 59, 0
3, 307176, Note_on_c, 1, 53, 0
3, 307176, Note_on_c, 1, 55, 0
3, 307200, Note_on_c, 1, 51, 58
3, 307200, Note_on_c, 1, 55, 58
3, 307680, Note_on_c, 1, 59, 58
3, 308160, Note_on_c, 1, 59, 0
3, 308160, Note_on_c, 1, 60, 58
3, 308352, Note_on_c, 1, 55, 0
3, 308352, Note_on_c, 1, 51, 0
3, 308640, Note_on_c, 1, 51, 58
3, 309024, Note_on_c, 1, 51, 0
3, 309120, Note_on_c, 1, 56, 58
3, 309576, Note_on_c, 1, 56, 0
3, 309576, Note_on_c, 1, 60, 0
3, 309600, Note_on_c, 1, 60, 58
3, 309600, Note_on_c, 1, 56, 58
3, 310056, Note_on_c, 1, 56, 0
3, 310056, Note_on_c, 1, 60, 0
3, 310080, Note_on_c, 1, 56, 58
3, 310080, Note_on_c, 1, 62, 58
3, 310080, Note_on_c, 1, 58, 58
3, 310536, Note_on_c, 1, 58, 0
3, 310536, Note_on_c, 1, 62, 0
3, 310536, Note_on_c, 1, 56, 0
3, 310560, Note_on_c, 1, 58, 58
3, 310560, Note_on_c, 1, 56, 58
3, 310560, Note_on_c, 1, 62, 58
3, 311016, Note_on_c, 1, 56, 0
3, 311016, Note_on_c, 1, 58, 0
3, 311040, Note_on_c, 1, 58, 58
3, 311040, Note_on_c, 1, 55, 58
3, 311424, Note_on_c, 1, 62, 0
3, 311520, Note_on_c, 1, 62, 58
3, 312000, Note_on_c, 1, 62, 0
3, 312000, Note_on_c, 1, 63, 58
3, 312192, Note_on_c, 1, 55, 0
3, 312192, Note_on_c, 1, 58, 0
3, 312480, Note_on_c, 1, 55, 58
3, 312864, Note_on_c, 1, 55, 0
3, 312960, Note_on_c, 1, 60, 58
3, 313416, Note_on_c, 1, 60, 0
3, 313416, Note_on_c, 1, 63, 0
3, 313440, Note_on_c, 1, 66, 58
3, 313440, Note_on_c, 1, 60, 58
3, 313440, Note_on_c, 1, 63, 58
3, 313896, Note_on_c, 1, 63, 0
3, 313896, Note_on_c, 1, 60, 0
3, 313896, Note_on_c, 1, 66, 0
3, 313920, Note_on_c, 1, 66, 58
3, 313920, Note_on_c, 1, 60, 58
3, 313920, Note_on_c, 1, 63, 58
3, 314376, Note_on_c, 1, 63, 0
3, 314376, Note_on_c, 1, 60, 0
3, 314376, Note_on_c, 1, 66, 0
3, 314400, Note_on_c, 1, 66, 58
3, 314400, Note_on_c, 1, 63, 58
3, 314400, Note_on_c, 1, 60, 58
3, 314856, Note_on_c, 1, 60, 0
3, 314856, Note_on_c, 1, 63, 0
3, 314880, Note_on_c, 1, 59, 52
3, 314880, Note_on_c, 1, 62, 52
3, 315264, Note_on_c, 1, 66, 0
3, 315360, Note_on_c, 1, 66, 55
3, 315840, Note_on_c, 1, 66, 0
3, 315840, Note_on_c, 1, 67, 60
3, 316224, Note_on_c, 1, 67, 0
3, 316248, Note_on_c, 1, 62, 0
3, 316248, Note_on_c, 1, 59, 0
3, 316320, Note_on_c, 1, 63, 63
3, 316320, Note_on_c, 1, 60, 63
3, 316320, Note_on_c, 1, 66, 63
3, 316800, Note_on_c, 1, 60, 0
3, 316800, Note_on_c, 1, 63, 0
3, 316800, Note_on_c, 1, 59, 69
3, 316800, Note_on_c, 1, 62, 69
3, 317184, Note_on_c, 1, 66, 0
3, 317280, Note_on_c, 1, 66, 63
3, 317760, Note_on_c, 1, 66, 0
3, 317760, Note_on_c, 1, 67, 59
3, 318144, Note_on_c, 1, 67, 0
3, 318168, Note_on_c, 1, 62, 0
3, 318168, Note_on_c, 1, 59, 0
3, 318240, Note_on_c, 1, 65, 54
3, 318240, Note_on_c, 1, 68, 54
3, 318240, Note_on_c, 1, 71, 54
3, 318720, Note_on_c, 1, 68, 0
3, 318720, Note_on_c, 1, 65, 0
3, 318720, Note_on_c, 1, 63, 52
3, 318720, Note_on_c, 1, 67, 52
3, 319104, Note_on_c, 1, 71, 0
3, 319200, Note_on_c, 1, 71, 55
3, 319680, Note_on_c, 1, 71, 0
3, 319680, Note_on_c, 1, 72, 61
3, 320064, Note_on_c, 1, 72, 0
3, 320088, Note_on_c, 1, 67, 0
3, 320088, Note_on_c, 1, 63, 0
3, 320160, Note_on_c, 1, 65, 65
3, 320160, Note_on_c, 1, 68, 65
3, 320160, Note_on_c, 1, 71, 65
3, 320640, Note_on_c, 1, 68, 0
3, 320640, Note_on_c, 1, 65, 0
3, 320640, Note_on_c, 1, 63, 70
3, 320640, Note_on_c, 1, 67, 70
3, 321024, Note_on_c, 1, 71, 0
3, 321120, Note_on_c, 1, 71, 63
3, 321600, Note_on_c, 1, 71, 0
3, 321600, Note_on_c, 1, 72, 59
3, 321984, Note_on_c, 1, 72, 0
3, 322008, Note_on_c, 1, 67, 0
3, 322008, Note_on_c, 1, 63, 0
3, 322080, Note_on_c, 1, 65, 53
3, 322080, Note_on_c, 1, 68, 53
3, 322080, Note_on_c, 1, 71, 53
3, 322560, Note_on_c, 1, 68, 0
3, 322560, Note_on_c, 1, 65, 0
3, 323040, Note_on_c, 1, 71, 0
3, 323040, Note_on_c, 1, 70, 53
3, 323520, Note_on_c, 1, 70, 0
3, 323520, Note_on_c, 1, 71, 53
3, 324000, Note_on_c, 1, 71, 0
3, 324000, Note_on_c, 1, 74, 52
3, 324480, Note_on_c, 1, 74, 0
3, 324960, Note_on_c, 1, 70, 51
3, 325440, Note_on_c, 1, 70, 0
3, 325440, Note_on_c, 1, 71, 50
3, 325920, Note_on_c, 1, 71, 0
3, 325920, Note_on_c, 1, 74, 50
3, 326400, Note_on_c, 1, 74, 0
3, 326880, Note_on_c, 1, 70, 49
3, 327360, Note_on_c, 1, 70, 0
3, 327360, Note_on_c, 1, 71, 48
3, 327840, Note_on_c, 1, 71, 0
3, 327840, Note_on_c, 1, 74, 47
3, 328800, Note_on_c, 1, 74, 0
3, 328800, Note_on_c, 1, 70, 46
3, 329280, Note_on_c, 1, 70, 0
3, 329280, Note_on_c, 1, 71, 46
3, 330240, Note_on_c, 1, 71, 0
3, 391680, Note_on_c, 1, 51, 57
3, 392640, Note_on_c, 1, 51, 0
3, 392640, Note_on_c, 1, 49, 57
3, 393600, Note_on_c, 1, 49, 0
3, 393600, Note_on_c, 1, 48, 52
3, 393984, Note_on_c, 1, 48, 0
3, 395520, Note_on_c, 1, 63, 58
3, 396480, Note_on_c, 1, 63, 0
3, 396480, Note_on_c, 1, 61, 58
3, 397440, Note_on_c, 1, 61, 0
3, 397440, Note_on_c, 1, 60, 50
3, 397824, Note_on_c, 1, 60, 0
3, 399360, Note_on_c, 1, 68, 47
3, 399648, Note_on_c, 1, 68, 0
3, 401280, Note_on_c, 1, 67, 40
3, 401568, Note_on_c, 1, 67, 0
3, 401568, End_track
4, 0, Start_track
4, 0, Sequencer_specific, 04, 43, 00, 01, 00
4, 0, Program_c, 2, 0
4, 0, Control_c, 2, 7, 123
4, 0, Control_c, 2, 91, 110
4, 3840, Note_on_c, 2, 48, 58
4, 4080, Note_on_c, 2, 48, 0
4, 4080, Note_on_c, 2, 51, 58
4, 4320, Note_on_c, 2, 51, 0
4, 4320, Note_on_c, 2, 55, 58
4, 4560, Note_on_c, 2, 55, 0
4, 4560, Note_on_c, 2, 60, 58
4, 4800, Note_on_c, 2, 60, 0
4, 4800, Note_on_c, 2, 48, 58
4, 5040, Note_on_c, 2, 48, 0
4, 5040, Note_on_c, 2, 53, 58
4, 5280, Note_on_c, 2, 53, 0
4, 5280, Note_on_c, 2, 55, 58
4, 5520, Note_on_c, 2, 55, 0
4, 5520, Note_on_c, 2, 59, 58
4, 5760, Note_on_c, 2, 59, 0
4, 5760, Note_on_c, 2, 48, 58
4, 6000, Note_on_c, 2, 48, 0
4, 6000, Note_on_c, 2, 51, 58
4, 6240, Note_on_c, 2, 51, 0
4, 6240, Note_on_c, 2, 55, 58
4, 6480, Note_on_c, 2, 55, 0
4, 6480, Note_on_c, 2, 60, 58
4, 6720, Note_on_c, 2, 60, 0
4, 6720, Note_on_c, 2, 63, 58
4, 6960, Note_on_c, 2, 63, 0
4, 6960, Note_on_c, 2, 67, 58
4, 7200, Note_on_c, 2, 67, 0
4, 7200, Note_on_c, 2, 63, 58
4, 7440, Note_on_c, 2, 63, 0
4, 7440, Note_on_c, 2, 62, 58
4, 7680, Note_on_c, 2, 62, 0
4, 7680, Note_on_c, 2, 60, 58
4, 7920, Note_on_c, 2, 60, 0
4, 7920, Note_on_c, 2, 67, 58
4, 8160, Note_on_c, 2, 67, 0
4, 8160, Note_on_c, 2, 60, 58
4, 8160, Note_on_c, 2, 63, 58
4, 8400, Note_on_c, 2, 63, 0
4, 8400, Note_on_c, 2, 60, 0
4, 8400, Note_on_c, 2, 67, 58
4, 8640, Note_on_c, 2, 67, 0
4, 8640, Note_on_c, 2, 59, 58
4, 8640, Note_on_c, 2, 62, 58
4, 8880, Note_on_c, 2, 62, 0
4, 8880, Note_on_c, 2, 59, 0
4, 8880, Note_on_c, 2, 67, 58
4, 9120, Note_on_c, 2, 67, 0
4, 9120, Note_on_c, 2, 56, 58
4, 9120, Note_on_c, 2, 60, 58
4, 9360, Note_on_c, 2, 60, 0
4, 9360, Note_on_c, 2, 56, 0
4, 9360, Note_on_c, 2, 67, 58
4, 9600, Note_on_c, 2, 67, 0
4, 9600, Note_on_c, 2, 55, 58
4, 9840, Note_on_c, 2, 55, 0
4, 9840, Note_on_c, 2, 59, 58
4, 10080, Note_on_c, 2, 59, 0
4, 10080, Note_on_c, 2, 62, 58
4, 10320, Note_on_c, 2, 62, 0
4, 10320, Note_on_c, 2, 67, 58
4, 10560, Note_on_c, 2, 67, 0
4, 10560, Note_on_c, 2, 55, 58
4, 10800, Note_on_c, 2, 55, 0
4, 10800, Note_on_c, 2, 59, 58
4, 11040, Note_on_c, 2, 59, 0
4, 11040, Note_on_c, 2, 62, 58
4, 11280, Note_on_c, 2, 62, 0
4, 11280, Note_on_c, 2, 67, 58
4, 11520, Note_on_c, 2, 67, 0
4, 11520, Note_on_c, 2, 53, 58
4, 11760, Note_on_c, 2, 53, 0
4, 11760, Note_on_c, 2, 56, 58
4, 12000, Note_on_c, 2, 56, 0
4, 12000, Note_on_c, 2, 59, 58
4, 12240, Note_on_c, 2, 59, 0
4, 12240, Note_on_c, 2, 62, 58
4, 12480, Note_on_c, 2, 62, 0
4, 12480, Note_on_c, 2, 53, 58
4, 12720, Note_on_c, 2, 53, 0
4, 12720, Note_on_c, 2, 56, 58
4, 12960, Note_on_c, 2, 56, 0
4, 12960, Note_on_c, 2, 59, 58
4, 13200, Note_on_c, 2, 59, 0
4, 13200, Note_on_c, 2, 62, 58
4, 13440, Note_on_c, 2, 62, 0
4, 13440, Note_on_c, 2, 51, 58
4, 13680, Note_on_c, 2, 51, 0
4, 13680, Note_on_c, 2, 55, 58
4, 13920, Note_on_c, 2, 55, 0
4, 13920, Note_on_c, 2, 60, 58
4, 14160, Note_on_c, 2, 60, 0
4, 14160, Note_on_c, 2, 63, 58
4, 14400, Note_on_c, 2, 63, 0
4, 14400, Note_on_c, 2, 56, 58
4, 14640, Note_on_c, 2, 56, 0
4, 14640, Note_on_c, 2, 60, 58
4, 14880, Note_on_c, 2, 60, 0
4, 14880, Note_on_c, 2, 63, 58
4, 15120, Note_on_c, 2, 63, 0
4, 15120, Note_on_c, 2, 68, 58
4, 15360, Note_on_c, 2, 68, 0
4, 15360, Note_on_c, 2, 55, 58
4, 15600, Note_on_c, 2, 55, 0
4, 15600, Note_on_c, 2, 60, 58
4, 15840, Note_on_c, 2, 60, 0
4, 15840, Note_on_c, 2, 63, 58
4, 16080, Note_on_c, 2, 63, 0
4, 16080, Note_on_c, 2, 67, 58
4, 16320, Note_on_c, 2, 67, 0
4, 16320, Note_on_c, 2, 55, 58
4, 16560, Note_on_c, 2, 55, 0
4, 16560, Note_on_c, 2, 59, 58
4, 16800, Note_on_c, 2, 59, 0
4, 16800, Note_on_c, 2, 62, 58
4, 17040, Note_on_c, 2, 62, 0
4, 17040, Note_on_c, 2, 67, 58
4, 17280, Note_on_c, 2, 67, 0
4, 17520, Note_on_c, 2, 48, 58
4, 17760, Note_on_c, 2, 48, 0
4, 17760, Note_on_c, 2, 51, 58
4, 18000, Note_on_c, 2, 51, 0
4, 18000, Note_on_c, 2, 55, 58
4, 18240, Note_on_c, 2, 55, 0
4, 18240, Note_on_c, 2, 60, 58
4, 18624, Note_on_c, 2, 60, 0
4, 19440, Note_on_c, 2, 41, 58
4, 19680, Note_on_c, 2, 41, 0
4, 19680, Note_on_c, 2, 47, 58
4, 19920, Note_on_c, 2, 47, 0
4, 19920, Note_on_c, 2, 50, 58
4, 20160, Note_on_c, 2, 50, 0
4, 20160, Note_on_c, 2, 53, 58
4, 20400, Note_on_c, 2, 53, 0
4, 20400, Note_on_c, 2, 56, 58
4, 20640, Note_on_c, 2, 56, 0
4, 20640, Note_on_c, 2, 55, 58
4, 20880, Note_on_c, 2, 55, 0
4, 20880, Note_on_c, 2, 53, 58
4, 21120, Note_on_c, 2, 53, 0
4, 21360, Note_on_c, 2, 39, 58
4, 21600, Note_on_c, 2, 39, 0
4, 21600, Note_on_c, 2, 43, 58
4, 21840, Note_on_c, 2, 43, 0
4, 21840, Note_on_c, 2, 48, 58
4, 22080, Note_on_c, 2, 48, 0
4, 22080, Note_on_c, 2, 51, 58
4, 22320, Note_on_c, 2, 51, 0
4, 22320, Note_on_c, 2, 55, 58
4, 22560, Note_on_c, 2, 55, 0
4, 22560, Note_on_c, 2, 56, 58
4, 22800, Note_on_c, 2, 56, 0
4, 22800, Note_on_c, 2, 54, 58
4, 23040, Note_on_c, 2, 54, 0
4, 23040, Note_on_c, 2, 43, 58
4, 23232, Note_on_c, 2, 43, 0
4, 23280, Note_on_c, 2, 55, 58
4, 23472, Note_on_c, 2, 55, 0
4, 23520, Note_on_c, 2, 60, 58
4, 23712, Note_on_c, 2, 60, 0
4, 23760, Note_on_c, 2, 55, 58
4, 23952, Note_on_c, 2, 55, 0
4, 24000, Note_on_c, 2, 43, 58
4, 24192, Note_on_c, 2, 43, 0
4, 24240, Note_on_c, 2, 55, 58
4, 24432, Note_on_c, 2, 55, 0
4, 24480, Note_on_c, 2, 59, 58
4, 24672, Note_on_c, 2, 59, 0
4, 24720, Note_on_c, 2, 55, 58
4, 24912, Note_on_c, 2, 55, 0
4, 24960, Note_on_c, 2, 48, 58
4, 25152, Note_on_c, 2, 48, 0
4, 25200, Note_on_c, 2, 60, 58
4, 25392, Note_on_c, 2, 60, 0
4, 25440, Note_on_c, 2, 59, 58
4, 25632, Note_on_c, 2, 59, 0
4, 25680, Note_on_c, 2, 60, 58
4, 25872, Note_on_c, 2, 60, 0
4, 25920, Note_on_c, 2, 52, 58
4, 26112, Note_on_c, 2, 52, 0
4, 26160, Note_on_c, 2, 60, 58
4, 26352, Note_on_c, 2, 60, 0
4, 26400, Note_on_c, 2, 55, 59
4, 26592, Note_on_c, 2, 55, 0
4, 26640, Note_on_c, 2, 60, 61
4, 26832, Note_on_c, 2, 60, 0
4, 26880, Note_on_c, 2, 53, 62
4, 27072, Note_on_c, 2, 53, 0
4, 27120, Note_on_c, 2, 60, 64
4, 27312, Note_on_c, 2, 60, 0
4, 27360, Note_on_c, 2, 56, 65
4, 27552, Note_on_c, 2, 56, 0
4, 27600, Note_on_c, 2, 60, 67
4, 27792, Note_on_c, 2, 60, 0
4, 27840, Note_on_c, 2, 55, 68
4, 28032, Note_on_c, 2, 55, 0
4, 28080, Note_on_c, 2, 65, 70
4, 28272, Note_on_c, 2, 65, 0
4, 28320, Note_on_c, 2, 59, 71
4, 28512, Note_on_c, 2, 59, 0
4, 28560, Note_on_c, 2, 65, 73
4, 28752, Note_on_c, 2, 65, 0
4, 28800, Note_on_c, 2, 56, 74
4, 28992, Note_on_c, 2, 56, 0
4, 29040, Note_on_c, 2, 63, 76
4, 29232, Note_on_c, 2, 63, 0
4, 29280, Note_on_c, 2, 60, 77
4, 29472, Note_on_c, 2, 60, 0
4, 29520, Note_on_c, 2, 63, 79
4, 29712, Note_on_c, 2, 63, 0
4, 29760, Note_on_c, 2, 55, 80
4, 29952, Note_on_c, 2, 55, 0
4, 30000, Note_on_c, 2, 64, 82
4, 30192, Note_on_c, 2, 64, 0
4, 30240, Note_on_c, 2, 60, 83
4, 30432, Note_on_c, 2, 60, 0
4, 30480, Note_on_c, 2, 64, 84
4, 30672, Note_on_c, 2, 64, 0
4, 30720, Note_on_c, 2, 53, 86
4, 30912, Note_on_c, 2, 53, 0
4, 30960, Note_on_c, 2, 65, 87
4, 31152, Note_on_c, 2, 65, 0
4, 31200, Note_on_c, 2, 60, 89
4, 31392, Note_on_c, 2, 60, 0
4, 31440, Note_on_c, 2, 65, 90
4, 31632, Note_on_c, 2, 65, 0
4, 31680, Note_on_c, 2, 55, 92
4, 31872, Note_on_c, 2, 55, 0
4, 31920, Note_on_c, 2, 67, 93
4, 32112, Note_on_c, 2, 67, 0
4, 32160, Note_on_c, 2, 55, 95
4, 32352, Note_on_c, 2, 55, 0
4, 32400, Note_on_c, 2, 67, 96
4, 32592, Note_on_c, 2, 67, 0
4, 32640, Note_on_c, 2, 60, 98
4, 32928, Note_on_c, 2, 60, 0
4, 33120, Note_on_c, 2, 55, 108
4, 33120, Note_on_c, 2, 59, 108
4, 33408, Note_on_c, 2, 59, 0
4, 33408, Note_on_c, 2, 55, 0
4, 33600, Note_on_c, 2, 60, 108
4, 33600, Note_on_c, 2, 48, 108
4, 33888, Note_on_c, 2, 48, 0
4, 33888, Note_on_c, 2, 60, 0
4, 34080, Note_on_c, 2, 43, 108
4, 34080, Note_on_c, 2, 55, 108
4, 34368, Note_on_c, 2, 55, 0
4, 34368, Note_on_c, 2, 43, 0
4, 34560, Note_on_c, 2, 36, 108
4, 34560, Note_on_c, 2, 48, 108
4, 34848, Note_on_c, 2, 48, 0
4, 34848, Note_on_c, 2, 36, 0
4, 36480, Note_on_c, 2, 34, 110
4, 36480, Note_on_c, 2, 46, 110
4, 38400, Note_on_c, 2, 46, 0
4, 38400, Note_on_c, 2, 34, 0
4, 38400, Note_on_c, 2, 32, 58
4, 38400, Note_on_c, 2, 44, 58
4, 38784, Note_on_c, 2, 44, 0
4, 38784, Note_on_c, 2, 32, 0
4, 40800, Note_on_c, 2, 52, 58
4, 40800, Note_on_c, 2, 60, 58
4, 41184, Note_on_c, 2, 60, 0
4, 41184, Note_on_c, 2, 52, 0
4, 41280, Note_on_c, 2, 60, 58
4, 41280, Note_on_c, 2, 52, 58
4, 41664, Note_on_c, 2, 52, 0
4, 41664, Note_on_c, 2, 60, 0
4, 41760, Note_on_c, 2, 52, 58
4, 41760, Note_on_c, 2, 60, 58
4, 42144, Note_on_c, 2, 60, 0
4, 42144, Note_on_c, 2, 52, 0
4, 42240, Note_on_c, 2, 53, 58
4, 42240, Note_on_c, 2, 60, 58
4, 43392, Note_on_c, 2, 60, 0
4, 43392, Note_on_c, 2, 53, 0
4, 44160, Note_on_c, 2, 32, 105
4, 44160, Note_on_c, 2, 44, 105
4, 46080, Note_on_c, 2, 44, 0
4, 46080, Note_on_c, 2, 32, 0
4, 46080, Note_on_c, 2, 31, 58
4, 46080, Note_on_c, 2, 43, 58
4, 46464, Note_on_c, 2, 43, 0
4, 46464, Note_on_c, 2, 31, 0
4, 48480, Note_on_c, 2, 50, 58
4, 48480, Note_on_c, 2, 58, 58
4, 48864, Note_on_c, 2, 58, 0
4, 48864, Note_on_c, 2, 50, 0
4, 48960, Note_on_c, 2, 50, 58
4, 48960, Note_on_c, 2, 58, 58
4, 49344, Note_on_c, 2, 58, 0
4, 49344, Note_on_c, 2, 50, 0
4, 49440, Note_on_c, 2, 50, 58
4, 49440, Note_on_c, 2, 58, 58
4, 49824, Note_on_c, 2, 58, 0
4, 49824, Note_on_c, 2, 50, 0
4, 49920, Note_on_c, 2, 51, 58
4, 50160, Note_on_c, 2, 51, 0
4, 50160, Note_on_c, 2, 58, 58
4, 50400, Note_on_c, 2, 58, 0
4, 50400, Note_on_c, 2, 63, 58
4, 50640, Note_on_c, 2, 63, 0
4, 50640, Note_on_c, 2, 58, 58
4, 50880, Note_on_c, 2, 58, 0
4, 50880, Note_on_c, 2, 56, 58
4, 51120, Note_on_c, 2, 56, 0
4, 51120, Note_on_c, 2, 58, 58
4, 51360, Note_on_c, 2, 58, 0
4, 51360, Note_on_c, 2, 62, 58
4, 51600, Note_on_c, 2, 62, 0
4, 51600, Note_on_c, 2, 58, 58
4, 51840, Note_on_c, 2, 58, 0
4, 51840, Note_on_c, 2, 55, 58
4, 52080, Note_on_c, 2, 55, 0
4, 52080, Note_on_c, 2, 58, 58
4, 52320, Note_on_c, 2, 58, 0
4, 52320, Note_on_c, 2, 63, 58
4, 52560, Note_on_c, 2, 63, 0
4, 52560, Note_on_c, 2, 58, 58
4, 52800, Note_on_c, 2, 58, 0
4, 52800, Note_on_c, 2, 50, 58
4, 53040, Note_on_c, 2, 50, 0
4, 53040, Note_on_c, 2, 58, 58
4, 53280, Note_on_c, 2, 58, 0
4, 53280, Note_on_c, 2, 62, 58
4, 53520, Note_on_c, 2, 62, 0
4, 53520, Note_on_c, 2, 58, 58
4, 53760, Note_on_c, 2, 58, 0
4, 53760, Note_on_c, 2, 51, 58
4, 54000, Note_on_c, 2, 51, 0
4, 54000, Note_on_c, 2, 58, 58
4, 54240, Note_on_c, 2, 58, 0
4, 54240, Note_on_c, 2, 63, 58
4, 54480, Note_on_c, 2, 63, 0
4, 54480, Note_on_c, 2, 58, 58
4, 54720, Note_on_c, 2, 58, 0
4, 54720, Note_on_c, 2, 56, 58
4, 54960, Note_on_c, 2, 56, 0
4, 54960, Note_on_c, 2, 58, 58
4, 55200, Note_on_c, 2, 58, 0
4, 55200, Note_on_c, 2, 65, 58
4, 55440, Note_on_c, 2, 65, 0
4, 55440, Note_on_c, 2, 58, 58
4, 55680, Note_on_c, 2, 58, 0
4, 55680, Note_on_c, 2, 55, 58
4, 55920, Note_on_c, 2, 55, 0
4, 55920, Note_on_c, 2, 58, 58
4, 56160, Note_on_c, 2, 58, 0
4, 56160, Note_on_c, 2, 63, 58
4, 56400, Note_on_c, 2, 63, 0
4, 56400, Note_on_c, 2, 58, 58
4, 56640, Note_on_c, 2, 58, 0
4, 56640, Note_on_c, 2, 50, 58
4, 56880, Note_on_c, 2, 50, 0
4, 56880, Note_on_c, 2, 58, 58
4, 57120, Note_on_c, 2, 58, 0
4, 57120, Note_on_c, 2, 50, 58
4, 57360, Note_on_c, 2, 50, 0
4, 57360, Note_on_c, 2, 58, 58
4, 57600, Note_on_c, 2, 58, 0
4, 57600, Note_on_c, 2, 51, 58
4, 57840, Note_on_c, 2, 51, 0
4, 57840, Note_on_c, 2, 58, 58
4, 58080, Note_on_c, 2, 58, 0
4, 58080, Note_on_c, 2, 51, 58
4, 58320, Note_on_c, 2, 51, 0
4, 58320, Note_on_c, 2, 58, 58
4, 58560, Note_on_c, 2, 58, 0
4, 58560, Note_on_c, 2, 56, 58
4, 58800, Note_on_c, 2, 56, 0
4, 58800, Note_on_c, 2, 58, 58
4, 59040, Note_on_c, 2, 58, 0
4, 59040, Note_on_c, 2, 56, 58
4, 59280, Note_on_c, 2, 56, 0
4, 59280, Note_on_c, 2, 58, 58
4, 59520, Note_on_c, 2, 58, 0
4, 59520, Note_on_c, 2, 54, 58
4, 59760, Note_on_c, 2, 54, 0
4, 59760, Note_on_c, 2, 58, 58
4, 60000, Note_on_c, 2, 58, 0
4, 60000, Note_on_c, 2, 54, 58
4, 60240, Note_on_c, 2, 54, 0
4, 60240, Note_on_c, 2, 58, 58
4, 60480, Note_on_c, 2, 58, 0
4, 60480, Note_on_c, 2, 50, 58
4, 60720, Note_on_c, 2, 50, 0
4, 60720, Note_on_c, 2, 58, 58
4, 60960, Note_on_c, 2, 58, 0
4, 60960, Note_on_c, 2, 50, 58
4, 61200, Note_on_c, 2, 50, 0
4, 61200, Note_on_c, 2, 58, 58
4, 61440, Note_on_c, 2, 58, 0
4, 61440, Note_on_c, 2, 51, 58
4, 61680, Note_on_c, 2, 51, 0
4, 61680, Note_on_c, 2, 58, 58
4, 61920, Note_on_c, 2, 58, 0
4, 61920, Note_on_c, 2, 54, 58
4, 62160, Note_on_c, 2, 54, 0
4, 62160, Note_on_c, 2, 58, 56
4, 62400, Note_on_c, 2, 58, 0
4, 62400, Note_on_c, 2, 46, 56
4, 62640, Note_on_c, 2, 46, 0
4, 62640, Note_on_c, 2, 58, 57
4, 62880, Note_on_c, 2, 58, 0
4, 62880, Note_on_c, 2, 50, 58
4, 63120, Note_on_c, 2, 50, 0
4, 63120, Note_on_c, 2, 58, 60
4, 63360, Note_on_c, 2, 58, 0
4, 63360, Note_on_c, 2, 47, 62
4, 63600, Note_on_c, 2, 47, 0
4, 63600, Note_on_c, 2, 58, 65
4, 63840, Note_on_c, 2, 58, 0
4, 63840, Note_on_c, 2, 47, 69
4, 64080, Note_on_c, 2, 47, 0
4, 64080, Note_on_c, 2, 58, 73
4, 64320, Note_on_c, 2, 58, 0
4, 64320, Note_on_c, 2, 47, 78
4, 64560, Note_on_c, 2, 47, 0
4, 64560, Note_on_c, 2, 57, 83
4, 64800, Note_on_c, 2, 57, 0
4, 64800, Note_on_c, 2, 51, 88
4, 65040, Note_on_c, 2, 51, 0
4, 65040, Note_on_c, 2, 57, 95
4, 65280, Note_on_c, 2, 57, 0
4, 65280, Note_on_c, 2, 46, 58
4, 65664, Note_on_c, 2, 46, 0
4, 80640, Note_on_c, 2, 44, 72
4, 80800, Note_on_c, 2, 44, 0
4, 80800, Note_on_c, 2, 48, 72
4, 80960, Note_on_c, 2, 48, 0
4, 80960, Note_on_c, 2, 51, 72
4, 81120, Note_on_c, 2, 51, 0
4, 81120, Note_on_c, 2, 56, 72
4, 81504, Note_on_c, 2, 56, 0
4, 94080, Note_on_c, 2, 56, 58
4, 94080, Note_on_c, 2, 62, 58
4, 94536, Note_on_c, 2, 62, 0
4, 94536, Note_on_c, 2, 56, 0
4, 94560, Note_on_c, 2, 56, 58
4, 94560, Note_on_c, 2, 62, 58
4, 95016, Note_on_c, 2, 62, 0
4, 95016, Note_on_c, 2, 56, 0
4, 95040, Note_on_c, 2, 62, 58
4, 95040, Note_on_c, 2, 56, 58
4, 95496, Note_on_c, 2, 56, 0
4, 95496, Note_on_c, 2, 62, 0
4, 95520, Note_on_c, 2, 56, 58
4, 95520, Note_on_c, 2, 62, 58
4, 95976, Note_on_c, 2, 62, 0
4, 95976, Note_on_c, 2, 56, 0
4, 96000, Note_on_c, 2, 63, 75
4, 96000, Note_on_c, 2, 55, 75
4, 97920, Note_on_c, 2, 55, 0
4, 97920, Note_on_c, 2, 63, 0
4, 97920, Note_on_c, 2, 63, 104
4, 97920, Note_on_c, 2, 56, 104
4, 98304, Note_on_c, 2, 56, 0
4, 98304, Note_on_c, 2, 63, 0
4, 98880, Note_on_c, 2, 46, 105
4, 98880, Note_on_c, 2, 58, 105
4, 99264, Note_on_c, 2, 58, 0
4, 99264, Note_on_c, 2, 46, 0
4, 105760, Note_on_c, 2, 39, 72
4, 105920, Note_on_c, 2, 39, 0
4, 105920, Note_on_c, 2, 41, 72
4, 106080, Note_on_c, 2, 41, 0
4, 106080, Note_on_c, 2, 43, 72
4, 106240, Note_on_c, 2, 43, 0
4, 106240, Note_on_c, 2, 41, 72
4, 106400, Note_on_c, 2, 41, 0
4, 106400, Note_on_c, 2, 39, 72
4, 106560, Note_on_c, 2, 39, 0
4, 106560, Note_on_c, 2, 44, 92
4, 107520, Note_on_c, 2, 44, 0
4, 107520, Note_on_c, 2, 43, 72
4, 107680, Note_on_c, 2, 43, 0
4, 107680, Note_on_c, 2, 39, 72
4, 107840, Note_on_c, 2, 39, 0
4, 107840, Note_on_c, 2, 41, 72
4, 108000, Note_on_c, 2, 41, 0
4, 108000, Note_on_c, 2, 43, 72
4, 108160, Note_on_c, 2, 43, 0
4, 108160, Note_on_c, 2, 41, 72
4, 108320, Note_on_c, 2, 41, 0
4, 108320, Note_on_c, 2, 39, 72
4, 108480, Note_on_c, 2, 39, 0
4, 108480, Note_on_c, 2, 44, 92
4, 109440, Note_on_c, 2, 44, 0
4, 109440, Note_on_c, 2, 43, 72
4, 109600, Note_on_c, 2, 43, 0
4, 109600, Note_on_c, 2, 39, 72
4, 109760, Note_on_c, 2, 39, 0
4, 109760, Note_on_c, 2, 41, 72
4, 109920, Note_on_c, 2, 41, 0
4, 109920, Note_on_c, 2, 43, 72
4, 110080, Note_on_c, 2, 43, 0
4, 110080, Note_on_c, 2, 41, 72
4, 110240, Note_on_c, 2, 41, 0
4, 110240, Note_on_c, 2, 39, 72
4, 110400, Note_on_c, 2, 39, 0
4, 110400, Note_on_c, 2, 44, 92
4, 113184, Note_on_c, 2, 44, 0
4, 113280, Note_on_c, 2, 31, 120
4, 113280, Note_on_c, 2, 43, 120
4, 117024, Note_on_c, 2, 43, 0
4, 117024, Note_on_c, 2, 31, 0
4, 117120, Note_on_c, 2, 43, 124
4, 117120, Note_on_c, 2, 50, 124
4, 117120, Note_on_c, 2, 53, 124
4, 119808, Note_on_c, 2, 53, 0
4, 119808, Note_on_c, 2, 50, 0
4, 119808, Note_on_c, 2, 43, 0
4, 142080, Note_on_c, 2, 48, 58
4, 142272, Note_on_c, 2, 48, 0
4, 142320, Note_on_c, 2, 60, 58
4, 142512, Note_on_c, 2, 60, 0
4, 142560, Note_on_c, 2, 59, 58
4, 142752, Note_on_c, 2, 59, 0
4, 142800, Note_on_c, 2, 60, 58
4, 142992, Note_on_c, 2, 60, 0
4, 143040, Note_on_c, 2, 52, 56
4, 143232, Note_on_c, 2, 52, 0
4, 143280, Note_on_c, 2, 60, 57
4, 143472, Note_on_c, 2, 60, 0
4, 143520, Note_on_c, 2, 55, 58
4, 143712, Note_on_c, 2, 55, 0
4, 143760, Note_on_c, 2, 60, 60
4, 143952, Note_on_c, 2, 60, 0
4, 144000, Note_on_c, 2, 53, 61
4, 144192, Note_on_c, 2, 53, 0
4, 144240, Note_on_c, 2, 60, 63
4, 144432, Note_on_c, 2, 60, 0
4, 144480, Note_on_c, 2, 56, 64
4, 144672, Note_on_c, 2, 56, 0
4, 144720, Note_on_c, 2, 60, 66
4, 144912, Note_on_c, 2, 60, 0
4, 144960, Note_on_c, 2, 55, 67
4, 145152, Note_on_c, 2, 55, 0
4, 145200, Note_on_c, 2, 65, 68
4, 145392, Note_on_c, 2, 65, 0
4, 145440, Note_on_c, 2, 59, 70
4, 145632, Note_on_c, 2, 59, 0
4, 145680, Note_on_c, 2, 65, 71
4, 145872, Note_on_c, 2, 65, 0
4, 145920, Note_on_c, 2, 56, 73
4, 146112, Note_on_c, 2, 56, 0
4, 146160, Note_on_c, 2, 63, 74
4, 146352, Note_on_c, 2, 63, 0
4, 146400, Note_on_c, 2, 60, 76
4, 146592, Note_on_c, 2, 60, 0
4, 146640, Note_on_c, 2, 63, 77
4, 146832, Note_on_c, 2, 63, 0
4, 146880, Note_on_c, 2, 55, 78
4, 147072, Note_on_c, 2, 55, 0
4, 147120, Note_on_c, 2, 64, 80
4, 147312, Note_on_c, 2, 64, 0
4, 147360, Note_on_c, 2, 60, 81
4, 147552, Note_on_c, 2, 60, 0
4, 147600, Note_on_c, 2, 64, 83
4, 147792, Note_on_c, 2, 64, 0
4, 147840, Note_on_c, 2, 53, 84
4, 148032, Note_on_c, 2, 53, 0
4, 148080, Note_on_c, 2, 65, 86
4, 148272, Note_on_c, 2, 65, 0
4, 148320, Note_on_c, 2, 60, 87
4, 148512, Note_on_c, 2, 60, 0
4, 148560, Note_on_c, 2, 65, 88
4, 148752, Note_on_c, 2, 65, 0
4, 148800, Note_on_c, 2, 55, 90
4, 148992, Note_on_c, 2, 55, 0
4, 149040, Note_on_c, 2, 67, 91
4, 149232, Note_on_c, 2, 67, 0
4, 149280, Note_on_c, 2, 55, 93
4, 149472, Note_on_c, 2, 55, 0
4, 149520, Note_on_c, 2, 67, 94
4, 149712, Note_on_c, 2, 67, 0
4, 149760, Note_on_c, 2, 60, 96
4, 150048, Note_on_c, 2, 60, 0
4, 150240, Note_on_c, 2, 55, 105
4, 150240, Note_on_c, 2, 59, 105
4, 150528, Note_on_c, 2, 59, 0
4, 150528, Note_on_c, 2, 55, 0
4, 150720, Note_on_c, 2, 60, 105
4, 150720, Note_on_c, 2, 48, 105
4, 151008, Note_on_c, 2, 48, 0
4, 151008, Note_on_c, 2, 60, 0
4, 151200, Note_on_c, 2, 43, 105
4, 151200, Note_on_c, 2, 55, 105
4, 151488, Note_on_c, 2, 55, 0
4, 151488, Note_on_c, 2, 43, 0
4, 151680, Note_on_c, 2, 36, 105
4, 151680, Note_on_c, 2, 48, 105
4, 152064, Note_on_c, 2, 48, 0
4, 152064, Note_on_c, 2, 36, 0
4, 193920, Note_on_c, 2, 67, 58
4, 194064, Note_on_c, 2, 67, 0
4, 194160, Note_on_c, 2, 65, 58
4, 194304, Note_on_c, 2, 65, 0
4, 194400, Note_on_c, 2, 63, 58
4, 194544, Note_on_c, 2, 63, 0
4, 194640, Note_on_c, 2, 61, 58
4, 194784, Note_on_c, 2, 61, 0
4, 194880, Note_on_c, 2, 60, 58
4, 195024, Note_on_c, 2, 60, 0
4, 195120, Note_on_c, 2, 58, 58
4, 195264, Note_on_c, 2, 58, 0
4, 195360, Note_on_c, 2, 56, 58
4, 195504, Note_on_c, 2, 56, 0
4, 195600, Note_on_c, 2, 55, 58
4, 195744, Note_on_c, 2, 55, 0
4, 195840, Note_on_c, 2, 53, 58
4, 195984, Note_on_c, 2, 53, 0
4, 196080, Note_on_c, 2, 51, 59
4, 196224, Note_on_c, 2, 51, 0
4, 196320, Note_on_c, 2, 49, 61
4, 196464, Note_on_c, 2, 49, 0
4, 196560, Note_on_c, 2, 48, 64
4, 196704, Note_on_c, 2, 48, 0
4, 196800, Note_on_c, 2, 46, 67
4, 196944, Note_on_c, 2, 46, 0
4, 197040, Note_on_c, 2, 45, 69
4, 197184, Note_on_c, 2, 45, 0
4, 197280, Note_on_c, 2, 46, 72
4, 197424, Note_on_c, 2, 46, 0
4, 197520, Note_on_c, 2, 48, 74
4, 197664, Note_on_c, 2, 48, 0
4, 197760, Note_on_c, 2, 49, 77
4, 197904, Note_on_c, 2, 49, 0
4, 198000, Note_on_c, 2, 48, 80
4, 198144, Note_on_c, 2, 48, 0
4, 198240, Note_on_c, 2, 49, 82
4, 198384, Note_on_c, 2, 49, 0
4, 198480, Note_on_c, 2, 50, 85
4, 198624, Note_on_c, 2, 50, 0
4, 198720, Note_on_c, 2, 51, 87
4, 198864, Note_on_c, 2, 51, 0
4, 198960, Note_on_c, 2, 53, 90
4, 199104, Note_on_c, 2, 53, 0
4, 199200, Note_on_c, 2, 54, 92
4, 199344, Note_on_c, 2, 54, 0
4, 199440, Note_on_c, 2, 55, 95
4, 199584, Note_on_c, 2, 55, 0
4, 203520, Note_on_c, 2, 56, 105
4, 203664, Note_on_c, 2, 56, 0
4, 203760, Note_on_c, 2, 55, 105
4, 203904, Note_on_c, 2, 55, 0
4, 204000, Note_on_c, 2, 53, 105
4, 204144, Note_on_c, 2, 53, 0
4, 204240, Note_on_c, 2, 52, 105
4, 204384, Note_on_c, 2, 52, 0
4, 204480, Note_on_c, 2, 53, 125
4, 204624, Note_on_c, 2, 53, 0
4, 204720, Note_on_c, 2, 55, 116
4, 204864, Note_on_c, 2, 55, 0
4, 204960, Note_on_c, 2, 56, 116
4, 205104, Note_on_c, 2, 56, 0
4, 205200, Note_on_c, 2, 55, 116
4, 205344, Note_on_c, 2, 55, 0
4, 205440, Note_on_c, 2, 53, 116
4, 205584, Note_on_c, 2, 53, 0
4, 205680, Note_on_c, 2, 51, 116
4, 205824, Note_on_c, 2, 51, 0
4, 205920, Note_on_c, 2, 50, 105
4, 206064, Note_on_c, 2, 50, 0
4, 206160, Note_on_c, 2, 48, 105
4, 206304, Note_on_c, 2, 48, 0
4, 206400, Note_on_c, 2, 47, 105
4, 206544, Note_on_c, 2, 47, 0
4, 206640, Note_on_c, 2, 48, 105
4, 206784, Note_on_c, 2, 48, 0
4, 206880, Note_on_c, 2, 50, 105
4, 207024, Note_on_c, 2, 50, 0
4, 207120, Note_on_c, 2, 48, 105
4, 207264, Note_on_c, 2, 48, 0
4, 207360, Note_on_c, 2, 31, 105
4, 207648, Note_on_c, 2, 31, 0
4, 208080, Note_on_c, 2, 38, 72
4, 208200, Note_on_c, 2, 38, 0
4, 208200, Note_on_c, 2, 35, 72
4, 208320, Note_on_c, 2, 35, 0
4, 208320, Note_on_c, 2, 31, 72
4, 208608, Note_on_c, 2, 31, 0
4, 209040, Note_on_c, 2, 39, 72
4, 209160, Note_on_c, 2, 39, 0
4, 209160, Note_on_c, 2, 36, 72
4, 209280, Note_on_c, 2, 36, 0
4, 209280, Note_on_c, 2, 31, 72
4, 209568, Note_on_c, 2, 31, 0
4, 210000, Note_on_c, 2, 41, 72
4, 210120, Note_on_c, 2, 41, 0
4, 210120, Note_on_c, 2, 38, 70
4, 210240, Note_on_c, 2, 38, 0
4, 210240, Note_on_c, 2, 31, 71
4, 210528, Note_on_c, 2, 31, 0
4, 210960, Note_on_c, 2, 39, 76
4, 211080, Note_on_c, 2, 39, 0
4, 211080, Note_on_c, 2, 36, 77
4, 211200, Note_on_c, 2, 36, 0
4, 211200, Note_on_c, 2, 31, 77
4, 211488, Note_on_c, 2, 31, 0
4, 211920, Note_on_c, 2, 50, 82
4, 212040, Note_on_c, 2, 50, 0
4, 212040, Note_on_c, 2, 47, 83
4, 212160, Note_on_c, 2, 47, 0
4, 212160, Note_on_c, 2, 43, 84
4, 212448, Note_on_c, 2, 43, 0
4, 212880, Note_on_c, 2, 51, 89
4, 213000, Note_on_c, 2, 51, 0
4, 213000, Note_on_c, 2, 48, 90
4, 213120, Note_on_c, 2, 48, 0
4, 213120, Note_on_c, 2, 43, 90
4, 213408, Note_on_c, 2, 43, 0
4, 213840, Note_on_c, 2, 53, 95
4, 213960, Note_on_c, 2, 53, 0
4, 213960, Note_on_c, 2, 50, 96
4, 214080, Note_on_c, 2, 50, 0
4, 214080, Note_on_c, 2, 43, 97
4, 214368, Note_on_c, 2, 43, 0
4, 214800, Note_on_c, 2, 51, 102
4, 214920, Note_on_c, 2, 51, 0
4, 214920, Note_on_c, 2, 48, 103
4, 215040, Note_on_c, 2, 48, 0
4, 215040, Note_on_c, 2, 43, 103
4, 215328, Note_on_c, 2, 43, 0
4, 215760, Note_on_c, 2, 62, 108
4, 215880, Note_on_c, 2, 62, 0
4, 215880, Note_on_c, 2, 59, 109
4, 216000, Note_on_c, 2, 59, 0
4, 216000, Note_on_c, 2, 55, 110
4, 216288, Note_on_c, 2, 55, 0
4, 216720, Note_on_c, 2, 63, 115
4, 216840, Note_on_c, 2, 63, 0
4, 216840, Note_on_c, 2, 60, 116
4, 216960, Note_on_c, 2, 60, 0
4, 216960, Note_on_c, 2, 55, 116
4, 217248, Note_on_c, 2, 55, 0
4, 217680, Note_on_c, 2, 65, 121
4, 217800, Note_on_c, 2, 65, 0
4, 217800, Note_on_c, 2, 62, 122
4, 217920, Note_on_c, 2, 62, 0
4, 217920, Note_on_c, 2, 55, 123
4, 218208, Note_on_c, 2, 55, 0
4, 218640, Note_on_c, 2, 63, 121
4, 218760, Note_on_c, 2, 63, 0
4, 218760, Note_on_c, 2, 60, 121
4, 218880, Note_on_c, 2, 60, 0
4, 218880, Note_on_c, 2, 55, 105
4, 219264, Note_on_c, 2, 55, 0
4, 220320, Note_on_c, 2, 55, 105
4, 220448, Note_on_c, 2, 55, 0
4, 220480, Note_on_c, 2, 50, 105
4, 220608, Note_on_c, 2, 50, 0
4, 220640, Note_on_c, 2, 47, 105
4, 220768, Note_on_c, 2, 47, 0
4, 220800, Note_on_c, 2, 43, 105
4, 221088, Note_on_c, 2, 43, 0
4, 222240, Note_on_c, 2, 55, 105
4, 222368, Note_on_c, 2, 55, 0
4, 222400, Note_on_c, 2, 50, 105
4, 222528, Note_on_c, 2, 50, 0
4, 222560, Note_on_c, 2, 47, 105
4, 222688, Note_on_c, 2, 47, 0
4, 222720, Note_on_c, 2, 43, 105
4, 223008, Note_on_c, 2, 43, 0
4, 224160, Note_on_c, 2, 43, 105
4, 224288, Note_on_c, 2, 43, 0
4, 224320, Note_on_c, 2, 38, 106
4, 224448, Note_on_c, 2, 38, 0
4, 224480, Note_on_c, 2, 35, 108
4, 224608, Note_on_c, 2, 35, 0
4, 224640, Note_on_c, 2, 31, 110
4, 225024, Note_on_c, 2, 31, 0
4, 226560, Note_on_c, 2, 31, 120
4, 226560, Note_on_c, 2, 43, 120
4, 230304, Note_on_c, 2, 43, 0
4, 230304, Note_on_c, 2, 31, 0
4, 230400, Note_on_c, 2, 43, 120
4, 230400, Note_on_c, 2, 50, 120
4, 230400, Note_on_c, 2, 53, 120
4, 233088, Note_on_c, 2, 53, 0
4, 233088, Note_on_c, 2, 50, 0
4, 233088, Note_on_c, 2, 43, 0
4, 234240, Note_on_c, 2, 48, 58
4, 234480, Note_on_c, 2, 48, 0
4, 234480, Note_on_c, 2, 51, 58
4, 234720, Note_on_c, 2, 51, 0
4, 234720, Note_on_c, 2, 55, 58
4, 234960, Note_on_c, 2, 55, 0
4, 234960, Note_on_c, 2, 60, 58
4, 235200, Note_on_c, 2, 60, 0
4, 235200, Note_on_c, 2, 48, 58
4, 235440, Note_on_c, 2, 48, 0
4, 235440, Note_on_c, 2, 53, 58
4, 235680, Note_on_c, 2, 53, 0
4, 235680, Note_on_c, 2, 55, 58
4, 235920, Note_on_c, 2, 55, 0
4, 235920, Note_on_c, 2, 59, 58
4, 236160, Note_on_c, 2, 59, 0
4, 236160, Note_on_c, 2, 48, 58
4, 236400, Note_on_c, 2, 48, 0
4, 236400, Note_on_c, 2, 51, 58
4, 236640, Note_on_c, 2, 51, 0
4, 236640, Note_on_c, 2, 55, 58
4, 236880, Note_on_c, 2, 55, 0
4, 236880, Note_on_c, 2, 60, 58
4, 237120, Note_on_c, 2, 60, 0
4, 237120, Note_on_c, 2, 63, 58
4, 237360, Note_on_c, 2, 63, 0
4, 237360, Note_on_c, 2, 67, 58
4, 237600, Note_on_c, 2, 67, 0
4, 237600, Note_on_c, 2, 63, 58
4, 237840, Note_on_c, 2, 63, 0
4, 237840, Note_on_c, 2, 62, 58
4, 238080, Note_on_c, 2, 62, 0
4, 247920, Note_on_c, 2, 36, 72
4, 248160, Note_on_c, 2, 36, 0
4, 248160, Note_on_c, 2, 39, 72
4, 248400, Note_on_c, 2, 39, 0
4, 248400, Note_on_c, 2, 43, 72
4, 248640, Note_on_c, 2, 43, 0
4, 248640, Note_on_c, 2, 48, 72
4, 248880, Note_on_c, 2, 48, 0
4, 248880, Note_on_c, 2, 51, 72
4, 249120, Note_on_c, 2, 51, 0
4, 249120, Note_on_c, 2, 53, 72
4, 249360, Note_on_c, 2, 53, 0
4, 249360, Note_on_c, 2, 55, 72
4, 249600, Note_on_c, 2, 55, 0
4, 249600, Note_on_c, 2, 56, 72
4, 250560, Note_on_c, 2, 56, 0
4, 250560, Note_on_c, 2, 50, 72
4, 250848, Note_on_c, 2, 50, 0
4, 251040, Note_on_c, 2, 51, 72
4, 251280, Note_on_c, 2, 51, 0
4, 251280, Note_on_c, 2, 53, 72
4, 251520, Note_on_c, 2, 53, 0
4, 251520, Note_on_c, 2, 55, 72
4, 252480, Note_on_c, 2, 55, 0
4, 252480, Note_on_c, 2, 48, 72
4, 252768, Note_on_c, 2, 48, 0
4, 252960, Note_on_c, 2, 58, 72
4, 253200, Note_on_c, 2, 58, 0
4, 253200, Note_on_c, 2, 60, 72
4, 253440, Note_on_c, 2, 60, 0
4, 253440, Note_on_c, 2, 61, 72
4, 254400, Note_on_c, 2, 61, 0
4, 254400, Note_on_c, 2, 55, 72
4, 254688, Note_on_c, 2, 55, 0
4, 254880, Note_on_c, 2, 56, 72
4, 255120, Note_on_c, 2, 56, 0
4, 255120, Note_on_c, 2, 58, 72
4, 255360, Note_on_c, 2, 58, 0
4, 255360, Note_on_c, 2, 60, 72
4, 256320, Note_on_c, 2, 60, 0
4, 256320, Note_on_c, 2, 53, 58
4, 256608, Note_on_c, 2, 53, 0
4, 282240, Note_on_c, 2, 55, 81
4, 282240, Note_on_c, 2, 59, 81
4, 282240, Note_on_c, 2, 62, 81
4, 282624, Note_on_c, 2, 62, 0
4, 282624, Note_on_c, 2, 59, 0
4, 282624, Note_on_c, 2, 55, 0
4, 284160, Note_on_c, 2, 48, 92
4, 284544, Note_on_c, 2, 48, 0
4, 285280, Note_on_c, 2, 55, 92
4, 285440, Note_on_c, 2, 55, 0
4, 285440, Note_on_c, 2, 57, 92
4, 285600, Note_on_c, 2, 57, 0
4, 285600, Note_on_c, 2, 59, 92
4, 285760, Note_on_c, 2, 59, 0
4, 285760, Note_on_c, 2, 57, 92
4, 285920, Note_on_c, 2, 57, 0
4, 285920, Note_on_c, 2, 55, 92
4, 286080, Note_on_c, 2, 55, 0
4, 286080, Note_on_c, 2, 60, 92
4, 286464, Note_on_c, 2, 60, 0
4, 287200, Note_on_c, 2, 55, 92
4, 287360, Note_on_c, 2, 55, 0
4, 287360, Note_on_c, 2, 57, 92
4, 287520, Note_on_c, 2, 57, 0
4, 287520, Note_on_c, 2, 59, 92
4, 287680, Note_on_c, 2, 59, 0
4, 287680, Note_on_c, 2, 57, 92
4, 287840, Note_on_c, 2, 57, 0
4, 287840, Note_on_c, 2, 55, 92
4, 288000, Note_on_c, 2, 55, 0
4, 288000, Note_on_c, 2, 60, 92
4, 288384, Note_on_c, 2, 60, 0
4, 288960, Note_on_c, 2, 60, 92
4, 289344, Note_on_c, 2, 60, 0
4, 289920, Note_on_c, 2, 52, 92
4, 289920, Note_on_c, 2, 55, 92
4, 289920, Note_on_c, 2, 58, 92
4, 289920, Note_on_c, 2, 60, 92
4, 290304, Note_on_c, 2, 60, 0
4, 290304, Note_on_c, 2, 58, 0
4, 290304, Note_on_c, 2, 55, 0
4, 290304, Note_on_c, 2, 52, 0
4, 291840, Note_on_c, 2, 41, 92
4, 292000, Note_on_c, 2, 41, 0
4, 292000, Note_on_c, 2, 45, 92
4, 292160, Note_on_c, 2, 45, 0
4, 292160, Note_on_c, 2, 48, 92
4, 292320, Note_on_c, 2, 48, 0
4, 292320, Note_on_c, 2, 53, 92
4, 292800, Note_on_c, 2, 53, 0
4, 293760, Note_on_c, 2, 64, 81
4, 293760, Note_on_c, 2, 55, 81
4, 293760, Note_on_c, 2, 60, 81
4, 294144, Note_on_c, 2, 60, 0
4, 294144, Note_on_c, 2, 55, 0
4, 294144, Note_on_c, 2, 64, 0
4, 294720, Note_on_c, 2, 62, 81
4, 294720, Note_on_c, 2, 55, 81
4, 294720, Note_on_c, 2, 65, 81
4, 295104, Note_on_c, 2, 65, 0
4, 295104, Note_on_c, 2, 55, 0
4, 295104, Note_on_c, 2, 62, 0
4, 295680, Note_on_c, 2, 64, 81
4, 295680, Note_on_c, 2, 60, 81
4, 296064, Note_on_c, 2, 60, 0
4, 296064, Note_on_c, 2, 64, 0
4, 329760, Note_on_c, 2, 43, 58
4, 330144, Note_on_c, 2, 43, 0
4, 330240, Note_on_c, 2, 48, 58
4, 330480, Note_on_c, 2, 48, 0
4, 330480, Note_on_c, 2, 51, 58
4, 330720, Note_on_c, 2, 51, 0
4, 330720, Note_on_c, 2, 55, 58
4, 330960, Note_on_c, 2, 55, 0
4, 330960, Note_on_c, 2, 60, 58
4, 331200, Note_on_c, 2, 60, 0
4, 331200, Note_on_c, 2, 48, 58
4, 331440, Note_on_c, 2, 48, 0
4, 331440, Note_on_c, 2, 53, 58
4, 331680, Note_on_c, 2, 53, 0
4, 331680, Note_on_c, 2, 55, 58
4, 331920, Note_on_c, 2, 55, 0
4, 331920, Note_on_c, 2, 59, 58
4, 332160, Note_on_c, 2, 59, 0
4, 332160, Note_on_c, 2, 48, 58
4, 332400, Note_on_c, 2, 48, 0
4, 332400, Note_on_c, 2, 51, 58
4, 332640, Note_on_c, 2, 51, 0
4, 332640, Note_on_c, 2, 55, 58
4, 332880, Note_on_c, 2, 55, 0
4, 332880, Note_on_c, 2, 60, 58
4, 333120, Note_on_c, 2, 60, 0
4, 333120, Note_on_c, 2, 63, 58
4, 333360, Note_on_c, 2, 63, 0
4, 333360, Note_on_c, 2, 67, 58
4, 333600, Note_on_c, 2, 67, 0
4, 333600, Note_on_c, 2, 63, 58
4, 333840, Note_on_c, 2, 63, 0
4, 333840, Note_on_c, 2, 62, 58
4, 334080, Note_on_c, 2, 62, 0
4, 334080, Note_on_c, 2, 60, 58
4, 334320, Note_on_c, 2, 60, 0
4, 334320, Note_on_c, 2, 67, 58
4, 334560, Note_on_c, 2, 67, 0
4, 334560, Note_on_c, 2, 60, 58
4, 334560, Note_on_c, 2, 63, 58
4, 334800, Note_on_c, 2, 63, 0
4, 334800, Note_on_c, 2, 60, 0
4, 334800, Note_on_c, 2, 67, 58
4, 335040, Note_on_c, 2, 67, 0
4, 335040, Note_on_c, 2, 62, 58
4, 335040, Note_on_c, 2, 59, 58
4, 335280, Note_on_c, 2, 59, 0
4, 335280, Note_on_c, 2, 62, 0
4, 335280, Note_on_c, 2, 67, 58
4, 335520, Note_on_c, 2, 67, 0
4, 335520, Note_on_c, 2, 56, 58
4, 335520, Note_on_c, 2, 60, 58
4, 335760, Note_on_c, 2, 60, 0
4, 335760, Note_on_c, 2, 56, 0
4, 335760, Note_on_c, 2, 67, 58
4, 336000, Note_on_c, 2, 67, 0
4, 336000, Note_on_c, 2, 55, 58
4, 336240, Note_on_c, 2, 55, 0
4, 336240, Note_on_c, 2, 59, 58
4, 336480, Note_on_c, 2, 59, 0
4, 336480, Note_on_c, 2, 62, 58
4, 336720, Note_on_c, 2, 62, 0
4, 336720, Note_on_c, 2, 67, 58
4, 336960, Note_on_c, 2, 67, 0
4, 336960, Note_on_c, 2, 55, 58
4, 337200, Note_on_c, 2, 55, 0
4, 337200, Note_on_c, 2, 59, 58
4, 337440, Note_on_c, 2, 59, 0
4, 337440, Note_on_c, 2, 62, 58
4, 337680, Note_on_c, 2, 62, 0
4, 337680, Note_on_c, 2, 67, 58
4, 337920, Note_on_c, 2, 67, 0
4, 337920, Note_on_c, 2, 53, 58
4, 338160, Note_on_c, 2, 53, 0
4, 338160, Note_on_c, 2, 56, 58
4, 338400, Note_on_c, 2, 56, 0
4, 338400, Note_on_c, 2, 59, 58
4, 338640, Note_on_c, 2, 59, 0
4, 338640, Note_on_c, 2, 62, 58
4, 338880, Note_on_c, 2, 62, 0
4, 338880, Note_on_c, 2, 53, 58
4, 339120, Note_on_c, 2, 53, 0
4, 339120, Note_on_c, 2, 56, 58
4, 339360, Note_on_c, 2, 56, 0
4, 339360, Note_on_c, 2, 59, 58
4, 339600, Note_on_c, 2, 59, 0
4, 339600, Note_on_c, 2, 62, 58
4, 339840, Note_on_c, 2, 62, 0
4, 339840, Note_on_c, 2, 51, 58
4, 340080, Note_on_c, 2, 51, 0
4, 340080, Note_on_c, 2, 55, 58
4, 340320, Note_on_c, 2, 55, 0
4, 340320, Note_on_c, 2, 60, 58
4, 340560, Note_on_c, 2, 60, 0
4, 340560, Note_on_c, 2, 63, 58
4, 340800, Note_on_c, 2, 63, 0
4, 340800, Note_on_c, 2, 56, 58
4, 341040, Note_on_c, 2, 56, 0
4, 341040, Note_on_c, 2, 60, 58
4, 341280, Note_on_c, 2, 60, 0
4, 341280, Note_on_c, 2, 63, 58
4, 341520, Note_on_c, 2, 63, 0
4, 341520, Note_on_c, 2, 66, 58
4, 341760, Note_on_c, 2, 66, 0
4, 341760, Note_on_c, 2, 55, 58
4, 342000, Note_on_c, 2, 55, 0
4, 342000, Note_on_c, 2, 60, 58
4, 342240, Note_on_c, 2, 60, 0
4, 342240, Note_on_c, 2, 63, 58
4, 342480, Note_on_c, 2, 63, 0
4, 342480, Note_on_c, 2, 67, 58
4, 342720, Note_on_c, 2, 67, 0
4, 342720, Note_on_c, 2, 55, 58
4, 342960, Note_on_c, 2, 55, 0
4, 342960, Note_on_c, 2, 59, 58
4, 343200, Note_on_c, 2, 59, 0
4, 343200, Note_on_c, 2, 62, 58
4, 343440, Note_on_c, 2, 62, 0
4, 343440, Note_on_c, 2, 67, 58
4, 343680, Note_on_c, 2, 67, 0
4, 343680, Note_on_c, 2, 60, 58
4, 344064, Note_on_c, 2, 60, 0
4, 345600, Note_on_c, 2, 41, 57
4, 345840, Note_on_c, 2, 41, 0
4, 345840, Note_on_c, 2, 44, 58
4, 346080, Note_on_c, 2, 44, 0
4, 346080, Note_on_c, 2, 47, 60
4, 346320, Note_on_c, 2, 47, 0
4, 346320, Note_on_c, 2, 50, 62
4, 346560, Note_on_c, 2, 50, 0
4, 346560, Note_on_c, 2, 41, 63
4, 346800, Note_on_c, 2, 41, 0
4, 346800, Note_on_c, 2, 44, 65
4, 347040, Note_on_c, 2, 44, 0
4, 347040, Note_on_c, 2, 47, 67
4, 347280, Note_on_c, 2, 47, 0
4, 347280, Note_on_c, 2, 50, 69
4, 347520, Note_on_c, 2, 50, 0
4, 347520, Note_on_c, 2, 39, 70
4, 347760, Note_on_c, 2, 39, 0
4, 347760, Note_on_c, 2, 43, 72
4, 348000, Note_on_c, 2, 43, 0
4, 348000, Note_on_c, 2, 48, 74
4, 348240, Note_on_c, 2, 48, 0
4, 348240, Note_on_c, 2, 51, 75
4, 348480, Note_on_c, 2, 51, 0
4, 348480, Note_on_c, 2, 44, 77
4, 348720, Note_on_c, 2, 44, 0
4, 348720, Note_on_c, 2, 48, 79
4, 348960, Note_on_c, 2, 48, 0
4, 348960, Note_on_c, 2, 51, 81
4, 349200, Note_on_c, 2, 51, 0
4, 349200, Note_on_c, 2, 54, 82
4, 349440, Note_on_c, 2, 54, 0
4, 349440, Note_on_c, 2, 43, 84
4, 349680, Note_on_c, 2, 43, 0
4, 349680, Note_on_c, 2, 48, 86
4, 349920, Note_on_c, 2, 48, 0
4, 349920, Note_on_c, 2, 51, 87
4, 350160, Note_on_c, 2, 51, 0
4, 350160, Note_on_c, 2, 55, 89
4, 350400, Note_on_c, 2, 55, 0
4, 350400, Note_on_c, 2, 43, 91
4, 350640, Note_on_c, 2, 43, 0
4, 350640, Note_on_c, 2, 55, 93
4, 350880, Note_on_c, 2, 55, 0
4, 350880, Note_on_c, 2, 43, 94
4, 351120, Note_on_c, 2, 43, 0
4, 351120, Note_on_c, 2, 55, 92
4, 351360, Note_on_c, 2, 55, 0
4, 351360, Note_on_c, 2, 48, 56
4, 351504, Note_on_c, 2, 48, 0
4, 351600, Note_on_c, 2, 60, 58
4, 351792, Note_on_c, 2, 60, 0
4, 351840, Note_on_c, 2, 58, 60
4, 352032, Note_on_c, 2, 58, 0
4, 352080, Note_on_c, 2, 60, 62
4, 352272, Note_on_c, 2, 60, 0
4, 352320, Note_on_c, 2, 58, 64
4, 352512, Note_on_c, 2, 58, 0
4, 352560, Note_on_c, 2, 60, 66
4, 352752, Note_on_c, 2, 60, 0
4, 352800, Note_on_c, 2, 58, 68
4, 352992, Note_on_c, 2, 58, 0
4, 353040, Note_on_c, 2, 60, 70
4, 353232, Note_on_c, 2, 60, 0
4, 353280, Note_on_c, 2, 56, 72
4, 353472, Note_on_c, 2, 56, 0
4, 353520, Note_on_c, 2, 60, 74
4, 353712, Note_on_c, 2, 60, 0
4, 353760, Note_on_c, 2, 53, 76
4, 353952, Note_on_c, 2, 53, 0
4, 354000, Note_on_c, 2, 60, 78
4, 354192, Note_on_c, 2, 60, 0
4, 354240, Note_on_c, 2, 58, 80
4, 354432, Note_on_c, 2, 58, 0
4, 354480, Note_on_c, 2, 60, 82
4, 354672, Note_on_c, 2, 60, 0
4, 354720, Note_on_c, 2, 55, 84
4, 354912, Note_on_c, 2, 55, 0
4, 354960, Note_on_c, 2, 60, 86
4, 355152, Note_on_c, 2, 60, 0
4, 355200, Note_on_c, 2, 56, 88
4, 355392, Note_on_c, 2, 56, 0
4, 355440, Note_on_c, 2, 60, 90
4, 355632, Note_on_c, 2, 60, 0
4, 355680, Note_on_c, 2, 53, 92
4, 355872, Note_on_c, 2, 53, 0
4, 355920, Note_on_c, 2, 60, 94
4, 356112, Note_on_c, 2, 60, 0
4, 356160, Note_on_c, 2, 58, 96
4, 356352, Note_on_c, 2, 58, 0
4, 356400, Note_on_c, 2, 60, 98
4, 356592, Note_on_c, 2, 60, 0
4, 356640, Note_on_c, 2, 55, 100
4, 356832, Note_on_c, 2, 55, 0
4, 356880, Note_on_c, 2, 60, 102
4, 357072, Note_on_c, 2, 60, 0
4, 357120, Note_on_c, 2, 56, 116
4, 357408, Note_on_c, 2, 56, 0
4, 357600, Note_on_c, 2, 56, 116
4, 357600, Note_on_c, 2, 44, 116
4, 357600, Note_on_c, 2, 48, 116
4, 357600, Note_on_c, 2, 51, 116
4, 357888, Note_on_c, 2, 51, 0
4, 357888, Note_on_c, 2, 48, 0
4, 357888, Note_on_c, 2, 44, 0
4, 357888, Note_on_c, 2, 56, 0
4, 358080, Note_on_c, 2, 48, 116
4, 358080, Note_on_c, 2, 51, 116
4, 358080, Note_on_c, 2, 55, 116
4, 358080, Note_on_c, 2, 43, 116
4, 358368, Note_on_c, 2, 43, 0
4, 358368, Note_on_c, 2, 55, 0
4, 358368, Note_on_c, 2, 51, 0
4, 358368, Note_on_c, 2, 48, 0
4, 358560, Note_on_c, 2, 47, 116
4, 358560, Note_on_c, 2, 43, 116
4, 358560, Note_on_c, 2, 50, 116
4, 358560, Note_on_c, 2, 55, 116
4, 358848, Note_on_c, 2, 55, 0
4, 358848, Note_on_c, 2, 50, 0
4, 358848, Note_on_c, 2, 43, 0
4, 358848, Note_on_c, 2, 47, 0
4, 359040, Note_on_c, 2, 36, 112
4, 359184, Note_on_c, 2, 36, 0
4, 359280, Note_on_c, 2, 48, 92
4, 359520, Note_on_c, 2, 48, 0
4, 359520, Note_on_c, 2, 46, 92
4, 359760, Note_on_c, 2, 46, 0
4, 359760, Note_on_c, 2, 48, 92
4, 360000, Note_on_c, 2, 48, 0
4, 360000, Note_on_c, 2, 46, 92
4, 360240, Note_on_c, 2, 46, 0
4, 360240, Note_on_c, 2, 48, 92
4, 360480, Note_on_c, 2, 48, 0
4, 360480, Note_on_c, 2, 43, 92
4, 360720, Note_on_c, 2, 43, 0
4, 360720, Note_on_c, 2, 48, 92
4, 360960, Note_on_c, 2, 48, 0
4, 360960, Note_on_c, 2, 44, 92
4, 361200, Note_on_c, 2, 44, 0
4, 361200, Note_on_c, 2, 48, 92
4, 361440, Note_on_c, 2, 48, 0
4, 361440, Note_on_c, 2, 41, 92
4, 361680, Note_on_c, 2, 41, 0
4, 361680, Note_on_c, 2, 48, 92
4, 361920, Note_on_c, 2, 48, 0
4, 361920, Note_on_c, 2, 46, 92
4, 362160, Note_on_c, 2, 46, 0
4, 362160, Note_on_c, 2, 48, 92
4, 362400, Note_on_c, 2, 48, 0
4, 362400, Note_on_c, 2, 41, 92
4, 362640, Note_on_c, 2, 41, 0
4, 362640, Note_on_c, 2, 48, 92
4, 362880, Note_on_c, 2, 48, 0
4, 362880, Note_on_c, 2, 44, 92
4, 363120, Note_on_c, 2, 44, 0
4, 363120, Note_on_c, 2, 48, 92
4, 363360, Note_on_c, 2, 48, 0
4, 363360, Note_on_c, 2, 41, 92
4, 363600, Note_on_c, 2, 41, 0
4, 363600, Note_on_c, 2, 48, 92
4, 363840, Note_on_c, 2, 48, 0
4, 363840, Note_on_c, 2, 46, 92
4, 364080, Note_on_c, 2, 46, 0
4, 364080, Note_on_c, 2, 48, 92
4, 364320, Note_on_c, 2, 48, 0
4, 364320, Note_on_c, 2, 41, 92
4, 364560, Note_on_c, 2, 41, 0
4, 364560, Note_on_c, 2, 48, 92
4, 364800, Note_on_c, 2, 48, 0
4, 364800, Note_on_c, 2, 44, 58
4, 365088, Note_on_c, 2, 44, 0
4, 365280, Note_on_c, 2, 44, 58
4, 365280, Note_on_c, 2, 56, 58
4, 365568, Note_on_c, 2, 56, 0
4, 365568, Note_on_c, 2, 44, 0
4, 366240, Note_on_c, 2, 51, 57
4, 366240, Note_on_c, 2, 56, 57
4, 366240, Note_on_c, 2, 48, 57
4, 366240, Note_on_c, 2, 44, 57
4, 366528, Note_on_c, 2, 44, 0
4, 366528, Note_on_c, 2, 48, 0
4, 366528, Note_on_c, 2, 56, 0
4, 366528, Note_on_c, 2, 51, 0
4, 367200, Note_on_c, 2, 43, 64
4, 367200, Note_on_c, 2, 55, 64
4, 367200, Note_on_c, 2, 51, 64
4, 367200, Note_on_c, 2, 48, 64
4, 367488, Note_on_c, 2, 48, 0
4, 367488, Note_on_c, 2, 51, 0
4, 367488, Note_on_c, 2, 55, 0
4, 367488, Note_on_c, 2, 43, 0
4, 368160, Note_on_c, 2, 48, 72
4, 368160, Note_on_c, 2, 54, 72
4, 368160, Note_on_c, 2, 51, 72
4, 368160, Note_on_c, 2, 42, 72
4, 368448, Note_on_c, 2, 42, 0
4, 368448, Note_on_c, 2, 51, 0
4, 368448, Note_on_c, 2, 54, 0
4, 368448, Note_on_c, 2, 48, 0
4, 369120, Note_on_c, 2, 50, 79
4, 369120, Note_on_c, 2, 41, 79
4, 369120, Note_on_c, 2, 53, 79
4, 369120, Note_on_c, 2, 47, 79
4, 369408, Note_on_c, 2, 47, 0
4, 369408, Note_on_c, 2, 53, 0
4, 369408, Note_on_c, 2, 41, 0
4, 369408, Note_on_c, 2, 50, 0
4, 370080, Note_on_c, 2, 39, 86
4, 370080, Note_on_c, 2, 48, 86
4, 370080, Note_on_c, 2, 51, 86
4, 370080, Note_on_c, 2, 43, 86
4, 370368, Note_on_c, 2, 43, 0
4, 370368, Note_on_c, 2, 51, 0
4, 370368, Note_on_c, 2, 48, 0
4, 370368, Note_on_c, 2, 39, 0
4, 371040, Note_on_c, 2, 50, 94
4, 371040, Note_on_c, 2, 41, 94
4, 371040, Note_on_c, 2, 44, 94
4, 371040, Note_on_c, 2, 53, 94
4, 371328, Note_on_c, 2, 53, 0
4, 371328, Note_on_c, 2, 44, 0
4, 371328, Note_on_c, 2, 41, 0
4, 371328, Note_on_c, 2, 50, 0
4, 372000, Note_on_c, 2, 43, 101
4, 372000, Note_on_c, 2, 47, 101
4, 372000, Note_on_c, 2, 50, 101
4, 372000, Note_on_c, 2, 55, 101
4, 372288, Note_on_c, 2, 55, 0
4, 372288, Note_on_c, 2, 50, 0
4, 372288, Note_on_c, 2, 47, 0
4, 372288, Note_on_c, 2, 43, 0
4, 372480, Note_on_c, 2, 48, 92
4, 372480, Note_on_c, 2, 36, 92
4, 372768, Note_on_c, 2, 36, 0
4, 372768, Note_on_c, 2, 48, 0
4, 372960, Note_on_c, 2, 51, 112
4, 372960, Note_on_c, 2, 55, 112
4, 372960, Note_on_c, 2, 60, 112
4, 374112, Note_on_c, 2, 60, 0
4, 374112, Note_on_c, 2, 55, 0
4, 374112, Note_on_c, 2, 51, 0
4, 374400, Note_on_c, 2, 50, 92
4, 374400, Note_on_c, 2, 53, 92
4, 374400, Note_on_c, 2, 62, 92
4, 374400, Note_on_c, 2, 60, 92
4, 374688, Note_on_c, 2, 60, 0
4, 374688, Note_on_c, 2, 62, 0
4, 374688, Note_on_c, 2, 53, 0
4, 374688, Note_on_c, 2, 50, 0
4, 374880, Note_on_c, 2, 55, 112
4, 374880, Note_on_c, 2, 59, 112
4, 374880, Note_on_c, 2, 62, 112
4, 376032, Note_on_c, 2, 62, 0
4, 376032, Note_on_c, 2, 59, 0
4, 376032, Note_on_c, 2, 55, 0
4, 376320, Note_on_c, 2, 55, 92
4, 376320, Note_on_c, 2, 51, 92
4, 376320, Note_on_c, 2, 60, 92
4, 376608, Note_on_c, 2, 60, 0
4, 376608, Note_on_c, 2, 51, 0
4, 376608, Note_on_c, 2, 55, 0
4, 376800, Note_on_c, 2, 60, 112
4, 376800, Note_on_c, 2, 51, 112
4, 376800, Note_on_c, 2, 55, 112
4, 377952, Note_on_c, 2, 55, 0
4, 377952, Note_on_c, 2, 51, 0
4, 377952, Note_on_c, 2, 60, 0
4, 378240, Note_on_c, 2, 50, 92
4, 378240, Note_on_c, 2, 60, 92
4, 378240, Note_on_c, 2, 62, 92
4, 378240, Note_on_c, 2, 53, 92
4, 378528, Note_on_c, 2, 53, 0
4, 378528, Note_on_c, 2, 62, 0
4, 378528, Note_on_c, 2, 60, 0
4, 378528, Note_on_c, 2, 50, 0
4, 378720, Note_on_c, 2, 62, 112
4, 378720, Note_on_c, 2, 55, 112
4, 378720, Note_on_c, 2, 59, 112
4, 379872, Note_on_c, 2, 59, 0
4, 379872, Note_on_c, 2, 55, 0
4, 379872, Note_on_c, 2, 62, 0
4, 380160, Note_on_c, 2, 55, 92
4, 380160, Note_on_c, 2, 60, 92
4, 380160, Note_on_c, 2, 51, 92
4, 380448, Note_on_c, 2, 51, 0
4, 380448, Note_on_c, 2, 60, 0
4, 380448, Note_on_c, 2, 55, 0
4, 380640, Note_on_c, 2, 55, 112
4, 380640, Note_on_c, 2, 51, 112
4, 380640, Note_on_c, 2, 60, 112
4, 381792, Note_on_c, 2, 60, 0
4, 381792, Note_on_c, 2, 51, 0
4, 381792, Note_on_c, 2, 55, 0
4, 382080, Note_on_c, 2, 53, 92
4, 382080, Note_on_c, 2, 56, 92
4, 382080, Note_on_c, 2, 61, 92
4, 382368, Note_on_c, 2, 61, 0
4, 382368, Note_on_c, 2, 56, 0
4, 382368, Note_on_c, 2, 53, 0
4, 382560, Note_on_c, 2, 53, 116
4, 382560, Note_on_c, 2, 56, 116
4, 382560, Note_on_c, 2, 61, 116
4, 383328, Note_on_c, 2, 61, 0
4, 383328, Note_on_c, 2, 56, 0
4, 383328, Note_on_c, 2, 53, 0
4, 383520, Note_on_c, 2, 61, 105
4, 383520, Note_on_c, 2, 53, 105
4, 383520, Note_on_c, 2, 56, 105
4, 383904, Note_on_c, 2, 56, 0
4, 383904, Note_on_c, 2, 53, 0
4, 383904, Note_on_c, 2, 61, 0
4, 384000, Note_on_c, 2, 63, 120
4, 384000, Note_on_c, 2, 61, 120
4, 384000, Note_on_c, 2, 58, 120
4, 384000, Note_on_c, 2, 55, 120
4, 386880, Note_on_c, 2, 55, 0
4, 386880, Note_on_c, 2, 58, 0
4, 386880, Note_on_c, 2, 61, 0
4, 386880, Note_on_c, 2, 63, 0
4, 387360, Note_on_c, 2, 61, 119
4, 387440, Note_on_c, 2, 61, 0
4, 387440, Note_on_c, 2, 60, 119
4, 387520, Note_on_c, 2, 60, 0
4, 387520, Note_on_c, 2, 58, 119
4, 387600, Note_on_c, 2, 58, 0
4, 387600, Note_on_c, 2, 56, 119
4, 387660, Note_on_c, 2, 56, 0
4, 387660, Note_on_c, 2, 55, 119
4, 387720, Note_on_c, 2, 55, 0
4, 387720, Note_on_c, 2, 53, 119
4, 387780, Note_on_c, 2, 53, 0
4, 387780, Note_on_c, 2, 51, 119
4, 387840, Note_on_c, 2, 51, 0
4, 387840, Note_on_c, 2, 49, 119
4, 387840, Note_on_c, 2, 31, 119
4, 387840, Note_on_c, 2, 39, 119
4, 387840, Note_on_c, 2, 43, 119
4, 390912, Note_on_c, 2, 43, 0
4, 390912, Note_on_c, 2, 39, 0
4, 390912, Note_on_c, 2, 31, 0
4, 390912, Note_on_c, 2, 49, 0
4, 391680, Note_on_c, 2, 44, 58
4, 393984, Note_on_c, 2, 44, 0
4, 395520, Note_on_c, 2, 56, 58
4, 397824, Note_on_c, 2, 56, 0
4, 403200, Note_on_c, 2, 43, 120
4, 403200, Note_on_c, 2, 50, 120
4, 403200, Note_on_c, 2, 55, 120
4, 403200, Note_on_c, 2, 47, 120
4, 403488, Note_on_c, 2, 47, 0
4, 403488, Note_on_c, 2, 55, 0
4, 403488, Note_on_c, 2, 50, 0
4, 403488, Note_on_c, 2, 43, 0
4, 405120, Note_on_c, 2, 36, 120
4, 405120, Note_on_c, 2, 39, 120
4, 405120, Note_on_c, 2, 43, 120
4, 405120, Note_on_c, 2, 48, 120
4, 405408, Note_on_c, 2, 48, 0
4, 405408, Note_on_c, 2, 43, 0
4, 405408, Note_on_c, 2, 39, 0
4, 405408, Note_on_c, 2, 36, 0
4, 408960, Note_on_c, 2, 48, 1
4, 409728, Note_on_c, 2, 48, 0
4, 409728, End_track
0, 0, End_of_file