0, 0, Header, 1, 6, 480
1, 0, Start_track
1, 0, Title_t, "Untitled"
1, 0, Time_signature, 4, 2, 24, 8
1, 0, Key_signature, 0, "major"
1, 0, Tempo, 600000
1, 0, Marker_t, "Beethoven"
1, 1920, Tempo, 600000
1, 1920, Marker_t, "Phantasie   Op.77"
1, 1980, Tempo, 588235
1, 2040, Tempo, 582524
1, 2467, Tempo, 588235
1, 2520, Tempo, 625000
1, 3840, Tempo, 600000
1, 3840, Marker_t, "Bunji Hisamori"
1, 3900, Tempo, 588235
1, 3960, Tempo, 582524
1, 4380, Tempo, 588235
1, 4433, Tempo, 612244
1, 4800, Tempo, 1578947
1, 5760, Tempo, 1071428
1, 5760, Marker_t, "Nov. 1998"
1, 6600, Tempo, 1111111
1, 6720, Tempo, 1071428
1, 7087, Tempo, 1111111
1, 7550, Tempo, 1176470
1, 7680, Tempo, 1132075
1, 7680, Marker_t, "Jyly 1999, Rev.1"
1, 8100, Tempo, 1276595
1, 8160, Tempo, 1276595
1, 8460, Tempo, 1935483
1, 8650, Tempo, 1818181
1, 9600, Tempo, 600000
1, 9660, Tempo, 588235
1, 9720, Tempo, 582524
1, 10140, Tempo, 588235
1, 10193, Tempo, 612244
1, 11520, Tempo, 600000
1, 11580, Tempo, 588235
1, 11640, Tempo, 582524
1, 12060, Tempo, 588235
1, 12113, Tempo, 612244
1, 12480, Tempo, 1500000
1, 13440, Tempo, 1071428
1, 14280, Tempo, 1111111
1, 14400, Tempo, 1071428
1, 14767, Tempo, 1111111
1, 15230, Tempo, 1176470
1, 15360, Tempo, 1132075
1, 15780, Tempo, 1276595
1, 15840, Tempo, 1276595
1, 16140, Tempo, 1935483
1, 16330, Tempo, 2727272
1, 17040, Tempo, 582524
1, 17220, Tempo, 588235
1, 17280, Time_signature, 2, 2, 24, 8
1, 17280, Tempo, 582524
1, 19170, Tempo, 588235
1, 19200, Tempo, 582524
1, 20400, Tempo, 600000
1, 20580, Tempo, 659340
1, 20640, Tempo, 1176470
1, 22080, Tempo, 600000
1, 22140, Tempo, 588235
1, 22200, Tempo, 582524
1, 23880, Tempo, 588235
1, 23933, Tempo, 600000
1, 24250, Tempo, 2727272
1, 24840, Tempo, 582524
1, 24900, Tempo, 588235
1, 24960, Tempo, 582524
1, 26860, Tempo, 588235
1, 26880, Tempo, 582524
1, 28260, Tempo, 689655
1, 28320, Tempo, 659340
1, 28800, Tempo, 674157
1, 29040, Tempo, 705882
1, 29240, Tempo, 1276595
1, 30240, Tempo, 769230
1, 30720, Tempo, 600000
1, 30780, Tempo, 588235
1, 30840, Tempo, 582524
1, 33120, Tempo, 588235
1, 33173, Tempo, 600000
1, 33600, Time_signature, 6, 3, 24, 8
1, 33600, Tempo, 1363636
1, 33600, Marker_t, "Allegro, ma non troppo"
1, 34560, Tempo, 500000
1, 34980, Tempo, 508474
1, 35040, Tempo, 500000
1, 36230, Tempo, 508474
1, 36540, Tempo, 500000
1, 39300, Tempo, 508474
1, 39360, Tempo, 500000
1, 40460, Tempo, 508474
1, 40560, Tempo, 560747
1, 40800, Tempo, 500000
1, 43620, Tempo, 508474
1, 43680, Tempo, 500000
1, 45090, Tempo, 508474
1, 46278, Tempo, 517241
1, 46320, Tempo, 535714
1, 46560, Tempo, 500000
1, 49380, Tempo, 508474
1, 49440, Tempo, 500000
1, 52020, Tempo, 504201
1, 52080, Tempo, 517241
1, 52320, Tempo, 526315
1, 53040, Tempo, 517241
1, 55140, Tempo, 526315
1, 55200, Tempo, 535714
1, 55280, Tempo, 550458
1, 55450, Tempo, 769230
1, 55920, Tempo, 508474
1, 58560, Tempo, 517241
1, 58800, Tempo, 508474
1, 60980, Tempo, 517241
1, 61680, Tempo, 508474
1, 62880, Tempo, 517241
1, 63120, Tempo, 508474
1, 64320, Tempo, 517241
1, 64560, Tempo, 508474
1, 66420, Tempo, 517241
1, 66480, Tempo, 582524
1, 68160, Tempo, 600000
1, 71040, Tempo, 612244
1, 71107, Tempo, 594059
1, 71388, Tempo, 588235
1, 71532, Tempo, 582524
1, 71640, Tempo, 576923
1, 71732, Tempo, 571428
1, 71816, Tempo, 566037
1, 71888, Tempo, 560747
1, 71956, Tempo, 555555
1, 72020, Tempo, 550458
1, 72080, Tempo, 545454
1, 72136, Tempo, 540540
1, 72188, Tempo, 535714
1, 72240, Tempo, 530973
1, 72288, Tempo, 526315
1, 72336, Tempo, 521739
1, 72380, Tempo, 517241
1, 72424, Tempo, 512820
1, 72468, Tempo, 508474
1, 72508, Tempo, 504201
1, 72548, Tempo, 500000
1, 72588, Tempo, 495867
1, 72624, Tempo, 491803
1, 72664, Tempo, 487804
1, 72700, Tempo, 483870
1, 72736, Tempo, 480000
1, 72768, Tempo, 476190
1, 72804, Tempo, 472440
1, 72836, Tempo, 468750
1, 72868, Tempo, 465116
1, 72900, Tempo, 461538
1, 72960, Tempo, 600000
1, 73680, Tempo, 612244
1, 73740, Tempo, 594059
1, 74028, Tempo, 588235
1, 74172, Tempo, 582524
1, 74280, Tempo, 576923
1, 74372, Tempo, 571428
1, 74456, Tempo, 566037
1, 74528, Tempo, 560747
1, 74596, Tempo, 555555
1, 74660, Tempo, 550458
1, 74720, Tempo, 545454
1, 74776, Tempo, 540540
1, 74828, Tempo, 535714
1, 74880, Tempo, 530973
1, 74928, Tempo, 526315
1, 74976, Tempo, 521739
1, 75020, Tempo, 517241
1, 75064, Tempo, 512820
1, 75108, Tempo, 508474
1, 75148, Tempo, 504201
1, 75188, Tempo, 500000
1, 75228, Tempo, 495867
1, 75264, Tempo, 491803
1, 75304, Tempo, 487804
1, 75340, Tempo, 483870
1, 75376, Tempo, 480000
1, 75408, Tempo, 476190
1, 75444, Tempo, 472440
1, 75476, Tempo, 468750
1, 75487, Tempo, 500000
1, 75540, Tempo, 600000
1, 76260, Tempo, 612244
1, 76312, Tempo, 594059
1, 76608, Tempo, 588235
1, 76752, Tempo, 582524
1, 76860, Tempo, 576923
1, 76952, Tempo, 571428
1, 77036, Tempo, 566037
1, 77108, Tempo, 560747
1, 77176, Tempo, 555555
1, 77240, Tempo, 550458
1, 77300, Tempo, 545454
1, 77356, Tempo, 540540
1, 77408, Tempo, 535714
1, 77460, Tempo, 530973
1, 77508, Tempo, 526315
1, 77556, Tempo, 521739
1, 77600, Tempo, 517241
1, 77644, Tempo, 512820
1, 77688, Tempo, 508474
1, 77728, Tempo, 504201
1, 77768, Tempo, 500000
1, 77808, Tempo, 495867
1, 77844, Tempo, 508474
1, 77884, Tempo, 487804
1, 77920, Tempo, 483870
1, 77956, Tempo, 480000
1, 77988, Tempo, 476190
1, 78024, Tempo, 472440
1, 78056, Tempo, 468750
1, 78088, Tempo, 465116
1, 78120, Tempo, 461538
1, 78127, Tempo, 500000
1, 78240, Tempo, 659340
1, 78900, Tempo, 612244
1, 78952, Tempo, 594059
1, 79304, Tempo, 588235
1, 79468, Tempo, 582524
1, 79596, Tempo, 576923
1, 79704, Tempo, 571428
1, 79800, Tempo, 566037
1, 79884, Tempo, 560747
1, 79964, Tempo, 555555
1, 80036, Tempo, 550458
1, 80104, Tempo, 545454
1, 80172, Tempo, 540540
1, 80232, Tempo, 535714
1, 80292, Tempo, 530973
1, 80348, Tempo, 526315
1, 80404, Tempo, 521739
1, 80456, Tempo, 517241
1, 80508, Tempo, 512820
1, 80556, Tempo, 508474
1, 80604, Tempo, 504201
1, 80652, Tempo, 500000
1, 80696, Tempo, 495867
1, 80740, Tempo, 491803
1, 80784, Tempo, 487804
1, 80824, Tempo, 483870
1, 80868, Tempo, 480000
1, 80908, Tempo, 476190
1, 80948, Tempo, 472440
1, 80988, Tempo, 468750
1, 81024, Tempo, 465116
1, 81060, Tempo, 508474
1, 81120, Tempo, 600000
1, 81180, Tempo, 582524
1, 81660, Tempo, 588235
1, 81735, Tempo, 1071428
1, 82560, Time_signature, 2, 2, 24, 8
1, 83040, Marker_t, "Allegro con brio"
1, 83250, Tempo, 500000
1, 87120, Tempo, 508474
1, 87360, Tempo, 550458
1, 87840, Tempo, 1071428
1, 88080, Tempo, 500000
1, 91080, Tempo, 508474
1, 91200, Tempo, 535714
1, 91920, Tempo, 500000
1, 95940, Tempo, 508474
1, 96000, Tempo, 500000
1, 97810, Tempo, 508474
1, 97920, Tempo, 500000
1, 98752, Tempo, 508474
1, 98835, Tempo, 517241
1, 98880, Tempo, 535714
1, 99600, Tempo, 500000
1, 103620, Tempo, 508474
1, 103680, Tempo, 500000
1, 105480, Tempo, 526315
1, 105600, Tempo, 500000
1, 109320, Tempo, 526315
1, 109440, Tempo, 500000
1, 113160, Tempo, 526315
1, 113280, Tempo, 500000
1, 115080, Tempo, 526315
1, 115200, Tempo, 500000
1, 117000, Tempo, 526315
1, 117120, Tempo, 504201
1, 117124, Tempo, 508474
1, 118912, Tempo, 512820
1, 119400, Tempo, 517241
1, 119887, Tempo, 521739
1, 120382, Tempo, 526315
1, 120652, Tempo, 535714
1, 120795, Tempo, 638297
1, 120840, Tempo, 750000
1, 120960, Tempo, 1000000
1, 121920, Tempo, 800000
1, 121924, Tempo, 810810
1, 122012, Tempo, 821917
1, 122048, Tempo, 833333
1, 122076, Tempo, 845070
1, 122104, Tempo, 857142
1, 122124, Tempo, 869565
1, 122144, Tempo, 882352
1, 122160, Tempo, 895522
1, 122176, Tempo, 952380
1, 122220, Tempo, 952380
1, 122224, Tempo, 1071428
1, 122390, Tempo, 1578947
1, 123840, Tempo, 1200000
1, 123840, Marker_t, "Adagio"
1, 123844, Tempo, 1224489
1, 124740, Tempo, 1250000
1, 124800, Tempo, 1224489
1, 124980, Tempo, 1250000
1, 125424, Tempo, 1276595
1, 125700, Tempo, 1333333
1, 125760, Tempo, 1304347
1, 126084, Tempo, 1333333
1, 126348, Tempo, 1363636
1, 126584, Tempo, 1395348
1, 126804, Tempo, 1428571
1, 127008, Tempo, 1463414
1, 127380, Tempo, 1578947
1, 127440, Tempo, 1818181
1, 128640, Tempo, 500000
1, 129600, Tempo, 600000
1, 129660, Tempo, 588235
1, 129720, Tempo, 582524
1, 130200, Tempo, 588235
1, 130560, Tempo, 1666666
1, 131520, Tempo, 1200000
1, 131524, Tempo, 1224489
1, 132420, Tempo, 1276595
1, 132480, Tempo, 1224489
1, 132768, Tempo, 1250000
1, 133330, Tempo, 1276595
1, 133684, Tempo, 1304347
1, 134016, Tempo, 1333333
1, 134312, Tempo, 1363636
1, 134576, Tempo, 1395348
1, 134820, Tempo, 1428571
1, 135048, Tempo, 1463414
1, 135264, Tempo, 1500000
1, 135464, Tempo, 1538461
1, 135660, Tempo, 1578947
1, 136020, Tempo, 1666666
1, 136080, Tempo, 2068965
1, 136320, Tempo, 2727272
1, 136800, Marker_t, "Presto"
1, 137040, Tempo, 352941
1, 137220, Tempo, 355029
1, 137280, Tempo, 352941
1, 139860, Tempo, 355029
1, 139920, Tempo, 461538
1, 140160, Tempo, 600000
1, 141840, Tempo, 352941
1, 142020, Tempo, 355029
1, 142080, Tempo, 352941
1, 144660, Tempo, 355029
1, 144720, Tempo, 461538
1, 144960, Tempo, 600000
1, 146640, Tempo, 352941
1, 146820, Tempo, 355029
1, 146880, Tempo, 352941
1, 148740, Tempo, 355029
1, 149280, Tempo, 368098
1, 149520, Tempo, 461538
1, 149760, Tempo, 821917
1, 151680, Time_signature, 6, 3, 24, 8
1, 151680, Marker_t, "piu presto"
1, 152390, Tempo, 372670
1, 153000, Tempo, 377358
1, 153120, Tempo, 372670
1, 155940, Tempo, 377358
1, 156000, Tempo, 372670
1, 158820, Tempo, 377358
1, 158880, Tempo, 372670
1, 161700, Tempo, 377358
1, 161760, Tempo, 372670
1, 164580, Tempo, 377358
1, 164640, Tempo, 372670
1, 167460, Tempo, 377358
1, 167520, Tempo, 372670
1, 170340, Tempo, 377358
1, 170400, Tempo, 372670
1, 171780, Tempo, 377358
1, 171840, Tempo, 372670
1, 173040, Tempo, 379746
1, 173280, Tempo, 400000
1, 173985, Tempo, 372670
1, 182520, Tempo, 377358
1, 182640, Tempo, 372670
1, 189720, Tempo, 377358
1, 189840, Tempo, 372670
1, 194040, Tempo, 377358
1, 194160, Tempo, 372670
1, 201240, Tempo, 377358
1, 201360, Tempo, 372670
1, 205560, Tempo, 377358
1, 205680, Tempo, 372670
1, 211935, Tempo, 377358
1, 212160, Tempo, 372670
1, 217680, Tempo, 377358
1, 217920, Tempo, 372670
1, 223215, Tempo, 377358
1, 223440, Tempo, 588235
1, 223680, Time_signature, 2, 2, 24, 8
1, 223680, Tempo, 298507
1, 225810, Tempo, 1224489
1, 226500, Tempo, 1250000
1, 226560, Tempo, 1224489
1, 227124, Tempo, 1250000
1, 227460, Tempo, 1276595
1, 227520, Tempo, 1250000
1, 227752, Tempo, 1276595
1, 228236, Tempo, 1304347
1, 228420, Tempo, 1333333
1, 228480, Tempo, 1304347
1, 228644, Tempo, 1333333
1, 229000, Tempo, 1363636
1, 229324, Tempo, 1395348
1, 229624, Tempo, 1428571
1, 229900, Tempo, 1463414
1, 230160, Tempo, 1578947
1, 230400, Tempo, 1935483
1, 230630, Tempo, 2727272
1, 231120, Tempo, 1034482
1, 231240, Tempo, 1176470
1, 231360, Tempo, 967741
1, 231360, Marker_t, "Allegretto"
1, 232280, Tempo, 1000000
1, 232320, Tempo, 967741
1, 233240, Tempo, 1000000
1, 233280, Tempo, 967741
1, 234200, Tempo, 1000000
1, 234240, Tempo, 967741
1, 235140, Tempo, 1071428
1, 235200, Tempo, 967741
1, 236120, Tempo, 1000000
1, 236160, Tempo, 967741
1, 237080, Tempo, 1000000
1, 237120, Tempo, 967741
1, 238040, Tempo, 1000000
1, 238080, Tempo, 967741
1, 238980, Tempo, 1071428
1, 239040, Tempo, 967741
1, 239040, Marker_t, "2"
1, 239960, Tempo, 1000000
1, 240000, Tempo, 967741
1, 240920, Tempo, 1000000
1, 240960, Tempo, 967741
1, 241880, Tempo, 1000000
1, 241920, Tempo, 967741
1, 242820, Tempo, 1034482
1, 242880, Tempo, 967741
1, 243800, Tempo, 1000000
1, 243840, Tempo, 967741
1, 244760, Tempo, 1000000
1, 244800, Tempo, 967741
1, 245720, Tempo, 1000000
1, 245760, Tempo, 967741
1, 246660, Tempo, 1071428
1, 246720, Tempo, 967741
1, 246720, Marker_t, "3"
1, 247640, Tempo, 1000000
1, 247680, Tempo, 967741
1, 248600, Tempo, 1000000
1, 248640, Tempo, 967741
1, 249560, Tempo, 1000000
1, 249600, Tempo, 967741
1, 250500, Tempo, 1071428
1, 250560, Tempo, 967741
1, 251480, Tempo, 1000000
1, 251520, Tempo, 967741
1, 252440, Tempo, 1000000
1, 252480, Tempo, 967741
1, 253400, Tempo, 1000000
1, 253440, Tempo, 967741
1, 254340, Tempo, 1071428
1, 254400, Tempo, 967741
1, 254400, Marker_t, "4"
1, 255320, Tempo, 1000000
1, 255360, Tempo, 967741
1, 256280, Tempo, 1000000
1, 256320, Tempo, 967741
1, 257240, Tempo, 1000000
1, 257280, Tempo, 967741
1, 258180, Tempo, 1071428
1, 258240, Tempo, 967741
1, 259160, Tempo, 1000000
1, 259200, Tempo, 967741
1, 260120, Tempo, 1000000
1, 260160, Tempo, 967741
1, 261080, Tempo, 1000000
1, 261120, Tempo, 967741
1, 262020, Tempo, 1071428
1, 262080, Tempo, 967741
1, 262080, Marker_t, "5"
1, 263000, Tempo, 1000000
1, 263040, Tempo, 967741
1, 263960, Tempo, 1000000
1, 264000, Tempo, 967741
1, 264920, Tempo, 1000000
1, 264960, Tempo, 967741
1, 265860, Tempo, 1071428
1, 265920, Tempo, 967741
1, 266840, Tempo, 1000000
1, 266880, Tempo, 967741
1, 267800, Tempo, 1000000
1, 267840, Tempo, 967741
1, 268760, Tempo, 1000000
1, 268800, Tempo, 967741
1, 269700, Tempo, 1071428
1, 269760, Tempo, 967741
1, 269760, Marker_t, "6"
1, 270680, Tempo, 1000000
1, 270720, Tempo, 967741
1, 271640, Tempo, 1000000
1, 271680, Tempo, 967741
1, 272600, Tempo, 1000000
1, 272640, Tempo, 967741
1, 273540, Tempo, 1071428
1, 273600, Tempo, 967741
1, 274520, Tempo, 1000000
1, 274560, Tempo, 967741
1, 275480, Tempo, 1000000
1, 275520, Tempo, 967741
1, 276440, Tempo, 1000000
1, 276480, Tempo, 967741
1, 277380, Tempo, 1071428
1, 277440, Tempo, 967741
1, 277440, Marker_t, "7"
1, 278360, Tempo, 1000000
1, 278400, Tempo, 967741
1, 279320, Tempo, 1000000
1, 279360, Tempo, 967741
1, 280280, Tempo, 1000000
1, 280320, Tempo, 967741
1, 281220, Tempo, 1071428
1, 281280, Tempo, 967741
1, 282200, Tempo, 1000000
1, 282240, Tempo, 967741
1, 283160, Tempo, 1000000
1, 283200, Tempo, 967741
1, 284120, Tempo, 1000000
1, 284160, Tempo, 967741
1, 285060, Tempo, 1071428
1, 285120, Time_signature, 4, 2, 24, 8
1, 285120, Tempo, 487804
1, 285120, Marker_t, "8"
1, 285300, Tempo, 491803
1, 285360, Tempo, 487804
1, 287220, Tempo, 491803
1, 287280, Tempo, 487804
1, 289140, Tempo, 491803
1, 289200, Tempo, 487804
1, 291060, Tempo, 491803
1, 291120, Tempo, 487804
1, 292740, Tempo, 500000
1, 292800, Tempo, 487804
1, 292980, Tempo, 491803
1, 293040, Tempo, 487804
1, 294900, Tempo, 491803
1, 294960, Tempo, 487804
1, 296820, Tempo, 491803
1, 296880, Tempo, 487804
1, 298740, Tempo, 491803
1, 298800, Tempo, 487804
1, 300185, Tempo, 500000
1, 300370, Tempo, 508474
1, 300420, Tempo, 674157
1, 300480, Tempo, 789473
1, 302400, Tempo, 298507
1, 302520, Tempo, 295566
1, 302640, Tempo, 292682
1, 303600, Tempo, 295566
1, 303840, Tempo, 750000
1, 304800, Tempo, 298507
1, 304920, Tempo, 295566
1, 305040, Tempo, 292682
1, 306000, Tempo, 295566
1, 306480, Tempo, 1071428
1, 307200, Tempo, 298507
1, 307320, Tempo, 295566
1, 307440, Tempo, 292682
1, 308400, Tempo, 295566
1, 309120, Tempo, 750000
1, 310080, Tempo, 298507
1, 310200, Tempo, 295566
1, 310320, Tempo, 292682
1, 311040, Tempo, 295566
1, 311520, Tempo, 750000
1, 312480, Tempo, 298507
1, 312600, Tempo, 295566
1, 312720, Tempo, 292682
1, 314160, Tempo, 789473
1, 314880, Tempo, 298507
1, 315000, Tempo, 295566
1, 315120, Tempo, 292682
1, 321840, Tempo, 295566
1, 321960, Tempo, 301507
1, 322080, Tempo, 306122
1, 322440, Tempo, 368098
1, 322800, Tempo, 244897
1, 323280, Tempo, 327868
1, 323520, Tempo, 487804
1, 323520, Marker_t, "tempo1"
1, 325380, Tempo, 495867
1, 325440, Tempo, 487804
1, 327240, Tempo, 495867
1, 327360, Tempo, 487804
1, 329160, Tempo, 495867
1, 329280, Tempo, 487804
1, 331080, Tempo, 495867
1, 331200, Tempo, 487804
1, 332100, Tempo, 495867
1, 332160, Tempo, 487804
1, 333000, Tempo, 495867
1, 333120, Tempo, 487804
1, 334020, Tempo, 495867
1, 334080, Tempo, 487804
1, 334920, Tempo, 500000
1, 335040, Tempo, 480000
1, 336780, Tempo, 487804
1, 336840, Tempo, 535714
1, 336960, Tempo, 487804
1, 337140, Tempo, 491803
1, 337200, Tempo, 487804
1, 339060, Tempo, 491803
1, 339120, Tempo, 487804
1, 340980, Tempo, 491803
1, 341040, Tempo, 487804
1, 342900, Tempo, 491803
1, 342960, Tempo, 487804
1, 344820, Tempo, 491803
1, 344880, Tempo, 487804
1, 346740, Tempo, 491803
1, 346800, Tempo, 487804
1, 348660, Tempo, 491803
1, 348720, Tempo, 487804
1, 350580, Tempo, 491803
1, 350640, Tempo, 487804
1, 352500, Tempo, 491803
1, 352560, Tempo, 487804
1, 354120, Tempo, 495867
1, 354180, Tempo, 508474
1, 354240, Tempo, 750000
1, 356040, Tempo, 500000
1, 356160, Tempo, 298507
1, 356280, Tempo, 295566
1, 356400, Tempo, 292682
1, 357360, Tempo, 295566
1, 358080, Tempo, 1176470
1, 358560, Tempo, 298507
1, 358680, Tempo, 295566
1, 358800, Tempo, 292682
1, 359760, Tempo, 295566
1, 360000, Tempo, 789473
1, 360480, Tempo, 731707
1, 361740, Tempo, 750000
1, 361920, Tempo, 731707
1, 363600, Tempo, 750000
1, 363840, Tempo, 731707
1, 365520, Tempo, 750000
1, 366950, Tempo, 769230
1, 367200, Tempo, 869565
1, 367680, Tempo, 895522
1, 369600, Tempo, 952380
1, 373440, Tempo, 306122
1, 373920, Tempo, 309278
1, 374220, Tempo, 312500
1, 374280, Tempo, 315789
1, 374340, Tempo, 319148
1, 374400, Tempo, 500000
1, 375360, Tempo, 560747
1, 375360, End_track
2, 0, Start_track
2, 0, Title_t, "Unnamed Track"
2, 0, Control_c, 1, 0, 0
2, 0, Control_c, 1, 32, 0
2, 0, Program_c, 1, 0
2, 0, Control_c, 1, 10, 73
2, 0, Control_c, 1, 91, 100
2, 0, Control_c, 1, 93, 28
2, 0, Control_c, 1, 64, 0
2, 0, Control_c, 1, 1, 0
2, 0, Pitch_bend_c, 1, 8192
2, 0, Control_c, 1, 7, 127
2, 1920, Note_on_c, 1, 87, 87
2, 1980, Note_off_c, 1, 87, 0
2, 1980, Note_on_c, 1, 86, 86
2, 2040, Note_off_c, 1, 86, 0
2, 2040, Note_on_c, 1, 84, 86
2, 2100, Note_off_c, 1, 84, 0
2, 2100, Note_on_c, 1, 82, 86
2, 2160, Note_off_c, 1, 82, 0
2, 2160, Note_on_c, 1, 81, 86
2, 2220, Note_off_c, 1, 81, 0
2, 2220, Note_on_c, 1, 79, 85
2, 2280, Note_off_c, 1, 79, 0
2, 2280, Note_on_c, 1, 78, 85
2, 2340, Note_off_c, 1, 78, 0
2, 2340, Note_on_c, 1, 75, 85
2, 2400, Note_off_c, 1, 75, 0
2, 2400, Note_on_c, 1, 74, 84
2, 2460, Note_off_c, 1, 74, 0
2, 2460, Note_on_c, 1, 72, 84
2, 2520, Note_off_c, 1, 72, 0
2, 2520, Note_on_c, 1, 70, 84
2, 2580, Note_off_c, 1, 70, 0
2, 2580, Note_on_c, 1, 69, 84
2, 2940, Note_off_c, 1, 69, 0
2, 5760, Note_on_c, 1, 62, 42
2, 6240, Note_off_c, 1, 62, 0
2, 6240, Note_on_c, 1, 72, 45
2, 6720, Note_off_c, 1, 72, 0
2, 6720, Note_on_c, 1, 70, 47
2, 7200, Note_off_c, 1, 70, 0
2, 7200, Note_on_c, 1, 69, 49
2, 7360, Note_off_c, 1, 69, 0
2, 7360, Note_on_c, 1, 72, 50
2, 7520, Note_off_c, 1, 72, 0
2, 7520, Note_on_c, 1, 75, 51
2, 7680, Note_off_c, 1, 75, 0
2, 7680, Note_on_c, 1, 67, 51
2, 7920, Note_off_c, 1, 67, 0
2, 7920, Note_on_c, 1, 69, 51
2, 7980, Note_off_c, 1, 69, 0
2, 7980, Note_on_c, 1, 67, 52
2, 8040, Note_off_c, 1, 67, 0
2, 8040, Note_on_c, 1, 66, 53
2, 8100, Note_off_c, 1, 66, 0
2, 8100, Note_on_c, 1, 67, 54
2, 8160, Note_off_c, 1, 67, 0
2, 8160, Note_on_c, 1, 70, 58
2, 8480, Note_on_c, 1, 69, 49
2, 8497, Note_off_c, 1, 70, 0
2, 8640, Note_off_c, 1, 69, 0
2, 8640, Note_on_c, 1, 67, 43
2, 9360, Note_off_c, 1, 67, 0
2, 9600, Note_on_c, 1, 85, 86
2, 9660, Note_off_c, 1, 85, 0
2, 9660, Note_on_c, 1, 84, 86
2, 9720, Note_off_c, 1, 84, 0
2, 9720, Note_on_c, 1, 82, 85
2, 9780, Note_off_c, 1, 82, 0
2, 9780, Note_on_c, 1, 80, 85
2, 9840, Note_off_c, 1, 80, 0
2, 9840, Note_on_c, 1, 79, 85
2, 9900, Note_off_c, 1, 79, 0
2, 9900, Note_on_c, 1, 77, 84
2, 9960, Note_off_c, 1, 77, 0
2, 9960, Note_on_c, 1, 76, 84
2, 10020, Note_off_c, 1, 76, 0
2, 10020, Note_on_c, 1, 73, 84
2, 10080, Note_off_c, 1, 73, 0
2, 10080, Note_on_c, 1, 72, 83
2, 10140, Note_off_c, 1, 72, 0
2, 10140, Note_on_c, 1, 70, 83
2, 10200, Note_off_c, 1, 70, 0
2, 10200, Note_on_c, 1, 68, 83
2, 10260, Note_off_c, 1, 68, 0
2, 10260, Note_on_c, 1, 67, 83
2, 10620, Note_off_c, 1, 67, 0
2, 13440, Note_on_c, 1, 60, 44
2, 13920, Note_off_c, 1, 60, 0
2, 13920, Note_on_c, 1, 70, 45
2, 14400, Note_off_c, 1, 70, 0
2, 14400, Note_on_c, 1, 68, 47
2, 14880, Note_off_c, 1, 68, 0
2, 14880, Note_on_c, 1, 67, 48
2, 15040, Note_off_c, 1, 67, 0
2, 15040, Note_on_c, 1, 70, 48
2, 15200, Note_off_c, 1, 70, 0
2, 15200, Note_on_c, 1, 73, 49
2, 15360, Note_off_c, 1, 73, 0
2, 15360, Note_on_c, 1, 65, 49
2, 15600, Note_off_c, 1, 65, 0
2, 15600, Note_on_c, 1, 67, 50
2, 15660, Note_off_c, 1, 67, 0
2, 15660, Note_on_c, 1, 65, 52
2, 15720, Note_off_c, 1, 65, 0
2, 15720, Note_on_c, 1, 64, 53
2, 15780, Note_off_c, 1, 64, 0
2, 15780, Note_on_c, 1, 65, 55
2, 15840, Note_off_c, 1, 65, 0
2, 15840, Note_on_c, 1, 68, 58
2, 16155, Note_off_c, 1, 68, 0
2, 16160, Note_on_c, 1, 67, 46
2, 16320, Note_off_c, 1, 67, 0
2, 16320, Note_on_c, 1, 65, 40
2, 17040, Note_off_c, 1, 65, 0
2, 17220, Note_on_c, 1, 68, 42
2, 17259, Note_off_c, 1, 68, 0
2, 17280, Note_on_c, 1, 68, 43
2, 17520, Note_off_c, 1, 68, 0
2, 17520, Note_on_c, 1, 73, 45
2, 17559, Note_off_c, 1, 73, 0
2, 17700, Note_on_c, 1, 73, 46
2, 17739, Note_off_c, 1, 73, 0
2, 17760, Note_on_c, 1, 75, 47
2, 18000, Note_off_c, 1, 75, 0
2, 18000, Note_on_c, 1, 72, 49
2, 18039, Note_off_c, 1, 72, 0
2, 18180, Note_on_c, 1, 73, 50
2, 18219, Note_off_c, 1, 73, 0
2, 18240, Note_on_c, 1, 75, 51
2, 18480, Note_off_c, 1, 75, 0
2, 18480, Note_on_c, 1, 72, 53
2, 18519, Note_off_c, 1, 72, 0
2, 18660, Note_on_c, 1, 68, 54
2, 18699, Note_off_c, 1, 68, 0
2, 18720, Note_on_c, 1, 68, 55
2, 18960, Note_off_c, 1, 68, 0
2, 18960, Note_on_c, 1, 73, 57
2, 18999, Note_off_c, 1, 73, 0
2, 19140, Note_on_c, 1, 68, 55
2, 19179, Note_off_c, 1, 68, 0
2, 19200, Note_on_c, 1, 68, 54
2, 19440, Note_off_c, 1, 68, 0
2, 19440, Note_on_c, 1, 73, 53
2, 19479, Note_off_c, 1, 73, 0
2, 19620, Note_on_c, 1, 68, 52
2, 19659, Note_off_c, 1, 68, 0
2, 19680, Note_on_c, 1, 70, 51
2, 19920, Note_off_c, 1, 70, 0
2, 19920, Note_on_c, 1, 66, 50
2, 19959, Note_off_c, 1, 66, 0
2, 20100, Note_on_c, 1, 65, 49
2, 20139, Note_off_c, 1, 65, 0
2, 20160, Note_on_c, 1, 65, 50
2, 20400, Note_off_c, 1, 65, 0
2, 20400, Note_on_c, 1, 63, 45
2, 20439, Note_off_c, 1, 63, 0
2, 20580, Note_on_c, 1, 63, 41
2, 20619, Note_off_c, 1, 63, 0
2, 20640, Note_on_c, 1, 63, 39
2, 21967, Note_off_c, 1, 63, 0
2, 22080, Note_on_c, 1, 87, 89
2, 22140, Note_off_c, 1, 87, 0
2, 22140, Note_on_c, 1, 85, 89
2, 22200, Note_off_c, 1, 85, 0
2, 22200, Note_on_c, 1, 84, 88
2, 22260, Note_off_c, 1, 84, 0
2, 22260, Note_on_c, 1, 82, 88
2, 22320, Note_off_c, 1, 82, 0
2, 22320, Note_on_c, 1, 80, 87
2, 22380, Note_off_c, 1, 80, 0
2, 22380, Note_on_c, 1, 79, 87
2, 22440, Note_off_c, 1, 79, 0
2, 22440, Note_on_c, 1, 77, 87
2, 22500, Note_off_c, 1, 77, 0
2, 22500, Note_on_c, 1, 75, 86
2, 22560, Note_off_c, 1, 75, 0
2, 22560, Note_on_c, 1, 73, 86
2, 22620, Note_off_c, 1, 73, 0
2, 22620, Note_on_c, 1, 72, 85
2, 22680, Note_off_c, 1, 72, 0
2, 22680, Note_on_c, 1, 70, 85
2, 22740, Note_off_c, 1, 70, 0
2, 22740, Note_on_c, 1, 68, 85
2, 22800, Note_off_c, 1, 68, 0
2, 22800, Note_on_c, 1, 67, 84
2, 22860, Note_off_c, 1, 67, 0
2, 22860, Note_on_c, 1, 65, 84
2, 22920, Note_off_c, 1, 65, 0
2, 22920, Note_on_c, 1, 63, 84
2, 22980, Note_off_c, 1, 63, 0
2, 22980, Note_on_c, 1, 61, 83
2, 23040, Note_off_c, 1, 61, 0
2, 23040, Note_on_c, 1, 60, 83
2, 23100, Note_off_c, 1, 60, 0
2, 23100, Note_on_c, 1, 58, 82
2, 23160, Note_off_c, 1, 58, 0
2, 23160, Note_on_c, 1, 56, 82
2, 23220, Note_off_c, 1, 56, 0
2, 23220, Note_on_c, 1, 55, 82
2, 23280, Note_off_c, 1, 55, 0
2, 23280, Note_on_c, 1, 53, 81
2, 23340, Note_off_c, 1, 53, 0
2, 23340, Note_on_c, 1, 51, 81
2, 23400, Note_off_c, 1, 51, 0
2, 23400, Note_on_c, 1, 49, 81
2, 23460, Note_off_c, 1, 49, 0
2, 23460, Note_on_c, 1, 48, 80
2, 23520, Note_off_c, 1, 48, 0
2, 23520, Note_on_c, 1, 46, 80
2, 23580, Note_off_c, 1, 46, 0
2, 23580, Note_on_c, 1, 44, 79
2, 23640, Note_off_c, 1, 44, 0
2, 23640, Note_on_c, 1, 43, 79
2, 23700, Note_off_c, 1, 43, 0
2, 23700, Note_on_c, 1, 41, 79
2, 23760, Note_off_c, 1, 41, 0
2, 23760, Note_on_c, 1, 39, 78
2, 23820, Note_off_c, 1, 39, 0
2, 23820, Note_on_c, 1, 37, 78
2, 23880, Note_off_c, 1, 37, 0
2, 23880, Note_on_c, 1, 36, 77
2, 23940, Note_off_c, 1, 36, 0
2, 23940, Note_on_c, 1, 34, 77
2, 24000, Note_on_c, 1, 32, 77
2, 24022, Note_off_c, 1, 34, 0
2, 24288, Note_off_c, 1, 32, 0
2, 24900, Note_on_c, 1, 80, 44
2, 24939, Note_off_c, 1, 80, 0
2, 24960, Note_on_c, 1, 80, 45
2, 25200, Note_off_c, 1, 80, 0
2, 25200, Note_on_c, 1, 85, 47
2, 25239, Note_off_c, 1, 85, 0
2, 25380, Note_on_c, 1, 85, 48
2, 25419, Note_off_c, 1, 85, 0
2, 25440, Note_on_c, 1, 85, 49
2, 25680, Note_off_c, 1, 85, 0
2, 25680, Note_on_c, 1, 84, 51
2, 25719, Note_off_c, 1, 84, 0
2, 25860, Note_on_c, 1, 85, 52
2, 25899, Note_off_c, 1, 85, 0
2, 25920, Note_on_c, 1, 87, 53
2, 26160, Note_off_c, 1, 87, 0
2, 26160, Note_on_c, 1, 84, 55
2, 26199, Note_off_c, 1, 84, 0
2, 26340, Note_on_c, 1, 80, 57
2, 26379, Note_off_c, 1, 80, 0
2, 26400, Note_on_c, 1, 80, 57
2, 26640, Note_off_c, 1, 80, 0
2, 26640, Note_on_c, 1, 85, 59
2, 26679, Note_off_c, 1, 85, 0
2, 26820, Note_on_c, 1, 80, 55
2, 26859, Note_off_c, 1, 80, 0
2, 26880, Note_on_c, 1, 80, 55
2, 27120, Note_off_c, 1, 80, 0
2, 27120, Note_on_c, 1, 85, 53
2, 27159, Note_off_c, 1, 85, 0
2, 27300, Note_on_c, 1, 80, 52
2, 27339, Note_off_c, 1, 80, 0
2, 27360, Note_on_c, 1, 82, 52
2, 27600, Note_off_c, 1, 82, 0
2, 27600, Note_on_c, 1, 78, 50
2, 27639, Note_off_c, 1, 78, 0
2, 27780, Note_on_c, 1, 77, 49
2, 27819, Note_off_c, 1, 77, 0
2, 27840, Note_on_c, 1, 77, 49
2, 28080, Note_off_c, 1, 77, 0
2, 28080, Note_on_c, 1, 75, 46
2, 28119, Note_off_c, 1, 75, 0
2, 28260, Note_on_c, 1, 75, 44
2, 28299, Note_off_c, 1, 75, 0
2, 28320, Note_on_c, 1, 75, 49
2, 28680, Note_off_c, 1, 75, 0
2, 28680, Note_on_c, 1, 77, 69
2, 28800, Note_off_c, 1, 77, 0
2, 28800, Note_on_c, 1, 78, 78
2, 29040, Note_off_c, 1, 78, 0
2, 29040, Note_on_c, 1, 77, 64
2, 29136, Note_off_c, 1, 77, 0
2, 29220, Note_on_c, 1, 77, 53
2, 29259, Note_off_c, 1, 77, 0
2, 29280, Note_on_c, 1, 77, 48
2, 30588, Note_off_c, 1, 77, 0
2, 30720, Note_on_c, 1, 89, 42
2, 30780, Note_off_c, 1, 89, 0
2, 30780, Note_on_c, 1, 88, 43
2, 30840, Note_off_c, 1, 88, 0
2, 30840, Note_on_c, 1, 86, 44
2, 30900, Note_off_c, 1, 86, 0
2, 30900, Note_on_c, 1, 84, 45
2, 30960, Note_off_c, 1, 84, 0
2, 30960, Note_on_c, 1, 82, 45
2, 31020, Note_off_c, 1, 82, 0
2, 31020, Note_on_c, 1, 81, 46
2, 31080, Note_off_c, 1, 81, 0
2, 31080, Note_on_c, 1, 79, 47
2, 31140, Note_off_c, 1, 79, 0
2, 31140, Note_on_c, 1, 77, 47
2, 31200, Note_off_c, 1, 77, 0
2, 31200, Note_on_c, 1, 76, 48
2, 31260, Note_off_c, 1, 76, 0
2, 31260, Note_on_c, 1, 74, 49
2, 31320, Note_off_c, 1, 74, 0
2, 31320, Note_on_c, 1, 72, 49
2, 31380, Note_off_c, 1, 72, 0
2, 31380, Note_on_c, 1, 70, 50
2, 31440, Note_off_c, 1, 70, 0
2, 31440, Note_on_c, 1, 69, 51
2, 31500, Note_off_c, 1, 69, 0
2, 31500, Note_on_c, 1, 67, 52
2, 31560, Note_off_c, 1, 67, 0
2, 31560, Note_on_c, 1, 65, 52
2, 31620, Note_off_c, 1, 65, 0
2, 31620, Note_on_c, 1, 64, 53
2, 31680, Note_off_c, 1, 64, 0
2, 31680, Note_on_c, 1, 62, 54
2, 31740, Note_off_c, 1, 62, 0
2, 31740, Note_on_c, 1, 60, 54
2, 31800, Note_off_c, 1, 60, 0
2, 31800, Note_on_c, 1, 58, 55
2, 31860, Note_off_c, 1, 58, 0
2, 31860, Note_on_c, 1, 57, 56
2, 31920, Note_off_c, 1, 57, 0
2, 31920, Note_on_c, 1, 55, 56
2, 31980, Note_off_c, 1, 55, 0
2, 31980, Note_on_c, 1, 53, 58
2, 32040, Note_off_c, 1, 53, 0
2, 32040, Note_on_c, 1, 55, 60
2, 32100, Note_off_c, 1, 55, 0
2, 32100, Note_on_c, 1, 57, 62
2, 32160, Note_off_c, 1, 57, 0
2, 32160, Note_on_c, 1, 58, 64
2, 32220, Note_off_c, 1, 58, 0
2, 32220, Note_on_c, 1, 60, 66
2, 32280, Note_off_c, 1, 60, 0
2, 32280, Note_on_c, 1, 62, 68
2, 32340, Note_off_c, 1, 62, 0
2, 32340, Note_on_c, 1, 64, 70
2, 32400, Note_off_c, 1, 64, 0
2, 32400, Note_on_c, 1, 65, 72
2, 32460, Note_off_c, 1, 65, 0
2, 32460, Note_on_c, 1, 67, 75
2, 32520, Note_off_c, 1, 67, 0
2, 32520, Note_on_c, 1, 69, 77
2, 32580, Note_off_c, 1, 69, 0
2, 32580, Note_on_c, 1, 70, 79
2, 32640, Note_off_c, 1, 70, 0
2, 32640, Note_on_c, 1, 72, 81
2, 32700, Note_off_c, 1, 72, 0
2, 32700, Note_on_c, 1, 74, 83
2, 32760, Note_off_c, 1, 74, 0
2, 32760, Note_on_c, 1, 76, 85
2, 32820, Note_off_c, 1, 76, 0
2, 32820, Note_on_c, 1, 77, 87
2, 32880, Note_off_c, 1, 77, 0
2, 32880, Note_on_c, 1, 79, 89
2, 32940, Note_off_c, 1, 79, 0
2, 32940, Note_on_c, 1, 81, 91
2, 33000, Note_off_c, 1, 81, 0
2, 33000, Note_on_c, 1, 82, 93
2, 33060, Note_off_c, 1, 82, 0
2, 33060, Note_on_c, 1, 84, 95
2, 33120, Note_off_c, 1, 84, 0
2, 33120, Note_on_c, 1, 86, 97
2, 33180, Note_off_c, 1, 86, 0
2, 33180, Note_on_c, 1, 88, 99
2, 33240, Note_off_c, 1, 88, 0
2, 33240, Note_on_c, 1, 89, 101
2, 33480, Note_off_c, 1, 89, 0
2, 34800, Note_on_c, 1, 65, 44
2, 35040, Note_off_c, 1, 65, 0
2, 35040, Note_on_c, 1, 70, 46
2, 35520, Note_off_c, 1, 70, 0
2, 35520, Note_on_c, 1, 74, 50
2, 35760, Note_off_c, 1, 74, 0
2, 35760, Note_on_c, 1, 72, 52
2, 36240, Note_off_c, 1, 72, 0
2, 36240, Note_on_c, 1, 77, 61
2, 36480, Note_off_c, 1, 77, 0
2, 36480, Note_on_c, 1, 74, 58
2, 37200, Note_off_c, 1, 74, 0
2, 37200, Note_on_c, 1, 70, 55
2, 37680, Note_off_c, 1, 70, 0
2, 37680, Note_on_c, 1, 69, 53
2, 37860, Note_off_c, 1, 69, 0
2, 37860, Note_on_c, 1, 69, 52
2, 37920, Note_off_c, 1, 69, 0
2, 37920, Note_on_c, 1, 67, 52
2, 38400, Note_off_c, 1, 67, 0
2, 38400, Note_on_c, 1, 65, 50
2, 38640, Note_off_c, 1, 65, 0
2, 38640, Note_on_c, 1, 67, 49
2, 39120, Note_off_c, 1, 67, 0
2, 39120, Note_on_c, 1, 69, 47
2, 39360, Note_off_c, 1, 69, 0
2, 39360, Note_on_c, 1, 65, 48
2, 40080, Note_off_c, 1, 65, 0
2, 40080, Note_on_c, 1, 67, 64
2, 40800, Note_off_c, 1, 67, 0
2, 40800, Note_on_c, 1, 67, 76
2, 40956, Note_off_c, 1, 67, 0
2, 41040, Note_on_c, 1, 67, 77
2, 41196, Note_off_c, 1, 67, 0
2, 41280, Note_on_c, 1, 67, 78
2, 41436, Note_off_c, 1, 67, 0
2, 41520, Note_on_c, 1, 70, 79
2, 41676, Note_off_c, 1, 70, 0
2, 41760, Note_on_c, 1, 70, 80
2, 41916, Note_off_c, 1, 70, 0
2, 42000, Note_on_c, 1, 70, 81
2, 42156, Note_off_c, 1, 70, 0
2, 42240, Note_on_c, 1, 72, 82
2, 42396, Note_off_c, 1, 72, 0
2, 42480, Note_on_c, 1, 72, 83
2, 42636, Note_off_c, 1, 72, 0
2, 42720, Note_on_c, 1, 72, 84
2, 42876, Note_off_c, 1, 72, 0
2, 42960, Note_on_c, 1, 74, 85
2, 43440, Note_off_c, 1, 74, 0
2, 43440, Note_on_c, 1, 79, 91
2, 43596, Note_off_c, 1, 79, 0
2, 43680, Note_on_c, 1, 77, 89
2, 43836, Note_off_c, 1, 77, 0
2, 43920, Note_on_c, 1, 77, 87
2, 44076, Note_off_c, 1, 77, 0
2, 44160, Note_on_c, 1, 77, 85
2, 44316, Note_off_c, 1, 77, 0
2, 44400, Note_on_c, 1, 77, 83
2, 44556, Note_off_c, 1, 77, 0
2, 44640, Note_on_c, 1, 77, 81
2, 44796, Note_off_c, 1, 77, 0
2, 44880, Note_on_c, 1, 77, 79
2, 45036, Note_off_c, 1, 77, 0
2, 45120, Note_on_c, 1, 74, 84
2, 45840, Note_off_c, 1, 74, 0
2, 45840, Note_on_c, 1, 67, 68
2, 46560, Note_off_c, 1, 67, 0
2, 46560, Note_on_c, 1, 67, 63
2, 46716, Note_off_c, 1, 67, 0
2, 46800, Note_on_c, 1, 67, 62
2, 46956, Note_off_c, 1, 67, 0
2, 47040, Note_on_c, 1, 67, 60
2, 47196, Note_off_c, 1, 67, 0
2, 47280, Note_on_c, 1, 70, 58
2, 47436, Note_off_c, 1, 70, 0
2, 47520, Note_on_c, 1, 70, 57
2, 47676, Note_off_c, 1, 70, 0
2, 47760, Note_on_c, 1, 70, 55
2, 47916, Note_off_c, 1, 70, 0
2, 48000, Note_on_c, 1, 72, 53
2, 48156, Note_off_c, 1, 72, 0
2, 48240, Note_on_c, 1, 72, 52
2, 48396, Note_off_c, 1, 72, 0
2, 48480, Note_on_c, 1, 72, 50
2, 48636, Note_off_c, 1, 72, 0
2, 48720, Note_on_c, 1, 72, 48
2, 49200, Note_off_c, 1, 72, 0
2, 49200, Note_on_c, 1, 79, 52
2, 49356, Note_off_c, 1, 79, 0
2, 49440, Note_on_c, 1, 79, 49
2, 49596, Note_off_c, 1, 79, 0
2, 49680, Note_on_c, 1, 79, 47
2, 49836, Note_off_c, 1, 79, 0
2, 49920, Note_on_c, 1, 79, 45
2, 50076, Note_off_c, 1, 79, 0
2, 50160, Note_on_c, 1, 79, 44
2, 50316, Note_off_c, 1, 79, 0
2, 50400, Note_on_c, 1, 79, 42
2, 50556, Note_off_c, 1, 79, 0
2, 50640, Note_on_c, 1, 79, 40
2, 50796, Note_off_c, 1, 79, 0
2, 50880, Note_on_c, 1, 79, 39
2, 51036, Note_off_c, 1, 79, 0
2, 51120, Note_on_c, 1, 79, 37
2, 51276, Note_off_c, 1, 79, 0
2, 51360, Note_on_c, 1, 79, 35
2, 51516, Note_off_c, 1, 79, 0
2, 51600, Note_on_c, 1, 79, 34
2, 51756, Note_off_c, 1, 79, 0
2, 51840, Note_on_c, 1, 79, 32
2, 51996, Note_off_c, 1, 79, 0
2, 52080, Note_on_c, 1, 79, 28
2, 52236, Note_off_c, 1, 79, 0
2, 52320, Note_on_c, 1, 79, 25
2, 53040, Note_off_c, 1, 79, 0
2, 53040, Note_on_c, 1, 79, 30
2, 53760, Note_off_c, 1, 79, 0
2, 53760, Note_on_c, 1, 79, 33
2, 54480, Note_off_c, 1, 79, 0
2, 54480, Note_on_c, 1, 79, 36
2, 55200, Note_off_c, 1, 79, 0
2, 55320, Note_on_c, 1, 80, 37
2, 55860, Note_off_c, 1, 80, 0
2, 55920, Note_on_c, 1, 68, 34
2, 56640, Note_off_c, 1, 68, 0
2, 56640, Note_on_c, 1, 62, 32
2, 57360, Note_off_c, 1, 62, 0
2, 57360, Note_on_c, 1, 63, 30
2, 58080, Note_off_c, 1, 63, 0
2, 58080, Note_on_c, 1, 58, 27
2, 58800, Note_off_c, 1, 58, 0
2, 58800, Note_on_c, 1, 77, 31
2, 60240, Note_on_c, 1, 75, 35
2, 60247, Note_off_c, 1, 77, 0
2, 60960, Note_off_c, 1, 75, 0
2, 60960, Note_on_c, 1, 74, 28
2, 61440, Note_off_c, 1, 74, 0
2, 61680, Note_on_c, 1, 70, 34
2, 62160, Note_off_c, 1, 70, 0
2, 62160, Note_on_c, 1, 68, 31
2, 62316, Note_off_c, 1, 68, 0
2, 62400, Note_on_c, 1, 62, 30
2, 62880, Note_off_c, 1, 62, 0
2, 63120, Note_on_c, 1, 67, 33
2, 63600, Note_off_c, 1, 67, 0
2, 63600, Note_on_c, 1, 65, 30
2, 63756, Note_off_c, 1, 65, 0
2, 63840, Note_on_c, 1, 58, 29
2, 64560, Note_off_c, 1, 58, 0
2, 64560, Note_on_c, 1, 77, 32
2, 66000, Note_off_c, 1, 77, 0
2, 66000, Note_on_c, 1, 75, 38
2, 66720, Note_off_c, 1, 75, 0
2, 66720, Note_on_c, 1, 75, 32
2, 68160, Control_c, 1, 64, 127
2, 68160, Note_off_c, 1, 75, 0
2, 68160, Note_on_c, 1, 76, 95
2, 69600, Note_off_c, 1, 76, 0
2, 71040, Note_on_c, 1, 61, 73
2, 71100, Note_off_c, 1, 61, 0
2, 71100, Note_on_c, 1, 64, 74
2, 71160, Note_off_c, 1, 64, 0
2, 71160, Note_on_c, 1, 67, 74
2, 71220, Note_off_c, 1, 67, 0
2, 71220, Note_on_c, 1, 64, 74
2, 71280, Note_off_c, 1, 64, 0
2, 71280, Note_on_c, 1, 61, 75
2, 71340, Note_off_c, 1, 61, 0
2, 71340, Note_on_c, 1, 64, 75
2, 71400, Note_off_c, 1, 64, 0
2, 71400, Note_on_c, 1, 67, 76
2, 71460, Note_off_c, 1, 67, 0
2, 71460, Note_on_c, 1, 73, 76
2, 71520, Note_off_c, 1, 73, 0
2, 71520, Note_on_c, 1, 67, 76
2, 71580, Note_off_c, 1, 67, 0
2, 71580, Note_on_c, 1, 64, 77
2, 71640, Note_off_c, 1, 64, 0
2, 71640, Note_on_c, 1, 67, 77
2, 71700, Note_off_c, 1, 67, 0
2, 71700, Note_on_c, 1, 73, 77
2, 71760, Note_off_c, 1, 73, 0
2, 71760, Note_on_c, 1, 76, 78
2, 71820, Note_off_c, 1, 76, 0
2, 71820, Note_on_c, 1, 73, 78
2, 71880, Note_off_c, 1, 73, 0
2, 71880, Note_on_c, 1, 67, 78
2, 71940, Note_off_c, 1, 67, 0
2, 71940, Note_on_c, 1, 73, 79
2, 72000, Note_off_c, 1, 73, 0
2, 72000, Note_on_c, 1, 76, 79
2, 72060, Note_off_c, 1, 76, 0
2, 72060, Note_on_c, 1, 79, 79
2, 72120, Note_off_c, 1, 79, 0
2, 72120, Note_on_c, 1, 76, 80
2, 72180, Note_off_c, 1, 76, 0
2, 72180, Note_on_c, 1, 73, 80
2, 72240, Note_off_c, 1, 73, 0
2, 72240, Note_on_c, 1, 76, 81
2, 72300, Note_off_c, 1, 76, 0
2, 72300, Note_on_c, 1, 79, 81
2, 72360, Note_off_c, 1, 79, 0
2, 72360, Note_on_c, 1, 85, 81
2, 72420, Note_off_c, 1, 85, 0
2, 72420, Note_on_c, 1, 79, 82
2, 72480, Note_off_c, 1, 79, 0
2, 72480, Note_on_c, 1, 76, 82
2, 72540, Note_off_c, 1, 76, 0
2, 72540, Note_on_c, 1, 79, 82
2, 72600, Note_off_c, 1, 79, 0
2, 72600, Note_on_c, 1, 85, 83
2, 72660, Note_off_c, 1, 85, 0
2, 72660, Note_on_c, 1, 88, 83
2, 72720, Note_off_c, 1, 88, 0
2, 72720, Note_on_c, 1, 85, 83
2, 72780, Note_off_c, 1, 85, 0
2, 72780, Note_on_c, 1, 79, 84
2, 72840, Note_off_c, 1, 79, 0
2, 72840, Note_on_c, 1, 85, 84
2, 72900, Note_off_c, 1, 85, 0
2, 72900, Note_on_c, 1, 88, 85
2, 72960, Note_off_c, 1, 88, 0
2, 72960, Note_on_c, 1, 91, 85
2, 73560, Control_c, 1, 64, 0
2, 73680, Control_c, 1, 64, 127
2, 73680, Note_off_c, 1, 91, 0
2, 73680, Note_on_c, 1, 54, 70
2, 73740, Note_off_c, 1, 54, 0
2, 73740, Note_on_c, 1, 57, 70
2, 73800, Note_off_c, 1, 57, 0
2, 73800, Note_on_c, 1, 60, 71
2, 73860, Note_off_c, 1, 60, 0
2, 73860, Note_on_c, 1, 57, 71
2, 73920, Note_off_c, 1, 57, 0
2, 73920, Note_on_c, 1, 54, 71
2, 73980, Note_off_c, 1, 54, 0
2, 73980, Note_on_c, 1, 57, 72
2, 74040, Note_off_c, 1, 57, 0
2, 74040, Note_on_c, 1, 66, 72
2, 74100, Note_off_c, 1, 66, 0
2, 74100, Note_on_c, 1, 60, 72
2, 74160, Note_off_c, 1, 60, 0
2, 74160, Note_on_c, 1, 57, 72
2, 74220, Note_off_c, 1, 57, 0
2, 74220, Note_on_c, 1, 60, 73
2, 74280, Note_off_c, 1, 60, 0
2, 74280, Note_on_c, 1, 66, 73
2, 74340, Note_off_c, 1, 66, 0
2, 74340, Note_on_c, 1, 69, 73
2, 74400, Note_off_c, 1, 69, 0
2, 74400, Note_on_c, 1, 66, 74
2, 74460, Note_off_c, 1, 66, 0
2, 74460, Note_on_c, 1, 60, 74
2, 74520, Note_off_c, 1, 60, 0
2, 74520, Note_on_c, 1, 66, 74
2, 74580, Note_off_c, 1, 66, 0
2, 74580, Note_on_c, 1, 69, 75
2, 74640, Note_off_c, 1, 69, 0
2, 74640, Note_on_c, 1, 72, 75
2, 74700, Note_off_c, 1, 72, 0
2, 74700, Note_on_c, 1, 69, 75
2, 74760, Note_off_c, 1, 69, 0
2, 74760, Note_on_c, 1, 66, 76
2, 74820, Note_off_c, 1, 66, 0
2, 74820, Note_on_c, 1, 69, 76
2, 74880, Note_off_c, 1, 69, 0
2, 74880, Note_on_c, 1, 72, 76
2, 74940, Note_off_c, 1, 72, 0
2, 74940, Note_on_c, 1, 78, 77
2, 75000, Note_off_c, 1, 78, 0
2, 75000, Note_on_c, 1, 72, 77
2, 75060, Note_off_c, 1, 72, 0
2, 75060, Note_on_c, 1, 69, 77
2, 75120, Note_off_c, 1, 69, 0
2, 75120, Note_on_c, 1, 72, 78
2, 75180, Note_off_c, 1, 72, 0
2, 75180, Note_on_c, 1, 78, 78
2, 75240, Note_off_c, 1, 78, 0
2, 75240, Note_on_c, 1, 81, 78
2, 75300, Note_off_c, 1, 81, 0
2, 75300, Note_on_c, 1, 78, 79
2, 75360, Note_off_c, 1, 78, 0
2, 75360, Note_on_c, 1, 72, 79
2, 75420, Note_off_c, 1, 72, 0
2, 75420, Note_on_c, 1, 78, 79
2, 75480, Note_off_c, 1, 78, 0
2, 75480, Note_on_c, 1, 81, 79
2, 75540, Note_off_c, 1, 81, 0
2, 75540, Note_on_c, 1, 84, 80
2, 76080, Control_c, 1, 64, 0
2, 76200, Control_c, 1, 64, 127
2, 76260, Note_off_c, 1, 84, 0
2, 76260, Note_on_c, 1, 59, 84
2, 76320, Note_off_c, 1, 59, 0
2, 76320, Note_on_c, 1, 62, 84
2, 76380, Note_off_c, 1, 62, 0
2, 76380, Note_on_c, 1, 65, 84
2, 76440, Note_off_c, 1, 65, 0
2, 76440, Note_on_c, 1, 62, 85
2, 76500, Note_off_c, 1, 62, 0
2, 76500, Note_on_c, 1, 59, 85
2, 76560, Note_off_c, 1, 59, 0
2, 76560, Note_on_c, 1, 62, 85
2, 76620, Note_off_c, 1, 62, 0
2, 76620, Note_on_c, 1, 65, 86
2, 76680, Note_off_c, 1, 65, 0
2, 76680, Note_on_c, 1, 71, 86
2, 76740, Note_off_c, 1, 71, 0
2, 76740, Note_on_c, 1, 65, 86
2, 76800, Note_off_c, 1, 65, 0
2, 76800, Note_on_c, 1, 62, 86
2, 76860, Note_off_c, 1, 62, 0
2, 76860, Note_on_c, 1, 65, 87
2, 76920, Note_off_c, 1, 65, 0
2, 76920, Note_on_c, 1, 71, 87
2, 76980, Note_off_c, 1, 71, 0
2, 76980, Note_on_c, 1, 74, 87
2, 77040, Note_off_c, 1, 74, 0
2, 77040, Note_on_c, 1, 71, 88
2, 77100, Note_off_c, 1, 71, 0
2, 77100, Note_on_c, 1, 65, 88
2, 77160, Note_off_c, 1, 65, 0
2, 77160, Note_on_c, 1, 71, 88
2, 77220, Note_off_c, 1, 71, 0
2, 77220, Note_on_c, 1, 74, 89
2, 77280, Note_off_c, 1, 74, 0
2, 77280, Note_on_c, 1, 77, 89
2, 77340, Note_off_c, 1, 77, 0
2, 77340, Note_on_c, 1, 74, 89
2, 77400, Note_off_c, 1, 74, 0
2, 77400, Note_on_c, 1, 71, 90
2, 77460, Note_off_c, 1, 71, 0
2, 77460, Note_on_c, 1, 74, 90
2, 77520, Note_off_c, 1, 74, 0
2, 77520, Note_on_c, 1, 77, 90
2, 77580, Note_off_c, 1, 77, 0
2, 77580, Note_on_c, 1, 83, 91
2, 77640, Note_off_c, 1, 83, 0
2, 77640, Note_on_c, 1, 77, 91
2, 77700, Note_off_c, 1, 77, 0
2, 77700, Note_on_c, 1, 74, 91
2, 77760, Note_off_c, 1, 74, 0
2, 77760, Note_on_c, 1, 77, 92
2, 77820, Note_off_c, 1, 77, 0
2, 77820, Note_on_c, 1, 83, 92
2, 77880, Note_off_c, 1, 83, 0
2, 77880, Note_on_c, 1, 86, 92
2, 77940, Note_off_c, 1, 86, 0
2, 77940, Note_on_c, 1, 83, 92
2, 78000, Note_off_c, 1, 83, 0
2, 78000, Note_on_c, 1, 77, 93
2, 78060, Note_off_c, 1, 77, 0
2, 78060, Note_on_c, 1, 83, 93
2, 78120, Note_off_c, 1, 83, 0
2, 78120, Note_on_c, 1, 86, 93
2, 78180, Control_c, 1, 64, 0
2, 78180, Note_off_c, 1, 86, 0
2, 78180, Note_on_c, 1, 88, 94
2, 78180, Note_on_c, 1, 89, 94
2, 78220, Note_off_c, 1, 88, 0
2, 78720, Control_c, 1, 64, 0
2, 78840, Control_c, 1, 64, 127
2, 78900, Note_off_c, 1, 89, 0
2, 78900, Note_on_c, 1, 57, 98
2, 78960, Note_off_c, 1, 57, 0
2, 78960, Note_on_c, 1, 61, 98
2, 79020, Note_off_c, 1, 61, 0
2, 79020, Note_on_c, 1, 64, 98
2, 79080, Note_off_c, 1, 64, 0
2, 79080, Note_on_c, 1, 61, 99
2, 79140, Note_off_c, 1, 61, 0
2, 79140, Note_on_c, 1, 57, 99
2, 79200, Note_off_c, 1, 57, 0
2, 79200, Note_on_c, 1, 61, 99
2, 79260, Note_off_c, 1, 61, 0
2, 79260, Note_on_c, 1, 64, 99
2, 79320, Note_off_c, 1, 64, 0
2, 79320, Note_on_c, 1, 67, 100
2, 79380, Note_off_c, 1, 67, 0
2, 79380, Note_on_c, 1, 64, 100
2, 79440, Note_off_c, 1, 64, 0
2, 79440, Note_on_c, 1, 61, 100
2, 79500, Note_off_c, 1, 61, 0
2, 79500, Note_on_c, 1, 64, 101
2, 79560, Note_off_c, 1, 64, 0
2, 79560, Note_on_c, 1, 67, 101
2, 79620, Note_off_c, 1, 67, 0
2, 79620, Note_on_c, 1, 73, 101
2, 79680, Note_off_c, 1, 73, 0
2, 79680, Note_on_c, 1, 67, 102
2, 79740, Note_off_c, 1, 67, 0
2, 79740, Note_on_c, 1, 64, 102
2, 79800, Note_off_c, 1, 64, 0
2, 79800, Note_on_c, 1, 67, 102
2, 79860, Note_off_c, 1, 67, 0
2, 79860, Note_on_c, 1, 73, 103
2, 79920, Note_off_c, 1, 73, 0
2, 79920, Note_on_c, 1, 76, 103
2, 79980, Note_off_c, 1, 76, 0
2, 79980, Note_on_c, 1, 73, 103
2, 80040, Note_off_c, 1, 73, 0
2, 80040, Note_on_c, 1, 67, 104
2, 80100, Note_off_c, 1, 67, 0
2, 80100, Note_on_c, 1, 73, 104
2, 80160, Note_off_c, 1, 73, 0
2, 80160, Note_on_c, 1, 76, 104
2, 80220, Note_off_c, 1, 76, 0
2, 80220, Note_on_c, 1, 79, 105
2, 80280, Note_off_c, 1, 79, 0
2, 80280, Note_on_c, 1, 76, 105
2, 80340, Note_off_c, 1, 76, 0
2, 80340, Note_on_c, 1, 73, 105
2, 80400, Note_off_c, 1, 73, 0
2, 80400, Note_on_c, 1, 76, 106
2, 80460, Note_off_c, 1, 76, 0
2, 80460, Note_on_c, 1, 79, 106
2, 80520, Note_off_c, 1, 79, 0
2, 80520, Note_on_c, 1, 85, 106
2, 80520, Note_on_c, 1, 73, 106
2, 80580, Note_off_c, 1, 73, 0
2, 80580, Note_off_c, 1, 85, 0
2, 80580, Note_on_c, 1, 79, 106
2, 80640, Note_off_c, 1, 79, 0
2, 80640, Note_on_c, 1, 76, 107
2, 80700, Note_off_c, 1, 76, 0
2, 80700, Note_on_c, 1, 79, 107
2, 80760, Note_off_c, 1, 79, 0
2, 80760, Note_on_c, 1, 85, 107
2, 80820, Note_off_c, 1, 85, 0
2, 80820, Note_on_c, 1, 88, 108
2, 80880, Note_off_c, 1, 88, 0
2, 80880, Note_on_c, 1, 85, 108
2, 80940, Note_off_c, 1, 85, 0
2, 80940, Note_on_c, 1, 79, 108
2, 81000, Note_off_c, 1, 79, 0
2, 81000, Note_on_c, 1, 85, 109
2, 81060, Note_off_c, 1, 85, 0
2, 81060, Note_on_c, 1, 88, 109
2, 81120, Note_off_c, 1, 88, 0
2, 81120, Note_on_c, 1, 91, 115
2, 81180, Note_off_c, 1, 91, 0
2, 81180, Note_on_c, 1, 88, 113
2, 81240, Control_c, 1, 64, 0
2, 81240, Note_off_c, 1, 88, 0
2, 81240, Note_on_c, 1, 86, 112
2, 81300, Note_off_c, 1, 86, 0
2, 81300, Note_on_c, 1, 85, 110
2, 81360, Note_off_c, 1, 85, 0
2, 81360, Note_on_c, 1, 82, 109
2, 81420, Note_off_c, 1, 82, 0
2, 81420, Note_on_c, 1, 81, 108
2, 81480, Note_off_c, 1, 81, 0
2, 81480, Note_on_c, 1, 79, 106
2, 81540, Note_off_c, 1, 79, 0
2, 81540, Note_on_c, 1, 77, 105
2, 81600, Note_off_c, 1, 77, 0
2, 81600, Note_on_c, 1, 76, 103
2, 81660, Note_off_c, 1, 76, 0
2, 81660, Note_on_c, 1, 74, 102
2, 81720, Note_off_c, 1, 74, 0
2, 81720, Note_on_c, 1, 73, 100
2, 83280, Note_off_c, 1, 73, 0
2, 83280, Note_on_c, 1, 57, 91
2, 83520, Note_off_c, 1, 57, 0
2, 83520, Note_on_c, 1, 50, 97
2, 83640, Note_on_c, 1, 62, 93
2, 83760, Note_off_c, 1, 62, 0
2, 83760, Note_off_c, 1, 50, 0
2, 83760, Note_on_c, 1, 53, 93
2, 83880, Note_on_c, 1, 65, 94
2, 84000, Note_off_c, 1, 65, 0
2, 84000, Note_off_c, 1, 53, 0
2, 84000, Note_on_c, 1, 57, 94
2, 84120, Note_on_c, 1, 69, 95
2, 84240, Note_off_c, 1, 69, 0
2, 84240, Note_off_c, 1, 57, 0
2, 84240, Note_on_c, 1, 62, 95
2, 84360, Note_on_c, 1, 74, 96
2, 84480, Note_off_c, 1, 74, 0
2, 84480, Note_off_c, 1, 62, 0
2, 84480, Note_on_c, 1, 65, 102
2, 84600, Note_on_c, 1, 77, 97
2, 84720, Note_off_c, 1, 77, 0
2, 84720, Note_off_c, 1, 65, 0
2, 84720, Note_on_c, 1, 62, 98
2, 84840, Note_on_c, 1, 74, 98
2, 84960, Note_off_c, 1, 74, 0
2, 84960, Note_off_c, 1, 62, 0
2, 84960, Note_on_c, 1, 61, 99
2, 85080, Note_on_c, 1, 73, 99
2, 85200, Note_off_c, 1, 73, 0
2, 85200, Note_off_c, 1, 61, 0
2, 85200, Note_on_c, 1, 62, 100
2, 85320, Note_on_c, 1, 74, 101
2, 85440, Note_off_c, 1, 74, 0
2, 85440, Note_off_c, 1, 62, 0
2, 85440, Note_on_c, 1, 64, 108
2, 85560, Note_on_c, 1, 76, 103
2, 85680, Note_off_c, 1, 76, 0
2, 85680, Note_off_c, 1, 64, 0
2, 85680, Note_on_c, 1, 67, 102
2, 85800, Note_on_c, 1, 79, 100
2, 85920, Note_off_c, 1, 79, 0
2, 85920, Note_off_c, 1, 67, 0
2, 85920, Note_on_c, 1, 65, 99
2, 86040, Note_on_c, 1, 77, 98
2, 86160, Note_off_c, 1, 77, 0
2, 86160, Note_off_c, 1, 65, 0
2, 86160, Note_on_c, 1, 64, 97
2, 86280, Note_on_c, 1, 76, 95
2, 86400, Note_off_c, 1, 76, 0
2, 86400, Note_off_c, 1, 64, 0
2, 86400, Note_on_c, 1, 65, 94
2, 86520, Note_on_c, 1, 77, 93
2, 86640, Note_off_c, 1, 77, 0
2, 86640, Note_off_c, 1, 65, 0
2, 86640, Note_on_c, 1, 62, 91
2, 86760, Note_on_c, 1, 74, 90
2, 86880, Note_off_c, 1, 74, 0
2, 86880, Note_off_c, 1, 62, 0
2, 86880, Note_on_c, 1, 61, 89
2, 87000, Note_on_c, 1, 73, 88
2, 87120, Note_off_c, 1, 73, 0
2, 87120, Note_off_c, 1, 61, 0
2, 87120, Note_on_c, 1, 62, 86
2, 87240, Note_on_c, 1, 74, 85
2, 87720, Note_off_c, 1, 74, 0
2, 87735, Note_off_c, 1, 62, 0
2, 88560, Note_on_c, 1, 69, 86
2, 88560, Note_on_c, 1, 81, 86
2, 88800, Note_off_c, 1, 81, 0
2, 88800, Note_off_c, 1, 69, 0
2, 89040, Note_on_c, 1, 69, 87
2, 89040, Note_on_c, 1, 81, 87
2, 89280, Note_off_c, 1, 81, 0
2, 89280, Note_off_c, 1, 69, 0
2, 89520, Note_on_c, 1, 69, 89
2, 89520, Note_on_c, 1, 81, 89
2, 89760, Note_off_c, 1, 81, 0
2, 89760, Note_off_c, 1, 69, 0
2, 90000, Note_on_c, 1, 69, 91
2, 90000, Note_on_c, 1, 81, 91
2, 90240, Note_off_c, 1, 81, 0
2, 90240, Note_off_c, 1, 69, 0
2, 90480, Note_on_c, 1, 69, 90
2, 90480, Note_on_c, 1, 81, 90
2, 90720, Note_off_c, 1, 81, 0
2, 90720, Note_off_c, 1, 69, 0
2, 90960, Note_on_c, 1, 68, 84
2, 90960, Note_on_c, 1, 80, 84
2, 91200, Note_off_c, 1, 80, 0
2, 91200, Note_off_c, 1, 68, 0
2, 91200, Note_on_c, 1, 69, 78
2, 91200, Note_on_c, 1, 81, 78
2, 91680, Note_off_c, 1, 81, 0
2, 91680, Note_off_c, 1, 69, 0
2, 91920, Note_on_c, 1, 60, 96
2, 92040, Note_on_c, 1, 72, 96
2, 92160, Note_off_c, 1, 72, 0
2, 92160, Note_off_c, 1, 60, 0
2, 92160, Note_on_c, 1, 65, 103
2, 92280, Note_on_c, 1, 77, 97
2, 92400, Note_off_c, 1, 77, 0
2, 92400, Note_off_c, 1, 65, 0
2, 92400, Note_on_c, 1, 69, 98
2, 92520, Note_on_c, 1, 81, 98
2, 92640, Note_off_c, 1, 81, 0
2, 92640, Note_off_c, 1, 69, 0
2, 92640, Note_on_c, 1, 72, 98
2, 92760, Note_on_c, 1, 84, 99
2, 92880, Note_off_c, 1, 84, 0
2, 92880, Note_off_c, 1, 72, 0
2, 92880, Note_on_c, 1, 77, 99
2, 93000, Note_on_c, 1, 89, 100
2, 93120, Note_off_c, 1, 89, 0
2, 93120, Note_off_c, 1, 77, 0
2, 93120, Note_on_c, 1, 81, 107
2, 93240, Note_on_c, 1, 93, 100
2, 93360, Note_off_c, 1, 93, 0
2, 93360, Note_off_c, 1, 81, 0
2, 93360, Note_on_c, 1, 77, 101
2, 93480, Note_on_c, 1, 89, 101
2, 93600, Note_off_c, 1, 89, 0
2, 93600, Note_off_c, 1, 77, 0
2, 93600, Note_on_c, 1, 76, 102
2, 93720, Note_on_c, 1, 88, 102
2, 93840, Note_off_c, 1, 88, 0
2, 93840, Note_off_c, 1, 76, 0
2, 93840, Note_on_c, 1, 77, 103
2, 93960, Note_on_c, 1, 89, 103
2, 94080, Note_off_c, 1, 89, 0
2, 94080, Note_off_c, 1, 77, 0
2, 94080, Note_on_c, 1, 72, 108
2, 94200, Note_on_c, 1, 84, 103
2, 94320, Note_off_c, 1, 84, 0
2, 94320, Note_off_c, 1, 72, 0
2, 94320, Note_on_c, 1, 69, 103
2, 94440, Note_on_c, 1, 81, 102
2, 94560, Note_off_c, 1, 81, 0
2, 94560, Note_off_c, 1, 69, 0
2, 94560, Note_on_c, 1, 68, 102
2, 94680, Note_on_c, 1, 80, 101
2, 94800, Note_off_c, 1, 80, 0
2, 94800, Note_off_c, 1, 68, 0
2, 94800, Note_on_c, 1, 69, 101
2, 94920, Note_on_c, 1, 81, 101
2, 95040, Note_off_c, 1, 81, 0
2, 95040, Note_off_c, 1, 69, 0
2, 95040, Note_on_c, 1, 70, 107
2, 95160, Note_on_c, 1, 82, 100
2, 95280, Note_off_c, 1, 82, 0
2, 95280, Note_off_c, 1, 70, 0
2, 95280, Note_on_c, 1, 67, 100
2, 95400, Note_on_c, 1, 79, 99
2, 95520, Note_off_c, 1, 79, 0
2, 95520, Note_off_c, 1, 67, 0
2, 95520, Note_on_c, 1, 66, 99
2, 95640, Note_on_c, 1, 78, 99
2, 95760, Note_off_c, 1, 78, 0
2, 95760, Note_off_c, 1, 66, 0
2, 95760, Note_on_c, 1, 67, 98
2, 95880, Note_on_c, 1, 79, 98
2, 96000, Note_off_c, 1, 79, 0
2, 96000, Note_off_c, 1, 67, 0
2, 96000, Note_on_c, 1, 64, 105
2, 96120, Note_on_c, 1, 76, 97
2, 96240, Note_off_c, 1, 76, 0
2, 96240, Note_off_c, 1, 64, 0
2, 96240, Note_on_c, 1, 61, 97
2, 96360, Note_on_c, 1, 73, 96
2, 96480, Note_off_c, 1, 73, 0
2, 96480, Note_off_c, 1, 61, 0
2, 96480, Note_on_c, 1, 60, 96
2, 96600, Note_on_c, 1, 72, 96
2, 96720, Note_off_c, 1, 72, 0
2, 96720, Note_off_c, 1, 60, 0
2, 96720, Note_on_c, 1, 61, 95
2, 96840, Note_on_c, 1, 73, 95
2, 96960, Note_off_c, 1, 73, 0
2, 96960, Note_off_c, 1, 61, 0
2, 96960, Note_on_c, 1, 57, 102
2, 97080, Note_on_c, 1, 69, 94
2, 97200, Note_off_c, 1, 69, 0
2, 97200, Note_off_c, 1, 57, 0
2, 97200, Note_on_c, 1, 55, 94
2, 97320, Note_on_c, 1, 67, 93
2, 97440, Note_off_c, 1, 67, 0
2, 97440, Note_off_c, 1, 55, 0
2, 97440, Note_on_c, 1, 53, 93
2, 97560, Note_on_c, 1, 65, 93
2, 97680, Note_off_c, 1, 65, 0
2, 97680, Note_off_c, 1, 53, 0
2, 97680, Note_on_c, 1, 52, 92
2, 97800, Note_on_c, 1, 64, 92
2, 97920, Note_off_c, 1, 64, 0
2, 97920, Note_off_c, 1, 52, 0
2, 97920, Note_on_c, 1, 50, 98
2, 98040, Note_on_c, 1, 62, 91
2, 98160, Note_off_c, 1, 62, 0
2, 98160, Note_off_c, 1, 50, 0
2, 98160, Note_on_c, 1, 53, 90
2, 98280, Note_on_c, 1, 65, 89
2, 98400, Note_off_c, 1, 65, 0
2, 98400, Note_off_c, 1, 53, 0
2, 98400, Note_on_c, 1, 57, 88
2, 98520, Note_on_c, 1, 69, 88
2, 98640, Note_off_c, 1, 69, 0
2, 98640, Note_off_c, 1, 57, 0
2, 98640, Note_on_c, 1, 61, 87
2, 98760, Note_on_c, 1, 73, 86
2, 98880, Note_off_c, 1, 73, 0
2, 98880, Note_off_c, 1, 61, 0
2, 98880, Note_on_c, 1, 74, 84
2, 98880, Note_on_c, 1, 62, 84
2, 99360, Note_off_c, 1, 62, 0
2, 99360, Note_off_c, 1, 74, 0
2, 99600, Note_on_c, 1, 60, 96
2, 99720, Note_on_c, 1, 72, 97
2, 99840, Note_off_c, 1, 72, 0
2, 99840, Note_off_c, 1, 60, 0
2, 99840, Note_on_c, 1, 65, 103
2, 99960, Note_on_c, 1, 77, 97
2, 100080, Note_off_c, 1, 77, 0
2, 100080, Note_off_c, 1, 65, 0
2, 100080, Note_on_c, 1, 69, 98
2, 100200, Note_on_c, 1, 81, 98
2, 100320, Note_off_c, 1, 81, 0
2, 100320, Note_off_c, 1, 69, 0
2, 100320, Note_on_c, 1, 72, 99
2, 100440, Note_on_c, 1, 84, 99
2, 100560, Note_off_c, 1, 84, 0
2, 100560, Note_off_c, 1, 72, 0
2, 100560, Note_on_c, 1, 77, 99
2, 100680, Note_on_c, 1, 89, 100
2, 100800, Note_off_c, 1, 89, 0
2, 100800, Note_off_c, 1, 77, 0
2, 100800, Note_on_c, 1, 81, 107
2, 100920, Note_on_c, 1, 93, 101
2, 101040, Note_off_c, 1, 93, 0
2, 101040, Note_off_c, 1, 81, 0
2, 101040, Note_on_c, 1, 77, 101
2, 101160, Note_on_c, 1, 89, 101
2, 101280, Note_off_c, 1, 89, 0
2, 101280, Note_off_c, 1, 77, 0
2, 101280, Note_on_c, 1, 76, 102
2, 101400, Note_on_c, 1, 88, 102
2, 101520, Note_off_c, 1, 88, 0
2, 101520, Note_off_c, 1, 76, 0
2, 101520, Note_on_c, 1, 77, 103
2, 101640, Note_on_c, 1, 89, 103
2, 101760, Note_off_c, 1, 89, 0
2, 101760, Note_off_c, 1, 77, 0
2, 101760, Note_on_c, 1, 72, 111
2, 101880, Note_on_c, 1, 84, 103
2, 102000, Note_off_c, 1, 84, 0
2, 102000, Note_off_c, 1, 72, 0
2, 102000, Note_on_c, 1, 69, 103
2, 102120, Note_on_c, 1, 81, 102
2, 102240, Note_off_c, 1, 81, 0
2, 102240, Note_off_c, 1, 69, 0
2, 102240, Note_on_c, 1, 68, 102
2, 102360, Note_on_c, 1, 80, 101
2, 102480, Note_off_c, 1, 80, 0
2, 102480, Note_off_c, 1, 68, 0
2, 102480, Note_on_c, 1, 69, 101
2, 102600, Note_on_c, 1, 81, 100
2, 102720, Note_off_c, 1, 81, 0
2, 102720, Note_off_c, 1, 69, 0
2, 102720, Note_on_c, 1, 70, 109
2, 102840, Note_on_c, 1, 82, 100
2, 102960, Note_off_c, 1, 82, 0
2, 102960, Note_off_c, 1, 70, 0
2, 102960, Note_on_c, 1, 67, 99
2, 103080, Note_on_c, 1, 79, 99
2, 103200, Note_off_c, 1, 79, 0
2, 103200, Note_off_c, 1, 67, 0
2, 103200, Note_on_c, 1, 66, 98
2, 103320, Note_on_c, 1, 78, 98
2, 103440, Note_off_c, 1, 78, 0
2, 103440, Note_off_c, 1, 66, 0
2, 103440, Note_on_c, 1, 67, 98
2, 103560, Note_on_c, 1, 79, 97
2, 103680, Note_off_c, 1, 79, 0
2, 103680, Note_off_c, 1, 67, 0
2, 103680, Note_on_c, 1, 64, 106
2, 103800, Note_on_c, 1, 76, 98
2, 103920, Note_off_c, 1, 76, 0
2, 103920, Note_off_c, 1, 64, 0
2, 103920, Note_on_c, 1, 61, 98
2, 104040, Note_on_c, 1, 73, 97
2, 104160, Note_off_c, 1, 73, 0
2, 104160, Note_off_c, 1, 61, 0
2, 104160, Note_on_c, 1, 60, 96
2, 104280, Note_on_c, 1, 72, 96
2, 104400, Note_off_c, 1, 72, 0
2, 104400, Note_off_c, 1, 60, 0
2, 104400, Note_on_c, 1, 61, 95
2, 104520, Note_on_c, 1, 73, 94
2, 104640, Note_off_c, 1, 73, 0
2, 104640, Note_off_c, 1, 61, 0
2, 104640, Note_on_c, 1, 57, 102
2, 104760, Note_on_c, 1, 69, 93
2, 104880, Note_off_c, 1, 69, 0
2, 104880, Note_off_c, 1, 57, 0
2, 104880, Note_on_c, 1, 55, 92
2, 105000, Note_on_c, 1, 67, 91
2, 105120, Note_off_c, 1, 67, 0
2, 105120, Note_off_c, 1, 55, 0
2, 105120, Note_on_c, 1, 53, 90
2, 105240, Note_on_c, 1, 65, 89
2, 105360, Note_off_c, 1, 65, 0
2, 105360, Note_off_c, 1, 53, 0
2, 105360, Note_on_c, 1, 52, 88
2, 105480, Note_on_c, 1, 64, 87
2, 105600, Note_off_c, 1, 64, 0
2, 105600, Note_off_c, 1, 52, 0
2, 105840, Note_on_c, 1, 69, 88
2, 105840, Note_on_c, 1, 81, 88
2, 105996, Note_off_c, 1, 81, 0
2, 105996, Note_off_c, 1, 69, 0
2, 106320, Note_on_c, 1, 69, 90
2, 106320, Note_on_c, 1, 81, 90
2, 106476, Note_off_c, 1, 81, 0
2, 106476, Note_off_c, 1, 69, 0
2, 106800, Note_on_c, 1, 69, 92
2, 106800, Note_on_c, 1, 81, 92
2, 106956, Note_off_c, 1, 81, 0
2, 106956, Note_off_c, 1, 69, 0
2, 107280, Note_on_c, 1, 69, 94
2, 107280, Note_on_c, 1, 81, 94
2, 107436, Note_off_c, 1, 81, 0
2, 107436, Note_off_c, 1, 69, 0
2, 107760, Note_on_c, 1, 69, 96
2, 107760, Note_on_c, 1, 81, 96
2, 107916, Note_off_c, 1, 81, 0
2, 107916, Note_off_c, 1, 69, 0
2, 108240, Note_on_c, 1, 69, 93
2, 108240, Note_on_c, 1, 81, 93
2, 108396, Note_off_c, 1, 81, 0
2, 108396, Note_off_c, 1, 69, 0
2, 108720, Note_on_c, 1, 69, 91
2, 108720, Note_on_c, 1, 81, 91
2, 108876, Note_off_c, 1, 81, 0
2, 108876, Note_off_c, 1, 69, 0
2, 109200, Note_on_c, 1, 69, 88
2, 109200, Note_on_c, 1, 81, 88
2, 109356, Note_off_c, 1, 81, 0
2, 109356, Note_off_c, 1, 69, 0
2, 109440, Note_on_c, 1, 62, 56
2, 109560, Note_on_c, 1, 74, 56
2, 109680, Note_off_c, 1, 74, 0
2, 109680, Note_off_c, 1, 62, 0
2, 109680, Note_on_c, 1, 65, 56
2, 109800, Note_on_c, 1, 77, 57
2, 109920, Note_off_c, 1, 77, 0
2, 109920, Note_off_c, 1, 65, 0
2, 109920, Note_on_c, 1, 69, 57
2, 110040, Note_on_c, 1, 81, 57
2, 110160, Note_off_c, 1, 81, 0
2, 110160, Note_off_c, 1, 69, 0
2, 110160, Note_on_c, 1, 74, 58
2, 110280, Note_on_c, 1, 86, 58
2, 110400, Note_off_c, 1, 86, 0
2, 110400, Note_off_c, 1, 74, 0
2, 110400, Note_on_c, 1, 76, 58
2, 110520, Note_on_c, 1, 88, 59
2, 110640, Note_off_c, 1, 88, 0
2, 110640, Note_off_c, 1, 76, 0
2, 110640, Note_on_c, 1, 69, 59
2, 110760, Note_on_c, 1, 81, 59
2, 110880, Note_off_c, 1, 81, 0
2, 110880, Note_off_c, 1, 69, 0
2, 110880, Note_on_c, 1, 73, 60
2, 111000, Note_on_c, 1, 85, 60
2, 111120, Note_off_c, 1, 85, 0
2, 111120, Note_off_c, 1, 73, 0
2, 111120, Note_on_c, 1, 69, 60
2, 111240, Note_on_c, 1, 81, 61
2, 111360, Note_off_c, 1, 81, 0
2, 111360, Note_off_c, 1, 69, 0
2, 111360, Note_on_c, 1, 74, 61
2, 111480, Note_on_c, 1, 86, 61
2, 111600, Note_off_c, 1, 86, 0
2, 111600, Note_off_c, 1, 74, 0
2, 111600, Note_on_c, 1, 69, 60
2, 111720, Note_on_c, 1, 81, 60
2, 111840, Note_off_c, 1, 81, 0
2, 111840, Note_off_c, 1, 69, 0
2, 111840, Note_on_c, 1, 77, 59
2, 111960, Note_on_c, 1, 89, 59
2, 112080, Note_off_c, 1, 89, 0
2, 112080, Note_off_c, 1, 77, 0
2, 112080, Note_on_c, 1, 69, 58
2, 112200, Note_on_c, 1, 81, 58
2, 112320, Note_off_c, 1, 81, 0
2, 112320, Note_off_c, 1, 69, 0
2, 112320, Note_on_c, 1, 76, 57
2, 112440, Note_on_c, 1, 88, 57
2, 112560, Note_off_c, 1, 88, 0
2, 112560, Note_off_c, 1, 76, 0
2, 112560, Note_on_c, 1, 69, 56
2, 112680, Note_on_c, 1, 81, 56
2, 112800, Note_off_c, 1, 81, 0
2, 112800, Note_off_c, 1, 69, 0
2, 112800, Note_on_c, 1, 73, 55
2, 112920, Note_on_c, 1, 85, 55
2, 113040, Note_off_c, 1, 85, 0
2, 113040, Note_off_c, 1, 73, 0
2, 113040, Note_on_c, 1, 69, 54
2, 113160, Note_on_c, 1, 81, 54
2, 113280, Note_off_c, 1, 81, 0
2, 113280, Note_off_c, 1, 69, 0
2, 113280, Note_on_c, 1, 74, 80
2, 113280, Note_on_c, 1, 86, 80
2, 113436, Note_off_c, 1, 86, 0
2, 113436, Note_off_c, 1, 74, 0
2, 113520, Note_on_c, 1, 69, 81
2, 113520, Note_on_c, 1, 81, 81
2, 113676, Note_off_c, 1, 81, 0
2, 113676, Note_off_c, 1, 69, 0
2, 114000, Note_on_c, 1, 69, 83
2, 114000, Note_on_c, 1, 81, 83
2, 114156, Note_off_c, 1, 81, 0
2, 114156, Note_off_c, 1, 69, 0
2, 114480, Note_on_c, 1, 69, 85
2, 114480, Note_on_c, 1, 81, 85
2, 114636, Note_off_c, 1, 81, 0
2, 114636, Note_off_c, 1, 69, 0
2, 114960, Note_on_c, 1, 69, 87
2, 114960, Note_on_c, 1, 81, 87
2, 115116, Note_off_c, 1, 81, 0
2, 115116, Note_off_c, 1, 69, 0
2, 115200, Note_on_c, 1, 62, 57
2, 115320, Note_on_c, 1, 74, 57
2, 115440, Note_off_c, 1, 74, 0
2, 115440, Note_off_c, 1, 62, 0
2, 115440, Note_on_c, 1, 65, 57
2, 115560, Note_on_c, 1, 77, 56
2, 115680, Note_off_c, 1, 77, 0
2, 115680, Note_off_c, 1, 65, 0
2, 115680, Note_on_c, 1, 69, 56
2, 115800, Note_on_c, 1, 81, 55
2, 115920, Note_off_c, 1, 81, 0
2, 115920, Note_off_c, 1, 69, 0
2, 115920, Note_on_c, 1, 74, 55
2, 116040, Note_on_c, 1, 86, 55
2, 116160, Note_off_c, 1, 86, 0
2, 116160, Note_off_c, 1, 74, 0
2, 116160, Note_on_c, 1, 76, 54
2, 116280, Note_on_c, 1, 88, 54
2, 116400, Note_off_c, 1, 88, 0
2, 116400, Note_off_c, 1, 76, 0
2, 116400, Note_on_c, 1, 69, 54
2, 116520, Note_on_c, 1, 81, 53
2, 116640, Note_off_c, 1, 81, 0
2, 116640, Note_off_c, 1, 69, 0
2, 116640, Note_on_c, 1, 73, 53
2, 116760, Note_on_c, 1, 85, 52
2, 116880, Note_off_c, 1, 85, 0
2, 116880, Note_off_c, 1, 73, 0
2, 116880, Note_on_c, 1, 69, 52
2, 117000, Note_on_c, 1, 81, 52
2, 117120, Note_off_c, 1, 81, 0
2, 117120, Note_off_c, 1, 69, 0
2, 117120, Note_on_c, 1, 74, 72
2, 117120, Note_on_c, 1, 86, 72
2, 117276, Note_off_c, 1, 86, 0
2, 117276, Note_off_c, 1, 74, 0
2, 117360, Note_on_c, 1, 69, 73
2, 117360, Note_on_c, 1, 81, 73
2, 117516, Note_off_c, 1, 81, 0
2, 117516, Note_off_c, 1, 69, 0
2, 117840, Note_on_c, 1, 69, 75
2, 117840, Note_on_c, 1, 81, 75
2, 117996, Note_off_c, 1, 81, 0
2, 117996, Note_off_c, 1, 69, 0
2, 118320, Note_on_c, 1, 69, 78
2, 118320, Note_on_c, 1, 81, 78
2, 118476, Note_off_c, 1, 81, 0
2, 118476, Note_off_c, 1, 69, 0
2, 118800, Note_on_c, 1, 76, 80
2, 118800, Note_on_c, 1, 85, 80
2, 118956, Note_off_c, 1, 85, 0
2, 118956, Note_off_c, 1, 76, 0
2, 119280, Note_on_c, 1, 76, 80
2, 119280, Note_on_c, 1, 85, 80
2, 119436, Note_off_c, 1, 85, 0
2, 119436, Note_off_c, 1, 76, 0
2, 119760, Note_on_c, 1, 76, 76
2, 119760, Note_on_c, 1, 88, 76
2, 119916, Note_off_c, 1, 88, 0
2, 119916, Note_off_c, 1, 76, 0
2, 120240, Note_on_c, 1, 76, 72
2, 120240, Note_on_c, 1, 88, 72
2, 120396, Note_off_c, 1, 88, 0
2, 120396, Note_off_c, 1, 76, 0
2, 120720, Note_on_c, 1, 81, 66
2, 120720, Note_on_c, 1, 91, 66
2, 120876, Note_off_c, 1, 91, 0
2, 120876, Note_off_c, 1, 81, 0
2, 120960, Note_on_c, 1, 64, 76
2, 120960, Note_on_c, 1, 76, 76
2, 121920, Control_c, 1, 64, 127
2, 121920, Note_off_c, 1, 76, 0
2, 121920, Note_off_c, 1, 64, 0
2, 122280, Note_on_c, 1, 75, 43
2, 123720, Control_c, 1, 64, 0
2, 123720, Note_off_c, 1, 75, 0
2, 123840, Note_on_c, 1, 63, 40
2, 123996, Note_off_c, 1, 63, 0
2, 124080, Note_on_c, 1, 63, 41
2, 124236, Note_off_c, 1, 63, 0
2, 124320, Note_on_c, 1, 63, 41
2, 124476, Note_off_c, 1, 63, 0
2, 124560, Note_on_c, 1, 63, 47
2, 124716, Note_off_c, 1, 63, 0
2, 124800, Note_on_c, 1, 63, 42
2, 124956, Note_off_c, 1, 63, 0
2, 125040, Note_on_c, 1, 63, 43
2, 125196, Note_off_c, 1, 63, 0
2, 125280, Note_on_c, 1, 63, 44
2, 125436, Note_off_c, 1, 63, 0
2, 125520, Note_on_c, 1, 63, 49
2, 125676, Note_off_c, 1, 63, 0
2, 125760, Note_on_c, 1, 63, 45
2, 125916, Note_off_c, 1, 63, 0
2, 126000, Note_on_c, 1, 63, 45
2, 126156, Note_off_c, 1, 63, 0
2, 126240, Note_on_c, 1, 63, 46
2, 126396, Note_off_c, 1, 63, 0
2, 126480, Note_on_c, 1, 63, 51
2, 126636, Note_off_c, 1, 63, 0
2, 126720, Note_on_c, 1, 63, 45
2, 126876, Note_off_c, 1, 63, 0
2, 126960, Note_on_c, 1, 63, 43
2, 127116, Note_off_c, 1, 63, 0
2, 127200, Note_on_c, 1, 63, 40
2, 127356, Note_off_c, 1, 63, 0
2, 127440, Note_on_c, 1, 63, 37
2, 127596, Note_off_c, 1, 63, 0
2, 127680, Note_on_c, 1, 63, 32
2, 129120, Note_off_c, 1, 63, 0
2, 129600, Note_on_c, 1, 87, 36
2, 129660, Note_off_c, 1, 87, 0
2, 129660, Note_on_c, 1, 85, 36
2, 129720, Note_off_c, 1, 85, 0
2, 129720, Note_on_c, 1, 84, 35
2, 129780, Note_off_c, 1, 84, 0
2, 129780, Note_on_c, 1, 82, 35
2, 129840, Note_off_c, 1, 82, 0
2, 129840, Note_on_c, 1, 81, 35
2, 129900, Note_off_c, 1, 81, 0
2, 129900, Note_on_c, 1, 78, 34
2, 129960, Note_off_c, 1, 78, 0
2, 129960, Note_on_c, 1, 77, 34
2, 130020, Note_off_c, 1, 77, 0
2, 130020, Note_on_c, 1, 75, 34
2, 130080, Note_off_c, 1, 75, 0
2, 130080, Note_on_c, 1, 73, 33
2, 130140, Note_off_c, 1, 73, 0
2, 130140, Note_on_c, 1, 72, 33
2, 130200, Note_off_c, 1, 72, 0
2, 130200, Note_on_c, 1, 70, 33
2, 130260, Note_off_c, 1, 70, 0
2, 130260, Note_on_c, 1, 69, 32
2, 130620, Note_off_c, 1, 69, 0
2, 131520, Note_on_c, 1, 65, 28
2, 131676, Note_off_c, 1, 65, 0
2, 131760, Note_on_c, 1, 65, 29
2, 131916, Note_off_c, 1, 65, 0
2, 132000, Note_on_c, 1, 65, 29
2, 132156, Note_off_c, 1, 65, 0
2, 132240, Note_on_c, 1, 65, 35
2, 132396, Note_off_c, 1, 65, 0
2, 132480, Note_on_c, 1, 65, 31
2, 132636, Note_off_c, 1, 65, 0
2, 132720, Note_on_c, 1, 65, 31
2, 132876, Note_off_c, 1, 65, 0
2, 132960, Note_on_c, 1, 65, 32
2, 133116, Note_off_c, 1, 65, 0
2, 133200, Note_on_c, 1, 65, 38
2, 133356, Note_off_c, 1, 65, 0
2, 133440, Note_on_c, 1, 65, 33
2, 133596, Note_off_c, 1, 65, 0
2, 133680, Note_on_c, 1, 65, 34
2, 133836, Note_off_c, 1, 65, 0
2, 133920, Note_on_c, 1, 65, 34
2, 134076, Note_off_c, 1, 65, 0
2, 134160, Note_on_c, 1, 65, 40
2, 134316, Note_off_c, 1, 65, 0
2, 134400, Note_on_c, 1, 65, 35
2, 134556, Note_off_c, 1, 65, 0
2, 134640, Note_on_c, 1, 65, 33
2, 134796, Note_off_c, 1, 65, 0
2, 134880, Note_on_c, 1, 65, 31
2, 135036, Note_off_c, 1, 65, 0
2, 135120, Note_on_c, 1, 65, 29
2, 135276, Note_off_c, 1, 65, 0
2, 135360, Note_on_c, 1, 66, 32
2, 135516, Note_off_c, 1, 66, 0
2, 135600, Note_on_c, 1, 66, 28
2, 135756, Note_off_c, 1, 66, 0
2, 135840, Note_on_c, 1, 66, 25
2, 136080, Note_off_c, 1, 66, 0
2, 136080, Note_on_c, 1, 67, 26
2, 136236, Note_off_c, 1, 67, 0
2, 136320, Note_on_c, 1, 67, 21
2, 137040, Control_c, 1, 64, 127
2, 137040, Note_off_c, 1, 67, 0
2, 137040, Note_on_c, 1, 88, 102
2, 137280, Note_off_c, 1, 88, 0
2, 137280, Note_on_c, 1, 91, 107
2, 137520, Note_off_c, 1, 91, 0
2, 137520, Note_on_c, 1, 88, 106
2, 137760, Note_off_c, 1, 88, 0
2, 137760, Note_on_c, 1, 85, 105
2, 138000, Note_off_c, 1, 85, 0
2, 138000, Note_on_c, 1, 88, 103
2, 138240, Note_off_c, 1, 88, 0
2, 138240, Note_on_c, 1, 79, 102
2, 138480, Note_off_c, 1, 79, 0
2, 138480, Note_on_c, 1, 85, 101
2, 138720, Note_off_c, 1, 85, 0
2, 138720, Note_on_c, 1, 76, 100
2, 138960, Note_off_c, 1, 76, 0
2, 138960, Note_on_c, 1, 79, 98
2, 139200, Note_off_c, 1, 79, 0
2, 139200, Note_on_c, 1, 73, 97
2, 139440, Note_off_c, 1, 73, 0
2, 139440, Note_on_c, 1, 76, 96
2, 139680, Note_off_c, 1, 76, 0
2, 139680, Note_on_c, 1, 67, 95
2, 139836, Note_off_c, 1, 67, 0
2, 139920, Control_c, 1, 64, 0
2, 139920, Note_on_c, 1, 67, 107
2, 140076, Note_off_c, 1, 67, 0
2, 140160, Note_on_c, 1, 66, 95
2, 141600, Note_off_c, 1, 66, 0
2, 141840, Control_c, 1, 64, 127
2, 141840, Note_on_c, 1, 88, 95
2, 142080, Note_off_c, 1, 88, 0
2, 142080, Note_on_c, 1, 91, 103
2, 142320, Note_off_c, 1, 91, 0
2, 142320, Note_on_c, 1, 88, 102
2, 142560, Note_off_c, 1, 88, 0
2, 142560, Note_on_c, 1, 85, 102
2, 142800, Note_off_c, 1, 85, 0
2, 142800, Note_on_c, 1, 88, 101
2, 143040, Note_off_c, 1, 88, 0
2, 143040, Note_on_c, 1, 79, 100
2, 143280, Note_off_c, 1, 79, 0
2, 143280, Note_on_c, 1, 85, 99
2, 143520, Note_off_c, 1, 85, 0
2, 143520, Note_on_c, 1, 76, 99
2, 143760, Note_off_c, 1, 76, 0
2, 143760, Note_on_c, 1, 79, 98
2, 144000, Note_off_c, 1, 79, 0
2, 144000, Note_on_c, 1, 73, 97
2, 144240, Note_off_c, 1, 73, 0
2, 144240, Note_on_c, 1, 76, 96
2, 144480, Note_off_c, 1, 76, 0
2, 144480, Note_on_c, 1, 67, 95
2, 144636, Note_off_c, 1, 67, 0
2, 144720, Control_c, 1, 64, 0
2, 144720, Note_on_c, 1, 73, 106
2, 144876, Note_off_c, 1, 73, 0
2, 144960, Note_on_c, 1, 74, 96
2, 146400, Note_off_c, 1, 74, 0
2, 146640, Control_c, 1, 64, 127
2, 146640, Note_on_c, 1, 64, 93
2, 146796, Note_off_c, 1, 64, 0
2, 146880, Note_on_c, 1, 67, 95
2, 147036, Note_off_c, 1, 67, 0
2, 147120, Note_on_c, 1, 73, 96
2, 147360, Note_off_c, 1, 73, 0
2, 147360, Note_on_c, 1, 76, 98
2, 147600, Note_off_c, 1, 76, 0
2, 147600, Note_on_c, 1, 73, 99
2, 147840, Note_off_c, 1, 73, 0
2, 147840, Note_on_c, 1, 79, 101
2, 148080, Note_off_c, 1, 79, 0
2, 148080, Note_on_c, 1, 76, 103
2, 148320, Note_off_c, 1, 76, 0
2, 148320, Note_on_c, 1, 85, 104
2, 148560, Note_off_c, 1, 85, 0
2, 148560, Note_on_c, 1, 79, 106
2, 148800, Note_off_c, 1, 79, 0
2, 148800, Note_on_c, 1, 88, 107
2, 148932, Note_off_c, 1, 88, 0
2, 149040, Note_on_c, 1, 85, 109
2, 149172, Note_off_c, 1, 85, 0
2, 149280, Note_on_c, 1, 91, 111
2, 149412, Note_off_c, 1, 91, 0
2, 149520, Control_c, 1, 64, 0
2, 149520, Note_on_c, 1, 73, 120
2, 149652, Note_off_c, 1, 73, 0
2, 149760, Note_on_c, 1, 74, 115
2, 152647, Note_off_c, 1, 74, 0
2, 152880, Note_on_c, 1, 62, 47
2, 153036, Note_off_c, 1, 62, 0
2, 153120, Note_on_c, 1, 61, 47
2, 153600, Note_off_c, 1, 61, 0
2, 153840, Note_on_c, 1, 64, 50
2, 154320, Note_off_c, 1, 64, 0
2, 154560, Note_on_c, 1, 62, 52
2, 155040, Note_off_c, 1, 62, 0
2, 155280, Note_on_c, 1, 62, 54
2, 155760, Note_off_c, 1, 62, 0
2, 156000, Note_on_c, 1, 70, 57
2, 156480, Note_off_c, 1, 70, 0
2, 156720, Note_on_c, 1, 73, 59
2, 157200, Note_off_c, 1, 73, 0
2, 157440, Note_on_c, 1, 71, 61
2, 157920, Note_off_c, 1, 71, 0
2, 158160, Note_on_c, 1, 74, 64
2, 158640, Note_off_c, 1, 74, 0
2, 158880, Note_on_c, 1, 73, 66
2, 159360, Note_off_c, 1, 73, 0
2, 159600, Note_on_c, 1, 76, 68
2, 160080, Note_off_c, 1, 76, 0
2, 160320, Note_on_c, 1, 74, 71
2, 160800, Note_off_c, 1, 74, 0
2, 161040, Note_on_c, 1, 83, 73
2, 161520, Note_off_c, 1, 83, 0
2, 161760, Note_on_c, 1, 82, 75
2, 162240, Note_off_c, 1, 82, 0
2, 162480, Note_on_c, 1, 85, 78
2, 162960, Note_off_c, 1, 85, 0
2, 163200, Note_on_c, 1, 83, 80
2, 163680, Note_off_c, 1, 83, 0
2, 163920, Note_on_c, 1, 86, 82
2, 164400, Note_off_c, 1, 86, 0
2, 164640, Note_on_c, 1, 85, 85
2, 165120, Note_off_c, 1, 85, 0
2, 165360, Note_on_c, 1, 88, 87
2, 165840, Note_off_c, 1, 88, 0
2, 166080, Note_on_c, 1, 86, 89
2, 166560, Note_off_c, 1, 86, 0
2, 166800, Note_on_c, 1, 83, 92
2, 167280, Note_off_c, 1, 83, 0
2, 167520, Note_on_c, 1, 82, 94
2, 168000, Note_off_c, 1, 82, 0
2, 168240, Note_on_c, 1, 79, 104
2, 168720, Note_off_c, 1, 79, 0
2, 168960, Note_on_c, 1, 78, 99
2, 169440, Note_off_c, 1, 78, 0
2, 169680, Note_on_c, 1, 79, 111
2, 170160, Note_off_c, 1, 79, 0
2, 170400, Note_on_c, 1, 78, 105
2, 170880, Note_off_c, 1, 78, 0
2, 171120, Note_on_c, 1, 79, 116
2, 171600, Note_off_c, 1, 79, 0
2, 171840, Note_on_c, 1, 78, 110
2, 172320, Note_off_c, 1, 78, 0
2, 172560, Note_on_c, 1, 79, 120
2, 173040, Note_off_c, 1, 79, 0
2, 173280, Note_on_c, 1, 78, 123
2, 173760, Note_off_c, 1, 78, 0
2, 178320, Note_on_c, 1, 72, 87
2, 178476, Note_off_c, 1, 72, 0
2, 178560, Note_on_c, 1, 71, 86
2, 178716, Note_off_c, 1, 71, 0
2, 178800, Note_on_c, 1, 69, 85
2, 178956, Note_off_c, 1, 69, 0
2, 179040, Note_on_c, 1, 67, 83
2, 179196, Note_off_c, 1, 67, 0
2, 179280, Note_on_c, 1, 66, 82
2, 179436, Note_off_c, 1, 66, 0
2, 179520, Note_on_c, 1, 64, 80
2, 179676, Note_off_c, 1, 64, 0
2, 179760, Note_on_c, 1, 63, 80
2, 179916, Note_off_c, 1, 63, 0
2, 180000, Note_on_c, 1, 69, 81
2, 180156, Note_off_c, 1, 69, 0
2, 180240, Note_on_c, 1, 66, 82
2, 180396, Note_off_c, 1, 66, 0
2, 180480, Note_on_c, 1, 72, 83
2, 180636, Note_off_c, 1, 72, 0
2, 180720, Note_on_c, 1, 69, 84
2, 180876, Note_off_c, 1, 69, 0
2, 180960, Note_on_c, 1, 75, 85
2, 181116, Note_off_c, 1, 75, 0
2, 181200, Note_on_c, 1, 72, 86
2, 181356, Note_off_c, 1, 72, 0
2, 181440, Note_on_c, 1, 78, 87
2, 181596, Note_off_c, 1, 78, 0
2, 181680, Note_on_c, 1, 75, 88
2, 181836, Note_off_c, 1, 75, 0
2, 181920, Note_on_c, 1, 81, 86
2, 182076, Note_off_c, 1, 81, 0
2, 182160, Note_on_c, 1, 79, 79
2, 182316, Note_off_c, 1, 79, 0
2, 182400, Note_on_c, 1, 78, 72
2, 182556, Note_off_c, 1, 78, 0
2, 182640, Control_c, 1, 64, 0
2, 182640, Note_on_c, 1, 79, 65
2, 182680, Control_c, 1, 64, 127
2, 182880, Note_off_c, 1, 79, 0
2, 183360, Control_c, 1, 64, 0
2, 183360, Note_on_c, 1, 76, 53
2, 183400, Control_c, 1, 64, 127
2, 183600, Note_off_c, 1, 76, 0
2, 184080, Control_c, 1, 64, 0
2, 184080, Note_on_c, 1, 75, 55
2, 184120, Control_c, 1, 64, 127
2, 184320, Note_off_c, 1, 75, 0
2, 184800, Control_c, 1, 64, 0
2, 184800, Note_on_c, 1, 78, 57
2, 184840, Control_c, 1, 64, 127
2, 185040, Note_off_c, 1, 78, 0
2, 185520, Control_c, 1, 64, 0
2, 185520, Note_on_c, 1, 76, 61
2, 185560, Control_c, 1, 64, 127
2, 185760, Note_off_c, 1, 76, 0
2, 186240, Control_c, 1, 64, 0
2, 186240, Note_on_c, 1, 79, 67
2, 186280, Control_c, 1, 64, 127
2, 186480, Note_off_c, 1, 79, 0
2, 186960, Control_c, 1, 64, 0
2, 186960, Note_on_c, 1, 78, 73
2, 187000, Control_c, 1, 64, 127
2, 187200, Note_off_c, 1, 78, 0
2, 187680, Control_c, 1, 64, 0
2, 187680, Note_on_c, 1, 81, 79
2, 187720, Control_c, 1, 64, 127
2, 187920, Note_off_c, 1, 81, 0
2, 188400, Control_c, 1, 64, 0
2, 188400, Note_on_c, 1, 80, 85
2, 188440, Control_c, 1, 64, 127
2, 188640, Note_off_c, 1, 80, 0
2, 189120, Control_c, 1, 64, 0
2, 189120, Note_on_c, 1, 83, 93
2, 189160, Control_c, 1, 64, 127
2, 189360, Note_off_c, 1, 83, 0
2, 189840, Control_c, 1, 64, 0
2, 189840, Note_on_c, 1, 83, 86
2, 189996, Note_off_c, 1, 83, 0
2, 190320, Note_on_c, 1, 74, 81
2, 190476, Note_off_c, 1, 74, 0
2, 190560, Note_on_c, 1, 73, 79
2, 190716, Note_off_c, 1, 73, 0
2, 190800, Note_on_c, 1, 71, 77
2, 190956, Note_off_c, 1, 71, 0
2, 191040, Note_on_c, 1, 69, 74
2, 191196, Note_off_c, 1, 69, 0
2, 191280, Note_on_c, 1, 68, 76
2, 191436, Note_off_c, 1, 68, 0
2, 191520, Note_on_c, 1, 74, 77
2, 191676, Note_off_c, 1, 74, 0
2, 191760, Note_on_c, 1, 71, 79
2, 191916, Note_off_c, 1, 71, 0
2, 192000, Note_on_c, 1, 77, 81
2, 192156, Note_off_c, 1, 77, 0
2, 192240, Note_on_c, 1, 74, 82
2, 192396, Note_off_c, 1, 74, 0
2, 192480, Note_on_c, 1, 80, 84
2, 192636, Note_off_c, 1, 80, 0
2, 192720, Note_on_c, 1, 77, 86
2, 192876, Note_off_c, 1, 77, 0
2, 192960, Note_on_c, 1, 83, 88
2, 193116, Note_off_c, 1, 83, 0
2, 193200, Note_on_c, 1, 80, 89
2, 193356, Note_off_c, 1, 80, 0
2, 193440, Note_on_c, 1, 83, 93
2, 193596, Note_off_c, 1, 83, 0
2, 193680, Note_on_c, 1, 81, 86
2, 193836, Note_off_c, 1, 81, 0
2, 193920, Note_on_c, 1, 80, 79
2, 194076, Note_off_c, 1, 80, 0
2, 194160, Control_c, 1, 64, 0
2, 194160, Note_on_c, 1, 81, 72
2, 194200, Control_c, 1, 64, 127
2, 194400, Note_off_c, 1, 81, 0
2, 194880, Control_c, 1, 64, 0
2, 194880, Note_on_c, 1, 78, 69
2, 194920, Control_c, 1, 64, 127
2, 195120, Note_off_c, 1, 78, 0
2, 195600, Control_c, 1, 64, 0
2, 195600, Note_on_c, 1, 77, 69
2, 195640, Control_c, 1, 64, 127
2, 195840, Note_off_c, 1, 77, 0
2, 196320, Control_c, 1, 64, 0
2, 196320, Note_on_c, 1, 80, 70
2, 196360, Control_c, 1, 64, 127
2, 196560, Note_off_c, 1, 80, 0
2, 197040, Control_c, 1, 64, 0
2, 197040, Note_on_c, 1, 78, 73
2, 197080, Control_c, 1, 64, 127
2, 197280, Note_off_c, 1, 78, 0
2, 197760, Control_c, 1, 64, 0
2, 197760, Note_on_c, 1, 81, 78
2, 197800, Control_c, 1, 64, 127
2, 198000, Note_off_c, 1, 81, 0
2, 198480, Control_c, 1, 64, 0
2, 198480, Note_on_c, 1, 80, 82
2, 198520, Control_c, 1, 64, 127
2, 198720, Note_off_c, 1, 80, 0
2, 199200, Control_c, 1, 64, 0
2, 199200, Note_on_c, 1, 83, 87
2, 199240, Control_c, 1, 64, 127
2, 199440, Note_off_c, 1, 83, 0
2, 199920, Control_c, 1, 64, 0
2, 199920, Note_on_c, 1, 82, 92
2, 199960, Control_c, 1, 64, 127
2, 200160, Note_off_c, 1, 82, 0
2, 200640, Control_c, 1, 64, 0
2, 200640, Note_on_c, 1, 85, 101
2, 200680, Control_c, 1, 64, 127
2, 200796, Note_off_c, 1, 85, 0
2, 201360, Control_c, 1, 64, 0
2, 201360, Note_on_c, 1, 79, 95
2, 201516, Note_off_c, 1, 79, 0
2, 201600, Note_on_c, 1, 78, 93
2, 201756, Note_off_c, 1, 78, 0
2, 201840, Note_on_c, 1, 76, 91
2, 201996, Note_off_c, 1, 76, 0
2, 202080, Note_on_c, 1, 74, 88
2, 202236, Note_off_c, 1, 74, 0
2, 202320, Note_on_c, 1, 73, 86
2, 202476, Note_off_c, 1, 73, 0
2, 202560, Note_on_c, 1, 71, 86
2, 202716, Note_off_c, 1, 71, 0
2, 202800, Note_on_c, 1, 70, 87
2, 202956, Note_off_c, 1, 70, 0
2, 203040, Note_on_c, 1, 76, 89
2, 203196, Note_off_c, 1, 76, 0
2, 203280, Note_on_c, 1, 73, 90
2, 203436, Note_off_c, 1, 73, 0
2, 203520, Note_on_c, 1, 79, 92
2, 203676, Note_off_c, 1, 79, 0
2, 203760, Note_on_c, 1, 76, 93
2, 203916, Note_off_c, 1, 76, 0
2, 204000, Note_on_c, 1, 82, 95
2, 204156, Note_off_c, 1, 82, 0
2, 204240, Note_on_c, 1, 76, 96
2, 204396, Note_off_c, 1, 76, 0
2, 204480, Note_on_c, 1, 85, 98
2, 204636, Note_off_c, 1, 85, 0
2, 204720, Note_on_c, 1, 82, 99
2, 204876, Note_off_c, 1, 82, 0
2, 204960, Note_on_c, 1, 88, 101
2, 205116, Note_off_c, 1, 88, 0
2, 205200, Note_on_c, 1, 86, 93
2, 205356, Note_off_c, 1, 86, 0
2, 205440, Note_on_c, 1, 85, 86
2, 205596, Note_off_c, 1, 85, 0
2, 205680, Control_c, 1, 64, 0
2, 205680, Note_on_c, 1, 86, 76
2, 205720, Control_c, 1, 64, 127
2, 205920, Note_off_c, 1, 86, 0
2, 206400, Control_c, 1, 64, 0
2, 206400, Note_on_c, 1, 83, 76
2, 206440, Control_c, 1, 64, 127
2, 206640, Note_off_c, 1, 83, 0
2, 207120, Control_c, 1, 64, 0
2, 207120, Note_on_c, 1, 82, 77
2, 207160, Control_c, 1, 64, 127
2, 207360, Note_off_c, 1, 82, 0
2, 207840, Control_c, 1, 64, 0
2, 207840, Note_on_c, 1, 85, 78
2, 207880, Control_c, 1, 64, 127
2, 208080, Note_off_c, 1, 85, 0
2, 208560, Control_c, 1, 64, 0
2, 208560, Note_on_c, 1, 83, 79
2, 208600, Control_c, 1, 64, 127
2, 208800, Note_off_c, 1, 83, 0
2, 209280, Control_c, 1, 64, 0
2, 209280, Note_on_c, 1, 86, 85
2, 209320, Control_c, 1, 64, 127
2, 209520, Note_off_c, 1, 86, 0
2, 210000, Control_c, 1, 64, 0
2, 210000, Note_on_c, 1, 85, 90
2, 210040, Control_c, 1, 64, 127
2, 210240, Note_off_c, 1, 85, 0
2, 210720, Control_c, 1, 64, 0
2, 210720, Note_on_c, 1, 88, 96
2, 210760, Control_c, 1, 64, 127
2, 210960, Note_off_c, 1, 88, 0
2, 211440, Control_c, 1, 64, 0
2, 211440, Note_on_c, 1, 88, 101
2, 211480, Control_c, 1, 64, 127
2, 211680, Note_off_c, 1, 88, 0
2, 212160, Control_c, 1, 64, 0
2, 212160, Note_on_c, 1, 88, 107
2, 212220, Control_c, 1, 64, 127
2, 212316, Note_off_c, 1, 88, 0
2, 212400, Note_on_c, 1, 82, 106
2, 212556, Note_off_c, 1, 82, 0
2, 212640, Note_on_c, 1, 85, 105
2, 212796, Note_off_c, 1, 85, 0
2, 212880, Note_on_c, 1, 79, 104
2, 213036, Note_off_c, 1, 79, 0
2, 213120, Note_on_c, 1, 82, 103
2, 213276, Note_off_c, 1, 82, 0
2, 213360, Note_on_c, 1, 76, 102
2, 213516, Note_off_c, 1, 76, 0
2, 213600, Note_on_c, 1, 79, 101
2, 213756, Note_off_c, 1, 79, 0
2, 213840, Note_on_c, 1, 73, 100
2, 213996, Note_off_c, 1, 73, 0
2, 214080, Note_on_c, 1, 76, 98
2, 214236, Note_off_c, 1, 76, 0
2, 214320, Note_on_c, 1, 70, 99
2, 214476, Note_off_c, 1, 70, 0
2, 214560, Note_on_c, 1, 76, 100
2, 214716, Note_off_c, 1, 76, 0
2, 214800, Note_on_c, 1, 73, 101
2, 214956, Note_off_c, 1, 73, 0
2, 215040, Note_on_c, 1, 79, 102
2, 215196, Note_off_c, 1, 79, 0
2, 215280, Note_on_c, 1, 76, 103
2, 215436, Note_off_c, 1, 76, 0
2, 215520, Note_on_c, 1, 82, 104
2, 215676, Note_off_c, 1, 82, 0
2, 215760, Note_on_c, 1, 79, 105
2, 215916, Note_off_c, 1, 79, 0
2, 216000, Note_on_c, 1, 85, 106
2, 216156, Note_off_c, 1, 85, 0
2, 216240, Note_on_c, 1, 82, 106
2, 216396, Note_off_c, 1, 82, 0
2, 216480, Note_on_c, 1, 88, 107
2, 216636, Note_off_c, 1, 88, 0
2, 216720, Note_on_c, 1, 82, 108
2, 216876, Note_off_c, 1, 82, 0
2, 216960, Note_on_c, 1, 85, 109
2, 217116, Note_off_c, 1, 85, 0
2, 217200, Note_on_c, 1, 79, 110
2, 217356, Note_off_c, 1, 79, 0
2, 217440, Note_on_c, 1, 85, 111
2, 217596, Note_off_c, 1, 85, 0
2, 217680, Note_on_c, 1, 82, 112
2, 217836, Note_off_c, 1, 82, 0
2, 217920, Control_c, 1, 64, 0
2, 217920, Note_on_c, 1, 88, 113
2, 217960, Control_c, 1, 64, 127
2, 218076, Note_off_c, 1, 88, 0
2, 218160, Note_on_c, 1, 82, 112
2, 218316, Note_off_c, 1, 82, 0
2, 218400, Note_on_c, 1, 85, 111
2, 218556, Note_off_c, 1, 85, 0
2, 218640, Note_on_c, 1, 78, 110
2, 218796, Note_off_c, 1, 78, 0
2, 218880, Note_on_c, 1, 82, 109
2, 219036, Note_off_c, 1, 82, 0
2, 219120, Note_on_c, 1, 76, 108
2, 219276, Note_off_c, 1, 76, 0
2, 219360, Note_on_c, 1, 78, 107
2, 219516, Note_off_c, 1, 78, 0
2, 219600, Note_on_c, 1, 73, 106
2, 219756, Note_off_c, 1, 73, 0
2, 219840, Note_on_c, 1, 76, 105
2, 219996, Note_off_c, 1, 76, 0
2, 220080, Note_on_c, 1, 70, 104
2, 220236, Note_off_c, 1, 70, 0
2, 220320, Note_on_c, 1, 76, 105
2, 220476, Note_off_c, 1, 76, 0
2, 220560, Note_on_c, 1, 73, 106
2, 220716, Note_off_c, 1, 73, 0
2, 220800, Note_on_c, 1, 78, 108
2, 220956, Note_off_c, 1, 78, 0
2, 221040, Note_on_c, 1, 76, 109
2, 221196, Note_off_c, 1, 76, 0
2, 221280, Note_on_c, 1, 82, 110
2, 221436, Note_off_c, 1, 82, 0
2, 221520, Note_on_c, 1, 78, 111
2, 221676, Note_off_c, 1, 78, 0
2, 221760, Note_on_c, 1, 85, 113
2, 221916, Note_off_c, 1, 85, 0
2, 222000, Note_on_c, 1, 82, 114
2, 222156, Note_off_c, 1, 82, 0
2, 222240, Note_on_c, 1, 88, 115
2, 222396, Note_off_c, 1, 88, 0
2, 222480, Note_on_c, 1, 82, 116
2, 222636, Note_off_c, 1, 82, 0
2, 222720, Note_on_c, 1, 85, 118
2, 222876, Note_off_c, 1, 85, 0
2, 222960, Note_on_c, 1, 78, 119
2, 223116, Note_off_c, 1, 78, 0
2, 223200, Note_on_c, 1, 85, 120
2, 223356, Note_off_c, 1, 85, 0
2, 223440, Note_on_c, 1, 82, 121
2, 223596, Note_off_c, 1, 82, 0
2, 223680, Control_c, 1, 64, 127
2, 223680, Control_c, 1, 64, 127
2, 223680, Control_c, 1, 64, 127
2, 223680, Note_on_c, 1, 88, 123
2, 223836, Note_off_c, 1, 88, 0
2, 224160, Control_c, 1, 64, 0
2, 224640, Control_c, 1, 64, 0
2, 225840, Note_on_c, 1, 66, 38
2, 225996, Note_off_c, 1, 66, 0
2, 226080, Note_on_c, 1, 66, 39
2, 226236, Note_off_c, 1, 66, 0
2, 226320, Note_on_c, 1, 66, 46
2, 226476, Note_off_c, 1, 66, 0
2, 226560, Control_c, 1, 64, 0
2, 226560, Control_c, 1, 64, 0
2, 226560, Note_on_c, 1, 66, 41
2, 226716, Note_off_c, 1, 66, 0
2, 226800, Note_on_c, 1, 66, 42
2, 226956, Note_off_c, 1, 66, 0
2, 227040, Note_on_c, 1, 66, 43
2, 227196, Note_off_c, 1, 66, 0
2, 227280, Note_on_c, 1, 66, 50
2, 227436, Note_off_c, 1, 66, 0
2, 227520, Note_on_c, 1, 67, 45
2, 227676, Note_off_c, 1, 67, 0
2, 227760, Note_on_c, 1, 67, 46
2, 227916, Note_off_c, 1, 67, 0
2, 228000, Note_on_c, 1, 67, 47
2, 228156, Note_off_c, 1, 67, 0
2, 228240, Note_on_c, 1, 67, 54
2, 228396, Note_off_c, 1, 67, 0
2, 228480, Note_on_c, 1, 70, 49
2, 228636, Note_off_c, 1, 70, 0
2, 228720, Note_on_c, 1, 70, 50
2, 228876, Note_off_c, 1, 70, 0
2, 228960, Note_on_c, 1, 70, 51
2, 229116, Note_off_c, 1, 70, 0
2, 229200, Note_on_c, 1, 70, 58
2, 229356, Note_off_c, 1, 70, 0
2, 229440, Note_on_c, 1, 73, 53
2, 229596, Note_off_c, 1, 73, 0
2, 229680, Note_on_c, 1, 73, 55
2, 229836, Note_off_c, 1, 73, 0
2, 229920, Note_on_c, 1, 73, 56
2, 230076, Note_off_c, 1, 73, 0
2, 230160, Note_on_c, 1, 73, 61
2, 230316, Note_off_c, 1, 73, 0
2, 230400, Note_on_c, 1, 76, 67
2, 231112, Note_off_c, 1, 76, 0
2, 231120, Note_on_c, 1, 75, 56
2, 231198, Note_off_c, 1, 75, 0
2, 231240, Note_on_c, 1, 73, 49
2, 231318, Note_off_c, 1, 73, 0
2, 231360, Note_on_c, 1, 71, 44
2, 231552, Note_off_c, 1, 71, 0
2, 231600, Note_on_c, 1, 71, 45
2, 231792, Note_off_c, 1, 71, 0
2, 231840, Note_on_c, 1, 71, 45
2, 232032, Note_off_c, 1, 71, 0
2, 232080, Note_on_c, 1, 70, 46
2, 232260, Note_off_c, 1, 70, 0
2, 232260, Note_on_c, 1, 71, 47
2, 232320, Note_off_c, 1, 71, 0
2, 232320, Note_on_c, 1, 73, 47
2, 232512, Note_off_c, 1, 73, 0
2, 232560, Note_on_c, 1, 73, 48
2, 232752, Note_off_c, 1, 73, 0
2, 232800, Note_on_c, 1, 73, 49
2, 233040, Note_off_c, 1, 73, 0
2, 233040, Note_on_c, 1, 75, 49
2, 233232, Note_off_c, 1, 75, 0
2, 233280, Note_on_c, 1, 75, 50
2, 233520, Note_off_c, 1, 75, 0
2, 233520, Note_on_c, 1, 71, 51
2, 233712, Note_off_c, 1, 71, 0
2, 233760, Note_on_c, 1, 71, 52
2, 234000, Note_off_c, 1, 71, 0
2, 234000, Note_on_c, 1, 76, 53
2, 234192, Note_off_c, 1, 76, 0
2, 234240, Note_on_c, 1, 76, 55
2, 234480, Note_off_c, 1, 76, 0
2, 234480, Note_on_c, 1, 73, 52
2, 234672, Note_off_c, 1, 73, 0
2, 234720, Note_on_c, 1, 73, 49
2, 234800, Note_on_c, 1, 78, 48
2, 234880, Note_off_c, 1, 78, 0
2, 234880, Note_on_c, 1, 76, 47
2, 234912, Note_off_c, 1, 73, 0
2, 234960, Note_off_c, 1, 76, 0
2, 234960, Note_on_c, 1, 75, 46
2, 235040, Note_off_c, 1, 75, 0
2, 235040, Note_on_c, 1, 76, 45
2, 235120, Note_off_c, 1, 76, 0
2, 235120, Note_on_c, 1, 73, 44
2, 235200, Note_off_c, 1, 73, 0
2, 235200, Note_on_c, 1, 71, 44
2, 235392, Note_off_c, 1, 71, 0
2, 235440, Note_on_c, 1, 71, 45
2, 235632, Note_off_c, 1, 71, 0
2, 235680, Note_on_c, 1, 71, 46
2, 235872, Note_off_c, 1, 71, 0
2, 235920, Note_on_c, 1, 70, 47
2, 236100, Note_off_c, 1, 70, 0
2, 236100, Note_on_c, 1, 71, 48
2, 236160, Note_off_c, 1, 71, 0
2, 236160, Note_on_c, 1, 73, 48
2, 236352, Note_off_c, 1, 73, 0
2, 236400, Note_on_c, 1, 73, 49
2, 236592, Note_off_c, 1, 73, 0
2, 236640, Note_on_c, 1, 73, 51
2, 236880, Note_off_c, 1, 73, 0
2, 236880, Note_on_c, 1, 75, 52
2, 237072, Note_off_c, 1, 75, 0
2, 237120, Note_on_c, 1, 75, 53
2, 237360, Note_off_c, 1, 75, 0
2, 237360, Note_on_c, 1, 71, 54
2, 237552, Note_off_c, 1, 71, 0
2, 237600, Note_on_c, 1, 71, 55
2, 237840, Note_off_c, 1, 71, 0
2, 237840, Note_on_c, 1, 76, 56
2, 238032, Note_off_c, 1, 76, 0
2, 238080, Note_on_c, 1, 76, 57
2, 238320, Note_off_c, 1, 76, 0
2, 238320, Note_on_c, 1, 73, 54
2, 238512, Note_off_c, 1, 73, 0
2, 238560, Note_on_c, 1, 71, 51
2, 238920, Note_off_c, 1, 71, 0
2, 239100, Note_on_c, 1, 71, 46
2, 239139, Note_off_c, 1, 71, 0
2, 239160, Note_on_c, 1, 83, 46
2, 239340, Note_off_c, 1, 83, 0
2, 239340, Note_on_c, 1, 78, 47
2, 239379, Note_off_c, 1, 78, 0
2, 239400, Note_on_c, 1, 75, 47
2, 239580, Note_off_c, 1, 75, 0
2, 239580, Note_on_c, 1, 75, 48
2, 239619, Note_off_c, 1, 75, 0
2, 239640, Note_on_c, 1, 71, 48
2, 239820, Note_off_c, 1, 71, 0
2, 239820, Note_on_c, 1, 70, 49
2, 239859, Note_off_c, 1, 70, 0
2, 239880, Note_on_c, 1, 71, 49
2, 240060, Note_off_c, 1, 71, 0
2, 240060, Note_on_c, 1, 73, 50
2, 240099, Note_off_c, 1, 73, 0
2, 240120, Note_on_c, 1, 85, 50
2, 240300, Note_off_c, 1, 85, 0
2, 240300, Note_on_c, 1, 82, 51
2, 240339, Note_off_c, 1, 82, 0
2, 240360, Note_on_c, 1, 78, 51
2, 240540, Note_off_c, 1, 78, 0
2, 240540, Note_on_c, 1, 76, 52
2, 240579, Note_off_c, 1, 76, 0
2, 240600, Note_on_c, 1, 73, 52
2, 240780, Note_off_c, 1, 73, 0
2, 240780, Note_on_c, 1, 73, 53
2, 240819, Note_off_c, 1, 73, 0
2, 240840, Note_on_c, 1, 75, 53
2, 241020, Note_off_c, 1, 75, 0
2, 241020, Note_on_c, 1, 75, 54
2, 241059, Note_off_c, 1, 75, 0
2, 241080, Note_on_c, 1, 87, 54
2, 241260, Note_off_c, 1, 87, 0
2, 241260, Note_on_c, 1, 83, 55
2, 241299, Note_off_c, 1, 83, 0
2, 241320, Note_on_c, 1, 71, 55
2, 241500, Note_off_c, 1, 71, 0
2, 241500, Note_on_c, 1, 71, 56
2, 241539, Note_off_c, 1, 71, 0
2, 241560, Note_on_c, 1, 83, 56
2, 241740, Note_off_c, 1, 83, 0
2, 241740, Note_on_c, 1, 76, 57
2, 241779, Note_off_c, 1, 76, 0
2, 241800, Note_on_c, 1, 88, 57
2, 241980, Note_off_c, 1, 88, 0
2, 241980, Note_on_c, 1, 88, 59
2, 242019, Note_off_c, 1, 88, 0
2, 242040, Note_on_c, 1, 85, 58
2, 242220, Note_off_c, 1, 85, 0
2, 242220, Note_on_c, 1, 85, 56
2, 242259, Note_off_c, 1, 85, 0
2, 242280, Note_on_c, 1, 82, 55
2, 242460, Note_off_c, 1, 82, 0
2, 242460, Note_on_c, 1, 82, 53
2, 242499, Note_off_c, 1, 82, 0
2, 242520, Note_on_c, 1, 78, 52
2, 242700, Note_off_c, 1, 78, 0
2, 242700, Note_on_c, 1, 76, 50
2, 242739, Note_off_c, 1, 76, 0
2, 242760, Note_on_c, 1, 73, 49
2, 242940, Note_off_c, 1, 73, 0
2, 242940, Note_on_c, 1, 71, 48
2, 242979, Note_off_c, 1, 71, 0
2, 243000, Note_on_c, 1, 83, 48
2, 243180, Note_off_c, 1, 83, 0
2, 243180, Note_on_c, 1, 78, 49
2, 243219, Note_off_c, 1, 78, 0
2, 243240, Note_on_c, 1, 75, 50
2, 243420, Note_off_c, 1, 75, 0
2, 243420, Note_on_c, 1, 75, 51
2, 243459, Note_off_c, 1, 75, 0
2, 243480, Note_on_c, 1, 71, 51
2, 243660, Note_off_c, 1, 71, 0
2, 243660, Note_on_c, 1, 70, 52
2, 243699, Note_off_c, 1, 70, 0
2, 243720, Note_on_c, 1, 71, 52
2, 243900, Note_off_c, 1, 71, 0
2, 243900, Note_on_c, 1, 73, 53
2, 243939, Note_off_c, 1, 73, 0
2, 243960, Note_on_c, 1, 85, 54
2, 244140, Note_off_c, 1, 85, 0
2, 244140, Note_on_c, 1, 82, 54
2, 244179, Note_off_c, 1, 82, 0
2, 244200, Note_on_c, 1, 78, 55
2, 244380, Note_off_c, 1, 78, 0
2, 244380, Note_on_c, 1, 76, 56
2, 244419, Note_off_c, 1, 76, 0
2, 244440, Note_on_c, 1, 73, 56
2, 244620, Note_off_c, 1, 73, 0
2, 244620, Note_on_c, 1, 73, 57
2, 244659, Note_off_c, 1, 73, 0
2, 244680, Note_on_c, 1, 75, 57
2, 244860, Note_off_c, 1, 75, 0
2, 244860, Note_on_c, 1, 75, 58
2, 244899, Note_off_c, 1, 75, 0
2, 244920, Note_on_c, 1, 87, 59
2, 245100, Note_off_c, 1, 87, 0
2, 245100, Note_on_c, 1, 83, 60
2, 245139, Note_off_c, 1, 83, 0
2, 245160, Note_on_c, 1, 71, 60
2, 245340, Note_off_c, 1, 71, 0
2, 245340, Note_on_c, 1, 71, 61
2, 245379, Note_off_c, 1, 71, 0
2, 245400, Note_on_c, 1, 83, 61
2, 245580, Note_off_c, 1, 83, 0
2, 245580, Note_on_c, 1, 88, 62
2, 245619, Note_off_c, 1, 88, 0
2, 245640, Note_on_c, 1, 76, 63
2, 245820, Note_off_c, 1, 76, 0
2, 245820, Note_on_c, 1, 88, 64
2, 245859, Note_off_c, 1, 88, 0
2, 245880, Note_on_c, 1, 76, 63
2, 246060, Note_off_c, 1, 76, 0
2, 246060, Note_on_c, 1, 85, 60
2, 246099, Note_off_c, 1, 85, 0
2, 246120, Note_on_c, 1, 73, 59
2, 246300, Note_off_c, 1, 73, 0
2, 246300, Note_on_c, 1, 83, 56
2, 246339, Note_off_c, 1, 83, 0
2, 246360, Note_on_c, 1, 71, 55
2, 246540, Note_off_c, 1, 71, 0
2, 246600, Note_on_c, 1, 66, 51
2, 246660, Note_off_c, 1, 66, 0
2, 246660, Note_on_c, 1, 70, 50
2, 246720, Note_off_c, 1, 70, 0
2, 246720, Note_on_c, 1, 71, 50
2, 246840, Note_off_c, 1, 71, 0
2, 246840, Note_on_c, 1, 66, 50
2, 246960, Note_off_c, 1, 66, 0
2, 247080, Note_on_c, 1, 66, 50
2, 247140, Note_off_c, 1, 66, 0
2, 247140, Note_on_c, 1, 70, 51
2, 247200, Note_off_c, 1, 70, 0
2, 247200, Note_on_c, 1, 71, 51
2, 247320, Note_off_c, 1, 71, 0
2, 247320, Note_on_c, 1, 66, 51
2, 247440, Note_off_c, 1, 66, 0
2, 247560, Note_on_c, 1, 63, 52
2, 247620, Note_off_c, 1, 63, 0
2, 247620, Note_on_c, 1, 71, 52
2, 247680, Note_off_c, 1, 71, 0
2, 247680, Note_on_c, 1, 73, 52
2, 247800, Note_off_c, 1, 73, 0
2, 247800, Note_on_c, 1, 66, 52
2, 247920, Note_off_c, 1, 66, 0
2, 248040, Note_on_c, 1, 66, 53
2, 248100, Note_off_c, 1, 66, 0
2, 248100, Note_on_c, 1, 71, 53
2, 248160, Note_off_c, 1, 71, 0
2, 248160, Note_on_c, 1, 73, 53
2, 248280, Note_off_c, 1, 73, 0
2, 248280, Note_on_c, 1, 66, 53
2, 248400, Note_off_c, 1, 66, 0
2, 248520, Note_on_c, 1, 66, 54
2, 248580, Note_off_c, 1, 66, 0
2, 248580, Note_on_c, 1, 73, 54
2, 248640, Note_off_c, 1, 73, 0
2, 248640, Note_on_c, 1, 75, 54
2, 248760, Note_off_c, 1, 75, 0
2, 248760, Note_on_c, 1, 71, 54
2, 248880, Note_off_c, 1, 71, 0
2, 249000, Note_on_c, 1, 68, 55
2, 249060, Note_off_c, 1, 68, 0
2, 249060, Note_on_c, 1, 70, 55
2, 249120, Note_off_c, 1, 70, 0
2, 249120, Note_on_c, 1, 71, 55
2, 249240, Note_off_c, 1, 71, 0
2, 249240, Note_on_c, 1, 68, 55
2, 249360, Note_off_c, 1, 68, 0
2, 249480, Note_on_c, 1, 68, 56
2, 249540, Note_off_c, 1, 68, 0
2, 249540, Note_on_c, 1, 75, 56
2, 249600, Note_off_c, 1, 75, 0
2, 249600, Note_on_c, 1, 76, 57
2, 249720, Note_off_c, 1, 76, 0
2, 249720, Note_on_c, 1, 68, 56
2, 249840, Note_off_c, 1, 68, 0
2, 249960, Note_on_c, 1, 73, 55
2, 250020, Note_off_c, 1, 73, 0
2, 250020, Note_on_c, 1, 75, 54
2, 250080, Note_off_c, 1, 75, 0
2, 250080, Note_on_c, 1, 76, 54
2, 250200, Note_off_c, 1, 76, 0
2, 250200, Note_on_c, 1, 73, 53
2, 250320, Note_off_c, 1, 73, 0
2, 250440, Note_on_c, 1, 78, 51
2, 250500, Note_off_c, 1, 78, 0
2, 250500, Note_on_c, 1, 82, 50
2, 250560, Note_off_c, 1, 82, 0
2, 250560, Note_on_c, 1, 83, 50
2, 250680, Note_off_c, 1, 83, 0
2, 250680, Note_on_c, 1, 78, 50
2, 250800, Note_off_c, 1, 78, 0
2, 250920, Note_on_c, 1, 78, 51
2, 250980, Note_off_c, 1, 78, 0
2, 250980, Note_on_c, 1, 82, 52
2, 251040, Note_off_c, 1, 82, 0
2, 251040, Note_on_c, 1, 83, 52
2, 251160, Note_off_c, 1, 83, 0
2, 251160, Note_on_c, 1, 78, 52
2, 251280, Note_off_c, 1, 78, 0
2, 251400, Note_on_c, 1, 78, 54
2, 251460, Note_off_c, 1, 78, 0
2, 251460, Note_on_c, 1, 83, 54
2, 251520, Note_off_c, 1, 83, 0
2, 251520, Note_on_c, 1, 85, 54
2, 251640, Note_off_c, 1, 85, 0
2, 251640, Note_on_c, 1, 78, 55
2, 251760, Note_off_c, 1, 78, 0
2, 251880, Note_on_c, 1, 78, 56
2, 251940, Note_off_c, 1, 78, 0
2, 251940, Note_on_c, 1, 83, 56
2, 252000, Note_off_c, 1, 83, 0
2, 252000, Note_on_c, 1, 85, 57
2, 252120, Note_off_c, 1, 85, 0
2, 252120, Note_on_c, 1, 78, 57
2, 252240, Note_off_c, 1, 78, 0
2, 252360, Note_on_c, 1, 78, 58
2, 252420, Note_off_c, 1, 78, 0
2, 252420, Note_on_c, 1, 85, 59
2, 252480, Note_off_c, 1, 85, 0
2, 252480, Note_on_c, 1, 87, 59
2, 252600, Note_off_c, 1, 87, 0
2, 252600, Note_on_c, 1, 83, 59
2, 252720, Note_off_c, 1, 83, 0
2, 252840, Note_on_c, 1, 80, 61
2, 252900, Note_off_c, 1, 80, 0
2, 252900, Note_on_c, 1, 82, 61
2, 252960, Note_off_c, 1, 82, 0
2, 252960, Note_on_c, 1, 83, 61
2, 253080, Note_off_c, 1, 83, 0
2, 253080, Note_on_c, 1, 80, 62
2, 253200, Note_off_c, 1, 80, 0
2, 253320, Note_on_c, 1, 80, 63
2, 253380, Note_off_c, 1, 80, 0
2, 253380, Note_on_c, 1, 87, 63
2, 253440, Note_off_c, 1, 87, 0
2, 253440, Note_on_c, 1, 88, 65
2, 253560, Note_off_c, 1, 88, 0
2, 253560, Note_on_c, 1, 85, 64
2, 253680, Note_off_c, 1, 85, 0
2, 253800, Note_on_c, 1, 85, 61
2, 253860, Note_off_c, 1, 85, 0
2, 253860, Note_on_c, 1, 90, 60
2, 253920, Note_off_c, 1, 90, 0
2, 253920, Note_on_c, 1, 87, 59
2, 254040, Note_off_c, 1, 87, 0
2, 254040, Note_on_c, 1, 83, 58
2, 254160, Note_off_c, 1, 83, 0
2, 254520, Note_on_c, 1, 83, 54
2, 254640, Note_off_c, 1, 83, 0
2, 254760, Note_on_c, 1, 83, 55
2, 254880, Note_off_c, 1, 83, 0
2, 255000, Note_on_c, 1, 83, 56
2, 255120, Note_off_c, 1, 83, 0
2, 255120, Note_on_c, 1, 82, 57
2, 255240, Note_off_c, 1, 82, 0
2, 255240, Note_on_c, 1, 83, 57
2, 255360, Note_off_c, 1, 83, 0
2, 255480, Note_on_c, 1, 85, 58
2, 255600, Note_off_c, 1, 85, 0
2, 255720, Note_on_c, 1, 85, 59
2, 255840, Note_off_c, 1, 85, 0
2, 255960, Note_on_c, 1, 85, 60
2, 256080, Note_off_c, 1, 85, 0
2, 256200, Note_on_c, 1, 87, 61
2, 256320, Note_off_c, 1, 87, 0
2, 256440, Note_on_c, 1, 87, 62
2, 256560, Note_off_c, 1, 87, 0
2, 256680, Note_on_c, 1, 83, 63
2, 256800, Note_off_c, 1, 83, 0
2, 256920, Note_on_c, 1, 83, 64
2, 257040, Note_off_c, 1, 83, 0
2, 257160, Note_on_c, 1, 88, 65
2, 257280, Note_off_c, 1, 88, 0
2, 257400, Note_on_c, 1, 88, 64
2, 257520, Note_off_c, 1, 88, 0
2, 257640, Note_on_c, 1, 85, 62
2, 257760, Note_off_c, 1, 85, 0
2, 257920, Note_on_c, 1, 78, 59
2, 257960, Note_off_c, 1, 78, 0
2, 258360, Note_on_c, 1, 83, 54
2, 258480, Note_off_c, 1, 83, 0
2, 258600, Note_on_c, 1, 83, 56
2, 258720, Note_off_c, 1, 83, 0
2, 258840, Note_on_c, 1, 83, 57
2, 258960, Note_off_c, 1, 83, 0
2, 258960, Note_on_c, 1, 82, 58
2, 259080, Note_off_c, 1, 82, 0
2, 259080, Note_on_c, 1, 83, 59
2, 259200, Note_off_c, 1, 83, 0
2, 259320, Note_on_c, 1, 85, 60
2, 259440, Note_off_c, 1, 85, 0
2, 259560, Note_on_c, 1, 85, 62
2, 259680, Note_off_c, 1, 85, 0
2, 259800, Note_on_c, 1, 85, 63
2, 259920, Note_off_c, 1, 85, 0
2, 260040, Note_on_c, 1, 87, 65
2, 260160, Note_off_c, 1, 87, 0
2, 260280, Note_on_c, 1, 87, 66
2, 260400, Note_off_c, 1, 87, 0
2, 260520, Note_on_c, 1, 83, 68
2, 260640, Note_off_c, 1, 83, 0
2, 260760, Note_on_c, 1, 83, 69
2, 260880, Note_off_c, 1, 83, 0
2, 261000, Note_on_c, 1, 88, 71
2, 261120, Note_off_c, 1, 88, 0
2, 261240, Note_on_c, 1, 88, 72
2, 261360, Note_off_c, 1, 88, 0
2, 261480, Note_on_c, 1, 85, 68
2, 261600, Note_off_c, 1, 85, 0
2, 261720, Note_on_c, 1, 83, 64
2, 261840, Note_off_c, 1, 83, 0
2, 262080, Note_on_c, 1, 71, 60
2, 262200, Note_off_c, 1, 71, 0
2, 262500, Note_on_c, 1, 71, 61
2, 262560, Note_off_c, 1, 71, 0
2, 262560, Note_on_c, 1, 73, 62
2, 262680, Note_off_c, 1, 73, 0
2, 262680, Note_on_c, 1, 71, 62
2, 262800, Note_off_c, 1, 71, 0
2, 262800, Note_on_c, 1, 70, 63
2, 262920, Note_off_c, 1, 70, 0
2, 262920, Note_on_c, 1, 71, 63
2, 263040, Note_off_c, 1, 71, 0
2, 263460, Note_on_c, 1, 73, 65
2, 263520, Note_off_c, 1, 73, 0
2, 263520, Note_on_c, 1, 75, 66
2, 263640, Note_off_c, 1, 75, 0
2, 263640, Note_on_c, 1, 73, 66
2, 263760, Note_off_c, 1, 73, 0
2, 263760, Note_on_c, 1, 76, 67
2, 263880, Note_off_c, 1, 76, 0
2, 263880, Note_on_c, 1, 75, 67
2, 264000, Note_off_c, 1, 75, 0
2, 264480, Note_on_c, 1, 73, 70
2, 264600, Note_off_c, 1, 73, 0
2, 264600, Note_on_c, 1, 71, 70
2, 264720, Note_off_c, 1, 71, 0
2, 264720, Note_on_c, 1, 78, 71
2, 264840, Note_off_c, 1, 78, 0
2, 264840, Note_on_c, 1, 76, 71
2, 264960, Note_off_c, 1, 76, 0
2, 265380, Note_on_c, 1, 73, 67
2, 265440, Note_off_c, 1, 73, 0
2, 265440, Note_on_c, 1, 78, 67
2, 265560, Note_off_c, 1, 78, 0
2, 265560, Note_on_c, 1, 73, 65
2, 265680, Note_off_c, 1, 73, 0
2, 265680, Note_on_c, 1, 76, 64
2, 265800, Note_off_c, 1, 76, 0
2, 265800, Note_on_c, 1, 73, 63
2, 265920, Note_off_c, 1, 73, 0
2, 266340, Note_on_c, 1, 83, 62
2, 266400, Note_off_c, 1, 83, 0
2, 266400, Note_on_c, 1, 85, 63
2, 266520, Note_off_c, 1, 85, 0
2, 266520, Note_on_c, 1, 83, 63
2, 266640, Note_off_c, 1, 83, 0
2, 266640, Note_on_c, 1, 82, 64
2, 266760, Note_off_c, 1, 82, 0
2, 266760, Note_on_c, 1, 83, 65
2, 266880, Note_off_c, 1, 83, 0
2, 267300, Note_on_c, 1, 85, 68
2, 267360, Note_off_c, 1, 85, 0
2, 267360, Note_on_c, 1, 87, 68
2, 267480, Note_off_c, 1, 87, 0
2, 267480, Note_on_c, 1, 85, 69
2, 267600, Note_off_c, 1, 85, 0
2, 267600, Note_on_c, 1, 88, 70
2, 267720, Note_off_c, 1, 88, 0
2, 267720, Note_on_c, 1, 87, 71
2, 267840, Note_off_c, 1, 87, 0
2, 268260, Note_on_c, 1, 83, 74
2, 268320, Note_off_c, 1, 83, 0
2, 268320, Note_on_c, 1, 85, 74
2, 268440, Note_off_c, 1, 85, 0
2, 268440, Note_on_c, 1, 83, 75
2, 268560, Note_off_c, 1, 83, 0
2, 268560, Note_on_c, 1, 90, 76
2, 268680, Note_off_c, 1, 90, 0
2, 268680, Note_on_c, 1, 88, 76
2, 268800, Note_off_c, 1, 88, 0
2, 269220, Note_on_c, 1, 85, 69
2, 269280, Note_off_c, 1, 85, 0
2, 269280, Note_on_c, 1, 87, 67
2, 269400, Note_off_c, 1, 87, 0
2, 269400, Note_on_c, 1, 82, 65
2, 269520, Note_off_c, 1, 82, 0
2, 269520, Note_on_c, 1, 85, 63
2, 269640, Note_off_c, 1, 85, 0
2, 269640, Note_on_c, 1, 83, 57
2, 269760, Note_off_c, 1, 83, 0
2, 269880, Note_on_c, 1, 71, 42
2, 269880, Note_on_c, 1, 83, 42
2, 270000, Note_off_c, 1, 83, 0
2, 270000, Note_off_c, 1, 71, 0
2, 270120, Note_on_c, 1, 75, 43
2, 270120, Note_on_c, 1, 87, 43
2, 270240, Note_off_c, 1, 87, 0
2, 270240, Note_off_c, 1, 75, 0
2, 270360, Note_on_c, 1, 66, 42
2, 270420, Note_on_c, 1, 78, 46
2, 270480, Note_off_c, 1, 78, 0
2, 270480, Note_off_c, 1, 66, 0
2, 270480, Note_on_c, 1, 70, 49
2, 270540, Note_on_c, 1, 82, 46
2, 270600, Note_off_c, 1, 82, 0
2, 270600, Note_off_c, 1, 70, 0
2, 270600, Note_on_c, 1, 71, 44
2, 270660, Note_on_c, 1, 83, 42
2, 270720, Note_off_c, 1, 83, 0
2, 270720, Note_off_c, 1, 71, 0
2, 270840, Note_on_c, 1, 73, 45
2, 270840, Note_on_c, 1, 85, 45
2, 270960, Note_off_c, 1, 85, 0
2, 270960, Note_off_c, 1, 73, 0
2, 271080, Note_on_c, 1, 76, 45
2, 271080, Note_on_c, 1, 88, 45
2, 271200, Note_off_c, 1, 88, 0
2, 271200, Note_off_c, 1, 76, 0
2, 271320, Note_on_c, 1, 66, 45
2, 271380, Note_on_c, 1, 78, 48
2, 271440, Note_off_c, 1, 78, 0
2, 271440, Note_off_c, 1, 66, 0
2, 271440, Note_on_c, 1, 73, 51
2, 271500, Note_on_c, 1, 85, 50
2, 271560, Note_off_c, 1, 85, 0
2, 271560, Note_off_c, 1, 73, 0
2, 271560, Note_on_c, 1, 75, 48
2, 271620, Note_on_c, 1, 87, 46
2, 271680, Note_off_c, 1, 87, 0
2, 271680, Note_off_c, 1, 75, 0
2, 271800, Note_on_c, 1, 63, 47
2, 271800, Note_on_c, 1, 75, 47
2, 271860, Note_off_c, 1, 63, 0
2, 271920, Note_off_c, 1, 75, 0
2, 272040, Note_on_c, 1, 71, 48
2, 272040, Note_on_c, 1, 83, 48
2, 272160, Note_off_c, 1, 83, 0
2, 272160, Note_off_c, 1, 71, 0
2, 272280, Note_on_c, 1, 71, 47
2, 272340, Note_on_c, 1, 83, 51
2, 272400, Note_off_c, 1, 83, 0
2, 272400, Note_off_c, 1, 71, 0
2, 272400, Note_on_c, 1, 68, 55
2, 272460, Note_on_c, 1, 80, 52
2, 272520, Note_off_c, 1, 80, 0
2, 272520, Note_off_c, 1, 68, 0
2, 272520, Note_on_c, 1, 76, 50
2, 272580, Note_on_c, 1, 88, 48
2, 272640, Note_off_c, 1, 88, 0
2, 272640, Note_off_c, 1, 76, 0
2, 272760, Note_on_c, 1, 64, 48
2, 272760, Note_on_c, 1, 76, 48
2, 272880, Note_off_c, 1, 76, 0
2, 272880, Note_off_c, 1, 64, 0
2, 273000, Note_on_c, 1, 73, 46
2, 273000, Note_on_c, 1, 85, 46
2, 273120, Note_off_c, 1, 85, 0
2, 273120, Note_off_c, 1, 73, 0
2, 273240, Note_on_c, 1, 73, 41
2, 273300, Note_on_c, 1, 85, 44
2, 273360, Note_off_c, 1, 85, 0
2, 273360, Note_off_c, 1, 73, 0
2, 273360, Note_on_c, 1, 70, 48
2, 273420, Note_on_c, 1, 82, 47
2, 273480, Note_off_c, 1, 82, 0
2, 273480, Note_off_c, 1, 70, 0
2, 273480, Note_on_c, 1, 78, 44
2, 273540, Note_on_c, 1, 90, 41
2, 273600, Note_off_c, 1, 90, 0
2, 273600, Note_off_c, 1, 78, 0
2, 273720, Note_on_c, 1, 71, 40
2, 273720, Note_on_c, 1, 83, 40
2, 273840, Note_off_c, 1, 83, 0
2, 273840, Note_off_c, 1, 71, 0
2, 273960, Note_on_c, 1, 75, 41
2, 273960, Note_on_c, 1, 87, 41
2, 274080, Note_off_c, 1, 87, 0
2, 274080, Note_off_c, 1, 75, 0
2, 274200, Note_on_c, 1, 66, 42
2, 274260, Note_on_c, 1, 78, 46
2, 274320, Note_off_c, 1, 78, 0
2, 274320, Note_off_c, 1, 66, 0
2, 274320, Note_on_c, 1, 70, 49
2, 274380, Note_on_c, 1, 82, 47
2, 274440, Note_off_c, 1, 82, 0
2, 274440, Note_off_c, 1, 70, 0
2, 274440, Note_on_c, 1, 71, 45
2, 274500, Note_on_c, 1, 83, 43
2, 274560, Note_off_c, 1, 83, 0
2, 274560, Note_off_c, 1, 71, 0
2, 274680, Note_on_c, 1, 73, 45
2, 274680, Note_on_c, 1, 85, 45
2, 274800, Note_off_c, 1, 85, 0
2, 274800, Note_off_c, 1, 73, 0
2, 274920, Note_on_c, 1, 76, 46
2, 274920, Note_on_c, 1, 88, 46
2, 275040, Note_off_c, 1, 88, 0
2, 275040, Note_off_c, 1, 76, 0
2, 275160, Note_on_c, 1, 66, 46
2, 275220, Note_on_c, 1, 78, 51
2, 275280, Note_off_c, 1, 78, 0
2, 275280, Note_off_c, 1, 66, 0
2, 275280, Note_on_c, 1, 73, 55
2, 275340, Note_on_c, 1, 85, 53
2, 275400, Note_off_c, 1, 85, 0
2, 275400, Note_off_c, 1, 73, 0
2, 275400, Note_on_c, 1, 75, 51
2, 275460, Note_on_c, 1, 87, 48
2, 275520, Note_off_c, 1, 87, 0
2, 275520, Note_off_c, 1, 75, 0
2, 275640, Note_on_c, 1, 63, 49
2, 275640, Note_on_c, 1, 75, 49
2, 275700, Note_off_c, 1, 63, 0
2, 275760, Note_off_c, 1, 75, 0
2, 275880, Note_on_c, 1, 71, 50
2, 275880, Note_on_c, 1, 83, 50
2, 276000, Note_off_c, 1, 83, 0
2, 276000, Note_off_c, 1, 71, 0
2, 276120, Note_on_c, 1, 71, 53
2, 276180, Note_on_c, 1, 83, 56
2, 276240, Note_off_c, 1, 83, 0
2, 276240, Note_off_c, 1, 71, 0
2, 276240, Note_on_c, 1, 68, 60
2, 276300, Note_on_c, 1, 80, 57
2, 276360, Note_off_c, 1, 80, 0
2, 276360, Note_off_c, 1, 68, 0
2, 276360, Note_on_c, 1, 76, 55
2, 276420, Note_on_c, 1, 88, 53
2, 276480, Note_off_c, 1, 88, 0
2, 276480, Note_off_c, 1, 76, 0
2, 276600, Note_on_c, 1, 64, 52
2, 276600, Note_on_c, 1, 76, 52
2, 276720, Note_off_c, 1, 76, 0
2, 276720, Note_off_c, 1, 64, 0
2, 276840, Note_on_c, 1, 73, 49
2, 276840, Note_on_c, 1, 85, 49
2, 276960, Note_off_c, 1, 85, 0
2, 276960, Note_off_c, 1, 73, 0
2, 277080, Note_on_c, 1, 71, 47
2, 277140, Note_on_c, 1, 83, 50
2, 277200, Note_off_c, 1, 83, 0
2, 277200, Note_off_c, 1, 71, 0
2, 277200, Note_on_c, 1, 75, 52
2, 277260, Note_on_c, 1, 87, 51
2, 277320, Note_off_c, 1, 87, 0
2, 277320, Note_off_c, 1, 75, 0
2, 277320, Note_on_c, 1, 66, 48
2, 277380, Note_on_c, 1, 78, 44
2, 277440, Note_off_c, 1, 78, 0
2, 277440, Note_off_c, 1, 66, 0
2, 302400, Note_on_c, 1, 88, 38
2, 302520, Note_off_c, 1, 88, 0
2, 302520, Note_on_c, 1, 87, 37
2, 302640, Note_off_c, 1, 87, 0
2, 302640, Note_on_c, 1, 85, 36
2, 302760, Note_off_c, 1, 85, 0
2, 302760, Note_on_c, 1, 83, 36
2, 302880, Note_off_c, 1, 83, 0
2, 302880, Note_on_c, 1, 82, 35
2, 303000, Note_off_c, 1, 82, 0
2, 303000, Note_on_c, 1, 80, 34
2, 303120, Note_off_c, 1, 80, 0
2, 303120, Note_on_c, 1, 78, 33
2, 303240, Note_off_c, 1, 78, 0
2, 303240, Note_on_c, 1, 76, 32
2, 303360, Note_off_c, 1, 76, 0
2, 303360, Note_on_c, 1, 75, 31
2, 303480, Note_off_c, 1, 75, 0
2, 303480, Note_on_c, 1, 73, 31
2, 303600, Note_off_c, 1, 73, 0
2, 303600, Note_on_c, 1, 71, 30
2, 303720, Note_off_c, 1, 71, 0
2, 303720, Note_on_c, 1, 70, 29
2, 304075, Note_off_c, 1, 70, 0
2, 304800, Note_on_c, 1, 73, 83
2, 304920, Note_off_c, 1, 73, 0
2, 304920, Note_on_c, 1, 71, 83
2, 305040, Note_off_c, 1, 71, 0
2, 305040, Note_on_c, 1, 70, 82
2, 305160, Note_off_c, 1, 70, 0
2, 305160, Note_on_c, 1, 68, 81
2, 305280, Note_off_c, 1, 68, 0
2, 305280, Note_on_c, 1, 66, 81
2, 305400, Note_off_c, 1, 66, 0
2, 305400, Note_on_c, 1, 64, 80
2, 305520, Note_off_c, 1, 64, 0
2, 305520, Note_on_c, 1, 63, 79
2, 305640, Note_off_c, 1, 63, 0
2, 305640, Note_on_c, 1, 61, 78
2, 305760, Note_off_c, 1, 61, 0
2, 305760, Note_on_c, 1, 59, 78
2, 305880, Note_off_c, 1, 59, 0
2, 305880, Note_on_c, 1, 58, 77
2, 306000, Note_off_c, 1, 58, 0
2, 306000, Note_on_c, 1, 56, 76
2, 306120, Note_off_c, 1, 56, 0
2, 306120, Note_on_c, 1, 54, 76
2, 306450, Note_off_c, 1, 54, 0
2, 307200, Note_on_c, 1, 90, 44
2, 307320, Note_off_c, 1, 90, 0
2, 307320, Note_on_c, 1, 88, 43
2, 307440, Note_off_c, 1, 88, 0
2, 307440, Note_on_c, 1, 87, 42
2, 307560, Note_off_c, 1, 87, 0
2, 307560, Note_on_c, 1, 85, 42
2, 307680, Note_off_c, 1, 85, 0
2, 307680, Note_on_c, 1, 83, 41
2, 307800, Note_off_c, 1, 83, 0
2, 307800, Note_on_c, 1, 82, 40
2, 307920, Note_off_c, 1, 82, 0
2, 307920, Note_on_c, 1, 80, 40
2, 308040, Note_off_c, 1, 80, 0
2, 308040, Note_on_c, 1, 78, 39
2, 308160, Note_off_c, 1, 78, 0
2, 308160, Note_on_c, 1, 76, 38
2, 308280, Note_off_c, 1, 76, 0
2, 308280, Note_on_c, 1, 75, 37
2, 308400, Note_off_c, 1, 75, 0
2, 308400, Note_on_c, 1, 73, 37
2, 308520, Note_off_c, 1, 73, 0
2, 308520, Note_on_c, 1, 71, 36
2, 308880, Note_off_c, 1, 71, 0
2, 310080, Note_on_c, 1, 74, 79
2, 310200, Note_off_c, 1, 74, 0
2, 310200, Note_on_c, 1, 73, 79
2, 310320, Note_off_c, 1, 73, 0
2, 310320, Note_on_c, 1, 71, 78
2, 310440, Note_off_c, 1, 71, 0
2, 310440, Note_on_c, 1, 69, 77
2, 310560, Note_off_c, 1, 69, 0
2, 310560, Note_on_c, 1, 67, 76
2, 310680, Note_off_c, 1, 67, 0
2, 310680, Note_on_c, 1, 66, 76
2, 310800, Note_off_c, 1, 66, 0
2, 310800, Note_on_c, 1, 64, 75
2, 310920, Note_off_c, 1, 64, 0
2, 310920, Note_on_c, 1, 62, 74
2, 311040, Note_off_c, 1, 62, 0
2, 311040, Note_on_c, 1, 61, 74
2, 311160, Note_off_c, 1, 61, 0
2, 311160, Note_on_c, 1, 59, 73
2, 311520, Note_off_c, 1, 59, 0
2, 312480, Note_on_c, 1, 89, 44
2, 312600, Note_off_c, 1, 89, 0
2, 312600, Note_on_c, 1, 88, 43
2, 312720, Note_off_c, 1, 88, 0
2, 312720, Note_on_c, 1, 86, 43
2, 312840, Note_off_c, 1, 86, 0
2, 312840, Note_on_c, 1, 84, 42
2, 312960, Note_off_c, 1, 84, 0
2, 312960, Note_on_c, 1, 83, 42
2, 313080, Note_off_c, 1, 83, 0
2, 313080, Note_on_c, 1, 81, 42
2, 313200, Note_off_c, 1, 81, 0
2, 313200, Note_on_c, 1, 79, 41
2, 313320, Note_off_c, 1, 79, 0
2, 313320, Note_on_c, 1, 77, 41
2, 313440, Note_off_c, 1, 77, 0
2, 313440, Note_on_c, 1, 76, 41
2, 313560, Note_off_c, 1, 76, 0
2, 313560, Note_on_c, 1, 74, 40
2, 313680, Note_off_c, 1, 74, 0
2, 313680, Note_on_c, 1, 72, 40
2, 313800, Note_off_c, 1, 72, 0
2, 313800, Note_on_c, 1, 71, 40
2, 314160, Note_off_c, 1, 71, 0
2, 314880, Note_on_c, 1, 74, 36
2, 315000, Note_off_c, 1, 74, 0
2, 315000, Note_on_c, 1, 72, 36
2, 315120, Note_off_c, 1, 72, 0
2, 315120, Note_on_c, 1, 71, 36
2, 315240, Note_off_c, 1, 71, 0
2, 315240, Note_on_c, 1, 69, 35
2, 315360, Note_off_c, 1, 69, 0
2, 315360, Note_on_c, 1, 67, 35
2, 315480, Note_off_c, 1, 67, 0
2, 315480, Note_on_c, 1, 65, 35
2, 315600, Note_off_c, 1, 65, 0
2, 315600, Note_on_c, 1, 64, 34
2, 315720, Note_off_c, 1, 64, 0
2, 315720, Note_on_c, 1, 62, 34
2, 315840, Note_off_c, 1, 62, 0
2, 315840, Note_on_c, 1, 60, 34
2, 315960, Note_off_c, 1, 60, 0
2, 315960, Note_on_c, 1, 59, 33
2, 316080, Note_off_c, 1, 59, 0
2, 316080, Note_on_c, 1, 57, 33
2, 316200, Note_off_c, 1, 57, 0
2, 316200, Note_on_c, 1, 55, 33
2, 316320, Note_off_c, 1, 55, 0
2, 316320, Note_on_c, 1, 53, 32
2, 316440, Note_off_c, 1, 53, 0
2, 316440, Note_on_c, 1, 52, 32
2, 316560, Note_off_c, 1, 52, 0
2, 316560, Note_on_c, 1, 50, 32
2, 316680, Note_off_c, 1, 50, 0
2, 316680, Note_on_c, 1, 48, 31
2, 316800, Note_off_c, 1, 48, 0
2, 316800, Note_on_c, 1, 47, 31
2, 316920, Note_off_c, 1, 47, 0
2, 316920, Note_on_c, 1, 45, 30
2, 317040, Note_off_c, 1, 45, 0
2, 317040, Note_on_c, 1, 43, 31
2, 317160, Note_off_c, 1, 43, 0
2, 317160, Note_on_c, 1, 45, 32
2, 317280, Note_off_c, 1, 45, 0
2, 317280, Note_on_c, 1, 47, 33
2, 317400, Note_off_c, 1, 47, 0
2, 317400, Note_on_c, 1, 48, 34
2, 317520, Note_off_c, 1, 48, 0
2, 317520, Note_on_c, 1, 50, 35
2, 317640, Note_off_c, 1, 50, 0
2, 317640, Note_on_c, 1, 52, 36
2, 317760, Note_off_c, 1, 52, 0
2, 317760, Note_on_c, 1, 53, 36
2, 317880, Note_off_c, 1, 53, 0
2, 317880, Note_on_c, 1, 55, 37
2, 318000, Note_off_c, 1, 55, 0
2, 318000, Note_on_c, 1, 57, 38
2, 318120, Note_off_c, 1, 57, 0
2, 318120, Note_on_c, 1, 59, 39
2, 318240, Note_off_c, 1, 59, 0
2, 318240, Note_on_c, 1, 60, 40
2, 318360, Note_off_c, 1, 60, 0
2, 318360, Note_on_c, 1, 62, 41
2, 318480, Note_off_c, 1, 62, 0
2, 318480, Note_on_c, 1, 64, 42
2, 318600, Note_off_c, 1, 64, 0
2, 318600, Note_on_c, 1, 65, 43
2, 318720, Note_off_c, 1, 65, 0
2, 318720, Note_on_c, 1, 67, 44
2, 318840, Note_off_c, 1, 67, 0
2, 318840, Note_on_c, 1, 69, 45
2, 318960, Note_off_c, 1, 69, 0
2, 318960, Note_on_c, 1, 71, 45
2, 319080, Note_off_c, 1, 71, 0
2, 319080, Note_on_c, 1, 72, 46
2, 319200, Note_off_c, 1, 72, 0
2, 319200, Note_on_c, 1, 74, 47
2, 319320, Note_off_c, 1, 74, 0
2, 319320, Note_on_c, 1, 76, 48
2, 319440, Note_off_c, 1, 76, 0
2, 319440, Note_on_c, 1, 77, 49
2, 319560, Note_off_c, 1, 77, 0
2, 319560, Note_on_c, 1, 79, 50
2, 319680, Note_off_c, 1, 79, 0
2, 319680, Note_on_c, 1, 81, 51
2, 319800, Note_off_c, 1, 81, 0
2, 319800, Note_on_c, 1, 83, 52
2, 319920, Note_off_c, 1, 83, 0
2, 319920, Note_on_c, 1, 84, 53
2, 320040, Note_off_c, 1, 84, 0
2, 320040, Note_on_c, 1, 86, 54
2, 320160, Note_off_c, 1, 86, 0
2, 320160, Note_on_c, 1, 88, 54
2, 320280, Note_off_c, 1, 88, 0
2, 320280, Note_on_c, 1, 89, 55
2, 320400, Note_off_c, 1, 89, 0
2, 320400, Note_on_c, 1, 91, 57
2, 320520, Note_off_c, 1, 91, 0
2, 320520, Note_on_c, 1, 89, 55
2, 320640, Note_off_c, 1, 89, 0
2, 320640, Note_on_c, 1, 88, 54
2, 320760, Note_off_c, 1, 88, 0
2, 320760, Note_on_c, 1, 86, 53
2, 320880, Note_off_c, 1, 86, 0
2, 320880, Note_on_c, 1, 84, 52
2, 321000, Note_off_c, 1, 84, 0
2, 321000, Note_on_c, 1, 83, 51
2, 321120, Note_off_c, 1, 83, 0
2, 321120, Note_on_c, 1, 81, 51
2, 321240, Note_off_c, 1, 81, 0
2, 321240, Note_on_c, 1, 79, 50
2, 321360, Note_off_c, 1, 79, 0
2, 321360, Note_on_c, 1, 77, 49
2, 321480, Note_off_c, 1, 77, 0
2, 321480, Note_on_c, 1, 76, 48
2, 321600, Note_off_c, 1, 76, 0
2, 321600, Note_on_c, 1, 74, 47
2, 321720, Note_off_c, 1, 74, 0
2, 321720, Note_on_c, 1, 72, 46
2, 321840, Note_off_c, 1, 72, 0
2, 321840, Note_on_c, 1, 71, 45
2, 321960, Note_off_c, 1, 71, 0
2, 321960, Note_on_c, 1, 69, 44
2, 322080, Note_off_c, 1, 69, 0
2, 322080, Note_on_c, 1, 67, 42
2, 322327, Note_off_c, 1, 67, 0
2, 322400, Note_on_c, 1, 69, 44
2, 322687, Note_off_c, 1, 69, 0
2, 322720, Note_on_c, 1, 71, 46
2, 323080, Note_off_c, 1, 71, 0
2, 323520, Note_on_c, 1, 72, 40
2, 323880, Note_off_c, 1, 72, 0
2, 324000, Note_on_c, 1, 72, 41
2, 324360, Note_off_c, 1, 72, 0
2, 324480, Note_on_c, 1, 72, 42
2, 324840, Note_off_c, 1, 72, 0
2, 324960, Note_on_c, 1, 71, 43
2, 325320, Note_off_c, 1, 71, 0
2, 325320, Note_on_c, 1, 72, 44
2, 325440, Note_off_c, 1, 72, 0
2, 325440, Note_on_c, 1, 74, 44
2, 325800, Note_off_c, 1, 74, 0
2, 325920, Note_on_c, 1, 74, 45
2, 326280, Note_off_c, 1, 74, 0
2, 326400, Note_on_c, 1, 74, 47
2, 326880, Note_off_c, 1, 74, 0
2, 326880, Note_on_c, 1, 76, 48
2, 327240, Note_off_c, 1, 76, 0
2, 327360, Note_on_c, 1, 76, 49
2, 327840, Note_off_c, 1, 76, 0
2, 327840, Note_on_c, 1, 72, 50
2, 328200, Note_off_c, 1, 72, 0
2, 328320, Note_on_c, 1, 72, 51
2, 328800, Note_off_c, 1, 72, 0
2, 328800, Note_on_c, 1, 77, 52
2, 329160, Note_off_c, 1, 77, 0
2, 329280, Note_on_c, 1, 77, 53
2, 329760, Note_off_c, 1, 77, 0
2, 329760, Note_on_c, 1, 74, 51
2, 330120, Note_off_c, 1, 74, 0
2, 330240, Note_on_c, 1, 74, 49
2, 330720, Note_off_c, 1, 74, 0
2, 330720, Note_on_c, 1, 83, 48
2, 331080, Note_off_c, 1, 83, 0
2, 331200, Note_on_c, 1, 83, 46
2, 331680, Note_off_c, 1, 83, 0
2, 331680, Note_on_c, 1, 80, 47
2, 332040, Note_off_c, 1, 80, 0
2, 332160, Note_on_c, 1, 80, 49
2, 332640, Note_off_c, 1, 80, 0
2, 332640, Note_on_c, 1, 89, 51
2, 333000, Note_off_c, 1, 89, 0
2, 333120, Note_on_c, 1, 89, 53
2, 333600, Note_off_c, 1, 89, 0
2, 333600, Note_on_c, 1, 83, 55
2, 334080, Note_off_c, 1, 83, 0
2, 334080, Note_on_c, 1, 82, 57
2, 334560, Note_off_c, 1, 82, 0
2, 334560, Note_on_c, 1, 88, 59
2, 335040, Note_off_c, 1, 88, 0
2, 335040, Note_on_c, 1, 87, 65
2, 335400, Note_off_c, 1, 87, 0
2, 335520, Note_on_c, 1, 83, 61
2, 335880, Note_off_c, 1, 83, 0
2, 336000, Note_on_c, 1, 78, 57
2, 336360, Note_off_c, 1, 78, 0
2, 336480, Note_on_c, 1, 82, 54
2, 336840, Note_off_c, 1, 82, 0
2, 356160, Note_on_c, 1, 88, 49
2, 356280, Note_off_c, 1, 88, 0
2, 356280, Note_on_c, 1, 87, 48
2, 356400, Note_off_c, 1, 87, 0
2, 356400, Note_on_c, 1, 85, 47
2, 356520, Note_off_c, 1, 85, 0
2, 356520, Note_on_c, 1, 83, 46
2, 356640, Note_off_c, 1, 83, 0
2, 356640, Note_on_c, 1, 82, 45
2, 356760, Note_off_c, 1, 82, 0
2, 356760, Note_on_c, 1, 80, 44
2, 356880, Note_off_c, 1, 80, 0
2, 356880, Note_on_c, 1, 78, 43
2, 357000, Note_off_c, 1, 78, 0
2, 357000, Note_on_c, 1, 76, 42
2, 357120, Note_off_c, 1, 76, 0
2, 357120, Note_on_c, 1, 75, 41
2, 357240, Note_off_c, 1, 75, 0
2, 357240, Note_on_c, 1, 73, 40
2, 357360, Note_off_c, 1, 73, 0
2, 357360, Note_on_c, 1, 71, 39
2, 357480, Note_off_c, 1, 71, 0
2, 357480, Note_on_c, 1, 70, 39
2, 357840, Note_off_c, 1, 70, 0
2, 358560, Note_on_c, 1, 78, 98
2, 358680, Note_off_c, 1, 78, 0
2, 358680, Note_on_c, 1, 76, 97
2, 358800, Note_off_c, 1, 76, 0
2, 358800, Note_on_c, 1, 75, 96
2, 358920, Note_off_c, 1, 75, 0
2, 358920, Note_on_c, 1, 73, 95
2, 359040, Note_off_c, 1, 73, 0
2, 359040, Note_on_c, 1, 71, 94
2, 359160, Note_off_c, 1, 71, 0
2, 359160, Note_on_c, 1, 70, 93
2, 359280, Note_off_c, 1, 70, 0
2, 359280, Note_on_c, 1, 68, 92
2, 359400, Note_off_c, 1, 68, 0
2, 359400, Note_on_c, 1, 66, 91
2, 359520, Note_off_c, 1, 66, 0
2, 359520, Note_on_c, 1, 64, 90
2, 359640, Note_off_c, 1, 64, 0
2, 359640, Note_on_c, 1, 63, 89
2, 359760, Note_off_c, 1, 63, 0
2, 359760, Note_on_c, 1, 61, 88
2, 359880, Note_off_c, 1, 61, 0
2, 359880, Note_on_c, 1, 59, 87
2, 360240, Note_off_c, 1, 59, 0
2, 360480, Control_c, 1, 64, 0
2, 360480, Note_on_c, 1, 71, 44
2, 360840, Note_off_c, 1, 71, 0
2, 360960, Note_on_c, 1, 71, 45
2, 361320, Note_off_c, 1, 71, 0
2, 361440, Note_on_c, 1, 70, 45
2, 361680, Note_off_c, 1, 70, 0
2, 361680, Note_on_c, 1, 71, 46
2, 361872, Note_off_c, 1, 71, 0
2, 361920, Note_on_c, 1, 73, 46
2, 362280, Note_off_c, 1, 73, 0
2, 362400, Note_on_c, 1, 73, 47
2, 362760, Note_off_c, 1, 73, 0
2, 362880, Note_on_c, 1, 73, 48
2, 363240, Note_off_c, 1, 73, 0
2, 363360, Note_on_c, 1, 75, 49
2, 363720, Note_off_c, 1, 75, 0
2, 363840, Note_on_c, 1, 75, 50
2, 364208, Note_off_c, 1, 75, 0
2, 364320, Note_on_c, 1, 71, 51
2, 364688, Note_off_c, 1, 71, 0
2, 364800, Note_on_c, 1, 71, 52
2, 365168, Note_off_c, 1, 71, 0
2, 365280, Note_on_c, 1, 76, 52
2, 365648, Note_off_c, 1, 76, 0
2, 365760, Note_on_c, 1, 76, 55
2, 366128, Note_off_c, 1, 76, 0
2, 366240, Note_on_c, 1, 73, 53
2, 366608, Note_off_c, 1, 73, 0
2, 366720, Note_on_c, 1, 73, 51
2, 367088, Note_off_c, 1, 73, 0
2, 367200, Note_on_c, 1, 78, 49
2, 367568, Note_off_c, 1, 78, 0
2, 367680, Note_on_c, 1, 78, 46
2, 368160, Note_off_c, 1, 78, 0
2, 369120, Note_on_c, 1, 75, 40
2, 369480, Note_off_c, 1, 75, 0
2, 369600, Note_on_c, 1, 75, 35
2, 370080, Note_off_c, 1, 75, 0
2, 371040, Note_on_c, 1, 73, 31
2, 371400, Note_off_c, 1, 73, 0
2, 371520, Note_on_c, 1, 73, 29
2, 372000, Note_off_c, 1, 73, 0
2, 373440, Note_on_c, 1, 83, 103
2, 373600, Note_off_c, 1, 83, 0
2, 373600, Note_on_c, 1, 82, 105
2, 373760, Note_off_c, 1, 82, 0
2, 373760, Note_on_c, 1, 80, 107
2, 373920, Note_off_c, 1, 80, 0
2, 373920, Note_on_c, 1, 78, 109
2, 374040, Note_off_c, 1, 78, 0
2, 374040, Note_on_c, 1, 76, 111
2, 374160, Note_off_c, 1, 76, 0
2, 374160, Note_on_c, 1, 75, 112
2, 374280, Note_off_c, 1, 75, 0
2, 374280, Note_on_c, 1, 73, 114
2, 374400, Note_off_c, 1, 73, 0
2, 374400, Note_on_c, 1, 71, 115
2, 374880, Note_off_c, 1, 71, 0
2, 374880, End_track
3, 0, Start_track
3, 0, Title_t, "Unnamed Track"
3, 0, Control_c, 2, 0, 0
3, 0, Control_c, 2, 32, 0
3, 0, Program_c, 2, 0
3, 0, Control_c, 2, 7, 122
3, 0, Pitch_bend_c, 2, 8192
3, 0, Control_c, 2, 1, 0
3, 0, Control_c, 2, 64, 0
3, 0, Control_c, 2, 93, 28
3, 0, Control_c, 2, 91, 100
3, 0, Control_c, 2, 10, 73
3, 17280, Note_on_c, 2, 61, 43
3, 17280, Note_on_c, 2, 65, 43
3, 17559, Note_off_c, 2, 65, 0
3, 17559, Note_off_c, 2, 61, 0
3, 17760, Note_on_c, 2, 66, 47
3, 17760, Note_on_c, 2, 63, 47
3, 18039, Note_off_c, 2, 63, 0
3, 18039, Note_off_c, 2, 66, 0
3, 18240, Note_on_c, 2, 66, 51
3, 18240, Note_on_c, 2, 63, 51
3, 18519, Note_off_c, 2, 63, 0
3, 18519, Note_off_c, 2, 66, 0
3, 18720, Note_on_c, 2, 65, 55
3, 18720, Note_on_c, 2, 61, 55
3, 18999, Note_off_c, 2, 61, 0
3, 18999, Note_off_c, 2, 65, 0
3, 19200, Note_on_c, 2, 65, 54
3, 19200, Note_on_c, 2, 61, 54
3, 19479, Note_off_c, 2, 61, 0
3, 19479, Note_off_c, 2, 65, 0
3, 19680, Note_on_c, 2, 63, 51
3, 19680, Note_on_c, 2, 61, 51
3, 19959, Note_off_c, 2, 61, 0
3, 19959, Note_off_c, 2, 63, 0
3, 20160, Note_on_c, 2, 61, 50
3, 20439, Note_off_c, 2, 61, 0
3, 24900, Note_on_c, 2, 68, 44
3, 24939, Note_off_c, 2, 68, 0
3, 24960, Note_on_c, 2, 68, 45
3, 25200, Note_off_c, 2, 68, 0
3, 25200, Note_on_c, 2, 73, 47
3, 25239, Note_off_c, 2, 73, 0
3, 25380, Note_on_c, 2, 73, 48
3, 25419, Note_off_c, 2, 73, 0
3, 25440, Note_on_c, 2, 73, 49
3, 25680, Note_off_c, 2, 73, 0
3, 25680, Note_on_c, 2, 72, 51
3, 25719, Note_off_c, 2, 72, 0
3, 25860, Note_on_c, 2, 73, 52
3, 25899, Note_off_c, 2, 73, 0
3, 25920, Note_on_c, 2, 75, 53
3, 26160, Note_off_c, 2, 75, 0
3, 26160, Note_on_c, 2, 72, 55
3, 26199, Note_off_c, 2, 72, 0
3, 26340, Note_on_c, 2, 68, 57
3, 26379, Note_off_c, 2, 68, 0
3, 26400, Note_on_c, 2, 68, 57
3, 26640, Note_off_c, 2, 68, 0
3, 26640, Note_on_c, 2, 73, 59
3, 26679, Note_off_c, 2, 73, 0
3, 26820, Note_on_c, 2, 68, 55
3, 26859, Note_off_c, 2, 68, 0
3, 26880, Note_on_c, 2, 68, 55
3, 27120, Note_off_c, 2, 68, 0
3, 27120, Note_on_c, 2, 73, 53
3, 27159, Note_off_c, 2, 73, 0
3, 27300, Note_on_c, 2, 68, 52
3, 27339, Note_off_c, 2, 68, 0
3, 27360, Note_on_c, 2, 70, 52
3, 27600, Note_off_c, 2, 70, 0
3, 27600, Note_on_c, 2, 66, 50
3, 27639, Note_off_c, 2, 66, 0
3, 27780, Note_on_c, 2, 65, 49
3, 27819, Note_off_c, 2, 65, 0
3, 27840, Note_on_c, 2, 65, 49
3, 28080, Note_off_c, 2, 65, 0
3, 28080, Note_on_c, 2, 63, 46
3, 28119, Note_off_c, 2, 63, 0
3, 28260, Note_on_c, 2, 63, 44
3, 28299, Note_off_c, 2, 63, 0
3, 28320, Note_on_c, 2, 63, 49
3, 28680, Note_off_c, 2, 63, 0
3, 28680, Note_on_c, 2, 65, 69
3, 28800, Note_off_c, 2, 65, 0
3, 28800, Note_on_c, 2, 66, 78
3, 29040, Note_off_c, 2, 66, 0
3, 29040, Note_on_c, 2, 65, 64
3, 29136, Note_off_c, 2, 65, 0
3, 29220, Note_on_c, 2, 65, 53
3, 29259, Note_off_c, 2, 65, 0
3, 29280, Note_on_c, 2, 65, 48
3, 30588, Note_off_c, 2, 65, 0
3, 35040, Note_on_c, 2, 62, 46
3, 35520, Note_off_c, 2, 62, 0
3, 35520, Note_on_c, 2, 65, 50
3, 35760, Note_off_c, 2, 65, 0
3, 35760, Note_on_c, 2, 63, 52
3, 36240, Note_off_c, 2, 63, 0
3, 36240, Note_on_c, 2, 69, 61
3, 36480, Note_off_c, 2, 69, 0
3, 36480, Note_on_c, 2, 70, 58
3, 36480, Note_on_c, 2, 65, 58
3, 37200, Note_off_c, 2, 65, 0
3, 37200, Note_off_c, 2, 70, 0
3, 37200, Note_on_c, 2, 62, 55
3, 37200, Note_on_c, 2, 65, 55
3, 37680, Note_off_c, 2, 65, 0
3, 37680, Note_off_c, 2, 62, 0
3, 37680, Note_on_c, 2, 65, 53
3, 37920, Note_off_c, 2, 65, 0
3, 37920, Note_on_c, 2, 58, 52
3, 37920, Note_on_c, 2, 64, 52
3, 38400, Note_off_c, 2, 64, 0
3, 38400, Note_off_c, 2, 58, 0
3, 38640, Note_on_c, 2, 58, 49
3, 38640, Note_on_c, 2, 64, 49
3, 39120, Note_off_c, 2, 64, 0
3, 39120, Note_off_c, 2, 58, 0
3, 39360, Note_on_c, 2, 57, 48
3, 40080, Note_off_c, 2, 57, 0
3, 40080, Note_on_c, 2, 58, 64
3, 40080, Note_on_c, 2, 63, 64
3, 40800, Note_off_c, 2, 63, 0
3, 40800, Note_off_c, 2, 58, 0
3, 40800, Note_on_c, 2, 63, 76
3, 40800, Note_on_c, 2, 58, 76
3, 40956, Note_off_c, 2, 58, 0
3, 40956, Note_off_c, 2, 63, 0
3, 41040, Note_on_c, 2, 63, 77
3, 41040, Note_on_c, 2, 58, 77
3, 41196, Note_off_c, 2, 58, 0
3, 41196, Note_off_c, 2, 63, 0
3, 41280, Note_on_c, 2, 58, 78
3, 41280, Note_on_c, 2, 63, 78
3, 41436, Note_off_c, 2, 63, 0
3, 41436, Note_off_c, 2, 58, 0
3, 41520, Note_on_c, 2, 58, 79
3, 41520, Note_on_c, 2, 65, 79
3, 41676, Note_off_c, 2, 65, 0
3, 41676, Note_off_c, 2, 58, 0
3, 41760, Note_on_c, 2, 58, 80
3, 41760, Note_on_c, 2, 65, 80
3, 41916, Note_off_c, 2, 65, 0
3, 41916, Note_off_c, 2, 58, 0
3, 42000, Note_on_c, 2, 58, 81
3, 42000, Note_on_c, 2, 65, 81
3, 42156, Note_off_c, 2, 65, 0
3, 42156, Note_off_c, 2, 58, 0
3, 42240, Note_on_c, 2, 69, 82
3, 42240, Note_on_c, 2, 60, 82
3, 42240, Note_on_c, 2, 65, 82
3, 42396, Note_off_c, 2, 65, 0
3, 42396, Note_off_c, 2, 60, 0
3, 42396, Note_off_c, 2, 69, 0
3, 42480, Note_on_c, 2, 69, 83
3, 42480, Note_on_c, 2, 60, 83
3, 42480, Note_on_c, 2, 65, 83
3, 42636, Note_off_c, 2, 65, 0
3, 42636, Note_off_c, 2, 60, 0
3, 42636, Note_off_c, 2, 69, 0
3, 42720, Note_on_c, 2, 69, 84
3, 42720, Note_on_c, 2, 60, 84
3, 42720, Note_on_c, 2, 65, 84
3, 42876, Note_off_c, 2, 65, 0
3, 42876, Note_off_c, 2, 60, 0
3, 42876, Note_off_c, 2, 69, 0
3, 42960, Note_on_c, 2, 70, 85
3, 42960, Note_on_c, 2, 65, 85
3, 42960, Note_on_c, 2, 62, 85
3, 43440, Note_off_c, 2, 62, 0
3, 43440, Note_off_c, 2, 65, 0
3, 43440, Note_off_c, 2, 70, 0
3, 43440, Note_on_c, 2, 67, 91
3, 43596, Note_off_c, 2, 67, 0
3, 43680, Note_on_c, 2, 70, 89
3, 43680, Note_on_c, 2, 65, 89
3, 43836, Note_off_c, 2, 65, 0
3, 43836, Note_off_c, 2, 70, 0
3, 43920, Note_on_c, 2, 70, 87
3, 43920, Note_on_c, 2, 65, 87
3, 44076, Note_off_c, 2, 65, 0
3, 44076, Note_off_c, 2, 70, 0
3, 44160, Note_on_c, 2, 70, 85
3, 44160, Note_on_c, 2, 65, 85
3, 44316, Note_off_c, 2, 65, 0
3, 44316, Note_off_c, 2, 70, 0
3, 44400, Note_on_c, 2, 69, 83
3, 44400, Note_on_c, 2, 65, 83
3, 44556, Note_off_c, 2, 65, 0
3, 44556, Note_off_c, 2, 69, 0
3, 44640, Note_on_c, 2, 69, 81
3, 44640, Note_on_c, 2, 65, 81
3, 44796, Note_off_c, 2, 65, 0
3, 44796, Note_off_c, 2, 69, 0
3, 44880, Note_on_c, 2, 69, 79
3, 44880, Note_on_c, 2, 65, 79
3, 45036, Note_off_c, 2, 65, 0
3, 45036, Note_off_c, 2, 69, 0
3, 45120, Note_on_c, 2, 70, 84
3, 45120, Note_on_c, 2, 65, 84
3, 45840, Note_off_c, 2, 65, 0
3, 45840, Note_off_c, 2, 70, 0
3, 45840, Note_on_c, 2, 58, 68
3, 45840, Note_on_c, 2, 55, 68
3, 46560, Note_off_c, 2, 55, 0
3, 46560, Note_off_c, 2, 58, 0
3, 46560, Note_on_c, 2, 58, 63
3, 46560, Note_on_c, 2, 55, 63
3, 46716, Note_off_c, 2, 55, 0
3, 46716, Note_off_c, 2, 58, 0
3, 46800, Note_on_c, 2, 58, 62
3, 46800, Note_on_c, 2, 55, 62
3, 46956, Note_off_c, 2, 55, 0
3, 46956, Note_off_c, 2, 58, 0
3, 47040, Note_on_c, 2, 58, 60
3, 47040, Note_on_c, 2, 55, 60
3, 47196, Note_off_c, 2, 55, 0
3, 47196, Note_off_c, 2, 58, 0
3, 47280, Note_on_c, 2, 58, 58
3, 47280, Note_on_c, 2, 65, 58
3, 47436, Note_off_c, 2, 65, 0
3, 47436, Note_off_c, 2, 58, 0
3, 47520, Note_on_c, 2, 58, 57
3, 47520, Note_on_c, 2, 65, 57
3, 47676, Note_off_c, 2, 65, 0
3, 47676, Note_off_c, 2, 58, 0
3, 47760, Note_on_c, 2, 58, 55
3, 47760, Note_on_c, 2, 65, 55
3, 47916, Note_off_c, 2, 65, 0
3, 47916, Note_off_c, 2, 58, 0
3, 48000, Note_on_c, 2, 69, 53
3, 48000, Note_on_c, 2, 60, 53
3, 48000, Note_on_c, 2, 65, 53
3, 48156, Note_off_c, 2, 65, 0
3, 48156, Note_off_c, 2, 60, 0
3, 48156, Note_off_c, 2, 69, 0
3, 48240, Note_on_c, 2, 69, 52
3, 48240, Note_on_c, 2, 65, 52
3, 48240, Note_on_c, 2, 60, 52
3, 48396, Note_off_c, 2, 60, 0
3, 48396, Note_off_c, 2, 65, 0
3, 48396, Note_off_c, 2, 69, 0
3, 48480, Note_on_c, 2, 69, 50
3, 48480, Note_on_c, 2, 65, 50
3, 48480, Note_on_c, 2, 60, 50
3, 48636, Note_off_c, 2, 60, 0
3, 48636, Note_off_c, 2, 65, 0
3, 48636, Note_off_c, 2, 69, 0
3, 48720, Note_on_c, 2, 69, 48
3, 48720, Note_on_c, 2, 60, 48
3, 48720, Note_on_c, 2, 65, 48
3, 49200, Note_off_c, 2, 65, 0
3, 49200, Note_off_c, 2, 60, 0
3, 49200, Note_off_c, 2, 69, 0
3, 49200, Note_on_c, 2, 67, 52
3, 49356, Note_off_c, 2, 67, 0
3, 49440, Note_on_c, 2, 70, 49
3, 49440, Note_on_c, 2, 67, 49
3, 49596, Note_off_c, 2, 67, 0
3, 49596, Note_off_c, 2, 70, 0
3, 49680, Note_on_c, 2, 70, 47
3, 49680, Note_on_c, 2, 67, 47
3, 49836, Note_off_c, 2, 67, 0
3, 49836, Note_off_c, 2, 70, 0
3, 49920, Note_on_c, 2, 70, 45
3, 49920, Note_on_c, 2, 67, 45
3, 50076, Note_off_c, 2, 67, 0
3, 50076, Note_off_c, 2, 70, 0
3, 50160, Note_on_c, 2, 70, 44
3, 50160, Note_on_c, 2, 67, 44
3, 50316, Note_off_c, 2, 67, 0
3, 50316, Note_off_c, 2, 70, 0
3, 50400, Note_on_c, 2, 70, 42
3, 50400, Note_on_c, 2, 67, 42
3, 50556, Note_off_c, 2, 67, 0
3, 50556, Note_off_c, 2, 70, 0
3, 50640, Note_on_c, 2, 70, 40
3, 50640, Note_on_c, 2, 67, 40
3, 50796, Note_off_c, 2, 67, 0
3, 50796, Note_off_c, 2, 70, 0
3, 50880, Note_on_c, 2, 70, 39
3, 50880, Note_on_c, 2, 67, 39
3, 51036, Note_off_c, 2, 67, 0
3, 51036, Note_off_c, 2, 70, 0
3, 51120, Note_on_c, 2, 70, 37
3, 51120, Note_on_c, 2, 67, 37
3, 51276, Note_off_c, 2, 67, 0
3, 51276, Note_off_c, 2, 70, 0
3, 51360, Note_on_c, 2, 67, 35
3, 51360, Note_on_c, 2, 70, 35
3, 51516, Note_off_c, 2, 70, 0
3, 51516, Note_off_c, 2, 67, 0
3, 51600, Note_on_c, 2, 70, 34
3, 51600, Note_on_c, 2, 67, 34
3, 51756, Note_off_c, 2, 67, 0
3, 51756, Note_off_c, 2, 70, 0
3, 51840, Note_on_c, 2, 70, 32
3, 51840, Note_on_c, 2, 67, 32
3, 51996, Note_off_c, 2, 67, 0
3, 51996, Note_off_c, 2, 70, 0
3, 52080, Note_on_c, 2, 70, 28
3, 52080, Note_on_c, 2, 67, 28
3, 52236, Note_off_c, 2, 67, 0
3, 52236, Note_off_c, 2, 70, 0
3, 52320, Note_on_c, 2, 70, 25
3, 52320, Note_on_c, 2, 67, 25
3, 53040, Note_off_c, 2, 67, 0
3, 53040, Note_off_c, 2, 70, 0
3, 53040, Note_on_c, 2, 70, 30
3, 53040, Note_on_c, 2, 67, 30
3, 53760, Note_off_c, 2, 67, 0
3, 53760, Note_off_c, 2, 70, 0
3, 53760, Note_on_c, 2, 70, 33
3, 53760, Note_on_c, 2, 67, 33
3, 54480, Note_off_c, 2, 67, 0
3, 54480, Note_off_c, 2, 70, 0
3, 54480, Note_on_c, 2, 70, 36
3, 54480, Note_on_c, 2, 67, 36
3, 55200, Control_c, 2, 64, 127
3, 55200, Note_off_c, 2, 67, 0
3, 55200, Note_off_c, 2, 70, 0
3, 55200, Note_on_c, 2, 65, 41
3, 55260, Note_on_c, 2, 70, 39
3, 55860, Note_off_c, 2, 70, 0
3, 55860, Note_off_c, 2, 65, 0
3, 55920, Control_c, 2, 64, 0
3, 58800, Note_on_c, 2, 68, 31
3, 60240, Note_on_c, 2, 67, 35
3, 60247, Note_off_c, 2, 68, 0
3, 60960, Note_off_c, 2, 67, 0
3, 60960, Note_on_c, 2, 65, 28
3, 61440, Note_off_c, 2, 65, 0
3, 64560, Note_on_c, 2, 68, 32
3, 66000, Note_off_c, 2, 68, 0
3, 66000, Note_on_c, 2, 67, 38
3, 66720, Note_off_c, 2, 67, 0
3, 66720, Note_on_c, 2, 67, 32
3, 68160, Control_c, 2, 64, 127
3, 68160, Control_c, 2, 64, 127
3, 68160, Note_off_c, 2, 67, 0
3, 68160, Note_on_c, 2, 73, 95
3, 68160, Note_on_c, 2, 64, 95
3, 68160, Note_on_c, 2, 67, 95
3, 69600, Note_off_c, 2, 67, 0
3, 69600, Note_off_c, 2, 64, 0
3, 69600, Note_off_c, 2, 73, 0
3, 72960, Note_on_c, 2, 85, 85
3, 72960, Note_on_c, 2, 88, 85
3, 72960, Note_on_c, 2, 79, 85
3, 73440, Control_c, 2, 64, 0
3, 73680, Note_off_c, 2, 79, 0
3, 73680, Note_off_c, 2, 88, 0
3, 73680, Note_off_c, 2, 85, 0
3, 75540, Note_on_c, 2, 78, 80
3, 75540, Note_on_c, 2, 81, 80
3, 75540, Note_on_c, 2, 72, 80
3, 76260, Note_off_c, 2, 72, 0
3, 76260, Note_off_c, 2, 81, 0
3, 76260, Note_off_c, 2, 78, 0
3, 78180, Note_on_c, 2, 86, 94
3, 78180, Note_on_c, 2, 77, 94
3, 78180, Note_on_c, 2, 81, 94
3, 78900, Note_off_c, 2, 81, 0
3, 78900, Note_off_c, 2, 77, 0
3, 78900, Note_off_c, 2, 86, 0
3, 88560, Note_on_c, 2, 77, 86
3, 88560, Note_on_c, 2, 74, 86
3, 88800, Note_off_c, 2, 74, 0
3, 88800, Note_off_c, 2, 77, 0
3, 89040, Note_on_c, 2, 74, 87
3, 89040, Note_on_c, 2, 77, 87
3, 89280, Note_off_c, 2, 77, 0
3, 89280, Note_off_c, 2, 74, 0
3, 89520, Note_on_c, 2, 77, 89
3, 89520, Note_on_c, 2, 74, 89
3, 89760, Note_off_c, 2, 74, 0
3, 89760, Note_off_c, 2, 77, 0
3, 90000, Note_on_c, 2, 77, 91
3, 90000, Note_on_c, 2, 74, 91
3, 90240, Note_off_c, 2, 74, 0
3, 90240, Note_off_c, 2, 77, 0
3, 90480, Note_on_c, 2, 72, 90
3, 90480, Note_on_c, 2, 76, 90
3, 90720, Note_off_c, 2, 76, 0
3, 90720, Note_off_c, 2, 72, 0
3, 90960, Note_on_c, 2, 74, 84
3, 90960, Note_on_c, 2, 76, 84
3, 91200, Note_off_c, 2, 76, 0
3, 91200, Note_off_c, 2, 74, 0
3, 91200, Note_on_c, 2, 72, 78
3, 91200, Note_on_c, 2, 76, 78
3, 91680, Note_off_c, 2, 76, 0
3, 91680, Note_off_c, 2, 72, 0
3, 105840, Note_on_c, 2, 74, 88
3, 105840, Note_on_c, 2, 77, 88
3, 105996, Note_off_c, 2, 77, 0
3, 105996, Note_off_c, 2, 74, 0
3, 106320, Note_on_c, 2, 77, 90
3, 106320, Note_on_c, 2, 74, 90
3, 106476, Note_off_c, 2, 74, 0
3, 106476, Note_off_c, 2, 77, 0
3, 106800, Note_on_c, 2, 73, 92
3, 106800, Note_on_c, 2, 79, 92
3, 106956, Note_off_c, 2, 79, 0
3, 106956, Note_off_c, 2, 73, 0
3, 107280, Note_on_c, 2, 76, 94
3, 107280, Note_on_c, 2, 79, 94
3, 107436, Note_off_c, 2, 79, 0
3, 107436, Note_off_c, 2, 76, 0
3, 107760, Note_on_c, 2, 74, 96
3, 107760, Note_on_c, 2, 77, 96
3, 107916, Note_off_c, 2, 77, 0
3, 107916, Note_off_c, 2, 74, 0
3, 108240, Note_on_c, 2, 77, 93
3, 108240, Note_on_c, 2, 74, 93
3, 108396, Note_off_c, 2, 74, 0
3, 108396, Note_off_c, 2, 77, 0
3, 108720, Note_on_c, 2, 73, 91
3, 108720, Note_on_c, 2, 79, 91
3, 108876, Note_off_c, 2, 79, 0
3, 108876, Note_off_c, 2, 73, 0
3, 109200, Note_on_c, 2, 76, 88
3, 109200, Note_on_c, 2, 79, 88
3, 109356, Note_off_c, 2, 79, 0
3, 109356, Note_off_c, 2, 76, 0
3, 113520, Note_on_c, 2, 77, 81
3, 113520, Note_on_c, 2, 74, 81
3, 113676, Note_off_c, 2, 74, 0
3, 113676, Note_off_c, 2, 77, 0
3, 114000, Note_on_c, 2, 77, 83
3, 114000, Note_on_c, 2, 74, 83
3, 114156, Note_off_c, 2, 74, 0
3, 114156, Note_off_c, 2, 77, 0
3, 114480, Note_on_c, 2, 73, 85
3, 114480, Note_on_c, 2, 79, 85
3, 114636, Note_off_c, 2, 79, 0
3, 114636, Note_off_c, 2, 73, 0
3, 114960, Note_on_c, 2, 76, 87
3, 114960, Note_on_c, 2, 79, 87
3, 115116, Note_off_c, 2, 79, 0
3, 115116, Note_off_c, 2, 76, 0
3, 117360, Note_on_c, 2, 74, 73
3, 117360, Note_on_c, 2, 77, 73
3, 117516, Note_off_c, 2, 77, 0
3, 117516, Note_off_c, 2, 74, 0
3, 117840, Note_on_c, 2, 74, 75
3, 117840, Note_on_c, 2, 77, 75
3, 117996, Note_off_c, 2, 77, 0
3, 117996, Note_off_c, 2, 74, 0
3, 118320, Note_on_c, 2, 79, 78
3, 118320, Note_on_c, 2, 73, 78
3, 118476, Note_off_c, 2, 73, 0
3, 118476, Note_off_c, 2, 79, 0
3, 118800, Note_on_c, 2, 79, 80
3, 118956, Note_off_c, 2, 79, 0
3, 119280, Note_on_c, 2, 79, 80
3, 119436, Note_off_c, 2, 79, 0
3, 119760, Note_on_c, 2, 85, 76
3, 119760, Note_on_c, 2, 79, 76
3, 119916, Note_off_c, 2, 79, 0
3, 119916, Note_off_c, 2, 85, 0
3, 120240, Note_on_c, 2, 85, 72
3, 120240, Note_on_c, 2, 79, 72
3, 120396, Note_off_c, 2, 79, 0
3, 120396, Note_off_c, 2, 85, 0
3, 120720, Note_on_c, 2, 88, 66
3, 120720, Note_on_c, 2, 85, 66
3, 120876, Note_off_c, 2, 85, 0
3, 120876, Note_off_c, 2, 88, 0
3, 120960, Note_on_c, 2, 73, 76
3, 120960, Note_on_c, 2, 67, 76
3, 121920, Control_c, 2, 64, 127
3, 121920, Note_off_c, 2, 67, 0
3, 121920, Note_off_c, 2, 73, 0
3, 122160, Note_on_c, 2, 63, 43
3, 122200, Note_on_c, 2, 67, 43
3, 122240, Note_on_c, 2, 73, 43
3, 123600, Note_off_c, 2, 63, 0
3, 123640, Note_off_c, 2, 67, 0
3, 123680, Note_off_c, 2, 73, 0
3, 123720, Control_c, 2, 64, 0
3, 123840, Note_on_c, 2, 56, 40
3, 123840, Note_on_c, 2, 60, 40
3, 124320, Note_off_c, 2, 60, 0
3, 124320, Note_off_c, 2, 56, 0
3, 124560, Note_on_c, 2, 55, 47
3, 124560, Note_on_c, 2, 61, 47
3, 124800, Note_off_c, 2, 61, 0
3, 124800, Note_off_c, 2, 55, 0
3, 124800, Note_on_c, 2, 56, 42
3, 124800, Note_on_c, 2, 60, 42
3, 125280, Note_off_c, 2, 60, 0
3, 125280, Note_off_c, 2, 56, 0
3, 125520, Note_on_c, 2, 56, 49
3, 125520, Note_on_c, 2, 60, 49
3, 125760, Note_off_c, 2, 60, 0
3, 125760, Note_off_c, 2, 56, 0
3, 125760, Note_on_c, 2, 55, 45
3, 125760, Note_on_c, 2, 61, 45
3, 126240, Note_off_c, 2, 61, 0
3, 126240, Note_off_c, 2, 55, 0
3, 126480, Note_on_c, 2, 55, 51
3, 126480, Note_on_c, 2, 61, 51
3, 126720, Note_off_c, 2, 61, 0
3, 126720, Note_off_c, 2, 55, 0
3, 126720, Note_on_c, 2, 56, 45
3, 126720, Note_on_c, 2, 60, 45
3, 126876, Note_off_c, 2, 60, 0
3, 126960, Note_off_c, 2, 56, 0
3, 127200, Note_on_c, 2, 58, 40
3, 127356, Note_off_c, 2, 58, 0
3, 127680, Note_on_c, 2, 57, 32
3, 127680, Note_on_c, 2, 60, 32
3, 129120, Note_off_c, 2, 60, 0
3, 129120, Note_off_c, 2, 57, 0
3, 131520, Note_on_c, 2, 58, 28
3, 131520, Note_on_c, 2, 61, 28
3, 132000, Note_off_c, 2, 61, 0
3, 132000, Note_off_c, 2, 58, 0
3, 132240, Note_on_c, 2, 63, 35
3, 132240, Note_on_c, 2, 57, 35
3, 132480, Note_off_c, 2, 57, 0
3, 132480, Note_off_c, 2, 63, 0
3, 132480, Note_on_c, 2, 58, 31
3, 132480, Note_on_c, 2, 61, 31
3, 132960, Note_off_c, 2, 61, 0
3, 132960, Note_off_c, 2, 58, 0
3, 133200, Note_on_c, 2, 61, 38
3, 133200, Note_on_c, 2, 58, 38
3, 133440, Note_off_c, 2, 58, 0
3, 133440, Note_off_c, 2, 61, 0
3, 133440, Note_on_c, 2, 63, 33
3, 133440, Note_on_c, 2, 57, 33
3, 133920, Note_off_c, 2, 57, 0
3, 133920, Note_off_c, 2, 63, 0
3, 134160, Note_on_c, 2, 63, 40
3, 134160, Note_on_c, 2, 57, 40
3, 134400, Note_off_c, 2, 57, 0
3, 134400, Note_off_c, 2, 63, 0
3, 134400, Note_on_c, 2, 58, 35
3, 134400, Note_on_c, 2, 61, 35
3, 134640, Note_off_c, 2, 61, 0
3, 134645, Note_off_c, 2, 58, 0
3, 134880, Note_on_c, 2, 61, 31
3, 134880, Note_on_c, 2, 59, 31
3, 135120, Note_off_c, 2, 59, 0
3, 135120, Note_off_c, 2, 61, 0
3, 135360, Note_on_c, 2, 58, 32
3, 135360, Note_on_c, 2, 61, 32
3, 136080, Note_off_c, 2, 61, 0
3, 136080, Note_off_c, 2, 58, 0
3, 136080, Note_on_c, 2, 58, 26
3, 136080, Note_on_c, 2, 61, 26
3, 136080, Note_on_c, 2, 55, 26
3, 136236, Note_off_c, 2, 55, 0
3, 136236, Note_off_c, 2, 61, 0
3, 136236, Note_off_c, 2, 58, 0
3, 136320, Note_on_c, 2, 55, 21
3, 136320, Note_on_c, 2, 58, 21
3, 136320, Note_on_c, 2, 61, 21
3, 137040, Note_off_c, 2, 61, 0
3, 137040, Note_off_c, 2, 58, 0
3, 137047, Note_off_c, 2, 55, 0
3, 139920, Note_on_c, 2, 55, 107
3, 139920, Note_on_c, 2, 61, 107
3, 139920, Note_on_c, 2, 64, 107
3, 140076, Note_off_c, 2, 64, 0
3, 140076, Note_off_c, 2, 61, 0
3, 140076, Note_off_c, 2, 55, 0
3, 140160, Note_on_c, 2, 54, 95
3, 140160, Note_on_c, 2, 64, 95
3, 140160, Note_on_c, 2, 61, 95
3, 141600, Note_off_c, 2, 61, 0
3, 141600, Note_off_c, 2, 64, 0
3, 141600, Note_off_c, 2, 54, 0
3, 144720, Note_on_c, 2, 64, 106
3, 144720, Note_on_c, 2, 69, 106
3, 144720, Note_on_c, 2, 67, 106
3, 144876, Note_off_c, 2, 67, 0
3, 144876, Note_off_c, 2, 69, 0
3, 144876, Note_off_c, 2, 64, 0
3, 144960, Note_on_c, 2, 62, 96
3, 144960, Note_on_c, 2, 66, 96
3, 144960, Note_on_c, 2, 69, 96
3, 146400, Note_off_c, 2, 69, 0
3, 146400, Note_off_c, 2, 66, 0
3, 146400, Note_off_c, 2, 62, 0
3, 148800, Note_on_c, 2, 76, 107
3, 148956, Note_off_c, 2, 76, 0
3, 149040, Note_on_c, 2, 73, 109
3, 149196, Note_off_c, 2, 73, 0
3, 149280, Note_on_c, 2, 79, 111
3, 149436, Note_off_c, 2, 79, 0
3, 149520, Note_on_c, 2, 70, 120
3, 149520, Note_on_c, 2, 67, 120
3, 149520, Note_on_c, 2, 61, 120
3, 149676, Note_off_c, 2, 61, 0
3, 149676, Note_off_c, 2, 67, 0
3, 149676, Note_off_c, 2, 70, 0
3, 149760, Note_on_c, 2, 62, 115
3, 149760, Note_on_c, 2, 68, 115
3, 152640, Note_off_c, 2, 68, 0
3, 152640, Note_off_c, 2, 62, 0
3, 152880, Note_on_c, 2, 59, 47
3, 153036, Note_off_c, 2, 59, 0
3, 153120, Note_on_c, 2, 57, 47
3, 153600, Note_off_c, 2, 57, 0
3, 153840, Note_on_c, 2, 61, 50
3, 154320, Note_off_c, 2, 61, 0
3, 154560, Note_on_c, 2, 59, 52
3, 155040, Note_off_c, 2, 59, 0
3, 155280, Note_on_c, 2, 59, 54
3, 155760, Note_off_c, 2, 59, 0
3, 156000, Note_on_c, 2, 61, 57
3, 156480, Note_off_c, 2, 61, 0
3, 156720, Note_on_c, 2, 64, 59
3, 157200, Note_off_c, 2, 64, 0
3, 157440, Note_on_c, 2, 62, 61
3, 157920, Note_off_c, 2, 62, 0
3, 158160, Note_on_c, 2, 71, 64
3, 158640, Note_off_c, 2, 71, 0
3, 158880, Note_on_c, 2, 70, 66
3, 159360, Note_off_c, 2, 70, 0
3, 159600, Note_on_c, 2, 73, 68
3, 160080, Note_off_c, 2, 73, 0
3, 160320, Note_on_c, 2, 71, 71
3, 160800, Note_off_c, 2, 71, 0
3, 161040, Note_on_c, 2, 74, 73
3, 161040, Note_on_c, 2, 71, 73
3, 161520, Note_off_c, 2, 71, 0
3, 161520, Note_off_c, 2, 74, 0
3, 161760, Note_on_c, 2, 73, 75
3, 161760, Note_on_c, 2, 70, 75
3, 162240, Note_off_c, 2, 70, 0
3, 162240, Note_off_c, 2, 73, 0
3, 162480, Note_on_c, 2, 73, 78
3, 162480, Note_on_c, 2, 76, 78
3, 162960, Note_off_c, 2, 76, 0
3, 162960, Note_off_c, 2, 73, 0
3, 163200, Note_on_c, 2, 71, 80
3, 163200, Note_on_c, 2, 74, 80
3, 163680, Note_off_c, 2, 74, 0
3, 163680, Note_off_c, 2, 71, 0
3, 163920, Note_on_c, 2, 83, 82
3, 163920, Note_on_c, 2, 74, 82
3, 164400, Note_off_c, 2, 74, 0
3, 164400, Note_off_c, 2, 83, 0
3, 164640, Note_on_c, 2, 82, 85
3, 164640, Note_on_c, 2, 73, 85
3, 165120, Note_off_c, 2, 73, 0
3, 165120, Note_off_c, 2, 82, 0
3, 165360, Note_on_c, 2, 85, 87
3, 165360, Note_on_c, 2, 76, 87
3, 165840, Note_off_c, 2, 76, 0
3, 165840, Note_off_c, 2, 85, 0
3, 166080, Note_on_c, 2, 83, 89
3, 166080, Note_on_c, 2, 74, 89
3, 166560, Note_off_c, 2, 74, 0
3, 166560, Note_off_c, 2, 83, 0
3, 166800, Note_on_c, 2, 74, 92
3, 166800, Note_on_c, 2, 71, 92
3, 167280, Note_off_c, 2, 71, 0
3, 167280, Note_off_c, 2, 74, 0
3, 167520, Note_on_c, 2, 70, 94
3, 167520, Note_on_c, 2, 73, 94
3, 168000, Note_off_c, 2, 73, 0
3, 168000, Note_off_c, 2, 70, 0
3, 168240, Note_on_c, 2, 67, 104
3, 168240, Note_on_c, 2, 71, 104
3, 168720, Note_off_c, 2, 71, 0
3, 168720, Note_off_c, 2, 67, 0
3, 168960, Note_on_c, 2, 66, 99
3, 168960, Note_on_c, 2, 70, 99
3, 169440, Note_off_c, 2, 70, 0
3, 169440, Note_off_c, 2, 66, 0
3, 169680, Note_on_c, 2, 67, 111
3, 169680, Note_on_c, 2, 71, 111
3, 170160, Note_off_c, 2, 71, 0
3, 170160, Note_off_c, 2, 67, 0
3, 170400, Note_on_c, 2, 66, 105
3, 170400, Note_on_c, 2, 70, 105
3, 170880, Note_off_c, 2, 70, 0
3, 170880, Note_off_c, 2, 66, 0
3, 171120, Note_on_c, 2, 67, 116
3, 171120, Note_on_c, 2, 71, 116
3, 171600, Note_off_c, 2, 71, 0
3, 171600, Note_off_c, 2, 67, 0
3, 171840, Note_on_c, 2, 66, 110
3, 171840, Note_on_c, 2, 70, 110
3, 172320, Note_off_c, 2, 70, 0
3, 172320, Note_off_c, 2, 66, 0
3, 172560, Note_on_c, 2, 67, 120
3, 172560, Note_on_c, 2, 71, 120
3, 173040, Note_off_c, 2, 71, 0
3, 173040, Note_off_c, 2, 67, 0
3, 173280, Note_on_c, 2, 66, 123
3, 173280, Note_on_c, 2, 70, 123
3, 173760, Note_off_c, 2, 70, 0
3, 173760, Note_off_c, 2, 66, 0
3, 182640, Control_c, 2, 64, 0
3, 182680, Control_c, 2, 64, 127
3, 183360, Control_c, 2, 64, 0
3, 183400, Control_c, 2, 64, 127
3, 184080, Control_c, 2, 64, 0
3, 184120, Control_c, 2, 64, 127
3, 184800, Control_c, 2, 64, 0
3, 184840, Control_c, 2, 64, 127
3, 185520, Control_c, 2, 64, 0
3, 185560, Control_c, 2, 64, 127
3, 186240, Control_c, 2, 64, 0
3, 186280, Control_c, 2, 64, 127
3, 186960, Control_c, 2, 64, 0
3, 187000, Control_c, 2, 64, 127
3, 187680, Control_c, 2, 64, 0
3, 187720, Control_c, 2, 64, 127
3, 188400, Control_c, 2, 64, 0
3, 188440, Control_c, 2, 64, 127
3, 189120, Control_c, 2, 64, 0
3, 189160, Control_c, 2, 64, 127
3, 189840, Control_c, 2, 64, 0
3, 194160, Control_c, 2, 64, 0
3, 194200, Control_c, 2, 64, 127
3, 194880, Control_c, 2, 64, 0
3, 194920, Control_c, 2, 64, 127
3, 195600, Control_c, 2, 64, 0
3, 195640, Control_c, 2, 64, 127
3, 196320, Control_c, 2, 64, 0
3, 196360, Control_c, 2, 64, 127
3, 197760, Control_c, 2, 64, 0
3, 197800, Control_c, 2, 64, 127
3, 198480, Control_c, 2, 64, 0
3, 198520, Control_c, 2, 64, 127
3, 199200, Control_c, 2, 64, 0
3, 199240, Control_c, 2, 64, 127
3, 199920, Control_c, 2, 64, 0
3, 199960, Control_c, 2, 64, 127
3, 200640, Control_c, 2, 64, 0
3, 200680, Control_c, 2, 64, 127
3, 201360, Control_c, 2, 64, 0
3, 205680, Control_c, 2, 64, 0
3, 205720, Control_c, 2, 64, 127
3, 206400, Control_c, 2, 64, 0
3, 206440, Control_c, 2, 64, 127
3, 207120, Control_c, 2, 64, 0
3, 207160, Control_c, 2, 64, 127
3, 207840, Control_c, 2, 64, 0
3, 207880, Control_c, 2, 64, 127
3, 208560, Control_c, 2, 64, 0
3, 208600, Control_c, 2, 64, 127
3, 209280, Control_c, 2, 64, 0
3, 209320, Control_c, 2, 64, 127
3, 210000, Control_c, 2, 64, 0
3, 210040, Control_c, 2, 64, 127
3, 210720, Control_c, 2, 64, 0
3, 210760, Control_c, 2, 64, 127
3, 211440, Control_c, 2, 64, 0
3, 211480, Control_c, 2, 64, 127
3, 212160, Control_c, 2, 64, 0
3, 212220, Control_c, 2, 64, 127
3, 216480, Control_c, 2, 64, 0
3, 223680, Control_c, 2, 64, 127
3, 223680, Note_on_c, 2, 78, 123
3, 223680, Note_on_c, 2, 85, 123
3, 223836, Note_off_c, 2, 85, 0
3, 223836, Note_off_c, 2, 78, 0
3, 224160, Control_c, 2, 64, 0
3, 224640, Control_c, 2, 64, 0
3, 226320, Note_on_c, 2, 61, 46
3, 226320, Note_on_c, 2, 64, 46
3, 226560, Note_off_c, 2, 64, 0
3, 226560, Note_off_c, 2, 61, 0
3, 226560, Note_on_c, 2, 60, 41
3, 226560, Note_on_c, 2, 63, 41
3, 227040, Note_off_c, 2, 63, 0
3, 227040, Note_off_c, 2, 60, 0
3, 227280, Note_on_c, 2, 60, 50
3, 227280, Note_on_c, 2, 63, 50
3, 227520, Note_off_c, 2, 63, 0
3, 227520, Note_off_c, 2, 60, 0
3, 227520, Note_on_c, 2, 64, 45
3, 227520, Note_on_c, 2, 61, 45
3, 228000, Note_off_c, 2, 61, 0
3, 228000, Note_off_c, 2, 64, 0
3, 228240, Note_on_c, 2, 60, 54
3, 228240, Note_on_c, 2, 64, 54
3, 228480, Note_off_c, 2, 64, 0
3, 228480, Note_off_c, 2, 60, 0
3, 228480, Note_on_c, 2, 67, 49
3, 228480, Note_on_c, 2, 61, 49
3, 228960, Note_off_c, 2, 61, 0
3, 228960, Note_off_c, 2, 67, 0
3, 229200, Note_on_c, 2, 67, 58
3, 229200, Note_on_c, 2, 61, 58
3, 229440, Note_off_c, 2, 61, 0
3, 229440, Note_off_c, 2, 67, 0
3, 229440, Note_on_c, 2, 67, 53
3, 229440, Note_on_c, 2, 64, 53
3, 229920, Note_off_c, 2, 64, 0
3, 229920, Note_off_c, 2, 67, 0
3, 230160, Note_on_c, 2, 67, 61
3, 230160, Note_on_c, 2, 64, 61
3, 230640, Note_off_c, 2, 64, 0
3, 230640, Note_off_c, 2, 67, 0
3, 230640, Note_on_c, 2, 66, 66
3, 230640, Note_on_c, 2, 64, 66
3, 231360, Note_off_c, 2, 64, 0
3, 231360, Note_off_c, 2, 66, 0
3, 231360, Note_on_c, 2, 66, 44
3, 231360, Note_on_c, 2, 63, 44
3, 231552, Note_off_c, 2, 63, 0
3, 231552, Note_off_c, 2, 66, 0
3, 231600, Note_on_c, 2, 66, 45
3, 231600, Note_on_c, 2, 63, 45
3, 231792, Note_off_c, 2, 63, 0
3, 231792, Note_off_c, 2, 66, 0
3, 231840, Note_on_c, 2, 66, 45
3, 231840, Note_on_c, 2, 63, 45
3, 232032, Note_off_c, 2, 63, 0
3, 232032, Note_off_c, 2, 66, 0
3, 232080, Note_on_c, 2, 66, 46
3, 232080, Note_on_c, 2, 63, 46
3, 232320, Note_off_c, 2, 63, 0
3, 232320, Note_off_c, 2, 66, 0
3, 232320, Note_on_c, 2, 66, 47
3, 232320, Note_on_c, 2, 64, 47
3, 232512, Note_off_c, 2, 64, 0
3, 232512, Note_off_c, 2, 66, 0
3, 232560, Note_on_c, 2, 66, 48
3, 232560, Note_on_c, 2, 64, 48
3, 232752, Note_off_c, 2, 64, 0
3, 232752, Note_off_c, 2, 66, 0
3, 232800, Note_on_c, 2, 66, 49
3, 232800, Note_on_c, 2, 64, 49
3, 233040, Note_off_c, 2, 64, 0
3, 233040, Note_off_c, 2, 66, 0
3, 233040, Note_on_c, 2, 66, 49
3, 233040, Note_on_c, 2, 63, 49
3, 233232, Note_off_c, 2, 63, 0
3, 233232, Note_off_c, 2, 66, 0
3, 233280, Note_on_c, 2, 66, 50
3, 233280, Note_on_c, 2, 63, 50
3, 233520, Note_off_c, 2, 63, 0
3, 233520, Note_off_c, 2, 66, 0
3, 233520, Note_on_c, 2, 68, 51
3, 233520, Note_on_c, 2, 64, 51
3, 233712, Note_off_c, 2, 64, 0
3, 233712, Note_off_c, 2, 68, 0
3, 233760, Note_on_c, 2, 68, 52
3, 233760, Note_on_c, 2, 64, 52
3, 234000, Note_off_c, 2, 64, 0
3, 234000, Note_off_c, 2, 68, 0
3, 234000, Note_on_c, 2, 73, 53
3, 234000, Note_on_c, 2, 68, 53
3, 234000, Note_on_c, 2, 64, 53
3, 234192, Note_off_c, 2, 64, 0
3, 234192, Note_off_c, 2, 68, 0
3, 234192, Note_off_c, 2, 73, 0
3, 234240, Note_on_c, 2, 73, 55
3, 234240, Note_on_c, 2, 64, 55
3, 234240, Note_on_c, 2, 68, 55
3, 234480, Note_off_c, 2, 68, 0
3, 234480, Note_off_c, 2, 64, 0
3, 234480, Note_off_c, 2, 73, 0
3, 234480, Note_on_c, 2, 70, 52
3, 234480, Note_on_c, 2, 64, 52
3, 234672, Note_off_c, 2, 64, 0
3, 234672, Note_off_c, 2, 70, 0
3, 234720, Note_on_c, 2, 70, 49
3, 234720, Note_on_c, 2, 64, 49
3, 234912, Note_off_c, 2, 64, 0
3, 234912, Note_off_c, 2, 70, 0
3, 235200, Note_on_c, 2, 63, 44
3, 235200, Note_on_c, 2, 66, 44
3, 235392, Note_off_c, 2, 66, 0
3, 235392, Note_off_c, 2, 63, 0
3, 235440, Note_on_c, 2, 63, 45
3, 235440, Note_on_c, 2, 66, 45
3, 235632, Note_off_c, 2, 66, 0
3, 235632, Note_off_c, 2, 63, 0
3, 235680, Note_on_c, 2, 63, 46
3, 235680, Note_on_c, 2, 66, 46
3, 235872, Note_off_c, 2, 66, 0
3, 235872, Note_off_c, 2, 63, 0
3, 235920, Note_on_c, 2, 63, 47
3, 235920, Note_on_c, 2, 66, 47
3, 236160, Note_off_c, 2, 66, 0
3, 236160, Note_off_c, 2, 63, 0
3, 236160, Note_on_c, 2, 66, 48
3, 236160, Note_on_c, 2, 64, 48
3, 236352, Note_off_c, 2, 64, 0
3, 236352, Note_off_c, 2, 66, 0
3, 236400, Note_on_c, 2, 66, 49
3, 236400, Note_on_c, 2, 64, 49
3, 236592, Note_off_c, 2, 64, 0
3, 236592, Note_off_c, 2, 66, 0
3, 236640, Note_on_c, 2, 64, 51
3, 236640, Note_on_c, 2, 66, 51
3, 236880, Note_off_c, 2, 66, 0
3, 236880, Note_off_c, 2, 64, 0
3, 236880, Note_on_c, 2, 63, 52
3, 236880, Note_on_c, 2, 66, 52
3, 237072, Note_off_c, 2, 66, 0
3, 237072, Note_off_c, 2, 63, 0
3, 237120, Note_on_c, 2, 66, 53
3, 237120, Note_on_c, 2, 63, 53
3, 237360, Note_off_c, 2, 63, 0
3, 237360, Note_off_c, 2, 66, 0
3, 237360, Note_on_c, 2, 68, 54
3, 237360, Note_on_c, 2, 64, 54
3, 237552, Note_off_c, 2, 64, 0
3, 237552, Note_off_c, 2, 68, 0
3, 237600, Note_on_c, 2, 68, 55
3, 237600, Note_on_c, 2, 64, 55
3, 237840, Note_off_c, 2, 64, 0
3, 237840, Note_off_c, 2, 68, 0
3, 237840, Note_on_c, 2, 73, 56
3, 237840, Note_on_c, 2, 68, 56
3, 237840, Note_on_c, 2, 64, 56
3, 238032, Note_off_c, 2, 64, 0
3, 238032, Note_off_c, 2, 68, 0
3, 238032, Note_off_c, 2, 73, 0
3, 238080, Note_on_c, 2, 70, 57
3, 238080, Note_on_c, 2, 73, 57
3, 238080, Note_on_c, 2, 64, 57
3, 238320, Note_off_c, 2, 64, 0
3, 238320, Note_off_c, 2, 73, 0
3, 238320, Note_off_c, 2, 70, 0
3, 238320, Note_on_c, 2, 66, 54
3, 238320, Note_on_c, 2, 64, 54
3, 238512, Note_off_c, 2, 64, 0
3, 238512, Note_off_c, 2, 66, 0
3, 238560, Note_on_c, 2, 66, 51
3, 238560, Note_on_c, 2, 63, 51
3, 238920, Note_off_c, 2, 63, 0
3, 238920, Note_off_c, 2, 66, 0
3, 266340, Note_on_c, 2, 71, 62
3, 266400, Note_off_c, 2, 71, 0
3, 266400, Note_on_c, 2, 73, 63
3, 266520, Note_off_c, 2, 73, 0
3, 266520, Note_on_c, 2, 71, 63
3, 266640, Note_off_c, 2, 71, 0
3, 266640, Note_on_c, 2, 70, 64
3, 266760, Note_off_c, 2, 70, 0
3, 266760, Note_on_c, 2, 71, 65
3, 266880, Note_off_c, 2, 71, 0
3, 267300, Note_on_c, 2, 73, 68
3, 267360, Note_off_c, 2, 73, 0
3, 267360, Note_on_c, 2, 75, 68
3, 267480, Note_off_c, 2, 75, 0
3, 267480, Note_on_c, 2, 73, 69
3, 267600, Note_off_c, 2, 73, 0
3, 267600, Note_on_c, 2, 76, 70
3, 267720, Note_off_c, 2, 76, 0
3, 267720, Note_on_c, 2, 75, 71
3, 267840, Note_off_c, 2, 75, 0
3, 268260, Note_on_c, 2, 71, 74
3, 268320, Note_off_c, 2, 71, 0
3, 268320, Note_on_c, 2, 73, 74
3, 268440, Note_off_c, 2, 73, 0
3, 268440, Note_on_c, 2, 71, 75
3, 268560, Note_off_c, 2, 71, 0
3, 268560, Note_on_c, 2, 78, 76
3, 268680, Note_off_c, 2, 78, 0
3, 268680, Note_on_c, 2, 76, 76
3, 268800, Note_off_c, 2, 76, 0
3, 269220, Note_on_c, 2, 73, 69
3, 269280, Note_off_c, 2, 73, 0
3, 269280, Note_on_c, 2, 75, 67
3, 269400, Note_off_c, 2, 75, 0
3, 269400, Note_on_c, 2, 70, 65
3, 269520, Note_off_c, 2, 70, 0
3, 269520, Note_on_c, 2, 73, 63
3, 269640, Note_off_c, 2, 73, 0
3, 269640, Note_on_c, 2, 71, 57
3, 269760, Note_off_c, 2, 71, 0
3, 277480, Note_on_c, 2, 66, 42
3, 277520, Note_off_c, 2, 66, 0
3, 277560, Note_on_c, 2, 66, 42
3, 277600, Note_off_c, 2, 66, 0
3, 277640, Note_on_c, 2, 66, 42
3, 277680, Note_off_c, 2, 66, 0
3, 277720, Note_on_c, 2, 66, 43
3, 277760, Note_off_c, 2, 66, 0
3, 277800, Note_on_c, 2, 66, 43
3, 277840, Note_off_c, 2, 66, 0
3, 277880, Note_on_c, 2, 66, 43
3, 277920, Note_off_c, 2, 66, 0
3, 277960, Note_on_c, 2, 66, 43
3, 278000, Note_off_c, 2, 66, 0
3, 278040, Note_on_c, 2, 66, 44
3, 278080, Note_off_c, 2, 66, 0
3, 278120, Note_on_c, 2, 66, 44
3, 278160, Note_off_c, 2, 66, 0
3, 278160, Note_on_c, 2, 67, 54
3, 278200, Note_off_c, 2, 67, 0
3, 278240, Note_on_c, 2, 67, 44
3, 278280, Note_off_c, 2, 67, 0
3, 278280, Note_on_c, 2, 66, 45
3, 278320, Note_off_c, 2, 66, 0
3, 278360, Note_on_c, 2, 66, 45
3, 278400, Note_off_c, 2, 66, 0
3, 278440, Note_on_c, 2, 66, 45
3, 278480, Note_off_c, 2, 66, 0
3, 278520, Note_on_c, 2, 66, 45
3, 278560, Note_off_c, 2, 66, 0
3, 278600, Note_on_c, 2, 66, 46
3, 278640, Note_off_c, 2, 66, 0
3, 278680, Note_on_c, 2, 66, 46
3, 278720, Note_off_c, 2, 66, 0
3, 278760, Note_on_c, 2, 66, 46
3, 278800, Note_off_c, 2, 66, 0
3, 278840, Note_on_c, 2, 66, 46
3, 278880, Note_off_c, 2, 66, 0
3, 278920, Note_on_c, 2, 66, 47
3, 278960, Note_off_c, 2, 66, 0
3, 279000, Note_on_c, 2, 66, 47
3, 279040, Note_off_c, 2, 66, 0
3, 279080, Note_on_c, 2, 66, 47
3, 279120, Note_off_c, 2, 66, 0
3, 279120, Note_on_c, 2, 67, 57
3, 279160, Note_off_c, 2, 67, 0
3, 279200, Note_on_c, 2, 67, 48
3, 279240, Note_off_c, 2, 67, 0
3, 279240, Note_on_c, 2, 66, 48
3, 279280, Note_off_c, 2, 66, 0
3, 279320, Note_on_c, 2, 66, 48
3, 279360, Note_off_c, 2, 66, 0
3, 279400, Note_on_c, 2, 66, 48
3, 279440, Note_off_c, 2, 66, 0
3, 279480, Note_on_c, 2, 66, 49
3, 279520, Note_off_c, 2, 66, 0
3, 279560, Note_on_c, 2, 66, 49
3, 279600, Note_off_c, 2, 66, 0
3, 279640, Note_on_c, 2, 69, 49
3, 279680, Note_off_c, 2, 69, 0
3, 279720, Note_on_c, 2, 69, 50
3, 279760, Note_off_c, 2, 69, 0
3, 279800, Note_on_c, 2, 69, 50
3, 279840, Note_off_c, 2, 69, 0
3, 279880, Note_on_c, 2, 69, 50
3, 279920, Note_off_c, 2, 69, 0
3, 279960, Note_on_c, 2, 69, 50
3, 280000, Note_off_c, 2, 69, 0
3, 280040, Note_on_c, 2, 69, 51
3, 280080, Note_off_c, 2, 69, 0
3, 280120, Note_on_c, 2, 68, 51
3, 280160, Note_off_c, 2, 68, 0
3, 280200, Note_on_c, 2, 68, 51
3, 280240, Note_off_c, 2, 68, 0
3, 280280, Note_on_c, 2, 68, 51
3, 280320, Note_off_c, 2, 68, 0
3, 280360, Note_on_c, 2, 68, 53
3, 280400, Note_off_c, 2, 68, 0
3, 280440, Note_on_c, 2, 68, 52
3, 280480, Note_off_c, 2, 68, 0
3, 280520, Note_on_c, 2, 68, 51
3, 280560, Note_off_c, 2, 68, 0
3, 280600, Note_on_c, 2, 67, 51
3, 280640, Note_off_c, 2, 67, 0
3, 280680, Note_on_c, 2, 67, 50
3, 280720, Note_off_c, 2, 67, 0
3, 280760, Note_on_c, 2, 67, 49
3, 280800, Note_off_c, 2, 67, 0
3, 280840, Note_on_c, 2, 66, 48
3, 280880, Note_off_c, 2, 66, 0
3, 280920, Note_on_c, 2, 66, 47
3, 280960, Note_off_c, 2, 66, 0
3, 281000, Note_on_c, 2, 66, 46
3, 281040, Note_off_c, 2, 66, 0
3, 281080, Note_on_c, 2, 66, 46
3, 281120, Note_off_c, 2, 66, 0
3, 281160, Note_on_c, 2, 66, 45
3, 281200, Note_off_c, 2, 66, 0
3, 281240, Note_on_c, 2, 66, 44
3, 281280, Note_off_c, 2, 66, 0
3, 281320, Note_on_c, 2, 66, 44
3, 281360, Note_off_c, 2, 66, 0
3, 281400, Note_on_c, 2, 66, 44
3, 281440, Note_off_c, 2, 66, 0
3, 281480, Note_on_c, 2, 66, 45
3, 281520, Note_off_c, 2, 66, 0
3, 281560, Note_on_c, 2, 66, 46
3, 281600, Note_off_c, 2, 66, 0
3, 281640, Note_on_c, 2, 66, 46
3, 281680, Note_off_c, 2, 66, 0
3, 281720, Note_on_c, 2, 66, 47
3, 281760, Note_off_c, 2, 66, 0
3, 281800, Note_on_c, 2, 66, 47
3, 281840, Note_off_c, 2, 66, 0
3, 281880, Note_on_c, 2, 66, 48
3, 281920, Note_off_c, 2, 66, 0
3, 281960, Note_on_c, 2, 66, 49
3, 282000, Note_off_c, 2, 66, 0
3, 282000, Note_on_c, 2, 67, 59
3, 282040, Note_off_c, 2, 67, 0
3, 282080, Note_on_c, 2, 67, 49
3, 282120, Note_off_c, 2, 67, 0
3, 282120, Note_on_c, 2, 66, 50
3, 282160, Note_off_c, 2, 66, 0
3, 282200, Note_on_c, 2, 66, 50
3, 282240, Note_off_c, 2, 66, 0
3, 282280, Note_on_c, 2, 66, 51
3, 282320, Note_off_c, 2, 66, 0
3, 282360, Note_on_c, 2, 66, 52
3, 282400, Note_off_c, 2, 66, 0
3, 282440, Note_on_c, 2, 66, 52
3, 282480, Note_off_c, 2, 66, 0
3, 282520, Note_on_c, 2, 66, 53
3, 282560, Note_off_c, 2, 66, 0
3, 282600, Note_on_c, 2, 66, 53
3, 282640, Note_off_c, 2, 66, 0
3, 282680, Note_on_c, 2, 66, 54
3, 282720, Note_off_c, 2, 66, 0
3, 282760, Note_on_c, 2, 66, 55
3, 282800, Note_off_c, 2, 66, 0
3, 282840, Note_on_c, 2, 66, 55
3, 282880, Note_off_c, 2, 66, 0
3, 282920, Note_on_c, 2, 66, 56
3, 282960, Note_off_c, 2, 66, 0
3, 282960, Note_on_c, 2, 67, 66
3, 283000, Note_off_c, 2, 67, 0
3, 283040, Note_on_c, 2, 67, 57
3, 283080, Note_off_c, 2, 67, 0
3, 283080, Note_on_c, 2, 66, 57
3, 283120, Note_off_c, 2, 66, 0
3, 283160, Note_on_c, 2, 66, 58
3, 283200, Note_off_c, 2, 66, 0
3, 283240, Note_on_c, 2, 66, 58
3, 283280, Note_off_c, 2, 66, 0
3, 283320, Note_on_c, 2, 66, 59
3, 283360, Note_off_c, 2, 66, 0
3, 283400, Note_on_c, 2, 66, 59
3, 283440, Note_off_c, 2, 66, 0
3, 283480, Note_on_c, 2, 69, 60
3, 283520, Note_off_c, 2, 69, 0
3, 283560, Note_on_c, 2, 69, 61
3, 283600, Note_off_c, 2, 69, 0
3, 283640, Note_on_c, 2, 69, 61
3, 283680, Note_off_c, 2, 69, 0
3, 283720, Note_on_c, 2, 69, 62
3, 283760, Note_off_c, 2, 69, 0
3, 283800, Note_on_c, 2, 69, 62
3, 283840, Note_off_c, 2, 69, 0
3, 283880, Note_on_c, 2, 69, 63
3, 283920, Note_off_c, 2, 69, 0
3, 283960, Note_on_c, 2, 68, 64
3, 284000, Note_off_c, 2, 68, 0
3, 284040, Note_on_c, 2, 68, 64
3, 284080, Note_off_c, 2, 68, 0
3, 284120, Note_on_c, 2, 68, 65
3, 284160, Note_off_c, 2, 68, 0
3, 284200, Note_on_c, 2, 68, 63
3, 284240, Note_off_c, 2, 68, 0
3, 284280, Note_on_c, 2, 68, 62
3, 284320, Note_off_c, 2, 68, 0
3, 284360, Note_on_c, 2, 68, 61
3, 284400, Note_off_c, 2, 68, 0
3, 284440, Note_on_c, 2, 70, 60
3, 284480, Note_off_c, 2, 70, 0
3, 284520, Note_on_c, 2, 70, 59
3, 284560, Note_off_c, 2, 70, 0
3, 284600, Note_on_c, 2, 70, 58
3, 284640, Note_off_c, 2, 70, 0
3, 284680, Note_on_c, 2, 71, 57
3, 284720, Note_off_c, 2, 71, 0
3, 284800, Note_on_c, 2, 75, 56
3, 284840, Note_off_c, 2, 75, 0
3, 284880, Control_c, 2, 64, 0
3, 284920, Control_c, 2, 64, 127
3, 284920, Note_on_c, 2, 78, 54
3, 284960, Note_off_c, 2, 78, 0
3, 284960, Note_on_c, 2, 76, 54
3, 285000, Note_off_c, 2, 76, 0
3, 285000, Note_on_c, 2, 75, 53
3, 285040, Note_off_c, 2, 75, 0
3, 285040, Note_on_c, 2, 76, 53
3, 285080, Note_off_c, 2, 76, 0
3, 285080, Note_on_c, 2, 73, 52
3, 285120, Control_c, 2, 64, 0
3, 285120, Note_off_c, 2, 73, 0
3, 285120, Note_on_c, 2, 71, 52
3, 285276, Note_off_c, 2, 71, 0
3, 285360, Note_on_c, 2, 71, 52
3, 285516, Note_off_c, 2, 71, 0
3, 285600, Note_on_c, 2, 71, 53
3, 285756, Note_off_c, 2, 71, 0
3, 285840, Note_on_c, 2, 71, 53
3, 285996, Note_off_c, 2, 71, 0
3, 286080, Note_on_c, 2, 71, 54
3, 286236, Note_off_c, 2, 71, 0
3, 286320, Note_on_c, 2, 71, 54
3, 286476, Note_off_c, 2, 71, 0
3, 286560, Note_on_c, 2, 70, 55
3, 286716, Note_off_c, 2, 70, 0
3, 286800, Note_on_c, 2, 71, 55
3, 286956, Note_off_c, 2, 71, 0
3, 287040, Note_on_c, 2, 73, 56
3, 287196, Note_off_c, 2, 73, 0
3, 287280, Note_on_c, 2, 73, 57
3, 287436, Note_off_c, 2, 73, 0
3, 287520, Note_on_c, 2, 73, 57
3, 287676, Note_off_c, 2, 73, 0
3, 287760, Note_on_c, 2, 73, 58
3, 287916, Note_off_c, 2, 73, 0
3, 288000, Note_on_c, 2, 73, 58
3, 288156, Note_off_c, 2, 73, 0
3, 288240, Note_on_c, 2, 73, 59
3, 288396, Note_off_c, 2, 73, 0
3, 288480, Note_on_c, 2, 75, 59
3, 288636, Note_off_c, 2, 75, 0
3, 288720, Note_on_c, 2, 75, 60
3, 288876, Note_off_c, 2, 75, 0
3, 288960, Note_on_c, 2, 75, 61
3, 289116, Note_off_c, 2, 75, 0
3, 289200, Note_on_c, 2, 75, 61
3, 289356, Note_off_c, 2, 75, 0
3, 289440, Note_on_c, 2, 71, 62
3, 289596, Note_off_c, 2, 71, 0
3, 289680, Note_on_c, 2, 71, 62
3, 289836, Note_off_c, 2, 71, 0
3, 289920, Note_on_c, 2, 71, 63
3, 290076, Note_off_c, 2, 71, 0
3, 290160, Note_on_c, 2, 71, 63
3, 290316, Note_off_c, 2, 71, 0
3, 290400, Note_on_c, 2, 76, 64
3, 290556, Note_off_c, 2, 76, 0
3, 290640, Note_on_c, 2, 76, 65
3, 290796, Note_off_c, 2, 76, 0
3, 290880, Note_on_c, 2, 76, 65
3, 291036, Note_off_c, 2, 76, 0
3, 291120, Note_on_c, 2, 76, 64
3, 291276, Note_off_c, 2, 76, 0
3, 291360, Note_on_c, 2, 73, 63
3, 291516, Note_off_c, 2, 73, 0
3, 291600, Note_on_c, 2, 73, 62
3, 291756, Note_off_c, 2, 73, 0
3, 291840, Note_on_c, 2, 73, 61
3, 291996, Note_off_c, 2, 73, 0
3, 292080, Note_on_c, 2, 78, 59
3, 292236, Note_off_c, 2, 78, 0
3, 292320, Note_on_c, 2, 78, 58
3, 292476, Note_off_c, 2, 78, 0
3, 292560, Note_on_c, 2, 78, 57
3, 292716, Note_off_c, 2, 78, 0
3, 292800, Note_on_c, 2, 78, 56
3, 292956, Note_off_c, 2, 78, 0
3, 293040, Note_on_c, 2, 83, 56
3, 293196, Note_off_c, 2, 83, 0
3, 293280, Note_on_c, 2, 83, 57
3, 293436, Note_off_c, 2, 83, 0
3, 293520, Note_on_c, 2, 83, 58
3, 293676, Note_off_c, 2, 83, 0
3, 293760, Note_on_c, 2, 83, 58
3, 293916, Note_off_c, 2, 83, 0
3, 294000, Note_on_c, 2, 83, 59
3, 294156, Note_off_c, 2, 83, 0
3, 294240, Note_on_c, 2, 82, 60
3, 294396, Note_off_c, 2, 82, 0
3, 294480, Note_on_c, 2, 83, 61
3, 294636, Note_off_c, 2, 83, 0
3, 294720, Note_on_c, 2, 85, 61
3, 294876, Note_off_c, 2, 85, 0
3, 294960, Note_on_c, 2, 85, 62
3, 295116, Note_off_c, 2, 85, 0
3, 295200, Note_on_c, 2, 85, 63
3, 295356, Note_off_c, 2, 85, 0
3, 295440, Note_on_c, 2, 85, 64
3, 295596, Note_off_c, 2, 85, 0
3, 295680, Note_on_c, 2, 85, 64
3, 295836, Note_off_c, 2, 85, 0
3, 295920, Note_on_c, 2, 85, 65
3, 296076, Note_off_c, 2, 85, 0
3, 296160, Note_on_c, 2, 87, 66
3, 296316, Note_off_c, 2, 87, 0
3, 296400, Note_on_c, 2, 87, 67
3, 296556, Note_off_c, 2, 87, 0
3, 296640, Note_on_c, 2, 87, 67
3, 296796, Note_off_c, 2, 87, 0
3, 296880, Note_on_c, 2, 87, 68
3, 297036, Note_off_c, 2, 87, 0
3, 297120, Note_on_c, 2, 83, 69
3, 297276, Note_off_c, 2, 83, 0
3, 297360, Note_on_c, 2, 83, 69
3, 297516, Note_off_c, 2, 83, 0
3, 297600, Note_on_c, 2, 83, 70
3, 297756, Note_off_c, 2, 83, 0
3, 297840, Note_on_c, 2, 83, 71
3, 297996, Note_off_c, 2, 83, 0
3, 298080, Note_on_c, 2, 88, 72
3, 298236, Note_off_c, 2, 88, 0
3, 298320, Note_on_c, 2, 88, 72
3, 298476, Note_off_c, 2, 88, 0
3, 298560, Note_on_c, 2, 88, 73
3, 298716, Note_off_c, 2, 88, 0
3, 298800, Note_on_c, 2, 88, 74
3, 298956, Note_off_c, 2, 88, 0
3, 299040, Note_on_c, 2, 85, 75
3, 299196, Note_off_c, 2, 85, 0
3, 299280, Note_on_c, 2, 85, 75
3, 299436, Note_off_c, 2, 85, 0
3, 299520, Note_on_c, 2, 85, 76
3, 299676, Note_off_c, 2, 85, 0
3, 299760, Note_on_c, 2, 85, 77
3, 299916, Note_off_c, 2, 85, 0
3, 300000, Note_on_c, 2, 85, 78
3, 300156, Note_off_c, 2, 85, 0
3, 300240, Note_on_c, 2, 85, 78
3, 300396, Note_off_c, 2, 85, 0
3, 300480, Note_on_c, 2, 85, 79
3, 301920, Note_off_c, 2, 85, 0
3, 330720, Note_on_c, 2, 71, 48
3, 331080, Note_off_c, 2, 71, 0
3, 331200, Note_on_c, 2, 71, 46
3, 331680, Note_off_c, 2, 71, 0
3, 331680, Note_on_c, 2, 68, 47
3, 332040, Note_off_c, 2, 68, 0
3, 332160, Note_on_c, 2, 68, 49
3, 332640, Note_off_c, 2, 68, 0
3, 332640, Note_on_c, 2, 83, 51
3, 332640, Note_on_c, 2, 77, 51
3, 332640, Note_on_c, 2, 80, 51
3, 333000, Note_off_c, 2, 80, 0
3, 333000, Note_off_c, 2, 77, 0
3, 333000, Note_off_c, 2, 83, 0
3, 333120, Note_on_c, 2, 80, 53
3, 333120, Note_on_c, 2, 83, 53
3, 333120, Note_on_c, 2, 77, 53
3, 333600, Note_off_c, 2, 77, 0
3, 333600, Note_off_c, 2, 83, 0
3, 333600, Note_off_c, 2, 80, 0
3, 333600, Note_on_c, 2, 77, 55
3, 333600, Note_on_c, 2, 71, 55
3, 333600, Note_on_c, 2, 73, 55
3, 334080, Note_off_c, 2, 73, 0
3, 334080, Note_off_c, 2, 71, 0
3, 334080, Note_off_c, 2, 77, 0
3, 334080, Note_on_c, 2, 70, 57
3, 334080, Note_on_c, 2, 73, 57
3, 334080, Note_on_c, 2, 76, 57
3, 334560, Note_off_c, 2, 76, 0
3, 334560, Note_off_c, 2, 73, 0
3, 334560, Note_off_c, 2, 70, 0
3, 334560, Note_on_c, 2, 85, 59
3, 334560, Note_on_c, 2, 82, 59
3, 334560, Note_on_c, 2, 76, 59
3, 335040, Note_off_c, 2, 76, 0
3, 335040, Note_off_c, 2, 82, 0
3, 335040, Note_off_c, 2, 85, 0
3, 335040, Note_on_c, 2, 83, 65
3, 335040, Note_on_c, 2, 78, 65
3, 335040, Note_on_c, 2, 75, 65
3, 335400, Note_off_c, 2, 75, 0
3, 335400, Note_off_c, 2, 78, 0
3, 335400, Note_off_c, 2, 83, 0
3, 335520, Note_on_c, 2, 80, 61
3, 335520, Note_on_c, 2, 71, 61
3, 335520, Note_on_c, 2, 76, 61
3, 335880, Note_off_c, 2, 76, 0
3, 335880, Note_off_c, 2, 71, 0
3, 335880, Note_off_c, 2, 80, 0
3, 336000, Note_on_c, 2, 75, 57
3, 336000, Note_on_c, 2, 71, 57
3, 336000, Note_on_c, 2, 66, 57
3, 336360, Note_off_c, 2, 66, 0
3, 336360, Note_off_c, 2, 71, 0
3, 336360, Note_off_c, 2, 75, 0
3, 336480, Note_on_c, 2, 73, 54
3, 336480, Note_on_c, 2, 70, 54
3, 336480, Note_on_c, 2, 76, 54
3, 336840, Note_off_c, 2, 76, 0
3, 336840, Note_off_c, 2, 70, 0
3, 336840, Note_off_c, 2, 73, 0
3, 336960, Note_on_c, 2, 83, 52
3, 337116, Note_off_c, 2, 83, 0
3, 337200, Note_on_c, 2, 83, 52
3, 337356, Note_off_c, 2, 83, 0
3, 337440, Note_on_c, 2, 83, 53
3, 337596, Note_off_c, 2, 83, 0
3, 337680, Note_on_c, 2, 83, 54
3, 337836, Note_off_c, 2, 83, 0
3, 337920, Note_on_c, 2, 83, 54
3, 338076, Note_off_c, 2, 83, 0
3, 338160, Note_on_c, 2, 83, 55
3, 338316, Note_off_c, 2, 83, 0
3, 338400, Note_on_c, 2, 83, 56
3, 338556, Note_off_c, 2, 83, 0
3, 338640, Note_on_c, 2, 83, 56
3, 338796, Note_off_c, 2, 83, 0
3, 338880, Note_on_c, 2, 83, 57
3, 339036, Note_off_c, 2, 83, 0
3, 339120, Note_on_c, 2, 83, 57
3, 339276, Note_off_c, 2, 83, 0
3, 339360, Note_on_c, 2, 83, 58
3, 339516, Note_off_c, 2, 83, 0
3, 339600, Note_on_c, 2, 83, 59
3, 339756, Note_off_c, 2, 83, 0
3, 339840, Note_on_c, 2, 83, 59
3, 339996, Note_off_c, 2, 83, 0
3, 340080, Note_on_c, 2, 83, 60
3, 340236, Note_off_c, 2, 83, 0
3, 340320, Note_on_c, 2, 82, 61
3, 340476, Note_off_c, 2, 82, 0
3, 340560, Note_on_c, 2, 83, 61
3, 340716, Note_off_c, 2, 83, 0
3, 340800, Note_on_c, 2, 85, 62
3, 340956, Note_off_c, 2, 85, 0
3, 341040, Note_on_c, 2, 85, 63
3, 341196, Note_off_c, 2, 85, 0
3, 341280, Note_on_c, 2, 85, 63
3, 341436, Note_off_c, 2, 85, 0
3, 341520, Note_on_c, 2, 85, 64
3, 341676, Note_off_c, 2, 85, 0
3, 341760, Note_on_c, 2, 85, 65
3, 341916, Note_off_c, 2, 85, 0
3, 342000, Note_on_c, 2, 85, 65
3, 342156, Note_off_c, 2, 85, 0
3, 342240, Note_on_c, 2, 85, 66
3, 342396, Note_off_c, 2, 85, 0
3, 342480, Note_on_c, 2, 85, 67
3, 342636, Note_off_c, 2, 85, 0
3, 342720, Note_on_c, 2, 83, 67
3, 342876, Note_off_c, 2, 83, 0
3, 342960, Note_on_c, 2, 83, 67
3, 343116, Note_off_c, 2, 83, 0
3, 343200, Note_on_c, 2, 83, 66
3, 343356, Note_off_c, 2, 83, 0
3, 343440, Note_on_c, 2, 83, 65
3, 343596, Note_off_c, 2, 83, 0
3, 343680, Note_on_c, 2, 83, 64
3, 343836, Note_off_c, 2, 83, 0
3, 343920, Note_on_c, 2, 83, 63
3, 344076, Note_off_c, 2, 83, 0
3, 344160, Note_on_c, 2, 83, 62
3, 344316, Note_off_c, 2, 83, 0
3, 344400, Note_on_c, 2, 83, 61
3, 344556, Note_off_c, 2, 83, 0
3, 344640, Note_on_c, 2, 83, 64
3, 344796, Note_off_c, 2, 83, 0
3, 344880, Note_on_c, 2, 83, 64
3, 345036, Note_off_c, 2, 83, 0
3, 345120, Note_on_c, 2, 83, 65
3, 345276, Note_off_c, 2, 83, 0
3, 345360, Note_on_c, 2, 83, 65
3, 345516, Note_off_c, 2, 83, 0
3, 345600, Note_on_c, 2, 83, 66
3, 345756, Note_off_c, 2, 83, 0
3, 345840, Note_on_c, 2, 83, 66
3, 345996, Note_off_c, 2, 83, 0
3, 346080, Note_on_c, 2, 85, 67
3, 346236, Note_off_c, 2, 85, 0
3, 346320, Note_on_c, 2, 87, 67
3, 346476, Note_off_c, 2, 87, 0
3, 346560, Note_on_c, 2, 88, 68
3, 346716, Note_off_c, 2, 88, 0
3, 346800, Note_on_c, 2, 88, 68
3, 346956, Note_off_c, 2, 88, 0
3, 347040, Note_on_c, 2, 88, 69
3, 347196, Note_off_c, 2, 88, 0
3, 347280, Note_on_c, 2, 88, 69
3, 347436, Note_off_c, 2, 88, 0
3, 347520, Note_on_c, 2, 88, 70
3, 347676, Note_off_c, 2, 88, 0
3, 347760, Note_on_c, 2, 88, 70
3, 347916, Note_off_c, 2, 88, 0
3, 348000, Note_on_c, 2, 88, 71
3, 348156, Note_off_c, 2, 88, 0
3, 348240, Note_on_c, 2, 88, 72
3, 348396, Note_off_c, 2, 88, 0
3, 348480, Note_on_c, 2, 88, 72
3, 348636, Note_off_c, 2, 88, 0
3, 348720, Note_on_c, 2, 88, 73
3, 348876, Note_off_c, 2, 88, 0
3, 348960, Note_on_c, 2, 88, 73
3, 349116, Note_off_c, 2, 88, 0
3, 349200, Note_on_c, 2, 88, 74
3, 349356, Note_off_c, 2, 88, 0
3, 349440, Note_on_c, 2, 88, 74
3, 349596, Note_off_c, 2, 88, 0
3, 349680, Note_on_c, 2, 90, 75
3, 349836, Note_off_c, 2, 90, 0
3, 349920, Note_on_c, 2, 90, 75
3, 350076, Note_off_c, 2, 90, 0
3, 350160, Note_on_c, 2, 90, 76
3, 350316, Note_off_c, 2, 90, 0
3, 350400, Note_on_c, 2, 90, 76
3, 350556, Note_off_c, 2, 90, 0
3, 350640, Note_on_c, 2, 90, 77
3, 350796, Note_off_c, 2, 90, 0
3, 350880, Note_on_c, 2, 90, 77
3, 351036, Note_off_c, 2, 90, 0
3, 351120, Note_on_c, 2, 90, 78
3, 351276, Note_off_c, 2, 90, 0
3, 351360, Note_on_c, 2, 90, 78
3, 351516, Note_off_c, 2, 90, 0
3, 351600, Note_on_c, 2, 90, 79
3, 351756, Note_off_c, 2, 90, 0
3, 351840, Note_on_c, 2, 90, 80
3, 351996, Note_off_c, 2, 90, 0
3, 352080, Note_on_c, 2, 90, 80
3, 352236, Note_off_c, 2, 90, 0
3, 352320, Note_on_c, 2, 90, 81
3, 352476, Note_off_c, 2, 90, 0
3, 352560, Note_on_c, 2, 90, 81
3, 352716, Note_off_c, 2, 90, 0
3, 352800, Note_on_c, 2, 90, 82
3, 352956, Note_off_c, 2, 90, 0
3, 353040, Note_on_c, 2, 90, 82
3, 353196, Note_off_c, 2, 90, 0
3, 353280, Note_on_c, 2, 90, 83
3, 353436, Note_off_c, 2, 90, 0
3, 353520, Note_on_c, 2, 90, 83
3, 353676, Note_off_c, 2, 90, 0
3, 353760, Note_on_c, 2, 90, 84
3, 353916, Note_off_c, 2, 90, 0
3, 354000, Note_on_c, 2, 90, 84
3, 354156, Note_off_c, 2, 90, 0
3, 354240, Note_on_c, 2, 90, 85
3, 355920, Note_off_c, 2, 90, 0
3, 360480, Control_c, 2, 64, 0
3, 360480, Note_on_c, 2, 66, 44
3, 360840, Note_off_c, 2, 66, 0
3, 360960, Note_on_c, 2, 66, 45
3, 361320, Note_off_c, 2, 66, 0
3, 361440, Note_on_c, 2, 66, 45
3, 361680, Note_off_c, 2, 66, 0
3, 361680, Note_on_c, 2, 66, 46
3, 361872, Note_off_c, 2, 66, 0
3, 361920, Note_on_c, 2, 67, 46
3, 362280, Note_off_c, 2, 67, 0
3, 362400, Note_on_c, 2, 67, 47
3, 362760, Note_off_c, 2, 67, 0
3, 362880, Note_on_c, 2, 67, 48
3, 363240, Note_off_c, 2, 67, 0
3, 363360, Note_on_c, 2, 66, 49
3, 363720, Note_off_c, 2, 66, 0
3, 363840, Note_on_c, 2, 66, 50
3, 364208, Note_off_c, 2, 66, 0
3, 364320, Note_on_c, 2, 68, 51
3, 364688, Note_off_c, 2, 68, 0
3, 364800, Note_on_c, 2, 67, 52
3, 365168, Note_off_c, 2, 67, 0
3, 365280, Note_on_c, 2, 71, 52
3, 365280, Note_on_c, 2, 67, 52
3, 365648, Note_off_c, 2, 67, 0
3, 365648, Note_off_c, 2, 71, 0
3, 365760, Note_on_c, 2, 71, 55
3, 365760, Note_on_c, 2, 67, 55
3, 366128, Note_off_c, 2, 67, 0
3, 366128, Note_off_c, 2, 71, 0
3, 366240, Note_on_c, 2, 67, 53
3, 366608, Note_off_c, 2, 67, 0
3, 366720, Note_on_c, 2, 67, 51
3, 367088, Note_off_c, 2, 67, 0
3, 367200, Note_on_c, 2, 73, 49
3, 367200, Note_on_c, 2, 66, 49
3, 367568, Note_off_c, 2, 66, 0
3, 367568, Note_off_c, 2, 73, 0
3, 367680, Note_on_c, 2, 73, 46
3, 367680, Note_on_c, 2, 66, 46
3, 368160, Note_off_c, 2, 66, 0
3, 368160, Note_off_c, 2, 73, 0
3, 369120, Note_on_c, 2, 66, 40
3, 369120, Note_on_c, 2, 63, 40
3, 369600, Note_off_c, 2, 63, 0
3, 369600, Note_off_c, 2, 66, 0
3, 369600, Note_on_c, 2, 63, 35
3, 369600, Note_on_c, 2, 66, 35
3, 370080, Note_off_c, 2, 66, 0
3, 370080, Note_off_c, 2, 63, 0
3, 371040, Note_on_c, 2, 64, 31
3, 371040, Note_on_c, 2, 58, 31
3, 371520, Note_off_c, 2, 58, 0
3, 371520, Note_off_c, 2, 64, 0
3, 371520, Note_on_c, 2, 64, 29
3, 371520, Note_on_c, 2, 58, 29
3, 372000, Note_off_c, 2, 58, 0
3, 372000, Note_off_c, 2, 64, 0
3, 372000, End_track
4, 0, Start_track
4, 0, Title_t, "Unnamed Track"
4, 0, Control_c, 3, 0, 0
4, 0, Control_c, 3, 32, 0
4, 0, Program_c, 3, 0
4, 0, Control_c, 3, 7, 112
4, 0, Pitch_bend_c, 3, 8192
4, 0, Control_c, 3, 1, 0
4, 0, Control_c, 3, 64, 0
4, 0, Control_c, 3, 93, 28
4, 0, Control_c, 3, 91, 100
4, 0, Control_c, 3, 10, 64
4, 5760, Control_c, 3, 64, 0
4, 5820, Control_c, 3, 64, 127
4, 5920, Note_on_c, 3, 57, 43
4, 6080, Note_off_c, 3, 57, 0
4, 6080, Note_on_c, 3, 60, 44
4, 6240, Control_c, 3, 64, 0
4, 6240, Note_off_c, 3, 60, 0
4, 6300, Control_c, 3, 64, 127
4, 6400, Note_on_c, 3, 57, 45
4, 6560, Note_off_c, 3, 57, 0
4, 6560, Note_on_c, 3, 60, 46
4, 6720, Control_c, 3, 64, 0
4, 6720, Note_off_c, 3, 60, 0
4, 6780, Control_c, 3, 64, 127
4, 6880, Note_on_c, 3, 58, 48
4, 7040, Note_off_c, 3, 58, 0
4, 7040, Note_on_c, 3, 62, 48
4, 7200, Control_c, 3, 64, 0
4, 7200, Note_off_c, 3, 62, 0
4, 7260, Control_c, 3, 64, 127
4, 7360, Note_on_c, 3, 57, 50
4, 7520, Note_off_c, 3, 57, 0
4, 7520, Note_on_c, 3, 60, 51
4, 7680, Control_c, 3, 64, 0
4, 7680, Note_off_c, 3, 60, 0
4, 7740, Control_c, 3, 64, 127
4, 7840, Note_on_c, 3, 55, 50
4, 8000, Note_off_c, 3, 55, 0
4, 8000, Note_on_c, 3, 58, 53
4, 8160, Control_c, 3, 64, 0
4, 8160, Note_off_c, 3, 58, 0
4, 8220, Control_c, 3, 64, 127
4, 8320, Note_on_c, 3, 54, 52
4, 8480, Note_off_c, 3, 54, 0
4, 8480, Note_on_c, 3, 60, 49
4, 8640, Control_c, 3, 64, 0
4, 8640, Note_off_c, 3, 60, 0
4, 8640, Note_on_c, 3, 58, 43
4, 9360, Note_off_c, 3, 58, 0
4, 13440, Control_c, 3, 64, 0
4, 13500, Control_c, 3, 64, 127
4, 13600, Note_on_c, 3, 55, 44
4, 13760, Note_off_c, 3, 55, 0
4, 13760, Note_on_c, 3, 58, 45
4, 13920, Control_c, 3, 64, 0
4, 13920, Note_off_c, 3, 58, 0
4, 13980, Control_c, 3, 64, 127
4, 14080, Note_on_c, 3, 55, 46
4, 14240, Note_off_c, 3, 55, 0
4, 14240, Note_on_c, 3, 58, 46
4, 14400, Control_c, 3, 64, 0
4, 14400, Note_off_c, 3, 58, 0
4, 14460, Control_c, 3, 64, 127
4, 14560, Note_on_c, 3, 56, 47
4, 14720, Note_off_c, 3, 56, 0
4, 14720, Note_on_c, 3, 60, 48
4, 14880, Control_c, 3, 64, 0
4, 14880, Note_off_c, 3, 60, 0
4, 14940, Control_c, 3, 64, 127
4, 15040, Note_on_c, 3, 55, 48
4, 15200, Note_off_c, 3, 55, 0
4, 15200, Note_on_c, 3, 58, 49
4, 15360, Control_c, 3, 64, 0
4, 15360, Note_off_c, 3, 58, 0
4, 15420, Control_c, 3, 64, 127
4, 15520, Note_on_c, 3, 53, 49
4, 15680, Note_off_c, 3, 53, 0
4, 15680, Note_on_c, 3, 56, 52
4, 15840, Control_c, 3, 64, 0
4, 15840, Note_off_c, 3, 56, 0
4, 15900, Control_c, 3, 64, 127
4, 16000, Note_on_c, 3, 52, 51
4, 16160, Note_off_c, 3, 52, 0
4, 16160, Note_on_c, 3, 58, 46
4, 16320, Control_c, 3, 64, 0
4, 16320, Note_off_c, 3, 58, 0
4, 16320, Note_on_c, 3, 56, 40
4, 17040, Note_off_c, 3, 56, 0
4, 35280, Note_on_c, 3, 58, 48
4, 35436, Note_off_c, 3, 58, 0
4, 35520, Note_on_c, 3, 58, 50
4, 35676, Note_off_c, 3, 58, 0
4, 36000, Note_on_c, 3, 58, 54
4, 36156, Note_off_c, 3, 58, 0
4, 36240, Note_on_c, 3, 58, 61
4, 36240, Note_on_c, 3, 60, 61
4, 36240, Note_on_c, 3, 63, 61
4, 36396, Note_off_c, 3, 63, 0
4, 36396, Note_off_c, 3, 60, 0
4, 36396, Note_off_c, 3, 58, 0
4, 36720, Note_on_c, 3, 58, 57
4, 36876, Note_off_c, 3, 58, 0
4, 36960, Note_on_c, 3, 58, 56
4, 37116, Note_off_c, 3, 58, 0
4, 37440, Note_on_c, 3, 58, 54
4, 37596, Note_off_c, 3, 58, 0
4, 37680, Note_on_c, 3, 48, 53
4, 37680, Note_on_c, 3, 60, 53
4, 37836, Note_off_c, 3, 60, 0
4, 37836, Note_off_c, 3, 48, 0
4, 38160, Note_on_c, 3, 60, 51
4, 38316, Note_off_c, 3, 60, 0
4, 38400, Note_on_c, 3, 60, 50
4, 38556, Note_off_c, 3, 60, 0
4, 38880, Note_on_c, 3, 60, 48
4, 39036, Note_off_c, 3, 60, 0
4, 39120, Note_on_c, 3, 60, 47
4, 39276, Note_off_c, 3, 60, 0
4, 39600, Note_on_c, 3, 53, 54
4, 39756, Note_off_c, 3, 53, 0
4, 39840, Note_on_c, 3, 53, 59
4, 39996, Note_off_c, 3, 53, 0
4, 40320, Note_on_c, 3, 51, 69
4, 40476, Note_off_c, 3, 51, 0
4, 40560, Note_on_c, 3, 51, 75
4, 40716, Note_off_c, 3, 51, 0
4, 41040, Note_on_c, 3, 51, 77
4, 41196, Note_off_c, 3, 51, 0
4, 41280, Note_on_c, 3, 51, 78
4, 41436, Note_off_c, 3, 51, 0
4, 41760, Note_on_c, 3, 50, 80
4, 41916, Note_off_c, 3, 50, 0
4, 42000, Note_on_c, 3, 50, 81
4, 42156, Note_off_c, 3, 50, 0
4, 42480, Note_on_c, 3, 48, 83
4, 42480, Note_on_c, 3, 51, 83
4, 42636, Note_off_c, 3, 51, 0
4, 42636, Note_off_c, 3, 48, 0
4, 42720, Note_on_c, 3, 48, 84
4, 42720, Note_on_c, 3, 51, 84
4, 42876, Note_off_c, 3, 51, 0
4, 42876, Note_off_c, 3, 48, 0
4, 43200, Note_on_c, 3, 58, 86
4, 43356, Note_off_c, 3, 58, 0
4, 43440, Note_on_c, 3, 51, 91
4, 43440, Note_on_c, 3, 58, 91
4, 43440, Note_on_c, 3, 63, 91
4, 43596, Note_off_c, 3, 63, 0
4, 43596, Note_off_c, 3, 58, 0
4, 43596, Note_off_c, 3, 51, 0
4, 43680, Note_on_c, 3, 62, 89
4, 43680, Note_on_c, 3, 58, 89
4, 43836, Note_off_c, 3, 58, 0
4, 43836, Note_off_c, 3, 62, 0
4, 43920, Note_on_c, 3, 62, 87
4, 43920, Note_on_c, 3, 58, 87
4, 44076, Note_off_c, 3, 58, 0
4, 44076, Note_off_c, 3, 62, 0
4, 44160, Note_on_c, 3, 62, 85
4, 44160, Note_on_c, 3, 58, 85
4, 44316, Note_off_c, 3, 58, 0
4, 44316, Note_off_c, 3, 62, 0
4, 44400, Note_on_c, 3, 60, 83
4, 44400, Note_on_c, 3, 63, 83
4, 44556, Note_off_c, 3, 63, 0
4, 44556, Note_off_c, 3, 60, 0
4, 44640, Note_on_c, 3, 60, 81
4, 44640, Note_on_c, 3, 63, 81
4, 44796, Note_off_c, 3, 63, 0
4, 44796, Note_off_c, 3, 60, 0
4, 44880, Note_on_c, 3, 60, 79
4, 44880, Note_on_c, 3, 63, 79
4, 45036, Note_off_c, 3, 63, 0
4, 45036, Note_off_c, 3, 60, 0
4, 45120, Note_on_c, 3, 62, 84
4, 45840, Note_off_c, 3, 62, 0
4, 46080, Note_on_c, 3, 51, 67
4, 46236, Note_off_c, 3, 51, 0
4, 46320, Note_on_c, 3, 51, 65
4, 46476, Note_off_c, 3, 51, 0
4, 46800, Note_on_c, 3, 51, 62
4, 46956, Note_off_c, 3, 51, 0
4, 47040, Note_on_c, 3, 51, 60
4, 47196, Note_off_c, 3, 51, 0
4, 47520, Note_on_c, 3, 50, 57
4, 47676, Note_off_c, 3, 50, 0
4, 47760, Note_on_c, 3, 50, 55
4, 47916, Note_off_c, 3, 50, 0
4, 48240, Note_on_c, 3, 48, 52
4, 48240, Note_on_c, 3, 51, 52
4, 48396, Note_off_c, 3, 51, 0
4, 48396, Note_off_c, 3, 48, 0
4, 48480, Note_on_c, 3, 48, 50
4, 48480, Note_on_c, 3, 51, 50
4, 48636, Note_off_c, 3, 51, 0
4, 48636, Note_off_c, 3, 48, 0
4, 48960, Note_on_c, 3, 58, 47
4, 49116, Note_off_c, 3, 58, 0
4, 49200, Note_on_c, 3, 51, 52
4, 49200, Note_on_c, 3, 63, 52
4, 49200, Note_on_c, 3, 58, 52
4, 49356, Note_off_c, 3, 58, 0
4, 49356, Note_off_c, 3, 63, 0
4, 49356, Note_off_c, 3, 51, 0
4, 49440, Note_on_c, 3, 58, 49
4, 49440, Note_on_c, 3, 63, 49
4, 49596, Note_off_c, 3, 63, 0
4, 49596, Note_off_c, 3, 58, 0
4, 49680, Note_on_c, 3, 58, 47
4, 49680, Note_on_c, 3, 63, 47
4, 49836, Note_off_c, 3, 63, 0
4, 49836, Note_off_c, 3, 58, 0
4, 49920, Note_on_c, 3, 63, 45
4, 49920, Note_on_c, 3, 58, 45
4, 50076, Note_off_c, 3, 58, 0
4, 50076, Note_off_c, 3, 63, 0
4, 50160, Note_on_c, 3, 58, 44
4, 50160, Note_on_c, 3, 63, 44
4, 50316, Note_off_c, 3, 63, 0
4, 50316, Note_off_c, 3, 58, 0
4, 50400, Note_on_c, 3, 63, 42
4, 50400, Note_on_c, 3, 58, 42
4, 50556, Note_off_c, 3, 58, 0
4, 50556, Note_off_c, 3, 63, 0
4, 50640, Note_on_c, 3, 58, 40
4, 50640, Note_on_c, 3, 63, 40
4, 50796, Note_off_c, 3, 63, 0
4, 50796, Note_off_c, 3, 58, 0
4, 50880, Note_on_c, 3, 58, 39
4, 50880, Note_on_c, 3, 63, 39
4, 51036, Note_off_c, 3, 63, 0
4, 51036, Note_off_c, 3, 58, 0
4, 51120, Note_on_c, 3, 58, 37
4, 51120, Note_on_c, 3, 63, 37
4, 51276, Note_off_c, 3, 63, 0
4, 51276, Note_off_c, 3, 58, 0
4, 51360, Note_on_c, 3, 58, 35
4, 51360, Note_on_c, 3, 63, 35
4, 51516, Note_off_c, 3, 63, 0
4, 51516, Note_off_c, 3, 58, 0
4, 51600, Note_on_c, 3, 58, 34
4, 51600, Note_on_c, 3, 63, 34
4, 51756, Note_off_c, 3, 63, 0
4, 51756, Note_off_c, 3, 58, 0
4, 51840, Note_on_c, 3, 58, 32
4, 51840, Note_on_c, 3, 63, 32
4, 51996, Note_off_c, 3, 63, 0
4, 51996, Note_off_c, 3, 58, 0
4, 52080, Note_on_c, 3, 58, 28
4, 52080, Note_on_c, 3, 63, 28
4, 52236, Note_off_c, 3, 63, 0
4, 52236, Note_off_c, 3, 58, 0
4, 52320, Note_on_c, 3, 63, 25
4, 52320, Note_on_c, 3, 58, 25
4, 53040, Note_off_c, 3, 58, 0
4, 53040, Note_off_c, 3, 63, 0
4, 53040, Note_on_c, 3, 63, 30
4, 53040, Note_on_c, 3, 58, 30
4, 53760, Note_off_c, 3, 58, 0
4, 53760, Note_off_c, 3, 63, 0
4, 53760, Note_on_c, 3, 63, 33
4, 53760, Note_on_c, 3, 58, 33
4, 54480, Note_off_c, 3, 58, 0
4, 54480, Note_off_c, 3, 63, 0
4, 54480, Note_on_c, 3, 58, 36
4, 54480, Note_on_c, 3, 63, 36
4, 55200, Note_off_c, 3, 63, 0
4, 55200, Note_off_c, 3, 58, 0
4, 55200, Note_on_c, 3, 58, 41
4, 55200, Note_on_c, 3, 62, 41
4, 55860, Note_off_c, 3, 62, 0
4, 55860, Note_off_c, 3, 58, 0
4, 68160, Control_c, 3, 64, 127
4, 73440, Control_c, 3, 64, 0
4, 92400, Note_on_c, 3, 60, 98
4, 92400, Note_on_c, 3, 57, 98
4, 92556, Note_off_c, 3, 57, 0
4, 92556, Note_off_c, 3, 60, 0
4, 92640, Note_on_c, 3, 60, 98
4, 92640, Note_on_c, 3, 57, 98
4, 92796, Note_off_c, 3, 57, 0
4, 92796, Note_off_c, 3, 60, 0
4, 92880, Note_on_c, 3, 60, 99
4, 92880, Note_on_c, 3, 57, 99
4, 93036, Note_off_c, 3, 57, 0
4, 93036, Note_off_c, 3, 60, 0
4, 93360, Note_on_c, 3, 60, 101
4, 93360, Note_on_c, 3, 57, 101
4, 93516, Note_off_c, 3, 57, 0
4, 93516, Note_off_c, 3, 60, 0
4, 93600, Note_on_c, 3, 60, 102
4, 93600, Note_on_c, 3, 57, 102
4, 93756, Note_off_c, 3, 57, 0
4, 93756, Note_off_c, 3, 60, 0
4, 93840, Note_on_c, 3, 60, 103
4, 93840, Note_on_c, 3, 57, 103
4, 93996, Note_off_c, 3, 57, 0
4, 93996, Note_off_c, 3, 60, 0
4, 94320, Note_on_c, 3, 60, 103
4, 94320, Note_on_c, 3, 57, 103
4, 94476, Note_off_c, 3, 57, 0
4, 94476, Note_off_c, 3, 60, 0
4, 94560, Note_on_c, 3, 60, 102
4, 94560, Note_on_c, 3, 57, 102
4, 94716, Note_off_c, 3, 57, 0
4, 94716, Note_off_c, 3, 60, 0
4, 94800, Note_on_c, 3, 60, 101
4, 94800, Note_on_c, 3, 57, 101
4, 94956, Note_off_c, 3, 57, 0
4, 94956, Note_off_c, 3, 60, 0
4, 95280, Note_on_c, 3, 55, 100
4, 95280, Note_on_c, 3, 61, 100
4, 95280, Note_on_c, 3, 58, 100
4, 95436, Note_off_c, 3, 58, 0
4, 95436, Note_off_c, 3, 61, 0
4, 95436, Note_off_c, 3, 55, 0
4, 95520, Note_on_c, 3, 55, 99
4, 95520, Note_on_c, 3, 61, 99
4, 95520, Note_on_c, 3, 58, 99
4, 95676, Note_off_c, 3, 58, 0
4, 95676, Note_off_c, 3, 61, 0
4, 95676, Note_off_c, 3, 55, 0
4, 95760, Note_on_c, 3, 58, 98
4, 95760, Note_on_c, 3, 55, 98
4, 95760, Note_on_c, 3, 61, 98
4, 95916, Note_off_c, 3, 61, 0
4, 95916, Note_off_c, 3, 55, 0
4, 95916, Note_off_c, 3, 58, 0
4, 100080, Note_on_c, 3, 60, 98
4, 100080, Note_on_c, 3, 57, 98
4, 100236, Note_off_c, 3, 57, 0
4, 100236, Note_off_c, 3, 60, 0
4, 100320, Note_on_c, 3, 60, 99
4, 100320, Note_on_c, 3, 57, 99
4, 100476, Note_off_c, 3, 57, 0
4, 100476, Note_off_c, 3, 60, 0
4, 100560, Note_on_c, 3, 60, 99
4, 100560, Note_on_c, 3, 57, 99
4, 100716, Note_off_c, 3, 57, 0
4, 100716, Note_off_c, 3, 60, 0
4, 101040, Note_on_c, 3, 60, 101
4, 101040, Note_on_c, 3, 57, 101
4, 101196, Note_off_c, 3, 57, 0
4, 101196, Note_off_c, 3, 60, 0
4, 101280, Note_on_c, 3, 60, 102
4, 101280, Note_on_c, 3, 57, 102
4, 101436, Note_off_c, 3, 57, 0
4, 101436, Note_off_c, 3, 60, 0
4, 101520, Note_on_c, 3, 60, 103
4, 101520, Note_on_c, 3, 57, 103
4, 101676, Note_off_c, 3, 57, 0
4, 101676, Note_off_c, 3, 60, 0
4, 102000, Note_on_c, 3, 60, 103
4, 102000, Note_on_c, 3, 57, 103
4, 102156, Note_off_c, 3, 57, 0
4, 102156, Note_off_c, 3, 60, 0
4, 102240, Note_on_c, 3, 60, 102
4, 102240, Note_on_c, 3, 57, 102
4, 102396, Note_off_c, 3, 57, 0
4, 102396, Note_off_c, 3, 60, 0
4, 102480, Note_on_c, 3, 60, 101
4, 102480, Note_on_c, 3, 57, 101
4, 102636, Note_off_c, 3, 57, 0
4, 102636, Note_off_c, 3, 60, 0
4, 102960, Note_on_c, 3, 55, 99
4, 102960, Note_on_c, 3, 61, 99
4, 102960, Note_on_c, 3, 58, 99
4, 103116, Note_off_c, 3, 58, 0
4, 103116, Note_off_c, 3, 61, 0
4, 103116, Note_off_c, 3, 55, 0
4, 103200, Note_on_c, 3, 55, 98
4, 103200, Note_on_c, 3, 61, 98
4, 103200, Note_on_c, 3, 58, 98
4, 103356, Note_off_c, 3, 58, 0
4, 103356, Note_off_c, 3, 61, 0
4, 103356, Note_off_c, 3, 55, 0
4, 103440, Note_on_c, 3, 55, 98
4, 103440, Note_on_c, 3, 58, 98
4, 103440, Note_on_c, 3, 61, 98
4, 103596, Note_off_c, 3, 61, 0
4, 103596, Note_off_c, 3, 58, 0
4, 103596, Note_off_c, 3, 55, 0
4, 121920, Control_c, 3, 64, 127
4, 123720, Control_c, 3, 64, 0
4, 153600, Note_on_c, 3, 42, 49
4, 153840, Note_off_c, 3, 42, 0
4, 154320, Note_on_c, 3, 42, 51
4, 154560, Note_off_c, 3, 42, 0
4, 155040, Note_on_c, 3, 42, 54
4, 155280, Note_off_c, 3, 42, 0
4, 155760, Note_on_c, 3, 42, 56
4, 156000, Note_off_c, 3, 42, 0
4, 156480, Note_on_c, 3, 42, 58
4, 156720, Note_off_c, 3, 42, 0
4, 157200, Note_on_c, 3, 42, 61
4, 157440, Note_off_c, 3, 42, 0
4, 157920, Note_on_c, 3, 42, 63
4, 158160, Note_off_c, 3, 42, 0
4, 158640, Note_on_c, 3, 42, 65
4, 158880, Note_off_c, 3, 42, 0
4, 159360, Note_on_c, 3, 42, 68
4, 159600, Note_off_c, 3, 42, 0
4, 160080, Note_on_c, 3, 42, 70
4, 160320, Note_off_c, 3, 42, 0
4, 160800, Note_on_c, 3, 42, 72
4, 161040, Note_off_c, 3, 42, 0
4, 161520, Note_on_c, 3, 42, 75
4, 161760, Note_off_c, 3, 42, 0
4, 162240, Note_on_c, 3, 42, 77
4, 162480, Note_off_c, 3, 42, 0
4, 162960, Note_on_c, 3, 42, 79
4, 163200, Note_off_c, 3, 42, 0
4, 163680, Note_on_c, 3, 42, 82
4, 163920, Note_off_c, 3, 42, 0
4, 164400, Note_on_c, 3, 42, 84
4, 164640, Note_off_c, 3, 42, 0
4, 165120, Note_on_c, 3, 42, 86
4, 165360, Note_off_c, 3, 42, 0
4, 165840, Note_on_c, 3, 42, 89
4, 166080, Note_off_c, 3, 42, 0
4, 166560, Note_on_c, 3, 42, 91
4, 166800, Note_off_c, 3, 42, 0
4, 167280, Note_on_c, 3, 42, 93
4, 167520, Note_off_c, 3, 42, 0
4, 168000, Note_on_c, 3, 42, 96
4, 168240, Note_off_c, 3, 42, 0
4, 168720, Note_on_c, 3, 42, 98
4, 168960, Note_off_c, 3, 42, 0
4, 169440, Note_on_c, 3, 42, 101
4, 169680, Note_off_c, 3, 42, 0
4, 170160, Note_on_c, 3, 42, 104
4, 170400, Note_off_c, 3, 42, 0
4, 170880, Note_on_c, 3, 42, 107
4, 171120, Note_off_c, 3, 42, 0
4, 171600, Note_on_c, 3, 42, 109
4, 171840, Note_off_c, 3, 42, 0
4, 172320, Note_on_c, 3, 42, 112
4, 172560, Note_off_c, 3, 42, 0
4, 173040, Note_on_c, 3, 42, 115
4, 173280, Note_off_c, 3, 42, 0
4, 173280, Note_on_c, 3, 42, 123
4, 173760, Note_off_c, 3, 42, 0
4, 182640, Control_c, 3, 64, 0
4, 182680, Control_c, 3, 64, 127
4, 182880, Note_on_c, 3, 64, 52
4, 182880, Note_on_c, 3, 67, 52
4, 183120, Note_off_c, 3, 67, 0
4, 183120, Note_off_c, 3, 64, 0
4, 183120, Note_on_c, 3, 71, 53
4, 183120, Note_on_c, 3, 59, 53
4, 183360, Control_c, 3, 64, 0
4, 183360, Note_off_c, 3, 59, 0
4, 183360, Note_off_c, 3, 71, 0
4, 183400, Control_c, 3, 64, 127
4, 183600, Note_on_c, 3, 64, 54
4, 183600, Note_on_c, 3, 67, 54
4, 183840, Note_off_c, 3, 67, 0
4, 183840, Note_off_c, 3, 64, 0
4, 183840, Note_on_c, 3, 71, 55
4, 183840, Note_on_c, 3, 59, 55
4, 184080, Control_c, 3, 64, 0
4, 184080, Note_off_c, 3, 59, 0
4, 184080, Note_off_c, 3, 71, 0
4, 184120, Control_c, 3, 64, 127
4, 184320, Note_on_c, 3, 63, 56
4, 184320, Note_on_c, 3, 66, 56
4, 184560, Note_off_c, 3, 66, 0
4, 184560, Note_off_c, 3, 63, 0
4, 184560, Note_on_c, 3, 71, 57
4, 184560, Note_on_c, 3, 59, 57
4, 184800, Control_c, 3, 64, 0
4, 184800, Note_off_c, 3, 59, 0
4, 184800, Note_off_c, 3, 71, 0
4, 184840, Control_c, 3, 64, 127
4, 185040, Note_on_c, 3, 66, 58
4, 185040, Note_on_c, 3, 69, 58
4, 185280, Note_off_c, 3, 69, 0
4, 185280, Note_off_c, 3, 66, 0
4, 185280, Note_on_c, 3, 59, 59
4, 185280, Note_on_c, 3, 71, 59
4, 185520, Control_c, 3, 64, 0
4, 185520, Note_off_c, 3, 71, 0
4, 185520, Note_off_c, 3, 59, 0
4, 185560, Control_c, 3, 64, 127
4, 185760, Note_on_c, 3, 64, 63
4, 185760, Note_on_c, 3, 67, 63
4, 186000, Note_off_c, 3, 67, 0
4, 186000, Note_off_c, 3, 64, 0
4, 186000, Note_on_c, 3, 59, 65
4, 186000, Note_on_c, 3, 71, 65
4, 186240, Control_c, 3, 64, 0
4, 186240, Note_off_c, 3, 71, 0
4, 186240, Note_off_c, 3, 59, 0
4, 186280, Control_c, 3, 64, 127
4, 186480, Note_on_c, 3, 64, 69
4, 186480, Note_on_c, 3, 67, 69
4, 186720, Note_off_c, 3, 67, 0
4, 186720, Note_off_c, 3, 64, 0
4, 186720, Note_on_c, 3, 59, 71
4, 186720, Note_on_c, 3, 71, 71
4, 186960, Control_c, 3, 64, 0
4, 186960, Note_off_c, 3, 71, 0
4, 186960, Note_off_c, 3, 59, 0
4, 187000, Control_c, 3, 64, 127
4, 187200, Note_on_c, 3, 66, 75
4, 187200, Note_on_c, 3, 63, 75
4, 187440, Note_off_c, 3, 63, 0
4, 187440, Note_off_c, 3, 66, 0
4, 187440, Note_on_c, 3, 59, 77
4, 187440, Note_on_c, 3, 71, 77
4, 187680, Control_c, 3, 64, 0
4, 187680, Note_off_c, 3, 71, 0
4, 187680, Note_off_c, 3, 59, 0
4, 187720, Control_c, 3, 64, 127
4, 187920, Note_on_c, 3, 66, 81
4, 187920, Note_on_c, 3, 69, 81
4, 188160, Note_off_c, 3, 69, 0
4, 188160, Note_off_c, 3, 66, 0
4, 188160, Note_on_c, 3, 59, 83
4, 188400, Control_c, 3, 64, 0
4, 188400, Note_off_c, 3, 59, 0
4, 188440, Control_c, 3, 64, 127
4, 188640, Note_on_c, 3, 65, 87
4, 188640, Note_on_c, 3, 68, 87
4, 188880, Note_off_c, 3, 68, 0
4, 188880, Note_off_c, 3, 65, 0
4, 188880, Note_on_c, 3, 59, 89
4, 188880, Note_on_c, 3, 71, 89
4, 189120, Control_c, 3, 64, 0
4, 189120, Note_off_c, 3, 71, 0
4, 189120, Note_off_c, 3, 59, 0
4, 189160, Control_c, 3, 64, 127
4, 189360, Note_on_c, 3, 59, 91
4, 189360, Note_on_c, 3, 68, 91
4, 189600, Note_off_c, 3, 68, 0
4, 189600, Note_off_c, 3, 59, 0
4, 189600, Note_on_c, 3, 74, 88
4, 189840, Control_c, 3, 64, 0
4, 189840, Note_off_c, 3, 74, 0
4, 189840, Note_on_c, 3, 62, 86
4, 189996, Note_off_c, 3, 62, 0
4, 190080, Note_on_c, 3, 71, 84
4, 190236, Note_off_c, 3, 71, 0
4, 194160, Control_c, 3, 64, 0
4, 194200, Control_c, 3, 64, 127
4, 194400, Note_on_c, 3, 66, 68
4, 194400, Note_on_c, 3, 69, 68
4, 194640, Note_off_c, 3, 69, 0
4, 194640, Note_off_c, 3, 66, 0
4, 194640, Note_on_c, 3, 61, 68
4, 194640, Note_on_c, 3, 73, 68
4, 194880, Control_c, 3, 64, 0
4, 194880, Note_off_c, 3, 73, 0
4, 194880, Note_off_c, 3, 61, 0
4, 194920, Control_c, 3, 64, 127
4, 195120, Note_on_c, 3, 66, 69
4, 195120, Note_on_c, 3, 69, 69
4, 195360, Note_off_c, 3, 69, 0
4, 195360, Note_off_c, 3, 66, 0
4, 195360, Note_on_c, 3, 61, 69
4, 195360, Note_on_c, 3, 73, 69
4, 195600, Control_c, 3, 64, 0
4, 195600, Note_off_c, 3, 73, 0
4, 195600, Note_off_c, 3, 61, 0
4, 195640, Control_c, 3, 64, 127
4, 195840, Note_on_c, 3, 65, 70
4, 195840, Note_on_c, 3, 68, 70
4, 196080, Note_off_c, 3, 68, 0
4, 196080, Note_off_c, 3, 65, 0
4, 196080, Note_on_c, 3, 61, 70
4, 196080, Note_on_c, 3, 73, 70
4, 196320, Control_c, 3, 64, 0
4, 196320, Note_off_c, 3, 73, 0
4, 196320, Note_off_c, 3, 61, 0
4, 196360, Control_c, 3, 64, 127
4, 196560, Note_on_c, 3, 71, 71
4, 196560, Note_on_c, 3, 68, 71
4, 196800, Note_off_c, 3, 68, 0
4, 196800, Note_off_c, 3, 71, 0
4, 196800, Note_on_c, 3, 61, 71
4, 196800, Note_on_c, 3, 73, 71
4, 197040, Control_c, 3, 64, 0
4, 197040, Note_off_c, 3, 73, 0
4, 197040, Note_off_c, 3, 61, 0
4, 197080, Control_c, 3, 64, 127
4, 197280, Note_on_c, 3, 69, 74
4, 197280, Note_on_c, 3, 66, 74
4, 197520, Note_off_c, 3, 66, 0
4, 197520, Note_off_c, 3, 69, 0
4, 197520, Note_on_c, 3, 61, 76
4, 197520, Note_on_c, 3, 73, 76
4, 197760, Control_c, 3, 64, 0
4, 197760, Note_off_c, 3, 73, 0
4, 197760, Note_off_c, 3, 61, 0
4, 197800, Control_c, 3, 64, 127
4, 198000, Note_on_c, 3, 66, 79
4, 198000, Note_on_c, 3, 69, 79
4, 198240, Note_off_c, 3, 69, 0
4, 198240, Note_off_c, 3, 66, 0
4, 198240, Note_on_c, 3, 61, 81
4, 198240, Note_on_c, 3, 73, 81
4, 198480, Control_c, 3, 64, 0
4, 198480, Note_off_c, 3, 73, 0
4, 198480, Note_off_c, 3, 61, 0
4, 198520, Control_c, 3, 64, 127
4, 198720, Note_on_c, 3, 65, 84
4, 198720, Note_on_c, 3, 68, 84
4, 198960, Note_off_c, 3, 68, 0
4, 198960, Note_off_c, 3, 65, 0
4, 198960, Note_on_c, 3, 61, 86
4, 198960, Note_on_c, 3, 73, 86
4, 199200, Control_c, 3, 64, 0
4, 199200, Note_off_c, 3, 73, 0
4, 199200, Note_off_c, 3, 61, 0
4, 199240, Control_c, 3, 64, 127
4, 199440, Note_on_c, 3, 71, 89
4, 199440, Note_on_c, 3, 68, 89
4, 199680, Note_off_c, 3, 68, 0
4, 199680, Note_off_c, 3, 71, 0
4, 199680, Note_on_c, 3, 61, 91
4, 199680, Note_on_c, 3, 73, 91
4, 199920, Control_c, 3, 64, 0
4, 199920, Note_off_c, 3, 73, 0
4, 199920, Note_off_c, 3, 61, 0
4, 199960, Control_c, 3, 64, 127
4, 200160, Note_on_c, 3, 67, 94
4, 200160, Note_on_c, 3, 70, 94
4, 200400, Note_off_c, 3, 70, 0
4, 200400, Note_off_c, 3, 67, 0
4, 200400, Note_on_c, 3, 61, 96
4, 200400, Note_on_c, 3, 73, 96
4, 200640, Control_c, 3, 64, 0
4, 200640, Note_off_c, 3, 73, 0
4, 200640, Note_off_c, 3, 61, 0
4, 200680, Control_c, 3, 64, 127
4, 200880, Note_on_c, 3, 70, 99
4, 200880, Note_on_c, 3, 64, 99
4, 201036, Note_off_c, 3, 64, 0
4, 201036, Note_off_c, 3, 70, 0
4, 201120, Note_on_c, 3, 61, 97
4, 201120, Note_on_c, 3, 76, 97
4, 201276, Note_off_c, 3, 76, 0
4, 201276, Note_off_c, 3, 61, 0
4, 201360, Control_c, 3, 64, 0
4, 205680, Control_c, 3, 64, 0
4, 205720, Control_c, 3, 64, 127
4, 205920, Note_on_c, 3, 59, 76
4, 205920, Note_on_c, 3, 74, 76
4, 206160, Note_off_c, 3, 74, 0
4, 206160, Note_off_c, 3, 59, 0
4, 206160, Note_on_c, 3, 54, 76
4, 206160, Note_on_c, 3, 78, 76
4, 206400, Control_c, 3, 64, 0
4, 206400, Note_off_c, 3, 78, 0
4, 206400, Note_off_c, 3, 54, 0
4, 206440, Control_c, 3, 64, 127
4, 206640, Note_on_c, 3, 59, 77
4, 206640, Note_on_c, 3, 74, 77
4, 206880, Note_off_c, 3, 74, 0
4, 206880, Note_off_c, 3, 59, 0
4, 206880, Note_on_c, 3, 54, 77
4, 206880, Note_on_c, 3, 78, 77
4, 207120, Control_c, 3, 64, 0
4, 207120, Note_off_c, 3, 78, 0
4, 207120, Note_off_c, 3, 54, 0
4, 207160, Control_c, 3, 64, 127
4, 207360, Note_on_c, 3, 58, 77
4, 207360, Note_on_c, 3, 73, 77
4, 207600, Note_off_c, 3, 73, 0
4, 207600, Note_off_c, 3, 58, 0
4, 207600, Note_on_c, 3, 54, 77
4, 207600, Note_on_c, 3, 78, 77
4, 207840, Control_c, 3, 64, 0
4, 207840, Note_off_c, 3, 78, 0
4, 207840, Note_off_c, 3, 54, 0
4, 207880, Control_c, 3, 64, 127
4, 208080, Note_on_c, 3, 61, 78
4, 208080, Note_on_c, 3, 76, 78
4, 208320, Note_off_c, 3, 76, 0
4, 208320, Note_off_c, 3, 61, 0
4, 208320, Note_on_c, 3, 54, 78
4, 208320, Note_on_c, 3, 78, 78
4, 208560, Control_c, 3, 64, 0
4, 208560, Note_off_c, 3, 78, 0
4, 208560, Note_off_c, 3, 54, 0
4, 208600, Control_c, 3, 64, 127
4, 208800, Note_on_c, 3, 59, 81
4, 208800, Note_on_c, 3, 74, 81
4, 209040, Note_off_c, 3, 74, 0
4, 209040, Note_off_c, 3, 59, 0
4, 209040, Note_on_c, 3, 54, 83
4, 209040, Note_on_c, 3, 78, 83
4, 209280, Control_c, 3, 64, 0
4, 209280, Note_off_c, 3, 78, 0
4, 209280, Note_off_c, 3, 54, 0
4, 209320, Control_c, 3, 64, 127
4, 209520, Note_on_c, 3, 59, 86
4, 209520, Note_on_c, 3, 74, 86
4, 209760, Note_off_c, 3, 74, 0
4, 209760, Note_off_c, 3, 59, 0
4, 209760, Note_on_c, 3, 54, 88
4, 209760, Note_on_c, 3, 78, 88
4, 210000, Control_c, 3, 64, 0
4, 210000, Note_off_c, 3, 78, 0
4, 210000, Note_off_c, 3, 54, 0
4, 210040, Control_c, 3, 64, 127
4, 210240, Note_on_c, 3, 58, 92
4, 210240, Note_on_c, 3, 73, 92
4, 210480, Note_off_c, 3, 73, 0
4, 210480, Note_off_c, 3, 58, 0
4, 210480, Note_on_c, 3, 54, 94
4, 210480, Note_on_c, 3, 78, 94
4, 210720, Control_c, 3, 64, 0
4, 210720, Note_off_c, 3, 78, 0
4, 210720, Note_off_c, 3, 54, 0
4, 210760, Control_c, 3, 64, 127
4, 210960, Note_on_c, 3, 58, 98
4, 210960, Note_on_c, 3, 73, 98
4, 211200, Note_off_c, 3, 73, 0
4, 211200, Note_off_c, 3, 58, 0
4, 211200, Note_on_c, 3, 55, 99
4, 211200, Note_on_c, 3, 79, 99
4, 211440, Control_c, 3, 64, 0
4, 211440, Note_off_c, 3, 79, 0
4, 211440, Note_off_c, 3, 55, 0
4, 211480, Control_c, 3, 64, 127
4, 211680, Note_on_c, 3, 58, 103
4, 211680, Note_on_c, 3, 73, 103
4, 211920, Note_off_c, 3, 73, 0
4, 211920, Note_off_c, 3, 58, 0
4, 211920, Note_on_c, 3, 55, 105
4, 211920, Note_on_c, 3, 79, 105
4, 212160, Control_c, 3, 64, 0
4, 212160, Note_off_c, 3, 79, 0
4, 212160, Note_off_c, 3, 55, 0
4, 212220, Control_c, 3, 64, 127
4, 216480, Control_c, 3, 64, 0
4, 225600, Control_c, 3, 64, 0
4, 231360, Control_c, 3, 64, 0
4, 231360, Note_on_c, 3, 51, 44
4, 231400, Control_c, 3, 64, 127
4, 231440, Note_off_c, 3, 51, 0
4, 231440, Note_on_c, 3, 54, 44
4, 231520, Note_off_c, 3, 54, 0
4, 231520, Note_on_c, 3, 59, 44
4, 231600, Control_c, 3, 64, 0
4, 231600, Note_off_c, 3, 59, 0
4, 231600, Note_on_c, 3, 51, 45
4, 231640, Control_c, 3, 64, 127
4, 231680, Note_off_c, 3, 51, 0
4, 231680, Note_on_c, 3, 54, 45
4, 231760, Note_off_c, 3, 54, 0
4, 231760, Note_on_c, 3, 59, 45
4, 231840, Control_c, 3, 64, 0
4, 231840, Note_off_c, 3, 59, 0
4, 231840, Note_on_c, 3, 51, 45
4, 231880, Control_c, 3, 64, 127
4, 231920, Note_off_c, 3, 51, 0
4, 231920, Note_on_c, 3, 54, 46
4, 232000, Note_off_c, 3, 54, 0
4, 232000, Note_on_c, 3, 59, 46
4, 232080, Control_c, 3, 64, 0
4, 232080, Note_off_c, 3, 59, 0
4, 232080, Note_on_c, 3, 51, 46
4, 232120, Control_c, 3, 64, 127
4, 232160, Note_off_c, 3, 51, 0
4, 232160, Note_on_c, 3, 54, 46
4, 232240, Note_off_c, 3, 54, 0
4, 232240, Note_on_c, 3, 59, 47
4, 232320, Control_c, 3, 64, 0
4, 232320, Note_off_c, 3, 59, 0
4, 232320, Note_on_c, 3, 52, 47
4, 232360, Control_c, 3, 64, 127
4, 232400, Note_off_c, 3, 52, 0
4, 232400, Note_on_c, 3, 54, 47
4, 232480, Note_off_c, 3, 54, 0
4, 232480, Note_on_c, 3, 58, 47
4, 232560, Control_c, 3, 64, 0
4, 232560, Note_off_c, 3, 58, 0
4, 232560, Note_on_c, 3, 52, 48
4, 232600, Control_c, 3, 64, 127
4, 232640, Note_off_c, 3, 52, 0
4, 232640, Note_on_c, 3, 54, 48
4, 232720, Note_off_c, 3, 54, 0
4, 232720, Note_on_c, 3, 58, 48
4, 232800, Control_c, 3, 64, 0
4, 232800, Note_off_c, 3, 58, 0
4, 232800, Note_on_c, 3, 52, 49
4, 232840, Control_c, 3, 64, 127
4, 232880, Note_off_c, 3, 52, 0
4, 232880, Note_on_c, 3, 54, 49
4, 232960, Note_off_c, 3, 54, 0
4, 232960, Note_on_c, 3, 58, 49
4, 233040, Control_c, 3, 64, 0
4, 233040, Note_off_c, 3, 58, 0
4, 233040, Note_on_c, 3, 51, 49
4, 233080, Control_c, 3, 64, 127
4, 233120, Note_off_c, 3, 51, 0
4, 233120, Note_on_c, 3, 54, 50
4, 233200, Note_off_c, 3, 54, 0
4, 233200, Note_on_c, 3, 59, 50
4, 233280, Control_c, 3, 64, 0
4, 233280, Note_off_c, 3, 59, 0
4, 233280, Note_on_c, 3, 51, 50
4, 233320, Control_c, 3, 64, 127
4, 233360, Note_off_c, 3, 51, 0
4, 233360, Note_on_c, 3, 54, 50
4, 233440, Note_off_c, 3, 54, 0
4, 233440, Note_on_c, 3, 59, 51
4, 233520, Control_c, 3, 64, 0
4, 233520, Note_off_c, 3, 59, 0
4, 233560, Control_c, 3, 64, 127
4, 233600, Note_on_c, 3, 56, 51
4, 233680, Note_off_c, 3, 56, 0
4, 233680, Note_on_c, 3, 59, 52
4, 233760, Control_c, 3, 64, 0
4, 233760, Note_off_c, 3, 59, 0
4, 233800, Control_c, 3, 64, 127
4, 233840, Note_on_c, 3, 56, 52
4, 233920, Note_off_c, 3, 56, 0
4, 233920, Note_on_c, 3, 59, 52
4, 234000, Control_c, 3, 64, 0
4, 234000, Note_off_c, 3, 59, 0
4, 234040, Control_c, 3, 64, 127
4, 234080, Note_on_c, 3, 56, 53
4, 234160, Note_off_c, 3, 56, 0
4, 234160, Note_on_c, 3, 61, 53
4, 234240, Control_c, 3, 64, 0
4, 234240, Note_off_c, 3, 61, 0
4, 234280, Control_c, 3, 64, 127
4, 234320, Note_on_c, 3, 56, 54
4, 234400, Note_off_c, 3, 56, 0
4, 234400, Note_on_c, 3, 61, 53
4, 234480, Control_c, 3, 64, 0
4, 234480, Note_off_c, 3, 61, 0
4, 234520, Control_c, 3, 64, 127
4, 234560, Note_on_c, 3, 58, 51
4, 234640, Note_off_c, 3, 58, 0
4, 234640, Note_on_c, 3, 61, 50
4, 234720, Control_c, 3, 64, 0
4, 234720, Note_off_c, 3, 61, 0
4, 234760, Control_c, 3, 64, 127
4, 234800, Note_on_c, 3, 58, 48
4, 234880, Note_off_c, 3, 58, 0
4, 234880, Note_on_c, 3, 61, 47
4, 234960, Control_c, 3, 64, 0
4, 234960, Note_off_c, 3, 61, 0
4, 235000, Control_c, 3, 64, 127
4, 235040, Note_on_c, 3, 56, 45
4, 235120, Note_off_c, 3, 56, 0
4, 235120, Note_on_c, 3, 58, 44
4, 235200, Control_c, 3, 64, 0
4, 235200, Note_off_c, 3, 58, 0
4, 235200, Note_on_c, 3, 51, 44
4, 235240, Control_c, 3, 64, 127
4, 235280, Note_off_c, 3, 51, 0
4, 235280, Note_on_c, 3, 54, 44
4, 235360, Note_off_c, 3, 54, 0
4, 235360, Note_on_c, 3, 59, 44
4, 235440, Control_c, 3, 64, 0
4, 235440, Note_off_c, 3, 59, 0
4, 235440, Note_on_c, 3, 51, 45
4, 235480, Control_c, 3, 64, 127
4, 235520, Note_off_c, 3, 51, 0
4, 235520, Note_on_c, 3, 54, 45
4, 235600, Note_off_c, 3, 54, 0
4, 235600, Note_on_c, 3, 59, 46
4, 235680, Control_c, 3, 64, 0
4, 235680, Note_off_c, 3, 59, 0
4, 235680, Note_on_c, 3, 51, 46
4, 235720, Control_c, 3, 64, 127
4, 235760, Note_off_c, 3, 51, 0
4, 235760, Note_on_c, 3, 54, 46
4, 235840, Note_off_c, 3, 54, 0
4, 235840, Note_on_c, 3, 59, 47
4, 235920, Control_c, 3, 64, 0
4, 235920, Note_off_c, 3, 59, 0
4, 235920, Note_on_c, 3, 51, 47
4, 235960, Control_c, 3, 64, 127
4, 236000, Note_off_c, 3, 51, 0
4, 236000, Note_on_c, 3, 54, 47
4, 236080, Note_off_c, 3, 54, 0
4, 236080, Note_on_c, 3, 59, 48
4, 236160, Control_c, 3, 64, 0
4, 236160, Note_off_c, 3, 59, 0
4, 236160, Note_on_c, 3, 52, 48
4, 236200, Control_c, 3, 64, 127
4, 236240, Note_off_c, 3, 52, 0
4, 236240, Note_on_c, 3, 54, 49
4, 236320, Note_off_c, 3, 54, 0
4, 236320, Note_on_c, 3, 58, 49
4, 236400, Control_c, 3, 64, 0
4, 236400, Note_off_c, 3, 58, 0
4, 236400, Note_on_c, 3, 52, 49
4, 236440, Control_c, 3, 64, 127
4, 236480, Note_off_c, 3, 52, 0
4, 236480, Note_on_c, 3, 54, 50
4, 236560, Note_off_c, 3, 54, 0
4, 236560, Note_on_c, 3, 58, 50
4, 236640, Control_c, 3, 64, 0
4, 236640, Note_off_c, 3, 58, 0
4, 236640, Note_on_c, 3, 52, 51
4, 236680, Control_c, 3, 64, 127
4, 236720, Note_off_c, 3, 52, 0
4, 236720, Note_on_c, 3, 54, 51
4, 236800, Note_off_c, 3, 54, 0
4, 236800, Note_on_c, 3, 58, 51
4, 236880, Control_c, 3, 64, 0
4, 236880, Note_off_c, 3, 58, 0
4, 236880, Note_on_c, 3, 51, 52
4, 236920, Control_c, 3, 64, 127
4, 236960, Note_off_c, 3, 51, 0
4, 236960, Note_on_c, 3, 54, 52
4, 237040, Note_off_c, 3, 54, 0
4, 237040, Note_on_c, 3, 59, 52
4, 237120, Control_c, 3, 64, 0
4, 237120, Note_off_c, 3, 59, 0
4, 237120, Note_on_c, 3, 51, 53
4, 237160, Control_c, 3, 64, 127
4, 237200, Note_off_c, 3, 51, 0
4, 237200, Note_on_c, 3, 54, 53
4, 237280, Note_off_c, 3, 54, 0
4, 237280, Note_on_c, 3, 59, 54
4, 237360, Control_c, 3, 64, 0
4, 237360, Note_off_c, 3, 59, 0
4, 237400, Control_c, 3, 64, 127
4, 237440, Note_on_c, 3, 56, 54
4, 237520, Note_off_c, 3, 56, 0
4, 237520, Note_on_c, 3, 59, 55
4, 237600, Control_c, 3, 64, 0
4, 237600, Note_off_c, 3, 59, 0
4, 237640, Control_c, 3, 64, 127
4, 237680, Note_on_c, 3, 56, 55
4, 237760, Note_off_c, 3, 56, 0
4, 237760, Note_on_c, 3, 59, 56
4, 237840, Control_c, 3, 64, 0
4, 237840, Note_off_c, 3, 59, 0
4, 237880, Control_c, 3, 64, 127
4, 237920, Note_on_c, 3, 56, 57
4, 238000, Note_off_c, 3, 56, 0
4, 238000, Note_on_c, 3, 61, 57
4, 238080, Control_c, 3, 64, 0
4, 238080, Note_off_c, 3, 61, 0
4, 238120, Control_c, 3, 64, 127
4, 238160, Note_on_c, 3, 58, 56
4, 238240, Note_off_c, 3, 58, 0
4, 238240, Note_on_c, 3, 61, 55
4, 238320, Control_c, 3, 64, 0
4, 238320, Note_off_c, 3, 61, 0
4, 238360, Control_c, 3, 64, 127
4, 238400, Note_on_c, 3, 56, 53
4, 238480, Note_off_c, 3, 56, 0
4, 238480, Note_on_c, 3, 58, 52
4, 238560, Control_c, 3, 64, 0
4, 238560, Note_off_c, 3, 58, 0
4, 238600, Control_c, 3, 64, 127
4, 238640, Note_on_c, 3, 51, 50
4, 238720, Note_off_c, 3, 51, 0
4, 238720, Note_on_c, 3, 54, 49
4, 238800, Note_off_c, 3, 54, 0
4, 238800, Note_on_c, 3, 59, 48
4, 238880, Note_off_c, 3, 59, 0
4, 238880, Note_on_c, 3, 54, 47
4, 238960, Note_off_c, 3, 54, 0
4, 238960, Note_on_c, 3, 51, 46
4, 239040, Control_c, 3, 64, 0
4, 239040, Note_off_c, 3, 51, 0
4, 254160, Control_c, 3, 64, 0
4, 254200, Control_c, 3, 64, 127
4, 254280, Note_on_c, 3, 66, 55
4, 254340, Note_off_c, 3, 66, 0
4, 254340, Note_on_c, 3, 70, 54
4, 254400, Control_c, 3, 64, 0
4, 254400, Note_off_c, 3, 70, 0
4, 254400, Note_on_c, 3, 71, 54
4, 254440, Control_c, 3, 64, 127
4, 254440, Note_off_c, 3, 71, 0
4, 254440, Note_on_c, 3, 78, 54
4, 254480, Note_off_c, 3, 78, 0
4, 254480, Note_on_c, 3, 75, 54
4, 254520, Note_off_c, 3, 75, 0
4, 254560, Note_on_c, 3, 78, 54
4, 254600, Note_off_c, 3, 78, 0
4, 254600, Note_on_c, 3, 75, 55
4, 254640, Control_c, 3, 64, 0
4, 254640, Note_off_c, 3, 75, 0
4, 254640, Note_on_c, 3, 71, 55
4, 254680, Control_c, 3, 64, 127
4, 254680, Note_off_c, 3, 71, 0
4, 254680, Note_on_c, 3, 78, 55
4, 254720, Note_off_c, 3, 78, 0
4, 254720, Note_on_c, 3, 75, 55
4, 254760, Note_off_c, 3, 75, 0
4, 254800, Note_on_c, 3, 78, 55
4, 254840, Note_off_c, 3, 78, 0
4, 254840, Note_on_c, 3, 75, 56
4, 254880, Control_c, 3, 64, 0
4, 254880, Note_off_c, 3, 75, 0
4, 254880, Note_on_c, 3, 71, 56
4, 254920, Control_c, 3, 64, 127
4, 254920, Note_off_c, 3, 71, 0
4, 254920, Note_on_c, 3, 78, 56
4, 254960, Note_off_c, 3, 78, 0
4, 254960, Note_on_c, 3, 75, 56
4, 255000, Note_off_c, 3, 75, 0
4, 255040, Note_on_c, 3, 78, 56
4, 255080, Note_off_c, 3, 78, 0
4, 255080, Note_on_c, 3, 75, 57
4, 255120, Control_c, 3, 64, 0
4, 255120, Note_off_c, 3, 75, 0
4, 255160, Control_c, 3, 64, 127
4, 255160, Note_on_c, 3, 78, 57
4, 255200, Note_off_c, 3, 78, 0
4, 255200, Note_on_c, 3, 75, 57
4, 255240, Note_off_c, 3, 75, 0
4, 255280, Note_on_c, 3, 78, 57
4, 255320, Note_off_c, 3, 78, 0
4, 255320, Note_on_c, 3, 75, 57
4, 255360, Control_c, 3, 64, 0
4, 255360, Note_off_c, 3, 75, 0
4, 255360, Note_on_c, 3, 73, 58
4, 255400, Control_c, 3, 64, 127
4, 255400, Note_off_c, 3, 73, 0
4, 255400, Note_on_c, 3, 82, 58
4, 255440, Note_off_c, 3, 82, 0
4, 255440, Note_on_c, 3, 78, 58
4, 255480, Note_off_c, 3, 78, 0
4, 255520, Note_on_c, 3, 82, 58
4, 255560, Note_off_c, 3, 82, 0
4, 255560, Note_on_c, 3, 78, 58
4, 255600, Control_c, 3, 64, 0
4, 255600, Note_off_c, 3, 78, 0
4, 255600, Note_on_c, 3, 73, 59
4, 255640, Control_c, 3, 64, 127
4, 255640, Note_off_c, 3, 73, 0
4, 255640, Note_on_c, 3, 82, 59
4, 255680, Note_off_c, 3, 82, 0
4, 255680, Note_on_c, 3, 78, 59
4, 255720, Note_off_c, 3, 78, 0
4, 255760, Note_on_c, 3, 82, 59
4, 255800, Note_off_c, 3, 82, 0
4, 255800, Note_on_c, 3, 78, 59
4, 255840, Control_c, 3, 64, 0
4, 255840, Note_off_c, 3, 78, 0
4, 255840, Note_on_c, 3, 73, 60
4, 255880, Control_c, 3, 64, 127
4, 255880, Note_off_c, 3, 73, 0
4, 255880, Note_on_c, 3, 82, 60
4, 255920, Note_off_c, 3, 82, 0
4, 255920, Note_on_c, 3, 78, 60
4, 255960, Note_off_c, 3, 78, 0
4, 256000, Note_on_c, 3, 82, 60
4, 256040, Note_off_c, 3, 82, 0
4, 256040, Note_on_c, 3, 78, 60
4, 256080, Control_c, 3, 64, 0
4, 256080, Note_off_c, 3, 78, 0
4, 256080, Note_on_c, 3, 73, 61
4, 256120, Control_c, 3, 64, 127
4, 256120, Note_off_c, 3, 73, 0
4, 256120, Note_on_c, 3, 83, 61
4, 256160, Note_off_c, 3, 83, 0
4, 256160, Note_on_c, 3, 78, 61
4, 256200, Note_off_c, 3, 78, 0
4, 256240, Note_on_c, 3, 83, 61
4, 256280, Note_off_c, 3, 83, 0
4, 256280, Note_on_c, 3, 78, 61
4, 256320, Control_c, 3, 64, 0
4, 256320, Note_off_c, 3, 78, 0
4, 256320, Note_on_c, 3, 75, 62
4, 256360, Control_c, 3, 64, 127
4, 256360, Note_off_c, 3, 75, 0
4, 256360, Note_on_c, 3, 83, 62
4, 256400, Note_off_c, 3, 83, 0
4, 256400, Note_on_c, 3, 78, 62
4, 256440, Note_off_c, 3, 78, 0
4, 256480, Note_on_c, 3, 83, 62
4, 256520, Note_off_c, 3, 83, 0
4, 256520, Note_on_c, 3, 78, 62
4, 256560, Control_c, 3, 64, 0
4, 256560, Note_off_c, 3, 78, 0
4, 256560, Note_on_c, 3, 71, 63
4, 256600, Control_c, 3, 64, 127
4, 256600, Note_off_c, 3, 71, 0
4, 256600, Note_on_c, 3, 80, 63
4, 256640, Note_off_c, 3, 80, 0
4, 256640, Note_on_c, 3, 76, 63
4, 256680, Note_off_c, 3, 76, 0
4, 256720, Note_on_c, 3, 80, 63
4, 256760, Note_off_c, 3, 80, 0
4, 256760, Note_on_c, 3, 76, 63
4, 256800, Control_c, 3, 64, 0
4, 256800, Note_off_c, 3, 76, 0
4, 256800, Note_on_c, 3, 71, 63
4, 256840, Control_c, 3, 64, 127
4, 256840, Note_off_c, 3, 71, 0
4, 256840, Note_on_c, 3, 80, 64
4, 256880, Note_off_c, 3, 80, 0
4, 256880, Note_on_c, 3, 76, 64
4, 256920, Note_off_c, 3, 76, 0
4, 256960, Note_on_c, 3, 80, 64
4, 257000, Note_off_c, 3, 80, 0
4, 257000, Note_on_c, 3, 76, 64
4, 257040, Control_c, 3, 64, 0
4, 257040, Note_off_c, 3, 76, 0
4, 257040, Note_on_c, 3, 76, 64
4, 257080, Control_c, 3, 64, 127
4, 257080, Note_off_c, 3, 76, 0
4, 257080, Note_on_c, 3, 85, 65
4, 257120, Note_off_c, 3, 85, 0
4, 257120, Note_on_c, 3, 80, 65
4, 257160, Note_off_c, 3, 80, 0
4, 257200, Note_on_c, 3, 85, 65
4, 257240, Note_off_c, 3, 85, 0
4, 257240, Note_on_c, 3, 80, 65
4, 257280, Control_c, 3, 64, 0
4, 257280, Note_off_c, 3, 80, 0
4, 257280, Note_on_c, 3, 76, 65
4, 257320, Control_c, 3, 64, 127
4, 257320, Note_off_c, 3, 76, 0
4, 257320, Note_on_c, 3, 85, 65
4, 257360, Note_off_c, 3, 85, 0
4, 257360, Note_on_c, 3, 80, 65
4, 257400, Note_off_c, 3, 80, 0
4, 257440, Note_on_c, 3, 85, 64
4, 257480, Note_off_c, 3, 85, 0
4, 257480, Note_on_c, 3, 80, 63
4, 257520, Control_c, 3, 64, 0
4, 257520, Note_off_c, 3, 80, 0
4, 257520, Note_on_c, 3, 76, 63
4, 257560, Control_c, 3, 64, 127
4, 257560, Note_off_c, 3, 76, 0
4, 257560, Note_on_c, 3, 82, 63
4, 257600, Note_off_c, 3, 82, 0
4, 257600, Note_on_c, 3, 76, 62
4, 257640, Note_off_c, 3, 76, 0
4, 257680, Note_on_c, 3, 82, 61
4, 257720, Note_off_c, 3, 82, 0
4, 257720, Note_on_c, 3, 76, 61
4, 257760, Control_c, 3, 64, 0
4, 257760, Note_off_c, 3, 76, 0
4, 257760, Note_on_c, 3, 73, 61
4, 257800, Control_c, 3, 64, 127
4, 257800, Note_off_c, 3, 73, 0
4, 257800, Note_on_c, 3, 76, 60
4, 257840, Note_off_c, 3, 76, 0
4, 257840, Note_on_c, 3, 73, 60
4, 257880, Note_off_c, 3, 73, 0
4, 257880, Note_on_c, 3, 70, 59
4, 257920, Note_off_c, 3, 70, 0
4, 257960, Note_on_c, 3, 76, 59
4, 258000, Control_c, 3, 64, 0
4, 258000, Note_off_c, 3, 76, 0
4, 258000, Note_on_c, 3, 73, 58
4, 258040, Control_c, 3, 64, 127
4, 258040, Note_off_c, 3, 73, 0
4, 258040, Note_on_c, 3, 76, 58
4, 258080, Note_off_c, 3, 76, 0
4, 258080, Note_on_c, 3, 73, 57
4, 258120, Note_off_c, 3, 73, 0
4, 258120, Note_on_c, 3, 70, 57
4, 258160, Note_off_c, 3, 70, 0
4, 258160, Note_on_c, 3, 76, 56
4, 258200, Note_off_c, 3, 76, 0
4, 258200, Note_on_c, 3, 73, 56
4, 258240, Control_c, 3, 64, 0
4, 258240, Note_off_c, 3, 73, 0
4, 258240, Note_on_c, 3, 71, 56
4, 258280, Control_c, 3, 64, 127
4, 258280, Note_off_c, 3, 71, 0
4, 258280, Note_on_c, 3, 78, 54
4, 258320, Note_off_c, 3, 78, 0
4, 258320, Note_on_c, 3, 75, 54
4, 258360, Note_off_c, 3, 75, 0
4, 258400, Note_on_c, 3, 78, 54
4, 258440, Note_off_c, 3, 78, 0
4, 258440, Note_on_c, 3, 75, 55
4, 258480, Control_c, 3, 64, 0
4, 258480, Note_off_c, 3, 75, 0
4, 258480, Note_on_c, 3, 71, 55
4, 258520, Control_c, 3, 64, 127
4, 258520, Note_off_c, 3, 71, 0
4, 258520, Note_on_c, 3, 78, 55
4, 258560, Note_off_c, 3, 78, 0
4, 258560, Note_on_c, 3, 75, 55
4, 258600, Note_off_c, 3, 75, 0
4, 258640, Note_on_c, 3, 78, 56
4, 258680, Note_off_c, 3, 78, 0
4, 258680, Note_on_c, 3, 75, 56
4, 258720, Control_c, 3, 64, 0
4, 258720, Note_off_c, 3, 75, 0
4, 258720, Note_on_c, 3, 71, 56
4, 258760, Control_c, 3, 64, 127
4, 258760, Note_off_c, 3, 71, 0
4, 258760, Note_on_c, 3, 78, 57
4, 258800, Note_off_c, 3, 78, 0
4, 258800, Note_on_c, 3, 75, 57
4, 258840, Note_off_c, 3, 75, 0
4, 258880, Note_on_c, 3, 78, 57
4, 258920, Note_off_c, 3, 78, 0
4, 258920, Note_on_c, 3, 75, 58
4, 258960, Control_c, 3, 64, 0
4, 258960, Note_off_c, 3, 75, 0
4, 259000, Control_c, 3, 64, 127
4, 259000, Note_on_c, 3, 78, 58
4, 259040, Note_off_c, 3, 78, 0
4, 259040, Note_on_c, 3, 75, 58
4, 259080, Note_off_c, 3, 75, 0
4, 259120, Note_on_c, 3, 78, 59
4, 259160, Note_off_c, 3, 78, 0
4, 259160, Note_on_c, 3, 75, 59
4, 259200, Control_c, 3, 64, 0
4, 259200, Note_off_c, 3, 75, 0
4, 259200, Note_on_c, 3, 73, 59
4, 259240, Control_c, 3, 64, 127
4, 259240, Note_off_c, 3, 73, 0
4, 259240, Note_on_c, 3, 82, 60
4, 259280, Note_off_c, 3, 82, 0
4, 259280, Note_on_c, 3, 78, 60
4, 259320, Note_off_c, 3, 78, 0
4, 259360, Note_on_c, 3, 82, 60
4, 259400, Note_off_c, 3, 82, 0
4, 259400, Note_on_c, 3, 78, 61
4, 259440, Control_c, 3, 64, 0
4, 259440, Note_off_c, 3, 78, 0
4, 259440, Note_on_c, 3, 73, 61
4, 259480, Control_c, 3, 64, 127
4, 259480, Note_off_c, 3, 73, 0
4, 259480, Note_on_c, 3, 82, 61
4, 259520, Note_off_c, 3, 82, 0
4, 259520, Note_on_c, 3, 78, 61
4, 259560, Note_off_c, 3, 78, 0
4, 259600, Note_on_c, 3, 82, 62
4, 259640, Note_off_c, 3, 82, 0
4, 259640, Note_on_c, 3, 78, 62
4, 259680, Control_c, 3, 64, 0
4, 259680, Note_off_c, 3, 78, 0
4, 259680, Note_on_c, 3, 73, 62
4, 259720, Control_c, 3, 64, 127
4, 259720, Note_off_c, 3, 73, 0
4, 259720, Note_on_c, 3, 82, 63
4, 259760, Note_off_c, 3, 82, 0
4, 259760, Note_on_c, 3, 78, 63
4, 259800, Note_off_c, 3, 78, 0
4, 259840, Note_on_c, 3, 82, 64
4, 259880, Note_off_c, 3, 82, 0
4, 259880, Note_on_c, 3, 78, 64
4, 259920, Control_c, 3, 64, 0
4, 259920, Note_off_c, 3, 78, 0
4, 259920, Note_on_c, 3, 75, 64
4, 259960, Control_c, 3, 64, 127
4, 259960, Note_off_c, 3, 75, 0
4, 259960, Note_on_c, 3, 83, 64
4, 260000, Note_off_c, 3, 83, 0
4, 260000, Note_on_c, 3, 78, 65
4, 260040, Note_off_c, 3, 78, 0
4, 260080, Note_on_c, 3, 83, 65
4, 260120, Note_off_c, 3, 83, 0
4, 260120, Note_on_c, 3, 78, 65
4, 260160, Control_c, 3, 64, 0
4, 260160, Note_off_c, 3, 78, 0
4, 260160, Note_on_c, 3, 75, 66
4, 260200, Control_c, 3, 64, 127
4, 260200, Note_off_c, 3, 75, 0
4, 260200, Note_on_c, 3, 83, 66
4, 260240, Note_off_c, 3, 83, 0
4, 260240, Note_on_c, 3, 78, 66
4, 260280, Note_off_c, 3, 78, 0
4, 260320, Note_on_c, 3, 83, 67
4, 260360, Note_off_c, 3, 83, 0
4, 260360, Note_on_c, 3, 78, 67
4, 260400, Control_c, 3, 64, 0
4, 260400, Note_off_c, 3, 78, 0
4, 260400, Note_on_c, 3, 71, 67
4, 260440, Control_c, 3, 64, 127
4, 260440, Note_off_c, 3, 71, 0
4, 260440, Note_on_c, 3, 80, 67
4, 260480, Note_off_c, 3, 80, 0
4, 260480, Note_on_c, 3, 76, 68
4, 260520, Note_off_c, 3, 76, 0
4, 260560, Note_on_c, 3, 80, 68
4, 260600, Note_off_c, 3, 80, 0
4, 260600, Note_on_c, 3, 76, 68
4, 260640, Control_c, 3, 64, 0
4, 260640, Note_off_c, 3, 76, 0
4, 260640, Note_on_c, 3, 71, 69
4, 260680, Control_c, 3, 64, 127
4, 260680, Note_off_c, 3, 71, 0
4, 260680, Note_on_c, 3, 80, 69
4, 260720, Note_off_c, 3, 80, 0
4, 260720, Note_on_c, 3, 76, 69
4, 260760, Note_off_c, 3, 76, 0
4, 260800, Note_on_c, 3, 80, 70
4, 260840, Note_off_c, 3, 80, 0
4, 260840, Note_on_c, 3, 76, 70
4, 260880, Control_c, 3, 64, 0
4, 260880, Note_off_c, 3, 76, 0
4, 260880, Note_on_c, 3, 76, 70
4, 260920, Control_c, 3, 64, 127
4, 260920, Note_off_c, 3, 76, 0
4, 260920, Note_on_c, 3, 85, 70
4, 260960, Note_off_c, 3, 85, 0
4, 260960, Note_on_c, 3, 80, 71
4, 261000, Note_off_c, 3, 80, 0
4, 261040, Note_on_c, 3, 85, 71
4, 261080, Note_off_c, 3, 85, 0
4, 261080, Note_on_c, 3, 80, 71
4, 261120, Control_c, 3, 64, 0
4, 261120, Note_off_c, 3, 80, 0
4, 261120, Note_on_c, 3, 76, 73
4, 261160, Control_c, 3, 64, 127
4, 261160, Note_off_c, 3, 76, 0
4, 261160, Note_on_c, 3, 85, 73
4, 261200, Note_off_c, 3, 85, 0
4, 261200, Note_on_c, 3, 80, 72
4, 261240, Note_off_c, 3, 80, 0
4, 261280, Note_on_c, 3, 85, 71
4, 261320, Note_off_c, 3, 85, 0
4, 261320, Note_on_c, 3, 82, 70
4, 261360, Control_c, 3, 64, 0
4, 261360, Note_off_c, 3, 82, 0
4, 261360, Note_on_c, 3, 76, 70
4, 261400, Control_c, 3, 64, 127
4, 261400, Note_off_c, 3, 76, 0
4, 261400, Note_on_c, 3, 82, 69
4, 261440, Note_off_c, 3, 82, 0
4, 261440, Note_on_c, 3, 76, 69
4, 261480, Note_off_c, 3, 76, 0
4, 261520, Note_on_c, 3, 82, 67
4, 261560, Note_off_c, 3, 82, 0
4, 261560, Note_on_c, 3, 76, 67
4, 261600, Control_c, 3, 64, 0
4, 261600, Note_off_c, 3, 76, 0
4, 261600, Note_on_c, 3, 75, 66
4, 261640, Control_c, 3, 64, 127
4, 261640, Note_off_c, 3, 75, 0
4, 261640, Note_on_c, 3, 78, 66
4, 261680, Note_off_c, 3, 78, 0
4, 261680, Note_on_c, 3, 75, 65
4, 261720, Note_off_c, 3, 75, 0
4, 261760, Note_on_c, 3, 78, 64
4, 261800, Note_off_c, 3, 78, 0
4, 261800, Note_on_c, 3, 75, 63
4, 261840, Note_off_c, 3, 75, 0
4, 261840, Note_on_c, 3, 71, 63
4, 261880, Note_off_c, 3, 71, 0
4, 261880, Note_on_c, 3, 66, 62
4, 261920, Note_off_c, 3, 66, 0
4, 261920, Note_on_c, 3, 63, 61
4, 261960, Note_off_c, 3, 63, 0
4, 261960, Note_on_c, 3, 59, 61
4, 262000, Note_off_c, 3, 59, 0
4, 262000, Note_on_c, 3, 63, 60
4, 262040, Note_off_c, 3, 63, 0
4, 262040, Note_on_c, 3, 66, 60
4, 262080, Control_c, 3, 64, 0
4, 262080, Control_c, 3, 64, 0
4, 262080, Note_off_c, 3, 66, 0
4, 262120, Control_c, 3, 64, 127
4, 262160, Note_on_c, 3, 63, 60
4, 262240, Note_off_c, 3, 63, 0
4, 262240, Note_on_c, 3, 66, 60
4, 262320, Control_c, 3, 64, 0
4, 262320, Note_off_c, 3, 66, 0
4, 262320, Note_on_c, 3, 65, 61
4, 262360, Control_c, 3, 64, 127
4, 262400, Note_off_c, 3, 65, 0
4, 262400, Note_on_c, 3, 66, 61
4, 262480, Note_off_c, 3, 66, 0
4, 262480, Note_on_c, 3, 63, 61
4, 262560, Control_c, 3, 64, 0
4, 262560, Note_off_c, 3, 63, 0
4, 262600, Control_c, 3, 64, 127
4, 262640, Note_on_c, 3, 63, 62
4, 262720, Note_off_c, 3, 63, 0
4, 262720, Note_on_c, 3, 66, 62
4, 262800, Control_c, 3, 64, 0
4, 262800, Note_off_c, 3, 66, 0
4, 262840, Control_c, 3, 64, 127
4, 262880, Note_on_c, 3, 59, 63
4, 262960, Note_off_c, 3, 59, 0
4, 262960, Note_on_c, 3, 54, 63
4, 263040, Control_c, 3, 64, 0
4, 263040, Note_off_c, 3, 54, 0
4, 263080, Control_c, 3, 64, 127
4, 263120, Note_on_c, 3, 61, 64
4, 263200, Note_off_c, 3, 61, 0
4, 263200, Note_on_c, 3, 66, 64
4, 263280, Control_c, 3, 64, 0
4, 263280, Note_off_c, 3, 66, 0
4, 263280, Note_on_c, 3, 65, 65
4, 263320, Control_c, 3, 64, 127
4, 263360, Note_off_c, 3, 65, 0
4, 263360, Note_on_c, 3, 66, 65
4, 263440, Note_off_c, 3, 66, 0
4, 263440, Note_on_c, 3, 58, 65
4, 263440, Note_on_c, 3, 61, 65
4, 263520, Control_c, 3, 64, 0
4, 263520, Note_off_c, 3, 61, 0
4, 263520, Note_off_c, 3, 58, 0
4, 263560, Control_c, 3, 64, 127
4, 263600, Note_on_c, 3, 58, 66
4, 263680, Note_off_c, 3, 58, 0
4, 263680, Note_on_c, 3, 61, 66
4, 263760, Control_c, 3, 64, 0
4, 263760, Note_off_c, 3, 61, 0
4, 263800, Control_c, 3, 64, 127
4, 263840, Note_on_c, 3, 59, 67
4, 263920, Note_off_c, 3, 59, 0
4, 263920, Note_on_c, 3, 63, 67
4, 264000, Control_c, 3, 64, 0
4, 264000, Note_off_c, 3, 63, 0
4, 264040, Control_c, 3, 64, 127
4, 264080, Note_on_c, 3, 59, 68
4, 264160, Note_off_c, 3, 59, 0
4, 264160, Note_on_c, 3, 63, 68
4, 264240, Control_c, 3, 64, 0
4, 264240, Note_off_c, 3, 63, 0
4, 264240, Note_on_c, 3, 62, 69
4, 264280, Control_c, 3, 64, 127
4, 264320, Note_off_c, 3, 62, 0
4, 264320, Note_on_c, 3, 63, 69
4, 264400, Note_off_c, 3, 63, 0
4, 264400, Note_on_c, 3, 59, 69
4, 264420, Note_on_c, 3, 73, 69
4, 264435, Note_on_c, 3, 71, 69
4, 264445, Note_off_c, 3, 73, 0
4, 264450, Note_on_c, 3, 70, 69
4, 264460, Note_off_c, 3, 71, 0
4, 264465, Note_on_c, 3, 71, 70
4, 264475, Note_off_c, 3, 70, 0
4, 264480, Control_c, 3, 64, 0
4, 264480, Note_off_c, 3, 59, 0
4, 264490, Note_off_c, 3, 71, 0
4, 264520, Control_c, 3, 64, 127
4, 264560, Note_on_c, 3, 59, 70
4, 264640, Note_off_c, 3, 59, 0
4, 264640, Note_on_c, 3, 63, 70
4, 264720, Control_c, 3, 64, 0
4, 264720, Note_off_c, 3, 63, 0
4, 264760, Control_c, 3, 64, 127
4, 264800, Note_on_c, 3, 56, 71
4, 264880, Note_off_c, 3, 56, 0
4, 264880, Note_on_c, 3, 61, 71
4, 264960, Control_c, 3, 64, 0
4, 264960, Note_off_c, 3, 61, 0
4, 265000, Control_c, 3, 64, 127
4, 265040, Note_on_c, 3, 58, 71
4, 265120, Note_off_c, 3, 58, 0
4, 265120, Note_on_c, 3, 61, 70
4, 265200, Control_c, 3, 64, 0
4, 265200, Note_off_c, 3, 61, 0
4, 265200, Note_on_c, 3, 60, 69
4, 265240, Control_c, 3, 64, 127
4, 265280, Note_off_c, 3, 60, 0
4, 265280, Note_on_c, 3, 61, 68
4, 265360, Note_off_c, 3, 61, 0
4, 265360, Note_on_c, 3, 58, 67
4, 265440, Control_c, 3, 64, 0
4, 265440, Note_off_c, 3, 58, 0
4, 265480, Control_c, 3, 64, 127
4, 265520, Note_on_c, 3, 58, 66
4, 265600, Note_off_c, 3, 58, 0
4, 265600, Note_on_c, 3, 61, 65
4, 265680, Control_c, 3, 64, 0
4, 265680, Note_off_c, 3, 61, 0
4, 265720, Control_c, 3, 64, 127
4, 265760, Note_on_c, 3, 58, 63
4, 265840, Note_off_c, 3, 58, 0
4, 265840, Note_on_c, 3, 64, 63
4, 265920, Control_c, 3, 64, 0
4, 265920, Note_off_c, 3, 64, 0
4, 265960, Control_c, 3, 64, 127
4, 266000, Note_on_c, 3, 63, 60
4, 266080, Note_off_c, 3, 63, 0
4, 266080, Note_on_c, 3, 66, 61
4, 266160, Control_c, 3, 64, 0
4, 266160, Note_off_c, 3, 66, 0
4, 266160, Note_on_c, 3, 65, 61
4, 266200, Control_c, 3, 64, 127
4, 266240, Note_off_c, 3, 65, 0
4, 266240, Note_on_c, 3, 66, 62
4, 266320, Note_off_c, 3, 66, 0
4, 266320, Note_on_c, 3, 63, 62
4, 266400, Control_c, 3, 64, 0
4, 266400, Note_off_c, 3, 63, 0
4, 266440, Control_c, 3, 64, 127
4, 266480, Note_on_c, 3, 63, 63
4, 266560, Note_off_c, 3, 63, 0
4, 266560, Note_on_c, 3, 66, 64
4, 266640, Control_c, 3, 64, 0
4, 266640, Note_off_c, 3, 66, 0
4, 266680, Control_c, 3, 64, 127
4, 266720, Note_on_c, 3, 59, 65
4, 266800, Note_off_c, 3, 59, 0
4, 266800, Note_on_c, 3, 54, 65
4, 266880, Control_c, 3, 64, 0
4, 266880, Note_off_c, 3, 54, 0
4, 266920, Control_c, 3, 64, 127
4, 266960, Note_on_c, 3, 61, 66
4, 267040, Note_off_c, 3, 61, 0
4, 267040, Note_on_c, 3, 66, 67
4, 267120, Control_c, 3, 64, 0
4, 267120, Note_off_c, 3, 66, 0
4, 267120, Note_on_c, 3, 65, 67
4, 267160, Control_c, 3, 64, 127
4, 267200, Note_off_c, 3, 65, 0
4, 267200, Note_on_c, 3, 66, 67
4, 267280, Note_off_c, 3, 66, 0
4, 267280, Note_on_c, 3, 58, 68
4, 267280, Note_on_c, 3, 61, 68
4, 267360, Control_c, 3, 64, 0
4, 267360, Note_off_c, 3, 61, 0
4, 267360, Note_off_c, 3, 58, 0
4, 267400, Control_c, 3, 64, 127
4, 267440, Note_on_c, 3, 58, 69
4, 267520, Note_off_c, 3, 58, 0
4, 267520, Note_on_c, 3, 61, 69
4, 267600, Control_c, 3, 64, 0
4, 267600, Note_off_c, 3, 61, 0
4, 267640, Control_c, 3, 64, 127
4, 267680, Note_on_c, 3, 59, 70
4, 267760, Note_off_c, 3, 59, 0
4, 267760, Note_on_c, 3, 63, 71
4, 267840, Control_c, 3, 64, 0
4, 267840, Note_off_c, 3, 63, 0
4, 267880, Control_c, 3, 64, 127
4, 267920, Note_on_c, 3, 59, 72
4, 268000, Note_off_c, 3, 59, 0
4, 268000, Note_on_c, 3, 63, 72
4, 268080, Control_c, 3, 64, 0
4, 268080, Note_off_c, 3, 63, 0
4, 268080, Note_on_c, 3, 62, 73
4, 268120, Control_c, 3, 64, 127
4, 268160, Note_off_c, 3, 62, 0
4, 268160, Note_on_c, 3, 63, 73
4, 268240, Note_off_c, 3, 63, 0
4, 268240, Note_on_c, 3, 59, 74
4, 268320, Control_c, 3, 64, 0
4, 268320, Note_off_c, 3, 59, 0
4, 268360, Control_c, 3, 64, 127
4, 268400, Note_on_c, 3, 59, 75
4, 268480, Note_off_c, 3, 59, 0
4, 268480, Note_on_c, 3, 63, 75
4, 268560, Control_c, 3, 64, 0
4, 268560, Note_off_c, 3, 63, 0
4, 268600, Control_c, 3, 64, 127
4, 268640, Note_on_c, 3, 56, 76
4, 268720, Note_off_c, 3, 56, 0
4, 268720, Note_on_c, 3, 61, 77
4, 268800, Control_c, 3, 64, 0
4, 268800, Note_off_c, 3, 61, 0
4, 268840, Control_c, 3, 64, 127
4, 268880, Note_on_c, 3, 58, 75
4, 268960, Note_off_c, 3, 58, 0
4, 268960, Note_on_c, 3, 61, 74
4, 269040, Control_c, 3, 64, 0
4, 269040, Note_off_c, 3, 61, 0
4, 269040, Note_on_c, 3, 63, 72
4, 269080, Control_c, 3, 64, 127
4, 269120, Note_off_c, 3, 63, 0
4, 269120, Note_on_c, 3, 64, 70
4, 269200, Note_off_c, 3, 64, 0
4, 269200, Note_on_c, 3, 58, 69
4, 269280, Control_c, 3, 64, 0
4, 269280, Note_off_c, 3, 58, 0
4, 269320, Control_c, 3, 64, 127
4, 269360, Note_on_c, 3, 59, 66
4, 269440, Note_off_c, 3, 59, 0
4, 269440, Note_on_c, 3, 63, 64
4, 269520, Control_c, 3, 64, 0
4, 269520, Note_off_c, 3, 63, 0
4, 269560, Control_c, 3, 64, 127
4, 269600, Note_on_c, 3, 54, 60
4, 269680, Note_off_c, 3, 54, 0
4, 269680, Note_on_c, 3, 59, 54
4, 269760, Control_c, 3, 64, 0
4, 269760, Note_off_c, 3, 59, 0
4, 269800, Control_c, 3, 64, 127
4, 269820, Note_on_c, 3, 54, 42
4, 269880, Note_off_c, 3, 54, 0
4, 269880, Note_on_c, 3, 63, 42
4, 269940, Note_off_c, 3, 63, 0
4, 269940, Note_on_c, 3, 54, 42
4, 270000, Control_c, 3, 64, 0
4, 270000, Note_off_c, 3, 54, 0
4, 270040, Control_c, 3, 64, 127
4, 270060, Note_on_c, 3, 54, 42
4, 270120, Note_off_c, 3, 54, 0
4, 270120, Note_on_c, 3, 63, 43
4, 270180, Note_off_c, 3, 63, 0
4, 270180, Note_on_c, 3, 54, 43
4, 270240, Control_c, 3, 64, 0
4, 270240, Note_off_c, 3, 54, 0
4, 270280, Control_c, 3, 64, 127
4, 270300, Note_on_c, 3, 54, 43
4, 270360, Note_off_c, 3, 54, 0
4, 270360, Note_on_c, 3, 63, 43
4, 270420, Note_off_c, 3, 63, 0
4, 270420, Note_on_c, 3, 54, 43
4, 270480, Control_c, 3, 64, 0
4, 270480, Note_off_c, 3, 54, 0
4, 270520, Control_c, 3, 64, 127
4, 270540, Note_on_c, 3, 54, 44
4, 270600, Note_off_c, 3, 54, 0
4, 270600, Note_on_c, 3, 63, 44
4, 270660, Note_off_c, 3, 63, 0
4, 270660, Note_on_c, 3, 54, 44
4, 270720, Control_c, 3, 64, 0
4, 270720, Note_off_c, 3, 54, 0
4, 270760, Control_c, 3, 64, 127
4, 270780, Note_on_c, 3, 54, 44
4, 270840, Note_off_c, 3, 54, 0
4, 270840, Note_on_c, 3, 61, 45
4, 270900, Note_off_c, 3, 61, 0
4, 270900, Note_on_c, 3, 54, 45
4, 270960, Control_c, 3, 64, 0
4, 270960, Note_off_c, 3, 54, 0
4, 271000, Control_c, 3, 64, 127
4, 271020, Note_on_c, 3, 54, 45
4, 271080, Note_off_c, 3, 54, 0
4, 271080, Note_on_c, 3, 61, 45
4, 271140, Note_off_c, 3, 61, 0
4, 271140, Note_on_c, 3, 54, 45
4, 271200, Control_c, 3, 64, 0
4, 271200, Note_off_c, 3, 54, 0
4, 271240, Control_c, 3, 64, 127
4, 271260, Note_on_c, 3, 54, 46
4, 271320, Note_off_c, 3, 54, 0
4, 271320, Note_on_c, 3, 61, 46
4, 271380, Note_off_c, 3, 61, 0
4, 271380, Note_on_c, 3, 54, 46
4, 271440, Control_c, 3, 64, 0
4, 271440, Note_off_c, 3, 54, 0
4, 271480, Control_c, 3, 64, 127
4, 271500, Note_on_c, 3, 54, 46
4, 271560, Note_off_c, 3, 54, 0
4, 271560, Note_on_c, 3, 63, 47
4, 271620, Note_off_c, 3, 63, 0
4, 271620, Note_on_c, 3, 54, 47
4, 271680, Control_c, 3, 64, 0
4, 271680, Note_off_c, 3, 54, 0
4, 271720, Control_c, 3, 64, 127
4, 271740, Note_on_c, 3, 54, 47
4, 271800, Note_off_c, 3, 54, 0
4, 271860, Note_on_c, 3, 54, 47
4, 271920, Control_c, 3, 64, 0
4, 271920, Note_off_c, 3, 54, 0
4, 271960, Control_c, 3, 64, 127
4, 271980, Note_on_c, 3, 54, 48
4, 272040, Note_off_c, 3, 54, 0
4, 272040, Note_on_c, 3, 63, 48
4, 272100, Note_off_c, 3, 63, 0
4, 272100, Note_on_c, 3, 54, 48
4, 272160, Control_c, 3, 64, 0
4, 272160, Note_off_c, 3, 54, 0
4, 272200, Control_c, 3, 64, 127
4, 272220, Note_on_c, 3, 56, 48
4, 272280, Note_off_c, 3, 56, 0
4, 272280, Note_on_c, 3, 59, 48
4, 272340, Note_off_c, 3, 59, 0
4, 272340, Note_on_c, 3, 56, 49
4, 272400, Control_c, 3, 64, 0
4, 272400, Note_off_c, 3, 56, 0
4, 272440, Control_c, 3, 64, 127
4, 272460, Note_on_c, 3, 56, 49
4, 272520, Note_off_c, 3, 56, 0
4, 272520, Note_on_c, 3, 59, 49
4, 272580, Note_off_c, 3, 59, 0
4, 272580, Note_on_c, 3, 56, 49
4, 272640, Control_c, 3, 64, 0
4, 272640, Note_off_c, 3, 56, 0
4, 272680, Control_c, 3, 64, 127
4, 272700, Note_on_c, 3, 56, 49
4, 272760, Note_off_c, 3, 56, 0
4, 272820, Note_on_c, 3, 56, 48
4, 272880, Control_c, 3, 64, 0
4, 272880, Note_off_c, 3, 56, 0
4, 272920, Control_c, 3, 64, 127
4, 272940, Note_on_c, 3, 56, 46
4, 273000, Note_off_c, 3, 56, 0
4, 273000, Note_on_c, 3, 64, 46
4, 273060, Note_off_c, 3, 64, 0
4, 273060, Note_on_c, 3, 56, 45
4, 273120, Control_c, 3, 64, 0
4, 273120, Note_off_c, 3, 56, 0
4, 273160, Control_c, 3, 64, 127
4, 273180, Note_on_c, 3, 58, 44
4, 273240, Note_off_c, 3, 58, 0
4, 273240, Note_on_c, 3, 64, 43
4, 273300, Note_off_c, 3, 64, 0
4, 273300, Note_on_c, 3, 61, 43
4, 273360, Control_c, 3, 64, 0
4, 273360, Note_off_c, 3, 61, 0
4, 273360, Note_on_c, 3, 64, 42
4, 273400, Control_c, 3, 64, 127
4, 273420, Note_off_c, 3, 64, 0
4, 273420, Note_on_c, 3, 61, 42
4, 273480, Note_off_c, 3, 61, 0
4, 273480, Note_on_c, 3, 64, 41
4, 273540, Note_off_c, 3, 64, 0
4, 273540, Note_on_c, 3, 61, 40
4, 273600, Control_c, 3, 64, 0
4, 273600, Note_off_c, 3, 61, 0
4, 273640, Control_c, 3, 64, 127
4, 273660, Note_on_c, 3, 54, 40
4, 273720, Note_off_c, 3, 54, 0
4, 273720, Note_on_c, 3, 63, 40
4, 273780, Note_off_c, 3, 63, 0
4, 273780, Note_on_c, 3, 54, 40
4, 273840, Control_c, 3, 64, 0
4, 273840, Note_off_c, 3, 54, 0
4, 273880, Control_c, 3, 64, 127
4, 273900, Note_on_c, 3, 54, 41
4, 273960, Note_off_c, 3, 54, 0
4, 273960, Note_on_c, 3, 63, 41
4, 274020, Note_off_c, 3, 63, 0
4, 274020, Note_on_c, 3, 54, 41
4, 274080, Control_c, 3, 64, 0
4, 274080, Note_off_c, 3, 54, 0
4, 274120, Control_c, 3, 64, 127
4, 274140, Note_on_c, 3, 54, 42
4, 274200, Note_off_c, 3, 54, 0
4, 274200, Note_on_c, 3, 63, 42
4, 274260, Note_off_c, 3, 63, 0
4, 274260, Note_on_c, 3, 54, 43
4, 274320, Control_c, 3, 64, 0
4, 274320, Note_off_c, 3, 54, 0
4, 274360, Control_c, 3, 64, 127
4, 274380, Note_on_c, 3, 54, 43
4, 274440, Note_off_c, 3, 54, 0
4, 274440, Note_on_c, 3, 63, 43
4, 274500, Note_off_c, 3, 63, 0
4, 274500, Note_on_c, 3, 54, 44
4, 274560, Control_c, 3, 64, 0
4, 274560, Note_off_c, 3, 54, 0
4, 274600, Control_c, 3, 64, 127
4, 274620, Note_on_c, 3, 54, 44
4, 274680, Note_off_c, 3, 54, 0
4, 274680, Note_on_c, 3, 61, 45
4, 274740, Note_off_c, 3, 61, 0
4, 274740, Note_on_c, 3, 54, 45
4, 274800, Control_c, 3, 64, 0
4, 274800, Note_off_c, 3, 54, 0
4, 274840, Control_c, 3, 64, 127
4, 274860, Note_on_c, 3, 54, 45
4, 274920, Note_off_c, 3, 54, 0
4, 274920, Note_on_c, 3, 61, 46
4, 274980, Note_off_c, 3, 61, 0
4, 274980, Note_on_c, 3, 54, 46
4, 275040, Control_c, 3, 64, 0
4, 275040, Note_off_c, 3, 54, 0
4, 275080, Control_c, 3, 64, 127
4, 275100, Note_on_c, 3, 54, 47
4, 275160, Note_off_c, 3, 54, 0
4, 275160, Note_on_c, 3, 61, 47
4, 275220, Note_off_c, 3, 61, 0
4, 275220, Note_on_c, 3, 54, 47
4, 275280, Control_c, 3, 64, 0
4, 275280, Note_off_c, 3, 54, 0
4, 275320, Control_c, 3, 64, 127
4, 275340, Note_on_c, 3, 54, 48
4, 275400, Note_off_c, 3, 54, 0
4, 275400, Note_on_c, 3, 63, 48
4, 275460, Note_off_c, 3, 63, 0
4, 275460, Note_on_c, 3, 54, 48
4, 275520, Control_c, 3, 64, 0
4, 275520, Note_off_c, 3, 54, 0
4, 275560, Control_c, 3, 64, 127
4, 275580, Note_on_c, 3, 54, 49
4, 275640, Note_off_c, 3, 54, 0
4, 275700, Note_on_c, 3, 54, 50
4, 275760, Control_c, 3, 64, 0
4, 275760, Note_off_c, 3, 54, 0
4, 275800, Control_c, 3, 64, 127
4, 275820, Note_on_c, 3, 54, 50
4, 275880, Note_off_c, 3, 54, 0
4, 275880, Note_on_c, 3, 63, 50
4, 275940, Note_off_c, 3, 63, 0
4, 275940, Note_on_c, 3, 54, 51
4, 276000, Control_c, 3, 64, 0
4, 276000, Note_off_c, 3, 54, 0
4, 276040, Control_c, 3, 64, 127
4, 276060, Note_on_c, 3, 56, 51
4, 276120, Note_off_c, 3, 56, 0
4, 276120, Note_on_c, 3, 59, 52
4, 276180, Note_off_c, 3, 59, 0
4, 276180, Note_on_c, 3, 56, 52
4, 276240, Control_c, 3, 64, 0
4, 276240, Note_off_c, 3, 56, 0
4, 276280, Control_c, 3, 64, 127
4, 276300, Note_on_c, 3, 56, 52
4, 276360, Note_off_c, 3, 56, 0
4, 276360, Note_on_c, 3, 59, 53
4, 276420, Note_off_c, 3, 59, 0
4, 276420, Note_on_c, 3, 56, 53
4, 276480, Control_c, 3, 64, 0
4, 276480, Note_off_c, 3, 56, 0
4, 276520, Control_c, 3, 64, 127
4, 276540, Note_on_c, 3, 56, 53
4, 276600, Note_off_c, 3, 56, 0
4, 276660, Note_on_c, 3, 56, 51
4, 276720, Control_c, 3, 64, 0
4, 276720, Note_off_c, 3, 56, 0
4, 276760, Control_c, 3, 64, 127
4, 276780, Note_on_c, 3, 58, 50
4, 276840, Note_off_c, 3, 58, 0
4, 276840, Note_on_c, 3, 64, 49
4, 276900, Note_off_c, 3, 64, 0
4, 276900, Note_on_c, 3, 58, 48
4, 276960, Control_c, 3, 64, 0
4, 276960, Note_off_c, 3, 58, 0
4, 277000, Control_c, 3, 64, 127
4, 277020, Note_on_c, 3, 54, 46
4, 277080, Note_off_c, 3, 54, 0
4, 277080, Note_on_c, 3, 63, 46
4, 277140, Note_off_c, 3, 63, 0
4, 277140, Note_on_c, 3, 54, 45
4, 277200, Control_c, 3, 64, 0
4, 277200, Note_off_c, 3, 54, 0
4, 277240, Control_c, 3, 64, 127
4, 277260, Note_on_c, 3, 54, 43
4, 277320, Note_off_c, 3, 54, 0
4, 277320, Note_on_c, 3, 63, 43
4, 277380, Note_off_c, 3, 63, 0
4, 277380, Note_on_c, 3, 54, 42
4, 277440, Control_c, 3, 64, 0
4, 277440, Note_off_c, 3, 54, 0
4, 277520, Note_on_c, 3, 63, 42
4, 277560, Note_off_c, 3, 63, 0
4, 277600, Note_on_c, 3, 63, 42
4, 277640, Note_off_c, 3, 63, 0
4, 277760, Note_on_c, 3, 63, 43
4, 277800, Note_off_c, 3, 63, 0
4, 277840, Note_on_c, 3, 63, 43
4, 277880, Note_off_c, 3, 63, 0
4, 278000, Note_on_c, 3, 63, 44
4, 278040, Note_off_c, 3, 63, 0
4, 278080, Note_on_c, 3, 63, 44
4, 278120, Note_off_c, 3, 63, 0
4, 278200, Note_on_c, 3, 64, 44
4, 278240, Note_off_c, 3, 64, 0
4, 278480, Note_on_c, 3, 64, 45
4, 278520, Note_off_c, 3, 64, 0
4, 278560, Note_on_c, 3, 64, 46
4, 278600, Note_off_c, 3, 64, 0
4, 278720, Note_on_c, 3, 64, 46
4, 278760, Note_off_c, 3, 64, 0
4, 278800, Note_on_c, 3, 64, 46
4, 278840, Note_off_c, 3, 64, 0
4, 278960, Note_on_c, 3, 64, 47
4, 279000, Note_off_c, 3, 64, 0
4, 279040, Note_on_c, 3, 64, 47
4, 279080, Note_off_c, 3, 64, 0
4, 279440, Note_on_c, 3, 63, 49
4, 279480, Note_off_c, 3, 63, 0
4, 279520, Note_on_c, 3, 63, 49
4, 279560, Note_off_c, 3, 63, 0
4, 279680, Note_on_c, 3, 66, 49
4, 279720, Note_off_c, 3, 66, 0
4, 279760, Note_on_c, 3, 66, 50
4, 279800, Note_off_c, 3, 66, 0
4, 279920, Note_on_c, 3, 66, 50
4, 279960, Note_off_c, 3, 66, 0
4, 280000, Note_on_c, 3, 66, 51
4, 280040, Note_off_c, 3, 66, 0
4, 280160, Note_on_c, 3, 64, 51
4, 280200, Note_off_c, 3, 64, 0
4, 280240, Note_on_c, 3, 64, 51
4, 280280, Note_off_c, 3, 64, 0
4, 280400, Note_on_c, 3, 64, 53
4, 280440, Note_off_c, 3, 64, 0
4, 280480, Note_on_c, 3, 64, 52
4, 280520, Note_off_c, 3, 64, 0
4, 280640, Note_on_c, 3, 64, 50
4, 280680, Note_off_c, 3, 64, 0
4, 280720, Note_on_c, 3, 64, 49
4, 280760, Note_off_c, 3, 64, 0
4, 280880, Note_on_c, 3, 61, 48
4, 280920, Note_off_c, 3, 61, 0
4, 280960, Note_on_c, 3, 61, 47
4, 281000, Note_off_c, 3, 61, 0
4, 281120, Note_on_c, 3, 61, 45
4, 281160, Note_off_c, 3, 61, 0
4, 281200, Note_on_c, 3, 61, 44
4, 281240, Note_off_c, 3, 61, 0
4, 281360, Note_on_c, 3, 63, 44
4, 281400, Note_off_c, 3, 63, 0
4, 281440, Note_on_c, 3, 63, 45
4, 281480, Note_off_c, 3, 63, 0
4, 281600, Note_on_c, 3, 63, 46
4, 281640, Note_off_c, 3, 63, 0
4, 281680, Note_on_c, 3, 63, 46
4, 281720, Note_off_c, 3, 63, 0
4, 281840, Note_on_c, 3, 63, 48
4, 281880, Note_off_c, 3, 63, 0
4, 281920, Note_on_c, 3, 63, 48
4, 281960, Note_off_c, 3, 63, 0
4, 282040, Note_on_c, 3, 64, 49
4, 282080, Note_off_c, 3, 64, 0
4, 282320, Note_on_c, 3, 64, 51
4, 282360, Note_off_c, 3, 64, 0
4, 282400, Note_on_c, 3, 64, 52
4, 282440, Note_off_c, 3, 64, 0
4, 282560, Note_on_c, 3, 64, 53
4, 282600, Note_off_c, 3, 64, 0
4, 282640, Note_on_c, 3, 64, 54
4, 282680, Note_off_c, 3, 64, 0
4, 282800, Note_on_c, 3, 64, 55
4, 282840, Note_off_c, 3, 64, 0
4, 282880, Note_on_c, 3, 64, 55
4, 282920, Note_off_c, 3, 64, 0
4, 283280, Note_on_c, 3, 63, 58
4, 283320, Note_off_c, 3, 63, 0
4, 283360, Note_on_c, 3, 63, 59
4, 283400, Note_off_c, 3, 63, 0
4, 283520, Note_on_c, 3, 66, 60
4, 283560, Note_off_c, 3, 66, 0
4, 283600, Note_on_c, 3, 66, 61
4, 283640, Note_off_c, 3, 66, 0
4, 283760, Note_on_c, 3, 66, 62
4, 283800, Note_off_c, 3, 66, 0
4, 283840, Note_on_c, 3, 66, 63
4, 283880, Note_off_c, 3, 66, 0
4, 284000, Note_on_c, 3, 64, 64
4, 284040, Note_off_c, 3, 64, 0
4, 284080, Note_on_c, 3, 64, 64
4, 284120, Note_off_c, 3, 64, 0
4, 284240, Note_on_c, 3, 64, 62
4, 284280, Note_off_c, 3, 64, 0
4, 284320, Note_on_c, 3, 64, 61
4, 284360, Note_off_c, 3, 64, 0
4, 284480, Note_on_c, 3, 64, 59
4, 284520, Note_off_c, 3, 64, 0
4, 284560, Note_on_c, 3, 64, 58
4, 284600, Note_off_c, 3, 64, 0
4, 284720, Note_on_c, 3, 66, 56
4, 284760, Note_off_c, 3, 66, 0
4, 284760, Note_on_c, 3, 63, 56
4, 284800, Note_off_c, 3, 63, 0
4, 284840, Note_on_c, 3, 71, 55
4, 284880, Note_off_c, 3, 71, 0
4, 285120, Control_c, 3, 64, 0
4, 285360, Note_on_c, 3, 63, 52
4, 285360, Note_on_c, 3, 66, 52
4, 285516, Note_off_c, 3, 66, 0
4, 285516, Note_off_c, 3, 63, 0
4, 285600, Note_on_c, 3, 66, 53
4, 285600, Note_on_c, 3, 63, 53
4, 285756, Note_off_c, 3, 63, 0
4, 285756, Note_off_c, 3, 66, 0
4, 285840, Note_on_c, 3, 66, 53
4, 285840, Note_on_c, 3, 63, 53
4, 285996, Note_off_c, 3, 63, 0
4, 285996, Note_off_c, 3, 66, 0
4, 286080, Note_on_c, 3, 63, 54
4, 286080, Note_on_c, 3, 66, 54
4, 286236, Note_off_c, 3, 66, 0
4, 286236, Note_off_c, 3, 63, 0
4, 286320, Note_on_c, 3, 66, 54
4, 286320, Note_on_c, 3, 63, 54
4, 286476, Note_off_c, 3, 63, 0
4, 286476, Note_off_c, 3, 66, 0
4, 286560, Note_on_c, 3, 63, 55
4, 286560, Note_on_c, 3, 66, 55
4, 286716, Note_off_c, 3, 66, 0
4, 286716, Note_off_c, 3, 63, 0
4, 286800, Note_on_c, 3, 63, 55
4, 286800, Note_on_c, 3, 66, 55
4, 286956, Note_off_c, 3, 66, 0
4, 286956, Note_off_c, 3, 63, 0
4, 287040, Note_on_c, 3, 66, 56
4, 287040, Note_on_c, 3, 64, 56
4, 287196, Note_off_c, 3, 64, 0
4, 287196, Note_off_c, 3, 66, 0
4, 287280, Note_on_c, 3, 66, 57
4, 287280, Note_on_c, 3, 64, 57
4, 287436, Note_off_c, 3, 64, 0
4, 287436, Note_off_c, 3, 66, 0
4, 287520, Note_on_c, 3, 66, 57
4, 287520, Note_on_c, 3, 64, 57
4, 287676, Note_off_c, 3, 64, 0
4, 287676, Note_off_c, 3, 66, 0
4, 287760, Note_on_c, 3, 66, 58
4, 287760, Note_on_c, 3, 64, 58
4, 287916, Note_off_c, 3, 64, 0
4, 287916, Note_off_c, 3, 66, 0
4, 288000, Note_on_c, 3, 66, 58
4, 288000, Note_on_c, 3, 64, 58
4, 288156, Note_off_c, 3, 64, 0
4, 288156, Note_off_c, 3, 66, 0
4, 288240, Note_on_c, 3, 66, 59
4, 288240, Note_on_c, 3, 64, 59
4, 288396, Note_off_c, 3, 64, 0
4, 288396, Note_off_c, 3, 66, 0
4, 288480, Note_on_c, 3, 63, 59
4, 288480, Note_on_c, 3, 66, 59
4, 288636, Note_off_c, 3, 66, 0
4, 288636, Note_off_c, 3, 63, 0
4, 288720, Note_on_c, 3, 66, 60
4, 288720, Note_on_c, 3, 63, 60
4, 288876, Note_off_c, 3, 63, 0
4, 288876, Note_off_c, 3, 66, 0
4, 288960, Note_on_c, 3, 63, 61
4, 288960, Note_on_c, 3, 66, 61
4, 289116, Note_off_c, 3, 66, 0
4, 289116, Note_off_c, 3, 63, 0
4, 289200, Note_on_c, 3, 66, 61
4, 289200, Note_on_c, 3, 63, 61
4, 289356, Note_off_c, 3, 63, 0
4, 289356, Note_off_c, 3, 66, 0
4, 289440, Note_on_c, 3, 63, 62
4, 289440, Note_on_c, 3, 66, 62
4, 289596, Note_off_c, 3, 66, 0
4, 289596, Note_off_c, 3, 63, 0
4, 289680, Note_on_c, 3, 66, 62
4, 289680, Note_on_c, 3, 63, 62
4, 289836, Note_off_c, 3, 63, 0
4, 289836, Note_off_c, 3, 66, 0
4, 289920, Note_on_c, 3, 64, 63
4, 289920, Note_on_c, 3, 68, 63
4, 290076, Note_off_c, 3, 68, 0
4, 290076, Note_off_c, 3, 64, 0
4, 290160, Note_on_c, 3, 68, 63
4, 290160, Note_on_c, 3, 64, 63
4, 290316, Note_off_c, 3, 64, 0
4, 290316, Note_off_c, 3, 68, 0
4, 290400, Note_on_c, 3, 71, 64
4, 290400, Note_on_c, 3, 68, 64
4, 290400, Note_on_c, 3, 64, 64
4, 290556, Note_off_c, 3, 64, 0
4, 290556, Note_off_c, 3, 68, 0
4, 290556, Note_off_c, 3, 71, 0
4, 290640, Note_on_c, 3, 71, 65
4, 290640, Note_on_c, 3, 68, 65
4, 290640, Note_on_c, 3, 64, 65
4, 290796, Note_off_c, 3, 64, 0
4, 290796, Note_off_c, 3, 68, 0
4, 290796, Note_off_c, 3, 71, 0
4, 290880, Note_on_c, 3, 66, 65
4, 290880, Note_on_c, 3, 64, 65
4, 290880, Note_on_c, 3, 70, 65
4, 291036, Note_off_c, 3, 70, 0
4, 291036, Note_off_c, 3, 64, 0
4, 291036, Note_off_c, 3, 66, 0
4, 291120, Note_on_c, 3, 66, 64
4, 291120, Note_on_c, 3, 70, 64
4, 291120, Note_on_c, 3, 64, 64
4, 291276, Note_off_c, 3, 64, 0
4, 291276, Note_off_c, 3, 70, 0
4, 291276, Note_off_c, 3, 66, 0
4, 291360, Note_on_c, 3, 66, 63
4, 291360, Note_on_c, 3, 70, 63
4, 291360, Note_on_c, 3, 64, 63
4, 291516, Note_off_c, 3, 64, 0
4, 291516, Note_off_c, 3, 70, 0
4, 291516, Note_off_c, 3, 66, 0
4, 291600, Note_on_c, 3, 66, 62
4, 291600, Note_on_c, 3, 70, 62
4, 291600, Note_on_c, 3, 64, 62
4, 291756, Note_off_c, 3, 64, 0
4, 291756, Note_off_c, 3, 70, 0
4, 291756, Note_off_c, 3, 66, 0
4, 291840, Note_on_c, 3, 64, 61
4, 291840, Note_on_c, 3, 70, 61
4, 291840, Note_on_c, 3, 66, 61
4, 291996, Note_off_c, 3, 66, 0
4, 291996, Note_off_c, 3, 70, 0
4, 291996, Note_off_c, 3, 64, 0
4, 292080, Note_on_c, 3, 73, 59
4, 292080, Note_on_c, 3, 66, 59
4, 292080, Note_on_c, 3, 70, 59
4, 292236, Note_off_c, 3, 70, 0
4, 292236, Note_off_c, 3, 66, 0
4, 292236, Note_off_c, 3, 73, 0
4, 292320, Note_on_c, 3, 66, 58
4, 292320, Note_on_c, 3, 70, 58
4, 292320, Note_on_c, 3, 73, 58
4, 292476, Note_off_c, 3, 73, 0
4, 292476, Note_off_c, 3, 70, 0
4, 292476, Note_off_c, 3, 66, 0
4, 292560, Note_on_c, 3, 73, 57
4, 292560, Note_on_c, 3, 66, 57
4, 292560, Note_on_c, 3, 70, 57
4, 292716, Note_off_c, 3, 70, 0
4, 292716, Note_off_c, 3, 66, 0
4, 292716, Note_off_c, 3, 73, 0
4, 292800, Note_on_c, 3, 66, 56
4, 292800, Note_on_c, 3, 71, 56
4, 292956, Note_off_c, 3, 71, 0
4, 292956, Note_off_c, 3, 66, 0
4, 293040, Note_on_c, 3, 75, 56
4, 293040, Note_on_c, 3, 78, 56
4, 293196, Note_off_c, 3, 78, 0
4, 293196, Note_off_c, 3, 75, 0
4, 293280, Note_on_c, 3, 75, 57
4, 293280, Note_on_c, 3, 78, 57
4, 293436, Note_off_c, 3, 78, 0
4, 293436, Note_off_c, 3, 75, 0
4, 293520, Note_on_c, 3, 78, 58
4, 293520, Note_on_c, 3, 75, 58
4, 293676, Note_off_c, 3, 75, 0
4, 293676, Note_off_c, 3, 78, 0
4, 293760, Note_on_c, 3, 78, 58
4, 293760, Note_on_c, 3, 75, 58
4, 293760, Note_on_c, 3, 71, 58
4, 293916, Note_off_c, 3, 71, 0
4, 293916, Note_off_c, 3, 75, 0
4, 293916, Note_off_c, 3, 78, 0
4, 294000, Note_on_c, 3, 75, 59
4, 294000, Note_on_c, 3, 78, 59
4, 294000, Note_on_c, 3, 71, 59
4, 294156, Note_off_c, 3, 71, 0
4, 294156, Note_off_c, 3, 78, 0
4, 294156, Note_off_c, 3, 75, 0
4, 294240, Note_on_c, 3, 78, 60
4, 294240, Note_on_c, 3, 75, 60
4, 294240, Note_on_c, 3, 70, 60
4, 294396, Note_off_c, 3, 70, 0
4, 294396, Note_off_c, 3, 75, 0
4, 294396, Note_off_c, 3, 78, 0
4, 294480, Note_on_c, 3, 78, 61
4, 294480, Note_on_c, 3, 75, 61
4, 294480, Note_on_c, 3, 71, 61
4, 294636, Note_off_c, 3, 71, 0
4, 294636, Note_off_c, 3, 75, 0
4, 294636, Note_off_c, 3, 78, 0
4, 294720, Note_on_c, 3, 78, 61
4, 294720, Note_on_c, 3, 73, 61
4, 294720, Note_on_c, 3, 76, 61
4, 294876, Note_off_c, 3, 76, 0
4, 294876, Note_off_c, 3, 73, 0
4, 294876, Note_off_c, 3, 78, 0
4, 294960, Note_on_c, 3, 78, 62
4, 294960, Note_on_c, 3, 76, 62
4, 295116, Note_off_c, 3, 76, 0
4, 295116, Note_off_c, 3, 78, 0
4, 295200, Note_on_c, 3, 78, 63
4, 295200, Note_on_c, 3, 76, 63
4, 295356, Note_off_c, 3, 76, 0
4, 295356, Note_off_c, 3, 78, 0
4, 295440, Note_on_c, 3, 78, 64
4, 295440, Note_on_c, 3, 76, 64
4, 295596, Note_off_c, 3, 76, 0
4, 295596, Note_off_c, 3, 78, 0
4, 295680, Note_on_c, 3, 78, 64
4, 295680, Note_on_c, 3, 73, 64
4, 295680, Note_on_c, 3, 76, 64
4, 295836, Note_off_c, 3, 76, 0
4, 295836, Note_off_c, 3, 73, 0
4, 295836, Note_off_c, 3, 78, 0
4, 295920, Note_on_c, 3, 73, 65
4, 295920, Note_on_c, 3, 76, 65
4, 295920, Note_on_c, 3, 78, 65
4, 296076, Note_off_c, 3, 78, 0
4, 296076, Note_off_c, 3, 76, 0
4, 296076, Note_off_c, 3, 73, 0
4, 296160, Note_on_c, 3, 75, 66
4, 296160, Note_on_c, 3, 78, 66
4, 296316, Note_off_c, 3, 78, 0
4, 296316, Note_off_c, 3, 75, 0
4, 296400, Note_on_c, 3, 75, 67
4, 296400, Note_on_c, 3, 78, 67
4, 296556, Note_off_c, 3, 78, 0
4, 296556, Note_off_c, 3, 75, 0
4, 296640, Note_on_c, 3, 75, 67
4, 296640, Note_on_c, 3, 78, 67
4, 296796, Note_off_c, 3, 78, 0
4, 296796, Note_off_c, 3, 75, 0
4, 296880, Note_on_c, 3, 75, 68
4, 296880, Note_on_c, 3, 78, 68
4, 297036, Note_off_c, 3, 78, 0
4, 297036, Note_off_c, 3, 75, 0
4, 297120, Note_on_c, 3, 75, 69
4, 297120, Note_on_c, 3, 78, 69
4, 297276, Note_off_c, 3, 78, 0
4, 297276, Note_off_c, 3, 75, 0
4, 297360, Note_on_c, 3, 75, 69
4, 297360, Note_on_c, 3, 78, 69
4, 297516, Note_off_c, 3, 78, 0
4, 297516, Note_off_c, 3, 75, 0
4, 297600, Note_on_c, 3, 80, 70
4, 297600, Note_on_c, 3, 76, 70
4, 297756, Note_off_c, 3, 76, 0
4, 297756, Note_off_c, 3, 80, 0
4, 297840, Note_on_c, 3, 80, 71
4, 297840, Note_on_c, 3, 76, 71
4, 297996, Note_off_c, 3, 76, 0
4, 297996, Note_off_c, 3, 80, 0
4, 298080, Note_on_c, 3, 83, 72
4, 298080, Note_on_c, 3, 76, 72
4, 298080, Note_on_c, 3, 80, 72
4, 298236, Note_off_c, 3, 80, 0
4, 298236, Note_off_c, 3, 76, 0
4, 298236, Note_off_c, 3, 83, 0
4, 298320, Note_on_c, 3, 83, 72
4, 298320, Note_on_c, 3, 80, 72
4, 298320, Note_on_c, 3, 76, 72
4, 298476, Note_off_c, 3, 76, 0
4, 298476, Note_off_c, 3, 80, 0
4, 298476, Note_off_c, 3, 83, 0
4, 298560, Note_on_c, 3, 82, 73
4, 298560, Note_on_c, 3, 78, 73
4, 298560, Note_on_c, 3, 76, 73
4, 298716, Note_off_c, 3, 76, 0
4, 298716, Note_off_c, 3, 78, 0
4, 298716, Note_off_c, 3, 82, 0
4, 298800, Note_on_c, 3, 78, 74
4, 298800, Note_on_c, 3, 82, 74
4, 298800, Note_on_c, 3, 76, 74
4, 298956, Note_off_c, 3, 76, 0
4, 298956, Note_off_c, 3, 82, 0
4, 298956, Note_off_c, 3, 78, 0
4, 299040, Note_on_c, 3, 78, 75
4, 299040, Note_on_c, 3, 82, 75
4, 299040, Note_on_c, 3, 76, 75
4, 299196, Note_off_c, 3, 76, 0
4, 299196, Note_off_c, 3, 82, 0
4, 299196, Note_off_c, 3, 78, 0
4, 299280, Note_on_c, 3, 78, 75
4, 299280, Note_on_c, 3, 76, 75
4, 299280, Note_on_c, 3, 82, 75
4, 299436, Note_off_c, 3, 82, 0
4, 299436, Note_off_c, 3, 76, 0
4, 299436, Note_off_c, 3, 78, 0
4, 299520, Note_on_c, 3, 78, 76
4, 299520, Note_on_c, 3, 76, 76
4, 299520, Note_on_c, 3, 82, 76
4, 299676, Note_off_c, 3, 82, 0
4, 299676, Note_off_c, 3, 76, 0
4, 299676, Note_off_c, 3, 78, 0
4, 299760, Note_on_c, 3, 78, 77
4, 299760, Note_on_c, 3, 76, 77
4, 299760, Note_on_c, 3, 82, 77
4, 299916, Note_off_c, 3, 82, 0
4, 299916, Note_off_c, 3, 76, 0
4, 299916, Note_off_c, 3, 78, 0
4, 300000, Note_on_c, 3, 78, 78
4, 300000, Note_on_c, 3, 76, 78
4, 300000, Note_on_c, 3, 82, 78
4, 300156, Note_off_c, 3, 82, 0
4, 300156, Note_off_c, 3, 76, 0
4, 300156, Note_off_c, 3, 78, 0
4, 300240, Note_on_c, 3, 78, 78
4, 300240, Note_on_c, 3, 76, 78
4, 300240, Note_on_c, 3, 82, 78
4, 300396, Note_off_c, 3, 82, 0
4, 300396, Note_off_c, 3, 76, 0
4, 300396, Note_off_c, 3, 78, 0
4, 300480, Note_on_c, 3, 82, 79
4, 300480, Note_on_c, 3, 78, 79
4, 300480, Note_on_c, 3, 76, 79
4, 301920, Note_off_c, 3, 76, 0
4, 301920, Note_off_c, 3, 78, 0
4, 301920, Note_off_c, 3, 82, 0
4, 323520, Control_c, 3, 64, 0
4, 323580, Control_c, 3, 64, 127
4, 323680, Note_on_c, 3, 64, 40
4, 323840, Note_off_c, 3, 64, 0
4, 323840, Note_on_c, 3, 67, 41
4, 324000, Control_c, 3, 64, 0
4, 324000, Note_off_c, 3, 67, 0
4, 324060, Control_c, 3, 64, 127
4, 324160, Note_on_c, 3, 64, 41
4, 324320, Note_off_c, 3, 64, 0
4, 324320, Note_on_c, 3, 67, 42
4, 324480, Control_c, 3, 64, 0
4, 324480, Note_off_c, 3, 67, 0
4, 324540, Control_c, 3, 64, 127
4, 324640, Note_on_c, 3, 64, 42
4, 324800, Note_off_c, 3, 64, 0
4, 324800, Note_on_c, 3, 67, 43
4, 324960, Control_c, 3, 64, 0
4, 324960, Note_off_c, 3, 67, 0
4, 324960, Note_on_c, 3, 65, 43
4, 325120, Note_on_c, 3, 67, 44
4, 325275, Note_off_c, 3, 65, 0
4, 325280, Note_off_c, 3, 67, 0
4, 325280, Note_on_c, 3, 64, 44
4, 325440, Control_c, 3, 64, 0
4, 325440, Note_off_c, 3, 64, 0
4, 325500, Control_c, 3, 64, 127
4, 325600, Note_on_c, 3, 62, 45
4, 325760, Note_off_c, 3, 62, 0
4, 325760, Note_on_c, 3, 67, 45
4, 325920, Control_c, 3, 64, 0
4, 325920, Note_off_c, 3, 67, 0
4, 325980, Control_c, 3, 64, 127
4, 326080, Note_on_c, 3, 62, 46
4, 326240, Note_off_c, 3, 62, 0
4, 326240, Note_on_c, 3, 67, 46
4, 326400, Control_c, 3, 64, 0
4, 326400, Note_off_c, 3, 67, 0
4, 326460, Control_c, 3, 64, 127
4, 326560, Note_on_c, 3, 62, 47
4, 326720, Note_off_c, 3, 62, 0
4, 326720, Note_on_c, 3, 67, 47
4, 326880, Control_c, 3, 64, 0
4, 326880, Note_off_c, 3, 67, 0
4, 326940, Control_c, 3, 64, 127
4, 327040, Note_on_c, 3, 64, 48
4, 327200, Note_off_c, 3, 64, 0
4, 327200, Note_on_c, 3, 67, 48
4, 327360, Control_c, 3, 64, 0
4, 327360, Note_off_c, 3, 67, 0
4, 327420, Control_c, 3, 64, 127
4, 327520, Note_on_c, 3, 64, 49
4, 327680, Note_off_c, 3, 64, 0
4, 327680, Note_on_c, 3, 60, 50
4, 327840, Control_c, 3, 64, 0
4, 327840, Note_off_c, 3, 60, 0
4, 327900, Control_c, 3, 64, 127
4, 328000, Note_on_c, 3, 60, 50
4, 328160, Note_off_c, 3, 60, 0
4, 328160, Note_on_c, 3, 64, 51
4, 328320, Control_c, 3, 64, 0
4, 328320, Note_off_c, 3, 64, 0
4, 328380, Control_c, 3, 64, 127
4, 328480, Note_on_c, 3, 60, 51
4, 328640, Note_off_c, 3, 60, 0
4, 328640, Note_on_c, 3, 64, 52
4, 328800, Control_c, 3, 64, 0
4, 328800, Note_off_c, 3, 64, 0
4, 328860, Control_c, 3, 64, 127
4, 328960, Note_on_c, 3, 57, 53
4, 329120, Note_off_c, 3, 57, 0
4, 329120, Note_on_c, 3, 62, 53
4, 329280, Control_c, 3, 64, 0
4, 329280, Note_off_c, 3, 62, 0
4, 329340, Control_c, 3, 64, 127
4, 329440, Note_on_c, 3, 59, 53
4, 329600, Note_off_c, 3, 59, 0
4, 329600, Note_on_c, 3, 62, 52
4, 329760, Control_c, 3, 64, 0
4, 329760, Note_off_c, 3, 62, 0
4, 329820, Control_c, 3, 64, 127
4, 329920, Note_on_c, 3, 59, 51
4, 330080, Note_off_c, 3, 59, 0
4, 330080, Note_on_c, 3, 62, 50
4, 330240, Control_c, 3, 64, 0
4, 330240, Note_off_c, 3, 62, 0
4, 330300, Control_c, 3, 64, 127
4, 330400, Note_on_c, 3, 59, 49
4, 330560, Note_off_c, 3, 59, 0
4, 330560, Note_on_c, 3, 62, 48
4, 330720, Control_c, 3, 64, 0
4, 330720, Note_off_c, 3, 62, 0
4, 330720, Note_on_c, 3, 56, 48
4, 330780, Control_c, 3, 64, 127
4, 330880, Note_off_c, 3, 56, 0
4, 330880, Note_on_c, 3, 59, 47
4, 331040, Note_off_c, 3, 59, 0
4, 331040, Note_on_c, 3, 62, 46
4, 331200, Control_c, 3, 64, 0
4, 331200, Note_off_c, 3, 62, 0
4, 331200, Note_on_c, 3, 56, 46
4, 331260, Control_c, 3, 64, 127
4, 331360, Note_off_c, 3, 56, 0
4, 331360, Note_on_c, 3, 59, 46
4, 331520, Note_off_c, 3, 59, 0
4, 331520, Note_on_c, 3, 62, 47
4, 331680, Control_c, 3, 64, 0
4, 331680, Note_off_c, 3, 62, 0
4, 331680, Note_on_c, 3, 56, 47
4, 331740, Control_c, 3, 64, 127
4, 331840, Note_off_c, 3, 56, 0
4, 331840, Note_on_c, 3, 59, 48
4, 332000, Note_off_c, 3, 59, 0
4, 332000, Note_on_c, 3, 62, 49
4, 332160, Control_c, 3, 64, 0
4, 332160, Note_off_c, 3, 62, 0
4, 332160, Note_on_c, 3, 56, 49
4, 332220, Control_c, 3, 64, 127
4, 332320, Note_off_c, 3, 56, 0
4, 332320, Note_on_c, 3, 59, 50
4, 332480, Note_off_c, 3, 59, 0
4, 332480, Note_on_c, 3, 62, 51
4, 332640, Control_c, 3, 64, 0
4, 332640, Note_off_c, 3, 62, 0
4, 332640, Note_on_c, 3, 56, 51
4, 332700, Control_c, 3, 64, 127
4, 332800, Note_off_c, 3, 56, 0
4, 332800, Note_on_c, 3, 59, 52
4, 332960, Note_off_c, 3, 59, 0
4, 332960, Note_on_c, 3, 61, 53
4, 333120, Control_c, 3, 64, 0
4, 333120, Note_off_c, 3, 61, 0
4, 333120, Note_on_c, 3, 56, 53
4, 333180, Control_c, 3, 64, 127
4, 333280, Note_off_c, 3, 56, 0
4, 333280, Note_on_c, 3, 59, 54
4, 333440, Note_off_c, 3, 59, 0
4, 333440, Note_on_c, 3, 61, 55
4, 333600, Control_c, 3, 64, 0
4, 333600, Note_off_c, 3, 61, 0
4, 333600, Note_on_c, 3, 53, 55
4, 333600, Note_on_c, 3, 56, 55
4, 333660, Control_c, 3, 64, 127
4, 333760, Note_off_c, 3, 56, 0
4, 333760, Note_off_c, 3, 53, 0
4, 333760, Note_on_c, 3, 59, 56
4, 333920, Note_off_c, 3, 59, 0
4, 333920, Note_on_c, 3, 61, 57
4, 334080, Control_c, 3, 64, 0
4, 334080, Note_off_c, 3, 61, 0
4, 334140, Control_c, 3, 64, 127
4, 334240, Note_on_c, 3, 58, 58
4, 334400, Note_off_c, 3, 58, 0
4, 334400, Note_on_c, 3, 61, 59
4, 334560, Control_c, 3, 64, 0
4, 334560, Note_off_c, 3, 61, 0
4, 334620, Control_c, 3, 64, 127
4, 334720, Note_on_c, 3, 58, 60
4, 334880, Note_off_c, 3, 58, 0
4, 334880, Note_on_c, 3, 61, 61
4, 335040, Control_c, 3, 64, 0
4, 335040, Note_off_c, 3, 61, 0
4, 335100, Control_c, 3, 64, 127
4, 335160, Note_on_c, 3, 59, 64
4, 335280, Note_off_c, 3, 59, 0
4, 335280, Note_on_c, 3, 54, 63
4, 335400, Note_off_c, 3, 54, 0
4, 335400, Note_on_c, 3, 59, 62
4, 335520, Control_c, 3, 64, 0
4, 335520, Note_off_c, 3, 59, 0
4, 335580, Control_c, 3, 64, 127
4, 335640, Note_on_c, 3, 59, 60
4, 335760, Note_off_c, 3, 59, 0
4, 335760, Note_on_c, 3, 56, 59
4, 335880, Note_off_c, 3, 56, 0
4, 335880, Note_on_c, 3, 59, 58
4, 336000, Control_c, 3, 64, 0
4, 336000, Note_off_c, 3, 59, 0
4, 336060, Control_c, 3, 64, 127
4, 336120, Note_on_c, 3, 63, 56
4, 336240, Note_off_c, 3, 63, 0
4, 336240, Note_on_c, 3, 59, 55
4, 336360, Note_off_c, 3, 59, 0
4, 336360, Note_on_c, 3, 63, 55
4, 336480, Control_c, 3, 64, 0
4, 336480, Note_off_c, 3, 63, 0
4, 336540, Control_c, 3, 64, 127
4, 336600, Note_on_c, 3, 64, 53
4, 336720, Note_off_c, 3, 64, 0
4, 336720, Note_on_c, 3, 61, 52
4, 336840, Note_off_c, 3, 61, 0
4, 336840, Note_on_c, 3, 64, 51
4, 336960, Control_c, 3, 64, 0
4, 336960, Note_off_c, 3, 64, 0
4, 336960, Note_on_c, 3, 75, 52
4, 336960, Note_on_c, 3, 71, 52
4, 337116, Note_off_c, 3, 71, 0
4, 337116, Note_off_c, 3, 75, 0
4, 337200, Note_on_c, 3, 78, 52
4, 337200, Note_on_c, 3, 75, 52
4, 337200, Note_on_c, 3, 71, 52
4, 337356, Note_off_c, 3, 71, 0
4, 337356, Note_off_c, 3, 75, 0
4, 337356, Note_off_c, 3, 78, 0
4, 337440, Note_on_c, 3, 78, 53
4, 337440, Note_on_c, 3, 75, 53
4, 337440, Note_on_c, 3, 71, 53
4, 337596, Note_off_c, 3, 71, 0
4, 337596, Note_off_c, 3, 75, 0
4, 337596, Note_off_c, 3, 78, 0
4, 337680, Note_on_c, 3, 78, 54
4, 337680, Note_on_c, 3, 75, 54
4, 337680, Note_on_c, 3, 71, 54
4, 337836, Note_off_c, 3, 71, 0
4, 337836, Note_off_c, 3, 75, 0
4, 337836, Note_off_c, 3, 78, 0
4, 337920, Note_on_c, 3, 78, 54
4, 337920, Note_on_c, 3, 75, 54
4, 337920, Note_on_c, 3, 71, 54
4, 338076, Note_off_c, 3, 71, 0
4, 338076, Note_off_c, 3, 75, 0
4, 338076, Note_off_c, 3, 78, 0
4, 338160, Note_on_c, 3, 78, 55
4, 338160, Note_on_c, 3, 75, 55
4, 338160, Note_on_c, 3, 71, 55
4, 338316, Note_off_c, 3, 71, 0
4, 338316, Note_off_c, 3, 75, 0
4, 338316, Note_off_c, 3, 78, 0
4, 338400, Note_on_c, 3, 73, 56
4, 338400, Note_on_c, 3, 76, 56
4, 338400, Note_on_c, 3, 71, 56
4, 338556, Note_off_c, 3, 71, 0
4, 338556, Note_off_c, 3, 76, 0
4, 338556, Note_off_c, 3, 73, 0
4, 338640, Note_on_c, 3, 78, 56
4, 338640, Note_on_c, 3, 75, 56
4, 338640, Note_on_c, 3, 71, 56
4, 338796, Note_off_c, 3, 71, 0
4, 338796, Note_off_c, 3, 75, 0
4, 338796, Note_off_c, 3, 78, 0
4, 338880, Note_on_c, 3, 80, 57
4, 338880, Note_on_c, 3, 76, 57
4, 338880, Note_on_c, 3, 71, 57
4, 339036, Note_off_c, 3, 71, 0
4, 339036, Note_off_c, 3, 76, 0
4, 339036, Note_off_c, 3, 80, 0
4, 339120, Note_on_c, 3, 76, 57
4, 339120, Note_on_c, 3, 80, 57
4, 339276, Note_off_c, 3, 80, 0
4, 339276, Note_off_c, 3, 76, 0
4, 339360, Note_on_c, 3, 76, 58
4, 339360, Note_on_c, 3, 80, 58
4, 339516, Note_off_c, 3, 80, 0
4, 339516, Note_off_c, 3, 76, 0
4, 339600, Note_on_c, 3, 76, 59
4, 339600, Note_on_c, 3, 80, 59
4, 339756, Note_off_c, 3, 80, 0
4, 339756, Note_off_c, 3, 76, 0
4, 339840, Note_on_c, 3, 76, 59
4, 339840, Note_on_c, 3, 80, 59
4, 339996, Note_off_c, 3, 80, 0
4, 339996, Note_off_c, 3, 76, 0
4, 340080, Note_on_c, 3, 76, 60
4, 340080, Note_on_c, 3, 80, 60
4, 340236, Note_off_c, 3, 80, 0
4, 340236, Note_off_c, 3, 76, 0
4, 340320, Note_on_c, 3, 78, 61
4, 340320, Note_on_c, 3, 76, 61
4, 340476, Note_off_c, 3, 76, 0
4, 340476, Note_off_c, 3, 78, 0
4, 340560, Note_on_c, 3, 76, 61
4, 340560, Note_on_c, 3, 80, 61
4, 340716, Note_off_c, 3, 80, 0
4, 340716, Note_off_c, 3, 76, 0
4, 340800, Note_on_c, 3, 82, 62
4, 340800, Note_on_c, 3, 78, 62
4, 340800, Note_on_c, 3, 76, 62
4, 340956, Note_off_c, 3, 76, 0
4, 340956, Note_off_c, 3, 78, 0
4, 340956, Note_off_c, 3, 82, 0
4, 341040, Note_on_c, 3, 82, 63
4, 341040, Note_on_c, 3, 76, 63
4, 341040, Note_on_c, 3, 78, 63
4, 341196, Note_off_c, 3, 78, 0
4, 341196, Note_off_c, 3, 76, 0
4, 341196, Note_off_c, 3, 82, 0
4, 341280, Note_on_c, 3, 82, 63
4, 341280, Note_on_c, 3, 78, 63
4, 341280, Note_on_c, 3, 76, 63
4, 341436, Note_off_c, 3, 76, 0
4, 341436, Note_off_c, 3, 78, 0
4, 341436, Note_off_c, 3, 82, 0
4, 341520, Note_on_c, 3, 82, 64
4, 341520, Note_on_c, 3, 78, 64
4, 341520, Note_on_c, 3, 76, 64
4, 341676, Note_off_c, 3, 76, 0
4, 341676, Note_off_c, 3, 78, 0
4, 341676, Note_off_c, 3, 82, 0
4, 341760, Note_on_c, 3, 82, 65
4, 341760, Note_on_c, 3, 78, 65
4, 341760, Note_on_c, 3, 76, 65
4, 341916, Note_off_c, 3, 76, 0
4, 341916, Note_off_c, 3, 78, 0
4, 341916, Note_off_c, 3, 82, 0
4, 342000, Note_on_c, 3, 82, 65
4, 342000, Note_on_c, 3, 76, 65
4, 342000, Note_on_c, 3, 78, 65
4, 342156, Note_off_c, 3, 78, 0
4, 342156, Note_off_c, 3, 76, 0
4, 342156, Note_off_c, 3, 82, 0
4, 342240, Note_on_c, 3, 82, 66
4, 342240, Note_on_c, 3, 76, 66
4, 342240, Note_on_c, 3, 78, 66
4, 342396, Note_off_c, 3, 78, 0
4, 342396, Note_off_c, 3, 76, 0
4, 342396, Note_off_c, 3, 82, 0
4, 342480, Note_on_c, 3, 82, 67
4, 342480, Note_on_c, 3, 76, 67
4, 342480, Note_on_c, 3, 78, 67
4, 342636, Note_off_c, 3, 78, 0
4, 342636, Note_off_c, 3, 76, 0
4, 342636, Note_off_c, 3, 82, 0
4, 342720, Note_on_c, 3, 78, 67
4, 342720, Note_on_c, 3, 75, 67
4, 342876, Note_off_c, 3, 75, 0
4, 342876, Note_off_c, 3, 78, 0
4, 342960, Note_on_c, 3, 71, 67
4, 342960, Note_on_c, 3, 75, 67
4, 342960, Note_on_c, 3, 78, 67
4, 343116, Note_off_c, 3, 78, 0
4, 343116, Note_off_c, 3, 75, 0
4, 343116, Note_off_c, 3, 71, 0
4, 343200, Note_on_c, 3, 71, 66
4, 343200, Note_on_c, 3, 75, 66
4, 343200, Note_on_c, 3, 78, 66
4, 343356, Note_off_c, 3, 78, 0
4, 343356, Note_off_c, 3, 75, 0
4, 343356, Note_off_c, 3, 71, 0
4, 343440, Note_on_c, 3, 71, 65
4, 343440, Note_on_c, 3, 75, 65
4, 343440, Note_on_c, 3, 78, 65
4, 343596, Note_off_c, 3, 78, 0
4, 343596, Note_off_c, 3, 75, 0
4, 343596, Note_off_c, 3, 71, 0
4, 343680, Note_on_c, 3, 71, 64
4, 343680, Note_on_c, 3, 75, 64
4, 343680, Note_on_c, 3, 78, 64
4, 343836, Note_off_c, 3, 78, 0
4, 343836, Note_off_c, 3, 75, 0
4, 343836, Note_off_c, 3, 71, 0
4, 343920, Note_on_c, 3, 71, 63
4, 343920, Note_on_c, 3, 75, 63
4, 343920, Note_on_c, 3, 78, 63
4, 344076, Note_off_c, 3, 78, 0
4, 344076, Note_off_c, 3, 75, 0
4, 344076, Note_off_c, 3, 71, 0
4, 344160, Note_on_c, 3, 75, 62
4, 344160, Note_on_c, 3, 71, 62
4, 344160, Note_on_c, 3, 78, 62
4, 344316, Note_off_c, 3, 78, 0
4, 344316, Note_off_c, 3, 71, 0
4, 344316, Note_off_c, 3, 75, 0
4, 344400, Note_on_c, 3, 71, 61
4, 344400, Note_on_c, 3, 75, 61
4, 344400, Note_on_c, 3, 78, 61
4, 344556, Note_off_c, 3, 78, 0
4, 344556, Note_off_c, 3, 75, 0
4, 344556, Note_off_c, 3, 71, 0
4, 344640, Note_on_c, 3, 71, 64
4, 344640, Note_on_c, 3, 75, 64
4, 344640, Note_on_c, 3, 78, 64
4, 344796, Note_off_c, 3, 78, 0
4, 344796, Note_off_c, 3, 75, 0
4, 344796, Note_off_c, 3, 71, 0
4, 344880, Note_on_c, 3, 71, 64
4, 344880, Note_on_c, 3, 75, 64
4, 344880, Note_on_c, 3, 78, 64
4, 345036, Note_off_c, 3, 78, 0
4, 345036, Note_off_c, 3, 75, 0
4, 345036, Note_off_c, 3, 71, 0
4, 345120, Note_on_c, 3, 71, 65
4, 345120, Note_on_c, 3, 75, 65
4, 345120, Note_on_c, 3, 78, 65
4, 345276, Note_off_c, 3, 78, 0
4, 345276, Note_off_c, 3, 75, 0
4, 345276, Note_off_c, 3, 71, 0
4, 345360, Note_on_c, 3, 71, 65
4, 345360, Note_on_c, 3, 75, 65
4, 345360, Note_on_c, 3, 78, 65
4, 345516, Note_off_c, 3, 78, 0
4, 345516, Note_off_c, 3, 75, 0
4, 345516, Note_off_c, 3, 71, 0
4, 345600, Note_on_c, 3, 81, 66
4, 345600, Note_on_c, 3, 71, 66
4, 345600, Note_on_c, 3, 78, 66
4, 345756, Note_off_c, 3, 78, 0
4, 345756, Note_off_c, 3, 71, 0
4, 345756, Note_off_c, 3, 81, 0
4, 345840, Note_on_c, 3, 81, 66
4, 345840, Note_on_c, 3, 78, 66
4, 345840, Note_on_c, 3, 75, 66
4, 345996, Note_off_c, 3, 75, 0
4, 345996, Note_off_c, 3, 78, 0
4, 345996, Note_off_c, 3, 81, 0
4, 346080, Note_on_c, 3, 81, 67
4, 346080, Note_on_c, 3, 78, 67
4, 346080, Note_on_c, 3, 75, 67
4, 346236, Note_off_c, 3, 75, 0
4, 346236, Note_off_c, 3, 78, 0
4, 346236, Note_off_c, 3, 81, 0
4, 346320, Note_on_c, 3, 83, 67
4, 346320, Note_on_c, 3, 78, 67
4, 346320, Note_on_c, 3, 75, 67
4, 346476, Note_off_c, 3, 75, 0
4, 346476, Note_off_c, 3, 78, 0
4, 346476, Note_off_c, 3, 83, 0
4, 346560, Note_on_c, 3, 83, 68
4, 346560, Note_on_c, 3, 76, 68
4, 346560, Note_on_c, 3, 80, 68
4, 346716, Note_off_c, 3, 80, 0
4, 346716, Note_off_c, 3, 76, 0
4, 346716, Note_off_c, 3, 83, 0
4, 346800, Note_on_c, 3, 83, 68
4, 346800, Note_on_c, 3, 80, 68
4, 346800, Note_on_c, 3, 76, 68
4, 346956, Note_off_c, 3, 76, 0
4, 346956, Note_off_c, 3, 80, 0
4, 346956, Note_off_c, 3, 83, 0
4, 347040, Note_on_c, 3, 83, 69
4, 347040, Note_on_c, 3, 76, 69
4, 347040, Note_on_c, 3, 80, 69
4, 347196, Note_off_c, 3, 80, 0
4, 347196, Note_off_c, 3, 76, 0
4, 347196, Note_off_c, 3, 83, 0
4, 347280, Note_on_c, 3, 83, 69
4, 347280, Note_on_c, 3, 80, 69
4, 347280, Note_on_c, 3, 76, 69
4, 347436, Note_off_c, 3, 76, 0
4, 347436, Note_off_c, 3, 80, 0
4, 347436, Note_off_c, 3, 83, 0
4, 347520, Note_on_c, 3, 83, 70
4, 347520, Note_on_c, 3, 80, 70
4, 347520, Note_on_c, 3, 76, 70
4, 347676, Note_off_c, 3, 76, 0
4, 347676, Note_off_c, 3, 80, 0
4, 347676, Note_off_c, 3, 83, 0
4, 347760, Note_on_c, 3, 83, 70
4, 347760, Note_on_c, 3, 80, 70
4, 347760, Note_on_c, 3, 76, 70
4, 347916, Note_off_c, 3, 76, 0
4, 347916, Note_off_c, 3, 80, 0
4, 347916, Note_off_c, 3, 83, 0
4, 348000, Note_on_c, 3, 76, 71
4, 348000, Note_on_c, 3, 82, 71
4, 348000, Note_on_c, 3, 78, 71
4, 348156, Note_off_c, 3, 78, 0
4, 348156, Note_off_c, 3, 82, 0
4, 348156, Note_off_c, 3, 76, 0
4, 348240, Note_on_c, 3, 83, 72
4, 348240, Note_on_c, 3, 80, 72
4, 348240, Note_on_c, 3, 76, 72
4, 348396, Note_off_c, 3, 76, 0
4, 348396, Note_off_c, 3, 80, 0
4, 348396, Note_off_c, 3, 83, 0
4, 348480, Note_on_c, 3, 85, 72
4, 348480, Note_on_c, 3, 76, 72
4, 348480, Note_on_c, 3, 78, 72
4, 348636, Note_off_c, 3, 78, 0
4, 348636, Note_off_c, 3, 76, 0
4, 348636, Note_off_c, 3, 85, 0
4, 348720, Note_on_c, 3, 85, 73
4, 348720, Note_on_c, 3, 78, 73
4, 348876, Note_off_c, 3, 78, 0
4, 348876, Note_off_c, 3, 85, 0
4, 348960, Note_on_c, 3, 85, 73
4, 348960, Note_on_c, 3, 78, 73
4, 349116, Note_off_c, 3, 78, 0
4, 349116, Note_off_c, 3, 85, 0
4, 349200, Note_on_c, 3, 85, 74
4, 349200, Note_on_c, 3, 78, 74
4, 349356, Note_off_c, 3, 78, 0
4, 349356, Note_off_c, 3, 85, 0
4, 349440, Note_on_c, 3, 85, 74
4, 349440, Note_on_c, 3, 78, 74
4, 349596, Note_off_c, 3, 78, 0
4, 349596, Note_off_c, 3, 85, 0
4, 349680, Note_on_c, 3, 88, 75
4, 349680, Note_on_c, 3, 85, 75
4, 349680, Note_on_c, 3, 78, 75
4, 349836, Note_off_c, 3, 78, 0
4, 349836, Note_off_c, 3, 85, 0
4, 349836, Note_off_c, 3, 88, 0
4, 349920, Note_on_c, 3, 88, 75
4, 349920, Note_on_c, 3, 85, 75
4, 349920, Note_on_c, 3, 78, 75
4, 350076, Note_off_c, 3, 78, 0
4, 350076, Note_off_c, 3, 85, 0
4, 350076, Note_off_c, 3, 88, 0
4, 350160, Note_on_c, 3, 88, 76
4, 350160, Note_on_c, 3, 85, 76
4, 350160, Note_on_c, 3, 78, 76
4, 350316, Note_off_c, 3, 78, 0
4, 350316, Note_off_c, 3, 85, 0
4, 350316, Note_off_c, 3, 88, 0
4, 350400, Note_on_c, 3, 87, 76
4, 350400, Note_on_c, 3, 83, 76
4, 350400, Note_on_c, 3, 78, 76
4, 350556, Note_off_c, 3, 78, 0
4, 350556, Note_off_c, 3, 83, 0
4, 350556, Note_off_c, 3, 87, 0
4, 350640, Note_on_c, 3, 87, 77
4, 350640, Note_on_c, 3, 83, 77
4, 350796, Note_off_c, 3, 83, 0
4, 350796, Note_off_c, 3, 87, 0
4, 350880, Note_on_c, 3, 87, 77
4, 350880, Note_on_c, 3, 83, 77
4, 351036, Note_off_c, 3, 83, 0
4, 351036, Note_off_c, 3, 87, 0
4, 351120, Note_on_c, 3, 87, 78
4, 351120, Note_on_c, 3, 83, 78
4, 351276, Note_off_c, 3, 83, 0
4, 351276, Note_off_c, 3, 87, 0
4, 351360, Note_on_c, 3, 87, 78
4, 351360, Note_on_c, 3, 83, 78
4, 351360, Note_on_c, 3, 78, 78
4, 351516, Note_off_c, 3, 78, 0
4, 351516, Note_off_c, 3, 83, 0
4, 351516, Note_off_c, 3, 87, 0
4, 351600, Note_on_c, 3, 87, 79
4, 351600, Note_on_c, 3, 83, 79
4, 351600, Note_on_c, 3, 78, 79
4, 351756, Note_off_c, 3, 78, 0
4, 351756, Note_off_c, 3, 83, 0
4, 351756, Note_off_c, 3, 87, 0
4, 351840, Note_on_c, 3, 87, 80
4, 351840, Note_on_c, 3, 83, 80
4, 351840, Note_on_c, 3, 78, 80
4, 351996, Note_off_c, 3, 78, 0
4, 351996, Note_off_c, 3, 83, 0
4, 351996, Note_off_c, 3, 87, 0
4, 352080, Note_on_c, 3, 87, 80
4, 352080, Note_on_c, 3, 83, 80
4, 352080, Note_on_c, 3, 78, 80
4, 352236, Note_off_c, 3, 78, 0
4, 352236, Note_off_c, 3, 83, 0
4, 352236, Note_off_c, 3, 87, 0
4, 352320, Note_on_c, 3, 78, 81
4, 352320, Note_on_c, 3, 88, 81
4, 352320, Note_on_c, 3, 85, 81
4, 352476, Note_off_c, 3, 85, 0
4, 352476, Note_off_c, 3, 88, 0
4, 352476, Note_off_c, 3, 78, 0
4, 352560, Note_on_c, 3, 88, 81
4, 352560, Note_on_c, 3, 78, 81
4, 352560, Note_on_c, 3, 85, 81
4, 352716, Note_off_c, 3, 85, 0
4, 352716, Note_off_c, 3, 78, 0
4, 352716, Note_off_c, 3, 88, 0
4, 352800, Note_on_c, 3, 88, 82
4, 352800, Note_on_c, 3, 78, 82
4, 352800, Note_on_c, 3, 85, 82
4, 352956, Note_off_c, 3, 85, 0
4, 352956, Note_off_c, 3, 78, 0
4, 352956, Note_off_c, 3, 88, 0
4, 353040, Note_on_c, 3, 78, 82
4, 353040, Note_on_c, 3, 88, 82
4, 353040, Note_on_c, 3, 85, 82
4, 353196, Note_off_c, 3, 85, 0
4, 353196, Note_off_c, 3, 88, 0
4, 353196, Note_off_c, 3, 78, 0
4, 353280, Note_on_c, 3, 78, 83
4, 353280, Note_on_c, 3, 88, 83
4, 353280, Note_on_c, 3, 85, 83
4, 353436, Note_off_c, 3, 85, 0
4, 353436, Note_off_c, 3, 88, 0
4, 353436, Note_off_c, 3, 78, 0
4, 353520, Note_on_c, 3, 82, 83
4, 353520, Note_on_c, 3, 78, 83
4, 353520, Note_on_c, 3, 85, 83
4, 353676, Note_off_c, 3, 85, 0
4, 353676, Note_off_c, 3, 78, 0
4, 353676, Note_off_c, 3, 82, 0
4, 353760, Note_on_c, 3, 82, 84
4, 353760, Note_on_c, 3, 85, 84
4, 353760, Note_on_c, 3, 78, 84
4, 353916, Note_off_c, 3, 78, 0
4, 353916, Note_off_c, 3, 85, 0
4, 353916, Note_off_c, 3, 82, 0
4, 354000, Note_on_c, 3, 82, 84
4, 354000, Note_on_c, 3, 78, 84
4, 354000, Note_on_c, 3, 85, 84
4, 354156, Note_off_c, 3, 85, 0
4, 354156, Note_off_c, 3, 78, 0
4, 354156, Note_off_c, 3, 82, 0
4, 354240, Note_on_c, 3, 78, 85
4, 354240, Note_on_c, 3, 82, 85
4, 354240, Note_on_c, 3, 85, 85
4, 355920, Note_off_c, 3, 85, 0
4, 355927, Note_off_c, 3, 82, 0
4, 355927, Note_off_c, 3, 78, 0
4, 360480, Control_c, 3, 64, 0
4, 360480, End_track
5, 0, Start_track
5, 0, Title_t, "Unnamed Track"
5, 0, Control_c, 4, 0, 0
5, 0, Control_c, 4, 32, 0
5, 0, Program_c, 4, 0
5, 0, Control_c, 4, 10, 55
5, 0, Control_c, 4, 91, 100
5, 0, Control_c, 4, 93, 28
5, 0, Control_c, 4, 64, 0
5, 0, Control_c, 4, 1, 0
5, 0, Pitch_bend_c, 4, 8192
5, 0, Control_c, 4, 7, 120
5, 17280, Note_on_c, 4, 49, 43
5, 17559, Note_off_c, 4, 49, 0
5, 17760, Note_on_c, 4, 49, 47
5, 18039, Note_off_c, 4, 49, 0
5, 18240, Note_on_c, 4, 49, 51
5, 18519, Note_off_c, 4, 49, 0
5, 18720, Note_on_c, 4, 49, 55
5, 18999, Note_off_c, 4, 49, 0
5, 19200, Note_on_c, 4, 56, 54
5, 19479, Note_off_c, 4, 56, 0
5, 19680, Note_on_c, 4, 58, 51
5, 19959, Note_off_c, 4, 58, 0
5, 20160, Note_on_c, 4, 58, 50
5, 20439, Note_off_c, 4, 58, 0
5, 20580, Note_on_c, 4, 60, 41
5, 20619, Note_off_c, 4, 60, 0
5, 20640, Note_on_c, 4, 60, 39
5, 21960, Note_off_c, 4, 60, 0
5, 24960, Note_on_c, 4, 65, 45
5, 25239, Note_off_c, 4, 65, 0
5, 25440, Note_on_c, 4, 66, 49
5, 25440, Note_on_c, 4, 63, 49
5, 25717, Note_off_c, 4, 66, 0
5, 25719, Note_off_c, 4, 63, 0
5, 25920, Note_on_c, 4, 66, 53
5, 25920, Note_on_c, 4, 63, 53
5, 26197, Note_off_c, 4, 66, 0
5, 26199, Note_off_c, 4, 63, 0
5, 26400, Note_on_c, 4, 65, 57
5, 26679, Note_off_c, 4, 65, 0
5, 26880, Note_on_c, 4, 65, 55
5, 27159, Note_off_c, 4, 65, 0
5, 27360, Note_on_c, 4, 58, 52
5, 27360, Note_on_c, 4, 61, 52
5, 27360, Note_on_c, 4, 63, 52
5, 27639, Note_off_c, 4, 63, 0
5, 27639, Note_off_c, 4, 61, 0
5, 27639, Note_off_c, 4, 58, 0
5, 27840, Note_on_c, 4, 58, 49
5, 27840, Note_on_c, 4, 61, 49
5, 28200, Note_off_c, 4, 61, 0
5, 28200, Note_off_c, 4, 58, 0
5, 28320, Note_on_c, 4, 60, 49
5, 28800, Note_off_c, 4, 60, 0
5, 28800, Note_on_c, 4, 60, 78
5, 28800, Note_on_c, 4, 63, 78
5, 29160, Note_off_c, 4, 63, 0
5, 29160, Note_off_c, 4, 60, 0
5, 29220, Note_on_c, 4, 60, 53
5, 29220, Note_on_c, 4, 63, 53
5, 29259, Note_off_c, 4, 63, 0
5, 29259, Note_off_c, 4, 60, 0
5, 29280, Note_on_c, 4, 60, 48
5, 29280, Note_on_c, 4, 63, 48
5, 30588, Note_off_c, 4, 63, 0
5, 30588, Note_off_c, 4, 60, 0
5, 58800, Note_on_c, 4, 58, 31
5, 60247, Note_off_c, 4, 58, 0
5, 66720, Note_on_c, 4, 58, 32
5, 68160, Control_c, 4, 64, 127
5, 68160, Note_off_c, 4, 58, 0
5, 68160, Note_on_c, 4, 52, 95
5, 68160, Note_on_c, 4, 57, 95
5, 69600, Note_off_c, 4, 57, 0
5, 69600, Note_off_c, 4, 52, 0
5, 72960, Note_on_c, 4, 52, 85
5, 72960, Note_on_c, 4, 49, 85
5, 73440, Control_c, 4, 64, 0
5, 73680, Note_off_c, 4, 49, 0
5, 73680, Note_off_c, 4, 52, 0
5, 75540, Note_on_c, 4, 45, 80
5, 75540, Note_on_c, 4, 42, 80
5, 76260, Note_off_c, 4, 42, 0
5, 76260, Note_off_c, 4, 45, 0
5, 78180, Note_on_c, 4, 53, 94
5, 78180, Note_on_c, 4, 50, 94
5, 78900, Note_off_c, 4, 50, 0
5, 78900, Note_off_c, 4, 53, 0
5, 109680, Note_on_c, 4, 62, 56
5, 109836, Note_off_c, 4, 62, 0
5, 110160, Note_on_c, 4, 62, 58
5, 110160, Note_on_c, 4, 65, 58
5, 110316, Note_off_c, 4, 65, 0
5, 110316, Note_off_c, 4, 62, 0
5, 110640, Note_on_c, 4, 67, 59
5, 110640, Note_on_c, 4, 64, 59
5, 110640, Note_on_c, 4, 61, 59
5, 110796, Note_off_c, 4, 61, 0
5, 110796, Note_off_c, 4, 64, 0
5, 110796, Note_off_c, 4, 67, 0
5, 111120, Note_on_c, 4, 67, 60
5, 111120, Note_on_c, 4, 64, 60
5, 111120, Note_on_c, 4, 61, 60
5, 111276, Note_off_c, 4, 61, 0
5, 111276, Note_off_c, 4, 64, 0
5, 111276, Note_off_c, 4, 67, 0
5, 111600, Note_on_c, 4, 65, 60
5, 111600, Note_on_c, 4, 62, 60
5, 111756, Note_off_c, 4, 62, 0
5, 111756, Note_off_c, 4, 65, 0
5, 112080, Note_on_c, 4, 65, 58
5, 112080, Note_on_c, 4, 62, 58
5, 112236, Note_off_c, 4, 62, 0
5, 112236, Note_off_c, 4, 65, 0
5, 112560, Note_on_c, 4, 67, 56
5, 112560, Note_on_c, 4, 64, 56
5, 112560, Note_on_c, 4, 61, 56
5, 112716, Note_off_c, 4, 61, 0
5, 112716, Note_off_c, 4, 64, 0
5, 112716, Note_off_c, 4, 67, 0
5, 113040, Note_on_c, 4, 67, 54
5, 113040, Note_on_c, 4, 64, 54
5, 113040, Note_on_c, 4, 61, 54
5, 113196, Note_off_c, 4, 61, 0
5, 113196, Note_off_c, 4, 64, 0
5, 113196, Note_off_c, 4, 67, 0
5, 115440, Note_on_c, 4, 62, 57
5, 115596, Note_off_c, 4, 62, 0
5, 115920, Note_on_c, 4, 65, 55
5, 115920, Note_on_c, 4, 62, 55
5, 116076, Note_off_c, 4, 62, 0
5, 116076, Note_off_c, 4, 65, 0
5, 116400, Note_on_c, 4, 64, 54
5, 116400, Note_on_c, 4, 61, 54
5, 116400, Note_on_c, 4, 67, 54
5, 116556, Note_off_c, 4, 67, 0
5, 116556, Note_off_c, 4, 61, 0
5, 116556, Note_off_c, 4, 64, 0
5, 116880, Note_on_c, 4, 67, 52
5, 116880, Note_on_c, 4, 64, 52
5, 116880, Note_on_c, 4, 61, 52
5, 117036, Note_off_c, 4, 61, 0
5, 117036, Note_off_c, 4, 64, 0
5, 117036, Note_off_c, 4, 67, 0
5, 120960, Note_on_c, 4, 52, 76
5, 120960, Note_on_c, 4, 58, 76
5, 120960, Note_on_c, 4, 49, 76
5, 121920, Control_c, 4, 64, 127
5, 121920, Note_off_c, 4, 49, 0
5, 121920, Note_off_c, 4, 58, 0
5, 121920, Note_off_c, 4, 52, 0
5, 121960, Note_on_c, 4, 49, 43
5, 122000, Note_on_c, 4, 51, 43
5, 122040, Note_on_c, 4, 55, 43
5, 122080, Note_on_c, 4, 58, 43
5, 123400, Note_off_c, 4, 49, 0
5, 123440, Note_off_c, 4, 51, 0
5, 123480, Note_off_c, 4, 55, 0
5, 123520, Note_off_c, 4, 58, 0
5, 123720, Control_c, 4, 64, 0
5, 123840, Note_on_c, 4, 51, 40
5, 124560, Note_off_c, 4, 51, 0
5, 124560, Note_on_c, 4, 51, 47
5, 124800, Note_off_c, 4, 51, 0
5, 124800, Note_on_c, 4, 51, 42
5, 125520, Note_off_c, 4, 51, 0
5, 125520, Note_on_c, 4, 51, 49
5, 125760, Note_off_c, 4, 51, 0
5, 125760, Note_on_c, 4, 51, 45
5, 126480, Note_off_c, 4, 51, 0
5, 126480, Note_on_c, 4, 51, 51
5, 126720, Note_off_c, 4, 51, 0
5, 126720, Note_on_c, 4, 51, 45
5, 127080, Note_off_c, 4, 51, 0
5, 127200, Note_on_c, 4, 51, 40
5, 127560, Note_off_c, 4, 51, 0
5, 127680, Note_on_c, 4, 51, 32
5, 129120, Note_off_c, 4, 51, 0
5, 131520, Note_on_c, 4, 53, 28
5, 132240, Note_off_c, 4, 53, 0
5, 132240, Note_on_c, 4, 53, 35
5, 133200, Note_off_c, 4, 53, 0
5, 133200, Note_on_c, 4, 53, 38
5, 134160, Note_off_c, 4, 53, 0
5, 134160, Note_on_c, 4, 53, 40
5, 134800, Note_off_c, 4, 53, 0
5, 134880, Note_on_c, 4, 53, 31
5, 135240, Note_off_c, 4, 53, 0
5, 135360, Note_on_c, 4, 54, 32
5, 136080, Note_off_c, 4, 54, 0
5, 136080, Note_on_c, 4, 52, 26
5, 136236, Note_off_c, 4, 52, 0
5, 136320, Note_on_c, 4, 52, 21
5, 137040, Note_off_c, 4, 52, 0
5, 139920, Note_on_c, 4, 47, 107
5, 140076, Note_off_c, 4, 47, 0
5, 140160, Note_on_c, 4, 46, 95
5, 141600, Note_off_c, 4, 46, 0
5, 144960, Note_on_c, 4, 50, 96
5, 146400, Note_off_c, 4, 50, 0
5, 146640, Control_c, 4, 64, 127
5, 147120, Note_on_c, 4, 64, 96
5, 147276, Note_off_c, 4, 64, 0
5, 147360, Note_on_c, 4, 61, 98
5, 147516, Note_off_c, 4, 61, 0
5, 147600, Note_on_c, 4, 64, 99
5, 147756, Note_off_c, 4, 64, 0
5, 147840, Note_on_c, 4, 55, 101
5, 147996, Note_off_c, 4, 55, 0
5, 148080, Note_on_c, 4, 61, 103
5, 148236, Note_off_c, 4, 61, 0
5, 148320, Note_on_c, 4, 52, 104
5, 148476, Note_off_c, 4, 52, 0
5, 148560, Note_on_c, 4, 55, 106
5, 148716, Note_off_c, 4, 55, 0
5, 148800, Note_on_c, 4, 49, 107
5, 148956, Note_off_c, 4, 49, 0
5, 149040, Note_on_c, 4, 52, 109
5, 149196, Note_off_c, 4, 52, 0
5, 149520, Control_c, 4, 64, 0
5, 149760, Note_on_c, 4, 41, 115
5, 152647, Note_off_c, 4, 41, 0
5, 153360, Note_on_c, 4, 30, 48
5, 153600, Note_off_c, 4, 30, 0
5, 154080, Note_on_c, 4, 30, 51
5, 154320, Note_off_c, 4, 30, 0
5, 154800, Note_on_c, 4, 30, 53
5, 155040, Note_off_c, 4, 30, 0
5, 155520, Note_on_c, 4, 30, 55
5, 155760, Note_off_c, 4, 30, 0
5, 156240, Note_on_c, 4, 30, 58
5, 156480, Note_off_c, 4, 30, 0
5, 156960, Note_on_c, 4, 30, 60
5, 157200, Note_off_c, 4, 30, 0
5, 157680, Note_on_c, 4, 30, 62
5, 157920, Note_off_c, 4, 30, 0
5, 158400, Note_on_c, 4, 30, 65
5, 158640, Note_off_c, 4, 30, 0
5, 159120, Note_on_c, 4, 30, 67
5, 159360, Note_off_c, 4, 30, 0
5, 159840, Note_on_c, 4, 30, 69
5, 160080, Note_off_c, 4, 30, 0
5, 160560, Note_on_c, 4, 30, 72
5, 160800, Note_off_c, 4, 30, 0
5, 161280, Note_on_c, 4, 30, 74
5, 161520, Note_off_c, 4, 30, 0
5, 162000, Note_on_c, 4, 30, 76
5, 162240, Note_off_c, 4, 30, 0
5, 162720, Note_on_c, 4, 30, 78
5, 162960, Note_off_c, 4, 30, 0
5, 163440, Note_on_c, 4, 30, 81
5, 163680, Note_off_c, 4, 30, 0
5, 164160, Note_on_c, 4, 30, 83
5, 164400, Note_off_c, 4, 30, 0
5, 164880, Note_on_c, 4, 30, 85
5, 165120, Note_off_c, 4, 30, 0
5, 165600, Note_on_c, 4, 30, 88
5, 165840, Note_off_c, 4, 30, 0
5, 166320, Note_on_c, 4, 30, 90
5, 166560, Note_off_c, 4, 30, 0
5, 167040, Note_on_c, 4, 30, 92
5, 167280, Note_off_c, 4, 30, 0
5, 167760, Note_on_c, 4, 30, 95
5, 168000, Note_off_c, 4, 30, 0
5, 168480, Note_on_c, 4, 30, 97
5, 168720, Note_off_c, 4, 30, 0
5, 169200, Note_on_c, 4, 30, 100
5, 169440, Note_off_c, 4, 30, 0
5, 169920, Note_on_c, 4, 30, 103
5, 170160, Note_off_c, 4, 30, 0
5, 170640, Note_on_c, 4, 30, 106
5, 170880, Note_off_c, 4, 30, 0
5, 171360, Note_on_c, 4, 30, 108
5, 171600, Note_off_c, 4, 30, 0
5, 172080, Note_on_c, 4, 30, 111
5, 172320, Note_off_c, 4, 30, 0
5, 172800, Note_on_c, 4, 30, 114
5, 173040, Note_off_c, 4, 30, 0
5, 173280, Note_on_c, 4, 30, 123
5, 173760, Note_off_c, 4, 30, 0
5, 182640, Control_c, 4, 64, 0
5, 182680, Control_c, 4, 64, 127
5, 183360, Control_c, 4, 64, 0
5, 183400, Control_c, 4, 64, 127
5, 184080, Control_c, 4, 64, 0
5, 184120, Control_c, 4, 64, 127
5, 184800, Control_c, 4, 64, 0
5, 184840, Control_c, 4, 64, 127
5, 185520, Control_c, 4, 64, 0
5, 185560, Control_c, 4, 64, 127
5, 186240, Control_c, 4, 64, 0
5, 186280, Control_c, 4, 64, 127
5, 186960, Control_c, 4, 64, 0
5, 187000, Control_c, 4, 64, 127
5, 187680, Control_c, 4, 64, 0
5, 187720, Control_c, 4, 64, 127
5, 188400, Control_c, 4, 64, 0
5, 188440, Control_c, 4, 64, 127
5, 189120, Control_c, 4, 64, 0
5, 189160, Control_c, 4, 64, 127
5, 189840, Control_c, 4, 64, 0
5, 194160, Control_c, 4, 64, 0
5, 194200, Control_c, 4, 64, 127
5, 194880, Control_c, 4, 64, 0
5, 194920, Control_c, 4, 64, 127
5, 195600, Control_c, 4, 64, 0
5, 195640, Control_c, 4, 64, 127
5, 196320, Control_c, 4, 64, 0
5, 196360, Control_c, 4, 64, 127
5, 196800, Control_c, 4, 64, 0
5, 196840, Control_c, 4, 64, 127
5, 197760, Control_c, 4, 64, 0
5, 197800, Control_c, 4, 64, 127
5, 198480, Control_c, 4, 64, 0
5, 198520, Control_c, 4, 64, 127
5, 199200, Control_c, 4, 64, 0
5, 199240, Control_c, 4, 64, 127
5, 199920, Control_c, 4, 64, 0
5, 199960, Control_c, 4, 64, 127
5, 200640, Control_c, 4, 64, 0
5, 200680, Control_c, 4, 64, 127
5, 201360, Control_c, 4, 64, 0
5, 205680, Control_c, 4, 64, 0
5, 205720, Control_c, 4, 64, 127
5, 206400, Control_c, 4, 64, 0
5, 206440, Control_c, 4, 64, 127
5, 207120, Control_c, 4, 64, 0
5, 207160, Control_c, 4, 64, 127
5, 207840, Control_c, 4, 64, 0
5, 207880, Control_c, 4, 64, 127
5, 208560, Control_c, 4, 64, 0
5, 208600, Control_c, 4, 64, 127
5, 209280, Control_c, 4, 64, 0
5, 209320, Control_c, 4, 64, 127
5, 210000, Control_c, 4, 64, 0
5, 210040, Control_c, 4, 64, 127
5, 210720, Control_c, 4, 64, 0
5, 210760, Control_c, 4, 64, 127
5, 211440, Control_c, 4, 64, 0
5, 211480, Control_c, 4, 64, 127
5, 212160, Control_c, 4, 64, 0
5, 212220, Control_c, 4, 64, 127
5, 217920, Control_c, 4, 64, 0
5, 217960, Control_c, 4, 64, 127
5, 225600, Control_c, 4, 64, 0
5, 226320, Note_on_c, 4, 58, 46
5, 226560, Note_off_c, 4, 58, 0
5, 226560, Note_on_c, 4, 57, 41
5, 227040, Note_off_c, 4, 57, 0
5, 227280, Note_on_c, 4, 57, 50
5, 227520, Note_off_c, 4, 57, 0
5, 227520, Note_on_c, 4, 55, 45
5, 228000, Note_off_c, 4, 55, 0
5, 228240, Note_on_c, 4, 55, 54
5, 228480, Note_off_c, 4, 55, 0
5, 228480, Note_on_c, 4, 52, 49
5, 228960, Note_off_c, 4, 52, 0
5, 229200, Note_on_c, 4, 52, 58
5, 229440, Note_on_c, 4, 58, 53
5, 229920, Note_off_c, 4, 58, 0
5, 229920, Note_off_c, 4, 52, 0
5, 230160, Note_on_c, 4, 58, 61
5, 230160, Note_on_c, 4, 52, 61
5, 230640, Note_off_c, 4, 52, 0
5, 230640, Note_off_c, 4, 58, 0
5, 230640, Note_on_c, 4, 58, 66
5, 230640, Note_on_c, 4, 54, 66
5, 230640, Note_on_c, 4, 52, 66
5, 231360, Note_off_c, 4, 52, 0
5, 231360, Note_off_c, 4, 54, 0
5, 231360, Note_off_c, 4, 58, 0
5, 239220, Note_on_c, 4, 66, 46
5, 239259, Note_off_c, 4, 66, 0
5, 239280, Note_on_c, 4, 63, 47
5, 239358, Note_off_c, 4, 63, 0
5, 239460, Note_on_c, 4, 66, 47
5, 239499, Note_off_c, 4, 66, 0
5, 239520, Note_on_c, 4, 63, 48
5, 239598, Note_off_c, 4, 63, 0
5, 239700, Note_on_c, 4, 66, 48
5, 239739, Note_off_c, 4, 66, 0
5, 239760, Note_on_c, 4, 64, 49
5, 239838, Note_off_c, 4, 64, 0
5, 239940, Note_on_c, 4, 63, 49
5, 239979, Note_off_c, 4, 63, 0
5, 240000, Note_on_c, 4, 58, 50
5, 240078, Note_off_c, 4, 58, 0
5, 240180, Note_on_c, 4, 61, 50
5, 240219, Note_off_c, 4, 61, 0
5, 240240, Note_on_c, 4, 58, 51
5, 240318, Note_off_c, 4, 58, 0
5, 240420, Note_on_c, 4, 61, 51
5, 240459, Note_off_c, 4, 61, 0
5, 240480, Note_on_c, 4, 58, 52
5, 240558, Note_off_c, 4, 58, 0
5, 240660, Note_on_c, 4, 54, 52
5, 240699, Note_off_c, 4, 54, 0
5, 240720, Note_on_c, 4, 59, 53
5, 240798, Note_off_c, 4, 59, 0
5, 240900, Note_on_c, 4, 59, 53
5, 240939, Note_off_c, 4, 59, 0
5, 240960, Note_on_c, 4, 54, 54
5, 241038, Note_off_c, 4, 54, 0
5, 241140, Note_on_c, 4, 59, 54
5, 241179, Note_off_c, 4, 59, 0
5, 241200, Note_on_c, 4, 56, 55
5, 241278, Note_off_c, 4, 56, 0
5, 241380, Note_on_c, 4, 59, 55
5, 241419, Note_off_c, 4, 59, 0
5, 241440, Note_on_c, 4, 56, 56
5, 241518, Note_off_c, 4, 56, 0
5, 241620, Note_on_c, 4, 59, 56
5, 241659, Note_off_c, 4, 59, 0
5, 241680, Note_on_c, 4, 56, 57
5, 241758, Note_off_c, 4, 56, 0
5, 241860, Note_on_c, 4, 61, 57
5, 241899, Note_off_c, 4, 61, 0
5, 241920, Note_on_c, 4, 58, 59
5, 241998, Note_off_c, 4, 58, 0
5, 242100, Note_on_c, 4, 61, 57
5, 242139, Note_off_c, 4, 61, 0
5, 242160, Note_on_c, 4, 58, 57
5, 242238, Note_off_c, 4, 58, 0
5, 242340, Note_on_c, 4, 61, 54
5, 242379, Note_off_c, 4, 61, 0
5, 242400, Note_on_c, 4, 58, 54
5, 242478, Note_off_c, 4, 58, 0
5, 242640, Note_on_c, 4, 59, 51
5, 242718, Note_off_c, 4, 59, 0
5, 242820, Note_on_c, 4, 61, 49
5, 242859, Note_off_c, 4, 61, 0
5, 242880, Note_on_c, 4, 63, 48
5, 242958, Note_off_c, 4, 63, 0
5, 243060, Note_on_c, 4, 66, 49
5, 243099, Note_off_c, 4, 66, 0
5, 243120, Note_on_c, 4, 63, 49
5, 243198, Note_off_c, 4, 63, 0
5, 243300, Note_on_c, 4, 66, 50
5, 243339, Note_off_c, 4, 66, 0
5, 243360, Note_on_c, 4, 63, 50
5, 243438, Note_off_c, 4, 63, 0
5, 243540, Note_on_c, 4, 66, 51
5, 243579, Note_off_c, 4, 66, 0
5, 243600, Note_on_c, 4, 64, 52
5, 243678, Note_off_c, 4, 64, 0
5, 243780, Note_on_c, 4, 63, 53
5, 243819, Note_off_c, 4, 63, 0
5, 243840, Note_on_c, 4, 58, 53
5, 243918, Note_off_c, 4, 58, 0
5, 244020, Note_on_c, 4, 61, 54
5, 244059, Note_off_c, 4, 61, 0
5, 244080, Note_on_c, 4, 58, 54
5, 244158, Note_off_c, 4, 58, 0
5, 244260, Note_on_c, 4, 61, 55
5, 244299, Note_off_c, 4, 61, 0
5, 244320, Note_on_c, 4, 58, 55
5, 244398, Note_off_c, 4, 58, 0
5, 244500, Note_on_c, 4, 54, 56
5, 244539, Note_off_c, 4, 54, 0
5, 244560, Note_on_c, 4, 59, 57
5, 244638, Note_off_c, 4, 59, 0
5, 244740, Note_on_c, 4, 59, 58
5, 244779, Note_off_c, 4, 59, 0
5, 244800, Note_on_c, 4, 54, 58
5, 244878, Note_off_c, 4, 54, 0
5, 244980, Note_on_c, 4, 59, 59
5, 245019, Note_off_c, 4, 59, 0
5, 245040, Note_on_c, 4, 56, 59
5, 245118, Note_off_c, 4, 56, 0
5, 245220, Note_on_c, 4, 59, 60
5, 245259, Note_off_c, 4, 59, 0
5, 245280, Note_on_c, 4, 56, 61
5, 245358, Note_off_c, 4, 56, 0
5, 245460, Note_on_c, 4, 59, 62
5, 245499, Note_off_c, 4, 59, 0
5, 245520, Note_on_c, 4, 56, 62
5, 245598, Note_off_c, 4, 56, 0
5, 245700, Note_on_c, 4, 61, 63
5, 245739, Note_off_c, 4, 61, 0
5, 245760, Note_on_c, 4, 58, 65
5, 245838, Note_off_c, 4, 58, 0
5, 245940, Note_on_c, 4, 61, 62
5, 245979, Note_off_c, 4, 61, 0
5, 246000, Note_on_c, 4, 58, 61
5, 246078, Note_off_c, 4, 58, 0
5, 246180, Note_on_c, 4, 58, 58
5, 246219, Note_off_c, 4, 58, 0
5, 246240, Note_on_c, 4, 59, 57
5, 246318, Note_off_c, 4, 59, 0
5, 246420, Note_on_c, 4, 54, 54
5, 246459, Note_off_c, 4, 54, 0
5, 246480, Note_on_c, 4, 51, 53
5, 246558, Note_off_c, 4, 51, 0
5, 246840, Note_on_c, 4, 51, 50
5, 246900, Note_off_c, 4, 51, 0
5, 246900, Note_on_c, 4, 52, 50
5, 246960, Note_off_c, 4, 52, 0
5, 246960, Note_on_c, 4, 54, 50
5, 247080, Note_off_c, 4, 54, 0
5, 247080, Note_on_c, 4, 51, 50
5, 247200, Note_off_c, 4, 51, 0
5, 247320, Note_on_c, 4, 51, 51
5, 247380, Note_off_c, 4, 51, 0
5, 247380, Note_on_c, 4, 52, 51
5, 247440, Note_off_c, 4, 52, 0
5, 247440, Note_on_c, 4, 54, 51
5, 247560, Note_off_c, 4, 54, 0
5, 247560, Note_on_c, 4, 51, 52
5, 247680, Note_off_c, 4, 51, 0
5, 247800, Note_on_c, 4, 49, 52
5, 247800, Note_on_c, 4, 54, 52
5, 247860, Note_off_c, 4, 49, 0
5, 247860, Note_on_c, 4, 51, 52
5, 247920, Note_off_c, 4, 51, 0
5, 247920, Note_on_c, 4, 52, 52
5, 248040, Note_off_c, 4, 52, 0
5, 248040, Note_on_c, 4, 49, 53
5, 248160, Note_off_c, 4, 49, 0
5, 248160, Note_off_c, 4, 54, 0
5, 248280, Note_on_c, 4, 49, 53
5, 248280, Note_on_c, 4, 54, 53
5, 248340, Note_off_c, 4, 49, 0
5, 248340, Note_on_c, 4, 51, 53
5, 248400, Note_off_c, 4, 51, 0
5, 248400, Note_on_c, 4, 52, 53
5, 248520, Note_off_c, 4, 52, 0
5, 248520, Note_on_c, 4, 51, 54
5, 248640, Note_off_c, 4, 51, 0
5, 248640, Note_off_c, 4, 54, 0
5, 248760, Note_on_c, 4, 54, 54
5, 248820, Note_off_c, 4, 54, 0
5, 248820, Note_on_c, 4, 58, 54
5, 248880, Note_off_c, 4, 58, 0
5, 248880, Note_on_c, 4, 59, 55
5, 249000, Note_off_c, 4, 59, 0
5, 249240, Note_on_c, 4, 56, 55
5, 249300, Note_off_c, 4, 56, 0
5, 249300, Note_on_c, 4, 58, 56
5, 249360, Note_off_c, 4, 58, 0
5, 249360, Note_on_c, 4, 59, 56
5, 249480, Note_off_c, 4, 59, 0
5, 249480, Note_on_c, 4, 61, 56
5, 249600, Note_off_c, 4, 61, 0
5, 249720, Note_on_c, 4, 61, 56
5, 249780, Note_off_c, 4, 61, 0
5, 249780, Note_on_c, 4, 63, 56
5, 249840, Note_off_c, 4, 63, 0
5, 249840, Note_on_c, 4, 64, 56
5, 249960, Note_off_c, 4, 64, 0
5, 249960, Note_on_c, 4, 58, 55
5, 250080, Note_off_c, 4, 58, 0
5, 250200, Note_on_c, 4, 61, 53
5, 250260, Note_off_c, 4, 61, 0
5, 250260, Note_on_c, 4, 63, 52
5, 250320, Note_off_c, 4, 63, 0
5, 250320, Note_on_c, 4, 64, 52
5, 250440, Note_off_c, 4, 64, 0
5, 250440, Note_on_c, 4, 61, 51
5, 250560, Note_off_c, 4, 61, 0
5, 250680, Note_on_c, 4, 63, 50
5, 250740, Note_off_c, 4, 63, 0
5, 250740, Note_on_c, 4, 64, 50
5, 250800, Note_off_c, 4, 64, 0
5, 250800, Note_on_c, 4, 66, 51
5, 250920, Note_off_c, 4, 66, 0
5, 250920, Note_on_c, 4, 63, 51
5, 251040, Note_off_c, 4, 63, 0
5, 251160, Note_on_c, 4, 63, 52
5, 251220, Note_off_c, 4, 63, 0
5, 251220, Note_on_c, 4, 64, 53
5, 251280, Note_off_c, 4, 64, 0
5, 251280, Note_on_c, 4, 66, 53
5, 251400, Note_off_c, 4, 66, 0
5, 251400, Note_on_c, 4, 63, 54
5, 251520, Note_off_c, 4, 63, 0
5, 251640, Note_on_c, 4, 61, 55
5, 251640, Note_on_c, 4, 66, 55
5, 251700, Note_off_c, 4, 61, 0
5, 251700, Note_on_c, 4, 63, 55
5, 251760, Note_off_c, 4, 63, 0
5, 251760, Note_on_c, 4, 64, 55
5, 251880, Note_off_c, 4, 64, 0
5, 251880, Note_on_c, 4, 61, 56
5, 252000, Note_off_c, 4, 61, 0
5, 252000, Note_off_c, 4, 66, 0
5, 252120, Note_on_c, 4, 66, 57
5, 252120, Note_on_c, 4, 61, 57
5, 252180, Note_off_c, 4, 61, 0
5, 252180, Note_on_c, 4, 63, 57
5, 252240, Note_off_c, 4, 63, 0
5, 252240, Note_on_c, 4, 64, 58
5, 252360, Note_off_c, 4, 64, 0
5, 252360, Note_on_c, 4, 63, 58
5, 252480, Note_off_c, 4, 63, 0
5, 252480, Note_off_c, 4, 66, 0
5, 252600, Note_on_c, 4, 66, 59
5, 252660, Note_off_c, 4, 66, 0
5, 252660, Note_on_c, 4, 70, 60
5, 252720, Note_off_c, 4, 70, 0
5, 252720, Note_on_c, 4, 71, 60
5, 252840, Note_off_c, 4, 71, 0
5, 253080, Note_on_c, 4, 68, 62
5, 253140, Note_off_c, 4, 68, 0
5, 253140, Note_on_c, 4, 70, 62
5, 253200, Note_off_c, 4, 70, 0
5, 253200, Note_on_c, 4, 71, 62
5, 253320, Note_off_c, 4, 71, 0
5, 253320, Note_on_c, 4, 72, 63
5, 253440, Note_off_c, 4, 72, 0
5, 253560, Note_on_c, 4, 73, 64
5, 253620, Note_off_c, 4, 73, 0
5, 253620, Note_on_c, 4, 75, 63
5, 253680, Note_off_c, 4, 75, 0
5, 253680, Note_on_c, 4, 76, 62
5, 253800, Note_off_c, 4, 76, 0
5, 253800, Note_on_c, 4, 70, 61
5, 253920, Note_off_c, 4, 70, 0
5, 254040, Note_on_c, 4, 75, 58
5, 254100, Note_off_c, 4, 75, 0
5, 254100, Note_on_c, 4, 76, 57
5, 254160, Note_off_c, 4, 76, 0
5, 254160, Note_on_c, 4, 78, 56
5, 254280, Note_off_c, 4, 78, 0
5, 254280, Note_on_c, 4, 75, 55
5, 254400, Note_off_c, 4, 75, 0
5, 277440, Control_c, 4, 64, 0
5, 277440, Note_on_c, 4, 59, 42
5, 277596, Note_off_c, 4, 59, 0
5, 277680, Note_on_c, 4, 59, 42
5, 277836, Note_off_c, 4, 59, 0
5, 277920, Note_on_c, 4, 59, 43
5, 278076, Note_off_c, 4, 59, 0
5, 278200, Note_on_c, 4, 61, 44
5, 278278, Note_off_c, 4, 61, 0
5, 278320, Note_on_c, 4, 63, 45
5, 278398, Note_off_c, 4, 63, 0
5, 278400, Note_on_c, 4, 58, 45
5, 278556, Note_off_c, 4, 58, 0
5, 278640, Note_on_c, 4, 58, 46
5, 278796, Note_off_c, 4, 58, 0
5, 278880, Note_on_c, 4, 58, 47
5, 279036, Note_off_c, 4, 58, 0
5, 279160, Note_on_c, 4, 59, 48
5, 279238, Note_off_c, 4, 59, 0
5, 279280, Note_on_c, 4, 59, 48
5, 279358, Note_off_c, 4, 59, 0
5, 279360, Note_on_c, 4, 59, 48
5, 279516, Note_off_c, 4, 59, 0
5, 279600, Note_on_c, 4, 63, 49
5, 279756, Note_off_c, 4, 63, 0
5, 279840, Note_on_c, 4, 63, 50
5, 279996, Note_off_c, 4, 63, 0
5, 280080, Note_on_c, 4, 59, 51
5, 280236, Note_off_c, 4, 59, 0
5, 280320, Note_on_c, 4, 59, 53
5, 280476, Note_off_c, 4, 59, 0
5, 280560, Note_on_c, 4, 58, 51
5, 280716, Note_off_c, 4, 58, 0
5, 280800, Note_on_c, 4, 58, 49
5, 280956, Note_off_c, 4, 58, 0
5, 281040, Note_on_c, 4, 58, 46
5, 281196, Note_off_c, 4, 58, 0
5, 281280, Note_on_c, 4, 59, 44
5, 281436, Note_off_c, 4, 59, 0
5, 281520, Note_on_c, 4, 59, 45
5, 281676, Note_off_c, 4, 59, 0
5, 281760, Note_on_c, 4, 59, 47
5, 281916, Note_off_c, 4, 59, 0
5, 282040, Note_on_c, 4, 61, 49
5, 282118, Note_off_c, 4, 61, 0
5, 282160, Note_on_c, 4, 63, 50
5, 282238, Note_off_c, 4, 63, 0
5, 282240, Note_on_c, 4, 58, 51
5, 282396, Note_off_c, 4, 58, 0
5, 282480, Note_on_c, 4, 58, 52
5, 282636, Note_off_c, 4, 58, 0
5, 282720, Note_on_c, 4, 58, 54
5, 282876, Note_off_c, 4, 58, 0
5, 283000, Note_on_c, 4, 59, 56
5, 283080, Note_off_c, 4, 59, 0
5, 283120, Note_on_c, 4, 59, 57
5, 283200, Note_off_c, 4, 59, 0
5, 283200, Note_on_c, 4, 59, 58
5, 283356, Note_off_c, 4, 59, 0
5, 283440, Note_on_c, 4, 63, 60
5, 283596, Note_off_c, 4, 63, 0
5, 283680, Note_on_c, 4, 63, 61
5, 283836, Note_off_c, 4, 63, 0
5, 283920, Note_on_c, 4, 59, 63
5, 284076, Note_off_c, 4, 59, 0
5, 284160, Note_on_c, 4, 59, 63
5, 284316, Note_off_c, 4, 59, 0
5, 284400, Note_on_c, 4, 61, 60
5, 284556, Note_off_c, 4, 61, 0
5, 284640, Note_on_c, 4, 63, 57
5, 284880, Note_off_c, 4, 63, 0
5, 284880, Note_on_c, 4, 66, 55
5, 285120, Note_off_c, 4, 66, 0
5, 360480, Control_c, 4, 64, 0
5, 360480, Note_on_c, 4, 63, 44
5, 360840, Note_off_c, 4, 63, 0
5, 360960, Note_on_c, 4, 63, 45
5, 361320, Note_off_c, 4, 63, 0
5, 361440, Note_on_c, 4, 64, 45
5, 361680, Note_off_c, 4, 64, 0
5, 361680, Note_on_c, 4, 63, 46
5, 361872, Note_off_c, 4, 63, 0
5, 361920, Note_on_c, 4, 64, 46
5, 362280, Note_off_c, 4, 64, 0
5, 362400, Note_on_c, 4, 64, 47
5, 362760, Note_off_c, 4, 64, 0
5, 362880, Note_on_c, 4, 64, 48
5, 363240, Note_off_c, 4, 64, 0
5, 363360, Note_on_c, 4, 63, 49
5, 363720, Note_off_c, 4, 63, 0
5, 363840, Note_on_c, 4, 63, 50
5, 364208, Note_off_c, 4, 63, 0
5, 366240, Note_on_c, 4, 61, 53
5, 366240, Note_on_c, 4, 64, 53
5, 366608, Note_off_c, 4, 64, 0
5, 366608, Note_off_c, 4, 61, 0
5, 366720, Note_on_c, 4, 61, 51
5, 366720, Note_on_c, 4, 64, 51
5, 367088, Note_off_c, 4, 64, 0
5, 367088, Note_off_c, 4, 61, 0
5, 367200, Note_on_c, 4, 61, 49
5, 367200, Note_on_c, 4, 64, 49
5, 367568, Note_off_c, 4, 64, 0
5, 367568, Note_off_c, 4, 61, 0
5, 367680, Note_on_c, 4, 61, 46
5, 367680, Note_on_c, 4, 64, 46
5, 368160, Note_off_c, 4, 64, 0
5, 368160, Note_off_c, 4, 61, 0
5, 369120, Note_on_c, 4, 59, 40
5, 369120, Note_on_c, 4, 54, 40
5, 369480, Note_off_c, 4, 54, 0
5, 369480, Note_off_c, 4, 59, 0
5, 369600, Note_on_c, 4, 59, 35
5, 369600, Note_on_c, 4, 54, 35
5, 370080, Note_off_c, 4, 54, 0
5, 370080, Note_off_c, 4, 59, 0
5, 371040, Note_on_c, 4, 49, 31
5, 371040, Note_on_c, 4, 54, 31
5, 371400, Note_off_c, 4, 54, 0
5, 371400, Note_off_c, 4, 49, 0
5, 371520, Note_on_c, 4, 49, 29
5, 371520, Note_on_c, 4, 54, 29
5, 372000, Note_off_c, 4, 54, 0
5, 372000, Note_off_c, 4, 49, 0
5, 372000, End_track
6, 0, Start_track
6, 0, Title_t, "Unnamed Track"
6, 0, Control_c, 5, 0, 0
6, 0, Control_c, 5, 32, 0
6, 0, Program_c, 5, 0
6, 0, Control_c, 5, 7, 125
6, 0, Pitch_bend_c, 5, 8192
6, 0, Control_c, 5, 1, 0
6, 0, Control_c, 5, 64, 0
6, 0, Control_c, 5, 93, 28
6, 0, Control_c, 5, 91, 100
6, 0, Control_c, 5, 10, 55
6, 3840, Note_on_c, 5, 60, 78
6, 3900, Note_off_c, 5, 60, 0
6, 3900, Note_on_c, 5, 58, 78
6, 3960, Note_off_c, 5, 58, 0
6, 3960, Note_on_c, 5, 57, 78
6, 4020, Note_off_c, 5, 57, 0
6, 4020, Note_on_c, 5, 55, 77
6, 4080, Note_off_c, 5, 55, 0
6, 4080, Note_on_c, 5, 54, 77
6, 4140, Note_off_c, 5, 54, 0
6, 4140, Note_on_c, 5, 51, 77
6, 4200, Note_off_c, 5, 51, 0
6, 4200, Note_on_c, 5, 50, 76
6, 4260, Note_off_c, 5, 50, 0
6, 4260, Note_on_c, 5, 48, 76
6, 4320, Note_off_c, 5, 48, 0
6, 4320, Note_on_c, 5, 46, 76
6, 4380, Note_off_c, 5, 46, 0
6, 4380, Note_on_c, 5, 45, 76
6, 4440, Note_off_c, 5, 45, 0
6, 4440, Note_on_c, 5, 43, 75
6, 4500, Note_off_c, 5, 43, 0
6, 4500, Note_on_c, 5, 42, 75
6, 4740, Note_off_c, 5, 42, 0
6, 5760, Note_on_c, 5, 54, 42
6, 6232, Note_off_c, 5, 54, 0
6, 6240, Note_on_c, 5, 50, 45
6, 6712, Note_off_c, 5, 50, 0
6, 6720, Note_on_c, 5, 55, 47
6, 7200, Note_off_c, 5, 55, 0
6, 7200, Note_on_c, 5, 48, 49
6, 7672, Note_off_c, 5, 48, 0
6, 7680, Note_on_c, 5, 50, 51
6, 8152, Note_off_c, 5, 50, 0
6, 8160, Note_on_c, 5, 50, 58
6, 8632, Note_off_c, 5, 50, 0
6, 8640, Note_on_c, 5, 55, 43
6, 9360, Note_off_c, 5, 55, 0
6, 11520, Note_on_c, 5, 58, 76
6, 11580, Note_off_c, 5, 58, 0
6, 11580, Note_on_c, 5, 56, 76
6, 11640, Note_off_c, 5, 56, 0
6, 11640, Note_on_c, 5, 55, 76
6, 11700, Note_off_c, 5, 55, 0
6, 11700, Note_on_c, 5, 53, 75
6, 11760, Note_off_c, 5, 53, 0
6, 11760, Note_on_c, 5, 52, 75
6, 11820, Note_off_c, 5, 52, 0
6, 11820, Note_on_c, 5, 49, 75
6, 11880, Note_off_c, 5, 49, 0
6, 11880, Note_on_c, 5, 48, 74
6, 11940, Note_off_c, 5, 48, 0
6, 11940, Note_on_c, 5, 46, 74
6, 12000, Note_off_c, 5, 46, 0
6, 12000, Note_on_c, 5, 44, 74
6, 12060, Note_off_c, 5, 44, 0
6, 12060, Note_on_c, 5, 43, 74
6, 12120, Note_off_c, 5, 43, 0
6, 12120, Note_on_c, 5, 41, 73
6, 12180, Note_off_c, 5, 41, 0
6, 12180, Note_on_c, 5, 40, 73
6, 12420, Note_off_c, 5, 40, 0
6, 13440, Note_on_c, 5, 52, 44
6, 13912, Note_off_c, 5, 52, 0
6, 13920, Note_on_c, 5, 48, 45
6, 14392, Note_off_c, 5, 48, 0
6, 14400, Note_on_c, 5, 53, 47
6, 14872, Note_off_c, 5, 53, 0
6, 14880, Note_on_c, 5, 46, 48
6, 15352, Note_off_c, 5, 46, 0
6, 15360, Note_on_c, 5, 48, 49
6, 15832, Note_off_c, 5, 48, 0
6, 15840, Note_on_c, 5, 48, 58
6, 16312, Note_off_c, 5, 48, 0
6, 16320, Note_on_c, 5, 53, 40
6, 17040, Note_off_c, 5, 53, 0
6, 17280, Note_on_c, 5, 37, 43
6, 17559, Note_off_c, 5, 37, 0
6, 17760, Note_on_c, 5, 37, 47
6, 18039, Note_off_c, 5, 37, 0
6, 18240, Note_on_c, 5, 37, 51
6, 18519, Note_off_c, 5, 37, 0
6, 18720, Note_on_c, 5, 37, 55
6, 18999, Note_off_c, 5, 37, 0
6, 19200, Note_on_c, 5, 53, 54
6, 19479, Note_off_c, 5, 53, 0
6, 19680, Note_on_c, 5, 54, 51
6, 19959, Note_off_c, 5, 54, 0
6, 20160, Note_on_c, 5, 55, 50
6, 20439, Note_off_c, 5, 55, 0
6, 20580, Note_on_c, 5, 56, 41
6, 20619, Note_off_c, 5, 56, 0
6, 20640, Note_on_c, 5, 56, 39
6, 21960, Note_off_c, 5, 56, 0
6, 24960, Note_on_c, 5, 61, 45
6, 25239, Note_off_c, 5, 61, 0
6, 25440, Note_on_c, 5, 61, 49
6, 25719, Note_off_c, 5, 61, 0
6, 25920, Note_on_c, 5, 61, 53
6, 26199, Note_off_c, 5, 61, 0
6, 26400, Note_on_c, 5, 61, 57
6, 26679, Note_off_c, 5, 61, 0
6, 26880, Note_on_c, 5, 61, 55
6, 27159, Note_off_c, 5, 61, 0
6, 27360, Note_on_c, 5, 54, 52
6, 27639, Note_off_c, 5, 54, 0
6, 27780, Note_on_c, 5, 57, 53
6, 27819, Note_off_c, 5, 57, 0
6, 27840, Note_on_c, 5, 55, 49
6, 28200, Note_off_c, 5, 55, 0
6, 28320, Note_on_c, 5, 56, 49
6, 28800, Note_off_c, 5, 56, 0
6, 28800, Note_on_c, 5, 57, 78
6, 29160, Note_off_c, 5, 57, 0
6, 29220, Note_on_c, 5, 57, 53
6, 29259, Note_off_c, 5, 57, 0
6, 29280, Note_on_c, 5, 57, 48
6, 30588, Note_off_c, 5, 57, 0
6, 31980, Note_on_c, 5, 41, 58
6, 32040, Note_off_c, 5, 41, 0
6, 32040, Note_on_c, 5, 43, 60
6, 32100, Note_off_c, 5, 43, 0
6, 32100, Note_on_c, 5, 45, 62
6, 32160, Note_off_c, 5, 45, 0
6, 32160, Note_on_c, 5, 46, 64
6, 32220, Note_off_c, 5, 46, 0
6, 32220, Note_on_c, 5, 48, 66
6, 32280, Note_off_c, 5, 48, 0
6, 32280, Note_on_c, 5, 50, 68
6, 32340, Note_off_c, 5, 50, 0
6, 32340, Note_on_c, 5, 52, 70
6, 32400, Note_off_c, 5, 52, 0
6, 32400, Note_on_c, 5, 53, 72
6, 32460, Note_off_c, 5, 53, 0
6, 32460, Note_on_c, 5, 55, 75
6, 32520, Note_off_c, 5, 55, 0
6, 32520, Note_on_c, 5, 57, 77
6, 32580, Note_off_c, 5, 57, 0
6, 32580, Note_on_c, 5, 58, 79
6, 32640, Note_off_c, 5, 58, 0
6, 32640, Note_on_c, 5, 60, 81
6, 32700, Note_off_c, 5, 60, 0
6, 32700, Note_on_c, 5, 62, 83
6, 32760, Note_off_c, 5, 62, 0
6, 32760, Note_on_c, 5, 64, 85
6, 32820, Note_off_c, 5, 64, 0
6, 32820, Note_on_c, 5, 65, 87
6, 32880, Note_off_c, 5, 65, 0
6, 32880, Note_on_c, 5, 67, 89
6, 32940, Note_off_c, 5, 67, 0
6, 32940, Note_on_c, 5, 69, 91
6, 33000, Note_off_c, 5, 69, 0
6, 33000, Note_on_c, 5, 70, 93
6, 33060, Note_off_c, 5, 70, 0
6, 33060, Note_on_c, 5, 72, 95
6, 33120, Note_off_c, 5, 72, 0
6, 33120, Note_on_c, 5, 74, 97
6, 33180, Note_off_c, 5, 74, 0
6, 33180, Note_on_c, 5, 76, 99
6, 33240, Note_off_c, 5, 76, 0
6, 33240, Note_on_c, 5, 77, 101
6, 33480, Note_off_c, 5, 77, 0
6, 35040, Note_on_c, 5, 46, 46
6, 35280, Note_off_c, 5, 46, 0
6, 35760, Note_on_c, 5, 46, 52
6, 36000, Note_off_c, 5, 46, 0
6, 36480, Note_on_c, 5, 46, 58
6, 36720, Note_off_c, 5, 46, 0
6, 37200, Note_on_c, 5, 46, 55
6, 37440, Note_off_c, 5, 46, 0
6, 37920, Note_on_c, 5, 48, 52
6, 38160, Note_off_c, 5, 48, 0
6, 38640, Note_on_c, 5, 48, 49
6, 38880, Note_off_c, 5, 48, 0
6, 39360, Note_on_c, 5, 41, 48
6, 39600, Note_off_c, 5, 41, 0
6, 40080, Note_on_c, 5, 39, 64
6, 40320, Note_off_c, 5, 39, 0
6, 40800, Note_on_c, 5, 39, 76
6, 41040, Note_off_c, 5, 39, 0
6, 41520, Note_on_c, 5, 38, 79
6, 41760, Note_off_c, 5, 38, 0
6, 42240, Note_on_c, 5, 36, 82
6, 42480, Note_off_c, 5, 36, 0
6, 42960, Note_on_c, 5, 46, 85
6, 43200, Note_off_c, 5, 46, 0
6, 43680, Note_on_c, 5, 53, 89
6, 43836, Note_off_c, 5, 53, 0
6, 43920, Note_on_c, 5, 53, 87
6, 44076, Note_off_c, 5, 53, 0
6, 44160, Note_on_c, 5, 53, 85
6, 44316, Note_off_c, 5, 53, 0
6, 44400, Note_on_c, 5, 53, 83
6, 44556, Note_off_c, 5, 53, 0
6, 44640, Note_on_c, 5, 53, 81
6, 44796, Note_off_c, 5, 53, 0
6, 44880, Note_on_c, 5, 53, 79
6, 45036, Note_off_c, 5, 53, 0
6, 45120, Note_on_c, 5, 58, 84
6, 45840, Note_off_c, 5, 58, 0
6, 45840, Note_on_c, 5, 39, 68
6, 46080, Note_off_c, 5, 39, 0
6, 46560, Note_on_c, 5, 39, 63
6, 46800, Note_off_c, 5, 39, 0
6, 47280, Note_on_c, 5, 38, 58
6, 47520, Note_off_c, 5, 38, 0
6, 48000, Note_on_c, 5, 36, 53
6, 48240, Note_off_c, 5, 36, 0
6, 48720, Note_on_c, 5, 46, 48
6, 48960, Note_off_c, 5, 46, 0
6, 49440, Note_on_c, 5, 51, 49
6, 49596, Note_off_c, 5, 51, 0
6, 49680, Note_on_c, 5, 51, 47
6, 49836, Note_off_c, 5, 51, 0
6, 49920, Note_on_c, 5, 51, 45
6, 50076, Note_off_c, 5, 51, 0
6, 50160, Note_on_c, 5, 51, 44
6, 50316, Note_off_c, 5, 51, 0
6, 50400, Note_on_c, 5, 51, 42
6, 50556, Note_off_c, 5, 51, 0
6, 50640, Note_on_c, 5, 51, 40
6, 50796, Note_off_c, 5, 51, 0
6, 50880, Note_on_c, 5, 51, 39
6, 51036, Note_off_c, 5, 51, 0
6, 51120, Note_on_c, 5, 51, 37
6, 51276, Note_off_c, 5, 51, 0
6, 51360, Note_on_c, 5, 51, 35
6, 51516, Note_off_c, 5, 51, 0
6, 51600, Note_on_c, 5, 51, 34
6, 51756, Note_off_c, 5, 51, 0
6, 51840, Note_on_c, 5, 51, 32
6, 51996, Note_off_c, 5, 51, 0
6, 52080, Note_on_c, 5, 51, 28
6, 52236, Note_off_c, 5, 51, 0
6, 52320, Note_on_c, 5, 51, 25
6, 53040, Note_off_c, 5, 51, 0
6, 53040, Note_on_c, 5, 51, 30
6, 53760, Note_off_c, 5, 51, 0
6, 53760, Note_on_c, 5, 51, 33
6, 54480, Note_off_c, 5, 51, 0
6, 54480, Note_on_c, 5, 51, 36
6, 55200, Note_off_c, 5, 51, 0
6, 55200, Note_on_c, 5, 50, 41
6, 55867, Note_off_c, 5, 50, 0
6, 57360, Note_on_c, 5, 56, 30
6, 58080, Note_off_c, 5, 56, 0
6, 58080, Note_on_c, 5, 50, 27
6, 58800, Note_off_c, 5, 50, 0
6, 58800, Note_on_c, 5, 53, 31
6, 59520, Note_off_c, 5, 53, 0
6, 59520, Note_on_c, 5, 46, 35
6, 60240, Note_off_c, 5, 46, 0
6, 60240, Note_on_c, 5, 51, 35
6, 60720, Note_off_c, 5, 51, 0
6, 60720, Note_on_c, 5, 45, 29
6, 60960, Note_off_c, 5, 45, 0
6, 60960, Note_on_c, 5, 46, 28
6, 61440, Note_off_c, 5, 46, 0
6, 63120, Note_on_c, 5, 58, 33
6, 63600, Note_off_c, 5, 58, 0
6, 63600, Note_on_c, 5, 56, 30
6, 63756, Note_off_c, 5, 56, 0
6, 63840, Note_on_c, 5, 56, 29
6, 64560, Note_off_c, 5, 56, 0
6, 64560, Note_on_c, 5, 51, 32
6, 65040, Note_off_c, 5, 51, 0
6, 65040, Note_on_c, 5, 50, 37
6, 65196, Note_off_c, 5, 50, 0
6, 65280, Note_on_c, 5, 50, 40
6, 66000, Note_off_c, 5, 50, 0
6, 66000, Note_on_c, 5, 51, 38
6, 66480, Note_off_c, 5, 51, 0
6, 66480, Note_on_c, 5, 46, 35
6, 66636, Note_off_c, 5, 46, 0
6, 66720, Note_on_c, 5, 46, 32
6, 68160, Control_c, 5, 64, 127
6, 68160, Note_off_c, 5, 46, 0
6, 68160, Note_on_c, 5, 45, 95
6, 69600, Note_off_c, 5, 45, 0
6, 72960, Note_on_c, 5, 45, 85
6, 72960, Note_on_c, 5, 57, 85
6, 73440, Control_c, 5, 64, 127
6, 73560, Control_c, 5, 64, 0
6, 73680, Control_c, 5, 64, 127
6, 73680, Note_off_c, 5, 57, 0
6, 73680, Note_off_c, 5, 45, 0
6, 75540, Note_on_c, 5, 38, 80
6, 75540, Note_on_c, 5, 50, 80
6, 76080, Control_c, 5, 64, 0
6, 76200, Control_c, 5, 64, 127
6, 76260, Note_off_c, 5, 50, 0
6, 76260, Note_off_c, 5, 38, 0
6, 77880, Note_on_c, 5, 44, 92
6, 77880, Note_on_c, 5, 56, 92
6, 78120, Note_off_c, 5, 56, 0
6, 78120, Note_off_c, 5, 44, 0
6, 78180, Control_c, 5, 64, 0
6, 78180, Note_on_c, 5, 45, 94
6, 78180, Note_on_c, 5, 57, 94
6, 78720, Control_c, 5, 64, 0
6, 78840, Control_c, 5, 64, 127
6, 78900, Note_off_c, 5, 57, 0
6, 78900, Note_off_c, 5, 45, 0
6, 78900, Note_on_c, 5, 45, 98
6, 78960, Note_off_c, 5, 45, 0
6, 78960, Note_on_c, 5, 49, 98
6, 79020, Note_off_c, 5, 49, 0
6, 79020, Note_on_c, 5, 52, 98
6, 79080, Note_off_c, 5, 52, 0
6, 79080, Note_on_c, 5, 49, 99
6, 79140, Note_off_c, 5, 49, 0
6, 79140, Note_on_c, 5, 45, 99
6, 79200, Note_off_c, 5, 45, 0
6, 79200, Note_on_c, 5, 49, 99
6, 79260, Note_off_c, 5, 49, 0
6, 79260, Note_on_c, 5, 52, 99
6, 79320, Note_off_c, 5, 52, 0
6, 79320, Note_on_c, 5, 55, 100
6, 79380, Note_off_c, 5, 55, 0
6, 79380, Note_on_c, 5, 52, 100
6, 79440, Note_off_c, 5, 52, 0
6, 79440, Note_on_c, 5, 49, 100
6, 79500, Note_off_c, 5, 49, 0
6, 79500, Note_on_c, 5, 52, 101
6, 79560, Note_off_c, 5, 52, 0
6, 79560, Note_on_c, 5, 55, 101
6, 79620, Note_off_c, 5, 55, 0
6, 79620, Note_on_c, 5, 61, 101
6, 79680, Note_off_c, 5, 61, 0
6, 79680, Note_on_c, 5, 57, 102
6, 79740, Note_off_c, 5, 57, 0
6, 79740, Note_on_c, 5, 52, 102
6, 79800, Note_off_c, 5, 52, 0
6, 79800, Note_on_c, 5, 55, 102
6, 79860, Note_off_c, 5, 55, 0
6, 79860, Note_on_c, 5, 61, 103
6, 79920, Note_off_c, 5, 61, 0
6, 79920, Note_on_c, 5, 64, 103
6, 79980, Note_off_c, 5, 64, 0
6, 79980, Note_on_c, 5, 61, 103
6, 80040, Note_off_c, 5, 61, 0
6, 80040, Note_on_c, 5, 55, 104
6, 80100, Note_off_c, 5, 55, 0
6, 80100, Note_on_c, 5, 61, 104
6, 80160, Note_off_c, 5, 61, 0
6, 80160, Note_on_c, 5, 64, 104
6, 80220, Note_off_c, 5, 64, 0
6, 80220, Note_on_c, 5, 67, 105
6, 80280, Note_off_c, 5, 67, 0
6, 80280, Note_on_c, 5, 64, 105
6, 80340, Note_off_c, 5, 64, 0
6, 80340, Note_on_c, 5, 61, 105
6, 80400, Note_off_c, 5, 61, 0
6, 80400, Note_on_c, 5, 64, 106
6, 80460, Note_off_c, 5, 64, 0
6, 80460, Note_on_c, 5, 67, 106
6, 80520, Note_off_c, 5, 67, 0
6, 80580, Note_on_c, 5, 67, 106
6, 80640, Note_off_c, 5, 67, 0
6, 80640, Note_on_c, 5, 64, 107
6, 80700, Note_off_c, 5, 64, 0
6, 80700, Note_on_c, 5, 67, 107
6, 80760, Note_off_c, 5, 67, 0
6, 80760, Note_on_c, 5, 73, 107
6, 80820, Note_off_c, 5, 73, 0
6, 80820, Note_on_c, 5, 76, 108
6, 80880, Note_off_c, 5, 76, 0
6, 80880, Note_on_c, 5, 73, 108
6, 80940, Note_off_c, 5, 73, 0
6, 80940, Note_on_c, 5, 67, 108
6, 81000, Note_off_c, 5, 67, 0
6, 81000, Note_on_c, 5, 73, 109
6, 81060, Note_off_c, 5, 73, 0
6, 81060, Note_on_c, 5, 76, 109
6, 81120, Note_off_c, 5, 76, 0
6, 81120, Note_on_c, 5, 79, 115
6, 81180, Note_off_c, 5, 79, 0
6, 81240, Control_c, 5, 64, 0
6, 83280, Note_on_c, 5, 45, 91
6, 83520, Note_off_c, 5, 45, 0
6, 83520, Note_on_c, 5, 38, 97
6, 83760, Note_off_c, 5, 38, 0
6, 83760, Note_on_c, 5, 41, 93
6, 84000, Note_off_c, 5, 41, 0
6, 84000, Note_on_c, 5, 45, 94
6, 84240, Note_off_c, 5, 45, 0
6, 84240, Note_on_c, 5, 50, 95
6, 84480, Note_off_c, 5, 50, 0
6, 84480, Note_on_c, 5, 53, 102
6, 84720, Note_off_c, 5, 53, 0
6, 84720, Note_on_c, 5, 50, 98
6, 84960, Note_off_c, 5, 50, 0
6, 84960, Note_on_c, 5, 49, 99
6, 85200, Note_off_c, 5, 49, 0
6, 85200, Note_on_c, 5, 50, 100
6, 85440, Note_off_c, 5, 50, 0
6, 85440, Note_on_c, 5, 49, 108
6, 85680, Note_off_c, 5, 49, 0
6, 85680, Note_on_c, 5, 45, 102
6, 85920, Note_off_c, 5, 45, 0
6, 85920, Note_on_c, 5, 47, 99
6, 86160, Note_off_c, 5, 47, 0
6, 86160, Note_on_c, 5, 49, 97
6, 86400, Note_off_c, 5, 49, 0
6, 86400, Note_on_c, 5, 50, 94
6, 86400, Note_on_c, 5, 38, 94
6, 86640, Note_off_c, 5, 38, 0
6, 86640, Note_off_c, 5, 50, 0
6, 88080, Note_on_c, 5, 45, 84
6, 88200, Note_off_c, 5, 45, 0
6, 88200, Note_on_c, 5, 57, 85
6, 88320, Note_off_c, 5, 57, 0
6, 88320, Note_on_c, 5, 38, 89
6, 88440, Note_on_c, 5, 50, 85
6, 88560, Note_off_c, 5, 50, 0
6, 88560, Note_off_c, 5, 38, 0
6, 88560, Note_on_c, 5, 41, 86
6, 88680, Note_on_c, 5, 53, 86
6, 88800, Note_off_c, 5, 53, 0
6, 88800, Note_off_c, 5, 41, 0
6, 88800, Note_on_c, 5, 45, 87
6, 88920, Note_on_c, 5, 57, 87
6, 89040, Note_off_c, 5, 57, 0
6, 89040, Note_off_c, 5, 45, 0
6, 89040, Note_on_c, 5, 50, 87
6, 89160, Note_on_c, 5, 62, 88
6, 89280, Note_off_c, 5, 62, 0
6, 89280, Note_off_c, 5, 50, 0
6, 89280, Note_on_c, 5, 53, 94
6, 89400, Note_on_c, 5, 65, 89
6, 89520, Note_off_c, 5, 65, 0
6, 89520, Note_off_c, 5, 53, 0
6, 89520, Note_on_c, 5, 50, 89
6, 89640, Note_on_c, 5, 62, 89
6, 89760, Note_off_c, 5, 62, 0
6, 89760, Note_off_c, 5, 50, 0
6, 89760, Note_on_c, 5, 49, 90
6, 89880, Note_on_c, 5, 61, 90
6, 90000, Note_off_c, 5, 61, 0
6, 90000, Note_off_c, 5, 49, 0
6, 90000, Note_on_c, 5, 50, 91
6, 90120, Note_on_c, 5, 62, 91
6, 90240, Note_off_c, 5, 62, 0
6, 90240, Note_off_c, 5, 50, 0
6, 90240, Note_on_c, 5, 52, 100
6, 90360, Note_on_c, 5, 64, 91
6, 90480, Note_off_c, 5, 64, 0
6, 90480, Note_off_c, 5, 52, 0
6, 90480, Note_on_c, 5, 50, 90
6, 90600, Note_on_c, 5, 62, 89
6, 90720, Note_off_c, 5, 62, 0
6, 90720, Note_off_c, 5, 50, 0
6, 90720, Note_on_c, 5, 48, 87
6, 90840, Note_on_c, 5, 60, 86
6, 90960, Note_off_c, 5, 60, 0
6, 90960, Note_off_c, 5, 48, 0
6, 90960, Note_on_c, 5, 47, 84
6, 91080, Note_on_c, 5, 59, 83
6, 91200, Note_off_c, 5, 59, 0
6, 91200, Note_off_c, 5, 47, 0
6, 91200, Note_on_c, 5, 57, 78
6, 91200, Note_on_c, 5, 45, 78
6, 91680, Note_off_c, 5, 45, 0
6, 91680, Note_off_c, 5, 57, 0
6, 92160, Note_on_c, 5, 53, 103
6, 93120, Note_off_c, 5, 53, 0
6, 93120, Note_on_c, 5, 53, 107
6, 94080, Note_off_c, 5, 53, 0
6, 94080, Note_on_c, 5, 53, 108
6, 95040, Note_off_c, 5, 53, 0
6, 95040, Note_on_c, 5, 52, 107
6, 96000, Note_off_c, 5, 52, 0
6, 96000, Note_on_c, 5, 52, 105
6, 96240, Note_off_c, 5, 52, 0
6, 96240, Note_on_c, 5, 49, 97
6, 96480, Note_off_c, 5, 49, 0
6, 96480, Note_on_c, 5, 48, 96
6, 96720, Note_off_c, 5, 48, 0
6, 96720, Note_on_c, 5, 49, 95
6, 96960, Note_off_c, 5, 49, 0
6, 96960, Note_on_c, 5, 45, 102
6, 97200, Note_off_c, 5, 45, 0
6, 97200, Note_on_c, 5, 43, 94
6, 97440, Note_off_c, 5, 43, 0
6, 97440, Note_on_c, 5, 41, 93
6, 97680, Note_off_c, 5, 41, 0
6, 97680, Note_on_c, 5, 40, 92
6, 97920, Note_off_c, 5, 40, 0
6, 97920, Note_on_c, 5, 38, 98
6, 98160, Note_off_c, 5, 38, 0
6, 98160, Note_on_c, 5, 41, 90
6, 98400, Note_off_c, 5, 41, 0
6, 98400, Note_on_c, 5, 45, 88
6, 98640, Note_off_c, 5, 45, 0
6, 98640, Note_on_c, 5, 49, 87
6, 98880, Note_off_c, 5, 49, 0
6, 98880, Note_on_c, 5, 50, 84
6, 99360, Note_off_c, 5, 50, 0
6, 99600, Note_on_c, 5, 48, 96
6, 99756, Note_off_c, 5, 48, 0
6, 99840, Note_on_c, 5, 53, 103
6, 100800, Note_off_c, 5, 53, 0
6, 100800, Note_on_c, 5, 53, 107
6, 101760, Note_off_c, 5, 53, 0
6, 101760, Note_on_c, 5, 53, 111
6, 102720, Note_off_c, 5, 53, 0
6, 102720, Note_on_c, 5, 52, 109
6, 103680, Note_off_c, 5, 52, 0
6, 103680, Note_on_c, 5, 52, 106
6, 103920, Note_off_c, 5, 52, 0
6, 103920, Note_on_c, 5, 49, 98
6, 104160, Note_off_c, 5, 49, 0
6, 104160, Note_on_c, 5, 48, 96
6, 104400, Note_off_c, 5, 48, 0
6, 104400, Note_on_c, 5, 49, 95
6, 104640, Note_off_c, 5, 49, 0
6, 104640, Note_on_c, 5, 45, 102
6, 104880, Note_off_c, 5, 45, 0
6, 104880, Note_on_c, 5, 43, 92
6, 105120, Note_off_c, 5, 43, 0
6, 105120, Note_on_c, 5, 41, 90
6, 105360, Note_off_c, 5, 41, 0
6, 105360, Note_on_c, 5, 40, 88
6, 105600, Note_off_c, 5, 40, 0
6, 105600, Note_on_c, 5, 38, 86
6, 105720, Note_on_c, 5, 50, 86
6, 105840, Note_off_c, 5, 50, 0
6, 105840, Note_off_c, 5, 38, 0
6, 105840, Note_on_c, 5, 41, 88
6, 105960, Note_on_c, 5, 53, 89
6, 106080, Note_off_c, 5, 53, 0
6, 106080, Note_off_c, 5, 41, 0
6, 106080, Note_on_c, 5, 45, 89
6, 106200, Note_on_c, 5, 57, 90
6, 106320, Note_off_c, 5, 57, 0
6, 106320, Note_off_c, 5, 45, 0
6, 106320, Note_on_c, 5, 50, 90
6, 106440, Note_on_c, 5, 62, 91
6, 106560, Note_off_c, 5, 62, 0
6, 106560, Note_off_c, 5, 50, 0
6, 106560, Note_on_c, 5, 52, 98
6, 106680, Note_on_c, 5, 64, 92
6, 106800, Note_off_c, 5, 64, 0
6, 106800, Note_off_c, 5, 52, 0
6, 106800, Note_on_c, 5, 45, 92
6, 106920, Note_on_c, 5, 57, 93
6, 107040, Note_off_c, 5, 57, 0
6, 107040, Note_off_c, 5, 45, 0
6, 107040, Note_on_c, 5, 49, 93
6, 107160, Note_on_c, 5, 61, 94
6, 107280, Note_off_c, 5, 61, 0
6, 107280, Note_off_c, 5, 49, 0
6, 107280, Note_on_c, 5, 45, 94
6, 107400, Note_on_c, 5, 57, 95
6, 107520, Note_off_c, 5, 57, 0
6, 107520, Note_off_c, 5, 45, 0
6, 107520, Note_on_c, 5, 50, 103
6, 107640, Note_on_c, 5, 62, 97
6, 107760, Note_off_c, 5, 62, 0
6, 107760, Note_off_c, 5, 50, 0
6, 107760, Note_on_c, 5, 45, 96
6, 107880, Note_on_c, 5, 57, 95
6, 108000, Note_off_c, 5, 57, 0
6, 108000, Note_off_c, 5, 45, 0
6, 108000, Note_on_c, 5, 53, 95
6, 108120, Note_on_c, 5, 65, 94
6, 108240, Note_off_c, 5, 65, 0
6, 108240, Note_off_c, 5, 53, 0
6, 108240, Note_on_c, 5, 45, 93
6, 108360, Note_on_c, 5, 57, 93
6, 108480, Note_off_c, 5, 57, 0
6, 108480, Note_off_c, 5, 45, 0
6, 108480, Note_on_c, 5, 52, 100
6, 108600, Note_on_c, 5, 64, 92
6, 108720, Note_off_c, 5, 64, 0
6, 108720, Note_off_c, 5, 52, 0
6, 108720, Note_on_c, 5, 45, 91
6, 108840, Note_on_c, 5, 57, 90
6, 108960, Note_off_c, 5, 57, 0
6, 108960, Note_off_c, 5, 45, 0
6, 108960, Note_on_c, 5, 49, 90
6, 109080, Note_on_c, 5, 61, 89
6, 109200, Note_off_c, 5, 61, 0
6, 109200, Note_off_c, 5, 49, 0
6, 109200, Note_on_c, 5, 45, 88
6, 109320, Note_on_c, 5, 57, 88
6, 109440, Note_off_c, 5, 57, 0
6, 109440, Note_off_c, 5, 45, 0
6, 109440, Note_on_c, 5, 50, 56
6, 109596, Note_off_c, 5, 50, 0
6, 109680, Note_on_c, 5, 57, 56
6, 109836, Note_off_c, 5, 57, 0
6, 110160, Note_on_c, 5, 57, 58
6, 110316, Note_off_c, 5, 57, 0
6, 110640, Note_on_c, 5, 57, 59
6, 110796, Note_off_c, 5, 57, 0
6, 111120, Note_on_c, 5, 57, 60
6, 111276, Note_off_c, 5, 57, 0
6, 111600, Note_on_c, 5, 57, 60
6, 111756, Note_off_c, 5, 57, 0
6, 112080, Note_on_c, 5, 57, 58
6, 112236, Note_off_c, 5, 57, 0
6, 112560, Note_on_c, 5, 57, 56
6, 112716, Note_off_c, 5, 57, 0
6, 113040, Note_on_c, 5, 57, 54
6, 113196, Note_off_c, 5, 57, 0
6, 113280, Note_on_c, 5, 38, 80
6, 113400, Note_on_c, 5, 50, 80
6, 113520, Note_off_c, 5, 50, 0
6, 113520, Note_off_c, 5, 38, 0
6, 113520, Note_on_c, 5, 41, 81
6, 113640, Note_on_c, 5, 53, 81
6, 113760, Note_off_c, 5, 53, 0
6, 113760, Note_off_c, 5, 41, 0
6, 113760, Note_on_c, 5, 45, 82
6, 113880, Note_on_c, 5, 57, 82
6, 114000, Note_off_c, 5, 57, 0
6, 114000, Note_off_c, 5, 45, 0
6, 114000, Note_on_c, 5, 50, 83
6, 114120, Note_on_c, 5, 62, 83
6, 114240, Note_off_c, 5, 62, 0
6, 114240, Note_off_c, 5, 50, 0
6, 114240, Note_on_c, 5, 52, 84
6, 114360, Note_on_c, 5, 64, 84
6, 114480, Note_off_c, 5, 64, 0
6, 114480, Note_off_c, 5, 52, 0
6, 114480, Note_on_c, 5, 45, 85
6, 114600, Note_on_c, 5, 57, 85
6, 114720, Note_off_c, 5, 57, 0
6, 114720, Note_off_c, 5, 45, 0
6, 114720, Note_on_c, 5, 49, 86
6, 114840, Note_on_c, 5, 61, 86
6, 114960, Note_off_c, 5, 61, 0
6, 114960, Note_off_c, 5, 49, 0
6, 114960, Note_on_c, 5, 45, 87
6, 115080, Note_on_c, 5, 57, 87
6, 115200, Note_off_c, 5, 57, 0
6, 115200, Note_off_c, 5, 45, 0
6, 115440, Note_on_c, 5, 57, 57
6, 115596, Note_off_c, 5, 57, 0
6, 115920, Note_on_c, 5, 57, 55
6, 116076, Note_off_c, 5, 57, 0
6, 116400, Note_on_c, 5, 57, 54
6, 116556, Note_off_c, 5, 57, 0
6, 116880, Note_on_c, 5, 57, 52
6, 117036, Note_off_c, 5, 57, 0
6, 117120, Note_on_c, 5, 38, 72
6, 117240, Note_on_c, 5, 50, 72
6, 117360, Note_off_c, 5, 50, 0
6, 117360, Note_off_c, 5, 38, 0
6, 117360, Note_on_c, 5, 41, 73
6, 117480, Note_on_c, 5, 53, 73
6, 117600, Note_off_c, 5, 53, 0
6, 117600, Note_off_c, 5, 41, 0
6, 117600, Note_on_c, 5, 45, 74
6, 117720, Note_on_c, 5, 57, 75
6, 117840, Note_off_c, 5, 57, 0
6, 117840, Note_off_c, 5, 45, 0
6, 117840, Note_on_c, 5, 50, 75
6, 117960, Note_on_c, 5, 62, 76
6, 118080, Note_off_c, 5, 62, 0
6, 118080, Note_off_c, 5, 50, 0
6, 118080, Note_on_c, 5, 52, 76
6, 118200, Note_on_c, 5, 64, 77
6, 118320, Note_off_c, 5, 64, 0
6, 118320, Note_off_c, 5, 52, 0
6, 118320, Note_on_c, 5, 45, 78
6, 118440, Note_on_c, 5, 57, 78
6, 118560, Note_off_c, 5, 57, 0
6, 118560, Note_off_c, 5, 45, 0
6, 118560, Note_on_c, 5, 49, 79
6, 118680, Note_on_c, 5, 61, 79
6, 118800, Note_off_c, 5, 61, 0
6, 118800, Note_off_c, 5, 49, 0
6, 118800, Note_on_c, 5, 45, 80
6, 118920, Note_on_c, 5, 57, 80
6, 119040, Note_off_c, 5, 57, 0
6, 119040, Note_off_c, 5, 45, 0
6, 119040, Note_on_c, 5, 49, 81
6, 119160, Note_on_c, 5, 61, 80
6, 119280, Note_off_c, 5, 61, 0
6, 119280, Note_off_c, 5, 49, 0
6, 119280, Note_on_c, 5, 45, 80
6, 119400, Note_on_c, 5, 57, 79
6, 119520, Note_off_c, 5, 57, 0
6, 119520, Note_off_c, 5, 45, 0
6, 119520, Note_on_c, 5, 46, 78
6, 119640, Note_on_c, 5, 58, 77
6, 119760, Note_off_c, 5, 58, 0
6, 119760, Note_off_c, 5, 46, 0
6, 119760, Note_on_c, 5, 43, 76
6, 119880, Note_on_c, 5, 55, 75
6, 120000, Note_off_c, 5, 55, 0
6, 120000, Note_off_c, 5, 43, 0
6, 120000, Note_on_c, 5, 49, 75
6, 120120, Note_on_c, 5, 61, 73
6, 120240, Note_off_c, 5, 61, 0
6, 120240, Note_off_c, 5, 49, 0
6, 120240, Note_on_c, 5, 45, 72
6, 120360, Note_on_c, 5, 57, 70
6, 120480, Note_off_c, 5, 57, 0
6, 120480, Note_off_c, 5, 45, 0
6, 120480, Note_on_c, 5, 46, 69
6, 120600, Note_on_c, 5, 58, 67
6, 120720, Note_off_c, 5, 58, 0
6, 120720, Note_off_c, 5, 46, 0
6, 120720, Note_on_c, 5, 43, 66
6, 120840, Note_on_c, 5, 55, 64
6, 120960, Note_off_c, 5, 55, 0
6, 120960, Note_off_c, 5, 43, 0
6, 120960, Note_on_c, 5, 46, 76
6, 121920, Control_c, 5, 64, 127
6, 121920, Note_off_c, 5, 46, 0
6, 121920, Note_on_c, 5, 46, 43
6, 123360, Note_off_c, 5, 46, 0
6, 123720, Control_c, 5, 64, 0
6, 123840, Note_on_c, 5, 44, 40
6, 124320, Note_off_c, 5, 44, 0
6, 124560, Note_on_c, 5, 46, 47
6, 124800, Note_off_c, 5, 46, 0
6, 124800, Note_on_c, 5, 44, 42
6, 125280, Note_off_c, 5, 44, 0
6, 125520, Note_on_c, 5, 44, 49
6, 125760, Note_off_c, 5, 44, 0
6, 125760, Note_on_c, 5, 46, 45
6, 126240, Note_off_c, 5, 46, 0
6, 126480, Note_on_c, 5, 46, 51
6, 126720, Note_off_c, 5, 46, 0
6, 126720, Note_on_c, 5, 44, 45
6, 126960, Note_off_c, 5, 44, 0
6, 127200, Note_on_c, 5, 42, 40
6, 127440, Note_off_c, 5, 42, 0
6, 127680, Note_on_c, 5, 41, 32
6, 129120, Note_off_c, 5, 41, 0
6, 131520, Note_on_c, 5, 46, 28
6, 132000, Note_off_c, 5, 46, 0
6, 132240, Note_on_c, 5, 48, 35
6, 132480, Note_off_c, 5, 48, 0
6, 132480, Note_on_c, 5, 46, 31
6, 132960, Note_off_c, 5, 46, 0
6, 133200, Note_on_c, 5, 46, 38
6, 133440, Note_off_c, 5, 46, 0
6, 133440, Note_on_c, 5, 48, 33
6, 133920, Note_off_c, 5, 48, 0
6, 134160, Note_on_c, 5, 48, 40
6, 134400, Note_off_c, 5, 48, 0
6, 134400, Note_on_c, 5, 46, 35
6, 134640, Note_off_c, 5, 46, 0
6, 134880, Note_on_c, 5, 44, 31
6, 135120, Note_off_c, 5, 44, 0
6, 135360, Note_on_c, 5, 42, 32
6, 136080, Note_off_c, 5, 42, 0
6, 136080, Note_on_c, 5, 40, 26
6, 136236, Note_off_c, 5, 40, 0
6, 136320, Note_on_c, 5, 40, 21
6, 137040, Control_c, 5, 64, 127
6, 137040, Note_off_c, 5, 40, 0
6, 137040, Note_on_c, 5, 76, 102
6, 137280, Note_off_c, 5, 76, 0
6, 137280, Note_on_c, 5, 79, 107
6, 137520, Note_off_c, 5, 79, 0
6, 137520, Note_on_c, 5, 76, 106
6, 137760, Note_off_c, 5, 76, 0
6, 137760, Note_on_c, 5, 73, 105
6, 138000, Note_off_c, 5, 73, 0
6, 138000, Note_on_c, 5, 76, 103
6, 138240, Note_off_c, 5, 76, 0
6, 138240, Note_on_c, 5, 67, 102
6, 138480, Note_off_c, 5, 67, 0
6, 138480, Note_on_c, 5, 73, 101
6, 138720, Note_off_c, 5, 73, 0
6, 138720, Note_on_c, 5, 64, 100
6, 138960, Note_off_c, 5, 64, 0
6, 138960, Note_on_c, 5, 67, 98
6, 139200, Note_off_c, 5, 67, 0
6, 139200, Note_on_c, 5, 61, 97
6, 139440, Note_off_c, 5, 61, 0
6, 139440, Note_on_c, 5, 64, 96
6, 139680, Note_off_c, 5, 64, 0
6, 139680, Note_on_c, 5, 55, 95
6, 139836, Note_off_c, 5, 55, 0
6, 139920, Control_c, 5, 64, 0
6, 139920, Note_on_c, 5, 35, 107
6, 140076, Note_off_c, 5, 35, 0
6, 140160, Note_on_c, 5, 34, 95
6, 141600, Note_off_c, 5, 34, 0
6, 141840, Control_c, 5, 64, 127
6, 141840, Note_on_c, 5, 76, 95
6, 142080, Note_off_c, 5, 76, 0
6, 142080, Note_on_c, 5, 79, 103
6, 142320, Note_off_c, 5, 79, 0
6, 142320, Note_on_c, 5, 76, 102
6, 142560, Note_off_c, 5, 76, 0
6, 142560, Note_on_c, 5, 73, 102
6, 142800, Note_off_c, 5, 73, 0
6, 142800, Note_on_c, 5, 76, 101
6, 143040, Note_off_c, 5, 76, 0
6, 143040, Note_on_c, 5, 67, 100
6, 143280, Note_off_c, 5, 67, 0
6, 143280, Note_on_c, 5, 73, 99
6, 143520, Note_off_c, 5, 73, 0
6, 143520, Note_on_c, 5, 64, 99
6, 143760, Note_off_c, 5, 64, 0
6, 143760, Note_on_c, 5, 67, 98
6, 144000, Note_off_c, 5, 67, 0
6, 144000, Note_on_c, 5, 61, 97
6, 144240, Note_off_c, 5, 61, 0
6, 144240, Note_on_c, 5, 64, 96
6, 144480, Note_off_c, 5, 64, 0
6, 144480, Note_on_c, 5, 55, 95
6, 144636, Note_off_c, 5, 55, 0
6, 144720, Control_c, 5, 64, 0
6, 144720, Note_on_c, 5, 57, 106
6, 144720, Note_on_c, 5, 45, 106
6, 144876, Note_off_c, 5, 45, 0
6, 144876, Note_off_c, 5, 57, 0
6, 144960, Note_on_c, 5, 38, 96
6, 146400, Note_off_c, 5, 38, 0
6, 146640, Control_c, 5, 64, 127
6, 146640, Note_on_c, 5, 52, 93
6, 146796, Note_off_c, 5, 52, 0
6, 146880, Note_on_c, 5, 55, 95
6, 147036, Note_off_c, 5, 55, 0
6, 147120, Note_on_c, 5, 52, 96
6, 147276, Note_off_c, 5, 52, 0
6, 147360, Note_on_c, 5, 49, 98
6, 147516, Note_off_c, 5, 49, 0
6, 147600, Note_on_c, 5, 52, 99
6, 147756, Note_off_c, 5, 52, 0
6, 147840, Note_on_c, 5, 43, 101
6, 147996, Note_off_c, 5, 43, 0
6, 148080, Note_on_c, 5, 49, 103
6, 148236, Note_off_c, 5, 49, 0
6, 148320, Note_on_c, 5, 40, 104
6, 148476, Note_off_c, 5, 40, 0
6, 148560, Note_on_c, 5, 43, 106
6, 148716, Note_off_c, 5, 43, 0
6, 148800, Note_on_c, 5, 37, 107
6, 148932, Note_off_c, 5, 37, 0
6, 149040, Note_on_c, 5, 40, 109
6, 149172, Note_off_c, 5, 40, 0
6, 149280, Note_on_c, 5, 40, 111
6, 149412, Note_off_c, 5, 40, 0
6, 149520, Control_c, 5, 64, 0
6, 149520, Note_on_c, 5, 40, 120
6, 149652, Note_off_c, 5, 40, 0
6, 149760, Note_on_c, 5, 29, 115
6, 152640, Note_off_c, 5, 29, 0
6, 174000, Note_on_c, 5, 55, 115
6, 174156, Note_off_c, 5, 55, 0
6, 174240, Note_on_c, 5, 54, 107
6, 174396, Note_off_c, 5, 54, 0
6, 174480, Note_on_c, 5, 52, 99
6, 174636, Note_off_c, 5, 52, 0
6, 174720, Note_on_c, 5, 50, 90
6, 174876, Note_off_c, 5, 50, 0
6, 174960, Note_on_c, 5, 49, 82
6, 175116, Note_off_c, 5, 49, 0
6, 175200, Note_on_c, 5, 47, 78
6, 175356, Note_off_c, 5, 47, 0
6, 175440, Note_on_c, 5, 46, 78
6, 175596, Note_off_c, 5, 46, 0
6, 175680, Note_on_c, 5, 52, 79
6, 175836, Note_off_c, 5, 52, 0
6, 175920, Note_on_c, 5, 49, 79
6, 176076, Note_off_c, 5, 49, 0
6, 176160, Note_on_c, 5, 55, 80
6, 176316, Note_off_c, 5, 55, 0
6, 176400, Note_on_c, 5, 52, 81
6, 176556, Note_off_c, 5, 52, 0
6, 176640, Note_on_c, 5, 58, 81
6, 176796, Note_off_c, 5, 58, 0
6, 176880, Note_on_c, 5, 55, 82
6, 177036, Note_off_c, 5, 55, 0
6, 177120, Note_on_c, 5, 64, 82
6, 177276, Note_off_c, 5, 64, 0
6, 177360, Note_on_c, 5, 61, 83
6, 177516, Note_off_c, 5, 61, 0
6, 177600, Note_on_c, 5, 67, 83
6, 177756, Note_off_c, 5, 67, 0
6, 177840, Note_on_c, 5, 66, 84
6, 177996, Note_off_c, 5, 66, 0
6, 178080, Note_on_c, 5, 64, 85
6, 178236, Note_off_c, 5, 64, 0
6, 178320, Note_on_c, 5, 63, 87
6, 178476, Note_off_c, 5, 63, 0
6, 178560, Note_on_c, 5, 64, 86
6, 178716, Note_off_c, 5, 64, 0
6, 178800, Note_on_c, 5, 66, 85
6, 178956, Note_off_c, 5, 66, 0
6, 179040, Note_on_c, 5, 64, 83
6, 179196, Note_off_c, 5, 64, 0
6, 179280, Note_on_c, 5, 52, 82
6, 179436, Note_off_c, 5, 52, 0
6, 179520, Note_on_c, 5, 55, 80
6, 179676, Note_off_c, 5, 55, 0
6, 179760, Note_on_c, 5, 54, 80
6, 179916, Note_off_c, 5, 54, 0
6, 180000, Note_on_c, 5, 60, 81
6, 180156, Note_off_c, 5, 60, 0
6, 180240, Note_on_c, 5, 57, 82
6, 180396, Note_off_c, 5, 57, 0
6, 180480, Note_on_c, 5, 54, 83
6, 180636, Note_off_c, 5, 54, 0
6, 180720, Note_on_c, 5, 57, 84
6, 180876, Note_off_c, 5, 57, 0
6, 180960, Note_on_c, 5, 54, 85
6, 181116, Note_off_c, 5, 54, 0
6, 181200, Note_on_c, 5, 51, 86
6, 181356, Note_off_c, 5, 51, 0
6, 181440, Note_on_c, 5, 57, 87
6, 181596, Note_off_c, 5, 57, 0
6, 181680, Note_on_c, 5, 54, 88
6, 181836, Note_off_c, 5, 54, 0
6, 181920, Note_on_c, 5, 51, 86
6, 182076, Note_off_c, 5, 51, 0
6, 182160, Note_on_c, 5, 59, 79
6, 182316, Note_off_c, 5, 59, 0
6, 182400, Note_on_c, 5, 54, 72
6, 182556, Note_off_c, 5, 54, 0
6, 182640, Control_c, 5, 64, 0
6, 182640, Note_on_c, 5, 52, 65
6, 182680, Control_c, 5, 64, 127
6, 182880, Note_off_c, 5, 52, 0
6, 183360, Control_c, 5, 64, 0
6, 183360, Note_on_c, 5, 55, 53
6, 183400, Control_c, 5, 64, 127
6, 183600, Note_off_c, 5, 55, 0
6, 184080, Control_c, 5, 64, 0
6, 184080, Note_on_c, 5, 54, 55
6, 184120, Control_c, 5, 64, 127
6, 184320, Note_off_c, 5, 54, 0
6, 184800, Control_c, 5, 64, 0
6, 184800, Note_on_c, 5, 57, 57
6, 184840, Control_c, 5, 64, 127
6, 185040, Note_off_c, 5, 57, 0
6, 185520, Control_c, 5, 64, 0
6, 185520, Note_on_c, 5, 55, 61
6, 185560, Control_c, 5, 64, 127
6, 185760, Note_off_c, 5, 55, 0
6, 186240, Control_c, 5, 64, 0
6, 186240, Note_on_c, 5, 52, 67
6, 186280, Control_c, 5, 64, 127
6, 186480, Note_off_c, 5, 52, 0
6, 186960, Control_c, 5, 64, 0
6, 186960, Note_on_c, 5, 51, 73
6, 187000, Control_c, 5, 64, 127
6, 187200, Note_off_c, 5, 51, 0
6, 187680, Control_c, 5, 64, 0
6, 187680, Note_on_c, 5, 54, 79
6, 187720, Control_c, 5, 64, 127
6, 187920, Note_off_c, 5, 54, 0
6, 188400, Control_c, 5, 64, 0
6, 188400, Note_on_c, 5, 53, 85
6, 188440, Control_c, 5, 64, 127
6, 188640, Note_off_c, 5, 53, 0
6, 189120, Control_c, 5, 64, 0
6, 189120, Note_on_c, 5, 53, 93
6, 189160, Control_c, 5, 64, 127
6, 189360, Note_off_c, 5, 53, 0
6, 189600, Note_on_c, 5, 56, 88
6, 189840, Control_c, 5, 64, 0
6, 189840, Note_off_c, 5, 56, 0
6, 190080, Note_on_c, 5, 61, 84
6, 190236, Note_off_c, 5, 61, 0
6, 190320, Note_on_c, 5, 59, 81
6, 190476, Note_off_c, 5, 59, 0
6, 190560, Note_on_c, 5, 57, 79
6, 190716, Note_off_c, 5, 57, 0
6, 190800, Note_on_c, 5, 56, 77
6, 190956, Note_off_c, 5, 56, 0
6, 191040, Note_on_c, 5, 54, 74
6, 191196, Note_off_c, 5, 54, 0
6, 191280, Note_on_c, 5, 53, 76
6, 191436, Note_off_c, 5, 53, 0
6, 191520, Note_on_c, 5, 59, 77
6, 191676, Note_off_c, 5, 59, 0
6, 191760, Note_on_c, 5, 56, 79
6, 191916, Note_off_c, 5, 56, 0
6, 192000, Note_on_c, 5, 62, 81
6, 192156, Note_off_c, 5, 62, 0
6, 192240, Note_on_c, 5, 59, 82
6, 192396, Note_off_c, 5, 59, 0
6, 192480, Note_on_c, 5, 65, 84
6, 192636, Note_off_c, 5, 65, 0
6, 192720, Note_on_c, 5, 62, 86
6, 192876, Note_off_c, 5, 62, 0
6, 192960, Note_on_c, 5, 68, 88
6, 193116, Note_off_c, 5, 68, 0
6, 193200, Note_on_c, 5, 65, 89
6, 193356, Note_off_c, 5, 65, 0
6, 193440, Note_on_c, 5, 68, 93
6, 193596, Note_off_c, 5, 68, 0
6, 193680, Note_on_c, 5, 66, 86
6, 193836, Note_off_c, 5, 66, 0
6, 193920, Note_on_c, 5, 65, 79
6, 194076, Note_off_c, 5, 65, 0
6, 194160, Control_c, 5, 64, 0
6, 194160, Note_on_c, 5, 54, 72
6, 194200, Control_c, 5, 64, 127
6, 194400, Note_off_c, 5, 54, 0
6, 194880, Control_c, 5, 64, 0
6, 194880, Note_on_c, 5, 57, 69
6, 194920, Control_c, 5, 64, 127
6, 195120, Note_off_c, 5, 57, 0
6, 195600, Control_c, 5, 64, 0
6, 195600, Note_on_c, 5, 56, 69
6, 195640, Control_c, 5, 64, 127
6, 195840, Note_off_c, 5, 56, 0
6, 196320, Control_c, 5, 64, 0
6, 196320, Note_on_c, 5, 59, 70
6, 196360, Control_c, 5, 64, 127
6, 196560, Note_off_c, 5, 59, 0
6, 197040, Control_c, 5, 64, 0
6, 197040, Note_on_c, 5, 57, 73
6, 197080, Control_c, 5, 64, 127
6, 197280, Note_off_c, 5, 57, 0
6, 197760, Control_c, 5, 64, 0
6, 197760, Note_on_c, 5, 54, 78
6, 197800, Control_c, 5, 64, 127
6, 198000, Note_off_c, 5, 54, 0
6, 198480, Control_c, 5, 64, 0
6, 198480, Note_on_c, 5, 53, 82
6, 198520, Control_c, 5, 64, 127
6, 198720, Note_off_c, 5, 53, 0
6, 199200, Control_c, 5, 64, 0
6, 199200, Note_on_c, 5, 56, 87
6, 199240, Control_c, 5, 64, 127
6, 199440, Note_off_c, 5, 56, 0
6, 199920, Control_c, 5, 64, 0
6, 199920, Note_on_c, 5, 55, 92
6, 199960, Control_c, 5, 64, 127
6, 200160, Note_off_c, 5, 55, 0
6, 200640, Control_c, 5, 64, 0
6, 200640, Note_on_c, 5, 55, 101
6, 200680, Control_c, 5, 64, 127
6, 200796, Note_off_c, 5, 55, 0
6, 201360, Control_c, 5, 64, 0
6, 201360, Note_on_c, 5, 58, 95
6, 201516, Note_off_c, 5, 58, 0
6, 201600, Note_on_c, 5, 69, 93
6, 201756, Note_off_c, 5, 69, 0
6, 201840, Note_on_c, 5, 67, 91
6, 201996, Note_off_c, 5, 67, 0
6, 202080, Note_on_c, 5, 66, 88
6, 202236, Note_off_c, 5, 66, 0
6, 202320, Note_on_c, 5, 64, 86
6, 202476, Note_off_c, 5, 64, 0
6, 202560, Note_on_c, 5, 62, 86
6, 202716, Note_off_c, 5, 62, 0
6, 202800, Note_on_c, 5, 55, 87
6, 202956, Note_off_c, 5, 55, 0
6, 203040, Note_on_c, 5, 67, 89
6, 203196, Note_off_c, 5, 67, 0
6, 203280, Note_on_c, 5, 64, 90
6, 203436, Note_off_c, 5, 64, 0
6, 203520, Note_on_c, 5, 52, 92
6, 203676, Note_off_c, 5, 52, 0
6, 203760, Note_on_c, 5, 61, 93
6, 203916, Note_off_c, 5, 61, 0
6, 204000, Note_on_c, 5, 58, 95
6, 204156, Note_off_c, 5, 58, 0
6, 204240, Note_on_c, 5, 49, 96
6, 204396, Note_off_c, 5, 49, 0
6, 204480, Note_on_c, 5, 58, 98
6, 204636, Note_off_c, 5, 58, 0
6, 204720, Note_on_c, 5, 55, 99
6, 204876, Note_off_c, 5, 55, 0
6, 204960, Note_on_c, 5, 46, 101
6, 205116, Note_off_c, 5, 46, 0
6, 205200, Note_on_c, 5, 58, 93
6, 205356, Note_off_c, 5, 58, 0
6, 205440, Note_on_c, 5, 54, 86
6, 205596, Note_off_c, 5, 54, 0
6, 205680, Control_c, 5, 64, 0
6, 205680, Note_on_c, 5, 47, 76
6, 205720, Control_c, 5, 64, 127
6, 205920, Note_off_c, 5, 47, 0
6, 206400, Control_c, 5, 64, 0
6, 206400, Note_on_c, 5, 50, 76
6, 206440, Control_c, 5, 64, 127
6, 206640, Note_off_c, 5, 50, 0
6, 207120, Control_c, 5, 64, 0
6, 207120, Note_on_c, 5, 49, 77
6, 207160, Control_c, 5, 64, 127
6, 207360, Note_off_c, 5, 49, 0
6, 207840, Control_c, 5, 64, 0
6, 207840, Note_on_c, 5, 52, 78
6, 207880, Control_c, 5, 64, 127
6, 208080, Note_off_c, 5, 52, 0
6, 208560, Control_c, 5, 64, 0
6, 208560, Note_on_c, 5, 50, 79
6, 208600, Control_c, 5, 64, 127
6, 208800, Note_off_c, 5, 50, 0
6, 209280, Control_c, 5, 64, 0
6, 209280, Note_on_c, 5, 47, 85
6, 209320, Control_c, 5, 64, 127
6, 209520, Note_off_c, 5, 47, 0
6, 210000, Control_c, 5, 64, 0
6, 210000, Note_on_c, 5, 46, 90
6, 210040, Control_c, 5, 64, 127
6, 210240, Note_off_c, 5, 46, 0
6, 210720, Control_c, 5, 64, 0
6, 210720, Note_on_c, 5, 46, 96
6, 210760, Control_c, 5, 64, 127
6, 210960, Note_off_c, 5, 46, 0
6, 211440, Control_c, 5, 64, 0
6, 211440, Note_on_c, 5, 46, 101
6, 211480, Control_c, 5, 64, 127
6, 211680, Note_off_c, 5, 46, 0
6, 212160, Control_c, 5, 64, 0
6, 212160, Note_on_c, 5, 46, 107
6, 212220, Control_c, 5, 64, 127
6, 212316, Note_off_c, 5, 46, 0
6, 212400, Note_on_c, 5, 52, 106
6, 212556, Note_off_c, 5, 52, 0
6, 212640, Note_on_c, 5, 49, 105
6, 212796, Note_off_c, 5, 49, 0
6, 212880, Note_on_c, 5, 55, 104
6, 213036, Note_off_c, 5, 55, 0
6, 213120, Note_on_c, 5, 52, 103
6, 213276, Note_off_c, 5, 52, 0
6, 213360, Note_on_c, 5, 58, 102
6, 213516, Note_off_c, 5, 58, 0
6, 213600, Note_on_c, 5, 55, 101
6, 213756, Note_off_c, 5, 55, 0
6, 213840, Note_on_c, 5, 61, 100
6, 213996, Note_off_c, 5, 61, 0
6, 214080, Note_on_c, 5, 58, 98
6, 214236, Note_off_c, 5, 58, 0
6, 214320, Note_on_c, 5, 64, 99
6, 214476, Note_off_c, 5, 64, 0
6, 214560, Note_on_c, 5, 61, 100
6, 214716, Note_off_c, 5, 61, 0
6, 214800, Note_on_c, 5, 58, 101
6, 214956, Note_off_c, 5, 58, 0
6, 215040, Note_on_c, 5, 55, 102
6, 215196, Note_off_c, 5, 55, 0
6, 215280, Note_on_c, 5, 58, 103
6, 215436, Note_off_c, 5, 58, 0
6, 215520, Note_on_c, 5, 52, 104
6, 215676, Note_off_c, 5, 52, 0
6, 215760, Note_on_c, 5, 55, 105
6, 215916, Note_off_c, 5, 55, 0
6, 216000, Note_on_c, 5, 49, 106
6, 216156, Note_off_c, 5, 49, 0
6, 216240, Note_on_c, 5, 52, 106
6, 216396, Note_off_c, 5, 52, 0
6, 216480, Note_on_c, 5, 46, 107
6, 216636, Note_off_c, 5, 46, 0
6, 216720, Note_on_c, 5, 52, 108
6, 216876, Note_off_c, 5, 52, 0
6, 216960, Note_on_c, 5, 49, 109
6, 217116, Note_off_c, 5, 49, 0
6, 217200, Note_on_c, 5, 55, 110
6, 217356, Note_off_c, 5, 55, 0
6, 217440, Note_on_c, 5, 52, 111
6, 217596, Note_off_c, 5, 52, 0
6, 217680, Note_on_c, 5, 49, 112
6, 217836, Note_off_c, 5, 49, 0
6, 217920, Control_c, 5, 64, 0
6, 217920, Note_on_c, 5, 46, 113
6, 217960, Control_c, 5, 64, 127
6, 218076, Note_off_c, 5, 46, 0
6, 218160, Note_on_c, 5, 52, 112
6, 218316, Note_off_c, 5, 52, 0
6, 218400, Note_on_c, 5, 49, 111
6, 218556, Note_off_c, 5, 49, 0
6, 218640, Note_on_c, 5, 54, 110
6, 218796, Note_off_c, 5, 54, 0
6, 218880, Note_on_c, 5, 52, 109
6, 219036, Note_off_c, 5, 52, 0
6, 219120, Note_on_c, 5, 58, 108
6, 219276, Note_off_c, 5, 58, 0
6, 219360, Note_on_c, 5, 54, 107
6, 219516, Note_off_c, 5, 54, 0
6, 219600, Note_on_c, 5, 61, 106
6, 219756, Note_off_c, 5, 61, 0
6, 219840, Note_on_c, 5, 58, 105
6, 219996, Note_off_c, 5, 58, 0
6, 220080, Note_on_c, 5, 64, 104
6, 220236, Note_off_c, 5, 64, 0
6, 220320, Note_on_c, 5, 61, 105
6, 220476, Note_off_c, 5, 61, 0
6, 220560, Note_on_c, 5, 58, 106
6, 220716, Note_off_c, 5, 58, 0
6, 220800, Note_on_c, 5, 54, 108
6, 220956, Note_off_c, 5, 54, 0
6, 221040, Note_on_c, 5, 61, 109
6, 221196, Note_off_c, 5, 61, 0
6, 221280, Note_on_c, 5, 58, 110
6, 221436, Note_off_c, 5, 58, 0
6, 221520, Note_on_c, 5, 52, 111
6, 221676, Note_off_c, 5, 52, 0
6, 221760, Note_on_c, 5, 58, 113
6, 221916, Note_off_c, 5, 58, 0
6, 222000, Note_on_c, 5, 54, 114
6, 222156, Note_off_c, 5, 54, 0
6, 222240, Note_on_c, 5, 49, 115
6, 222396, Note_off_c, 5, 49, 0
6, 222480, Note_on_c, 5, 54, 116
6, 222636, Note_off_c, 5, 54, 0
6, 222720, Note_on_c, 5, 52, 118
6, 222876, Note_off_c, 5, 52, 0
6, 222960, Note_on_c, 5, 46, 119
6, 223116, Note_off_c, 5, 46, 0
6, 223200, Note_on_c, 5, 52, 120
6, 223356, Note_off_c, 5, 52, 0
6, 223440, Note_on_c, 5, 49, 121
6, 223596, Note_off_c, 5, 49, 0
6, 223680, Control_c, 5, 64, 127
6, 223680, Note_on_c, 5, 46, 123
6, 223680, Note_on_c, 5, 34, 123
6, 224160, Note_off_c, 5, 34, 0
6, 224160, Note_off_c, 5, 46, 0
6, 225600, Control_c, 5, 64, 0
6, 226320, Note_on_c, 5, 46, 46
6, 226560, Note_off_c, 5, 46, 0
6, 226560, Note_on_c, 5, 45, 41
6, 227040, Note_off_c, 5, 45, 0
6, 227280, Note_on_c, 5, 45, 50
6, 227520, Note_off_c, 5, 45, 0
6, 227520, Note_on_c, 5, 43, 45
6, 228000, Note_off_c, 5, 43, 0
6, 228240, Note_on_c, 5, 43, 54
6, 228480, Note_off_c, 5, 43, 0
6, 228480, Note_on_c, 5, 40, 49
6, 228960, Note_off_c, 5, 40, 0
6, 229440, Note_on_c, 5, 46, 53
6, 229920, Note_off_c, 5, 46, 0
6, 230160, Note_on_c, 5, 46, 61
6, 230640, Note_off_c, 5, 46, 0
6, 230640, Note_on_c, 5, 46, 66
6, 231360, Note_off_c, 5, 46, 0
6, 231360, Note_on_c, 5, 47, 44
6, 231600, Note_off_c, 5, 47, 0
6, 231600, Note_on_c, 5, 47, 45
6, 231840, Note_off_c, 5, 47, 0
6, 231840, Note_on_c, 5, 47, 45
6, 232080, Note_off_c, 5, 47, 0
6, 232080, Note_on_c, 5, 47, 46
6, 232320, Note_off_c, 5, 47, 0
6, 232320, Note_on_c, 5, 46, 47
6, 232560, Note_off_c, 5, 46, 0
6, 232560, Note_on_c, 5, 46, 48
6, 232800, Note_off_c, 5, 46, 0
6, 232800, Note_on_c, 5, 46, 49
6, 233040, Note_off_c, 5, 46, 0
6, 233040, Note_on_c, 5, 47, 49
6, 233280, Note_off_c, 5, 47, 0
6, 233280, Note_on_c, 5, 47, 50
6, 233520, Note_off_c, 5, 47, 0
6, 233520, Note_on_c, 5, 52, 51
6, 233760, Note_off_c, 5, 52, 0
6, 233760, Note_on_c, 5, 52, 52
6, 234000, Note_off_c, 5, 52, 0
6, 234000, Note_on_c, 5, 49, 53
6, 234240, Note_off_c, 5, 49, 0
6, 234240, Note_on_c, 5, 49, 55
6, 234480, Note_off_c, 5, 49, 0
6, 234480, Note_on_c, 5, 54, 52
6, 234720, Note_off_c, 5, 54, 0
6, 234720, Note_on_c, 5, 54, 49
6, 234960, Note_off_c, 5, 54, 0
6, 234960, Note_on_c, 5, 54, 46
6, 235200, Note_off_c, 5, 54, 0
6, 235200, Note_on_c, 5, 47, 44
6, 235440, Note_off_c, 5, 47, 0
6, 235440, Note_on_c, 5, 47, 45
6, 235680, Note_off_c, 5, 47, 0
6, 235680, Note_on_c, 5, 47, 46
6, 235920, Note_off_c, 5, 47, 0
6, 235920, Note_on_c, 5, 47, 47
6, 236160, Note_off_c, 5, 47, 0
6, 236160, Note_on_c, 5, 46, 48
6, 236400, Note_off_c, 5, 46, 0
6, 236400, Note_on_c, 5, 46, 49
6, 236640, Note_off_c, 5, 46, 0
6, 236640, Note_on_c, 5, 46, 51
6, 236880, Note_off_c, 5, 46, 0
6, 236880, Note_on_c, 5, 47, 52
6, 237120, Note_off_c, 5, 47, 0
6, 237120, Note_on_c, 5, 47, 53
6, 237360, Note_off_c, 5, 47, 0
6, 237360, Note_on_c, 5, 52, 54
6, 237600, Note_off_c, 5, 52, 0
6, 237600, Note_on_c, 5, 52, 55
6, 237840, Note_off_c, 5, 52, 0
6, 237840, Note_on_c, 5, 49, 56
6, 238080, Note_off_c, 5, 49, 0
6, 238080, Note_on_c, 5, 54, 57
6, 238320, Note_off_c, 5, 54, 0
6, 238320, Note_on_c, 5, 54, 54
6, 238560, Note_off_c, 5, 54, 0
6, 238560, Note_on_c, 5, 47, 51
6, 238920, Note_off_c, 5, 47, 0
6, 239040, Note_on_c, 5, 47, 46
6, 239118, Note_off_c, 5, 47, 0
6, 239220, Note_on_c, 5, 63, 46
6, 239259, Note_off_c, 5, 63, 0
6, 239280, Note_on_c, 5, 59, 47
6, 239358, Note_off_c, 5, 59, 0
6, 239460, Note_on_c, 5, 63, 47
6, 239499, Note_off_c, 5, 63, 0
6, 239520, Note_on_c, 5, 59, 48
6, 239598, Note_off_c, 5, 59, 0
6, 239700, Note_on_c, 5, 63, 48
6, 239739, Note_off_c, 5, 63, 0
6, 239760, Note_on_c, 5, 61, 49
6, 239838, Note_off_c, 5, 61, 0
6, 239940, Note_on_c, 5, 59, 49
6, 239979, Note_off_c, 5, 59, 0
6, 240000, Note_on_c, 5, 54, 50
6, 240078, Note_off_c, 5, 54, 0
6, 240180, Note_on_c, 5, 58, 50
6, 240219, Note_off_c, 5, 58, 0
6, 240240, Note_on_c, 5, 54, 51
6, 240318, Note_off_c, 5, 54, 0
6, 240420, Note_on_c, 5, 58, 51
6, 240459, Note_off_c, 5, 58, 0
6, 240480, Note_on_c, 5, 54, 52
6, 240558, Note_off_c, 5, 54, 0
6, 240660, Note_on_c, 5, 47, 52
6, 240699, Note_off_c, 5, 47, 0
6, 240720, Note_on_c, 5, 54, 53
6, 240798, Note_off_c, 5, 54, 0
6, 240900, Note_on_c, 5, 54, 53
6, 240939, Note_off_c, 5, 54, 0
6, 240960, Note_on_c, 5, 47, 54
6, 241038, Note_off_c, 5, 47, 0
6, 241140, Note_on_c, 5, 54, 54
6, 241179, Note_off_c, 5, 54, 0
6, 241200, Note_on_c, 5, 52, 55
6, 241278, Note_off_c, 5, 52, 0
6, 241380, Note_on_c, 5, 56, 55
6, 241419, Note_off_c, 5, 56, 0
6, 241440, Note_on_c, 5, 52, 56
6, 241518, Note_off_c, 5, 52, 0
6, 241620, Note_on_c, 5, 56, 56
6, 241659, Note_off_c, 5, 56, 0
6, 241680, Note_on_c, 5, 49, 57
6, 241758, Note_off_c, 5, 49, 0
6, 241860, Note_on_c, 5, 56, 57
6, 241899, Note_off_c, 5, 56, 0
6, 241920, Note_on_c, 5, 54, 59
6, 241998, Note_off_c, 5, 54, 0
6, 242100, Note_on_c, 5, 58, 57
6, 242139, Note_off_c, 5, 58, 0
6, 242160, Note_on_c, 5, 54, 57
6, 242238, Note_off_c, 5, 54, 0
6, 242340, Note_on_c, 5, 58, 54
6, 242379, Note_off_c, 5, 58, 0
6, 242400, Note_on_c, 5, 54, 54
6, 242478, Note_off_c, 5, 54, 0
6, 242580, Note_on_c, 5, 58, 52
6, 242580, Note_on_c, 5, 54, 52
6, 242619, Note_off_c, 5, 54, 0
6, 242619, Note_off_c, 5, 58, 0
6, 242640, Note_on_c, 5, 56, 51
6, 242718, Note_off_c, 5, 56, 0
6, 242820, Note_on_c, 5, 58, 49
6, 242859, Note_off_c, 5, 58, 0
6, 242880, Note_on_c, 5, 59, 48
6, 242958, Note_off_c, 5, 59, 0
6, 243060, Note_on_c, 5, 63, 49
6, 243099, Note_off_c, 5, 63, 0
6, 243120, Note_on_c, 5, 59, 49
6, 243198, Note_off_c, 5, 59, 0
6, 243300, Note_on_c, 5, 63, 50
6, 243339, Note_off_c, 5, 63, 0
6, 243360, Note_on_c, 5, 59, 50
6, 243438, Note_off_c, 5, 59, 0
6, 243540, Note_on_c, 5, 63, 51
6, 243579, Note_off_c, 5, 63, 0
6, 243600, Note_on_c, 5, 61, 52
6, 243678, Note_off_c, 5, 61, 0
6, 243780, Note_on_c, 5, 59, 53
6, 243819, Note_off_c, 5, 59, 0
6, 243840, Note_on_c, 5, 54, 53
6, 243918, Note_off_c, 5, 54, 0
6, 244020, Note_on_c, 5, 58, 54
6, 244059, Note_off_c, 5, 58, 0
6, 244080, Note_on_c, 5, 54, 54
6, 244158, Note_off_c, 5, 54, 0
6, 244260, Note_on_c, 5, 58, 55
6, 244299, Note_off_c, 5, 58, 0
6, 244320, Note_on_c, 5, 54, 55
6, 244398, Note_off_c, 5, 54, 0
6, 244500, Note_on_c, 5, 47, 56
6, 244539, Note_off_c, 5, 47, 0
6, 244560, Note_on_c, 5, 54, 57
6, 244638, Note_off_c, 5, 54, 0
6, 244740, Note_on_c, 5, 54, 58
6, 244779, Note_off_c, 5, 54, 0
6, 244800, Note_on_c, 5, 47, 58
6, 244878, Note_off_c, 5, 47, 0
6, 244980, Note_on_c, 5, 54, 59
6, 245019, Note_off_c, 5, 54, 0
6, 245040, Note_on_c, 5, 52, 59
6, 245118, Note_off_c, 5, 52, 0
6, 245220, Note_on_c, 5, 56, 60
6, 245259, Note_off_c, 5, 56, 0
6, 245280, Note_on_c, 5, 52, 61
6, 245358, Note_off_c, 5, 52, 0
6, 245460, Note_on_c, 5, 56, 62
6, 245499, Note_off_c, 5, 56, 0
6, 245520, Note_on_c, 5, 49, 62
6, 245598, Note_off_c, 5, 49, 0
6, 245700, Note_on_c, 5, 56, 63
6, 245739, Note_off_c, 5, 56, 0
6, 245760, Note_on_c, 5, 54, 65
6, 245838, Note_off_c, 5, 54, 0
6, 245940, Note_on_c, 5, 58, 62
6, 245979, Note_off_c, 5, 58, 0
6, 246000, Note_on_c, 5, 54, 61
6, 246078, Note_off_c, 5, 54, 0
6, 246180, Note_on_c, 5, 54, 58
6, 246219, Note_off_c, 5, 54, 0
6, 246240, Note_on_c, 5, 47, 57
6, 246318, Note_off_c, 5, 47, 0
6, 246420, Note_on_c, 5, 51, 54
6, 246459, Note_off_c, 5, 51, 0
6, 246480, Note_on_c, 5, 47, 53
6, 246558, Note_off_c, 5, 47, 0
6, 246840, Note_on_c, 5, 47, 50
6, 247200, Note_off_c, 5, 47, 0
6, 247320, Note_on_c, 5, 47, 51
6, 247680, Note_off_c, 5, 47, 0
6, 247800, Note_on_c, 5, 46, 52
6, 248160, Note_off_c, 5, 46, 0
6, 248280, Note_on_c, 5, 46, 53
6, 248520, Note_on_c, 5, 47, 54
6, 248527, Note_off_c, 5, 46, 0
6, 248640, Note_off_c, 5, 47, 0
6, 248760, Note_on_c, 5, 51, 54
6, 249000, Note_on_c, 5, 52, 55
6, 249007, Note_off_c, 5, 51, 0
6, 249120, Note_off_c, 5, 52, 0
6, 249240, Note_on_c, 5, 52, 55
6, 249600, Note_off_c, 5, 52, 0
6, 249720, Note_on_c, 5, 52, 56
6, 249960, Note_on_c, 5, 54, 55
6, 249971, Note_off_c, 5, 52, 0
6, 250080, Note_off_c, 5, 54, 0
6, 250200, Note_on_c, 5, 54, 53
6, 250436, Note_off_c, 5, 54, 0
6, 250440, Note_on_c, 5, 54, 51
6, 250560, Note_off_c, 5, 54, 0
6, 250680, Note_on_c, 5, 59, 50
6, 251040, Note_off_c, 5, 59, 0
6, 251160, Note_on_c, 5, 59, 52
6, 251520, Note_off_c, 5, 59, 0
6, 251640, Note_on_c, 5, 58, 55
6, 252000, Note_off_c, 5, 58, 0
6, 252120, Note_on_c, 5, 58, 57
6, 252360, Note_off_c, 5, 58, 0
6, 252360, Note_on_c, 5, 59, 58
6, 252480, Note_off_c, 5, 59, 0
6, 252600, Note_on_c, 5, 63, 59
6, 252840, Note_on_c, 5, 64, 61
6, 252843, Note_off_c, 5, 63, 0
6, 252960, Note_off_c, 5, 64, 0
6, 253080, Note_on_c, 5, 64, 62
6, 253440, Note_off_c, 5, 64, 0
6, 253560, Note_on_c, 5, 64, 64
6, 253800, Note_on_c, 5, 66, 61
6, 253811, Note_off_c, 5, 64, 0
6, 253920, Note_off_c, 5, 66, 0
6, 254040, Note_on_c, 5, 71, 58
6, 254400, Note_off_c, 5, 71, 0
6, 254400, Note_on_c, 5, 47, 54
6, 254478, Note_off_c, 5, 47, 0
6, 254520, Note_on_c, 5, 66, 54
6, 254598, Note_off_c, 5, 66, 0
6, 254640, Note_on_c, 5, 63, 55
6, 254718, Note_off_c, 5, 63, 0
6, 254760, Note_on_c, 5, 59, 55
6, 254838, Note_off_c, 5, 59, 0
6, 254880, Note_on_c, 5, 54, 56
6, 254958, Note_off_c, 5, 54, 0
6, 255000, Note_on_c, 5, 54, 56
6, 255078, Note_off_c, 5, 54, 0
6, 255120, Note_on_c, 5, 51, 57
6, 255198, Note_off_c, 5, 51, 0
6, 255240, Note_on_c, 5, 47, 57
6, 255318, Note_off_c, 5, 47, 0
6, 255360, Note_on_c, 5, 42, 58
6, 255438, Note_off_c, 5, 42, 0
6, 255480, Note_on_c, 5, 64, 58
6, 255558, Note_off_c, 5, 64, 0
6, 255600, Note_on_c, 5, 61, 59
6, 255678, Note_off_c, 5, 61, 0
6, 255720, Note_on_c, 5, 58, 59
6, 255798, Note_off_c, 5, 58, 0
6, 255840, Note_on_c, 5, 54, 60
6, 255918, Note_off_c, 5, 54, 0
6, 255960, Note_on_c, 5, 42, 60
6, 256038, Note_off_c, 5, 42, 0
6, 256080, Note_on_c, 5, 47, 61
6, 256158, Note_off_c, 5, 47, 0
6, 256200, Note_on_c, 5, 59, 61
6, 256278, Note_off_c, 5, 59, 0
6, 256320, Note_on_c, 5, 47, 62
6, 256398, Note_off_c, 5, 47, 0
6, 256440, Note_on_c, 5, 59, 62
6, 256518, Note_off_c, 5, 59, 0
6, 256560, Note_on_c, 5, 52, 63
6, 256638, Note_off_c, 5, 52, 0
6, 256680, Note_on_c, 5, 64, 63
6, 256758, Note_off_c, 5, 64, 0
6, 256800, Note_on_c, 5, 52, 63
6, 256878, Note_off_c, 5, 52, 0
6, 256920, Note_on_c, 5, 64, 64
6, 256998, Note_off_c, 5, 64, 0
6, 257040, Note_on_c, 5, 49, 64
6, 257118, Note_off_c, 5, 49, 0
6, 257160, Note_on_c, 5, 61, 65
6, 257238, Note_off_c, 5, 61, 0
6, 257280, Note_on_c, 5, 49, 65
6, 257358, Note_off_c, 5, 49, 0
6, 257400, Note_on_c, 5, 61, 64
6, 257478, Note_off_c, 5, 61, 0
6, 257520, Note_on_c, 5, 54, 63
6, 257598, Note_off_c, 5, 54, 0
6, 257640, Note_on_c, 5, 66, 62
6, 257718, Note_off_c, 5, 66, 0
6, 257760, Note_on_c, 5, 42, 61
6, 257838, Note_off_c, 5, 42, 0
6, 257880, Note_on_c, 5, 54, 59
6, 257958, Note_off_c, 5, 54, 0
6, 258000, Note_on_c, 5, 42, 58
6, 258078, Note_off_c, 5, 42, 0
6, 258120, Note_on_c, 5, 54, 57
6, 258198, Note_off_c, 5, 54, 0
6, 258240, Note_on_c, 5, 47, 56
6, 258318, Note_off_c, 5, 47, 0
6, 258360, Note_on_c, 5, 59, 54
6, 258438, Note_off_c, 5, 59, 0
6, 258480, Note_on_c, 5, 54, 55
6, 258558, Note_off_c, 5, 54, 0
6, 258600, Note_on_c, 5, 51, 56
6, 258678, Note_off_c, 5, 51, 0
6, 258720, Note_on_c, 5, 47, 56
6, 258798, Note_off_c, 5, 47, 0
6, 258840, Note_on_c, 5, 42, 57
6, 258918, Note_off_c, 5, 42, 0
6, 258960, Note_on_c, 5, 39, 58
6, 259038, Note_off_c, 5, 39, 0
6, 259080, Note_on_c, 5, 35, 59
6, 259158, Note_off_c, 5, 35, 0
6, 259200, Note_on_c, 5, 42, 59
6, 259200, Note_on_c, 5, 30, 59
6, 259278, Note_off_c, 5, 30, 0
6, 259278, Note_off_c, 5, 42, 0
6, 259320, Note_on_c, 5, 64, 60
6, 259398, Note_off_c, 5, 64, 0
6, 259440, Note_on_c, 5, 61, 61
6, 259518, Note_off_c, 5, 61, 0
6, 259560, Note_on_c, 5, 58, 62
6, 259638, Note_off_c, 5, 58, 0
6, 259680, Note_on_c, 5, 54, 62
6, 259758, Note_off_c, 5, 54, 0
6, 259800, Note_on_c, 5, 42, 63
6, 259878, Note_off_c, 5, 42, 0
6, 259920, Note_on_c, 5, 47, 64
6, 259998, Note_off_c, 5, 47, 0
6, 260040, Note_on_c, 5, 59, 65
6, 260118, Note_off_c, 5, 59, 0
6, 260160, Note_on_c, 5, 47, 66
6, 260238, Note_off_c, 5, 47, 0
6, 260280, Note_on_c, 5, 59, 66
6, 260358, Note_off_c, 5, 59, 0
6, 260400, Note_on_c, 5, 52, 67
6, 260478, Note_off_c, 5, 52, 0
6, 260520, Note_on_c, 5, 64, 68
6, 260598, Note_off_c, 5, 64, 0
6, 260640, Note_on_c, 5, 52, 69
6, 260718, Note_off_c, 5, 52, 0
6, 260760, Note_on_c, 5, 64, 69
6, 260838, Note_off_c, 5, 64, 0
6, 260880, Note_on_c, 5, 49, 70
6, 260958, Note_off_c, 5, 49, 0
6, 261000, Note_on_c, 5, 61, 71
6, 261078, Note_off_c, 5, 61, 0
6, 261120, Note_on_c, 5, 54, 73
6, 261198, Note_off_c, 5, 54, 0
6, 261240, Note_on_c, 5, 66, 72
6, 261318, Note_off_c, 5, 66, 0
6, 261360, Note_on_c, 5, 42, 70
6, 261438, Note_off_c, 5, 42, 0
6, 261480, Note_on_c, 5, 54, 68
6, 261558, Note_off_c, 5, 54, 0
6, 261600, Note_on_c, 5, 47, 66
6, 261678, Note_off_c, 5, 47, 0
6, 261720, Note_on_c, 5, 59, 64
6, 261798, Note_off_c, 5, 59, 0
6, 262080, Control_c, 5, 64, 0
6, 262080, Note_on_c, 5, 59, 60
6, 262120, Control_c, 5, 64, 127
6, 262160, Note_off_c, 5, 59, 0
6, 262320, Control_c, 5, 64, 0
6, 262360, Control_c, 5, 64, 127
6, 262560, Control_c, 5, 64, 0
6, 262560, Note_on_c, 5, 59, 62
6, 262600, Control_c, 5, 64, 127
6, 262640, Note_off_c, 5, 59, 0
6, 262800, Control_c, 5, 64, 0
6, 262800, Note_on_c, 5, 63, 63
6, 262840, Control_c, 5, 64, 127
6, 262880, Note_off_c, 5, 63, 0
6, 263040, Control_c, 5, 64, 0
6, 263040, Note_on_c, 5, 58, 64
6, 263080, Control_c, 5, 64, 127
6, 263120, Note_off_c, 5, 58, 0
6, 263280, Control_c, 5, 64, 0
6, 263320, Control_c, 5, 64, 127
6, 263520, Control_c, 5, 64, 0
6, 263520, Note_on_c, 5, 54, 66
6, 263560, Control_c, 5, 64, 127
6, 263600, Note_off_c, 5, 54, 0
6, 263760, Control_c, 5, 64, 0
6, 263760, Note_on_c, 5, 54, 67
6, 263800, Control_c, 5, 64, 127
6, 263840, Note_off_c, 5, 54, 0
6, 264000, Control_c, 5, 64, 0
6, 264000, Note_on_c, 5, 56, 68
6, 264040, Control_c, 5, 64, 127
6, 264080, Note_off_c, 5, 56, 0
6, 264240, Control_c, 5, 64, 0
6, 264280, Control_c, 5, 64, 127
6, 264480, Control_c, 5, 64, 0
6, 264480, Note_on_c, 5, 56, 70
6, 264520, Control_c, 5, 64, 127
6, 264560, Note_off_c, 5, 56, 0
6, 264720, Control_c, 5, 64, 0
6, 264720, Note_on_c, 5, 52, 71
6, 264760, Control_c, 5, 64, 127
6, 264800, Note_off_c, 5, 52, 0
6, 264960, Control_c, 5, 64, 0
6, 264960, Note_on_c, 5, 54, 71
6, 265000, Control_c, 5, 64, 127
6, 265040, Note_off_c, 5, 54, 0
6, 265200, Control_c, 5, 64, 0
6, 265240, Control_c, 5, 64, 127
6, 265440, Control_c, 5, 64, 0
6, 265440, Note_on_c, 5, 54, 67
6, 265480, Control_c, 5, 64, 127
6, 265520, Note_off_c, 5, 54, 0
6, 265680, Control_c, 5, 64, 0
6, 265680, Note_on_c, 5, 54, 64
6, 265720, Control_c, 5, 64, 127
6, 265760, Note_off_c, 5, 54, 0
6, 265920, Control_c, 5, 64, 0
6, 265920, Note_on_c, 5, 59, 60
6, 265960, Control_c, 5, 64, 127
6, 266000, Note_off_c, 5, 59, 0
6, 266160, Control_c, 5, 64, 0
6, 266200, Control_c, 5, 64, 127
6, 266400, Control_c, 5, 64, 0
6, 266400, Note_on_c, 5, 59, 63
6, 266440, Control_c, 5, 64, 127
6, 266480, Note_off_c, 5, 59, 0
6, 266640, Control_c, 5, 64, 0
6, 266640, Note_on_c, 5, 63, 64
6, 266680, Control_c, 5, 64, 127
6, 266720, Note_off_c, 5, 63, 0
6, 266880, Control_c, 5, 64, 0
6, 266880, Note_on_c, 5, 58, 66
6, 266920, Control_c, 5, 64, 127
6, 266960, Note_off_c, 5, 58, 0
6, 267120, Control_c, 5, 64, 0
6, 267160, Control_c, 5, 64, 127
6, 267360, Control_c, 5, 64, 0
6, 267360, Note_on_c, 5, 54, 68
6, 267400, Control_c, 5, 64, 127
6, 267440, Note_off_c, 5, 54, 0
6, 267600, Control_c, 5, 64, 0
6, 267600, Note_on_c, 5, 54, 70
6, 267640, Control_c, 5, 64, 127
6, 267680, Note_off_c, 5, 54, 0
6, 267840, Control_c, 5, 64, 0
6, 267840, Note_on_c, 5, 56, 71
6, 267880, Control_c, 5, 64, 127
6, 267920, Note_off_c, 5, 56, 0
6, 268080, Control_c, 5, 64, 0
6, 268120, Control_c, 5, 64, 127
6, 268320, Control_c, 5, 64, 0
6, 268320, Note_on_c, 5, 56, 74
6, 268360, Control_c, 5, 64, 127
6, 268400, Note_off_c, 5, 56, 0
6, 268560, Control_c, 5, 64, 0
6, 268560, Note_on_c, 5, 52, 76
6, 268600, Control_c, 5, 64, 127
6, 268640, Note_off_c, 5, 52, 0
6, 268800, Control_c, 5, 64, 0
6, 268800, Note_on_c, 5, 54, 77
6, 268840, Control_c, 5, 64, 127
6, 268880, Note_off_c, 5, 54, 0
6, 269040, Control_c, 5, 64, 0
6, 269080, Control_c, 5, 64, 127
6, 269280, Control_c, 5, 64, 0
6, 269280, Note_on_c, 5, 54, 67
6, 269320, Control_c, 5, 64, 127
6, 269360, Note_off_c, 5, 54, 0
6, 269520, Control_c, 5, 64, 0
6, 269520, Note_on_c, 5, 51, 63
6, 269560, Control_c, 5, 64, 127
6, 269600, Note_off_c, 5, 51, 0
6, 269760, Control_c, 5, 64, 0
6, 269760, Note_on_c, 5, 47, 42
6, 270000, Note_off_c, 5, 47, 0
6, 270000, Note_on_c, 5, 47, 42
6, 270240, Note_off_c, 5, 47, 0
6, 270240, Note_on_c, 5, 47, 43
6, 270480, Note_off_c, 5, 47, 0
6, 270480, Note_on_c, 5, 47, 44
6, 270720, Note_off_c, 5, 47, 0
6, 270720, Note_on_c, 5, 46, 44
6, 270960, Note_off_c, 5, 46, 0
6, 270960, Note_on_c, 5, 46, 45
6, 271200, Note_off_c, 5, 46, 0
6, 271200, Note_on_c, 5, 46, 46
6, 271440, Note_off_c, 5, 46, 0
6, 271440, Note_on_c, 5, 47, 46
6, 271680, Note_off_c, 5, 47, 0
6, 271680, Note_on_c, 5, 47, 47
6, 271920, Note_off_c, 5, 47, 0
6, 271920, Note_on_c, 5, 47, 47
6, 272160, Note_off_c, 5, 47, 0
6, 272160, Note_on_c, 5, 52, 48
6, 272400, Note_off_c, 5, 52, 0
6, 272400, Note_on_c, 5, 52, 49
6, 272640, Note_off_c, 5, 52, 0
6, 272640, Note_on_c, 5, 49, 49
6, 272880, Note_off_c, 5, 49, 0
6, 272880, Note_on_c, 5, 49, 47
6, 273120, Note_off_c, 5, 49, 0
6, 273120, Note_on_c, 5, 54, 45
6, 273600, Note_off_c, 5, 54, 0
6, 273600, Note_on_c, 5, 47, 40
6, 273840, Note_off_c, 5, 47, 0
6, 273840, Note_on_c, 5, 47, 40
6, 274080, Note_off_c, 5, 47, 0
6, 274080, Note_on_c, 5, 47, 42
6, 274320, Note_off_c, 5, 47, 0
6, 274320, Note_on_c, 5, 47, 43
6, 274560, Note_off_c, 5, 47, 0
6, 274560, Note_on_c, 5, 46, 44
6, 274800, Note_off_c, 5, 46, 0
6, 274800, Note_on_c, 5, 46, 45
6, 275040, Note_off_c, 5, 46, 0
6, 275040, Note_on_c, 5, 46, 46
6, 275280, Note_off_c, 5, 46, 0
6, 275280, Note_on_c, 5, 47, 48
6, 275520, Note_off_c, 5, 47, 0
6, 275520, Note_on_c, 5, 47, 49
6, 275760, Note_off_c, 5, 47, 0
6, 275760, Note_on_c, 5, 47, 50
6, 276000, Note_off_c, 5, 47, 0
6, 276000, Note_on_c, 5, 52, 51
6, 276240, Note_off_c, 5, 52, 0
6, 276240, Note_on_c, 5, 52, 52
6, 276480, Note_off_c, 5, 52, 0
6, 276480, Note_on_c, 5, 49, 53
6, 276720, Note_off_c, 5, 49, 0
6, 276720, Note_on_c, 5, 54, 50
6, 276960, Note_off_c, 5, 54, 0
6, 276960, Note_on_c, 5, 47, 47
6, 277200, Note_off_c, 5, 47, 0
6, 277200, Note_on_c, 5, 47, 44
6, 277440, Note_off_c, 5, 47, 0
6, 277440, Note_on_c, 5, 35, 42
6, 277596, Note_off_c, 5, 35, 0
6, 277680, Note_on_c, 5, 35, 42
6, 277836, Note_off_c, 5, 35, 0
6, 277920, Note_on_c, 5, 35, 43
6, 278076, Note_off_c, 5, 35, 0
6, 278160, Note_on_c, 5, 34, 54
6, 278280, Note_off_c, 5, 34, 0
6, 278280, Note_on_c, 5, 35, 50
6, 278400, Note_off_c, 5, 35, 0
6, 278400, Note_on_c, 5, 37, 47
6, 278556, Note_off_c, 5, 37, 0
6, 278640, Note_on_c, 5, 37, 46
6, 278796, Note_off_c, 5, 37, 0
6, 278880, Note_on_c, 5, 37, 47
6, 279036, Note_off_c, 5, 37, 0
6, 279120, Note_on_c, 5, 39, 57
6, 279276, Note_off_c, 5, 39, 0
6, 279360, Note_on_c, 5, 39, 48
6, 279516, Note_off_c, 5, 39, 0
6, 279600, Note_on_c, 5, 35, 49
6, 279756, Note_off_c, 5, 35, 0
6, 279840, Note_on_c, 5, 35, 50
6, 279996, Note_off_c, 5, 35, 0
6, 280080, Note_on_c, 5, 40, 51
6, 280236, Note_off_c, 5, 40, 0
6, 280320, Note_on_c, 5, 40, 53
6, 280476, Note_off_c, 5, 40, 0
6, 280560, Note_on_c, 5, 37, 51
6, 280716, Note_off_c, 5, 37, 0
6, 280800, Note_on_c, 5, 37, 49
6, 280852, Note_off_c, 5, 37, 0
6, 280880, Note_on_c, 5, 42, 48
6, 280932, Note_off_c, 5, 42, 0
6, 280960, Note_on_c, 5, 40, 47
6, 281012, Note_off_c, 5, 40, 0
6, 281040, Note_on_c, 5, 39, 46
6, 281092, Note_off_c, 5, 39, 0
6, 281120, Note_on_c, 5, 40, 45
6, 281172, Note_off_c, 5, 40, 0
6, 281200, Note_on_c, 5, 37, 44
6, 281252, Note_off_c, 5, 37, 0
6, 281280, Note_on_c, 5, 35, 44
6, 281436, Note_off_c, 5, 35, 0
6, 281520, Note_on_c, 5, 35, 45
6, 281676, Note_off_c, 5, 35, 0
6, 281760, Note_on_c, 5, 35, 47
6, 281916, Note_off_c, 5, 35, 0
6, 282000, Note_on_c, 5, 34, 59
6, 282120, Note_off_c, 5, 34, 0
6, 282120, Note_on_c, 5, 35, 55
6, 282240, Note_off_c, 5, 35, 0
6, 282240, Note_on_c, 5, 37, 51
6, 282396, Note_off_c, 5, 37, 0
6, 282480, Note_on_c, 5, 37, 52
6, 282636, Note_off_c, 5, 37, 0
6, 282720, Note_on_c, 5, 37, 54
6, 282876, Note_off_c, 5, 37, 0
6, 282960, Note_on_c, 5, 39, 66
6, 283116, Note_off_c, 5, 39, 0
6, 283200, Note_on_c, 5, 39, 58
6, 283356, Note_off_c, 5, 39, 0
6, 283440, Note_on_c, 5, 35, 60
6, 283596, Note_off_c, 5, 35, 0
6, 283680, Note_on_c, 5, 35, 61
6, 283836, Note_off_c, 5, 35, 0
6, 283920, Note_on_c, 5, 40, 63
6, 284076, Note_off_c, 5, 40, 0
6, 284160, Note_on_c, 5, 40, 63
6, 284316, Note_off_c, 5, 40, 0
6, 284400, Note_on_c, 5, 37, 60
6, 284556, Note_off_c, 5, 37, 0
6, 284640, Note_on_c, 5, 35, 57
6, 285120, Note_off_c, 5, 35, 0
6, 285120, Note_on_c, 5, 47, 52
6, 285276, Note_off_c, 5, 47, 0
6, 285360, Note_on_c, 5, 59, 62
6, 285840, Note_on_c, 5, 58, 57
6, 285847, Note_off_c, 5, 59, 0
6, 285900, Note_off_c, 5, 58, 0
6, 285900, Note_on_c, 5, 56, 56
6, 285960, Note_off_c, 5, 56, 0
6, 285960, Note_on_c, 5, 54, 55
6, 286020, Note_off_c, 5, 54, 0
6, 286020, Note_on_c, 5, 52, 55
6, 286080, Note_off_c, 5, 52, 0
6, 286080, Note_on_c, 5, 51, 54
6, 286236, Note_off_c, 5, 51, 0
6, 286320, Note_on_c, 5, 54, 64
6, 286800, Note_on_c, 5, 52, 58
6, 286807, Note_off_c, 5, 54, 0
6, 286860, Note_off_c, 5, 52, 0
6, 286860, Note_on_c, 5, 51, 58
6, 286920, Note_off_c, 5, 51, 0
6, 286920, Note_on_c, 5, 49, 57
6, 286980, Note_off_c, 5, 49, 0
6, 286980, Note_on_c, 5, 47, 57
6, 287040, Note_off_c, 5, 47, 0
6, 287040, Note_on_c, 5, 46, 56
6, 287196, Note_off_c, 5, 46, 0
6, 287280, Note_on_c, 5, 61, 67
6, 287880, Note_on_c, 5, 59, 60
6, 287887, Note_off_c, 5, 61, 0
6, 287920, Note_off_c, 5, 59, 0
6, 287920, Note_on_c, 5, 58, 60
6, 287960, Note_off_c, 5, 58, 0
6, 287960, Note_on_c, 5, 56, 59
6, 288000, Note_off_c, 5, 56, 0
6, 288000, Note_on_c, 5, 54, 59
6, 288156, Note_off_c, 5, 54, 0
6, 288240, Note_on_c, 5, 54, 69
6, 288840, Note_on_c, 5, 52, 62
6, 288847, Note_off_c, 5, 54, 0
6, 288880, Note_off_c, 5, 52, 0
6, 288880, Note_on_c, 5, 51, 62
6, 288920, Note_off_c, 5, 51, 0
6, 288920, Note_on_c, 5, 49, 61
6, 288960, Note_off_c, 5, 49, 0
6, 288960, Note_on_c, 5, 47, 61
6, 289116, Note_off_c, 5, 47, 0
6, 289200, Note_on_c, 5, 59, 71
6, 289800, Note_off_c, 5, 59, 0
6, 289800, Note_on_c, 5, 58, 63
6, 289840, Note_off_c, 5, 58, 0
6, 289840, Note_on_c, 5, 56, 62
6, 289880, Note_off_c, 5, 56, 0
6, 289880, Note_on_c, 5, 54, 62
6, 289920, Note_off_c, 5, 54, 0
6, 289920, Note_on_c, 5, 52, 61
6, 290076, Note_off_c, 5, 52, 0
6, 290160, Note_on_c, 5, 40, 73
6, 290640, Note_on_c, 5, 42, 66
6, 290655, Note_off_c, 5, 40, 0
6, 290700, Note_off_c, 5, 42, 0
6, 290700, Note_on_c, 5, 44, 65
6, 290760, Note_off_c, 5, 44, 0
6, 290760, Note_on_c, 5, 46, 64
6, 290820, Note_off_c, 5, 46, 0
6, 290820, Note_on_c, 5, 47, 64
6, 290880, Note_off_c, 5, 47, 0
6, 290880, Note_on_c, 5, 49, 63
6, 291036, Note_off_c, 5, 49, 0
6, 291120, Note_on_c, 5, 61, 74
6, 291720, Note_on_c, 5, 59, 63
6, 291727, Note_off_c, 5, 61, 0
6, 291760, Note_off_c, 5, 59, 0
6, 291760, Note_on_c, 5, 58, 63
6, 291800, Note_off_c, 5, 58, 0
6, 291800, Note_on_c, 5, 56, 62
6, 291840, Note_off_c, 5, 56, 0
6, 291840, Note_on_c, 5, 54, 61
6, 291996, Note_off_c, 5, 54, 0
6, 292080, Note_on_c, 5, 42, 69
6, 292560, Note_off_c, 5, 42, 0
6, 292560, Note_on_c, 5, 44, 60
6, 292620, Note_off_c, 5, 44, 0
6, 292620, Note_on_c, 5, 46, 59
6, 292680, Note_off_c, 5, 46, 0
6, 292680, Note_on_c, 5, 47, 58
6, 292740, Note_off_c, 5, 47, 0
6, 292740, Note_on_c, 5, 49, 57
6, 292800, Note_off_c, 5, 49, 0
6, 292800, Note_on_c, 5, 51, 56
6, 292956, Note_off_c, 5, 51, 0
6, 293040, Note_on_c, 5, 71, 66
6, 293505, Note_off_c, 5, 71, 0
6, 293520, Note_on_c, 5, 71, 61
6, 293520, Note_on_c, 5, 70, 61
6, 293580, Note_off_c, 5, 70, 0
6, 293580, Note_on_c, 5, 68, 60
6, 293640, Note_off_c, 5, 68, 0
6, 293640, Note_on_c, 5, 66, 60
6, 293676, Note_off_c, 5, 71, 0
6, 293700, Note_off_c, 5, 66, 0
6, 293700, Note_on_c, 5, 64, 59
6, 293760, Note_off_c, 5, 64, 0
6, 293760, Note_on_c, 5, 63, 58
6, 293916, Note_off_c, 5, 63, 0
6, 294000, Note_on_c, 5, 54, 69
6, 294480, Note_off_c, 5, 54, 0
6, 294480, Note_on_c, 5, 52, 63
6, 294540, Note_off_c, 5, 52, 0
6, 294540, Note_on_c, 5, 51, 62
6, 294600, Note_off_c, 5, 51, 0
6, 294600, Note_on_c, 5, 49, 61
6, 294660, Note_off_c, 5, 49, 0
6, 294660, Note_on_c, 5, 47, 60
6, 294720, Note_off_c, 5, 47, 0
6, 294720, Note_on_c, 5, 46, 59
6, 294876, Note_off_c, 5, 46, 0
6, 294960, Note_on_c, 5, 73, 62
6, 295560, Note_off_c, 5, 73, 0
6, 295560, Note_on_c, 5, 71, 64
6, 295600, Note_off_c, 5, 71, 0
6, 295600, Note_on_c, 5, 70, 64
6, 295640, Note_off_c, 5, 70, 0
6, 295640, Note_on_c, 5, 68, 64
6, 295680, Note_off_c, 5, 68, 0
6, 295680, Note_on_c, 5, 66, 64
6, 295836, Note_off_c, 5, 66, 0
6, 295920, Note_on_c, 5, 54, 75
6, 296520, Note_off_c, 5, 54, 0
6, 296520, Note_on_c, 5, 52, 66
6, 296560, Note_off_c, 5, 52, 0
6, 296560, Note_on_c, 5, 51, 66
6, 296600, Note_off_c, 5, 51, 0
6, 296600, Note_on_c, 5, 49, 65
6, 296640, Note_off_c, 5, 49, 0
6, 296640, Note_on_c, 5, 47, 64
6, 296796, Note_off_c, 5, 47, 0
6, 296880, Note_on_c, 5, 71, 78
6, 297480, Note_on_c, 5, 70, 72
6, 297487, Note_off_c, 5, 71, 0
6, 297520, Note_off_c, 5, 70, 0
6, 297520, Note_on_c, 5, 68, 71
6, 297560, Note_off_c, 5, 68, 0
6, 297560, Note_on_c, 5, 66, 71
6, 297600, Note_off_c, 5, 66, 0
6, 297600, Note_on_c, 5, 64, 70
6, 297756, Note_off_c, 5, 64, 0
6, 297840, Note_on_c, 5, 40, 81
6, 298320, Note_on_c, 5, 42, 74
6, 298327, Note_off_c, 5, 40, 0
6, 298380, Note_off_c, 5, 42, 0
6, 298380, Note_on_c, 5, 44, 74
6, 298440, Note_off_c, 5, 44, 0
6, 298440, Note_on_c, 5, 46, 73
6, 298500, Note_off_c, 5, 46, 0
6, 298500, Note_on_c, 5, 47, 72
6, 298560, Note_off_c, 5, 47, 0
6, 298560, Note_on_c, 5, 49, 71
6, 298716, Note_off_c, 5, 49, 0
6, 298800, Note_on_c, 5, 73, 84
6, 299400, Note_on_c, 5, 71, 77
6, 299407, Note_off_c, 5, 73, 0
6, 299440, Note_off_c, 5, 71, 0
6, 299440, Note_on_c, 5, 70, 77
6, 299480, Note_off_c, 5, 70, 0
6, 299480, Note_on_c, 5, 68, 77
6, 299520, Note_off_c, 5, 68, 0
6, 299520, Note_on_c, 5, 66, 76
6, 299676, Note_off_c, 5, 66, 0
6, 299760, Note_on_c, 5, 54, 88
6, 300000, Note_on_c, 5, 56, 83
6, 300015, Note_off_c, 5, 54, 0
6, 300120, Note_off_c, 5, 56, 0
6, 300120, Note_on_c, 5, 58, 81
6, 300240, Note_off_c, 5, 58, 0
6, 300240, Note_on_c, 5, 59, 80
6, 300300, Note_off_c, 5, 59, 0
6, 300300, Note_on_c, 5, 61, 79
6, 300360, Note_off_c, 5, 61, 0
6, 300360, Note_on_c, 5, 63, 78
6, 300420, Note_off_c, 5, 63, 0
6, 300420, Note_on_c, 5, 64, 77
6, 300480, Note_off_c, 5, 64, 0
6, 300480, Note_on_c, 5, 66, 77
6, 301920, Note_off_c, 5, 66, 0
6, 304800, Note_on_c, 5, 61, 83
6, 304920, Note_off_c, 5, 61, 0
6, 304920, Note_on_c, 5, 59, 83
6, 305040, Note_off_c, 5, 59, 0
6, 305040, Note_on_c, 5, 58, 82
6, 305160, Note_off_c, 5, 58, 0
6, 305160, Note_on_c, 5, 56, 81
6, 305280, Note_off_c, 5, 56, 0
6, 305280, Note_on_c, 5, 54, 81
6, 305400, Note_off_c, 5, 54, 0
6, 305400, Note_on_c, 5, 52, 80
6, 305520, Note_off_c, 5, 52, 0
6, 305520, Note_on_c, 5, 51, 79
6, 305640, Note_off_c, 5, 51, 0
6, 305640, Note_on_c, 5, 49, 78
6, 305760, Note_off_c, 5, 49, 0
6, 305760, Note_on_c, 5, 47, 78
6, 305880, Note_off_c, 5, 47, 0
6, 305880, Note_on_c, 5, 46, 77
6, 306000, Note_off_c, 5, 46, 0
6, 306000, Note_on_c, 5, 44, 76
6, 306120, Note_off_c, 5, 44, 0
6, 306120, Note_on_c, 5, 42, 76
6, 306480, Note_off_c, 5, 42, 0
6, 310080, Note_on_c, 5, 62, 79
6, 310200, Note_off_c, 5, 62, 0
6, 310200, Note_on_c, 5, 61, 79
6, 310320, Note_off_c, 5, 61, 0
6, 310320, Note_on_c, 5, 59, 78
6, 310440, Note_off_c, 5, 59, 0
6, 310440, Note_on_c, 5, 57, 77
6, 310560, Note_off_c, 5, 57, 0
6, 310560, Note_on_c, 5, 55, 76
6, 310680, Note_off_c, 5, 55, 0
6, 310680, Note_on_c, 5, 54, 76
6, 310800, Note_off_c, 5, 54, 0
6, 310800, Note_on_c, 5, 52, 75
6, 310920, Note_off_c, 5, 52, 0
6, 310920, Note_on_c, 5, 50, 74
6, 311040, Note_off_c, 5, 50, 0
6, 311040, Note_on_c, 5, 49, 74
6, 311160, Note_off_c, 5, 49, 0
6, 311160, Note_on_c, 5, 47, 73
6, 311520, Note_off_c, 5, 47, 0
6, 323520, Note_on_c, 5, 60, 40
6, 324000, Note_off_c, 5, 60, 0
6, 324000, Note_on_c, 5, 60, 41
6, 324480, Note_off_c, 5, 60, 0
6, 324480, Note_on_c, 5, 60, 42
6, 324960, Note_off_c, 5, 60, 0
6, 324960, Note_on_c, 5, 62, 43
6, 325280, Note_on_c, 5, 60, 44
6, 325290, Note_off_c, 5, 62, 0
6, 325440, Note_off_c, 5, 60, 0
6, 325440, Note_on_c, 5, 59, 44
6, 325920, Note_off_c, 5, 59, 0
6, 325920, Note_on_c, 5, 59, 45
6, 326400, Note_off_c, 5, 59, 0
6, 326400, Note_on_c, 5, 59, 47
6, 326880, Note_off_c, 5, 59, 0
6, 326880, Note_on_c, 5, 60, 48
6, 327360, Note_off_c, 5, 60, 0
6, 327360, Note_on_c, 5, 60, 49
6, 327840, Note_off_c, 5, 60, 0
6, 327840, Note_on_c, 5, 57, 50
6, 328320, Note_off_c, 5, 57, 0
6, 328320, Note_on_c, 5, 57, 51
6, 328800, Note_off_c, 5, 57, 0
6, 328800, Note_on_c, 5, 53, 52
6, 329280, Note_off_c, 5, 53, 0
6, 329280, Note_on_c, 5, 55, 53
6, 329760, Note_off_c, 5, 55, 0
6, 329760, Note_on_c, 5, 55, 51
6, 330240, Note_off_c, 5, 55, 0
6, 330240, Note_on_c, 5, 55, 49
6, 330720, Note_off_c, 5, 55, 0
6, 330720, Note_on_c, 5, 53, 48
6, 331200, Note_off_c, 5, 53, 0
6, 331200, Note_on_c, 5, 53, 46
6, 331680, Note_off_c, 5, 53, 0
6, 331680, Note_on_c, 5, 53, 47
6, 332160, Note_off_c, 5, 53, 0
6, 332160, Note_on_c, 5, 53, 49
6, 332640, Note_off_c, 5, 53, 0
6, 332640, Note_on_c, 5, 53, 51
6, 333120, Note_off_c, 5, 53, 0
6, 333120, Note_on_c, 5, 53, 53
6, 333600, Note_off_c, 5, 53, 0
6, 333600, Note_on_c, 5, 49, 55
6, 334080, Note_off_c, 5, 49, 0
6, 334080, Note_on_c, 5, 54, 57
6, 334560, Note_off_c, 5, 54, 0
6, 334560, Note_on_c, 5, 54, 59
6, 335040, Note_off_c, 5, 54, 0
6, 335040, Note_on_c, 5, 47, 65
6, 335520, Note_off_c, 5, 47, 0
6, 335520, Note_on_c, 5, 52, 61
6, 336000, Note_off_c, 5, 52, 0
6, 336000, Note_on_c, 5, 54, 57
6, 336480, Note_off_c, 5, 54, 0
6, 336480, Note_on_c, 5, 54, 54
6, 336960, Note_off_c, 5, 54, 0
6, 336960, Note_on_c, 5, 47, 52
6, 336960, Note_on_c, 5, 59, 52
6, 337116, Note_off_c, 5, 59, 0
6, 337116, Note_off_c, 5, 47, 0
6, 337200, Note_on_c, 5, 66, 62
6, 337800, Note_off_c, 5, 66, 0
6, 337800, Note_on_c, 5, 64, 54
6, 337840, Note_off_c, 5, 64, 0
6, 337840, Note_on_c, 5, 63, 54
6, 337880, Note_off_c, 5, 63, 0
6, 337880, Note_on_c, 5, 61, 54
6, 337920, Note_off_c, 5, 61, 0
6, 337920, Note_on_c, 5, 59, 54
6, 338076, Note_off_c, 5, 59, 0
6, 338160, Note_on_c, 5, 47, 65
6, 338760, Note_off_c, 5, 47, 0
6, 338760, Note_on_c, 5, 45, 56
6, 338800, Note_off_c, 5, 45, 0
6, 338800, Note_on_c, 5, 44, 57
6, 338840, Note_off_c, 5, 44, 0
6, 338840, Note_on_c, 5, 42, 57
6, 338880, Note_off_c, 5, 42, 0
6, 338880, Note_on_c, 5, 40, 57
6, 339036, Note_off_c, 5, 40, 0
6, 339120, Note_on_c, 5, 59, 67
6, 339720, Note_off_c, 5, 59, 0
6, 339720, Note_on_c, 5, 57, 59
6, 339760, Note_off_c, 5, 57, 0
6, 339760, Note_on_c, 5, 56, 59
6, 339800, Note_off_c, 5, 56, 0
6, 339800, Note_on_c, 5, 54, 59
6, 339840, Note_off_c, 5, 54, 0
6, 339840, Note_on_c, 5, 52, 59
6, 339996, Note_off_c, 5, 52, 0
6, 340080, Note_on_c, 5, 52, 70
6, 340680, Note_on_c, 5, 51, 62
6, 340687, Note_off_c, 5, 52, 0
6, 340720, Note_off_c, 5, 51, 0
6, 340720, Note_on_c, 5, 49, 62
6, 340760, Note_off_c, 5, 49, 0
6, 340760, Note_on_c, 5, 47, 62
6, 340800, Note_off_c, 5, 47, 0
6, 340800, Note_on_c, 5, 46, 62
6, 340956, Note_off_c, 5, 46, 0
6, 341040, Note_on_c, 5, 61, 73
6, 341632, Note_off_c, 5, 61, 0
6, 341640, Note_on_c, 5, 59, 64
6, 341680, Note_off_c, 5, 59, 0
6, 341680, Note_on_c, 5, 58, 64
6, 341720, Note_off_c, 5, 58, 0
6, 341720, Note_on_c, 5, 56, 64
6, 341760, Note_off_c, 5, 56, 0
6, 341760, Note_on_c, 5, 54, 65
6, 341916, Note_off_c, 5, 54, 0
6, 342000, Note_on_c, 5, 42, 75
6, 342480, Note_off_c, 5, 42, 0
6, 342480, Note_on_c, 5, 44, 67
6, 342540, Note_off_c, 5, 44, 0
6, 342540, Note_on_c, 5, 46, 67
6, 342600, Note_off_c, 5, 46, 0
6, 342600, Note_on_c, 5, 47, 67
6, 342660, Note_off_c, 5, 47, 0
6, 342660, Note_on_c, 5, 49, 67
6, 342720, Note_off_c, 5, 49, 0
6, 342720, Note_on_c, 5, 51, 67
6, 342876, Note_off_c, 5, 51, 0
6, 342960, Note_on_c, 5, 66, 77
6, 343560, Note_on_c, 5, 64, 64
6, 343567, Note_off_c, 5, 66, 0
6, 343600, Note_off_c, 5, 64, 0
6, 343600, Note_on_c, 5, 63, 64
6, 343640, Note_off_c, 5, 63, 0
6, 343640, Note_on_c, 5, 61, 64
6, 343680, Note_off_c, 5, 61, 0
6, 343680, Note_on_c, 5, 59, 64
6, 343836, Note_off_c, 5, 59, 0
6, 343920, Note_on_c, 5, 54, 73
6, 344520, Note_on_c, 5, 52, 61
6, 344527, Note_off_c, 5, 54, 0
6, 344560, Note_off_c, 5, 52, 0
6, 344560, Note_on_c, 5, 51, 60
6, 344600, Note_off_c, 5, 51, 0
6, 344600, Note_on_c, 5, 49, 60
6, 344640, Note_off_c, 5, 49, 0
6, 344640, Note_on_c, 5, 47, 64
6, 344796, Note_off_c, 5, 47, 0
6, 344880, Note_on_c, 5, 69, 74
6, 345480, Note_on_c, 5, 68, 65
6, 345487, Note_off_c, 5, 69, 0
6, 345520, Note_off_c, 5, 68, 0
6, 345520, Note_on_c, 5, 66, 66
6, 345560, Note_off_c, 5, 66, 0
6, 345560, Note_on_c, 5, 64, 66
6, 345600, Note_off_c, 5, 64, 0
6, 345600, Note_on_c, 5, 63, 66
6, 345756, Note_off_c, 5, 63, 0
6, 345840, Note_on_c, 5, 47, 76
6, 346440, Note_off_c, 5, 47, 0
6, 346440, Note_on_c, 5, 45, 68
6, 346480, Note_off_c, 5, 45, 0
6, 346480, Note_on_c, 5, 44, 68
6, 346520, Note_off_c, 5, 44, 0
6, 346520, Note_on_c, 5, 42, 68
6, 346560, Note_off_c, 5, 42, 0
6, 346560, Note_on_c, 5, 40, 68
6, 346716, Note_off_c, 5, 40, 0
6, 346800, Note_on_c, 5, 71, 78
6, 347400, Note_off_c, 5, 71, 0
6, 347400, Note_on_c, 5, 69, 70
6, 347440, Note_off_c, 5, 69, 0
6, 347440, Note_on_c, 5, 68, 70
6, 347480, Note_off_c, 5, 68, 0
6, 347480, Note_on_c, 5, 66, 70
6, 347520, Note_off_c, 5, 66, 0
6, 347520, Note_on_c, 5, 64, 70
6, 347676, Note_off_c, 5, 64, 0
6, 347760, Note_on_c, 5, 52, 80
6, 348360, Note_on_c, 5, 51, 72
6, 348367, Note_off_c, 5, 52, 0
6, 348400, Note_off_c, 5, 51, 0
6, 348400, Note_on_c, 5, 49, 72
6, 348440, Note_off_c, 5, 49, 0
6, 348440, Note_on_c, 5, 47, 72
6, 348480, Note_off_c, 5, 47, 0
6, 348480, Note_on_c, 5, 46, 72
6, 348636, Note_off_c, 5, 46, 0
6, 348720, Note_on_c, 5, 73, 83
6, 349320, Note_on_c, 5, 71, 74
6, 349327, Note_off_c, 5, 73, 0
6, 349360, Note_off_c, 5, 71, 0
6, 349360, Note_on_c, 5, 70, 74
6, 349400, Note_off_c, 5, 70, 0
6, 349400, Note_on_c, 5, 68, 74
6, 349440, Note_off_c, 5, 68, 0
6, 349440, Note_on_c, 5, 66, 74
6, 349596, Note_off_c, 5, 66, 0
6, 349680, Note_on_c, 5, 42, 85
6, 350160, Note_on_c, 5, 44, 76
6, 350167, Note_off_c, 5, 42, 0
6, 350220, Note_off_c, 5, 44, 0
6, 350220, Note_on_c, 5, 46, 76
6, 350280, Note_off_c, 5, 46, 0
6, 350280, Note_on_c, 5, 47, 76
6, 350340, Note_off_c, 5, 47, 0
6, 350340, Note_on_c, 5, 49, 76
6, 350400, Note_off_c, 5, 49, 0
6, 350400, Note_on_c, 5, 51, 76
6, 350556, Note_off_c, 5, 51, 0
6, 350640, Note_on_c, 5, 78, 87
6, 351240, Note_on_c, 5, 76, 78
6, 351247, Note_off_c, 5, 78, 0
6, 351280, Note_off_c, 5, 76, 0
6, 351280, Note_on_c, 5, 75, 78
6, 351320, Note_off_c, 5, 75, 0
6, 351320, Note_on_c, 5, 73, 78
6, 351360, Note_off_c, 5, 73, 0
6, 351360, Note_on_c, 5, 71, 78
6, 351516, Note_off_c, 5, 71, 0
6, 351600, Note_on_c, 5, 54, 89
6, 352080, Note_on_c, 5, 52, 80
6, 352087, Note_off_c, 5, 54, 0
6, 352140, Note_off_c, 5, 52, 0
6, 352140, Note_on_c, 5, 51, 80
6, 352200, Note_off_c, 5, 51, 0
6, 352200, Note_on_c, 5, 49, 80
6, 352260, Note_off_c, 5, 49, 0
6, 352260, Note_on_c, 5, 47, 80
6, 352320, Note_off_c, 5, 47, 0
6, 352320, Note_on_c, 5, 46, 81
6, 352476, Note_off_c, 5, 46, 0
6, 352560, Note_on_c, 5, 61, 91
6, 353160, Note_on_c, 5, 59, 82
6, 353167, Note_off_c, 5, 61, 0
6, 353200, Note_off_c, 5, 59, 0
6, 353200, Note_on_c, 5, 58, 83
6, 353240, Note_off_c, 5, 58, 0
6, 353240, Note_on_c, 5, 56, 83
6, 353280, Note_off_c, 5, 56, 0
6, 353280, Note_on_c, 5, 54, 83
6, 353520, Note_on_c, 5, 66, 93
6, 353527, Note_off_c, 5, 54, 0
6, 353676, Note_off_c, 5, 66, 0
6, 353760, Note_on_c, 5, 66, 84
6, 353880, Note_off_c, 5, 66, 0
6, 353880, Note_on_c, 5, 68, 84
6, 354000, Note_off_c, 5, 68, 0
6, 354000, Note_on_c, 5, 70, 84
6, 354060, Note_off_c, 5, 70, 0
6, 354060, Note_on_c, 5, 71, 84
6, 354120, Note_off_c, 5, 71, 0
6, 354120, Note_on_c, 5, 73, 85
6, 354180, Note_off_c, 5, 73, 0
6, 354180, Note_on_c, 5, 75, 85
6, 354240, Note_off_c, 5, 75, 0
6, 354240, Note_on_c, 5, 76, 85
6, 355927, Note_off_c, 5, 76, 0
6, 358560, Note_on_c, 5, 66, 98
6, 358680, Note_off_c, 5, 66, 0
6, 358680, Note_on_c, 5, 64, 97
6, 358800, Note_off_c, 5, 64, 0
6, 358800, Note_on_c, 5, 63, 96
6, 358920, Note_off_c, 5, 63, 0
6, 358920, Note_on_c, 5, 61, 95
6, 359040, Note_off_c, 5, 61, 0
6, 359040, Note_on_c, 5, 59, 94
6, 359160, Note_off_c, 5, 59, 0
6, 359160, Note_on_c, 5, 58, 93
6, 359280, Note_off_c, 5, 58, 0
6, 359280, Note_on_c, 5, 56, 92
6, 359400, Note_off_c, 5, 56, 0
6, 359400, Note_on_c, 5, 54, 91
6, 359520, Note_off_c, 5, 54, 0
6, 359520, Note_on_c, 5, 52, 90
6, 359640, Note_off_c, 5, 52, 0
6, 359640, Note_on_c, 5, 51, 89
6, 359760, Note_off_c, 5, 51, 0
6, 359760, Note_on_c, 5, 49, 88
6, 359880, Note_off_c, 5, 49, 0
6, 359880, Note_on_c, 5, 47, 87
6, 360235, Note_off_c, 5, 47, 0
6, 360480, Control_c, 5, 64, 0
6, 360480, Note_on_c, 5, 59, 44
6, 360840, Note_off_c, 5, 59, 0
6, 360960, Note_on_c, 5, 59, 45
6, 361320, Note_off_c, 5, 59, 0
6, 361440, Note_on_c, 5, 61, 45
6, 361680, Note_off_c, 5, 61, 0
6, 361680, Note_on_c, 5, 59, 46
6, 361872, Note_off_c, 5, 59, 0
6, 361920, Note_on_c, 5, 58, 46
6, 362280, Note_off_c, 5, 58, 0
6, 362400, Note_on_c, 5, 58, 47
6, 362760, Note_off_c, 5, 58, 0
6, 362880, Note_on_c, 5, 58, 48
6, 363240, Note_off_c, 5, 58, 0
6, 363360, Note_on_c, 5, 58, 49
6, 363720, Note_off_c, 5, 58, 0
6, 363840, Note_on_c, 5, 59, 50
6, 364208, Note_off_c, 5, 59, 0
6, 364320, Note_on_c, 5, 64, 51
6, 364688, Note_off_c, 5, 64, 0
6, 364800, Note_on_c, 5, 64, 52
6, 365168, Note_off_c, 5, 64, 0
6, 365280, Note_on_c, 5, 64, 52
6, 365648, Note_off_c, 5, 64, 0
6, 365760, Note_on_c, 5, 64, 55
6, 366128, Note_off_c, 5, 64, 0
6, 366240, Note_on_c, 5, 57, 53
6, 366608, Note_off_c, 5, 57, 0
6, 366720, Note_on_c, 5, 57, 51
6, 367088, Note_off_c, 5, 57, 0
6, 367200, Note_on_c, 5, 58, 49
6, 367568, Note_off_c, 5, 58, 0
6, 367680, Note_on_c, 5, 58, 46
6, 368160, Note_off_c, 5, 58, 0
6, 369120, Note_on_c, 5, 47, 40
6, 369480, Note_off_c, 5, 47, 0
6, 369600, Note_on_c, 5, 47, 35
6, 370080, Note_off_c, 5, 47, 0
6, 371040, Note_on_c, 5, 42, 31
6, 371400, Note_off_c, 5, 42, 0
6, 371520, Note_on_c, 5, 42, 29
6, 372000, Note_off_c, 5, 42, 0
6, 373980, Note_on_c, 5, 47, 108
6, 374040, Note_off_c, 5, 47, 0
6, 374040, Note_on_c, 5, 49, 109
6, 374100, Note_off_c, 5, 49, 0
6, 374100, Note_on_c, 5, 51, 110
6, 374160, Note_off_c, 5, 51, 0
6, 374160, Note_on_c, 5, 52, 111
6, 374220, Note_off_c, 5, 52, 0
6, 374220, Note_on_c, 5, 54, 112
6, 374280, Note_off_c, 5, 54, 0
6, 374280, Note_on_c, 5, 56, 113
6, 374340, Note_off_c, 5, 56, 0
6, 374340, Note_on_c, 5, 58, 115
6, 374400, Note_off_c, 5, 58, 0
6, 374400, Note_on_c, 5, 59, 116
6, 374880, Note_off_c, 5, 59, 0
6, 375360, Note_on_c, 5, 35, 127
6, 375720, Note_off_c, 5, 35, 0
6, 375720, End_track
0, 0, End_of_file