0, 0, Header, 1, 3, 384
1, 0, Start_track
1, 0, Tempo, 254203
1, 0, Time_signature, 4, 2, 24, 8
1, 1152, Time_signature, 4, 2, 24, 8
1, 600960, End_track
2, 0, Start_track
2, 0, Title_t, "Piano R"
2, 0, Program_c, 0, 0
2, 0, Control_c, 0, 7, 110
2, 96, Text_t, "Ludwig van BEETHOVEN  (1770-1827)\000\000\000\000\000\000\000\000\000"
2, 97, Text_t, "Sonate no.1 - Op.2  no.1\000\000\000\000\000\000\000\000\000"
2, 98, Text_t, "4th movement: Presto\000\000\000\000\000"
2, 99, Text_t, "Composed 1795\000\000\000\000\000\000\000\000\000"
2, 192, Text_t, "=======================================\000\000\000\000\000\000\000\000\000"
2, 288, Text_t, "Sequenced by: Nikos Markoyiannakis\000"
2, 289, Text_t, "nikos@ritz.mordor.com -- http://www.interacive.net/~nikos\000"
2, 384, Text_t, "=======================================\000\000\000\000\000\000\000\000\000\000\000"
2, 480, Text_t, "Out beyond ideas of wrongdoing and rightdoing,\000"
2, 481, Text_t, "there is a field. I'll meet you there.\000\000\000\000\000"
2, 482, Text_t, "When the soul lies down in that grass,\000\000\000\000\000"
2, 483, Text_t, "the world is too full talk about.\000\000\000\000\000"
2, 484, Text_t, "Ideas, language, even the phrase 'each other'\000\000\000\000\000"
2, 485, Text_t, "doesn't make any sense.\000\000\000\000\000"
2, 576, Text_t, "-- Sufi Poet Rumi\000\000\000\000\000"
2, 1920, Note_on_c, 0, 65, 48
2, 1920, Note_on_c, 0, 68, 48
2, 1920, Note_on_c, 0, 72, 48
2, 1920, Note_on_c, 0, 77, 48
2, 2112, Note_off_c, 0, 77, 64
2, 2112, Note_off_c, 0, 72, 64
2, 2112, Note_off_c, 0, 68, 64
2, 2112, Note_off_c, 0, 65, 64
2, 2304, Note_on_c, 0, 64, 45
2, 2304, Note_on_c, 0, 67, 45
2, 2304, Note_on_c, 0, 70, 45
2, 2304, Note_on_c, 0, 73, 45
2, 2304, Note_on_c, 0, 76, 45
2, 2496, Note_off_c, 0, 76, 64
2, 2496, Note_off_c, 0, 73, 64
2, 2496, Note_off_c, 0, 70, 64
2, 2496, Note_off_c, 0, 67, 64
2, 2496, Note_off_c, 0, 64, 64
2, 2688, Note_on_c, 0, 65, 42
2, 2688, Note_on_c, 0, 68, 42
2, 2688, Note_on_c, 0, 72, 42
2, 2688, Note_on_c, 0, 77, 42
2, 2880, Note_off_c, 0, 77, 64
2, 2880, Note_off_c, 0, 72, 64
2, 2880, Note_off_c, 0, 68, 64
2, 2880, Note_off_c, 0, 65, 64
2, 3456, Note_on_c, 0, 72, 76
2, 3456, Note_on_c, 0, 77, 76
2, 3456, Note_on_c, 0, 80, 76
2, 3456, Note_on_c, 0, 84, 76
2, 3648, Note_off_c, 0, 84, 64
2, 3648, Note_off_c, 0, 80, 64
2, 3648, Note_off_c, 0, 77, 64
2, 3648, Note_off_c, 0, 72, 64
2, 3840, Note_on_c, 0, 72, 78
2, 3840, Note_on_c, 0, 79, 78
2, 3840, Note_on_c, 0, 82, 78
2, 3840, Note_on_c, 0, 84, 78
2, 4032, Note_off_c, 0, 84, 64
2, 4032, Note_off_c, 0, 82, 64
2, 4032, Note_off_c, 0, 79, 64
2, 4032, Note_off_c, 0, 72, 64
2, 4224, Note_on_c, 0, 72, 80
2, 4224, Note_on_c, 0, 77, 80
2, 4224, Note_on_c, 0, 80, 80
2, 4224, Note_on_c, 0, 84, 80
2, 4416, Note_off_c, 0, 84, 64
2, 4416, Note_off_c, 0, 80, 64
2, 4416, Note_off_c, 0, 77, 64
2, 4416, Note_off_c, 0, 72, 64
2, 4992, Note_on_c, 0, 65, 48
2, 4992, Note_on_c, 0, 68, 48
2, 4992, Note_on_c, 0, 72, 48
2, 4992, Note_on_c, 0, 77, 48
2, 5184, Note_off_c, 0, 77, 64
2, 5184, Note_off_c, 0, 72, 64
2, 5184, Note_off_c, 0, 68, 64
2, 5184, Note_off_c, 0, 65, 64
2, 5376, Note_on_c, 0, 64, 47
2, 5376, Note_on_c, 0, 67, 47
2, 5376, Note_on_c, 0, 70, 47
2, 5376, Note_on_c, 0, 73, 47
2, 5376, Note_on_c, 0, 76, 47
2, 5568, Note_off_c, 0, 76, 64
2, 5568, Note_off_c, 0, 73, 64
2, 5568, Note_off_c, 0, 70, 64
2, 5568, Note_off_c, 0, 67, 64
2, 5568, Note_off_c, 0, 64, 64
2, 5760, Note_on_c, 0, 65, 47
2, 5760, Note_on_c, 0, 68, 47
2, 5760, Note_on_c, 0, 72, 47
2, 5760, Note_on_c, 0, 77, 47
2, 5952, Note_off_c, 0, 77, 64
2, 5952, Note_off_c, 0, 72, 64
2, 5952, Note_off_c, 0, 68, 64
2, 5952, Note_off_c, 0, 65, 64
2, 6528, Note_on_c, 0, 72, 82
2, 6528, Note_on_c, 0, 77, 82
2, 6528, Note_on_c, 0, 80, 82
2, 6528, Note_on_c, 0, 84, 82
2, 6720, Note_off_c, 0, 84, 64
2, 6720, Note_off_c, 0, 80, 64
2, 6720, Note_off_c, 0, 77, 64
2, 6720, Note_off_c, 0, 72, 64
2, 6912, Note_on_c, 0, 72, 83
2, 6912, Note_on_c, 0, 79, 83
2, 6912, Note_on_c, 0, 82, 83
2, 6912, Note_on_c, 0, 84, 83
2, 7104, Note_off_c, 0, 84, 64
2, 7104, Note_off_c, 0, 82, 64
2, 7104, Note_off_c, 0, 79, 64
2, 7104, Note_off_c, 0, 72, 64
2, 7296, Note_on_c, 0, 72, 83
2, 7296, Note_on_c, 0, 77, 83
2, 7296, Note_on_c, 0, 80, 83
2, 7296, Note_on_c, 0, 84, 83
2, 7488, Note_off_c, 0, 84, 64
2, 7488, Note_off_c, 0, 80, 64
2, 7488, Note_off_c, 0, 77, 64
2, 7488, Note_off_c, 0, 72, 64
2, 8064, Note_on_c, 0, 75, 33
2, 8256, Note_off_c, 0, 75, 64
2, 8448, Note_on_c, 0, 75, 36
2, 8640, Note_off_c, 0, 75, 64
2, 8832, Note_on_c, 0, 75, 39
2, 9216, Note_off_c, 0, 75, 64
2, 9216, Note_on_c, 0, 80, 41
2, 9600, Note_off_c, 0, 80, 64
2, 9600, Note_on_c, 0, 75, 44
2, 9792, Note_off_c, 0, 75, 64
2, 9984, Note_on_c, 0, 75, 47
2, 10176, Note_off_c, 0, 75, 64
2, 10368, Note_on_c, 0, 75, 50
2, 10752, Note_off_c, 0, 75, 64
2, 10752, Note_on_c, 0, 80, 53
2, 11136, Note_off_c, 0, 80, 64
2, 11136, Note_on_c, 0, 75, 56
2, 11520, Note_off_c, 0, 75, 64
2, 11520, Note_on_c, 0, 76, 59
2, 11904, Note_off_c, 0, 76, 64
2, 11904, Note_on_c, 0, 77, 62
2, 12288, Note_off_c, 0, 77, 64
2, 12288, Note_on_c, 0, 79, 65
2, 12672, Note_off_c, 0, 79, 64
2, 12672, Note_on_c, 0, 80, 68
2, 13056, Note_off_c, 0, 80, 64
2, 13056, Note_on_c, 0, 83, 71
2, 13440, Note_off_c, 0, 83, 64
2, 13440, Note_on_c, 0, 84, 74
2, 13824, Note_off_c, 0, 84, 64
2, 14208, Note_on_c, 0, 72, 34
2, 14400, Note_off_c, 0, 72, 64
2, 14592, Note_on_c, 0, 72, 36
2, 14784, Note_off_c, 0, 72, 64
2, 14976, Note_on_c, 0, 72, 38
2, 15052, Note_off_c, 0, 72, 64
2, 15052, Note_on_c, 0, 73, 38
2, 15130, Note_off_c, 0, 73, 64
2, 15130, Note_on_c, 0, 72, 39
2, 15206, Note_off_c, 0, 72, 64
2, 15206, Note_on_c, 0, 71, 39
2, 15284, Note_off_c, 0, 71, 64
2, 15284, Note_on_c, 0, 72, 39
2, 15360, Note_off_c, 0, 72, 64
2, 15360, Note_on_c, 0, 77, 40
2, 15744, Note_off_c, 0, 77, 64
2, 15744, Note_on_c, 0, 72, 42
2, 15936, Note_off_c, 0, 72, 64
2, 16128, Note_on_c, 0, 72, 44
2, 16320, Note_off_c, 0, 72, 64
2, 16512, Note_on_c, 0, 72, 45
2, 16588, Note_off_c, 0, 72, 64
2, 16588, Note_on_c, 0, 73, 46
2, 16666, Note_off_c, 0, 73, 64
2, 16666, Note_on_c, 0, 72, 46
2, 16742, Note_off_c, 0, 72, 64
2, 16742, Note_on_c, 0, 71, 46
2, 16820, Note_off_c, 0, 71, 64
2, 16820, Note_on_c, 0, 72, 47
2, 16896, Note_off_c, 0, 72, 64
2, 16896, Note_on_c, 0, 77, 47
2, 17280, Note_off_c, 0, 77, 64
2, 17280, Note_on_c, 0, 72, 49
2, 17472, Note_off_c, 0, 72, 64
2, 17664, Note_on_c, 0, 72, 51
2, 17856, Note_off_c, 0, 72, 64
2, 17952, Note_on_c, 0, 72, 75
2, 18048, Note_off_c, 0, 72, 64
2, 18048, Note_on_c, 0, 80, 88
2, 18624, Note_off_c, 0, 80, 64
2, 18624, Note_on_c, 0, 79, 80
2, 18816, Note_off_c, 0, 79, 64
2, 18816, Note_on_c, 0, 77, 77
2, 19008, Note_off_c, 0, 77, 64
2, 19008, Note_on_c, 0, 75, 75
2, 19200, Note_off_c, 0, 75, 64
2, 19200, Note_on_c, 0, 74, 72
2, 19392, Note_off_c, 0, 74, 64
2, 19392, Note_on_c, 0, 72, 70
2, 19584, Note_off_c, 0, 72, 64
2, 19584, Note_on_c, 0, 71, 67
2, 19776, Note_off_c, 0, 71, 64
2, 20352, Note_on_c, 0, 67, 56
2, 20352, Note_on_c, 0, 71, 56
2, 20352, Note_on_c, 0, 74, 56
2, 20352, Note_on_c, 0, 79, 56
2, 20544, Note_off_c, 0, 79, 64
2, 20544, Note_off_c, 0, 74, 64
2, 20544, Note_off_c, 0, 71, 64
2, 20544, Note_off_c, 0, 67, 64
2, 20736, Note_on_c, 0, 66, 56
2, 20736, Note_on_c, 0, 69, 56
2, 20736, Note_on_c, 0, 72, 56
2, 20736, Note_on_c, 0, 75, 56
2, 20736, Note_on_c, 0, 78, 56
2, 20928, Note_off_c, 0, 78, 64
2, 20928, Note_off_c, 0, 75, 64
2, 20928, Note_off_c, 0, 72, 64
2, 20928, Note_off_c, 0, 69, 64
2, 20928, Note_off_c, 0, 66, 64
2, 21120, Note_on_c, 0, 67, 56
2, 21120, Note_on_c, 0, 71, 56
2, 21120, Note_on_c, 0, 74, 56
2, 21120, Note_on_c, 0, 79, 56
2, 21312, Note_off_c, 0, 79, 64
2, 21312, Note_off_c, 0, 74, 64
2, 21312, Note_off_c, 0, 71, 64
2, 21312, Note_off_c, 0, 67, 64
2, 21888, Note_on_c, 0, 71, 74
2, 21888, Note_on_c, 0, 74, 74
2, 21888, Note_on_c, 0, 79, 74
2, 21888, Note_on_c, 0, 83, 74
2, 22080, Note_off_c, 0, 83, 64
2, 22080, Note_off_c, 0, 79, 64
2, 22080, Note_off_c, 0, 74, 64
2, 22080, Note_off_c, 0, 71, 64
2, 22272, Note_on_c, 0, 71, 74
2, 22272, Note_on_c, 0, 74, 74
2, 22272, Note_on_c, 0, 79, 74
2, 22272, Note_on_c, 0, 83, 74
2, 22464, Note_off_c, 0, 83, 64
2, 22464, Note_off_c, 0, 79, 64
2, 22464, Note_off_c, 0, 74, 64
2, 22464, Note_off_c, 0, 71, 64
2, 22656, Note_on_c, 0, 71, 75
2, 22656, Note_on_c, 0, 74, 75
2, 22656, Note_on_c, 0, 79, 75
2, 22656, Note_on_c, 0, 83, 75
2, 22848, Note_off_c, 0, 83, 64
2, 22848, Note_off_c, 0, 79, 64
2, 22848, Note_off_c, 0, 74, 64
2, 22848, Note_off_c, 0, 71, 64
2, 23424, Note_on_c, 0, 67, 56
2, 23424, Note_on_c, 0, 71, 56
2, 23424, Note_on_c, 0, 74, 56
2, 23424, Note_on_c, 0, 79, 56
2, 23616, Note_off_c, 0, 79, 64
2, 23616, Note_off_c, 0, 74, 64
2, 23616, Note_off_c, 0, 71, 64
2, 23616, Note_off_c, 0, 67, 64
2, 23808, Note_on_c, 0, 66, 56
2, 23808, Note_on_c, 0, 69, 56
2, 23808, Note_on_c, 0, 72, 56
2, 23808, Note_on_c, 0, 75, 56
2, 23808, Note_on_c, 0, 78, 56
2, 24000, Note_off_c, 0, 78, 64
2, 24000, Note_off_c, 0, 75, 64
2, 24000, Note_off_c, 0, 72, 64
2, 24000, Note_off_c, 0, 69, 64
2, 24000, Note_off_c, 0, 66, 64
2, 24192, Note_on_c, 0, 67, 56
2, 24192, Note_on_c, 0, 71, 56
2, 24192, Note_on_c, 0, 74, 56
2, 24192, Note_on_c, 0, 79, 56
2, 24384, Note_off_c, 0, 79, 64
2, 24384, Note_off_c, 0, 74, 64
2, 24384, Note_off_c, 0, 71, 64
2, 24384, Note_off_c, 0, 67, 64
2, 24960, Note_on_c, 0, 74, 76
2, 24960, Note_on_c, 0, 79, 76
2, 24960, Note_on_c, 0, 83, 76
2, 24960, Note_on_c, 0, 86, 76
2, 25152, Note_off_c, 0, 86, 64
2, 25152, Note_off_c, 0, 83, 64
2, 25152, Note_off_c, 0, 79, 64
2, 25152, Note_off_c, 0, 74, 64
2, 25344, Note_on_c, 0, 74, 77
2, 25344, Note_on_c, 0, 79, 77
2, 25344, Note_on_c, 0, 83, 77
2, 25344, Note_on_c, 0, 86, 77
2, 25536, Note_off_c, 0, 86, 64
2, 25536, Note_off_c, 0, 83, 64
2, 25536, Note_off_c, 0, 79, 64
2, 25536, Note_off_c, 0, 74, 64
2, 25728, Note_on_c, 0, 74, 79
2, 25728, Note_on_c, 0, 79, 79
2, 25728, Note_on_c, 0, 83, 79
2, 25728, Note_on_c, 0, 86, 79
2, 25920, Note_off_c, 0, 86, 64
2, 25920, Note_off_c, 0, 83, 64
2, 25920, Note_off_c, 0, 79, 64
2, 25920, Note_off_c, 0, 74, 64
2, 26496, Note_on_c, 0, 77, 82
2, 26496, Note_on_c, 0, 83, 82
2, 26496, Note_on_c, 0, 86, 82
2, 26496, Note_on_c, 0, 89, 82
2, 26688, Note_off_c, 0, 89, 64
2, 26688, Note_off_c, 0, 86, 64
2, 26688, Note_off_c, 0, 83, 64
2, 26688, Note_off_c, 0, 77, 64
2, 26880, Note_on_c, 0, 77, 83
2, 26880, Note_on_c, 0, 83, 83
2, 26880, Note_on_c, 0, 86, 83
2, 26880, Note_on_c, 0, 89, 83
2, 27072, Note_off_c, 0, 89, 64
2, 27072, Note_off_c, 0, 86, 64
2, 27072, Note_off_c, 0, 83, 64
2, 27072, Note_off_c, 0, 77, 64
2, 27264, Note_on_c, 0, 77, 85
2, 27264, Note_on_c, 0, 83, 85
2, 27264, Note_on_c, 0, 86, 85
2, 27264, Note_on_c, 0, 89, 85
2, 27456, Note_off_c, 0, 89, 64
2, 27456, Note_off_c, 0, 86, 64
2, 27456, Note_off_c, 0, 83, 64
2, 27456, Note_off_c, 0, 77, 64
2, 28032, Note_on_c, 0, 77, 88
2, 28032, Note_on_c, 0, 83, 88
2, 28032, Note_on_c, 0, 86, 88
2, 28032, Note_on_c, 0, 89, 88
2, 28224, Note_off_c, 0, 89, 64
2, 28224, Note_off_c, 0, 86, 64
2, 28224, Note_off_c, 0, 83, 64
2, 28224, Note_off_c, 0, 77, 64
2, 28416, Note_on_c, 0, 77, 89
2, 28416, Note_on_c, 0, 83, 89
2, 28416, Note_on_c, 0, 86, 89
2, 28416, Note_on_c, 0, 89, 89
2, 28608, Note_off_c, 0, 89, 64
2, 28608, Note_off_c, 0, 86, 64
2, 28608, Note_off_c, 0, 83, 64
2, 28608, Note_off_c, 0, 77, 64
2, 28800, Note_on_c, 0, 77, 91
2, 28800, Note_on_c, 0, 83, 91
2, 28800, Note_on_c, 0, 86, 91
2, 28800, Note_on_c, 0, 89, 91
2, 28992, Note_off_c, 0, 89, 64
2, 28992, Note_off_c, 0, 86, 64
2, 28992, Note_off_c, 0, 83, 64
2, 28992, Note_off_c, 0, 77, 64
2, 29568, Note_on_c, 0, 77, 94
2, 29568, Note_on_c, 0, 83, 94
2, 29568, Note_on_c, 0, 86, 94
2, 29568, Note_on_c, 0, 89, 94
2, 29760, Note_off_c, 0, 89, 64
2, 29760, Note_off_c, 0, 86, 64
2, 29760, Note_off_c, 0, 83, 64
2, 29760, Note_off_c, 0, 77, 64
2, 30336, Note_on_c, 0, 89, 97
2, 30464, Note_off_c, 0, 89, 64
2, 30464, Note_on_c, 0, 87, 96
2, 30592, Note_off_c, 0, 87, 64
2, 30592, Note_on_c, 0, 86, 95
2, 30720, Note_off_c, 0, 86, 64
2, 30720, Note_on_c, 0, 84, 95
2, 30848, Note_off_c, 0, 84, 64
2, 30848, Note_on_c, 0, 83, 94
2, 30976, Note_off_c, 0, 83, 64
2, 30976, Note_on_c, 0, 80, 93
2, 31104, Note_off_c, 0, 80, 64
2, 31104, Note_on_c, 0, 79, 93
2, 31232, Note_off_c, 0, 79, 64
2, 31232, Note_on_c, 0, 77, 92
2, 31360, Note_off_c, 0, 77, 64
2, 31360, Note_on_c, 0, 75, 91
2, 31488, Note_off_c, 0, 75, 64
2, 31488, Note_on_c, 0, 74, 91
2, 31616, Note_off_c, 0, 74, 64
2, 31616, Note_on_c, 0, 72, 90
2, 31744, Note_off_c, 0, 72, 64
2, 31744, Note_on_c, 0, 71, 89
2, 31872, Note_off_c, 0, 71, 64
2, 31872, Note_on_c, 0, 68, 89
2, 32000, Note_off_c, 0, 68, 64
2, 32000, Note_on_c, 0, 67, 88
2, 32128, Note_off_c, 0, 67, 64
2, 32128, Note_on_c, 0, 65, 87
2, 32256, Note_off_c, 0, 65, 64
2, 32256, Note_on_c, 0, 63, 87
2, 32384, Note_off_c, 0, 63, 64
2, 32384, Note_on_c, 0, 62, 86
2, 32512, Note_off_c, 0, 62, 64
2, 32512, Note_on_c, 0, 60, 85
2, 32640, Note_off_c, 0, 60, 64
2, 32640, Note_on_c, 0, 59, 85
2, 33024, Note_off_c, 0, 59, 64
2, 33536, Note_on_c, 0, 63, 85
2, 33664, Note_off_c, 0, 63, 64
2, 33664, Note_on_c, 0, 60, 85
2, 33792, Note_off_c, 0, 60, 64
2, 33792, Note_on_c, 0, 68, 85
2, 33920, Note_off_c, 0, 68, 64
2, 33920, Note_on_c, 0, 63, 85
2, 34048, Note_off_c, 0, 63, 64
2, 34048, Note_on_c, 0, 60, 85
2, 34176, Note_off_c, 0, 60, 64
2, 34176, Note_on_c, 0, 67, 85
2, 34304, Note_off_c, 0, 67, 64
2, 34304, Note_on_c, 0, 63, 85
2, 34432, Note_off_c, 0, 63, 64
2, 34432, Note_on_c, 0, 60, 85
2, 34560, Note_off_c, 0, 60, 64
2, 34560, Note_on_c, 0, 66, 85
2, 34688, Note_off_c, 0, 66, 64
2, 34688, Note_on_c, 0, 63, 85
2, 34816, Note_off_c, 0, 63, 64
2, 34816, Note_on_c, 0, 60, 85
2, 34944, Note_off_c, 0, 60, 64
2, 34944, Note_on_c, 0, 67, 85
2, 35072, Note_off_c, 0, 67, 64
2, 35072, Note_on_c, 0, 63, 85
2, 35200, Note_off_c, 0, 63, 64
2, 35200, Note_on_c, 0, 60, 85
2, 35328, Note_off_c, 0, 60, 64
2, 35328, Note_on_c, 0, 68, 85
2, 35456, Note_off_c, 0, 68, 64
2, 35456, Note_on_c, 0, 63, 85
2, 35584, Note_off_c, 0, 63, 64
2, 35584, Note_on_c, 0, 60, 85
2, 35712, Note_off_c, 0, 60, 64
2, 35712, Note_on_c, 0, 67, 85
2, 35840, Note_off_c, 0, 67, 64
2, 35840, Note_on_c, 0, 63, 85
2, 35968, Note_off_c, 0, 63, 64
2, 35968, Note_on_c, 0, 60, 85
2, 36096, Note_off_c, 0, 60, 64
2, 36096, Note_on_c, 0, 66, 85
2, 36224, Note_off_c, 0, 66, 64
2, 36224, Note_on_c, 0, 63, 85
2, 36352, Note_off_c, 0, 63, 64
2, 36352, Note_on_c, 0, 60, 85
2, 36480, Note_off_c, 0, 60, 64
2, 36480, Note_on_c, 0, 67, 85
2, 36608, Note_off_c, 0, 67, 64
2, 36864, Note_on_c, 0, 75, 85
2, 36992, Note_off_c, 0, 75, 64
2, 36992, Note_on_c, 0, 72, 85
2, 37120, Note_off_c, 0, 72, 64
2, 37120, Note_on_c, 0, 68, 85
2, 37248, Note_off_c, 0, 68, 64
2, 37248, Note_on_c, 0, 75, 85
2, 37376, Note_off_c, 0, 75, 64
2, 37376, Note_on_c, 0, 72, 85
2, 37504, Note_off_c, 0, 72, 64
2, 37504, Note_on_c, 0, 67, 85
2, 37632, Note_off_c, 0, 67, 64
2, 37632, Note_on_c, 0, 75, 85
2, 37760, Note_off_c, 0, 75, 64
2, 37760, Note_on_c, 0, 72, 85
2, 37888, Note_off_c, 0, 72, 64
2, 37888, Note_on_c, 0, 66, 85
2, 38016, Note_off_c, 0, 66, 64
2, 38016, Note_on_c, 0, 75, 85
2, 38144, Note_off_c, 0, 75, 64
2, 38144, Note_on_c, 0, 72, 85
2, 38272, Note_off_c, 0, 72, 64
2, 38272, Note_on_c, 0, 67, 85
2, 38400, Note_off_c, 0, 67, 64
2, 38400, Note_on_c, 0, 75, 85
2, 38528, Note_off_c, 0, 75, 64
2, 38528, Note_on_c, 0, 72, 85
2, 38656, Note_off_c, 0, 72, 64
2, 38656, Note_on_c, 0, 68, 85
2, 38784, Note_off_c, 0, 68, 64
2, 38784, Note_on_c, 0, 75, 85
2, 38912, Note_off_c, 0, 75, 64
2, 38912, Note_on_c, 0, 72, 85
2, 39040, Note_off_c, 0, 72, 64
2, 39040, Note_on_c, 0, 67, 85
2, 39168, Note_off_c, 0, 67, 64
2, 39168, Note_on_c, 0, 75, 85
2, 39296, Note_off_c, 0, 75, 64
2, 39296, Note_on_c, 0, 72, 85
2, 39424, Note_off_c, 0, 72, 64
2, 39424, Note_on_c, 0, 66, 85
2, 39552, Note_off_c, 0, 66, 64
2, 39552, Note_on_c, 0, 75, 85
2, 39680, Note_off_c, 0, 75, 64
2, 39936, Note_on_c, 0, 80, 85
2, 40064, Note_off_c, 0, 80, 64
2, 40064, Note_on_c, 0, 75, 85
2, 40192, Note_off_c, 0, 75, 64
2, 40192, Note_on_c, 0, 72, 85
2, 40320, Note_off_c, 0, 72, 64
2, 40320, Note_on_c, 0, 80, 85
2, 40448, Note_off_c, 0, 80, 64
2, 40448, Note_on_c, 0, 73, 86
2, 40576, Note_off_c, 0, 73, 64
2, 40576, Note_on_c, 0, 72, 86
2, 40704, Note_off_c, 0, 72, 64
2, 40704, Note_on_c, 0, 79, 86
2, 40832, Note_off_c, 0, 79, 64
2, 40832, Note_on_c, 0, 73, 86
2, 40960, Note_off_c, 0, 73, 64
2, 40960, Note_on_c, 0, 70, 86
2, 41088, Note_off_c, 0, 70, 64
2, 41088, Note_on_c, 0, 79, 86
2, 41216, Note_off_c, 0, 79, 64
2, 41216, Note_on_c, 0, 72, 86
2, 41344, Note_off_c, 0, 72, 64
2, 41344, Note_on_c, 0, 70, 86
2, 41472, Note_off_c, 0, 70, 64
2, 41472, Note_on_c, 0, 77, 86
2, 41600, Note_off_c, 0, 77, 64
2, 41600, Note_on_c, 0, 72, 86
2, 41728, Note_off_c, 0, 72, 64
2, 41728, Note_on_c, 0, 68, 86
2, 41856, Note_off_c, 0, 68, 64
2, 41856, Note_on_c, 0, 77, 86
2, 41984, Note_off_c, 0, 77, 64
2, 41984, Note_on_c, 0, 74, 86
2, 42112, Note_off_c, 0, 74, 64
2, 42112, Note_on_c, 0, 67, 86
2, 42240, Note_off_c, 0, 67, 64
2, 42240, Note_on_c, 0, 75, 86
2, 42368, Note_off_c, 0, 75, 64
2, 42368, Note_on_c, 0, 72, 86
2, 42496, Note_off_c, 0, 72, 64
2, 42496, Note_on_c, 0, 67, 86
2, 42624, Note_off_c, 0, 67, 64
2, 42624, Note_on_c, 0, 74, 86
2, 42752, Note_off_c, 0, 74, 64
2, 42752, Note_on_c, 0, 71, 86
2, 42880, Note_off_c, 0, 71, 64
2, 42880, Note_on_c, 0, 65, 86
2, 43008, Note_off_c, 0, 65, 64
2, 43008, Note_on_c, 0, 72, 86
2, 43136, Note_off_c, 0, 72, 64
2, 43136, Note_on_c, 0, 67, 86
2, 43264, Note_off_c, 0, 67, 64
2, 43264, Note_on_c, 0, 63, 86
2, 43392, Note_off_c, 0, 63, 64
2, 43392, Note_on_c, 0, 71, 86
2, 43520, Note_off_c, 0, 71, 64
2, 43520, Note_on_c, 0, 68, 86
2, 43648, Note_off_c, 0, 68, 64
2, 43648, Note_on_c, 0, 62, 86
2, 43776, Note_off_c, 0, 62, 64
2, 43776, Note_on_c, 0, 72, 86
2, 43904, Note_off_c, 0, 72, 64
2, 43904, Note_on_c, 0, 69, 86
2, 44032, Note_off_c, 0, 69, 64
2, 44032, Note_on_c, 0, 63, 86
2, 44160, Note_off_c, 0, 63, 64
2, 44160, Note_on_c, 0, 67, 86
2, 44288, Note_off_c, 0, 67, 64
2, 44288, Note_on_c, 0, 63, 86
2, 44416, Note_off_c, 0, 63, 64
2, 44416, Note_on_c, 0, 60, 86
2, 44544, Note_off_c, 0, 60, 64
2, 44544, Note_on_c, 0, 67, 86
2, 44672, Note_off_c, 0, 67, 64
2, 44672, Note_on_c, 0, 63, 86
2, 44800, Note_off_c, 0, 63, 64
2, 44800, Note_on_c, 0, 60, 86
2, 44928, Note_off_c, 0, 60, 64
2, 44928, Note_on_c, 0, 67, 86
2, 45056, Note_off_c, 0, 67, 64
2, 45056, Note_on_c, 0, 62, 86
2, 45184, Note_off_c, 0, 62, 64
2, 45184, Note_on_c, 0, 59, 86
2, 45312, Note_off_c, 0, 59, 64
2, 45312, Note_on_c, 0, 67, 86
2, 45440, Note_off_c, 0, 67, 64
2, 45440, Note_on_c, 0, 62, 86
2, 45568, Note_off_c, 0, 62, 64
2, 45568, Note_on_c, 0, 59, 86
2, 45696, Note_off_c, 0, 59, 64
2, 45696, Note_on_c, 0, 60, 86
2, 45824, Note_off_c, 0, 60, 64
2, 45824, Note_on_c, 0, 63, 86
2, 45952, Note_off_c, 0, 63, 64
2, 45952, Note_on_c, 0, 67, 86
2, 46080, Note_off_c, 0, 67, 64
2, 46080, Note_on_c, 0, 72, 86
2, 46208, Note_off_c, 0, 72, 64
2, 46208, Note_on_c, 0, 67, 86
2, 46336, Note_off_c, 0, 67, 64
2, 46336, Note_on_c, 0, 63, 86
2, 46464, Note_off_c, 0, 63, 64
2, 46464, Note_on_c, 0, 72, 86
2, 46592, Note_off_c, 0, 72, 64
2, 46592, Note_on_c, 0, 68, 86
2, 46720, Note_off_c, 0, 68, 64
2, 46720, Note_on_c, 0, 61, 86
2, 46848, Note_off_c, 0, 61, 64
2, 46848, Note_on_c, 0, 70, 86
2, 46976, Note_off_c, 0, 70, 64
2, 46976, Note_on_c, 0, 67, 86
2, 47104, Note_off_c, 0, 67, 64
2, 47104, Note_on_c, 0, 61, 86
2, 47232, Note_off_c, 0, 61, 64
2, 47232, Note_on_c, 0, 70, 86
2, 47360, Note_off_c, 0, 70, 64
2, 47360, Note_on_c, 0, 67, 86
2, 47488, Note_off_c, 0, 67, 64
2, 47488, Note_on_c, 0, 60, 86
2, 47616, Note_off_c, 0, 60, 64
2, 47616, Note_on_c, 0, 68, 86
2, 47744, Note_off_c, 0, 68, 64
2, 47744, Note_on_c, 0, 65, 86
2, 47872, Note_off_c, 0, 65, 64
2, 47872, Note_on_c, 0, 60, 86
2, 48000, Note_off_c, 0, 60, 64
2, 48000, Note_on_c, 0, 67, 86
2, 48128, Note_off_c, 0, 67, 64
2, 48128, Note_on_c, 0, 65, 86
2, 48256, Note_off_c, 0, 65, 64
2, 48256, Note_on_c, 0, 62, 86
2, 48384, Note_off_c, 0, 62, 64
2, 48384, Note_on_c, 0, 67, 86
2, 48512, Note_off_c, 0, 67, 64
2, 48512, Note_on_c, 0, 63, 86
2, 48640, Note_off_c, 0, 63, 64
2, 48640, Note_on_c, 0, 60, 86
2, 48768, Note_off_c, 0, 60, 64
2, 48768, Note_on_c, 0, 65, 85
2, 48896, Note_off_c, 0, 65, 64
2, 48896, Note_on_c, 0, 59, 84
2, 49024, Note_off_c, 0, 59, 64
2, 49024, Note_on_c, 0, 55, 83
2, 49152, Note_off_c, 0, 55, 64
2, 49152, Note_on_c, 0, 63, 81
2, 49280, Note_off_c, 0, 63, 64
2, 49280, Note_on_c, 0, 60, 80
2, 49408, Note_off_c, 0, 60, 64
2, 49408, Note_on_c, 0, 55, 79
2, 49536, Note_off_c, 0, 55, 64
2, 49536, Note_on_c, 0, 62, 78
2, 49664, Note_off_c, 0, 62, 64
2, 49664, Note_on_c, 0, 56, 77
2, 49792, Note_off_c, 0, 56, 64
2, 49792, Note_on_c, 0, 53, 76
2, 49920, Note_off_c, 0, 53, 64
2, 49920, Note_on_c, 0, 60, 74
2, 50048, Note_off_c, 0, 60, 64
2, 50048, Note_on_c, 0, 57, 73
2, 50176, Note_off_c, 0, 57, 64
2, 50176, Note_on_c, 0, 51, 72
2, 50304, Note_off_c, 0, 51, 64
2, 50304, Note_on_c, 0, 60, 71
2, 50432, Note_off_c, 0, 60, 64
2, 50432, Note_on_c, 0, 55, 70
2, 50560, Note_off_c, 0, 55, 64
2, 50560, Note_on_c, 0, 51, 69
2, 50688, Note_off_c, 0, 51, 64
2, 50688, Note_on_c, 0, 60, 67
2, 50816, Note_off_c, 0, 60, 64
2, 50816, Note_on_c, 0, 55, 66
2, 50944, Note_off_c, 0, 55, 64
2, 50944, Note_on_c, 0, 51, 65
2, 51072, Note_off_c, 0, 51, 64
2, 51072, Note_on_c, 0, 59, 64
2, 51200, Note_off_c, 0, 59, 64
2, 51200, Note_on_c, 0, 55, 63
2, 51328, Note_off_c, 0, 55, 64
2, 51328, Note_on_c, 0, 50, 62
2, 51456, Note_off_c, 0, 50, 64
2, 51456, Note_on_c, 0, 59, 60
2, 51584, Note_off_c, 0, 59, 64
2, 51584, Note_on_c, 0, 55, 59
2, 51712, Note_off_c, 0, 55, 64
2, 51712, Note_on_c, 0, 50, 58
2, 51840, Note_off_c, 0, 50, 64
2, 51840, Note_on_c, 0, 60, 57
2, 51968, Note_off_c, 0, 60, 64
2, 52608, Note_on_c, 0, 63, 50
2, 52608, Note_on_c, 0, 75, 50
2, 52992, Note_off_c, 0, 75, 64
2, 52992, Note_off_c, 0, 63, 64
2, 52992, Note_on_c, 0, 63, 55
2, 52992, Note_on_c, 0, 75, 55
2, 53376, Note_off_c, 0, 75, 64
2, 53376, Note_off_c, 0, 63, 64
2, 53376, Note_on_c, 0, 62, 60
2, 53376, Note_on_c, 0, 74, 60
2, 53760, Note_off_c, 0, 74, 64
2, 53760, Note_off_c, 0, 62, 64
2, 53760, Note_on_c, 0, 60, 55
2, 53760, Note_on_c, 0, 72, 57
2, 54144, Note_off_c, 0, 72, 64
2, 54144, Note_off_c, 0, 60, 64
2, 54144, Note_on_c, 0, 58, 55
2, 54144, Note_on_c, 0, 70, 56
2, 54528, Note_off_c, 0, 70, 64
2, 54528, Note_off_c, 0, 58, 64
2, 54528, Note_on_c, 0, 56, 56
2, 54528, Note_on_c, 0, 68, 57
2, 54912, Note_off_c, 0, 68, 64
2, 54912, Note_off_c, 0, 56, 64
2, 54912, Note_on_c, 0, 55, 57
2, 54912, Note_on_c, 0, 67, 56
2, 55680, Note_off_c, 0, 67, 64
2, 55680, Note_off_c, 0, 55, 64
2, 55680, Note_on_c, 0, 72, 53
2, 55680, Note_on_c, 0, 84, 53
2, 56064, Note_off_c, 0, 84, 64
2, 56064, Note_off_c, 0, 72, 64
2, 56064, Note_on_c, 0, 72, 56
2, 56064, Note_on_c, 0, 84, 56
2, 56448, Note_off_c, 0, 84, 64
2, 56448, Note_off_c, 0, 72, 64
2, 56448, Note_on_c, 0, 70, 60
2, 56448, Note_on_c, 0, 82, 60
2, 56832, Note_off_c, 0, 82, 64
2, 56832, Note_off_c, 0, 70, 64
2, 56832, Note_on_c, 0, 68, 55
2, 56832, Note_on_c, 0, 80, 56
2, 57216, Note_off_c, 0, 80, 64
2, 57216, Note_off_c, 0, 68, 64
2, 57216, Note_on_c, 0, 67, 57
2, 57216, Note_on_c, 0, 79, 56
2, 57600, Note_off_c, 0, 79, 64
2, 57600, Note_off_c, 0, 67, 64
2, 57600, Note_on_c, 0, 65, 57
2, 57600, Note_on_c, 0, 77, 55
2, 57984, Note_off_c, 0, 77, 64
2, 57984, Note_off_c, 0, 65, 64
2, 57984, Note_on_c, 0, 63, 55
2, 57984, Note_on_c, 0, 75, 57
2, 58752, Note_off_c, 0, 75, 64
2, 58752, Note_off_c, 0, 63, 64
2, 58752, Note_on_c, 0, 67, 52
2, 58752, Note_on_c, 0, 79, 52
2, 59136, Note_off_c, 0, 79, 64
2, 59136, Note_off_c, 0, 67, 64
2, 59136, Note_on_c, 0, 67, 56
2, 59136, Note_on_c, 0, 79, 56
2, 59520, Note_off_c, 0, 79, 64
2, 59520, Note_off_c, 0, 67, 64
2, 59520, Note_on_c, 0, 65, 60
2, 59520, Note_on_c, 0, 77, 60
2, 59904, Note_off_c, 0, 77, 64
2, 59904, Note_off_c, 0, 65, 64
2, 59904, Note_on_c, 0, 63, 59
2, 59904, Note_on_c, 0, 75, 59
2, 60288, Note_off_c, 0, 75, 64
2, 60288, Note_off_c, 0, 63, 64
2, 60288, Note_on_c, 0, 62, 55
2, 60288, Note_on_c, 0, 74, 57
2, 60672, Note_off_c, 0, 74, 64
2, 60672, Note_off_c, 0, 62, 64
2, 60672, Note_on_c, 0, 60, 56
2, 60672, Note_on_c, 0, 72, 55
2, 61056, Note_off_c, 0, 72, 64
2, 61056, Note_off_c, 0, 60, 64
2, 61056, Note_on_c, 0, 55, 57
2, 61056, Note_on_c, 0, 67, 55
2, 61824, Note_off_c, 0, 67, 64
2, 61824, Note_off_c, 0, 55, 64
2, 61824, Note_on_c, 0, 55, 51
2, 61824, Note_on_c, 0, 67, 51
2, 62016, Note_off_c, 0, 67, 64
2, 62016, Note_off_c, 0, 55, 64
2, 62208, Note_on_c, 0, 55, 55
2, 62208, Note_on_c, 0, 67, 55
2, 62400, Note_off_c, 0, 67, 64
2, 62400, Note_off_c, 0, 55, 64
2, 62592, Note_on_c, 0, 55, 60
2, 62592, Note_on_c, 0, 67, 60
2, 63360, Note_off_c, 0, 67, 64
2, 63360, Note_off_c, 0, 55, 64
2, 63360, Note_on_c, 0, 55, 50
2, 63360, Note_on_c, 0, 67, 50
2, 63552, Note_off_c, 0, 67, 64
2, 63552, Note_off_c, 0, 55, 64
2, 63744, Note_on_c, 0, 55, 55
2, 63744, Note_on_c, 0, 67, 55
2, 63936, Note_off_c, 0, 67, 64
2, 63936, Note_off_c, 0, 55, 64
2, 64128, Note_on_c, 0, 60, 60
2, 64512, Note_off_c, 0, 60, 64
2, 64896, Note_on_c, 0, 63, 51
2, 64896, Note_on_c, 0, 75, 51
2, 65280, Note_off_c, 0, 75, 64
2, 65280, Note_off_c, 0, 63, 64
2, 65280, Note_on_c, 0, 63, 55
2, 65280, Note_on_c, 0, 75, 55
2, 65664, Note_off_c, 0, 75, 64
2, 65664, Note_off_c, 0, 63, 64
2, 65664, Note_on_c, 0, 62, 60
2, 65664, Note_on_c, 0, 74, 60
2, 66048, Note_off_c, 0, 74, 64
2, 66048, Note_off_c, 0, 62, 64
2, 66048, Note_on_c, 0, 60, 55
2, 66048, Note_on_c, 0, 72, 59
2, 66432, Note_off_c, 0, 72, 64
2, 66432, Note_off_c, 0, 60, 64
2, 66432, Note_on_c, 0, 58, 59
2, 66432, Note_on_c, 0, 70, 57
2, 66816, Note_off_c, 0, 70, 64
2, 66816, Note_off_c, 0, 58, 64
2, 66816, Note_on_c, 0, 56, 57
2, 66816, Note_on_c, 0, 68, 56
2, 67200, Note_off_c, 0, 68, 64
2, 67200, Note_off_c, 0, 56, 64
2, 67200, Note_on_c, 0, 55, 57
2, 67200, Note_on_c, 0, 67, 57
2, 67968, Note_off_c, 0, 67, 64
2, 67968, Note_off_c, 0, 55, 64
2, 67968, Note_on_c, 0, 72, 51
2, 67968, Note_on_c, 0, 84, 51
2, 68352, Note_off_c, 0, 84, 64
2, 68352, Note_off_c, 0, 72, 64
2, 68352, Note_on_c, 0, 72, 55
2, 68352, Note_on_c, 0, 84, 55
2, 68736, Note_off_c, 0, 84, 64
2, 68736, Note_off_c, 0, 72, 64
2, 68736, Note_on_c, 0, 70, 60
2, 68736, Note_on_c, 0, 82, 60
2, 69120, Note_off_c, 0, 82, 64
2, 69120, Note_off_c, 0, 70, 64
2, 69120, Note_on_c, 0, 68, 59
2, 69120, Note_on_c, 0, 80, 56
2, 69504, Note_off_c, 0, 80, 64
2, 69504, Note_off_c, 0, 68, 64
2, 69504, Note_on_c, 0, 67, 56
2, 69504, Note_on_c, 0, 79, 56
2, 69888, Note_off_c, 0, 79, 64
2, 69888, Note_off_c, 0, 67, 64
2, 69888, Note_on_c, 0, 65, 57
2, 69888, Note_on_c, 0, 77, 56
2, 70272, Note_off_c, 0, 77, 64
2, 70272, Note_off_c, 0, 65, 64
2, 70272, Note_on_c, 0, 63, 58
2, 70272, Note_on_c, 0, 75, 58
2, 71040, Note_off_c, 0, 75, 64
2, 71040, Note_off_c, 0, 63, 64
2, 71040, Note_on_c, 0, 67, 50
2, 71040, Note_on_c, 0, 79, 50
2, 71424, Note_off_c, 0, 79, 64
2, 71424, Note_off_c, 0, 67, 64
2, 71424, Note_on_c, 0, 67, 55
2, 71424, Note_on_c, 0, 79, 55
2, 71808, Note_off_c, 0, 79, 64
2, 71808, Note_off_c, 0, 67, 64
2, 71808, Note_on_c, 0, 65, 60
2, 71808, Note_on_c, 0, 77, 60
2, 72192, Note_off_c, 0, 77, 64
2, 72192, Note_off_c, 0, 65, 64
2, 72192, Note_on_c, 0, 63, 57
2, 72192, Note_on_c, 0, 75, 55
2, 72576, Note_off_c, 0, 75, 64
2, 72576, Note_off_c, 0, 63, 64
2, 72576, Note_on_c, 0, 62, 55
2, 72576, Note_on_c, 0, 74, 56
2, 72960, Note_off_c, 0, 74, 64
2, 72960, Note_off_c, 0, 62, 64
2, 72960, Note_on_c, 0, 60, 57
2, 72960, Note_on_c, 0, 72, 58
2, 73344, Note_off_c, 0, 72, 64
2, 73344, Note_off_c, 0, 60, 64
2, 73344, Note_on_c, 0, 55, 61
2, 73344, Note_on_c, 0, 67, 61
2, 74112, Note_off_c, 0, 67, 64
2, 74112, Note_off_c, 0, 55, 64
2, 74112, Note_on_c, 0, 55, 70
2, 74112, Note_on_c, 0, 67, 70
2, 74304, Note_off_c, 0, 67, 64
2, 74304, Note_off_c, 0, 55, 64
2, 74496, Note_on_c, 0, 55, 72
2, 74496, Note_on_c, 0, 67, 72
2, 74688, Note_off_c, 0, 67, 64
2, 74688, Note_off_c, 0, 55, 64
2, 74880, Note_on_c, 0, 55, 73
2, 74880, Note_on_c, 0, 67, 73
2, 75648, Note_off_c, 0, 67, 64
2, 75648, Note_off_c, 0, 55, 64
2, 75648, Note_on_c, 0, 55, 76
2, 75648, Note_on_c, 0, 67, 76
2, 75840, Note_off_c, 0, 67, 64
2, 75840, Note_off_c, 0, 55, 64
2, 76032, Note_on_c, 0, 55, 78
2, 76032, Note_on_c, 0, 67, 78
2, 76224, Note_off_c, 0, 67, 64
2, 76224, Note_off_c, 0, 55, 64
2, 76416, Note_on_c, 0, 60, 80
2, 76800, Note_off_c, 0, 60, 64
2, 77184, Note_on_c, 0, 72, 88
2, 77184, Note_on_c, 0, 75, 88
2, 77184, Note_on_c, 0, 79, 88
2, 77184, Note_on_c, 0, 84, 88
2, 77376, Note_off_c, 0, 84, 64
2, 77376, Note_off_c, 0, 79, 64
2, 77376, Note_off_c, 0, 75, 64
2, 77376, Note_off_c, 0, 72, 64
2, 77568, Note_on_c, 0, 71, 88
2, 77568, Note_on_c, 0, 74, 88
2, 77568, Note_on_c, 0, 77, 88
2, 77568, Note_on_c, 0, 80, 88
2, 77568, Note_on_c, 0, 83, 88
2, 77760, Note_off_c, 0, 83, 64
2, 77760, Note_off_c, 0, 80, 64
2, 77760, Note_off_c, 0, 77, 64
2, 77760, Note_off_c, 0, 74, 64
2, 77760, Note_off_c, 0, 71, 64
2, 77952, Note_on_c, 0, 72, 88
2, 77952, Note_on_c, 0, 75, 88
2, 77952, Note_on_c, 0, 79, 88
2, 77952, Note_on_c, 0, 84, 88
2, 78144, Note_off_c, 0, 84, 64
2, 78144, Note_off_c, 0, 79, 64
2, 78144, Note_off_c, 0, 75, 64
2, 78144, Note_off_c, 0, 72, 64
2, 78720, Note_on_c, 0, 67, 88
2, 78720, Note_on_c, 0, 72, 88
2, 78720, Note_on_c, 0, 75, 88
2, 78720, Note_on_c, 0, 79, 88
2, 78912, Note_off_c, 0, 79, 64
2, 78912, Note_off_c, 0, 75, 64
2, 78912, Note_off_c, 0, 72, 64
2, 78912, Note_off_c, 0, 67, 64
2, 79104, Note_on_c, 0, 67, 89
2, 79104, Note_on_c, 0, 71, 89
2, 79104, Note_on_c, 0, 74, 89
2, 79104, Note_on_c, 0, 79, 89
2, 79296, Note_off_c, 0, 79, 64
2, 79296, Note_off_c, 0, 74, 64
2, 79296, Note_off_c, 0, 71, 64
2, 79296, Note_off_c, 0, 67, 64
2, 79488, Note_on_c, 0, 67, 89
2, 79488, Note_on_c, 0, 72, 89
2, 79488, Note_on_c, 0, 75, 89
2, 79488, Note_on_c, 0, 79, 89
2, 79680, Note_off_c, 0, 79, 64
2, 79680, Note_off_c, 0, 75, 64
2, 79680, Note_off_c, 0, 72, 64
2, 79680, Note_off_c, 0, 67, 64
2, 80256, Note_on_c, 0, 72, 89
2, 80256, Note_on_c, 0, 75, 89
2, 80256, Note_on_c, 0, 79, 89
2, 80256, Note_on_c, 0, 84, 89
2, 80448, Note_off_c, 0, 84, 64
2, 80448, Note_off_c, 0, 79, 64
2, 80448, Note_off_c, 0, 75, 64
2, 80448, Note_off_c, 0, 72, 64
2, 80640, Note_on_c, 0, 71, 89
2, 80640, Note_on_c, 0, 74, 89
2, 80640, Note_on_c, 0, 77, 89
2, 80640, Note_on_c, 0, 80, 89
2, 80640, Note_on_c, 0, 83, 89
2, 80832, Note_off_c, 0, 83, 64
2, 80832, Note_off_c, 0, 80, 64
2, 80832, Note_off_c, 0, 77, 64
2, 80832, Note_off_c, 0, 74, 64
2, 80832, Note_off_c, 0, 71, 64
2, 81024, Note_on_c, 0, 72, 89
2, 81024, Note_on_c, 0, 75, 89
2, 81024, Note_on_c, 0, 79, 89
2, 81024, Note_on_c, 0, 84, 89
2, 81216, Note_off_c, 0, 84, 64
2, 81216, Note_off_c, 0, 79, 64
2, 81216, Note_off_c, 0, 75, 64
2, 81216, Note_off_c, 0, 72, 64
2, 81792, Note_on_c, 0, 67, 87
2, 81792, Note_on_c, 0, 72, 87
2, 81792, Note_on_c, 0, 75, 87
2, 81792, Note_on_c, 0, 79, 87
2, 81984, Note_off_c, 0, 79, 64
2, 81984, Note_off_c, 0, 75, 64
2, 81984, Note_off_c, 0, 72, 64
2, 81984, Note_off_c, 0, 67, 64
2, 82176, Note_on_c, 0, 67, 86
2, 82176, Note_on_c, 0, 71, 86
2, 82176, Note_on_c, 0, 74, 86
2, 82176, Note_on_c, 0, 79, 86
2, 82368, Note_off_c, 0, 79, 64
2, 82368, Note_off_c, 0, 74, 64
2, 82368, Note_off_c, 0, 71, 64
2, 82368, Note_off_c, 0, 67, 64
2, 82560, Note_on_c, 0, 67, 85
2, 82560, Note_on_c, 0, 72, 85
2, 82560, Note_on_c, 0, 75, 85
2, 82560, Note_on_c, 0, 79, 85
2, 82752, Note_off_c, 0, 79, 64
2, 82752, Note_off_c, 0, 75, 64
2, 82752, Note_off_c, 0, 72, 64
2, 82752, Note_off_c, 0, 67, 64
2, 83328, Note_on_c, 0, 67, 83
2, 83328, Note_on_c, 0, 72, 83
2, 83328, Note_on_c, 0, 75, 83
2, 83328, Note_on_c, 0, 79, 83
2, 83520, Note_off_c, 0, 79, 64
2, 83520, Note_off_c, 0, 75, 64
2, 83520, Note_off_c, 0, 72, 64
2, 83520, Note_off_c, 0, 67, 64
2, 83712, Note_on_c, 0, 67, 82
2, 83712, Note_on_c, 0, 71, 82
2, 83712, Note_on_c, 0, 74, 82
2, 83712, Note_on_c, 0, 79, 82
2, 83904, Note_off_c, 0, 79, 64
2, 83904, Note_off_c, 0, 74, 64
2, 83904, Note_off_c, 0, 71, 64
2, 83904, Note_off_c, 0, 67, 64
2, 84096, Note_on_c, 0, 67, 81
2, 84096, Note_on_c, 0, 72, 81
2, 84096, Note_on_c, 0, 75, 81
2, 84096, Note_on_c, 0, 79, 81
2, 84288, Note_off_c, 0, 79, 64
2, 84288, Note_off_c, 0, 75, 64
2, 84288, Note_off_c, 0, 72, 64
2, 84288, Note_off_c, 0, 67, 64
2, 84864, Note_on_c, 0, 67, 79
2, 84864, Note_on_c, 0, 72, 79
2, 84864, Note_on_c, 0, 75, 79
2, 85056, Note_off_c, 0, 75, 64
2, 85056, Note_off_c, 0, 72, 64
2, 85056, Note_off_c, 0, 67, 64
2, 85632, Note_on_c, 0, 63, 77
2, 85632, Note_on_c, 0, 67, 77
2, 85632, Note_on_c, 0, 72, 77
2, 86016, Note_off_c, 0, 72, 64
2, 86016, Note_off_c, 0, 67, 64
2, 86016, Note_off_c, 0, 63, 64
2, 86400, Note_on_c, 0, 64, 71
2, 86400, Note_on_c, 0, 67, 71
2, 86400, Note_on_c, 0, 70, 71
2, 86784, Note_off_c, 0, 70, 64
2, 86784, Note_off_c, 0, 67, 64
2, 86784, Note_off_c, 0, 64, 64
2, 87168, Note_on_c, 0, 65, 66
2, 87168, Note_on_c, 0, 68, 66
2, 87552, Note_off_c, 0, 68, 64
2, 87552, Note_off_c, 0, 65, 64
2, 87936, Note_on_c, 0, 65, 48
2, 87936, Note_on_c, 0, 68, 48
2, 87936, Note_on_c, 0, 72, 48
2, 87936, Note_on_c, 0, 77, 48
2, 88128, Note_off_c, 0, 77, 64
2, 88128, Note_off_c, 0, 72, 64
2, 88128, Note_off_c, 0, 68, 64
2, 88128, Note_off_c, 0, 65, 64
2, 88320, Note_on_c, 0, 64, 45
2, 88320, Note_on_c, 0, 67, 45
2, 88320, Note_on_c, 0, 70, 45
2, 88320, Note_on_c, 0, 73, 45
2, 88320, Note_on_c, 0, 76, 45
2, 88512, Note_off_c, 0, 76, 64
2, 88512, Note_off_c, 0, 73, 64
2, 88512, Note_off_c, 0, 70, 64
2, 88512, Note_off_c, 0, 67, 64
2, 88512, Note_off_c, 0, 64, 64
2, 88704, Note_on_c, 0, 65, 42
2, 88704, Note_on_c, 0, 68, 42
2, 88704, Note_on_c, 0, 72, 42
2, 88704, Note_on_c, 0, 77, 42
2, 88896, Note_off_c, 0, 77, 64
2, 88896, Note_off_c, 0, 72, 64
2, 88896, Note_off_c, 0, 68, 64
2, 88896, Note_off_c, 0, 65, 64
2, 89472, Note_on_c, 0, 72, 76
2, 89472, Note_on_c, 0, 77, 76
2, 89472, Note_on_c, 0, 80, 76
2, 89472, Note_on_c, 0, 84, 76
2, 89664, Note_off_c, 0, 84, 64
2, 89664, Note_off_c, 0, 80, 64
2, 89664, Note_off_c, 0, 77, 64
2, 89664, Note_off_c, 0, 72, 64
2, 89856, Note_on_c, 0, 72, 78
2, 89856, Note_on_c, 0, 79, 78
2, 89856, Note_on_c, 0, 82, 78
2, 89856, Note_on_c, 0, 84, 78
2, 90048, Note_off_c, 0, 84, 64
2, 90048, Note_off_c, 0, 82, 64
2, 90048, Note_off_c, 0, 79, 64
2, 90048, Note_off_c, 0, 72, 64
2, 90240, Note_on_c, 0, 72, 80
2, 90240, Note_on_c, 0, 77, 80
2, 90240, Note_on_c, 0, 80, 80
2, 90240, Note_on_c, 0, 84, 80
2, 90432, Note_off_c, 0, 84, 64
2, 90432, Note_off_c, 0, 80, 64
2, 90432, Note_off_c, 0, 77, 64
2, 90432, Note_off_c, 0, 72, 64
2, 91008, Note_on_c, 0, 65, 48
2, 91008, Note_on_c, 0, 68, 48
2, 91008, Note_on_c, 0, 72, 48
2, 91008, Note_on_c, 0, 77, 48
2, 91200, Note_off_c, 0, 77, 64
2, 91200, Note_off_c, 0, 72, 64
2, 91200, Note_off_c, 0, 68, 64
2, 91200, Note_off_c, 0, 65, 64
2, 91392, Note_on_c, 0, 64, 47
2, 91392, Note_on_c, 0, 67, 47
2, 91392, Note_on_c, 0, 70, 47
2, 91392, Note_on_c, 0, 73, 47
2, 91392, Note_on_c, 0, 76, 47
2, 91584, Note_off_c, 0, 76, 64
2, 91584, Note_off_c, 0, 73, 64
2, 91584, Note_off_c, 0, 70, 64
2, 91584, Note_off_c, 0, 67, 64
2, 91584, Note_off_c, 0, 64, 64
2, 91776, Note_on_c, 0, 65, 47
2, 91776, Note_on_c, 0, 68, 47
2, 91776, Note_on_c, 0, 72, 47
2, 91776, Note_on_c, 0, 77, 47
2, 91968, Note_off_c, 0, 77, 64
2, 91968, Note_off_c, 0, 72, 64
2, 91968, Note_off_c, 0, 68, 64
2, 91968, Note_off_c, 0, 65, 64
2, 92544, Note_on_c, 0, 72, 82
2, 92544, Note_on_c, 0, 77, 82
2, 92544, Note_on_c, 0, 80, 82
2, 92544, Note_on_c, 0, 84, 82
2, 92736, Note_off_c, 0, 84, 64
2, 92736, Note_off_c, 0, 80, 64
2, 92736, Note_off_c, 0, 77, 64
2, 92736, Note_off_c, 0, 72, 64
2, 92928, Note_on_c, 0, 72, 83
2, 92928, Note_on_c, 0, 79, 83
2, 92928, Note_on_c, 0, 82, 83
2, 92928, Note_on_c, 0, 84, 83
2, 93120, Note_off_c, 0, 84, 64
2, 93120, Note_off_c, 0, 82, 64
2, 93120, Note_off_c, 0, 79, 64
2, 93120, Note_off_c, 0, 72, 64
2, 93312, Note_on_c, 0, 72, 83
2, 93312, Note_on_c, 0, 77, 83
2, 93312, Note_on_c, 0, 80, 83
2, 93312, Note_on_c, 0, 84, 83
2, 93504, Note_off_c, 0, 84, 64
2, 93504, Note_off_c, 0, 80, 64
2, 93504, Note_off_c, 0, 77, 64
2, 93504, Note_off_c, 0, 72, 64
2, 94080, Note_on_c, 0, 75, 33
2, 94272, Note_off_c, 0, 75, 64
2, 94464, Note_on_c, 0, 75, 36
2, 94656, Note_off_c, 0, 75, 64
2, 94848, Note_on_c, 0, 75, 39
2, 95232, Note_off_c, 0, 75, 64
2, 95232, Note_on_c, 0, 80, 41
2, 95616, Note_off_c, 0, 80, 64
2, 95616, Note_on_c, 0, 75, 44
2, 95808, Note_off_c, 0, 75, 64
2, 96000, Note_on_c, 0, 75, 47
2, 96192, Note_off_c, 0, 75, 64
2, 96384, Note_on_c, 0, 75, 50
2, 96768, Note_off_c, 0, 75, 64
2, 96768, Note_on_c, 0, 80, 53
2, 97152, Note_off_c, 0, 80, 64
2, 97152, Note_on_c, 0, 75, 56
2, 97536, Note_off_c, 0, 75, 64
2, 97536, Note_on_c, 0, 76, 59
2, 97920, Note_off_c, 0, 76, 64
2, 97920, Note_on_c, 0, 77, 62
2, 98304, Note_off_c, 0, 77, 64
2, 98304, Note_on_c, 0, 79, 65
2, 98688, Note_off_c, 0, 79, 64
2, 98688, Note_on_c, 0, 80, 68
2, 99072, Note_off_c, 0, 80, 64
2, 99072, Note_on_c, 0, 83, 71
2, 99456, Note_off_c, 0, 83, 64
2, 99456, Note_on_c, 0, 84, 74
2, 99840, Note_off_c, 0, 84, 64
2, 100224, Note_on_c, 0, 72, 34
2, 100416, Note_off_c, 0, 72, 64
2, 100608, Note_on_c, 0, 72, 36
2, 100800, Note_off_c, 0, 72, 64
2, 100992, Note_on_c, 0, 72, 38
2, 101068, Note_off_c, 0, 72, 64
2, 101068, Note_on_c, 0, 73, 38
2, 101146, Note_off_c, 0, 73, 64
2, 101146, Note_on_c, 0, 72, 39
2, 101222, Note_off_c, 0, 72, 64
2, 101222, Note_on_c, 0, 71, 39
2, 101300, Note_off_c, 0, 71, 64
2, 101300, Note_on_c, 0, 72, 39
2, 101376, Note_off_c, 0, 72, 64
2, 101376, Note_on_c, 0, 77, 40
2, 101760, Note_off_c, 0, 77, 64
2, 101760, Note_on_c, 0, 72, 42
2, 101952, Note_off_c, 0, 72, 64
2, 102144, Note_on_c, 0, 72, 44
2, 102336, Note_off_c, 0, 72, 64
2, 102528, Note_on_c, 0, 72, 45
2, 102604, Note_off_c, 0, 72, 64
2, 102604, Note_on_c, 0, 73, 46
2, 102682, Note_off_c, 0, 73, 64
2, 102682, Note_on_c, 0, 72, 46
2, 102758, Note_off_c, 0, 72, 64
2, 102758, Note_on_c, 0, 71, 46
2, 102836, Note_off_c, 0, 71, 64
2, 102836, Note_on_c, 0, 72, 47
2, 102912, Note_off_c, 0, 72, 64
2, 102912, Note_on_c, 0, 77, 47
2, 103296, Note_off_c, 0, 77, 64
2, 103296, Note_on_c, 0, 72, 49
2, 103488, Note_off_c, 0, 72, 64
2, 103680, Note_on_c, 0, 72, 51
2, 103872, Note_off_c, 0, 72, 64
2, 103968, Note_on_c, 0, 72, 75
2, 104064, Note_off_c, 0, 72, 64
2, 104064, Note_on_c, 0, 80, 88
2, 104640, Note_off_c, 0, 80, 64
2, 104640, Note_on_c, 0, 79, 80
2, 104832, Note_off_c, 0, 79, 64
2, 104832, Note_on_c, 0, 77, 77
2, 105024, Note_off_c, 0, 77, 64
2, 105024, Note_on_c, 0, 75, 75
2, 105216, Note_off_c, 0, 75, 64
2, 105216, Note_on_c, 0, 74, 72
2, 105408, Note_off_c, 0, 74, 64
2, 105408, Note_on_c, 0, 72, 70
2, 105600, Note_off_c, 0, 72, 64
2, 105600, Note_on_c, 0, 71, 67
2, 105792, Note_off_c, 0, 71, 64
2, 106368, Note_on_c, 0, 67, 56
2, 106368, Note_on_c, 0, 71, 56
2, 106368, Note_on_c, 0, 74, 56
2, 106368, Note_on_c, 0, 79, 56
2, 106560, Note_off_c, 0, 79, 64
2, 106560, Note_off_c, 0, 74, 64
2, 106560, Note_off_c, 0, 71, 64
2, 106560, Note_off_c, 0, 67, 64
2, 106752, Note_on_c, 0, 66, 56
2, 106752, Note_on_c, 0, 69, 56
2, 106752, Note_on_c, 0, 72, 56
2, 106752, Note_on_c, 0, 75, 56
2, 106752, Note_on_c, 0, 78, 56
2, 106944, Note_off_c, 0, 78, 64
2, 106944, Note_off_c, 0, 75, 64
2, 106944, Note_off_c, 0, 72, 64
2, 106944, Note_off_c, 0, 69, 64
2, 106944, Note_off_c, 0, 66, 64
2, 107136, Note_on_c, 0, 67, 56
2, 107136, Note_on_c, 0, 71, 56
2, 107136, Note_on_c, 0, 74, 56
2, 107136, Note_on_c, 0, 79, 56
2, 107328, Note_off_c, 0, 79, 64
2, 107328, Note_off_c, 0, 74, 64
2, 107328, Note_off_c, 0, 71, 64
2, 107328, Note_off_c, 0, 67, 64
2, 107904, Note_on_c, 0, 71, 74
2, 107904, Note_on_c, 0, 74, 74
2, 107904, Note_on_c, 0, 79, 74
2, 107904, Note_on_c, 0, 83, 74
2, 108096, Note_off_c, 0, 83, 64
2, 108096, Note_off_c, 0, 79, 64
2, 108096, Note_off_c, 0, 74, 64
2, 108096, Note_off_c, 0, 71, 64
2, 108288, Note_on_c, 0, 71, 74
2, 108288, Note_on_c, 0, 74, 74
2, 108288, Note_on_c, 0, 79, 74
2, 108288, Note_on_c, 0, 83, 74
2, 108480, Note_off_c, 0, 83, 64
2, 108480, Note_off_c, 0, 79, 64
2, 108480, Note_off_c, 0, 74, 64
2, 108480, Note_off_c, 0, 71, 64
2, 108672, Note_on_c, 0, 71, 75
2, 108672, Note_on_c, 0, 74, 75
2, 108672, Note_on_c, 0, 79, 75
2, 108672, Note_on_c, 0, 83, 75
2, 108864, Note_off_c, 0, 83, 64
2, 108864, Note_off_c, 0, 79, 64
2, 108864, Note_off_c, 0, 74, 64
2, 108864, Note_off_c, 0, 71, 64
2, 109440, Note_on_c, 0, 67, 56
2, 109440, Note_on_c, 0, 71, 56
2, 109440, Note_on_c, 0, 74, 56
2, 109440, Note_on_c, 0, 79, 56
2, 109632, Note_off_c, 0, 79, 64
2, 109632, Note_off_c, 0, 74, 64
2, 109632, Note_off_c, 0, 71, 64
2, 109632, Note_off_c, 0, 67, 64
2, 109824, Note_on_c, 0, 66, 56
2, 109824, Note_on_c, 0, 69, 56
2, 109824, Note_on_c, 0, 72, 56
2, 109824, Note_on_c, 0, 75, 56
2, 109824, Note_on_c, 0, 78, 56
2, 110016, Note_off_c, 0, 78, 64
2, 110016, Note_off_c, 0, 75, 64
2, 110016, Note_off_c, 0, 72, 64
2, 110016, Note_off_c, 0, 69, 64
2, 110016, Note_off_c, 0, 66, 64
2, 110208, Note_on_c, 0, 67, 56
2, 110208, Note_on_c, 0, 71, 56
2, 110208, Note_on_c, 0, 74, 56
2, 110208, Note_on_c, 0, 79, 56
2, 110400, Note_off_c, 0, 79, 64
2, 110400, Note_off_c, 0, 74, 64
2, 110400, Note_off_c, 0, 71, 64
2, 110400, Note_off_c, 0, 67, 64
2, 110976, Note_on_c, 0, 74, 76
2, 110976, Note_on_c, 0, 79, 76
2, 110976, Note_on_c, 0, 83, 76
2, 110976, Note_on_c, 0, 86, 76
2, 111168, Note_off_c, 0, 86, 64
2, 111168, Note_off_c, 0, 83, 64
2, 111168, Note_off_c, 0, 79, 64
2, 111168, Note_off_c, 0, 74, 64
2, 111360, Note_on_c, 0, 74, 77
2, 111360, Note_on_c, 0, 79, 77
2, 111360, Note_on_c, 0, 83, 77
2, 111360, Note_on_c, 0, 86, 77
2, 111552, Note_off_c, 0, 86, 64
2, 111552, Note_off_c, 0, 83, 64
2, 111552, Note_off_c, 0, 79, 64
2, 111552, Note_off_c, 0, 74, 64
2, 111744, Note_on_c, 0, 74, 79
2, 111744, Note_on_c, 0, 79, 79
2, 111744, Note_on_c, 0, 83, 79
2, 111744, Note_on_c, 0, 86, 79
2, 111936, Note_off_c, 0, 86, 64
2, 111936, Note_off_c, 0, 83, 64
2, 111936, Note_off_c, 0, 79, 64
2, 111936, Note_off_c, 0, 74, 64
2, 112512, Note_on_c, 0, 77, 82
2, 112512, Note_on_c, 0, 83, 82
2, 112512, Note_on_c, 0, 86, 82
2, 112512, Note_on_c, 0, 89, 82
2, 112704, Note_off_c, 0, 89, 64
2, 112704, Note_off_c, 0, 86, 64
2, 112704, Note_off_c, 0, 83, 64
2, 112704, Note_off_c, 0, 77, 64
2, 112896, Note_on_c, 0, 77, 83
2, 112896, Note_on_c, 0, 83, 83
2, 112896, Note_on_c, 0, 86, 83
2, 112896, Note_on_c, 0, 89, 83
2, 113088, Note_off_c, 0, 89, 64
2, 113088, Note_off_c, 0, 86, 64
2, 113088, Note_off_c, 0, 83, 64
2, 113088, Note_off_c, 0, 77, 64
2, 113280, Note_on_c, 0, 77, 85
2, 113280, Note_on_c, 0, 83, 85
2, 113280, Note_on_c, 0, 86, 85
2, 113280, Note_on_c, 0, 89, 85
2, 113472, Note_off_c, 0, 89, 64
2, 113472, Note_off_c, 0, 86, 64
2, 113472, Note_off_c, 0, 83, 64
2, 113472, Note_off_c, 0, 77, 64
2, 114048, Note_on_c, 0, 77, 88
2, 114048, Note_on_c, 0, 83, 88
2, 114048, Note_on_c, 0, 86, 88
2, 114048, Note_on_c, 0, 89, 88
2, 114240, Note_off_c, 0, 89, 64
2, 114240, Note_off_c, 0, 86, 64
2, 114240, Note_off_c, 0, 83, 64
2, 114240, Note_off_c, 0, 77, 64
2, 114432, Note_on_c, 0, 77, 89
2, 114432, Note_on_c, 0, 83, 89
2, 114432, Note_on_c, 0, 86, 89
2, 114432, Note_on_c, 0, 89, 89
2, 114624, Note_off_c, 0, 89, 64
2, 114624, Note_off_c, 0, 86, 64
2, 114624, Note_off_c, 0, 83, 64
2, 114624, Note_off_c, 0, 77, 64
2, 114816, Note_on_c, 0, 77, 91
2, 114816, Note_on_c, 0, 83, 91
2, 114816, Note_on_c, 0, 86, 91
2, 114816, Note_on_c, 0, 89, 91
2, 115008, Note_off_c, 0, 89, 64
2, 115008, Note_off_c, 0, 86, 64
2, 115008, Note_off_c, 0, 83, 64
2, 115008, Note_off_c, 0, 77, 64
2, 115584, Note_on_c, 0, 77, 94
2, 115584, Note_on_c, 0, 83, 94
2, 115584, Note_on_c, 0, 86, 94
2, 115584, Note_on_c, 0, 89, 94
2, 115776, Note_off_c, 0, 89, 64
2, 115776, Note_off_c, 0, 86, 64
2, 115776, Note_off_c, 0, 83, 64
2, 115776, Note_off_c, 0, 77, 64
2, 116352, Note_on_c, 0, 89, 97
2, 116480, Note_off_c, 0, 89, 64
2, 116480, Note_on_c, 0, 87, 96
2, 116608, Note_off_c, 0, 87, 64
2, 116608, Note_on_c, 0, 86, 95
2, 116736, Note_off_c, 0, 86, 64
2, 116736, Note_on_c, 0, 84, 95
2, 116864, Note_off_c, 0, 84, 64
2, 116864, Note_on_c, 0, 83, 94
2, 116992, Note_off_c, 0, 83, 64
2, 116992, Note_on_c, 0, 80, 93
2, 117120, Note_off_c, 0, 80, 64
2, 117120, Note_on_c, 0, 79, 93
2, 117248, Note_off_c, 0, 79, 64
2, 117248, Note_on_c, 0, 77, 92
2, 117376, Note_off_c, 0, 77, 64
2, 117376, Note_on_c, 0, 75, 91
2, 117504, Note_off_c, 0, 75, 64
2, 117504, Note_on_c, 0, 74, 91
2, 117632, Note_off_c, 0, 74, 64
2, 117632, Note_on_c, 0, 72, 90
2, 117760, Note_off_c, 0, 72, 64
2, 117760, Note_on_c, 0, 71, 89
2, 117888, Note_off_c, 0, 71, 64
2, 117888, Note_on_c, 0, 68, 89
2, 118016, Note_off_c, 0, 68, 64
2, 118016, Note_on_c, 0, 67, 88
2, 118144, Note_off_c, 0, 67, 64
2, 118144, Note_on_c, 0, 65, 87
2, 118272, Note_off_c, 0, 65, 64
2, 118272, Note_on_c, 0, 63, 87
2, 118400, Note_off_c, 0, 63, 64
2, 118400, Note_on_c, 0, 62, 86
2, 118528, Note_off_c, 0, 62, 64
2, 118528, Note_on_c, 0, 60, 85
2, 118656, Note_off_c, 0, 60, 64
2, 118656, Note_on_c, 0, 59, 85
2, 119040, Note_off_c, 0, 59, 64
2, 119552, Note_on_c, 0, 63, 85
2, 119680, Note_off_c, 0, 63, 64
2, 119680, Note_on_c, 0, 60, 85
2, 119808, Note_off_c, 0, 60, 64
2, 119808, Note_on_c, 0, 68, 85
2, 119936, Note_off_c, 0, 68, 64
2, 119936, Note_on_c, 0, 63, 85
2, 120064, Note_off_c, 0, 63, 64
2, 120064, Note_on_c, 0, 60, 85
2, 120192, Note_off_c, 0, 60, 64
2, 120192, Note_on_c, 0, 67, 85
2, 120320, Note_off_c, 0, 67, 64
2, 120320, Note_on_c, 0, 63, 85
2, 120448, Note_off_c, 0, 63, 64
2, 120448, Note_on_c, 0, 60, 85
2, 120576, Note_off_c, 0, 60, 64
2, 120576, Note_on_c, 0, 66, 85
2, 120704, Note_off_c, 0, 66, 64
2, 120704, Note_on_c, 0, 63, 85
2, 120832, Note_off_c, 0, 63, 64
2, 120832, Note_on_c, 0, 60, 85
2, 120960, Note_off_c, 0, 60, 64
2, 120960, Note_on_c, 0, 67, 85
2, 121088, Note_off_c, 0, 67, 64
2, 121088, Note_on_c, 0, 63, 85
2, 121216, Note_off_c, 0, 63, 64
2, 121216, Note_on_c, 0, 60, 85
2, 121344, Note_off_c, 0, 60, 64
2, 121344, Note_on_c, 0, 68, 85
2, 121472, Note_off_c, 0, 68, 64
2, 121472, Note_on_c, 0, 63, 85
2, 121600, Note_off_c, 0, 63, 64
2, 121600, Note_on_c, 0, 60, 85
2, 121728, Note_off_c, 0, 60, 64
2, 121728, Note_on_c, 0, 67, 85
2, 121856, Note_off_c, 0, 67, 64
2, 121856, Note_on_c, 0, 63, 85
2, 121984, Note_off_c, 0, 63, 64
2, 121984, Note_on_c, 0, 60, 85
2, 122112, Note_off_c, 0, 60, 64
2, 122112, Note_on_c, 0, 66, 85
2, 122240, Note_off_c, 0, 66, 64
2, 122240, Note_on_c, 0, 63, 85
2, 122368, Note_off_c, 0, 63, 64
2, 122368, Note_on_c, 0, 60, 85
2, 122496, Note_off_c, 0, 60, 64
2, 122496, Note_on_c, 0, 67, 85
2, 122624, Note_off_c, 0, 67, 64
2, 122880, Note_on_c, 0, 75, 85
2, 123008, Note_off_c, 0, 75, 64
2, 123008, Note_on_c, 0, 72, 85
2, 123136, Note_off_c, 0, 72, 64
2, 123136, Note_on_c, 0, 68, 85
2, 123264, Note_off_c, 0, 68, 64
2, 123264, Note_on_c, 0, 75, 85
2, 123392, Note_off_c, 0, 75, 64
2, 123392, Note_on_c, 0, 72, 85
2, 123520, Note_off_c, 0, 72, 64
2, 123520, Note_on_c, 0, 67, 85
2, 123648, Note_off_c, 0, 67, 64
2, 123648, Note_on_c, 0, 75, 85
2, 123776, Note_off_c, 0, 75, 64
2, 123776, Note_on_c, 0, 72, 85
2, 123904, Note_off_c, 0, 72, 64
2, 123904, Note_on_c, 0, 66, 85
2, 124032, Note_off_c, 0, 66, 64
2, 124032, Note_on_c, 0, 75, 85
2, 124160, Note_off_c, 0, 75, 64
2, 124160, Note_on_c, 0, 72, 85
2, 124288, Note_off_c, 0, 72, 64
2, 124288, Note_on_c, 0, 67, 85
2, 124416, Note_off_c, 0, 67, 64
2, 124416, Note_on_c, 0, 75, 85
2, 124544, Note_off_c, 0, 75, 64
2, 124544, Note_on_c, 0, 72, 85
2, 124672, Note_off_c, 0, 72, 64
2, 124672, Note_on_c, 0, 68, 85
2, 124800, Note_off_c, 0, 68, 64
2, 124800, Note_on_c, 0, 75, 85
2, 124928, Note_off_c, 0, 75, 64
2, 124928, Note_on_c, 0, 72, 85
2, 125056, Note_off_c, 0, 72, 64
2, 125056, Note_on_c, 0, 67, 85
2, 125184, Note_off_c, 0, 67, 64
2, 125184, Note_on_c, 0, 75, 85
2, 125312, Note_off_c, 0, 75, 64
2, 125312, Note_on_c, 0, 72, 85
2, 125440, Note_off_c, 0, 72, 64
2, 125440, Note_on_c, 0, 66, 85
2, 125568, Note_off_c, 0, 66, 64
2, 125568, Note_on_c, 0, 75, 85
2, 125696, Note_off_c, 0, 75, 64
2, 125952, Note_on_c, 0, 80, 85
2, 126080, Note_off_c, 0, 80, 64
2, 126080, Note_on_c, 0, 75, 85
2, 126208, Note_off_c, 0, 75, 64
2, 126208, Note_on_c, 0, 72, 85
2, 126336, Note_off_c, 0, 72, 64
2, 126336, Note_on_c, 0, 80, 85
2, 126464, Note_off_c, 0, 80, 64
2, 126464, Note_on_c, 0, 73, 86
2, 126592, Note_off_c, 0, 73, 64
2, 126592, Note_on_c, 0, 72, 86
2, 126720, Note_off_c, 0, 72, 64
2, 126720, Note_on_c, 0, 79, 86
2, 126848, Note_off_c, 0, 79, 64
2, 126848, Note_on_c, 0, 73, 86
2, 126976, Note_off_c, 0, 73, 64
2, 126976, Note_on_c, 0, 70, 86
2, 127104, Note_off_c, 0, 70, 64
2, 127104, Note_on_c, 0, 79, 86
2, 127232, Note_off_c, 0, 79, 64
2, 127232, Note_on_c, 0, 72, 86
2, 127360, Note_off_c, 0, 72, 64
2, 127360, Note_on_c, 0, 70, 86
2, 127488, Note_off_c, 0, 70, 64
2, 127488, Note_on_c, 0, 77, 86
2, 127616, Note_off_c, 0, 77, 64
2, 127616, Note_on_c, 0, 72, 86
2, 127744, Note_off_c, 0, 72, 64
2, 127744, Note_on_c, 0, 68, 86
2, 127872, Note_off_c, 0, 68, 64
2, 127872, Note_on_c, 0, 77, 86
2, 128000, Note_off_c, 0, 77, 64
2, 128000, Note_on_c, 0, 74, 86
2, 128128, Note_off_c, 0, 74, 64
2, 128128, Note_on_c, 0, 67, 86
2, 128256, Note_off_c, 0, 67, 64
2, 128256, Note_on_c, 0, 75, 86
2, 128384, Note_off_c, 0, 75, 64
2, 128384, Note_on_c, 0, 72, 86
2, 128512, Note_off_c, 0, 72, 64
2, 128512, Note_on_c, 0, 67, 86
2, 128640, Note_off_c, 0, 67, 64
2, 128640, Note_on_c, 0, 74, 86
2, 128768, Note_off_c, 0, 74, 64
2, 128768, Note_on_c, 0, 71, 86
2, 128896, Note_off_c, 0, 71, 64
2, 128896, Note_on_c, 0, 65, 86
2, 129024, Note_off_c, 0, 65, 64
2, 129024, Note_on_c, 0, 72, 86
2, 129152, Note_off_c, 0, 72, 64
2, 129152, Note_on_c, 0, 67, 86
2, 129280, Note_off_c, 0, 67, 64
2, 129280, Note_on_c, 0, 63, 86
2, 129408, Note_off_c, 0, 63, 64
2, 129408, Note_on_c, 0, 71, 86
2, 129536, Note_off_c, 0, 71, 64
2, 129536, Note_on_c, 0, 68, 86
2, 129664, Note_off_c, 0, 68, 64
2, 129664, Note_on_c, 0, 62, 86
2, 129792, Note_off_c, 0, 62, 64
2, 129792, Note_on_c, 0, 72, 86
2, 129920, Note_off_c, 0, 72, 64
2, 129920, Note_on_c, 0, 69, 86
2, 130048, Note_off_c, 0, 69, 64
2, 130048, Note_on_c, 0, 63, 86
2, 130176, Note_off_c, 0, 63, 64
2, 130176, Note_on_c, 0, 67, 86
2, 130304, Note_off_c, 0, 67, 64
2, 130304, Note_on_c, 0, 63, 86
2, 130432, Note_off_c, 0, 63, 64
2, 130432, Note_on_c, 0, 60, 86
2, 130560, Note_off_c, 0, 60, 64
2, 130560, Note_on_c, 0, 67, 86
2, 130688, Note_off_c, 0, 67, 64
2, 130688, Note_on_c, 0, 63, 86
2, 130816, Note_off_c, 0, 63, 64
2, 130816, Note_on_c, 0, 60, 86
2, 130944, Note_off_c, 0, 60, 64
2, 130944, Note_on_c, 0, 67, 86
2, 131072, Note_off_c, 0, 67, 64
2, 131072, Note_on_c, 0, 62, 86
2, 131200, Note_off_c, 0, 62, 64
2, 131200, Note_on_c, 0, 59, 86
2, 131328, Note_off_c, 0, 59, 64
2, 131328, Note_on_c, 0, 67, 86
2, 131456, Note_off_c, 0, 67, 64
2, 131456, Note_on_c, 0, 62, 86
2, 131584, Note_off_c, 0, 62, 64
2, 131584, Note_on_c, 0, 59, 86
2, 131712, Note_off_c, 0, 59, 64
2, 131712, Note_on_c, 0, 60, 86
2, 131840, Note_off_c, 0, 60, 64
2, 131840, Note_on_c, 0, 63, 86
2, 131968, Note_off_c, 0, 63, 64
2, 131968, Note_on_c, 0, 67, 86
2, 132096, Note_off_c, 0, 67, 64
2, 132096, Note_on_c, 0, 72, 86
2, 132224, Note_off_c, 0, 72, 64
2, 132224, Note_on_c, 0, 67, 86
2, 132352, Note_off_c, 0, 67, 64
2, 132352, Note_on_c, 0, 63, 86
2, 132480, Note_off_c, 0, 63, 64
2, 132480, Note_on_c, 0, 72, 86
2, 132608, Note_off_c, 0, 72, 64
2, 132608, Note_on_c, 0, 68, 86
2, 132736, Note_off_c, 0, 68, 64
2, 132736, Note_on_c, 0, 61, 86
2, 132864, Note_off_c, 0, 61, 64
2, 132864, Note_on_c, 0, 70, 86
2, 132992, Note_off_c, 0, 70, 64
2, 132992, Note_on_c, 0, 67, 86
2, 133120, Note_off_c, 0, 67, 64
2, 133120, Note_on_c, 0, 61, 86
2, 133248, Note_off_c, 0, 61, 64
2, 133248, Note_on_c, 0, 70, 86
2, 133376, Note_off_c, 0, 70, 64
2, 133376, Note_on_c, 0, 67, 86
2, 133504, Note_off_c, 0, 67, 64
2, 133504, Note_on_c, 0, 60, 86
2, 133632, Note_off_c, 0, 60, 64
2, 133632, Note_on_c, 0, 68, 86
2, 133760, Note_off_c, 0, 68, 64
2, 133760, Note_on_c, 0, 65, 86
2, 133888, Note_off_c, 0, 65, 64
2, 133888, Note_on_c, 0, 60, 86
2, 134016, Note_off_c, 0, 60, 64
2, 134016, Note_on_c, 0, 67, 86
2, 134144, Note_off_c, 0, 67, 64
2, 134144, Note_on_c, 0, 65, 86
2, 134272, Note_off_c, 0, 65, 64
2, 134272, Note_on_c, 0, 62, 86
2, 134400, Note_off_c, 0, 62, 64
2, 134400, Note_on_c, 0, 67, 86
2, 134528, Note_off_c, 0, 67, 64
2, 134528, Note_on_c, 0, 63, 86
2, 134656, Note_off_c, 0, 63, 64
2, 134656, Note_on_c, 0, 60, 86
2, 134784, Note_off_c, 0, 60, 64
2, 134784, Note_on_c, 0, 65, 85
2, 134912, Note_off_c, 0, 65, 64
2, 134912, Note_on_c, 0, 59, 84
2, 135040, Note_off_c, 0, 59, 64
2, 135040, Note_on_c, 0, 55, 83
2, 135168, Note_off_c, 0, 55, 64
2, 135168, Note_on_c, 0, 63, 81
2, 135296, Note_off_c, 0, 63, 64
2, 135296, Note_on_c, 0, 60, 80
2, 135424, Note_off_c, 0, 60, 64
2, 135424, Note_on_c, 0, 55, 79
2, 135552, Note_off_c, 0, 55, 64
2, 135552, Note_on_c, 0, 62, 78
2, 135680, Note_off_c, 0, 62, 64
2, 135680, Note_on_c, 0, 56, 77
2, 135808, Note_off_c, 0, 56, 64
2, 135808, Note_on_c, 0, 53, 76
2, 135936, Note_off_c, 0, 53, 64
2, 135936, Note_on_c, 0, 60, 74
2, 136064, Note_off_c, 0, 60, 64
2, 136064, Note_on_c, 0, 57, 73
2, 136192, Note_off_c, 0, 57, 64
2, 136192, Note_on_c, 0, 51, 72
2, 136320, Note_off_c, 0, 51, 64
2, 136320, Note_on_c, 0, 60, 71
2, 136448, Note_off_c, 0, 60, 64
2, 136448, Note_on_c, 0, 55, 70
2, 136576, Note_off_c, 0, 55, 64
2, 136576, Note_on_c, 0, 51, 69
2, 136704, Note_off_c, 0, 51, 64
2, 136704, Note_on_c, 0, 60, 67
2, 136832, Note_off_c, 0, 60, 64
2, 136832, Note_on_c, 0, 55, 66
2, 136960, Note_off_c, 0, 55, 64
2, 136960, Note_on_c, 0, 51, 65
2, 137088, Note_off_c, 0, 51, 64
2, 137088, Note_on_c, 0, 59, 64
2, 137216, Note_off_c, 0, 59, 64
2, 137216, Note_on_c, 0, 55, 63
2, 137344, Note_off_c, 0, 55, 64
2, 137344, Note_on_c, 0, 50, 62
2, 137472, Note_off_c, 0, 50, 64
2, 137472, Note_on_c, 0, 59, 60
2, 137600, Note_off_c, 0, 59, 64
2, 137600, Note_on_c, 0, 55, 59
2, 137728, Note_off_c, 0, 55, 64
2, 137728, Note_on_c, 0, 50, 58
2, 137856, Note_off_c, 0, 50, 64
2, 137856, Note_on_c, 0, 60, 57
2, 137984, Note_off_c, 0, 60, 64
2, 138624, Note_on_c, 0, 63, 50
2, 138624, Note_on_c, 0, 75, 50
2, 139008, Note_off_c, 0, 75, 64
2, 139008, Note_off_c, 0, 63, 64
2, 139008, Note_on_c, 0, 63, 55
2, 139008, Note_on_c, 0, 75, 55
2, 139392, Note_off_c, 0, 75, 64
2, 139392, Note_off_c, 0, 63, 64
2, 139392, Note_on_c, 0, 62, 60
2, 139392, Note_on_c, 0, 74, 60
2, 139776, Note_off_c, 0, 74, 64
2, 139776, Note_off_c, 0, 62, 64
2, 139776, Note_on_c, 0, 60, 55
2, 139776, Note_on_c, 0, 72, 57
2, 140160, Note_off_c, 0, 72, 64
2, 140160, Note_off_c, 0, 60, 64
2, 140160, Note_on_c, 0, 58, 55
2, 140160, Note_on_c, 0, 70, 56
2, 140544, Note_off_c, 0, 70, 64
2, 140544, Note_off_c, 0, 58, 64
2, 140544, Note_on_c, 0, 56, 56
2, 140544, Note_on_c, 0, 68, 57
2, 140928, Note_off_c, 0, 68, 64
2, 140928, Note_off_c, 0, 56, 64
2, 140928, Note_on_c, 0, 55, 57
2, 140928, Note_on_c, 0, 67, 56
2, 141696, Note_off_c, 0, 67, 64
2, 141696, Note_off_c, 0, 55, 64
2, 141696, Note_on_c, 0, 72, 53
2, 141696, Note_on_c, 0, 84, 53
2, 142080, Note_off_c, 0, 84, 64
2, 142080, Note_off_c, 0, 72, 64
2, 142080, Note_on_c, 0, 72, 56
2, 142080, Note_on_c, 0, 84, 56
2, 142464, Note_off_c, 0, 84, 64
2, 142464, Note_off_c, 0, 72, 64
2, 142464, Note_on_c, 0, 70, 60
2, 142464, Note_on_c, 0, 82, 60
2, 142848, Note_off_c, 0, 82, 64
2, 142848, Note_off_c, 0, 70, 64
2, 142848, Note_on_c, 0, 68, 55
2, 142848, Note_on_c, 0, 80, 56
2, 143232, Note_off_c, 0, 80, 64
2, 143232, Note_off_c, 0, 68, 64
2, 143232, Note_on_c, 0, 67, 57
2, 143232, Note_on_c, 0, 79, 56
2, 143616, Note_off_c, 0, 79, 64
2, 143616, Note_off_c, 0, 67, 64
2, 143616, Note_on_c, 0, 65, 57
2, 143616, Note_on_c, 0, 77, 55
2, 144000, Note_off_c, 0, 77, 64
2, 144000, Note_off_c, 0, 65, 64
2, 144000, Note_on_c, 0, 63, 55
2, 144000, Note_on_c, 0, 75, 57
2, 144768, Note_off_c, 0, 75, 64
2, 144768, Note_off_c, 0, 63, 64
2, 144768, Note_on_c, 0, 67, 52
2, 144768, Note_on_c, 0, 79, 52
2, 145152, Note_off_c, 0, 79, 64
2, 145152, Note_off_c, 0, 67, 64
2, 145152, Note_on_c, 0, 67, 56
2, 145152, Note_on_c, 0, 79, 56
2, 145536, Note_off_c, 0, 79, 64
2, 145536, Note_off_c, 0, 67, 64
2, 145536, Note_on_c, 0, 65, 60
2, 145536, Note_on_c, 0, 77, 60
2, 145920, Note_off_c, 0, 77, 64
2, 145920, Note_off_c, 0, 65, 64
2, 145920, Note_on_c, 0, 63, 59
2, 145920, Note_on_c, 0, 75, 59
2, 146304, Note_off_c, 0, 75, 64
2, 146304, Note_off_c, 0, 63, 64
2, 146304, Note_on_c, 0, 62, 55
2, 146304, Note_on_c, 0, 74, 57
2, 146688, Note_off_c, 0, 74, 64
2, 146688, Note_off_c, 0, 62, 64
2, 146688, Note_on_c, 0, 60, 56
2, 146688, Note_on_c, 0, 72, 55
2, 147072, Note_off_c, 0, 72, 64
2, 147072, Note_off_c, 0, 60, 64
2, 147072, Note_on_c, 0, 55, 57
2, 147072, Note_on_c, 0, 67, 55
2, 147840, Note_off_c, 0, 67, 64
2, 147840, Note_off_c, 0, 55, 64
2, 147840, Note_on_c, 0, 55, 51
2, 147840, Note_on_c, 0, 67, 51
2, 148032, Note_off_c, 0, 67, 64
2, 148032, Note_off_c, 0, 55, 64
2, 148224, Note_on_c, 0, 55, 55
2, 148224, Note_on_c, 0, 67, 55
2, 148416, Note_off_c, 0, 67, 64
2, 148416, Note_off_c, 0, 55, 64
2, 148608, Note_on_c, 0, 55, 60
2, 148608, Note_on_c, 0, 67, 60
2, 149376, Note_off_c, 0, 67, 64
2, 149376, Note_off_c, 0, 55, 64
2, 149376, Note_on_c, 0, 55, 50
2, 149376, Note_on_c, 0, 67, 50
2, 149568, Note_off_c, 0, 67, 64
2, 149568, Note_off_c, 0, 55, 64
2, 149760, Note_on_c, 0, 55, 55
2, 149760, Note_on_c, 0, 67, 55
2, 149952, Note_off_c, 0, 67, 64
2, 149952, Note_off_c, 0, 55, 64
2, 150144, Note_on_c, 0, 60, 60
2, 150528, Note_off_c, 0, 60, 64
2, 150912, Note_on_c, 0, 63, 51
2, 150912, Note_on_c, 0, 75, 51
2, 151296, Note_off_c, 0, 75, 64
2, 151296, Note_off_c, 0, 63, 64
2, 151296, Note_on_c, 0, 63, 55
2, 151296, Note_on_c, 0, 75, 55
2, 151680, Note_off_c, 0, 75, 64
2, 151680, Note_off_c, 0, 63, 64
2, 151680, Note_on_c, 0, 62, 60
2, 151680, Note_on_c, 0, 74, 60
2, 152064, Note_off_c, 0, 74, 64
2, 152064, Note_off_c, 0, 62, 64
2, 152064, Note_on_c, 0, 60, 55
2, 152064, Note_on_c, 0, 72, 59
2, 152448, Note_off_c, 0, 72, 64
2, 152448, Note_off_c, 0, 60, 64
2, 152448, Note_on_c, 0, 58, 59
2, 152448, Note_on_c, 0, 70, 57
2, 152832, Note_off_c, 0, 70, 64
2, 152832, Note_off_c, 0, 58, 64
2, 152832, Note_on_c, 0, 56, 57
2, 152832, Note_on_c, 0, 68, 56
2, 153216, Note_off_c, 0, 68, 64
2, 153216, Note_off_c, 0, 56, 64
2, 153216, Note_on_c, 0, 55, 57
2, 153216, Note_on_c, 0, 67, 57
2, 153984, Note_off_c, 0, 67, 64
2, 153984, Note_off_c, 0, 55, 64
2, 153984, Note_on_c, 0, 72, 51
2, 153984, Note_on_c, 0, 84, 51
2, 154368, Note_off_c, 0, 84, 64
2, 154368, Note_off_c, 0, 72, 64
2, 154368, Note_on_c, 0, 72, 55
2, 154368, Note_on_c, 0, 84, 55
2, 154752, Note_off_c, 0, 84, 64
2, 154752, Note_off_c, 0, 72, 64
2, 154752, Note_on_c, 0, 70, 60
2, 154752, Note_on_c, 0, 82, 60
2, 155136, Note_off_c, 0, 82, 64
2, 155136, Note_off_c, 0, 70, 64
2, 155136, Note_on_c, 0, 68, 59
2, 155136, Note_on_c, 0, 80, 56
2, 155520, Note_off_c, 0, 80, 64
2, 155520, Note_off_c, 0, 68, 64
2, 155520, Note_on_c, 0, 67, 56
2, 155520, Note_on_c, 0, 79, 56
2, 155904, Note_off_c, 0, 79, 64
2, 155904, Note_off_c, 0, 67, 64
2, 155904, Note_on_c, 0, 65, 57
2, 155904, Note_on_c, 0, 77, 56
2, 156288, Note_off_c, 0, 77, 64
2, 156288, Note_off_c, 0, 65, 64
2, 156288, Note_on_c, 0, 63, 58
2, 156288, Note_on_c, 0, 75, 58
2, 157056, Note_off_c, 0, 75, 64
2, 157056, Note_off_c, 0, 63, 64
2, 157056, Note_on_c, 0, 67, 50
2, 157056, Note_on_c, 0, 79, 50
2, 157440, Note_off_c, 0, 79, 64
2, 157440, Note_off_c, 0, 67, 64
2, 157440, Note_on_c, 0, 67, 55
2, 157440, Note_on_c, 0, 79, 55
2, 157824, Note_off_c, 0, 79, 64
2, 157824, Note_off_c, 0, 67, 64
2, 157824, Note_on_c, 0, 65, 60
2, 157824, Note_on_c, 0, 77, 60
2, 158208, Note_off_c, 0, 77, 64
2, 158208, Note_off_c, 0, 65, 64
2, 158208, Note_on_c, 0, 63, 57
2, 158208, Note_on_c, 0, 75, 55
2, 158592, Note_off_c, 0, 75, 64
2, 158592, Note_off_c, 0, 63, 64
2, 158592, Note_on_c, 0, 62, 55
2, 158592, Note_on_c, 0, 74, 56
2, 158976, Note_off_c, 0, 74, 64
2, 158976, Note_off_c, 0, 62, 64
2, 158976, Note_on_c, 0, 60, 57
2, 158976, Note_on_c, 0, 72, 58
2, 159360, Note_off_c, 0, 72, 64
2, 159360, Note_off_c, 0, 60, 64
2, 159360, Note_on_c, 0, 55, 61
2, 159360, Note_on_c, 0, 67, 61
2, 160128, Note_off_c, 0, 67, 64
2, 160128, Note_off_c, 0, 55, 64
2, 160128, Note_on_c, 0, 55, 70
2, 160128, Note_on_c, 0, 67, 70
2, 160320, Note_off_c, 0, 67, 64
2, 160320, Note_off_c, 0, 55, 64
2, 160512, Note_on_c, 0, 55, 72
2, 160512, Note_on_c, 0, 67, 72
2, 160704, Note_off_c, 0, 67, 64
2, 160704, Note_off_c, 0, 55, 64
2, 160896, Note_on_c, 0, 55, 73
2, 160896, Note_on_c, 0, 67, 73
2, 161664, Note_off_c, 0, 67, 64
2, 161664, Note_off_c, 0, 55, 64
2, 161664, Note_on_c, 0, 55, 76
2, 161664, Note_on_c, 0, 67, 76
2, 161856, Note_off_c, 0, 67, 64
2, 161856, Note_off_c, 0, 55, 64
2, 162048, Note_on_c, 0, 55, 78
2, 162048, Note_on_c, 0, 67, 78
2, 162240, Note_off_c, 0, 67, 64
2, 162240, Note_off_c, 0, 55, 64
2, 162432, Note_on_c, 0, 60, 80
2, 162816, Note_off_c, 0, 60, 64
2, 163200, Note_on_c, 0, 72, 88
2, 163200, Note_on_c, 0, 75, 88
2, 163200, Note_on_c, 0, 79, 88
2, 163200, Note_on_c, 0, 84, 88
2, 163392, Note_off_c, 0, 84, 64
2, 163392, Note_off_c, 0, 79, 64
2, 163392, Note_off_c, 0, 75, 64
2, 163392, Note_off_c, 0, 72, 64
2, 163584, Note_on_c, 0, 71, 88
2, 163584, Note_on_c, 0, 74, 88
2, 163584, Note_on_c, 0, 77, 88
2, 163584, Note_on_c, 0, 80, 88
2, 163584, Note_on_c, 0, 83, 88
2, 163776, Note_off_c, 0, 83, 64
2, 163776, Note_off_c, 0, 80, 64
2, 163776, Note_off_c, 0, 77, 64
2, 163776, Note_off_c, 0, 74, 64
2, 163776, Note_off_c, 0, 71, 64
2, 163968, Note_on_c, 0, 72, 88
2, 163968, Note_on_c, 0, 75, 88
2, 163968, Note_on_c, 0, 79, 88
2, 163968, Note_on_c, 0, 84, 88
2, 164160, Note_off_c, 0, 84, 64
2, 164160, Note_off_c, 0, 79, 64
2, 164160, Note_off_c, 0, 75, 64
2, 164160, Note_off_c, 0, 72, 64
2, 164736, Note_on_c, 0, 67, 88
2, 164736, Note_on_c, 0, 72, 88
2, 164736, Note_on_c, 0, 75, 88
2, 164736, Note_on_c, 0, 79, 88
2, 164928, Note_off_c, 0, 79, 64
2, 164928, Note_off_c, 0, 75, 64
2, 164928, Note_off_c, 0, 72, 64
2, 164928, Note_off_c, 0, 67, 64
2, 165120, Note_on_c, 0, 67, 89
2, 165120, Note_on_c, 0, 71, 89
2, 165120, Note_on_c, 0, 74, 89
2, 165120, Note_on_c, 0, 79, 89
2, 165312, Note_off_c, 0, 79, 64
2, 165312, Note_off_c, 0, 74, 64
2, 165312, Note_off_c, 0, 71, 64
2, 165312, Note_off_c, 0, 67, 64
2, 165504, Note_on_c, 0, 67, 89
2, 165504, Note_on_c, 0, 72, 89
2, 165504, Note_on_c, 0, 75, 89
2, 165504, Note_on_c, 0, 79, 89
2, 165696, Note_off_c, 0, 79, 64
2, 165696, Note_off_c, 0, 75, 64
2, 165696, Note_off_c, 0, 72, 64
2, 165696, Note_off_c, 0, 67, 64
2, 166272, Note_on_c, 0, 72, 89
2, 166272, Note_on_c, 0, 75, 89
2, 166272, Note_on_c, 0, 79, 89
2, 166272, Note_on_c, 0, 84, 89
2, 166464, Note_off_c, 0, 84, 64
2, 166464, Note_off_c, 0, 79, 64
2, 166464, Note_off_c, 0, 75, 64
2, 166464, Note_off_c, 0, 72, 64
2, 166656, Note_on_c, 0, 71, 89
2, 166656, Note_on_c, 0, 74, 89
2, 166656, Note_on_c, 0, 77, 89
2, 166656, Note_on_c, 0, 80, 89
2, 166656, Note_on_c, 0, 83, 89
2, 166848, Note_off_c, 0, 83, 64
2, 166848, Note_off_c, 0, 80, 64
2, 166848, Note_off_c, 0, 77, 64
2, 166848, Note_off_c, 0, 74, 64
2, 166848, Note_off_c, 0, 71, 64
2, 167040, Note_on_c, 0, 72, 89
2, 167040, Note_on_c, 0, 75, 89
2, 167040, Note_on_c, 0, 79, 89
2, 167040, Note_on_c, 0, 84, 89
2, 167232, Note_off_c, 0, 84, 64
2, 167232, Note_off_c, 0, 79, 64
2, 167232, Note_off_c, 0, 75, 64
2, 167232, Note_off_c, 0, 72, 64
2, 167808, Note_on_c, 0, 67, 87
2, 167808, Note_on_c, 0, 72, 87
2, 167808, Note_on_c, 0, 75, 87
2, 167808, Note_on_c, 0, 79, 87
2, 168000, Note_off_c, 0, 79, 64
2, 168000, Note_off_c, 0, 75, 64
2, 168000, Note_off_c, 0, 72, 64
2, 168000, Note_off_c, 0, 67, 64
2, 168192, Note_on_c, 0, 67, 86
2, 168192, Note_on_c, 0, 71, 86
2, 168192, Note_on_c, 0, 74, 86
2, 168192, Note_on_c, 0, 79, 86
2, 168384, Note_off_c, 0, 79, 64
2, 168384, Note_off_c, 0, 74, 64
2, 168384, Note_off_c, 0, 71, 64
2, 168384, Note_off_c, 0, 67, 64
2, 168576, Note_on_c, 0, 67, 85
2, 168576, Note_on_c, 0, 72, 85
2, 168576, Note_on_c, 0, 75, 85
2, 168576, Note_on_c, 0, 79, 85
2, 168768, Note_off_c, 0, 79, 64
2, 168768, Note_off_c, 0, 75, 64
2, 168768, Note_off_c, 0, 72, 64
2, 168768, Note_off_c, 0, 67, 64
2, 169344, Note_on_c, 0, 67, 83
2, 169344, Note_on_c, 0, 72, 83
2, 169344, Note_on_c, 0, 75, 83
2, 169344, Note_on_c, 0, 79, 83
2, 169536, Note_off_c, 0, 79, 64
2, 169536, Note_off_c, 0, 75, 64
2, 169536, Note_off_c, 0, 72, 64
2, 169536, Note_off_c, 0, 67, 64
2, 169728, Note_on_c, 0, 67, 82
2, 169728, Note_on_c, 0, 71, 82
2, 169728, Note_on_c, 0, 74, 82
2, 169728, Note_on_c, 0, 79, 82
2, 169920, Note_off_c, 0, 79, 64
2, 169920, Note_off_c, 0, 74, 64
2, 169920, Note_off_c, 0, 71, 64
2, 169920, Note_off_c, 0, 67, 64
2, 170112, Note_on_c, 0, 67, 81
2, 170112, Note_on_c, 0, 72, 81
2, 170112, Note_on_c, 0, 75, 81
2, 170112, Note_on_c, 0, 79, 81
2, 170304, Note_off_c, 0, 79, 64
2, 170304, Note_off_c, 0, 75, 64
2, 170304, Note_off_c, 0, 72, 64
2, 170304, Note_off_c, 0, 67, 64
2, 170880, Note_on_c, 0, 67, 79
2, 170880, Note_on_c, 0, 72, 79
2, 170880, Note_on_c, 0, 75, 79
2, 171072, Note_off_c, 0, 75, 64
2, 171072, Note_off_c, 0, 72, 64
2, 171072, Note_off_c, 0, 67, 64
2, 171648, Note_on_c, 0, 63, 72
2, 171648, Note_on_c, 0, 67, 72
2, 171648, Note_on_c, 0, 72, 72
2, 172032, Note_off_c, 0, 72, 64
2, 172032, Note_off_c, 0, 67, 64
2, 172032, Note_off_c, 0, 63, 64
2, 173184, Note_on_c, 0, 61, 79
2, 173184, Note_on_c, 0, 63, 79
2, 173184, Note_on_c, 0, 67, 79
2, 173184, Note_on_c, 0, 73, 79
2, 173568, Note_off_c, 0, 73, 64
2, 173568, Note_off_c, 0, 67, 64
2, 173568, Note_off_c, 0, 63, 64
2, 173568, Note_off_c, 0, 61, 64
2, 173952, Note_on_c, 0, 61, 77
2, 173952, Note_on_c, 0, 63, 77
2, 173952, Note_on_c, 0, 67, 77
2, 173952, Note_on_c, 0, 70, 77
2, 174336, Note_off_c, 0, 70, 64
2, 174336, Note_off_c, 0, 67, 64
2, 174336, Note_off_c, 0, 63, 64
2, 174336, Note_off_c, 0, 61, 64
2, 174720, Note_on_c, 0, 61, 76
2, 174720, Note_on_c, 0, 63, 76
2, 174720, Note_on_c, 0, 67, 76
2, 175104, Note_off_c, 0, 67, 64
2, 175104, Note_off_c, 0, 63, 64
2, 175104, Note_off_c, 0, 61, 64
2, 176256, Note_on_c, 0, 63, 52
2, 177792, Note_off_c, 0, 63, 64
2, 177792, Note_on_c, 0, 68, 52
2, 178560, Note_off_c, 0, 68, 64
2, 178560, Note_on_c, 0, 72, 52
2, 179328, Note_off_c, 0, 72, 64
2, 179328, Note_on_c, 0, 75, 52
2, 180480, Note_off_c, 0, 75, 64
2, 180480, Note_on_c, 0, 75, 52
2, 180864, Note_off_c, 0, 75, 64
2, 180864, Note_on_c, 0, 74, 52
2, 181248, Note_off_c, 0, 74, 64
2, 181248, Note_on_c, 0, 75, 52
2, 181632, Note_off_c, 0, 75, 64
2, 181632, Note_on_c, 0, 77, 52
2, 182016, Note_off_c, 0, 77, 64
2, 182016, Note_on_c, 0, 75, 52
2, 182304, Note_off_c, 0, 75, 64
2, 182400, Note_on_c, 0, 75, 52
2, 182784, Note_off_c, 0, 75, 64
2, 182784, Note_on_c, 0, 73, 52
2, 183168, Note_off_c, 0, 73, 64
2, 183552, Note_on_c, 0, 73, 52
2, 183840, Note_off_c, 0, 73, 64
2, 183936, Note_on_c, 0, 73, 52
2, 184320, Note_off_c, 0, 73, 64
2, 184320, Note_on_c, 0, 72, 52
2, 184704, Note_off_c, 0, 72, 64
2, 185088, Note_on_c, 0, 72, 52
2, 185376, Note_off_c, 0, 72, 64
2, 185472, Note_on_c, 0, 72, 52
2, 185664, Note_off_c, 0, 72, 64
2, 185664, Note_on_c, 0, 70, 52
2, 185856, Note_off_c, 0, 70, 64
2, 185856, Note_on_c, 0, 73, 52
2, 186048, Note_off_c, 0, 73, 64
2, 186048, Note_on_c, 0, 72, 52
2, 186240, Note_off_c, 0, 72, 64
2, 186240, Note_on_c, 0, 75, 52
2, 186432, Note_off_c, 0, 75, 64
2, 186432, Note_on_c, 0, 73, 52
2, 186624, Note_off_c, 0, 73, 64
2, 186624, Note_on_c, 0, 72, 52
2, 186816, Note_off_c, 0, 72, 64
2, 186816, Note_on_c, 0, 70, 52
2, 187008, Note_off_c, 0, 70, 64
2, 187008, Note_on_c, 0, 68, 52
2, 187392, Note_off_c, 0, 68, 64
2, 187392, Note_on_c, 0, 70, 32
2, 187488, Note_off_c, 0, 70, 64
2, 187488, Note_on_c, 0, 68, 37
2, 187584, Note_off_c, 0, 68, 64
2, 187584, Note_on_c, 0, 67, 42
2, 187680, Note_off_c, 0, 67, 64
2, 187680, Note_on_c, 0, 68, 47
2, 187776, Note_off_c, 0, 68, 64
2, 187776, Note_on_c, 0, 72, 52
2, 188160, Note_off_c, 0, 72, 64
2, 188160, Note_on_c, 0, 70, 52
2, 188448, Note_off_c, 0, 70, 64
2, 188544, Note_on_c, 0, 70, 52
2, 189696, Note_off_c, 0, 70, 64
2, 189696, Note_on_c, 0, 72, 52
2, 190080, Note_off_c, 0, 72, 64
2, 190080, Note_on_c, 0, 68, 52
2, 190464, Note_off_c, 0, 68, 64
2, 191616, Note_on_c, 0, 75, 52
2, 192768, Note_off_c, 0, 75, 64
2, 192768, Note_on_c, 0, 75, 52
2, 193152, Note_off_c, 0, 75, 64
2, 193152, Note_on_c, 0, 79, 52
2, 193536, Note_off_c, 0, 79, 64
2, 193536, Note_on_c, 0, 80, 52
2, 193920, Note_off_c, 0, 80, 64
2, 193920, Note_on_c, 0, 83, 52
2, 194304, Note_off_c, 0, 83, 64
2, 194304, Note_on_c, 0, 84, 52
2, 194688, Note_off_c, 0, 84, 64
2, 194688, Note_on_c, 0, 86, 52
2, 195072, Note_off_c, 0, 86, 64
2, 195072, Note_on_c, 0, 87, 52
2, 195456, Note_off_c, 0, 87, 64
2, 195840, Note_on_c, 0, 87, 52
2, 196224, Note_off_c, 0, 87, 64
2, 196224, Note_on_c, 0, 86, 52
2, 196608, Note_off_c, 0, 86, 64
2, 196608, Note_on_c, 0, 87, 52
2, 196992, Note_off_c, 0, 87, 64
2, 196992, Note_on_c, 0, 89, 52
2, 197376, Note_off_c, 0, 89, 64
2, 197376, Note_on_c, 0, 87, 52
2, 197760, Note_off_c, 0, 87, 64
2, 197760, Note_on_c, 0, 87, 52
2, 198144, Note_off_c, 0, 87, 64
2, 198144, Note_on_c, 0, 85, 52
2, 198528, Note_off_c, 0, 85, 64
2, 198912, Note_on_c, 0, 85, 52
2, 199296, Note_off_c, 0, 85, 64
2, 199296, Note_on_c, 0, 85, 52
2, 199680, Note_off_c, 0, 85, 64
2, 199680, Note_on_c, 0, 84, 52
2, 200064, Note_off_c, 0, 84, 64
2, 200448, Note_on_c, 0, 84, 52
2, 200736, Note_off_c, 0, 84, 64
2, 200832, Note_on_c, 0, 84, 52
2, 201024, Note_off_c, 0, 84, 64
2, 201024, Note_on_c, 0, 82, 52
2, 201216, Note_off_c, 0, 82, 64
2, 201216, Note_on_c, 0, 85, 52
2, 201408, Note_off_c, 0, 85, 64
2, 201408, Note_on_c, 0, 84, 52
2, 201600, Note_off_c, 0, 84, 64
2, 201600, Note_on_c, 0, 87, 52
2, 201792, Note_off_c, 0, 87, 64
2, 201792, Note_on_c, 0, 85, 52
2, 201984, Note_off_c, 0, 85, 64
2, 201984, Note_on_c, 0, 84, 52
2, 202176, Note_off_c, 0, 84, 64
2, 202176, Note_on_c, 0, 82, 52
2, 202368, Note_off_c, 0, 82, 64
2, 202368, Note_on_c, 0, 80, 52
2, 202752, Note_off_c, 0, 80, 64
2, 202752, Note_on_c, 0, 82, 33
2, 202848, Note_off_c, 0, 82, 64
2, 202848, Note_on_c, 0, 80, 38
2, 202944, Note_off_c, 0, 80, 64
2, 202944, Note_on_c, 0, 79, 44
2, 203040, Note_off_c, 0, 79, 64
2, 203040, Note_on_c, 0, 80, 49
2, 203136, Note_off_c, 0, 80, 64
2, 203136, Note_on_c, 0, 84, 54
2, 203520, Note_off_c, 0, 84, 64
2, 203520, Note_on_c, 0, 82, 52
2, 203808, Note_off_c, 0, 82, 64
2, 203904, Note_on_c, 0, 73, 52
2, 203904, Note_on_c, 0, 82, 52
2, 205056, Note_off_c, 0, 82, 64
2, 205056, Note_on_c, 0, 84, 52
2, 205440, Note_off_c, 0, 84, 64
2, 205440, Note_off_c, 0, 73, 64
2, 205440, Note_on_c, 0, 72, 52
2, 205440, Note_on_c, 0, 80, 52
2, 205824, Note_off_c, 0, 80, 64
2, 205824, Note_off_c, 0, 72, 64
2, 206592, Note_on_c, 0, 75, 52
2, 206880, Note_off_c, 0, 75, 64
2, 206976, Note_on_c, 0, 75, 52
2, 207360, Note_off_c, 0, 75, 64
2, 207360, Note_on_c, 0, 77, 52
2, 207744, Note_off_c, 0, 77, 64
2, 207744, Note_on_c, 0, 79, 52
2, 208128, Note_off_c, 0, 79, 64
2, 208128, Note_on_c, 0, 80, 52
2, 208512, Note_off_c, 0, 80, 64
2, 208512, Note_on_c, 0, 82, 52
2, 208896, Note_off_c, 0, 82, 64
2, 208896, Note_on_c, 0, 79, 52
2, 209280, Note_off_c, 0, 79, 64
2, 209280, Note_on_c, 0, 75, 52
2, 209664, Note_off_c, 0, 75, 64
2, 209664, Note_on_c, 0, 73, 52
2, 210048, Note_off_c, 0, 73, 64
2, 210048, Note_on_c, 0, 75, 52
2, 211200, Note_off_c, 0, 75, 64
2, 211200, Note_on_c, 0, 73, 29
2, 211276, Note_off_c, 0, 73, 64
2, 211276, Note_on_c, 0, 75, 34
2, 211354, Note_off_c, 0, 75, 64
2, 211354, Note_on_c, 0, 73, 40
2, 211430, Note_off_c, 0, 73, 64
2, 211430, Note_on_c, 0, 75, 45
2, 211508, Note_off_c, 0, 75, 64
2, 211508, Note_on_c, 0, 73, 50
2, 211584, Note_off_c, 0, 73, 64
2, 211584, Note_on_c, 0, 72, 55
2, 211968, Note_off_c, 0, 72, 64
2, 212736, Note_on_c, 0, 75, 52
2, 213024, Note_off_c, 0, 75, 64
2, 213120, Note_on_c, 0, 75, 52
2, 213312, Note_off_c, 0, 75, 64
2, 213312, Note_on_c, 0, 77, 52
2, 213504, Note_off_c, 0, 77, 64
2, 213504, Note_on_c, 0, 75, 50
2, 213696, Note_off_c, 0, 75, 64
2, 213696, Note_on_c, 0, 74, 50
2, 213888, Note_off_c, 0, 74, 64
2, 213888, Note_on_c, 0, 75, 50
2, 214080, Note_off_c, 0, 75, 64
2, 214080, Note_on_c, 0, 77, 50
2, 214272, Note_off_c, 0, 77, 64
2, 214272, Note_on_c, 0, 79, 50
2, 214464, Note_off_c, 0, 79, 64
2, 214464, Note_on_c, 0, 80, 50
2, 214656, Note_off_c, 0, 80, 64
2, 214656, Note_on_c, 0, 81, 50
2, 214848, Note_off_c, 0, 81, 64
2, 214848, Note_on_c, 0, 82, 50
2, 215040, Note_off_c, 0, 82, 64
2, 215040, Note_on_c, 0, 84, 50
2, 215232, Note_off_c, 0, 84, 64
2, 215232, Note_on_c, 0, 82, 50
2, 215424, Note_off_c, 0, 82, 64
2, 215424, Note_on_c, 0, 80, 50
2, 215616, Note_off_c, 0, 80, 64
2, 215616, Note_on_c, 0, 79, 50
2, 215808, Note_off_c, 0, 79, 64
2, 215808, Note_on_c, 0, 77, 50
2, 216000, Note_off_c, 0, 77, 64
2, 216000, Note_on_c, 0, 75, 50
2, 216192, Note_off_c, 0, 75, 64
2, 216192, Note_on_c, 0, 75, 50
2, 216960, Note_off_c, 0, 75, 64
2, 216960, Note_on_c, 0, 73, 32
2, 217056, Note_off_c, 0, 73, 64
2, 217056, Note_on_c, 0, 75, 34
2, 217152, Note_off_c, 0, 75, 64
2, 217152, Note_on_c, 0, 73, 36
2, 217248, Note_off_c, 0, 73, 64
2, 217248, Note_on_c, 0, 75, 38
2, 217344, Note_off_c, 0, 75, 64
2, 217344, Note_on_c, 0, 73, 41
2, 217420, Note_off_c, 0, 73, 64
2, 217420, Note_on_c, 0, 75, 42
2, 217498, Note_off_c, 0, 75, 64
2, 217498, Note_on_c, 0, 73, 44
2, 217574, Note_off_c, 0, 73, 64
2, 217574, Note_on_c, 0, 75, 46
2, 217652, Note_off_c, 0, 75, 64
2, 217652, Note_on_c, 0, 73, 48
2, 217728, Note_off_c, 0, 73, 64
2, 217728, Note_on_c, 0, 72, 50
2, 218112, Note_off_c, 0, 72, 64
2, 219264, Note_on_c, 0, 63, 50
2, 219264, Note_on_c, 0, 75, 50
2, 220800, Note_off_c, 0, 75, 64
2, 220800, Note_off_c, 0, 63, 64
2, 220800, Note_on_c, 0, 68, 50
2, 220800, Note_on_c, 0, 80, 50
2, 221568, Note_off_c, 0, 80, 64
2, 221568, Note_off_c, 0, 68, 64
2, 221568, Note_on_c, 0, 72, 50
2, 221568, Note_on_c, 0, 84, 50
2, 222336, Note_off_c, 0, 84, 64
2, 222336, Note_off_c, 0, 72, 64
2, 222336, Note_on_c, 0, 75, 50
2, 222336, Note_on_c, 0, 87, 50
2, 222720, Note_off_c, 0, 87, 64
2, 222720, Note_off_c, 0, 75, 64
2, 222720, Note_on_c, 0, 73, 50
2, 222720, Note_on_c, 0, 85, 50
2, 223008, Note_off_c, 0, 85, 64
2, 223008, Note_off_c, 0, 73, 64
2, 223488, Note_on_c, 0, 73, 50
2, 223488, Note_on_c, 0, 85, 50
2, 223776, Note_off_c, 0, 85, 64
2, 223776, Note_off_c, 0, 73, 64
2, 223872, Note_on_c, 0, 73, 50
2, 223872, Note_on_c, 0, 85, 50
2, 224256, Note_off_c, 0, 85, 64
2, 224256, Note_off_c, 0, 73, 64
2, 224256, Note_on_c, 0, 72, 50
2, 224256, Note_on_c, 0, 84, 50
2, 224544, Note_off_c, 0, 84, 64
2, 224544, Note_off_c, 0, 72, 64
2, 225024, Note_on_c, 0, 72, 50
2, 225024, Note_on_c, 0, 84, 50
2, 225312, Note_off_c, 0, 84, 64
2, 225312, Note_off_c, 0, 72, 64
2, 225408, Note_on_c, 0, 72, 50
2, 225408, Note_on_c, 0, 84, 50
2, 225792, Note_off_c, 0, 84, 64
2, 225792, Note_off_c, 0, 72, 64
2, 225792, Note_on_c, 0, 70, 50
2, 225792, Note_on_c, 0, 82, 50
2, 226176, Note_off_c, 0, 82, 64
2, 226176, Note_off_c, 0, 70, 64
2, 226176, Note_on_c, 0, 77, 50
2, 226176, Note_on_c, 0, 89, 50
2, 226560, Note_off_c, 0, 89, 64
2, 226560, Note_off_c, 0, 77, 64
2, 226560, Note_on_c, 0, 75, 50
2, 226560, Note_on_c, 0, 87, 50
2, 226944, Note_off_c, 0, 87, 64
2, 226944, Note_off_c, 0, 75, 64
2, 226944, Note_on_c, 0, 75, 50
2, 226944, Note_on_c, 0, 87, 50
2, 227328, Note_off_c, 0, 87, 64
2, 227328, Note_off_c, 0, 75, 64
2, 227328, Note_on_c, 0, 73, 50
2, 227328, Note_on_c, 0, 85, 50
2, 227712, Note_off_c, 0, 85, 64
2, 227712, Note_off_c, 0, 73, 64
2, 227712, Note_on_c, 0, 72, 50
2, 227712, Note_on_c, 0, 84, 50
2, 228096, Note_off_c, 0, 84, 64
2, 228096, Note_off_c, 0, 72, 64
2, 228096, Note_on_c, 0, 70, 50
2, 228096, Note_on_c, 0, 82, 50
2, 228480, Note_off_c, 0, 82, 64
2, 228480, Note_off_c, 0, 70, 64
2, 228480, Note_on_c, 0, 70, 50
2, 228480, Note_on_c, 0, 82, 50
2, 229632, Note_off_c, 0, 82, 64
2, 229632, Note_off_c, 0, 70, 64
2, 229632, Note_on_c, 0, 72, 50
2, 229632, Note_on_c, 0, 84, 50
2, 230016, Note_off_c, 0, 84, 64
2, 230016, Note_off_c, 0, 72, 64
2, 230016, Note_on_c, 0, 68, 50
2, 230016, Note_on_c, 0, 80, 50
2, 230400, Note_off_c, 0, 80, 64
2, 230400, Note_off_c, 0, 68, 64
2, 231168, Note_on_c, 0, 75, 50
2, 231456, Note_off_c, 0, 75, 64
2, 231552, Note_on_c, 0, 75, 50
2, 231936, Note_off_c, 0, 75, 64
2, 231936, Note_on_c, 0, 77, 50
2, 232320, Note_off_c, 0, 77, 64
2, 232320, Note_on_c, 0, 79, 50
2, 232704, Note_off_c, 0, 79, 64
2, 232704, Note_on_c, 0, 80, 50
2, 233088, Note_off_c, 0, 80, 64
2, 233088, Note_on_c, 0, 82, 50
2, 233472, Note_off_c, 0, 82, 64
2, 233472, Note_on_c, 0, 79, 50
2, 233856, Note_off_c, 0, 79, 64
2, 233856, Note_on_c, 0, 75, 50
2, 234240, Note_off_c, 0, 75, 64
2, 234240, Note_on_c, 0, 73, 50
2, 234624, Note_off_c, 0, 73, 64
2, 234624, Note_on_c, 0, 75, 50
2, 235776, Note_off_c, 0, 75, 64
2, 235776, Note_on_c, 0, 73, 27
2, 235852, Note_off_c, 0, 73, 64
2, 235852, Note_on_c, 0, 75, 32
2, 235930, Note_off_c, 0, 75, 64
2, 235930, Note_on_c, 0, 73, 37
2, 236006, Note_off_c, 0, 73, 64
2, 236006, Note_on_c, 0, 75, 42
2, 236084, Note_off_c, 0, 75, 64
2, 236084, Note_on_c, 0, 73, 46
2, 236160, Note_off_c, 0, 73, 64
2, 236160, Note_on_c, 0, 72, 51
2, 236544, Note_off_c, 0, 72, 64
2, 237312, Note_on_c, 0, 75, 50
2, 237600, Note_off_c, 0, 75, 64
2, 237696, Note_on_c, 0, 75, 50
2, 237888, Note_off_c, 0, 75, 64
2, 237888, Note_on_c, 0, 77, 50
2, 238080, Note_off_c, 0, 77, 64
2, 238080, Note_on_c, 0, 75, 50
2, 238272, Note_off_c, 0, 75, 64
2, 238272, Note_on_c, 0, 74, 50
2, 238464, Note_off_c, 0, 74, 64
2, 238464, Note_on_c, 0, 75, 50
2, 238656, Note_off_c, 0, 75, 64
2, 238656, Note_on_c, 0, 77, 50
2, 238848, Note_off_c, 0, 77, 64
2, 238848, Note_on_c, 0, 79, 50
2, 239040, Note_off_c, 0, 79, 64
2, 239040, Note_on_c, 0, 80, 50
2, 239232, Note_off_c, 0, 80, 64
2, 239232, Note_on_c, 0, 82, 50
2, 239424, Note_off_c, 0, 82, 64
2, 239424, Note_on_c, 0, 83, 50
2, 239616, Note_off_c, 0, 83, 64
2, 239616, Note_on_c, 0, 84, 50
2, 239808, Note_off_c, 0, 84, 64
2, 239808, Note_on_c, 0, 85, 50
2, 240000, Note_off_c, 0, 85, 64
2, 240000, Note_on_c, 0, 86, 50
2, 240192, Note_off_c, 0, 86, 64
2, 240192, Note_on_c, 0, 87, 50
2, 240384, Note_off_c, 0, 87, 64
2, 240384, Note_on_c, 0, 89, 50
2, 240576, Note_off_c, 0, 89, 64
2, 240576, Note_on_c, 0, 87, 50
2, 240768, Note_off_c, 0, 87, 64
2, 240768, Note_on_c, 0, 87, 50
2, 241536, Note_off_c, 0, 87, 64
2, 241536, Note_on_c, 0, 85, 23
2, 241632, Note_off_c, 0, 85, 64
2, 241632, Note_on_c, 0, 87, 27
2, 241728, Note_off_c, 0, 87, 64
2, 241728, Note_on_c, 0, 85, 30
2, 241824, Note_off_c, 0, 85, 64
2, 241824, Note_on_c, 0, 87, 34
2, 241920, Note_off_c, 0, 87, 64
2, 241920, Note_on_c, 0, 85, 38
2, 241996, Note_off_c, 0, 85, 64
2, 241996, Note_on_c, 0, 87, 41
2, 242074, Note_off_c, 0, 87, 64
2, 242074, Note_on_c, 0, 85, 44
2, 242150, Note_off_c, 0, 85, 64
2, 242150, Note_on_c, 0, 87, 47
2, 242228, Note_off_c, 0, 87, 64
2, 242228, Note_on_c, 0, 85, 50
2, 242304, Note_off_c, 0, 85, 64
2, 242304, Note_on_c, 0, 84, 52
2, 242688, Note_off_c, 0, 84, 64
2, 243840, Note_on_c, 0, 63, 50
2, 243840, Note_on_c, 0, 75, 50
2, 245376, Note_off_c, 0, 75, 64
2, 245376, Note_off_c, 0, 63, 64
2, 245376, Note_on_c, 0, 68, 57
2, 245376, Note_on_c, 0, 80, 57
2, 246144, Note_off_c, 0, 80, 64
2, 246144, Note_off_c, 0, 68, 64
2, 246144, Note_on_c, 0, 72, 61
2, 246144, Note_on_c, 0, 84, 61
2, 246912, Note_off_c, 0, 84, 64
2, 246912, Note_off_c, 0, 72, 64
2, 246912, Note_on_c, 0, 75, 64
2, 246912, Note_on_c, 0, 87, 64
2, 247296, Note_off_c, 0, 87, 64
2, 247296, Note_off_c, 0, 75, 64
2, 247296, Note_on_c, 0, 73, 50
2, 247296, Note_on_c, 0, 85, 50
2, 247584, Note_off_c, 0, 85, 64
2, 247584, Note_off_c, 0, 73, 64
2, 248064, Note_on_c, 0, 73, 57
2, 248064, Note_on_c, 0, 85, 57
2, 248352, Note_off_c, 0, 85, 64
2, 248352, Note_off_c, 0, 73, 64
2, 248448, Note_on_c, 0, 73, 64
2, 248448, Note_on_c, 0, 85, 64
2, 248832, Note_off_c, 0, 85, 64
2, 248832, Note_off_c, 0, 73, 64
2, 248832, Note_on_c, 0, 72, 50
2, 248832, Note_on_c, 0, 84, 50
2, 249120, Note_off_c, 0, 84, 64
2, 249120, Note_off_c, 0, 72, 64
2, 249600, Note_on_c, 0, 72, 50
2, 249600, Note_on_c, 0, 84, 50
2, 249888, Note_off_c, 0, 84, 64
2, 249888, Note_off_c, 0, 72, 64
2, 249984, Note_on_c, 0, 72, 50
2, 249984, Note_on_c, 0, 84, 50
2, 250368, Note_off_c, 0, 84, 64
2, 250368, Note_off_c, 0, 72, 64
2, 250368, Note_on_c, 0, 70, 48
2, 250368, Note_on_c, 0, 82, 48
2, 250752, Note_off_c, 0, 82, 64
2, 250752, Note_off_c, 0, 70, 64
2, 250752, Note_on_c, 0, 77, 48
2, 250752, Note_on_c, 0, 89, 48
2, 251136, Note_off_c, 0, 89, 64
2, 251136, Note_off_c, 0, 77, 64
2, 251136, Note_on_c, 0, 75, 48
2, 251136, Note_on_c, 0, 87, 48
2, 251520, Note_off_c, 0, 87, 64
2, 251520, Note_off_c, 0, 75, 64
2, 251520, Note_on_c, 0, 75, 48
2, 251520, Note_on_c, 0, 87, 48
2, 251904, Note_off_c, 0, 87, 64
2, 251904, Note_off_c, 0, 75, 64
2, 251904, Note_on_c, 0, 73, 48
2, 251904, Note_on_c, 0, 85, 48
2, 252288, Note_off_c, 0, 85, 64
2, 252288, Note_off_c, 0, 73, 64
2, 252288, Note_on_c, 0, 72, 48
2, 252288, Note_on_c, 0, 84, 48
2, 252672, Note_off_c, 0, 84, 64
2, 252672, Note_off_c, 0, 72, 64
2, 252672, Note_on_c, 0, 70, 48
2, 252672, Note_on_c, 0, 82, 48
2, 253056, Note_off_c, 0, 82, 64
2, 253056, Note_off_c, 0, 70, 64
2, 253056, Note_on_c, 0, 68, 48
2, 253056, Note_on_c, 0, 80, 48
2, 253440, Note_off_c, 0, 80, 64
2, 253440, Note_off_c, 0, 68, 64
2, 253824, Note_on_c, 0, 60, 38
2, 253824, Note_on_c, 0, 72, 38
2, 254016, Note_off_c, 0, 72, 64
2, 254016, Note_off_c, 0, 60, 64
2, 254208, Note_on_c, 0, 59, 38
2, 254208, Note_on_c, 0, 71, 38
2, 254400, Note_off_c, 0, 71, 64
2, 254400, Note_off_c, 0, 59, 64
2, 254592, Note_on_c, 0, 60, 39
2, 254592, Note_on_c, 0, 72, 39
2, 254784, Note_off_c, 0, 72, 64
2, 254784, Note_off_c, 0, 60, 64
2, 255360, Note_on_c, 0, 60, 40
2, 255360, Note_on_c, 0, 72, 40
2, 255552, Note_off_c, 0, 72, 64
2, 255552, Note_off_c, 0, 60, 64
2, 255744, Note_on_c, 0, 59, 40
2, 255744, Note_on_c, 0, 71, 40
2, 255936, Note_off_c, 0, 71, 64
2, 255936, Note_off_c, 0, 59, 64
2, 256128, Note_on_c, 0, 72, 41
2, 257280, Note_off_c, 0, 72, 64
2, 257280, Note_on_c, 0, 73, 35
2, 257376, Note_off_c, 0, 73, 64
2, 257376, Note_on_c, 0, 72, 42
2, 257472, Note_off_c, 0, 72, 64
2, 257472, Note_on_c, 0, 71, 50
2, 257568, Note_off_c, 0, 71, 64
2, 257568, Note_on_c, 0, 72, 57
2, 257664, Note_off_c, 0, 72, 64
2, 257664, Note_on_c, 0, 84, 64
2, 258816, Note_off_c, 0, 84, 64
2, 258816, Note_on_c, 0, 72, 50
2, 259200, Note_off_c, 0, 72, 64
2, 259200, Note_on_c, 0, 70, 40
2, 259584, Note_off_c, 0, 70, 64
2, 259968, Note_on_c, 0, 58, 36
2, 259968, Note_on_c, 0, 70, 36
2, 260160, Note_off_c, 0, 70, 64
2, 260160, Note_off_c, 0, 58, 64
2, 260352, Note_on_c, 0, 57, 36
2, 260352, Note_on_c, 0, 69, 36
2, 260544, Note_off_c, 0, 69, 64
2, 260544, Note_off_c, 0, 57, 64
2, 260736, Note_on_c, 0, 58, 36
2, 260736, Note_on_c, 0, 70, 36
2, 260928, Note_off_c, 0, 70, 64
2, 260928, Note_off_c, 0, 58, 64
2, 261504, Note_on_c, 0, 58, 36
2, 261504, Note_on_c, 0, 70, 36
2, 261696, Note_off_c, 0, 70, 64
2, 261696, Note_off_c, 0, 58, 64
2, 261888, Note_on_c, 0, 57, 36
2, 261888, Note_on_c, 0, 69, 36
2, 262080, Note_off_c, 0, 69, 64
2, 262080, Note_off_c, 0, 57, 64
2, 262272, Note_on_c, 0, 70, 36
2, 263424, Note_off_c, 0, 70, 64
2, 263424, Note_on_c, 0, 72, 35
2, 263520, Note_off_c, 0, 72, 64
2, 263520, Note_on_c, 0, 70, 42
2, 263616, Note_off_c, 0, 70, 64
2, 263616, Note_on_c, 0, 69, 49
2, 263712, Note_off_c, 0, 69, 64
2, 263712, Note_on_c, 0, 70, 56
2, 263808, Note_off_c, 0, 70, 64
2, 263808, Note_on_c, 0, 82, 64
2, 264960, Note_off_c, 0, 82, 64
2, 264960, Note_on_c, 0, 70, 46
2, 265344, Note_off_c, 0, 70, 64
2, 265344, Note_on_c, 0, 68, 35
2, 265728, Note_off_c, 0, 68, 64
2, 266112, Note_on_c, 0, 56, 34
2, 266112, Note_on_c, 0, 68, 34
2, 266304, Note_off_c, 0, 68, 64
2, 266304, Note_off_c, 0, 56, 64
2, 266496, Note_on_c, 0, 55, 34
2, 266496, Note_on_c, 0, 67, 34
2, 266688, Note_off_c, 0, 67, 64
2, 266688, Note_off_c, 0, 55, 64
2, 266880, Note_on_c, 0, 56, 35
2, 266880, Note_on_c, 0, 68, 35
2, 267072, Note_off_c, 0, 68, 64
2, 267072, Note_off_c, 0, 56, 64
2, 267648, Note_on_c, 0, 56, 36
2, 267648, Note_on_c, 0, 68, 36
2, 267840, Note_off_c, 0, 68, 64
2, 267840, Note_off_c, 0, 56, 64
2, 268032, Note_on_c, 0, 55, 37
2, 268032, Note_on_c, 0, 67, 37
2, 268224, Note_off_c, 0, 67, 64
2, 268224, Note_off_c, 0, 55, 64
2, 268416, Note_on_c, 0, 68, 37
2, 269568, Note_off_c, 0, 68, 64
2, 269568, Note_on_c, 0, 70, 26
2, 269664, Note_off_c, 0, 70, 64
2, 269664, Note_on_c, 0, 68, 32
2, 269760, Note_off_c, 0, 68, 64
2, 269760, Note_on_c, 0, 67, 38
2, 269856, Note_off_c, 0, 67, 64
2, 269856, Note_on_c, 0, 68, 44
2, 269952, Note_off_c, 0, 68, 64
2, 269952, Note_on_c, 0, 80, 50
2, 271104, Note_off_c, 0, 80, 64
2, 271104, Note_on_c, 0, 68, 55
2, 271488, Note_off_c, 0, 68, 64
2, 271488, Note_on_c, 0, 80, 57
2, 272640, Note_off_c, 0, 80, 64
2, 272640, Note_on_c, 0, 68, 63
2, 273024, Note_off_c, 0, 68, 64
2, 273024, Note_on_c, 0, 80, 65
2, 274176, Note_off_c, 0, 80, 64
2, 274176, Note_on_c, 0, 68, 71
2, 274560, Note_off_c, 0, 68, 64
2, 274560, Note_on_c, 0, 80, 73
2, 275712, Note_off_c, 0, 80, 64
2, 275712, Note_on_c, 0, 68, 78
2, 276096, Note_off_c, 0, 68, 64
2, 276096, Note_on_c, 0, 81, 80
2, 277248, Note_off_c, 0, 81, 64
2, 277248, Note_on_c, 0, 69, 86
2, 277632, Note_off_c, 0, 69, 64
2, 277632, Note_on_c, 0, 82, 88
2, 278016, Note_on_c, 0, 70, 85
2, 278784, Note_off_c, 0, 70, 64
2, 278784, Note_off_c, 0, 82, 64
2, 278784, Note_on_c, 0, 68, 81
2, 278784, Note_on_c, 0, 80, 81
2, 279168, Note_off_c, 0, 80, 64
2, 279168, Note_off_c, 0, 68, 64
2, 279168, Note_on_c, 0, 79, 78
2, 279552, Note_off_c, 0, 79, 64
2, 279552, Note_on_c, 0, 67, 76
2, 279936, Note_off_c, 0, 67, 64
2, 279936, Note_on_c, 0, 77, 73
2, 280320, Note_off_c, 0, 77, 64
2, 280320, Note_on_c, 0, 65, 71
2, 280704, Note_off_c, 0, 65, 64
2, 280704, Note_on_c, 0, 76, 69
2, 281088, Note_off_c, 0, 76, 64
2, 281088, Note_on_c, 0, 60, 59
2, 281216, Note_off_c, 0, 60, 64
2, 281216, Note_on_c, 0, 64, 49
2, 281344, Note_off_c, 0, 64, 64
2, 281344, Note_on_c, 0, 67, 40
2, 281472, Note_off_c, 0, 67, 64
2, 281472, Note_on_c, 0, 72, 45
2, 281600, Note_off_c, 0, 72, 64
2, 281600, Note_on_c, 0, 67, 45
2, 281728, Note_off_c, 0, 67, 64
2, 281728, Note_on_c, 0, 64, 45
2, 281856, Note_off_c, 0, 64, 64
2, 281856, Note_on_c, 0, 71, 45
2, 281984, Note_off_c, 0, 71, 64
2, 281984, Note_on_c, 0, 68, 45
2, 282112, Note_off_c, 0, 68, 64
2, 282112, Note_on_c, 0, 65, 45
2, 282240, Note_off_c, 0, 65, 64
2, 282240, Note_on_c, 0, 72, 46
2, 282368, Note_off_c, 0, 72, 64
2, 282368, Note_on_c, 0, 67, 46
2, 282496, Note_off_c, 0, 67, 64
2, 282496, Note_on_c, 0, 64, 46
2, 282624, Note_off_c, 0, 64, 64
2, 282624, Note_on_c, 0, 60, 46
2, 282752, Note_off_c, 0, 60, 64
2, 282752, Note_on_c, 0, 67, 46
2, 282880, Note_off_c, 0, 67, 64
2, 282880, Note_on_c, 0, 64, 46
2, 283008, Note_off_c, 0, 64, 64
2, 283136, Note_on_c, 0, 67, 47
2, 283264, Note_off_c, 0, 67, 64
2, 283264, Note_on_c, 0, 64, 47
2, 283392, Note_off_c, 0, 64, 64
2, 283520, Note_on_c, 0, 68, 47
2, 283648, Note_off_c, 0, 68, 64
2, 283648, Note_on_c, 0, 65, 47
2, 283776, Note_off_c, 0, 65, 64
2, 284160, Note_on_c, 0, 60, 48
2, 284288, Note_off_c, 0, 60, 64
2, 284288, Note_on_c, 0, 64, 48
2, 284416, Note_off_c, 0, 64, 64
2, 284416, Note_on_c, 0, 67, 48
2, 284544, Note_off_c, 0, 67, 64
2, 284544, Note_on_c, 0, 72, 48
2, 284672, Note_off_c, 0, 72, 64
2, 284672, Note_on_c, 0, 67, 48
2, 284800, Note_off_c, 0, 67, 64
2, 284800, Note_on_c, 0, 64, 49
2, 284928, Note_off_c, 0, 64, 64
2, 284928, Note_on_c, 0, 71, 49
2, 285056, Note_off_c, 0, 71, 64
2, 285056, Note_on_c, 0, 68, 49
2, 285184, Note_off_c, 0, 68, 64
2, 285184, Note_on_c, 0, 65, 49
2, 285312, Note_off_c, 0, 65, 64
2, 285312, Note_on_c, 0, 72, 49
2, 285440, Note_off_c, 0, 72, 64
2, 285440, Note_on_c, 0, 67, 49
2, 285568, Note_off_c, 0, 67, 64
2, 285568, Note_on_c, 0, 64, 49
2, 285696, Note_off_c, 0, 64, 64
2, 285696, Note_on_c, 0, 60, 50
2, 285824, Note_off_c, 0, 60, 64
2, 285824, Note_on_c, 0, 67, 50
2, 285952, Note_off_c, 0, 67, 64
2, 285952, Note_on_c, 0, 64, 50
2, 286080, Note_off_c, 0, 64, 64
2, 286208, Note_on_c, 0, 67, 50
2, 286336, Note_off_c, 0, 67, 64
2, 286336, Note_on_c, 0, 64, 50
2, 286464, Note_off_c, 0, 64, 64
2, 286592, Note_on_c, 0, 68, 51
2, 286720, Note_off_c, 0, 68, 64
2, 286720, Note_on_c, 0, 65, 51
2, 286848, Note_off_c, 0, 65, 64
2, 286976, Note_on_c, 0, 67, 51
2, 287104, Note_off_c, 0, 67, 64
2, 287104, Note_on_c, 0, 64, 51
2, 287232, Note_off_c, 0, 64, 64
2, 287232, Note_on_c, 0, 72, 51
2, 287360, Note_off_c, 0, 72, 64
2, 287360, Note_on_c, 0, 67, 52
2, 287488, Note_off_c, 0, 67, 64
2, 287488, Note_on_c, 0, 64, 52
2, 287616, Note_off_c, 0, 64, 64
2, 287616, Note_on_c, 0, 73, 60
2, 287744, Note_on_c, 0, 67, 52
2, 287872, Note_off_c, 0, 67, 64
2, 287872, Note_on_c, 0, 64, 52
2, 288000, Note_off_c, 0, 64, 64
2, 288000, Note_off_c, 0, 73, 64
2, 288000, Note_on_c, 0, 72, 59
2, 288128, Note_on_c, 0, 67, 54
2, 288256, Note_off_c, 0, 67, 64
2, 288256, Note_on_c, 0, 64, 54
2, 288384, Note_off_c, 0, 64, 64
2, 288384, Note_off_c, 0, 72, 64
2, 288384, Note_on_c, 0, 73, 59
2, 288512, Note_on_c, 0, 67, 54
2, 288640, Note_off_c, 0, 67, 64
2, 288640, Note_on_c, 0, 64, 54
2, 288768, Note_off_c, 0, 64, 64
2, 288768, Note_off_c, 0, 73, 64
2, 288896, Note_on_c, 0, 67, 54
2, 289024, Note_off_c, 0, 67, 64
2, 289024, Note_on_c, 0, 64, 54
2, 289152, Note_off_c, 0, 64, 64
2, 289152, Note_on_c, 0, 73, 62
2, 289280, Note_on_c, 0, 67, 54
2, 289408, Note_off_c, 0, 67, 64
2, 289408, Note_on_c, 0, 64, 54
2, 289536, Note_off_c, 0, 64, 64
2, 289536, Note_off_c, 0, 73, 64
2, 289536, Note_on_c, 0, 72, 60
2, 289664, Note_on_c, 0, 67, 55
2, 289792, Note_off_c, 0, 67, 64
2, 289792, Note_on_c, 0, 64, 55
2, 289920, Note_off_c, 0, 64, 64
2, 289920, Note_off_c, 0, 72, 64
2, 289920, Note_on_c, 0, 73, 60
2, 290048, Note_on_c, 0, 67, 55
2, 290176, Note_off_c, 0, 67, 64
2, 290176, Note_on_c, 0, 64, 55
2, 290304, Note_off_c, 0, 64, 64
2, 290304, Note_off_c, 0, 73, 64
2, 290432, Note_on_c, 0, 67, 55
2, 290560, Note_off_c, 0, 67, 64
2, 290560, Note_on_c, 0, 64, 55
2, 290688, Note_off_c, 0, 64, 64
2, 290688, Note_on_c, 0, 73, 65
2, 290816, Note_on_c, 0, 67, 57
2, 290944, Note_off_c, 0, 67, 64
2, 290944, Note_on_c, 0, 64, 57
2, 291072, Note_off_c, 0, 64, 64
2, 291072, Note_off_c, 0, 73, 64
2, 291072, Note_on_c, 0, 72, 62
2, 291200, Note_on_c, 0, 67, 57
2, 291328, Note_off_c, 0, 67, 64
2, 291328, Note_on_c, 0, 64, 57
2, 291456, Note_off_c, 0, 64, 64
2, 291456, Note_off_c, 0, 72, 64
2, 291456, Note_on_c, 0, 73, 62
2, 291584, Note_on_c, 0, 67, 57
2, 291712, Note_off_c, 0, 67, 64
2, 291712, Note_on_c, 0, 64, 57
2, 291840, Note_off_c, 0, 64, 64
2, 291840, Note_off_c, 0, 73, 64
2, 291840, Note_on_c, 0, 72, 62
2, 291968, Note_on_c, 0, 67, 56
2, 292096, Note_off_c, 0, 67, 64
2, 292096, Note_on_c, 0, 64, 56
2, 292224, Note_off_c, 0, 64, 64
2, 292224, Note_off_c, 0, 72, 64
2, 292224, Note_on_c, 0, 73, 61
2, 292352, Note_on_c, 0, 67, 56
2, 292480, Note_off_c, 0, 67, 64
2, 292480, Note_on_c, 0, 64, 55
2, 292608, Note_off_c, 0, 64, 64
2, 292608, Note_off_c, 0, 73, 64
2, 292608, Note_on_c, 0, 72, 60
2, 292736, Note_on_c, 0, 67, 55
2, 292864, Note_off_c, 0, 67, 64
2, 292864, Note_on_c, 0, 64, 54
2, 292992, Note_off_c, 0, 64, 64
2, 292992, Note_off_c, 0, 72, 64
2, 292992, Note_on_c, 0, 73, 59
2, 293120, Note_off_c, 0, 73, 64
2, 293120, Note_on_c, 0, 67, 54
2, 293248, Note_off_c, 0, 67, 64
2, 293248, Note_on_c, 0, 64, 54
2, 293376, Note_off_c, 0, 64, 64
2, 293376, Note_on_c, 0, 72, 58
2, 293504, Note_off_c, 0, 72, 64
2, 293504, Note_on_c, 0, 67, 53
2, 293632, Note_off_c, 0, 67, 64
2, 293632, Note_on_c, 0, 64, 53
2, 293760, Note_off_c, 0, 64, 64
2, 293760, Note_on_c, 0, 73, 58
2, 293888, Note_off_c, 0, 73, 64
2, 293888, Note_on_c, 0, 67, 52
2, 294016, Note_off_c, 0, 67, 64
2, 294016, Note_on_c, 0, 64, 52
2, 294144, Note_off_c, 0, 64, 64
2, 294144, Note_on_c, 0, 72, 57
2, 294272, Note_off_c, 0, 72, 64
2, 294272, Note_on_c, 0, 67, 52
2, 294400, Note_off_c, 0, 67, 64
2, 294400, Note_on_c, 0, 64, 51
2, 294528, Note_off_c, 0, 64, 64
2, 294528, Note_on_c, 0, 73, 56
2, 294656, Note_off_c, 0, 73, 64
2, 294656, Note_on_c, 0, 67, 51
2, 294784, Note_off_c, 0, 67, 64
2, 294784, Note_on_c, 0, 64, 51
2, 294912, Note_off_c, 0, 64, 64
2, 294912, Note_on_c, 0, 72, 55
2, 295040, Note_off_c, 0, 72, 64
2, 295040, Note_on_c, 0, 67, 50
2, 295168, Note_off_c, 0, 67, 64
2, 295168, Note_on_c, 0, 64, 50
2, 295296, Note_off_c, 0, 64, 64
2, 295296, Note_on_c, 0, 73, 55
2, 295424, Note_off_c, 0, 73, 64
2, 295424, Note_on_c, 0, 67, 49
2, 295552, Note_off_c, 0, 67, 64
2, 295552, Note_on_c, 0, 64, 49
2, 295680, Note_off_c, 0, 64, 64
2, 295680, Note_on_c, 0, 72, 54
2, 295808, Note_off_c, 0, 72, 64
2, 295808, Note_on_c, 0, 67, 48
2, 295936, Note_off_c, 0, 67, 64
2, 295936, Note_on_c, 0, 64, 48
2, 296064, Note_off_c, 0, 64, 64
2, 296064, Note_on_c, 0, 73, 53
2, 296192, Note_off_c, 0, 73, 64
2, 296192, Note_on_c, 0, 67, 48
2, 296320, Note_off_c, 0, 67, 64
2, 296320, Note_on_c, 0, 64, 47
2, 296448, Note_off_c, 0, 64, 64
2, 296448, Note_on_c, 0, 72, 52
2, 296576, Note_off_c, 0, 72, 64
2, 296576, Note_on_c, 0, 67, 47
2, 296704, Note_off_c, 0, 67, 64
2, 296704, Note_on_c, 0, 64, 47
2, 296832, Note_off_c, 0, 64, 64
2, 296832, Note_on_c, 0, 73, 51
2, 296960, Note_off_c, 0, 73, 64
2, 296960, Note_on_c, 0, 67, 46
2, 297088, Note_off_c, 0, 67, 64
2, 297088, Note_on_c, 0, 64, 46
2, 297216, Note_off_c, 0, 64, 64
2, 297216, Note_on_c, 0, 72, 51
2, 297344, Note_off_c, 0, 72, 64
2, 297344, Note_on_c, 0, 67, 45
2, 297472, Note_off_c, 0, 67, 64
2, 297472, Note_on_c, 0, 64, 45
2, 297600, Note_off_c, 0, 64, 64
2, 297600, Note_on_c, 0, 65, 45
2, 297984, Note_off_c, 0, 65, 64
2, 298368, Note_on_c, 0, 65, 55
2, 298368, Note_on_c, 0, 68, 55
2, 298368, Note_on_c, 0, 72, 55
2, 298368, Note_on_c, 0, 77, 55
2, 298560, Note_off_c, 0, 77, 64
2, 298560, Note_off_c, 0, 72, 64
2, 298560, Note_off_c, 0, 68, 64
2, 298560, Note_off_c, 0, 65, 64
2, 298752, Note_on_c, 0, 64, 55
2, 298752, Note_on_c, 0, 67, 55
2, 298752, Note_on_c, 0, 70, 55
2, 298752, Note_on_c, 0, 73, 55
2, 298752, Note_on_c, 0, 76, 55
2, 298944, Note_off_c, 0, 76, 64
2, 298944, Note_off_c, 0, 73, 64
2, 298944, Note_off_c, 0, 70, 64
2, 298944, Note_off_c, 0, 67, 64
2, 298944, Note_off_c, 0, 64, 64
2, 299136, Note_on_c, 0, 65, 55
2, 299136, Note_on_c, 0, 68, 55
2, 299136, Note_on_c, 0, 72, 55
2, 299136, Note_on_c, 0, 77, 55
2, 299328, Note_off_c, 0, 77, 64
2, 299328, Note_off_c, 0, 72, 64
2, 299328, Note_off_c, 0, 68, 64
2, 299328, Note_off_c, 0, 65, 64
2, 299904, Note_on_c, 0, 72, 74
2, 299904, Note_on_c, 0, 77, 74
2, 299904, Note_on_c, 0, 80, 74
2, 299904, Note_on_c, 0, 84, 74
2, 300096, Note_off_c, 0, 84, 64
2, 300096, Note_off_c, 0, 80, 64
2, 300096, Note_off_c, 0, 77, 64
2, 300096, Note_off_c, 0, 72, 64
2, 300288, Note_on_c, 0, 72, 74
2, 300288, Note_on_c, 0, 79, 74
2, 300288, Note_on_c, 0, 82, 74
2, 300288, Note_on_c, 0, 84, 74
2, 300480, Note_off_c, 0, 84, 64
2, 300480, Note_off_c, 0, 82, 64
2, 300480, Note_off_c, 0, 79, 64
2, 300480, Note_off_c, 0, 72, 64
2, 300672, Note_on_c, 0, 72, 74
2, 300672, Note_on_c, 0, 77, 74
2, 300672, Note_on_c, 0, 80, 74
2, 300672, Note_on_c, 0, 84, 74
2, 300864, Note_off_c, 0, 84, 64
2, 300864, Note_off_c, 0, 80, 64
2, 300864, Note_off_c, 0, 77, 64
2, 300864, Note_off_c, 0, 72, 64
2, 301440, Note_on_c, 0, 65, 50
2, 301440, Note_on_c, 0, 68, 50
2, 301440, Note_on_c, 0, 72, 50
2, 301440, Note_on_c, 0, 77, 50
2, 301632, Note_off_c, 0, 77, 64
2, 301632, Note_off_c, 0, 72, 64
2, 301632, Note_off_c, 0, 68, 64
2, 301632, Note_off_c, 0, 65, 64
2, 301824, Note_on_c, 0, 64, 50
2, 301824, Note_on_c, 0, 67, 50
2, 301824, Note_on_c, 0, 70, 50
2, 301824, Note_on_c, 0, 73, 50
2, 301824, Note_on_c, 0, 76, 50
2, 302016, Note_off_c, 0, 76, 64
2, 302016, Note_off_c, 0, 73, 64
2, 302016, Note_off_c, 0, 70, 64
2, 302016, Note_off_c, 0, 67, 64
2, 302016, Note_off_c, 0, 64, 64
2, 302208, Note_on_c, 0, 65, 50
2, 302208, Note_on_c, 0, 68, 50
2, 302208, Note_on_c, 0, 72, 50
2, 302208, Note_on_c, 0, 77, 50
2, 302400, Note_off_c, 0, 77, 64
2, 302400, Note_off_c, 0, 72, 64
2, 302400, Note_off_c, 0, 68, 64
2, 302400, Note_off_c, 0, 65, 64
2, 302976, Note_on_c, 0, 72, 72
2, 302976, Note_on_c, 0, 77, 72
2, 302976, Note_on_c, 0, 80, 72
2, 302976, Note_on_c, 0, 84, 72
2, 303168, Note_off_c, 0, 84, 64
2, 303168, Note_off_c, 0, 80, 64
2, 303168, Note_off_c, 0, 77, 64
2, 303168, Note_off_c, 0, 72, 64
2, 303360, Note_on_c, 0, 72, 72
2, 303360, Note_on_c, 0, 79, 72
2, 303360, Note_on_c, 0, 82, 72
2, 303360, Note_on_c, 0, 84, 72
2, 303552, Note_off_c, 0, 84, 64
2, 303552, Note_off_c, 0, 82, 64
2, 303552, Note_off_c, 0, 79, 64
2, 303552, Note_off_c, 0, 72, 64
2, 303744, Note_on_c, 0, 72, 72
2, 303744, Note_on_c, 0, 77, 72
2, 303744, Note_on_c, 0, 80, 72
2, 303744, Note_on_c, 0, 84, 72
2, 303936, Note_off_c, 0, 84, 64
2, 303936, Note_off_c, 0, 80, 64
2, 303936, Note_off_c, 0, 77, 64
2, 303936, Note_off_c, 0, 72, 64
2, 304512, Note_on_c, 0, 75, 57
2, 304704, Note_off_c, 0, 75, 64
2, 304896, Note_on_c, 0, 75, 60
2, 305088, Note_off_c, 0, 75, 64
2, 305280, Note_on_c, 0, 75, 63
2, 305664, Note_off_c, 0, 75, 64
2, 305664, Note_on_c, 0, 80, 65
2, 306048, Note_off_c, 0, 80, 64
2, 306048, Note_on_c, 0, 75, 68
2, 306240, Note_off_c, 0, 75, 64
2, 306432, Note_on_c, 0, 75, 71
2, 306624, Note_off_c, 0, 75, 64
2, 306816, Note_on_c, 0, 75, 73
2, 307200, Note_off_c, 0, 75, 64
2, 307200, Note_on_c, 0, 80, 76
2, 307584, Note_off_c, 0, 80, 64
2, 307584, Note_on_c, 0, 75, 79
2, 307968, Note_off_c, 0, 75, 64
2, 307968, Note_on_c, 0, 76, 82
2, 308352, Note_off_c, 0, 76, 64
2, 308352, Note_on_c, 0, 77, 84
2, 308736, Note_off_c, 0, 77, 64
2, 308736, Note_on_c, 0, 79, 87
2, 309120, Note_off_c, 0, 79, 64
2, 309120, Note_on_c, 0, 80, 90
2, 309504, Note_off_c, 0, 80, 64
2, 309504, Note_on_c, 0, 83, 92
2, 309888, Note_off_c, 0, 83, 64
2, 309888, Note_on_c, 0, 84, 95
2, 310272, Note_off_c, 0, 84, 64
2, 310656, Note_on_c, 0, 72, 55
2, 310848, Note_off_c, 0, 72, 64
2, 311040, Note_on_c, 0, 72, 55
2, 311232, Note_off_c, 0, 72, 64
2, 311424, Note_on_c, 0, 72, 56
2, 311808, Note_off_c, 0, 72, 64
2, 311808, Note_on_c, 0, 77, 57
2, 312192, Note_off_c, 0, 77, 64
2, 312384, Note_on_c, 0, 85, 61
2, 312576, Note_off_c, 0, 85, 64
2, 312576, Note_on_c, 0, 84, 78
2, 312768, Note_off_c, 0, 84, 64
2, 312768, Note_on_c, 0, 82, 77
2, 312960, Note_off_c, 0, 82, 64
2, 312960, Note_on_c, 0, 82, 76
2, 313152, Note_off_c, 0, 82, 64
2, 313152, Note_on_c, 0, 80, 74
2, 313344, Note_off_c, 0, 80, 64
2, 313344, Note_on_c, 0, 79, 73
2, 313536, Note_off_c, 0, 79, 64
2, 313536, Note_on_c, 0, 77, 72
2, 313728, Note_off_c, 0, 77, 64
2, 313728, Note_on_c, 0, 72, 71
2, 313920, Note_off_c, 0, 72, 64
2, 314112, Note_on_c, 0, 72, 60
2, 314304, Note_off_c, 0, 72, 64
2, 314496, Note_on_c, 0, 72, 30
2, 314572, Note_off_c, 0, 72, 64
2, 314572, Note_on_c, 0, 73, 36
2, 314650, Note_off_c, 0, 73, 64
2, 314650, Note_on_c, 0, 72, 42
2, 314726, Note_off_c, 0, 72, 64
2, 314726, Note_on_c, 0, 71, 47
2, 314804, Note_off_c, 0, 71, 64
2, 314804, Note_on_c, 0, 72, 53
2, 314880, Note_off_c, 0, 72, 64
2, 314880, Note_on_c, 0, 77, 58
2, 315264, Note_off_c, 0, 77, 64
2, 315456, Note_on_c, 0, 85, 81
2, 315648, Note_off_c, 0, 85, 64
2, 315648, Note_on_c, 0, 84, 79
2, 315840, Note_off_c, 0, 84, 64
2, 315840, Note_on_c, 0, 82, 77
2, 316032, Note_off_c, 0, 82, 64
2, 316032, Note_on_c, 0, 82, 75
2, 316224, Note_off_c, 0, 82, 64
2, 316224, Note_on_c, 0, 80, 72
2, 316416, Note_off_c, 0, 80, 64
2, 316416, Note_on_c, 0, 79, 72
2, 316608, Note_off_c, 0, 79, 64
2, 316608, Note_on_c, 0, 77, 69
2, 316800, Note_off_c, 0, 77, 64
2, 316992, Note_on_c, 0, 85, 83
2, 317184, Note_off_c, 0, 85, 64
2, 317184, Note_on_c, 0, 84, 81
2, 317376, Note_off_c, 0, 84, 64
2, 317376, Note_on_c, 0, 82, 79
2, 317568, Note_off_c, 0, 82, 64
2, 317568, Note_on_c, 0, 82, 77
2, 317760, Note_off_c, 0, 82, 64
2, 317760, Note_on_c, 0, 80, 75
2, 317952, Note_off_c, 0, 80, 64
2, 317952, Note_on_c, 0, 79, 73
2, 318144, Note_off_c, 0, 79, 64
2, 318144, Note_on_c, 0, 77, 71
2, 318336, Note_off_c, 0, 77, 64
2, 318336, Note_on_c, 0, 75, 69
2, 318528, Note_off_c, 0, 75, 64
2, 318528, Note_on_c, 0, 73, 67
2, 318720, Note_off_c, 0, 73, 64
2, 318720, Note_on_c, 0, 72, 65
2, 318912, Note_off_c, 0, 72, 64
2, 318912, Note_on_c, 0, 71, 63
2, 319104, Note_off_c, 0, 71, 64
2, 319104, Note_on_c, 0, 72, 61
2, 319488, Note_off_c, 0, 72, 64
2, 319872, Note_on_c, 0, 60, 61
2, 319872, Note_on_c, 0, 64, 61
2, 319872, Note_on_c, 0, 67, 61
2, 319872, Note_on_c, 0, 72, 61
2, 320064, Note_off_c, 0, 72, 64
2, 320064, Note_off_c, 0, 67, 64
2, 320064, Note_off_c, 0, 64, 64
2, 320064, Note_off_c, 0, 60, 64
2, 320256, Note_on_c, 0, 59, 61
2, 320256, Note_on_c, 0, 62, 61
2, 320256, Note_on_c, 0, 65, 61
2, 320256, Note_on_c, 0, 68, 61
2, 320256, Note_on_c, 0, 71, 61
2, 320448, Note_off_c, 0, 71, 64
2, 320448, Note_off_c, 0, 68, 64
2, 320448, Note_off_c, 0, 65, 64
2, 320448, Note_off_c, 0, 62, 64
2, 320448, Note_off_c, 0, 59, 64
2, 320640, Note_on_c, 0, 60, 68
2, 320640, Note_on_c, 0, 64, 68
2, 320640, Note_on_c, 0, 67, 68
2, 320640, Note_on_c, 0, 72, 68
2, 320832, Note_off_c, 0, 72, 64
2, 320832, Note_off_c, 0, 67, 64
2, 320832, Note_off_c, 0, 64, 64
2, 320832, Note_off_c, 0, 60, 64
2, 321408, Note_on_c, 0, 64, 83
2, 321408, Note_on_c, 0, 67, 83
2, 321408, Note_on_c, 0, 72, 83
2, 321408, Note_on_c, 0, 76, 83
2, 321600, Note_off_c, 0, 76, 64
2, 321600, Note_off_c, 0, 72, 64
2, 321600, Note_off_c, 0, 67, 64
2, 321600, Note_off_c, 0, 64, 64
2, 321792, Note_on_c, 0, 64, 83
2, 321792, Note_on_c, 0, 67, 83
2, 321792, Note_on_c, 0, 72, 83
2, 321792, Note_on_c, 0, 76, 83
2, 321984, Note_off_c, 0, 76, 64
2, 321984, Note_off_c, 0, 72, 64
2, 321984, Note_off_c, 0, 67, 64
2, 321984, Note_off_c, 0, 64, 64
2, 322176, Note_on_c, 0, 64, 83
2, 322176, Note_on_c, 0, 67, 83
2, 322176, Note_on_c, 0, 72, 83
2, 322176, Note_on_c, 0, 76, 83
2, 322368, Note_off_c, 0, 76, 64
2, 322368, Note_off_c, 0, 72, 64
2, 322368, Note_off_c, 0, 67, 64
2, 322368, Note_off_c, 0, 64, 64
2, 322944, Note_on_c, 0, 60, 73
2, 322944, Note_on_c, 0, 64, 73
2, 322944, Note_on_c, 0, 67, 73
2, 322944, Note_on_c, 0, 72, 73
2, 323136, Note_off_c, 0, 72, 64
2, 323136, Note_off_c, 0, 67, 64
2, 323136, Note_off_c, 0, 64, 64
2, 323136, Note_off_c, 0, 60, 64
2, 323328, Note_on_c, 0, 59, 68
2, 323328, Note_on_c, 0, 62, 68
2, 323328, Note_on_c, 0, 65, 68
2, 323328, Note_on_c, 0, 68, 68
2, 323328, Note_on_c, 0, 71, 68
2, 323520, Note_off_c, 0, 71, 64
2, 323520, Note_off_c, 0, 68, 64
2, 323520, Note_off_c, 0, 65, 64
2, 323520, Note_off_c, 0, 62, 64
2, 323520, Note_off_c, 0, 59, 64
2, 323712, Note_on_c, 0, 60, 70
2, 323712, Note_on_c, 0, 64, 70
2, 323712, Note_on_c, 0, 67, 70
2, 323712, Note_on_c, 0, 72, 70
2, 323904, Note_off_c, 0, 72, 64
2, 323904, Note_off_c, 0, 67, 64
2, 323904, Note_off_c, 0, 64, 64
2, 323904, Note_off_c, 0, 60, 64
2, 324480, Note_on_c, 0, 67, 86
2, 324480, Note_on_c, 0, 72, 86
2, 324480, Note_on_c, 0, 76, 86
2, 324480, Note_on_c, 0, 79, 86
2, 324672, Note_off_c, 0, 79, 64
2, 324672, Note_off_c, 0, 76, 64
2, 324672, Note_off_c, 0, 72, 64
2, 324672, Note_off_c, 0, 67, 64
2, 324864, Note_on_c, 0, 67, 87
2, 324864, Note_on_c, 0, 72, 87
2, 324864, Note_on_c, 0, 76, 87
2, 324864, Note_on_c, 0, 79, 87
2, 325056, Note_off_c, 0, 79, 64
2, 325056, Note_off_c, 0, 76, 64
2, 325056, Note_off_c, 0, 72, 64
2, 325056, Note_off_c, 0, 67, 64
2, 325248, Note_on_c, 0, 67, 88
2, 325248, Note_on_c, 0, 72, 88
2, 325248, Note_on_c, 0, 76, 88
2, 325248, Note_on_c, 0, 79, 88
2, 325440, Note_off_c, 0, 79, 64
2, 325440, Note_off_c, 0, 76, 64
2, 325440, Note_off_c, 0, 72, 64
2, 325440, Note_off_c, 0, 67, 64
2, 326016, Note_on_c, 0, 70, 90
2, 326016, Note_on_c, 0, 76, 90
2, 326016, Note_on_c, 0, 79, 90
2, 326016, Note_on_c, 0, 82, 90
2, 326208, Note_off_c, 0, 82, 64
2, 326208, Note_off_c, 0, 79, 64
2, 326208, Note_off_c, 0, 76, 64
2, 326208, Note_off_c, 0, 70, 64
2, 326400, Note_on_c, 0, 70, 91
2, 326400, Note_on_c, 0, 76, 91
2, 326400, Note_on_c, 0, 79, 91
2, 326400, Note_on_c, 0, 82, 91
2, 326592, Note_off_c, 0, 82, 64
2, 326592, Note_off_c, 0, 79, 64
2, 326592, Note_off_c, 0, 76, 64
2, 326592, Note_off_c, 0, 70, 64
2, 326784, Note_on_c, 0, 70, 92
2, 326784, Note_on_c, 0, 76, 92
2, 326784, Note_on_c, 0, 79, 92
2, 326784, Note_on_c, 0, 82, 92
2, 326976, Note_off_c, 0, 82, 64
2, 326976, Note_off_c, 0, 79, 64
2, 326976, Note_off_c, 0, 76, 64
2, 326976, Note_off_c, 0, 70, 64
2, 327552, Note_on_c, 0, 70, 94
2, 327552, Note_on_c, 0, 76, 94
2, 327552, Note_on_c, 0, 79, 94
2, 327552, Note_on_c, 0, 82, 94
2, 327744, Note_off_c, 0, 82, 64
2, 327744, Note_off_c, 0, 79, 64
2, 327744, Note_off_c, 0, 76, 64
2, 327744, Note_off_c, 0, 70, 64
2, 327936, Note_on_c, 0, 70, 95
2, 327936, Note_on_c, 0, 76, 95
2, 327936, Note_on_c, 0, 79, 95
2, 327936, Note_on_c, 0, 82, 95
2, 328128, Note_off_c, 0, 82, 64
2, 328128, Note_off_c, 0, 79, 64
2, 328128, Note_off_c, 0, 76, 64
2, 328128, Note_off_c, 0, 70, 64
2, 328320, Note_on_c, 0, 70, 96
2, 328320, Note_on_c, 0, 76, 96
2, 328320, Note_on_c, 0, 79, 96
2, 328320, Note_on_c, 0, 82, 96
2, 328512, Note_off_c, 0, 82, 64
2, 328512, Note_off_c, 0, 79, 64
2, 328512, Note_off_c, 0, 76, 64
2, 328512, Note_off_c, 0, 70, 64
2, 329088, Note_on_c, 0, 70, 98
2, 329088, Note_on_c, 0, 76, 98
2, 329088, Note_on_c, 0, 79, 98
2, 329088, Note_on_c, 0, 82, 98
2, 329280, Note_off_c, 0, 82, 64
2, 329280, Note_off_c, 0, 79, 64
2, 329280, Note_off_c, 0, 76, 64
2, 329280, Note_off_c, 0, 70, 64
2, 329856, Note_on_c, 0, 82, 101
2, 329984, Note_off_c, 0, 82, 64
2, 329984, Note_on_c, 0, 80, 100
2, 330112, Note_off_c, 0, 80, 64
2, 330112, Note_on_c, 0, 79, 100
2, 330240, Note_off_c, 0, 79, 64
2, 330240, Note_on_c, 0, 77, 99
2, 330368, Note_off_c, 0, 77, 64
2, 330368, Note_on_c, 0, 76, 98
2, 330496, Note_off_c, 0, 76, 64
2, 330496, Note_on_c, 0, 73, 97
2, 330624, Note_off_c, 0, 73, 64
2, 330624, Note_on_c, 0, 72, 97
2, 330752, Note_off_c, 0, 72, 64
2, 330752, Note_on_c, 0, 70, 96
2, 330880, Note_off_c, 0, 70, 64
2, 330880, Note_on_c, 0, 68, 95
2, 331008, Note_off_c, 0, 68, 64
2, 331008, Note_on_c, 0, 67, 94
2, 331136, Note_off_c, 0, 67, 64
2, 331136, Note_on_c, 0, 65, 94
2, 331264, Note_off_c, 0, 65, 64
2, 331264, Note_on_c, 0, 64, 93
2, 331392, Note_off_c, 0, 64, 64
2, 331392, Note_on_c, 0, 61, 92
2, 331520, Note_off_c, 0, 61, 64
2, 331520, Note_on_c, 0, 60, 91
2, 331648, Note_off_c, 0, 60, 64
2, 331648, Note_on_c, 0, 58, 91
2, 331776, Note_off_c, 0, 58, 64
2, 331776, Note_on_c, 0, 56, 90
2, 331904, Note_off_c, 0, 56, 64
2, 331904, Note_on_c, 0, 55, 89
2, 332032, Note_off_c, 0, 55, 64
2, 332032, Note_on_c, 0, 53, 89
2, 332160, Note_off_c, 0, 53, 64
2, 332160, Note_on_c, 0, 52, 88
2, 332544, Note_off_c, 0, 52, 64
2, 333056, Note_on_c, 0, 65, 79
2, 333184, Note_off_c, 0, 65, 64
2, 333184, Note_on_c, 0, 68, 79
2, 333312, Note_off_c, 0, 68, 64
2, 333312, Note_on_c, 0, 61, 79
2, 333440, Note_off_c, 0, 61, 64
2, 333440, Note_on_c, 0, 65, 79
2, 333568, Note_off_c, 0, 65, 64
2, 333568, Note_on_c, 0, 68, 79
2, 333696, Note_off_c, 0, 68, 64
2, 333696, Note_on_c, 0, 60, 79
2, 333824, Note_off_c, 0, 60, 64
2, 333824, Note_on_c, 0, 65, 78
2, 333952, Note_off_c, 0, 65, 64
2, 333952, Note_on_c, 0, 68, 78
2, 334080, Note_off_c, 0, 68, 64
2, 334080, Note_on_c, 0, 59, 78
2, 334208, Note_off_c, 0, 59, 64
2, 334208, Note_on_c, 0, 65, 78
2, 334336, Note_off_c, 0, 65, 64
2, 334336, Note_on_c, 0, 68, 78
2, 334464, Note_off_c, 0, 68, 64
2, 334464, Note_on_c, 0, 60, 78
2, 334592, Note_off_c, 0, 60, 64
2, 334592, Note_on_c, 0, 65, 78
2, 334720, Note_off_c, 0, 65, 64
2, 334720, Note_on_c, 0, 68, 78
2, 334848, Note_off_c, 0, 68, 64
2, 334848, Note_on_c, 0, 61, 78
2, 334976, Note_off_c, 0, 61, 64
2, 334976, Note_on_c, 0, 65, 78
2, 335104, Note_off_c, 0, 65, 64
2, 335104, Note_on_c, 0, 68, 78
2, 335232, Note_off_c, 0, 68, 64
2, 335232, Note_on_c, 0, 60, 78
2, 335360, Note_off_c, 0, 60, 64
2, 335360, Note_on_c, 0, 65, 78
2, 335488, Note_off_c, 0, 65, 64
2, 335488, Note_on_c, 0, 68, 78
2, 335616, Note_off_c, 0, 68, 64
2, 335616, Note_on_c, 0, 59, 78
2, 335744, Note_off_c, 0, 59, 64
2, 335744, Note_on_c, 0, 65, 77
2, 335872, Note_off_c, 0, 65, 64
2, 335872, Note_on_c, 0, 68, 77
2, 336000, Note_off_c, 0, 68, 64
2, 336000, Note_on_c, 0, 60, 77
2, 336128, Note_off_c, 0, 60, 64
2, 336128, Note_on_c, 0, 65, 77
2, 336256, Note_off_c, 0, 65, 64
2, 336256, Note_on_c, 0, 68, 77
2, 336384, Note_off_c, 0, 68, 64
2, 336384, Note_on_c, 0, 73, 77
2, 336512, Note_off_c, 0, 73, 64
2, 336512, Note_on_c, 0, 68, 77
2, 336640, Note_off_c, 0, 68, 64
2, 336640, Note_on_c, 0, 65, 77
2, 336768, Note_off_c, 0, 65, 64
2, 336768, Note_on_c, 0, 72, 77
2, 336896, Note_off_c, 0, 72, 64
2, 336896, Note_on_c, 0, 68, 77
2, 337024, Note_off_c, 0, 68, 64
2, 337024, Note_on_c, 0, 65, 77
2, 337152, Note_off_c, 0, 65, 64
2, 337152, Note_on_c, 0, 71, 77
2, 337280, Note_off_c, 0, 71, 64
2, 337280, Note_on_c, 0, 68, 77
2, 337408, Note_off_c, 0, 68, 64
2, 337408, Note_on_c, 0, 65, 77
2, 337536, Note_off_c, 0, 65, 64
2, 337536, Note_on_c, 0, 72, 76
2, 337664, Note_off_c, 0, 72, 64
2, 337664, Note_on_c, 0, 68, 76
2, 337792, Note_off_c, 0, 68, 64
2, 337792, Note_on_c, 0, 65, 76
2, 337920, Note_off_c, 0, 65, 64
2, 337920, Note_on_c, 0, 73, 76
2, 338048, Note_off_c, 0, 73, 64
2, 338048, Note_on_c, 0, 68, 76
2, 338176, Note_off_c, 0, 68, 64
2, 338176, Note_on_c, 0, 65, 76
2, 338304, Note_off_c, 0, 65, 64
2, 338304, Note_on_c, 0, 72, 76
2, 338432, Note_off_c, 0, 72, 64
2, 338432, Note_on_c, 0, 68, 76
2, 338560, Note_off_c, 0, 68, 64
2, 338560, Note_on_c, 0, 65, 76
2, 338688, Note_off_c, 0, 65, 64
2, 338688, Note_on_c, 0, 71, 76
2, 338816, Note_off_c, 0, 71, 64
2, 338816, Note_on_c, 0, 68, 76
2, 338944, Note_off_c, 0, 68, 64
2, 338944, Note_on_c, 0, 65, 76
2, 339072, Note_off_c, 0, 65, 64
2, 339072, Note_on_c, 0, 72, 76
2, 339200, Note_off_c, 0, 72, 64
2, 339200, Note_on_c, 0, 68, 76
2, 339328, Note_off_c, 0, 68, 64
2, 339328, Note_on_c, 0, 65, 76
2, 339456, Note_off_c, 0, 65, 64
2, 339456, Note_on_c, 0, 77, 75
2, 339584, Note_off_c, 0, 77, 64
2, 339584, Note_on_c, 0, 68, 75
2, 339712, Note_off_c, 0, 68, 64
2, 339712, Note_on_c, 0, 65, 75
2, 339840, Note_off_c, 0, 65, 64
2, 339840, Note_on_c, 0, 77, 75
2, 339968, Note_off_c, 0, 77, 64
2, 339968, Note_on_c, 0, 70, 75
2, 340096, Note_off_c, 0, 70, 64
2, 340096, Note_on_c, 0, 68, 75
2, 340224, Note_off_c, 0, 68, 64
2, 340224, Note_on_c, 0, 75, 75
2, 340352, Note_off_c, 0, 75, 64
2, 340352, Note_on_c, 0, 70, 75
2, 340480, Note_off_c, 0, 70, 64
2, 340480, Note_on_c, 0, 66, 75
2, 340608, Note_off_c, 0, 66, 64
2, 340608, Note_on_c, 0, 75, 75
2, 340736, Note_off_c, 0, 75, 64
2, 340736, Note_on_c, 0, 72, 75
2, 340864, Note_off_c, 0, 72, 64
2, 340864, Note_on_c, 0, 65, 75
2, 340992, Note_off_c, 0, 65, 64
2, 340992, Note_on_c, 0, 73, 75
2, 341120, Note_off_c, 0, 73, 64
2, 341120, Note_on_c, 0, 70, 75
2, 341248, Note_off_c, 0, 70, 64
2, 341248, Note_on_c, 0, 65, 75
2, 341376, Note_off_c, 0, 65, 64
2, 341376, Note_on_c, 0, 73, 74
2, 341504, Note_off_c, 0, 73, 64
2, 341504, Note_on_c, 0, 70, 74
2, 341632, Note_off_c, 0, 70, 64
2, 341632, Note_on_c, 0, 64, 74
2, 341760, Note_off_c, 0, 64, 64
2, 341760, Note_on_c, 0, 72, 74
2, 341888, Note_off_c, 0, 72, 64
2, 341888, Note_on_c, 0, 68, 74
2, 342016, Note_off_c, 0, 68, 64
2, 342016, Note_on_c, 0, 65, 74
2, 342144, Note_off_c, 0, 65, 64
2, 342144, Note_on_c, 0, 70, 74
2, 342272, Note_off_c, 0, 70, 64
2, 342272, Note_on_c, 0, 67, 74
2, 342400, Note_off_c, 0, 67, 64
2, 342400, Note_on_c, 0, 60, 74
2, 342528, Note_off_c, 0, 60, 64
2, 342528, Note_on_c, 0, 68, 74
2, 342656, Note_off_c, 0, 68, 64
2, 342656, Note_on_c, 0, 65, 74
2, 342784, Note_off_c, 0, 65, 64
2, 342784, Note_on_c, 0, 60, 74
2, 342912, Note_off_c, 0, 60, 64
2, 342912, Note_on_c, 0, 67, 74
2, 343040, Note_off_c, 0, 67, 64
2, 343040, Note_on_c, 0, 61, 74
2, 343168, Note_off_c, 0, 61, 64
2, 343168, Note_on_c, 0, 58, 73
2, 343296, Note_off_c, 0, 58, 64
2, 343296, Note_on_c, 0, 65, 73
2, 343424, Note_off_c, 0, 65, 64
2, 343424, Note_on_c, 0, 62, 73
2, 343552, Note_off_c, 0, 62, 64
2, 343552, Note_on_c, 0, 56, 73
2, 343680, Note_off_c, 0, 56, 64
2, 343680, Note_on_c, 0, 65, 73
2, 343808, Note_off_c, 0, 65, 64
2, 343808, Note_on_c, 0, 60, 73
2, 343936, Note_off_c, 0, 60, 64
2, 343936, Note_on_c, 0, 56, 73
2, 344064, Note_off_c, 0, 56, 64
2, 344064, Note_on_c, 0, 65, 73
2, 344192, Note_off_c, 0, 65, 64
2, 344192, Note_on_c, 0, 60, 73
2, 344320, Note_off_c, 0, 60, 64
2, 344320, Note_on_c, 0, 56, 73
2, 344448, Note_off_c, 0, 56, 64
2, 344448, Note_on_c, 0, 64, 73
2, 344576, Note_off_c, 0, 64, 64
2, 344576, Note_on_c, 0, 60, 73
2, 344704, Note_off_c, 0, 60, 64
2, 344704, Note_on_c, 0, 55, 73
2, 344832, Note_off_c, 0, 55, 64
2, 344832, Note_on_c, 0, 64, 73
2, 344960, Note_off_c, 0, 64, 64
2, 344960, Note_on_c, 0, 60, 73
2, 345088, Note_off_c, 0, 60, 64
2, 345088, Note_on_c, 0, 55, 72
2, 345216, Note_off_c, 0, 55, 64
2, 345216, Note_on_c, 0, 65, 72
2, 345344, Note_off_c, 0, 65, 64
2, 345344, Note_on_c, 0, 68, 72
2, 345472, Note_off_c, 0, 68, 64
2, 345472, Note_on_c, 0, 72, 72
2, 345600, Note_off_c, 0, 72, 64
2, 345600, Note_on_c, 0, 77, 72
2, 345728, Note_off_c, 0, 77, 64
2, 345728, Note_on_c, 0, 72, 72
2, 345856, Note_off_c, 0, 72, 64
2, 345856, Note_on_c, 0, 68, 72
2, 345984, Note_off_c, 0, 68, 64
2, 345984, Note_on_c, 0, 77, 72
2, 346112, Note_off_c, 0, 77, 64
2, 346112, Note_on_c, 0, 70, 72
2, 346240, Note_off_c, 0, 70, 64
2, 346240, Note_on_c, 0, 68, 72
2, 346368, Note_off_c, 0, 68, 64
2, 346368, Note_on_c, 0, 75, 72
2, 346496, Note_off_c, 0, 75, 64
2, 346496, Note_on_c, 0, 70, 72
2, 346624, Note_off_c, 0, 70, 64
2, 346624, Note_on_c, 0, 66, 72
2, 346752, Note_off_c, 0, 66, 64
2, 346752, Note_on_c, 0, 75, 72
2, 346880, Note_off_c, 0, 75, 64
2, 346880, Note_on_c, 0, 72, 71
2, 347008, Note_off_c, 0, 72, 64
2, 347008, Note_on_c, 0, 65, 71
2, 347136, Note_off_c, 0, 65, 64
2, 347136, Note_on_c, 0, 73, 70
2, 347264, Note_off_c, 0, 73, 64
2, 347264, Note_on_c, 0, 70, 70
2, 347392, Note_off_c, 0, 70, 64
2, 347392, Note_on_c, 0, 65, 70
2, 347520, Note_off_c, 0, 65, 64
2, 347520, Note_on_c, 0, 73, 69
2, 347648, Note_off_c, 0, 73, 64
2, 347648, Note_on_c, 0, 70, 69
2, 347776, Note_off_c, 0, 70, 64
2, 347776, Note_on_c, 0, 64, 69
2, 347904, Note_off_c, 0, 64, 64
2, 347904, Note_on_c, 0, 72, 68
2, 348032, Note_off_c, 0, 72, 64
2, 348032, Note_on_c, 0, 68, 68
2, 348160, Note_off_c, 0, 68, 64
2, 348160, Note_on_c, 0, 65, 68
2, 348288, Note_off_c, 0, 65, 64
2, 348288, Note_on_c, 0, 70, 67
2, 348416, Note_off_c, 0, 70, 64
2, 348416, Note_on_c, 0, 67, 67
2, 348544, Note_off_c, 0, 67, 64
2, 348544, Note_on_c, 0, 60, 66
2, 348672, Note_off_c, 0, 60, 64
2, 348672, Note_on_c, 0, 68, 66
2, 348800, Note_off_c, 0, 68, 64
2, 348800, Note_on_c, 0, 65, 66
2, 348928, Note_off_c, 0, 65, 64
2, 348928, Note_on_c, 0, 60, 65
2, 349056, Note_off_c, 0, 60, 64
2, 349056, Note_on_c, 0, 67, 65
2, 349184, Note_off_c, 0, 67, 64
2, 349184, Note_on_c, 0, 61, 65
2, 349312, Note_off_c, 0, 61, 64
2, 349312, Note_on_c, 0, 58, 64
2, 349440, Note_off_c, 0, 58, 64
2, 349440, Note_on_c, 0, 65, 64
2, 349568, Note_off_c, 0, 65, 64
2, 349568, Note_on_c, 0, 62, 63
2, 349696, Note_off_c, 0, 62, 64
2, 349696, Note_on_c, 0, 56, 63
2, 349824, Note_off_c, 0, 56, 64
2, 349824, Note_on_c, 0, 65, 63
2, 349952, Note_off_c, 0, 65, 64
2, 349952, Note_on_c, 0, 60, 62
2, 350080, Note_off_c, 0, 60, 64
2, 350080, Note_on_c, 0, 56, 62
2, 350208, Note_off_c, 0, 56, 64
2, 350208, Note_on_c, 0, 65, 62
2, 350336, Note_off_c, 0, 65, 64
2, 350336, Note_on_c, 0, 60, 61
2, 350464, Note_off_c, 0, 60, 64
2, 350464, Note_on_c, 0, 56, 61
2, 350592, Note_off_c, 0, 56, 64
2, 350592, Note_on_c, 0, 64, 61
2, 350720, Note_off_c, 0, 64, 64
2, 350720, Note_on_c, 0, 60, 60
2, 350848, Note_off_c, 0, 60, 64
2, 350848, Note_on_c, 0, 55, 60
2, 350976, Note_off_c, 0, 55, 64
2, 350976, Note_on_c, 0, 64, 59
2, 351104, Note_off_c, 0, 64, 64
2, 351104, Note_on_c, 0, 60, 59
2, 351232, Note_off_c, 0, 60, 64
2, 351232, Note_on_c, 0, 55, 59
2, 351360, Note_off_c, 0, 55, 64
2, 351360, Note_on_c, 0, 65, 58
2, 351744, Note_off_c, 0, 65, 64
2, 352128, Note_on_c, 0, 68, 47
2, 352128, Note_on_c, 0, 80, 47
2, 352512, Note_off_c, 0, 80, 64
2, 352512, Note_off_c, 0, 68, 64
2, 352512, Note_on_c, 0, 68, 53
2, 352512, Note_on_c, 0, 80, 53
2, 352896, Note_off_c, 0, 80, 64
2, 352896, Note_off_c, 0, 68, 64
2, 352896, Note_on_c, 0, 67, 60
2, 352896, Note_on_c, 0, 79, 60
2, 353280, Note_off_c, 0, 79, 64
2, 353280, Note_off_c, 0, 67, 64
2, 353280, Note_on_c, 0, 65, 57
2, 353280, Note_on_c, 0, 77, 57
2, 353664, Note_off_c, 0, 77, 64
2, 353664, Note_off_c, 0, 65, 64
2, 353664, Note_on_c, 0, 63, 59
2, 353664, Note_on_c, 0, 75, 55
2, 354048, Note_off_c, 0, 75, 64
2, 354048, Note_off_c, 0, 63, 64
2, 354048, Note_on_c, 0, 61, 59
2, 354048, Note_on_c, 0, 73, 57
2, 354432, Note_off_c, 0, 73, 64
2, 354432, Note_off_c, 0, 61, 64
2, 354432, Note_on_c, 0, 60, 55
2, 354432, Note_on_c, 0, 72, 56
2, 355200, Note_off_c, 0, 72, 64
2, 355200, Note_off_c, 0, 60, 64
2, 355200, Note_on_c, 0, 65, 48
2, 355200, Note_on_c, 0, 77, 48
2, 355584, Note_off_c, 0, 77, 64
2, 355584, Note_off_c, 0, 65, 64
2, 355584, Note_on_c, 0, 65, 52
2, 355584, Note_on_c, 0, 77, 52
2, 355968, Note_off_c, 0, 77, 64
2, 355968, Note_off_c, 0, 65, 64
2, 355968, Note_on_c, 0, 63, 57
2, 355968, Note_on_c, 0, 75, 57
2, 356352, Note_off_c, 0, 75, 64
2, 356352, Note_off_c, 0, 63, 64
2, 356352, Note_on_c, 0, 61, 55
2, 356352, Note_on_c, 0, 73, 55
2, 356736, Note_off_c, 0, 73, 64
2, 356736, Note_off_c, 0, 61, 64
2, 356736, Note_on_c, 0, 60, 55
2, 356736, Note_on_c, 0, 72, 55
2, 357120, Note_off_c, 0, 72, 64
2, 357120, Note_off_c, 0, 60, 64
2, 357120, Note_on_c, 0, 58, 56
2, 357120, Note_on_c, 0, 70, 57
2, 357504, Note_off_c, 0, 70, 64
2, 357504, Note_off_c, 0, 58, 64
2, 357504, Note_on_c, 0, 68, 55
2, 358272, Note_off_c, 0, 68, 64
2, 358272, Note_on_c, 0, 72, 48
2, 358272, Note_on_c, 0, 84, 48
2, 358656, Note_off_c, 0, 84, 64
2, 358656, Note_off_c, 0, 72, 64
2, 358656, Note_on_c, 0, 72, 54
2, 358656, Note_on_c, 0, 84, 54
2, 359040, Note_off_c, 0, 84, 64
2, 359040, Note_off_c, 0, 72, 64
2, 359040, Note_on_c, 0, 70, 60
2, 359040, Note_on_c, 0, 82, 60
2, 359424, Note_off_c, 0, 82, 64
2, 359424, Note_off_c, 0, 70, 64
2, 359424, Note_on_c, 0, 68, 56
2, 359424, Note_on_c, 0, 80, 55
2, 359808, Note_off_c, 0, 80, 64
2, 359808, Note_off_c, 0, 68, 64
2, 359808, Note_on_c, 0, 67, 59
2, 359808, Note_on_c, 0, 79, 56
2, 360192, Note_off_c, 0, 79, 64
2, 360192, Note_off_c, 0, 67, 64
2, 360192, Note_on_c, 0, 65, 59
2, 360192, Note_on_c, 0, 77, 59
2, 360576, Note_off_c, 0, 77, 64
2, 360576, Note_off_c, 0, 65, 64
2, 360576, Note_on_c, 0, 60, 55
2, 360576, Note_on_c, 0, 72, 58
2, 361344, Note_off_c, 0, 72, 64
2, 361344, Note_off_c, 0, 60, 64
2, 361344, Note_on_c, 0, 60, 45
2, 361344, Note_on_c, 0, 72, 45
2, 361728, Note_off_c, 0, 72, 64
2, 361728, Note_off_c, 0, 60, 64
2, 361728, Note_on_c, 0, 60, 52
2, 361728, Note_on_c, 0, 72, 52
2, 362112, Note_off_c, 0, 72, 64
2, 362112, Note_off_c, 0, 60, 64
2, 362112, Note_on_c, 0, 60, 58
2, 362112, Note_on_c, 0, 72, 58
2, 362880, Note_off_c, 0, 72, 64
2, 362880, Note_off_c, 0, 60, 64
2, 362880, Note_on_c, 0, 60, 50
2, 362880, Note_on_c, 0, 72, 50
2, 363264, Note_off_c, 0, 72, 64
2, 363264, Note_off_c, 0, 60, 64
2, 363264, Note_on_c, 0, 60, 54
2, 363264, Note_on_c, 0, 72, 54
2, 363648, Note_off_c, 0, 72, 64
2, 363648, Note_off_c, 0, 60, 64
2, 363648, Note_on_c, 0, 65, 58
2, 364416, Note_off_c, 0, 65, 64
2, 364416, Note_on_c, 0, 68, 47
2, 364416, Note_on_c, 0, 80, 47
2, 364800, Note_off_c, 0, 80, 64
2, 364800, Note_off_c, 0, 68, 64
2, 364800, Note_on_c, 0, 68, 52
2, 364800, Note_on_c, 0, 80, 52
2, 365184, Note_off_c, 0, 80, 64
2, 365184, Note_off_c, 0, 68, 64
2, 365184, Note_on_c, 0, 67, 57
2, 365184, Note_on_c, 0, 79, 57
2, 365568, Note_off_c, 0, 79, 64
2, 365568, Note_off_c, 0, 67, 64
2, 365568, Note_on_c, 0, 65, 57
2, 365568, Note_on_c, 0, 77, 59
2, 365952, Note_off_c, 0, 77, 64
2, 365952, Note_off_c, 0, 65, 64
2, 365952, Note_on_c, 0, 63, 58
2, 365952, Note_on_c, 0, 75, 56
2, 366336, Note_off_c, 0, 75, 64
2, 366336, Note_off_c, 0, 63, 64
2, 366336, Note_on_c, 0, 61, 59
2, 366336, Note_on_c, 0, 73, 55
2, 366720, Note_off_c, 0, 73, 64
2, 366720, Note_off_c, 0, 61, 64
2, 366720, Note_on_c, 0, 60, 56
2, 366720, Note_on_c, 0, 72, 59
2, 367488, Note_off_c, 0, 72, 64
2, 367488, Note_off_c, 0, 60, 64
2, 367488, Note_on_c, 0, 65, 44
2, 367488, Note_on_c, 0, 77, 44
2, 367872, Note_off_c, 0, 77, 64
2, 367872, Note_off_c, 0, 65, 64
2, 367872, Note_on_c, 0, 65, 50
2, 367872, Note_on_c, 0, 77, 50
2, 368256, Note_off_c, 0, 77, 64
2, 368256, Note_off_c, 0, 65, 64
2, 368256, Note_on_c, 0, 63, 57
2, 368256, Note_on_c, 0, 75, 57
2, 368640, Note_off_c, 0, 75, 64
2, 368640, Note_off_c, 0, 63, 64
2, 368640, Note_on_c, 0, 61, 56
2, 368640, Note_on_c, 0, 73, 57
2, 369024, Note_off_c, 0, 73, 64
2, 369024, Note_off_c, 0, 61, 64
2, 369024, Note_on_c, 0, 60, 57
2, 369024, Note_on_c, 0, 72, 55
2, 369408, Note_off_c, 0, 72, 64
2, 369408, Note_off_c, 0, 60, 64
2, 369408, Note_on_c, 0, 58, 57
2, 369408, Note_on_c, 0, 70, 56
2, 369792, Note_off_c, 0, 70, 64
2, 369792, Note_off_c, 0, 58, 64
2, 369792, Note_on_c, 0, 68, 59
2, 370560, Note_off_c, 0, 68, 64
2, 370560, Note_on_c, 0, 72, 49
2, 370560, Note_on_c, 0, 84, 49
2, 370944, Note_off_c, 0, 84, 64
2, 370944, Note_off_c, 0, 72, 64
2, 370944, Note_on_c, 0, 72, 53
2, 370944, Note_on_c, 0, 84, 53
2, 371328, Note_off_c, 0, 84, 64
2, 371328, Note_off_c, 0, 72, 64
2, 371328, Note_on_c, 0, 70, 58
2, 371328, Note_on_c, 0, 82, 58
2, 371712, Note_off_c, 0, 82, 64
2, 371712, Note_off_c, 0, 70, 64
2, 371712, Note_on_c, 0, 68, 57
2, 371712, Note_on_c, 0, 80, 55
2, 372096, Note_off_c, 0, 80, 64
2, 372096, Note_off_c, 0, 68, 64
2, 372096, Note_on_c, 0, 67, 55
2, 372096, Note_on_c, 0, 79, 59
2, 372480, Note_off_c, 0, 79, 64
2, 372480, Note_off_c, 0, 67, 64
2, 372480, Note_on_c, 0, 65, 58
2, 372480, Note_on_c, 0, 77, 55
2, 372864, Note_off_c, 0, 77, 64
2, 372864, Note_off_c, 0, 65, 64
2, 372864, Note_on_c, 0, 60, 56
2, 372864, Note_on_c, 0, 72, 59
2, 373632, Note_off_c, 0, 72, 64
2, 373632, Note_off_c, 0, 60, 64
2, 373632, Note_on_c, 0, 60, 63
2, 373632, Note_on_c, 0, 72, 63
2, 374016, Note_off_c, 0, 72, 64
2, 374016, Note_off_c, 0, 60, 64
2, 374016, Note_on_c, 0, 60, 65
2, 374016, Note_on_c, 0, 72, 65
2, 374400, Note_off_c, 0, 72, 64
2, 374400, Note_off_c, 0, 60, 64
2, 374400, Note_on_c, 0, 60, 67
2, 374400, Note_on_c, 0, 72, 67
2, 375168, Note_off_c, 0, 72, 64
2, 375168, Note_off_c, 0, 60, 64
2, 375168, Note_on_c, 0, 60, 72
2, 375168, Note_on_c, 0, 72, 72
2, 375552, Note_off_c, 0, 72, 64
2, 375552, Note_off_c, 0, 60, 64
2, 375552, Note_on_c, 0, 60, 74
2, 375552, Note_on_c, 0, 72, 74
2, 375936, Note_off_c, 0, 72, 64
2, 375936, Note_off_c, 0, 60, 64
2, 375936, Note_on_c, 0, 65, 76
2, 376064, Note_off_c, 0, 65, 64
2, 376064, Note_on_c, 0, 68, 79
2, 376192, Note_off_c, 0, 68, 64
2, 376192, Note_on_c, 0, 72, 79
2, 376320, Note_off_c, 0, 72, 64
2, 376320, Note_on_c, 0, 77, 80
2, 376448, Note_off_c, 0, 77, 64
2, 376448, Note_on_c, 0, 80, 80
2, 376576, Note_off_c, 0, 80, 64
2, 376576, Note_on_c, 0, 84, 80
2, 376704, Note_off_c, 0, 84, 64
2, 376704, Note_on_c, 0, 89, 80
2, 376832, Note_off_c, 0, 89, 64
2, 376832, Note_on_c, 0, 84, 81
2, 376960, Note_off_c, 0, 84, 64
2, 376960, Note_on_c, 0, 80, 81
2, 377088, Note_off_c, 0, 80, 64
2, 377088, Note_on_c, 0, 88, 81
2, 377216, Note_off_c, 0, 88, 64
2, 377216, Note_on_c, 0, 85, 81
2, 377344, Note_off_c, 0, 85, 64
2, 377344, Note_on_c, 0, 82, 81
2, 377472, Note_off_c, 0, 82, 64
2, 377472, Note_on_c, 0, 89, 82
2, 377600, Note_off_c, 0, 89, 64
2, 377600, Note_on_c, 0, 84, 82
2, 377728, Note_off_c, 0, 84, 64
2, 377728, Note_on_c, 0, 80, 82
2, 377856, Note_off_c, 0, 80, 64
2, 377856, Note_on_c, 0, 77, 82
2, 377984, Note_off_c, 0, 77, 64
2, 377984, Note_on_c, 0, 72, 83
2, 378112, Note_off_c, 0, 72, 64
2, 378112, Note_on_c, 0, 68, 83
2, 378240, Note_off_c, 0, 68, 64
2, 378240, Note_on_c, 0, 65, 83
2, 378368, Note_off_c, 0, 65, 64
2, 378368, Note_on_c, 0, 68, 83
2, 378496, Note_off_c, 0, 68, 64
2, 378496, Note_on_c, 0, 72, 83
2, 378624, Note_off_c, 0, 72, 64
2, 378624, Note_on_c, 0, 64, 84
2, 378752, Note_off_c, 0, 64, 64
2, 378752, Note_on_c, 0, 67, 84
2, 378880, Note_off_c, 0, 67, 64
2, 378880, Note_on_c, 0, 72, 84
2, 379008, Note_off_c, 0, 72, 64
2, 379008, Note_on_c, 0, 65, 84
2, 379136, Note_off_c, 0, 65, 64
2, 379136, Note_on_c, 0, 68, 85
2, 379264, Note_off_c, 0, 68, 64
2, 379264, Note_on_c, 0, 72, 85
2, 379392, Note_off_c, 0, 72, 64
2, 379392, Note_on_c, 0, 77, 85
2, 379520, Note_off_c, 0, 77, 64
2, 379520, Note_on_c, 0, 80, 85
2, 379648, Note_off_c, 0, 80, 64
2, 379648, Note_on_c, 0, 84, 86
2, 379776, Note_off_c, 0, 84, 64
2, 379776, Note_on_c, 0, 89, 86
2, 379904, Note_off_c, 0, 89, 64
2, 379904, Note_on_c, 0, 84, 86
2, 380032, Note_off_c, 0, 84, 64
2, 380032, Note_on_c, 0, 80, 86
2, 380160, Note_off_c, 0, 80, 64
2, 380160, Note_on_c, 0, 88, 86
2, 380288, Note_off_c, 0, 88, 64
2, 380288, Note_on_c, 0, 85, 87
2, 380416, Note_off_c, 0, 85, 64
2, 380416, Note_on_c, 0, 82, 87
2, 380544, Note_off_c, 0, 82, 64
2, 380544, Note_on_c, 0, 89, 87
2, 380672, Note_off_c, 0, 89, 64
2, 380672, Note_on_c, 0, 84, 87
2, 380800, Note_off_c, 0, 84, 64
2, 380800, Note_on_c, 0, 80, 88
2, 380928, Note_off_c, 0, 80, 64
2, 380928, Note_on_c, 0, 77, 88
2, 381056, Note_off_c, 0, 77, 64
2, 381056, Note_on_c, 0, 72, 88
2, 381184, Note_off_c, 0, 72, 64
2, 381184, Note_on_c, 0, 68, 88
2, 381312, Note_off_c, 0, 68, 64
2, 381312, Note_on_c, 0, 65, 88
2, 381440, Note_off_c, 0, 65, 64
2, 381440, Note_on_c, 0, 68, 89
2, 381568, Note_off_c, 0, 68, 64
2, 381568, Note_on_c, 0, 72, 89
2, 381696, Note_off_c, 0, 72, 64
2, 381696, Note_on_c, 0, 64, 89
2, 381824, Note_off_c, 0, 64, 64
2, 381824, Note_on_c, 0, 67, 89
2, 381952, Note_off_c, 0, 67, 64
2, 381952, Note_on_c, 0, 72, 90
2, 382080, Note_off_c, 0, 72, 64
2, 382080, Note_on_c, 0, 65, 90
2, 382208, Note_off_c, 0, 65, 64
2, 382208, Note_on_c, 0, 68, 90
2, 382336, Note_off_c, 0, 68, 64
2, 382336, Note_on_c, 0, 72, 90
2, 382464, Note_off_c, 0, 72, 64
2, 382464, Note_on_c, 0, 77, 90
2, 382592, Note_off_c, 0, 77, 64
2, 382592, Note_on_c, 0, 80, 91
2, 382720, Note_off_c, 0, 80, 64
2, 382720, Note_on_c, 0, 84, 91
2, 382848, Note_off_c, 0, 84, 64
2, 382848, Note_on_c, 0, 89, 91
2, 382976, Note_off_c, 0, 89, 64
2, 382976, Note_on_c, 0, 84, 91
2, 383104, Note_off_c, 0, 84, 64
2, 383104, Note_on_c, 0, 80, 92
2, 383232, Note_off_c, 0, 80, 64
2, 383232, Note_on_c, 0, 88, 92
2, 383360, Note_off_c, 0, 88, 64
2, 383360, Note_on_c, 0, 85, 92
2, 383488, Note_off_c, 0, 85, 64
2, 383488, Note_on_c, 0, 82, 92
2, 383616, Note_off_c, 0, 82, 64
2, 383616, Note_on_c, 0, 89, 93
2, 383744, Note_off_c, 0, 89, 64
2, 383744, Note_on_c, 0, 84, 93
2, 383872, Note_off_c, 0, 84, 64
2, 383872, Note_on_c, 0, 80, 93
2, 384000, Note_off_c, 0, 80, 64
2, 384000, Note_on_c, 0, 77, 93
2, 384128, Note_off_c, 0, 77, 64
2, 384128, Note_on_c, 0, 80, 93
2, 384256, Note_off_c, 0, 80, 64
2, 384256, Note_on_c, 0, 84, 94
2, 384384, Note_off_c, 0, 84, 64
2, 384384, Note_on_c, 0, 89, 94
2, 384512, Note_off_c, 0, 89, 64
2, 384512, Note_on_c, 0, 84, 94
2, 384640, Note_off_c, 0, 84, 64
2, 384640, Note_on_c, 0, 80, 94
2, 384768, Note_off_c, 0, 80, 64
2, 384768, Note_on_c, 0, 88, 95
2, 384896, Note_off_c, 0, 88, 64
2, 384896, Note_on_c, 0, 85, 95
2, 385024, Note_off_c, 0, 85, 64
2, 385024, Note_on_c, 0, 82, 95
2, 385152, Note_off_c, 0, 82, 64
2, 385152, Note_on_c, 0, 89, 95
2, 385280, Note_off_c, 0, 89, 64
2, 385280, Note_on_c, 0, 84, 95
2, 385408, Note_off_c, 0, 84, 64
2, 385408, Note_on_c, 0, 80, 96
2, 385536, Note_off_c, 0, 80, 64
2, 385536, Note_on_c, 0, 77, 96
2, 385664, Note_off_c, 0, 77, 64
2, 385664, Note_on_c, 0, 72, 96
2, 385792, Note_off_c, 0, 72, 64
2, 385792, Note_on_c, 0, 68, 96
2, 385920, Note_off_c, 0, 68, 64
2, 385920, Note_on_c, 0, 65, 97
2, 386048, Note_off_c, 0, 65, 64
2, 386048, Note_on_c, 0, 60, 97
2, 386176, Note_off_c, 0, 60, 64
2, 386176, Note_on_c, 0, 56, 97
2, 386304, Note_off_c, 0, 56, 64
2, 388224, Note_on_c, 0, 63, 52
2, 389760, Note_off_c, 0, 63, 64
2, 389760, Note_on_c, 0, 68, 52
2, 390528, Note_off_c, 0, 68, 64
2, 390528, Note_on_c, 0, 72, 52
2, 391296, Note_off_c, 0, 72, 64
2, 391296, Note_on_c, 0, 75, 52
2, 392448, Note_off_c, 0, 75, 64
2, 392448, Note_on_c, 0, 75, 52
2, 392832, Note_off_c, 0, 75, 64
2, 392832, Note_on_c, 0, 74, 52
2, 393216, Note_off_c, 0, 74, 64
2, 393216, Note_on_c, 0, 75, 52
2, 393600, Note_off_c, 0, 75, 64
2, 393600, Note_on_c, 0, 77, 52
2, 393984, Note_off_c, 0, 77, 64
2, 393984, Note_on_c, 0, 75, 52
2, 394272, Note_off_c, 0, 75, 64
2, 394368, Note_on_c, 0, 75, 52
2, 394752, Note_off_c, 0, 75, 64
2, 394752, Note_on_c, 0, 73, 52
2, 395136, Note_off_c, 0, 73, 64
2, 395520, Note_on_c, 0, 73, 52
2, 395808, Note_off_c, 0, 73, 64
2, 395904, Note_on_c, 0, 73, 52
2, 396288, Note_off_c, 0, 73, 64
2, 396288, Note_on_c, 0, 72, 52
2, 396672, Note_off_c, 0, 72, 64
2, 397056, Note_on_c, 0, 72, 52
2, 397344, Note_off_c, 0, 72, 64
2, 397440, Note_on_c, 0, 72, 52
2, 397632, Note_off_c, 0, 72, 64
2, 397632, Note_on_c, 0, 70, 52
2, 397824, Note_off_c, 0, 70, 64
2, 397824, Note_on_c, 0, 73, 52
2, 398016, Note_off_c, 0, 73, 64
2, 398016, Note_on_c, 0, 72, 52
2, 398208, Note_off_c, 0, 72, 64
2, 398208, Note_on_c, 0, 75, 52
2, 398400, Note_off_c, 0, 75, 64
2, 398400, Note_on_c, 0, 73, 52
2, 398592, Note_off_c, 0, 73, 64
2, 398592, Note_on_c, 0, 72, 52
2, 398784, Note_off_c, 0, 72, 64
2, 398784, Note_on_c, 0, 70, 52
2, 398976, Note_off_c, 0, 70, 64
2, 398976, Note_on_c, 0, 68, 52
2, 399360, Note_off_c, 0, 68, 64
2, 399360, Note_on_c, 0, 70, 32
2, 399456, Note_off_c, 0, 70, 64
2, 399456, Note_on_c, 0, 68, 37
2, 399552, Note_off_c, 0, 68, 64
2, 399552, Note_on_c, 0, 67, 42
2, 399648, Note_off_c, 0, 67, 64
2, 399648, Note_on_c, 0, 68, 47
2, 399744, Note_off_c, 0, 68, 64
2, 399744, Note_on_c, 0, 72, 52
2, 400128, Note_off_c, 0, 72, 64
2, 400128, Note_on_c, 0, 70, 52
2, 400416, Note_off_c, 0, 70, 64
2, 400512, Note_on_c, 0, 70, 52
2, 401664, Note_off_c, 0, 70, 64
2, 401664, Note_on_c, 0, 72, 52
2, 402048, Note_off_c, 0, 72, 64
2, 402048, Note_on_c, 0, 68, 52
2, 402432, Note_off_c, 0, 68, 64
2, 403584, Note_on_c, 0, 75, 52
2, 404736, Note_off_c, 0, 75, 64
2, 404736, Note_on_c, 0, 75, 52
2, 405120, Note_off_c, 0, 75, 64
2, 405120, Note_on_c, 0, 79, 52
2, 405504, Note_off_c, 0, 79, 64
2, 405504, Note_on_c, 0, 80, 52
2, 405888, Note_off_c, 0, 80, 64
2, 405888, Note_on_c, 0, 83, 52
2, 406272, Note_off_c, 0, 83, 64
2, 406272, Note_on_c, 0, 84, 52
2, 406656, Note_off_c, 0, 84, 64
2, 406656, Note_on_c, 0, 86, 52
2, 407040, Note_off_c, 0, 86, 64
2, 407040, Note_on_c, 0, 87, 52
2, 407424, Note_off_c, 0, 87, 64
2, 407808, Note_on_c, 0, 87, 52
2, 408192, Note_off_c, 0, 87, 64
2, 408192, Note_on_c, 0, 86, 52
2, 408576, Note_off_c, 0, 86, 64
2, 408576, Note_on_c, 0, 87, 52
2, 408960, Note_off_c, 0, 87, 64
2, 408960, Note_on_c, 0, 89, 52
2, 409344, Note_off_c, 0, 89, 64
2, 409344, Note_on_c, 0, 87, 52
2, 409728, Note_off_c, 0, 87, 64
2, 409728, Note_on_c, 0, 87, 52
2, 410112, Note_off_c, 0, 87, 64
2, 410112, Note_on_c, 0, 85, 52
2, 410496, Note_off_c, 0, 85, 64
2, 410880, Note_on_c, 0, 85, 52
2, 411264, Note_off_c, 0, 85, 64
2, 411264, Note_on_c, 0, 85, 52
2, 411648, Note_off_c, 0, 85, 64
2, 411648, Note_on_c, 0, 84, 52
2, 412032, Note_off_c, 0, 84, 64
2, 412416, Note_on_c, 0, 84, 52
2, 412704, Note_off_c, 0, 84, 64
2, 412800, Note_on_c, 0, 84, 52
2, 412992, Note_off_c, 0, 84, 64
2, 412992, Note_on_c, 0, 82, 52
2, 413184, Note_off_c, 0, 82, 64
2, 413184, Note_on_c, 0, 85, 52
2, 413376, Note_off_c, 0, 85, 64
2, 413376, Note_on_c, 0, 84, 52
2, 413568, Note_off_c, 0, 84, 64
2, 413568, Note_on_c, 0, 87, 52
2, 413760, Note_off_c, 0, 87, 64
2, 413760, Note_on_c, 0, 85, 52
2, 413952, Note_off_c, 0, 85, 64
2, 413952, Note_on_c, 0, 84, 52
2, 414144, Note_off_c, 0, 84, 64
2, 414144, Note_on_c, 0, 82, 52
2, 414336, Note_off_c, 0, 82, 64
2, 414336, Note_on_c, 0, 80, 52
2, 414720, Note_off_c, 0, 80, 64
2, 414720, Note_on_c, 0, 82, 33
2, 414816, Note_off_c, 0, 82, 64
2, 414816, Note_on_c, 0, 80, 38
2, 414912, Note_off_c, 0, 80, 64
2, 414912, Note_on_c, 0, 79, 44
2, 415008, Note_off_c, 0, 79, 64
2, 415008, Note_on_c, 0, 80, 49
2, 415104, Note_off_c, 0, 80, 64
2, 415104, Note_on_c, 0, 84, 54
2, 415488, Note_off_c, 0, 84, 64
2, 415488, Note_on_c, 0, 82, 52
2, 415776, Note_off_c, 0, 82, 64
2, 415872, Note_on_c, 0, 73, 52
2, 415872, Note_on_c, 0, 82, 52
2, 417024, Note_off_c, 0, 82, 64
2, 417024, Note_on_c, 0, 84, 52
2, 417408, Note_off_c, 0, 84, 64
2, 417408, Note_off_c, 0, 73, 64
2, 417408, Note_on_c, 0, 72, 52
2, 417408, Note_on_c, 0, 80, 52
2, 417792, Note_off_c, 0, 80, 64
2, 417792, Note_off_c, 0, 72, 64
2, 418560, Note_on_c, 0, 75, 52
2, 418848, Note_off_c, 0, 75, 64
2, 418944, Note_on_c, 0, 75, 52
2, 419328, Note_off_c, 0, 75, 64
2, 419328, Note_on_c, 0, 77, 52
2, 419712, Note_off_c, 0, 77, 64
2, 419712, Note_on_c, 0, 79, 52
2, 420096, Note_off_c, 0, 79, 64
2, 420096, Note_on_c, 0, 80, 52
2, 420480, Note_off_c, 0, 80, 64
2, 420480, Note_on_c, 0, 82, 52
2, 420864, Note_off_c, 0, 82, 64
2, 420864, Note_on_c, 0, 79, 52
2, 421248, Note_off_c, 0, 79, 64
2, 421248, Note_on_c, 0, 75, 52
2, 421632, Note_off_c, 0, 75, 64
2, 421632, Note_on_c, 0, 73, 52
2, 422016, Note_off_c, 0, 73, 64
2, 422016, Note_on_c, 0, 75, 52
2, 423168, Note_off_c, 0, 75, 64
2, 423168, Note_on_c, 0, 73, 29
2, 423244, Note_off_c, 0, 73, 64
2, 423244, Note_on_c, 0, 75, 34
2, 423322, Note_off_c, 0, 75, 64
2, 423322, Note_on_c, 0, 73, 40
2, 423398, Note_off_c, 0, 73, 64
2, 423398, Note_on_c, 0, 75, 45
2, 423476, Note_off_c, 0, 75, 64
2, 423476, Note_on_c, 0, 73, 50
2, 423552, Note_off_c, 0, 73, 64
2, 423552, Note_on_c, 0, 72, 55
2, 423936, Note_off_c, 0, 72, 64
2, 424704, Note_on_c, 0, 75, 52
2, 424992, Note_off_c, 0, 75, 64
2, 425088, Note_on_c, 0, 75, 52
2, 425280, Note_off_c, 0, 75, 64
2, 425280, Note_on_c, 0, 77, 52
2, 425472, Note_off_c, 0, 77, 64
2, 425472, Note_on_c, 0, 75, 50
2, 425664, Note_off_c, 0, 75, 64
2, 425664, Note_on_c, 0, 74, 50
2, 425856, Note_off_c, 0, 74, 64
2, 425856, Note_on_c, 0, 75, 50
2, 426048, Note_off_c, 0, 75, 64
2, 426048, Note_on_c, 0, 77, 50
2, 426240, Note_off_c, 0, 77, 64
2, 426240, Note_on_c, 0, 79, 50
2, 426432, Note_off_c, 0, 79, 64
2, 426432, Note_on_c, 0, 80, 50
2, 426624, Note_off_c, 0, 80, 64
2, 426624, Note_on_c, 0, 81, 50
2, 426816, Note_off_c, 0, 81, 64
2, 426816, Note_on_c, 0, 82, 50
2, 427008, Note_off_c, 0, 82, 64
2, 427008, Note_on_c, 0, 84, 50
2, 427200, Note_off_c, 0, 84, 64
2, 427200, Note_on_c, 0, 82, 50
2, 427392, Note_off_c, 0, 82, 64
2, 427392, Note_on_c, 0, 80, 50
2, 427584, Note_off_c, 0, 80, 64
2, 427584, Note_on_c, 0, 79, 50
2, 427776, Note_off_c, 0, 79, 64
2, 427776, Note_on_c, 0, 77, 50
2, 427968, Note_off_c, 0, 77, 64
2, 427968, Note_on_c, 0, 75, 50
2, 428160, Note_off_c, 0, 75, 64
2, 428160, Note_on_c, 0, 75, 50
2, 428928, Note_off_c, 0, 75, 64
2, 428928, Note_on_c, 0, 73, 32
2, 429024, Note_off_c, 0, 73, 64
2, 429024, Note_on_c, 0, 75, 34
2, 429120, Note_off_c, 0, 75, 64
2, 429120, Note_on_c, 0, 73, 36
2, 429216, Note_off_c, 0, 73, 64
2, 429216, Note_on_c, 0, 75, 38
2, 429312, Note_off_c, 0, 75, 64
2, 429312, Note_on_c, 0, 73, 41
2, 429388, Note_off_c, 0, 73, 64
2, 429388, Note_on_c, 0, 75, 42
2, 429466, Note_off_c, 0, 75, 64
2, 429466, Note_on_c, 0, 73, 44
2, 429542, Note_off_c, 0, 73, 64
2, 429542, Note_on_c, 0, 75, 46
2, 429620, Note_off_c, 0, 75, 64
2, 429620, Note_on_c, 0, 73, 48
2, 429696, Note_off_c, 0, 73, 64
2, 429696, Note_on_c, 0, 72, 50
2, 430080, Note_off_c, 0, 72, 64
2, 431232, Note_on_c, 0, 63, 50
2, 431232, Note_on_c, 0, 75, 50
2, 432768, Note_off_c, 0, 75, 64
2, 432768, Note_off_c, 0, 63, 64
2, 432768, Note_on_c, 0, 68, 50
2, 432768, Note_on_c, 0, 80, 50
2, 433536, Note_off_c, 0, 80, 64
2, 433536, Note_off_c, 0, 68, 64
2, 433536, Note_on_c, 0, 72, 50
2, 433536, Note_on_c, 0, 84, 50
2, 434304, Note_off_c, 0, 84, 64
2, 434304, Note_off_c, 0, 72, 64
2, 434304, Note_on_c, 0, 75, 50
2, 434304, Note_on_c, 0, 87, 50
2, 434688, Note_off_c, 0, 87, 64
2, 434688, Note_off_c, 0, 75, 64
2, 434688, Note_on_c, 0, 73, 50
2, 434688, Note_on_c, 0, 85, 50
2, 434976, Note_off_c, 0, 85, 64
2, 434976, Note_off_c, 0, 73, 64
2, 435456, Note_on_c, 0, 73, 50
2, 435456, Note_on_c, 0, 85, 50
2, 435744, Note_off_c, 0, 85, 64
2, 435744, Note_off_c, 0, 73, 64
2, 435840, Note_on_c, 0, 73, 50
2, 435840, Note_on_c, 0, 85, 50
2, 436224, Note_off_c, 0, 85, 64
2, 436224, Note_off_c, 0, 73, 64
2, 436224, Note_on_c, 0, 72, 50
2, 436224, Note_on_c, 0, 84, 50
2, 436512, Note_off_c, 0, 84, 64
2, 436512, Note_off_c, 0, 72, 64
2, 436992, Note_on_c, 0, 72, 50
2, 436992, Note_on_c, 0, 84, 50
2, 437280, Note_off_c, 0, 84, 64
2, 437280, Note_off_c, 0, 72, 64
2, 437376, Note_on_c, 0, 72, 50
2, 437376, Note_on_c, 0, 84, 50
2, 437760, Note_off_c, 0, 84, 64
2, 437760, Note_off_c, 0, 72, 64
2, 437760, Note_on_c, 0, 70, 50
2, 437760, Note_on_c, 0, 82, 50
2, 438144, Note_off_c, 0, 82, 64
2, 438144, Note_off_c, 0, 70, 64
2, 438144, Note_on_c, 0, 77, 50
2, 438144, Note_on_c, 0, 89, 50
2, 438528, Note_off_c, 0, 89, 64
2, 438528, Note_off_c, 0, 77, 64
2, 438528, Note_on_c, 0, 75, 50
2, 438528, Note_on_c, 0, 87, 50
2, 438912, Note_off_c, 0, 87, 64
2, 438912, Note_off_c, 0, 75, 64
2, 438912, Note_on_c, 0, 75, 50
2, 438912, Note_on_c, 0, 87, 50
2, 439296, Note_off_c, 0, 87, 64
2, 439296, Note_off_c, 0, 75, 64
2, 439296, Note_on_c, 0, 73, 50
2, 439296, Note_on_c, 0, 85, 50
2, 439680, Note_off_c, 0, 85, 64
2, 439680, Note_off_c, 0, 73, 64
2, 439680, Note_on_c, 0, 72, 50
2, 439680, Note_on_c, 0, 84, 50
2, 440064, Note_off_c, 0, 84, 64
2, 440064, Note_off_c, 0, 72, 64
2, 440064, Note_on_c, 0, 70, 50
2, 440064, Note_on_c, 0, 82, 50
2, 440448, Note_off_c, 0, 82, 64
2, 440448, Note_off_c, 0, 70, 64
2, 440448, Note_on_c, 0, 70, 50
2, 440448, Note_on_c, 0, 82, 50
2, 441600, Note_off_c, 0, 82, 64
2, 441600, Note_off_c, 0, 70, 64
2, 441600, Note_on_c, 0, 72, 50
2, 441600, Note_on_c, 0, 84, 50
2, 441984, Note_off_c, 0, 84, 64
2, 441984, Note_off_c, 0, 72, 64
2, 441984, Note_on_c, 0, 68, 50
2, 441984, Note_on_c, 0, 80, 50
2, 442368, Note_off_c, 0, 80, 64
2, 442368, Note_off_c, 0, 68, 64
2, 443136, Note_on_c, 0, 75, 50
2, 443424, Note_off_c, 0, 75, 64
2, 443520, Note_on_c, 0, 75, 50
2, 443904, Note_off_c, 0, 75, 64
2, 443904, Note_on_c, 0, 77, 50
2, 444288, Note_off_c, 0, 77, 64
2, 444288, Note_on_c, 0, 79, 50
2, 444672, Note_off_c, 0, 79, 64
2, 444672, Note_on_c, 0, 80, 50
2, 445056, Note_off_c, 0, 80, 64
2, 445056, Note_on_c, 0, 82, 50
2, 445440, Note_off_c, 0, 82, 64
2, 445440, Note_on_c, 0, 79, 50
2, 445824, Note_off_c, 0, 79, 64
2, 445824, Note_on_c, 0, 75, 50
2, 446208, Note_off_c, 0, 75, 64
2, 446208, Note_on_c, 0, 73, 50
2, 446592, Note_off_c, 0, 73, 64
2, 446592, Note_on_c, 0, 75, 50
2, 447744, Note_off_c, 0, 75, 64
2, 447744, Note_on_c, 0, 73, 27
2, 447820, Note_off_c, 0, 73, 64
2, 447820, Note_on_c, 0, 75, 32
2, 447898, Note_off_c, 0, 75, 64
2, 447898, Note_on_c, 0, 73, 37
2, 447974, Note_off_c, 0, 73, 64
2, 447974, Note_on_c, 0, 75, 42
2, 448052, Note_off_c, 0, 75, 64
2, 448052, Note_on_c, 0, 73, 46
2, 448128, Note_off_c, 0, 73, 64
2, 448128, Note_on_c, 0, 72, 51
2, 448512, Note_off_c, 0, 72, 64
2, 449280, Note_on_c, 0, 75, 50
2, 449568, Note_off_c, 0, 75, 64
2, 449664, Note_on_c, 0, 75, 50
2, 449856, Note_off_c, 0, 75, 64
2, 449856, Note_on_c, 0, 77, 50
2, 450048, Note_off_c, 0, 77, 64
2, 450048, Note_on_c, 0, 75, 50
2, 450240, Note_off_c, 0, 75, 64
2, 450240, Note_on_c, 0, 74, 50
2, 450432, Note_off_c, 0, 74, 64
2, 450432, Note_on_c, 0, 75, 50
2, 450624, Note_off_c, 0, 75, 64
2, 450624, Note_on_c, 0, 77, 50
2, 450816, Note_off_c, 0, 77, 64
2, 450816, Note_on_c, 0, 79, 50
2, 451008, Note_off_c, 0, 79, 64
2, 451008, Note_on_c, 0, 80, 50
2, 451200, Note_off_c, 0, 80, 64
2, 451200, Note_on_c, 0, 82, 50
2, 451392, Note_off_c, 0, 82, 64
2, 451392, Note_on_c, 0, 83, 50
2, 451584, Note_off_c, 0, 83, 64
2, 451584, Note_on_c, 0, 84, 50
2, 451776, Note_off_c, 0, 84, 64
2, 451776, Note_on_c, 0, 85, 50
2, 451968, Note_off_c, 0, 85, 64
2, 451968, Note_on_c, 0, 86, 50
2, 452160, Note_off_c, 0, 86, 64
2, 452160, Note_on_c, 0, 87, 50
2, 452352, Note_off_c, 0, 87, 64
2, 452352, Note_on_c, 0, 89, 50
2, 452544, Note_off_c, 0, 89, 64
2, 452544, Note_on_c, 0, 87, 50
2, 452736, Note_off_c, 0, 87, 64
2, 452736, Note_on_c, 0, 87, 50
2, 453504, Note_off_c, 0, 87, 64
2, 453504, Note_on_c, 0, 85, 23
2, 453600, Note_off_c, 0, 85, 64
2, 453600, Note_on_c, 0, 87, 27
2, 453696, Note_off_c, 0, 87, 64
2, 453696, Note_on_c, 0, 85, 30
2, 453792, Note_off_c, 0, 85, 64
2, 453792, Note_on_c, 0, 87, 34
2, 453888, Note_off_c, 0, 87, 64
2, 453888, Note_on_c, 0, 85, 38
2, 453964, Note_off_c, 0, 85, 64
2, 453964, Note_on_c, 0, 87, 41
2, 454042, Note_off_c, 0, 87, 64
2, 454042, Note_on_c, 0, 85, 44
2, 454118, Note_off_c, 0, 85, 64
2, 454118, Note_on_c, 0, 87, 47
2, 454196, Note_off_c, 0, 87, 64
2, 454196, Note_on_c, 0, 85, 50
2, 454272, Note_off_c, 0, 85, 64
2, 454272, Note_on_c, 0, 84, 52
2, 454656, Note_off_c, 0, 84, 64
2, 455808, Note_on_c, 0, 63, 50
2, 455808, Note_on_c, 0, 75, 50
2, 457344, Note_off_c, 0, 75, 64
2, 457344, Note_off_c, 0, 63, 64
2, 457344, Note_on_c, 0, 68, 57
2, 457344, Note_on_c, 0, 80, 57
2, 458112, Note_off_c, 0, 80, 64
2, 458112, Note_off_c, 0, 68, 64
2, 458112, Note_on_c, 0, 72, 61
2, 458112, Note_on_c, 0, 84, 61
2, 458880, Note_off_c, 0, 84, 64
2, 458880, Note_off_c, 0, 72, 64
2, 458880, Note_on_c, 0, 75, 64
2, 458880, Note_on_c, 0, 87, 64
2, 459264, Note_off_c, 0, 87, 64
2, 459264, Note_off_c, 0, 75, 64
2, 459264, Note_on_c, 0, 73, 50
2, 459264, Note_on_c, 0, 85, 50
2, 459552, Note_off_c, 0, 85, 64
2, 459552, Note_off_c, 0, 73, 64
2, 460032, Note_on_c, 0, 73, 57
2, 460032, Note_on_c, 0, 85, 57
2, 460320, Note_off_c, 0, 85, 64
2, 460320, Note_off_c, 0, 73, 64
2, 460416, Note_on_c, 0, 73, 64
2, 460416, Note_on_c, 0, 85, 64
2, 460800, Note_off_c, 0, 85, 64
2, 460800, Note_off_c, 0, 73, 64
2, 460800, Note_on_c, 0, 72, 50
2, 460800, Note_on_c, 0, 84, 50
2, 461088, Note_off_c, 0, 84, 64
2, 461088, Note_off_c, 0, 72, 64
2, 461568, Note_on_c, 0, 72, 50
2, 461568, Note_on_c, 0, 84, 50
2, 461856, Note_off_c, 0, 84, 64
2, 461856, Note_off_c, 0, 72, 64
2, 461952, Note_on_c, 0, 72, 50
2, 461952, Note_on_c, 0, 84, 50
2, 462336, Note_off_c, 0, 84, 64
2, 462336, Note_off_c, 0, 72, 64
2, 462336, Note_on_c, 0, 70, 48
2, 462336, Note_on_c, 0, 82, 48
2, 462720, Note_off_c, 0, 82, 64
2, 462720, Note_off_c, 0, 70, 64
2, 462720, Note_on_c, 0, 77, 48
2, 462720, Note_on_c, 0, 89, 48
2, 463104, Note_off_c, 0, 89, 64
2, 463104, Note_off_c, 0, 77, 64
2, 463104, Note_on_c, 0, 75, 48
2, 463104, Note_on_c, 0, 87, 48
2, 463488, Note_off_c, 0, 87, 64
2, 463488, Note_off_c, 0, 75, 64
2, 463488, Note_on_c, 0, 75, 48
2, 463488, Note_on_c, 0, 87, 48
2, 463872, Note_off_c, 0, 87, 64
2, 463872, Note_off_c, 0, 75, 64
2, 463872, Note_on_c, 0, 73, 48
2, 463872, Note_on_c, 0, 85, 48
2, 464256, Note_off_c, 0, 85, 64
2, 464256, Note_off_c, 0, 73, 64
2, 464256, Note_on_c, 0, 72, 48
2, 464256, Note_on_c, 0, 84, 48
2, 464640, Note_off_c, 0, 84, 64
2, 464640, Note_off_c, 0, 72, 64
2, 464640, Note_on_c, 0, 70, 48
2, 464640, Note_on_c, 0, 82, 48
2, 465024, Note_off_c, 0, 82, 64
2, 465024, Note_off_c, 0, 70, 64
2, 465024, Note_on_c, 0, 68, 48
2, 465024, Note_on_c, 0, 80, 48
2, 465408, Note_off_c, 0, 80, 64
2, 465408, Note_off_c, 0, 68, 64
2, 465792, Note_on_c, 0, 60, 38
2, 465792, Note_on_c, 0, 72, 38
2, 465984, Note_off_c, 0, 72, 64
2, 465984, Note_off_c, 0, 60, 64
2, 466176, Note_on_c, 0, 59, 38
2, 466176, Note_on_c, 0, 71, 38
2, 466368, Note_off_c, 0, 71, 64
2, 466368, Note_off_c, 0, 59, 64
2, 466560, Note_on_c, 0, 60, 39
2, 466560, Note_on_c, 0, 72, 39
2, 466752, Note_off_c, 0, 72, 64
2, 466752, Note_off_c, 0, 60, 64
2, 467328, Note_on_c, 0, 60, 40
2, 467328, Note_on_c, 0, 72, 40
2, 467520, Note_off_c, 0, 72, 64
2, 467520, Note_off_c, 0, 60, 64
2, 467712, Note_on_c, 0, 59, 40
2, 467712, Note_on_c, 0, 71, 40
2, 467904, Note_off_c, 0, 71, 64
2, 467904, Note_off_c, 0, 59, 64
2, 468096, Note_on_c, 0, 72, 41
2, 469248, Note_off_c, 0, 72, 64
2, 469248, Note_on_c, 0, 73, 35
2, 469344, Note_off_c, 0, 73, 64
2, 469344, Note_on_c, 0, 72, 42
2, 469440, Note_off_c, 0, 72, 64
2, 469440, Note_on_c, 0, 71, 50
2, 469536, Note_off_c, 0, 71, 64
2, 469536, Note_on_c, 0, 72, 57
2, 469632, Note_off_c, 0, 72, 64
2, 469632, Note_on_c, 0, 84, 64
2, 470784, Note_off_c, 0, 84, 64
2, 470784, Note_on_c, 0, 72, 50
2, 471168, Note_off_c, 0, 72, 64
2, 471168, Note_on_c, 0, 70, 40
2, 471552, Note_off_c, 0, 70, 64
2, 471936, Note_on_c, 0, 58, 36
2, 471936, Note_on_c, 0, 70, 36
2, 472128, Note_off_c, 0, 70, 64
2, 472128, Note_off_c, 0, 58, 64
2, 472320, Note_on_c, 0, 57, 36
2, 472320, Note_on_c, 0, 69, 36
2, 472512, Note_off_c, 0, 69, 64
2, 472512, Note_off_c, 0, 57, 64
2, 472704, Note_on_c, 0, 58, 36
2, 472704, Note_on_c, 0, 70, 36
2, 472896, Note_off_c, 0, 70, 64
2, 472896, Note_off_c, 0, 58, 64
2, 473472, Note_on_c, 0, 58, 36
2, 473472, Note_on_c, 0, 70, 36
2, 473664, Note_off_c, 0, 70, 64
2, 473664, Note_off_c, 0, 58, 64
2, 473856, Note_on_c, 0, 57, 36
2, 473856, Note_on_c, 0, 69, 36
2, 474048, Note_off_c, 0, 69, 64
2, 474048, Note_off_c, 0, 57, 64
2, 474240, Note_on_c, 0, 70, 36
2, 475392, Note_off_c, 0, 70, 64
2, 475392, Note_on_c, 0, 72, 35
2, 475488, Note_off_c, 0, 72, 64
2, 475488, Note_on_c, 0, 70, 42
2, 475584, Note_off_c, 0, 70, 64
2, 475584, Note_on_c, 0, 69, 49
2, 475680, Note_off_c, 0, 69, 64
2, 475680, Note_on_c, 0, 70, 56
2, 475776, Note_off_c, 0, 70, 64
2, 475776, Note_on_c, 0, 82, 64
2, 476928, Note_off_c, 0, 82, 64
2, 476928, Note_on_c, 0, 70, 46
2, 477312, Note_off_c, 0, 70, 64
2, 477312, Note_on_c, 0, 68, 35
2, 477696, Note_off_c, 0, 68, 64
2, 478080, Note_on_c, 0, 56, 34
2, 478080, Note_on_c, 0, 68, 34
2, 478272, Note_off_c, 0, 68, 64
2, 478272, Note_off_c, 0, 56, 64
2, 478464, Note_on_c, 0, 55, 34
2, 478464, Note_on_c, 0, 67, 34
2, 478656, Note_off_c, 0, 67, 64
2, 478656, Note_off_c, 0, 55, 64
2, 478848, Note_on_c, 0, 56, 35
2, 478848, Note_on_c, 0, 68, 35
2, 479040, Note_off_c, 0, 68, 64
2, 479040, Note_off_c, 0, 56, 64
2, 479616, Note_on_c, 0, 56, 36
2, 479616, Note_on_c, 0, 68, 36
2, 479808, Note_off_c, 0, 68, 64
2, 479808, Note_off_c, 0, 56, 64
2, 480000, Note_on_c, 0, 55, 37
2, 480000, Note_on_c, 0, 67, 37
2, 480192, Note_off_c, 0, 67, 64
2, 480192, Note_off_c, 0, 55, 64
2, 480384, Note_on_c, 0, 68, 37
2, 481536, Note_off_c, 0, 68, 64
2, 481536, Note_on_c, 0, 70, 26
2, 481632, Note_off_c, 0, 70, 64
2, 481632, Note_on_c, 0, 68, 32
2, 481728, Note_off_c, 0, 68, 64
2, 481728, Note_on_c, 0, 67, 38
2, 481824, Note_off_c, 0, 67, 64
2, 481824, Note_on_c, 0, 68, 44
2, 481920, Note_off_c, 0, 68, 64
2, 481920, Note_on_c, 0, 80, 50
2, 483072, Note_off_c, 0, 80, 64
2, 483072, Note_on_c, 0, 68, 55
2, 483456, Note_off_c, 0, 68, 64
2, 483456, Note_on_c, 0, 80, 57
2, 484608, Note_off_c, 0, 80, 64
2, 484608, Note_on_c, 0, 68, 63
2, 484992, Note_off_c, 0, 68, 64
2, 484992, Note_on_c, 0, 80, 65
2, 486144, Note_off_c, 0, 80, 64
2, 486144, Note_on_c, 0, 68, 71
2, 486528, Note_off_c, 0, 68, 64
2, 486528, Note_on_c, 0, 80, 73
2, 487680, Note_off_c, 0, 80, 64
2, 487680, Note_on_c, 0, 68, 78
2, 488064, Note_off_c, 0, 68, 64
2, 488064, Note_on_c, 0, 81, 80
2, 489216, Note_off_c, 0, 81, 64
2, 489216, Note_on_c, 0, 69, 86
2, 489600, Note_off_c, 0, 69, 64
2, 489600, Note_on_c, 0, 82, 88
2, 489984, Note_on_c, 0, 70, 85
2, 490752, Note_off_c, 0, 70, 64
2, 490752, Note_off_c, 0, 82, 64
2, 490752, Note_on_c, 0, 68, 81
2, 490752, Note_on_c, 0, 80, 81
2, 491136, Note_off_c, 0, 80, 64
2, 491136, Note_off_c, 0, 68, 64
2, 491136, Note_on_c, 0, 79, 78
2, 491520, Note_off_c, 0, 79, 64
2, 491520, Note_on_c, 0, 67, 76
2, 491904, Note_off_c, 0, 67, 64
2, 491904, Note_on_c, 0, 77, 73
2, 492288, Note_off_c, 0, 77, 64
2, 492288, Note_on_c, 0, 65, 71
2, 492672, Note_off_c, 0, 65, 64
2, 492672, Note_on_c, 0, 76, 69
2, 493056, Note_off_c, 0, 76, 64
2, 493056, Note_on_c, 0, 60, 59
2, 493184, Note_off_c, 0, 60, 64
2, 493184, Note_on_c, 0, 64, 49
2, 493312, Note_off_c, 0, 64, 64
2, 493312, Note_on_c, 0, 67, 40
2, 493440, Note_off_c, 0, 67, 64
2, 493440, Note_on_c, 0, 72, 45
2, 493568, Note_off_c, 0, 72, 64
2, 493568, Note_on_c, 0, 67, 45
2, 493696, Note_off_c, 0, 67, 64
2, 493696, Note_on_c, 0, 64, 45
2, 493824, Note_off_c, 0, 64, 64
2, 493824, Note_on_c, 0, 71, 45
2, 493952, Note_off_c, 0, 71, 64
2, 493952, Note_on_c, 0, 68, 45
2, 494080, Note_off_c, 0, 68, 64
2, 494080, Note_on_c, 0, 65, 45
2, 494208, Note_off_c, 0, 65, 64
2, 494208, Note_on_c, 0, 72, 46
2, 494336, Note_off_c, 0, 72, 64
2, 494336, Note_on_c, 0, 67, 46
2, 494464, Note_off_c, 0, 67, 64
2, 494464, Note_on_c, 0, 64, 46
2, 494592, Note_off_c, 0, 64, 64
2, 494592, Note_on_c, 0, 60, 46
2, 494720, Note_off_c, 0, 60, 64
2, 494720, Note_on_c, 0, 67, 46
2, 494848, Note_off_c, 0, 67, 64
2, 494848, Note_on_c, 0, 64, 46
2, 494976, Note_off_c, 0, 64, 64
2, 495104, Note_on_c, 0, 67, 47
2, 495232, Note_off_c, 0, 67, 64
2, 495232, Note_on_c, 0, 64, 47
2, 495360, Note_off_c, 0, 64, 64
2, 495488, Note_on_c, 0, 68, 47
2, 495616, Note_off_c, 0, 68, 64
2, 495616, Note_on_c, 0, 65, 47
2, 495744, Note_off_c, 0, 65, 64
2, 496128, Note_on_c, 0, 60, 48
2, 496256, Note_off_c, 0, 60, 64
2, 496256, Note_on_c, 0, 64, 48
2, 496384, Note_off_c, 0, 64, 64
2, 496384, Note_on_c, 0, 67, 48
2, 496512, Note_off_c, 0, 67, 64
2, 496512, Note_on_c, 0, 72, 48
2, 496640, Note_off_c, 0, 72, 64
2, 496640, Note_on_c, 0, 67, 48
2, 496768, Note_off_c, 0, 67, 64
2, 496768, Note_on_c, 0, 64, 49
2, 496896, Note_off_c, 0, 64, 64
2, 496896, Note_on_c, 0, 71, 49
2, 497024, Note_off_c, 0, 71, 64
2, 497024, Note_on_c, 0, 68, 49
2, 497152, Note_off_c, 0, 68, 64
2, 497152, Note_on_c, 0, 65, 49
2, 497280, Note_off_c, 0, 65, 64
2, 497280, Note_on_c, 0, 72, 49
2, 497408, Note_off_c, 0, 72, 64
2, 497408, Note_on_c, 0, 67, 49
2, 497536, Note_off_c, 0, 67, 64
2, 497536, Note_on_c, 0, 64, 49
2, 497664, Note_off_c, 0, 64, 64
2, 497664, Note_on_c, 0, 60, 50
2, 497792, Note_off_c, 0, 60, 64
2, 497792, Note_on_c, 0, 67, 50
2, 497920, Note_off_c, 0, 67, 64
2, 497920, Note_on_c, 0, 64, 50
2, 498048, Note_off_c, 0, 64, 64
2, 498176, Note_on_c, 0, 67, 50
2, 498304, Note_off_c, 0, 67, 64
2, 498304, Note_on_c, 0, 64, 50
2, 498432, Note_off_c, 0, 64, 64
2, 498560, Note_on_c, 0, 68, 51
2, 498688, Note_off_c, 0, 68, 64
2, 498688, Note_on_c, 0, 65, 51
2, 498816, Note_off_c, 0, 65, 64
2, 498944, Note_on_c, 0, 67, 51
2, 499072, Note_off_c, 0, 67, 64
2, 499072, Note_on_c, 0, 64, 51
2, 499200, Note_off_c, 0, 64, 64
2, 499200, Note_on_c, 0, 72, 51
2, 499328, Note_off_c, 0, 72, 64
2, 499328, Note_on_c, 0, 67, 52
2, 499456, Note_off_c, 0, 67, 64
2, 499456, Note_on_c, 0, 64, 52
2, 499584, Note_off_c, 0, 64, 64
2, 499584, Note_on_c, 0, 73, 60
2, 499712, Note_on_c, 0, 67, 52
2, 499840, Note_off_c, 0, 67, 64
2, 499840, Note_on_c, 0, 64, 52
2, 499968, Note_off_c, 0, 64, 64
2, 499968, Note_off_c, 0, 73, 64
2, 499968, Note_on_c, 0, 72, 59
2, 500096, Note_on_c, 0, 67, 54
2, 500224, Note_off_c, 0, 67, 64
2, 500224, Note_on_c, 0, 64, 54
2, 500352, Note_off_c, 0, 64, 64
2, 500352, Note_off_c, 0, 72, 64
2, 500352, Note_on_c, 0, 73, 59
2, 500480, Note_on_c, 0, 67, 54
2, 500608, Note_off_c, 0, 67, 64
2, 500608, Note_on_c, 0, 64, 54
2, 500736, Note_off_c, 0, 64, 64
2, 500736, Note_off_c, 0, 73, 64
2, 500864, Note_on_c, 0, 67, 54
2, 500992, Note_off_c, 0, 67, 64
2, 500992, Note_on_c, 0, 64, 54
2, 501120, Note_off_c, 0, 64, 64
2, 501120, Note_on_c, 0, 73, 62
2, 501248, Note_on_c, 0, 67, 54
2, 501376, Note_off_c, 0, 67, 64
2, 501376, Note_on_c, 0, 64, 54
2, 501504, Note_off_c, 0, 64, 64
2, 501504, Note_off_c, 0, 73, 64
2, 501504, Note_on_c, 0, 72, 60
2, 501632, Note_on_c, 0, 67, 55
2, 501760, Note_off_c, 0, 67, 64
2, 501760, Note_on_c, 0, 64, 55
2, 501888, Note_off_c, 0, 64, 64
2, 501888, Note_off_c, 0, 72, 64
2, 501888, Note_on_c, 0, 73, 60
2, 502016, Note_on_c, 0, 67, 55
2, 502144, Note_off_c, 0, 67, 64
2, 502144, Note_on_c, 0, 64, 55
2, 502272, Note_off_c, 0, 64, 64
2, 502272, Note_off_c, 0, 73, 64
2, 502400, Note_on_c, 0, 67, 55
2, 502528, Note_off_c, 0, 67, 64
2, 502528, Note_on_c, 0, 64, 55
2, 502656, Note_off_c, 0, 64, 64
2, 502656, Note_on_c, 0, 73, 65
2, 502784, Note_on_c, 0, 67, 57
2, 502912, Note_off_c, 0, 67, 64
2, 502912, Note_on_c, 0, 64, 57
2, 503040, Note_off_c, 0, 64, 64
2, 503040, Note_off_c, 0, 73, 64
2, 503040, Note_on_c, 0, 72, 62
2, 503168, Note_on_c, 0, 67, 57
2, 503296, Note_off_c, 0, 67, 64
2, 503296, Note_on_c, 0, 64, 57
2, 503424, Note_off_c, 0, 64, 64
2, 503424, Note_off_c, 0, 72, 64
2, 503424, Note_on_c, 0, 73, 62
2, 503552, Note_on_c, 0, 67, 57
2, 503680, Note_off_c, 0, 67, 64
2, 503680, Note_on_c, 0, 64, 57
2, 503808, Note_off_c, 0, 64, 64
2, 503808, Note_off_c, 0, 73, 64
2, 503808, Note_on_c, 0, 72, 62
2, 503936, Note_on_c, 0, 67, 56
2, 504064, Note_off_c, 0, 67, 64
2, 504064, Note_on_c, 0, 64, 56
2, 504192, Note_off_c, 0, 64, 64
2, 504192, Note_off_c, 0, 72, 64
2, 504192, Note_on_c, 0, 73, 61
2, 504320, Note_on_c, 0, 67, 56
2, 504448, Note_off_c, 0, 67, 64
2, 504448, Note_on_c, 0, 64, 55
2, 504576, Note_off_c, 0, 64, 64
2, 504576, Note_off_c, 0, 73, 64
2, 504576, Note_on_c, 0, 72, 60
2, 504704, Note_on_c, 0, 67, 55
2, 504832, Note_off_c, 0, 67, 64
2, 504832, Note_on_c, 0, 64, 54
2, 504960, Note_off_c, 0, 64, 64
2, 504960, Note_off_c, 0, 72, 64
2, 504960, Note_on_c, 0, 73, 59
2, 505088, Note_off_c, 0, 73, 64
2, 505088, Note_on_c, 0, 67, 54
2, 505216, Note_off_c, 0, 67, 64
2, 505216, Note_on_c, 0, 64, 54
2, 505344, Note_off_c, 0, 64, 64
2, 505344, Note_on_c, 0, 72, 58
2, 505472, Note_off_c, 0, 72, 64
2, 505472, Note_on_c, 0, 67, 53
2, 505600, Note_off_c, 0, 67, 64
2, 505600, Note_on_c, 0, 64, 53
2, 505728, Note_off_c, 0, 64, 64
2, 505728, Note_on_c, 0, 73, 58
2, 505856, Note_off_c, 0, 73, 64
2, 505856, Note_on_c, 0, 67, 52
2, 505984, Note_off_c, 0, 67, 64
2, 505984, Note_on_c, 0, 64, 52
2, 506112, Note_off_c, 0, 64, 64
2, 506112, Note_on_c, 0, 72, 57
2, 506240, Note_off_c, 0, 72, 64
2, 506240, Note_on_c, 0, 67, 52
2, 506368, Note_off_c, 0, 67, 64
2, 506368, Note_on_c, 0, 64, 51
2, 506496, Note_off_c, 0, 64, 64
2, 506496, Note_on_c, 0, 73, 56
2, 506624, Note_off_c, 0, 73, 64
2, 506624, Note_on_c, 0, 67, 51
2, 506752, Note_off_c, 0, 67, 64
2, 506752, Note_on_c, 0, 64, 51
2, 506880, Note_off_c, 0, 64, 64
2, 506880, Note_on_c, 0, 72, 55
2, 507008, Note_off_c, 0, 72, 64
2, 507008, Note_on_c, 0, 67, 50
2, 507136, Note_off_c, 0, 67, 64
2, 507136, Note_on_c, 0, 64, 50
2, 507264, Note_off_c, 0, 64, 64
2, 507264, Note_on_c, 0, 73, 55
2, 507392, Note_off_c, 0, 73, 64
2, 507392, Note_on_c, 0, 67, 49
2, 507520, Note_off_c, 0, 67, 64
2, 507520, Note_on_c, 0, 64, 49
2, 507648, Note_off_c, 0, 64, 64
2, 507648, Note_on_c, 0, 72, 54
2, 507776, Note_off_c, 0, 72, 64
2, 507776, Note_on_c, 0, 67, 48
2, 507904, Note_off_c, 0, 67, 64
2, 507904, Note_on_c, 0, 64, 48
2, 508032, Note_off_c, 0, 64, 64
2, 508032, Note_on_c, 0, 73, 53
2, 508160, Note_off_c, 0, 73, 64
2, 508160, Note_on_c, 0, 67, 48
2, 508288, Note_off_c, 0, 67, 64
2, 508288, Note_on_c, 0, 64, 47
2, 508416, Note_off_c, 0, 64, 64
2, 508416, Note_on_c, 0, 72, 52
2, 508544, Note_off_c, 0, 72, 64
2, 508544, Note_on_c, 0, 67, 47
2, 508672, Note_off_c, 0, 67, 64
2, 508672, Note_on_c, 0, 64, 47
2, 508800, Note_off_c, 0, 64, 64
2, 508800, Note_on_c, 0, 73, 51
2, 508928, Note_off_c, 0, 73, 64
2, 508928, Note_on_c, 0, 67, 46
2, 509056, Note_off_c, 0, 67, 64
2, 509056, Note_on_c, 0, 64, 46
2, 509184, Note_off_c, 0, 64, 64
2, 509184, Note_on_c, 0, 72, 51
2, 509312, Note_off_c, 0, 72, 64
2, 509312, Note_on_c, 0, 67, 45
2, 509440, Note_off_c, 0, 67, 64
2, 509440, Note_on_c, 0, 64, 45
2, 509568, Note_off_c, 0, 64, 64
2, 509568, Note_on_c, 0, 65, 45
2, 509952, Note_off_c, 0, 65, 64
2, 510336, Note_on_c, 0, 65, 55
2, 510336, Note_on_c, 0, 68, 55
2, 510336, Note_on_c, 0, 72, 55
2, 510336, Note_on_c, 0, 77, 55
2, 510528, Note_off_c, 0, 77, 64
2, 510528, Note_off_c, 0, 72, 64
2, 510528, Note_off_c, 0, 68, 64
2, 510528, Note_off_c, 0, 65, 64
2, 510720, Note_on_c, 0, 64, 55
2, 510720, Note_on_c, 0, 67, 55
2, 510720, Note_on_c, 0, 70, 55
2, 510720, Note_on_c, 0, 73, 55
2, 510720, Note_on_c, 0, 76, 55
2, 510912, Note_off_c, 0, 76, 64
2, 510912, Note_off_c, 0, 73, 64
2, 510912, Note_off_c, 0, 70, 64
2, 510912, Note_off_c, 0, 67, 64
2, 510912, Note_off_c, 0, 64, 64
2, 511104, Note_on_c, 0, 65, 55
2, 511104, Note_on_c, 0, 68, 55
2, 511104, Note_on_c, 0, 72, 55
2, 511104, Note_on_c, 0, 77, 55
2, 511296, Note_off_c, 0, 77, 64
2, 511296, Note_off_c, 0, 72, 64
2, 511296, Note_off_c, 0, 68, 64
2, 511296, Note_off_c, 0, 65, 64
2, 511872, Note_on_c, 0, 72, 74
2, 511872, Note_on_c, 0, 77, 74
2, 511872, Note_on_c, 0, 80, 74
2, 511872, Note_on_c, 0, 84, 74
2, 512064, Note_off_c, 0, 84, 64
2, 512064, Note_off_c, 0, 80, 64
2, 512064, Note_off_c, 0, 77, 64
2, 512064, Note_off_c, 0, 72, 64
2, 512256, Note_on_c, 0, 72, 74
2, 512256, Note_on_c, 0, 79, 74
2, 512256, Note_on_c, 0, 82, 74
2, 512256, Note_on_c, 0, 84, 74
2, 512448, Note_off_c, 0, 84, 64
2, 512448, Note_off_c, 0, 82, 64
2, 512448, Note_off_c, 0, 79, 64
2, 512448, Note_off_c, 0, 72, 64
2, 512640, Note_on_c, 0, 72, 74
2, 512640, Note_on_c, 0, 77, 74
2, 512640, Note_on_c, 0, 80, 74
2, 512640, Note_on_c, 0, 84, 74
2, 512832, Note_off_c, 0, 84, 64
2, 512832, Note_off_c, 0, 80, 64
2, 512832, Note_off_c, 0, 77, 64
2, 512832, Note_off_c, 0, 72, 64
2, 513408, Note_on_c, 0, 65, 50
2, 513408, Note_on_c, 0, 68, 50
2, 513408, Note_on_c, 0, 72, 50
2, 513408, Note_on_c, 0, 77, 50
2, 513600, Note_off_c, 0, 77, 64
2, 513600, Note_off_c, 0, 72, 64
2, 513600, Note_off_c, 0, 68, 64
2, 513600, Note_off_c, 0, 65, 64
2, 513792, Note_on_c, 0, 64, 50
2, 513792, Note_on_c, 0, 67, 50
2, 513792, Note_on_c, 0, 70, 50
2, 513792, Note_on_c, 0, 73, 50
2, 513792, Note_on_c, 0, 76, 50
2, 513984, Note_off_c, 0, 76, 64
2, 513984, Note_off_c, 0, 73, 64
2, 513984, Note_off_c, 0, 70, 64
2, 513984, Note_off_c, 0, 67, 64
2, 513984, Note_off_c, 0, 64, 64
2, 514176, Note_on_c, 0, 65, 50
2, 514176, Note_on_c, 0, 68, 50
2, 514176, Note_on_c, 0, 72, 50
2, 514176, Note_on_c, 0, 77, 50
2, 514368, Note_off_c, 0, 77, 64
2, 514368, Note_off_c, 0, 72, 64
2, 514368, Note_off_c, 0, 68, 64
2, 514368, Note_off_c, 0, 65, 64
2, 514944, Note_on_c, 0, 72, 72
2, 514944, Note_on_c, 0, 77, 72
2, 514944, Note_on_c, 0, 80, 72
2, 514944, Note_on_c, 0, 84, 72
2, 515136, Note_off_c, 0, 84, 64
2, 515136, Note_off_c, 0, 80, 64
2, 515136, Note_off_c, 0, 77, 64
2, 515136, Note_off_c, 0, 72, 64
2, 515328, Note_on_c, 0, 72, 72
2, 515328, Note_on_c, 0, 79, 72
2, 515328, Note_on_c, 0, 82, 72
2, 515328, Note_on_c, 0, 84, 72
2, 515520, Note_off_c, 0, 84, 64
2, 515520, Note_off_c, 0, 82, 64
2, 515520, Note_off_c, 0, 79, 64
2, 515520, Note_off_c, 0, 72, 64
2, 515712, Note_on_c, 0, 72, 72
2, 515712, Note_on_c, 0, 77, 72
2, 515712, Note_on_c, 0, 80, 72
2, 515712, Note_on_c, 0, 84, 72
2, 515904, Note_off_c, 0, 84, 64
2, 515904, Note_off_c, 0, 80, 64
2, 515904, Note_off_c, 0, 77, 64
2, 515904, Note_off_c, 0, 72, 64
2, 516480, Note_on_c, 0, 75, 57
2, 516672, Note_off_c, 0, 75, 64
2, 516864, Note_on_c, 0, 75, 60
2, 517056, Note_off_c, 0, 75, 64
2, 517248, Note_on_c, 0, 75, 63
2, 517632, Note_off_c, 0, 75, 64
2, 517632, Note_on_c, 0, 80, 65
2, 518016, Note_off_c, 0, 80, 64
2, 518016, Note_on_c, 0, 75, 68
2, 518208, Note_off_c, 0, 75, 64
2, 518400, Note_on_c, 0, 75, 71
2, 518592, Note_off_c, 0, 75, 64
2, 518784, Note_on_c, 0, 75, 73
2, 519168, Note_off_c, 0, 75, 64
2, 519168, Note_on_c, 0, 80, 76
2, 519552, Note_off_c, 0, 80, 64
2, 519552, Note_on_c, 0, 75, 79
2, 519936, Note_off_c, 0, 75, 64
2, 519936, Note_on_c, 0, 76, 82
2, 520320, Note_off_c, 0, 76, 64
2, 520320, Note_on_c, 0, 77, 84
2, 520704, Note_off_c, 0, 77, 64
2, 520704, Note_on_c, 0, 79, 87
2, 521088, Note_off_c, 0, 79, 64
2, 521088, Note_on_c, 0, 80, 90
2, 521472, Note_off_c, 0, 80, 64
2, 521472, Note_on_c, 0, 83, 92
2, 521856, Note_off_c, 0, 83, 64
2, 521856, Note_on_c, 0, 84, 95
2, 522240, Note_off_c, 0, 84, 64
2, 522624, Note_on_c, 0, 72, 55
2, 522816, Note_off_c, 0, 72, 64
2, 523008, Note_on_c, 0, 72, 55
2, 523200, Note_off_c, 0, 72, 64
2, 523392, Note_on_c, 0, 72, 56
2, 523776, Note_off_c, 0, 72, 64
2, 523776, Note_on_c, 0, 77, 57
2, 524160, Note_off_c, 0, 77, 64
2, 524352, Note_on_c, 0, 85, 61
2, 524544, Note_off_c, 0, 85, 64
2, 524544, Note_on_c, 0, 84, 78
2, 524736, Note_off_c, 0, 84, 64
2, 524736, Note_on_c, 0, 82, 77
2, 524928, Note_off_c, 0, 82, 64
2, 524928, Note_on_c, 0, 82, 76
2, 525120, Note_off_c, 0, 82, 64
2, 525120, Note_on_c, 0, 80, 74
2, 525312, Note_off_c, 0, 80, 64
2, 525312, Note_on_c, 0, 79, 73
2, 525504, Note_off_c, 0, 79, 64
2, 525504, Note_on_c, 0, 77, 72
2, 525696, Note_off_c, 0, 77, 64
2, 525696, Note_on_c, 0, 72, 71
2, 525888, Note_off_c, 0, 72, 64
2, 526080, Note_on_c, 0, 72, 60
2, 526272, Note_off_c, 0, 72, 64
2, 526464, Note_on_c, 0, 72, 30
2, 526540, Note_off_c, 0, 72, 64
2, 526540, Note_on_c, 0, 73, 36
2, 526618, Note_off_c, 0, 73, 64
2, 526618, Note_on_c, 0, 72, 42
2, 526694, Note_off_c, 0, 72, 64
2, 526694, Note_on_c, 0, 71, 47
2, 526772, Note_off_c, 0, 71, 64
2, 526772, Note_on_c, 0, 72, 53
2, 526848, Note_off_c, 0, 72, 64
2, 526848, Note_on_c, 0, 77, 58
2, 527232, Note_off_c, 0, 77, 64
2, 527424, Note_on_c, 0, 85, 81
2, 527616, Note_off_c, 0, 85, 64
2, 527616, Note_on_c, 0, 84, 79
2, 527808, Note_off_c, 0, 84, 64
2, 527808, Note_on_c, 0, 82, 77
2, 528000, Note_off_c, 0, 82, 64
2, 528000, Note_on_c, 0, 82, 75
2, 528192, Note_off_c, 0, 82, 64
2, 528192, Note_on_c, 0, 80, 72
2, 528384, Note_off_c, 0, 80, 64
2, 528384, Note_on_c, 0, 79, 72
2, 528576, Note_off_c, 0, 79, 64
2, 528576, Note_on_c, 0, 77, 69
2, 528768, Note_off_c, 0, 77, 64
2, 528960, Note_on_c, 0, 85, 83
2, 529152, Note_off_c, 0, 85, 64
2, 529152, Note_on_c, 0, 84, 81
2, 529344, Note_off_c, 0, 84, 64
2, 529344, Note_on_c, 0, 82, 79
2, 529536, Note_off_c, 0, 82, 64
2, 529536, Note_on_c, 0, 82, 77
2, 529728, Note_off_c, 0, 82, 64
2, 529728, Note_on_c, 0, 80, 75
2, 529920, Note_off_c, 0, 80, 64
2, 529920, Note_on_c, 0, 79, 73
2, 530112, Note_off_c, 0, 79, 64
2, 530112, Note_on_c, 0, 77, 71
2, 530304, Note_off_c, 0, 77, 64
2, 530304, Note_on_c, 0, 75, 69
2, 530496, Note_off_c, 0, 75, 64
2, 530496, Note_on_c, 0, 73, 67
2, 530688, Note_off_c, 0, 73, 64
2, 530688, Note_on_c, 0, 72, 65
2, 530880, Note_off_c, 0, 72, 64
2, 530880, Note_on_c, 0, 71, 63
2, 531072, Note_off_c, 0, 71, 64
2, 531072, Note_on_c, 0, 72, 61
2, 531456, Note_off_c, 0, 72, 64
2, 531840, Note_on_c, 0, 60, 61
2, 531840, Note_on_c, 0, 64, 61
2, 531840, Note_on_c, 0, 67, 61
2, 531840, Note_on_c, 0, 72, 61
2, 532032, Note_off_c, 0, 72, 64
2, 532032, Note_off_c, 0, 67, 64
2, 532032, Note_off_c, 0, 64, 64
2, 532032, Note_off_c, 0, 60, 64
2, 532224, Note_on_c, 0, 59, 61
2, 532224, Note_on_c, 0, 62, 61
2, 532224, Note_on_c, 0, 65, 61
2, 532224, Note_on_c, 0, 68, 61
2, 532224, Note_on_c, 0, 71, 61
2, 532416, Note_off_c, 0, 71, 64
2, 532416, Note_off_c, 0, 68, 64
2, 532416, Note_off_c, 0, 65, 64
2, 532416, Note_off_c, 0, 62, 64
2, 532416, Note_off_c, 0, 59, 64
2, 532608, Note_on_c, 0, 60, 68
2, 532608, Note_on_c, 0, 64, 68
2, 532608, Note_on_c, 0, 67, 68
2, 532608, Note_on_c, 0, 72, 68
2, 532800, Note_off_c, 0, 72, 64
2, 532800, Note_off_c, 0, 67, 64
2, 532800, Note_off_c, 0, 64, 64
2, 532800, Note_off_c, 0, 60, 64
2, 533376, Note_on_c, 0, 64, 83
2, 533376, Note_on_c, 0, 67, 83
2, 533376, Note_on_c, 0, 72, 83
2, 533376, Note_on_c, 0, 76, 83
2, 533568, Note_off_c, 0, 76, 64
2, 533568, Note_off_c, 0, 72, 64
2, 533568, Note_off_c, 0, 67, 64
2, 533568, Note_off_c, 0, 64, 64
2, 533760, Note_on_c, 0, 64, 83
2, 533760, Note_on_c, 0, 67, 83
2, 533760, Note_on_c, 0, 72, 83
2, 533760, Note_on_c, 0, 76, 83
2, 533952, Note_off_c, 0, 76, 64
2, 533952, Note_off_c, 0, 72, 64
2, 533952, Note_off_c, 0, 67, 64
2, 533952, Note_off_c, 0, 64, 64
2, 534144, Note_on_c, 0, 64, 83
2, 534144, Note_on_c, 0, 67, 83
2, 534144, Note_on_c, 0, 72, 83
2, 534144, Note_on_c, 0, 76, 83
2, 534336, Note_off_c, 0, 76, 64
2, 534336, Note_off_c, 0, 72, 64
2, 534336, Note_off_c, 0, 67, 64
2, 534336, Note_off_c, 0, 64, 64
2, 534912, Note_on_c, 0, 60, 73
2, 534912, Note_on_c, 0, 64, 73
2, 534912, Note_on_c, 0, 67, 73
2, 534912, Note_on_c, 0, 72, 73
2, 535104, Note_off_c, 0, 72, 64
2, 535104, Note_off_c, 0, 67, 64
2, 535104, Note_off_c, 0, 64, 64
2, 535104, Note_off_c, 0, 60, 64
2, 535296, Note_on_c, 0, 59, 68
2, 535296, Note_on_c, 0, 62, 68
2, 535296, Note_on_c, 0, 65, 68
2, 535296, Note_on_c, 0, 68, 68
2, 535296, Note_on_c, 0, 71, 68
2, 535488, Note_off_c, 0, 71, 64
2, 535488, Note_off_c, 0, 68, 64
2, 535488, Note_off_c, 0, 65, 64
2, 535488, Note_off_c, 0, 62, 64
2, 535488, Note_off_c, 0, 59, 64
2, 535680, Note_on_c, 0, 60, 70
2, 535680, Note_on_c, 0, 64, 70
2, 535680, Note_on_c, 0, 67, 70
2, 535680, Note_on_c, 0, 72, 70
2, 535872, Note_off_c, 0, 72, 64
2, 535872, Note_off_c, 0, 67, 64
2, 535872, Note_off_c, 0, 64, 64
2, 535872, Note_off_c, 0, 60, 64
2, 536448, Note_on_c, 0, 67, 86
2, 536448, Note_on_c, 0, 72, 86
2, 536448, Note_on_c, 0, 76, 86
2, 536448, Note_on_c, 0, 79, 86
2, 536640, Note_off_c, 0, 79, 64
2, 536640, Note_off_c, 0, 76, 64
2, 536640, Note_off_c, 0, 72, 64
2, 536640, Note_off_c, 0, 67, 64
2, 536832, Note_on_c, 0, 67, 87
2, 536832, Note_on_c, 0, 72, 87
2, 536832, Note_on_c, 0, 76, 87
2, 536832, Note_on_c, 0, 79, 87
2, 537024, Note_off_c, 0, 79, 64
2, 537024, Note_off_c, 0, 76, 64
2, 537024, Note_off_c, 0, 72, 64
2, 537024, Note_off_c, 0, 67, 64
2, 537216, Note_on_c, 0, 67, 88
2, 537216, Note_on_c, 0, 72, 88
2, 537216, Note_on_c, 0, 76, 88
2, 537216, Note_on_c, 0, 79, 88
2, 537408, Note_off_c, 0, 79, 64
2, 537408, Note_off_c, 0, 76, 64
2, 537408, Note_off_c, 0, 72, 64
2, 537408, Note_off_c, 0, 67, 64
2, 537984, Note_on_c, 0, 70, 90
2, 537984, Note_on_c, 0, 76, 90
2, 537984, Note_on_c, 0, 79, 90
2, 537984, Note_on_c, 0, 82, 90
2, 538176, Note_off_c, 0, 82, 64
2, 538176, Note_off_c, 0, 79, 64
2, 538176, Note_off_c, 0, 76, 64
2, 538176, Note_off_c, 0, 70, 64
2, 538368, Note_on_c, 0, 70, 91
2, 538368, Note_on_c, 0, 76, 91
2, 538368, Note_on_c, 0, 79, 91
2, 538368, Note_on_c, 0, 82, 91
2, 538560, Note_off_c, 0, 82, 64
2, 538560, Note_off_c, 0, 79, 64
2, 538560, Note_off_c, 0, 76, 64
2, 538560, Note_off_c, 0, 70, 64
2, 538752, Note_on_c, 0, 70, 92
2, 538752, Note_on_c, 0, 76, 92
2, 538752, Note_on_c, 0, 79, 92
2, 538752, Note_on_c, 0, 82, 92
2, 538944, Note_off_c, 0, 82, 64
2, 538944, Note_off_c, 0, 79, 64
2, 538944, Note_off_c, 0, 76, 64
2, 538944, Note_off_c, 0, 70, 64
2, 539520, Note_on_c, 0, 70, 94
2, 539520, Note_on_c, 0, 76, 94
2, 539520, Note_on_c, 0, 79, 94
2, 539520, Note_on_c, 0, 82, 94
2, 539712, Note_off_c, 0, 82, 64
2, 539712, Note_off_c, 0, 79, 64
2, 539712, Note_off_c, 0, 76, 64
2, 539712, Note_off_c, 0, 70, 64
2, 539904, Note_on_c, 0, 70, 95
2, 539904, Note_on_c, 0, 76, 95
2, 539904, Note_on_c, 0, 79, 95
2, 539904, Note_on_c, 0, 82, 95
2, 540096, Note_off_c, 0, 82, 64
2, 540096, Note_off_c, 0, 79, 64
2, 540096, Note_off_c, 0, 76, 64
2, 540096, Note_off_c, 0, 70, 64
2, 540288, Note_on_c, 0, 70, 96
2, 540288, Note_on_c, 0, 76, 96
2, 540288, Note_on_c, 0, 79, 96
2, 540288, Note_on_c, 0, 82, 96
2, 540480, Note_off_c, 0, 82, 64
2, 540480, Note_off_c, 0, 79, 64
2, 540480, Note_off_c, 0, 76, 64
2, 540480, Note_off_c, 0, 70, 64
2, 541056, Note_on_c, 0, 70, 98
2, 541056, Note_on_c, 0, 76, 98
2, 541056, Note_on_c, 0, 79, 98
2, 541056, Note_on_c, 0, 82, 98
2, 541248, Note_off_c, 0, 82, 64
2, 541248, Note_off_c, 0, 79, 64
2, 541248, Note_off_c, 0, 76, 64
2, 541248, Note_off_c, 0, 70, 64
2, 541824, Note_on_c, 0, 82, 101
2, 541952, Note_off_c, 0, 82, 64
2, 541952, Note_on_c, 0, 80, 100
2, 542080, Note_off_c, 0, 80, 64
2, 542080, Note_on_c, 0, 79, 100
2, 542208, Note_off_c, 0, 79, 64
2, 542208, Note_on_c, 0, 77, 99
2, 542336, Note_off_c, 0, 77, 64
2, 542336, Note_on_c, 0, 76, 98
2, 542464, Note_off_c, 0, 76, 64
2, 542464, Note_on_c, 0, 73, 97
2, 542592, Note_off_c, 0, 73, 64
2, 542592, Note_on_c, 0, 72, 97
2, 542720, Note_off_c, 0, 72, 64
2, 542720, Note_on_c, 0, 70, 96
2, 542848, Note_off_c, 0, 70, 64
2, 542848, Note_on_c, 0, 68, 95
2, 542976, Note_off_c, 0, 68, 64
2, 542976, Note_on_c, 0, 67, 94
2, 543104, Note_off_c, 0, 67, 64
2, 543104, Note_on_c, 0, 65, 94
2, 543232, Note_off_c, 0, 65, 64
2, 543232, Note_on_c, 0, 64, 93
2, 543360, Note_off_c, 0, 64, 64
2, 543360, Note_on_c, 0, 61, 92
2, 543488, Note_off_c, 0, 61, 64
2, 543488, Note_on_c, 0, 60, 91
2, 543616, Note_off_c, 0, 60, 64
2, 543616, Note_on_c, 0, 58, 91
2, 543744, Note_off_c, 0, 58, 64
2, 543744, Note_on_c, 0, 56, 90
2, 543872, Note_off_c, 0, 56, 64
2, 543872, Note_on_c, 0, 55, 89
2, 544000, Note_off_c, 0, 55, 64
2, 544000, Note_on_c, 0, 53, 89
2, 544128, Note_off_c, 0, 53, 64
2, 544128, Note_on_c, 0, 52, 88
2, 544512, Note_off_c, 0, 52, 64
2, 545024, Note_on_c, 0, 65, 79
2, 545152, Note_off_c, 0, 65, 64
2, 545152, Note_on_c, 0, 68, 79
2, 545280, Note_off_c, 0, 68, 64
2, 545280, Note_on_c, 0, 61, 79
2, 545408, Note_off_c, 0, 61, 64
2, 545408, Note_on_c, 0, 65, 79
2, 545536, Note_off_c, 0, 65, 64
2, 545536, Note_on_c, 0, 68, 79
2, 545664, Note_off_c, 0, 68, 64
2, 545664, Note_on_c, 0, 60, 79
2, 545792, Note_off_c, 0, 60, 64
2, 545792, Note_on_c, 0, 65, 78
2, 545920, Note_off_c, 0, 65, 64
2, 545920, Note_on_c, 0, 68, 78
2, 546048, Note_off_c, 0, 68, 64
2, 546048, Note_on_c, 0, 59, 78
2, 546176, Note_off_c, 0, 59, 64
2, 546176, Note_on_c, 0, 65, 78
2, 546304, Note_off_c, 0, 65, 64
2, 546304, Note_on_c, 0, 68, 78
2, 546432, Note_off_c, 0, 68, 64
2, 546432, Note_on_c, 0, 60, 78
2, 546560, Note_off_c, 0, 60, 64
2, 546560, Note_on_c, 0, 65, 78
2, 546688, Note_off_c, 0, 65, 64
2, 546688, Note_on_c, 0, 68, 78
2, 546816, Note_off_c, 0, 68, 64
2, 546816, Note_on_c, 0, 61, 78
2, 546944, Note_off_c, 0, 61, 64
2, 546944, Note_on_c, 0, 65, 78
2, 547072, Note_off_c, 0, 65, 64
2, 547072, Note_on_c, 0, 68, 78
2, 547200, Note_off_c, 0, 68, 64
2, 547200, Note_on_c, 0, 60, 78
2, 547328, Note_off_c, 0, 60, 64
2, 547328, Note_on_c, 0, 65, 78
2, 547456, Note_off_c, 0, 65, 64
2, 547456, Note_on_c, 0, 68, 78
2, 547584, Note_off_c, 0, 68, 64
2, 547584, Note_on_c, 0, 59, 78
2, 547712, Note_off_c, 0, 59, 64
2, 547712, Note_on_c, 0, 65, 77
2, 547840, Note_off_c, 0, 65, 64
2, 547840, Note_on_c, 0, 68, 77
2, 547968, Note_off_c, 0, 68, 64
2, 547968, Note_on_c, 0, 60, 77
2, 548096, Note_off_c, 0, 60, 64
2, 548096, Note_on_c, 0, 65, 77
2, 548224, Note_off_c, 0, 65, 64
2, 548224, Note_on_c, 0, 68, 77
2, 548352, Note_off_c, 0, 68, 64
2, 548352, Note_on_c, 0, 73, 77
2, 548480, Note_off_c, 0, 73, 64
2, 548480, Note_on_c, 0, 68, 77
2, 548608, Note_off_c, 0, 68, 64
2, 548608, Note_on_c, 0, 65, 77
2, 548736, Note_off_c, 0, 65, 64
2, 548736, Note_on_c, 0, 72, 77
2, 548864, Note_off_c, 0, 72, 64
2, 548864, Note_on_c, 0, 68, 77
2, 548992, Note_off_c, 0, 68, 64
2, 548992, Note_on_c, 0, 65, 77
2, 549120, Note_off_c, 0, 65, 64
2, 549120, Note_on_c, 0, 71, 77
2, 549248, Note_off_c, 0, 71, 64
2, 549248, Note_on_c, 0, 68, 77
2, 549376, Note_off_c, 0, 68, 64
2, 549376, Note_on_c, 0, 65, 77
2, 549504, Note_off_c, 0, 65, 64
2, 549504, Note_on_c, 0, 72, 76
2, 549632, Note_off_c, 0, 72, 64
2, 549632, Note_on_c, 0, 68, 76
2, 549760, Note_off_c, 0, 68, 64
2, 549760, Note_on_c, 0, 65, 76
2, 549888, Note_off_c, 0, 65, 64
2, 549888, Note_on_c, 0, 73, 76
2, 550016, Note_off_c, 0, 73, 64
2, 550016, Note_on_c, 0, 68, 76
2, 550144, Note_off_c, 0, 68, 64
2, 550144, Note_on_c, 0, 65, 76
2, 550272, Note_off_c, 0, 65, 64
2, 550272, Note_on_c, 0, 72, 76
2, 550400, Note_off_c, 0, 72, 64
2, 550400, Note_on_c, 0, 68, 76
2, 550528, Note_off_c, 0, 68, 64
2, 550528, Note_on_c, 0, 65, 76
2, 550656, Note_off_c, 0, 65, 64
2, 550656, Note_on_c, 0, 71, 76
2, 550784, Note_off_c, 0, 71, 64
2, 550784, Note_on_c, 0, 68, 76
2, 550912, Note_off_c, 0, 68, 64
2, 550912, Note_on_c, 0, 65, 76
2, 551040, Note_off_c, 0, 65, 64
2, 551040, Note_on_c, 0, 72, 76
2, 551168, Note_off_c, 0, 72, 64
2, 551168, Note_on_c, 0, 68, 76
2, 551296, Note_off_c, 0, 68, 64
2, 551296, Note_on_c, 0, 65, 76
2, 551424, Note_off_c, 0, 65, 64
2, 551424, Note_on_c, 0, 77, 75
2, 551552, Note_off_c, 0, 77, 64
2, 551552, Note_on_c, 0, 68, 75
2, 551680, Note_off_c, 0, 68, 64
2, 551680, Note_on_c, 0, 65, 75
2, 551808, Note_off_c, 0, 65, 64
2, 551808, Note_on_c, 0, 77, 75
2, 551936, Note_off_c, 0, 77, 64
2, 551936, Note_on_c, 0, 70, 75
2, 552064, Note_off_c, 0, 70, 64
2, 552064, Note_on_c, 0, 68, 75
2, 552192, Note_off_c, 0, 68, 64
2, 552192, Note_on_c, 0, 75, 75
2, 552320, Note_off_c, 0, 75, 64
2, 552320, Note_on_c, 0, 70, 75
2, 552448, Note_off_c, 0, 70, 64
2, 552448, Note_on_c, 0, 66, 75
2, 552576, Note_off_c, 0, 66, 64
2, 552576, Note_on_c, 0, 75, 75
2, 552704, Note_off_c, 0, 75, 64
2, 552704, Note_on_c, 0, 72, 75
2, 552832, Note_off_c, 0, 72, 64
2, 552832, Note_on_c, 0, 65, 75
2, 552960, Note_off_c, 0, 65, 64
2, 552960, Note_on_c, 0, 73, 75
2, 553088, Note_off_c, 0, 73, 64
2, 553088, Note_on_c, 0, 70, 75
2, 553216, Note_off_c, 0, 70, 64
2, 553216, Note_on_c, 0, 65, 75
2, 553344, Note_off_c, 0, 65, 64
2, 553344, Note_on_c, 0, 73, 74
2, 553472, Note_off_c, 0, 73, 64
2, 553472, Note_on_c, 0, 70, 74
2, 553600, Note_off_c, 0, 70, 64
2, 553600, Note_on_c, 0, 64, 74
2, 553728, Note_off_c, 0, 64, 64
2, 553728, Note_on_c, 0, 72, 74
2, 553856, Note_off_c, 0, 72, 64
2, 553856, Note_on_c, 0, 68, 74
2, 553984, Note_off_c, 0, 68, 64
2, 553984, Note_on_c, 0, 65, 74
2, 554112, Note_off_c, 0, 65, 64
2, 554112, Note_on_c, 0, 70, 74
2, 554240, Note_off_c, 0, 70, 64
2, 554240, Note_on_c, 0, 67, 74
2, 554368, Note_off_c, 0, 67, 64
2, 554368, Note_on_c, 0, 60, 74
2, 554496, Note_off_c, 0, 60, 64
2, 554496, Note_on_c, 0, 68, 74
2, 554624, Note_off_c, 0, 68, 64
2, 554624, Note_on_c, 0, 65, 74
2, 554752, Note_off_c, 0, 65, 64
2, 554752, Note_on_c, 0, 60, 74
2, 554880, Note_off_c, 0, 60, 64
2, 554880, Note_on_c, 0, 67, 74
2, 555008, Note_off_c, 0, 67, 64
2, 555008, Note_on_c, 0, 61, 74
2, 555136, Note_off_c, 0, 61, 64
2, 555136, Note_on_c, 0, 58, 73
2, 555264, Note_off_c, 0, 58, 64
2, 555264, Note_on_c, 0, 65, 73
2, 555392, Note_off_c, 0, 65, 64
2, 555392, Note_on_c, 0, 62, 73
2, 555520, Note_off_c, 0, 62, 64
2, 555520, Note_on_c, 0, 56, 73
2, 555648, Note_off_c, 0, 56, 64
2, 555648, Note_on_c, 0, 65, 73
2, 555776, Note_off_c, 0, 65, 64
2, 555776, Note_on_c, 0, 60, 73
2, 555904, Note_off_c, 0, 60, 64
2, 555904, Note_on_c, 0, 56, 73
2, 556032, Note_off_c, 0, 56, 64
2, 556032, Note_on_c, 0, 65, 73
2, 556160, Note_off_c, 0, 65, 64
2, 556160, Note_on_c, 0, 60, 73
2, 556288, Note_off_c, 0, 60, 64
2, 556288, Note_on_c, 0, 56, 73
2, 556416, Note_off_c, 0, 56, 64
2, 556416, Note_on_c, 0, 64, 73
2, 556544, Note_off_c, 0, 64, 64
2, 556544, Note_on_c, 0, 60, 73
2, 556672, Note_off_c, 0, 60, 64
2, 556672, Note_on_c, 0, 55, 73
2, 556800, Note_off_c, 0, 55, 64
2, 556800, Note_on_c, 0, 64, 73
2, 556928, Note_off_c, 0, 64, 64
2, 556928, Note_on_c, 0, 60, 73
2, 557056, Note_off_c, 0, 60, 64
2, 557056, Note_on_c, 0, 55, 72
2, 557184, Note_off_c, 0, 55, 64
2, 557184, Note_on_c, 0, 65, 72
2, 557312, Note_off_c, 0, 65, 64
2, 557312, Note_on_c, 0, 68, 72
2, 557440, Note_off_c, 0, 68, 64
2, 557440, Note_on_c, 0, 72, 72
2, 557568, Note_off_c, 0, 72, 64
2, 557568, Note_on_c, 0, 77, 72
2, 557696, Note_off_c, 0, 77, 64
2, 557696, Note_on_c, 0, 72, 72
2, 557824, Note_off_c, 0, 72, 64
2, 557824, Note_on_c, 0, 68, 72
2, 557952, Note_off_c, 0, 68, 64
2, 557952, Note_on_c, 0, 77, 72
2, 558080, Note_off_c, 0, 77, 64
2, 558080, Note_on_c, 0, 70, 72
2, 558208, Note_off_c, 0, 70, 64
2, 558208, Note_on_c, 0, 68, 72
2, 558336, Note_off_c, 0, 68, 64
2, 558336, Note_on_c, 0, 75, 72
2, 558464, Note_off_c, 0, 75, 64
2, 558464, Note_on_c, 0, 70, 72
2, 558592, Note_off_c, 0, 70, 64
2, 558592, Note_on_c, 0, 66, 72
2, 558720, Note_off_c, 0, 66, 64
2, 558720, Note_on_c, 0, 75, 72
2, 558848, Note_off_c, 0, 75, 64
2, 558848, Note_on_c, 0, 72, 71
2, 558976, Note_off_c, 0, 72, 64
2, 558976, Note_on_c, 0, 65, 71
2, 559104, Note_off_c, 0, 65, 64
2, 559104, Note_on_c, 0, 73, 70
2, 559232, Note_off_c, 0, 73, 64
2, 559232, Note_on_c, 0, 70, 70
2, 559360, Note_off_c, 0, 70, 64
2, 559360, Note_on_c, 0, 65, 70
2, 559488, Note_off_c, 0, 65, 64
2, 559488, Note_on_c, 0, 73, 69
2, 559616, Note_off_c, 0, 73, 64
2, 559616, Note_on_c, 0, 70, 69
2, 559744, Note_off_c, 0, 70, 64
2, 559744, Note_on_c, 0, 64, 69
2, 559872, Note_off_c, 0, 64, 64
2, 559872, Note_on_c, 0, 72, 68
2, 560000, Note_off_c, 0, 72, 64
2, 560000, Note_on_c, 0, 68, 68
2, 560128, Note_off_c, 0, 68, 64
2, 560128, Note_on_c, 0, 65, 68
2, 560256, Note_off_c, 0, 65, 64
2, 560256, Note_on_c, 0, 70, 67
2, 560384, Note_off_c, 0, 70, 64
2, 560384, Note_on_c, 0, 67, 67
2, 560512, Note_off_c, 0, 67, 64
2, 560512, Note_on_c, 0, 60, 66
2, 560640, Note_off_c, 0, 60, 64
2, 560640, Note_on_c, 0, 68, 66
2, 560768, Note_off_c, 0, 68, 64
2, 560768, Note_on_c, 0, 65, 66
2, 560896, Note_off_c, 0, 65, 64
2, 560896, Note_on_c, 0, 60, 65
2, 561024, Note_off_c, 0, 60, 64
2, 561024, Note_on_c, 0, 67, 65
2, 561152, Note_off_c, 0, 67, 64
2, 561152, Note_on_c, 0, 61, 65
2, 561280, Note_off_c, 0, 61, 64
2, 561280, Note_on_c, 0, 58, 64
2, 561408, Note_off_c, 0, 58, 64
2, 561408, Note_on_c, 0, 65, 64
2, 561536, Note_off_c, 0, 65, 64
2, 561536, Note_on_c, 0, 62, 63
2, 561664, Note_off_c, 0, 62, 64
2, 561664, Note_on_c, 0, 56, 63
2, 561792, Note_off_c, 0, 56, 64
2, 561792, Note_on_c, 0, 65, 63
2, 561920, Note_off_c, 0, 65, 64
2, 561920, Note_on_c, 0, 60, 62
2, 562048, Note_off_c, 0, 60, 64
2, 562048, Note_on_c, 0, 56, 62
2, 562176, Note_off_c, 0, 56, 64
2, 562176, Note_on_c, 0, 65, 62
2, 562304, Note_off_c, 0, 65, 64
2, 562304, Note_on_c, 0, 60, 61
2, 562432, Note_off_c, 0, 60, 64
2, 562432, Note_on_c, 0, 56, 61
2, 562560, Note_off_c, 0, 56, 64
2, 562560, Note_on_c, 0, 64, 61
2, 562688, Note_off_c, 0, 64, 64
2, 562688, Note_on_c, 0, 60, 60
2, 562816, Note_off_c, 0, 60, 64
2, 562816, Note_on_c, 0, 55, 60
2, 562944, Note_off_c, 0, 55, 64
2, 562944, Note_on_c, 0, 64, 59
2, 563072, Note_off_c, 0, 64, 64
2, 563072, Note_on_c, 0, 60, 59
2, 563200, Note_off_c, 0, 60, 64
2, 563200, Note_on_c, 0, 55, 59
2, 563328, Note_off_c, 0, 55, 64
2, 563328, Note_on_c, 0, 65, 58
2, 563712, Note_off_c, 0, 65, 64
2, 564096, Note_on_c, 0, 68, 47
2, 564096, Note_on_c, 0, 80, 47
2, 564480, Note_off_c, 0, 80, 64
2, 564480, Note_off_c, 0, 68, 64
2, 564480, Note_on_c, 0, 68, 53
2, 564480, Note_on_c, 0, 80, 53
2, 564864, Note_off_c, 0, 80, 64
2, 564864, Note_off_c, 0, 68, 64
2, 564864, Note_on_c, 0, 67, 60
2, 564864, Note_on_c, 0, 79, 60
2, 565248, Note_off_c, 0, 79, 64
2, 565248, Note_off_c, 0, 67, 64
2, 565248, Note_on_c, 0, 65, 57
2, 565248, Note_on_c, 0, 77, 57
2, 565632, Note_off_c, 0, 77, 64
2, 565632, Note_off_c, 0, 65, 64
2, 565632, Note_on_c, 0, 63, 59
2, 565632, Note_on_c, 0, 75, 55
2, 566016, Note_off_c, 0, 75, 64
2, 566016, Note_off_c, 0, 63, 64
2, 566016, Note_on_c, 0, 61, 59
2, 566016, Note_on_c, 0, 73, 57
2, 566400, Note_off_c, 0, 73, 64
2, 566400, Note_off_c, 0, 61, 64
2, 566400, Note_on_c, 0, 60, 55
2, 566400, Note_on_c, 0, 72, 56
2, 567168, Note_off_c, 0, 72, 64
2, 567168, Note_off_c, 0, 60, 64
2, 567168, Note_on_c, 0, 65, 48
2, 567168, Note_on_c, 0, 77, 48
2, 567552, Note_off_c, 0, 77, 64
2, 567552, Note_off_c, 0, 65, 64
2, 567552, Note_on_c, 0, 65, 52
2, 567552, Note_on_c, 0, 77, 52
2, 567936, Note_off_c, 0, 77, 64
2, 567936, Note_off_c, 0, 65, 64
2, 567936, Note_on_c, 0, 63, 57
2, 567936, Note_on_c, 0, 75, 57
2, 568320, Note_off_c, 0, 75, 64
2, 568320, Note_off_c, 0, 63, 64
2, 568320, Note_on_c, 0, 61, 55
2, 568320, Note_on_c, 0, 73, 55
2, 568704, Note_off_c, 0, 73, 64
2, 568704, Note_off_c, 0, 61, 64
2, 568704, Note_on_c, 0, 60, 55
2, 568704, Note_on_c, 0, 72, 55
2, 569088, Note_off_c, 0, 72, 64
2, 569088, Note_off_c, 0, 60, 64
2, 569088, Note_on_c, 0, 58, 56
2, 569088, Note_on_c, 0, 70, 57
2, 569472, Note_off_c, 0, 70, 64
2, 569472, Note_off_c, 0, 58, 64
2, 569472, Note_on_c, 0, 68, 55
2, 570240, Note_off_c, 0, 68, 64
2, 570240, Note_on_c, 0, 72, 48
2, 570240, Note_on_c, 0, 84, 48
2, 570624, Note_off_c, 0, 84, 64
2, 570624, Note_off_c, 0, 72, 64
2, 570624, Note_on_c, 0, 72, 54
2, 570624, Note_on_c, 0, 84, 54
2, 571008, Note_off_c, 0, 84, 64
2, 571008, Note_off_c, 0, 72, 64
2, 571008, Note_on_c, 0, 70, 60
2, 571008, Note_on_c, 0, 82, 60
2, 571392, Note_off_c, 0, 82, 64
2, 571392, Note_off_c, 0, 70, 64
2, 571392, Note_on_c, 0, 68, 56
2, 571392, Note_on_c, 0, 80, 55
2, 571776, Note_off_c, 0, 80, 64
2, 571776, Note_off_c, 0, 68, 64
2, 571776, Note_on_c, 0, 67, 59
2, 571776, Note_on_c, 0, 79, 56
2, 572160, Note_off_c, 0, 79, 64
2, 572160, Note_off_c, 0, 67, 64
2, 572160, Note_on_c, 0, 65, 59
2, 572160, Note_on_c, 0, 77, 59
2, 572544, Note_off_c, 0, 77, 64
2, 572544, Note_off_c, 0, 65, 64
2, 572544, Note_on_c, 0, 60, 55
2, 572544, Note_on_c, 0, 72, 58
2, 573312, Note_off_c, 0, 72, 64
2, 573312, Note_off_c, 0, 60, 64
2, 573312, Note_on_c, 0, 60, 45
2, 573312, Note_on_c, 0, 72, 45
2, 573696, Note_off_c, 0, 72, 64
2, 573696, Note_off_c, 0, 60, 64
2, 573696, Note_on_c, 0, 60, 52
2, 573696, Note_on_c, 0, 72, 52
2, 574080, Note_off_c, 0, 72, 64
2, 574080, Note_off_c, 0, 60, 64
2, 574080, Note_on_c, 0, 60, 58
2, 574080, Note_on_c, 0, 72, 58
2, 574848, Note_off_c, 0, 72, 64
2, 574848, Note_off_c, 0, 60, 64
2, 574848, Note_on_c, 0, 60, 50
2, 574848, Note_on_c, 0, 72, 50
2, 575232, Note_off_c, 0, 72, 64
2, 575232, Note_off_c, 0, 60, 64
2, 575232, Note_on_c, 0, 60, 54
2, 575232, Note_on_c, 0, 72, 54
2, 575616, Note_off_c, 0, 72, 64
2, 575616, Note_off_c, 0, 60, 64
2, 575616, Note_on_c, 0, 65, 58
2, 576384, Note_off_c, 0, 65, 64
2, 576384, Note_on_c, 0, 68, 47
2, 576384, Note_on_c, 0, 80, 47
2, 576768, Note_off_c, 0, 80, 64
2, 576768, Note_off_c, 0, 68, 64
2, 576768, Note_on_c, 0, 68, 52
2, 576768, Note_on_c, 0, 80, 52
2, 577152, Note_off_c, 0, 80, 64
2, 577152, Note_off_c, 0, 68, 64
2, 577152, Note_on_c, 0, 67, 57
2, 577152, Note_on_c, 0, 79, 57
2, 577536, Note_off_c, 0, 79, 64
2, 577536, Note_off_c, 0, 67, 64
2, 577536, Note_on_c, 0, 65, 57
2, 577536, Note_on_c, 0, 77, 59
2, 577920, Note_off_c, 0, 77, 64
2, 577920, Note_off_c, 0, 65, 64
2, 577920, Note_on_c, 0, 63, 58
2, 577920, Note_on_c, 0, 75, 56
2, 578304, Note_off_c, 0, 75, 64
2, 578304, Note_off_c, 0, 63, 64
2, 578304, Note_on_c, 0, 61, 59
2, 578304, Note_on_c, 0, 73, 55
2, 578688, Note_off_c, 0, 73, 64
2, 578688, Note_off_c, 0, 61, 64
2, 578688, Note_on_c, 0, 60, 56
2, 578688, Note_on_c, 0, 72, 59
2, 579456, Note_off_c, 0, 72, 64
2, 579456, Note_off_c, 0, 60, 64
2, 579456, Note_on_c, 0, 65, 44
2, 579456, Note_on_c, 0, 77, 44
2, 579840, Note_off_c, 0, 77, 64
2, 579840, Note_off_c, 0, 65, 64
2, 579840, Note_on_c, 0, 65, 50
2, 579840, Note_on_c, 0, 77, 50
2, 580224, Note_off_c, 0, 77, 64
2, 580224, Note_off_c, 0, 65, 64
2, 580224, Note_on_c, 0, 63, 57
2, 580224, Note_on_c, 0, 75, 57
2, 580608, Note_off_c, 0, 75, 64
2, 580608, Note_off_c, 0, 63, 64
2, 580608, Note_on_c, 0, 61, 56
2, 580608, Note_on_c, 0, 73, 57
2, 580992, Note_off_c, 0, 73, 64
2, 580992, Note_off_c, 0, 61, 64
2, 580992, Note_on_c, 0, 60, 57
2, 580992, Note_on_c, 0, 72, 55
2, 581376, Note_off_c, 0, 72, 64
2, 581376, Note_off_c, 0, 60, 64
2, 581376, Note_on_c, 0, 58, 57
2, 581376, Note_on_c, 0, 70, 56
2, 581760, Note_off_c, 0, 70, 64
2, 581760, Note_off_c, 0, 58, 64
2, 581760, Note_on_c, 0, 68, 59
2, 582528, Note_off_c, 0, 68, 64
2, 582528, Note_on_c, 0, 72, 49
2, 582528, Note_on_c, 0, 84, 49
2, 582912, Note_off_c, 0, 84, 64
2, 582912, Note_off_c, 0, 72, 64
2, 582912, Note_on_c, 0, 72, 53
2, 582912, Note_on_c, 0, 84, 53
2, 583296, Note_off_c, 0, 84, 64
2, 583296, Note_off_c, 0, 72, 64
2, 583296, Note_on_c, 0, 70, 58
2, 583296, Note_on_c, 0, 82, 58
2, 583680, Note_off_c, 0, 82, 64
2, 583680, Note_off_c, 0, 70, 64
2, 583680, Note_on_c, 0, 68, 57
2, 583680, Note_on_c, 0, 80, 55
2, 584064, Note_off_c, 0, 80, 64
2, 584064, Note_off_c, 0, 68, 64
2, 584064, Note_on_c, 0, 67, 55
2, 584064, Note_on_c, 0, 79, 59
2, 584448, Note_off_c, 0, 79, 64
2, 584448, Note_off_c, 0, 67, 64
2, 584448, Note_on_c, 0, 65, 58
2, 584448, Note_on_c, 0, 77, 55
2, 584832, Note_off_c, 0, 77, 64
2, 584832, Note_off_c, 0, 65, 64
2, 584832, Note_on_c, 0, 60, 56
2, 584832, Note_on_c, 0, 72, 59
2, 585600, Note_off_c, 0, 72, 64
2, 585600, Note_off_c, 0, 60, 64
2, 585600, Note_on_c, 0, 60, 63
2, 585600, Note_on_c, 0, 72, 63
2, 585984, Note_off_c, 0, 72, 64
2, 585984, Note_off_c, 0, 60, 64
2, 585984, Note_on_c, 0, 60, 65
2, 585984, Note_on_c, 0, 72, 65
2, 586368, Note_off_c, 0, 72, 64
2, 586368, Note_off_c, 0, 60, 64
2, 586368, Note_on_c, 0, 60, 67
2, 586368, Note_on_c, 0, 72, 67
2, 587136, Note_off_c, 0, 72, 64
2, 587136, Note_off_c, 0, 60, 64
2, 587136, Note_on_c, 0, 60, 72
2, 587136, Note_on_c, 0, 72, 72
2, 587520, Note_off_c, 0, 72, 64
2, 587520, Note_off_c, 0, 60, 64
2, 587520, Note_on_c, 0, 60, 74
2, 587520, Note_on_c, 0, 72, 74
2, 587904, Note_off_c, 0, 72, 64
2, 587904, Note_off_c, 0, 60, 64
2, 587904, Note_on_c, 0, 65, 76
2, 588032, Note_off_c, 0, 65, 64
2, 588032, Note_on_c, 0, 68, 79
2, 588160, Note_off_c, 0, 68, 64
2, 588160, Note_on_c, 0, 72, 79
2, 588288, Note_off_c, 0, 72, 64
2, 588288, Note_on_c, 0, 77, 80
2, 588416, Note_off_c, 0, 77, 64
2, 588416, Note_on_c, 0, 80, 80
2, 588544, Note_off_c, 0, 80, 64
2, 588544, Note_on_c, 0, 84, 80
2, 588672, Note_off_c, 0, 84, 64
2, 588672, Note_on_c, 0, 89, 80
2, 588800, Note_off_c, 0, 89, 64
2, 588800, Note_on_c, 0, 84, 81
2, 588928, Note_off_c, 0, 84, 64
2, 588928, Note_on_c, 0, 80, 81
2, 589056, Note_off_c, 0, 80, 64
2, 589056, Note_on_c, 0, 88, 81
2, 589184, Note_off_c, 0, 88, 64
2, 589184, Note_on_c, 0, 85, 81
2, 589312, Note_off_c, 0, 85, 64
2, 589312, Note_on_c, 0, 82, 81
2, 589440, Note_off_c, 0, 82, 64
2, 589440, Note_on_c, 0, 89, 82
2, 589568, Note_off_c, 0, 89, 64
2, 589568, Note_on_c, 0, 84, 82
2, 589696, Note_off_c, 0, 84, 64
2, 589696, Note_on_c, 0, 80, 82
2, 589824, Note_off_c, 0, 80, 64
2, 589824, Note_on_c, 0, 77, 82
2, 589952, Note_off_c, 0, 77, 64
2, 589952, Note_on_c, 0, 72, 83
2, 590080, Note_off_c, 0, 72, 64
2, 590080, Note_on_c, 0, 68, 83
2, 590208, Note_off_c, 0, 68, 64
2, 590208, Note_on_c, 0, 65, 83
2, 590336, Note_off_c, 0, 65, 64
2, 590336, Note_on_c, 0, 68, 83
2, 590464, Note_off_c, 0, 68, 64
2, 590464, Note_on_c, 0, 72, 83
2, 590592, Note_off_c, 0, 72, 64
2, 590592, Note_on_c, 0, 64, 84
2, 590720, Note_off_c, 0, 64, 64
2, 590720, Note_on_c, 0, 67, 84
2, 590848, Note_off_c, 0, 67, 64
2, 590848, Note_on_c, 0, 72, 84
2, 590976, Note_off_c, 0, 72, 64
2, 590976, Note_on_c, 0, 65, 84
2, 591104, Note_off_c, 0, 65, 64
2, 591104, Note_on_c, 0, 68, 85
2, 591232, Note_off_c, 0, 68, 64
2, 591232, Note_on_c, 0, 72, 85
2, 591360, Note_off_c, 0, 72, 64
2, 591360, Note_on_c, 0, 77, 85
2, 591488, Note_off_c, 0, 77, 64
2, 591488, Note_on_c, 0, 80, 85
2, 591616, Note_off_c, 0, 80, 64
2, 591616, Note_on_c, 0, 84, 86
2, 591744, Note_off_c, 0, 84, 64
2, 591744, Note_on_c, 0, 89, 86
2, 591872, Note_off_c, 0, 89, 64
2, 591872, Note_on_c, 0, 84, 86
2, 592000, Note_off_c, 0, 84, 64
2, 592000, Note_on_c, 0, 80, 86
2, 592128, Note_off_c, 0, 80, 64
2, 592128, Note_on_c, 0, 88, 86
2, 592256, Note_off_c, 0, 88, 64
2, 592256, Note_on_c, 0, 85, 87
2, 592384, Note_off_c, 0, 85, 64
2, 592384, Note_on_c, 0, 82, 87
2, 592512, Note_off_c, 0, 82, 64
2, 592512, Note_on_c, 0, 89, 87
2, 592640, Note_off_c, 0, 89, 64
2, 592640, Note_on_c, 0, 84, 87
2, 592768, Note_off_c, 0, 84, 64
2, 592768, Note_on_c, 0, 80, 88
2, 592896, Note_off_c, 0, 80, 64
2, 592896, Note_on_c, 0, 77, 88
2, 593024, Note_off_c, 0, 77, 64
2, 593024, Note_on_c, 0, 72, 88
2, 593152, Note_off_c, 0, 72, 64
2, 593152, Note_on_c, 0, 68, 88
2, 593280, Note_off_c, 0, 68, 64
2, 593280, Note_on_c, 0, 65, 88
2, 593408, Note_off_c, 0, 65, 64
2, 593408, Note_on_c, 0, 68, 89
2, 593536, Note_off_c, 0, 68, 64
2, 593536, Note_on_c, 0, 72, 89
2, 593664, Note_off_c, 0, 72, 64
2, 593664, Note_on_c, 0, 64, 89
2, 593792, Note_off_c, 0, 64, 64
2, 593792, Note_on_c, 0, 67, 89
2, 593920, Note_off_c, 0, 67, 64
2, 593920, Note_on_c, 0, 72, 90
2, 594048, Note_off_c, 0, 72, 64
2, 594048, Note_on_c, 0, 65, 90
2, 594176, Note_off_c, 0, 65, 64
2, 594176, Note_on_c, 0, 68, 90
2, 594304, Note_off_c, 0, 68, 64
2, 594304, Note_on_c, 0, 72, 90
2, 594432, Note_off_c, 0, 72, 64
2, 594432, Note_on_c, 0, 77, 90
2, 594560, Note_off_c, 0, 77, 64
2, 594560, Note_on_c, 0, 80, 91
2, 594688, Note_off_c, 0, 80, 64
2, 594688, Note_on_c, 0, 84, 91
2, 594816, Note_off_c, 0, 84, 64
2, 594816, Note_on_c, 0, 89, 91
2, 594944, Note_off_c, 0, 89, 64
2, 594944, Note_on_c, 0, 84, 91
2, 595072, Note_off_c, 0, 84, 64
2, 595072, Note_on_c, 0, 80, 92
2, 595200, Note_off_c, 0, 80, 64
2, 595200, Note_on_c, 0, 88, 92
2, 595328, Note_off_c, 0, 88, 64
2, 595328, Note_on_c, 0, 85, 92
2, 595456, Note_off_c, 0, 85, 64
2, 595456, Note_on_c, 0, 82, 92
2, 595584, Note_off_c, 0, 82, 64
2, 595584, Note_on_c, 0, 89, 93
2, 595712, Note_off_c, 0, 89, 64
2, 595712, Note_on_c, 0, 84, 93
2, 595840, Note_off_c, 0, 84, 64
2, 595840, Note_on_c, 0, 80, 93
2, 595968, Note_off_c, 0, 80, 64
2, 595968, Note_on_c, 0, 77, 93
2, 596096, Note_off_c, 0, 77, 64
2, 596096, Note_on_c, 0, 80, 93
2, 596224, Note_off_c, 0, 80, 64
2, 596224, Note_on_c, 0, 84, 94
2, 596352, Note_off_c, 0, 84, 64
2, 596352, Note_on_c, 0, 89, 94
2, 596480, Note_off_c, 0, 89, 64
2, 596480, Note_on_c, 0, 84, 94
2, 596608, Note_off_c, 0, 84, 64
2, 596608, Note_on_c, 0, 80, 94
2, 596736, Note_off_c, 0, 80, 64
2, 596736, Note_on_c, 0, 88, 95
2, 596864, Note_off_c, 0, 88, 64
2, 596864, Note_on_c, 0, 85, 95
2, 596992, Note_off_c, 0, 85, 64
2, 596992, Note_on_c, 0, 82, 95
2, 597120, Note_off_c, 0, 82, 64
2, 597120, Note_on_c, 0, 89, 95
2, 597248, Note_off_c, 0, 89, 64
2, 597248, Note_on_c, 0, 84, 95
2, 597376, Note_off_c, 0, 84, 64
2, 597376, Note_on_c, 0, 80, 96
2, 597504, Note_off_c, 0, 80, 64
2, 597504, Note_on_c, 0, 77, 96
2, 597632, Note_off_c, 0, 77, 64
2, 597632, Note_on_c, 0, 72, 96
2, 597760, Note_off_c, 0, 72, 64
2, 597760, Note_on_c, 0, 68, 96
2, 597888, Note_off_c, 0, 68, 64
2, 597888, Note_on_c, 0, 65, 97
2, 598016, Note_off_c, 0, 65, 64
2, 598016, Note_on_c, 0, 60, 97
2, 598144, Note_off_c, 0, 60, 64
2, 598144, Note_on_c, 0, 56, 97
2, 598272, Note_off_c, 0, 56, 64
2, 600960, End_track
3, 0, Start_track
3, 0, Title_t, "Piano L"
3, 0, Program_c, 1, 0
3, 0, Control_c, 1, 7, 110
3, 1152, Note_on_c, 1, 53, 44
3, 1280, Note_off_c, 1, 53, 64
3, 1280, Note_on_c, 1, 56, 44
3, 1408, Note_off_c, 1, 56, 64
3, 1408, Note_on_c, 1, 60, 44
3, 1536, Note_off_c, 1, 60, 64
3, 1536, Note_on_c, 1, 53, 44
3, 1664, Note_off_c, 1, 53, 64
3, 1664, Note_on_c, 1, 56, 44
3, 1792, Note_off_c, 1, 56, 64
3, 1792, Note_on_c, 1, 60, 44
3, 1920, Note_off_c, 1, 60, 64
3, 1920, Note_on_c, 1, 53, 43
3, 2048, Note_off_c, 1, 53, 64
3, 2048, Note_on_c, 1, 56, 44
3, 2176, Note_off_c, 1, 56, 64
3, 2176, Note_on_c, 1, 60, 45
3, 2304, Note_off_c, 1, 60, 64
3, 2304, Note_on_c, 1, 53, 46
3, 2432, Note_off_c, 1, 53, 64
3, 2432, Note_on_c, 1, 58, 48
3, 2560, Note_off_c, 1, 58, 64
3, 2560, Note_on_c, 1, 61, 49
3, 2688, Note_off_c, 1, 61, 64
3, 2688, Note_on_c, 1, 53, 50
3, 2816, Note_off_c, 1, 53, 64
3, 2816, Note_on_c, 1, 60, 51
3, 2944, Note_off_c, 1, 60, 64
3, 2944, Note_on_c, 1, 56, 53
3, 3072, Note_off_c, 1, 56, 64
3, 3072, Note_on_c, 1, 53, 56
3, 3200, Note_off_c, 1, 53, 64
3, 3200, Note_on_c, 1, 48, 62
3, 3328, Note_off_c, 1, 48, 64
3, 3328, Note_on_c, 1, 44, 67
3, 3456, Note_off_c, 1, 44, 64
3, 3456, Note_on_c, 1, 41, 72
3, 3584, Note_off_c, 1, 41, 64
3, 3584, Note_on_c, 1, 44, 80
3, 3712, Note_off_c, 1, 44, 64
3, 3712, Note_on_c, 1, 48, 80
3, 3840, Note_off_c, 1, 48, 64
3, 3840, Note_on_c, 1, 40, 80
3, 3968, Note_off_c, 1, 40, 64
3, 3968, Note_on_c, 1, 43, 79
3, 4096, Note_off_c, 1, 43, 64
3, 4096, Note_on_c, 1, 48, 79
3, 4224, Note_off_c, 1, 48, 64
3, 4224, Note_on_c, 1, 41, 79
3, 4352, Note_off_c, 1, 41, 64
3, 4352, Note_on_c, 1, 44, 79
3, 4480, Note_off_c, 1, 44, 64
3, 4480, Note_on_c, 1, 48, 78
3, 4608, Note_off_c, 1, 48, 64
3, 4608, Note_on_c, 1, 53, 78
3, 4736, Note_off_c, 1, 53, 64
3, 4736, Note_on_c, 1, 56, 78
3, 4864, Note_off_c, 1, 56, 64
3, 4864, Note_on_c, 1, 60, 77
3, 4992, Note_off_c, 1, 60, 64
3, 4992, Note_on_c, 1, 53, 73
3, 5120, Note_off_c, 1, 53, 64
3, 5120, Note_on_c, 1, 56, 59
3, 5248, Note_off_c, 1, 56, 64
3, 5248, Note_on_c, 1, 60, 54
3, 5376, Note_off_c, 1, 60, 64
3, 5376, Note_on_c, 1, 53, 54
3, 5504, Note_off_c, 1, 53, 64
3, 5504, Note_on_c, 1, 58, 54
3, 5632, Note_off_c, 1, 58, 64
3, 5632, Note_on_c, 1, 61, 54
3, 5760, Note_off_c, 1, 61, 64
3, 5760, Note_on_c, 1, 53, 54
3, 5888, Note_off_c, 1, 53, 64
3, 5888, Note_on_c, 1, 60, 54
3, 6016, Note_off_c, 1, 60, 64
3, 6016, Note_on_c, 1, 56, 54
3, 6144, Note_off_c, 1, 56, 64
3, 6144, Note_on_c, 1, 53, 54
3, 6272, Note_off_c, 1, 53, 64
3, 6272, Note_on_c, 1, 48, 56
3, 6400, Note_off_c, 1, 48, 64
3, 6400, Note_on_c, 1, 44, 64
3, 6528, Note_off_c, 1, 44, 64
3, 6528, Note_on_c, 1, 41, 72
3, 6656, Note_off_c, 1, 41, 64
3, 6656, Note_on_c, 1, 44, 78
3, 6784, Note_off_c, 1, 44, 64
3, 6784, Note_on_c, 1, 48, 78
3, 6912, Note_off_c, 1, 48, 64
3, 6912, Note_on_c, 1, 40, 78
3, 7040, Note_off_c, 1, 40, 64
3, 7040, Note_on_c, 1, 43, 78
3, 7168, Note_off_c, 1, 43, 64
3, 7168, Note_on_c, 1, 48, 77
3, 7296, Note_off_c, 1, 48, 64
3, 7296, Note_on_c, 1, 41, 77
3, 7424, Note_off_c, 1, 41, 64
3, 7424, Note_on_c, 1, 44, 77
3, 7552, Note_off_c, 1, 44, 64
3, 7552, Note_on_c, 1, 48, 76
3, 7680, Note_off_c, 1, 48, 64
3, 7680, Note_on_c, 1, 53, 76
3, 7808, Note_off_c, 1, 53, 64
3, 7808, Note_on_c, 1, 56, 68
3, 7936, Note_off_c, 1, 56, 64
3, 7936, Note_on_c, 1, 60, 62
3, 8064, Note_off_c, 1, 60, 64
3, 8064, Note_on_c, 1, 61, 56
3, 8064, Note_on_c, 1, 55, 56
3, 8448, Note_off_c, 1, 61, 64
3, 8448, Note_on_c, 1, 58, 39
3, 8832, Note_off_c, 1, 58, 64
3, 8832, Note_off_c, 1, 55, 64
3, 8832, Note_on_c, 1, 56, 36
3, 8832, Note_on_c, 1, 60, 36
3, 9600, Note_off_c, 1, 60, 64
3, 9600, Note_off_c, 1, 56, 64
3, 9600, Note_on_c, 1, 61, 42
3, 9600, Note_on_c, 1, 55, 42
3, 9984, Note_off_c, 1, 61, 64
3, 9984, Note_on_c, 1, 58, 45
3, 10368, Note_off_c, 1, 58, 64
3, 10368, Note_off_c, 1, 55, 64
3, 10368, Note_on_c, 1, 56, 48
3, 10368, Note_on_c, 1, 60, 48
3, 11136, Note_off_c, 1, 60, 64
3, 11136, Note_off_c, 1, 56, 64
3, 11136, Note_on_c, 1, 61, 54
3, 11136, Note_on_c, 1, 55, 54
3, 11520, Note_off_c, 1, 61, 64
3, 11520, Note_on_c, 1, 58, 56
3, 11904, Note_off_c, 1, 58, 64
3, 11904, Note_off_c, 1, 55, 64
3, 11904, Note_on_c, 1, 56, 59
3, 11904, Note_on_c, 1, 60, 59
3, 12288, Note_off_c, 1, 60, 64
3, 12288, Note_off_c, 1, 56, 64
3, 12288, Note_on_c, 1, 52, 62
3, 12288, Note_on_c, 1, 55, 62
3, 12672, Note_off_c, 1, 55, 64
3, 12672, Note_off_c, 1, 52, 64
3, 12672, Note_on_c, 1, 53, 65
3, 12672, Note_on_c, 1, 56, 65
3, 13056, Note_off_c, 1, 56, 64
3, 13056, Note_off_c, 1, 53, 64
3, 13056, Note_on_c, 1, 49, 68
3, 13056, Note_on_c, 1, 53, 68
3, 13440, Note_off_c, 1, 53, 64
3, 13440, Note_off_c, 1, 49, 64
3, 13440, Note_on_c, 1, 48, 71
3, 13440, Note_on_c, 1, 52, 71
3, 13632, Note_off_c, 1, 52, 64
3, 13632, Note_off_c, 1, 48, 64
3, 13824, Note_on_c, 1, 60, 54
3, 14016, Note_off_c, 1, 60, 64
3, 14208, Note_on_c, 1, 70, 30
3, 14208, Note_on_c, 1, 64, 30
3, 14592, Note_off_c, 1, 70, 64
3, 14592, Note_on_c, 1, 67, 32
3, 14976, Note_off_c, 1, 67, 64
3, 14976, Note_off_c, 1, 64, 64
3, 14976, Note_on_c, 1, 65, 33
3, 14976, Note_on_c, 1, 68, 33
3, 15744, Note_off_c, 1, 68, 64
3, 15744, Note_off_c, 1, 65, 64
3, 15744, Note_on_c, 1, 70, 36
3, 15744, Note_on_c, 1, 64, 36
3, 16128, Note_off_c, 1, 70, 64
3, 16128, Note_on_c, 1, 67, 38
3, 16512, Note_off_c, 1, 67, 64
3, 16512, Note_off_c, 1, 64, 64
3, 16512, Note_on_c, 1, 65, 39
3, 16512, Note_on_c, 1, 68, 39
3, 17280, Note_off_c, 1, 68, 64
3, 17280, Note_off_c, 1, 65, 64
3, 17280, Note_on_c, 1, 58, 49
3, 17280, Note_on_c, 1, 52, 49
3, 17664, Note_off_c, 1, 58, 64
3, 17664, Note_on_c, 1, 55, 56
3, 18048, Note_off_c, 1, 55, 64
3, 18048, Note_off_c, 1, 52, 64
3, 18048, Note_on_c, 1, 53, 77
3, 18048, Note_on_c, 1, 56, 77
3, 18432, Note_off_c, 1, 56, 64
3, 18432, Note_off_c, 1, 53, 64
3, 18432, Note_on_c, 1, 53, 95
3, 18432, Note_on_c, 1, 56, 95
3, 19200, Note_off_c, 1, 56, 64
3, 19200, Note_off_c, 1, 53, 64
3, 19200, Note_on_c, 1, 54, 74
3, 19200, Note_on_c, 1, 57, 74
3, 19584, Note_off_c, 1, 57, 64
3, 19584, Note_off_c, 1, 54, 64
3, 19584, Note_on_c, 1, 55, 58
3, 19712, Note_off_c, 1, 55, 64
3, 19712, Note_on_c, 1, 59, 56
3, 19840, Note_off_c, 1, 59, 64
3, 19840, Note_on_c, 1, 62, 55
3, 19968, Note_off_c, 1, 62, 64
3, 19968, Note_on_c, 1, 55, 53
3, 20096, Note_off_c, 1, 55, 64
3, 20096, Note_on_c, 1, 59, 52
3, 20224, Note_off_c, 1, 59, 64
3, 20224, Note_on_c, 1, 62, 50
3, 20352, Note_off_c, 1, 62, 64
3, 20352, Note_on_c, 1, 55, 48
3, 20480, Note_off_c, 1, 55, 64
3, 20480, Note_on_c, 1, 59, 47
3, 20608, Note_off_c, 1, 59, 64
3, 20608, Note_on_c, 1, 62, 45
3, 20736, Note_off_c, 1, 62, 64
3, 20736, Note_on_c, 1, 55, 47
3, 20864, Note_off_c, 1, 55, 64
3, 20864, Note_on_c, 1, 60, 47
3, 20992, Note_off_c, 1, 60, 64
3, 20992, Note_on_c, 1, 63, 47
3, 21120, Note_off_c, 1, 63, 64
3, 21120, Note_on_c, 1, 55, 47
3, 21248, Note_off_c, 1, 55, 64
3, 21248, Note_on_c, 1, 62, 48
3, 21376, Note_off_c, 1, 62, 64
3, 21376, Note_on_c, 1, 59, 48
3, 21504, Note_off_c, 1, 59, 64
3, 21504, Note_on_c, 1, 55, 53
3, 21632, Note_off_c, 1, 55, 64
3, 21632, Note_on_c, 1, 50, 60
3, 21760, Note_off_c, 1, 50, 64
3, 21760, Note_on_c, 1, 47, 67
3, 21888, Note_off_c, 1, 47, 64
3, 21888, Note_on_c, 1, 43, 75
3, 22016, Note_off_c, 1, 43, 64
3, 22016, Note_on_c, 1, 47, 76
3, 22144, Note_off_c, 1, 47, 64
3, 22144, Note_on_c, 1, 50, 76
3, 22272, Note_off_c, 1, 50, 64
3, 22272, Note_on_c, 1, 43, 77
3, 22400, Note_off_c, 1, 43, 64
3, 22400, Note_on_c, 1, 47, 77
3, 22528, Note_off_c, 1, 47, 64
3, 22528, Note_on_c, 1, 50, 78
3, 22656, Note_off_c, 1, 50, 64
3, 22656, Note_on_c, 1, 43, 78
3, 22784, Note_off_c, 1, 43, 64
3, 22784, Note_on_c, 1, 47, 79
3, 22912, Note_off_c, 1, 47, 64
3, 22912, Note_on_c, 1, 50, 79
3, 23040, Note_off_c, 1, 50, 64
3, 23040, Note_on_c, 1, 55, 79
3, 23168, Note_off_c, 1, 55, 64
3, 23168, Note_on_c, 1, 59, 80
3, 23296, Note_off_c, 1, 59, 64
3, 23296, Note_on_c, 1, 62, 80
3, 23424, Note_off_c, 1, 62, 64
3, 23424, Note_on_c, 1, 55, 70
3, 23552, Note_off_c, 1, 55, 64
3, 23552, Note_on_c, 1, 59, 54
3, 23680, Note_off_c, 1, 59, 64
3, 23680, Note_on_c, 1, 62, 53
3, 23808, Note_off_c, 1, 62, 64
3, 23808, Note_on_c, 1, 55, 53
3, 23936, Note_off_c, 1, 55, 64
3, 23936, Note_on_c, 1, 60, 53
3, 24064, Note_off_c, 1, 60, 64
3, 24064, Note_on_c, 1, 63, 52
3, 24192, Note_off_c, 1, 63, 64
3, 24192, Note_on_c, 1, 55, 52
3, 24320, Note_off_c, 1, 55, 64
3, 24320, Note_on_c, 1, 62, 51
3, 24448, Note_off_c, 1, 62, 64
3, 24448, Note_on_c, 1, 59, 51
3, 24576, Note_off_c, 1, 59, 64
3, 24576, Note_on_c, 1, 55, 51
3, 24704, Note_off_c, 1, 55, 64
3, 24704, Note_on_c, 1, 50, 53
3, 24832, Note_off_c, 1, 50, 64
3, 24832, Note_on_c, 1, 47, 61
3, 24960, Note_off_c, 1, 47, 64
3, 24960, Note_on_c, 1, 43, 66
3, 25088, Note_off_c, 1, 43, 64
3, 25088, Note_on_c, 1, 47, 66
3, 25216, Note_off_c, 1, 47, 64
3, 25216, Note_on_c, 1, 50, 67
3, 25344, Note_off_c, 1, 50, 64
3, 25344, Note_on_c, 1, 43, 67
3, 25472, Note_off_c, 1, 43, 64
3, 25472, Note_on_c, 1, 47, 68
3, 25600, Note_off_c, 1, 47, 64
3, 25600, Note_on_c, 1, 50, 68
3, 25728, Note_off_c, 1, 50, 64
3, 25728, Note_on_c, 1, 43, 69
3, 25856, Note_off_c, 1, 43, 64
3, 25856, Note_on_c, 1, 47, 69
3, 25984, Note_off_c, 1, 47, 64
3, 25984, Note_on_c, 1, 50, 70
3, 26112, Note_off_c, 1, 50, 64
3, 26112, Note_on_c, 1, 55, 70
3, 26240, Note_off_c, 1, 55, 64
3, 26240, Note_on_c, 1, 50, 71
3, 26368, Note_off_c, 1, 50, 64
3, 26368, Note_on_c, 1, 47, 71
3, 26496, Note_off_c, 1, 47, 64
3, 26496, Note_on_c, 1, 43, 72
3, 26624, Note_off_c, 1, 43, 64
3, 26624, Note_on_c, 1, 47, 73
3, 26752, Note_off_c, 1, 47, 64
3, 26752, Note_on_c, 1, 50, 73
3, 26880, Note_off_c, 1, 50, 64
3, 26880, Note_on_c, 1, 43, 74
3, 27008, Note_off_c, 1, 43, 64
3, 27008, Note_on_c, 1, 47, 74
3, 27136, Note_off_c, 1, 47, 64
3, 27136, Note_on_c, 1, 50, 75
3, 27264, Note_off_c, 1, 50, 64
3, 27264, Note_on_c, 1, 43, 75
3, 27392, Note_off_c, 1, 43, 64
3, 27392, Note_on_c, 1, 47, 76
3, 27520, Note_off_c, 1, 47, 64
3, 27520, Note_on_c, 1, 50, 76
3, 27648, Note_off_c, 1, 50, 64
3, 27648, Note_on_c, 1, 55, 77
3, 27776, Note_off_c, 1, 55, 64
3, 27776, Note_on_c, 1, 50, 77
3, 27904, Note_off_c, 1, 50, 64
3, 27904, Note_on_c, 1, 47, 78
3, 28032, Note_off_c, 1, 47, 64
3, 28032, Note_on_c, 1, 43, 78
3, 28160, Note_off_c, 1, 43, 64
3, 28160, Note_on_c, 1, 47, 79
3, 28288, Note_off_c, 1, 47, 64
3, 28288, Note_on_c, 1, 50, 79
3, 28416, Note_off_c, 1, 50, 64
3, 28416, Note_on_c, 1, 43, 80
3, 28544, Note_off_c, 1, 43, 64
3, 28544, Note_on_c, 1, 47, 80
3, 28672, Note_off_c, 1, 47, 64
3, 28672, Note_on_c, 1, 50, 81
3, 28800, Note_off_c, 1, 50, 64
3, 28800, Note_on_c, 1, 43, 81
3, 28928, Note_off_c, 1, 43, 64
3, 28928, Note_on_c, 1, 47, 82
3, 29056, Note_off_c, 1, 47, 64
3, 29056, Note_on_c, 1, 50, 83
3, 29184, Note_off_c, 1, 50, 64
3, 29184, Note_on_c, 1, 55, 83
3, 29312, Note_off_c, 1, 55, 64
3, 29312, Note_on_c, 1, 50, 84
3, 29440, Note_off_c, 1, 50, 64
3, 29440, Note_on_c, 1, 47, 84
3, 29568, Note_off_c, 1, 47, 64
3, 29568, Note_on_c, 1, 43, 85
3, 29696, Note_off_c, 1, 43, 64
3, 29696, Note_on_c, 1, 47, 85
3, 29824, Note_off_c, 1, 47, 64
3, 29824, Note_on_c, 1, 50, 86
3, 29952, Note_off_c, 1, 50, 64
3, 29952, Note_on_c, 1, 55, 86
3, 30080, Note_off_c, 1, 55, 64
3, 30080, Note_on_c, 1, 50, 87
3, 30208, Note_off_c, 1, 50, 64
3, 30208, Note_on_c, 1, 47, 87
3, 30336, Note_off_c, 1, 47, 64
3, 30336, Note_on_c, 1, 43, 88
3, 30720, Note_off_c, 1, 43, 64
3, 32768, Note_on_c, 1, 56, 89
3, 32896, Note_off_c, 1, 56, 64
3, 32896, Note_on_c, 1, 55, 88
3, 33024, Note_off_c, 1, 55, 64
3, 33024, Note_on_c, 1, 53, 87
3, 33152, Note_off_c, 1, 53, 64
3, 33152, Note_on_c, 1, 51, 86
3, 33280, Note_off_c, 1, 51, 64
3, 33280, Note_on_c, 1, 50, 86
3, 33408, Note_off_c, 1, 50, 64
3, 33408, Note_on_c, 1, 48, 89
3, 33792, Note_off_c, 1, 48, 64
3, 33792, Note_on_c, 1, 56, 89
3, 34176, Note_off_c, 1, 56, 64
3, 34176, Note_on_c, 1, 55, 89
3, 34560, Note_off_c, 1, 55, 64
3, 34560, Note_on_c, 1, 54, 89
3, 34944, Note_off_c, 1, 54, 64
3, 34944, Note_on_c, 1, 55, 89
3, 35328, Note_off_c, 1, 55, 64
3, 35328, Note_on_c, 1, 56, 89
3, 35712, Note_off_c, 1, 56, 64
3, 35712, Note_on_c, 1, 55, 89
3, 36096, Note_off_c, 1, 55, 64
3, 36096, Note_on_c, 1, 54, 89
3, 36480, Note_off_c, 1, 54, 64
3, 36480, Note_on_c, 1, 55, 89
3, 36608, Note_off_c, 1, 55, 64
3, 36608, Note_on_c, 1, 60, 89
3, 36736, Note_off_c, 1, 60, 64
3, 36736, Note_on_c, 1, 63, 89
3, 36864, Note_off_c, 1, 63, 64
3, 36864, Note_on_c, 1, 56, 89
3, 36992, Note_off_c, 1, 56, 64
3, 36992, Note_on_c, 1, 60, 89
3, 37120, Note_off_c, 1, 60, 64
3, 37120, Note_on_c, 1, 63, 89
3, 37248, Note_off_c, 1, 63, 64
3, 37248, Note_on_c, 1, 55, 89
3, 37376, Note_off_c, 1, 55, 64
3, 37376, Note_on_c, 1, 60, 89
3, 37504, Note_off_c, 1, 60, 64
3, 37504, Note_on_c, 1, 63, 89
3, 37632, Note_off_c, 1, 63, 64
3, 37632, Note_on_c, 1, 54, 89
3, 37760, Note_off_c, 1, 54, 64
3, 37760, Note_on_c, 1, 60, 89
3, 37888, Note_off_c, 1, 60, 64
3, 37888, Note_on_c, 1, 63, 89
3, 38016, Note_off_c, 1, 63, 64
3, 38016, Note_on_c, 1, 55, 89
3, 38144, Note_off_c, 1, 55, 64
3, 38144, Note_on_c, 1, 60, 89
3, 38272, Note_off_c, 1, 60, 64
3, 38272, Note_on_c, 1, 63, 89
3, 38400, Note_off_c, 1, 63, 64
3, 38400, Note_on_c, 1, 56, 89
3, 38528, Note_off_c, 1, 56, 64
3, 38528, Note_on_c, 1, 60, 89
3, 38656, Note_off_c, 1, 60, 64
3, 38656, Note_on_c, 1, 63, 89
3, 38784, Note_off_c, 1, 63, 64
3, 38784, Note_on_c, 1, 55, 89
3, 38912, Note_off_c, 1, 55, 64
3, 38912, Note_on_c, 1, 60, 89
3, 39040, Note_off_c, 1, 60, 64
3, 39040, Note_on_c, 1, 63, 89
3, 39168, Note_off_c, 1, 63, 64
3, 39168, Note_on_c, 1, 54, 89
3, 39296, Note_off_c, 1, 54, 64
3, 39296, Note_on_c, 1, 60, 89
3, 39424, Note_off_c, 1, 60, 64
3, 39424, Note_on_c, 1, 63, 89
3, 39552, Note_off_c, 1, 63, 64
3, 39552, Note_on_c, 1, 55, 89
3, 39680, Note_off_c, 1, 55, 64
3, 39680, Note_on_c, 1, 60, 89
3, 39808, Note_off_c, 1, 60, 64
3, 39808, Note_on_c, 1, 63, 89
3, 39936, Note_off_c, 1, 63, 64
3, 39936, Note_on_c, 1, 56, 89
3, 40128, Note_off_c, 1, 56, 64
3, 40128, Note_on_c, 1, 68, 89
3, 40320, Note_off_c, 1, 68, 64
3, 40320, Note_on_c, 1, 53, 89
3, 40512, Note_off_c, 1, 53, 64
3, 40512, Note_on_c, 1, 65, 89
3, 40704, Note_off_c, 1, 65, 64
3, 40704, Note_on_c, 1, 55, 89
3, 40896, Note_off_c, 1, 55, 64
3, 40896, Note_on_c, 1, 67, 89
3, 41088, Note_off_c, 1, 67, 64
3, 41088, Note_on_c, 1, 52, 89
3, 41280, Note_off_c, 1, 52, 64
3, 41280, Note_on_c, 1, 64, 89
3, 41472, Note_off_c, 1, 64, 64
3, 41472, Note_on_c, 1, 53, 89
3, 41664, Note_off_c, 1, 53, 64
3, 41664, Note_on_c, 1, 65, 89
3, 41856, Note_off_c, 1, 65, 64
3, 41856, Note_on_c, 1, 47, 89
3, 42048, Note_off_c, 1, 47, 64
3, 42048, Note_on_c, 1, 59, 89
3, 42240, Note_off_c, 1, 59, 64
3, 42240, Note_on_c, 1, 48, 89
3, 42432, Note_off_c, 1, 48, 64
3, 42432, Note_on_c, 1, 60, 89
3, 42624, Note_off_c, 1, 60, 64
3, 42624, Note_on_c, 1, 38, 89
3, 42816, Note_off_c, 1, 38, 64
3, 42816, Note_on_c, 1, 50, 89
3, 43008, Note_off_c, 1, 50, 64
3, 43008, Note_on_c, 1, 39, 89
3, 43200, Note_off_c, 1, 39, 64
3, 43200, Note_on_c, 1, 51, 89
3, 43392, Note_off_c, 1, 51, 64
3, 43392, Note_on_c, 1, 41, 89
3, 43584, Note_off_c, 1, 41, 64
3, 43584, Note_on_c, 1, 53, 89
3, 43776, Note_off_c, 1, 53, 64
3, 43776, Note_on_c, 1, 42, 89
3, 43968, Note_off_c, 1, 42, 64
3, 43968, Note_on_c, 1, 54, 89
3, 44160, Note_off_c, 1, 54, 64
3, 44160, Note_on_c, 1, 43, 89
3, 44352, Note_off_c, 1, 43, 64
3, 44352, Note_on_c, 1, 55, 89
3, 44544, Note_off_c, 1, 55, 64
3, 44544, Note_on_c, 1, 43, 89
3, 44736, Note_off_c, 1, 43, 64
3, 44736, Note_on_c, 1, 55, 89
3, 44928, Note_off_c, 1, 55, 64
3, 44928, Note_on_c, 1, 43, 89
3, 45120, Note_off_c, 1, 43, 64
3, 45120, Note_on_c, 1, 55, 89
3, 45312, Note_off_c, 1, 55, 64
3, 45312, Note_on_c, 1, 43, 89
3, 45504, Note_off_c, 1, 43, 64
3, 45504, Note_on_c, 1, 55, 89
3, 45696, Note_off_c, 1, 55, 64
3, 45696, Note_on_c, 1, 48, 88
3, 45888, Note_off_c, 1, 48, 64
3, 46080, Note_on_c, 1, 56, 86
3, 46272, Note_off_c, 1, 56, 64
3, 46272, Note_on_c, 1, 60, 84
3, 46464, Note_off_c, 1, 60, 64
3, 46464, Note_on_c, 1, 53, 83
3, 46656, Note_off_c, 1, 53, 64
3, 46656, Note_on_c, 1, 56, 82
3, 46848, Note_off_c, 1, 56, 64
3, 46848, Note_on_c, 1, 55, 81
3, 47040, Note_off_c, 1, 55, 64
3, 47040, Note_on_c, 1, 58, 80
3, 47232, Note_off_c, 1, 58, 64
3, 47232, Note_on_c, 1, 52, 79
3, 47424, Note_off_c, 1, 52, 64
3, 47424, Note_on_c, 1, 55, 78
3, 47616, Note_off_c, 1, 55, 64
3, 47616, Note_on_c, 1, 53, 77
3, 47808, Note_off_c, 1, 53, 64
3, 47808, Note_on_c, 1, 56, 76
3, 48000, Note_off_c, 1, 56, 64
3, 48000, Note_on_c, 1, 47, 75
3, 48192, Note_off_c, 1, 47, 64
3, 48192, Note_on_c, 1, 50, 73
3, 48384, Note_off_c, 1, 50, 64
3, 48384, Note_on_c, 1, 48, 72
3, 48576, Note_off_c, 1, 48, 64
3, 48576, Note_on_c, 1, 51, 71
3, 48768, Note_off_c, 1, 51, 64
3, 48768, Note_on_c, 1, 38, 70
3, 49152, Note_off_c, 1, 38, 64
3, 49152, Note_on_c, 1, 39, 68
3, 49536, Note_off_c, 1, 39, 64
3, 49536, Note_on_c, 1, 41, 66
3, 49920, Note_off_c, 1, 41, 64
3, 49920, Note_on_c, 1, 42, 64
3, 50304, Note_off_c, 1, 42, 64
3, 50304, Note_on_c, 1, 31, 61
3, 50496, Note_off_c, 1, 31, 64
3, 50496, Note_on_c, 1, 43, 59
3, 50688, Note_off_c, 1, 43, 64
3, 50688, Note_on_c, 1, 31, 58
3, 50880, Note_off_c, 1, 31, 64
3, 50880, Note_on_c, 1, 43, 57
3, 51072, Note_off_c, 1, 43, 64
3, 51072, Note_on_c, 1, 31, 55
3, 51264, Note_off_c, 1, 31, 64
3, 51264, Note_on_c, 1, 43, 54
3, 51456, Note_off_c, 1, 43, 64
3, 51456, Note_on_c, 1, 31, 53
3, 51648, Note_off_c, 1, 31, 64
3, 51648, Note_on_c, 1, 43, 52
3, 51840, Note_off_c, 1, 43, 64
3, 51840, Note_on_c, 1, 36, 50
3, 51968, Note_off_c, 1, 36, 64
3, 51968, Note_on_c, 1, 43, 50
3, 52096, Note_off_c, 1, 43, 64
3, 52096, Note_on_c, 1, 48, 49
3, 52224, Note_off_c, 1, 48, 64
3, 52224, Note_on_c, 1, 36, 48
3, 52352, Note_off_c, 1, 36, 64
3, 52352, Note_on_c, 1, 43, 47
3, 52480, Note_off_c, 1, 43, 64
3, 52480, Note_on_c, 1, 48, 50
3, 52608, Note_off_c, 1, 48, 64
3, 52608, Note_on_c, 1, 36, 51
3, 52736, Note_off_c, 1, 36, 64
3, 52736, Note_on_c, 1, 43, 51
3, 52864, Note_off_c, 1, 43, 64
3, 52864, Note_on_c, 1, 48, 47
3, 52992, Note_off_c, 1, 48, 64
3, 52992, Note_on_c, 1, 36, 50
3, 53120, Note_off_c, 1, 36, 64
3, 53120, Note_on_c, 1, 43, 48
3, 53248, Note_off_c, 1, 43, 64
3, 53248, Note_on_c, 1, 48, 47
3, 53376, Note_off_c, 1, 48, 64
3, 53376, Note_on_c, 1, 38, 47
3, 53504, Note_off_c, 1, 38, 64
3, 53504, Note_on_c, 1, 41, 50
3, 53632, Note_off_c, 1, 41, 64
3, 53632, Note_on_c, 1, 46, 51
3, 53760, Note_off_c, 1, 46, 64
3, 53760, Note_on_c, 1, 38, 48
3, 53888, Note_off_c, 1, 38, 64
3, 53888, Note_on_c, 1, 41, 50
3, 54016, Note_off_c, 1, 41, 64
3, 54016, Note_on_c, 1, 46, 52
3, 54144, Note_off_c, 1, 46, 64
3, 54144, Note_on_c, 1, 38, 50
3, 54272, Note_off_c, 1, 38, 64
3, 54272, Note_on_c, 1, 41, 51
3, 54400, Note_off_c, 1, 41, 64
3, 54400, Note_on_c, 1, 46, 52
3, 54528, Note_off_c, 1, 46, 64
3, 54528, Note_on_c, 1, 38, 50
3, 54656, Note_off_c, 1, 38, 64
3, 54656, Note_on_c, 1, 41, 49
3, 54784, Note_off_c, 1, 41, 64
3, 54784, Note_on_c, 1, 46, 50
3, 54912, Note_off_c, 1, 46, 64
3, 54912, Note_on_c, 1, 39, 47
3, 55040, Note_off_c, 1, 39, 64
3, 55040, Note_on_c, 1, 43, 51
3, 55168, Note_off_c, 1, 43, 64
3, 55168, Note_on_c, 1, 46, 49
3, 55296, Note_off_c, 1, 46, 64
3, 55296, Note_on_c, 1, 39, 52
3, 55424, Note_off_c, 1, 39, 64
3, 55424, Note_on_c, 1, 43, 51
3, 55552, Note_off_c, 1, 43, 64
3, 55552, Note_on_c, 1, 46, 51
3, 55680, Note_off_c, 1, 46, 64
3, 55680, Note_on_c, 1, 40, 49
3, 55808, Note_off_c, 1, 40, 64
3, 55808, Note_on_c, 1, 43, 49
3, 55936, Note_off_c, 1, 43, 64
3, 55936, Note_on_c, 1, 48, 51
3, 56064, Note_off_c, 1, 48, 64
3, 56064, Note_on_c, 1, 40, 47
3, 56192, Note_off_c, 1, 40, 64
3, 56192, Note_on_c, 1, 43, 48
3, 56320, Note_off_c, 1, 43, 64
3, 56320, Note_on_c, 1, 48, 51
3, 56448, Note_off_c, 1, 48, 64
3, 56448, Note_on_c, 1, 41, 48
3, 56576, Note_off_c, 1, 41, 64
3, 56576, Note_on_c, 1, 44, 51
3, 56704, Note_off_c, 1, 44, 64
3, 56704, Note_on_c, 1, 48, 52
3, 56832, Note_off_c, 1, 48, 64
3, 56832, Note_on_c, 1, 41, 48
3, 56960, Note_off_c, 1, 41, 64
3, 56960, Note_on_c, 1, 44, 52
3, 57088, Note_off_c, 1, 44, 64
3, 57088, Note_on_c, 1, 48, 49
3, 57216, Note_off_c, 1, 48, 64
3, 57216, Note_on_c, 1, 41, 47
3, 57344, Note_off_c, 1, 41, 64
3, 57344, Note_on_c, 1, 44, 50
3, 57472, Note_off_c, 1, 44, 64
3, 57472, Note_on_c, 1, 50, 51
3, 57600, Note_off_c, 1, 50, 64
3, 57600, Note_on_c, 1, 41, 51
3, 57728, Note_off_c, 1, 41, 64
3, 57728, Note_on_c, 1, 44, 48
3, 57856, Note_off_c, 1, 44, 64
3, 57856, Note_on_c, 1, 50, 52
3, 57984, Note_off_c, 1, 50, 64
3, 57984, Note_on_c, 1, 43, 49
3, 58112, Note_off_c, 1, 43, 64
3, 58112, Note_on_c, 1, 46, 52
3, 58240, Note_off_c, 1, 46, 64
3, 58240, Note_on_c, 1, 51, 52
3, 58368, Note_off_c, 1, 51, 64
3, 58368, Note_on_c, 1, 43, 50
3, 58496, Note_off_c, 1, 43, 64
3, 58496, Note_on_c, 1, 46, 52
3, 58624, Note_off_c, 1, 46, 64
3, 58624, Note_on_c, 1, 51, 49
3, 58752, Note_off_c, 1, 51, 64
3, 58752, Note_on_c, 1, 43, 49
3, 58880, Note_off_c, 1, 43, 64
3, 58880, Note_on_c, 1, 46, 47
3, 59008, Note_off_c, 1, 46, 64
3, 59008, Note_on_c, 1, 52, 52
3, 59136, Note_off_c, 1, 52, 64
3, 59136, Note_on_c, 1, 43, 47
3, 59264, Note_off_c, 1, 43, 64
3, 59264, Note_on_c, 1, 46, 51
3, 59392, Note_off_c, 1, 46, 64
3, 59392, Note_on_c, 1, 52, 49
3, 59520, Note_off_c, 1, 52, 64
3, 59520, Note_on_c, 1, 44, 51
3, 59648, Note_off_c, 1, 44, 64
3, 59648, Note_on_c, 1, 48, 50
3, 59776, Note_off_c, 1, 48, 64
3, 59776, Note_on_c, 1, 53, 50
3, 59904, Note_off_c, 1, 53, 64
3, 59904, Note_on_c, 1, 44, 52
3, 60032, Note_off_c, 1, 44, 64
3, 60032, Note_on_c, 1, 48, 50
3, 60160, Note_off_c, 1, 48, 64
3, 60160, Note_on_c, 1, 53, 51
3, 60288, Note_off_c, 1, 53, 64
3, 60288, Note_on_c, 1, 44, 52
3, 60416, Note_off_c, 1, 44, 64
3, 60416, Note_on_c, 1, 48, 52
3, 60544, Note_off_c, 1, 48, 64
3, 60544, Note_on_c, 1, 54, 51
3, 60672, Note_off_c, 1, 54, 64
3, 60672, Note_on_c, 1, 44, 50
3, 60800, Note_off_c, 1, 44, 64
3, 60800, Note_on_c, 1, 48, 50
3, 60928, Note_off_c, 1, 48, 64
3, 60928, Note_on_c, 1, 54, 50
3, 61056, Note_off_c, 1, 54, 64
3, 61056, Note_on_c, 1, 43, 51
3, 61184, Note_off_c, 1, 43, 64
3, 61184, Note_on_c, 1, 48, 50
3, 61312, Note_off_c, 1, 48, 64
3, 61312, Note_on_c, 1, 51, 47
3, 61440, Note_off_c, 1, 51, 64
3, 61440, Note_on_c, 1, 43, 49
3, 61568, Note_off_c, 1, 43, 64
3, 61568, Note_on_c, 1, 48, 51
3, 61696, Note_off_c, 1, 48, 64
3, 61696, Note_on_c, 1, 51, 48
3, 61824, Note_off_c, 1, 51, 64
3, 61824, Note_on_c, 1, 43, 52
3, 61952, Note_off_c, 1, 43, 64
3, 61952, Note_on_c, 1, 48, 47
3, 62080, Note_off_c, 1, 48, 64
3, 62080, Note_on_c, 1, 51, 48
3, 62208, Note_off_c, 1, 51, 64
3, 62208, Note_on_c, 1, 43, 48
3, 62336, Note_off_c, 1, 43, 64
3, 62336, Note_on_c, 1, 48, 52
3, 62464, Note_off_c, 1, 48, 64
3, 62464, Note_on_c, 1, 51, 49
3, 62592, Note_off_c, 1, 51, 64
3, 62592, Note_on_c, 1, 43, 52
3, 62720, Note_off_c, 1, 43, 64
3, 62720, Note_on_c, 1, 47, 49
3, 62848, Note_off_c, 1, 47, 64
3, 62848, Note_on_c, 1, 50, 50
3, 62976, Note_off_c, 1, 50, 64
3, 62976, Note_on_c, 1, 43, 51
3, 63104, Note_off_c, 1, 43, 64
3, 63104, Note_on_c, 1, 47, 49
3, 63232, Note_off_c, 1, 47, 64
3, 63232, Note_on_c, 1, 50, 47
3, 63360, Note_off_c, 1, 50, 64
3, 63360, Note_on_c, 1, 43, 49
3, 63488, Note_off_c, 1, 43, 64
3, 63488, Note_on_c, 1, 47, 51
3, 63616, Note_off_c, 1, 47, 64
3, 63616, Note_on_c, 1, 50, 52
3, 63744, Note_off_c, 1, 50, 64
3, 63744, Note_on_c, 1, 43, 51
3, 63872, Note_off_c, 1, 43, 64
3, 63872, Note_on_c, 1, 47, 48
3, 64000, Note_off_c, 1, 47, 64
3, 64000, Note_on_c, 1, 50, 48
3, 64128, Note_off_c, 1, 50, 64
3, 64128, Note_on_c, 1, 36, 51
3, 64256, Note_off_c, 1, 36, 64
3, 64256, Note_on_c, 1, 43, 49
3, 64384, Note_off_c, 1, 43, 64
3, 64384, Note_on_c, 1, 48, 49
3, 64512, Note_off_c, 1, 48, 64
3, 64512, Note_on_c, 1, 36, 51
3, 64640, Note_off_c, 1, 36, 64
3, 64640, Note_on_c, 1, 43, 48
3, 64768, Note_off_c, 1, 43, 64
3, 64768, Note_on_c, 1, 48, 47
3, 64896, Note_off_c, 1, 48, 64
3, 64896, Note_on_c, 1, 36, 48
3, 65024, Note_off_c, 1, 36, 64
3, 65024, Note_on_c, 1, 43, 51
3, 65152, Note_off_c, 1, 43, 64
3, 65152, Note_on_c, 1, 48, 50
3, 65280, Note_off_c, 1, 48, 64
3, 65280, Note_on_c, 1, 36, 51
3, 65408, Note_off_c, 1, 36, 64
3, 65408, Note_on_c, 1, 43, 50
3, 65536, Note_off_c, 1, 43, 64
3, 65536, Note_on_c, 1, 48, 50
3, 65664, Note_off_c, 1, 48, 64
3, 65664, Note_on_c, 1, 38, 51
3, 65792, Note_off_c, 1, 38, 64
3, 65792, Note_on_c, 1, 41, 49
3, 65920, Note_off_c, 1, 41, 64
3, 65920, Note_on_c, 1, 46, 50
3, 66048, Note_off_c, 1, 46, 64
3, 66048, Note_on_c, 1, 38, 52
3, 66176, Note_off_c, 1, 38, 64
3, 66176, Note_on_c, 1, 41, 48
3, 66304, Note_off_c, 1, 41, 64
3, 66304, Note_on_c, 1, 46, 51
3, 66432, Note_off_c, 1, 46, 64
3, 66432, Note_on_c, 1, 38, 49
3, 66560, Note_off_c, 1, 38, 64
3, 66560, Note_on_c, 1, 41, 49
3, 66688, Note_off_c, 1, 41, 64
3, 66688, Note_on_c, 1, 46, 52
3, 66816, Note_off_c, 1, 46, 64
3, 66816, Note_on_c, 1, 38, 47
3, 66944, Note_off_c, 1, 38, 64
3, 66944, Note_on_c, 1, 41, 50
3, 67072, Note_off_c, 1, 41, 64
3, 67072, Note_on_c, 1, 46, 50
3, 67200, Note_off_c, 1, 46, 64
3, 67200, Note_on_c, 1, 39, 48
3, 67328, Note_off_c, 1, 39, 64
3, 67328, Note_on_c, 1, 43, 47
3, 67456, Note_off_c, 1, 43, 64
3, 67456, Note_on_c, 1, 46, 51
3, 67584, Note_off_c, 1, 46, 64
3, 67584, Note_on_c, 1, 39, 48
3, 67712, Note_off_c, 1, 39, 64
3, 67712, Note_on_c, 1, 43, 49
3, 67840, Note_off_c, 1, 43, 64
3, 67840, Note_on_c, 1, 46, 48
3, 67968, Note_off_c, 1, 46, 64
3, 67968, Note_on_c, 1, 40, 52
3, 68096, Note_off_c, 1, 40, 64
3, 68096, Note_on_c, 1, 43, 52
3, 68224, Note_off_c, 1, 43, 64
3, 68224, Note_on_c, 1, 48, 47
3, 68352, Note_off_c, 1, 48, 64
3, 68352, Note_on_c, 1, 40, 48
3, 68480, Note_off_c, 1, 40, 64
3, 68480, Note_on_c, 1, 43, 50
3, 68608, Note_off_c, 1, 43, 64
3, 68608, Note_on_c, 1, 48, 48
3, 68736, Note_off_c, 1, 48, 64
3, 68736, Note_on_c, 1, 41, 50
3, 68864, Note_off_c, 1, 41, 64
3, 68864, Note_on_c, 1, 44, 48
3, 68992, Note_off_c, 1, 44, 64
3, 68992, Note_on_c, 1, 48, 49
3, 69120, Note_off_c, 1, 48, 64
3, 69120, Note_on_c, 1, 41, 47
3, 69248, Note_off_c, 1, 41, 64
3, 69248, Note_on_c, 1, 44, 50
3, 69376, Note_off_c, 1, 44, 64
3, 69376, Note_on_c, 1, 48, 47
3, 69504, Note_off_c, 1, 48, 64
3, 69504, Note_on_c, 1, 41, 52
3, 69632, Note_off_c, 1, 41, 64
3, 69632, Note_on_c, 1, 44, 51
3, 69760, Note_off_c, 1, 44, 64
3, 69760, Note_on_c, 1, 50, 48
3, 69888, Note_off_c, 1, 50, 64
3, 69888, Note_on_c, 1, 41, 52
3, 70016, Note_off_c, 1, 41, 64
3, 70016, Note_on_c, 1, 44, 50
3, 70144, Note_off_c, 1, 44, 64
3, 70144, Note_on_c, 1, 50, 48
3, 70272, Note_off_c, 1, 50, 64
3, 70272, Note_on_c, 1, 43, 48
3, 70400, Note_off_c, 1, 43, 64
3, 70400, Note_on_c, 1, 46, 52
3, 70528, Note_off_c, 1, 46, 64
3, 70528, Note_on_c, 1, 51, 47
3, 70656, Note_off_c, 1, 51, 64
3, 70656, Note_on_c, 1, 43, 48
3, 70784, Note_off_c, 1, 43, 64
3, 70784, Note_on_c, 1, 46, 50
3, 70912, Note_off_c, 1, 46, 64
3, 70912, Note_on_c, 1, 51, 51
3, 71040, Note_off_c, 1, 51, 64
3, 71040, Note_on_c, 1, 43, 51
3, 71168, Note_off_c, 1, 43, 64
3, 71168, Note_on_c, 1, 46, 48
3, 71296, Note_off_c, 1, 46, 64
3, 71296, Note_on_c, 1, 52, 51
3, 71424, Note_off_c, 1, 52, 64
3, 71424, Note_on_c, 1, 43, 51
3, 71552, Note_off_c, 1, 43, 64
3, 71552, Note_on_c, 1, 46, 52
3, 71680, Note_off_c, 1, 46, 64
3, 71680, Note_on_c, 1, 52, 48
3, 71808, Note_off_c, 1, 52, 64
3, 71808, Note_on_c, 1, 44, 52
3, 71936, Note_off_c, 1, 44, 64
3, 71936, Note_on_c, 1, 48, 47
3, 72064, Note_off_c, 1, 48, 64
3, 72064, Note_on_c, 1, 53, 49
3, 72192, Note_off_c, 1, 53, 64
3, 72192, Note_on_c, 1, 44, 51
3, 72320, Note_off_c, 1, 44, 64
3, 72320, Note_on_c, 1, 48, 47
3, 72448, Note_off_c, 1, 48, 64
3, 72448, Note_on_c, 1, 53, 49
3, 72576, Note_off_c, 1, 53, 64
3, 72576, Note_on_c, 1, 44, 47
3, 72704, Note_off_c, 1, 44, 64
3, 72704, Note_on_c, 1, 48, 51
3, 72832, Note_off_c, 1, 48, 64
3, 72832, Note_on_c, 1, 54, 49
3, 72960, Note_off_c, 1, 54, 64
3, 72960, Note_on_c, 1, 44, 50
3, 73088, Note_off_c, 1, 44, 64
3, 73088, Note_on_c, 1, 48, 48
3, 73216, Note_off_c, 1, 48, 64
3, 73216, Note_on_c, 1, 54, 51
3, 73344, Note_off_c, 1, 54, 64
3, 73344, Note_on_c, 1, 43, 52
3, 73472, Note_off_c, 1, 43, 64
3, 73472, Note_on_c, 1, 48, 52
3, 73600, Note_off_c, 1, 48, 64
3, 73600, Note_on_c, 1, 51, 52
3, 73728, Note_off_c, 1, 51, 64
3, 73728, Note_on_c, 1, 43, 52
3, 73856, Note_off_c, 1, 43, 64
3, 73856, Note_on_c, 1, 48, 52
3, 73984, Note_off_c, 1, 48, 64
3, 73984, Note_on_c, 1, 51, 53
3, 74112, Note_off_c, 1, 51, 64
3, 74112, Note_on_c, 1, 43, 53
3, 74240, Note_off_c, 1, 43, 64
3, 74240, Note_on_c, 1, 48, 53
3, 74368, Note_off_c, 1, 48, 64
3, 74368, Note_on_c, 1, 51, 53
3, 74496, Note_off_c, 1, 51, 64
3, 74496, Note_on_c, 1, 43, 53
3, 74624, Note_off_c, 1, 43, 64
3, 74624, Note_on_c, 1, 48, 53
3, 74752, Note_off_c, 1, 48, 64
3, 74752, Note_on_c, 1, 51, 54
3, 74880, Note_off_c, 1, 51, 64
3, 74880, Note_on_c, 1, 43, 57
3, 75008, Note_off_c, 1, 43, 64
3, 75008, Note_on_c, 1, 47, 58
3, 75136, Note_off_c, 1, 47, 64
3, 75136, Note_on_c, 1, 50, 59
3, 75264, Note_off_c, 1, 50, 64
3, 75264, Note_on_c, 1, 43, 61
3, 75392, Note_off_c, 1, 43, 64
3, 75392, Note_on_c, 1, 47, 62
3, 75520, Note_off_c, 1, 47, 64
3, 75520, Note_on_c, 1, 50, 63
3, 75648, Note_off_c, 1, 50, 64
3, 75648, Note_on_c, 1, 43, 64
3, 75776, Note_off_c, 1, 43, 64
3, 75776, Note_on_c, 1, 47, 66
3, 75904, Note_off_c, 1, 47, 64
3, 75904, Note_on_c, 1, 50, 67
3, 76032, Note_off_c, 1, 50, 64
3, 76032, Note_on_c, 1, 43, 68
3, 76160, Note_off_c, 1, 43, 64
3, 76160, Note_on_c, 1, 47, 70
3, 76288, Note_off_c, 1, 47, 64
3, 76288, Note_on_c, 1, 50, 71
3, 76416, Note_off_c, 1, 50, 64
3, 76416, Note_on_c, 1, 48, 79
3, 76544, Note_off_c, 1, 48, 64
3, 76544, Note_on_c, 1, 51, 79
3, 76672, Note_off_c, 1, 51, 64
3, 76672, Note_on_c, 1, 55, 79
3, 76800, Note_off_c, 1, 55, 64
3, 76800, Note_on_c, 1, 60, 79
3, 76928, Note_off_c, 1, 60, 64
3, 76928, Note_on_c, 1, 63, 79
3, 77056, Note_off_c, 1, 63, 64
3, 77056, Note_on_c, 1, 67, 79
3, 77184, Note_off_c, 1, 67, 64
3, 77184, Note_on_c, 1, 60, 79
3, 77312, Note_off_c, 1, 60, 64
3, 77312, Note_on_c, 1, 63, 79
3, 77440, Note_off_c, 1, 63, 64
3, 77440, Note_on_c, 1, 67, 79
3, 77568, Note_off_c, 1, 67, 64
3, 77568, Note_on_c, 1, 60, 79
3, 77696, Note_off_c, 1, 60, 64
3, 77696, Note_on_c, 1, 65, 79
3, 77824, Note_off_c, 1, 65, 64
3, 77824, Note_on_c, 1, 68, 79
3, 77952, Note_off_c, 1, 68, 64
3, 77952, Note_on_c, 1, 60, 79
3, 78080, Note_off_c, 1, 60, 64
3, 78080, Note_on_c, 1, 67, 79
3, 78208, Note_off_c, 1, 67, 64
3, 78208, Note_on_c, 1, 63, 79
3, 78336, Note_off_c, 1, 63, 64
3, 78336, Note_on_c, 1, 60, 80
3, 78464, Note_off_c, 1, 60, 64
3, 78464, Note_on_c, 1, 55, 80
3, 78592, Note_off_c, 1, 55, 64
3, 78592, Note_on_c, 1, 51, 80
3, 78720, Note_off_c, 1, 51, 64
3, 78720, Note_on_c, 1, 48, 80
3, 78848, Note_off_c, 1, 48, 64
3, 78848, Note_on_c, 1, 51, 80
3, 78976, Note_off_c, 1, 51, 64
3, 78976, Note_on_c, 1, 55, 80
3, 79104, Note_off_c, 1, 55, 64
3, 79104, Note_on_c, 1, 43, 80
3, 79232, Note_off_c, 1, 43, 64
3, 79232, Note_on_c, 1, 50, 80
3, 79360, Note_off_c, 1, 50, 64
3, 79360, Note_on_c, 1, 55, 80
3, 79488, Note_off_c, 1, 55, 64
3, 79488, Note_on_c, 1, 48, 80
3, 79616, Note_off_c, 1, 48, 64
3, 79616, Note_on_c, 1, 51, 80
3, 79744, Note_off_c, 1, 51, 64
3, 79744, Note_on_c, 1, 55, 80
3, 79872, Note_off_c, 1, 55, 64
3, 79872, Note_on_c, 1, 60, 80
3, 80000, Note_off_c, 1, 60, 64
3, 80000, Note_on_c, 1, 63, 80
3, 80128, Note_off_c, 1, 63, 64
3, 80128, Note_on_c, 1, 67, 80
3, 80256, Note_off_c, 1, 67, 64
3, 80256, Note_on_c, 1, 60, 80
3, 80384, Note_off_c, 1, 60, 64
3, 80384, Note_on_c, 1, 63, 80
3, 80512, Note_off_c, 1, 63, 64
3, 80512, Note_on_c, 1, 67, 80
3, 80640, Note_off_c, 1, 67, 64
3, 80640, Note_on_c, 1, 60, 80
3, 80768, Note_off_c, 1, 60, 64
3, 80768, Note_on_c, 1, 65, 80
3, 80896, Note_off_c, 1, 65, 64
3, 80896, Note_on_c, 1, 68, 81
3, 81024, Note_off_c, 1, 68, 64
3, 81024, Note_on_c, 1, 60, 81
3, 81152, Note_off_c, 1, 60, 64
3, 81152, Note_on_c, 1, 67, 82
3, 81280, Note_off_c, 1, 67, 64
3, 81280, Note_on_c, 1, 63, 82
3, 81408, Note_off_c, 1, 63, 64
3, 81408, Note_on_c, 1, 60, 82
3, 81536, Note_off_c, 1, 60, 64
3, 81536, Note_on_c, 1, 55, 81
3, 81664, Note_off_c, 1, 55, 64
3, 81664, Note_on_c, 1, 51, 81
3, 81792, Note_off_c, 1, 51, 64
3, 81792, Note_on_c, 1, 48, 81
3, 81920, Note_off_c, 1, 48, 64
3, 81920, Note_on_c, 1, 51, 81
3, 82048, Note_off_c, 1, 51, 64
3, 82048, Note_on_c, 1, 55, 80
3, 82176, Note_off_c, 1, 55, 64
3, 82176, Note_on_c, 1, 43, 80
3, 82304, Note_off_c, 1, 43, 64
3, 82304, Note_on_c, 1, 50, 80
3, 82432, Note_off_c, 1, 50, 64
3, 82432, Note_on_c, 1, 55, 80
3, 82560, Note_off_c, 1, 55, 64
3, 82560, Note_on_c, 1, 48, 79
3, 82688, Note_off_c, 1, 48, 64
3, 82688, Note_on_c, 1, 51, 79
3, 82816, Note_off_c, 1, 51, 64
3, 82816, Note_on_c, 1, 55, 79
3, 82944, Note_off_c, 1, 55, 64
3, 82944, Note_on_c, 1, 60, 78
3, 83072, Note_off_c, 1, 60, 64
3, 83072, Note_on_c, 1, 55, 78
3, 83200, Note_off_c, 1, 55, 64
3, 83200, Note_on_c, 1, 51, 78
3, 83328, Note_off_c, 1, 51, 64
3, 83328, Note_on_c, 1, 48, 78
3, 83456, Note_off_c, 1, 48, 64
3, 83456, Note_on_c, 1, 51, 77
3, 83584, Note_off_c, 1, 51, 64
3, 83584, Note_on_c, 1, 55, 77
3, 83712, Note_off_c, 1, 55, 64
3, 83712, Note_on_c, 1, 43, 77
3, 83840, Note_off_c, 1, 43, 64
3, 83840, Note_on_c, 1, 50, 76
3, 83968, Note_off_c, 1, 50, 64
3, 83968, Note_on_c, 1, 55, 76
3, 84096, Note_off_c, 1, 55, 64
3, 84096, Note_on_c, 1, 48, 76
3, 84224, Note_off_c, 1, 48, 64
3, 84224, Note_on_c, 1, 51, 76
3, 84352, Note_off_c, 1, 51, 64
3, 84352, Note_on_c, 1, 55, 75
3, 84480, Note_off_c, 1, 55, 64
3, 84480, Note_on_c, 1, 60, 75
3, 84608, Note_off_c, 1, 60, 64
3, 84608, Note_on_c, 1, 55, 75
3, 84736, Note_off_c, 1, 55, 64
3, 84736, Note_on_c, 1, 51, 75
3, 84864, Note_off_c, 1, 51, 64
3, 84864, Note_on_c, 1, 48, 74
3, 84992, Note_off_c, 1, 48, 64
3, 84992, Note_on_c, 1, 51, 74
3, 85120, Note_off_c, 1, 51, 64
3, 85120, Note_on_c, 1, 55, 74
3, 85248, Note_off_c, 1, 55, 64
3, 85248, Note_on_c, 1, 60, 73
3, 85376, Note_off_c, 1, 60, 64
3, 85376, Note_on_c, 1, 55, 73
3, 85504, Note_off_c, 1, 55, 64
3, 85504, Note_on_c, 1, 51, 73
3, 85632, Note_off_c, 1, 51, 64
3, 85632, Note_on_c, 1, 48, 59
3, 85760, Note_off_c, 1, 48, 64
3, 85760, Note_on_c, 1, 51, 80
3, 85888, Note_off_c, 1, 51, 64
3, 85888, Note_on_c, 1, 55, 78
3, 86016, Note_off_c, 1, 55, 64
3, 86016, Note_on_c, 1, 60, 77
3, 86144, Note_off_c, 1, 60, 64
3, 86144, Note_on_c, 1, 55, 76
3, 86272, Note_off_c, 1, 55, 64
3, 86272, Note_on_c, 1, 51, 75
3, 86400, Note_off_c, 1, 51, 64
3, 86400, Note_on_c, 1, 48, 73
3, 86528, Note_off_c, 1, 48, 64
3, 86528, Note_on_c, 1, 52, 72
3, 86656, Note_off_c, 1, 52, 64
3, 86656, Note_on_c, 1, 55, 71
3, 86784, Note_off_c, 1, 55, 64
3, 86784, Note_on_c, 1, 60, 70
3, 86912, Note_off_c, 1, 60, 64
3, 86912, Note_on_c, 1, 55, 69
3, 87040, Note_off_c, 1, 55, 64
3, 87040, Note_on_c, 1, 52, 67
3, 87168, Note_off_c, 1, 52, 64
3, 87168, Note_on_c, 1, 53, 66
3, 87296, Note_off_c, 1, 53, 64
3, 87296, Note_on_c, 1, 56, 65
3, 87424, Note_off_c, 1, 56, 64
3, 87424, Note_on_c, 1, 60, 64
3, 87552, Note_off_c, 1, 60, 64
3, 87552, Note_on_c, 1, 53, 62
3, 87680, Note_off_c, 1, 53, 64
3, 87680, Note_on_c, 1, 56, 61
3, 87808, Note_off_c, 1, 56, 64
3, 87808, Note_on_c, 1, 60, 60
3, 87936, Note_off_c, 1, 60, 64
3, 87936, Note_on_c, 1, 53, 43
3, 88064, Note_off_c, 1, 53, 64
3, 88064, Note_on_c, 1, 56, 44
3, 88192, Note_off_c, 1, 56, 64
3, 88192, Note_on_c, 1, 60, 45
3, 88320, Note_off_c, 1, 60, 64
3, 88320, Note_on_c, 1, 53, 46
3, 88448, Note_off_c, 1, 53, 64
3, 88448, Note_on_c, 1, 58, 48
3, 88576, Note_off_c, 1, 58, 64
3, 88576, Note_on_c, 1, 61, 49
3, 88704, Note_off_c, 1, 61, 64
3, 88704, Note_on_c, 1, 53, 50
3, 88832, Note_off_c, 1, 53, 64
3, 88832, Note_on_c, 1, 60, 51
3, 88960, Note_off_c, 1, 60, 64
3, 88960, Note_on_c, 1, 56, 53
3, 89088, Note_off_c, 1, 56, 64
3, 89088, Note_on_c, 1, 53, 56
3, 89216, Note_off_c, 1, 53, 64
3, 89216, Note_on_c, 1, 48, 62
3, 89344, Note_off_c, 1, 48, 64
3, 89344, Note_on_c, 1, 44, 67
3, 89472, Note_off_c, 1, 44, 64
3, 89472, Note_on_c, 1, 41, 72
3, 89600, Note_off_c, 1, 41, 64
3, 89600, Note_on_c, 1, 44, 80
3, 89728, Note_off_c, 1, 44, 64
3, 89728, Note_on_c, 1, 48, 80
3, 89856, Note_off_c, 1, 48, 64
3, 89856, Note_on_c, 1, 40, 80
3, 89984, Note_off_c, 1, 40, 64
3, 89984, Note_on_c, 1, 43, 79
3, 90112, Note_off_c, 1, 43, 64
3, 90112, Note_on_c, 1, 48, 79
3, 90240, Note_off_c, 1, 48, 64
3, 90240, Note_on_c, 1, 41, 79
3, 90368, Note_off_c, 1, 41, 64
3, 90368, Note_on_c, 1, 44, 79
3, 90496, Note_off_c, 1, 44, 64
3, 90496, Note_on_c, 1, 48, 78
3, 90624, Note_off_c, 1, 48, 64
3, 90624, Note_on_c, 1, 53, 78
3, 90752, Note_off_c, 1, 53, 64
3, 90752, Note_on_c, 1, 56, 78
3, 90880, Note_off_c, 1, 56, 64
3, 90880, Note_on_c, 1, 60, 77
3, 91008, Note_off_c, 1, 60, 64
3, 91008, Note_on_c, 1, 53, 73
3, 91136, Note_off_c, 1, 53, 64
3, 91136, Note_on_c, 1, 56, 59
3, 91264, Note_off_c, 1, 56, 64
3, 91264, Note_on_c, 1, 60, 54
3, 91392, Note_off_c, 1, 60, 64
3, 91392, Note_on_c, 1, 53, 54
3, 91520, Note_off_c, 1, 53, 64
3, 91520, Note_on_c, 1, 58, 54
3, 91648, Note_off_c, 1, 58, 64
3, 91648, Note_on_c, 1, 61, 54
3, 91776, Note_off_c, 1, 61, 64
3, 91776, Note_on_c, 1, 53, 54
3, 91904, Note_off_c, 1, 53, 64
3, 91904, Note_on_c, 1, 60, 54
3, 92032, Note_off_c, 1, 60, 64
3, 92032, Note_on_c, 1, 56, 54
3, 92160, Note_off_c, 1, 56, 64
3, 92160, Note_on_c, 1, 53, 54
3, 92288, Note_off_c, 1, 53, 64
3, 92288, Note_on_c, 1, 48, 56
3, 92416, Note_off_c, 1, 48, 64
3, 92416, Note_on_c, 1, 44, 64
3, 92544, Note_off_c, 1, 44, 64
3, 92544, Note_on_c, 1, 41, 72
3, 92672, Note_off_c, 1, 41, 64
3, 92672, Note_on_c, 1, 44, 78
3, 92800, Note_off_c, 1, 44, 64
3, 92800, Note_on_c, 1, 48, 78
3, 92928, Note_off_c, 1, 48, 64
3, 92928, Note_on_c, 1, 40, 78
3, 93056, Note_off_c, 1, 40, 64
3, 93056, Note_on_c, 1, 43, 78
3, 93184, Note_off_c, 1, 43, 64
3, 93184, Note_on_c, 1, 48, 77
3, 93312, Note_off_c, 1, 48, 64
3, 93312, Note_on_c, 1, 41, 77
3, 93440, Note_off_c, 1, 41, 64
3, 93440, Note_on_c, 1, 44, 77
3, 93568, Note_off_c, 1, 44, 64
3, 93568, Note_on_c, 1, 48, 76
3, 93696, Note_off_c, 1, 48, 64
3, 93696, Note_on_c, 1, 53, 76
3, 93824, Note_off_c, 1, 53, 64
3, 93824, Note_on_c, 1, 56, 68
3, 93952, Note_off_c, 1, 56, 64
3, 93952, Note_on_c, 1, 60, 62
3, 94080, Note_off_c, 1, 60, 64
3, 94080, Note_on_c, 1, 61, 56
3, 94080, Note_on_c, 1, 55, 56
3, 94464, Note_off_c, 1, 61, 64
3, 94464, Note_on_c, 1, 58, 39
3, 94848, Note_off_c, 1, 58, 64
3, 94848, Note_off_c, 1, 55, 64
3, 94848, Note_on_c, 1, 56, 36
3, 94848, Note_on_c, 1, 60, 36
3, 95616, Note_off_c, 1, 60, 64
3, 95616, Note_off_c, 1, 56, 64
3, 95616, Note_on_c, 1, 61, 42
3, 95616, Note_on_c, 1, 55, 42
3, 96000, Note_off_c, 1, 61, 64
3, 96000, Note_on_c, 1, 58, 45
3, 96384, Note_off_c, 1, 58, 64
3, 96384, Note_off_c, 1, 55, 64
3, 96384, Note_on_c, 1, 56, 48
3, 96384, Note_on_c, 1, 60, 48
3, 97152, Note_off_c, 1, 60, 64
3, 97152, Note_off_c, 1, 56, 64
3, 97152, Note_on_c, 1, 61, 54
3, 97152, Note_on_c, 1, 55, 54
3, 97536, Note_off_c, 1, 61, 64
3, 97536, Note_on_c, 1, 58, 56
3, 97920, Note_off_c, 1, 58, 64
3, 97920, Note_off_c, 1, 55, 64
3, 97920, Note_on_c, 1, 56, 59
3, 97920, Note_on_c, 1, 60, 59
3, 98304, Note_off_c, 1, 60, 64
3, 98304, Note_off_c, 1, 56, 64
3, 98304, Note_on_c, 1, 52, 62
3, 98304, Note_on_c, 1, 55, 62
3, 98688, Note_off_c, 1, 55, 64
3, 98688, Note_off_c, 1, 52, 64
3, 98688, Note_on_c, 1, 53, 65
3, 98688, Note_on_c, 1, 56, 65
3, 99072, Note_off_c, 1, 56, 64
3, 99072, Note_off_c, 1, 53, 64
3, 99072, Note_on_c, 1, 49, 68
3, 99072, Note_on_c, 1, 53, 68
3, 99456, Note_off_c, 1, 53, 64
3, 99456, Note_off_c, 1, 49, 64
3, 99456, Note_on_c, 1, 48, 71
3, 99456, Note_on_c, 1, 52, 71
3, 99648, Note_off_c, 1, 52, 64
3, 99648, Note_off_c, 1, 48, 64
3, 99840, Note_on_c, 1, 60, 54
3, 100032, Note_off_c, 1, 60, 64
3, 100224, Note_on_c, 1, 70, 30
3, 100224, Note_on_c, 1, 64, 30
3, 100608, Note_off_c, 1, 70, 64
3, 100608, Note_on_c, 1, 67, 32
3, 100992, Note_off_c, 1, 67, 64
3, 100992, Note_off_c, 1, 64, 64
3, 100992, Note_on_c, 1, 65, 33
3, 100992, Note_on_c, 1, 68, 33
3, 101760, Note_off_c, 1, 68, 64
3, 101760, Note_off_c, 1, 65, 64
3, 101760, Note_on_c, 1, 70, 36
3, 101760, Note_on_c, 1, 64, 36
3, 102144, Note_off_c, 1, 70, 64
3, 102144, Note_on_c, 1, 67, 38
3, 102528, Note_off_c, 1, 67, 64
3, 102528, Note_off_c, 1, 64, 64
3, 102528, Note_on_c, 1, 65, 39
3, 102528, Note_on_c, 1, 68, 39
3, 103296, Note_off_c, 1, 68, 64
3, 103296, Note_off_c, 1, 65, 64
3, 103296, Note_on_c, 1, 58, 49
3, 103296, Note_on_c, 1, 52, 49
3, 103680, Note_off_c, 1, 58, 64
3, 103680, Note_on_c, 1, 55, 56
3, 104064, Note_off_c, 1, 55, 64
3, 104064, Note_off_c, 1, 52, 64
3, 104064, Note_on_c, 1, 53, 77
3, 104064, Note_on_c, 1, 56, 77
3, 104448, Note_off_c, 1, 56, 64
3, 104448, Note_off_c, 1, 53, 64
3, 104448, Note_on_c, 1, 53, 95
3, 104448, Note_on_c, 1, 56, 95
3, 105216, Note_off_c, 1, 56, 64
3, 105216, Note_off_c, 1, 53, 64
3, 105216, Note_on_c, 1, 54, 74
3, 105216, Note_on_c, 1, 57, 74
3, 105600, Note_off_c, 1, 57, 64
3, 105600, Note_off_c, 1, 54, 64
3, 105600, Note_on_c, 1, 55, 58
3, 105728, Note_off_c, 1, 55, 64
3, 105728, Note_on_c, 1, 59, 56
3, 105856, Note_off_c, 1, 59, 64
3, 105856, Note_on_c, 1, 62, 55
3, 105984, Note_off_c, 1, 62, 64
3, 105984, Note_on_c, 1, 55, 53
3, 106112, Note_off_c, 1, 55, 64
3, 106112, Note_on_c, 1, 59, 52
3, 106240, Note_off_c, 1, 59, 64
3, 106240, Note_on_c, 1, 62, 50
3, 106368, Note_off_c, 1, 62, 64
3, 106368, Note_on_c, 1, 55, 48
3, 106496, Note_off_c, 1, 55, 64
3, 106496, Note_on_c, 1, 59, 47
3, 106624, Note_off_c, 1, 59, 64
3, 106624, Note_on_c, 1, 62, 45
3, 106752, Note_off_c, 1, 62, 64
3, 106752, Note_on_c, 1, 55, 47
3, 106880, Note_off_c, 1, 55, 64
3, 106880, Note_on_c, 1, 60, 47
3, 107008, Note_off_c, 1, 60, 64
3, 107008, Note_on_c, 1, 63, 47
3, 107136, Note_off_c, 1, 63, 64
3, 107136, Note_on_c, 1, 55, 47
3, 107264, Note_off_c, 1, 55, 64
3, 107264, Note_on_c, 1, 62, 48
3, 107392, Note_off_c, 1, 62, 64
3, 107392, Note_on_c, 1, 59, 48
3, 107520, Note_off_c, 1, 59, 64
3, 107520, Note_on_c, 1, 55, 53
3, 107648, Note_off_c, 1, 55, 64
3, 107648, Note_on_c, 1, 50, 60
3, 107776, Note_off_c, 1, 50, 64
3, 107776, Note_on_c, 1, 47, 67
3, 107904, Note_off_c, 1, 47, 64
3, 107904, Note_on_c, 1, 43, 75
3, 108032, Note_off_c, 1, 43, 64
3, 108032, Note_on_c, 1, 47, 76
3, 108160, Note_off_c, 1, 47, 64
3, 108160, Note_on_c, 1, 50, 76
3, 108288, Note_off_c, 1, 50, 64
3, 108288, Note_on_c, 1, 43, 77
3, 108416, Note_off_c, 1, 43, 64
3, 108416, Note_on_c, 1, 47, 77
3, 108544, Note_off_c, 1, 47, 64
3, 108544, Note_on_c, 1, 50, 78
3, 108672, Note_off_c, 1, 50, 64
3, 108672, Note_on_c, 1, 43, 78
3, 108800, Note_off_c, 1, 43, 64
3, 108800, Note_on_c, 1, 47, 79
3, 108928, Note_off_c, 1, 47, 64
3, 108928, Note_on_c, 1, 50, 79
3, 109056, Note_off_c, 1, 50, 64
3, 109056, Note_on_c, 1, 55, 79
3, 109184, Note_off_c, 1, 55, 64
3, 109184, Note_on_c, 1, 59, 80
3, 109312, Note_off_c, 1, 59, 64
3, 109312, Note_on_c, 1, 62, 80
3, 109440, Note_off_c, 1, 62, 64
3, 109440, Note_on_c, 1, 55, 70
3, 109568, Note_off_c, 1, 55, 64
3, 109568, Note_on_c, 1, 59, 54
3, 109696, Note_off_c, 1, 59, 64
3, 109696, Note_on_c, 1, 62, 53
3, 109824, Note_off_c, 1, 62, 64
3, 109824, Note_on_c, 1, 55, 53
3, 109952, Note_off_c, 1, 55, 64
3, 109952, Note_on_c, 1, 60, 53
3, 110080, Note_off_c, 1, 60, 64
3, 110080, Note_on_c, 1, 63, 52
3, 110208, Note_off_c, 1, 63, 64
3, 110208, Note_on_c, 1, 55, 52
3, 110336, Note_off_c, 1, 55, 64
3, 110336, Note_on_c, 1, 62, 51
3, 110464, Note_off_c, 1, 62, 64
3, 110464, Note_on_c, 1, 59, 51
3, 110592, Note_off_c, 1, 59, 64
3, 110592, Note_on_c, 1, 55, 51
3, 110720, Note_off_c, 1, 55, 64
3, 110720, Note_on_c, 1, 50, 53
3, 110848, Note_off_c, 1, 50, 64
3, 110848, Note_on_c, 1, 47, 61
3, 110976, Note_off_c, 1, 47, 64
3, 110976, Note_on_c, 1, 43, 66
3, 111104, Note_off_c, 1, 43, 64
3, 111104, Note_on_c, 1, 47, 66
3, 111232, Note_off_c, 1, 47, 64
3, 111232, Note_on_c, 1, 50, 67
3, 111360, Note_off_c, 1, 50, 64
3, 111360, Note_on_c, 1, 43, 67
3, 111488, Note_off_c, 1, 43, 64
3, 111488, Note_on_c, 1, 47, 68
3, 111616, Note_off_c, 1, 47, 64
3, 111616, Note_on_c, 1, 50, 68
3, 111744, Note_off_c, 1, 50, 64
3, 111744, Note_on_c, 1, 43, 69
3, 111872, Note_off_c, 1, 43, 64
3, 111872, Note_on_c, 1, 47, 69
3, 112000, Note_off_c, 1, 47, 64
3, 112000, Note_on_c, 1, 50, 70
3, 112128, Note_off_c, 1, 50, 64
3, 112128, Note_on_c, 1, 55, 70
3, 112256, Note_off_c, 1, 55, 64
3, 112256, Note_on_c, 1, 50, 71
3, 112384, Note_off_c, 1, 50, 64
3, 112384, Note_on_c, 1, 47, 71
3, 112512, Note_off_c, 1, 47, 64
3, 112512, Note_on_c, 1, 43, 72
3, 112640, Note_off_c, 1, 43, 64
3, 112640, Note_on_c, 1, 47, 73
3, 112768, Note_off_c, 1, 47, 64
3, 112768, Note_on_c, 1, 50, 73
3, 112896, Note_off_c, 1, 50, 64
3, 112896, Note_on_c, 1, 43, 74
3, 113024, Note_off_c, 1, 43, 64
3, 113024, Note_on_c, 1, 47, 74
3, 113152, Note_off_c, 1, 47, 64
3, 113152, Note_on_c, 1, 50, 75
3, 113280, Note_off_c, 1, 50, 64
3, 113280, Note_on_c, 1, 43, 75
3, 113408, Note_off_c, 1, 43, 64
3, 113408, Note_on_c, 1, 47, 76
3, 113536, Note_off_c, 1, 47, 64
3, 113536, Note_on_c, 1, 50, 76
3, 113664, Note_off_c, 1, 50, 64
3, 113664, Note_on_c, 1, 55, 77
3, 113792, Note_off_c, 1, 55, 64
3, 113792, Note_on_c, 1, 50, 77
3, 113920, Note_off_c, 1, 50, 64
3, 113920, Note_on_c, 1, 47, 78
3, 114048, Note_off_c, 1, 47, 64
3, 114048, Note_on_c, 1, 43, 78
3, 114176, Note_off_c, 1, 43, 64
3, 114176, Note_on_c, 1, 47, 79
3, 114304, Note_off_c, 1, 47, 64
3, 114304, Note_on_c, 1, 50, 79
3, 114432, Note_off_c, 1, 50, 64
3, 114432, Note_on_c, 1, 43, 80
3, 114560, Note_off_c, 1, 43, 64
3, 114560, Note_on_c, 1, 47, 80
3, 114688, Note_off_c, 1, 47, 64
3, 114688, Note_on_c, 1, 50, 81
3, 114816, Note_off_c, 1, 50, 64
3, 114816, Note_on_c, 1, 43, 81
3, 114944, Note_off_c, 1, 43, 64
3, 114944, Note_on_c, 1, 47, 82
3, 115072, Note_off_c, 1, 47, 64
3, 115072, Note_on_c, 1, 50, 83
3, 115200, Note_off_c, 1, 50, 64
3, 115200, Note_on_c, 1, 55, 83
3, 115328, Note_off_c, 1, 55, 64
3, 115328, Note_on_c, 1, 50, 84
3, 115456, Note_off_c, 1, 50, 64
3, 115456, Note_on_c, 1, 47, 84
3, 115584, Note_off_c, 1, 47, 64
3, 115584, Note_on_c, 1, 43, 85
3, 115712, Note_off_c, 1, 43, 64
3, 115712, Note_on_c, 1, 47, 85
3, 115840, Note_off_c, 1, 47, 64
3, 115840, Note_on_c, 1, 50, 86
3, 115968, Note_off_c, 1, 50, 64
3, 115968, Note_on_c, 1, 55, 86
3, 116096, Note_off_c, 1, 55, 64
3, 116096, Note_on_c, 1, 50, 87
3, 116224, Note_off_c, 1, 50, 64
3, 116224, Note_on_c, 1, 47, 87
3, 116352, Note_off_c, 1, 47, 64
3, 116352, Note_on_c, 1, 43, 88
3, 116736, Note_off_c, 1, 43, 64
3, 118784, Note_on_c, 1, 56, 89
3, 118912, Note_off_c, 1, 56, 64
3, 118912, Note_on_c, 1, 55, 88
3, 119040, Note_off_c, 1, 55, 64
3, 119040, Note_on_c, 1, 53, 87
3, 119168, Note_off_c, 1, 53, 64
3, 119168, Note_on_c, 1, 51, 86
3, 119296, Note_off_c, 1, 51, 64
3, 119296, Note_on_c, 1, 50, 86
3, 119424, Note_off_c, 1, 50, 64
3, 119424, Note_on_c, 1, 48, 89
3, 119808, Note_off_c, 1, 48, 64
3, 119808, Note_on_c, 1, 56, 89
3, 120192, Note_off_c, 1, 56, 64
3, 120192, Note_on_c, 1, 55, 89
3, 120576, Note_off_c, 1, 55, 64
3, 120576, Note_on_c, 1, 54, 89
3, 120960, Note_off_c, 1, 54, 64
3, 120960, Note_on_c, 1, 55, 89
3, 121344, Note_off_c, 1, 55, 64
3, 121344, Note_on_c, 1, 56, 89
3, 121728, Note_off_c, 1, 56, 64
3, 121728, Note_on_c, 1, 55, 89
3, 122112, Note_off_c, 1, 55, 64
3, 122112, Note_on_c, 1, 54, 89
3, 122496, Note_off_c, 1, 54, 64
3, 122496, Note_on_c, 1, 55, 89
3, 122624, Note_off_c, 1, 55, 64
3, 122624, Note_on_c, 1, 60, 89
3, 122752, Note_off_c, 1, 60, 64
3, 122752, Note_on_c, 1, 63, 89
3, 122880, Note_off_c, 1, 63, 64
3, 122880, Note_on_c, 1, 56, 89
3, 123008, Note_off_c, 1, 56, 64
3, 123008, Note_on_c, 1, 60, 89
3, 123136, Note_off_c, 1, 60, 64
3, 123136, Note_on_c, 1, 63, 89
3, 123264, Note_off_c, 1, 63, 64
3, 123264, Note_on_c, 1, 55, 89
3, 123392, Note_off_c, 1, 55, 64
3, 123392, Note_on_c, 1, 60, 89
3, 123520, Note_off_c, 1, 60, 64
3, 123520, Note_on_c, 1, 63, 89
3, 123648, Note_off_c, 1, 63, 64
3, 123648, Note_on_c, 1, 54, 89
3, 123776, Note_off_c, 1, 54, 64
3, 123776, Note_on_c, 1, 60, 89
3, 123904, Note_off_c, 1, 60, 64
3, 123904, Note_on_c, 1, 63, 89
3, 124032, Note_off_c, 1, 63, 64
3, 124032, Note_on_c, 1, 55, 89
3, 124160, Note_off_c, 1, 55, 64
3, 124160, Note_on_c, 1, 60, 89
3, 124288, Note_off_c, 1, 60, 64
3, 124288, Note_on_c, 1, 63, 89
3, 124416, Note_off_c, 1, 63, 64
3, 124416, Note_on_c, 1, 56, 89
3, 124544, Note_off_c, 1, 56, 64
3, 124544, Note_on_c, 1, 60, 89
3, 124672, Note_off_c, 1, 60, 64
3, 124672, Note_on_c, 1, 63, 89
3, 124800, Note_off_c, 1, 63, 64
3, 124800, Note_on_c, 1, 55, 89
3, 124928, Note_off_c, 1, 55, 64
3, 124928, Note_on_c, 1, 60, 89
3, 125056, Note_off_c, 1, 60, 64
3, 125056, Note_on_c, 1, 63, 89
3, 125184, Note_off_c, 1, 63, 64
3, 125184, Note_on_c, 1, 54, 89
3, 125312, Note_off_c, 1, 54, 64
3, 125312, Note_on_c, 1, 60, 89
3, 125440, Note_off_c, 1, 60, 64
3, 125440, Note_on_c, 1, 63, 89
3, 125568, Note_off_c, 1, 63, 64
3, 125568, Note_on_c, 1, 55, 89
3, 125696, Note_off_c, 1, 55, 64
3, 125696, Note_on_c, 1, 60, 89
3, 125824, Note_off_c, 1, 60, 64
3, 125824, Note_on_c, 1, 63, 89
3, 125952, Note_off_c, 1, 63, 64
3, 125952, Note_on_c, 1, 56, 89
3, 126144, Note_off_c, 1, 56, 64
3, 126144, Note_on_c, 1, 68, 89
3, 126336, Note_off_c, 1, 68, 64
3, 126336, Note_on_c, 1, 53, 89
3, 126528, Note_off_c, 1, 53, 64
3, 126528, Note_on_c, 1, 65, 89
3, 126720, Note_off_c, 1, 65, 64
3, 126720, Note_on_c, 1, 55, 89
3, 126912, Note_off_c, 1, 55, 64
3, 126912, Note_on_c, 1, 67, 89
3, 127104, Note_off_c, 1, 67, 64
3, 127104, Note_on_c, 1, 52, 89
3, 127296, Note_off_c, 1, 52, 64
3, 127296, Note_on_c, 1, 64, 89
3, 127488, Note_off_c, 1, 64, 64
3, 127488, Note_on_c, 1, 53, 89
3, 127680, Note_off_c, 1, 53, 64
3, 127680, Note_on_c, 1, 65, 89
3, 127872, Note_off_c, 1, 65, 64
3, 127872, Note_on_c, 1, 47, 89
3, 128064, Note_off_c, 1, 47, 64
3, 128064, Note_on_c, 1, 59, 89
3, 128256, Note_off_c, 1, 59, 64
3, 128256, Note_on_c, 1, 48, 89
3, 128448, Note_off_c, 1, 48, 64
3, 128448, Note_on_c, 1, 60, 89
3, 128640, Note_off_c, 1, 60, 64
3, 128640, Note_on_c, 1, 38, 89
3, 128832, Note_off_c, 1, 38, 64
3, 128832, Note_on_c, 1, 50, 89
3, 129024, Note_off_c, 1, 50, 64
3, 129024, Note_on_c, 1, 39, 89
3, 129216, Note_off_c, 1, 39, 64
3, 129216, Note_on_c, 1, 51, 89
3, 129408, Note_off_c, 1, 51, 64
3, 129408, Note_on_c, 1, 41, 89
3, 129600, Note_off_c, 1, 41, 64
3, 129600, Note_on_c, 1, 53, 89
3, 129792, Note_off_c, 1, 53, 64
3, 129792, Note_on_c, 1, 42, 89
3, 129984, Note_off_c, 1, 42, 64
3, 129984, Note_on_c, 1, 54, 89
3, 130176, Note_off_c, 1, 54, 64
3, 130176, Note_on_c, 1, 43, 89
3, 130368, Note_off_c, 1, 43, 64
3, 130368, Note_on_c, 1, 55, 89
3, 130560, Note_off_c, 1, 55, 64
3, 130560, Note_on_c, 1, 43, 89
3, 130752, Note_off_c, 1, 43, 64
3, 130752, Note_on_c, 1, 55, 89
3, 130944, Note_off_c, 1, 55, 64
3, 130944, Note_on_c, 1, 43, 89
3, 131136, Note_off_c, 1, 43, 64
3, 131136, Note_on_c, 1, 55, 89
3, 131328, Note_off_c, 1, 55, 64
3, 131328, Note_on_c, 1, 43, 89
3, 131520, Note_off_c, 1, 43, 64
3, 131520, Note_on_c, 1, 55, 89
3, 131712, Note_off_c, 1, 55, 64
3, 131712, Note_on_c, 1, 48, 88
3, 131904, Note_off_c, 1, 48, 64
3, 132096, Note_on_c, 1, 56, 86
3, 132288, Note_off_c, 1, 56, 64
3, 132288, Note_on_c, 1, 60, 84
3, 132480, Note_off_c, 1, 60, 64
3, 132480, Note_on_c, 1, 53, 83
3, 132672, Note_off_c, 1, 53, 64
3, 132672, Note_on_c, 1, 56, 82
3, 132864, Note_off_c, 1, 56, 64
3, 132864, Note_on_c, 1, 55, 81
3, 133056, Note_off_c, 1, 55, 64
3, 133056, Note_on_c, 1, 58, 80
3, 133248, Note_off_c, 1, 58, 64
3, 133248, Note_on_c, 1, 52, 79
3, 133440, Note_off_c, 1, 52, 64
3, 133440, Note_on_c, 1, 55, 78
3, 133632, Note_off_c, 1, 55, 64
3, 133632, Note_on_c, 1, 53, 77
3, 133824, Note_off_c, 1, 53, 64
3, 133824, Note_on_c, 1, 56, 76
3, 134016, Note_off_c, 1, 56, 64
3, 134016, Note_on_c, 1, 47, 75
3, 134208, Note_off_c, 1, 47, 64
3, 134208, Note_on_c, 1, 50, 73
3, 134400, Note_off_c, 1, 50, 64
3, 134400, Note_on_c, 1, 48, 72
3, 134592, Note_off_c, 1, 48, 64
3, 134592, Note_on_c, 1, 51, 71
3, 134784, Note_off_c, 1, 51, 64
3, 134784, Note_on_c, 1, 38, 70
3, 135168, Note_off_c, 1, 38, 64
3, 135168, Note_on_c, 1, 39, 68
3, 135552, Note_off_c, 1, 39, 64
3, 135552, Note_on_c, 1, 41, 66
3, 135936, Note_off_c, 1, 41, 64
3, 135936, Note_on_c, 1, 42, 64
3, 136320, Note_off_c, 1, 42, 64
3, 136320, Note_on_c, 1, 31, 61
3, 136512, Note_off_c, 1, 31, 64
3, 136512, Note_on_c, 1, 43, 59
3, 136704, Note_off_c, 1, 43, 64
3, 136704, Note_on_c, 1, 31, 58
3, 136896, Note_off_c, 1, 31, 64
3, 136896, Note_on_c, 1, 43, 57
3, 137088, Note_off_c, 1, 43, 64
3, 137088, Note_on_c, 1, 31, 55
3, 137280, Note_off_c, 1, 31, 64
3, 137280, Note_on_c, 1, 43, 54
3, 137472, Note_off_c, 1, 43, 64
3, 137472, Note_on_c, 1, 31, 53
3, 137664, Note_off_c, 1, 31, 64
3, 137664, Note_on_c, 1, 43, 52
3, 137856, Note_off_c, 1, 43, 64
3, 137856, Note_on_c, 1, 36, 50
3, 137984, Note_off_c, 1, 36, 64
3, 137984, Note_on_c, 1, 43, 50
3, 138112, Note_off_c, 1, 43, 64
3, 138112, Note_on_c, 1, 48, 49
3, 138240, Note_off_c, 1, 48, 64
3, 138240, Note_on_c, 1, 36, 48
3, 138368, Note_off_c, 1, 36, 64
3, 138368, Note_on_c, 1, 43, 47
3, 138496, Note_off_c, 1, 43, 64
3, 138496, Note_on_c, 1, 48, 50
3, 138624, Note_off_c, 1, 48, 64
3, 138624, Note_on_c, 1, 36, 51
3, 138752, Note_off_c, 1, 36, 64
3, 138752, Note_on_c, 1, 43, 51
3, 138880, Note_off_c, 1, 43, 64
3, 138880, Note_on_c, 1, 48, 47
3, 139008, Note_off_c, 1, 48, 64
3, 139008, Note_on_c, 1, 36, 50
3, 139136, Note_off_c, 1, 36, 64
3, 139136, Note_on_c, 1, 43, 48
3, 139264, Note_off_c, 1, 43, 64
3, 139264, Note_on_c, 1, 48, 47
3, 139392, Note_off_c, 1, 48, 64
3, 139392, Note_on_c, 1, 38, 47
3, 139520, Note_off_c, 1, 38, 64
3, 139520, Note_on_c, 1, 41, 50
3, 139648, Note_off_c, 1, 41, 64
3, 139648, Note_on_c, 1, 46, 51
3, 139776, Note_off_c, 1, 46, 64
3, 139776, Note_on_c, 1, 38, 48
3, 139904, Note_off_c, 1, 38, 64
3, 139904, Note_on_c, 1, 41, 50
3, 140032, Note_off_c, 1, 41, 64
3, 140032, Note_on_c, 1, 46, 52
3, 140160, Note_off_c, 1, 46, 64
3, 140160, Note_on_c, 1, 38, 50
3, 140288, Note_off_c, 1, 38, 64
3, 140288, Note_on_c, 1, 41, 51
3, 140416, Note_off_c, 1, 41, 64
3, 140416, Note_on_c, 1, 46, 52
3, 140544, Note_off_c, 1, 46, 64
3, 140544, Note_on_c, 1, 38, 50
3, 140672, Note_off_c, 1, 38, 64
3, 140672, Note_on_c, 1, 41, 49
3, 140800, Note_off_c, 1, 41, 64
3, 140800, Note_on_c, 1, 46, 50
3, 140928, Note_off_c, 1, 46, 64
3, 140928, Note_on_c, 1, 39, 47
3, 141056, Note_off_c, 1, 39, 64
3, 141056, Note_on_c, 1, 43, 51
3, 141184, Note_off_c, 1, 43, 64
3, 141184, Note_on_c, 1, 46, 49
3, 141312, Note_off_c, 1, 46, 64
3, 141312, Note_on_c, 1, 39, 52
3, 141440, Note_off_c, 1, 39, 64
3, 141440, Note_on_c, 1, 43, 51
3, 141568, Note_off_c, 1, 43, 64
3, 141568, Note_on_c, 1, 46, 51
3, 141696, Note_off_c, 1, 46, 64
3, 141696, Note_on_c, 1, 40, 49
3, 141824, Note_off_c, 1, 40, 64
3, 141824, Note_on_c, 1, 43, 49
3, 141952, Note_off_c, 1, 43, 64
3, 141952, Note_on_c, 1, 48, 51
3, 142080, Note_off_c, 1, 48, 64
3, 142080, Note_on_c, 1, 40, 47
3, 142208, Note_off_c, 1, 40, 64
3, 142208, Note_on_c, 1, 43, 48
3, 142336, Note_off_c, 1, 43, 64
3, 142336, Note_on_c, 1, 48, 51
3, 142464, Note_off_c, 1, 48, 64
3, 142464, Note_on_c, 1, 41, 48
3, 142592, Note_off_c, 1, 41, 64
3, 142592, Note_on_c, 1, 44, 51
3, 142720, Note_off_c, 1, 44, 64
3, 142720, Note_on_c, 1, 48, 52
3, 142848, Note_off_c, 1, 48, 64
3, 142848, Note_on_c, 1, 41, 48
3, 142976, Note_off_c, 1, 41, 64
3, 142976, Note_on_c, 1, 44, 52
3, 143104, Note_off_c, 1, 44, 64
3, 143104, Note_on_c, 1, 48, 49
3, 143232, Note_off_c, 1, 48, 64
3, 143232, Note_on_c, 1, 41, 47
3, 143360, Note_off_c, 1, 41, 64
3, 143360, Note_on_c, 1, 44, 50
3, 143488, Note_off_c, 1, 44, 64
3, 143488, Note_on_c, 1, 50, 51
3, 143616, Note_off_c, 1, 50, 64
3, 143616, Note_on_c, 1, 41, 51
3, 143744, Note_off_c, 1, 41, 64
3, 143744, Note_on_c, 1, 44, 48
3, 143872, Note_off_c, 1, 44, 64
3, 143872, Note_on_c, 1, 50, 52
3, 144000, Note_off_c, 1, 50, 64
3, 144000, Note_on_c, 1, 43, 49
3, 144128, Note_off_c, 1, 43, 64
3, 144128, Note_on_c, 1, 46, 52
3, 144256, Note_off_c, 1, 46, 64
3, 144256, Note_on_c, 1, 51, 52
3, 144384, Note_off_c, 1, 51, 64
3, 144384, Note_on_c, 1, 43, 50
3, 144512, Note_off_c, 1, 43, 64
3, 144512, Note_on_c, 1, 46, 52
3, 144640, Note_off_c, 1, 46, 64
3, 144640, Note_on_c, 1, 51, 49
3, 144768, Note_off_c, 1, 51, 64
3, 144768, Note_on_c, 1, 43, 49
3, 144896, Note_off_c, 1, 43, 64
3, 144896, Note_on_c, 1, 46, 47
3, 145024, Note_off_c, 1, 46, 64
3, 145024, Note_on_c, 1, 52, 52
3, 145152, Note_off_c, 1, 52, 64
3, 145152, Note_on_c, 1, 43, 47
3, 145280, Note_off_c, 1, 43, 64
3, 145280, Note_on_c, 1, 46, 51
3, 145408, Note_off_c, 1, 46, 64
3, 145408, Note_on_c, 1, 52, 49
3, 145536, Note_off_c, 1, 52, 64
3, 145536, Note_on_c, 1, 44, 51
3, 145664, Note_off_c, 1, 44, 64
3, 145664, Note_on_c, 1, 48, 50
3, 145792, Note_off_c, 1, 48, 64
3, 145792, Note_on_c, 1, 53, 50
3, 145920, Note_off_c, 1, 53, 64
3, 145920, Note_on_c, 1, 44, 52
3, 146048, Note_off_c, 1, 44, 64
3, 146048, Note_on_c, 1, 48, 50
3, 146176, Note_off_c, 1, 48, 64
3, 146176, Note_on_c, 1, 53, 51
3, 146304, Note_off_c, 1, 53, 64
3, 146304, Note_on_c, 1, 44, 52
3, 146432, Note_off_c, 1, 44, 64
3, 146432, Note_on_c, 1, 48, 52
3, 146560, Note_off_c, 1, 48, 64
3, 146560, Note_on_c, 1, 54, 51
3, 146688, Note_off_c, 1, 54, 64
3, 146688, Note_on_c, 1, 44, 50
3, 146816, Note_off_c, 1, 44, 64
3, 146816, Note_on_c, 1, 48, 50
3, 146944, Note_off_c, 1, 48, 64
3, 146944, Note_on_c, 1, 54, 50
3, 147072, Note_off_c, 1, 54, 64
3, 147072, Note_on_c, 1, 43, 51
3, 147200, Note_off_c, 1, 43, 64
3, 147200, Note_on_c, 1, 48, 50
3, 147328, Note_off_c, 1, 48, 64
3, 147328, Note_on_c, 1, 51, 47
3, 147456, Note_off_c, 1, 51, 64
3, 147456, Note_on_c, 1, 43, 49
3, 147584, Note_off_c, 1, 43, 64
3, 147584, Note_on_c, 1, 48, 51
3, 147712, Note_off_c, 1, 48, 64
3, 147712, Note_on_c, 1, 51, 48
3, 147840, Note_off_c, 1, 51, 64
3, 147840, Note_on_c, 1, 43, 52
3, 147968, Note_off_c, 1, 43, 64
3, 147968, Note_on_c, 1, 48, 47
3, 148096, Note_off_c, 1, 48, 64
3, 148096, Note_on_c, 1, 51, 48
3, 148224, Note_off_c, 1, 51, 64
3, 148224, Note_on_c, 1, 43, 48
3, 148352, Note_off_c, 1, 43, 64
3, 148352, Note_on_c, 1, 48, 52
3, 148480, Note_off_c, 1, 48, 64
3, 148480, Note_on_c, 1, 51, 49
3, 148608, Note_off_c, 1, 51, 64
3, 148608, Note_on_c, 1, 43, 52
3, 148736, Note_off_c, 1, 43, 64
3, 148736, Note_on_c, 1, 47, 49
3, 148864, Note_off_c, 1, 47, 64
3, 148864, Note_on_c, 1, 50, 50
3, 148992, Note_off_c, 1, 50, 64
3, 148992, Note_on_c, 1, 43, 51
3, 149120, Note_off_c, 1, 43, 64
3, 149120, Note_on_c, 1, 47, 49
3, 149248, Note_off_c, 1, 47, 64
3, 149248, Note_on_c, 1, 50, 47
3, 149376, Note_off_c, 1, 50, 64
3, 149376, Note_on_c, 1, 43, 49
3, 149504, Note_off_c, 1, 43, 64
3, 149504, Note_on_c, 1, 47, 51
3, 149632, Note_off_c, 1, 47, 64
3, 149632, Note_on_c, 1, 50, 52
3, 149760, Note_off_c, 1, 50, 64
3, 149760, Note_on_c, 1, 43, 51
3, 149888, Note_off_c, 1, 43, 64
3, 149888, Note_on_c, 1, 47, 48
3, 150016, Note_off_c, 1, 47, 64
3, 150016, Note_on_c, 1, 50, 48
3, 150144, Note_off_c, 1, 50, 64
3, 150144, Note_on_c, 1, 36, 51
3, 150272, Note_off_c, 1, 36, 64
3, 150272, Note_on_c, 1, 43, 49
3, 150400, Note_off_c, 1, 43, 64
3, 150400, Note_on_c, 1, 48, 49
3, 150528, Note_off_c, 1, 48, 64
3, 150528, Note_on_c, 1, 36, 51
3, 150656, Note_off_c, 1, 36, 64
3, 150656, Note_on_c, 1, 43, 48
3, 150784, Note_off_c, 1, 43, 64
3, 150784, Note_on_c, 1, 48, 47
3, 150912, Note_off_c, 1, 48, 64
3, 150912, Note_on_c, 1, 36, 48
3, 151040, Note_off_c, 1, 36, 64
3, 151040, Note_on_c, 1, 43, 51
3, 151168, Note_off_c, 1, 43, 64
3, 151168, Note_on_c, 1, 48, 50
3, 151296, Note_off_c, 1, 48, 64
3, 151296, Note_on_c, 1, 36, 51
3, 151424, Note_off_c, 1, 36, 64
3, 151424, Note_on_c, 1, 43, 50
3, 151552, Note_off_c, 1, 43, 64
3, 151552, Note_on_c, 1, 48, 50
3, 151680, Note_off_c, 1, 48, 64
3, 151680, Note_on_c, 1, 38, 51
3, 151808, Note_off_c, 1, 38, 64
3, 151808, Note_on_c, 1, 41, 49
3, 151936, Note_off_c, 1, 41, 64
3, 151936, Note_on_c, 1, 46, 50
3, 152064, Note_off_c, 1, 46, 64
3, 152064, Note_on_c, 1, 38, 52
3, 152192, Note_off_c, 1, 38, 64
3, 152192, Note_on_c, 1, 41, 48
3, 152320, Note_off_c, 1, 41, 64
3, 152320, Note_on_c, 1, 46, 51
3, 152448, Note_off_c, 1, 46, 64
3, 152448, Note_on_c, 1, 38, 49
3, 152576, Note_off_c, 1, 38, 64
3, 152576, Note_on_c, 1, 41, 49
3, 152704, Note_off_c, 1, 41, 64
3, 152704, Note_on_c, 1, 46, 52
3, 152832, Note_off_c, 1, 46, 64
3, 152832, Note_on_c, 1, 38, 47
3, 152960, Note_off_c, 1, 38, 64
3, 152960, Note_on_c, 1, 41, 50
3, 153088, Note_off_c, 1, 41, 64
3, 153088, Note_on_c, 1, 46, 50
3, 153216, Note_off_c, 1, 46, 64
3, 153216, Note_on_c, 1, 39, 48
3, 153344, Note_off_c, 1, 39, 64
3, 153344, Note_on_c, 1, 43, 47
3, 153472, Note_off_c, 1, 43, 64
3, 153472, Note_on_c, 1, 46, 51
3, 153600, Note_off_c, 1, 46, 64
3, 153600, Note_on_c, 1, 39, 48
3, 153728, Note_off_c, 1, 39, 64
3, 153728, Note_on_c, 1, 43, 49
3, 153856, Note_off_c, 1, 43, 64
3, 153856, Note_on_c, 1, 46, 48
3, 153984, Note_off_c, 1, 46, 64
3, 153984, Note_on_c, 1, 40, 52
3, 154112, Note_off_c, 1, 40, 64
3, 154112, Note_on_c, 1, 43, 52
3, 154240, Note_off_c, 1, 43, 64
3, 154240, Note_on_c, 1, 48, 47
3, 154368, Note_off_c, 1, 48, 64
3, 154368, Note_on_c, 1, 40, 48
3, 154496, Note_off_c, 1, 40, 64
3, 154496, Note_on_c, 1, 43, 50
3, 154624, Note_off_c, 1, 43, 64
3, 154624, Note_on_c, 1, 48, 48
3, 154752, Note_off_c, 1, 48, 64
3, 154752, Note_on_c, 1, 41, 50
3, 154880, Note_off_c, 1, 41, 64
3, 154880, Note_on_c, 1, 44, 48
3, 155008, Note_off_c, 1, 44, 64
3, 155008, Note_on_c, 1, 48, 49
3, 155136, Note_off_c, 1, 48, 64
3, 155136, Note_on_c, 1, 41, 47
3, 155264, Note_off_c, 1, 41, 64
3, 155264, Note_on_c, 1, 44, 50
3, 155392, Note_off_c, 1, 44, 64
3, 155392, Note_on_c, 1, 48, 47
3, 155520, Note_off_c, 1, 48, 64
3, 155520, Note_on_c, 1, 41, 52
3, 155648, Note_off_c, 1, 41, 64
3, 155648, Note_on_c, 1, 44, 51
3, 155776, Note_off_c, 1, 44, 64
3, 155776, Note_on_c, 1, 50, 48
3, 155904, Note_off_c, 1, 50, 64
3, 155904, Note_on_c, 1, 41, 52
3, 156032, Note_off_c, 1, 41, 64
3, 156032, Note_on_c, 1, 44, 50
3, 156160, Note_off_c, 1, 44, 64
3, 156160, Note_on_c, 1, 50, 48
3, 156288, Note_off_c, 1, 50, 64
3, 156288, Note_on_c, 1, 43, 48
3, 156416, Note_off_c, 1, 43, 64
3, 156416, Note_on_c, 1, 46, 52
3, 156544, Note_off_c, 1, 46, 64
3, 156544, Note_on_c, 1, 51, 47
3, 156672, Note_off_c, 1, 51, 64
3, 156672, Note_on_c, 1, 43, 48
3, 156800, Note_off_c, 1, 43, 64
3, 156800, Note_on_c, 1, 46, 50
3, 156928, Note_off_c, 1, 46, 64
3, 156928, Note_on_c, 1, 51, 51
3, 157056, Note_off_c, 1, 51, 64
3, 157056, Note_on_c, 1, 43, 51
3, 157184, Note_off_c, 1, 43, 64
3, 157184, Note_on_c, 1, 46, 48
3, 157312, Note_off_c, 1, 46, 64
3, 157312, Note_on_c, 1, 52, 51
3, 157440, Note_off_c, 1, 52, 64
3, 157440, Note_on_c, 1, 43, 51
3, 157568, Note_off_c, 1, 43, 64
3, 157568, Note_on_c, 1, 46, 52
3, 157696, Note_off_c, 1, 46, 64
3, 157696, Note_on_c, 1, 52, 48
3, 157824, Note_off_c, 1, 52, 64
3, 157824, Note_on_c, 1, 44, 52
3, 157952, Note_off_c, 1, 44, 64
3, 157952, Note_on_c, 1, 48, 47
3, 158080, Note_off_c, 1, 48, 64
3, 158080, Note_on_c, 1, 53, 49
3, 158208, Note_off_c, 1, 53, 64
3, 158208, Note_on_c, 1, 44, 51
3, 158336, Note_off_c, 1, 44, 64
3, 158336, Note_on_c, 1, 48, 47
3, 158464, Note_off_c, 1, 48, 64
3, 158464, Note_on_c, 1, 53, 49
3, 158592, Note_off_c, 1, 53, 64
3, 158592, Note_on_c, 1, 44, 47
3, 158720, Note_off_c, 1, 44, 64
3, 158720, Note_on_c, 1, 48, 51
3, 158848, Note_off_c, 1, 48, 64
3, 158848, Note_on_c, 1, 54, 49
3, 158976, Note_off_c, 1, 54, 64
3, 158976, Note_on_c, 1, 44, 50
3, 159104, Note_off_c, 1, 44, 64
3, 159104, Note_on_c, 1, 48, 48
3, 159232, Note_off_c, 1, 48, 64
3, 159232, Note_on_c, 1, 54, 51
3, 159360, Note_off_c, 1, 54, 64
3, 159360, Note_on_c, 1, 43, 52
3, 159488, Note_off_c, 1, 43, 64
3, 159488, Note_on_c, 1, 48, 52
3, 159616, Note_off_c, 1, 48, 64
3, 159616, Note_on_c, 1, 51, 52
3, 159744, Note_off_c, 1, 51, 64
3, 159744, Note_on_c, 1, 43, 52
3, 159872, Note_off_c, 1, 43, 64
3, 159872, Note_on_c, 1, 48, 52
3, 160000, Note_off_c, 1, 48, 64
3, 160000, Note_on_c, 1, 51, 53
3, 160128, Note_off_c, 1, 51, 64
3, 160128, Note_on_c, 1, 43, 53
3, 160256, Note_off_c, 1, 43, 64
3, 160256, Note_on_c, 1, 48, 53
3, 160384, Note_off_c, 1, 48, 64
3, 160384, Note_on_c, 1, 51, 53
3, 160512, Note_off_c, 1, 51, 64
3, 160512, Note_on_c, 1, 43, 53
3, 160640, Note_off_c, 1, 43, 64
3, 160640, Note_on_c, 1, 48, 53
3, 160768, Note_off_c, 1, 48, 64
3, 160768, Note_on_c, 1, 51, 54
3, 160896, Note_off_c, 1, 51, 64
3, 160896, Note_on_c, 1, 43, 57
3, 161024, Note_off_c, 1, 43, 64
3, 161024, Note_on_c, 1, 47, 58
3, 161152, Note_off_c, 1, 47, 64
3, 161152, Note_on_c, 1, 50, 59
3, 161280, Note_off_c, 1, 50, 64
3, 161280, Note_on_c, 1, 43, 61
3, 161408, Note_off_c, 1, 43, 64
3, 161408, Note_on_c, 1, 47, 62
3, 161536, Note_off_c, 1, 47, 64
3, 161536, Note_on_c, 1, 50, 63
3, 161664, Note_off_c, 1, 50, 64
3, 161664, Note_on_c, 1, 43, 64
3, 161792, Note_off_c, 1, 43, 64
3, 161792, Note_on_c, 1, 47, 66
3, 161920, Note_off_c, 1, 47, 64
3, 161920, Note_on_c, 1, 50, 67
3, 162048, Note_off_c, 1, 50, 64
3, 162048, Note_on_c, 1, 43, 68
3, 162176, Note_off_c, 1, 43, 64
3, 162176, Note_on_c, 1, 47, 70
3, 162304, Note_off_c, 1, 47, 64
3, 162304, Note_on_c, 1, 50, 71
3, 162432, Note_off_c, 1, 50, 64
3, 162432, Note_on_c, 1, 48, 79
3, 162560, Note_off_c, 1, 48, 64
3, 162560, Note_on_c, 1, 51, 79
3, 162688, Note_off_c, 1, 51, 64
3, 162688, Note_on_c, 1, 55, 79
3, 162816, Note_off_c, 1, 55, 64
3, 162816, Note_on_c, 1, 60, 79
3, 162944, Note_off_c, 1, 60, 64
3, 162944, Note_on_c, 1, 63, 79
3, 163072, Note_off_c, 1, 63, 64
3, 163072, Note_on_c, 1, 67, 79
3, 163200, Note_off_c, 1, 67, 64
3, 163200, Note_on_c, 1, 60, 79
3, 163328, Note_off_c, 1, 60, 64
3, 163328, Note_on_c, 1, 63, 79
3, 163456, Note_off_c, 1, 63, 64
3, 163456, Note_on_c, 1, 67, 79
3, 163584, Note_off_c, 1, 67, 64
3, 163584, Note_on_c, 1, 60, 79
3, 163712, Note_off_c, 1, 60, 64
3, 163712, Note_on_c, 1, 65, 79
3, 163840, Note_off_c, 1, 65, 64
3, 163840, Note_on_c, 1, 68, 79
3, 163968, Note_off_c, 1, 68, 64
3, 163968, Note_on_c, 1, 60, 79
3, 164096, Note_off_c, 1, 60, 64
3, 164096, Note_on_c, 1, 67, 79
3, 164224, Note_off_c, 1, 67, 64
3, 164224, Note_on_c, 1, 63, 79
3, 164352, Note_off_c, 1, 63, 64
3, 164352, Note_on_c, 1, 60, 80
3, 164480, Note_off_c, 1, 60, 64
3, 164480, Note_on_c, 1, 55, 80
3, 164608, Note_off_c, 1, 55, 64
3, 164608, Note_on_c, 1, 51, 80
3, 164736, Note_off_c, 1, 51, 64
3, 164736, Note_on_c, 1, 48, 80
3, 164864, Note_off_c, 1, 48, 64
3, 164864, Note_on_c, 1, 51, 80
3, 164992, Note_off_c, 1, 51, 64
3, 164992, Note_on_c, 1, 55, 80
3, 165120, Note_off_c, 1, 55, 64
3, 165120, Note_on_c, 1, 43, 80
3, 165248, Note_off_c, 1, 43, 64
3, 165248, Note_on_c, 1, 50, 80
3, 165376, Note_off_c, 1, 50, 64
3, 165376, Note_on_c, 1, 55, 80
3, 165504, Note_off_c, 1, 55, 64
3, 165504, Note_on_c, 1, 48, 80
3, 165632, Note_off_c, 1, 48, 64
3, 165632, Note_on_c, 1, 51, 80
3, 165760, Note_off_c, 1, 51, 64
3, 165760, Note_on_c, 1, 55, 80
3, 165888, Note_off_c, 1, 55, 64
3, 165888, Note_on_c, 1, 60, 80
3, 166016, Note_off_c, 1, 60, 64
3, 166016, Note_on_c, 1, 63, 80
3, 166144, Note_off_c, 1, 63, 64
3, 166144, Note_on_c, 1, 67, 80
3, 166272, Note_off_c, 1, 67, 64
3, 166272, Note_on_c, 1, 60, 80
3, 166400, Note_off_c, 1, 60, 64
3, 166400, Note_on_c, 1, 63, 80
3, 166528, Note_off_c, 1, 63, 64
3, 166528, Note_on_c, 1, 67, 80
3, 166656, Note_off_c, 1, 67, 64
3, 166656, Note_on_c, 1, 60, 80
3, 166784, Note_off_c, 1, 60, 64
3, 166784, Note_on_c, 1, 65, 80
3, 166912, Note_off_c, 1, 65, 64
3, 166912, Note_on_c, 1, 68, 81
3, 167040, Note_off_c, 1, 68, 64
3, 167040, Note_on_c, 1, 60, 81
3, 167168, Note_off_c, 1, 60, 64
3, 167168, Note_on_c, 1, 67, 82
3, 167296, Note_off_c, 1, 67, 64
3, 167296, Note_on_c, 1, 63, 82
3, 167424, Note_off_c, 1, 63, 64
3, 167424, Note_on_c, 1, 60, 82
3, 167552, Note_off_c, 1, 60, 64
3, 167552, Note_on_c, 1, 55, 81
3, 167680, Note_off_c, 1, 55, 64
3, 167680, Note_on_c, 1, 51, 81
3, 167808, Note_off_c, 1, 51, 64
3, 167808, Note_on_c, 1, 48, 81
3, 167936, Note_off_c, 1, 48, 64
3, 167936, Note_on_c, 1, 51, 81
3, 168064, Note_off_c, 1, 51, 64
3, 168064, Note_on_c, 1, 55, 80
3, 168192, Note_off_c, 1, 55, 64
3, 168192, Note_on_c, 1, 43, 80
3, 168320, Note_off_c, 1, 43, 64
3, 168320, Note_on_c, 1, 50, 80
3, 168448, Note_off_c, 1, 50, 64
3, 168448, Note_on_c, 1, 55, 80
3, 168576, Note_off_c, 1, 55, 64
3, 168576, Note_on_c, 1, 48, 79
3, 168704, Note_off_c, 1, 48, 64
3, 168704, Note_on_c, 1, 51, 79
3, 168832, Note_off_c, 1, 51, 64
3, 168832, Note_on_c, 1, 55, 79
3, 168960, Note_off_c, 1, 55, 64
3, 168960, Note_on_c, 1, 60, 78
3, 169088, Note_off_c, 1, 60, 64
3, 169088, Note_on_c, 1, 55, 78
3, 169216, Note_off_c, 1, 55, 64
3, 169216, Note_on_c, 1, 51, 78
3, 169344, Note_off_c, 1, 51, 64
3, 169344, Note_on_c, 1, 48, 78
3, 169472, Note_off_c, 1, 48, 64
3, 169472, Note_on_c, 1, 51, 77
3, 169600, Note_off_c, 1, 51, 64
3, 169600, Note_on_c, 1, 55, 77
3, 169728, Note_off_c, 1, 55, 64
3, 169728, Note_on_c, 1, 43, 77
3, 169856, Note_off_c, 1, 43, 64
3, 169856, Note_on_c, 1, 50, 76
3, 169984, Note_off_c, 1, 50, 64
3, 169984, Note_on_c, 1, 55, 76
3, 170112, Note_off_c, 1, 55, 64
3, 170112, Note_on_c, 1, 48, 76
3, 170240, Note_off_c, 1, 48, 64
3, 170240, Note_on_c, 1, 51, 76
3, 170368, Note_off_c, 1, 51, 64
3, 170368, Note_on_c, 1, 55, 75
3, 170496, Note_off_c, 1, 55, 64
3, 170496, Note_on_c, 1, 60, 75
3, 170624, Note_off_c, 1, 60, 64
3, 170624, Note_on_c, 1, 55, 75
3, 170752, Note_off_c, 1, 55, 64
3, 170752, Note_on_c, 1, 51, 75
3, 170880, Note_off_c, 1, 51, 64
3, 170880, Note_on_c, 1, 48, 74
3, 171008, Note_off_c, 1, 48, 64
3, 171008, Note_on_c, 1, 51, 74
3, 171136, Note_off_c, 1, 51, 64
3, 171136, Note_on_c, 1, 55, 74
3, 171264, Note_off_c, 1, 55, 64
3, 171264, Note_on_c, 1, 60, 73
3, 171392, Note_off_c, 1, 60, 64
3, 171392, Note_on_c, 1, 55, 73
3, 171520, Note_off_c, 1, 55, 64
3, 171520, Note_on_c, 1, 51, 73
3, 171648, Note_off_c, 1, 51, 64
3, 171648, Note_on_c, 1, 48, 61
3, 172032, Note_off_c, 1, 48, 64
3, 173184, Note_on_c, 1, 46, 70
3, 173184, Note_on_c, 1, 49, 70
3, 173184, Note_on_c, 1, 51, 70
3, 173184, Note_on_c, 1, 55, 70
3, 173568, Note_off_c, 1, 55, 64
3, 173568, Note_off_c, 1, 51, 64
3, 173568, Note_off_c, 1, 49, 64
3, 173568, Note_off_c, 1, 46, 64
3, 173952, Note_on_c, 1, 46, 70
3, 173952, Note_on_c, 1, 49, 70
3, 173952, Note_on_c, 1, 51, 70
3, 173952, Note_on_c, 1, 55, 70
3, 174336, Note_off_c, 1, 55, 64
3, 174336, Note_off_c, 1, 51, 64
3, 174336, Note_off_c, 1, 49, 64
3, 174336, Note_off_c, 1, 46, 64
3, 174720, Note_on_c, 1, 46, 70
3, 174720, Note_on_c, 1, 49, 70
3, 174720, Note_on_c, 1, 51, 70
3, 174720, Note_on_c, 1, 55, 70
3, 175104, Note_off_c, 1, 55, 64
3, 175104, Note_off_c, 1, 51, 64
3, 175104, Note_off_c, 1, 49, 64
3, 175104, Note_off_c, 1, 46, 64
3, 176640, Note_on_c, 1, 56, 18
3, 176640, Note_on_c, 1, 60, 18
3, 177024, Note_off_c, 1, 60, 64
3, 177024, Note_off_c, 1, 56, 64
3, 177024, Note_on_c, 1, 56, 18
3, 177024, Note_on_c, 1, 60, 18
3, 177408, Note_off_c, 1, 60, 64
3, 177408, Note_off_c, 1, 56, 64
3, 177408, Note_on_c, 1, 56, 18
3, 177408, Note_on_c, 1, 60, 18
3, 177792, Note_off_c, 1, 60, 64
3, 177792, Note_off_c, 1, 56, 64
3, 178176, Note_on_c, 1, 56, 18
3, 178176, Note_on_c, 1, 60, 18
3, 178176, Note_on_c, 1, 63, 18
3, 178560, Note_off_c, 1, 63, 64
3, 178560, Note_off_c, 1, 60, 64
3, 178560, Note_off_c, 1, 56, 64
3, 178560, Note_on_c, 1, 56, 18
3, 178560, Note_on_c, 1, 60, 18
3, 178560, Note_on_c, 1, 63, 18
3, 178944, Note_off_c, 1, 63, 64
3, 178944, Note_off_c, 1, 60, 64
3, 178944, Note_off_c, 1, 56, 64
3, 178944, Note_on_c, 1, 56, 18
3, 178944, Note_on_c, 1, 60, 18
3, 178944, Note_on_c, 1, 63, 18
3, 179328, Note_off_c, 1, 63, 64
3, 179328, Note_off_c, 1, 60, 64
3, 179328, Note_off_c, 1, 56, 64
3, 179712, Note_on_c, 1, 55, 18
3, 179712, Note_on_c, 1, 58, 18
3, 179712, Note_on_c, 1, 63, 18
3, 180096, Note_off_c, 1, 63, 64
3, 180096, Note_off_c, 1, 58, 64
3, 180096, Note_off_c, 1, 55, 64
3, 180096, Note_on_c, 1, 55, 18
3, 180096, Note_on_c, 1, 58, 18
3, 180096, Note_on_c, 1, 63, 18
3, 180480, Note_off_c, 1, 63, 64
3, 180480, Note_off_c, 1, 58, 64
3, 180480, Note_off_c, 1, 55, 64
3, 180480, Note_on_c, 1, 55, 18
3, 180480, Note_on_c, 1, 58, 18
3, 180480, Note_on_c, 1, 63, 18
3, 180864, Note_off_c, 1, 63, 64
3, 180864, Note_off_c, 1, 58, 64
3, 180864, Note_off_c, 1, 55, 64
3, 181248, Note_on_c, 1, 55, 18
3, 181248, Note_on_c, 1, 58, 18
3, 181248, Note_on_c, 1, 63, 18
3, 181632, Note_off_c, 1, 63, 64
3, 181632, Note_off_c, 1, 58, 64
3, 181632, Note_off_c, 1, 55, 64
3, 181632, Note_on_c, 1, 55, 18
3, 181632, Note_on_c, 1, 58, 18
3, 181632, Note_on_c, 1, 63, 18
3, 182016, Note_off_c, 1, 63, 64
3, 182016, Note_off_c, 1, 58, 64
3, 182016, Note_off_c, 1, 55, 64
3, 182016, Note_on_c, 1, 55, 18
3, 182016, Note_on_c, 1, 58, 18
3, 182016, Note_on_c, 1, 63, 18
3, 182400, Note_off_c, 1, 63, 64
3, 182400, Note_off_c, 1, 58, 64
3, 182400, Note_off_c, 1, 55, 64
3, 182784, Note_on_c, 1, 53, 18
3, 182784, Note_on_c, 1, 56, 18
3, 182784, Note_on_c, 1, 61, 18
3, 183168, Note_off_c, 1, 61, 64
3, 183168, Note_off_c, 1, 56, 64
3, 183168, Note_off_c, 1, 53, 64
3, 183168, Note_on_c, 1, 53, 18
3, 183168, Note_on_c, 1, 56, 18
3, 183168, Note_on_c, 1, 61, 18
3, 183552, Note_off_c, 1, 61, 64
3, 183552, Note_off_c, 1, 56, 64
3, 183552, Note_off_c, 1, 53, 64
3, 183552, Note_on_c, 1, 53, 18
3, 183552, Note_on_c, 1, 56, 18
3, 183552, Note_on_c, 1, 61, 18
3, 183936, Note_off_c, 1, 61, 64
3, 183936, Note_off_c, 1, 56, 64
3, 183936, Note_off_c, 1, 53, 64
3, 184320, Note_on_c, 1, 51, 18
3, 184320, Note_on_c, 1, 56, 18
3, 184320, Note_on_c, 1, 60, 18
3, 184704, Note_off_c, 1, 60, 64
3, 184704, Note_off_c, 1, 56, 64
3, 184704, Note_off_c, 1, 51, 64
3, 184704, Note_on_c, 1, 51, 18
3, 184704, Note_on_c, 1, 56, 18
3, 184704, Note_on_c, 1, 60, 18
3, 185088, Note_off_c, 1, 60, 64
3, 185088, Note_off_c, 1, 56, 64
3, 185088, Note_off_c, 1, 51, 64
3, 185088, Note_on_c, 1, 51, 18
3, 185088, Note_on_c, 1, 56, 18
3, 185088, Note_on_c, 1, 60, 18
3, 185472, Note_off_c, 1, 60, 64
3, 185472, Note_off_c, 1, 56, 64
3, 185472, Note_off_c, 1, 51, 64
3, 185856, Note_on_c, 1, 49, 18
3, 185856, Note_on_c, 1, 53, 18
3, 185856, Note_on_c, 1, 58, 18
3, 186240, Note_off_c, 1, 58, 64
3, 186240, Note_off_c, 1, 53, 64
3, 186240, Note_off_c, 1, 49, 64
3, 186240, Note_on_c, 1, 49, 18
3, 186240, Note_on_c, 1, 53, 18
3, 186240, Note_on_c, 1, 58, 18
3, 186624, Note_off_c, 1, 58, 64
3, 186624, Note_off_c, 1, 53, 64
3, 186624, Note_off_c, 1, 49, 64
3, 186624, Note_on_c, 1, 49, 18
3, 186624, Note_on_c, 1, 53, 18
3, 186624, Note_on_c, 1, 58, 18
3, 187008, Note_off_c, 1, 58, 64
3, 187008, Note_off_c, 1, 53, 64
3, 187008, Note_off_c, 1, 49, 64
3, 187392, Note_on_c, 1, 51, 18
3, 187392, Note_on_c, 1, 60, 18
3, 187776, Note_off_c, 1, 60, 64
3, 187776, Note_off_c, 1, 51, 64
3, 187776, Note_on_c, 1, 51, 18
3, 187776, Note_on_c, 1, 61, 18
3, 188160, Note_off_c, 1, 61, 64
3, 188160, Note_off_c, 1, 51, 64
3, 188160, Note_on_c, 1, 51, 18
3, 188160, Note_on_c, 1, 61, 18
3, 188544, Note_off_c, 1, 61, 64
3, 188544, Note_off_c, 1, 51, 64
3, 188928, Note_on_c, 1, 56, 18
3, 188928, Note_on_c, 1, 61, 18
3, 189312, Note_off_c, 1, 61, 64
3, 189312, Note_off_c, 1, 56, 64
3, 189312, Note_on_c, 1, 56, 18
3, 189312, Note_on_c, 1, 61, 18
3, 189696, Note_off_c, 1, 61, 64
3, 189696, Note_off_c, 1, 56, 64
3, 189696, Note_on_c, 1, 56, 18
3, 189696, Note_on_c, 1, 61, 18
3, 190080, Note_off_c, 1, 61, 64
3, 190080, Note_off_c, 1, 56, 64
3, 190464, Note_on_c, 1, 56, 18
3, 190848, Note_off_c, 1, 56, 64
3, 190848, Note_on_c, 1, 60, 18
3, 191232, Note_off_c, 1, 60, 64
3, 191232, Note_on_c, 1, 63, 18
3, 191616, Note_off_c, 1, 63, 64
3, 192000, Note_on_c, 1, 68, 18
3, 192000, Note_on_c, 1, 72, 18
3, 192384, Note_off_c, 1, 72, 64
3, 192384, Note_off_c, 1, 68, 64
3, 192384, Note_on_c, 1, 68, 18
3, 192384, Note_on_c, 1, 72, 18
3, 192768, Note_off_c, 1, 72, 64
3, 192768, Note_off_c, 1, 68, 64
3, 192768, Note_on_c, 1, 68, 18
3, 192768, Note_on_c, 1, 72, 18
3, 193152, Note_off_c, 1, 72, 64
3, 193152, Note_off_c, 1, 68, 64
3, 193536, Note_on_c, 1, 68, 18
3, 193536, Note_on_c, 1, 72, 18
3, 193536, Note_on_c, 1, 75, 18
3, 193920, Note_off_c, 1, 75, 64
3, 193920, Note_off_c, 1, 72, 64
3, 193920, Note_off_c, 1, 68, 64
3, 193920, Note_on_c, 1, 68, 18
3, 193920, Note_on_c, 1, 72, 18
3, 193920, Note_on_c, 1, 75, 18
3, 194304, Note_off_c, 1, 75, 64
3, 194304, Note_off_c, 1, 72, 64
3, 194304, Note_off_c, 1, 68, 64
3, 194304, Note_on_c, 1, 68, 18
3, 194304, Note_on_c, 1, 72, 18
3, 194304, Note_on_c, 1, 75, 18
3, 194688, Note_off_c, 1, 75, 64
3, 194688, Note_off_c, 1, 72, 64
3, 194688, Note_off_c, 1, 68, 64
3, 195072, Note_on_c, 1, 67, 18
3, 195072, Note_on_c, 1, 70, 18
3, 195072, Note_on_c, 1, 75, 18
3, 195456, Note_off_c, 1, 75, 64
3, 195456, Note_off_c, 1, 70, 64
3, 195456, Note_off_c, 1, 67, 64
3, 195456, Note_on_c, 1, 67, 18
3, 195456, Note_on_c, 1, 70, 18
3, 195456, Note_on_c, 1, 75, 18
3, 195840, Note_off_c, 1, 75, 64
3, 195840, Note_off_c, 1, 70, 64
3, 195840, Note_off_c, 1, 67, 64
3, 195840, Note_on_c, 1, 67, 18
3, 195840, Note_on_c, 1, 70, 18
3, 195840, Note_on_c, 1, 75, 18
3, 196224, Note_off_c, 1, 75, 64
3, 196224, Note_off_c, 1, 70, 64
3, 196224, Note_off_c, 1, 67, 64
3, 196608, Note_on_c, 1, 67, 18
3, 196608, Note_on_c, 1, 70, 18
3, 196608, Note_on_c, 1, 75, 18
3, 196992, Note_off_c, 1, 75, 64
3, 196992, Note_off_c, 1, 70, 64
3, 196992, Note_off_c, 1, 67, 64
3, 196992, Note_on_c, 1, 67, 18
3, 196992, Note_on_c, 1, 70, 18
3, 196992, Note_on_c, 1, 75, 18
3, 197376, Note_off_c, 1, 75, 64
3, 197376, Note_off_c, 1, 70, 64
3, 197376, Note_off_c, 1, 67, 64
3, 197376, Note_on_c, 1, 67, 18
3, 197376, Note_on_c, 1, 70, 18
3, 197376, Note_on_c, 1, 75, 18
3, 197760, Note_off_c, 1, 75, 64
3, 197760, Note_off_c, 1, 70, 64
3, 197760, Note_off_c, 1, 67, 64
3, 198144, Note_on_c, 1, 65, 18
3, 198144, Note_on_c, 1, 68, 18
3, 198144, Note_on_c, 1, 73, 18
3, 198528, Note_off_c, 1, 73, 64
3, 198528, Note_off_c, 1, 68, 64
3, 198528, Note_off_c, 1, 65, 64
3, 198528, Note_on_c, 1, 65, 18
3, 198528, Note_on_c, 1, 68, 18
3, 198528, Note_on_c, 1, 73, 18
3, 198912, Note_off_c, 1, 73, 64
3, 198912, Note_off_c, 1, 68, 64
3, 198912, Note_off_c, 1, 65, 64
3, 198912, Note_on_c, 1, 65, 18
3, 198912, Note_on_c, 1, 68, 18
3, 198912, Note_on_c, 1, 73, 18
3, 199296, Note_off_c, 1, 73, 64
3, 199296, Note_off_c, 1, 68, 64
3, 199296, Note_off_c, 1, 65, 64
3, 199680, Note_on_c, 1, 63, 18
3, 199680, Note_on_c, 1, 69, 18
3, 199680, Note_on_c, 1, 72, 18
3, 200064, Note_off_c, 1, 72, 64
3, 200064, Note_off_c, 1, 69, 64
3, 200064, Note_off_c, 1, 63, 64
3, 200064, Note_on_c, 1, 63, 18
3, 200064, Note_on_c, 1, 69, 18
3, 200064, Note_on_c, 1, 72, 18
3, 200448, Note_off_c, 1, 72, 64
3, 200448, Note_off_c, 1, 69, 64
3, 200448, Note_off_c, 1, 63, 64
3, 200448, Note_on_c, 1, 63, 18
3, 200448, Note_on_c, 1, 69, 18
3, 200448, Note_on_c, 1, 72, 18
3, 200832, Note_off_c, 1, 72, 64
3, 200832, Note_off_c, 1, 69, 64
3, 200832, Note_off_c, 1, 63, 64
3, 201216, Note_on_c, 1, 61, 18
3, 201216, Note_on_c, 1, 65, 18
3, 201216, Note_on_c, 1, 70, 18
3, 201600, Note_off_c, 1, 70, 64
3, 201600, Note_off_c, 1, 65, 64
3, 201600, Note_off_c, 1, 61, 64
3, 201600, Note_on_c, 1, 61, 18
3, 201600, Note_on_c, 1, 65, 18
3, 201600, Note_on_c, 1, 70, 18
3, 201984, Note_off_c, 1, 70, 64
3, 201984, Note_off_c, 1, 65, 64
3, 201984, Note_off_c, 1, 61, 64
3, 201984, Note_on_c, 1, 61, 18
3, 201984, Note_on_c, 1, 65, 18
3, 201984, Note_on_c, 1, 70, 18
3, 202368, Note_off_c, 1, 70, 64
3, 202368, Note_off_c, 1, 65, 64
3, 202368, Note_off_c, 1, 61, 64
3, 202752, Note_on_c, 1, 63, 18
3, 202752, Note_on_c, 1, 72, 18
3, 203136, Note_off_c, 1, 72, 64
3, 203136, Note_off_c, 1, 63, 64
3, 203136, Note_on_c, 1, 63, 18
3, 203136, Note_on_c, 1, 73, 18
3, 203520, Note_off_c, 1, 73, 64
3, 203520, Note_off_c, 1, 63, 64
3, 203520, Note_on_c, 1, 63, 18
3, 203520, Note_on_c, 1, 73, 18
3, 203904, Note_off_c, 1, 73, 64
3, 203904, Note_off_c, 1, 63, 64
3, 204288, Note_on_c, 1, 67, 18
3, 204672, Note_off_c, 1, 67, 64
3, 204672, Note_on_c, 1, 68, 18
3, 205056, Note_off_c, 1, 68, 64
3, 205056, Note_on_c, 1, 67, 18
3, 205440, Note_off_c, 1, 67, 64
3, 205440, Note_on_c, 1, 68, 18
3, 205824, Note_off_c, 1, 68, 64
3, 205824, Note_on_c, 1, 63, 18
3, 206208, Note_off_c, 1, 63, 64
3, 206208, Note_on_c, 1, 60, 18
3, 206592, Note_off_c, 1, 60, 64
3, 206592, Note_on_c, 1, 56, 18
3, 206976, Note_off_c, 1, 56, 64
3, 207360, Note_on_c, 1, 55, 18
3, 207360, Note_on_c, 1, 58, 18
3, 207360, Note_on_c, 1, 63, 18
3, 207744, Note_off_c, 1, 63, 64
3, 207744, Note_off_c, 1, 58, 64
3, 207744, Note_off_c, 1, 55, 64
3, 207744, Note_on_c, 1, 55, 18
3, 207744, Note_on_c, 1, 58, 18
3, 207744, Note_on_c, 1, 63, 18
3, 208128, Note_off_c, 1, 63, 64
3, 208128, Note_off_c, 1, 58, 64
3, 208128, Note_off_c, 1, 55, 64
3, 208128, Note_on_c, 1, 55, 18
3, 208128, Note_on_c, 1, 58, 18
3, 208128, Note_on_c, 1, 63, 18
3, 208512, Note_off_c, 1, 63, 64
3, 208512, Note_off_c, 1, 58, 64
3, 208512, Note_off_c, 1, 55, 64
3, 208896, Note_on_c, 1, 58, 18
3, 208896, Note_on_c, 1, 61, 18
3, 208896, Note_on_c, 1, 63, 18
3, 209280, Note_off_c, 1, 63, 64
3, 209280, Note_off_c, 1, 61, 64
3, 209280, Note_off_c, 1, 58, 64
3, 209280, Note_on_c, 1, 58, 18
3, 209280, Note_on_c, 1, 61, 18
3, 209280, Note_on_c, 1, 63, 18
3, 209664, Note_off_c, 1, 63, 64
3, 209664, Note_off_c, 1, 61, 64
3, 209664, Note_off_c, 1, 58, 64
3, 209664, Note_on_c, 1, 58, 18
3, 209664, Note_on_c, 1, 61, 18
3, 209664, Note_on_c, 1, 63, 18
3, 210048, Note_off_c, 1, 63, 64
3, 210048, Note_off_c, 1, 61, 64
3, 210048, Note_off_c, 1, 58, 64
3, 210432, Note_on_c, 1, 56, 18
3, 210432, Note_on_c, 1, 60, 18
3, 210432, Note_on_c, 1, 63, 18
3, 210816, Note_off_c, 1, 63, 64
3, 210816, Note_off_c, 1, 60, 64
3, 210816, Note_off_c, 1, 56, 64
3, 210816, Note_on_c, 1, 56, 18
3, 210816, Note_on_c, 1, 60, 18
3, 210816, Note_on_c, 1, 63, 18
3, 211200, Note_off_c, 1, 63, 64
3, 211200, Note_off_c, 1, 60, 64
3, 211200, Note_off_c, 1, 56, 64
3, 211200, Note_on_c, 1, 56, 18
3, 211200, Note_on_c, 1, 60, 18
3, 211200, Note_on_c, 1, 63, 18
3, 211584, Note_off_c, 1, 63, 64
3, 211584, Note_off_c, 1, 60, 64
3, 211584, Note_off_c, 1, 56, 64
3, 211968, Note_on_c, 1, 60, 18
3, 211968, Note_on_c, 1, 63, 18
3, 211968, Note_on_c, 1, 68, 18
3, 212352, Note_off_c, 1, 68, 64
3, 212352, Note_off_c, 1, 63, 64
3, 212352, Note_off_c, 1, 60, 64
3, 212352, Note_on_c, 1, 60, 18
3, 212352, Note_on_c, 1, 63, 18
3, 212352, Note_on_c, 1, 68, 18
3, 212736, Note_off_c, 1, 68, 64
3, 212736, Note_off_c, 1, 63, 64
3, 212736, Note_off_c, 1, 60, 64
3, 212736, Note_on_c, 1, 60, 18
3, 212736, Note_on_c, 1, 63, 18
3, 212736, Note_on_c, 1, 68, 18
3, 213120, Note_off_c, 1, 68, 64
3, 213120, Note_off_c, 1, 63, 64
3, 213120, Note_off_c, 1, 60, 64
3, 213504, Note_on_c, 1, 58, 18
3, 213504, Note_on_c, 1, 63, 18
3, 213504, Note_on_c, 1, 67, 18
3, 213888, Note_off_c, 1, 67, 64
3, 213888, Note_off_c, 1, 63, 64
3, 213888, Note_off_c, 1, 58, 64
3, 213888, Note_on_c, 1, 58, 18
3, 213888, Note_on_c, 1, 63, 18
3, 213888, Note_on_c, 1, 67, 18
3, 214272, Note_off_c, 1, 67, 64
3, 214272, Note_off_c, 1, 63, 64
3, 214272, Note_off_c, 1, 58, 64
3, 214272, Note_on_c, 1, 58, 21
3, 214272, Note_on_c, 1, 63, 21
3, 214272, Note_on_c, 1, 67, 21
3, 214656, Note_off_c, 1, 67, 64
3, 214656, Note_off_c, 1, 63, 64
3, 214656, Note_off_c, 1, 58, 64
3, 215040, Note_on_c, 1, 61, 21
3, 215040, Note_on_c, 1, 63, 21
3, 215040, Note_on_c, 1, 70, 21
3, 215424, Note_off_c, 1, 70, 64
3, 215424, Note_off_c, 1, 63, 64
3, 215424, Note_off_c, 1, 61, 64
3, 215424, Note_on_c, 1, 61, 21
3, 215424, Note_on_c, 1, 63, 21
3, 215424, Note_on_c, 1, 70, 21
3, 215808, Note_off_c, 1, 70, 64
3, 215808, Note_off_c, 1, 63, 64
3, 215808, Note_off_c, 1, 61, 64
3, 215808, Note_on_c, 1, 61, 21
3, 215808, Note_on_c, 1, 63, 21
3, 215808, Note_on_c, 1, 70, 21
3, 216192, Note_off_c, 1, 70, 64
3, 216192, Note_off_c, 1, 63, 64
3, 216192, Note_off_c, 1, 61, 64
3, 216576, Note_on_c, 1, 51, 21
3, 216576, Note_on_c, 1, 55, 21
3, 216960, Note_off_c, 1, 55, 64
3, 216960, Note_off_c, 1, 51, 64
3, 216960, Note_on_c, 1, 53, 21
3, 216960, Note_on_c, 1, 56, 21
3, 217344, Note_off_c, 1, 56, 64
3, 217344, Note_off_c, 1, 53, 64
3, 217344, Note_on_c, 1, 55, 21
3, 217344, Note_on_c, 1, 58, 21
3, 217728, Note_off_c, 1, 58, 64
3, 217728, Note_off_c, 1, 55, 64
3, 217728, Note_on_c, 1, 56, 21
3, 217728, Note_on_c, 1, 60, 21
3, 218112, Note_off_c, 1, 60, 64
3, 218112, Note_off_c, 1, 56, 64
3, 218112, Note_on_c, 1, 58, 21
3, 218112, Note_on_c, 1, 61, 21
3, 218496, Note_off_c, 1, 61, 64
3, 218496, Note_off_c, 1, 58, 64
3, 218496, Note_on_c, 1, 60, 21
3, 218496, Note_on_c, 1, 63, 21
3, 218880, Note_off_c, 1, 63, 64
3, 218880, Note_off_c, 1, 60, 64
3, 218880, Note_on_c, 1, 58, 21
3, 218880, Note_on_c, 1, 61, 21
3, 219264, Note_off_c, 1, 61, 64
3, 219264, Note_off_c, 1, 58, 64
3, 219648, Note_on_c, 1, 56, 21
3, 219648, Note_on_c, 1, 60, 21
3, 220032, Note_off_c, 1, 60, 64
3, 220032, Note_off_c, 1, 56, 64
3, 220032, Note_on_c, 1, 56, 21
3, 220032, Note_on_c, 1, 60, 21
3, 220416, Note_off_c, 1, 60, 64
3, 220416, Note_off_c, 1, 56, 64
3, 220416, Note_on_c, 1, 56, 21
3, 220416, Note_on_c, 1, 60, 21
3, 220800, Note_off_c, 1, 60, 64
3, 220800, Note_off_c, 1, 56, 64
3, 221184, Note_on_c, 1, 54, 21
3, 221184, Note_on_c, 1, 56, 21
3, 221184, Note_on_c, 1, 63, 21
3, 221568, Note_off_c, 1, 63, 64
3, 221568, Note_off_c, 1, 56, 64
3, 221568, Note_off_c, 1, 54, 64
3, 221568, Note_on_c, 1, 54, 21
3, 221568, Note_on_c, 1, 56, 21
3, 221568, Note_on_c, 1, 63, 21
3, 221952, Note_off_c, 1, 63, 64
3, 221952, Note_off_c, 1, 56, 64
3, 221952, Note_off_c, 1, 54, 64
3, 221952, Note_on_c, 1, 54, 21
3, 221952, Note_on_c, 1, 56, 21
3, 221952, Note_on_c, 1, 63, 21
3, 222336, Note_off_c, 1, 63, 64
3, 222336, Note_off_c, 1, 56, 64
3, 222336, Note_off_c, 1, 54, 64
3, 222720, Note_on_c, 1, 53, 21
3, 222720, Note_on_c, 1, 56, 21
3, 222720, Note_on_c, 1, 61, 21
3, 223104, Note_off_c, 1, 61, 64
3, 223104, Note_off_c, 1, 56, 64
3, 223104, Note_off_c, 1, 53, 64
3, 223104, Note_on_c, 1, 53, 21
3, 223104, Note_on_c, 1, 56, 21
3, 223104, Note_on_c, 1, 61, 21
3, 223488, Note_off_c, 1, 61, 64
3, 223488, Note_off_c, 1, 56, 64
3, 223488, Note_off_c, 1, 53, 64
3, 223488, Note_on_c, 1, 53, 21
3, 223488, Note_on_c, 1, 56, 21
3, 223488, Note_on_c, 1, 61, 21
3, 223872, Note_off_c, 1, 61, 64
3, 223872, Note_off_c, 1, 56, 64
3, 223872, Note_off_c, 1, 53, 64
3, 224256, Note_on_c, 1, 51, 21
3, 224256, Note_on_c, 1, 54, 21
3, 224256, Note_on_c, 1, 57, 21
3, 224640, Note_off_c, 1, 57, 64
3, 224640, Note_off_c, 1, 54, 64
3, 224640, Note_off_c, 1, 51, 64
3, 224640, Note_on_c, 1, 51, 21
3, 224640, Note_on_c, 1, 54, 21
3, 224640, Note_on_c, 1, 57, 21
3, 225024, Note_off_c, 1, 57, 64
3, 225024, Note_off_c, 1, 54, 64
3, 225024, Note_off_c, 1, 51, 64
3, 225024, Note_on_c, 1, 51, 21
3, 225024, Note_on_c, 1, 54, 21
3, 225024, Note_on_c, 1, 57, 21
3, 225408, Note_off_c, 1, 57, 64
3, 225408, Note_off_c, 1, 54, 64
3, 225408, Note_off_c, 1, 51, 64
3, 225792, Note_on_c, 1, 49, 21
3, 225792, Note_on_c, 1, 53, 21
3, 225792, Note_on_c, 1, 58, 21
3, 226176, Note_off_c, 1, 58, 64
3, 226176, Note_off_c, 1, 53, 64
3, 226176, Note_off_c, 1, 49, 64
3, 226176, Note_on_c, 1, 49, 21
3, 226176, Note_on_c, 1, 53, 21
3, 226176, Note_on_c, 1, 58, 21
3, 226560, Note_off_c, 1, 58, 64
3, 226560, Note_off_c, 1, 53, 64
3, 226560, Note_off_c, 1, 49, 64
3, 226560, Note_on_c, 1, 49, 21
3, 226560, Note_on_c, 1, 53, 21
3, 226560, Note_on_c, 1, 58, 21
3, 226944, Note_off_c, 1, 58, 64
3, 226944, Note_off_c, 1, 53, 64
3, 226944, Note_off_c, 1, 49, 64
3, 227328, Note_on_c, 1, 51, 21
3, 227328, Note_on_c, 1, 55, 21
3, 227328, Note_on_c, 1, 61, 21
3, 227712, Note_off_c, 1, 61, 64
3, 227712, Note_off_c, 1, 55, 64
3, 227712, Note_off_c, 1, 51, 64
3, 227712, Note_on_c, 1, 51, 21
3, 227712, Note_on_c, 1, 55, 21
3, 227712, Note_on_c, 1, 61, 21
3, 228096, Note_off_c, 1, 61, 64
3, 228096, Note_off_c, 1, 55, 64
3, 228096, Note_off_c, 1, 51, 64
3, 228096, Note_on_c, 1, 51, 21
3, 228096, Note_on_c, 1, 55, 21
3, 228096, Note_on_c, 1, 61, 21
3, 228480, Note_off_c, 1, 61, 64
3, 228480, Note_off_c, 1, 55, 64
3, 228480, Note_off_c, 1, 51, 64
3, 228864, Note_on_c, 1, 56, 21
3, 228864, Note_on_c, 1, 61, 21
3, 229248, Note_off_c, 1, 61, 64
3, 229248, Note_off_c, 1, 56, 64
3, 229248, Note_on_c, 1, 56, 21
3, 229248, Note_on_c, 1, 61, 21
3, 229632, Note_off_c, 1, 61, 64
3, 229632, Note_off_c, 1, 56, 64
3, 229632, Note_on_c, 1, 56, 21
3, 229632, Note_on_c, 1, 61, 21
3, 230016, Note_off_c, 1, 61, 64
3, 230016, Note_off_c, 1, 56, 64
3, 230400, Note_on_c, 1, 56, 21
3, 230400, Note_on_c, 1, 60, 21
3, 230784, Note_off_c, 1, 60, 64
3, 230784, Note_off_c, 1, 56, 64
3, 230784, Note_on_c, 1, 60, 21
3, 230784, Note_on_c, 1, 63, 21
3, 231168, Note_off_c, 1, 63, 64
3, 231168, Note_off_c, 1, 60, 64
3, 231168, Note_on_c, 1, 56, 21
3, 231168, Note_on_c, 1, 60, 21
3, 231552, Note_off_c, 1, 60, 64
3, 231552, Note_off_c, 1, 56, 64
3, 231936, Note_on_c, 1, 55, 21
3, 231936, Note_on_c, 1, 58, 21
3, 231936, Note_on_c, 1, 63, 21
3, 232320, Note_off_c, 1, 63, 64
3, 232320, Note_off_c, 1, 58, 64
3, 232320, Note_off_c, 1, 55, 64
3, 232320, Note_on_c, 1, 55, 21
3, 232320, Note_on_c, 1, 58, 21
3, 232320, Note_on_c, 1, 63, 21
3, 232704, Note_off_c, 1, 63, 64
3, 232704, Note_off_c, 1, 58, 64
3, 232704, Note_off_c, 1, 55, 64
3, 232704, Note_on_c, 1, 55, 21
3, 232704, Note_on_c, 1, 58, 21
3, 232704, Note_on_c, 1, 63, 21
3, 233088, Note_off_c, 1, 63, 64
3, 233088, Note_off_c, 1, 58, 64
3, 233088, Note_off_c, 1, 55, 64
3, 233472, Note_on_c, 1, 58, 21
3, 233472, Note_on_c, 1, 61, 21
3, 233472, Note_on_c, 1, 63, 21
3, 233856, Note_off_c, 1, 63, 64
3, 233856, Note_off_c, 1, 61, 64
3, 233856, Note_off_c, 1, 58, 64
3, 233856, Note_on_c, 1, 58, 21
3, 233856, Note_on_c, 1, 61, 21
3, 233856, Note_on_c, 1, 63, 21
3, 234240, Note_off_c, 1, 63, 64
3, 234240, Note_off_c, 1, 61, 64
3, 234240, Note_off_c, 1, 58, 64
3, 234240, Note_on_c, 1, 58, 21
3, 234240, Note_on_c, 1, 61, 21
3, 234240, Note_on_c, 1, 63, 21
3, 234624, Note_off_c, 1, 63, 64
3, 234624, Note_off_c, 1, 61, 64
3, 234624, Note_off_c, 1, 58, 64
3, 235008, Note_on_c, 1, 56, 21
3, 235008, Note_on_c, 1, 60, 21
3, 235008, Note_on_c, 1, 63, 21
3, 235392, Note_off_c, 1, 63, 64
3, 235392, Note_off_c, 1, 60, 64
3, 235392, Note_off_c, 1, 56, 64
3, 235392, Note_on_c, 1, 56, 21
3, 235392, Note_on_c, 1, 60, 21
3, 235392, Note_on_c, 1, 63, 21
3, 235776, Note_off_c, 1, 63, 64
3, 235776, Note_off_c, 1, 60, 64
3, 235776, Note_off_c, 1, 56, 64
3, 235776, Note_on_c, 1, 56, 21
3, 235776, Note_on_c, 1, 60, 21
3, 235776, Note_on_c, 1, 63, 21
3, 236160, Note_off_c, 1, 63, 64
3, 236160, Note_off_c, 1, 60, 64
3, 236160, Note_off_c, 1, 56, 64
3, 236544, Note_on_c, 1, 60, 21
3, 236544, Note_on_c, 1, 63, 21
3, 236544, Note_on_c, 1, 68, 21
3, 236928, Note_off_c, 1, 68, 64
3, 236928, Note_off_c, 1, 63, 64
3, 236928, Note_off_c, 1, 60, 64
3, 236928, Note_on_c, 1, 60, 21
3, 236928, Note_on_c, 1, 63, 21
3, 236928, Note_on_c, 1, 68, 21
3, 237312, Note_off_c, 1, 68, 64
3, 237312, Note_off_c, 1, 63, 64
3, 237312, Note_off_c, 1, 60, 64
3, 237312, Note_on_c, 1, 60, 21
3, 237312, Note_on_c, 1, 63, 21
3, 237312, Note_on_c, 1, 68, 21
3, 237696, Note_off_c, 1, 68, 64
3, 237696, Note_off_c, 1, 63, 64
3, 237696, Note_off_c, 1, 60, 64
3, 238080, Note_on_c, 1, 58, 21
3, 238080, Note_on_c, 1, 63, 21
3, 238080, Note_on_c, 1, 67, 21
3, 238464, Note_off_c, 1, 67, 64
3, 238464, Note_off_c, 1, 63, 64
3, 238464, Note_off_c, 1, 58, 64
3, 238464, Note_on_c, 1, 58, 21
3, 238464, Note_on_c, 1, 63, 21
3, 238464, Note_on_c, 1, 67, 21
3, 238848, Note_off_c, 1, 67, 64
3, 238848, Note_off_c, 1, 63, 64
3, 238848, Note_off_c, 1, 58, 64
3, 238848, Note_on_c, 1, 58, 21
3, 238848, Note_on_c, 1, 63, 21
3, 238848, Note_on_c, 1, 67, 21
3, 239232, Note_off_c, 1, 67, 64
3, 239232, Note_off_c, 1, 63, 64
3, 239232, Note_off_c, 1, 58, 64
3, 239616, Note_on_c, 1, 61, 21
3, 239616, Note_on_c, 1, 63, 21
3, 239616, Note_on_c, 1, 70, 21
3, 240000, Note_off_c, 1, 70, 64
3, 240000, Note_off_c, 1, 63, 64
3, 240000, Note_off_c, 1, 61, 64
3, 240000, Note_on_c, 1, 61, 21
3, 240000, Note_on_c, 1, 63, 21
3, 240000, Note_on_c, 1, 70, 21
3, 240384, Note_off_c, 1, 70, 64
3, 240384, Note_off_c, 1, 63, 64
3, 240384, Note_off_c, 1, 61, 64
3, 240384, Note_on_c, 1, 61, 21
3, 240384, Note_on_c, 1, 63, 21
3, 240384, Note_on_c, 1, 70, 21
3, 240768, Note_off_c, 1, 70, 64
3, 240768, Note_off_c, 1, 63, 64
3, 240768, Note_off_c, 1, 61, 64
3, 241152, Note_on_c, 1, 51, 21
3, 241152, Note_on_c, 1, 55, 21
3, 241536, Note_off_c, 1, 55, 64
3, 241536, Note_off_c, 1, 51, 64
3, 241536, Note_on_c, 1, 53, 21
3, 241536, Note_on_c, 1, 56, 21
3, 241920, Note_off_c, 1, 56, 64
3, 241920, Note_off_c, 1, 53, 64
3, 241920, Note_on_c, 1, 55, 21
3, 241920, Note_on_c, 1, 58, 21
3, 242304, Note_off_c, 1, 58, 64
3, 242304, Note_off_c, 1, 55, 64
3, 242304, Note_on_c, 1, 56, 21
3, 242304, Note_on_c, 1, 60, 21
3, 242688, Note_off_c, 1, 60, 64
3, 242688, Note_off_c, 1, 56, 64
3, 242688, Note_on_c, 1, 58, 21
3, 242688, Note_on_c, 1, 61, 21
3, 243072, Note_off_c, 1, 61, 64
3, 243072, Note_off_c, 1, 58, 64
3, 243072, Note_on_c, 1, 60, 21
3, 243072, Note_on_c, 1, 63, 21
3, 243456, Note_off_c, 1, 63, 64
3, 243456, Note_off_c, 1, 60, 64
3, 243456, Note_on_c, 1, 58, 21
3, 243456, Note_on_c, 1, 61, 21
3, 243840, Note_off_c, 1, 61, 64
3, 243840, Note_off_c, 1, 58, 64
3, 244224, Note_on_c, 1, 56, 21
3, 244224, Note_on_c, 1, 60, 21
3, 244608, Note_off_c, 1, 60, 64
3, 244608, Note_off_c, 1, 56, 64
3, 244608, Note_on_c, 1, 56, 21
3, 244608, Note_on_c, 1, 60, 21
3, 244992, Note_off_c, 1, 60, 64
3, 244992, Note_off_c, 1, 56, 64
3, 244992, Note_on_c, 1, 56, 21
3, 244992, Note_on_c, 1, 60, 21
3, 245376, Note_off_c, 1, 60, 64
3, 245376, Note_off_c, 1, 56, 64
3, 245760, Note_on_c, 1, 54, 21
3, 245760, Note_on_c, 1, 56, 21
3, 245760, Note_on_c, 1, 63, 21
3, 246144, Note_off_c, 1, 63, 64
3, 246144, Note_off_c, 1, 56, 64
3, 246144, Note_off_c, 1, 54, 64
3, 246144, Note_on_c, 1, 54, 21
3, 246144, Note_on_c, 1, 56, 21
3, 246144, Note_on_c, 1, 63, 21
3, 246528, Note_off_c, 1, 63, 64
3, 246528, Note_off_c, 1, 56, 64
3, 246528, Note_off_c, 1, 54, 64
3, 246528, Note_on_c, 1, 54, 21
3, 246528, Note_on_c, 1, 56, 21
3, 246528, Note_on_c, 1, 63, 21
3, 246912, Note_off_c, 1, 63, 64
3, 246912, Note_off_c, 1, 56, 64
3, 246912, Note_off_c, 1, 54, 64
3, 247296, Note_on_c, 1, 53, 21
3, 247296, Note_on_c, 1, 56, 21
3, 247296, Note_on_c, 1, 61, 21
3, 247680, Note_off_c, 1, 61, 64
3, 247680, Note_off_c, 1, 56, 64
3, 247680, Note_off_c, 1, 53, 64
3, 247680, Note_on_c, 1, 53, 25
3, 247680, Note_on_c, 1, 56, 25
3, 247680, Note_on_c, 1, 61, 25
3, 248064, Note_off_c, 1, 61, 64
3, 248064, Note_off_c, 1, 56, 64
3, 248064, Note_off_c, 1, 53, 64
3, 248064, Note_on_c, 1, 53, 25
3, 248064, Note_on_c, 1, 56, 25
3, 248064, Note_on_c, 1, 61, 25
3, 248448, Note_off_c, 1, 61, 64
3, 248448, Note_off_c, 1, 56, 64
3, 248448, Note_off_c, 1, 53, 64
3, 248832, Note_on_c, 1, 51, 25
3, 248832, Note_on_c, 1, 54, 25
3, 248832, Note_on_c, 1, 57, 25
3, 249216, Note_off_c, 1, 57, 64
3, 249216, Note_off_c, 1, 54, 64
3, 249216, Note_off_c, 1, 51, 64
3, 249216, Note_on_c, 1, 51, 25
3, 249216, Note_on_c, 1, 54, 25
3, 249216, Note_on_c, 1, 57, 25
3, 249600, Note_off_c, 1, 57, 64
3, 249600, Note_off_c, 1, 54, 64
3, 249600, Note_off_c, 1, 51, 64
3, 249600, Note_on_c, 1, 51, 25
3, 249600, Note_on_c, 1, 54, 25
3, 249600, Note_on_c, 1, 57, 25
3, 249984, Note_off_c, 1, 57, 64
3, 249984, Note_off_c, 1, 54, 64
3, 249984, Note_off_c, 1, 51, 64
3, 250368, Note_on_c, 1, 49, 25
3, 250368, Note_on_c, 1, 53, 25
3, 250368, Note_on_c, 1, 58, 25
3, 250752, Note_off_c, 1, 58, 64
3, 250752, Note_off_c, 1, 53, 64
3, 250752, Note_off_c, 1, 49, 64
3, 250752, Note_on_c, 1, 49, 25
3, 250752, Note_on_c, 1, 53, 25
3, 250752, Note_on_c, 1, 58, 25
3, 251136, Note_off_c, 1, 58, 64
3, 251136, Note_off_c, 1, 53, 64
3, 251136, Note_off_c, 1, 49, 64
3, 251136, Note_on_c, 1, 49, 25
3, 251136, Note_on_c, 1, 53, 25
3, 251136, Note_on_c, 1, 58, 25
3, 251520, Note_off_c, 1, 58, 64
3, 251520, Note_off_c, 1, 53, 64
3, 251520, Note_off_c, 1, 49, 64
3, 251904, Note_on_c, 1, 51, 25
3, 251904, Note_on_c, 1, 55, 25
3, 251904, Note_on_c, 1, 61, 25
3, 252288, Note_off_c, 1, 61, 64
3, 252288, Note_off_c, 1, 55, 64
3, 252288, Note_off_c, 1, 51, 64
3, 252288, Note_on_c, 1, 51, 25
3, 252288, Note_on_c, 1, 55, 25
3, 252288, Note_on_c, 1, 61, 25
3, 252672, Note_off_c, 1, 61, 64
3, 252672, Note_off_c, 1, 55, 64
3, 252672, Note_off_c, 1, 51, 64
3, 252672, Note_on_c, 1, 51, 25
3, 252672, Note_on_c, 1, 55, 25
3, 252672, Note_on_c, 1, 61, 25
3, 253056, Note_off_c, 1, 61, 64
3, 253056, Note_off_c, 1, 55, 64
3, 253056, Note_off_c, 1, 51, 64
3, 253056, Note_on_c, 1, 44, 21
3, 253184, Note_off_c, 1, 44, 64
3, 253184, Note_on_c, 1, 48, 19
3, 253312, Note_off_c, 1, 48, 64
3, 253312, Note_on_c, 1, 51, 16
3, 253440, Note_off_c, 1, 51, 64
3, 253440, Note_on_c, 1, 44, 18
3, 253568, Note_off_c, 1, 44, 64
3, 253568, Note_on_c, 1, 48, 18
3, 253696, Note_off_c, 1, 48, 64
3, 253696, Note_on_c, 1, 51, 18
3, 253824, Note_off_c, 1, 51, 64
3, 253824, Note_on_c, 1, 44, 18
3, 253952, Note_off_c, 1, 44, 64
3, 253952, Note_on_c, 1, 48, 18
3, 254080, Note_off_c, 1, 48, 64
3, 254080, Note_on_c, 1, 51, 18
3, 254208, Note_off_c, 1, 51, 64
3, 254208, Note_on_c, 1, 44, 18
3, 254336, Note_off_c, 1, 44, 64
3, 254336, Note_on_c, 1, 48, 18
3, 254464, Note_off_c, 1, 48, 64
3, 254464, Note_on_c, 1, 51, 18
3, 254592, Note_off_c, 1, 51, 64
3, 254592, Note_on_c, 1, 44, 18
3, 254720, Note_off_c, 1, 44, 64
3, 254720, Note_on_c, 1, 48, 18
3, 254848, Note_off_c, 1, 48, 64
3, 254848, Note_on_c, 1, 51, 19
3, 254976, Note_off_c, 1, 51, 64
3, 254976, Note_on_c, 1, 44, 19
3, 255104, Note_off_c, 1, 44, 64
3, 255104, Note_on_c, 1, 48, 19
3, 255232, Note_off_c, 1, 48, 64
3, 255232, Note_on_c, 1, 51, 19
3, 255360, Note_off_c, 1, 51, 64
3, 255360, Note_on_c, 1, 44, 19
3, 255488, Note_off_c, 1, 44, 64
3, 255488, Note_on_c, 1, 48, 19
3, 255616, Note_off_c, 1, 48, 64
3, 255616, Note_on_c, 1, 51, 19
3, 255744, Note_off_c, 1, 51, 64
3, 255744, Note_on_c, 1, 44, 19
3, 255872, Note_off_c, 1, 44, 64
3, 255872, Note_on_c, 1, 48, 19
3, 256000, Note_off_c, 1, 48, 64
3, 256000, Note_on_c, 1, 51, 19
3, 256128, Note_off_c, 1, 51, 64
3, 256128, Note_on_c, 1, 44, 19
3, 256512, Note_off_c, 1, 44, 64
3, 256512, Note_on_c, 1, 56, 28
3, 256512, Note_on_c, 1, 60, 28
3, 256512, Note_on_c, 1, 63, 28
3, 256896, Note_off_c, 1, 63, 64
3, 256896, Note_off_c, 1, 60, 64
3, 256896, Note_off_c, 1, 56, 64
3, 256896, Note_on_c, 1, 56, 28
3, 256896, Note_on_c, 1, 60, 28
3, 256896, Note_on_c, 1, 63, 28
3, 257280, Note_off_c, 1, 63, 64
3, 257280, Note_off_c, 1, 60, 64
3, 257280, Note_off_c, 1, 56, 64
3, 257280, Note_on_c, 1, 56, 28
3, 257280, Note_on_c, 1, 60, 28
3, 257280, Note_on_c, 1, 63, 28
3, 257664, Note_off_c, 1, 63, 64
3, 257664, Note_off_c, 1, 60, 64
3, 257664, Note_off_c, 1, 56, 64
3, 257664, Note_on_c, 1, 56, 28
3, 257664, Note_on_c, 1, 60, 28
3, 257664, Note_on_c, 1, 63, 28
3, 258048, Note_off_c, 1, 63, 64
3, 258048, Note_off_c, 1, 60, 64
3, 258048, Note_off_c, 1, 56, 64
3, 258048, Note_on_c, 1, 56, 28
3, 258048, Note_on_c, 1, 60, 28
3, 258048, Note_on_c, 1, 63, 28
3, 258432, Note_off_c, 1, 63, 64
3, 258432, Note_off_c, 1, 60, 64
3, 258432, Note_off_c, 1, 56, 64
3, 258432, Note_on_c, 1, 56, 28
3, 258432, Note_on_c, 1, 60, 28
3, 258432, Note_on_c, 1, 63, 28
3, 258816, Note_off_c, 1, 63, 64
3, 258816, Note_off_c, 1, 60, 64
3, 258816, Note_off_c, 1, 56, 64
3, 258816, Note_on_c, 1, 56, 28
3, 258816, Note_on_c, 1, 60, 28
3, 258816, Note_on_c, 1, 63, 28
3, 259200, Note_off_c, 1, 63, 64
3, 259200, Note_off_c, 1, 60, 64
3, 259200, Note_off_c, 1, 56, 64
3, 259200, Note_on_c, 1, 43, 21
3, 259328, Note_off_c, 1, 43, 64
3, 259328, Note_on_c, 1, 48, 18
3, 259456, Note_off_c, 1, 48, 64
3, 259456, Note_on_c, 1, 52, 18
3, 259584, Note_off_c, 1, 52, 64
3, 259584, Note_on_c, 1, 43, 18
3, 259712, Note_off_c, 1, 43, 64
3, 259712, Note_on_c, 1, 48, 18
3, 259840, Note_off_c, 1, 48, 64
3, 259840, Note_on_c, 1, 52, 18
3, 259968, Note_off_c, 1, 52, 64
3, 259968, Note_on_c, 1, 43, 18
3, 260096, Note_off_c, 1, 43, 64
3, 260096, Note_on_c, 1, 48, 18
3, 260224, Note_off_c, 1, 48, 64
3, 260224, Note_on_c, 1, 52, 18
3, 260352, Note_off_c, 1, 52, 64
3, 260352, Note_on_c, 1, 43, 18
3, 260480, Note_off_c, 1, 43, 64
3, 260480, Note_on_c, 1, 48, 18
3, 260608, Note_off_c, 1, 48, 64
3, 260608, Note_on_c, 1, 52, 18
3, 260736, Note_off_c, 1, 52, 64
3, 260736, Note_on_c, 1, 43, 18
3, 260864, Note_off_c, 1, 43, 64
3, 260864, Note_on_c, 1, 48, 19
3, 260992, Note_off_c, 1, 48, 64
3, 260992, Note_on_c, 1, 52, 19
3, 261120, Note_off_c, 1, 52, 64
3, 261120, Note_on_c, 1, 43, 19
3, 261248, Note_off_c, 1, 43, 64
3, 261248, Note_on_c, 1, 48, 19
3, 261376, Note_off_c, 1, 48, 64
3, 261376, Note_on_c, 1, 52, 19
3, 261504, Note_off_c, 1, 52, 64
3, 261504, Note_on_c, 1, 43, 19
3, 261632, Note_off_c, 1, 43, 64
3, 261632, Note_on_c, 1, 48, 19
3, 261760, Note_off_c, 1, 48, 64
3, 261760, Note_on_c, 1, 52, 19
3, 261888, Note_off_c, 1, 52, 64
3, 261888, Note_on_c, 1, 43, 19
3, 262016, Note_off_c, 1, 43, 64
3, 262016, Note_on_c, 1, 48, 19
3, 262144, Note_off_c, 1, 48, 64
3, 262144, Note_on_c, 1, 52, 18
3, 262272, Note_off_c, 1, 52, 64
3, 262272, Note_on_c, 1, 43, 18
3, 262656, Note_off_c, 1, 43, 64
3, 262656, Note_on_c, 1, 55, 30
3, 262656, Note_on_c, 1, 58, 30
3, 262656, Note_on_c, 1, 64, 30
3, 263040, Note_off_c, 1, 64, 64
3, 263040, Note_off_c, 1, 58, 64
3, 263040, Note_off_c, 1, 55, 64
3, 263040, Note_on_c, 1, 55, 30
3, 263040, Note_on_c, 1, 58, 30
3, 263040, Note_on_c, 1, 64, 30
3, 263424, Note_off_c, 1, 64, 64
3, 263424, Note_off_c, 1, 58, 64
3, 263424, Note_off_c, 1, 55, 64
3, 263424, Note_on_c, 1, 55, 30
3, 263424, Note_on_c, 1, 58, 30
3, 263424, Note_on_c, 1, 64, 30
3, 263808, Note_off_c, 1, 64, 64
3, 263808, Note_off_c, 1, 58, 64
3, 263808, Note_off_c, 1, 55, 64
3, 263808, Note_on_c, 1, 55, 30
3, 263808, Note_on_c, 1, 58, 30
3, 263808, Note_on_c, 1, 64, 30
3, 264192, Note_off_c, 1, 64, 64
3, 264192, Note_off_c, 1, 58, 64
3, 264192, Note_off_c, 1, 55, 64
3, 264192, Note_on_c, 1, 55, 30
3, 264192, Note_on_c, 1, 58, 30
3, 264192, Note_on_c, 1, 64, 30
3, 264576, Note_off_c, 1, 64, 64
3, 264576, Note_off_c, 1, 58, 64
3, 264576, Note_off_c, 1, 55, 64
3, 264576, Note_on_c, 1, 55, 30
3, 264576, Note_on_c, 1, 58, 30
3, 264576, Note_on_c, 1, 64, 30
3, 264960, Note_off_c, 1, 64, 64
3, 264960, Note_off_c, 1, 58, 64
3, 264960, Note_off_c, 1, 55, 64
3, 264960, Note_on_c, 1, 55, 23
3, 264960, Note_on_c, 1, 58, 25
3, 264960, Note_on_c, 1, 64, 25
3, 265344, Note_off_c, 1, 64, 64
3, 265344, Note_off_c, 1, 58, 64
3, 265344, Note_off_c, 1, 55, 64
3, 265344, Note_on_c, 1, 41, 23
3, 265472, Note_off_c, 1, 41, 64
3, 265472, Note_on_c, 1, 48, 16
3, 265600, Note_off_c, 1, 48, 64
3, 265600, Note_on_c, 1, 53, 16
3, 265728, Note_off_c, 1, 53, 64
3, 265728, Note_on_c, 1, 41, 15
3, 265856, Note_off_c, 1, 41, 64
3, 265856, Note_on_c, 1, 48, 15
3, 265984, Note_off_c, 1, 48, 64
3, 265984, Note_on_c, 1, 53, 15
3, 266112, Note_off_c, 1, 53, 64
3, 266112, Note_on_c, 1, 41, 15
3, 266240, Note_off_c, 1, 41, 64
3, 266240, Note_on_c, 1, 48, 15
3, 266368, Note_off_c, 1, 48, 64
3, 266368, Note_on_c, 1, 53, 15
3, 266496, Note_off_c, 1, 53, 64
3, 266496, Note_on_c, 1, 41, 14
3, 266624, Note_off_c, 1, 41, 64
3, 266624, Note_on_c, 1, 48, 14
3, 266752, Note_off_c, 1, 48, 64
3, 266752, Note_on_c, 1, 53, 14
3, 266880, Note_off_c, 1, 53, 64
3, 266880, Note_on_c, 1, 41, 14
3, 267008, Note_off_c, 1, 41, 64
3, 267008, Note_on_c, 1, 48, 14
3, 267136, Note_off_c, 1, 48, 64
3, 267136, Note_on_c, 1, 53, 14
3, 267264, Note_off_c, 1, 53, 64
3, 267264, Note_on_c, 1, 41, 13
3, 267392, Note_off_c, 1, 41, 64
3, 267392, Note_on_c, 1, 48, 13
3, 267520, Note_off_c, 1, 48, 64
3, 267520, Note_on_c, 1, 53, 13
3, 267648, Note_off_c, 1, 53, 64
3, 267648, Note_on_c, 1, 41, 13
3, 267776, Note_off_c, 1, 41, 64
3, 267776, Note_on_c, 1, 48, 13
3, 267904, Note_off_c, 1, 48, 64
3, 267904, Note_on_c, 1, 53, 13
3, 268032, Note_off_c, 1, 53, 64
3, 268032, Note_on_c, 1, 41, 14
3, 268160, Note_off_c, 1, 41, 64
3, 268160, Note_on_c, 1, 48, 15
3, 268288, Note_off_c, 1, 48, 64
3, 268288, Note_on_c, 1, 53, 16
3, 268416, Note_off_c, 1, 53, 64
3, 268416, Note_on_c, 1, 41, 17
3, 268800, Note_off_c, 1, 41, 64
3, 268800, Note_on_c, 1, 53, 20
3, 268800, Note_on_c, 1, 56, 20
3, 269184, Note_off_c, 1, 56, 64
3, 269184, Note_off_c, 1, 53, 64
3, 269184, Note_on_c, 1, 53, 23
3, 269184, Note_on_c, 1, 56, 23
3, 269568, Note_off_c, 1, 56, 64
3, 269568, Note_off_c, 1, 53, 64
3, 269568, Note_on_c, 1, 53, 25
3, 269568, Note_on_c, 1, 56, 25
3, 269952, Note_off_c, 1, 56, 64
3, 269952, Note_off_c, 1, 53, 64
3, 269952, Note_on_c, 1, 49, 28
3, 269952, Note_on_c, 1, 53, 28
3, 269952, Note_on_c, 1, 56, 28
3, 270336, Note_off_c, 1, 56, 64
3, 270336, Note_off_c, 1, 53, 64
3, 270336, Note_on_c, 1, 53, 36
3, 270336, Note_on_c, 1, 56, 36
3, 270720, Note_off_c, 1, 56, 64
3, 270720, Note_off_c, 1, 53, 64
3, 270720, Note_on_c, 1, 53, 37
3, 270720, Note_on_c, 1, 56, 37
3, 271104, Note_off_c, 1, 56, 64
3, 271104, Note_off_c, 1, 53, 64
3, 271104, Note_on_c, 1, 53, 39
3, 271104, Note_on_c, 1, 56, 39
3, 271488, Note_off_c, 1, 56, 64
3, 271488, Note_off_c, 1, 53, 64
3, 271488, Note_off_c, 1, 49, 64
3, 271488, Note_on_c, 1, 48, 40
3, 271488, Note_on_c, 1, 54, 40
3, 271488, Note_on_c, 1, 56, 40
3, 271872, Note_off_c, 1, 56, 64
3, 271872, Note_off_c, 1, 54, 64
3, 271872, Note_on_c, 1, 54, 42
3, 271872, Note_on_c, 1, 56, 42
3, 272256, Note_off_c, 1, 56, 64
3, 272256, Note_off_c, 1, 54, 64
3, 272256, Note_on_c, 1, 54, 43
3, 272256, Note_on_c, 1, 56, 43
3, 272640, Note_off_c, 1, 56, 64
3, 272640, Note_off_c, 1, 54, 64
3, 272640, Note_on_c, 1, 54, 45
3, 272640, Note_on_c, 1, 56, 45
3, 273024, Note_off_c, 1, 56, 64
3, 273024, Note_off_c, 1, 54, 64
3, 273024, Note_off_c, 1, 48, 64
3, 273024, Note_on_c, 1, 51, 46
3, 273024, Note_on_c, 1, 54, 46
3, 273024, Note_on_c, 1, 56, 46
3, 273408, Note_off_c, 1, 56, 64
3, 273408, Note_off_c, 1, 54, 64
3, 273408, Note_on_c, 1, 54, 48
3, 273408, Note_on_c, 1, 56, 48
3, 273792, Note_off_c, 1, 56, 64
3, 273792, Note_off_c, 1, 54, 64
3, 273792, Note_on_c, 1, 54, 49
3, 273792, Note_on_c, 1, 56, 49
3, 274176, Note_off_c, 1, 56, 64
3, 274176, Note_off_c, 1, 54, 64
3, 274176, Note_on_c, 1, 54, 51
3, 274176, Note_on_c, 1, 56, 51
3, 274560, Note_off_c, 1, 56, 64
3, 274560, Note_off_c, 1, 54, 64
3, 274560, Note_off_c, 1, 51, 64
3, 274560, Note_on_c, 1, 49, 52
3, 274560, Note_on_c, 1, 53, 52
3, 274560, Note_on_c, 1, 56, 52
3, 274944, Note_off_c, 1, 56, 64
3, 274944, Note_off_c, 1, 53, 64
3, 274944, Note_on_c, 1, 53, 54
3, 274944, Note_on_c, 1, 56, 54
3, 275328, Note_off_c, 1, 56, 64
3, 275328, Note_off_c, 1, 53, 64
3, 275328, Note_on_c, 1, 53, 55
3, 275328, Note_on_c, 1, 56, 55
3, 275712, Note_off_c, 1, 56, 64
3, 275712, Note_off_c, 1, 53, 64
3, 275712, Note_on_c, 1, 53, 57
3, 275712, Note_on_c, 1, 56, 57
3, 276096, Note_off_c, 1, 56, 64
3, 276096, Note_off_c, 1, 53, 64
3, 276096, Note_off_c, 1, 49, 64
3, 276096, Note_on_c, 1, 48, 58
3, 276096, Note_on_c, 1, 51, 58
3, 276096, Note_on_c, 1, 53, 58
3, 276480, Note_off_c, 1, 53, 64
3, 276480, Note_off_c, 1, 51, 64
3, 276480, Note_on_c, 1, 51, 60
3, 276480, Note_on_c, 1, 53, 60
3, 276864, Note_off_c, 1, 53, 64
3, 276864, Note_off_c, 1, 51, 64
3, 276864, Note_on_c, 1, 51, 61
3, 276864, Note_on_c, 1, 53, 61
3, 277248, Note_off_c, 1, 53, 64
3, 277248, Note_off_c, 1, 51, 64
3, 277248, Note_on_c, 1, 51, 63
3, 277248, Note_on_c, 1, 53, 63
3, 277632, Note_off_c, 1, 53, 64
3, 277632, Note_off_c, 1, 51, 64
3, 277632, Note_off_c, 1, 48, 64
3, 277632, Note_on_c, 1, 46, 66
3, 278016, Note_on_c, 1, 49, 66
3, 278016, Note_on_c, 1, 53, 66
3, 278400, Note_off_c, 1, 53, 64
3, 278400, Note_off_c, 1, 49, 64
3, 278400, Note_on_c, 1, 49, 65
3, 278400, Note_on_c, 1, 53, 65
3, 278784, Note_off_c, 1, 53, 64
3, 278784, Note_off_c, 1, 49, 64
3, 278784, Note_on_c, 1, 49, 65
3, 278784, Note_on_c, 1, 53, 65
3, 279168, Note_off_c, 1, 53, 64
3, 279168, Note_off_c, 1, 49, 64
3, 279168, Note_off_c, 1, 46, 64
3, 279168, Note_on_c, 1, 46, 64
3, 279552, Note_on_c, 1, 49, 63
3, 279552, Note_on_c, 1, 55, 63
3, 279936, Note_off_c, 1, 55, 64
3, 279936, Note_off_c, 1, 49, 64
3, 279936, Note_off_c, 1, 46, 64
3, 279936, Note_on_c, 1, 47, 62
3, 280320, Note_on_c, 1, 50, 54
3, 280320, Note_on_c, 1, 55, 54
3, 280704, Note_off_c, 1, 55, 64
3, 280704, Note_off_c, 1, 50, 64
3, 280704, Note_off_c, 1, 47, 64
3, 280704, Note_on_c, 1, 48, 46
3, 280832, Note_off_c, 1, 48, 64
3, 280832, Note_on_c, 1, 52, 47
3, 280960, Note_off_c, 1, 52, 64
3, 280960, Note_on_c, 1, 55, 47
3, 281088, Note_off_c, 1, 55, 64
3, 281472, Note_on_c, 1, 60, 47
3, 281664, Note_off_c, 1, 60, 64
3, 281856, Note_on_c, 1, 60, 48
3, 282048, Note_off_c, 1, 60, 64
3, 282240, Note_on_c, 1, 60, 48
3, 282432, Note_off_c, 1, 60, 64
3, 283008, Note_on_c, 1, 48, 54
3, 283200, Note_off_c, 1, 48, 64
3, 283392, Note_on_c, 1, 47, 55
3, 283584, Note_off_c, 1, 47, 64
3, 283776, Note_on_c, 1, 48, 55
3, 283904, Note_off_c, 1, 48, 64
3, 283904, Note_on_c, 1, 52, 55
3, 284032, Note_off_c, 1, 52, 64
3, 284032, Note_on_c, 1, 55, 55
3, 284160, Note_off_c, 1, 55, 64
3, 284544, Note_on_c, 1, 60, 51
3, 284736, Note_off_c, 1, 60, 64
3, 284928, Note_on_c, 1, 60, 52
3, 285120, Note_off_c, 1, 60, 64
3, 285312, Note_on_c, 1, 60, 52
3, 285504, Note_off_c, 1, 60, 64
3, 286080, Note_on_c, 1, 48, 58
3, 286272, Note_off_c, 1, 48, 64
3, 286464, Note_on_c, 1, 47, 58
3, 286656, Note_off_c, 1, 47, 64
3, 286848, Note_on_c, 1, 48, 59
3, 287616, Note_on_c, 1, 58, 68
3, 288000, Note_off_c, 1, 58, 64
3, 288000, Note_on_c, 1, 57, 55
3, 288384, Note_off_c, 1, 57, 64
3, 288384, Note_on_c, 1, 58, 56
3, 288768, Note_off_c, 1, 58, 64
3, 288768, Note_off_c, 1, 48, 64
3, 288768, Note_on_c, 1, 48, 56
3, 289152, Note_on_c, 1, 58, 64
3, 289536, Note_off_c, 1, 58, 64
3, 289536, Note_on_c, 1, 57, 57
3, 289920, Note_off_c, 1, 57, 64
3, 289920, Note_on_c, 1, 58, 57
3, 290304, Note_off_c, 1, 58, 64
3, 290304, Note_off_c, 1, 48, 64
3, 290304, Note_on_c, 1, 48, 58
3, 290688, Note_on_c, 1, 58, 70
3, 291072, Note_off_c, 1, 58, 64
3, 291072, Note_on_c, 1, 57, 59
3, 291456, Note_off_c, 1, 57, 64
3, 291456, Note_off_c, 1, 48, 64
3, 291456, Note_on_c, 1, 48, 59
3, 291456, Note_on_c, 1, 58, 59
3, 292992, Note_off_c, 1, 58, 64
3, 292992, Note_on_c, 1, 55, 61
3, 294528, Note_off_c, 1, 55, 64
3, 294528, Note_on_c, 1, 52, 63
3, 296064, Note_off_c, 1, 52, 64
3, 296064, Note_on_c, 1, 58, 65
3, 297600, Note_off_c, 1, 58, 64
3, 297600, Note_off_c, 1, 48, 64
3, 297600, Note_on_c, 1, 53, 68
3, 297728, Note_off_c, 1, 53, 64
3, 297728, Note_on_c, 1, 56, 68
3, 297856, Note_off_c, 1, 56, 64
3, 297856, Note_on_c, 1, 60, 68
3, 297984, Note_off_c, 1, 60, 64
3, 297984, Note_on_c, 1, 53, 68
3, 298112, Note_off_c, 1, 53, 64
3, 298112, Note_on_c, 1, 56, 64
3, 298240, Note_off_c, 1, 56, 64
3, 298240, Note_on_c, 1, 60, 64
3, 298368, Note_off_c, 1, 60, 64
3, 298368, Note_on_c, 1, 53, 64
3, 298496, Note_off_c, 1, 53, 64
3, 298496, Note_on_c, 1, 56, 64
3, 298624, Note_off_c, 1, 56, 64
3, 298624, Note_on_c, 1, 60, 64
3, 298752, Note_off_c, 1, 60, 64
3, 298752, Note_on_c, 1, 53, 64
3, 298880, Note_off_c, 1, 53, 64
3, 298880, Note_on_c, 1, 58, 66
3, 299008, Note_off_c, 1, 58, 64
3, 299008, Note_on_c, 1, 61, 68
3, 299136, Note_off_c, 1, 61, 64
3, 299136, Note_on_c, 1, 53, 71
3, 299264, Note_off_c, 1, 53, 64
3, 299264, Note_on_c, 1, 60, 73
3, 299392, Note_off_c, 1, 60, 64
3, 299392, Note_on_c, 1, 56, 76
3, 299520, Note_off_c, 1, 56, 64
3, 299520, Note_on_c, 1, 53, 78
3, 299648, Note_off_c, 1, 53, 64
3, 299648, Note_on_c, 1, 48, 81
3, 299776, Note_off_c, 1, 48, 64
3, 299776, Note_on_c, 1, 44, 79
3, 299904, Note_off_c, 1, 44, 64
3, 299904, Note_on_c, 1, 41, 79
3, 300032, Note_off_c, 1, 41, 64
3, 300032, Note_on_c, 1, 44, 80
3, 300160, Note_off_c, 1, 44, 64
3, 300160, Note_on_c, 1, 48, 80
3, 300288, Note_off_c, 1, 48, 64
3, 300288, Note_on_c, 1, 40, 81
3, 300416, Note_off_c, 1, 40, 64
3, 300416, Note_on_c, 1, 43, 81
3, 300544, Note_off_c, 1, 43, 64
3, 300544, Note_on_c, 1, 48, 81
3, 300672, Note_off_c, 1, 48, 64
3, 300672, Note_on_c, 1, 41, 77
3, 300800, Note_off_c, 1, 41, 64
3, 300800, Note_on_c, 1, 44, 76
3, 300928, Note_off_c, 1, 44, 64
3, 300928, Note_on_c, 1, 48, 76
3, 301056, Note_off_c, 1, 48, 64
3, 301056, Note_on_c, 1, 53, 75
3, 301184, Note_off_c, 1, 53, 64
3, 301184, Note_on_c, 1, 56, 74
3, 301312, Note_off_c, 1, 56, 64
3, 301312, Note_on_c, 1, 60, 74
3, 301440, Note_off_c, 1, 60, 64
3, 301440, Note_on_c, 1, 53, 73
3, 301568, Note_off_c, 1, 53, 64
3, 301568, Note_on_c, 1, 56, 73
3, 301696, Note_off_c, 1, 56, 64
3, 301696, Note_on_c, 1, 60, 72
3, 301824, Note_off_c, 1, 60, 64
3, 301824, Note_on_c, 1, 53, 72
3, 301952, Note_off_c, 1, 53, 64
3, 301952, Note_on_c, 1, 58, 71
3, 302080, Note_off_c, 1, 58, 64
3, 302080, Note_on_c, 1, 61, 71
3, 302208, Note_off_c, 1, 61, 64
3, 302208, Note_on_c, 1, 53, 70
3, 302336, Note_off_c, 1, 53, 64
3, 302336, Note_on_c, 1, 60, 71
3, 302464, Note_off_c, 1, 60, 64
3, 302464, Note_on_c, 1, 56, 72
3, 302592, Note_off_c, 1, 56, 64
3, 302592, Note_on_c, 1, 53, 74
3, 302720, Note_off_c, 1, 53, 64
3, 302720, Note_on_c, 1, 48, 75
3, 302848, Note_off_c, 1, 48, 64
3, 302848, Note_on_c, 1, 44, 76
3, 302976, Note_off_c, 1, 44, 64
3, 302976, Note_on_c, 1, 41, 81
3, 303104, Note_off_c, 1, 41, 64
3, 303104, Note_on_c, 1, 44, 81
3, 303232, Note_off_c, 1, 44, 64
3, 303232, Note_on_c, 1, 48, 81
3, 303360, Note_off_c, 1, 48, 64
3, 303360, Note_on_c, 1, 40, 81
3, 303488, Note_off_c, 1, 40, 64
3, 303488, Note_on_c, 1, 43, 81
3, 303616, Note_off_c, 1, 43, 64
3, 303616, Note_on_c, 1, 48, 82
3, 303744, Note_off_c, 1, 48, 64
3, 303744, Note_on_c, 1, 41, 80
3, 303872, Note_off_c, 1, 41, 64
3, 303872, Note_on_c, 1, 44, 78
3, 304000, Note_off_c, 1, 44, 64
3, 304000, Note_on_c, 1, 48, 76
3, 304128, Note_off_c, 1, 48, 64
3, 304128, Note_on_c, 1, 53, 75
3, 304256, Note_off_c, 1, 53, 64
3, 304256, Note_on_c, 1, 56, 73
3, 304384, Note_off_c, 1, 56, 64
3, 304384, Note_on_c, 1, 60, 71
3, 304512, Note_off_c, 1, 60, 64
3, 304512, Note_on_c, 1, 55, 70
3, 304512, Note_on_c, 1, 61, 70
3, 304896, Note_off_c, 1, 61, 64
3, 304896, Note_on_c, 1, 58, 43
3, 305280, Note_off_c, 1, 58, 64
3, 305280, Note_off_c, 1, 55, 64
3, 305280, Note_on_c, 1, 56, 45
3, 305280, Note_on_c, 1, 60, 45
3, 306048, Note_off_c, 1, 60, 64
3, 306048, Note_off_c, 1, 56, 64
3, 306048, Note_on_c, 1, 55, 49
3, 306048, Note_on_c, 1, 61, 49
3, 306432, Note_off_c, 1, 61, 64
3, 306432, Note_on_c, 1, 58, 51
3, 306816, Note_off_c, 1, 58, 64
3, 306816, Note_off_c, 1, 55, 64
3, 306816, Note_on_c, 1, 56, 53
3, 306816, Note_on_c, 1, 60, 53
3, 307584, Note_off_c, 1, 60, 64
3, 307584, Note_off_c, 1, 56, 64
3, 307584, Note_on_c, 1, 55, 57
3, 307584, Note_on_c, 1, 61, 57
3, 307968, Note_off_c, 1, 61, 64
3, 307968, Note_on_c, 1, 58, 59
3, 308352, Note_off_c, 1, 58, 64
3, 308352, Note_off_c, 1, 55, 64
3, 308352, Note_on_c, 1, 56, 61
3, 308352, Note_on_c, 1, 60, 61
3, 308736, Note_off_c, 1, 60, 64
3, 308736, Note_off_c, 1, 56, 64
3, 308736, Note_on_c, 1, 52, 62
3, 308736, Note_on_c, 1, 55, 62
3, 309120, Note_off_c, 1, 55, 64
3, 309120, Note_off_c, 1, 52, 64
3, 309120, Note_on_c, 1, 53, 64
3, 309120, Note_on_c, 1, 56, 64
3, 309504, Note_off_c, 1, 56, 64
3, 309504, Note_off_c, 1, 53, 64
3, 309504, Note_on_c, 1, 49, 66
3, 309504, Note_on_c, 1, 53, 66
3, 309888, Note_off_c, 1, 53, 64
3, 309888, Note_off_c, 1, 49, 64
3, 309888, Note_on_c, 1, 48, 64
3, 309888, Note_on_c, 1, 52, 64
3, 310080, Note_off_c, 1, 52, 64
3, 310080, Note_off_c, 1, 48, 64
3, 310272, Note_on_c, 1, 60, 54
3, 310464, Note_off_c, 1, 60, 64
3, 310656, Note_on_c, 1, 64, 54
3, 310656, Note_on_c, 1, 70, 54
3, 311040, Note_off_c, 1, 70, 64
3, 311040, Note_on_c, 1, 67, 54
3, 311424, Note_off_c, 1, 67, 64
3, 311424, Note_off_c, 1, 64, 64
3, 311424, Note_on_c, 1, 65, 54
3, 311424, Note_on_c, 1, 68, 54
3, 312192, Note_off_c, 1, 68, 64
3, 312192, Note_off_c, 1, 65, 64
3, 312192, Note_on_c, 1, 60, 55
3, 312384, Note_off_c, 1, 60, 64
3, 312576, Note_on_c, 1, 60, 56
3, 312768, Note_off_c, 1, 60, 64
3, 312960, Note_on_c, 1, 60, 56
3, 313344, Note_off_c, 1, 60, 64
3, 313344, Note_on_c, 1, 65, 56
3, 313536, Note_off_c, 1, 65, 64
3, 313728, Note_on_c, 1, 64, 57
3, 313728, Note_on_c, 1, 70, 57
3, 314112, Note_off_c, 1, 70, 64
3, 314112, Note_on_c, 1, 67, 57
3, 314496, Note_off_c, 1, 67, 64
3, 314496, Note_off_c, 1, 64, 64
3, 314496, Note_on_c, 1, 65, 57
3, 314496, Note_on_c, 1, 68, 57
3, 315264, Note_off_c, 1, 68, 64
3, 315264, Note_off_c, 1, 65, 64
3, 315264, Note_on_c, 1, 60, 58
3, 315456, Note_off_c, 1, 60, 64
3, 315648, Note_on_c, 1, 60, 58
3, 315840, Note_off_c, 1, 60, 64
3, 316032, Note_on_c, 1, 60, 30
3, 316108, Note_off_c, 1, 60, 64
3, 316108, Note_on_c, 1, 61, 36
3, 316186, Note_off_c, 1, 61, 64
3, 316186, Note_on_c, 1, 60, 42
3, 316262, Note_off_c, 1, 60, 64
3, 316262, Note_on_c, 1, 59, 47
3, 316340, Note_off_c, 1, 59, 64
3, 316340, Note_on_c, 1, 60, 53
3, 316416, Note_off_c, 1, 60, 64
3, 316416, Note_on_c, 1, 65, 58
3, 316608, Note_off_c, 1, 65, 64
3, 316800, Note_on_c, 1, 52, 59
3, 316800, Note_on_c, 1, 55, 59
3, 317184, Note_off_c, 1, 55, 64
3, 317184, Note_off_c, 1, 52, 64
3, 317184, Note_on_c, 1, 52, 60
3, 317184, Note_on_c, 1, 55, 60
3, 317568, Note_off_c, 1, 55, 64
3, 317568, Note_off_c, 1, 52, 64
3, 317568, Note_on_c, 1, 53, 60
3, 317568, Note_on_c, 1, 56, 60
3, 317952, Note_off_c, 1, 56, 64
3, 317952, Note_off_c, 1, 53, 64
3, 318336, Note_on_c, 1, 49, 61
3, 318336, Note_on_c, 1, 53, 61
3, 318720, Note_off_c, 1, 53, 64
3, 318720, Note_off_c, 1, 49, 64
3, 319104, Note_on_c, 1, 48, 54
3, 319232, Note_off_c, 1, 48, 64
3, 319232, Note_on_c, 1, 52, 54
3, 319360, Note_off_c, 1, 52, 64
3, 319360, Note_on_c, 1, 55, 54
3, 319488, Note_off_c, 1, 55, 64
3, 319488, Note_on_c, 1, 48, 54
3, 319616, Note_off_c, 1, 48, 64
3, 319616, Note_on_c, 1, 52, 54
3, 319744, Note_off_c, 1, 52, 64
3, 319744, Note_on_c, 1, 55, 54
3, 319872, Note_off_c, 1, 55, 64
3, 319872, Note_on_c, 1, 48, 54
3, 320000, Note_off_c, 1, 48, 64
3, 320000, Note_on_c, 1, 52, 54
3, 320128, Note_off_c, 1, 52, 64
3, 320128, Note_on_c, 1, 55, 54
3, 320256, Note_off_c, 1, 55, 64
3, 320256, Note_on_c, 1, 48, 54
3, 320384, Note_off_c, 1, 48, 64
3, 320384, Note_on_c, 1, 52, 59
3, 320512, Note_off_c, 1, 52, 64
3, 320512, Note_on_c, 1, 55, 61
3, 320640, Note_off_c, 1, 55, 64
3, 320640, Note_on_c, 1, 48, 63
3, 320768, Note_off_c, 1, 48, 64
3, 320768, Note_on_c, 1, 55, 65
3, 320896, Note_off_c, 1, 55, 64
3, 320896, Note_on_c, 1, 52, 67
3, 321024, Note_off_c, 1, 52, 64
3, 321024, Note_on_c, 1, 48, 69
3, 321152, Note_off_c, 1, 48, 64
3, 321152, Note_on_c, 1, 43, 71
3, 321280, Note_off_c, 1, 43, 64
3, 321280, Note_on_c, 1, 40, 75
3, 321408, Note_off_c, 1, 40, 64
3, 321408, Note_on_c, 1, 36, 76
3, 321536, Note_off_c, 1, 36, 64
3, 321536, Note_on_c, 1, 40, 76
3, 321664, Note_off_c, 1, 40, 64
3, 321664, Note_on_c, 1, 43, 77
3, 321792, Note_off_c, 1, 43, 64
3, 321792, Note_on_c, 1, 36, 77
3, 321920, Note_off_c, 1, 36, 64
3, 321920, Note_on_c, 1, 40, 77
3, 322048, Note_off_c, 1, 40, 64
3, 322048, Note_on_c, 1, 43, 78
3, 322176, Note_off_c, 1, 43, 64
3, 322176, Note_on_c, 1, 36, 78
3, 322304, Note_off_c, 1, 36, 64
3, 322304, Note_on_c, 1, 40, 80
3, 322432, Note_off_c, 1, 40, 64
3, 322432, Note_on_c, 1, 43, 78
3, 322560, Note_off_c, 1, 43, 64
3, 322560, Note_on_c, 1, 48, 75
3, 322688, Note_off_c, 1, 48, 64
3, 322688, Note_on_c, 1, 52, 72
3, 322816, Note_off_c, 1, 52, 64
3, 322816, Note_on_c, 1, 55, 69
3, 322944, Note_off_c, 1, 55, 64
3, 322944, Note_on_c, 1, 48, 64
3, 323072, Note_off_c, 1, 48, 64
3, 323072, Note_on_c, 1, 52, 64
3, 323200, Note_off_c, 1, 52, 64
3, 323200, Note_on_c, 1, 55, 64
3, 323328, Note_off_c, 1, 55, 64
3, 323328, Note_on_c, 1, 48, 64
3, 323456, Note_off_c, 1, 48, 64
3, 323456, Note_on_c, 1, 52, 64
3, 323584, Note_off_c, 1, 52, 64
3, 323584, Note_on_c, 1, 55, 64
3, 323712, Note_off_c, 1, 55, 64
3, 323712, Note_on_c, 1, 48, 64
3, 323840, Note_off_c, 1, 48, 64
3, 323840, Note_on_c, 1, 55, 64
3, 323968, Note_off_c, 1, 55, 64
3, 323968, Note_on_c, 1, 52, 66
3, 324096, Note_off_c, 1, 52, 64
3, 324096, Note_on_c, 1, 48, 68
3, 324224, Note_off_c, 1, 48, 64
3, 324224, Note_on_c, 1, 43, 70
3, 324352, Note_off_c, 1, 43, 64
3, 324352, Note_on_c, 1, 40, 73
3, 324480, Note_off_c, 1, 40, 64
3, 324480, Note_on_c, 1, 36, 73
3, 324608, Note_off_c, 1, 36, 64
3, 324608, Note_on_c, 1, 40, 73
3, 324736, Note_off_c, 1, 40, 64
3, 324736, Note_on_c, 1, 43, 74
3, 324864, Note_off_c, 1, 43, 64
3, 324864, Note_on_c, 1, 36, 74
3, 324992, Note_off_c, 1, 36, 64
3, 324992, Note_on_c, 1, 40, 74
3, 325120, Note_off_c, 1, 40, 64
3, 325120, Note_on_c, 1, 43, 75
3, 325248, Note_off_c, 1, 43, 64
3, 325248, Note_on_c, 1, 36, 75
3, 325376, Note_off_c, 1, 36, 64
3, 325376, Note_on_c, 1, 40, 76
3, 325504, Note_off_c, 1, 40, 64
3, 325504, Note_on_c, 1, 43, 76
3, 325632, Note_off_c, 1, 43, 64
3, 325632, Note_on_c, 1, 48, 76
3, 325760, Note_off_c, 1, 48, 64
3, 325760, Note_on_c, 1, 43, 77
3, 325888, Note_off_c, 1, 43, 64
3, 325888, Note_on_c, 1, 40, 77
3, 326016, Note_off_c, 1, 40, 64
3, 326016, Note_on_c, 1, 36, 77
3, 326144, Note_off_c, 1, 36, 64
3, 326144, Note_on_c, 1, 40, 78
3, 326272, Note_off_c, 1, 40, 64
3, 326272, Note_on_c, 1, 43, 78
3, 326400, Note_off_c, 1, 43, 64
3, 326400, Note_on_c, 1, 36, 78
3, 326528, Note_off_c, 1, 36, 64
3, 326528, Note_on_c, 1, 40, 79
3, 326656, Note_off_c, 1, 40, 64
3, 326656, Note_on_c, 1, 43, 79
3, 326784, Note_off_c, 1, 43, 64
3, 326784, Note_on_c, 1, 36, 79
3, 326912, Note_off_c, 1, 36, 64
3, 326912, Note_on_c, 1, 40, 80
3, 327040, Note_off_c, 1, 40, 64
3, 327040, Note_on_c, 1, 43, 80
3, 327168, Note_off_c, 1, 43, 64
3, 327168, Note_on_c, 1, 48, 80
3, 327296, Note_off_c, 1, 48, 64
3, 327296, Note_on_c, 1, 43, 81
3, 327424, Note_off_c, 1, 43, 64
3, 327424, Note_on_c, 1, 40, 81
3, 327552, Note_off_c, 1, 40, 64
3, 327552, Note_on_c, 1, 36, 81
3, 327680, Note_off_c, 1, 36, 64
3, 327680, Note_on_c, 1, 40, 82
3, 327808, Note_off_c, 1, 40, 64
3, 327808, Note_on_c, 1, 43, 82
3, 327936, Note_off_c, 1, 43, 64
3, 327936, Note_on_c, 1, 36, 83
3, 328064, Note_off_c, 1, 36, 64
3, 328064, Note_on_c, 1, 40, 83
3, 328192, Note_off_c, 1, 40, 64
3, 328192, Note_on_c, 1, 43, 83
3, 328320, Note_off_c, 1, 43, 64
3, 328320, Note_on_c, 1, 36, 84
3, 328448, Note_off_c, 1, 36, 64
3, 328448, Note_on_c, 1, 40, 84
3, 328576, Note_off_c, 1, 40, 64
3, 328576, Note_on_c, 1, 43, 84
3, 328704, Note_off_c, 1, 43, 64
3, 328704, Note_on_c, 1, 48, 85
3, 328832, Note_off_c, 1, 48, 64
3, 328832, Note_on_c, 1, 43, 85
3, 328960, Note_off_c, 1, 43, 64
3, 328960, Note_on_c, 1, 40, 85
3, 329088, Note_off_c, 1, 40, 64
3, 329088, Note_on_c, 1, 36, 86
3, 329216, Note_off_c, 1, 36, 64
3, 329216, Note_on_c, 1, 40, 86
3, 329344, Note_off_c, 1, 40, 64
3, 329344, Note_on_c, 1, 43, 86
3, 329472, Note_off_c, 1, 43, 64
3, 329472, Note_on_c, 1, 48, 87
3, 329600, Note_off_c, 1, 48, 64
3, 329600, Note_on_c, 1, 43, 87
3, 329728, Note_off_c, 1, 43, 64
3, 329728, Note_on_c, 1, 40, 87
3, 329856, Note_off_c, 1, 40, 64
3, 329856, Note_on_c, 1, 36, 88
3, 330240, Note_off_c, 1, 36, 64
3, 332288, Note_on_c, 1, 49, 82
3, 332416, Note_off_c, 1, 49, 64
3, 332416, Note_on_c, 1, 48, 81
3, 332544, Note_off_c, 1, 48, 64
3, 332544, Note_on_c, 1, 46, 80
3, 332672, Note_off_c, 1, 46, 64
3, 332672, Note_on_c, 1, 44, 79
3, 332800, Note_off_c, 1, 44, 64
3, 332800, Note_on_c, 1, 43, 78
3, 332928, Note_off_c, 1, 43, 64
3, 332928, Note_on_c, 1, 41, 77
3, 333312, Note_off_c, 1, 41, 64
3, 333312, Note_on_c, 1, 49, 75
3, 333696, Note_off_c, 1, 49, 64
3, 333696, Note_on_c, 1, 48, 75
3, 334080, Note_off_c, 1, 48, 64
3, 334080, Note_on_c, 1, 47, 75
3, 334464, Note_off_c, 1, 47, 64
3, 334464, Note_on_c, 1, 48, 75
3, 334848, Note_off_c, 1, 48, 64
3, 334848, Note_on_c, 1, 49, 75
3, 335232, Note_off_c, 1, 49, 64
3, 335232, Note_on_c, 1, 48, 75
3, 335616, Note_off_c, 1, 48, 64
3, 335616, Note_on_c, 1, 47, 75
3, 336000, Note_off_c, 1, 47, 64
3, 336000, Note_on_c, 1, 48, 75
3, 336384, Note_off_c, 1, 48, 64
3, 336384, Note_on_c, 1, 49, 75
3, 336384, Note_on_c, 1, 61, 75
3, 336768, Note_off_c, 1, 61, 64
3, 336768, Note_off_c, 1, 49, 64
3, 336768, Note_on_c, 1, 48, 76
3, 336768, Note_on_c, 1, 60, 76
3, 337152, Note_off_c, 1, 60, 64
3, 337152, Note_off_c, 1, 48, 64
3, 337152, Note_on_c, 1, 47, 76
3, 337152, Note_on_c, 1, 59, 76
3, 337536, Note_off_c, 1, 59, 64
3, 337536, Note_off_c, 1, 47, 64
3, 337536, Note_on_c, 1, 48, 76
3, 337536, Note_on_c, 1, 60, 76
3, 337920, Note_off_c, 1, 60, 64
3, 337920, Note_off_c, 1, 48, 64
3, 337920, Note_on_c, 1, 49, 76
3, 337920, Note_on_c, 1, 61, 76
3, 338304, Note_off_c, 1, 61, 64
3, 338304, Note_off_c, 1, 49, 64
3, 338304, Note_on_c, 1, 48, 76
3, 338304, Note_on_c, 1, 60, 76
3, 338688, Note_off_c, 1, 60, 64
3, 338688, Note_off_c, 1, 48, 64
3, 338688, Note_on_c, 1, 47, 76
3, 338688, Note_on_c, 1, 59, 76
3, 339072, Note_off_c, 1, 59, 64
3, 339072, Note_off_c, 1, 47, 64
3, 339072, Note_on_c, 1, 48, 76
3, 339072, Note_on_c, 1, 60, 76
3, 339456, Note_off_c, 1, 60, 64
3, 339456, Note_off_c, 1, 48, 64
3, 339456, Note_on_c, 1, 61, 76
3, 339840, Note_off_c, 1, 61, 64
3, 339840, Note_on_c, 1, 62, 76
3, 340224, Note_off_c, 1, 62, 64
3, 340224, Note_on_c, 1, 63, 77
3, 340608, Note_off_c, 1, 63, 64
3, 340608, Note_on_c, 1, 57, 77
3, 340992, Note_off_c, 1, 57, 64
3, 340992, Note_on_c, 1, 58, 77
3, 341376, Note_off_c, 1, 58, 64
3, 341376, Note_on_c, 1, 55, 77
3, 341760, Note_off_c, 1, 55, 64
3, 341760, Note_on_c, 1, 56, 77
3, 342144, Note_off_c, 1, 56, 64
3, 342144, Note_on_c, 1, 52, 77
3, 342528, Note_off_c, 1, 52, 64
3, 342528, Note_on_c, 1, 53, 77
3, 342912, Note_off_c, 1, 53, 64
3, 342912, Note_on_c, 1, 46, 77
3, 343296, Note_off_c, 1, 46, 64
3, 343296, Note_on_c, 1, 47, 77
3, 343680, Note_off_c, 1, 47, 64
3, 343680, Note_on_c, 1, 36, 78
3, 343872, Note_off_c, 1, 36, 64
3, 343872, Note_on_c, 1, 48, 78
3, 344064, Note_off_c, 1, 48, 64
3, 344064, Note_on_c, 1, 36, 78
3, 344256, Note_off_c, 1, 36, 64
3, 344256, Note_on_c, 1, 48, 78
3, 344448, Note_off_c, 1, 48, 64
3, 344448, Note_on_c, 1, 36, 78
3, 344640, Note_off_c, 1, 36, 64
3, 344640, Note_on_c, 1, 48, 78
3, 344832, Note_off_c, 1, 48, 64
3, 344832, Note_on_c, 1, 36, 78
3, 345024, Note_off_c, 1, 36, 64
3, 345024, Note_on_c, 1, 48, 78
3, 345216, Note_off_c, 1, 48, 64
3, 345216, Note_on_c, 1, 36, 78
3, 345600, Note_off_c, 1, 36, 64
3, 345600, Note_on_c, 1, 53, 78
3, 345792, Note_off_c, 1, 53, 64
3, 345792, Note_on_c, 1, 65, 78
3, 345984, Note_off_c, 1, 65, 64
3, 345984, Note_on_c, 1, 50, 78
3, 346176, Note_off_c, 1, 50, 64
3, 346176, Note_on_c, 1, 62, 78
3, 346368, Note_off_c, 1, 62, 64
3, 346368, Note_on_c, 1, 51, 78
3, 346560, Note_off_c, 1, 51, 64
3, 346560, Note_on_c, 1, 63, 78
3, 346752, Note_off_c, 1, 63, 64
3, 346752, Note_on_c, 1, 45, 78
3, 346944, Note_off_c, 1, 45, 64
3, 346944, Note_on_c, 1, 57, 79
3, 347136, Note_off_c, 1, 57, 64
3, 347136, Note_on_c, 1, 46, 79
3, 347328, Note_off_c, 1, 46, 64
3, 347328, Note_on_c, 1, 58, 79
3, 347520, Note_off_c, 1, 58, 64
3, 347520, Note_on_c, 1, 43, 79
3, 347712, Note_off_c, 1, 43, 64
3, 347712, Note_on_c, 1, 55, 79
3, 347904, Note_off_c, 1, 55, 64
3, 347904, Note_on_c, 1, 44, 77
3, 348096, Note_off_c, 1, 44, 64
3, 348096, Note_on_c, 1, 56, 76
3, 348288, Note_off_c, 1, 56, 64
3, 348288, Note_on_c, 1, 40, 74
3, 348480, Note_off_c, 1, 40, 64
3, 348480, Note_on_c, 1, 52, 73
3, 348672, Note_off_c, 1, 52, 64
3, 348672, Note_on_c, 1, 41, 71
3, 348864, Note_off_c, 1, 41, 64
3, 348864, Note_on_c, 1, 53, 69
3, 349056, Note_off_c, 1, 53, 64
3, 349056, Note_on_c, 1, 34, 68
3, 349248, Note_off_c, 1, 34, 64
3, 349248, Note_on_c, 1, 46, 66
3, 349440, Note_off_c, 1, 46, 64
3, 349440, Note_on_c, 1, 35, 64
3, 349632, Note_off_c, 1, 35, 64
3, 349632, Note_on_c, 1, 47, 63
3, 349824, Note_off_c, 1, 47, 64
3, 349824, Note_on_c, 1, 36, 61
3, 350016, Note_off_c, 1, 36, 64
3, 350016, Note_on_c, 1, 48, 59
3, 350208, Note_off_c, 1, 48, 64
3, 350208, Note_on_c, 1, 36, 58
3, 350400, Note_off_c, 1, 36, 64
3, 350400, Note_on_c, 1, 48, 56
3, 350592, Note_off_c, 1, 48, 64
3, 350592, Note_on_c, 1, 36, 55
3, 350784, Note_off_c, 1, 36, 64
3, 350784, Note_on_c, 1, 48, 53
3, 350976, Note_off_c, 1, 48, 64
3, 350976, Note_on_c, 1, 36, 51
3, 351168, Note_off_c, 1, 36, 64
3, 351168, Note_on_c, 1, 48, 50
3, 351360, Note_off_c, 1, 48, 64
3, 351360, Note_on_c, 1, 41, 43
3, 351488, Note_off_c, 1, 41, 64
3, 351488, Note_on_c, 1, 44, 43
3, 351616, Note_off_c, 1, 44, 64
3, 351616, Note_on_c, 1, 48, 43
3, 351744, Note_off_c, 1, 48, 64
3, 351744, Note_on_c, 1, 41, 46
3, 351872, Note_off_c, 1, 41, 64
3, 351872, Note_on_c, 1, 44, 45
3, 352000, Note_off_c, 1, 44, 64
3, 352000, Note_on_c, 1, 48, 47
3, 352128, Note_off_c, 1, 48, 64
3, 352128, Note_on_c, 1, 41, 45
3, 352256, Note_off_c, 1, 41, 64
3, 352256, Note_on_c, 1, 44, 46
3, 352384, Note_off_c, 1, 44, 64
3, 352384, Note_on_c, 1, 49, 46
3, 352512, Note_off_c, 1, 49, 64
3, 352512, Note_on_c, 1, 41, 47
3, 352640, Note_off_c, 1, 41, 64
3, 352640, Note_on_c, 1, 44, 48
3, 352768, Note_off_c, 1, 44, 64
3, 352768, Note_on_c, 1, 49, 44
3, 352896, Note_off_c, 1, 49, 64
3, 352896, Note_on_c, 1, 43, 46
3, 353024, Note_off_c, 1, 43, 64
3, 353024, Note_on_c, 1, 46, 43
3, 353152, Note_off_c, 1, 46, 64
3, 353152, Note_on_c, 1, 49, 45
3, 353280, Note_off_c, 1, 49, 64
3, 353280, Note_on_c, 1, 43, 42
3, 353408, Note_off_c, 1, 43, 64
3, 353408, Note_on_c, 1, 46, 48
3, 353536, Note_off_c, 1, 46, 64
3, 353536, Note_on_c, 1, 49, 48
3, 353664, Note_off_c, 1, 49, 64
3, 353664, Note_on_c, 1, 43, 43
3, 353792, Note_off_c, 1, 43, 64
3, 353792, Note_on_c, 1, 46, 44
3, 353920, Note_off_c, 1, 46, 64
3, 353920, Note_on_c, 1, 51, 43
3, 354048, Note_off_c, 1, 51, 64
3, 354048, Note_on_c, 1, 43, 48
3, 354176, Note_off_c, 1, 43, 64
3, 354176, Note_on_c, 1, 46, 46
3, 354304, Note_off_c, 1, 46, 64
3, 354304, Note_on_c, 1, 51, 42
3, 354432, Note_off_c, 1, 51, 64
3, 354432, Note_on_c, 1, 44, 47
3, 354560, Note_off_c, 1, 44, 64
3, 354560, Note_on_c, 1, 48, 42
3, 354688, Note_off_c, 1, 48, 64
3, 354688, Note_on_c, 1, 51, 43
3, 354816, Note_off_c, 1, 51, 64
3, 354816, Note_on_c, 1, 44, 43
3, 354944, Note_off_c, 1, 44, 64
3, 354944, Note_on_c, 1, 48, 48
3, 355072, Note_off_c, 1, 48, 64
3, 355072, Note_on_c, 1, 51, 44
3, 355200, Note_off_c, 1, 51, 64
3, 355200, Note_on_c, 1, 45, 44
3, 355328, Note_off_c, 1, 45, 64
3, 355328, Note_on_c, 1, 48, 48
3, 355456, Note_off_c, 1, 48, 64
3, 355456, Note_on_c, 1, 53, 48
3, 355584, Note_off_c, 1, 53, 64
3, 355584, Note_on_c, 1, 45, 48
3, 355712, Note_off_c, 1, 45, 64
3, 355712, Note_on_c, 1, 48, 47
3, 355840, Note_off_c, 1, 48, 64
3, 355840, Note_on_c, 1, 53, 43
3, 355968, Note_off_c, 1, 53, 64
3, 355968, Note_on_c, 1, 46, 45
3, 356096, Note_off_c, 1, 46, 64
3, 356096, Note_on_c, 1, 49, 46
3, 356224, Note_off_c, 1, 49, 64
3, 356224, Note_on_c, 1, 53, 44
3, 356352, Note_off_c, 1, 53, 64
3, 356352, Note_on_c, 1, 46, 46
3, 356480, Note_off_c, 1, 46, 64
3, 356480, Note_on_c, 1, 49, 42
3, 356608, Note_off_c, 1, 49, 64
3, 356608, Note_on_c, 1, 53, 42
3, 356736, Note_off_c, 1, 53, 64
3, 356736, Note_on_c, 1, 46, 47
3, 356864, Note_off_c, 1, 46, 64
3, 356864, Note_on_c, 1, 49, 44
3, 356992, Note_off_c, 1, 49, 64
3, 356992, Note_on_c, 1, 55, 43
3, 357120, Note_off_c, 1, 55, 64
3, 357120, Note_on_c, 1, 46, 43
3, 357248, Note_off_c, 1, 46, 64
3, 357248, Note_on_c, 1, 49, 42
3, 357376, Note_off_c, 1, 49, 64
3, 357376, Note_on_c, 1, 55, 42
3, 357504, Note_off_c, 1, 55, 64
3, 357504, Note_on_c, 1, 48, 48
3, 357632, Note_off_c, 1, 48, 64
3, 357632, Note_on_c, 1, 51, 45
3, 357760, Note_off_c, 1, 51, 64
3, 357760, Note_on_c, 1, 56, 43
3, 357888, Note_off_c, 1, 56, 64
3, 357888, Note_on_c, 1, 48, 46
3, 358016, Note_off_c, 1, 48, 64
3, 358016, Note_on_c, 1, 51, 42
3, 358144, Note_off_c, 1, 51, 64
3, 358144, Note_on_c, 1, 56, 45
3, 358272, Note_off_c, 1, 56, 64
3, 358272, Note_on_c, 1, 48, 48
3, 358400, Note_off_c, 1, 48, 64
3, 358400, Note_on_c, 1, 51, 48
3, 358528, Note_off_c, 1, 51, 64
3, 358528, Note_on_c, 1, 57, 47
3, 358656, Note_off_c, 1, 57, 64
3, 358656, Note_on_c, 1, 48, 42
3, 358784, Note_off_c, 1, 48, 64
3, 358784, Note_on_c, 1, 51, 42
3, 358912, Note_off_c, 1, 51, 64
3, 358912, Note_on_c, 1, 57, 46
3, 359040, Note_off_c, 1, 57, 64
3, 359040, Note_on_c, 1, 49, 43
3, 359168, Note_off_c, 1, 49, 64
3, 359168, Note_on_c, 1, 53, 42
3, 359296, Note_off_c, 1, 53, 64
3, 359296, Note_on_c, 1, 58, 46
3, 359424, Note_off_c, 1, 58, 64
3, 359424, Note_on_c, 1, 49, 48
3, 359552, Note_off_c, 1, 49, 64
3, 359552, Note_on_c, 1, 53, 42
3, 359680, Note_off_c, 1, 53, 64
3, 359680, Note_on_c, 1, 58, 47
3, 359808, Note_off_c, 1, 58, 64
3, 359808, Note_on_c, 1, 50, 43
3, 359936, Note_off_c, 1, 50, 64
3, 359936, Note_on_c, 1, 53, 48
3, 360064, Note_off_c, 1, 53, 64
3, 360064, Note_on_c, 1, 59, 48
3, 360192, Note_off_c, 1, 59, 64
3, 360192, Note_on_c, 1, 50, 48
3, 360320, Note_off_c, 1, 50, 64
3, 360320, Note_on_c, 1, 53, 44
3, 360448, Note_off_c, 1, 53, 64
3, 360448, Note_on_c, 1, 59, 45
3, 360576, Note_off_c, 1, 59, 64
3, 360576, Note_on_c, 1, 48, 46
3, 360704, Note_off_c, 1, 48, 64
3, 360704, Note_on_c, 1, 53, 42
3, 360832, Note_off_c, 1, 53, 64
3, 360832, Note_on_c, 1, 56, 46
3, 360960, Note_off_c, 1, 56, 64
3, 360960, Note_on_c, 1, 48, 42
3, 361088, Note_off_c, 1, 48, 64
3, 361088, Note_on_c, 1, 53, 44
3, 361216, Note_off_c, 1, 53, 64
3, 361216, Note_on_c, 1, 56, 42
3, 361344, Note_off_c, 1, 56, 64
3, 361344, Note_on_c, 1, 48, 48
3, 361472, Note_off_c, 1, 48, 64
3, 361472, Note_on_c, 1, 53, 46
3, 361600, Note_off_c, 1, 53, 64
3, 361600, Note_on_c, 1, 56, 44
3, 361728, Note_off_c, 1, 56, 64
3, 361728, Note_on_c, 1, 48, 48
3, 361856, Note_off_c, 1, 48, 64
3, 361856, Note_on_c, 1, 53, 45
3, 361984, Note_off_c, 1, 53, 64
3, 361984, Note_on_c, 1, 56, 48
3, 362112, Note_off_c, 1, 56, 64
3, 362112, Note_on_c, 1, 48, 44
3, 362240, Note_off_c, 1, 48, 64
3, 362240, Note_on_c, 1, 52, 42
3, 362368, Note_off_c, 1, 52, 64
3, 362368, Note_on_c, 1, 55, 43
3, 362496, Note_off_c, 1, 55, 64
3, 362496, Note_on_c, 1, 48, 45
3, 362624, Note_off_c, 1, 48, 64
3, 362624, Note_on_c, 1, 52, 44
3, 362752, Note_off_c, 1, 52, 64
3, 362752, Note_on_c, 1, 55, 48
3, 362880, Note_off_c, 1, 55, 64
3, 362880, Note_on_c, 1, 48, 43
3, 363008, Note_off_c, 1, 48, 64
3, 363008, Note_on_c, 1, 52, 42
3, 363136, Note_off_c, 1, 52, 64
3, 363136, Note_on_c, 1, 55, 46
3, 363264, Note_off_c, 1, 55, 64
3, 363264, Note_on_c, 1, 48, 47
3, 363392, Note_off_c, 1, 48, 64
3, 363392, Note_on_c, 1, 52, 46
3, 363520, Note_off_c, 1, 52, 64
3, 363520, Note_on_c, 1, 55, 45
3, 363648, Note_off_c, 1, 55, 64
3, 363648, Note_on_c, 1, 41, 43
3, 363776, Note_off_c, 1, 41, 64
3, 363776, Note_on_c, 1, 44, 44
3, 363904, Note_off_c, 1, 44, 64
3, 363904, Note_on_c, 1, 48, 42
3, 364032, Note_off_c, 1, 48, 64
3, 364032, Note_on_c, 1, 41, 46
3, 364160, Note_off_c, 1, 41, 64
3, 364160, Note_on_c, 1, 44, 43
3, 364288, Note_off_c, 1, 44, 64
3, 364288, Note_on_c, 1, 48, 43
3, 364416, Note_off_c, 1, 48, 64
3, 364416, Note_on_c, 1, 41, 45
3, 364544, Note_off_c, 1, 41, 64
3, 364544, Note_on_c, 1, 44, 47
3, 364672, Note_off_c, 1, 44, 64
3, 364672, Note_on_c, 1, 49, 42
3, 364800, Note_off_c, 1, 49, 64
3, 364800, Note_on_c, 1, 41, 45
3, 364928, Note_off_c, 1, 41, 64
3, 364928, Note_on_c, 1, 44, 43
3, 365056, Note_off_c, 1, 44, 64
3, 365056, Note_on_c, 1, 49, 43
3, 365184, Note_off_c, 1, 49, 64
3, 365184, Note_on_c, 1, 43, 42
3, 365312, Note_off_c, 1, 43, 64
3, 365312, Note_on_c, 1, 46, 48
3, 365440, Note_off_c, 1, 46, 64
3, 365440, Note_on_c, 1, 49, 44
3, 365568, Note_off_c, 1, 49, 64
3, 365568, Note_on_c, 1, 43, 44
3, 365696, Note_off_c, 1, 43, 64
3, 365696, Note_on_c, 1, 46, 47
3, 365824, Note_off_c, 1, 46, 64
3, 365824, Note_on_c, 1, 49, 47
3, 365952, Note_off_c, 1, 49, 64
3, 365952, Note_on_c, 1, 43, 44
3, 366080, Note_off_c, 1, 43, 64
3, 366080, Note_on_c, 1, 46, 46
3, 366208, Note_off_c, 1, 46, 64
3, 366208, Note_on_c, 1, 51, 45
3, 366336, Note_off_c, 1, 51, 64
3, 366336, Note_on_c, 1, 43, 43
3, 366464, Note_off_c, 1, 43, 64
3, 366464, Note_on_c, 1, 46, 46
3, 366592, Note_off_c, 1, 46, 64
3, 366592, Note_on_c, 1, 51, 42
3, 366720, Note_off_c, 1, 51, 64
3, 366720, Note_on_c, 1, 44, 47
3, 366848, Note_off_c, 1, 44, 64
3, 366848, Note_on_c, 1, 48, 48
3, 366976, Note_off_c, 1, 48, 64
3, 366976, Note_on_c, 1, 51, 42
3, 367104, Note_off_c, 1, 51, 64
3, 367104, Note_on_c, 1, 44, 43
3, 367232, Note_off_c, 1, 44, 64
3, 367232, Note_on_c, 1, 48, 46
3, 367360, Note_off_c, 1, 48, 64
3, 367360, Note_on_c, 1, 51, 46
3, 367488, Note_off_c, 1, 51, 64
3, 367488, Note_on_c, 1, 45, 48
3, 367616, Note_off_c, 1, 45, 64
3, 367616, Note_on_c, 1, 48, 44
3, 367744, Note_off_c, 1, 48, 64
3, 367744, Note_on_c, 1, 53, 42
3, 367872, Note_off_c, 1, 53, 64
3, 367872, Note_on_c, 1, 45, 46
3, 368000, Note_off_c, 1, 45, 64
3, 368000, Note_on_c, 1, 48, 44
3, 368128, Note_off_c, 1, 48, 64
3, 368128, Note_on_c, 1, 53, 43
3, 368256, Note_off_c, 1, 53, 64
3, 368256, Note_on_c, 1, 46, 45
3, 368384, Note_off_c, 1, 46, 64
3, 368384, Note_on_c, 1, 49, 43
3, 368512, Note_off_c, 1, 49, 64
3, 368512, Note_on_c, 1, 53, 45
3, 368640, Note_off_c, 1, 53, 64
3, 368640, Note_on_c, 1, 46, 44
3, 368768, Note_off_c, 1, 46, 64
3, 368768, Note_on_c, 1, 49, 47
3, 368896, Note_off_c, 1, 49, 64
3, 368896, Note_on_c, 1, 53, 47
3, 369024, Note_off_c, 1, 53, 64
3, 369024, Note_on_c, 1, 46, 45
3, 369152, Note_off_c, 1, 46, 64
3, 369152, Note_on_c, 1, 49, 42
3, 369280, Note_off_c, 1, 49, 64
3, 369280, Note_on_c, 1, 55, 48
3, 369408, Note_off_c, 1, 55, 64
3, 369408, Note_on_c, 1, 46, 45
3, 369536, Note_off_c, 1, 46, 64
3, 369536, Note_on_c, 1, 49, 43
3, 369664, Note_off_c, 1, 49, 64
3, 369664, Note_on_c, 1, 55, 44
3, 369792, Note_off_c, 1, 55, 64
3, 369792, Note_on_c, 1, 48, 42
3, 369920, Note_off_c, 1, 48, 64
3, 369920, Note_on_c, 1, 51, 44
3, 370048, Note_off_c, 1, 51, 64
3, 370048, Note_on_c, 1, 56, 45
3, 370176, Note_off_c, 1, 56, 64
3, 370176, Note_on_c, 1, 48, 46
3, 370304, Note_off_c, 1, 48, 64
3, 370304, Note_on_c, 1, 51, 46
3, 370432, Note_off_c, 1, 51, 64
3, 370432, Note_on_c, 1, 56, 47
3, 370560, Note_off_c, 1, 56, 64
3, 370560, Note_on_c, 1, 48, 42
3, 370688, Note_off_c, 1, 48, 64
3, 370688, Note_on_c, 1, 51, 46
3, 370816, Note_off_c, 1, 51, 64
3, 370816, Note_on_c, 1, 57, 43
3, 370944, Note_off_c, 1, 57, 64
3, 370944, Note_on_c, 1, 48, 44
3, 371072, Note_off_c, 1, 48, 64
3, 371072, Note_on_c, 1, 51, 42
3, 371200, Note_off_c, 1, 51, 64
3, 371200, Note_on_c, 1, 57, 44
3, 371328, Note_off_c, 1, 57, 64
3, 371328, Note_on_c, 1, 49, 41
3, 371456, Note_off_c, 1, 49, 64
3, 371456, Note_on_c, 1, 53, 41
3, 371584, Note_off_c, 1, 53, 64
3, 371584, Note_on_c, 1, 58, 42
3, 371712, Note_off_c, 1, 58, 64
3, 371712, Note_on_c, 1, 49, 43
3, 371840, Note_off_c, 1, 49, 64
3, 371840, Note_on_c, 1, 53, 43
3, 371968, Note_off_c, 1, 53, 64
3, 371968, Note_on_c, 1, 58, 44
3, 372096, Note_off_c, 1, 58, 64
3, 372096, Note_on_c, 1, 50, 44
3, 372224, Note_off_c, 1, 50, 64
3, 372224, Note_on_c, 1, 53, 45
3, 372352, Note_off_c, 1, 53, 64
3, 372352, Note_on_c, 1, 59, 46
3, 372480, Note_off_c, 1, 59, 64
3, 372480, Note_on_c, 1, 50, 46
3, 372608, Note_off_c, 1, 50, 64
3, 372608, Note_on_c, 1, 53, 47
3, 372736, Note_off_c, 1, 53, 64
3, 372736, Note_on_c, 1, 59, 48
3, 372864, Note_off_c, 1, 59, 64
3, 372864, Note_on_c, 1, 48, 48
3, 372992, Note_off_c, 1, 48, 64
3, 372992, Note_on_c, 1, 53, 49
3, 373120, Note_off_c, 1, 53, 64
3, 373120, Note_on_c, 1, 56, 50
3, 373248, Note_off_c, 1, 56, 64
3, 373248, Note_on_c, 1, 48, 50
3, 373376, Note_off_c, 1, 48, 64
3, 373376, Note_on_c, 1, 53, 51
3, 373504, Note_off_c, 1, 53, 64
3, 373504, Note_on_c, 1, 56, 51
3, 373632, Note_off_c, 1, 56, 64
3, 373632, Note_on_c, 1, 48, 52
3, 373760, Note_off_c, 1, 48, 64
3, 373760, Note_on_c, 1, 53, 53
3, 373888, Note_off_c, 1, 53, 64
3, 373888, Note_on_c, 1, 56, 53
3, 374016, Note_off_c, 1, 56, 64
3, 374016, Note_on_c, 1, 48, 54
3, 374144, Note_off_c, 1, 48, 64
3, 374144, Note_on_c, 1, 53, 55
3, 374272, Note_off_c, 1, 53, 64
3, 374272, Note_on_c, 1, 56, 55
3, 374400, Note_off_c, 1, 56, 64
3, 374400, Note_on_c, 1, 48, 56
3, 374528, Note_off_c, 1, 48, 64
3, 374528, Note_on_c, 1, 52, 57
3, 374656, Note_off_c, 1, 52, 64
3, 374656, Note_on_c, 1, 55, 57
3, 374784, Note_off_c, 1, 55, 64
3, 374784, Note_on_c, 1, 48, 58
3, 374912, Note_off_c, 1, 48, 64
3, 374912, Note_on_c, 1, 52, 58
3, 375040, Note_off_c, 1, 52, 64
3, 375040, Note_on_c, 1, 55, 59
3, 375168, Note_off_c, 1, 55, 64
3, 375168, Note_on_c, 1, 48, 60
3, 375296, Note_off_c, 1, 48, 64
3, 375296, Note_on_c, 1, 52, 60
3, 375424, Note_off_c, 1, 52, 64
3, 375424, Note_on_c, 1, 55, 61
3, 375552, Note_off_c, 1, 55, 64
3, 375552, Note_on_c, 1, 48, 62
3, 375680, Note_off_c, 1, 48, 64
3, 375680, Note_on_c, 1, 52, 62
3, 375808, Note_off_c, 1, 52, 64
3, 375808, Note_on_c, 1, 55, 69
3, 375936, Note_off_c, 1, 55, 64
3, 375936, Note_on_c, 1, 41, 73
3, 375936, Note_on_c, 1, 53, 73
3, 376320, Note_off_c, 1, 53, 64
3, 376320, Note_off_c, 1, 41, 64
3, 376704, Note_on_c, 1, 65, 73
3, 376704, Note_on_c, 1, 68, 73
3, 376704, Note_on_c, 1, 72, 73
3, 377088, Note_off_c, 1, 72, 64
3, 377088, Note_off_c, 1, 68, 64
3, 377088, Note_off_c, 1, 65, 64
3, 377088, Note_on_c, 1, 65, 74
3, 377088, Note_on_c, 1, 70, 74
3, 377088, Note_on_c, 1, 73, 74
3, 377472, Note_off_c, 1, 73, 64
3, 377472, Note_off_c, 1, 70, 64
3, 377472, Note_off_c, 1, 65, 64
3, 377472, Note_on_c, 1, 65, 74
3, 377472, Note_on_c, 1, 68, 74
3, 377472, Note_on_c, 1, 72, 74
3, 377856, Note_off_c, 1, 72, 64
3, 377856, Note_off_c, 1, 68, 64
3, 377856, Note_off_c, 1, 65, 64
3, 378240, Note_on_c, 1, 53, 75
3, 378240, Note_on_c, 1, 56, 75
3, 378240, Note_on_c, 1, 60, 75
3, 378624, Note_off_c, 1, 60, 64
3, 378624, Note_off_c, 1, 56, 64
3, 378624, Note_off_c, 1, 53, 64
3, 378624, Note_on_c, 1, 48, 75
3, 378624, Note_on_c, 1, 55, 75
3, 378624, Note_on_c, 1, 60, 75
3, 379008, Note_off_c, 1, 60, 64
3, 379008, Note_off_c, 1, 55, 64
3, 379008, Note_off_c, 1, 48, 64
3, 379008, Note_on_c, 1, 53, 76
3, 379008, Note_on_c, 1, 56, 76
3, 379008, Note_on_c, 1, 60, 76
3, 379392, Note_off_c, 1, 60, 64
3, 379392, Note_off_c, 1, 56, 64
3, 379392, Note_off_c, 1, 53, 64
3, 379776, Note_on_c, 1, 65, 77
3, 379776, Note_on_c, 1, 68, 77
3, 379776, Note_on_c, 1, 72, 77
3, 380160, Note_off_c, 1, 72, 64
3, 380160, Note_off_c, 1, 68, 64
3, 380160, Note_off_c, 1, 65, 64
3, 380160, Note_on_c, 1, 65, 77
3, 380160, Note_on_c, 1, 70, 77
3, 380160, Note_on_c, 1, 73, 77
3, 380544, Note_off_c, 1, 73, 64
3, 380544, Note_off_c, 1, 70, 64
3, 380544, Note_off_c, 1, 65, 64
3, 380544, Note_on_c, 1, 65, 77
3, 380544, Note_on_c, 1, 68, 77
3, 380544, Note_on_c, 1, 72, 77
3, 380928, Note_off_c, 1, 72, 64
3, 380928, Note_off_c, 1, 68, 64
3, 380928, Note_off_c, 1, 65, 64
3, 381312, Note_on_c, 1, 53, 78
3, 381312, Note_on_c, 1, 56, 78
3, 381312, Note_on_c, 1, 60, 78
3, 381696, Note_off_c, 1, 60, 64
3, 381696, Note_off_c, 1, 56, 64
3, 381696, Note_off_c, 1, 53, 64
3, 381696, Note_on_c, 1, 48, 79
3, 381696, Note_on_c, 1, 55, 79
3, 381696, Note_on_c, 1, 60, 79
3, 382080, Note_off_c, 1, 60, 64
3, 382080, Note_off_c, 1, 55, 64
3, 382080, Note_off_c, 1, 48, 64
3, 382080, Note_on_c, 1, 53, 79
3, 382080, Note_on_c, 1, 56, 79
3, 382080, Note_on_c, 1, 60, 79
3, 382464, Note_off_c, 1, 60, 64
3, 382464, Note_off_c, 1, 56, 64
3, 382464, Note_off_c, 1, 53, 64
3, 382848, Note_on_c, 1, 53, 80
3, 382848, Note_on_c, 1, 56, 80
3, 382848, Note_on_c, 1, 60, 80
3, 383232, Note_off_c, 1, 60, 64
3, 383232, Note_off_c, 1, 56, 64
3, 383232, Note_off_c, 1, 53, 64
3, 383232, Note_on_c, 1, 53, 81
3, 383232, Note_on_c, 1, 58, 81
3, 383232, Note_on_c, 1, 61, 81
3, 383616, Note_off_c, 1, 61, 64
3, 383616, Note_off_c, 1, 58, 64
3, 383616, Note_off_c, 1, 53, 64
3, 383616, Note_on_c, 1, 53, 82
3, 383616, Note_on_c, 1, 56, 82
3, 383616, Note_on_c, 1, 60, 82
3, 384000, Note_off_c, 1, 60, 64
3, 384000, Note_off_c, 1, 56, 64
3, 384000, Note_off_c, 1, 53, 64
3, 384384, Note_on_c, 1, 53, 84
3, 384384, Note_on_c, 1, 56, 84
3, 384384, Note_on_c, 1, 60, 84
3, 384768, Note_off_c, 1, 60, 64
3, 384768, Note_off_c, 1, 56, 64
3, 384768, Note_off_c, 1, 53, 64
3, 384768, Note_on_c, 1, 53, 85
3, 384768, Note_on_c, 1, 58, 85
3, 384768, Note_on_c, 1, 61, 85
3, 385152, Note_off_c, 1, 61, 64
3, 385152, Note_off_c, 1, 58, 64
3, 385152, Note_off_c, 1, 53, 64
3, 385152, Note_on_c, 1, 53, 86
3, 385152, Note_on_c, 1, 56, 86
3, 385152, Note_on_c, 1, 60, 86
3, 385536, Note_off_c, 1, 60, 64
3, 385536, Note_off_c, 1, 56, 64
3, 385536, Note_off_c, 1, 53, 64
3, 386304, Note_on_c, 1, 53, 88
3, 386432, Note_off_c, 1, 53, 64
3, 386432, Note_on_c, 1, 48, 89
3, 386560, Note_off_c, 1, 48, 64
3, 386560, Note_on_c, 1, 44, 89
3, 386688, Note_off_c, 1, 44, 64
3, 386688, Note_on_c, 1, 41, 89
3, 387072, Note_off_c, 1, 41, 64
3, 388608, Note_on_c, 1, 56, 18
3, 388608, Note_on_c, 1, 60, 18
3, 388992, Note_off_c, 1, 60, 64
3, 388992, Note_off_c, 1, 56, 64
3, 388992, Note_on_c, 1, 56, 18
3, 388992, Note_on_c, 1, 60, 18
3, 389376, Note_off_c, 1, 60, 64
3, 389376, Note_off_c, 1, 56, 64
3, 389376, Note_on_c, 1, 56, 18
3, 389376, Note_on_c, 1, 60, 18
3, 389760, Note_off_c, 1, 60, 64
3, 389760, Note_off_c, 1, 56, 64
3, 390144, Note_on_c, 1, 56, 18
3, 390144, Note_on_c, 1, 60, 18
3, 390144, Note_on_c, 1, 63, 18
3, 390528, Note_off_c, 1, 63, 64
3, 390528, Note_off_c, 1, 60, 64
3, 390528, Note_off_c, 1, 56, 64
3, 390528, Note_on_c, 1, 56, 18
3, 390528, Note_on_c, 1, 60, 18
3, 390528, Note_on_c, 1, 63, 18
3, 390912, Note_off_c, 1, 63, 64
3, 390912, Note_off_c, 1, 60, 64
3, 390912, Note_off_c, 1, 56, 64
3, 390912, Note_on_c, 1, 56, 18
3, 390912, Note_on_c, 1, 60, 18
3, 390912, Note_on_c, 1, 63, 18
3, 391296, Note_off_c, 1, 63, 64
3, 391296, Note_off_c, 1, 60, 64
3, 391296, Note_off_c, 1, 56, 64
3, 391680, Note_on_c, 1, 55, 18
3, 391680, Note_on_c, 1, 58, 18
3, 391680, Note_on_c, 1, 63, 18
3, 392064, Note_off_c, 1, 63, 64
3, 392064, Note_off_c, 1, 58, 64
3, 392064, Note_off_c, 1, 55, 64
3, 392064, Note_on_c, 1, 55, 18
3, 392064, Note_on_c, 1, 58, 18
3, 392064, Note_on_c, 1, 63, 18
3, 392448, Note_off_c, 1, 63, 64
3, 392448, Note_off_c, 1, 58, 64
3, 392448, Note_off_c, 1, 55, 64
3, 392448, Note_on_c, 1, 55, 18
3, 392448, Note_on_c, 1, 58, 18
3, 392448, Note_on_c, 1, 63, 18
3, 392832, Note_off_c, 1, 63, 64
3, 392832, Note_off_c, 1, 58, 64
3, 392832, Note_off_c, 1, 55, 64
3, 393216, Note_on_c, 1, 55, 18
3, 393216, Note_on_c, 1, 58, 18
3, 393216, Note_on_c, 1, 63, 18
3, 393600, Note_off_c, 1, 63, 64
3, 393600, Note_off_c, 1, 58, 64
3, 393600, Note_off_c, 1, 55, 64
3, 393600, Note_on_c, 1, 55, 18
3, 393600, Note_on_c, 1, 58, 18
3, 393600, Note_on_c, 1, 63, 18
3, 393984, Note_off_c, 1, 63, 64
3, 393984, Note_off_c, 1, 58, 64
3, 393984, Note_off_c, 1, 55, 64
3, 393984, Note_on_c, 1, 55, 18
3, 393984, Note_on_c, 1, 58, 18
3, 393984, Note_on_c, 1, 63, 18
3, 394368, Note_off_c, 1, 63, 64
3, 394368, Note_off_c, 1, 58, 64
3, 394368, Note_off_c, 1, 55, 64
3, 394752, Note_on_c, 1, 53, 18
3, 394752, Note_on_c, 1, 56, 18
3, 394752, Note_on_c, 1, 61, 18
3, 395136, Note_off_c, 1, 61, 64
3, 395136, Note_off_c, 1, 56, 64
3, 395136, Note_off_c, 1, 53, 64
3, 395136, Note_on_c, 1, 53, 18
3, 395136, Note_on_c, 1, 56, 18
3, 395136, Note_on_c, 1, 61, 18
3, 395520, Note_off_c, 1, 61, 64
3, 395520, Note_off_c, 1, 56, 64
3, 395520, Note_off_c, 1, 53, 64
3, 395520, Note_on_c, 1, 53, 18
3, 395520, Note_on_c, 1, 56, 18
3, 395520, Note_on_c, 1, 61, 18
3, 395904, Note_off_c, 1, 61, 64
3, 395904, Note_off_c, 1, 56, 64
3, 395904, Note_off_c, 1, 53, 64
3, 396288, Note_on_c, 1, 51, 18
3, 396288, Note_on_c, 1, 56, 18
3, 396288, Note_on_c, 1, 60, 18
3, 396672, Note_off_c, 1, 60, 64
3, 396672, Note_off_c, 1, 56, 64
3, 396672, Note_off_c, 1, 51, 64
3, 396672, Note_on_c, 1, 51, 18
3, 396672, Note_on_c, 1, 56, 18
3, 396672, Note_on_c, 1, 60, 18
3, 397056, Note_off_c, 1, 60, 64
3, 397056, Note_off_c, 1, 56, 64
3, 397056, Note_off_c, 1, 51, 64
3, 397056, Note_on_c, 1, 51, 18
3, 397056, Note_on_c, 1, 56, 18
3, 397056, Note_on_c, 1, 60, 18
3, 397440, Note_off_c, 1, 60, 64
3, 397440, Note_off_c, 1, 56, 64
3, 397440, Note_off_c, 1, 51, 64
3, 397824, Note_on_c, 1, 49, 18
3, 397824, Note_on_c, 1, 53, 18
3, 397824, Note_on_c, 1, 58, 18
3, 398208, Note_off_c, 1, 58, 64
3, 398208, Note_off_c, 1, 53, 64
3, 398208, Note_off_c, 1, 49, 64
3, 398208, Note_on_c, 1, 49, 18
3, 398208, Note_on_c, 1, 53, 18
3, 398208, Note_on_c, 1, 58, 18
3, 398592, Note_off_c, 1, 58, 64
3, 398592, Note_off_c, 1, 53, 64
3, 398592, Note_off_c, 1, 49, 64
3, 398592, Note_on_c, 1, 49, 18
3, 398592, Note_on_c, 1, 53, 18
3, 398592, Note_on_c, 1, 58, 18
3, 398976, Note_off_c, 1, 58, 64
3, 398976, Note_off_c, 1, 53, 64
3, 398976, Note_off_c, 1, 49, 64
3, 399360, Note_on_c, 1, 51, 18
3, 399360, Note_on_c, 1, 60, 18
3, 399744, Note_off_c, 1, 60, 64
3, 399744, Note_off_c, 1, 51, 64
3, 399744, Note_on_c, 1, 51, 18
3, 399744, Note_on_c, 1, 61, 18
3, 400128, Note_off_c, 1, 61, 64
3, 400128, Note_off_c, 1, 51, 64
3, 400128, Note_on_c, 1, 51, 18
3, 400128, Note_on_c, 1, 61, 18
3, 400512, Note_off_c, 1, 61, 64
3, 400512, Note_off_c, 1, 51, 64
3, 400896, Note_on_c, 1, 56, 18
3, 400896, Note_on_c, 1, 61, 18
3, 401280, Note_off_c, 1, 61, 64
3, 401280, Note_off_c, 1, 56, 64
3, 401280, Note_on_c, 1, 56, 18
3, 401280, Note_on_c, 1, 61, 18
3, 401664, Note_off_c, 1, 61, 64
3, 401664, Note_off_c, 1, 56, 64
3, 401664, Note_on_c, 1, 56, 18
3, 401664, Note_on_c, 1, 61, 18
3, 402048, Note_off_c, 1, 61, 64
3, 402048, Note_off_c, 1, 56, 64
3, 402432, Note_on_c, 1, 56, 18
3, 402816, Note_off_c, 1, 56, 64
3, 402816, Note_on_c, 1, 60, 18
3, 403200, Note_off_c, 1, 60, 64
3, 403200, Note_on_c, 1, 63, 18
3, 403584, Note_off_c, 1, 63, 64
3, 403968, Note_on_c, 1, 68, 18
3, 403968, Note_on_c, 1, 72, 18
3, 404352, Note_off_c, 1, 72, 64
3, 404352, Note_off_c, 1, 68, 64
3, 404352, Note_on_c, 1, 68, 18
3, 404352, Note_on_c, 1, 72, 18
3, 404736, Note_off_c, 1, 72, 64
3, 404736, Note_off_c, 1, 68, 64
3, 404736, Note_on_c, 1, 68, 18
3, 404736, Note_on_c, 1, 72, 18
3, 405120, Note_off_c, 1, 72, 64
3, 405120, Note_off_c, 1, 68, 64
3, 405504, Note_on_c, 1, 68, 18
3, 405504, Note_on_c, 1, 72, 18
3, 405504, Note_on_c, 1, 75, 18
3, 405888, Note_off_c, 1, 75, 64
3, 405888, Note_off_c, 1, 72, 64
3, 405888, Note_off_c, 1, 68, 64
3, 405888, Note_on_c, 1, 68, 18
3, 405888, Note_on_c, 1, 72, 18
3, 405888, Note_on_c, 1, 75, 18
3, 406272, Note_off_c, 1, 75, 64
3, 406272, Note_off_c, 1, 72, 64
3, 406272, Note_off_c, 1, 68, 64
3, 406272, Note_on_c, 1, 68, 18
3, 406272, Note_on_c, 1, 72, 18
3, 406272, Note_on_c, 1, 75, 18
3, 406656, Note_off_c, 1, 75, 64
3, 406656, Note_off_c, 1, 72, 64
3, 406656, Note_off_c, 1, 68, 64
3, 407040, Note_on_c, 1, 67, 18
3, 407040, Note_on_c, 1, 70, 18
3, 407040, Note_on_c, 1, 75, 18
3, 407424, Note_off_c, 1, 75, 64
3, 407424, Note_off_c, 1, 70, 64
3, 407424, Note_off_c, 1, 67, 64
3, 407424, Note_on_c, 1, 67, 18
3, 407424, Note_on_c, 1, 70, 18
3, 407424, Note_on_c, 1, 75, 18
3, 407808, Note_off_c, 1, 75, 64
3, 407808, Note_off_c, 1, 70, 64
3, 407808, Note_off_c, 1, 67, 64
3, 407808, Note_on_c, 1, 67, 18
3, 407808, Note_on_c, 1, 70, 18
3, 407808, Note_on_c, 1, 75, 18
3, 408192, Note_off_c, 1, 75, 64
3, 408192, Note_off_c, 1, 70, 64
3, 408192, Note_off_c, 1, 67, 64
3, 408576, Note_on_c, 1, 67, 18
3, 408576, Note_on_c, 1, 70, 18
3, 408576, Note_on_c, 1, 75, 18
3, 408960, Note_off_c, 1, 75, 64
3, 408960, Note_off_c, 1, 70, 64
3, 408960, Note_off_c, 1, 67, 64
3, 408960, Note_on_c, 1, 67, 18
3, 408960, Note_on_c, 1, 70, 18
3, 408960, Note_on_c, 1, 75, 18
3, 409344, Note_off_c, 1, 75, 64
3, 409344, Note_off_c, 1, 70, 64
3, 409344, Note_off_c, 1, 67, 64
3, 409344, Note_on_c, 1, 67, 18
3, 409344, Note_on_c, 1, 70, 18
3, 409344, Note_on_c, 1, 75, 18
3, 409728, Note_off_c, 1, 75, 64
3, 409728, Note_off_c, 1, 70, 64
3, 409728, Note_off_c, 1, 67, 64
3, 410112, Note_on_c, 1, 65, 18
3, 410112, Note_on_c, 1, 68, 18
3, 410112, Note_on_c, 1, 73, 18
3, 410496, Note_off_c, 1, 73, 64
3, 410496, Note_off_c, 1, 68, 64
3, 410496, Note_off_c, 1, 65, 64
3, 410496, Note_on_c, 1, 65, 18
3, 410496, Note_on_c, 1, 68, 18
3, 410496, Note_on_c, 1, 73, 18
3, 410880, Note_off_c, 1, 73, 64
3, 410880, Note_off_c, 1, 68, 64
3, 410880, Note_off_c, 1, 65, 64
3, 410880, Note_on_c, 1, 65, 18
3, 410880, Note_on_c, 1, 68, 18
3, 410880, Note_on_c, 1, 73, 18
3, 411264, Note_off_c, 1, 73, 64
3, 411264, Note_off_c, 1, 68, 64
3, 411264, Note_off_c, 1, 65, 64
3, 411648, Note_on_c, 1, 63, 18
3, 411648, Note_on_c, 1, 69, 18
3, 411648, Note_on_c, 1, 72, 18
3, 412032, Note_off_c, 1, 72, 64
3, 412032, Note_off_c, 1, 69, 64
3, 412032, Note_off_c, 1, 63, 64
3, 412032, Note_on_c, 1, 63, 18
3, 412032, Note_on_c, 1, 69, 18
3, 412032, Note_on_c, 1, 72, 18
3, 412416, Note_off_c, 1, 72, 64
3, 412416, Note_off_c, 1, 69, 64
3, 412416, Note_off_c, 1, 63, 64
3, 412416, Note_on_c, 1, 63, 18
3, 412416, Note_on_c, 1, 69, 18
3, 412416, Note_on_c, 1, 72, 18
3, 412800, Note_off_c, 1, 72, 64
3, 412800, Note_off_c, 1, 69, 64
3, 412800, Note_off_c, 1, 63, 64
3, 413184, Note_on_c, 1, 61, 18
3, 413184, Note_on_c, 1, 65, 18
3, 413184, Note_on_c, 1, 70, 18
3, 413568, Note_off_c, 1, 70, 64
3, 413568, Note_off_c, 1, 65, 64
3, 413568, Note_off_c, 1, 61, 64
3, 413568, Note_on_c, 1, 61, 18
3, 413568, Note_on_c, 1, 65, 18
3, 413568, Note_on_c, 1, 70, 18
3, 413952, Note_off_c, 1, 70, 64
3, 413952, Note_off_c, 1, 65, 64
3, 413952, Note_off_c, 1, 61, 64
3, 413952, Note_on_c, 1, 61, 18
3, 413952, Note_on_c, 1, 65, 18
3, 413952, Note_on_c, 1, 70, 18
3, 414336, Note_off_c, 1, 70, 64
3, 414336, Note_off_c, 1, 65, 64
3, 414336, Note_off_c, 1, 61, 64
3, 414720, Note_on_c, 1, 63, 18
3, 414720, Note_on_c, 1, 72, 18
3, 415104, Note_off_c, 1, 72, 64
3, 415104, Note_off_c, 1, 63, 64
3, 415104, Note_on_c, 1, 63, 18
3, 415104, Note_on_c, 1, 73, 18
3, 415488, Note_off_c, 1, 73, 64
3, 415488, Note_off_c, 1, 63, 64
3, 415488, Note_on_c, 1, 63, 18
3, 415488, Note_on_c, 1, 73, 18
3, 415872, Note_off_c, 1, 73, 64
3, 415872, Note_off_c, 1, 63, 64
3, 416256, Note_on_c, 1, 67, 18
3, 416640, Note_off_c, 1, 67, 64
3, 416640, Note_on_c, 1, 68, 18
3, 417024, Note_off_c, 1, 68, 64
3, 417024, Note_on_c, 1, 67, 18
3, 417408, Note_off_c, 1, 67, 64
3, 417408, Note_on_c, 1, 68, 18
3, 417792, Note_off_c, 1, 68, 64
3, 417792, Note_on_c, 1, 63, 18
3, 418176, Note_off_c, 1, 63, 64
3, 418176, Note_on_c, 1, 60, 18
3, 418560, Note_off_c, 1, 60, 64
3, 418560, Note_on_c, 1, 56, 18
3, 418944, Note_off_c, 1, 56, 64
3, 419328, Note_on_c, 1, 55, 18
3, 419328, Note_on_c, 1, 58, 18
3, 419328, Note_on_c, 1, 63, 18
3, 419712, Note_off_c, 1, 63, 64
3, 419712, Note_off_c, 1, 58, 64
3, 419712, Note_off_c, 1, 55, 64
3, 419712, Note_on_c, 1, 55, 18
3, 419712, Note_on_c, 1, 58, 18
3, 419712, Note_on_c, 1, 63, 18
3, 420096, Note_off_c, 1, 63, 64
3, 420096, Note_off_c, 1, 58, 64
3, 420096, Note_off_c, 1, 55, 64
3, 420096, Note_on_c, 1, 55, 18
3, 420096, Note_on_c, 1, 58, 18
3, 420096, Note_on_c, 1, 63, 18
3, 420480, Note_off_c, 1, 63, 64
3, 420480, Note_off_c, 1, 58, 64
3, 420480, Note_off_c, 1, 55, 64
3, 420864, Note_on_c, 1, 58, 18
3, 420864, Note_on_c, 1, 61, 18
3, 420864, Note_on_c, 1, 63, 18
3, 421248, Note_off_c, 1, 63, 64
3, 421248, Note_off_c, 1, 61, 64
3, 421248, Note_off_c, 1, 58, 64
3, 421248, Note_on_c, 1, 58, 18
3, 421248, Note_on_c, 1, 61, 18
3, 421248, Note_on_c, 1, 63, 18
3, 421632, Note_off_c, 1, 63, 64
3, 421632, Note_off_c, 1, 61, 64
3, 421632, Note_off_c, 1, 58, 64
3, 421632, Note_on_c, 1, 58, 18
3, 421632, Note_on_c, 1, 61, 18
3, 421632, Note_on_c, 1, 63, 18
3, 422016, Note_off_c, 1, 63, 64
3, 422016, Note_off_c, 1, 61, 64
3, 422016, Note_off_c, 1, 58, 64
3, 422400, Note_on_c, 1, 56, 18
3, 422400, Note_on_c, 1, 60, 18
3, 422400, Note_on_c, 1, 63, 18
3, 422784, Note_off_c, 1, 63, 64
3, 422784, Note_off_c, 1, 60, 64
3, 422784, Note_off_c, 1, 56, 64
3, 422784, Note_on_c, 1, 56, 18
3, 422784, Note_on_c, 1, 60, 18
3, 422784, Note_on_c, 1, 63, 18
3, 423168, Note_off_c, 1, 63, 64
3, 423168, Note_off_c, 1, 60, 64
3, 423168, Note_off_c, 1, 56, 64
3, 423168, Note_on_c, 1, 56, 18
3, 423168, Note_on_c, 1, 60, 18
3, 423168, Note_on_c, 1, 63, 18
3, 423552, Note_off_c, 1, 63, 64
3, 423552, Note_off_c, 1, 60, 64
3, 423552, Note_off_c, 1, 56, 64
3, 423936, Note_on_c, 1, 60, 18
3, 423936, Note_on_c, 1, 63, 18
3, 423936, Note_on_c, 1, 68, 18
3, 424320, Note_off_c, 1, 68, 64
3, 424320, Note_off_c, 1, 63, 64
3, 424320, Note_off_c, 1, 60, 64
3, 424320, Note_on_c, 1, 60, 18
3, 424320, Note_on_c, 1, 63, 18
3, 424320, Note_on_c, 1, 68, 18
3, 424704, Note_off_c, 1, 68, 64
3, 424704, Note_off_c, 1, 63, 64
3, 424704, Note_off_c, 1, 60, 64
3, 424704, Note_on_c, 1, 60, 18
3, 424704, Note_on_c, 1, 63, 18
3, 424704, Note_on_c, 1, 68, 18
3, 425088, Note_off_c, 1, 68, 64
3, 425088, Note_off_c, 1, 63, 64
3, 425088, Note_off_c, 1, 60, 64
3, 425472, Note_on_c, 1, 58, 18
3, 425472, Note_on_c, 1, 63, 18
3, 425472, Note_on_c, 1, 67, 18
3, 425856, Note_off_c, 1, 67, 64
3, 425856, Note_off_c, 1, 63, 64
3, 425856, Note_off_c, 1, 58, 64
3, 425856, Note_on_c, 1, 58, 18
3, 425856, Note_on_c, 1, 63, 18
3, 425856, Note_on_c, 1, 67, 18
3, 426240, Note_off_c, 1, 67, 64
3, 426240, Note_off_c, 1, 63, 64
3, 426240, Note_off_c, 1, 58, 64
3, 426240, Note_on_c, 1, 58, 21
3, 426240, Note_on_c, 1, 63, 21
3, 426240, Note_on_c, 1, 67, 21
3, 426624, Note_off_c, 1, 67, 64
3, 426624, Note_off_c, 1, 63, 64
3, 426624, Note_off_c, 1, 58, 64
3, 427008, Note_on_c, 1, 61, 21
3, 427008, Note_on_c, 1, 63, 21
3, 427008, Note_on_c, 1, 70, 21
3, 427392, Note_off_c, 1, 70, 64
3, 427392, Note_off_c, 1, 63, 64
3, 427392, Note_off_c, 1, 61, 64
3, 427392, Note_on_c, 1, 61, 21
3, 427392, Note_on_c, 1, 63, 21
3, 427392, Note_on_c, 1, 70, 21
3, 427776, Note_off_c, 1, 70, 64
3, 427776, Note_off_c, 1, 63, 64
3, 427776, Note_off_c, 1, 61, 64
3, 427776, Note_on_c, 1, 61, 21
3, 427776, Note_on_c, 1, 63, 21
3, 427776, Note_on_c, 1, 70, 21
3, 428160, Note_off_c, 1, 70, 64
3, 428160, Note_off_c, 1, 63, 64
3, 428160, Note_off_c, 1, 61, 64
3, 428544, Note_on_c, 1, 51, 21
3, 428544, Note_on_c, 1, 55, 21
3, 428928, Note_off_c, 1, 55, 64
3, 428928, Note_off_c, 1, 51, 64
3, 428928, Note_on_c, 1, 53, 21
3, 428928, Note_on_c, 1, 56, 21
3, 429312, Note_off_c, 1, 56, 64
3, 429312, Note_off_c, 1, 53, 64
3, 429312, Note_on_c, 1, 55, 21
3, 429312, Note_on_c, 1, 58, 21
3, 429696, Note_off_c, 1, 58, 64
3, 429696, Note_off_c, 1, 55, 64
3, 429696, Note_on_c, 1, 56, 21
3, 429696, Note_on_c, 1, 60, 21
3, 430080, Note_off_c, 1, 60, 64
3, 430080, Note_off_c, 1, 56, 64
3, 430080, Note_on_c, 1, 58, 21
3, 430080, Note_on_c, 1, 61, 21
3, 430464, Note_off_c, 1, 61, 64
3, 430464, Note_off_c, 1, 58, 64
3, 430464, Note_on_c, 1, 60, 21
3, 430464, Note_on_c, 1, 63, 21
3, 430848, Note_off_c, 1, 63, 64
3, 430848, Note_off_c, 1, 60, 64
3, 430848, Note_on_c, 1, 58, 21
3, 430848, Note_on_c, 1, 61, 21
3, 431232, Note_off_c, 1, 61, 64
3, 431232, Note_off_c, 1, 58, 64
3, 431616, Note_on_c, 1, 56, 21
3, 431616, Note_on_c, 1, 60, 21
3, 432000, Note_off_c, 1, 60, 64
3, 432000, Note_off_c, 1, 56, 64
3, 432000, Note_on_c, 1, 56, 21
3, 432000, Note_on_c, 1, 60, 21
3, 432384, Note_off_c, 1, 60, 64
3, 432384, Note_off_c, 1, 56, 64
3, 432384, Note_on_c, 1, 56, 21
3, 432384, Note_on_c, 1, 60, 21
3, 432768, Note_off_c, 1, 60, 64
3, 432768, Note_off_c, 1, 56, 64
3, 433152, Note_on_c, 1, 54, 21
3, 433152, Note_on_c, 1, 56, 21
3, 433152, Note_on_c, 1, 63, 21
3, 433536, Note_off_c, 1, 63, 64
3, 433536, Note_off_c, 1, 56, 64
3, 433536, Note_off_c, 1, 54, 64
3, 433536, Note_on_c, 1, 54, 21
3, 433536, Note_on_c, 1, 56, 21
3, 433536, Note_on_c, 1, 63, 21
3, 433920, Note_off_c, 1, 63, 64
3, 433920, Note_off_c, 1, 56, 64
3, 433920, Note_off_c, 1, 54, 64
3, 433920, Note_on_c, 1, 54, 21
3, 433920, Note_on_c, 1, 56, 21
3, 433920, Note_on_c, 1, 63, 21
3, 434304, Note_off_c, 1, 63, 64
3, 434304, Note_off_c, 1, 56, 64
3, 434304, Note_off_c, 1, 54, 64
3, 434688, Note_on_c, 1, 53, 21
3, 434688, Note_on_c, 1, 56, 21
3, 434688, Note_on_c, 1, 61, 21
3, 435072, Note_off_c, 1, 61, 64
3, 435072, Note_off_c, 1, 56, 64
3, 435072, Note_off_c, 1, 53, 64
3, 435072, Note_on_c, 1, 53, 21
3, 435072, Note_on_c, 1, 56, 21
3, 435072, Note_on_c, 1, 61, 21
3, 435456, Note_off_c, 1, 61, 64
3, 435456, Note_off_c, 1, 56, 64
3, 435456, Note_off_c, 1, 53, 64
3, 435456, Note_on_c, 1, 53, 21
3, 435456, Note_on_c, 1, 56, 21
3, 435456, Note_on_c, 1, 61, 21
3, 435840, Note_off_c, 1, 61, 64
3, 435840, Note_off_c, 1, 56, 64
3, 435840, Note_off_c, 1, 53, 64
3, 436224, Note_on_c, 1, 51, 21
3, 436224, Note_on_c, 1, 54, 21
3, 436224, Note_on_c, 1, 57, 21
3, 436608, Note_off_c, 1, 57, 64
3, 436608, Note_off_c, 1, 54, 64
3, 436608, Note_off_c, 1, 51, 64
3, 436608, Note_on_c, 1, 51, 21
3, 436608, Note_on_c, 1, 54, 21
3, 436608, Note_on_c, 1, 57, 21
3, 436992, Note_off_c, 1, 57, 64
3, 436992, Note_off_c, 1, 54, 64
3, 436992, Note_off_c, 1, 51, 64
3, 436992, Note_on_c, 1, 51, 21
3, 436992, Note_on_c, 1, 54, 21
3, 436992, Note_on_c, 1, 57, 21
3, 437376, Note_off_c, 1, 57, 64
3, 437376, Note_off_c, 1, 54, 64
3, 437376, Note_off_c, 1, 51, 64
3, 437760, Note_on_c, 1, 49, 21
3, 437760, Note_on_c, 1, 53, 21
3, 437760, Note_on_c, 1, 58, 21
3, 438144, Note_off_c, 1, 58, 64
3, 438144, Note_off_c, 1, 53, 64
3, 438144, Note_off_c, 1, 49, 64
3, 438144, Note_on_c, 1, 49, 21
3, 438144, Note_on_c, 1, 53, 21
3, 438144, Note_on_c, 1, 58, 21
3, 438528, Note_off_c, 1, 58, 64
3, 438528, Note_off_c, 1, 53, 64
3, 438528, Note_off_c, 1, 49, 64
3, 438528, Note_on_c, 1, 49, 21
3, 438528, Note_on_c, 1, 53, 21
3, 438528, Note_on_c, 1, 58, 21
3, 438912, Note_off_c, 1, 58, 64
3, 438912, Note_off_c, 1, 53, 64
3, 438912, Note_off_c, 1, 49, 64
3, 439296, Note_on_c, 1, 51, 21
3, 439296, Note_on_c, 1, 55, 21
3, 439296, Note_on_c, 1, 61, 21
3, 439680, Note_off_c, 1, 61, 64
3, 439680, Note_off_c, 1, 55, 64
3, 439680, Note_off_c, 1, 51, 64
3, 439680, Note_on_c, 1, 51, 21
3, 439680, Note_on_c, 1, 55, 21
3, 439680, Note_on_c, 1, 61, 21
3, 440064, Note_off_c, 1, 61, 64
3, 440064, Note_off_c, 1, 55, 64
3, 440064, Note_off_c, 1, 51, 64
3, 440064, Note_on_c, 1, 51, 21
3, 440064, Note_on_c, 1, 55, 21
3, 440064, Note_on_c, 1, 61, 21
3, 440448, Note_off_c, 1, 61, 64
3, 440448, Note_off_c, 1, 55, 64
3, 440448, Note_off_c, 1, 51, 64
3, 440832, Note_on_c, 1, 56, 21
3, 440832, Note_on_c, 1, 61, 21
3, 441216, Note_off_c, 1, 61, 64
3, 441216, Note_off_c, 1, 56, 64
3, 441216, Note_on_c, 1, 56, 21
3, 441216, Note_on_c, 1, 61, 21
3, 441600, Note_off_c, 1, 61, 64
3, 441600, Note_off_c, 1, 56, 64
3, 441600, Note_on_c, 1, 56, 21
3, 441600, Note_on_c, 1, 61, 21
3, 441984, Note_off_c, 1, 61, 64
3, 441984, Note_off_c, 1, 56, 64
3, 442368, Note_on_c, 1, 56, 21
3, 442368, Note_on_c, 1, 60, 21
3, 442752, Note_off_c, 1, 60, 64
3, 442752, Note_off_c, 1, 56, 64
3, 442752, Note_on_c, 1, 60, 21
3, 442752, Note_on_c, 1, 63, 21
3, 443136, Note_off_c, 1, 63, 64
3, 443136, Note_off_c, 1, 60, 64
3, 443136, Note_on_c, 1, 56, 21
3, 443136, Note_on_c, 1, 60, 21
3, 443520, Note_off_c, 1, 60, 64
3, 443520, Note_off_c, 1, 56, 64
3, 443904, Note_on_c, 1, 55, 21
3, 443904, Note_on_c, 1, 58, 21
3, 443904, Note_on_c, 1, 63, 21
3, 444288, Note_off_c, 1, 63, 64
3, 444288, Note_off_c, 1, 58, 64
3, 444288, Note_off_c, 1, 55, 64
3, 444288, Note_on_c, 1, 55, 21
3, 444288, Note_on_c, 1, 58, 21
3, 444288, Note_on_c, 1, 63, 21
3, 444672, Note_off_c, 1, 63, 64
3, 444672, Note_off_c, 1, 58, 64
3, 444672, Note_off_c, 1, 55, 64
3, 444672, Note_on_c, 1, 55, 21
3, 444672, Note_on_c, 1, 58, 21
3, 444672, Note_on_c, 1, 63, 21
3, 445056, Note_off_c, 1, 63, 64
3, 445056, Note_off_c, 1, 58, 64
3, 445056, Note_off_c, 1, 55, 64
3, 445440, Note_on_c, 1, 58, 21
3, 445440, Note_on_c, 1, 61, 21
3, 445440, Note_on_c, 1, 63, 21
3, 445824, Note_off_c, 1, 63, 64
3, 445824, Note_off_c, 1, 61, 64
3, 445824, Note_off_c, 1, 58, 64
3, 445824, Note_on_c, 1, 58, 21
3, 445824, Note_on_c, 1, 61, 21
3, 445824, Note_on_c, 1, 63, 21
3, 446208, Note_off_c, 1, 63, 64
3, 446208, Note_off_c, 1, 61, 64
3, 446208, Note_off_c, 1, 58, 64
3, 446208, Note_on_c, 1, 58, 21
3, 446208, Note_on_c, 1, 61, 21
3, 446208, Note_on_c, 1, 63, 21
3, 446592, Note_off_c, 1, 63, 64
3, 446592, Note_off_c, 1, 61, 64
3, 446592, Note_off_c, 1, 58, 64
3, 446976, Note_on_c, 1, 56, 21
3, 446976, Note_on_c, 1, 60, 21
3, 446976, Note_on_c, 1, 63, 21
3, 447360, Note_off_c, 1, 63, 64
3, 447360, Note_off_c, 1, 60, 64
3, 447360, Note_off_c, 1, 56, 64
3, 447360, Note_on_c, 1, 56, 21
3, 447360, Note_on_c, 1, 60, 21
3, 447360, Note_on_c, 1, 63, 21
3, 447744, Note_off_c, 1, 63, 64
3, 447744, Note_off_c, 1, 60, 64
3, 447744, Note_off_c, 1, 56, 64
3, 447744, Note_on_c, 1, 56, 21
3, 447744, Note_on_c, 1, 60, 21
3, 447744, Note_on_c, 1, 63, 21
3, 448128, Note_off_c, 1, 63, 64
3, 448128, Note_off_c, 1, 60, 64
3, 448128, Note_off_c, 1, 56, 64
3, 448512, Note_on_c, 1, 60, 21
3, 448512, Note_on_c, 1, 63, 21
3, 448512, Note_on_c, 1, 68, 21
3, 448896, Note_off_c, 1, 68, 64
3, 448896, Note_off_c, 1, 63, 64
3, 448896, Note_off_c, 1, 60, 64
3, 448896, Note_on_c, 1, 60, 21
3, 448896, Note_on_c, 1, 63, 21
3, 448896, Note_on_c, 1, 68, 21
3, 449280, Note_off_c, 1, 68, 64
3, 449280, Note_off_c, 1, 63, 64
3, 449280, Note_off_c, 1, 60, 64
3, 449280, Note_on_c, 1, 60, 21
3, 449280, Note_on_c, 1, 63, 21
3, 449280, Note_on_c, 1, 68, 21
3, 449664, Note_off_c, 1, 68, 64
3, 449664, Note_off_c, 1, 63, 64
3, 449664, Note_off_c, 1, 60, 64
3, 450048, Note_on_c, 1, 58, 21
3, 450048, Note_on_c, 1, 63, 21
3, 450048, Note_on_c, 1, 67, 21
3, 450432, Note_off_c, 1, 67, 64
3, 450432, Note_off_c, 1, 63, 64
3, 450432, Note_off_c, 1, 58, 64
3, 450432, Note_on_c, 1, 58, 21
3, 450432, Note_on_c, 1, 63, 21
3, 450432, Note_on_c, 1, 67, 21
3, 450816, Note_off_c, 1, 67, 64
3, 450816, Note_off_c, 1, 63, 64
3, 450816, Note_off_c, 1, 58, 64
3, 450816, Note_on_c, 1, 58, 21
3, 450816, Note_on_c, 1, 63, 21
3, 450816, Note_on_c, 1, 67, 21
3, 451200, Note_off_c, 1, 67, 64
3, 451200, Note_off_c, 1, 63, 64
3, 451200, Note_off_c, 1, 58, 64
3, 451584, Note_on_c, 1, 61, 21
3, 451584, Note_on_c, 1, 63, 21
3, 451584, Note_on_c, 1, 70, 21
3, 451968, Note_off_c, 1, 70, 64
3, 451968, Note_off_c, 1, 63, 64
3, 451968, Note_off_c, 1, 61, 64
3, 451968, Note_on_c, 1, 61, 21
3, 451968, Note_on_c, 1, 63, 21
3, 451968, Note_on_c, 1, 70, 21
3, 452352, Note_off_c, 1, 70, 64
3, 452352, Note_off_c, 1, 63, 64
3, 452352, Note_off_c, 1, 61, 64
3, 452352, Note_on_c, 1, 61, 21
3, 452352, Note_on_c, 1, 63, 21
3, 452352, Note_on_c, 1, 70, 21
3, 452736, Note_off_c, 1, 70, 64
3, 452736, Note_off_c, 1, 63, 64
3, 452736, Note_off_c, 1, 61, 64
3, 453120, Note_on_c, 1, 51, 21
3, 453120, Note_on_c, 1, 55, 21
3, 453504, Note_off_c, 1, 55, 64
3, 453504, Note_off_c, 1, 51, 64
3, 453504, Note_on_c, 1, 53, 21
3, 453504, Note_on_c, 1, 56, 21
3, 453888, Note_off_c, 1, 56, 64
3, 453888, Note_off_c, 1, 53, 64
3, 453888, Note_on_c, 1, 55, 21
3, 453888, Note_on_c, 1, 58, 21
3, 454272, Note_off_c, 1, 58, 64
3, 454272, Note_off_c, 1, 55, 64
3, 454272, Note_on_c, 1, 56, 21
3, 454272, Note_on_c, 1, 60, 21
3, 454656, Note_off_c, 1, 60, 64
3, 454656, Note_off_c, 1, 56, 64
3, 454656, Note_on_c, 1, 58, 21
3, 454656, Note_on_c, 1, 61, 21
3, 455040, Note_off_c, 1, 61, 64
3, 455040, Note_off_c, 1, 58, 64
3, 455040, Note_on_c, 1, 60, 21
3, 455040, Note_on_c, 1, 63, 21
3, 455424, Note_off_c, 1, 63, 64
3, 455424, Note_off_c, 1, 60, 64
3, 455424, Note_on_c, 1, 58, 21
3, 455424, Note_on_c, 1, 61, 21
3, 455808, Note_off_c, 1, 61, 64
3, 455808, Note_off_c, 1, 58, 64
3, 456192, Note_on_c, 1, 56, 21
3, 456192, Note_on_c, 1, 60, 21
3, 456576, Note_off_c, 1, 60, 64
3, 456576, Note_off_c, 1, 56, 64
3, 456576, Note_on_c, 1, 56, 21
3, 456576, Note_on_c, 1, 60, 21
3, 456960, Note_off_c, 1, 60, 64
3, 456960, Note_off_c, 1, 56, 64
3, 456960, Note_on_c, 1, 56, 21
3, 456960, Note_on_c, 1, 60, 21
3, 457344, Note_off_c, 1, 60, 64
3, 457344, Note_off_c, 1, 56, 64
3, 457728, Note_on_c, 1, 54, 21
3, 457728, Note_on_c, 1, 56, 21
3, 457728, Note_on_c, 1, 63, 21
3, 458112, Note_off_c, 1, 63, 64
3, 458112, Note_off_c, 1, 56, 64
3, 458112, Note_off_c, 1, 54, 64
3, 458112, Note_on_c, 1, 54, 21
3, 458112, Note_on_c, 1, 56, 21
3, 458112, Note_on_c, 1, 63, 21
3, 458496, Note_off_c, 1, 63, 64
3, 458496, Note_off_c, 1, 56, 64
3, 458496, Note_off_c, 1, 54, 64
3, 458496, Note_on_c, 1, 54, 21
3, 458496, Note_on_c, 1, 56, 21
3, 458496, Note_on_c, 1, 63, 21
3, 458880, Note_off_c, 1, 63, 64
3, 458880, Note_off_c, 1, 56, 64
3, 458880, Note_off_c, 1, 54, 64
3, 459264, Note_on_c, 1, 53, 21
3, 459264, Note_on_c, 1, 56, 21
3, 459264, Note_on_c, 1, 61, 21
3, 459648, Note_off_c, 1, 61, 64
3, 459648, Note_off_c, 1, 56, 64
3, 459648, Note_off_c, 1, 53, 64
3, 459648, Note_on_c, 1, 53, 25
3, 459648, Note_on_c, 1, 56, 25
3, 459648, Note_on_c, 1, 61, 25
3, 460032, Note_off_c, 1, 61, 64
3, 460032, Note_off_c, 1, 56, 64
3, 460032, Note_off_c, 1, 53, 64
3, 460032, Note_on_c, 1, 53, 25
3, 460032, Note_on_c, 1, 56, 25
3, 460032, Note_on_c, 1, 61, 25
3, 460416, Note_off_c, 1, 61, 64
3, 460416, Note_off_c, 1, 56, 64
3, 460416, Note_off_c, 1, 53, 64
3, 460800, Note_on_c, 1, 51, 25
3, 460800, Note_on_c, 1, 54, 25
3, 460800, Note_on_c, 1, 57, 25
3, 461184, Note_off_c, 1, 57, 64
3, 461184, Note_off_c, 1, 54, 64
3, 461184, Note_off_c, 1, 51, 64
3, 461184, Note_on_c, 1, 51, 25
3, 461184, Note_on_c, 1, 54, 25
3, 461184, Note_on_c, 1, 57, 25
3, 461568, Note_off_c, 1, 57, 64
3, 461568, Note_off_c, 1, 54, 64
3, 461568, Note_off_c, 1, 51, 64
3, 461568, Note_on_c, 1, 51, 25
3, 461568, Note_on_c, 1, 54, 25
3, 461568, Note_on_c, 1, 57, 25
3, 461952, Note_off_c, 1, 57, 64
3, 461952, Note_off_c, 1, 54, 64
3, 461952, Note_off_c, 1, 51, 64
3, 462336, Note_on_c, 1, 49, 25
3, 462336, Note_on_c, 1, 53, 25
3, 462336, Note_on_c, 1, 58, 25
3, 462720, Note_off_c, 1, 58, 64
3, 462720, Note_off_c, 1, 53, 64
3, 462720, Note_off_c, 1, 49, 64
3, 462720, Note_on_c, 1, 49, 25
3, 462720, Note_on_c, 1, 53, 25
3, 462720, Note_on_c, 1, 58, 25
3, 463104, Note_off_c, 1, 58, 64
3, 463104, Note_off_c, 1, 53, 64
3, 463104, Note_off_c, 1, 49, 64
3, 463104, Note_on_c, 1, 49, 25
3, 463104, Note_on_c, 1, 53, 25
3, 463104, Note_on_c, 1, 58, 25
3, 463488, Note_off_c, 1, 58, 64
3, 463488, Note_off_c, 1, 53, 64
3, 463488, Note_off_c, 1, 49, 64
3, 463872, Note_on_c, 1, 51, 25
3, 463872, Note_on_c, 1, 55, 25
3, 463872, Note_on_c, 1, 61, 25
3, 464256, Note_off_c, 1, 61, 64
3, 464256, Note_off_c, 1, 55, 64
3, 464256, Note_off_c, 1, 51, 64
3, 464256, Note_on_c, 1, 51, 25
3, 464256, Note_on_c, 1, 55, 25
3, 464256, Note_on_c, 1, 61, 25
3, 464640, Note_off_c, 1, 61, 64
3, 464640, Note_off_c, 1, 55, 64
3, 464640, Note_off_c, 1, 51, 64
3, 464640, Note_on_c, 1, 51, 25
3, 464640, Note_on_c, 1, 55, 25
3, 464640, Note_on_c, 1, 61, 25
3, 465024, Note_off_c, 1, 61, 64
3, 465024, Note_off_c, 1, 55, 64
3, 465024, Note_off_c, 1, 51, 64
3, 465024, Note_on_c, 1, 44, 21
3, 465152, Note_off_c, 1, 44, 64
3, 465152, Note_on_c, 1, 48, 19
3, 465280, Note_off_c, 1, 48, 64
3, 465280, Note_on_c, 1, 51, 16
3, 465408, Note_off_c, 1, 51, 64
3, 465408, Note_on_c, 1, 44, 18
3, 465536, Note_off_c, 1, 44, 64
3, 465536, Note_on_c, 1, 48, 18
3, 465664, Note_off_c, 1, 48, 64
3, 465664, Note_on_c, 1, 51, 18
3, 465792, Note_off_c, 1, 51, 64
3, 465792, Note_on_c, 1, 44, 18
3, 465920, Note_off_c, 1, 44, 64
3, 465920, Note_on_c, 1, 48, 18
3, 466048, Note_off_c, 1, 48, 64
3, 466048, Note_on_c, 1, 51, 18
3, 466176, Note_off_c, 1, 51, 64
3, 466176, Note_on_c, 1, 44, 18
3, 466304, Note_off_c, 1, 44, 64
3, 466304, Note_on_c, 1, 48, 18
3, 466432, Note_off_c, 1, 48, 64
3, 466432, Note_on_c, 1, 51, 18
3, 466560, Note_off_c, 1, 51, 64
3, 466560, Note_on_c, 1, 44, 18
3, 466688, Note_off_c, 1, 44, 64
3, 466688, Note_on_c, 1, 48, 18
3, 466816, Note_off_c, 1, 48, 64
3, 466816, Note_on_c, 1, 51, 19
3, 466944, Note_off_c, 1, 51, 64
3, 466944, Note_on_c, 1, 44, 19
3, 467072, Note_off_c, 1, 44, 64
3, 467072, Note_on_c, 1, 48, 19
3, 467200, Note_off_c, 1, 48, 64
3, 467200, Note_on_c, 1, 51, 19
3, 467328, Note_off_c, 1, 51, 64
3, 467328, Note_on_c, 1, 44, 19
3, 467456, Note_off_c, 1, 44, 64
3, 467456, Note_on_c, 1, 48, 19
3, 467584, Note_off_c, 1, 48, 64
3, 467584, Note_on_c, 1, 51, 19
3, 467712, Note_off_c, 1, 51, 64
3, 467712, Note_on_c, 1, 44, 19
3, 467840, Note_off_c, 1, 44, 64
3, 467840, Note_on_c, 1, 48, 19
3, 467968, Note_off_c, 1, 48, 64
3, 467968, Note_on_c, 1, 51, 19
3, 468096, Note_off_c, 1, 51, 64
3, 468096, Note_on_c, 1, 44, 19
3, 468480, Note_off_c, 1, 44, 64
3, 468480, Note_on_c, 1, 56, 28
3, 468480, Note_on_c, 1, 60, 28
3, 468480, Note_on_c, 1, 63, 28
3, 468864, Note_off_c, 1, 63, 64
3, 468864, Note_off_c, 1, 60, 64
3, 468864, Note_off_c, 1, 56, 64
3, 468864, Note_on_c, 1, 56, 28
3, 468864, Note_on_c, 1, 60, 28
3, 468864, Note_on_c, 1, 63, 28
3, 469248, Note_off_c, 1, 63, 64
3, 469248, Note_off_c, 1, 60, 64
3, 469248, Note_off_c, 1, 56, 64
3, 469248, Note_on_c, 1, 56, 28
3, 469248, Note_on_c, 1, 60, 28
3, 469248, Note_on_c, 1, 63, 28
3, 469632, Note_off_c, 1, 63, 64
3, 469632, Note_off_c, 1, 60, 64
3, 469632, Note_off_c, 1, 56, 64
3, 469632, Note_on_c, 1, 56, 28
3, 469632, Note_on_c, 1, 60, 28
3, 469632, Note_on_c, 1, 63, 28
3, 470016, Note_off_c, 1, 63, 64
3, 470016, Note_off_c, 1, 60, 64
3, 470016, Note_off_c, 1, 56, 64
3, 470016, Note_on_c, 1, 56, 28
3, 470016, Note_on_c, 1, 60, 28
3, 470016, Note_on_c, 1, 63, 28
3, 470400, Note_off_c, 1, 63, 64
3, 470400, Note_off_c, 1, 60, 64
3, 470400, Note_off_c, 1, 56, 64
3, 470400, Note_on_c, 1, 56, 28
3, 470400, Note_on_c, 1, 60, 28
3, 470400, Note_on_c, 1, 63, 28
3, 470784, Note_off_c, 1, 63, 64
3, 470784, Note_off_c, 1, 60, 64
3, 470784, Note_off_c, 1, 56, 64
3, 470784, Note_on_c, 1, 56, 28
3, 470784, Note_on_c, 1, 60, 28
3, 470784, Note_on_c, 1, 63, 28
3, 471168, Note_off_c, 1, 63, 64
3, 471168, Note_off_c, 1, 60, 64
3, 471168, Note_off_c, 1, 56, 64
3, 471168, Note_on_c, 1, 43, 21
3, 471296, Note_off_c, 1, 43, 64
3, 471296, Note_on_c, 1, 48, 18
3, 471424, Note_off_c, 1, 48, 64
3, 471424, Note_on_c, 1, 52, 18
3, 471552, Note_off_c, 1, 52, 64
3, 471552, Note_on_c, 1, 43, 18
3, 471680, Note_off_c, 1, 43, 64
3, 471680, Note_on_c, 1, 48, 18
3, 471808, Note_off_c, 1, 48, 64
3, 471808, Note_on_c, 1, 52, 18
3, 471936, Note_off_c, 1, 52, 64
3, 471936, Note_on_c, 1, 43, 18
3, 472064, Note_off_c, 1, 43, 64
3, 472064, Note_on_c, 1, 48, 18
3, 472192, Note_off_c, 1, 48, 64
3, 472192, Note_on_c, 1, 52, 18
3, 472320, Note_off_c, 1, 52, 64
3, 472320, Note_on_c, 1, 43, 18
3, 472448, Note_off_c, 1, 43, 64
3, 472448, Note_on_c, 1, 48, 18
3, 472576, Note_off_c, 1, 48, 64
3, 472576, Note_on_c, 1, 52, 18
3, 472704, Note_off_c, 1, 52, 64
3, 472704, Note_on_c, 1, 43, 18
3, 472832, Note_off_c, 1, 43, 64
3, 472832, Note_on_c, 1, 48, 19
3, 472960, Note_off_c, 1, 48, 64
3, 472960, Note_on_c, 1, 52, 19
3, 473088, Note_off_c, 1, 52, 64
3, 473088, Note_on_c, 1, 43, 19
3, 473216, Note_off_c, 1, 43, 64
3, 473216, Note_on_c, 1, 48, 19
3, 473344, Note_off_c, 1, 48, 64
3, 473344, Note_on_c, 1, 52, 19
3, 473472, Note_off_c, 1, 52, 64
3, 473472, Note_on_c, 1, 43, 19
3, 473600, Note_off_c, 1, 43, 64
3, 473600, Note_on_c, 1, 48, 19
3, 473728, Note_off_c, 1, 48, 64
3, 473728, Note_on_c, 1, 52, 19
3, 473856, Note_off_c, 1, 52, 64
3, 473856, Note_on_c, 1, 43, 19
3, 473984, Note_off_c, 1, 43, 64
3, 473984, Note_on_c, 1, 48, 19
3, 474112, Note_off_c, 1, 48, 64
3, 474112, Note_on_c, 1, 52, 18
3, 474240, Note_off_c, 1, 52, 64
3, 474240, Note_on_c, 1, 43, 18
3, 474624, Note_off_c, 1, 43, 64
3, 474624, Note_on_c, 1, 55, 30
3, 474624, Note_on_c, 1, 58, 30
3, 474624, Note_on_c, 1, 64, 30
3, 475008, Note_off_c, 1, 64, 64
3, 475008, Note_off_c, 1, 58, 64
3, 475008, Note_off_c, 1, 55, 64
3, 475008, Note_on_c, 1, 55, 30
3, 475008, Note_on_c, 1, 58, 30
3, 475008, Note_on_c, 1, 64, 30
3, 475392, Note_off_c, 1, 64, 64
3, 475392, Note_off_c, 1, 58, 64
3, 475392, Note_off_c, 1, 55, 64
3, 475392, Note_on_c, 1, 55, 30
3, 475392, Note_on_c, 1, 58, 30
3, 475392, Note_on_c, 1, 64, 30
3, 475776, Note_off_c, 1, 64, 64
3, 475776, Note_off_c, 1, 58, 64
3, 475776, Note_off_c, 1, 55, 64
3, 475776, Note_on_c, 1, 55, 30
3, 475776, Note_on_c, 1, 58, 30
3, 475776, Note_on_c, 1, 64, 30
3, 476160, Note_off_c, 1, 64, 64
3, 476160, Note_off_c, 1, 58, 64
3, 476160, Note_off_c, 1, 55, 64
3, 476160, Note_on_c, 1, 55, 30
3, 476160, Note_on_c, 1, 58, 30
3, 476160, Note_on_c, 1, 64, 30
3, 476544, Note_off_c, 1, 64, 64
3, 476544, Note_off_c, 1, 58, 64
3, 476544, Note_off_c, 1, 55, 64
3, 476544, Note_on_c, 1, 55, 30
3, 476544, Note_on_c, 1, 58, 30
3, 476544, Note_on_c, 1, 64, 30
3, 476928, Note_off_c, 1, 64, 64
3, 476928, Note_off_c, 1, 58, 64
3, 476928, Note_off_c, 1, 55, 64
3, 476928, Note_on_c, 1, 55, 23
3, 476928, Note_on_c, 1, 58, 25
3, 476928, Note_on_c, 1, 64, 25
3, 477312, Note_off_c, 1, 64, 64
3, 477312, Note_off_c, 1, 58, 64
3, 477312, Note_off_c, 1, 55, 64
3, 477312, Note_on_c, 1, 41, 23
3, 477440, Note_off_c, 1, 41, 64
3, 477440, Note_on_c, 1, 48, 16
3, 477568, Note_off_c, 1, 48, 64
3, 477568, Note_on_c, 1, 53, 16
3, 477696, Note_off_c, 1, 53, 64
3, 477696, Note_on_c, 1, 41, 15
3, 477824, Note_off_c, 1, 41, 64
3, 477824, Note_on_c, 1, 48, 15
3, 477952, Note_off_c, 1, 48, 64
3, 477952, Note_on_c, 1, 53, 15
3, 478080, Note_off_c, 1, 53, 64
3, 478080, Note_on_c, 1, 41, 15
3, 478208, Note_off_c, 1, 41, 64
3, 478208, Note_on_c, 1, 48, 15
3, 478336, Note_off_c, 1, 48, 64
3, 478336, Note_on_c, 1, 53, 15
3, 478464, Note_off_c, 1, 53, 64
3, 478464, Note_on_c, 1, 41, 14
3, 478592, Note_off_c, 1, 41, 64
3, 478592, Note_on_c, 1, 48, 14
3, 478720, Note_off_c, 1, 48, 64
3, 478720, Note_on_c, 1, 53, 14
3, 478848, Note_off_c, 1, 53, 64
3, 478848, Note_on_c, 1, 41, 14
3, 478976, Note_off_c, 1, 41, 64
3, 478976, Note_on_c, 1, 48, 14
3, 479104, Note_off_c, 1, 48, 64
3, 479104, Note_on_c, 1, 53, 14
3, 479232, Note_off_c, 1, 53, 64
3, 479232, Note_on_c, 1, 41, 13
3, 479360, Note_off_c, 1, 41, 64
3, 479360, Note_on_c, 1, 48, 13
3, 479488, Note_off_c, 1, 48, 64
3, 479488, Note_on_c, 1, 53, 13
3, 479616, Note_off_c, 1, 53, 64
3, 479616, Note_on_c, 1, 41, 13
3, 479744, Note_off_c, 1, 41, 64
3, 479744, Note_on_c, 1, 48, 13
3, 479872, Note_off_c, 1, 48, 64
3, 479872, Note_on_c, 1, 53, 13
3, 480000, Note_off_c, 1, 53, 64
3, 480000, Note_on_c, 1, 41, 14
3, 480128, Note_off_c, 1, 41, 64
3, 480128, Note_on_c, 1, 48, 15
3, 480256, Note_off_c, 1, 48, 64
3, 480256, Note_on_c, 1, 53, 16
3, 480384, Note_off_c, 1, 53, 64
3, 480384, Note_on_c, 1, 41, 17
3, 480768, Note_off_c, 1, 41, 64
3, 480768, Note_on_c, 1, 53, 20
3, 480768, Note_on_c, 1, 56, 20
3, 481152, Note_off_c, 1, 56, 64
3, 481152, Note_off_c, 1, 53, 64
3, 481152, Note_on_c, 1, 53, 23
3, 481152, Note_on_c, 1, 56, 23
3, 481536, Note_off_c, 1, 56, 64
3, 481536, Note_off_c, 1, 53, 64
3, 481536, Note_on_c, 1, 53, 25
3, 481536, Note_on_c, 1, 56, 25
3, 481920, Note_off_c, 1, 56, 64
3, 481920, Note_off_c, 1, 53, 64
3, 481920, Note_on_c, 1, 49, 28
3, 481920, Note_on_c, 1, 53, 28
3, 481920, Note_on_c, 1, 56, 28
3, 482304, Note_off_c, 1, 56, 64
3, 482304, Note_off_c, 1, 53, 64
3, 482304, Note_on_c, 1, 53, 36
3, 482304, Note_on_c, 1, 56, 36
3, 482688, Note_off_c, 1, 56, 64
3, 482688, Note_off_c, 1, 53, 64
3, 482688, Note_on_c, 1, 53, 37
3, 482688, Note_on_c, 1, 56, 37
3, 483072, Note_off_c, 1, 56, 64
3, 483072, Note_off_c, 1, 53, 64
3, 483072, Note_on_c, 1, 53, 39
3, 483072, Note_on_c, 1, 56, 39
3, 483456, Note_off_c, 1, 56, 64
3, 483456, Note_off_c, 1, 53, 64
3, 483456, Note_off_c, 1, 49, 64
3, 483456, Note_on_c, 1, 48, 40
3, 483456, Note_on_c, 1, 54, 40
3, 483456, Note_on_c, 1, 56, 40
3, 483840, Note_off_c, 1, 56, 64
3, 483840, Note_off_c, 1, 54, 64
3, 483840, Note_on_c, 1, 54, 42
3, 483840, Note_on_c, 1, 56, 42
3, 484224, Note_off_c, 1, 56, 64
3, 484224, Note_off_c, 1, 54, 64
3, 484224, Note_on_c, 1, 54, 43
3, 484224, Note_on_c, 1, 56, 43
3, 484608, Note_off_c, 1, 56, 64
3, 484608, Note_off_c, 1, 54, 64
3, 484608, Note_on_c, 1, 54, 45
3, 484608, Note_on_c, 1, 56, 45
3, 484992, Note_off_c, 1, 56, 64
3, 484992, Note_off_c, 1, 54, 64
3, 484992, Note_off_c, 1, 48, 64
3, 484992, Note_on_c, 1, 51, 46
3, 484992, Note_on_c, 1, 54, 46
3, 484992, Note_on_c, 1, 56, 46
3, 485376, Note_off_c, 1, 56, 64
3, 485376, Note_off_c, 1, 54, 64
3, 485376, Note_on_c, 1, 54, 48
3, 485376, Note_on_c, 1, 56, 48
3, 485760, Note_off_c, 1, 56, 64
3, 485760, Note_off_c, 1, 54, 64
3, 485760, Note_on_c, 1, 54, 49
3, 485760, Note_on_c, 1, 56, 49
3, 486144, Note_off_c, 1, 56, 64
3, 486144, Note_off_c, 1, 54, 64
3, 486144, Note_on_c, 1, 54, 51
3, 486144, Note_on_c, 1, 56, 51
3, 486528, Note_off_c, 1, 56, 64
3, 486528, Note_off_c, 1, 54, 64
3, 486528, Note_off_c, 1, 51, 64
3, 486528, Note_on_c, 1, 49, 52
3, 486528, Note_on_c, 1, 53, 52
3, 486528, Note_on_c, 1, 56, 52
3, 486912, Note_off_c, 1, 56, 64
3, 486912, Note_off_c, 1, 53, 64
3, 486912, Note_on_c, 1, 53, 54
3, 486912, Note_on_c, 1, 56, 54
3, 487296, Note_off_c, 1, 56, 64
3, 487296, Note_off_c, 1, 53, 64
3, 487296, Note_on_c, 1, 53, 55
3, 487296, Note_on_c, 1, 56, 55
3, 487680, Note_off_c, 1, 56, 64
3, 487680, Note_off_c, 1, 53, 64
3, 487680, Note_on_c, 1, 53, 57
3, 487680, Note_on_c, 1, 56, 57
3, 488064, Note_off_c, 1, 56, 64
3, 488064, Note_off_c, 1, 53, 64
3, 488064, Note_off_c, 1, 49, 64
3, 488064, Note_on_c, 1, 48, 58
3, 488064, Note_on_c, 1, 51, 58
3, 488064, Note_on_c, 1, 53, 58
3, 488448, Note_off_c, 1, 53, 64
3, 488448, Note_off_c, 1, 51, 64
3, 488448, Note_on_c, 1, 51, 60
3, 488448, Note_on_c, 1, 53, 60
3, 488832, Note_off_c, 1, 53, 64
3, 488832, Note_off_c, 1, 51, 64
3, 488832, Note_on_c, 1, 51, 61
3, 488832, Note_on_c, 1, 53, 61
3, 489216, Note_off_c, 1, 53, 64
3, 489216, Note_off_c, 1, 51, 64
3, 489216, Note_on_c, 1, 51, 63
3, 489216, Note_on_c, 1, 53, 63
3, 489600, Note_off_c, 1, 53, 64
3, 489600, Note_off_c, 1, 51, 64
3, 489600, Note_off_c, 1, 48, 64
3, 489600, Note_on_c, 1, 46, 66
3, 489984, Note_on_c, 1, 49, 66
3, 489984, Note_on_c, 1, 53, 66
3, 490368, Note_off_c, 1, 53, 64
3, 490368, Note_off_c, 1, 49, 64
3, 490368, Note_on_c, 1, 49, 65
3, 490368, Note_on_c, 1, 53, 65
3, 490752, Note_off_c, 1, 53, 64
3, 490752, Note_off_c, 1, 49, 64
3, 490752, Note_on_c, 1, 49, 65
3, 490752, Note_on_c, 1, 53, 65
3, 491136, Note_off_c, 1, 53, 64
3, 491136, Note_off_c, 1, 49, 64
3, 491136, Note_off_c, 1, 46, 64
3, 491136, Note_on_c, 1, 46, 64
3, 491520, Note_on_c, 1, 49, 63
3, 491520, Note_on_c, 1, 55, 63
3, 491904, Note_off_c, 1, 55, 64
3, 491904, Note_off_c, 1, 49, 64
3, 491904, Note_off_c, 1, 46, 64
3, 491904, Note_on_c, 1, 47, 62
3, 492288, Note_on_c, 1, 50, 54
3, 492288, Note_on_c, 1, 55, 54
3, 492672, Note_off_c, 1, 55, 64
3, 492672, Note_off_c, 1, 50, 64
3, 492672, Note_off_c, 1, 47, 64
3, 492672, Note_on_c, 1, 48, 46
3, 492800, Note_off_c, 1, 48, 64
3, 492800, Note_on_c, 1, 52, 47
3, 492928, Note_off_c, 1, 52, 64
3, 492928, Note_on_c, 1, 55, 47
3, 493056, Note_off_c, 1, 55, 64
3, 493440, Note_on_c, 1, 60, 47
3, 493632, Note_off_c, 1, 60, 64
3, 493824, Note_on_c, 1, 60, 48
3, 494016, Note_off_c, 1, 60, 64
3, 494208, Note_on_c, 1, 60, 48
3, 494400, Note_off_c, 1, 60, 64
3, 494976, Note_on_c, 1, 48, 54
3, 495168, Note_off_c, 1, 48, 64
3, 495360, Note_on_c, 1, 47, 55
3, 495552, Note_off_c, 1, 47, 64
3, 495744, Note_on_c, 1, 48, 55
3, 495872, Note_off_c, 1, 48, 64
3, 495872, Note_on_c, 1, 52, 55
3, 496000, Note_off_c, 1, 52, 64
3, 496000, Note_on_c, 1, 55, 55
3, 496128, Note_off_c, 1, 55, 64
3, 496512, Note_on_c, 1, 60, 51
3, 496704, Note_off_c, 1, 60, 64
3, 496896, Note_on_c, 1, 60, 52
3, 497088, Note_off_c, 1, 60, 64
3, 497280, Note_on_c, 1, 60, 52
3, 497472, Note_off_c, 1, 60, 64
3, 498048, Note_on_c, 1, 48, 58
3, 498240, Note_off_c, 1, 48, 64
3, 498432, Note_on_c, 1, 47, 58
3, 498624, Note_off_c, 1, 47, 64
3, 498816, Note_on_c, 1, 48, 59
3, 499584, Note_on_c, 1, 58, 68
3, 499968, Note_off_c, 1, 58, 64
3, 499968, Note_on_c, 1, 57, 55
3, 500352, Note_off_c, 1, 57, 64
3, 500352, Note_on_c, 1, 58, 56
3, 500736, Note_off_c, 1, 58, 64
3, 500736, Note_off_c, 1, 48, 64
3, 500736, Note_on_c, 1, 48, 56
3, 501120, Note_on_c, 1, 58, 64
3, 501504, Note_off_c, 1, 58, 64
3, 501504, Note_on_c, 1, 57, 57
3, 501888, Note_off_c, 1, 57, 64
3, 501888, Note_on_c, 1, 58, 57
3, 502272, Note_off_c, 1, 58, 64
3, 502272, Note_off_c, 1, 48, 64
3, 502272, Note_on_c, 1, 48, 58
3, 502656, Note_on_c, 1, 58, 70
3, 503040, Note_off_c, 1, 58, 64
3, 503040, Note_on_c, 1, 57, 59
3, 503424, Note_off_c, 1, 57, 64
3, 503424, Note_off_c, 1, 48, 64
3, 503424, Note_on_c, 1, 48, 59
3, 503424, Note_on_c, 1, 58, 59
3, 504960, Note_off_c, 1, 58, 64
3, 504960, Note_on_c, 1, 55, 61
3, 506496, Note_off_c, 1, 55, 64
3, 506496, Note_on_c, 1, 52, 63
3, 508032, Note_off_c, 1, 52, 64
3, 508032, Note_on_c, 1, 58, 65
3, 509568, Note_off_c, 1, 58, 64
3, 509568, Note_off_c, 1, 48, 64
3, 509568, Note_on_c, 1, 53, 68
3, 509696, Note_off_c, 1, 53, 64
3, 509696, Note_on_c, 1, 56, 68
3, 509824, Note_off_c, 1, 56, 64
3, 509824, Note_on_c, 1, 60, 68
3, 509952, Note_off_c, 1, 60, 64
3, 509952, Note_on_c, 1, 53, 68
3, 510080, Note_off_c, 1, 53, 64
3, 510080, Note_on_c, 1, 56, 64
3, 510208, Note_off_c, 1, 56, 64
3, 510208, Note_on_c, 1, 60, 64
3, 510336, Note_off_c, 1, 60, 64
3, 510336, Note_on_c, 1, 53, 64
3, 510464, Note_off_c, 1, 53, 64
3, 510464, Note_on_c, 1, 56, 64
3, 510592, Note_off_c, 1, 56, 64
3, 510592, Note_on_c, 1, 60, 64
3, 510720, Note_off_c, 1, 60, 64
3, 510720, Note_on_c, 1, 53, 64
3, 510848, Note_off_c, 1, 53, 64
3, 510848, Note_on_c, 1, 58, 66
3, 510976, Note_off_c, 1, 58, 64
3, 510976, Note_on_c, 1, 61, 68
3, 511104, Note_off_c, 1, 61, 64
3, 511104, Note_on_c, 1, 53, 71
3, 511232, Note_off_c, 1, 53, 64
3, 511232, Note_on_c, 1, 60, 73
3, 511360, Note_off_c, 1, 60, 64
3, 511360, Note_on_c, 1, 56, 76
3, 511488, Note_off_c, 1, 56, 64
3, 511488, Note_on_c, 1, 53, 78
3, 511616, Note_off_c, 1, 53, 64
3, 511616, Note_on_c, 1, 48, 81
3, 511744, Note_off_c, 1, 48, 64
3, 511744, Note_on_c, 1, 44, 79
3, 511872, Note_off_c, 1, 44, 64
3, 511872, Note_on_c, 1, 41, 79
3, 512000, Note_off_c, 1, 41, 64
3, 512000, Note_on_c, 1, 44, 80
3, 512128, Note_off_c, 1, 44, 64
3, 512128, Note_on_c, 1, 48, 80
3, 512256, Note_off_c, 1, 48, 64
3, 512256, Note_on_c, 1, 40, 81
3, 512384, Note_off_c, 1, 40, 64
3, 512384, Note_on_c, 1, 43, 81
3, 512512, Note_off_c, 1, 43, 64
3, 512512, Note_on_c, 1, 48, 81
3, 512640, Note_off_c, 1, 48, 64
3, 512640, Note_on_c, 1, 41, 77
3, 512768, Note_off_c, 1, 41, 64
3, 512768, Note_on_c, 1, 44, 76
3, 512896, Note_off_c, 1, 44, 64
3, 512896, Note_on_c, 1, 48, 76
3, 513024, Note_off_c, 1, 48, 64
3, 513024, Note_on_c, 1, 53, 75
3, 513152, Note_off_c, 1, 53, 64
3, 513152, Note_on_c, 1, 56, 74
3, 513280, Note_off_c, 1, 56, 64
3, 513280, Note_on_c, 1, 60, 74
3, 513408, Note_off_c, 1, 60, 64
3, 513408, Note_on_c, 1, 53, 73
3, 513536, Note_off_c, 1, 53, 64
3, 513536, Note_on_c, 1, 56, 73
3, 513664, Note_off_c, 1, 56, 64
3, 513664, Note_on_c, 1, 60, 72
3, 513792, Note_off_c, 1, 60, 64
3, 513792, Note_on_c, 1, 53, 72
3, 513920, Note_off_c, 1, 53, 64
3, 513920, Note_on_c, 1, 58, 71
3, 514048, Note_off_c, 1, 58, 64
3, 514048, Note_on_c, 1, 61, 71
3, 514176, Note_off_c, 1, 61, 64
3, 514176, Note_on_c, 1, 53, 70
3, 514304, Note_off_c, 1, 53, 64
3, 514304, Note_on_c, 1, 60, 71
3, 514432, Note_off_c, 1, 60, 64
3, 514432, Note_on_c, 1, 56, 72
3, 514560, Note_off_c, 1, 56, 64
3, 514560, Note_on_c, 1, 53, 74
3, 514688, Note_off_c, 1, 53, 64
3, 514688, Note_on_c, 1, 48, 75
3, 514816, Note_off_c, 1, 48, 64
3, 514816, Note_on_c, 1, 44, 76
3, 514944, Note_off_c, 1, 44, 64
3, 514944, Note_on_c, 1, 41, 81
3, 515072, Note_off_c, 1, 41, 64
3, 515072, Note_on_c, 1, 44, 81
3, 515200, Note_off_c, 1, 44, 64
3, 515200, Note_on_c, 1, 48, 81
3, 515328, Note_off_c, 1, 48, 64
3, 515328, Note_on_c, 1, 40, 81
3, 515456, Note_off_c, 1, 40, 64
3, 515456, Note_on_c, 1, 43, 81
3, 515584, Note_off_c, 1, 43, 64
3, 515584, Note_on_c, 1, 48, 82
3, 515712, Note_off_c, 1, 48, 64
3, 515712, Note_on_c, 1, 41, 80
3, 515840, Note_off_c, 1, 41, 64
3, 515840, Note_on_c, 1, 44, 78
3, 515968, Note_off_c, 1, 44, 64
3, 515968, Note_on_c, 1, 48, 76
3, 516096, Note_off_c, 1, 48, 64
3, 516096, Note_on_c, 1, 53, 75
3, 516224, Note_off_c, 1, 53, 64
3, 516224, Note_on_c, 1, 56, 73
3, 516352, Note_off_c, 1, 56, 64
3, 516352, Note_on_c, 1, 60, 71
3, 516480, Note_off_c, 1, 60, 64
3, 516480, Note_on_c, 1, 55, 70
3, 516480, Note_on_c, 1, 61, 70
3, 516864, Note_off_c, 1, 61, 64
3, 516864, Note_on_c, 1, 58, 43
3, 517248, Note_off_c, 1, 58, 64
3, 517248, Note_off_c, 1, 55, 64
3, 517248, Note_on_c, 1, 56, 45
3, 517248, Note_on_c, 1, 60, 45
3, 518016, Note_off_c, 1, 60, 64
3, 518016, Note_off_c, 1, 56, 64
3, 518016, Note_on_c, 1, 55, 49
3, 518016, Note_on_c, 1, 61, 49
3, 518400, Note_off_c, 1, 61, 64
3, 518400, Note_on_c, 1, 58, 51
3, 518784, Note_off_c, 1, 58, 64
3, 518784, Note_off_c, 1, 55, 64
3, 518784, Note_on_c, 1, 56, 53
3, 518784, Note_on_c, 1, 60, 53
3, 519552, Note_off_c, 1, 60, 64
3, 519552, Note_off_c, 1, 56, 64
3, 519552, Note_on_c, 1, 55, 57
3, 519552, Note_on_c, 1, 61, 57
3, 519936, Note_off_c, 1, 61, 64
3, 519936, Note_on_c, 1, 58, 59
3, 520320, Note_off_c, 1, 58, 64
3, 520320, Note_off_c, 1, 55, 64
3, 520320, Note_on_c, 1, 56, 61
3, 520320, Note_on_c, 1, 60, 61
3, 520704, Note_off_c, 1, 60, 64
3, 520704, Note_off_c, 1, 56, 64
3, 520704, Note_on_c, 1, 52, 62
3, 520704, Note_on_c, 1, 55, 62
3, 521088, Note_off_c, 1, 55, 64
3, 521088, Note_off_c, 1, 52, 64
3, 521088, Note_on_c, 1, 53, 64
3, 521088, Note_on_c, 1, 56, 64
3, 521472, Note_off_c, 1, 56, 64
3, 521472, Note_off_c, 1, 53, 64
3, 521472, Note_on_c, 1, 49, 66
3, 521472, Note_on_c, 1, 53, 66
3, 521856, Note_off_c, 1, 53, 64
3, 521856, Note_off_c, 1, 49, 64
3, 521856, Note_on_c, 1, 48, 64
3, 521856, Note_on_c, 1, 52, 64
3, 522048, Note_off_c, 1, 52, 64
3, 522048, Note_off_c, 1, 48, 64
3, 522240, Note_on_c, 1, 60, 54
3, 522432, Note_off_c, 1, 60, 64
3, 522624, Note_on_c, 1, 64, 54
3, 522624, Note_on_c, 1, 70, 54
3, 523008, Note_off_c, 1, 70, 64
3, 523008, Note_on_c, 1, 67, 54
3, 523392, Note_off_c, 1, 67, 64
3, 523392, Note_off_c, 1, 64, 64
3, 523392, Note_on_c, 1, 65, 54
3, 523392, Note_on_c, 1, 68, 54
3, 524160, Note_off_c, 1, 68, 64
3, 524160, Note_off_c, 1, 65, 64
3, 524160, Note_on_c, 1, 60, 55
3, 524352, Note_off_c, 1, 60, 64
3, 524544, Note_on_c, 1, 60, 56
3, 524736, Note_off_c, 1, 60, 64
3, 524928, Note_on_c, 1, 60, 56
3, 525312, Note_off_c, 1, 60, 64
3, 525312, Note_on_c, 1, 65, 56
3, 525504, Note_off_c, 1, 65, 64
3, 525696, Note_on_c, 1, 64, 57
3, 525696, Note_on_c, 1, 70, 57
3, 526080, Note_off_c, 1, 70, 64
3, 526080, Note_on_c, 1, 67, 57
3, 526464, Note_off_c, 1, 67, 64
3, 526464, Note_off_c, 1, 64, 64
3, 526464, Note_on_c, 1, 65, 57
3, 526464, Note_on_c, 1, 68, 57
3, 527232, Note_off_c, 1, 68, 64
3, 527232, Note_off_c, 1, 65, 64
3, 527232, Note_on_c, 1, 60, 58
3, 527424, Note_off_c, 1, 60, 64
3, 527616, Note_on_c, 1, 60, 58
3, 527808, Note_off_c, 1, 60, 64
3, 528000, Note_on_c, 1, 60, 30
3, 528076, Note_off_c, 1, 60, 64
3, 528076, Note_on_c, 1, 61, 36
3, 528154, Note_off_c, 1, 61, 64
3, 528154, Note_on_c, 1, 60, 42
3, 528230, Note_off_c, 1, 60, 64
3, 528230, Note_on_c, 1, 59, 47
3, 528308, Note_off_c, 1, 59, 64
3, 528308, Note_on_c, 1, 60, 53
3, 528384, Note_off_c, 1, 60, 64
3, 528384, Note_on_c, 1, 65, 58
3, 528576, Note_off_c, 1, 65, 64
3, 528768, Note_on_c, 1, 52, 59
3, 528768, Note_on_c, 1, 55, 59
3, 529152, Note_off_c, 1, 55, 64
3, 529152, Note_off_c, 1, 52, 64
3, 529152, Note_on_c, 1, 52, 60
3, 529152, Note_on_c, 1, 55, 60
3, 529536, Note_off_c, 1, 55, 64
3, 529536, Note_off_c, 1, 52, 64
3, 529536, Note_on_c, 1, 53, 60
3, 529536, Note_on_c, 1, 56, 60
3, 529920, Note_off_c, 1, 56, 64
3, 529920, Note_off_c, 1, 53, 64
3, 530304, Note_on_c, 1, 49, 61
3, 530304, Note_on_c, 1, 53, 61
3, 530688, Note_off_c, 1, 53, 64
3, 530688, Note_off_c, 1, 49, 64
3, 531072, Note_on_c, 1, 48, 54
3, 531200, Note_off_c, 1, 48, 64
3, 531200, Note_on_c, 1, 52, 54
3, 531328, Note_off_c, 1, 52, 64
3, 531328, Note_on_c, 1, 55, 54
3, 531456, Note_off_c, 1, 55, 64
3, 531456, Note_on_c, 1, 48, 54
3, 531584, Note_off_c, 1, 48, 64
3, 531584, Note_on_c, 1, 52, 54
3, 531712, Note_off_c, 1, 52, 64
3, 531712, Note_on_c, 1, 55, 54
3, 531840, Note_off_c, 1, 55, 64
3, 531840, Note_on_c, 1, 48, 54
3, 531968, Note_off_c, 1, 48, 64
3, 531968, Note_on_c, 1, 52, 54
3, 532096, Note_off_c, 1, 52, 64
3, 532096, Note_on_c, 1, 55, 54
3, 532224, Note_off_c, 1, 55, 64
3, 532224, Note_on_c, 1, 48, 54
3, 532352, Note_off_c, 1, 48, 64
3, 532352, Note_on_c, 1, 52, 59
3, 532480, Note_off_c, 1, 52, 64
3, 532480, Note_on_c, 1, 55, 61
3, 532608, Note_off_c, 1, 55, 64
3, 532608, Note_on_c, 1, 48, 63
3, 532736, Note_off_c, 1, 48, 64
3, 532736, Note_on_c, 1, 55, 65
3, 532864, Note_off_c, 1, 55, 64
3, 532864, Note_on_c, 1, 52, 67
3, 532992, Note_off_c, 1, 52, 64
3, 532992, Note_on_c, 1, 48, 69
3, 533120, Note_off_c, 1, 48, 64
3, 533120, Note_on_c, 1, 43, 71
3, 533248, Note_off_c, 1, 43, 64
3, 533248, Note_on_c, 1, 40, 75
3, 533376, Note_off_c, 1, 40, 64
3, 533376, Note_on_c, 1, 36, 76
3, 533504, Note_off_c, 1, 36, 64
3, 533504, Note_on_c, 1, 40, 76
3, 533632, Note_off_c, 1, 40, 64
3, 533632, Note_on_c, 1, 43, 77
3, 533760, Note_off_c, 1, 43, 64
3, 533760, Note_on_c, 1, 36, 77
3, 533888, Note_off_c, 1, 36, 64
3, 533888, Note_on_c, 1, 40, 77
3, 534016, Note_off_c, 1, 40, 64
3, 534016, Note_on_c, 1, 43, 78
3, 534144, Note_off_c, 1, 43, 64
3, 534144, Note_on_c, 1, 36, 78
3, 534272, Note_off_c, 1, 36, 64
3, 534272, Note_on_c, 1, 40, 80
3, 534400, Note_off_c, 1, 40, 64
3, 534400, Note_on_c, 1, 43, 78
3, 534528, Note_off_c, 1, 43, 64
3, 534528, Note_on_c, 1, 48, 75
3, 534656, Note_off_c, 1, 48, 64
3, 534656, Note_on_c, 1, 52, 72
3, 534784, Note_off_c, 1, 52, 64
3, 534784, Note_on_c, 1, 55, 69
3, 534912, Note_off_c, 1, 55, 64
3, 534912, Note_on_c, 1, 48, 64
3, 535040, Note_off_c, 1, 48, 64
3, 535040, Note_on_c, 1, 52, 64
3, 535168, Note_off_c, 1, 52, 64
3, 535168, Note_on_c, 1, 55, 64
3, 535296, Note_off_c, 1, 55, 64
3, 535296, Note_on_c, 1, 48, 64
3, 535424, Note_off_c, 1, 48, 64
3, 535424, Note_on_c, 1, 52, 64
3, 535552, Note_off_c, 1, 52, 64
3, 535552, Note_on_c, 1, 55, 64
3, 535680, Note_off_c, 1, 55, 64
3, 535680, Note_on_c, 1, 48, 64
3, 535808, Note_off_c, 1, 48, 64
3, 535808, Note_on_c, 1, 55, 64
3, 535936, Note_off_c, 1, 55, 64
3, 535936, Note_on_c, 1, 52, 66
3, 536064, Note_off_c, 1, 52, 64
3, 536064, Note_on_c, 1, 48, 68
3, 536192, Note_off_c, 1, 48, 64
3, 536192, Note_on_c, 1, 43, 70
3, 536320, Note_off_c, 1, 43, 64
3, 536320, Note_on_c, 1, 40, 73
3, 536448, Note_off_c, 1, 40, 64
3, 536448, Note_on_c, 1, 36, 73
3, 536576, Note_off_c, 1, 36, 64
3, 536576, Note_on_c, 1, 40, 73
3, 536704, Note_off_c, 1, 40, 64
3, 536704, Note_on_c, 1, 43, 74
3, 536832, Note_off_c, 1, 43, 64
3, 536832, Note_on_c, 1, 36, 74
3, 536960, Note_off_c, 1, 36, 64
3, 536960, Note_on_c, 1, 40, 74
3, 537088, Note_off_c, 1, 40, 64
3, 537088, Note_on_c, 1, 43, 75
3, 537216, Note_off_c, 1, 43, 64
3, 537216, Note_on_c, 1, 36, 75
3, 537344, Note_off_c, 1, 36, 64
3, 537344, Note_on_c, 1, 40, 76
3, 537472, Note_off_c, 1, 40, 64
3, 537472, Note_on_c, 1, 43, 76
3, 537600, Note_off_c, 1, 43, 64
3, 537600, Note_on_c, 1, 48, 76
3, 537728, Note_off_c, 1, 48, 64
3, 537728, Note_on_c, 1, 43, 77
3, 537856, Note_off_c, 1, 43, 64
3, 537856, Note_on_c, 1, 40, 77
3, 537984, Note_off_c, 1, 40, 64
3, 537984, Note_on_c, 1, 36, 77
3, 538112, Note_off_c, 1, 36, 64
3, 538112, Note_on_c, 1, 40, 78
3, 538240, Note_off_c, 1, 40, 64
3, 538240, Note_on_c, 1, 43, 78
3, 538368, Note_off_c, 1, 43, 64
3, 538368, Note_on_c, 1, 36, 78
3, 538496, Note_off_c, 1, 36, 64
3, 538496, Note_on_c, 1, 40, 79
3, 538624, Note_off_c, 1, 40, 64
3, 538624, Note_on_c, 1, 43, 79
3, 538752, Note_off_c, 1, 43, 64
3, 538752, Note_on_c, 1, 36, 79
3, 538880, Note_off_c, 1, 36, 64
3, 538880, Note_on_c, 1, 40, 80
3, 539008, Note_off_c, 1, 40, 64
3, 539008, Note_on_c, 1, 43, 80
3, 539136, Note_off_c, 1, 43, 64
3, 539136, Note_on_c, 1, 48, 80
3, 539264, Note_off_c, 1, 48, 64
3, 539264, Note_on_c, 1, 43, 81
3, 539392, Note_off_c, 1, 43, 64
3, 539392, Note_on_c, 1, 40, 81
3, 539520, Note_off_c, 1, 40, 64
3, 539520, Note_on_c, 1, 36, 81
3, 539648, Note_off_c, 1, 36, 64
3, 539648, Note_on_c, 1, 40, 82
3, 539776, Note_off_c, 1, 40, 64
3, 539776, Note_on_c, 1, 43, 82
3, 539904, Note_off_c, 1, 43, 64
3, 539904, Note_on_c, 1, 36, 83
3, 540032, Note_off_c, 1, 36, 64
3, 540032, Note_on_c, 1, 40, 83
3, 540160, Note_off_c, 1, 40, 64
3, 540160, Note_on_c, 1, 43, 83
3, 540288, Note_off_c, 1, 43, 64
3, 540288, Note_on_c, 1, 36, 84
3, 540416, Note_off_c, 1, 36, 64
3, 540416, Note_on_c, 1, 40, 84
3, 540544, Note_off_c, 1, 40, 64
3, 540544, Note_on_c, 1, 43, 84
3, 540672, Note_off_c, 1, 43, 64
3, 540672, Note_on_c, 1, 48, 85
3, 540800, Note_off_c, 1, 48, 64
3, 540800, Note_on_c, 1, 43, 85
3, 540928, Note_off_c, 1, 43, 64
3, 540928, Note_on_c, 1, 40, 85
3, 541056, Note_off_c, 1, 40, 64
3, 541056, Note_on_c, 1, 36, 86
3, 541184, Note_off_c, 1, 36, 64
3, 541184, Note_on_c, 1, 40, 86
3, 541312, Note_off_c, 1, 40, 64
3, 541312, Note_on_c, 1, 43, 86
3, 541440, Note_off_c, 1, 43, 64
3, 541440, Note_on_c, 1, 48, 87
3, 541568, Note_off_c, 1, 48, 64
3, 541568, Note_on_c, 1, 43, 87
3, 541696, Note_off_c, 1, 43, 64
3, 541696, Note_on_c, 1, 40, 87
3, 541824, Note_off_c, 1, 40, 64
3, 541824, Note_on_c, 1, 36, 88
3, 542208, Note_off_c, 1, 36, 64
3, 544256, Note_on_c, 1, 49, 82
3, 544384, Note_off_c, 1, 49, 64
3, 544384, Note_on_c, 1, 48, 81
3, 544512, Note_off_c, 1, 48, 64
3, 544512, Note_on_c, 1, 46, 80
3, 544640, Note_off_c, 1, 46, 64
3, 544640, Note_on_c, 1, 44, 79
3, 544768, Note_off_c, 1, 44, 64
3, 544768, Note_on_c, 1, 43, 78
3, 544896, Note_off_c, 1, 43, 64
3, 544896, Note_on_c, 1, 41, 77
3, 545280, Note_off_c, 1, 41, 64
3, 545280, Note_on_c, 1, 49, 75
3, 545664, Note_off_c, 1, 49, 64
3, 545664, Note_on_c, 1, 48, 75
3, 546048, Note_off_c, 1, 48, 64
3, 546048, Note_on_c, 1, 47, 75
3, 546432, Note_off_c, 1, 47, 64
3, 546432, Note_on_c, 1, 48, 75
3, 546816, Note_off_c, 1, 48, 64
3, 546816, Note_on_c, 1, 49, 75
3, 547200, Note_off_c, 1, 49, 64
3, 547200, Note_on_c, 1, 48, 75
3, 547584, Note_off_c, 1, 48, 64
3, 547584, Note_on_c, 1, 47, 75
3, 547968, Note_off_c, 1, 47, 64
3, 547968, Note_on_c, 1, 48, 75
3, 548352, Note_off_c, 1, 48, 64
3, 548352, Note_on_c, 1, 49, 75
3, 548352, Note_on_c, 1, 61, 75
3, 548736, Note_off_c, 1, 61, 64
3, 548736, Note_off_c, 1, 49, 64
3, 548736, Note_on_c, 1, 48, 76
3, 548736, Note_on_c, 1, 60, 76
3, 549120, Note_off_c, 1, 60, 64
3, 549120, Note_off_c, 1, 48, 64
3, 549120, Note_on_c, 1, 47, 76
3, 549120, Note_on_c, 1, 59, 76
3, 549504, Note_off_c, 1, 59, 64
3, 549504, Note_off_c, 1, 47, 64
3, 549504, Note_on_c, 1, 48, 76
3, 549504, Note_on_c, 1, 60, 76
3, 549888, Note_off_c, 1, 60, 64
3, 549888, Note_off_c, 1, 48, 64
3, 549888, Note_on_c, 1, 49, 76
3, 549888, Note_on_c, 1, 61, 76
3, 550272, Note_off_c, 1, 61, 64
3, 550272, Note_off_c, 1, 49, 64
3, 550272, Note_on_c, 1, 48, 76
3, 550272, Note_on_c, 1, 60, 76
3, 550656, Note_off_c, 1, 60, 64
3, 550656, Note_off_c, 1, 48, 64
3, 550656, Note_on_c, 1, 47, 76
3, 550656, Note_on_c, 1, 59, 76
3, 551040, Note_off_c, 1, 59, 64
3, 551040, Note_off_c, 1, 47, 64
3, 551040, Note_on_c, 1, 48, 76
3, 551040, Note_on_c, 1, 60, 76
3, 551424, Note_off_c, 1, 60, 64
3, 551424, Note_off_c, 1, 48, 64
3, 551424, Note_on_c, 1, 61, 76
3, 551808, Note_off_c, 1, 61, 64
3, 551808, Note_on_c, 1, 62, 76
3, 552192, Note_off_c, 1, 62, 64
3, 552192, Note_on_c, 1, 63, 77
3, 552576, Note_off_c, 1, 63, 64
3, 552576, Note_on_c, 1, 57, 77
3, 552960, Note_off_c, 1, 57, 64
3, 552960, Note_on_c, 1, 58, 77
3, 553344, Note_off_c, 1, 58, 64
3, 553344, Note_on_c, 1, 55, 77
3, 553728, Note_off_c, 1, 55, 64
3, 553728, Note_on_c, 1, 56, 77
3, 554112, Note_off_c, 1, 56, 64
3, 554112, Note_on_c, 1, 52, 77
3, 554496, Note_off_c, 1, 52, 64
3, 554496, Note_on_c, 1, 53, 77
3, 554880, Note_off_c, 1, 53, 64
3, 554880, Note_on_c, 1, 46, 77
3, 555264, Note_off_c, 1, 46, 64
3, 555264, Note_on_c, 1, 47, 77
3, 555648, Note_off_c, 1, 47, 64
3, 555648, Note_on_c, 1, 36, 78
3, 555840, Note_off_c, 1, 36, 64
3, 555840, Note_on_c, 1, 48, 78
3, 556032, Note_off_c, 1, 48, 64
3, 556032, Note_on_c, 1, 36, 78
3, 556224, Note_off_c, 1, 36, 64
3, 556224, Note_on_c, 1, 48, 78
3, 556416, Note_off_c, 1, 48, 64
3, 556416, Note_on_c, 1, 36, 78
3, 556608, Note_off_c, 1, 36, 64
3, 556608, Note_on_c, 1, 48, 78
3, 556800, Note_off_c, 1, 48, 64
3, 556800, Note_on_c, 1, 36, 78
3, 556992, Note_off_c, 1, 36, 64
3, 556992, Note_on_c, 1, 48, 78
3, 557184, Note_off_c, 1, 48, 64
3, 557184, Note_on_c, 1, 36, 78
3, 557568, Note_off_c, 1, 36, 64
3, 557568, Note_on_c, 1, 53, 78
3, 557760, Note_off_c, 1, 53, 64
3, 557760, Note_on_c, 1, 65, 78
3, 557952, Note_off_c, 1, 65, 64
3, 557952, Note_on_c, 1, 50, 78
3, 558144, Note_off_c, 1, 50, 64
3, 558144, Note_on_c, 1, 62, 78
3, 558336, Note_off_c, 1, 62, 64
3, 558336, Note_on_c, 1, 51, 78
3, 558528, Note_off_c, 1, 51, 64
3, 558528, Note_on_c, 1, 63, 78
3, 558720, Note_off_c, 1, 63, 64
3, 558720, Note_on_c, 1, 45, 78
3, 558912, Note_off_c, 1, 45, 64
3, 558912, Note_on_c, 1, 57, 79
3, 559104, Note_off_c, 1, 57, 64
3, 559104, Note_on_c, 1, 46, 79
3, 559296, Note_off_c, 1, 46, 64
3, 559296, Note_on_c, 1, 58, 79
3, 559488, Note_off_c, 1, 58, 64
3, 559488, Note_on_c, 1, 43, 79
3, 559680, Note_off_c, 1, 43, 64
3, 559680, Note_on_c, 1, 55, 79
3, 559872, Note_off_c, 1, 55, 64
3, 559872, Note_on_c, 1, 44, 77
3, 560064, Note_off_c, 1, 44, 64
3, 560064, Note_on_c, 1, 56, 76
3, 560256, Note_off_c, 1, 56, 64
3, 560256, Note_on_c, 1, 40, 74
3, 560448, Note_off_c, 1, 40, 64
3, 560448, Note_on_c, 1, 52, 73
3, 560640, Note_off_c, 1, 52, 64
3, 560640, Note_on_c, 1, 41, 71
3, 560832, Note_off_c, 1, 41, 64
3, 560832, Note_on_c, 1, 53, 69
3, 561024, Note_off_c, 1, 53, 64
3, 561024, Note_on_c, 1, 34, 68
3, 561216, Note_off_c, 1, 34, 64
3, 561216, Note_on_c, 1, 46, 66
3, 561408, Note_off_c, 1, 46, 64
3, 561408, Note_on_c, 1, 35, 64
3, 561600, Note_off_c, 1, 35, 64
3, 561600, Note_on_c, 1, 47, 63
3, 561792, Note_off_c, 1, 47, 64
3, 561792, Note_on_c, 1, 36, 61
3, 561984, Note_off_c, 1, 36, 64
3, 561984, Note_on_c, 1, 48, 59
3, 562176, Note_off_c, 1, 48, 64
3, 562176, Note_on_c, 1, 36, 58
3, 562368, Note_off_c, 1, 36, 64
3, 562368, Note_on_c, 1, 48, 56
3, 562560, Note_off_c, 1, 48, 64
3, 562560, Note_on_c, 1, 36, 55
3, 562752, Note_off_c, 1, 36, 64
3, 562752, Note_on_c, 1, 48, 53
3, 562944, Note_off_c, 1, 48, 64
3, 562944, Note_on_c, 1, 36, 51
3, 563136, Note_off_c, 1, 36, 64
3, 563136, Note_on_c, 1, 48, 50
3, 563328, Note_off_c, 1, 48, 64
3, 563328, Note_on_c, 1, 41, 43
3, 563456, Note_off_c, 1, 41, 64
3, 563456, Note_on_c, 1, 44, 43
3, 563584, Note_off_c, 1, 44, 64
3, 563584, Note_on_c, 1, 48, 43
3, 563712, Note_off_c, 1, 48, 64
3, 563712, Note_on_c, 1, 41, 46
3, 563840, Note_off_c, 1, 41, 64
3, 563840, Note_on_c, 1, 44, 45
3, 563968, Note_off_c, 1, 44, 64
3, 563968, Note_on_c, 1, 48, 47
3, 564096, Note_off_c, 1, 48, 64
3, 564096, Note_on_c, 1, 41, 45
3, 564224, Note_off_c, 1, 41, 64
3, 564224, Note_on_c, 1, 44, 46
3, 564352, Note_off_c, 1, 44, 64
3, 564352, Note_on_c, 1, 49, 46
3, 564480, Note_off_c, 1, 49, 64
3, 564480, Note_on_c, 1, 41, 47
3, 564608, Note_off_c, 1, 41, 64
3, 564608, Note_on_c, 1, 44, 48
3, 564736, Note_off_c, 1, 44, 64
3, 564736, Note_on_c, 1, 49, 44
3, 564864, Note_off_c, 1, 49, 64
3, 564864, Note_on_c, 1, 43, 46
3, 564992, Note_off_c, 1, 43, 64
3, 564992, Note_on_c, 1, 46, 43
3, 565120, Note_off_c, 1, 46, 64
3, 565120, Note_on_c, 1, 49, 45
3, 565248, Note_off_c, 1, 49, 64
3, 565248, Note_on_c, 1, 43, 42
3, 565376, Note_off_c, 1, 43, 64
3, 565376, Note_on_c, 1, 46, 48
3, 565504, Note_off_c, 1, 46, 64
3, 565504, Note_on_c, 1, 49, 48
3, 565632, Note_off_c, 1, 49, 64
3, 565632, Note_on_c, 1, 43, 43
3, 565760, Note_off_c, 1, 43, 64
3, 565760, Note_on_c, 1, 46, 44
3, 565888, Note_off_c, 1, 46, 64
3, 565888, Note_on_c, 1, 51, 43
3, 566016, Note_off_c, 1, 51, 64
3, 566016, Note_on_c, 1, 43, 48
3, 566144, Note_off_c, 1, 43, 64
3, 566144, Note_on_c, 1, 46, 46
3, 566272, Note_off_c, 1, 46, 64
3, 566272, Note_on_c, 1, 51, 42
3, 566400, Note_off_c, 1, 51, 64
3, 566400, Note_on_c, 1, 44, 47
3, 566528, Note_off_c, 1, 44, 64
3, 566528, Note_on_c, 1, 48, 42
3, 566656, Note_off_c, 1, 48, 64
3, 566656, Note_on_c, 1, 51, 43
3, 566784, Note_off_c, 1, 51, 64
3, 566784, Note_on_c, 1, 44, 43
3, 566912, Note_off_c, 1, 44, 64
3, 566912, Note_on_c, 1, 48, 48
3, 567040, Note_off_c, 1, 48, 64
3, 567040, Note_on_c, 1, 51, 44
3, 567168, Note_off_c, 1, 51, 64
3, 567168, Note_on_c, 1, 45, 44
3, 567296, Note_off_c, 1, 45, 64
3, 567296, Note_on_c, 1, 48, 48
3, 567424, Note_off_c, 1, 48, 64
3, 567424, Note_on_c, 1, 53, 48
3, 567552, Note_off_c, 1, 53, 64
3, 567552, Note_on_c, 1, 45, 48
3, 567680, Note_off_c, 1, 45, 64
3, 567680, Note_on_c, 1, 48, 47
3, 567808, Note_off_c, 1, 48, 64
3, 567808, Note_on_c, 1, 53, 43
3, 567936, Note_off_c, 1, 53, 64
3, 567936, Note_on_c, 1, 46, 45
3, 568064, Note_off_c, 1, 46, 64
3, 568064, Note_on_c, 1, 49, 46
3, 568192, Note_off_c, 1, 49, 64
3, 568192, Note_on_c, 1, 53, 44
3, 568320, Note_off_c, 1, 53, 64
3, 568320, Note_on_c, 1, 46, 46
3, 568448, Note_off_c, 1, 46, 64
3, 568448, Note_on_c, 1, 49, 42
3, 568576, Note_off_c, 1, 49, 64
3, 568576, Note_on_c, 1, 53, 42
3, 568704, Note_off_c, 1, 53, 64
3, 568704, Note_on_c, 1, 46, 47
3, 568832, Note_off_c, 1, 46, 64
3, 568832, Note_on_c, 1, 49, 44
3, 568960, Note_off_c, 1, 49, 64
3, 568960, Note_on_c, 1, 55, 43
3, 569088, Note_off_c, 1, 55, 64
3, 569088, Note_on_c, 1, 46, 43
3, 569216, Note_off_c, 1, 46, 64
3, 569216, Note_on_c, 1, 49, 42
3, 569344, Note_off_c, 1, 49, 64
3, 569344, Note_on_c, 1, 55, 42
3, 569472, Note_off_c, 1, 55, 64
3, 569472, Note_on_c, 1, 48, 48
3, 569600, Note_off_c, 1, 48, 64
3, 569600, Note_on_c, 1, 51, 45
3, 569728, Note_off_c, 1, 51, 64
3, 569728, Note_on_c, 1, 56, 43
3, 569856, Note_off_c, 1, 56, 64
3, 569856, Note_on_c, 1, 48, 46
3, 569984, Note_off_c, 1, 48, 64
3, 569984, Note_on_c, 1, 51, 42
3, 570112, Note_off_c, 1, 51, 64
3, 570112, Note_on_c, 1, 56, 45
3, 570240, Note_off_c, 1, 56, 64
3, 570240, Note_on_c, 1, 48, 48
3, 570368, Note_off_c, 1, 48, 64
3, 570368, Note_on_c, 1, 51, 48
3, 570496, Note_off_c, 1, 51, 64
3, 570496, Note_on_c, 1, 57, 47
3, 570624, Note_off_c, 1, 57, 64
3, 570624, Note_on_c, 1, 48, 42
3, 570752, Note_off_c, 1, 48, 64
3, 570752, Note_on_c, 1, 51, 42
3, 570880, Note_off_c, 1, 51, 64
3, 570880, Note_on_c, 1, 57, 46
3, 571008, Note_off_c, 1, 57, 64
3, 571008, Note_on_c, 1, 49, 43
3, 571136, Note_off_c, 1, 49, 64
3, 571136, Note_on_c, 1, 53, 42
3, 571264, Note_off_c, 1, 53, 64
3, 571264, Note_on_c, 1, 58, 46
3, 571392, Note_off_c, 1, 58, 64
3, 571392, Note_on_c, 1, 49, 48
3, 571520, Note_off_c, 1, 49, 64
3, 571520, Note_on_c, 1, 53, 42
3, 571648, Note_off_c, 1, 53, 64
3, 571648, Note_on_c, 1, 58, 47
3, 571776, Note_off_c, 1, 58, 64
3, 571776, Note_on_c, 1, 50, 43
3, 571904, Note_off_c, 1, 50, 64
3, 571904, Note_on_c, 1, 53, 48
3, 572032, Note_off_c, 1, 53, 64
3, 572032, Note_on_c, 1, 59, 48
3, 572160, Note_off_c, 1, 59, 64
3, 572160, Note_on_c, 1, 50, 48
3, 572288, Note_off_c, 1, 50, 64
3, 572288, Note_on_c, 1, 53, 44
3, 572416, Note_off_c, 1, 53, 64
3, 572416, Note_on_c, 1, 59, 45
3, 572544, Note_off_c, 1, 59, 64
3, 572544, Note_on_c, 1, 48, 46
3, 572672, Note_off_c, 1, 48, 64
3, 572672, Note_on_c, 1, 53, 42
3, 572800, Note_off_c, 1, 53, 64
3, 572800, Note_on_c, 1, 56, 46
3, 572928, Note_off_c, 1, 56, 64
3, 572928, Note_on_c, 1, 48, 42
3, 573056, Note_off_c, 1, 48, 64
3, 573056, Note_on_c, 1, 53, 44
3, 573184, Note_off_c, 1, 53, 64
3, 573184, Note_on_c, 1, 56, 42
3, 573312, Note_off_c, 1, 56, 64
3, 573312, Note_on_c, 1, 48, 48
3, 573440, Note_off_c, 1, 48, 64
3, 573440, Note_on_c, 1, 53, 46
3, 573568, Note_off_c, 1, 53, 64
3, 573568, Note_on_c, 1, 56, 44
3, 573696, Note_off_c, 1, 56, 64
3, 573696, Note_on_c, 1, 48, 48
3, 573824, Note_off_c, 1, 48, 64
3, 573824, Note_on_c, 1, 53, 45
3, 573952, Note_off_c, 1, 53, 64
3, 573952, Note_on_c, 1, 56, 48
3, 574080, Note_off_c, 1, 56, 64
3, 574080, Note_on_c, 1, 48, 44
3, 574208, Note_off_c, 1, 48, 64
3, 574208, Note_on_c, 1, 52, 42
3, 574336, Note_off_c, 1, 52, 64
3, 574336, Note_on_c, 1, 55, 43
3, 574464, Note_off_c, 1, 55, 64
3, 574464, Note_on_c, 1, 48, 45
3, 574592, Note_off_c, 1, 48, 64
3, 574592, Note_on_c, 1, 52, 44
3, 574720, Note_off_c, 1, 52, 64
3, 574720, Note_on_c, 1, 55, 48
3, 574848, Note_off_c, 1, 55, 64
3, 574848, Note_on_c, 1, 48, 43
3, 574976, Note_off_c, 1, 48, 64
3, 574976, Note_on_c, 1, 52, 42
3, 575104, Note_off_c, 1, 52, 64
3, 575104, Note_on_c, 1, 55, 46
3, 575232, Note_off_c, 1, 55, 64
3, 575232, Note_on_c, 1, 48, 47
3, 575360, Note_off_c, 1, 48, 64
3, 575360, Note_on_c, 1, 52, 46
3, 575488, Note_off_c, 1, 52, 64
3, 575488, Note_on_c, 1, 55, 45
3, 575616, Note_off_c, 1, 55, 64
3, 575616, Note_on_c, 1, 41, 43
3, 575744, Note_off_c, 1, 41, 64
3, 575744, Note_on_c, 1, 44, 44
3, 575872, Note_off_c, 1, 44, 64
3, 575872, Note_on_c, 1, 48, 42
3, 576000, Note_off_c, 1, 48, 64
3, 576000, Note_on_c, 1, 41, 46
3, 576128, Note_off_c, 1, 41, 64
3, 576128, Note_on_c, 1, 44, 43
3, 576256, Note_off_c, 1, 44, 64
3, 576256, Note_on_c, 1, 48, 43
3, 576384, Note_off_c, 1, 48, 64
3, 576384, Note_on_c, 1, 41, 45
3, 576512, Note_off_c, 1, 41, 64
3, 576512, Note_on_c, 1, 44, 47
3, 576640, Note_off_c, 1, 44, 64
3, 576640, Note_on_c, 1, 49, 42
3, 576768, Note_off_c, 1, 49, 64
3, 576768, Note_on_c, 1, 41, 45
3, 576896, Note_off_c, 1, 41, 64
3, 576896, Note_on_c, 1, 44, 43
3, 577024, Note_off_c, 1, 44, 64
3, 577024, Note_on_c, 1, 49, 43
3, 577152, Note_off_c, 1, 49, 64
3, 577152, Note_on_c, 1, 43, 42
3, 577280, Note_off_c, 1, 43, 64
3, 577280, Note_on_c, 1, 46, 48
3, 577408, Note_off_c, 1, 46, 64
3, 577408, Note_on_c, 1, 49, 44
3, 577536, Note_off_c, 1, 49, 64
3, 577536, Note_on_c, 1, 43, 44
3, 577664, Note_off_c, 1, 43, 64
3, 577664, Note_on_c, 1, 46, 47
3, 577792, Note_off_c, 1, 46, 64
3, 577792, Note_on_c, 1, 49, 47
3, 577920, Note_off_c, 1, 49, 64
3, 577920, Note_on_c, 1, 43, 44
3, 578048, Note_off_c, 1, 43, 64
3, 578048, Note_on_c, 1, 46, 46
3, 578176, Note_off_c, 1, 46, 64
3, 578176, Note_on_c, 1, 51, 45
3, 578304, Note_off_c, 1, 51, 64
3, 578304, Note_on_c, 1, 43, 43
3, 578432, Note_off_c, 1, 43, 64
3, 578432, Note_on_c, 1, 46, 46
3, 578560, Note_off_c, 1, 46, 64
3, 578560, Note_on_c, 1, 51, 42
3, 578688, Note_off_c, 1, 51, 64
3, 578688, Note_on_c, 1, 44, 47
3, 578816, Note_off_c, 1, 44, 64
3, 578816, Note_on_c, 1, 48, 48
3, 578944, Note_off_c, 1, 48, 64
3, 578944, Note_on_c, 1, 51, 42
3, 579072, Note_off_c, 1, 51, 64
3, 579072, Note_on_c, 1, 44, 43
3, 579200, Note_off_c, 1, 44, 64
3, 579200, Note_on_c, 1, 48, 46
3, 579328, Note_off_c, 1, 48, 64
3, 579328, Note_on_c, 1, 51, 46
3, 579456, Note_off_c, 1, 51, 64
3, 579456, Note_on_c, 1, 45, 48
3, 579584, Note_off_c, 1, 45, 64
3, 579584, Note_on_c, 1, 48, 44
3, 579712, Note_off_c, 1, 48, 64
3, 579712, Note_on_c, 1, 53, 42
3, 579840, Note_off_c, 1, 53, 64
3, 579840, Note_on_c, 1, 45, 46
3, 579968, Note_off_c, 1, 45, 64
3, 579968, Note_on_c, 1, 48, 44
3, 580096, Note_off_c, 1, 48, 64
3, 580096, Note_on_c, 1, 53, 43
3, 580224, Note_off_c, 1, 53, 64
3, 580224, Note_on_c, 1, 46, 45
3, 580352, Note_off_c, 1, 46, 64
3, 580352, Note_on_c, 1, 49, 43
3, 580480, Note_off_c, 1, 49, 64
3, 580480, Note_on_c, 1, 53, 45
3, 580608, Note_off_c, 1, 53, 64
3, 580608, Note_on_c, 1, 46, 44
3, 580736, Note_off_c, 1, 46, 64
3, 580736, Note_on_c, 1, 49, 47
3, 580864, Note_off_c, 1, 49, 64
3, 580864, Note_on_c, 1, 53, 47
3, 580992, Note_off_c, 1, 53, 64
3, 580992, Note_on_c, 1, 46, 45
3, 581120, Note_off_c, 1, 46, 64
3, 581120, Note_on_c, 1, 49, 42
3, 581248, Note_off_c, 1, 49, 64
3, 581248, Note_on_c, 1, 55, 48
3, 581376, Note_off_c, 1, 55, 64
3, 581376, Note_on_c, 1, 46, 45
3, 581504, Note_off_c, 1, 46, 64
3, 581504, Note_on_c, 1, 49, 43
3, 581632, Note_off_c, 1, 49, 64
3, 581632, Note_on_c, 1, 55, 44
3, 581760, Note_off_c, 1, 55, 64
3, 581760, Note_on_c, 1, 48, 42
3, 581888, Note_off_c, 1, 48, 64
3, 581888, Note_on_c, 1, 51, 44
3, 582016, Note_off_c, 1, 51, 64
3, 582016, Note_on_c, 1, 56, 45
3, 582144, Note_off_c, 1, 56, 64
3, 582144, Note_on_c, 1, 48, 46
3, 582272, Note_off_c, 1, 48, 64
3, 582272, Note_on_c, 1, 51, 46
3, 582400, Note_off_c, 1, 51, 64
3, 582400, Note_on_c, 1, 56, 47
3, 582528, Note_off_c, 1, 56, 64
3, 582528, Note_on_c, 1, 48, 42
3, 582656, Note_off_c, 1, 48, 64
3, 582656, Note_on_c, 1, 51, 46
3, 582784, Note_off_c, 1, 51, 64
3, 582784, Note_on_c, 1, 57, 43
3, 582912, Note_off_c, 1, 57, 64
3, 582912, Note_on_c, 1, 48, 44
3, 583040, Note_off_c, 1, 48, 64
3, 583040, Note_on_c, 1, 51, 42
3, 583168, Note_off_c, 1, 51, 64
3, 583168, Note_on_c, 1, 57, 44
3, 583296, Note_off_c, 1, 57, 64
3, 583296, Note_on_c, 1, 49, 41
3, 583424, Note_off_c, 1, 49, 64
3, 583424, Note_on_c, 1, 53, 41
3, 583552, Note_off_c, 1, 53, 64
3, 583552, Note_on_c, 1, 58, 42
3, 583680, Note_off_c, 1, 58, 64
3, 583680, Note_on_c, 1, 49, 43
3, 583808, Note_off_c, 1, 49, 64
3, 583808, Note_on_c, 1, 53, 43
3, 583936, Note_off_c, 1, 53, 64
3, 583936, Note_on_c, 1, 58, 44
3, 584064, Note_off_c, 1, 58, 64
3, 584064, Note_on_c, 1, 50, 44
3, 584192, Note_off_c, 1, 50, 64
3, 584192, Note_on_c, 1, 53, 45
3, 584320, Note_off_c, 1, 53, 64
3, 584320, Note_on_c, 1, 59, 46
3, 584448, Note_off_c, 1, 59, 64
3, 584448, Note_on_c, 1, 50, 46
3, 584576, Note_off_c, 1, 50, 64
3, 584576, Note_on_c, 1, 53, 47
3, 584704, Note_off_c, 1, 53, 64
3, 584704, Note_on_c, 1, 59, 48
3, 584832, Note_off_c, 1, 59, 64
3, 584832, Note_on_c, 1, 48, 48
3, 584960, Note_off_c, 1, 48, 64
3, 584960, Note_on_c, 1, 53, 49
3, 585088, Note_off_c, 1, 53, 64
3, 585088, Note_on_c, 1, 56, 50
3, 585216, Note_off_c, 1, 56, 64
3, 585216, Note_on_c, 1, 48, 50
3, 585344, Note_off_c, 1, 48, 64
3, 585344, Note_on_c, 1, 53, 51
3, 585472, Note_off_c, 1, 53, 64
3, 585472, Note_on_c, 1, 56, 51
3, 585600, Note_off_c, 1, 56, 64
3, 585600, Note_on_c, 1, 48, 52
3, 585728, Note_off_c, 1, 48, 64
3, 585728, Note_on_c, 1, 53, 53
3, 585856, Note_off_c, 1, 53, 64
3, 585856, Note_on_c, 1, 56, 53
3, 585984, Note_off_c, 1, 56, 64
3, 585984, Note_on_c, 1, 48, 54
3, 586112, Note_off_c, 1, 48, 64
3, 586112, Note_on_c, 1, 53, 55
3, 586240, Note_off_c, 1, 53, 64
3, 586240, Note_on_c, 1, 56, 55
3, 586368, Note_off_c, 1, 56, 64
3, 586368, Note_on_c, 1, 48, 56
3, 586496, Note_off_c, 1, 48, 64
3, 586496, Note_on_c, 1, 52, 57
3, 586624, Note_off_c, 1, 52, 64
3, 586624, Note_on_c, 1, 55, 57
3, 586752, Note_off_c, 1, 55, 64
3, 586752, Note_on_c, 1, 48, 58
3, 586880, Note_off_c, 1, 48, 64
3, 586880, Note_on_c, 1, 52, 58
3, 587008, Note_off_c, 1, 52, 64
3, 587008, Note_on_c, 1, 55, 59
3, 587136, Note_off_c, 1, 55, 64
3, 587136, Note_on_c, 1, 48, 60
3, 587264, Note_off_c, 1, 48, 64
3, 587264, Note_on_c, 1, 52, 60
3, 587392, Note_off_c, 1, 52, 64
3, 587392, Note_on_c, 1, 55, 61
3, 587520, Note_off_c, 1, 55, 64
3, 587520, Note_on_c, 1, 48, 62
3, 587648, Note_off_c, 1, 48, 64
3, 587648, Note_on_c, 1, 52, 62
3, 587776, Note_off_c, 1, 52, 64
3, 587776, Note_on_c, 1, 55, 69
3, 587904, Note_off_c, 1, 55, 64
3, 587904, Note_on_c, 1, 41, 73
3, 587904, Note_on_c, 1, 53, 73
3, 588288, Note_off_c, 1, 53, 64
3, 588288, Note_off_c, 1, 41, 64
3, 588672, Note_on_c, 1, 65, 73
3, 588672, Note_on_c, 1, 68, 73
3, 588672, Note_on_c, 1, 72, 73
3, 589056, Note_off_c, 1, 72, 64
3, 589056, Note_off_c, 1, 68, 64
3, 589056, Note_off_c, 1, 65, 64
3, 589056, Note_on_c, 1, 65, 74
3, 589056, Note_on_c, 1, 70, 74
3, 589056, Note_on_c, 1, 73, 74
3, 589440, Note_off_c, 1, 73, 64
3, 589440, Note_off_c, 1, 70, 64
3, 589440, Note_off_c, 1, 65, 64
3, 589440, Note_on_c, 1, 65, 74
3, 589440, Note_on_c, 1, 68, 74
3, 589440, Note_on_c, 1, 72, 74
3, 589824, Note_off_c, 1, 72, 64
3, 589824, Note_off_c, 1, 68, 64
3, 589824, Note_off_c, 1, 65, 64
3, 590208, Note_on_c, 1, 53, 75
3, 590208, Note_on_c, 1, 56, 75
3, 590208, Note_on_c, 1, 60, 75
3, 590592, Note_off_c, 1, 60, 64
3, 590592, Note_off_c, 1, 56, 64
3, 590592, Note_off_c, 1, 53, 64
3, 590592, Note_on_c, 1, 48, 75
3, 590592, Note_on_c, 1, 55, 75
3, 590592, Note_on_c, 1, 60, 75
3, 590976, Note_off_c, 1, 60, 64
3, 590976, Note_off_c, 1, 55, 64
3, 590976, Note_off_c, 1, 48, 64
3, 590976, Note_on_c, 1, 53, 76
3, 590976, Note_on_c, 1, 56, 76
3, 590976, Note_on_c, 1, 60, 76
3, 591360, Note_off_c, 1, 60, 64
3, 591360, Note_off_c, 1, 56, 64
3, 591360, Note_off_c, 1, 53, 64
3, 591744, Note_on_c, 1, 65, 77
3, 591744, Note_on_c, 1, 68, 77
3, 591744, Note_on_c, 1, 72, 77
3, 592128, Note_off_c, 1, 72, 64
3, 592128, Note_off_c, 1, 68, 64
3, 592128, Note_off_c, 1, 65, 64
3, 592128, Note_on_c, 1, 65, 77
3, 592128, Note_on_c, 1, 70, 77
3, 592128, Note_on_c, 1, 73, 77
3, 592512, Note_off_c, 1, 73, 64
3, 592512, Note_off_c, 1, 70, 64
3, 592512, Note_off_c, 1, 65, 64
3, 592512, Note_on_c, 1, 65, 77
3, 592512, Note_on_c, 1, 68, 77
3, 592512, Note_on_c, 1, 72, 77
3, 592896, Note_off_c, 1, 72, 64
3, 592896, Note_off_c, 1, 68, 64
3, 592896, Note_off_c, 1, 65, 64
3, 593280, Note_on_c, 1, 53, 78
3, 593280, Note_on_c, 1, 56, 78
3, 593280, Note_on_c, 1, 60, 78
3, 593664, Note_off_c, 1, 60, 64
3, 593664, Note_off_c, 1, 56, 64
3, 593664, Note_off_c, 1, 53, 64
3, 593664, Note_on_c, 1, 48, 79
3, 593664, Note_on_c, 1, 55, 79
3, 593664, Note_on_c, 1, 60, 79
3, 594048, Note_off_c, 1, 60, 64
3, 594048, Note_off_c, 1, 55, 64
3, 594048, Note_off_c, 1, 48, 64
3, 594048, Note_on_c, 1, 53, 79
3, 594048, Note_on_c, 1, 56, 79
3, 594048, Note_on_c, 1, 60, 79
3, 594432, Note_off_c, 1, 60, 64
3, 594432, Note_off_c, 1, 56, 64
3, 594432, Note_off_c, 1, 53, 64
3, 594816, Note_on_c, 1, 53, 80
3, 594816, Note_on_c, 1, 56, 80
3, 594816, Note_on_c, 1, 60, 80
3, 595200, Note_off_c, 1, 60, 64
3, 595200, Note_off_c, 1, 56, 64
3, 595200, Note_off_c, 1, 53, 64
3, 595200, Note_on_c, 1, 53, 81
3, 595200, Note_on_c, 1, 58, 81
3, 595200, Note_on_c, 1, 61, 81
3, 595584, Note_off_c, 1, 61, 64
3, 595584, Note_off_c, 1, 58, 64
3, 595584, Note_off_c, 1, 53, 64
3, 595584, Note_on_c, 1, 53, 82
3, 595584, Note_on_c, 1, 56, 82
3, 595584, Note_on_c, 1, 60, 82
3, 595968, Note_off_c, 1, 60, 64
3, 595968, Note_off_c, 1, 56, 64
3, 595968, Note_off_c, 1, 53, 64
3, 596352, Note_on_c, 1, 53, 84
3, 596352, Note_on_c, 1, 56, 84
3, 596352, Note_on_c, 1, 60, 84
3, 596736, Note_off_c, 1, 60, 64
3, 596736, Note_off_c, 1, 56, 64
3, 596736, Note_off_c, 1, 53, 64
3, 596736, Note_on_c, 1, 53, 85
3, 596736, Note_on_c, 1, 58, 85
3, 596736, Note_on_c, 1, 61, 85
3, 597120, Note_off_c, 1, 61, 64
3, 597120, Note_off_c, 1, 58, 64
3, 597120, Note_off_c, 1, 53, 64
3, 597120, Note_on_c, 1, 53, 86
3, 597120, Note_on_c, 1, 56, 86
3, 597120, Note_on_c, 1, 60, 86
3, 597504, Note_off_c, 1, 60, 64
3, 597504, Note_off_c, 1, 56, 64
3, 597504, Note_off_c, 1, 53, 64
3, 598272, Note_on_c, 1, 53, 88
3, 598400, Note_off_c, 1, 53, 64
3, 598400, Note_on_c, 1, 48, 89
3, 598528, Note_off_c, 1, 48, 64
3, 598528, Note_on_c, 1, 44, 89
3, 598656, Note_off_c, 1, 44, 64
3, 598656, Note_on_c, 1, 41, 89
3, 599040, Note_off_c, 1, 41, 64
3, 600960, End_track
0, 0, End_of_file