0, 0, Header, 1, 6, 192
1, 0, Start_track
1, 0, Title_t, "String Quartet No.1 - III"
1, 0, Copyright_t, "Copyright \251 2000 by S.E.Edwards All Rights Reserved"
1, 0, Text_t, "By Ludwig van Beethoven\012"
1, 0, Text_t, "Generated by NoteWorthy Composer\012"
1, 0, Time_signature, 3, 2, 24, 8
1, 0, Key_signature, -1, "major"
1, 0, Tempo, 240000
1, 5760, Tempo, 240000
1, 141696, Tempo, 240000
1, 141696, End_track
2, 0, Start_track
2, 0, Title_t, "Violino I."
2, 0, Program_c, 1, 48
2, 0, Control_c, 1, 7, 127
2, 0, Control_c, 1, 10, 64
2, 0, Note_on_c, 1, 65, 45
2, 736, Note_on_c, 1, 65, 0
2, 768, Note_on_c, 1, 64, 45
2, 816, Note_on_c, 1, 64, 0
2, 960, Note_on_c, 1, 66, 45
2, 1008, Note_on_c, 1, 66, 0
2, 1152, Note_on_c, 1, 67, 45
2, 1888, Note_on_c, 1, 67, 0
2, 1920, Note_on_c, 1, 66, 45
2, 1968, Note_on_c, 1, 66, 0
2, 2112, Note_on_c, 1, 68, 45
2, 2160, Note_on_c, 1, 68, 0
2, 2304, Note_on_c, 1, 69, 45
2, 2688, Note_on_c, 1, 69, 0
2, 2688, Note_on_c, 1, 71, 45
2, 2880, Note_on_c, 1, 71, 0
2, 2880, Note_on_c, 1, 72, 45
2, 2928, Note_on_c, 1, 72, 0
2, 3456, Note_on_c, 1, 76, 45
2, 3504, Note_on_c, 1, 76, 0
2, 3504, Note_on_c, 1, 74, 45
2, 3552, Note_on_c, 1, 74, 0
2, 3552, Note_on_c, 1, 76, 45
2, 3600, Note_on_c, 1, 76, 0
2, 3600, Note_on_c, 1, 74, 45
2, 3648, Note_on_c, 1, 74, 0
2, 3648, Note_on_c, 1, 76, 45
2, 3696, Note_on_c, 1, 76, 0
2, 3696, Note_on_c, 1, 74, 45
2, 3744, Note_on_c, 1, 74, 0
2, 3744, Note_on_c, 1, 76, 45
2, 3792, Note_on_c, 1, 76, 0
2, 3792, Note_on_c, 1, 74, 45
2, 3840, Note_on_c, 1, 74, 0
2, 3840, Note_on_c, 1, 76, 45
2, 3888, Note_on_c, 1, 76, 0
2, 3888, Note_on_c, 1, 74, 45
2, 3936, Note_on_c, 1, 74, 0
2, 3936, Note_on_c, 1, 72, 45
2, 3984, Note_on_c, 1, 72, 0
2, 3984, Note_on_c, 1, 74, 45
2, 4030, Note_on_c, 1, 74, 0
2, 4032, Note_on_c, 1, 76, 45
2, 4192, Note_on_c, 1, 76, 0
2, 4608, Note_on_c, 1, 64, 92
2, 4656, Note_on_c, 1, 64, 0
2, 4656, Note_on_c, 1, 62, 92
2, 4704, Note_on_c, 1, 62, 0
2, 4704, Note_on_c, 1, 64, 92
2, 4752, Note_on_c, 1, 64, 0
2, 4752, Note_on_c, 1, 62, 92
2, 4800, Note_on_c, 1, 62, 0
2, 4800, Note_on_c, 1, 64, 92
2, 4848, Note_on_c, 1, 64, 0
2, 4848, Note_on_c, 1, 62, 92
2, 4896, Note_on_c, 1, 62, 0
2, 4896, Note_on_c, 1, 64, 92
2, 4944, Note_on_c, 1, 64, 0
2, 4944, Note_on_c, 1, 62, 92
2, 4992, Note_on_c, 1, 62, 0
2, 4992, Note_on_c, 1, 64, 92
2, 5040, Note_on_c, 1, 64, 0
2, 5040, Note_on_c, 1, 62, 92
2, 5088, Note_on_c, 1, 62, 0
2, 5088, Note_on_c, 1, 60, 92
2, 5136, Note_on_c, 1, 60, 0
2, 5136, Note_on_c, 1, 62, 92
2, 5182, Note_on_c, 1, 62, 0
2, 5184, Note_on_c, 1, 60, 108
2, 5344, Note_on_c, 1, 60, 0
2, 5760, Note_on_c, 1, 65, 45
2, 6496, Note_on_c, 1, 65, 0
2, 6528, Note_on_c, 1, 64, 45
2, 6576, Note_on_c, 1, 64, 0
2, 6720, Note_on_c, 1, 66, 45
2, 6768, Note_on_c, 1, 66, 0
2, 6912, Note_on_c, 1, 67, 45
2, 7648, Note_on_c, 1, 67, 0
2, 7680, Note_on_c, 1, 66, 45
2, 7728, Note_on_c, 1, 66, 0
2, 7872, Note_on_c, 1, 68, 45
2, 7920, Note_on_c, 1, 68, 0
2, 8064, Note_on_c, 1, 69, 45
2, 8448, Note_on_c, 1, 69, 0
2, 8448, Note_on_c, 1, 71, 45
2, 8640, Note_on_c, 1, 71, 0
2, 8640, Note_on_c, 1, 72, 45
2, 8688, Note_on_c, 1, 72, 0
2, 9216, Note_on_c, 1, 76, 45
2, 9264, Note_on_c, 1, 76, 0
2, 9264, Note_on_c, 1, 74, 45
2, 9312, Note_on_c, 1, 74, 0
2, 9312, Note_on_c, 1, 76, 45
2, 9360, Note_on_c, 1, 76, 0
2, 9360, Note_on_c, 1, 74, 45
2, 9408, Note_on_c, 1, 74, 0
2, 9408, Note_on_c, 1, 76, 45
2, 9456, Note_on_c, 1, 76, 0
2, 9456, Note_on_c, 1, 74, 45
2, 9504, Note_on_c, 1, 74, 0
2, 9504, Note_on_c, 1, 76, 45
2, 9552, Note_on_c, 1, 76, 0
2, 9552, Note_on_c, 1, 74, 45
2, 9600, Note_on_c, 1, 74, 0
2, 9600, Note_on_c, 1, 76, 45
2, 9648, Note_on_c, 1, 76, 0
2, 9648, Note_on_c, 1, 74, 45
2, 9696, Note_on_c, 1, 74, 0
2, 9696, Note_on_c, 1, 72, 45
2, 9744, Note_on_c, 1, 72, 0
2, 9744, Note_on_c, 1, 74, 45
2, 9790, Note_on_c, 1, 74, 0
2, 9792, Note_on_c, 1, 76, 45
2, 9952, Note_on_c, 1, 76, 0
2, 10368, Note_on_c, 1, 64, 92
2, 10416, Note_on_c, 1, 64, 0
2, 10416, Note_on_c, 1, 62, 92
2, 10464, Note_on_c, 1, 62, 0
2, 10464, Note_on_c, 1, 64, 92
2, 10512, Note_on_c, 1, 64, 0
2, 10512, Note_on_c, 1, 62, 92
2, 10560, Note_on_c, 1, 62, 0
2, 10560, Note_on_c, 1, 64, 92
2, 10608, Note_on_c, 1, 64, 0
2, 10608, Note_on_c, 1, 62, 92
2, 10656, Note_on_c, 1, 62, 0
2, 10656, Note_on_c, 1, 64, 92
2, 10704, Note_on_c, 1, 64, 0
2, 10704, Note_on_c, 1, 62, 92
2, 10752, Note_on_c, 1, 62, 0
2, 10752, Note_on_c, 1, 64, 92
2, 10800, Note_on_c, 1, 64, 0
2, 10800, Note_on_c, 1, 62, 92
2, 10848, Note_on_c, 1, 62, 0
2, 10848, Note_on_c, 1, 60, 92
2, 10896, Note_on_c, 1, 60, 0
2, 10896, Note_on_c, 1, 62, 92
2, 10942, Note_on_c, 1, 62, 0
2, 10944, Note_on_c, 1, 60, 108
2, 11104, Note_on_c, 1, 60, 0
2, 11520, Note_on_c, 1, 72, 45
2, 11904, Note_on_c, 1, 72, 0
2, 11904, Note_on_c, 1, 75, 45
2, 12064, Note_on_c, 1, 75, 0
2, 12096, Note_on_c, 1, 75, 45
2, 12288, Note_on_c, 1, 75, 0
2, 12288, Note_on_c, 1, 73, 45
2, 12448, Note_on_c, 1, 73, 0
2, 12480, Note_on_c, 1, 73, 45
2, 12528, Note_on_c, 1, 73, 0
2, 12672, Note_on_c, 1, 73, 45
2, 12864, Note_on_c, 1, 73, 0
2, 12864, Note_on_c, 1, 72, 45
2, 13024, Note_on_c, 1, 72, 0
2, 13056, Note_on_c, 1, 72, 45
2, 13104, Note_on_c, 1, 72, 0
2, 13248, Note_on_c, 1, 68, 45
2, 13632, Note_on_c, 1, 68, 0
2, 13632, Note_on_c, 1, 72, 45
2, 13792, Note_on_c, 1, 72, 0
2, 13824, Note_on_c, 1, 72, 45
2, 14016, Note_on_c, 1, 72, 0
2, 14016, Note_on_c, 1, 70, 45
2, 14176, Note_on_c, 1, 70, 0
2, 14208, Note_on_c, 1, 70, 45
2, 14256, Note_on_c, 1, 70, 0
2, 14400, Note_on_c, 1, 70, 45
2, 14592, Note_on_c, 1, 70, 0
2, 14592, Note_on_c, 1, 68, 45
2, 14752, Note_on_c, 1, 68, 0
2, 14784, Note_on_c, 1, 68, 45
2, 14832, Note_on_c, 1, 68, 0
2, 14976, Note_on_c, 1, 77, 45
2, 15712, Note_on_c, 1, 77, 0
2, 15744, Note_on_c, 1, 75, 45
2, 15792, Note_on_c, 1, 75, 0
2, 15936, Note_on_c, 1, 77, 45
2, 15984, Note_on_c, 1, 77, 0
2, 16128, Note_on_c, 1, 78, 45
2, 16864, Note_on_c, 1, 78, 0
2, 16896, Note_on_c, 1, 77, 45
2, 16944, Note_on_c, 1, 77, 0
2, 17088, Note_on_c, 1, 79, 45
2, 17136, Note_on_c, 1, 79, 0
2, 17280, Note_on_c, 1, 80, 45
2, 18016, Note_on_c, 1, 80, 0
2, 18048, Note_on_c, 1, 79, 45
2, 18096, Note_on_c, 1, 79, 0
2, 18240, Note_on_c, 1, 80, 45
2, 18288, Note_on_c, 1, 80, 0
2, 18432, Note_on_c, 1, 82, 45
2, 19200, Note_on_c, 1, 82, 0
2, 19200, Note_on_c, 1, 80, 45
2, 19360, Note_on_c, 1, 80, 0
2, 19392, Note_on_c, 1, 80, 45
2, 19440, Note_on_c, 1, 80, 0
2, 19584, Note_on_c, 1, 79, 45
2, 19744, Note_on_c, 1, 79, 0
2, 19968, Note_on_c, 1, 83, 45
2, 19990, Note_on_c, 1, 83, 0
2, 19992, Note_on_c, 1, 84, 45
2, 20048, Note_on_c, 1, 84, 0
2, 20160, Note_on_c, 1, 80, 45
2, 20320, Note_on_c, 1, 80, 0
2, 20544, Note_on_c, 1, 83, 45
2, 20566, Note_on_c, 1, 83, 0
2, 20568, Note_on_c, 1, 84, 45
2, 20624, Note_on_c, 1, 84, 0
2, 20736, Note_on_c, 1, 79, 45
2, 20896, Note_on_c, 1, 79, 0
2, 21120, Note_on_c, 1, 83, 45
2, 21142, Note_on_c, 1, 83, 0
2, 21144, Note_on_c, 1, 84, 45
2, 21200, Note_on_c, 1, 84, 0
2, 21312, Note_on_c, 1, 80, 45
2, 21472, Note_on_c, 1, 80, 0
2, 21696, Note_on_c, 1, 83, 45
2, 21718, Note_on_c, 1, 83, 0
2, 21720, Note_on_c, 1, 84, 45
2, 21776, Note_on_c, 1, 84, 0
2, 21888, Note_on_c, 1, 79, 45
2, 22048, Note_on_c, 1, 79, 0
2, 22464, Note_on_c, 1, 60, 30
2, 22512, Note_on_c, 1, 60, 0
2, 22656, Note_on_c, 1, 64, 30
2, 22704, Note_on_c, 1, 64, 0
2, 22848, Note_on_c, 1, 65, 30
2, 22896, Note_on_c, 1, 65, 0
2, 23040, Note_on_c, 1, 67, 30
2, 23088, Note_on_c, 1, 67, 0
2, 23616, Note_on_c, 1, 72, 30
2, 23664, Note_on_c, 1, 72, 0
2, 23808, Note_on_c, 1, 76, 30
2, 23856, Note_on_c, 1, 76, 0
2, 24000, Note_on_c, 1, 77, 30
2, 24048, Note_on_c, 1, 77, 0
2, 24192, Note_on_c, 1, 79, 30
2, 24240, Note_on_c, 1, 79, 0
2, 24768, Note_on_c, 1, 64, 30
2, 24816, Note_on_c, 1, 64, 0
2, 25152, Note_on_c, 1, 69, 30
2, 25200, Note_on_c, 1, 69, 0
2, 25344, Note_on_c, 1, 70, 30
2, 25392, Note_on_c, 1, 70, 0
2, 26112, Note_on_c, 1, 64, 30
2, 26272, Note_on_c, 1, 64, 0
2, 26304, Note_on_c, 1, 64, 30
2, 26464, Note_on_c, 1, 64, 0
2, 26496, Note_on_c, 1, 65, 30
2, 27232, Note_on_c, 1, 65, 0
2, 27264, Note_on_c, 1, 64, 39
2, 27312, Note_on_c, 1, 64, 0
2, 27456, Note_on_c, 1, 66, 41
2, 27504, Note_on_c, 1, 66, 0
2, 27648, Note_on_c, 1, 67, 43
2, 28384, Note_on_c, 1, 67, 0
2, 28416, Note_on_c, 1, 66, 54
2, 28464, Note_on_c, 1, 66, 0
2, 28608, Note_on_c, 1, 68, 57
2, 28656, Note_on_c, 1, 68, 0
2, 28800, Note_on_c, 1, 69, 45
2, 29184, Note_on_c, 1, 69, 0
2, 29184, Note_on_c, 1, 71, 45
2, 29376, Note_on_c, 1, 71, 0
2, 29376, Note_on_c, 1, 72, 45
2, 29424, Note_on_c, 1, 72, 0
2, 29952, Note_on_c, 1, 74, 30
2, 30336, Note_on_c, 1, 74, 0
2, 30336, Note_on_c, 1, 76, 30
2, 30528, Note_on_c, 1, 76, 0
2, 30528, Note_on_c, 1, 77, 30
2, 30576, Note_on_c, 1, 77, 0
2, 31104, Note_on_c, 1, 77, 10
2, 31488, Note_on_c, 1, 77, 0
2, 31488, Note_on_c, 1, 79, 10
2, 31680, Note_on_c, 1, 79, 0
2, 31680, Note_on_c, 1, 81, 10
2, 31728, Note_on_c, 1, 81, 0
2, 32256, Note_on_c, 1, 81, 10
2, 32304, Note_on_c, 1, 81, 0
2, 32304, Note_on_c, 1, 79, 10
2, 32352, Note_on_c, 1, 79, 0
2, 32352, Note_on_c, 1, 81, 10
2, 32400, Note_on_c, 1, 81, 0
2, 32400, Note_on_c, 1, 79, 10
2, 32448, Note_on_c, 1, 79, 0
2, 32448, Note_on_c, 1, 81, 10
2, 32496, Note_on_c, 1, 81, 0
2, 32496, Note_on_c, 1, 79, 10
2, 32544, Note_on_c, 1, 79, 0
2, 32544, Note_on_c, 1, 81, 10
2, 32592, Note_on_c, 1, 81, 0
2, 32592, Note_on_c, 1, 79, 10
2, 32640, Note_on_c, 1, 79, 0
2, 32640, Note_on_c, 1, 81, 10
2, 32688, Note_on_c, 1, 81, 0
2, 32688, Note_on_c, 1, 79, 10
2, 32736, Note_on_c, 1, 79, 0
2, 32736, Note_on_c, 1, 77, 10
2, 32784, Note_on_c, 1, 77, 0
2, 32784, Note_on_c, 1, 79, 10
2, 32830, Note_on_c, 1, 79, 0
2, 32832, Note_on_c, 1, 81, 10
2, 32992, Note_on_c, 1, 81, 0
2, 33408, Note_on_c, 1, 69, 10
2, 33456, Note_on_c, 1, 69, 0
2, 33456, Note_on_c, 1, 67, 10
2, 33504, Note_on_c, 1, 67, 0
2, 33504, Note_on_c, 1, 69, 10
2, 33552, Note_on_c, 1, 69, 0
2, 33552, Note_on_c, 1, 67, 10
2, 33600, Note_on_c, 1, 67, 0
2, 33600, Note_on_c, 1, 69, 10
2, 33648, Note_on_c, 1, 69, 0
2, 33648, Note_on_c, 1, 67, 10
2, 33696, Note_on_c, 1, 67, 0
2, 33696, Note_on_c, 1, 69, 10
2, 33744, Note_on_c, 1, 69, 0
2, 33744, Note_on_c, 1, 67, 10
2, 33792, Note_on_c, 1, 67, 0
2, 33792, Note_on_c, 1, 69, 10
2, 33840, Note_on_c, 1, 69, 0
2, 33840, Note_on_c, 1, 67, 10
2, 33888, Note_on_c, 1, 67, 0
2, 33888, Note_on_c, 1, 65, 10
2, 33936, Note_on_c, 1, 65, 0
2, 33936, Note_on_c, 1, 67, 10
2, 33982, Note_on_c, 1, 67, 0
2, 33984, Note_on_c, 1, 65, 30
2, 34144, Note_on_c, 1, 65, 0
2, 34752, Note_on_c, 1, 64, 42
2, 35296, Note_on_c, 1, 64, 0
2, 35328, Note_on_c, 1, 72, 30
2, 35376, Note_on_c, 1, 72, 0
2, 35520, Note_on_c, 1, 72, 30
2, 35568, Note_on_c, 1, 72, 0
2, 35904, Note_on_c, 1, 64, 42
2, 36448, Note_on_c, 1, 64, 0
2, 36480, Note_on_c, 1, 77, 30
2, 36528, Note_on_c, 1, 77, 0
2, 36672, Note_on_c, 1, 77, 30
2, 36720, Note_on_c, 1, 77, 0
2, 37056, Note_on_c, 1, 64, 42
2, 37440, Note_on_c, 1, 64, 0
2, 37440, Note_on_c, 1, 65, 30
2, 37600, Note_on_c, 1, 65, 0
2, 37632, Note_on_c, 1, 84, 30
2, 37680, Note_on_c, 1, 84, 0
2, 37824, Note_on_c, 1, 84, 30
2, 37872, Note_on_c, 1, 84, 0
2, 38016, Note_on_c, 1, 77, 42
2, 38064, Note_on_c, 1, 77, 0
2, 38064, Note_on_c, 1, 75, 30
2, 38112, Note_on_c, 1, 75, 0
2, 38112, Note_on_c, 1, 77, 30
2, 38160, Note_on_c, 1, 77, 0
2, 38160, Note_on_c, 1, 75, 30
2, 38208, Note_on_c, 1, 75, 0
2, 38208, Note_on_c, 1, 77, 30
2, 38256, Note_on_c, 1, 77, 0
2, 38256, Note_on_c, 1, 75, 30
2, 38304, Note_on_c, 1, 75, 0
2, 38304, Note_on_c, 1, 77, 30
2, 38352, Note_on_c, 1, 77, 0
2, 38352, Note_on_c, 1, 75, 30
2, 38400, Note_on_c, 1, 75, 0
2, 38400, Note_on_c, 1, 77, 30
2, 38448, Note_on_c, 1, 77, 0
2, 38448, Note_on_c, 1, 75, 30
2, 38496, Note_on_c, 1, 75, 0
2, 38496, Note_on_c, 1, 74, 30
2, 38544, Note_on_c, 1, 74, 0
2, 38544, Note_on_c, 1, 75, 30
2, 38590, Note_on_c, 1, 75, 0
2, 38592, Note_on_c, 1, 74, 30
2, 38752, Note_on_c, 1, 74, 0
2, 39168, Note_on_c, 1, 76, 30
2, 39328, Note_on_c, 1, 76, 0
2, 39744, Note_on_c, 1, 77, 30
2, 39904, Note_on_c, 1, 77, 0
2, 39936, Note_on_c, 1, 84, 30
2, 40096, Note_on_c, 1, 84, 0
2, 40128, Note_on_c, 1, 84, 30
2, 40288, Note_on_c, 1, 84, 0
2, 40320, Note_on_c, 1, 77, 42
2, 40368, Note_on_c, 1, 77, 0
2, 40368, Note_on_c, 1, 75, 30
2, 40416, Note_on_c, 1, 75, 0
2, 40416, Note_on_c, 1, 77, 30
2, 40464, Note_on_c, 1, 77, 0
2, 40464, Note_on_c, 1, 75, 30
2, 40512, Note_on_c, 1, 75, 0
2, 40512, Note_on_c, 1, 77, 30
2, 40560, Note_on_c, 1, 77, 0
2, 40560, Note_on_c, 1, 75, 30
2, 40608, Note_on_c, 1, 75, 0
2, 40608, Note_on_c, 1, 77, 30
2, 40656, Note_on_c, 1, 77, 0
2, 40656, Note_on_c, 1, 75, 30
2, 40704, Note_on_c, 1, 75, 0
2, 40704, Note_on_c, 1, 77, 30
2, 40752, Note_on_c, 1, 77, 0
2, 40752, Note_on_c, 1, 75, 30
2, 40800, Note_on_c, 1, 75, 0
2, 40800, Note_on_c, 1, 74, 30
2, 40848, Note_on_c, 1, 74, 0
2, 40848, Note_on_c, 1, 75, 30
2, 40894, Note_on_c, 1, 75, 0
2, 40896, Note_on_c, 1, 74, 30
2, 41056, Note_on_c, 1, 74, 0
2, 41472, Note_on_c, 1, 76, 30
2, 41632, Note_on_c, 1, 76, 0
2, 42048, Note_on_c, 1, 77, 30
2, 42784, Note_on_c, 1, 77, 0
2, 42816, Note_on_c, 1, 76, 42
2, 42864, Note_on_c, 1, 76, 0
2, 43008, Note_on_c, 1, 78, 45
2, 43056, Note_on_c, 1, 78, 0
2, 43200, Note_on_c, 1, 79, 48
2, 43936, Note_on_c, 1, 79, 0
2, 43968, Note_on_c, 1, 78, 61
2, 44016, Note_on_c, 1, 78, 0
2, 44160, Note_on_c, 1, 80, 64
2, 44208, Note_on_c, 1, 80, 0
2, 44352, Note_on_c, 1, 81, 67
2, 45552, Note_on_c, 1, 81, 0
2, 45696, Note_on_c, 1, 81, 92
2, 45888, Note_on_c, 1, 81, 0
2, 45888, Note_on_c, 1, 82, 92
2, 46080, Note_on_c, 1, 82, 0
2, 46080, Note_on_c, 1, 84, 92
2, 46272, Note_on_c, 1, 84, 0
2, 46272, Note_on_c, 1, 86, 92
2, 46464, Note_on_c, 1, 86, 0
2, 46464, Note_on_c, 1, 87, 92
2, 46624, Note_on_c, 1, 87, 0
2, 46656, Note_on_c, 1, 86, 92
2, 46848, Note_on_c, 1, 86, 0
2, 46848, Note_on_c, 1, 82, 92
2, 47040, Note_on_c, 1, 82, 0
2, 47040, Note_on_c, 1, 81, 92
2, 47232, Note_on_c, 1, 81, 0
2, 47232, Note_on_c, 1, 79, 92
2, 47280, Note_on_c, 1, 79, 0
2, 47424, Note_on_c, 1, 86, 92
2, 47616, Note_on_c, 1, 86, 0
2, 47616, Note_on_c, 1, 84, 92
2, 47808, Note_on_c, 1, 84, 0
2, 47808, Note_on_c, 1, 82, 92
2, 48000, Note_on_c, 1, 82, 0
2, 48000, Note_on_c, 1, 81, 92
2, 48192, Note_on_c, 1, 81, 0
2, 48192, Note_on_c, 1, 79, 92
2, 48384, Note_on_c, 1, 79, 0
2, 48384, Note_on_c, 1, 77, 92
2, 48576, Note_on_c, 1, 77, 0
2, 48576, Note_on_c, 1, 76, 92
2, 48768, Note_on_c, 1, 76, 0
2, 48768, Note_on_c, 1, 74, 92
2, 48960, Note_on_c, 1, 74, 0
2, 48960, Note_on_c, 1, 72, 92
2, 49152, Note_on_c, 1, 72, 0
2, 49152, Note_on_c, 1, 70, 92
2, 49344, Note_on_c, 1, 70, 0
2, 49344, Note_on_c, 1, 69, 92
2, 49536, Note_on_c, 1, 69, 0
2, 49536, Note_on_c, 1, 67, 92
2, 49728, Note_on_c, 1, 67, 0
2, 49728, Note_on_c, 1, 70, 92
2, 49888, Note_on_c, 1, 70, 0
2, 49920, Note_on_c, 1, 64, 92
2, 49968, Note_on_c, 1, 64, 0
2, 50112, Note_on_c, 1, 65, 92
2, 50160, Note_on_c, 1, 65, 0
2, 50304, Note_on_c, 1, 69, 92
2, 50352, Note_on_c, 1, 69, 0
2, 50496, Note_on_c, 1, 71, 127
2, 50544, Note_on_c, 1, 71, 0
2, 50688, Note_on_c, 1, 72, 92
2, 51216, Note_on_c, 1, 72, 0
2, 51264, Note_on_c, 1, 77, 92
2, 51312, Note_on_c, 1, 77, 0
2, 51456, Note_on_c, 1, 81, 92
2, 51504, Note_on_c, 1, 81, 0
2, 51648, Note_on_c, 1, 83, 127
2, 51696, Note_on_c, 1, 83, 0
2, 51840, Note_on_c, 1, 84, 92
2, 52576, Note_on_c, 1, 84, 0
2, 52608, Note_on_c, 1, 84, 127
2, 53152, Note_on_c, 1, 84, 0
2, 53184, Note_on_c, 1, 84, 127
2, 53728, Note_on_c, 1, 84, 0
2, 53760, Note_on_c, 1, 81, 92
2, 53808, Note_on_c, 1, 81, 0
2, 53952, Note_on_c, 1, 81, 92
2, 54000, Note_on_c, 1, 81, 0
2, 54144, Note_on_c, 1, 77, 92
2, 54192, Note_on_c, 1, 77, 0
2, 54720, Note_on_c, 1, 72, 45
2, 55104, Note_on_c, 1, 72, 0
2, 55104, Note_on_c, 1, 75, 45
2, 55264, Note_on_c, 1, 75, 0
2, 55296, Note_on_c, 1, 75, 45
2, 55488, Note_on_c, 1, 75, 0
2, 55488, Note_on_c, 1, 73, 45
2, 55648, Note_on_c, 1, 73, 0
2, 55680, Note_on_c, 1, 73, 45
2, 55728, Note_on_c, 1, 73, 0
2, 55872, Note_on_c, 1, 73, 45
2, 56064, Note_on_c, 1, 73, 0
2, 56064, Note_on_c, 1, 72, 45
2, 56224, Note_on_c, 1, 72, 0
2, 56256, Note_on_c, 1, 72, 45
2, 56304, Note_on_c, 1, 72, 0
2, 56448, Note_on_c, 1, 68, 45
2, 56832, Note_on_c, 1, 68, 0
2, 56832, Note_on_c, 1, 72, 45
2, 56992, Note_on_c, 1, 72, 0
2, 57024, Note_on_c, 1, 72, 45
2, 57216, Note_on_c, 1, 72, 0
2, 57216, Note_on_c, 1, 70, 45
2, 57376, Note_on_c, 1, 70, 0
2, 57408, Note_on_c, 1, 70, 45
2, 57456, Note_on_c, 1, 70, 0
2, 57600, Note_on_c, 1, 70, 45
2, 57792, Note_on_c, 1, 70, 0
2, 57792, Note_on_c, 1, 68, 45
2, 57952, Note_on_c, 1, 68, 0
2, 57984, Note_on_c, 1, 68, 45
2, 58032, Note_on_c, 1, 68, 0
2, 58176, Note_on_c, 1, 77, 45
2, 58912, Note_on_c, 1, 77, 0
2, 58944, Note_on_c, 1, 75, 45
2, 58992, Note_on_c, 1, 75, 0
2, 59136, Note_on_c, 1, 77, 45
2, 59184, Note_on_c, 1, 77, 0
2, 59328, Note_on_c, 1, 78, 45
2, 60064, Note_on_c, 1, 78, 0
2, 60096, Note_on_c, 1, 77, 45
2, 60144, Note_on_c, 1, 77, 0
2, 60288, Note_on_c, 1, 79, 45
2, 60336, Note_on_c, 1, 79, 0
2, 60480, Note_on_c, 1, 80, 45
2, 61216, Note_on_c, 1, 80, 0
2, 61248, Note_on_c, 1, 79, 45
2, 61296, Note_on_c, 1, 79, 0
2, 61440, Note_on_c, 1, 80, 45
2, 61488, Note_on_c, 1, 80, 0
2, 61632, Note_on_c, 1, 82, 45
2, 62400, Note_on_c, 1, 82, 0
2, 62400, Note_on_c, 1, 80, 45
2, 62560, Note_on_c, 1, 80, 0
2, 62592, Note_on_c, 1, 80, 45
2, 62640, Note_on_c, 1, 80, 0
2, 62784, Note_on_c, 1, 79, 45
2, 62944, Note_on_c, 1, 79, 0
2, 63168, Note_on_c, 1, 83, 45
2, 63190, Note_on_c, 1, 83, 0
2, 63192, Note_on_c, 1, 84, 45
2, 63248, Note_on_c, 1, 84, 0
2, 63360, Note_on_c, 1, 80, 45
2, 63520, Note_on_c, 1, 80, 0
2, 63744, Note_on_c, 1, 83, 45
2, 63766, Note_on_c, 1, 83, 0
2, 63768, Note_on_c, 1, 84, 45
2, 63824, Note_on_c, 1, 84, 0
2, 63936, Note_on_c, 1, 79, 45
2, 64096, Note_on_c, 1, 79, 0
2, 64320, Note_on_c, 1, 83, 45
2, 64342, Note_on_c, 1, 83, 0
2, 64344, Note_on_c, 1, 84, 45
2, 64400, Note_on_c, 1, 84, 0
2, 64512, Note_on_c, 1, 80, 45
2, 64672, Note_on_c, 1, 80, 0
2, 64896, Note_on_c, 1, 83, 45
2, 64918, Note_on_c, 1, 83, 0
2, 64920, Note_on_c, 1, 84, 45
2, 64976, Note_on_c, 1, 84, 0
2, 65088, Note_on_c, 1, 79, 45
2, 65248, Note_on_c, 1, 79, 0
2, 65664, Note_on_c, 1, 60, 30
2, 65712, Note_on_c, 1, 60, 0
2, 65856, Note_on_c, 1, 64, 30
2, 65904, Note_on_c, 1, 64, 0
2, 66048, Note_on_c, 1, 65, 30
2, 66096, Note_on_c, 1, 65, 0
2, 66240, Note_on_c, 1, 67, 30
2, 66288, Note_on_c, 1, 67, 0
2, 66816, Note_on_c, 1, 72, 30
2, 66864, Note_on_c, 1, 72, 0
2, 67008, Note_on_c, 1, 76, 30
2, 67056, Note_on_c, 1, 76, 0
2, 67200, Note_on_c, 1, 77, 30
2, 67248, Note_on_c, 1, 77, 0
2, 67392, Note_on_c, 1, 79, 30
2, 67440, Note_on_c, 1, 79, 0
2, 67968, Note_on_c, 1, 64, 30
2, 68016, Note_on_c, 1, 64, 0
2, 68352, Note_on_c, 1, 69, 30
2, 68400, Note_on_c, 1, 69, 0
2, 68544, Note_on_c, 1, 70, 30
2, 68592, Note_on_c, 1, 70, 0
2, 69312, Note_on_c, 1, 64, 30
2, 69472, Note_on_c, 1, 64, 0
2, 69504, Note_on_c, 1, 64, 30
2, 69664, Note_on_c, 1, 64, 0
2, 69696, Note_on_c, 1, 65, 30
2, 70432, Note_on_c, 1, 65, 0
2, 70464, Note_on_c, 1, 64, 39
2, 70512, Note_on_c, 1, 64, 0
2, 70656, Note_on_c, 1, 66, 41
2, 70704, Note_on_c, 1, 66, 0
2, 70848, Note_on_c, 1, 67, 43
2, 71584, Note_on_c, 1, 67, 0
2, 71616, Note_on_c, 1, 66, 54
2, 71664, Note_on_c, 1, 66, 0
2, 71808, Note_on_c, 1, 68, 57
2, 71856, Note_on_c, 1, 68, 0
2, 72000, Note_on_c, 1, 69, 45
2, 72384, Note_on_c, 1, 69, 0
2, 72384, Note_on_c, 1, 71, 45
2, 72576, Note_on_c, 1, 71, 0
2, 72576, Note_on_c, 1, 72, 45
2, 72624, Note_on_c, 1, 72, 0
2, 73152, Note_on_c, 1, 74, 30
2, 73536, Note_on_c, 1, 74, 0
2, 73536, Note_on_c, 1, 76, 30
2, 73728, Note_on_c, 1, 76, 0
2, 73728, Note_on_c, 1, 77, 30
2, 73776, Note_on_c, 1, 77, 0
2, 74304, Note_on_c, 1, 77, 10
2, 74688, Note_on_c, 1, 77, 0
2, 74688, Note_on_c, 1, 79, 10
2, 74880, Note_on_c, 1, 79, 0
2, 74880, Note_on_c, 1, 81, 10
2, 74928, Note_on_c, 1, 81, 0
2, 75456, Note_on_c, 1, 81, 10
2, 75504, Note_on_c, 1, 81, 0
2, 75504, Note_on_c, 1, 79, 10
2, 75552, Note_on_c, 1, 79, 0
2, 75552, Note_on_c, 1, 81, 10
2, 75600, Note_on_c, 1, 81, 0
2, 75600, Note_on_c, 1, 79, 10
2, 75648, Note_on_c, 1, 79, 0
2, 75648, Note_on_c, 1, 81, 10
2, 75696, Note_on_c, 1, 81, 0
2, 75696, Note_on_c, 1, 79, 10
2, 75744, Note_on_c, 1, 79, 0
2, 75744, Note_on_c, 1, 81, 10
2, 75792, Note_on_c, 1, 81, 0
2, 75792, Note_on_c, 1, 79, 10
2, 75840, Note_on_c, 1, 79, 0
2, 75840, Note_on_c, 1, 81, 10
2, 75888, Note_on_c, 1, 81, 0
2, 75888, Note_on_c, 1, 79, 10
2, 75936, Note_on_c, 1, 79, 0
2, 75936, Note_on_c, 1, 77, 10
2, 75984, Note_on_c, 1, 77, 0
2, 75984, Note_on_c, 1, 79, 10
2, 76030, Note_on_c, 1, 79, 0
2, 76032, Note_on_c, 1, 81, 10
2, 76192, Note_on_c, 1, 81, 0
2, 76608, Note_on_c, 1, 69, 10
2, 76656, Note_on_c, 1, 69, 0
2, 76656, Note_on_c, 1, 67, 10
2, 76704, Note_on_c, 1, 67, 0
2, 76704, Note_on_c, 1, 69, 10
2, 76752, Note_on_c, 1, 69, 0
2, 76752, Note_on_c, 1, 67, 10
2, 76800, Note_on_c, 1, 67, 0
2, 76800, Note_on_c, 1, 69, 10
2, 76848, Note_on_c, 1, 69, 0
2, 76848, Note_on_c, 1, 67, 10
2, 76896, Note_on_c, 1, 67, 0
2, 76896, Note_on_c, 1, 69, 10
2, 76944, Note_on_c, 1, 69, 0
2, 76944, Note_on_c, 1, 67, 10
2, 76992, Note_on_c, 1, 67, 0
2, 76992, Note_on_c, 1, 69, 10
2, 77040, Note_on_c, 1, 69, 0
2, 77040, Note_on_c, 1, 67, 10
2, 77088, Note_on_c, 1, 67, 0
2, 77088, Note_on_c, 1, 65, 10
2, 77136, Note_on_c, 1, 65, 0
2, 77136, Note_on_c, 1, 67, 10
2, 77182, Note_on_c, 1, 67, 0
2, 77184, Note_on_c, 1, 65, 30
2, 77344, Note_on_c, 1, 65, 0
2, 77952, Note_on_c, 1, 64, 42
2, 78496, Note_on_c, 1, 64, 0
2, 78528, Note_on_c, 1, 72, 30
2, 78576, Note_on_c, 1, 72, 0
2, 78720, Note_on_c, 1, 72, 30
2, 78768, Note_on_c, 1, 72, 0
2, 79104, Note_on_c, 1, 64, 42
2, 79648, Note_on_c, 1, 64, 0
2, 79680, Note_on_c, 1, 77, 30
2, 79728, Note_on_c, 1, 77, 0
2, 79872, Note_on_c, 1, 77, 30
2, 79920, Note_on_c, 1, 77, 0
2, 80256, Note_on_c, 1, 64, 42
2, 80640, Note_on_c, 1, 64, 0
2, 80640, Note_on_c, 1, 65, 30
2, 80800, Note_on_c, 1, 65, 0
2, 80832, Note_on_c, 1, 84, 30
2, 80880, Note_on_c, 1, 84, 0
2, 81024, Note_on_c, 1, 84, 30
2, 81072, Note_on_c, 1, 84, 0
2, 81216, Note_on_c, 1, 77, 42
2, 81264, Note_on_c, 1, 77, 0
2, 81264, Note_on_c, 1, 75, 30
2, 81312, Note_on_c, 1, 75, 0
2, 81312, Note_on_c, 1, 77, 30
2, 81360, Note_on_c, 1, 77, 0
2, 81360, Note_on_c, 1, 75, 30
2, 81408, Note_on_c, 1, 75, 0
2, 81408, Note_on_c, 1, 77, 30
2, 81456, Note_on_c, 1, 77, 0
2, 81456, Note_on_c, 1, 75, 30
2, 81504, Note_on_c, 1, 75, 0
2, 81504, Note_on_c, 1, 77, 30
2, 81552, Note_on_c, 1, 77, 0
2, 81552, Note_on_c, 1, 75, 30
2, 81600, Note_on_c, 1, 75, 0
2, 81600, Note_on_c, 1, 77, 30
2, 81648, Note_on_c, 1, 77, 0
2, 81648, Note_on_c, 1, 75, 30
2, 81696, Note_on_c, 1, 75, 0
2, 81696, Note_on_c, 1, 74, 30
2, 81744, Note_on_c, 1, 74, 0
2, 81744, Note_on_c, 1, 75, 30
2, 81790, Note_on_c, 1, 75, 0
2, 81792, Note_on_c, 1, 74, 30
2, 81952, Note_on_c, 1, 74, 0
2, 82368, Note_on_c, 1, 76, 30
2, 82528, Note_on_c, 1, 76, 0
2, 82944, Note_on_c, 1, 77, 30
2, 83104, Note_on_c, 1, 77, 0
2, 83136, Note_on_c, 1, 84, 30
2, 83296, Note_on_c, 1, 84, 0
2, 83328, Note_on_c, 1, 84, 30
2, 83488, Note_on_c, 1, 84, 0
2, 83520, Note_on_c, 1, 77, 42
2, 83568, Note_on_c, 1, 77, 0
2, 83568, Note_on_c, 1, 75, 30
2, 83616, Note_on_c, 1, 75, 0
2, 83616, Note_on_c, 1, 77, 30
2, 83664, Note_on_c, 1, 77, 0
2, 83664, Note_on_c, 1, 75, 30
2, 83712, Note_on_c, 1, 75, 0
2, 83712, Note_on_c, 1, 77, 30
2, 83760, Note_on_c, 1, 77, 0
2, 83760, Note_on_c, 1, 75, 30
2, 83808, Note_on_c, 1, 75, 0
2, 83808, Note_on_c, 1, 77, 30
2, 83856, Note_on_c, 1, 77, 0
2, 83856, Note_on_c, 1, 75, 30
2, 83904, Note_on_c, 1, 75, 0
2, 83904, Note_on_c, 1, 77, 30
2, 83952, Note_on_c, 1, 77, 0
2, 83952, Note_on_c, 1, 75, 30
2, 84000, Note_on_c, 1, 75, 0
2, 84000, Note_on_c, 1, 74, 30
2, 84048, Note_on_c, 1, 74, 0
2, 84048, Note_on_c, 1, 75, 30
2, 84094, Note_on_c, 1, 75, 0
2, 84096, Note_on_c, 1, 74, 30
2, 84256, Note_on_c, 1, 74, 0
2, 84672, Note_on_c, 1, 76, 30
2, 84832, Note_on_c, 1, 76, 0
2, 85248, Note_on_c, 1, 77, 30
2, 85984, Note_on_c, 1, 77, 0
2, 86016, Note_on_c, 1, 76, 42
2, 86064, Note_on_c, 1, 76, 0
2, 86208, Note_on_c, 1, 78, 45
2, 86256, Note_on_c, 1, 78, 0
2, 86400, Note_on_c, 1, 79, 48
2, 87136, Note_on_c, 1, 79, 0
2, 87168, Note_on_c, 1, 78, 61
2, 87216, Note_on_c, 1, 78, 0
2, 87360, Note_on_c, 1, 80, 64
2, 87408, Note_on_c, 1, 80, 0
2, 87552, Note_on_c, 1, 81, 67
2, 88752, Note_on_c, 1, 81, 0
2, 88896, Note_on_c, 1, 81, 92
2, 89088, Note_on_c, 1, 81, 0
2, 89088, Note_on_c, 1, 82, 92
2, 89280, Note_on_c, 1, 82, 0
2, 89280, Note_on_c, 1, 84, 92
2, 89472, Note_on_c, 1, 84, 0
2, 89472, Note_on_c, 1, 86, 92
2, 89664, Note_on_c, 1, 86, 0
2, 89664, Note_on_c, 1, 87, 92
2, 89824, Note_on_c, 1, 87, 0
2, 89856, Note_on_c, 1, 86, 92
2, 90048, Note_on_c, 1, 86, 0
2, 90048, Note_on_c, 1, 82, 92
2, 90240, Note_on_c, 1, 82, 0
2, 90240, Note_on_c, 1, 81, 92
2, 90432, Note_on_c, 1, 81, 0
2, 90432, Note_on_c, 1, 79, 92
2, 90480, Note_on_c, 1, 79, 0
2, 90624, Note_on_c, 1, 86, 92
2, 90816, Note_on_c, 1, 86, 0
2, 90816, Note_on_c, 1, 84, 92
2, 91008, Note_on_c, 1, 84, 0
2, 91008, Note_on_c, 1, 82, 92
2, 91200, Note_on_c, 1, 82, 0
2, 91200, Note_on_c, 1, 81, 92
2, 91392, Note_on_c, 1, 81, 0
2, 91392, Note_on_c, 1, 79, 92
2, 91584, Note_on_c, 1, 79, 0
2, 91584, Note_on_c, 1, 77, 92
2, 91776, Note_on_c, 1, 77, 0
2, 91776, Note_on_c, 1, 76, 92
2, 91968, Note_on_c, 1, 76, 0
2, 91968, Note_on_c, 1, 74, 92
2, 92160, Note_on_c, 1, 74, 0
2, 92160, Note_on_c, 1, 72, 92
2, 92352, Note_on_c, 1, 72, 0
2, 92352, Note_on_c, 1, 70, 92
2, 92544, Note_on_c, 1, 70, 0
2, 92544, Note_on_c, 1, 69, 92
2, 92736, Note_on_c, 1, 69, 0
2, 92736, Note_on_c, 1, 67, 92
2, 92928, Note_on_c, 1, 67, 0
2, 92928, Note_on_c, 1, 70, 92
2, 93088, Note_on_c, 1, 70, 0
2, 93120, Note_on_c, 1, 64, 92
2, 93168, Note_on_c, 1, 64, 0
2, 93312, Note_on_c, 1, 65, 92
2, 93360, Note_on_c, 1, 65, 0
2, 93504, Note_on_c, 1, 69, 92
2, 93552, Note_on_c, 1, 69, 0
2, 93696, Note_on_c, 1, 71, 127
2, 93744, Note_on_c, 1, 71, 0
2, 93888, Note_on_c, 1, 72, 92
2, 94416, Note_on_c, 1, 72, 0
2, 94464, Note_on_c, 1, 77, 92
2, 94512, Note_on_c, 1, 77, 0
2, 94656, Note_on_c, 1, 81, 92
2, 94704, Note_on_c, 1, 81, 0
2, 94848, Note_on_c, 1, 83, 127
2, 94896, Note_on_c, 1, 83, 0
2, 95040, Note_on_c, 1, 84, 92
2, 95776, Note_on_c, 1, 84, 0
2, 95808, Note_on_c, 1, 84, 127
2, 96352, Note_on_c, 1, 84, 0
2, 96384, Note_on_c, 1, 84, 127
2, 96928, Note_on_c, 1, 84, 0
2, 96960, Note_on_c, 1, 81, 92
2, 97008, Note_on_c, 1, 81, 0
2, 97152, Note_on_c, 1, 81, 92
2, 97200, Note_on_c, 1, 81, 0
2, 97344, Note_on_c, 1, 77, 92
2, 97392, Note_on_c, 1, 77, 0
2, 97920, Note_on_c, 1, 71, 127
2, 97942, Note_on_c, 1, 71, 0
2, 97944, Note_on_c, 1, 72, 127
2, 98000, Note_on_c, 1, 72, 0
2, 98304, Note_on_c, 1, 60, 127
2, 98352, Note_on_c, 1, 60, 0
2, 98496, Note_on_c, 1, 71, 127
2, 98518, Note_on_c, 1, 71, 0
2, 98520, Note_on_c, 1, 72, 127
2, 98576, Note_on_c, 1, 72, 0
2, 98880, Note_on_c, 1, 60, 127
2, 98928, Note_on_c, 1, 60, 0
2, 99072, Note_on_c, 1, 71, 127
2, 99094, Note_on_c, 1, 71, 0
2, 99096, Note_on_c, 1, 72, 127
2, 99152, Note_on_c, 1, 72, 0
2, 99264, Note_on_c, 1, 60, 127
2, 99312, Note_on_c, 1, 60, 0
2, 99456, Note_on_c, 1, 72, 127
2, 99504, Note_on_c, 1, 72, 0
2, 99648, Note_on_c, 1, 60, 127
2, 99696, Note_on_c, 1, 60, 0
2, 99840, Note_on_c, 1, 72, 127
2, 99888, Note_on_c, 1, 72, 0
2, 100032, Note_on_c, 1, 60, 127
2, 100080, Note_on_c, 1, 60, 0
2, 100224, Note_on_c, 1, 61, 45
2, 100320, Note_on_c, 1, 61, 0
2, 100320, Note_on_c, 1, 63, 45
2, 100416, Note_on_c, 1, 63, 0
2, 100416, Note_on_c, 1, 61, 45
2, 100512, Note_on_c, 1, 61, 0
2, 100512, Note_on_c, 1, 60, 45
2, 100608, Note_on_c, 1, 60, 0
2, 100608, Note_on_c, 1, 61, 45
2, 100704, Note_on_c, 1, 61, 0
2, 100704, Note_on_c, 1, 63, 45
2, 100798, Note_on_c, 1, 63, 0
2, 100896, Note_on_c, 1, 66, 45
2, 100992, Note_on_c, 1, 66, 0
2, 100992, Note_on_c, 1, 68, 45
2, 101088, Note_on_c, 1, 68, 0
2, 101088, Note_on_c, 1, 70, 45
2, 101184, Note_on_c, 1, 70, 0
2, 101184, Note_on_c, 1, 72, 45
2, 101280, Note_on_c, 1, 72, 0
2, 101280, Note_on_c, 1, 73, 45
2, 101376, Note_on_c, 1, 73, 0
2, 101376, Note_on_c, 1, 75, 45
2, 101472, Note_on_c, 1, 75, 0
2, 101472, Note_on_c, 1, 77, 45
2, 101568, Note_on_c, 1, 77, 0
2, 101568, Note_on_c, 1, 78, 45
2, 101664, Note_on_c, 1, 78, 0
2, 101664, Note_on_c, 1, 77, 45
2, 101760, Note_on_c, 1, 77, 0
2, 101760, Note_on_c, 1, 75, 45
2, 101856, Note_on_c, 1, 75, 0
2, 101856, Note_on_c, 1, 73, 45
2, 101952, Note_on_c, 1, 73, 0
2, 101952, Note_on_c, 1, 72, 45
2, 102048, Note_on_c, 1, 72, 0
2, 102048, Note_on_c, 1, 70, 45
2, 102144, Note_on_c, 1, 70, 0
2, 102144, Note_on_c, 1, 68, 45
2, 102240, Note_on_c, 1, 68, 0
2, 102240, Note_on_c, 1, 66, 45
2, 102336, Note_on_c, 1, 66, 0
2, 102336, Note_on_c, 1, 65, 45
2, 102432, Note_on_c, 1, 65, 0
2, 102432, Note_on_c, 1, 63, 45
2, 102526, Note_on_c, 1, 63, 0
2, 102528, Note_on_c, 1, 61, 45
2, 102624, Note_on_c, 1, 61, 0
2, 102624, Note_on_c, 1, 63, 45
2, 102720, Note_on_c, 1, 63, 0
2, 102720, Note_on_c, 1, 61, 45
2, 102816, Note_on_c, 1, 61, 0
2, 102816, Note_on_c, 1, 60, 45
2, 102912, Note_on_c, 1, 60, 0
2, 102912, Note_on_c, 1, 61, 45
2, 103008, Note_on_c, 1, 61, 0
2, 103008, Note_on_c, 1, 63, 45
2, 103102, Note_on_c, 1, 63, 0
2, 103200, Note_on_c, 1, 66, 45
2, 103296, Note_on_c, 1, 66, 0
2, 103296, Note_on_c, 1, 68, 45
2, 103392, Note_on_c, 1, 68, 0
2, 103392, Note_on_c, 1, 70, 45
2, 103488, Note_on_c, 1, 70, 0
2, 103488, Note_on_c, 1, 72, 45
2, 103584, Note_on_c, 1, 72, 0
2, 103584, Note_on_c, 1, 73, 45
2, 103678, Note_on_c, 1, 73, 0
2, 103680, Note_on_c, 1, 75, 45
2, 103776, Note_on_c, 1, 75, 0
2, 103776, Note_on_c, 1, 77, 45
2, 103872, Note_on_c, 1, 77, 0
2, 103872, Note_on_c, 1, 78, 45
2, 103968, Note_on_c, 1, 78, 0
2, 103968, Note_on_c, 1, 77, 45
2, 104064, Note_on_c, 1, 77, 0
2, 104064, Note_on_c, 1, 75, 45
2, 104160, Note_on_c, 1, 75, 0
2, 104160, Note_on_c, 1, 73, 45
2, 104256, Note_on_c, 1, 73, 0
2, 104256, Note_on_c, 1, 72, 45
2, 104352, Note_on_c, 1, 72, 0
2, 104352, Note_on_c, 1, 70, 45
2, 104448, Note_on_c, 1, 70, 0
2, 104448, Note_on_c, 1, 68, 45
2, 104544, Note_on_c, 1, 68, 0
2, 104544, Note_on_c, 1, 66, 45
2, 104640, Note_on_c, 1, 66, 0
2, 104640, Note_on_c, 1, 65, 45
2, 104736, Note_on_c, 1, 65, 0
2, 104736, Note_on_c, 1, 63, 45
2, 104830, Note_on_c, 1, 63, 0
2, 104832, Note_on_c, 1, 61, 45
2, 104928, Note_on_c, 1, 61, 0
2, 104928, Note_on_c, 1, 65, 45
2, 105024, Note_on_c, 1, 65, 0
2, 105024, Note_on_c, 1, 64, 45
2, 105120, Note_on_c, 1, 64, 0
2, 105120, Note_on_c, 1, 65, 45
2, 105216, Note_on_c, 1, 65, 0
2, 105216, Note_on_c, 1, 64, 45
2, 105312, Note_on_c, 1, 64, 0
2, 105312, Note_on_c, 1, 65, 45
2, 105406, Note_on_c, 1, 65, 0
2, 105504, Note_on_c, 1, 65, 45
2, 105600, Note_on_c, 1, 65, 0
2, 105600, Note_on_c, 1, 60, 45
2, 105696, Note_on_c, 1, 60, 0
2, 105696, Note_on_c, 1, 65, 45
2, 105792, Note_on_c, 1, 65, 0
2, 105792, Note_on_c, 1, 59, 45
2, 105888, Note_on_c, 1, 59, 0
2, 105888, Note_on_c, 1, 65, 45
2, 105982, Note_on_c, 1, 65, 0
2, 106080, Note_on_c, 1, 65, 45
2, 106176, Note_on_c, 1, 65, 0
2, 106176, Note_on_c, 1, 68, 45
2, 106272, Note_on_c, 1, 68, 0
2, 106272, Note_on_c, 1, 72, 45
2, 106368, Note_on_c, 1, 72, 0
2, 106368, Note_on_c, 1, 60, 45
2, 106464, Note_on_c, 1, 60, 0
2, 106464, Note_on_c, 1, 72, 45
2, 106558, Note_on_c, 1, 72, 0
2, 106560, Note_on_c, 1, 65, 60
2, 106720, Note_on_c, 1, 65, 0
2, 107136, Note_on_c, 1, 71, 127
2, 107158, Note_on_c, 1, 71, 0
2, 107160, Note_on_c, 1, 72, 127
2, 107216, Note_on_c, 1, 72, 0
2, 107520, Note_on_c, 1, 60, 127
2, 107568, Note_on_c, 1, 60, 0
2, 107712, Note_on_c, 1, 71, 127
2, 107734, Note_on_c, 1, 71, 0
2, 107736, Note_on_c, 1, 72, 127
2, 107792, Note_on_c, 1, 72, 0
2, 108096, Note_on_c, 1, 60, 127
2, 108144, Note_on_c, 1, 60, 0
2, 108288, Note_on_c, 1, 71, 127
2, 108310, Note_on_c, 1, 71, 0
2, 108312, Note_on_c, 1, 72, 127
2, 108368, Note_on_c, 1, 72, 0
2, 108480, Note_on_c, 1, 60, 127
2, 108528, Note_on_c, 1, 60, 0
2, 108672, Note_on_c, 1, 72, 127
2, 108720, Note_on_c, 1, 72, 0
2, 108864, Note_on_c, 1, 60, 127
2, 108912, Note_on_c, 1, 60, 0
2, 109056, Note_on_c, 1, 72, 127
2, 109104, Note_on_c, 1, 72, 0
2, 109248, Note_on_c, 1, 60, 127
2, 109296, Note_on_c, 1, 60, 0
2, 109440, Note_on_c, 1, 61, 45
2, 109536, Note_on_c, 1, 61, 0
2, 109536, Note_on_c, 1, 63, 45
2, 109632, Note_on_c, 1, 63, 0
2, 109632, Note_on_c, 1, 61, 45
2, 109728, Note_on_c, 1, 61, 0
2, 109728, Note_on_c, 1, 60, 45
2, 109824, Note_on_c, 1, 60, 0
2, 109824, Note_on_c, 1, 61, 45
2, 109920, Note_on_c, 1, 61, 0
2, 109920, Note_on_c, 1, 63, 45
2, 110014, Note_on_c, 1, 63, 0
2, 110112, Note_on_c, 1, 66, 45
2, 110208, Note_on_c, 1, 66, 0
2, 110208, Note_on_c, 1, 68, 45
2, 110304, Note_on_c, 1, 68, 0
2, 110304, Note_on_c, 1, 70, 45
2, 110400, Note_on_c, 1, 70, 0
2, 110400, Note_on_c, 1, 72, 45
2, 110496, Note_on_c, 1, 72, 0
2, 110496, Note_on_c, 1, 73, 45
2, 110592, Note_on_c, 1, 73, 0
2, 110592, Note_on_c, 1, 75, 45
2, 110688, Note_on_c, 1, 75, 0
2, 110688, Note_on_c, 1, 77, 45
2, 110784, Note_on_c, 1, 77, 0
2, 110784, Note_on_c, 1, 78, 45
2, 110880, Note_on_c, 1, 78, 0
2, 110880, Note_on_c, 1, 77, 45
2, 110976, Note_on_c, 1, 77, 0
2, 110976, Note_on_c, 1, 75, 45
2, 111072, Note_on_c, 1, 75, 0
2, 111072, Note_on_c, 1, 73, 45
2, 111168, Note_on_c, 1, 73, 0
2, 111168, Note_on_c, 1, 72, 45
2, 111264, Note_on_c, 1, 72, 0
2, 111264, Note_on_c, 1, 70, 45
2, 111360, Note_on_c, 1, 70, 0
2, 111360, Note_on_c, 1, 68, 45
2, 111456, Note_on_c, 1, 68, 0
2, 111456, Note_on_c, 1, 66, 45
2, 111552, Note_on_c, 1, 66, 0
2, 111552, Note_on_c, 1, 65, 45
2, 111648, Note_on_c, 1, 65, 0
2, 111648, Note_on_c, 1, 63, 45
2, 111742, Note_on_c, 1, 63, 0
2, 111744, Note_on_c, 1, 61, 45
2, 111840, Note_on_c, 1, 61, 0
2, 111840, Note_on_c, 1, 63, 45
2, 111936, Note_on_c, 1, 63, 0
2, 111936, Note_on_c, 1, 61, 45
2, 112032, Note_on_c, 1, 61, 0
2, 112032, Note_on_c, 1, 60, 45
2, 112128, Note_on_c, 1, 60, 0
2, 112128, Note_on_c, 1, 61, 45
2, 112224, Note_on_c, 1, 61, 0
2, 112224, Note_on_c, 1, 63, 45
2, 112318, Note_on_c, 1, 63, 0
2, 112416, Note_on_c, 1, 66, 45
2, 112512, Note_on_c, 1, 66, 0
2, 112512, Note_on_c, 1, 68, 45
2, 112608, Note_on_c, 1, 68, 0
2, 112608, Note_on_c, 1, 70, 45
2, 112704, Note_on_c, 1, 70, 0
2, 112704, Note_on_c, 1, 72, 45
2, 112800, Note_on_c, 1, 72, 0
2, 112800, Note_on_c, 1, 73, 45
2, 112894, Note_on_c, 1, 73, 0
2, 112896, Note_on_c, 1, 75, 45
2, 112992, Note_on_c, 1, 75, 0
2, 112992, Note_on_c, 1, 77, 45
2, 113088, Note_on_c, 1, 77, 0
2, 113088, Note_on_c, 1, 78, 45
2, 113184, Note_on_c, 1, 78, 0
2, 113184, Note_on_c, 1, 77, 45
2, 113280, Note_on_c, 1, 77, 0
2, 113280, Note_on_c, 1, 75, 45
2, 113376, Note_on_c, 1, 75, 0
2, 113376, Note_on_c, 1, 73, 45
2, 113472, Note_on_c, 1, 73, 0
2, 113472, Note_on_c, 1, 72, 45
2, 113568, Note_on_c, 1, 72, 0
2, 113568, Note_on_c, 1, 70, 45
2, 113664, Note_on_c, 1, 70, 0
2, 113664, Note_on_c, 1, 68, 45
2, 113760, Note_on_c, 1, 68, 0
2, 113760, Note_on_c, 1, 66, 45
2, 113856, Note_on_c, 1, 66, 0
2, 113856, Note_on_c, 1, 65, 45
2, 113952, Note_on_c, 1, 65, 0
2, 113952, Note_on_c, 1, 63, 45
2, 114046, Note_on_c, 1, 63, 0
2, 114048, Note_on_c, 1, 61, 45
2, 114144, Note_on_c, 1, 61, 0
2, 114144, Note_on_c, 1, 65, 45
2, 114240, Note_on_c, 1, 65, 0
2, 114240, Note_on_c, 1, 64, 45
2, 114336, Note_on_c, 1, 64, 0
2, 114336, Note_on_c, 1, 65, 45
2, 114432, Note_on_c, 1, 65, 0
2, 114432, Note_on_c, 1, 64, 45
2, 114528, Note_on_c, 1, 64, 0
2, 114528, Note_on_c, 1, 65, 45
2, 114622, Note_on_c, 1, 65, 0
2, 114720, Note_on_c, 1, 65, 45
2, 114816, Note_on_c, 1, 65, 0
2, 114816, Note_on_c, 1, 60, 45
2, 114912, Note_on_c, 1, 60, 0
2, 114912, Note_on_c, 1, 65, 45
2, 115008, Note_on_c, 1, 65, 0
2, 115008, Note_on_c, 1, 59, 45
2, 115104, Note_on_c, 1, 59, 0
2, 115104, Note_on_c, 1, 65, 45
2, 115198, Note_on_c, 1, 65, 0
2, 115296, Note_on_c, 1, 65, 45
2, 115392, Note_on_c, 1, 65, 0
2, 115392, Note_on_c, 1, 68, 45
2, 115488, Note_on_c, 1, 68, 0
2, 115488, Note_on_c, 1, 72, 45
2, 115584, Note_on_c, 1, 72, 0
2, 115584, Note_on_c, 1, 60, 45
2, 115680, Note_on_c, 1, 60, 0
2, 115680, Note_on_c, 1, 72, 45
2, 115774, Note_on_c, 1, 72, 0
2, 115776, Note_on_c, 1, 65, 60
2, 115936, Note_on_c, 1, 65, 0
2, 116352, Note_on_c, 1, 75, 30
2, 118608, Note_on_c, 1, 75, 0
2, 118656, Note_on_c, 1, 74, 30
2, 120912, Note_on_c, 1, 74, 0
2, 120960, Note_on_c, 1, 73, 30
2, 121536, Note_on_c, 1, 73, 0
2, 121536, Note_on_c, 1, 67, 30
2, 121536, Note_on_c, 1, 72, 30
2, 122640, Note_on_c, 1, 72, 0
2, 122640, Note_on_c, 1, 67, 0
2, 122688, Note_on_c, 1, 65, 30
2, 122688, Note_on_c, 1, 72, 30
2, 123216, Note_on_c, 1, 72, 0
2, 123216, Note_on_c, 1, 65, 0
2, 123264, Note_on_c, 1, 64, 30
2, 123264, Note_on_c, 1, 72, 30
2, 123424, Note_on_c, 1, 72, 0
2, 123424, Note_on_c, 1, 64, 0
2, 125568, Note_on_c, 1, 71, 60
2, 125590, Note_on_c, 1, 71, 0
2, 125592, Note_on_c, 1, 72, 60
2, 125648, Note_on_c, 1, 72, 0
2, 125952, Note_on_c, 1, 60, 60
2, 126000, Note_on_c, 1, 60, 0
2, 126144, Note_on_c, 1, 71, 60
2, 126166, Note_on_c, 1, 71, 0
2, 126168, Note_on_c, 1, 72, 60
2, 126224, Note_on_c, 1, 72, 0
2, 126528, Note_on_c, 1, 60, 64
2, 126576, Note_on_c, 1, 60, 0
2, 126720, Note_on_c, 1, 71, 66
2, 126742, Note_on_c, 1, 71, 0
2, 126744, Note_on_c, 1, 72, 66
2, 126800, Note_on_c, 1, 72, 0
2, 126912, Note_on_c, 1, 60, 68
2, 126960, Note_on_c, 1, 60, 0
2, 127104, Note_on_c, 1, 72, 71
2, 127152, Note_on_c, 1, 72, 0
2, 127296, Note_on_c, 1, 61, 74
2, 127344, Note_on_c, 1, 61, 0
2, 127488, Note_on_c, 1, 73, 77
2, 127536, Note_on_c, 1, 73, 0
2, 127680, Note_on_c, 1, 61, 80
2, 127728, Note_on_c, 1, 61, 0
2, 127968, Note_on_c, 1, 67, 84
2, 128064, Note_on_c, 1, 67, 0
2, 128064, Note_on_c, 1, 70, 85
2, 128160, Note_on_c, 1, 70, 0
2, 128160, Note_on_c, 1, 67, 86
2, 128256, Note_on_c, 1, 67, 0
2, 128256, Note_on_c, 1, 74, 88
2, 128352, Note_on_c, 1, 74, 0
2, 128352, Note_on_c, 1, 70, 90
2, 128446, Note_on_c, 1, 70, 0
2, 128448, Note_on_c, 1, 79, 92
2, 128544, Note_on_c, 1, 79, 0
2, 128544, Note_on_c, 1, 74, 45
2, 128640, Note_on_c, 1, 74, 0
2, 128640, Note_on_c, 1, 82, 45
2, 128736, Note_on_c, 1, 82, 0
2, 128736, Note_on_c, 1, 81, 45
2, 128832, Note_on_c, 1, 81, 0
2, 128832, Note_on_c, 1, 79, 45
2, 128928, Note_on_c, 1, 79, 0
2, 128928, Note_on_c, 1, 77, 45
2, 129024, Note_on_c, 1, 77, 0
2, 129024, Note_on_c, 1, 75, 45
2, 129120, Note_on_c, 1, 75, 0
2, 129120, Note_on_c, 1, 74, 45
2, 129216, Note_on_c, 1, 74, 0
2, 129216, Note_on_c, 1, 72, 45
2, 129312, Note_on_c, 1, 72, 0
2, 129312, Note_on_c, 1, 70, 45
2, 129408, Note_on_c, 1, 70, 0
2, 129408, Note_on_c, 1, 69, 45
2, 129504, Note_on_c, 1, 69, 0
2, 129504, Note_on_c, 1, 67, 45
2, 129600, Note_on_c, 1, 67, 0
2, 129600, Note_on_c, 1, 66, 45
2, 129696, Note_on_c, 1, 66, 0
2, 129696, Note_on_c, 1, 67, 45
2, 129792, Note_on_c, 1, 67, 0
2, 129792, Note_on_c, 1, 66, 45
2, 129888, Note_on_c, 1, 66, 0
2, 129888, Note_on_c, 1, 67, 45
2, 129984, Note_on_c, 1, 67, 0
2, 129984, Note_on_c, 1, 69, 45
2, 130080, Note_on_c, 1, 69, 0
2, 130080, Note_on_c, 1, 66, 45
2, 130174, Note_on_c, 1, 66, 0
2, 130176, Note_on_c, 1, 62, 45
2, 130272, Note_on_c, 1, 62, 0
2, 130272, Note_on_c, 1, 67, 45
2, 130368, Note_on_c, 1, 67, 0
2, 130368, Note_on_c, 1, 70, 45
2, 130464, Note_on_c, 1, 70, 0
2, 130464, Note_on_c, 1, 67, 45
2, 130560, Note_on_c, 1, 67, 0
2, 130560, Note_on_c, 1, 74, 45
2, 130656, Note_on_c, 1, 74, 0
2, 130656, Note_on_c, 1, 70, 45
2, 130750, Note_on_c, 1, 70, 0
2, 130752, Note_on_c, 1, 79, 92
2, 130848, Note_on_c, 1, 79, 0
2, 130848, Note_on_c, 1, 74, 45
2, 130944, Note_on_c, 1, 74, 0
2, 130944, Note_on_c, 1, 82, 45
2, 131040, Note_on_c, 1, 82, 0
2, 131040, Note_on_c, 1, 81, 45
2, 131136, Note_on_c, 1, 81, 0
2, 131136, Note_on_c, 1, 79, 45
2, 131232, Note_on_c, 1, 79, 0
2, 131232, Note_on_c, 1, 77, 45
2, 131328, Note_on_c, 1, 77, 0
2, 131328, Note_on_c, 1, 75, 45
2, 131424, Note_on_c, 1, 75, 0
2, 131424, Note_on_c, 1, 74, 45
2, 131520, Note_on_c, 1, 74, 0
2, 131520, Note_on_c, 1, 72, 45
2, 131616, Note_on_c, 1, 72, 0
2, 131616, Note_on_c, 1, 70, 45
2, 131712, Note_on_c, 1, 70, 0
2, 131712, Note_on_c, 1, 69, 45
2, 131808, Note_on_c, 1, 69, 0
2, 131808, Note_on_c, 1, 67, 45
2, 131904, Note_on_c, 1, 67, 0
2, 131904, Note_on_c, 1, 66, 45
2, 132000, Note_on_c, 1, 66, 0
2, 132000, Note_on_c, 1, 67, 45
2, 132096, Note_on_c, 1, 67, 0
2, 132096, Note_on_c, 1, 66, 45
2, 132192, Note_on_c, 1, 66, 0
2, 132192, Note_on_c, 1, 67, 45
2, 132288, Note_on_c, 1, 67, 0
2, 132288, Note_on_c, 1, 69, 45
2, 132384, Note_on_c, 1, 69, 0
2, 132384, Note_on_c, 1, 66, 45
2, 132478, Note_on_c, 1, 66, 0
2, 132480, Note_on_c, 1, 55, 45
2, 132576, Note_on_c, 1, 55, 0
2, 132576, Note_on_c, 1, 71, 45
2, 132672, Note_on_c, 1, 71, 0
2, 132672, Note_on_c, 1, 74, 45
2, 132768, Note_on_c, 1, 74, 0
2, 132768, Note_on_c, 1, 71, 45
2, 132864, Note_on_c, 1, 71, 0
2, 132864, Note_on_c, 1, 77, 45
2, 132960, Note_on_c, 1, 77, 0
2, 132960, Note_on_c, 1, 74, 45
2, 133054, Note_on_c, 1, 74, 0
2, 133056, Note_on_c, 1, 83, 92
2, 133152, Note_on_c, 1, 83, 0
2, 133152, Note_on_c, 1, 77, 45
2, 133248, Note_on_c, 1, 77, 0
2, 133248, Note_on_c, 1, 86, 45
2, 133344, Note_on_c, 1, 86, 0
2, 133344, Note_on_c, 1, 84, 45
2, 133440, Note_on_c, 1, 84, 0
2, 133440, Note_on_c, 1, 83, 45
2, 133536, Note_on_c, 1, 83, 0
2, 133536, Note_on_c, 1, 81, 45
2, 133632, Note_on_c, 1, 81, 0
2, 133632, Note_on_c, 1, 79, 45
2, 133728, Note_on_c, 1, 79, 0
2, 133728, Note_on_c, 1, 77, 45
2, 133824, Note_on_c, 1, 77, 0
2, 133824, Note_on_c, 1, 76, 45
2, 133920, Note_on_c, 1, 76, 0
2, 133920, Note_on_c, 1, 74, 45
2, 134016, Note_on_c, 1, 74, 0
2, 134016, Note_on_c, 1, 77, 45
2, 134112, Note_on_c, 1, 77, 0
2, 134112, Note_on_c, 1, 74, 45
2, 134208, Note_on_c, 1, 74, 0
2, 134208, Note_on_c, 1, 72, 45
2, 134304, Note_on_c, 1, 72, 0
2, 134304, Note_on_c, 1, 71, 45
2, 134400, Note_on_c, 1, 71, 0
2, 134400, Note_on_c, 1, 74, 45
2, 134496, Note_on_c, 1, 74, 0
2, 134496, Note_on_c, 1, 71, 45
2, 134592, Note_on_c, 1, 71, 0
2, 134592, Note_on_c, 1, 72, 45
2, 134688, Note_on_c, 1, 72, 0
2, 134688, Note_on_c, 1, 76, 45
2, 134782, Note_on_c, 1, 76, 0
2, 134784, Note_on_c, 1, 55, 45
2, 134880, Note_on_c, 1, 55, 0
2, 134880, Note_on_c, 1, 71, 45
2, 134976, Note_on_c, 1, 71, 0
2, 134976, Note_on_c, 1, 74, 45
2, 135072, Note_on_c, 1, 74, 0
2, 135072, Note_on_c, 1, 71, 45
2, 135168, Note_on_c, 1, 71, 0
2, 135168, Note_on_c, 1, 77, 45
2, 135264, Note_on_c, 1, 77, 0
2, 135264, Note_on_c, 1, 74, 45
2, 135358, Note_on_c, 1, 74, 0
2, 135360, Note_on_c, 1, 83, 92
2, 135456, Note_on_c, 1, 83, 0
2, 135456, Note_on_c, 1, 77, 45
2, 135552, Note_on_c, 1, 77, 0
2, 135552, Note_on_c, 1, 86, 45
2, 135648, Note_on_c, 1, 86, 0
2, 135648, Note_on_c, 1, 84, 45
2, 135744, Note_on_c, 1, 84, 0
2, 135744, Note_on_c, 1, 83, 45
2, 135840, Note_on_c, 1, 83, 0
2, 135840, Note_on_c, 1, 81, 45
2, 135936, Note_on_c, 1, 81, 0
2, 135936, Note_on_c, 1, 79, 45
2, 136032, Note_on_c, 1, 79, 0
2, 136032, Note_on_c, 1, 77, 45
2, 136128, Note_on_c, 1, 77, 0
2, 136128, Note_on_c, 1, 76, 45
2, 136224, Note_on_c, 1, 76, 0
2, 136224, Note_on_c, 1, 74, 45
2, 136320, Note_on_c, 1, 74, 0
2, 136320, Note_on_c, 1, 77, 45
2, 136416, Note_on_c, 1, 77, 0
2, 136416, Note_on_c, 1, 74, 45
2, 136512, Note_on_c, 1, 74, 0
2, 136512, Note_on_c, 1, 72, 45
2, 136608, Note_on_c, 1, 72, 0
2, 136608, Note_on_c, 1, 71, 45
2, 136704, Note_on_c, 1, 71, 0
2, 136704, Note_on_c, 1, 74, 45
2, 136800, Note_on_c, 1, 74, 0
2, 136800, Note_on_c, 1, 71, 45
2, 136896, Note_on_c, 1, 71, 0
2, 136896, Note_on_c, 1, 72, 45
2, 136992, Note_on_c, 1, 72, 0
2, 136992, Note_on_c, 1, 76, 45
2, 137086, Note_on_c, 1, 76, 0
2, 137088, Note_on_c, 1, 60, 45
2, 137184, Note_on_c, 1, 60, 0
2, 137184, Note_on_c, 1, 72, 45
2, 137280, Note_on_c, 1, 72, 0
2, 137280, Note_on_c, 1, 76, 45
2, 137376, Note_on_c, 1, 76, 0
2, 137376, Note_on_c, 1, 72, 45
2, 137472, Note_on_c, 1, 72, 0
2, 137472, Note_on_c, 1, 79, 45
2, 137568, Note_on_c, 1, 79, 0
2, 137568, Note_on_c, 1, 76, 45
2, 137662, Note_on_c, 1, 76, 0
2, 137664, Note_on_c, 1, 82, 92
2, 137760, Note_on_c, 1, 82, 0
2, 137760, Note_on_c, 1, 81, 45
2, 137856, Note_on_c, 1, 81, 0
2, 137856, Note_on_c, 1, 79, 45
2, 137952, Note_on_c, 1, 79, 0
2, 137952, Note_on_c, 1, 77, 45
2, 138048, Note_on_c, 1, 77, 0
2, 138048, Note_on_c, 1, 76, 45
2, 138144, Note_on_c, 1, 76, 0
2, 138144, Note_on_c, 1, 74, 45
2, 138240, Note_on_c, 1, 74, 0
2, 138240, Note_on_c, 1, 72, 45
2, 138336, Note_on_c, 1, 72, 0
2, 138336, Note_on_c, 1, 70, 45
2, 138432, Note_on_c, 1, 70, 0
2, 138432, Note_on_c, 1, 69, 45
2, 138528, Note_on_c, 1, 69, 0
2, 138528, Note_on_c, 1, 67, 45
2, 138624, Note_on_c, 1, 67, 0
2, 138624, Note_on_c, 1, 70, 45
2, 138720, Note_on_c, 1, 70, 0
2, 138720, Note_on_c, 1, 67, 45
2, 138816, Note_on_c, 1, 67, 0
2, 138816, Note_on_c, 1, 65, 45
2, 138912, Note_on_c, 1, 65, 0
2, 138912, Note_on_c, 1, 64, 45
2, 139008, Note_on_c, 1, 64, 0
2, 139008, Note_on_c, 1, 67, 45
2, 139104, Note_on_c, 1, 67, 0
2, 139104, Note_on_c, 1, 64, 45
2, 139200, Note_on_c, 1, 64, 0
2, 139200, Note_on_c, 1, 65, 60
2, 139296, Note_on_c, 1, 65, 0
2, 139296, Note_on_c, 1, 69, 45
2, 139390, Note_on_c, 1, 69, 0
2, 139392, Note_on_c, 1, 60, 45
2, 139488, Note_on_c, 1, 60, 0
2, 139488, Note_on_c, 1, 72, 45
2, 139584, Note_on_c, 1, 72, 0
2, 139584, Note_on_c, 1, 76, 45
2, 139680, Note_on_c, 1, 76, 0
2, 139680, Note_on_c, 1, 72, 45
2, 139776, Note_on_c, 1, 72, 0
2, 139776, Note_on_c, 1, 79, 45
2, 139872, Note_on_c, 1, 79, 0
2, 139872, Note_on_c, 1, 76, 45
2, 139966, Note_on_c, 1, 76, 0
2, 139968, Note_on_c, 1, 82, 92
2, 140064, Note_on_c, 1, 82, 0
2, 140064, Note_on_c, 1, 81, 45
2, 140160, Note_on_c, 1, 81, 0
2, 140160, Note_on_c, 1, 79, 45
2, 140256, Note_on_c, 1, 79, 0
2, 140256, Note_on_c, 1, 77, 45
2, 140352, Note_on_c, 1, 77, 0
2, 140352, Note_on_c, 1, 76, 45
2, 140448, Note_on_c, 1, 76, 0
2, 140448, Note_on_c, 1, 74, 45
2, 140544, Note_on_c, 1, 74, 0
2, 140544, Note_on_c, 1, 72, 45
2, 140640, Note_on_c, 1, 72, 0
2, 140640, Note_on_c, 1, 71, 45
2, 140736, Note_on_c, 1, 71, 0
2, 140736, Note_on_c, 1, 74, 45
2, 140832, Note_on_c, 1, 74, 0
2, 140832, Note_on_c, 1, 72, 45
2, 140928, Note_on_c, 1, 72, 0
2, 140928, Note_on_c, 1, 71, 45
2, 141024, Note_on_c, 1, 71, 0
2, 141024, Note_on_c, 1, 74, 45
2, 141120, Note_on_c, 1, 74, 0
2, 141120, Note_on_c, 1, 72, 45
2, 141216, Note_on_c, 1, 72, 0
2, 141216, Note_on_c, 1, 71, 45
2, 141312, Note_on_c, 1, 71, 0
2, 141312, Note_on_c, 1, 74, 45
2, 141408, Note_on_c, 1, 74, 0
2, 141408, Note_on_c, 1, 72, 45
2, 141504, Note_on_c, 1, 72, 0
2, 141504, Note_on_c, 1, 70, 45
2, 141600, Note_on_c, 1, 70, 0
2, 141600, Note_on_c, 1, 67, 45
2, 141694, Note_on_c, 1, 67, 0
2, 141696, Note_on_c, 1, 65, 45
2, 142432, Note_on_c, 1, 65, 0
2, 142464, Note_on_c, 1, 64, 45
2, 142512, Note_on_c, 1, 64, 0
2, 142656, Note_on_c, 1, 66, 45
2, 142704, Note_on_c, 1, 66, 0
2, 142848, Note_on_c, 1, 67, 45
2, 143584, Note_on_c, 1, 67, 0
2, 143616, Note_on_c, 1, 66, 45
2, 143664, Note_on_c, 1, 66, 0
2, 143808, Note_on_c, 1, 68, 45
2, 143856, Note_on_c, 1, 68, 0
2, 144000, Note_on_c, 1, 69, 45
2, 144384, Note_on_c, 1, 69, 0
2, 144384, Note_on_c, 1, 71, 45
2, 144576, Note_on_c, 1, 71, 0
2, 144576, Note_on_c, 1, 72, 45
2, 144624, Note_on_c, 1, 72, 0
2, 145152, Note_on_c, 1, 76, 45
2, 145200, Note_on_c, 1, 76, 0
2, 145200, Note_on_c, 1, 74, 45
2, 145248, Note_on_c, 1, 74, 0
2, 145248, Note_on_c, 1, 76, 45
2, 145296, Note_on_c, 1, 76, 0
2, 145296, Note_on_c, 1, 74, 45
2, 145344, Note_on_c, 1, 74, 0
2, 145344, Note_on_c, 1, 76, 45
2, 145392, Note_on_c, 1, 76, 0
2, 145392, Note_on_c, 1, 74, 45
2, 145440, Note_on_c, 1, 74, 0
2, 145440, Note_on_c, 1, 76, 45
2, 145488, Note_on_c, 1, 76, 0
2, 145488, Note_on_c, 1, 74, 45
2, 145536, Note_on_c, 1, 74, 0
2, 145536, Note_on_c, 1, 76, 45
2, 145584, Note_on_c, 1, 76, 0
2, 145584, Note_on_c, 1, 74, 45
2, 145632, Note_on_c, 1, 74, 0
2, 145632, Note_on_c, 1, 72, 45
2, 145680, Note_on_c, 1, 72, 0
2, 145680, Note_on_c, 1, 74, 45
2, 145726, Note_on_c, 1, 74, 0
2, 145728, Note_on_c, 1, 76, 45
2, 145888, Note_on_c, 1, 76, 0
2, 146304, Note_on_c, 1, 64, 92
2, 146352, Note_on_c, 1, 64, 0
2, 146352, Note_on_c, 1, 62, 92
2, 146400, Note_on_c, 1, 62, 0
2, 146400, Note_on_c, 1, 64, 92
2, 146448, Note_on_c, 1, 64, 0
2, 146448, Note_on_c, 1, 62, 92
2, 146496, Note_on_c, 1, 62, 0
2, 146496, Note_on_c, 1, 64, 92
2, 146544, Note_on_c, 1, 64, 0
2, 146544, Note_on_c, 1, 62, 92
2, 146592, Note_on_c, 1, 62, 0
2, 146592, Note_on_c, 1, 64, 92
2, 146640, Note_on_c, 1, 64, 0
2, 146640, Note_on_c, 1, 62, 92
2, 146688, Note_on_c, 1, 62, 0
2, 146688, Note_on_c, 1, 64, 92
2, 146736, Note_on_c, 1, 64, 0
2, 146736, Note_on_c, 1, 62, 92
2, 146784, Note_on_c, 1, 62, 0
2, 146784, Note_on_c, 1, 60, 92
2, 146832, Note_on_c, 1, 60, 0
2, 146832, Note_on_c, 1, 62, 92
2, 146878, Note_on_c, 1, 62, 0
2, 146880, Note_on_c, 1, 60, 108
2, 147040, Note_on_c, 1, 60, 0
2, 147456, Note_on_c, 1, 72, 45
2, 147840, Note_on_c, 1, 72, 0
2, 147840, Note_on_c, 1, 75, 45
2, 148000, Note_on_c, 1, 75, 0
2, 148032, Note_on_c, 1, 75, 45
2, 148224, Note_on_c, 1, 75, 0
2, 148224, Note_on_c, 1, 73, 45
2, 148384, Note_on_c, 1, 73, 0
2, 148416, Note_on_c, 1, 73, 45
2, 148464, Note_on_c, 1, 73, 0
2, 148608, Note_on_c, 1, 73, 45
2, 148800, Note_on_c, 1, 73, 0
2, 148800, Note_on_c, 1, 72, 45
2, 148960, Note_on_c, 1, 72, 0
2, 148992, Note_on_c, 1, 72, 45
2, 149040, Note_on_c, 1, 72, 0
2, 149184, Note_on_c, 1, 68, 45
2, 149568, Note_on_c, 1, 68, 0
2, 149568, Note_on_c, 1, 72, 45
2, 149728, Note_on_c, 1, 72, 0
2, 149760, Note_on_c, 1, 72, 45
2, 149952, Note_on_c, 1, 72, 0
2, 149952, Note_on_c, 1, 70, 45
2, 150112, Note_on_c, 1, 70, 0
2, 150144, Note_on_c, 1, 70, 45
2, 150192, Note_on_c, 1, 70, 0
2, 150336, Note_on_c, 1, 70, 45
2, 150528, Note_on_c, 1, 70, 0
2, 150528, Note_on_c, 1, 68, 45
2, 150688, Note_on_c, 1, 68, 0
2, 150720, Note_on_c, 1, 68, 45
2, 150768, Note_on_c, 1, 68, 0
2, 150912, Note_on_c, 1, 77, 45
2, 151648, Note_on_c, 1, 77, 0
2, 151680, Note_on_c, 1, 75, 45
2, 151728, Note_on_c, 1, 75, 0
2, 151872, Note_on_c, 1, 77, 45
2, 151920, Note_on_c, 1, 77, 0
2, 152064, Note_on_c, 1, 78, 45
2, 152800, Note_on_c, 1, 78, 0
2, 152832, Note_on_c, 1, 77, 45
2, 152880, Note_on_c, 1, 77, 0
2, 153024, Note_on_c, 1, 79, 45
2, 153072, Note_on_c, 1, 79, 0
2, 153216, Note_on_c, 1, 80, 45
2, 153952, Note_on_c, 1, 80, 0
2, 153984, Note_on_c, 1, 79, 45
2, 154032, Note_on_c, 1, 79, 0
2, 154176, Note_on_c, 1, 80, 45
2, 154224, Note_on_c, 1, 80, 0
2, 154368, Note_on_c, 1, 82, 45
2, 155136, Note_on_c, 1, 82, 0
2, 155136, Note_on_c, 1, 80, 45
2, 155296, Note_on_c, 1, 80, 0
2, 155328, Note_on_c, 1, 80, 45
2, 155376, Note_on_c, 1, 80, 0
2, 155520, Note_on_c, 1, 79, 45
2, 155680, Note_on_c, 1, 79, 0
2, 155904, Note_on_c, 1, 83, 45
2, 155926, Note_on_c, 1, 83, 0
2, 155928, Note_on_c, 1, 84, 45
2, 155984, Note_on_c, 1, 84, 0
2, 156096, Note_on_c, 1, 80, 45
2, 156256, Note_on_c, 1, 80, 0
2, 156480, Note_on_c, 1, 83, 45
2, 156502, Note_on_c, 1, 83, 0
2, 156504, Note_on_c, 1, 84, 45
2, 156560, Note_on_c, 1, 84, 0
2, 156672, Note_on_c, 1, 79, 45
2, 156832, Note_on_c, 1, 79, 0
2, 157056, Note_on_c, 1, 83, 45
2, 157078, Note_on_c, 1, 83, 0
2, 157080, Note_on_c, 1, 84, 45
2, 157136, Note_on_c, 1, 84, 0
2, 157248, Note_on_c, 1, 80, 45
2, 157408, Note_on_c, 1, 80, 0
2, 157632, Note_on_c, 1, 83, 45
2, 157654, Note_on_c, 1, 83, 0
2, 157656, Note_on_c, 1, 84, 45
2, 157712, Note_on_c, 1, 84, 0
2, 157824, Note_on_c, 1, 79, 45
2, 157984, Note_on_c, 1, 79, 0
2, 158400, Note_on_c, 1, 60, 30
2, 158448, Note_on_c, 1, 60, 0
2, 158592, Note_on_c, 1, 64, 30
2, 158640, Note_on_c, 1, 64, 0
2, 158784, Note_on_c, 1, 65, 30
2, 158832, Note_on_c, 1, 65, 0
2, 158976, Note_on_c, 1, 67, 30
2, 159024, Note_on_c, 1, 67, 0
2, 159552, Note_on_c, 1, 72, 30
2, 159600, Note_on_c, 1, 72, 0
2, 159744, Note_on_c, 1, 76, 30
2, 159792, Note_on_c, 1, 76, 0
2, 159936, Note_on_c, 1, 77, 30
2, 159984, Note_on_c, 1, 77, 0
2, 160128, Note_on_c, 1, 79, 30
2, 160176, Note_on_c, 1, 79, 0
2, 160704, Note_on_c, 1, 64, 30
2, 160752, Note_on_c, 1, 64, 0
2, 161088, Note_on_c, 1, 69, 30
2, 161136, Note_on_c, 1, 69, 0
2, 161280, Note_on_c, 1, 70, 30
2, 161328, Note_on_c, 1, 70, 0
2, 162048, Note_on_c, 1, 64, 30
2, 162208, Note_on_c, 1, 64, 0
2, 162240, Note_on_c, 1, 64, 30
2, 162400, Note_on_c, 1, 64, 0
2, 162432, Note_on_c, 1, 65, 30
2, 163168, Note_on_c, 1, 65, 0
2, 163200, Note_on_c, 1, 64, 39
2, 163248, Note_on_c, 1, 64, 0
2, 163392, Note_on_c, 1, 66, 41
2, 163440, Note_on_c, 1, 66, 0
2, 163584, Note_on_c, 1, 67, 43
2, 164320, Note_on_c, 1, 67, 0
2, 164352, Note_on_c, 1, 66, 54
2, 164400, Note_on_c, 1, 66, 0
2, 164544, Note_on_c, 1, 68, 57
2, 164592, Note_on_c, 1, 68, 0
2, 164736, Note_on_c, 1, 69, 45
2, 165120, Note_on_c, 1, 69, 0
2, 165120, Note_on_c, 1, 71, 45
2, 165312, Note_on_c, 1, 71, 0
2, 165312, Note_on_c, 1, 72, 45
2, 165360, Note_on_c, 1, 72, 0
2, 165888, Note_on_c, 1, 74, 30
2, 166272, Note_on_c, 1, 74, 0
2, 166272, Note_on_c, 1, 76, 30
2, 166464, Note_on_c, 1, 76, 0
2, 166464, Note_on_c, 1, 77, 30
2, 166512, Note_on_c, 1, 77, 0
2, 167040, Note_on_c, 1, 77, 10
2, 167424, Note_on_c, 1, 77, 0
2, 167424, Note_on_c, 1, 79, 10
2, 167616, Note_on_c, 1, 79, 0
2, 167616, Note_on_c, 1, 81, 10
2, 167664, Note_on_c, 1, 81, 0
2, 168192, Note_on_c, 1, 81, 10
2, 168240, Note_on_c, 1, 81, 0
2, 168240, Note_on_c, 1, 79, 10
2, 168288, Note_on_c, 1, 79, 0
2, 168288, Note_on_c, 1, 81, 10
2, 168336, Note_on_c, 1, 81, 0
2, 168336, Note_on_c, 1, 79, 10
2, 168384, Note_on_c, 1, 79, 0
2, 168384, Note_on_c, 1, 81, 10
2, 168432, Note_on_c, 1, 81, 0
2, 168432, Note_on_c, 1, 79, 10
2, 168480, Note_on_c, 1, 79, 0
2, 168480, Note_on_c, 1, 81, 10
2, 168528, Note_on_c, 1, 81, 0
2, 168528, Note_on_c, 1, 79, 10
2, 168576, Note_on_c, 1, 79, 0
2, 168576, Note_on_c, 1, 81, 10
2, 168624, Note_on_c, 1, 81, 0
2, 168624, Note_on_c, 1, 79, 10
2, 168672, Note_on_c, 1, 79, 0
2, 168672, Note_on_c, 1, 77, 10
2, 168720, Note_on_c, 1, 77, 0
2, 168720, Note_on_c, 1, 79, 10
2, 168766, Note_on_c, 1, 79, 0
2, 168768, Note_on_c, 1, 81, 10
2, 168928, Note_on_c, 1, 81, 0
2, 169344, Note_on_c, 1, 69, 10
2, 169392, Note_on_c, 1, 69, 0
2, 169392, Note_on_c, 1, 67, 10
2, 169440, Note_on_c, 1, 67, 0
2, 169440, Note_on_c, 1, 69, 10
2, 169488, Note_on_c, 1, 69, 0
2, 169488, Note_on_c, 1, 67, 10
2, 169536, Note_on_c, 1, 67, 0
2, 169536, Note_on_c, 1, 69, 10
2, 169584, Note_on_c, 1, 69, 0
2, 169584, Note_on_c, 1, 67, 10
2, 169632, Note_on_c, 1, 67, 0
2, 169632, Note_on_c, 1, 69, 10
2, 169680, Note_on_c, 1, 69, 0
2, 169680, Note_on_c, 1, 67, 10
2, 169728, Note_on_c, 1, 67, 0
2, 169728, Note_on_c, 1, 69, 10
2, 169776, Note_on_c, 1, 69, 0
2, 169776, Note_on_c, 1, 67, 10
2, 169824, Note_on_c, 1, 67, 0
2, 169824, Note_on_c, 1, 65, 10
2, 169872, Note_on_c, 1, 65, 0
2, 169872, Note_on_c, 1, 67, 10
2, 169918, Note_on_c, 1, 67, 0
2, 169920, Note_on_c, 1, 65, 30
2, 170080, Note_on_c, 1, 65, 0
2, 170688, Note_on_c, 1, 64, 42
2, 171232, Note_on_c, 1, 64, 0
2, 171264, Note_on_c, 1, 72, 30
2, 171312, Note_on_c, 1, 72, 0
2, 171456, Note_on_c, 1, 72, 30
2, 171504, Note_on_c, 1, 72, 0
2, 171840, Note_on_c, 1, 64, 42
2, 172384, Note_on_c, 1, 64, 0
2, 172416, Note_on_c, 1, 77, 30
2, 172464, Note_on_c, 1, 77, 0
2, 172608, Note_on_c, 1, 77, 30
2, 172656, Note_on_c, 1, 77, 0
2, 172992, Note_on_c, 1, 64, 42
2, 173376, Note_on_c, 1, 64, 0
2, 173376, Note_on_c, 1, 65, 30
2, 173536, Note_on_c, 1, 65, 0
2, 173568, Note_on_c, 1, 84, 30
2, 173616, Note_on_c, 1, 84, 0
2, 173760, Note_on_c, 1, 84, 30
2, 173808, Note_on_c, 1, 84, 0
2, 173952, Note_on_c, 1, 77, 42
2, 174000, Note_on_c, 1, 77, 0
2, 174000, Note_on_c, 1, 75, 30
2, 174048, Note_on_c, 1, 75, 0
2, 174048, Note_on_c, 1, 77, 30
2, 174096, Note_on_c, 1, 77, 0
2, 174096, Note_on_c, 1, 75, 30
2, 174144, Note_on_c, 1, 75, 0
2, 174144, Note_on_c, 1, 77, 30
2, 174192, Note_on_c, 1, 77, 0
2, 174192, Note_on_c, 1, 75, 30
2, 174240, Note_on_c, 1, 75, 0
2, 174240, Note_on_c, 1, 77, 30
2, 174288, Note_on_c, 1, 77, 0
2, 174288, Note_on_c, 1, 75, 30
2, 174336, Note_on_c, 1, 75, 0
2, 174336, Note_on_c, 1, 77, 30
2, 174384, Note_on_c, 1, 77, 0
2, 174384, Note_on_c, 1, 75, 30
2, 174432, Note_on_c, 1, 75, 0
2, 174432, Note_on_c, 1, 74, 30
2, 174480, Note_on_c, 1, 74, 0
2, 174480, Note_on_c, 1, 75, 30
2, 174526, Note_on_c, 1, 75, 0
2, 174528, Note_on_c, 1, 74, 30
2, 174688, Note_on_c, 1, 74, 0
2, 175104, Note_on_c, 1, 76, 30
2, 175264, Note_on_c, 1, 76, 0
2, 175680, Note_on_c, 1, 77, 30
2, 175840, Note_on_c, 1, 77, 0
2, 175872, Note_on_c, 1, 84, 30
2, 176032, Note_on_c, 1, 84, 0
2, 176064, Note_on_c, 1, 84, 30
2, 176224, Note_on_c, 1, 84, 0
2, 176256, Note_on_c, 1, 77, 42
2, 176304, Note_on_c, 1, 77, 0
2, 176304, Note_on_c, 1, 75, 30
2, 176352, Note_on_c, 1, 75, 0
2, 176352, Note_on_c, 1, 77, 30
2, 176400, Note_on_c, 1, 77, 0
2, 176400, Note_on_c, 1, 75, 30
2, 176448, Note_on_c, 1, 75, 0
2, 176448, Note_on_c, 1, 77, 30
2, 176496, Note_on_c, 1, 77, 0
2, 176496, Note_on_c, 1, 75, 30
2, 176544, Note_on_c, 1, 75, 0
2, 176544, Note_on_c, 1, 77, 30
2, 176592, Note_on_c, 1, 77, 0
2, 176592, Note_on_c, 1, 75, 30
2, 176640, Note_on_c, 1, 75, 0
2, 176640, Note_on_c, 1, 77, 30
2, 176688, Note_on_c, 1, 77, 0
2, 176688, Note_on_c, 1, 75, 30
2, 176736, Note_on_c, 1, 75, 0
2, 176736, Note_on_c, 1, 74, 30
2, 176784, Note_on_c, 1, 74, 0
2, 176784, Note_on_c, 1, 75, 30
2, 176830, Note_on_c, 1, 75, 0
2, 176832, Note_on_c, 1, 74, 30
2, 176992, Note_on_c, 1, 74, 0
2, 177408, Note_on_c, 1, 76, 30
2, 177568, Note_on_c, 1, 76, 0
2, 177984, Note_on_c, 1, 77, 30
2, 178720, Note_on_c, 1, 77, 0
2, 178752, Note_on_c, 1, 76, 42
2, 178800, Note_on_c, 1, 76, 0
2, 178944, Note_on_c, 1, 78, 45
2, 178992, Note_on_c, 1, 78, 0
2, 179136, Note_on_c, 1, 79, 48
2, 179872, Note_on_c, 1, 79, 0
2, 179904, Note_on_c, 1, 78, 61
2, 179952, Note_on_c, 1, 78, 0
2, 180096, Note_on_c, 1, 80, 64
2, 180144, Note_on_c, 1, 80, 0
2, 180288, Note_on_c, 1, 81, 67
2, 181488, Note_on_c, 1, 81, 0
2, 181632, Note_on_c, 1, 81, 92
2, 181824, Note_on_c, 1, 81, 0
2, 181824, Note_on_c, 1, 82, 92
2, 182016, Note_on_c, 1, 82, 0
2, 182016, Note_on_c, 1, 84, 92
2, 182208, Note_on_c, 1, 84, 0
2, 182208, Note_on_c, 1, 86, 92
2, 182400, Note_on_c, 1, 86, 0
2, 182400, Note_on_c, 1, 87, 92
2, 182560, Note_on_c, 1, 87, 0
2, 182592, Note_on_c, 1, 86, 92
2, 182784, Note_on_c, 1, 86, 0
2, 182784, Note_on_c, 1, 82, 92
2, 182976, Note_on_c, 1, 82, 0
2, 182976, Note_on_c, 1, 81, 92
2, 183168, Note_on_c, 1, 81, 0
2, 183168, Note_on_c, 1, 79, 92
2, 183216, Note_on_c, 1, 79, 0
2, 183360, Note_on_c, 1, 86, 92
2, 183552, Note_on_c, 1, 86, 0
2, 183552, Note_on_c, 1, 84, 92
2, 183744, Note_on_c, 1, 84, 0
2, 183744, Note_on_c, 1, 82, 92
2, 183936, Note_on_c, 1, 82, 0
2, 183936, Note_on_c, 1, 81, 92
2, 184128, Note_on_c, 1, 81, 0
2, 184128, Note_on_c, 1, 79, 92
2, 184320, Note_on_c, 1, 79, 0
2, 184320, Note_on_c, 1, 77, 92
2, 184512, Note_on_c, 1, 77, 0
2, 184512, Note_on_c, 1, 76, 92
2, 184704, Note_on_c, 1, 76, 0
2, 184704, Note_on_c, 1, 74, 92
2, 184896, Note_on_c, 1, 74, 0
2, 184896, Note_on_c, 1, 72, 92
2, 185088, Note_on_c, 1, 72, 0
2, 185088, Note_on_c, 1, 70, 92
2, 185280, Note_on_c, 1, 70, 0
2, 185280, Note_on_c, 1, 69, 92
2, 185472, Note_on_c, 1, 69, 0
2, 185472, Note_on_c, 1, 67, 92
2, 185664, Note_on_c, 1, 67, 0
2, 185664, Note_on_c, 1, 70, 92
2, 185824, Note_on_c, 1, 70, 0
2, 185856, Note_on_c, 1, 64, 92
2, 185904, Note_on_c, 1, 64, 0
2, 186048, Note_on_c, 1, 65, 92
2, 186096, Note_on_c, 1, 65, 0
2, 186240, Note_on_c, 1, 69, 92
2, 186288, Note_on_c, 1, 69, 0
2, 186432, Note_on_c, 1, 71, 127
2, 186480, Note_on_c, 1, 71, 0
2, 186624, Note_on_c, 1, 72, 92
2, 187152, Note_on_c, 1, 72, 0
2, 187200, Note_on_c, 1, 77, 92
2, 187248, Note_on_c, 1, 77, 0
2, 187392, Note_on_c, 1, 81, 92
2, 187440, Note_on_c, 1, 81, 0
2, 187584, Note_on_c, 1, 83, 127
2, 187632, Note_on_c, 1, 83, 0
2, 187776, Note_on_c, 1, 84, 92
2, 188512, Note_on_c, 1, 84, 0
2, 188544, Note_on_c, 1, 84, 127
2, 189088, Note_on_c, 1, 84, 0
2, 189120, Note_on_c, 1, 84, 127
2, 189664, Note_on_c, 1, 84, 0
2, 189696, Note_on_c, 1, 81, 92
2, 189744, Note_on_c, 1, 81, 0
2, 189888, Note_on_c, 1, 81, 92
2, 189936, Note_on_c, 1, 81, 0
2, 190080, Note_on_c, 1, 77, 92
2, 190128, Note_on_c, 1, 77, 0
2, 190656, Control_c, 1, 7, 0
2, 190656, Note_on_c, 1, 70, 60
2, 191376, Note_on_c, 1, 70, 0
2, 191376, End_track
3, 0, Start_track
3, 0, Title_t, "Violino II."
3, 0, Program_c, 2, 48
3, 0, Control_c, 2, 7, 127
3, 0, Control_c, 2, 10, 64
3, 0, Note_on_c, 2, 60, 45
3, 912, Note_on_c, 2, 60, 0
3, 960, Note_on_c, 2, 62, 45
3, 1008, Note_on_c, 2, 62, 0
3, 1152, Note_on_c, 2, 62, 45
3, 2064, Note_on_c, 2, 62, 0
3, 2112, Note_on_c, 2, 64, 45
3, 2160, Note_on_c, 2, 64, 0
3, 2304, Note_on_c, 2, 64, 45
3, 2688, Note_on_c, 2, 64, 0
3, 2688, Note_on_c, 2, 68, 45
3, 2880, Note_on_c, 2, 68, 0
3, 2880, Note_on_c, 2, 69, 45
3, 2928, Note_on_c, 2, 69, 0
3, 3456, Note_on_c, 2, 72, 45
3, 3504, Note_on_c, 2, 72, 0
3, 3504, Note_on_c, 2, 71, 45
3, 3552, Note_on_c, 2, 71, 0
3, 3552, Note_on_c, 2, 72, 45
3, 3600, Note_on_c, 2, 72, 0
3, 3600, Note_on_c, 2, 71, 45
3, 3648, Note_on_c, 2, 71, 0
3, 3648, Note_on_c, 2, 72, 45
3, 3696, Note_on_c, 2, 72, 0
3, 3696, Note_on_c, 2, 71, 45
3, 3744, Note_on_c, 2, 71, 0
3, 3744, Note_on_c, 2, 72, 45
3, 3792, Note_on_c, 2, 72, 0
3, 3792, Note_on_c, 2, 71, 45
3, 3840, Note_on_c, 2, 71, 0
3, 3840, Note_on_c, 2, 72, 45
3, 3888, Note_on_c, 2, 72, 0
3, 3888, Note_on_c, 2, 71, 45
3, 3936, Note_on_c, 2, 71, 0
3, 3936, Note_on_c, 2, 69, 45
3, 3984, Note_on_c, 2, 69, 0
3, 3984, Note_on_c, 2, 71, 45
3, 4030, Note_on_c, 2, 71, 0
3, 4032, Note_on_c, 2, 72, 45
3, 4192, Note_on_c, 2, 72, 0
3, 4608, Note_on_c, 2, 60, 92
3, 4656, Note_on_c, 2, 60, 0
3, 4656, Note_on_c, 2, 59, 92
3, 4704, Note_on_c, 2, 59, 0
3, 4704, Note_on_c, 2, 60, 92
3, 4752, Note_on_c, 2, 60, 0
3, 4752, Note_on_c, 2, 59, 92
3, 4800, Note_on_c, 2, 59, 0
3, 4800, Note_on_c, 2, 60, 92
3, 4848, Note_on_c, 2, 60, 0
3, 4848, Note_on_c, 2, 59, 92
3, 4896, Note_on_c, 2, 59, 0
3, 4896, Note_on_c, 2, 60, 92
3, 4944, Note_on_c, 2, 60, 0
3, 4944, Note_on_c, 2, 59, 92
3, 4992, Note_on_c, 2, 59, 0
3, 4992, Note_on_c, 2, 60, 92
3, 5040, Note_on_c, 2, 60, 0
3, 5040, Note_on_c, 2, 59, 92
3, 5088, Note_on_c, 2, 59, 0
3, 5088, Note_on_c, 2, 57, 92
3, 5136, Note_on_c, 2, 57, 0
3, 5136, Note_on_c, 2, 59, 92
3, 5182, Note_on_c, 2, 59, 0
3, 5760, Note_on_c, 2, 60, 45
3, 6672, Note_on_c, 2, 60, 0
3, 6720, Note_on_c, 2, 62, 45
3, 6768, Note_on_c, 2, 62, 0
3, 6912, Note_on_c, 2, 62, 45
3, 7824, Note_on_c, 2, 62, 0
3, 7872, Note_on_c, 2, 64, 45
3, 7920, Note_on_c, 2, 64, 0
3, 8064, Note_on_c, 2, 64, 45
3, 8448, Note_on_c, 2, 64, 0
3, 8448, Note_on_c, 2, 68, 45
3, 8640, Note_on_c, 2, 68, 0
3, 8640, Note_on_c, 2, 69, 45
3, 8688, Note_on_c, 2, 69, 0
3, 9216, Note_on_c, 2, 72, 45
3, 9264, Note_on_c, 2, 72, 0
3, 9264, Note_on_c, 2, 71, 45
3, 9312, Note_on_c, 2, 71, 0
3, 9312, Note_on_c, 2, 72, 45
3, 9360, Note_on_c, 2, 72, 0
3, 9360, Note_on_c, 2, 71, 45
3, 9408, Note_on_c, 2, 71, 0
3, 9408, Note_on_c, 2, 72, 45
3, 9456, Note_on_c, 2, 72, 0
3, 9456, Note_on_c, 2, 71, 45
3, 9504, Note_on_c, 2, 71, 0
3, 9504, Note_on_c, 2, 72, 45
3, 9552, Note_on_c, 2, 72, 0
3, 9552, Note_on_c, 2, 71, 45
3, 9600, Note_on_c, 2, 71, 0
3, 9600, Note_on_c, 2, 72, 45
3, 9648, Note_on_c, 2, 72, 0
3, 9648, Note_on_c, 2, 71, 45
3, 9696, Note_on_c, 2, 71, 0
3, 9696, Note_on_c, 2, 69, 45
3, 9744, Note_on_c, 2, 69, 0
3, 9744, Note_on_c, 2, 71, 45
3, 9790, Note_on_c, 2, 71, 0
3, 9792, Note_on_c, 2, 72, 45
3, 9952, Note_on_c, 2, 72, 0
3, 10368, Note_on_c, 2, 60, 92
3, 10416, Note_on_c, 2, 60, 0
3, 10416, Note_on_c, 2, 59, 92
3, 10464, Note_on_c, 2, 59, 0
3, 10464, Note_on_c, 2, 60, 92
3, 10512, Note_on_c, 2, 60, 0
3, 10512, Note_on_c, 2, 59, 92
3, 10560, Note_on_c, 2, 59, 0
3, 10560, Note_on_c, 2, 60, 92
3, 10608, Note_on_c, 2, 60, 0
3, 10608, Note_on_c, 2, 59, 92
3, 10656, Note_on_c, 2, 59, 0
3, 10656, Note_on_c, 2, 60, 92
3, 10704, Note_on_c, 2, 60, 0
3, 10704, Note_on_c, 2, 59, 92
3, 10752, Note_on_c, 2, 59, 0
3, 10752, Note_on_c, 2, 60, 92
3, 10800, Note_on_c, 2, 60, 0
3, 10800, Note_on_c, 2, 59, 92
3, 10848, Note_on_c, 2, 59, 0
3, 10848, Note_on_c, 2, 57, 92
3, 10896, Note_on_c, 2, 57, 0
3, 10896, Note_on_c, 2, 59, 92
3, 10942, Note_on_c, 2, 59, 0
3, 11520, Note_on_c, 2, 60, 45
3, 11904, Note_on_c, 2, 60, 0
3, 11904, Note_on_c, 2, 68, 45
3, 12064, Note_on_c, 2, 68, 0
3, 12096, Note_on_c, 2, 67, 45
3, 12432, Note_on_c, 2, 67, 0
3, 12480, Note_on_c, 2, 67, 45
3, 12640, Note_on_c, 2, 67, 0
3, 12672, Note_on_c, 2, 67, 45
3, 12864, Note_on_c, 2, 67, 0
3, 12864, Note_on_c, 2, 68, 45
3, 13024, Note_on_c, 2, 68, 0
3, 13056, Note_on_c, 2, 68, 45
3, 13104, Note_on_c, 2, 68, 0
3, 13248, Note_on_c, 2, 60, 60
3, 13632, Note_on_c, 2, 60, 0
3, 13632, Note_on_c, 2, 65, 45
3, 13792, Note_on_c, 2, 65, 0
3, 13824, Note_on_c, 2, 64, 45
3, 14160, Note_on_c, 2, 64, 0
3, 14208, Note_on_c, 2, 64, 45
3, 14368, Note_on_c, 2, 64, 0
3, 14400, Note_on_c, 2, 64, 45
3, 14592, Note_on_c, 2, 64, 0
3, 14592, Note_on_c, 2, 65, 45
3, 14752, Note_on_c, 2, 65, 0
3, 14784, Note_on_c, 2, 65, 45
3, 14832, Note_on_c, 2, 65, 0
3, 14976, Note_on_c, 2, 73, 45
3, 15712, Note_on_c, 2, 73, 0
3, 15744, Note_on_c, 2, 72, 45
3, 15792, Note_on_c, 2, 72, 0
3, 15936, Note_on_c, 2, 74, 45
3, 15984, Note_on_c, 2, 74, 0
3, 16128, Note_on_c, 2, 75, 45
3, 16864, Note_on_c, 2, 75, 0
3, 16896, Note_on_c, 2, 74, 45
3, 16944, Note_on_c, 2, 74, 0
3, 17088, Note_on_c, 2, 76, 45
3, 17136, Note_on_c, 2, 76, 0
3, 17280, Note_on_c, 2, 77, 45
3, 18016, Note_on_c, 2, 77, 0
3, 18048, Note_on_c, 2, 76, 45
3, 18096, Note_on_c, 2, 76, 0
3, 18240, Note_on_c, 2, 77, 45
3, 18288, Note_on_c, 2, 77, 0
3, 18432, Note_on_c, 2, 79, 45
3, 19200, Note_on_c, 2, 79, 0
3, 19200, Note_on_c, 2, 77, 45
3, 19360, Note_on_c, 2, 77, 0
3, 19392, Note_on_c, 2, 77, 45
3, 19440, Note_on_c, 2, 77, 0
3, 19584, Note_on_c, 2, 76, 45
3, 19744, Note_on_c, 2, 76, 0
3, 20160, Note_on_c, 2, 77, 45
3, 20320, Note_on_c, 2, 77, 0
3, 20736, Note_on_c, 2, 76, 45
3, 20896, Note_on_c, 2, 76, 0
3, 21312, Note_on_c, 2, 65, 45
3, 21472, Note_on_c, 2, 65, 0
3, 21888, Note_on_c, 2, 60, 30
3, 21936, Note_on_c, 2, 60, 0
3, 22080, Note_on_c, 2, 64, 30
3, 22128, Note_on_c, 2, 64, 0
3, 22272, Note_on_c, 2, 65, 30
3, 22320, Note_on_c, 2, 65, 0
3, 22464, Note_on_c, 2, 67, 30
3, 22512, Note_on_c, 2, 67, 0
3, 23040, Note_on_c, 2, 72, 30
3, 23088, Note_on_c, 2, 72, 0
3, 23232, Note_on_c, 2, 76, 30
3, 23280, Note_on_c, 2, 76, 0
3, 23424, Note_on_c, 2, 77, 30
3, 23472, Note_on_c, 2, 77, 0
3, 23616, Note_on_c, 2, 79, 30
3, 23664, Note_on_c, 2, 79, 0
3, 24192, Note_on_c, 2, 64, 30
3, 24240, Note_on_c, 2, 64, 0
3, 24384, Note_on_c, 2, 67, 30
3, 24432, Note_on_c, 2, 67, 0
3, 24576, Note_on_c, 2, 69, 30
3, 24624, Note_on_c, 2, 69, 0
3, 25344, Note_on_c, 2, 76, 30
3, 25392, Note_on_c, 2, 76, 0
3, 25536, Note_on_c, 2, 79, 30
3, 25584, Note_on_c, 2, 79, 0
3, 25728, Note_on_c, 2, 81, 30
3, 25776, Note_on_c, 2, 81, 0
3, 25920, Note_on_c, 2, 82, 30
3, 25968, Note_on_c, 2, 82, 0
3, 26112, Note_on_c, 2, 55, 30
3, 26272, Note_on_c, 2, 55, 0
3, 26304, Note_on_c, 2, 55, 30
3, 26464, Note_on_c, 2, 55, 0
3, 26496, Note_on_c, 2, 57, 30
3, 26880, Note_on_c, 2, 57, 0
3, 26880, Note_on_c, 2, 56, 35
3, 27072, Note_on_c, 2, 56, 0
3, 27072, Note_on_c, 2, 55, 37
3, 27408, Note_on_c, 2, 55, 0
3, 27456, Note_on_c, 2, 60, 42
3, 27840, Note_on_c, 2, 60, 0
3, 27840, Note_on_c, 2, 59, 46
3, 28032, Note_on_c, 2, 59, 0
3, 28032, Note_on_c, 2, 58, 48
3, 28192, Note_on_c, 2, 58, 0
3, 28224, Note_on_c, 2, 57, 51
3, 28560, Note_on_c, 2, 57, 0
3, 28608, Note_on_c, 2, 62, 57
3, 28960, Note_on_c, 2, 62, 0
3, 28992, Note_on_c, 2, 60, 45
3, 29184, Note_on_c, 2, 60, 0
3, 29184, Note_on_c, 2, 68, 45
3, 29376, Note_on_c, 2, 68, 0
3, 29376, Note_on_c, 2, 69, 45
3, 29424, Note_on_c, 2, 69, 0
3, 29952, Note_on_c, 2, 69, 30
3, 30336, Note_on_c, 2, 69, 0
3, 30336, Note_on_c, 2, 73, 30
3, 30528, Note_on_c, 2, 73, 0
3, 30528, Note_on_c, 2, 74, 30
3, 30576, Note_on_c, 2, 74, 0
3, 31104, Note_on_c, 2, 72, 10
3, 31488, Note_on_c, 2, 72, 0
3, 31488, Note_on_c, 2, 76, 10
3, 31680, Note_on_c, 2, 76, 0
3, 31680, Note_on_c, 2, 77, 10
3, 31728, Note_on_c, 2, 77, 0
3, 32256, Note_on_c, 2, 77, 10
3, 32304, Note_on_c, 2, 77, 0
3, 32304, Note_on_c, 2, 76, 10
3, 32352, Note_on_c, 2, 76, 0
3, 32352, Note_on_c, 2, 77, 10
3, 32400, Note_on_c, 2, 77, 0
3, 32400, Note_on_c, 2, 76, 10
3, 32448, Note_on_c, 2, 76, 0
3, 32448, Note_on_c, 2, 77, 10
3, 32496, Note_on_c, 2, 77, 0
3, 32496, Note_on_c, 2, 76, 10
3, 32544, Note_on_c, 2, 76, 0
3, 32544, Note_on_c, 2, 77, 10
3, 32592, Note_on_c, 2, 77, 0
3, 32592, Note_on_c, 2, 76, 10
3, 32640, Note_on_c, 2, 76, 0
3, 32640, Note_on_c, 2, 77, 10
3, 32688, Note_on_c, 2, 77, 0
3, 32688, Note_on_c, 2, 76, 10
3, 32736, Note_on_c, 2, 76, 0
3, 32736, Note_on_c, 2, 74, 10
3, 32784, Note_on_c, 2, 74, 0
3, 32784, Note_on_c, 2, 76, 10
3, 32830, Note_on_c, 2, 76, 0
3, 32832, Note_on_c, 2, 77, 10
3, 32992, Note_on_c, 2, 77, 0
3, 33408, Note_on_c, 2, 65, 10
3, 33456, Note_on_c, 2, 65, 0
3, 33456, Note_on_c, 2, 64, 10
3, 33504, Note_on_c, 2, 64, 0
3, 33504, Note_on_c, 2, 65, 10
3, 33552, Note_on_c, 2, 65, 0
3, 33552, Note_on_c, 2, 64, 10
3, 33600, Note_on_c, 2, 64, 0
3, 33600, Note_on_c, 2, 65, 10
3, 33648, Note_on_c, 2, 65, 0
3, 33648, Note_on_c, 2, 64, 10
3, 33696, Note_on_c, 2, 64, 0
3, 33696, Note_on_c, 2, 65, 10
3, 33744, Note_on_c, 2, 65, 0
3, 33744, Note_on_c, 2, 64, 10
3, 33792, Note_on_c, 2, 64, 0
3, 33792, Note_on_c, 2, 65, 10
3, 33840, Note_on_c, 2, 65, 0
3, 33840, Note_on_c, 2, 64, 10
3, 33888, Note_on_c, 2, 64, 0
3, 33888, Note_on_c, 2, 62, 10
3, 33936, Note_on_c, 2, 62, 0
3, 33936, Note_on_c, 2, 64, 10
3, 33982, Note_on_c, 2, 64, 0
3, 34752, Note_on_c, 2, 58, 42
3, 35136, Note_on_c, 2, 58, 0
3, 35136, Note_on_c, 2, 57, 30
3, 35296, Note_on_c, 2, 57, 0
3, 35904, Note_on_c, 2, 58, 42
3, 36288, Note_on_c, 2, 58, 0
3, 36288, Note_on_c, 2, 57, 30
3, 36448, Note_on_c, 2, 57, 0
3, 37056, Note_on_c, 2, 58, 42
3, 37440, Note_on_c, 2, 58, 0
3, 37440, Note_on_c, 2, 57, 30
3, 37600, Note_on_c, 2, 57, 0
3, 37632, Note_on_c, 2, 72, 30
3, 37680, Note_on_c, 2, 72, 0
3, 37824, Note_on_c, 2, 72, 30
3, 37872, Note_on_c, 2, 72, 0
3, 38016, Note_on_c, 2, 65, 42
3, 38064, Note_on_c, 2, 65, 0
3, 38064, Note_on_c, 2, 63, 30
3, 38112, Note_on_c, 2, 63, 0
3, 38112, Note_on_c, 2, 65, 30
3, 38160, Note_on_c, 2, 65, 0
3, 38160, Note_on_c, 2, 63, 30
3, 38208, Note_on_c, 2, 63, 0
3, 38208, Note_on_c, 2, 65, 30
3, 38256, Note_on_c, 2, 65, 0
3, 38256, Note_on_c, 2, 63, 30
3, 38304, Note_on_c, 2, 63, 0
3, 38304, Note_on_c, 2, 65, 30
3, 38352, Note_on_c, 2, 65, 0
3, 38352, Note_on_c, 2, 63, 30
3, 38400, Note_on_c, 2, 63, 0
3, 38400, Note_on_c, 2, 65, 30
3, 38448, Note_on_c, 2, 65, 0
3, 38448, Note_on_c, 2, 63, 30
3, 38496, Note_on_c, 2, 63, 0
3, 38496, Note_on_c, 2, 62, 30
3, 38544, Note_on_c, 2, 62, 0
3, 38544, Note_on_c, 2, 63, 30
3, 38590, Note_on_c, 2, 63, 0
3, 38592, Note_on_c, 2, 62, 30
3, 38752, Note_on_c, 2, 62, 0
3, 39168, Note_on_c, 2, 64, 30
3, 39328, Note_on_c, 2, 64, 0
3, 39744, Note_on_c, 2, 65, 30
3, 39904, Note_on_c, 2, 65, 0
3, 39936, Note_on_c, 2, 72, 30
3, 40096, Note_on_c, 2, 72, 0
3, 40128, Note_on_c, 2, 72, 30
3, 40288, Note_on_c, 2, 72, 0
3, 40320, Note_on_c, 2, 65, 42
3, 40368, Note_on_c, 2, 65, 0
3, 40368, Note_on_c, 2, 63, 30
3, 40416, Note_on_c, 2, 63, 0
3, 40416, Note_on_c, 2, 65, 30
3, 40464, Note_on_c, 2, 65, 0
3, 40464, Note_on_c, 2, 63, 30
3, 40512, Note_on_c, 2, 63, 0
3, 40512, Note_on_c, 2, 65, 30
3, 40560, Note_on_c, 2, 65, 0
3, 40560, Note_on_c, 2, 63, 30
3, 40608, Note_on_c, 2, 63, 0
3, 40608, Note_on_c, 2, 65, 30
3, 40656, Note_on_c, 2, 65, 0
3, 40656, Note_on_c, 2, 63, 30
3, 40704, Note_on_c, 2, 63, 0
3, 40704, Note_on_c, 2, 65, 30
3, 40752, Note_on_c, 2, 65, 0
3, 40752, Note_on_c, 2, 63, 30
3, 40800, Note_on_c, 2, 63, 0
3, 40800, Note_on_c, 2, 62, 30
3, 40848, Note_on_c, 2, 62, 0
3, 40848, Note_on_c, 2, 63, 30
3, 40894, Note_on_c, 2, 63, 0
3, 40896, Note_on_c, 2, 62, 30
3, 41056, Note_on_c, 2, 62, 0
3, 41472, Note_on_c, 2, 64, 30
3, 41632, Note_on_c, 2, 64, 0
3, 42048, Note_on_c, 2, 69, 30
3, 42432, Note_on_c, 2, 69, 0
3, 42432, Note_on_c, 2, 68, 36
3, 42624, Note_on_c, 2, 68, 0
3, 42624, Note_on_c, 2, 67, 39
3, 43008, Note_on_c, 2, 67, 0
3, 43008, Note_on_c, 2, 72, 45
3, 43168, Note_on_c, 2, 72, 0
3, 43200, Note_on_c, 2, 70, 48
3, 43248, Note_on_c, 2, 70, 0
3, 43392, Note_on_c, 2, 74, 51
3, 43440, Note_on_c, 2, 74, 0
3, 43584, Note_on_c, 2, 76, 54
3, 43936, Note_on_c, 2, 76, 0
3, 43968, Note_on_c, 2, 74, 60
3, 44016, Note_on_c, 2, 74, 0
3, 44160, Note_on_c, 2, 74, 63
3, 44208, Note_on_c, 2, 74, 0
3, 44352, Note_on_c, 2, 72, 66
3, 44544, Note_on_c, 2, 72, 0
3, 44544, Note_on_c, 2, 73, 69
3, 44736, Note_on_c, 2, 73, 0
3, 44736, Note_on_c, 2, 74, 72
3, 44928, Note_on_c, 2, 74, 0
3, 44928, Note_on_c, 2, 76, 76
3, 45120, Note_on_c, 2, 76, 0
3, 45120, Note_on_c, 2, 77, 80
3, 45312, Note_on_c, 2, 77, 0
3, 45312, Note_on_c, 2, 79, 84
3, 45504, Note_on_c, 2, 79, 0
3, 45504, Note_on_c, 2, 77, 88
3, 45552, Note_on_c, 2, 77, 0
3, 45696, Note_on_c, 2, 78, 92
3, 45888, Note_on_c, 2, 78, 0
3, 45888, Note_on_c, 2, 79, 92
3, 46080, Note_on_c, 2, 79, 0
3, 46080, Note_on_c, 2, 81, 92
3, 46272, Note_on_c, 2, 81, 0
3, 46272, Note_on_c, 2, 82, 92
3, 46464, Note_on_c, 2, 82, 0
3, 46464, Note_on_c, 2, 84, 92
3, 46624, Note_on_c, 2, 84, 0
3, 46656, Note_on_c, 2, 82, 92
3, 46848, Note_on_c, 2, 82, 0
3, 46848, Note_on_c, 2, 79, 92
3, 47040, Note_on_c, 2, 79, 0
3, 47040, Note_on_c, 2, 77, 92
3, 47232, Note_on_c, 2, 77, 0
3, 47232, Note_on_c, 2, 76, 92
3, 47280, Note_on_c, 2, 76, 0
3, 47424, Note_on_c, 2, 82, 92
3, 47616, Note_on_c, 2, 82, 0
3, 47616, Note_on_c, 2, 81, 92
3, 47808, Note_on_c, 2, 81, 0
3, 47808, Note_on_c, 2, 79, 92
3, 48000, Note_on_c, 2, 79, 0
3, 48000, Note_on_c, 2, 77, 92
3, 48192, Note_on_c, 2, 77, 0
3, 48192, Note_on_c, 2, 76, 92
3, 48384, Note_on_c, 2, 76, 0
3, 48384, Note_on_c, 2, 74, 92
3, 48576, Note_on_c, 2, 74, 0
3, 48576, Note_on_c, 2, 72, 92
3, 48768, Note_on_c, 2, 72, 0
3, 48768, Note_on_c, 2, 70, 92
3, 48960, Note_on_c, 2, 70, 0
3, 48960, Note_on_c, 2, 69, 92
3, 49152, Note_on_c, 2, 69, 0
3, 49152, Note_on_c, 2, 64, 92
3, 49344, Note_on_c, 2, 64, 0
3, 49344, Note_on_c, 2, 65, 92
3, 49536, Note_on_c, 2, 65, 0
3, 49536, Note_on_c, 2, 62, 92
3, 49728, Note_on_c, 2, 62, 0
3, 49728, Note_on_c, 2, 67, 92
3, 49888, Note_on_c, 2, 67, 0
3, 49920, Note_on_c, 2, 58, 92
3, 49968, Note_on_c, 2, 58, 0
3, 50112, Note_on_c, 2, 57, 108
3, 50160, Note_on_c, 2, 57, 0
3, 50304, Note_on_c, 2, 57, 92
3, 50352, Note_on_c, 2, 57, 0
3, 50496, Note_on_c, 2, 59, 127
3, 50544, Note_on_c, 2, 59, 0
3, 50688, Note_on_c, 2, 60, 92
3, 51216, Note_on_c, 2, 60, 0
3, 51264, Note_on_c, 2, 65, 92
3, 51312, Note_on_c, 2, 65, 0
3, 51456, Note_on_c, 2, 69, 92
3, 51504, Note_on_c, 2, 69, 0
3, 51648, Note_on_c, 2, 71, 127
3, 51696, Note_on_c, 2, 71, 0
3, 51840, Note_on_c, 2, 72, 92
3, 52576, Note_on_c, 2, 72, 0
3, 52608, Note_on_c, 2, 72, 127
3, 53152, Note_on_c, 2, 72, 0
3, 53184, Note_on_c, 2, 72, 127
3, 53728, Note_on_c, 2, 72, 0
3, 53760, Note_on_c, 2, 69, 92
3, 53808, Note_on_c, 2, 69, 0
3, 53952, Note_on_c, 2, 69, 92
3, 54000, Note_on_c, 2, 69, 0
3, 54144, Note_on_c, 2, 65, 92
3, 54192, Note_on_c, 2, 65, 0
3, 54720, Note_on_c, 2, 60, 45
3, 55104, Note_on_c, 2, 60, 0
3, 55104, Note_on_c, 2, 68, 45
3, 55264, Note_on_c, 2, 68, 0
3, 55296, Note_on_c, 2, 67, 45
3, 55632, Note_on_c, 2, 67, 0
3, 55680, Note_on_c, 2, 67, 45
3, 55840, Note_on_c, 2, 67, 0
3, 55872, Note_on_c, 2, 67, 45
3, 56064, Note_on_c, 2, 67, 0
3, 56064, Note_on_c, 2, 68, 45
3, 56224, Note_on_c, 2, 68, 0
3, 56256, Note_on_c, 2, 68, 45
3, 56304, Note_on_c, 2, 68, 0
3, 56448, Note_on_c, 2, 60, 60
3, 56832, Note_on_c, 2, 60, 0
3, 56832, Note_on_c, 2, 65, 45
3, 56992, Note_on_c, 2, 65, 0
3, 57024, Note_on_c, 2, 64, 45
3, 57360, Note_on_c, 2, 64, 0
3, 57408, Note_on_c, 2, 64, 45
3, 57568, Note_on_c, 2, 64, 0
3, 57600, Note_on_c, 2, 64, 45
3, 57792, Note_on_c, 2, 64, 0
3, 57792, Note_on_c, 2, 65, 45
3, 57952, Note_on_c, 2, 65, 0
3, 57984, Note_on_c, 2, 65, 45
3, 58032, Note_on_c, 2, 65, 0
3, 58176, Note_on_c, 2, 73, 45
3, 58912, Note_on_c, 2, 73, 0
3, 58944, Note_on_c, 2, 72, 45
3, 58992, Note_on_c, 2, 72, 0
3, 59136, Note_on_c, 2, 74, 45
3, 59184, Note_on_c, 2, 74, 0
3, 59328, Note_on_c, 2, 75, 45
3, 60064, Note_on_c, 2, 75, 0
3, 60096, Note_on_c, 2, 74, 45
3, 60144, Note_on_c, 2, 74, 0
3, 60288, Note_on_c, 2, 76, 45
3, 60336, Note_on_c, 2, 76, 0
3, 60480, Note_on_c, 2, 77, 45
3, 61216, Note_on_c, 2, 77, 0
3, 61248, Note_on_c, 2, 76, 45
3, 61296, Note_on_c, 2, 76, 0
3, 61440, Note_on_c, 2, 77, 45
3, 61488, Note_on_c, 2, 77, 0
3, 61632, Note_on_c, 2, 79, 45
3, 62400, Note_on_c, 2, 79, 0
3, 62400, Note_on_c, 2, 77, 45
3, 62560, Note_on_c, 2, 77, 0
3, 62592, Note_on_c, 2, 77, 45
3, 62640, Note_on_c, 2, 77, 0
3, 62784, Note_on_c, 2, 76, 45
3, 62944, Note_on_c, 2, 76, 0
3, 63360, Note_on_c, 2, 77, 45
3, 63520, Note_on_c, 2, 77, 0
3, 63936, Note_on_c, 2, 76, 45
3, 64096, Note_on_c, 2, 76, 0
3, 64512, Note_on_c, 2, 65, 45
3, 64672, Note_on_c, 2, 65, 0
3, 65088, Note_on_c, 2, 60, 30
3, 65136, Note_on_c, 2, 60, 0
3, 65280, Note_on_c, 2, 64, 30
3, 65328, Note_on_c, 2, 64, 0
3, 65472, Note_on_c, 2, 65, 30
3, 65520, Note_on_c, 2, 65, 0
3, 65664, Note_on_c, 2, 67, 30
3, 65712, Note_on_c, 2, 67, 0
3, 66240, Note_on_c, 2, 72, 30
3, 66288, Note_on_c, 2, 72, 0
3, 66432, Note_on_c, 2, 76, 30
3, 66480, Note_on_c, 2, 76, 0
3, 66624, Note_on_c, 2, 77, 30
3, 66672, Note_on_c, 2, 77, 0
3, 66816, Note_on_c, 2, 79, 30
3, 66864, Note_on_c, 2, 79, 0
3, 67392, Note_on_c, 2, 64, 30
3, 67440, Note_on_c, 2, 64, 0
3, 67584, Note_on_c, 2, 67, 30
3, 67632, Note_on_c, 2, 67, 0
3, 67776, Note_on_c, 2, 69, 30
3, 67824, Note_on_c, 2, 69, 0
3, 68544, Note_on_c, 2, 76, 30
3, 68592, Note_on_c, 2, 76, 0
3, 68736, Note_on_c, 2, 79, 30
3, 68784, Note_on_c, 2, 79, 0
3, 68928, Note_on_c, 2, 81, 30
3, 68976, Note_on_c, 2, 81, 0
3, 69120, Note_on_c, 2, 82, 30
3, 69168, Note_on_c, 2, 82, 0
3, 69312, Note_on_c, 2, 55, 30
3, 69472, Note_on_c, 2, 55, 0
3, 69504, Note_on_c, 2, 55, 30
3, 69664, Note_on_c, 2, 55, 0
3, 69696, Note_on_c, 2, 57, 30
3, 70080, Note_on_c, 2, 57, 0
3, 70080, Note_on_c, 2, 56, 35
3, 70272, Note_on_c, 2, 56, 0
3, 70272, Note_on_c, 2, 55, 37
3, 70608, Note_on_c, 2, 55, 0
3, 70656, Note_on_c, 2, 60, 42
3, 71040, Note_on_c, 2, 60, 0
3, 71040, Note_on_c, 2, 59, 46
3, 71232, Note_on_c, 2, 59, 0
3, 71232, Note_on_c, 2, 58, 48
3, 71392, Note_on_c, 2, 58, 0
3, 71424, Note_on_c, 2, 57, 51
3, 71760, Note_on_c, 2, 57, 0
3, 71808, Note_on_c, 2, 62, 57
3, 72160, Note_on_c, 2, 62, 0
3, 72192, Note_on_c, 2, 60, 45
3, 72384, Note_on_c, 2, 60, 0
3, 72384, Note_on_c, 2, 68, 45
3, 72576, Note_on_c, 2, 68, 0
3, 72576, Note_on_c, 2, 69, 45
3, 72624, Note_on_c, 2, 69, 0
3, 73152, Note_on_c, 2, 69, 30
3, 73536, Note_on_c, 2, 69, 0
3, 73536, Note_on_c, 2, 73, 30
3, 73728, Note_on_c, 2, 73, 0
3, 73728, Note_on_c, 2, 74, 30
3, 73776, Note_on_c, 2, 74, 0
3, 74304, Note_on_c, 2, 72, 10
3, 74688, Note_on_c, 2, 72, 0
3, 74688, Note_on_c, 2, 76, 10
3, 74880, Note_on_c, 2, 76, 0
3, 74880, Note_on_c, 2, 77, 10
3, 74928, Note_on_c, 2, 77, 0
3, 75456, Note_on_c, 2, 77, 10
3, 75504, Note_on_c, 2, 77, 0
3, 75504, Note_on_c, 2, 76, 10
3, 75552, Note_on_c, 2, 76, 0
3, 75552, Note_on_c, 2, 77, 10
3, 75600, Note_on_c, 2, 77, 0
3, 75600, Note_on_c, 2, 76, 10
3, 75648, Note_on_c, 2, 76, 0
3, 75648, Note_on_c, 2, 77, 10
3, 75696, Note_on_c, 2, 77, 0
3, 75696, Note_on_c, 2, 76, 10
3, 75744, Note_on_c, 2, 76, 0
3, 75744, Note_on_c, 2, 77, 10
3, 75792, Note_on_c, 2, 77, 0
3, 75792, Note_on_c, 2, 76, 10
3, 75840, Note_on_c, 2, 76, 0
3, 75840, Note_on_c, 2, 77, 10
3, 75888, Note_on_c, 2, 77, 0
3, 75888, Note_on_c, 2, 76, 10
3, 75936, Note_on_c, 2, 76, 0
3, 75936, Note_on_c, 2, 74, 10
3, 75984, Note_on_c, 2, 74, 0
3, 75984, Note_on_c, 2, 76, 10
3, 76030, Note_on_c, 2, 76, 0
3, 76032, Note_on_c, 2, 77, 10
3, 76192, Note_on_c, 2, 77, 0
3, 76608, Note_on_c, 2, 65, 10
3, 76656, Note_on_c, 2, 65, 0
3, 76656, Note_on_c, 2, 64, 10
3, 76704, Note_on_c, 2, 64, 0
3, 76704, Note_on_c, 2, 65, 10
3, 76752, Note_on_c, 2, 65, 0
3, 76752, Note_on_c, 2, 64, 10
3, 76800, Note_on_c, 2, 64, 0
3, 76800, Note_on_c, 2, 65, 10
3, 76848, Note_on_c, 2, 65, 0
3, 76848, Note_on_c, 2, 64, 10
3, 76896, Note_on_c, 2, 64, 0
3, 76896, Note_on_c, 2, 65, 10
3, 76944, Note_on_c, 2, 65, 0
3, 76944, Note_on_c, 2, 64, 10
3, 76992, Note_on_c, 2, 64, 0
3, 76992, Note_on_c, 2, 65, 10
3, 77040, Note_on_c, 2, 65, 0
3, 77040, Note_on_c, 2, 64, 10
3, 77088, Note_on_c, 2, 64, 0
3, 77088, Note_on_c, 2, 62, 10
3, 77136, Note_on_c, 2, 62, 0
3, 77136, Note_on_c, 2, 64, 10
3, 77182, Note_on_c, 2, 64, 0
3, 77952, Note_on_c, 2, 58, 42
3, 78336, Note_on_c, 2, 58, 0
3, 78336, Note_on_c, 2, 57, 30
3, 78496, Note_on_c, 2, 57, 0
3, 79104, Note_on_c, 2, 58, 42
3, 79488, Note_on_c, 2, 58, 0
3, 79488, Note_on_c, 2, 57, 30
3, 79648, Note_on_c, 2, 57, 0
3, 80256, Note_on_c, 2, 58, 42
3, 80640, Note_on_c, 2, 58, 0
3, 80640, Note_on_c, 2, 57, 30
3, 80800, Note_on_c, 2, 57, 0
3, 80832, Note_on_c, 2, 72, 30
3, 80880, Note_on_c, 2, 72, 0
3, 81024, Note_on_c, 2, 72, 30
3, 81072, Note_on_c, 2, 72, 0
3, 81216, Note_on_c, 2, 65, 42
3, 81264, Note_on_c, 2, 65, 0
3, 81264, Note_on_c, 2, 63, 30
3, 81312, Note_on_c, 2, 63, 0
3, 81312, Note_on_c, 2, 65, 30
3, 81360, Note_on_c, 2, 65, 0
3, 81360, Note_on_c, 2, 63, 30
3, 81408, Note_on_c, 2, 63, 0
3, 81408, Note_on_c, 2, 65, 30
3, 81456, Note_on_c, 2, 65, 0
3, 81456, Note_on_c, 2, 63, 30
3, 81504, Note_on_c, 2, 63, 0
3, 81504, Note_on_c, 2, 65, 30
3, 81552, Note_on_c, 2, 65, 0
3, 81552, Note_on_c, 2, 63, 30
3, 81600, Note_on_c, 2, 63, 0
3, 81600, Note_on_c, 2, 65, 30
3, 81648, Note_on_c, 2, 65, 0
3, 81648, Note_on_c, 2, 63, 30
3, 81696, Note_on_c, 2, 63, 0
3, 81696, Note_on_c, 2, 62, 30
3, 81744, Note_on_c, 2, 62, 0
3, 81744, Note_on_c, 2, 63, 30
3, 81790, Note_on_c, 2, 63, 0
3, 81792, Note_on_c, 2, 62, 30
3, 81952, Note_on_c, 2, 62, 0
3, 82368, Note_on_c, 2, 64, 30
3, 82528, Note_on_c, 2, 64, 0
3, 82944, Note_on_c, 2, 65, 30
3, 83104, Note_on_c, 2, 65, 0
3, 83136, Note_on_c, 2, 72, 30
3, 83296, Note_on_c, 2, 72, 0
3, 83328, Note_on_c, 2, 72, 30
3, 83488, Note_on_c, 2, 72, 0
3, 83520, Note_on_c, 2, 65, 42
3, 83568, Note_on_c, 2, 65, 0
3, 83568, Note_on_c, 2, 63, 30
3, 83616, Note_on_c, 2, 63, 0
3, 83616, Note_on_c, 2, 65, 30
3, 83664, Note_on_c, 2, 65, 0
3, 83664, Note_on_c, 2, 63, 30
3, 83712, Note_on_c, 2, 63, 0
3, 83712, Note_on_c, 2, 65, 30
3, 83760, Note_on_c, 2, 65, 0
3, 83760, Note_on_c, 2, 63, 30
3, 83808, Note_on_c, 2, 63, 0
3, 83808, Note_on_c, 2, 65, 30
3, 83856, Note_on_c, 2, 65, 0
3, 83856, Note_on_c, 2, 63, 30
3, 83904, Note_on_c, 2, 63, 0
3, 83904, Note_on_c, 2, 65, 30
3, 83952, Note_on_c, 2, 65, 0
3, 83952, Note_on_c, 2, 63, 30
3, 84000, Note_on_c, 2, 63, 0
3, 84000, Note_on_c, 2, 62, 30
3, 84048, Note_on_c, 2, 62, 0
3, 84048, Note_on_c, 2, 63, 30
3, 84094, Note_on_c, 2, 63, 0
3, 84096, Note_on_c, 2, 62, 30
3, 84256, Note_on_c, 2, 62, 0
3, 84672, Note_on_c, 2, 64, 30
3, 84832, Note_on_c, 2, 64, 0
3, 85248, Note_on_c, 2, 69, 30
3, 85632, Note_on_c, 2, 69, 0
3, 85632, Note_on_c, 2, 68, 36
3, 85824, Note_on_c, 2, 68, 0
3, 85824, Note_on_c, 2, 67, 39
3, 86208, Note_on_c, 2, 67, 0
3, 86208, Note_on_c, 2, 72, 45
3, 86368, Note_on_c, 2, 72, 0
3, 86400, Note_on_c, 2, 70, 48
3, 86448, Note_on_c, 2, 70, 0
3, 86592, Note_on_c, 2, 74, 51
3, 86640, Note_on_c, 2, 74, 0
3, 86784, Note_on_c, 2, 76, 54
3, 87136, Note_on_c, 2, 76, 0
3, 87168, Note_on_c, 2, 74, 60
3, 87216, Note_on_c, 2, 74, 0
3, 87360, Note_on_c, 2, 74, 63
3, 87408, Note_on_c, 2, 74, 0
3, 87552, Note_on_c, 2, 72, 66
3, 87744, Note_on_c, 2, 72, 0
3, 87744, Note_on_c, 2, 73, 69
3, 87936, Note_on_c, 2, 73, 0
3, 87936, Note_on_c, 2, 74, 72
3, 88128, Note_on_c, 2, 74, 0
3, 88128, Note_on_c, 2, 76, 76
3, 88320, Note_on_c, 2, 76, 0
3, 88320, Note_on_c, 2, 77, 80
3, 88512, Note_on_c, 2, 77, 0
3, 88512, Note_on_c, 2, 79, 84
3, 88704, Note_on_c, 2, 79, 0
3, 88704, Note_on_c, 2, 77, 88
3, 88752, Note_on_c, 2, 77, 0
3, 88896, Note_on_c, 2, 78, 92
3, 89088, Note_on_c, 2, 78, 0
3, 89088, Note_on_c, 2, 79, 92
3, 89280, Note_on_c, 2, 79, 0
3, 89280, Note_on_c, 2, 81, 92
3, 89472, Note_on_c, 2, 81, 0
3, 89472, Note_on_c, 2, 82, 92
3, 89664, Note_on_c, 2, 82, 0
3, 89664, Note_on_c, 2, 84, 92
3, 89824, Note_on_c, 2, 84, 0
3, 89856, Note_on_c, 2, 82, 92
3, 90048, Note_on_c, 2, 82, 0
3, 90048, Note_on_c, 2, 79, 92
3, 90240, Note_on_c, 2, 79, 0
3, 90240, Note_on_c, 2, 77, 92
3, 90432, Note_on_c, 2, 77, 0
3, 90432, Note_on_c, 2, 76, 92
3, 90480, Note_on_c, 2, 76, 0
3, 90624, Note_on_c, 2, 82, 92
3, 90816, Note_on_c, 2, 82, 0
3, 90816, Note_on_c, 2, 81, 92
3, 91008, Note_on_c, 2, 81, 0
3, 91008, Note_on_c, 2, 79, 92
3, 91200, Note_on_c, 2, 79, 0
3, 91200, Note_on_c, 2, 77, 92
3, 91392, Note_on_c, 2, 77, 0
3, 91392, Note_on_c, 2, 76, 92
3, 91584, Note_on_c, 2, 76, 0
3, 91584, Note_on_c, 2, 74, 92
3, 91776, Note_on_c, 2, 74, 0
3, 91776, Note_on_c, 2, 72, 92
3, 91968, Note_on_c, 2, 72, 0
3, 91968, Note_on_c, 2, 70, 92
3, 92160, Note_on_c, 2, 70, 0
3, 92160, Note_on_c, 2, 69, 92
3, 92352, Note_on_c, 2, 69, 0
3, 92352, Note_on_c, 2, 64, 92
3, 92544, Note_on_c, 2, 64, 0
3, 92544, Note_on_c, 2, 65, 92
3, 92736, Note_on_c, 2, 65, 0
3, 92736, Note_on_c, 2, 62, 92
3, 92928, Note_on_c, 2, 62, 0
3, 92928, Note_on_c, 2, 67, 92
3, 93088, Note_on_c, 2, 67, 0
3, 93120, Note_on_c, 2, 58, 92
3, 93168, Note_on_c, 2, 58, 0
3, 93312, Note_on_c, 2, 57, 108
3, 93360, Note_on_c, 2, 57, 0
3, 93504, Note_on_c, 2, 57, 92
3, 93552, Note_on_c, 2, 57, 0
3, 93696, Note_on_c, 2, 59, 127
3, 93744, Note_on_c, 2, 59, 0
3, 93888, Note_on_c, 2, 60, 92
3, 94416, Note_on_c, 2, 60, 0
3, 94464, Note_on_c, 2, 65, 92
3, 94512, Note_on_c, 2, 65, 0
3, 94656, Note_on_c, 2, 69, 92
3, 94704, Note_on_c, 2, 69, 0
3, 94848, Note_on_c, 2, 71, 127
3, 94896, Note_on_c, 2, 71, 0
3, 95040, Note_on_c, 2, 72, 92
3, 95776, Note_on_c, 2, 72, 0
3, 95808, Note_on_c, 2, 72, 127
3, 96352, Note_on_c, 2, 72, 0
3, 96384, Note_on_c, 2, 72, 127
3, 96928, Note_on_c, 2, 72, 0
3, 96960, Note_on_c, 2, 69, 92
3, 97008, Note_on_c, 2, 69, 0
3, 97152, Note_on_c, 2, 69, 92
3, 97200, Note_on_c, 2, 69, 0
3, 97344, Note_on_c, 2, 65, 92
3, 97392, Note_on_c, 2, 65, 0
3, 100224, Note_on_c, 2, 56, 45
3, 100224, Note_on_c, 2, 65, 45
3, 100752, Note_on_c, 2, 65, 0
3, 100752, Note_on_c, 2, 56, 0
3, 100800, Note_on_c, 2, 56, 63
3, 100800, Note_on_c, 2, 65, 63
3, 102288, Note_on_c, 2, 65, 0
3, 102288, Note_on_c, 2, 56, 0
3, 102336, Note_on_c, 2, 56, 45
3, 102336, Note_on_c, 2, 66, 45
3, 102496, Note_on_c, 2, 66, 0
3, 102496, Note_on_c, 2, 56, 0
3, 102528, Note_on_c, 2, 56, 45
3, 102528, Note_on_c, 2, 65, 45
3, 103056, Note_on_c, 2, 65, 0
3, 103056, Note_on_c, 2, 56, 0
3, 103104, Note_on_c, 2, 56, 63
3, 103104, Note_on_c, 2, 65, 63
3, 104592, Note_on_c, 2, 65, 0
3, 104592, Note_on_c, 2, 56, 0
3, 104640, Note_on_c, 2, 56, 45
3, 104640, Note_on_c, 2, 66, 45
3, 104800, Note_on_c, 2, 66, 0
3, 104800, Note_on_c, 2, 56, 0
3, 104832, Note_on_c, 2, 56, 45
3, 104832, Note_on_c, 2, 65, 45
3, 104880, Note_on_c, 2, 65, 0
3, 104880, Note_on_c, 2, 56, 0
3, 105024, Note_on_c, 2, 61, 60
3, 105072, Note_on_c, 2, 61, 0
3, 105216, Note_on_c, 2, 61, 60
3, 105264, Note_on_c, 2, 61, 0
3, 105408, Note_on_c, 2, 61, 75
3, 105600, Note_on_c, 2, 61, 0
3, 105600, Note_on_c, 2, 60, 60
3, 105792, Note_on_c, 2, 60, 0
3, 105792, Note_on_c, 2, 59, 60
3, 105952, Note_on_c, 2, 59, 0
3, 105984, Note_on_c, 2, 60, 75
3, 106144, Note_on_c, 2, 60, 0
3, 106368, Note_on_c, 2, 60, 45
3, 106528, Note_on_c, 2, 60, 0
3, 109440, Note_on_c, 2, 56, 45
3, 109440, Note_on_c, 2, 65, 45
3, 109968, Note_on_c, 2, 65, 0
3, 109968, Note_on_c, 2, 56, 0
3, 110016, Note_on_c, 2, 56, 63
3, 110016, Note_on_c, 2, 65, 63
3, 111504, Note_on_c, 2, 65, 0
3, 111504, Note_on_c, 2, 56, 0
3, 111552, Note_on_c, 2, 56, 45
3, 111552, Note_on_c, 2, 66, 45
3, 111712, Note_on_c, 2, 66, 0
3, 111712, Note_on_c, 2, 56, 0
3, 111744, Note_on_c, 2, 56, 45
3, 111744, Note_on_c, 2, 65, 45
3, 112272, Note_on_c, 2, 65, 0
3, 112272, Note_on_c, 2, 56, 0
3, 112320, Note_on_c, 2, 56, 63
3, 112320, Note_on_c, 2, 65, 63
3, 113808, Note_on_c, 2, 65, 0
3, 113808, Note_on_c, 2, 56, 0
3, 113856, Note_on_c, 2, 56, 45
3, 113856, Note_on_c, 2, 66, 45
3, 114016, Note_on_c, 2, 66, 0
3, 114016, Note_on_c, 2, 56, 0
3, 114048, Note_on_c, 2, 56, 45
3, 114048, Note_on_c, 2, 65, 45
3, 114096, Note_on_c, 2, 65, 0
3, 114096, Note_on_c, 2, 56, 0
3, 114240, Note_on_c, 2, 61, 60
3, 114288, Note_on_c, 2, 61, 0
3, 114432, Note_on_c, 2, 61, 60
3, 114480, Note_on_c, 2, 61, 0
3, 114624, Note_on_c, 2, 61, 75
3, 114816, Note_on_c, 2, 61, 0
3, 114816, Note_on_c, 2, 60, 60
3, 115008, Note_on_c, 2, 60, 0
3, 115008, Note_on_c, 2, 59, 60
3, 115168, Note_on_c, 2, 59, 0
3, 115200, Note_on_c, 2, 60, 75
3, 115360, Note_on_c, 2, 60, 0
3, 115584, Note_on_c, 2, 60, 45
3, 115744, Note_on_c, 2, 60, 0
3, 116352, Note_on_c, 2, 69, 30
3, 118608, Note_on_c, 2, 69, 0
3, 118656, Note_on_c, 2, 68, 30
3, 120912, Note_on_c, 2, 68, 0
3, 120960, Note_on_c, 2, 70, 30
3, 122064, Note_on_c, 2, 70, 0
3, 122112, Note_on_c, 2, 68, 30
3, 123216, Note_on_c, 2, 68, 0
3, 123264, Note_on_c, 2, 67, 30
3, 123424, Note_on_c, 2, 67, 0
3, 127872, Note_on_c, 2, 62, 92
3, 128400, Note_on_c, 2, 62, 0
3, 128448, Note_on_c, 2, 58, 92
3, 129936, Note_on_c, 2, 58, 0
3, 129984, Note_on_c, 2, 60, 45
3, 130144, Note_on_c, 2, 60, 0
3, 130176, Note_on_c, 2, 58, 45
3, 130704, Note_on_c, 2, 58, 0
3, 130752, Note_on_c, 2, 58, 92
3, 132240, Note_on_c, 2, 58, 0
3, 132288, Note_on_c, 2, 60, 45
3, 132448, Note_on_c, 2, 60, 0
3, 132480, Note_on_c, 2, 59, 45
3, 133008, Note_on_c, 2, 59, 0
3, 133056, Note_on_c, 2, 59, 92
3, 134544, Note_on_c, 2, 59, 0
3, 134592, Note_on_c, 2, 60, 45
3, 134752, Note_on_c, 2, 60, 0
3, 134784, Note_on_c, 2, 59, 45
3, 135312, Note_on_c, 2, 59, 0
3, 135360, Note_on_c, 2, 59, 92
3, 136848, Note_on_c, 2, 59, 0
3, 136896, Note_on_c, 2, 60, 45
3, 137056, Note_on_c, 2, 60, 0
3, 137088, Note_on_c, 2, 55, 45
3, 137088, Note_on_c, 2, 64, 45
3, 137616, Note_on_c, 2, 64, 0
3, 137616, Note_on_c, 2, 55, 0
3, 137664, Note_on_c, 2, 55, 92
3, 137664, Note_on_c, 2, 64, 92
3, 139152, Note_on_c, 2, 64, 0
3, 139152, Note_on_c, 2, 55, 0
3, 139200, Note_on_c, 2, 57, 45
3, 139360, Note_on_c, 2, 57, 0
3, 139392, Note_on_c, 2, 55, 45
3, 139392, Note_on_c, 2, 64, 45
3, 139920, Note_on_c, 2, 64, 0
3, 139920, Note_on_c, 2, 55, 0
3, 139968, Note_on_c, 2, 55, 92
3, 139968, Note_on_c, 2, 64, 92
3, 140704, Note_on_c, 2, 64, 0
3, 140704, Note_on_c, 2, 55, 0
3, 141696, Note_on_c, 2, 60, 45
3, 142608, Note_on_c, 2, 60, 0
3, 142656, Note_on_c, 2, 62, 45
3, 142704, Note_on_c, 2, 62, 0
3, 142848, Note_on_c, 2, 62, 45
3, 143760, Note_on_c, 2, 62, 0
3, 143808, Note_on_c, 2, 64, 45
3, 143856, Note_on_c, 2, 64, 0
3, 144000, Note_on_c, 2, 64, 45
3, 144384, Note_on_c, 2, 64, 0
3, 144384, Note_on_c, 2, 68, 45
3, 144576, Note_on_c, 2, 68, 0
3, 144576, Note_on_c, 2, 69, 45
3, 144624, Note_on_c, 2, 69, 0
3, 145152, Note_on_c, 2, 72, 45
3, 145200, Note_on_c, 2, 72, 0
3, 145200, Note_on_c, 2, 71, 45
3, 145248, Note_on_c, 2, 71, 0
3, 145248, Note_on_c, 2, 72, 45
3, 145296, Note_on_c, 2, 72, 0
3, 145296, Note_on_c, 2, 71, 45
3, 145344, Note_on_c, 2, 71, 0
3, 145344, Note_on_c, 2, 72, 45
3, 145392, Note_on_c, 2, 72, 0
3, 145392, Note_on_c, 2, 71, 45
3, 145440, Note_on_c, 2, 71, 0
3, 145440, Note_on_c, 2, 72, 45
3, 145488, Note_on_c, 2, 72, 0
3, 145488, Note_on_c, 2, 71, 45
3, 145536, Note_on_c, 2, 71, 0
3, 145536, Note_on_c, 2, 72, 45
3, 145584, Note_on_c, 2, 72, 0
3, 145584, Note_on_c, 2, 71, 45
3, 145632, Note_on_c, 2, 71, 0
3, 145632, Note_on_c, 2, 69, 45
3, 145680, Note_on_c, 2, 69, 0
3, 145680, Note_on_c, 2, 71, 45
3, 145726, Note_on_c, 2, 71, 0
3, 145728, Note_on_c, 2, 72, 45
3, 145888, Note_on_c, 2, 72, 0
3, 146304, Note_on_c, 2, 60, 92
3, 146352, Note_on_c, 2, 60, 0
3, 146352, Note_on_c, 2, 59, 92
3, 146400, Note_on_c, 2, 59, 0
3, 146400, Note_on_c, 2, 60, 92
3, 146448, Note_on_c, 2, 60, 0
3, 146448, Note_on_c, 2, 59, 92
3, 146496, Note_on_c, 2, 59, 0
3, 146496, Note_on_c, 2, 60, 92
3, 146544, Note_on_c, 2, 60, 0
3, 146544, Note_on_c, 2, 59, 92
3, 146592, Note_on_c, 2, 59, 0
3, 146592, Note_on_c, 2, 60, 92
3, 146640, Note_on_c, 2, 60, 0
3, 146640, Note_on_c, 2, 59, 92
3, 146688, Note_on_c, 2, 59, 0
3, 146688, Note_on_c, 2, 60, 92
3, 146736, Note_on_c, 2, 60, 0
3, 146736, Note_on_c, 2, 59, 92
3, 146784, Note_on_c, 2, 59, 0
3, 146784, Note_on_c, 2, 57, 92
3, 146832, Note_on_c, 2, 57, 0
3, 146832, Note_on_c, 2, 59, 92
3, 146878, Note_on_c, 2, 59, 0
3, 147456, Note_on_c, 2, 60, 45
3, 147840, Note_on_c, 2, 60, 0
3, 147840, Note_on_c, 2, 68, 45
3, 148000, Note_on_c, 2, 68, 0
3, 148032, Note_on_c, 2, 67, 45
3, 148368, Note_on_c, 2, 67, 0
3, 148416, Note_on_c, 2, 67, 45
3, 148576, Note_on_c, 2, 67, 0
3, 148608, Note_on_c, 2, 67, 45
3, 148800, Note_on_c, 2, 67, 0
3, 148800, Note_on_c, 2, 68, 45
3, 148960, Note_on_c, 2, 68, 0
3, 148992, Note_on_c, 2, 68, 45
3, 149040, Note_on_c, 2, 68, 0
3, 149184, Note_on_c, 2, 60, 60
3, 149568, Note_on_c, 2, 60, 0
3, 149568, Note_on_c, 2, 65, 45
3, 149728, Note_on_c, 2, 65, 0
3, 149760, Note_on_c, 2, 64, 45
3, 150096, Note_on_c, 2, 64, 0
3, 150144, Note_on_c, 2, 64, 45
3, 150304, Note_on_c, 2, 64, 0
3, 150336, Note_on_c, 2, 64, 45
3, 150528, Note_on_c, 2, 64, 0
3, 150528, Note_on_c, 2, 65, 45
3, 150688, Note_on_c, 2, 65, 0
3, 150720, Note_on_c, 2, 65, 45
3, 150768, Note_on_c, 2, 65, 0
3, 150912, Note_on_c, 2, 73, 45
3, 151648, Note_on_c, 2, 73, 0
3, 151680, Note_on_c, 2, 72, 45
3, 151728, Note_on_c, 2, 72, 0
3, 151872, Note_on_c, 2, 74, 45
3, 151920, Note_on_c, 2, 74, 0
3, 152064, Note_on_c, 2, 75, 45
3, 152800, Note_on_c, 2, 75, 0
3, 152832, Note_on_c, 2, 74, 45
3, 152880, Note_on_c, 2, 74, 0
3, 153024, Note_on_c, 2, 76, 45
3, 153072, Note_on_c, 2, 76, 0
3, 153216, Note_on_c, 2, 77, 45
3, 153952, Note_on_c, 2, 77, 0
3, 153984, Note_on_c, 2, 76, 45
3, 154032, Note_on_c, 2, 76, 0
3, 154176, Note_on_c, 2, 77, 45
3, 154224, Note_on_c, 2, 77, 0
3, 154368, Note_on_c, 2, 79, 45
3, 155136, Note_on_c, 2, 79, 0
3, 155136, Note_on_c, 2, 77, 45
3, 155296, Note_on_c, 2, 77, 0
3, 155328, Note_on_c, 2, 77, 45
3, 155376, Note_on_c, 2, 77, 0
3, 155520, Note_on_c, 2, 76, 45
3, 155680, Note_on_c, 2, 76, 0
3, 156096, Note_on_c, 2, 77, 45
3, 156256, Note_on_c, 2, 77, 0
3, 156672, Note_on_c, 2, 76, 45
3, 156832, Note_on_c, 2, 76, 0
3, 157248, Note_on_c, 2, 65, 45
3, 157408, Note_on_c, 2, 65, 0
3, 157824, Note_on_c, 2, 60, 30
3, 157872, Note_on_c, 2, 60, 0
3, 158016, Note_on_c, 2, 64, 30
3, 158064, Note_on_c, 2, 64, 0
3, 158208, Note_on_c, 2, 65, 30
3, 158256, Note_on_c, 2, 65, 0
3, 158400, Note_on_c, 2, 67, 30
3, 158448, Note_on_c, 2, 67, 0
3, 158976, Note_on_c, 2, 72, 30
3, 159024, Note_on_c, 2, 72, 0
3, 159168, Note_on_c, 2, 76, 30
3, 159216, Note_on_c, 2, 76, 0
3, 159360, Note_on_c, 2, 77, 30
3, 159408, Note_on_c, 2, 77, 0
3, 159552, Note_on_c, 2, 79, 30
3, 159600, Note_on_c, 2, 79, 0
3, 160128, Note_on_c, 2, 64, 30
3, 160176, Note_on_c, 2, 64, 0
3, 160320, Note_on_c, 2, 67, 30
3, 160368, Note_on_c, 2, 67, 0
3, 160512, Note_on_c, 2, 69, 30
3, 160560, Note_on_c, 2, 69, 0
3, 161280, Note_on_c, 2, 76, 30
3, 161328, Note_on_c, 2, 76, 0
3, 161472, Note_on_c, 2, 79, 30
3, 161520, Note_on_c, 2, 79, 0
3, 161664, Note_on_c, 2, 81, 30
3, 161712, Note_on_c, 2, 81, 0
3, 161856, Note_on_c, 2, 82, 30
3, 161904, Note_on_c, 2, 82, 0
3, 162048, Note_on_c, 2, 55, 30
3, 162208, Note_on_c, 2, 55, 0
3, 162240, Note_on_c, 2, 55, 30
3, 162400, Note_on_c, 2, 55, 0
3, 162432, Note_on_c, 2, 57, 30
3, 162816, Note_on_c, 2, 57, 0
3, 162816, Note_on_c, 2, 56, 35
3, 163008, Note_on_c, 2, 56, 0
3, 163008, Note_on_c, 2, 55, 37
3, 163344, Note_on_c, 2, 55, 0
3, 163392, Note_on_c, 2, 60, 42
3, 163776, Note_on_c, 2, 60, 0
3, 163776, Note_on_c, 2, 59, 46
3, 163968, Note_on_c, 2, 59, 0
3, 163968, Note_on_c, 2, 58, 48
3, 164128, Note_on_c, 2, 58, 0
3, 164160, Note_on_c, 2, 57, 51
3, 164496, Note_on_c, 2, 57, 0
3, 164544, Note_on_c, 2, 62, 57
3, 164896, Note_on_c, 2, 62, 0
3, 164928, Note_on_c, 2, 60, 45
3, 165120, Note_on_c, 2, 60, 0
3, 165120, Note_on_c, 2, 68, 45
3, 165312, Note_on_c, 2, 68, 0
3, 165312, Note_on_c, 2, 69, 45
3, 165360, Note_on_c, 2, 69, 0
3, 165888, Note_on_c, 2, 69, 30
3, 166272, Note_on_c, 2, 69, 0
3, 166272, Note_on_c, 2, 73, 30
3, 166464, Note_on_c, 2, 73, 0
3, 166464, Note_on_c, 2, 74, 30
3, 166512, Note_on_c, 2, 74, 0
3, 167040, Note_on_c, 2, 72, 10
3, 167424, Note_on_c, 2, 72, 0
3, 167424, Note_on_c, 2, 76, 10
3, 167616, Note_on_c, 2, 76, 0
3, 167616, Note_on_c, 2, 77, 10
3, 167664, Note_on_c, 2, 77, 0
3, 168192, Note_on_c, 2, 77, 10
3, 168240, Note_on_c, 2, 77, 0
3, 168240, Note_on_c, 2, 76, 10
3, 168288, Note_on_c, 2, 76, 0
3, 168288, Note_on_c, 2, 77, 10
3, 168336, Note_on_c, 2, 77, 0
3, 168336, Note_on_c, 2, 76, 10
3, 168384, Note_on_c, 2, 76, 0
3, 168384, Note_on_c, 2, 77, 10
3, 168432, Note_on_c, 2, 77, 0
3, 168432, Note_on_c, 2, 76, 10
3, 168480, Note_on_c, 2, 76, 0
3, 168480, Note_on_c, 2, 77, 10
3, 168528, Note_on_c, 2, 77, 0
3, 168528, Note_on_c, 2, 76, 10
3, 168576, Note_on_c, 2, 76, 0
3, 168576, Note_on_c, 2, 77, 10
3, 168624, Note_on_c, 2, 77, 0
3, 168624, Note_on_c, 2, 76, 10
3, 168672, Note_on_c, 2, 76, 0
3, 168672, Note_on_c, 2, 74, 10
3, 168720, Note_on_c, 2, 74, 0
3, 168720, Note_on_c, 2, 76, 10
3, 168766, Note_on_c, 2, 76, 0
3, 168768, Note_on_c, 2, 77, 10
3, 168928, Note_on_c, 2, 77, 0
3, 169344, Note_on_c, 2, 65, 10
3, 169392, Note_on_c, 2, 65, 0
3, 169392, Note_on_c, 2, 64, 10
3, 169440, Note_on_c, 2, 64, 0
3, 169440, Note_on_c, 2, 65, 10
3, 169488, Note_on_c, 2, 65, 0
3, 169488, Note_on_c, 2, 64, 10
3, 169536, Note_on_c, 2, 64, 0
3, 169536, Note_on_c, 2, 65, 10
3, 169584, Note_on_c, 2, 65, 0
3, 169584, Note_on_c, 2, 64, 10
3, 169632, Note_on_c, 2, 64, 0
3, 169632, Note_on_c, 2, 65, 10
3, 169680, Note_on_c, 2, 65, 0
3, 169680, Note_on_c, 2, 64, 10
3, 169728, Note_on_c, 2, 64, 0
3, 169728, Note_on_c, 2, 65, 10
3, 169776, Note_on_c, 2, 65, 0
3, 169776, Note_on_c, 2, 64, 10
3, 169824, Note_on_c, 2, 64, 0
3, 169824, Note_on_c, 2, 62, 10
3, 169872, Note_on_c, 2, 62, 0
3, 169872, Note_on_c, 2, 64, 10
3, 169918, Note_on_c, 2, 64, 0
3, 170688, Note_on_c, 2, 58, 42
3, 171072, Note_on_c, 2, 58, 0
3, 171072, Note_on_c, 2, 57, 30
3, 171232, Note_on_c, 2, 57, 0
3, 171840, Note_on_c, 2, 58, 42
3, 172224, Note_on_c, 2, 58, 0
3, 172224, Note_on_c, 2, 57, 30
3, 172384, Note_on_c, 2, 57, 0
3, 172992, Note_on_c, 2, 58, 42
3, 173376, Note_on_c, 2, 58, 0
3, 173376, Note_on_c, 2, 57, 30
3, 173536, Note_on_c, 2, 57, 0
3, 173568, Note_on_c, 2, 72, 30
3, 173616, Note_on_c, 2, 72, 0
3, 173760, Note_on_c, 2, 72, 30
3, 173808, Note_on_c, 2, 72, 0
3, 173952, Note_on_c, 2, 65, 42
3, 174000, Note_on_c, 2, 65, 0
3, 174000, Note_on_c, 2, 63, 30
3, 174048, Note_on_c, 2, 63, 0
3, 174048, Note_on_c, 2, 65, 30
3, 174096, Note_on_c, 2, 65, 0
3, 174096, Note_on_c, 2, 63, 30
3, 174144, Note_on_c, 2, 63, 0
3, 174144, Note_on_c, 2, 65, 30
3, 174192, Note_on_c, 2, 65, 0
3, 174192, Note_on_c, 2, 63, 30
3, 174240, Note_on_c, 2, 63, 0
3, 174240, Note_on_c, 2, 65, 30
3, 174288, Note_on_c, 2, 65, 0
3, 174288, Note_on_c, 2, 63, 30
3, 174336, Note_on_c, 2, 63, 0
3, 174336, Note_on_c, 2, 65, 30
3, 174384, Note_on_c, 2, 65, 0
3, 174384, Note_on_c, 2, 63, 30
3, 174432, Note_on_c, 2, 63, 0
3, 174432, Note_on_c, 2, 62, 30
3, 174480, Note_on_c, 2, 62, 0
3, 174480, Note_on_c, 2, 63, 30
3, 174526, Note_on_c, 2, 63, 0
3, 174528, Note_on_c, 2, 62, 30
3, 174688, Note_on_c, 2, 62, 0
3, 175104, Note_on_c, 2, 64, 30
3, 175264, Note_on_c, 2, 64, 0
3, 175680, Note_on_c, 2, 65, 30
3, 175840, Note_on_c, 2, 65, 0
3, 175872, Note_on_c, 2, 72, 30
3, 176032, Note_on_c, 2, 72, 0
3, 176064, Note_on_c, 2, 72, 30
3, 176224, Note_on_c, 2, 72, 0
3, 176256, Note_on_c, 2, 65, 42
3, 176304, Note_on_c, 2, 65, 0
3, 176304, Note_on_c, 2, 63, 30
3, 176352, Note_on_c, 2, 63, 0
3, 176352, Note_on_c, 2, 65, 30
3, 176400, Note_on_c, 2, 65, 0
3, 176400, Note_on_c, 2, 63, 30
3, 176448, Note_on_c, 2, 63, 0
3, 176448, Note_on_c, 2, 65, 30
3, 176496, Note_on_c, 2, 65, 0
3, 176496, Note_on_c, 2, 63, 30
3, 176544, Note_on_c, 2, 63, 0
3, 176544, Note_on_c, 2, 65, 30
3, 176592, Note_on_c, 2, 65, 0
3, 176592, Note_on_c, 2, 63, 30
3, 176640, Note_on_c, 2, 63, 0
3, 176640, Note_on_c, 2, 65, 30
3, 176688, Note_on_c, 2, 65, 0
3, 176688, Note_on_c, 2, 63, 30
3, 176736, Note_on_c, 2, 63, 0
3, 176736, Note_on_c, 2, 62, 30
3, 176784, Note_on_c, 2, 62, 0
3, 176784, Note_on_c, 2, 63, 30
3, 176830, Note_on_c, 2, 63, 0
3, 176832, Note_on_c, 2, 62, 30
3, 176992, Note_on_c, 2, 62, 0
3, 177408, Note_on_c, 2, 64, 30
3, 177568, Note_on_c, 2, 64, 0
3, 177984, Note_on_c, 2, 69, 30
3, 178368, Note_on_c, 2, 69, 0
3, 178368, Note_on_c, 2, 68, 36
3, 178560, Note_on_c, 2, 68, 0
3, 178560, Note_on_c, 2, 67, 39
3, 178944, Note_on_c, 2, 67, 0
3, 178944, Note_on_c, 2, 72, 45
3, 179104, Note_on_c, 2, 72, 0
3, 179136, Note_on_c, 2, 70, 48
3, 179184, Note_on_c, 2, 70, 0
3, 179328, Note_on_c, 2, 74, 51
3, 179376, Note_on_c, 2, 74, 0
3, 179520, Note_on_c, 2, 76, 54
3, 179872, Note_on_c, 2, 76, 0
3, 179904, Note_on_c, 2, 74, 60
3, 179952, Note_on_c, 2, 74, 0
3, 180096, Note_on_c, 2, 74, 63
3, 180144, Note_on_c, 2, 74, 0
3, 180288, Note_on_c, 2, 72, 66
3, 180480, Note_on_c, 2, 72, 0
3, 180480, Note_on_c, 2, 73, 69
3, 180672, Note_on_c, 2, 73, 0
3, 180672, Note_on_c, 2, 74, 72
3, 180864, Note_on_c, 2, 74, 0
3, 180864, Note_on_c, 2, 76, 76
3, 181056, Note_on_c, 2, 76, 0
3, 181056, Note_on_c, 2, 77, 80
3, 181248, Note_on_c, 2, 77, 0
3, 181248, Note_on_c, 2, 79, 84
3, 181440, Note_on_c, 2, 79, 0
3, 181440, Note_on_c, 2, 77, 88
3, 181488, Note_on_c, 2, 77, 0
3, 181632, Note_on_c, 2, 78, 92
3, 181824, Note_on_c, 2, 78, 0
3, 181824, Note_on_c, 2, 79, 92
3, 182016, Note_on_c, 2, 79, 0
3, 182016, Note_on_c, 2, 81, 92
3, 182208, Note_on_c, 2, 81, 0
3, 182208, Note_on_c, 2, 82, 92
3, 182400, Note_on_c, 2, 82, 0
3, 182400, Note_on_c, 2, 84, 92
3, 182560, Note_on_c, 2, 84, 0
3, 182592, Note_on_c, 2, 82, 92
3, 182784, Note_on_c, 2, 82, 0
3, 182784, Note_on_c, 2, 79, 92
3, 182976, Note_on_c, 2, 79, 0
3, 182976, Note_on_c, 2, 77, 92
3, 183168, Note_on_c, 2, 77, 0
3, 183168, Note_on_c, 2, 76, 92
3, 183216, Note_on_c, 2, 76, 0
3, 183360, Note_on_c, 2, 82, 92
3, 183552, Note_on_c, 2, 82, 0
3, 183552, Note_on_c, 2, 81, 92
3, 183744, Note_on_c, 2, 81, 0
3, 183744, Note_on_c, 2, 79, 92
3, 183936, Note_on_c, 2, 79, 0
3, 183936, Note_on_c, 2, 77, 92
3, 184128, Note_on_c, 2, 77, 0
3, 184128, Note_on_c, 2, 76, 92
3, 184320, Note_on_c, 2, 76, 0
3, 184320, Note_on_c, 2, 74, 92
3, 184512, Note_on_c, 2, 74, 0
3, 184512, Note_on_c, 2, 72, 92
3, 184704, Note_on_c, 2, 72, 0
3, 184704, Note_on_c, 2, 70, 92
3, 184896, Note_on_c, 2, 70, 0
3, 184896, Note_on_c, 2, 69, 92
3, 185088, Note_on_c, 2, 69, 0
3, 185088, Note_on_c, 2, 64, 92
3, 185280, Note_on_c, 2, 64, 0
3, 185280, Note_on_c, 2, 65, 92
3, 185472, Note_on_c, 2, 65, 0
3, 185472, Note_on_c, 2, 62, 92
3, 185664, Note_on_c, 2, 62, 0
3, 185664, Note_on_c, 2, 67, 92
3, 185824, Note_on_c, 2, 67, 0
3, 185856, Note_on_c, 2, 58, 92
3, 185904, Note_on_c, 2, 58, 0
3, 186048, Note_on_c, 2, 57, 108
3, 186096, Note_on_c, 2, 57, 0
3, 186240, Note_on_c, 2, 57, 92
3, 186288, Note_on_c, 2, 57, 0
3, 186432, Note_on_c, 2, 59, 127
3, 186480, Note_on_c, 2, 59, 0
3, 186624, Note_on_c, 2, 60, 92
3, 187152, Note_on_c, 2, 60, 0
3, 187200, Note_on_c, 2, 65, 92
3, 187248, Note_on_c, 2, 65, 0
3, 187392, Note_on_c, 2, 69, 92
3, 187440, Note_on_c, 2, 69, 0
3, 187584, Note_on_c, 2, 71, 127
3, 187632, Note_on_c, 2, 71, 0
3, 187776, Note_on_c, 2, 72, 92
3, 188512, Note_on_c, 2, 72, 0
3, 188544, Note_on_c, 2, 72, 127
3, 189088, Note_on_c, 2, 72, 0
3, 189120, Note_on_c, 2, 72, 127
3, 189664, Note_on_c, 2, 72, 0
3, 189696, Note_on_c, 2, 69, 92
3, 189744, Note_on_c, 2, 69, 0
3, 189888, Note_on_c, 2, 69, 92
3, 189936, Note_on_c, 2, 69, 0
3, 190080, Note_on_c, 2, 65, 92
3, 190128, Note_on_c, 2, 65, 0
3, 190128, End_track
4, 0, Start_track
4, 0, Title_t, "Viola."
4, 0, Program_c, 3, 48
4, 0, Control_c, 3, 7, 127
4, 0, Control_c, 3, 10, 64
4, 0, Note_on_c, 3, 57, 45
4, 528, Note_on_c, 3, 57, 0
4, 576, Note_on_c, 3, 55, 45
4, 912, Note_on_c, 3, 55, 0
4, 960, Note_on_c, 3, 60, 45
4, 1008, Note_on_c, 3, 60, 0
4, 1152, Note_on_c, 3, 58, 45
4, 1680, Note_on_c, 3, 58, 0
4, 1728, Note_on_c, 3, 57, 45
4, 2064, Note_on_c, 3, 57, 0
4, 2112, Note_on_c, 3, 62, 45
4, 2160, Note_on_c, 3, 62, 0
4, 2304, Note_on_c, 3, 60, 45
4, 2688, Note_on_c, 3, 60, 0
4, 2688, Note_on_c, 3, 64, 45
4, 3040, Note_on_c, 3, 64, 0
4, 3456, Note_on_c, 3, 65, 45
4, 4032, Note_on_c, 3, 65, 0
4, 4032, Note_on_c, 3, 64, 45
4, 4192, Note_on_c, 3, 64, 0
4, 4608, Note_on_c, 3, 55, 92
4, 4656, Note_on_c, 3, 55, 0
4, 4656, Note_on_c, 3, 53, 92
4, 4704, Note_on_c, 3, 53, 0
4, 4704, Note_on_c, 3, 55, 92
4, 4752, Note_on_c, 3, 55, 0
4, 4752, Note_on_c, 3, 53, 92
4, 4800, Note_on_c, 3, 53, 0
4, 4800, Note_on_c, 3, 55, 92
4, 4848, Note_on_c, 3, 55, 0
4, 4848, Note_on_c, 3, 53, 92
4, 4896, Note_on_c, 3, 53, 0
4, 4896, Note_on_c, 3, 55, 92
4, 4944, Note_on_c, 3, 55, 0
4, 4944, Note_on_c, 3, 53, 92
4, 4992, Note_on_c, 3, 53, 0
4, 4992, Note_on_c, 3, 55, 92
4, 5040, Note_on_c, 3, 55, 0
4, 5040, Note_on_c, 3, 53, 92
4, 5088, Note_on_c, 3, 53, 0
4, 5088, Note_on_c, 3, 52, 92
4, 5136, Note_on_c, 3, 52, 0
4, 5136, Note_on_c, 3, 53, 92
4, 5182, Note_on_c, 3, 53, 0
4, 5184, Note_on_c, 3, 52, 92
4, 5344, Note_on_c, 3, 52, 0
4, 5760, Note_on_c, 3, 57, 45
4, 6288, Note_on_c, 3, 57, 0
4, 6336, Note_on_c, 3, 55, 45
4, 6672, Note_on_c, 3, 55, 0
4, 6720, Note_on_c, 3, 60, 45
4, 6768, Note_on_c, 3, 60, 0
4, 6912, Note_on_c, 3, 58, 45
4, 7440, Note_on_c, 3, 58, 0
4, 7488, Note_on_c, 3, 57, 45
4, 7824, Note_on_c, 3, 57, 0
4, 7872, Note_on_c, 3, 62, 45
4, 7920, Note_on_c, 3, 62, 0
4, 8064, Note_on_c, 3, 60, 45
4, 8448, Note_on_c, 3, 60, 0
4, 8448, Note_on_c, 3, 64, 45
4, 8800, Note_on_c, 3, 64, 0
4, 9216, Note_on_c, 3, 65, 45
4, 9792, Note_on_c, 3, 65, 0
4, 9792, Note_on_c, 3, 64, 45
4, 9952, Note_on_c, 3, 64, 0
4, 10368, Note_on_c, 3, 55, 92
4, 10416, Note_on_c, 3, 55, 0
4, 10416, Note_on_c, 3, 53, 92
4, 10464, Note_on_c, 3, 53, 0
4, 10464, Note_on_c, 3, 55, 92
4, 10512, Note_on_c, 3, 55, 0
4, 10512, Note_on_c, 3, 53, 92
4, 10560, Note_on_c, 3, 53, 0
4, 10560, Note_on_c, 3, 55, 92
4, 10608, Note_on_c, 3, 55, 0
4, 10608, Note_on_c, 3, 53, 92
4, 10656, Note_on_c, 3, 53, 0
4, 10656, Note_on_c, 3, 55, 92
4, 10704, Note_on_c, 3, 55, 0
4, 10704, Note_on_c, 3, 53, 92
4, 10752, Note_on_c, 3, 53, 0
4, 10752, Note_on_c, 3, 55, 92
4, 10800, Note_on_c, 3, 55, 0
4, 10800, Note_on_c, 3, 53, 92
4, 10848, Note_on_c, 3, 53, 0
4, 10848, Note_on_c, 3, 52, 92
4, 10896, Note_on_c, 3, 52, 0
4, 10896, Note_on_c, 3, 53, 92
4, 10942, Note_on_c, 3, 53, 0
4, 10944, Note_on_c, 3, 52, 92
4, 11104, Note_on_c, 3, 52, 0
4, 11520, Note_on_c, 3, 63, 45
4, 11856, Note_on_c, 3, 63, 0
4, 11904, Note_on_c, 3, 63, 45
4, 12064, Note_on_c, 3, 63, 0
4, 12096, Note_on_c, 3, 63, 45
4, 12480, Note_on_c, 3, 63, 0
4, 12480, Note_on_c, 3, 58, 45
4, 12640, Note_on_c, 3, 58, 0
4, 12672, Note_on_c, 3, 58, 45
4, 12864, Note_on_c, 3, 58, 0
4, 12864, Note_on_c, 3, 56, 45
4, 13024, Note_on_c, 3, 56, 0
4, 13056, Note_on_c, 3, 56, 45
4, 13104, Note_on_c, 3, 56, 0
4, 13632, Note_on_c, 3, 60, 45
4, 13792, Note_on_c, 3, 60, 0
4, 13824, Note_on_c, 3, 60, 45
4, 14160, Note_on_c, 3, 60, 0
4, 14208, Note_on_c, 3, 60, 45
4, 14368, Note_on_c, 3, 60, 0
4, 14400, Note_on_c, 3, 60, 45
4, 14736, Note_on_c, 3, 60, 0
4, 14784, Note_on_c, 3, 60, 45
4, 14944, Note_on_c, 3, 60, 0
4, 14976, Note_on_c, 3, 61, 45
4, 15024, Note_on_c, 3, 61, 0
4, 15168, Note_on_c, 3, 65, 45
4, 15216, Note_on_c, 3, 65, 0
4, 15360, Note_on_c, 3, 66, 45
4, 15408, Note_on_c, 3, 66, 0
4, 15552, Note_on_c, 3, 68, 45
4, 15712, Note_on_c, 3, 68, 0
4, 16128, Note_on_c, 3, 63, 45
4, 16176, Note_on_c, 3, 63, 0
4, 16320, Note_on_c, 3, 66, 45
4, 16368, Note_on_c, 3, 66, 0
4, 16512, Note_on_c, 3, 68, 45
4, 16560, Note_on_c, 3, 68, 0
4, 16704, Note_on_c, 3, 70, 45
4, 16864, Note_on_c, 3, 70, 0
4, 17280, Note_on_c, 3, 65, 45
4, 17328, Note_on_c, 3, 65, 0
4, 17472, Note_on_c, 3, 68, 45
4, 17520, Note_on_c, 3, 68, 0
4, 17664, Note_on_c, 3, 70, 45
4, 17712, Note_on_c, 3, 70, 0
4, 17856, Note_on_c, 3, 72, 45
4, 18240, Note_on_c, 3, 72, 0
4, 18240, Note_on_c, 3, 70, 45
4, 18336, Note_on_c, 3, 70, 0
4, 18336, Note_on_c, 3, 68, 45
4, 18430, Note_on_c, 3, 68, 0
4, 18432, Note_on_c, 3, 67, 45
4, 18624, Note_on_c, 3, 67, 0
4, 18624, Note_on_c, 3, 65, 45
4, 18816, Note_on_c, 3, 65, 0
4, 18816, Note_on_c, 3, 64, 45
4, 19008, Note_on_c, 3, 64, 0
4, 19008, Note_on_c, 3, 65, 45
4, 19200, Note_on_c, 3, 65, 0
4, 19200, Note_on_c, 3, 61, 45
4, 19392, Note_on_c, 3, 61, 0
4, 19392, Note_on_c, 3, 59, 45
4, 19552, Note_on_c, 3, 59, 0
4, 19584, Note_on_c, 3, 60, 45
4, 19632, Note_on_c, 3, 60, 0
4, 19776, Note_on_c, 3, 72, 45
4, 19824, Note_on_c, 3, 72, 0
4, 20160, Note_on_c, 3, 60, 45
4, 20208, Note_on_c, 3, 60, 0
4, 20352, Note_on_c, 3, 72, 45
4, 20400, Note_on_c, 3, 72, 0
4, 20736, Note_on_c, 3, 60, 45
4, 20784, Note_on_c, 3, 60, 0
4, 20928, Note_on_c, 3, 72, 45
4, 20976, Note_on_c, 3, 72, 0
4, 21312, Note_on_c, 3, 60, 45
4, 21360, Note_on_c, 3, 60, 0
4, 21504, Note_on_c, 3, 72, 45
4, 21552, Note_on_c, 3, 72, 0
4, 21888, Note_on_c, 3, 64, 45
4, 22048, Note_on_c, 3, 64, 0
4, 22464, Note_on_c, 3, 52, 30
4, 22512, Note_on_c, 3, 52, 0
4, 22656, Note_on_c, 3, 60, 30
4, 22704, Note_on_c, 3, 60, 0
4, 22848, Note_on_c, 3, 62, 30
4, 22896, Note_on_c, 3, 62, 0
4, 23040, Note_on_c, 3, 64, 30
4, 23088, Note_on_c, 3, 64, 0
4, 23616, Note_on_c, 3, 58, 30
4, 23664, Note_on_c, 3, 58, 0
4, 23808, Note_on_c, 3, 55, 30
4, 23856, Note_on_c, 3, 55, 0
4, 24000, Note_on_c, 3, 53, 30
4, 24048, Note_on_c, 3, 53, 0
4, 24192, Note_on_c, 3, 52, 30
4, 24240, Note_on_c, 3, 52, 0
4, 24768, Note_on_c, 3, 70, 45
4, 24816, Note_on_c, 3, 70, 0
4, 24960, Note_on_c, 3, 67, 45
4, 25008, Note_on_c, 3, 67, 0
4, 25152, Note_on_c, 3, 65, 30
4, 25200, Note_on_c, 3, 65, 0
4, 25344, Note_on_c, 3, 64, 30
4, 25392, Note_on_c, 3, 64, 0
4, 26112, Note_on_c, 3, 60, 30
4, 26272, Note_on_c, 3, 60, 0
4, 26304, Note_on_c, 3, 60, 30
4, 26464, Note_on_c, 3, 60, 0
4, 26496, Note_on_c, 3, 60, 30
4, 26832, Note_on_c, 3, 60, 0
4, 26880, Note_on_c, 3, 62, 35
4, 27232, Note_on_c, 3, 62, 0
4, 27264, Note_on_c, 3, 60, 39
4, 27312, Note_on_c, 3, 60, 0
4, 27456, Note_on_c, 3, 62, 41
4, 27504, Note_on_c, 3, 62, 0
4, 27648, Note_on_c, 3, 62, 43
4, 27984, Note_on_c, 3, 62, 0
4, 28032, Note_on_c, 3, 64, 48
4, 28384, Note_on_c, 3, 64, 0
4, 28416, Note_on_c, 3, 62, 54
4, 28464, Note_on_c, 3, 62, 0
4, 28608, Note_on_c, 3, 64, 57
4, 28656, Note_on_c, 3, 64, 0
4, 28800, Note_on_c, 3, 64, 45
4, 29136, Note_on_c, 3, 64, 0
4, 29184, Note_on_c, 3, 64, 45
4, 29424, Note_on_c, 3, 64, 0
4, 29952, Note_on_c, 3, 65, 30
4, 30336, Note_on_c, 3, 65, 0
4, 30336, Note_on_c, 3, 69, 30
4, 30496, Note_on_c, 3, 69, 0
4, 30528, Note_on_c, 3, 69, 30
4, 30576, Note_on_c, 3, 69, 0
4, 31104, Note_on_c, 3, 69, 10
4, 31488, Note_on_c, 3, 69, 0
4, 31488, Note_on_c, 3, 72, 10
4, 31648, Note_on_c, 3, 72, 0
4, 31680, Note_on_c, 3, 72, 10
4, 31728, Note_on_c, 3, 72, 0
4, 32256, Note_on_c, 3, 70, 10
4, 32832, Note_on_c, 3, 70, 0
4, 32832, Note_on_c, 3, 69, 10
4, 32992, Note_on_c, 3, 69, 0
4, 33408, Note_on_c, 3, 60, 10
4, 33456, Note_on_c, 3, 60, 0
4, 33456, Note_on_c, 3, 58, 10
4, 33504, Note_on_c, 3, 58, 0
4, 33504, Note_on_c, 3, 60, 10
4, 33552, Note_on_c, 3, 60, 0
4, 33552, Note_on_c, 3, 58, 10
4, 33600, Note_on_c, 3, 58, 0
4, 33600, Note_on_c, 3, 60, 10
4, 33648, Note_on_c, 3, 60, 0
4, 33648, Note_on_c, 3, 58, 10
4, 33696, Note_on_c, 3, 58, 0
4, 33696, Note_on_c, 3, 60, 10
4, 33744, Note_on_c, 3, 60, 0
4, 33744, Note_on_c, 3, 58, 10
4, 33792, Note_on_c, 3, 58, 0
4, 33792, Note_on_c, 3, 60, 10
4, 33840, Note_on_c, 3, 60, 0
4, 33840, Note_on_c, 3, 58, 10
4, 33888, Note_on_c, 3, 58, 0
4, 33888, Note_on_c, 3, 57, 10
4, 33936, Note_on_c, 3, 57, 0
4, 33936, Note_on_c, 3, 58, 10
4, 33982, Note_on_c, 3, 58, 0
4, 33984, Note_on_c, 3, 57, 10
4, 34144, Note_on_c, 3, 57, 0
4, 34560, Note_on_c, 3, 57, 42
4, 34608, Note_on_c, 3, 57, 0
4, 34608, Note_on_c, 3, 55, 30
4, 34656, Note_on_c, 3, 55, 0
4, 34656, Note_on_c, 3, 57, 30
4, 34704, Note_on_c, 3, 57, 0
4, 34704, Note_on_c, 3, 55, 30
4, 34752, Note_on_c, 3, 55, 0
4, 34752, Note_on_c, 3, 57, 30
4, 34800, Note_on_c, 3, 57, 0
4, 34800, Note_on_c, 3, 55, 30
4, 34848, Note_on_c, 3, 55, 0
4, 34848, Note_on_c, 3, 57, 30
4, 34896, Note_on_c, 3, 57, 0
4, 34896, Note_on_c, 3, 55, 30
4, 34944, Note_on_c, 3, 55, 0
4, 34944, Note_on_c, 3, 57, 30
4, 34992, Note_on_c, 3, 57, 0
4, 34992, Note_on_c, 3, 55, 30
4, 35040, Note_on_c, 3, 55, 0
4, 35040, Note_on_c, 3, 53, 30
4, 35088, Note_on_c, 3, 53, 0
4, 35088, Note_on_c, 3, 55, 30
4, 35134, Note_on_c, 3, 55, 0
4, 35136, Note_on_c, 3, 53, 30
4, 35296, Note_on_c, 3, 53, 0
4, 35712, Note_on_c, 3, 57, 42
4, 35760, Note_on_c, 3, 57, 0
4, 35760, Note_on_c, 3, 55, 30
4, 35808, Note_on_c, 3, 55, 0
4, 35808, Note_on_c, 3, 57, 30
4, 35856, Note_on_c, 3, 57, 0
4, 35856, Note_on_c, 3, 55, 30
4, 35904, Note_on_c, 3, 55, 0
4, 35904, Note_on_c, 3, 57, 30
4, 35952, Note_on_c, 3, 57, 0
4, 35952, Note_on_c, 3, 55, 30
4, 36000, Note_on_c, 3, 55, 0
4, 36000, Note_on_c, 3, 57, 30
4, 36048, Note_on_c, 3, 57, 0
4, 36048, Note_on_c, 3, 55, 30
4, 36096, Note_on_c, 3, 55, 0
4, 36096, Note_on_c, 3, 57, 30
4, 36144, Note_on_c, 3, 57, 0
4, 36144, Note_on_c, 3, 55, 30
4, 36192, Note_on_c, 3, 55, 0
4, 36192, Note_on_c, 3, 53, 30
4, 36240, Note_on_c, 3, 53, 0
4, 36240, Note_on_c, 3, 55, 30
4, 36286, Note_on_c, 3, 55, 0
4, 36288, Note_on_c, 3, 53, 30
4, 36448, Note_on_c, 3, 53, 0
4, 36864, Note_on_c, 3, 57, 42
4, 36912, Note_on_c, 3, 57, 0
4, 36912, Note_on_c, 3, 55, 30
4, 36960, Note_on_c, 3, 55, 0
4, 36960, Note_on_c, 3, 57, 30
4, 37008, Note_on_c, 3, 57, 0
4, 37008, Note_on_c, 3, 55, 30
4, 37056, Note_on_c, 3, 55, 0
4, 37056, Note_on_c, 3, 57, 30
4, 37104, Note_on_c, 3, 57, 0
4, 37104, Note_on_c, 3, 55, 30
4, 37152, Note_on_c, 3, 55, 0
4, 37152, Note_on_c, 3, 57, 30
4, 37200, Note_on_c, 3, 57, 0
4, 37200, Note_on_c, 3, 55, 30
4, 37248, Note_on_c, 3, 55, 0
4, 37248, Note_on_c, 3, 57, 30
4, 37296, Note_on_c, 3, 57, 0
4, 37296, Note_on_c, 3, 55, 30
4, 37344, Note_on_c, 3, 55, 0
4, 37344, Note_on_c, 3, 53, 30
4, 37392, Note_on_c, 3, 53, 0
4, 37392, Note_on_c, 3, 55, 30
4, 37438, Note_on_c, 3, 55, 0
4, 37440, Note_on_c, 3, 53, 30
4, 37600, Note_on_c, 3, 53, 0
4, 38016, Note_on_c, 3, 48, 30
4, 38176, Note_on_c, 3, 48, 0
4, 38208, Note_on_c, 3, 66, 30
4, 38368, Note_on_c, 3, 66, 0
4, 38400, Note_on_c, 3, 66, 30
4, 38560, Note_on_c, 3, 66, 0
4, 38592, Note_on_c, 3, 67, 30
4, 38752, Note_on_c, 3, 67, 0
4, 38784, Note_on_c, 3, 62, 30
4, 38944, Note_on_c, 3, 62, 0
4, 38976, Note_on_c, 3, 62, 30
4, 39136, Note_on_c, 3, 62, 0
4, 39360, Note_on_c, 3, 58, 30
4, 39520, Note_on_c, 3, 58, 0
4, 39552, Note_on_c, 3, 58, 30
4, 39712, Note_on_c, 3, 58, 0
4, 39744, Note_on_c, 3, 57, 30
4, 39904, Note_on_c, 3, 57, 0
4, 40320, Note_on_c, 3, 48, 30
4, 40480, Note_on_c, 3, 48, 0
4, 40512, Note_on_c, 3, 66, 30
4, 40672, Note_on_c, 3, 66, 0
4, 40704, Note_on_c, 3, 66, 30
4, 40864, Note_on_c, 3, 66, 0
4, 40896, Note_on_c, 3, 67, 30
4, 41056, Note_on_c, 3, 67, 0
4, 41088, Note_on_c, 3, 62, 30
4, 41248, Note_on_c, 3, 62, 0
4, 41280, Note_on_c, 3, 62, 30
4, 41440, Note_on_c, 3, 62, 0
4, 41664, Note_on_c, 3, 58, 30
4, 41824, Note_on_c, 3, 58, 0
4, 41856, Note_on_c, 3, 58, 30
4, 42016, Note_on_c, 3, 58, 0
4, 42048, Note_on_c, 3, 57, 30
4, 42096, Note_on_c, 3, 57, 0
4, 42240, Note_on_c, 3, 60, 33
4, 42288, Note_on_c, 3, 60, 0
4, 42432, Note_on_c, 3, 62, 36
4, 42480, Note_on_c, 3, 62, 0
4, 42624, Note_on_c, 3, 64, 39
4, 43008, Note_on_c, 3, 64, 0
4, 43008, Note_on_c, 3, 62, 45
4, 43104, Note_on_c, 3, 62, 0
4, 43104, Note_on_c, 3, 60, 46
4, 43198, Note_on_c, 3, 60, 0
4, 43200, Note_on_c, 3, 62, 47
4, 43248, Note_on_c, 3, 62, 0
4, 43392, Note_on_c, 3, 70, 50
4, 43440, Note_on_c, 3, 70, 0
4, 43584, Note_on_c, 3, 69, 53
4, 43632, Note_on_c, 3, 69, 0
4, 43776, Note_on_c, 3, 69, 56
4, 44112, Note_on_c, 3, 69, 0
4, 44160, Note_on_c, 3, 64, 63
4, 44208, Note_on_c, 3, 64, 0
4, 44352, Note_on_c, 3, 64, 66
4, 44544, Note_on_c, 3, 64, 0
4, 44544, Note_on_c, 3, 69, 69
4, 44736, Note_on_c, 3, 69, 0
4, 44736, Note_on_c, 3, 71, 72
4, 44928, Note_on_c, 3, 71, 0
4, 44928, Note_on_c, 3, 73, 76
4, 45120, Note_on_c, 3, 73, 0
4, 45120, Note_on_c, 3, 74, 80
4, 45312, Note_on_c, 3, 74, 0
4, 45312, Note_on_c, 3, 76, 84
4, 45504, Note_on_c, 3, 76, 0
4, 45504, Note_on_c, 3, 74, 88
4, 45552, Note_on_c, 3, 74, 0
4, 45696, Note_on_c, 3, 63, 92
4, 45888, Note_on_c, 3, 63, 0
4, 45888, Note_on_c, 3, 62, 92
4, 46080, Note_on_c, 3, 62, 0
4, 46080, Note_on_c, 3, 60, 92
4, 46272, Note_on_c, 3, 60, 0
4, 46272, Note_on_c, 3, 58, 92
4, 46464, Note_on_c, 3, 58, 0
4, 46464, Note_on_c, 3, 57, 92
4, 46656, Note_on_c, 3, 57, 0
4, 46656, Note_on_c, 3, 58, 92
4, 46816, Note_on_c, 3, 58, 0
4, 46848, Note_on_c, 3, 70, 92
4, 47040, Note_on_c, 3, 70, 0
4, 47040, Note_on_c, 3, 71, 92
4, 47232, Note_on_c, 3, 71, 0
4, 47232, Note_on_c, 3, 72, 92
4, 47280, Note_on_c, 3, 72, 0
4, 47424, Note_on_c, 3, 52, 92
4, 47616, Note_on_c, 3, 52, 0
4, 47616, Note_on_c, 3, 53, 92
4, 47808, Note_on_c, 3, 53, 0
4, 47808, Note_on_c, 3, 55, 92
4, 48000, Note_on_c, 3, 55, 0
4, 48000, Note_on_c, 3, 57, 92
4, 48192, Note_on_c, 3, 57, 0
4, 48192, Note_on_c, 3, 58, 92
4, 48384, Note_on_c, 3, 58, 0
4, 48384, Note_on_c, 3, 60, 92
4, 48576, Note_on_c, 3, 60, 0
4, 48576, Note_on_c, 3, 62, 92
4, 48768, Note_on_c, 3, 62, 0
4, 48768, Note_on_c, 3, 64, 92
4, 48960, Note_on_c, 3, 64, 0
4, 48960, Note_on_c, 3, 65, 92
4, 49152, Note_on_c, 3, 65, 0
4, 49152, Note_on_c, 3, 60, 92
4, 49312, Note_on_c, 3, 60, 0
4, 49344, Note_on_c, 3, 60, 92
4, 49536, Note_on_c, 3, 60, 0
4, 49536, Note_on_c, 3, 58, 92
4, 49696, Note_on_c, 3, 58, 0
4, 49728, Note_on_c, 3, 58, 92
4, 49888, Note_on_c, 3, 58, 0
4, 49920, Note_on_c, 3, 55, 92
4, 49968, Note_on_c, 3, 55, 0
4, 50496, Note_on_c, 3, 56, 127
4, 50848, Note_on_c, 3, 56, 0
4, 50880, Note_on_c, 3, 55, 92
4, 50928, Note_on_c, 3, 55, 0
4, 51072, Note_on_c, 3, 52, 92
4, 51120, Note_on_c, 3, 52, 0
4, 51264, Note_on_c, 3, 57, 92
4, 51424, Note_on_c, 3, 57, 0
4, 51648, Note_on_c, 3, 56, 127
4, 52000, Note_on_c, 3, 56, 0
4, 52032, Note_on_c, 3, 55, 92
4, 52080, Note_on_c, 3, 55, 0
4, 52224, Note_on_c, 3, 52, 92
4, 52272, Note_on_c, 3, 52, 0
4, 52416, Note_on_c, 3, 57, 92
4, 52464, Note_on_c, 3, 57, 0
4, 52608, Note_on_c, 3, 55, 127
4, 52656, Note_on_c, 3, 55, 0
4, 52800, Note_on_c, 3, 52, 92
4, 52848, Note_on_c, 3, 52, 0
4, 52992, Note_on_c, 3, 57, 92
4, 53040, Note_on_c, 3, 57, 0
4, 53184, Note_on_c, 3, 67, 127
4, 53232, Note_on_c, 3, 67, 0
4, 53376, Note_on_c, 3, 64, 92
4, 53424, Note_on_c, 3, 64, 0
4, 53568, Note_on_c, 3, 69, 92
4, 53616, Note_on_c, 3, 69, 0
4, 53760, Note_on_c, 3, 60, 92
4, 53808, Note_on_c, 3, 60, 0
4, 53952, Note_on_c, 3, 60, 92
4, 54000, Note_on_c, 3, 60, 0
4, 54144, Note_on_c, 3, 57, 92
4, 54192, Note_on_c, 3, 57, 0
4, 54720, Note_on_c, 3, 63, 45
4, 55056, Note_on_c, 3, 63, 0
4, 55104, Note_on_c, 3, 63, 45
4, 55264, Note_on_c, 3, 63, 0
4, 55296, Note_on_c, 3, 63, 45
4, 55680, Note_on_c, 3, 63, 0
4, 55680, Note_on_c, 3, 58, 45
4, 55840, Note_on_c, 3, 58, 0
4, 55872, Note_on_c, 3, 58, 45
4, 56064, Note_on_c, 3, 58, 0
4, 56064, Note_on_c, 3, 56, 45
4, 56224, Note_on_c, 3, 56, 0
4, 56256, Note_on_c, 3, 56, 45
4, 56304, Note_on_c, 3, 56, 0
4, 56832, Note_on_c, 3, 60, 45
4, 56992, Note_on_c, 3, 60, 0
4, 57024, Note_on_c, 3, 60, 45
4, 57360, Note_on_c, 3, 60, 0
4, 57408, Note_on_c, 3, 60, 45
4, 57568, Note_on_c, 3, 60, 0
4, 57600, Note_on_c, 3, 60, 45
4, 57936, Note_on_c, 3, 60, 0
4, 57984, Note_on_c, 3, 60, 45
4, 58144, Note_on_c, 3, 60, 0
4, 58176, Note_on_c, 3, 61, 45
4, 58224, Note_on_c, 3, 61, 0
4, 58368, Note_on_c, 3, 65, 45
4, 58416, Note_on_c, 3, 65, 0
4, 58560, Note_on_c, 3, 66, 45
4, 58608, Note_on_c, 3, 66, 0
4, 58752, Note_on_c, 3, 68, 45
4, 58912, Note_on_c, 3, 68, 0
4, 59328, Note_on_c, 3, 63, 45
4, 59376, Note_on_c, 3, 63, 0
4, 59520, Note_on_c, 3, 66, 45
4, 59568, Note_on_c, 3, 66, 0
4, 59712, Note_on_c, 3, 68, 45
4, 59760, Note_on_c, 3, 68, 0
4, 59904, Note_on_c, 3, 70, 45
4, 60064, Note_on_c, 3, 70, 0
4, 60480, Note_on_c, 3, 65, 45
4, 60528, Note_on_c, 3, 65, 0
4, 60672, Note_on_c, 3, 68, 45
4, 60720, Note_on_c, 3, 68, 0
4, 60864, Note_on_c, 3, 70, 45
4, 60912, Note_on_c, 3, 70, 0
4, 61056, Note_on_c, 3, 72, 45
4, 61440, Note_on_c, 3, 72, 0
4, 61440, Note_on_c, 3, 70, 45
4, 61536, Note_on_c, 3, 70, 0
4, 61536, Note_on_c, 3, 68, 45
4, 61630, Note_on_c, 3, 68, 0
4, 61632, Note_on_c, 3, 67, 45
4, 61824, Note_on_c, 3, 67, 0
4, 61824, Note_on_c, 3, 65, 45
4, 62016, Note_on_c, 3, 65, 0
4, 62016, Note_on_c, 3, 64, 45
4, 62208, Note_on_c, 3, 64, 0
4, 62208, Note_on_c, 3, 65, 45
4, 62400, Note_on_c, 3, 65, 0
4, 62400, Note_on_c, 3, 61, 45
4, 62592, Note_on_c, 3, 61, 0
4, 62592, Note_on_c, 3, 59, 45
4, 62752, Note_on_c, 3, 59, 0
4, 62784, Note_on_c, 3, 60, 45
4, 62832, Note_on_c, 3, 60, 0
4, 62976, Note_on_c, 3, 72, 45
4, 63024, Note_on_c, 3, 72, 0
4, 63360, Note_on_c, 3, 60, 45
4, 63408, Note_on_c, 3, 60, 0
4, 63552, Note_on_c, 3, 72, 45
4, 63600, Note_on_c, 3, 72, 0
4, 63936, Note_on_c, 3, 60, 45
4, 63984, Note_on_c, 3, 60, 0
4, 64128, Note_on_c, 3, 72, 45
4, 64176, Note_on_c, 3, 72, 0
4, 64512, Note_on_c, 3, 60, 45
4, 64560, Note_on_c, 3, 60, 0
4, 64704, Note_on_c, 3, 72, 45
4, 64752, Note_on_c, 3, 72, 0
4, 65088, Note_on_c, 3, 64, 45
4, 65248, Note_on_c, 3, 64, 0
4, 65664, Note_on_c, 3, 52, 30
4, 65712, Note_on_c, 3, 52, 0
4, 65856, Note_on_c, 3, 60, 30
4, 65904, Note_on_c, 3, 60, 0
4, 66048, Note_on_c, 3, 62, 30
4, 66096, Note_on_c, 3, 62, 0
4, 66240, Note_on_c, 3, 64, 30
4, 66288, Note_on_c, 3, 64, 0
4, 66816, Note_on_c, 3, 58, 30
4, 66864, Note_on_c, 3, 58, 0
4, 67008, Note_on_c, 3, 55, 30
4, 67056, Note_on_c, 3, 55, 0
4, 67200, Note_on_c, 3, 53, 30
4, 67248, Note_on_c, 3, 53, 0
4, 67392, Note_on_c, 3, 52, 30
4, 67440, Note_on_c, 3, 52, 0
4, 67968, Note_on_c, 3, 70, 45
4, 68016, Note_on_c, 3, 70, 0
4, 68160, Note_on_c, 3, 67, 45
4, 68208, Note_on_c, 3, 67, 0
4, 68352, Note_on_c, 3, 65, 30
4, 68400, Note_on_c, 3, 65, 0
4, 68544, Note_on_c, 3, 64, 30
4, 68592, Note_on_c, 3, 64, 0
4, 69312, Note_on_c, 3, 60, 30
4, 69472, Note_on_c, 3, 60, 0
4, 69504, Note_on_c, 3, 60, 30
4, 69664, Note_on_c, 3, 60, 0
4, 69696, Note_on_c, 3, 60, 30
4, 70032, Note_on_c, 3, 60, 0
4, 70080, Note_on_c, 3, 62, 35
4, 70432, Note_on_c, 3, 62, 0
4, 70464, Note_on_c, 3, 60, 39
4, 70512, Note_on_c, 3, 60, 0
4, 70656, Note_on_c, 3, 62, 41
4, 70704, Note_on_c, 3, 62, 0
4, 70848, Note_on_c, 3, 62, 43
4, 71184, Note_on_c, 3, 62, 0
4, 71232, Note_on_c, 3, 64, 48
4, 71584, Note_on_c, 3, 64, 0
4, 71616, Note_on_c, 3, 62, 54
4, 71664, Note_on_c, 3, 62, 0
4, 71808, Note_on_c, 3, 64, 57
4, 71856, Note_on_c, 3, 64, 0
4, 72000, Note_on_c, 3, 64, 45
4, 72336, Note_on_c, 3, 64, 0
4, 72384, Note_on_c, 3, 64, 45
4, 72624, Note_on_c, 3, 64, 0
4, 73152, Note_on_c, 3, 65, 30
4, 73536, Note_on_c, 3, 65, 0
4, 73536, Note_on_c, 3, 69, 30
4, 73696, Note_on_c, 3, 69, 0
4, 73728, Note_on_c, 3, 69, 30
4, 73776, Note_on_c, 3, 69, 0
4, 74304, Note_on_c, 3, 69, 10
4, 74688, Note_on_c, 3, 69, 0
4, 74688, Note_on_c, 3, 72, 10
4, 74848, Note_on_c, 3, 72, 0
4, 74880, Note_on_c, 3, 72, 10
4, 74928, Note_on_c, 3, 72, 0
4, 75456, Note_on_c, 3, 70, 10
4, 76032, Note_on_c, 3, 70, 0
4, 76032, Note_on_c, 3, 69, 10
4, 76192, Note_on_c, 3, 69, 0
4, 76608, Note_on_c, 3, 60, 10
4, 76656, Note_on_c, 3, 60, 0
4, 76656, Note_on_c, 3, 58, 10
4, 76704, Note_on_c, 3, 58, 0
4, 76704, Note_on_c, 3, 60, 10
4, 76752, Note_on_c, 3, 60, 0
4, 76752, Note_on_c, 3, 58, 10
4, 76800, Note_on_c, 3, 58, 0
4, 76800, Note_on_c, 3, 60, 10
4, 76848, Note_on_c, 3, 60, 0
4, 76848, Note_on_c, 3, 58, 10
4, 76896, Note_on_c, 3, 58, 0
4, 76896, Note_on_c, 3, 60, 10
4, 76944, Note_on_c, 3, 60, 0
4, 76944, Note_on_c, 3, 58, 10
4, 76992, Note_on_c, 3, 58, 0
4, 76992, Note_on_c, 3, 60, 10
4, 77040, Note_on_c, 3, 60, 0
4, 77040, Note_on_c, 3, 58, 10
4, 77088, Note_on_c, 3, 58, 0
4, 77088, Note_on_c, 3, 57, 10
4, 77136, Note_on_c, 3, 57, 0
4, 77136, Note_on_c, 3, 58, 10
4, 77182, Note_on_c, 3, 58, 0
4, 77184, Note_on_c, 3, 57, 10
4, 77344, Note_on_c, 3, 57, 0
4, 77760, Note_on_c, 3, 57, 42
4, 77808, Note_on_c, 3, 57, 0
4, 77808, Note_on_c, 3, 55, 30
4, 77856, Note_on_c, 3, 55, 0
4, 77856, Note_on_c, 3, 57, 30
4, 77904, Note_on_c, 3, 57, 0
4, 77904, Note_on_c, 3, 55, 30
4, 77952, Note_on_c, 3, 55, 0
4, 77952, Note_on_c, 3, 57, 30
4, 78000, Note_on_c, 3, 57, 0
4, 78000, Note_on_c, 3, 55, 30
4, 78048, Note_on_c, 3, 55, 0
4, 78048, Note_on_c, 3, 57, 30
4, 78096, Note_on_c, 3, 57, 0
4, 78096, Note_on_c, 3, 55, 30
4, 78144, Note_on_c, 3, 55, 0
4, 78144, Note_on_c, 3, 57, 30
4, 78192, Note_on_c, 3, 57, 0
4, 78192, Note_on_c, 3, 55, 30
4, 78240, Note_on_c, 3, 55, 0
4, 78240, Note_on_c, 3, 53, 30
4, 78288, Note_on_c, 3, 53, 0
4, 78288, Note_on_c, 3, 55, 30
4, 78334, Note_on_c, 3, 55, 0
4, 78336, Note_on_c, 3, 53, 30
4, 78496, Note_on_c, 3, 53, 0
4, 78912, Note_on_c, 3, 57, 42
4, 78960, Note_on_c, 3, 57, 0
4, 78960, Note_on_c, 3, 55, 30
4, 79008, Note_on_c, 3, 55, 0
4, 79008, Note_on_c, 3, 57, 30
4, 79056, Note_on_c, 3, 57, 0
4, 79056, Note_on_c, 3, 55, 30
4, 79104, Note_on_c, 3, 55, 0
4, 79104, Note_on_c, 3, 57, 30
4, 79152, Note_on_c, 3, 57, 0
4, 79152, Note_on_c, 3, 55, 30
4, 79200, Note_on_c, 3, 55, 0
4, 79200, Note_on_c, 3, 57, 30
4, 79248, Note_on_c, 3, 57, 0
4, 79248, Note_on_c, 3, 55, 30
4, 79296, Note_on_c, 3, 55, 0
4, 79296, Note_on_c, 3, 57, 30
4, 79344, Note_on_c, 3, 57, 0
4, 79344, Note_on_c, 3, 55, 30
4, 79392, Note_on_c, 3, 55, 0
4, 79392, Note_on_c, 3, 53, 30
4, 79440, Note_on_c, 3, 53, 0
4, 79440, Note_on_c, 3, 55, 30
4, 79486, Note_on_c, 3, 55, 0
4, 79488, Note_on_c, 3, 53, 30
4, 79648, Note_on_c, 3, 53, 0
4, 80064, Note_on_c, 3, 57, 42
4, 80112, Note_on_c, 3, 57, 0
4, 80112, Note_on_c, 3, 55, 30
4, 80160, Note_on_c, 3, 55, 0
4, 80160, Note_on_c, 3, 57, 30
4, 80208, Note_on_c, 3, 57, 0
4, 80208, Note_on_c, 3, 55, 30
4, 80256, Note_on_c, 3, 55, 0
4, 80256, Note_on_c, 3, 57, 30
4, 80304, Note_on_c, 3, 57, 0
4, 80304, Note_on_c, 3, 55, 30
4, 80352, Note_on_c, 3, 55, 0
4, 80352, Note_on_c, 3, 57, 30
4, 80400, Note_on_c, 3, 57, 0
4, 80400, Note_on_c, 3, 55, 30
4, 80448, Note_on_c, 3, 55, 0
4, 80448, Note_on_c, 3, 57, 30
4, 80496, Note_on_c, 3, 57, 0
4, 80496, Note_on_c, 3, 55, 30
4, 80544, Note_on_c, 3, 55, 0
4, 80544, Note_on_c, 3, 53, 30
4, 80592, Note_on_c, 3, 53, 0
4, 80592, Note_on_c, 3, 55, 30
4, 80638, Note_on_c, 3, 55, 0
4, 80640, Note_on_c, 3, 53, 30
4, 80800, Note_on_c, 3, 53, 0
4, 81216, Note_on_c, 3, 48, 30
4, 81376, Note_on_c, 3, 48, 0
4, 81408, Note_on_c, 3, 66, 30
4, 81568, Note_on_c, 3, 66, 0
4, 81600, Note_on_c, 3, 66, 30
4, 81760, Note_on_c, 3, 66, 0
4, 81792, Note_on_c, 3, 67, 30
4, 81952, Note_on_c, 3, 67, 0
4, 81984, Note_on_c, 3, 62, 30
4, 82144, Note_on_c, 3, 62, 0
4, 82176, Note_on_c, 3, 62, 30
4, 82336, Note_on_c, 3, 62, 0
4, 82560, Note_on_c, 3, 58, 30
4, 82720, Note_on_c, 3, 58, 0
4, 82752, Note_on_c, 3, 58, 30
4, 82912, Note_on_c, 3, 58, 0
4, 82944, Note_on_c, 3, 57, 30
4, 83104, Note_on_c, 3, 57, 0
4, 83520, Note_on_c, 3, 48, 30
4, 83680, Note_on_c, 3, 48, 0
4, 83712, Note_on_c, 3, 66, 30
4, 83872, Note_on_c, 3, 66, 0
4, 83904, Note_on_c, 3, 66, 30
4, 84064, Note_on_c, 3, 66, 0
4, 84096, Note_on_c, 3, 67, 30
4, 84256, Note_on_c, 3, 67, 0
4, 84288, Note_on_c, 3, 62, 30
4, 84448, Note_on_c, 3, 62, 0
4, 84480, Note_on_c, 3, 62, 30
4, 84640, Note_on_c, 3, 62, 0
4, 84864, Note_on_c, 3, 58, 30
4, 85024, Note_on_c, 3, 58, 0
4, 85056, Note_on_c, 3, 58, 30
4, 85216, Note_on_c, 3, 58, 0
4, 85248, Note_on_c, 3, 57, 30
4, 85296, Note_on_c, 3, 57, 0
4, 85440, Note_on_c, 3, 60, 33
4, 85488, Note_on_c, 3, 60, 0
4, 85632, Note_on_c, 3, 62, 36
4, 85680, Note_on_c, 3, 62, 0
4, 85824, Note_on_c, 3, 64, 39
4, 86208, Note_on_c, 3, 64, 0
4, 86208, Note_on_c, 3, 62, 45
4, 86304, Note_on_c, 3, 62, 0
4, 86304, Note_on_c, 3, 60, 46
4, 86398, Note_on_c, 3, 60, 0
4, 86400, Note_on_c, 3, 62, 47
4, 86448, Note_on_c, 3, 62, 0
4, 86592, Note_on_c, 3, 70, 50
4, 86640, Note_on_c, 3, 70, 0
4, 86784, Note_on_c, 3, 69, 53
4, 86832, Note_on_c, 3, 69, 0
4, 86976, Note_on_c, 3, 69, 56
4, 87312, Note_on_c, 3, 69, 0
4, 87360, Note_on_c, 3, 64, 63
4, 87408, Note_on_c, 3, 64, 0
4, 87552, Note_on_c, 3, 64, 66
4, 87744, Note_on_c, 3, 64, 0
4, 87744, Note_on_c, 3, 69, 69
4, 87936, Note_on_c, 3, 69, 0
4, 87936, Note_on_c, 3, 71, 72
4, 88128, Note_on_c, 3, 71, 0
4, 88128, Note_on_c, 3, 73, 76
4, 88320, Note_on_c, 3, 73, 0
4, 88320, Note_on_c, 3, 74, 80
4, 88512, Note_on_c, 3, 74, 0
4, 88512, Note_on_c, 3, 76, 84
4, 88704, Note_on_c, 3, 76, 0
4, 88704, Note_on_c, 3, 74, 88
4, 88752, Note_on_c, 3, 74, 0
4, 88896, Note_on_c, 3, 63, 92
4, 89088, Note_on_c, 3, 63, 0
4, 89088, Note_on_c, 3, 62, 92
4, 89280, Note_on_c, 3, 62, 0
4, 89280, Note_on_c, 3, 60, 92
4, 89472, Note_on_c, 3, 60, 0
4, 89472, Note_on_c, 3, 58, 92
4, 89664, Note_on_c, 3, 58, 0
4, 89664, Note_on_c, 3, 57, 92
4, 89856, Note_on_c, 3, 57, 0
4, 89856, Note_on_c, 3, 58, 92
4, 90016, Note_on_c, 3, 58, 0
4, 90048, Note_on_c, 3, 70, 92
4, 90240, Note_on_c, 3, 70, 0
4, 90240, Note_on_c, 3, 71, 92
4, 90432, Note_on_c, 3, 71, 0
4, 90432, Note_on_c, 3, 72, 92
4, 90480, Note_on_c, 3, 72, 0
4, 90624, Note_on_c, 3, 52, 92
4, 90816, Note_on_c, 3, 52, 0
4, 90816, Note_on_c, 3, 53, 92
4, 91008, Note_on_c, 3, 53, 0
4, 91008, Note_on_c, 3, 55, 92
4, 91200, Note_on_c, 3, 55, 0
4, 91200, Note_on_c, 3, 57, 92
4, 91392, Note_on_c, 3, 57, 0
4, 91392, Note_on_c, 3, 58, 92
4, 91584, Note_on_c, 3, 58, 0
4, 91584, Note_on_c, 3, 60, 92
4, 91776, Note_on_c, 3, 60, 0
4, 91776, Note_on_c, 3, 62, 92
4, 91968, Note_on_c, 3, 62, 0
4, 91968, Note_on_c, 3, 64, 92
4, 92160, Note_on_c, 3, 64, 0
4, 92160, Note_on_c, 3, 65, 92
4, 92352, Note_on_c, 3, 65, 0
4, 92352, Note_on_c, 3, 60, 92
4, 92512, Note_on_c, 3, 60, 0
4, 92544, Note_on_c, 3, 60, 92
4, 92736, Note_on_c, 3, 60, 0
4, 92736, Note_on_c, 3, 58, 92
4, 92896, Note_on_c, 3, 58, 0
4, 92928, Note_on_c, 3, 58, 92
4, 93088, Note_on_c, 3, 58, 0
4, 93120, Note_on_c, 3, 55, 92
4, 93168, Note_on_c, 3, 55, 0
4, 93696, Note_on_c, 3, 56, 127
4, 94048, Note_on_c, 3, 56, 0
4, 94080, Note_on_c, 3, 55, 92
4, 94128, Note_on_c, 3, 55, 0
4, 94272, Note_on_c, 3, 52, 92
4, 94320, Note_on_c, 3, 52, 0
4, 94464, Note_on_c, 3, 57, 92
4, 94624, Note_on_c, 3, 57, 0
4, 94848, Note_on_c, 3, 56, 127
4, 95200, Note_on_c, 3, 56, 0
4, 95232, Note_on_c, 3, 55, 92
4, 95280, Note_on_c, 3, 55, 0
4, 95424, Note_on_c, 3, 52, 92
4, 95472, Note_on_c, 3, 52, 0
4, 95616, Note_on_c, 3, 57, 92
4, 95664, Note_on_c, 3, 57, 0
4, 95808, Note_on_c, 3, 55, 127
4, 95856, Note_on_c, 3, 55, 0
4, 96000, Note_on_c, 3, 52, 92
4, 96048, Note_on_c, 3, 52, 0
4, 96192, Note_on_c, 3, 57, 92
4, 96240, Note_on_c, 3, 57, 0
4, 96384, Note_on_c, 3, 67, 127
4, 96432, Note_on_c, 3, 67, 0
4, 96576, Note_on_c, 3, 64, 92
4, 96624, Note_on_c, 3, 64, 0
4, 96768, Note_on_c, 3, 69, 92
4, 96816, Note_on_c, 3, 69, 0
4, 96960, Note_on_c, 3, 60, 92
4, 97008, Note_on_c, 3, 60, 0
4, 97152, Note_on_c, 3, 60, 92
4, 97200, Note_on_c, 3, 60, 0
4, 97344, Note_on_c, 3, 57, 92
4, 97392, Note_on_c, 3, 57, 0
4, 97920, Note_on_c, 3, 60, 108
4, 97968, Note_on_c, 3, 60, 0
4, 98304, Note_on_c, 3, 48, 108
4, 98352, Note_on_c, 3, 48, 0
4, 98496, Note_on_c, 3, 60, 108
4, 98544, Note_on_c, 3, 60, 0
4, 98880, Note_on_c, 3, 48, 108
4, 98928, Note_on_c, 3, 48, 0
4, 99072, Note_on_c, 3, 60, 108
4, 99120, Note_on_c, 3, 60, 0
4, 99264, Note_on_c, 3, 48, 108
4, 99312, Note_on_c, 3, 48, 0
4, 99456, Note_on_c, 3, 60, 108
4, 99504, Note_on_c, 3, 60, 0
4, 99648, Note_on_c, 3, 48, 108
4, 99696, Note_on_c, 3, 48, 0
4, 99840, Note_on_c, 3, 60, 108
4, 99888, Note_on_c, 3, 60, 0
4, 100032, Note_on_c, 3, 48, 108
4, 100080, Note_on_c, 3, 48, 0
4, 100224, Note_on_c, 3, 49, 45
4, 100752, Note_on_c, 3, 49, 0
4, 100800, Note_on_c, 3, 61, 63
4, 102288, Note_on_c, 3, 61, 0
4, 102336, Note_on_c, 3, 60, 45
4, 102496, Note_on_c, 3, 60, 0
4, 102528, Note_on_c, 3, 61, 45
4, 103056, Note_on_c, 3, 61, 0
4, 103104, Note_on_c, 3, 61, 63
4, 104592, Note_on_c, 3, 61, 0
4, 104640, Note_on_c, 3, 60, 45
4, 104800, Note_on_c, 3, 60, 0
4, 104832, Note_on_c, 3, 61, 45
4, 104880, Note_on_c, 3, 61, 0
4, 106368, Note_on_c, 3, 48, 45
4, 106528, Note_on_c, 3, 48, 0
4, 106560, Note_on_c, 3, 53, 45
4, 106720, Note_on_c, 3, 53, 0
4, 107136, Note_on_c, 3, 60, 108
4, 107184, Note_on_c, 3, 60, 0
4, 107520, Note_on_c, 3, 48, 108
4, 107568, Note_on_c, 3, 48, 0
4, 107712, Note_on_c, 3, 60, 108
4, 107760, Note_on_c, 3, 60, 0
4, 108096, Note_on_c, 3, 48, 108
4, 108144, Note_on_c, 3, 48, 0
4, 108288, Note_on_c, 3, 60, 108
4, 108336, Note_on_c, 3, 60, 0
4, 108480, Note_on_c, 3, 48, 108
4, 108528, Note_on_c, 3, 48, 0
4, 108672, Note_on_c, 3, 60, 108
4, 108720, Note_on_c, 3, 60, 0
4, 108864, Note_on_c, 3, 48, 108
4, 108912, Note_on_c, 3, 48, 0
4, 109056, Note_on_c, 3, 60, 108
4, 109104, Note_on_c, 3, 60, 0
4, 109248, Note_on_c, 3, 48, 108
4, 109296, Note_on_c, 3, 48, 0
4, 109440, Note_on_c, 3, 49, 45
4, 109968, Note_on_c, 3, 49, 0
4, 110016, Note_on_c, 3, 61, 63
4, 111504, Note_on_c, 3, 61, 0
4, 111552, Note_on_c, 3, 60, 45
4, 111712, Note_on_c, 3, 60, 0
4, 111744, Note_on_c, 3, 61, 45
4, 112272, Note_on_c, 3, 61, 0
4, 112320, Note_on_c, 3, 61, 63
4, 113808, Note_on_c, 3, 61, 0
4, 113856, Note_on_c, 3, 60, 45
4, 114016, Note_on_c, 3, 60, 0
4, 114048, Note_on_c, 3, 61, 45
4, 114096, Note_on_c, 3, 61, 0
4, 115584, Note_on_c, 3, 48, 45
4, 115744, Note_on_c, 3, 48, 0
4, 115776, Note_on_c, 3, 53, 45
4, 115936, Note_on_c, 3, 53, 0
4, 116352, Note_on_c, 3, 65, 30
4, 116400, Note_on_c, 3, 65, 0
4, 116736, Note_on_c, 3, 53, 30
4, 116784, Note_on_c, 3, 53, 0
4, 116928, Note_on_c, 3, 65, 30
4, 116976, Note_on_c, 3, 65, 0
4, 117312, Note_on_c, 3, 53, 30
4, 117360, Note_on_c, 3, 53, 0
4, 117504, Note_on_c, 3, 65, 30
4, 117552, Note_on_c, 3, 65, 0
4, 117696, Note_on_c, 3, 53, 30
4, 117744, Note_on_c, 3, 53, 0
4, 117888, Note_on_c, 3, 65, 30
4, 117936, Note_on_c, 3, 65, 0
4, 118080, Note_on_c, 3, 53, 30
4, 118128, Note_on_c, 3, 53, 0
4, 118272, Note_on_c, 3, 65, 30
4, 118320, Note_on_c, 3, 65, 0
4, 118464, Note_on_c, 3, 53, 30
4, 118512, Note_on_c, 3, 53, 0
4, 118656, Note_on_c, 3, 65, 30
4, 120912, Note_on_c, 3, 65, 0
4, 120960, Note_on_c, 3, 67, 30
4, 121008, Note_on_c, 3, 67, 0
4, 121152, Note_on_c, 3, 55, 30
4, 121200, Note_on_c, 3, 55, 0
4, 121344, Note_on_c, 3, 67, 30
4, 121392, Note_on_c, 3, 67, 0
4, 122112, Note_on_c, 3, 65, 30
4, 122160, Note_on_c, 3, 65, 0
4, 122304, Note_on_c, 3, 53, 30
4, 122352, Note_on_c, 3, 53, 0
4, 122496, Note_on_c, 3, 65, 30
4, 122544, Note_on_c, 3, 65, 0
4, 123264, Note_on_c, 3, 60, 30
4, 123312, Note_on_c, 3, 60, 0
4, 123648, Note_on_c, 3, 48, 30
4, 123696, Note_on_c, 3, 48, 0
4, 123840, Note_on_c, 3, 60, 30
4, 123888, Note_on_c, 3, 60, 0
4, 124224, Note_on_c, 3, 48, 30
4, 124272, Note_on_c, 3, 48, 0
4, 124416, Note_on_c, 3, 60, 30
4, 124464, Note_on_c, 3, 60, 0
4, 124608, Note_on_c, 3, 48, 30
4, 124656, Note_on_c, 3, 48, 0
4, 124800, Note_on_c, 3, 60, 30
4, 124848, Note_on_c, 3, 60, 0
4, 124992, Note_on_c, 3, 48, 30
4, 125040, Note_on_c, 3, 48, 0
4, 125184, Note_on_c, 3, 60, 30
4, 125232, Note_on_c, 3, 60, 0
4, 125376, Note_on_c, 3, 48, 30
4, 125424, Note_on_c, 3, 48, 0
4, 125568, Note_on_c, 3, 60, 30
4, 125616, Note_on_c, 3, 60, 0
4, 125952, Note_on_c, 3, 48, 38
4, 126000, Note_on_c, 3, 48, 0
4, 126144, Note_on_c, 3, 60, 42
4, 126192, Note_on_c, 3, 60, 0
4, 126528, Note_on_c, 3, 48, 50
4, 126576, Note_on_c, 3, 48, 0
4, 126720, Note_on_c, 3, 60, 54
4, 126768, Note_on_c, 3, 60, 0
4, 126912, Note_on_c, 3, 48, 58
4, 126960, Note_on_c, 3, 48, 0
4, 127104, Note_on_c, 3, 60, 62
4, 127152, Note_on_c, 3, 60, 0
4, 127296, Note_on_c, 3, 49, 66
4, 127344, Note_on_c, 3, 49, 0
4, 127488, Note_on_c, 3, 61, 70
4, 127536, Note_on_c, 3, 61, 0
4, 127680, Note_on_c, 3, 49, 74
4, 127728, Note_on_c, 3, 49, 0
4, 127872, Note_on_c, 3, 50, 78
4, 128400, Note_on_c, 3, 50, 0
4, 128448, Note_on_c, 3, 50, 92
4, 128448, Note_on_c, 3, 55, 92
4, 129936, Note_on_c, 3, 55, 0
4, 129936, Note_on_c, 3, 50, 0
4, 129984, Note_on_c, 3, 50, 45
4, 129984, Note_on_c, 3, 57, 45
4, 130144, Note_on_c, 3, 57, 0
4, 130144, Note_on_c, 3, 50, 0
4, 130176, Note_on_c, 3, 50, 45
4, 130176, Note_on_c, 3, 55, 45
4, 130704, Note_on_c, 3, 55, 0
4, 130704, Note_on_c, 3, 50, 0
4, 130752, Note_on_c, 3, 50, 92
4, 130752, Note_on_c, 3, 55, 92
4, 132240, Note_on_c, 3, 55, 0
4, 132240, Note_on_c, 3, 50, 0
4, 132288, Note_on_c, 3, 50, 45
4, 132288, Note_on_c, 3, 57, 45
4, 132448, Note_on_c, 3, 57, 0
4, 132448, Note_on_c, 3, 50, 0
4, 132480, Note_on_c, 3, 50, 45
4, 133008, Note_on_c, 3, 50, 0
4, 133056, Note_on_c, 3, 50, 92
4, 134544, Note_on_c, 3, 50, 0
4, 134592, Note_on_c, 3, 52, 45
4, 134752, Note_on_c, 3, 52, 0
4, 134784, Note_on_c, 3, 50, 45
4, 135312, Note_on_c, 3, 50, 0
4, 135360, Note_on_c, 3, 50, 92
4, 136848, Note_on_c, 3, 50, 0
4, 136896, Note_on_c, 3, 52, 45
4, 137056, Note_on_c, 3, 52, 0
4, 137088, Note_on_c, 3, 48, 45
4, 137616, Note_on_c, 3, 48, 0
4, 137664, Note_on_c, 3, 48, 92
4, 139152, Note_on_c, 3, 48, 0
4, 139200, Note_on_c, 3, 60, 45
4, 139360, Note_on_c, 3, 60, 0
4, 139392, Note_on_c, 3, 48, 45
4, 139920, Note_on_c, 3, 48, 0
4, 139968, Note_on_c, 3, 48, 92
4, 140704, Note_on_c, 3, 48, 0
4, 141696, Note_on_c, 3, 57, 45
4, 142224, Note_on_c, 3, 57, 0
4, 142272, Note_on_c, 3, 55, 45
4, 142608, Note_on_c, 3, 55, 0
4, 142656, Note_on_c, 3, 60, 45
4, 142704, Note_on_c, 3, 60, 0
4, 142848, Note_on_c, 3, 58, 45
4, 143376, Note_on_c, 3, 58, 0
4, 143424, Note_on_c, 3, 57, 45
4, 143760, Note_on_c, 3, 57, 0
4, 143808, Note_on_c, 3, 62, 45
4, 143856, Note_on_c, 3, 62, 0
4, 144000, Note_on_c, 3, 60, 45
4, 144384, Note_on_c, 3, 60, 0
4, 144384, Note_on_c, 3, 64, 45
4, 144736, Note_on_c, 3, 64, 0
4, 145152, Note_on_c, 3, 65, 45
4, 145728, Note_on_c, 3, 65, 0
4, 145728, Note_on_c, 3, 64, 45
4, 145888, Note_on_c, 3, 64, 0
4, 146304, Note_on_c, 3, 55, 92
4, 146352, Note_on_c, 3, 55, 0
4, 146352, Note_on_c, 3, 53, 92
4, 146400, Note_on_c, 3, 53, 0
4, 146400, Note_on_c, 3, 55, 92
4, 146448, Note_on_c, 3, 55, 0
4, 146448, Note_on_c, 3, 53, 92
4, 146496, Note_on_c, 3, 53, 0
4, 146496, Note_on_c, 3, 55, 92
4, 146544, Note_on_c, 3, 55, 0
4, 146544, Note_on_c, 3, 53, 92
4, 146592, Note_on_c, 3, 53, 0
4, 146592, Note_on_c, 3, 55, 92
4, 146640, Note_on_c, 3, 55, 0
4, 146640, Note_on_c, 3, 53, 92
4, 146688, Note_on_c, 3, 53, 0
4, 146688, Note_on_c, 3, 55, 92
4, 146736, Note_on_c, 3, 55, 0
4, 146736, Note_on_c, 3, 53, 92
4, 146784, Note_on_c, 3, 53, 0
4, 146784, Note_on_c, 3, 52, 92
4, 146832, Note_on_c, 3, 52, 0
4, 146832, Note_on_c, 3, 53, 92
4, 146878, Note_on_c, 3, 53, 0
4, 146880, Note_on_c, 3, 52, 92
4, 147040, Note_on_c, 3, 52, 0
4, 147456, Note_on_c, 3, 63, 45
4, 147792, Note_on_c, 3, 63, 0
4, 147840, Note_on_c, 3, 63, 45
4, 148000, Note_on_c, 3, 63, 0
4, 148032, Note_on_c, 3, 63, 45
4, 148416, Note_on_c, 3, 63, 0
4, 148416, Note_on_c, 3, 58, 45
4, 148576, Note_on_c, 3, 58, 0
4, 148608, Note_on_c, 3, 58, 45
4, 148800, Note_on_c, 3, 58, 0
4, 148800, Note_on_c, 3, 56, 45
4, 148960, Note_on_c, 3, 56, 0
4, 148992, Note_on_c, 3, 56, 45
4, 149040, Note_on_c, 3, 56, 0
4, 149568, Note_on_c, 3, 60, 45
4, 149728, Note_on_c, 3, 60, 0
4, 149760, Note_on_c, 3, 60, 45
4, 150096, Note_on_c, 3, 60, 0
4, 150144, Note_on_c, 3, 60, 45
4, 150304, Note_on_c, 3, 60, 0
4, 150336, Note_on_c, 3, 60, 45
4, 150672, Note_on_c, 3, 60, 0
4, 150720, Note_on_c, 3, 60, 45
4, 150880, Note_on_c, 3, 60, 0
4, 150912, Note_on_c, 3, 61, 45
4, 150960, Note_on_c, 3, 61, 0
4, 151104, Note_on_c, 3, 65, 45
4, 151152, Note_on_c, 3, 65, 0
4, 151296, Note_on_c, 3, 66, 45
4, 151344, Note_on_c, 3, 66, 0
4, 151488, Note_on_c, 3, 68, 45
4, 151648, Note_on_c, 3, 68, 0
4, 152064, Note_on_c, 3, 63, 45
4, 152112, Note_on_c, 3, 63, 0
4, 152256, Note_on_c, 3, 66, 45
4, 152304, Note_on_c, 3, 66, 0
4, 152448, Note_on_c, 3, 68, 45
4, 152496, Note_on_c, 3, 68, 0
4, 152640, Note_on_c, 3, 70, 45
4, 152800, Note_on_c, 3, 70, 0
4, 153216, Note_on_c, 3, 65, 45
4, 153264, Note_on_c, 3, 65, 0
4, 153408, Note_on_c, 3, 68, 45
4, 153456, Note_on_c, 3, 68, 0
4, 153600, Note_on_c, 3, 70, 45
4, 153648, Note_on_c, 3, 70, 0
4, 153792, Note_on_c, 3, 72, 45
4, 154176, Note_on_c, 3, 72, 0
4, 154176, Note_on_c, 3, 70, 45
4, 154272, Note_on_c, 3, 70, 0
4, 154272, Note_on_c, 3, 68, 45
4, 154366, Note_on_c, 3, 68, 0
4, 154368, Note_on_c, 3, 67, 45
4, 154560, Note_on_c, 3, 67, 0
4, 154560, Note_on_c, 3, 65, 45
4, 154752, Note_on_c, 3, 65, 0
4, 154752, Note_on_c, 3, 64, 45
4, 154944, Note_on_c, 3, 64, 0
4, 154944, Note_on_c, 3, 65, 45
4, 155136, Note_on_c, 3, 65, 0
4, 155136, Note_on_c, 3, 61, 45
4, 155328, Note_on_c, 3, 61, 0
4, 155328, Note_on_c, 3, 59, 45
4, 155488, Note_on_c, 3, 59, 0
4, 155520, Note_on_c, 3, 60, 45
4, 155568, Note_on_c, 3, 60, 0
4, 155712, Note_on_c, 3, 72, 45
4, 155760, Note_on_c, 3, 72, 0
4, 156096, Note_on_c, 3, 60, 45
4, 156144, Note_on_c, 3, 60, 0
4, 156288, Note_on_c, 3, 72, 45
4, 156336, Note_on_c, 3, 72, 0
4, 156672, Note_on_c, 3, 60, 45
4, 156720, Note_on_c, 3, 60, 0
4, 156864, Note_on_c, 3, 72, 45
4, 156912, Note_on_c, 3, 72, 0
4, 157248, Note_on_c, 3, 60, 45
4, 157296, Note_on_c, 3, 60, 0
4, 157440, Note_on_c, 3, 72, 45
4, 157488, Note_on_c, 3, 72, 0
4, 157824, Note_on_c, 3, 64, 45
4, 157984, Note_on_c, 3, 64, 0
4, 158400, Note_on_c, 3, 52, 30
4, 158448, Note_on_c, 3, 52, 0
4, 158592, Note_on_c, 3, 60, 30
4, 158640, Note_on_c, 3, 60, 0
4, 158784, Note_on_c, 3, 62, 30
4, 158832, Note_on_c, 3, 62, 0
4, 158976, Note_on_c, 3, 64, 30
4, 159024, Note_on_c, 3, 64, 0
4, 159552, Note_on_c, 3, 58, 30
4, 159600, Note_on_c, 3, 58, 0
4, 159744, Note_on_c, 3, 55, 30
4, 159792, Note_on_c, 3, 55, 0
4, 159936, Note_on_c, 3, 53, 30
4, 159984, Note_on_c, 3, 53, 0
4, 160128, Note_on_c, 3, 52, 30
4, 160176, Note_on_c, 3, 52, 0
4, 160704, Note_on_c, 3, 70, 45
4, 160752, Note_on_c, 3, 70, 0
4, 160896, Note_on_c, 3, 67, 45
4, 160944, Note_on_c, 3, 67, 0
4, 161088, Note_on_c, 3, 65, 30
4, 161136, Note_on_c, 3, 65, 0
4, 161280, Note_on_c, 3, 64, 30
4, 161328, Note_on_c, 3, 64, 0
4, 162048, Note_on_c, 3, 60, 30
4, 162208, Note_on_c, 3, 60, 0
4, 162240, Note_on_c, 3, 60, 30
4, 162400, Note_on_c, 3, 60, 0
4, 162432, Note_on_c, 3, 60, 30
4, 162768, Note_on_c, 3, 60, 0
4, 162816, Note_on_c, 3, 62, 35
4, 163168, Note_on_c, 3, 62, 0
4, 163200, Note_on_c, 3, 60, 39
4, 163248, Note_on_c, 3, 60, 0
4, 163392, Note_on_c, 3, 62, 41
4, 163440, Note_on_c, 3, 62, 0
4, 163584, Note_on_c, 3, 62, 43
4, 163920, Note_on_c, 3, 62, 0
4, 163968, Note_on_c, 3, 64, 48
4, 164320, Note_on_c, 3, 64, 0
4, 164352, Note_on_c, 3, 62, 54
4, 164400, Note_on_c, 3, 62, 0
4, 164544, Note_on_c, 3, 64, 57
4, 164592, Note_on_c, 3, 64, 0
4, 164736, Note_on_c, 3, 64, 45
4, 165072, Note_on_c, 3, 64, 0
4, 165120, Note_on_c, 3, 64, 45
4, 165360, Note_on_c, 3, 64, 0
4, 165888, Note_on_c, 3, 65, 30
4, 166272, Note_on_c, 3, 65, 0
4, 166272, Note_on_c, 3, 69, 30
4, 166432, Note_on_c, 3, 69, 0
4, 166464, Note_on_c, 3, 69, 30
4, 166512, Note_on_c, 3, 69, 0
4, 167040, Note_on_c, 3, 69, 10
4, 167424, Note_on_c, 3, 69, 0
4, 167424, Note_on_c, 3, 72, 10
4, 167584, Note_on_c, 3, 72, 0
4, 167616, Note_on_c, 3, 72, 10
4, 167664, Note_on_c, 3, 72, 0
4, 168192, Note_on_c, 3, 70, 10
4, 168768, Note_on_c, 3, 70, 0
4, 168768, Note_on_c, 3, 69, 10
4, 168928, Note_on_c, 3, 69, 0
4, 169344, Note_on_c, 3, 60, 10
4, 169392, Note_on_c, 3, 60, 0
4, 169392, Note_on_c, 3, 58, 10
4, 169440, Note_on_c, 3, 58, 0
4, 169440, Note_on_c, 3, 60, 10
4, 169488, Note_on_c, 3, 60, 0
4, 169488, Note_on_c, 3, 58, 10
4, 169536, Note_on_c, 3, 58, 0
4, 169536, Note_on_c, 3, 60, 10
4, 169584, Note_on_c, 3, 60, 0
4, 169584, Note_on_c, 3, 58, 10
4, 169632, Note_on_c, 3, 58, 0
4, 169632, Note_on_c, 3, 60, 10
4, 169680, Note_on_c, 3, 60, 0
4, 169680, Note_on_c, 3, 58, 10
4, 169728, Note_on_c, 3, 58, 0
4, 169728, Note_on_c, 3, 60, 10
4, 169776, Note_on_c, 3, 60, 0
4, 169776, Note_on_c, 3, 58, 10
4, 169824, Note_on_c, 3, 58, 0
4, 169824, Note_on_c, 3, 57, 10
4, 169872, Note_on_c, 3, 57, 0
4, 169872, Note_on_c, 3, 58, 10
4, 169918, Note_on_c, 3, 58, 0
4, 169920, Note_on_c, 3, 57, 10
4, 170080, Note_on_c, 3, 57, 0
4, 170496, Note_on_c, 3, 57, 42
4, 170544, Note_on_c, 3, 57, 0
4, 170544, Note_on_c, 3, 55, 30
4, 170592, Note_on_c, 3, 55, 0
4, 170592, Note_on_c, 3, 57, 30
4, 170640, Note_on_c, 3, 57, 0
4, 170640, Note_on_c, 3, 55, 30
4, 170688, Note_on_c, 3, 55, 0
4, 170688, Note_on_c, 3, 57, 30
4, 170736, Note_on_c, 3, 57, 0
4, 170736, Note_on_c, 3, 55, 30
4, 170784, Note_on_c, 3, 55, 0
4, 170784, Note_on_c, 3, 57, 30
4, 170832, Note_on_c, 3, 57, 0
4, 170832, Note_on_c, 3, 55, 30
4, 170880, Note_on_c, 3, 55, 0
4, 170880, Note_on_c, 3, 57, 30
4, 170928, Note_on_c, 3, 57, 0
4, 170928, Note_on_c, 3, 55, 30
4, 170976, Note_on_c, 3, 55, 0
4, 170976, Note_on_c, 3, 53, 30
4, 171024, Note_on_c, 3, 53, 0
4, 171024, Note_on_c, 3, 55, 30
4, 171070, Note_on_c, 3, 55, 0
4, 171072, Note_on_c, 3, 53, 30
4, 171232, Note_on_c, 3, 53, 0
4, 171648, Note_on_c, 3, 57, 42
4, 171696, Note_on_c, 3, 57, 0
4, 171696, Note_on_c, 3, 55, 30
4, 171744, Note_on_c, 3, 55, 0
4, 171744, Note_on_c, 3, 57, 30
4, 171792, Note_on_c, 3, 57, 0
4, 171792, Note_on_c, 3, 55, 30
4, 171840, Note_on_c, 3, 55, 0
4, 171840, Note_on_c, 3, 57, 30
4, 171888, Note_on_c, 3, 57, 0
4, 171888, Note_on_c, 3, 55, 30
4, 171936, Note_on_c, 3, 55, 0
4, 171936, Note_on_c, 3, 57, 30
4, 171984, Note_on_c, 3, 57, 0
4, 171984, Note_on_c, 3, 55, 30
4, 172032, Note_on_c, 3, 55, 0
4, 172032, Note_on_c, 3, 57, 30
4, 172080, Note_on_c, 3, 57, 0
4, 172080, Note_on_c, 3, 55, 30
4, 172128, Note_on_c, 3, 55, 0
4, 172128, Note_on_c, 3, 53, 30
4, 172176, Note_on_c, 3, 53, 0
4, 172176, Note_on_c, 3, 55, 30
4, 172222, Note_on_c, 3, 55, 0
4, 172224, Note_on_c, 3, 53, 30
4, 172384, Note_on_c, 3, 53, 0
4, 172800, Note_on_c, 3, 57, 42
4, 172848, Note_on_c, 3, 57, 0
4, 172848, Note_on_c, 3, 55, 30
4, 172896, Note_on_c, 3, 55, 0
4, 172896, Note_on_c, 3, 57, 30
4, 172944, Note_on_c, 3, 57, 0
4, 172944, Note_on_c, 3, 55, 30
4, 172992, Note_on_c, 3, 55, 0
4, 172992, Note_on_c, 3, 57, 30
4, 173040, Note_on_c, 3, 57, 0
4, 173040, Note_on_c, 3, 55, 30
4, 173088, Note_on_c, 3, 55, 0
4, 173088, Note_on_c, 3, 57, 30
4, 173136, Note_on_c, 3, 57, 0
4, 173136, Note_on_c, 3, 55, 30
4, 173184, Note_on_c, 3, 55, 0
4, 173184, Note_on_c, 3, 57, 30
4, 173232, Note_on_c, 3, 57, 0
4, 173232, Note_on_c, 3, 55, 30
4, 173280, Note_on_c, 3, 55, 0
4, 173280, Note_on_c, 3, 53, 30
4, 173328, Note_on_c, 3, 53, 0
4, 173328, Note_on_c, 3, 55, 30
4, 173374, Note_on_c, 3, 55, 0
4, 173376, Note_on_c, 3, 53, 30
4, 173536, Note_on_c, 3, 53, 0
4, 173952, Note_on_c, 3, 48, 30
4, 174112, Note_on_c, 3, 48, 0
4, 174144, Note_on_c, 3, 66, 30
4, 174304, Note_on_c, 3, 66, 0
4, 174336, Note_on_c, 3, 66, 30
4, 174496, Note_on_c, 3, 66, 0
4, 174528, Note_on_c, 3, 67, 30
4, 174688, Note_on_c, 3, 67, 0
4, 174720, Note_on_c, 3, 62, 30
4, 174880, Note_on_c, 3, 62, 0
4, 174912, Note_on_c, 3, 62, 30
4, 175072, Note_on_c, 3, 62, 0
4, 175296, Note_on_c, 3, 58, 30
4, 175456, Note_on_c, 3, 58, 0
4, 175488, Note_on_c, 3, 58, 30
4, 175648, Note_on_c, 3, 58, 0
4, 175680, Note_on_c, 3, 57, 30
4, 175840, Note_on_c, 3, 57, 0
4, 176256, Note_on_c, 3, 48, 30
4, 176416, Note_on_c, 3, 48, 0
4, 176448, Note_on_c, 3, 66, 30
4, 176608, Note_on_c, 3, 66, 0
4, 176640, Note_on_c, 3, 66, 30
4, 176800, Note_on_c, 3, 66, 0
4, 176832, Note_on_c, 3, 67, 30
4, 176992, Note_on_c, 3, 67, 0
4, 177024, Note_on_c, 3, 62, 30
4, 177184, Note_on_c, 3, 62, 0
4, 177216, Note_on_c, 3, 62, 30
4, 177376, Note_on_c, 3, 62, 0
4, 177600, Note_on_c, 3, 58, 30
4, 177760, Note_on_c, 3, 58, 0
4, 177792, Note_on_c, 3, 58, 30
4, 177952, Note_on_c, 3, 58, 0
4, 177984, Note_on_c, 3, 57, 30
4, 178032, Note_on_c, 3, 57, 0
4, 178176, Note_on_c, 3, 60, 33
4, 178224, Note_on_c, 3, 60, 0
4, 178368, Note_on_c, 3, 62, 36
4, 178416, Note_on_c, 3, 62, 0
4, 178560, Note_on_c, 3, 64, 39
4, 178944, Note_on_c, 3, 64, 0
4, 178944, Note_on_c, 3, 62, 45
4, 179040, Note_on_c, 3, 62, 0
4, 179040, Note_on_c, 3, 60, 46
4, 179134, Note_on_c, 3, 60, 0
4, 179136, Note_on_c, 3, 62, 47
4, 179184, Note_on_c, 3, 62, 0
4, 179328, Note_on_c, 3, 70, 50
4, 179376, Note_on_c, 3, 70, 0
4, 179520, Note_on_c, 3, 69, 53
4, 179568, Note_on_c, 3, 69, 0
4, 179712, Note_on_c, 3, 69, 56
4, 180048, Note_on_c, 3, 69, 0
4, 180096, Note_on_c, 3, 64, 63
4, 180144, Note_on_c, 3, 64, 0
4, 180288, Note_on_c, 3, 64, 66
4, 180480, Note_on_c, 3, 64, 0
4, 180480, Note_on_c, 3, 69, 69
4, 180672, Note_on_c, 3, 69, 0
4, 180672, Note_on_c, 3, 71, 72
4, 180864, Note_on_c, 3, 71, 0
4, 180864, Note_on_c, 3, 73, 76
4, 181056, Note_on_c, 3, 73, 0
4, 181056, Note_on_c, 3, 74, 80
4, 181248, Note_on_c, 3, 74, 0
4, 181248, Note_on_c, 3, 76, 84
4, 181440, Note_on_c, 3, 76, 0
4, 181440, Note_on_c, 3, 74, 88
4, 181488, Note_on_c, 3, 74, 0
4, 181632, Note_on_c, 3, 63, 92
4, 181824, Note_on_c, 3, 63, 0
4, 181824, Note_on_c, 3, 62, 92
4, 182016, Note_on_c, 3, 62, 0
4, 182016, Note_on_c, 3, 60, 92
4, 182208, Note_on_c, 3, 60, 0
4, 182208, Note_on_c, 3, 58, 92
4, 182400, Note_on_c, 3, 58, 0
4, 182400, Note_on_c, 3, 57, 92
4, 182592, Note_on_c, 3, 57, 0
4, 182592, Note_on_c, 3, 58, 92
4, 182752, Note_on_c, 3, 58, 0
4, 182784, Note_on_c, 3, 70, 92
4, 182976, Note_on_c, 3, 70, 0
4, 182976, Note_on_c, 3, 71, 92
4, 183168, Note_on_c, 3, 71, 0
4, 183168, Note_on_c, 3, 72, 92
4, 183216, Note_on_c, 3, 72, 0
4, 183360, Note_on_c, 3, 52, 92
4, 183552, Note_on_c, 3, 52, 0
4, 183552, Note_on_c, 3, 53, 92
4, 183744, Note_on_c, 3, 53, 0
4, 183744, Note_on_c, 3, 55, 92
4, 183936, Note_on_c, 3, 55, 0
4, 183936, Note_on_c, 3, 57, 92
4, 184128, Note_on_c, 3, 57, 0
4, 184128, Note_on_c, 3, 58, 92
4, 184320, Note_on_c, 3, 58, 0
4, 184320, Note_on_c, 3, 60, 92
4, 184512, Note_on_c, 3, 60, 0
4, 184512, Note_on_c, 3, 62, 92
4, 184704, Note_on_c, 3, 62, 0
4, 184704, Note_on_c, 3, 64, 92
4, 184896, Note_on_c, 3, 64, 0
4, 184896, Note_on_c, 3, 65, 92
4, 185088, Note_on_c, 3, 65, 0
4, 185088, Note_on_c, 3, 60, 92
4, 185248, Note_on_c, 3, 60, 0
4, 185280, Note_on_c, 3, 60, 92
4, 185472, Note_on_c, 3, 60, 0
4, 185472, Note_on_c, 3, 58, 92
4, 185632, Note_on_c, 3, 58, 0
4, 185664, Note_on_c, 3, 58, 92
4, 185824, Note_on_c, 3, 58, 0
4, 185856, Note_on_c, 3, 55, 92
4, 185904, Note_on_c, 3, 55, 0
4, 186432, Note_on_c, 3, 56, 127
4, 186784, Note_on_c, 3, 56, 0
4, 186816, Note_on_c, 3, 55, 92
4, 186864, Note_on_c, 3, 55, 0
4, 187008, Note_on_c, 3, 52, 92
4, 187056, Note_on_c, 3, 52, 0
4, 187200, Note_on_c, 3, 57, 92
4, 187360, Note_on_c, 3, 57, 0
4, 187584, Note_on_c, 3, 56, 127
4, 187936, Note_on_c, 3, 56, 0
4, 187968, Note_on_c, 3, 55, 92
4, 188016, Note_on_c, 3, 55, 0
4, 188160, Note_on_c, 3, 52, 92
4, 188208, Note_on_c, 3, 52, 0
4, 188352, Note_on_c, 3, 57, 92
4, 188400, Note_on_c, 3, 57, 0
4, 188544, Note_on_c, 3, 55, 127
4, 188592, Note_on_c, 3, 55, 0
4, 188736, Note_on_c, 3, 52, 92
4, 188784, Note_on_c, 3, 52, 0
4, 188928, Note_on_c, 3, 57, 92
4, 188976, Note_on_c, 3, 57, 0
4, 189120, Note_on_c, 3, 67, 127
4, 189168, Note_on_c, 3, 67, 0
4, 189312, Note_on_c, 3, 64, 92
4, 189360, Note_on_c, 3, 64, 0
4, 189504, Note_on_c, 3, 69, 92
4, 189552, Note_on_c, 3, 69, 0
4, 189696, Note_on_c, 3, 60, 92
4, 189744, Note_on_c, 3, 60, 0
4, 189888, Note_on_c, 3, 60, 92
4, 189936, Note_on_c, 3, 60, 0
4, 190080, Note_on_c, 3, 57, 92
4, 190128, Note_on_c, 3, 57, 0
4, 190128, End_track
5, 0, Start_track
5, 0, Title_t, "Violoncello."
5, 0, Program_c, 4, 48
5, 0, Control_c, 4, 7, 127
5, 0, Control_c, 4, 10, 64
5, 0, Note_on_c, 4, 41, 45
5, 48, Note_on_c, 4, 41, 0
5, 192, Note_on_c, 4, 45, 45
5, 240, Note_on_c, 4, 45, 0
5, 384, Note_on_c, 4, 46, 45
5, 432, Note_on_c, 4, 46, 0
5, 576, Note_on_c, 4, 48, 45
5, 960, Note_on_c, 4, 48, 0
5, 960, Note_on_c, 4, 46, 45
5, 1056, Note_on_c, 4, 46, 0
5, 1056, Note_on_c, 4, 45, 45
5, 1150, Note_on_c, 4, 45, 0
5, 1152, Note_on_c, 4, 43, 45
5, 1200, Note_on_c, 4, 43, 0
5, 1344, Note_on_c, 4, 46, 45
5, 1392, Note_on_c, 4, 46, 0
5, 1536, Note_on_c, 4, 48, 45
5, 1584, Note_on_c, 4, 48, 0
5, 1728, Note_on_c, 4, 50, 45
5, 2112, Note_on_c, 4, 50, 0
5, 2112, Note_on_c, 4, 48, 45
5, 2208, Note_on_c, 4, 48, 0
5, 2208, Note_on_c, 4, 47, 45
5, 2302, Note_on_c, 4, 47, 0
5, 2304, Note_on_c, 4, 45, 45
5, 2496, Note_on_c, 4, 45, 0
5, 2496, Note_on_c, 4, 48, 45
5, 2688, Note_on_c, 4, 48, 0
5, 2688, Note_on_c, 4, 52, 45
5, 2880, Note_on_c, 4, 52, 0
5, 2880, Note_on_c, 4, 57, 45
5, 2928, Note_on_c, 4, 57, 0
5, 3456, Note_on_c, 4, 55, 45
5, 4032, Note_on_c, 4, 55, 0
5, 4032, Note_on_c, 4, 60, 45
5, 4192, Note_on_c, 4, 60, 0
5, 4608, Note_on_c, 4, 43, 92
5, 5184, Note_on_c, 4, 43, 0
5, 5184, Note_on_c, 4, 48, 92
5, 5344, Note_on_c, 4, 48, 0
5, 5760, Note_on_c, 4, 41, 45
5, 5808, Note_on_c, 4, 41, 0
5, 5952, Note_on_c, 4, 45, 45
5, 6000, Note_on_c, 4, 45, 0
5, 6144, Note_on_c, 4, 46, 45
5, 6192, Note_on_c, 4, 46, 0
5, 6336, Note_on_c, 4, 48, 45
5, 6720, Note_on_c, 4, 48, 0
5, 6720, Note_on_c, 4, 46, 45
5, 6816, Note_on_c, 4, 46, 0
5, 6816, Note_on_c, 4, 45, 45
5, 6910, Note_on_c, 4, 45, 0
5, 6912, Note_on_c, 4, 43, 45
5, 6960, Note_on_c, 4, 43, 0
5, 7104, Note_on_c, 4, 46, 45
5, 7152, Note_on_c, 4, 46, 0
5, 7296, Note_on_c, 4, 48, 45
5, 7344, Note_on_c, 4, 48, 0
5, 7488, Note_on_c, 4, 50, 45
5, 7872, Note_on_c, 4, 50, 0
5, 7872, Note_on_c, 4, 48, 45
5, 7968, Note_on_c, 4, 48, 0
5, 7968, Note_on_c, 4, 47, 45
5, 8062, Note_on_c, 4, 47, 0
5, 8064, Note_on_c, 4, 45, 45
5, 8256, Note_on_c, 4, 45, 0
5, 8256, Note_on_c, 4, 48, 45
5, 8448, Note_on_c, 4, 48, 0
5, 8448, Note_on_c, 4, 52, 45
5, 8640, Note_on_c, 4, 52, 0
5, 8640, Note_on_c, 4, 57, 45
5, 8688, Note_on_c, 4, 57, 0
5, 9216, Note_on_c, 4, 55, 45
5, 9792, Note_on_c, 4, 55, 0
5, 9792, Note_on_c, 4, 60, 45
5, 9952, Note_on_c, 4, 60, 0
5, 10368, Note_on_c, 4, 43, 92
5, 10944, Note_on_c, 4, 43, 0
5, 10944, Note_on_c, 4, 48, 92
5, 11104, Note_on_c, 4, 48, 0
5, 11520, Note_on_c, 4, 56, 45
5, 11904, Note_on_c, 4, 56, 0
5, 11904, Note_on_c, 4, 60, 45
5, 12064, Note_on_c, 4, 60, 0
5, 12096, Note_on_c, 4, 58, 45
5, 12480, Note_on_c, 4, 58, 0
5, 12480, Note_on_c, 4, 51, 45
5, 12640, Note_on_c, 4, 51, 0
5, 12672, Note_on_c, 4, 56, 45
5, 13008, Note_on_c, 4, 56, 0
5, 13056, Note_on_c, 4, 44, 45
5, 13216, Note_on_c, 4, 44, 0
5, 13248, Note_on_c, 4, 53, 45
5, 13632, Note_on_c, 4, 53, 0
5, 13632, Note_on_c, 4, 56, 45
5, 13792, Note_on_c, 4, 56, 0
5, 13824, Note_on_c, 4, 55, 45
5, 14208, Note_on_c, 4, 55, 0
5, 14208, Note_on_c, 4, 48, 45
5, 14368, Note_on_c, 4, 48, 0
5, 14400, Note_on_c, 4, 53, 45
5, 14736, Note_on_c, 4, 53, 0
5, 14784, Note_on_c, 4, 41, 45
5, 14944, Note_on_c, 4, 41, 0
5, 15552, Note_on_c, 4, 56, 45
5, 15936, Note_on_c, 4, 56, 0
5, 15936, Note_on_c, 4, 54, 45
5, 16032, Note_on_c, 4, 54, 0
5, 16032, Note_on_c, 4, 53, 45
5, 16126, Note_on_c, 4, 53, 0
5, 16128, Note_on_c, 4, 51, 45
5, 16288, Note_on_c, 4, 51, 0
5, 16704, Note_on_c, 4, 58, 45
5, 17088, Note_on_c, 4, 58, 0
5, 17088, Note_on_c, 4, 56, 45
5, 17184, Note_on_c, 4, 56, 0
5, 17184, Note_on_c, 4, 55, 45
5, 17278, Note_on_c, 4, 55, 0
5, 17280, Note_on_c, 4, 53, 45
5, 17328, Note_on_c, 4, 53, 0
5, 17472, Note_on_c, 4, 56, 45
5, 17520, Note_on_c, 4, 56, 0
5, 17664, Note_on_c, 4, 58, 45
5, 17712, Note_on_c, 4, 58, 0
5, 17856, Note_on_c, 4, 60, 45
5, 18240, Note_on_c, 4, 60, 0
5, 18240, Note_on_c, 4, 58, 45
5, 18336, Note_on_c, 4, 58, 0
5, 18336, Note_on_c, 4, 56, 45
5, 18430, Note_on_c, 4, 56, 0
5, 18432, Note_on_c, 4, 55, 45
5, 18624, Note_on_c, 4, 55, 0
5, 18624, Note_on_c, 4, 53, 45
5, 18816, Note_on_c, 4, 53, 0
5, 18816, Note_on_c, 4, 52, 45
5, 19008, Note_on_c, 4, 52, 0
5, 19008, Note_on_c, 4, 53, 45
5, 19200, Note_on_c, 4, 53, 0
5, 19200, Note_on_c, 4, 49, 45
5, 19392, Note_on_c, 4, 49, 0
5, 19392, Note_on_c, 4, 47, 45
5, 19552, Note_on_c, 4, 47, 0
5, 19584, Note_on_c, 4, 48, 45
5, 19632, Note_on_c, 4, 48, 0
5, 19776, Note_on_c, 4, 60, 45
5, 19824, Note_on_c, 4, 60, 0
5, 20160, Note_on_c, 4, 48, 45
5, 20208, Note_on_c, 4, 48, 0
5, 20352, Note_on_c, 4, 60, 45
5, 20400, Note_on_c, 4, 60, 0
5, 20736, Note_on_c, 4, 48, 45
5, 20784, Note_on_c, 4, 48, 0
5, 20928, Note_on_c, 4, 60, 45
5, 20976, Note_on_c, 4, 60, 0
5, 21312, Note_on_c, 4, 48, 45
5, 21360, Note_on_c, 4, 48, 0
5, 21504, Note_on_c, 4, 60, 45
5, 21552, Note_on_c, 4, 60, 0
5, 21888, Note_on_c, 4, 48, 45
5, 22048, Note_on_c, 4, 48, 0
5, 22464, Note_on_c, 4, 55, 30
5, 22512, Note_on_c, 4, 55, 0
5, 22656, Note_on_c, 4, 52, 30
5, 22704, Note_on_c, 4, 52, 0
5, 22848, Note_on_c, 4, 50, 30
5, 22896, Note_on_c, 4, 50, 0
5, 23040, Note_on_c, 4, 48, 30
5, 23088, Note_on_c, 4, 48, 0
5, 23616, Note_on_c, 4, 43, 30
5, 23664, Note_on_c, 4, 43, 0
5, 23808, Note_on_c, 4, 40, 30
5, 23856, Note_on_c, 4, 40, 0
5, 24000, Note_on_c, 4, 38, 30
5, 24048, Note_on_c, 4, 38, 0
5, 24192, Note_on_c, 4, 36, 30
5, 24240, Note_on_c, 4, 36, 0
5, 24768, Note_on_c, 4, 55, 30
5, 24816, Note_on_c, 4, 55, 0
5, 24960, Note_on_c, 4, 52, 30
5, 25008, Note_on_c, 4, 52, 0
5, 25152, Note_on_c, 4, 50, 30
5, 25200, Note_on_c, 4, 50, 0
5, 25344, Note_on_c, 4, 48, 30
5, 25392, Note_on_c, 4, 48, 0
5, 25920, Note_on_c, 4, 48, 30
5, 25968, Note_on_c, 4, 48, 0
5, 26112, Note_on_c, 4, 46, 30
5, 26160, Note_on_c, 4, 46, 0
5, 26304, Note_on_c, 4, 43, 30
5, 26352, Note_on_c, 4, 43, 0
5, 26496, Note_on_c, 4, 41, 30
5, 26544, Note_on_c, 4, 41, 0
5, 26688, Note_on_c, 4, 45, 32
5, 26736, Note_on_c, 4, 45, 0
5, 26880, Note_on_c, 4, 47, 34
5, 26928, Note_on_c, 4, 47, 0
5, 27072, Note_on_c, 4, 48, 36
5, 27456, Note_on_c, 4, 48, 0
5, 27456, Note_on_c, 4, 46, 41
5, 27552, Note_on_c, 4, 46, 0
5, 27552, Note_on_c, 4, 45, 42
5, 27646, Note_on_c, 4, 45, 0
5, 27648, Note_on_c, 4, 43, 43
5, 27808, Note_on_c, 4, 43, 0
5, 27840, Note_on_c, 4, 47, 45
5, 27888, Note_on_c, 4, 47, 0
5, 28032, Note_on_c, 4, 49, 48
5, 28080, Note_on_c, 4, 49, 0
5, 28224, Note_on_c, 4, 50, 51
5, 28608, Note_on_c, 4, 50, 0
5, 28608, Note_on_c, 4, 48, 57
5, 28704, Note_on_c, 4, 48, 0
5, 28704, Note_on_c, 4, 47, 58
5, 28798, Note_on_c, 4, 47, 0
5, 28800, Note_on_c, 4, 45, 45
5, 28992, Note_on_c, 4, 45, 0
5, 28992, Note_on_c, 4, 48, 45
5, 29184, Note_on_c, 4, 48, 0
5, 29184, Note_on_c, 4, 52, 45
5, 29376, Note_on_c, 4, 52, 0
5, 29376, Note_on_c, 4, 57, 45
5, 29424, Note_on_c, 4, 57, 0
5, 29952, Note_on_c, 4, 50, 30
5, 30144, Note_on_c, 4, 50, 0
5, 30144, Note_on_c, 4, 53, 30
5, 30336, Note_on_c, 4, 53, 0
5, 30336, Note_on_c, 4, 57, 30
5, 30528, Note_on_c, 4, 57, 0
5, 30528, Note_on_c, 4, 62, 30
5, 30576, Note_on_c, 4, 62, 0
5, 31104, Note_on_c, 4, 53, 10
5, 31296, Note_on_c, 4, 53, 0
5, 31296, Note_on_c, 4, 57, 10
5, 31488, Note_on_c, 4, 57, 0
5, 31488, Note_on_c, 4, 60, 10
5, 31680, Note_on_c, 4, 60, 0
5, 31680, Note_on_c, 4, 65, 10
5, 31728, Note_on_c, 4, 65, 0
5, 32256, Note_on_c, 4, 60, 10
5, 32832, Note_on_c, 4, 60, 0
5, 32832, Note_on_c, 4, 65, 10
5, 32992, Note_on_c, 4, 65, 0
5, 33408, Note_on_c, 4, 48, 10
5, 33984, Note_on_c, 4, 48, 0
5, 33984, Note_on_c, 4, 53, 10
5, 34144, Note_on_c, 4, 53, 0
5, 34560, Note_on_c, 4, 45, 42
5, 34608, Note_on_c, 4, 45, 0
5, 34608, Note_on_c, 4, 43, 30
5, 34656, Note_on_c, 4, 43, 0
5, 34656, Note_on_c, 4, 45, 30
5, 34704, Note_on_c, 4, 45, 0
5, 34704, Note_on_c, 4, 43, 30
5, 34752, Note_on_c, 4, 43, 0
5, 34752, Note_on_c, 4, 45, 30
5, 34800, Note_on_c, 4, 45, 0
5, 34800, Note_on_c, 4, 43, 30
5, 34848, Note_on_c, 4, 43, 0
5, 34848, Note_on_c, 4, 45, 30
5, 34896, Note_on_c, 4, 45, 0
5, 34896, Note_on_c, 4, 43, 30
5, 34944, Note_on_c, 4, 43, 0
5, 34944, Note_on_c, 4, 45, 30
5, 34992, Note_on_c, 4, 45, 0
5, 34992, Note_on_c, 4, 43, 30
5, 35040, Note_on_c, 4, 43, 0
5, 35040, Note_on_c, 4, 41, 30
5, 35088, Note_on_c, 4, 41, 0
5, 35088, Note_on_c, 4, 43, 30
5, 35134, Note_on_c, 4, 43, 0
5, 35136, Note_on_c, 4, 41, 30
5, 35296, Note_on_c, 4, 41, 0
5, 35712, Note_on_c, 4, 45, 42
5, 35760, Note_on_c, 4, 45, 0
5, 35760, Note_on_c, 4, 43, 30
5, 35808, Note_on_c, 4, 43, 0
5, 35808, Note_on_c, 4, 45, 30
5, 35856, Note_on_c, 4, 45, 0
5, 35856, Note_on_c, 4, 43, 30
5, 35904, Note_on_c, 4, 43, 0
5, 35904, Note_on_c, 4, 45, 30
5, 35952, Note_on_c, 4, 45, 0
5, 35952, Note_on_c, 4, 43, 30
5, 36000, Note_on_c, 4, 43, 0
5, 36000, Note_on_c, 4, 45, 30
5, 36048, Note_on_c, 4, 45, 0
5, 36048, Note_on_c, 4, 43, 30
5, 36096, Note_on_c, 4, 43, 0
5, 36096, Note_on_c, 4, 45, 30
5, 36144, Note_on_c, 4, 45, 0
5, 36144, Note_on_c, 4, 43, 30
5, 36192, Note_on_c, 4, 43, 0
5, 36192, Note_on_c, 4, 41, 30
5, 36240, Note_on_c, 4, 41, 0
5, 36240, Note_on_c, 4, 43, 30
5, 36286, Note_on_c, 4, 43, 0
5, 36288, Note_on_c, 4, 41, 30
5, 36448, Note_on_c, 4, 41, 0
5, 36864, Note_on_c, 4, 45, 42
5, 36912, Note_on_c, 4, 45, 0
5, 36912, Note_on_c, 4, 43, 30
5, 36960, Note_on_c, 4, 43, 0
5, 36960, Note_on_c, 4, 45, 30
5, 37008, Note_on_c, 4, 45, 0
5, 37008, Note_on_c, 4, 43, 30
5, 37056, Note_on_c, 4, 43, 0
5, 37056, Note_on_c, 4, 45, 30
5, 37104, Note_on_c, 4, 45, 0
5, 37104, Note_on_c, 4, 43, 30
5, 37152, Note_on_c, 4, 43, 0
5, 37152, Note_on_c, 4, 45, 30
5, 37200, Note_on_c, 4, 45, 0
5, 37200, Note_on_c, 4, 43, 30
5, 37248, Note_on_c, 4, 43, 0
5, 37248, Note_on_c, 4, 45, 30
5, 37296, Note_on_c, 4, 45, 0
5, 37296, Note_on_c, 4, 43, 30
5, 37344, Note_on_c, 4, 43, 0
5, 37344, Note_on_c, 4, 41, 30
5, 37392, Note_on_c, 4, 41, 0
5, 37392, Note_on_c, 4, 43, 30
5, 37438, Note_on_c, 4, 43, 0
5, 37440, Note_on_c, 4, 41, 30
5, 37600, Note_on_c, 4, 41, 0
5, 38016, Note_on_c, 4, 45, 30
5, 38176, Note_on_c, 4, 45, 0
5, 38208, Note_on_c, 4, 57, 30
5, 38368, Note_on_c, 4, 57, 0
5, 38400, Note_on_c, 4, 57, 30
5, 38560, Note_on_c, 4, 57, 0
5, 38592, Note_on_c, 4, 58, 30
5, 38752, Note_on_c, 4, 58, 0
5, 38784, Note_on_c, 4, 46, 30
5, 38944, Note_on_c, 4, 46, 0
5, 38976, Note_on_c, 4, 46, 30
5, 39136, Note_on_c, 4, 46, 0
5, 39360, Note_on_c, 4, 48, 30
5, 39520, Note_on_c, 4, 48, 0
5, 39552, Note_on_c, 4, 48, 30
5, 39712, Note_on_c, 4, 48, 0
5, 39744, Note_on_c, 4, 53, 30
5, 39904, Note_on_c, 4, 53, 0
5, 40320, Note_on_c, 4, 45, 30
5, 40480, Note_on_c, 4, 45, 0
5, 40512, Note_on_c, 4, 57, 30
5, 40672, Note_on_c, 4, 57, 0
5, 40704, Note_on_c, 4, 57, 30
5, 40864, Note_on_c, 4, 57, 0
5, 40896, Note_on_c, 4, 58, 30
5, 41056, Note_on_c, 4, 58, 0
5, 41088, Note_on_c, 4, 46, 30
5, 41248, Note_on_c, 4, 46, 0
5, 41280, Note_on_c, 4, 46, 30
5, 41440, Note_on_c, 4, 46, 0
5, 41664, Note_on_c, 4, 48, 30
5, 41824, Note_on_c, 4, 48, 0
5, 41856, Note_on_c, 4, 48, 30
5, 42016, Note_on_c, 4, 48, 0
5, 42048, Note_on_c, 4, 53, 30
5, 42096, Note_on_c, 4, 53, 0
5, 42240, Note_on_c, 4, 57, 33
5, 42288, Note_on_c, 4, 57, 0
5, 42432, Note_on_c, 4, 59, 36
5, 42480, Note_on_c, 4, 59, 0
5, 42624, Note_on_c, 4, 60, 39
5, 43008, Note_on_c, 4, 60, 0
5, 43008, Note_on_c, 4, 58, 45
5, 43104, Note_on_c, 4, 58, 0
5, 43104, Note_on_c, 4, 57, 46
5, 43198, Note_on_c, 4, 57, 0
5, 43200, Note_on_c, 4, 55, 47
5, 43248, Note_on_c, 4, 55, 0
5, 43392, Note_on_c, 4, 58, 50
5, 43440, Note_on_c, 4, 58, 0
5, 43584, Note_on_c, 4, 61, 53
5, 43632, Note_on_c, 4, 61, 0
5, 43776, Note_on_c, 4, 62, 56
5, 44160, Note_on_c, 4, 62, 0
5, 44160, Note_on_c, 4, 60, 63
5, 44256, Note_on_c, 4, 60, 0
5, 44256, Note_on_c, 4, 59, 64
5, 44350, Note_on_c, 4, 59, 0
5, 44352, Note_on_c, 4, 57, 65
5, 44544, Note_on_c, 4, 57, 0
5, 44544, Note_on_c, 4, 67, 68
5, 44736, Note_on_c, 4, 67, 0
5, 44736, Note_on_c, 4, 65, 72
5, 44928, Note_on_c, 4, 65, 0
5, 44928, Note_on_c, 4, 64, 76
5, 45120, Note_on_c, 4, 64, 0
5, 45120, Note_on_c, 4, 62, 80
5, 45312, Note_on_c, 4, 62, 0
5, 45312, Note_on_c, 4, 61, 84
5, 45504, Note_on_c, 4, 61, 0
5, 45504, Note_on_c, 4, 62, 88
5, 45552, Note_on_c, 4, 62, 0
5, 45696, Note_on_c, 4, 60, 92
5, 45888, Note_on_c, 4, 60, 0
5, 45888, Note_on_c, 4, 58, 92
5, 46080, Note_on_c, 4, 58, 0
5, 46080, Note_on_c, 4, 57, 92
5, 46272, Note_on_c, 4, 57, 0
5, 46272, Note_on_c, 4, 55, 92
5, 46464, Note_on_c, 4, 55, 0
5, 46464, Note_on_c, 4, 54, 92
5, 46656, Note_on_c, 4, 54, 0
5, 46656, Note_on_c, 4, 55, 92
5, 46816, Note_on_c, 4, 55, 0
5, 46848, Note_on_c, 4, 58, 92
5, 47040, Note_on_c, 4, 58, 0
5, 47040, Note_on_c, 4, 59, 92
5, 47232, Note_on_c, 4, 59, 0
5, 47232, Note_on_c, 4, 60, 92
5, 47280, Note_on_c, 4, 60, 0
5, 47424, Note_on_c, 4, 40, 92
5, 47616, Note_on_c, 4, 40, 0
5, 47616, Note_on_c, 4, 41, 92
5, 47808, Note_on_c, 4, 41, 0
5, 47808, Note_on_c, 4, 43, 92
5, 48000, Note_on_c, 4, 43, 0
5, 48000, Note_on_c, 4, 45, 92
5, 48192, Note_on_c, 4, 45, 0
5, 48192, Note_on_c, 4, 46, 92
5, 48384, Note_on_c, 4, 46, 0
5, 48384, Note_on_c, 4, 48, 92
5, 48576, Note_on_c, 4, 48, 0
5, 48576, Note_on_c, 4, 50, 92
5, 48768, Note_on_c, 4, 50, 0
5, 48768, Note_on_c, 4, 52, 92
5, 48960, Note_on_c, 4, 52, 0
5, 48960, Note_on_c, 4, 53, 92
5, 49152, Note_on_c, 4, 53, 0
5, 49152, Note_on_c, 4, 55, 92
5, 49344, Note_on_c, 4, 55, 0
5, 49344, Note_on_c, 4, 57, 92
5, 49536, Note_on_c, 4, 57, 0
5, 49536, Note_on_c, 4, 46, 92
5, 49728, Note_on_c, 4, 46, 0
5, 49728, Note_on_c, 4, 43, 92
5, 49888, Note_on_c, 4, 43, 0
5, 49920, Note_on_c, 4, 48, 92
5, 49968, Note_on_c, 4, 48, 0
5, 50112, Note_on_c, 4, 41, 92
5, 50160, Note_on_c, 4, 41, 0
5, 50496, Note_on_c, 4, 53, 127
5, 50848, Note_on_c, 4, 53, 0
5, 50880, Note_on_c, 4, 52, 92
5, 50928, Note_on_c, 4, 52, 0
5, 51072, Note_on_c, 4, 48, 92
5, 51120, Note_on_c, 4, 48, 0
5, 51264, Note_on_c, 4, 53, 92
5, 51424, Note_on_c, 4, 53, 0
5, 51648, Note_on_c, 4, 41, 127
5, 52000, Note_on_c, 4, 41, 0
5, 52032, Note_on_c, 4, 40, 92
5, 52080, Note_on_c, 4, 40, 0
5, 52224, Note_on_c, 4, 36, 92
5, 52272, Note_on_c, 4, 36, 0
5, 52416, Note_on_c, 4, 41, 92
5, 52464, Note_on_c, 4, 41, 0
5, 52608, Note_on_c, 4, 40, 127
5, 52656, Note_on_c, 4, 40, 0
5, 52800, Note_on_c, 4, 36, 92
5, 52848, Note_on_c, 4, 36, 0
5, 52992, Note_on_c, 4, 41, 92
5, 53040, Note_on_c, 4, 41, 0
5, 53184, Note_on_c, 4, 52, 127
5, 53232, Note_on_c, 4, 52, 0
5, 53376, Note_on_c, 4, 48, 92
5, 53424, Note_on_c, 4, 48, 0
5, 53568, Note_on_c, 4, 53, 92
5, 53616, Note_on_c, 4, 53, 0
5, 53760, Note_on_c, 4, 41, 92
5, 53808, Note_on_c, 4, 41, 0
5, 53952, Note_on_c, 4, 41, 92
5, 54000, Note_on_c, 4, 41, 0
5, 54144, Note_on_c, 4, 41, 92
5, 54192, Note_on_c, 4, 41, 0
5, 54720, Note_on_c, 4, 56, 45
5, 55104, Note_on_c, 4, 56, 0
5, 55104, Note_on_c, 4, 60, 45
5, 55264, Note_on_c, 4, 60, 0
5, 55296, Note_on_c, 4, 58, 45
5, 55680, Note_on_c, 4, 58, 0
5, 55680, Note_on_c, 4, 51, 45
5, 55840, Note_on_c, 4, 51, 0
5, 55872, Note_on_c, 4, 56, 45
5, 56208, Note_on_c, 4, 56, 0
5, 56256, Note_on_c, 4, 44, 45
5, 56416, Note_on_c, 4, 44, 0
5, 56448, Note_on_c, 4, 53, 45
5, 56832, Note_on_c, 4, 53, 0
5, 56832, Note_on_c, 4, 56, 45
5, 56992, Note_on_c, 4, 56, 0
5, 57024, Note_on_c, 4, 55, 45
5, 57408, Note_on_c, 4, 55, 0
5, 57408, Note_on_c, 4, 48, 45
5, 57568, Note_on_c, 4, 48, 0
5, 57600, Note_on_c, 4, 53, 45
5, 57936, Note_on_c, 4, 53, 0
5, 57984, Note_on_c, 4, 41, 45
5, 58144, Note_on_c, 4, 41, 0
5, 58752, Note_on_c, 4, 56, 45
5, 59136, Note_on_c, 4, 56, 0
5, 59136, Note_on_c, 4, 54, 45
5, 59232, Note_on_c, 4, 54, 0
5, 59232, Note_on_c, 4, 53, 45
5, 59326, Note_on_c, 4, 53, 0
5, 59328, Note_on_c, 4, 51, 45
5, 59488, Note_on_c, 4, 51, 0
5, 59904, Note_on_c, 4, 58, 45
5, 60288, Note_on_c, 4, 58, 0
5, 60288, Note_on_c, 4, 56, 45
5, 60384, Note_on_c, 4, 56, 0
5, 60384, Note_on_c, 4, 55, 45
5, 60478, Note_on_c, 4, 55, 0
5, 60480, Note_on_c, 4, 53, 45
5, 60528, Note_on_c, 4, 53, 0
5, 60672, Note_on_c, 4, 56, 45
5, 60720, Note_on_c, 4, 56, 0
5, 60864, Note_on_c, 4, 58, 45
5, 60912, Note_on_c, 4, 58, 0
5, 61056, Note_on_c, 4, 60, 45
5, 61440, Note_on_c, 4, 60, 0
5, 61440, Note_on_c, 4, 58, 45
5, 61536, Note_on_c, 4, 58, 0
5, 61536, Note_on_c, 4, 56, 45
5, 61630, Note_on_c, 4, 56, 0
5, 61632, Note_on_c, 4, 55, 45
5, 61824, Note_on_c, 4, 55, 0
5, 61824, Note_on_c, 4, 53, 45
5, 62016, Note_on_c, 4, 53, 0
5, 62016, Note_on_c, 4, 52, 45
5, 62208, Note_on_c, 4, 52, 0
5, 62208, Note_on_c, 4, 53, 45
5, 62400, Note_on_c, 4, 53, 0
5, 62400, Note_on_c, 4, 49, 45
5, 62592, Note_on_c, 4, 49, 0
5, 62592, Note_on_c, 4, 47, 45
5, 62752, Note_on_c, 4, 47, 0
5, 62784, Note_on_c, 4, 48, 45
5, 62832, Note_on_c, 4, 48, 0
5, 62976, Note_on_c, 4, 60, 45
5, 63024, Note_on_c, 4, 60, 0
5, 63360, Note_on_c, 4, 48, 45
5, 63408, Note_on_c, 4, 48, 0
5, 63552, Note_on_c, 4, 60, 45
5, 63600, Note_on_c, 4, 60, 0
5, 63936, Note_on_c, 4, 48, 45
5, 63984, Note_on_c, 4, 48, 0
5, 64128, Note_on_c, 4, 60, 45
5, 64176, Note_on_c, 4, 60, 0
5, 64512, Note_on_c, 4, 48, 45
5, 64560, Note_on_c, 4, 48, 0
5, 64704, Note_on_c, 4, 60, 45
5, 64752, Note_on_c, 4, 60, 0
5, 65088, Note_on_c, 4, 48, 45
5, 65248, Note_on_c, 4, 48, 0
5, 65664, Note_on_c, 4, 55, 30
5, 65712, Note_on_c, 4, 55, 0
5, 65856, Note_on_c, 4, 52, 30
5, 65904, Note_on_c, 4, 52, 0
5, 66048, Note_on_c, 4, 50, 30
5, 66096, Note_on_c, 4, 50, 0
5, 66240, Note_on_c, 4, 48, 30
5, 66288, Note_on_c, 4, 48, 0
5, 66816, Note_on_c, 4, 43, 30
5, 66864, Note_on_c, 4, 43, 0
5, 67008, Note_on_c, 4, 40, 30
5, 67056, Note_on_c, 4, 40, 0
5, 67200, Note_on_c, 4, 38, 30
5, 67248, Note_on_c, 4, 38, 0
5, 67392, Note_on_c, 4, 36, 30
5, 67440, Note_on_c, 4, 36, 0
5, 67968, Note_on_c, 4, 55, 30
5, 68016, Note_on_c, 4, 55, 0
5, 68160, Note_on_c, 4, 52, 30
5, 68208, Note_on_c, 4, 52, 0
5, 68352, Note_on_c, 4, 50, 30
5, 68400, Note_on_c, 4, 50, 0
5, 68544, Note_on_c, 4, 48, 30
5, 68592, Note_on_c, 4, 48, 0
5, 69120, Note_on_c, 4, 48, 30
5, 69168, Note_on_c, 4, 48, 0
5, 69312, Note_on_c, 4, 46, 30
5, 69360, Note_on_c, 4, 46, 0
5, 69504, Note_on_c, 4, 43, 30
5, 69552, Note_on_c, 4, 43, 0
5, 69696, Note_on_c, 4, 41, 30
5, 69744, Note_on_c, 4, 41, 0
5, 69888, Note_on_c, 4, 45, 32
5, 69936, Note_on_c, 4, 45, 0
5, 70080, Note_on_c, 4, 47, 34
5, 70128, Note_on_c, 4, 47, 0
5, 70272, Note_on_c, 4, 48, 36
5, 70656, Note_on_c, 4, 48, 0
5, 70656, Note_on_c, 4, 46, 41
5, 70752, Note_on_c, 4, 46, 0
5, 70752, Note_on_c, 4, 45, 42
5, 70846, Note_on_c, 4, 45, 0
5, 70848, Note_on_c, 4, 43, 43
5, 71008, Note_on_c, 4, 43, 0
5, 71040, Note_on_c, 4, 47, 45
5, 71088, Note_on_c, 4, 47, 0
5, 71232, Note_on_c, 4, 49, 48
5, 71280, Note_on_c, 4, 49, 0
5, 71424, Note_on_c, 4, 50, 51
5, 71808, Note_on_c, 4, 50, 0
5, 71808, Note_on_c, 4, 48, 57
5, 71904, Note_on_c, 4, 48, 0
5, 71904, Note_on_c, 4, 47, 58
5, 71998, Note_on_c, 4, 47, 0
5, 72000, Note_on_c, 4, 45, 45
5, 72192, Note_on_c, 4, 45, 0
5, 72192, Note_on_c, 4, 48, 45
5, 72384, Note_on_c, 4, 48, 0
5, 72384, Note_on_c, 4, 52, 45
5, 72576, Note_on_c, 4, 52, 0
5, 72576, Note_on_c, 4, 57, 45
5, 72624, Note_on_c, 4, 57, 0
5, 73152, Note_on_c, 4, 50, 30
5, 73344, Note_on_c, 4, 50, 0
5, 73344, Note_on_c, 4, 53, 30
5, 73536, Note_on_c, 4, 53, 0
5, 73536, Note_on_c, 4, 57, 30
5, 73728, Note_on_c, 4, 57, 0
5, 73728, Note_on_c, 4, 62, 30
5, 73776, Note_on_c, 4, 62, 0
5, 74304, Note_on_c, 4, 53, 10
5, 74496, Note_on_c, 4, 53, 0
5, 74496, Note_on_c, 4, 57, 10
5, 74688, Note_on_c, 4, 57, 0
5, 74688, Note_on_c, 4, 60, 10
5, 74880, Note_on_c, 4, 60, 0
5, 74880, Note_on_c, 4, 65, 10
5, 74928, Note_on_c, 4, 65, 0
5, 75456, Note_on_c, 4, 60, 10
5, 76032, Note_on_c, 4, 60, 0
5, 76032, Note_on_c, 4, 65, 10
5, 76192, Note_on_c, 4, 65, 0
5, 76608, Note_on_c, 4, 48, 10
5, 77184, Note_on_c, 4, 48, 0
5, 77184, Note_on_c, 4, 53, 10
5, 77344, Note_on_c, 4, 53, 0
5, 77760, Note_on_c, 4, 45, 42
5, 77808, Note_on_c, 4, 45, 0
5, 77808, Note_on_c, 4, 43, 30
5, 77856, Note_on_c, 4, 43, 0
5, 77856, Note_on_c, 4, 45, 30
5, 77904, Note_on_c, 4, 45, 0
5, 77904, Note_on_c, 4, 43, 30
5, 77952, Note_on_c, 4, 43, 0
5, 77952, Note_on_c, 4, 45, 30
5, 78000, Note_on_c, 4, 45, 0
5, 78000, Note_on_c, 4, 43, 30
5, 78048, Note_on_c, 4, 43, 0
5, 78048, Note_on_c, 4, 45, 30
5, 78096, Note_on_c, 4, 45, 0
5, 78096, Note_on_c, 4, 43, 30
5, 78144, Note_on_c, 4, 43, 0
5, 78144, Note_on_c, 4, 45, 30
5, 78192, Note_on_c, 4, 45, 0
5, 78192, Note_on_c, 4, 43, 30
5, 78240, Note_on_c, 4, 43, 0
5, 78240, Note_on_c, 4, 41, 30
5, 78288, Note_on_c, 4, 41, 0
5, 78288, Note_on_c, 4, 43, 30
5, 78334, Note_on_c, 4, 43, 0
5, 78336, Note_on_c, 4, 41, 30
5, 78496, Note_on_c, 4, 41, 0
5, 78912, Note_on_c, 4, 45, 42
5, 78960, Note_on_c, 4, 45, 0
5, 78960, Note_on_c, 4, 43, 30
5, 79008, Note_on_c, 4, 43, 0
5, 79008, Note_on_c, 4, 45, 30
5, 79056, Note_on_c, 4, 45, 0
5, 79056, Note_on_c, 4, 43, 30
5, 79104, Note_on_c, 4, 43, 0
5, 79104, Note_on_c, 4, 45, 30
5, 79152, Note_on_c, 4, 45, 0
5, 79152, Note_on_c, 4, 43, 30
5, 79200, Note_on_c, 4, 43, 0
5, 79200, Note_on_c, 4, 45, 30
5, 79248, Note_on_c, 4, 45, 0
5, 79248, Note_on_c, 4, 43, 30
5, 79296, Note_on_c, 4, 43, 0
5, 79296, Note_on_c, 4, 45, 30
5, 79344, Note_on_c, 4, 45, 0
5, 79344, Note_on_c, 4, 43, 30
5, 79392, Note_on_c, 4, 43, 0
5, 79392, Note_on_c, 4, 41, 30
5, 79440, Note_on_c, 4, 41, 0
5, 79440, Note_on_c, 4, 43, 30
5, 79486, Note_on_c, 4, 43, 0
5, 79488, Note_on_c, 4, 41, 30
5, 79648, Note_on_c, 4, 41, 0
5, 80064, Note_on_c, 4, 45, 42
5, 80112, Note_on_c, 4, 45, 0
5, 80112, Note_on_c, 4, 43, 30
5, 80160, Note_on_c, 4, 43, 0
5, 80160, Note_on_c, 4, 45, 30
5, 80208, Note_on_c, 4, 45, 0
5, 80208, Note_on_c, 4, 43, 30
5, 80256, Note_on_c, 4, 43, 0
5, 80256, Note_on_c, 4, 45, 30
5, 80304, Note_on_c, 4, 45, 0
5, 80304, Note_on_c, 4, 43, 30
5, 80352, Note_on_c, 4, 43, 0
5, 80352, Note_on_c, 4, 45, 30
5, 80400, Note_on_c, 4, 45, 0
5, 80400, Note_on_c, 4, 43, 30
5, 80448, Note_on_c, 4, 43, 0
5, 80448, Note_on_c, 4, 45, 30
5, 80496, Note_on_c, 4, 45, 0
5, 80496, Note_on_c, 4, 43, 30
5, 80544, Note_on_c, 4, 43, 0
5, 80544, Note_on_c, 4, 41, 30
5, 80592, Note_on_c, 4, 41, 0
5, 80592, Note_on_c, 4, 43, 30
5, 80638, Note_on_c, 4, 43, 0
5, 80640, Note_on_c, 4, 41, 30
5, 80800, Note_on_c, 4, 41, 0
5, 81216, Note_on_c, 4, 45, 30
5, 81376, Note_on_c, 4, 45, 0
5, 81408, Note_on_c, 4, 57, 30
5, 81568, Note_on_c, 4, 57, 0
5, 81600, Note_on_c, 4, 57, 30
5, 81760, Note_on_c, 4, 57, 0
5, 81792, Note_on_c, 4, 58, 30
5, 81952, Note_on_c, 4, 58, 0
5, 81984, Note_on_c, 4, 46, 30
5, 82144, Note_on_c, 4, 46, 0
5, 82176, Note_on_c, 4, 46, 30
5, 82336, Note_on_c, 4, 46, 0
5, 82560, Note_on_c, 4, 48, 30
5, 82720, Note_on_c, 4, 48, 0
5, 82752, Note_on_c, 4, 48, 30
5, 82912, Note_on_c, 4, 48, 0
5, 82944, Note_on_c, 4, 53, 30
5, 83104, Note_on_c, 4, 53, 0
5, 83520, Note_on_c, 4, 45, 30
5, 83680, Note_on_c, 4, 45, 0
5, 83712, Note_on_c, 4, 57, 30
5, 83872, Note_on_c, 4, 57, 0
5, 83904, Note_on_c, 4, 57, 30
5, 84064, Note_on_c, 4, 57, 0
5, 84096, Note_on_c, 4, 58, 30
5, 84256, Note_on_c, 4, 58, 0
5, 84288, Note_on_c, 4, 46, 30
5, 84448, Note_on_c, 4, 46, 0
5, 84480, Note_on_c, 4, 46, 30
5, 84640, Note_on_c, 4, 46, 0
5, 84864, Note_on_c, 4, 48, 30
5, 85024, Note_on_c, 4, 48, 0
5, 85056, Note_on_c, 4, 48, 30
5, 85216, Note_on_c, 4, 48, 0
5, 85248, Note_on_c, 4, 53, 30
5, 85296, Note_on_c, 4, 53, 0
5, 85440, Note_on_c, 4, 57, 33
5, 85488, Note_on_c, 4, 57, 0
5, 85632, Note_on_c, 4, 59, 36
5, 85680, Note_on_c, 4, 59, 0
5, 85824, Note_on_c, 4, 60, 39
5, 86208, Note_on_c, 4, 60, 0
5, 86208, Note_on_c, 4, 58, 45
5, 86304, Note_on_c, 4, 58, 0
5, 86304, Note_on_c, 4, 57, 46
5, 86398, Note_on_c, 4, 57, 0
5, 86400, Note_on_c, 4, 55, 47
5, 86448, Note_on_c, 4, 55, 0
5, 86592, Note_on_c, 4, 58, 50
5, 86640, Note_on_c, 4, 58, 0
5, 86784, Note_on_c, 4, 61, 53
5, 86832, Note_on_c, 4, 61, 0
5, 86976, Note_on_c, 4, 62, 56
5, 87360, Note_on_c, 4, 62, 0
5, 87360, Note_on_c, 4, 60, 63
5, 87456, Note_on_c, 4, 60, 0
5, 87456, Note_on_c, 4, 59, 64
5, 87550, Note_on_c, 4, 59, 0
5, 87552, Note_on_c, 4, 57, 65
5, 87744, Note_on_c, 4, 57, 0
5, 87744, Note_on_c, 4, 67, 68
5, 87936, Note_on_c, 4, 67, 0
5, 87936, Note_on_c, 4, 65, 72
5, 88128, Note_on_c, 4, 65, 0
5, 88128, Note_on_c, 4, 64, 76
5, 88320, Note_on_c, 4, 64, 0
5, 88320, Note_on_c, 4, 62, 80
5, 88512, Note_on_c, 4, 62, 0
5, 88512, Note_on_c, 4, 61, 84
5, 88704, Note_on_c, 4, 61, 0
5, 88704, Note_on_c, 4, 62, 88
5, 88752, Note_on_c, 4, 62, 0
5, 88896, Note_on_c, 4, 60, 92
5, 89088, Note_on_c, 4, 60, 0
5, 89088, Note_on_c, 4, 58, 92
5, 89280, Note_on_c, 4, 58, 0
5, 89280, Note_on_c, 4, 57, 92
5, 89472, Note_on_c, 4, 57, 0
5, 89472, Note_on_c, 4, 55, 92
5, 89664, Note_on_c, 4, 55, 0
5, 89664, Note_on_c, 4, 54, 92
5, 89856, Note_on_c, 4, 54, 0
5, 89856, Note_on_c, 4, 55, 92
5, 90016, Note_on_c, 4, 55, 0
5, 90048, Note_on_c, 4, 58, 92
5, 90240, Note_on_c, 4, 58, 0
5, 90240, Note_on_c, 4, 59, 92
5, 90432, Note_on_c, 4, 59, 0
5, 90432, Note_on_c, 4, 60, 92
5, 90480, Note_on_c, 4, 60, 0
5, 90624, Note_on_c, 4, 40, 92
5, 90816, Note_on_c, 4, 40, 0
5, 90816, Note_on_c, 4, 41, 92
5, 91008, Note_on_c, 4, 41, 0
5, 91008, Note_on_c, 4, 43, 92
5, 91200, Note_on_c, 4, 43, 0
5, 91200, Note_on_c, 4, 45, 92
5, 91392, Note_on_c, 4, 45, 0
5, 91392, Note_on_c, 4, 46, 92
5, 91584, Note_on_c, 4, 46, 0
5, 91584, Note_on_c, 4, 48, 92
5, 91776, Note_on_c, 4, 48, 0
5, 91776, Note_on_c, 4, 50, 92
5, 91968, Note_on_c, 4, 50, 0
5, 91968, Note_on_c, 4, 52, 92
5, 92160, Note_on_c, 4, 52, 0
5, 92160, Note_on_c, 4, 53, 92
5, 92352, Note_on_c, 4, 53, 0
5, 92352, Note_on_c, 4, 55, 92
5, 92544, Note_on_c, 4, 55, 0
5, 92544, Note_on_c, 4, 57, 92
5, 92736, Note_on_c, 4, 57, 0
5, 92736, Note_on_c, 4, 46, 92
5, 92928, Note_on_c, 4, 46, 0
5, 92928, Note_on_c, 4, 43, 92
5, 93088, Note_on_c, 4, 43, 0
5, 93120, Note_on_c, 4, 48, 92
5, 93168, Note_on_c, 4, 48, 0
5, 93312, Note_on_c, 4, 41, 92
5, 93360, Note_on_c, 4, 41, 0
5, 93696, Note_on_c, 4, 53, 127
5, 94048, Note_on_c, 4, 53, 0
5, 94080, Note_on_c, 4, 52, 92
5, 94128, Note_on_c, 4, 52, 0
5, 94272, Note_on_c, 4, 48, 92
5, 94320, Note_on_c, 4, 48, 0
5, 94464, Note_on_c, 4, 53, 92
5, 94624, Note_on_c, 4, 53, 0
5, 94848, Note_on_c, 4, 41, 127
5, 95200, Note_on_c, 4, 41, 0
5, 95232, Note_on_c, 4, 40, 92
5, 95280, Note_on_c, 4, 40, 0
5, 95424, Note_on_c, 4, 36, 92
5, 95472, Note_on_c, 4, 36, 0
5, 95616, Note_on_c, 4, 41, 92
5, 95664, Note_on_c, 4, 41, 0
5, 95808, Note_on_c, 4, 40, 127
5, 95856, Note_on_c, 4, 40, 0
5, 96000, Note_on_c, 4, 36, 92
5, 96048, Note_on_c, 4, 36, 0
5, 96192, Note_on_c, 4, 41, 92
5, 96240, Note_on_c, 4, 41, 0
5, 96384, Note_on_c, 4, 52, 127
5, 96432, Note_on_c, 4, 52, 0
5, 96576, Note_on_c, 4, 48, 92
5, 96624, Note_on_c, 4, 48, 0
5, 96768, Note_on_c, 4, 53, 92
5, 96816, Note_on_c, 4, 53, 0
5, 96960, Note_on_c, 4, 41, 92
5, 97008, Note_on_c, 4, 41, 0
5, 97152, Note_on_c, 4, 41, 92
5, 97200, Note_on_c, 4, 41, 0
5, 97344, Note_on_c, 4, 41, 92
5, 97392, Note_on_c, 4, 41, 0
5, 97920, Note_on_c, 4, 48, 108
5, 97968, Note_on_c, 4, 48, 0
5, 98304, Note_on_c, 4, 36, 108
5, 98352, Note_on_c, 4, 36, 0
5, 98496, Note_on_c, 4, 48, 108
5, 98544, Note_on_c, 4, 48, 0
5, 98880, Note_on_c, 4, 36, 108
5, 98928, Note_on_c, 4, 36, 0
5, 99072, Note_on_c, 4, 48, 108
5, 99120, Note_on_c, 4, 48, 0
5, 99264, Note_on_c, 4, 36, 108
5, 99312, Note_on_c, 4, 36, 0
5, 99456, Note_on_c, 4, 48, 108
5, 99504, Note_on_c, 4, 48, 0
5, 99648, Note_on_c, 4, 36, 108
5, 99696, Note_on_c, 4, 36, 0
5, 99840, Note_on_c, 4, 48, 108
5, 99888, Note_on_c, 4, 48, 0
5, 100032, Note_on_c, 4, 36, 108
5, 100080, Note_on_c, 4, 36, 0
5, 100224, Note_on_c, 4, 37, 45
5, 100752, Note_on_c, 4, 37, 0
5, 100800, Note_on_c, 4, 37, 63
5, 102288, Note_on_c, 4, 37, 0
5, 102336, Note_on_c, 4, 37, 45
5, 102496, Note_on_c, 4, 37, 0
5, 102528, Note_on_c, 4, 37, 45
5, 103056, Note_on_c, 4, 37, 0
5, 103104, Note_on_c, 4, 37, 63
5, 104592, Note_on_c, 4, 37, 0
5, 104640, Note_on_c, 4, 37, 45
5, 104800, Note_on_c, 4, 37, 0
5, 104832, Note_on_c, 4, 37, 45
5, 104880, Note_on_c, 4, 37, 0
5, 105024, Note_on_c, 4, 49, 45
5, 105072, Note_on_c, 4, 49, 0
5, 105216, Note_on_c, 4, 49, 45
5, 105264, Note_on_c, 4, 49, 0
5, 105408, Note_on_c, 4, 49, 45
5, 105600, Note_on_c, 4, 49, 0
5, 105600, Note_on_c, 4, 48, 45
5, 105792, Note_on_c, 4, 48, 0
5, 105792, Note_on_c, 4, 47, 45
5, 105952, Note_on_c, 4, 47, 0
5, 105984, Note_on_c, 4, 48, 45
5, 106144, Note_on_c, 4, 48, 0
5, 106368, Note_on_c, 4, 36, 45
5, 106528, Note_on_c, 4, 36, 0
5, 106560, Note_on_c, 4, 41, 45
5, 106720, Note_on_c, 4, 41, 0
5, 107136, Note_on_c, 4, 48, 108
5, 107184, Note_on_c, 4, 48, 0
5, 107520, Note_on_c, 4, 36, 108
5, 107568, Note_on_c, 4, 36, 0
5, 107712, Note_on_c, 4, 48, 108
5, 107760, Note_on_c, 4, 48, 0
5, 108096, Note_on_c, 4, 36, 108
5, 108144, Note_on_c, 4, 36, 0
5, 108288, Note_on_c, 4, 48, 108
5, 108336, Note_on_c, 4, 48, 0
5, 108480, Note_on_c, 4, 36, 108
5, 108528, Note_on_c, 4, 36, 0
5, 108672, Note_on_c, 4, 48, 108
5, 108720, Note_on_c, 4, 48, 0
5, 108864, Note_on_c, 4, 36, 108
5, 108912, Note_on_c, 4, 36, 0
5, 109056, Note_on_c, 4, 48, 108
5, 109104, Note_on_c, 4, 48, 0
5, 109248, Note_on_c, 4, 36, 108
5, 109296, Note_on_c, 4, 36, 0
5, 109440, Note_on_c, 4, 37, 45
5, 109968, Note_on_c, 4, 37, 0
5, 110016, Note_on_c, 4, 37, 63
5, 111504, Note_on_c, 4, 37, 0
5, 111552, Note_on_c, 4, 37, 45
5, 111712, Note_on_c, 4, 37, 0
5, 111744, Note_on_c, 4, 37, 45
5, 112272, Note_on_c, 4, 37, 0
5, 112320, Note_on_c, 4, 37, 63
5, 113808, Note_on_c, 4, 37, 0
5, 113856, Note_on_c, 4, 37, 45
5, 114016, Note_on_c, 4, 37, 0
5, 114048, Note_on_c, 4, 37, 45
5, 114096, Note_on_c, 4, 37, 0
5, 114240, Note_on_c, 4, 49, 45
5, 114288, Note_on_c, 4, 49, 0
5, 114432, Note_on_c, 4, 49, 45
5, 114480, Note_on_c, 4, 49, 0
5, 114624, Note_on_c, 4, 49, 45
5, 114816, Note_on_c, 4, 49, 0
5, 114816, Note_on_c, 4, 48, 45
5, 115008, Note_on_c, 4, 48, 0
5, 115008, Note_on_c, 4, 47, 45
5, 115168, Note_on_c, 4, 47, 0
5, 115200, Note_on_c, 4, 48, 45
5, 115360, Note_on_c, 4, 48, 0
5, 115584, Note_on_c, 4, 36, 45
5, 115744, Note_on_c, 4, 36, 0
5, 115776, Note_on_c, 4, 41, 45
5, 115936, Note_on_c, 4, 41, 0
5, 118656, Note_on_c, 4, 58, 30
5, 118704, Note_on_c, 4, 58, 0
5, 119040, Note_on_c, 4, 46, 30
5, 119088, Note_on_c, 4, 46, 0
5, 119232, Note_on_c, 4, 58, 30
5, 119280, Note_on_c, 4, 58, 0
5, 119616, Note_on_c, 4, 46, 30
5, 119664, Note_on_c, 4, 46, 0
5, 119808, Note_on_c, 4, 58, 30
5, 119856, Note_on_c, 4, 58, 0
5, 120000, Note_on_c, 4, 46, 30
5, 120048, Note_on_c, 4, 46, 0
5, 120192, Note_on_c, 4, 58, 30
5, 120240, Note_on_c, 4, 58, 0
5, 120384, Note_on_c, 4, 46, 30
5, 120432, Note_on_c, 4, 46, 0
5, 120576, Note_on_c, 4, 58, 30
5, 120624, Note_on_c, 4, 58, 0
5, 120768, Note_on_c, 4, 46, 30
5, 120816, Note_on_c, 4, 46, 0
5, 121536, Note_on_c, 4, 52, 30
5, 121584, Note_on_c, 4, 52, 0
5, 121728, Note_on_c, 4, 40, 30
5, 121776, Note_on_c, 4, 40, 0
5, 121920, Note_on_c, 4, 52, 30
5, 121968, Note_on_c, 4, 52, 0
5, 122688, Note_on_c, 4, 53, 30
5, 122736, Note_on_c, 4, 53, 0
5, 122880, Note_on_c, 4, 41, 30
5, 122928, Note_on_c, 4, 41, 0
5, 123072, Note_on_c, 4, 53, 30
5, 123120, Note_on_c, 4, 53, 0
5, 123264, Note_on_c, 4, 48, 30
5, 123312, Note_on_c, 4, 48, 0
5, 123648, Note_on_c, 4, 36, 30
5, 123696, Note_on_c, 4, 36, 0
5, 123840, Note_on_c, 4, 48, 30
5, 123888, Note_on_c, 4, 48, 0
5, 124224, Note_on_c, 4, 36, 30
5, 124272, Note_on_c, 4, 36, 0
5, 124416, Note_on_c, 4, 48, 30
5, 124464, Note_on_c, 4, 48, 0
5, 124608, Note_on_c, 4, 36, 30
5, 124656, Note_on_c, 4, 36, 0
5, 124800, Note_on_c, 4, 48, 30
5, 124848, Note_on_c, 4, 48, 0
5, 124992, Note_on_c, 4, 36, 30
5, 125040, Note_on_c, 4, 36, 0
5, 125184, Note_on_c, 4, 48, 30
5, 125232, Note_on_c, 4, 48, 0
5, 125376, Note_on_c, 4, 36, 30
5, 125424, Note_on_c, 4, 36, 0
5, 125568, Note_on_c, 4, 48, 30
5, 125616, Note_on_c, 4, 48, 0
5, 125952, Note_on_c, 4, 36, 38
5, 126000, Note_on_c, 4, 36, 0
5, 126144, Note_on_c, 4, 48, 42
5, 126192, Note_on_c, 4, 48, 0
5, 126528, Note_on_c, 4, 36, 50
5, 126576, Note_on_c, 4, 36, 0
5, 126720, Note_on_c, 4, 48, 54
5, 126768, Note_on_c, 4, 48, 0
5, 126912, Note_on_c, 4, 36, 58
5, 126960, Note_on_c, 4, 36, 0
5, 127104, Note_on_c, 4, 48, 62
5, 127152, Note_on_c, 4, 48, 0
5, 127296, Note_on_c, 4, 37, 66
5, 127344, Note_on_c, 4, 37, 0
5, 127488, Note_on_c, 4, 49, 70
5, 127536, Note_on_c, 4, 49, 0
5, 127680, Note_on_c, 4, 37, 74
5, 127728, Note_on_c, 4, 37, 0
5, 127872, Note_on_c, 4, 38, 78
5, 128400, Note_on_c, 4, 38, 0
5, 128448, Note_on_c, 4, 38, 92
5, 129936, Note_on_c, 4, 38, 0
5, 129984, Note_on_c, 4, 38, 45
5, 130144, Note_on_c, 4, 38, 0
5, 130176, Note_on_c, 4, 38, 45
5, 130704, Note_on_c, 4, 38, 0
5, 130752, Note_on_c, 4, 38, 92
5, 132240, Note_on_c, 4, 38, 0
5, 132288, Note_on_c, 4, 38, 45
5, 132448, Note_on_c, 4, 38, 0
5, 132480, Note_on_c, 4, 43, 45
5, 133008, Note_on_c, 4, 43, 0
5, 133056, Note_on_c, 4, 43, 92
5, 134544, Note_on_c, 4, 43, 0
5, 134592, Note_on_c, 4, 43, 45
5, 134752, Note_on_c, 4, 43, 0
5, 134784, Note_on_c, 4, 43, 45
5, 135312, Note_on_c, 4, 43, 0
5, 135360, Note_on_c, 4, 43, 92
5, 136848, Note_on_c, 4, 43, 0
5, 136896, Note_on_c, 4, 48, 45
5, 137056, Note_on_c, 4, 48, 0
5, 137088, Note_on_c, 4, 36, 45
5, 137616, Note_on_c, 4, 36, 0
5, 137664, Note_on_c, 4, 36, 92
5, 139152, Note_on_c, 4, 36, 0
5, 139200, Note_on_c, 4, 48, 45
5, 139360, Note_on_c, 4, 48, 0
5, 139392, Note_on_c, 4, 36, 45
5, 139920, Note_on_c, 4, 36, 0
5, 139968, Note_on_c, 4, 36, 92
5, 140704, Note_on_c, 4, 36, 0
5, 141696, Note_on_c, 4, 41, 45
5, 141744, Note_on_c, 4, 41, 0
5, 141888, Note_on_c, 4, 45, 45
5, 141936, Note_on_c, 4, 45, 0
5, 142080, Note_on_c, 4, 46, 45
5, 142128, Note_on_c, 4, 46, 0
5, 142272, Note_on_c, 4, 48, 45
5, 142656, Note_on_c, 4, 48, 0
5, 142656, Note_on_c, 4, 46, 45
5, 142752, Note_on_c, 4, 46, 0
5, 142752, Note_on_c, 4, 45, 45
5, 142846, Note_on_c, 4, 45, 0
5, 142848, Note_on_c, 4, 43, 45
5, 142896, Note_on_c, 4, 43, 0
5, 143040, Note_on_c, 4, 46, 45
5, 143088, Note_on_c, 4, 46, 0
5, 143232, Note_on_c, 4, 48, 45
5, 143280, Note_on_c, 4, 48, 0
5, 143424, Note_on_c, 4, 50, 45
5, 143808, Note_on_c, 4, 50, 0
5, 143808, Note_on_c, 4, 48, 45
5, 143904, Note_on_c, 4, 48, 0
5, 143904, Note_on_c, 4, 47, 45
5, 143998, Note_on_c, 4, 47, 0
5, 144000, Note_on_c, 4, 45, 45
5, 144192, Note_on_c, 4, 45, 0
5, 144192, Note_on_c, 4, 48, 45
5, 144384, Note_on_c, 4, 48, 0
5, 144384, Note_on_c, 4, 52, 45
5, 144576, Note_on_c, 4, 52, 0
5, 144576, Note_on_c, 4, 57, 45
5, 144624, Note_on_c, 4, 57, 0
5, 145152, Note_on_c, 4, 55, 45
5, 145728, Note_on_c, 4, 55, 0
5, 145728, Note_on_c, 4, 60, 45
5, 145888, Note_on_c, 4, 60, 0
5, 146304, Note_on_c, 4, 43, 92
5, 146880, Note_on_c, 4, 43, 0
5, 146880, Note_on_c, 4, 48, 92
5, 147040, Note_on_c, 4, 48, 0
5, 147456, Note_on_c, 4, 56, 45
5, 147840, Note_on_c, 4, 56, 0
5, 147840, Note_on_c, 4, 60, 45
5, 148000, Note_on_c, 4, 60, 0
5, 148032, Note_on_c, 4, 58, 45
5, 148416, Note_on_c, 4, 58, 0
5, 148416, Note_on_c, 4, 51, 45
5, 148576, Note_on_c, 4, 51, 0
5, 148608, Note_on_c, 4, 56, 45
5, 148944, Note_on_c, 4, 56, 0
5, 148992, Note_on_c, 4, 44, 45
5, 149152, Note_on_c, 4, 44, 0
5, 149184, Note_on_c, 4, 53, 45
5, 149568, Note_on_c, 4, 53, 0
5, 149568, Note_on_c, 4, 56, 45
5, 149728, Note_on_c, 4, 56, 0
5, 149760, Note_on_c, 4, 55, 45
5, 150144, Note_on_c, 4, 55, 0
5, 150144, Note_on_c, 4, 48, 45
5, 150304, Note_on_c, 4, 48, 0
5, 150336, Note_on_c, 4, 53, 45
5, 150672, Note_on_c, 4, 53, 0
5, 150720, Note_on_c, 4, 41, 45
5, 150880, Note_on_c, 4, 41, 0
5, 151488, Note_on_c, 4, 56, 45
5, 151872, Note_on_c, 4, 56, 0
5, 151872, Note_on_c, 4, 54, 45
5, 151968, Note_on_c, 4, 54, 0
5, 151968, Note_on_c, 4, 53, 45
5, 152062, Note_on_c, 4, 53, 0
5, 152064, Note_on_c, 4, 51, 45
5, 152224, Note_on_c, 4, 51, 0
5, 152640, Note_on_c, 4, 58, 45
5, 153024, Note_on_c, 4, 58, 0
5, 153024, Note_on_c, 4, 56, 45
5, 153120, Note_on_c, 4, 56, 0
5, 153120, Note_on_c, 4, 55, 45
5, 153214, Note_on_c, 4, 55, 0
5, 153216, Note_on_c, 4, 53, 45
5, 153264, Note_on_c, 4, 53, 0
5, 153408, Note_on_c, 4, 56, 45
5, 153456, Note_on_c, 4, 56, 0
5, 153600, Note_on_c, 4, 58, 45
5, 153648, Note_on_c, 4, 58, 0
5, 153792, Note_on_c, 4, 60, 45
5, 154176, Note_on_c, 4, 60, 0
5, 154176, Note_on_c, 4, 58, 45
5, 154272, Note_on_c, 4, 58, 0
5, 154272, Note_on_c, 4, 56, 45
5, 154366, Note_on_c, 4, 56, 0
5, 154368, Note_on_c, 4, 55, 45
5, 154560, Note_on_c, 4, 55, 0
5, 154560, Note_on_c, 4, 53, 45
5, 154752, Note_on_c, 4, 53, 0
5, 154752, Note_on_c, 4, 52, 45
5, 154944, Note_on_c, 4, 52, 0
5, 154944, Note_on_c, 4, 53, 45
5, 155136, Note_on_c, 4, 53, 0
5, 155136, Note_on_c, 4, 49, 45
5, 155328, Note_on_c, 4, 49, 0
5, 155328, Note_on_c, 4, 47, 45
5, 155488, Note_on_c, 4, 47, 0
5, 155520, Note_on_c, 4, 48, 45
5, 155568, Note_on_c, 4, 48, 0
5, 155712, Note_on_c, 4, 60, 45
5, 155760, Note_on_c, 4, 60, 0
5, 156096, Note_on_c, 4, 48, 45
5, 156144, Note_on_c, 4, 48, 0
5, 156288, Note_on_c, 4, 60, 45
5, 156336, Note_on_c, 4, 60, 0
5, 156672, Note_on_c, 4, 48, 45
5, 156720, Note_on_c, 4, 48, 0
5, 156864, Note_on_c, 4, 60, 45
5, 156912, Note_on_c, 4, 60, 0
5, 157248, Note_on_c, 4, 48, 45
5, 157296, Note_on_c, 4, 48, 0
5, 157440, Note_on_c, 4, 60, 45
5, 157488, Note_on_c, 4, 60, 0
5, 157824, Note_on_c, 4, 48, 45
5, 157984, Note_on_c, 4, 48, 0
5, 158400, Note_on_c, 4, 55, 30
5, 158448, Note_on_c, 4, 55, 0
5, 158592, Note_on_c, 4, 52, 30
5, 158640, Note_on_c, 4, 52, 0
5, 158784, Note_on_c, 4, 50, 30
5, 158832, Note_on_c, 4, 50, 0
5, 158976, Note_on_c, 4, 48, 30
5, 159024, Note_on_c, 4, 48, 0
5, 159552, Note_on_c, 4, 43, 30
5, 159600, Note_on_c, 4, 43, 0
5, 159744, Note_on_c, 4, 40, 30
5, 159792, Note_on_c, 4, 40, 0
5, 159936, Note_on_c, 4, 38, 30
5, 159984, Note_on_c, 4, 38, 0
5, 160128, Note_on_c, 4, 36, 30
5, 160176, Note_on_c, 4, 36, 0
5, 160704, Note_on_c, 4, 55, 30
5, 160752, Note_on_c, 4, 55, 0
5, 160896, Note_on_c, 4, 52, 30
5, 160944, Note_on_c, 4, 52, 0
5, 161088, Note_on_c, 4, 50, 30
5, 161136, Note_on_c, 4, 50, 0
5, 161280, Note_on_c, 4, 48, 30
5, 161328, Note_on_c, 4, 48, 0
5, 161856, Note_on_c, 4, 48, 30
5, 161904, Note_on_c, 4, 48, 0
5, 162048, Note_on_c, 4, 46, 30
5, 162096, Note_on_c, 4, 46, 0
5, 162240, Note_on_c, 4, 43, 30
5, 162288, Note_on_c, 4, 43, 0
5, 162432, Note_on_c, 4, 41, 30
5, 162480, Note_on_c, 4, 41, 0
5, 162624, Note_on_c, 4, 45, 32
5, 162672, Note_on_c, 4, 45, 0
5, 162816, Note_on_c, 4, 47, 34
5, 162864, Note_on_c, 4, 47, 0
5, 163008, Note_on_c, 4, 48, 36
5, 163392, Note_on_c, 4, 48, 0
5, 163392, Note_on_c, 4, 46, 41
5, 163488, Note_on_c, 4, 46, 0
5, 163488, Note_on_c, 4, 45, 42
5, 163582, Note_on_c, 4, 45, 0
5, 163584, Note_on_c, 4, 43, 43
5, 163744, Note_on_c, 4, 43, 0
5, 163776, Note_on_c, 4, 47, 45
5, 163824, Note_on_c, 4, 47, 0
5, 163968, Note_on_c, 4, 49, 48
5, 164016, Note_on_c, 4, 49, 0
5, 164160, Note_on_c, 4, 50, 51
5, 164544, Note_on_c, 4, 50, 0
5, 164544, Note_on_c, 4, 48, 57
5, 164640, Note_on_c, 4, 48, 0
5, 164640, Note_on_c, 4, 47, 58
5, 164734, Note_on_c, 4, 47, 0
5, 164736, Note_on_c, 4, 45, 45
5, 164928, Note_on_c, 4, 45, 0
5, 164928, Note_on_c, 4, 48, 45
5, 165120, Note_on_c, 4, 48, 0
5, 165120, Note_on_c, 4, 52, 45
5, 165312, Note_on_c, 4, 52, 0
5, 165312, Note_on_c, 4, 57, 45
5, 165360, Note_on_c, 4, 57, 0
5, 165888, Note_on_c, 4, 50, 30
5, 166080, Note_on_c, 4, 50, 0
5, 166080, Note_on_c, 4, 53, 30
5, 166272, Note_on_c, 4, 53, 0
5, 166272, Note_on_c, 4, 57, 30
5, 166464, Note_on_c, 4, 57, 0
5, 166464, Note_on_c, 4, 62, 30
5, 166512, Note_on_c, 4, 62, 0
5, 167040, Note_on_c, 4, 53, 10
5, 167232, Note_on_c, 4, 53, 0
5, 167232, Note_on_c, 4, 57, 10
5, 167424, Note_on_c, 4, 57, 0
5, 167424, Note_on_c, 4, 60, 10
5, 167616, Note_on_c, 4, 60, 0
5, 167616, Note_on_c, 4, 65, 10
5, 167664, Note_on_c, 4, 65, 0
5, 168192, Note_on_c, 4, 60, 10
5, 168768, Note_on_c, 4, 60, 0
5, 168768, Note_on_c, 4, 65, 10
5, 168928, Note_on_c, 4, 65, 0
5, 169344, Note_on_c, 4, 48, 10
5, 169920, Note_on_c, 4, 48, 0
5, 169920, Note_on_c, 4, 53, 10
5, 170080, Note_on_c, 4, 53, 0
5, 170496, Note_on_c, 4, 45, 42
5, 170544, Note_on_c, 4, 45, 0
5, 170544, Note_on_c, 4, 43, 30
5, 170592, Note_on_c, 4, 43, 0
5, 170592, Note_on_c, 4, 45, 30
5, 170640, Note_on_c, 4, 45, 0
5, 170640, Note_on_c, 4, 43, 30
5, 170688, Note_on_c, 4, 43, 0
5, 170688, Note_on_c, 4, 45, 30
5, 170736, Note_on_c, 4, 45, 0
5, 170736, Note_on_c, 4, 43, 30
5, 170784, Note_on_c, 4, 43, 0
5, 170784, Note_on_c, 4, 45, 30
5, 170832, Note_on_c, 4, 45, 0
5, 170832, Note_on_c, 4, 43, 30
5, 170880, Note_on_c, 4, 43, 0
5, 170880, Note_on_c, 4, 45, 30
5, 170928, Note_on_c, 4, 45, 0
5, 170928, Note_on_c, 4, 43, 30
5, 170976, Note_on_c, 4, 43, 0
5, 170976, Note_on_c, 4, 41, 30
5, 171024, Note_on_c, 4, 41, 0
5, 171024, Note_on_c, 4, 43, 30
5, 171070, Note_on_c, 4, 43, 0
5, 171072, Note_on_c, 4, 41, 30
5, 171232, Note_on_c, 4, 41, 0
5, 171648, Note_on_c, 4, 45, 42
5, 171696, Note_on_c, 4, 45, 0
5, 171696, Note_on_c, 4, 43, 30
5, 171744, Note_on_c, 4, 43, 0
5, 171744, Note_on_c, 4, 45, 30
5, 171792, Note_on_c, 4, 45, 0
5, 171792, Note_on_c, 4, 43, 30
5, 171840, Note_on_c, 4, 43, 0
5, 171840, Note_on_c, 4, 45, 30
5, 171888, Note_on_c, 4, 45, 0
5, 171888, Note_on_c, 4, 43, 30
5, 171936, Note_on_c, 4, 43, 0
5, 171936, Note_on_c, 4, 45, 30
5, 171984, Note_on_c, 4, 45, 0
5, 171984, Note_on_c, 4, 43, 30
5, 172032, Note_on_c, 4, 43, 0
5, 172032, Note_on_c, 4, 45, 30
5, 172080, Note_on_c, 4, 45, 0
5, 172080, Note_on_c, 4, 43, 30
5, 172128, Note_on_c, 4, 43, 0
5, 172128, Note_on_c, 4, 41, 30
5, 172176, Note_on_c, 4, 41, 0
5, 172176, Note_on_c, 4, 43, 30
5, 172222, Note_on_c, 4, 43, 0
5, 172224, Note_on_c, 4, 41, 30
5, 172384, Note_on_c, 4, 41, 0
5, 172800, Note_on_c, 4, 45, 42
5, 172848, Note_on_c, 4, 45, 0
5, 172848, Note_on_c, 4, 43, 30
5, 172896, Note_on_c, 4, 43, 0
5, 172896, Note_on_c, 4, 45, 30
5, 172944, Note_on_c, 4, 45, 0
5, 172944, Note_on_c, 4, 43, 30
5, 172992, Note_on_c, 4, 43, 0
5, 172992, Note_on_c, 4, 45, 30
5, 173040, Note_on_c, 4, 45, 0
5, 173040, Note_on_c, 4, 43, 30
5, 173088, Note_on_c, 4, 43, 0
5, 173088, Note_on_c, 4, 45, 30
5, 173136, Note_on_c, 4, 45, 0
5, 173136, Note_on_c, 4, 43, 30
5, 173184, Note_on_c, 4, 43, 0
5, 173184, Note_on_c, 4, 45, 30
5, 173232, Note_on_c, 4, 45, 0
5, 173232, Note_on_c, 4, 43, 30
5, 173280, Note_on_c, 4, 43, 0
5, 173280, Note_on_c, 4, 41, 30
5, 173328, Note_on_c, 4, 41, 0
5, 173328, Note_on_c, 4, 43, 30
5, 173374, Note_on_c, 4, 43, 0
5, 173376, Note_on_c, 4, 41, 30
5, 173536, Note_on_c, 4, 41, 0
5, 173952, Note_on_c, 4, 45, 30
5, 174112, Note_on_c, 4, 45, 0
5, 174144, Note_on_c, 4, 57, 30
5, 174304, Note_on_c, 4, 57, 0
5, 174336, Note_on_c, 4, 57, 30
5, 174496, Note_on_c, 4, 57, 0
5, 174528, Note_on_c, 4, 58, 30
5, 174688, Note_on_c, 4, 58, 0
5, 174720, Note_on_c, 4, 46, 30
5, 174880, Note_on_c, 4, 46, 0
5, 174912, Note_on_c, 4, 46, 30
5, 175072, Note_on_c, 4, 46, 0
5, 175296, Note_on_c, 4, 48, 30
5, 175456, Note_on_c, 4, 48, 0
5, 175488, Note_on_c, 4, 48, 30
5, 175648, Note_on_c, 4, 48, 0
5, 175680, Note_on_c, 4, 53, 30
5, 175840, Note_on_c, 4, 53, 0
5, 176256, Note_on_c, 4, 45, 30
5, 176416, Note_on_c, 4, 45, 0
5, 176448, Note_on_c, 4, 57, 30
5, 176608, Note_on_c, 4, 57, 0
5, 176640, Note_on_c, 4, 57, 30
5, 176800, Note_on_c, 4, 57, 0
5, 176832, Note_on_c, 4, 58, 30
5, 176992, Note_on_c, 4, 58, 0
5, 177024, Note_on_c, 4, 46, 30
5, 177184, Note_on_c, 4, 46, 0
5, 177216, Note_on_c, 4, 46, 30
5, 177376, Note_on_c, 4, 46, 0
5, 177600, Note_on_c, 4, 48, 30
5, 177760, Note_on_c, 4, 48, 0
5, 177792, Note_on_c, 4, 48, 30
5, 177952, Note_on_c, 4, 48, 0
5, 177984, Note_on_c, 4, 53, 30
5, 178032, Note_on_c, 4, 53, 0
5, 178176, Note_on_c, 4, 57, 33
5, 178224, Note_on_c, 4, 57, 0
5, 178368, Note_on_c, 4, 59, 36
5, 178416, Note_on_c, 4, 59, 0
5, 178560, Note_on_c, 4, 60, 39
5, 178944, Note_on_c, 4, 60, 0
5, 178944, Note_on_c, 4, 58, 45
5, 179040, Note_on_c, 4, 58, 0
5, 179040, Note_on_c, 4, 57, 46
5, 179134, Note_on_c, 4, 57, 0
5, 179136, Note_on_c, 4, 55, 47
5, 179184, Note_on_c, 4, 55, 0
5, 179328, Note_on_c, 4, 58, 50
5, 179376, Note_on_c, 4, 58, 0
5, 179520, Note_on_c, 4, 61, 53
5, 179568, Note_on_c, 4, 61, 0
5, 179712, Note_on_c, 4, 62, 56
5, 180096, Note_on_c, 4, 62, 0
5, 180096, Note_on_c, 4, 60, 63
5, 180192, Note_on_c, 4, 60, 0
5, 180192, Note_on_c, 4, 59, 64
5, 180286, Note_on_c, 4, 59, 0
5, 180288, Note_on_c, 4, 57, 65
5, 180480, Note_on_c, 4, 57, 0
5, 180480, Note_on_c, 4, 67, 68
5, 180672, Note_on_c, 4, 67, 0
5, 180672, Note_on_c, 4, 65, 72
5, 180864, Note_on_c, 4, 65, 0
5, 180864, Note_on_c, 4, 64, 76
5, 181056, Note_on_c, 4, 64, 0
5, 181056, Note_on_c, 4, 62, 80
5, 181248, Note_on_c, 4, 62, 0
5, 181248, Note_on_c, 4, 61, 84
5, 181440, Note_on_c, 4, 61, 0
5, 181440, Note_on_c, 4, 62, 88
5, 181488, Note_on_c, 4, 62, 0
5, 181632, Note_on_c, 4, 60, 92
5, 181824, Note_on_c, 4, 60, 0
5, 181824, Note_on_c, 4, 58, 92
5, 182016, Note_on_c, 4, 58, 0
5, 182016, Note_on_c, 4, 57, 92
5, 182208, Note_on_c, 4, 57, 0
5, 182208, Note_on_c, 4, 55, 92
5, 182400, Note_on_c, 4, 55, 0
5, 182400, Note_on_c, 4, 54, 92
5, 182592, Note_on_c, 4, 54, 0
5, 182592, Note_on_c, 4, 55, 92
5, 182752, Note_on_c, 4, 55, 0
5, 182784, Note_on_c, 4, 58, 92
5, 182976, Note_on_c, 4, 58, 0
5, 182976, Note_on_c, 4, 59, 92
5, 183168, Note_on_c, 4, 59, 0
5, 183168, Note_on_c, 4, 60, 92
5, 183216, Note_on_c, 4, 60, 0
5, 183360, Note_on_c, 4, 40, 92
5, 183552, Note_on_c, 4, 40, 0
5, 183552, Note_on_c, 4, 41, 92
5, 183744, Note_on_c, 4, 41, 0
5, 183744, Note_on_c, 4, 43, 92
5, 183936, Note_on_c, 4, 43, 0
5, 183936, Note_on_c, 4, 45, 92
5, 184128, Note_on_c, 4, 45, 0
5, 184128, Note_on_c, 4, 46, 92
5, 184320, Note_on_c, 4, 46, 0
5, 184320, Note_on_c, 4, 48, 92
5, 184512, Note_on_c, 4, 48, 0
5, 184512, Note_on_c, 4, 50, 92
5, 184704, Note_on_c, 4, 50, 0
5, 184704, Note_on_c, 4, 52, 92
5, 184896, Note_on_c, 4, 52, 0
5, 184896, Note_on_c, 4, 53, 92
5, 185088, Note_on_c, 4, 53, 0
5, 185088, Note_on_c, 4, 55, 92
5, 185280, Note_on_c, 4, 55, 0
5, 185280, Note_on_c, 4, 57, 92
5, 185472, Note_on_c, 4, 57, 0
5, 185472, Note_on_c, 4, 46, 92
5, 185664, Note_on_c, 4, 46, 0
5, 185664, Note_on_c, 4, 43, 92
5, 185824, Note_on_c, 4, 43, 0
5, 185856, Note_on_c, 4, 48, 92
5, 185904, Note_on_c, 4, 48, 0
5, 186048, Note_on_c, 4, 41, 92
5, 186096, Note_on_c, 4, 41, 0
5, 186432, Note_on_c, 4, 53, 127
5, 186784, Note_on_c, 4, 53, 0
5, 186816, Note_on_c, 4, 52, 92
5, 186864, Note_on_c, 4, 52, 0
5, 187008, Note_on_c, 4, 48, 92
5, 187056, Note_on_c, 4, 48, 0
5, 187200, Note_on_c, 4, 53, 92
5, 187360, Note_on_c, 4, 53, 0
5, 187584, Note_on_c, 4, 41, 127
5, 187936, Note_on_c, 4, 41, 0
5, 187968, Note_on_c, 4, 40, 92
5, 188016, Note_on_c, 4, 40, 0
5, 188160, Note_on_c, 4, 36, 92
5, 188208, Note_on_c, 4, 36, 0
5, 188352, Note_on_c, 4, 41, 92
5, 188400, Note_on_c, 4, 41, 0
5, 188544, Note_on_c, 4, 40, 127
5, 188592, Note_on_c, 4, 40, 0
5, 188736, Note_on_c, 4, 36, 92
5, 188784, Note_on_c, 4, 36, 0
5, 188928, Note_on_c, 4, 41, 92
5, 188976, Note_on_c, 4, 41, 0
5, 189120, Note_on_c, 4, 52, 127
5, 189168, Note_on_c, 4, 52, 0
5, 189312, Note_on_c, 4, 48, 92
5, 189360, Note_on_c, 4, 48, 0
5, 189504, Note_on_c, 4, 53, 92
5, 189552, Note_on_c, 4, 53, 0
5, 189696, Note_on_c, 4, 41, 92
5, 189744, Note_on_c, 4, 41, 0
5, 189888, Note_on_c, 4, 41, 92
5, 189936, Note_on_c, 4, 41, 0
5, 190080, Note_on_c, 4, 41, 92
5, 190128, Note_on_c, 4, 41, 0
5, 190128, End_track
6, 0, Start_track
6, 0, End_track
0, 0, End_of_file