0, 0, Header, 1, 15, 480
1, 0, Start_track
1, 0, Title_t, "PASTORALE SYMPHONY No. 6 in F major"
1, 0, Copyright_t, "All Rights Reserved "
1, 0, Tempo, 545454
1, 0, Time_signature, 2, 2, 24, 8
1, 0, Key_signature, -1, "major"
1, 2160, Tempo, 631578
1, 2640, Tempo, 666666
1, 3120, Tempo, 1200000
1, 4200, Tempo, 545454
1, 14760, Tempo, 545454
1, 16680, Tempo, 521739
1, 18600, Tempo, 545454
1, 34920, Tempo, 521739
1, 38280, Tempo, 535714
1, 42600, Tempo, 535714
1, 43080, Tempo, 545454
1, 50280, Tempo, 545454
1, 62280, Tempo, 600000
1, 62760, Tempo, 666666
1, 63960, Tempo, 545454
1, 79080, Tempo, 566037
1, 81000, Tempo, 560747
1, 83880, Tempo, 555555
1, 85800, Tempo, 550458
1, 88680, Tempo, 500000
1, 91080, Tempo, 521739
1, 91560, Tempo, 545454
1, 95400, Tempo, 500000
1, 97800, Tempo, 521739
1, 98280, Tempo, 545454
1, 103080, Tempo, 521739
1, 105960, Tempo, 500000
1, 117480, Tempo, 500000
1, 118440, Tempo, 521739
1, 121320, Tempo, 545454
1, 132120, Tempo, 600000
1, 133440, Tempo, 545454
1, 139920, Tempo, 600000
1, 141240, Tempo, 545454
1, 159960, Tempo, 521739
1, 167640, Tempo, 500000
1, 176280, Tempo, 508474
1, 177240, Tempo, 517241
1, 178200, Tempo, 535714
1, 179160, Tempo, 545454
1, 183000, Tempo, 571428
1, 188760, Tempo, 545454
1, 207960, Tempo, 521739
1, 211800, Tempo, 500000
1, 220440, Tempo, 517241
1, 221400, Tempo, 526315
1, 222360, Tempo, 535714
1, 223320, Tempo, 545454
1, 227160, Tempo, 571428
1, 232920, Tempo, 600000
1, 236760, Tempo, 571428
1, 252120, Tempo, 545454
1, 270360, Tempo, 600000
1, 273240, Tempo, 576923
1, 274200, Tempo, 571428
1, 275160, Tempo, 560747
1, 276120, Tempo, 550458
1, 277080, Tempo, 545454
1, 291480, Tempo, 521739
1, 299160, Tempo, 521739
1, 314520, Tempo, 571428
1, 330120, Tempo, 571428
1, 330840, Tempo, 645161
1, 332040, Tempo, 571428
1, 343320, Tempo, 545454
1, 351000, Tempo, 521739
1, 356760, Tempo, 500000
1, 359640, Tempo, 545454
1, 363600, Tempo, 500000
1, 366480, Tempo, 545454
1, 374280, Tempo, 521739
1, 383880, Tempo, 545454
1, 400440, Tempo, 600000
1, 401760, Tempo, 571428
1, 405120, Tempo, 600000
1, 408960, Tempo, 571428
1, 420000, Tempo, 576923
1, 420960, Tempo, 560747
1, 421920, Tempo, 555555
1, 422400, Tempo, 545454
1, 447360, Tempo, 555555
1, 448320, Tempo, 576923
1, 456960, Tempo, 545454
1, 486000, Tempo, 600000
1, 486960, Tempo, 638297
1, 487920, Tempo, 625000
1, 489840, Tempo, 666666
1, 491760, Tempo, 2000000
1, 492720, Tempo, 1500000
1, 494400, Time_signature, 3, 2, 24, 8
1, 494640, Tempo, 200000
1, 571440, Tempo, 200000
1, 575760, Tempo, 202702
1, 578640, Tempo, 208333
1, 585360, Tempo, 214285
1, 603120, Tempo, 200000
1, 726960, Tempo, 187500
1, 729840, Tempo, 176470
1, 731280, Tempo, 166666
1, 732000, Time_signature, 2, 2, 24, 8
1, 732720, Tempo, 487804
1, 769200, Tempo, 2000000
1, 770400, Time_signature, 3, 2, 24, 8
1, 771120, Tempo, 200000
1, 847920, Tempo, 200000
1, 852240, Tempo, 202702
1, 855120, Tempo, 208333
1, 861840, Tempo, 214285
1, 879600, Tempo, 200000
1, 1003440, Tempo, 187500
1, 1006320, Tempo, 176470
1, 1007760, Tempo, 166666
1, 1008000, Time_signature, 2, 2, 24, 8
1, 1009200, Tempo, 487804
1, 1045680, Tempo, 2000000
1, 1047360, Time_signature, 3, 2, 24, 8
1, 1047600, Tempo, 200000
1, 1066800, Tempo, 230769
1, 1076400, Tempo, 200000
1, 1094160, Tempo, 171428
1, 1102800, Tempo, 176470
1, 1107120, Tempo, 187500
1, 1108560, Tempo, 176470
1, 1118640, Tempo, 189873
1, 1120080, Tempo, 176470
1, 1136640, Time_signature, 4, 2, 24, 8
1, 1136640, Key_signature, -4, "major"
1, 1137360, Tempo, 375000
1, 1204560, Tempo, 352941
1, 1216080, Tempo, 375000
1, 1242960, Tempo, 333333
1, 1244880, Tempo, 352941
1, 1264080, Tempo, 375000
1, 1283280, Tempo, 365853
1, 1285200, Tempo, 357142
1, 1287120, Tempo, 348837
1, 1308240, Tempo, 340909
1, 1358160, Tempo, 348837
1, 1362000, Tempo, 357142
1, 1365840, Tempo, 375000
1, 1433040, Tempo, 400000
1, 1434000, Tempo, 428571
1, 1434960, Tempo, 461538
1, 1435920, Tempo, 500000
1, 1436160, Time_signature, 6, 3, 24, 8
1, 1436160, Key_signature, -1, "major"
1, 1436880, Tempo, 750000
1, 1447680, Tempo, 857142
1, 1449180, Tempo, 697674
1, 1457100, Tempo, 731707
1, 1458300, Tempo, 750000
1, 1458540, Tempo, 769230
1, 1459740, Tempo, 810810
1, 1459980, Tempo, 697674
1, 1478700, Tempo, 697674
1, 1480140, Tempo, 750000
1, 1480620, Tempo, 789473
1, 1481100, Tempo, 833333
1, 1481820, Tempo, 750000
1, 1495740, Tempo, 857142
1, 1495980, Tempo, 714285
1, 1507500, Tempo, 750000
1, 1513260, Tempo, 810810
1, 1516140, Tempo, 750000
1, 1526220, Tempo, 821917
1, 1526940, Tempo, 857142
1, 1527180, Tempo, 909090
1, 1528380, Tempo, 750000
1, 1539180, Tempo, 731707
1, 1547820, Tempo, 697674
1, 1549260, Tempo, 810810
1, 1549980, Tempo, 857142
1, 1550700, Tempo, 750000
1, 1566540, Tempo, 731707
1, 1570140, Tempo, 750000
1, 1577820, Tempo, 714285
1, 1578060, Tempo, 750000
1, 1586700, Tempo, 714285
1, 1589580, Tempo, 697674
1, 1593900, Tempo, 681818
1, 1598220, Tempo, 666666
1, 1599660, Tempo, 681818
1, 1601100, Tempo, 697674
1, 1602540, Tempo, 714285
1, 1603260, Tempo, 750000
1, 1603500, Tempo, 882352
1, 1603980, Tempo, 714285
1, 1615260, Tempo, 697674
1, 1627020, Tempo, 681818
1, 1635660, Tempo, 750000
1, 1636380, Tempo, 857142
1, 1637100, Tempo, 750000
1, 1650060, Tempo, 810810
1, 1650780, Tempo, 895522
1, 1651260, Tempo, 1000000
1, 1651500, Tempo, 750000
1, 1661580, Tempo, 857142
1, 1662300, Tempo, 1000000
1, 1663140, Tempo, 750000
1, 1668780, Tempo, 833333
1, 1672140, Tempo, 750000
1, 1677420, Tempo, 731707
1, 1678860, Tempo, 714285
1, 1680300, Tempo, 697674
1, 1681740, Tempo, 681818
1, 1683180, Tempo, 666666
1, 1684620, Tempo, 652173
1, 1686060, Tempo, 638297
1, 1687500, Tempo, 625000
1, 1690380, Tempo, 689655
1, 1697820, Tempo, 697674
1, 1703580, Tempo, 697674
1, 1709340, Tempo, 681818
1, 1717980, Tempo, 681818
1, 1726620, Tempo, 697674
1, 1729260, Tempo, 681818
1, 1732380, Tempo, 638297
1, 1735260, Tempo, 652173
1, 1736700, Tempo, 666666
1, 1738140, Tempo, 697674
1, 1739580, Tempo, 731707
1, 1746420, Tempo, 714285
1, 1748220, Tempo, 697674
1, 1751100, Tempo, 681818
1, 1753980, Tempo, 652173
1, 1756860, Tempo, 638297
1, 1759740, Tempo, 625000
1, 1761180, Tempo, 666666
1, 1762620, Tempo, 697674
1, 1765500, Tempo, 714285
1, 1766940, Tempo, 731707
1, 1768380, Tempo, 750000
1, 1774140, Tempo, 789473
1, 1775580, Tempo, 810810
1, 1776300, Tempo, 857142
1, 1776780, Tempo, 869565
1, 1777020, Tempo, 882352
1, 1780980, Tempo, 909090
1, 1784220, Tempo, 1000000
1, 1787400, Tempo, 1071428
1, 1789320, Tempo, 750000
1, 1790760, Tempo, 833333
1, 1802760, Tempo, 714285
1, 1805640, Tempo, 750000
1, 1807080, Tempo, 857142
1, 1807560, Tempo, 967741
1, 1807800, Tempo, 1000000
1, 1808520, Tempo, 882352
1, 1811520, Tempo, 789473
1, 1815840, Tempo, 857142
1, 1816560, Tempo, 909090
1, 1816800, Tempo, 1000000
1, 1817040, Tempo, 1153846
1, 1817280, Tempo, 2000000
1, 1817280, End_track
2, 0, Start_track
2, 0, Title_t, "Symphony No. 6"
2, 0, MIDI_port, 0
2, 0, Channel_prefix, 0
2, 0, Control_c, 0, 7, 127
2, 0, Control_c, 0, 10, 50
2, 0, Control_c, 0, 91, 95
2, 0, Program_c, 0, 73
2, 34920, Note_on_c, 0, 77, 75
2, 34920, Note_on_c, 0, 81, 75
2, 35000, Note_off_c, 0, 81, 64
2, 35000, Note_off_c, 0, 77, 64
2, 35160, Note_on_c, 0, 77, 75
2, 35160, Note_on_c, 0, 81, 75
2, 35240, Note_off_c, 0, 81, 64
2, 35240, Note_off_c, 0, 77, 64
2, 35400, Note_on_c, 0, 79, 75
2, 35400, Note_on_c, 0, 82, 75
2, 35480, Note_off_c, 0, 82, 64
2, 35480, Note_off_c, 0, 79, 64
2, 35640, Note_on_c, 0, 82, 75
2, 35640, Note_on_c, 0, 86, 75
2, 35720, Note_off_c, 0, 86, 64
2, 35720, Note_off_c, 0, 82, 64
2, 35880, Note_on_c, 0, 81, 75
2, 35880, Note_on_c, 0, 84, 75
2, 36120, Note_off_c, 0, 84, 64
2, 36120, Note_off_c, 0, 81, 64
2, 36120, Note_on_c, 0, 79, 75
2, 36120, Note_on_c, 0, 82, 75
2, 36240, Note_off_c, 0, 82, 64
2, 36240, Note_off_c, 0, 79, 64
2, 36240, Note_on_c, 0, 77, 75
2, 36240, Note_on_c, 0, 81, 75
2, 36355, Note_off_c, 0, 81, 64
2, 36355, Note_off_c, 0, 77, 64
2, 36360, Note_on_c, 0, 76, 75
2, 36360, Note_on_c, 0, 79, 75
2, 36440, Note_off_c, 0, 79, 64
2, 36440, Note_off_c, 0, 76, 64
2, 36600, Note_on_c, 0, 72, 75
2, 36680, Note_off_c, 0, 72, 64
2, 36840, Note_on_c, 0, 77, 75
2, 36920, Note_off_c, 0, 77, 64
2, 37080, Note_on_c, 0, 76, 75
2, 37080, Note_on_c, 0, 79, 75
2, 37160, Note_off_c, 0, 79, 64
2, 37160, Note_off_c, 0, 76, 64
2, 37320, Note_on_c, 0, 77, 75
2, 37320, Note_on_c, 0, 81, 75
2, 37560, Note_off_c, 0, 81, 64
2, 37560, Note_off_c, 0, 77, 64
2, 37560, Note_on_c, 0, 79, 75
2, 37560, Note_on_c, 0, 82, 75
2, 37680, Note_off_c, 0, 82, 64
2, 37680, Note_off_c, 0, 79, 64
2, 37680, Note_on_c, 0, 77, 75
2, 37680, Note_on_c, 0, 81, 75
2, 37795, Note_off_c, 0, 81, 64
2, 37795, Note_off_c, 0, 77, 64
2, 37800, Note_on_c, 0, 76, 75
2, 37800, Note_on_c, 0, 79, 75
2, 37880, Note_off_c, 0, 79, 64
2, 37880, Note_off_c, 0, 76, 64
2, 38040, Note_on_c, 0, 77, 75
2, 38040, Note_on_c, 0, 81, 75
2, 38120, Note_off_c, 0, 81, 64
2, 38120, Note_off_c, 0, 77, 64
2, 38280, Note_on_c, 0, 79, 75
2, 38280, Note_on_c, 0, 82, 75
2, 38520, Note_off_c, 0, 82, 64
2, 38520, Note_off_c, 0, 79, 64
2, 38520, Note_on_c, 0, 81, 75
2, 38520, Note_on_c, 0, 84, 75
2, 38640, Note_off_c, 0, 84, 64
2, 38640, Note_off_c, 0, 81, 64
2, 38640, Note_on_c, 0, 79, 75
2, 38640, Note_on_c, 0, 82, 75
2, 38755, Note_off_c, 0, 82, 64
2, 38755, Note_off_c, 0, 79, 64
2, 38760, Note_on_c, 0, 77, 75
2, 38760, Note_on_c, 0, 81, 75
2, 39000, Note_off_c, 0, 81, 64
2, 39000, Note_off_c, 0, 77, 64
2, 39000, Note_on_c, 0, 81, 75
2, 39000, Note_on_c, 0, 84, 75
2, 39080, Note_off_c, 0, 84, 64
2, 39080, Note_off_c, 0, 81, 64
2, 39240, Note_on_c, 0, 81, 75
2, 39240, Note_on_c, 0, 84, 75
2, 39320, Note_off_c, 0, 84, 64
2, 39320, Note_off_c, 0, 81, 64
2, 39480, Note_on_c, 0, 81, 75
2, 39480, Note_on_c, 0, 84, 75
2, 39560, Note_off_c, 0, 84, 64
2, 39560, Note_off_c, 0, 81, 64
2, 39720, Note_on_c, 0, 86, 75
2, 39780, Note_off_c, 0, 86, 64
2, 39780, Note_on_c, 0, 84, 75
2, 39840, Note_off_c, 0, 84, 64
2, 39840, Note_on_c, 0, 83, 75
2, 39900, Note_off_c, 0, 83, 64
2, 39900, Note_on_c, 0, 84, 75
2, 40195, Note_off_c, 0, 84, 64
2, 40200, Note_on_c, 0, 86, 75
2, 40260, Note_off_c, 0, 86, 64
2, 40260, Note_on_c, 0, 84, 75
2, 40320, Note_off_c, 0, 84, 64
2, 40320, Note_on_c, 0, 83, 75
2, 40380, Note_off_c, 0, 83, 64
2, 40380, Note_on_c, 0, 84, 75
2, 40675, Note_off_c, 0, 84, 64
2, 40680, Note_on_c, 0, 72, 75
2, 40680, Note_on_c, 0, 76, 75
2, 40760, Note_off_c, 0, 76, 64
2, 40760, Note_off_c, 0, 72, 64
2, 40920, Note_on_c, 0, 74, 75
2, 40920, Note_on_c, 0, 77, 75
2, 41000, Note_off_c, 0, 77, 64
2, 41000, Note_off_c, 0, 74, 64
2, 41160, Note_on_c, 0, 76, 75
2, 41160, Note_on_c, 0, 79, 75
2, 41400, Note_off_c, 0, 79, 64
2, 41400, Note_off_c, 0, 76, 64
2, 41400, Note_on_c, 0, 77, 75
2, 41400, Note_on_c, 0, 81, 75
2, 41520, Note_off_c, 0, 81, 64
2, 41520, Note_off_c, 0, 77, 64
2, 41520, Note_on_c, 0, 76, 75
2, 41520, Note_on_c, 0, 79, 75
2, 41635, Note_off_c, 0, 79, 64
2, 41635, Note_off_c, 0, 76, 64
2, 41640, Note_on_c, 0, 74, 75
2, 41640, Note_on_c, 0, 77, 75
2, 41720, Note_off_c, 0, 77, 64
2, 41720, Note_off_c, 0, 74, 64
2, 41880, Note_on_c, 0, 76, 75
2, 41880, Note_on_c, 0, 79, 75
2, 41960, Note_off_c, 0, 79, 64
2, 41960, Note_off_c, 0, 76, 64
2, 42120, Note_on_c, 0, 77, 75
2, 42120, Note_on_c, 0, 81, 75
2, 42360, Note_off_c, 0, 81, 64
2, 42360, Note_off_c, 0, 77, 64
2, 42360, Note_on_c, 0, 79, 75
2, 42360, Note_on_c, 0, 82, 75
2, 42480, Note_off_c, 0, 82, 64
2, 42480, Note_off_c, 0, 79, 64
2, 42480, Note_on_c, 0, 77, 75
2, 42480, Note_on_c, 0, 81, 75
2, 42595, Note_off_c, 0, 81, 64
2, 42595, Note_off_c, 0, 77, 64
2, 42600, Note_on_c, 0, 76, 75
2, 42600, Note_on_c, 0, 79, 75
2, 42840, Note_off_c, 0, 79, 64
2, 42840, Note_off_c, 0, 76, 64
2, 42840, Note_on_c, 0, 79, 75
2, 42840, Note_on_c, 0, 82, 75
2, 42920, Note_off_c, 0, 82, 64
2, 42920, Note_off_c, 0, 79, 64
2, 43080, Note_on_c, 0, 79, 75
2, 43080, Note_on_c, 0, 82, 75
2, 43160, Note_off_c, 0, 82, 64
2, 43160, Note_off_c, 0, 79, 64
2, 43320, Note_on_c, 0, 79, 75
2, 43320, Note_on_c, 0, 82, 75
2, 43400, Note_off_c, 0, 82, 64
2, 43400, Note_off_c, 0, 79, 64
2, 43560, Note_on_c, 0, 84, 75
2, 43620, Note_off_c, 0, 84, 64
2, 43620, Note_on_c, 0, 82, 75
2, 43680, Note_off_c, 0, 82, 64
2, 43680, Note_on_c, 0, 81, 75
2, 43740, Note_off_c, 0, 81, 64
2, 43740, Note_on_c, 0, 82, 75
2, 43795, Note_off_c, 0, 82, 64
2, 44040, Note_on_c, 0, 86, 75
2, 44100, Note_off_c, 0, 86, 64
2, 44100, Note_on_c, 0, 84, 75
2, 44160, Note_off_c, 0, 84, 64
2, 44160, Note_on_c, 0, 83, 75
2, 44220, Note_off_c, 0, 83, 64
2, 44220, Note_on_c, 0, 84, 75
2, 44275, Note_off_c, 0, 84, 64
2, 45000, Note_on_c, 0, 86, 75
2, 45060, Note_off_c, 0, 86, 64
2, 45060, Note_on_c, 0, 84, 75
2, 45120, Note_off_c, 0, 84, 64
2, 45120, Note_on_c, 0, 83, 75
2, 45180, Note_off_c, 0, 83, 64
2, 45180, Note_on_c, 0, 84, 75
2, 45235, Note_off_c, 0, 84, 64
2, 45960, Note_on_c, 0, 86, 75
2, 46020, Note_off_c, 0, 86, 64
2, 46020, Note_on_c, 0, 84, 75
2, 46080, Note_off_c, 0, 84, 64
2, 46080, Note_on_c, 0, 82, 75
2, 46140, Note_off_c, 0, 82, 64
2, 46140, Note_on_c, 0, 84, 75
2, 46195, Note_off_c, 0, 84, 64
2, 46920, Note_on_c, 0, 86, 75
2, 46980, Note_off_c, 0, 86, 64
2, 46980, Note_on_c, 0, 84, 75
2, 47040, Note_off_c, 0, 84, 64
2, 47040, Note_on_c, 0, 82, 75
2, 47100, Note_off_c, 0, 82, 64
2, 47100, Note_on_c, 0, 84, 75
2, 47155, Note_off_c, 0, 84, 64
2, 47880, Note_on_c, 0, 86, 75
2, 47940, Note_off_c, 0, 86, 64
2, 47940, Note_on_c, 0, 84, 75
2, 48000, Note_off_c, 0, 84, 64
2, 48000, Note_on_c, 0, 82, 75
2, 48060, Note_off_c, 0, 82, 64
2, 48060, Note_on_c, 0, 84, 75
2, 48115, Note_off_c, 0, 84, 64
2, 48360, Note_on_c, 0, 86, 75
2, 48420, Note_off_c, 0, 86, 64
2, 48420, Note_on_c, 0, 84, 75
2, 48480, Note_off_c, 0, 84, 64
2, 48480, Note_on_c, 0, 82, 75
2, 48540, Note_off_c, 0, 82, 64
2, 48540, Note_on_c, 0, 84, 75
2, 48595, Note_off_c, 0, 84, 64
2, 49320, Note_on_c, 0, 86, 75
2, 49380, Note_off_c, 0, 86, 64
2, 49380, Note_on_c, 0, 84, 75
2, 49440, Note_off_c, 0, 84, 64
2, 49440, Note_on_c, 0, 82, 75
2, 49500, Note_off_c, 0, 82, 64
2, 49500, Note_on_c, 0, 84, 75
2, 49795, Note_off_c, 0, 84, 64
2, 50040, Note_on_c, 0, 84, 53
2, 50275, Note_off_c, 0, 84, 64
2, 50280, Note_on_c, 0, 77, 45
2, 50280, Note_on_c, 0, 81, 45
2, 50515, Note_off_c, 0, 81, 64
2, 50515, Note_off_c, 0, 77, 64
2, 75240, Note_on_c, 0, 79, 45
2, 77040, Note_off_c, 0, 79, 64
2, 77160, Note_on_c, 0, 84, 45
2, 78960, Note_off_c, 0, 84, 64
2, 79080, Note_on_c, 0, 83, 45
2, 79480, Note_off_c, 0, 83, 64
2, 79560, Note_on_c, 0, 83, 45
2, 79960, Note_off_c, 0, 83, 64
2, 80040, Note_on_c, 0, 83, 45
2, 80520, Note_off_c, 0, 83, 64
2, 80520, Note_on_c, 0, 86, 45
2, 80760, Note_off_c, 0, 86, 64
2, 80760, Note_on_c, 0, 83, 45
2, 80995, Note_off_c, 0, 83, 64
2, 81000, Note_on_c, 0, 84, 45
2, 81400, Note_off_c, 0, 84, 64
2, 81480, Note_on_c, 0, 84, 45
2, 81880, Note_off_c, 0, 84, 64
2, 81960, Note_on_c, 0, 84, 45
2, 82440, Note_off_c, 0, 84, 64
2, 82440, Note_on_c, 0, 88, 45
2, 82680, Note_off_c, 0, 88, 64
2, 82680, Note_on_c, 0, 84, 45
2, 82915, Note_off_c, 0, 84, 64
2, 82920, Note_on_c, 0, 93, 45
2, 83160, Note_off_c, 0, 93, 64
2, 83160, Note_on_c, 0, 91, 45
2, 83400, Note_off_c, 0, 91, 64
2, 83400, Note_on_c, 0, 89, 45
2, 83640, Note_off_c, 0, 89, 64
2, 83640, Note_on_c, 0, 86, 45
2, 83880, Note_off_c, 0, 86, 64
2, 83880, Note_on_c, 0, 79, 45
2, 84120, Note_off_c, 0, 79, 64
2, 84120, Note_on_c, 0, 89, 48
2, 84360, Note_off_c, 0, 89, 64
2, 84360, Note_on_c, 0, 86, 52
2, 84600, Note_off_c, 0, 86, 64
2, 84600, Note_on_c, 0, 79, 56
2, 84835, Note_off_c, 0, 79, 64
2, 84840, Note_on_c, 0, 93, 60
2, 85080, Note_off_c, 0, 93, 64
2, 85080, Note_on_c, 0, 91, 64
2, 85320, Note_off_c, 0, 91, 64
2, 85320, Note_on_c, 0, 88, 68
2, 85560, Note_off_c, 0, 88, 64
2, 85560, Note_on_c, 0, 84, 72
2, 85800, Note_off_c, 0, 84, 64
2, 85800, Note_on_c, 0, 79, 76
2, 86040, Note_off_c, 0, 79, 64
2, 86040, Note_on_c, 0, 88, 80
2, 86280, Note_off_c, 0, 88, 64
2, 86280, Note_on_c, 0, 84, 84
2, 86520, Note_off_c, 0, 84, 64
2, 86520, Note_on_c, 0, 79, 88
2, 86755, Note_off_c, 0, 79, 64
2, 86760, Note_on_c, 0, 93, 92
2, 87000, Note_off_c, 0, 93, 64
2, 87000, Note_on_c, 0, 91, 92
2, 87240, Note_off_c, 0, 91, 64
2, 87240, Note_on_c, 0, 89, 92
2, 87480, Note_off_c, 0, 89, 64
2, 87480, Note_on_c, 0, 86, 92
2, 87720, Note_off_c, 0, 86, 64
2, 87720, Note_on_c, 0, 79, 92
2, 87960, Note_off_c, 0, 79, 64
2, 87960, Note_on_c, 0, 89, 84
2, 88200, Note_off_c, 0, 89, 64
2, 88200, Note_on_c, 0, 86, 76
2, 88440, Note_off_c, 0, 86, 64
2, 88440, Note_on_c, 0, 79, 68
2, 88675, Note_off_c, 0, 79, 64
2, 88680, Note_on_c, 0, 88, 60
2, 88680, Note_on_c, 0, 91, 60
2, 88915, Note_off_c, 0, 91, 64
2, 88915, Note_off_c, 0, 88, 64
2, 91560, Note_on_c, 0, 89, 60
2, 91560, Note_on_c, 0, 93, 60
2, 91800, Note_off_c, 0, 93, 64
2, 91800, Note_off_c, 0, 89, 64
2, 98280, Note_on_c, 0, 89, 60
2, 98280, Note_on_c, 0, 93, 60
2, 98520, Note_off_c, 0, 93, 64
2, 98520, Note_off_c, 0, 89, 64
2, 107400, Note_on_c, 0, 89, 75
2, 107400, Note_on_c, 0, 93, 75
2, 107635, Note_off_c, 0, 93, 64
2, 107635, Note_off_c, 0, 89, 64
2, 107880, Note_on_c, 0, 88, 75
2, 107880, Note_on_c, 0, 91, 75
2, 108115, Note_off_c, 0, 91, 64
2, 108115, Note_off_c, 0, 88, 64
2, 108360, Note_on_c, 0, 84, 75
2, 108360, Note_on_c, 0, 88, 75
2, 108595, Note_off_c, 0, 88, 64
2, 108595, Note_off_c, 0, 84, 64
2, 108840, Note_on_c, 0, 83, 75
2, 108840, Note_on_c, 0, 86, 75
2, 109075, Note_off_c, 0, 86, 64
2, 109075, Note_off_c, 0, 83, 64
2, 109320, Note_on_c, 0, 83, 75
2, 109320, Note_on_c, 0, 91, 75
2, 109555, Note_off_c, 0, 91, 64
2, 109555, Note_off_c, 0, 83, 64
2, 109800, Note_on_c, 0, 72, 60
2, 109800, Note_on_c, 0, 84, 60
2, 110280, Note_off_c, 0, 84, 64
2, 110280, Note_off_c, 0, 72, 64
2, 110280, Note_on_c, 0, 67, 60
2, 110280, Note_on_c, 0, 79, 60
2, 111600, Note_off_c, 0, 79, 64
2, 111600, Note_off_c, 0, 67, 64
2, 111720, Note_on_c, 0, 76, 60
2, 111720, Note_on_c, 0, 88, 60
2, 112200, Note_off_c, 0, 88, 64
2, 112200, Note_off_c, 0, 76, 64
2, 112200, Note_on_c, 0, 72, 60
2, 112200, Note_on_c, 0, 84, 60
2, 113520, Note_off_c, 0, 84, 64
2, 113520, Note_off_c, 0, 72, 64
2, 113640, Note_on_c, 0, 72, 60
2, 113640, Note_on_c, 0, 84, 60
2, 114120, Note_off_c, 0, 84, 64
2, 114120, Note_off_c, 0, 72, 64
2, 114120, Note_on_c, 0, 67, 60
2, 114120, Note_on_c, 0, 79, 60
2, 115440, Note_off_c, 0, 79, 64
2, 115440, Note_off_c, 0, 67, 64
2, 115560, Note_on_c, 0, 76, 60
2, 115560, Note_on_c, 0, 88, 60
2, 116040, Note_off_c, 0, 88, 64
2, 116040, Note_off_c, 0, 76, 64
2, 116040, Note_on_c, 0, 72, 60
2, 116040, Note_on_c, 0, 84, 60
2, 117360, Note_off_c, 0, 84, 64
2, 117360, Note_off_c, 0, 72, 64
2, 117480, Note_on_c, 0, 72, 60
2, 117480, Note_on_c, 0, 84, 60
2, 117960, Note_off_c, 0, 84, 64
2, 117960, Note_off_c, 0, 72, 64
2, 117960, Note_on_c, 0, 67, 60
2, 117960, Note_on_c, 0, 79, 60
2, 118440, Note_off_c, 0, 79, 64
2, 118440, Note_off_c, 0, 67, 64
2, 118440, Note_on_c, 0, 72, 60
2, 118440, Note_on_c, 0, 84, 60
2, 118920, Note_off_c, 0, 84, 64
2, 118920, Note_off_c, 0, 72, 64
2, 118920, Note_on_c, 0, 67, 60
2, 118920, Note_on_c, 0, 79, 60
2, 119400, Note_off_c, 0, 79, 64
2, 119400, Note_off_c, 0, 67, 64
2, 119400, Note_on_c, 0, 72, 60
2, 119400, Note_on_c, 0, 84, 60
2, 119880, Note_off_c, 0, 84, 64
2, 119880, Note_off_c, 0, 72, 64
2, 119880, Note_on_c, 0, 67, 60
2, 119880, Note_on_c, 0, 79, 60
2, 120360, Note_off_c, 0, 79, 64
2, 120360, Note_off_c, 0, 67, 64
2, 120360, Note_on_c, 0, 72, 60
2, 120360, Note_on_c, 0, 84, 60
2, 120840, Note_off_c, 0, 84, 64
2, 120840, Note_off_c, 0, 72, 64
2, 120840, Note_on_c, 0, 67, 60
2, 120840, Note_on_c, 0, 79, 60
2, 121320, Note_off_c, 0, 79, 64
2, 121320, Note_off_c, 0, 67, 64
2, 121320, Note_on_c, 0, 72, 30
2, 121320, Note_on_c, 0, 84, 30
2, 121555, Note_off_c, 0, 84, 64
2, 121555, Note_off_c, 0, 72, 64
2, 141960, Note_on_c, 0, 86, 45
2, 142200, Note_off_c, 0, 86, 64
2, 142200, Note_on_c, 0, 87, 45
2, 142280, Note_off_c, 0, 87, 64
2, 142440, Note_on_c, 0, 91, 45
2, 142520, Note_off_c, 0, 91, 64
2, 143880, Note_on_c, 0, 86, 45
2, 144120, Note_off_c, 0, 86, 64
2, 144120, Note_on_c, 0, 87, 45
2, 144200, Note_off_c, 0, 87, 64
2, 144360, Note_on_c, 0, 91, 45
2, 144440, Note_off_c, 0, 91, 64
2, 148440, Note_on_c, 0, 82, 45
2, 148520, Note_off_c, 0, 82, 64
2, 148680, Note_on_c, 0, 77, 46
2, 148800, Note_off_c, 0, 77, 64
2, 148800, Note_on_c, 0, 75, 46
2, 148920, Note_off_c, 0, 75, 64
2, 148920, Note_on_c, 0, 74, 46
2, 149000, Note_off_c, 0, 74, 64
2, 149160, Note_on_c, 0, 70, 47
2, 149240, Note_off_c, 0, 70, 64
2, 149400, Note_on_c, 0, 82, 48
2, 149480, Note_off_c, 0, 82, 64
2, 149640, Note_on_c, 0, 77, 49
2, 149760, Note_off_c, 0, 77, 64
2, 149760, Note_on_c, 0, 75, 49
2, 149880, Note_off_c, 0, 75, 64
2, 149880, Note_on_c, 0, 74, 49
2, 149960, Note_off_c, 0, 74, 64
2, 150120, Note_on_c, 0, 70, 50
2, 150200, Note_off_c, 0, 70, 64
2, 150360, Note_on_c, 0, 82, 51
2, 150440, Note_off_c, 0, 82, 64
2, 150600, Note_on_c, 0, 77, 52
2, 150720, Note_off_c, 0, 77, 64
2, 150720, Note_on_c, 0, 75, 52
2, 150840, Note_off_c, 0, 75, 64
2, 150840, Note_on_c, 0, 74, 52
2, 150920, Note_off_c, 0, 74, 64
2, 151080, Note_on_c, 0, 70, 54
2, 151160, Note_off_c, 0, 70, 64
2, 151320, Note_on_c, 0, 82, 56
2, 151400, Note_off_c, 0, 82, 64
2, 151560, Note_on_c, 0, 77, 58
2, 151680, Note_off_c, 0, 77, 64
2, 151680, Note_on_c, 0, 75, 59
2, 151800, Note_off_c, 0, 75, 64
2, 151800, Note_on_c, 0, 74, 60
2, 151880, Note_off_c, 0, 74, 64
2, 152040, Note_on_c, 0, 70, 60
2, 152120, Note_off_c, 0, 70, 64
2, 163800, Note_on_c, 0, 86, 75
2, 163880, Note_off_c, 0, 86, 64
2, 164040, Note_on_c, 0, 81, 75
2, 164160, Note_off_c, 0, 81, 64
2, 164160, Note_on_c, 0, 79, 75
2, 164280, Note_off_c, 0, 79, 64
2, 164280, Note_on_c, 0, 78, 75
2, 164360, Note_off_c, 0, 78, 64
2, 164520, Note_on_c, 0, 74, 75
2, 164600, Note_off_c, 0, 74, 64
2, 164760, Note_on_c, 0, 86, 75
2, 164840, Note_off_c, 0, 86, 64
2, 165000, Note_on_c, 0, 81, 75
2, 165120, Note_off_c, 0, 81, 64
2, 165120, Note_on_c, 0, 79, 75
2, 165240, Note_off_c, 0, 79, 64
2, 165240, Note_on_c, 0, 78, 75
2, 165320, Note_off_c, 0, 78, 64
2, 165480, Note_on_c, 0, 74, 75
2, 165560, Note_off_c, 0, 74, 64
2, 165720, Note_on_c, 0, 86, 75
2, 165800, Note_off_c, 0, 86, 64
2, 165960, Note_on_c, 0, 81, 75
2, 166080, Note_off_c, 0, 81, 64
2, 166080, Note_on_c, 0, 79, 75
2, 166200, Note_off_c, 0, 79, 64
2, 166200, Note_on_c, 0, 78, 75
2, 166280, Note_off_c, 0, 78, 64
2, 166440, Note_on_c, 0, 74, 75
2, 166520, Note_off_c, 0, 74, 64
2, 166680, Note_on_c, 0, 86, 75
2, 166760, Note_off_c, 0, 86, 64
2, 166920, Note_on_c, 0, 81, 75
2, 167040, Note_off_c, 0, 81, 64
2, 167040, Note_on_c, 0, 79, 75
2, 167160, Note_off_c, 0, 79, 64
2, 167160, Note_on_c, 0, 78, 75
2, 167240, Note_off_c, 0, 78, 64
2, 167400, Note_on_c, 0, 74, 75
2, 167480, Note_off_c, 0, 74, 64
2, 167640, Note_on_c, 0, 86, 75
2, 168280, Note_off_c, 0, 86, 64
2, 168360, Note_on_c, 0, 86, 75
2, 168595, Note_off_c, 0, 86, 64
2, 168600, Note_on_c, 0, 86, 75
2, 169240, Note_off_c, 0, 86, 64
2, 169320, Note_on_c, 0, 86, 75
2, 169555, Note_off_c, 0, 86, 64
2, 169560, Note_on_c, 0, 86, 75
2, 170200, Note_off_c, 0, 86, 64
2, 170280, Note_on_c, 0, 86, 75
2, 170515, Note_off_c, 0, 86, 64
2, 170520, Note_on_c, 0, 86, 75
2, 171160, Note_off_c, 0, 86, 64
2, 171240, Note_on_c, 0, 86, 75
2, 171475, Note_off_c, 0, 86, 64
2, 171480, Note_on_c, 0, 86, 75
2, 171715, Note_off_c, 0, 86, 64
2, 173400, Note_on_c, 0, 86, 75
2, 173635, Note_off_c, 0, 86, 64
2, 187800, Note_on_c, 0, 81, 45
2, 187880, Note_off_c, 0, 81, 64
2, 188040, Note_on_c, 0, 83, 45
2, 188120, Note_off_c, 0, 83, 64
2, 188280, Note_on_c, 0, 84, 45
2, 188520, Note_off_c, 0, 84, 64
2, 188520, Note_on_c, 0, 86, 45
2, 188640, Note_off_c, 0, 86, 64
2, 188640, Note_on_c, 0, 84, 45
2, 188755, Note_off_c, 0, 84, 64
2, 188760, Note_on_c, 0, 83, 45
2, 188995, Note_off_c, 0, 83, 64
2, 200280, Note_on_c, 0, 68, 45
2, 200280, Note_on_c, 0, 76, 45
2, 204000, Note_off_c, 0, 76, 64
2, 204000, Note_off_c, 0, 68, 64
2, 204120, Note_on_c, 0, 68, 53
2, 204120, Note_on_c, 0, 76, 53
2, 207840, Note_off_c, 0, 76, 64
2, 207840, Note_off_c, 0, 68, 64
2, 207960, Note_on_c, 0, 80, 63
2, 208200, Note_on_c, 0, 88, 63
2, 208435, Note_off_c, 0, 88, 64
2, 208440, Note_on_c, 0, 83, 63
2, 208675, Note_off_c, 0, 83, 64
2, 208915, Note_off_c, 0, 80, 64
2, 208920, Note_on_c, 0, 80, 63
2, 209160, Note_on_c, 0, 88, 64
2, 209395, Note_off_c, 0, 88, 64
2, 209400, Note_on_c, 0, 83, 65
2, 209635, Note_off_c, 0, 83, 64
2, 209875, Note_off_c, 0, 80, 64
2, 209880, Note_on_c, 0, 80, 67
2, 210120, Note_on_c, 0, 88, 68
2, 210355, Note_off_c, 0, 88, 64
2, 210360, Note_on_c, 0, 83, 69
2, 210595, Note_off_c, 0, 83, 64
2, 210835, Note_off_c, 0, 80, 64
2, 210840, Note_on_c, 0, 80, 71
2, 211080, Note_on_c, 0, 88, 72
2, 211315, Note_off_c, 0, 88, 64
2, 211320, Note_on_c, 0, 83, 73
2, 211555, Note_off_c, 0, 83, 64
2, 211795, Note_off_c, 0, 80, 64
2, 211800, Note_on_c, 0, 88, 75
2, 212440, Note_off_c, 0, 88, 64
2, 212520, Note_on_c, 0, 88, 75
2, 212755, Note_off_c, 0, 88, 64
2, 212760, Note_on_c, 0, 88, 75
2, 213400, Note_off_c, 0, 88, 64
2, 213480, Note_on_c, 0, 88, 75
2, 213715, Note_off_c, 0, 88, 64
2, 213720, Note_on_c, 0, 88, 75
2, 214360, Note_off_c, 0, 88, 64
2, 214440, Note_on_c, 0, 88, 75
2, 214675, Note_off_c, 0, 88, 64
2, 214680, Note_on_c, 0, 88, 75
2, 215320, Note_off_c, 0, 88, 64
2, 215400, Note_on_c, 0, 88, 75
2, 215635, Note_off_c, 0, 88, 64
2, 215640, Note_on_c, 0, 88, 75
2, 215875, Note_off_c, 0, 88, 64
2, 217560, Note_on_c, 0, 88, 75
2, 217795, Note_off_c, 0, 88, 64
2, 231000, Note_on_c, 0, 81, 60
2, 231080, Note_off_c, 0, 81, 64
2, 231240, Note_on_c, 0, 83, 60
2, 231320, Note_off_c, 0, 83, 64
2, 231480, Note_on_c, 0, 81, 60
2, 231480, Note_on_c, 0, 85, 60
2, 231720, Note_off_c, 0, 85, 64
2, 231720, Note_off_c, 0, 81, 64
2, 231720, Note_on_c, 0, 83, 60
2, 231720, Note_on_c, 0, 86, 60
2, 231840, Note_off_c, 0, 86, 64
2, 231840, Note_off_c, 0, 83, 64
2, 231840, Note_on_c, 0, 81, 60
2, 231840, Note_on_c, 0, 85, 60
2, 231960, Note_off_c, 0, 85, 64
2, 231960, Note_off_c, 0, 81, 64
2, 231960, Note_on_c, 0, 83, 60
2, 232040, Note_off_c, 0, 83, 64
2, 232200, Note_on_c, 0, 85, 60
2, 232280, Note_off_c, 0, 85, 64
2, 232440, Note_on_c, 0, 83, 60
2, 232440, Note_on_c, 0, 86, 60
2, 232680, Note_off_c, 0, 86, 64
2, 232680, Note_off_c, 0, 83, 64
2, 232680, Note_on_c, 0, 85, 60
2, 232680, Note_on_c, 0, 88, 60
2, 232800, Note_off_c, 0, 88, 64
2, 232800, Note_off_c, 0, 85, 64
2, 232800, Note_on_c, 0, 83, 60
2, 232800, Note_on_c, 0, 86, 60
2, 232915, Note_off_c, 0, 86, 64
2, 232915, Note_off_c, 0, 83, 64
2, 232920, Note_on_c, 0, 81, 60
2, 232920, Note_on_c, 0, 85, 60
2, 233400, Note_off_c, 0, 85, 64
2, 233400, Note_off_c, 0, 81, 64
2, 233400, Note_on_c, 0, 85, 60
2, 233400, Note_on_c, 0, 88, 60
2, 233880, Note_off_c, 0, 88, 64
2, 233880, Note_off_c, 0, 85, 64
2, 233880, Note_on_c, 0, 83, 60
2, 233880, Note_on_c, 0, 86, 60
2, 234600, Note_off_c, 0, 86, 64
2, 234600, Note_off_c, 0, 83, 64
2, 234600, Note_on_c, 0, 81, 60
2, 234600, Note_on_c, 0, 85, 60
2, 234840, Note_off_c, 0, 85, 64
2, 234840, Note_off_c, 0, 81, 64
2, 234840, Note_on_c, 0, 86, 60
2, 234840, Note_on_c, 0, 90, 60
2, 235320, Note_off_c, 0, 90, 64
2, 235320, Note_off_c, 0, 86, 64
2, 235320, Note_on_c, 0, 85, 60
2, 235320, Note_on_c, 0, 88, 60
2, 235800, Note_off_c, 0, 88, 64
2, 235800, Note_off_c, 0, 85, 64
2, 235800, Note_on_c, 0, 80, 60
2, 235800, Note_on_c, 0, 83, 60
2, 235970, Note_off_c, 0, 83, 64
2, 236040, Note_on_c, 0, 83, 60
2, 236160, Note_off_c, 0, 83, 64
2, 236160, Note_on_c, 0, 85, 60
2, 236280, Note_off_c, 0, 85, 64
2, 236280, Note_on_c, 0, 86, 60
2, 236520, Note_off_c, 0, 86, 64
2, 236520, Note_on_c, 0, 83, 60
2, 236640, Note_off_c, 0, 80, 64
2, 236760, Note_off_c, 0, 83, 64
2, 236760, Note_on_c, 0, 81, 45
2, 236760, Note_on_c, 0, 85, 45
2, 237160, Note_off_c, 0, 85, 64
2, 237160, Note_off_c, 0, 81, 64
2, 252120, Note_on_c, 0, 76, 75
2, 252600, Note_off_c, 0, 76, 64
2, 252600, Note_on_c, 0, 79, 75
2, 253000, Note_off_c, 0, 79, 64
2, 253080, Note_on_c, 0, 77, 75
2, 253800, Note_off_c, 0, 77, 64
2, 253800, Note_on_c, 0, 76, 75
2, 254035, Note_off_c, 0, 76, 64
2, 254040, Note_on_c, 0, 81, 75
2, 254520, Note_off_c, 0, 81, 64
2, 254520, Note_on_c, 0, 79, 75
2, 255000, Note_off_c, 0, 79, 64
2, 255000, Note_on_c, 0, 77, 75
2, 255080, Note_off_c, 0, 77, 64
2, 255240, Note_on_c, 0, 77, 75
2, 255360, Note_off_c, 0, 77, 64
2, 255360, Note_on_c, 0, 79, 75
2, 255480, Note_off_c, 0, 79, 64
2, 255480, Note_on_c, 0, 81, 75
2, 255560, Note_off_c, 0, 81, 64
2, 255720, Note_on_c, 0, 77, 75
2, 255800, Note_off_c, 0, 77, 64
2, 255960, Note_on_c, 0, 79, 75
2, 256440, Note_off_c, 0, 79, 64
2, 256440, Note_on_c, 0, 82, 75
2, 256840, Note_off_c, 0, 82, 64
2, 256920, Note_on_c, 0, 81, 75
2, 257640, Note_off_c, 0, 81, 64
2, 257640, Note_on_c, 0, 79, 75
2, 257875, Note_off_c, 0, 79, 64
2, 257880, Note_on_c, 0, 84, 75
2, 258360, Note_off_c, 0, 84, 64
2, 258360, Note_on_c, 0, 82, 75
2, 258840, Note_off_c, 0, 82, 64
2, 258840, Note_on_c, 0, 81, 75
2, 258920, Note_off_c, 0, 81, 64
2, 259080, Note_on_c, 0, 81, 75
2, 259200, Note_off_c, 0, 81, 64
2, 259200, Note_on_c, 0, 82, 75
2, 259320, Note_off_c, 0, 82, 64
2, 259320, Note_on_c, 0, 84, 75
2, 259400, Note_off_c, 0, 84, 64
2, 259560, Note_on_c, 0, 81, 75
2, 259640, Note_off_c, 0, 81, 64
2, 259800, Note_on_c, 0, 86, 75
2, 260280, Note_off_c, 0, 86, 64
2, 260280, Note_on_c, 0, 84, 75
2, 260760, Note_off_c, 0, 84, 64
2, 260760, Note_on_c, 0, 82, 75
2, 260840, Note_off_c, 0, 82, 64
2, 261000, Note_on_c, 0, 79, 75
2, 261120, Note_off_c, 0, 79, 64
2, 261120, Note_on_c, 0, 81, 75
2, 261240, Note_off_c, 0, 81, 64
2, 261240, Note_on_c, 0, 82, 75
2, 261320, Note_off_c, 0, 82, 64
2, 261480, Note_on_c, 0, 84, 75
2, 261560, Note_off_c, 0, 84, 64
2, 261720, Note_on_c, 0, 86, 75
2, 262200, Note_off_c, 0, 86, 64
2, 262200, Note_on_c, 0, 84, 75
2, 262680, Note_off_c, 0, 84, 64
2, 262680, Note_on_c, 0, 82, 75
2, 262760, Note_off_c, 0, 82, 64
2, 262920, Note_on_c, 0, 79, 72
2, 263040, Note_off_c, 0, 79, 64
2, 263040, Note_on_c, 0, 81, 70
2, 263160, Note_off_c, 0, 81, 64
2, 263160, Note_on_c, 0, 82, 68
2, 263240, Note_off_c, 0, 82, 64
2, 263400, Note_on_c, 0, 84, 64
2, 263480, Note_off_c, 0, 84, 64
2, 263640, Note_on_c, 0, 86, 60
2, 264040, Note_off_c, 0, 86, 64
2, 299160, Note_on_c, 0, 69, 75
2, 299160, Note_on_c, 0, 81, 75
2, 299240, Note_off_c, 0, 81, 64
2, 299240, Note_off_c, 0, 69, 64
2, 299400, Note_on_c, 0, 77, 75
2, 299400, Note_on_c, 0, 81, 75
2, 299480, Note_off_c, 0, 81, 64
2, 299480, Note_off_c, 0, 77, 64
2, 299640, Note_on_c, 0, 79, 75
2, 299640, Note_on_c, 0, 82, 75
2, 299720, Note_off_c, 0, 82, 64
2, 299720, Note_off_c, 0, 79, 64
2, 299880, Note_on_c, 0, 82, 75
2, 299880, Note_on_c, 0, 86, 75
2, 299960, Note_off_c, 0, 86, 64
2, 299960, Note_off_c, 0, 82, 64
2, 300120, Note_on_c, 0, 81, 75
2, 300120, Note_on_c, 0, 84, 75
2, 300360, Note_off_c, 0, 84, 64
2, 300360, Note_off_c, 0, 81, 64
2, 300360, Note_on_c, 0, 79, 75
2, 300360, Note_on_c, 0, 82, 75
2, 300480, Note_off_c, 0, 82, 64
2, 300480, Note_off_c, 0, 79, 64
2, 300480, Note_on_c, 0, 77, 75
2, 300480, Note_on_c, 0, 81, 75
2, 300600, Note_off_c, 0, 81, 64
2, 300600, Note_off_c, 0, 77, 64
2, 300600, Note_on_c, 0, 76, 75
2, 300600, Note_on_c, 0, 79, 75
2, 300680, Note_off_c, 0, 79, 64
2, 300680, Note_off_c, 0, 76, 64
2, 300840, Note_on_c, 0, 72, 75
2, 300920, Note_off_c, 0, 72, 64
2, 301080, Note_on_c, 0, 77, 75
2, 301160, Note_off_c, 0, 77, 64
2, 301320, Note_on_c, 0, 76, 75
2, 301320, Note_on_c, 0, 79, 75
2, 301400, Note_off_c, 0, 79, 64
2, 301400, Note_off_c, 0, 76, 64
2, 301560, Note_on_c, 0, 77, 75
2, 301560, Note_on_c, 0, 81, 75
2, 301800, Note_off_c, 0, 81, 64
2, 301800, Note_off_c, 0, 77, 64
2, 301800, Note_on_c, 0, 79, 75
2, 301800, Note_on_c, 0, 82, 75
2, 301920, Note_off_c, 0, 82, 64
2, 301920, Note_off_c, 0, 79, 64
2, 301920, Note_on_c, 0, 77, 75
2, 301920, Note_on_c, 0, 81, 75
2, 302035, Note_off_c, 0, 81, 64
2, 302035, Note_off_c, 0, 77, 64
2, 302040, Note_on_c, 0, 76, 75
2, 302040, Note_on_c, 0, 79, 75
2, 302120, Note_off_c, 0, 79, 64
2, 302120, Note_off_c, 0, 76, 64
2, 302280, Note_on_c, 0, 77, 75
2, 302280, Note_on_c, 0, 81, 75
2, 302360, Note_off_c, 0, 81, 64
2, 302360, Note_off_c, 0, 77, 64
2, 302520, Note_on_c, 0, 79, 75
2, 302520, Note_on_c, 0, 82, 75
2, 302760, Note_off_c, 0, 82, 64
2, 302760, Note_off_c, 0, 79, 64
2, 302760, Note_on_c, 0, 81, 75
2, 302760, Note_on_c, 0, 84, 75
2, 302880, Note_off_c, 0, 84, 64
2, 302880, Note_off_c, 0, 81, 64
2, 302880, Note_on_c, 0, 79, 75
2, 302880, Note_on_c, 0, 82, 75
2, 302995, Note_off_c, 0, 82, 64
2, 302995, Note_off_c, 0, 79, 64
2, 303000, Note_on_c, 0, 77, 75
2, 303000, Note_on_c, 0, 81, 75
2, 303240, Note_off_c, 0, 81, 64
2, 303240, Note_off_c, 0, 77, 64
2, 303240, Note_on_c, 0, 81, 75
2, 303240, Note_on_c, 0, 84, 75
2, 303320, Note_off_c, 0, 84, 64
2, 303320, Note_off_c, 0, 81, 64
2, 303480, Note_on_c, 0, 81, 75
2, 303480, Note_on_c, 0, 84, 75
2, 303560, Note_off_c, 0, 84, 64
2, 303560, Note_off_c, 0, 81, 64
2, 303720, Note_on_c, 0, 81, 75
2, 303720, Note_on_c, 0, 84, 75
2, 303800, Note_off_c, 0, 84, 64
2, 303800, Note_off_c, 0, 81, 64
2, 303960, Note_on_c, 0, 86, 75
2, 304020, Note_off_c, 0, 86, 64
2, 304020, Note_on_c, 0, 84, 75
2, 304080, Note_off_c, 0, 84, 64
2, 304080, Note_on_c, 0, 83, 75
2, 304140, Note_off_c, 0, 83, 64
2, 304140, Note_on_c, 0, 84, 75
2, 304435, Note_off_c, 0, 84, 64
2, 304440, Note_on_c, 0, 86, 75
2, 304500, Note_off_c, 0, 86, 64
2, 304500, Note_on_c, 0, 84, 75
2, 304560, Note_off_c, 0, 84, 64
2, 304560, Note_on_c, 0, 83, 75
2, 304620, Note_off_c, 0, 83, 64
2, 304620, Note_on_c, 0, 84, 75
2, 304915, Note_off_c, 0, 84, 64
2, 304920, Note_on_c, 0, 72, 75
2, 304920, Note_on_c, 0, 76, 75
2, 305000, Note_off_c, 0, 76, 64
2, 305000, Note_off_c, 0, 72, 64
2, 305160, Note_on_c, 0, 74, 75
2, 305160, Note_on_c, 0, 77, 75
2, 305240, Note_off_c, 0, 77, 64
2, 305240, Note_off_c, 0, 74, 64
2, 305400, Note_on_c, 0, 76, 75
2, 305400, Note_on_c, 0, 79, 75
2, 305640, Note_off_c, 0, 79, 64
2, 305640, Note_off_c, 0, 76, 64
2, 305640, Note_on_c, 0, 77, 75
2, 305640, Note_on_c, 0, 81, 75
2, 305760, Note_off_c, 0, 81, 64
2, 305760, Note_off_c, 0, 77, 64
2, 305760, Note_on_c, 0, 76, 75
2, 305760, Note_on_c, 0, 79, 75
2, 305875, Note_off_c, 0, 79, 64
2, 305875, Note_off_c, 0, 76, 64
2, 305880, Note_on_c, 0, 74, 75
2, 305880, Note_on_c, 0, 77, 75
2, 305960, Note_off_c, 0, 77, 64
2, 305960, Note_off_c, 0, 74, 64
2, 306120, Note_on_c, 0, 76, 75
2, 306120, Note_on_c, 0, 79, 75
2, 306200, Note_off_c, 0, 79, 64
2, 306200, Note_off_c, 0, 76, 64
2, 306360, Note_on_c, 0, 77, 75
2, 306360, Note_on_c, 0, 81, 75
2, 306600, Note_off_c, 0, 81, 64
2, 306600, Note_off_c, 0, 77, 64
2, 306600, Note_on_c, 0, 79, 75
2, 306600, Note_on_c, 0, 82, 75
2, 306720, Note_off_c, 0, 82, 64
2, 306720, Note_off_c, 0, 79, 64
2, 306720, Note_on_c, 0, 77, 75
2, 306720, Note_on_c, 0, 81, 75
2, 306835, Note_off_c, 0, 81, 64
2, 306835, Note_off_c, 0, 77, 64
2, 306840, Note_on_c, 0, 76, 75
2, 306840, Note_on_c, 0, 79, 75
2, 307080, Note_off_c, 0, 79, 64
2, 307080, Note_off_c, 0, 76, 64
2, 307080, Note_on_c, 0, 79, 75
2, 307080, Note_on_c, 0, 82, 75
2, 307160, Note_off_c, 0, 82, 64
2, 307160, Note_off_c, 0, 79, 64
2, 307320, Note_on_c, 0, 79, 75
2, 307320, Note_on_c, 0, 82, 75
2, 307400, Note_off_c, 0, 82, 64
2, 307400, Note_off_c, 0, 79, 64
2, 307560, Note_on_c, 0, 79, 75
2, 307560, Note_on_c, 0, 82, 75
2, 307640, Note_off_c, 0, 82, 64
2, 307640, Note_off_c, 0, 79, 64
2, 307800, Note_on_c, 0, 84, 75
2, 307860, Note_off_c, 0, 84, 64
2, 307860, Note_on_c, 0, 82, 75
2, 307920, Note_off_c, 0, 82, 64
2, 307920, Note_on_c, 0, 81, 75
2, 307980, Note_off_c, 0, 81, 64
2, 307980, Note_on_c, 0, 82, 75
2, 308035, Note_off_c, 0, 82, 64
2, 308280, Note_on_c, 0, 86, 75
2, 308340, Note_off_c, 0, 86, 64
2, 308340, Note_on_c, 0, 84, 75
2, 308400, Note_off_c, 0, 84, 64
2, 308400, Note_on_c, 0, 83, 75
2, 308460, Note_off_c, 0, 83, 64
2, 308460, Note_on_c, 0, 84, 75
2, 308515, Note_off_c, 0, 84, 64
2, 309240, Note_on_c, 0, 86, 75
2, 309300, Note_off_c, 0, 86, 64
2, 309300, Note_on_c, 0, 84, 75
2, 309360, Note_off_c, 0, 84, 64
2, 309360, Note_on_c, 0, 83, 75
2, 309420, Note_off_c, 0, 83, 64
2, 309420, Note_on_c, 0, 84, 75
2, 309475, Note_off_c, 0, 84, 64
2, 310200, Note_on_c, 0, 86, 75
2, 310260, Note_off_c, 0, 86, 64
2, 310260, Note_on_c, 0, 84, 75
2, 310320, Note_off_c, 0, 84, 64
2, 310320, Note_on_c, 0, 83, 75
2, 310380, Note_off_c, 0, 83, 64
2, 310380, Note_on_c, 0, 84, 75
2, 310435, Note_off_c, 0, 84, 64
2, 311160, Note_on_c, 0, 86, 75
2, 311220, Note_off_c, 0, 86, 64
2, 311220, Note_on_c, 0, 84, 75
2, 311280, Note_off_c, 0, 84, 64
2, 311280, Note_on_c, 0, 83, 75
2, 311340, Note_off_c, 0, 83, 64
2, 311340, Note_on_c, 0, 84, 75
2, 311395, Note_off_c, 0, 84, 64
2, 312120, Note_on_c, 0, 86, 75
2, 312180, Note_off_c, 0, 86, 64
2, 312180, Note_on_c, 0, 84, 75
2, 312240, Note_off_c, 0, 84, 64
2, 312240, Note_on_c, 0, 83, 75
2, 312300, Note_off_c, 0, 83, 64
2, 312300, Note_on_c, 0, 84, 75
2, 312355, Note_off_c, 0, 84, 64
2, 312600, Note_on_c, 0, 86, 75
2, 312660, Note_off_c, 0, 86, 64
2, 312660, Note_on_c, 0, 84, 75
2, 312720, Note_off_c, 0, 84, 64
2, 312720, Note_on_c, 0, 83, 75
2, 312780, Note_off_c, 0, 83, 64
2, 312780, Note_on_c, 0, 84, 75
2, 312835, Note_off_c, 0, 84, 64
2, 313560, Note_on_c, 0, 86, 75
2, 313620, Note_off_c, 0, 86, 64
2, 313620, Note_on_c, 0, 84, 75
2, 313680, Note_off_c, 0, 84, 64
2, 313680, Note_on_c, 0, 83, 75
2, 313740, Note_off_c, 0, 83, 64
2, 313740, Note_on_c, 0, 84, 75
2, 314035, Note_off_c, 0, 84, 64
2, 314280, Note_on_c, 0, 84, 53
2, 314515, Note_off_c, 0, 84, 64
2, 314520, Note_on_c, 0, 77, 45
2, 314520, Note_on_c, 0, 81, 45
2, 314920, Note_off_c, 0, 81, 64
2, 314920, Note_off_c, 0, 77, 64
2, 351000, Note_on_c, 0, 72, 60
2, 351000, Note_on_c, 0, 86, 60
2, 351240, Note_off_c, 0, 86, 64
2, 351240, Note_on_c, 0, 84, 60
2, 351480, Note_off_c, 0, 84, 64
2, 351480, Note_on_c, 0, 82, 60
2, 351720, Note_off_c, 0, 82, 64
2, 351720, Note_on_c, 0, 79, 60
2, 351840, Note_off_c, 0, 72, 64
2, 351960, Note_off_c, 0, 79, 64
2, 351960, Note_on_c, 0, 72, 60
2, 351960, Note_on_c, 0, 72, 60
2, 352200, Note_off_c, 0, 72, 64
2, 352200, Note_on_c, 0, 82, 60
2, 352440, Note_off_c, 0, 82, 64
2, 352440, Note_on_c, 0, 79, 60
2, 352680, Note_off_c, 0, 79, 64
2, 352680, Note_on_c, 0, 72, 60
2, 352800, Note_off_c, 0, 72, 64
2, 352915, Note_off_c, 0, 72, 64
2, 352920, Note_on_c, 0, 77, 60
2, 352920, Note_on_c, 0, 86, 60
2, 353160, Note_off_c, 0, 86, 64
2, 353160, Note_on_c, 0, 84, 60
2, 353400, Note_off_c, 0, 84, 64
2, 353400, Note_on_c, 0, 81, 61
2, 353640, Note_off_c, 0, 81, 64
2, 353640, Note_on_c, 0, 77, 62
2, 353760, Note_off_c, 0, 77, 64
2, 353880, Note_off_c, 0, 77, 64
2, 353880, Note_on_c, 0, 72, 63
2, 353880, Note_on_c, 0, 77, 63
2, 354120, Note_off_c, 0, 72, 64
2, 354120, Note_on_c, 0, 81, 64
2, 354360, Note_off_c, 0, 81, 64
2, 354360, Note_on_c, 0, 77, 65
2, 354600, Note_off_c, 0, 77, 64
2, 354600, Note_on_c, 0, 72, 66
2, 354720, Note_off_c, 0, 77, 64
2, 354835, Note_off_c, 0, 72, 64
2, 354840, Note_on_c, 0, 76, 67
2, 354840, Note_on_c, 0, 86, 67
2, 355080, Note_off_c, 0, 86, 64
2, 355080, Note_on_c, 0, 84, 68
2, 355240, Note_off_c, 0, 76, 64
2, 355320, Note_off_c, 0, 84, 64
2, 355320, Note_on_c, 0, 76, 69
2, 355320, Note_on_c, 0, 82, 69
2, 355560, Note_off_c, 0, 82, 64
2, 355560, Note_on_c, 0, 79, 70
2, 355720, Note_off_c, 0, 76, 64
2, 355800, Note_off_c, 0, 79, 64
2, 355800, Note_on_c, 0, 72, 71
2, 355800, Note_on_c, 0, 76, 71
2, 356040, Note_off_c, 0, 72, 64
2, 356040, Note_on_c, 0, 82, 72
2, 356280, Note_off_c, 0, 82, 64
2, 356280, Note_on_c, 0, 79, 73
2, 356520, Note_off_c, 0, 79, 64
2, 356520, Note_on_c, 0, 72, 74
2, 356520, Note_on_c, 0, 76, 74
2, 356640, Note_off_c, 0, 76, 64
2, 356755, Note_off_c, 0, 72, 64
2, 356755, Note_off_c, 0, 76, 64
2, 356760, Note_on_c, 0, 81, 75
2, 356760, Note_on_c, 0, 84, 75
2, 357480, Note_off_c, 0, 84, 64
2, 357480, Note_off_c, 0, 81, 64
2, 357480, Note_on_c, 0, 82, 75
2, 357480, Note_on_c, 0, 86, 75
2, 357600, Note_off_c, 0, 86, 64
2, 357600, Note_off_c, 0, 82, 64
2, 357600, Note_on_c, 0, 84, 75
2, 357600, Note_on_c, 0, 88, 75
2, 357720, Note_off_c, 0, 88, 64
2, 357720, Note_off_c, 0, 84, 64
2, 357720, Note_on_c, 0, 86, 75
2, 357720, Note_on_c, 0, 89, 75
2, 357960, Note_off_c, 0, 89, 64
2, 357960, Note_off_c, 0, 86, 64
2, 357960, Note_on_c, 0, 84, 75
2, 357960, Note_on_c, 0, 88, 75
2, 358080, Note_off_c, 0, 88, 64
2, 358080, Note_off_c, 0, 84, 64
2, 358080, Note_on_c, 0, 82, 75
2, 358080, Note_on_c, 0, 86, 75
2, 358200, Note_off_c, 0, 86, 64
2, 358200, Note_off_c, 0, 82, 64
2, 358200, Note_on_c, 0, 81, 75
2, 358200, Note_on_c, 0, 84, 75
2, 358440, Note_off_c, 0, 84, 64
2, 358440, Note_off_c, 0, 81, 64
2, 358440, Note_on_c, 0, 82, 75
2, 358440, Note_on_c, 0, 86, 75
2, 358560, Note_off_c, 0, 86, 64
2, 358560, Note_off_c, 0, 82, 64
2, 358560, Note_on_c, 0, 84, 75
2, 358560, Note_on_c, 0, 88, 75
2, 358680, Note_off_c, 0, 88, 64
2, 358680, Note_off_c, 0, 84, 64
2, 358680, Note_on_c, 0, 86, 75
2, 358680, Note_on_c, 0, 89, 75
2, 358920, Note_off_c, 0, 89, 64
2, 358920, Note_off_c, 0, 86, 64
2, 358920, Note_on_c, 0, 84, 75
2, 358920, Note_on_c, 0, 88, 75
2, 359040, Note_off_c, 0, 88, 64
2, 359040, Note_off_c, 0, 84, 64
2, 359040, Note_on_c, 0, 82, 75
2, 359040, Note_on_c, 0, 86, 75
2, 359160, Note_off_c, 0, 86, 64
2, 359160, Note_off_c, 0, 82, 64
2, 359160, Note_on_c, 0, 81, 75
2, 359160, Note_on_c, 0, 84, 75
2, 359400, Note_off_c, 0, 84, 64
2, 359400, Note_off_c, 0, 81, 64
2, 359400, Note_on_c, 0, 82, 75
2, 359400, Note_on_c, 0, 86, 75
2, 359520, Note_off_c, 0, 86, 64
2, 359520, Note_off_c, 0, 82, 64
2, 359520, Note_on_c, 0, 84, 75
2, 359520, Note_on_c, 0, 88, 75
2, 359640, Note_off_c, 0, 88, 64
2, 359640, Note_off_c, 0, 84, 64
2, 359640, Note_on_c, 0, 84, 75
2, 359640, Note_on_c, 0, 88, 75
2, 359875, Note_off_c, 0, 88, 64
2, 359875, Note_off_c, 0, 84, 64
2, 363600, Note_on_c, 0, 81, 75
2, 363600, Note_on_c, 0, 84, 75
2, 364320, Note_off_c, 0, 84, 64
2, 364320, Note_off_c, 0, 81, 64
2, 364320, Note_on_c, 0, 82, 75
2, 364320, Note_on_c, 0, 86, 75
2, 364440, Note_off_c, 0, 86, 64
2, 364440, Note_off_c, 0, 82, 64
2, 364440, Note_on_c, 0, 84, 75
2, 364440, Note_on_c, 0, 88, 75
2, 364560, Note_off_c, 0, 88, 64
2, 364560, Note_off_c, 0, 84, 64
2, 364560, Note_on_c, 0, 86, 75
2, 364560, Note_on_c, 0, 89, 75
2, 364800, Note_off_c, 0, 89, 64
2, 364800, Note_off_c, 0, 86, 64
2, 364800, Note_on_c, 0, 84, 75
2, 364800, Note_on_c, 0, 88, 75
2, 364920, Note_off_c, 0, 88, 64
2, 364920, Note_off_c, 0, 84, 64
2, 364920, Note_on_c, 0, 82, 75
2, 364920, Note_on_c, 0, 86, 75
2, 365040, Note_off_c, 0, 86, 64
2, 365040, Note_off_c, 0, 82, 64
2, 365040, Note_on_c, 0, 81, 75
2, 365040, Note_on_c, 0, 84, 75
2, 365280, Note_off_c, 0, 84, 64
2, 365280, Note_off_c, 0, 81, 64
2, 365280, Note_on_c, 0, 82, 75
2, 365280, Note_on_c, 0, 86, 75
2, 365400, Note_off_c, 0, 86, 64
2, 365400, Note_off_c, 0, 82, 64
2, 365400, Note_on_c, 0, 84, 75
2, 365400, Note_on_c, 0, 88, 75
2, 365520, Note_off_c, 0, 88, 64
2, 365520, Note_off_c, 0, 84, 64
2, 365520, Note_on_c, 0, 86, 75
2, 365520, Note_on_c, 0, 89, 75
2, 365760, Note_off_c, 0, 89, 64
2, 365760, Note_off_c, 0, 86, 64
2, 365760, Note_on_c, 0, 84, 75
2, 365760, Note_on_c, 0, 88, 75
2, 365880, Note_off_c, 0, 88, 64
2, 365880, Note_off_c, 0, 84, 64
2, 365880, Note_on_c, 0, 82, 75
2, 365880, Note_on_c, 0, 86, 75
2, 366000, Note_off_c, 0, 86, 64
2, 366000, Note_off_c, 0, 82, 64
2, 366000, Note_on_c, 0, 81, 75
2, 366000, Note_on_c, 0, 84, 75
2, 366240, Note_off_c, 0, 84, 64
2, 366240, Note_off_c, 0, 81, 64
2, 366240, Note_on_c, 0, 82, 75
2, 366240, Note_on_c, 0, 86, 75
2, 366360, Note_off_c, 0, 86, 64
2, 366360, Note_off_c, 0, 82, 64
2, 366360, Note_on_c, 0, 84, 75
2, 366360, Note_on_c, 0, 88, 75
2, 366480, Note_off_c, 0, 88, 64
2, 366480, Note_off_c, 0, 84, 64
2, 366480, Note_on_c, 0, 84, 75
2, 366480, Note_on_c, 0, 88, 75
2, 366715, Note_off_c, 0, 88, 64
2, 366715, Note_off_c, 0, 84, 64
2, 371640, Note_on_c, 0, 86, 61
2, 371640, Note_on_c, 0, 89, 61
2, 371880, Note_off_c, 0, 89, 64
2, 371880, Note_off_c, 0, 86, 64
2, 371880, Note_on_c, 0, 84, 62
2, 371880, Note_on_c, 0, 88, 62
2, 372120, Note_off_c, 0, 88, 64
2, 372120, Note_off_c, 0, 84, 64
2, 372120, Note_on_c, 0, 82, 63
2, 372120, Note_on_c, 0, 86, 63
2, 372355, Note_off_c, 0, 86, 64
2, 372355, Note_off_c, 0, 82, 64
2, 372600, Note_on_c, 0, 81, 65
2, 372600, Note_on_c, 0, 84, 65
2, 372840, Note_off_c, 0, 84, 64
2, 372840, Note_off_c, 0, 81, 64
2, 372840, Note_on_c, 0, 79, 66
2, 372840, Note_on_c, 0, 82, 66
2, 373080, Note_off_c, 0, 82, 64
2, 373080, Note_off_c, 0, 79, 64
2, 373080, Note_on_c, 0, 77, 67
2, 373080, Note_on_c, 0, 81, 67
2, 373315, Note_off_c, 0, 81, 64
2, 373315, Note_off_c, 0, 77, 64
2, 373560, Note_on_c, 0, 76, 69
2, 373560, Note_on_c, 0, 79, 69
2, 373800, Note_off_c, 0, 79, 64
2, 373800, Note_off_c, 0, 76, 64
2, 373800, Note_on_c, 0, 74, 71
2, 373800, Note_on_c, 0, 77, 71
2, 374040, Note_off_c, 0, 77, 64
2, 374040, Note_off_c, 0, 74, 64
2, 374040, Note_on_c, 0, 76, 73
2, 374040, Note_on_c, 0, 79, 73
2, 374275, Note_off_c, 0, 79, 64
2, 374275, Note_off_c, 0, 76, 64
2, 374280, Note_on_c, 0, 77, 75
2, 374280, Note_on_c, 0, 81, 75
2, 374515, Note_off_c, 0, 81, 64
2, 374515, Note_off_c, 0, 77, 64
2, 374760, Note_on_c, 0, 84, 75
2, 374760, Note_on_c, 0, 89, 75
2, 374995, Note_off_c, 0, 89, 64
2, 374995, Note_off_c, 0, 84, 64
2, 375240, Note_on_c, 0, 86, 75
2, 375240, Note_on_c, 0, 89, 75
2, 375475, Note_off_c, 0, 89, 64
2, 375475, Note_off_c, 0, 86, 64
2, 375720, Note_on_c, 0, 82, 75
2, 375720, Note_on_c, 0, 86, 75
2, 375955, Note_off_c, 0, 86, 64
2, 375955, Note_off_c, 0, 82, 64
2, 376200, Note_on_c, 0, 81, 75
2, 376200, Note_on_c, 0, 84, 75
2, 376435, Note_off_c, 0, 84, 64
2, 376435, Note_off_c, 0, 81, 64
2, 376680, Note_on_c, 0, 77, 75
2, 376680, Note_on_c, 0, 81, 75
2, 376915, Note_off_c, 0, 81, 64
2, 376915, Note_off_c, 0, 77, 64
2, 377160, Note_on_c, 0, 76, 75
2, 377160, Note_on_c, 0, 79, 75
2, 377395, Note_off_c, 0, 79, 64
2, 377395, Note_off_c, 0, 76, 64
2, 377640, Note_on_c, 0, 76, 75
2, 377640, Note_on_c, 0, 84, 75
2, 377875, Note_off_c, 0, 84, 64
2, 377875, Note_off_c, 0, 76, 64
2, 378120, Note_on_c, 0, 77, 60
2, 378355, Note_off_c, 0, 77, 64
2, 380040, Note_on_c, 0, 77, 60
2, 380040, Note_on_c, 0, 81, 60
2, 380275, Note_off_c, 0, 81, 64
2, 380275, Note_off_c, 0, 77, 64
2, 381960, Note_on_c, 0, 77, 60
2, 381960, Note_on_c, 0, 81, 60
2, 382195, Note_off_c, 0, 81, 64
2, 382195, Note_off_c, 0, 77, 64
2, 383880, Note_on_c, 0, 77, 60
2, 383880, Note_on_c, 0, 81, 60
2, 384115, Note_off_c, 0, 81, 64
2, 384115, Note_off_c, 0, 77, 64
2, 408960, Note_on_c, 0, 82, 45
2, 409040, Note_off_c, 0, 82, 64
2, 409200, Note_on_c, 0, 84, 45
2, 409280, Note_off_c, 0, 84, 64
2, 409440, Note_on_c, 0, 86, 45
2, 409680, Note_off_c, 0, 86, 64
2, 409680, Note_on_c, 0, 87, 45
2, 409800, Note_off_c, 0, 87, 64
2, 409800, Note_on_c, 0, 86, 45
2, 409915, Note_off_c, 0, 86, 64
2, 409920, Note_on_c, 0, 84, 45
2, 410000, Note_off_c, 0, 84, 64
2, 410160, Note_on_c, 0, 86, 45
2, 410240, Note_off_c, 0, 86, 64
2, 410400, Note_on_c, 0, 87, 45
2, 410640, Note_off_c, 0, 87, 64
2, 410640, Note_on_c, 0, 89, 45
2, 410760, Note_off_c, 0, 89, 64
2, 410760, Note_on_c, 0, 87, 45
2, 410875, Note_off_c, 0, 87, 64
2, 410880, Note_on_c, 0, 86, 45
2, 410960, Note_off_c, 0, 86, 64
2, 420480, Note_on_c, 0, 88, 60
2, 421120, Note_off_c, 0, 88, 64
2, 421120, Note_on_c, 0, 89, 64
2, 421280, Note_off_c, 0, 89, 64
2, 421280, Note_on_c, 0, 91, 65
2, 421435, Note_off_c, 0, 91, 64
2, 421440, Note_on_c, 0, 84, 66
2, 422080, Note_off_c, 0, 84, 64
2, 422080, Note_on_c, 0, 86, 71
2, 422240, Note_off_c, 0, 86, 64
2, 422240, Note_on_c, 0, 88, 73
2, 422395, Note_off_c, 0, 88, 64
2, 422400, Note_on_c, 0, 77, 75
2, 422400, Note_on_c, 0, 89, 75
2, 422880, Note_off_c, 0, 89, 64
2, 422880, Note_off_c, 0, 77, 64
2, 422880, Note_on_c, 0, 72, 75
2, 422880, Note_on_c, 0, 84, 75
2, 424200, Note_off_c, 0, 84, 64
2, 424200, Note_off_c, 0, 72, 64
2, 424320, Note_on_c, 0, 81, 75
2, 424320, Note_on_c, 0, 93, 75
2, 424800, Note_off_c, 0, 93, 64
2, 424800, Note_off_c, 0, 81, 64
2, 424800, Note_on_c, 0, 77, 75
2, 424800, Note_on_c, 0, 89, 75
2, 426120, Note_off_c, 0, 89, 64
2, 426120, Note_off_c, 0, 77, 64
2, 426240, Note_on_c, 0, 77, 75
2, 426240, Note_on_c, 0, 89, 75
2, 426720, Note_off_c, 0, 89, 64
2, 426720, Note_off_c, 0, 77, 64
2, 426720, Note_on_c, 0, 72, 75
2, 426720, Note_on_c, 0, 84, 75
2, 428040, Note_off_c, 0, 84, 64
2, 428040, Note_off_c, 0, 72, 64
2, 428160, Note_on_c, 0, 81, 75
2, 428160, Note_on_c, 0, 93, 75
2, 428640, Note_off_c, 0, 93, 64
2, 428640, Note_off_c, 0, 81, 64
2, 428640, Note_on_c, 0, 77, 75
2, 428640, Note_on_c, 0, 89, 75
2, 429960, Note_off_c, 0, 89, 64
2, 429960, Note_off_c, 0, 77, 64
2, 430080, Note_on_c, 0, 81, 75
2, 430080, Note_on_c, 0, 93, 75
2, 430560, Note_off_c, 0, 93, 64
2, 430560, Note_off_c, 0, 81, 64
2, 430560, Note_on_c, 0, 77, 75
2, 430560, Note_on_c, 0, 89, 75
2, 430960, Note_off_c, 0, 89, 64
2, 430960, Note_off_c, 0, 77, 64
2, 431040, Note_on_c, 0, 81, 75
2, 431040, Note_on_c, 0, 93, 75
2, 431520, Note_off_c, 0, 93, 64
2, 431520, Note_off_c, 0, 81, 64
2, 431520, Note_on_c, 0, 77, 75
2, 431520, Note_on_c, 0, 89, 75
2, 431920, Note_off_c, 0, 89, 64
2, 431920, Note_off_c, 0, 77, 64
2, 432000, Note_on_c, 0, 84, 75
2, 432000, Note_on_c, 0, 96, 75
2, 432480, Note_off_c, 0, 96, 64
2, 432480, Note_off_c, 0, 84, 64
2, 432480, Note_on_c, 0, 77, 75
2, 432480, Note_on_c, 0, 89, 75
2, 432880, Note_off_c, 0, 89, 64
2, 432880, Note_off_c, 0, 77, 64
2, 432960, Note_on_c, 0, 79, 75
2, 432960, Note_on_c, 0, 91, 75
2, 433440, Note_off_c, 0, 91, 64
2, 433440, Note_off_c, 0, 79, 64
2, 433440, Note_on_c, 0, 76, 75
2, 433440, Note_on_c, 0, 88, 75
2, 433840, Note_off_c, 0, 88, 64
2, 433840, Note_off_c, 0, 76, 64
2, 433920, Note_on_c, 0, 81, 75
2, 433920, Note_on_c, 0, 93, 75
2, 434400, Note_off_c, 0, 93, 64
2, 434400, Note_off_c, 0, 81, 64
2, 434400, Note_on_c, 0, 77, 75
2, 434400, Note_on_c, 0, 89, 75
2, 434800, Note_off_c, 0, 89, 64
2, 434800, Note_off_c, 0, 77, 64
2, 434880, Note_on_c, 0, 81, 75
2, 434880, Note_on_c, 0, 93, 75
2, 435360, Note_off_c, 0, 93, 64
2, 435360, Note_off_c, 0, 81, 64
2, 435360, Note_on_c, 0, 77, 75
2, 435360, Note_on_c, 0, 89, 75
2, 435760, Note_off_c, 0, 89, 64
2, 435760, Note_off_c, 0, 77, 64
2, 435840, Note_on_c, 0, 84, 75
2, 435840, Note_on_c, 0, 96, 75
2, 436320, Note_off_c, 0, 96, 64
2, 436320, Note_off_c, 0, 84, 64
2, 436320, Note_on_c, 0, 77, 75
2, 436320, Note_on_c, 0, 89, 75
2, 436720, Note_off_c, 0, 89, 64
2, 436720, Note_off_c, 0, 77, 64
2, 436800, Note_on_c, 0, 79, 75
2, 436800, Note_on_c, 0, 91, 75
2, 437280, Note_off_c, 0, 91, 64
2, 437280, Note_off_c, 0, 79, 64
2, 437280, Note_on_c, 0, 76, 75
2, 437280, Note_on_c, 0, 88, 75
2, 437680, Note_off_c, 0, 88, 64
2, 437680, Note_off_c, 0, 76, 64
2, 437760, Note_on_c, 0, 81, 75
2, 437760, Note_on_c, 0, 93, 75
2, 438240, Note_off_c, 0, 93, 64
2, 438240, Note_off_c, 0, 81, 64
2, 438240, Note_on_c, 0, 77, 75
2, 438240, Note_on_c, 0, 89, 75
2, 438640, Note_off_c, 0, 89, 64
2, 438640, Note_off_c, 0, 77, 64
2, 438720, Note_on_c, 0, 81, 75
2, 438720, Note_on_c, 0, 93, 75
2, 439200, Note_off_c, 0, 93, 64
2, 439200, Note_off_c, 0, 81, 64
2, 439200, Note_on_c, 0, 77, 75
2, 439200, Note_on_c, 0, 89, 75
2, 439600, Note_off_c, 0, 89, 64
2, 439600, Note_off_c, 0, 77, 64
2, 439680, Note_on_c, 0, 89, 75
2, 439680, Note_on_c, 0, 93, 75
2, 441835, Note_off_c, 0, 93, 64
2, 441835, Note_off_c, 0, 89, 64
2, 451200, Note_on_c, 0, 84, 60
2, 452040, Note_off_c, 0, 84, 64
2, 452160, Note_on_c, 0, 84, 60
2, 452160, Note_on_c, 0, 89, 60
2, 452395, Note_off_c, 0, 89, 64
2, 452395, Note_off_c, 0, 84, 64
2, 452640, Note_on_c, 0, 84, 60
2, 452640, Note_on_c, 0, 88, 60
2, 452875, Note_off_c, 0, 88, 64
2, 452875, Note_off_c, 0, 84, 64
2, 455040, Note_on_c, 0, 84, 60
2, 455880, Note_off_c, 0, 84, 64
2, 456000, Note_on_c, 0, 84, 60
2, 456000, Note_on_c, 0, 89, 60
2, 456235, Note_off_c, 0, 89, 64
2, 456235, Note_off_c, 0, 84, 64
2, 456480, Note_on_c, 0, 84, 60
2, 456480, Note_on_c, 0, 88, 60
2, 456715, Note_off_c, 0, 88, 64
2, 456715, Note_off_c, 0, 84, 64
2, 456960, Note_on_c, 0, 84, 60
2, 456960, Note_on_c, 0, 89, 60
2, 457195, Note_off_c, 0, 89, 64
2, 457195, Note_off_c, 0, 84, 64
2, 459840, Note_on_c, 0, 79, 75
2, 459840, Note_on_c, 0, 82, 75
2, 460480, Note_off_c, 0, 82, 64
2, 460480, Note_off_c, 0, 79, 64
2, 460560, Note_on_c, 0, 79, 75
2, 460560, Note_on_c, 0, 82, 75
2, 460795, Note_off_c, 0, 82, 64
2, 460795, Note_off_c, 0, 79, 64
2, 460800, Note_on_c, 0, 77, 75
2, 460800, Note_on_c, 0, 81, 75
2, 461035, Note_off_c, 0, 81, 64
2, 461035, Note_off_c, 0, 77, 64
2, 463680, Note_on_c, 0, 79, 75
2, 463680, Note_on_c, 0, 82, 75
2, 464320, Note_off_c, 0, 82, 64
2, 464320, Note_off_c, 0, 79, 64
2, 464400, Note_on_c, 0, 79, 75
2, 464400, Note_on_c, 0, 82, 75
2, 464635, Note_off_c, 0, 82, 64
2, 464635, Note_off_c, 0, 79, 64
2, 464640, Note_on_c, 0, 77, 75
2, 464640, Note_on_c, 0, 81, 75
2, 464875, Note_off_c, 0, 81, 64
2, 464875, Note_off_c, 0, 77, 64
2, 465600, Note_on_c, 0, 79, 75
2, 465600, Note_on_c, 0, 82, 75
2, 466240, Note_off_c, 0, 82, 64
2, 466240, Note_off_c, 0, 79, 64
2, 466320, Note_on_c, 0, 79, 75
2, 466320, Note_on_c, 0, 82, 75
2, 466555, Note_off_c, 0, 82, 64
2, 466555, Note_off_c, 0, 79, 64
2, 466560, Note_on_c, 0, 77, 75
2, 466560, Note_on_c, 0, 81, 75
2, 466795, Note_off_c, 0, 81, 64
2, 466795, Note_off_c, 0, 77, 64
2, 467520, Note_on_c, 0, 79, 75
2, 467520, Note_on_c, 0, 82, 75
2, 468160, Note_off_c, 0, 82, 64
2, 468160, Note_off_c, 0, 79, 64
2, 468240, Note_on_c, 0, 79, 75
2, 468240, Note_on_c, 0, 82, 75
2, 468475, Note_off_c, 0, 82, 64
2, 468475, Note_off_c, 0, 79, 64
2, 468480, Note_on_c, 0, 77, 75
2, 468480, Note_on_c, 0, 81, 75
2, 468715, Note_off_c, 0, 81, 64
2, 468715, Note_off_c, 0, 77, 64
2, 469440, Note_on_c, 0, 77, 75
2, 469440, Note_on_c, 0, 81, 75
2, 469675, Note_off_c, 0, 81, 64
2, 469675, Note_off_c, 0, 77, 64
2, 470400, Note_on_c, 0, 77, 60
2, 470400, Note_on_c, 0, 81, 60
2, 470635, Note_off_c, 0, 81, 64
2, 470635, Note_off_c, 0, 77, 64
2, 471360, Note_on_c, 0, 77, 45
2, 471360, Note_on_c, 0, 81, 45
2, 471595, Note_off_c, 0, 81, 64
2, 471595, Note_off_c, 0, 77, 64
2, 472320, Note_on_c, 0, 77, 30
2, 472320, Note_on_c, 0, 81, 30
2, 472555, Note_off_c, 0, 81, 64
2, 472555, Note_off_c, 0, 77, 64
2, 478080, Note_on_c, 0, 77, 45
2, 478160, Note_off_c, 0, 77, 64
2, 478320, Note_on_c, 0, 79, 45
2, 478400, Note_off_c, 0, 79, 64
2, 478560, Note_on_c, 0, 81, 45
2, 478800, Note_off_c, 0, 81, 64
2, 478800, Note_on_c, 0, 82, 45
2, 478920, Note_off_c, 0, 82, 64
2, 478920, Note_on_c, 0, 81, 45
2, 479035, Note_off_c, 0, 81, 64
2, 479040, Note_on_c, 0, 79, 45
2, 479120, Note_off_c, 0, 79, 64
2, 479280, Note_on_c, 0, 81, 45
2, 479360, Note_off_c, 0, 81, 64
2, 479520, Note_on_c, 0, 82, 45
2, 479760, Note_off_c, 0, 82, 64
2, 479760, Note_on_c, 0, 84, 45
2, 479880, Note_off_c, 0, 84, 64
2, 479880, Note_on_c, 0, 82, 45
2, 479995, Note_off_c, 0, 82, 64
2, 480000, Note_on_c, 0, 81, 45
2, 480080, Note_off_c, 0, 81, 64
2, 480240, Note_on_c, 0, 82, 45
2, 480320, Note_off_c, 0, 82, 64
2, 480480, Note_on_c, 0, 84, 45
2, 480720, Note_off_c, 0, 84, 64
2, 480720, Note_on_c, 0, 86, 45
2, 480840, Note_off_c, 0, 86, 64
2, 480840, Note_on_c, 0, 84, 45
2, 480955, Note_off_c, 0, 84, 64
2, 480960, Note_on_c, 0, 82, 45
2, 481040, Note_off_c, 0, 82, 64
2, 481200, Note_on_c, 0, 84, 45
2, 481280, Note_off_c, 0, 84, 64
2, 481440, Note_on_c, 0, 86, 45
2, 481520, Note_off_c, 0, 86, 64
2, 481680, Note_on_c, 0, 88, 45
2, 481760, Note_off_c, 0, 88, 64
2, 481920, Note_on_c, 0, 89, 45
2, 482280, Note_off_c, 0, 89, 64
2, 485040, Note_on_c, 0, 70, 75
2, 485040, Note_on_c, 0, 82, 75
2, 485120, Note_off_c, 0, 82, 64
2, 485120, Note_off_c, 0, 70, 64
2, 485280, Note_on_c, 0, 72, 75
2, 485280, Note_on_c, 0, 84, 75
2, 485360, Note_off_c, 0, 84, 64
2, 485360, Note_off_c, 0, 72, 64
2, 485520, Note_on_c, 0, 74, 75
2, 485520, Note_on_c, 0, 86, 75
2, 485600, Note_off_c, 0, 86, 64
2, 485600, Note_off_c, 0, 74, 64
2, 485760, Note_on_c, 0, 76, 75
2, 485760, Note_on_c, 0, 88, 75
2, 485840, Note_off_c, 0, 88, 64
2, 485840, Note_off_c, 0, 76, 64
2, 486000, Note_on_c, 0, 77, 75
2, 486000, Note_on_c, 0, 89, 75
2, 486840, Note_off_c, 0, 89, 64
2, 486840, Note_off_c, 0, 77, 64
2, 486960, Note_on_c, 0, 84, 75
2, 486960, Note_on_c, 0, 88, 75
2, 487800, Note_off_c, 0, 88, 64
2, 487800, Note_off_c, 0, 84, 64
2, 487920, Note_on_c, 0, 84, 75
2, 487920, Note_on_c, 0, 89, 75
2, 488760, Note_off_c, 0, 89, 64
2, 488760, Note_off_c, 0, 84, 64
2, 488880, Note_on_c, 0, 84, 68
2, 488880, Note_on_c, 0, 89, 68
2, 489360, Note_off_c, 0, 89, 64
2, 489360, Note_off_c, 0, 84, 64
2, 489360, Note_on_c, 0, 84, 64
2, 489360, Note_on_c, 0, 89, 64
2, 489840, Note_off_c, 0, 89, 64
2, 489840, Note_off_c, 0, 84, 64
2, 489840, Note_on_c, 0, 84, 60
2, 489840, Note_on_c, 0, 89, 60
2, 490680, Note_off_c, 0, 89, 64
2, 490680, Note_off_c, 0, 84, 64
2, 490800, Note_on_c, 0, 77, 45
2, 490800, Note_on_c, 0, 89, 45
2, 491640, Note_off_c, 0, 89, 64
2, 491640, Note_off_c, 0, 77, 64
2, 491760, Note_on_c, 0, 77, 45
2, 491760, Note_on_c, 0, 89, 45
2, 492600, Note_off_c, 0, 89, 64
2, 492600, Note_off_c, 0, 77, 64
2, 507600, Note_on_c, 0, 69, 45
2, 508080, Note_off_c, 0, 69, 64
2, 508080, Note_on_c, 0, 74, 45
2, 509040, Note_off_c, 0, 74, 64
2, 509040, Note_on_c, 0, 78, 45
2, 509520, Note_off_c, 0, 78, 64
2, 509520, Note_on_c, 0, 81, 45
2, 510000, Note_off_c, 0, 81, 64
2, 510000, Note_on_c, 0, 78, 45
2, 510400, Note_off_c, 0, 78, 64
2, 510480, Note_on_c, 0, 78, 45
2, 510960, Note_off_c, 0, 78, 64
2, 510960, Note_on_c, 0, 81, 45
2, 511440, Note_off_c, 0, 81, 64
2, 511440, Note_on_c, 0, 85, 45
2, 511920, Note_off_c, 0, 85, 64
2, 511920, Note_on_c, 0, 86, 45
2, 512160, Note_off_c, 0, 86, 64
2, 512160, Note_on_c, 0, 83, 45
2, 512400, Note_off_c, 0, 83, 64
2, 512400, Note_on_c, 0, 81, 45
2, 513240, Note_off_c, 0, 81, 64
2, 513360, Note_on_c, 0, 85, 45
2, 513840, Note_off_c, 0, 85, 64
2, 513840, Note_on_c, 0, 86, 45
2, 514320, Note_off_c, 0, 86, 64
2, 514320, Note_on_c, 0, 81, 45
2, 514800, Note_off_c, 0, 81, 64
2, 514800, Note_on_c, 0, 83, 45
2, 515280, Note_off_c, 0, 83, 64
2, 515280, Note_on_c, 0, 81, 45
2, 515760, Note_off_c, 0, 81, 64
2, 515760, Note_on_c, 0, 78, 45
2, 516240, Note_off_c, 0, 78, 64
2, 516240, Note_on_c, 0, 79, 45
2, 516720, Note_off_c, 0, 79, 64
2, 516720, Note_on_c, 0, 78, 45
2, 517200, Note_off_c, 0, 78, 64
2, 517200, Note_on_c, 0, 74, 45
2, 517680, Note_off_c, 0, 74, 64
2, 517680, Note_on_c, 0, 78, 45
2, 517920, Note_off_c, 0, 78, 64
2, 517920, Note_on_c, 0, 76, 45
2, 518160, Note_off_c, 0, 76, 64
2, 518160, Note_on_c, 0, 74, 45
2, 518800, Note_off_c, 0, 74, 64
2, 530640, Note_on_c, 0, 69, 45
2, 531120, Note_off_c, 0, 69, 64
2, 531120, Note_on_c, 0, 74, 45
2, 532080, Note_off_c, 0, 74, 64
2, 532080, Note_on_c, 0, 78, 45
2, 532560, Note_off_c, 0, 78, 64
2, 532560, Note_on_c, 0, 81, 45
2, 533040, Note_off_c, 0, 81, 64
2, 533040, Note_on_c, 0, 78, 45
2, 533440, Note_off_c, 0, 78, 64
2, 533520, Note_on_c, 0, 78, 45
2, 534000, Note_off_c, 0, 78, 64
2, 534000, Note_on_c, 0, 81, 45
2, 534480, Note_off_c, 0, 81, 64
2, 534480, Note_on_c, 0, 85, 45
2, 534960, Note_off_c, 0, 85, 64
2, 534960, Note_on_c, 0, 86, 45
2, 535200, Note_off_c, 0, 86, 64
2, 535200, Note_on_c, 0, 83, 45
2, 535440, Note_off_c, 0, 83, 64
2, 535440, Note_on_c, 0, 81, 45
2, 536280, Note_off_c, 0, 81, 64
2, 536400, Note_on_c, 0, 85, 45
2, 536880, Note_off_c, 0, 85, 64
2, 536880, Note_on_c, 0, 86, 45
2, 537360, Note_off_c, 0, 86, 64
2, 537360, Note_on_c, 0, 81, 45
2, 537840, Note_off_c, 0, 81, 64
2, 537840, Note_on_c, 0, 83, 45
2, 538320, Note_off_c, 0, 83, 64
2, 538320, Note_on_c, 0, 81, 45
2, 538800, Note_off_c, 0, 81, 64
2, 538800, Note_on_c, 0, 78, 45
2, 539280, Note_off_c, 0, 78, 64
2, 539280, Note_on_c, 0, 79, 45
2, 539760, Note_off_c, 0, 79, 64
2, 539760, Note_on_c, 0, 78, 45
2, 540240, Note_off_c, 0, 78, 64
2, 540240, Note_on_c, 0, 74, 45
2, 540720, Note_off_c, 0, 74, 64
2, 540720, Note_on_c, 0, 78, 45
2, 540960, Note_off_c, 0, 78, 64
2, 540960, Note_on_c, 0, 76, 45
2, 541200, Note_off_c, 0, 76, 64
2, 541200, Note_on_c, 0, 74, 45
2, 541840, Note_off_c, 0, 74, 64
2, 550800, Note_on_c, 0, 72, 45
2, 550920, Note_off_c, 0, 72, 64
2, 551280, Note_on_c, 0, 71, 45
2, 551400, Note_off_c, 0, 71, 64
2, 551760, Note_on_c, 0, 67, 45
2, 551880, Note_off_c, 0, 67, 64
2, 552240, Note_on_c, 0, 69, 45
2, 552360, Note_off_c, 0, 69, 64
2, 552720, Note_on_c, 0, 71, 45
2, 552840, Note_off_c, 0, 71, 64
2, 553200, Note_on_c, 0, 67, 45
2, 553320, Note_off_c, 0, 67, 64
2, 562320, Note_on_c, 0, 84, 45
2, 563200, Note_off_c, 0, 84, 64
2, 563280, Note_on_c, 0, 84, 45
2, 563760, Note_off_c, 0, 84, 64
2, 563760, Note_on_c, 0, 83, 45
2, 564240, Note_off_c, 0, 83, 64
2, 564240, Note_on_c, 0, 84, 45
2, 564640, Note_off_c, 0, 84, 64
2, 564720, Note_on_c, 0, 84, 47
2, 565120, Note_off_c, 0, 84, 64
2, 565200, Note_on_c, 0, 84, 49
2, 565600, Note_off_c, 0, 84, 64
2, 565680, Note_on_c, 0, 84, 51
2, 566080, Note_off_c, 0, 84, 64
2, 566160, Note_on_c, 0, 84, 53
2, 566560, Note_off_c, 0, 84, 64
2, 566640, Note_on_c, 0, 84, 55
2, 567040, Note_off_c, 0, 84, 64
2, 567120, Note_on_c, 0, 84, 57
2, 567520, Note_off_c, 0, 84, 64
2, 567600, Note_on_c, 0, 84, 59
2, 568000, Note_off_c, 0, 84, 64
2, 568080, Note_on_c, 0, 84, 61
2, 568480, Note_off_c, 0, 84, 64
2, 568560, Note_on_c, 0, 84, 63
2, 568960, Note_off_c, 0, 84, 64
2, 569040, Note_on_c, 0, 84, 65
2, 569440, Note_off_c, 0, 84, 64
2, 569520, Note_on_c, 0, 84, 67
2, 569920, Note_off_c, 0, 84, 64
2, 570000, Note_on_c, 0, 84, 69
2, 570400, Note_off_c, 0, 84, 64
2, 570480, Note_on_c, 0, 84, 72
2, 570600, Note_off_c, 0, 84, 64
2, 570960, Note_on_c, 0, 72, 75
2, 570960, Note_on_c, 0, 84, 75
2, 571360, Note_off_c, 0, 84, 64
2, 571360, Note_off_c, 0, 72, 64
2, 571440, Note_on_c, 0, 77, 75
2, 571440, Note_on_c, 0, 89, 75
2, 571840, Note_off_c, 0, 89, 64
2, 571840, Note_off_c, 0, 77, 64
2, 571920, Note_on_c, 0, 72, 75
2, 571920, Note_on_c, 0, 84, 75
2, 572320, Note_off_c, 0, 84, 64
2, 572320, Note_off_c, 0, 72, 64
2, 572400, Note_on_c, 0, 74, 75
2, 572400, Note_on_c, 0, 86, 75
2, 572800, Note_off_c, 0, 86, 64
2, 572800, Note_off_c, 0, 74, 64
2, 572880, Note_on_c, 0, 72, 75
2, 572880, Note_on_c, 0, 84, 75
2, 573280, Note_off_c, 0, 84, 64
2, 573280, Note_off_c, 0, 72, 64
2, 573360, Note_on_c, 0, 69, 75
2, 573360, Note_on_c, 0, 81, 75
2, 573760, Note_off_c, 0, 81, 64
2, 573760, Note_off_c, 0, 69, 64
2, 573840, Note_on_c, 0, 70, 75
2, 573840, Note_on_c, 0, 82, 75
2, 574240, Note_off_c, 0, 82, 64
2, 574240, Note_off_c, 0, 70, 64
2, 574320, Note_on_c, 0, 69, 75
2, 574320, Note_on_c, 0, 81, 75
2, 574720, Note_off_c, 0, 81, 64
2, 574720, Note_off_c, 0, 69, 64
2, 574800, Note_on_c, 0, 65, 75
2, 574800, Note_on_c, 0, 77, 75
2, 575200, Note_off_c, 0, 77, 64
2, 575200, Note_off_c, 0, 65, 64
2, 575280, Note_on_c, 0, 67, 75
2, 575280, Note_on_c, 0, 79, 75
2, 575680, Note_off_c, 0, 79, 64
2, 575680, Note_off_c, 0, 67, 64
2, 575760, Note_on_c, 0, 69, 75
2, 575760, Note_on_c, 0, 81, 75
2, 576160, Note_off_c, 0, 81, 64
2, 576160, Note_off_c, 0, 69, 64
2, 576240, Note_on_c, 0, 65, 75
2, 576240, Note_on_c, 0, 77, 75
2, 576640, Note_off_c, 0, 77, 64
2, 576640, Note_off_c, 0, 65, 64
2, 576720, Note_on_c, 0, 67, 75
2, 576720, Note_on_c, 0, 79, 75
2, 577120, Note_off_c, 0, 79, 64
2, 577120, Note_off_c, 0, 67, 64
2, 577200, Note_on_c, 0, 69, 75
2, 577200, Note_on_c, 0, 81, 75
2, 577600, Note_off_c, 0, 81, 64
2, 577600, Note_off_c, 0, 69, 64
2, 577680, Note_on_c, 0, 77, 75
2, 578080, Note_off_c, 0, 77, 64
2, 578160, Note_on_c, 0, 79, 75
2, 578560, Note_off_c, 0, 79, 64
2, 578640, Note_on_c, 0, 81, 75
2, 579040, Note_off_c, 0, 81, 64
2, 579120, Note_on_c, 0, 77, 75
2, 579520, Note_off_c, 0, 77, 64
2, 579600, Note_on_c, 0, 79, 75
2, 580000, Note_off_c, 0, 79, 64
2, 580080, Note_on_c, 0, 81, 75
2, 581400, Note_off_c, 0, 81, 64
2, 581520, Note_on_c, 0, 79, 75
2, 581580, Note_off_c, 0, 79, 64
2, 581580, Note_on_c, 0, 81, 75
2, 581640, Note_off_c, 0, 81, 64
2, 581640, Note_on_c, 0, 79, 75
2, 582400, Note_off_c, 0, 79, 64
2, 582480, Note_on_c, 0, 77, 75
2, 582880, Note_off_c, 0, 77, 64
2, 582960, Note_on_c, 0, 76, 75
2, 583020, Note_off_c, 0, 76, 64
2, 583020, Note_on_c, 0, 77, 75
2, 583080, Note_off_c, 0, 77, 64
2, 583080, Note_on_c, 0, 76, 75
2, 583840, Note_off_c, 0, 76, 64
2, 583920, Note_on_c, 0, 74, 75
2, 584320, Note_off_c, 0, 74, 64
2, 584400, Note_on_c, 0, 72, 75
2, 585240, Note_off_c, 0, 72, 64
2, 585360, Note_on_c, 0, 76, 75
2, 585760, Note_off_c, 0, 76, 64
2, 585840, Note_on_c, 0, 77, 75
2, 587160, Note_off_c, 0, 77, 64
2, 587280, Note_on_c, 0, 77, 75
2, 587280, Note_on_c, 0, 79, 75
2, 588600, Note_off_c, 0, 79, 64
2, 588600, Note_off_c, 0, 77, 64
2, 588720, Note_on_c, 0, 77, 75
2, 588720, Note_on_c, 0, 81, 75
2, 590040, Note_off_c, 0, 81, 64
2, 590040, Note_off_c, 0, 77, 64
2, 590160, Note_on_c, 0, 76, 75
2, 590160, Note_on_c, 0, 79, 75
2, 591480, Note_off_c, 0, 79, 64
2, 591480, Note_off_c, 0, 76, 64
2, 591600, Note_on_c, 0, 77, 75
2, 591600, Note_on_c, 0, 81, 75
2, 592000, Note_off_c, 0, 81, 64
2, 592000, Note_off_c, 0, 77, 64
2, 592560, Note_on_c, 0, 81, 75
2, 592560, Note_on_c, 0, 93, 75
2, 592960, Note_off_c, 0, 93, 64
2, 592960, Note_off_c, 0, 81, 64
2, 593040, Note_on_c, 0, 91, 75
2, 593880, Note_off_c, 0, 91, 64
2, 594000, Note_on_c, 0, 89, 75
2, 594400, Note_off_c, 0, 89, 64
2, 594480, Note_on_c, 0, 88, 75
2, 595320, Note_off_c, 0, 88, 64
2, 595440, Note_on_c, 0, 86, 75
2, 595840, Note_off_c, 0, 86, 64
2, 595920, Note_on_c, 0, 84, 75
2, 596760, Note_off_c, 0, 84, 64
2, 596880, Note_on_c, 0, 84, 75
2, 596880, Note_on_c, 0, 88, 75
2, 597280, Note_off_c, 0, 88, 64
2, 597280, Note_off_c, 0, 84, 64
2, 597360, Note_on_c, 0, 77, 75
2, 597360, Note_on_c, 0, 89, 75
2, 598680, Note_off_c, 0, 89, 64
2, 598680, Note_off_c, 0, 77, 64
2, 598800, Note_on_c, 0, 86, 75
2, 598800, Note_on_c, 0, 89, 75
2, 600120, Note_off_c, 0, 89, 64
2, 600120, Note_off_c, 0, 86, 64
2, 600240, Note_on_c, 0, 84, 75
2, 600240, Note_on_c, 0, 89, 75
2, 601560, Note_off_c, 0, 89, 64
2, 601560, Note_off_c, 0, 84, 64
2, 601680, Note_on_c, 0, 84, 75
2, 601680, Note_on_c, 0, 88, 75
2, 603000, Note_off_c, 0, 88, 64
2, 603000, Note_off_c, 0, 84, 64
2, 603120, Note_on_c, 0, 84, 75
2, 603120, Note_on_c, 0, 89, 75
2, 603520, Note_off_c, 0, 89, 64
2, 603520, Note_off_c, 0, 84, 64
2, 607440, Note_on_c, 0, 84, 75
2, 607440, Note_on_c, 0, 88, 75
2, 607840, Note_off_c, 0, 88, 64
2, 607840, Note_off_c, 0, 84, 64
2, 607920, Note_on_c, 0, 84, 75
2, 607920, Note_on_c, 0, 88, 75
2, 608320, Note_off_c, 0, 88, 64
2, 608320, Note_off_c, 0, 84, 64
2, 608400, Note_on_c, 0, 84, 75
2, 608400, Note_on_c, 0, 88, 75
2, 608800, Note_off_c, 0, 88, 64
2, 608800, Note_off_c, 0, 84, 64
2, 608880, Note_on_c, 0, 84, 75
2, 608880, Note_on_c, 0, 89, 75
2, 609280, Note_off_c, 0, 89, 64
2, 609280, Note_off_c, 0, 84, 64
2, 613200, Note_on_c, 0, 84, 75
2, 613200, Note_on_c, 0, 88, 75
2, 613600, Note_off_c, 0, 88, 64
2, 613600, Note_off_c, 0, 84, 64
2, 613680, Note_on_c, 0, 84, 75
2, 613680, Note_on_c, 0, 88, 75
2, 614080, Note_off_c, 0, 88, 64
2, 614080, Note_off_c, 0, 84, 64
2, 614160, Note_on_c, 0, 84, 75
2, 614160, Note_on_c, 0, 88, 75
2, 614560, Note_off_c, 0, 88, 64
2, 614560, Note_off_c, 0, 84, 64
2, 614640, Note_on_c, 0, 84, 75
2, 614640, Note_on_c, 0, 89, 75
2, 615040, Note_off_c, 0, 89, 64
2, 615040, Note_off_c, 0, 84, 64
2, 617520, Note_on_c, 0, 84, 75
2, 617520, Note_on_c, 0, 89, 75
2, 617920, Note_off_c, 0, 89, 64
2, 617920, Note_off_c, 0, 84, 64
2, 740400, Note_on_c, 0, 77, 92
2, 740505, Note_off_c, 0, 77, 64
2, 740560, Note_on_c, 0, 81, 92
2, 740665, Note_off_c, 0, 81, 64
2, 740720, Note_on_c, 0, 82, 92
2, 740825, Note_off_c, 0, 82, 64
2, 740880, Note_on_c, 0, 84, 92
2, 741280, Note_off_c, 0, 84, 64
2, 741360, Note_on_c, 0, 77, 92
2, 741465, Note_off_c, 0, 77, 64
2, 741520, Note_on_c, 0, 81, 92
2, 741625, Note_off_c, 0, 81, 64
2, 741680, Note_on_c, 0, 82, 92
2, 741785, Note_off_c, 0, 82, 64
2, 741840, Note_on_c, 0, 84, 92
2, 742240, Note_off_c, 0, 84, 64
2, 742320, Note_on_c, 0, 77, 92
2, 742320, Note_on_c, 0, 82, 92
2, 742475, Note_off_c, 0, 77, 64
2, 742480, Note_on_c, 0, 82, 92
2, 742585, Note_off_c, 0, 82, 64
2, 742640, Note_on_c, 0, 84, 92
2, 742745, Note_off_c, 0, 84, 64
2, 742800, Note_on_c, 0, 86, 92
2, 743160, Note_off_c, 0, 82, 64
2, 743200, Note_off_c, 0, 86, 64
2, 743280, Note_on_c, 0, 81, 92
2, 743280, Note_on_c, 0, 84, 92
2, 743760, Note_off_c, 0, 84, 64
2, 743760, Note_off_c, 0, 81, 64
2, 743760, Note_on_c, 0, 82, 92
2, 744160, Note_off_c, 0, 82, 64
2, 744240, Note_on_c, 0, 77, 92
2, 744345, Note_off_c, 0, 77, 64
2, 744400, Note_on_c, 0, 81, 92
2, 744505, Note_off_c, 0, 81, 64
2, 744560, Note_on_c, 0, 82, 92
2, 744665, Note_off_c, 0, 82, 64
2, 744720, Note_on_c, 0, 84, 92
2, 745120, Note_off_c, 0, 84, 64
2, 745200, Note_on_c, 0, 77, 92
2, 745305, Note_off_c, 0, 77, 64
2, 745360, Note_on_c, 0, 81, 92
2, 745465, Note_off_c, 0, 81, 64
2, 745520, Note_on_c, 0, 82, 92
2, 745625, Note_off_c, 0, 82, 64
2, 745680, Note_on_c, 0, 84, 92
2, 746080, Note_off_c, 0, 84, 64
2, 746160, Note_on_c, 0, 77, 92
2, 746160, Note_on_c, 0, 82, 92
2, 746315, Note_off_c, 0, 77, 64
2, 746320, Note_on_c, 0, 82, 92
2, 746425, Note_off_c, 0, 82, 64
2, 746480, Note_on_c, 0, 84, 92
2, 746585, Note_off_c, 0, 84, 64
2, 746640, Note_on_c, 0, 86, 92
2, 747000, Note_off_c, 0, 82, 64
2, 747040, Note_off_c, 0, 86, 64
2, 747120, Note_on_c, 0, 81, 92
2, 747120, Note_on_c, 0, 84, 92
2, 747600, Note_off_c, 0, 84, 64
2, 747600, Note_off_c, 0, 81, 64
2, 747600, Note_on_c, 0, 82, 92
2, 748000, Note_off_c, 0, 82, 64
2, 750000, Note_on_c, 0, 81, 92
2, 750000, Note_on_c, 0, 89, 92
2, 750840, Note_off_c, 0, 89, 64
2, 750840, Note_off_c, 0, 81, 64
2, 750960, Note_on_c, 0, 84, 92
2, 750960, Note_on_c, 0, 88, 92
2, 751440, Note_off_c, 0, 88, 64
2, 751440, Note_off_c, 0, 84, 64
2, 751440, Note_on_c, 0, 84, 92
2, 751440, Note_on_c, 0, 89, 92
2, 751840, Note_off_c, 0, 89, 64
2, 751840, Note_off_c, 0, 84, 64
2, 753840, Note_on_c, 0, 81, 92
2, 753840, Note_on_c, 0, 89, 92
2, 754680, Note_off_c, 0, 89, 64
2, 754680, Note_off_c, 0, 81, 64
2, 754800, Note_on_c, 0, 84, 92
2, 754800, Note_on_c, 0, 88, 92
2, 755280, Note_off_c, 0, 88, 64
2, 755280, Note_off_c, 0, 84, 64
2, 755280, Note_on_c, 0, 84, 92
2, 755280, Note_on_c, 0, 89, 92
2, 755680, Note_off_c, 0, 89, 64
2, 755680, Note_off_c, 0, 84, 64
2, 757680, Note_on_c, 0, 88, 92
2, 757680, Note_on_c, 0, 91, 92
2, 757915, Note_off_c, 0, 91, 64
2, 757915, Note_off_c, 0, 88, 64
2, 758160, Note_on_c, 0, 86, 92
2, 758160, Note_on_c, 0, 89, 92
2, 758395, Note_off_c, 0, 89, 64
2, 758395, Note_off_c, 0, 86, 64
2, 758640, Note_on_c, 0, 84, 92
2, 758640, Note_on_c, 0, 88, 92
2, 758875, Note_off_c, 0, 88, 64
2, 758875, Note_off_c, 0, 84, 64
2, 759120, Note_on_c, 0, 83, 92
2, 759120, Note_on_c, 0, 86, 92
2, 759355, Note_off_c, 0, 86, 64
2, 759355, Note_off_c, 0, 83, 64
2, 759600, Note_on_c, 0, 84, 92
2, 759835, Note_off_c, 0, 84, 64
2, 761280, Note_on_c, 0, 86, 92
2, 761280, Note_on_c, 0, 89, 92
2, 761515, Note_off_c, 0, 89, 64
2, 761515, Note_off_c, 0, 86, 64
2, 761760, Note_on_c, 0, 88, 92
2, 761760, Note_on_c, 0, 91, 92
2, 761995, Note_off_c, 0, 91, 64
2, 761995, Note_off_c, 0, 88, 64
2, 762240, Note_on_c, 0, 86, 92
2, 762240, Note_on_c, 0, 89, 92
2, 762475, Note_off_c, 0, 89, 64
2, 762475, Note_off_c, 0, 86, 64
2, 762720, Note_on_c, 0, 84, 92
2, 762720, Note_on_c, 0, 88, 92
2, 762955, Note_off_c, 0, 88, 64
2, 762955, Note_off_c, 0, 84, 64
2, 763200, Note_on_c, 0, 83, 92
2, 763200, Note_on_c, 0, 86, 92
2, 763435, Note_off_c, 0, 86, 64
2, 763435, Note_off_c, 0, 83, 64
2, 763440, Note_on_c, 0, 76, 92
2, 763440, Note_on_c, 0, 84, 92
2, 764080, Note_off_c, 0, 84, 64
2, 764080, Note_off_c, 0, 76, 64
2, 764160, Note_on_c, 0, 76, 92
2, 764160, Note_on_c, 0, 84, 92
2, 764395, Note_off_c, 0, 84, 64
2, 764395, Note_off_c, 0, 76, 64
2, 764400, Note_on_c, 0, 76, 92
2, 764400, Note_on_c, 0, 84, 92
2, 765040, Note_off_c, 0, 84, 64
2, 765040, Note_off_c, 0, 76, 64
2, 765120, Note_on_c, 0, 76, 92
2, 765120, Note_on_c, 0, 84, 92
2, 765355, Note_off_c, 0, 84, 64
2, 765355, Note_off_c, 0, 76, 64
2, 765360, Note_on_c, 0, 76, 92
2, 765360, Note_on_c, 0, 84, 92
2, 766000, Note_off_c, 0, 84, 64
2, 766000, Note_off_c, 0, 76, 64
2, 766080, Note_on_c, 0, 76, 92
2, 766080, Note_on_c, 0, 84, 92
2, 766315, Note_off_c, 0, 84, 64
2, 766315, Note_off_c, 0, 76, 64
2, 766320, Note_on_c, 0, 76, 92
2, 766320, Note_on_c, 0, 84, 92
2, 766960, Note_off_c, 0, 84, 64
2, 766960, Note_off_c, 0, 76, 64
2, 767040, Note_on_c, 0, 76, 92
2, 767040, Note_on_c, 0, 84, 92
2, 767275, Note_off_c, 0, 84, 64
2, 767275, Note_off_c, 0, 76, 64
2, 767280, Note_on_c, 0, 76, 92
2, 767280, Note_on_c, 0, 84, 92
2, 767360, Note_off_c, 0, 84, 64
2, 767360, Note_off_c, 0, 76, 64
2, 767520, Note_on_c, 0, 76, 92
2, 767520, Note_on_c, 0, 84, 92
2, 767600, Note_off_c, 0, 84, 64
2, 767600, Note_off_c, 0, 76, 64
2, 767760, Note_on_c, 0, 76, 92
2, 767760, Note_on_c, 0, 84, 92
2, 767840, Note_off_c, 0, 84, 64
2, 767840, Note_off_c, 0, 76, 64
2, 768000, Note_on_c, 0, 84, 92
2, 768000, Note_on_c, 0, 88, 92
2, 768080, Note_off_c, 0, 88, 64
2, 768080, Note_off_c, 0, 84, 64
2, 768240, Note_on_c, 0, 84, 92
2, 768240, Note_on_c, 0, 88, 92
2, 768320, Note_off_c, 0, 88, 64
2, 768320, Note_off_c, 0, 84, 64
2, 768480, Note_on_c, 0, 84, 92
2, 768480, Note_on_c, 0, 88, 92
2, 768560, Note_off_c, 0, 88, 64
2, 768560, Note_off_c, 0, 84, 64
2, 768720, Note_on_c, 0, 84, 92
2, 768720, Note_on_c, 0, 88, 92
2, 768800, Note_off_c, 0, 88, 64
2, 768800, Note_off_c, 0, 84, 64
2, 768960, Note_on_c, 0, 84, 92
2, 768960, Note_on_c, 0, 88, 92
2, 769040, Note_off_c, 0, 88, 64
2, 769040, Note_off_c, 0, 84, 64
2, 769200, Note_on_c, 0, 84, 92
2, 769200, Note_on_c, 0, 88, 92
2, 769435, Note_off_c, 0, 88, 64
2, 769435, Note_off_c, 0, 84, 64
2, 770160, Note_on_c, 0, 76, 45
2, 770160, Note_on_c, 0, 84, 45
2, 770395, Note_off_c, 0, 84, 64
2, 770395, Note_off_c, 0, 76, 64
2, 784080, Note_on_c, 0, 69, 45
2, 784560, Note_off_c, 0, 69, 64
2, 784560, Note_on_c, 0, 74, 45
2, 785520, Note_off_c, 0, 74, 64
2, 785520, Note_on_c, 0, 78, 45
2, 786000, Note_off_c, 0, 78, 64
2, 786000, Note_on_c, 0, 81, 45
2, 786480, Note_off_c, 0, 81, 64
2, 786480, Note_on_c, 0, 78, 45
2, 786880, Note_off_c, 0, 78, 64
2, 786960, Note_on_c, 0, 78, 45
2, 787440, Note_off_c, 0, 78, 64
2, 787440, Note_on_c, 0, 81, 45
2, 787920, Note_off_c, 0, 81, 64
2, 787920, Note_on_c, 0, 85, 45
2, 788400, Note_off_c, 0, 85, 64
2, 788400, Note_on_c, 0, 86, 45
2, 788640, Note_off_c, 0, 86, 64
2, 788640, Note_on_c, 0, 83, 45
2, 788880, Note_off_c, 0, 83, 64
2, 788880, Note_on_c, 0, 81, 45
2, 789720, Note_off_c, 0, 81, 64
2, 789840, Note_on_c, 0, 85, 45
2, 790320, Note_off_c, 0, 85, 64
2, 790320, Note_on_c, 0, 86, 45
2, 790800, Note_off_c, 0, 86, 64
2, 790800, Note_on_c, 0, 81, 45
2, 791280, Note_off_c, 0, 81, 64
2, 791280, Note_on_c, 0, 83, 45
2, 791760, Note_off_c, 0, 83, 64
2, 791760, Note_on_c, 0, 81, 45
2, 792240, Note_off_c, 0, 81, 64
2, 792240, Note_on_c, 0, 78, 45
2, 792720, Note_off_c, 0, 78, 64
2, 792720, Note_on_c, 0, 79, 45
2, 793200, Note_off_c, 0, 79, 64
2, 793200, Note_on_c, 0, 78, 45
2, 793680, Note_off_c, 0, 78, 64
2, 793680, Note_on_c, 0, 74, 45
2, 794160, Note_off_c, 0, 74, 64
2, 794160, Note_on_c, 0, 78, 45
2, 794400, Note_off_c, 0, 78, 64
2, 794400, Note_on_c, 0, 76, 45
2, 794640, Note_off_c, 0, 76, 64
2, 794640, Note_on_c, 0, 74, 45
2, 795280, Note_off_c, 0, 74, 64
2, 807120, Note_on_c, 0, 69, 45
2, 807600, Note_off_c, 0, 69, 64
2, 807600, Note_on_c, 0, 74, 45
2, 808560, Note_off_c, 0, 74, 64
2, 808560, Note_on_c, 0, 78, 45
2, 809040, Note_off_c, 0, 78, 64
2, 809040, Note_on_c, 0, 81, 45
2, 809520, Note_off_c, 0, 81, 64
2, 809520, Note_on_c, 0, 78, 45
2, 809920, Note_off_c, 0, 78, 64
2, 810000, Note_on_c, 0, 78, 45
2, 810480, Note_off_c, 0, 78, 64
2, 810480, Note_on_c, 0, 81, 45
2, 810960, Note_off_c, 0, 81, 64
2, 810960, Note_on_c, 0, 85, 45
2, 811440, Note_off_c, 0, 85, 64
2, 811440, Note_on_c, 0, 86, 45
2, 811680, Note_off_c, 0, 86, 64
2, 811680, Note_on_c, 0, 83, 45
2, 811920, Note_off_c, 0, 83, 64
2, 811920, Note_on_c, 0, 81, 45
2, 812760, Note_off_c, 0, 81, 64
2, 812880, Note_on_c, 0, 85, 45
2, 813360, Note_off_c, 0, 85, 64
2, 813360, Note_on_c, 0, 86, 45
2, 813840, Note_off_c, 0, 86, 64
2, 813840, Note_on_c, 0, 81, 45
2, 814320, Note_off_c, 0, 81, 64
2, 814320, Note_on_c, 0, 83, 45
2, 814800, Note_off_c, 0, 83, 64
2, 814800, Note_on_c, 0, 81, 45
2, 815280, Note_off_c, 0, 81, 64
2, 815280, Note_on_c, 0, 78, 45
2, 815760, Note_off_c, 0, 78, 64
2, 815760, Note_on_c, 0, 79, 45
2, 816240, Note_off_c, 0, 79, 64
2, 816240, Note_on_c, 0, 78, 45
2, 816720, Note_off_c, 0, 78, 64
2, 816720, Note_on_c, 0, 74, 45
2, 817200, Note_off_c, 0, 74, 64
2, 817200, Note_on_c, 0, 78, 45
2, 817440, Note_off_c, 0, 78, 64
2, 817440, Note_on_c, 0, 76, 45
2, 817680, Note_off_c, 0, 76, 64
2, 817680, Note_on_c, 0, 74, 45
2, 818320, Note_off_c, 0, 74, 64
2, 827280, Note_on_c, 0, 72, 45
2, 827400, Note_off_c, 0, 72, 64
2, 827760, Note_on_c, 0, 71, 45
2, 827880, Note_off_c, 0, 71, 64
2, 828240, Note_on_c, 0, 67, 45
2, 828360, Note_off_c, 0, 67, 64
2, 828720, Note_on_c, 0, 69, 45
2, 828840, Note_off_c, 0, 69, 64
2, 829200, Note_on_c, 0, 71, 45
2, 829320, Note_off_c, 0, 71, 64
2, 829680, Note_on_c, 0, 67, 45
2, 829800, Note_off_c, 0, 67, 64
2, 838800, Note_on_c, 0, 84, 45
2, 839680, Note_off_c, 0, 84, 64
2, 839760, Note_on_c, 0, 84, 45
2, 840240, Note_off_c, 0, 84, 64
2, 840240, Note_on_c, 0, 83, 45
2, 840720, Note_off_c, 0, 83, 64
2, 840720, Note_on_c, 0, 84, 45
2, 841120, Note_off_c, 0, 84, 64
2, 841200, Note_on_c, 0, 84, 47
2, 841600, Note_off_c, 0, 84, 64
2, 841680, Note_on_c, 0, 84, 49
2, 842080, Note_off_c, 0, 84, 64
2, 842160, Note_on_c, 0, 84, 51
2, 842560, Note_off_c, 0, 84, 64
2, 842640, Note_on_c, 0, 84, 53
2, 843040, Note_off_c, 0, 84, 64
2, 843120, Note_on_c, 0, 84, 55
2, 843520, Note_off_c, 0, 84, 64
2, 843600, Note_on_c, 0, 84, 57
2, 844000, Note_off_c, 0, 84, 64
2, 844080, Note_on_c, 0, 84, 59
2, 844480, Note_off_c, 0, 84, 64
2, 844560, Note_on_c, 0, 84, 61
2, 844960, Note_off_c, 0, 84, 64
2, 845040, Note_on_c, 0, 84, 63
2, 845440, Note_off_c, 0, 84, 64
2, 845520, Note_on_c, 0, 84, 65
2, 845920, Note_off_c, 0, 84, 64
2, 846000, Note_on_c, 0, 84, 67
2, 846400, Note_off_c, 0, 84, 64
2, 846480, Note_on_c, 0, 84, 69
2, 846880, Note_off_c, 0, 84, 64
2, 846960, Note_on_c, 0, 84, 72
2, 847080, Note_off_c, 0, 84, 64
2, 847440, Note_on_c, 0, 72, 75
2, 847440, Note_on_c, 0, 84, 75
2, 847840, Note_off_c, 0, 84, 64
2, 847840, Note_off_c, 0, 72, 64
2, 847920, Note_on_c, 0, 77, 75
2, 847920, Note_on_c, 0, 89, 75
2, 848320, Note_off_c, 0, 89, 64
2, 848320, Note_off_c, 0, 77, 64
2, 848400, Note_on_c, 0, 72, 75
2, 848400, Note_on_c, 0, 84, 75
2, 848800, Note_off_c, 0, 84, 64
2, 848800, Note_off_c, 0, 72, 64
2, 848880, Note_on_c, 0, 74, 75
2, 848880, Note_on_c, 0, 86, 75
2, 849280, Note_off_c, 0, 86, 64
2, 849280, Note_off_c, 0, 74, 64
2, 849360, Note_on_c, 0, 72, 75
2, 849360, Note_on_c, 0, 84, 75
2, 849760, Note_off_c, 0, 84, 64
2, 849760, Note_off_c, 0, 72, 64
2, 849840, Note_on_c, 0, 69, 75
2, 849840, Note_on_c, 0, 81, 75
2, 850240, Note_off_c, 0, 81, 64
2, 850240, Note_off_c, 0, 69, 64
2, 850320, Note_on_c, 0, 70, 75
2, 850320, Note_on_c, 0, 82, 75
2, 850720, Note_off_c, 0, 82, 64
2, 850720, Note_off_c, 0, 70, 64
2, 850800, Note_on_c, 0, 69, 75
2, 850800, Note_on_c, 0, 81, 75
2, 851200, Note_off_c, 0, 81, 64
2, 851200, Note_off_c, 0, 69, 64
2, 851280, Note_on_c, 0, 65, 75
2, 851280, Note_on_c, 0, 77, 75
2, 851680, Note_off_c, 0, 77, 64
2, 851680, Note_off_c, 0, 65, 64
2, 851760, Note_on_c, 0, 67, 75
2, 851760, Note_on_c, 0, 79, 75
2, 852160, Note_off_c, 0, 79, 64
2, 852160, Note_off_c, 0, 67, 64
2, 852240, Note_on_c, 0, 69, 75
2, 852240, Note_on_c, 0, 81, 75
2, 852640, Note_off_c, 0, 81, 64
2, 852640, Note_off_c, 0, 69, 64
2, 852720, Note_on_c, 0, 65, 75
2, 852720, Note_on_c, 0, 77, 75
2, 853120, Note_off_c, 0, 77, 64
2, 853120, Note_off_c, 0, 65, 64
2, 853200, Note_on_c, 0, 67, 75
2, 853200, Note_on_c, 0, 79, 75
2, 853600, Note_off_c, 0, 79, 64
2, 853600, Note_off_c, 0, 67, 64
2, 853680, Note_on_c, 0, 69, 75
2, 853680, Note_on_c, 0, 81, 75
2, 854080, Note_off_c, 0, 81, 64
2, 854080, Note_off_c, 0, 69, 64
2, 854160, Note_on_c, 0, 77, 75
2, 854560, Note_off_c, 0, 77, 64
2, 854640, Note_on_c, 0, 79, 75
2, 855040, Note_off_c, 0, 79, 64
2, 855120, Note_on_c, 0, 81, 75
2, 855520, Note_off_c, 0, 81, 64
2, 855600, Note_on_c, 0, 77, 75
2, 856000, Note_off_c, 0, 77, 64
2, 856080, Note_on_c, 0, 79, 75
2, 856480, Note_off_c, 0, 79, 64
2, 856560, Note_on_c, 0, 81, 75
2, 857880, Note_off_c, 0, 81, 64
2, 858000, Note_on_c, 0, 79, 75
2, 858060, Note_off_c, 0, 79, 64
2, 858060, Note_on_c, 0, 81, 75
2, 858120, Note_off_c, 0, 81, 64
2, 858120, Note_on_c, 0, 79, 75
2, 858880, Note_off_c, 0, 79, 64
2, 858960, Note_on_c, 0, 77, 75
2, 859360, Note_off_c, 0, 77, 64
2, 859440, Note_on_c, 0, 76, 75
2, 859500, Note_off_c, 0, 76, 64
2, 859500, Note_on_c, 0, 77, 75
2, 859560, Note_off_c, 0, 77, 64
2, 859560, Note_on_c, 0, 76, 75
2, 860320, Note_off_c, 0, 76, 64
2, 860400, Note_on_c, 0, 74, 75
2, 860800, Note_off_c, 0, 74, 64
2, 860880, Note_on_c, 0, 72, 75
2, 861720, Note_off_c, 0, 72, 64
2, 861840, Note_on_c, 0, 76, 75
2, 862240, Note_off_c, 0, 76, 64
2, 862320, Note_on_c, 0, 77, 75
2, 863640, Note_off_c, 0, 77, 64
2, 863760, Note_on_c, 0, 77, 75
2, 863760, Note_on_c, 0, 79, 75
2, 865080, Note_off_c, 0, 79, 64
2, 865080, Note_off_c, 0, 77, 64
2, 865200, Note_on_c, 0, 77, 75
2, 865200, Note_on_c, 0, 81, 75
2, 866520, Note_off_c, 0, 81, 64
2, 866520, Note_off_c, 0, 77, 64
2, 866640, Note_on_c, 0, 76, 75
2, 866640, Note_on_c, 0, 79, 75
2, 867960, Note_off_c, 0, 79, 64
2, 867960, Note_off_c, 0, 76, 64
2, 868080, Note_on_c, 0, 77, 75
2, 868080, Note_on_c, 0, 81, 75
2, 868480, Note_off_c, 0, 81, 64
2, 868480, Note_off_c, 0, 77, 64
2, 869040, Note_on_c, 0, 81, 75
2, 869040, Note_on_c, 0, 93, 75
2, 869440, Note_off_c, 0, 93, 64
2, 869440, Note_off_c, 0, 81, 64
2, 869520, Note_on_c, 0, 91, 75
2, 870360, Note_off_c, 0, 91, 64
2, 870480, Note_on_c, 0, 89, 75
2, 870880, Note_off_c, 0, 89, 64
2, 870960, Note_on_c, 0, 88, 75
2, 871800, Note_off_c, 0, 88, 64
2, 871920, Note_on_c, 0, 86, 75
2, 872320, Note_off_c, 0, 86, 64
2, 872400, Note_on_c, 0, 84, 75
2, 873240, Note_off_c, 0, 84, 64
2, 873360, Note_on_c, 0, 84, 75
2, 873360, Note_on_c, 0, 88, 75
2, 873760, Note_off_c, 0, 88, 64
2, 873760, Note_off_c, 0, 84, 64
2, 873840, Note_on_c, 0, 77, 75
2, 873840, Note_on_c, 0, 89, 75
2, 875160, Note_off_c, 0, 89, 64
2, 875160, Note_off_c, 0, 77, 64
2, 875280, Note_on_c, 0, 86, 75
2, 875280, Note_on_c, 0, 89, 75
2, 876600, Note_off_c, 0, 89, 64
2, 876600, Note_off_c, 0, 86, 64
2, 876720, Note_on_c, 0, 84, 75
2, 876720, Note_on_c, 0, 89, 75
2, 878040, Note_off_c, 0, 89, 64
2, 878040, Note_off_c, 0, 84, 64
2, 878160, Note_on_c, 0, 84, 75
2, 878160, Note_on_c, 0, 88, 75
2, 879480, Note_off_c, 0, 88, 64
2, 879480, Note_off_c, 0, 84, 64
2, 879600, Note_on_c, 0, 84, 75
2, 879600, Note_on_c, 0, 89, 75
2, 880000, Note_off_c, 0, 89, 64
2, 880000, Note_off_c, 0, 84, 64
2, 883920, Note_on_c, 0, 84, 75
2, 883920, Note_on_c, 0, 88, 75
2, 884320, Note_off_c, 0, 88, 64
2, 884320, Note_off_c, 0, 84, 64
2, 884400, Note_on_c, 0, 84, 75
2, 884400, Note_on_c, 0, 88, 75
2, 884800, Note_off_c, 0, 88, 64
2, 884800, Note_off_c, 0, 84, 64
2, 884880, Note_on_c, 0, 84, 75
2, 884880, Note_on_c, 0, 88, 75
2, 885280, Note_off_c, 0, 88, 64
2, 885280, Note_off_c, 0, 84, 64
2, 885360, Note_on_c, 0, 84, 75
2, 885360, Note_on_c, 0, 89, 75
2, 885760, Note_off_c, 0, 89, 64
2, 885760, Note_off_c, 0, 84, 64
2, 889680, Note_on_c, 0, 84, 75
2, 889680, Note_on_c, 0, 88, 75
2, 890080, Note_off_c, 0, 88, 64
2, 890080, Note_off_c, 0, 84, 64
2, 890160, Note_on_c, 0, 84, 75
2, 890160, Note_on_c, 0, 88, 75
2, 890560, Note_off_c, 0, 88, 64
2, 890560, Note_off_c, 0, 84, 64
2, 890640, Note_on_c, 0, 84, 75
2, 890640, Note_on_c, 0, 88, 75
2, 891040, Note_off_c, 0, 88, 64
2, 891040, Note_off_c, 0, 84, 64
2, 891120, Note_on_c, 0, 84, 75
2, 891120, Note_on_c, 0, 89, 75
2, 891520, Note_off_c, 0, 89, 64
2, 891520, Note_off_c, 0, 84, 64
2, 894000, Note_on_c, 0, 84, 75
2, 894000, Note_on_c, 0, 89, 75
2, 894400, Note_off_c, 0, 89, 64
2, 894400, Note_off_c, 0, 84, 64
2, 1016880, Note_on_c, 0, 77, 92
2, 1016985, Note_off_c, 0, 77, 64
2, 1017040, Note_on_c, 0, 81, 92
2, 1017145, Note_off_c, 0, 81, 64
2, 1017200, Note_on_c, 0, 82, 92
2, 1017305, Note_off_c, 0, 82, 64
2, 1017360, Note_on_c, 0, 84, 92
2, 1017760, Note_off_c, 0, 84, 64
2, 1017840, Note_on_c, 0, 77, 92
2, 1017945, Note_off_c, 0, 77, 64
2, 1018000, Note_on_c, 0, 81, 92
2, 1018105, Note_off_c, 0, 81, 64
2, 1018160, Note_on_c, 0, 82, 92
2, 1018265, Note_off_c, 0, 82, 64
2, 1018320, Note_on_c, 0, 84, 92
2, 1018720, Note_off_c, 0, 84, 64
2, 1018800, Note_on_c, 0, 77, 92
2, 1018800, Note_on_c, 0, 82, 92
2, 1018955, Note_off_c, 0, 77, 64
2, 1018960, Note_on_c, 0, 82, 92
2, 1019065, Note_off_c, 0, 82, 64
2, 1019120, Note_on_c, 0, 84, 92
2, 1019225, Note_off_c, 0, 84, 64
2, 1019280, Note_on_c, 0, 86, 92
2, 1019640, Note_off_c, 0, 82, 64
2, 1019680, Note_off_c, 0, 86, 64
2, 1019760, Note_on_c, 0, 81, 92
2, 1019760, Note_on_c, 0, 84, 92
2, 1020240, Note_off_c, 0, 84, 64
2, 1020240, Note_off_c, 0, 81, 64
2, 1020240, Note_on_c, 0, 82, 92
2, 1020640, Note_off_c, 0, 82, 64
2, 1020720, Note_on_c, 0, 77, 92
2, 1020825, Note_off_c, 0, 77, 64
2, 1020880, Note_on_c, 0, 81, 92
2, 1020985, Note_off_c, 0, 81, 64
2, 1021040, Note_on_c, 0, 82, 92
2, 1021145, Note_off_c, 0, 82, 64
2, 1021200, Note_on_c, 0, 84, 92
2, 1021600, Note_off_c, 0, 84, 64
2, 1021680, Note_on_c, 0, 77, 92
2, 1021785, Note_off_c, 0, 77, 64
2, 1021840, Note_on_c, 0, 81, 92
2, 1021945, Note_off_c, 0, 81, 64
2, 1022000, Note_on_c, 0, 82, 92
2, 1022105, Note_off_c, 0, 82, 64
2, 1022160, Note_on_c, 0, 84, 92
2, 1022560, Note_off_c, 0, 84, 64
2, 1022640, Note_on_c, 0, 77, 92
2, 1022640, Note_on_c, 0, 82, 92
2, 1022795, Note_off_c, 0, 77, 64
2, 1022800, Note_on_c, 0, 82, 92
2, 1022905, Note_off_c, 0, 82, 64
2, 1022960, Note_on_c, 0, 84, 92
2, 1023065, Note_off_c, 0, 84, 64
2, 1023120, Note_on_c, 0, 86, 92
2, 1023480, Note_off_c, 0, 82, 64
2, 1023520, Note_off_c, 0, 86, 64
2, 1023600, Note_on_c, 0, 81, 92
2, 1023600, Note_on_c, 0, 84, 92
2, 1024080, Note_off_c, 0, 84, 64
2, 1024080, Note_off_c, 0, 81, 64
2, 1024080, Note_on_c, 0, 82, 92
2, 1024480, Note_off_c, 0, 82, 64
2, 1026480, Note_on_c, 0, 81, 92
2, 1026480, Note_on_c, 0, 89, 92
2, 1027320, Note_off_c, 0, 89, 64
2, 1027320, Note_off_c, 0, 81, 64
2, 1027440, Note_on_c, 0, 84, 92
2, 1027440, Note_on_c, 0, 88, 92
2, 1027920, Note_off_c, 0, 88, 64
2, 1027920, Note_off_c, 0, 84, 64
2, 1027920, Note_on_c, 0, 84, 92
2, 1027920, Note_on_c, 0, 89, 92
2, 1028320, Note_off_c, 0, 89, 64
2, 1028320, Note_off_c, 0, 84, 64
2, 1030320, Note_on_c, 0, 81, 92
2, 1030320, Note_on_c, 0, 89, 92
2, 1031160, Note_off_c, 0, 89, 64
2, 1031160, Note_off_c, 0, 81, 64
2, 1031280, Note_on_c, 0, 84, 92
2, 1031280, Note_on_c, 0, 88, 92
2, 1031760, Note_off_c, 0, 88, 64
2, 1031760, Note_off_c, 0, 84, 64
2, 1031760, Note_on_c, 0, 84, 92
2, 1031760, Note_on_c, 0, 89, 92
2, 1032160, Note_off_c, 0, 89, 64
2, 1032160, Note_off_c, 0, 84, 64
2, 1034160, Note_on_c, 0, 88, 92
2, 1034160, Note_on_c, 0, 91, 92
2, 1034395, Note_off_c, 0, 91, 64
2, 1034395, Note_off_c, 0, 88, 64
2, 1034640, Note_on_c, 0, 86, 92
2, 1034640, Note_on_c, 0, 89, 92
2, 1034875, Note_off_c, 0, 89, 64
2, 1034875, Note_off_c, 0, 86, 64
2, 1035120, Note_on_c, 0, 84, 92
2, 1035120, Note_on_c, 0, 88, 92
2, 1035355, Note_off_c, 0, 88, 64
2, 1035355, Note_off_c, 0, 84, 64
2, 1035600, Note_on_c, 0, 83, 92
2, 1035600, Note_on_c, 0, 86, 92
2, 1035835, Note_off_c, 0, 86, 64
2, 1035835, Note_off_c, 0, 83, 64
2, 1036080, Note_on_c, 0, 84, 92
2, 1036315, Note_off_c, 0, 84, 64
2, 1037760, Note_on_c, 0, 86, 92
2, 1037760, Note_on_c, 0, 89, 92
2, 1037995, Note_off_c, 0, 89, 64
2, 1037995, Note_off_c, 0, 86, 64
2, 1038240, Note_on_c, 0, 88, 92
2, 1038240, Note_on_c, 0, 91, 92
2, 1038475, Note_off_c, 0, 91, 64
2, 1038475, Note_off_c, 0, 88, 64
2, 1038720, Note_on_c, 0, 86, 92
2, 1038720, Note_on_c, 0, 89, 92
2, 1038955, Note_off_c, 0, 89, 64
2, 1038955, Note_off_c, 0, 86, 64
2, 1039200, Note_on_c, 0, 84, 92
2, 1039200, Note_on_c, 0, 88, 92
2, 1039435, Note_off_c, 0, 88, 64
2, 1039435, Note_off_c, 0, 84, 64
2, 1039680, Note_on_c, 0, 83, 92
2, 1039680, Note_on_c, 0, 86, 92
2, 1039915, Note_off_c, 0, 86, 64
2, 1039915, Note_off_c, 0, 83, 64
2, 1039920, Note_on_c, 0, 76, 92
2, 1039920, Note_on_c, 0, 84, 92
2, 1040560, Note_off_c, 0, 84, 64
2, 1040560, Note_off_c, 0, 76, 64
2, 1040640, Note_on_c, 0, 76, 92
2, 1040640, Note_on_c, 0, 84, 92
2, 1040875, Note_off_c, 0, 84, 64
2, 1040875, Note_off_c, 0, 76, 64
2, 1040880, Note_on_c, 0, 76, 92
2, 1040880, Note_on_c, 0, 84, 92
2, 1041520, Note_off_c, 0, 84, 64
2, 1041520, Note_off_c, 0, 76, 64
2, 1041600, Note_on_c, 0, 76, 92
2, 1041600, Note_on_c, 0, 84, 92
2, 1041835, Note_off_c, 0, 84, 64
2, 1041835, Note_off_c, 0, 76, 64
2, 1041840, Note_on_c, 0, 76, 92
2, 1041840, Note_on_c, 0, 84, 92
2, 1042480, Note_off_c, 0, 84, 64
2, 1042480, Note_off_c, 0, 76, 64
2, 1042560, Note_on_c, 0, 76, 92
2, 1042560, Note_on_c, 0, 84, 92
2, 1042795, Note_off_c, 0, 84, 64
2, 1042795, Note_off_c, 0, 76, 64
2, 1042800, Note_on_c, 0, 76, 92
2, 1042800, Note_on_c, 0, 84, 92
2, 1043440, Note_off_c, 0, 84, 64
2, 1043440, Note_off_c, 0, 76, 64
2, 1043520, Note_on_c, 0, 76, 92
2, 1043520, Note_on_c, 0, 84, 92
2, 1043755, Note_off_c, 0, 84, 64
2, 1043755, Note_off_c, 0, 76, 64
2, 1043760, Note_on_c, 0, 76, 92
2, 1043760, Note_on_c, 0, 84, 92
2, 1043840, Note_off_c, 0, 84, 64
2, 1043840, Note_off_c, 0, 76, 64
2, 1044000, Note_on_c, 0, 76, 92
2, 1044000, Note_on_c, 0, 84, 92
2, 1044080, Note_off_c, 0, 84, 64
2, 1044080, Note_off_c, 0, 76, 64
2, 1044240, Note_on_c, 0, 76, 92
2, 1044240, Note_on_c, 0, 84, 92
2, 1044320, Note_off_c, 0, 84, 64
2, 1044320, Note_off_c, 0, 76, 64
2, 1044480, Note_on_c, 0, 84, 92
2, 1044480, Note_on_c, 0, 88, 92
2, 1044560, Note_off_c, 0, 88, 64
2, 1044560, Note_off_c, 0, 84, 64
2, 1044720, Note_on_c, 0, 84, 92
2, 1044720, Note_on_c, 0, 88, 92
2, 1044800, Note_off_c, 0, 88, 64
2, 1044800, Note_off_c, 0, 84, 64
2, 1044960, Note_on_c, 0, 84, 92
2, 1044960, Note_on_c, 0, 88, 92
2, 1045040, Note_off_c, 0, 88, 64
2, 1045040, Note_off_c, 0, 84, 64
2, 1045200, Note_on_c, 0, 84, 92
2, 1045200, Note_on_c, 0, 88, 92
2, 1045280, Note_off_c, 0, 88, 64
2, 1045280, Note_off_c, 0, 84, 64
2, 1045440, Note_on_c, 0, 84, 92
2, 1045440, Note_on_c, 0, 88, 92
2, 1045520, Note_off_c, 0, 88, 64
2, 1045520, Note_off_c, 0, 84, 64
2, 1045680, Note_on_c, 0, 84, 92
2, 1045680, Note_on_c, 0, 88, 92
2, 1045915, Note_off_c, 0, 88, 64
2, 1045915, Note_off_c, 0, 84, 64
2, 1046640, Note_on_c, 0, 76, 45
2, 1046640, Note_on_c, 0, 84, 45
2, 1046875, Note_off_c, 0, 84, 64
2, 1046875, Note_off_c, 0, 76, 64
2, 1076400, Note_on_c, 0, 72, 45
2, 1076880, Note_off_c, 0, 72, 64
2, 1076880, Note_on_c, 0, 77, 45
2, 1077840, Note_off_c, 0, 77, 64
2, 1077840, Note_on_c, 0, 81, 45
2, 1078320, Note_off_c, 0, 81, 64
2, 1078320, Note_on_c, 0, 84, 45
2, 1078800, Note_off_c, 0, 84, 64
2, 1078800, Note_on_c, 0, 81, 45
2, 1079280, Note_off_c, 0, 81, 64
2, 1079280, Note_on_c, 0, 81, 45
2, 1079760, Note_off_c, 0, 81, 64
2, 1079760, Note_on_c, 0, 84, 45
2, 1080240, Note_off_c, 0, 84, 64
2, 1080240, Note_on_c, 0, 88, 45
2, 1080720, Note_off_c, 0, 88, 64
2, 1080720, Note_on_c, 0, 89, 45
2, 1080960, Note_off_c, 0, 89, 64
2, 1080960, Note_on_c, 0, 86, 45
2, 1081200, Note_off_c, 0, 86, 64
2, 1081200, Note_on_c, 0, 84, 45
2, 1082040, Note_off_c, 0, 84, 64
2, 1082160, Note_on_c, 0, 88, 45
2, 1082640, Note_off_c, 0, 88, 64
2, 1082640, Note_on_c, 0, 89, 45
2, 1083120, Note_off_c, 0, 89, 64
2, 1083120, Note_on_c, 0, 84, 45
2, 1083600, Note_off_c, 0, 84, 64
2, 1083600, Note_on_c, 0, 86, 45
2, 1084080, Note_off_c, 0, 86, 64
2, 1084080, Note_on_c, 0, 84, 45
2, 1084560, Note_off_c, 0, 84, 64
2, 1084560, Note_on_c, 0, 81, 45
2, 1085040, Note_off_c, 0, 81, 64
2, 1085040, Note_on_c, 0, 82, 45
2, 1085520, Note_off_c, 0, 82, 64
2, 1085520, Note_on_c, 0, 81, 45
2, 1086000, Note_off_c, 0, 81, 64
2, 1086000, Note_on_c, 0, 77, 45
2, 1086480, Note_off_c, 0, 77, 64
2, 1086480, Note_on_c, 0, 79, 45
2, 1086960, Note_off_c, 0, 79, 64
2, 1086960, Note_on_c, 0, 81, 45
2, 1087440, Note_off_c, 0, 81, 64
2, 1087440, Note_on_c, 0, 77, 45
2, 1087840, Note_off_c, 0, 77, 64
2, 1093680, Note_on_c, 0, 72, 75
2, 1093680, Note_on_c, 0, 84, 75
2, 1094080, Note_off_c, 0, 84, 64
2, 1094080, Note_off_c, 0, 72, 64
2, 1094160, Note_on_c, 0, 77, 75
2, 1094160, Note_on_c, 0, 89, 75
2, 1094560, Note_off_c, 0, 89, 64
2, 1094560, Note_off_c, 0, 77, 64
2, 1094640, Note_on_c, 0, 72, 75
2, 1094640, Note_on_c, 0, 84, 75
2, 1095040, Note_off_c, 0, 84, 64
2, 1095040, Note_off_c, 0, 72, 64
2, 1095120, Note_on_c, 0, 74, 75
2, 1095120, Note_on_c, 0, 86, 75
2, 1095520, Note_off_c, 0, 86, 64
2, 1095520, Note_off_c, 0, 74, 64
2, 1095600, Note_on_c, 0, 72, 75
2, 1095600, Note_on_c, 0, 84, 75
2, 1096000, Note_off_c, 0, 84, 64
2, 1096000, Note_off_c, 0, 72, 64
2, 1096080, Note_on_c, 0, 69, 75
2, 1096080, Note_on_c, 0, 81, 75
2, 1096480, Note_off_c, 0, 81, 64
2, 1096480, Note_off_c, 0, 69, 64
2, 1096560, Note_on_c, 0, 70, 75
2, 1096560, Note_on_c, 0, 82, 75
2, 1096960, Note_off_c, 0, 82, 64
2, 1096960, Note_off_c, 0, 70, 64
2, 1097040, Note_on_c, 0, 69, 75
2, 1097040, Note_on_c, 0, 81, 75
2, 1097440, Note_off_c, 0, 81, 64
2, 1097440, Note_off_c, 0, 69, 64
2, 1097520, Note_on_c, 0, 65, 75
2, 1097520, Note_on_c, 0, 77, 75
2, 1097920, Note_off_c, 0, 77, 64
2, 1097920, Note_off_c, 0, 65, 64
2, 1098000, Note_on_c, 0, 67, 75
2, 1098000, Note_on_c, 0, 79, 75
2, 1098400, Note_off_c, 0, 79, 64
2, 1098400, Note_off_c, 0, 67, 64
2, 1098480, Note_on_c, 0, 69, 75
2, 1098480, Note_on_c, 0, 81, 75
2, 1098880, Note_off_c, 0, 81, 64
2, 1098880, Note_off_c, 0, 69, 64
2, 1098960, Note_on_c, 0, 65, 75
2, 1098960, Note_on_c, 0, 77, 75
2, 1099360, Note_off_c, 0, 77, 64
2, 1099360, Note_off_c, 0, 65, 64
2, 1099440, Note_on_c, 0, 67, 75
2, 1099440, Note_on_c, 0, 79, 75
2, 1099840, Note_off_c, 0, 79, 64
2, 1099840, Note_off_c, 0, 67, 64
2, 1099920, Note_on_c, 0, 69, 75
2, 1099920, Note_on_c, 0, 81, 75
2, 1100320, Note_off_c, 0, 81, 64
2, 1100320, Note_off_c, 0, 69, 64
2, 1100400, Note_on_c, 0, 77, 75
2, 1100800, Note_off_c, 0, 77, 64
2, 1100880, Note_on_c, 0, 79, 75
2, 1101280, Note_off_c, 0, 79, 64
2, 1101360, Note_on_c, 0, 81, 75
2, 1101760, Note_off_c, 0, 81, 64
2, 1101840, Note_on_c, 0, 77, 75
2, 1102240, Note_off_c, 0, 77, 64
2, 1102320, Note_on_c, 0, 79, 75
2, 1102720, Note_off_c, 0, 79, 64
2, 1102800, Note_on_c, 0, 81, 75
2, 1104120, Note_off_c, 0, 81, 64
2, 1104240, Note_on_c, 0, 79, 75
2, 1104300, Note_off_c, 0, 79, 64
2, 1104300, Note_on_c, 0, 81, 75
2, 1104360, Note_off_c, 0, 81, 64
2, 1104360, Note_on_c, 0, 79, 75
2, 1105120, Note_off_c, 0, 79, 64
2, 1105200, Note_on_c, 0, 77, 75
2, 1105600, Note_off_c, 0, 77, 64
2, 1105680, Note_on_c, 0, 76, 75
2, 1105740, Note_off_c, 0, 76, 64
2, 1105740, Note_on_c, 0, 77, 75
2, 1105800, Note_off_c, 0, 77, 64
2, 1105800, Note_on_c, 0, 76, 75
2, 1106560, Note_off_c, 0, 76, 64
2, 1106640, Note_on_c, 0, 74, 75
2, 1107040, Note_off_c, 0, 74, 64
2, 1107120, Note_on_c, 0, 72, 75
2, 1107960, Note_off_c, 0, 72, 64
2, 1108080, Note_on_c, 0, 76, 75
2, 1108480, Note_off_c, 0, 76, 64
2, 1108560, Note_on_c, 0, 77, 75
2, 1109880, Note_off_c, 0, 77, 64
2, 1110000, Note_on_c, 0, 77, 75
2, 1110000, Note_on_c, 0, 79, 75
2, 1111320, Note_off_c, 0, 79, 64
2, 1111320, Note_off_c, 0, 77, 64
2, 1111440, Note_on_c, 0, 77, 75
2, 1111440, Note_on_c, 0, 81, 75
2, 1112760, Note_off_c, 0, 81, 64
2, 1112760, Note_off_c, 0, 77, 64
2, 1112880, Note_on_c, 0, 76, 75
2, 1112880, Note_on_c, 0, 79, 75
2, 1114200, Note_off_c, 0, 79, 64
2, 1114200, Note_off_c, 0, 76, 64
2, 1114320, Note_on_c, 0, 77, 75
2, 1114320, Note_on_c, 0, 81, 75
2, 1114720, Note_off_c, 0, 81, 64
2, 1114720, Note_off_c, 0, 77, 64
2, 1115280, Note_on_c, 0, 81, 75
2, 1115280, Note_on_c, 0, 93, 75
2, 1115680, Note_off_c, 0, 93, 64
2, 1115680, Note_off_c, 0, 81, 64
2, 1115760, Note_on_c, 0, 79, 75
2, 1115760, Note_on_c, 0, 91, 75
2, 1116600, Note_off_c, 0, 91, 64
2, 1116600, Note_off_c, 0, 79, 64
2, 1116720, Note_on_c, 0, 77, 75
2, 1116720, Note_on_c, 0, 89, 75
2, 1117120, Note_off_c, 0, 89, 64
2, 1117120, Note_off_c, 0, 77, 64
2, 1117200, Note_on_c, 0, 76, 75
2, 1117200, Note_on_c, 0, 88, 75
2, 1118040, Note_off_c, 0, 88, 64
2, 1118040, Note_off_c, 0, 76, 64
2, 1118160, Note_on_c, 0, 74, 75
2, 1118160, Note_on_c, 0, 86, 75
2, 1118560, Note_off_c, 0, 86, 64
2, 1118560, Note_off_c, 0, 74, 64
2, 1118640, Note_on_c, 0, 72, 75
2, 1118640, Note_on_c, 0, 84, 75
2, 1119480, Note_off_c, 0, 84, 64
2, 1119480, Note_off_c, 0, 72, 64
2, 1119600, Note_on_c, 0, 84, 75
2, 1119600, Note_on_c, 0, 88, 75
2, 1120000, Note_off_c, 0, 88, 64
2, 1120000, Note_off_c, 0, 84, 64
2, 1120080, Note_on_c, 0, 77, 75
2, 1120080, Note_on_c, 0, 89, 75
2, 1121400, Note_off_c, 0, 89, 64
2, 1121400, Note_off_c, 0, 77, 64
2, 1121520, Note_on_c, 0, 86, 75
2, 1121520, Note_on_c, 0, 89, 75
2, 1122840, Note_off_c, 0, 89, 64
2, 1122840, Note_off_c, 0, 86, 64
2, 1122960, Note_on_c, 0, 84, 75
2, 1122960, Note_on_c, 0, 89, 75
2, 1124280, Note_off_c, 0, 89, 64
2, 1124280, Note_off_c, 0, 84, 64
2, 1124400, Note_on_c, 0, 84, 75
2, 1124400, Note_on_c, 0, 88, 75
2, 1125720, Note_off_c, 0, 88, 64
2, 1125720, Note_off_c, 0, 84, 64
2, 1125840, Note_on_c, 0, 84, 75
2, 1125840, Note_on_c, 0, 89, 75
2, 1126240, Note_off_c, 0, 89, 64
2, 1126240, Note_off_c, 0, 84, 64
2, 1130160, Note_on_c, 0, 84, 75
2, 1130160, Note_on_c, 0, 88, 75
2, 1130560, Note_off_c, 0, 88, 64
2, 1130560, Note_off_c, 0, 84, 64
2, 1130640, Note_on_c, 0, 84, 75
2, 1130640, Note_on_c, 0, 88, 75
2, 1131040, Note_off_c, 0, 88, 64
2, 1131040, Note_off_c, 0, 84, 64
2, 1131120, Note_on_c, 0, 84, 75
2, 1131120, Note_on_c, 0, 88, 75
2, 1131520, Note_off_c, 0, 88, 64
2, 1131520, Note_off_c, 0, 84, 64
2, 1131600, Note_on_c, 0, 84, 75
2, 1131600, Note_on_c, 0, 89, 75
2, 1132000, Note_off_c, 0, 89, 64
2, 1132000, Note_off_c, 0, 84, 64
2, 1135920, Note_on_c, 0, 84, 75
2, 1135920, Note_on_c, 0, 88, 75
2, 1136320, Note_off_c, 0, 88, 64
2, 1136320, Note_off_c, 0, 84, 64
2, 1136400, Note_on_c, 0, 84, 75
2, 1136400, Note_on_c, 0, 88, 75
2, 1136800, Note_off_c, 0, 88, 64
2, 1136800, Note_off_c, 0, 84, 64
2, 1136880, Note_on_c, 0, 84, 75
2, 1136880, Note_on_c, 0, 88, 75
2, 1137280, Note_off_c, 0, 88, 64
2, 1137280, Note_off_c, 0, 84, 64
2, 1154640, Note_on_c, 0, 77, 30
2, 1156440, Note_off_c, 0, 77, 64
2, 1175760, Note_on_c, 0, 82, 60
2, 1177560, Note_off_c, 0, 82, 64
2, 1177680, Note_on_c, 0, 77, 60
2, 1177680, Note_on_c, 0, 89, 60
2, 1181400, Note_off_c, 0, 89, 64
2, 1181400, Note_off_c, 0, 77, 64
2, 1181520, Note_on_c, 0, 77, 60
2, 1181520, Note_on_c, 0, 89, 60
2, 1185240, Note_off_c, 0, 89, 64
2, 1185240, Note_off_c, 0, 77, 64
2, 1185360, Note_on_c, 0, 85, 75
2, 1185360, Note_on_c, 0, 88, 75
2, 1189080, Note_off_c, 0, 88, 64
2, 1189080, Note_off_c, 0, 85, 64
2, 1189200, Note_on_c, 0, 85, 75
2, 1189200, Note_on_c, 0, 88, 75
2, 1192920, Note_off_c, 0, 88, 64
2, 1192920, Note_off_c, 0, 85, 64
2, 1193040, Note_on_c, 0, 84, 75
2, 1193040, Note_on_c, 0, 90, 75
2, 1193440, Note_off_c, 0, 84, 64
2, 1193520, Note_on_c, 0, 87, 75
2, 1196760, Note_off_c, 0, 90, 64
2, 1196760, Note_off_c, 0, 87, 64
2, 1196880, Note_on_c, 0, 87, 75
2, 1196880, Note_on_c, 0, 90, 75
2, 1200600, Note_off_c, 0, 90, 64
2, 1200600, Note_off_c, 0, 87, 64
2, 1200720, Note_on_c, 0, 85, 75
2, 1200955, Note_off_c, 0, 85, 64
2, 1201200, Note_on_c, 0, 82, 75
2, 1201200, Note_on_c, 0, 85, 75
2, 1201435, Note_off_c, 0, 85, 64
2, 1201435, Note_off_c, 0, 82, 64
2, 1202640, Note_on_c, 0, 80, 75
2, 1202640, Note_on_c, 0, 86, 75
2, 1202875, Note_off_c, 0, 86, 64
2, 1202875, Note_off_c, 0, 80, 64
2, 1203120, Note_on_c, 0, 83, 75
2, 1203120, Note_on_c, 0, 86, 75
2, 1203355, Note_off_c, 0, 86, 64
2, 1203355, Note_off_c, 0, 83, 64
2, 1204560, Note_on_c, 0, 84, 75
2, 1204560, Note_on_c, 0, 88, 75
2, 1204960, Note_off_c, 0, 88, 64
2, 1204960, Note_off_c, 0, 84, 64
2, 1205520, Note_on_c, 0, 72, 75
2, 1205520, Note_on_c, 0, 84, 75
2, 1206880, Note_off_c, 0, 84, 64
2, 1206880, Note_off_c, 0, 72, 64
2, 1208400, Note_on_c, 0, 80, 75
2, 1208800, Note_off_c, 0, 80, 64
2, 1209360, Note_on_c, 0, 80, 75
2, 1209360, Note_on_c, 0, 92, 75
2, 1210720, Note_off_c, 0, 92, 64
2, 1210720, Note_off_c, 0, 80, 64
2, 1212240, Note_on_c, 0, 65, 75
2, 1212240, Note_on_c, 0, 77, 75
2, 1212640, Note_off_c, 0, 77, 64
2, 1212640, Note_off_c, 0, 65, 64
2, 1213200, Note_on_c, 0, 77, 75
2, 1213200, Note_on_c, 0, 89, 75
2, 1213840, Note_off_c, 0, 89, 64
2, 1213840, Note_off_c, 0, 77, 64
2, 1213920, Note_on_c, 0, 72, 75
2, 1213920, Note_on_c, 0, 84, 75
2, 1214000, Note_off_c, 0, 84, 64
2, 1214000, Note_off_c, 0, 72, 64
2, 1214160, Note_on_c, 0, 73, 75
2, 1214160, Note_on_c, 0, 85, 75
2, 1214240, Note_off_c, 0, 85, 64
2, 1214240, Note_off_c, 0, 73, 64
2, 1214400, Note_on_c, 0, 80, 75
2, 1214480, Note_off_c, 0, 80, 64
2, 1214640, Note_on_c, 0, 82, 60
2, 1214720, Note_off_c, 0, 82, 64
2, 1214880, Note_on_c, 0, 77, 60
2, 1214960, Note_off_c, 0, 77, 64
2, 1215120, Note_on_c, 0, 78, 60
2, 1215200, Note_off_c, 0, 78, 64
2, 1215360, Note_on_c, 0, 77, 60
2, 1215440, Note_off_c, 0, 77, 64
2, 1215600, Note_on_c, 0, 77, 60
2, 1215680, Note_off_c, 0, 77, 64
2, 1215840, Note_on_c, 0, 75, 60
2, 1215920, Note_off_c, 0, 75, 64
2, 1216080, Note_on_c, 0, 73, 30
2, 1216480, Note_off_c, 0, 73, 64
2, 1220400, Note_on_c, 0, 85, 92
2, 1220400, Note_on_c, 0, 89, 92
2, 1220635, Note_off_c, 0, 89, 64
2, 1220635, Note_off_c, 0, 85, 64
2, 1228080, Note_on_c, 0, 86, 92
2, 1228080, Note_on_c, 0, 89, 92
2, 1228315, Note_off_c, 0, 89, 64
2, 1228315, Note_off_c, 0, 86, 64
2, 1235760, Note_on_c, 0, 84, 92
2, 1235760, Note_on_c, 0, 87, 92
2, 1235995, Note_off_c, 0, 87, 64
2, 1235995, Note_off_c, 0, 84, 64
2, 1237680, Note_on_c, 0, 84, 92
2, 1237680, Note_on_c, 0, 87, 92
2, 1237915, Note_off_c, 0, 87, 64
2, 1237915, Note_off_c, 0, 84, 64
2, 1239600, Note_on_c, 0, 82, 92
2, 1239600, Note_on_c, 0, 85, 92
2, 1239835, Note_off_c, 0, 85, 64
2, 1239835, Note_off_c, 0, 82, 64
2, 1241520, Note_on_c, 0, 83, 92
2, 1241520, Note_on_c, 0, 86, 92
2, 1241755, Note_off_c, 0, 86, 64
2, 1241755, Note_off_c, 0, 83, 64
2, 1243440, Note_on_c, 0, 84, 92
2, 1243440, Note_on_c, 0, 87, 92
2, 1243675, Note_off_c, 0, 87, 64
2, 1243675, Note_off_c, 0, 84, 64
2, 1244400, Note_on_c, 0, 84, 92
2, 1244400, Note_on_c, 0, 88, 92
2, 1244635, Note_off_c, 0, 88, 64
2, 1244635, Note_off_c, 0, 84, 64
2, 1244880, Note_on_c, 0, 85, 92
2, 1244880, Note_on_c, 0, 88, 92
2, 1245115, Note_off_c, 0, 88, 64
2, 1245115, Note_off_c, 0, 85, 64
2, 1252560, Note_on_c, 0, 85, 30
2, 1252560, Note_on_c, 0, 88, 30
2, 1256280, Note_off_c, 0, 88, 64
2, 1256280, Note_off_c, 0, 85, 64
2, 1267920, Note_on_c, 0, 72, 30
2, 1267920, Note_on_c, 0, 84, 30
2, 1272160, Note_off_c, 0, 84, 64
2, 1272160, Note_off_c, 0, 72, 64
2, 1273920, Note_on_c, 0, 87, 60
2, 1274000, Note_off_c, 0, 87, 64
2, 1274160, Note_on_c, 0, 89, 60
2, 1274240, Note_off_c, 0, 89, 64
2, 1274400, Note_on_c, 0, 87, 60
2, 1274480, Note_off_c, 0, 87, 64
2, 1274640, Note_on_c, 0, 85, 60
2, 1274720, Note_off_c, 0, 85, 64
2, 1274880, Note_on_c, 0, 84, 60
2, 1274960, Note_off_c, 0, 84, 64
2, 1275120, Note_on_c, 0, 82, 60
2, 1275200, Note_off_c, 0, 82, 64
2, 1275360, Note_on_c, 0, 81, 60
2, 1275440, Note_off_c, 0, 81, 64
2, 1277760, Note_on_c, 0, 87, 60
2, 1277840, Note_off_c, 0, 87, 64
2, 1278000, Note_on_c, 0, 89, 60
2, 1278080, Note_off_c, 0, 89, 64
2, 1278240, Note_on_c, 0, 87, 60
2, 1278320, Note_off_c, 0, 87, 64
2, 1278480, Note_on_c, 0, 85, 60
2, 1278560, Note_off_c, 0, 85, 64
2, 1278720, Note_on_c, 0, 84, 60
2, 1278800, Note_off_c, 0, 84, 64
2, 1278960, Note_on_c, 0, 82, 60
2, 1279040, Note_off_c, 0, 82, 64
2, 1279200, Note_on_c, 0, 81, 60
2, 1279280, Note_off_c, 0, 81, 64
2, 1281600, Note_on_c, 0, 89, 63
2, 1281680, Note_off_c, 0, 89, 64
2, 1281840, Note_on_c, 0, 90, 63
2, 1281920, Note_off_c, 0, 90, 64
2, 1282080, Note_on_c, 0, 89, 63
2, 1282160, Note_off_c, 0, 89, 64
2, 1282320, Note_on_c, 0, 87, 63
2, 1282400, Note_off_c, 0, 87, 64
2, 1282560, Note_on_c, 0, 85, 63
2, 1282640, Note_off_c, 0, 85, 64
2, 1282800, Note_on_c, 0, 84, 63
2, 1282880, Note_off_c, 0, 84, 64
2, 1283040, Note_on_c, 0, 82, 63
2, 1283120, Note_off_c, 0, 82, 64
2, 1285440, Note_on_c, 0, 89, 69
2, 1285520, Note_off_c, 0, 89, 64
2, 1285680, Note_on_c, 0, 91, 69
2, 1285760, Note_off_c, 0, 91, 64
2, 1285920, Note_on_c, 0, 89, 70
2, 1286000, Note_off_c, 0, 89, 64
2, 1286160, Note_on_c, 0, 87, 71
2, 1286240, Note_off_c, 0, 87, 64
2, 1286400, Note_on_c, 0, 86, 72
2, 1286480, Note_off_c, 0, 86, 64
2, 1286640, Note_on_c, 0, 84, 73
2, 1286720, Note_off_c, 0, 84, 64
2, 1286880, Note_on_c, 0, 83, 74
2, 1286960, Note_off_c, 0, 83, 64
2, 1287120, Note_on_c, 0, 79, 75
2, 1287120, Note_on_c, 0, 91, 75
2, 1287520, Note_off_c, 0, 91, 64
2, 1287520, Note_off_c, 0, 79, 64
2, 1287600, Note_on_c, 0, 79, 75
2, 1287600, Note_on_c, 0, 91, 75
2, 1289440, Note_off_c, 0, 91, 64
2, 1289440, Note_off_c, 0, 79, 64
2, 1289520, Note_on_c, 0, 79, 75
2, 1289520, Note_on_c, 0, 91, 75
2, 1291360, Note_off_c, 0, 91, 64
2, 1291360, Note_off_c, 0, 79, 64
2, 1291440, Note_on_c, 0, 79, 75
2, 1291440, Note_on_c, 0, 91, 75
2, 1292760, Note_off_c, 0, 91, 64
2, 1292760, Note_off_c, 0, 79, 64
2, 1292880, Note_on_c, 0, 80, 75
2, 1292880, Note_on_c, 0, 92, 75
2, 1293280, Note_off_c, 0, 92, 64
2, 1293280, Note_off_c, 0, 80, 64
2, 1293360, Note_on_c, 0, 80, 75
2, 1293360, Note_on_c, 0, 92, 75
2, 1295200, Note_off_c, 0, 92, 64
2, 1295200, Note_off_c, 0, 80, 64
2, 1295280, Note_on_c, 0, 80, 75
2, 1295280, Note_on_c, 0, 92, 75
2, 1297120, Note_off_c, 0, 92, 64
2, 1297120, Note_off_c, 0, 80, 64
2, 1297200, Note_on_c, 0, 80, 75
2, 1297200, Note_on_c, 0, 92, 75
2, 1299040, Note_off_c, 0, 92, 64
2, 1299040, Note_off_c, 0, 80, 64
2, 1299120, Note_on_c, 0, 80, 75
2, 1299120, Note_on_c, 0, 92, 75
2, 1299960, Note_off_c, 0, 92, 64
2, 1299960, Note_off_c, 0, 80, 64
2, 1300080, Note_on_c, 0, 81, 75
2, 1300080, Note_on_c, 0, 93, 75
2, 1300480, Note_off_c, 0, 93, 64
2, 1300480, Note_off_c, 0, 81, 64
2, 1301040, Note_on_c, 0, 86, 75
2, 1301040, Note_on_c, 0, 89, 75
2, 1302880, Note_off_c, 0, 89, 64
2, 1302880, Note_off_c, 0, 86, 64
2, 1302960, Note_on_c, 0, 86, 75
2, 1302960, Note_on_c, 0, 89, 75
2, 1304280, Note_off_c, 0, 89, 64
2, 1304280, Note_off_c, 0, 86, 64
2, 1304880, Note_on_c, 0, 87, 75
2, 1304880, Note_on_c, 0, 90, 75
2, 1305720, Note_off_c, 0, 90, 64
2, 1305720, Note_off_c, 0, 87, 64
2, 1305840, Note_on_c, 0, 86, 75
2, 1305840, Note_on_c, 0, 92, 75
2, 1306240, Note_off_c, 0, 92, 64
2, 1306240, Note_off_c, 0, 86, 64
2, 1306800, Note_on_c, 0, 87, 75
2, 1306800, Note_on_c, 0, 90, 75
2, 1307640, Note_off_c, 0, 90, 64
2, 1307640, Note_off_c, 0, 87, 64
2, 1307760, Note_on_c, 0, 90, 75
2, 1307760, Note_on_c, 0, 92, 75
2, 1308160, Note_off_c, 0, 92, 64
2, 1308160, Note_off_c, 0, 90, 64
2, 1308240, Note_on_c, 0, 89, 75
2, 1308240, Note_on_c, 0, 92, 75
2, 1308880, Note_off_c, 0, 92, 64
2, 1308880, Note_off_c, 0, 89, 64
2, 1308960, Note_on_c, 0, 85, 75
2, 1308960, Note_on_c, 0, 89, 75
2, 1309195, Note_off_c, 0, 89, 64
2, 1309195, Note_off_c, 0, 85, 64
2, 1309200, Note_on_c, 0, 85, 75
2, 1309200, Note_on_c, 0, 89, 75
2, 1310560, Note_off_c, 0, 89, 64
2, 1310560, Note_off_c, 0, 85, 64
2, 1312080, Note_on_c, 0, 85, 75
2, 1312080, Note_on_c, 0, 89, 75
2, 1312720, Note_off_c, 0, 89, 64
2, 1312720, Note_off_c, 0, 85, 64
2, 1312800, Note_on_c, 0, 82, 75
2, 1312800, Note_on_c, 0, 85, 75
2, 1313035, Note_off_c, 0, 85, 64
2, 1313035, Note_off_c, 0, 82, 64
2, 1313040, Note_on_c, 0, 82, 75
2, 1313040, Note_on_c, 0, 85, 75
2, 1314400, Note_off_c, 0, 85, 64
2, 1314400, Note_off_c, 0, 82, 64
2, 1315920, Note_on_c, 0, 82, 108
2, 1315920, Note_on_c, 0, 85, 108
2, 1316560, Note_off_c, 0, 85, 64
2, 1316560, Note_off_c, 0, 82, 64
2, 1316640, Note_on_c, 0, 90, 108
2, 1316640, Note_on_c, 0, 102, 108
2, 1316875, Note_off_c, 0, 102, 64
2, 1316875, Note_off_c, 0, 90, 64
2, 1316880, Note_on_c, 0, 90, 108
2, 1316880, Note_on_c, 0, 102, 108
2, 1319520, Note_off_c, 0, 102, 64
2, 1319520, Note_off_c, 0, 90, 64
2, 1319520, Note_on_c, 0, 79, 108
2, 1319520, Note_on_c, 0, 91, 108
2, 1319755, Note_off_c, 0, 91, 64
2, 1319755, Note_off_c, 0, 79, 64
2, 1319760, Note_on_c, 0, 79, 108
2, 1319760, Note_on_c, 0, 91, 108
2, 1320000, Note_off_c, 0, 91, 64
2, 1320000, Note_off_c, 0, 79, 64
2, 1320000, Note_on_c, 0, 78, 108
2, 1320000, Note_on_c, 0, 90, 108
2, 1320240, Note_off_c, 0, 90, 64
2, 1320240, Note_off_c, 0, 78, 64
2, 1320240, Note_on_c, 0, 79, 30
2, 1320240, Note_on_c, 0, 91, 30
2, 1327675, Note_off_c, 0, 91, 64
2, 1327675, Note_off_c, 0, 79, 64
2, 1327680, Note_on_c, 0, 78, 92
2, 1327680, Note_on_c, 0, 90, 92
2, 1327920, Note_off_c, 0, 90, 64
2, 1327920, Note_off_c, 0, 78, 64
2, 1327920, Note_on_c, 0, 79, 45
2, 1327920, Note_on_c, 0, 91, 45
2, 1335355, Note_off_c, 0, 91, 64
2, 1335355, Note_off_c, 0, 79, 64
2, 1335360, Note_on_c, 0, 78, 89
2, 1335360, Note_on_c, 0, 90, 89
2, 1335600, Note_off_c, 0, 90, 64
2, 1335600, Note_off_c, 0, 78, 64
2, 1335600, Note_on_c, 0, 79, 92
2, 1335600, Note_on_c, 0, 91, 92
2, 1337275, Note_off_c, 0, 91, 64
2, 1337275, Note_off_c, 0, 79, 64
2, 1337280, Note_on_c, 0, 78, 92
2, 1337280, Note_on_c, 0, 90, 92
2, 1337520, Note_off_c, 0, 90, 64
2, 1337520, Note_off_c, 0, 78, 64
2, 1337520, Note_on_c, 0, 79, 92
2, 1337520, Note_on_c, 0, 91, 92
2, 1339195, Note_off_c, 0, 91, 64
2, 1339195, Note_off_c, 0, 79, 64
2, 1339200, Note_on_c, 0, 79, 92
2, 1339200, Note_on_c, 0, 91, 92
2, 1339440, Note_off_c, 0, 91, 64
2, 1339440, Note_off_c, 0, 79, 64
2, 1339440, Note_on_c, 0, 80, 92
2, 1339440, Note_on_c, 0, 92, 92
2, 1341115, Note_off_c, 0, 92, 64
2, 1341115, Note_off_c, 0, 80, 64
2, 1341120, Note_on_c, 0, 79, 92
2, 1341120, Note_on_c, 0, 91, 92
2, 1341360, Note_off_c, 0, 91, 64
2, 1341360, Note_off_c, 0, 79, 64
2, 1341360, Note_on_c, 0, 80, 92
2, 1341360, Note_on_c, 0, 92, 92
2, 1341760, Note_off_c, 0, 92, 64
2, 1341760, Note_off_c, 0, 80, 64
2, 1341840, Note_on_c, 0, 81, 92
2, 1341840, Note_on_c, 0, 93, 92
2, 1341920, Note_off_c, 0, 93, 64
2, 1342080, Note_on_c, 0, 92, 92
2, 1342160, Note_off_c, 0, 92, 64
2, 1342240, Note_off_c, 0, 81, 64
2, 1342320, Note_on_c, 0, 87, 75
2, 1342320, Note_on_c, 0, 93, 75
2, 1350360, Note_off_c, 0, 93, 64
2, 1350360, Note_off_c, 0, 87, 64
2, 1350480, Note_on_c, 0, 87, 75
2, 1350480, Note_on_c, 0, 93, 75
2, 1352400, Note_off_c, 0, 93, 64
2, 1352400, Note_off_c, 0, 87, 64
2, 1352400, Note_on_c, 0, 87, 75
2, 1352400, Note_on_c, 0, 90, 75
2, 1354200, Note_off_c, 0, 90, 64
2, 1354200, Note_off_c, 0, 87, 64
2, 1354320, Note_on_c, 0, 85, 75
2, 1354320, Note_on_c, 0, 89, 75
2, 1356240, Note_off_c, 0, 89, 64
2, 1356240, Note_off_c, 0, 85, 64
2, 1356240, Note_on_c, 0, 85, 75
2, 1356240, Note_on_c, 0, 88, 75
2, 1358040, Note_off_c, 0, 88, 64
2, 1358040, Note_off_c, 0, 85, 64
2, 1358160, Note_on_c, 0, 84, 75
2, 1358160, Note_on_c, 0, 87, 75
2, 1360080, Note_off_c, 0, 87, 64
2, 1360080, Note_off_c, 0, 84, 64
2, 1360080, Note_on_c, 0, 84, 75
2, 1360080, Note_on_c, 0, 87, 75
2, 1361880, Note_off_c, 0, 87, 64
2, 1361880, Note_off_c, 0, 84, 64
2, 1362000, Note_on_c, 0, 82, 75
2, 1362000, Note_on_c, 0, 85, 75
2, 1365720, Note_off_c, 0, 85, 64
2, 1365720, Note_off_c, 0, 82, 64
2, 1365840, Note_on_c, 0, 81, 45
2, 1365840, Note_on_c, 0, 84, 45
2, 1366240, Note_off_c, 0, 84, 64
2, 1366240, Note_off_c, 0, 81, 64
2, 1433280, Note_on_c, 0, 71, 60
2, 1433360, Note_off_c, 0, 71, 64
2, 1433520, Note_on_c, 0, 72, 60
2, 1433600, Note_off_c, 0, 72, 64
2, 1433760, Note_on_c, 0, 74, 60
2, 1433840, Note_off_c, 0, 74, 64
2, 1434000, Note_on_c, 0, 76, 60
2, 1434080, Note_off_c, 0, 76, 64
2, 1434240, Note_on_c, 0, 77, 60
2, 1434320, Note_off_c, 0, 77, 64
2, 1434480, Note_on_c, 0, 79, 60
2, 1434560, Note_off_c, 0, 79, 64
2, 1434720, Note_on_c, 0, 81, 60
2, 1434800, Note_off_c, 0, 81, 64
2, 1434960, Note_on_c, 0, 83, 60
2, 1435040, Note_off_c, 0, 83, 64
2, 1435200, Note_on_c, 0, 84, 60
2, 1435280, Note_off_c, 0, 84, 64
2, 1435440, Note_on_c, 0, 86, 60
2, 1435520, Note_off_c, 0, 86, 64
2, 1435680, Note_on_c, 0, 88, 60
2, 1435760, Note_off_c, 0, 88, 64
2, 1435920, Note_on_c, 0, 89, 60
2, 1436000, Note_off_c, 0, 89, 64
2, 1436160, Note_on_c, 0, 91, 53
2, 1436240, Note_off_c, 0, 91, 64
2, 1436400, Note_on_c, 0, 93, 46
2, 1436480, Note_off_c, 0, 93, 64
2, 1436640, Note_on_c, 0, 83, 38
2, 1436720, Note_off_c, 0, 83, 64
2, 1436880, Note_on_c, 0, 84, 30
2, 1437280, Note_off_c, 0, 84, 64
2, 1471020, Note_on_c, 0, 84, 60
2, 1471020, Note_on_c, 0, 89, 60
2, 1471255, Note_off_c, 0, 89, 64
2, 1471255, Note_off_c, 0, 84, 64
2, 1471260, Note_on_c, 0, 84, 67
2, 1471260, Note_on_c, 0, 89, 67
2, 1471495, Note_off_c, 0, 89, 64
2, 1471495, Note_off_c, 0, 84, 64
2, 1471500, Note_on_c, 0, 84, 75
2, 1471500, Note_on_c, 0, 89, 75
2, 1472820, Note_off_c, 0, 89, 64
2, 1472820, Note_off_c, 0, 84, 64
2, 1472940, Note_on_c, 0, 84, 75
2, 1472940, Note_on_c, 0, 89, 75
2, 1474260, Note_off_c, 0, 89, 64
2, 1474260, Note_off_c, 0, 84, 64
2, 1474380, Note_on_c, 0, 84, 75
2, 1474380, Note_on_c, 0, 89, 75
2, 1475700, Note_off_c, 0, 89, 64
2, 1475700, Note_off_c, 0, 84, 64
2, 1475820, Note_on_c, 0, 86, 75
2, 1475820, Note_on_c, 0, 89, 75
2, 1476940, Note_off_c, 0, 89, 64
2, 1476940, Note_off_c, 0, 86, 64
2, 1477020, Note_on_c, 0, 84, 75
2, 1477020, Note_on_c, 0, 91, 75
2, 1477255, Note_off_c, 0, 91, 64
2, 1477255, Note_off_c, 0, 84, 64
2, 1477260, Note_on_c, 0, 84, 75
2, 1477260, Note_on_c, 0, 91, 75
2, 1478580, Note_off_c, 0, 91, 64
2, 1478580, Note_off_c, 0, 84, 64
2, 1478700, Note_on_c, 0, 84, 75
2, 1478700, Note_on_c, 0, 91, 75
2, 1478940, Note_off_c, 0, 91, 64
2, 1478940, Note_on_c, 0, 89, 75
2, 1479340, Note_off_c, 0, 84, 64
2, 1479420, Note_on_c, 0, 86, 75
2, 1479820, Note_off_c, 0, 89, 64
2, 1479820, Note_off_c, 0, 86, 64
2, 1479900, Note_on_c, 0, 84, 75
2, 1479900, Note_on_c, 0, 89, 75
2, 1480140, Note_off_c, 0, 89, 64
2, 1480140, Note_off_c, 0, 84, 64
2, 1480140, Note_on_c, 0, 86, 75
2, 1480140, Note_on_c, 0, 89, 75
2, 1480860, Note_off_c, 0, 89, 64
2, 1480860, Note_off_c, 0, 86, 64
2, 1480860, Note_on_c, 0, 84, 75
2, 1480860, Note_on_c, 0, 88, 75
2, 1481580, Note_off_c, 0, 88, 64
2, 1481580, Note_off_c, 0, 84, 64
2, 1481580, Note_on_c, 0, 84, 60
2, 1481580, Note_on_c, 0, 89, 60
2, 1481980, Note_off_c, 0, 89, 64
2, 1481980, Note_off_c, 0, 84, 64
2, 1484220, Note_on_c, 0, 72, 75
2, 1484220, Note_on_c, 0, 84, 75
2, 1484455, Note_off_c, 0, 84, 64
2, 1484455, Note_off_c, 0, 72, 64
2, 1484460, Note_on_c, 0, 72, 75
2, 1484460, Note_on_c, 0, 84, 75
2, 1486540, Note_off_c, 0, 84, 64
2, 1486540, Note_off_c, 0, 72, 64
2, 1486620, Note_on_c, 0, 72, 75
2, 1486620, Note_on_c, 0, 84, 75
2, 1487020, Note_off_c, 0, 84, 64
2, 1487020, Note_off_c, 0, 72, 64
2, 1487100, Note_on_c, 0, 72, 75
2, 1487100, Note_on_c, 0, 84, 75
2, 1487335, Note_off_c, 0, 84, 64
2, 1487335, Note_off_c, 0, 72, 64
2, 1489980, Note_on_c, 0, 72, 75
2, 1489980, Note_on_c, 0, 84, 75
2, 1490215, Note_off_c, 0, 84, 64
2, 1490215, Note_off_c, 0, 72, 64
2, 1490220, Note_on_c, 0, 72, 75
2, 1490220, Note_on_c, 0, 84, 75
2, 1492300, Note_off_c, 0, 84, 64
2, 1492300, Note_off_c, 0, 72, 64
2, 1492380, Note_on_c, 0, 72, 75
2, 1492380, Note_on_c, 0, 84, 75
2, 1492780, Note_off_c, 0, 84, 64
2, 1492780, Note_off_c, 0, 72, 64
2, 1492860, Note_on_c, 0, 72, 75
2, 1492860, Note_on_c, 0, 84, 75
2, 1493095, Note_off_c, 0, 84, 64
2, 1493095, Note_off_c, 0, 72, 64
2, 1493100, Note_on_c, 0, 72, 75
2, 1493100, Note_on_c, 0, 84, 75
2, 1493740, Note_off_c, 0, 84, 64
2, 1493740, Note_off_c, 0, 72, 64
2, 1493820, Note_on_c, 0, 74, 75
2, 1493820, Note_on_c, 0, 86, 75
2, 1494220, Note_off_c, 0, 86, 64
2, 1494220, Note_off_c, 0, 74, 64
2, 1494300, Note_on_c, 0, 74, 75
2, 1494300, Note_on_c, 0, 86, 75
2, 1494535, Note_off_c, 0, 86, 64
2, 1494535, Note_off_c, 0, 74, 64
2, 1494540, Note_on_c, 0, 84, 75
2, 1494540, Note_on_c, 0, 88, 75
2, 1495180, Note_off_c, 0, 88, 64
2, 1495180, Note_off_c, 0, 84, 64
2, 1495260, Note_on_c, 0, 83, 75
2, 1495260, Note_on_c, 0, 89, 75
2, 1495660, Note_off_c, 0, 89, 64
2, 1495660, Note_off_c, 0, 83, 64
2, 1495740, Note_on_c, 0, 83, 75
2, 1495740, Note_on_c, 0, 91, 75
2, 1495975, Note_off_c, 0, 91, 64
2, 1495975, Note_off_c, 0, 83, 64
2, 1495980, Note_on_c, 0, 84, 75
2, 1495980, Note_on_c, 0, 91, 75
2, 1497100, Note_off_c, 0, 91, 64
2, 1497100, Note_off_c, 0, 84, 64
2, 1497180, Note_on_c, 0, 84, 75
2, 1497180, Note_on_c, 0, 88, 75
2, 1497415, Note_off_c, 0, 88, 64
2, 1497415, Note_off_c, 0, 84, 64
2, 1497420, Note_on_c, 0, 84, 75
2, 1497420, Note_on_c, 0, 88, 75
2, 1497820, Note_off_c, 0, 88, 64
2, 1497820, Note_off_c, 0, 84, 64
2, 1497900, Note_on_c, 0, 84, 75
2, 1497900, Note_on_c, 0, 88, 75
2, 1498135, Note_off_c, 0, 88, 64
2, 1498135, Note_off_c, 0, 84, 64
2, 1498140, Note_on_c, 0, 84, 75
2, 1498140, Note_on_c, 0, 88, 75
2, 1498540, Note_off_c, 0, 88, 64
2, 1498540, Note_off_c, 0, 84, 64
2, 1498620, Note_on_c, 0, 84, 75
2, 1498620, Note_on_c, 0, 88, 75
2, 1498855, Note_off_c, 0, 88, 64
2, 1498855, Note_off_c, 0, 84, 64
2, 1498860, Note_on_c, 0, 86, 75
2, 1498860, Note_on_c, 0, 89, 75
2, 1499980, Note_off_c, 0, 89, 64
2, 1499980, Note_off_c, 0, 86, 64
2, 1500060, Note_on_c, 0, 83, 75
2, 1500060, Note_on_c, 0, 86, 75
2, 1500295, Note_off_c, 0, 86, 64
2, 1500295, Note_off_c, 0, 83, 64
2, 1500300, Note_on_c, 0, 83, 75
2, 1500300, Note_on_c, 0, 86, 75
2, 1500700, Note_off_c, 0, 86, 64
2, 1500700, Note_off_c, 0, 83, 64
2, 1500780, Note_on_c, 0, 83, 75
2, 1500780, Note_on_c, 0, 86, 75
2, 1501015, Note_off_c, 0, 86, 64
2, 1501015, Note_off_c, 0, 83, 64
2, 1501020, Note_on_c, 0, 83, 75
2, 1501020, Note_on_c, 0, 86, 75
2, 1501420, Note_off_c, 0, 86, 64
2, 1501420, Note_off_c, 0, 83, 64
2, 1501500, Note_on_c, 0, 83, 75
2, 1501500, Note_on_c, 0, 86, 75
2, 1501735, Note_off_c, 0, 86, 64
2, 1501735, Note_off_c, 0, 83, 64
2, 1501740, Note_on_c, 0, 88, 75
2, 1501740, Note_on_c, 0, 91, 75
2, 1502140, Note_off_c, 0, 91, 64
2, 1502140, Note_off_c, 0, 88, 64
2, 1502220, Note_on_c, 0, 88, 75
2, 1502220, Note_on_c, 0, 91, 75
2, 1502455, Note_off_c, 0, 91, 64
2, 1502455, Note_off_c, 0, 88, 64
2, 1502460, Note_on_c, 0, 88, 75
2, 1502460, Note_on_c, 0, 91, 75
2, 1502860, Note_off_c, 0, 91, 64
2, 1502860, Note_off_c, 0, 88, 64
2, 1502940, Note_on_c, 0, 88, 75
2, 1502940, Note_on_c, 0, 91, 75
2, 1503175, Note_off_c, 0, 91, 64
2, 1503175, Note_off_c, 0, 88, 64
2, 1503180, Note_on_c, 0, 88, 75
2, 1503180, Note_on_c, 0, 91, 75
2, 1503580, Note_off_c, 0, 91, 64
2, 1503580, Note_off_c, 0, 88, 64
2, 1503660, Note_on_c, 0, 84, 75
2, 1503660, Note_on_c, 0, 88, 75
2, 1503895, Note_off_c, 0, 88, 64
2, 1503895, Note_off_c, 0, 84, 64
2, 1503900, Note_on_c, 0, 84, 75
2, 1503900, Note_on_c, 0, 88, 75
2, 1504300, Note_off_c, 0, 88, 64
2, 1504300, Note_off_c, 0, 84, 64
2, 1504380, Note_on_c, 0, 84, 75
2, 1504380, Note_on_c, 0, 88, 75
2, 1504615, Note_off_c, 0, 88, 64
2, 1504615, Note_off_c, 0, 84, 64
2, 1504620, Note_on_c, 0, 86, 75
2, 1504620, Note_on_c, 0, 89, 75
2, 1505020, Note_off_c, 0, 89, 64
2, 1505020, Note_off_c, 0, 86, 64
2, 1505100, Note_on_c, 0, 86, 75
2, 1505100, Note_on_c, 0, 89, 75
2, 1505335, Note_off_c, 0, 89, 64
2, 1505335, Note_off_c, 0, 86, 64
2, 1505340, Note_on_c, 0, 86, 75
2, 1505340, Note_on_c, 0, 89, 75
2, 1505740, Note_off_c, 0, 89, 64
2, 1505740, Note_off_c, 0, 86, 64
2, 1505820, Note_on_c, 0, 86, 75
2, 1505820, Note_on_c, 0, 89, 75
2, 1506055, Note_off_c, 0, 89, 64
2, 1506055, Note_off_c, 0, 86, 64
2, 1506060, Note_on_c, 0, 86, 75
2, 1506060, Note_on_c, 0, 89, 75
2, 1506460, Note_off_c, 0, 89, 64
2, 1506460, Note_off_c, 0, 86, 64
2, 1506540, Note_on_c, 0, 83, 75
2, 1506540, Note_on_c, 0, 86, 75
2, 1506775, Note_off_c, 0, 86, 64
2, 1506775, Note_off_c, 0, 83, 64
2, 1506780, Note_on_c, 0, 83, 75
2, 1506780, Note_on_c, 0, 86, 75
2, 1507180, Note_off_c, 0, 86, 64
2, 1507180, Note_off_c, 0, 83, 64
2, 1507260, Note_on_c, 0, 83, 75
2, 1507260, Note_on_c, 0, 86, 75
2, 1507495, Note_off_c, 0, 86, 64
2, 1507495, Note_off_c, 0, 83, 64
2, 1507500, Note_on_c, 0, 84, 75
2, 1507500, Note_on_c, 0, 88, 75
2, 1507900, Note_off_c, 0, 88, 64
2, 1507900, Note_off_c, 0, 84, 64
2, 1509420, Note_on_c, 0, 84, 75
2, 1509420, Note_on_c, 0, 88, 75
2, 1509660, Note_off_c, 0, 88, 64
2, 1509660, Note_off_c, 0, 84, 64
2, 1509660, Note_on_c, 0, 86, 75
2, 1509660, Note_on_c, 0, 89, 75
2, 1510060, Note_off_c, 0, 89, 64
2, 1510060, Note_off_c, 0, 86, 64
2, 1510140, Note_on_c, 0, 86, 75
2, 1510140, Note_on_c, 0, 89, 75
2, 1510380, Note_off_c, 0, 89, 64
2, 1510380, Note_off_c, 0, 86, 64
2, 1510380, Note_on_c, 0, 84, 75
2, 1510380, Note_on_c, 0, 88, 75
2, 1510615, Note_off_c, 0, 88, 64
2, 1510615, Note_off_c, 0, 84, 64
2, 1511580, Note_on_c, 0, 84, 45
2, 1512060, Note_off_c, 0, 84, 64
2, 1512060, Note_on_c, 0, 89, 53
2, 1512300, Note_off_c, 0, 89, 64
2, 1512300, Note_on_c, 0, 84, 57
2, 1512300, Note_on_c, 0, 88, 57
2, 1512540, Note_off_c, 0, 88, 64
2, 1512540, Note_off_c, 0, 84, 64
2, 1512540, Note_on_c, 0, 86, 61
2, 1512540, Note_on_c, 0, 89, 61
2, 1512940, Note_off_c, 0, 89, 64
2, 1512940, Note_off_c, 0, 86, 64
2, 1513020, Note_on_c, 0, 86, 70
2, 1513020, Note_on_c, 0, 89, 70
2, 1513100, Note_off_c, 0, 89, 64
2, 1513100, Note_off_c, 0, 86, 64
2, 1513260, Note_on_c, 0, 84, 75
2, 1513260, Note_on_c, 0, 88, 75
2, 1513980, Note_off_c, 0, 88, 64
2, 1513980, Note_off_c, 0, 84, 64
2, 1513980, Note_on_c, 0, 84, 75
2, 1513980, Note_on_c, 0, 88, 75
2, 1514215, Note_off_c, 0, 88, 64
2, 1514215, Note_off_c, 0, 84, 64
2, 1514460, Note_on_c, 0, 84, 75
2, 1514460, Note_on_c, 0, 88, 75
2, 1514540, Note_off_c, 0, 88, 64
2, 1514540, Note_off_c, 0, 84, 64
2, 1514700, Note_on_c, 0, 86, 75
2, 1514700, Note_on_c, 0, 89, 75
2, 1515420, Note_off_c, 0, 89, 64
2, 1515420, Note_off_c, 0, 86, 64
2, 1515420, Note_on_c, 0, 86, 75
2, 1515420, Note_on_c, 0, 89, 75
2, 1515655, Note_off_c, 0, 89, 64
2, 1515655, Note_off_c, 0, 86, 64
2, 1515900, Note_on_c, 0, 86, 75
2, 1515900, Note_on_c, 0, 89, 75
2, 1515980, Note_off_c, 0, 89, 64
2, 1515980, Note_off_c, 0, 86, 64
2, 1516140, Note_on_c, 0, 84, 45
2, 1516140, Note_on_c, 0, 88, 45
2, 1516375, Note_off_c, 0, 88, 64
2, 1516375, Note_off_c, 0, 84, 64
2, 1518540, Note_on_c, 0, 79, 60
2, 1518780, Note_off_c, 0, 79, 64
2, 1518780, Note_on_c, 0, 88, 60
2, 1519020, Note_off_c, 0, 88, 64
2, 1519020, Note_on_c, 0, 84, 60
2, 1519260, Note_off_c, 0, 84, 64
2, 1519260, Note_on_c, 0, 79, 60
2, 1519500, Note_off_c, 0, 79, 64
2, 1519500, Note_on_c, 0, 88, 60
2, 1519740, Note_off_c, 0, 88, 64
2, 1519740, Note_on_c, 0, 79, 60
2, 1519980, Note_off_c, 0, 79, 64
2, 1519980, Note_on_c, 0, 76, 60
2, 1520220, Note_off_c, 0, 76, 64
2, 1520220, Note_on_c, 0, 84, 60
2, 1520460, Note_off_c, 0, 84, 64
2, 1520460, Note_on_c, 0, 79, 60
2, 1520700, Note_off_c, 0, 79, 64
2, 1520700, Note_on_c, 0, 76, 60
2, 1520940, Note_off_c, 0, 76, 64
2, 1520940, Note_on_c, 0, 84, 60
2, 1521175, Note_off_c, 0, 84, 64
2, 1526220, Note_on_c, 0, 76, 45
2, 1526220, Note_on_c, 0, 84, 45
2, 1527420, Note_off_c, 0, 84, 64
2, 1527420, Note_on_c, 0, 79, 45
2, 1527540, Note_off_c, 0, 76, 64
2, 1527660, Note_off_c, 0, 79, 64
2, 1527660, Note_on_c, 0, 77, 45
2, 1527660, Note_on_c, 0, 81, 45
2, 1528060, Note_off_c, 0, 81, 64
2, 1528060, Note_off_c, 0, 77, 64
2, 1546380, Note_on_c, 0, 81, 60
2, 1546380, Note_on_c, 0, 84, 60
2, 1546615, Note_off_c, 0, 84, 64
2, 1546615, Note_off_c, 0, 81, 64
2, 1546620, Note_on_c, 0, 81, 63
2, 1546620, Note_on_c, 0, 84, 63
2, 1546855, Note_off_c, 0, 84, 64
2, 1546855, Note_off_c, 0, 81, 64
2, 1546860, Note_on_c, 0, 81, 66
2, 1546860, Note_on_c, 0, 84, 66
2, 1547095, Note_off_c, 0, 84, 64
2, 1547095, Note_off_c, 0, 81, 64
2, 1547100, Note_on_c, 0, 81, 69
2, 1547100, Note_on_c, 0, 84, 69
2, 1547335, Note_off_c, 0, 84, 64
2, 1547335, Note_off_c, 0, 81, 64
2, 1547340, Note_on_c, 0, 81, 72
2, 1547340, Note_on_c, 0, 84, 72
2, 1547575, Note_off_c, 0, 84, 64
2, 1547575, Note_off_c, 0, 81, 64
2, 1547580, Note_on_c, 0, 81, 75
2, 1547580, Note_on_c, 0, 89, 75
2, 1547815, Note_off_c, 0, 89, 64
2, 1547815, Note_off_c, 0, 81, 64
2, 1547820, Note_on_c, 0, 84, 75
2, 1547820, Note_on_c, 0, 89, 75
2, 1548220, Note_off_c, 0, 89, 64
2, 1548220, Note_off_c, 0, 84, 64
2, 1548300, Note_on_c, 0, 84, 75
2, 1548300, Note_on_c, 0, 89, 75
2, 1548535, Note_off_c, 0, 89, 64
2, 1548535, Note_off_c, 0, 84, 64
2, 1548540, Note_on_c, 0, 84, 75
2, 1548540, Note_on_c, 0, 89, 75
2, 1548940, Note_off_c, 0, 89, 64
2, 1548940, Note_off_c, 0, 84, 64
2, 1549020, Note_on_c, 0, 84, 75
2, 1549020, Note_on_c, 0, 89, 75
2, 1549255, Note_off_c, 0, 89, 64
2, 1549255, Note_off_c, 0, 84, 64
2, 1549260, Note_on_c, 0, 84, 75
2, 1549260, Note_on_c, 0, 89, 75
2, 1549660, Note_off_c, 0, 89, 64
2, 1549660, Note_off_c, 0, 84, 64
2, 1549740, Note_on_c, 0, 84, 75
2, 1549740, Note_on_c, 0, 89, 75
2, 1549975, Note_off_c, 0, 89, 64
2, 1549975, Note_off_c, 0, 84, 64
2, 1549980, Note_on_c, 0, 84, 75
2, 1549980, Note_on_c, 0, 89, 75
2, 1550380, Note_off_c, 0, 89, 64
2, 1550380, Note_off_c, 0, 84, 64
2, 1550460, Note_on_c, 0, 84, 75
2, 1550460, Note_on_c, 0, 89, 75
2, 1550695, Note_off_c, 0, 89, 64
2, 1550695, Note_off_c, 0, 84, 64
2, 1550700, Note_on_c, 0, 82, 75
2, 1550700, Note_on_c, 0, 86, 75
2, 1551100, Note_off_c, 0, 86, 64
2, 1551100, Note_off_c, 0, 82, 64
2, 1553340, Note_on_c, 0, 77, 75
2, 1553340, Note_on_c, 0, 82, 75
2, 1553575, Note_off_c, 0, 82, 64
2, 1553575, Note_off_c, 0, 77, 64
2, 1553580, Note_on_c, 0, 77, 75
2, 1553580, Note_on_c, 0, 82, 75
2, 1554060, Note_off_c, 0, 82, 64
2, 1554060, Note_off_c, 0, 77, 64
2, 1554060, Note_on_c, 0, 81, 75
2, 1554295, Note_off_c, 0, 81, 64
2, 1556220, Note_on_c, 0, 83, 75
2, 1556220, Note_on_c, 0, 86, 75
2, 1556455, Note_off_c, 0, 86, 64
2, 1556455, Note_off_c, 0, 83, 64
2, 1556460, Note_on_c, 0, 83, 75
2, 1556460, Note_on_c, 0, 86, 75
2, 1556940, Note_off_c, 0, 86, 64
2, 1556940, Note_off_c, 0, 83, 64
2, 1556940, Note_on_c, 0, 84, 75
2, 1556940, Note_on_c, 0, 87, 75
2, 1557175, Note_off_c, 0, 87, 64
2, 1557175, Note_off_c, 0, 84, 64
2, 1559100, Note_on_c, 0, 81, 75
2, 1559100, Note_on_c, 0, 89, 75
2, 1559340, Note_off_c, 0, 89, 64
2, 1559340, Note_off_c, 0, 81, 64
2, 1559340, Note_on_c, 0, 82, 75
2, 1559340, Note_on_c, 0, 86, 75
2, 1559740, Note_off_c, 0, 86, 64
2, 1559740, Note_off_c, 0, 82, 64
2, 1560540, Note_on_c, 0, 86, 75
2, 1560540, Note_on_c, 0, 89, 75
2, 1560780, Note_off_c, 0, 89, 64
2, 1560780, Note_off_c, 0, 86, 64
2, 1560780, Note_on_c, 0, 87, 75
2, 1560780, Note_on_c, 0, 91, 75
2, 1561180, Note_off_c, 0, 91, 64
2, 1561180, Note_off_c, 0, 87, 64
2, 1561980, Note_on_c, 0, 87, 75
2, 1561980, Note_on_c, 0, 91, 75
2, 1562220, Note_off_c, 0, 91, 64
2, 1562220, Note_off_c, 0, 87, 64
2, 1562220, Note_on_c, 0, 86, 75
2, 1562220, Note_on_c, 0, 89, 75
2, 1562620, Note_off_c, 0, 89, 64
2, 1562620, Note_off_c, 0, 86, 64
2, 1563420, Note_on_c, 0, 86, 75
2, 1563420, Note_on_c, 0, 89, 75
2, 1563660, Note_off_c, 0, 89, 64
2, 1563660, Note_off_c, 0, 86, 64
2, 1563660, Note_on_c, 0, 84, 75
2, 1563660, Note_on_c, 0, 87, 75
2, 1564060, Note_off_c, 0, 87, 64
2, 1564060, Note_off_c, 0, 84, 64
2, 1564860, Note_on_c, 0, 84, 75
2, 1564860, Note_on_c, 0, 87, 75
2, 1565100, Note_off_c, 0, 87, 64
2, 1565100, Note_off_c, 0, 84, 64
2, 1565100, Note_on_c, 0, 82, 75
2, 1565100, Note_on_c, 0, 86, 75
2, 1565500, Note_off_c, 0, 86, 64
2, 1565500, Note_off_c, 0, 82, 64
2, 1565580, Note_on_c, 0, 82, 75
2, 1565580, Note_on_c, 0, 86, 75
2, 1565820, Note_off_c, 0, 86, 64
2, 1565820, Note_off_c, 0, 82, 64
2, 1565820, Note_on_c, 0, 84, 75
2, 1565820, Note_on_c, 0, 87, 75
2, 1566300, Note_off_c, 0, 87, 64
2, 1566300, Note_off_c, 0, 84, 64
2, 1566300, Note_on_c, 0, 86, 75
2, 1566300, Note_on_c, 0, 89, 75
2, 1566535, Note_off_c, 0, 89, 64
2, 1566535, Note_off_c, 0, 86, 64
2, 1566540, Note_on_c, 0, 87, 75
2, 1566540, Note_on_c, 0, 91, 75
2, 1567980, Note_off_c, 0, 91, 64
2, 1567980, Note_off_c, 0, 87, 64
2, 1567980, Note_on_c, 0, 86, 75
2, 1567980, Note_on_c, 0, 89, 75
2, 1569420, Note_off_c, 0, 89, 64
2, 1569420, Note_off_c, 0, 86, 64
2, 1569420, Note_on_c, 0, 76, 60
2, 1569420, Note_on_c, 0, 88, 60
2, 1570860, Note_off_c, 0, 88, 64
2, 1570860, Note_off_c, 0, 76, 64
2, 1570860, Note_on_c, 0, 77, 60
2, 1570860, Note_on_c, 0, 89, 60
2, 1571260, Note_off_c, 0, 89, 64
2, 1571260, Note_off_c, 0, 77, 64
2, 1571580, Note_on_c, 0, 72, 60
2, 1571580, Note_on_c, 0, 84, 60
2, 1571980, Note_off_c, 0, 84, 64
2, 1571980, Note_off_c, 0, 72, 64
2, 1580700, Note_on_c, 0, 86, 75
2, 1580700, Note_on_c, 0, 89, 75
2, 1580935, Note_off_c, 0, 89, 64
2, 1580935, Note_off_c, 0, 86, 64
2, 1580940, Note_on_c, 0, 83, 75
2, 1581660, Note_off_c, 0, 83, 64
2, 1581660, Note_on_c, 0, 79, 75
2, 1581895, Note_off_c, 0, 79, 64
2, 1582140, Note_on_c, 0, 86, 75
2, 1582375, Note_off_c, 0, 86, 64
2, 1582380, Note_on_c, 0, 84, 75
2, 1583100, Note_off_c, 0, 84, 64
2, 1583100, Note_on_c, 0, 79, 75
2, 1583335, Note_off_c, 0, 79, 64
2, 1583580, Note_on_c, 0, 88, 75
2, 1583815, Note_off_c, 0, 88, 64
2, 1586460, Note_on_c, 0, 86, 60
2, 1586460, Note_on_c, 0, 89, 60
2, 1586695, Note_off_c, 0, 89, 64
2, 1586695, Note_off_c, 0, 86, 64
2, 1586700, Note_on_c, 0, 83, 60
2, 1587420, Note_off_c, 0, 83, 64
2, 1587420, Note_on_c, 0, 79, 63
2, 1587655, Note_off_c, 0, 79, 64
2, 1587900, Note_on_c, 0, 86, 65
2, 1588135, Note_off_c, 0, 86, 64
2, 1588140, Note_on_c, 0, 84, 66
2, 1588860, Note_off_c, 0, 84, 64
2, 1588860, Note_on_c, 0, 79, 70
2, 1589095, Note_off_c, 0, 79, 64
2, 1589340, Note_on_c, 0, 88, 73
2, 1589575, Note_off_c, 0, 88, 64
2, 1589580, Note_on_c, 0, 84, 75
2, 1590300, Note_off_c, 0, 84, 64
2, 1590300, Note_on_c, 0, 79, 75
2, 1590535, Note_off_c, 0, 79, 64
2, 1590780, Note_on_c, 0, 88, 75
2, 1591015, Note_off_c, 0, 88, 64
2, 1591020, Note_on_c, 0, 84, 75
2, 1591740, Note_off_c, 0, 84, 64
2, 1591740, Note_on_c, 0, 79, 75
2, 1591975, Note_off_c, 0, 79, 64
2, 1592220, Note_on_c, 0, 88, 75
2, 1592455, Note_off_c, 0, 88, 64
2, 1592460, Note_on_c, 0, 84, 60
2, 1593180, Note_off_c, 0, 84, 64
2, 1593180, Note_on_c, 0, 79, 60
2, 1593660, Note_off_c, 0, 79, 64
2, 1593660, Note_on_c, 0, 88, 57
2, 1593900, Note_off_c, 0, 88, 64
2, 1593900, Note_on_c, 0, 84, 56
2, 1594620, Note_off_c, 0, 84, 64
2, 1594620, Note_on_c, 0, 79, 51
2, 1595100, Note_off_c, 0, 79, 64
2, 1595100, Note_on_c, 0, 88, 47
2, 1595335, Note_off_c, 0, 88, 64
2, 1595340, Note_on_c, 0, 84, 45
2, 1595580, Note_off_c, 0, 84, 64
2, 1595580, Note_on_c, 0, 79, 45
2, 1595820, Note_off_c, 0, 79, 64
2, 1595820, Note_on_c, 0, 88, 45
2, 1596060, Note_off_c, 0, 88, 64
2, 1596060, Note_on_c, 0, 84, 45
2, 1596300, Note_off_c, 0, 84, 64
2, 1596300, Note_on_c, 0, 79, 45
2, 1596540, Note_off_c, 0, 79, 64
2, 1596540, Note_on_c, 0, 88, 45
2, 1596780, Note_off_c, 0, 88, 64
2, 1596780, Note_on_c, 0, 84, 45
2, 1597020, Note_off_c, 0, 84, 64
2, 1597020, Note_on_c, 0, 79, 45
2, 1597260, Note_off_c, 0, 79, 64
2, 1597260, Note_on_c, 0, 88, 45
2, 1597500, Note_off_c, 0, 88, 64
2, 1597500, Note_on_c, 0, 84, 45
2, 1597740, Note_off_c, 0, 84, 64
2, 1597740, Note_on_c, 0, 79, 45
2, 1597980, Note_off_c, 0, 79, 64
2, 1597980, Note_on_c, 0, 88, 45
2, 1598220, Note_off_c, 0, 88, 64
2, 1598220, Note_on_c, 0, 88, 30
2, 1600060, Note_off_c, 0, 88, 64
2, 1600380, Note_on_c, 0, 84, 30
2, 1600380, Note_on_c, 0, 88, 30
2, 1603980, Note_off_c, 0, 88, 64
2, 1603980, Note_off_c, 0, 84, 64
2, 1603980, Note_on_c, 0, 84, 45
2, 1603980, Note_on_c, 0, 89, 45
2, 1604380, Note_off_c, 0, 89, 64
2, 1604380, Note_off_c, 0, 84, 64
2, 1626540, Note_on_c, 0, 84, 45
2, 1626540, Note_on_c, 0, 89, 45
2, 1626775, Note_off_c, 0, 89, 64
2, 1626775, Note_off_c, 0, 84, 64
2, 1626780, Note_on_c, 0, 84, 45
2, 1626780, Note_on_c, 0, 89, 45
2, 1627015, Note_off_c, 0, 89, 64
2, 1627015, Note_off_c, 0, 84, 64
2, 1627020, Note_on_c, 0, 84, 75
2, 1627020, Note_on_c, 0, 89, 75
2, 1628140, Note_off_c, 0, 89, 64
2, 1628140, Note_off_c, 0, 84, 64
2, 1628220, Note_on_c, 0, 84, 75
2, 1628220, Note_on_c, 0, 89, 75
2, 1628455, Note_off_c, 0, 89, 64
2, 1628455, Note_off_c, 0, 84, 64
2, 1628460, Note_on_c, 0, 84, 75
2, 1628460, Note_on_c, 0, 89, 75
2, 1629580, Note_off_c, 0, 89, 64
2, 1629580, Note_off_c, 0, 84, 64
2, 1629660, Note_on_c, 0, 84, 75
2, 1629660, Note_on_c, 0, 89, 75
2, 1629895, Note_off_c, 0, 89, 64
2, 1629895, Note_off_c, 0, 84, 64
2, 1629900, Note_on_c, 0, 84, 75
2, 1629900, Note_on_c, 0, 89, 75
2, 1631020, Note_off_c, 0, 89, 64
2, 1631020, Note_off_c, 0, 84, 64
2, 1631100, Note_on_c, 0, 84, 75
2, 1631100, Note_on_c, 0, 89, 75
2, 1631335, Note_off_c, 0, 89, 64
2, 1631335, Note_off_c, 0, 84, 64
2, 1631340, Note_on_c, 0, 86, 75
2, 1631340, Note_on_c, 0, 89, 75
2, 1632460, Note_off_c, 0, 89, 64
2, 1632460, Note_off_c, 0, 86, 64
2, 1632540, Note_on_c, 0, 84, 75
2, 1632540, Note_on_c, 0, 91, 75
2, 1632775, Note_off_c, 0, 91, 64
2, 1632775, Note_off_c, 0, 84, 64
2, 1632780, Note_on_c, 0, 84, 75
2, 1632780, Note_on_c, 0, 91, 75
2, 1633900, Note_off_c, 0, 91, 64
2, 1633900, Note_off_c, 0, 84, 64
2, 1633980, Note_on_c, 0, 84, 75
2, 1633980, Note_on_c, 0, 91, 75
2, 1634215, Note_off_c, 0, 91, 64
2, 1634215, Note_off_c, 0, 84, 64
2, 1634220, Note_on_c, 0, 84, 75
2, 1634220, Note_on_c, 0, 91, 75
2, 1634455, Note_off_c, 0, 91, 64
2, 1634460, Note_on_c, 0, 89, 75
2, 1634860, Note_off_c, 0, 84, 64
2, 1634940, Note_on_c, 0, 86, 75
2, 1635340, Note_off_c, 0, 89, 64
2, 1635340, Note_off_c, 0, 86, 64
2, 1635420, Note_on_c, 0, 84, 75
2, 1635420, Note_on_c, 0, 89, 75
2, 1635655, Note_off_c, 0, 89, 64
2, 1635655, Note_off_c, 0, 84, 64
2, 1635660, Note_on_c, 0, 77, 75
2, 1635660, Note_on_c, 0, 89, 75
2, 1635895, Note_off_c, 0, 77, 64
2, 1635900, Note_on_c, 0, 86, 75
2, 1636300, Note_off_c, 0, 89, 64
2, 1636300, Note_off_c, 0, 86, 64
2, 1636380, Note_on_c, 0, 84, 75
2, 1636380, Note_on_c, 0, 88, 75
2, 1637020, Note_off_c, 0, 88, 64
2, 1637020, Note_off_c, 0, 84, 64
2, 1637100, Note_on_c, 0, 84, 75
2, 1637100, Note_on_c, 0, 89, 75
2, 1637335, Note_off_c, 0, 89, 64
2, 1637335, Note_off_c, 0, 84, 64
2, 1639740, Note_on_c, 0, 72, 75
2, 1639740, Note_on_c, 0, 84, 75
2, 1639975, Note_off_c, 0, 84, 64
2, 1639975, Note_off_c, 0, 72, 64
2, 1639980, Note_on_c, 0, 72, 75
2, 1639980, Note_on_c, 0, 84, 75
2, 1642060, Note_off_c, 0, 84, 64
2, 1642060, Note_off_c, 0, 72, 64
2, 1642140, Note_on_c, 0, 72, 75
2, 1642140, Note_on_c, 0, 84, 75
2, 1642540, Note_off_c, 0, 84, 64
2, 1642540, Note_off_c, 0, 72, 64
2, 1642620, Note_on_c, 0, 72, 75
2, 1642620, Note_on_c, 0, 84, 75
2, 1642855, Note_off_c, 0, 84, 64
2, 1642855, Note_off_c, 0, 72, 64
2, 1646940, Note_on_c, 0, 79, 60
2, 1647175, Note_off_c, 0, 79, 64
2, 1647180, Note_on_c, 0, 79, 60
2, 1647820, Note_off_c, 0, 79, 64
2, 1647900, Note_on_c, 0, 79, 60
2, 1647900, Note_on_c, 0, 83, 60
2, 1648300, Note_off_c, 0, 83, 64
2, 1648300, Note_off_c, 0, 79, 64
2, 1648380, Note_on_c, 0, 79, 60
2, 1648380, Note_on_c, 0, 83, 60
2, 1648615, Note_off_c, 0, 83, 64
2, 1648615, Note_off_c, 0, 79, 64
2, 1648620, Note_on_c, 0, 79, 60
2, 1648620, Note_on_c, 0, 84, 60
2, 1649260, Note_off_c, 0, 84, 64
2, 1649260, Note_off_c, 0, 79, 64
2, 1649340, Note_on_c, 0, 81, 60
2, 1649340, Note_on_c, 0, 84, 60
2, 1649980, Note_off_c, 0, 84, 64
2, 1649980, Note_off_c, 0, 81, 64
2, 1650060, Note_on_c, 0, 82, 60
2, 1650060, Note_on_c, 0, 84, 60
2, 1650460, Note_off_c, 0, 84, 64
2, 1650460, Note_off_c, 0, 82, 64
2, 1651260, Note_on_c, 0, 86, 60
2, 1651495, Note_off_c, 0, 86, 64
2, 1651500, Note_on_c, 0, 84, 60
2, 1652455, Note_off_c, 0, 84, 64
2, 1653420, Note_on_c, 0, 84, 60
2, 1653420, Note_on_c, 0, 89, 60
2, 1653655, Note_off_c, 0, 89, 64
2, 1653655, Note_off_c, 0, 84, 64
2, 1653660, Note_on_c, 0, 84, 60
2, 1653660, Note_on_c, 0, 89, 60
2, 1654060, Note_off_c, 0, 89, 64
2, 1654060, Note_off_c, 0, 84, 64
2, 1654140, Note_on_c, 0, 84, 60
2, 1654140, Note_on_c, 0, 89, 60
2, 1654375, Note_off_c, 0, 89, 64
2, 1654375, Note_off_c, 0, 84, 64
2, 1654380, Note_on_c, 0, 84, 60
2, 1654380, Note_on_c, 0, 88, 60
2, 1654780, Note_off_c, 0, 88, 64
2, 1654780, Note_off_c, 0, 84, 64
2, 1656300, Note_on_c, 0, 84, 60
2, 1656300, Note_on_c, 0, 91, 60
2, 1656535, Note_off_c, 0, 91, 64
2, 1656535, Note_off_c, 0, 84, 64
2, 1656540, Note_on_c, 0, 84, 60
2, 1656540, Note_on_c, 0, 91, 60
2, 1656940, Note_off_c, 0, 91, 64
2, 1656940, Note_off_c, 0, 84, 64
2, 1657020, Note_on_c, 0, 84, 60
2, 1657020, Note_on_c, 0, 91, 60
2, 1657255, Note_off_c, 0, 91, 64
2, 1657255, Note_off_c, 0, 84, 64
2, 1657260, Note_on_c, 0, 84, 60
2, 1657260, Note_on_c, 0, 89, 60
2, 1657660, Note_off_c, 0, 89, 64
2, 1657660, Note_off_c, 0, 84, 64
2, 1659180, Note_on_c, 0, 84, 60
2, 1659180, Note_on_c, 0, 89, 60
2, 1659415, Note_off_c, 0, 89, 64
2, 1659415, Note_off_c, 0, 84, 64
2, 1659420, Note_on_c, 0, 84, 60
2, 1659420, Note_on_c, 0, 89, 60
2, 1659820, Note_off_c, 0, 89, 64
2, 1659820, Note_off_c, 0, 84, 64
2, 1659900, Note_on_c, 0, 84, 60
2, 1659900, Note_on_c, 0, 89, 60
2, 1660135, Note_off_c, 0, 89, 64
2, 1660135, Note_off_c, 0, 84, 64
2, 1660140, Note_on_c, 0, 84, 60
2, 1660140, Note_on_c, 0, 88, 60
2, 1660540, Note_off_c, 0, 88, 64
2, 1660540, Note_off_c, 0, 84, 64
2, 1662060, Note_on_c, 0, 84, 60
2, 1662060, Note_on_c, 0, 91, 60
2, 1662295, Note_off_c, 0, 91, 64
2, 1662295, Note_off_c, 0, 84, 64
2, 1662300, Note_on_c, 0, 84, 60
2, 1662300, Note_on_c, 0, 91, 60
2, 1662700, Note_off_c, 0, 91, 64
2, 1662700, Note_off_c, 0, 84, 64
2, 1662780, Note_on_c, 0, 84, 60
2, 1662780, Note_on_c, 0, 91, 60
2, 1663015, Note_off_c, 0, 91, 64
2, 1663015, Note_off_c, 0, 84, 64
2, 1663020, Note_on_c, 0, 84, 60
2, 1663020, Note_on_c, 0, 89, 60
2, 1663420, Note_off_c, 0, 89, 64
2, 1663420, Note_off_c, 0, 84, 64
2, 1664940, Note_on_c, 0, 84, 60
2, 1664940, Note_on_c, 0, 89, 60
2, 1665180, Note_off_c, 0, 89, 64
2, 1665180, Note_off_c, 0, 84, 64
2, 1665180, Note_on_c, 0, 84, 60
2, 1665180, Note_on_c, 0, 91, 60
2, 1665580, Note_off_c, 0, 91, 64
2, 1665580, Note_off_c, 0, 84, 64
2, 1665660, Note_on_c, 0, 84, 60
2, 1665660, Note_on_c, 0, 91, 60
2, 1665900, Note_off_c, 0, 91, 64
2, 1665900, Note_off_c, 0, 84, 64
2, 1665900, Note_on_c, 0, 84, 60
2, 1665900, Note_on_c, 0, 89, 60
2, 1666300, Note_off_c, 0, 89, 64
2, 1666300, Note_off_c, 0, 84, 64
2, 1667100, Note_on_c, 0, 86, 45
2, 1667340, Note_off_c, 0, 86, 64
2, 1667340, Note_on_c, 0, 84, 45
2, 1667580, Note_off_c, 0, 84, 64
2, 1667580, Note_on_c, 0, 82, 55
2, 1667580, Note_on_c, 0, 88, 55
2, 1667820, Note_off_c, 0, 88, 64
2, 1667820, Note_off_c, 0, 82, 64
2, 1667820, Note_on_c, 0, 81, 65
2, 1667820, Note_on_c, 0, 89, 65
2, 1668055, Note_off_c, 0, 89, 64
2, 1668055, Note_off_c, 0, 81, 64
2, 1668060, Note_on_c, 0, 88, 75
2, 1668060, Note_on_c, 0, 91, 75
2, 1668460, Note_off_c, 0, 91, 64
2, 1668460, Note_off_c, 0, 88, 64
2, 1668540, Note_on_c, 0, 88, 75
2, 1668540, Note_on_c, 0, 91, 75
2, 1668620, Note_off_c, 0, 91, 64
2, 1668620, Note_off_c, 0, 88, 64
2, 1668780, Note_on_c, 0, 89, 75
2, 1668780, Note_on_c, 0, 93, 75
2, 1669420, Note_off_c, 0, 93, 64
2, 1669420, Note_off_c, 0, 89, 64
2, 1669500, Note_on_c, 0, 89, 75
2, 1669500, Note_on_c, 0, 93, 75
2, 1669735, Note_off_c, 0, 93, 64
2, 1669735, Note_off_c, 0, 89, 64
2, 1669980, Note_on_c, 0, 89, 75
2, 1669980, Note_on_c, 0, 93, 75
2, 1670060, Note_off_c, 0, 93, 64
2, 1670060, Note_off_c, 0, 89, 64
2, 1670220, Note_on_c, 0, 86, 75
2, 1670220, Note_on_c, 0, 91, 75
2, 1670940, Note_off_c, 0, 91, 64
2, 1670940, Note_off_c, 0, 86, 64
2, 1670940, Note_on_c, 0, 82, 75
2, 1670940, Note_on_c, 0, 91, 75
2, 1671175, Note_off_c, 0, 91, 64
2, 1671175, Note_off_c, 0, 82, 64
2, 1671420, Note_on_c, 0, 86, 75
2, 1671420, Note_on_c, 0, 91, 75
2, 1671500, Note_off_c, 0, 91, 64
2, 1671500, Note_off_c, 0, 86, 64
2, 1671660, Note_on_c, 0, 81, 60
2, 1671660, Note_on_c, 0, 93, 60
2, 1671895, Note_off_c, 0, 93, 64
2, 1671895, Note_off_c, 0, 81, 64
2, 1685340, Note_on_c, 0, 82, 45
2, 1685740, Note_off_c, 0, 82, 64
2, 1686060, Note_on_c, 0, 82, 45
2, 1686460, Note_off_c, 0, 82, 64
2, 1686780, Note_on_c, 0, 82, 63
2, 1687015, Note_off_c, 0, 82, 64
2, 1687260, Note_on_c, 0, 72, 75
2, 1687260, Note_on_c, 0, 84, 75
2, 1688620, Note_off_c, 0, 84, 64
2, 1688620, Note_off_c, 0, 72, 64
2, 1688700, Note_on_c, 0, 72, 75
2, 1688700, Note_on_c, 0, 84, 75
2, 1689340, Note_off_c, 0, 84, 64
2, 1689340, Note_off_c, 0, 72, 64
2, 1689420, Note_on_c, 0, 72, 75
2, 1689420, Note_on_c, 0, 84, 75
2, 1690060, Note_off_c, 0, 84, 64
2, 1690060, Note_off_c, 0, 72, 64
2, 1690140, Note_on_c, 0, 72, 75
2, 1690140, Note_on_c, 0, 84, 75
2, 1690375, Note_off_c, 0, 84, 64
2, 1690375, Note_off_c, 0, 72, 64
2, 1690380, Note_on_c, 0, 69, 75
2, 1690380, Note_on_c, 0, 81, 75
2, 1690615, Note_off_c, 0, 81, 64
2, 1690615, Note_off_c, 0, 69, 64
2, 1699260, Note_on_c, 0, 81, 30
2, 1700700, Note_off_c, 0, 81, 64
2, 1700700, Note_on_c, 0, 82, 30
2, 1701100, Note_off_c, 0, 82, 64
2, 1702140, Note_on_c, 0, 79, 30
2, 1703580, Note_off_c, 0, 79, 64
2, 1703580, Note_on_c, 0, 81, 30
2, 1703980, Note_off_c, 0, 81, 64
2, 1705260, Note_on_c, 0, 81, 32
2, 1705495, Note_off_c, 0, 81, 64
2, 1705500, Note_on_c, 0, 81, 34
2, 1705735, Note_off_c, 0, 81, 64
2, 1705740, Note_on_c, 0, 81, 36
2, 1705975, Note_off_c, 0, 81, 64
2, 1705980, Note_on_c, 0, 81, 38
2, 1706215, Note_off_c, 0, 81, 64
2, 1706220, Note_on_c, 0, 81, 40
2, 1706455, Note_off_c, 0, 81, 64
2, 1706460, Note_on_c, 0, 82, 42
2, 1706860, Note_off_c, 0, 82, 64
2, 1708140, Note_on_c, 0, 91, 60
2, 1708375, Note_off_c, 0, 91, 64
2, 1708380, Note_on_c, 0, 91, 63
2, 1708615, Note_off_c, 0, 91, 64
2, 1708620, Note_on_c, 0, 91, 66
2, 1708855, Note_off_c, 0, 91, 64
2, 1708860, Note_on_c, 0, 91, 69
2, 1709095, Note_off_c, 0, 91, 64
2, 1709100, Note_on_c, 0, 88, 72
2, 1709100, Note_on_c, 0, 91, 72
2, 1709335, Note_off_c, 0, 91, 64
2, 1709335, Note_off_c, 0, 88, 64
2, 1709340, Note_on_c, 0, 84, 75
2, 1709340, Note_on_c, 0, 89, 75
2, 1711900, Note_off_c, 0, 89, 64
2, 1711900, Note_off_c, 0, 84, 64
2, 1711980, Note_on_c, 0, 84, 75
2, 1711980, Note_on_c, 0, 89, 75
2, 1712215, Note_off_c, 0, 89, 64
2, 1712215, Note_off_c, 0, 84, 64
2, 1712220, Note_on_c, 0, 86, 75
2, 1712220, Note_on_c, 0, 89, 75
2, 1714780, Note_off_c, 0, 89, 64
2, 1714780, Note_off_c, 0, 86, 64
2, 1714860, Note_on_c, 0, 86, 75
2, 1714860, Note_on_c, 0, 89, 75
2, 1715095, Note_off_c, 0, 89, 64
2, 1715095, Note_off_c, 0, 86, 64
2, 1715100, Note_on_c, 0, 86, 75
2, 1715100, Note_on_c, 0, 89, 75
2, 1717660, Note_off_c, 0, 89, 64
2, 1717660, Note_off_c, 0, 86, 64
2, 1717740, Note_on_c, 0, 86, 60
2, 1717740, Note_on_c, 0, 89, 60
2, 1717975, Note_off_c, 0, 89, 64
2, 1717975, Note_off_c, 0, 86, 64
2, 1726380, Note_on_c, 0, 82, 60
2, 1726460, Note_off_c, 0, 82, 64
2, 1726500, Note_on_c, 0, 82, 60
2, 1726580, Note_off_c, 0, 82, 64
2, 1726620, Note_on_c, 0, 82, 60
2, 1726855, Note_off_c, 0, 82, 64
2, 1727100, Note_on_c, 0, 82, 62
2, 1727180, Note_off_c, 0, 82, 64
2, 1727220, Note_on_c, 0, 82, 62
2, 1727300, Note_off_c, 0, 82, 64
2, 1727340, Note_on_c, 0, 82, 62
2, 1727575, Note_off_c, 0, 82, 64
2, 1727820, Note_on_c, 0, 82, 64
2, 1727900, Note_off_c, 0, 82, 64
2, 1727940, Note_on_c, 0, 82, 64
2, 1728020, Note_off_c, 0, 82, 64
2, 1728060, Note_on_c, 0, 82, 65
2, 1728295, Note_off_c, 0, 82, 64
2, 1728540, Note_on_c, 0, 82, 69
2, 1728620, Note_off_c, 0, 82, 64
2, 1728660, Note_on_c, 0, 82, 70
2, 1728740, Note_off_c, 0, 82, 64
2, 1728780, Note_on_c, 0, 82, 71
2, 1729015, Note_off_c, 0, 82, 64
2, 1729260, Note_on_c, 0, 72, 75
2, 1729260, Note_on_c, 0, 84, 75
2, 1730620, Note_off_c, 0, 84, 64
2, 1730620, Note_off_c, 0, 72, 64
2, 1730700, Note_on_c, 0, 72, 75
2, 1730700, Note_on_c, 0, 84, 75
2, 1731340, Note_off_c, 0, 84, 64
2, 1731340, Note_off_c, 0, 72, 64
2, 1731420, Note_on_c, 0, 72, 75
2, 1731420, Note_on_c, 0, 84, 75
2, 1732060, Note_off_c, 0, 84, 64
2, 1732060, Note_off_c, 0, 72, 64
2, 1732140, Note_on_c, 0, 72, 75
2, 1732140, Note_on_c, 0, 84, 75
2, 1732380, Note_off_c, 0, 84, 64
2, 1732380, Note_off_c, 0, 72, 64
2, 1732380, Note_on_c, 0, 69, 75
2, 1732380, Note_on_c, 0, 81, 75
2, 1732780, Note_off_c, 0, 81, 64
2, 1732780, Note_off_c, 0, 69, 64
2, 1740780, Note_on_c, 0, 72, 45
2, 1741020, Note_off_c, 0, 72, 64
2, 1741020, Note_on_c, 0, 78, 47
2, 1741500, Note_off_c, 0, 78, 64
2, 1741500, Note_on_c, 0, 81, 51
2, 1741740, Note_off_c, 0, 81, 64
2, 1741740, Note_on_c, 0, 84, 53
2, 1742220, Note_off_c, 0, 84, 64
2, 1742220, Note_on_c, 0, 81, 57
2, 1742460, Note_off_c, 0, 81, 64
2, 1742460, Note_on_c, 0, 82, 60
2, 1743100, Note_off_c, 0, 82, 64
2, 1746540, Note_on_c, 0, 72, 60
2, 1746780, Note_off_c, 0, 72, 64
2, 1746780, Note_on_c, 0, 78, 60
2, 1747260, Note_off_c, 0, 78, 64
2, 1747260, Note_on_c, 0, 81, 61
2, 1747500, Note_off_c, 0, 81, 64
2, 1747500, Note_on_c, 0, 84, 61
2, 1747980, Note_off_c, 0, 84, 64
2, 1747980, Note_on_c, 0, 74, 62
2, 1748220, Note_off_c, 0, 74, 64
2, 1748220, Note_on_c, 0, 79, 63
2, 1748700, Note_off_c, 0, 79, 64
2, 1748700, Note_on_c, 0, 82, 65
2, 1748940, Note_off_c, 0, 82, 64
2, 1748940, Note_on_c, 0, 86, 66
2, 1749175, Note_off_c, 0, 86, 64
2, 1749420, Note_on_c, 0, 74, 68
2, 1749660, Note_off_c, 0, 74, 64
2, 1749660, Note_on_c, 0, 76, 69
2, 1750140, Note_off_c, 0, 76, 64
2, 1750140, Note_on_c, 0, 79, 71
2, 1750380, Note_off_c, 0, 79, 64
2, 1750380, Note_on_c, 0, 82, 72
2, 1750860, Note_off_c, 0, 82, 64
2, 1750860, Note_on_c, 0, 84, 74
2, 1750860, Note_on_c, 0, 88, 74
2, 1751095, Note_off_c, 0, 88, 64
2, 1751095, Note_off_c, 0, 84, 64
2, 1751100, Note_on_c, 0, 84, 75
2, 1751100, Note_on_c, 0, 89, 75
2, 1753660, Note_off_c, 0, 89, 64
2, 1753660, Note_off_c, 0, 84, 64
2, 1753740, Note_on_c, 0, 84, 75
2, 1753740, Note_on_c, 0, 89, 75
2, 1753975, Note_off_c, 0, 89, 64
2, 1753975, Note_off_c, 0, 84, 64
2, 1753980, Note_on_c, 0, 86, 75
2, 1753980, Note_on_c, 0, 89, 75
2, 1756540, Note_off_c, 0, 89, 64
2, 1756540, Note_off_c, 0, 86, 64
2, 1756620, Note_on_c, 0, 86, 75
2, 1756620, Note_on_c, 0, 89, 75
2, 1756855, Note_off_c, 0, 89, 64
2, 1756855, Note_off_c, 0, 86, 64
2, 1756860, Note_on_c, 0, 89, 75
2, 1756860, Note_on_c, 0, 89, 75
2, 1757500, Note_off_c, 0, 89, 64
2, 1757580, Note_on_c, 0, 91, 75
2, 1759420, Note_off_c, 0, 89, 64
2, 1759420, Note_off_c, 0, 91, 64
2, 1759500, Note_on_c, 0, 89, 75
2, 1759500, Note_on_c, 0, 91, 75
2, 1759735, Note_off_c, 0, 91, 64
2, 1759735, Note_off_c, 0, 89, 64
2, 1759740, Note_on_c, 0, 88, 75
2, 1759740, Note_on_c, 0, 89, 75
2, 1761180, Note_off_c, 0, 89, 64
2, 1761180, Note_on_c, 0, 91, 75
2, 1762300, Note_off_c, 0, 88, 64
2, 1762300, Note_off_c, 0, 91, 64
2, 1762380, Note_on_c, 0, 88, 75
2, 1762380, Note_on_c, 0, 91, 75
2, 1762615, Note_off_c, 0, 91, 64
2, 1762615, Note_off_c, 0, 88, 64
2, 1762620, Note_on_c, 0, 87, 75
2, 1762620, Note_on_c, 0, 91, 75
2, 1764060, Note_off_c, 0, 91, 64
2, 1764060, Note_off_c, 0, 87, 64
2, 1764060, Note_on_c, 0, 84, 75
2, 1764060, Note_on_c, 0, 89, 75
2, 1765380, Note_off_c, 0, 89, 64
2, 1765380, Note_off_c, 0, 84, 64
2, 1765500, Note_on_c, 0, 87, 75
2, 1766220, Note_off_c, 0, 87, 64
2, 1766220, Note_on_c, 0, 86, 75
2, 1766940, Note_off_c, 0, 86, 64
2, 1766940, Note_on_c, 0, 84, 75
2, 1767660, Note_off_c, 0, 84, 64
2, 1767660, Note_on_c, 0, 82, 75
2, 1768300, Note_off_c, 0, 82, 64
2, 1768380, Note_on_c, 0, 81, 60
2, 1769100, Note_off_c, 0, 81, 64
2, 1769100, Note_on_c, 0, 91, 60
2, 1769820, Note_off_c, 0, 91, 64
2, 1769820, Note_on_c, 0, 89, 55
2, 1770540, Note_off_c, 0, 89, 64
2, 1770540, Note_on_c, 0, 88, 50
2, 1771260, Note_off_c, 0, 88, 64
2, 1771260, Note_on_c, 0, 86, 45
2, 1771900, Note_off_c, 0, 86, 64
2, 1771980, Note_on_c, 0, 84, 45
2, 1776300, Note_off_c, 0, 84, 64
2, 1776300, Note_on_c, 0, 82, 45
2, 1776780, Note_off_c, 0, 82, 64
2, 1776780, Note_on_c, 0, 79, 45
2, 1777020, Note_off_c, 0, 79, 64
2, 1777020, Note_on_c, 0, 77, 30
2, 1777420, Note_off_c, 0, 77, 64
2, 1789320, Note_on_c, 0, 81, 75
2, 1789320, Note_on_c, 0, 89, 75
2, 1790040, Note_off_c, 0, 89, 64
2, 1790040, Note_off_c, 0, 81, 64
2, 1790040, Note_on_c, 0, 82, 75
2, 1790040, Note_on_c, 0, 89, 75
2, 1790275, Note_off_c, 0, 89, 64
2, 1790275, Note_off_c, 0, 82, 64
2, 1790520, Note_on_c, 0, 84, 75
2, 1790520, Note_on_c, 0, 89, 75
2, 1790755, Note_off_c, 0, 89, 64
2, 1790755, Note_off_c, 0, 84, 64
2, 1790760, Note_on_c, 0, 86, 75
2, 1790760, Note_on_c, 0, 89, 75
2, 1791880, Note_off_c, 0, 89, 64
2, 1791880, Note_off_c, 0, 86, 64
2, 1802520, Note_on_c, 0, 79, 65
2, 1802520, Note_on_c, 0, 82, 65
2, 1802755, Note_off_c, 0, 82, 64
2, 1802755, Note_off_c, 0, 79, 64
2, 1802760, Note_on_c, 0, 79, 75
2, 1802760, Note_on_c, 0, 88, 75
2, 1805640, Note_off_c, 0, 88, 64
2, 1805640, Note_off_c, 0, 79, 64
2, 1805640, Note_on_c, 0, 79, 60
2, 1805640, Note_on_c, 0, 88, 60
2, 1807080, Note_off_c, 0, 88, 64
2, 1807080, Note_off_c, 0, 79, 64
2, 1807080, Note_on_c, 0, 79, 45
2, 1807080, Note_on_c, 0, 88, 45
2, 1808400, Note_off_c, 0, 88, 64
2, 1808400, Note_off_c, 0, 79, 64
2, 1808520, Note_on_c, 0, 89, 45
2, 1809840, Note_off_c, 0, 89, 64
2, 1810020, Note_on_c, 0, 89, 45
2, 1811340, Note_off_c, 0, 89, 64
2, 1811520, Note_on_c, 0, 89, 45
2, 1816960, Note_off_c, 0, 89, 64
2, 1817040, Note_on_c, 0, 84, 75
2, 1817040, Note_on_c, 0, 93, 75
2, 1817275, Note_off_c, 0, 93, 64
2, 1817275, Note_off_c, 0, 84, 64
2, 1817280, Note_on_c, 0, 81, 75
2, 1817280, Note_on_c, 0, 89, 75
2, 1818040, Note_off_c, 0, 89, 64
2, 1818040, Note_off_c, 0, 81, 64
2, 1818040, End_track
3, 0, Start_track
3, 0, Title_t, "PASTORALE"
3, 0, MIDI_port, 0
3, 0, Channel_prefix, 1
3, 0, Control_c, 1, 7, 127
3, 0, Control_c, 1, 10, 80
3, 0, Control_c, 1, 91, 95
3, 0, Program_c, 1, 68
3, 26520, Note_on_c, 1, 74, 45
3, 26640, Note_off_c, 1, 74, 64
3, 26640, Note_on_c, 1, 76, 45
3, 26755, Note_off_c, 1, 76, 64
3, 26760, Note_on_c, 1, 77, 45
3, 26840, Note_off_c, 1, 77, 64
3, 27000, Note_on_c, 1, 79, 45
3, 27080, Note_off_c, 1, 79, 64
3, 27240, Note_on_c, 1, 81, 45
3, 27320, Note_off_c, 1, 81, 64
3, 27480, Note_on_c, 1, 81, 45
3, 27560, Note_off_c, 1, 81, 64
3, 27720, Note_on_c, 1, 82, 45
3, 27800, Note_off_c, 1, 82, 64
3, 27960, Note_on_c, 1, 86, 45
3, 28040, Note_off_c, 1, 86, 64
3, 28200, Note_on_c, 1, 84, 45
3, 28435, Note_off_c, 1, 84, 64
3, 28440, Note_on_c, 1, 82, 45
3, 28560, Note_off_c, 1, 82, 64
3, 28560, Note_on_c, 1, 81, 45
3, 28675, Note_off_c, 1, 81, 64
3, 28680, Note_on_c, 1, 79, 45
3, 28760, Note_off_c, 1, 79, 64
3, 28920, Note_on_c, 1, 72, 45
3, 29000, Note_off_c, 1, 72, 64
3, 29160, Note_on_c, 1, 77, 45
3, 29240, Note_off_c, 1, 77, 64
3, 29400, Note_on_c, 1, 76, 45
3, 29400, Note_on_c, 1, 79, 45
3, 29480, Note_off_c, 1, 79, 64
3, 29480, Note_off_c, 1, 76, 64
3, 29640, Note_on_c, 1, 77, 45
3, 29640, Note_on_c, 1, 81, 45
3, 29880, Note_off_c, 1, 81, 64
3, 29880, Note_off_c, 1, 77, 64
3, 29880, Note_on_c, 1, 79, 45
3, 29880, Note_on_c, 1, 82, 45
3, 30000, Note_off_c, 1, 82, 64
3, 30000, Note_off_c, 1, 79, 64
3, 30000, Note_on_c, 1, 77, 45
3, 30000, Note_on_c, 1, 81, 45
3, 30115, Note_off_c, 1, 81, 64
3, 30115, Note_off_c, 1, 77, 64
3, 30120, Note_on_c, 1, 76, 45
3, 30120, Note_on_c, 1, 79, 45
3, 30200, Note_off_c, 1, 79, 64
3, 30200, Note_off_c, 1, 76, 64
3, 30360, Note_on_c, 1, 77, 45
3, 30360, Note_on_c, 1, 81, 45
3, 30440, Note_off_c, 1, 81, 64
3, 30440, Note_off_c, 1, 77, 64
3, 30600, Note_on_c, 1, 79, 45
3, 30600, Note_on_c, 1, 82, 45
3, 30840, Note_off_c, 1, 82, 64
3, 30840, Note_off_c, 1, 79, 64
3, 30840, Note_on_c, 1, 81, 45
3, 30840, Note_on_c, 1, 84, 45
3, 30960, Note_off_c, 1, 84, 64
3, 30960, Note_off_c, 1, 81, 64
3, 30960, Note_on_c, 1, 79, 45
3, 30960, Note_on_c, 1, 82, 45
3, 31075, Note_off_c, 1, 82, 64
3, 31075, Note_off_c, 1, 79, 64
3, 31080, Note_on_c, 1, 77, 45
3, 31080, Note_on_c, 1, 81, 45
3, 31320, Note_off_c, 1, 81, 64
3, 31320, Note_off_c, 1, 77, 64
3, 31320, Note_on_c, 1, 72, 45
3, 31320, Note_on_c, 1, 84, 45
3, 31400, Note_off_c, 1, 84, 64
3, 31400, Note_off_c, 1, 72, 64
3, 31560, Note_on_c, 1, 72, 45
3, 31560, Note_on_c, 1, 84, 45
3, 31640, Note_off_c, 1, 84, 64
3, 31640, Note_off_c, 1, 72, 64
3, 31800, Note_on_c, 1, 72, 45
3, 31800, Note_on_c, 1, 84, 45
3, 31880, Note_off_c, 1, 84, 64
3, 31880, Note_off_c, 1, 72, 64
3, 32040, Note_on_c, 1, 72, 45
3, 32040, Note_on_c, 1, 84, 45
3, 32120, Note_off_c, 1, 84, 64
3, 32120, Note_off_c, 1, 72, 64
3, 32280, Note_on_c, 1, 72, 47
3, 32280, Note_on_c, 1, 84, 47
3, 32360, Note_off_c, 1, 84, 64
3, 32360, Note_off_c, 1, 72, 64
3, 32520, Note_on_c, 1, 72, 49
3, 32520, Note_on_c, 1, 84, 49
3, 32600, Note_off_c, 1, 84, 64
3, 32600, Note_off_c, 1, 72, 64
3, 32760, Note_on_c, 1, 72, 51
3, 32760, Note_on_c, 1, 84, 51
3, 32840, Note_off_c, 1, 84, 64
3, 32840, Note_off_c, 1, 72, 64
3, 33000, Note_on_c, 1, 72, 53
3, 33000, Note_on_c, 1, 84, 53
3, 33080, Note_off_c, 1, 84, 64
3, 33080, Note_off_c, 1, 72, 64
3, 33240, Note_on_c, 1, 72, 55
3, 33240, Note_on_c, 1, 84, 55
3, 33320, Note_off_c, 1, 84, 64
3, 33320, Note_off_c, 1, 72, 64
3, 33480, Note_on_c, 1, 72, 57
3, 33480, Note_on_c, 1, 84, 57
3, 33560, Note_off_c, 1, 84, 64
3, 33560, Note_off_c, 1, 72, 64
3, 33720, Note_on_c, 1, 72, 60
3, 33720, Note_on_c, 1, 84, 60
3, 33800, Note_off_c, 1, 84, 64
3, 33800, Note_off_c, 1, 72, 64
3, 33960, Note_on_c, 1, 72, 63
3, 33960, Note_on_c, 1, 84, 63
3, 34040, Note_off_c, 1, 84, 64
3, 34040, Note_off_c, 1, 72, 64
3, 34200, Note_on_c, 1, 72, 66
3, 34200, Note_on_c, 1, 84, 66
3, 34280, Note_off_c, 1, 84, 64
3, 34280, Note_off_c, 1, 72, 64
3, 34440, Note_on_c, 1, 72, 69
3, 34440, Note_on_c, 1, 84, 69
3, 34520, Note_off_c, 1, 84, 64
3, 34520, Note_off_c, 1, 72, 64
3, 34680, Note_on_c, 1, 72, 72
3, 34680, Note_on_c, 1, 84, 72
3, 34760, Note_off_c, 1, 84, 64
3, 34760, Note_off_c, 1, 72, 64
3, 34920, Note_on_c, 1, 72, 75
3, 34920, Note_on_c, 1, 84, 75
3, 35000, Note_off_c, 1, 84, 64
3, 35000, Note_off_c, 1, 72, 64
3, 35160, Note_on_c, 1, 77, 75
3, 35160, Note_on_c, 1, 81, 75
3, 35240, Note_off_c, 1, 81, 64
3, 35240, Note_off_c, 1, 77, 64
3, 35400, Note_on_c, 1, 79, 75
3, 35400, Note_on_c, 1, 82, 75
3, 35480, Note_off_c, 1, 82, 64
3, 35480, Note_off_c, 1, 79, 64
3, 35640, Note_on_c, 1, 82, 75
3, 35640, Note_on_c, 1, 86, 75
3, 35720, Note_off_c, 1, 86, 64
3, 35720, Note_off_c, 1, 82, 64
3, 35880, Note_on_c, 1, 81, 75
3, 35880, Note_on_c, 1, 84, 75
3, 36120, Note_off_c, 1, 84, 64
3, 36120, Note_off_c, 1, 81, 64
3, 36120, Note_on_c, 1, 79, 75
3, 36120, Note_on_c, 1, 82, 75
3, 36240, Note_off_c, 1, 82, 64
3, 36240, Note_off_c, 1, 79, 64
3, 36240, Note_on_c, 1, 77, 75
3, 36240, Note_on_c, 1, 81, 75
3, 36355, Note_off_c, 1, 81, 64
3, 36355, Note_off_c, 1, 77, 64
3, 36360, Note_on_c, 1, 76, 75
3, 36360, Note_on_c, 1, 79, 75
3, 36440, Note_off_c, 1, 79, 64
3, 36440, Note_off_c, 1, 76, 64
3, 36600, Note_on_c, 1, 72, 75
3, 36680, Note_off_c, 1, 72, 64
3, 36840, Note_on_c, 1, 77, 75
3, 36920, Note_off_c, 1, 77, 64
3, 37080, Note_on_c, 1, 76, 75
3, 37080, Note_on_c, 1, 79, 75
3, 37160, Note_off_c, 1, 79, 64
3, 37160, Note_off_c, 1, 76, 64
3, 37320, Note_on_c, 1, 77, 75
3, 37320, Note_on_c, 1, 81, 75
3, 37560, Note_off_c, 1, 81, 64
3, 37560, Note_off_c, 1, 77, 64
3, 37560, Note_on_c, 1, 79, 75
3, 37560, Note_on_c, 1, 82, 75
3, 37680, Note_off_c, 1, 82, 64
3, 37680, Note_off_c, 1, 79, 64
3, 37680, Note_on_c, 1, 77, 75
3, 37680, Note_on_c, 1, 81, 75
3, 37795, Note_off_c, 1, 81, 64
3, 37795, Note_off_c, 1, 77, 64
3, 37800, Note_on_c, 1, 76, 75
3, 37800, Note_on_c, 1, 79, 75
3, 37880, Note_off_c, 1, 79, 64
3, 37880, Note_off_c, 1, 76, 64
3, 38040, Note_on_c, 1, 77, 75
3, 38040, Note_on_c, 1, 81, 75
3, 38120, Note_off_c, 1, 81, 64
3, 38120, Note_off_c, 1, 77, 64
3, 38280, Note_on_c, 1, 79, 75
3, 38280, Note_on_c, 1, 82, 75
3, 38520, Note_off_c, 1, 82, 64
3, 38520, Note_off_c, 1, 79, 64
3, 38520, Note_on_c, 1, 81, 75
3, 38520, Note_on_c, 1, 84, 75
3, 38640, Note_off_c, 1, 84, 64
3, 38640, Note_off_c, 1, 81, 64
3, 38640, Note_on_c, 1, 79, 75
3, 38640, Note_on_c, 1, 82, 75
3, 38755, Note_off_c, 1, 82, 64
3, 38755, Note_off_c, 1, 79, 64
3, 38760, Note_on_c, 1, 77, 75
3, 38760, Note_on_c, 1, 81, 75
3, 39000, Note_off_c, 1, 81, 64
3, 39000, Note_off_c, 1, 77, 64
3, 39000, Note_on_c, 1, 81, 75
3, 39000, Note_on_c, 1, 84, 75
3, 39080, Note_off_c, 1, 84, 64
3, 39080, Note_off_c, 1, 81, 64
3, 39240, Note_on_c, 1, 81, 75
3, 39240, Note_on_c, 1, 84, 75
3, 39320, Note_off_c, 1, 84, 64
3, 39320, Note_off_c, 1, 81, 64
3, 39480, Note_on_c, 1, 81, 75
3, 39480, Note_on_c, 1, 84, 75
3, 39560, Note_off_c, 1, 84, 64
3, 39560, Note_off_c, 1, 81, 64
3, 39720, Note_on_c, 1, 81, 75
3, 39720, Note_on_c, 1, 84, 75
3, 40200, Note_off_c, 1, 84, 64
3, 40200, Note_off_c, 1, 81, 64
3, 40200, Note_on_c, 1, 79, 75
3, 40200, Note_on_c, 1, 82, 75
3, 40320, Note_off_c, 1, 82, 64
3, 40320, Note_off_c, 1, 79, 64
3, 40320, Note_on_c, 1, 77, 75
3, 40320, Note_on_c, 1, 81, 75
3, 40440, Note_off_c, 1, 81, 64
3, 40440, Note_off_c, 1, 77, 64
3, 40440, Note_on_c, 1, 76, 75
3, 40440, Note_on_c, 1, 79, 75
3, 40560, Note_off_c, 1, 79, 64
3, 40560, Note_off_c, 1, 76, 64
3, 40560, Note_on_c, 1, 74, 75
3, 40560, Note_on_c, 1, 77, 75
3, 40675, Note_off_c, 1, 77, 64
3, 40675, Note_off_c, 1, 74, 64
3, 40680, Note_on_c, 1, 72, 75
3, 40680, Note_on_c, 1, 76, 75
3, 40760, Note_off_c, 1, 76, 64
3, 40760, Note_off_c, 1, 72, 64
3, 40920, Note_on_c, 1, 74, 75
3, 40920, Note_on_c, 1, 77, 75
3, 41000, Note_off_c, 1, 77, 64
3, 41000, Note_off_c, 1, 74, 64
3, 41160, Note_on_c, 1, 76, 75
3, 41160, Note_on_c, 1, 79, 75
3, 41400, Note_off_c, 1, 79, 64
3, 41400, Note_off_c, 1, 76, 64
3, 41400, Note_on_c, 1, 77, 75
3, 41400, Note_on_c, 1, 81, 75
3, 41520, Note_off_c, 1, 81, 64
3, 41520, Note_off_c, 1, 77, 64
3, 41520, Note_on_c, 1, 76, 75
3, 41520, Note_on_c, 1, 79, 75
3, 41635, Note_off_c, 1, 79, 64
3, 41635, Note_off_c, 1, 76, 64
3, 41640, Note_on_c, 1, 74, 75
3, 41640, Note_on_c, 1, 77, 75
3, 41720, Note_off_c, 1, 77, 64
3, 41720, Note_off_c, 1, 74, 64
3, 41880, Note_on_c, 1, 76, 75
3, 41880, Note_on_c, 1, 79, 75
3, 41960, Note_off_c, 1, 79, 64
3, 41960, Note_off_c, 1, 76, 64
3, 42120, Note_on_c, 1, 77, 75
3, 42120, Note_on_c, 1, 81, 75
3, 42360, Note_off_c, 1, 81, 64
3, 42360, Note_off_c, 1, 77, 64
3, 42360, Note_on_c, 1, 79, 75
3, 42360, Note_on_c, 1, 82, 75
3, 42480, Note_off_c, 1, 82, 64
3, 42480, Note_off_c, 1, 79, 64
3, 42480, Note_on_c, 1, 77, 75
3, 42480, Note_on_c, 1, 81, 75
3, 42595, Note_off_c, 1, 81, 64
3, 42595, Note_off_c, 1, 77, 64
3, 42600, Note_on_c, 1, 76, 75
3, 42600, Note_on_c, 1, 79, 75
3, 42840, Note_off_c, 1, 79, 64
3, 42840, Note_off_c, 1, 76, 64
3, 42840, Note_on_c, 1, 79, 75
3, 42840, Note_on_c, 1, 82, 75
3, 42920, Note_off_c, 1, 82, 64
3, 42920, Note_off_c, 1, 79, 64
3, 43080, Note_on_c, 1, 79, 75
3, 43080, Note_on_c, 1, 82, 75
3, 43160, Note_off_c, 1, 82, 64
3, 43160, Note_off_c, 1, 79, 64
3, 43320, Note_on_c, 1, 79, 75
3, 43320, Note_on_c, 1, 82, 75
3, 43400, Note_off_c, 1, 82, 64
3, 43400, Note_off_c, 1, 79, 64
3, 43560, Note_on_c, 1, 79, 75
3, 43560, Note_on_c, 1, 82, 75
3, 44040, Note_off_c, 1, 82, 64
3, 44040, Note_off_c, 1, 79, 64
3, 44040, Note_on_c, 1, 81, 75
3, 44040, Note_on_c, 1, 84, 75
3, 44160, Note_off_c, 1, 84, 64
3, 44160, Note_off_c, 1, 81, 64
3, 44160, Note_on_c, 1, 79, 75
3, 44160, Note_on_c, 1, 82, 75
3, 44280, Note_off_c, 1, 82, 64
3, 44280, Note_off_c, 1, 79, 64
3, 44280, Note_on_c, 1, 77, 75
3, 44280, Note_on_c, 1, 81, 75
3, 44400, Note_off_c, 1, 81, 64
3, 44400, Note_off_c, 1, 77, 64
3, 44400, Note_on_c, 1, 76, 75
3, 44400, Note_on_c, 1, 79, 75
3, 44515, Note_off_c, 1, 79, 64
3, 44515, Note_off_c, 1, 76, 64
3, 44520, Note_on_c, 1, 77, 75
3, 44520, Note_on_c, 1, 81, 75
3, 44600, Note_off_c, 1, 81, 64
3, 44600, Note_off_c, 1, 77, 64
3, 44760, Note_on_c, 1, 79, 75
3, 44760, Note_on_c, 1, 82, 75
3, 44840, Note_off_c, 1, 82, 64
3, 44840, Note_off_c, 1, 79, 64
3, 45000, Note_on_c, 1, 81, 75
3, 45000, Note_on_c, 1, 84, 75
3, 45400, Note_off_c, 1, 84, 64
3, 45400, Note_off_c, 1, 81, 64
3, 45480, Note_on_c, 1, 79, 75
3, 45480, Note_on_c, 1, 82, 75
3, 45720, Note_off_c, 1, 82, 64
3, 45720, Note_off_c, 1, 79, 64
3, 45720, Note_on_c, 1, 76, 75
3, 45720, Note_on_c, 1, 79, 75
3, 45960, Note_off_c, 1, 79, 64
3, 45960, Note_off_c, 1, 76, 64
3, 45960, Note_on_c, 1, 79, 75
3, 45960, Note_on_c, 1, 82, 75
3, 46200, Note_off_c, 1, 82, 64
3, 46200, Note_off_c, 1, 79, 64
3, 46200, Note_on_c, 1, 76, 75
3, 46200, Note_on_c, 1, 79, 75
3, 46435, Note_off_c, 1, 79, 64
3, 46435, Note_off_c, 1, 76, 64
3, 46440, Note_on_c, 1, 74, 75
3, 46440, Note_on_c, 1, 77, 75
3, 46520, Note_off_c, 1, 77, 64
3, 46520, Note_off_c, 1, 74, 64
3, 46680, Note_on_c, 1, 76, 75
3, 46680, Note_on_c, 1, 79, 75
3, 46760, Note_off_c, 1, 79, 64
3, 46760, Note_off_c, 1, 76, 64
3, 46920, Note_on_c, 1, 77, 75
3, 46920, Note_on_c, 1, 81, 75
3, 47320, Note_off_c, 1, 81, 64
3, 47320, Note_off_c, 1, 77, 64
3, 47400, Note_on_c, 1, 79, 75
3, 47400, Note_on_c, 1, 82, 75
3, 47640, Note_off_c, 1, 82, 64
3, 47640, Note_off_c, 1, 79, 64
3, 47640, Note_on_c, 1, 76, 75
3, 47640, Note_on_c, 1, 79, 75
3, 47880, Note_off_c, 1, 79, 64
3, 47880, Note_off_c, 1, 76, 64
3, 47880, Note_on_c, 1, 79, 75
3, 47880, Note_on_c, 1, 82, 75
3, 48120, Note_off_c, 1, 82, 64
3, 48120, Note_off_c, 1, 79, 64
3, 48120, Note_on_c, 1, 76, 75
3, 48120, Note_on_c, 1, 79, 75
3, 48355, Note_off_c, 1, 79, 64
3, 48355, Note_off_c, 1, 76, 64
3, 48360, Note_on_c, 1, 77, 75
3, 48360, Note_on_c, 1, 81, 75
3, 48600, Note_off_c, 1, 81, 64
3, 48600, Note_off_c, 1, 77, 64
3, 48600, Note_on_c, 1, 76, 75
3, 48600, Note_on_c, 1, 79, 75
3, 48840, Note_off_c, 1, 79, 64
3, 48840, Note_off_c, 1, 76, 64
3, 48840, Note_on_c, 1, 79, 75
3, 48840, Note_on_c, 1, 82, 75
3, 49080, Note_off_c, 1, 82, 64
3, 49080, Note_off_c, 1, 79, 64
3, 49080, Note_on_c, 1, 76, 75
3, 49080, Note_on_c, 1, 79, 75
3, 49315, Note_off_c, 1, 79, 64
3, 49315, Note_off_c, 1, 76, 64
3, 49320, Note_on_c, 1, 77, 75
3, 49320, Note_on_c, 1, 81, 75
3, 49560, Note_off_c, 1, 81, 64
3, 49560, Note_off_c, 1, 77, 64
3, 49560, Note_on_c, 1, 76, 68
3, 49560, Note_on_c, 1, 79, 68
3, 49800, Note_off_c, 1, 79, 64
3, 49800, Note_off_c, 1, 76, 64
3, 49800, Note_on_c, 1, 79, 61
3, 49800, Note_on_c, 1, 82, 61
3, 50040, Note_off_c, 1, 82, 64
3, 50040, Note_off_c, 1, 79, 64
3, 50040, Note_on_c, 1, 76, 53
3, 50040, Note_on_c, 1, 79, 53
3, 50275, Note_off_c, 1, 79, 64
3, 50275, Note_off_c, 1, 76, 64
3, 50280, Note_on_c, 1, 77, 45
3, 50280, Note_on_c, 1, 81, 45
3, 50515, Note_off_c, 1, 81, 64
3, 50515, Note_off_c, 1, 77, 64
3, 83880, Note_on_c, 1, 67, 92
3, 85680, Note_off_c, 1, 67, 64
3, 85800, Note_on_c, 1, 72, 92
3, 86640, Note_off_c, 1, 72, 64
3, 86760, Note_on_c, 1, 81, 92
3, 87000, Note_off_c, 1, 81, 64
3, 87000, Note_on_c, 1, 79, 92
3, 87240, Note_off_c, 1, 79, 64
3, 87240, Note_on_c, 1, 77, 92
3, 87480, Note_off_c, 1, 77, 64
3, 87480, Note_on_c, 1, 74, 92
3, 87720, Note_off_c, 1, 74, 64
3, 87720, Note_on_c, 1, 67, 92
3, 87960, Note_off_c, 1, 67, 64
3, 87960, Note_on_c, 1, 77, 84
3, 88200, Note_off_c, 1, 77, 64
3, 88200, Note_on_c, 1, 74, 76
3, 88440, Note_off_c, 1, 74, 64
3, 88440, Note_on_c, 1, 67, 68
3, 88675, Note_off_c, 1, 67, 64
3, 88680, Note_on_c, 1, 76, 60
3, 88680, Note_on_c, 1, 79, 60
3, 88915, Note_off_c, 1, 79, 64
3, 88915, Note_off_c, 1, 76, 64
3, 91560, Note_on_c, 1, 81, 60
3, 91560, Note_on_c, 1, 84, 60
3, 91800, Note_off_c, 1, 84, 64
3, 91800, Note_off_c, 1, 81, 64
3, 92520, Note_on_c, 1, 81, 45
3, 92520, Note_on_c, 1, 84, 45
3, 93000, Note_off_c, 1, 84, 64
3, 93000, Note_off_c, 1, 81, 64
3, 93000, Note_on_c, 1, 79, 45
3, 93000, Note_on_c, 1, 83, 45
3, 93240, Note_off_c, 1, 83, 64
3, 93240, Note_off_c, 1, 79, 64
3, 93240, Note_on_c, 1, 77, 45
3, 93240, Note_on_c, 1, 81, 45
3, 93475, Note_off_c, 1, 81, 64
3, 93475, Note_off_c, 1, 77, 64
3, 93480, Note_on_c, 1, 76, 45
3, 93480, Note_on_c, 1, 79, 45
3, 93960, Note_off_c, 1, 79, 64
3, 93960, Note_off_c, 1, 76, 64
3, 93960, Note_on_c, 1, 74, 45
3, 93960, Note_on_c, 1, 77, 45
3, 94200, Note_off_c, 1, 77, 64
3, 94200, Note_off_c, 1, 74, 64
3, 94200, Note_on_c, 1, 72, 45
3, 94200, Note_on_c, 1, 76, 45
3, 94435, Note_off_c, 1, 76, 64
3, 94435, Note_off_c, 1, 72, 64
3, 94440, Note_on_c, 1, 72, 45
3, 94440, Note_on_c, 1, 76, 45
3, 94680, Note_off_c, 1, 76, 64
3, 94680, Note_off_c, 1, 72, 64
3, 94680, Note_on_c, 1, 71, 45
3, 94680, Note_on_c, 1, 74, 45
3, 94920, Note_off_c, 1, 74, 64
3, 94920, Note_off_c, 1, 71, 64
3, 94920, Note_on_c, 1, 69, 45
3, 94920, Note_on_c, 1, 72, 45
3, 95160, Note_off_c, 1, 72, 64
3, 95160, Note_off_c, 1, 69, 64
3, 95160, Note_on_c, 1, 71, 45
3, 95160, Note_on_c, 1, 74, 45
3, 95400, Note_off_c, 1, 74, 64
3, 95400, Note_off_c, 1, 71, 64
3, 95400, Note_on_c, 1, 72, 45
3, 95400, Note_on_c, 1, 76, 45
3, 95635, Note_off_c, 1, 76, 64
3, 95635, Note_off_c, 1, 72, 64
3, 98280, Note_on_c, 1, 81, 60
3, 98280, Note_on_c, 1, 84, 60
3, 98520, Note_off_c, 1, 84, 64
3, 98520, Note_off_c, 1, 81, 64
3, 99240, Note_on_c, 1, 81, 45
3, 99240, Note_on_c, 1, 84, 45
3, 99720, Note_off_c, 1, 84, 64
3, 99720, Note_off_c, 1, 81, 64
3, 99720, Note_on_c, 1, 79, 45
3, 99720, Note_on_c, 1, 83, 45
3, 99960, Note_off_c, 1, 83, 64
3, 99960, Note_off_c, 1, 79, 64
3, 99960, Note_on_c, 1, 77, 45
3, 99960, Note_on_c, 1, 81, 45
3, 100195, Note_off_c, 1, 81, 64
3, 100195, Note_off_c, 1, 77, 64
3, 100200, Note_on_c, 1, 76, 45
3, 100200, Note_on_c, 1, 79, 45
3, 100680, Note_off_c, 1, 79, 64
3, 100680, Note_off_c, 1, 76, 64
3, 100680, Note_on_c, 1, 74, 45
3, 100680, Note_on_c, 1, 77, 45
3, 100920, Note_off_c, 1, 77, 64
3, 100920, Note_off_c, 1, 74, 64
3, 100920, Note_on_c, 1, 72, 45
3, 100920, Note_on_c, 1, 76, 45
3, 101155, Note_off_c, 1, 76, 64
3, 101155, Note_off_c, 1, 72, 64
3, 101160, Note_on_c, 1, 72, 45
3, 101160, Note_on_c, 1, 76, 45
3, 101400, Note_off_c, 1, 76, 64
3, 101400, Note_off_c, 1, 72, 64
3, 101400, Note_on_c, 1, 71, 45
3, 101400, Note_on_c, 1, 74, 45
3, 101640, Note_off_c, 1, 74, 64
3, 101640, Note_off_c, 1, 71, 64
3, 101640, Note_on_c, 1, 69, 45
3, 101640, Note_on_c, 1, 72, 45
3, 101880, Note_off_c, 1, 72, 64
3, 101880, Note_off_c, 1, 69, 64
3, 101880, Note_on_c, 1, 71, 45
3, 101880, Note_on_c, 1, 74, 45
3, 102120, Note_off_c, 1, 74, 64
3, 102120, Note_off_c, 1, 71, 64
3, 102120, Note_on_c, 1, 72, 45
3, 102120, Note_on_c, 1, 76, 45
3, 102355, Note_off_c, 1, 76, 64
3, 102355, Note_off_c, 1, 72, 64
3, 102360, Note_on_c, 1, 72, 45
3, 102595, Note_off_c, 1, 72, 64
3, 102600, Note_on_c, 1, 72, 45
3, 102600, Note_on_c, 1, 84, 45
3, 102835, Note_off_c, 1, 84, 64
3, 102835, Note_off_c, 1, 72, 64
3, 102840, Note_on_c, 1, 72, 47
3, 102840, Note_on_c, 1, 84, 47
3, 103075, Note_off_c, 1, 84, 64
3, 103075, Note_off_c, 1, 72, 64
3, 103080, Note_on_c, 1, 81, 49
3, 103080, Note_on_c, 1, 84, 49
3, 103160, Note_off_c, 1, 84, 64
3, 103160, Note_off_c, 1, 81, 64
3, 103320, Note_on_c, 1, 81, 51
3, 103320, Note_on_c, 1, 84, 51
3, 103560, Note_off_c, 1, 84, 64
3, 103560, Note_off_c, 1, 81, 64
3, 103560, Note_on_c, 1, 79, 53
3, 103560, Note_on_c, 1, 83, 53
3, 103800, Note_off_c, 1, 83, 64
3, 103800, Note_off_c, 1, 79, 64
3, 103800, Note_on_c, 1, 77, 55
3, 103800, Note_on_c, 1, 81, 55
3, 104035, Note_off_c, 1, 81, 64
3, 104035, Note_off_c, 1, 77, 64
3, 104040, Note_on_c, 1, 76, 57
3, 104040, Note_on_c, 1, 79, 57
3, 104120, Note_off_c, 1, 79, 64
3, 104120, Note_off_c, 1, 76, 64
3, 104280, Note_on_c, 1, 76, 59
3, 104280, Note_on_c, 1, 79, 59
3, 104520, Note_off_c, 1, 79, 64
3, 104520, Note_off_c, 1, 76, 64
3, 104520, Note_on_c, 1, 74, 61
3, 104520, Note_on_c, 1, 77, 61
3, 104760, Note_off_c, 1, 77, 64
3, 104760, Note_off_c, 1, 74, 64
3, 104760, Note_on_c, 1, 72, 63
3, 104760, Note_on_c, 1, 76, 63
3, 104995, Note_off_c, 1, 76, 64
3, 104995, Note_off_c, 1, 72, 64
3, 105000, Note_on_c, 1, 72, 65
3, 105000, Note_on_c, 1, 76, 65
3, 105240, Note_off_c, 1, 76, 64
3, 105240, Note_off_c, 1, 72, 64
3, 105240, Note_on_c, 1, 71, 67
3, 105240, Note_on_c, 1, 74, 67
3, 105480, Note_off_c, 1, 74, 64
3, 105480, Note_off_c, 1, 71, 64
3, 105480, Note_on_c, 1, 69, 69
3, 105480, Note_on_c, 1, 72, 69
3, 105720, Note_off_c, 1, 72, 64
3, 105720, Note_off_c, 1, 69, 64
3, 105720, Note_on_c, 1, 71, 72
3, 105720, Note_on_c, 1, 74, 72
3, 105955, Note_off_c, 1, 74, 64
3, 105955, Note_off_c, 1, 71, 64
3, 105960, Note_on_c, 1, 72, 75
3, 105960, Note_on_c, 1, 76, 75
3, 106195, Note_off_c, 1, 76, 64
3, 106195, Note_off_c, 1, 72, 64
3, 106440, Note_on_c, 1, 72, 75
3, 106440, Note_on_c, 1, 79, 75
3, 106675, Note_off_c, 1, 79, 64
3, 106675, Note_off_c, 1, 72, 64
3, 106920, Note_on_c, 1, 72, 75
3, 106920, Note_on_c, 1, 81, 75
3, 107155, Note_off_c, 1, 81, 64
3, 107155, Note_off_c, 1, 72, 64
3, 107400, Note_on_c, 1, 72, 75
3, 107400, Note_on_c, 1, 81, 75
3, 107635, Note_off_c, 1, 81, 64
3, 107635, Note_off_c, 1, 72, 64
3, 107880, Note_on_c, 1, 72, 75
3, 107880, Note_on_c, 1, 79, 75
3, 108115, Note_off_c, 1, 79, 64
3, 108115, Note_off_c, 1, 72, 64
3, 108360, Note_on_c, 1, 76, 75
3, 108360, Note_on_c, 1, 79, 75
3, 108595, Note_off_c, 1, 79, 64
3, 108595, Note_off_c, 1, 76, 64
3, 108840, Note_on_c, 1, 74, 75
3, 108840, Note_on_c, 1, 79, 75
3, 109075, Note_off_c, 1, 79, 64
3, 109075, Note_off_c, 1, 74, 64
3, 109320, Note_on_c, 1, 74, 75
3, 109320, Note_on_c, 1, 83, 75
3, 109555, Note_off_c, 1, 83, 64
3, 109555, Note_off_c, 1, 74, 64
3, 109800, Note_on_c, 1, 72, 60
3, 110280, Note_off_c, 1, 72, 64
3, 110280, Note_on_c, 1, 67, 60
3, 111600, Note_off_c, 1, 67, 64
3, 111720, Note_on_c, 1, 76, 60
3, 112200, Note_off_c, 1, 76, 64
3, 112200, Note_on_c, 1, 72, 60
3, 113520, Note_off_c, 1, 72, 64
3, 113640, Note_on_c, 1, 72, 60
3, 114120, Note_off_c, 1, 72, 64
3, 114120, Note_on_c, 1, 67, 60
3, 115440, Note_off_c, 1, 67, 64
3, 115560, Note_on_c, 1, 76, 60
3, 116040, Note_off_c, 1, 76, 64
3, 116040, Note_on_c, 1, 72, 60
3, 117360, Note_off_c, 1, 72, 64
3, 117480, Note_on_c, 1, 72, 60
3, 117960, Note_off_c, 1, 72, 64
3, 117960, Note_on_c, 1, 67, 60
3, 118440, Note_off_c, 1, 67, 64
3, 118440, Note_on_c, 1, 72, 60
3, 118920, Note_off_c, 1, 72, 64
3, 118920, Note_on_c, 1, 67, 60
3, 119400, Note_off_c, 1, 67, 64
3, 119400, Note_on_c, 1, 72, 60
3, 119880, Note_off_c, 1, 72, 64
3, 119880, Note_on_c, 1, 67, 60
3, 120360, Note_off_c, 1, 67, 64
3, 120360, Note_on_c, 1, 72, 60
3, 120840, Note_off_c, 1, 72, 64
3, 120840, Note_on_c, 1, 67, 60
3, 121320, Note_off_c, 1, 67, 64
3, 121320, Note_on_c, 1, 72, 30
3, 121555, Note_off_c, 1, 72, 64
3, 140760, Note_on_c, 1, 69, 30
3, 140760, Note_on_c, 1, 75, 30
3, 142560, Note_off_c, 1, 75, 64
3, 142560, Note_off_c, 1, 69, 64
3, 142680, Note_on_c, 1, 69, 30
3, 142680, Note_on_c, 1, 75, 30
3, 144480, Note_off_c, 1, 75, 64
3, 144480, Note_off_c, 1, 69, 64
3, 144600, Note_on_c, 1, 70, 30
3, 144600, Note_on_c, 1, 74, 30
3, 144835, Note_off_c, 1, 74, 64
3, 144835, Note_off_c, 1, 70, 64
3, 156120, Note_on_c, 1, 81, 60
3, 156200, Note_off_c, 1, 81, 64
3, 156360, Note_on_c, 1, 78, 60
3, 156480, Note_off_c, 1, 78, 64
3, 156480, Note_on_c, 1, 76, 60
3, 156600, Note_off_c, 1, 76, 64
3, 156600, Note_on_c, 1, 74, 60
3, 156680, Note_off_c, 1, 74, 64
3, 156840, Note_on_c, 1, 69, 60
3, 156920, Note_off_c, 1, 69, 64
3, 157080, Note_on_c, 1, 81, 60
3, 157160, Note_off_c, 1, 81, 64
3, 157320, Note_on_c, 1, 78, 60
3, 157440, Note_off_c, 1, 78, 64
3, 157440, Note_on_c, 1, 76, 60
3, 157560, Note_off_c, 1, 76, 64
3, 157560, Note_on_c, 1, 74, 60
3, 157640, Note_off_c, 1, 74, 64
3, 157800, Note_on_c, 1, 69, 60
3, 157880, Note_off_c, 1, 69, 64
3, 158040, Note_on_c, 1, 81, 60
3, 158120, Note_off_c, 1, 81, 64
3, 158280, Note_on_c, 1, 78, 60
3, 158400, Note_off_c, 1, 78, 64
3, 158400, Note_on_c, 1, 76, 60
3, 158520, Note_off_c, 1, 76, 64
3, 158520, Note_on_c, 1, 74, 60
3, 158600, Note_off_c, 1, 74, 64
3, 158760, Note_on_c, 1, 69, 60
3, 158840, Note_off_c, 1, 69, 64
3, 159000, Note_on_c, 1, 81, 60
3, 159080, Note_off_c, 1, 81, 64
3, 159240, Note_on_c, 1, 78, 60
3, 159360, Note_off_c, 1, 78, 64
3, 159360, Note_on_c, 1, 76, 60
3, 159480, Note_off_c, 1, 76, 64
3, 159480, Note_on_c, 1, 74, 60
3, 159560, Note_off_c, 1, 74, 64
3, 159720, Note_on_c, 1, 69, 60
3, 159800, Note_off_c, 1, 69, 64
3, 159960, Note_on_c, 1, 66, 60
3, 159960, Note_on_c, 1, 74, 60
3, 163680, Note_off_c, 1, 74, 64
3, 163680, Note_off_c, 1, 66, 64
3, 163800, Note_on_c, 1, 74, 67
3, 163800, Note_on_c, 1, 78, 67
3, 167520, Note_off_c, 1, 78, 64
3, 167520, Note_off_c, 1, 74, 64
3, 167640, Note_on_c, 1, 78, 75
3, 167640, Note_on_c, 1, 81, 75
3, 168280, Note_off_c, 1, 81, 64
3, 168280, Note_off_c, 1, 78, 64
3, 168360, Note_on_c, 1, 78, 75
3, 168360, Note_on_c, 1, 81, 75
3, 168595, Note_off_c, 1, 81, 64
3, 168595, Note_off_c, 1, 78, 64
3, 168600, Note_on_c, 1, 78, 75
3, 168600, Note_on_c, 1, 81, 75
3, 169240, Note_off_c, 1, 81, 64
3, 169240, Note_off_c, 1, 78, 64
3, 169320, Note_on_c, 1, 78, 75
3, 169320, Note_on_c, 1, 81, 75
3, 169555, Note_off_c, 1, 81, 64
3, 169555, Note_off_c, 1, 78, 64
3, 169560, Note_on_c, 1, 78, 75
3, 169560, Note_on_c, 1, 81, 75
3, 170200, Note_off_c, 1, 81, 64
3, 170200, Note_off_c, 1, 78, 64
3, 170280, Note_on_c, 1, 78, 75
3, 170280, Note_on_c, 1, 81, 75
3, 170515, Note_off_c, 1, 81, 64
3, 170515, Note_off_c, 1, 78, 64
3, 170520, Note_on_c, 1, 78, 75
3, 170520, Note_on_c, 1, 81, 75
3, 171160, Note_off_c, 1, 81, 64
3, 171160, Note_off_c, 1, 78, 64
3, 171240, Note_on_c, 1, 78, 75
3, 171240, Note_on_c, 1, 81, 75
3, 171475, Note_off_c, 1, 81, 64
3, 171475, Note_off_c, 1, 78, 64
3, 171480, Note_on_c, 1, 78, 75
3, 171480, Note_on_c, 1, 81, 75
3, 171715, Note_off_c, 1, 81, 64
3, 171715, Note_off_c, 1, 78, 64
3, 173400, Note_on_c, 1, 78, 75
3, 173400, Note_on_c, 1, 81, 75
3, 173635, Note_off_c, 1, 81, 64
3, 173635, Note_off_c, 1, 78, 64
3, 186840, Note_on_c, 1, 79, 45
3, 186920, Note_off_c, 1, 79, 64
3, 187080, Note_on_c, 1, 79, 45
3, 187080, Note_on_c, 1, 81, 45
3, 187160, Note_off_c, 1, 81, 64
3, 187160, Note_off_c, 1, 79, 64
3, 187320, Note_on_c, 1, 79, 45
3, 187320, Note_on_c, 1, 83, 45
3, 187560, Note_off_c, 1, 83, 64
3, 187560, Note_on_c, 1, 84, 45
3, 187680, Note_off_c, 1, 84, 64
3, 187680, Note_on_c, 1, 83, 45
3, 187720, Note_off_c, 1, 79, 64
3, 187795, Note_off_c, 1, 83, 64
3, 187800, Note_on_c, 1, 74, 45
3, 187800, Note_on_c, 1, 81, 45
3, 187880, Note_off_c, 1, 81, 64
3, 188040, Note_on_c, 1, 79, 45
3, 188120, Note_off_c, 1, 79, 64
3, 188280, Note_on_c, 1, 81, 45
3, 188520, Note_off_c, 1, 81, 64
3, 188520, Note_on_c, 1, 83, 45
3, 188640, Note_off_c, 1, 83, 64
3, 188640, Note_on_c, 1, 81, 45
3, 188755, Note_off_c, 1, 81, 64
3, 188760, Note_on_c, 1, 79, 45
3, 188995, Note_off_c, 1, 74, 64
3, 188995, Note_off_c, 1, 79, 64
3, 192600, Note_on_c, 1, 79, 45
3, 192680, Note_off_c, 1, 79, 64
3, 192840, Note_on_c, 1, 74, 46
3, 192960, Note_off_c, 1, 74, 64
3, 192960, Note_on_c, 1, 72, 46
3, 193080, Note_off_c, 1, 72, 64
3, 193080, Note_on_c, 1, 71, 46
3, 193160, Note_off_c, 1, 71, 64
3, 193320, Note_on_c, 1, 67, 47
3, 193400, Note_off_c, 1, 67, 64
3, 193560, Note_on_c, 1, 79, 48
3, 193640, Note_off_c, 1, 79, 64
3, 193800, Note_on_c, 1, 74, 49
3, 193920, Note_off_c, 1, 74, 64
3, 193920, Note_on_c, 1, 72, 49
3, 194040, Note_off_c, 1, 72, 64
3, 194040, Note_on_c, 1, 71, 49
3, 194120, Note_off_c, 1, 71, 64
3, 194280, Note_on_c, 1, 67, 50
3, 194360, Note_off_c, 1, 67, 64
3, 194520, Note_on_c, 1, 79, 51
3, 194600, Note_off_c, 1, 79, 64
3, 194760, Note_on_c, 1, 74, 52
3, 194880, Note_off_c, 1, 74, 64
3, 194880, Note_on_c, 1, 72, 52
3, 195000, Note_off_c, 1, 72, 64
3, 195000, Note_on_c, 1, 71, 52
3, 195080, Note_off_c, 1, 71, 64
3, 195240, Note_on_c, 1, 67, 54
3, 195320, Note_off_c, 1, 67, 64
3, 195480, Note_on_c, 1, 79, 56
3, 195560, Note_off_c, 1, 79, 64
3, 195720, Note_on_c, 1, 74, 58
3, 195840, Note_off_c, 1, 74, 64
3, 195840, Note_on_c, 1, 72, 59
3, 195960, Note_off_c, 1, 72, 64
3, 195960, Note_on_c, 1, 71, 60
3, 196040, Note_off_c, 1, 71, 64
3, 196200, Note_on_c, 1, 67, 60
3, 196280, Note_off_c, 1, 67, 64
3, 200280, Note_on_c, 1, 83, 60
3, 200360, Note_off_c, 1, 83, 64
3, 200520, Note_on_c, 1, 81, 61
3, 200640, Note_off_c, 1, 81, 64
3, 200640, Note_on_c, 1, 80, 61
3, 200760, Note_off_c, 1, 80, 64
3, 200760, Note_on_c, 1, 76, 61
3, 200840, Note_off_c, 1, 76, 64
3, 201000, Note_on_c, 1, 71, 62
3, 201080, Note_off_c, 1, 71, 64
3, 201240, Note_on_c, 1, 83, 63
3, 201320, Note_off_c, 1, 83, 64
3, 201480, Note_on_c, 1, 81, 64
3, 201600, Note_off_c, 1, 81, 64
3, 201600, Note_on_c, 1, 80, 64
3, 201720, Note_off_c, 1, 80, 64
3, 201720, Note_on_c, 1, 76, 64
3, 201800, Note_off_c, 1, 76, 64
3, 201960, Note_on_c, 1, 71, 65
3, 202040, Note_off_c, 1, 71, 64
3, 202200, Note_on_c, 1, 83, 66
3, 202280, Note_off_c, 1, 83, 64
3, 202440, Note_on_c, 1, 81, 67
3, 202560, Note_off_c, 1, 81, 64
3, 202560, Note_on_c, 1, 80, 67
3, 202680, Note_off_c, 1, 80, 64
3, 202680, Note_on_c, 1, 76, 67
3, 202760, Note_off_c, 1, 76, 64
3, 202920, Note_on_c, 1, 71, 68
3, 203000, Note_off_c, 1, 71, 64
3, 203160, Note_on_c, 1, 83, 69
3, 203240, Note_off_c, 1, 83, 64
3, 203400, Note_on_c, 1, 81, 71
3, 203520, Note_off_c, 1, 81, 64
3, 203520, Note_on_c, 1, 80, 72
3, 203640, Note_off_c, 1, 80, 64
3, 203640, Note_on_c, 1, 76, 73
3, 203720, Note_off_c, 1, 76, 64
3, 203880, Note_on_c, 1, 71, 75
3, 203960, Note_off_c, 1, 71, 64
3, 207960, Note_on_c, 1, 68, 75
3, 207960, Note_on_c, 1, 76, 75
3, 211680, Note_off_c, 1, 76, 64
3, 211680, Note_off_c, 1, 68, 64
3, 211800, Note_on_c, 1, 80, 75
3, 211800, Note_on_c, 1, 83, 75
3, 212440, Note_off_c, 1, 83, 64
3, 212440, Note_off_c, 1, 80, 64
3, 212520, Note_on_c, 1, 80, 75
3, 212520, Note_on_c, 1, 83, 75
3, 212755, Note_off_c, 1, 83, 64
3, 212755, Note_off_c, 1, 80, 64
3, 212760, Note_on_c, 1, 80, 75
3, 212760, Note_on_c, 1, 83, 75
3, 213400, Note_off_c, 1, 83, 64
3, 213400, Note_off_c, 1, 80, 64
3, 213480, Note_on_c, 1, 80, 75
3, 213480, Note_on_c, 1, 83, 75
3, 213715, Note_off_c, 1, 83, 64
3, 213715, Note_off_c, 1, 80, 64
3, 213720, Note_on_c, 1, 80, 75
3, 213720, Note_on_c, 1, 83, 75
3, 214360, Note_off_c, 1, 83, 64
3, 214360, Note_off_c, 1, 80, 64
3, 214440, Note_on_c, 1, 80, 75
3, 214440, Note_on_c, 1, 83, 75
3, 214675, Note_off_c, 1, 83, 64
3, 214675, Note_off_c, 1, 80, 64
3, 214680, Note_on_c, 1, 80, 75
3, 214680, Note_on_c, 1, 83, 75
3, 215320, Note_off_c, 1, 83, 64
3, 215320, Note_off_c, 1, 80, 64
3, 215400, Note_on_c, 1, 80, 75
3, 215400, Note_on_c, 1, 83, 75
3, 215635, Note_off_c, 1, 83, 64
3, 215635, Note_off_c, 1, 80, 64
3, 215640, Note_on_c, 1, 80, 75
3, 215640, Note_on_c, 1, 83, 75
3, 215875, Note_off_c, 1, 83, 64
3, 215875, Note_off_c, 1, 80, 64
3, 217560, Note_on_c, 1, 80, 75
3, 217560, Note_on_c, 1, 83, 75
3, 217795, Note_off_c, 1, 83, 64
3, 217795, Note_off_c, 1, 80, 64
3, 231000, Note_on_c, 1, 81, 30
3, 231960, Note_off_c, 1, 81, 64
3, 231960, Note_on_c, 1, 76, 30
3, 232920, Note_off_c, 1, 76, 64
3, 232920, Note_on_c, 1, 69, 30
3, 232920, Note_on_c, 1, 73, 30
3, 233320, Note_off_c, 1, 73, 64
3, 233320, Note_off_c, 1, 69, 64
3, 252120, Note_on_c, 1, 72, 75
3, 253920, Note_off_c, 1, 72, 64
3, 254040, Note_on_c, 1, 72, 75
3, 255840, Note_off_c, 1, 72, 64
3, 255960, Note_on_c, 1, 72, 75
3, 257760, Note_off_c, 1, 72, 64
3, 257880, Note_on_c, 1, 72, 75
3, 259680, Note_off_c, 1, 72, 64
3, 259800, Note_on_c, 1, 72, 75
3, 261600, Note_off_c, 1, 72, 64
3, 261720, Note_on_c, 1, 72, 75
3, 263320, Note_off_c, 1, 72, 64
3, 263400, Note_on_c, 1, 72, 64
3, 263635, Note_off_c, 1, 72, 64
3, 263640, Note_on_c, 1, 74, 60
3, 264040, Note_off_c, 1, 74, 64
3, 298440, Note_on_c, 1, 62, 52
3, 298440, Note_on_c, 1, 74, 52
3, 298560, Note_off_c, 1, 74, 64
3, 298560, Note_off_c, 1, 62, 64
3, 298560, Note_on_c, 1, 64, 55
3, 298560, Note_on_c, 1, 76, 55
3, 298680, Note_off_c, 1, 76, 64
3, 298680, Note_off_c, 1, 64, 64
3, 298680, Note_on_c, 1, 65, 59
3, 298680, Note_on_c, 1, 77, 59
3, 298760, Note_off_c, 1, 77, 64
3, 298760, Note_off_c, 1, 65, 64
3, 298920, Note_on_c, 1, 67, 67
3, 298920, Note_on_c, 1, 79, 67
3, 299000, Note_off_c, 1, 79, 64
3, 299000, Note_off_c, 1, 67, 64
3, 299160, Note_on_c, 1, 69, 75
3, 299160, Note_on_c, 1, 81, 75
3, 299240, Note_off_c, 1, 81, 64
3, 299240, Note_off_c, 1, 69, 64
3, 299400, Note_on_c, 1, 69, 75
3, 299400, Note_on_c, 1, 77, 75
3, 299480, Note_off_c, 1, 77, 64
3, 299480, Note_off_c, 1, 69, 64
3, 299640, Note_on_c, 1, 70, 75
3, 299640, Note_on_c, 1, 79, 75
3, 299720, Note_off_c, 1, 79, 64
3, 299720, Note_off_c, 1, 70, 64
3, 299880, Note_on_c, 1, 74, 75
3, 299880, Note_on_c, 1, 82, 75
3, 299960, Note_off_c, 1, 82, 64
3, 299960, Note_off_c, 1, 74, 64
3, 300120, Note_on_c, 1, 72, 75
3, 300120, Note_on_c, 1, 81, 75
3, 300360, Note_off_c, 1, 81, 64
3, 300360, Note_off_c, 1, 72, 64
3, 300360, Note_on_c, 1, 70, 75
3, 300360, Note_on_c, 1, 79, 75
3, 300480, Note_off_c, 1, 79, 64
3, 300480, Note_off_c, 1, 70, 64
3, 300480, Note_on_c, 1, 69, 75
3, 300480, Note_on_c, 1, 77, 75
3, 300600, Note_off_c, 1, 77, 64
3, 300600, Note_off_c, 1, 69, 64
3, 300600, Note_on_c, 1, 67, 75
3, 300600, Note_on_c, 1, 76, 75
3, 300680, Note_off_c, 1, 76, 64
3, 300680, Note_off_c, 1, 67, 64
3, 300840, Note_on_c, 1, 72, 75
3, 300920, Note_off_c, 1, 72, 64
3, 301080, Note_on_c, 1, 65, 75
3, 301080, Note_on_c, 1, 77, 75
3, 301160, Note_off_c, 1, 77, 64
3, 301160, Note_off_c, 1, 65, 64
3, 301320, Note_on_c, 1, 67, 75
3, 301320, Note_on_c, 1, 76, 75
3, 301400, Note_off_c, 1, 76, 64
3, 301400, Note_off_c, 1, 67, 64
3, 301560, Note_on_c, 1, 69, 75
3, 301560, Note_on_c, 1, 77, 75
3, 301800, Note_off_c, 1, 77, 64
3, 301800, Note_off_c, 1, 69, 64
3, 301800, Note_on_c, 1, 70, 75
3, 301800, Note_on_c, 1, 79, 75
3, 301920, Note_off_c, 1, 79, 64
3, 301920, Note_off_c, 1, 70, 64
3, 301920, Note_on_c, 1, 69, 75
3, 301920, Note_on_c, 1, 77, 75
3, 302035, Note_off_c, 1, 77, 64
3, 302035, Note_off_c, 1, 69, 64
3, 302040, Note_on_c, 1, 67, 75
3, 302040, Note_on_c, 1, 76, 75
3, 302120, Note_off_c, 1, 76, 64
3, 302120, Note_off_c, 1, 67, 64
3, 302280, Note_on_c, 1, 69, 75
3, 302280, Note_on_c, 1, 77, 75
3, 302360, Note_off_c, 1, 77, 64
3, 302360, Note_off_c, 1, 69, 64
3, 302520, Note_on_c, 1, 70, 75
3, 302520, Note_on_c, 1, 79, 75
3, 302760, Note_off_c, 1, 79, 64
3, 302760, Note_off_c, 1, 70, 64
3, 302760, Note_on_c, 1, 72, 75
3, 302760, Note_on_c, 1, 81, 75
3, 302880, Note_off_c, 1, 81, 64
3, 302880, Note_off_c, 1, 72, 64
3, 302880, Note_on_c, 1, 70, 75
3, 302880, Note_on_c, 1, 79, 75
3, 302995, Note_off_c, 1, 79, 64
3, 302995, Note_off_c, 1, 70, 64
3, 303000, Note_on_c, 1, 69, 75
3, 303000, Note_on_c, 1, 77, 75
3, 303240, Note_off_c, 1, 77, 64
3, 303240, Note_off_c, 1, 69, 64
3, 303240, Note_on_c, 1, 72, 75
3, 303240, Note_on_c, 1, 81, 75
3, 303320, Note_off_c, 1, 81, 64
3, 303320, Note_off_c, 1, 72, 64
3, 303480, Note_on_c, 1, 72, 75
3, 303480, Note_on_c, 1, 81, 75
3, 303560, Note_off_c, 1, 81, 64
3, 303560, Note_off_c, 1, 72, 64
3, 303720, Note_on_c, 1, 72, 75
3, 303720, Note_on_c, 1, 81, 75
3, 303800, Note_off_c, 1, 81, 64
3, 303800, Note_off_c, 1, 72, 64
3, 303960, Note_on_c, 1, 72, 75
3, 303960, Note_on_c, 1, 81, 75
3, 304440, Note_off_c, 1, 81, 64
3, 304440, Note_off_c, 1, 72, 64
3, 304440, Note_on_c, 1, 70, 75
3, 304440, Note_on_c, 1, 79, 75
3, 304560, Note_off_c, 1, 79, 64
3, 304560, Note_off_c, 1, 70, 64
3, 304560, Note_on_c, 1, 69, 75
3, 304560, Note_on_c, 1, 77, 75
3, 304680, Note_off_c, 1, 77, 64
3, 304680, Note_off_c, 1, 69, 64
3, 304680, Note_on_c, 1, 67, 75
3, 304680, Note_on_c, 1, 76, 75
3, 304800, Note_off_c, 1, 76, 64
3, 304800, Note_off_c, 1, 67, 64
3, 304800, Note_on_c, 1, 65, 75
3, 304800, Note_on_c, 1, 74, 75
3, 304915, Note_off_c, 1, 74, 64
3, 304915, Note_off_c, 1, 65, 64
3, 304920, Note_on_c, 1, 64, 75
3, 304920, Note_on_c, 1, 72, 75
3, 305000, Note_off_c, 1, 72, 64
3, 305000, Note_off_c, 1, 64, 64
3, 305160, Note_on_c, 1, 65, 75
3, 305160, Note_on_c, 1, 74, 75
3, 305240, Note_off_c, 1, 74, 64
3, 305240, Note_off_c, 1, 65, 64
3, 305400, Note_on_c, 1, 67, 75
3, 305400, Note_on_c, 1, 76, 75
3, 305640, Note_off_c, 1, 76, 64
3, 305640, Note_off_c, 1, 67, 64
3, 305640, Note_on_c, 1, 69, 75
3, 305640, Note_on_c, 1, 77, 75
3, 305760, Note_off_c, 1, 77, 64
3, 305760, Note_off_c, 1, 69, 64
3, 305760, Note_on_c, 1, 67, 75
3, 305760, Note_on_c, 1, 76, 75
3, 305875, Note_off_c, 1, 76, 64
3, 305875, Note_off_c, 1, 67, 64
3, 305880, Note_on_c, 1, 65, 75
3, 305880, Note_on_c, 1, 74, 75
3, 305960, Note_off_c, 1, 74, 64
3, 305960, Note_off_c, 1, 65, 64
3, 306120, Note_on_c, 1, 67, 75
3, 306120, Note_on_c, 1, 76, 75
3, 306200, Note_off_c, 1, 76, 64
3, 306200, Note_off_c, 1, 67, 64
3, 306360, Note_on_c, 1, 69, 75
3, 306360, Note_on_c, 1, 77, 75
3, 306600, Note_off_c, 1, 77, 64
3, 306600, Note_off_c, 1, 69, 64
3, 306600, Note_on_c, 1, 70, 75
3, 306600, Note_on_c, 1, 79, 75
3, 306720, Note_off_c, 1, 79, 64
3, 306720, Note_off_c, 1, 70, 64
3, 306720, Note_on_c, 1, 69, 75
3, 306720, Note_on_c, 1, 77, 75
3, 306835, Note_off_c, 1, 77, 64
3, 306835, Note_off_c, 1, 69, 64
3, 306840, Note_on_c, 1, 67, 75
3, 306840, Note_on_c, 1, 76, 75
3, 307080, Note_off_c, 1, 76, 64
3, 307080, Note_off_c, 1, 67, 64
3, 307080, Note_on_c, 1, 70, 75
3, 307080, Note_on_c, 1, 79, 75
3, 307160, Note_off_c, 1, 79, 64
3, 307160, Note_off_c, 1, 70, 64
3, 307320, Note_on_c, 1, 70, 75
3, 307320, Note_on_c, 1, 79, 75
3, 307400, Note_off_c, 1, 79, 64
3, 307400, Note_off_c, 1, 70, 64
3, 307560, Note_on_c, 1, 70, 75
3, 307560, Note_on_c, 1, 79, 75
3, 307640, Note_off_c, 1, 79, 64
3, 307640, Note_off_c, 1, 70, 64
3, 307800, Note_on_c, 1, 70, 75
3, 307800, Note_on_c, 1, 79, 75
3, 308280, Note_off_c, 1, 79, 64
3, 308280, Note_off_c, 1, 70, 64
3, 308280, Note_on_c, 1, 72, 75
3, 308280, Note_on_c, 1, 81, 75
3, 308400, Note_off_c, 1, 81, 64
3, 308400, Note_off_c, 1, 72, 64
3, 308400, Note_on_c, 1, 70, 75
3, 308400, Note_on_c, 1, 79, 75
3, 308520, Note_off_c, 1, 79, 64
3, 308520, Note_off_c, 1, 70, 64
3, 308520, Note_on_c, 1, 69, 75
3, 308520, Note_on_c, 1, 77, 75
3, 308640, Note_off_c, 1, 77, 64
3, 308640, Note_off_c, 1, 69, 64
3, 308640, Note_on_c, 1, 67, 75
3, 308640, Note_on_c, 1, 76, 75
3, 308755, Note_off_c, 1, 76, 64
3, 308755, Note_off_c, 1, 67, 64
3, 308760, Note_on_c, 1, 69, 75
3, 308760, Note_on_c, 1, 77, 75
3, 308840, Note_off_c, 1, 77, 64
3, 308840, Note_off_c, 1, 69, 64
3, 309000, Note_on_c, 1, 70, 75
3, 309000, Note_on_c, 1, 79, 75
3, 309080, Note_off_c, 1, 79, 64
3, 309080, Note_off_c, 1, 70, 64
3, 309240, Note_on_c, 1, 72, 75
3, 309240, Note_on_c, 1, 81, 75
3, 309720, Note_off_c, 1, 81, 64
3, 309720, Note_off_c, 1, 72, 64
3, 309720, Note_on_c, 1, 70, 75
3, 309720, Note_on_c, 1, 79, 75
3, 309960, Note_off_c, 1, 79, 64
3, 309960, Note_off_c, 1, 70, 64
3, 309960, Note_on_c, 1, 67, 75
3, 309960, Note_on_c, 1, 76, 75
3, 310200, Note_off_c, 1, 76, 64
3, 310200, Note_off_c, 1, 67, 64
3, 310200, Note_on_c, 1, 70, 75
3, 310200, Note_on_c, 1, 79, 75
3, 310440, Note_off_c, 1, 79, 64
3, 310440, Note_off_c, 1, 70, 64
3, 310440, Note_on_c, 1, 67, 75
3, 310440, Note_on_c, 1, 76, 75
3, 310675, Note_off_c, 1, 76, 64
3, 310675, Note_off_c, 1, 67, 64
3, 310680, Note_on_c, 1, 69, 75
3, 310680, Note_on_c, 1, 77, 75
3, 310760, Note_off_c, 1, 77, 64
3, 310760, Note_off_c, 1, 69, 64
3, 310920, Note_on_c, 1, 70, 75
3, 310920, Note_on_c, 1, 79, 75
3, 311000, Note_off_c, 1, 79, 64
3, 311000, Note_off_c, 1, 70, 64
3, 311160, Note_on_c, 1, 72, 75
3, 311160, Note_on_c, 1, 81, 75
3, 311640, Note_off_c, 1, 81, 64
3, 311640, Note_off_c, 1, 72, 64
3, 311640, Note_on_c, 1, 70, 75
3, 311640, Note_on_c, 1, 79, 75
3, 311880, Note_off_c, 1, 79, 64
3, 311880, Note_off_c, 1, 70, 64
3, 311880, Note_on_c, 1, 67, 75
3, 311880, Note_on_c, 1, 76, 75
3, 312120, Note_off_c, 1, 76, 64
3, 312120, Note_off_c, 1, 67, 64
3, 312120, Note_on_c, 1, 70, 75
3, 312120, Note_on_c, 1, 79, 75
3, 312360, Note_off_c, 1, 79, 64
3, 312360, Note_off_c, 1, 70, 64
3, 312360, Note_on_c, 1, 67, 75
3, 312360, Note_on_c, 1, 76, 75
3, 312595, Note_off_c, 1, 76, 64
3, 312595, Note_off_c, 1, 67, 64
3, 312600, Note_on_c, 1, 69, 75
3, 312600, Note_on_c, 1, 77, 75
3, 312840, Note_off_c, 1, 77, 64
3, 312840, Note_off_c, 1, 69, 64
3, 312840, Note_on_c, 1, 67, 75
3, 312840, Note_on_c, 1, 76, 75
3, 313080, Note_off_c, 1, 76, 64
3, 313080, Note_off_c, 1, 67, 64
3, 313080, Note_on_c, 1, 70, 75
3, 313080, Note_on_c, 1, 79, 75
3, 313320, Note_off_c, 1, 79, 64
3, 313320, Note_off_c, 1, 70, 64
3, 313320, Note_on_c, 1, 67, 75
3, 313320, Note_on_c, 1, 76, 75
3, 313555, Note_off_c, 1, 76, 64
3, 313555, Note_off_c, 1, 67, 64
3, 313560, Note_on_c, 1, 69, 75
3, 313560, Note_on_c, 1, 77, 75
3, 313800, Note_off_c, 1, 77, 64
3, 313800, Note_off_c, 1, 69, 64
3, 313800, Note_on_c, 1, 67, 68
3, 313800, Note_on_c, 1, 76, 68
3, 314040, Note_off_c, 1, 76, 64
3, 314040, Note_off_c, 1, 67, 64
3, 314040, Note_on_c, 1, 70, 61
3, 314040, Note_on_c, 1, 79, 61
3, 314280, Note_off_c, 1, 79, 64
3, 314280, Note_off_c, 1, 70, 64
3, 314280, Note_on_c, 1, 67, 53
3, 314280, Note_on_c, 1, 76, 53
3, 314515, Note_off_c, 1, 76, 64
3, 314515, Note_off_c, 1, 67, 64
3, 314520, Note_on_c, 1, 69, 45
3, 314520, Note_on_c, 1, 77, 45
3, 314920, Note_off_c, 1, 77, 64
3, 314920, Note_off_c, 1, 69, 64
3, 347160, Note_on_c, 1, 74, 60
3, 347400, Note_off_c, 1, 74, 64
3, 347400, Note_on_c, 1, 72, 60
3, 347640, Note_off_c, 1, 72, 64
3, 347640, Note_on_c, 1, 70, 60
3, 347880, Note_off_c, 1, 70, 64
3, 347880, Note_on_c, 1, 67, 60
3, 348120, Note_off_c, 1, 67, 64
3, 348120, Note_on_c, 1, 60, 60
3, 348360, Note_off_c, 1, 60, 64
3, 348360, Note_on_c, 1, 70, 60
3, 348600, Note_off_c, 1, 70, 64
3, 348600, Note_on_c, 1, 67, 60
3, 348840, Note_off_c, 1, 67, 64
3, 348840, Note_on_c, 1, 60, 60
3, 349075, Note_off_c, 1, 60, 64
3, 349080, Note_on_c, 1, 74, 60
3, 349320, Note_off_c, 1, 74, 64
3, 349320, Note_on_c, 1, 72, 60
3, 349560, Note_off_c, 1, 72, 64
3, 349560, Note_on_c, 1, 69, 60
3, 349800, Note_off_c, 1, 69, 64
3, 349800, Note_on_c, 1, 65, 60
3, 350040, Note_off_c, 1, 65, 64
3, 350040, Note_on_c, 1, 60, 60
3, 350280, Note_off_c, 1, 60, 64
3, 350280, Note_on_c, 1, 69, 60
3, 350520, Note_off_c, 1, 69, 64
3, 350520, Note_on_c, 1, 65, 60
3, 350760, Note_off_c, 1, 65, 64
3, 350760, Note_on_c, 1, 60, 60
3, 350995, Note_off_c, 1, 60, 64
3, 351000, Note_on_c, 1, 72, 60
3, 351000, Note_on_c, 1, 74, 60
3, 351240, Note_off_c, 1, 74, 64
3, 351240, Note_on_c, 1, 72, 60
3, 351480, Note_off_c, 1, 72, 64
3, 351480, Note_on_c, 1, 70, 60
3, 351720, Note_off_c, 1, 70, 64
3, 351720, Note_on_c, 1, 67, 60
3, 351840, Note_off_c, 1, 72, 64
3, 351960, Note_off_c, 1, 67, 64
3, 351960, Note_on_c, 1, 60, 60
3, 351960, Note_on_c, 1, 72, 60
3, 352200, Note_off_c, 1, 60, 64
3, 352200, Note_on_c, 1, 70, 60
3, 352440, Note_off_c, 1, 70, 64
3, 352440, Note_on_c, 1, 67, 60
3, 352680, Note_off_c, 1, 67, 64
3, 352680, Note_on_c, 1, 60, 60
3, 352800, Note_off_c, 1, 72, 64
3, 352915, Note_off_c, 1, 60, 64
3, 352920, Note_on_c, 1, 74, 60
3, 353160, Note_off_c, 1, 74, 64
3, 353160, Note_on_c, 1, 72, 60
3, 353400, Note_off_c, 1, 72, 64
3, 353400, Note_on_c, 1, 69, 61
3, 353640, Note_off_c, 1, 69, 64
3, 353640, Note_on_c, 1, 65, 62
3, 353880, Note_off_c, 1, 65, 64
3, 353880, Note_on_c, 1, 60, 63
3, 354120, Note_off_c, 1, 60, 64
3, 354120, Note_on_c, 1, 69, 64
3, 354360, Note_off_c, 1, 69, 64
3, 354360, Note_on_c, 1, 65, 65
3, 354600, Note_off_c, 1, 65, 64
3, 354600, Note_on_c, 1, 60, 66
3, 354835, Note_off_c, 1, 60, 64
3, 354840, Note_on_c, 1, 74, 67
3, 354840, Note_on_c, 1, 76, 67
3, 355080, Note_off_c, 1, 74, 64
3, 355080, Note_on_c, 1, 72, 68
3, 355240, Note_off_c, 1, 76, 64
3, 355320, Note_off_c, 1, 72, 64
3, 355320, Note_on_c, 1, 70, 69
3, 355320, Note_on_c, 1, 76, 69
3, 355560, Note_off_c, 1, 70, 64
3, 355560, Note_on_c, 1, 67, 70
3, 355720, Note_off_c, 1, 76, 64
3, 355800, Note_off_c, 1, 67, 64
3, 355800, Note_on_c, 1, 60, 71
3, 355800, Note_on_c, 1, 76, 71
3, 356040, Note_off_c, 1, 60, 64
3, 356040, Note_on_c, 1, 70, 72
3, 356200, Note_off_c, 1, 76, 64
3, 356280, Note_off_c, 1, 70, 64
3, 356280, Note_on_c, 1, 67, 73
3, 356280, Note_on_c, 1, 79, 73
3, 356515, Note_off_c, 1, 79, 64
3, 356520, Note_off_c, 1, 67, 64
3, 356520, Note_on_c, 1, 60, 74
3, 356520, Note_on_c, 1, 76, 74
3, 356755, Note_off_c, 1, 76, 64
3, 356755, Note_off_c, 1, 60, 64
3, 356760, Note_on_c, 1, 69, 75
3, 356760, Note_on_c, 1, 72, 75
3, 357160, Note_off_c, 1, 72, 64
3, 357160, Note_off_c, 1, 69, 64
3, 359640, Note_on_c, 1, 74, 75
3, 359640, Note_on_c, 1, 77, 75
3, 359875, Note_off_c, 1, 77, 64
3, 359875, Note_off_c, 1, 74, 64
3, 366480, Note_on_c, 1, 72, 75
3, 366480, Note_on_c, 1, 76, 75
3, 366715, Note_off_c, 1, 76, 64
3, 366715, Note_off_c, 1, 72, 64
3, 370680, Note_on_c, 1, 65, 60
3, 370680, Note_on_c, 1, 69, 60
3, 370920, Note_off_c, 1, 69, 64
3, 370920, Note_off_c, 1, 65, 64
3, 370920, Note_on_c, 1, 67, 61
3, 370920, Note_on_c, 1, 70, 61
3, 371160, Note_off_c, 1, 70, 64
3, 371160, Note_off_c, 1, 67, 64
3, 371160, Note_on_c, 1, 69, 62
3, 371160, Note_on_c, 1, 72, 62
3, 371395, Note_off_c, 1, 72, 64
3, 371395, Note_off_c, 1, 69, 64
3, 371400, Note_on_c, 1, 70, 63
3, 371400, Note_on_c, 1, 74, 63
3, 371635, Note_off_c, 1, 74, 64
3, 371635, Note_off_c, 1, 70, 64
3, 374280, Note_on_c, 1, 77, 75
3, 374280, Note_on_c, 1, 81, 75
3, 374515, Note_off_c, 1, 81, 64
3, 374515, Note_off_c, 1, 77, 64
3, 374760, Note_on_c, 1, 72, 75
3, 374760, Note_on_c, 1, 77, 75
3, 374995, Note_off_c, 1, 77, 64
3, 374995, Note_off_c, 1, 72, 64
3, 375240, Note_on_c, 1, 74, 75
3, 375240, Note_on_c, 1, 77, 75
3, 375475, Note_off_c, 1, 77, 64
3, 375475, Note_off_c, 1, 74, 64
3, 375720, Note_on_c, 1, 70, 75
3, 375720, Note_on_c, 1, 74, 75
3, 375955, Note_off_c, 1, 74, 64
3, 375955, Note_off_c, 1, 70, 64
3, 376200, Note_on_c, 1, 69, 75
3, 376200, Note_on_c, 1, 72, 75
3, 376435, Note_off_c, 1, 72, 64
3, 376435, Note_off_c, 1, 69, 64
3, 376680, Note_on_c, 1, 69, 75
3, 376680, Note_on_c, 1, 77, 75
3, 376915, Note_off_c, 1, 77, 64
3, 376915, Note_off_c, 1, 69, 64
3, 377160, Note_on_c, 1, 67, 75
3, 377160, Note_on_c, 1, 76, 75
3, 377395, Note_off_c, 1, 76, 64
3, 377395, Note_off_c, 1, 67, 64
3, 377640, Note_on_c, 1, 67, 75
3, 377640, Note_on_c, 1, 76, 75
3, 377875, Note_off_c, 1, 76, 64
3, 377875, Note_off_c, 1, 67, 64
3, 378120, Note_on_c, 1, 69, 60
3, 378120, Note_on_c, 1, 77, 60
3, 378600, Note_off_c, 1, 77, 64
3, 378600, Note_off_c, 1, 69, 64
3, 378600, Note_on_c, 1, 72, 60
3, 379920, Note_off_c, 1, 72, 64
3, 380040, Note_on_c, 1, 81, 60
3, 380520, Note_off_c, 1, 81, 64
3, 380520, Note_on_c, 1, 77, 60
3, 381840, Note_off_c, 1, 77, 64
3, 381960, Note_on_c, 1, 77, 60
3, 382440, Note_off_c, 1, 77, 64
3, 382440, Note_on_c, 1, 72, 60
3, 383760, Note_off_c, 1, 72, 64
3, 383880, Note_on_c, 1, 81, 60
3, 384360, Note_off_c, 1, 81, 64
3, 384360, Note_on_c, 1, 77, 60
3, 386280, Note_off_c, 1, 77, 64
3, 386280, Note_on_c, 1, 72, 30
3, 386760, Note_off_c, 1, 72, 64
3, 386760, Note_on_c, 1, 77, 30
3, 387240, Note_off_c, 1, 77, 64
3, 387240, Note_on_c, 1, 72, 30
3, 387720, Note_off_c, 1, 72, 64
3, 387720, Note_on_c, 1, 77, 30
3, 388200, Note_off_c, 1, 77, 64
3, 388200, Note_on_c, 1, 72, 30
3, 388680, Note_off_c, 1, 72, 64
3, 388680, Note_on_c, 1, 77, 30
3, 389160, Note_off_c, 1, 77, 64
3, 389160, Note_on_c, 1, 72, 30
3, 389640, Note_off_c, 1, 72, 64
3, 389640, Note_on_c, 1, 77, 30
3, 390040, Note_off_c, 1, 77, 64
3, 401280, Note_on_c, 1, 69, 30
3, 401280, Note_on_c, 1, 75, 30
3, 403080, Note_off_c, 1, 75, 64
3, 403080, Note_off_c, 1, 69, 64
3, 403200, Note_on_c, 1, 69, 30
3, 403200, Note_on_c, 1, 75, 30
3, 405000, Note_off_c, 1, 75, 64
3, 405000, Note_off_c, 1, 69, 64
3, 408960, Note_on_c, 1, 82, 45
3, 409040, Note_off_c, 1, 82, 64
3, 409200, Note_on_c, 1, 81, 45
3, 409280, Note_off_c, 1, 81, 64
3, 409440, Note_on_c, 1, 82, 45
3, 409920, Note_off_c, 1, 82, 64
3, 409920, Note_on_c, 1, 81, 45
3, 410000, Note_off_c, 1, 81, 64
3, 410160, Note_on_c, 1, 82, 45
3, 410240, Note_off_c, 1, 82, 64
3, 410400, Note_on_c, 1, 81, 45
3, 410880, Note_off_c, 1, 81, 64
3, 410880, Note_on_c, 1, 82, 45
3, 410960, Note_off_c, 1, 82, 64
3, 420480, Note_on_c, 1, 76, 60
3, 421120, Note_off_c, 1, 76, 64
3, 421120, Note_on_c, 1, 77, 64
3, 421280, Note_off_c, 1, 77, 64
3, 421280, Note_on_c, 1, 79, 65
3, 421435, Note_off_c, 1, 79, 64
3, 421440, Note_on_c, 1, 72, 66
3, 422080, Note_off_c, 1, 72, 64
3, 422080, Note_on_c, 1, 74, 71
3, 422240, Note_off_c, 1, 74, 64
3, 422240, Note_on_c, 1, 76, 73
3, 422395, Note_off_c, 1, 76, 64
3, 422400, Note_on_c, 1, 77, 75
3, 422880, Note_off_c, 1, 77, 64
3, 422880, Note_on_c, 1, 72, 75
3, 424200, Note_off_c, 1, 72, 64
3, 424320, Note_on_c, 1, 81, 75
3, 424800, Note_off_c, 1, 81, 64
3, 424800, Note_on_c, 1, 77, 75
3, 426120, Note_off_c, 1, 77, 64
3, 426240, Note_on_c, 1, 77, 75
3, 426720, Note_off_c, 1, 77, 64
3, 426720, Note_on_c, 1, 72, 75
3, 428040, Note_off_c, 1, 72, 64
3, 428160, Note_on_c, 1, 81, 75
3, 428640, Note_off_c, 1, 81, 64
3, 428640, Note_on_c, 1, 77, 75
3, 429960, Note_off_c, 1, 77, 64
3, 430080, Note_on_c, 1, 81, 75
3, 430560, Note_off_c, 1, 81, 64
3, 430560, Note_on_c, 1, 77, 75
3, 430960, Note_off_c, 1, 77, 64
3, 431040, Note_on_c, 1, 81, 75
3, 431520, Note_off_c, 1, 81, 64
3, 431520, Note_on_c, 1, 77, 75
3, 431920, Note_off_c, 1, 77, 64
3, 432000, Note_on_c, 1, 84, 75
3, 432480, Note_off_c, 1, 84, 64
3, 432480, Note_on_c, 1, 77, 75
3, 432880, Note_off_c, 1, 77, 64
3, 432960, Note_on_c, 1, 79, 75
3, 433440, Note_off_c, 1, 79, 64
3, 433440, Note_on_c, 1, 76, 75
3, 433840, Note_off_c, 1, 76, 64
3, 433920, Note_on_c, 1, 81, 75
3, 434400, Note_off_c, 1, 81, 64
3, 434400, Note_on_c, 1, 77, 75
3, 434800, Note_off_c, 1, 77, 64
3, 434880, Note_on_c, 1, 81, 75
3, 435360, Note_off_c, 1, 81, 64
3, 435360, Note_on_c, 1, 77, 75
3, 435760, Note_off_c, 1, 77, 64
3, 435840, Note_on_c, 1, 84, 75
3, 436320, Note_off_c, 1, 84, 64
3, 436320, Note_on_c, 1, 77, 75
3, 436720, Note_off_c, 1, 77, 64
3, 436800, Note_on_c, 1, 79, 75
3, 437280, Note_off_c, 1, 79, 64
3, 437280, Note_on_c, 1, 76, 75
3, 437680, Note_off_c, 1, 76, 64
3, 437760, Note_on_c, 1, 81, 75
3, 438240, Note_off_c, 1, 81, 64
3, 438240, Note_on_c, 1, 77, 75
3, 438640, Note_off_c, 1, 77, 64
3, 438720, Note_on_c, 1, 81, 75
3, 439200, Note_off_c, 1, 81, 64
3, 439200, Note_on_c, 1, 77, 75
3, 439600, Note_off_c, 1, 77, 64
3, 439680, Note_on_c, 1, 77, 75
3, 439680, Note_on_c, 1, 81, 75
3, 441835, Note_off_c, 1, 81, 64
3, 441835, Note_off_c, 1, 77, 64
3, 451200, Note_on_c, 1, 79, 60
3, 451200, Note_on_c, 1, 82, 60
3, 452040, Note_off_c, 1, 82, 64
3, 452040, Note_off_c, 1, 79, 64
3, 452160, Note_on_c, 1, 77, 60
3, 452160, Note_on_c, 1, 81, 60
3, 452395, Note_off_c, 1, 81, 64
3, 452395, Note_off_c, 1, 77, 64
3, 452640, Note_on_c, 1, 76, 60
3, 452640, Note_on_c, 1, 79, 60
3, 452875, Note_off_c, 1, 79, 64
3, 452875, Note_off_c, 1, 76, 64
3, 455040, Note_on_c, 1, 79, 60
3, 455040, Note_on_c, 1, 82, 60
3, 455880, Note_off_c, 1, 82, 64
3, 455880, Note_off_c, 1, 79, 64
3, 456000, Note_on_c, 1, 77, 60
3, 456000, Note_on_c, 1, 81, 60
3, 456235, Note_off_c, 1, 81, 64
3, 456235, Note_off_c, 1, 77, 64
3, 456480, Note_on_c, 1, 76, 60
3, 456480, Note_on_c, 1, 79, 60
3, 456715, Note_off_c, 1, 79, 64
3, 456715, Note_off_c, 1, 76, 64
3, 456960, Note_on_c, 1, 69, 60
3, 456960, Note_on_c, 1, 77, 60
3, 457195, Note_off_c, 1, 77, 64
3, 457195, Note_off_c, 1, 69, 64
3, 459840, Note_on_c, 1, 79, 75
3, 459840, Note_on_c, 1, 82, 75
3, 460480, Note_off_c, 1, 82, 64
3, 460480, Note_off_c, 1, 79, 64
3, 460560, Note_on_c, 1, 79, 75
3, 460560, Note_on_c, 1, 82, 75
3, 460795, Note_off_c, 1, 82, 64
3, 460795, Note_off_c, 1, 79, 64
3, 460800, Note_on_c, 1, 77, 75
3, 460800, Note_on_c, 1, 81, 75
3, 461035, Note_off_c, 1, 81, 64
3, 461035, Note_off_c, 1, 77, 64
3, 463680, Note_on_c, 1, 79, 75
3, 463680, Note_on_c, 1, 82, 75
3, 464320, Note_off_c, 1, 82, 64
3, 464320, Note_off_c, 1, 79, 64
3, 464400, Note_on_c, 1, 79, 75
3, 464400, Note_on_c, 1, 82, 75
3, 464635, Note_off_c, 1, 82, 64
3, 464635, Note_off_c, 1, 79, 64
3, 464640, Note_on_c, 1, 77, 75
3, 464640, Note_on_c, 1, 81, 75
3, 464875, Note_off_c, 1, 81, 64
3, 464875, Note_off_c, 1, 77, 64
3, 465600, Note_on_c, 1, 79, 75
3, 465600, Note_on_c, 1, 82, 75
3, 466240, Note_off_c, 1, 82, 64
3, 466240, Note_off_c, 1, 79, 64
3, 466320, Note_on_c, 1, 79, 75
3, 466320, Note_on_c, 1, 82, 75
3, 466555, Note_off_c, 1, 82, 64
3, 466555, Note_off_c, 1, 79, 64
3, 466560, Note_on_c, 1, 77, 75
3, 466560, Note_on_c, 1, 81, 75
3, 466795, Note_off_c, 1, 81, 64
3, 466795, Note_off_c, 1, 77, 64
3, 467520, Note_on_c, 1, 79, 75
3, 467520, Note_on_c, 1, 82, 75
3, 468160, Note_off_c, 1, 82, 64
3, 468160, Note_off_c, 1, 79, 64
3, 468240, Note_on_c, 1, 79, 75
3, 468240, Note_on_c, 1, 82, 75
3, 468475, Note_off_c, 1, 82, 64
3, 468475, Note_off_c, 1, 79, 64
3, 468480, Note_on_c, 1, 77, 75
3, 468480, Note_on_c, 1, 81, 75
3, 468715, Note_off_c, 1, 81, 64
3, 468715, Note_off_c, 1, 77, 64
3, 469440, Note_on_c, 1, 77, 75
3, 469440, Note_on_c, 1, 81, 75
3, 469675, Note_off_c, 1, 81, 64
3, 469675, Note_off_c, 1, 77, 64
3, 470400, Note_on_c, 1, 77, 60
3, 470400, Note_on_c, 1, 81, 60
3, 470635, Note_off_c, 1, 81, 64
3, 470635, Note_off_c, 1, 77, 64
3, 471360, Note_on_c, 1, 77, 45
3, 471360, Note_on_c, 1, 81, 45
3, 471595, Note_off_c, 1, 81, 64
3, 471595, Note_off_c, 1, 77, 64
3, 472320, Note_on_c, 1, 77, 30
3, 472320, Note_on_c, 1, 81, 30
3, 472555, Note_off_c, 1, 81, 64
3, 472555, Note_off_c, 1, 77, 64
3, 485040, Note_on_c, 1, 70, 75
3, 485040, Note_on_c, 1, 82, 75
3, 485120, Note_off_c, 1, 82, 64
3, 485120, Note_off_c, 1, 70, 64
3, 485280, Note_on_c, 1, 72, 75
3, 485280, Note_on_c, 1, 84, 75
3, 485360, Note_off_c, 1, 84, 64
3, 485360, Note_off_c, 1, 72, 64
3, 485520, Note_on_c, 1, 74, 75
3, 485520, Note_on_c, 1, 86, 75
3, 485600, Note_off_c, 1, 86, 64
3, 485600, Note_off_c, 1, 74, 64
3, 485760, Note_on_c, 1, 76, 75
3, 485840, Note_off_c, 1, 76, 64
3, 486000, Note_on_c, 1, 77, 75
3, 486840, Note_off_c, 1, 77, 64
3, 486960, Note_on_c, 1, 76, 75
3, 486960, Note_on_c, 1, 79, 75
3, 487800, Note_off_c, 1, 79, 64
3, 487800, Note_off_c, 1, 76, 64
3, 487920, Note_on_c, 1, 77, 75
3, 487920, Note_on_c, 1, 81, 75
3, 488760, Note_off_c, 1, 81, 64
3, 488760, Note_off_c, 1, 77, 64
3, 488880, Note_on_c, 1, 77, 68
3, 488880, Note_on_c, 1, 81, 68
3, 489360, Note_off_c, 1, 81, 64
3, 489360, Note_off_c, 1, 77, 64
3, 489360, Note_on_c, 1, 77, 64
3, 489360, Note_on_c, 1, 81, 64
3, 489840, Note_off_c, 1, 81, 64
3, 489840, Note_off_c, 1, 77, 64
3, 489840, Note_on_c, 1, 77, 60
3, 489840, Note_on_c, 1, 81, 60
3, 490680, Note_off_c, 1, 81, 64
3, 490680, Note_off_c, 1, 77, 64
3, 490800, Note_on_c, 1, 72, 45
3, 490800, Note_on_c, 1, 81, 45
3, 491640, Note_off_c, 1, 81, 64
3, 491640, Note_off_c, 1, 72, 64
3, 491760, Note_on_c, 1, 72, 45
3, 491760, Note_on_c, 1, 81, 45
3, 492600, Note_off_c, 1, 81, 64
3, 492600, Note_off_c, 1, 72, 64
3, 514320, Note_on_c, 1, 78, 45
3, 514800, Note_off_c, 1, 78, 64
3, 514800, Note_on_c, 1, 79, 45
3, 515280, Note_off_c, 1, 79, 64
3, 515280, Note_on_c, 1, 78, 45
3, 515760, Note_off_c, 1, 78, 64
3, 515760, Note_on_c, 1, 74, 45
3, 516160, Note_off_c, 1, 74, 64
3, 516240, Note_on_c, 1, 74, 45
3, 517120, Note_off_c, 1, 74, 64
3, 517200, Note_on_c, 1, 74, 45
3, 517680, Note_off_c, 1, 74, 64
3, 517680, Note_on_c, 1, 73, 45
3, 518160, Note_off_c, 1, 73, 64
3, 518160, Note_on_c, 1, 74, 45
3, 518800, Note_off_c, 1, 74, 64
3, 537360, Note_on_c, 1, 78, 45
3, 537840, Note_off_c, 1, 78, 64
3, 537840, Note_on_c, 1, 79, 45
3, 538320, Note_off_c, 1, 79, 64
3, 538320, Note_on_c, 1, 78, 45
3, 538800, Note_off_c, 1, 78, 64
3, 538800, Note_on_c, 1, 74, 45
3, 539200, Note_off_c, 1, 74, 64
3, 539280, Note_on_c, 1, 74, 45
3, 540160, Note_off_c, 1, 74, 64
3, 540240, Note_on_c, 1, 74, 45
3, 540720, Note_off_c, 1, 74, 64
3, 540720, Note_on_c, 1, 73, 45
3, 541200, Note_off_c, 1, 73, 64
3, 541200, Note_on_c, 1, 74, 45
3, 541840, Note_off_c, 1, 74, 64
3, 545040, Note_on_c, 1, 79, 45
3, 545160, Note_off_c, 1, 79, 64
3, 545520, Note_on_c, 1, 78, 45
3, 545640, Note_off_c, 1, 78, 64
3, 546000, Note_on_c, 1, 74, 45
3, 546120, Note_off_c, 1, 74, 64
3, 546480, Note_on_c, 1, 76, 45
3, 546600, Note_off_c, 1, 76, 64
3, 546960, Note_on_c, 1, 78, 45
3, 547080, Note_off_c, 1, 78, 64
3, 547440, Note_on_c, 1, 74, 45
3, 547560, Note_off_c, 1, 74, 64
3, 553680, Note_on_c, 1, 67, 45
3, 554160, Note_off_c, 1, 67, 64
3, 554160, Note_on_c, 1, 72, 45
3, 555120, Note_off_c, 1, 72, 64
3, 555120, Note_on_c, 1, 76, 45
3, 555600, Note_off_c, 1, 76, 64
3, 555600, Note_on_c, 1, 79, 45
3, 556080, Note_off_c, 1, 79, 64
3, 556080, Note_on_c, 1, 76, 45
3, 556480, Note_off_c, 1, 76, 64
3, 556560, Note_on_c, 1, 76, 45
3, 557040, Note_off_c, 1, 76, 64
3, 557040, Note_on_c, 1, 79, 45
3, 557520, Note_off_c, 1, 79, 64
3, 557520, Note_on_c, 1, 83, 45
3, 558000, Note_off_c, 1, 83, 64
3, 558000, Note_on_c, 1, 84, 45
3, 558240, Note_off_c, 1, 84, 64
3, 558240, Note_on_c, 1, 81, 45
3, 558480, Note_off_c, 1, 81, 64
3, 558480, Note_on_c, 1, 79, 45
3, 559320, Note_off_c, 1, 79, 64
3, 559440, Note_on_c, 1, 83, 45
3, 559920, Note_off_c, 1, 83, 64
3, 559920, Note_on_c, 1, 84, 45
3, 560400, Note_off_c, 1, 84, 64
3, 560400, Note_on_c, 1, 79, 45
3, 560880, Note_off_c, 1, 79, 64
3, 560880, Note_on_c, 1, 77, 45
3, 560880, Note_on_c, 1, 81, 45
3, 561360, Note_off_c, 1, 81, 64
3, 561360, Note_off_c, 1, 77, 64
3, 561360, Note_on_c, 1, 76, 45
3, 561360, Note_on_c, 1, 79, 45
3, 561840, Note_off_c, 1, 79, 64
3, 561840, Note_off_c, 1, 76, 64
3, 561840, Note_on_c, 1, 72, 45
3, 561840, Note_on_c, 1, 76, 45
3, 562320, Note_off_c, 1, 76, 64
3, 562320, Note_off_c, 1, 72, 64
3, 562320, Note_on_c, 1, 72, 45
3, 562320, Note_on_c, 1, 77, 45
3, 562800, Note_off_c, 1, 77, 64
3, 562800, Note_off_c, 1, 72, 64
3, 562800, Note_on_c, 1, 72, 45
3, 562800, Note_on_c, 1, 76, 45
3, 563280, Note_off_c, 1, 76, 64
3, 563280, Note_off_c, 1, 72, 64
3, 563280, Note_on_c, 1, 67, 45
3, 563280, Note_on_c, 1, 72, 45
3, 563760, Note_off_c, 1, 72, 64
3, 563760, Note_off_c, 1, 67, 64
3, 563760, Note_on_c, 1, 71, 45
3, 563760, Note_on_c, 1, 74, 45
3, 564240, Note_off_c, 1, 74, 64
3, 564240, Note_off_c, 1, 71, 64
3, 564240, Note_on_c, 1, 72, 45
3, 564240, Note_on_c, 1, 76, 45
3, 564720, Note_off_c, 1, 76, 64
3, 564720, Note_off_c, 1, 72, 64
3, 564720, Note_on_c, 1, 64, 47
3, 564720, Note_on_c, 1, 72, 47
3, 565120, Note_off_c, 1, 72, 64
3, 565120, Note_off_c, 1, 64, 64
3, 568080, Note_on_c, 1, 72, 61
3, 568480, Note_off_c, 1, 72, 64
3, 568560, Note_on_c, 1, 72, 63
3, 568960, Note_off_c, 1, 72, 64
3, 569040, Note_on_c, 1, 72, 65
3, 569440, Note_off_c, 1, 72, 64
3, 569520, Note_on_c, 1, 72, 67
3, 569920, Note_off_c, 1, 72, 64
3, 570000, Note_on_c, 1, 72, 69
3, 570400, Note_off_c, 1, 72, 64
3, 570480, Note_on_c, 1, 72, 72
3, 570880, Note_off_c, 1, 72, 64
3, 570960, Note_on_c, 1, 72, 75
3, 571360, Note_off_c, 1, 72, 64
3, 571440, Note_on_c, 1, 77, 75
3, 571840, Note_off_c, 1, 77, 64
3, 571920, Note_on_c, 1, 72, 75
3, 572320, Note_off_c, 1, 72, 64
3, 572400, Note_on_c, 1, 74, 75
3, 572800, Note_off_c, 1, 74, 64
3, 572880, Note_on_c, 1, 72, 75
3, 573280, Note_off_c, 1, 72, 64
3, 573360, Note_on_c, 1, 69, 75
3, 573360, Note_on_c, 1, 81, 75
3, 573760, Note_off_c, 1, 81, 64
3, 573760, Note_off_c, 1, 69, 64
3, 573840, Note_on_c, 1, 70, 75
3, 573840, Note_on_c, 1, 82, 75
3, 574240, Note_off_c, 1, 82, 64
3, 574240, Note_off_c, 1, 70, 64
3, 574320, Note_on_c, 1, 69, 75
3, 574320, Note_on_c, 1, 81, 75
3, 574720, Note_off_c, 1, 81, 64
3, 574720, Note_off_c, 1, 69, 64
3, 574800, Note_on_c, 1, 65, 75
3, 574800, Note_on_c, 1, 77, 75
3, 575200, Note_off_c, 1, 77, 64
3, 575200, Note_off_c, 1, 65, 64
3, 575280, Note_on_c, 1, 67, 75
3, 575280, Note_on_c, 1, 79, 75
3, 575680, Note_off_c, 1, 79, 64
3, 575680, Note_off_c, 1, 67, 64
3, 575760, Note_on_c, 1, 69, 75
3, 575760, Note_on_c, 1, 81, 75
3, 576160, Note_off_c, 1, 81, 64
3, 576160, Note_off_c, 1, 69, 64
3, 576240, Note_on_c, 1, 65, 75
3, 576240, Note_on_c, 1, 77, 75
3, 576640, Note_off_c, 1, 77, 64
3, 576640, Note_off_c, 1, 65, 64
3, 576720, Note_on_c, 1, 67, 75
3, 576720, Note_on_c, 1, 79, 75
3, 577120, Note_off_c, 1, 79, 64
3, 577120, Note_off_c, 1, 67, 64
3, 577200, Note_on_c, 1, 69, 75
3, 577200, Note_on_c, 1, 81, 75
3, 577600, Note_off_c, 1, 81, 64
3, 577600, Note_off_c, 1, 69, 64
3, 577680, Note_on_c, 1, 65, 75
3, 577680, Note_on_c, 1, 77, 75
3, 578080, Note_off_c, 1, 77, 64
3, 578080, Note_off_c, 1, 65, 64
3, 578160, Note_on_c, 1, 67, 75
3, 578160, Note_on_c, 1, 79, 75
3, 578560, Note_off_c, 1, 79, 64
3, 578560, Note_off_c, 1, 67, 64
3, 578640, Note_on_c, 1, 69, 75
3, 578640, Note_on_c, 1, 81, 75
3, 579040, Note_off_c, 1, 81, 64
3, 579040, Note_off_c, 1, 69, 64
3, 579120, Note_on_c, 1, 65, 75
3, 579120, Note_on_c, 1, 77, 75
3, 579520, Note_off_c, 1, 77, 64
3, 579520, Note_off_c, 1, 65, 64
3, 579600, Note_on_c, 1, 67, 75
3, 579600, Note_on_c, 1, 79, 75
3, 580000, Note_off_c, 1, 79, 64
3, 580000, Note_off_c, 1, 67, 64
3, 580080, Note_on_c, 1, 69, 75
3, 580080, Note_on_c, 1, 81, 75
3, 581400, Note_off_c, 1, 81, 64
3, 581400, Note_off_c, 1, 69, 64
3, 581520, Note_on_c, 1, 79, 75
3, 581580, Note_off_c, 1, 79, 64
3, 581580, Note_on_c, 1, 81, 75
3, 581640, Note_off_c, 1, 81, 64
3, 581640, Note_on_c, 1, 67, 75
3, 581640, Note_on_c, 1, 79, 75
3, 582400, Note_off_c, 1, 79, 64
3, 582400, Note_off_c, 1, 67, 64
3, 582480, Note_on_c, 1, 65, 75
3, 582480, Note_on_c, 1, 77, 75
3, 582880, Note_off_c, 1, 77, 64
3, 582880, Note_off_c, 1, 65, 64
3, 582960, Note_on_c, 1, 76, 75
3, 583020, Note_off_c, 1, 76, 64
3, 583020, Note_on_c, 1, 77, 75
3, 583080, Note_off_c, 1, 77, 64
3, 583080, Note_on_c, 1, 64, 75
3, 583080, Note_on_c, 1, 76, 75
3, 583840, Note_off_c, 1, 76, 64
3, 583840, Note_off_c, 1, 64, 64
3, 583920, Note_on_c, 1, 62, 75
3, 583920, Note_on_c, 1, 74, 75
3, 584320, Note_off_c, 1, 74, 64
3, 584320, Note_off_c, 1, 62, 64
3, 584400, Note_on_c, 1, 60, 75
3, 584400, Note_on_c, 1, 72, 75
3, 585240, Note_off_c, 1, 72, 64
3, 585240, Note_off_c, 1, 60, 64
3, 585360, Note_on_c, 1, 72, 75
3, 585360, Note_on_c, 1, 76, 75
3, 585760, Note_off_c, 1, 76, 64
3, 585760, Note_off_c, 1, 72, 64
3, 585840, Note_on_c, 1, 72, 75
3, 585840, Note_on_c, 1, 77, 75
3, 587160, Note_off_c, 1, 77, 64
3, 587160, Note_off_c, 1, 72, 64
3, 587280, Note_on_c, 1, 67, 75
3, 587280, Note_on_c, 1, 77, 75
3, 588600, Note_off_c, 1, 77, 64
3, 588600, Note_off_c, 1, 67, 64
3, 588720, Note_on_c, 1, 69, 75
3, 588720, Note_on_c, 1, 77, 75
3, 590040, Note_off_c, 1, 77, 64
3, 590040, Note_off_c, 1, 69, 64
3, 590160, Note_on_c, 1, 72, 75
3, 590160, Note_on_c, 1, 76, 75
3, 591480, Note_off_c, 1, 76, 64
3, 591480, Note_off_c, 1, 72, 64
3, 591600, Note_on_c, 1, 72, 75
3, 591600, Note_on_c, 1, 77, 75
3, 592000, Note_off_c, 1, 77, 64
3, 592000, Note_off_c, 1, 72, 64
3, 592560, Note_on_c, 1, 81, 75
3, 592960, Note_off_c, 1, 81, 64
3, 593040, Note_on_c, 1, 79, 75
3, 593100, Note_off_c, 1, 79, 64
3, 593100, Note_on_c, 1, 81, 75
3, 593160, Note_off_c, 1, 81, 64
3, 593160, Note_on_c, 1, 79, 75
3, 593920, Note_off_c, 1, 79, 64
3, 594000, Note_on_c, 1, 77, 75
3, 594400, Note_off_c, 1, 77, 64
3, 594480, Note_on_c, 1, 76, 75
3, 594540, Note_off_c, 1, 76, 64
3, 594540, Note_on_c, 1, 77, 75
3, 594600, Note_off_c, 1, 77, 64
3, 594600, Note_on_c, 1, 76, 75
3, 595360, Note_off_c, 1, 76, 64
3, 595440, Note_on_c, 1, 74, 75
3, 595840, Note_off_c, 1, 74, 64
3, 595920, Note_on_c, 1, 72, 75
3, 596760, Note_off_c, 1, 72, 64
3, 596880, Note_on_c, 1, 72, 75
3, 596880, Note_on_c, 1, 76, 75
3, 597280, Note_off_c, 1, 76, 64
3, 597280, Note_off_c, 1, 72, 64
3, 597360, Note_on_c, 1, 72, 75
3, 597360, Note_on_c, 1, 77, 75
3, 598680, Note_off_c, 1, 77, 64
3, 598680, Note_off_c, 1, 72, 64
3, 598800, Note_on_c, 1, 77, 75
3, 598800, Note_on_c, 1, 79, 75
3, 600120, Note_off_c, 1, 79, 64
3, 600120, Note_off_c, 1, 77, 64
3, 600240, Note_on_c, 1, 77, 75
3, 600240, Note_on_c, 1, 81, 75
3, 601560, Note_off_c, 1, 81, 64
3, 601560, Note_off_c, 1, 77, 64
3, 601680, Note_on_c, 1, 76, 75
3, 601680, Note_on_c, 1, 79, 75
3, 603000, Note_off_c, 1, 79, 64
3, 603000, Note_off_c, 1, 76, 64
3, 603120, Note_on_c, 1, 77, 75
3, 603120, Note_on_c, 1, 81, 75
3, 603520, Note_off_c, 1, 81, 64
3, 603520, Note_off_c, 1, 77, 64
3, 607440, Note_on_c, 1, 76, 75
3, 607440, Note_on_c, 1, 79, 75
3, 607840, Note_off_c, 1, 79, 64
3, 607840, Note_off_c, 1, 76, 64
3, 607920, Note_on_c, 1, 76, 75
3, 607920, Note_on_c, 1, 79, 75
3, 608320, Note_off_c, 1, 79, 64
3, 608320, Note_off_c, 1, 76, 64
3, 608400, Note_on_c, 1, 76, 75
3, 608400, Note_on_c, 1, 79, 75
3, 608800, Note_off_c, 1, 79, 64
3, 608800, Note_off_c, 1, 76, 64
3, 608880, Note_on_c, 1, 77, 75
3, 608880, Note_on_c, 1, 81, 75
3, 609280, Note_off_c, 1, 81, 64
3, 609280, Note_off_c, 1, 77, 64
3, 613200, Note_on_c, 1, 76, 75
3, 613200, Note_on_c, 1, 79, 75
3, 613600, Note_off_c, 1, 79, 64
3, 613600, Note_off_c, 1, 76, 64
3, 613680, Note_on_c, 1, 76, 75
3, 613680, Note_on_c, 1, 79, 75
3, 614080, Note_off_c, 1, 79, 64
3, 614080, Note_off_c, 1, 76, 64
3, 614160, Note_on_c, 1, 76, 75
3, 614160, Note_on_c, 1, 79, 75
3, 614560, Note_off_c, 1, 79, 64
3, 614560, Note_off_c, 1, 76, 64
3, 614640, Note_on_c, 1, 77, 75
3, 614640, Note_on_c, 1, 81, 75
3, 615040, Note_off_c, 1, 81, 64
3, 615040, Note_off_c, 1, 77, 64
3, 617520, Note_on_c, 1, 77, 75
3, 617520, Note_on_c, 1, 81, 75
3, 617920, Note_off_c, 1, 81, 64
3, 617920, Note_off_c, 1, 77, 64
3, 626640, Note_on_c, 1, 81, 45
3, 626760, Note_off_c, 1, 81, 64
3, 627120, Note_on_c, 1, 84, 45
3, 628000, Note_off_c, 1, 84, 64
3, 628080, Note_on_c, 1, 81, 45
3, 628200, Note_off_c, 1, 81, 64
3, 628560, Note_on_c, 1, 77, 45
3, 629440, Note_off_c, 1, 77, 64
3, 629520, Note_on_c, 1, 76, 45
3, 629760, Note_off_c, 1, 76, 64
3, 629760, Note_on_c, 1, 77, 45
3, 630000, Note_off_c, 1, 77, 64
3, 630000, Note_on_c, 1, 79, 45
3, 630880, Note_off_c, 1, 79, 64
3, 630960, Note_on_c, 1, 77, 45
3, 631440, Note_off_c, 1, 77, 64
3, 631440, Note_on_c, 1, 79, 45
3, 631920, Note_off_c, 1, 79, 64
3, 631920, Note_on_c, 1, 81, 45
3, 632400, Note_off_c, 1, 81, 64
3, 632400, Note_on_c, 1, 79, 45
3, 632880, Note_off_c, 1, 79, 64
3, 632880, Note_on_c, 1, 77, 45
3, 633360, Note_off_c, 1, 77, 64
3, 633360, Note_on_c, 1, 79, 45
3, 633840, Note_off_c, 1, 79, 64
3, 633840, Note_on_c, 1, 81, 45
3, 634320, Note_off_c, 1, 81, 64
3, 634320, Note_on_c, 1, 82, 45
3, 634720, Note_off_c, 1, 82, 64
3, 634800, Note_on_c, 1, 81, 45
3, 635280, Note_off_c, 1, 81, 64
3, 635280, Note_on_c, 1, 82, 45
3, 635760, Note_off_c, 1, 82, 64
3, 635760, Note_on_c, 1, 84, 45
3, 637560, Note_off_c, 1, 84, 64
3, 638160, Note_on_c, 1, 81, 45
3, 638280, Note_off_c, 1, 81, 64
3, 638640, Note_on_c, 1, 84, 45
3, 639520, Note_off_c, 1, 84, 64
3, 639600, Note_on_c, 1, 81, 45
3, 639720, Note_off_c, 1, 81, 64
3, 640080, Note_on_c, 1, 77, 45
3, 640960, Note_off_c, 1, 77, 64
3, 641040, Note_on_c, 1, 76, 45
3, 641280, Note_off_c, 1, 76, 64
3, 641280, Note_on_c, 1, 77, 45
3, 641520, Note_off_c, 1, 77, 64
3, 641520, Note_on_c, 1, 79, 45
3, 642400, Note_off_c, 1, 79, 64
3, 642480, Note_on_c, 1, 81, 45
3, 642960, Note_off_c, 1, 81, 64
3, 642960, Note_on_c, 1, 82, 45
3, 643440, Note_off_c, 1, 82, 64
3, 643440, Note_on_c, 1, 84, 45
3, 643920, Note_off_c, 1, 84, 64
3, 643920, Note_on_c, 1, 82, 45
3, 644400, Note_off_c, 1, 82, 64
3, 644400, Note_on_c, 1, 81, 45
3, 644880, Note_off_c, 1, 81, 64
3, 644880, Note_on_c, 1, 79, 45
3, 645840, Note_off_c, 1, 79, 64
3, 645840, Note_on_c, 1, 81, 45
3, 646320, Note_off_c, 1, 81, 64
3, 646320, Note_on_c, 1, 82, 45
3, 646800, Note_off_c, 1, 82, 64
3, 646800, Note_on_c, 1, 79, 45
3, 647280, Note_off_c, 1, 79, 64
3, 647280, Note_on_c, 1, 81, 45
3, 647760, Note_off_c, 1, 81, 64
3, 647760, Note_on_c, 1, 77, 45
3, 648595, Note_off_c, 1, 77, 64
3, 649680, Note_on_c, 1, 81, 45
3, 649800, Note_off_c, 1, 81, 64
3, 650160, Note_on_c, 1, 84, 45
3, 651040, Note_off_c, 1, 84, 64
3, 651120, Note_on_c, 1, 81, 45
3, 651240, Note_off_c, 1, 81, 64
3, 651600, Note_on_c, 1, 77, 45
3, 652480, Note_off_c, 1, 77, 64
3, 652560, Note_on_c, 1, 76, 45
3, 652800, Note_off_c, 1, 76, 64
3, 652800, Note_on_c, 1, 77, 45
3, 653040, Note_off_c, 1, 77, 64
3, 653040, Note_on_c, 1, 79, 45
3, 653920, Note_off_c, 1, 79, 64
3, 654000, Note_on_c, 1, 77, 45
3, 654480, Note_off_c, 1, 77, 64
3, 654480, Note_on_c, 1, 79, 45
3, 654960, Note_off_c, 1, 79, 64
3, 654960, Note_on_c, 1, 81, 45
3, 655440, Note_off_c, 1, 81, 64
3, 655440, Note_on_c, 1, 79, 45
3, 655920, Note_off_c, 1, 79, 64
3, 655920, Note_on_c, 1, 77, 45
3, 656400, Note_off_c, 1, 77, 64
3, 656400, Note_on_c, 1, 79, 45
3, 656880, Note_off_c, 1, 79, 64
3, 656880, Note_on_c, 1, 81, 45
3, 657360, Note_off_c, 1, 81, 64
3, 657360, Note_on_c, 1, 82, 45
3, 657760, Note_off_c, 1, 82, 64
3, 657840, Note_on_c, 1, 81, 45
3, 658320, Note_off_c, 1, 81, 64
3, 658320, Note_on_c, 1, 82, 45
3, 658800, Note_off_c, 1, 82, 64
3, 658800, Note_on_c, 1, 84, 45
3, 660600, Note_off_c, 1, 84, 64
3, 661200, Note_on_c, 1, 81, 45
3, 661320, Note_off_c, 1, 81, 64
3, 661680, Note_on_c, 1, 84, 45
3, 662560, Note_off_c, 1, 84, 64
3, 662640, Note_on_c, 1, 81, 45
3, 662760, Note_off_c, 1, 81, 64
3, 663120, Note_on_c, 1, 77, 45
3, 664000, Note_off_c, 1, 77, 64
3, 664080, Note_on_c, 1, 76, 45
3, 664320, Note_off_c, 1, 76, 64
3, 664320, Note_on_c, 1, 77, 45
3, 664560, Note_off_c, 1, 77, 64
3, 664560, Note_on_c, 1, 79, 45
3, 665440, Note_off_c, 1, 79, 64
3, 665520, Note_on_c, 1, 81, 45
3, 666000, Note_off_c, 1, 81, 64
3, 666000, Note_on_c, 1, 82, 45
3, 666480, Note_off_c, 1, 82, 64
3, 666480, Note_on_c, 1, 84, 45
3, 666960, Note_off_c, 1, 84, 64
3, 666960, Note_on_c, 1, 82, 45
3, 667440, Note_off_c, 1, 82, 64
3, 667440, Note_on_c, 1, 81, 45
3, 667920, Note_off_c, 1, 81, 64
3, 667920, Note_on_c, 1, 79, 45
3, 668880, Note_off_c, 1, 79, 64
3, 668880, Note_on_c, 1, 81, 45
3, 669360, Note_off_c, 1, 81, 64
3, 669360, Note_on_c, 1, 82, 45
3, 669840, Note_off_c, 1, 82, 64
3, 669840, Note_on_c, 1, 79, 45
3, 670320, Note_off_c, 1, 79, 64
3, 670320, Note_on_c, 1, 81, 45
3, 670800, Note_off_c, 1, 81, 64
3, 670800, Note_on_c, 1, 77, 45
3, 671520, Note_off_c, 1, 77, 64
3, 698640, Note_on_c, 1, 81, 45
3, 698760, Note_off_c, 1, 81, 64
3, 699120, Note_on_c, 1, 84, 45
3, 700000, Note_off_c, 1, 84, 64
3, 700080, Note_on_c, 1, 81, 45
3, 700200, Note_off_c, 1, 81, 64
3, 700560, Note_on_c, 1, 77, 45
3, 700680, Note_off_c, 1, 77, 64
3, 701040, Note_on_c, 1, 79, 45
3, 701160, Note_off_c, 1, 79, 64
3, 701520, Note_on_c, 1, 72, 45
3, 701640, Note_off_c, 1, 72, 64
3, 702000, Note_on_c, 1, 79, 45
3, 702880, Note_off_c, 1, 79, 64
3, 702960, Note_on_c, 1, 76, 45
3, 703080, Note_off_c, 1, 76, 64
3, 703440, Note_on_c, 1, 79, 45
3, 703560, Note_off_c, 1, 79, 64
3, 703920, Note_on_c, 1, 81, 45
3, 704640, Note_off_c, 1, 81, 64
3, 710160, Note_on_c, 1, 81, 45
3, 710640, Note_off_c, 1, 81, 64
3, 710640, Note_on_c, 1, 82, 45
3, 711120, Note_off_c, 1, 82, 64
3, 711120, Note_on_c, 1, 84, 45
3, 711600, Note_off_c, 1, 84, 64
3, 711600, Note_on_c, 1, 82, 45
3, 712080, Note_off_c, 1, 82, 64
3, 712080, Note_on_c, 1, 81, 45
3, 712560, Note_off_c, 1, 81, 64
3, 712560, Note_on_c, 1, 79, 45
3, 713400, Note_off_c, 1, 79, 64
3, 713520, Note_on_c, 1, 81, 45
3, 714000, Note_off_c, 1, 81, 64
3, 714000, Note_on_c, 1, 82, 45
3, 714480, Note_off_c, 1, 82, 64
3, 714480, Note_on_c, 1, 79, 45
3, 714960, Note_off_c, 1, 79, 64
3, 714960, Note_on_c, 1, 81, 45
3, 715440, Note_off_c, 1, 81, 64
3, 715440, Note_on_c, 1, 77, 45
3, 715840, Note_off_c, 1, 77, 64
3, 716880, Note_on_c, 1, 81, 45
3, 717360, Note_off_c, 1, 81, 64
3, 717360, Note_on_c, 1, 84, 45
3, 717840, Note_off_c, 1, 84, 64
3, 717840, Note_on_c, 1, 82, 45
3, 718240, Note_off_c, 1, 82, 64
3, 719760, Note_on_c, 1, 79, 45
3, 720240, Note_off_c, 1, 79, 64
3, 720240, Note_on_c, 1, 82, 45
3, 720720, Note_off_c, 1, 82, 64
3, 720720, Note_on_c, 1, 81, 45
3, 721120, Note_off_c, 1, 81, 64
3, 721200, Note_on_c, 1, 77, 45
3, 722520, Note_off_c, 1, 77, 64
3, 722640, Note_on_c, 1, 84, 48
3, 726840, Note_off_c, 1, 84, 64
3, 726960, Note_on_c, 1, 81, 60
3, 727360, Note_off_c, 1, 81, 64
3, 732720, Note_on_c, 1, 72, 60
3, 732720, Note_on_c, 1, 77, 60
3, 733560, Note_off_c, 1, 77, 64
3, 733560, Note_off_c, 1, 72, 64
3, 733680, Note_on_c, 1, 72, 60
3, 733680, Note_on_c, 1, 77, 60
3, 734520, Note_off_c, 1, 77, 64
3, 734520, Note_off_c, 1, 72, 64
3, 734640, Note_on_c, 1, 74, 60
3, 734640, Note_on_c, 1, 77, 60
3, 735480, Note_off_c, 1, 77, 64
3, 735480, Note_off_c, 1, 74, 64
3, 735600, Note_on_c, 1, 72, 60
3, 735600, Note_on_c, 1, 77, 60
3, 736080, Note_off_c, 1, 72, 64
3, 736080, Note_on_c, 1, 74, 60
3, 736440, Note_off_c, 1, 77, 64
3, 736480, Note_off_c, 1, 74, 64
3, 736560, Note_on_c, 1, 72, 60
3, 736560, Note_on_c, 1, 77, 60
3, 737400, Note_off_c, 1, 77, 64
3, 737400, Note_off_c, 1, 72, 64
3, 737520, Note_on_c, 1, 72, 60
3, 737520, Note_on_c, 1, 77, 60
3, 738360, Note_off_c, 1, 77, 64
3, 738360, Note_off_c, 1, 72, 64
3, 738480, Note_on_c, 1, 74, 60
3, 738480, Note_on_c, 1, 77, 60
3, 739320, Note_off_c, 1, 77, 64
3, 739320, Note_off_c, 1, 74, 64
3, 739440, Note_on_c, 1, 72, 60
3, 739440, Note_on_c, 1, 77, 60
3, 739920, Note_off_c, 1, 72, 64
3, 739920, Note_on_c, 1, 74, 60
3, 740280, Note_off_c, 1, 77, 64
3, 740320, Note_off_c, 1, 74, 64
3, 740400, Note_on_c, 1, 72, 60
3, 740400, Note_on_c, 1, 77, 60
3, 741240, Note_off_c, 1, 77, 64
3, 741240, Note_off_c, 1, 72, 64
3, 741360, Note_on_c, 1, 72, 60
3, 741360, Note_on_c, 1, 77, 60
3, 742200, Note_off_c, 1, 77, 64
3, 742200, Note_off_c, 1, 72, 64
3, 742320, Note_on_c, 1, 74, 60
3, 742320, Note_on_c, 1, 77, 60
3, 743160, Note_off_c, 1, 77, 64
3, 743160, Note_off_c, 1, 74, 64
3, 743280, Note_on_c, 1, 72, 60
3, 743280, Note_on_c, 1, 77, 60
3, 743760, Note_off_c, 1, 72, 64
3, 743760, Note_on_c, 1, 74, 60
3, 744120, Note_off_c, 1, 77, 64
3, 744160, Note_off_c, 1, 74, 64
3, 744240, Note_on_c, 1, 72, 60
3, 744240, Note_on_c, 1, 77, 60
3, 745080, Note_off_c, 1, 77, 64
3, 745080, Note_off_c, 1, 72, 64
3, 745200, Note_on_c, 1, 72, 60
3, 745200, Note_on_c, 1, 77, 60
3, 746040, Note_off_c, 1, 77, 64
3, 746040, Note_off_c, 1, 72, 64
3, 746160, Note_on_c, 1, 74, 60
3, 746160, Note_on_c, 1, 77, 60
3, 747000, Note_off_c, 1, 77, 64
3, 747000, Note_off_c, 1, 74, 64
3, 747120, Note_on_c, 1, 72, 60
3, 747120, Note_on_c, 1, 77, 60
3, 747600, Note_off_c, 1, 72, 64
3, 747600, Note_on_c, 1, 74, 60
3, 747960, Note_off_c, 1, 77, 64
3, 748000, Note_off_c, 1, 74, 64
3, 750000, Note_on_c, 1, 77, 60
3, 750000, Note_on_c, 1, 81, 60
3, 750840, Note_off_c, 1, 81, 64
3, 750840, Note_off_c, 1, 77, 64
3, 750960, Note_on_c, 1, 76, 60
3, 750960, Note_on_c, 1, 79, 60
3, 751440, Note_off_c, 1, 79, 64
3, 751440, Note_off_c, 1, 76, 64
3, 751440, Note_on_c, 1, 77, 60
3, 751440, Note_on_c, 1, 81, 60
3, 751840, Note_off_c, 1, 81, 64
3, 751840, Note_off_c, 1, 77, 64
3, 753840, Note_on_c, 1, 77, 60
3, 753840, Note_on_c, 1, 81, 60
3, 754680, Note_off_c, 1, 81, 64
3, 754680, Note_off_c, 1, 77, 64
3, 754800, Note_on_c, 1, 76, 60
3, 754800, Note_on_c, 1, 79, 60
3, 755280, Note_off_c, 1, 79, 64
3, 755280, Note_off_c, 1, 76, 64
3, 755280, Note_on_c, 1, 77, 60
3, 755280, Note_on_c, 1, 81, 60
3, 755680, Note_off_c, 1, 81, 64
3, 755680, Note_off_c, 1, 77, 64
3, 755760, Note_on_c, 1, 64, 60
3, 755760, Note_on_c, 1, 72, 60
3, 756240, Note_off_c, 1, 72, 64
3, 756240, Note_off_c, 1, 64, 64
3, 756240, Note_on_c, 1, 74, 60
3, 756240, Note_on_c, 1, 77, 60
3, 756720, Note_off_c, 1, 77, 64
3, 756720, Note_off_c, 1, 74, 64
3, 756720, Note_on_c, 1, 72, 60
3, 756720, Note_on_c, 1, 76, 60
3, 757360, Note_off_c, 1, 76, 64
3, 757360, Note_off_c, 1, 72, 64
3, 757440, Note_on_c, 1, 74, 60
3, 757440, Note_on_c, 1, 77, 60
3, 757675, Note_off_c, 1, 77, 64
3, 757675, Note_off_c, 1, 74, 64
3, 757680, Note_on_c, 1, 76, 60
3, 757680, Note_on_c, 1, 79, 60
3, 757915, Note_off_c, 1, 79, 64
3, 757915, Note_off_c, 1, 76, 64
3, 758160, Note_on_c, 1, 74, 60
3, 758160, Note_on_c, 1, 77, 60
3, 758395, Note_off_c, 1, 77, 64
3, 758395, Note_off_c, 1, 74, 64
3, 758640, Note_on_c, 1, 72, 60
3, 758640, Note_on_c, 1, 76, 60
3, 758875, Note_off_c, 1, 76, 64
3, 758875, Note_off_c, 1, 72, 64
3, 759120, Note_on_c, 1, 71, 60
3, 759120, Note_on_c, 1, 74, 60
3, 759355, Note_off_c, 1, 74, 64
3, 759355, Note_off_c, 1, 71, 64
3, 759600, Note_on_c, 1, 64, 60
3, 759600, Note_on_c, 1, 72, 60
3, 759680, Note_off_c, 1, 72, 64
3, 759680, Note_off_c, 1, 64, 64
3, 759840, Note_on_c, 1, 64, 60
3, 759840, Note_on_c, 1, 72, 60
3, 759920, Note_off_c, 1, 72, 64
3, 759920, Note_off_c, 1, 64, 64
3, 760080, Note_on_c, 1, 74, 60
3, 760080, Note_on_c, 1, 77, 60
3, 760160, Note_off_c, 1, 77, 64
3, 760160, Note_off_c, 1, 74, 64
3, 760320, Note_on_c, 1, 74, 60
3, 760320, Note_on_c, 1, 77, 60
3, 760400, Note_off_c, 1, 77, 64
3, 760400, Note_off_c, 1, 74, 64
3, 760560, Note_on_c, 1, 72, 60
3, 760560, Note_on_c, 1, 76, 60
3, 760640, Note_off_c, 1, 76, 64
3, 760640, Note_off_c, 1, 72, 64
3, 760800, Note_on_c, 1, 72, 60
3, 760800, Note_on_c, 1, 76, 60
3, 760880, Note_off_c, 1, 76, 64
3, 760880, Note_off_c, 1, 72, 64
3, 761280, Note_on_c, 1, 77, 60
3, 761280, Note_on_c, 1, 81, 60
3, 761515, Note_off_c, 1, 81, 64
3, 761515, Note_off_c, 1, 77, 64
3, 761760, Note_on_c, 1, 76, 60
3, 761760, Note_on_c, 1, 79, 60
3, 761995, Note_off_c, 1, 79, 64
3, 761995, Note_off_c, 1, 76, 64
3, 762240, Note_on_c, 1, 74, 60
3, 762240, Note_on_c, 1, 77, 60
3, 762475, Note_off_c, 1, 77, 64
3, 762475, Note_off_c, 1, 74, 64
3, 762720, Note_on_c, 1, 72, 60
3, 762720, Note_on_c, 1, 76, 60
3, 762955, Note_off_c, 1, 76, 64
3, 762955, Note_off_c, 1, 72, 64
3, 763200, Note_on_c, 1, 71, 60
3, 763200, Note_on_c, 1, 74, 60
3, 763435, Note_off_c, 1, 74, 64
3, 763435, Note_off_c, 1, 71, 64
3, 763440, Note_on_c, 1, 72, 60
3, 764080, Note_off_c, 1, 72, 64
3, 764160, Note_on_c, 1, 76, 60
3, 764395, Note_off_c, 1, 76, 64
3, 764400, Note_on_c, 1, 76, 60
3, 765040, Note_off_c, 1, 76, 64
3, 765120, Note_on_c, 1, 72, 60
3, 765355, Note_off_c, 1, 72, 64
3, 765360, Note_on_c, 1, 72, 60
3, 766000, Note_off_c, 1, 72, 64
3, 766080, Note_on_c, 1, 79, 60
3, 766315, Note_off_c, 1, 79, 64
3, 766320, Note_on_c, 1, 79, 60
3, 766960, Note_off_c, 1, 79, 64
3, 767040, Note_on_c, 1, 72, 60
3, 767275, Note_off_c, 1, 72, 64
3, 767280, Note_on_c, 1, 72, 60
3, 767360, Note_off_c, 1, 72, 64
3, 767520, Note_on_c, 1, 76, 60
3, 767520, Note_on_c, 1, 84, 60
3, 767600, Note_off_c, 1, 84, 64
3, 767600, Note_off_c, 1, 76, 64
3, 767760, Note_on_c, 1, 76, 60
3, 767760, Note_on_c, 1, 84, 60
3, 767840, Note_off_c, 1, 84, 64
3, 767840, Note_off_c, 1, 76, 64
3, 768000, Note_on_c, 1, 76, 60
3, 768000, Note_on_c, 1, 84, 60
3, 768080, Note_off_c, 1, 84, 64
3, 768080, Note_off_c, 1, 76, 64
3, 768240, Note_on_c, 1, 76, 60
3, 768240, Note_on_c, 1, 84, 60
3, 768320, Note_off_c, 1, 84, 64
3, 768320, Note_off_c, 1, 76, 64
3, 768480, Note_on_c, 1, 76, 60
3, 768480, Note_on_c, 1, 84, 60
3, 768560, Note_off_c, 1, 84, 64
3, 768560, Note_off_c, 1, 76, 64
3, 768720, Note_on_c, 1, 76, 60
3, 768720, Note_on_c, 1, 84, 60
3, 768800, Note_off_c, 1, 84, 64
3, 768800, Note_off_c, 1, 76, 64
3, 768960, Note_on_c, 1, 76, 60
3, 768960, Note_on_c, 1, 84, 60
3, 769040, Note_off_c, 1, 84, 64
3, 769040, Note_off_c, 1, 76, 64
3, 769200, Note_on_c, 1, 76, 60
3, 769200, Note_on_c, 1, 84, 60
3, 769435, Note_off_c, 1, 84, 64
3, 769435, Note_off_c, 1, 76, 64
3, 770160, Note_on_c, 1, 72, 45
3, 770160, Note_on_c, 1, 76, 45
3, 770395, Note_off_c, 1, 76, 64
3, 770395, Note_off_c, 1, 72, 64
3, 790800, Note_on_c, 1, 78, 45
3, 791280, Note_off_c, 1, 78, 64
3, 791280, Note_on_c, 1, 79, 45
3, 791760, Note_off_c, 1, 79, 64
3, 791760, Note_on_c, 1, 78, 45
3, 792240, Note_off_c, 1, 78, 64
3, 792240, Note_on_c, 1, 74, 45
3, 792640, Note_off_c, 1, 74, 64
3, 792720, Note_on_c, 1, 74, 45
3, 793600, Note_off_c, 1, 74, 64
3, 793680, Note_on_c, 1, 74, 45
3, 794160, Note_off_c, 1, 74, 64
3, 794160, Note_on_c, 1, 73, 45
3, 794640, Note_off_c, 1, 73, 64
3, 794640, Note_on_c, 1, 74, 45
3, 795280, Note_off_c, 1, 74, 64
3, 813840, Note_on_c, 1, 78, 45
3, 814320, Note_off_c, 1, 78, 64
3, 814320, Note_on_c, 1, 79, 45
3, 814800, Note_off_c, 1, 79, 64
3, 814800, Note_on_c, 1, 78, 45
3, 815280, Note_off_c, 1, 78, 64
3, 815280, Note_on_c, 1, 74, 45
3, 815680, Note_off_c, 1, 74, 64
3, 815760, Note_on_c, 1, 74, 45
3, 816640, Note_off_c, 1, 74, 64
3, 816720, Note_on_c, 1, 74, 45
3, 817200, Note_off_c, 1, 74, 64
3, 817200, Note_on_c, 1, 73, 45
3, 817680, Note_off_c, 1, 73, 64
3, 817680, Note_on_c, 1, 74, 45
3, 818320, Note_off_c, 1, 74, 64
3, 821520, Note_on_c, 1, 79, 45
3, 821640, Note_off_c, 1, 79, 64
3, 822000, Note_on_c, 1, 78, 45
3, 822120, Note_off_c, 1, 78, 64
3, 822480, Note_on_c, 1, 74, 45
3, 822600, Note_off_c, 1, 74, 64
3, 822960, Note_on_c, 1, 76, 45
3, 823080, Note_off_c, 1, 76, 64
3, 823440, Note_on_c, 1, 78, 45
3, 823560, Note_off_c, 1, 78, 64
3, 823920, Note_on_c, 1, 74, 45
3, 824040, Note_off_c, 1, 74, 64
3, 830160, Note_on_c, 1, 67, 45
3, 830640, Note_off_c, 1, 67, 64
3, 830640, Note_on_c, 1, 72, 45
3, 831600, Note_off_c, 1, 72, 64
3, 831600, Note_on_c, 1, 76, 45
3, 832080, Note_off_c, 1, 76, 64
3, 832080, Note_on_c, 1, 79, 45
3, 832560, Note_off_c, 1, 79, 64
3, 832560, Note_on_c, 1, 76, 45
3, 832960, Note_off_c, 1, 76, 64
3, 833040, Note_on_c, 1, 76, 45
3, 833520, Note_off_c, 1, 76, 64
3, 833520, Note_on_c, 1, 79, 45
3, 834000, Note_off_c, 1, 79, 64
3, 834000, Note_on_c, 1, 83, 45
3, 834480, Note_off_c, 1, 83, 64
3, 834480, Note_on_c, 1, 84, 45
3, 834720, Note_off_c, 1, 84, 64
3, 834720, Note_on_c, 1, 81, 45
3, 834960, Note_off_c, 1, 81, 64
3, 834960, Note_on_c, 1, 79, 45
3, 835800, Note_off_c, 1, 79, 64
3, 835920, Note_on_c, 1, 83, 45
3, 836400, Note_off_c, 1, 83, 64
3, 836400, Note_on_c, 1, 84, 45
3, 836880, Note_off_c, 1, 84, 64
3, 836880, Note_on_c, 1, 79, 45
3, 837360, Note_off_c, 1, 79, 64
3, 837360, Note_on_c, 1, 77, 45
3, 837360, Note_on_c, 1, 81, 45
3, 837840, Note_off_c, 1, 81, 64
3, 837840, Note_off_c, 1, 77, 64
3, 837840, Note_on_c, 1, 76, 45
3, 837840, Note_on_c, 1, 79, 45
3, 838320, Note_off_c, 1, 79, 64
3, 838320, Note_off_c, 1, 76, 64
3, 838320, Note_on_c, 1, 72, 45
3, 838320, Note_on_c, 1, 76, 45
3, 838800, Note_off_c, 1, 76, 64
3, 838800, Note_off_c, 1, 72, 64
3, 838800, Note_on_c, 1, 72, 45
3, 838800, Note_on_c, 1, 77, 45
3, 839280, Note_off_c, 1, 77, 64
3, 839280, Note_off_c, 1, 72, 64
3, 839280, Note_on_c, 1, 72, 45
3, 839280, Note_on_c, 1, 76, 45
3, 839760, Note_off_c, 1, 76, 64
3, 839760, Note_off_c, 1, 72, 64
3, 839760, Note_on_c, 1, 67, 45
3, 839760, Note_on_c, 1, 72, 45
3, 840240, Note_off_c, 1, 72, 64
3, 840240, Note_off_c, 1, 67, 64
3, 840240, Note_on_c, 1, 71, 45
3, 840240, Note_on_c, 1, 74, 45
3, 840720, Note_off_c, 1, 74, 64
3, 840720, Note_off_c, 1, 71, 64
3, 840720, Note_on_c, 1, 72, 45
3, 840720, Note_on_c, 1, 76, 45
3, 841200, Note_off_c, 1, 76, 64
3, 841200, Note_off_c, 1, 72, 64
3, 841200, Note_on_c, 1, 64, 47
3, 841200, Note_on_c, 1, 72, 47
3, 841600, Note_off_c, 1, 72, 64
3, 841600, Note_off_c, 1, 64, 64
3, 844560, Note_on_c, 1, 72, 61
3, 844960, Note_off_c, 1, 72, 64
3, 845040, Note_on_c, 1, 72, 63
3, 845440, Note_off_c, 1, 72, 64
3, 845520, Note_on_c, 1, 72, 65
3, 845920, Note_off_c, 1, 72, 64
3, 846000, Note_on_c, 1, 72, 67
3, 846400, Note_off_c, 1, 72, 64
3, 846480, Note_on_c, 1, 72, 69
3, 846880, Note_off_c, 1, 72, 64
3, 846960, Note_on_c, 1, 72, 72
3, 847360, Note_off_c, 1, 72, 64
3, 847440, Note_on_c, 1, 72, 75
3, 847840, Note_off_c, 1, 72, 64
3, 847920, Note_on_c, 1, 77, 75
3, 848320, Note_off_c, 1, 77, 64
3, 848400, Note_on_c, 1, 72, 75
3, 848800, Note_off_c, 1, 72, 64
3, 848880, Note_on_c, 1, 74, 75
3, 849280, Note_off_c, 1, 74, 64
3, 849360, Note_on_c, 1, 72, 75
3, 849760, Note_off_c, 1, 72, 64
3, 849840, Note_on_c, 1, 69, 75
3, 849840, Note_on_c, 1, 81, 75
3, 850240, Note_off_c, 1, 81, 64
3, 850240, Note_off_c, 1, 69, 64
3, 850320, Note_on_c, 1, 70, 75
3, 850320, Note_on_c, 1, 82, 75
3, 850720, Note_off_c, 1, 82, 64
3, 850720, Note_off_c, 1, 70, 64
3, 850800, Note_on_c, 1, 69, 75
3, 850800, Note_on_c, 1, 81, 75
3, 851200, Note_off_c, 1, 81, 64
3, 851200, Note_off_c, 1, 69, 64
3, 851280, Note_on_c, 1, 65, 75
3, 851280, Note_on_c, 1, 77, 75
3, 851680, Note_off_c, 1, 77, 64
3, 851680, Note_off_c, 1, 65, 64
3, 851760, Note_on_c, 1, 67, 75
3, 851760, Note_on_c, 1, 79, 75
3, 852160, Note_off_c, 1, 79, 64
3, 852160, Note_off_c, 1, 67, 64
3, 852240, Note_on_c, 1, 69, 75
3, 852240, Note_on_c, 1, 81, 75
3, 852640, Note_off_c, 1, 81, 64
3, 852640, Note_off_c, 1, 69, 64
3, 852720, Note_on_c, 1, 65, 75
3, 852720, Note_on_c, 1, 77, 75
3, 853120, Note_off_c, 1, 77, 64
3, 853120, Note_off_c, 1, 65, 64
3, 853200, Note_on_c, 1, 67, 75
3, 853200, Note_on_c, 1, 79, 75
3, 853600, Note_off_c, 1, 79, 64
3, 853600, Note_off_c, 1, 67, 64
3, 853680, Note_on_c, 1, 69, 75
3, 853680, Note_on_c, 1, 81, 75
3, 854080, Note_off_c, 1, 81, 64
3, 854080, Note_off_c, 1, 69, 64
3, 854160, Note_on_c, 1, 65, 75
3, 854160, Note_on_c, 1, 77, 75
3, 854560, Note_off_c, 1, 77, 64
3, 854560, Note_off_c, 1, 65, 64
3, 854640, Note_on_c, 1, 67, 75
3, 854640, Note_on_c, 1, 79, 75
3, 855040, Note_off_c, 1, 79, 64
3, 855040, Note_off_c, 1, 67, 64
3, 855120, Note_on_c, 1, 69, 75
3, 855120, Note_on_c, 1, 81, 75
3, 855520, Note_off_c, 1, 81, 64
3, 855520, Note_off_c, 1, 69, 64
3, 855600, Note_on_c, 1, 65, 75
3, 855600, Note_on_c, 1, 77, 75
3, 856000, Note_off_c, 1, 77, 64
3, 856000, Note_off_c, 1, 65, 64
3, 856080, Note_on_c, 1, 67, 75
3, 856080, Note_on_c, 1, 79, 75
3, 856480, Note_off_c, 1, 79, 64
3, 856480, Note_off_c, 1, 67, 64
3, 856560, Note_on_c, 1, 69, 75
3, 856560, Note_on_c, 1, 81, 75
3, 857880, Note_off_c, 1, 81, 64
3, 857880, Note_off_c, 1, 69, 64
3, 858000, Note_on_c, 1, 79, 75
3, 858060, Note_off_c, 1, 79, 64
3, 858060, Note_on_c, 1, 81, 75
3, 858120, Note_off_c, 1, 81, 64
3, 858120, Note_on_c, 1, 67, 75
3, 858120, Note_on_c, 1, 79, 75
3, 858880, Note_off_c, 1, 79, 64
3, 858880, Note_off_c, 1, 67, 64
3, 858960, Note_on_c, 1, 65, 75
3, 858960, Note_on_c, 1, 77, 75
3, 859360, Note_off_c, 1, 77, 64
3, 859360, Note_off_c, 1, 65, 64
3, 859440, Note_on_c, 1, 76, 75
3, 859500, Note_off_c, 1, 76, 64
3, 859500, Note_on_c, 1, 77, 75
3, 859560, Note_off_c, 1, 77, 64
3, 859560, Note_on_c, 1, 64, 75
3, 859560, Note_on_c, 1, 76, 75
3, 860320, Note_off_c, 1, 76, 64
3, 860320, Note_off_c, 1, 64, 64
3, 860400, Note_on_c, 1, 62, 75
3, 860400, Note_on_c, 1, 74, 75
3, 860800, Note_off_c, 1, 74, 64
3, 860800, Note_off_c, 1, 62, 64
3, 860880, Note_on_c, 1, 60, 75
3, 860880, Note_on_c, 1, 72, 75
3, 861720, Note_off_c, 1, 72, 64
3, 861720, Note_off_c, 1, 60, 64
3, 861840, Note_on_c, 1, 72, 75
3, 861840, Note_on_c, 1, 76, 75
3, 862240, Note_off_c, 1, 76, 64
3, 862240, Note_off_c, 1, 72, 64
3, 862320, Note_on_c, 1, 72, 75
3, 862320, Note_on_c, 1, 77, 75
3, 863640, Note_off_c, 1, 77, 64
3, 863640, Note_off_c, 1, 72, 64
3, 863760, Note_on_c, 1, 67, 75
3, 863760, Note_on_c, 1, 77, 75
3, 865080, Note_off_c, 1, 77, 64
3, 865080, Note_off_c, 1, 67, 64
3, 865200, Note_on_c, 1, 69, 75
3, 865200, Note_on_c, 1, 77, 75
3, 866520, Note_off_c, 1, 77, 64
3, 866520, Note_off_c, 1, 69, 64
3, 866640, Note_on_c, 1, 72, 75
3, 866640, Note_on_c, 1, 76, 75
3, 867960, Note_off_c, 1, 76, 64
3, 867960, Note_off_c, 1, 72, 64
3, 868080, Note_on_c, 1, 72, 75
3, 868080, Note_on_c, 1, 77, 75
3, 868480, Note_off_c, 1, 77, 64
3, 868480, Note_off_c, 1, 72, 64
3, 869040, Note_on_c, 1, 81, 75
3, 869440, Note_off_c, 1, 81, 64
3, 869520, Note_on_c, 1, 79, 75
3, 869580, Note_off_c, 1, 79, 64
3, 869580, Note_on_c, 1, 81, 75
3, 869640, Note_off_c, 1, 81, 64
3, 869640, Note_on_c, 1, 79, 75
3, 870400, Note_off_c, 1, 79, 64
3, 870480, Note_on_c, 1, 77, 75
3, 870880, Note_off_c, 1, 77, 64
3, 870960, Note_on_c, 1, 76, 75
3, 871020, Note_off_c, 1, 76, 64
3, 871020, Note_on_c, 1, 77, 75
3, 871080, Note_off_c, 1, 77, 64
3, 871080, Note_on_c, 1, 76, 75
3, 871840, Note_off_c, 1, 76, 64
3, 871920, Note_on_c, 1, 74, 75
3, 872320, Note_off_c, 1, 74, 64
3, 872400, Note_on_c, 1, 72, 75
3, 873240, Note_off_c, 1, 72, 64
3, 873360, Note_on_c, 1, 72, 75
3, 873360, Note_on_c, 1, 76, 75
3, 873760, Note_off_c, 1, 76, 64
3, 873760, Note_off_c, 1, 72, 64
3, 873840, Note_on_c, 1, 72, 75
3, 873840, Note_on_c, 1, 77, 75
3, 875160, Note_off_c, 1, 77, 64
3, 875160, Note_off_c, 1, 72, 64
3, 875280, Note_on_c, 1, 77, 75
3, 875280, Note_on_c, 1, 79, 75
3, 876600, Note_off_c, 1, 79, 64
3, 876600, Note_off_c, 1, 77, 64
3, 876720, Note_on_c, 1, 77, 75
3, 876720, Note_on_c, 1, 81, 75
3, 878040, Note_off_c, 1, 81, 64
3, 878040, Note_off_c, 1, 77, 64
3, 878160, Note_on_c, 1, 76, 75
3, 878160, Note_on_c, 1, 79, 75
3, 879480, Note_off_c, 1, 79, 64
3, 879480, Note_off_c, 1, 76, 64
3, 879600, Note_on_c, 1, 77, 75
3, 879600, Note_on_c, 1, 81, 75
3, 880000, Note_off_c, 1, 81, 64
3, 880000, Note_off_c, 1, 77, 64
3, 883920, Note_on_c, 1, 76, 75
3, 883920, Note_on_c, 1, 79, 75
3, 884320, Note_off_c, 1, 79, 64
3, 884320, Note_off_c, 1, 76, 64
3, 884400, Note_on_c, 1, 76, 75
3, 884400, Note_on_c, 1, 79, 75
3, 884800, Note_off_c, 1, 79, 64
3, 884800, Note_off_c, 1, 76, 64
3, 884880, Note_on_c, 1, 76, 75
3, 884880, Note_on_c, 1, 79, 75
3, 885280, Note_off_c, 1, 79, 64
3, 885280, Note_off_c, 1, 76, 64
3, 885360, Note_on_c, 1, 77, 75
3, 885360, Note_on_c, 1, 81, 75
3, 885760, Note_off_c, 1, 81, 64
3, 885760, Note_off_c, 1, 77, 64
3, 889680, Note_on_c, 1, 76, 75
3, 889680, Note_on_c, 1, 79, 75
3, 890080, Note_off_c, 1, 79, 64
3, 890080, Note_off_c, 1, 76, 64
3, 890160, Note_on_c, 1, 76, 75
3, 890160, Note_on_c, 1, 79, 75
3, 890560, Note_off_c, 1, 79, 64
3, 890560, Note_off_c, 1, 76, 64
3, 890640, Note_on_c, 1, 76, 75
3, 890640, Note_on_c, 1, 79, 75
3, 891040, Note_off_c, 1, 79, 64
3, 891040, Note_off_c, 1, 76, 64
3, 891120, Note_on_c, 1, 77, 75
3, 891120, Note_on_c, 1, 81, 75
3, 891520, Note_off_c, 1, 81, 64
3, 891520, Note_off_c, 1, 77, 64
3, 894000, Note_on_c, 1, 77, 75
3, 894000, Note_on_c, 1, 81, 75
3, 894400, Note_off_c, 1, 81, 64
3, 894400, Note_off_c, 1, 77, 64
3, 903120, Note_on_c, 1, 81, 45
3, 903240, Note_off_c, 1, 81, 64
3, 903600, Note_on_c, 1, 84, 45
3, 904480, Note_off_c, 1, 84, 64
3, 904560, Note_on_c, 1, 81, 45
3, 904680, Note_off_c, 1, 81, 64
3, 905040, Note_on_c, 1, 77, 45
3, 905920, Note_off_c, 1, 77, 64
3, 906000, Note_on_c, 1, 76, 45
3, 906240, Note_off_c, 1, 76, 64
3, 906240, Note_on_c, 1, 77, 45
3, 906480, Note_off_c, 1, 77, 64
3, 906480, Note_on_c, 1, 79, 45
3, 907360, Note_off_c, 1, 79, 64
3, 907440, Note_on_c, 1, 77, 45
3, 907920, Note_off_c, 1, 77, 64
3, 907920, Note_on_c, 1, 79, 45
3, 908400, Note_off_c, 1, 79, 64
3, 908400, Note_on_c, 1, 81, 45
3, 908880, Note_off_c, 1, 81, 64
3, 908880, Note_on_c, 1, 79, 45
3, 909360, Note_off_c, 1, 79, 64
3, 909360, Note_on_c, 1, 77, 45
3, 909840, Note_off_c, 1, 77, 64
3, 909840, Note_on_c, 1, 79, 45
3, 910320, Note_off_c, 1, 79, 64
3, 910320, Note_on_c, 1, 81, 45
3, 910800, Note_off_c, 1, 81, 64
3, 910800, Note_on_c, 1, 82, 45
3, 911200, Note_off_c, 1, 82, 64
3, 911280, Note_on_c, 1, 81, 45
3, 911760, Note_off_c, 1, 81, 64
3, 911760, Note_on_c, 1, 82, 45
3, 912240, Note_off_c, 1, 82, 64
3, 912240, Note_on_c, 1, 84, 45
3, 914040, Note_off_c, 1, 84, 64
3, 914640, Note_on_c, 1, 81, 45
3, 914760, Note_off_c, 1, 81, 64
3, 915120, Note_on_c, 1, 84, 45
3, 916000, Note_off_c, 1, 84, 64
3, 916080, Note_on_c, 1, 81, 45
3, 916200, Note_off_c, 1, 81, 64
3, 916560, Note_on_c, 1, 77, 45
3, 917440, Note_off_c, 1, 77, 64
3, 917520, Note_on_c, 1, 76, 45
3, 917760, Note_off_c, 1, 76, 64
3, 917760, Note_on_c, 1, 77, 45
3, 918000, Note_off_c, 1, 77, 64
3, 918000, Note_on_c, 1, 79, 45
3, 918880, Note_off_c, 1, 79, 64
3, 918960, Note_on_c, 1, 81, 45
3, 919440, Note_off_c, 1, 81, 64
3, 919440, Note_on_c, 1, 82, 45
3, 919920, Note_off_c, 1, 82, 64
3, 919920, Note_on_c, 1, 84, 45
3, 920400, Note_off_c, 1, 84, 64
3, 920400, Note_on_c, 1, 82, 45
3, 920880, Note_off_c, 1, 82, 64
3, 920880, Note_on_c, 1, 81, 45
3, 921360, Note_off_c, 1, 81, 64
3, 921360, Note_on_c, 1, 79, 45
3, 922320, Note_off_c, 1, 79, 64
3, 922320, Note_on_c, 1, 81, 45
3, 922800, Note_off_c, 1, 81, 64
3, 922800, Note_on_c, 1, 82, 45
3, 923280, Note_off_c, 1, 82, 64
3, 923280, Note_on_c, 1, 79, 45
3, 923760, Note_off_c, 1, 79, 64
3, 923760, Note_on_c, 1, 81, 45
3, 924240, Note_off_c, 1, 81, 64
3, 924240, Note_on_c, 1, 77, 45
3, 925075, Note_off_c, 1, 77, 64
3, 926160, Note_on_c, 1, 81, 45
3, 926280, Note_off_c, 1, 81, 64
3, 926640, Note_on_c, 1, 84, 45
3, 927520, Note_off_c, 1, 84, 64
3, 927600, Note_on_c, 1, 81, 45
3, 927720, Note_off_c, 1, 81, 64
3, 928080, Note_on_c, 1, 77, 45
3, 928960, Note_off_c, 1, 77, 64
3, 929040, Note_on_c, 1, 76, 45
3, 929280, Note_off_c, 1, 76, 64
3, 929280, Note_on_c, 1, 77, 45
3, 929520, Note_off_c, 1, 77, 64
3, 929520, Note_on_c, 1, 79, 45
3, 930400, Note_off_c, 1, 79, 64
3, 930480, Note_on_c, 1, 77, 45
3, 930960, Note_off_c, 1, 77, 64
3, 930960, Note_on_c, 1, 79, 45
3, 931440, Note_off_c, 1, 79, 64
3, 931440, Note_on_c, 1, 81, 45
3, 931920, Note_off_c, 1, 81, 64
3, 931920, Note_on_c, 1, 79, 45
3, 932400, Note_off_c, 1, 79, 64
3, 932400, Note_on_c, 1, 77, 45
3, 932880, Note_off_c, 1, 77, 64
3, 932880, Note_on_c, 1, 79, 45
3, 933360, Note_off_c, 1, 79, 64
3, 933360, Note_on_c, 1, 81, 45
3, 933840, Note_off_c, 1, 81, 64
3, 933840, Note_on_c, 1, 82, 45
3, 934240, Note_off_c, 1, 82, 64
3, 934320, Note_on_c, 1, 81, 45
3, 934800, Note_off_c, 1, 81, 64
3, 934800, Note_on_c, 1, 82, 45
3, 935280, Note_off_c, 1, 82, 64
3, 935280, Note_on_c, 1, 84, 45
3, 937080, Note_off_c, 1, 84, 64
3, 937680, Note_on_c, 1, 81, 45
3, 937800, Note_off_c, 1, 81, 64
3, 938160, Note_on_c, 1, 84, 45
3, 939040, Note_off_c, 1, 84, 64
3, 939120, Note_on_c, 1, 81, 45
3, 939240, Note_off_c, 1, 81, 64
3, 939600, Note_on_c, 1, 77, 45
3, 940480, Note_off_c, 1, 77, 64
3, 940560, Note_on_c, 1, 76, 45
3, 940800, Note_off_c, 1, 76, 64
3, 940800, Note_on_c, 1, 77, 45
3, 941040, Note_off_c, 1, 77, 64
3, 941040, Note_on_c, 1, 79, 45
3, 941920, Note_off_c, 1, 79, 64
3, 942000, Note_on_c, 1, 81, 45
3, 942480, Note_off_c, 1, 81, 64
3, 942480, Note_on_c, 1, 82, 45
3, 942960, Note_off_c, 1, 82, 64
3, 942960, Note_on_c, 1, 84, 45
3, 943440, Note_off_c, 1, 84, 64
3, 943440, Note_on_c, 1, 82, 45
3, 943920, Note_off_c, 1, 82, 64
3, 943920, Note_on_c, 1, 81, 45
3, 944400, Note_off_c, 1, 81, 64
3, 944400, Note_on_c, 1, 79, 45
3, 945360, Note_off_c, 1, 79, 64
3, 945360, Note_on_c, 1, 81, 45
3, 945840, Note_off_c, 1, 81, 64
3, 945840, Note_on_c, 1, 82, 45
3, 946320, Note_off_c, 1, 82, 64
3, 946320, Note_on_c, 1, 79, 45
3, 946800, Note_off_c, 1, 79, 64
3, 946800, Note_on_c, 1, 81, 45
3, 947280, Note_off_c, 1, 81, 64
3, 947280, Note_on_c, 1, 77, 45
3, 948000, Note_off_c, 1, 77, 64
3, 975120, Note_on_c, 1, 81, 45
3, 975240, Note_off_c, 1, 81, 64
3, 975600, Note_on_c, 1, 84, 45
3, 976480, Note_off_c, 1, 84, 64
3, 976560, Note_on_c, 1, 81, 45
3, 976680, Note_off_c, 1, 81, 64
3, 977040, Note_on_c, 1, 77, 45
3, 977160, Note_off_c, 1, 77, 64
3, 977520, Note_on_c, 1, 79, 45
3, 977640, Note_off_c, 1, 79, 64
3, 978000, Note_on_c, 1, 72, 45
3, 978120, Note_off_c, 1, 72, 64
3, 978480, Note_on_c, 1, 79, 45
3, 979360, Note_off_c, 1, 79, 64
3, 979440, Note_on_c, 1, 76, 45
3, 979560, Note_off_c, 1, 76, 64
3, 979920, Note_on_c, 1, 79, 45
3, 980040, Note_off_c, 1, 79, 64
3, 980400, Note_on_c, 1, 81, 45
3, 981120, Note_off_c, 1, 81, 64
3, 986640, Note_on_c, 1, 81, 45
3, 987120, Note_off_c, 1, 81, 64
3, 987120, Note_on_c, 1, 82, 45
3, 987600, Note_off_c, 1, 82, 64
3, 987600, Note_on_c, 1, 84, 45
3, 988080, Note_off_c, 1, 84, 64
3, 988080, Note_on_c, 1, 82, 45
3, 988560, Note_off_c, 1, 82, 64
3, 988560, Note_on_c, 1, 81, 45
3, 989040, Note_off_c, 1, 81, 64
3, 989040, Note_on_c, 1, 79, 45
3, 989880, Note_off_c, 1, 79, 64
3, 990000, Note_on_c, 1, 81, 45
3, 990480, Note_off_c, 1, 81, 64
3, 990480, Note_on_c, 1, 82, 45
3, 990960, Note_off_c, 1, 82, 64
3, 990960, Note_on_c, 1, 79, 45
3, 991440, Note_off_c, 1, 79, 64
3, 991440, Note_on_c, 1, 81, 45
3, 991920, Note_off_c, 1, 81, 64
3, 991920, Note_on_c, 1, 77, 45
3, 992320, Note_off_c, 1, 77, 64
3, 993360, Note_on_c, 1, 81, 45
3, 993840, Note_off_c, 1, 81, 64
3, 993840, Note_on_c, 1, 84, 45
3, 994320, Note_off_c, 1, 84, 64
3, 994320, Note_on_c, 1, 82, 45
3, 994720, Note_off_c, 1, 82, 64
3, 996240, Note_on_c, 1, 79, 45
3, 996720, Note_off_c, 1, 79, 64
3, 996720, Note_on_c, 1, 82, 45
3, 997200, Note_off_c, 1, 82, 64
3, 997200, Note_on_c, 1, 81, 45
3, 997600, Note_off_c, 1, 81, 64
3, 997680, Note_on_c, 1, 77, 45
3, 999000, Note_off_c, 1, 77, 64
3, 999120, Note_on_c, 1, 84, 48
3, 1003320, Note_off_c, 1, 84, 64
3, 1003440, Note_on_c, 1, 81, 60
3, 1003840, Note_off_c, 1, 81, 64
3, 1009200, Note_on_c, 1, 72, 60
3, 1009200, Note_on_c, 1, 77, 60
3, 1010040, Note_off_c, 1, 77, 64
3, 1010040, Note_off_c, 1, 72, 64
3, 1010160, Note_on_c, 1, 72, 60
3, 1010160, Note_on_c, 1, 77, 60
3, 1011000, Note_off_c, 1, 77, 64
3, 1011000, Note_off_c, 1, 72, 64
3, 1011120, Note_on_c, 1, 74, 60
3, 1011120, Note_on_c, 1, 77, 60
3, 1011960, Note_off_c, 1, 77, 64
3, 1011960, Note_off_c, 1, 74, 64
3, 1012080, Note_on_c, 1, 72, 60
3, 1012080, Note_on_c, 1, 77, 60
3, 1012560, Note_off_c, 1, 72, 64
3, 1012560, Note_on_c, 1, 74, 60
3, 1012920, Note_off_c, 1, 77, 64
3, 1012960, Note_off_c, 1, 74, 64
3, 1013040, Note_on_c, 1, 72, 60
3, 1013040, Note_on_c, 1, 77, 60
3, 1013880, Note_off_c, 1, 77, 64
3, 1013880, Note_off_c, 1, 72, 64
3, 1014000, Note_on_c, 1, 72, 60
3, 1014000, Note_on_c, 1, 77, 60
3, 1014840, Note_off_c, 1, 77, 64
3, 1014840, Note_off_c, 1, 72, 64
3, 1014960, Note_on_c, 1, 74, 60
3, 1014960, Note_on_c, 1, 77, 60
3, 1015800, Note_off_c, 1, 77, 64
3, 1015800, Note_off_c, 1, 74, 64
3, 1015920, Note_on_c, 1, 72, 60
3, 1015920, Note_on_c, 1, 77, 60
3, 1016400, Note_off_c, 1, 72, 64
3, 1016400, Note_on_c, 1, 74, 60
3, 1016760, Note_off_c, 1, 77, 64
3, 1016800, Note_off_c, 1, 74, 64
3, 1016880, Note_on_c, 1, 72, 60
3, 1016880, Note_on_c, 1, 77, 60
3, 1017720, Note_off_c, 1, 77, 64
3, 1017720, Note_off_c, 1, 72, 64
3, 1017840, Note_on_c, 1, 72, 60
3, 1017840, Note_on_c, 1, 77, 60
3, 1018680, Note_off_c, 1, 77, 64
3, 1018680, Note_off_c, 1, 72, 64
3, 1018800, Note_on_c, 1, 74, 60
3, 1018800, Note_on_c, 1, 77, 60
3, 1019640, Note_off_c, 1, 77, 64
3, 1019640, Note_off_c, 1, 74, 64
3, 1019760, Note_on_c, 1, 72, 60
3, 1019760, Note_on_c, 1, 77, 60
3, 1020240, Note_off_c, 1, 72, 64
3, 1020240, Note_on_c, 1, 74, 60
3, 1020600, Note_off_c, 1, 77, 64
3, 1020640, Note_off_c, 1, 74, 64
3, 1020720, Note_on_c, 1, 72, 60
3, 1020720, Note_on_c, 1, 77, 60
3, 1021560, Note_off_c, 1, 77, 64
3, 1021560, Note_off_c, 1, 72, 64
3, 1021680, Note_on_c, 1, 72, 60
3, 1021680, Note_on_c, 1, 77, 60
3, 1022520, Note_off_c, 1, 77, 64
3, 1022520, Note_off_c, 1, 72, 64
3, 1022640, Note_on_c, 1, 74, 60
3, 1022640, Note_on_c, 1, 77, 60
3, 1023480, Note_off_c, 1, 77, 64
3, 1023480, Note_off_c, 1, 74, 64
3, 1023600, Note_on_c, 1, 72, 60
3, 1023600, Note_on_c, 1, 77, 60
3, 1024080, Note_off_c, 1, 72, 64
3, 1024080, Note_on_c, 1, 74, 60
3, 1024440, Note_off_c, 1, 77, 64
3, 1024480, Note_off_c, 1, 74, 64
3, 1026480, Note_on_c, 1, 77, 60
3, 1026480, Note_on_c, 1, 81, 60
3, 1027320, Note_off_c, 1, 81, 64
3, 1027320, Note_off_c, 1, 77, 64
3, 1027440, Note_on_c, 1, 76, 60
3, 1027440, Note_on_c, 1, 79, 60
3, 1027920, Note_off_c, 1, 79, 64
3, 1027920, Note_off_c, 1, 76, 64
3, 1027920, Note_on_c, 1, 77, 60
3, 1027920, Note_on_c, 1, 81, 60
3, 1028320, Note_off_c, 1, 81, 64
3, 1028320, Note_off_c, 1, 77, 64
3, 1030320, Note_on_c, 1, 77, 60
3, 1030320, Note_on_c, 1, 81, 60
3, 1031160, Note_off_c, 1, 81, 64
3, 1031160, Note_off_c, 1, 77, 64
3, 1031280, Note_on_c, 1, 76, 60
3, 1031280, Note_on_c, 1, 79, 60
3, 1031760, Note_off_c, 1, 79, 64
3, 1031760, Note_off_c, 1, 76, 64
3, 1031760, Note_on_c, 1, 77, 60
3, 1031760, Note_on_c, 1, 81, 60
3, 1032160, Note_off_c, 1, 81, 64
3, 1032160, Note_off_c, 1, 77, 64
3, 1032240, Note_on_c, 1, 64, 60
3, 1032240, Note_on_c, 1, 72, 60
3, 1032720, Note_off_c, 1, 72, 64
3, 1032720, Note_off_c, 1, 64, 64
3, 1032720, Note_on_c, 1, 74, 60
3, 1032720, Note_on_c, 1, 77, 60
3, 1033200, Note_off_c, 1, 77, 64
3, 1033200, Note_off_c, 1, 74, 64
3, 1033200, Note_on_c, 1, 72, 60
3, 1033200, Note_on_c, 1, 76, 60
3, 1033840, Note_off_c, 1, 76, 64
3, 1033840, Note_off_c, 1, 72, 64
3, 1033920, Note_on_c, 1, 74, 60
3, 1033920, Note_on_c, 1, 77, 60
3, 1034155, Note_off_c, 1, 77, 64
3, 1034155, Note_off_c, 1, 74, 64
3, 1034160, Note_on_c, 1, 76, 60
3, 1034160, Note_on_c, 1, 79, 60
3, 1034395, Note_off_c, 1, 79, 64
3, 1034395, Note_off_c, 1, 76, 64
3, 1034640, Note_on_c, 1, 74, 60
3, 1034640, Note_on_c, 1, 77, 60
3, 1034875, Note_off_c, 1, 77, 64
3, 1034875, Note_off_c, 1, 74, 64
3, 1035120, Note_on_c, 1, 72, 60
3, 1035120, Note_on_c, 1, 76, 60
3, 1035355, Note_off_c, 1, 76, 64
3, 1035355, Note_off_c, 1, 72, 64
3, 1035600, Note_on_c, 1, 71, 60
3, 1035600, Note_on_c, 1, 74, 60
3, 1035835, Note_off_c, 1, 74, 64
3, 1035835, Note_off_c, 1, 71, 64
3, 1036080, Note_on_c, 1, 64, 60
3, 1036080, Note_on_c, 1, 72, 60
3, 1036160, Note_off_c, 1, 72, 64
3, 1036160, Note_off_c, 1, 64, 64
3, 1036320, Note_on_c, 1, 64, 60
3, 1036320, Note_on_c, 1, 72, 60
3, 1036400, Note_off_c, 1, 72, 64
3, 1036400, Note_off_c, 1, 64, 64
3, 1036560, Note_on_c, 1, 74, 60
3, 1036560, Note_on_c, 1, 77, 60
3, 1036640, Note_off_c, 1, 77, 64
3, 1036640, Note_off_c, 1, 74, 64
3, 1036800, Note_on_c, 1, 74, 60
3, 1036800, Note_on_c, 1, 77, 60
3, 1036880, Note_off_c, 1, 77, 64
3, 1036880, Note_off_c, 1, 74, 64
3, 1037040, Note_on_c, 1, 72, 60
3, 1037040, Note_on_c, 1, 76, 60
3, 1037120, Note_off_c, 1, 76, 64
3, 1037120, Note_off_c, 1, 72, 64
3, 1037280, Note_on_c, 1, 72, 60
3, 1037280, Note_on_c, 1, 76, 60
3, 1037360, Note_off_c, 1, 76, 64
3, 1037360, Note_off_c, 1, 72, 64
3, 1037760, Note_on_c, 1, 77, 60
3, 1037760, Note_on_c, 1, 81, 60
3, 1037995, Note_off_c, 1, 81, 64
3, 1037995, Note_off_c, 1, 77, 64
3, 1038240, Note_on_c, 1, 76, 60
3, 1038240, Note_on_c, 1, 79, 60
3, 1038475, Note_off_c, 1, 79, 64
3, 1038475, Note_off_c, 1, 76, 64
3, 1038720, Note_on_c, 1, 74, 60
3, 1038720, Note_on_c, 1, 77, 60
3, 1038955, Note_off_c, 1, 77, 64
3, 1038955, Note_off_c, 1, 74, 64
3, 1039200, Note_on_c, 1, 72, 60
3, 1039200, Note_on_c, 1, 76, 60
3, 1039435, Note_off_c, 1, 76, 64
3, 1039435, Note_off_c, 1, 72, 64
3, 1039680, Note_on_c, 1, 71, 60
3, 1039680, Note_on_c, 1, 74, 60
3, 1039915, Note_off_c, 1, 74, 64
3, 1039915, Note_off_c, 1, 71, 64
3, 1039920, Note_on_c, 1, 72, 60
3, 1040560, Note_off_c, 1, 72, 64
3, 1040640, Note_on_c, 1, 76, 60
3, 1040875, Note_off_c, 1, 76, 64
3, 1040880, Note_on_c, 1, 76, 60
3, 1041520, Note_off_c, 1, 76, 64
3, 1041600, Note_on_c, 1, 72, 60
3, 1041835, Note_off_c, 1, 72, 64
3, 1041840, Note_on_c, 1, 72, 60
3, 1042480, Note_off_c, 1, 72, 64
3, 1042560, Note_on_c, 1, 79, 60
3, 1042795, Note_off_c, 1, 79, 64
3, 1042800, Note_on_c, 1, 79, 60
3, 1043440, Note_off_c, 1, 79, 64
3, 1043520, Note_on_c, 1, 72, 60
3, 1043755, Note_off_c, 1, 72, 64
3, 1043760, Note_on_c, 1, 72, 60
3, 1043840, Note_off_c, 1, 72, 64
3, 1044000, Note_on_c, 1, 76, 60
3, 1044000, Note_on_c, 1, 84, 60
3, 1044080, Note_off_c, 1, 84, 64
3, 1044080, Note_off_c, 1, 76, 64
3, 1044240, Note_on_c, 1, 76, 60
3, 1044240, Note_on_c, 1, 84, 60
3, 1044320, Note_off_c, 1, 84, 64
3, 1044320, Note_off_c, 1, 76, 64
3, 1044480, Note_on_c, 1, 76, 60
3, 1044480, Note_on_c, 1, 84, 60
3, 1044560, Note_off_c, 1, 84, 64
3, 1044560, Note_off_c, 1, 76, 64
3, 1044720, Note_on_c, 1, 76, 60
3, 1044720, Note_on_c, 1, 84, 60
3, 1044800, Note_off_c, 1, 84, 64
3, 1044800, Note_off_c, 1, 76, 64
3, 1044960, Note_on_c, 1, 76, 60
3, 1044960, Note_on_c, 1, 84, 60
3, 1045040, Note_off_c, 1, 84, 64
3, 1045040, Note_off_c, 1, 76, 64
3, 1045200, Note_on_c, 1, 76, 60
3, 1045200, Note_on_c, 1, 84, 60
3, 1045280, Note_off_c, 1, 84, 64
3, 1045280, Note_off_c, 1, 76, 64
3, 1045440, Note_on_c, 1, 76, 60
3, 1045440, Note_on_c, 1, 84, 60
3, 1045520, Note_off_c, 1, 84, 64
3, 1045520, Note_off_c, 1, 76, 64
3, 1045680, Note_on_c, 1, 76, 60
3, 1045680, Note_on_c, 1, 84, 60
3, 1045915, Note_off_c, 1, 84, 64
3, 1045915, Note_off_c, 1, 76, 64
3, 1046640, Note_on_c, 1, 72, 45
3, 1046640, Note_on_c, 1, 76, 45
3, 1046875, Note_off_c, 1, 76, 64
3, 1046875, Note_off_c, 1, 72, 64
3, 1068240, Note_on_c, 1, 81, 45
3, 1068720, Note_off_c, 1, 81, 64
3, 1068720, Note_on_c, 1, 72, 55
3, 1068720, Note_on_c, 1, 84, 55
3, 1069200, Note_off_c, 1, 84, 64
3, 1069200, Note_off_c, 1, 72, 64
3, 1069200, Note_on_c, 1, 74, 65
3, 1069200, Note_on_c, 1, 82, 65
3, 1069440, Note_off_c, 1, 82, 64
3, 1069440, Note_off_c, 1, 74, 64
3, 1069440, Note_on_c, 1, 70, 70
3, 1069440, Note_on_c, 1, 79, 70
3, 1069675, Note_off_c, 1, 79, 64
3, 1069675, Note_off_c, 1, 70, 64
3, 1069680, Note_on_c, 1, 69, 75
3, 1069680, Note_on_c, 1, 77, 75
3, 1070320, Note_off_c, 1, 77, 64
3, 1070320, Note_off_c, 1, 69, 64
3, 1083120, Note_on_c, 1, 81, 45
3, 1083600, Note_off_c, 1, 81, 64
3, 1083600, Note_on_c, 1, 82, 45
3, 1084080, Note_off_c, 1, 82, 64
3, 1084080, Note_on_c, 1, 81, 45
3, 1084560, Note_off_c, 1, 81, 64
3, 1084560, Note_on_c, 1, 77, 45
3, 1085040, Note_off_c, 1, 77, 64
3, 1085040, Note_on_c, 1, 79, 45
3, 1085520, Note_off_c, 1, 79, 64
3, 1085520, Note_on_c, 1, 77, 45
3, 1085920, Note_off_c, 1, 77, 64
3, 1086000, Note_on_c, 1, 77, 45
3, 1086480, Note_off_c, 1, 77, 64
3, 1086480, Note_on_c, 1, 76, 45
3, 1086960, Note_off_c, 1, 76, 64
3, 1086960, Note_on_c, 1, 77, 45
3, 1087360, Note_off_c, 1, 77, 64
3, 1093680, Note_on_c, 1, 72, 75
3, 1093800, Note_off_c, 1, 72, 64
3, 1094160, Note_on_c, 1, 77, 75
3, 1094280, Note_off_c, 1, 77, 64
3, 1094640, Note_on_c, 1, 72, 75
3, 1094760, Note_off_c, 1, 72, 64
3, 1095120, Note_on_c, 1, 74, 75
3, 1095240, Note_off_c, 1, 74, 64
3, 1095600, Note_on_c, 1, 72, 75
3, 1095720, Note_off_c, 1, 72, 64
3, 1096080, Note_on_c, 1, 69, 75
3, 1096080, Note_on_c, 1, 81, 75
3, 1096200, Note_off_c, 1, 81, 64
3, 1096200, Note_off_c, 1, 69, 64
3, 1096560, Note_on_c, 1, 70, 75
3, 1096560, Note_on_c, 1, 82, 75
3, 1096680, Note_off_c, 1, 82, 64
3, 1096680, Note_off_c, 1, 70, 64
3, 1097040, Note_on_c, 1, 69, 75
3, 1097040, Note_on_c, 1, 81, 75
3, 1097440, Note_off_c, 1, 81, 64
3, 1097440, Note_off_c, 1, 69, 64
3, 1097520, Note_on_c, 1, 65, 75
3, 1097520, Note_on_c, 1, 77, 75
3, 1097920, Note_off_c, 1, 77, 64
3, 1097920, Note_off_c, 1, 65, 64
3, 1098000, Note_on_c, 1, 67, 75
3, 1098000, Note_on_c, 1, 79, 75
3, 1098400, Note_off_c, 1, 79, 64
3, 1098400, Note_off_c, 1, 67, 64
3, 1098480, Note_on_c, 1, 69, 75
3, 1098480, Note_on_c, 1, 81, 75
3, 1098880, Note_off_c, 1, 81, 64
3, 1098880, Note_off_c, 1, 69, 64
3, 1098960, Note_on_c, 1, 65, 75
3, 1098960, Note_on_c, 1, 77, 75
3, 1099360, Note_off_c, 1, 77, 64
3, 1099360, Note_off_c, 1, 65, 64
3, 1099440, Note_on_c, 1, 67, 75
3, 1099440, Note_on_c, 1, 79, 75
3, 1099840, Note_off_c, 1, 79, 64
3, 1099840, Note_off_c, 1, 67, 64
3, 1099920, Note_on_c, 1, 69, 75
3, 1099920, Note_on_c, 1, 81, 75
3, 1100320, Note_off_c, 1, 81, 64
3, 1100320, Note_off_c, 1, 69, 64
3, 1100400, Note_on_c, 1, 77, 75
3, 1100800, Note_off_c, 1, 77, 64
3, 1100880, Note_on_c, 1, 79, 75
3, 1101280, Note_off_c, 1, 79, 64
3, 1101360, Note_on_c, 1, 81, 75
3, 1101760, Note_off_c, 1, 81, 64
3, 1101840, Note_on_c, 1, 77, 75
3, 1102240, Note_off_c, 1, 77, 64
3, 1102320, Note_on_c, 1, 79, 75
3, 1102720, Note_off_c, 1, 79, 64
3, 1102800, Note_on_c, 1, 69, 75
3, 1102800, Note_on_c, 1, 81, 75
3, 1104120, Note_off_c, 1, 81, 64
3, 1104120, Note_off_c, 1, 69, 64
3, 1104240, Note_on_c, 1, 79, 75
3, 1104300, Note_off_c, 1, 79, 64
3, 1104300, Note_on_c, 1, 81, 75
3, 1104360, Note_off_c, 1, 81, 64
3, 1104360, Note_on_c, 1, 67, 75
3, 1104360, Note_on_c, 1, 79, 75
3, 1105120, Note_off_c, 1, 79, 64
3, 1105120, Note_off_c, 1, 67, 64
3, 1105200, Note_on_c, 1, 65, 75
3, 1105200, Note_on_c, 1, 77, 75
3, 1105600, Note_off_c, 1, 77, 64
3, 1105600, Note_off_c, 1, 65, 64
3, 1105680, Note_on_c, 1, 76, 75
3, 1105740, Note_off_c, 1, 76, 64
3, 1105740, Note_on_c, 1, 77, 75
3, 1105800, Note_off_c, 1, 77, 64
3, 1105800, Note_on_c, 1, 64, 75
3, 1105800, Note_on_c, 1, 76, 75
3, 1106560, Note_off_c, 1, 76, 64
3, 1106560, Note_off_c, 1, 64, 64
3, 1106640, Note_on_c, 1, 62, 75
3, 1106640, Note_on_c, 1, 74, 75
3, 1107040, Note_off_c, 1, 74, 64
3, 1107040, Note_off_c, 1, 62, 64
3, 1107120, Note_on_c, 1, 60, 75
3, 1107120, Note_on_c, 1, 72, 75
3, 1107960, Note_off_c, 1, 72, 64
3, 1107960, Note_off_c, 1, 60, 64
3, 1108080, Note_on_c, 1, 72, 75
3, 1108080, Note_on_c, 1, 76, 75
3, 1108480, Note_off_c, 1, 76, 64
3, 1108480, Note_off_c, 1, 72, 64
3, 1108560, Note_on_c, 1, 72, 75
3, 1108560, Note_on_c, 1, 77, 75
3, 1109880, Note_off_c, 1, 77, 64
3, 1109880, Note_off_c, 1, 72, 64
3, 1110000, Note_on_c, 1, 67, 75
3, 1110000, Note_on_c, 1, 77, 75
3, 1111320, Note_off_c, 1, 77, 64
3, 1111320, Note_off_c, 1, 67, 64
3, 1111440, Note_on_c, 1, 69, 75
3, 1111440, Note_on_c, 1, 77, 75
3, 1112760, Note_off_c, 1, 77, 64
3, 1112760, Note_off_c, 1, 69, 64
3, 1112880, Note_on_c, 1, 72, 75
3, 1112880, Note_on_c, 1, 76, 75
3, 1114200, Note_off_c, 1, 76, 64
3, 1114200, Note_off_c, 1, 72, 64
3, 1114320, Note_on_c, 1, 72, 75
3, 1114320, Note_on_c, 1, 77, 75
3, 1114720, Note_off_c, 1, 77, 64
3, 1114720, Note_off_c, 1, 72, 64
3, 1115280, Note_on_c, 1, 81, 75
3, 1115680, Note_off_c, 1, 81, 64
3, 1115760, Note_on_c, 1, 79, 75
3, 1115820, Note_off_c, 1, 79, 64
3, 1115820, Note_on_c, 1, 81, 75
3, 1115880, Note_off_c, 1, 81, 64
3, 1115880, Note_on_c, 1, 79, 75
3, 1116640, Note_off_c, 1, 79, 64
3, 1116720, Note_on_c, 1, 77, 75
3, 1117120, Note_off_c, 1, 77, 64
3, 1117200, Note_on_c, 1, 76, 75
3, 1117260, Note_off_c, 1, 76, 64
3, 1117260, Note_on_c, 1, 77, 75
3, 1117320, Note_off_c, 1, 77, 64
3, 1117320, Note_on_c, 1, 76, 75
3, 1118080, Note_off_c, 1, 76, 64
3, 1118160, Note_on_c, 1, 74, 75
3, 1118560, Note_off_c, 1, 74, 64
3, 1118640, Note_on_c, 1, 72, 75
3, 1119480, Note_off_c, 1, 72, 64
3, 1119600, Note_on_c, 1, 72, 75
3, 1119600, Note_on_c, 1, 76, 75
3, 1120000, Note_off_c, 1, 76, 64
3, 1120000, Note_off_c, 1, 72, 64
3, 1120080, Note_on_c, 1, 72, 75
3, 1120080, Note_on_c, 1, 77, 75
3, 1121400, Note_off_c, 1, 77, 64
3, 1121400, Note_off_c, 1, 72, 64
3, 1121520, Note_on_c, 1, 77, 75
3, 1121520, Note_on_c, 1, 79, 75
3, 1122840, Note_off_c, 1, 79, 64
3, 1122840, Note_off_c, 1, 77, 64
3, 1122960, Note_on_c, 1, 77, 75
3, 1122960, Note_on_c, 1, 81, 75
3, 1124280, Note_off_c, 1, 81, 64
3, 1124280, Note_off_c, 1, 77, 64
3, 1124400, Note_on_c, 1, 76, 75
3, 1124400, Note_on_c, 1, 79, 75
3, 1125720, Note_off_c, 1, 79, 64
3, 1125720, Note_off_c, 1, 76, 64
3, 1125840, Note_on_c, 1, 77, 75
3, 1125840, Note_on_c, 1, 81, 75
3, 1126240, Note_off_c, 1, 81, 64
3, 1126240, Note_off_c, 1, 77, 64
3, 1130160, Note_on_c, 1, 76, 75
3, 1130160, Note_on_c, 1, 79, 75
3, 1130560, Note_off_c, 1, 79, 64
3, 1130560, Note_off_c, 1, 76, 64
3, 1130640, Note_on_c, 1, 76, 75
3, 1130640, Note_on_c, 1, 79, 75
3, 1131040, Note_off_c, 1, 79, 64
3, 1131040, Note_off_c, 1, 76, 64
3, 1131120, Note_on_c, 1, 76, 75
3, 1131120, Note_on_c, 1, 79, 75
3, 1131520, Note_off_c, 1, 79, 64
3, 1131520, Note_off_c, 1, 76, 64
3, 1131600, Note_on_c, 1, 77, 75
3, 1131600, Note_on_c, 1, 81, 75
3, 1132000, Note_off_c, 1, 81, 64
3, 1132000, Note_off_c, 1, 77, 64
3, 1135920, Note_on_c, 1, 76, 75
3, 1135920, Note_on_c, 1, 79, 75
3, 1136320, Note_off_c, 1, 79, 64
3, 1136320, Note_off_c, 1, 76, 64
3, 1136400, Note_on_c, 1, 76, 75
3, 1136400, Note_on_c, 1, 79, 75
3, 1136800, Note_off_c, 1, 79, 64
3, 1136800, Note_off_c, 1, 76, 64
3, 1136880, Note_on_c, 1, 76, 75
3, 1136880, Note_on_c, 1, 79, 75
3, 1137280, Note_off_c, 1, 79, 64
3, 1137280, Note_off_c, 1, 76, 64
3, 1152720, Note_on_c, 1, 71, 30
3, 1156440, Note_off_c, 1, 71, 64
3, 1173840, Note_on_c, 1, 73, 45
3, 1177560, Note_off_c, 1, 73, 64
3, 1177680, Note_on_c, 1, 80, 60
3, 1177680, Note_on_c, 1, 84, 60
3, 1181400, Note_off_c, 1, 84, 64
3, 1181400, Note_off_c, 1, 80, 64
3, 1181520, Note_on_c, 1, 80, 60
3, 1181520, Note_on_c, 1, 84, 60
3, 1185240, Note_off_c, 1, 84, 64
3, 1185240, Note_off_c, 1, 80, 64
3, 1185360, Note_on_c, 1, 73, 75
3, 1185360, Note_on_c, 1, 82, 75
3, 1189080, Note_off_c, 1, 82, 64
3, 1189080, Note_off_c, 1, 73, 64
3, 1189200, Note_on_c, 1, 73, 75
3, 1189200, Note_on_c, 1, 82, 75
3, 1192920, Note_off_c, 1, 82, 64
3, 1192920, Note_off_c, 1, 73, 64
3, 1193040, Note_on_c, 1, 72, 75
3, 1193040, Note_on_c, 1, 78, 75
3, 1193440, Note_off_c, 1, 72, 64
3, 1193520, Note_on_c, 1, 75, 75
3, 1196760, Note_off_c, 1, 78, 64
3, 1196760, Note_off_c, 1, 75, 64
3, 1196880, Note_on_c, 1, 75, 75
3, 1196880, Note_on_c, 1, 84, 75
3, 1200600, Note_off_c, 1, 84, 64
3, 1200600, Note_off_c, 1, 75, 64
3, 1200720, Note_on_c, 1, 73, 75
3, 1200720, Note_on_c, 1, 85, 75
3, 1200955, Note_off_c, 1, 85, 64
3, 1200955, Note_off_c, 1, 73, 64
3, 1201200, Note_on_c, 1, 73, 75
3, 1201200, Note_on_c, 1, 77, 75
3, 1201435, Note_off_c, 1, 77, 64
3, 1201435, Note_off_c, 1, 73, 64
3, 1202640, Note_on_c, 1, 77, 75
3, 1202640, Note_on_c, 1, 80, 75
3, 1202875, Note_off_c, 1, 80, 64
3, 1202875, Note_off_c, 1, 77, 64
3, 1203120, Note_on_c, 1, 77, 75
3, 1203120, Note_on_c, 1, 80, 75
3, 1203355, Note_off_c, 1, 80, 64
3, 1203355, Note_off_c, 1, 77, 64
3, 1204560, Note_on_c, 1, 76, 75
3, 1204560, Note_on_c, 1, 79, 75
3, 1204960, Note_off_c, 1, 79, 64
3, 1204960, Note_off_c, 1, 76, 64
3, 1205520, Note_on_c, 1, 72, 75
3, 1205520, Note_on_c, 1, 84, 75
3, 1206880, Note_off_c, 1, 84, 64
3, 1206880, Note_off_c, 1, 72, 64
3, 1208400, Note_on_c, 1, 68, 75
3, 1208400, Note_on_c, 1, 80, 75
3, 1208800, Note_off_c, 1, 80, 64
3, 1208800, Note_off_c, 1, 68, 64
3, 1209360, Note_on_c, 1, 68, 75
3, 1209360, Note_on_c, 1, 80, 75
3, 1210720, Note_off_c, 1, 80, 64
3, 1210720, Note_off_c, 1, 68, 64
3, 1212240, Note_on_c, 1, 65, 75
3, 1212240, Note_on_c, 1, 77, 75
3, 1212640, Note_off_c, 1, 77, 64
3, 1212640, Note_off_c, 1, 65, 64
3, 1213200, Note_on_c, 1, 77, 75
3, 1213840, Note_off_c, 1, 77, 64
3, 1213920, Note_on_c, 1, 72, 75
3, 1214000, Note_off_c, 1, 72, 64
3, 1214160, Note_on_c, 1, 73, 75
3, 1214240, Note_off_c, 1, 73, 64
3, 1214400, Note_on_c, 1, 80, 75
3, 1214480, Note_off_c, 1, 80, 64
3, 1214640, Note_on_c, 1, 82, 60
3, 1214720, Note_off_c, 1, 82, 64
3, 1214880, Note_on_c, 1, 77, 60
3, 1214960, Note_off_c, 1, 77, 64
3, 1215120, Note_on_c, 1, 78, 60
3, 1215200, Note_off_c, 1, 78, 64
3, 1215360, Note_on_c, 1, 77, 60
3, 1215440, Note_off_c, 1, 77, 64
3, 1215600, Note_on_c, 1, 77, 60
3, 1215680, Note_off_c, 1, 77, 64
3, 1215840, Note_on_c, 1, 75, 60
3, 1215920, Note_off_c, 1, 75, 64
3, 1216080, Note_on_c, 1, 73, 30
3, 1216480, Note_off_c, 1, 73, 64
3, 1220400, Note_on_c, 1, 77, 92
3, 1220400, Note_on_c, 1, 80, 92
3, 1220635, Note_off_c, 1, 80, 64
3, 1220635, Note_off_c, 1, 77, 64
3, 1228080, Note_on_c, 1, 74, 92
3, 1228080, Note_on_c, 1, 77, 92
3, 1228315, Note_off_c, 1, 77, 64
3, 1228315, Note_off_c, 1, 74, 64
3, 1235760, Note_on_c, 1, 75, 92
3, 1235760, Note_on_c, 1, 81, 92
3, 1235995, Note_off_c, 1, 81, 64
3, 1235995, Note_off_c, 1, 75, 64
3, 1237680, Note_on_c, 1, 75, 92
3, 1237680, Note_on_c, 1, 81, 92
3, 1237915, Note_off_c, 1, 81, 64
3, 1237915, Note_off_c, 1, 75, 64
3, 1239600, Note_on_c, 1, 73, 92
3, 1239600, Note_on_c, 1, 77, 92
3, 1239835, Note_off_c, 1, 77, 64
3, 1239835, Note_off_c, 1, 73, 64
3, 1241520, Note_on_c, 1, 74, 92
3, 1241520, Note_on_c, 1, 77, 92
3, 1241755, Note_off_c, 1, 77, 64
3, 1241755, Note_off_c, 1, 74, 64
3, 1243440, Note_on_c, 1, 75, 92
3, 1243440, Note_on_c, 1, 79, 92
3, 1243675, Note_off_c, 1, 79, 64
3, 1243675, Note_off_c, 1, 75, 64
3, 1244400, Note_on_c, 1, 76, 92
3, 1244400, Note_on_c, 1, 79, 92
3, 1244635, Note_off_c, 1, 79, 64
3, 1244635, Note_off_c, 1, 76, 64
3, 1244880, Note_on_c, 1, 76, 92
3, 1244880, Note_on_c, 1, 79, 92
3, 1245115, Note_off_c, 1, 79, 64
3, 1245115, Note_off_c, 1, 76, 64
3, 1250640, Note_on_c, 1, 82, 30
3, 1256280, Note_off_c, 1, 82, 64
3, 1264560, Note_on_c, 1, 78, 30
3, 1264560, Note_on_c, 1, 81, 30
3, 1264795, Note_off_c, 1, 81, 64
3, 1264795, Note_off_c, 1, 78, 64
3, 1264800, Note_on_c, 1, 78, 30
3, 1264800, Note_on_c, 1, 81, 30
3, 1265035, Note_off_c, 1, 81, 64
3, 1265035, Note_off_c, 1, 78, 64
3, 1265040, Note_on_c, 1, 78, 30
3, 1265040, Note_on_c, 1, 81, 30
3, 1265440, Note_off_c, 1, 81, 64
3, 1265440, Note_off_c, 1, 78, 64
3, 1265520, Note_on_c, 1, 78, 30
3, 1265520, Note_on_c, 1, 81, 30
3, 1265920, Note_off_c, 1, 81, 64
3, 1265920, Note_off_c, 1, 78, 64
3, 1266480, Note_on_c, 1, 78, 30
3, 1266480, Note_on_c, 1, 81, 30
3, 1266715, Note_off_c, 1, 81, 64
3, 1266715, Note_off_c, 1, 78, 64
3, 1266720, Note_on_c, 1, 78, 30
3, 1266720, Note_on_c, 1, 81, 30
3, 1266955, Note_off_c, 1, 81, 64
3, 1266955, Note_off_c, 1, 78, 64
3, 1266960, Note_on_c, 1, 78, 30
3, 1266960, Note_on_c, 1, 81, 30
3, 1267360, Note_off_c, 1, 81, 64
3, 1267360, Note_off_c, 1, 78, 64
3, 1267440, Note_on_c, 1, 78, 30
3, 1267440, Note_on_c, 1, 81, 30
3, 1267840, Note_off_c, 1, 81, 64
3, 1267840, Note_off_c, 1, 78, 64
3, 1272240, Note_on_c, 1, 81, 30
3, 1272240, Note_on_c, 1, 84, 30
3, 1272320, Note_off_c, 1, 84, 64
3, 1272320, Note_off_c, 1, 81, 64
3, 1272480, Note_on_c, 1, 81, 30
3, 1272480, Note_on_c, 1, 84, 30
3, 1272560, Note_off_c, 1, 84, 64
3, 1272560, Note_off_c, 1, 81, 64
3, 1272720, Note_on_c, 1, 81, 30
3, 1272720, Note_on_c, 1, 84, 30
3, 1272800, Note_off_c, 1, 84, 64
3, 1272800, Note_off_c, 1, 81, 64
3, 1272960, Note_on_c, 1, 81, 30
3, 1272960, Note_on_c, 1, 84, 30
3, 1273040, Note_off_c, 1, 84, 64
3, 1273040, Note_off_c, 1, 81, 64
3, 1273200, Note_on_c, 1, 81, 30
3, 1273200, Note_on_c, 1, 84, 30
3, 1273600, Note_off_c, 1, 84, 64
3, 1273600, Note_off_c, 1, 81, 64
3, 1274160, Note_on_c, 1, 81, 30
3, 1274160, Note_on_c, 1, 84, 30
3, 1274240, Note_off_c, 1, 84, 64
3, 1274240, Note_off_c, 1, 81, 64
3, 1274400, Note_on_c, 1, 81, 30
3, 1274400, Note_on_c, 1, 84, 30
3, 1274480, Note_off_c, 1, 84, 64
3, 1274480, Note_off_c, 1, 81, 64
3, 1274640, Note_on_c, 1, 81, 30
3, 1274640, Note_on_c, 1, 84, 30
3, 1274720, Note_off_c, 1, 84, 64
3, 1274720, Note_off_c, 1, 81, 64
3, 1274880, Note_on_c, 1, 81, 30
3, 1274880, Note_on_c, 1, 84, 30
3, 1274960, Note_off_c, 1, 84, 64
3, 1274960, Note_off_c, 1, 81, 64
3, 1275120, Note_on_c, 1, 81, 30
3, 1275120, Note_on_c, 1, 84, 30
3, 1275520, Note_off_c, 1, 84, 64
3, 1275520, Note_off_c, 1, 81, 64
3, 1278000, Note_on_c, 1, 78, 45
3, 1278480, Note_off_c, 1, 78, 64
3, 1278480, Note_on_c, 1, 81, 46
3, 1279360, Note_off_c, 1, 81, 64
3, 1281840, Note_on_c, 1, 78, 55
3, 1282320, Note_off_c, 1, 78, 64
3, 1282320, Note_on_c, 1, 82, 56
3, 1283200, Note_off_c, 1, 82, 64
3, 1285680, Note_on_c, 1, 80, 69
3, 1286160, Note_off_c, 1, 80, 64
3, 1286160, Note_on_c, 1, 83, 71
3, 1286640, Note_on_c, 1, 74, 73
3, 1287040, Note_off_c, 1, 74, 64
3, 1287040, Note_off_c, 1, 83, 64
3, 1287120, Note_on_c, 1, 67, 75
3, 1287120, Note_on_c, 1, 79, 75
3, 1287520, Note_off_c, 1, 79, 64
3, 1287520, Note_off_c, 1, 67, 64
3, 1287600, Note_on_c, 1, 67, 75
3, 1287600, Note_on_c, 1, 79, 75
3, 1289440, Note_off_c, 1, 79, 64
3, 1289440, Note_off_c, 1, 67, 64
3, 1289520, Note_on_c, 1, 67, 75
3, 1289520, Note_on_c, 1, 79, 75
3, 1291360, Note_off_c, 1, 79, 64
3, 1291360, Note_off_c, 1, 67, 64
3, 1291440, Note_on_c, 1, 67, 75
3, 1291440, Note_on_c, 1, 79, 75
3, 1292760, Note_off_c, 1, 79, 64
3, 1292760, Note_off_c, 1, 67, 64
3, 1292880, Note_on_c, 1, 68, 75
3, 1292880, Note_on_c, 1, 80, 75
3, 1293280, Note_off_c, 1, 80, 64
3, 1293280, Note_off_c, 1, 68, 64
3, 1293360, Note_on_c, 1, 68, 75
3, 1293360, Note_on_c, 1, 80, 75
3, 1295200, Note_off_c, 1, 80, 64
3, 1295200, Note_off_c, 1, 68, 64
3, 1295280, Note_on_c, 1, 68, 75
3, 1295280, Note_on_c, 1, 80, 75
3, 1297120, Note_off_c, 1, 80, 64
3, 1297120, Note_off_c, 1, 68, 64
3, 1297200, Note_on_c, 1, 68, 75
3, 1297200, Note_on_c, 1, 80, 75
3, 1299040, Note_off_c, 1, 80, 64
3, 1299040, Note_off_c, 1, 68, 64
3, 1299120, Note_on_c, 1, 68, 75
3, 1299120, Note_on_c, 1, 80, 75
3, 1299960, Note_off_c, 1, 80, 64
3, 1299960, Note_off_c, 1, 68, 64
3, 1300080, Note_on_c, 1, 69, 75
3, 1300080, Note_on_c, 1, 81, 75
3, 1300560, Note_off_c, 1, 81, 64
3, 1300560, Note_off_c, 1, 69, 64
3, 1300560, Note_on_c, 1, 70, 75
3, 1300560, Note_on_c, 1, 82, 75
3, 1300960, Note_off_c, 1, 82, 64
3, 1300960, Note_off_c, 1, 70, 64
3, 1301040, Note_on_c, 1, 70, 75
3, 1301040, Note_on_c, 1, 82, 75
3, 1302880, Note_off_c, 1, 82, 64
3, 1302880, Note_off_c, 1, 70, 64
3, 1302960, Note_on_c, 1, 70, 75
3, 1302960, Note_on_c, 1, 82, 75
3, 1304800, Note_off_c, 1, 82, 64
3, 1304800, Note_off_c, 1, 70, 64
3, 1304880, Note_on_c, 1, 70, 75
3, 1304880, Note_on_c, 1, 82, 75
3, 1306720, Note_off_c, 1, 82, 64
3, 1306720, Note_off_c, 1, 70, 64
3, 1306800, Note_on_c, 1, 70, 75
3, 1306800, Note_on_c, 1, 82, 75
3, 1307640, Note_off_c, 1, 82, 64
3, 1307640, Note_off_c, 1, 70, 64
3, 1307760, Note_on_c, 1, 72, 75
3, 1307760, Note_on_c, 1, 84, 75
3, 1308160, Note_off_c, 1, 84, 64
3, 1308160, Note_off_c, 1, 72, 64
3, 1308240, Note_on_c, 1, 73, 75
3, 1308240, Note_on_c, 1, 85, 75
3, 1308880, Note_off_c, 1, 85, 64
3, 1308880, Note_off_c, 1, 73, 64
3, 1308960, Note_on_c, 1, 73, 75
3, 1308960, Note_on_c, 1, 77, 75
3, 1309195, Note_off_c, 1, 77, 64
3, 1309195, Note_off_c, 1, 73, 64
3, 1309200, Note_on_c, 1, 73, 75
3, 1309200, Note_on_c, 1, 77, 75
3, 1310560, Note_off_c, 1, 77, 64
3, 1310560, Note_off_c, 1, 73, 64
3, 1312080, Note_on_c, 1, 77, 75
3, 1312080, Note_on_c, 1, 85, 75
3, 1312720, Note_off_c, 1, 85, 64
3, 1312720, Note_off_c, 1, 77, 64
3, 1312800, Note_on_c, 1, 73, 75
3, 1312800, Note_on_c, 1, 82, 75
3, 1313035, Note_off_c, 1, 82, 64
3, 1313035, Note_off_c, 1, 73, 64
3, 1313040, Note_on_c, 1, 73, 75
3, 1313040, Note_on_c, 1, 82, 75
3, 1314400, Note_off_c, 1, 82, 64
3, 1314400, Note_off_c, 1, 73, 64
3, 1315920, Note_on_c, 1, 78, 75
3, 1315920, Note_on_c, 1, 82, 75
3, 1316560, Note_off_c, 1, 82, 64
3, 1316560, Note_off_c, 1, 78, 64
3, 1316640, Note_on_c, 1, 66, 75
3, 1316640, Note_on_c, 1, 78, 75
3, 1316875, Note_off_c, 1, 78, 64
3, 1316875, Note_off_c, 1, 66, 64
3, 1316880, Note_on_c, 1, 66, 75
3, 1316880, Note_on_c, 1, 78, 75
3, 1319520, Note_off_c, 1, 78, 64
3, 1319520, Note_off_c, 1, 66, 64
3, 1319520, Note_on_c, 1, 67, 75
3, 1319520, Note_on_c, 1, 79, 75
3, 1319755, Note_off_c, 1, 79, 64
3, 1319755, Note_off_c, 1, 67, 64
3, 1319760, Note_on_c, 1, 67, 75
3, 1319760, Note_on_c, 1, 79, 75
3, 1320000, Note_off_c, 1, 79, 64
3, 1320000, Note_off_c, 1, 67, 64
3, 1320000, Note_on_c, 1, 66, 75
3, 1320000, Note_on_c, 1, 78, 75
3, 1320240, Note_off_c, 1, 78, 64
3, 1320240, Note_off_c, 1, 66, 64
3, 1320240, Note_on_c, 1, 67, 30
3, 1320240, Note_on_c, 1, 79, 30
3, 1327675, Note_off_c, 1, 79, 64
3, 1327675, Note_off_c, 1, 67, 64
3, 1327680, Note_on_c, 1, 66, 92
3, 1327680, Note_on_c, 1, 78, 92
3, 1327920, Note_off_c, 1, 78, 64
3, 1327920, Note_off_c, 1, 66, 64
3, 1327920, Note_on_c, 1, 67, 45
3, 1327920, Note_on_c, 1, 79, 45
3, 1335355, Note_off_c, 1, 79, 64
3, 1335355, Note_off_c, 1, 67, 64
3, 1335360, Note_on_c, 1, 66, 89
3, 1335360, Note_on_c, 1, 78, 89
3, 1335600, Note_off_c, 1, 78, 64
3, 1335600, Note_off_c, 1, 66, 64
3, 1335600, Note_on_c, 1, 67, 92
3, 1335600, Note_on_c, 1, 79, 92
3, 1337275, Note_off_c, 1, 79, 64
3, 1337275, Note_off_c, 1, 67, 64
3, 1337280, Note_on_c, 1, 66, 92
3, 1337280, Note_on_c, 1, 78, 92
3, 1337520, Note_off_c, 1, 78, 64
3, 1337520, Note_off_c, 1, 66, 64
3, 1337520, Note_on_c, 1, 67, 92
3, 1337520, Note_on_c, 1, 79, 92
3, 1339195, Note_off_c, 1, 79, 64
3, 1339195, Note_off_c, 1, 67, 64
3, 1339200, Note_on_c, 1, 67, 92
3, 1339200, Note_on_c, 1, 79, 92
3, 1339440, Note_off_c, 1, 79, 64
3, 1339440, Note_off_c, 1, 67, 64
3, 1339440, Note_on_c, 1, 68, 92
3, 1339440, Note_on_c, 1, 80, 92
3, 1341115, Note_off_c, 1, 80, 64
3, 1341115, Note_off_c, 1, 68, 64
3, 1341120, Note_on_c, 1, 67, 92
3, 1341120, Note_on_c, 1, 79, 92
3, 1341360, Note_off_c, 1, 79, 64
3, 1341360, Note_off_c, 1, 67, 64
3, 1341360, Note_on_c, 1, 68, 92
3, 1341360, Note_on_c, 1, 80, 92
3, 1341760, Note_off_c, 1, 80, 64
3, 1341760, Note_off_c, 1, 68, 64
3, 1341840, Note_on_c, 1, 69, 92
3, 1341840, Note_on_c, 1, 81, 92
3, 1341920, Note_off_c, 1, 81, 64
3, 1341920, Note_off_c, 1, 69, 64
3, 1342080, Note_on_c, 1, 79, 92
3, 1342080, Note_on_c, 1, 83, 92
3, 1342160, Note_off_c, 1, 83, 64
3, 1342160, Note_off_c, 1, 79, 64
3, 1342320, Note_on_c, 1, 81, 75
3, 1342320, Note_on_c, 1, 84, 75
3, 1350360, Note_off_c, 1, 84, 64
3, 1350360, Note_off_c, 1, 81, 64
3, 1350480, Note_on_c, 1, 81, 75
3, 1350480, Note_on_c, 1, 84, 75
3, 1352400, Note_off_c, 1, 84, 64
3, 1352400, Note_off_c, 1, 81, 64
3, 1352400, Note_on_c, 1, 75, 75
3, 1352400, Note_on_c, 1, 84, 75
3, 1354200, Note_off_c, 1, 84, 64
3, 1354200, Note_off_c, 1, 75, 64
3, 1354320, Note_on_c, 1, 73, 75
3, 1354320, Note_on_c, 1, 77, 75
3, 1356240, Note_off_c, 1, 77, 64
3, 1356240, Note_off_c, 1, 73, 64
3, 1356240, Note_on_c, 1, 73, 75
3, 1356240, Note_on_c, 1, 82, 75
3, 1358040, Note_off_c, 1, 82, 64
3, 1358040, Note_off_c, 1, 73, 64
3, 1358160, Note_on_c, 1, 72, 75
3, 1358160, Note_on_c, 1, 81, 75
3, 1360080, Note_off_c, 1, 81, 64
3, 1360080, Note_off_c, 1, 72, 64
3, 1360080, Note_on_c, 1, 75, 75
3, 1360080, Note_on_c, 1, 77, 75
3, 1361880, Note_off_c, 1, 77, 64
3, 1361880, Note_off_c, 1, 75, 64
3, 1362000, Note_on_c, 1, 73, 75
3, 1362000, Note_on_c, 1, 77, 75
3, 1363920, Note_off_c, 1, 77, 64
3, 1363920, Note_off_c, 1, 73, 64
3, 1363920, Note_on_c, 1, 76, 75
3, 1363920, Note_on_c, 1, 79, 75
3, 1365720, Note_off_c, 1, 79, 64
3, 1365720, Note_off_c, 1, 76, 64
3, 1365840, Note_on_c, 1, 77, 45
3, 1366240, Note_off_c, 1, 77, 64
3, 1379760, Note_on_c, 1, 80, 30
3, 1381600, Note_off_c, 1, 80, 64
3, 1381680, Note_on_c, 1, 80, 30
3, 1383520, Note_off_c, 1, 80, 64
3, 1383600, Note_on_c, 1, 77, 30
3, 1383600, Note_on_c, 1, 80, 30
3, 1385440, Note_off_c, 1, 80, 64
3, 1385440, Note_off_c, 1, 77, 64
3, 1385520, Note_on_c, 1, 77, 30
3, 1385520, Note_on_c, 1, 80, 30
3, 1390680, Note_off_c, 1, 80, 64
3, 1390680, Note_off_c, 1, 77, 64
3, 1390800, Note_on_c, 1, 77, 30
3, 1390800, Note_on_c, 1, 79, 30
3, 1398360, Note_off_c, 1, 79, 64
3, 1398360, Note_off_c, 1, 77, 64
3, 1398480, Note_on_c, 1, 76, 30
3, 1398480, Note_on_c, 1, 79, 30
3, 1398880, Note_off_c, 1, 79, 64
3, 1398880, Note_off_c, 1, 76, 64
3, 1418640, Note_on_c, 1, 79, 30
3, 1419600, Note_off_c, 1, 79, 64
3, 1419600, Note_on_c, 1, 81, 30
3, 1420560, Note_off_c, 1, 81, 64
3, 1420560, Note_on_c, 1, 79, 30
3, 1421520, Note_off_c, 1, 79, 64
3, 1421520, Note_on_c, 1, 77, 30
3, 1422480, Note_off_c, 1, 77, 64
3, 1422480, Note_on_c, 1, 76, 30
3, 1423440, Note_off_c, 1, 76, 64
3, 1423440, Note_on_c, 1, 74, 30
3, 1425360, Note_off_c, 1, 74, 64
3, 1425360, Note_on_c, 1, 72, 30
3, 1426320, Note_off_c, 1, 72, 64
3, 1426320, Note_on_c, 1, 76, 30
3, 1426320, Note_on_c, 1, 79, 30
3, 1427280, Note_off_c, 1, 79, 64
3, 1427280, Note_off_c, 1, 76, 64
3, 1427280, Note_on_c, 1, 77, 30
3, 1427280, Note_on_c, 1, 81, 30
3, 1428240, Note_off_c, 1, 81, 64
3, 1428240, Note_off_c, 1, 77, 64
3, 1428240, Note_on_c, 1, 76, 30
3, 1428240, Note_on_c, 1, 79, 30
3, 1429200, Note_off_c, 1, 79, 64
3, 1429200, Note_off_c, 1, 76, 64
3, 1429200, Note_on_c, 1, 72, 30
3, 1429200, Note_on_c, 1, 77, 30
3, 1430160, Note_off_c, 1, 77, 64
3, 1430160, Note_off_c, 1, 72, 64
3, 1430160, Note_on_c, 1, 72, 30
3, 1430160, Note_on_c, 1, 76, 30
3, 1431120, Note_off_c, 1, 76, 64
3, 1431120, Note_off_c, 1, 72, 64
3, 1431120, Note_on_c, 1, 74, 30
3, 1432080, Note_off_c, 1, 74, 64
3, 1432080, Note_on_c, 1, 67, 30
3, 1432080, Note_on_c, 1, 72, 30
3, 1433040, Note_off_c, 1, 72, 64
3, 1433040, Note_off_c, 1, 67, 64
3, 1433040, Note_on_c, 1, 65, 30
3, 1433040, Note_on_c, 1, 71, 30
3, 1436760, Note_off_c, 1, 71, 64
3, 1436760, Note_off_c, 1, 65, 64
3, 1436880, Note_on_c, 1, 64, 30
3, 1436880, Note_on_c, 1, 72, 30
3, 1437280, Note_off_c, 1, 72, 64
3, 1437280, Note_off_c, 1, 64, 64
3, 1470300, Note_on_c, 1, 77, 45
3, 1470300, Note_on_c, 1, 81, 45
3, 1470535, Note_off_c, 1, 81, 64
3, 1470535, Note_off_c, 1, 77, 64
3, 1470540, Note_on_c, 1, 77, 51
3, 1470540, Note_on_c, 1, 81, 51
3, 1470775, Note_off_c, 1, 81, 64
3, 1470775, Note_off_c, 1, 77, 64
3, 1470780, Note_on_c, 1, 77, 57
3, 1470780, Note_on_c, 1, 81, 57
3, 1471015, Note_off_c, 1, 81, 64
3, 1471015, Note_off_c, 1, 77, 64
3, 1471020, Note_on_c, 1, 77, 63
3, 1471020, Note_on_c, 1, 81, 63
3, 1471255, Note_off_c, 1, 81, 64
3, 1471255, Note_off_c, 1, 77, 64
3, 1471260, Note_on_c, 1, 77, 69
3, 1471260, Note_on_c, 1, 81, 69
3, 1471495, Note_off_c, 1, 81, 64
3, 1471495, Note_off_c, 1, 77, 64
3, 1471500, Note_on_c, 1, 77, 75
3, 1471500, Note_on_c, 1, 81, 75
3, 1472820, Note_off_c, 1, 81, 64
3, 1472820, Note_off_c, 1, 77, 64
3, 1472940, Note_on_c, 1, 77, 75
3, 1472940, Note_on_c, 1, 81, 75
3, 1474260, Note_off_c, 1, 81, 64
3, 1474260, Note_off_c, 1, 77, 64
3, 1474380, Note_on_c, 1, 77, 75
3, 1474380, Note_on_c, 1, 81, 75
3, 1475700, Note_off_c, 1, 81, 64
3, 1475700, Note_off_c, 1, 77, 64
3, 1475820, Note_on_c, 1, 77, 75
3, 1475820, Note_on_c, 1, 82, 75
3, 1476940, Note_off_c, 1, 82, 64
3, 1476940, Note_off_c, 1, 77, 64
3, 1477020, Note_on_c, 1, 79, 75
3, 1477020, Note_on_c, 1, 82, 75
3, 1477255, Note_off_c, 1, 82, 64
3, 1477255, Note_off_c, 1, 79, 64
3, 1477260, Note_on_c, 1, 79, 75
3, 1477260, Note_on_c, 1, 82, 75
3, 1478580, Note_off_c, 1, 82, 64
3, 1478580, Note_off_c, 1, 79, 64
3, 1478700, Note_on_c, 1, 77, 75
3, 1478700, Note_on_c, 1, 81, 75
3, 1479820, Note_off_c, 1, 81, 64
3, 1479820, Note_off_c, 1, 77, 64
3, 1479900, Note_on_c, 1, 77, 75
3, 1479900, Note_on_c, 1, 81, 75
3, 1480140, Note_off_c, 1, 81, 64
3, 1480140, Note_off_c, 1, 77, 64
3, 1480140, Note_on_c, 1, 77, 75
3, 1480140, Note_on_c, 1, 79, 75
3, 1480860, Note_off_c, 1, 79, 64
3, 1480860, Note_off_c, 1, 77, 64
3, 1480860, Note_on_c, 1, 76, 75
3, 1480860, Note_on_c, 1, 79, 75
3, 1481580, Note_off_c, 1, 79, 64
3, 1481580, Note_off_c, 1, 76, 64
3, 1481580, Note_on_c, 1, 77, 60
3, 1481580, Note_on_c, 1, 81, 60
3, 1481980, Note_off_c, 1, 81, 64
3, 1481980, Note_off_c, 1, 77, 64
3, 1484220, Note_on_c, 1, 76, 75
3, 1484220, Note_on_c, 1, 79, 75
3, 1484455, Note_off_c, 1, 79, 64
3, 1484455, Note_off_c, 1, 76, 64
3, 1484460, Note_on_c, 1, 77, 75
3, 1485180, Note_off_c, 1, 77, 64
3, 1485180, Note_on_c, 1, 79, 75
3, 1485900, Note_off_c, 1, 79, 64
3, 1485900, Note_on_c, 1, 77, 75
3, 1485900, Note_on_c, 1, 81, 75
3, 1486540, Note_off_c, 1, 81, 64
3, 1486540, Note_off_c, 1, 77, 64
3, 1486620, Note_on_c, 1, 79, 75
3, 1486620, Note_on_c, 1, 82, 75
3, 1487020, Note_off_c, 1, 82, 64
3, 1487020, Note_off_c, 1, 79, 64
3, 1487100, Note_on_c, 1, 79, 75
3, 1487100, Note_on_c, 1, 82, 75
3, 1487335, Note_off_c, 1, 82, 64
3, 1487335, Note_off_c, 1, 79, 64
3, 1489980, Note_on_c, 1, 76, 75
3, 1489980, Note_on_c, 1, 79, 75
3, 1490215, Note_off_c, 1, 79, 64
3, 1490215, Note_off_c, 1, 76, 64
3, 1490220, Note_on_c, 1, 77, 75
3, 1490940, Note_off_c, 1, 77, 64
3, 1490940, Note_on_c, 1, 79, 75
3, 1491660, Note_off_c, 1, 79, 64
3, 1491660, Note_on_c, 1, 77, 75
3, 1491660, Note_on_c, 1, 81, 75
3, 1492300, Note_off_c, 1, 81, 64
3, 1492300, Note_off_c, 1, 77, 64
3, 1492380, Note_on_c, 1, 76, 75
3, 1492380, Note_on_c, 1, 82, 75
3, 1492780, Note_off_c, 1, 82, 64
3, 1492780, Note_off_c, 1, 76, 64
3, 1492860, Note_on_c, 1, 76, 75
3, 1492860, Note_on_c, 1, 82, 75
3, 1493095, Note_off_c, 1, 82, 64
3, 1493095, Note_off_c, 1, 76, 64
3, 1493100, Note_on_c, 1, 77, 75
3, 1493100, Note_on_c, 1, 81, 75
3, 1493740, Note_off_c, 1, 81, 64
3, 1493740, Note_off_c, 1, 77, 64
3, 1493820, Note_on_c, 1, 77, 75
3, 1493820, Note_on_c, 1, 79, 75
3, 1494220, Note_off_c, 1, 79, 64
3, 1494220, Note_off_c, 1, 77, 64
3, 1494300, Note_on_c, 1, 77, 75
3, 1494300, Note_on_c, 1, 79, 75
3, 1494535, Note_off_c, 1, 79, 64
3, 1494535, Note_off_c, 1, 77, 64
3, 1494540, Note_on_c, 1, 76, 75
3, 1494540, Note_on_c, 1, 79, 75
3, 1495180, Note_off_c, 1, 79, 64
3, 1495180, Note_off_c, 1, 76, 64
3, 1495260, Note_on_c, 1, 77, 75
3, 1495260, Note_on_c, 1, 79, 75
3, 1495660, Note_off_c, 1, 79, 64
3, 1495660, Note_off_c, 1, 77, 64
3, 1495740, Note_on_c, 1, 71, 75
3, 1495740, Note_on_c, 1, 79, 75
3, 1495975, Note_off_c, 1, 79, 64
3, 1495975, Note_off_c, 1, 71, 64
3, 1495980, Note_on_c, 1, 72, 75
3, 1495980, Note_on_c, 1, 79, 75
3, 1497100, Note_off_c, 1, 79, 64
3, 1497100, Note_off_c, 1, 72, 64
3, 1497180, Note_on_c, 1, 72, 75
3, 1497180, Note_on_c, 1, 76, 75
3, 1497415, Note_off_c, 1, 76, 64
3, 1497415, Note_off_c, 1, 72, 64
3, 1497420, Note_on_c, 1, 72, 75
3, 1497420, Note_on_c, 1, 76, 75
3, 1497820, Note_off_c, 1, 76, 64
3, 1497820, Note_off_c, 1, 72, 64
3, 1497900, Note_on_c, 1, 72, 75
3, 1497900, Note_on_c, 1, 76, 75
3, 1498135, Note_off_c, 1, 76, 64
3, 1498135, Note_off_c, 1, 72, 64
3, 1498140, Note_on_c, 1, 72, 75
3, 1498140, Note_on_c, 1, 76, 75
3, 1498540, Note_off_c, 1, 76, 64
3, 1498540, Note_off_c, 1, 72, 64
3, 1498620, Note_on_c, 1, 72, 75
3, 1498620, Note_on_c, 1, 76, 75
3, 1498855, Note_off_c, 1, 76, 64
3, 1498855, Note_off_c, 1, 72, 64
3, 1498860, Note_on_c, 1, 74, 75
3, 1498860, Note_on_c, 1, 77, 75
3, 1499980, Note_off_c, 1, 77, 64
3, 1499980, Note_off_c, 1, 74, 64
3, 1500060, Note_on_c, 1, 71, 75
3, 1500060, Note_on_c, 1, 74, 75
3, 1500295, Note_off_c, 1, 74, 64
3, 1500295, Note_off_c, 1, 71, 64
3, 1500300, Note_on_c, 1, 71, 75
3, 1500300, Note_on_c, 1, 74, 75
3, 1500700, Note_off_c, 1, 74, 64
3, 1500700, Note_off_c, 1, 71, 64
3, 1500780, Note_on_c, 1, 71, 75
3, 1500780, Note_on_c, 1, 74, 75
3, 1501015, Note_off_c, 1, 74, 64
3, 1501015, Note_off_c, 1, 71, 64
3, 1501020, Note_on_c, 1, 71, 75
3, 1501020, Note_on_c, 1, 74, 75
3, 1501420, Note_off_c, 1, 74, 64
3, 1501420, Note_off_c, 1, 71, 64
3, 1501500, Note_on_c, 1, 71, 75
3, 1501500, Note_on_c, 1, 74, 75
3, 1501735, Note_off_c, 1, 74, 64
3, 1501735, Note_off_c, 1, 71, 64
3, 1501740, Note_on_c, 1, 76, 75
3, 1501740, Note_on_c, 1, 79, 75
3, 1502140, Note_off_c, 1, 79, 64
3, 1502140, Note_off_c, 1, 76, 64
3, 1502220, Note_on_c, 1, 76, 75
3, 1502220, Note_on_c, 1, 79, 75
3, 1502455, Note_off_c, 1, 79, 64
3, 1502455, Note_off_c, 1, 76, 64
3, 1502460, Note_on_c, 1, 76, 75
3, 1502460, Note_on_c, 1, 79, 75
3, 1502860, Note_off_c, 1, 79, 64
3, 1502860, Note_off_c, 1, 76, 64
3, 1502940, Note_on_c, 1, 76, 75
3, 1502940, Note_on_c, 1, 79, 75
3, 1503175, Note_off_c, 1, 79, 64
3, 1503175, Note_off_c, 1, 76, 64
3, 1503180, Note_on_c, 1, 76, 75
3, 1503180, Note_on_c, 1, 79, 75
3, 1503580, Note_off_c, 1, 79, 64
3, 1503580, Note_off_c, 1, 76, 64
3, 1503660, Note_on_c, 1, 72, 75
3, 1503660, Note_on_c, 1, 76, 75
3, 1503895, Note_off_c, 1, 76, 64
3, 1503895, Note_off_c, 1, 72, 64
3, 1503900, Note_on_c, 1, 72, 75
3, 1503900, Note_on_c, 1, 76, 75
3, 1504300, Note_off_c, 1, 76, 64
3, 1504300, Note_off_c, 1, 72, 64
3, 1504380, Note_on_c, 1, 72, 75
3, 1504380, Note_on_c, 1, 76, 75
3, 1504615, Note_off_c, 1, 76, 64
3, 1504615, Note_off_c, 1, 72, 64
3, 1504620, Note_on_c, 1, 74, 75
3, 1504620, Note_on_c, 1, 77, 75
3, 1505020, Note_off_c, 1, 77, 64
3, 1505020, Note_off_c, 1, 74, 64
3, 1505100, Note_on_c, 1, 74, 75
3, 1505100, Note_on_c, 1, 77, 75
3, 1505335, Note_off_c, 1, 77, 64
3, 1505335, Note_off_c, 1, 74, 64
3, 1505340, Note_on_c, 1, 74, 75
3, 1505340, Note_on_c, 1, 77, 75
3, 1505740, Note_off_c, 1, 77, 64
3, 1505740, Note_off_c, 1, 74, 64
3, 1505820, Note_on_c, 1, 74, 75
3, 1505820, Note_on_c, 1, 77, 75
3, 1506055, Note_off_c, 1, 77, 64
3, 1506055, Note_off_c, 1, 74, 64
3, 1506060, Note_on_c, 1, 74, 75
3, 1506060, Note_on_c, 1, 77, 75
3, 1506460, Note_off_c, 1, 77, 64
3, 1506460, Note_off_c, 1, 74, 64
3, 1506540, Note_on_c, 1, 71, 75
3, 1506540, Note_on_c, 1, 74, 75
3, 1506775, Note_off_c, 1, 74, 64
3, 1506775, Note_off_c, 1, 71, 64
3, 1506780, Note_on_c, 1, 71, 75
3, 1506780, Note_on_c, 1, 74, 75
3, 1507180, Note_off_c, 1, 74, 64
3, 1507180, Note_off_c, 1, 71, 64
3, 1507260, Note_on_c, 1, 71, 75
3, 1507260, Note_on_c, 1, 74, 75
3, 1507495, Note_off_c, 1, 74, 64
3, 1507495, Note_off_c, 1, 71, 64
3, 1507500, Note_on_c, 1, 72, 75
3, 1507500, Note_on_c, 1, 76, 75
3, 1507900, Note_off_c, 1, 76, 64
3, 1507900, Note_off_c, 1, 72, 64
3, 1508700, Note_on_c, 1, 72, 45
3, 1509180, Note_off_c, 1, 72, 64
3, 1509180, Note_on_c, 1, 77, 55
3, 1509420, Note_off_c, 1, 77, 64
3, 1509420, Note_on_c, 1, 72, 65
3, 1509420, Note_on_c, 1, 76, 65
3, 1509660, Note_off_c, 1, 76, 64
3, 1509660, Note_off_c, 1, 72, 64
3, 1509660, Note_on_c, 1, 74, 75
3, 1509660, Note_on_c, 1, 77, 75
3, 1510060, Note_off_c, 1, 77, 64
3, 1510060, Note_off_c, 1, 74, 64
3, 1510140, Note_on_c, 1, 74, 75
3, 1510140, Note_on_c, 1, 77, 75
3, 1510380, Note_off_c, 1, 77, 64
3, 1510380, Note_off_c, 1, 74, 64
3, 1510380, Note_on_c, 1, 72, 75
3, 1510380, Note_on_c, 1, 76, 75
3, 1510615, Note_off_c, 1, 76, 64
3, 1510615, Note_off_c, 1, 72, 64
3, 1511580, Note_on_c, 1, 72, 45
3, 1512060, Note_off_c, 1, 72, 64
3, 1512060, Note_on_c, 1, 77, 50
3, 1512300, Note_off_c, 1, 77, 64
3, 1512300, Note_on_c, 1, 72, 55
3, 1512300, Note_on_c, 1, 76, 55
3, 1512540, Note_off_c, 1, 76, 64
3, 1512540, Note_off_c, 1, 72, 64
3, 1512540, Note_on_c, 1, 74, 60
3, 1512540, Note_on_c, 1, 77, 60
3, 1512940, Note_off_c, 1, 77, 64
3, 1512940, Note_off_c, 1, 74, 64
3, 1513020, Note_on_c, 1, 74, 70
3, 1513020, Note_on_c, 1, 77, 70
3, 1513100, Note_off_c, 1, 77, 64
3, 1513100, Note_off_c, 1, 74, 64
3, 1513260, Note_on_c, 1, 72, 75
3, 1513260, Note_on_c, 1, 76, 75
3, 1513980, Note_off_c, 1, 76, 64
3, 1513980, Note_off_c, 1, 72, 64
3, 1513980, Note_on_c, 1, 72, 75
3, 1513980, Note_on_c, 1, 76, 75
3, 1514215, Note_off_c, 1, 76, 64
3, 1514215, Note_off_c, 1, 72, 64
3, 1514460, Note_on_c, 1, 72, 75
3, 1514460, Note_on_c, 1, 76, 75
3, 1514540, Note_off_c, 1, 76, 64
3, 1514540, Note_off_c, 1, 72, 64
3, 1514700, Note_on_c, 1, 74, 75
3, 1514700, Note_on_c, 1, 77, 75
3, 1515420, Note_off_c, 1, 77, 64
3, 1515420, Note_off_c, 1, 74, 64
3, 1515420, Note_on_c, 1, 74, 75
3, 1515420, Note_on_c, 1, 77, 75
3, 1515655, Note_off_c, 1, 77, 64
3, 1515655, Note_off_c, 1, 74, 64
3, 1515900, Note_on_c, 1, 74, 75
3, 1515900, Note_on_c, 1, 77, 75
3, 1515980, Note_off_c, 1, 77, 64
3, 1515980, Note_off_c, 1, 74, 64
3, 1516140, Note_on_c, 1, 72, 45
3, 1516140, Note_on_c, 1, 76, 45
3, 1516375, Note_off_c, 1, 76, 64
3, 1516375, Note_off_c, 1, 72, 64
3, 1521180, Note_on_c, 1, 76, 60
3, 1521420, Note_off_c, 1, 76, 64
3, 1521420, Note_on_c, 1, 72, 60
3, 1521660, Note_off_c, 1, 72, 64
3, 1521660, Note_on_c, 1, 79, 60
3, 1521900, Note_off_c, 1, 79, 64
3, 1521900, Note_on_c, 1, 76, 60
3, 1522140, Note_off_c, 1, 76, 64
3, 1522140, Note_on_c, 1, 72, 60
3, 1522380, Note_off_c, 1, 72, 64
3, 1522380, Note_on_c, 1, 79, 60
3, 1522615, Note_off_c, 1, 79, 64
3, 1525500, Note_on_c, 1, 70, 45
3, 1527660, Note_off_c, 1, 70, 64
3, 1527660, Note_on_c, 1, 69, 45
3, 1528060, Note_off_c, 1, 69, 64
3, 1544940, Note_on_c, 1, 72, 60
3, 1544940, Note_on_c, 1, 75, 60
3, 1545175, Note_off_c, 1, 75, 64
3, 1545175, Note_off_c, 1, 72, 64
3, 1545180, Note_on_c, 1, 72, 61
3, 1545180, Note_on_c, 1, 75, 61
3, 1545415, Note_off_c, 1, 75, 64
3, 1545415, Note_off_c, 1, 72, 64
3, 1545420, Note_on_c, 1, 72, 62
3, 1545420, Note_on_c, 1, 75, 62
3, 1545655, Note_off_c, 1, 75, 64
3, 1545655, Note_off_c, 1, 72, 64
3, 1545660, Note_on_c, 1, 72, 63
3, 1545660, Note_on_c, 1, 75, 63
3, 1545895, Note_off_c, 1, 75, 64
3, 1545895, Note_off_c, 1, 72, 64
3, 1545900, Note_on_c, 1, 72, 64
3, 1545900, Note_on_c, 1, 75, 64
3, 1546135, Note_off_c, 1, 75, 64
3, 1546135, Note_off_c, 1, 72, 64
3, 1546140, Note_on_c, 1, 72, 65
3, 1546140, Note_on_c, 1, 75, 65
3, 1546375, Note_off_c, 1, 75, 64
3, 1546375, Note_off_c, 1, 72, 64
3, 1546380, Note_on_c, 1, 72, 66
3, 1546380, Note_on_c, 1, 75, 66
3, 1546615, Note_off_c, 1, 75, 64
3, 1546615, Note_off_c, 1, 72, 64
3, 1546620, Note_on_c, 1, 72, 67
3, 1546620, Note_on_c, 1, 75, 67
3, 1546855, Note_off_c, 1, 75, 64
3, 1546855, Note_off_c, 1, 72, 64
3, 1546860, Note_on_c, 1, 72, 69
3, 1546860, Note_on_c, 1, 75, 69
3, 1547095, Note_off_c, 1, 75, 64
3, 1547095, Note_off_c, 1, 72, 64
3, 1547100, Note_on_c, 1, 72, 71
3, 1547100, Note_on_c, 1, 75, 71
3, 1547335, Note_off_c, 1, 75, 64
3, 1547335, Note_off_c, 1, 72, 64
3, 1547340, Note_on_c, 1, 72, 73
3, 1547340, Note_on_c, 1, 75, 73
3, 1547575, Note_off_c, 1, 75, 64
3, 1547575, Note_off_c, 1, 72, 64
3, 1547580, Note_on_c, 1, 69, 75
3, 1547580, Note_on_c, 1, 77, 75
3, 1547815, Note_off_c, 1, 77, 64
3, 1547815, Note_off_c, 1, 69, 64
3, 1547820, Note_on_c, 1, 72, 75
3, 1547820, Note_on_c, 1, 77, 75
3, 1548220, Note_off_c, 1, 77, 64
3, 1548220, Note_off_c, 1, 72, 64
3, 1548300, Note_on_c, 1, 72, 75
3, 1548300, Note_on_c, 1, 77, 75
3, 1548535, Note_off_c, 1, 77, 64
3, 1548535, Note_off_c, 1, 72, 64
3, 1548540, Note_on_c, 1, 72, 75
3, 1548540, Note_on_c, 1, 77, 75
3, 1548940, Note_off_c, 1, 77, 64
3, 1548940, Note_off_c, 1, 72, 64
3, 1549020, Note_on_c, 1, 72, 75
3, 1549020, Note_on_c, 1, 77, 75
3, 1549255, Note_off_c, 1, 77, 64
3, 1549255, Note_off_c, 1, 72, 64
3, 1549260, Note_on_c, 1, 69, 75
3, 1549260, Note_on_c, 1, 77, 75
3, 1549660, Note_off_c, 1, 77, 64
3, 1549660, Note_off_c, 1, 69, 64
3, 1549740, Note_on_c, 1, 69, 75
3, 1549740, Note_on_c, 1, 77, 75
3, 1549975, Note_off_c, 1, 77, 64
3, 1549975, Note_off_c, 1, 69, 64
3, 1549980, Note_on_c, 1, 69, 75
3, 1549980, Note_on_c, 1, 77, 75
3, 1550380, Note_off_c, 1, 77, 64
3, 1550380, Note_off_c, 1, 69, 64
3, 1550460, Note_on_c, 1, 69, 75
3, 1550460, Note_on_c, 1, 77, 75
3, 1550695, Note_off_c, 1, 77, 64
3, 1550695, Note_off_c, 1, 69, 64
3, 1550700, Note_on_c, 1, 70, 75
3, 1550700, Note_on_c, 1, 74, 75
3, 1551100, Note_off_c, 1, 74, 64
3, 1551100, Note_off_c, 1, 70, 64
3, 1553340, Note_on_c, 1, 70, 75
3, 1553340, Note_on_c, 1, 74, 75
3, 1553575, Note_off_c, 1, 74, 64
3, 1553575, Note_off_c, 1, 70, 64
3, 1553580, Note_on_c, 1, 70, 75
3, 1553580, Note_on_c, 1, 75, 75
3, 1554060, Note_off_c, 1, 75, 64
3, 1554060, Note_off_c, 1, 70, 64
3, 1554060, Note_on_c, 1, 69, 75
3, 1554295, Note_off_c, 1, 69, 64
3, 1556220, Note_on_c, 1, 71, 75
3, 1556220, Note_on_c, 1, 74, 75
3, 1556455, Note_off_c, 1, 74, 64
3, 1556455, Note_off_c, 1, 71, 64
3, 1556460, Note_on_c, 1, 71, 75
3, 1556460, Note_on_c, 1, 74, 75
3, 1556940, Note_off_c, 1, 74, 64
3, 1556940, Note_off_c, 1, 71, 64
3, 1556940, Note_on_c, 1, 72, 75
3, 1556940, Note_on_c, 1, 75, 75
3, 1557175, Note_off_c, 1, 75, 64
3, 1557175, Note_off_c, 1, 72, 64
3, 1559100, Note_on_c, 1, 69, 75
3, 1559100, Note_on_c, 1, 72, 75
3, 1559340, Note_off_c, 1, 72, 64
3, 1559340, Note_off_c, 1, 69, 64
3, 1559340, Note_on_c, 1, 70, 75
3, 1559340, Note_on_c, 1, 74, 75
3, 1559740, Note_off_c, 1, 74, 64
3, 1559740, Note_off_c, 1, 70, 64
3, 1560540, Note_on_c, 1, 70, 75
3, 1560540, Note_on_c, 1, 82, 75
3, 1561180, Note_off_c, 1, 82, 64
3, 1561180, Note_off_c, 1, 70, 64
3, 1561980, Note_on_c, 1, 70, 75
3, 1561980, Note_on_c, 1, 82, 75
3, 1562220, Note_off_c, 1, 82, 64
3, 1562220, Note_off_c, 1, 70, 64
3, 1562220, Note_on_c, 1, 70, 75
3, 1562220, Note_on_c, 1, 82, 75
3, 1562620, Note_off_c, 1, 82, 64
3, 1562620, Note_off_c, 1, 70, 64
3, 1563420, Note_on_c, 1, 65, 75
3, 1563420, Note_on_c, 1, 77, 75
3, 1563660, Note_off_c, 1, 77, 64
3, 1563660, Note_off_c, 1, 65, 64
3, 1563660, Note_on_c, 1, 65, 75
3, 1563660, Note_on_c, 1, 77, 75
3, 1564060, Note_off_c, 1, 77, 64
3, 1564060, Note_off_c, 1, 65, 64
3, 1564860, Note_on_c, 1, 65, 75
3, 1564860, Note_on_c, 1, 77, 75
3, 1565100, Note_off_c, 1, 77, 64
3, 1565100, Note_off_c, 1, 65, 64
3, 1565100, Note_on_c, 1, 65, 75
3, 1565100, Note_on_c, 1, 77, 75
3, 1565500, Note_off_c, 1, 77, 64
3, 1565500, Note_off_c, 1, 65, 64
3, 1565580, Note_on_c, 1, 70, 75
3, 1565580, Note_on_c, 1, 82, 75
3, 1565820, Note_off_c, 1, 82, 64
3, 1565820, Note_off_c, 1, 70, 64
3, 1565820, Note_on_c, 1, 70, 75
3, 1565820, Note_on_c, 1, 82, 75
3, 1566300, Note_off_c, 1, 82, 64
3, 1566300, Note_off_c, 1, 70, 64
3, 1566300, Note_on_c, 1, 70, 75
3, 1566300, Note_on_c, 1, 82, 75
3, 1566535, Note_off_c, 1, 82, 64
3, 1566535, Note_off_c, 1, 70, 64
3, 1566540, Note_on_c, 1, 70, 75
3, 1566540, Note_on_c, 1, 82, 75
3, 1567980, Note_off_c, 1, 82, 64
3, 1567980, Note_off_c, 1, 70, 64
3, 1567980, Note_on_c, 1, 70, 75
3, 1567980, Note_on_c, 1, 82, 75
3, 1569420, Note_off_c, 1, 82, 64
3, 1569420, Note_off_c, 1, 70, 64
3, 1569420, Note_on_c, 1, 73, 60
3, 1569420, Note_on_c, 1, 82, 60
3, 1570860, Note_off_c, 1, 82, 64
3, 1570860, Note_on_c, 1, 80, 60
3, 1571260, Note_off_c, 1, 73, 64
3, 1571260, Note_off_c, 1, 80, 64
3, 1580700, Note_on_c, 1, 77, 75
3, 1580700, Note_on_c, 1, 81, 75
3, 1580935, Note_off_c, 1, 81, 64
3, 1580935, Note_off_c, 1, 77, 64
3, 1580940, Note_on_c, 1, 71, 75
3, 1581660, Note_off_c, 1, 71, 64
3, 1581660, Note_on_c, 1, 67, 75
3, 1581895, Note_off_c, 1, 67, 64
3, 1582140, Note_on_c, 1, 74, 75
3, 1582375, Note_off_c, 1, 74, 64
3, 1582380, Note_on_c, 1, 72, 75
3, 1583100, Note_off_c, 1, 72, 64
3, 1583100, Note_on_c, 1, 67, 75
3, 1583335, Note_off_c, 1, 67, 64
3, 1583580, Note_on_c, 1, 76, 75
3, 1583815, Note_off_c, 1, 76, 64
3, 1586460, Note_on_c, 1, 74, 60
3, 1586460, Note_on_c, 1, 77, 60
3, 1586695, Note_off_c, 1, 77, 64
3, 1586695, Note_off_c, 1, 74, 64
3, 1586700, Note_on_c, 1, 71, 60
3, 1587420, Note_off_c, 1, 71, 64
3, 1587420, Note_on_c, 1, 67, 63
3, 1587655, Note_off_c, 1, 67, 64
3, 1587900, Note_on_c, 1, 74, 65
3, 1588135, Note_off_c, 1, 74, 64
3, 1588140, Note_on_c, 1, 72, 66
3, 1588860, Note_off_c, 1, 72, 64
3, 1588860, Note_on_c, 1, 67, 70
3, 1589095, Note_off_c, 1, 67, 64
3, 1589340, Note_on_c, 1, 76, 73
3, 1589575, Note_off_c, 1, 76, 64
3, 1589580, Note_on_c, 1, 72, 75
3, 1590300, Note_off_c, 1, 72, 64
3, 1590300, Note_on_c, 1, 67, 75
3, 1590535, Note_off_c, 1, 67, 64
3, 1590780, Note_on_c, 1, 76, 75
3, 1591015, Note_off_c, 1, 76, 64
3, 1591020, Note_on_c, 1, 72, 75
3, 1591740, Note_off_c, 1, 72, 64
3, 1591740, Note_on_c, 1, 67, 75
3, 1591975, Note_off_c, 1, 67, 64
3, 1592220, Note_on_c, 1, 76, 75
3, 1592455, Note_off_c, 1, 76, 64
3, 1592460, Note_on_c, 1, 72, 60
3, 1593180, Note_off_c, 1, 72, 64
3, 1593180, Note_on_c, 1, 67, 60
3, 1593660, Note_off_c, 1, 67, 64
3, 1593660, Note_on_c, 1, 76, 57
3, 1593900, Note_off_c, 1, 76, 64
3, 1593900, Note_on_c, 1, 72, 56
3, 1594620, Note_off_c, 1, 72, 64
3, 1594620, Note_on_c, 1, 67, 51
3, 1595100, Note_off_c, 1, 67, 64
3, 1595100, Note_on_c, 1, 76, 47
3, 1595335, Note_off_c, 1, 76, 64
3, 1595340, Note_on_c, 1, 72, 45
3, 1595580, Note_off_c, 1, 72, 64
3, 1595580, Note_on_c, 1, 67, 45
3, 1595820, Note_off_c, 1, 67, 64
3, 1595820, Note_on_c, 1, 76, 45
3, 1596060, Note_off_c, 1, 76, 64
3, 1596060, Note_on_c, 1, 72, 45
3, 1596300, Note_off_c, 1, 72, 64
3, 1596300, Note_on_c, 1, 67, 45
3, 1596540, Note_off_c, 1, 67, 64
3, 1596540, Note_on_c, 1, 76, 45
3, 1596780, Note_off_c, 1, 76, 64
3, 1596780, Note_on_c, 1, 72, 45
3, 1597020, Note_off_c, 1, 72, 64
3, 1597020, Note_on_c, 1, 67, 45
3, 1597260, Note_off_c, 1, 67, 64
3, 1597260, Note_on_c, 1, 76, 45
3, 1597500, Note_off_c, 1, 76, 64
3, 1597500, Note_on_c, 1, 72, 45
3, 1597740, Note_off_c, 1, 72, 64
3, 1597740, Note_on_c, 1, 67, 45
3, 1597980, Note_off_c, 1, 67, 64
3, 1597980, Note_on_c, 1, 76, 45
3, 1598220, Note_off_c, 1, 76, 64
3, 1598220, Note_on_c, 1, 72, 30
3, 1598220, Note_on_c, 1, 76, 30
3, 1600980, Note_off_c, 1, 76, 64
3, 1600980, Note_off_c, 1, 72, 64
3, 1601100, Note_on_c, 1, 76, 30
3, 1601100, Note_on_c, 1, 79, 30
3, 1603980, Note_off_c, 1, 79, 64
3, 1603980, Note_off_c, 1, 76, 64
3, 1603980, Note_on_c, 1, 77, 45
3, 1603980, Note_on_c, 1, 81, 45
3, 1604380, Note_off_c, 1, 81, 64
3, 1604380, Note_off_c, 1, 77, 64
3, 1625820, Note_on_c, 1, 77, 45
3, 1625820, Note_on_c, 1, 81, 45
3, 1626055, Note_off_c, 1, 81, 64
3, 1626055, Note_off_c, 1, 77, 64
3, 1626060, Note_on_c, 1, 77, 45
3, 1626060, Note_on_c, 1, 81, 45
3, 1626295, Note_off_c, 1, 81, 64
3, 1626295, Note_off_c, 1, 77, 64
3, 1626300, Note_on_c, 1, 77, 45
3, 1626300, Note_on_c, 1, 81, 45
3, 1626535, Note_off_c, 1, 81, 64
3, 1626535, Note_off_c, 1, 77, 64
3, 1626540, Note_on_c, 1, 77, 45
3, 1626540, Note_on_c, 1, 81, 45
3, 1626775, Note_off_c, 1, 81, 64
3, 1626775, Note_off_c, 1, 77, 64
3, 1626780, Note_on_c, 1, 77, 45
3, 1626780, Note_on_c, 1, 81, 45
3, 1627015, Note_off_c, 1, 81, 64
3, 1627015, Note_off_c, 1, 77, 64
3, 1627020, Note_on_c, 1, 77, 75
3, 1627020, Note_on_c, 1, 81, 75
3, 1628140, Note_off_c, 1, 81, 64
3, 1628140, Note_off_c, 1, 77, 64
3, 1628220, Note_on_c, 1, 77, 75
3, 1628220, Note_on_c, 1, 81, 75
3, 1628455, Note_off_c, 1, 81, 64
3, 1628455, Note_off_c, 1, 77, 64
3, 1628460, Note_on_c, 1, 77, 75
3, 1628460, Note_on_c, 1, 81, 75
3, 1629580, Note_off_c, 1, 81, 64
3, 1629580, Note_off_c, 1, 77, 64
3, 1629660, Note_on_c, 1, 77, 75
3, 1629660, Note_on_c, 1, 81, 75
3, 1629895, Note_off_c, 1, 81, 64
3, 1629895, Note_off_c, 1, 77, 64
3, 1629900, Note_on_c, 1, 77, 75
3, 1629900, Note_on_c, 1, 81, 75
3, 1631020, Note_off_c, 1, 81, 64
3, 1631020, Note_off_c, 1, 77, 64
3, 1631100, Note_on_c, 1, 77, 75
3, 1631100, Note_on_c, 1, 81, 75
3, 1631335, Note_off_c, 1, 81, 64
3, 1631335, Note_off_c, 1, 77, 64
3, 1631340, Note_on_c, 1, 77, 75
3, 1631340, Note_on_c, 1, 82, 75
3, 1632460, Note_off_c, 1, 82, 64
3, 1632460, Note_off_c, 1, 77, 64
3, 1632540, Note_on_c, 1, 77, 75
3, 1632540, Note_on_c, 1, 82, 75
3, 1632775, Note_off_c, 1, 82, 64
3, 1632775, Note_off_c, 1, 77, 64
3, 1632780, Note_on_c, 1, 79, 75
3, 1632780, Note_on_c, 1, 82, 75
3, 1633900, Note_off_c, 1, 82, 64
3, 1633900, Note_off_c, 1, 79, 64
3, 1633980, Note_on_c, 1, 79, 75
3, 1633980, Note_on_c, 1, 82, 75
3, 1634215, Note_off_c, 1, 82, 64
3, 1634215, Note_off_c, 1, 79, 64
3, 1634220, Note_on_c, 1, 79, 75
3, 1634220, Note_on_c, 1, 81, 75
3, 1634455, Note_off_c, 1, 79, 64
3, 1634460, Note_on_c, 1, 77, 75
3, 1635340, Note_off_c, 1, 81, 64
3, 1635340, Note_off_c, 1, 77, 64
3, 1635420, Note_on_c, 1, 77, 75
3, 1635420, Note_on_c, 1, 81, 75
3, 1635655, Note_off_c, 1, 81, 64
3, 1635655, Note_off_c, 1, 77, 64
3, 1635660, Note_on_c, 1, 77, 75
3, 1635660, Note_on_c, 1, 79, 75
3, 1636380, Note_off_c, 1, 79, 64
3, 1636380, Note_off_c, 1, 77, 64
3, 1636380, Note_on_c, 1, 76, 75
3, 1636380, Note_on_c, 1, 79, 75
3, 1637100, Note_off_c, 1, 79, 64
3, 1637100, Note_off_c, 1, 76, 64
3, 1637100, Note_on_c, 1, 77, 75
3, 1637100, Note_on_c, 1, 81, 75
3, 1637335, Note_off_c, 1, 81, 64
3, 1637335, Note_off_c, 1, 77, 64
3, 1639740, Note_on_c, 1, 76, 75
3, 1639740, Note_on_c, 1, 79, 75
3, 1639975, Note_off_c, 1, 79, 64
3, 1639975, Note_off_c, 1, 76, 64
3, 1639980, Note_on_c, 1, 77, 75
3, 1640700, Note_off_c, 1, 77, 64
3, 1640700, Note_on_c, 1, 79, 75
3, 1641420, Note_off_c, 1, 79, 64
3, 1641420, Note_on_c, 1, 77, 75
3, 1641420, Note_on_c, 1, 81, 75
3, 1642060, Note_off_c, 1, 81, 64
3, 1642060, Note_off_c, 1, 77, 64
3, 1642140, Note_on_c, 1, 79, 75
3, 1642140, Note_on_c, 1, 82, 75
3, 1642540, Note_off_c, 1, 82, 64
3, 1642540, Note_off_c, 1, 79, 64
3, 1642620, Note_on_c, 1, 76, 75
3, 1642620, Note_on_c, 1, 79, 75
3, 1642855, Note_off_c, 1, 79, 64
3, 1642855, Note_off_c, 1, 76, 64
3, 1645500, Note_on_c, 1, 71, 60
3, 1645500, Note_on_c, 1, 77, 60
3, 1645740, Note_off_c, 1, 77, 64
3, 1645740, Note_off_c, 1, 71, 64
3, 1645740, Note_on_c, 1, 72, 60
3, 1645740, Note_on_c, 1, 77, 60
3, 1646380, Note_off_c, 1, 77, 64
3, 1646380, Note_off_c, 1, 72, 64
3, 1646460, Note_on_c, 1, 74, 60
3, 1646460, Note_on_c, 1, 77, 60
3, 1646860, Note_off_c, 1, 77, 64
3, 1646860, Note_off_c, 1, 74, 64
3, 1646940, Note_on_c, 1, 74, 60
3, 1646940, Note_on_c, 1, 77, 60
3, 1647175, Note_off_c, 1, 77, 64
3, 1647175, Note_off_c, 1, 74, 64
3, 1647180, Note_on_c, 1, 72, 60
3, 1647180, Note_on_c, 1, 76, 60
3, 1647820, Note_off_c, 1, 76, 64
3, 1647820, Note_off_c, 1, 72, 64
3, 1647900, Note_on_c, 1, 71, 60
3, 1647900, Note_on_c, 1, 77, 60
3, 1648300, Note_off_c, 1, 77, 64
3, 1648300, Note_off_c, 1, 71, 64
3, 1648380, Note_on_c, 1, 67, 60
3, 1648380, Note_on_c, 1, 71, 60
3, 1648615, Note_off_c, 1, 71, 64
3, 1648615, Note_off_c, 1, 67, 64
3, 1648620, Note_on_c, 1, 67, 60
3, 1648620, Note_on_c, 1, 72, 60
3, 1649260, Note_off_c, 1, 72, 64
3, 1649260, Note_off_c, 1, 67, 64
3, 1649340, Note_on_c, 1, 69, 60
3, 1649340, Note_on_c, 1, 72, 60
3, 1649980, Note_off_c, 1, 72, 64
3, 1649980, Note_off_c, 1, 69, 64
3, 1650060, Note_on_c, 1, 70, 60
3, 1650060, Note_on_c, 1, 72, 60
3, 1650460, Note_off_c, 1, 72, 64
3, 1650460, Note_off_c, 1, 70, 64
3, 1650540, Note_on_c, 1, 70, 60
3, 1650540, Note_on_c, 1, 79, 60
3, 1650775, Note_off_c, 1, 79, 64
3, 1650775, Note_off_c, 1, 70, 64
3, 1650780, Note_on_c, 1, 71, 60
3, 1650780, Note_on_c, 1, 80, 60
3, 1651180, Note_off_c, 1, 80, 64
3, 1651180, Note_off_c, 1, 71, 64
3, 1651260, Note_on_c, 1, 71, 60
3, 1651260, Note_on_c, 1, 80, 60
3, 1651495, Note_off_c, 1, 80, 64
3, 1651495, Note_off_c, 1, 71, 64
3, 1651500, Note_on_c, 1, 72, 60
3, 1651500, Note_on_c, 1, 81, 60
3, 1652620, Note_off_c, 1, 81, 64
3, 1652620, Note_off_c, 1, 72, 64
3, 1652700, Note_on_c, 1, 77, 60
3, 1652700, Note_on_c, 1, 81, 60
3, 1652935, Note_off_c, 1, 81, 64
3, 1652935, Note_off_c, 1, 77, 64
3, 1652940, Note_on_c, 1, 77, 60
3, 1652940, Note_on_c, 1, 81, 60
3, 1653340, Note_off_c, 1, 81, 64
3, 1653340, Note_off_c, 1, 77, 64
3, 1653420, Note_on_c, 1, 77, 60
3, 1653420, Note_on_c, 1, 81, 60
3, 1653655, Note_off_c, 1, 81, 64
3, 1653655, Note_off_c, 1, 77, 64
3, 1653660, Note_on_c, 1, 77, 60
3, 1653660, Note_on_c, 1, 81, 60
3, 1654060, Note_off_c, 1, 81, 64
3, 1654060, Note_off_c, 1, 77, 64
3, 1654140, Note_on_c, 1, 77, 60
3, 1654140, Note_on_c, 1, 81, 60
3, 1654375, Note_off_c, 1, 81, 64
3, 1654375, Note_off_c, 1, 77, 64
3, 1654380, Note_on_c, 1, 79, 60
3, 1654380, Note_on_c, 1, 82, 60
3, 1655500, Note_off_c, 1, 82, 64
3, 1655500, Note_off_c, 1, 79, 64
3, 1655580, Note_on_c, 1, 76, 60
3, 1655580, Note_on_c, 1, 79, 60
3, 1655815, Note_off_c, 1, 79, 64
3, 1655815, Note_off_c, 1, 76, 64
3, 1655820, Note_on_c, 1, 76, 60
3, 1655820, Note_on_c, 1, 79, 60
3, 1656220, Note_off_c, 1, 79, 64
3, 1656220, Note_off_c, 1, 76, 64
3, 1656300, Note_on_c, 1, 76, 60
3, 1656300, Note_on_c, 1, 79, 60
3, 1656535, Note_off_c, 1, 79, 64
3, 1656535, Note_off_c, 1, 76, 64
3, 1656540, Note_on_c, 1, 76, 60
3, 1656540, Note_on_c, 1, 79, 60
3, 1656940, Note_off_c, 1, 79, 64
3, 1656940, Note_off_c, 1, 76, 64
3, 1657020, Note_on_c, 1, 76, 60
3, 1657020, Note_on_c, 1, 79, 60
3, 1657255, Note_off_c, 1, 79, 64
3, 1657255, Note_off_c, 1, 76, 64
3, 1657260, Note_on_c, 1, 72, 60
3, 1657260, Note_on_c, 1, 81, 60
3, 1657660, Note_off_c, 1, 81, 64
3, 1657660, Note_off_c, 1, 72, 64
3, 1657740, Note_on_c, 1, 72, 60
3, 1657740, Note_on_c, 1, 81, 60
3, 1657975, Note_off_c, 1, 81, 64
3, 1657975, Note_off_c, 1, 72, 64
3, 1657980, Note_on_c, 1, 72, 60
3, 1657980, Note_on_c, 1, 81, 60
3, 1658380, Note_off_c, 1, 81, 64
3, 1658380, Note_off_c, 1, 72, 64
3, 1658460, Note_on_c, 1, 72, 60
3, 1658460, Note_on_c, 1, 81, 60
3, 1658695, Note_off_c, 1, 81, 64
3, 1658695, Note_off_c, 1, 72, 64
3, 1658700, Note_on_c, 1, 72, 60
3, 1658700, Note_on_c, 1, 81, 60
3, 1659100, Note_off_c, 1, 81, 64
3, 1659100, Note_off_c, 1, 72, 64
3, 1659180, Note_on_c, 1, 77, 60
3, 1659180, Note_on_c, 1, 81, 60
3, 1659415, Note_off_c, 1, 81, 64
3, 1659415, Note_off_c, 1, 77, 64
3, 1659420, Note_on_c, 1, 77, 60
3, 1659420, Note_on_c, 1, 81, 60
3, 1659820, Note_off_c, 1, 81, 64
3, 1659820, Note_off_c, 1, 77, 64
3, 1659900, Note_on_c, 1, 77, 60
3, 1659900, Note_on_c, 1, 81, 60
3, 1660135, Note_off_c, 1, 81, 64
3, 1660135, Note_off_c, 1, 77, 64
3, 1660140, Note_on_c, 1, 70, 60
3, 1660140, Note_on_c, 1, 79, 60
3, 1660540, Note_off_c, 1, 79, 64
3, 1660540, Note_off_c, 1, 70, 64
3, 1660620, Note_on_c, 1, 70, 60
3, 1660620, Note_on_c, 1, 79, 60
3, 1660855, Note_off_c, 1, 79, 64
3, 1660855, Note_off_c, 1, 70, 64
3, 1660860, Note_on_c, 1, 70, 60
3, 1660860, Note_on_c, 1, 79, 60
3, 1661260, Note_off_c, 1, 79, 64
3, 1661260, Note_off_c, 1, 70, 64
3, 1661340, Note_on_c, 1, 70, 60
3, 1661340, Note_on_c, 1, 79, 60
3, 1661575, Note_off_c, 1, 79, 64
3, 1661575, Note_off_c, 1, 70, 64
3, 1661580, Note_on_c, 1, 70, 60
3, 1661580, Note_on_c, 1, 79, 60
3, 1661980, Note_off_c, 1, 79, 64
3, 1661980, Note_off_c, 1, 70, 64
3, 1662060, Note_on_c, 1, 76, 60
3, 1662060, Note_on_c, 1, 79, 60
3, 1662295, Note_off_c, 1, 79, 64
3, 1662295, Note_off_c, 1, 76, 64
3, 1662300, Note_on_c, 1, 76, 60
3, 1662300, Note_on_c, 1, 79, 60
3, 1662700, Note_off_c, 1, 79, 64
3, 1662700, Note_off_c, 1, 76, 64
3, 1662780, Note_on_c, 1, 76, 60
3, 1662780, Note_on_c, 1, 79, 60
3, 1663015, Note_off_c, 1, 79, 64
3, 1663015, Note_off_c, 1, 76, 64
3, 1663020, Note_on_c, 1, 77, 60
3, 1663020, Note_on_c, 1, 81, 60
3, 1663420, Note_off_c, 1, 81, 64
3, 1663420, Note_off_c, 1, 77, 64
3, 1664940, Note_on_c, 1, 77, 60
3, 1664940, Note_on_c, 1, 81, 60
3, 1665180, Note_off_c, 1, 81, 64
3, 1665180, Note_off_c, 1, 77, 64
3, 1665180, Note_on_c, 1, 79, 60
3, 1665180, Note_on_c, 1, 82, 60
3, 1665580, Note_off_c, 1, 82, 64
3, 1665580, Note_off_c, 1, 79, 64
3, 1665660, Note_on_c, 1, 79, 60
3, 1665660, Note_on_c, 1, 82, 60
3, 1665900, Note_off_c, 1, 82, 64
3, 1665900, Note_off_c, 1, 79, 64
3, 1665900, Note_on_c, 1, 77, 60
3, 1665900, Note_on_c, 1, 81, 60
3, 1666300, Note_off_c, 1, 81, 64
3, 1666300, Note_off_c, 1, 77, 64
3, 1667100, Note_on_c, 1, 74, 45
3, 1667340, Note_off_c, 1, 74, 64
3, 1667340, Note_on_c, 1, 72, 45
3, 1667580, Note_off_c, 1, 72, 64
3, 1667580, Note_on_c, 1, 76, 55
3, 1667820, Note_off_c, 1, 76, 64
3, 1667820, Note_on_c, 1, 69, 65
3, 1667820, Note_on_c, 1, 77, 65
3, 1668055, Note_off_c, 1, 77, 64
3, 1668055, Note_off_c, 1, 69, 64
3, 1668060, Note_on_c, 1, 70, 75
3, 1668060, Note_on_c, 1, 79, 75
3, 1668460, Note_off_c, 1, 79, 64
3, 1668460, Note_off_c, 1, 70, 64
3, 1668540, Note_on_c, 1, 72, 75
3, 1668540, Note_on_c, 1, 79, 75
3, 1668620, Note_off_c, 1, 79, 64
3, 1668620, Note_off_c, 1, 72, 64
3, 1668780, Note_on_c, 1, 69, 75
3, 1668780, Note_on_c, 1, 77, 75
3, 1668780, Note_on_c, 1, 81, 75
3, 1669500, Note_off_c, 1, 81, 64
3, 1669500, Note_off_c, 1, 77, 64
3, 1669500, Note_off_c, 1, 69, 64
3, 1669500, Note_on_c, 1, 72, 75
3, 1669500, Note_on_c, 1, 77, 75
3, 1669735, Note_off_c, 1, 77, 64
3, 1669735, Note_off_c, 1, 72, 64
3, 1669980, Note_on_c, 1, 72, 75
3, 1669980, Note_on_c, 1, 81, 75
3, 1670060, Note_off_c, 1, 81, 64
3, 1670060, Note_off_c, 1, 72, 64
3, 1670220, Note_on_c, 1, 70, 75
3, 1670220, Note_on_c, 1, 79, 75
3, 1670220, Note_on_c, 1, 82, 75
3, 1670940, Note_off_c, 1, 82, 64
3, 1670940, Note_off_c, 1, 79, 64
3, 1670940, Note_off_c, 1, 70, 64
3, 1670940, Note_on_c, 1, 74, 75
3, 1670940, Note_on_c, 1, 79, 75
3, 1671175, Note_off_c, 1, 79, 64
3, 1671175, Note_off_c, 1, 74, 64
3, 1671420, Note_on_c, 1, 74, 75
3, 1671420, Note_on_c, 1, 82, 75
3, 1671500, Note_off_c, 1, 82, 64
3, 1671500, Note_off_c, 1, 74, 64
3, 1671660, Note_on_c, 1, 77, 60
3, 1671660, Note_on_c, 1, 81, 60
3, 1671895, Note_off_c, 1, 81, 64
3, 1671895, Note_off_c, 1, 77, 64
3, 1682460, Note_on_c, 1, 79, 45
3, 1682860, Note_off_c, 1, 79, 64
3, 1683180, Note_on_c, 1, 79, 45
3, 1683580, Note_off_c, 1, 79, 64
3, 1683900, Note_on_c, 1, 79, 49
3, 1684300, Note_off_c, 1, 79, 64
3, 1684620, Note_on_c, 1, 79, 53
3, 1685020, Note_off_c, 1, 79, 64
3, 1685340, Note_on_c, 1, 79, 59
3, 1685740, Note_off_c, 1, 79, 64
3, 1686060, Note_on_c, 1, 79, 65
3, 1686460, Note_off_c, 1, 79, 64
3, 1686780, Note_on_c, 1, 79, 71
3, 1687015, Note_off_c, 1, 79, 64
3, 1687260, Note_on_c, 1, 79, 75
3, 1687260, Note_on_c, 1, 82, 75
3, 1688620, Note_off_c, 1, 82, 64
3, 1688620, Note_off_c, 1, 79, 64
3, 1688700, Note_on_c, 1, 79, 75
3, 1688700, Note_on_c, 1, 82, 75
3, 1689340, Note_off_c, 1, 82, 64
3, 1689340, Note_off_c, 1, 79, 64
3, 1689420, Note_on_c, 1, 79, 75
3, 1689420, Note_on_c, 1, 82, 75
3, 1690060, Note_off_c, 1, 82, 64
3, 1690060, Note_off_c, 1, 79, 64
3, 1690140, Note_on_c, 1, 79, 75
3, 1690140, Note_on_c, 1, 82, 75
3, 1690375, Note_off_c, 1, 82, 64
3, 1690375, Note_off_c, 1, 79, 64
3, 1690380, Note_on_c, 1, 77, 75
3, 1690380, Note_on_c, 1, 81, 75
3, 1690615, Note_off_c, 1, 81, 64
3, 1690615, Note_off_c, 1, 77, 64
3, 1699260, Note_on_c, 1, 78, 30
3, 1700700, Note_off_c, 1, 78, 64
3, 1700700, Note_on_c, 1, 79, 30
3, 1701100, Note_off_c, 1, 79, 64
3, 1702140, Note_on_c, 1, 76, 30
3, 1703580, Note_off_c, 1, 76, 64
3, 1703580, Note_on_c, 1, 77, 30
3, 1703980, Note_off_c, 1, 77, 64
3, 1705260, Note_on_c, 1, 78, 32
3, 1705495, Note_off_c, 1, 78, 64
3, 1705500, Note_on_c, 1, 78, 34
3, 1705735, Note_off_c, 1, 78, 64
3, 1705740, Note_on_c, 1, 78, 36
3, 1705975, Note_off_c, 1, 78, 64
3, 1705980, Note_on_c, 1, 78, 38
3, 1706215, Note_off_c, 1, 78, 64
3, 1706220, Note_on_c, 1, 78, 40
3, 1706455, Note_off_c, 1, 78, 64
3, 1706460, Note_on_c, 1, 79, 42
3, 1706860, Note_off_c, 1, 79, 64
3, 1708140, Note_on_c, 1, 76, 60
3, 1708140, Note_on_c, 1, 79, 60
3, 1708375, Note_off_c, 1, 79, 64
3, 1708375, Note_off_c, 1, 76, 64
3, 1708380, Note_on_c, 1, 76, 63
3, 1708380, Note_on_c, 1, 79, 63
3, 1708615, Note_off_c, 1, 79, 64
3, 1708615, Note_off_c, 1, 76, 64
3, 1708620, Note_on_c, 1, 76, 66
3, 1708620, Note_on_c, 1, 79, 66
3, 1708855, Note_off_c, 1, 79, 64
3, 1708855, Note_off_c, 1, 76, 64
3, 1708860, Note_on_c, 1, 76, 69
3, 1708860, Note_on_c, 1, 79, 69
3, 1709095, Note_off_c, 1, 79, 64
3, 1709095, Note_off_c, 1, 76, 64
3, 1709100, Note_on_c, 1, 76, 72
3, 1709100, Note_on_c, 1, 79, 72
3, 1709335, Note_off_c, 1, 79, 64
3, 1709335, Note_off_c, 1, 76, 64
3, 1709340, Note_on_c, 1, 77, 75
3, 1709340, Note_on_c, 1, 81, 75
3, 1711900, Note_off_c, 1, 81, 64
3, 1711900, Note_off_c, 1, 77, 64
3, 1711980, Note_on_c, 1, 77, 75
3, 1711980, Note_on_c, 1, 81, 75
3, 1712215, Note_off_c, 1, 81, 64
3, 1712215, Note_off_c, 1, 77, 64
3, 1712220, Note_on_c, 1, 77, 75
3, 1712220, Note_on_c, 1, 81, 75
3, 1714780, Note_off_c, 1, 81, 64
3, 1714780, Note_off_c, 1, 77, 64
3, 1714860, Note_on_c, 1, 77, 75
3, 1714860, Note_on_c, 1, 81, 75
3, 1715095, Note_off_c, 1, 81, 64
3, 1715095, Note_off_c, 1, 77, 64
3, 1715100, Note_on_c, 1, 71, 75
3, 1715100, Note_on_c, 1, 83, 75
3, 1717660, Note_off_c, 1, 83, 64
3, 1717660, Note_off_c, 1, 71, 64
3, 1717740, Note_on_c, 1, 71, 60
3, 1717740, Note_on_c, 1, 83, 60
3, 1717975, Note_off_c, 1, 83, 64
3, 1717975, Note_off_c, 1, 71, 64
3, 1723500, Note_on_c, 1, 79, 60
3, 1723580, Note_off_c, 1, 79, 64
3, 1723620, Note_on_c, 1, 79, 60
3, 1723700, Note_off_c, 1, 79, 64
3, 1723740, Note_on_c, 1, 79, 60
3, 1723975, Note_off_c, 1, 79, 64
3, 1724220, Note_on_c, 1, 79, 60
3, 1724300, Note_off_c, 1, 79, 64
3, 1724340, Note_on_c, 1, 79, 60
3, 1724420, Note_off_c, 1, 79, 64
3, 1724460, Note_on_c, 1, 79, 60
3, 1724695, Note_off_c, 1, 79, 64
3, 1724940, Note_on_c, 1, 79, 60
3, 1725020, Note_off_c, 1, 79, 64
3, 1725060, Note_on_c, 1, 79, 60
3, 1725140, Note_off_c, 1, 79, 64
3, 1725180, Note_on_c, 1, 79, 60
3, 1725415, Note_off_c, 1, 79, 64
3, 1725660, Note_on_c, 1, 79, 60
3, 1725740, Note_off_c, 1, 79, 64
3, 1725780, Note_on_c, 1, 79, 60
3, 1725860, Note_off_c, 1, 79, 64
3, 1725900, Note_on_c, 1, 79, 60
3, 1726135, Note_off_c, 1, 79, 64
3, 1726380, Note_on_c, 1, 76, 62
3, 1726380, Note_on_c, 1, 79, 62
3, 1726460, Note_off_c, 1, 79, 64
3, 1726460, Note_off_c, 1, 76, 64
3, 1726500, Note_on_c, 1, 76, 62
3, 1726500, Note_on_c, 1, 79, 62
3, 1726580, Note_off_c, 1, 79, 64
3, 1726580, Note_off_c, 1, 76, 64
3, 1726620, Note_on_c, 1, 76, 62
3, 1726620, Note_on_c, 1, 79, 62
3, 1726855, Note_off_c, 1, 79, 64
3, 1726855, Note_off_c, 1, 76, 64
3, 1727100, Note_on_c, 1, 76, 64
3, 1727100, Note_on_c, 1, 79, 64
3, 1727180, Note_off_c, 1, 79, 64
3, 1727180, Note_off_c, 1, 76, 64
3, 1727220, Note_on_c, 1, 76, 64
3, 1727220, Note_on_c, 1, 79, 64
3, 1727300, Note_off_c, 1, 79, 64
3, 1727300, Note_off_c, 1, 76, 64
3, 1727340, Note_on_c, 1, 76, 64
3, 1727340, Note_on_c, 1, 79, 64
3, 1727575, Note_off_c, 1, 79, 64
3, 1727575, Note_off_c, 1, 76, 64
3, 1727820, Note_on_c, 1, 76, 66
3, 1727820, Note_on_c, 1, 79, 66
3, 1727900, Note_off_c, 1, 79, 64
3, 1727900, Note_off_c, 1, 76, 64
3, 1727940, Note_on_c, 1, 76, 66
3, 1727940, Note_on_c, 1, 79, 66
3, 1728020, Note_off_c, 1, 79, 64
3, 1728020, Note_off_c, 1, 76, 64
3, 1728060, Note_on_c, 1, 76, 66
3, 1728060, Note_on_c, 1, 79, 66
3, 1728295, Note_off_c, 1, 79, 64
3, 1728295, Note_off_c, 1, 76, 64
3, 1728540, Note_on_c, 1, 76, 69
3, 1728540, Note_on_c, 1, 79, 69
3, 1728620, Note_off_c, 1, 79, 64
3, 1728620, Note_off_c, 1, 76, 64
3, 1728660, Note_on_c, 1, 76, 70
3, 1728660, Note_on_c, 1, 79, 70
3, 1728740, Note_off_c, 1, 79, 64
3, 1728740, Note_off_c, 1, 76, 64
3, 1728780, Note_on_c, 1, 76, 71
3, 1728780, Note_on_c, 1, 79, 71
3, 1729015, Note_off_c, 1, 79, 64
3, 1729015, Note_off_c, 1, 76, 64
3, 1729260, Note_on_c, 1, 79, 75
3, 1729260, Note_on_c, 1, 82, 75
3, 1730620, Note_off_c, 1, 82, 64
3, 1730620, Note_off_c, 1, 79, 64
3, 1730700, Note_on_c, 1, 79, 75
3, 1730700, Note_on_c, 1, 82, 75
3, 1731340, Note_off_c, 1, 82, 64
3, 1731340, Note_off_c, 1, 79, 64
3, 1731420, Note_on_c, 1, 79, 75
3, 1731420, Note_on_c, 1, 82, 75
3, 1732060, Note_off_c, 1, 82, 64
3, 1732060, Note_off_c, 1, 79, 64
3, 1732140, Note_on_c, 1, 79, 75
3, 1732140, Note_on_c, 1, 82, 75
3, 1732380, Note_off_c, 1, 82, 64
3, 1732380, Note_off_c, 1, 79, 64
3, 1732380, Note_on_c, 1, 77, 75
3, 1732380, Note_on_c, 1, 81, 75
3, 1732780, Note_off_c, 1, 81, 64
3, 1732780, Note_off_c, 1, 77, 64
3, 1743660, Note_on_c, 1, 74, 45
3, 1743900, Note_off_c, 1, 74, 64
3, 1743900, Note_on_c, 1, 76, 45
3, 1744380, Note_off_c, 1, 76, 64
3, 1744380, Note_on_c, 1, 79, 50
3, 1744620, Note_off_c, 1, 79, 64
3, 1744620, Note_on_c, 1, 82, 52
3, 1745100, Note_off_c, 1, 82, 64
3, 1745100, Note_on_c, 1, 79, 57
3, 1745340, Note_off_c, 1, 79, 64
3, 1745340, Note_on_c, 1, 81, 60
3, 1745980, Note_off_c, 1, 81, 64
3, 1750140, Note_on_c, 1, 76, 75
3, 1750140, Note_on_c, 1, 79, 75
3, 1750380, Note_off_c, 1, 79, 64
3, 1750380, Note_off_c, 1, 76, 64
3, 1750380, Note_on_c, 1, 79, 75
3, 1750380, Note_on_c, 1, 82, 75
3, 1750780, Note_off_c, 1, 82, 64
3, 1750780, Note_off_c, 1, 79, 64
3, 1750860, Note_on_c, 1, 79, 75
3, 1750860, Note_on_c, 1, 82, 75
3, 1751095, Note_off_c, 1, 82, 64
3, 1751095, Note_off_c, 1, 79, 64
3, 1751100, Note_on_c, 1, 77, 75
3, 1751100, Note_on_c, 1, 81, 75
3, 1753660, Note_off_c, 1, 81, 64
3, 1753660, Note_off_c, 1, 77, 64
3, 1753740, Note_on_c, 1, 77, 75
3, 1753740, Note_on_c, 1, 81, 75
3, 1753975, Note_off_c, 1, 81, 64
3, 1753975, Note_off_c, 1, 77, 64
3, 1753980, Note_on_c, 1, 77, 75
3, 1753980, Note_on_c, 1, 81, 75
3, 1756540, Note_off_c, 1, 81, 64
3, 1756540, Note_off_c, 1, 77, 64
3, 1756620, Note_on_c, 1, 77, 75
3, 1756620, Note_on_c, 1, 86, 75
3, 1756855, Note_off_c, 1, 86, 64
3, 1756855, Note_off_c, 1, 77, 64
3, 1756860, Note_on_c, 1, 83, 75
3, 1756860, Note_on_c, 1, 86, 75
3, 1759420, Note_off_c, 1, 86, 64
3, 1759420, Note_off_c, 1, 83, 64
3, 1759500, Note_on_c, 1, 83, 75
3, 1759500, Note_on_c, 1, 86, 75
3, 1759735, Note_off_c, 1, 86, 64
3, 1759735, Note_off_c, 1, 83, 64
3, 1759740, Note_on_c, 1, 82, 75
3, 1759740, Note_on_c, 1, 84, 75
3, 1762300, Note_off_c, 1, 84, 64
3, 1762300, Note_off_c, 1, 82, 64
3, 1762380, Note_on_c, 1, 82, 75
3, 1762380, Note_on_c, 1, 84, 75
3, 1762615, Note_off_c, 1, 84, 64
3, 1762615, Note_off_c, 1, 82, 64
3, 1762620, Note_on_c, 1, 81, 75
3, 1762620, Note_on_c, 1, 84, 75
3, 1765380, Note_off_c, 1, 84, 64
3, 1765380, Note_off_c, 1, 81, 64
3, 1765500, Note_on_c, 1, 77, 75
3, 1765500, Note_on_c, 1, 82, 75
3, 1766220, Note_off_c, 1, 82, 64
3, 1766220, Note_off_c, 1, 77, 64
3, 1766220, Note_on_c, 1, 74, 75
3, 1766220, Note_on_c, 1, 77, 75
3, 1766940, Note_off_c, 1, 77, 64
3, 1766940, Note_off_c, 1, 74, 64
3, 1766940, Note_on_c, 1, 74, 75
3, 1766940, Note_on_c, 1, 77, 75
3, 1767660, Note_off_c, 1, 77, 64
3, 1767660, Note_off_c, 1, 74, 64
3, 1767660, Note_on_c, 1, 74, 75
3, 1767660, Note_on_c, 1, 77, 75
3, 1768300, Note_off_c, 1, 77, 64
3, 1768300, Note_off_c, 1, 74, 64
3, 1768380, Note_on_c, 1, 81, 60
3, 1769100, Note_off_c, 1, 81, 64
3, 1769100, Note_on_c, 1, 79, 60
3, 1769820, Note_off_c, 1, 79, 64
3, 1769820, Note_on_c, 1, 77, 55
3, 1770540, Note_off_c, 1, 77, 64
3, 1770540, Note_on_c, 1, 76, 50
3, 1771260, Note_off_c, 1, 76, 64
3, 1771260, Note_on_c, 1, 74, 45
3, 1771980, Note_off_c, 1, 74, 64
3, 1771980, Note_on_c, 1, 72, 45
3, 1773420, Note_off_c, 1, 72, 64
3, 1773420, Note_on_c, 1, 82, 45
3, 1774860, Note_off_c, 1, 82, 64
3, 1774860, Note_on_c, 1, 79, 45
3, 1776300, Note_off_c, 1, 79, 64
3, 1776300, Note_on_c, 1, 76, 45
3, 1777020, Note_off_c, 1, 76, 64
3, 1777020, Note_on_c, 1, 77, 30
3, 1777420, Note_off_c, 1, 77, 64
3, 1789320, Note_on_c, 1, 69, 75
3, 1789320, Note_on_c, 1, 77, 75
3, 1790040, Note_off_c, 1, 77, 64
3, 1790040, Note_off_c, 1, 69, 64
3, 1790040, Note_on_c, 1, 70, 75
3, 1790040, Note_on_c, 1, 77, 75
3, 1790275, Note_off_c, 1, 77, 64
3, 1790275, Note_off_c, 1, 70, 64
3, 1790520, Note_on_c, 1, 72, 75
3, 1790520, Note_on_c, 1, 77, 75
3, 1790755, Note_off_c, 1, 77, 64
3, 1790755, Note_off_c, 1, 72, 64
3, 1790760, Note_on_c, 1, 74, 75
3, 1790760, Note_on_c, 1, 77, 75
3, 1791880, Note_off_c, 1, 77, 64
3, 1791880, Note_off_c, 1, 74, 64
3, 1792080, Note_on_c, 1, 74, 45
3, 1792080, Note_on_c, 1, 79, 45
3, 1792320, Note_off_c, 1, 79, 64
3, 1792320, Note_off_c, 1, 74, 64
3, 1792320, Note_on_c, 1, 76, 45
3, 1792320, Note_on_c, 1, 79, 45
3, 1793280, Note_off_c, 1, 79, 64
3, 1793280, Note_on_c, 1, 81, 45
3, 1793520, Note_off_c, 1, 81, 64
3, 1793520, Note_on_c, 1, 84, 45
3, 1793580, Note_off_c, 1, 84, 64
3, 1793580, Note_on_c, 1, 82, 45
3, 1793622, Note_off_c, 1, 82, 64
3, 1793640, Note_off_c, 1, 76, 64
3, 1793640, Note_on_c, 1, 81, 45
3, 1793725, Note_off_c, 1, 81, 64
3, 1793760, Note_on_c, 1, 77, 45
3, 1793760, Note_on_c, 1, 81, 45
3, 1794400, Note_off_c, 1, 81, 64
3, 1794400, Note_off_c, 1, 77, 64
3, 1798080, Note_on_c, 1, 77, 45
3, 1798080, Note_on_c, 1, 81, 45
3, 1798320, Note_off_c, 1, 81, 64
3, 1798320, Note_off_c, 1, 77, 64
3, 1798320, Note_on_c, 1, 76, 45
3, 1798320, Note_on_c, 1, 82, 45
3, 1799520, Note_off_c, 1, 82, 64
3, 1799520, Note_off_c, 1, 76, 64
3, 1799520, Note_on_c, 1, 76, 45
3, 1799520, Note_on_c, 1, 82, 45
3, 1799760, Note_off_c, 1, 82, 64
3, 1799760, Note_off_c, 1, 76, 64
3, 1799760, Note_on_c, 1, 77, 45
3, 1799760, Note_on_c, 1, 81, 45
3, 1800400, Note_off_c, 1, 81, 64
3, 1800400, Note_off_c, 1, 77, 64
3, 1801080, Note_on_c, 1, 77, 30
3, 1801080, Note_on_c, 1, 81, 30
3, 1801320, Note_off_c, 1, 81, 64
3, 1801320, Note_off_c, 1, 77, 64
3, 1801320, Note_on_c, 1, 76, 36
3, 1801320, Note_on_c, 1, 82, 36
3, 1802440, Note_off_c, 1, 82, 64
3, 1802440, Note_off_c, 1, 76, 64
3, 1802520, Note_on_c, 1, 76, 68
3, 1802520, Note_on_c, 1, 82, 68
3, 1802755, Note_off_c, 1, 82, 64
3, 1802755, Note_off_c, 1, 76, 64
3, 1802760, Note_on_c, 1, 79, 75
3, 1802760, Note_on_c, 1, 82, 75
3, 1805640, Note_off_c, 1, 82, 64
3, 1805640, Note_off_c, 1, 79, 64
3, 1805640, Note_on_c, 1, 79, 60
3, 1805640, Note_on_c, 1, 82, 60
3, 1807080, Note_off_c, 1, 82, 64
3, 1807080, Note_off_c, 1, 79, 64
3, 1807080, Note_on_c, 1, 79, 45
3, 1807080, Note_on_c, 1, 82, 45
3, 1808400, Note_off_c, 1, 82, 64
3, 1808400, Note_off_c, 1, 79, 64
3, 1808520, Note_on_c, 1, 77, 45
3, 1808520, Note_on_c, 1, 81, 45
3, 1809840, Note_off_c, 1, 81, 64
3, 1809840, Note_off_c, 1, 77, 64
3, 1810020, Note_on_c, 1, 77, 45
3, 1810020, Note_on_c, 1, 81, 45
3, 1811340, Note_off_c, 1, 81, 64
3, 1811340, Note_off_c, 1, 77, 64
3, 1811520, Note_on_c, 1, 77, 45
3, 1816960, Note_off_c, 1, 77, 64
3, 1817040, Note_on_c, 1, 72, 75
3, 1817040, Note_on_c, 1, 81, 75
3, 1817275, Note_off_c, 1, 81, 64
3, 1817275, Note_off_c, 1, 72, 64
3, 1817280, Note_on_c, 1, 69, 75
3, 1817280, Note_on_c, 1, 77, 75
3, 1818040, Note_off_c, 1, 77, 64
3, 1818040, Note_off_c, 1, 69, 64
3, 1818040, End_track
4, 0, Start_track
4, 0, Title_t, "Beethoven"
4, 0, MIDI_port, 0
4, 0, Channel_prefix, 2
4, 0, Control_c, 2, 7, 127
4, 0, Control_c, 2, 10, 48
4, 0, Control_c, 2, 91, 95
4, 0, Program_c, 2, 71
4, 25560, Note_on_c, 2, 70, 45
4, 25680, Note_off_c, 2, 70, 64
4, 25680, Note_on_c, 2, 72, 45
4, 25800, Note_off_c, 2, 72, 64
4, 25800, Note_on_c, 2, 74, 45
4, 25880, Note_off_c, 2, 74, 64
4, 26040, Note_on_c, 2, 76, 45
4, 26120, Note_off_c, 2, 76, 64
4, 26280, Note_on_c, 2, 77, 45
4, 26360, Note_off_c, 2, 77, 64
4, 31320, Note_on_c, 2, 65, 45
4, 31320, Note_on_c, 2, 69, 45
4, 31400, Note_off_c, 2, 69, 64
4, 31400, Note_off_c, 2, 65, 64
4, 31560, Note_on_c, 2, 67, 45
4, 31560, Note_on_c, 2, 70, 45
4, 31640, Note_off_c, 2, 70, 64
4, 31640, Note_off_c, 2, 67, 64
4, 31800, Note_on_c, 2, 70, 45
4, 31800, Note_on_c, 2, 74, 45
4, 31880, Note_off_c, 2, 74, 64
4, 31880, Note_off_c, 2, 70, 64
4, 32040, Note_on_c, 2, 69, 45
4, 32040, Note_on_c, 2, 72, 45
4, 32280, Note_off_c, 2, 72, 64
4, 32280, Note_off_c, 2, 69, 64
4, 32280, Note_on_c, 2, 67, 47
4, 32280, Note_on_c, 2, 70, 47
4, 32400, Note_off_c, 2, 70, 64
4, 32400, Note_off_c, 2, 67, 64
4, 32400, Note_on_c, 2, 65, 48
4, 32400, Note_on_c, 2, 69, 48
4, 32515, Note_off_c, 2, 69, 64
4, 32515, Note_off_c, 2, 65, 64
4, 32520, Note_on_c, 2, 64, 49
4, 32520, Note_on_c, 2, 67, 49
4, 32600, Note_off_c, 2, 67, 64
4, 32600, Note_off_c, 2, 64, 64
4, 32760, Note_on_c, 2, 60, 51
4, 32840, Note_off_c, 2, 60, 64
4, 33000, Note_on_c, 2, 65, 53
4, 33080, Note_off_c, 2, 65, 64
4, 33240, Note_on_c, 2, 64, 55
4, 33240, Note_on_c, 2, 67, 55
4, 33320, Note_off_c, 2, 67, 64
4, 33320, Note_off_c, 2, 64, 64
4, 33480, Note_on_c, 2, 65, 57
4, 33480, Note_on_c, 2, 69, 57
4, 33720, Note_off_c, 2, 69, 64
4, 33720, Note_off_c, 2, 65, 64
4, 33720, Note_on_c, 2, 67, 60
4, 33720, Note_on_c, 2, 70, 60
4, 33840, Note_off_c, 2, 70, 64
4, 33840, Note_off_c, 2, 67, 64
4, 33840, Note_on_c, 2, 65, 61
4, 33840, Note_on_c, 2, 69, 61
4, 33955, Note_off_c, 2, 69, 64
4, 33955, Note_off_c, 2, 65, 64
4, 33960, Note_on_c, 2, 64, 62
4, 33960, Note_on_c, 2, 67, 62
4, 34040, Note_off_c, 2, 67, 64
4, 34040, Note_off_c, 2, 64, 64
4, 34200, Note_on_c, 2, 65, 65
4, 34200, Note_on_c, 2, 69, 65
4, 34280, Note_off_c, 2, 69, 64
4, 34280, Note_off_c, 2, 65, 64
4, 34440, Note_on_c, 2, 67, 68
4, 34440, Note_on_c, 2, 70, 68
4, 34680, Note_off_c, 2, 70, 64
4, 34680, Note_off_c, 2, 67, 64
4, 34680, Note_on_c, 2, 69, 71
4, 34680, Note_on_c, 2, 72, 71
4, 34800, Note_off_c, 2, 72, 64
4, 34800, Note_off_c, 2, 69, 64
4, 34800, Note_on_c, 2, 67, 73
4, 34800, Note_on_c, 2, 70, 73
4, 34915, Note_off_c, 2, 70, 64
4, 34915, Note_off_c, 2, 67, 64
4, 34920, Note_on_c, 2, 65, 75
4, 34920, Note_on_c, 2, 69, 75
4, 35000, Note_off_c, 2, 69, 64
4, 35000, Note_off_c, 2, 65, 64
4, 35160, Note_on_c, 2, 69, 75
4, 35160, Note_on_c, 2, 81, 75
4, 35240, Note_off_c, 2, 81, 64
4, 35240, Note_off_c, 2, 69, 64
4, 35400, Note_on_c, 2, 70, 75
4, 35400, Note_on_c, 2, 82, 75
4, 35480, Note_off_c, 2, 82, 64
4, 35480, Note_off_c, 2, 70, 64
4, 35640, Note_on_c, 2, 74, 75
4, 35720, Note_off_c, 2, 74, 64
4, 35880, Note_on_c, 2, 72, 75
4, 36120, Note_off_c, 2, 72, 64
4, 36120, Note_on_c, 2, 70, 75
4, 36240, Note_off_c, 2, 70, 64
4, 36240, Note_on_c, 2, 69, 75
4, 36355, Note_off_c, 2, 69, 64
4, 36360, Note_on_c, 2, 67, 75
4, 36440, Note_off_c, 2, 67, 64
4, 36600, Note_on_c, 2, 60, 75
4, 36680, Note_off_c, 2, 60, 64
4, 36840, Note_on_c, 2, 65, 75
4, 36920, Note_off_c, 2, 65, 64
4, 37080, Note_on_c, 2, 64, 75
4, 37080, Note_on_c, 2, 67, 75
4, 37160, Note_off_c, 2, 67, 64
4, 37160, Note_off_c, 2, 64, 64
4, 37320, Note_on_c, 2, 65, 75
4, 37320, Note_on_c, 2, 69, 75
4, 37560, Note_off_c, 2, 69, 64
4, 37560, Note_off_c, 2, 65, 64
4, 37560, Note_on_c, 2, 67, 75
4, 37560, Note_on_c, 2, 70, 75
4, 37680, Note_off_c, 2, 70, 64
4, 37680, Note_off_c, 2, 67, 64
4, 37680, Note_on_c, 2, 65, 75
4, 37680, Note_on_c, 2, 69, 75
4, 37795, Note_off_c, 2, 69, 64
4, 37795, Note_off_c, 2, 65, 64
4, 37800, Note_on_c, 2, 64, 75
4, 37800, Note_on_c, 2, 67, 75
4, 37880, Note_off_c, 2, 67, 64
4, 37880, Note_off_c, 2, 64, 64
4, 38040, Note_on_c, 2, 65, 75
4, 38040, Note_on_c, 2, 69, 75
4, 38120, Note_off_c, 2, 69, 64
4, 38120, Note_off_c, 2, 65, 64
4, 38280, Note_on_c, 2, 67, 75
4, 38280, Note_on_c, 2, 70, 75
4, 38520, Note_off_c, 2, 70, 64
4, 38520, Note_off_c, 2, 67, 64
4, 38520, Note_on_c, 2, 69, 75
4, 38520, Note_on_c, 2, 72, 75
4, 38640, Note_off_c, 2, 72, 64
4, 38640, Note_off_c, 2, 69, 64
4, 38640, Note_on_c, 2, 67, 75
4, 38640, Note_on_c, 2, 70, 75
4, 38755, Note_off_c, 2, 70, 64
4, 38755, Note_off_c, 2, 67, 64
4, 38760, Note_on_c, 2, 65, 75
4, 38760, Note_on_c, 2, 69, 75
4, 39000, Note_off_c, 2, 69, 64
4, 39000, Note_off_c, 2, 65, 64
4, 39000, Note_on_c, 2, 69, 75
4, 39000, Note_on_c, 2, 72, 75
4, 39080, Note_off_c, 2, 72, 64
4, 39080, Note_off_c, 2, 69, 64
4, 39240, Note_on_c, 2, 69, 75
4, 39240, Note_on_c, 2, 72, 75
4, 39320, Note_off_c, 2, 72, 64
4, 39320, Note_off_c, 2, 69, 64
4, 39480, Note_on_c, 2, 69, 75
4, 39480, Note_on_c, 2, 72, 75
4, 39560, Note_off_c, 2, 72, 64
4, 39560, Note_off_c, 2, 69, 64
4, 39720, Note_on_c, 2, 69, 75
4, 39720, Note_on_c, 2, 72, 75
4, 40200, Note_off_c, 2, 72, 64
4, 40200, Note_off_c, 2, 69, 64
4, 40200, Note_on_c, 2, 67, 75
4, 40200, Note_on_c, 2, 70, 75
4, 40320, Note_off_c, 2, 70, 64
4, 40320, Note_off_c, 2, 67, 64
4, 40320, Note_on_c, 2, 65, 75
4, 40320, Note_on_c, 2, 69, 75
4, 40440, Note_off_c, 2, 69, 64
4, 40440, Note_off_c, 2, 65, 64
4, 40440, Note_on_c, 2, 64, 75
4, 40440, Note_on_c, 2, 67, 75
4, 40560, Note_off_c, 2, 67, 64
4, 40560, Note_off_c, 2, 64, 64
4, 40560, Note_on_c, 2, 62, 75
4, 40560, Note_on_c, 2, 65, 75
4, 40675, Note_off_c, 2, 65, 64
4, 40675, Note_off_c, 2, 62, 64
4, 40680, Note_on_c, 2, 60, 75
4, 40680, Note_on_c, 2, 64, 75
4, 40760, Note_off_c, 2, 64, 64
4, 40760, Note_off_c, 2, 60, 64
4, 40920, Note_on_c, 2, 62, 75
4, 40920, Note_on_c, 2, 65, 75
4, 41000, Note_off_c, 2, 65, 64
4, 41000, Note_off_c, 2, 62, 64
4, 41160, Note_on_c, 2, 64, 75
4, 41160, Note_on_c, 2, 67, 75
4, 41400, Note_off_c, 2, 67, 64
4, 41400, Note_off_c, 2, 64, 64
4, 41400, Note_on_c, 2, 65, 75
4, 41400, Note_on_c, 2, 69, 75
4, 41520, Note_off_c, 2, 69, 64
4, 41520, Note_off_c, 2, 65, 64
4, 41520, Note_on_c, 2, 64, 75
4, 41520, Note_on_c, 2, 67, 75
4, 41635, Note_off_c, 2, 67, 64
4, 41635, Note_off_c, 2, 64, 64
4, 41640, Note_on_c, 2, 62, 75
4, 41640, Note_on_c, 2, 65, 75
4, 41720, Note_off_c, 2, 65, 64
4, 41720, Note_off_c, 2, 62, 64
4, 41880, Note_on_c, 2, 64, 75
4, 41880, Note_on_c, 2, 67, 75
4, 41960, Note_off_c, 2, 67, 64
4, 41960, Note_off_c, 2, 64, 64
4, 42120, Note_on_c, 2, 65, 75
4, 42120, Note_on_c, 2, 69, 75
4, 42360, Note_off_c, 2, 69, 64
4, 42360, Note_off_c, 2, 65, 64
4, 42360, Note_on_c, 2, 67, 75
4, 42360, Note_on_c, 2, 70, 75
4, 42480, Note_off_c, 2, 70, 64
4, 42480, Note_off_c, 2, 67, 64
4, 42480, Note_on_c, 2, 65, 75
4, 42480, Note_on_c, 2, 69, 75
4, 42595, Note_off_c, 2, 69, 64
4, 42595, Note_off_c, 2, 65, 64
4, 42600, Note_on_c, 2, 64, 75
4, 42600, Note_on_c, 2, 67, 75
4, 42840, Note_off_c, 2, 67, 64
4, 42840, Note_off_c, 2, 64, 64
4, 42840, Note_on_c, 2, 67, 75
4, 42840, Note_on_c, 2, 70, 75
4, 42920, Note_off_c, 2, 70, 64
4, 42920, Note_off_c, 2, 67, 64
4, 43080, Note_on_c, 2, 67, 75
4, 43080, Note_on_c, 2, 70, 75
4, 43160, Note_off_c, 2, 70, 64
4, 43160, Note_off_c, 2, 67, 64
4, 43320, Note_on_c, 2, 67, 75
4, 43320, Note_on_c, 2, 70, 75
4, 43400, Note_off_c, 2, 70, 64
4, 43400, Note_off_c, 2, 67, 64
4, 43560, Note_on_c, 2, 67, 75
4, 43560, Note_on_c, 2, 70, 75
4, 44040, Note_off_c, 2, 70, 64
4, 44040, Note_off_c, 2, 67, 64
4, 44040, Note_on_c, 2, 69, 75
4, 44040, Note_on_c, 2, 72, 75
4, 44160, Note_off_c, 2, 72, 64
4, 44160, Note_off_c, 2, 69, 64
4, 44160, Note_on_c, 2, 67, 75
4, 44160, Note_on_c, 2, 70, 75
4, 44280, Note_off_c, 2, 70, 64
4, 44280, Note_off_c, 2, 67, 64
4, 44280, Note_on_c, 2, 65, 75
4, 44280, Note_on_c, 2, 69, 75
4, 44400, Note_off_c, 2, 69, 64
4, 44400, Note_off_c, 2, 65, 64
4, 44400, Note_on_c, 2, 64, 75
4, 44400, Note_on_c, 2, 67, 75
4, 44515, Note_off_c, 2, 67, 64
4, 44515, Note_off_c, 2, 64, 64
4, 44520, Note_on_c, 2, 65, 75
4, 44520, Note_on_c, 2, 69, 75
4, 44600, Note_off_c, 2, 69, 64
4, 44600, Note_off_c, 2, 65, 64
4, 44760, Note_on_c, 2, 67, 75
4, 44760, Note_on_c, 2, 70, 75
4, 44840, Note_off_c, 2, 70, 64
4, 44840, Note_off_c, 2, 67, 64
4, 45000, Note_on_c, 2, 69, 75
4, 45000, Note_on_c, 2, 72, 75
4, 45240, Note_off_c, 2, 72, 64
4, 45240, Note_off_c, 2, 69, 64
4, 45240, Note_on_c, 2, 70, 75
4, 45240, Note_on_c, 2, 74, 75
4, 45360, Note_off_c, 2, 74, 64
4, 45360, Note_off_c, 2, 70, 64
4, 45360, Note_on_c, 2, 69, 75
4, 45360, Note_on_c, 2, 72, 75
4, 45475, Note_off_c, 2, 72, 64
4, 45475, Note_off_c, 2, 69, 64
4, 45480, Note_on_c, 2, 67, 75
4, 45480, Note_on_c, 2, 70, 75
4, 46120, Note_off_c, 2, 70, 64
4, 46120, Note_off_c, 2, 67, 64
4, 46200, Note_on_c, 2, 64, 75
4, 46200, Note_on_c, 2, 67, 75
4, 46435, Note_off_c, 2, 67, 64
4, 46435, Note_off_c, 2, 64, 64
4, 46440, Note_on_c, 2, 65, 75
4, 46440, Note_on_c, 2, 69, 75
4, 46520, Note_off_c, 2, 69, 64
4, 46520, Note_off_c, 2, 65, 64
4, 46680, Note_on_c, 2, 67, 75
4, 46680, Note_on_c, 2, 70, 75
4, 46760, Note_off_c, 2, 70, 64
4, 46760, Note_off_c, 2, 67, 64
4, 46920, Note_on_c, 2, 69, 75
4, 46920, Note_on_c, 2, 72, 75
4, 47320, Note_off_c, 2, 72, 64
4, 47320, Note_off_c, 2, 69, 64
4, 47400, Note_on_c, 2, 67, 75
4, 47400, Note_on_c, 2, 70, 75
4, 48040, Note_off_c, 2, 70, 64
4, 48040, Note_off_c, 2, 67, 64
4, 48120, Note_on_c, 2, 64, 75
4, 48120, Note_on_c, 2, 67, 75
4, 48355, Note_off_c, 2, 67, 64
4, 48355, Note_off_c, 2, 64, 64
4, 48360, Note_on_c, 2, 65, 75
4, 48360, Note_on_c, 2, 69, 75
4, 48600, Note_off_c, 2, 69, 64
4, 48600, Note_off_c, 2, 65, 64
4, 48600, Note_on_c, 2, 64, 75
4, 48600, Note_on_c, 2, 67, 75
4, 48840, Note_off_c, 2, 67, 64
4, 48840, Note_off_c, 2, 64, 64
4, 48840, Note_on_c, 2, 67, 75
4, 48840, Note_on_c, 2, 70, 75
4, 49080, Note_off_c, 2, 70, 64
4, 49080, Note_off_c, 2, 67, 64
4, 49080, Note_on_c, 2, 64, 75
4, 49080, Note_on_c, 2, 67, 75
4, 49315, Note_off_c, 2, 67, 64
4, 49315, Note_off_c, 2, 64, 64
4, 49320, Note_on_c, 2, 65, 75
4, 49320, Note_on_c, 2, 69, 75
4, 49560, Note_off_c, 2, 69, 64
4, 49560, Note_off_c, 2, 65, 64
4, 49560, Note_on_c, 2, 64, 68
4, 49560, Note_on_c, 2, 67, 68
4, 49800, Note_off_c, 2, 67, 64
4, 49800, Note_off_c, 2, 64, 64
4, 49800, Note_on_c, 2, 67, 61
4, 49800, Note_on_c, 2, 70, 61
4, 50040, Note_off_c, 2, 70, 64
4, 50040, Note_off_c, 2, 67, 64
4, 50040, Note_on_c, 2, 64, 53
4, 50040, Note_on_c, 2, 67, 53
4, 50275, Note_off_c, 2, 67, 64
4, 50275, Note_off_c, 2, 64, 64
4, 50280, Note_on_c, 2, 65, 45
4, 50280, Note_on_c, 2, 69, 45
4, 50435, Note_off_c, 2, 69, 64
4, 50435, Note_off_c, 2, 65, 64
4, 50440, Note_on_c, 2, 65, 45
4, 50440, Note_on_c, 2, 69, 45
4, 50595, Note_off_c, 2, 69, 64
4, 50595, Note_off_c, 2, 65, 64
4, 50600, Note_on_c, 2, 65, 45
4, 50600, Note_on_c, 2, 69, 45
4, 50755, Note_off_c, 2, 69, 64
4, 50755, Note_off_c, 2, 65, 64
4, 50760, Note_on_c, 2, 65, 45
4, 50760, Note_on_c, 2, 69, 45
4, 50915, Note_off_c, 2, 69, 64
4, 50915, Note_off_c, 2, 65, 64
4, 50920, Note_on_c, 2, 65, 45
4, 50920, Note_on_c, 2, 69, 45
4, 51075, Note_off_c, 2, 69, 64
4, 51075, Note_off_c, 2, 65, 64
4, 51080, Note_on_c, 2, 65, 45
4, 51080, Note_on_c, 2, 69, 45
4, 51235, Note_off_c, 2, 69, 64
4, 51235, Note_off_c, 2, 65, 64
4, 51240, Note_on_c, 2, 65, 45
4, 51240, Note_on_c, 2, 69, 45
4, 51720, Note_off_c, 2, 69, 64
4, 51720, Note_off_c, 2, 65, 64
4, 54120, Note_on_c, 2, 65, 45
4, 54120, Note_on_c, 2, 69, 45
4, 54275, Note_off_c, 2, 69, 64
4, 54275, Note_off_c, 2, 65, 64
4, 54280, Note_on_c, 2, 65, 45
4, 54280, Note_on_c, 2, 69, 45
4, 54435, Note_off_c, 2, 69, 64
4, 54435, Note_off_c, 2, 65, 64
4, 54440, Note_on_c, 2, 65, 45
4, 54440, Note_on_c, 2, 69, 45
4, 54595, Note_off_c, 2, 69, 64
4, 54595, Note_off_c, 2, 65, 64
4, 54600, Note_on_c, 2, 65, 45
4, 54600, Note_on_c, 2, 69, 45
4, 54755, Note_off_c, 2, 69, 64
4, 54755, Note_off_c, 2, 65, 64
4, 54760, Note_on_c, 2, 65, 45
4, 54760, Note_on_c, 2, 69, 45
4, 54915, Note_off_c, 2, 69, 64
4, 54915, Note_off_c, 2, 65, 64
4, 54920, Note_on_c, 2, 65, 45
4, 54920, Note_on_c, 2, 69, 45
4, 55075, Note_off_c, 2, 69, 64
4, 55075, Note_off_c, 2, 65, 64
4, 55080, Note_on_c, 2, 65, 45
4, 55080, Note_on_c, 2, 69, 45
4, 55560, Note_off_c, 2, 69, 64
4, 55560, Note_off_c, 2, 65, 64
4, 57960, Note_on_c, 2, 65, 45
4, 57960, Note_on_c, 2, 69, 45
4, 58115, Note_off_c, 2, 69, 64
4, 58115, Note_off_c, 2, 65, 64
4, 58120, Note_on_c, 2, 65, 45
4, 58120, Note_on_c, 2, 69, 45
4, 58275, Note_off_c, 2, 69, 64
4, 58275, Note_off_c, 2, 65, 64
4, 58280, Note_on_c, 2, 65, 45
4, 58280, Note_on_c, 2, 69, 45
4, 58435, Note_off_c, 2, 69, 64
4, 58435, Note_off_c, 2, 65, 64
4, 58440, Note_on_c, 2, 65, 45
4, 58440, Note_on_c, 2, 69, 45
4, 58595, Note_off_c, 2, 69, 64
4, 58595, Note_off_c, 2, 65, 64
4, 58600, Note_on_c, 2, 65, 45
4, 58600, Note_on_c, 2, 69, 45
4, 58755, Note_off_c, 2, 69, 64
4, 58755, Note_off_c, 2, 65, 64
4, 58760, Note_on_c, 2, 65, 45
4, 58760, Note_on_c, 2, 69, 45
4, 58915, Note_off_c, 2, 69, 64
4, 58915, Note_off_c, 2, 65, 64
4, 58920, Note_on_c, 2, 65, 45
4, 58920, Note_on_c, 2, 69, 45
4, 59320, Note_off_c, 2, 69, 64
4, 59320, Note_off_c, 2, 65, 64
4, 59880, Note_on_c, 2, 65, 45
4, 59880, Note_on_c, 2, 67, 45
4, 60035, Note_off_c, 2, 67, 64
4, 60035, Note_off_c, 2, 65, 64
4, 60040, Note_on_c, 2, 65, 45
4, 60040, Note_on_c, 2, 67, 45
4, 60195, Note_off_c, 2, 67, 64
4, 60195, Note_off_c, 2, 65, 64
4, 60200, Note_on_c, 2, 65, 45
4, 60200, Note_on_c, 2, 67, 45
4, 60355, Note_off_c, 2, 67, 64
4, 60355, Note_off_c, 2, 65, 64
4, 60360, Note_on_c, 2, 65, 45
4, 60360, Note_on_c, 2, 67, 45
4, 60515, Note_off_c, 2, 67, 64
4, 60515, Note_off_c, 2, 65, 64
4, 60520, Note_on_c, 2, 65, 45
4, 60520, Note_on_c, 2, 67, 45
4, 60675, Note_off_c, 2, 67, 64
4, 60675, Note_off_c, 2, 65, 64
4, 60680, Note_on_c, 2, 65, 45
4, 60680, Note_on_c, 2, 67, 45
4, 60835, Note_off_c, 2, 67, 64
4, 60835, Note_off_c, 2, 65, 64
4, 60840, Note_on_c, 2, 65, 45
4, 60840, Note_on_c, 2, 67, 45
4, 61240, Note_off_c, 2, 67, 64
4, 61240, Note_off_c, 2, 65, 64
4, 79080, Note_on_c, 2, 81, 75
4, 79320, Note_off_c, 2, 81, 64
4, 79320, Note_on_c, 2, 79, 75
4, 79560, Note_off_c, 2, 79, 64
4, 79560, Note_on_c, 2, 77, 75
4, 79800, Note_off_c, 2, 77, 64
4, 79800, Note_on_c, 2, 74, 75
4, 80040, Note_off_c, 2, 74, 64
4, 80040, Note_on_c, 2, 67, 75
4, 80280, Note_off_c, 2, 67, 64
4, 80280, Note_on_c, 2, 77, 75
4, 80520, Note_off_c, 2, 77, 64
4, 80520, Note_on_c, 2, 74, 75
4, 80760, Note_off_c, 2, 74, 64
4, 80760, Note_on_c, 2, 67, 75
4, 80995, Note_off_c, 2, 67, 64
4, 81000, Note_on_c, 2, 81, 75
4, 81240, Note_off_c, 2, 81, 64
4, 81240, Note_on_c, 2, 79, 75
4, 81480, Note_off_c, 2, 79, 64
4, 81480, Note_on_c, 2, 76, 75
4, 81720, Note_off_c, 2, 76, 64
4, 81720, Note_on_c, 2, 72, 75
4, 81960, Note_off_c, 2, 72, 64
4, 81960, Note_on_c, 2, 67, 75
4, 82200, Note_off_c, 2, 67, 64
4, 82200, Note_on_c, 2, 76, 75
4, 82440, Note_off_c, 2, 76, 64
4, 82440, Note_on_c, 2, 72, 75
4, 82680, Note_off_c, 2, 72, 64
4, 82680, Note_on_c, 2, 67, 75
4, 82915, Note_off_c, 2, 67, 64
4, 82920, Note_on_c, 2, 81, 76
4, 83160, Note_off_c, 2, 81, 64
4, 83160, Note_on_c, 2, 79, 77
4, 83400, Note_off_c, 2, 79, 64
4, 83400, Note_on_c, 2, 77, 78
4, 83640, Note_off_c, 2, 77, 64
4, 83640, Note_on_c, 2, 74, 79
4, 83880, Note_off_c, 2, 74, 64
4, 83880, Note_on_c, 2, 67, 80
4, 84120, Note_off_c, 2, 67, 64
4, 84120, Note_on_c, 2, 77, 81
4, 84360, Note_off_c, 2, 77, 64
4, 84360, Note_on_c, 2, 74, 82
4, 84600, Note_off_c, 2, 74, 64
4, 84600, Note_on_c, 2, 67, 83
4, 84835, Note_off_c, 2, 67, 64
4, 84840, Note_on_c, 2, 81, 84
4, 85080, Note_off_c, 2, 81, 64
4, 85080, Note_on_c, 2, 79, 85
4, 85320, Note_off_c, 2, 79, 64
4, 85320, Note_on_c, 2, 76, 86
4, 85560, Note_off_c, 2, 76, 64
4, 85560, Note_on_c, 2, 72, 87
4, 85800, Note_off_c, 2, 72, 64
4, 85800, Note_on_c, 2, 67, 88
4, 86040, Note_off_c, 2, 67, 64
4, 86040, Note_on_c, 2, 76, 89
4, 86280, Note_off_c, 2, 76, 64
4, 86280, Note_on_c, 2, 72, 90
4, 86520, Note_off_c, 2, 72, 64
4, 86520, Note_on_c, 2, 67, 91
4, 86755, Note_off_c, 2, 67, 64
4, 86760, Note_on_c, 2, 81, 92
4, 87000, Note_off_c, 2, 81, 64
4, 87000, Note_on_c, 2, 79, 92
4, 87240, Note_off_c, 2, 79, 64
4, 87240, Note_on_c, 2, 77, 92
4, 87480, Note_off_c, 2, 77, 64
4, 87480, Note_on_c, 2, 74, 92
4, 87720, Note_off_c, 2, 74, 64
4, 87720, Note_on_c, 2, 67, 92
4, 87960, Note_off_c, 2, 67, 64
4, 87960, Note_on_c, 2, 77, 88
4, 88200, Note_off_c, 2, 77, 64
4, 88200, Note_on_c, 2, 74, 84
4, 88440, Note_off_c, 2, 74, 64
4, 88440, Note_on_c, 2, 67, 80
4, 88675, Note_off_c, 2, 67, 64
4, 88680, Note_on_c, 2, 67, 75
4, 88680, Note_on_c, 2, 76, 75
4, 88915, Note_off_c, 2, 76, 64
4, 88915, Note_off_c, 2, 67, 64
4, 91560, Note_on_c, 2, 69, 75
4, 91560, Note_on_c, 2, 77, 75
4, 91800, Note_off_c, 2, 77, 64
4, 91800, Note_off_c, 2, 69, 64
4, 98280, Note_on_c, 2, 69, 75
4, 98280, Note_on_c, 2, 77, 75
4, 98520, Note_off_c, 2, 77, 64
4, 98520, Note_off_c, 2, 69, 64
4, 100200, Note_on_c, 2, 64, 45
4, 100200, Note_on_c, 2, 67, 45
4, 100680, Note_off_c, 2, 67, 64
4, 100680, Note_off_c, 2, 64, 64
4, 100680, Note_on_c, 2, 62, 45
4, 100680, Note_on_c, 2, 65, 45
4, 100920, Note_off_c, 2, 65, 64
4, 100920, Note_off_c, 2, 62, 64
4, 100920, Note_on_c, 2, 60, 45
4, 100920, Note_on_c, 2, 64, 45
4, 101155, Note_off_c, 2, 64, 64
4, 101155, Note_off_c, 2, 60, 64
4, 101160, Note_on_c, 2, 60, 45
4, 101160, Note_on_c, 2, 64, 45
4, 101400, Note_off_c, 2, 64, 64
4, 101400, Note_off_c, 2, 60, 64
4, 101400, Note_on_c, 2, 59, 45
4, 101400, Note_on_c, 2, 62, 45
4, 101640, Note_off_c, 2, 62, 64
4, 101640, Note_off_c, 2, 59, 64
4, 101640, Note_on_c, 2, 57, 45
4, 101640, Note_on_c, 2, 60, 45
4, 101880, Note_off_c, 2, 60, 64
4, 101880, Note_off_c, 2, 57, 64
4, 101880, Note_on_c, 2, 59, 45
4, 101880, Note_on_c, 2, 62, 45
4, 102115, Note_off_c, 2, 62, 64
4, 102115, Note_off_c, 2, 59, 64
4, 102120, Note_on_c, 2, 60, 45
4, 102120, Note_on_c, 2, 64, 45
4, 102200, Note_off_c, 2, 64, 64
4, 102200, Note_off_c, 2, 60, 64
4, 102360, Note_on_c, 2, 60, 45
4, 102360, Note_on_c, 2, 64, 45
4, 102600, Note_off_c, 2, 64, 64
4, 102600, Note_off_c, 2, 60, 64
4, 102600, Note_on_c, 2, 62, 45
4, 102600, Note_on_c, 2, 65, 45
4, 102840, Note_off_c, 2, 65, 64
4, 102840, Note_off_c, 2, 62, 64
4, 102840, Note_on_c, 2, 64, 47
4, 102840, Note_on_c, 2, 67, 47
4, 103075, Note_off_c, 2, 67, 64
4, 103075, Note_off_c, 2, 64, 64
4, 103080, Note_on_c, 2, 65, 49
4, 103080, Note_on_c, 2, 69, 49
4, 103160, Note_off_c, 2, 69, 64
4, 103160, Note_off_c, 2, 65, 64
4, 103320, Note_on_c, 2, 69, 51
4, 103320, Note_on_c, 2, 72, 51
4, 103560, Note_off_c, 2, 72, 64
4, 103560, Note_off_c, 2, 69, 64
4, 103560, Note_on_c, 2, 67, 53
4, 103560, Note_on_c, 2, 71, 53
4, 103800, Note_off_c, 2, 71, 64
4, 103800, Note_off_c, 2, 67, 64
4, 103800, Note_on_c, 2, 65, 55
4, 103800, Note_on_c, 2, 69, 55
4, 104035, Note_off_c, 2, 69, 64
4, 104035, Note_off_c, 2, 65, 64
4, 104040, Note_on_c, 2, 64, 57
4, 104040, Note_on_c, 2, 67, 57
4, 104120, Note_off_c, 2, 67, 64
4, 104120, Note_off_c, 2, 64, 64
4, 104280, Note_on_c, 2, 64, 59
4, 104280, Note_on_c, 2, 67, 59
4, 104520, Note_off_c, 2, 67, 64
4, 104520, Note_off_c, 2, 64, 64
4, 104520, Note_on_c, 2, 62, 61
4, 104520, Note_on_c, 2, 65, 61
4, 104760, Note_off_c, 2, 65, 64
4, 104760, Note_off_c, 2, 62, 64
4, 104760, Note_on_c, 2, 60, 63
4, 104760, Note_on_c, 2, 64, 63
4, 104995, Note_off_c, 2, 64, 64
4, 104995, Note_off_c, 2, 60, 64
4, 105000, Note_on_c, 2, 60, 65
4, 105000, Note_on_c, 2, 64, 65
4, 105240, Note_off_c, 2, 64, 64
4, 105240, Note_off_c, 2, 60, 64
4, 105240, Note_on_c, 2, 59, 67
4, 105240, Note_on_c, 2, 62, 67
4, 105480, Note_off_c, 2, 62, 64
4, 105480, Note_off_c, 2, 59, 64
4, 105480, Note_on_c, 2, 57, 69
4, 105480, Note_on_c, 2, 60, 69
4, 105720, Note_off_c, 2, 60, 64
4, 105720, Note_off_c, 2, 57, 64
4, 105720, Note_on_c, 2, 59, 72
4, 105720, Note_on_c, 2, 62, 72
4, 105955, Note_off_c, 2, 62, 64
4, 105955, Note_off_c, 2, 59, 64
4, 105960, Note_on_c, 2, 60, 75
4, 105960, Note_on_c, 2, 64, 75
4, 106195, Note_off_c, 2, 64, 64
4, 106195, Note_off_c, 2, 60, 64
4, 106440, Note_on_c, 2, 67, 75
4, 106440, Note_on_c, 2, 72, 75
4, 106675, Note_off_c, 2, 72, 64
4, 106675, Note_off_c, 2, 67, 64
4, 106920, Note_on_c, 2, 69, 75
4, 106920, Note_on_c, 2, 72, 75
4, 107155, Note_off_c, 2, 72, 64
4, 107155, Note_off_c, 2, 69, 64
4, 107400, Note_on_c, 2, 69, 75
4, 107400, Note_on_c, 2, 77, 75
4, 107635, Note_off_c, 2, 77, 64
4, 107635, Note_off_c, 2, 69, 64
4, 107880, Note_on_c, 2, 67, 75
4, 107880, Note_on_c, 2, 76, 75
4, 108115, Note_off_c, 2, 76, 64
4, 108115, Note_off_c, 2, 67, 64
4, 108360, Note_on_c, 2, 72, 75
4, 108360, Note_on_c, 2, 76, 75
4, 108595, Note_off_c, 2, 76, 64
4, 108595, Note_off_c, 2, 72, 64
4, 108840, Note_on_c, 2, 71, 75
4, 108840, Note_on_c, 2, 79, 75
4, 109075, Note_off_c, 2, 79, 64
4, 109075, Note_off_c, 2, 71, 64
4, 109320, Note_on_c, 2, 71, 75
4, 109320, Note_on_c, 2, 79, 75
4, 109555, Note_off_c, 2, 79, 64
4, 109555, Note_off_c, 2, 71, 64
4, 109800, Note_on_c, 2, 60, 60
4, 109800, Note_on_c, 2, 72, 60
4, 110280, Note_off_c, 2, 72, 64
4, 110280, Note_off_c, 2, 60, 64
4, 110280, Note_on_c, 2, 55, 60
4, 110280, Note_on_c, 2, 67, 60
4, 111600, Note_off_c, 2, 67, 64
4, 111600, Note_off_c, 2, 55, 64
4, 111720, Note_on_c, 2, 64, 60
4, 111720, Note_on_c, 2, 76, 60
4, 112200, Note_off_c, 2, 76, 64
4, 112200, Note_off_c, 2, 64, 64
4, 112200, Note_on_c, 2, 60, 60
4, 112200, Note_on_c, 2, 72, 60
4, 113520, Note_off_c, 2, 72, 64
4, 113520, Note_off_c, 2, 60, 64
4, 113640, Note_on_c, 2, 60, 60
4, 113640, Note_on_c, 2, 72, 60
4, 114120, Note_off_c, 2, 72, 64
4, 114120, Note_off_c, 2, 60, 64
4, 114120, Note_on_c, 2, 55, 60
4, 114120, Note_on_c, 2, 67, 60
4, 115440, Note_off_c, 2, 67, 64
4, 115440, Note_off_c, 2, 55, 64
4, 115560, Note_on_c, 2, 64, 60
4, 115560, Note_on_c, 2, 76, 60
4, 116040, Note_off_c, 2, 76, 64
4, 116040, Note_off_c, 2, 64, 64
4, 116040, Note_on_c, 2, 60, 60
4, 116040, Note_on_c, 2, 72, 60
4, 117360, Note_off_c, 2, 72, 64
4, 117360, Note_off_c, 2, 60, 64
4, 117480, Note_on_c, 2, 60, 60
4, 117480, Note_on_c, 2, 72, 60
4, 117960, Note_off_c, 2, 72, 64
4, 117960, Note_off_c, 2, 60, 64
4, 117960, Note_on_c, 2, 55, 60
4, 117960, Note_on_c, 2, 67, 60
4, 118440, Note_off_c, 2, 67, 64
4, 118440, Note_off_c, 2, 55, 64
4, 118440, Note_on_c, 2, 60, 60
4, 118440, Note_on_c, 2, 72, 60
4, 118920, Note_off_c, 2, 72, 64
4, 118920, Note_off_c, 2, 60, 64
4, 118920, Note_on_c, 2, 55, 60
4, 118920, Note_on_c, 2, 67, 60
4, 119400, Note_off_c, 2, 67, 64
4, 119400, Note_off_c, 2, 55, 64
4, 119400, Note_on_c, 2, 60, 60
4, 119400, Note_on_c, 2, 72, 60
4, 119880, Note_off_c, 2, 72, 64
4, 119880, Note_off_c, 2, 60, 64
4, 119880, Note_on_c, 2, 55, 60
4, 119880, Note_on_c, 2, 67, 60
4, 120360, Note_off_c, 2, 67, 64
4, 120360, Note_off_c, 2, 55, 64
4, 120360, Note_on_c, 2, 60, 60
4, 120360, Note_on_c, 2, 72, 60
4, 120840, Note_off_c, 2, 72, 64
4, 120840, Note_off_c, 2, 60, 64
4, 120840, Note_on_c, 2, 55, 60
4, 120840, Note_on_c, 2, 67, 60
4, 121320, Note_off_c, 2, 67, 64
4, 121320, Note_off_c, 2, 55, 64
4, 121320, Note_on_c, 2, 60, 30
4, 121320, Note_on_c, 2, 72, 30
4, 121555, Note_off_c, 2, 72, 64
4, 121555, Note_off_c, 2, 60, 64
4, 132960, Note_on_c, 2, 64, 30
4, 132960, Note_on_c, 2, 70, 30
4, 134760, Note_off_c, 2, 70, 64
4, 134760, Note_off_c, 2, 64, 64
4, 134880, Note_on_c, 2, 64, 30
4, 134880, Note_on_c, 2, 70, 30
4, 136680, Note_off_c, 2, 70, 64
4, 136680, Note_off_c, 2, 64, 64
4, 141000, Note_on_c, 2, 74, 45
4, 141240, Note_off_c, 2, 74, 64
4, 141240, Note_on_c, 2, 75, 45
4, 141320, Note_off_c, 2, 75, 64
4, 141480, Note_on_c, 2, 79, 45
4, 141560, Note_off_c, 2, 79, 64
4, 141720, Note_on_c, 2, 77, 45
4, 141960, Note_off_c, 2, 77, 64
4, 141960, Note_on_c, 2, 75, 45
4, 142080, Note_off_c, 2, 75, 64
4, 142080, Note_on_c, 2, 74, 45
4, 142200, Note_off_c, 2, 74, 64
4, 142200, Note_on_c, 2, 72, 45
4, 142280, Note_off_c, 2, 72, 64
4, 142440, Note_on_c, 2, 65, 45
4, 142520, Note_off_c, 2, 65, 64
4, 142920, Note_on_c, 2, 74, 45
4, 143160, Note_off_c, 2, 74, 64
4, 143160, Note_on_c, 2, 75, 45
4, 143240, Note_off_c, 2, 75, 64
4, 143400, Note_on_c, 2, 79, 45
4, 143480, Note_off_c, 2, 79, 64
4, 143640, Note_on_c, 2, 77, 45
4, 143880, Note_off_c, 2, 77, 64
4, 143880, Note_on_c, 2, 75, 45
4, 144000, Note_off_c, 2, 75, 64
4, 144000, Note_on_c, 2, 74, 45
4, 144120, Note_off_c, 2, 74, 64
4, 144120, Note_on_c, 2, 72, 45
4, 144200, Note_off_c, 2, 72, 64
4, 144360, Note_on_c, 2, 65, 45
4, 144440, Note_off_c, 2, 65, 64
4, 144600, Note_on_c, 2, 62, 30
4, 144600, Note_on_c, 2, 70, 30
4, 152160, Note_off_c, 2, 70, 64
4, 152160, Note_off_c, 2, 62, 64
4, 152280, Note_on_c, 2, 62, 38
4, 152280, Note_on_c, 2, 70, 38
4, 156000, Note_off_c, 2, 70, 64
4, 156000, Note_off_c, 2, 62, 64
4, 156120, Note_on_c, 2, 62, 46
4, 156120, Note_on_c, 2, 69, 46
4, 159840, Note_off_c, 2, 69, 64
4, 159840, Note_off_c, 2, 62, 64
4, 159960, Note_on_c, 2, 62, 54
4, 159960, Note_on_c, 2, 69, 54
4, 163680, Note_off_c, 2, 69, 64
4, 163680, Note_off_c, 2, 62, 64
4, 163800, Note_on_c, 2, 62, 63
4, 163800, Note_on_c, 2, 69, 63
4, 167520, Note_off_c, 2, 69, 64
4, 167520, Note_off_c, 2, 62, 64
4, 167640, Note_on_c, 2, 62, 75
4, 167640, Note_on_c, 2, 74, 75
4, 168280, Note_off_c, 2, 74, 64
4, 168280, Note_off_c, 2, 62, 64
4, 168360, Note_on_c, 2, 62, 75
4, 168360, Note_on_c, 2, 74, 75
4, 168595, Note_off_c, 2, 74, 64
4, 168595, Note_off_c, 2, 62, 64
4, 168600, Note_on_c, 2, 62, 75
4, 168600, Note_on_c, 2, 74, 75
4, 169240, Note_off_c, 2, 74, 64
4, 169240, Note_off_c, 2, 62, 64
4, 169320, Note_on_c, 2, 62, 75
4, 169320, Note_on_c, 2, 74, 75
4, 169555, Note_off_c, 2, 74, 64
4, 169555, Note_off_c, 2, 62, 64
4, 169560, Note_on_c, 2, 62, 75
4, 169560, Note_on_c, 2, 74, 75
4, 170200, Note_off_c, 2, 74, 64
4, 170200, Note_off_c, 2, 62, 64
4, 170280, Note_on_c, 2, 62, 75
4, 170280, Note_on_c, 2, 74, 75
4, 170515, Note_off_c, 2, 74, 64
4, 170515, Note_off_c, 2, 62, 64
4, 170520, Note_on_c, 2, 62, 75
4, 170520, Note_on_c, 2, 74, 75
4, 171160, Note_off_c, 2, 74, 64
4, 171160, Note_off_c, 2, 62, 64
4, 171240, Note_on_c, 2, 62, 75
4, 171240, Note_on_c, 2, 74, 75
4, 171475, Note_off_c, 2, 74, 64
4, 171475, Note_off_c, 2, 62, 64
4, 171480, Note_on_c, 2, 62, 75
4, 171480, Note_on_c, 2, 74, 75
4, 171715, Note_off_c, 2, 74, 64
4, 171715, Note_off_c, 2, 62, 64
4, 173400, Note_on_c, 2, 62, 75
4, 173400, Note_on_c, 2, 74, 75
4, 173635, Note_off_c, 2, 74, 64
4, 173635, Note_off_c, 2, 62, 64
4, 186840, Note_on_c, 2, 67, 45
4, 187680, Note_off_c, 2, 67, 64
4, 187800, Note_on_c, 2, 62, 45
4, 188640, Note_off_c, 2, 62, 64
4, 188760, Note_on_c, 2, 62, 30
4, 188760, Note_on_c, 2, 71, 30
4, 192480, Note_off_c, 2, 71, 64
4, 192480, Note_off_c, 2, 62, 64
4, 192600, Note_on_c, 2, 62, 30
4, 192600, Note_on_c, 2, 71, 30
4, 200160, Note_off_c, 2, 71, 64
4, 200160, Note_off_c, 2, 62, 64
4, 200280, Note_on_c, 2, 64, 45
4, 200280, Note_on_c, 2, 71, 45
4, 204000, Note_off_c, 2, 71, 64
4, 204000, Note_off_c, 2, 64, 64
4, 204120, Note_on_c, 2, 64, 53
4, 204120, Note_on_c, 2, 71, 53
4, 211680, Note_off_c, 2, 71, 64
4, 211680, Note_off_c, 2, 64, 64
4, 211800, Note_on_c, 2, 64, 75
4, 211800, Note_on_c, 2, 76, 75
4, 212440, Note_off_c, 2, 76, 64
4, 212440, Note_off_c, 2, 64, 64
4, 212520, Note_on_c, 2, 64, 75
4, 212520, Note_on_c, 2, 76, 75
4, 212755, Note_off_c, 2, 76, 64
4, 212755, Note_off_c, 2, 64, 64
4, 212760, Note_on_c, 2, 64, 75
4, 212760, Note_on_c, 2, 76, 75
4, 213400, Note_off_c, 2, 76, 64
4, 213400, Note_off_c, 2, 64, 64
4, 213480, Note_on_c, 2, 64, 75
4, 213480, Note_on_c, 2, 76, 75
4, 213715, Note_off_c, 2, 76, 64
4, 213715, Note_off_c, 2, 64, 64
4, 213720, Note_on_c, 2, 64, 75
4, 213720, Note_on_c, 2, 76, 75
4, 214360, Note_off_c, 2, 76, 64
4, 214360, Note_off_c, 2, 64, 64
4, 214440, Note_on_c, 2, 64, 75
4, 214440, Note_on_c, 2, 76, 75
4, 214675, Note_off_c, 2, 76, 64
4, 214675, Note_off_c, 2, 64, 64
4, 214680, Note_on_c, 2, 64, 75
4, 214680, Note_on_c, 2, 76, 75
4, 215320, Note_off_c, 2, 76, 64
4, 215320, Note_off_c, 2, 64, 64
4, 215400, Note_on_c, 2, 64, 75
4, 215400, Note_on_c, 2, 76, 75
4, 215635, Note_off_c, 2, 76, 64
4, 215635, Note_off_c, 2, 64, 64
4, 215640, Note_on_c, 2, 64, 75
4, 215640, Note_on_c, 2, 76, 75
4, 215875, Note_off_c, 2, 76, 64
4, 215875, Note_off_c, 2, 64, 64
4, 217560, Note_on_c, 2, 64, 75
4, 217560, Note_on_c, 2, 76, 75
4, 217795, Note_off_c, 2, 76, 64
4, 217795, Note_off_c, 2, 64, 64
4, 231000, Note_on_c, 2, 69, 30
4, 231960, Note_off_c, 2, 69, 64
4, 231960, Note_on_c, 2, 64, 30
4, 232800, Note_off_c, 2, 64, 64
4, 252120, Note_on_c, 2, 64, 75
4, 252600, Note_off_c, 2, 64, 64
4, 252600, Note_on_c, 2, 67, 75
4, 253000, Note_off_c, 2, 67, 64
4, 253080, Note_on_c, 2, 65, 75
4, 253800, Note_off_c, 2, 65, 64
4, 253800, Note_on_c, 2, 64, 75
4, 254035, Note_off_c, 2, 64, 64
4, 254040, Note_on_c, 2, 69, 75
4, 254520, Note_off_c, 2, 69, 64
4, 254520, Note_on_c, 2, 67, 75
4, 255000, Note_off_c, 2, 67, 64
4, 255000, Note_on_c, 2, 65, 75
4, 255080, Note_off_c, 2, 65, 64
4, 255240, Note_on_c, 2, 65, 75
4, 255360, Note_off_c, 2, 65, 64
4, 255360, Note_on_c, 2, 67, 75
4, 255480, Note_off_c, 2, 67, 64
4, 255480, Note_on_c, 2, 69, 75
4, 255560, Note_off_c, 2, 69, 64
4, 255720, Note_on_c, 2, 65, 75
4, 255800, Note_off_c, 2, 65, 64
4, 255960, Note_on_c, 2, 67, 75
4, 256440, Note_off_c, 2, 67, 64
4, 256440, Note_on_c, 2, 70, 75
4, 256840, Note_off_c, 2, 70, 64
4, 256920, Note_on_c, 2, 69, 75
4, 257640, Note_off_c, 2, 69, 64
4, 257640, Note_on_c, 2, 67, 75
4, 257875, Note_off_c, 2, 67, 64
4, 257880, Note_on_c, 2, 72, 75
4, 258360, Note_off_c, 2, 72, 64
4, 258360, Note_on_c, 2, 70, 75
4, 258840, Note_off_c, 2, 70, 64
4, 258840, Note_on_c, 2, 69, 75
4, 258920, Note_off_c, 2, 69, 64
4, 259080, Note_on_c, 2, 69, 75
4, 259200, Note_off_c, 2, 69, 64
4, 259200, Note_on_c, 2, 70, 75
4, 259320, Note_off_c, 2, 70, 64
4, 259320, Note_on_c, 2, 72, 75
4, 259400, Note_off_c, 2, 72, 64
4, 259560, Note_on_c, 2, 69, 75
4, 259640, Note_off_c, 2, 69, 64
4, 259800, Note_on_c, 2, 74, 75
4, 260280, Note_off_c, 2, 74, 64
4, 260280, Note_on_c, 2, 72, 75
4, 260760, Note_off_c, 2, 72, 64
4, 260760, Note_on_c, 2, 70, 75
4, 260840, Note_off_c, 2, 70, 64
4, 261000, Note_on_c, 2, 67, 75
4, 261120, Note_off_c, 2, 67, 64
4, 261120, Note_on_c, 2, 69, 75
4, 261240, Note_off_c, 2, 69, 64
4, 261240, Note_on_c, 2, 70, 75
4, 261320, Note_off_c, 2, 70, 64
4, 261480, Note_on_c, 2, 72, 75
4, 261560, Note_off_c, 2, 72, 64
4, 261720, Note_on_c, 2, 74, 75
4, 262200, Note_off_c, 2, 74, 64
4, 262200, Note_on_c, 2, 72, 75
4, 262680, Note_off_c, 2, 72, 64
4, 262680, Note_on_c, 2, 70, 75
4, 262760, Note_off_c, 2, 70, 64
4, 262920, Note_on_c, 2, 67, 72
4, 263040, Note_off_c, 2, 67, 64
4, 263040, Note_on_c, 2, 69, 70
4, 263160, Note_off_c, 2, 69, 64
4, 263160, Note_on_c, 2, 70, 68
4, 263240, Note_off_c, 2, 70, 64
4, 263400, Note_on_c, 2, 72, 64
4, 263480, Note_off_c, 2, 72, 64
4, 263640, Note_on_c, 2, 74, 60
4, 264040, Note_off_c, 2, 74, 64
4, 279000, Note_on_c, 2, 65, 45
4, 279240, Note_on_c, 2, 69, 45
4, 279480, Note_off_c, 2, 69, 64
4, 279480, Note_on_c, 2, 70, 45
4, 279720, Note_off_c, 2, 70, 64
4, 279720, Note_on_c, 2, 74, 45
4, 279840, Note_off_c, 2, 65, 64
4, 279960, Note_off_c, 2, 74, 64
4, 279960, Note_on_c, 2, 67, 45
4, 279960, Note_on_c, 2, 72, 45
4, 280200, Note_off_c, 2, 72, 64
4, 280200, Note_on_c, 2, 67, 45
4, 280320, Note_off_c, 2, 67, 64
4, 280320, Note_on_c, 2, 69, 45
4, 280440, Note_off_c, 2, 69, 64
4, 280440, Note_on_c, 2, 70, 45
4, 280600, Note_off_c, 2, 67, 64
4, 280680, Note_off_c, 2, 70, 64
4, 280680, Note_on_c, 2, 64, 45
4, 280680, Note_on_c, 2, 67, 45
4, 280915, Note_off_c, 2, 67, 64
4, 280915, Note_off_c, 2, 64, 64
4, 280920, Note_on_c, 2, 65, 45
4, 280920, Note_on_c, 2, 69, 45
4, 281400, Note_off_c, 2, 69, 64
4, 281400, Note_off_c, 2, 65, 64
4, 281400, Note_on_c, 2, 69, 45
4, 281400, Note_on_c, 2, 72, 45
4, 281880, Note_off_c, 2, 72, 64
4, 281880, Note_off_c, 2, 69, 64
4, 281880, Note_on_c, 2, 67, 45
4, 281880, Note_on_c, 2, 70, 45
4, 282600, Note_off_c, 2, 70, 64
4, 282600, Note_off_c, 2, 67, 64
4, 282600, Note_on_c, 2, 65, 45
4, 282600, Note_on_c, 2, 69, 45
4, 282835, Note_off_c, 2, 69, 64
4, 282835, Note_off_c, 2, 65, 64
4, 282840, Note_on_c, 2, 70, 45
4, 282840, Note_on_c, 2, 74, 45
4, 283320, Note_off_c, 2, 74, 64
4, 283320, Note_off_c, 2, 70, 64
4, 283320, Note_on_c, 2, 69, 45
4, 283320, Note_on_c, 2, 72, 45
4, 283800, Note_off_c, 2, 72, 64
4, 283800, Note_off_c, 2, 69, 64
4, 283800, Note_on_c, 2, 64, 45
4, 283800, Note_on_c, 2, 67, 45
4, 284035, Note_off_c, 2, 67, 64
4, 284040, Note_on_c, 2, 67, 45
4, 284160, Note_off_c, 2, 67, 64
4, 284160, Note_on_c, 2, 69, 45
4, 284280, Note_off_c, 2, 69, 64
4, 284280, Note_on_c, 2, 70, 45
4, 284520, Note_off_c, 2, 70, 64
4, 284520, Note_on_c, 2, 67, 45
4, 284640, Note_off_c, 2, 64, 64
4, 284760, Note_off_c, 2, 67, 64
4, 284760, Note_on_c, 2, 65, 45
4, 284760, Note_on_c, 2, 69, 45
4, 285160, Note_off_c, 2, 69, 64
4, 285160, Note_off_c, 2, 65, 64
4, 297480, Note_on_c, 2, 70, 48
4, 297600, Note_off_c, 2, 70, 64
4, 297600, Note_on_c, 2, 72, 49
4, 297720, Note_off_c, 2, 72, 64
4, 297720, Note_on_c, 2, 74, 51
4, 297800, Note_off_c, 2, 74, 64
4, 297960, Note_on_c, 2, 76, 55
4, 298040, Note_off_c, 2, 76, 64
4, 298200, Note_on_c, 2, 77, 59
4, 298280, Note_off_c, 2, 77, 64
4, 299160, Note_on_c, 2, 65, 75
4, 299160, Note_on_c, 2, 69, 75
4, 299240, Note_off_c, 2, 69, 64
4, 299240, Note_off_c, 2, 65, 64
4, 299400, Note_on_c, 2, 69, 75
4, 299400, Note_on_c, 2, 81, 75
4, 299480, Note_off_c, 2, 81, 64
4, 299480, Note_off_c, 2, 69, 64
4, 299640, Note_on_c, 2, 70, 75
4, 299640, Note_on_c, 2, 82, 75
4, 299720, Note_off_c, 2, 82, 64
4, 299720, Note_off_c, 2, 70, 64
4, 299880, Note_on_c, 2, 74, 75
4, 299960, Note_off_c, 2, 74, 64
4, 300120, Note_on_c, 2, 72, 75
4, 300360, Note_off_c, 2, 72, 64
4, 300360, Note_on_c, 2, 70, 75
4, 300480, Note_off_c, 2, 70, 64
4, 300480, Note_on_c, 2, 69, 75
4, 300600, Note_off_c, 2, 69, 64
4, 300600, Note_on_c, 2, 67, 75
4, 300680, Note_off_c, 2, 67, 64
4, 300840, Note_on_c, 2, 60, 75
4, 300920, Note_off_c, 2, 60, 64
4, 301080, Note_on_c, 2, 65, 75
4, 301160, Note_off_c, 2, 65, 64
4, 301320, Note_on_c, 2, 64, 75
4, 301320, Note_on_c, 2, 67, 75
4, 301400, Note_off_c, 2, 67, 64
4, 301400, Note_off_c, 2, 64, 64
4, 301560, Note_on_c, 2, 65, 75
4, 301560, Note_on_c, 2, 69, 75
4, 301800, Note_off_c, 2, 69, 64
4, 301800, Note_off_c, 2, 65, 64
4, 301800, Note_on_c, 2, 67, 75
4, 301800, Note_on_c, 2, 70, 75
4, 301920, Note_off_c, 2, 70, 64
4, 301920, Note_off_c, 2, 67, 64
4, 301920, Note_on_c, 2, 65, 75
4, 301920, Note_on_c, 2, 69, 75
4, 302035, Note_off_c, 2, 69, 64
4, 302035, Note_off_c, 2, 65, 64
4, 302040, Note_on_c, 2, 64, 75
4, 302040, Note_on_c, 2, 67, 75
4, 302120, Note_off_c, 2, 67, 64
4, 302120, Note_off_c, 2, 64, 64
4, 302280, Note_on_c, 2, 65, 75
4, 302280, Note_on_c, 2, 69, 75
4, 302360, Note_off_c, 2, 69, 64
4, 302360, Note_off_c, 2, 65, 64
4, 302520, Note_on_c, 2, 67, 75
4, 302520, Note_on_c, 2, 70, 75
4, 302760, Note_off_c, 2, 70, 64
4, 302760, Note_off_c, 2, 67, 64
4, 302760, Note_on_c, 2, 69, 75
4, 302760, Note_on_c, 2, 72, 75
4, 302880, Note_off_c, 2, 72, 64
4, 302880, Note_off_c, 2, 69, 64
4, 302880, Note_on_c, 2, 67, 75
4, 302880, Note_on_c, 2, 70, 75
4, 302995, Note_off_c, 2, 70, 64
4, 302995, Note_off_c, 2, 67, 64
4, 303000, Note_on_c, 2, 65, 75
4, 303000, Note_on_c, 2, 69, 75
4, 303240, Note_off_c, 2, 69, 64
4, 303240, Note_off_c, 2, 65, 64
4, 303240, Note_on_c, 2, 69, 75
4, 303240, Note_on_c, 2, 72, 75
4, 303320, Note_off_c, 2, 72, 64
4, 303320, Note_off_c, 2, 69, 64
4, 303480, Note_on_c, 2, 69, 75
4, 303480, Note_on_c, 2, 72, 75
4, 303560, Note_off_c, 2, 72, 64
4, 303560, Note_off_c, 2, 69, 64
4, 303720, Note_on_c, 2, 69, 75
4, 303720, Note_on_c, 2, 72, 75
4, 303800, Note_off_c, 2, 72, 64
4, 303800, Note_off_c, 2, 69, 64
4, 303960, Note_on_c, 2, 69, 75
4, 303960, Note_on_c, 2, 72, 75
4, 304440, Note_off_c, 2, 72, 64
4, 304440, Note_off_c, 2, 69, 64
4, 304440, Note_on_c, 2, 67, 75
4, 304440, Note_on_c, 2, 70, 75
4, 304560, Note_off_c, 2, 70, 64
4, 304560, Note_off_c, 2, 67, 64
4, 304560, Note_on_c, 2, 65, 75
4, 304560, Note_on_c, 2, 69, 75
4, 304680, Note_off_c, 2, 69, 64
4, 304680, Note_off_c, 2, 65, 64
4, 304680, Note_on_c, 2, 64, 75
4, 304680, Note_on_c, 2, 67, 75
4, 304800, Note_off_c, 2, 67, 64
4, 304800, Note_off_c, 2, 64, 64
4, 304800, Note_on_c, 2, 62, 75
4, 304800, Note_on_c, 2, 65, 75
4, 304915, Note_off_c, 2, 65, 64
4, 304915, Note_off_c, 2, 62, 64
4, 304920, Note_on_c, 2, 60, 75
4, 304920, Note_on_c, 2, 64, 75
4, 305000, Note_off_c, 2, 64, 64
4, 305000, Note_off_c, 2, 60, 64
4, 305160, Note_on_c, 2, 62, 75
4, 305160, Note_on_c, 2, 65, 75
4, 305240, Note_off_c, 2, 65, 64
4, 305240, Note_off_c, 2, 62, 64
4, 305400, Note_on_c, 2, 64, 75
4, 305400, Note_on_c, 2, 67, 75
4, 305640, Note_off_c, 2, 67, 64
4, 305640, Note_off_c, 2, 64, 64
4, 305640, Note_on_c, 2, 65, 75
4, 305640, Note_on_c, 2, 69, 75
4, 305760, Note_off_c, 2, 69, 64
4, 305760, Note_off_c, 2, 65, 64
4, 305760, Note_on_c, 2, 64, 75
4, 305760, Note_on_c, 2, 67, 75
4, 305875, Note_off_c, 2, 67, 64
4, 305875, Note_off_c, 2, 64, 64
4, 305880, Note_on_c, 2, 62, 75
4, 305880, Note_on_c, 2, 65, 75
4, 305960, Note_off_c, 2, 65, 64
4, 305960, Note_off_c, 2, 62, 64
4, 306120, Note_on_c, 2, 64, 75
4, 306120, Note_on_c, 2, 67, 75
4, 306200, Note_off_c, 2, 67, 64
4, 306200, Note_off_c, 2, 64, 64
4, 306360, Note_on_c, 2, 65, 75
4, 306360, Note_on_c, 2, 69, 75
4, 306600, Note_off_c, 2, 69, 64
4, 306600, Note_off_c, 2, 65, 64
4, 306600, Note_on_c, 2, 67, 75
4, 306600, Note_on_c, 2, 70, 75
4, 306720, Note_off_c, 2, 70, 64
4, 306720, Note_off_c, 2, 67, 64
4, 306720, Note_on_c, 2, 65, 75
4, 306720, Note_on_c, 2, 69, 75
4, 306835, Note_off_c, 2, 69, 64
4, 306835, Note_off_c, 2, 65, 64
4, 306840, Note_on_c, 2, 64, 75
4, 306840, Note_on_c, 2, 67, 75
4, 307080, Note_off_c, 2, 67, 64
4, 307080, Note_off_c, 2, 64, 64
4, 307080, Note_on_c, 2, 67, 75
4, 307080, Note_on_c, 2, 70, 75
4, 307160, Note_off_c, 2, 70, 64
4, 307160, Note_off_c, 2, 67, 64
4, 307320, Note_on_c, 2, 67, 75
4, 307320, Note_on_c, 2, 70, 75
4, 307400, Note_off_c, 2, 70, 64
4, 307400, Note_off_c, 2, 67, 64
4, 307560, Note_on_c, 2, 67, 75
4, 307560, Note_on_c, 2, 70, 75
4, 307640, Note_off_c, 2, 70, 64
4, 307640, Note_off_c, 2, 67, 64
4, 307800, Note_on_c, 2, 67, 75
4, 307800, Note_on_c, 2, 70, 75
4, 308280, Note_off_c, 2, 70, 64
4, 308280, Note_off_c, 2, 67, 64
4, 308280, Note_on_c, 2, 69, 75
4, 308280, Note_on_c, 2, 72, 75
4, 308400, Note_off_c, 2, 72, 64
4, 308400, Note_off_c, 2, 69, 64
4, 308400, Note_on_c, 2, 67, 75
4, 308400, Note_on_c, 2, 70, 75
4, 308520, Note_off_c, 2, 70, 64
4, 308520, Note_off_c, 2, 67, 64
4, 308520, Note_on_c, 2, 65, 75
4, 308520, Note_on_c, 2, 69, 75
4, 308640, Note_off_c, 2, 69, 64
4, 308640, Note_off_c, 2, 65, 64
4, 308640, Note_on_c, 2, 64, 75
4, 308640, Note_on_c, 2, 67, 75
4, 308755, Note_off_c, 2, 67, 64
4, 308755, Note_off_c, 2, 64, 64
4, 308760, Note_on_c, 2, 65, 75
4, 308760, Note_on_c, 2, 69, 75
4, 308840, Note_off_c, 2, 69, 64
4, 308840, Note_off_c, 2, 65, 64
4, 309000, Note_on_c, 2, 67, 75
4, 309000, Note_on_c, 2, 70, 75
4, 309080, Note_off_c, 2, 70, 64
4, 309080, Note_off_c, 2, 67, 64
4, 309240, Note_on_c, 2, 69, 75
4, 309240, Note_on_c, 2, 72, 75
4, 309480, Note_off_c, 2, 72, 64
4, 309480, Note_off_c, 2, 69, 64
4, 309480, Note_on_c, 2, 70, 75
4, 309480, Note_on_c, 2, 74, 75
4, 309600, Note_off_c, 2, 74, 64
4, 309600, Note_off_c, 2, 70, 64
4, 309600, Note_on_c, 2, 69, 75
4, 309600, Note_on_c, 2, 72, 75
4, 309715, Note_off_c, 2, 72, 64
4, 309715, Note_off_c, 2, 69, 64
4, 309720, Note_on_c, 2, 67, 75
4, 309720, Note_on_c, 2, 70, 75
4, 310440, Note_off_c, 2, 70, 64
4, 310440, Note_off_c, 2, 67, 64
4, 310440, Note_on_c, 2, 64, 75
4, 310440, Note_on_c, 2, 67, 75
4, 310520, Note_off_c, 2, 67, 64
4, 310520, Note_off_c, 2, 64, 64
4, 310680, Note_on_c, 2, 65, 75
4, 310680, Note_on_c, 2, 69, 75
4, 310760, Note_off_c, 2, 69, 64
4, 310760, Note_off_c, 2, 65, 64
4, 310920, Note_on_c, 2, 67, 75
4, 310920, Note_on_c, 2, 70, 75
4, 311000, Note_off_c, 2, 70, 64
4, 311000, Note_off_c, 2, 67, 64
4, 311160, Note_on_c, 2, 69, 75
4, 311160, Note_on_c, 2, 72, 75
4, 311560, Note_off_c, 2, 72, 64
4, 311560, Note_off_c, 2, 69, 64
4, 311640, Note_on_c, 2, 67, 75
4, 311640, Note_on_c, 2, 70, 75
4, 312360, Note_off_c, 2, 70, 64
4, 312360, Note_off_c, 2, 67, 64
4, 312360, Note_on_c, 2, 64, 75
4, 312360, Note_on_c, 2, 67, 75
4, 312440, Note_off_c, 2, 67, 64
4, 312440, Note_off_c, 2, 64, 64
4, 312600, Note_on_c, 2, 65, 75
4, 312600, Note_on_c, 2, 69, 75
4, 312840, Note_off_c, 2, 69, 64
4, 312840, Note_off_c, 2, 65, 64
4, 312840, Note_on_c, 2, 64, 75
4, 312840, Note_on_c, 2, 67, 75
4, 313080, Note_off_c, 2, 67, 64
4, 313080, Note_off_c, 2, 64, 64
4, 313080, Note_on_c, 2, 67, 75
4, 313080, Note_on_c, 2, 70, 75
4, 313320, Note_off_c, 2, 70, 64
4, 313320, Note_off_c, 2, 67, 64
4, 313320, Note_on_c, 2, 64, 75
4, 313320, Note_on_c, 2, 67, 75
4, 313555, Note_off_c, 2, 67, 64
4, 313555, Note_off_c, 2, 64, 64
4, 313560, Note_on_c, 2, 65, 75
4, 313560, Note_on_c, 2, 69, 75
4, 313800, Note_off_c, 2, 69, 64
4, 313800, Note_off_c, 2, 65, 64
4, 313800, Note_on_c, 2, 64, 68
4, 313800, Note_on_c, 2, 67, 68
4, 314040, Note_off_c, 2, 67, 64
4, 314040, Note_off_c, 2, 64, 64
4, 314040, Note_on_c, 2, 67, 61
4, 314040, Note_on_c, 2, 70, 61
4, 314280, Note_off_c, 2, 70, 64
4, 314280, Note_off_c, 2, 67, 64
4, 314280, Note_on_c, 2, 64, 53
4, 314280, Note_on_c, 2, 67, 53
4, 314515, Note_off_c, 2, 67, 64
4, 314515, Note_off_c, 2, 64, 64
4, 314520, Note_on_c, 2, 65, 45
4, 314520, Note_on_c, 2, 69, 45
4, 314675, Note_off_c, 2, 69, 64
4, 314675, Note_off_c, 2, 65, 64
4, 314680, Note_on_c, 2, 65, 45
4, 314680, Note_on_c, 2, 69, 45
4, 314835, Note_off_c, 2, 69, 64
4, 314835, Note_off_c, 2, 65, 64
4, 314840, Note_on_c, 2, 65, 45
4, 314840, Note_on_c, 2, 69, 45
4, 314995, Note_off_c, 2, 69, 64
4, 314995, Note_off_c, 2, 65, 64
4, 315000, Note_on_c, 2, 65, 45
4, 315000, Note_on_c, 2, 69, 45
4, 315155, Note_off_c, 2, 69, 64
4, 315155, Note_off_c, 2, 65, 64
4, 315160, Note_on_c, 2, 65, 45
4, 315160, Note_on_c, 2, 69, 45
4, 315315, Note_off_c, 2, 69, 64
4, 315315, Note_off_c, 2, 65, 64
4, 315320, Note_on_c, 2, 65, 45
4, 315320, Note_on_c, 2, 69, 45
4, 315475, Note_off_c, 2, 69, 64
4, 315475, Note_off_c, 2, 65, 64
4, 315480, Note_on_c, 2, 65, 45
4, 315480, Note_on_c, 2, 69, 45
4, 315880, Note_off_c, 2, 69, 64
4, 315880, Note_off_c, 2, 65, 64
4, 318360, Note_on_c, 2, 65, 45
4, 318360, Note_on_c, 2, 69, 45
4, 318515, Note_off_c, 2, 69, 64
4, 318515, Note_off_c, 2, 65, 64
4, 318520, Note_on_c, 2, 65, 45
4, 318520, Note_on_c, 2, 69, 45
4, 318675, Note_off_c, 2, 69, 64
4, 318675, Note_off_c, 2, 65, 64
4, 318680, Note_on_c, 2, 65, 45
4, 318680, Note_on_c, 2, 69, 45
4, 318835, Note_off_c, 2, 69, 64
4, 318835, Note_off_c, 2, 65, 64
4, 318840, Note_on_c, 2, 65, 45
4, 318840, Note_on_c, 2, 69, 45
4, 318995, Note_off_c, 2, 69, 64
4, 318995, Note_off_c, 2, 65, 64
4, 319000, Note_on_c, 2, 65, 45
4, 319000, Note_on_c, 2, 69, 45
4, 319155, Note_off_c, 2, 69, 64
4, 319155, Note_off_c, 2, 65, 64
4, 319160, Note_on_c, 2, 65, 45
4, 319160, Note_on_c, 2, 69, 45
4, 319315, Note_off_c, 2, 69, 64
4, 319315, Note_off_c, 2, 65, 64
4, 319320, Note_on_c, 2, 65, 45
4, 319320, Note_on_c, 2, 69, 45
4, 319720, Note_off_c, 2, 69, 64
4, 319720, Note_off_c, 2, 65, 64
4, 322200, Note_on_c, 2, 65, 45
4, 322200, Note_on_c, 2, 69, 45
4, 322355, Note_off_c, 2, 69, 64
4, 322355, Note_off_c, 2, 65, 64
4, 322360, Note_on_c, 2, 65, 45
4, 322360, Note_on_c, 2, 69, 45
4, 322515, Note_off_c, 2, 69, 64
4, 322515, Note_off_c, 2, 65, 64
4, 322520, Note_on_c, 2, 65, 45
4, 322520, Note_on_c, 2, 69, 45
4, 322675, Note_off_c, 2, 69, 64
4, 322675, Note_off_c, 2, 65, 64
4, 322680, Note_on_c, 2, 65, 45
4, 322680, Note_on_c, 2, 69, 45
4, 322835, Note_off_c, 2, 69, 64
4, 322835, Note_off_c, 2, 65, 64
4, 322840, Note_on_c, 2, 65, 45
4, 322840, Note_on_c, 2, 69, 45
4, 322995, Note_off_c, 2, 69, 64
4, 322995, Note_off_c, 2, 65, 64
4, 323000, Note_on_c, 2, 65, 45
4, 323000, Note_on_c, 2, 69, 45
4, 323155, Note_off_c, 2, 69, 64
4, 323155, Note_off_c, 2, 65, 64
4, 323160, Note_on_c, 2, 65, 45
4, 323160, Note_on_c, 2, 69, 45
4, 323560, Note_off_c, 2, 69, 64
4, 323560, Note_off_c, 2, 65, 64
4, 324120, Note_on_c, 2, 62, 45
4, 324120, Note_on_c, 2, 65, 45
4, 324275, Note_off_c, 2, 65, 64
4, 324275, Note_off_c, 2, 62, 64
4, 324280, Note_on_c, 2, 62, 45
4, 324280, Note_on_c, 2, 65, 45
4, 324435, Note_off_c, 2, 65, 64
4, 324435, Note_off_c, 2, 62, 64
4, 324440, Note_on_c, 2, 62, 45
4, 324440, Note_on_c, 2, 65, 45
4, 324595, Note_off_c, 2, 65, 64
4, 324595, Note_off_c, 2, 62, 64
4, 324600, Note_on_c, 2, 62, 45
4, 324600, Note_on_c, 2, 65, 45
4, 324755, Note_off_c, 2, 65, 64
4, 324755, Note_off_c, 2, 62, 64
4, 324760, Note_on_c, 2, 62, 45
4, 324760, Note_on_c, 2, 65, 45
4, 324915, Note_off_c, 2, 65, 64
4, 324915, Note_off_c, 2, 62, 64
4, 324920, Note_on_c, 2, 62, 45
4, 324920, Note_on_c, 2, 65, 45
4, 325075, Note_off_c, 2, 65, 64
4, 325075, Note_off_c, 2, 62, 64
4, 325080, Note_on_c, 2, 62, 45
4, 325080, Note_on_c, 2, 65, 45
4, 325480, Note_off_c, 2, 65, 64
4, 325480, Note_off_c, 2, 62, 64
4, 326040, Note_on_c, 2, 60, 45
4, 326040, Note_on_c, 2, 64, 45
4, 326195, Note_off_c, 2, 64, 64
4, 326195, Note_off_c, 2, 60, 64
4, 326200, Note_on_c, 2, 60, 45
4, 326200, Note_on_c, 2, 64, 45
4, 326355, Note_off_c, 2, 64, 64
4, 326355, Note_off_c, 2, 60, 64
4, 326360, Note_on_c, 2, 60, 45
4, 326360, Note_on_c, 2, 64, 45
4, 326515, Note_off_c, 2, 64, 64
4, 326515, Note_off_c, 2, 60, 64
4, 326520, Note_on_c, 2, 60, 45
4, 326520, Note_on_c, 2, 64, 45
4, 326675, Note_off_c, 2, 64, 64
4, 326675, Note_off_c, 2, 60, 64
4, 326680, Note_on_c, 2, 60, 45
4, 326680, Note_on_c, 2, 64, 45
4, 326835, Note_off_c, 2, 64, 64
4, 326835, Note_off_c, 2, 60, 64
4, 326840, Note_on_c, 2, 60, 45
4, 326840, Note_on_c, 2, 64, 45
4, 326995, Note_off_c, 2, 64, 64
4, 326995, Note_off_c, 2, 60, 64
4, 327000, Note_on_c, 2, 60, 45
4, 327000, Note_on_c, 2, 64, 45
4, 327400, Note_off_c, 2, 64, 64
4, 327400, Note_off_c, 2, 60, 64
4, 351000, Note_on_c, 2, 72, 60
4, 351000, Note_on_c, 2, 74, 60
4, 351240, Note_off_c, 2, 74, 64
4, 351240, Note_on_c, 2, 72, 60
4, 351480, Note_off_c, 2, 72, 64
4, 351480, Note_on_c, 2, 70, 60
4, 351720, Note_off_c, 2, 70, 64
4, 351720, Note_on_c, 2, 67, 60
4, 351840, Note_off_c, 2, 72, 64
4, 351960, Note_off_c, 2, 67, 64
4, 351960, Note_on_c, 2, 60, 60
4, 351960, Note_on_c, 2, 72, 60
4, 352200, Note_off_c, 2, 60, 64
4, 352200, Note_on_c, 2, 70, 60
4, 352440, Note_off_c, 2, 70, 64
4, 352440, Note_on_c, 2, 67, 60
4, 352680, Note_off_c, 2, 67, 64
4, 352680, Note_on_c, 2, 60, 60
4, 352800, Note_off_c, 2, 72, 64
4, 352915, Note_off_c, 2, 60, 64
4, 352920, Note_on_c, 2, 74, 60
4, 353160, Note_off_c, 2, 74, 64
4, 353160, Note_on_c, 2, 72, 60
4, 353400, Note_off_c, 2, 72, 64
4, 353400, Note_on_c, 2, 69, 61
4, 353640, Note_off_c, 2, 69, 64
4, 353640, Note_on_c, 2, 65, 62
4, 353880, Note_off_c, 2, 65, 64
4, 353880, Note_on_c, 2, 60, 63
4, 354120, Note_off_c, 2, 60, 64
4, 354120, Note_on_c, 2, 69, 64
4, 354360, Note_off_c, 2, 69, 64
4, 354360, Note_on_c, 2, 65, 65
4, 354600, Note_off_c, 2, 65, 64
4, 354600, Note_on_c, 2, 60, 66
4, 354835, Note_off_c, 2, 60, 64
4, 354840, Note_on_c, 2, 74, 67
4, 354840, Note_on_c, 2, 76, 67
4, 355080, Note_off_c, 2, 74, 64
4, 355080, Note_on_c, 2, 72, 68
4, 355240, Note_off_c, 2, 76, 64
4, 355320, Note_off_c, 2, 72, 64
4, 355320, Note_on_c, 2, 70, 69
4, 355320, Note_on_c, 2, 76, 69
4, 355560, Note_off_c, 2, 70, 64
4, 355560, Note_on_c, 2, 67, 70
4, 355720, Note_off_c, 2, 76, 64
4, 355800, Note_off_c, 2, 67, 64
4, 355800, Note_on_c, 2, 60, 71
4, 355800, Note_on_c, 2, 76, 71
4, 356040, Note_off_c, 2, 60, 64
4, 356040, Note_on_c, 2, 70, 72
4, 356200, Note_off_c, 2, 76, 64
4, 356280, Note_off_c, 2, 70, 64
4, 356280, Note_on_c, 2, 67, 73
4, 356280, Note_on_c, 2, 79, 73
4, 356515, Note_off_c, 2, 79, 64
4, 356520, Note_off_c, 2, 67, 64
4, 356520, Note_on_c, 2, 60, 74
4, 356520, Note_on_c, 2, 76, 74
4, 356755, Note_off_c, 2, 76, 64
4, 356755, Note_off_c, 2, 60, 64
4, 356760, Note_on_c, 2, 69, 75
4, 356760, Note_on_c, 2, 77, 75
4, 357160, Note_off_c, 2, 77, 64
4, 357160, Note_off_c, 2, 69, 64
4, 359640, Note_on_c, 2, 62, 75
4, 359640, Note_on_c, 2, 74, 75
4, 359875, Note_off_c, 2, 74, 64
4, 359875, Note_off_c, 2, 62, 64
4, 360720, Note_on_c, 2, 74, 45
4, 360720, Note_on_c, 2, 77, 45
4, 361200, Note_off_c, 2, 77, 64
4, 361200, Note_off_c, 2, 74, 64
4, 361200, Note_on_c, 2, 72, 45
4, 361200, Note_on_c, 2, 76, 45
4, 361440, Note_off_c, 2, 76, 64
4, 361440, Note_off_c, 2, 72, 64
4, 361440, Note_on_c, 2, 70, 45
4, 361440, Note_on_c, 2, 74, 45
4, 361675, Note_off_c, 2, 74, 64
4, 361675, Note_off_c, 2, 70, 64
4, 361680, Note_on_c, 2, 69, 45
4, 361680, Note_on_c, 2, 72, 45
4, 362160, Note_off_c, 2, 72, 64
4, 362160, Note_off_c, 2, 69, 64
4, 362160, Note_on_c, 2, 67, 45
4, 362160, Note_on_c, 2, 70, 45
4, 362400, Note_off_c, 2, 70, 64
4, 362400, Note_off_c, 2, 67, 64
4, 362400, Note_on_c, 2, 65, 45
4, 362400, Note_on_c, 2, 69, 45
4, 362635, Note_off_c, 2, 69, 64
4, 362635, Note_off_c, 2, 65, 64
4, 362640, Note_on_c, 2, 65, 45
4, 362640, Note_on_c, 2, 69, 45
4, 362880, Note_off_c, 2, 69, 64
4, 362880, Note_off_c, 2, 65, 64
4, 362880, Note_on_c, 2, 64, 45
4, 362880, Note_on_c, 2, 67, 45
4, 363120, Note_off_c, 2, 67, 64
4, 363120, Note_off_c, 2, 64, 64
4, 363120, Note_on_c, 2, 62, 45
4, 363120, Note_on_c, 2, 65, 45
4, 363360, Note_off_c, 2, 65, 64
4, 363360, Note_off_c, 2, 62, 64
4, 363360, Note_on_c, 2, 64, 45
4, 363360, Note_on_c, 2, 67, 45
4, 363600, Note_off_c, 2, 67, 64
4, 363600, Note_off_c, 2, 64, 64
4, 363600, Note_on_c, 2, 65, 75
4, 363600, Note_on_c, 2, 69, 75
4, 363835, Note_off_c, 2, 69, 64
4, 363835, Note_off_c, 2, 65, 64
4, 366480, Note_on_c, 2, 69, 75
4, 366480, Note_on_c, 2, 77, 75
4, 366715, Note_off_c, 2, 77, 64
4, 366715, Note_off_c, 2, 69, 64
4, 367560, Note_on_c, 2, 74, 45
4, 367560, Note_on_c, 2, 77, 45
4, 368040, Note_off_c, 2, 77, 64
4, 368040, Note_off_c, 2, 74, 64
4, 368040, Note_on_c, 2, 72, 45
4, 368040, Note_on_c, 2, 76, 45
4, 368280, Note_off_c, 2, 76, 64
4, 368280, Note_off_c, 2, 72, 64
4, 368280, Note_on_c, 2, 70, 45
4, 368280, Note_on_c, 2, 74, 45
4, 368515, Note_off_c, 2, 74, 64
4, 368515, Note_off_c, 2, 70, 64
4, 368520, Note_on_c, 2, 69, 45
4, 368520, Note_on_c, 2, 72, 45
4, 369000, Note_off_c, 2, 72, 64
4, 369000, Note_off_c, 2, 69, 64
4, 369000, Note_on_c, 2, 67, 45
4, 369000, Note_on_c, 2, 70, 45
4, 369240, Note_off_c, 2, 70, 64
4, 369240, Note_off_c, 2, 67, 64
4, 369240, Note_on_c, 2, 65, 45
4, 369240, Note_on_c, 2, 69, 45
4, 369475, Note_off_c, 2, 69, 64
4, 369475, Note_off_c, 2, 65, 64
4, 369480, Note_on_c, 2, 65, 45
4, 369480, Note_on_c, 2, 69, 45
4, 369720, Note_off_c, 2, 69, 64
4, 369720, Note_off_c, 2, 65, 64
4, 369720, Note_on_c, 2, 64, 45
4, 369720, Note_on_c, 2, 67, 45
4, 369960, Note_off_c, 2, 67, 64
4, 369960, Note_off_c, 2, 64, 64
4, 369960, Note_on_c, 2, 62, 45
4, 369960, Note_on_c, 2, 65, 45
4, 370200, Note_off_c, 2, 65, 64
4, 370200, Note_off_c, 2, 62, 64
4, 370200, Note_on_c, 2, 64, 45
4, 370200, Note_on_c, 2, 67, 45
4, 370440, Note_off_c, 2, 67, 64
4, 370440, Note_off_c, 2, 64, 64
4, 370440, Note_on_c, 2, 65, 45
4, 370440, Note_on_c, 2, 69, 45
4, 370675, Note_off_c, 2, 69, 64
4, 370675, Note_off_c, 2, 65, 64
4, 370680, Note_on_c, 2, 65, 45
4, 370920, Note_off_c, 2, 65, 64
4, 370920, Note_on_c, 2, 77, 45
4, 371155, Note_off_c, 2, 77, 64
4, 371160, Note_on_c, 2, 77, 47
4, 371395, Note_off_c, 2, 77, 64
4, 371400, Note_on_c, 2, 74, 49
4, 371400, Note_on_c, 2, 77, 49
4, 371480, Note_off_c, 2, 77, 64
4, 371480, Note_off_c, 2, 74, 64
4, 371640, Note_on_c, 2, 74, 51
4, 371640, Note_on_c, 2, 77, 51
4, 371880, Note_off_c, 2, 77, 64
4, 371880, Note_off_c, 2, 74, 64
4, 371880, Note_on_c, 2, 72, 53
4, 371880, Note_on_c, 2, 76, 53
4, 372120, Note_off_c, 2, 76, 64
4, 372120, Note_off_c, 2, 72, 64
4, 372120, Note_on_c, 2, 70, 55
4, 372120, Note_on_c, 2, 74, 55
4, 372355, Note_off_c, 2, 74, 64
4, 372355, Note_off_c, 2, 70, 64
4, 372360, Note_on_c, 2, 69, 57
4, 372360, Note_on_c, 2, 72, 57
4, 372440, Note_off_c, 2, 72, 64
4, 372440, Note_off_c, 2, 69, 64
4, 372600, Note_on_c, 2, 69, 59
4, 372600, Note_on_c, 2, 72, 59
4, 372680, Note_off_c, 2, 72, 64
4, 372680, Note_off_c, 2, 69, 64
4, 372840, Note_on_c, 2, 67, 61
4, 372840, Note_on_c, 2, 70, 61
4, 372920, Note_off_c, 2, 70, 64
4, 372920, Note_off_c, 2, 67, 64
4, 373080, Note_on_c, 2, 65, 63
4, 373080, Note_on_c, 2, 69, 63
4, 373315, Note_off_c, 2, 69, 64
4, 373315, Note_off_c, 2, 65, 64
4, 373320, Note_on_c, 2, 65, 65
4, 373320, Note_on_c, 2, 69, 65
4, 373560, Note_off_c, 2, 69, 64
4, 373560, Note_off_c, 2, 65, 64
4, 373560, Note_on_c, 2, 64, 67
4, 373560, Note_on_c, 2, 67, 67
4, 373800, Note_off_c, 2, 67, 64
4, 373800, Note_off_c, 2, 64, 64
4, 373800, Note_on_c, 2, 62, 69
4, 373800, Note_on_c, 2, 65, 69
4, 374040, Note_off_c, 2, 65, 64
4, 374040, Note_off_c, 2, 62, 64
4, 374040, Note_on_c, 2, 64, 72
4, 374040, Note_on_c, 2, 67, 72
4, 374275, Note_off_c, 2, 67, 64
4, 374275, Note_off_c, 2, 64, 64
4, 374280, Note_on_c, 2, 65, 75
4, 374280, Note_on_c, 2, 69, 75
4, 374515, Note_off_c, 2, 69, 64
4, 374515, Note_off_c, 2, 65, 64
4, 374760, Note_on_c, 2, 72, 75
4, 374760, Note_on_c, 2, 77, 75
4, 374995, Note_off_c, 2, 77, 64
4, 374995, Note_off_c, 2, 72, 64
4, 375240, Note_on_c, 2, 74, 75
4, 375240, Note_on_c, 2, 77, 75
4, 375475, Note_off_c, 2, 77, 64
4, 375475, Note_off_c, 2, 74, 64
4, 375720, Note_on_c, 2, 70, 75
4, 375720, Note_on_c, 2, 74, 75
4, 375955, Note_off_c, 2, 74, 64
4, 375955, Note_off_c, 2, 70, 64
4, 376200, Note_on_c, 2, 69, 75
4, 376200, Note_on_c, 2, 72, 75
4, 376435, Note_off_c, 2, 72, 64
4, 376435, Note_off_c, 2, 69, 64
4, 376680, Note_on_c, 2, 65, 75
4, 376680, Note_on_c, 2, 69, 75
4, 376915, Note_off_c, 2, 69, 64
4, 376915, Note_off_c, 2, 65, 64
4, 377160, Note_on_c, 2, 64, 75
4, 377160, Note_on_c, 2, 67, 75
4, 377395, Note_off_c, 2, 67, 64
4, 377395, Note_off_c, 2, 64, 64
4, 377640, Note_on_c, 2, 64, 75
4, 377640, Note_on_c, 2, 72, 75
4, 377875, Note_off_c, 2, 72, 64
4, 377875, Note_off_c, 2, 64, 64
4, 378120, Note_on_c, 2, 65, 60
4, 378120, Note_on_c, 2, 77, 60
4, 378600, Note_off_c, 2, 77, 64
4, 378600, Note_off_c, 2, 65, 64
4, 378600, Note_on_c, 2, 60, 60
4, 378600, Note_on_c, 2, 72, 60
4, 379920, Note_off_c, 2, 72, 64
4, 379920, Note_off_c, 2, 60, 64
4, 380040, Note_on_c, 2, 69, 60
4, 380040, Note_on_c, 2, 81, 60
4, 380520, Note_off_c, 2, 81, 64
4, 380520, Note_off_c, 2, 69, 64
4, 380520, Note_on_c, 2, 65, 60
4, 380520, Note_on_c, 2, 77, 60
4, 381840, Note_off_c, 2, 77, 64
4, 381840, Note_off_c, 2, 65, 64
4, 381960, Note_on_c, 2, 65, 60
4, 381960, Note_on_c, 2, 77, 60
4, 382440, Note_off_c, 2, 77, 64
4, 382440, Note_off_c, 2, 65, 64
4, 382440, Note_on_c, 2, 60, 60
4, 382440, Note_on_c, 2, 72, 60
4, 383760, Note_off_c, 2, 72, 64
4, 383760, Note_off_c, 2, 60, 64
4, 383880, Note_on_c, 2, 69, 60
4, 383880, Note_on_c, 2, 81, 60
4, 384360, Note_off_c, 2, 81, 64
4, 384360, Note_off_c, 2, 69, 64
4, 384360, Note_on_c, 2, 65, 60
4, 384360, Note_on_c, 2, 77, 60
4, 386280, Note_off_c, 2, 77, 64
4, 386280, Note_off_c, 2, 65, 64
4, 386280, Note_on_c, 2, 60, 30
4, 386280, Note_on_c, 2, 72, 30
4, 386760, Note_off_c, 2, 72, 64
4, 386760, Note_off_c, 2, 60, 64
4, 386760, Note_on_c, 2, 65, 30
4, 386760, Note_on_c, 2, 77, 30
4, 387240, Note_off_c, 2, 77, 64
4, 387240, Note_off_c, 2, 65, 64
4, 387240, Note_on_c, 2, 60, 30
4, 387240, Note_on_c, 2, 72, 30
4, 387720, Note_off_c, 2, 72, 64
4, 387720, Note_off_c, 2, 60, 64
4, 387720, Note_on_c, 2, 65, 30
4, 387720, Note_on_c, 2, 77, 30
4, 388200, Note_off_c, 2, 77, 64
4, 388200, Note_off_c, 2, 65, 64
4, 388200, Note_on_c, 2, 60, 30
4, 388200, Note_on_c, 2, 72, 30
4, 388680, Note_off_c, 2, 72, 64
4, 388680, Note_off_c, 2, 60, 64
4, 388680, Note_on_c, 2, 65, 30
4, 388680, Note_on_c, 2, 77, 30
4, 389160, Note_off_c, 2, 77, 64
4, 389160, Note_off_c, 2, 65, 64
4, 389160, Note_on_c, 2, 60, 30
4, 389160, Note_on_c, 2, 72, 30
4, 389640, Note_off_c, 2, 72, 64
4, 389640, Note_off_c, 2, 60, 64
4, 389640, Note_on_c, 2, 65, 30
4, 389640, Note_on_c, 2, 77, 30
4, 390040, Note_off_c, 2, 77, 64
4, 390040, Note_off_c, 2, 65, 64
4, 401520, Note_on_c, 2, 74, 45
4, 401760, Note_off_c, 2, 74, 64
4, 401760, Note_on_c, 2, 75, 45
4, 401840, Note_off_c, 2, 75, 64
4, 402000, Note_on_c, 2, 79, 45
4, 402080, Note_off_c, 2, 79, 64
4, 402240, Note_on_c, 2, 77, 45
4, 402480, Note_off_c, 2, 77, 64
4, 402480, Note_on_c, 2, 75, 45
4, 402600, Note_off_c, 2, 75, 64
4, 402600, Note_on_c, 2, 74, 45
4, 402720, Note_off_c, 2, 74, 64
4, 402720, Note_on_c, 2, 72, 45
4, 402800, Note_off_c, 2, 72, 64
4, 402960, Note_on_c, 2, 65, 45
4, 403040, Note_off_c, 2, 65, 64
4, 403440, Note_on_c, 2, 74, 45
4, 403680, Note_off_c, 2, 74, 64
4, 403680, Note_on_c, 2, 75, 45
4, 403760, Note_off_c, 2, 75, 64
4, 403920, Note_on_c, 2, 79, 45
4, 404000, Note_off_c, 2, 79, 64
4, 404160, Note_on_c, 2, 77, 45
4, 404400, Note_off_c, 2, 77, 64
4, 404400, Note_on_c, 2, 75, 45
4, 404520, Note_off_c, 2, 75, 64
4, 404520, Note_on_c, 2, 74, 45
4, 404640, Note_off_c, 2, 74, 64
4, 404640, Note_on_c, 2, 72, 45
4, 404720, Note_off_c, 2, 72, 64
4, 404880, Note_on_c, 2, 65, 45
4, 404960, Note_off_c, 2, 65, 64
4, 408960, Note_on_c, 2, 70, 45
4, 409040, Note_off_c, 2, 70, 64
4, 409200, Note_on_c, 2, 69, 45
4, 409200, Note_on_c, 2, 72, 45
4, 409280, Note_off_c, 2, 72, 64
4, 409280, Note_off_c, 2, 69, 64
4, 409440, Note_on_c, 2, 70, 45
4, 409440, Note_on_c, 2, 74, 45
4, 409680, Note_off_c, 2, 74, 64
4, 409680, Note_on_c, 2, 75, 45
4, 409800, Note_off_c, 2, 75, 64
4, 409800, Note_on_c, 2, 74, 45
4, 409840, Note_off_c, 2, 70, 64
4, 409915, Note_off_c, 2, 74, 64
4, 409920, Note_on_c, 2, 69, 45
4, 409920, Note_on_c, 2, 72, 45
4, 410000, Note_off_c, 2, 72, 64
4, 410000, Note_off_c, 2, 69, 64
4, 410160, Note_on_c, 2, 70, 45
4, 410160, Note_on_c, 2, 74, 45
4, 410240, Note_off_c, 2, 74, 64
4, 410240, Note_off_c, 2, 70, 64
4, 410400, Note_on_c, 2, 69, 45
4, 410400, Note_on_c, 2, 75, 45
4, 410640, Note_off_c, 2, 75, 64
4, 410640, Note_on_c, 2, 77, 45
4, 410760, Note_off_c, 2, 77, 64
4, 410760, Note_on_c, 2, 75, 45
4, 410800, Note_off_c, 2, 69, 64
4, 410875, Note_off_c, 2, 75, 64
4, 410880, Note_on_c, 2, 70, 45
4, 410880, Note_on_c, 2, 74, 45
4, 411120, Note_off_c, 2, 70, 64
4, 411515, Note_off_c, 2, 74, 64
4, 411520, Note_on_c, 2, 74, 45
4, 411680, Note_off_c, 2, 74, 64
4, 411680, Note_on_c, 2, 72, 45
4, 411840, Note_off_c, 2, 72, 64
4, 411840, Note_on_c, 2, 70, 45
4, 412000, Note_off_c, 2, 70, 64
4, 412000, Note_on_c, 2, 74, 45
4, 412160, Note_off_c, 2, 74, 64
4, 412160, Note_on_c, 2, 72, 45
4, 412320, Note_off_c, 2, 72, 64
4, 412320, Note_on_c, 2, 70, 45
4, 412480, Note_off_c, 2, 70, 64
4, 412480, Note_on_c, 2, 79, 45
4, 412640, Note_off_c, 2, 79, 64
4, 412640, Note_on_c, 2, 76, 45
4, 412800, Note_off_c, 2, 76, 64
4, 412800, Note_on_c, 2, 77, 45
4, 413440, Note_off_c, 2, 77, 64
4, 413440, Note_on_c, 2, 79, 45
4, 413600, Note_off_c, 2, 79, 64
4, 413600, Note_on_c, 2, 77, 45
4, 413760, Note_off_c, 2, 77, 64
4, 413760, Note_on_c, 2, 74, 45
4, 413920, Note_off_c, 2, 74, 64
4, 413920, Note_on_c, 2, 77, 45
4, 414080, Note_off_c, 2, 77, 64
4, 414080, Note_on_c, 2, 75, 45
4, 414240, Note_off_c, 2, 75, 64
4, 414240, Note_on_c, 2, 72, 45
4, 414400, Note_off_c, 2, 72, 64
4, 414400, Note_on_c, 2, 75, 45
4, 414560, Note_off_c, 2, 75, 64
4, 414560, Note_on_c, 2, 74, 45
4, 414715, Note_off_c, 2, 74, 64
4, 414720, Note_on_c, 2, 70, 45
4, 415355, Note_off_c, 2, 70, 64
4, 415360, Note_on_c, 2, 74, 45
4, 415520, Note_off_c, 2, 74, 64
4, 415520, Note_on_c, 2, 72, 45
4, 415680, Note_off_c, 2, 72, 64
4, 415680, Note_on_c, 2, 70, 45
4, 415840, Note_off_c, 2, 70, 64
4, 415840, Note_on_c, 2, 74, 45
4, 416000, Note_off_c, 2, 74, 64
4, 416000, Note_on_c, 2, 72, 45
4, 416160, Note_off_c, 2, 72, 64
4, 416160, Note_on_c, 2, 70, 45
4, 416320, Note_off_c, 2, 70, 64
4, 416320, Note_on_c, 2, 79, 45
4, 416480, Note_off_c, 2, 79, 64
4, 416480, Note_on_c, 2, 76, 45
4, 416640, Note_off_c, 2, 76, 64
4, 416640, Note_on_c, 2, 77, 45
4, 417280, Note_off_c, 2, 77, 64
4, 417280, Note_on_c, 2, 79, 45
4, 417440, Note_off_c, 2, 79, 64
4, 417440, Note_on_c, 2, 77, 45
4, 417600, Note_off_c, 2, 77, 64
4, 417600, Note_on_c, 2, 74, 45
4, 417760, Note_off_c, 2, 74, 64
4, 417760, Note_on_c, 2, 77, 45
4, 417920, Note_off_c, 2, 77, 64
4, 417920, Note_on_c, 2, 75, 45
4, 418080, Note_off_c, 2, 75, 64
4, 418080, Note_on_c, 2, 72, 45
4, 418240, Note_off_c, 2, 72, 64
4, 418240, Note_on_c, 2, 75, 45
4, 418400, Note_off_c, 2, 75, 64
4, 418400, Note_on_c, 2, 74, 45
4, 418555, Note_off_c, 2, 74, 64
4, 418560, Note_on_c, 2, 70, 45
4, 419200, Note_off_c, 2, 70, 64
4, 419200, Note_on_c, 2, 72, 45
4, 419360, Note_off_c, 2, 72, 64
4, 419360, Note_on_c, 2, 74, 45
4, 419515, Note_off_c, 2, 74, 64
4, 419520, Note_on_c, 2, 67, 45
4, 420160, Note_off_c, 2, 67, 64
4, 420160, Note_on_c, 2, 69, 45
4, 420320, Note_off_c, 2, 69, 64
4, 420320, Note_on_c, 2, 70, 45
4, 420475, Note_off_c, 2, 70, 64
4, 420480, Note_on_c, 2, 72, 45
4, 420715, Note_off_c, 2, 72, 64
4, 422400, Note_on_c, 2, 65, 75
4, 422400, Note_on_c, 2, 77, 75
4, 422880, Note_off_c, 2, 77, 64
4, 422880, Note_off_c, 2, 65, 64
4, 422880, Note_on_c, 2, 60, 75
4, 422880, Note_on_c, 2, 72, 75
4, 424200, Note_off_c, 2, 72, 64
4, 424200, Note_off_c, 2, 60, 64
4, 424320, Note_on_c, 2, 69, 75
4, 424320, Note_on_c, 2, 81, 75
4, 424800, Note_off_c, 2, 81, 64
4, 424800, Note_off_c, 2, 69, 64
4, 424800, Note_on_c, 2, 65, 75
4, 424800, Note_on_c, 2, 77, 75
4, 426120, Note_off_c, 2, 77, 64
4, 426120, Note_off_c, 2, 65, 64
4, 426240, Note_on_c, 2, 65, 75
4, 426240, Note_on_c, 2, 77, 75
4, 426720, Note_off_c, 2, 77, 64
4, 426720, Note_off_c, 2, 65, 64
4, 426720, Note_on_c, 2, 60, 75
4, 426720, Note_on_c, 2, 72, 75
4, 428040, Note_off_c, 2, 72, 64
4, 428040, Note_off_c, 2, 60, 64
4, 428160, Note_on_c, 2, 69, 75
4, 428160, Note_on_c, 2, 81, 75
4, 428640, Note_off_c, 2, 81, 64
4, 428640, Note_off_c, 2, 69, 64
4, 428640, Note_on_c, 2, 65, 75
4, 428640, Note_on_c, 2, 77, 75
4, 429960, Note_off_c, 2, 77, 64
4, 429960, Note_off_c, 2, 65, 64
4, 430080, Note_on_c, 2, 69, 75
4, 430080, Note_on_c, 2, 81, 75
4, 430560, Note_off_c, 2, 81, 64
4, 430560, Note_off_c, 2, 69, 64
4, 430560, Note_on_c, 2, 65, 75
4, 430560, Note_on_c, 2, 77, 75
4, 430960, Note_off_c, 2, 77, 64
4, 430960, Note_off_c, 2, 65, 64
4, 431040, Note_on_c, 2, 69, 75
4, 431040, Note_on_c, 2, 81, 75
4, 431520, Note_off_c, 2, 81, 64
4, 431520, Note_off_c, 2, 69, 64
4, 431520, Note_on_c, 2, 65, 75
4, 431520, Note_on_c, 2, 77, 75
4, 431920, Note_off_c, 2, 77, 64
4, 431920, Note_off_c, 2, 65, 64
4, 432000, Note_on_c, 2, 69, 75
4, 432000, Note_on_c, 2, 81, 75
4, 432480, Note_off_c, 2, 81, 64
4, 432480, Note_off_c, 2, 69, 64
4, 432480, Note_on_c, 2, 65, 75
4, 432480, Note_on_c, 2, 77, 75
4, 432880, Note_off_c, 2, 77, 64
4, 432880, Note_off_c, 2, 65, 64
4, 432960, Note_on_c, 2, 67, 75
4, 432960, Note_on_c, 2, 79, 75
4, 433440, Note_off_c, 2, 79, 64
4, 433440, Note_off_c, 2, 67, 64
4, 433440, Note_on_c, 2, 64, 75
4, 433440, Note_on_c, 2, 76, 75
4, 433840, Note_off_c, 2, 76, 64
4, 433840, Note_off_c, 2, 64, 64
4, 433920, Note_on_c, 2, 69, 75
4, 433920, Note_on_c, 2, 81, 75
4, 434400, Note_off_c, 2, 81, 64
4, 434400, Note_off_c, 2, 69, 64
4, 434400, Note_on_c, 2, 65, 75
4, 434400, Note_on_c, 2, 77, 75
4, 434800, Note_off_c, 2, 77, 64
4, 434800, Note_off_c, 2, 65, 64
4, 434880, Note_on_c, 2, 69, 75
4, 434880, Note_on_c, 2, 81, 75
4, 435360, Note_off_c, 2, 81, 64
4, 435360, Note_off_c, 2, 69, 64
4, 435360, Note_on_c, 2, 65, 75
4, 435360, Note_on_c, 2, 77, 75
4, 435760, Note_off_c, 2, 77, 64
4, 435760, Note_off_c, 2, 65, 64
4, 435840, Note_on_c, 2, 69, 75
4, 435840, Note_on_c, 2, 81, 75
4, 436320, Note_off_c, 2, 81, 64
4, 436320, Note_off_c, 2, 69, 64
4, 436320, Note_on_c, 2, 65, 75
4, 436320, Note_on_c, 2, 77, 75
4, 436720, Note_off_c, 2, 77, 64
4, 436720, Note_off_c, 2, 65, 64
4, 436800, Note_on_c, 2, 67, 75
4, 436800, Note_on_c, 2, 79, 75
4, 437280, Note_off_c, 2, 79, 64
4, 437280, Note_off_c, 2, 67, 64
4, 437280, Note_on_c, 2, 64, 75
4, 437280, Note_on_c, 2, 76, 75
4, 437680, Note_off_c, 2, 76, 64
4, 437680, Note_off_c, 2, 64, 64
4, 437760, Note_on_c, 2, 69, 75
4, 437760, Note_on_c, 2, 81, 75
4, 438240, Note_off_c, 2, 81, 64
4, 438240, Note_off_c, 2, 69, 64
4, 438240, Note_on_c, 2, 65, 75
4, 438240, Note_on_c, 2, 77, 75
4, 438640, Note_off_c, 2, 77, 64
4, 438640, Note_off_c, 2, 65, 64
4, 438720, Note_on_c, 2, 69, 75
4, 438720, Note_on_c, 2, 81, 75
4, 439200, Note_off_c, 2, 81, 64
4, 439200, Note_off_c, 2, 69, 64
4, 439200, Note_on_c, 2, 65, 75
4, 439200, Note_on_c, 2, 77, 75
4, 439600, Note_off_c, 2, 77, 64
4, 439600, Note_off_c, 2, 65, 64
4, 439680, Note_on_c, 2, 69, 75
4, 439680, Note_on_c, 2, 77, 75
4, 441835, Note_off_c, 2, 77, 64
4, 441835, Note_off_c, 2, 69, 64
4, 451200, Note_on_c, 2, 67, 60
4, 451200, Note_on_c, 2, 72, 60
4, 451840, Note_off_c, 2, 72, 64
4, 451840, Note_off_c, 2, 67, 64
4, 451920, Note_on_c, 2, 67, 60
4, 451920, Note_on_c, 2, 70, 60
4, 452155, Note_off_c, 2, 70, 64
4, 452155, Note_off_c, 2, 67, 64
4, 452160, Note_on_c, 2, 65, 60
4, 452160, Note_on_c, 2, 69, 60
4, 452395, Note_off_c, 2, 69, 64
4, 452395, Note_off_c, 2, 65, 64
4, 452640, Note_on_c, 2, 64, 60
4, 452640, Note_on_c, 2, 67, 60
4, 452875, Note_off_c, 2, 67, 64
4, 452875, Note_off_c, 2, 64, 64
4, 455040, Note_on_c, 2, 67, 60
4, 455040, Note_on_c, 2, 72, 60
4, 455680, Note_off_c, 2, 72, 64
4, 455680, Note_off_c, 2, 67, 64
4, 455760, Note_on_c, 2, 67, 60
4, 455760, Note_on_c, 2, 70, 60
4, 455995, Note_off_c, 2, 70, 64
4, 455995, Note_off_c, 2, 67, 64
4, 456000, Note_on_c, 2, 65, 60
4, 456000, Note_on_c, 2, 69, 60
4, 456235, Note_off_c, 2, 69, 64
4, 456235, Note_off_c, 2, 65, 64
4, 456480, Note_on_c, 2, 64, 60
4, 456480, Note_on_c, 2, 67, 60
4, 456715, Note_off_c, 2, 67, 64
4, 456715, Note_off_c, 2, 64, 64
4, 456960, Note_on_c, 2, 65, 60
4, 456960, Note_on_c, 2, 69, 60
4, 457195, Note_off_c, 2, 69, 64
4, 457195, Note_off_c, 2, 65, 64
4, 457440, Note_on_c, 2, 69, 45
4, 457680, Note_off_c, 2, 69, 64
4, 457680, Note_on_c, 2, 70, 45
4, 457800, Note_off_c, 2, 70, 64
4, 457800, Note_on_c, 2, 69, 45
4, 457915, Note_off_c, 2, 69, 64
4, 457920, Note_on_c, 2, 67, 45
4, 458155, Note_off_c, 2, 67, 64
4, 458400, Note_on_c, 2, 70, 45
4, 458640, Note_off_c, 2, 70, 64
4, 458640, Note_on_c, 2, 72, 45
4, 458760, Note_off_c, 2, 72, 64
4, 458760, Note_on_c, 2, 70, 45
4, 458875, Note_off_c, 2, 70, 64
4, 458880, Note_on_c, 2, 69, 45
4, 459115, Note_off_c, 2, 69, 64
4, 459360, Note_on_c, 2, 72, 45
4, 459600, Note_off_c, 2, 72, 64
4, 459600, Note_on_c, 2, 74, 45
4, 459720, Note_off_c, 2, 74, 64
4, 459720, Note_on_c, 2, 72, 45
4, 459835, Note_off_c, 2, 72, 64
4, 459840, Note_on_c, 2, 70, 92
4, 459945, Note_off_c, 2, 70, 64
4, 460000, Note_on_c, 2, 76, 92
4, 460105, Note_off_c, 2, 76, 64
4, 460160, Note_on_c, 2, 79, 92
4, 460265, Note_off_c, 2, 79, 64
4, 460320, Note_on_c, 2, 82, 92
4, 460425, Note_off_c, 2, 82, 64
4, 460480, Note_on_c, 2, 79, 92
4, 460585, Note_off_c, 2, 79, 64
4, 460640, Note_on_c, 2, 76, 92
4, 460745, Note_off_c, 2, 76, 64
4, 460800, Note_on_c, 2, 77, 45
4, 460905, Note_off_c, 2, 77, 64
4, 460960, Note_on_c, 2, 65, 45
4, 461065, Note_off_c, 2, 65, 64
4, 461120, Note_on_c, 2, 67, 45
4, 461225, Note_off_c, 2, 67, 64
4, 461280, Note_on_c, 2, 69, 45
4, 461385, Note_off_c, 2, 69, 64
4, 461440, Note_on_c, 2, 70, 45
4, 461545, Note_off_c, 2, 70, 64
4, 461600, Note_on_c, 2, 69, 45
4, 461705, Note_off_c, 2, 69, 64
4, 461760, Note_on_c, 2, 67, 45
4, 461865, Note_off_c, 2, 67, 64
4, 461920, Note_on_c, 2, 67, 45
4, 462025, Note_off_c, 2, 67, 64
4, 462080, Note_on_c, 2, 69, 45
4, 462185, Note_off_c, 2, 69, 64
4, 462240, Note_on_c, 2, 70, 45
4, 462345, Note_off_c, 2, 70, 64
4, 462400, Note_on_c, 2, 72, 45
4, 462505, Note_off_c, 2, 72, 64
4, 462560, Note_on_c, 2, 70, 45
4, 462665, Note_off_c, 2, 70, 64
4, 462720, Note_on_c, 2, 69, 45
4, 462825, Note_off_c, 2, 69, 64
4, 462880, Note_on_c, 2, 69, 45
4, 462985, Note_off_c, 2, 69, 64
4, 463040, Note_on_c, 2, 70, 45
4, 463145, Note_off_c, 2, 70, 64
4, 463200, Note_on_c, 2, 72, 45
4, 463305, Note_off_c, 2, 72, 64
4, 463360, Note_on_c, 2, 74, 45
4, 463465, Note_off_c, 2, 74, 64
4, 463520, Note_on_c, 2, 72, 45
4, 463625, Note_off_c, 2, 72, 64
4, 463680, Note_on_c, 2, 70, 92
4, 463785, Note_off_c, 2, 70, 64
4, 463840, Note_on_c, 2, 76, 92
4, 463945, Note_off_c, 2, 76, 64
4, 464000, Note_on_c, 2, 79, 92
4, 464105, Note_off_c, 2, 79, 64
4, 464160, Note_on_c, 2, 82, 92
4, 464265, Note_off_c, 2, 82, 64
4, 464320, Note_on_c, 2, 79, 92
4, 464425, Note_off_c, 2, 79, 64
4, 464480, Note_on_c, 2, 76, 92
4, 464585, Note_off_c, 2, 76, 64
4, 464640, Note_on_c, 2, 77, 45
4, 464745, Note_off_c, 2, 77, 64
4, 464800, Note_on_c, 2, 69, 45
4, 464905, Note_off_c, 2, 69, 64
4, 464960, Note_on_c, 2, 72, 45
4, 465065, Note_off_c, 2, 72, 64
4, 465120, Note_on_c, 2, 77, 45
4, 465225, Note_off_c, 2, 77, 64
4, 465280, Note_on_c, 2, 81, 45
4, 465385, Note_off_c, 2, 81, 64
4, 465440, Note_on_c, 2, 84, 45
4, 465545, Note_off_c, 2, 84, 64
4, 465600, Note_on_c, 2, 70, 92
4, 465705, Note_off_c, 2, 70, 64
4, 465760, Note_on_c, 2, 76, 92
4, 465865, Note_off_c, 2, 76, 64
4, 465920, Note_on_c, 2, 79, 92
4, 466025, Note_off_c, 2, 79, 64
4, 466080, Note_on_c, 2, 82, 92
4, 466185, Note_off_c, 2, 82, 64
4, 466240, Note_on_c, 2, 79, 92
4, 466345, Note_off_c, 2, 79, 64
4, 466400, Note_on_c, 2, 76, 92
4, 466505, Note_off_c, 2, 76, 64
4, 466560, Note_on_c, 2, 77, 45
4, 466665, Note_off_c, 2, 77, 64
4, 466720, Note_on_c, 2, 69, 45
4, 466825, Note_off_c, 2, 69, 64
4, 466880, Note_on_c, 2, 72, 45
4, 466985, Note_off_c, 2, 72, 64
4, 467040, Note_on_c, 2, 77, 45
4, 467145, Note_off_c, 2, 77, 64
4, 467200, Note_on_c, 2, 81, 45
4, 467305, Note_off_c, 2, 81, 64
4, 467360, Note_on_c, 2, 84, 45
4, 467465, Note_off_c, 2, 84, 64
4, 467520, Note_on_c, 2, 70, 92
4, 467625, Note_off_c, 2, 70, 64
4, 467680, Note_on_c, 2, 76, 92
4, 467785, Note_off_c, 2, 76, 64
4, 467840, Note_on_c, 2, 79, 92
4, 467945, Note_off_c, 2, 79, 64
4, 468000, Note_on_c, 2, 82, 92
4, 468105, Note_off_c, 2, 82, 64
4, 468160, Note_on_c, 2, 79, 92
4, 468265, Note_off_c, 2, 79, 64
4, 468320, Note_on_c, 2, 76, 92
4, 468425, Note_off_c, 2, 76, 64
4, 468480, Note_on_c, 2, 77, 75
4, 468585, Note_off_c, 2, 77, 64
4, 468640, Note_on_c, 2, 69, 75
4, 468745, Note_off_c, 2, 69, 64
4, 468800, Note_on_c, 2, 72, 75
4, 468905, Note_off_c, 2, 72, 64
4, 468960, Note_on_c, 2, 77, 75
4, 469065, Note_off_c, 2, 77, 64
4, 469120, Note_on_c, 2, 81, 75
4, 469225, Note_off_c, 2, 81, 64
4, 469280, Note_on_c, 2, 84, 75
4, 469385, Note_off_c, 2, 84, 64
4, 469440, Note_on_c, 2, 77, 75
4, 469545, Note_off_c, 2, 77, 64
4, 469600, Note_on_c, 2, 69, 75
4, 469705, Note_off_c, 2, 69, 64
4, 469760, Note_on_c, 2, 72, 75
4, 469865, Note_off_c, 2, 72, 64
4, 469920, Note_on_c, 2, 77, 75
4, 470025, Note_off_c, 2, 77, 64
4, 470080, Note_on_c, 2, 81, 75
4, 470185, Note_off_c, 2, 81, 64
4, 470240, Note_on_c, 2, 84, 75
4, 470345, Note_off_c, 2, 84, 64
4, 470400, Note_on_c, 2, 77, 60
4, 470505, Note_off_c, 2, 77, 64
4, 470560, Note_on_c, 2, 69, 60
4, 470665, Note_off_c, 2, 69, 64
4, 470720, Note_on_c, 2, 72, 60
4, 470825, Note_off_c, 2, 72, 64
4, 470880, Note_on_c, 2, 77, 60
4, 470985, Note_off_c, 2, 77, 64
4, 471040, Note_on_c, 2, 81, 60
4, 471145, Note_off_c, 2, 81, 64
4, 471200, Note_on_c, 2, 84, 60
4, 471305, Note_off_c, 2, 84, 64
4, 471360, Note_on_c, 2, 77, 45
4, 471465, Note_off_c, 2, 77, 64
4, 471520, Note_on_c, 2, 69, 45
4, 471625, Note_off_c, 2, 69, 64
4, 471680, Note_on_c, 2, 72, 45
4, 471785, Note_off_c, 2, 72, 64
4, 471840, Note_on_c, 2, 77, 45
4, 471945, Note_off_c, 2, 77, 64
4, 472000, Note_on_c, 2, 81, 45
4, 472105, Note_off_c, 2, 81, 64
4, 472160, Note_on_c, 2, 84, 45
4, 472265, Note_off_c, 2, 84, 64
4, 472320, Note_on_c, 2, 77, 30
4, 472555, Note_off_c, 2, 77, 64
4, 483000, Note_on_c, 2, 70, 45
4, 483080, Note_off_c, 2, 70, 64
4, 483240, Note_on_c, 2, 72, 45
4, 483320, Note_off_c, 2, 72, 64
4, 483480, Note_on_c, 2, 74, 45
4, 483560, Note_off_c, 2, 74, 64
4, 483720, Note_on_c, 2, 76, 45
4, 483800, Note_off_c, 2, 76, 64
4, 483960, Note_on_c, 2, 77, 45
4, 484315, Note_off_c, 2, 77, 64
4, 485040, Note_on_c, 2, 58, 75
4, 485040, Note_on_c, 2, 70, 75
4, 485120, Note_off_c, 2, 70, 64
4, 485120, Note_off_c, 2, 58, 64
4, 485280, Note_on_c, 2, 60, 75
4, 485280, Note_on_c, 2, 72, 75
4, 485360, Note_off_c, 2, 72, 64
4, 485360, Note_off_c, 2, 60, 64
4, 485520, Note_on_c, 2, 62, 75
4, 485520, Note_on_c, 2, 74, 75
4, 485600, Note_off_c, 2, 74, 64
4, 485600, Note_off_c, 2, 62, 64
4, 485760, Note_on_c, 2, 64, 75
4, 485760, Note_on_c, 2, 76, 75
4, 485840, Note_off_c, 2, 76, 64
4, 485840, Note_off_c, 2, 64, 64
4, 486000, Note_on_c, 2, 65, 75
4, 486000, Note_on_c, 2, 77, 75
4, 486840, Note_off_c, 2, 77, 64
4, 486840, Note_off_c, 2, 65, 64
4, 486960, Note_on_c, 2, 67, 75
4, 486960, Note_on_c, 2, 76, 75
4, 487800, Note_off_c, 2, 76, 64
4, 487800, Note_off_c, 2, 67, 64
4, 487920, Note_on_c, 2, 69, 75
4, 487920, Note_on_c, 2, 77, 75
4, 488760, Note_off_c, 2, 77, 64
4, 488760, Note_off_c, 2, 69, 64
4, 488880, Note_on_c, 2, 69, 68
4, 488880, Note_on_c, 2, 77, 68
4, 489360, Note_off_c, 2, 77, 64
4, 489360, Note_off_c, 2, 69, 64
4, 489360, Note_on_c, 2, 69, 64
4, 489360, Note_on_c, 2, 77, 64
4, 489840, Note_off_c, 2, 77, 64
4, 489840, Note_off_c, 2, 69, 64
4, 489840, Note_on_c, 2, 69, 60
4, 489840, Note_on_c, 2, 77, 60
4, 490680, Note_off_c, 2, 77, 64
4, 490680, Note_off_c, 2, 69, 64
4, 490800, Note_on_c, 2, 65, 45
4, 490800, Note_on_c, 2, 69, 45
4, 491640, Note_off_c, 2, 69, 64
4, 491640, Note_off_c, 2, 65, 64
4, 491760, Note_on_c, 2, 65, 45
4, 491760, Note_on_c, 2, 69, 45
4, 492600, Note_off_c, 2, 69, 64
4, 492600, Note_off_c, 2, 65, 64
4, 547920, Note_on_c, 2, 62, 45
4, 547920, Note_on_c, 2, 74, 45
4, 548040, Note_off_c, 2, 74, 64
4, 548040, Note_off_c, 2, 62, 64
4, 548400, Note_on_c, 2, 67, 45
4, 548400, Note_on_c, 2, 79, 45
4, 548520, Note_off_c, 2, 79, 64
4, 548520, Note_off_c, 2, 67, 64
4, 548880, Note_on_c, 2, 62, 45
4, 548880, Note_on_c, 2, 74, 45
4, 549000, Note_off_c, 2, 74, 64
4, 549000, Note_off_c, 2, 62, 64
4, 549360, Note_on_c, 2, 64, 45
4, 549360, Note_on_c, 2, 76, 45
4, 549480, Note_off_c, 2, 76, 64
4, 549480, Note_off_c, 2, 64, 64
4, 549840, Note_on_c, 2, 62, 45
4, 549840, Note_on_c, 2, 74, 45
4, 549960, Note_off_c, 2, 74, 64
4, 549960, Note_off_c, 2, 62, 64
4, 550320, Note_on_c, 2, 59, 45
4, 550320, Note_on_c, 2, 71, 45
4, 550440, Note_off_c, 2, 71, 64
4, 550440, Note_off_c, 2, 59, 64
4, 550800, Note_on_c, 2, 60, 45
4, 550800, Note_on_c, 2, 72, 45
4, 550920, Note_off_c, 2, 72, 64
4, 550920, Note_off_c, 2, 60, 64
4, 551280, Note_on_c, 2, 59, 45
4, 551280, Note_on_c, 2, 71, 45
4, 551400, Note_off_c, 2, 71, 64
4, 551400, Note_off_c, 2, 59, 64
4, 551760, Note_on_c, 2, 55, 45
4, 551760, Note_on_c, 2, 67, 45
4, 551880, Note_off_c, 2, 67, 64
4, 551880, Note_off_c, 2, 55, 64
4, 552240, Note_on_c, 2, 57, 45
4, 552240, Note_on_c, 2, 69, 45
4, 552360, Note_off_c, 2, 69, 64
4, 552360, Note_off_c, 2, 57, 64
4, 552720, Note_on_c, 2, 59, 45
4, 552720, Note_on_c, 2, 71, 45
4, 552840, Note_off_c, 2, 71, 64
4, 552840, Note_off_c, 2, 59, 64
4, 553200, Note_on_c, 2, 55, 45
4, 553200, Note_on_c, 2, 67, 45
4, 553320, Note_off_c, 2, 67, 64
4, 553320, Note_off_c, 2, 55, 64
4, 560400, Note_on_c, 2, 64, 45
4, 560400, Note_on_c, 2, 67, 45
4, 560880, Note_off_c, 2, 67, 64
4, 560880, Note_off_c, 2, 64, 64
4, 560880, Note_on_c, 2, 65, 45
4, 560880, Note_on_c, 2, 69, 45
4, 561360, Note_off_c, 2, 69, 64
4, 561360, Note_off_c, 2, 65, 64
4, 561360, Note_on_c, 2, 64, 45
4, 561360, Note_on_c, 2, 67, 45
4, 561840, Note_off_c, 2, 67, 64
4, 561840, Note_off_c, 2, 64, 64
4, 561840, Note_on_c, 2, 60, 45
4, 561840, Note_on_c, 2, 67, 45
4, 562320, Note_off_c, 2, 67, 64
4, 562320, Note_off_c, 2, 60, 64
4, 562320, Note_on_c, 2, 60, 45
4, 562320, Note_on_c, 2, 69, 45
4, 562800, Note_off_c, 2, 69, 64
4, 562800, Note_off_c, 2, 60, 64
4, 562800, Note_on_c, 2, 60, 45
4, 562800, Note_on_c, 2, 67, 45
4, 563280, Note_off_c, 2, 67, 64
4, 563280, Note_off_c, 2, 60, 64
4, 563280, Note_on_c, 2, 64, 45
4, 563280, Note_on_c, 2, 72, 45
4, 563760, Note_off_c, 2, 72, 64
4, 563760, Note_off_c, 2, 64, 64
4, 563760, Note_on_c, 2, 65, 45
4, 563760, Note_on_c, 2, 71, 45
4, 564240, Note_off_c, 2, 71, 64
4, 564240, Note_off_c, 2, 65, 64
4, 564240, Note_on_c, 2, 64, 45
4, 564240, Note_on_c, 2, 72, 45
4, 564640, Note_off_c, 2, 72, 64
4, 564640, Note_off_c, 2, 64, 64
4, 568080, Note_on_c, 2, 60, 61
4, 568080, Note_on_c, 2, 72, 61
4, 568480, Note_off_c, 2, 72, 64
4, 568480, Note_off_c, 2, 60, 64
4, 568560, Note_on_c, 2, 60, 63
4, 568560, Note_on_c, 2, 72, 63
4, 568960, Note_off_c, 2, 72, 64
4, 568960, Note_off_c, 2, 60, 64
4, 569040, Note_on_c, 2, 60, 65
4, 569040, Note_on_c, 2, 72, 65
4, 569440, Note_off_c, 2, 72, 64
4, 569440, Note_off_c, 2, 60, 64
4, 569520, Note_on_c, 2, 60, 67
4, 569520, Note_on_c, 2, 72, 67
4, 569920, Note_off_c, 2, 72, 64
4, 569920, Note_off_c, 2, 60, 64
4, 570000, Note_on_c, 2, 60, 69
4, 570000, Note_on_c, 2, 72, 69
4, 570400, Note_off_c, 2, 72, 64
4, 570400, Note_off_c, 2, 60, 64
4, 570480, Note_on_c, 2, 60, 72
4, 570480, Note_on_c, 2, 72, 72
4, 570880, Note_off_c, 2, 72, 64
4, 570880, Note_off_c, 2, 60, 64
4, 570960, Note_on_c, 2, 60, 75
4, 570960, Note_on_c, 2, 72, 75
4, 571360, Note_off_c, 2, 72, 64
4, 571360, Note_off_c, 2, 60, 64
4, 571440, Note_on_c, 2, 65, 75
4, 571440, Note_on_c, 2, 77, 75
4, 571840, Note_off_c, 2, 77, 64
4, 571840, Note_off_c, 2, 65, 64
4, 571920, Note_on_c, 2, 65, 75
4, 571920, Note_on_c, 2, 77, 75
4, 572320, Note_off_c, 2, 77, 64
4, 572320, Note_off_c, 2, 65, 64
4, 572400, Note_on_c, 2, 65, 75
4, 572400, Note_on_c, 2, 77, 75
4, 572800, Note_off_c, 2, 77, 64
4, 572800, Note_off_c, 2, 65, 64
4, 572880, Note_on_c, 2, 65, 75
4, 572880, Note_on_c, 2, 77, 75
4, 573280, Note_off_c, 2, 77, 64
4, 573280, Note_off_c, 2, 65, 64
4, 573360, Note_on_c, 2, 65, 75
4, 573360, Note_on_c, 2, 77, 75
4, 573760, Note_off_c, 2, 77, 64
4, 573760, Note_off_c, 2, 65, 64
4, 573840, Note_on_c, 2, 65, 75
4, 573840, Note_on_c, 2, 77, 75
4, 574240, Note_off_c, 2, 77, 64
4, 574240, Note_off_c, 2, 65, 64
4, 574320, Note_on_c, 2, 65, 75
4, 574320, Note_on_c, 2, 77, 75
4, 574720, Note_off_c, 2, 77, 64
4, 574720, Note_off_c, 2, 65, 64
4, 574800, Note_on_c, 2, 65, 75
4, 574800, Note_on_c, 2, 77, 75
4, 575200, Note_off_c, 2, 77, 64
4, 575200, Note_off_c, 2, 65, 64
4, 575280, Note_on_c, 2, 67, 75
4, 575280, Note_on_c, 2, 79, 75
4, 575680, Note_off_c, 2, 79, 64
4, 575680, Note_off_c, 2, 67, 64
4, 575760, Note_on_c, 2, 69, 75
4, 575760, Note_on_c, 2, 81, 75
4, 576160, Note_off_c, 2, 81, 64
4, 576160, Note_off_c, 2, 69, 64
4, 576240, Note_on_c, 2, 65, 75
4, 576240, Note_on_c, 2, 77, 75
4, 576640, Note_off_c, 2, 77, 64
4, 576640, Note_off_c, 2, 65, 64
4, 576720, Note_on_c, 2, 67, 75
4, 576720, Note_on_c, 2, 79, 75
4, 577120, Note_off_c, 2, 79, 64
4, 577120, Note_off_c, 2, 67, 64
4, 577200, Note_on_c, 2, 69, 75
4, 577200, Note_on_c, 2, 81, 75
4, 577600, Note_off_c, 2, 81, 64
4, 577600, Note_off_c, 2, 69, 64
4, 577680, Note_on_c, 2, 65, 75
4, 577680, Note_on_c, 2, 77, 75
4, 578080, Note_off_c, 2, 77, 64
4, 578080, Note_off_c, 2, 65, 64
4, 578160, Note_on_c, 2, 67, 75
4, 578160, Note_on_c, 2, 79, 75
4, 578560, Note_off_c, 2, 79, 64
4, 578560, Note_off_c, 2, 67, 64
4, 578640, Note_on_c, 2, 69, 75
4, 578640, Note_on_c, 2, 81, 75
4, 579040, Note_off_c, 2, 81, 64
4, 579040, Note_off_c, 2, 69, 64
4, 579120, Note_on_c, 2, 65, 75
4, 579120, Note_on_c, 2, 77, 75
4, 579520, Note_off_c, 2, 77, 64
4, 579520, Note_off_c, 2, 65, 64
4, 579600, Note_on_c, 2, 67, 75
4, 579600, Note_on_c, 2, 79, 75
4, 580000, Note_off_c, 2, 79, 64
4, 580000, Note_off_c, 2, 67, 64
4, 580080, Note_on_c, 2, 69, 75
4, 580080, Note_on_c, 2, 81, 75
4, 581400, Note_off_c, 2, 81, 64
4, 581400, Note_off_c, 2, 69, 64
4, 581520, Note_on_c, 2, 67, 75
4, 581520, Note_on_c, 2, 79, 75
4, 582360, Note_off_c, 2, 79, 64
4, 582360, Note_off_c, 2, 67, 64
4, 582480, Note_on_c, 2, 65, 75
4, 582480, Note_on_c, 2, 77, 75
4, 582880, Note_off_c, 2, 77, 64
4, 582880, Note_off_c, 2, 65, 64
4, 582960, Note_on_c, 2, 64, 75
4, 582960, Note_on_c, 2, 76, 75
4, 583800, Note_off_c, 2, 76, 64
4, 583800, Note_off_c, 2, 64, 64
4, 583920, Note_on_c, 2, 62, 75
4, 583920, Note_on_c, 2, 74, 75
4, 584320, Note_off_c, 2, 74, 64
4, 584320, Note_off_c, 2, 62, 64
4, 584400, Note_on_c, 2, 60, 75
4, 584400, Note_on_c, 2, 72, 75
4, 585240, Note_off_c, 2, 72, 64
4, 585240, Note_off_c, 2, 60, 64
4, 585360, Note_on_c, 2, 67, 75
4, 585360, Note_on_c, 2, 72, 75
4, 585760, Note_off_c, 2, 72, 64
4, 585760, Note_off_c, 2, 67, 64
4, 585840, Note_on_c, 2, 65, 75
4, 585840, Note_on_c, 2, 72, 75
4, 587160, Note_off_c, 2, 72, 64
4, 587160, Note_off_c, 2, 65, 64
4, 587280, Note_on_c, 2, 74, 75
4, 587280, Note_on_c, 2, 77, 75
4, 588600, Note_off_c, 2, 77, 64
4, 588600, Note_off_c, 2, 74, 64
4, 588720, Note_on_c, 2, 69, 75
4, 588720, Note_on_c, 2, 72, 75
4, 590040, Note_off_c, 2, 72, 64
4, 590040, Note_off_c, 2, 69, 64
4, 590160, Note_on_c, 2, 64, 75
4, 590160, Note_on_c, 2, 72, 75
4, 591480, Note_off_c, 2, 72, 64
4, 591480, Note_off_c, 2, 64, 64
4, 591600, Note_on_c, 2, 65, 75
4, 591600, Note_on_c, 2, 72, 75
4, 592000, Note_off_c, 2, 72, 64
4, 592000, Note_off_c, 2, 65, 64
4, 595440, Note_on_c, 2, 60, 75
4, 595440, Note_on_c, 2, 72, 75
4, 595840, Note_off_c, 2, 72, 64
4, 595840, Note_off_c, 2, 60, 64
4, 595920, Note_on_c, 2, 60, 75
4, 595920, Note_on_c, 2, 72, 75
4, 596760, Note_off_c, 2, 72, 64
4, 596760, Note_off_c, 2, 60, 64
4, 596880, Note_on_c, 2, 64, 75
4, 596880, Note_on_c, 2, 67, 75
4, 597280, Note_off_c, 2, 67, 64
4, 597280, Note_off_c, 2, 64, 64
4, 597360, Note_on_c, 2, 65, 75
4, 597360, Note_on_c, 2, 69, 75
4, 598680, Note_off_c, 2, 69, 64
4, 598680, Note_off_c, 2, 65, 64
4, 598800, Note_on_c, 2, 65, 75
4, 598800, Note_on_c, 2, 67, 75
4, 600120, Note_off_c, 2, 67, 64
4, 600120, Note_off_c, 2, 65, 64
4, 600240, Note_on_c, 2, 65, 75
4, 600240, Note_on_c, 2, 69, 75
4, 601560, Note_off_c, 2, 69, 64
4, 601560, Note_off_c, 2, 65, 64
4, 601680, Note_on_c, 2, 64, 75
4, 601680, Note_on_c, 2, 67, 75
4, 603000, Note_off_c, 2, 67, 64
4, 603000, Note_off_c, 2, 64, 64
4, 603120, Note_on_c, 2, 57, 75
4, 603120, Note_on_c, 2, 65, 75
4, 603520, Note_off_c, 2, 65, 64
4, 603520, Note_off_c, 2, 57, 64
4, 607440, Note_on_c, 2, 67, 75
4, 607440, Note_on_c, 2, 76, 75
4, 607840, Note_off_c, 2, 76, 64
4, 607840, Note_off_c, 2, 67, 64
4, 607920, Note_on_c, 2, 67, 75
4, 607920, Note_on_c, 2, 76, 75
4, 608320, Note_off_c, 2, 76, 64
4, 608320, Note_off_c, 2, 67, 64
4, 608400, Note_on_c, 2, 67, 75
4, 608400, Note_on_c, 2, 76, 75
4, 608800, Note_off_c, 2, 76, 64
4, 608800, Note_off_c, 2, 67, 64
4, 608880, Note_on_c, 2, 69, 75
4, 608880, Note_on_c, 2, 77, 75
4, 609280, Note_off_c, 2, 77, 64
4, 609280, Note_off_c, 2, 69, 64
4, 613200, Note_on_c, 2, 67, 75
4, 613200, Note_on_c, 2, 76, 75
4, 613600, Note_off_c, 2, 76, 64
4, 613600, Note_off_c, 2, 67, 64
4, 613680, Note_on_c, 2, 67, 75
4, 613680, Note_on_c, 2, 76, 75
4, 614080, Note_off_c, 2, 76, 64
4, 614080, Note_off_c, 2, 67, 64
4, 614160, Note_on_c, 2, 67, 75
4, 614160, Note_on_c, 2, 76, 75
4, 614560, Note_off_c, 2, 76, 64
4, 614560, Note_off_c, 2, 67, 64
4, 614640, Note_on_c, 2, 69, 75
4, 614640, Note_on_c, 2, 77, 75
4, 615040, Note_off_c, 2, 77, 64
4, 615040, Note_off_c, 2, 69, 64
4, 617520, Note_on_c, 2, 69, 75
4, 617520, Note_on_c, 2, 77, 75
4, 617920, Note_off_c, 2, 77, 64
4, 617920, Note_off_c, 2, 69, 64
4, 659280, Note_on_c, 2, 81, 60
4, 659760, Note_off_c, 2, 81, 64
4, 659760, Note_on_c, 2, 82, 60
4, 660240, Note_off_c, 2, 82, 64
4, 660240, Note_on_c, 2, 84, 60
4, 660640, Note_off_c, 2, 84, 64
4, 670800, Note_on_c, 2, 82, 60
4, 671280, Note_off_c, 2, 82, 64
4, 671280, Note_on_c, 2, 81, 60
4, 671680, Note_off_c, 2, 81, 64
4, 671760, Note_on_c, 2, 77, 60
4, 671880, Note_off_c, 2, 77, 64
4, 672240, Note_on_c, 2, 79, 60
4, 672360, Note_off_c, 2, 79, 64
4, 672720, Note_on_c, 2, 72, 60
4, 672840, Note_off_c, 2, 72, 64
4, 673200, Note_on_c, 2, 76, 60
4, 674080, Note_off_c, 2, 76, 64
4, 674160, Note_on_c, 2, 72, 60
4, 674280, Note_off_c, 2, 72, 64
4, 674640, Note_on_c, 2, 67, 60
4, 675520, Note_off_c, 2, 67, 64
4, 675600, Note_on_c, 2, 71, 60
4, 675840, Note_off_c, 2, 71, 64
4, 675840, Note_on_c, 2, 72, 60
4, 676080, Note_off_c, 2, 72, 64
4, 676080, Note_on_c, 2, 74, 60
4, 676960, Note_off_c, 2, 74, 64
4, 677040, Note_on_c, 2, 72, 60
4, 677520, Note_off_c, 2, 72, 64
4, 677520, Note_on_c, 2, 74, 60
4, 678000, Note_off_c, 2, 74, 64
4, 678000, Note_on_c, 2, 76, 60
4, 678480, Note_off_c, 2, 76, 64
4, 678480, Note_on_c, 2, 74, 60
4, 678960, Note_off_c, 2, 74, 64
4, 678960, Note_on_c, 2, 72, 60
4, 679440, Note_off_c, 2, 72, 64
4, 679440, Note_on_c, 2, 74, 60
4, 679920, Note_off_c, 2, 74, 64
4, 679920, Note_on_c, 2, 76, 65
4, 680400, Note_off_c, 2, 76, 64
4, 680400, Note_on_c, 2, 77, 70
4, 680880, Note_off_c, 2, 77, 64
4, 680880, Note_on_c, 2, 76, 75
4, 681360, Note_off_c, 2, 76, 64
4, 681360, Note_on_c, 2, 77, 80
4, 681760, Note_off_c, 2, 77, 64
4, 681840, Note_on_c, 2, 79, 85
4, 683995, Note_off_c, 2, 79, 64
4, 684000, Note_on_c, 2, 82, 108
4, 684080, Note_off_c, 2, 82, 64
4, 684240, Note_on_c, 2, 79, 108
4, 684320, Note_off_c, 2, 79, 64
4, 684480, Note_on_c, 2, 76, 108
4, 684560, Note_off_c, 2, 76, 64
4, 684720, Note_on_c, 2, 72, 108
4, 684800, Note_off_c, 2, 72, 64
4, 684960, Note_on_c, 2, 70, 108
4, 685040, Note_off_c, 2, 70, 64
4, 685200, Note_on_c, 2, 67, 108
4, 685280, Note_off_c, 2, 67, 64
4, 685440, Note_on_c, 2, 64, 108
4, 685520, Note_off_c, 2, 64, 64
4, 685680, Note_on_c, 2, 60, 108
4, 685760, Note_off_c, 2, 60, 64
4, 685920, Note_on_c, 2, 58, 108
4, 686000, Note_off_c, 2, 58, 64
4, 686160, Note_on_c, 2, 55, 108
4, 686240, Note_off_c, 2, 55, 64
4, 686400, Note_on_c, 2, 52, 108
4, 686480, Note_off_c, 2, 52, 64
4, 686640, Note_on_c, 2, 53, 60
4, 687040, Note_off_c, 2, 53, 64
4, 701520, Note_on_c, 2, 79, 45
4, 701640, Note_off_c, 2, 79, 64
4, 702000, Note_on_c, 2, 82, 45
4, 702880, Note_off_c, 2, 82, 64
4, 702960, Note_on_c, 2, 79, 45
4, 703080, Note_off_c, 2, 79, 64
4, 703440, Note_on_c, 2, 76, 45
4, 703560, Note_off_c, 2, 76, 64
4, 703920, Note_on_c, 2, 77, 45
4, 704640, Note_off_c, 2, 77, 64
4, 710160, Note_on_c, 2, 77, 45
4, 710640, Note_off_c, 2, 77, 64
4, 710640, Note_on_c, 2, 79, 45
4, 711120, Note_off_c, 2, 79, 64
4, 711120, Note_on_c, 2, 81, 45
4, 711600, Note_off_c, 2, 81, 64
4, 711600, Note_on_c, 2, 79, 45
4, 712080, Note_off_c, 2, 79, 64
4, 712080, Note_on_c, 2, 77, 45
4, 712560, Note_off_c, 2, 77, 64
4, 712560, Note_on_c, 2, 76, 45
4, 713400, Note_off_c, 2, 76, 64
4, 713520, Note_on_c, 2, 77, 45
4, 714000, Note_off_c, 2, 77, 64
4, 714000, Note_on_c, 2, 79, 45
4, 714480, Note_off_c, 2, 79, 64
4, 714480, Note_on_c, 2, 70, 45
4, 714960, Note_off_c, 2, 70, 64
4, 714960, Note_on_c, 2, 72, 45
4, 715440, Note_off_c, 2, 72, 64
4, 715440, Note_on_c, 2, 69, 45
4, 715840, Note_off_c, 2, 69, 64
4, 716880, Note_on_c, 2, 77, 60
4, 717360, Note_off_c, 2, 77, 64
4, 717360, Note_on_c, 2, 81, 60
4, 717840, Note_off_c, 2, 81, 64
4, 717840, Note_on_c, 2, 79, 60
4, 718240, Note_off_c, 2, 79, 64
4, 719760, Note_on_c, 2, 76, 60
4, 720240, Note_off_c, 2, 76, 64
4, 720240, Note_on_c, 2, 79, 60
4, 720720, Note_off_c, 2, 79, 64
4, 720720, Note_on_c, 2, 77, 60
4, 721120, Note_off_c, 2, 77, 64
4, 721200, Note_on_c, 2, 77, 60
4, 722640, Note_off_c, 2, 77, 64
4, 722640, Note_on_c, 2, 81, 63
4, 723120, Note_off_c, 2, 81, 64
4, 723120, Note_on_c, 2, 84, 64
4, 723600, Note_off_c, 2, 84, 64
4, 723600, Note_on_c, 2, 82, 65
4, 724000, Note_off_c, 2, 82, 64
4, 725520, Note_on_c, 2, 79, 70
4, 726000, Note_off_c, 2, 79, 64
4, 726000, Note_on_c, 2, 82, 71
4, 726480, Note_off_c, 2, 82, 64
4, 726480, Note_on_c, 2, 81, 73
4, 726880, Note_off_c, 2, 81, 64
4, 726960, Note_on_c, 2, 77, 75
4, 727360, Note_off_c, 2, 77, 64
4, 732720, Note_on_c, 2, 69, 60
4, 732720, Note_on_c, 2, 72, 60
4, 733560, Note_off_c, 2, 72, 64
4, 733560, Note_off_c, 2, 69, 64
4, 733680, Note_on_c, 2, 69, 60
4, 733680, Note_on_c, 2, 72, 60
4, 734520, Note_off_c, 2, 72, 64
4, 734520, Note_off_c, 2, 69, 64
4, 734640, Note_on_c, 2, 70, 60
4, 734640, Note_on_c, 2, 74, 60
4, 735480, Note_off_c, 2, 74, 64
4, 735480, Note_off_c, 2, 70, 64
4, 735600, Note_on_c, 2, 69, 60
4, 735600, Note_on_c, 2, 75, 60
4, 736080, Note_off_c, 2, 75, 64
4, 736080, Note_off_c, 2, 69, 64
4, 736080, Note_on_c, 2, 70, 60
4, 736080, Note_on_c, 2, 74, 60
4, 736480, Note_off_c, 2, 74, 64
4, 736480, Note_off_c, 2, 70, 64
4, 736560, Note_on_c, 2, 69, 60
4, 736560, Note_on_c, 2, 72, 60
4, 737400, Note_off_c, 2, 72, 64
4, 737400, Note_off_c, 2, 69, 64
4, 737520, Note_on_c, 2, 69, 60
4, 737520, Note_on_c, 2, 72, 60
4, 738360, Note_off_c, 2, 72, 64
4, 738360, Note_off_c, 2, 69, 64
4, 738480, Note_on_c, 2, 70, 60
4, 738480, Note_on_c, 2, 74, 60
4, 739320, Note_off_c, 2, 74, 64
4, 739320, Note_off_c, 2, 70, 64
4, 739440, Note_on_c, 2, 69, 60
4, 739440, Note_on_c, 2, 75, 60
4, 739920, Note_off_c, 2, 75, 64
4, 739920, Note_off_c, 2, 69, 64
4, 739920, Note_on_c, 2, 70, 60
4, 739920, Note_on_c, 2, 74, 60
4, 740320, Note_off_c, 2, 74, 64
4, 740320, Note_off_c, 2, 70, 64
4, 740400, Note_on_c, 2, 69, 60
4, 740400, Note_on_c, 2, 72, 60
4, 741240, Note_off_c, 2, 72, 64
4, 741240, Note_off_c, 2, 69, 64
4, 741360, Note_on_c, 2, 69, 60
4, 741360, Note_on_c, 2, 72, 60
4, 742200, Note_off_c, 2, 72, 64
4, 742200, Note_off_c, 2, 69, 64
4, 742320, Note_on_c, 2, 70, 60
4, 742320, Note_on_c, 2, 74, 60
4, 743160, Note_off_c, 2, 74, 64
4, 743160, Note_off_c, 2, 70, 64
4, 743280, Note_on_c, 2, 69, 60
4, 743280, Note_on_c, 2, 75, 60
4, 743760, Note_off_c, 2, 75, 64
4, 743760, Note_off_c, 2, 69, 64
4, 743760, Note_on_c, 2, 70, 60
4, 743760, Note_on_c, 2, 74, 60
4, 744160, Note_off_c, 2, 74, 64
4, 744160, Note_off_c, 2, 70, 64
4, 744240, Note_on_c, 2, 69, 60
4, 744240, Note_on_c, 2, 72, 60
4, 745080, Note_off_c, 2, 72, 64
4, 745080, Note_off_c, 2, 69, 64
4, 745200, Note_on_c, 2, 69, 60
4, 745200, Note_on_c, 2, 72, 60
4, 746040, Note_off_c, 2, 72, 64
4, 746040, Note_off_c, 2, 69, 64
4, 746160, Note_on_c, 2, 70, 60
4, 746160, Note_on_c, 2, 74, 60
4, 747000, Note_off_c, 2, 74, 64
4, 747000, Note_off_c, 2, 70, 64
4, 747120, Note_on_c, 2, 69, 60
4, 747120, Note_on_c, 2, 75, 60
4, 747600, Note_off_c, 2, 75, 64
4, 747600, Note_off_c, 2, 69, 64
4, 747600, Note_on_c, 2, 70, 60
4, 747600, Note_on_c, 2, 74, 60
4, 748000, Note_off_c, 2, 74, 64
4, 748000, Note_off_c, 2, 70, 64
4, 750000, Note_on_c, 2, 69, 60
4, 750000, Note_on_c, 2, 72, 60
4, 750840, Note_off_c, 2, 72, 64
4, 750840, Note_off_c, 2, 69, 64
4, 750960, Note_on_c, 2, 64, 60
4, 750960, Note_on_c, 2, 67, 60
4, 751440, Note_off_c, 2, 67, 64
4, 751440, Note_off_c, 2, 64, 64
4, 751440, Note_on_c, 2, 65, 60
4, 751440, Note_on_c, 2, 69, 60
4, 751840, Note_off_c, 2, 69, 64
4, 751840, Note_off_c, 2, 65, 64
4, 753840, Note_on_c, 2, 69, 60
4, 753840, Note_on_c, 2, 72, 60
4, 754680, Note_off_c, 2, 72, 64
4, 754680, Note_off_c, 2, 69, 64
4, 754800, Note_on_c, 2, 64, 60
4, 754800, Note_on_c, 2, 67, 60
4, 755280, Note_off_c, 2, 67, 64
4, 755280, Note_off_c, 2, 64, 64
4, 755280, Note_on_c, 2, 65, 60
4, 755280, Note_on_c, 2, 69, 60
4, 755680, Note_off_c, 2, 69, 64
4, 755680, Note_off_c, 2, 65, 64
4, 755760, Note_on_c, 2, 64, 60
4, 755760, Note_on_c, 2, 72, 60
4, 756240, Note_off_c, 2, 72, 64
4, 756240, Note_off_c, 2, 64, 64
4, 756240, Note_on_c, 2, 74, 60
4, 756240, Note_on_c, 2, 77, 60
4, 756720, Note_off_c, 2, 77, 64
4, 756720, Note_off_c, 2, 74, 64
4, 756720, Note_on_c, 2, 72, 60
4, 756720, Note_on_c, 2, 76, 60
4, 757360, Note_off_c, 2, 76, 64
4, 757360, Note_off_c, 2, 72, 64
4, 757440, Note_on_c, 2, 65, 60
4, 757440, Note_on_c, 2, 69, 60
4, 757675, Note_off_c, 2, 69, 64
4, 757675, Note_off_c, 2, 65, 64
4, 757680, Note_on_c, 2, 64, 60
4, 757680, Note_on_c, 2, 67, 60
4, 757915, Note_off_c, 2, 67, 64
4, 757915, Note_off_c, 2, 64, 64
4, 758160, Note_on_c, 2, 62, 60
4, 758160, Note_on_c, 2, 65, 60
4, 758395, Note_off_c, 2, 65, 64
4, 758395, Note_off_c, 2, 62, 64
4, 758640, Note_on_c, 2, 60, 60
4, 758640, Note_on_c, 2, 64, 60
4, 758875, Note_off_c, 2, 64, 64
4, 758875, Note_off_c, 2, 60, 64
4, 759120, Note_on_c, 2, 62, 60
4, 759120, Note_on_c, 2, 71, 60
4, 759355, Note_off_c, 2, 71, 64
4, 759355, Note_off_c, 2, 62, 64
4, 759600, Note_on_c, 2, 64, 60
4, 759600, Note_on_c, 2, 72, 60
4, 759680, Note_off_c, 2, 72, 64
4, 759680, Note_off_c, 2, 64, 64
4, 759840, Note_on_c, 2, 64, 60
4, 759840, Note_on_c, 2, 72, 60
4, 759920, Note_off_c, 2, 72, 64
4, 759920, Note_off_c, 2, 64, 64
4, 760080, Note_on_c, 2, 74, 60
4, 760080, Note_on_c, 2, 77, 60
4, 760160, Note_off_c, 2, 77, 64
4, 760160, Note_off_c, 2, 74, 64
4, 760320, Note_on_c, 2, 74, 60
4, 760320, Note_on_c, 2, 77, 60
4, 760400, Note_off_c, 2, 77, 64
4, 760400, Note_off_c, 2, 74, 64
4, 760560, Note_on_c, 2, 72, 60
4, 760560, Note_on_c, 2, 76, 60
4, 760640, Note_off_c, 2, 76, 64
4, 760640, Note_off_c, 2, 72, 64
4, 760800, Note_on_c, 2, 72, 60
4, 760800, Note_on_c, 2, 76, 60
4, 760880, Note_off_c, 2, 76, 64
4, 760880, Note_off_c, 2, 72, 64
4, 761280, Note_on_c, 2, 65, 60
4, 761280, Note_on_c, 2, 69, 60
4, 761515, Note_off_c, 2, 69, 64
4, 761515, Note_off_c, 2, 65, 64
4, 761760, Note_on_c, 2, 64, 60
4, 761760, Note_on_c, 2, 67, 60
4, 761995, Note_off_c, 2, 67, 64
4, 761995, Note_off_c, 2, 64, 64
4, 762240, Note_on_c, 2, 62, 60
4, 762240, Note_on_c, 2, 65, 60
4, 762475, Note_off_c, 2, 65, 64
4, 762475, Note_off_c, 2, 62, 64
4, 762720, Note_on_c, 2, 60, 60
4, 762720, Note_on_c, 2, 64, 60
4, 762955, Note_off_c, 2, 64, 64
4, 762955, Note_off_c, 2, 60, 64
4, 763200, Note_on_c, 2, 62, 60
4, 763200, Note_on_c, 2, 71, 60
4, 763435, Note_off_c, 2, 71, 64
4, 763435, Note_off_c, 2, 62, 64
4, 763440, Note_on_c, 2, 64, 60
4, 763440, Note_on_c, 2, 72, 60
4, 764080, Note_off_c, 2, 72, 64
4, 764080, Note_off_c, 2, 64, 64
4, 764160, Note_on_c, 2, 64, 60
4, 764160, Note_on_c, 2, 72, 60
4, 764395, Note_off_c, 2, 72, 64
4, 764395, Note_off_c, 2, 64, 64
4, 764400, Note_on_c, 2, 64, 60
4, 764400, Note_on_c, 2, 72, 60
4, 765040, Note_off_c, 2, 72, 64
4, 765040, Note_off_c, 2, 64, 64
4, 765120, Note_on_c, 2, 64, 60
4, 765120, Note_on_c, 2, 72, 60
4, 765355, Note_off_c, 2, 72, 64
4, 765355, Note_off_c, 2, 64, 64
4, 765360, Note_on_c, 2, 64, 60
4, 765360, Note_on_c, 2, 72, 60
4, 766000, Note_off_c, 2, 72, 64
4, 766000, Note_off_c, 2, 64, 64
4, 766080, Note_on_c, 2, 64, 60
4, 766080, Note_on_c, 2, 72, 60
4, 766315, Note_off_c, 2, 72, 64
4, 766315, Note_off_c, 2, 64, 64
4, 766320, Note_on_c, 2, 64, 60
4, 766320, Note_on_c, 2, 72, 60
4, 766960, Note_off_c, 2, 72, 64
4, 766960, Note_off_c, 2, 64, 64
4, 767040, Note_on_c, 2, 64, 60
4, 767040, Note_on_c, 2, 72, 60
4, 767275, Note_off_c, 2, 72, 64
4, 767275, Note_off_c, 2, 64, 64
4, 767280, Note_on_c, 2, 64, 60
4, 767280, Note_on_c, 2, 72, 60
4, 767360, Note_off_c, 2, 72, 64
4, 767360, Note_off_c, 2, 64, 64
4, 767520, Note_on_c, 2, 64, 60
4, 767520, Note_on_c, 2, 72, 60
4, 767600, Note_off_c, 2, 72, 64
4, 767600, Note_off_c, 2, 64, 64
4, 767760, Note_on_c, 2, 64, 60
4, 767760, Note_on_c, 2, 72, 60
4, 767840, Note_off_c, 2, 72, 64
4, 767840, Note_off_c, 2, 64, 64
4, 768000, Note_on_c, 2, 72, 60
4, 768000, Note_on_c, 2, 76, 60
4, 768080, Note_off_c, 2, 76, 64
4, 768080, Note_off_c, 2, 72, 64
4, 768240, Note_on_c, 2, 72, 60
4, 768240, Note_on_c, 2, 76, 60
4, 768320, Note_off_c, 2, 76, 64
4, 768320, Note_off_c, 2, 72, 64
4, 768480, Note_on_c, 2, 72, 60
4, 768480, Note_on_c, 2, 76, 60
4, 768560, Note_off_c, 2, 76, 64
4, 768560, Note_off_c, 2, 72, 64
4, 768720, Note_on_c, 2, 72, 60
4, 768720, Note_on_c, 2, 76, 60
4, 768800, Note_off_c, 2, 76, 64
4, 768800, Note_off_c, 2, 72, 64
4, 768960, Note_on_c, 2, 72, 60
4, 768960, Note_on_c, 2, 76, 60
4, 769040, Note_off_c, 2, 76, 64
4, 769040, Note_off_c, 2, 72, 64
4, 769200, Note_on_c, 2, 72, 60
4, 769200, Note_on_c, 2, 76, 60
4, 769435, Note_off_c, 2, 76, 64
4, 769435, Note_off_c, 2, 72, 64
4, 770160, Note_on_c, 2, 64, 45
4, 770160, Note_on_c, 2, 72, 45
4, 770395, Note_off_c, 2, 72, 64
4, 770395, Note_off_c, 2, 64, 64
4, 824400, Note_on_c, 2, 62, 45
4, 824400, Note_on_c, 2, 74, 45
4, 824520, Note_off_c, 2, 74, 64
4, 824520, Note_off_c, 2, 62, 64
4, 824880, Note_on_c, 2, 67, 45
4, 824880, Note_on_c, 2, 79, 45
4, 825000, Note_off_c, 2, 79, 64
4, 825000, Note_off_c, 2, 67, 64
4, 825360, Note_on_c, 2, 62, 45
4, 825360, Note_on_c, 2, 74, 45
4, 825480, Note_off_c, 2, 74, 64
4, 825480, Note_off_c, 2, 62, 64
4, 825840, Note_on_c, 2, 64, 45
4, 825840, Note_on_c, 2, 76, 45
4, 825960, Note_off_c, 2, 76, 64
4, 825960, Note_off_c, 2, 64, 64
4, 826320, Note_on_c, 2, 62, 45
4, 826320, Note_on_c, 2, 74, 45
4, 826440, Note_off_c, 2, 74, 64
4, 826440, Note_off_c, 2, 62, 64
4, 826800, Note_on_c, 2, 59, 45
4, 826800, Note_on_c, 2, 71, 45
4, 826920, Note_off_c, 2, 71, 64
4, 826920, Note_off_c, 2, 59, 64
4, 827280, Note_on_c, 2, 60, 45
4, 827280, Note_on_c, 2, 72, 45
4, 827400, Note_off_c, 2, 72, 64
4, 827400, Note_off_c, 2, 60, 64
4, 827760, Note_on_c, 2, 59, 45
4, 827760, Note_on_c, 2, 71, 45
4, 827880, Note_off_c, 2, 71, 64
4, 827880, Note_off_c, 2, 59, 64
4, 828240, Note_on_c, 2, 55, 45
4, 828240, Note_on_c, 2, 67, 45
4, 828360, Note_off_c, 2, 67, 64
4, 828360, Note_off_c, 2, 55, 64
4, 828720, Note_on_c, 2, 57, 45
4, 828720, Note_on_c, 2, 69, 45
4, 828840, Note_off_c, 2, 69, 64
4, 828840, Note_off_c, 2, 57, 64
4, 829200, Note_on_c, 2, 59, 45
4, 829200, Note_on_c, 2, 71, 45
4, 829320, Note_off_c, 2, 71, 64
4, 829320, Note_off_c, 2, 59, 64
4, 829680, Note_on_c, 2, 55, 45
4, 829680, Note_on_c, 2, 67, 45
4, 829800, Note_off_c, 2, 67, 64
4, 829800, Note_off_c, 2, 55, 64
4, 836880, Note_on_c, 2, 64, 45
4, 836880, Note_on_c, 2, 67, 45
4, 837360, Note_off_c, 2, 67, 64
4, 837360, Note_off_c, 2, 64, 64
4, 837360, Note_on_c, 2, 65, 45
4, 837360, Note_on_c, 2, 69, 45
4, 837840, Note_off_c, 2, 69, 64
4, 837840, Note_off_c, 2, 65, 64
4, 837840, Note_on_c, 2, 64, 45
4, 837840, Note_on_c, 2, 67, 45
4, 838320, Note_off_c, 2, 67, 64
4, 838320, Note_off_c, 2, 64, 64
4, 838320, Note_on_c, 2, 60, 45
4, 838320, Note_on_c, 2, 67, 45
4, 838800, Note_off_c, 2, 67, 64
4, 838800, Note_off_c, 2, 60, 64
4, 838800, Note_on_c, 2, 60, 45
4, 838800, Note_on_c, 2, 69, 45
4, 839280, Note_off_c, 2, 69, 64
4, 839280, Note_off_c, 2, 60, 64
4, 839280, Note_on_c, 2, 60, 45
4, 839280, Note_on_c, 2, 67, 45
4, 839760, Note_off_c, 2, 67, 64
4, 839760, Note_off_c, 2, 60, 64
4, 839760, Note_on_c, 2, 64, 45
4, 839760, Note_on_c, 2, 72, 45
4, 840240, Note_off_c, 2, 72, 64
4, 840240, Note_off_c, 2, 64, 64
4, 840240, Note_on_c, 2, 65, 45
4, 840240, Note_on_c, 2, 71, 45
4, 840720, Note_off_c, 2, 71, 64
4, 840720, Note_off_c, 2, 65, 64
4, 840720, Note_on_c, 2, 64, 45
4, 840720, Note_on_c, 2, 72, 45
4, 841120, Note_off_c, 2, 72, 64
4, 841120, Note_off_c, 2, 64, 64
4, 844560, Note_on_c, 2, 60, 61
4, 844560, Note_on_c, 2, 72, 61
4, 844960, Note_off_c, 2, 72, 64
4, 844960, Note_off_c, 2, 60, 64
4, 845040, Note_on_c, 2, 60, 63
4, 845040, Note_on_c, 2, 72, 63
4, 845440, Note_off_c, 2, 72, 64
4, 845440, Note_off_c, 2, 60, 64
4, 845520, Note_on_c, 2, 60, 65
4, 845520, Note_on_c, 2, 72, 65
4, 845920, Note_off_c, 2, 72, 64
4, 845920, Note_off_c, 2, 60, 64
4, 846000, Note_on_c, 2, 60, 67
4, 846000, Note_on_c, 2, 72, 67
4, 846400, Note_off_c, 2, 72, 64
4, 846400, Note_off_c, 2, 60, 64
4, 846480, Note_on_c, 2, 60, 69
4, 846480, Note_on_c, 2, 72, 69
4, 846880, Note_off_c, 2, 72, 64
4, 846880, Note_off_c, 2, 60, 64
4, 846960, Note_on_c, 2, 60, 72
4, 846960, Note_on_c, 2, 72, 72
4, 847360, Note_off_c, 2, 72, 64
4, 847360, Note_off_c, 2, 60, 64
4, 847440, Note_on_c, 2, 60, 75
4, 847440, Note_on_c, 2, 72, 75
4, 847840, Note_off_c, 2, 72, 64
4, 847840, Note_off_c, 2, 60, 64
4, 847920, Note_on_c, 2, 65, 75
4, 847920, Note_on_c, 2, 77, 75
4, 848320, Note_off_c, 2, 77, 64
4, 848320, Note_off_c, 2, 65, 64
4, 848400, Note_on_c, 2, 65, 75
4, 848400, Note_on_c, 2, 77, 75
4, 848800, Note_off_c, 2, 77, 64
4, 848800, Note_off_c, 2, 65, 64
4, 848880, Note_on_c, 2, 65, 75
4, 848880, Note_on_c, 2, 77, 75
4, 849280, Note_off_c, 2, 77, 64
4, 849280, Note_off_c, 2, 65, 64
4, 849360, Note_on_c, 2, 65, 75
4, 849360, Note_on_c, 2, 77, 75
4, 849760, Note_off_c, 2, 77, 64
4, 849760, Note_off_c, 2, 65, 64
4, 849840, Note_on_c, 2, 65, 75
4, 849840, Note_on_c, 2, 77, 75
4, 850240, Note_off_c, 2, 77, 64
4, 850240, Note_off_c, 2, 65, 64
4, 850320, Note_on_c, 2, 65, 75
4, 850320, Note_on_c, 2, 77, 75
4, 850720, Note_off_c, 2, 77, 64
4, 850720, Note_off_c, 2, 65, 64
4, 850800, Note_on_c, 2, 65, 75
4, 850800, Note_on_c, 2, 77, 75
4, 851200, Note_off_c, 2, 77, 64
4, 851200, Note_off_c, 2, 65, 64
4, 851280, Note_on_c, 2, 65, 75
4, 851280, Note_on_c, 2, 77, 75
4, 851680, Note_off_c, 2, 77, 64
4, 851680, Note_off_c, 2, 65, 64
4, 851760, Note_on_c, 2, 67, 75
4, 851760, Note_on_c, 2, 79, 75
4, 852160, Note_off_c, 2, 79, 64
4, 852160, Note_off_c, 2, 67, 64
4, 852240, Note_on_c, 2, 69, 75
4, 852240, Note_on_c, 2, 81, 75
4, 852640, Note_off_c, 2, 81, 64
4, 852640, Note_off_c, 2, 69, 64
4, 852720, Note_on_c, 2, 65, 75
4, 852720, Note_on_c, 2, 77, 75
4, 853120, Note_off_c, 2, 77, 64
4, 853120, Note_off_c, 2, 65, 64
4, 853200, Note_on_c, 2, 67, 75
4, 853200, Note_on_c, 2, 79, 75
4, 853600, Note_off_c, 2, 79, 64
4, 853600, Note_off_c, 2, 67, 64
4, 853680, Note_on_c, 2, 69, 75
4, 853680, Note_on_c, 2, 81, 75
4, 854080, Note_off_c, 2, 81, 64
4, 854080, Note_off_c, 2, 69, 64
4, 854160, Note_on_c, 2, 65, 75
4, 854160, Note_on_c, 2, 77, 75
4, 854560, Note_off_c, 2, 77, 64
4, 854560, Note_off_c, 2, 65, 64
4, 854640, Note_on_c, 2, 67, 75
4, 854640, Note_on_c, 2, 79, 75
4, 855040, Note_off_c, 2, 79, 64
4, 855040, Note_off_c, 2, 67, 64
4, 855120, Note_on_c, 2, 69, 75
4, 855120, Note_on_c, 2, 81, 75
4, 855520, Note_off_c, 2, 81, 64
4, 855520, Note_off_c, 2, 69, 64
4, 855600, Note_on_c, 2, 65, 75
4, 855600, Note_on_c, 2, 77, 75
4, 856000, Note_off_c, 2, 77, 64
4, 856000, Note_off_c, 2, 65, 64
4, 856080, Note_on_c, 2, 67, 75
4, 856080, Note_on_c, 2, 79, 75
4, 856480, Note_off_c, 2, 79, 64
4, 856480, Note_off_c, 2, 67, 64
4, 856560, Note_on_c, 2, 69, 75
4, 856560, Note_on_c, 2, 81, 75
4, 857880, Note_off_c, 2, 81, 64
4, 857880, Note_off_c, 2, 69, 64
4, 858000, Note_on_c, 2, 67, 75
4, 858000, Note_on_c, 2, 79, 75
4, 858840, Note_off_c, 2, 79, 64
4, 858840, Note_off_c, 2, 67, 64
4, 858960, Note_on_c, 2, 65, 75
4, 858960, Note_on_c, 2, 77, 75
4, 859360, Note_off_c, 2, 77, 64
4, 859360, Note_off_c, 2, 65, 64
4, 859440, Note_on_c, 2, 64, 75
4, 859440, Note_on_c, 2, 76, 75
4, 860280, Note_off_c, 2, 76, 64
4, 860280, Note_off_c, 2, 64, 64
4, 860400, Note_on_c, 2, 62, 75
4, 860400, Note_on_c, 2, 74, 75
4, 860800, Note_off_c, 2, 74, 64
4, 860800, Note_off_c, 2, 62, 64
4, 860880, Note_on_c, 2, 60, 75
4, 860880, Note_on_c, 2, 72, 75
4, 861720, Note_off_c, 2, 72, 64
4, 861720, Note_off_c, 2, 60, 64
4, 861840, Note_on_c, 2, 67, 75
4, 861840, Note_on_c, 2, 72, 75
4, 862240, Note_off_c, 2, 72, 64
4, 862240, Note_off_c, 2, 67, 64
4, 862320, Note_on_c, 2, 65, 75
4, 862320, Note_on_c, 2, 72, 75
4, 863640, Note_off_c, 2, 72, 64
4, 863640, Note_off_c, 2, 65, 64
4, 863760, Note_on_c, 2, 74, 75
4, 863760, Note_on_c, 2, 77, 75
4, 865080, Note_off_c, 2, 77, 64
4, 865080, Note_off_c, 2, 74, 64
4, 865200, Note_on_c, 2, 69, 75
4, 865200, Note_on_c, 2, 72, 75
4, 866520, Note_off_c, 2, 72, 64
4, 866520, Note_off_c, 2, 69, 64
4, 866640, Note_on_c, 2, 64, 75
4, 866640, Note_on_c, 2, 72, 75
4, 867960, Note_off_c, 2, 72, 64
4, 867960, Note_off_c, 2, 64, 64
4, 868080, Note_on_c, 2, 65, 75
4, 868080, Note_on_c, 2, 72, 75
4, 868480, Note_off_c, 2, 72, 64
4, 868480, Note_off_c, 2, 65, 64
4, 871920, Note_on_c, 2, 60, 75
4, 871920, Note_on_c, 2, 72, 75
4, 872320, Note_off_c, 2, 72, 64
4, 872320, Note_off_c, 2, 60, 64
4, 872400, Note_on_c, 2, 60, 75
4, 872400, Note_on_c, 2, 72, 75
4, 873240, Note_off_c, 2, 72, 64
4, 873240, Note_off_c, 2, 60, 64
4, 873360, Note_on_c, 2, 64, 75
4, 873360, Note_on_c, 2, 67, 75
4, 873760, Note_off_c, 2, 67, 64
4, 873760, Note_off_c, 2, 64, 64
4, 873840, Note_on_c, 2, 65, 75
4, 873840, Note_on_c, 2, 69, 75
4, 875160, Note_off_c, 2, 69, 64
4, 875160, Note_off_c, 2, 65, 64
4, 875280, Note_on_c, 2, 65, 75
4, 875280, Note_on_c, 2, 67, 75
4, 876600, Note_off_c, 2, 67, 64
4, 876600, Note_off_c, 2, 65, 64
4, 876720, Note_on_c, 2, 65, 75
4, 876720, Note_on_c, 2, 69, 75
4, 878040, Note_off_c, 2, 69, 64
4, 878040, Note_off_c, 2, 65, 64
4, 878160, Note_on_c, 2, 64, 75
4, 878160, Note_on_c, 2, 67, 75
4, 879480, Note_off_c, 2, 67, 64
4, 879480, Note_off_c, 2, 64, 64
4, 879600, Note_on_c, 2, 57, 75
4, 879600, Note_on_c, 2, 65, 75
4, 880000, Note_off_c, 2, 65, 64
4, 880000, Note_off_c, 2, 57, 64
4, 883920, Note_on_c, 2, 67, 75
4, 883920, Note_on_c, 2, 76, 75
4, 884320, Note_off_c, 2, 76, 64
4, 884320, Note_off_c, 2, 67, 64
4, 884400, Note_on_c, 2, 67, 75
4, 884400, Note_on_c, 2, 76, 75
4, 884800, Note_off_c, 2, 76, 64
4, 884800, Note_off_c, 2, 67, 64
4, 884880, Note_on_c, 2, 67, 75
4, 884880, Note_on_c, 2, 76, 75
4, 885280, Note_off_c, 2, 76, 64
4, 885280, Note_off_c, 2, 67, 64
4, 885360, Note_on_c, 2, 69, 75
4, 885360, Note_on_c, 2, 77, 75
4, 885760, Note_off_c, 2, 77, 64
4, 885760, Note_off_c, 2, 69, 64
4, 889680, Note_on_c, 2, 67, 75
4, 889680, Note_on_c, 2, 76, 75
4, 890080, Note_off_c, 2, 76, 64
4, 890080, Note_off_c, 2, 67, 64
4, 890160, Note_on_c, 2, 67, 75
4, 890160, Note_on_c, 2, 76, 75
4, 890560, Note_off_c, 2, 76, 64
4, 890560, Note_off_c, 2, 67, 64
4, 890640, Note_on_c, 2, 67, 75
4, 890640, Note_on_c, 2, 76, 75
4, 891040, Note_off_c, 2, 76, 64
4, 891040, Note_off_c, 2, 67, 64
4, 891120, Note_on_c, 2, 69, 75
4, 891120, Note_on_c, 2, 77, 75
4, 891520, Note_off_c, 2, 77, 64
4, 891520, Note_off_c, 2, 69, 64
4, 894000, Note_on_c, 2, 69, 75
4, 894000, Note_on_c, 2, 77, 75
4, 894400, Note_off_c, 2, 77, 64
4, 894400, Note_off_c, 2, 69, 64
4, 935760, Note_on_c, 2, 81, 60
4, 936240, Note_off_c, 2, 81, 64
4, 936240, Note_on_c, 2, 82, 60
4, 936720, Note_off_c, 2, 82, 64
4, 936720, Note_on_c, 2, 84, 60
4, 937120, Note_off_c, 2, 84, 64
4, 947280, Note_on_c, 2, 82, 60
4, 947760, Note_off_c, 2, 82, 64
4, 947760, Note_on_c, 2, 81, 60
4, 948160, Note_off_c, 2, 81, 64
4, 948240, Note_on_c, 2, 77, 60
4, 948360, Note_off_c, 2, 77, 64
4, 948720, Note_on_c, 2, 79, 60
4, 948840, Note_off_c, 2, 79, 64
4, 949200, Note_on_c, 2, 72, 60
4, 949320, Note_off_c, 2, 72, 64
4, 949680, Note_on_c, 2, 76, 60
4, 950560, Note_off_c, 2, 76, 64
4, 950640, Note_on_c, 2, 72, 60
4, 950760, Note_off_c, 2, 72, 64
4, 951120, Note_on_c, 2, 67, 60
4, 952000, Note_off_c, 2, 67, 64
4, 952080, Note_on_c, 2, 71, 60
4, 952320, Note_off_c, 2, 71, 64
4, 952320, Note_on_c, 2, 72, 60
4, 952560, Note_off_c, 2, 72, 64
4, 952560, Note_on_c, 2, 74, 60
4, 953440, Note_off_c, 2, 74, 64
4, 953520, Note_on_c, 2, 72, 60
4, 954000, Note_off_c, 2, 72, 64
4, 954000, Note_on_c, 2, 74, 60
4, 954480, Note_off_c, 2, 74, 64
4, 954480, Note_on_c, 2, 76, 60
4, 954960, Note_off_c, 2, 76, 64
4, 954960, Note_on_c, 2, 74, 60
4, 955440, Note_off_c, 2, 74, 64
4, 955440, Note_on_c, 2, 72, 60
4, 955920, Note_off_c, 2, 72, 64
4, 955920, Note_on_c, 2, 74, 60
4, 956400, Note_off_c, 2, 74, 64
4, 956400, Note_on_c, 2, 76, 65
4, 956880, Note_off_c, 2, 76, 64
4, 956880, Note_on_c, 2, 77, 70
4, 957360, Note_off_c, 2, 77, 64
4, 957360, Note_on_c, 2, 76, 75
4, 957840, Note_off_c, 2, 76, 64
4, 957840, Note_on_c, 2, 77, 80
4, 958240, Note_off_c, 2, 77, 64
4, 958320, Note_on_c, 2, 79, 85
4, 960475, Note_off_c, 2, 79, 64
4, 960480, Note_on_c, 2, 82, 108
4, 960560, Note_off_c, 2, 82, 64
4, 960720, Note_on_c, 2, 79, 108
4, 960800, Note_off_c, 2, 79, 64
4, 960960, Note_on_c, 2, 76, 108
4, 961040, Note_off_c, 2, 76, 64
4, 961200, Note_on_c, 2, 72, 108
4, 961280, Note_off_c, 2, 72, 64
4, 961440, Note_on_c, 2, 70, 108
4, 961520, Note_off_c, 2, 70, 64
4, 961680, Note_on_c, 2, 67, 108
4, 961760, Note_off_c, 2, 67, 64
4, 961920, Note_on_c, 2, 64, 108
4, 962000, Note_off_c, 2, 64, 64
4, 962160, Note_on_c, 2, 60, 108
4, 962240, Note_off_c, 2, 60, 64
4, 962400, Note_on_c, 2, 58, 108
4, 962480, Note_off_c, 2, 58, 64
4, 962640, Note_on_c, 2, 55, 108
4, 962720, Note_off_c, 2, 55, 64
4, 962880, Note_on_c, 2, 52, 108
4, 962960, Note_off_c, 2, 52, 64
4, 963120, Note_on_c, 2, 53, 60
4, 963520, Note_off_c, 2, 53, 64
4, 978000, Note_on_c, 2, 79, 45
4, 978120, Note_off_c, 2, 79, 64
4, 978480, Note_on_c, 2, 82, 45
4, 979360, Note_off_c, 2, 82, 64
4, 979440, Note_on_c, 2, 79, 45
4, 979560, Note_off_c, 2, 79, 64
4, 979920, Note_on_c, 2, 76, 45
4, 980040, Note_off_c, 2, 76, 64
4, 980400, Note_on_c, 2, 77, 45
4, 981120, Note_off_c, 2, 77, 64
4, 986640, Note_on_c, 2, 77, 45
4, 987120, Note_off_c, 2, 77, 64
4, 987120, Note_on_c, 2, 79, 45
4, 987600, Note_off_c, 2, 79, 64
4, 987600, Note_on_c, 2, 81, 45
4, 988080, Note_off_c, 2, 81, 64
4, 988080, Note_on_c, 2, 79, 45
4, 988560, Note_off_c, 2, 79, 64
4, 988560, Note_on_c, 2, 77, 45
4, 989040, Note_off_c, 2, 77, 64
4, 989040, Note_on_c, 2, 76, 45
4, 989880, Note_off_c, 2, 76, 64
4, 990000, Note_on_c, 2, 77, 45
4, 990480, Note_off_c, 2, 77, 64
4, 990480, Note_on_c, 2, 79, 45
4, 990960, Note_off_c, 2, 79, 64
4, 990960, Note_on_c, 2, 70, 45
4, 991440, Note_off_c, 2, 70, 64
4, 991440, Note_on_c, 2, 72, 45
4, 991920, Note_off_c, 2, 72, 64
4, 991920, Note_on_c, 2, 69, 45
4, 992320, Note_off_c, 2, 69, 64
4, 993360, Note_on_c, 2, 77, 60
4, 993840, Note_off_c, 2, 77, 64
4, 993840, Note_on_c, 2, 81, 60
4, 994320, Note_off_c, 2, 81, 64
4, 994320, Note_on_c, 2, 79, 60
4, 994720, Note_off_c, 2, 79, 64
4, 996240, Note_on_c, 2, 76, 60
4, 996720, Note_off_c, 2, 76, 64
4, 996720, Note_on_c, 2, 79, 60
4, 997200, Note_off_c, 2, 79, 64
4, 997200, Note_on_c, 2, 77, 60
4, 997600, Note_off_c, 2, 77, 64
4, 997680, Note_on_c, 2, 77, 60
4, 999120, Note_off_c, 2, 77, 64
4, 999120, Note_on_c, 2, 81, 63
4, 999600, Note_off_c, 2, 81, 64
4, 999600, Note_on_c, 2, 84, 64
4, 1000080, Note_off_c, 2, 84, 64
4, 1000080, Note_on_c, 2, 82, 65
4, 1000480, Note_off_c, 2, 82, 64
4, 1002000, Note_on_c, 2, 79, 70
4, 1002480, Note_off_c, 2, 79, 64
4, 1002480, Note_on_c, 2, 82, 71
4, 1002960, Note_off_c, 2, 82, 64
4, 1002960, Note_on_c, 2, 81, 73
4, 1003360, Note_off_c, 2, 81, 64
4, 1003440, Note_on_c, 2, 77, 75
4, 1003840, Note_off_c, 2, 77, 64
4, 1009200, Note_on_c, 2, 69, 60
4, 1009200, Note_on_c, 2, 72, 60
4, 1010040, Note_off_c, 2, 72, 64
4, 1010040, Note_off_c, 2, 69, 64
4, 1010160, Note_on_c, 2, 69, 60
4, 1010160, Note_on_c, 2, 72, 60
4, 1011000, Note_off_c, 2, 72, 64
4, 1011000, Note_off_c, 2, 69, 64
4, 1011120, Note_on_c, 2, 70, 60
4, 1011120, Note_on_c, 2, 74, 60
4, 1011960, Note_off_c, 2, 74, 64
4, 1011960, Note_off_c, 2, 70, 64
4, 1012080, Note_on_c, 2, 69, 60
4, 1012080, Note_on_c, 2, 75, 60
4, 1012560, Note_off_c, 2, 75, 64
4, 1012560, Note_off_c, 2, 69, 64
4, 1012560, Note_on_c, 2, 70, 60
4, 1012560, Note_on_c, 2, 74, 60
4, 1012960, Note_off_c, 2, 74, 64
4, 1012960, Note_off_c, 2, 70, 64
4, 1013040, Note_on_c, 2, 69, 60
4, 1013040, Note_on_c, 2, 72, 60
4, 1013880, Note_off_c, 2, 72, 64
4, 1013880, Note_off_c, 2, 69, 64
4, 1014000, Note_on_c, 2, 69, 60
4, 1014000, Note_on_c, 2, 72, 60
4, 1014840, Note_off_c, 2, 72, 64
4, 1014840, Note_off_c, 2, 69, 64
4, 1014960, Note_on_c, 2, 70, 60
4, 1014960, Note_on_c, 2, 74, 60
4, 1015800, Note_off_c, 2, 74, 64
4, 1015800, Note_off_c, 2, 70, 64
4, 1015920, Note_on_c, 2, 69, 60
4, 1015920, Note_on_c, 2, 75, 60
4, 1016400, Note_off_c, 2, 75, 64
4, 1016400, Note_off_c, 2, 69, 64
4, 1016400, Note_on_c, 2, 70, 60
4, 1016400, Note_on_c, 2, 74, 60
4, 1016800, Note_off_c, 2, 74, 64
4, 1016800, Note_off_c, 2, 70, 64
4, 1016880, Note_on_c, 2, 69, 60
4, 1016880, Note_on_c, 2, 72, 60
4, 1017720, Note_off_c, 2, 72, 64
4, 1017720, Note_off_c, 2, 69, 64
4, 1017840, Note_on_c, 2, 69, 60
4, 1017840, Note_on_c, 2, 72, 60
4, 1018680, Note_off_c, 2, 72, 64
4, 1018680, Note_off_c, 2, 69, 64
4, 1018800, Note_on_c, 2, 70, 60
4, 1018800, Note_on_c, 2, 74, 60
4, 1019640, Note_off_c, 2, 74, 64
4, 1019640, Note_off_c, 2, 70, 64
4, 1019760, Note_on_c, 2, 69, 60
4, 1019760, Note_on_c, 2, 75, 60
4, 1020240, Note_off_c, 2, 75, 64
4, 1020240, Note_off_c, 2, 69, 64
4, 1020240, Note_on_c, 2, 70, 60
4, 1020240, Note_on_c, 2, 74, 60
4, 1020640, Note_off_c, 2, 74, 64
4, 1020640, Note_off_c, 2, 70, 64
4, 1020720, Note_on_c, 2, 69, 60
4, 1020720, Note_on_c, 2, 72, 60
4, 1021560, Note_off_c, 2, 72, 64
4, 1021560, Note_off_c, 2, 69, 64
4, 1021680, Note_on_c, 2, 69, 60
4, 1021680, Note_on_c, 2, 72, 60
4, 1022520, Note_off_c, 2, 72, 64
4, 1022520, Note_off_c, 2, 69, 64
4, 1022640, Note_on_c, 2, 70, 60
4, 1022640, Note_on_c, 2, 74, 60
4, 1023480, Note_off_c, 2, 74, 64
4, 1023480, Note_off_c, 2, 70, 64
4, 1023600, Note_on_c, 2, 69, 60
4, 1023600, Note_on_c, 2, 75, 60
4, 1024080, Note_off_c, 2, 75, 64
4, 1024080, Note_off_c, 2, 69, 64
4, 1024080, Note_on_c, 2, 70, 60
4, 1024080, Note_on_c, 2, 74, 60
4, 1024480, Note_off_c, 2, 74, 64
4, 1024480, Note_off_c, 2, 70, 64
4, 1026480, Note_on_c, 2, 69, 60
4, 1026480, Note_on_c, 2, 72, 60
4, 1027320, Note_off_c, 2, 72, 64
4, 1027320, Note_off_c, 2, 69, 64
4, 1027440, Note_on_c, 2, 64, 60
4, 1027440, Note_on_c, 2, 67, 60
4, 1027920, Note_off_c, 2, 67, 64
4, 1027920, Note_off_c, 2, 64, 64
4, 1027920, Note_on_c, 2, 65, 60
4, 1027920, Note_on_c, 2, 69, 60
4, 1028320, Note_off_c, 2, 69, 64
4, 1028320, Note_off_c, 2, 65, 64
4, 1030320, Note_on_c, 2, 69, 60
4, 1030320, Note_on_c, 2, 72, 60
4, 1031160, Note_off_c, 2, 72, 64
4, 1031160, Note_off_c, 2, 69, 64
4, 1031280, Note_on_c, 2, 64, 60
4, 1031280, Note_on_c, 2, 67, 60
4, 1031760, Note_off_c, 2, 67, 64
4, 1031760, Note_off_c, 2, 64, 64
4, 1031760, Note_on_c, 2, 65, 60
4, 1031760, Note_on_c, 2, 69, 60
4, 1032160, Note_off_c, 2, 69, 64
4, 1032160, Note_off_c, 2, 65, 64
4, 1032240, Note_on_c, 2, 64, 60
4, 1032240, Note_on_c, 2, 72, 60
4, 1032720, Note_off_c, 2, 72, 64
4, 1032720, Note_off_c, 2, 64, 64
4, 1032720, Note_on_c, 2, 74, 60
4, 1032720, Note_on_c, 2, 77, 60
4, 1033200, Note_off_c, 2, 77, 64
4, 1033200, Note_off_c, 2, 74, 64
4, 1033200, Note_on_c, 2, 72, 60
4, 1033200, Note_on_c, 2, 76, 60
4, 1033840, Note_off_c, 2, 76, 64
4, 1033840, Note_off_c, 2, 72, 64
4, 1033920, Note_on_c, 2, 65, 60
4, 1033920, Note_on_c, 2, 69, 60
4, 1034155, Note_off_c, 2, 69, 64
4, 1034155, Note_off_c, 2, 65, 64
4, 1034160, Note_on_c, 2, 64, 60
4, 1034160, Note_on_c, 2, 67, 60
4, 1034395, Note_off_c, 2, 67, 64
4, 1034395, Note_off_c, 2, 64, 64
4, 1034640, Note_on_c, 2, 62, 60
4, 1034640, Note_on_c, 2, 65, 60
4, 1034875, Note_off_c, 2, 65, 64
4, 1034875, Note_off_c, 2, 62, 64
4, 1035120, Note_on_c, 2, 60, 60
4, 1035120, Note_on_c, 2, 64, 60
4, 1035355, Note_off_c, 2, 64, 64
4, 1035355, Note_off_c, 2, 60, 64
4, 1035600, Note_on_c, 2, 62, 60
4, 1035600, Note_on_c, 2, 71, 60
4, 1035835, Note_off_c, 2, 71, 64
4, 1035835, Note_off_c, 2, 62, 64
4, 1036080, Note_on_c, 2, 64, 60
4, 1036080, Note_on_c, 2, 72, 60
4, 1036160, Note_off_c, 2, 72, 64
4, 1036160, Note_off_c, 2, 64, 64
4, 1036320, Note_on_c, 2, 64, 60
4, 1036320, Note_on_c, 2, 72, 60
4, 1036400, Note_off_c, 2, 72, 64
4, 1036400, Note_off_c, 2, 64, 64
4, 1036560, Note_on_c, 2, 74, 60
4, 1036560, Note_on_c, 2, 77, 60
4, 1036640, Note_off_c, 2, 77, 64
4, 1036640, Note_off_c, 2, 74, 64
4, 1036800, Note_on_c, 2, 74, 60
4, 1036800, Note_on_c, 2, 77, 60
4, 1036880, Note_off_c, 2, 77, 64
4, 1036880, Note_off_c, 2, 74, 64
4, 1037040, Note_on_c, 2, 72, 60
4, 1037040, Note_on_c, 2, 76, 60
4, 1037120, Note_off_c, 2, 76, 64
4, 1037120, Note_off_c, 2, 72, 64
4, 1037280, Note_on_c, 2, 72, 60
4, 1037280, Note_on_c, 2, 76, 60
4, 1037360, Note_off_c, 2, 76, 64
4, 1037360, Note_off_c, 2, 72, 64
4, 1037760, Note_on_c, 2, 65, 60
4, 1037760, Note_on_c, 2, 69, 60
4, 1037995, Note_off_c, 2, 69, 64
4, 1037995, Note_off_c, 2, 65, 64
4, 1038240, Note_on_c, 2, 64, 60
4, 1038240, Note_on_c, 2, 67, 60
4, 1038475, Note_off_c, 2, 67, 64
4, 1038475, Note_off_c, 2, 64, 64
4, 1038720, Note_on_c, 2, 62, 60
4, 1038720, Note_on_c, 2, 65, 60
4, 1038955, Note_off_c, 2, 65, 64
4, 1038955, Note_off_c, 2, 62, 64
4, 1039200, Note_on_c, 2, 60, 60
4, 1039200, Note_on_c, 2, 64, 60
4, 1039435, Note_off_c, 2, 64, 64
4, 1039435, Note_off_c, 2, 60, 64
4, 1039680, Note_on_c, 2, 62, 60
4, 1039680, Note_on_c, 2, 71, 60
4, 1039915, Note_off_c, 2, 71, 64
4, 1039915, Note_off_c, 2, 62, 64
4, 1039920, Note_on_c, 2, 64, 60
4, 1039920, Note_on_c, 2, 72, 60
4, 1040560, Note_off_c, 2, 72, 64
4, 1040560, Note_off_c, 2, 64, 64
4, 1040640, Note_on_c, 2, 64, 60
4, 1040640, Note_on_c, 2, 72, 60
4, 1040875, Note_off_c, 2, 72, 64
4, 1040875, Note_off_c, 2, 64, 64
4, 1040880, Note_on_c, 2, 64, 60
4, 1040880, Note_on_c, 2, 72, 60
4, 1041520, Note_off_c, 2, 72, 64
4, 1041520, Note_off_c, 2, 64, 64
4, 1041600, Note_on_c, 2, 64, 60
4, 1041600, Note_on_c, 2, 72, 60
4, 1041835, Note_off_c, 2, 72, 64
4, 1041835, Note_off_c, 2, 64, 64
4, 1041840, Note_on_c, 2, 64, 60
4, 1041840, Note_on_c, 2, 72, 60
4, 1042480, Note_off_c, 2, 72, 64
4, 1042480, Note_off_c, 2, 64, 64
4, 1042560, Note_on_c, 2, 64, 60
4, 1042560, Note_on_c, 2, 72, 60
4, 1042795, Note_off_c, 2, 72, 64
4, 1042795, Note_off_c, 2, 64, 64
4, 1042800, Note_on_c, 2, 64, 60
4, 1042800, Note_on_c, 2, 72, 60
4, 1043440, Note_off_c, 2, 72, 64
4, 1043440, Note_off_c, 2, 64, 64
4, 1043520, Note_on_c, 2, 64, 60
4, 1043520, Note_on_c, 2, 72, 60
4, 1043755, Note_off_c, 2, 72, 64
4, 1043755, Note_off_c, 2, 64, 64
4, 1043760, Note_on_c, 2, 64, 60
4, 1043760, Note_on_c, 2, 72, 60
4, 1043840, Note_off_c, 2, 72, 64
4, 1043840, Note_off_c, 2, 64, 64
4, 1044000, Note_on_c, 2, 64, 60
4, 1044000, Note_on_c, 2, 72, 60
4, 1044080, Note_off_c, 2, 72, 64
4, 1044080, Note_off_c, 2, 64, 64
4, 1044240, Note_on_c, 2, 64, 60
4, 1044240, Note_on_c, 2, 72, 60
4, 1044320, Note_off_c, 2, 72, 64
4, 1044320, Note_off_c, 2, 64, 64
4, 1044480, Note_on_c, 2, 72, 60
4, 1044480, Note_on_c, 2, 76, 60
4, 1044560, Note_off_c, 2, 76, 64
4, 1044560, Note_off_c, 2, 72, 64
4, 1044720, Note_on_c, 2, 72, 60
4, 1044720, Note_on_c, 2, 76, 60
4, 1044800, Note_off_c, 2, 76, 64
4, 1044800, Note_off_c, 2, 72, 64
4, 1044960, Note_on_c, 2, 72, 60
4, 1044960, Note_on_c, 2, 76, 60
4, 1045040, Note_off_c, 2, 76, 64
4, 1045040, Note_off_c, 2, 72, 64
4, 1045200, Note_on_c, 2, 72, 60
4, 1045200, Note_on_c, 2, 76, 60
4, 1045280, Note_off_c, 2, 76, 64
4, 1045280, Note_off_c, 2, 72, 64
4, 1045440, Note_on_c, 2, 72, 60
4, 1045440, Note_on_c, 2, 76, 60
4, 1045520, Note_off_c, 2, 76, 64
4, 1045520, Note_off_c, 2, 72, 64
4, 1045680, Note_on_c, 2, 72, 60
4, 1045680, Note_on_c, 2, 76, 60
4, 1045915, Note_off_c, 2, 76, 64
4, 1045915, Note_off_c, 2, 72, 64
4, 1046640, Note_on_c, 2, 64, 45
4, 1046640, Note_on_c, 2, 72, 45
4, 1046875, Note_off_c, 2, 72, 64
4, 1046875, Note_off_c, 2, 64, 64
4, 1067280, Note_on_c, 2, 72, 45
4, 1067760, Note_off_c, 2, 72, 64
4, 1067760, Note_on_c, 2, 74, 45
4, 1068000, Note_off_c, 2, 74, 64
4, 1068000, Note_on_c, 2, 70, 45
4, 1068240, Note_off_c, 2, 70, 64
4, 1068240, Note_on_c, 2, 69, 49
4, 1068720, Note_off_c, 2, 69, 64
4, 1068720, Note_on_c, 2, 72, 57
4, 1069120, Note_off_c, 2, 72, 64
4, 1069200, Note_on_c, 2, 67, 66
4, 1069200, Note_on_c, 2, 70, 66
4, 1069680, Note_off_c, 2, 70, 64
4, 1069680, Note_off_c, 2, 67, 64
4, 1069680, Note_on_c, 2, 65, 75
4, 1069680, Note_on_c, 2, 69, 75
4, 1070320, Note_off_c, 2, 69, 64
4, 1070320, Note_off_c, 2, 65, 64
4, 1073040, Note_on_c, 2, 67, 30
4, 1073040, Note_on_c, 2, 72, 30
4, 1073760, Note_off_c, 2, 72, 64
4, 1073760, Note_off_c, 2, 67, 64
4, 1076400, Note_on_c, 2, 60, 45
4, 1076880, Note_off_c, 2, 60, 64
4, 1076880, Note_on_c, 2, 65, 45
4, 1077840, Note_off_c, 2, 65, 64
4, 1077840, Note_on_c, 2, 69, 45
4, 1078320, Note_off_c, 2, 69, 64
4, 1078320, Note_on_c, 2, 72, 45
4, 1078800, Note_off_c, 2, 72, 64
4, 1078800, Note_on_c, 2, 69, 45
4, 1079280, Note_off_c, 2, 69, 64
4, 1079280, Note_on_c, 2, 69, 45
4, 1079760, Note_off_c, 2, 69, 64
4, 1079760, Note_on_c, 2, 72, 45
4, 1080240, Note_off_c, 2, 72, 64
4, 1080240, Note_on_c, 2, 76, 45
4, 1080720, Note_off_c, 2, 76, 64
4, 1080720, Note_on_c, 2, 70, 45
4, 1080720, Note_on_c, 2, 77, 45
4, 1080960, Note_off_c, 2, 77, 64
4, 1080960, Note_on_c, 2, 74, 45
4, 1081120, Note_off_c, 2, 70, 64
4, 1081200, Note_off_c, 2, 74, 64
4, 1081200, Note_on_c, 2, 69, 45
4, 1081200, Note_on_c, 2, 72, 45
4, 1082040, Note_off_c, 2, 72, 64
4, 1082040, Note_off_c, 2, 69, 64
4, 1082160, Note_on_c, 2, 67, 45
4, 1082160, Note_on_c, 2, 76, 45
4, 1082640, Note_off_c, 2, 76, 64
4, 1082640, Note_off_c, 2, 67, 64
4, 1082640, Note_on_c, 2, 69, 45
4, 1082640, Note_on_c, 2, 77, 45
4, 1083120, Note_off_c, 2, 77, 64
4, 1083120, Note_on_c, 2, 72, 45
4, 1083480, Note_off_c, 2, 69, 64
4, 1083600, Note_off_c, 2, 72, 64
4, 1083600, Note_on_c, 2, 70, 45
4, 1083600, Note_on_c, 2, 74, 45
4, 1084080, Note_off_c, 2, 74, 64
4, 1084080, Note_off_c, 2, 70, 64
4, 1084080, Note_on_c, 2, 69, 45
4, 1084080, Note_on_c, 2, 72, 45
4, 1084560, Note_off_c, 2, 72, 64
4, 1084560, Note_off_c, 2, 69, 64
4, 1084560, Note_on_c, 2, 65, 45
4, 1084560, Note_on_c, 2, 69, 45
4, 1085040, Note_off_c, 2, 69, 64
4, 1085040, Note_off_c, 2, 65, 64
4, 1085040, Note_on_c, 2, 67, 45
4, 1085040, Note_on_c, 2, 70, 45
4, 1085520, Note_off_c, 2, 70, 64
4, 1085520, Note_off_c, 2, 67, 64
4, 1085520, Note_on_c, 2, 65, 45
4, 1085520, Note_on_c, 2, 69, 45
4, 1086000, Note_off_c, 2, 69, 64
4, 1086000, Note_off_c, 2, 65, 64
4, 1086000, Note_on_c, 2, 60, 45
4, 1086000, Note_on_c, 2, 65, 45
4, 1086480, Note_off_c, 2, 65, 64
4, 1086480, Note_off_c, 2, 60, 64
4, 1086480, Note_on_c, 2, 64, 45
4, 1086480, Note_on_c, 2, 67, 45
4, 1086960, Note_off_c, 2, 67, 64
4, 1086960, Note_off_c, 2, 64, 64
4, 1086960, Note_on_c, 2, 65, 45
4, 1086960, Note_on_c, 2, 69, 45
4, 1087360, Note_off_c, 2, 69, 64
4, 1087360, Note_off_c, 2, 65, 64
4, 1087440, Note_on_c, 2, 65, 45
4, 1087840, Note_off_c, 2, 65, 64
4, 1087920, Note_on_c, 2, 65, 45
4, 1087920, Note_on_c, 2, 77, 45
4, 1089240, Note_off_c, 2, 77, 64
4, 1089240, Note_off_c, 2, 65, 64
4, 1089360, Note_on_c, 2, 65, 45
4, 1089360, Note_on_c, 2, 77, 45
4, 1090680, Note_off_c, 2, 77, 64
4, 1090680, Note_off_c, 2, 65, 64
4, 1090800, Note_on_c, 2, 65, 54
4, 1090800, Note_on_c, 2, 77, 54
4, 1092120, Note_off_c, 2, 77, 64
4, 1092120, Note_off_c, 2, 65, 64
4, 1092240, Note_on_c, 2, 65, 64
4, 1092240, Note_on_c, 2, 77, 64
4, 1093560, Note_off_c, 2, 77, 64
4, 1093560, Note_off_c, 2, 65, 64
4, 1093680, Note_on_c, 2, 60, 75
4, 1093680, Note_on_c, 2, 72, 75
4, 1093800, Note_off_c, 2, 72, 64
4, 1093800, Note_off_c, 2, 60, 64
4, 1094160, Note_on_c, 2, 65, 75
4, 1094160, Note_on_c, 2, 77, 75
4, 1094280, Note_off_c, 2, 77, 64
4, 1094280, Note_off_c, 2, 65, 64
4, 1094640, Note_on_c, 2, 65, 75
4, 1094640, Note_on_c, 2, 77, 75
4, 1094760, Note_off_c, 2, 77, 64
4, 1094760, Note_off_c, 2, 65, 64
4, 1095120, Note_on_c, 2, 65, 75
4, 1095120, Note_on_c, 2, 77, 75
4, 1095240, Note_off_c, 2, 77, 64
4, 1095240, Note_off_c, 2, 65, 64
4, 1095600, Note_on_c, 2, 65, 75
4, 1095600, Note_on_c, 2, 77, 75
4, 1095720, Note_off_c, 2, 77, 64
4, 1095720, Note_off_c, 2, 65, 64
4, 1096080, Note_on_c, 2, 65, 75
4, 1096080, Note_on_c, 2, 77, 75
4, 1096200, Note_off_c, 2, 77, 64
4, 1096200, Note_off_c, 2, 65, 64
4, 1096560, Note_on_c, 2, 65, 75
4, 1096560, Note_on_c, 2, 77, 75
4, 1096680, Note_off_c, 2, 77, 64
4, 1096680, Note_off_c, 2, 65, 64
4, 1097040, Note_on_c, 2, 65, 75
4, 1097040, Note_on_c, 2, 77, 75
4, 1097440, Note_off_c, 2, 77, 64
4, 1097440, Note_off_c, 2, 65, 64
4, 1097520, Note_on_c, 2, 65, 75
4, 1097520, Note_on_c, 2, 77, 75
4, 1097920, Note_off_c, 2, 77, 64
4, 1097920, Note_off_c, 2, 65, 64
4, 1098000, Note_on_c, 2, 67, 75
4, 1098000, Note_on_c, 2, 79, 75
4, 1098400, Note_off_c, 2, 79, 64
4, 1098400, Note_off_c, 2, 67, 64
4, 1098480, Note_on_c, 2, 69, 75
4, 1098480, Note_on_c, 2, 81, 75
4, 1098880, Note_off_c, 2, 81, 64
4, 1098880, Note_off_c, 2, 69, 64
4, 1098960, Note_on_c, 2, 65, 75
4, 1098960, Note_on_c, 2, 77, 75
4, 1099360, Note_off_c, 2, 77, 64
4, 1099360, Note_off_c, 2, 65, 64
4, 1099440, Note_on_c, 2, 67, 75
4, 1099440, Note_on_c, 2, 79, 75
4, 1099840, Note_off_c, 2, 79, 64
4, 1099840, Note_off_c, 2, 67, 64
4, 1099920, Note_on_c, 2, 69, 75
4, 1099920, Note_on_c, 2, 81, 75
4, 1100320, Note_off_c, 2, 81, 64
4, 1100320, Note_off_c, 2, 69, 64
4, 1100400, Note_on_c, 2, 65, 75
4, 1100400, Note_on_c, 2, 77, 75
4, 1100800, Note_off_c, 2, 77, 64
4, 1100800, Note_off_c, 2, 65, 64
4, 1100880, Note_on_c, 2, 67, 75
4, 1100880, Note_on_c, 2, 79, 75
4, 1101280, Note_off_c, 2, 79, 64
4, 1101280, Note_off_c, 2, 67, 64
4, 1101360, Note_on_c, 2, 69, 75
4, 1101360, Note_on_c, 2, 81, 75
4, 1101760, Note_off_c, 2, 81, 64
4, 1101760, Note_off_c, 2, 69, 64
4, 1101840, Note_on_c, 2, 65, 75
4, 1101840, Note_on_c, 2, 77, 75
4, 1102240, Note_off_c, 2, 77, 64
4, 1102240, Note_off_c, 2, 65, 64
4, 1102320, Note_on_c, 2, 67, 75
4, 1102320, Note_on_c, 2, 79, 75
4, 1102720, Note_off_c, 2, 79, 64
4, 1102720, Note_off_c, 2, 67, 64
4, 1102800, Note_on_c, 2, 69, 75
4, 1102800, Note_on_c, 2, 81, 75
4, 1104120, Note_off_c, 2, 81, 64
4, 1104120, Note_off_c, 2, 69, 64
4, 1104240, Note_on_c, 2, 67, 75
4, 1104240, Note_on_c, 2, 79, 75
4, 1105080, Note_off_c, 2, 79, 64
4, 1105080, Note_off_c, 2, 67, 64
4, 1105200, Note_on_c, 2, 65, 75
4, 1105200, Note_on_c, 2, 77, 75
4, 1105600, Note_off_c, 2, 77, 64
4, 1105600, Note_off_c, 2, 65, 64
4, 1105680, Note_on_c, 2, 64, 75
4, 1105680, Note_on_c, 2, 76, 75
4, 1106520, Note_off_c, 2, 76, 64
4, 1106520, Note_off_c, 2, 64, 64
4, 1106640, Note_on_c, 2, 62, 75
4, 1106640, Note_on_c, 2, 74, 75
4, 1107040, Note_off_c, 2, 74, 64
4, 1107040, Note_off_c, 2, 62, 64
4, 1107120, Note_on_c, 2, 60, 75
4, 1107120, Note_on_c, 2, 72, 75
4, 1107960, Note_off_c, 2, 72, 64
4, 1107960, Note_off_c, 2, 60, 64
4, 1108080, Note_on_c, 2, 67, 75
4, 1108080, Note_on_c, 2, 72, 75
4, 1108480, Note_off_c, 2, 72, 64
4, 1108480, Note_off_c, 2, 67, 64
4, 1108560, Note_on_c, 2, 65, 75
4, 1108560, Note_on_c, 2, 72, 75
4, 1109880, Note_off_c, 2, 72, 64
4, 1109880, Note_off_c, 2, 65, 64
4, 1110000, Note_on_c, 2, 74, 75
4, 1110000, Note_on_c, 2, 77, 75
4, 1111320, Note_off_c, 2, 77, 64
4, 1111320, Note_off_c, 2, 74, 64
4, 1111440, Note_on_c, 2, 69, 75
4, 1111440, Note_on_c, 2, 72, 75
4, 1112760, Note_off_c, 2, 72, 64
4, 1112760, Note_off_c, 2, 69, 64
4, 1112880, Note_on_c, 2, 64, 75
4, 1112880, Note_on_c, 2, 72, 75
4, 1114200, Note_off_c, 2, 72, 64
4, 1114200, Note_off_c, 2, 64, 64
4, 1114320, Note_on_c, 2, 65, 75
4, 1114320, Note_on_c, 2, 72, 75
4, 1114720, Note_off_c, 2, 72, 64
4, 1114720, Note_off_c, 2, 65, 64
4, 1118160, Note_on_c, 2, 60, 75
4, 1118160, Note_on_c, 2, 72, 75
4, 1118560, Note_off_c, 2, 72, 64
4, 1118560, Note_off_c, 2, 60, 64
4, 1118640, Note_on_c, 2, 60, 75
4, 1118640, Note_on_c, 2, 72, 75
4, 1119480, Note_off_c, 2, 72, 64
4, 1119480, Note_off_c, 2, 60, 64
4, 1119600, Note_on_c, 2, 64, 75
4, 1119600, Note_on_c, 2, 67, 75
4, 1120000, Note_off_c, 2, 67, 64
4, 1120000, Note_off_c, 2, 64, 64
4, 1120080, Note_on_c, 2, 65, 75
4, 1120080, Note_on_c, 2, 69, 75
4, 1121400, Note_off_c, 2, 69, 64
4, 1121400, Note_off_c, 2, 65, 64
4, 1121520, Note_on_c, 2, 65, 75
4, 1121520, Note_on_c, 2, 67, 75
4, 1122840, Note_off_c, 2, 67, 64
4, 1122840, Note_off_c, 2, 65, 64
4, 1122960, Note_on_c, 2, 65, 75
4, 1122960, Note_on_c, 2, 69, 75
4, 1124280, Note_off_c, 2, 69, 64
4, 1124280, Note_off_c, 2, 65, 64
4, 1124400, Note_on_c, 2, 64, 75
4, 1124400, Note_on_c, 2, 67, 75
4, 1125720, Note_off_c, 2, 67, 64
4, 1125720, Note_off_c, 2, 64, 64
4, 1125840, Note_on_c, 2, 57, 75
4, 1125840, Note_on_c, 2, 65, 75
4, 1126240, Note_off_c, 2, 65, 64
4, 1126240, Note_off_c, 2, 57, 64
4, 1130160, Note_on_c, 2, 67, 75
4, 1130160, Note_on_c, 2, 76, 75
4, 1130560, Note_off_c, 2, 76, 64
4, 1130560, Note_off_c, 2, 67, 64
4, 1130640, Note_on_c, 2, 67, 75
4, 1130640, Note_on_c, 2, 76, 75
4, 1131040, Note_off_c, 2, 76, 64
4, 1131040, Note_off_c, 2, 67, 64
4, 1131120, Note_on_c, 2, 67, 75
4, 1131120, Note_on_c, 2, 76, 75
4, 1131520, Note_off_c, 2, 76, 64
4, 1131520, Note_off_c, 2, 67, 64
4, 1131600, Note_on_c, 2, 69, 75
4, 1131600, Note_on_c, 2, 77, 75
4, 1132000, Note_off_c, 2, 77, 64
4, 1132000, Note_off_c, 2, 69, 64
4, 1135920, Note_on_c, 2, 67, 75
4, 1135920, Note_on_c, 2, 76, 75
4, 1136320, Note_off_c, 2, 76, 64
4, 1136320, Note_off_c, 2, 67, 64
4, 1136400, Note_on_c, 2, 67, 75
4, 1136400, Note_on_c, 2, 76, 75
4, 1136800, Note_off_c, 2, 76, 64
4, 1136800, Note_off_c, 2, 67, 64
4, 1136880, Note_on_c, 2, 67, 75
4, 1136880, Note_on_c, 2, 76, 75
4, 1137280, Note_off_c, 2, 76, 64
4, 1137280, Note_off_c, 2, 67, 64
4, 1177680, Note_on_c, 2, 68, 60
4, 1177680, Note_on_c, 2, 80, 60
4, 1181400, Note_off_c, 2, 80, 64
4, 1181400, Note_off_c, 2, 68, 64
4, 1181520, Note_on_c, 2, 68, 60
4, 1181520, Note_on_c, 2, 80, 60
4, 1185240, Note_off_c, 2, 80, 64
4, 1185240, Note_off_c, 2, 68, 64
4, 1185360, Note_on_c, 2, 61, 75
4, 1185360, Note_on_c, 2, 73, 75
4, 1189080, Note_off_c, 2, 73, 64
4, 1189080, Note_off_c, 2, 61, 64
4, 1189200, Note_on_c, 2, 61, 75
4, 1189200, Note_on_c, 2, 73, 75
4, 1192920, Note_off_c, 2, 73, 64
4, 1192920, Note_off_c, 2, 61, 64
4, 1193040, Note_on_c, 2, 66, 75
4, 1193040, Note_on_c, 2, 78, 75
4, 1196760, Note_off_c, 2, 78, 64
4, 1196760, Note_off_c, 2, 66, 64
4, 1196880, Note_on_c, 2, 66, 75
4, 1196880, Note_on_c, 2, 78, 75
4, 1200600, Note_off_c, 2, 78, 64
4, 1200600, Note_off_c, 2, 66, 64
4, 1200720, Note_on_c, 2, 65, 75
4, 1200720, Note_on_c, 2, 77, 75
4, 1200955, Note_off_c, 2, 77, 64
4, 1200955, Note_off_c, 2, 65, 64
4, 1201200, Note_on_c, 2, 65, 75
4, 1201200, Note_on_c, 2, 73, 75
4, 1201435, Note_off_c, 2, 73, 64
4, 1201435, Note_off_c, 2, 65, 64
4, 1202640, Note_on_c, 2, 68, 75
4, 1202640, Note_on_c, 2, 77, 75
4, 1202875, Note_off_c, 2, 77, 64
4, 1202875, Note_off_c, 2, 68, 64
4, 1203120, Note_on_c, 2, 68, 75
4, 1203120, Note_on_c, 2, 77, 75
4, 1203355, Note_off_c, 2, 77, 64
4, 1203355, Note_off_c, 2, 68, 64
4, 1204560, Note_on_c, 2, 67, 75
4, 1204560, Note_on_c, 2, 76, 75
4, 1204960, Note_off_c, 2, 76, 64
4, 1204960, Note_off_c, 2, 67, 64
4, 1205520, Note_on_c, 2, 72, 75
4, 1205520, Note_on_c, 2, 84, 75
4, 1206880, Note_off_c, 2, 84, 64
4, 1206880, Note_off_c, 2, 72, 64
4, 1208400, Note_on_c, 2, 56, 75
4, 1208400, Note_on_c, 2, 68, 75
4, 1208800, Note_off_c, 2, 68, 64
4, 1208800, Note_off_c, 2, 56, 64
4, 1209360, Note_on_c, 2, 68, 75
4, 1209360, Note_on_c, 2, 80, 75
4, 1210720, Note_off_c, 2, 80, 64
4, 1210720, Note_off_c, 2, 68, 64
4, 1212240, Note_on_c, 2, 65, 75
4, 1212240, Note_on_c, 2, 77, 75
4, 1212640, Note_off_c, 2, 77, 64
4, 1212640, Note_off_c, 2, 65, 64
4, 1213200, Note_on_c, 2, 65, 105
4, 1213200, Note_on_c, 2, 77, 105
4, 1214560, Note_off_c, 2, 77, 64
4, 1214560, Note_off_c, 2, 65, 64
4, 1220400, Note_on_c, 2, 68, 127
4, 1220400, Note_on_c, 2, 73, 127
4, 1220635, Note_off_c, 2, 73, 64
4, 1220635, Note_off_c, 2, 68, 64
4, 1228080, Note_on_c, 2, 65, 127
4, 1228080, Note_on_c, 2, 74, 127
4, 1228315, Note_off_c, 2, 74, 64
4, 1228315, Note_off_c, 2, 65, 64
4, 1235760, Note_on_c, 2, 69, 92
4, 1235760, Note_on_c, 2, 72, 92
4, 1235995, Note_off_c, 2, 72, 64
4, 1235995, Note_off_c, 2, 69, 64
4, 1237680, Note_on_c, 2, 69, 92
4, 1237680, Note_on_c, 2, 72, 92
4, 1237915, Note_off_c, 2, 72, 64
4, 1237915, Note_off_c, 2, 69, 64
4, 1239600, Note_on_c, 2, 61, 92
4, 1239600, Note_on_c, 2, 70, 92
4, 1239835, Note_off_c, 2, 70, 64
4, 1239835, Note_off_c, 2, 61, 64
4, 1241520, Note_on_c, 2, 62, 92
4, 1241520, Note_on_c, 2, 71, 92
4, 1241755, Note_off_c, 2, 71, 64
4, 1241755, Note_off_c, 2, 62, 64
4, 1243440, Note_on_c, 2, 63, 127
4, 1243440, Note_on_c, 2, 72, 127
4, 1243675, Note_off_c, 2, 72, 64
4, 1243675, Note_off_c, 2, 63, 64
4, 1244400, Note_on_c, 2, 64, 92
4, 1244400, Note_on_c, 2, 72, 92
4, 1244635, Note_off_c, 2, 72, 64
4, 1244635, Note_off_c, 2, 64, 64
4, 1244880, Note_on_c, 2, 64, 92
4, 1244880, Note_on_c, 2, 73, 92
4, 1245115, Note_off_c, 2, 73, 64
4, 1245115, Note_off_c, 2, 64, 64
4, 1250640, Note_on_c, 2, 73, 30
4, 1256280, Note_off_c, 2, 73, 64
4, 1265520, Note_on_c, 2, 74, 45
4, 1266000, Note_off_c, 2, 74, 64
4, 1266000, Note_on_c, 2, 79, 45
4, 1266480, Note_off_c, 2, 79, 64
4, 1266480, Note_on_c, 2, 78, 45
4, 1267120, Note_off_c, 2, 78, 64
4, 1267440, Note_on_c, 2, 74, 45
4, 1267920, Note_off_c, 2, 74, 64
4, 1267920, Note_on_c, 2, 82, 45
4, 1268400, Note_off_c, 2, 82, 64
4, 1268400, Note_on_c, 2, 81, 45
4, 1269040, Note_off_c, 2, 81, 64
4, 1277040, Note_on_c, 2, 66, 45
4, 1277520, Note_off_c, 2, 66, 64
4, 1277520, Note_on_c, 2, 69, 46
4, 1278360, Note_off_c, 2, 69, 64
4, 1280880, Note_on_c, 2, 66, 55
4, 1281360, Note_off_c, 2, 66, 64
4, 1281360, Note_on_c, 2, 70, 56
4, 1282200, Note_off_c, 2, 70, 64
4, 1284720, Note_on_c, 2, 68, 66
4, 1285200, Note_off_c, 2, 68, 64
4, 1285200, Note_on_c, 2, 71, 67
4, 1286040, Note_off_c, 2, 71, 64
4, 1287120, Note_on_c, 2, 67, 75
4, 1287120, Note_on_c, 2, 79, 75
4, 1287520, Note_off_c, 2, 79, 64
4, 1287520, Note_off_c, 2, 67, 64
4, 1287600, Note_on_c, 2, 67, 75
4, 1287600, Note_on_c, 2, 79, 75
4, 1289440, Note_off_c, 2, 79, 64
4, 1289440, Note_off_c, 2, 67, 64
4, 1289520, Note_on_c, 2, 67, 75
4, 1289520, Note_on_c, 2, 79, 75
4, 1291360, Note_off_c, 2, 79, 64
4, 1291360, Note_off_c, 2, 67, 64
4, 1291440, Note_on_c, 2, 67, 75
4, 1291440, Note_on_c, 2, 79, 75
4, 1292760, Note_off_c, 2, 79, 64
4, 1292760, Note_off_c, 2, 67, 64
4, 1292880, Note_on_c, 2, 68, 75
4, 1292880, Note_on_c, 2, 80, 75
4, 1293280, Note_off_c, 2, 80, 64
4, 1293280, Note_off_c, 2, 68, 64
4, 1293360, Note_on_c, 2, 68, 75
4, 1293360, Note_on_c, 2, 80, 75
4, 1295200, Note_off_c, 2, 80, 64
4, 1295200, Note_off_c, 2, 68, 64
4, 1295280, Note_on_c, 2, 68, 75
4, 1295280, Note_on_c, 2, 80, 75
4, 1297120, Note_off_c, 2, 80, 64
4, 1297120, Note_off_c, 2, 68, 64
4, 1297200, Note_on_c, 2, 68, 75
4, 1297200, Note_on_c, 2, 80, 75
4, 1299040, Note_off_c, 2, 80, 64
4, 1299040, Note_off_c, 2, 68, 64
4, 1299120, Note_on_c, 2, 68, 75
4, 1299120, Note_on_c, 2, 80, 75
4, 1299960, Note_off_c, 2, 80, 64
4, 1299960, Note_off_c, 2, 68, 64
4, 1300080, Note_on_c, 2, 69, 75
4, 1300080, Note_on_c, 2, 81, 75
4, 1300560, Note_off_c, 2, 81, 64
4, 1300560, Note_off_c, 2, 69, 64
4, 1300560, Note_on_c, 2, 70, 75
4, 1300560, Note_on_c, 2, 82, 75
4, 1300960, Note_off_c, 2, 82, 64
4, 1300960, Note_off_c, 2, 70, 64
4, 1301040, Note_on_c, 2, 70, 75
4, 1301040, Note_on_c, 2, 82, 75
4, 1302880, Note_off_c, 2, 82, 64
4, 1302880, Note_off_c, 2, 70, 64
4, 1302960, Note_on_c, 2, 70, 75
4, 1302960, Note_on_c, 2, 82, 75
4, 1304800, Note_off_c, 2, 82, 64
4, 1304800, Note_off_c, 2, 70, 64
4, 1304880, Note_on_c, 2, 70, 75
4, 1304880, Note_on_c, 2, 82, 75
4, 1306720, Note_off_c, 2, 82, 64
4, 1306720, Note_off_c, 2, 70, 64
4, 1306800, Note_on_c, 2, 70, 75
4, 1306800, Note_on_c, 2, 82, 75
4, 1307640, Note_off_c, 2, 82, 64
4, 1307640, Note_off_c, 2, 70, 64
4, 1307760, Note_on_c, 2, 72, 75
4, 1307760, Note_on_c, 2, 84, 75
4, 1308160, Note_off_c, 2, 84, 64
4, 1308160, Note_off_c, 2, 72, 64
4, 1308240, Note_on_c, 2, 77, 75
4, 1308240, Note_on_c, 2, 80, 75
4, 1308880, Note_off_c, 2, 80, 64
4, 1308880, Note_off_c, 2, 77, 64
4, 1308960, Note_on_c, 2, 73, 75
4, 1308960, Note_on_c, 2, 77, 75
4, 1309195, Note_off_c, 2, 77, 64
4, 1309195, Note_off_c, 2, 73, 64
4, 1309200, Note_on_c, 2, 73, 75
4, 1309200, Note_on_c, 2, 77, 75
4, 1310560, Note_off_c, 2, 77, 64
4, 1310560, Note_off_c, 2, 73, 64
4, 1312080, Note_on_c, 2, 73, 75
4, 1312080, Note_on_c, 2, 77, 75
4, 1312720, Note_off_c, 2, 77, 64
4, 1312720, Note_off_c, 2, 73, 64
4, 1312800, Note_on_c, 2, 70, 75
4, 1312800, Note_on_c, 2, 73, 75
4, 1313035, Note_off_c, 2, 73, 64
4, 1313035, Note_off_c, 2, 70, 64
4, 1313040, Note_on_c, 2, 70, 75
4, 1313040, Note_on_c, 2, 73, 75
4, 1314400, Note_off_c, 2, 73, 64
4, 1314400, Note_off_c, 2, 70, 64
4, 1315920, Note_on_c, 2, 70, 75
4, 1315920, Note_on_c, 2, 73, 75
4, 1316560, Note_off_c, 2, 73, 64
4, 1316560, Note_off_c, 2, 70, 64
4, 1316640, Note_on_c, 2, 66, 75
4, 1316640, Note_on_c, 2, 78, 75
4, 1316875, Note_off_c, 2, 78, 64
4, 1316875, Note_off_c, 2, 66, 64
4, 1316880, Note_on_c, 2, 66, 75
4, 1316880, Note_on_c, 2, 78, 75
4, 1317280, Note_off_c, 2, 78, 64
4, 1317280, Note_off_c, 2, 66, 64
4, 1323600, Note_on_c, 2, 70, 60
4, 1323600, Note_on_c, 2, 73, 60
4, 1327320, Note_off_c, 2, 73, 64
4, 1327320, Note_off_c, 2, 70, 64
4, 1327440, Note_on_c, 2, 70, 92
4, 1327440, Note_on_c, 2, 73, 92
4, 1327840, Note_off_c, 2, 73, 64
4, 1327840, Note_off_c, 2, 70, 64
4, 1331280, Note_on_c, 2, 70, 45
4, 1331280, Note_on_c, 2, 73, 45
4, 1335000, Note_off_c, 2, 73, 64
4, 1335000, Note_off_c, 2, 70, 64
4, 1335120, Note_on_c, 2, 70, 92
4, 1335120, Note_on_c, 2, 73, 92
4, 1335520, Note_off_c, 2, 73, 64
4, 1335520, Note_off_c, 2, 70, 64
4, 1337040, Note_on_c, 2, 70, 92
4, 1337040, Note_on_c, 2, 73, 92
4, 1337440, Note_off_c, 2, 73, 64
4, 1337440, Note_off_c, 2, 70, 64
4, 1339440, Note_on_c, 2, 68, 92
4, 1339440, Note_on_c, 2, 77, 92
4, 1339840, Note_off_c, 2, 77, 64
4, 1339840, Note_off_c, 2, 68, 64
4, 1341360, Note_on_c, 2, 68, 92
4, 1341360, Note_on_c, 2, 77, 92
4, 1341760, Note_off_c, 2, 77, 64
4, 1341760, Note_off_c, 2, 68, 64
4, 1342320, Note_on_c, 2, 72, 75
4, 1342320, Note_on_c, 2, 81, 75
4, 1350360, Note_off_c, 2, 81, 64
4, 1350360, Note_off_c, 2, 72, 64
4, 1350480, Note_on_c, 2, 72, 75
4, 1350480, Note_on_c, 2, 81, 75
4, 1352400, Note_off_c, 2, 81, 64
4, 1352400, Note_off_c, 2, 72, 64
4, 1352400, Note_on_c, 2, 69, 105
4, 1352400, Note_on_c, 2, 72, 105
4, 1354200, Note_off_c, 2, 72, 64
4, 1354200, Note_off_c, 2, 69, 64
4, 1354320, Note_on_c, 2, 65, 75
4, 1354320, Note_on_c, 2, 70, 75
4, 1356240, Note_off_c, 2, 70, 64
4, 1356240, Note_off_c, 2, 65, 64
4, 1356240, Note_on_c, 2, 67, 105
4, 1356240, Note_on_c, 2, 70, 105
4, 1358040, Note_off_c, 2, 70, 64
4, 1358040, Note_off_c, 2, 67, 64
4, 1358160, Note_on_c, 2, 60, 75
4, 1358160, Note_on_c, 2, 72, 75
4, 1360080, Note_off_c, 2, 72, 64
4, 1360080, Note_off_c, 2, 60, 64
4, 1360080, Note_on_c, 2, 63, 105
4, 1360080, Note_on_c, 2, 65, 105
4, 1361880, Note_off_c, 2, 65, 64
4, 1361880, Note_off_c, 2, 63, 64
4, 1362000, Note_on_c, 2, 61, 75
4, 1362000, Note_on_c, 2, 65, 75
4, 1363920, Note_off_c, 2, 65, 64
4, 1363920, Note_off_c, 2, 61, 64
4, 1363920, Note_on_c, 2, 64, 105
4, 1363920, Note_on_c, 2, 67, 105
4, 1365720, Note_off_c, 2, 67, 64
4, 1365720, Note_off_c, 2, 64, 64
4, 1365840, Note_on_c, 2, 65, 45
4, 1365840, Note_on_c, 2, 68, 45
4, 1366240, Note_off_c, 2, 68, 64
4, 1366240, Note_off_c, 2, 65, 64
4, 1372080, Note_on_c, 2, 67, 60
4, 1372080, Note_on_c, 2, 79, 60
4, 1373920, Note_off_c, 2, 79, 64
4, 1373920, Note_off_c, 2, 67, 64
4, 1374000, Note_on_c, 2, 67, 60
4, 1374000, Note_on_c, 2, 79, 60
4, 1375840, Note_off_c, 2, 79, 64
4, 1375840, Note_off_c, 2, 67, 64
4, 1375920, Note_on_c, 2, 67, 45
4, 1375920, Note_on_c, 2, 79, 45
4, 1377760, Note_off_c, 2, 79, 64
4, 1377760, Note_off_c, 2, 67, 64
4, 1377840, Note_on_c, 2, 67, 30
4, 1377840, Note_on_c, 2, 79, 30
4, 1379160, Note_off_c, 2, 79, 64
4, 1379160, Note_off_c, 2, 67, 64
4, 1379280, Note_on_c, 2, 68, 30
4, 1379280, Note_on_c, 2, 80, 30
4, 1379680, Note_off_c, 2, 80, 64
4, 1379680, Note_off_c, 2, 68, 64
4, 1379760, Note_on_c, 2, 68, 30
4, 1381600, Note_off_c, 2, 68, 64
4, 1381680, Note_on_c, 2, 68, 30
4, 1383520, Note_off_c, 2, 68, 64
4, 1383600, Note_on_c, 2, 65, 30
4, 1383600, Note_on_c, 2, 68, 30
4, 1385440, Note_off_c, 2, 68, 64
4, 1385440, Note_off_c, 2, 65, 64
4, 1385520, Note_on_c, 2, 65, 30
4, 1385520, Note_on_c, 2, 68, 30
4, 1390680, Note_off_c, 2, 68, 64
4, 1390680, Note_off_c, 2, 65, 64
4, 1390800, Note_on_c, 2, 65, 30
4, 1390800, Note_on_c, 2, 67, 30
4, 1398360, Note_off_c, 2, 67, 64
4, 1398360, Note_off_c, 2, 65, 64
4, 1398480, Note_on_c, 2, 64, 30
4, 1398480, Note_on_c, 2, 67, 30
4, 1398880, Note_off_c, 2, 67, 64
4, 1398880, Note_off_c, 2, 64, 64
4, 1425360, Note_on_c, 2, 60, 30
4, 1425360, Note_on_c, 2, 72, 30
4, 1430040, Note_off_c, 2, 72, 64
4, 1430040, Note_off_c, 2, 60, 64
4, 1436880, Note_on_c, 2, 72, 45
4, 1437600, Note_off_c, 2, 72, 64
4, 1437600, Note_on_c, 2, 67, 45
4, 1437900, Note_off_c, 2, 67, 64
4, 1438080, Note_on_c, 2, 76, 45
4, 1438250, Note_off_c, 2, 76, 64
4, 1438320, Note_on_c, 2, 72, 45
4, 1439040, Note_off_c, 2, 72, 64
4, 1439040, Note_on_c, 2, 67, 45
4, 1439340, Note_off_c, 2, 67, 64
4, 1439520, Note_on_c, 2, 76, 45
4, 1439690, Note_off_c, 2, 76, 64
4, 1439760, Note_on_c, 2, 72, 45
4, 1439930, Note_off_c, 2, 72, 64
4, 1440000, Note_on_c, 2, 67, 45
4, 1440170, Note_off_c, 2, 67, 64
4, 1440240, Note_on_c, 2, 76, 45
4, 1440410, Note_off_c, 2, 76, 64
4, 1440480, Note_on_c, 2, 72, 45
4, 1440650, Note_off_c, 2, 72, 64
4, 1440720, Note_on_c, 2, 67, 45
4, 1440890, Note_off_c, 2, 67, 64
4, 1440960, Note_on_c, 2, 76, 45
4, 1441130, Note_off_c, 2, 76, 64
4, 1441200, Note_on_c, 2, 72, 45
4, 1441370, Note_off_c, 2, 72, 64
4, 1441440, Note_on_c, 2, 67, 45
4, 1441610, Note_off_c, 2, 67, 64
4, 1441680, Note_on_c, 2, 76, 45
4, 1441850, Note_off_c, 2, 76, 64
4, 1441920, Note_on_c, 2, 72, 45
4, 1442090, Note_off_c, 2, 72, 64
4, 1442160, Note_on_c, 2, 67, 45
4, 1442330, Note_off_c, 2, 67, 64
4, 1442400, Note_on_c, 2, 72, 45
4, 1442570, Note_off_c, 2, 72, 64
4, 1442640, Note_on_c, 2, 72, 45
4, 1443595, Note_off_c, 2, 72, 64
4, 1448460, Note_on_c, 2, 69, 30
4, 1448460, Note_on_c, 2, 72, 30
4, 1452780, Note_off_c, 2, 72, 64
4, 1452780, Note_off_c, 2, 69, 64
4, 1452780, Note_on_c, 2, 65, 30
4, 1452780, Note_on_c, 2, 70, 30
4, 1453980, Note_off_c, 2, 70, 64
4, 1453980, Note_off_c, 2, 65, 64
4, 1453980, Note_on_c, 2, 67, 30
4, 1453980, Note_on_c, 2, 70, 30
4, 1454220, Note_off_c, 2, 70, 64
4, 1454220, Note_off_c, 2, 67, 64
4, 1454220, Note_on_c, 2, 67, 30
4, 1454220, Note_on_c, 2, 70, 30
4, 1455660, Note_off_c, 2, 70, 64
4, 1455660, Note_off_c, 2, 67, 64
4, 1455660, Note_on_c, 2, 65, 30
4, 1455660, Note_on_c, 2, 69, 30
4, 1457100, Note_off_c, 2, 69, 64
4, 1457100, Note_on_c, 2, 67, 30
4, 1457820, Note_off_c, 2, 65, 64
4, 1457820, Note_off_c, 2, 67, 64
4, 1457820, Note_on_c, 2, 64, 30
4, 1457820, Note_on_c, 2, 67, 30
4, 1458540, Note_off_c, 2, 67, 64
4, 1458540, Note_off_c, 2, 64, 64
4, 1458540, Note_on_c, 2, 65, 30
4, 1458540, Note_on_c, 2, 69, 30
4, 1459860, Note_off_c, 2, 69, 64
4, 1459860, Note_off_c, 2, 65, 64
4, 1459980, Note_on_c, 2, 57, 30
4, 1459980, Note_on_c, 2, 60, 30
4, 1460215, Note_off_c, 2, 60, 64
4, 1460215, Note_off_c, 2, 57, 64
4, 1460220, Note_on_c, 2, 57, 30
4, 1460220, Note_on_c, 2, 60, 30
4, 1460455, Note_off_c, 2, 60, 64
4, 1460455, Note_off_c, 2, 57, 64
4, 1460460, Note_on_c, 2, 57, 30
4, 1460460, Note_on_c, 2, 60, 30
4, 1460695, Note_off_c, 2, 60, 64
4, 1460695, Note_off_c, 2, 57, 64
4, 1460700, Note_on_c, 2, 57, 30
4, 1460700, Note_on_c, 2, 60, 30
4, 1460935, Note_off_c, 2, 60, 64
4, 1460935, Note_off_c, 2, 57, 64
4, 1460940, Note_on_c, 2, 57, 31
4, 1460940, Note_on_c, 2, 60, 31
4, 1461175, Note_off_c, 2, 60, 64
4, 1461175, Note_off_c, 2, 57, 64
4, 1461180, Note_on_c, 2, 57, 32
4, 1461180, Note_on_c, 2, 60, 32
4, 1461415, Note_off_c, 2, 60, 64
4, 1461415, Note_off_c, 2, 57, 64
4, 1461420, Note_on_c, 2, 57, 32
4, 1461420, Note_on_c, 2, 60, 32
4, 1461655, Note_off_c, 2, 60, 64
4, 1461655, Note_off_c, 2, 57, 64
4, 1461660, Note_on_c, 2, 57, 33
4, 1461660, Note_on_c, 2, 60, 33
4, 1461895, Note_off_c, 2, 60, 64
4, 1461895, Note_off_c, 2, 57, 64
4, 1461900, Note_on_c, 2, 57, 34
4, 1461900, Note_on_c, 2, 60, 34
4, 1462135, Note_off_c, 2, 60, 64
4, 1462135, Note_off_c, 2, 57, 64
4, 1462140, Note_on_c, 2, 57, 35
4, 1462140, Note_on_c, 2, 60, 35
4, 1462375, Note_off_c, 2, 60, 64
4, 1462375, Note_off_c, 2, 57, 64
4, 1462380, Note_on_c, 2, 57, 36
4, 1462380, Note_on_c, 2, 60, 36
4, 1462615, Note_off_c, 2, 60, 64
4, 1462615, Note_off_c, 2, 57, 64
4, 1462620, Note_on_c, 2, 57, 37
4, 1462620, Note_on_c, 2, 60, 37
4, 1462855, Note_off_c, 2, 60, 64
4, 1462855, Note_off_c, 2, 57, 64
4, 1462860, Note_on_c, 2, 57, 38
4, 1462860, Note_on_c, 2, 60, 38
4, 1463095, Note_off_c, 2, 60, 64
4, 1463095, Note_off_c, 2, 57, 64
4, 1463100, Note_on_c, 2, 57, 39
4, 1463100, Note_on_c, 2, 60, 39
4, 1463335, Note_off_c, 2, 60, 64
4, 1463335, Note_off_c, 2, 57, 64
4, 1463340, Note_on_c, 2, 57, 40
4, 1463340, Note_on_c, 2, 60, 40
4, 1463575, Note_off_c, 2, 60, 64
4, 1463575, Note_off_c, 2, 57, 64
4, 1463580, Note_on_c, 2, 57, 41
4, 1463580, Note_on_c, 2, 60, 41
4, 1463815, Note_off_c, 2, 60, 64
4, 1463815, Note_off_c, 2, 57, 64
4, 1463820, Note_on_c, 2, 57, 42
4, 1463820, Note_on_c, 2, 60, 42
4, 1464055, Note_off_c, 2, 60, 64
4, 1464055, Note_off_c, 2, 57, 64
4, 1464060, Note_on_c, 2, 57, 43
4, 1464060, Note_on_c, 2, 60, 43
4, 1464295, Note_off_c, 2, 60, 64
4, 1464295, Note_off_c, 2, 57, 64
4, 1464300, Note_on_c, 2, 58, 44
4, 1464300, Note_on_c, 2, 62, 44
4, 1464535, Note_off_c, 2, 62, 64
4, 1464535, Note_off_c, 2, 58, 64
4, 1464540, Note_on_c, 2, 58, 45
4, 1464540, Note_on_c, 2, 62, 45
4, 1464775, Note_off_c, 2, 62, 64
4, 1464775, Note_off_c, 2, 58, 64
4, 1464780, Note_on_c, 2, 58, 46
4, 1464780, Note_on_c, 2, 62, 46
4, 1465015, Note_off_c, 2, 62, 64
4, 1465015, Note_off_c, 2, 58, 64
4, 1465020, Note_on_c, 2, 58, 47
4, 1465020, Note_on_c, 2, 62, 47
4, 1465255, Note_off_c, 2, 62, 64
4, 1465255, Note_off_c, 2, 58, 64
4, 1465260, Note_on_c, 2, 58, 48
4, 1465260, Note_on_c, 2, 62, 48
4, 1465495, Note_off_c, 2, 62, 64
4, 1465495, Note_off_c, 2, 58, 64
4, 1465500, Note_on_c, 2, 58, 49
4, 1465500, Note_on_c, 2, 60, 49
4, 1465735, Note_off_c, 2, 60, 64
4, 1465735, Note_off_c, 2, 58, 64
4, 1465740, Note_on_c, 2, 58, 50
4, 1465740, Note_on_c, 2, 60, 50
4, 1465975, Note_off_c, 2, 60, 64
4, 1465975, Note_off_c, 2, 58, 64
4, 1465980, Note_on_c, 2, 58, 51
4, 1465980, Note_on_c, 2, 60, 51
4, 1466215, Note_off_c, 2, 60, 64
4, 1466215, Note_off_c, 2, 58, 64
4, 1466220, Note_on_c, 2, 58, 52
4, 1466220, Note_on_c, 2, 60, 52
4, 1466455, Note_off_c, 2, 60, 64
4, 1466455, Note_off_c, 2, 58, 64
4, 1466460, Note_on_c, 2, 58, 53
4, 1466460, Note_on_c, 2, 60, 53
4, 1466695, Note_off_c, 2, 60, 64
4, 1466695, Note_off_c, 2, 58, 64
4, 1466700, Note_on_c, 2, 58, 54
4, 1466700, Note_on_c, 2, 60, 54
4, 1466935, Note_off_c, 2, 60, 64
4, 1466935, Note_off_c, 2, 58, 64
4, 1466940, Note_on_c, 2, 60, 55
4, 1466940, Note_on_c, 2, 64, 55
4, 1467175, Note_off_c, 2, 64, 64
4, 1467175, Note_off_c, 2, 60, 64
4, 1467180, Note_on_c, 2, 60, 56
4, 1467180, Note_on_c, 2, 65, 56
4, 1467415, Note_off_c, 2, 65, 64
4, 1467415, Note_off_c, 2, 60, 64
4, 1467420, Note_on_c, 2, 57, 57
4, 1467420, Note_on_c, 2, 60, 57
4, 1467655, Note_off_c, 2, 60, 64
4, 1467655, Note_off_c, 2, 57, 64
4, 1467660, Note_on_c, 2, 57, 58
4, 1467660, Note_on_c, 2, 60, 58
4, 1467895, Note_off_c, 2, 60, 64
4, 1467895, Note_off_c, 2, 57, 64
4, 1467900, Note_on_c, 2, 57, 59
4, 1467900, Note_on_c, 2, 62, 59
4, 1468135, Note_off_c, 2, 62, 64
4, 1468135, Note_off_c, 2, 57, 64
4, 1468140, Note_on_c, 2, 57, 60
4, 1468140, Note_on_c, 2, 62, 60
4, 1468375, Note_off_c, 2, 62, 64
4, 1468375, Note_off_c, 2, 57, 64
4, 1468380, Note_on_c, 2, 57, 61
4, 1468380, Note_on_c, 2, 60, 61
4, 1468615, Note_off_c, 2, 60, 64
4, 1468615, Note_off_c, 2, 57, 64
4, 1468620, Note_on_c, 2, 55, 62
4, 1468620, Note_on_c, 2, 62, 62
4, 1468855, Note_off_c, 2, 62, 64
4, 1468855, Note_off_c, 2, 55, 64
4, 1468860, Note_on_c, 2, 55, 63
4, 1468860, Note_on_c, 2, 62, 63
4, 1469095, Note_off_c, 2, 62, 64
4, 1469095, Note_off_c, 2, 55, 64
4, 1469100, Note_on_c, 2, 55, 64
4, 1469100, Note_on_c, 2, 62, 64
4, 1469335, Note_off_c, 2, 62, 64
4, 1469335, Note_off_c, 2, 55, 64
4, 1469340, Note_on_c, 2, 55, 65
4, 1469340, Note_on_c, 2, 60, 65
4, 1469575, Note_off_c, 2, 60, 64
4, 1469575, Note_off_c, 2, 55, 64
4, 1469580, Note_on_c, 2, 55, 66
4, 1469580, Note_on_c, 2, 60, 66
4, 1469815, Note_off_c, 2, 60, 64
4, 1469815, Note_off_c, 2, 55, 64
4, 1469820, Note_on_c, 2, 55, 67
4, 1469820, Note_on_c, 2, 60, 67
4, 1470055, Note_off_c, 2, 60, 64
4, 1470055, Note_off_c, 2, 55, 64
4, 1470060, Note_on_c, 2, 57, 68
4, 1470060, Note_on_c, 2, 60, 68
4, 1470295, Note_off_c, 2, 60, 64
4, 1470295, Note_off_c, 2, 57, 64
4, 1470300, Note_on_c, 2, 57, 69
4, 1470300, Note_on_c, 2, 60, 69
4, 1470535, Note_off_c, 2, 60, 64
4, 1470535, Note_off_c, 2, 57, 64
4, 1470540, Note_on_c, 2, 57, 70
4, 1470540, Note_on_c, 2, 60, 70
4, 1470775, Note_off_c, 2, 60, 64
4, 1470775, Note_off_c, 2, 57, 64
4, 1470780, Note_on_c, 2, 57, 71
4, 1470780, Note_on_c, 2, 60, 71
4, 1471015, Note_off_c, 2, 60, 64
4, 1471015, Note_off_c, 2, 57, 64
4, 1471020, Note_on_c, 2, 57, 72
4, 1471020, Note_on_c, 2, 60, 72
4, 1471255, Note_off_c, 2, 60, 64
4, 1471255, Note_off_c, 2, 57, 64
4, 1471260, Note_on_c, 2, 57, 73
4, 1471260, Note_on_c, 2, 60, 73
4, 1471495, Note_off_c, 2, 60, 64
4, 1471495, Note_off_c, 2, 57, 64
4, 1471500, Note_on_c, 2, 69, 75
4, 1472220, Note_off_c, 2, 69, 64
4, 1472220, Note_on_c, 2, 65, 75
4, 1472700, Note_off_c, 2, 65, 64
4, 1472700, Note_on_c, 2, 72, 75
4, 1472870, Note_off_c, 2, 72, 64
4, 1472940, Note_on_c, 2, 69, 75
4, 1473660, Note_off_c, 2, 69, 64
4, 1473660, Note_on_c, 2, 65, 75
4, 1474140, Note_off_c, 2, 65, 64
4, 1474140, Note_on_c, 2, 60, 75
4, 1474310, Note_off_c, 2, 60, 64
4, 1474380, Note_on_c, 2, 65, 75
4, 1474860, Note_off_c, 2, 65, 64
4, 1474860, Note_on_c, 2, 69, 75
4, 1475100, Note_off_c, 2, 69, 64
4, 1475100, Note_on_c, 2, 72, 75
4, 1475580, Note_off_c, 2, 72, 64
4, 1475580, Note_on_c, 2, 69, 75
4, 1475820, Note_off_c, 2, 69, 64
4, 1475820, Note_on_c, 2, 70, 75
4, 1477020, Note_off_c, 2, 70, 64
4, 1477020, Note_on_c, 2, 67, 75
4, 1477190, Note_off_c, 2, 67, 64
4, 1477260, Note_on_c, 2, 70, 75
4, 1477980, Note_off_c, 2, 70, 64
4, 1477980, Note_on_c, 2, 67, 75
4, 1478460, Note_off_c, 2, 67, 64
4, 1478460, Note_on_c, 2, 72, 75
4, 1478630, Note_off_c, 2, 72, 64
4, 1478700, Note_on_c, 2, 69, 75
4, 1479420, Note_off_c, 2, 69, 64
4, 1479420, Note_on_c, 2, 65, 75
4, 1479900, Note_off_c, 2, 65, 64
4, 1479900, Note_on_c, 2, 69, 75
4, 1480070, Note_off_c, 2, 69, 64
4, 1480140, Note_on_c, 2, 67, 75
4, 1480620, Note_off_c, 2, 67, 64
4, 1480620, Note_on_c, 2, 62, 75
4, 1480860, Note_off_c, 2, 62, 64
4, 1480860, Note_on_c, 2, 64, 75
4, 1481340, Note_off_c, 2, 64, 64
4, 1481340, Note_on_c, 2, 60, 75
4, 1481580, Note_off_c, 2, 60, 64
4, 1481580, Note_on_c, 2, 65, 60
4, 1481980, Note_off_c, 2, 65, 64
4, 1484220, Note_on_c, 2, 64, 75
4, 1484220, Note_on_c, 2, 67, 75
4, 1484455, Note_off_c, 2, 67, 64
4, 1484455, Note_off_c, 2, 64, 64
4, 1484460, Note_on_c, 2, 65, 75
4, 1485180, Note_off_c, 2, 65, 64
4, 1485180, Note_on_c, 2, 67, 75
4, 1485900, Note_off_c, 2, 67, 64
4, 1485900, Note_on_c, 2, 65, 75
4, 1485900, Note_on_c, 2, 69, 75
4, 1486540, Note_off_c, 2, 69, 64
4, 1486540, Note_off_c, 2, 65, 64
4, 1486620, Note_on_c, 2, 67, 75
4, 1486620, Note_on_c, 2, 70, 75
4, 1487020, Note_off_c, 2, 70, 64
4, 1487020, Note_off_c, 2, 67, 64
4, 1487100, Note_on_c, 2, 64, 75
4, 1487100, Note_on_c, 2, 67, 75
4, 1487335, Note_off_c, 2, 67, 64
4, 1487335, Note_off_c, 2, 64, 64
4, 1489980, Note_on_c, 2, 64, 75
4, 1489980, Note_on_c, 2, 67, 75
4, 1490215, Note_off_c, 2, 67, 64
4, 1490215, Note_off_c, 2, 64, 64
4, 1490220, Note_on_c, 2, 65, 75
4, 1490940, Note_off_c, 2, 65, 64
4, 1490940, Note_on_c, 2, 67, 75
4, 1491660, Note_off_c, 2, 67, 64
4, 1491660, Note_on_c, 2, 65, 75
4, 1491660, Note_on_c, 2, 69, 75
4, 1492300, Note_off_c, 2, 69, 64
4, 1492300, Note_off_c, 2, 65, 64
4, 1492380, Note_on_c, 2, 64, 75
4, 1492380, Note_on_c, 2, 70, 75
4, 1492780, Note_off_c, 2, 70, 64
4, 1492780, Note_off_c, 2, 64, 64
4, 1492860, Note_on_c, 2, 64, 75
4, 1492860, Note_on_c, 2, 67, 75
4, 1493095, Note_off_c, 2, 67, 64
4, 1493095, Note_off_c, 2, 64, 64
4, 1493100, Note_on_c, 2, 65, 75
4, 1493100, Note_on_c, 2, 72, 75
4, 1493740, Note_off_c, 2, 72, 64
4, 1493740, Note_off_c, 2, 65, 64
4, 1493820, Note_on_c, 2, 67, 75
4, 1493820, Note_on_c, 2, 74, 75
4, 1494220, Note_off_c, 2, 74, 64
4, 1494220, Note_off_c, 2, 67, 64
4, 1494300, Note_on_c, 2, 59, 75
4, 1494300, Note_on_c, 2, 62, 75
4, 1494535, Note_off_c, 2, 62, 64
4, 1494535, Note_off_c, 2, 59, 64
4, 1494540, Note_on_c, 2, 60, 75
4, 1494540, Note_on_c, 2, 64, 75
4, 1495180, Note_off_c, 2, 64, 64
4, 1495180, Note_off_c, 2, 60, 64
4, 1495260, Note_on_c, 2, 62, 75
4, 1495260, Note_on_c, 2, 65, 75
4, 1495660, Note_off_c, 2, 65, 64
4, 1495660, Note_off_c, 2, 62, 64
4, 1495740, Note_on_c, 2, 62, 75
4, 1495740, Note_on_c, 2, 65, 75
4, 1495975, Note_off_c, 2, 65, 64
4, 1495975, Note_off_c, 2, 62, 64
4, 1495980, Note_on_c, 2, 64, 75
4, 1495980, Note_on_c, 2, 67, 75
4, 1497100, Note_off_c, 2, 67, 64
4, 1497100, Note_off_c, 2, 64, 64
4, 1497180, Note_on_c, 2, 60, 75
4, 1497180, Note_on_c, 2, 64, 75
4, 1497415, Note_off_c, 2, 64, 64
4, 1497415, Note_off_c, 2, 60, 64
4, 1497420, Note_on_c, 2, 60, 75
4, 1497420, Note_on_c, 2, 64, 75
4, 1497820, Note_off_c, 2, 64, 64
4, 1497820, Note_off_c, 2, 60, 64
4, 1497900, Note_on_c, 2, 60, 75
4, 1497900, Note_on_c, 2, 64, 75
4, 1498135, Note_off_c, 2, 64, 64
4, 1498135, Note_off_c, 2, 60, 64
4, 1498140, Note_on_c, 2, 60, 75
4, 1498140, Note_on_c, 2, 64, 75
4, 1498540, Note_off_c, 2, 64, 64
4, 1498540, Note_off_c, 2, 60, 64
4, 1498620, Note_on_c, 2, 60, 75
4, 1498620, Note_on_c, 2, 64, 75
4, 1498855, Note_off_c, 2, 64, 64
4, 1498855, Note_off_c, 2, 60, 64
4, 1498860, Note_on_c, 2, 62, 75
4, 1498860, Note_on_c, 2, 65, 75
4, 1499980, Note_off_c, 2, 65, 64
4, 1499980, Note_off_c, 2, 62, 64
4, 1500060, Note_on_c, 2, 59, 75
4, 1500060, Note_on_c, 2, 62, 75
4, 1500295, Note_off_c, 2, 62, 64
4, 1500295, Note_off_c, 2, 59, 64
4, 1500300, Note_on_c, 2, 59, 75
4, 1500300, Note_on_c, 2, 62, 75
4, 1500700, Note_off_c, 2, 62, 64
4, 1500700, Note_off_c, 2, 59, 64
4, 1500780, Note_on_c, 2, 59, 75
4, 1500780, Note_on_c, 2, 62, 75
4, 1501015, Note_off_c, 2, 62, 64
4, 1501015, Note_off_c, 2, 59, 64
4, 1501020, Note_on_c, 2, 59, 75
4, 1501020, Note_on_c, 2, 62, 75
4, 1501420, Note_off_c, 2, 62, 64
4, 1501420, Note_off_c, 2, 59, 64
4, 1501500, Note_on_c, 2, 59, 75
4, 1501500, Note_on_c, 2, 62, 75
4, 1501735, Note_off_c, 2, 62, 64
4, 1501735, Note_off_c, 2, 59, 64
4, 1501740, Note_on_c, 2, 64, 75
4, 1501740, Note_on_c, 2, 67, 75
4, 1502140, Note_off_c, 2, 67, 64
4, 1502140, Note_off_c, 2, 64, 64
4, 1502220, Note_on_c, 2, 64, 75
4, 1502220, Note_on_c, 2, 67, 75
4, 1502455, Note_off_c, 2, 67, 64
4, 1502455, Note_off_c, 2, 64, 64
4, 1502460, Note_on_c, 2, 64, 75
4, 1502460, Note_on_c, 2, 67, 75
4, 1502860, Note_off_c, 2, 67, 64
4, 1502860, Note_off_c, 2, 64, 64
4, 1502940, Note_on_c, 2, 64, 75
4, 1502940, Note_on_c, 2, 67, 75
4, 1503175, Note_off_c, 2, 67, 64
4, 1503175, Note_off_c, 2, 64, 64
4, 1503180, Note_on_c, 2, 64, 75
4, 1503180, Note_on_c, 2, 67, 75
4, 1503580, Note_off_c, 2, 67, 64
4, 1503580, Note_off_c, 2, 64, 64
4, 1503660, Note_on_c, 2, 60, 75
4, 1503660, Note_on_c, 2, 64, 75
4, 1503895, Note_off_c, 2, 64, 64
4, 1503895, Note_off_c, 2, 60, 64
4, 1503900, Note_on_c, 2, 60, 75
4, 1503900, Note_on_c, 2, 64, 75
4, 1504300, Note_off_c, 2, 64, 64
4, 1504300, Note_off_c, 2, 60, 64
4, 1504380, Note_on_c, 2, 60, 75
4, 1504380, Note_on_c, 2, 64, 75
4, 1504615, Note_off_c, 2, 64, 64
4, 1504615, Note_off_c, 2, 60, 64
4, 1504620, Note_on_c, 2, 62, 75
4, 1504620, Note_on_c, 2, 65, 75
4, 1505020, Note_off_c, 2, 65, 64
4, 1505020, Note_off_c, 2, 62, 64
4, 1505100, Note_on_c, 2, 62, 75
4, 1505100, Note_on_c, 2, 65, 75
4, 1505335, Note_off_c, 2, 65, 64
4, 1505335, Note_off_c, 2, 62, 64
4, 1505340, Note_on_c, 2, 62, 75
4, 1505340, Note_on_c, 2, 65, 75
4, 1505740, Note_off_c, 2, 65, 64
4, 1505740, Note_off_c, 2, 62, 64
4, 1505820, Note_on_c, 2, 62, 75
4, 1505820, Note_on_c, 2, 65, 75
4, 1506055, Note_off_c, 2, 65, 64
4, 1506055, Note_off_c, 2, 62, 64
4, 1506060, Note_on_c, 2, 62, 75
4, 1506060, Note_on_c, 2, 65, 75
4, 1506460, Note_off_c, 2, 65, 64
4, 1506460, Note_off_c, 2, 62, 64
4, 1506540, Note_on_c, 2, 59, 75
4, 1506540, Note_on_c, 2, 62, 75
4, 1506775, Note_off_c, 2, 62, 64
4, 1506775, Note_off_c, 2, 59, 64
4, 1506780, Note_on_c, 2, 59, 75
4, 1506780, Note_on_c, 2, 62, 75
4, 1507180, Note_off_c, 2, 62, 64
4, 1507180, Note_off_c, 2, 59, 64
4, 1507260, Note_on_c, 2, 59, 75
4, 1507260, Note_on_c, 2, 62, 75
4, 1507495, Note_off_c, 2, 62, 64
4, 1507495, Note_off_c, 2, 59, 64
4, 1507500, Note_on_c, 2, 60, 75
4, 1507500, Note_on_c, 2, 64, 75
4, 1507900, Note_off_c, 2, 64, 64
4, 1507900, Note_off_c, 2, 60, 64
4, 1509420, Note_on_c, 2, 60, 75
4, 1509420, Note_on_c, 2, 72, 75
4, 1509660, Note_off_c, 2, 72, 64
4, 1509660, Note_off_c, 2, 60, 64
4, 1509660, Note_on_c, 2, 62, 75
4, 1509660, Note_on_c, 2, 71, 75
4, 1510060, Note_off_c, 2, 71, 64
4, 1510060, Note_off_c, 2, 62, 64
4, 1510140, Note_on_c, 2, 62, 75
4, 1510140, Note_on_c, 2, 71, 75
4, 1510380, Note_off_c, 2, 71, 64
4, 1510380, Note_off_c, 2, 62, 64
4, 1510380, Note_on_c, 2, 64, 75
4, 1510380, Note_on_c, 2, 72, 75
4, 1510615, Note_off_c, 2, 72, 64
4, 1510615, Note_off_c, 2, 64, 64
4, 1512300, Note_on_c, 2, 64, 60
4, 1512300, Note_on_c, 2, 72, 60
4, 1512540, Note_off_c, 2, 72, 64
4, 1512540, Note_off_c, 2, 64, 64
4, 1512540, Note_on_c, 2, 62, 63
4, 1512540, Note_on_c, 2, 71, 63
4, 1512940, Note_off_c, 2, 71, 64
4, 1512940, Note_off_c, 2, 62, 64
4, 1513020, Note_on_c, 2, 62, 71
4, 1513020, Note_on_c, 2, 71, 71
4, 1513100, Note_off_c, 2, 71, 64
4, 1513100, Note_off_c, 2, 62, 64
4, 1513260, Note_on_c, 2, 72, 75
4, 1513980, Note_off_c, 2, 72, 64
4, 1513980, Note_on_c, 2, 67, 75
4, 1514215, Note_off_c, 2, 67, 64
4, 1514460, Note_on_c, 2, 76, 75
4, 1514540, Note_off_c, 2, 76, 64
4, 1514700, Note_on_c, 2, 74, 75
4, 1515420, Note_off_c, 2, 74, 64
4, 1515420, Note_on_c, 2, 69, 75
4, 1515655, Note_off_c, 2, 69, 64
4, 1515900, Note_on_c, 2, 77, 75
4, 1515980, Note_off_c, 2, 77, 64
4, 1516140, Note_on_c, 2, 72, 45
4, 1516375, Note_off_c, 2, 72, 64
4, 1522620, Note_on_c, 2, 72, 60
4, 1522790, Note_off_c, 2, 72, 64
4, 1522860, Note_on_c, 2, 67, 60
4, 1523030, Note_off_c, 2, 67, 64
4, 1523100, Note_on_c, 2, 76, 60
4, 1523270, Note_off_c, 2, 76, 64
4, 1523340, Note_on_c, 2, 72, 60
4, 1523510, Note_off_c, 2, 72, 64
4, 1523580, Note_on_c, 2, 67, 60
4, 1523750, Note_off_c, 2, 67, 64
4, 1523820, Note_on_c, 2, 76, 60
4, 1523990, Note_off_c, 2, 76, 64
4, 1524060, Note_on_c, 2, 72, 60
4, 1524230, Note_off_c, 2, 72, 64
4, 1524300, Note_on_c, 2, 67, 60
4, 1524470, Note_off_c, 2, 67, 64
4, 1524540, Note_on_c, 2, 72, 60
4, 1524710, Note_off_c, 2, 72, 64
4, 1524780, Note_on_c, 2, 72, 45
4, 1527660, Note_off_c, 2, 72, 64
4, 1527660, Note_on_c, 2, 65, 45
4, 1527660, Note_on_c, 2, 69, 45
4, 1531980, Note_off_c, 2, 69, 64
4, 1531980, Note_off_c, 2, 65, 64
4, 1531980, Note_on_c, 2, 65, 45
4, 1531980, Note_on_c, 2, 70, 45
4, 1533180, Note_off_c, 2, 70, 64
4, 1533180, Note_off_c, 2, 65, 64
4, 1533180, Note_on_c, 2, 67, 45
4, 1533180, Note_on_c, 2, 70, 45
4, 1533420, Note_off_c, 2, 70, 64
4, 1533420, Note_off_c, 2, 67, 64
4, 1533420, Note_on_c, 2, 67, 45
4, 1533420, Note_on_c, 2, 70, 45
4, 1534860, Note_off_c, 2, 70, 64
4, 1534860, Note_off_c, 2, 67, 64
4, 1534860, Note_on_c, 2, 65, 45
4, 1534860, Note_on_c, 2, 69, 45
4, 1536300, Note_off_c, 2, 69, 64
4, 1536300, Note_on_c, 2, 67, 45
4, 1537020, Note_off_c, 2, 65, 64
4, 1537020, Note_off_c, 2, 67, 64
4, 1537020, Note_on_c, 2, 64, 45
4, 1537020, Note_on_c, 2, 67, 45
4, 1537740, Note_off_c, 2, 67, 64
4, 1537740, Note_off_c, 2, 64, 64
4, 1537740, Note_on_c, 2, 65, 45
4, 1537740, Note_on_c, 2, 69, 45
4, 1539060, Note_off_c, 2, 69, 64
4, 1539060, Note_off_c, 2, 65, 64
4, 1539180, Note_on_c, 2, 57, 45
4, 1539180, Note_on_c, 2, 60, 45
4, 1539415, Note_off_c, 2, 60, 64
4, 1539415, Note_off_c, 2, 57, 64
4, 1539420, Note_on_c, 2, 57, 45
4, 1539420, Note_on_c, 2, 60, 45
4, 1539655, Note_off_c, 2, 60, 64
4, 1539655, Note_off_c, 2, 57, 64
4, 1539660, Note_on_c, 2, 57, 45
4, 1539660, Note_on_c, 2, 60, 45
4, 1539895, Note_off_c, 2, 60, 64
4, 1539895, Note_off_c, 2, 57, 64
4, 1539900, Note_on_c, 2, 57, 45
4, 1539900, Note_on_c, 2, 60, 45
4, 1540135, Note_off_c, 2, 60, 64
4, 1540135, Note_off_c, 2, 57, 64
4, 1540140, Note_on_c, 2, 57, 45
4, 1540140, Note_on_c, 2, 60, 45
4, 1540375, Note_off_c, 2, 60, 64
4, 1540375, Note_off_c, 2, 57, 64
4, 1540380, Note_on_c, 2, 57, 45
4, 1540380, Note_on_c, 2, 60, 45
4, 1540615, Note_off_c, 2, 60, 64
4, 1540615, Note_off_c, 2, 57, 64
4, 1540620, Note_on_c, 2, 57, 46
4, 1540620, Note_on_c, 2, 60, 46
4, 1540855, Note_off_c, 2, 60, 64
4, 1540855, Note_off_c, 2, 57, 64
4, 1540860, Note_on_c, 2, 57, 46
4, 1540860, Note_on_c, 2, 60, 46
4, 1541095, Note_off_c, 2, 60, 64
4, 1541095, Note_off_c, 2, 57, 64
4, 1541100, Note_on_c, 2, 57, 47
4, 1541100, Note_on_c, 2, 60, 47
4, 1541335, Note_off_c, 2, 60, 64
4, 1541335, Note_off_c, 2, 57, 64
4, 1541340, Note_on_c, 2, 57, 48
4, 1541340, Note_on_c, 2, 60, 48
4, 1541575, Note_off_c, 2, 60, 64
4, 1541575, Note_off_c, 2, 57, 64
4, 1541580, Note_on_c, 2, 57, 49
4, 1541580, Note_on_c, 2, 60, 49
4, 1541815, Note_off_c, 2, 60, 64
4, 1541815, Note_off_c, 2, 57, 64
4, 1541820, Note_on_c, 2, 57, 50
4, 1541820, Note_on_c, 2, 60, 50
4, 1542055, Note_off_c, 2, 60, 64
4, 1542055, Note_off_c, 2, 57, 64
4, 1542060, Note_on_c, 2, 57, 51
4, 1542060, Note_on_c, 2, 60, 51
4, 1542295, Note_off_c, 2, 60, 64
4, 1542295, Note_off_c, 2, 57, 64
4, 1542300, Note_on_c, 2, 57, 52
4, 1542300, Note_on_c, 2, 60, 52
4, 1542535, Note_off_c, 2, 60, 64
4, 1542535, Note_off_c, 2, 57, 64
4, 1542540, Note_on_c, 2, 57, 53
4, 1542540, Note_on_c, 2, 60, 53
4, 1542775, Note_off_c, 2, 60, 64
4, 1542775, Note_off_c, 2, 57, 64
4, 1542780, Note_on_c, 2, 57, 54
4, 1542780, Note_on_c, 2, 60, 54
4, 1543015, Note_off_c, 2, 60, 64
4, 1543015, Note_off_c, 2, 57, 64
4, 1543020, Note_on_c, 2, 57, 55
4, 1543020, Note_on_c, 2, 60, 55
4, 1543255, Note_off_c, 2, 60, 64
4, 1543255, Note_off_c, 2, 57, 64
4, 1543260, Note_on_c, 2, 57, 56
4, 1543260, Note_on_c, 2, 60, 56
4, 1543495, Note_off_c, 2, 60, 64
4, 1543495, Note_off_c, 2, 57, 64
4, 1543500, Note_on_c, 2, 57, 57
4, 1543500, Note_on_c, 2, 60, 57
4, 1543735, Note_off_c, 2, 60, 64
4, 1543735, Note_off_c, 2, 57, 64
4, 1543740, Note_on_c, 2, 57, 58
4, 1543740, Note_on_c, 2, 60, 58
4, 1543975, Note_off_c, 2, 60, 64
4, 1543975, Note_off_c, 2, 57, 64
4, 1543980, Note_on_c, 2, 57, 59
4, 1543980, Note_on_c, 2, 60, 59
4, 1544215, Note_off_c, 2, 60, 64
4, 1544215, Note_off_c, 2, 57, 64
4, 1544220, Note_on_c, 2, 57, 60
4, 1544220, Note_on_c, 2, 60, 60
4, 1544455, Note_off_c, 2, 60, 64
4, 1544455, Note_off_c, 2, 57, 64
4, 1544460, Note_on_c, 2, 57, 61
4, 1544460, Note_on_c, 2, 60, 61
4, 1544695, Note_off_c, 2, 60, 64
4, 1544695, Note_off_c, 2, 57, 64
4, 1544700, Note_on_c, 2, 57, 62
4, 1544700, Note_on_c, 2, 60, 62
4, 1544935, Note_off_c, 2, 60, 64
4, 1544935, Note_off_c, 2, 57, 64
4, 1544940, Note_on_c, 2, 57, 63
4, 1544940, Note_on_c, 2, 60, 63
4, 1545175, Note_off_c, 2, 60, 64
4, 1545175, Note_off_c, 2, 57, 64
4, 1545180, Note_on_c, 2, 57, 64
4, 1545180, Note_on_c, 2, 60, 64
4, 1545415, Note_off_c, 2, 60, 64
4, 1545415, Note_off_c, 2, 57, 64
4, 1545420, Note_on_c, 2, 57, 65
4, 1545420, Note_on_c, 2, 60, 65
4, 1545655, Note_off_c, 2, 60, 64
4, 1545655, Note_off_c, 2, 57, 64
4, 1545660, Note_on_c, 2, 57, 66
4, 1545660, Note_on_c, 2, 60, 66
4, 1545895, Note_off_c, 2, 60, 64
4, 1545895, Note_off_c, 2, 57, 64
4, 1545900, Note_on_c, 2, 57, 67
4, 1545900, Note_on_c, 2, 60, 67
4, 1546135, Note_off_c, 2, 60, 64
4, 1546135, Note_off_c, 2, 57, 64
4, 1546140, Note_on_c, 2, 57, 68
4, 1546140, Note_on_c, 2, 60, 68
4, 1546375, Note_off_c, 2, 60, 64
4, 1546375, Note_off_c, 2, 57, 64
4, 1546380, Note_on_c, 2, 57, 69
4, 1546380, Note_on_c, 2, 60, 69
4, 1546615, Note_off_c, 2, 60, 64
4, 1546615, Note_off_c, 2, 57, 64
4, 1546620, Note_on_c, 2, 57, 70
4, 1546620, Note_on_c, 2, 60, 70
4, 1546855, Note_off_c, 2, 60, 64
4, 1546855, Note_off_c, 2, 57, 64
4, 1546860, Note_on_c, 2, 57, 71
4, 1546860, Note_on_c, 2, 60, 71
4, 1547095, Note_off_c, 2, 60, 64
4, 1547095, Note_off_c, 2, 57, 64
4, 1547100, Note_on_c, 2, 57, 72
4, 1547100, Note_on_c, 2, 60, 72
4, 1547335, Note_off_c, 2, 60, 64
4, 1547335, Note_off_c, 2, 57, 64
4, 1547340, Note_on_c, 2, 57, 73
4, 1547340, Note_on_c, 2, 60, 73
4, 1547575, Note_off_c, 2, 60, 64
4, 1547575, Note_off_c, 2, 57, 64
4, 1547580, Note_on_c, 2, 69, 75
4, 1547580, Note_on_c, 2, 72, 75
4, 1547815, Note_off_c, 2, 72, 64
4, 1547815, Note_off_c, 2, 69, 64
4, 1547820, Note_on_c, 2, 69, 75
4, 1547820, Note_on_c, 2, 72, 75
4, 1548220, Note_off_c, 2, 72, 64
4, 1548220, Note_off_c, 2, 69, 64
4, 1548300, Note_on_c, 2, 69, 75
4, 1548300, Note_on_c, 2, 72, 75
4, 1548535, Note_off_c, 2, 72, 64
4, 1548535, Note_off_c, 2, 69, 64
4, 1548540, Note_on_c, 2, 69, 75
4, 1548540, Note_on_c, 2, 72, 75
4, 1548940, Note_off_c, 2, 72, 64
4, 1548940, Note_off_c, 2, 69, 64
4, 1549020, Note_on_c, 2, 69, 75
4, 1549020, Note_on_c, 2, 72, 75
4, 1549255, Note_off_c, 2, 72, 64
4, 1549255, Note_off_c, 2, 69, 64
4, 1549260, Note_on_c, 2, 69, 75
4, 1549260, Note_on_c, 2, 72, 75
4, 1549660, Note_off_c, 2, 72, 64
4, 1549660, Note_off_c, 2, 69, 64
4, 1549740, Note_on_c, 2, 69, 75
4, 1549740, Note_on_c, 2, 72, 75
4, 1549975, Note_off_c, 2, 72, 64
4, 1549975, Note_off_c, 2, 69, 64
4, 1549980, Note_on_c, 2, 69, 75
4, 1549980, Note_on_c, 2, 72, 75
4, 1550380, Note_off_c, 2, 72, 64
4, 1550380, Note_off_c, 2, 69, 64
4, 1550460, Note_on_c, 2, 69, 75
4, 1550460, Note_on_c, 2, 77, 75
4, 1550695, Note_off_c, 2, 77, 64
4, 1550695, Note_off_c, 2, 69, 64
4, 1550700, Note_on_c, 2, 65, 75
4, 1550700, Note_on_c, 2, 74, 75
4, 1551900, Note_off_c, 2, 74, 64
4, 1551900, Note_off_c, 2, 65, 64
4, 1551900, Note_on_c, 2, 63, 75
4, 1551900, Note_on_c, 2, 72, 75
4, 1552140, Note_off_c, 2, 72, 64
4, 1552140, Note_off_c, 2, 63, 64
4, 1552140, Note_on_c, 2, 62, 75
4, 1552140, Note_on_c, 2, 70, 75
4, 1552620, Note_off_c, 2, 70, 64
4, 1552620, Note_off_c, 2, 62, 64
4, 1552620, Note_on_c, 2, 63, 75
4, 1552620, Note_on_c, 2, 72, 75
4, 1552860, Note_off_c, 2, 72, 64
4, 1552860, Note_off_c, 2, 63, 64
4, 1552860, Note_on_c, 2, 65, 75
4, 1552860, Note_on_c, 2, 74, 75
4, 1553340, Note_off_c, 2, 74, 64
4, 1553340, Note_off_c, 2, 65, 64
4, 1553340, Note_on_c, 2, 62, 75
4, 1553340, Note_on_c, 2, 70, 75
4, 1553575, Note_off_c, 2, 70, 64
4, 1553575, Note_off_c, 2, 62, 64
4, 1553580, Note_on_c, 2, 63, 75
4, 1553580, Note_on_c, 2, 70, 75
4, 1554060, Note_off_c, 2, 70, 64
4, 1554060, Note_off_c, 2, 63, 64
4, 1554060, Note_on_c, 2, 69, 75
4, 1554300, Note_off_c, 2, 69, 64
4, 1554300, Note_on_c, 2, 65, 75
4, 1554300, Note_on_c, 2, 69, 75
4, 1554780, Note_off_c, 2, 69, 64
4, 1554780, Note_off_c, 2, 65, 64
4, 1554780, Note_on_c, 2, 67, 75
4, 1554780, Note_on_c, 2, 71, 75
4, 1555020, Note_off_c, 2, 71, 64
4, 1555020, Note_off_c, 2, 67, 64
4, 1555020, Note_on_c, 2, 71, 75
4, 1555020, Note_on_c, 2, 74, 75
4, 1555080, Note_off_c, 2, 74, 64
4, 1555080, Note_off_c, 2, 71, 64
4, 1555080, Note_on_c, 2, 69, 75
4, 1555080, Note_on_c, 2, 72, 75
4, 1555500, Note_off_c, 2, 72, 64
4, 1555500, Note_off_c, 2, 69, 64
4, 1555500, Note_on_c, 2, 67, 75
4, 1555500, Note_on_c, 2, 71, 75
4, 1555740, Note_off_c, 2, 71, 64
4, 1555740, Note_off_c, 2, 67, 64
4, 1555740, Note_on_c, 2, 69, 75
4, 1555740, Note_on_c, 2, 72, 75
4, 1556220, Note_off_c, 2, 72, 64
4, 1556220, Note_off_c, 2, 69, 64
4, 1556220, Note_on_c, 2, 71, 75
4, 1556220, Note_on_c, 2, 74, 75
4, 1556455, Note_off_c, 2, 74, 64
4, 1556455, Note_off_c, 2, 71, 64
4, 1556460, Note_on_c, 2, 71, 75
4, 1556460, Note_on_c, 2, 74, 75
4, 1556940, Note_off_c, 2, 74, 64
4, 1556940, Note_off_c, 2, 71, 64
4, 1556940, Note_on_c, 2, 72, 75
4, 1556940, Note_on_c, 2, 75, 75
4, 1557175, Note_off_c, 2, 75, 64
4, 1557175, Note_off_c, 2, 72, 64
4, 1557180, Note_on_c, 2, 72, 75
4, 1557180, Note_on_c, 2, 75, 75
4, 1557660, Note_off_c, 2, 75, 64
4, 1557660, Note_off_c, 2, 72, 64
4, 1557660, Note_on_c, 2, 70, 75
4, 1557660, Note_on_c, 2, 74, 75
4, 1557900, Note_off_c, 2, 74, 64
4, 1557900, Note_off_c, 2, 70, 64
4, 1557900, Note_on_c, 2, 69, 75
4, 1557900, Note_on_c, 2, 72, 75
4, 1558380, Note_off_c, 2, 72, 64
4, 1558380, Note_off_c, 2, 69, 64
4, 1558380, Note_on_c, 2, 70, 75
4, 1558380, Note_on_c, 2, 74, 75
4, 1558620, Note_off_c, 2, 74, 64
4, 1558620, Note_off_c, 2, 70, 64
4, 1558620, Note_on_c, 2, 72, 75
4, 1558620, Note_on_c, 2, 75, 75
4, 1559100, Note_off_c, 2, 75, 64
4, 1559100, Note_off_c, 2, 72, 64
4, 1559100, Note_on_c, 2, 69, 75
4, 1559100, Note_on_c, 2, 77, 75
4, 1559340, Note_off_c, 2, 77, 64
4, 1559340, Note_off_c, 2, 69, 64
4, 1559340, Note_on_c, 2, 70, 75
4, 1559340, Note_on_c, 2, 74, 75
4, 1559740, Note_off_c, 2, 74, 64
4, 1559740, Note_off_c, 2, 70, 64
4, 1559820, Note_on_c, 2, 70, 75
4, 1559820, Note_on_c, 2, 74, 75
4, 1560060, Note_off_c, 2, 74, 64
4, 1560060, Note_off_c, 2, 70, 64
4, 1560060, Note_on_c, 2, 72, 75
4, 1560060, Note_on_c, 2, 75, 75
4, 1560540, Note_off_c, 2, 75, 64
4, 1560540, Note_off_c, 2, 72, 64
4, 1560540, Note_on_c, 2, 74, 75
4, 1560540, Note_on_c, 2, 77, 75
4, 1560780, Note_off_c, 2, 77, 64
4, 1560780, Note_off_c, 2, 74, 64
4, 1560780, Note_on_c, 2, 75, 75
4, 1560780, Note_on_c, 2, 79, 75
4, 1561180, Note_off_c, 2, 79, 64
4, 1561180, Note_off_c, 2, 75, 64
4, 1561260, Note_on_c, 2, 75, 75
4, 1561260, Note_on_c, 2, 79, 75
4, 1561500, Note_off_c, 2, 79, 64
4, 1561500, Note_off_c, 2, 75, 64
4, 1561500, Note_on_c, 2, 79, 75
4, 1561500, Note_on_c, 2, 82, 75
4, 1561980, Note_off_c, 2, 82, 64
4, 1561980, Note_off_c, 2, 79, 64
4, 1561980, Note_on_c, 2, 75, 75
4, 1561980, Note_on_c, 2, 79, 75
4, 1562215, Note_off_c, 2, 79, 64
4, 1562215, Note_off_c, 2, 75, 64
4, 1562220, Note_on_c, 2, 74, 75
4, 1562220, Note_on_c, 2, 77, 75
4, 1562620, Note_off_c, 2, 77, 64
4, 1562620, Note_off_c, 2, 74, 64
4, 1562700, Note_on_c, 2, 74, 75
4, 1562700, Note_on_c, 2, 77, 75
4, 1562940, Note_off_c, 2, 77, 64
4, 1562940, Note_off_c, 2, 74, 64
4, 1562940, Note_on_c, 2, 77, 75
4, 1562940, Note_on_c, 2, 82, 75
4, 1563420, Note_off_c, 2, 82, 64
4, 1563420, Note_off_c, 2, 77, 64
4, 1563420, Note_on_c, 2, 74, 75
4, 1563420, Note_on_c, 2, 77, 75
4, 1563655, Note_off_c, 2, 77, 64
4, 1563655, Note_off_c, 2, 74, 64
4, 1563660, Note_on_c, 2, 72, 75
4, 1563660, Note_on_c, 2, 75, 75
4, 1564060, Note_off_c, 2, 75, 64
4, 1564060, Note_off_c, 2, 72, 64
4, 1564140, Note_on_c, 2, 72, 75
4, 1564140, Note_on_c, 2, 75, 75
4, 1564380, Note_off_c, 2, 75, 64
4, 1564380, Note_off_c, 2, 72, 64
4, 1564380, Note_on_c, 2, 74, 75
4, 1564380, Note_on_c, 2, 77, 75
4, 1564860, Note_off_c, 2, 77, 64
4, 1564860, Note_off_c, 2, 74, 64
4, 1564860, Note_on_c, 2, 72, 75
4, 1564860, Note_on_c, 2, 75, 75
4, 1565100, Note_off_c, 2, 75, 64
4, 1565100, Note_off_c, 2, 72, 64
4, 1565100, Note_on_c, 2, 70, 75
4, 1565100, Note_on_c, 2, 74, 75
4, 1565500, Note_off_c, 2, 74, 64
4, 1565500, Note_off_c, 2, 70, 64
4, 1565580, Note_on_c, 2, 70, 75
4, 1565580, Note_on_c, 2, 74, 75
4, 1565820, Note_off_c, 2, 74, 64
4, 1565820, Note_off_c, 2, 70, 64
4, 1565820, Note_on_c, 2, 72, 75
4, 1565820, Note_on_c, 2, 75, 75
4, 1566300, Note_off_c, 2, 75, 64
4, 1566300, Note_off_c, 2, 72, 64
4, 1566300, Note_on_c, 2, 74, 75
4, 1566300, Note_on_c, 2, 77, 75
4, 1566535, Note_off_c, 2, 77, 64
4, 1566535, Note_off_c, 2, 74, 64
4, 1566540, Note_on_c, 2, 75, 75
4, 1566540, Note_on_c, 2, 79, 75
4, 1567660, Note_off_c, 2, 79, 64
4, 1567660, Note_off_c, 2, 75, 64
4, 1567740, Note_on_c, 2, 75, 75
4, 1567740, Note_on_c, 2, 79, 75
4, 1567980, Note_off_c, 2, 79, 64
4, 1567980, Note_off_c, 2, 75, 64
4, 1567980, Note_on_c, 2, 74, 75
4, 1567980, Note_on_c, 2, 77, 75
4, 1569100, Note_off_c, 2, 77, 64
4, 1569100, Note_off_c, 2, 74, 64
4, 1569180, Note_on_c, 2, 74, 75
4, 1569180, Note_on_c, 2, 77, 75
4, 1569415, Note_off_c, 2, 77, 64
4, 1569415, Note_off_c, 2, 74, 64
4, 1569420, Note_on_c, 2, 70, 60
4, 1569420, Note_on_c, 2, 76, 60
4, 1570540, Note_off_c, 2, 76, 64
4, 1570540, Note_off_c, 2, 70, 64
4, 1570620, Note_on_c, 2, 70, 60
4, 1570620, Note_on_c, 2, 76, 60
4, 1570860, Note_off_c, 2, 76, 64
4, 1570860, Note_off_c, 2, 70, 64
4, 1570860, Note_on_c, 2, 73, 60
4, 1570860, Note_on_c, 2, 77, 60
4, 1571340, Note_off_c, 2, 77, 64
4, 1571340, Note_off_c, 2, 73, 64
4, 1571340, Note_on_c, 2, 73, 60
4, 1571340, Note_on_c, 2, 77, 60
4, 1571580, Note_off_c, 2, 77, 64
4, 1571580, Note_off_c, 2, 73, 64
4, 1571580, Note_on_c, 2, 75, 60
4, 1571580, Note_on_c, 2, 78, 60
4, 1572060, Note_off_c, 2, 78, 64
4, 1572060, Note_off_c, 2, 75, 64
4, 1572060, Note_on_c, 2, 75, 60
4, 1572060, Note_on_c, 2, 78, 60
4, 1572295, Note_off_c, 2, 78, 64
4, 1572295, Note_off_c, 2, 75, 64
4, 1572300, Note_on_c, 2, 73, 30
4, 1572300, Note_on_c, 2, 77, 30
4, 1573740, Note_off_c, 2, 73, 64
4, 1573740, Note_on_c, 2, 75, 30
4, 1575180, Note_off_c, 2, 75, 64
4, 1575180, Note_on_c, 2, 73, 30
4, 1576620, Note_off_c, 2, 73, 64
4, 1576620, Note_on_c, 2, 68, 30
4, 1577340, Note_off_c, 2, 68, 64
4, 1577340, Note_on_c, 2, 67, 30
4, 1577940, Note_off_c, 2, 77, 64
4, 1578060, Note_off_c, 2, 67, 64
4, 1578060, Note_on_c, 2, 67, 30
4, 1578060, Note_on_c, 2, 76, 30
4, 1578460, Note_off_c, 2, 76, 64
4, 1578460, Note_off_c, 2, 67, 64
4, 1580700, Note_on_c, 2, 74, 75
4, 1580700, Note_on_c, 2, 77, 75
4, 1580935, Note_off_c, 2, 77, 64
4, 1580935, Note_off_c, 2, 74, 64
4, 1580940, Note_on_c, 2, 71, 75
4, 1580940, Note_on_c, 2, 74, 75
4, 1581895, Note_off_c, 2, 74, 64
4, 1581895, Note_off_c, 2, 71, 64
4, 1582140, Note_on_c, 2, 71, 75
4, 1582140, Note_on_c, 2, 74, 75
4, 1582375, Note_off_c, 2, 74, 64
4, 1582375, Note_off_c, 2, 71, 64
4, 1582380, Note_on_c, 2, 72, 75
4, 1582380, Note_on_c, 2, 76, 75
4, 1583335, Note_off_c, 2, 76, 64
4, 1583335, Note_off_c, 2, 72, 64
4, 1583580, Note_on_c, 2, 72, 75
4, 1583580, Note_on_c, 2, 76, 75
4, 1583815, Note_off_c, 2, 76, 64
4, 1583815, Note_off_c, 2, 72, 64
4, 1586460, Note_on_c, 2, 74, 60
4, 1586460, Note_on_c, 2, 77, 60
4, 1586695, Note_off_c, 2, 77, 64
4, 1586695, Note_off_c, 2, 74, 64
4, 1586700, Note_on_c, 2, 71, 60
4, 1586700, Note_on_c, 2, 74, 60
4, 1587655, Note_off_c, 2, 74, 64
4, 1587655, Note_off_c, 2, 71, 64
4, 1587900, Note_on_c, 2, 71, 65
4, 1587900, Note_on_c, 2, 74, 65
4, 1588135, Note_off_c, 2, 74, 64
4, 1588135, Note_off_c, 2, 71, 64
4, 1588140, Note_on_c, 2, 72, 66
4, 1588140, Note_on_c, 2, 76, 66
4, 1589095, Note_off_c, 2, 76, 64
4, 1589095, Note_off_c, 2, 72, 64
4, 1589340, Note_on_c, 2, 72, 73
4, 1589340, Note_on_c, 2, 76, 73
4, 1589575, Note_off_c, 2, 76, 64
4, 1589575, Note_off_c, 2, 72, 64
4, 1589580, Note_on_c, 2, 72, 75
4, 1589580, Note_on_c, 2, 76, 75
4, 1590700, Note_off_c, 2, 76, 64
4, 1590700, Note_off_c, 2, 72, 64
4, 1590780, Note_on_c, 2, 72, 75
4, 1590780, Note_on_c, 2, 76, 75
4, 1591015, Note_off_c, 2, 76, 64
4, 1591015, Note_off_c, 2, 72, 64
4, 1591020, Note_on_c, 2, 72, 75
4, 1591020, Note_on_c, 2, 76, 75
4, 1592140, Note_off_c, 2, 76, 64
4, 1592140, Note_off_c, 2, 72, 64
4, 1592220, Note_on_c, 2, 72, 75
4, 1592220, Note_on_c, 2, 76, 75
4, 1592455, Note_off_c, 2, 76, 64
4, 1592455, Note_off_c, 2, 72, 64
4, 1592460, Note_on_c, 2, 72, 45
4, 1592460, Note_on_c, 2, 76, 45
4, 1595220, Note_off_c, 2, 76, 64
4, 1595220, Note_off_c, 2, 72, 64
4, 1595340, Note_on_c, 2, 72, 45
4, 1595340, Note_on_c, 2, 76, 45
4, 1597900, Note_off_c, 2, 76, 64
4, 1597980, Note_on_c, 2, 76, 45
4, 1598100, Note_off_c, 2, 72, 64
4, 1598150, Note_off_c, 2, 76, 64
4, 1598220, Note_on_c, 2, 72, 60
4, 1598390, Note_off_c, 2, 72, 64
4, 1598460, Note_on_c, 2, 67, 60
4, 1598630, Note_off_c, 2, 67, 64
4, 1598700, Note_on_c, 2, 76, 60
4, 1598870, Note_off_c, 2, 76, 64
4, 1598940, Note_on_c, 2, 72, 60
4, 1599110, Note_off_c, 2, 72, 64
4, 1599180, Note_on_c, 2, 67, 60
4, 1599350, Note_off_c, 2, 67, 64
4, 1599420, Note_on_c, 2, 76, 60
4, 1599590, Note_off_c, 2, 76, 64
4, 1599660, Note_on_c, 2, 72, 60
4, 1599830, Note_off_c, 2, 72, 64
4, 1599900, Note_on_c, 2, 67, 60
4, 1600070, Note_off_c, 2, 67, 64
4, 1600140, Note_on_c, 2, 76, 60
4, 1600310, Note_off_c, 2, 76, 64
4, 1600380, Note_on_c, 2, 70, 60
4, 1600380, Note_on_c, 2, 72, 60
4, 1600550, Note_off_c, 2, 72, 64
4, 1600620, Note_on_c, 2, 67, 59
4, 1600790, Note_off_c, 2, 67, 64
4, 1600860, Note_on_c, 2, 72, 58
4, 1601030, Note_off_c, 2, 72, 64
4, 1601100, Note_on_c, 2, 72, 57
4, 1601820, Note_off_c, 2, 72, 64
4, 1601820, Note_on_c, 2, 82, 54
4, 1603860, Note_off_c, 2, 70, 64
4, 1603860, Note_off_c, 2, 82, 64
4, 1603980, Note_on_c, 2, 65, 45
4, 1603980, Note_on_c, 2, 69, 45
4, 1608300, Note_off_c, 2, 69, 64
4, 1608300, Note_off_c, 2, 65, 64
4, 1608300, Note_on_c, 2, 65, 45
4, 1608300, Note_on_c, 2, 70, 45
4, 1609500, Note_off_c, 2, 70, 64
4, 1609500, Note_off_c, 2, 65, 64
4, 1609500, Note_on_c, 2, 67, 45
4, 1609500, Note_on_c, 2, 70, 45
4, 1609740, Note_off_c, 2, 70, 64
4, 1609740, Note_off_c, 2, 67, 64
4, 1609740, Note_on_c, 2, 67, 45
4, 1609740, Note_on_c, 2, 70, 45
4, 1611180, Note_off_c, 2, 70, 64
4, 1611180, Note_off_c, 2, 67, 64
4, 1611180, Note_on_c, 2, 65, 45
4, 1611180, Note_on_c, 2, 69, 45
4, 1612620, Note_off_c, 2, 69, 64
4, 1612620, Note_on_c, 2, 67, 45
4, 1613340, Note_off_c, 2, 65, 64
4, 1613340, Note_off_c, 2, 67, 64
4, 1613340, Note_on_c, 2, 64, 45
4, 1613340, Note_on_c, 2, 67, 45
4, 1614060, Note_off_c, 2, 67, 64
4, 1614060, Note_off_c, 2, 64, 64
4, 1614060, Note_on_c, 2, 65, 45
4, 1614060, Note_on_c, 2, 69, 45
4, 1615380, Note_off_c, 2, 69, 64
4, 1615380, Note_off_c, 2, 65, 64
4, 1615500, Note_on_c, 2, 57, 45
4, 1615500, Note_on_c, 2, 60, 45
4, 1615735, Note_off_c, 2, 60, 64
4, 1615735, Note_off_c, 2, 57, 64
4, 1615740, Note_on_c, 2, 57, 45
4, 1615740, Note_on_c, 2, 60, 45
4, 1615975, Note_off_c, 2, 60, 64
4, 1615975, Note_off_c, 2, 57, 64
4, 1615980, Note_on_c, 2, 57, 45
4, 1615980, Note_on_c, 2, 60, 45
4, 1616215, Note_off_c, 2, 60, 64
4, 1616215, Note_off_c, 2, 57, 64
4, 1616220, Note_on_c, 2, 57, 45
4, 1616220, Note_on_c, 2, 60, 45
4, 1616455, Note_off_c, 2, 60, 64
4, 1616455, Note_off_c, 2, 57, 64
4, 1616460, Note_on_c, 2, 57, 45
4, 1616460, Note_on_c, 2, 60, 45
4, 1616695, Note_off_c, 2, 60, 64
4, 1616695, Note_off_c, 2, 57, 64
4, 1616700, Note_on_c, 2, 57, 45
4, 1616700, Note_on_c, 2, 60, 45
4, 1616935, Note_off_c, 2, 60, 64
4, 1616935, Note_off_c, 2, 57, 64
4, 1616940, Note_on_c, 2, 57, 45
4, 1616940, Note_on_c, 2, 60, 45
4, 1617175, Note_off_c, 2, 60, 64
4, 1617175, Note_off_c, 2, 57, 64
4, 1617180, Note_on_c, 2, 57, 45
4, 1617180, Note_on_c, 2, 60, 45
4, 1617415, Note_off_c, 2, 60, 64
4, 1617415, Note_off_c, 2, 57, 64
4, 1617420, Note_on_c, 2, 57, 45
4, 1617420, Note_on_c, 2, 60, 45
4, 1617655, Note_off_c, 2, 60, 64
4, 1617655, Note_off_c, 2, 57, 64
4, 1617660, Note_on_c, 2, 57, 45
4, 1617660, Note_on_c, 2, 60, 45
4, 1617895, Note_off_c, 2, 60, 64
4, 1617895, Note_off_c, 2, 57, 64
4, 1617900, Note_on_c, 2, 57, 45
4, 1617900, Note_on_c, 2, 60, 45
4, 1618135, Note_off_c, 2, 60, 64
4, 1618135, Note_off_c, 2, 57, 64
4, 1618140, Note_on_c, 2, 57, 45
4, 1618140, Note_on_c, 2, 60, 45
4, 1618375, Note_off_c, 2, 60, 64
4, 1618375, Note_off_c, 2, 57, 64
4, 1618380, Note_on_c, 2, 57, 45
4, 1618380, Note_on_c, 2, 60, 45
4, 1618615, Note_off_c, 2, 60, 64
4, 1618615, Note_off_c, 2, 57, 64
4, 1618620, Note_on_c, 2, 57, 45
4, 1618620, Note_on_c, 2, 60, 45
4, 1618855, Note_off_c, 2, 60, 64
4, 1618855, Note_off_c, 2, 57, 64
4, 1618860, Note_on_c, 2, 57, 45
4, 1618860, Note_on_c, 2, 60, 45
4, 1619095, Note_off_c, 2, 60, 64
4, 1619095, Note_off_c, 2, 57, 64
4, 1619100, Note_on_c, 2, 57, 45
4, 1619100, Note_on_c, 2, 60, 45
4, 1619335, Note_off_c, 2, 60, 64
4, 1619335, Note_off_c, 2, 57, 64
4, 1619340, Note_on_c, 2, 57, 45
4, 1619340, Note_on_c, 2, 60, 45
4, 1619575, Note_off_c, 2, 60, 64
4, 1619575, Note_off_c, 2, 57, 64
4, 1619580, Note_on_c, 2, 57, 45
4, 1619580, Note_on_c, 2, 60, 45
4, 1619815, Note_off_c, 2, 60, 64
4, 1619815, Note_off_c, 2, 57, 64
4, 1619820, Note_on_c, 2, 58, 45
4, 1619820, Note_on_c, 2, 62, 45
4, 1620055, Note_off_c, 2, 62, 64
4, 1620055, Note_off_c, 2, 58, 64
4, 1620060, Note_on_c, 2, 58, 46
4, 1620060, Note_on_c, 2, 62, 46
4, 1620295, Note_off_c, 2, 62, 64
4, 1620295, Note_off_c, 2, 58, 64
4, 1620300, Note_on_c, 2, 58, 46
4, 1620300, Note_on_c, 2, 62, 46
4, 1620535, Note_off_c, 2, 62, 64
4, 1620535, Note_off_c, 2, 58, 64
4, 1620540, Note_on_c, 2, 58, 47
4, 1620540, Note_on_c, 2, 62, 47
4, 1620775, Note_off_c, 2, 62, 64
4, 1620775, Note_off_c, 2, 58, 64
4, 1620780, Note_on_c, 2, 58, 48
4, 1620780, Note_on_c, 2, 62, 48
4, 1621015, Note_off_c, 2, 62, 64
4, 1621015, Note_off_c, 2, 58, 64
4, 1621020, Note_on_c, 2, 60, 49
4, 1621020, Note_on_c, 2, 62, 49
4, 1621255, Note_off_c, 2, 62, 64
4, 1621255, Note_off_c, 2, 60, 64
4, 1621260, Note_on_c, 2, 58, 50
4, 1621260, Note_on_c, 2, 60, 50
4, 1621495, Note_off_c, 2, 60, 64
4, 1621495, Note_off_c, 2, 58, 64
4, 1621500, Note_on_c, 2, 58, 51
4, 1621500, Note_on_c, 2, 60, 51
4, 1621735, Note_off_c, 2, 60, 64
4, 1621735, Note_off_c, 2, 58, 64
4, 1621740, Note_on_c, 2, 58, 52
4, 1621740, Note_on_c, 2, 60, 52
4, 1621975, Note_off_c, 2, 60, 64
4, 1621975, Note_off_c, 2, 58, 64
4, 1621980, Note_on_c, 2, 58, 53
4, 1621980, Note_on_c, 2, 60, 53
4, 1622215, Note_off_c, 2, 60, 64
4, 1622215, Note_off_c, 2, 58, 64
4, 1622220, Note_on_c, 2, 58, 54
4, 1622220, Note_on_c, 2, 60, 54
4, 1622455, Note_off_c, 2, 60, 64
4, 1622455, Note_off_c, 2, 58, 64
4, 1622460, Note_on_c, 2, 60, 55
4, 1622460, Note_on_c, 2, 64, 55
4, 1622695, Note_off_c, 2, 64, 64
4, 1622695, Note_off_c, 2, 60, 64
4, 1622700, Note_on_c, 2, 60, 56
4, 1622700, Note_on_c, 2, 65, 56
4, 1622935, Note_off_c, 2, 65, 64
4, 1622935, Note_off_c, 2, 60, 64
4, 1622940, Note_on_c, 2, 57, 57
4, 1622940, Note_on_c, 2, 60, 57
4, 1623175, Note_off_c, 2, 60, 64
4, 1623175, Note_off_c, 2, 57, 64
4, 1623180, Note_on_c, 2, 57, 58
4, 1623180, Note_on_c, 2, 60, 58
4, 1623415, Note_off_c, 2, 60, 64
4, 1623415, Note_off_c, 2, 57, 64
4, 1623420, Note_on_c, 2, 57, 59
4, 1623420, Note_on_c, 2, 62, 59
4, 1623655, Note_off_c, 2, 62, 64
4, 1623655, Note_off_c, 2, 57, 64
4, 1623660, Note_on_c, 2, 57, 60
4, 1623660, Note_on_c, 2, 62, 60
4, 1623895, Note_off_c, 2, 62, 64
4, 1623895, Note_off_c, 2, 57, 64
4, 1623900, Note_on_c, 2, 57, 61
4, 1623900, Note_on_c, 2, 60, 61
4, 1624135, Note_off_c, 2, 60, 64
4, 1624135, Note_off_c, 2, 57, 64
4, 1624140, Note_on_c, 2, 55, 62
4, 1624140, Note_on_c, 2, 62, 62
4, 1624375, Note_off_c, 2, 62, 64
4, 1624375, Note_off_c, 2, 55, 64
4, 1624380, Note_on_c, 2, 55, 63
4, 1624380, Note_on_c, 2, 62, 63
4, 1624615, Note_off_c, 2, 62, 64
4, 1624615, Note_off_c, 2, 55, 64
4, 1624620, Note_on_c, 2, 55, 64
4, 1624620, Note_on_c, 2, 62, 64
4, 1624855, Note_off_c, 2, 62, 64
4, 1624855, Note_off_c, 2, 55, 64
4, 1624860, Note_on_c, 2, 55, 65
4, 1624860, Note_on_c, 2, 60, 65
4, 1625095, Note_off_c, 2, 60, 64
4, 1625095, Note_off_c, 2, 55, 64
4, 1625100, Note_on_c, 2, 55, 66
4, 1625100, Note_on_c, 2, 60, 66
4, 1625335, Note_off_c, 2, 60, 64
4, 1625335, Note_off_c, 2, 55, 64
4, 1625340, Note_on_c, 2, 55, 67
4, 1625340, Note_on_c, 2, 60, 67
4, 1625575, Note_off_c, 2, 60, 64
4, 1625575, Note_off_c, 2, 55, 64
4, 1625580, Note_on_c, 2, 57, 68
4, 1625580, Note_on_c, 2, 60, 68
4, 1625815, Note_off_c, 2, 60, 64
4, 1625815, Note_off_c, 2, 57, 64
4, 1625820, Note_on_c, 2, 57, 69
4, 1625820, Note_on_c, 2, 60, 69
4, 1626055, Note_off_c, 2, 60, 64
4, 1626055, Note_off_c, 2, 57, 64
4, 1626060, Note_on_c, 2, 57, 70
4, 1626060, Note_on_c, 2, 60, 70
4, 1626295, Note_off_c, 2, 60, 64
4, 1626295, Note_off_c, 2, 57, 64
4, 1626300, Note_on_c, 2, 57, 71
4, 1626300, Note_on_c, 2, 60, 71
4, 1626535, Note_off_c, 2, 60, 64
4, 1626535, Note_off_c, 2, 57, 64
4, 1626540, Note_on_c, 2, 57, 72
4, 1626540, Note_on_c, 2, 60, 72
4, 1626775, Note_off_c, 2, 60, 64
4, 1626775, Note_off_c, 2, 57, 64
4, 1626780, Note_on_c, 2, 57, 73
4, 1626780, Note_on_c, 2, 60, 73
4, 1627015, Note_off_c, 2, 60, 64
4, 1627015, Note_off_c, 2, 57, 64
4, 1627020, Note_on_c, 2, 65, 75
4, 1627020, Note_on_c, 2, 69, 75
4, 1628140, Note_off_c, 2, 69, 64
4, 1628140, Note_off_c, 2, 65, 64
4, 1628220, Note_on_c, 2, 65, 75
4, 1628220, Note_on_c, 2, 69, 75
4, 1628455, Note_off_c, 2, 69, 64
4, 1628455, Note_off_c, 2, 65, 64
4, 1628460, Note_on_c, 2, 65, 75
4, 1628460, Note_on_c, 2, 69, 75
4, 1629580, Note_off_c, 2, 69, 64
4, 1629580, Note_off_c, 2, 65, 64
4, 1629660, Note_on_c, 2, 65, 75
4, 1629660, Note_on_c, 2, 69, 75
4, 1629895, Note_off_c, 2, 69, 64
4, 1629895, Note_off_c, 2, 65, 64
4, 1629900, Note_on_c, 2, 65, 75
4, 1629900, Note_on_c, 2, 69, 75
4, 1631020, Note_off_c, 2, 69, 64
4, 1631020, Note_off_c, 2, 65, 64
4, 1631100, Note_on_c, 2, 65, 75
4, 1631100, Note_on_c, 2, 69, 75
4, 1631335, Note_off_c, 2, 69, 64
4, 1631335, Note_off_c, 2, 65, 64
4, 1631340, Note_on_c, 2, 65, 75
4, 1631340, Note_on_c, 2, 70, 75
4, 1632460, Note_off_c, 2, 70, 64
4, 1632460, Note_off_c, 2, 65, 64
4, 1632540, Note_on_c, 2, 67, 75
4, 1632540, Note_on_c, 2, 70, 75
4, 1632775, Note_off_c, 2, 70, 64
4, 1632775, Note_off_c, 2, 67, 64
4, 1632780, Note_on_c, 2, 67, 75
4, 1632780, Note_on_c, 2, 70, 75
4, 1633900, Note_off_c, 2, 70, 64
4, 1633900, Note_off_c, 2, 67, 64
4, 1633980, Note_on_c, 2, 67, 75
4, 1633980, Note_on_c, 2, 70, 75
4, 1634215, Note_off_c, 2, 70, 64
4, 1634215, Note_off_c, 2, 67, 64
4, 1634220, Note_on_c, 2, 67, 75
4, 1634220, Note_on_c, 2, 69, 75
4, 1634455, Note_off_c, 2, 67, 64
4, 1634460, Note_on_c, 2, 65, 75
4, 1635340, Note_off_c, 2, 69, 64
4, 1635340, Note_off_c, 2, 65, 64
4, 1635420, Note_on_c, 2, 65, 75
4, 1635420, Note_on_c, 2, 69, 75
4, 1635655, Note_off_c, 2, 69, 64
4, 1635655, Note_off_c, 2, 65, 64
4, 1635660, Note_on_c, 2, 65, 75
4, 1635660, Note_on_c, 2, 67, 75
4, 1636380, Note_off_c, 2, 67, 64
4, 1636380, Note_off_c, 2, 65, 64
4, 1636380, Note_on_c, 2, 64, 75
4, 1636380, Note_on_c, 2, 67, 75
4, 1637100, Note_off_c, 2, 67, 64
4, 1637100, Note_off_c, 2, 64, 64
4, 1637100, Note_on_c, 2, 65, 75
4, 1637100, Note_on_c, 2, 69, 75
4, 1637335, Note_off_c, 2, 69, 64
4, 1637335, Note_off_c, 2, 65, 64
4, 1639740, Note_on_c, 2, 64, 75
4, 1639740, Note_on_c, 2, 67, 75
4, 1639975, Note_off_c, 2, 67, 64
4, 1639975, Note_off_c, 2, 64, 64
4, 1639980, Note_on_c, 2, 65, 75
4, 1640700, Note_off_c, 2, 65, 64
4, 1640700, Note_on_c, 2, 67, 75
4, 1641420, Note_off_c, 2, 67, 64
4, 1641420, Note_on_c, 2, 65, 75
4, 1641420, Note_on_c, 2, 69, 75
4, 1642060, Note_off_c, 2, 69, 64
4, 1642060, Note_off_c, 2, 65, 64
4, 1642140, Note_on_c, 2, 67, 75
4, 1642140, Note_on_c, 2, 70, 75
4, 1642540, Note_off_c, 2, 70, 64
4, 1642540, Note_off_c, 2, 67, 64
4, 1642620, Note_on_c, 2, 64, 75
4, 1642620, Note_on_c, 2, 67, 75
4, 1642855, Note_off_c, 2, 67, 64
4, 1642855, Note_off_c, 2, 64, 64
4, 1648380, Note_on_c, 2, 62, 60
4, 1648380, Note_on_c, 2, 65, 60
4, 1648615, Note_off_c, 2, 65, 64
4, 1648615, Note_off_c, 2, 62, 64
4, 1648620, Note_on_c, 2, 64, 60
4, 1648620, Note_on_c, 2, 67, 60
4, 1649260, Note_off_c, 2, 67, 64
4, 1649260, Note_off_c, 2, 64, 64
4, 1649340, Note_on_c, 2, 65, 60
4, 1649340, Note_on_c, 2, 69, 60
4, 1649980, Note_off_c, 2, 69, 64
4, 1649980, Note_off_c, 2, 65, 64
4, 1650060, Note_on_c, 2, 67, 60
4, 1650060, Note_on_c, 2, 70, 60
4, 1650700, Note_off_c, 2, 70, 64
4, 1650700, Note_off_c, 2, 67, 64
4, 1650780, Note_on_c, 2, 68, 60
4, 1650780, Note_on_c, 2, 71, 60
4, 1651180, Note_off_c, 2, 71, 64
4, 1651180, Note_off_c, 2, 68, 64
4, 1651260, Note_on_c, 2, 68, 60
4, 1651260, Note_on_c, 2, 71, 60
4, 1651495, Note_off_c, 2, 71, 64
4, 1651495, Note_off_c, 2, 68, 64
4, 1651500, Note_on_c, 2, 69, 60
4, 1651500, Note_on_c, 2, 72, 60
4, 1652620, Note_off_c, 2, 72, 64
4, 1652620, Note_off_c, 2, 69, 64
4, 1652700, Note_on_c, 2, 65, 60
4, 1652700, Note_on_c, 2, 69, 60
4, 1652935, Note_off_c, 2, 69, 64
4, 1652935, Note_off_c, 2, 65, 64
4, 1652940, Note_on_c, 2, 65, 60
4, 1652940, Note_on_c, 2, 69, 60
4, 1653340, Note_off_c, 2, 69, 64
4, 1653340, Note_off_c, 2, 65, 64
4, 1653420, Note_on_c, 2, 65, 60
4, 1653420, Note_on_c, 2, 69, 60
4, 1653655, Note_off_c, 2, 69, 64
4, 1653655, Note_off_c, 2, 65, 64
4, 1653660, Note_on_c, 2, 65, 60
4, 1653660, Note_on_c, 2, 69, 60
4, 1654060, Note_off_c, 2, 69, 64
4, 1654060, Note_off_c, 2, 65, 64
4, 1654140, Note_on_c, 2, 65, 60
4, 1654140, Note_on_c, 2, 69, 60
4, 1654375, Note_off_c, 2, 69, 64
4, 1654375, Note_off_c, 2, 65, 64
4, 1654380, Note_on_c, 2, 67, 60
4, 1654380, Note_on_c, 2, 70, 60
4, 1655500, Note_off_c, 2, 70, 64
4, 1655500, Note_off_c, 2, 67, 64
4, 1655580, Note_on_c, 2, 64, 60
4, 1655580, Note_on_c, 2, 67, 60
4, 1655815, Note_off_c, 2, 67, 64
4, 1655815, Note_off_c, 2, 64, 64
4, 1655820, Note_on_c, 2, 64, 60
4, 1655820, Note_on_c, 2, 67, 60
4, 1656220, Note_off_c, 2, 67, 64
4, 1656220, Note_off_c, 2, 64, 64
4, 1656300, Note_on_c, 2, 64, 60
4, 1656300, Note_on_c, 2, 67, 60
4, 1656535, Note_off_c, 2, 67, 64
4, 1656535, Note_off_c, 2, 64, 64
4, 1656540, Note_on_c, 2, 64, 60
4, 1656540, Note_on_c, 2, 67, 60
4, 1656940, Note_off_c, 2, 67, 64
4, 1656940, Note_off_c, 2, 64, 64
4, 1657020, Note_on_c, 2, 64, 60
4, 1657020, Note_on_c, 2, 67, 60
4, 1657255, Note_off_c, 2, 67, 64
4, 1657255, Note_off_c, 2, 64, 64
4, 1657260, Note_on_c, 2, 69, 60
4, 1657260, Note_on_c, 2, 72, 60
4, 1657660, Note_off_c, 2, 72, 64
4, 1657660, Note_off_c, 2, 69, 64
4, 1657740, Note_on_c, 2, 69, 60
4, 1657740, Note_on_c, 2, 72, 60
4, 1657975, Note_off_c, 2, 72, 64
4, 1657975, Note_off_c, 2, 69, 64
4, 1657980, Note_on_c, 2, 69, 60
4, 1657980, Note_on_c, 2, 72, 60
4, 1658380, Note_off_c, 2, 72, 64
4, 1658380, Note_off_c, 2, 69, 64
4, 1658460, Note_on_c, 2, 69, 60
4, 1658460, Note_on_c, 2, 72, 60
4, 1658695, Note_off_c, 2, 72, 64
4, 1658695, Note_off_c, 2, 69, 64
4, 1658700, Note_on_c, 2, 69, 60
4, 1658700, Note_on_c, 2, 72, 60
4, 1659100, Note_off_c, 2, 72, 64
4, 1659100, Note_off_c, 2, 69, 64
4, 1659180, Note_on_c, 2, 65, 60
4, 1659180, Note_on_c, 2, 69, 60
4, 1659415, Note_off_c, 2, 69, 64
4, 1659415, Note_off_c, 2, 65, 64
4, 1659420, Note_on_c, 2, 65, 60
4, 1659420, Note_on_c, 2, 69, 60
4, 1659820, Note_off_c, 2, 69, 64
4, 1659820, Note_off_c, 2, 65, 64
4, 1659900, Note_on_c, 2, 65, 60
4, 1659900, Note_on_c, 2, 69, 60
4, 1660135, Note_off_c, 2, 69, 64
4, 1660135, Note_off_c, 2, 65, 64
4, 1660140, Note_on_c, 2, 67, 60
4, 1660140, Note_on_c, 2, 70, 60
4, 1660540, Note_off_c, 2, 70, 64
4, 1660540, Note_off_c, 2, 67, 64
4, 1660620, Note_on_c, 2, 67, 60
4, 1660620, Note_on_c, 2, 70, 60
4, 1660855, Note_off_c, 2, 70, 64
4, 1660855, Note_off_c, 2, 67, 64
4, 1660860, Note_on_c, 2, 67, 60
4, 1660860, Note_on_c, 2, 70, 60
4, 1661260, Note_off_c, 2, 70, 64
4, 1661260, Note_off_c, 2, 67, 64
4, 1661340, Note_on_c, 2, 67, 60
4, 1661340, Note_on_c, 2, 70, 60
4, 1661575, Note_off_c, 2, 70, 64
4, 1661575, Note_off_c, 2, 67, 64
4, 1661580, Note_on_c, 2, 67, 60
4, 1661580, Note_on_c, 2, 70, 60
4, 1661980, Note_off_c, 2, 70, 64
4, 1661980, Note_off_c, 2, 67, 64
4, 1662060, Note_on_c, 2, 64, 60
4, 1662060, Note_on_c, 2, 67, 60
4, 1662295, Note_off_c, 2, 67, 64
4, 1662295, Note_off_c, 2, 64, 64
4, 1662300, Note_on_c, 2, 64, 60
4, 1662300, Note_on_c, 2, 67, 60
4, 1662700, Note_off_c, 2, 67, 64
4, 1662700, Note_off_c, 2, 64, 64
4, 1662780, Note_on_c, 2, 64, 60
4, 1662780, Note_on_c, 2, 67, 60
4, 1663015, Note_off_c, 2, 67, 64
4, 1663015, Note_off_c, 2, 64, 64
4, 1663020, Note_on_c, 2, 65, 60
4, 1663020, Note_on_c, 2, 69, 60
4, 1663420, Note_off_c, 2, 69, 64
4, 1663420, Note_off_c, 2, 65, 64
4, 1664940, Note_on_c, 2, 65, 60
4, 1664940, Note_on_c, 2, 69, 60
4, 1665180, Note_off_c, 2, 69, 64
4, 1665180, Note_off_c, 2, 65, 64
4, 1665180, Note_on_c, 2, 64, 60
4, 1665180, Note_on_c, 2, 70, 60
4, 1665580, Note_off_c, 2, 70, 64
4, 1665580, Note_off_c, 2, 64, 64
4, 1665660, Note_on_c, 2, 64, 60
4, 1665660, Note_on_c, 2, 70, 60
4, 1665900, Note_off_c, 2, 70, 64
4, 1665900, Note_off_c, 2, 64, 64
4, 1665900, Note_on_c, 2, 65, 60
4, 1665900, Note_on_c, 2, 69, 60
4, 1666300, Note_off_c, 2, 69, 64
4, 1666300, Note_off_c, 2, 65, 64
4, 1667100, Note_on_c, 2, 65, 45
4, 1667575, Note_off_c, 2, 65, 64
4, 1667580, Note_on_c, 2, 70, 55
4, 1667815, Note_off_c, 2, 70, 64
4, 1667820, Note_on_c, 2, 65, 65
4, 1667820, Note_on_c, 2, 69, 65
4, 1668055, Note_off_c, 2, 69, 64
4, 1668055, Note_off_c, 2, 65, 64
4, 1668060, Note_on_c, 2, 67, 75
4, 1668060, Note_on_c, 2, 70, 75
4, 1668460, Note_off_c, 2, 70, 64
4, 1668460, Note_off_c, 2, 67, 64
4, 1668540, Note_on_c, 2, 67, 75
4, 1668540, Note_on_c, 2, 72, 75
4, 1668620, Note_off_c, 2, 72, 64
4, 1668620, Note_off_c, 2, 67, 64
4, 1668780, Note_on_c, 2, 69, 75
4, 1668780, Note_on_c, 2, 72, 75
4, 1669500, Note_off_c, 2, 72, 64
4, 1669500, Note_off_c, 2, 69, 64
4, 1669500, Note_on_c, 2, 65, 75
4, 1669500, Note_on_c, 2, 69, 75
4, 1669735, Note_off_c, 2, 69, 64
4, 1669735, Note_off_c, 2, 65, 64
4, 1669980, Note_on_c, 2, 69, 75
4, 1669980, Note_on_c, 2, 81, 75
4, 1670215, Note_off_c, 2, 81, 64
4, 1670215, Note_off_c, 2, 69, 64
4, 1670220, Note_on_c, 2, 74, 75
4, 1670220, Note_on_c, 2, 82, 75
4, 1670940, Note_off_c, 2, 82, 64
4, 1670940, Note_off_c, 2, 74, 64
4, 1670940, Note_on_c, 2, 70, 75
4, 1670940, Note_on_c, 2, 79, 75
4, 1671175, Note_off_c, 2, 79, 64
4, 1671175, Note_off_c, 2, 70, 64
4, 1671420, Note_on_c, 2, 70, 75
4, 1671420, Note_on_c, 2, 74, 75
4, 1671655, Note_off_c, 2, 74, 64
4, 1671655, Note_off_c, 2, 70, 64
4, 1671660, Note_on_c, 2, 65, 60
4, 1671660, Note_on_c, 2, 69, 60
4, 1671895, Note_off_c, 2, 69, 64
4, 1671895, Note_off_c, 2, 65, 64
4, 1678140, Note_on_c, 2, 71, 30
4, 1678140, Note_on_c, 2, 77, 30
4, 1679260, Note_off_c, 2, 77, 64
4, 1679260, Note_off_c, 2, 71, 64
4, 1679580, Note_on_c, 2, 71, 30
4, 1679580, Note_on_c, 2, 77, 30
4, 1679980, Note_off_c, 2, 77, 64
4, 1679980, Note_off_c, 2, 71, 64
4, 1680300, Note_on_c, 2, 71, 30
4, 1680300, Note_on_c, 2, 77, 30
4, 1680700, Note_off_c, 2, 77, 64
4, 1680700, Note_off_c, 2, 71, 64
4, 1681020, Note_on_c, 2, 71, 30
4, 1681020, Note_on_c, 2, 77, 30
4, 1681420, Note_off_c, 2, 77, 64
4, 1681420, Note_off_c, 2, 71, 64
4, 1681740, Note_on_c, 2, 71, 30
4, 1681740, Note_on_c, 2, 77, 30
4, 1682140, Note_off_c, 2, 77, 64
4, 1682140, Note_off_c, 2, 71, 64
4, 1682460, Note_on_c, 2, 71, 30
4, 1682460, Note_on_c, 2, 77, 30
4, 1682860, Note_off_c, 2, 77, 64
4, 1682860, Note_off_c, 2, 71, 64
4, 1683180, Note_on_c, 2, 71, 30
4, 1683180, Note_on_c, 2, 77, 30
4, 1683580, Note_off_c, 2, 77, 64
4, 1683580, Note_off_c, 2, 71, 64
4, 1683900, Note_on_c, 2, 71, 37
4, 1683900, Note_on_c, 2, 77, 37
4, 1684300, Note_off_c, 2, 77, 64
4, 1684300, Note_off_c, 2, 71, 64
4, 1684620, Note_on_c, 2, 70, 44
4, 1684620, Note_on_c, 2, 76, 44
4, 1685020, Note_off_c, 2, 76, 64
4, 1685020, Note_off_c, 2, 70, 64
4, 1685340, Note_on_c, 2, 70, 51
4, 1685340, Note_on_c, 2, 76, 51
4, 1685740, Note_off_c, 2, 76, 64
4, 1685740, Note_off_c, 2, 70, 64
4, 1686060, Note_on_c, 2, 70, 60
4, 1686060, Note_on_c, 2, 76, 60
4, 1686460, Note_off_c, 2, 76, 64
4, 1686460, Note_off_c, 2, 70, 64
4, 1686780, Note_on_c, 2, 70, 69
4, 1686780, Note_on_c, 2, 76, 69
4, 1687015, Note_off_c, 2, 76, 64
4, 1687015, Note_off_c, 2, 70, 64
4, 1687260, Note_on_c, 2, 67, 75
4, 1687260, Note_on_c, 2, 76, 75
4, 1688620, Note_off_c, 2, 76, 64
4, 1688620, Note_off_c, 2, 67, 64
4, 1688700, Note_on_c, 2, 67, 75
4, 1688700, Note_on_c, 2, 76, 75
4, 1689340, Note_off_c, 2, 76, 64
4, 1689340, Note_off_c, 2, 67, 64
4, 1689420, Note_on_c, 2, 67, 75
4, 1689420, Note_on_c, 2, 76, 75
4, 1690060, Note_off_c, 2, 76, 64
4, 1690060, Note_off_c, 2, 67, 64
4, 1690140, Note_on_c, 2, 67, 75
4, 1690140, Note_on_c, 2, 76, 75
4, 1690375, Note_off_c, 2, 76, 64
4, 1690375, Note_off_c, 2, 67, 64
4, 1690380, Note_on_c, 2, 69, 75
4, 1690380, Note_on_c, 2, 77, 75
4, 1690615, Note_off_c, 2, 77, 64
4, 1690615, Note_off_c, 2, 69, 64
4, 1708140, Note_on_c, 2, 67, 60
4, 1708140, Note_on_c, 2, 76, 60
4, 1708375, Note_off_c, 2, 76, 64
4, 1708375, Note_off_c, 2, 67, 64
4, 1708380, Note_on_c, 2, 67, 63
4, 1708380, Note_on_c, 2, 76, 63
4, 1708615, Note_off_c, 2, 76, 64
4, 1708615, Note_off_c, 2, 67, 64
4, 1708620, Note_on_c, 2, 67, 66
4, 1708620, Note_on_c, 2, 76, 66
4, 1708855, Note_off_c, 2, 76, 64
4, 1708855, Note_off_c, 2, 67, 64
4, 1708860, Note_on_c, 2, 67, 69
4, 1708860, Note_on_c, 2, 76, 69
4, 1709095, Note_off_c, 2, 76, 64
4, 1709095, Note_off_c, 2, 67, 64
4, 1709100, Note_on_c, 2, 67, 72
4, 1709100, Note_on_c, 2, 76, 72
4, 1709335, Note_off_c, 2, 76, 64
4, 1709335, Note_off_c, 2, 67, 64
4, 1709340, Note_on_c, 2, 69, 75
4, 1709340, Note_on_c, 2, 77, 75
4, 1711900, Note_off_c, 2, 77, 64
4, 1711900, Note_off_c, 2, 69, 64
4, 1711980, Note_on_c, 2, 69, 75
4, 1711980, Note_on_c, 2, 77, 75
4, 1712215, Note_off_c, 2, 77, 64
4, 1712215, Note_off_c, 2, 69, 64
4, 1712220, Note_on_c, 2, 69, 75
4, 1712220, Note_on_c, 2, 72, 75
4, 1714780, Note_off_c, 2, 72, 64
4, 1714780, Note_off_c, 2, 69, 64
4, 1714860, Note_on_c, 2, 69, 75
4, 1714860, Note_on_c, 2, 72, 75
4, 1715095, Note_off_c, 2, 72, 64
4, 1715095, Note_off_c, 2, 69, 64
4, 1715100, Note_on_c, 2, 62, 75
4, 1715100, Note_on_c, 2, 77, 75
4, 1717660, Note_off_c, 2, 77, 64
4, 1717660, Note_off_c, 2, 62, 64
4, 1717740, Note_on_c, 2, 62, 60
4, 1717740, Note_on_c, 2, 77, 60
4, 1717975, Note_off_c, 2, 77, 64
4, 1717975, Note_off_c, 2, 62, 64
4, 1719180, Note_on_c, 2, 71, 45
4, 1719180, Note_on_c, 2, 77, 45
4, 1719260, Note_off_c, 2, 77, 64
4, 1719260, Note_off_c, 2, 71, 64
4, 1719300, Note_on_c, 2, 71, 45
4, 1719300, Note_on_c, 2, 77, 45
4, 1719380, Note_off_c, 2, 77, 64
4, 1719380, Note_off_c, 2, 71, 64
4, 1719420, Note_on_c, 2, 71, 45
4, 1719420, Note_on_c, 2, 77, 45
4, 1719655, Note_off_c, 2, 77, 64
4, 1719655, Note_off_c, 2, 71, 64
4, 1720620, Note_on_c, 2, 71, 45
4, 1720620, Note_on_c, 2, 77, 45
4, 1720700, Note_off_c, 2, 77, 64
4, 1720700, Note_off_c, 2, 71, 64
4, 1720740, Note_on_c, 2, 71, 45
4, 1720740, Note_on_c, 2, 77, 45
4, 1720820, Note_off_c, 2, 77, 64
4, 1720820, Note_off_c, 2, 71, 64
4, 1720860, Note_on_c, 2, 71, 45
4, 1720860, Note_on_c, 2, 77, 45
4, 1721095, Note_off_c, 2, 77, 64
4, 1721095, Note_off_c, 2, 71, 64
4, 1721340, Note_on_c, 2, 71, 45
4, 1721340, Note_on_c, 2, 77, 45
4, 1721420, Note_off_c, 2, 77, 64
4, 1721420, Note_off_c, 2, 71, 64
4, 1721460, Note_on_c, 2, 71, 45
4, 1721460, Note_on_c, 2, 77, 45
4, 1721540, Note_off_c, 2, 77, 64
4, 1721540, Note_off_c, 2, 71, 64
4, 1721580, Note_on_c, 2, 71, 45
4, 1721580, Note_on_c, 2, 77, 45
4, 1721815, Note_off_c, 2, 77, 64
4, 1721815, Note_off_c, 2, 71, 64
4, 1722060, Note_on_c, 2, 71, 45
4, 1722060, Note_on_c, 2, 77, 45
4, 1722140, Note_off_c, 2, 77, 64
4, 1722140, Note_off_c, 2, 71, 64
4, 1722180, Note_on_c, 2, 71, 45
4, 1722180, Note_on_c, 2, 77, 45
4, 1722260, Note_off_c, 2, 77, 64
4, 1722260, Note_off_c, 2, 71, 64
4, 1722300, Note_on_c, 2, 71, 45
4, 1722300, Note_on_c, 2, 77, 45
4, 1722535, Note_off_c, 2, 77, 64
4, 1722535, Note_off_c, 2, 71, 64
4, 1722780, Note_on_c, 2, 71, 45
4, 1722780, Note_on_c, 2, 77, 45
4, 1722860, Note_off_c, 2, 77, 64
4, 1722860, Note_off_c, 2, 71, 64
4, 1722900, Note_on_c, 2, 71, 45
4, 1722900, Note_on_c, 2, 77, 45
4, 1722980, Note_off_c, 2, 77, 64
4, 1722980, Note_off_c, 2, 71, 64
4, 1723020, Note_on_c, 2, 71, 45
4, 1723020, Note_on_c, 2, 77, 45
4, 1723255, Note_off_c, 2, 77, 64
4, 1723255, Note_off_c, 2, 71, 64
4, 1723500, Note_on_c, 2, 71, 45
4, 1723500, Note_on_c, 2, 77, 45
4, 1723580, Note_off_c, 2, 77, 64
4, 1723580, Note_off_c, 2, 71, 64
4, 1723620, Note_on_c, 2, 71, 45
4, 1723620, Note_on_c, 2, 77, 45
4, 1723700, Note_off_c, 2, 77, 64
4, 1723700, Note_off_c, 2, 71, 64
4, 1723740, Note_on_c, 2, 72, 45
4, 1723740, Note_on_c, 2, 76, 45
4, 1723975, Note_off_c, 2, 76, 64
4, 1723975, Note_off_c, 2, 72, 64
4, 1724220, Note_on_c, 2, 72, 47
4, 1724220, Note_on_c, 2, 76, 47
4, 1724300, Note_off_c, 2, 76, 64
4, 1724300, Note_off_c, 2, 72, 64
4, 1724340, Note_on_c, 2, 72, 47
4, 1724340, Note_on_c, 2, 76, 47
4, 1724420, Note_off_c, 2, 76, 64
4, 1724420, Note_off_c, 2, 72, 64
4, 1724460, Note_on_c, 2, 72, 47
4, 1724460, Note_on_c, 2, 76, 47
4, 1724695, Note_off_c, 2, 76, 64
4, 1724695, Note_off_c, 2, 72, 64
4, 1724940, Note_on_c, 2, 72, 49
4, 1724940, Note_on_c, 2, 76, 49
4, 1725020, Note_off_c, 2, 76, 64
4, 1725020, Note_off_c, 2, 72, 64
4, 1725060, Note_on_c, 2, 72, 49
4, 1725060, Note_on_c, 2, 76, 49
4, 1725140, Note_off_c, 2, 76, 64
4, 1725140, Note_off_c, 2, 72, 64
4, 1725180, Note_on_c, 2, 72, 49
4, 1725180, Note_on_c, 2, 76, 49
4, 1725415, Note_off_c, 2, 76, 64
4, 1725415, Note_off_c, 2, 72, 64
4, 1725660, Note_on_c, 2, 72, 51
4, 1725660, Note_on_c, 2, 76, 51
4, 1725740, Note_off_c, 2, 76, 64
4, 1725740, Note_off_c, 2, 72, 64
4, 1725780, Note_on_c, 2, 72, 51
4, 1725780, Note_on_c, 2, 76, 51
4, 1725860, Note_off_c, 2, 76, 64
4, 1725860, Note_off_c, 2, 72, 64
4, 1725900, Note_on_c, 2, 72, 51
4, 1725900, Note_on_c, 2, 76, 51
4, 1726135, Note_off_c, 2, 76, 64
4, 1726135, Note_off_c, 2, 72, 64
4, 1726380, Note_on_c, 2, 67, 53
4, 1726380, Note_on_c, 2, 70, 53
4, 1726460, Note_off_c, 2, 70, 64
4, 1726460, Note_off_c, 2, 67, 64
4, 1726500, Note_on_c, 2, 67, 53
4, 1726500, Note_on_c, 2, 70, 53
4, 1726580, Note_off_c, 2, 70, 64
4, 1726580, Note_off_c, 2, 67, 64
4, 1726620, Note_on_c, 2, 67, 53
4, 1726620, Note_on_c, 2, 70, 53
4, 1726855, Note_off_c, 2, 70, 64
4, 1726855, Note_off_c, 2, 67, 64
4, 1727100, Note_on_c, 2, 67, 57
4, 1727100, Note_on_c, 2, 70, 57
4, 1727180, Note_off_c, 2, 70, 64
4, 1727180, Note_off_c, 2, 67, 64
4, 1727220, Note_on_c, 2, 67, 58
4, 1727220, Note_on_c, 2, 70, 58
4, 1727300, Note_off_c, 2, 70, 64
4, 1727300, Note_off_c, 2, 67, 64
4, 1727340, Note_on_c, 2, 67, 59
4, 1727340, Note_on_c, 2, 70, 59
4, 1727575, Note_off_c, 2, 70, 64
4, 1727575, Note_off_c, 2, 67, 64
4, 1727820, Note_on_c, 2, 67, 63
4, 1727820, Note_on_c, 2, 70, 63
4, 1727900, Note_off_c, 2, 70, 64
4, 1727900, Note_off_c, 2, 67, 64
4, 1727940, Note_on_c, 2, 67, 64
4, 1727940, Note_on_c, 2, 70, 64
4, 1728020, Note_off_c, 2, 70, 64
4, 1728020, Note_off_c, 2, 67, 64
4, 1728060, Note_on_c, 2, 67, 65
4, 1728060, Note_on_c, 2, 70, 65
4, 1728295, Note_off_c, 2, 70, 64
4, 1728295, Note_off_c, 2, 67, 64
4, 1728540, Note_on_c, 2, 67, 69
4, 1728540, Note_on_c, 2, 70, 69
4, 1728620, Note_off_c, 2, 70, 64
4, 1728620, Note_off_c, 2, 67, 64
4, 1728660, Note_on_c, 2, 67, 70
4, 1728660, Note_on_c, 2, 70, 70
4, 1728740, Note_off_c, 2, 70, 64
4, 1728740, Note_off_c, 2, 67, 64
4, 1728780, Note_on_c, 2, 67, 71
4, 1728780, Note_on_c, 2, 70, 71
4, 1729015, Note_off_c, 2, 70, 64
4, 1729015, Note_off_c, 2, 67, 64
4, 1729260, Note_on_c, 2, 67, 75
4, 1729260, Note_on_c, 2, 76, 75
4, 1730620, Note_off_c, 2, 76, 64
4, 1730620, Note_off_c, 2, 67, 64
4, 1730700, Note_on_c, 2, 67, 75
4, 1730700, Note_on_c, 2, 76, 75
4, 1731340, Note_off_c, 2, 76, 64
4, 1731340, Note_off_c, 2, 67, 64
4, 1731420, Note_on_c, 2, 67, 75
4, 1731420, Note_on_c, 2, 76, 75
4, 1732060, Note_off_c, 2, 76, 64
4, 1732060, Note_off_c, 2, 67, 64
4, 1732140, Note_on_c, 2, 67, 75
4, 1732140, Note_on_c, 2, 76, 75
4, 1732380, Note_off_c, 2, 76, 64
4, 1732380, Note_off_c, 2, 67, 64
4, 1732380, Note_on_c, 2, 69, 75
4, 1732380, Note_on_c, 2, 77, 75
4, 1732780, Note_off_c, 2, 77, 64
4, 1732780, Note_off_c, 2, 69, 64
4, 1747980, Note_on_c, 2, 62, 45
4, 1748220, Note_off_c, 2, 62, 64
4, 1748220, Note_on_c, 2, 67, 45
4, 1748700, Note_off_c, 2, 67, 64
4, 1748700, Note_on_c, 2, 70, 45
4, 1748940, Note_off_c, 2, 70, 64
4, 1748940, Note_on_c, 2, 74, 45
4, 1749175, Note_off_c, 2, 74, 64
4, 1750140, Note_on_c, 2, 64, 45
4, 1750140, Note_on_c, 2, 67, 45
4, 1750380, Note_off_c, 2, 67, 64
4, 1750380, Note_off_c, 2, 64, 64
4, 1750380, Note_on_c, 2, 67, 52
4, 1750380, Note_on_c, 2, 70, 52
4, 1750780, Note_off_c, 2, 70, 64
4, 1750780, Note_off_c, 2, 67, 64
4, 1750860, Note_on_c, 2, 67, 67
4, 1750860, Note_on_c, 2, 70, 67
4, 1751095, Note_off_c, 2, 70, 64
4, 1751095, Note_off_c, 2, 67, 64
4, 1751100, Note_on_c, 2, 65, 75
4, 1751100, Note_on_c, 2, 69, 75
4, 1753660, Note_off_c, 2, 69, 64
4, 1753660, Note_off_c, 2, 65, 64
4, 1753740, Note_on_c, 2, 65, 75
4, 1753740, Note_on_c, 2, 69, 75
4, 1753975, Note_off_c, 2, 69, 64
4, 1753975, Note_off_c, 2, 65, 64
4, 1753980, Note_on_c, 2, 65, 75
4, 1753980, Note_on_c, 2, 69, 75
4, 1756540, Note_off_c, 2, 69, 64
4, 1756540, Note_off_c, 2, 65, 64
4, 1756620, Note_on_c, 2, 69, 75
4, 1756620, Note_on_c, 2, 77, 75
4, 1756855, Note_off_c, 2, 77, 64
4, 1756855, Note_off_c, 2, 69, 64
4, 1756860, Note_on_c, 2, 74, 75
4, 1756860, Note_on_c, 2, 77, 75
4, 1759420, Note_off_c, 2, 77, 64
4, 1759420, Note_off_c, 2, 74, 64
4, 1759500, Note_on_c, 2, 74, 75
4, 1759500, Note_on_c, 2, 77, 75
4, 1759735, Note_off_c, 2, 77, 64
4, 1759735, Note_off_c, 2, 74, 64
4, 1759740, Note_on_c, 2, 70, 75
4, 1759740, Note_on_c, 2, 77, 75
4, 1761180, Note_off_c, 2, 77, 64
4, 1761180, Note_on_c, 2, 76, 75
4, 1762300, Note_off_c, 2, 70, 64
4, 1762300, Note_off_c, 2, 76, 64
4, 1762380, Note_on_c, 2, 70, 75
4, 1762380, Note_on_c, 2, 76, 75
4, 1762615, Note_off_c, 2, 76, 64
4, 1762615, Note_off_c, 2, 70, 64
4, 1762620, Note_on_c, 2, 72, 75
4, 1762620, Note_on_c, 2, 75, 75
4, 1764060, Note_off_c, 2, 75, 64
4, 1764060, Note_off_c, 2, 72, 64
4, 1764060, Note_on_c, 2, 69, 75
4, 1764060, Note_on_c, 2, 72, 75
4, 1765380, Note_off_c, 2, 72, 64
4, 1765380, Note_off_c, 2, 69, 64
4, 1765500, Note_on_c, 2, 70, 75
4, 1765500, Note_on_c, 2, 75, 75
4, 1766220, Note_off_c, 2, 75, 64
4, 1766220, Note_off_c, 2, 70, 64
4, 1766220, Note_on_c, 2, 74, 75
4, 1766940, Note_off_c, 2, 74, 64
4, 1766940, Note_on_c, 2, 72, 75
4, 1767660, Note_off_c, 2, 72, 64
4, 1767660, Note_on_c, 2, 72, 75
4, 1768300, Note_off_c, 2, 72, 64
4, 1768380, Note_on_c, 2, 69, 60
4, 1769100, Note_off_c, 2, 69, 64
4, 1769100, Note_on_c, 2, 67, 60
4, 1769100, Note_on_c, 2, 70, 60
4, 1770540, Note_off_c, 2, 70, 64
4, 1770540, Note_off_c, 2, 67, 64
4, 1770540, Note_on_c, 2, 67, 53
4, 1770540, Note_on_c, 2, 70, 53
4, 1771980, Note_off_c, 2, 70, 64
4, 1771980, Note_off_c, 2, 67, 64
4, 1771980, Note_on_c, 2, 72, 45
4, 1773420, Note_off_c, 2, 72, 64
4, 1773420, Note_on_c, 2, 70, 45
4, 1774860, Note_off_c, 2, 70, 64
4, 1774860, Note_on_c, 2, 67, 45
4, 1776300, Note_off_c, 2, 67, 64
4, 1776300, Note_on_c, 2, 64, 45
4, 1777020, Note_off_c, 2, 64, 64
4, 1777020, Note_on_c, 2, 65, 30
4, 1777420, Note_off_c, 2, 65, 64
4, 1789320, Note_on_c, 2, 65, 75
4, 1789320, Note_on_c, 2, 69, 75
4, 1790040, Note_off_c, 2, 69, 64
4, 1790040, Note_off_c, 2, 65, 64
4, 1790040, Note_on_c, 2, 65, 75
4, 1790040, Note_on_c, 2, 70, 75
4, 1790275, Note_off_c, 2, 70, 64
4, 1790275, Note_off_c, 2, 65, 64
4, 1790520, Note_on_c, 2, 65, 75
4, 1790520, Note_on_c, 2, 72, 75
4, 1790755, Note_off_c, 2, 72, 64
4, 1790755, Note_off_c, 2, 65, 64
4, 1790760, Note_on_c, 2, 65, 75
4, 1790760, Note_on_c, 2, 74, 75
4, 1791880, Note_off_c, 2, 74, 64
4, 1791880, Note_off_c, 2, 65, 64
4, 1798080, Note_on_c, 2, 69, 45
4, 1798080, Note_on_c, 2, 72, 45
4, 1798320, Note_off_c, 2, 72, 64
4, 1798320, Note_off_c, 2, 69, 64
4, 1798320, Note_on_c, 2, 67, 45
4, 1798320, Note_on_c, 2, 72, 45
4, 1799520, Note_off_c, 2, 72, 64
4, 1799520, Note_off_c, 2, 67, 64
4, 1799520, Note_on_c, 2, 67, 45
4, 1799520, Note_on_c, 2, 72, 45
4, 1799760, Note_off_c, 2, 72, 64
4, 1799760, Note_off_c, 2, 67, 64
4, 1799760, Note_on_c, 2, 69, 45
4, 1799760, Note_on_c, 2, 72, 45
4, 1800400, Note_off_c, 2, 72, 64
4, 1800400, Note_off_c, 2, 69, 64
4, 1801080, Note_on_c, 2, 69, 30
4, 1801080, Note_on_c, 2, 72, 30
4, 1801320, Note_off_c, 2, 72, 64
4, 1801320, Note_off_c, 2, 69, 64
4, 1801320, Note_on_c, 2, 67, 36
4, 1801320, Note_on_c, 2, 72, 36
4, 1802440, Note_off_c, 2, 72, 64
4, 1802440, Note_off_c, 2, 67, 64
4, 1802520, Note_on_c, 2, 67, 68
4, 1802520, Note_on_c, 2, 72, 68
4, 1802755, Note_off_c, 2, 72, 64
4, 1802755, Note_off_c, 2, 67, 64
4, 1802760, Note_on_c, 2, 67, 75
4, 1802760, Note_on_c, 2, 76, 75
4, 1805640, Note_off_c, 2, 76, 64
4, 1805640, Note_off_c, 2, 67, 64
4, 1805640, Note_on_c, 2, 67, 60
4, 1805640, Note_on_c, 2, 76, 60
4, 1807080, Note_off_c, 2, 76, 64
4, 1807080, Note_off_c, 2, 67, 64
4, 1807080, Note_on_c, 2, 67, 45
4, 1807080, Note_on_c, 2, 76, 45
4, 1808400, Note_off_c, 2, 76, 64
4, 1808400, Note_off_c, 2, 67, 64
4, 1808520, Note_on_c, 2, 69, 45
4, 1808520, Note_on_c, 2, 77, 45
4, 1809840, Note_off_c, 2, 77, 64
4, 1809840, Note_off_c, 2, 69, 64
4, 1810020, Note_on_c, 2, 69, 45
4, 1810020, Note_on_c, 2, 77, 45
4, 1811340, Note_off_c, 2, 77, 64
4, 1811340, Note_off_c, 2, 69, 64
4, 1811520, Note_on_c, 2, 65, 45
4, 1816960, Note_off_c, 2, 65, 64
4, 1817040, Note_on_c, 2, 60, 75
4, 1817040, Note_on_c, 2, 69, 75
4, 1817275, Note_off_c, 2, 69, 64
4, 1817275, Note_off_c, 2, 60, 64
4, 1817280, Note_on_c, 2, 57, 75
4, 1817280, Note_on_c, 2, 65, 75
4, 1818040, Note_off_c, 2, 65, 64
4, 1818040, Note_off_c, 2, 57, 64
4, 1818040, End_track
5, 0, Start_track
5, 0, Title_t, "arr : Pollen (1999)"
5, 0, MIDI_port, 0
5, 0, Channel_prefix, 3
5, 0, Control_c, 3, 7, 127
5, 0, Control_c, 3, 10, 70
5, 0, Control_c, 3, 91, 95
5, 0, Program_c, 3, 70
5, 18600, Note_on_c, 3, 60, 92
5, 18680, Note_off_c, 3, 60, 64
5, 18840, Note_on_c, 3, 55, 92
5, 18960, Note_off_c, 3, 55, 64
5, 18960, Note_on_c, 3, 57, 92
5, 19080, Note_off_c, 3, 57, 64
5, 19080, Note_on_c, 3, 58, 92
5, 19160, Note_off_c, 3, 58, 64
5, 19320, Note_on_c, 3, 59, 92
5, 19400, Note_off_c, 3, 59, 64
5, 19560, Note_on_c, 3, 60, 92
5, 19640, Note_off_c, 3, 60, 64
5, 31320, Note_on_c, 3, 53, 45
5, 31320, Note_on_c, 3, 57, 45
5, 31400, Note_off_c, 3, 57, 64
5, 31400, Note_off_c, 3, 53, 64
5, 31560, Note_on_c, 3, 55, 45
5, 31560, Note_on_c, 3, 58, 45
5, 31640, Note_off_c, 3, 58, 64
5, 31640, Note_off_c, 3, 55, 64
5, 31800, Note_on_c, 3, 58, 45
5, 31800, Note_on_c, 3, 62, 45
5, 31880, Note_off_c, 3, 62, 64
5, 31880, Note_off_c, 3, 58, 64
5, 32040, Note_on_c, 3, 57, 45
5, 32040, Note_on_c, 3, 60, 45
5, 32280, Note_off_c, 3, 60, 64
5, 32280, Note_off_c, 3, 57, 64
5, 32280, Note_on_c, 3, 55, 47
5, 32280, Note_on_c, 3, 58, 47
5, 32400, Note_off_c, 3, 58, 64
5, 32400, Note_off_c, 3, 55, 64
5, 32400, Note_on_c, 3, 53, 48
5, 32400, Note_on_c, 3, 57, 48
5, 32515, Note_off_c, 3, 57, 64
5, 32515, Note_off_c, 3, 53, 64
5, 32520, Note_on_c, 3, 52, 49
5, 32520, Note_on_c, 3, 55, 49
5, 32600, Note_off_c, 3, 55, 64
5, 32600, Note_off_c, 3, 52, 64
5, 32760, Note_on_c, 3, 48, 51
5, 32840, Note_off_c, 3, 48, 64
5, 33000, Note_on_c, 3, 53, 53
5, 33080, Note_off_c, 3, 53, 64
5, 33240, Note_on_c, 3, 52, 55
5, 33240, Note_on_c, 3, 55, 55
5, 33320, Note_off_c, 3, 55, 64
5, 33320, Note_off_c, 3, 52, 64
5, 33480, Note_on_c, 3, 53, 57
5, 33480, Note_on_c, 3, 57, 57
5, 33720, Note_off_c, 3, 57, 64
5, 33720, Note_off_c, 3, 53, 64
5, 33720, Note_on_c, 3, 55, 60
5, 33720, Note_on_c, 3, 58, 60
5, 33840, Note_off_c, 3, 58, 64
5, 33840, Note_off_c, 3, 55, 64
5, 33840, Note_on_c, 3, 53, 61
5, 33840, Note_on_c, 3, 57, 61
5, 33955, Note_off_c, 3, 57, 64
5, 33955, Note_off_c, 3, 53, 64
5, 33960, Note_on_c, 3, 52, 62
5, 33960, Note_on_c, 3, 55, 62
5, 34040, Note_off_c, 3, 55, 64
5, 34040, Note_off_c, 3, 52, 64
5, 34200, Note_on_c, 3, 53, 65
5, 34200, Note_on_c, 3, 57, 65
5, 34280, Note_off_c, 3, 57, 64
5, 34280, Note_off_c, 3, 53, 64
5, 34440, Note_on_c, 3, 55, 68
5, 34440, Note_on_c, 3, 58, 68
5, 34680, Note_off_c, 3, 58, 64
5, 34680, Note_off_c, 3, 55, 64
5, 34680, Note_on_c, 3, 57, 71
5, 34680, Note_on_c, 3, 60, 71
5, 34800, Note_off_c, 3, 60, 64
5, 34800, Note_off_c, 3, 57, 64
5, 34800, Note_on_c, 3, 55, 73
5, 34800, Note_on_c, 3, 58, 73
5, 34915, Note_off_c, 3, 58, 64
5, 34915, Note_off_c, 3, 55, 64
5, 34920, Note_on_c, 3, 53, 75
5, 34920, Note_on_c, 3, 57, 75
5, 35000, Note_off_c, 3, 57, 64
5, 35000, Note_off_c, 3, 53, 64
5, 35160, Note_on_c, 3, 53, 75
5, 35160, Note_on_c, 3, 60, 75
5, 35240, Note_off_c, 3, 60, 64
5, 35240, Note_off_c, 3, 53, 64
5, 35400, Note_on_c, 3, 53, 75
5, 35400, Note_on_c, 3, 60, 75
5, 35480, Note_off_c, 3, 60, 64
5, 35480, Note_off_c, 3, 53, 64
5, 35640, Note_on_c, 3, 53, 75
5, 35640, Note_on_c, 3, 60, 75
5, 35720, Note_off_c, 3, 60, 64
5, 35720, Note_off_c, 3, 53, 64
5, 35880, Note_on_c, 3, 53, 75
5, 35880, Note_on_c, 3, 60, 75
5, 35960, Note_off_c, 3, 60, 64
5, 35960, Note_off_c, 3, 53, 64
5, 36120, Note_on_c, 3, 53, 75
5, 36120, Note_on_c, 3, 60, 75
5, 36200, Note_off_c, 3, 60, 64
5, 36200, Note_off_c, 3, 53, 64
5, 36360, Note_on_c, 3, 53, 75
5, 36360, Note_on_c, 3, 60, 75
5, 36440, Note_off_c, 3, 60, 64
5, 36440, Note_off_c, 3, 53, 64
5, 36600, Note_on_c, 3, 53, 75
5, 36600, Note_on_c, 3, 60, 75
5, 36680, Note_off_c, 3, 60, 64
5, 36680, Note_off_c, 3, 53, 64
5, 36840, Note_on_c, 3, 53, 75
5, 36840, Note_on_c, 3, 60, 75
5, 36920, Note_off_c, 3, 60, 64
5, 36920, Note_off_c, 3, 53, 64
5, 37080, Note_on_c, 3, 53, 75
5, 37080, Note_on_c, 3, 60, 75
5, 37160, Note_off_c, 3, 60, 64
5, 37160, Note_off_c, 3, 53, 64
5, 37320, Note_on_c, 3, 53, 75
5, 37320, Note_on_c, 3, 60, 75
5, 37400, Note_off_c, 3, 60, 64
5, 37400, Note_off_c, 3, 53, 64
5, 37560, Note_on_c, 3, 53, 75
5, 37560, Note_on_c, 3, 60, 75
5, 37640, Note_off_c, 3, 60, 64
5, 37640, Note_off_c, 3, 53, 64
5, 37800, Note_on_c, 3, 53, 75
5, 37800, Note_on_c, 3, 60, 75
5, 37880, Note_off_c, 3, 60, 64
5, 37880, Note_off_c, 3, 53, 64
5, 38040, Note_on_c, 3, 53, 75
5, 38040, Note_on_c, 3, 60, 75
5, 38120, Note_off_c, 3, 60, 64
5, 38120, Note_off_c, 3, 53, 64
5, 38280, Note_on_c, 3, 53, 75
5, 38280, Note_on_c, 3, 60, 75
5, 38360, Note_off_c, 3, 60, 64
5, 38360, Note_off_c, 3, 53, 64
5, 38520, Note_on_c, 3, 53, 75
5, 38520, Note_on_c, 3, 60, 75
5, 38600, Note_off_c, 3, 60, 64
5, 38600, Note_off_c, 3, 53, 64
5, 38760, Note_on_c, 3, 53, 75
5, 38760, Note_on_c, 3, 60, 75
5, 39000, Note_off_c, 3, 60, 64
5, 39000, Note_off_c, 3, 53, 64
5, 39000, Note_on_c, 3, 57, 75
5, 39000, Note_on_c, 3, 60, 75
5, 39080, Note_off_c, 3, 60, 64
5, 39080, Note_off_c, 3, 57, 64
5, 39240, Note_on_c, 3, 57, 75
5, 39240, Note_on_c, 3, 60, 75
5, 39320, Note_off_c, 3, 60, 64
5, 39320, Note_off_c, 3, 57, 64
5, 39480, Note_on_c, 3, 57, 75
5, 39480, Note_on_c, 3, 60, 75
5, 39560, Note_off_c, 3, 60, 64
5, 39560, Note_off_c, 3, 57, 64
5, 39720, Note_on_c, 3, 57, 75
5, 39720, Note_on_c, 3, 60, 75
5, 40200, Note_off_c, 3, 60, 64
5, 40200, Note_off_c, 3, 57, 64
5, 40200, Note_on_c, 3, 53, 75
5, 40200, Note_on_c, 3, 57, 75
5, 40440, Note_off_c, 3, 57, 64
5, 40440, Note_off_c, 3, 53, 64
5, 40440, Note_on_c, 3, 53, 75
5, 40675, Note_off_c, 3, 53, 64
5, 40680, Note_on_c, 3, 58, 75
5, 40760, Note_off_c, 3, 58, 64
5, 40920, Note_on_c, 3, 57, 75
5, 41000, Note_off_c, 3, 57, 64
5, 41160, Note_on_c, 3, 55, 75
5, 41400, Note_off_c, 3, 55, 64
5, 41400, Note_on_c, 3, 53, 75
5, 41520, Note_off_c, 3, 53, 64
5, 41520, Note_on_c, 3, 55, 75
5, 41635, Note_off_c, 3, 55, 64
5, 41640, Note_on_c, 3, 57, 75
5, 41720, Note_off_c, 3, 57, 64
5, 41880, Note_on_c, 3, 55, 75
5, 41960, Note_off_c, 3, 55, 64
5, 42120, Note_on_c, 3, 53, 75
5, 42360, Note_off_c, 3, 53, 64
5, 42360, Note_on_c, 3, 52, 75
5, 42480, Note_off_c, 3, 52, 64
5, 42480, Note_on_c, 3, 53, 75
5, 42595, Note_off_c, 3, 53, 64
5, 42600, Note_on_c, 3, 55, 75
5, 42680, Note_off_c, 3, 55, 64
5, 42840, Note_on_c, 3, 52, 75
5, 42920, Note_off_c, 3, 52, 64
5, 43080, Note_on_c, 3, 48, 75
5, 43160, Note_off_c, 3, 48, 64
5, 43320, Note_on_c, 3, 52, 75
5, 43400, Note_off_c, 3, 52, 64
5, 43560, Note_on_c, 3, 55, 75
5, 43800, Note_off_c, 3, 55, 64
5, 43800, Note_on_c, 3, 52, 75
5, 44040, Note_off_c, 3, 52, 64
5, 44040, Note_on_c, 3, 48, 75
5, 44280, Note_off_c, 3, 48, 64
5, 44280, Note_on_c, 3, 60, 75
5, 44515, Note_off_c, 3, 60, 64
5, 44520, Note_on_c, 3, 57, 75
5, 44600, Note_off_c, 3, 57, 64
5, 44760, Note_on_c, 3, 55, 75
5, 44840, Note_off_c, 3, 55, 64
5, 45000, Note_on_c, 3, 53, 75
5, 45240, Note_off_c, 3, 53, 64
5, 45240, Note_on_c, 3, 52, 75
5, 45360, Note_off_c, 3, 52, 64
5, 45360, Note_on_c, 3, 53, 75
5, 45475, Note_off_c, 3, 53, 64
5, 45480, Note_on_c, 3, 55, 75
5, 45720, Note_off_c, 3, 55, 64
5, 45720, Note_on_c, 3, 48, 75
5, 45960, Note_off_c, 3, 48, 64
5, 45960, Note_on_c, 3, 55, 75
5, 46200, Note_off_c, 3, 55, 64
5, 46200, Note_on_c, 3, 48, 75
5, 46435, Note_off_c, 3, 48, 64
5, 46440, Note_on_c, 3, 57, 75
5, 46520, Note_off_c, 3, 57, 64
5, 46680, Note_on_c, 3, 55, 75
5, 46760, Note_off_c, 3, 55, 64
5, 46920, Note_on_c, 3, 53, 75
5, 47160, Note_off_c, 3, 53, 64
5, 47160, Note_on_c, 3, 52, 75
5, 47280, Note_off_c, 3, 52, 64
5, 47280, Note_on_c, 3, 53, 75
5, 47395, Note_off_c, 3, 53, 64
5, 47400, Note_on_c, 3, 55, 75
5, 47480, Note_off_c, 3, 55, 64
5, 47640, Note_on_c, 3, 48, 75
5, 47720, Note_off_c, 3, 48, 64
5, 47880, Note_on_c, 3, 55, 75
5, 47960, Note_off_c, 3, 55, 64
5, 48120, Note_on_c, 3, 48, 75
5, 48200, Note_off_c, 3, 48, 64
5, 48360, Note_on_c, 3, 53, 75
5, 48600, Note_off_c, 3, 53, 64
5, 48600, Note_on_c, 3, 55, 75
5, 48600, Note_on_c, 3, 58, 75
5, 48840, Note_off_c, 3, 58, 64
5, 48840, Note_off_c, 3, 55, 64
5, 48840, Note_on_c, 3, 48, 75
5, 48840, Note_on_c, 3, 55, 75
5, 49080, Note_off_c, 3, 55, 64
5, 49080, Note_off_c, 3, 48, 64
5, 49080, Note_on_c, 3, 55, 75
5, 49080, Note_on_c, 3, 58, 75
5, 49315, Note_off_c, 3, 58, 64
5, 49315, Note_off_c, 3, 55, 64
5, 49320, Note_on_c, 3, 53, 75
5, 49320, Note_on_c, 3, 57, 75
5, 49560, Note_off_c, 3, 57, 64
5, 49560, Note_off_c, 3, 53, 64
5, 49560, Note_on_c, 3, 55, 68
5, 49560, Note_on_c, 3, 58, 68
5, 49800, Note_off_c, 3, 58, 64
5, 49800, Note_off_c, 3, 55, 64
5, 49800, Note_on_c, 3, 48, 61
5, 49800, Note_on_c, 3, 55, 61
5, 50040, Note_off_c, 3, 55, 64
5, 50040, Note_off_c, 3, 48, 64
5, 50040, Note_on_c, 3, 55, 53
5, 50040, Note_on_c, 3, 58, 53
5, 50275, Note_off_c, 3, 58, 64
5, 50275, Note_off_c, 3, 55, 64
5, 50280, Note_on_c, 3, 53, 45
5, 50280, Note_on_c, 3, 57, 45
5, 50385, Note_off_c, 3, 57, 64
5, 50385, Note_off_c, 3, 53, 64
5, 50440, Note_on_c, 3, 53, 45
5, 50440, Note_on_c, 3, 57, 45
5, 50545, Note_off_c, 3, 57, 64
5, 50545, Note_off_c, 3, 53, 64
5, 50600, Note_on_c, 3, 53, 45
5, 50600, Note_on_c, 3, 57, 45
5, 50705, Note_off_c, 3, 57, 64
5, 50705, Note_off_c, 3, 53, 64
5, 50760, Note_on_c, 3, 53, 45
5, 50760, Note_on_c, 3, 57, 45
5, 50865, Note_off_c, 3, 57, 64
5, 50865, Note_off_c, 3, 53, 64
5, 50920, Note_on_c, 3, 53, 45
5, 50920, Note_on_c, 3, 57, 45
5, 51025, Note_off_c, 3, 57, 64
5, 51025, Note_off_c, 3, 53, 64
5, 51080, Note_on_c, 3, 53, 45
5, 51080, Note_on_c, 3, 57, 45
5, 51185, Note_off_c, 3, 57, 64
5, 51185, Note_off_c, 3, 53, 64
5, 51240, Note_on_c, 3, 53, 45
5, 51240, Note_on_c, 3, 57, 45
5, 51720, Note_off_c, 3, 57, 64
5, 51720, Note_off_c, 3, 53, 64
5, 54120, Note_on_c, 3, 50, 45
5, 54120, Note_on_c, 3, 57, 45
5, 54225, Note_off_c, 3, 57, 64
5, 54225, Note_off_c, 3, 50, 64
5, 54280, Note_on_c, 3, 50, 45
5, 54280, Note_on_c, 3, 57, 45
5, 54385, Note_off_c, 3, 57, 64
5, 54385, Note_off_c, 3, 50, 64
5, 54440, Note_on_c, 3, 50, 45
5, 54440, Note_on_c, 3, 57, 45
5, 54545, Note_off_c, 3, 57, 64
5, 54545, Note_off_c, 3, 50, 64
5, 54600, Note_on_c, 3, 50, 45
5, 54600, Note_on_c, 3, 57, 45
5, 54705, Note_off_c, 3, 57, 64
5, 54705, Note_off_c, 3, 50, 64
5, 54760, Note_on_c, 3, 50, 45
5, 54760, Note_on_c, 3, 57, 45
5, 54865, Note_off_c, 3, 57, 64
5, 54865, Note_off_c, 3, 50, 64
5, 54920, Note_on_c, 3, 50, 45
5, 54920, Note_on_c, 3, 57, 45
5, 55025, Note_off_c, 3, 57, 64
5, 55025, Note_off_c, 3, 50, 64
5, 55080, Note_on_c, 3, 50, 45
5, 55080, Note_on_c, 3, 57, 45
5, 55560, Note_off_c, 3, 57, 64
5, 55560, Note_off_c, 3, 50, 64
5, 57960, Note_on_c, 3, 48, 45
5, 57960, Note_on_c, 3, 57, 45
5, 58065, Note_off_c, 3, 57, 64
5, 58065, Note_off_c, 3, 48, 64
5, 58120, Note_on_c, 3, 48, 45
5, 58120, Note_on_c, 3, 57, 45
5, 58225, Note_off_c, 3, 57, 64
5, 58225, Note_off_c, 3, 48, 64
5, 58280, Note_on_c, 3, 48, 45
5, 58280, Note_on_c, 3, 57, 45
5, 58385, Note_off_c, 3, 57, 64
5, 58385, Note_off_c, 3, 48, 64
5, 58440, Note_on_c, 3, 48, 45
5, 58440, Note_on_c, 3, 57, 45
5, 58545, Note_off_c, 3, 57, 64
5, 58545, Note_off_c, 3, 48, 64
5, 58600, Note_on_c, 3, 48, 45
5, 58600, Note_on_c, 3, 57, 45
5, 58705, Note_off_c, 3, 57, 64
5, 58705, Note_off_c, 3, 48, 64
5, 58760, Note_on_c, 3, 48, 45
5, 58760, Note_on_c, 3, 57, 45
5, 58865, Note_off_c, 3, 57, 64
5, 58865, Note_off_c, 3, 48, 64
5, 58920, Note_on_c, 3, 48, 45
5, 58920, Note_on_c, 3, 57, 45
5, 59320, Note_off_c, 3, 57, 64
5, 59320, Note_off_c, 3, 48, 64
5, 59880, Note_on_c, 3, 59, 45
5, 59880, Note_on_c, 3, 62, 45
5, 59985, Note_off_c, 3, 62, 64
5, 59985, Note_off_c, 3, 59, 64
5, 60040, Note_on_c, 3, 59, 45
5, 60040, Note_on_c, 3, 62, 45
5, 60145, Note_off_c, 3, 62, 64
5, 60145, Note_off_c, 3, 59, 64
5, 60200, Note_on_c, 3, 59, 45
5, 60200, Note_on_c, 3, 62, 45
5, 60305, Note_off_c, 3, 62, 64
5, 60305, Note_off_c, 3, 59, 64
5, 60360, Note_on_c, 3, 59, 45
5, 60360, Note_on_c, 3, 62, 45
5, 60465, Note_off_c, 3, 62, 64
5, 60465, Note_off_c, 3, 59, 64
5, 60520, Note_on_c, 3, 59, 45
5, 60520, Note_on_c, 3, 62, 45
5, 60625, Note_off_c, 3, 62, 64
5, 60625, Note_off_c, 3, 59, 64
5, 60680, Note_on_c, 3, 59, 45
5, 60680, Note_on_c, 3, 62, 45
5, 60785, Note_off_c, 3, 62, 64
5, 60785, Note_off_c, 3, 59, 64
5, 60840, Note_on_c, 3, 59, 45
5, 60840, Note_on_c, 3, 62, 45
5, 61240, Note_off_c, 3, 62, 64
5, 61240, Note_off_c, 3, 59, 64
5, 81000, Note_on_c, 3, 69, 75
5, 81240, Note_off_c, 3, 69, 64
5, 81240, Note_on_c, 3, 67, 75
5, 81480, Note_off_c, 3, 67, 64
5, 81480, Note_on_c, 3, 64, 75
5, 81720, Note_off_c, 3, 64, 64
5, 81720, Note_on_c, 3, 60, 75
5, 81960, Note_off_c, 3, 60, 64
5, 81960, Note_on_c, 3, 55, 75
5, 82200, Note_off_c, 3, 55, 64
5, 82200, Note_on_c, 3, 64, 75
5, 82440, Note_off_c, 3, 64, 64
5, 82440, Note_on_c, 3, 60, 75
5, 82680, Note_off_c, 3, 60, 64
5, 82680, Note_on_c, 3, 55, 75
5, 82915, Note_off_c, 3, 55, 64
5, 82920, Note_on_c, 3, 69, 76
5, 83160, Note_off_c, 3, 69, 64
5, 83160, Note_on_c, 3, 67, 77
5, 83400, Note_off_c, 3, 67, 64
5, 83400, Note_on_c, 3, 65, 78
5, 83640, Note_off_c, 3, 65, 64
5, 83640, Note_on_c, 3, 62, 79
5, 83880, Note_off_c, 3, 62, 64
5, 83880, Note_on_c, 3, 55, 80
5, 84120, Note_off_c, 3, 55, 64
5, 84120, Note_on_c, 3, 65, 81
5, 84360, Note_off_c, 3, 65, 64
5, 84360, Note_on_c, 3, 62, 82
5, 84600, Note_off_c, 3, 62, 64
5, 84600, Note_on_c, 3, 55, 83
5, 84835, Note_off_c, 3, 55, 64
5, 84840, Note_on_c, 3, 69, 84
5, 85080, Note_off_c, 3, 69, 64
5, 85080, Note_on_c, 3, 67, 85
5, 85320, Note_off_c, 3, 67, 64
5, 85320, Note_on_c, 3, 64, 86
5, 85560, Note_off_c, 3, 64, 64
5, 85560, Note_on_c, 3, 60, 87
5, 85800, Note_off_c, 3, 60, 64
5, 85800, Note_on_c, 3, 55, 88
5, 86040, Note_off_c, 3, 55, 64
5, 86040, Note_on_c, 3, 64, 89
5, 86280, Note_off_c, 3, 64, 64
5, 86280, Note_on_c, 3, 60, 90
5, 86520, Note_off_c, 3, 60, 64
5, 86520, Note_on_c, 3, 55, 91
5, 86755, Note_off_c, 3, 55, 64
5, 86760, Note_on_c, 3, 69, 92
5, 87000, Note_off_c, 3, 69, 64
5, 87000, Note_on_c, 3, 67, 92
5, 87240, Note_off_c, 3, 67, 64
5, 87240, Note_on_c, 3, 65, 92
5, 87480, Note_off_c, 3, 65, 64
5, 87480, Note_on_c, 3, 62, 92
5, 87720, Note_off_c, 3, 62, 64
5, 87720, Note_on_c, 3, 55, 92
5, 87960, Note_off_c, 3, 55, 64
5, 87960, Note_on_c, 3, 65, 88
5, 88200, Note_off_c, 3, 65, 64
5, 88200, Note_on_c, 3, 62, 84
5, 88440, Note_off_c, 3, 62, 64
5, 88440, Note_on_c, 3, 55, 80
5, 88675, Note_off_c, 3, 55, 64
5, 88680, Note_on_c, 3, 60, 75
5, 88680, Note_on_c, 3, 64, 75
5, 88915, Note_off_c, 3, 64, 64
5, 88915, Note_off_c, 3, 60, 64
5, 91560, Note_on_c, 3, 53, 75
5, 91560, Note_on_c, 3, 57, 75
5, 91800, Note_off_c, 3, 57, 64
5, 91800, Note_off_c, 3, 53, 64
5, 93480, Note_on_c, 3, 64, 45
5, 93480, Note_on_c, 3, 67, 45
5, 93960, Note_off_c, 3, 67, 64
5, 93960, Note_off_c, 3, 64, 64
5, 93960, Note_on_c, 3, 62, 45
5, 93960, Note_on_c, 3, 65, 45
5, 94200, Note_off_c, 3, 65, 64
5, 94200, Note_off_c, 3, 62, 64
5, 94200, Note_on_c, 3, 60, 45
5, 94200, Note_on_c, 3, 64, 45
5, 94435, Note_off_c, 3, 64, 64
5, 94435, Note_off_c, 3, 60, 64
5, 94440, Note_on_c, 3, 60, 45
5, 94440, Note_on_c, 3, 64, 45
5, 94680, Note_off_c, 3, 64, 64
5, 94680, Note_off_c, 3, 60, 64
5, 94680, Note_on_c, 3, 59, 45
5, 94680, Note_on_c, 3, 62, 45
5, 94920, Note_off_c, 3, 62, 64
5, 94920, Note_off_c, 3, 59, 64
5, 94920, Note_on_c, 3, 57, 45
5, 94920, Note_on_c, 3, 60, 45
5, 95160, Note_off_c, 3, 60, 64
5, 95160, Note_off_c, 3, 57, 64
5, 95160, Note_on_c, 3, 59, 45
5, 95160, Note_on_c, 3, 62, 45
5, 95400, Note_off_c, 3, 62, 64
5, 95400, Note_off_c, 3, 59, 64
5, 95400, Note_on_c, 3, 60, 45
5, 95400, Note_on_c, 3, 64, 45
5, 95635, Note_off_c, 3, 64, 64
5, 95635, Note_off_c, 3, 60, 64
5, 98280, Note_on_c, 3, 53, 75
5, 98280, Note_on_c, 3, 57, 75
5, 98520, Note_off_c, 3, 57, 64
5, 98520, Note_off_c, 3, 53, 64
5, 99240, Note_on_c, 3, 57, 45
5, 99240, Note_on_c, 3, 60, 45
5, 99720, Note_off_c, 3, 60, 64
5, 99720, Note_off_c, 3, 57, 64
5, 99720, Note_on_c, 3, 55, 45
5, 99720, Note_on_c, 3, 59, 45
5, 99960, Note_off_c, 3, 59, 64
5, 99960, Note_off_c, 3, 55, 64
5, 99960, Note_on_c, 3, 53, 45
5, 99960, Note_on_c, 3, 57, 45
5, 100195, Note_off_c, 3, 57, 64
5, 100195, Note_off_c, 3, 53, 64
5, 100200, Note_on_c, 3, 52, 45
5, 100200, Note_on_c, 3, 55, 45
5, 100680, Note_off_c, 3, 55, 64
5, 100680, Note_off_c, 3, 52, 64
5, 100680, Note_on_c, 3, 50, 45
5, 100680, Note_on_c, 3, 53, 45
5, 100920, Note_off_c, 3, 53, 64
5, 100920, Note_off_c, 3, 50, 64
5, 100920, Note_on_c, 3, 48, 45
5, 100920, Note_on_c, 3, 52, 45
5, 101155, Note_off_c, 3, 52, 64
5, 101155, Note_off_c, 3, 48, 64
5, 101160, Note_on_c, 3, 47, 45
5, 101160, Note_on_c, 3, 50, 45
5, 101640, Note_off_c, 3, 50, 64
5, 101640, Note_off_c, 3, 47, 64
5, 101640, Note_on_c, 3, 45, 45
5, 101640, Note_on_c, 3, 48, 45
5, 101880, Note_off_c, 3, 48, 64
5, 101880, Note_off_c, 3, 45, 64
5, 101880, Note_on_c, 3, 47, 45
5, 101880, Note_on_c, 3, 50, 45
5, 102115, Note_off_c, 3, 50, 64
5, 102115, Note_off_c, 3, 47, 64
5, 102120, Note_on_c, 3, 48, 45
5, 102120, Note_on_c, 3, 52, 45
5, 102200, Note_off_c, 3, 52, 64
5, 102200, Note_off_c, 3, 48, 64
5, 102360, Note_on_c, 3, 48, 45
5, 102360, Note_on_c, 3, 52, 45
5, 102600, Note_off_c, 3, 52, 64
5, 102600, Note_off_c, 3, 48, 64
5, 102600, Note_on_c, 3, 50, 45
5, 102600, Note_on_c, 3, 53, 45
5, 102840, Note_off_c, 3, 53, 64
5, 102840, Note_off_c, 3, 50, 64
5, 102840, Note_on_c, 3, 52, 47
5, 102840, Note_on_c, 3, 55, 47
5, 103075, Note_off_c, 3, 55, 64
5, 103075, Note_off_c, 3, 52, 64
5, 103080, Note_on_c, 3, 53, 49
5, 103080, Note_on_c, 3, 57, 49
5, 103160, Note_off_c, 3, 57, 64
5, 103160, Note_off_c, 3, 53, 64
5, 103320, Note_on_c, 3, 57, 51
5, 103320, Note_on_c, 3, 60, 51
5, 103560, Note_off_c, 3, 60, 64
5, 103560, Note_off_c, 3, 57, 64
5, 103560, Note_on_c, 3, 55, 53
5, 103560, Note_on_c, 3, 59, 53
5, 103800, Note_off_c, 3, 59, 64
5, 103800, Note_off_c, 3, 55, 64
5, 103800, Note_on_c, 3, 53, 55
5, 103800, Note_on_c, 3, 57, 55
5, 104035, Note_off_c, 3, 57, 64
5, 104035, Note_off_c, 3, 53, 64
5, 104040, Note_on_c, 3, 52, 57
5, 104040, Note_on_c, 3, 55, 57
5, 104120, Note_off_c, 3, 55, 64
5, 104120, Note_off_c, 3, 52, 64
5, 104280, Note_on_c, 3, 52, 59
5, 104280, Note_on_c, 3, 55, 59
5, 104520, Note_off_c, 3, 55, 64
5, 104520, Note_off_c, 3, 52, 64
5, 104520, Note_on_c, 3, 50, 61
5, 104520, Note_on_c, 3, 53, 61
5, 104760, Note_off_c, 3, 53, 64
5, 104760, Note_off_c, 3, 50, 64
5, 104760, Note_on_c, 3, 48, 63
5, 104760, Note_on_c, 3, 52, 63
5, 104995, Note_off_c, 3, 52, 64
5, 104995, Note_off_c, 3, 48, 64
5, 105000, Note_on_c, 3, 47, 65
5, 105000, Note_on_c, 3, 50, 65
5, 105480, Note_off_c, 3, 50, 64
5, 105480, Note_off_c, 3, 47, 64
5, 105480, Note_on_c, 3, 45, 70
5, 105480, Note_on_c, 3, 48, 70
5, 105720, Note_off_c, 3, 48, 64
5, 105720, Note_off_c, 3, 45, 64
5, 105720, Note_on_c, 3, 47, 72
5, 105720, Note_on_c, 3, 50, 72
5, 105955, Note_off_c, 3, 50, 64
5, 105955, Note_off_c, 3, 47, 64
5, 105960, Note_on_c, 3, 48, 75
5, 105960, Note_on_c, 3, 52, 75
5, 106195, Note_off_c, 3, 52, 64
5, 106195, Note_off_c, 3, 48, 64
5, 106440, Note_on_c, 3, 52, 75
5, 106440, Note_on_c, 3, 55, 75
5, 106675, Note_off_c, 3, 55, 64
5, 106675, Note_off_c, 3, 52, 64
5, 106920, Note_on_c, 3, 53, 75
5, 106920, Note_on_c, 3, 57, 75
5, 107155, Note_off_c, 3, 57, 64
5, 107155, Note_off_c, 3, 53, 64
5, 107400, Note_on_c, 3, 53, 75
5, 107400, Note_on_c, 3, 57, 75
5, 107635, Note_off_c, 3, 57, 64
5, 107635, Note_off_c, 3, 53, 64
5, 107880, Note_on_c, 3, 52, 75
5, 107880, Note_on_c, 3, 55, 75
5, 108115, Note_off_c, 3, 55, 64
5, 108115, Note_off_c, 3, 52, 64
5, 108360, Note_on_c, 3, 52, 75
5, 108360, Note_on_c, 3, 60, 75
5, 108595, Note_off_c, 3, 60, 64
5, 108595, Note_off_c, 3, 52, 64
5, 108840, Note_on_c, 3, 50, 75
5, 108840, Note_on_c, 3, 59, 75
5, 109075, Note_off_c, 3, 59, 64
5, 109075, Note_off_c, 3, 50, 64
5, 109320, Note_on_c, 3, 50, 75
5, 109320, Note_on_c, 3, 59, 75
5, 109555, Note_off_c, 3, 59, 64
5, 109555, Note_off_c, 3, 50, 64
5, 109800, Note_on_c, 3, 48, 60
5, 109800, Note_on_c, 3, 60, 60
5, 110280, Note_off_c, 3, 60, 64
5, 110280, Note_off_c, 3, 48, 64
5, 110280, Note_on_c, 3, 43, 60
5, 110280, Note_on_c, 3, 55, 60
5, 111600, Note_off_c, 3, 55, 64
5, 111600, Note_off_c, 3, 43, 64
5, 111720, Note_on_c, 3, 52, 60
5, 111720, Note_on_c, 3, 64, 60
5, 112200, Note_off_c, 3, 64, 64
5, 112200, Note_off_c, 3, 52, 64
5, 112200, Note_on_c, 3, 48, 60
5, 112200, Note_on_c, 3, 60, 60
5, 113520, Note_off_c, 3, 60, 64
5, 113520, Note_off_c, 3, 48, 64
5, 113640, Note_on_c, 3, 48, 60
5, 113640, Note_on_c, 3, 60, 60
5, 114120, Note_off_c, 3, 60, 64
5, 114120, Note_off_c, 3, 48, 64
5, 114120, Note_on_c, 3, 43, 60
5, 114120, Note_on_c, 3, 55, 60
5, 115440, Note_off_c, 3, 55, 64
5, 115440, Note_off_c, 3, 43, 64
5, 115560, Note_on_c, 3, 52, 60
5, 115560, Note_on_c, 3, 64, 60
5, 116040, Note_off_c, 3, 64, 64
5, 116040, Note_off_c, 3, 52, 64
5, 116040, Note_on_c, 3, 48, 60
5, 116040, Note_on_c, 3, 60, 60
5, 117360, Note_off_c, 3, 60, 64
5, 117360, Note_off_c, 3, 48, 64
5, 117480, Note_on_c, 3, 48, 60
5, 117480, Note_on_c, 3, 60, 60
5, 117960, Note_off_c, 3, 60, 64
5, 117960, Note_off_c, 3, 48, 64
5, 117960, Note_on_c, 3, 43, 60
5, 117960, Note_on_c, 3, 55, 60
5, 118440, Note_off_c, 3, 55, 64
5, 118440, Note_off_c, 3, 43, 64
5, 118440, Note_on_c, 3, 48, 60
5, 118440, Note_on_c, 3, 60, 60
5, 118920, Note_off_c, 3, 60, 64
5, 118920, Note_off_c, 3, 48, 64
5, 118920, Note_on_c, 3, 43, 60
5, 118920, Note_on_c, 3, 55, 60
5, 119400, Note_off_c, 3, 55, 64
5, 119400, Note_off_c, 3, 43, 64
5, 119400, Note_on_c, 3, 48, 60
5, 119400, Note_on_c, 3, 60, 60
5, 119880, Note_off_c, 3, 60, 64
5, 119880, Note_off_c, 3, 48, 64
5, 119880, Note_on_c, 3, 43, 60
5, 119880, Note_on_c, 3, 55, 60
5, 120360, Note_off_c, 3, 55, 64
5, 120360, Note_off_c, 3, 43, 64
5, 120360, Note_on_c, 3, 48, 60
5, 120360, Note_on_c, 3, 60, 60
5, 120840, Note_off_c, 3, 60, 64
5, 120840, Note_off_c, 3, 48, 64
5, 120840, Note_on_c, 3, 43, 60
5, 120840, Note_on_c, 3, 55, 60
5, 121320, Note_off_c, 3, 55, 64
5, 121320, Note_off_c, 3, 43, 64
5, 121320, Note_on_c, 3, 48, 30
5, 121320, Note_on_c, 3, 60, 30
5, 121555, Note_off_c, 3, 60, 64
5, 121555, Note_off_c, 3, 48, 64
5, 132960, Note_on_c, 3, 48, 30
5, 132960, Note_on_c, 3, 55, 30
5, 134760, Note_off_c, 3, 55, 64
5, 134760, Note_off_c, 3, 48, 64
5, 134880, Note_on_c, 3, 48, 30
5, 134880, Note_on_c, 3, 55, 30
5, 136680, Note_off_c, 3, 55, 64
5, 136680, Note_off_c, 3, 48, 64
5, 140760, Note_on_c, 3, 60, 30
5, 140760, Note_on_c, 3, 63, 30
5, 142560, Note_off_c, 3, 63, 64
5, 142560, Note_off_c, 3, 60, 64
5, 142680, Note_on_c, 3, 60, 30
5, 142680, Note_on_c, 3, 63, 30
5, 144480, Note_off_c, 3, 63, 64
5, 144480, Note_off_c, 3, 60, 64
5, 144600, Note_on_c, 3, 50, 30
5, 144600, Note_on_c, 3, 58, 30
5, 152160, Note_off_c, 3, 58, 64
5, 152160, Note_off_c, 3, 50, 64
5, 152280, Note_on_c, 3, 50, 38
5, 152280, Note_on_c, 3, 58, 38
5, 156000, Note_off_c, 3, 58, 64
5, 156000, Note_off_c, 3, 50, 64
5, 156120, Note_on_c, 3, 50, 46
5, 156120, Note_on_c, 3, 57, 46
5, 159840, Note_off_c, 3, 57, 64
5, 159840, Note_off_c, 3, 50, 64
5, 159960, Note_on_c, 3, 50, 54
5, 159960, Note_on_c, 3, 57, 54
5, 163680, Note_off_c, 3, 57, 64
5, 163680, Note_off_c, 3, 50, 64
5, 163800, Note_on_c, 3, 50, 63
5, 163800, Note_on_c, 3, 57, 63
5, 167520, Note_off_c, 3, 57, 64
5, 167520, Note_off_c, 3, 50, 64
5, 167640, Note_on_c, 3, 54, 75
5, 167640, Note_on_c, 3, 57, 75
5, 168280, Note_off_c, 3, 57, 64
5, 168280, Note_off_c, 3, 54, 64
5, 168360, Note_on_c, 3, 54, 75
5, 168360, Note_on_c, 3, 57, 75
5, 168595, Note_off_c, 3, 57, 64
5, 168595, Note_off_c, 3, 54, 64
5, 168600, Note_on_c, 3, 54, 75
5, 168600, Note_on_c, 3, 57, 75
5, 169240, Note_off_c, 3, 57, 64
5, 169240, Note_off_c, 3, 54, 64
5, 169320, Note_on_c, 3, 54, 75
5, 169320, Note_on_c, 3, 57, 75
5, 169555, Note_off_c, 3, 57, 64
5, 169555, Note_off_c, 3, 54, 64
5, 169560, Note_on_c, 3, 54, 75
5, 169560, Note_on_c, 3, 57, 75
5, 170200, Note_off_c, 3, 57, 64
5, 170200, Note_off_c, 3, 54, 64
5, 170280, Note_on_c, 3, 54, 75
5, 170280, Note_on_c, 3, 57, 75
5, 170515, Note_off_c, 3, 57, 64
5, 170515, Note_off_c, 3, 54, 64
5, 170520, Note_on_c, 3, 54, 75
5, 170520, Note_on_c, 3, 57, 75
5, 171160, Note_off_c, 3, 57, 64
5, 171160, Note_off_c, 3, 54, 64
5, 171240, Note_on_c, 3, 54, 75
5, 171240, Note_on_c, 3, 57, 75
5, 171475, Note_off_c, 3, 57, 64
5, 171475, Note_off_c, 3, 54, 64
5, 171480, Note_on_c, 3, 54, 75
5, 171480, Note_on_c, 3, 57, 75
5, 171715, Note_off_c, 3, 57, 64
5, 171715, Note_off_c, 3, 54, 64
5, 173400, Note_on_c, 3, 54, 75
5, 173400, Note_on_c, 3, 57, 75
5, 173635, Note_off_c, 3, 57, 64
5, 173635, Note_off_c, 3, 54, 64
5, 179160, Note_on_c, 3, 62, 45
5, 179240, Note_off_c, 3, 62, 64
5, 179400, Note_on_c, 3, 57, 45
5, 179480, Note_off_c, 3, 57, 64
5, 180120, Note_on_c, 3, 62, 45
5, 180200, Note_off_c, 3, 62, 64
5, 180360, Note_on_c, 3, 57, 45
5, 180440, Note_off_c, 3, 57, 64
5, 181080, Note_on_c, 3, 62, 45
5, 181160, Note_off_c, 3, 62, 64
5, 181320, Note_on_c, 3, 57, 45
5, 181400, Note_off_c, 3, 57, 64
5, 181560, Note_on_c, 3, 62, 45
5, 181640, Note_off_c, 3, 62, 64
5, 181800, Note_on_c, 3, 57, 45
5, 181880, Note_off_c, 3, 57, 64
5, 182040, Note_on_c, 3, 62, 45
5, 182120, Note_off_c, 3, 62, 64
5, 182280, Note_on_c, 3, 57, 45
5, 182360, Note_off_c, 3, 57, 64
5, 182520, Note_on_c, 3, 62, 45
5, 182600, Note_off_c, 3, 62, 64
5, 182760, Note_on_c, 3, 57, 45
5, 182840, Note_off_c, 3, 57, 64
5, 183240, Note_on_c, 3, 59, 45
5, 183320, Note_off_c, 3, 59, 64
5, 183480, Note_on_c, 3, 60, 45
5, 183560, Note_off_c, 3, 60, 64
5, 183720, Note_on_c, 3, 64, 45
5, 183800, Note_off_c, 3, 64, 64
5, 183960, Note_on_c, 3, 62, 45
5, 184200, Note_off_c, 3, 62, 64
5, 184200, Note_on_c, 3, 60, 45
5, 184320, Note_off_c, 3, 60, 64
5, 184320, Note_on_c, 3, 59, 45
5, 184440, Note_off_c, 3, 59, 64
5, 184440, Note_on_c, 3, 57, 45
5, 184520, Note_off_c, 3, 57, 64
5, 184680, Note_on_c, 3, 50, 45
5, 184760, Note_off_c, 3, 50, 64
5, 184920, Note_on_c, 3, 55, 45
5, 185760, Note_off_c, 3, 55, 64
5, 185880, Note_on_c, 3, 50, 45
5, 188640, Note_off_c, 3, 50, 64
5, 188760, Note_on_c, 3, 47, 30
5, 188760, Note_on_c, 3, 55, 30
5, 192480, Note_off_c, 3, 55, 64
5, 192480, Note_off_c, 3, 47, 64
5, 192600, Note_on_c, 3, 47, 30
5, 192600, Note_on_c, 3, 55, 30
5, 200160, Note_off_c, 3, 55, 64
5, 200160, Note_off_c, 3, 47, 64
5, 200280, Note_on_c, 3, 47, 45
5, 200280, Note_on_c, 3, 56, 45
5, 204000, Note_off_c, 3, 56, 64
5, 204000, Note_off_c, 3, 47, 64
5, 204120, Note_on_c, 3, 47, 53
5, 204120, Note_on_c, 3, 56, 53
5, 211680, Note_off_c, 3, 56, 64
5, 211680, Note_off_c, 3, 47, 64
5, 211800, Note_on_c, 3, 56, 75
5, 211800, Note_on_c, 3, 59, 75
5, 212440, Note_off_c, 3, 59, 64
5, 212440, Note_off_c, 3, 56, 64
5, 212520, Note_on_c, 3, 56, 75
5, 212520, Note_on_c, 3, 59, 75
5, 212755, Note_off_c, 3, 59, 64
5, 212755, Note_off_c, 3, 56, 64
5, 212760, Note_on_c, 3, 56, 75
5, 212760, Note_on_c, 3, 59, 75
5, 213400, Note_off_c, 3, 59, 64
5, 213400, Note_off_c, 3, 56, 64
5, 213480, Note_on_c, 3, 56, 75
5, 213480, Note_on_c, 3, 59, 75
5, 213715, Note_off_c, 3, 59, 64
5, 213715, Note_off_c, 3, 56, 64
5, 213720, Note_on_c, 3, 56, 75
5, 213720, Note_on_c, 3, 59, 75
5, 214360, Note_off_c, 3, 59, 64
5, 214360, Note_off_c, 3, 56, 64
5, 214440, Note_on_c, 3, 56, 75
5, 214440, Note_on_c, 3, 59, 75
5, 214675, Note_off_c, 3, 59, 64
5, 214675, Note_off_c, 3, 56, 64
5, 214680, Note_on_c, 3, 56, 75
5, 214680, Note_on_c, 3, 59, 75
5, 215320, Note_off_c, 3, 59, 64
5, 215320, Note_off_c, 3, 56, 64
5, 215400, Note_on_c, 3, 56, 75
5, 215400, Note_on_c, 3, 59, 75
5, 215635, Note_off_c, 3, 59, 64
5, 215635, Note_off_c, 3, 56, 64
5, 215640, Note_on_c, 3, 56, 75
5, 215640, Note_on_c, 3, 59, 75
5, 215875, Note_off_c, 3, 59, 64
5, 215875, Note_off_c, 3, 56, 64
5, 217560, Note_on_c, 3, 56, 75
5, 217560, Note_on_c, 3, 59, 75
5, 217795, Note_off_c, 3, 59, 64
5, 217795, Note_off_c, 3, 56, 64
5, 223320, Note_on_c, 3, 64, 45
5, 223400, Note_off_c, 3, 64, 64
5, 223560, Note_on_c, 3, 59, 45
5, 223640, Note_off_c, 3, 59, 64
5, 224280, Note_on_c, 3, 64, 45
5, 224360, Note_off_c, 3, 64, 64
5, 224520, Note_on_c, 3, 59, 45
5, 224600, Note_off_c, 3, 59, 64
5, 225240, Note_on_c, 3, 64, 45
5, 225320, Note_off_c, 3, 64, 64
5, 225480, Note_on_c, 3, 59, 45
5, 225560, Note_off_c, 3, 59, 64
5, 225720, Note_on_c, 3, 64, 45
5, 225800, Note_off_c, 3, 64, 64
5, 225960, Note_on_c, 3, 59, 45
5, 226040, Note_off_c, 3, 59, 64
5, 226200, Note_on_c, 3, 64, 45
5, 226280, Note_off_c, 3, 64, 64
5, 226440, Note_on_c, 3, 59, 45
5, 226520, Note_off_c, 3, 59, 64
5, 226680, Note_on_c, 3, 64, 45
5, 226760, Note_off_c, 3, 64, 64
5, 226920, Note_on_c, 3, 59, 45
5, 227000, Note_off_c, 3, 59, 64
5, 227400, Note_on_c, 3, 61, 45
5, 227480, Note_off_c, 3, 61, 64
5, 227640, Note_on_c, 3, 62, 45
5, 227720, Note_off_c, 3, 62, 64
5, 227880, Note_on_c, 3, 66, 45
5, 227960, Note_off_c, 3, 66, 64
5, 228120, Note_on_c, 3, 64, 45
5, 228360, Note_off_c, 3, 64, 64
5, 228360, Note_on_c, 3, 62, 45
5, 228480, Note_off_c, 3, 62, 64
5, 228480, Note_on_c, 3, 61, 45
5, 228600, Note_off_c, 3, 61, 64
5, 228600, Note_on_c, 3, 59, 45
5, 228680, Note_off_c, 3, 59, 64
5, 228840, Note_on_c, 3, 52, 45
5, 228920, Note_off_c, 3, 52, 64
5, 229080, Note_on_c, 3, 57, 45
5, 230040, Note_off_c, 3, 57, 64
5, 230040, Note_on_c, 3, 52, 45
5, 232800, Note_off_c, 3, 52, 64
5, 232920, Note_on_c, 3, 57, 45
5, 232920, Note_on_c, 3, 61, 45
5, 233400, Note_off_c, 3, 61, 64
5, 233400, Note_off_c, 3, 57, 64
5, 233400, Note_on_c, 3, 61, 45
5, 233400, Note_on_c, 3, 64, 45
5, 233880, Note_off_c, 3, 64, 64
5, 233880, Note_off_c, 3, 61, 64
5, 233880, Note_on_c, 3, 59, 45
5, 233880, Note_on_c, 3, 62, 45
5, 234600, Note_off_c, 3, 62, 64
5, 234600, Note_off_c, 3, 59, 64
5, 234600, Note_on_c, 3, 57, 45
5, 234600, Note_on_c, 3, 61, 45
5, 234840, Note_off_c, 3, 61, 64
5, 234840, Note_off_c, 3, 57, 64
5, 234840, Note_on_c, 3, 62, 45
5, 234840, Note_on_c, 3, 66, 45
5, 235320, Note_off_c, 3, 66, 64
5, 235320, Note_off_c, 3, 62, 64
5, 235320, Note_on_c, 3, 61, 45
5, 235320, Note_on_c, 3, 64, 45
5, 235800, Note_off_c, 3, 64, 64
5, 235800, Note_off_c, 3, 61, 64
5, 235800, Note_on_c, 3, 52, 45
5, 235800, Note_on_c, 3, 59, 45
5, 236760, Note_off_c, 3, 59, 64
5, 236760, Note_off_c, 3, 52, 64
5, 236760, Note_on_c, 3, 57, 45
5, 236760, Note_on_c, 3, 61, 45
5, 237160, Note_off_c, 3, 61, 64
5, 237160, Note_off_c, 3, 57, 64
5, 238680, Note_on_c, 3, 50, 45
5, 238915, Note_off_c, 3, 50, 64
5, 248280, Note_on_c, 3, 57, 60
5, 248280, Note_on_c, 3, 60, 60
5, 248760, Note_off_c, 3, 60, 64
5, 248760, Note_off_c, 3, 57, 64
5, 248760, Note_on_c, 3, 54, 61
5, 248760, Note_on_c, 3, 57, 61
5, 249240, Note_off_c, 3, 57, 64
5, 249240, Note_off_c, 3, 54, 64
5, 249240, Note_on_c, 3, 55, 63
5, 249240, Note_on_c, 3, 58, 63
5, 249960, Note_off_c, 3, 58, 64
5, 249960, Note_off_c, 3, 55, 64
5, 249960, Note_on_c, 3, 57, 66
5, 249960, Note_on_c, 3, 60, 66
5, 250195, Note_off_c, 3, 60, 64
5, 250195, Note_off_c, 3, 57, 64
5, 250200, Note_on_c, 3, 50, 67
5, 250200, Note_on_c, 3, 59, 67
5, 250680, Note_off_c, 3, 59, 64
5, 250680, Note_off_c, 3, 50, 64
5, 250680, Note_on_c, 3, 52, 69
5, 250680, Note_on_c, 3, 60, 69
5, 251160, Note_off_c, 3, 60, 64
5, 251160, Note_off_c, 3, 52, 64
5, 251160, Note_on_c, 3, 53, 71
5, 251160, Note_on_c, 3, 64, 71
5, 251240, Note_off_c, 3, 64, 64
5, 251240, Note_off_c, 3, 53, 64
5, 251400, Note_on_c, 3, 53, 72
5, 251400, Note_on_c, 3, 62, 72
5, 251520, Note_off_c, 3, 62, 64
5, 251520, Note_off_c, 3, 53, 64
5, 251520, Note_on_c, 3, 52, 72
5, 251520, Note_on_c, 3, 60, 72
5, 251640, Note_off_c, 3, 60, 64
5, 251640, Note_off_c, 3, 52, 64
5, 251640, Note_on_c, 3, 50, 72
5, 251640, Note_on_c, 3, 59, 72
5, 251880, Note_off_c, 3, 59, 64
5, 251880, Note_off_c, 3, 50, 64
5, 251880, Note_on_c, 3, 53, 73
5, 251880, Note_on_c, 3, 62, 73
5, 252115, Note_off_c, 3, 62, 64
5, 252115, Note_off_c, 3, 53, 64
5, 252120, Note_on_c, 3, 48, 105
5, 252600, Note_off_c, 3, 48, 64
5, 252600, Note_on_c, 3, 52, 75
5, 253000, Note_off_c, 3, 52, 64
5, 253080, Note_on_c, 3, 50, 75
5, 253800, Note_off_c, 3, 50, 64
5, 253800, Note_on_c, 3, 48, 75
5, 254035, Note_off_c, 3, 48, 64
5, 254040, Note_on_c, 3, 53, 105
5, 254520, Note_off_c, 3, 53, 64
5, 254520, Note_on_c, 3, 52, 75
5, 255000, Note_off_c, 3, 52, 64
5, 255000, Note_on_c, 3, 50, 75
5, 255080, Note_off_c, 3, 50, 64
5, 255240, Note_on_c, 3, 50, 75
5, 255360, Note_off_c, 3, 50, 64
5, 255360, Note_on_c, 3, 52, 75
5, 255480, Note_off_c, 3, 52, 64
5, 255480, Note_on_c, 3, 53, 75
5, 255560, Note_off_c, 3, 53, 64
5, 255720, Note_on_c, 3, 50, 75
5, 255800, Note_off_c, 3, 50, 64
5, 255960, Note_on_c, 3, 52, 105
5, 256440, Note_off_c, 3, 52, 64
5, 256440, Note_on_c, 3, 55, 75
5, 256840, Note_off_c, 3, 55, 64
5, 256920, Note_on_c, 3, 53, 75
5, 257640, Note_off_c, 3, 53, 64
5, 257640, Note_on_c, 3, 52, 75
5, 257875, Note_off_c, 3, 52, 64
5, 257880, Note_on_c, 3, 57, 105
5, 258360, Note_off_c, 3, 57, 64
5, 258360, Note_on_c, 3, 55, 75
5, 258840, Note_off_c, 3, 55, 64
5, 258840, Note_on_c, 3, 53, 75
5, 258920, Note_off_c, 3, 53, 64
5, 259080, Note_on_c, 3, 53, 75
5, 259200, Note_off_c, 3, 53, 64
5, 259200, Note_on_c, 3, 55, 75
5, 259320, Note_off_c, 3, 55, 64
5, 259320, Note_on_c, 3, 57, 75
5, 259400, Note_off_c, 3, 57, 64
5, 259560, Note_on_c, 3, 53, 75
5, 259640, Note_off_c, 3, 53, 64
5, 259800, Note_on_c, 3, 58, 105
5, 260280, Note_off_c, 3, 58, 64
5, 260280, Note_on_c, 3, 57, 75
5, 260760, Note_off_c, 3, 57, 64
5, 260760, Note_on_c, 3, 55, 75
5, 260840, Note_off_c, 3, 55, 64
5, 261000, Note_on_c, 3, 52, 75
5, 261120, Note_off_c, 3, 52, 64
5, 261120, Note_on_c, 3, 53, 75
5, 261240, Note_off_c, 3, 53, 64
5, 261240, Note_on_c, 3, 55, 75
5, 261320, Note_off_c, 3, 55, 64
5, 261480, Note_on_c, 3, 57, 75
5, 261560, Note_off_c, 3, 57, 64
5, 261720, Note_on_c, 3, 58, 105
5, 262200, Note_off_c, 3, 58, 64
5, 262200, Note_on_c, 3, 57, 75
5, 262680, Note_off_c, 3, 57, 64
5, 262680, Note_on_c, 3, 55, 75
5, 262760, Note_off_c, 3, 55, 64
5, 262920, Note_on_c, 3, 52, 72
5, 263040, Note_off_c, 3, 52, 64
5, 263040, Note_on_c, 3, 53, 70
5, 263160, Note_off_c, 3, 53, 64
5, 263160, Note_on_c, 3, 55, 68
5, 263240, Note_off_c, 3, 55, 64
5, 263400, Note_on_c, 3, 57, 64
5, 263480, Note_off_c, 3, 57, 64
5, 263640, Note_on_c, 3, 46, 60
5, 264040, Note_off_c, 3, 46, 64
5, 279240, Note_on_c, 3, 57, 45
5, 279480, Note_off_c, 3, 57, 64
5, 279480, Note_on_c, 3, 58, 45
5, 279720, Note_off_c, 3, 58, 64
5, 279720, Note_on_c, 3, 62, 45
5, 279960, Note_off_c, 3, 62, 64
5, 279960, Note_on_c, 3, 60, 45
5, 280200, Note_off_c, 3, 60, 64
5, 280200, Note_on_c, 3, 55, 45
5, 280320, Note_off_c, 3, 55, 64
5, 280320, Note_on_c, 3, 57, 45
5, 280440, Note_off_c, 3, 57, 64
5, 280440, Note_on_c, 3, 58, 45
5, 280680, Note_off_c, 3, 58, 64
5, 280680, Note_on_c, 3, 55, 45
5, 280915, Note_off_c, 3, 55, 64
5, 280920, Note_on_c, 3, 53, 45
5, 280920, Note_on_c, 3, 57, 45
5, 281400, Note_off_c, 3, 57, 64
5, 281400, Note_off_c, 3, 53, 64
5, 281400, Note_on_c, 3, 57, 45
5, 281400, Note_on_c, 3, 60, 45
5, 281880, Note_off_c, 3, 60, 64
5, 281880, Note_off_c, 3, 57, 64
5, 281880, Note_on_c, 3, 55, 45
5, 281880, Note_on_c, 3, 58, 45
5, 282600, Note_off_c, 3, 58, 64
5, 282600, Note_off_c, 3, 55, 64
5, 282600, Note_on_c, 3, 53, 45
5, 282600, Note_on_c, 3, 57, 45
5, 282835, Note_off_c, 3, 57, 64
5, 282835, Note_off_c, 3, 53, 64
5, 282840, Note_on_c, 3, 58, 45
5, 282840, Note_on_c, 3, 62, 45
5, 283320, Note_off_c, 3, 62, 64
5, 283320, Note_off_c, 3, 58, 64
5, 283320, Note_on_c, 3, 57, 45
5, 283320, Note_on_c, 3, 60, 45
5, 283800, Note_off_c, 3, 60, 64
5, 283800, Note_off_c, 3, 57, 64
5, 283800, Note_on_c, 3, 48, 45
5, 283800, Note_on_c, 3, 55, 45
5, 284760, Note_off_c, 3, 55, 64
5, 284760, Note_off_c, 3, 48, 64
5, 284760, Note_on_c, 3, 53, 45
5, 284760, Note_on_c, 3, 57, 45
5, 285160, Note_off_c, 3, 57, 64
5, 285160, Note_off_c, 3, 53, 64
5, 297480, Note_on_c, 3, 58, 48
5, 297600, Note_off_c, 3, 58, 64
5, 297600, Note_on_c, 3, 60, 49
5, 297720, Note_off_c, 3, 60, 64
5, 297720, Note_on_c, 3, 62, 51
5, 297800, Note_off_c, 3, 62, 64
5, 297960, Note_on_c, 3, 64, 55
5, 298040, Note_off_c, 3, 64, 64
5, 298200, Note_on_c, 3, 65, 59
5, 298280, Note_off_c, 3, 65, 64
5, 299160, Note_on_c, 3, 53, 75
5, 299160, Note_on_c, 3, 57, 75
5, 299395, Note_off_c, 3, 57, 64
5, 299395, Note_off_c, 3, 53, 64
5, 299400, Note_on_c, 3, 53, 75
5, 299400, Note_on_c, 3, 60, 75
5, 299635, Note_off_c, 3, 60, 64
5, 299635, Note_off_c, 3, 53, 64
5, 299640, Note_on_c, 3, 53, 75
5, 299640, Note_on_c, 3, 60, 75
5, 299875, Note_off_c, 3, 60, 64
5, 299875, Note_off_c, 3, 53, 64
5, 299880, Note_on_c, 3, 53, 75
5, 299880, Note_on_c, 3, 60, 75
5, 300115, Note_off_c, 3, 60, 64
5, 300115, Note_off_c, 3, 53, 64
5, 300120, Note_on_c, 3, 53, 75
5, 300120, Note_on_c, 3, 60, 75
5, 300355, Note_off_c, 3, 60, 64
5, 300355, Note_off_c, 3, 53, 64
5, 300360, Note_on_c, 3, 53, 75
5, 300360, Note_on_c, 3, 60, 75
5, 300595, Note_off_c, 3, 60, 64
5, 300595, Note_off_c, 3, 53, 64
5, 300600, Note_on_c, 3, 53, 75
5, 300600, Note_on_c, 3, 60, 75
5, 300835, Note_off_c, 3, 60, 64
5, 300835, Note_off_c, 3, 53, 64
5, 300840, Note_on_c, 3, 53, 75
5, 300840, Note_on_c, 3, 60, 75
5, 301075, Note_off_c, 3, 60, 64
5, 301075, Note_off_c, 3, 53, 64
5, 301080, Note_on_c, 3, 53, 75
5, 301080, Note_on_c, 3, 60, 75
5, 301315, Note_off_c, 3, 60, 64
5, 301315, Note_off_c, 3, 53, 64
5, 301320, Note_on_c, 3, 53, 75
5, 301320, Note_on_c, 3, 60, 75
5, 301555, Note_off_c, 3, 60, 64
5, 301555, Note_off_c, 3, 53, 64
5, 301560, Note_on_c, 3, 53, 75
5, 301560, Note_on_c, 3, 60, 75
5, 301795, Note_off_c, 3, 60, 64
5, 301795, Note_off_c, 3, 53, 64
5, 301800, Note_on_c, 3, 53, 75
5, 301800, Note_on_c, 3, 60, 75
5, 302035, Note_off_c, 3, 60, 64
5, 302035, Note_off_c, 3, 53, 64
5, 302040, Note_on_c, 3, 53, 75
5, 302040, Note_on_c, 3, 60, 75
5, 302275, Note_off_c, 3, 60, 64
5, 302275, Note_off_c, 3, 53, 64
5, 302280, Note_on_c, 3, 53, 75
5, 302280, Note_on_c, 3, 60, 75
5, 302515, Note_off_c, 3, 60, 64
5, 302515, Note_off_c, 3, 53, 64
5, 302520, Note_on_c, 3, 53, 75
5, 302520, Note_on_c, 3, 60, 75
5, 302755, Note_off_c, 3, 60, 64
5, 302755, Note_off_c, 3, 53, 64
5, 302760, Note_on_c, 3, 53, 75
5, 302760, Note_on_c, 3, 60, 75
5, 302995, Note_off_c, 3, 60, 64
5, 302995, Note_off_c, 3, 53, 64
5, 303000, Note_on_c, 3, 53, 75
5, 303000, Note_on_c, 3, 60, 75
5, 303240, Note_off_c, 3, 60, 64
5, 303240, Note_off_c, 3, 53, 64
5, 303240, Note_on_c, 3, 57, 75
5, 303240, Note_on_c, 3, 60, 75
5, 303320, Note_off_c, 3, 60, 64
5, 303320, Note_off_c, 3, 57, 64
5, 303480, Note_on_c, 3, 57, 75
5, 303480, Note_on_c, 3, 60, 75
5, 303560, Note_off_c, 3, 60, 64
5, 303560, Note_off_c, 3, 57, 64
5, 303720, Note_on_c, 3, 57, 75
5, 303720, Note_on_c, 3, 60, 75
5, 303800, Note_off_c, 3, 60, 64
5, 303800, Note_off_c, 3, 57, 64
5, 303960, Note_on_c, 3, 57, 75
5, 303960, Note_on_c, 3, 60, 75
5, 304440, Note_off_c, 3, 60, 64
5, 304440, Note_off_c, 3, 57, 64
5, 304440, Note_on_c, 3, 53, 75
5, 304440, Note_on_c, 3, 57, 75
5, 304675, Note_off_c, 3, 57, 64
5, 304675, Note_off_c, 3, 53, 64
5, 304680, Note_on_c, 3, 53, 75
5, 304915, Note_off_c, 3, 53, 64
5, 304920, Note_on_c, 3, 58, 75
5, 305000, Note_off_c, 3, 58, 64
5, 305160, Note_on_c, 3, 57, 75
5, 305240, Note_off_c, 3, 57, 64
5, 305400, Note_on_c, 3, 55, 75
5, 305640, Note_off_c, 3, 55, 64
5, 305640, Note_on_c, 3, 53, 75
5, 305760, Note_off_c, 3, 53, 64
5, 305760, Note_on_c, 3, 55, 75
5, 305875, Note_off_c, 3, 55, 64
5, 305880, Note_on_c, 3, 57, 75
5, 305960, Note_off_c, 3, 57, 64
5, 306120, Note_on_c, 3, 55, 75
5, 306200, Note_off_c, 3, 55, 64
5, 306360, Note_on_c, 3, 53, 75
5, 306600, Note_off_c, 3, 53, 64
5, 306600, Note_on_c, 3, 52, 75
5, 306720, Note_off_c, 3, 52, 64
5, 306720, Note_on_c, 3, 53, 75
5, 306835, Note_off_c, 3, 53, 64
5, 306840, Note_on_c, 3, 55, 75
5, 307075, Note_off_c, 3, 55, 64
5, 307080, Note_on_c, 3, 52, 75
5, 307315, Note_off_c, 3, 52, 64
5, 307320, Note_on_c, 3, 48, 75
5, 307555, Note_off_c, 3, 48, 64
5, 307560, Note_on_c, 3, 52, 75
5, 307795, Note_off_c, 3, 52, 64
5, 307800, Note_on_c, 3, 55, 75
5, 308035, Note_off_c, 3, 55, 64
5, 308040, Note_on_c, 3, 52, 75
5, 308275, Note_off_c, 3, 52, 64
5, 308280, Note_on_c, 3, 48, 75
5, 308515, Note_off_c, 3, 48, 64
5, 308520, Note_on_c, 3, 60, 75
5, 308755, Note_off_c, 3, 60, 64
5, 308760, Note_on_c, 3, 57, 75
5, 308840, Note_off_c, 3, 57, 64
5, 309000, Note_on_c, 3, 55, 75
5, 309080, Note_off_c, 3, 55, 64
5, 309240, Note_on_c, 3, 53, 75
5, 309480, Note_off_c, 3, 53, 64
5, 309480, Note_on_c, 3, 52, 75
5, 309600, Note_off_c, 3, 52, 64
5, 309600, Note_on_c, 3, 53, 75
5, 309715, Note_off_c, 3, 53, 64
5, 309720, Note_on_c, 3, 55, 75
5, 309955, Note_off_c, 3, 55, 64
5, 309960, Note_on_c, 3, 48, 75
5, 310195, Note_off_c, 3, 48, 64
5, 310200, Note_on_c, 3, 55, 75
5, 310435, Note_off_c, 3, 55, 64
5, 310440, Note_on_c, 3, 48, 75
5, 310675, Note_off_c, 3, 48, 64
5, 310680, Note_on_c, 3, 57, 75
5, 310760, Note_off_c, 3, 57, 64
5, 310920, Note_on_c, 3, 55, 75
5, 311000, Note_off_c, 3, 55, 64
5, 311160, Note_on_c, 3, 53, 75
5, 311400, Note_off_c, 3, 53, 64
5, 311400, Note_on_c, 3, 52, 75
5, 311520, Note_off_c, 3, 52, 64
5, 311520, Note_on_c, 3, 53, 75
5, 311635, Note_off_c, 3, 53, 64
5, 311640, Note_on_c, 3, 55, 75
5, 311880, Note_off_c, 3, 55, 64
5, 311880, Note_on_c, 3, 48, 75
5, 312115, Note_off_c, 3, 48, 64
5, 312120, Note_on_c, 3, 55, 75
5, 312360, Note_off_c, 3, 55, 64
5, 312360, Note_on_c, 3, 48, 75
5, 312595, Note_off_c, 3, 48, 64
5, 312600, Note_on_c, 3, 53, 75
5, 312840, Note_off_c, 3, 53, 64
5, 312840, Note_on_c, 3, 55, 75
5, 312840, Note_on_c, 3, 58, 75
5, 313080, Note_off_c, 3, 58, 64
5, 313080, Note_off_c, 3, 55, 64
5, 313080, Note_on_c, 3, 48, 75
5, 313080, Note_on_c, 3, 55, 75
5, 313320, Note_off_c, 3, 55, 64
5, 313320, Note_off_c, 3, 48, 64
5, 313320, Note_on_c, 3, 55, 75
5, 313320, Note_on_c, 3, 58, 75
5, 313555, Note_off_c, 3, 58, 64
5, 313555, Note_off_c, 3, 55, 64
5, 313560, Note_on_c, 3, 53, 75
5, 313560, Note_on_c, 3, 57, 75
5, 313800, Note_off_c, 3, 57, 64
5, 313800, Note_off_c, 3, 53, 64
5, 313800, Note_on_c, 3, 55, 68
5, 313800, Note_on_c, 3, 58, 68
5, 314040, Note_off_c, 3, 58, 64
5, 314040, Note_off_c, 3, 55, 64
5, 314040, Note_on_c, 3, 48, 61
5, 314040, Note_on_c, 3, 55, 61
5, 314280, Note_off_c, 3, 55, 64
5, 314280, Note_off_c, 3, 48, 64
5, 314280, Note_on_c, 3, 55, 53
5, 314280, Note_on_c, 3, 58, 53
5, 314515, Note_off_c, 3, 58, 64
5, 314515, Note_off_c, 3, 55, 64
5, 314520, Note_on_c, 3, 53, 63
5, 314520, Note_on_c, 3, 60, 63
5, 314625, Note_off_c, 3, 60, 64
5, 314625, Note_off_c, 3, 53, 64
5, 314680, Note_on_c, 3, 53, 45
5, 314680, Note_on_c, 3, 60, 45
5, 314785, Note_off_c, 3, 60, 64
5, 314785, Note_off_c, 3, 53, 64
5, 314840, Note_on_c, 3, 53, 45
5, 314840, Note_on_c, 3, 60, 45
5, 314945, Note_off_c, 3, 60, 64
5, 314945, Note_off_c, 3, 53, 64
5, 315000, Note_on_c, 3, 53, 45
5, 315000, Note_on_c, 3, 60, 45
5, 315105, Note_off_c, 3, 60, 64
5, 315105, Note_off_c, 3, 53, 64
5, 315160, Note_on_c, 3, 53, 45
5, 315160, Note_on_c, 3, 60, 45
5, 315265, Note_off_c, 3, 60, 64
5, 315265, Note_off_c, 3, 53, 64
5, 315320, Note_on_c, 3, 53, 45
5, 315320, Note_on_c, 3, 60, 45
5, 315425, Note_off_c, 3, 60, 64
5, 315425, Note_off_c, 3, 53, 64
5, 315480, Note_on_c, 3, 53, 45
5, 315480, Note_on_c, 3, 60, 45
5, 315880, Note_off_c, 3, 60, 64
5, 315880, Note_off_c, 3, 53, 64
5, 318360, Note_on_c, 3, 50, 45
5, 318360, Note_on_c, 3, 62, 45
5, 318465, Note_off_c, 3, 62, 64
5, 318465, Note_off_c, 3, 50, 64
5, 318520, Note_on_c, 3, 50, 45
5, 318520, Note_on_c, 3, 62, 45
5, 318625, Note_off_c, 3, 62, 64
5, 318625, Note_off_c, 3, 50, 64
5, 318680, Note_on_c, 3, 50, 45
5, 318680, Note_on_c, 3, 62, 45
5, 318785, Note_off_c, 3, 62, 64
5, 318785, Note_off_c, 3, 50, 64
5, 318840, Note_on_c, 3, 50, 45
5, 318840, Note_on_c, 3, 62, 45
5, 318945, Note_off_c, 3, 62, 64
5, 318945, Note_off_c, 3, 50, 64
5, 319000, Note_on_c, 3, 50, 45
5, 319000, Note_on_c, 3, 62, 45
5, 319105, Note_off_c, 3, 62, 64
5, 319105, Note_off_c, 3, 50, 64
5, 319160, Note_on_c, 3, 50, 45
5, 319160, Note_on_c, 3, 62, 45
5, 319265, Note_off_c, 3, 62, 64
5, 319265, Note_off_c, 3, 50, 64
5, 319320, Note_on_c, 3, 50, 45
5, 319320, Note_on_c, 3, 62, 45
5, 319720, Note_off_c, 3, 62, 64
5, 319720, Note_off_c, 3, 50, 64
5, 322200, Note_on_c, 3, 48, 45
5, 322200, Note_on_c, 3, 60, 45
5, 322305, Note_off_c, 3, 60, 64
5, 322305, Note_off_c, 3, 48, 64
5, 322360, Note_on_c, 3, 48, 45
5, 322360, Note_on_c, 3, 60, 45
5, 322465, Note_off_c, 3, 60, 64
5, 322465, Note_off_c, 3, 48, 64
5, 322520, Note_on_c, 3, 48, 45
5, 322520, Note_on_c, 3, 60, 45
5, 322625, Note_off_c, 3, 60, 64
5, 322625, Note_off_c, 3, 48, 64
5, 322680, Note_on_c, 3, 48, 45
5, 322680, Note_on_c, 3, 60, 45
5, 322785, Note_off_c, 3, 60, 64
5, 322785, Note_off_c, 3, 48, 64
5, 322840, Note_on_c, 3, 48, 45
5, 322840, Note_on_c, 3, 60, 45
5, 322945, Note_off_c, 3, 60, 64
5, 322945, Note_off_c, 3, 48, 64
5, 323000, Note_on_c, 3, 48, 45
5, 323000, Note_on_c, 3, 60, 45
5, 323105, Note_off_c, 3, 60, 64
5, 323105, Note_off_c, 3, 48, 64
5, 323160, Note_on_c, 3, 48, 45
5, 323160, Note_on_c, 3, 60, 45
5, 323560, Note_off_c, 3, 60, 64
5, 323560, Note_off_c, 3, 48, 64
5, 324120, Note_on_c, 3, 47, 45
5, 324120, Note_on_c, 3, 55, 45
5, 324225, Note_off_c, 3, 55, 64
5, 324225, Note_off_c, 3, 47, 64
5, 324280, Note_on_c, 3, 47, 45
5, 324280, Note_on_c, 3, 55, 45
5, 324385, Note_off_c, 3, 55, 64
5, 324385, Note_off_c, 3, 47, 64
5, 324440, Note_on_c, 3, 47, 45
5, 324440, Note_on_c, 3, 55, 45
5, 324545, Note_off_c, 3, 55, 64
5, 324545, Note_off_c, 3, 47, 64
5, 324600, Note_on_c, 3, 47, 45
5, 324600, Note_on_c, 3, 55, 45
5, 324705, Note_off_c, 3, 55, 64
5, 324705, Note_off_c, 3, 47, 64
5, 324760, Note_on_c, 3, 47, 45
5, 324760, Note_on_c, 3, 55, 45
5, 324865, Note_off_c, 3, 55, 64
5, 324865, Note_off_c, 3, 47, 64
5, 324920, Note_on_c, 3, 47, 45
5, 324920, Note_on_c, 3, 55, 45
5, 325025, Note_off_c, 3, 55, 64
5, 325025, Note_off_c, 3, 47, 64
5, 325080, Note_on_c, 3, 47, 45
5, 325080, Note_on_c, 3, 55, 45
5, 325480, Note_off_c, 3, 55, 64
5, 325480, Note_off_c, 3, 47, 64
5, 326040, Note_on_c, 3, 46, 45
5, 326040, Note_on_c, 3, 55, 45
5, 326145, Note_off_c, 3, 55, 64
5, 326145, Note_off_c, 3, 46, 64
5, 326200, Note_on_c, 3, 46, 45
5, 326200, Note_on_c, 3, 55, 45
5, 326305, Note_off_c, 3, 55, 64
5, 326305, Note_off_c, 3, 46, 64
5, 326360, Note_on_c, 3, 46, 45
5, 326360, Note_on_c, 3, 55, 45
5, 326465, Note_off_c, 3, 55, 64
5, 326465, Note_off_c, 3, 46, 64
5, 326520, Note_on_c, 3, 46, 45
5, 326520, Note_on_c, 3, 55, 45
5, 326625, Note_off_c, 3, 55, 64
5, 326625, Note_off_c, 3, 46, 64
5, 326680, Note_on_c, 3, 46, 45
5, 326680, Note_on_c, 3, 55, 45
5, 326785, Note_off_c, 3, 55, 64
5, 326785, Note_off_c, 3, 46, 64
5, 326840, Note_on_c, 3, 46, 45
5, 326840, Note_on_c, 3, 55, 45
5, 326945, Note_off_c, 3, 55, 64
5, 326945, Note_off_c, 3, 46, 64
5, 327000, Note_on_c, 3, 46, 45
5, 327000, Note_on_c, 3, 55, 45
5, 327400, Note_off_c, 3, 55, 64
5, 327400, Note_off_c, 3, 46, 64
5, 349080, Note_on_c, 3, 62, 60
5, 349320, Note_off_c, 3, 62, 64
5, 349320, Note_on_c, 3, 60, 60
5, 349560, Note_off_c, 3, 60, 64
5, 349560, Note_on_c, 3, 57, 60
5, 349800, Note_off_c, 3, 57, 64
5, 349800, Note_on_c, 3, 53, 60
5, 350040, Note_off_c, 3, 53, 64
5, 350040, Note_on_c, 3, 48, 60
5, 350280, Note_off_c, 3, 48, 64
5, 350280, Note_on_c, 3, 57, 60
5, 350520, Note_off_c, 3, 57, 64
5, 350520, Note_on_c, 3, 53, 60
5, 350760, Note_off_c, 3, 53, 64
5, 350760, Note_on_c, 3, 48, 60
5, 350995, Note_off_c, 3, 48, 64
5, 351000, Note_on_c, 3, 62, 60
5, 351240, Note_off_c, 3, 62, 64
5, 351240, Note_on_c, 3, 60, 60
5, 351480, Note_off_c, 3, 60, 64
5, 351480, Note_on_c, 3, 58, 60
5, 351720, Note_off_c, 3, 58, 64
5, 351720, Note_on_c, 3, 55, 60
5, 351960, Note_off_c, 3, 55, 64
5, 351960, Note_on_c, 3, 48, 60
5, 352200, Note_off_c, 3, 48, 64
5, 352200, Note_on_c, 3, 58, 60
5, 352440, Note_off_c, 3, 58, 64
5, 352440, Note_on_c, 3, 55, 60
5, 352680, Note_off_c, 3, 55, 64
5, 352680, Note_on_c, 3, 48, 60
5, 352915, Note_off_c, 3, 48, 64
5, 352920, Note_on_c, 3, 62, 60
5, 353160, Note_off_c, 3, 62, 64
5, 353160, Note_on_c, 3, 60, 60
5, 353400, Note_off_c, 3, 60, 64
5, 353400, Note_on_c, 3, 57, 61
5, 353640, Note_off_c, 3, 57, 64
5, 353640, Note_on_c, 3, 53, 62
5, 353880, Note_off_c, 3, 53, 64
5, 353880, Note_on_c, 3, 48, 63
5, 354120, Note_off_c, 3, 48, 64
5, 354120, Note_on_c, 3, 57, 64
5, 354360, Note_off_c, 3, 57, 64
5, 354360, Note_on_c, 3, 53, 65
5, 354600, Note_off_c, 3, 53, 64
5, 354600, Note_on_c, 3, 48, 66
5, 354835, Note_off_c, 3, 48, 64
5, 354840, Note_on_c, 3, 62, 67
5, 355080, Note_off_c, 3, 62, 64
5, 355080, Note_on_c, 3, 60, 68
5, 355320, Note_off_c, 3, 60, 64
5, 355320, Note_on_c, 3, 58, 69
5, 355560, Note_off_c, 3, 58, 64
5, 355560, Note_on_c, 3, 55, 70
5, 355800, Note_off_c, 3, 55, 64
5, 355800, Note_on_c, 3, 48, 71
5, 356040, Note_off_c, 3, 48, 64
5, 356040, Note_on_c, 3, 58, 72
5, 356280, Note_off_c, 3, 58, 64
5, 356280, Note_on_c, 3, 55, 73
5, 356520, Note_off_c, 3, 55, 64
5, 356520, Note_on_c, 3, 48, 74
5, 356755, Note_off_c, 3, 48, 64
5, 356760, Note_on_c, 3, 53, 75
5, 356760, Note_on_c, 3, 57, 75
5, 357160, Note_off_c, 3, 57, 64
5, 357160, Note_off_c, 3, 53, 64
5, 359640, Note_on_c, 3, 50, 75
5, 359640, Note_on_c, 3, 58, 75
5, 359875, Note_off_c, 3, 58, 64
5, 359875, Note_off_c, 3, 50, 64
5, 360720, Note_on_c, 3, 46, 45
5, 360720, Note_on_c, 3, 50, 45
5, 361680, Note_off_c, 3, 50, 64
5, 361680, Note_off_c, 3, 46, 64
5, 361680, Note_on_c, 3, 45, 45
5, 361680, Note_on_c, 3, 48, 45
5, 362640, Note_off_c, 3, 48, 64
5, 362640, Note_off_c, 3, 45, 64
5, 362640, Note_on_c, 3, 43, 45
5, 362640, Note_on_c, 3, 46, 45
5, 363600, Note_off_c, 3, 46, 64
5, 363600, Note_off_c, 3, 43, 64
5, 363600, Note_on_c, 3, 41, 75
5, 363600, Note_on_c, 3, 45, 75
5, 363835, Note_off_c, 3, 45, 64
5, 363835, Note_off_c, 3, 41, 64
5, 366480, Note_on_c, 3, 50, 75
5, 366480, Note_on_c, 3, 58, 75
5, 366715, Note_off_c, 3, 58, 64
5, 366715, Note_off_c, 3, 50, 64
5, 367560, Note_on_c, 3, 46, 45
5, 367560, Note_on_c, 3, 50, 45
5, 368520, Note_off_c, 3, 50, 64
5, 368520, Note_off_c, 3, 46, 64
5, 368520, Note_on_c, 3, 45, 45
5, 368520, Note_on_c, 3, 48, 45
5, 369480, Note_off_c, 3, 48, 64
5, 369480, Note_off_c, 3, 45, 64
5, 369480, Note_on_c, 3, 43, 45
5, 369480, Note_on_c, 3, 46, 45
5, 370440, Note_off_c, 3, 46, 64
5, 370440, Note_off_c, 3, 43, 64
5, 370440, Note_on_c, 3, 41, 45
5, 370440, Note_on_c, 3, 45, 45
5, 370675, Note_off_c, 3, 45, 64
5, 370675, Note_off_c, 3, 41, 64
5, 370680, Note_on_c, 3, 41, 45
5, 370680, Note_on_c, 3, 45, 45
5, 370920, Note_off_c, 3, 45, 64
5, 370920, Note_off_c, 3, 41, 64
5, 370920, Note_on_c, 3, 43, 45
5, 370920, Note_on_c, 3, 46, 45
5, 371160, Note_off_c, 3, 46, 64
5, 371160, Note_off_c, 3, 43, 64
5, 371160, Note_on_c, 3, 45, 47
5, 371160, Note_on_c, 3, 48, 47
5, 371400, Note_off_c, 3, 48, 64
5, 371400, Note_off_c, 3, 45, 64
5, 371400, Note_on_c, 3, 46, 49
5, 371400, Note_on_c, 3, 50, 49
5, 371800, Note_off_c, 3, 50, 64
5, 371800, Note_off_c, 3, 46, 64
5, 371880, Note_on_c, 3, 46, 53
5, 371880, Note_on_c, 3, 50, 53
5, 372360, Note_off_c, 3, 50, 64
5, 372360, Note_off_c, 3, 46, 64
5, 372360, Note_on_c, 3, 45, 57
5, 372360, Note_on_c, 3, 48, 57
5, 372760, Note_off_c, 3, 48, 64
5, 372760, Note_off_c, 3, 45, 64
5, 372840, Note_on_c, 3, 45, 61
5, 372840, Note_on_c, 3, 48, 61
5, 373320, Note_off_c, 3, 48, 64
5, 373320, Note_off_c, 3, 45, 64
5, 373320, Note_on_c, 3, 43, 65
5, 373320, Note_on_c, 3, 46, 65
5, 373720, Note_off_c, 3, 46, 64
5, 373720, Note_off_c, 3, 43, 64
5, 373800, Note_on_c, 3, 43, 70
5, 373800, Note_on_c, 3, 46, 70
5, 374280, Note_off_c, 3, 46, 64
5, 374280, Note_off_c, 3, 43, 64
5, 374280, Note_on_c, 3, 41, 75
5, 374280, Note_on_c, 3, 45, 75
5, 374515, Note_off_c, 3, 45, 64
5, 374515, Note_off_c, 3, 41, 64
5, 374760, Note_on_c, 3, 60, 75
5, 374760, Note_on_c, 3, 65, 75
5, 374995, Note_off_c, 3, 65, 64
5, 374995, Note_off_c, 3, 60, 64
5, 375240, Note_on_c, 3, 62, 75
5, 375240, Note_on_c, 3, 65, 75
5, 375475, Note_off_c, 3, 65, 64
5, 375475, Note_off_c, 3, 62, 64
5, 375720, Note_on_c, 3, 58, 75
5, 375720, Note_on_c, 3, 62, 75
5, 375955, Note_off_c, 3, 62, 64
5, 375955, Note_off_c, 3, 58, 64
5, 376200, Note_on_c, 3, 57, 75
5, 376200, Note_on_c, 3, 60, 75
5, 376435, Note_off_c, 3, 60, 64
5, 376435, Note_off_c, 3, 57, 64
5, 376680, Note_on_c, 3, 53, 75
5, 376680, Note_on_c, 3, 57, 75
5, 376915, Note_off_c, 3, 57, 64
5, 376915, Note_off_c, 3, 53, 64
5, 377160, Note_on_c, 3, 52, 75
5, 377160, Note_on_c, 3, 55, 75
5, 377395, Note_off_c, 3, 55, 64
5, 377395, Note_off_c, 3, 52, 64
5, 377640, Note_on_c, 3, 52, 75
5, 377640, Note_on_c, 3, 60, 75
5, 377875, Note_off_c, 3, 60, 64
5, 377875, Note_off_c, 3, 52, 64
5, 378120, Note_on_c, 3, 53, 60
5, 378355, Note_off_c, 3, 53, 64
5, 380040, Note_on_c, 3, 53, 60
5, 380040, Note_on_c, 3, 57, 60
5, 380275, Note_off_c, 3, 57, 64
5, 380275, Note_off_c, 3, 53, 64
5, 381960, Note_on_c, 3, 53, 60
5, 381960, Note_on_c, 3, 57, 60
5, 382195, Note_off_c, 3, 57, 64
5, 382195, Note_off_c, 3, 53, 64
5, 383880, Note_on_c, 3, 53, 60
5, 383880, Note_on_c, 3, 57, 60
5, 384115, Note_off_c, 3, 57, 64
5, 384115, Note_off_c, 3, 53, 64
5, 401280, Note_on_c, 3, 60, 30
5, 401280, Note_on_c, 3, 63, 30
5, 403080, Note_off_c, 3, 63, 64
5, 403080, Note_off_c, 3, 60, 64
5, 403200, Note_on_c, 3, 60, 30
5, 403200, Note_on_c, 3, 63, 30
5, 405000, Note_off_c, 3, 63, 64
5, 405000, Note_off_c, 3, 60, 64
5, 408960, Note_on_c, 3, 50, 45
5, 408960, Note_on_c, 3, 58, 45
5, 409040, Note_off_c, 3, 58, 64
5, 409040, Note_off_c, 3, 50, 64
5, 409200, Note_on_c, 3, 53, 45
5, 409200, Note_on_c, 3, 60, 45
5, 409280, Note_off_c, 3, 60, 64
5, 409280, Note_off_c, 3, 53, 64
5, 409440, Note_on_c, 3, 58, 45
5, 409440, Note_on_c, 3, 62, 45
5, 409920, Note_off_c, 3, 62, 64
5, 409920, Note_off_c, 3, 58, 64
5, 409920, Note_on_c, 3, 50, 45
5, 409920, Note_on_c, 3, 60, 45
5, 410000, Note_off_c, 3, 60, 64
5, 410000, Note_off_c, 3, 50, 64
5, 410160, Note_on_c, 3, 58, 45
5, 410160, Note_on_c, 3, 62, 45
5, 410240, Note_off_c, 3, 62, 64
5, 410240, Note_off_c, 3, 58, 64
5, 410400, Note_on_c, 3, 53, 45
5, 410400, Note_on_c, 3, 60, 45
5, 410880, Note_off_c, 3, 60, 64
5, 410880, Note_off_c, 3, 53, 64
5, 410880, Note_on_c, 3, 58, 45
5, 410880, Note_on_c, 3, 62, 45
5, 411515, Note_off_c, 3, 62, 64
5, 411515, Note_off_c, 3, 58, 64
5, 411520, Note_on_c, 3, 50, 45
5, 411520, Note_on_c, 3, 62, 45
5, 411680, Note_off_c, 3, 62, 64
5, 411680, Note_off_c, 3, 50, 64
5, 411680, Note_on_c, 3, 48, 45
5, 411680, Note_on_c, 3, 60, 45
5, 411840, Note_off_c, 3, 60, 64
5, 411840, Note_off_c, 3, 48, 64
5, 411840, Note_on_c, 3, 46, 45
5, 411840, Note_on_c, 3, 58, 45
5, 412000, Note_off_c, 3, 58, 64
5, 412000, Note_off_c, 3, 46, 64
5, 412000, Note_on_c, 3, 50, 45
5, 412000, Note_on_c, 3, 62, 45
5, 412160, Note_off_c, 3, 62, 64
5, 412160, Note_off_c, 3, 50, 64
5, 412160, Note_on_c, 3, 48, 45
5, 412160, Note_on_c, 3, 60, 45
5, 412320, Note_off_c, 3, 60, 64
5, 412320, Note_off_c, 3, 48, 64
5, 412320, Note_on_c, 3, 46, 45
5, 412320, Note_on_c, 3, 58, 45
5, 412480, Note_off_c, 3, 58, 64
5, 412480, Note_off_c, 3, 46, 64
5, 412480, Note_on_c, 3, 55, 45
5, 412480, Note_on_c, 3, 67, 45
5, 412640, Note_off_c, 3, 67, 64
5, 412640, Note_off_c, 3, 55, 64
5, 412640, Note_on_c, 3, 52, 45
5, 412640, Note_on_c, 3, 64, 45
5, 412800, Note_off_c, 3, 64, 64
5, 412800, Note_off_c, 3, 52, 64
5, 412800, Note_on_c, 3, 53, 45
5, 412800, Note_on_c, 3, 65, 45
5, 413440, Note_off_c, 3, 65, 64
5, 413440, Note_off_c, 3, 53, 64
5, 413440, Note_on_c, 3, 55, 45
5, 413440, Note_on_c, 3, 67, 45
5, 413600, Note_off_c, 3, 67, 64
5, 413600, Note_off_c, 3, 55, 64
5, 413600, Note_on_c, 3, 53, 45
5, 413600, Note_on_c, 3, 65, 45
5, 413760, Note_off_c, 3, 65, 64
5, 413760, Note_off_c, 3, 53, 64
5, 413760, Note_on_c, 3, 50, 45
5, 413760, Note_on_c, 3, 62, 45
5, 413920, Note_off_c, 3, 62, 64
5, 413920, Note_off_c, 3, 50, 64
5, 413920, Note_on_c, 3, 53, 45
5, 413920, Note_on_c, 3, 65, 45
5, 414080, Note_off_c, 3, 65, 64
5, 414080, Note_off_c, 3, 53, 64
5, 414080, Note_on_c, 3, 51, 45
5, 414080, Note_on_c, 3, 63, 45
5, 414240, Note_off_c, 3, 63, 64
5, 414240, Note_off_c, 3, 51, 64
5, 414240, Note_on_c, 3, 48, 45
5, 414240, Note_on_c, 3, 60, 45
5, 414400, Note_off_c, 3, 60, 64
5, 414400, Note_off_c, 3, 48, 64
5, 414400, Note_on_c, 3, 51, 45
5, 414400, Note_on_c, 3, 63, 45
5, 414560, Note_off_c, 3, 63, 64
5, 414560, Note_off_c, 3, 51, 64
5, 414560, Note_on_c, 3, 50, 45
5, 414560, Note_on_c, 3, 62, 45
5, 414715, Note_off_c, 3, 62, 64
5, 414715, Note_off_c, 3, 50, 64
5, 414720, Note_on_c, 3, 46, 45
5, 414720, Note_on_c, 3, 58, 45
5, 415355, Note_off_c, 3, 58, 64
5, 415355, Note_off_c, 3, 46, 64
5, 415360, Note_on_c, 3, 50, 45
5, 415360, Note_on_c, 3, 62, 45
5, 415520, Note_off_c, 3, 62, 64
5, 415520, Note_off_c, 3, 50, 64
5, 415520, Note_on_c, 3, 48, 45
5, 415520, Note_on_c, 3, 60, 45
5, 415680, Note_off_c, 3, 60, 64
5, 415680, Note_off_c, 3, 48, 64
5, 415680, Note_on_c, 3, 46, 45
5, 415680, Note_on_c, 3, 58, 45
5, 415840, Note_off_c, 3, 58, 64
5, 415840, Note_off_c, 3, 46, 64
5, 415840, Note_on_c, 3, 50, 45
5, 415840, Note_on_c, 3, 62, 45
5, 416000, Note_off_c, 3, 62, 64
5, 416000, Note_off_c, 3, 50, 64
5, 416000, Note_on_c, 3, 48, 45
5, 416000, Note_on_c, 3, 60, 45
5, 416160, Note_off_c, 3, 60, 64
5, 416160, Note_off_c, 3, 48, 64
5, 416160, Note_on_c, 3, 46, 45
5, 416160, Note_on_c, 3, 58, 45
5, 416320, Note_off_c, 3, 58, 64
5, 416320, Note_off_c, 3, 46, 64
5, 416320, Note_on_c, 3, 55, 45
5, 416320, Note_on_c, 3, 67, 45
5, 416480, Note_off_c, 3, 67, 64
5, 416480, Note_off_c, 3, 55, 64
5, 416480, Note_on_c, 3, 52, 45
5, 416480, Note_on_c, 3, 64, 45
5, 416640, Note_off_c, 3, 64, 64
5, 416640, Note_off_c, 3, 52, 64
5, 416640, Note_on_c, 3, 53, 45
5, 416640, Note_on_c, 3, 65, 45
5, 417280, Note_off_c, 3, 65, 64
5, 417280, Note_off_c, 3, 53, 64
5, 417280, Note_on_c, 3, 55, 45
5, 417280, Note_on_c, 3, 67, 45
5, 417440, Note_off_c, 3, 67, 64
5, 417440, Note_off_c, 3, 55, 64
5, 417440, Note_on_c, 3, 53, 45
5, 417440, Note_on_c, 3, 65, 45
5, 417600, Note_off_c, 3, 65, 64
5, 417600, Note_off_c, 3, 53, 64
5, 417600, Note_on_c, 3, 50, 45
5, 417600, Note_on_c, 3, 62, 45
5, 417760, Note_off_c, 3, 62, 64
5, 417760, Note_off_c, 3, 50, 64
5, 417760, Note_on_c, 3, 53, 45
5, 417760, Note_on_c, 3, 65, 45
5, 417920, Note_off_c, 3, 65, 64
5, 417920, Note_off_c, 3, 53, 64
5, 417920, Note_on_c, 3, 51, 45
5, 417920, Note_on_c, 3, 63, 45
5, 418080, Note_off_c, 3, 63, 64
5, 418080, Note_off_c, 3, 51, 64
5, 418080, Note_on_c, 3, 48, 45
5, 418080, Note_on_c, 3, 60, 45
5, 418240, Note_off_c, 3, 60, 64
5, 418240, Note_off_c, 3, 48, 64
5, 418240, Note_on_c, 3, 51, 45
5, 418240, Note_on_c, 3, 63, 45
5, 418400, Note_off_c, 3, 63, 64
5, 418400, Note_off_c, 3, 51, 64
5, 418400, Note_on_c, 3, 50, 45
5, 418400, Note_on_c, 3, 62, 45
5, 418555, Note_off_c, 3, 62, 64
5, 418555, Note_off_c, 3, 50, 64
5, 418560, Note_on_c, 3, 46, 45
5, 418560, Note_on_c, 3, 58, 45
5, 418960, Note_off_c, 3, 46, 64
5, 419200, Note_off_c, 3, 58, 64
5, 419200, Note_on_c, 3, 60, 45
5, 419360, Note_off_c, 3, 60, 64
5, 419360, Note_on_c, 3, 62, 45
5, 419515, Note_off_c, 3, 62, 64
5, 419520, Note_on_c, 3, 55, 45
5, 420160, Note_off_c, 3, 55, 64
5, 420160, Note_on_c, 3, 57, 45
5, 420320, Note_off_c, 3, 57, 64
5, 420320, Note_on_c, 3, 58, 45
5, 420475, Note_off_c, 3, 58, 64
5, 420480, Note_on_c, 3, 52, 45
5, 420480, Note_on_c, 3, 64, 45
5, 421120, Note_off_c, 3, 64, 64
5, 421120, Note_off_c, 3, 52, 64
5, 421120, Note_on_c, 3, 53, 54
5, 421120, Note_on_c, 3, 65, 54
5, 421280, Note_off_c, 3, 65, 64
5, 421280, Note_off_c, 3, 53, 64
5, 421280, Note_on_c, 3, 55, 56
5, 421280, Note_on_c, 3, 67, 56
5, 421435, Note_off_c, 3, 67, 64
5, 421435, Note_off_c, 3, 55, 64
5, 421440, Note_on_c, 3, 48, 58
5, 421440, Note_on_c, 3, 60, 58
5, 422080, Note_off_c, 3, 60, 64
5, 422080, Note_off_c, 3, 48, 64
5, 422080, Note_on_c, 3, 50, 69
5, 422080, Note_on_c, 3, 62, 69
5, 422240, Note_off_c, 3, 62, 64
5, 422240, Note_off_c, 3, 50, 64
5, 422240, Note_on_c, 3, 52, 72
5, 422240, Note_on_c, 3, 64, 72
5, 422395, Note_off_c, 3, 64, 64
5, 422395, Note_off_c, 3, 52, 64
5, 422400, Note_on_c, 3, 53, 75
5, 422400, Note_on_c, 3, 65, 75
5, 422880, Note_off_c, 3, 65, 64
5, 422880, Note_off_c, 3, 53, 64
5, 422880, Note_on_c, 3, 48, 75
5, 422880, Note_on_c, 3, 60, 75
5, 424200, Note_off_c, 3, 60, 64
5, 424200, Note_off_c, 3, 48, 64
5, 424320, Note_on_c, 3, 57, 75
5, 424320, Note_on_c, 3, 69, 75
5, 424800, Note_off_c, 3, 69, 64
5, 424800, Note_off_c, 3, 57, 64
5, 424800, Note_on_c, 3, 53, 75
5, 424800, Note_on_c, 3, 65, 75
5, 426120, Note_off_c, 3, 65, 64
5, 426120, Note_off_c, 3, 53, 64
5, 426240, Note_on_c, 3, 53, 75
5, 426240, Note_on_c, 3, 65, 75
5, 426720, Note_off_c, 3, 65, 64
5, 426720, Note_off_c, 3, 53, 64
5, 426720, Note_on_c, 3, 48, 75
5, 426720, Note_on_c, 3, 60, 75
5, 428040, Note_off_c, 3, 60, 64
5, 428040, Note_off_c, 3, 48, 64
5, 428160, Note_on_c, 3, 57, 75
5, 428160, Note_on_c, 3, 69, 75
5, 428640, Note_off_c, 3, 69, 64
5, 428640, Note_off_c, 3, 57, 64
5, 428640, Note_on_c, 3, 53, 75
5, 428640, Note_on_c, 3, 65, 75
5, 429960, Note_off_c, 3, 65, 64
5, 429960, Note_off_c, 3, 53, 64
5, 430080, Note_on_c, 3, 57, 75
5, 430080, Note_on_c, 3, 69, 75
5, 430560, Note_off_c, 3, 69, 64
5, 430560, Note_off_c, 3, 57, 64
5, 430560, Note_on_c, 3, 53, 75
5, 430560, Note_on_c, 3, 65, 75
5, 430960, Note_off_c, 3, 65, 64
5, 430960, Note_off_c, 3, 53, 64
5, 431040, Note_on_c, 3, 57, 75
5, 431040, Note_on_c, 3, 69, 75
5, 431520, Note_off_c, 3, 69, 64
5, 431520, Note_off_c, 3, 57, 64
5, 431520, Note_on_c, 3, 53, 75
5, 431520, Note_on_c, 3, 65, 75
5, 431920, Note_off_c, 3, 65, 64
5, 431920, Note_off_c, 3, 53, 64
5, 432000, Note_on_c, 3, 57, 75
5, 432000, Note_on_c, 3, 69, 75
5, 432480, Note_off_c, 3, 69, 64
5, 432480, Note_off_c, 3, 57, 64
5, 432480, Note_on_c, 3, 53, 75
5, 432480, Note_on_c, 3, 65, 75
5, 432880, Note_off_c, 3, 65, 64
5, 432880, Note_off_c, 3, 53, 64
5, 432960, Note_on_c, 3, 55, 75
5, 432960, Note_on_c, 3, 67, 75
5, 433440, Note_off_c, 3, 67, 64
5, 433440, Note_off_c, 3, 55, 64
5, 433440, Note_on_c, 3, 52, 75
5, 433440, Note_on_c, 3, 64, 75
5, 433840, Note_off_c, 3, 64, 64
5, 433840, Note_off_c, 3, 52, 64
5, 433920, Note_on_c, 3, 57, 75
5, 433920, Note_on_c, 3, 69, 75
5, 434400, Note_off_c, 3, 69, 64
5, 434400, Note_off_c, 3, 57, 64
5, 434400, Note_on_c, 3, 53, 75
5, 434400, Note_on_c, 3, 65, 75
5, 434800, Note_off_c, 3, 65, 64
5, 434800, Note_off_c, 3, 53, 64
5, 434880, Note_on_c, 3, 57, 75
5, 434880, Note_on_c, 3, 69, 75
5, 435360, Note_off_c, 3, 69, 64
5, 435360, Note_off_c, 3, 57, 64
5, 435360, Note_on_c, 3, 53, 75
5, 435360, Note_on_c, 3, 65, 75
5, 435760, Note_off_c, 3, 65, 64
5, 435760, Note_off_c, 3, 53, 64
5, 435840, Note_on_c, 3, 57, 75
5, 435840, Note_on_c, 3, 69, 75
5, 436320, Note_off_c, 3, 69, 64
5, 436320, Note_off_c, 3, 57, 64
5, 436320, Note_on_c, 3, 53, 75
5, 436320, Note_on_c, 3, 65, 75
5, 436720, Note_off_c, 3, 65, 64
5, 436720, Note_off_c, 3, 53, 64
5, 436800, Note_on_c, 3, 55, 75
5, 436800, Note_on_c, 3, 67, 75
5, 437280, Note_off_c, 3, 67, 64
5, 437280, Note_off_c, 3, 55, 64
5, 437280, Note_on_c, 3, 52, 75
5, 437280, Note_on_c, 3, 64, 75
5, 437680, Note_off_c, 3, 64, 64
5, 437680, Note_off_c, 3, 52, 64
5, 437760, Note_on_c, 3, 57, 75
5, 437760, Note_on_c, 3, 69, 75
5, 438240, Note_off_c, 3, 69, 64
5, 438240, Note_off_c, 3, 57, 64
5, 438240, Note_on_c, 3, 53, 75
5, 438240, Note_on_c, 3, 65, 75
5, 438640, Note_off_c, 3, 65, 64
5, 438640, Note_off_c, 3, 53, 64
5, 438720, Note_on_c, 3, 57, 75
5, 438720, Note_on_c, 3, 69, 75
5, 439200, Note_off_c, 3, 69, 64
5, 439200, Note_off_c, 3, 57, 64
5, 439200, Note_on_c, 3, 53, 75
5, 439200, Note_on_c, 3, 65, 75
5, 439600, Note_off_c, 3, 65, 64
5, 439600, Note_off_c, 3, 53, 64
5, 439680, Note_on_c, 3, 53, 75
5, 439680, Note_on_c, 3, 57, 75
5, 441835, Note_off_c, 3, 57, 64
5, 441835, Note_off_c, 3, 53, 64
5, 451200, Note_on_c, 3, 48, 60
5, 451200, Note_on_c, 3, 55, 60
5, 452040, Note_off_c, 3, 55, 64
5, 452040, Note_off_c, 3, 48, 64
5, 452160, Note_on_c, 3, 53, 60
5, 452160, Note_on_c, 3, 57, 60
5, 452395, Note_off_c, 3, 57, 64
5, 452395, Note_off_c, 3, 53, 64
5, 452640, Note_on_c, 3, 48, 60
5, 452640, Note_on_c, 3, 55, 60
5, 452875, Note_off_c, 3, 55, 64
5, 452875, Note_off_c, 3, 48, 64
5, 455040, Note_on_c, 3, 48, 60
5, 455040, Note_on_c, 3, 55, 60
5, 455880, Note_off_c, 3, 55, 64
5, 455880, Note_off_c, 3, 48, 64
5, 456000, Note_on_c, 3, 53, 60
5, 456000, Note_on_c, 3, 57, 60
5, 456235, Note_off_c, 3, 57, 64
5, 456235, Note_off_c, 3, 53, 64
5, 456480, Note_on_c, 3, 48, 60
5, 456480, Note_on_c, 3, 55, 60
5, 456715, Note_off_c, 3, 55, 64
5, 456715, Note_off_c, 3, 48, 64
5, 456960, Note_on_c, 3, 53, 60
5, 457195, Note_off_c, 3, 53, 64
5, 457200, Note_on_c, 3, 48, 45
5, 457280, Note_off_c, 3, 48, 64
5, 457440, Note_on_c, 3, 53, 45
5, 457520, Note_off_c, 3, 53, 64
5, 457680, Note_on_c, 3, 48, 45
5, 457760, Note_off_c, 3, 48, 64
5, 457920, Note_on_c, 3, 52, 45
5, 458000, Note_off_c, 3, 52, 64
5, 458160, Note_on_c, 3, 48, 45
5, 458240, Note_off_c, 3, 48, 64
5, 458400, Note_on_c, 3, 55, 45
5, 458480, Note_off_c, 3, 55, 64
5, 458640, Note_on_c, 3, 48, 45
5, 458720, Note_off_c, 3, 48, 64
5, 458880, Note_on_c, 3, 53, 45
5, 458960, Note_off_c, 3, 53, 64
5, 459120, Note_on_c, 3, 48, 45
5, 459200, Note_off_c, 3, 48, 64
5, 459360, Note_on_c, 3, 57, 45
5, 459440, Note_off_c, 3, 57, 64
5, 459600, Note_on_c, 3, 48, 45
5, 459680, Note_off_c, 3, 48, 64
5, 459840, Note_on_c, 3, 55, 75
5, 459920, Note_off_c, 3, 55, 64
5, 460080, Note_on_c, 3, 48, 75
5, 460160, Note_off_c, 3, 48, 64
5, 460320, Note_on_c, 3, 55, 75
5, 460400, Note_off_c, 3, 55, 64
5, 460560, Note_on_c, 3, 48, 75
5, 460640, Note_off_c, 3, 48, 64
5, 460800, Note_on_c, 3, 53, 45
5, 460880, Note_off_c, 3, 53, 64
5, 461040, Note_on_c, 3, 48, 45
5, 461120, Note_off_c, 3, 48, 64
5, 461280, Note_on_c, 3, 53, 45
5, 461360, Note_off_c, 3, 53, 64
5, 461520, Note_on_c, 3, 48, 45
5, 461600, Note_off_c, 3, 48, 64
5, 461760, Note_on_c, 3, 52, 45
5, 461840, Note_off_c, 3, 52, 64
5, 462000, Note_on_c, 3, 48, 45
5, 462080, Note_off_c, 3, 48, 64
5, 462240, Note_on_c, 3, 55, 45
5, 462320, Note_off_c, 3, 55, 64
5, 462480, Note_on_c, 3, 48, 45
5, 462560, Note_off_c, 3, 48, 64
5, 462720, Note_on_c, 3, 53, 45
5, 462800, Note_off_c, 3, 53, 64
5, 462960, Note_on_c, 3, 48, 45
5, 463040, Note_off_c, 3, 48, 64
5, 463200, Note_on_c, 3, 57, 45
5, 463280, Note_off_c, 3, 57, 64
5, 463440, Note_on_c, 3, 48, 45
5, 463520, Note_off_c, 3, 48, 64
5, 463680, Note_on_c, 3, 55, 75
5, 463760, Note_off_c, 3, 55, 64
5, 463920, Note_on_c, 3, 48, 75
5, 464000, Note_off_c, 3, 48, 64
5, 464160, Note_on_c, 3, 55, 75
5, 464240, Note_off_c, 3, 55, 64
5, 464400, Note_on_c, 3, 48, 75
5, 464480, Note_off_c, 3, 48, 64
5, 464640, Note_on_c, 3, 48, 75
5, 464720, Note_off_c, 3, 48, 64
5, 465600, Note_on_c, 3, 55, 75
5, 465680, Note_off_c, 3, 55, 64
5, 465840, Note_on_c, 3, 48, 75
5, 465920, Note_off_c, 3, 48, 64
5, 466080, Note_on_c, 3, 55, 75
5, 466160, Note_off_c, 3, 55, 64
5, 466320, Note_on_c, 3, 48, 75
5, 466400, Note_off_c, 3, 48, 64
5, 466560, Note_on_c, 3, 48, 75
5, 466795, Note_off_c, 3, 48, 64
5, 467520, Note_on_c, 3, 55, 75
5, 467600, Note_off_c, 3, 55, 64
5, 467760, Note_on_c, 3, 48, 75
5, 467840, Note_off_c, 3, 48, 64
5, 468000, Note_on_c, 3, 55, 75
5, 468080, Note_off_c, 3, 55, 64
5, 468240, Note_on_c, 3, 48, 75
5, 468320, Note_off_c, 3, 48, 64
5, 468480, Note_on_c, 3, 48, 75
5, 468715, Note_off_c, 3, 48, 64
5, 469440, Note_on_c, 3, 41, 75
5, 469440, Note_on_c, 3, 53, 75
5, 469675, Note_off_c, 3, 53, 64
5, 469675, Note_off_c, 3, 41, 64
5, 470400, Note_on_c, 3, 41, 60
5, 470400, Note_on_c, 3, 48, 60
5, 470635, Note_off_c, 3, 48, 64
5, 470635, Note_off_c, 3, 41, 64
5, 471360, Note_on_c, 3, 41, 45
5, 471360, Note_on_c, 3, 48, 45
5, 471595, Note_off_c, 3, 48, 64
5, 471595, Note_off_c, 3, 41, 64
5, 472320, Note_on_c, 3, 41, 30
5, 472320, Note_on_c, 3, 48, 30
5, 472555, Note_off_c, 3, 48, 64
5, 472555, Note_off_c, 3, 41, 64
5, 483000, Note_on_c, 3, 58, 45
5, 483080, Note_off_c, 3, 58, 64
5, 483240, Note_on_c, 3, 60, 45
5, 483320, Note_off_c, 3, 60, 64
5, 483480, Note_on_c, 3, 62, 45
5, 483560, Note_off_c, 3, 62, 64
5, 483720, Note_on_c, 3, 64, 45
5, 483800, Note_off_c, 3, 64, 64
5, 483960, Note_on_c, 3, 65, 45
5, 484315, Note_off_c, 3, 65, 64
5, 485040, Note_on_c, 3, 46, 75
5, 485120, Note_off_c, 3, 46, 64
5, 485280, Note_on_c, 3, 48, 75
5, 485360, Note_off_c, 3, 48, 64
5, 485520, Note_on_c, 3, 50, 75
5, 485600, Note_off_c, 3, 50, 64
5, 485760, Note_on_c, 3, 52, 75
5, 485840, Note_off_c, 3, 52, 64
5, 486000, Note_on_c, 3, 53, 75
5, 486840, Note_off_c, 3, 53, 64
5, 486960, Note_on_c, 3, 52, 75
5, 486960, Note_on_c, 3, 55, 75
5, 487800, Note_off_c, 3, 55, 64
5, 487800, Note_off_c, 3, 52, 64
5, 487920, Note_on_c, 3, 53, 75
5, 487920, Note_on_c, 3, 57, 75
5, 488760, Note_off_c, 3, 57, 64
5, 488760, Note_off_c, 3, 53, 64
5, 488880, Note_on_c, 3, 53, 68
5, 488880, Note_on_c, 3, 57, 68
5, 489360, Note_off_c, 3, 57, 64
5, 489360, Note_off_c, 3, 53, 64
5, 489360, Note_on_c, 3, 53, 64
5, 489360, Note_on_c, 3, 57, 64
5, 489840, Note_off_c, 3, 57, 64
5, 489840, Note_off_c, 3, 53, 64
5, 489840, Note_on_c, 3, 53, 60
5, 489840, Note_on_c, 3, 57, 60
5, 490680, Note_off_c, 3, 57, 64
5, 490680, Note_off_c, 3, 53, 64
5, 490800, Note_on_c, 3, 41, 45
5, 491640, Note_off_c, 3, 41, 64
5, 491760, Note_on_c, 3, 41, 45
5, 492600, Note_off_c, 3, 41, 64
5, 507600, Note_on_c, 3, 45, 45
5, 507600, Note_on_c, 3, 57, 45
5, 508080, Note_off_c, 3, 57, 64
5, 508080, Note_off_c, 3, 45, 64
5, 508080, Note_on_c, 3, 50, 45
5, 508080, Note_on_c, 3, 62, 45
5, 508920, Note_off_c, 3, 62, 64
5, 508920, Note_off_c, 3, 50, 64
5, 509040, Note_on_c, 3, 50, 45
5, 509040, Note_on_c, 3, 62, 45
5, 510360, Note_off_c, 3, 62, 64
5, 510360, Note_off_c, 3, 50, 64
5, 510480, Note_on_c, 3, 50, 45
5, 510480, Note_on_c, 3, 62, 45
5, 511800, Note_off_c, 3, 62, 64
5, 511800, Note_off_c, 3, 50, 64
5, 511920, Note_on_c, 3, 50, 45
5, 511920, Note_on_c, 3, 62, 45
5, 513240, Note_off_c, 3, 62, 64
5, 513240, Note_off_c, 3, 50, 64
5, 513360, Note_on_c, 3, 50, 45
5, 513360, Note_on_c, 3, 62, 45
5, 514680, Note_off_c, 3, 62, 64
5, 514680, Note_off_c, 3, 50, 64
5, 514800, Note_on_c, 3, 50, 45
5, 514800, Note_on_c, 3, 62, 45
5, 516120, Note_off_c, 3, 62, 64
5, 516120, Note_off_c, 3, 50, 64
5, 516240, Note_on_c, 3, 50, 45
5, 516240, Note_on_c, 3, 62, 45
5, 517560, Note_off_c, 3, 62, 64
5, 517560, Note_off_c, 3, 50, 64
5, 517680, Note_on_c, 3, 45, 45
5, 517680, Note_on_c, 3, 61, 45
5, 518160, Note_off_c, 3, 61, 64
5, 518160, Note_off_c, 3, 45, 64
5, 518160, Note_on_c, 3, 50, 45
5, 518160, Note_on_c, 3, 62, 45
5, 518800, Note_off_c, 3, 62, 64
5, 518800, Note_off_c, 3, 50, 64
5, 530640, Note_on_c, 3, 45, 45
5, 530640, Note_on_c, 3, 57, 45
5, 531120, Note_off_c, 3, 57, 64
5, 531120, Note_off_c, 3, 45, 64
5, 531120, Note_on_c, 3, 50, 45
5, 531120, Note_on_c, 3, 62, 45
5, 531960, Note_off_c, 3, 62, 64
5, 531960, Note_off_c, 3, 50, 64
5, 532080, Note_on_c, 3, 50, 45
5, 532080, Note_on_c, 3, 62, 45
5, 533400, Note_off_c, 3, 62, 64
5, 533400, Note_off_c, 3, 50, 64
5, 533520, Note_on_c, 3, 50, 45
5, 533520, Note_on_c, 3, 62, 45
5, 534840, Note_off_c, 3, 62, 64
5, 534840, Note_off_c, 3, 50, 64
5, 534960, Note_on_c, 3, 50, 45
5, 534960, Note_on_c, 3, 62, 45
5, 536280, Note_off_c, 3, 62, 64
5, 536280, Note_off_c, 3, 50, 64
5, 536400, Note_on_c, 3, 50, 45
5, 536400, Note_on_c, 3, 62, 45
5, 537720, Note_off_c, 3, 62, 64
5, 537720, Note_off_c, 3, 50, 64
5, 537840, Note_on_c, 3, 50, 45
5, 537840, Note_on_c, 3, 62, 45
5, 539160, Note_off_c, 3, 62, 64
5, 539160, Note_off_c, 3, 50, 64
5, 539280, Note_on_c, 3, 50, 45
5, 539280, Note_on_c, 3, 62, 45
5, 540600, Note_off_c, 3, 62, 64
5, 540600, Note_off_c, 3, 50, 64
5, 540720, Note_on_c, 3, 45, 45
5, 540720, Note_on_c, 3, 61, 45
5, 541200, Note_off_c, 3, 61, 64
5, 541200, Note_off_c, 3, 45, 64
5, 541200, Note_on_c, 3, 50, 45
5, 541200, Note_on_c, 3, 62, 45
5, 541840, Note_off_c, 3, 62, 64
5, 541840, Note_off_c, 3, 50, 64
5, 545040, Note_on_c, 3, 67, 45
5, 545160, Note_off_c, 3, 67, 64
5, 545520, Note_on_c, 3, 66, 45
5, 545640, Note_off_c, 3, 66, 64
5, 546000, Note_on_c, 3, 62, 45
5, 546120, Note_off_c, 3, 62, 64
5, 546480, Note_on_c, 3, 64, 45
5, 546600, Note_off_c, 3, 64, 64
5, 546960, Note_on_c, 3, 66, 45
5, 547080, Note_off_c, 3, 66, 64
5, 547440, Note_on_c, 3, 62, 45
5, 547560, Note_off_c, 3, 62, 64
5, 550800, Note_on_c, 3, 60, 45
5, 550920, Note_off_c, 3, 60, 64
5, 551280, Note_on_c, 3, 59, 45
5, 551400, Note_off_c, 3, 59, 64
5, 551760, Note_on_c, 3, 55, 45
5, 551880, Note_off_c, 3, 55, 64
5, 552240, Note_on_c, 3, 57, 45
5, 552360, Note_off_c, 3, 57, 64
5, 552720, Note_on_c, 3, 59, 45
5, 552840, Note_off_c, 3, 59, 64
5, 553200, Note_on_c, 3, 55, 45
5, 553320, Note_off_c, 3, 55, 64
5, 559440, Note_on_c, 3, 50, 45
5, 559440, Note_on_c, 3, 59, 45
5, 559920, Note_off_c, 3, 59, 64
5, 559920, Note_off_c, 3, 50, 64
5, 559920, Note_on_c, 3, 52, 45
5, 559920, Note_on_c, 3, 60, 45
5, 560400, Note_off_c, 3, 60, 64
5, 560400, Note_on_c, 3, 55, 45
5, 560760, Note_off_c, 3, 52, 64
5, 560880, Note_off_c, 3, 55, 64
5, 560880, Note_on_c, 3, 53, 45
5, 560880, Note_on_c, 3, 57, 45
5, 561360, Note_off_c, 3, 57, 64
5, 561360, Note_off_c, 3, 53, 64
5, 561360, Note_on_c, 3, 52, 45
5, 561360, Note_on_c, 3, 55, 45
5, 561840, Note_off_c, 3, 55, 64
5, 561840, Note_off_c, 3, 52, 64
5, 561840, Note_on_c, 3, 55, 45
5, 561840, Note_on_c, 3, 64, 45
5, 562320, Note_off_c, 3, 64, 64
5, 562320, Note_off_c, 3, 55, 64
5, 562320, Note_on_c, 3, 57, 45
5, 562320, Note_on_c, 3, 65, 45
5, 562800, Note_off_c, 3, 65, 64
5, 562800, Note_off_c, 3, 57, 64
5, 562800, Note_on_c, 3, 55, 45
5, 562800, Note_on_c, 3, 64, 45
5, 563280, Note_off_c, 3, 64, 64
5, 563280, Note_off_c, 3, 55, 64
5, 563280, Note_on_c, 3, 55, 45
5, 563280, Note_on_c, 3, 60, 45
5, 563760, Note_off_c, 3, 60, 64
5, 563760, Note_off_c, 3, 55, 64
5, 563760, Note_on_c, 3, 59, 45
5, 563760, Note_on_c, 3, 62, 45
5, 564240, Note_off_c, 3, 62, 64
5, 564240, Note_off_c, 3, 59, 64
5, 564240, Note_on_c, 3, 60, 45
5, 564240, Note_on_c, 3, 64, 45
5, 564720, Note_off_c, 3, 64, 64
5, 564720, Note_off_c, 3, 60, 64
5, 564720, Note_on_c, 3, 52, 48
5, 564720, Note_on_c, 3, 60, 48
5, 565120, Note_off_c, 3, 60, 64
5, 565120, Note_off_c, 3, 52, 64
5, 570960, Note_on_c, 3, 36, 127
5, 570960, Note_on_c, 3, 48, 127
5, 571360, Note_off_c, 3, 48, 64
5, 571360, Note_off_c, 3, 36, 64
5, 571440, Note_on_c, 3, 41, 127
5, 571440, Note_on_c, 3, 53, 127
5, 571840, Note_off_c, 3, 53, 64
5, 571840, Note_off_c, 3, 41, 64
5, 571920, Note_on_c, 3, 36, 92
5, 571920, Note_on_c, 3, 48, 92
5, 572320, Note_off_c, 3, 48, 64
5, 572320, Note_off_c, 3, 36, 64
5, 572400, Note_on_c, 3, 38, 92
5, 572400, Note_on_c, 3, 50, 92
5, 572800, Note_off_c, 3, 50, 64
5, 572800, Note_off_c, 3, 38, 64
5, 572880, Note_on_c, 3, 36, 92
5, 572880, Note_on_c, 3, 48, 92
5, 573280, Note_off_c, 3, 48, 64
5, 573280, Note_off_c, 3, 36, 64
5, 573360, Note_on_c, 3, 45, 92
5, 573760, Note_off_c, 3, 45, 64
5, 573840, Note_on_c, 3, 46, 92
5, 574240, Note_off_c, 3, 46, 64
5, 574320, Note_on_c, 3, 45, 92
5, 574720, Note_off_c, 3, 45, 64
5, 574800, Note_on_c, 3, 41, 92
5, 574800, Note_on_c, 3, 53, 92
5, 575200, Note_off_c, 3, 53, 64
5, 575200, Note_off_c, 3, 41, 64
5, 575280, Note_on_c, 3, 43, 92
5, 575280, Note_on_c, 3, 55, 92
5, 575680, Note_off_c, 3, 55, 64
5, 575680, Note_off_c, 3, 43, 64
5, 575760, Note_on_c, 3, 45, 92
5, 575760, Note_on_c, 3, 57, 92
5, 576160, Note_off_c, 3, 57, 64
5, 576160, Note_off_c, 3, 45, 64
5, 576240, Note_on_c, 3, 41, 92
5, 576240, Note_on_c, 3, 53, 92
5, 576640, Note_off_c, 3, 53, 64
5, 576640, Note_off_c, 3, 41, 64
5, 576720, Note_on_c, 3, 43, 92
5, 576720, Note_on_c, 3, 55, 92
5, 577120, Note_off_c, 3, 55, 64
5, 577120, Note_off_c, 3, 43, 64
5, 577200, Note_on_c, 3, 45, 92
5, 577200, Note_on_c, 3, 57, 92
5, 577600, Note_off_c, 3, 57, 64
5, 577600, Note_off_c, 3, 45, 64
5, 577680, Note_on_c, 3, 41, 92
5, 577680, Note_on_c, 3, 53, 92
5, 578080, Note_off_c, 3, 53, 64
5, 578080, Note_off_c, 3, 41, 64
5, 578160, Note_on_c, 3, 43, 92
5, 578160, Note_on_c, 3, 55, 92
5, 578560, Note_off_c, 3, 55, 64
5, 578560, Note_off_c, 3, 43, 64
5, 578640, Note_on_c, 3, 45, 92
5, 578640, Note_on_c, 3, 57, 92
5, 579040, Note_off_c, 3, 57, 64
5, 579040, Note_off_c, 3, 45, 64
5, 579120, Note_on_c, 3, 41, 92
5, 579120, Note_on_c, 3, 53, 92
5, 579520, Note_off_c, 3, 53, 64
5, 579520, Note_off_c, 3, 41, 64
5, 579600, Note_on_c, 3, 43, 92
5, 579600, Note_on_c, 3, 55, 92
5, 580000, Note_off_c, 3, 55, 64
5, 580000, Note_off_c, 3, 43, 64
5, 580080, Note_on_c, 3, 45, 92
5, 580080, Note_on_c, 3, 57, 92
5, 581400, Note_off_c, 3, 57, 64
5, 581400, Note_off_c, 3, 45, 64
5, 581520, Note_on_c, 3, 43, 92
5, 581520, Note_on_c, 3, 55, 92
5, 582360, Note_off_c, 3, 55, 64
5, 582360, Note_off_c, 3, 43, 64
5, 582480, Note_on_c, 3, 41, 92
5, 582480, Note_on_c, 3, 53, 92
5, 582880, Note_off_c, 3, 53, 64
5, 582880, Note_off_c, 3, 41, 64
5, 582960, Note_on_c, 3, 40, 92
5, 582960, Note_on_c, 3, 52, 92
5, 583800, Note_off_c, 3, 52, 64
5, 583800, Note_off_c, 3, 40, 64
5, 583920, Note_on_c, 3, 38, 92
5, 583920, Note_on_c, 3, 50, 92
5, 584320, Note_off_c, 3, 50, 64
5, 584320, Note_off_c, 3, 38, 64
5, 584400, Note_on_c, 3, 36, 92
5, 584400, Note_on_c, 3, 48, 92
5, 585240, Note_off_c, 3, 48, 64
5, 585240, Note_off_c, 3, 36, 64
5, 585360, Note_on_c, 3, 46, 92
5, 585360, Note_on_c, 3, 58, 92
5, 585760, Note_off_c, 3, 58, 64
5, 585760, Note_off_c, 3, 46, 64
5, 585840, Note_on_c, 3, 45, 92
5, 585840, Note_on_c, 3, 57, 92
5, 587160, Note_off_c, 3, 57, 64
5, 587160, Note_off_c, 3, 45, 64
5, 587280, Note_on_c, 3, 46, 92
5, 587280, Note_on_c, 3, 58, 92
5, 588600, Note_off_c, 3, 58, 64
5, 588600, Note_off_c, 3, 46, 64
5, 588720, Note_on_c, 3, 48, 92
5, 588720, Note_on_c, 3, 60, 92
5, 590040, Note_off_c, 3, 60, 64
5, 590040, Note_off_c, 3, 48, 64
5, 590160, Note_on_c, 3, 36, 92
5, 590160, Note_on_c, 3, 48, 92
5, 591480, Note_off_c, 3, 48, 64
5, 591480, Note_off_c, 3, 36, 64
5, 591600, Note_on_c, 3, 41, 92
5, 591600, Note_on_c, 3, 53, 92
5, 592000, Note_off_c, 3, 53, 64
5, 592000, Note_off_c, 3, 41, 64
5, 592560, Note_on_c, 3, 45, 92
5, 592560, Note_on_c, 3, 57, 92
5, 592960, Note_off_c, 3, 57, 64
5, 592960, Note_off_c, 3, 45, 64
5, 593040, Note_on_c, 3, 43, 92
5, 593040, Note_on_c, 3, 55, 92
5, 593880, Note_off_c, 3, 55, 64
5, 593880, Note_off_c, 3, 43, 64
5, 594000, Note_on_c, 3, 41, 92
5, 594000, Note_on_c, 3, 53, 92
5, 594400, Note_off_c, 3, 53, 64
5, 594400, Note_off_c, 3, 41, 64
5, 594480, Note_on_c, 3, 40, 92
5, 594480, Note_on_c, 3, 52, 92
5, 595320, Note_off_c, 3, 52, 64
5, 595320, Note_off_c, 3, 40, 64
5, 595440, Note_on_c, 3, 38, 92
5, 595440, Note_on_c, 3, 50, 92
5, 595840, Note_off_c, 3, 50, 64
5, 595840, Note_off_c, 3, 38, 64
5, 595920, Note_on_c, 3, 36, 92
5, 595920, Note_on_c, 3, 48, 92
5, 596760, Note_off_c, 3, 48, 64
5, 596760, Note_off_c, 3, 36, 64
5, 596880, Note_on_c, 3, 46, 92
5, 596880, Note_on_c, 3, 58, 92
5, 597280, Note_off_c, 3, 58, 64
5, 597280, Note_off_c, 3, 46, 64
5, 597360, Note_on_c, 3, 45, 92
5, 597360, Note_on_c, 3, 57, 92
5, 598680, Note_off_c, 3, 57, 64
5, 598680, Note_off_c, 3, 45, 64
5, 598800, Note_on_c, 3, 46, 92
5, 598800, Note_on_c, 3, 58, 92
5, 600120, Note_off_c, 3, 58, 64
5, 600120, Note_off_c, 3, 46, 64
5, 600240, Note_on_c, 3, 48, 92
5, 600240, Note_on_c, 3, 60, 92
5, 601560, Note_off_c, 3, 60, 64
5, 601560, Note_off_c, 3, 48, 64
5, 601680, Note_on_c, 3, 36, 92
5, 601680, Note_on_c, 3, 48, 92
5, 603000, Note_off_c, 3, 48, 64
5, 603000, Note_off_c, 3, 36, 64
5, 603120, Note_on_c, 3, 41, 92
5, 603120, Note_on_c, 3, 53, 92
5, 603520, Note_off_c, 3, 53, 64
5, 603520, Note_off_c, 3, 41, 64
5, 603600, Note_on_c, 3, 53, 92
5, 603600, Note_on_c, 3, 57, 92
5, 604000, Note_off_c, 3, 57, 64
5, 604000, Note_off_c, 3, 53, 64
5, 604080, Note_on_c, 3, 53, 92
5, 604080, Note_on_c, 3, 57, 92
5, 604480, Note_off_c, 3, 57, 64
5, 604480, Note_off_c, 3, 53, 64
5, 604560, Note_on_c, 3, 57, 92
5, 604560, Note_on_c, 3, 60, 92
5, 604960, Note_off_c, 3, 60, 64
5, 604960, Note_off_c, 3, 57, 64
5, 605040, Note_on_c, 3, 53, 92
5, 605040, Note_on_c, 3, 57, 92
5, 605440, Note_off_c, 3, 57, 64
5, 605440, Note_off_c, 3, 53, 64
5, 605520, Note_on_c, 3, 53, 92
5, 605520, Note_on_c, 3, 57, 92
5, 605920, Note_off_c, 3, 57, 64
5, 605920, Note_off_c, 3, 53, 64
5, 606000, Note_on_c, 3, 57, 92
5, 606000, Note_on_c, 3, 60, 92
5, 606400, Note_off_c, 3, 60, 64
5, 606400, Note_off_c, 3, 57, 64
5, 606480, Note_on_c, 3, 53, 92
5, 606480, Note_on_c, 3, 57, 92
5, 606880, Note_off_c, 3, 57, 64
5, 606880, Note_off_c, 3, 53, 64
5, 606960, Note_on_c, 3, 53, 92
5, 606960, Note_on_c, 3, 57, 92
5, 607360, Note_off_c, 3, 57, 64
5, 607360, Note_off_c, 3, 53, 64
5, 607440, Note_on_c, 3, 55, 92
5, 607440, Note_on_c, 3, 58, 92
5, 607840, Note_off_c, 3, 58, 64
5, 607840, Note_off_c, 3, 55, 64
5, 607920, Note_on_c, 3, 48, 92
5, 607920, Note_on_c, 3, 55, 92
5, 608320, Note_off_c, 3, 55, 64
5, 608320, Note_off_c, 3, 48, 64
5, 608400, Note_on_c, 3, 48, 92
5, 608400, Note_on_c, 3, 55, 92
5, 608800, Note_off_c, 3, 55, 64
5, 608800, Note_off_c, 3, 48, 64
5, 608880, Note_on_c, 3, 57, 92
5, 608880, Note_on_c, 3, 60, 92
5, 609280, Note_off_c, 3, 60, 64
5, 609280, Note_off_c, 3, 57, 64
5, 609360, Note_on_c, 3, 53, 92
5, 609360, Note_on_c, 3, 57, 92
5, 609760, Note_off_c, 3, 57, 64
5, 609760, Note_off_c, 3, 53, 64
5, 609840, Note_on_c, 3, 53, 92
5, 609840, Note_on_c, 3, 57, 92
5, 610240, Note_off_c, 3, 57, 64
5, 610240, Note_off_c, 3, 53, 64
5, 610320, Note_on_c, 3, 57, 92
5, 610320, Note_on_c, 3, 60, 92
5, 610720, Note_off_c, 3, 60, 64
5, 610720, Note_off_c, 3, 57, 64
5, 610800, Note_on_c, 3, 53, 92
5, 610800, Note_on_c, 3, 57, 92
5, 611200, Note_off_c, 3, 57, 64
5, 611200, Note_off_c, 3, 53, 64
5, 611280, Note_on_c, 3, 53, 92
5, 611280, Note_on_c, 3, 57, 92
5, 611680, Note_off_c, 3, 57, 64
5, 611680, Note_off_c, 3, 53, 64
5, 611760, Note_on_c, 3, 57, 92
5, 611760, Note_on_c, 3, 60, 92
5, 612160, Note_off_c, 3, 60, 64
5, 612160, Note_off_c, 3, 57, 64
5, 612240, Note_on_c, 3, 53, 92
5, 612240, Note_on_c, 3, 57, 92
5, 612640, Note_off_c, 3, 57, 64
5, 612640, Note_off_c, 3, 53, 64
5, 612720, Note_on_c, 3, 53, 92
5, 612720, Note_on_c, 3, 57, 92
5, 613120, Note_off_c, 3, 57, 64
5, 613120, Note_off_c, 3, 53, 64
5, 613200, Note_on_c, 3, 55, 92
5, 613200, Note_on_c, 3, 58, 92
5, 613600, Note_off_c, 3, 58, 64
5, 613600, Note_off_c, 3, 55, 64
5, 613680, Note_on_c, 3, 48, 92
5, 613680, Note_on_c, 3, 55, 92
5, 614080, Note_off_c, 3, 55, 64
5, 614080, Note_off_c, 3, 48, 64
5, 614160, Note_on_c, 3, 48, 92
5, 614160, Note_on_c, 3, 55, 92
5, 614560, Note_off_c, 3, 55, 64
5, 614560, Note_off_c, 3, 48, 64
5, 614640, Note_on_c, 3, 57, 92
5, 614640, Note_on_c, 3, 60, 92
5, 615040, Note_off_c, 3, 60, 64
5, 615040, Note_off_c, 3, 57, 64
5, 615120, Note_on_c, 3, 53, 92
5, 615120, Note_on_c, 3, 57, 92
5, 615520, Note_off_c, 3, 57, 64
5, 615520, Note_off_c, 3, 53, 64
5, 615600, Note_on_c, 3, 53, 92
5, 615600, Note_on_c, 3, 57, 92
5, 616000, Note_off_c, 3, 57, 64
5, 616000, Note_off_c, 3, 53, 64
5, 616080, Note_on_c, 3, 57, 92
5, 616080, Note_on_c, 3, 60, 92
5, 616480, Note_off_c, 3, 60, 64
5, 616480, Note_off_c, 3, 57, 64
5, 616560, Note_on_c, 3, 53, 92
5, 616560, Note_on_c, 3, 57, 92
5, 616960, Note_off_c, 3, 57, 64
5, 616960, Note_off_c, 3, 53, 64
5, 617040, Note_on_c, 3, 53, 92
5, 617040, Note_on_c, 3, 57, 92
5, 617440, Note_off_c, 3, 57, 64
5, 617440, Note_off_c, 3, 53, 64
5, 617520, Note_on_c, 3, 57, 92
5, 617520, Note_on_c, 3, 60, 92
5, 617920, Note_off_c, 3, 60, 64
5, 617920, Note_off_c, 3, 57, 64
5, 618000, Note_on_c, 3, 53, 92
5, 618000, Note_on_c, 3, 57, 92
5, 618400, Note_off_c, 3, 57, 64
5, 618400, Note_off_c, 3, 53, 64
5, 618480, Note_on_c, 3, 53, 92
5, 618480, Note_on_c, 3, 57, 92
5, 618880, Note_off_c, 3, 57, 64
5, 618880, Note_off_c, 3, 53, 64
5, 618960, Note_on_c, 3, 57, 92
5, 618960, Note_on_c, 3, 60, 92
5, 619360, Note_off_c, 3, 60, 64
5, 619360, Note_off_c, 3, 57, 64
5, 619440, Note_on_c, 3, 53, 92
5, 619440, Note_on_c, 3, 57, 92
5, 619840, Note_off_c, 3, 57, 64
5, 619840, Note_off_c, 3, 53, 64
5, 619920, Note_on_c, 3, 53, 92
5, 619920, Note_on_c, 3, 57, 92
5, 620320, Note_off_c, 3, 57, 64
5, 620320, Note_off_c, 3, 53, 64
5, 631920, Note_on_c, 3, 53, 45
5, 633240, Note_off_c, 3, 53, 64
5, 633360, Note_on_c, 3, 48, 45
5, 634680, Note_off_c, 3, 48, 64
5, 634800, Note_on_c, 3, 41, 45
5, 636120, Note_off_c, 3, 41, 64
5, 643440, Note_on_c, 3, 53, 45
5, 644760, Note_off_c, 3, 53, 64
5, 644880, Note_on_c, 3, 48, 45
5, 646200, Note_off_c, 3, 48, 64
5, 646320, Note_on_c, 3, 48, 45
5, 647640, Note_off_c, 3, 48, 64
5, 647760, Note_on_c, 3, 41, 45
5, 649080, Note_off_c, 3, 41, 64
5, 654960, Note_on_c, 3, 53, 45
5, 656280, Note_off_c, 3, 53, 64
5, 656400, Note_on_c, 3, 48, 45
5, 657720, Note_off_c, 3, 48, 64
5, 657840, Note_on_c, 3, 41, 45
5, 659160, Note_off_c, 3, 41, 64
5, 666480, Note_on_c, 3, 53, 45
5, 667800, Note_off_c, 3, 53, 64
5, 667920, Note_on_c, 3, 48, 45
5, 669240, Note_off_c, 3, 48, 64
5, 669360, Note_on_c, 3, 48, 45
5, 670680, Note_off_c, 3, 48, 64
5, 670800, Note_on_c, 3, 41, 45
5, 672120, Note_off_c, 3, 41, 64
5, 672240, Note_on_c, 3, 64, 45
5, 672240, Note_on_c, 3, 67, 45
5, 672360, Note_off_c, 3, 67, 64
5, 672360, Note_off_c, 3, 64, 64
5, 672720, Note_on_c, 3, 60, 45
5, 672720, Note_on_c, 3, 64, 45
5, 672840, Note_off_c, 3, 64, 64
5, 672840, Note_off_c, 3, 60, 64
5, 673200, Note_on_c, 3, 60, 45
5, 673200, Note_on_c, 3, 64, 45
5, 673320, Note_off_c, 3, 64, 64
5, 673320, Note_off_c, 3, 60, 64
5, 673680, Note_on_c, 3, 64, 45
5, 673680, Note_on_c, 3, 67, 45
5, 673800, Note_off_c, 3, 67, 64
5, 673800, Note_off_c, 3, 64, 64
5, 674160, Note_on_c, 3, 60, 45
5, 674160, Note_on_c, 3, 64, 45
5, 674280, Note_off_c, 3, 64, 64
5, 674280, Note_off_c, 3, 60, 64
5, 674640, Note_on_c, 3, 60, 45
5, 674640, Note_on_c, 3, 64, 45
5, 674760, Note_off_c, 3, 64, 64
5, 674760, Note_off_c, 3, 60, 64
5, 675120, Note_on_c, 3, 65, 45
5, 675120, Note_on_c, 3, 67, 45
5, 675240, Note_off_c, 3, 67, 64
5, 675240, Note_off_c, 3, 65, 64
5, 675600, Note_on_c, 3, 60, 45
5, 675600, Note_on_c, 3, 65, 45
5, 675720, Note_off_c, 3, 65, 64
5, 675720, Note_off_c, 3, 60, 64
5, 676080, Note_on_c, 3, 60, 45
5, 676080, Note_on_c, 3, 65, 45
5, 676200, Note_off_c, 3, 65, 64
5, 676200, Note_off_c, 3, 60, 64
5, 676560, Note_on_c, 3, 65, 45
5, 676560, Note_on_c, 3, 67, 45
5, 676680, Note_off_c, 3, 67, 64
5, 676680, Note_off_c, 3, 65, 64
5, 677040, Note_on_c, 3, 60, 45
5, 677040, Note_on_c, 3, 65, 45
5, 677160, Note_off_c, 3, 65, 64
5, 677160, Note_off_c, 3, 60, 64
5, 677520, Note_on_c, 3, 60, 45
5, 677520, Note_on_c, 3, 65, 45
5, 677640, Note_off_c, 3, 65, 64
5, 677640, Note_off_c, 3, 60, 64
5, 678000, Note_on_c, 3, 64, 45
5, 678000, Note_on_c, 3, 67, 45
5, 678120, Note_off_c, 3, 67, 64
5, 678120, Note_off_c, 3, 64, 64
5, 678480, Note_on_c, 3, 60, 45
5, 678480, Note_on_c, 3, 64, 45
5, 678600, Note_off_c, 3, 64, 64
5, 678600, Note_off_c, 3, 60, 64
5, 678960, Note_on_c, 3, 60, 45
5, 678960, Note_on_c, 3, 64, 45
5, 679080, Note_off_c, 3, 64, 64
5, 679080, Note_off_c, 3, 60, 64
5, 679440, Note_on_c, 3, 65, 45
5, 679440, Note_on_c, 3, 67, 45
5, 679560, Note_off_c, 3, 67, 64
5, 679560, Note_off_c, 3, 65, 64
5, 679920, Note_on_c, 3, 59, 48
5, 679920, Note_on_c, 3, 62, 48
5, 680040, Note_off_c, 3, 62, 64
5, 680040, Note_off_c, 3, 59, 64
5, 680400, Note_on_c, 3, 59, 51
5, 680400, Note_on_c, 3, 62, 51
5, 680520, Note_off_c, 3, 62, 64
5, 680520, Note_off_c, 3, 59, 64
5, 680880, Note_on_c, 3, 64, 54
5, 680880, Note_on_c, 3, 67, 54
5, 681000, Note_off_c, 3, 67, 64
5, 681000, Note_off_c, 3, 64, 64
5, 681360, Note_on_c, 3, 60, 57
5, 681360, Note_on_c, 3, 64, 57
5, 681480, Note_off_c, 3, 64, 64
5, 681480, Note_off_c, 3, 60, 64
5, 681840, Note_on_c, 3, 60, 60
5, 681840, Note_on_c, 3, 64, 60
5, 681960, Note_off_c, 3, 64, 64
5, 681960, Note_off_c, 3, 60, 64
5, 682320, Note_on_c, 3, 64, 63
5, 682320, Note_on_c, 3, 67, 63
5, 682440, Note_off_c, 3, 67, 64
5, 682440, Note_off_c, 3, 64, 64
5, 682800, Note_on_c, 3, 60, 67
5, 682800, Note_on_c, 3, 64, 67
5, 682920, Note_off_c, 3, 64, 64
5, 682920, Note_off_c, 3, 60, 64
5, 683280, Note_on_c, 3, 60, 71
5, 683280, Note_on_c, 3, 64, 71
5, 683400, Note_off_c, 3, 64, 64
5, 683400, Note_off_c, 3, 60, 64
5, 683760, Note_on_c, 3, 64, 75
5, 683760, Note_on_c, 3, 67, 75
5, 683880, Note_off_c, 3, 67, 64
5, 683880, Note_off_c, 3, 64, 64
5, 684240, Note_on_c, 3, 60, 75
5, 684240, Note_on_c, 3, 64, 75
5, 684360, Note_off_c, 3, 64, 64
5, 684360, Note_off_c, 3, 60, 64
5, 684720, Note_on_c, 3, 60, 75
5, 684720, Note_on_c, 3, 64, 75
5, 684840, Note_off_c, 3, 64, 64
5, 684840, Note_off_c, 3, 60, 64
5, 685200, Note_on_c, 3, 64, 75
5, 685200, Note_on_c, 3, 67, 75
5, 685320, Note_off_c, 3, 67, 64
5, 685320, Note_off_c, 3, 64, 64
5, 685680, Note_on_c, 3, 48, 75
5, 685680, Note_on_c, 3, 55, 75
5, 685800, Note_off_c, 3, 55, 64
5, 685800, Note_off_c, 3, 48, 64
5, 686160, Note_on_c, 3, 48, 75
5, 686160, Note_on_c, 3, 55, 75
5, 686280, Note_off_c, 3, 55, 64
5, 686280, Note_off_c, 3, 48, 64
5, 686640, Note_on_c, 3, 53, 75
5, 686640, Note_on_c, 3, 57, 75
5, 686760, Note_off_c, 3, 57, 64
5, 686760, Note_off_c, 3, 53, 64
5, 692400, Note_on_c, 3, 53, 60
5, 693720, Note_off_c, 3, 53, 64
5, 693840, Note_on_c, 3, 48, 60
5, 695160, Note_off_c, 3, 48, 64
5, 695280, Note_on_c, 3, 41, 60
5, 696600, Note_off_c, 3, 41, 64
5, 696720, Note_on_c, 3, 48, 60
5, 698040, Note_off_c, 3, 48, 64
5, 698160, Note_on_c, 3, 53, 60
5, 699480, Note_off_c, 3, 53, 64
5, 699600, Note_on_c, 3, 53, 60
5, 700920, Note_off_c, 3, 53, 64
5, 701040, Note_on_c, 3, 48, 60
5, 702360, Note_off_c, 3, 48, 64
5, 702480, Note_on_c, 3, 48, 60
5, 703800, Note_off_c, 3, 48, 64
5, 703920, Note_on_c, 3, 41, 60
5, 716760, Note_off_c, 3, 41, 64
5, 716880, Note_on_c, 3, 41, 60
5, 716880, Note_on_c, 3, 60, 60
5, 722160, Note_off_c, 3, 41, 64
5, 722160, Note_on_c, 3, 46, 65
5, 722640, Note_off_c, 3, 46, 64
5, 722640, Note_on_c, 3, 48, 67
5, 723120, Note_off_c, 3, 48, 64
5, 723120, Note_on_c, 3, 45, 69
5, 723600, Note_off_c, 3, 45, 64
5, 723600, Note_on_c, 3, 46, 71
5, 724000, Note_off_c, 3, 46, 64
5, 724080, Note_on_c, 3, 43, 74
5, 725040, Note_off_c, 3, 43, 64
5, 725040, Note_on_c, 3, 45, 80
5, 725520, Note_off_c, 3, 45, 64
5, 725520, Note_on_c, 3, 46, 83
5, 726000, Note_off_c, 3, 46, 64
5, 726000, Note_on_c, 3, 43, 86
5, 726480, Note_off_c, 3, 43, 64
5, 726480, Note_on_c, 3, 45, 89
5, 726840, Note_off_c, 3, 60, 64
5, 726880, Note_off_c, 3, 45, 64
5, 726960, Note_on_c, 3, 53, 92
5, 727360, Note_off_c, 3, 53, 64
5, 727920, Note_on_c, 3, 46, 92
5, 728040, Note_off_c, 3, 46, 64
5, 728400, Note_on_c, 3, 48, 92
5, 728520, Note_off_c, 3, 48, 64
5, 728880, Note_on_c, 3, 45, 92
5, 729000, Note_off_c, 3, 45, 64
5, 729360, Note_on_c, 3, 46, 92
5, 729480, Note_off_c, 3, 46, 64
5, 729840, Note_on_c, 3, 46, 92
5, 729960, Note_off_c, 3, 46, 64
5, 730320, Note_on_c, 3, 43, 92
5, 730440, Note_off_c, 3, 43, 64
5, 730800, Note_on_c, 3, 45, 92
5, 730920, Note_off_c, 3, 45, 64
5, 731280, Note_on_c, 3, 45, 92
5, 731400, Note_off_c, 3, 45, 64
5, 731760, Note_on_c, 3, 41, 92
5, 731880, Note_off_c, 3, 41, 64
5, 732240, Note_on_c, 3, 43, 92
5, 732360, Note_off_c, 3, 43, 64
5, 732720, Note_on_c, 3, 57, 60
5, 732720, Note_on_c, 3, 60, 60
5, 733560, Note_off_c, 3, 60, 64
5, 733560, Note_off_c, 3, 57, 64
5, 733680, Note_on_c, 3, 57, 60
5, 733680, Note_on_c, 3, 60, 60
5, 734520, Note_off_c, 3, 60, 64
5, 734520, Note_off_c, 3, 57, 64
5, 734640, Note_on_c, 3, 58, 60
5, 734640, Note_on_c, 3, 62, 60
5, 735480, Note_off_c, 3, 62, 64
5, 735480, Note_off_c, 3, 58, 64
5, 735600, Note_on_c, 3, 57, 60
5, 735600, Note_on_c, 3, 60, 60
5, 736080, Note_off_c, 3, 60, 64
5, 736080, Note_off_c, 3, 57, 64
5, 736080, Note_on_c, 3, 58, 60
5, 736080, Note_on_c, 3, 62, 60
5, 736480, Note_off_c, 3, 62, 64
5, 736480, Note_off_c, 3, 58, 64
5, 736560, Note_on_c, 3, 57, 60
5, 736560, Note_on_c, 3, 60, 60
5, 737400, Note_off_c, 3, 60, 64
5, 737400, Note_off_c, 3, 57, 64
5, 737520, Note_on_c, 3, 57, 60
5, 737520, Note_on_c, 3, 60, 60
5, 738360, Note_off_c, 3, 60, 64
5, 738360, Note_off_c, 3, 57, 64
5, 738480, Note_on_c, 3, 58, 60
5, 738480, Note_on_c, 3, 62, 60
5, 739320, Note_off_c, 3, 62, 64
5, 739320, Note_off_c, 3, 58, 64
5, 739440, Note_on_c, 3, 57, 60
5, 739440, Note_on_c, 3, 60, 60
5, 739920, Note_off_c, 3, 60, 64
5, 739920, Note_off_c, 3, 57, 64
5, 739920, Note_on_c, 3, 58, 60
5, 739920, Note_on_c, 3, 62, 60
5, 740320, Note_off_c, 3, 62, 64
5, 740320, Note_off_c, 3, 58, 64
5, 740400, Note_on_c, 3, 57, 60
5, 740400, Note_on_c, 3, 60, 60
5, 741240, Note_off_c, 3, 60, 64
5, 741240, Note_off_c, 3, 57, 64
5, 741360, Note_on_c, 3, 57, 60
5, 741360, Note_on_c, 3, 60, 60
5, 742200, Note_off_c, 3, 60, 64
5, 742200, Note_off_c, 3, 57, 64
5, 742320, Note_on_c, 3, 58, 60
5, 742320, Note_on_c, 3, 62, 60
5, 743160, Note_off_c, 3, 62, 64
5, 743160, Note_off_c, 3, 58, 64
5, 743280, Note_on_c, 3, 57, 60
5, 743280, Note_on_c, 3, 60, 60
5, 743760, Note_off_c, 3, 60, 64
5, 743760, Note_off_c, 3, 57, 64
5, 743760, Note_on_c, 3, 58, 60
5, 743760, Note_on_c, 3, 62, 60
5, 744160, Note_off_c, 3, 62, 64
5, 744160, Note_off_c, 3, 58, 64
5, 744240, Note_on_c, 3, 57, 60
5, 744240, Note_on_c, 3, 60, 60
5, 745080, Note_off_c, 3, 60, 64
5, 745080, Note_off_c, 3, 57, 64
5, 745200, Note_on_c, 3, 57, 60
5, 745200, Note_on_c, 3, 60, 60
5, 746040, Note_off_c, 3, 60, 64
5, 746040, Note_off_c, 3, 57, 64
5, 746160, Note_on_c, 3, 58, 60
5, 746160, Note_on_c, 3, 62, 60
5, 747000, Note_off_c, 3, 62, 64
5, 747000, Note_off_c, 3, 58, 64
5, 747120, Note_on_c, 3, 57, 60
5, 747120, Note_on_c, 3, 60, 60
5, 747600, Note_off_c, 3, 60, 64
5, 747600, Note_off_c, 3, 57, 64
5, 747600, Note_on_c, 3, 58, 60
5, 747600, Note_on_c, 3, 62, 60
5, 748000, Note_off_c, 3, 62, 64
5, 748000, Note_off_c, 3, 58, 64
5, 748080, Note_on_c, 3, 60, 75
5, 748320, Note_off_c, 3, 60, 64
5, 748320, Note_on_c, 3, 62, 75
5, 748440, Note_off_c, 3, 62, 64
5, 748440, Note_on_c, 3, 60, 75
5, 748560, Note_off_c, 3, 60, 64
5, 748560, Note_on_c, 3, 55, 75
5, 748800, Note_off_c, 3, 55, 64
5, 748800, Note_on_c, 3, 57, 75
5, 748920, Note_off_c, 3, 57, 64
5, 748920, Note_on_c, 3, 59, 75
5, 749035, Note_off_c, 3, 59, 64
5, 749040, Note_on_c, 3, 60, 75
5, 749280, Note_off_c, 3, 60, 64
5, 749280, Note_on_c, 3, 62, 75
5, 749400, Note_off_c, 3, 62, 64
5, 749400, Note_on_c, 3, 60, 75
5, 749515, Note_off_c, 3, 60, 64
5, 749520, Note_on_c, 3, 55, 75
5, 749920, Note_off_c, 3, 55, 64
5, 750000, Note_on_c, 3, 53, 75
5, 750120, Note_off_c, 3, 53, 64
5, 750120, Note_on_c, 3, 55, 75
5, 750240, Note_off_c, 3, 55, 64
5, 750240, Note_on_c, 3, 57, 75
5, 750360, Note_off_c, 3, 57, 64
5, 750360, Note_on_c, 3, 58, 75
5, 750475, Note_off_c, 3, 58, 64
5, 750480, Note_on_c, 3, 60, 75
5, 750560, Note_off_c, 3, 60, 64
5, 750720, Note_on_c, 3, 60, 75
5, 750780, Note_off_c, 3, 60, 64
5, 750780, Note_on_c, 3, 62, 75
5, 750955, Note_off_c, 3, 62, 64
5, 750960, Note_on_c, 3, 55, 75
5, 751040, Note_off_c, 3, 55, 64
5, 751200, Note_on_c, 3, 55, 75
5, 751260, Note_off_c, 3, 55, 64
5, 751260, Note_on_c, 3, 60, 75
5, 751435, Note_off_c, 3, 60, 64
5, 751440, Note_on_c, 3, 53, 75
5, 751840, Note_off_c, 3, 53, 64
5, 751920, Note_on_c, 3, 60, 75
5, 752160, Note_off_c, 3, 60, 64
5, 752160, Note_on_c, 3, 62, 75
5, 752280, Note_off_c, 3, 62, 64
5, 752280, Note_on_c, 3, 60, 75
5, 752400, Note_off_c, 3, 60, 64
5, 752400, Note_on_c, 3, 55, 75
5, 752640, Note_off_c, 3, 55, 64
5, 752640, Note_on_c, 3, 57, 75
5, 752760, Note_off_c, 3, 57, 64
5, 752760, Note_on_c, 3, 59, 75
5, 752875, Note_off_c, 3, 59, 64
5, 752880, Note_on_c, 3, 60, 75
5, 753120, Note_off_c, 3, 60, 64
5, 753120, Note_on_c, 3, 62, 75
5, 753240, Note_off_c, 3, 62, 64
5, 753240, Note_on_c, 3, 60, 75
5, 753355, Note_off_c, 3, 60, 64
5, 753360, Note_on_c, 3, 55, 75
5, 753760, Note_off_c, 3, 55, 64
5, 753840, Note_on_c, 3, 53, 75
5, 753960, Note_off_c, 3, 53, 64
5, 753960, Note_on_c, 3, 55, 75
5, 754080, Note_off_c, 3, 55, 64
5, 754080, Note_on_c, 3, 57, 75
5, 754200, Note_off_c, 3, 57, 64
5, 754200, Note_on_c, 3, 58, 75
5, 754315, Note_off_c, 3, 58, 64
5, 754320, Note_on_c, 3, 60, 75
5, 754400, Note_off_c, 3, 60, 64
5, 754560, Note_on_c, 3, 60, 75
5, 754620, Note_off_c, 3, 60, 64
5, 754620, Note_on_c, 3, 62, 75
5, 754795, Note_off_c, 3, 62, 64
5, 754800, Note_on_c, 3, 55, 75
5, 754880, Note_off_c, 3, 55, 64
5, 755040, Note_on_c, 3, 55, 75
5, 755100, Note_off_c, 3, 55, 64
5, 755100, Note_on_c, 3, 60, 75
5, 755275, Note_off_c, 3, 60, 64
5, 755280, Note_on_c, 3, 53, 75
5, 755680, Note_off_c, 3, 53, 64
5, 755760, Note_on_c, 3, 52, 75
5, 755760, Note_on_c, 3, 60, 75
5, 756240, Note_off_c, 3, 60, 64
5, 756240, Note_off_c, 3, 52, 64
5, 756240, Note_on_c, 3, 62, 75
5, 756240, Note_on_c, 3, 65, 75
5, 756720, Note_off_c, 3, 65, 64
5, 756720, Note_off_c, 3, 62, 64
5, 756720, Note_on_c, 3, 60, 75
5, 756720, Note_on_c, 3, 64, 75
5, 757360, Note_off_c, 3, 64, 64
5, 757360, Note_off_c, 3, 60, 64
5, 757440, Note_on_c, 3, 53, 75
5, 757440, Note_on_c, 3, 57, 75
5, 757675, Note_off_c, 3, 57, 64
5, 757675, Note_off_c, 3, 53, 64
5, 757680, Note_on_c, 3, 52, 75
5, 757680, Note_on_c, 3, 55, 75
5, 757915, Note_off_c, 3, 55, 64
5, 757915, Note_off_c, 3, 52, 64
5, 758160, Note_on_c, 3, 53, 75
5, 758160, Note_on_c, 3, 57, 75
5, 758395, Note_off_c, 3, 57, 64
5, 758395, Note_off_c, 3, 53, 64
5, 758640, Note_on_c, 3, 55, 75
5, 758640, Note_on_c, 3, 60, 75
5, 758875, Note_off_c, 3, 60, 64
5, 758875, Note_off_c, 3, 55, 64
5, 759120, Note_on_c, 3, 55, 75
5, 759120, Note_on_c, 3, 59, 75
5, 759355, Note_off_c, 3, 59, 64
5, 759355, Note_off_c, 3, 55, 64
5, 759600, Note_on_c, 3, 52, 75
5, 759600, Note_on_c, 3, 60, 75
5, 759680, Note_off_c, 3, 60, 64
5, 759680, Note_off_c, 3, 52, 64
5, 759840, Note_on_c, 3, 52, 75
5, 759840, Note_on_c, 3, 60, 75
5, 759920, Note_off_c, 3, 60, 64
5, 759920, Note_off_c, 3, 52, 64
5, 760080, Note_on_c, 3, 62, 75
5, 760080, Note_on_c, 3, 65, 75
5, 760160, Note_off_c, 3, 65, 64
5, 760160, Note_off_c, 3, 62, 64
5, 760320, Note_on_c, 3, 62, 75
5, 760320, Note_on_c, 3, 65, 75
5, 760400, Note_off_c, 3, 65, 64
5, 760400, Note_off_c, 3, 62, 64
5, 760560, Note_on_c, 3, 60, 75
5, 760560, Note_on_c, 3, 64, 75
5, 760640, Note_off_c, 3, 64, 64
5, 760640, Note_off_c, 3, 60, 64
5, 760800, Note_on_c, 3, 60, 75
5, 760800, Note_on_c, 3, 64, 75
5, 760880, Note_off_c, 3, 64, 64
5, 760880, Note_off_c, 3, 60, 64
5, 761280, Note_on_c, 3, 53, 75
5, 761280, Note_on_c, 3, 57, 75
5, 761515, Note_off_c, 3, 57, 64
5, 761515, Note_off_c, 3, 53, 64
5, 761760, Note_on_c, 3, 52, 75
5, 761760, Note_on_c, 3, 55, 75
5, 761995, Note_off_c, 3, 55, 64
5, 761995, Note_off_c, 3, 52, 64
5, 762240, Note_on_c, 3, 53, 75
5, 762240, Note_on_c, 3, 57, 75
5, 762475, Note_off_c, 3, 57, 64
5, 762475, Note_off_c, 3, 53, 64
5, 762720, Note_on_c, 3, 55, 75
5, 762720, Note_on_c, 3, 60, 75
5, 762955, Note_off_c, 3, 60, 64
5, 762955, Note_off_c, 3, 55, 64
5, 763200, Note_on_c, 3, 55, 75
5, 763200, Note_on_c, 3, 59, 75
5, 763435, Note_off_c, 3, 59, 64
5, 763435, Note_off_c, 3, 55, 64
5, 763440, Note_on_c, 3, 48, 75
5, 763440, Note_on_c, 3, 55, 75
5, 764080, Note_off_c, 3, 55, 64
5, 764080, Note_off_c, 3, 48, 64
5, 764160, Note_on_c, 3, 48, 75
5, 764160, Note_on_c, 3, 55, 75
5, 764395, Note_off_c, 3, 55, 64
5, 764395, Note_off_c, 3, 48, 64
5, 764400, Note_on_c, 3, 48, 75
5, 764400, Note_on_c, 3, 55, 75
5, 765040, Note_off_c, 3, 55, 64
5, 765040, Note_off_c, 3, 48, 64
5, 765120, Note_on_c, 3, 48, 75
5, 765120, Note_on_c, 3, 55, 75
5, 765355, Note_off_c, 3, 55, 64
5, 765355, Note_off_c, 3, 48, 64
5, 765360, Note_on_c, 3, 48, 75
5, 765360, Note_on_c, 3, 55, 75
5, 766000, Note_off_c, 3, 55, 64
5, 766000, Note_off_c, 3, 48, 64
5, 766080, Note_on_c, 3, 48, 75
5, 766080, Note_on_c, 3, 55, 75
5, 766315, Note_off_c, 3, 55, 64
5, 766315, Note_off_c, 3, 48, 64
5, 766320, Note_on_c, 3, 48, 75
5, 766320, Note_on_c, 3, 55, 75
5, 766960, Note_off_c, 3, 55, 64
5, 766960, Note_off_c, 3, 48, 64
5, 767040, Note_on_c, 3, 48, 75
5, 767040, Note_on_c, 3, 55, 75
5, 767275, Note_off_c, 3, 55, 64
5, 767275, Note_off_c, 3, 48, 64
5, 767280, Note_on_c, 3, 48, 75
5, 767280, Note_on_c, 3, 60, 75
5, 767360, Note_off_c, 3, 60, 64
5, 767360, Note_off_c, 3, 48, 64
5, 767520, Note_on_c, 3, 52, 75
5, 767520, Note_on_c, 3, 60, 75
5, 767600, Note_off_c, 3, 60, 64
5, 767600, Note_off_c, 3, 52, 64
5, 767760, Note_on_c, 3, 52, 75
5, 767760, Note_on_c, 3, 60, 75
5, 767840, Note_off_c, 3, 60, 64
5, 767840, Note_off_c, 3, 52, 64
5, 768000, Note_on_c, 3, 52, 75
5, 768000, Note_on_c, 3, 60, 75
5, 768080, Note_off_c, 3, 60, 64
5, 768080, Note_off_c, 3, 52, 64
5, 768240, Note_on_c, 3, 52, 75
5, 768240, Note_on_c, 3, 60, 75
5, 768320, Note_off_c, 3, 60, 64
5, 768320, Note_off_c, 3, 52, 64
5, 768480, Note_on_c, 3, 60, 75
5, 768480, Note_on_c, 3, 64, 75
5, 768560, Note_off_c, 3, 64, 64
5, 768560, Note_off_c, 3, 60, 64
5, 768720, Note_on_c, 3, 60, 75
5, 768720, Note_on_c, 3, 64, 75
5, 768800, Note_off_c, 3, 64, 64
5, 768800, Note_off_c, 3, 60, 64
5, 768960, Note_on_c, 3, 60, 75
5, 768960, Note_on_c, 3, 64, 75
5, 769040, Note_off_c, 3, 64, 64
5, 769040, Note_off_c, 3, 60, 64
5, 769200, Note_on_c, 3, 60, 75
5, 769200, Note_on_c, 3, 64, 75
5, 769435, Note_off_c, 3, 64, 64
5, 769435, Note_off_c, 3, 60, 64
5, 770160, Note_on_c, 3, 48, 45
5, 770395, Note_off_c, 3, 48, 64
5, 784080, Note_on_c, 3, 45, 45
5, 784080, Note_on_c, 3, 57, 45
5, 784560, Note_off_c, 3, 57, 64
5, 784560, Note_off_c, 3, 45, 64
5, 784560, Note_on_c, 3, 50, 45
5, 784560, Note_on_c, 3, 62, 45
5, 785400, Note_off_c, 3, 62, 64
5, 785400, Note_off_c, 3, 50, 64
5, 785520, Note_on_c, 3, 50, 45
5, 785520, Note_on_c, 3, 62, 45
5, 786840, Note_off_c, 3, 62, 64
5, 786840, Note_off_c, 3, 50, 64
5, 786960, Note_on_c, 3, 50, 45
5, 786960, Note_on_c, 3, 62, 45
5, 788280, Note_off_c, 3, 62, 64
5, 788280, Note_off_c, 3, 50, 64
5, 788400, Note_on_c, 3, 50, 45
5, 788400, Note_on_c, 3, 62, 45
5, 789720, Note_off_c, 3, 62, 64
5, 789720, Note_off_c, 3, 50, 64
5, 789840, Note_on_c, 3, 50, 45
5, 789840, Note_on_c, 3, 62, 45
5, 791160, Note_off_c, 3, 62, 64
5, 791160, Note_off_c, 3, 50, 64
5, 791280, Note_on_c, 3, 50, 45
5, 791280, Note_on_c, 3, 62, 45
5, 792600, Note_off_c, 3, 62, 64
5, 792600, Note_off_c, 3, 50, 64
5, 792720, Note_on_c, 3, 50, 45
5, 792720, Note_on_c, 3, 62, 45
5, 794040, Note_off_c, 3, 62, 64
5, 794040, Note_off_c, 3, 50, 64
5, 794160, Note_on_c, 3, 45, 45
5, 794160, Note_on_c, 3, 61, 45
5, 794640, Note_off_c, 3, 61, 64
5, 794640, Note_off_c, 3, 45, 64
5, 794640, Note_on_c, 3, 50, 45
5, 794640, Note_on_c, 3, 62, 45
5, 795280, Note_off_c, 3, 62, 64
5, 795280, Note_off_c, 3, 50, 64
5, 807120, Note_on_c, 3, 45, 45
5, 807120, Note_on_c, 3, 57, 45
5, 807600, Note_off_c, 3, 57, 64
5, 807600, Note_off_c, 3, 45, 64
5, 807600, Note_on_c, 3, 50, 45
5, 807600, Note_on_c, 3, 62, 45
5, 808440, Note_off_c, 3, 62, 64
5, 808440, Note_off_c, 3, 50, 64
5, 808560, Note_on_c, 3, 50, 45
5, 808560, Note_on_c, 3, 62, 45
5, 809880, Note_off_c, 3, 62, 64
5, 809880, Note_off_c, 3, 50, 64
5, 810000, Note_on_c, 3, 50, 45
5, 810000, Note_on_c, 3, 62, 45
5, 811320, Note_off_c, 3, 62, 64
5, 811320, Note_off_c, 3, 50, 64
5, 811440, Note_on_c, 3, 50, 45
5, 811440, Note_on_c, 3, 62, 45
5, 812760, Note_off_c, 3, 62, 64
5, 812760, Note_off_c, 3, 50, 64
5, 812880, Note_on_c, 3, 50, 45
5, 812880, Note_on_c, 3, 62, 45
5, 814200, Note_off_c, 3, 62, 64
5, 814200, Note_off_c, 3, 50, 64
5, 814320, Note_on_c, 3, 50, 45
5, 814320, Note_on_c, 3, 62, 45
5, 815640, Note_off_c, 3, 62, 64
5, 815640, Note_off_c, 3, 50, 64
5, 815760, Note_on_c, 3, 50, 45
5, 815760, Note_on_c, 3, 62, 45
5, 817080, Note_off_c, 3, 62, 64
5, 817080, Note_off_c, 3, 50, 64
5, 817200, Note_on_c, 3, 45, 45
5, 817200, Note_on_c, 3, 61, 45
5, 817680, Note_off_c, 3, 61, 64
5, 817680, Note_off_c, 3, 45, 64
5, 817680, Note_on_c, 3, 50, 45
5, 817680, Note_on_c, 3, 62, 45
5, 818320, Note_off_c, 3, 62, 64
5, 818320, Note_off_c, 3, 50, 64
5, 821520, Note_on_c, 3, 67, 45
5, 821640, Note_off_c, 3, 67, 64
5, 822000, Note_on_c, 3, 66, 45
5, 822120, Note_off_c, 3, 66, 64
5, 822480, Note_on_c, 3, 62, 45
5, 822600, Note_off_c, 3, 62, 64
5, 822960, Note_on_c, 3, 64, 45
5, 823080, Note_off_c, 3, 64, 64
5, 823440, Note_on_c, 3, 66, 45
5, 823560, Note_off_c, 3, 66, 64
5, 823920, Note_on_c, 3, 62, 45
5, 824040, Note_off_c, 3, 62, 64
5, 827280, Note_on_c, 3, 60, 45
5, 827400, Note_off_c, 3, 60, 64
5, 827760, Note_on_c, 3, 59, 45
5, 827880, Note_off_c, 3, 59, 64
5, 828240, Note_on_c, 3, 55, 45
5, 828360, Note_off_c, 3, 55, 64
5, 828720, Note_on_c, 3, 57, 45
5, 828840, Note_off_c, 3, 57, 64
5, 829200, Note_on_c, 3, 59, 45
5, 829320, Note_off_c, 3, 59, 64
5, 829680, Note_on_c, 3, 55, 45
5, 829800, Note_off_c, 3, 55, 64
5, 835920, Note_on_c, 3, 50, 45
5, 835920, Note_on_c, 3, 59, 45
5, 836400, Note_off_c, 3, 59, 64
5, 836400, Note_off_c, 3, 50, 64
5, 836400, Note_on_c, 3, 52, 45
5, 836400, Note_on_c, 3, 60, 45
5, 836880, Note_off_c, 3, 60, 64
5, 836880, Note_on_c, 3, 55, 45
5, 837240, Note_off_c, 3, 52, 64
5, 837360, Note_off_c, 3, 55, 64
5, 837360, Note_on_c, 3, 53, 45
5, 837360, Note_on_c, 3, 57, 45
5, 837840, Note_off_c, 3, 57, 64
5, 837840, Note_off_c, 3, 53, 64
5, 837840, Note_on_c, 3, 52, 45
5, 837840, Note_on_c, 3, 55, 45
5, 838320, Note_off_c, 3, 55, 64
5, 838320, Note_off_c, 3, 52, 64
5, 838320, Note_on_c, 3, 55, 45
5, 838320, Note_on_c, 3, 64, 45
5, 838800, Note_off_c, 3, 64, 64
5, 838800, Note_off_c, 3, 55, 64
5, 838800, Note_on_c, 3, 57, 45
5, 838800, Note_on_c, 3, 65, 45
5, 839280, Note_off_c, 3, 65, 64
5, 839280, Note_off_c, 3, 57, 64
5, 839280, Note_on_c, 3, 55, 45
5, 839280, Note_on_c, 3, 64, 45
5, 839760, Note_off_c, 3, 64, 64
5, 839760, Note_off_c, 3, 55, 64
5, 839760, Note_on_c, 3, 55, 45
5, 839760, Note_on_c, 3, 60, 45
5, 840240, Note_off_c, 3, 60, 64
5, 840240, Note_off_c, 3, 55, 64
5, 840240, Note_on_c, 3, 59, 45
5, 840240, Note_on_c, 3, 62, 45
5, 840720, Note_off_c, 3, 62, 64
5, 840720, Note_off_c, 3, 59, 64
5, 840720, Note_on_c, 3, 60, 45
5, 840720, Note_on_c, 3, 64, 45
5, 841200, Note_off_c, 3, 64, 64
5, 841200, Note_off_c, 3, 60, 64
5, 841200, Note_on_c, 3, 52, 48
5, 841200, Note_on_c, 3, 60, 48
5, 841600, Note_off_c, 3, 60, 64
5, 841600, Note_off_c, 3, 52, 64
5, 847440, Note_on_c, 3, 36, 127
5, 847440, Note_on_c, 3, 48, 127
5, 847840, Note_off_c, 3, 48, 64
5, 847840, Note_off_c, 3, 36, 64
5, 847920, Note_on_c, 3, 41, 127
5, 847920, Note_on_c, 3, 53, 127
5, 848320, Note_off_c, 3, 53, 64
5, 848320, Note_off_c, 3, 41, 64
5, 848400, Note_on_c, 3, 36, 92
5, 848400, Note_on_c, 3, 48, 92
5, 848800, Note_off_c, 3, 48, 64
5, 848800, Note_off_c, 3, 36, 64
5, 848880, Note_on_c, 3, 38, 92
5, 848880, Note_on_c, 3, 50, 92
5, 849280, Note_off_c, 3, 50, 64
5, 849280, Note_off_c, 3, 38, 64
5, 849360, Note_on_c, 3, 36, 92
5, 849360, Note_on_c, 3, 48, 92
5, 849760, Note_off_c, 3, 48, 64
5, 849760, Note_off_c, 3, 36, 64
5, 849840, Note_on_c, 3, 45, 92
5, 850240, Note_off_c, 3, 45, 64
5, 850320, Note_on_c, 3, 46, 92
5, 850720, Note_off_c, 3, 46, 64
5, 850800, Note_on_c, 3, 45, 92
5, 851200, Note_off_c, 3, 45, 64
5, 851280, Note_on_c, 3, 41, 92
5, 851280, Note_on_c, 3, 53, 92
5, 851680, Note_off_c, 3, 53, 64
5, 851680, Note_off_c, 3, 41, 64
5, 851760, Note_on_c, 3, 43, 92
5, 851760, Note_on_c, 3, 55, 92
5, 852160, Note_off_c, 3, 55, 64
5, 852160, Note_off_c, 3, 43, 64
5, 852240, Note_on_c, 3, 45, 92
5, 852240, Note_on_c, 3, 57, 92
5, 852640, Note_off_c, 3, 57, 64
5, 852640, Note_off_c, 3, 45, 64
5, 852720, Note_on_c, 3, 41, 92
5, 852720, Note_on_c, 3, 53, 92
5, 853120, Note_off_c, 3, 53, 64
5, 853120, Note_off_c, 3, 41, 64
5, 853200, Note_on_c, 3, 43, 92
5, 853200, Note_on_c, 3, 55, 92
5, 853600, Note_off_c, 3, 55, 64
5, 853600, Note_off_c, 3, 43, 64
5, 853680, Note_on_c, 3, 45, 92
5, 853680, Note_on_c, 3, 57, 92
5, 854080, Note_off_c, 3, 57, 64
5, 854080, Note_off_c, 3, 45, 64
5, 854160, Note_on_c, 3, 41, 92
5, 854160, Note_on_c, 3, 53, 92
5, 854560, Note_off_c, 3, 53, 64
5, 854560, Note_off_c, 3, 41, 64
5, 854640, Note_on_c, 3, 43, 92
5, 854640, Note_on_c, 3, 55, 92
5, 855040, Note_off_c, 3, 55, 64
5, 855040, Note_off_c, 3, 43, 64
5, 855120, Note_on_c, 3, 45, 92
5, 855120, Note_on_c, 3, 57, 92
5, 855520, Note_off_c, 3, 57, 64
5, 855520, Note_off_c, 3, 45, 64
5, 855600, Note_on_c, 3, 41, 92
5, 855600, Note_on_c, 3, 53, 92
5, 856000, Note_off_c, 3, 53, 64
5, 856000, Note_off_c, 3, 41, 64
5, 856080, Note_on_c, 3, 43, 92
5, 856080, Note_on_c, 3, 55, 92
5, 856480, Note_off_c, 3, 55, 64
5, 856480, Note_off_c, 3, 43, 64
5, 856560, Note_on_c, 3, 45, 92
5, 856560, Note_on_c, 3, 57, 92
5, 857880, Note_off_c, 3, 57, 64
5, 857880, Note_off_c, 3, 45, 64
5, 858000, Note_on_c, 3, 43, 92
5, 858000, Note_on_c, 3, 55, 92
5, 858840, Note_off_c, 3, 55, 64
5, 858840, Note_off_c, 3, 43, 64
5, 858960, Note_on_c, 3, 41, 92
5, 858960, Note_on_c, 3, 53, 92
5, 859360, Note_off_c, 3, 53, 64
5, 859360, Note_off_c, 3, 41, 64
5, 859440, Note_on_c, 3, 40, 92
5, 859440, Note_on_c, 3, 52, 92
5, 860280, Note_off_c, 3, 52, 64
5, 860280, Note_off_c, 3, 40, 64
5, 860400, Note_on_c, 3, 38, 92
5, 860400, Note_on_c, 3, 50, 92
5, 860800, Note_off_c, 3, 50, 64
5, 860800, Note_off_c, 3, 38, 64
5, 860880, Note_on_c, 3, 36, 92
5, 860880, Note_on_c, 3, 48, 92
5, 861720, Note_off_c, 3, 48, 64
5, 861720, Note_off_c, 3, 36, 64
5, 861840, Note_on_c, 3, 46, 92
5, 861840, Note_on_c, 3, 58, 92
5, 862240, Note_off_c, 3, 58, 64
5, 862240, Note_off_c, 3, 46, 64
5, 862320, Note_on_c, 3, 45, 92
5, 862320, Note_on_c, 3, 57, 92
5, 863640, Note_off_c, 3, 57, 64
5, 863640, Note_off_c, 3, 45, 64
5, 863760, Note_on_c, 3, 46, 92
5, 863760, Note_on_c, 3, 58, 92
5, 865080, Note_off_c, 3, 58, 64
5, 865080, Note_off_c, 3, 46, 64
5, 865200, Note_on_c, 3, 48, 92
5, 865200, Note_on_c, 3, 60, 92
5, 866520, Note_off_c, 3, 60, 64
5, 866520, Note_off_c, 3, 48, 64
5, 866640, Note_on_c, 3, 36, 92
5, 866640, Note_on_c, 3, 48, 92
5, 867960, Note_off_c, 3, 48, 64
5, 867960, Note_off_c, 3, 36, 64
5, 868080, Note_on_c, 3, 41, 92
5, 868080, Note_on_c, 3, 53, 92
5, 868480, Note_off_c, 3, 53, 64
5, 868480, Note_off_c, 3, 41, 64
5, 869040, Note_on_c, 3, 45, 92
5, 869040, Note_on_c, 3, 57, 92
5, 869440, Note_off_c, 3, 57, 64
5, 869440, Note_off_c, 3, 45, 64
5, 869520, Note_on_c, 3, 43, 92
5, 869520, Note_on_c, 3, 55, 92
5, 870360, Note_off_c, 3, 55, 64
5, 870360, Note_off_c, 3, 43, 64
5, 870480, Note_on_c, 3, 41, 92
5, 870480, Note_on_c, 3, 53, 92
5, 870880, Note_off_c, 3, 53, 64
5, 870880, Note_off_c, 3, 41, 64
5, 870960, Note_on_c, 3, 40, 92
5, 870960, Note_on_c, 3, 52, 92
5, 871800, Note_off_c, 3, 52, 64
5, 871800, Note_off_c, 3, 40, 64
5, 871920, Note_on_c, 3, 38, 92
5, 871920, Note_on_c, 3, 50, 92
5, 872320, Note_off_c, 3, 50, 64
5, 872320, Note_off_c, 3, 38, 64
5, 872400, Note_on_c, 3, 36, 92
5, 872400, Note_on_c, 3, 48, 92
5, 873240, Note_off_c, 3, 48, 64
5, 873240, Note_off_c, 3, 36, 64
5, 873360, Note_on_c, 3, 46, 92
5, 873360, Note_on_c, 3, 58, 92
5, 873760, Note_off_c, 3, 58, 64
5, 873760, Note_off_c, 3, 46, 64
5, 873840, Note_on_c, 3, 45, 92
5, 873840, Note_on_c, 3, 57, 92
5, 875160, Note_off_c, 3, 57, 64
5, 875160, Note_off_c, 3, 45, 64
5, 875280, Note_on_c, 3, 46, 92
5, 875280, Note_on_c, 3, 58, 92
5, 876600, Note_off_c, 3, 58, 64
5, 876600, Note_off_c, 3, 46, 64
5, 876720, Note_on_c, 3, 48, 92
5, 876720, Note_on_c, 3, 60, 92
5, 878040, Note_off_c, 3, 60, 64
5, 878040, Note_off_c, 3, 48, 64
5, 878160, Note_on_c, 3, 36, 92
5, 878160, Note_on_c, 3, 48, 92
5, 879480, Note_off_c, 3, 48, 64
5, 879480, Note_off_c, 3, 36, 64
5, 879600, Note_on_c, 3, 41, 92
5, 879600, Note_on_c, 3, 53, 92
5, 880000, Note_off_c, 3, 53, 64
5, 880000, Note_off_c, 3, 41, 64
5, 880080, Note_on_c, 3, 53, 92
5, 880080, Note_on_c, 3, 57, 92
5, 880480, Note_off_c, 3, 57, 64
5, 880480, Note_off_c, 3, 53, 64
5, 880560, Note_on_c, 3, 53, 92
5, 880560, Note_on_c, 3, 57, 92
5, 880960, Note_off_c, 3, 57, 64
5, 880960, Note_off_c, 3, 53, 64
5, 881040, Note_on_c, 3, 57, 92
5, 881040, Note_on_c, 3, 60, 92
5, 881440, Note_off_c, 3, 60, 64
5, 881440, Note_off_c, 3, 57, 64
5, 881520, Note_on_c, 3, 53, 92
5, 881520, Note_on_c, 3, 57, 92
5, 881920, Note_off_c, 3, 57, 64
5, 881920, Note_off_c, 3, 53, 64
5, 882000, Note_on_c, 3, 53, 92
5, 882000, Note_on_c, 3, 57, 92
5, 882400, Note_off_c, 3, 57, 64
5, 882400, Note_off_c, 3, 53, 64
5, 882480, Note_on_c, 3, 57, 92
5, 882480, Note_on_c, 3, 60, 92
5, 882880, Note_off_c, 3, 60, 64
5, 882880, Note_off_c, 3, 57, 64
5, 882960, Note_on_c, 3, 53, 92
5, 882960, Note_on_c, 3, 57, 92
5, 883360, Note_off_c, 3, 57, 64
5, 883360, Note_off_c, 3, 53, 64
5, 883440, Note_on_c, 3, 53, 92
5, 883440, Note_on_c, 3, 57, 92
5, 883840, Note_off_c, 3, 57, 64
5, 883840, Note_off_c, 3, 53, 64
5, 883920, Note_on_c, 3, 55, 92
5, 883920, Note_on_c, 3, 58, 92
5, 884320, Note_off_c, 3, 58, 64
5, 884320, Note_off_c, 3, 55, 64
5, 884400, Note_on_c, 3, 48, 92
5, 884400, Note_on_c, 3, 55, 92
5, 884800, Note_off_c, 3, 55, 64
5, 884800, Note_off_c, 3, 48, 64
5, 884880, Note_on_c, 3, 48, 92
5, 884880, Note_on_c, 3, 55, 92
5, 885280, Note_off_c, 3, 55, 64
5, 885280, Note_off_c, 3, 48, 64
5, 885360, Note_on_c, 3, 57, 92
5, 885360, Note_on_c, 3, 60, 92
5, 885760, Note_off_c, 3, 60, 64
5, 885760, Note_off_c, 3, 57, 64
5, 885840, Note_on_c, 3, 53, 92
5, 885840, Note_on_c, 3, 57, 92
5, 886240, Note_off_c, 3, 57, 64
5, 886240, Note_off_c, 3, 53, 64
5, 886320, Note_on_c, 3, 53, 92
5, 886320, Note_on_c, 3, 57, 92
5, 886720, Note_off_c, 3, 57, 64
5, 886720, Note_off_c, 3, 53, 64
5, 886800, Note_on_c, 3, 57, 92
5, 886800, Note_on_c, 3, 60, 92
5, 887200, Note_off_c, 3, 60, 64
5, 887200, Note_off_c, 3, 57, 64
5, 887280, Note_on_c, 3, 53, 92
5, 887280, Note_on_c, 3, 57, 92
5, 887680, Note_off_c, 3, 57, 64
5, 887680, Note_off_c, 3, 53, 64
5, 887760, Note_on_c, 3, 53, 92
5, 887760, Note_on_c, 3, 57, 92
5, 888160, Note_off_c, 3, 57, 64
5, 888160, Note_off_c, 3, 53, 64
5, 888240, Note_on_c, 3, 57, 92
5, 888240, Note_on_c, 3, 60, 92
5, 888640, Note_off_c, 3, 60, 64
5, 888640, Note_off_c, 3, 57, 64
5, 888720, Note_on_c, 3, 53, 92
5, 888720, Note_on_c, 3, 57, 92
5, 889120, Note_off_c, 3, 57, 64
5, 889120, Note_off_c, 3, 53, 64
5, 889200, Note_on_c, 3, 53, 92
5, 889200, Note_on_c, 3, 57, 92
5, 889600, Note_off_c, 3, 57, 64
5, 889600, Note_off_c, 3, 53, 64
5, 889680, Note_on_c, 3, 55, 92
5, 889680, Note_on_c, 3, 58, 92
5, 890080, Note_off_c, 3, 58, 64
5, 890080, Note_off_c, 3, 55, 64
5, 890160, Note_on_c, 3, 48, 92
5, 890160, Note_on_c, 3, 55, 92
5, 890560, Note_off_c, 3, 55, 64
5, 890560, Note_off_c, 3, 48, 64
5, 890640, Note_on_c, 3, 48, 92
5, 890640, Note_on_c, 3, 55, 92
5, 891040, Note_off_c, 3, 55, 64
5, 891040, Note_off_c, 3, 48, 64
5, 891120, Note_on_c, 3, 57, 92
5, 891120, Note_on_c, 3, 60, 92
5, 891520, Note_off_c, 3, 60, 64
5, 891520, Note_off_c, 3, 57, 64
5, 891600, Note_on_c, 3, 53, 92
5, 891600, Note_on_c, 3, 57, 92
5, 892000, Note_off_c, 3, 57, 64
5, 892000, Note_off_c, 3, 53, 64
5, 892080, Note_on_c, 3, 53, 92
5, 892080, Note_on_c, 3, 57, 92
5, 892480, Note_off_c, 3, 57, 64
5, 892480, Note_off_c, 3, 53, 64
5, 892560, Note_on_c, 3, 57, 92
5, 892560, Note_on_c, 3, 60, 92
5, 892960, Note_off_c, 3, 60, 64
5, 892960, Note_off_c, 3, 57, 64
5, 893040, Note_on_c, 3, 53, 92
5, 893040, Note_on_c, 3, 57, 92
5, 893440, Note_off_c, 3, 57, 64
5, 893440, Note_off_c, 3, 53, 64
5, 893520, Note_on_c, 3, 53, 92
5, 893520, Note_on_c, 3, 57, 92
5, 893920, Note_off_c, 3, 57, 64
5, 893920, Note_off_c, 3, 53, 64
5, 894000, Note_on_c, 3, 57, 92
5, 894000, Note_on_c, 3, 60, 92
5, 894400, Note_off_c, 3, 60, 64
5, 894400, Note_off_c, 3, 57, 64
5, 894480, Note_on_c, 3, 53, 92
5, 894480, Note_on_c, 3, 57, 92
5, 894880, Note_off_c, 3, 57, 64
5, 894880, Note_off_c, 3, 53, 64
5, 894960, Note_on_c, 3, 53, 92
5, 894960, Note_on_c, 3, 57, 92
5, 895360, Note_off_c, 3, 57, 64
5, 895360, Note_off_c, 3, 53, 64
5, 895440, Note_on_c, 3, 57, 92
5, 895440, Note_on_c, 3, 60, 92
5, 895840, Note_off_c, 3, 60, 64
5, 895840, Note_off_c, 3, 57, 64
5, 895920, Note_on_c, 3, 53, 92
5, 895920, Note_on_c, 3, 57, 92
5, 896320, Note_off_c, 3, 57, 64
5, 896320, Note_off_c, 3, 53, 64
5, 896400, Note_on_c, 3, 53, 92
5, 896400, Note_on_c, 3, 57, 92
5, 896800, Note_off_c, 3, 57, 64
5, 896800, Note_off_c, 3, 53, 64
5, 908400, Note_on_c, 3, 53, 45
5, 909720, Note_off_c, 3, 53, 64
5, 909840, Note_on_c, 3, 48, 45
5, 911160, Note_off_c, 3, 48, 64
5, 911280, Note_on_c, 3, 41, 45
5, 912600, Note_off_c, 3, 41, 64
5, 919920, Note_on_c, 3, 53, 45
5, 921240, Note_off_c, 3, 53, 64
5, 921360, Note_on_c, 3, 48, 45
5, 922680, Note_off_c, 3, 48, 64
5, 922800, Note_on_c, 3, 48, 45
5, 924120, Note_off_c, 3, 48, 64
5, 924240, Note_on_c, 3, 41, 45
5, 925560, Note_off_c, 3, 41, 64
5, 931440, Note_on_c, 3, 53, 45
5, 932760, Note_off_c, 3, 53, 64
5, 932880, Note_on_c, 3, 48, 45
5, 934200, Note_off_c, 3, 48, 64
5, 934320, Note_on_c, 3, 41, 45
5, 935640, Note_off_c, 3, 41, 64
5, 942960, Note_on_c, 3, 53, 45
5, 944280, Note_off_c, 3, 53, 64
5, 944400, Note_on_c, 3, 48, 45
5, 945720, Note_off_c, 3, 48, 64
5, 945840, Note_on_c, 3, 48, 45
5, 947160, Note_off_c, 3, 48, 64
5, 947280, Note_on_c, 3, 41, 45
5, 948600, Note_off_c, 3, 41, 64
5, 948720, Note_on_c, 3, 64, 45
5, 948720, Note_on_c, 3, 67, 45
5, 948840, Note_off_c, 3, 67, 64
5, 948840, Note_off_c, 3, 64, 64
5, 949200, Note_on_c, 3, 60, 45
5, 949200, Note_on_c, 3, 64, 45
5, 949320, Note_off_c, 3, 64, 64
5, 949320, Note_off_c, 3, 60, 64
5, 949680, Note_on_c, 3, 60, 45
5, 949680, Note_on_c, 3, 64, 45
5, 949800, Note_off_c, 3, 64, 64
5, 949800, Note_off_c, 3, 60, 64
5, 950160, Note_on_c, 3, 64, 45
5, 950160, Note_on_c, 3, 67, 45
5, 950280, Note_off_c, 3, 67, 64
5, 950280, Note_off_c, 3, 64, 64
5, 950640, Note_on_c, 3, 60, 45
5, 950640, Note_on_c, 3, 64, 45
5, 950760, Note_off_c, 3, 64, 64
5, 950760, Note_off_c, 3, 60, 64
5, 951120, Note_on_c, 3, 60, 45
5, 951120, Note_on_c, 3, 64, 45
5, 951240, Note_off_c, 3, 64, 64
5, 951240, Note_off_c, 3, 60, 64
5, 951600, Note_on_c, 3, 65, 45
5, 951600, Note_on_c, 3, 67, 45
5, 951720, Note_off_c, 3, 67, 64
5, 951720, Note_off_c, 3, 65, 64
5, 952080, Note_on_c, 3, 60, 45
5, 952080, Note_on_c, 3, 65, 45
5, 952200, Note_off_c, 3, 65, 64
5, 952200, Note_off_c, 3, 60, 64
5, 952560, Note_on_c, 3, 60, 45
5, 952560, Note_on_c, 3, 65, 45
5, 952680, Note_off_c, 3, 65, 64
5, 952680, Note_off_c, 3, 60, 64
5, 953040, Note_on_c, 3, 65, 45
5, 953040, Note_on_c, 3, 67, 45
5, 953160, Note_off_c, 3, 67, 64
5, 953160, Note_off_c, 3, 65, 64
5, 953520, Note_on_c, 3, 60, 45
5, 953520, Note_on_c, 3, 65, 45
5, 953640, Note_off_c, 3, 65, 64
5, 953640, Note_off_c, 3, 60, 64
5, 954000, Note_on_c, 3, 60, 45
5, 954000, Note_on_c, 3, 65, 45
5, 954120, Note_off_c, 3, 65, 64
5, 954120, Note_off_c, 3, 60, 64
5, 954480, Note_on_c, 3, 64, 45
5, 954480, Note_on_c, 3, 67, 45
5, 954600, Note_off_c, 3, 67, 64
5, 954600, Note_off_c, 3, 64, 64
5, 954960, Note_on_c, 3, 60, 45
5, 954960, Note_on_c, 3, 64, 45
5, 955080, Note_off_c, 3, 64, 64
5, 955080, Note_off_c, 3, 60, 64
5, 955440, Note_on_c, 3, 60, 45
5, 955440, Note_on_c, 3, 64, 45
5, 955560, Note_off_c, 3, 64, 64
5, 955560, Note_off_c, 3, 60, 64
5, 955920, Note_on_c, 3, 65, 45
5, 955920, Note_on_c, 3, 67, 45
5, 956040, Note_off_c, 3, 67, 64
5, 956040, Note_off_c, 3, 65, 64
5, 956400, Note_on_c, 3, 59, 48
5, 956400, Note_on_c, 3, 62, 48
5, 956520, Note_off_c, 3, 62, 64
5, 956520, Note_off_c, 3, 59, 64
5, 956880, Note_on_c, 3, 59, 51
5, 956880, Note_on_c, 3, 62, 51
5, 957000, Note_off_c, 3, 62, 64
5, 957000, Note_off_c, 3, 59, 64
5, 957360, Note_on_c, 3, 64, 54
5, 957360, Note_on_c, 3, 67, 54
5, 957480, Note_off_c, 3, 67, 64
5, 957480, Note_off_c, 3, 64, 64
5, 957840, Note_on_c, 3, 60, 57
5, 957840, Note_on_c, 3, 64, 57
5, 957960, Note_off_c, 3, 64, 64
5, 957960, Note_off_c, 3, 60, 64
5, 958320, Note_on_c, 3, 60, 60
5, 958320, Note_on_c, 3, 64, 60
5, 958440, Note_off_c, 3, 64, 64
5, 958440, Note_off_c, 3, 60, 64
5, 958800, Note_on_c, 3, 64, 63
5, 958800, Note_on_c, 3, 67, 63
5, 958920, Note_off_c, 3, 67, 64
5, 958920, Note_off_c, 3, 64, 64
5, 959280, Note_on_c, 3, 60, 67
5, 959280, Note_on_c, 3, 64, 67
5, 959400, Note_off_c, 3, 64, 64
5, 959400, Note_off_c, 3, 60, 64
5, 959760, Note_on_c, 3, 60, 71
5, 959760, Note_on_c, 3, 64, 71
5, 959880, Note_off_c, 3, 64, 64
5, 959880, Note_off_c, 3, 60, 64
5, 960240, Note_on_c, 3, 64, 75
5, 960240, Note_on_c, 3, 67, 75
5, 960360, Note_off_c, 3, 67, 64
5, 960360, Note_off_c, 3, 64, 64
5, 960720, Note_on_c, 3, 60, 75
5, 960720, Note_on_c, 3, 64, 75
5, 960840, Note_off_c, 3, 64, 64
5, 960840, Note_off_c, 3, 60, 64
5, 961200, Note_on_c, 3, 60, 75
5, 961200, Note_on_c, 3, 64, 75
5, 961320, Note_off_c, 3, 64, 64
5, 961320, Note_off_c, 3, 60, 64
5, 961680, Note_on_c, 3, 64, 75
5, 961680, Note_on_c, 3, 67, 75
5, 961800, Note_off_c, 3, 67, 64
5, 961800, Note_off_c, 3, 64, 64
5, 962160, Note_on_c, 3, 48, 75
5, 962160, Note_on_c, 3, 55, 75
5, 962280, Note_off_c, 3, 55, 64
5, 962280, Note_off_c, 3, 48, 64
5, 962640, Note_on_c, 3, 48, 75
5, 962640, Note_on_c, 3, 55, 75
5, 962760, Note_off_c, 3, 55, 64
5, 962760, Note_off_c, 3, 48, 64
5, 963120, Note_on_c, 3, 53, 75
5, 963120, Note_on_c, 3, 57, 75
5, 963240, Note_off_c, 3, 57, 64
5, 963240, Note_off_c, 3, 53, 64
5, 968880, Note_on_c, 3, 53, 60
5, 970200, Note_off_c, 3, 53, 64
5, 970320, Note_on_c, 3, 48, 60
5, 971640, Note_off_c, 3, 48, 64
5, 971760, Note_on_c, 3, 41, 60
5, 973080, Note_off_c, 3, 41, 64
5, 973200, Note_on_c, 3, 48, 60
5, 974520, Note_off_c, 3, 48, 64
5, 974640, Note_on_c, 3, 53, 60
5, 975960, Note_off_c, 3, 53, 64
5, 976080, Note_on_c, 3, 53, 60
5, 977400, Note_off_c, 3, 53, 64
5, 977520, Note_on_c, 3, 48, 60
5, 978840, Note_off_c, 3, 48, 64
5, 978960, Note_on_c, 3, 48, 60
5, 980280, Note_off_c, 3, 48, 64
5, 980400, Note_on_c, 3, 41, 60
5, 993240, Note_off_c, 3, 41, 64
5, 993360, Note_on_c, 3, 41, 60
5, 993360, Note_on_c, 3, 60, 60
5, 998640, Note_off_c, 3, 41, 64
5, 998640, Note_on_c, 3, 46, 65
5, 999120, Note_off_c, 3, 46, 64
5, 999120, Note_on_c, 3, 48, 67
5, 999600, Note_off_c, 3, 48, 64
5, 999600, Note_on_c, 3, 45, 69
5, 1000080, Note_off_c, 3, 45, 64
5, 1000080, Note_on_c, 3, 46, 71
5, 1000480, Note_off_c, 3, 46, 64
5, 1000560, Note_on_c, 3, 43, 74
5, 1001520, Note_off_c, 3, 43, 64
5, 1001520, Note_on_c, 3, 45, 80
5, 1002000, Note_off_c, 3, 45, 64
5, 1002000, Note_on_c, 3, 46, 83
5, 1002480, Note_off_c, 3, 46, 64
5, 1002480, Note_on_c, 3, 43, 86
5, 1002960, Note_off_c, 3, 43, 64
5, 1002960, Note_on_c, 3, 45, 89
5, 1003320, Note_off_c, 3, 60, 64
5, 1003360, Note_off_c, 3, 45, 64
5, 1003440, Note_on_c, 3, 53, 92
5, 1003840, Note_off_c, 3, 53, 64
5, 1004400, Note_on_c, 3, 46, 92
5, 1004520, Note_off_c, 3, 46, 64
5, 1004880, Note_on_c, 3, 48, 92
5, 1005000, Note_off_c, 3, 48, 64
5, 1005360, Note_on_c, 3, 45, 92
5, 1005480, Note_off_c, 3, 45, 64
5, 1005840, Note_on_c, 3, 46, 92
5, 1005960, Note_off_c, 3, 46, 64
5, 1006320, Note_on_c, 3, 46, 92
5, 1006440, Note_off_c, 3, 46, 64
5, 1006800, Note_on_c, 3, 43, 92
5, 1006920, Note_off_c, 3, 43, 64
5, 1007280, Note_on_c, 3, 45, 92
5, 1007400, Note_off_c, 3, 45, 64
5, 1007760, Note_on_c, 3, 45, 92
5, 1007880, Note_off_c, 3, 45, 64
5, 1008240, Note_on_c, 3, 41, 92
5, 1008360, Note_off_c, 3, 41, 64
5, 1008720, Note_on_c, 3, 43, 92
5, 1008840, Note_off_c, 3, 43, 64
5, 1009200, Note_on_c, 3, 57, 60
5, 1009200, Note_on_c, 3, 60, 60
5, 1010040, Note_off_c, 3, 60, 64
5, 1010040, Note_off_c, 3, 57, 64
5, 1010160, Note_on_c, 3, 57, 60
5, 1010160, Note_on_c, 3, 60, 60
5, 1011000, Note_off_c, 3, 60, 64
5, 1011000, Note_off_c, 3, 57, 64
5, 1011120, Note_on_c, 3, 58, 60
5, 1011120, Note_on_c, 3, 62, 60
5, 1011960, Note_off_c, 3, 62, 64
5, 1011960, Note_off_c, 3, 58, 64
5, 1012080, Note_on_c, 3, 57, 60
5, 1012080, Note_on_c, 3, 60, 60
5, 1012560, Note_off_c, 3, 60, 64
5, 1012560, Note_off_c, 3, 57, 64
5, 1012560, Note_on_c, 3, 58, 60
5, 1012560, Note_on_c, 3, 62, 60
5, 1012960, Note_off_c, 3, 62, 64
5, 1012960, Note_off_c, 3, 58, 64
5, 1013040, Note_on_c, 3, 57, 60
5, 1013040, Note_on_c, 3, 60, 60
5, 1013880, Note_off_c, 3, 60, 64
5, 1013880, Note_off_c, 3, 57, 64
5, 1014000, Note_on_c, 3, 57, 60
5, 1014000, Note_on_c, 3, 60, 60
5, 1014840, Note_off_c, 3, 60, 64
5, 1014840, Note_off_c, 3, 57, 64
5, 1014960, Note_on_c, 3, 58, 60
5, 1014960, Note_on_c, 3, 62, 60
5, 1015800, Note_off_c, 3, 62, 64
5, 1015800, Note_off_c, 3, 58, 64
5, 1015920, Note_on_c, 3, 57, 60
5, 1015920, Note_on_c, 3, 60, 60
5, 1016400, Note_off_c, 3, 60, 64
5, 1016400, Note_off_c, 3, 57, 64
5, 1016400, Note_on_c, 3, 58, 60
5, 1016400, Note_on_c, 3, 62, 60
5, 1016800, Note_off_c, 3, 62, 64
5, 1016800, Note_off_c, 3, 58, 64
5, 1016880, Note_on_c, 3, 57, 60
5, 1016880, Note_on_c, 3, 60, 60
5, 1017720, Note_off_c, 3, 60, 64
5, 1017720, Note_off_c, 3, 57, 64
5, 1017840, Note_on_c, 3, 57, 60
5, 1017840, Note_on_c, 3, 60, 60
5, 1018680, Note_off_c, 3, 60, 64
5, 1018680, Note_off_c, 3, 57, 64
5, 1018800, Note_on_c, 3, 58, 60
5, 1018800, Note_on_c, 3, 62, 60
5, 1019640, Note_off_c, 3, 62, 64
5, 1019640, Note_off_c, 3, 58, 64
5, 1019760, Note_on_c, 3, 57, 60
5, 1019760, Note_on_c, 3, 60, 60
5, 1020240, Note_off_c, 3, 60, 64
5, 1020240, Note_off_c, 3, 57, 64
5, 1020240, Note_on_c, 3, 58, 60
5, 1020240, Note_on_c, 3, 62, 60
5, 1020640, Note_off_c, 3, 62, 64
5, 1020640, Note_off_c, 3, 58, 64
5, 1020720, Note_on_c, 3, 57, 60
5, 1020720, Note_on_c, 3, 60, 60
5, 1021560, Note_off_c, 3, 60, 64
5, 1021560, Note_off_c, 3, 57, 64
5, 1021680, Note_on_c, 3, 57, 60
5, 1021680, Note_on_c, 3, 60, 60
5, 1022520, Note_off_c, 3, 60, 64
5, 1022520, Note_off_c, 3, 57, 64
5, 1022640, Note_on_c, 3, 58, 60
5, 1022640, Note_on_c, 3, 62, 60
5, 1023480, Note_off_c, 3, 62, 64
5, 1023480, Note_off_c, 3, 58, 64
5, 1023600, Note_on_c, 3, 57, 60
5, 1023600, Note_on_c, 3, 60, 60
5, 1024080, Note_off_c, 3, 60, 64
5, 1024080, Note_off_c, 3, 57, 64
5, 1024080, Note_on_c, 3, 58, 60
5, 1024080, Note_on_c, 3, 62, 60
5, 1024480, Note_off_c, 3, 62, 64
5, 1024480, Note_off_c, 3, 58, 64
5, 1024560, Note_on_c, 3, 60, 75
5, 1024800, Note_off_c, 3, 60, 64
5, 1024800, Note_on_c, 3, 62, 75
5, 1024920, Note_off_c, 3, 62, 64
5, 1024920, Note_on_c, 3, 60, 75
5, 1025040, Note_off_c, 3, 60, 64
5, 1025040, Note_on_c, 3, 55, 75
5, 1025280, Note_off_c, 3, 55, 64
5, 1025280, Note_on_c, 3, 57, 75
5, 1025400, Note_off_c, 3, 57, 64
5, 1025400, Note_on_c, 3, 59, 75
5, 1025515, Note_off_c, 3, 59, 64
5, 1025520, Note_on_c, 3, 60, 75
5, 1025760, Note_off_c, 3, 60, 64
5, 1025760, Note_on_c, 3, 62, 75
5, 1025880, Note_off_c, 3, 62, 64
5, 1025880, Note_on_c, 3, 60, 75
5, 1025995, Note_off_c, 3, 60, 64
5, 1026000, Note_on_c, 3, 55, 75
5, 1026400, Note_off_c, 3, 55, 64
5, 1026480, Note_on_c, 3, 53, 75
5, 1026600, Note_off_c, 3, 53, 64
5, 1026600, Note_on_c, 3, 55, 75
5, 1026720, Note_off_c, 3, 55, 64
5, 1026720, Note_on_c, 3, 57, 75
5, 1026840, Note_off_c, 3, 57, 64
5, 1026840, Note_on_c, 3, 58, 75
5, 1026955, Note_off_c, 3, 58, 64
5, 1026960, Note_on_c, 3, 60, 75
5, 1027040, Note_off_c, 3, 60, 64
5, 1027200, Note_on_c, 3, 60, 75
5, 1027260, Note_off_c, 3, 60, 64
5, 1027260, Note_on_c, 3, 62, 75
5, 1027435, Note_off_c, 3, 62, 64
5, 1027440, Note_on_c, 3, 55, 75
5, 1027520, Note_off_c, 3, 55, 64
5, 1027680, Note_on_c, 3, 55, 75
5, 1027740, Note_off_c, 3, 55, 64
5, 1027740, Note_on_c, 3, 60, 75
5, 1027915, Note_off_c, 3, 60, 64
5, 1027920, Note_on_c, 3, 53, 75
5, 1028320, Note_off_c, 3, 53, 64
5, 1028400, Note_on_c, 3, 60, 75
5, 1028640, Note_off_c, 3, 60, 64
5, 1028640, Note_on_c, 3, 62, 75
5, 1028760, Note_off_c, 3, 62, 64
5, 1028760, Note_on_c, 3, 60, 75
5, 1028880, Note_off_c, 3, 60, 64
5, 1028880, Note_on_c, 3, 55, 75
5, 1029120, Note_off_c, 3, 55, 64
5, 1029120, Note_on_c, 3, 57, 75
5, 1029240, Note_off_c, 3, 57, 64
5, 1029240, Note_on_c, 3, 59, 75
5, 1029355, Note_off_c, 3, 59, 64
5, 1029360, Note_on_c, 3, 60, 75
5, 1029600, Note_off_c, 3, 60, 64
5, 1029600, Note_on_c, 3, 62, 75
5, 1029720, Note_off_c, 3, 62, 64
5, 1029720, Note_on_c, 3, 60, 75
5, 1029835, Note_off_c, 3, 60, 64
5, 1029840, Note_on_c, 3, 55, 75
5, 1030240, Note_off_c, 3, 55, 64
5, 1030320, Note_on_c, 3, 53, 75
5, 1030440, Note_off_c, 3, 53, 64
5, 1030440, Note_on_c, 3, 55, 75
5, 1030560, Note_off_c, 3, 55, 64
5, 1030560, Note_on_c, 3, 57, 75
5, 1030680, Note_off_c, 3, 57, 64
5, 1030680, Note_on_c, 3, 58, 75
5, 1030795, Note_off_c, 3, 58, 64
5, 1030800, Note_on_c, 3, 60, 75
5, 1030880, Note_off_c, 3, 60, 64
5, 1031040, Note_on_c, 3, 60, 75
5, 1031100, Note_off_c, 3, 60, 64
5, 1031100, Note_on_c, 3, 62, 75
5, 1031275, Note_off_c, 3, 62, 64
5, 1031280, Note_on_c, 3, 55, 75
5, 1031360, Note_off_c, 3, 55, 64
5, 1031520, Note_on_c, 3, 55, 75
5, 1031580, Note_off_c, 3, 55, 64
5, 1031580, Note_on_c, 3, 60, 75
5, 1031755, Note_off_c, 3, 60, 64
5, 1031760, Note_on_c, 3, 53, 75
5, 1032160, Note_off_c, 3, 53, 64
5, 1032240, Note_on_c, 3, 52, 75
5, 1032240, Note_on_c, 3, 60, 75
5, 1032720, Note_off_c, 3, 60, 64
5, 1032720, Note_off_c, 3, 52, 64
5, 1032720, Note_on_c, 3, 62, 75
5, 1032720, Note_on_c, 3, 65, 75
5, 1033200, Note_off_c, 3, 65, 64
5, 1033200, Note_off_c, 3, 62, 64
5, 1033200, Note_on_c, 3, 60, 75
5, 1033200, Note_on_c, 3, 64, 75
5, 1033840, Note_off_c, 3, 64, 64
5, 1033840, Note_off_c, 3, 60, 64
5, 1033920, Note_on_c, 3, 53, 75
5, 1033920, Note_on_c, 3, 57, 75
5, 1034155, Note_off_c, 3, 57, 64
5, 1034155, Note_off_c, 3, 53, 64
5, 1034160, Note_on_c, 3, 52, 75
5, 1034160, Note_on_c, 3, 55, 75
5, 1034395, Note_off_c, 3, 55, 64
5, 1034395, Note_off_c, 3, 52, 64
5, 1034640, Note_on_c, 3, 53, 75
5, 1034640, Note_on_c, 3, 57, 75
5, 1034875, Note_off_c, 3, 57, 64
5, 1034875, Note_off_c, 3, 53, 64
5, 1035120, Note_on_c, 3, 55, 75
5, 1035120, Note_on_c, 3, 60, 75
5, 1035355, Note_off_c, 3, 60, 64
5, 1035355, Note_off_c, 3, 55, 64
5, 1035600, Note_on_c, 3, 55, 75
5, 1035600, Note_on_c, 3, 59, 75
5, 1035835, Note_off_c, 3, 59, 64
5, 1035835, Note_off_c, 3, 55, 64
5, 1036080, Note_on_c, 3, 52, 75
5, 1036080, Note_on_c, 3, 60, 75
5, 1036160, Note_off_c, 3, 60, 64
5, 1036160, Note_off_c, 3, 52, 64
5, 1036320, Note_on_c, 3, 52, 75
5, 1036320, Note_on_c, 3, 60, 75
5, 1036400, Note_off_c, 3, 60, 64
5, 1036400, Note_off_c, 3, 52, 64
5, 1036560, Note_on_c, 3, 62, 75
5, 1036560, Note_on_c, 3, 65, 75
5, 1036640, Note_off_c, 3, 65, 64
5, 1036640, Note_off_c, 3, 62, 64
5, 1036800, Note_on_c, 3, 62, 75
5, 1036800, Note_on_c, 3, 65, 75
5, 1036880, Note_off_c, 3, 65, 64
5, 1036880, Note_off_c, 3, 62, 64
5, 1037040, Note_on_c, 3, 60, 75
5, 1037040, Note_on_c, 3, 64, 75
5, 1037120, Note_off_c, 3, 64, 64
5, 1037120, Note_off_c, 3, 60, 64
5, 1037280, Note_on_c, 3, 60, 75
5, 1037280, Note_on_c, 3, 64, 75
5, 1037360, Note_off_c, 3, 64, 64
5, 1037360, Note_off_c, 3, 60, 64
5, 1037760, Note_on_c, 3, 53, 75
5, 1037760, Note_on_c, 3, 57, 75
5, 1037995, Note_off_c, 3, 57, 64
5, 1037995, Note_off_c, 3, 53, 64
5, 1038240, Note_on_c, 3, 52, 75
5, 1038240, Note_on_c, 3, 55, 75
5, 1038475, Note_off_c, 3, 55, 64
5, 1038475, Note_off_c, 3, 52, 64
5, 1038720, Note_on_c, 3, 53, 75
5, 1038720, Note_on_c, 3, 57, 75
5, 1038955, Note_off_c, 3, 57, 64
5, 1038955, Note_off_c, 3, 53, 64
5, 1039200, Note_on_c, 3, 55, 75
5, 1039200, Note_on_c, 3, 60, 75
5, 1039435, Note_off_c, 3, 60, 64
5, 1039435, Note_off_c, 3, 55, 64
5, 1039680, Note_on_c, 3, 55, 75
5, 1039680, Note_on_c, 3, 59, 75
5, 1039915, Note_off_c, 3, 59, 64
5, 1039915, Note_off_c, 3, 55, 64
5, 1039920, Note_on_c, 3, 48, 75
5, 1039920, Note_on_c, 3, 55, 75
5, 1040560, Note_off_c, 3, 55, 64
5, 1040560, Note_off_c, 3, 48, 64
5, 1040640, Note_on_c, 3, 48, 75
5, 1040640, Note_on_c, 3, 55, 75
5, 1040875, Note_off_c, 3, 55, 64
5, 1040875, Note_off_c, 3, 48, 64
5, 1040880, Note_on_c, 3, 48, 75
5, 1040880, Note_on_c, 3, 55, 75
5, 1041520, Note_off_c, 3, 55, 64
5, 1041520, Note_off_c, 3, 48, 64
5, 1041600, Note_on_c, 3, 48, 75
5, 1041600, Note_on_c, 3, 55, 75
5, 1041835, Note_off_c, 3, 55, 64
5, 1041835, Note_off_c, 3, 48, 64
5, 1041840, Note_on_c, 3, 48, 75
5, 1041840, Note_on_c, 3, 55, 75
5, 1042480, Note_off_c, 3, 55, 64
5, 1042480, Note_off_c, 3, 48, 64
5, 1042560, Note_on_c, 3, 48, 75
5, 1042560, Note_on_c, 3, 55, 75
5, 1042795, Note_off_c, 3, 55, 64
5, 1042795, Note_off_c, 3, 48, 64
5, 1042800, Note_on_c, 3, 48, 75
5, 1042800, Note_on_c, 3, 55, 75
5, 1043440, Note_off_c, 3, 55, 64
5, 1043440, Note_off_c, 3, 48, 64
5, 1043520, Note_on_c, 3, 48, 75
5, 1043520, Note_on_c, 3, 55, 75
5, 1043755, Note_off_c, 3, 55, 64
5, 1043755, Note_off_c, 3, 48, 64
5, 1043760, Note_on_c, 3, 48, 75
5, 1043760, Note_on_c, 3, 60, 75
5, 1043840, Note_off_c, 3, 60, 64
5, 1043840, Note_off_c, 3, 48, 64
5, 1044000, Note_on_c, 3, 52, 75
5, 1044000, Note_on_c, 3, 60, 75
5, 1044080, Note_off_c, 3, 60, 64
5, 1044080, Note_off_c, 3, 52, 64
5, 1044240, Note_on_c, 3, 52, 75
5, 1044240, Note_on_c, 3, 60, 75
5, 1044320, Note_off_c, 3, 60, 64
5, 1044320, Note_off_c, 3, 52, 64
5, 1044480, Note_on_c, 3, 52, 75
5, 1044480, Note_on_c, 3, 60, 75
5, 1044560, Note_off_c, 3, 60, 64
5, 1044560, Note_off_c, 3, 52, 64
5, 1044720, Note_on_c, 3, 52, 75
5, 1044720, Note_on_c, 3, 60, 75
5, 1044800, Note_off_c, 3, 60, 64
5, 1044800, Note_off_c, 3, 52, 64
5, 1044960, Note_on_c, 3, 60, 75
5, 1044960, Note_on_c, 3, 64, 75
5, 1045040, Note_off_c, 3, 64, 64
5, 1045040, Note_off_c, 3, 60, 64
5, 1045200, Note_on_c, 3, 60, 75
5, 1045200, Note_on_c, 3, 64, 75
5, 1045280, Note_off_c, 3, 64, 64
5, 1045280, Note_off_c, 3, 60, 64
5, 1045440, Note_on_c, 3, 60, 75
5, 1045440, Note_on_c, 3, 64, 75
5, 1045520, Note_off_c, 3, 64, 64
5, 1045520, Note_off_c, 3, 60, 64
5, 1045680, Note_on_c, 3, 60, 75
5, 1045680, Note_on_c, 3, 64, 75
5, 1045915, Note_off_c, 3, 64, 64
5, 1045915, Note_off_c, 3, 60, 64
5, 1046640, Note_on_c, 3, 48, 45
5, 1046875, Note_off_c, 3, 48, 64
5, 1060560, Note_on_c, 3, 45, 30
5, 1060560, Note_on_c, 3, 57, 30
5, 1061040, Note_off_c, 3, 57, 64
5, 1061040, Note_off_c, 3, 45, 64
5, 1061040, Note_on_c, 3, 50, 30
5, 1061040, Note_on_c, 3, 62, 30
5, 1061880, Note_off_c, 3, 62, 64
5, 1061880, Note_off_c, 3, 50, 64
5, 1062000, Note_on_c, 3, 50, 30
5, 1062000, Note_on_c, 3, 62, 30
5, 1063320, Note_off_c, 3, 62, 64
5, 1063320, Note_off_c, 3, 50, 64
5, 1063440, Note_on_c, 3, 50, 30
5, 1063440, Note_on_c, 3, 62, 30
5, 1067200, Note_off_c, 3, 62, 64
5, 1067280, Note_on_c, 3, 60, 59
5, 1067760, Note_off_c, 3, 60, 64
5, 1067760, Note_on_c, 3, 62, 63
5, 1068000, Note_off_c, 3, 62, 64
5, 1068000, Note_on_c, 3, 58, 65
5, 1068120, Note_off_c, 3, 50, 64
5, 1068240, Note_off_c, 3, 58, 64
5, 1068240, Note_on_c, 3, 50, 67
5, 1068240, Note_on_c, 3, 57, 67
5, 1068720, Note_off_c, 3, 57, 64
5, 1068720, Note_on_c, 3, 60, 71
5, 1069080, Note_off_c, 3, 50, 64
5, 1069120, Note_off_c, 3, 60, 64
5, 1069200, Note_on_c, 3, 46, 75
5, 1069200, Note_on_c, 3, 58, 75
5, 1069440, Note_off_c, 3, 58, 64
5, 1069440, Note_on_c, 3, 62, 75
5, 1069600, Note_off_c, 3, 46, 64
5, 1069680, Note_off_c, 3, 62, 64
5, 1069680, Note_on_c, 3, 48, 75
5, 1069680, Note_on_c, 3, 60, 75
5, 1070320, Note_off_c, 3, 60, 64
5, 1070320, Note_off_c, 3, 48, 64
5, 1073040, Note_on_c, 3, 48, 30
5, 1073760, Note_off_c, 3, 48, 64
5, 1076400, Note_on_c, 3, 48, 45
5, 1076880, Note_off_c, 3, 48, 64
5, 1076880, Note_on_c, 3, 53, 45
5, 1077840, Note_off_c, 3, 53, 64
5, 1077840, Note_on_c, 3, 57, 45
5, 1078320, Note_off_c, 3, 57, 64
5, 1078320, Note_on_c, 3, 60, 45
5, 1078800, Note_off_c, 3, 60, 64
5, 1078800, Note_on_c, 3, 57, 45
5, 1079280, Note_off_c, 3, 57, 64
5, 1079280, Note_on_c, 3, 57, 45
5, 1079760, Note_off_c, 3, 57, 64
5, 1079760, Note_on_c, 3, 60, 45
5, 1080240, Note_off_c, 3, 60, 64
5, 1080240, Note_on_c, 3, 64, 45
5, 1080720, Note_off_c, 3, 64, 64
5, 1080720, Note_on_c, 3, 58, 45
5, 1080720, Note_on_c, 3, 65, 45
5, 1080960, Note_off_c, 3, 65, 64
5, 1080960, Note_on_c, 3, 62, 45
5, 1081120, Note_off_c, 3, 58, 64
5, 1081200, Note_off_c, 3, 62, 64
5, 1081200, Note_on_c, 3, 57, 45
5, 1081200, Note_on_c, 3, 60, 45
5, 1082040, Note_off_c, 3, 60, 64
5, 1082040, Note_off_c, 3, 57, 64
5, 1082160, Note_on_c, 3, 55, 45
5, 1082160, Note_on_c, 3, 64, 45
5, 1082640, Note_off_c, 3, 64, 64
5, 1082640, Note_off_c, 3, 55, 64
5, 1082640, Note_on_c, 3, 57, 45
5, 1082640, Note_on_c, 3, 65, 45
5, 1083120, Note_off_c, 3, 65, 64
5, 1083120, Note_on_c, 3, 60, 45
5, 1083480, Note_off_c, 3, 57, 64
5, 1083600, Note_off_c, 3, 60, 64
5, 1083600, Note_on_c, 3, 62, 45
5, 1084080, Note_off_c, 3, 62, 64
5, 1084080, Note_on_c, 3, 57, 45
5, 1084080, Note_on_c, 3, 60, 45
5, 1084560, Note_off_c, 3, 60, 64
5, 1084560, Note_off_c, 3, 57, 64
5, 1084560, Note_on_c, 3, 53, 45
5, 1084560, Note_on_c, 3, 57, 45
5, 1085040, Note_off_c, 3, 57, 64
5, 1085040, Note_off_c, 3, 53, 64
5, 1085040, Note_on_c, 3, 55, 45
5, 1085040, Note_on_c, 3, 58, 45
5, 1085520, Note_off_c, 3, 58, 64
5, 1085520, Note_off_c, 3, 55, 64
5, 1085520, Note_on_c, 3, 53, 45
5, 1085520, Note_on_c, 3, 57, 45
5, 1086000, Note_off_c, 3, 57, 64
5, 1086000, Note_off_c, 3, 53, 64
5, 1086000, Note_on_c, 3, 53, 45
5, 1086000, Note_on_c, 3, 57, 45
5, 1086480, Note_off_c, 3, 57, 64
5, 1086480, Note_off_c, 3, 53, 64
5, 1086480, Note_on_c, 3, 48, 45
5, 1086480, Note_on_c, 3, 55, 45
5, 1086960, Note_off_c, 3, 55, 64
5, 1086960, Note_off_c, 3, 48, 64
5, 1086960, Note_on_c, 3, 53, 45
5, 1086960, Note_on_c, 3, 57, 45
5, 1087360, Note_off_c, 3, 57, 64
5, 1087360, Note_off_c, 3, 53, 64
5, 1093680, Note_on_c, 3, 48, 75
5, 1093800, Note_off_c, 3, 48, 64
5, 1094160, Note_on_c, 3, 53, 75
5, 1094280, Note_off_c, 3, 53, 64
5, 1094640, Note_on_c, 3, 48, 75
5, 1094760, Note_off_c, 3, 48, 64
5, 1095120, Note_on_c, 3, 50, 75
5, 1095240, Note_off_c, 3, 50, 64
5, 1095600, Note_on_c, 3, 48, 75
5, 1095720, Note_off_c, 3, 48, 64
5, 1096080, Note_on_c, 3, 45, 75
5, 1096200, Note_off_c, 3, 45, 64
5, 1096560, Note_on_c, 3, 46, 75
5, 1096680, Note_off_c, 3, 46, 64
5, 1097040, Note_on_c, 3, 45, 75
5, 1097440, Note_off_c, 3, 45, 64
5, 1097520, Note_on_c, 3, 41, 75
5, 1097520, Note_on_c, 3, 53, 75
5, 1097920, Note_off_c, 3, 53, 64
5, 1097920, Note_off_c, 3, 41, 64
5, 1098000, Note_on_c, 3, 43, 75
5, 1098000, Note_on_c, 3, 55, 75
5, 1098400, Note_off_c, 3, 55, 64
5, 1098400, Note_off_c, 3, 43, 64
5, 1098480, Note_on_c, 3, 45, 75
5, 1098480, Note_on_c, 3, 57, 75
5, 1098880, Note_off_c, 3, 57, 64
5, 1098880, Note_off_c, 3, 45, 64
5, 1098960, Note_on_c, 3, 41, 75
5, 1098960, Note_on_c, 3, 53, 75
5, 1099360, Note_off_c, 3, 53, 64
5, 1099360, Note_off_c, 3, 41, 64
5, 1099440, Note_on_c, 3, 43, 75
5, 1099440, Note_on_c, 3, 55, 75
5, 1099840, Note_off_c, 3, 55, 64
5, 1099840, Note_off_c, 3, 43, 64
5, 1099920, Note_on_c, 3, 45, 75
5, 1099920, Note_on_c, 3, 57, 75
5, 1100320, Note_off_c, 3, 57, 64
5, 1100320, Note_off_c, 3, 45, 64
5, 1100400, Note_on_c, 3, 41, 75
5, 1100400, Note_on_c, 3, 53, 75
5, 1100800, Note_off_c, 3, 53, 64
5, 1100800, Note_off_c, 3, 41, 64
5, 1100880, Note_on_c, 3, 43, 75
5, 1100880, Note_on_c, 3, 55, 75
5, 1101280, Note_off_c, 3, 55, 64
5, 1101280, Note_off_c, 3, 43, 64
5, 1101360, Note_on_c, 3, 45, 75
5, 1101360, Note_on_c, 3, 57, 75
5, 1101760, Note_off_c, 3, 57, 64
5, 1101760, Note_off_c, 3, 45, 64
5, 1101840, Note_on_c, 3, 41, 75
5, 1101840, Note_on_c, 3, 53, 75
5, 1102240, Note_off_c, 3, 53, 64
5, 1102240, Note_off_c, 3, 41, 64
5, 1102320, Note_on_c, 3, 43, 75
5, 1102320, Note_on_c, 3, 55, 75
5, 1102720, Note_off_c, 3, 55, 64
5, 1102720, Note_off_c, 3, 43, 64
5, 1102800, Note_on_c, 3, 45, 75
5, 1102800, Note_on_c, 3, 57, 75
5, 1104120, Note_off_c, 3, 57, 64
5, 1104120, Note_off_c, 3, 45, 64
5, 1104240, Note_on_c, 3, 43, 75
5, 1104240, Note_on_c, 3, 55, 75
5, 1105080, Note_off_c, 3, 55, 64
5, 1105080, Note_off_c, 3, 43, 64
5, 1105200, Note_on_c, 3, 41, 75
5, 1105200, Note_on_c, 3, 53, 75
5, 1105600, Note_off_c, 3, 53, 64
5, 1105600, Note_off_c, 3, 41, 64
5, 1105680, Note_on_c, 3, 40, 75
5, 1105680, Note_on_c, 3, 52, 75
5, 1106520, Note_off_c, 3, 52, 64
5, 1106520, Note_off_c, 3, 40, 64
5, 1106640, Note_on_c, 3, 38, 75
5, 1106640, Note_on_c, 3, 50, 75
5, 1107040, Note_off_c, 3, 50, 64
5, 1107040, Note_off_c, 3, 38, 64
5, 1107120, Note_on_c, 3, 36, 75
5, 1107120, Note_on_c, 3, 48, 75
5, 1107960, Note_off_c, 3, 48, 64
5, 1107960, Note_off_c, 3, 36, 64
5, 1108080, Note_on_c, 3, 46, 75
5, 1108080, Note_on_c, 3, 58, 75
5, 1108480, Note_off_c, 3, 58, 64
5, 1108480, Note_off_c, 3, 46, 64
5, 1108560, Note_on_c, 3, 45, 75
5, 1108560, Note_on_c, 3, 57, 75
5, 1109880, Note_off_c, 3, 57, 64
5, 1109880, Note_off_c, 3, 45, 64
5, 1110000, Note_on_c, 3, 46, 75
5, 1110000, Note_on_c, 3, 58, 75
5, 1111320, Note_off_c, 3, 58, 64
5, 1111320, Note_off_c, 3, 46, 64
5, 1111440, Note_on_c, 3, 48, 75
5, 1111440, Note_on_c, 3, 60, 75
5, 1112760, Note_off_c, 3, 60, 64
5, 1112760, Note_off_c, 3, 48, 64
5, 1112880, Note_on_c, 3, 36, 75
5, 1112880, Note_on_c, 3, 48, 75
5, 1114200, Note_off_c, 3, 48, 64
5, 1114200, Note_off_c, 3, 36, 64
5, 1114320, Note_on_c, 3, 41, 75
5, 1114320, Note_on_c, 3, 53, 75
5, 1114720, Note_off_c, 3, 53, 64
5, 1114720, Note_off_c, 3, 41, 64
5, 1115280, Note_on_c, 3, 45, 75
5, 1115280, Note_on_c, 3, 57, 75
5, 1115680, Note_off_c, 3, 57, 64
5, 1115680, Note_off_c, 3, 45, 64
5, 1115760, Note_on_c, 3, 43, 75
5, 1115760, Note_on_c, 3, 55, 75
5, 1116600, Note_off_c, 3, 55, 64
5, 1116600, Note_off_c, 3, 43, 64
5, 1116720, Note_on_c, 3, 41, 75
5, 1116720, Note_on_c, 3, 53, 75
5, 1117120, Note_off_c, 3, 53, 64
5, 1117120, Note_off_c, 3, 41, 64
5, 1117200, Note_on_c, 3, 40, 75
5, 1117200, Note_on_c, 3, 52, 75
5, 1118040, Note_off_c, 3, 52, 64
5, 1118040, Note_off_c, 3, 40, 64
5, 1118160, Note_on_c, 3, 38, 75
5, 1118160, Note_on_c, 3, 50, 75
5, 1118560, Note_off_c, 3, 50, 64
5, 1118560, Note_off_c, 3, 38, 64
5, 1118640, Note_on_c, 3, 36, 75
5, 1118640, Note_on_c, 3, 48, 75
5, 1119480, Note_off_c, 3, 48, 64
5, 1119480, Note_off_c, 3, 36, 64
5, 1119600, Note_on_c, 3, 46, 75
5, 1119600, Note_on_c, 3, 58, 75
5, 1120000, Note_off_c, 3, 58, 64
5, 1120000, Note_off_c, 3, 46, 64
5, 1120080, Note_on_c, 3, 45, 75
5, 1120080, Note_on_c, 3, 57, 75
5, 1121400, Note_off_c, 3, 57, 64
5, 1121400, Note_off_c, 3, 45, 64
5, 1121520, Note_on_c, 3, 46, 75
5, 1121520, Note_on_c, 3, 58, 75
5, 1122840, Note_off_c, 3, 58, 64
5, 1122840, Note_off_c, 3, 46, 64
5, 1122960, Note_on_c, 3, 48, 75
5, 1122960, Note_on_c, 3, 60, 75
5, 1124280, Note_off_c, 3, 60, 64
5, 1124280, Note_off_c, 3, 48, 64
5, 1124400, Note_on_c, 3, 36, 75
5, 1124400, Note_on_c, 3, 48, 75
5, 1125720, Note_off_c, 3, 48, 64
5, 1125720, Note_off_c, 3, 36, 64
5, 1125840, Note_on_c, 3, 41, 75
5, 1125840, Note_on_c, 3, 53, 75
5, 1126240, Note_off_c, 3, 53, 64
5, 1126240, Note_off_c, 3, 41, 64
5, 1126320, Note_on_c, 3, 53, 75
5, 1126320, Note_on_c, 3, 57, 75
5, 1126720, Note_off_c, 3, 57, 64
5, 1126720, Note_off_c, 3, 53, 64
5, 1126800, Note_on_c, 3, 53, 75
5, 1126800, Note_on_c, 3, 57, 75
5, 1127200, Note_off_c, 3, 57, 64
5, 1127200, Note_off_c, 3, 53, 64
5, 1127280, Note_on_c, 3, 57, 75
5, 1127280, Note_on_c, 3, 60, 75
5, 1127680, Note_off_c, 3, 60, 64
5, 1127680, Note_off_c, 3, 57, 64
5, 1127760, Note_on_c, 3, 53, 75
5, 1127760, Note_on_c, 3, 57, 75
5, 1128160, Note_off_c, 3, 57, 64
5, 1128160, Note_off_c, 3, 53, 64
5, 1128240, Note_on_c, 3, 53, 75
5, 1128240, Note_on_c, 3, 57, 75
5, 1128640, Note_off_c, 3, 57, 64
5, 1128640, Note_off_c, 3, 53, 64
5, 1128720, Note_on_c, 3, 57, 75
5, 1128720, Note_on_c, 3, 60, 75
5, 1129120, Note_off_c, 3, 60, 64
5, 1129120, Note_off_c, 3, 57, 64
5, 1129200, Note_on_c, 3, 53, 75
5, 1129200, Note_on_c, 3, 57, 75
5, 1129600, Note_off_c, 3, 57, 64
5, 1129600, Note_off_c, 3, 53, 64
5, 1129680, Note_on_c, 3, 53, 75
5, 1129680, Note_on_c, 3, 57, 75
5, 1130080, Note_off_c, 3, 57, 64
5, 1130080, Note_off_c, 3, 53, 64
5, 1130160, Note_on_c, 3, 55, 75
5, 1130160, Note_on_c, 3, 58, 75
5, 1130560, Note_off_c, 3, 58, 64
5, 1130560, Note_off_c, 3, 55, 64
5, 1130640, Note_on_c, 3, 48, 75
5, 1130640, Note_on_c, 3, 55, 75
5, 1131040, Note_off_c, 3, 55, 64
5, 1131040, Note_off_c, 3, 48, 64
5, 1131120, Note_on_c, 3, 48, 75
5, 1131120, Note_on_c, 3, 55, 75
5, 1131520, Note_off_c, 3, 55, 64
5, 1131520, Note_off_c, 3, 48, 64
5, 1131600, Note_on_c, 3, 57, 75
5, 1131600, Note_on_c, 3, 60, 75
5, 1132000, Note_off_c, 3, 60, 64
5, 1132000, Note_off_c, 3, 57, 64
5, 1132080, Note_on_c, 3, 53, 75
5, 1132080, Note_on_c, 3, 57, 75
5, 1132480, Note_off_c, 3, 57, 64
5, 1132480, Note_off_c, 3, 53, 64
5, 1132560, Note_on_c, 3, 53, 75
5, 1132560, Note_on_c, 3, 57, 75
5, 1132960, Note_off_c, 3, 57, 64
5, 1132960, Note_off_c, 3, 53, 64
5, 1133040, Note_on_c, 3, 57, 75
5, 1133040, Note_on_c, 3, 60, 75
5, 1133440, Note_off_c, 3, 60, 64
5, 1133440, Note_off_c, 3, 57, 64
5, 1133520, Note_on_c, 3, 53, 75
5, 1133520, Note_on_c, 3, 57, 75
5, 1133920, Note_off_c, 3, 57, 64
5, 1133920, Note_off_c, 3, 53, 64
5, 1134000, Note_on_c, 3, 53, 75
5, 1134000, Note_on_c, 3, 57, 75
5, 1134400, Note_off_c, 3, 57, 64
5, 1134400, Note_off_c, 3, 53, 64
5, 1134480, Note_on_c, 3, 57, 75
5, 1134480, Note_on_c, 3, 60, 75
5, 1134880, Note_off_c, 3, 60, 64
5, 1134880, Note_off_c, 3, 57, 64
5, 1134960, Note_on_c, 3, 53, 75
5, 1134960, Note_on_c, 3, 57, 75
5, 1135360, Note_off_c, 3, 57, 64
5, 1135360, Note_off_c, 3, 53, 64
5, 1135440, Note_on_c, 3, 53, 75
5, 1135440, Note_on_c, 3, 57, 75
5, 1135840, Note_off_c, 3, 57, 64
5, 1135840, Note_off_c, 3, 53, 64
5, 1135920, Note_on_c, 3, 55, 75
5, 1135920, Note_on_c, 3, 58, 75
5, 1136320, Note_off_c, 3, 58, 64
5, 1136320, Note_off_c, 3, 55, 64
5, 1136400, Note_on_c, 3, 48, 75
5, 1136400, Note_on_c, 3, 55, 75
5, 1136800, Note_off_c, 3, 55, 64
5, 1136800, Note_off_c, 3, 48, 64
5, 1136880, Note_on_c, 3, 48, 75
5, 1136880, Note_on_c, 3, 55, 75
5, 1137280, Note_off_c, 3, 55, 64
5, 1137280, Note_off_c, 3, 48, 64
5, 1173840, Note_on_c, 3, 61, 45
5, 1177560, Note_off_c, 3, 61, 64
5, 1177680, Note_on_c, 3, 56, 75
5, 1177680, Note_on_c, 3, 60, 75
5, 1181400, Note_off_c, 3, 60, 64
5, 1181400, Note_off_c, 3, 56, 64
5, 1181520, Note_on_c, 3, 56, 75
5, 1181520, Note_on_c, 3, 60, 75
5, 1185240, Note_off_c, 3, 60, 64
5, 1185240, Note_off_c, 3, 56, 64
5, 1185360, Note_on_c, 3, 43, 75
5, 1185360, Note_on_c, 3, 55, 75
5, 1189080, Note_off_c, 3, 55, 64
5, 1189080, Note_off_c, 3, 43, 64
5, 1189200, Note_on_c, 3, 43, 75
5, 1189200, Note_on_c, 3, 55, 75
5, 1192920, Note_off_c, 3, 55, 64
5, 1192920, Note_off_c, 3, 43, 64
5, 1193040, Note_on_c, 3, 57, 75
5, 1193040, Note_on_c, 3, 60, 75
5, 1196760, Note_off_c, 3, 60, 64
5, 1196760, Note_off_c, 3, 57, 64
5, 1196880, Note_on_c, 3, 45, 75
5, 1196880, Note_on_c, 3, 57, 75
5, 1200600, Note_off_c, 3, 57, 64
5, 1200600, Note_off_c, 3, 45, 64
5, 1200720, Note_on_c, 3, 58, 75
5, 1200720, Note_on_c, 3, 61, 75
5, 1200955, Note_off_c, 3, 61, 64
5, 1200955, Note_off_c, 3, 58, 64
5, 1201200, Note_on_c, 3, 58, 75
5, 1201200, Note_on_c, 3, 61, 75
5, 1201435, Note_off_c, 3, 61, 64
5, 1201435, Note_off_c, 3, 58, 64
5, 1202640, Note_on_c, 3, 59, 75
5, 1202640, Note_on_c, 3, 62, 75
5, 1202875, Note_off_c, 3, 62, 64
5, 1202875, Note_off_c, 3, 59, 64
5, 1203120, Note_on_c, 3, 59, 75
5, 1203120, Note_on_c, 3, 62, 75
5, 1203355, Note_off_c, 3, 62, 64
5, 1203355, Note_off_c, 3, 59, 64
5, 1204560, Note_on_c, 3, 60, 75
5, 1204560, Note_on_c, 3, 64, 75
5, 1204960, Note_off_c, 3, 64, 64
5, 1204960, Note_off_c, 3, 60, 64
5, 1205520, Note_on_c, 3, 60, 75
5, 1206160, Note_off_c, 3, 60, 64
5, 1206240, Note_on_c, 3, 55, 75
5, 1206320, Note_off_c, 3, 55, 64
5, 1206480, Note_on_c, 3, 56, 75
5, 1206560, Note_off_c, 3, 56, 64
5, 1206720, Note_on_c, 3, 52, 75
5, 1206800, Note_off_c, 3, 52, 64
5, 1206960, Note_on_c, 3, 53, 75
5, 1207040, Note_off_c, 3, 53, 64
5, 1207200, Note_on_c, 3, 48, 75
5, 1207280, Note_off_c, 3, 48, 64
5, 1207440, Note_on_c, 3, 49, 75
5, 1207520, Note_off_c, 3, 49, 64
5, 1207680, Note_on_c, 3, 48, 75
5, 1207760, Note_off_c, 3, 48, 64
5, 1207920, Note_on_c, 3, 48, 75
5, 1208000, Note_off_c, 3, 48, 64
5, 1208160, Note_on_c, 3, 46, 75
5, 1208240, Note_off_c, 3, 46, 64
5, 1208400, Note_on_c, 3, 41, 75
5, 1208800, Note_off_c, 3, 41, 64
5, 1209360, Note_on_c, 3, 44, 75
5, 1209360, Note_on_c, 3, 56, 75
5, 1210720, Note_off_c, 3, 56, 64
5, 1210720, Note_off_c, 3, 44, 64
5, 1212240, Note_on_c, 3, 53, 75
5, 1212240, Note_on_c, 3, 65, 75
5, 1212640, Note_off_c, 3, 65, 64
5, 1212640, Note_off_c, 3, 53, 64
5, 1213200, Note_on_c, 3, 53, 105
5, 1213200, Note_on_c, 3, 65, 105
5, 1213840, Note_off_c, 3, 65, 64
5, 1213840, Note_off_c, 3, 53, 64
5, 1213920, Note_on_c, 3, 48, 75
5, 1213920, Note_on_c, 3, 60, 75
5, 1214000, Note_off_c, 3, 60, 64
5, 1214000, Note_off_c, 3, 48, 64
5, 1214160, Note_on_c, 3, 49, 75
5, 1214160, Note_on_c, 3, 61, 75
5, 1214240, Note_off_c, 3, 61, 64
5, 1214240, Note_off_c, 3, 49, 64
5, 1214400, Note_on_c, 3, 44, 75
5, 1214400, Note_on_c, 3, 56, 75
5, 1214480, Note_off_c, 3, 56, 64
5, 1214480, Note_off_c, 3, 44, 64
5, 1214640, Note_on_c, 3, 46, 60
5, 1214640, Note_on_c, 3, 58, 60
5, 1214720, Note_off_c, 3, 58, 64
5, 1214720, Note_off_c, 3, 46, 64
5, 1214880, Note_on_c, 3, 53, 60
5, 1214960, Note_off_c, 3, 53, 64
5, 1215120, Note_on_c, 3, 54, 60
5, 1215200, Note_off_c, 3, 54, 64
5, 1215360, Note_on_c, 3, 53, 60
5, 1215440, Note_off_c, 3, 53, 64
5, 1215600, Note_on_c, 3, 53, 60
5, 1215680, Note_off_c, 3, 53, 64
5, 1215840, Note_on_c, 3, 51, 60
5, 1215920, Note_off_c, 3, 51, 64
5, 1216080, Note_on_c, 3, 49, 30
5, 1216480, Note_off_c, 3, 49, 64
5, 1220400, Note_on_c, 3, 61, 127
5, 1220400, Note_on_c, 3, 65, 127
5, 1220635, Note_off_c, 3, 65, 64
5, 1220635, Note_off_c, 3, 61, 64
5, 1228080, Note_on_c, 3, 59, 127
5, 1228080, Note_on_c, 3, 62, 127
5, 1228315, Note_off_c, 3, 62, 64
5, 1228315, Note_off_c, 3, 59, 64
5, 1235760, Note_on_c, 3, 57, 92
5, 1235760, Note_on_c, 3, 60, 92
5, 1235995, Note_off_c, 3, 60, 64
5, 1235995, Note_off_c, 3, 57, 64
5, 1237680, Note_on_c, 3, 57, 92
5, 1237680, Note_on_c, 3, 60, 92
5, 1237915, Note_off_c, 3, 60, 64
5, 1237915, Note_off_c, 3, 57, 64
5, 1239120, Note_on_c, 3, 46, 92
5, 1240920, Note_off_c, 3, 46, 64
5, 1241040, Note_on_c, 3, 47, 92
5, 1242840, Note_off_c, 3, 47, 64
5, 1242960, Note_on_c, 3, 48, 92
5, 1243920, Note_off_c, 3, 48, 64
5, 1243920, Note_on_c, 3, 46, 92
5, 1244760, Note_off_c, 3, 46, 64
5, 1244880, Note_on_c, 3, 45, 45
5, 1248600, Note_off_c, 3, 45, 64
5, 1248720, Note_on_c, 3, 43, 30
5, 1248720, Note_on_c, 3, 58, 30
5, 1252440, Note_off_c, 3, 58, 64
5, 1252440, Note_off_c, 3, 43, 64
5, 1252560, Note_on_c, 3, 40, 30
5, 1252560, Note_on_c, 3, 55, 30
5, 1256280, Note_off_c, 3, 55, 64
5, 1256280, Note_off_c, 3, 40, 64
5, 1264560, Note_on_c, 3, 54, 30
5, 1264560, Note_on_c, 3, 57, 30
5, 1264795, Note_off_c, 3, 57, 64
5, 1264795, Note_off_c, 3, 54, 64
5, 1264800, Note_on_c, 3, 54, 30
5, 1264800, Note_on_c, 3, 57, 30
5, 1265035, Note_off_c, 3, 57, 64
5, 1265035, Note_off_c, 3, 54, 64
5, 1265040, Note_on_c, 3, 54, 30
5, 1265040, Note_on_c, 3, 57, 30
5, 1265440, Note_off_c, 3, 57, 64
5, 1265440, Note_off_c, 3, 54, 64
5, 1265520, Note_on_c, 3, 54, 30
5, 1265520, Note_on_c, 3, 57, 30
5, 1265920, Note_off_c, 3, 57, 64
5, 1265920, Note_off_c, 3, 54, 64
5, 1266480, Note_on_c, 3, 54, 30
5, 1266480, Note_on_c, 3, 57, 30
5, 1266715, Note_off_c, 3, 57, 64
5, 1266715, Note_off_c, 3, 54, 64
5, 1266720, Note_on_c, 3, 54, 30
5, 1266720, Note_on_c, 3, 57, 30
5, 1266955, Note_off_c, 3, 57, 64
5, 1266955, Note_off_c, 3, 54, 64
5, 1266960, Note_on_c, 3, 54, 30
5, 1266960, Note_on_c, 3, 57, 30
5, 1267360, Note_off_c, 3, 57, 64
5, 1267360, Note_off_c, 3, 54, 64
5, 1267440, Note_on_c, 3, 54, 30
5, 1267440, Note_on_c, 3, 57, 30
5, 1267840, Note_off_c, 3, 57, 64
5, 1267840, Note_off_c, 3, 54, 64
5, 1267920, Note_on_c, 3, 48, 30
5, 1271640, Note_off_c, 3, 48, 64
5, 1272240, Note_on_c, 3, 60, 30
5, 1272240, Note_on_c, 3, 63, 30
5, 1272320, Note_off_c, 3, 63, 64
5, 1272320, Note_off_c, 3, 60, 64
5, 1272480, Note_on_c, 3, 60, 30
5, 1272480, Note_on_c, 3, 63, 30
5, 1272560, Note_off_c, 3, 63, 64
5, 1272560, Note_off_c, 3, 60, 64
5, 1272720, Note_on_c, 3, 60, 30
5, 1272720, Note_on_c, 3, 63, 30
5, 1272800, Note_off_c, 3, 63, 64
5, 1272800, Note_off_c, 3, 60, 64
5, 1272960, Note_on_c, 3, 60, 30
5, 1272960, Note_on_c, 3, 63, 30
5, 1273040, Note_off_c, 3, 63, 64
5, 1273040, Note_off_c, 3, 60, 64
5, 1273200, Note_on_c, 3, 60, 30
5, 1273200, Note_on_c, 3, 63, 30
5, 1273600, Note_off_c, 3, 63, 64
5, 1273600, Note_off_c, 3, 60, 64
5, 1274160, Note_on_c, 3, 60, 30
5, 1274160, Note_on_c, 3, 63, 30
5, 1274240, Note_off_c, 3, 63, 64
5, 1274240, Note_off_c, 3, 60, 64
5, 1274400, Note_on_c, 3, 60, 30
5, 1274400, Note_on_c, 3, 63, 30
5, 1274480, Note_off_c, 3, 63, 64
5, 1274480, Note_off_c, 3, 60, 64
5, 1274640, Note_on_c, 3, 60, 30
5, 1274640, Note_on_c, 3, 63, 30
5, 1274720, Note_off_c, 3, 63, 64
5, 1274720, Note_off_c, 3, 60, 64
5, 1274880, Note_on_c, 3, 60, 30
5, 1274880, Note_on_c, 3, 63, 30
5, 1274960, Note_off_c, 3, 63, 64
5, 1274960, Note_off_c, 3, 60, 64
5, 1275120, Note_on_c, 3, 60, 30
5, 1275120, Note_on_c, 3, 63, 30
5, 1275520, Note_off_c, 3, 63, 64
5, 1275520, Note_off_c, 3, 60, 64
5, 1276080, Note_on_c, 3, 54, 45
5, 1276560, Note_off_c, 3, 54, 64
5, 1276560, Note_on_c, 3, 57, 47
5, 1277400, Note_off_c, 3, 57, 64
5, 1279920, Note_on_c, 3, 54, 60
5, 1280400, Note_off_c, 3, 54, 64
5, 1280400, Note_on_c, 3, 58, 61
5, 1281240, Note_off_c, 3, 58, 64
5, 1283760, Note_on_c, 3, 56, 68
5, 1284240, Note_off_c, 3, 56, 64
5, 1284240, Note_on_c, 3, 59, 69
5, 1285080, Note_off_c, 3, 59, 64
5, 1287120, Note_on_c, 3, 55, 75
5, 1287120, Note_on_c, 3, 67, 75
5, 1287520, Note_off_c, 3, 67, 64
5, 1287520, Note_off_c, 3, 55, 64
5, 1287600, Note_on_c, 3, 55, 75
5, 1287600, Note_on_c, 3, 67, 75
5, 1289440, Note_off_c, 3, 67, 64
5, 1289440, Note_off_c, 3, 55, 64
5, 1289520, Note_on_c, 3, 55, 75
5, 1289520, Note_on_c, 3, 67, 75
5, 1291360, Note_off_c, 3, 67, 64
5, 1291360, Note_off_c, 3, 55, 64
5, 1291440, Note_on_c, 3, 55, 75
5, 1291440, Note_on_c, 3, 67, 75
5, 1292760, Note_off_c, 3, 67, 64
5, 1292760, Note_off_c, 3, 55, 64
5, 1292880, Note_on_c, 3, 56, 75
5, 1292880, Note_on_c, 3, 68, 75
5, 1293280, Note_off_c, 3, 68, 64
5, 1293280, Note_off_c, 3, 56, 64
5, 1293360, Note_on_c, 3, 56, 75
5, 1293360, Note_on_c, 3, 68, 75
5, 1295200, Note_off_c, 3, 68, 64
5, 1295200, Note_off_c, 3, 56, 64
5, 1295280, Note_on_c, 3, 56, 75
5, 1295280, Note_on_c, 3, 68, 75
5, 1297120, Note_off_c, 3, 68, 64
5, 1297120, Note_off_c, 3, 56, 64
5, 1297200, Note_on_c, 3, 56, 75
5, 1297200, Note_on_c, 3, 68, 75
5, 1299040, Note_off_c, 3, 68, 64
5, 1299040, Note_off_c, 3, 56, 64
5, 1299120, Note_on_c, 3, 56, 75
5, 1299120, Note_on_c, 3, 68, 75
5, 1299960, Note_off_c, 3, 68, 64
5, 1299960, Note_off_c, 3, 56, 64
5, 1300080, Note_on_c, 3, 57, 75
5, 1300480, Note_off_c, 3, 57, 64
5, 1300560, Note_on_c, 3, 46, 75
5, 1300560, Note_on_c, 3, 58, 75
5, 1300960, Note_off_c, 3, 58, 64
5, 1300960, Note_off_c, 3, 46, 64
5, 1301040, Note_on_c, 3, 46, 75
5, 1301040, Note_on_c, 3, 58, 75
5, 1302880, Note_off_c, 3, 58, 64
5, 1302880, Note_off_c, 3, 46, 64
5, 1302960, Note_on_c, 3, 46, 75
5, 1302960, Note_on_c, 3, 58, 75
5, 1304800, Note_off_c, 3, 58, 64
5, 1304800, Note_off_c, 3, 46, 64
5, 1304880, Note_on_c, 3, 46, 75
5, 1304880, Note_on_c, 3, 58, 75
5, 1306720, Note_off_c, 3, 58, 64
5, 1306720, Note_off_c, 3, 46, 64
5, 1306800, Note_on_c, 3, 58, 75
5, 1307640, Note_off_c, 3, 58, 64
5, 1307760, Note_on_c, 3, 60, 75
5, 1308160, Note_off_c, 3, 60, 64
5, 1308240, Note_on_c, 3, 61, 75
5, 1308880, Note_off_c, 3, 61, 64
5, 1308960, Note_on_c, 3, 61, 75
5, 1308960, Note_on_c, 3, 65, 75
5, 1309195, Note_off_c, 3, 65, 64
5, 1309195, Note_off_c, 3, 61, 64
5, 1309200, Note_on_c, 3, 61, 75
5, 1309200, Note_on_c, 3, 65, 75
5, 1310560, Note_off_c, 3, 65, 64
5, 1310560, Note_off_c, 3, 61, 64
5, 1312080, Note_on_c, 3, 58, 75
5, 1312080, Note_on_c, 3, 61, 75
5, 1312720, Note_off_c, 3, 61, 64
5, 1312720, Note_off_c, 3, 58, 64
5, 1312800, Note_on_c, 3, 58, 75
5, 1312800, Note_on_c, 3, 61, 75
5, 1313035, Note_off_c, 3, 61, 64
5, 1313035, Note_off_c, 3, 58, 64
5, 1313040, Note_on_c, 3, 58, 75
5, 1313040, Note_on_c, 3, 61, 75
5, 1314400, Note_off_c, 3, 61, 64
5, 1314400, Note_off_c, 3, 58, 64
5, 1315920, Note_on_c, 3, 58, 75
5, 1315920, Note_on_c, 3, 61, 75
5, 1316560, Note_off_c, 3, 61, 64
5, 1316560, Note_off_c, 3, 58, 64
5, 1316640, Note_on_c, 3, 54, 75
5, 1316640, Note_on_c, 3, 66, 75
5, 1316875, Note_off_c, 3, 66, 64
5, 1316875, Note_off_c, 3, 54, 64
5, 1316880, Note_on_c, 3, 54, 75
5, 1316880, Note_on_c, 3, 66, 75
5, 1319520, Note_off_c, 3, 66, 64
5, 1319520, Note_off_c, 3, 54, 64
5, 1319520, Note_on_c, 3, 55, 75
5, 1319520, Note_on_c, 3, 67, 75
5, 1319755, Note_off_c, 3, 67, 64
5, 1319755, Note_off_c, 3, 55, 64
5, 1319760, Note_on_c, 3, 55, 75
5, 1319760, Note_on_c, 3, 67, 75
5, 1320000, Note_off_c, 3, 67, 64
5, 1320000, Note_on_c, 3, 66, 75
5, 1320160, Note_off_c, 3, 55, 64
5, 1320240, Note_off_c, 3, 66, 64
5, 1320240, Note_on_c, 3, 67, 30
5, 1323600, Note_on_c, 3, 40, 30
5, 1327320, Note_off_c, 3, 40, 64
5, 1327440, Note_on_c, 3, 40, 92
5, 1327675, Note_off_c, 3, 67, 64
5, 1327680, Note_on_c, 3, 66, 92
5, 1327840, Note_off_c, 3, 40, 64
5, 1327920, Note_off_c, 3, 66, 64
5, 1327920, Note_on_c, 3, 67, 45
5, 1331280, Note_on_c, 3, 40, 75
5, 1335000, Note_off_c, 3, 40, 64
5, 1335120, Note_on_c, 3, 40, 92
5, 1335355, Note_off_c, 3, 67, 64
5, 1335360, Note_on_c, 3, 66, 92
5, 1335520, Note_off_c, 3, 40, 64
5, 1335600, Note_off_c, 3, 66, 64
5, 1335600, Note_on_c, 3, 67, 92
5, 1337040, Note_on_c, 3, 51, 92
5, 1337275, Note_off_c, 3, 67, 64
5, 1337280, Note_on_c, 3, 66, 92
5, 1337440, Note_off_c, 3, 51, 64
5, 1337520, Note_off_c, 3, 66, 64
5, 1337520, Note_on_c, 3, 67, 92
5, 1338960, Note_on_c, 3, 50, 92
5, 1339195, Note_off_c, 3, 67, 64
5, 1339200, Note_on_c, 3, 67, 92
5, 1339360, Note_off_c, 3, 50, 64
5, 1339440, Note_off_c, 3, 67, 64
5, 1339440, Note_on_c, 3, 68, 92
5, 1340880, Note_on_c, 3, 49, 92
5, 1341115, Note_off_c, 3, 68, 64
5, 1341120, Note_on_c, 3, 67, 92
5, 1341280, Note_off_c, 3, 49, 64
5, 1341360, Note_off_c, 3, 67, 64
5, 1341360, Note_on_c, 3, 48, 92
5, 1341360, Note_on_c, 3, 68, 92
5, 1341760, Note_off_c, 3, 68, 64
5, 1341760, Note_off_c, 3, 48, 64
5, 1341840, Note_on_c, 3, 69, 92
5, 1342010, Note_off_c, 3, 69, 64
5, 1342080, Note_on_c, 3, 68, 92
5, 1342160, Note_off_c, 3, 68, 64
5, 1342320, Note_on_c, 3, 54, 75
5, 1342320, Note_on_c, 3, 66, 75
5, 1350360, Note_off_c, 3, 66, 64
5, 1350360, Note_off_c, 3, 54, 64
5, 1350480, Note_on_c, 3, 57, 75
5, 1350480, Note_on_c, 3, 60, 75
5, 1352400, Note_off_c, 3, 60, 64
5, 1352400, Note_off_c, 3, 57, 64
5, 1352400, Note_on_c, 3, 57, 105
5, 1352400, Note_on_c, 3, 60, 105
5, 1354200, Note_off_c, 3, 60, 64
5, 1354200, Note_off_c, 3, 57, 64
5, 1354320, Note_on_c, 3, 58, 75
5, 1354320, Note_on_c, 3, 61, 75
5, 1356240, Note_off_c, 3, 61, 64
5, 1356240, Note_off_c, 3, 58, 64
5, 1356240, Note_on_c, 3, 55, 105
5, 1356240, Note_on_c, 3, 58, 105
5, 1358040, Note_off_c, 3, 58, 64
5, 1358040, Note_off_c, 3, 55, 64
5, 1358160, Note_on_c, 3, 57, 75
5, 1358160, Note_on_c, 3, 60, 75
5, 1359120, Note_off_c, 3, 60, 64
5, 1359120, Note_off_c, 3, 57, 64
5, 1359120, Note_on_c, 3, 45, 75
5, 1359120, Note_on_c, 3, 57, 75
5, 1361880, Note_off_c, 3, 57, 64
5, 1361880, Note_off_c, 3, 45, 64
5, 1362000, Note_on_c, 3, 46, 75
5, 1362000, Note_on_c, 3, 58, 75
5, 1365720, Note_off_c, 3, 58, 64
5, 1365720, Note_off_c, 3, 46, 64
5, 1365840, Note_on_c, 3, 41, 45
5, 1365840, Note_on_c, 3, 53, 45
5, 1366240, Note_off_c, 3, 53, 64
5, 1366240, Note_off_c, 3, 41, 64
5, 1366320, Note_on_c, 3, 53, 92
5, 1366320, Note_on_c, 3, 65, 92
5, 1368160, Note_off_c, 3, 65, 64
5, 1368160, Note_off_c, 3, 53, 64
5, 1368240, Note_on_c, 3, 53, 92
5, 1368240, Note_on_c, 3, 65, 92
5, 1370080, Note_off_c, 3, 65, 64
5, 1370080, Note_off_c, 3, 53, 64
5, 1370160, Note_on_c, 3, 53, 75
5, 1370160, Note_on_c, 3, 65, 75
5, 1371000, Note_off_c, 3, 65, 64
5, 1371000, Note_off_c, 3, 53, 64
5, 1371120, Note_on_c, 3, 54, 75
5, 1371120, Note_on_c, 3, 66, 75
5, 1371600, Note_off_c, 3, 66, 64
5, 1371600, Note_off_c, 3, 54, 64
5, 1371600, Note_on_c, 3, 55, 75
5, 1371600, Note_on_c, 3, 67, 75
5, 1372000, Note_off_c, 3, 67, 64
5, 1372000, Note_off_c, 3, 55, 64
5, 1413840, Note_on_c, 3, 48, 30
5, 1413840, Note_on_c, 3, 60, 30
5, 1422480, Note_off_c, 3, 60, 64
5, 1422480, Note_off_c, 3, 48, 64
5, 1422480, Note_on_c, 3, 48, 30
5, 1422480, Note_on_c, 3, 60, 30
5, 1423440, Note_off_c, 3, 60, 64
5, 1423440, Note_off_c, 3, 48, 64
5, 1423440, Note_on_c, 3, 47, 30
5, 1423440, Note_on_c, 3, 59, 30
5, 1425360, Note_off_c, 3, 59, 64
5, 1425360, Note_off_c, 3, 47, 64
5, 1425360, Note_on_c, 3, 48, 30
5, 1425360, Note_on_c, 3, 60, 30
5, 1429200, Note_off_c, 3, 60, 64
5, 1429200, Note_off_c, 3, 48, 64
5, 1429200, Note_on_c, 3, 48, 30
5, 1429200, Note_on_c, 3, 60, 30
5, 1430160, Note_off_c, 3, 60, 64
5, 1430160, Note_off_c, 3, 48, 64
5, 1430160, Note_on_c, 3, 48, 30
5, 1430160, Note_on_c, 3, 60, 30
5, 1431120, Note_off_c, 3, 60, 64
5, 1431120, Note_off_c, 3, 48, 64
5, 1431120, Note_on_c, 3, 48, 30
5, 1431120, Note_on_c, 3, 60, 30
5, 1432080, Note_off_c, 3, 60, 64
5, 1432080, Note_off_c, 3, 48, 64
5, 1432080, Note_on_c, 3, 48, 30
5, 1432080, Note_on_c, 3, 60, 30
5, 1433040, Note_off_c, 3, 60, 64
5, 1433040, Note_off_c, 3, 48, 64
5, 1433040, Note_on_c, 3, 43, 30
5, 1433040, Note_on_c, 3, 55, 30
5, 1436880, Note_off_c, 3, 55, 64
5, 1436880, Note_off_c, 3, 43, 64
5, 1436880, Note_on_c, 3, 48, 30
5, 1436880, Note_on_c, 3, 52, 30
5, 1437280, Note_off_c, 3, 52, 64
5, 1437280, Note_off_c, 3, 48, 64
5, 1448460, Note_on_c, 3, 53, 30
5, 1448460, Note_on_c, 3, 57, 30
5, 1452780, Note_off_c, 3, 57, 64
5, 1452780, Note_off_c, 3, 53, 64
5, 1452780, Note_on_c, 3, 50, 30
5, 1452780, Note_on_c, 3, 53, 30
5, 1453980, Note_off_c, 3, 53, 64
5, 1453980, Note_off_c, 3, 50, 64
5, 1453980, Note_on_c, 3, 52, 30
5, 1453980, Note_on_c, 3, 55, 30
5, 1454220, Note_off_c, 3, 55, 64
5, 1454220, Note_off_c, 3, 52, 64
5, 1454220, Note_on_c, 3, 52, 30
5, 1454220, Note_on_c, 3, 55, 30
5, 1455660, Note_off_c, 3, 55, 64
5, 1455660, Note_off_c, 3, 52, 64
5, 1455660, Note_on_c, 3, 53, 30
5, 1455660, Note_on_c, 3, 57, 30
5, 1457100, Note_off_c, 3, 57, 64
5, 1457100, Note_on_c, 3, 55, 30
5, 1457820, Note_off_c, 3, 53, 64
5, 1457820, Note_off_c, 3, 55, 64
5, 1457820, Note_on_c, 3, 52, 30
5, 1457820, Note_on_c, 3, 55, 30
5, 1458540, Note_off_c, 3, 55, 64
5, 1458540, Note_off_c, 3, 52, 64
5, 1458540, Note_on_c, 3, 53, 30
5, 1458540, Note_on_c, 3, 57, 30
5, 1459860, Note_off_c, 3, 57, 64
5, 1459860, Note_off_c, 3, 53, 64
5, 1459980, Note_on_c, 3, 53, 30
5, 1459980, Note_on_c, 3, 57, 30
5, 1460215, Note_off_c, 3, 57, 64
5, 1460215, Note_off_c, 3, 53, 64
5, 1460220, Note_on_c, 3, 53, 31
5, 1460220, Note_on_c, 3, 57, 31
5, 1460455, Note_off_c, 3, 57, 64
5, 1460455, Note_off_c, 3, 53, 64
5, 1460460, Note_on_c, 3, 53, 32
5, 1460460, Note_on_c, 3, 57, 32
5, 1460695, Note_off_c, 3, 57, 64
5, 1460695, Note_off_c, 3, 53, 64
5, 1460700, Note_on_c, 3, 53, 33
5, 1460700, Note_on_c, 3, 57, 33
5, 1460935, Note_off_c, 3, 57, 64
5, 1460935, Note_off_c, 3, 53, 64
5, 1460940, Note_on_c, 3, 53, 34
5, 1460940, Note_on_c, 3, 57, 34
5, 1461175, Note_off_c, 3, 57, 64
5, 1461175, Note_off_c, 3, 53, 64
5, 1461180, Note_on_c, 3, 53, 35
5, 1461180, Note_on_c, 3, 57, 35
5, 1461415, Note_off_c, 3, 57, 64
5, 1461415, Note_off_c, 3, 53, 64
5, 1461420, Note_on_c, 3, 53, 36
5, 1461420, Note_on_c, 3, 57, 36
5, 1461655, Note_off_c, 3, 57, 64
5, 1461655, Note_off_c, 3, 53, 64
5, 1461660, Note_on_c, 3, 53, 37
5, 1461660, Note_on_c, 3, 57, 37
5, 1461895, Note_off_c, 3, 57, 64
5, 1461895, Note_off_c, 3, 53, 64
5, 1461900, Note_on_c, 3, 53, 38
5, 1461900, Note_on_c, 3, 57, 38
5, 1462135, Note_off_c, 3, 57, 64
5, 1462135, Note_off_c, 3, 53, 64
5, 1462140, Note_on_c, 3, 53, 39
5, 1462140, Note_on_c, 3, 57, 39
5, 1462375, Note_off_c, 3, 57, 64
5, 1462375, Note_off_c, 3, 53, 64
5, 1462380, Note_on_c, 3, 53, 40
5, 1462380, Note_on_c, 3, 57, 40
5, 1462615, Note_off_c, 3, 57, 64
5, 1462615, Note_off_c, 3, 53, 64
5, 1462620, Note_on_c, 3, 53, 41
5, 1462620, Note_on_c, 3, 57, 41
5, 1462855, Note_off_c, 3, 57, 64
5, 1462855, Note_off_c, 3, 53, 64
5, 1462860, Note_on_c, 3, 53, 42
5, 1462860, Note_on_c, 3, 57, 42
5, 1463095, Note_off_c, 3, 57, 64
5, 1463095, Note_off_c, 3, 53, 64
5, 1463100, Note_on_c, 3, 53, 43
5, 1463100, Note_on_c, 3, 57, 43
5, 1463335, Note_off_c, 3, 57, 64
5, 1463335, Note_off_c, 3, 53, 64
5, 1463340, Note_on_c, 3, 53, 44
5, 1463340, Note_on_c, 3, 57, 44
5, 1463575, Note_off_c, 3, 57, 64
5, 1463575, Note_off_c, 3, 53, 64
5, 1463580, Note_on_c, 3, 53, 45
5, 1463580, Note_on_c, 3, 57, 45
5, 1463815, Note_off_c, 3, 57, 64
5, 1463815, Note_off_c, 3, 53, 64
5, 1463820, Note_on_c, 3, 53, 46
5, 1463820, Note_on_c, 3, 57, 46
5, 1464055, Note_off_c, 3, 57, 64
5, 1464055, Note_off_c, 3, 53, 64
5, 1464060, Note_on_c, 3, 53, 47
5, 1464060, Note_on_c, 3, 57, 47
5, 1464295, Note_off_c, 3, 57, 64
5, 1464295, Note_off_c, 3, 53, 64
5, 1464300, Note_on_c, 3, 50, 48
5, 1464300, Note_on_c, 3, 53, 48
5, 1464535, Note_off_c, 3, 53, 64
5, 1464535, Note_off_c, 3, 50, 64
5, 1464540, Note_on_c, 3, 50, 49
5, 1464540, Note_on_c, 3, 53, 49
5, 1464775, Note_off_c, 3, 53, 64
5, 1464775, Note_off_c, 3, 50, 64
5, 1464780, Note_on_c, 3, 50, 50
5, 1464780, Note_on_c, 3, 53, 50
5, 1465015, Note_off_c, 3, 53, 64
5, 1465015, Note_off_c, 3, 50, 64
5, 1465020, Note_on_c, 3, 50, 51
5, 1465020, Note_on_c, 3, 53, 51
5, 1465255, Note_off_c, 3, 53, 64
5, 1465255, Note_off_c, 3, 50, 64
5, 1465260, Note_on_c, 3, 50, 52
5, 1465260, Note_on_c, 3, 53, 52
5, 1465495, Note_off_c, 3, 53, 64
5, 1465495, Note_off_c, 3, 50, 64
5, 1465500, Note_on_c, 3, 52, 53
5, 1465500, Note_on_c, 3, 55, 53
5, 1465735, Note_off_c, 3, 55, 64
5, 1465735, Note_off_c, 3, 52, 64
5, 1465740, Note_on_c, 3, 52, 54
5, 1465740, Note_on_c, 3, 55, 54
5, 1465975, Note_off_c, 3, 55, 64
5, 1465975, Note_off_c, 3, 52, 64
5, 1465980, Note_on_c, 3, 52, 55
5, 1465980, Note_on_c, 3, 55, 55
5, 1466215, Note_off_c, 3, 55, 64
5, 1466215, Note_off_c, 3, 52, 64
5, 1466220, Note_on_c, 3, 52, 56
5, 1466220, Note_on_c, 3, 55, 56
5, 1466455, Note_off_c, 3, 55, 64
5, 1466455, Note_off_c, 3, 52, 64
5, 1466460, Note_on_c, 3, 52, 57
5, 1466460, Note_on_c, 3, 55, 57
5, 1466695, Note_off_c, 3, 55, 64
5, 1466695, Note_off_c, 3, 52, 64
5, 1466700, Note_on_c, 3, 52, 58
5, 1466700, Note_on_c, 3, 55, 58
5, 1466935, Note_off_c, 3, 55, 64
5, 1466935, Note_off_c, 3, 52, 64
5, 1466940, Note_on_c, 3, 48, 59
5, 1466940, Note_on_c, 3, 55, 59
5, 1467175, Note_off_c, 3, 55, 64
5, 1467175, Note_off_c, 3, 48, 64
5, 1467180, Note_on_c, 3, 53, 60
5, 1467180, Note_on_c, 3, 57, 60
5, 1467415, Note_off_c, 3, 57, 64
5, 1467415, Note_off_c, 3, 53, 64
5, 1467420, Note_on_c, 3, 53, 61
5, 1467420, Note_on_c, 3, 57, 61
5, 1467655, Note_off_c, 3, 57, 64
5, 1467655, Note_off_c, 3, 53, 64
5, 1467660, Note_on_c, 3, 53, 62
5, 1467660, Note_on_c, 3, 57, 62
5, 1467895, Note_off_c, 3, 57, 64
5, 1467895, Note_off_c, 3, 53, 64
5, 1467900, Note_on_c, 3, 50, 63
5, 1467900, Note_on_c, 3, 53, 63
5, 1468135, Note_off_c, 3, 53, 64
5, 1468135, Note_off_c, 3, 50, 64
5, 1468140, Note_on_c, 3, 50, 64
5, 1468140, Note_on_c, 3, 53, 64
5, 1468375, Note_off_c, 3, 53, 64
5, 1468375, Note_off_c, 3, 50, 64
5, 1468380, Note_on_c, 3, 45, 66
5, 1468380, Note_on_c, 3, 53, 66
5, 1468615, Note_off_c, 3, 53, 64
5, 1468615, Note_off_c, 3, 45, 64
5, 1468620, Note_on_c, 3, 46, 68
5, 1468620, Note_on_c, 3, 53, 68
5, 1468855, Note_off_c, 3, 53, 64
5, 1468855, Note_off_c, 3, 46, 64
5, 1468860, Note_on_c, 3, 46, 70
5, 1468860, Note_on_c, 3, 53, 70
5, 1469095, Note_off_c, 3, 53, 64
5, 1469095, Note_off_c, 3, 46, 64
5, 1469100, Note_on_c, 3, 46, 72
5, 1469100, Note_on_c, 3, 53, 72
5, 1469335, Note_off_c, 3, 53, 64
5, 1469335, Note_off_c, 3, 46, 64
5, 1469340, Note_on_c, 3, 48, 74
5, 1469340, Note_on_c, 3, 52, 74
5, 1469575, Note_off_c, 3, 52, 64
5, 1469575, Note_off_c, 3, 48, 64
5, 1469580, Note_on_c, 3, 48, 76
5, 1469580, Note_on_c, 3, 52, 76
5, 1469815, Note_off_c, 3, 52, 64
5, 1469815, Note_off_c, 3, 48, 64
5, 1469820, Note_on_c, 3, 48, 78
5, 1469820, Note_on_c, 3, 52, 78
5, 1470055, Note_off_c, 3, 52, 64
5, 1470055, Note_off_c, 3, 48, 64
5, 1470060, Note_on_c, 3, 41, 80
5, 1470060, Note_on_c, 3, 53, 80
5, 1470295, Note_off_c, 3, 53, 64
5, 1470295, Note_off_c, 3, 41, 64
5, 1470300, Note_on_c, 3, 41, 82
5, 1470300, Note_on_c, 3, 53, 82
5, 1470535, Note_off_c, 3, 53, 64
5, 1470535, Note_off_c, 3, 41, 64
5, 1470540, Note_on_c, 3, 41, 84
5, 1470540, Note_on_c, 3, 53, 84
5, 1470775, Note_off_c, 3, 53, 64
5, 1470775, Note_off_c, 3, 41, 64
5, 1470780, Note_on_c, 3, 41, 86
5, 1470780, Note_on_c, 3, 53, 86
5, 1471015, Note_off_c, 3, 53, 64
5, 1471015, Note_off_c, 3, 41, 64
5, 1471020, Note_on_c, 3, 41, 88
5, 1471020, Note_on_c, 3, 53, 88
5, 1471255, Note_off_c, 3, 53, 64
5, 1471255, Note_off_c, 3, 41, 64
5, 1471260, Note_on_c, 3, 41, 90
5, 1471260, Note_on_c, 3, 53, 90
5, 1471495, Note_off_c, 3, 53, 64
5, 1471495, Note_off_c, 3, 41, 64
5, 1471500, Note_on_c, 3, 41, 92
5, 1471500, Note_on_c, 3, 53, 92
5, 1471735, Note_off_c, 3, 53, 64
5, 1471735, Note_off_c, 3, 41, 64
5, 1471740, Note_on_c, 3, 41, 92
5, 1471740, Note_on_c, 3, 53, 92
5, 1471975, Note_off_c, 3, 53, 64
5, 1471975, Note_off_c, 3, 41, 64
5, 1471980, Note_on_c, 3, 41, 92
5, 1471980, Note_on_c, 3, 53, 92
5, 1472215, Note_off_c, 3, 53, 64
5, 1472215, Note_off_c, 3, 41, 64
5, 1472220, Note_on_c, 3, 41, 92
5, 1472220, Note_on_c, 3, 53, 92
5, 1472455, Note_off_c, 3, 53, 64
5, 1472455, Note_off_c, 3, 41, 64
5, 1472460, Note_on_c, 3, 41, 92
5, 1472460, Note_on_c, 3, 53, 92
5, 1472695, Note_off_c, 3, 53, 64
5, 1472695, Note_off_c, 3, 41, 64
5, 1472700, Note_on_c, 3, 41, 92
5, 1472700, Note_on_c, 3, 53, 92
5, 1472935, Note_off_c, 3, 53, 64
5, 1472935, Note_off_c, 3, 41, 64
5, 1472940, Note_on_c, 3, 41, 92
5, 1472940, Note_on_c, 3, 53, 92
5, 1473175, Note_off_c, 3, 53, 64
5, 1473175, Note_off_c, 3, 41, 64
5, 1473180, Note_on_c, 3, 41, 92
5, 1473180, Note_on_c, 3, 53, 92
5, 1473415, Note_off_c, 3, 53, 64
5, 1473415, Note_off_c, 3, 41, 64
5, 1473420, Note_on_c, 3, 41, 92
5, 1473420, Note_on_c, 3, 53, 92
5, 1473655, Note_off_c, 3, 53, 64
5, 1473655, Note_off_c, 3, 41, 64
5, 1473660, Note_on_c, 3, 41, 92
5, 1473660, Note_on_c, 3, 53, 92
5, 1473895, Note_off_c, 3, 53, 64
5, 1473895, Note_off_c, 3, 41, 64
5, 1473900, Note_on_c, 3, 41, 92
5, 1473900, Note_on_c, 3, 53, 92
5, 1474135, Note_off_c, 3, 53, 64
5, 1474135, Note_off_c, 3, 41, 64
5, 1474140, Note_on_c, 3, 41, 92
5, 1474140, Note_on_c, 3, 53, 92
5, 1474375, Note_off_c, 3, 53, 64
5, 1474375, Note_off_c, 3, 41, 64
5, 1474380, Note_on_c, 3, 41, 92
5, 1474380, Note_on_c, 3, 53, 92
5, 1474615, Note_off_c, 3, 53, 64
5, 1474615, Note_off_c, 3, 41, 64
5, 1474620, Note_on_c, 3, 41, 92
5, 1474620, Note_on_c, 3, 53, 92
5, 1474855, Note_off_c, 3, 53, 64
5, 1474855, Note_off_c, 3, 41, 64
5, 1474860, Note_on_c, 3, 41, 92
5, 1474860, Note_on_c, 3, 53, 92
5, 1475095, Note_off_c, 3, 53, 64
5, 1475095, Note_off_c, 3, 41, 64
5, 1475100, Note_on_c, 3, 41, 92
5, 1475100, Note_on_c, 3, 53, 92
5, 1475335, Note_off_c, 3, 53, 64
5, 1475335, Note_off_c, 3, 41, 64
5, 1475340, Note_on_c, 3, 41, 92
5, 1475340, Note_on_c, 3, 53, 92
5, 1475575, Note_off_c, 3, 53, 64
5, 1475575, Note_off_c, 3, 41, 64
5, 1475580, Note_on_c, 3, 41, 92
5, 1475580, Note_on_c, 3, 53, 92
5, 1475815, Note_off_c, 3, 53, 64
5, 1475815, Note_off_c, 3, 41, 64
5, 1475820, Note_on_c, 3, 38, 92
5, 1475820, Note_on_c, 3, 50, 92
5, 1476055, Note_off_c, 3, 50, 64
5, 1476055, Note_off_c, 3, 38, 64
5, 1476060, Note_on_c, 3, 38, 92
5, 1476060, Note_on_c, 3, 50, 92
5, 1476295, Note_off_c, 3, 50, 64
5, 1476295, Note_off_c, 3, 38, 64
5, 1476300, Note_on_c, 3, 38, 92
5, 1476300, Note_on_c, 3, 50, 92
5, 1476535, Note_off_c, 3, 50, 64
5, 1476535, Note_off_c, 3, 38, 64
5, 1476540, Note_on_c, 3, 38, 92
5, 1476540, Note_on_c, 3, 50, 92
5, 1476775, Note_off_c, 3, 50, 64
5, 1476775, Note_off_c, 3, 38, 64
5, 1476780, Note_on_c, 3, 38, 92
5, 1476780, Note_on_c, 3, 50, 92
5, 1477015, Note_off_c, 3, 50, 64
5, 1477015, Note_off_c, 3, 38, 64
5, 1477020, Note_on_c, 3, 40, 92
5, 1477020, Note_on_c, 3, 52, 92
5, 1477255, Note_off_c, 3, 52, 64
5, 1477255, Note_off_c, 3, 40, 64
5, 1477260, Note_on_c, 3, 40, 92
5, 1477260, Note_on_c, 3, 52, 92
5, 1477495, Note_off_c, 3, 52, 64
5, 1477495, Note_off_c, 3, 40, 64
5, 1477500, Note_on_c, 3, 40, 92
5, 1477500, Note_on_c, 3, 52, 92
5, 1477735, Note_off_c, 3, 52, 64
5, 1477735, Note_off_c, 3, 40, 64
5, 1477740, Note_on_c, 3, 40, 92
5, 1477740, Note_on_c, 3, 52, 92
5, 1477975, Note_off_c, 3, 52, 64
5, 1477975, Note_off_c, 3, 40, 64
5, 1477980, Note_on_c, 3, 40, 92
5, 1477980, Note_on_c, 3, 52, 92
5, 1478215, Note_off_c, 3, 52, 64
5, 1478215, Note_off_c, 3, 40, 64
5, 1478220, Note_on_c, 3, 40, 92
5, 1478220, Note_on_c, 3, 52, 92
5, 1478455, Note_off_c, 3, 52, 64
5, 1478455, Note_off_c, 3, 40, 64
5, 1478460, Note_on_c, 3, 36, 92
5, 1478460, Note_on_c, 3, 48, 92
5, 1478695, Note_off_c, 3, 48, 64
5, 1478695, Note_off_c, 3, 36, 64
5, 1478700, Note_on_c, 3, 41, 92
5, 1478700, Note_on_c, 3, 53, 92
5, 1478935, Note_off_c, 3, 53, 64
5, 1478935, Note_off_c, 3, 41, 64
5, 1478940, Note_on_c, 3, 41, 92
5, 1478940, Note_on_c, 3, 53, 92
5, 1479175, Note_off_c, 3, 53, 64
5, 1479175, Note_off_c, 3, 41, 64
5, 1479180, Note_on_c, 3, 41, 92
5, 1479180, Note_on_c, 3, 53, 92
5, 1479415, Note_off_c, 3, 53, 64
5, 1479415, Note_off_c, 3, 41, 64
5, 1479420, Note_on_c, 3, 38, 92
5, 1479420, Note_on_c, 3, 50, 92
5, 1479655, Note_off_c, 3, 50, 64
5, 1479655, Note_off_c, 3, 38, 64
5, 1479660, Note_on_c, 3, 38, 92
5, 1479660, Note_on_c, 3, 50, 92
5, 1479895, Note_off_c, 3, 50, 64
5, 1479895, Note_off_c, 3, 38, 64
5, 1479900, Note_on_c, 3, 45, 92
5, 1480135, Note_off_c, 3, 45, 64
5, 1480140, Note_on_c, 3, 34, 92
5, 1480140, Note_on_c, 3, 46, 92
5, 1480375, Note_off_c, 3, 46, 64
5, 1480375, Note_off_c, 3, 34, 64
5, 1480380, Note_on_c, 3, 34, 92
5, 1480380, Note_on_c, 3, 46, 92
5, 1480615, Note_off_c, 3, 46, 64
5, 1480615, Note_off_c, 3, 34, 64
5, 1480620, Note_on_c, 3, 34, 92
5, 1480620, Note_on_c, 3, 46, 92
5, 1480855, Note_off_c, 3, 46, 64
5, 1480855, Note_off_c, 3, 34, 64
5, 1480860, Note_on_c, 3, 36, 92
5, 1480860, Note_on_c, 3, 48, 92
5, 1481095, Note_off_c, 3, 48, 64
5, 1481095, Note_off_c, 3, 36, 64
5, 1481100, Note_on_c, 3, 36, 92
5, 1481100, Note_on_c, 3, 48, 92
5, 1481335, Note_off_c, 3, 48, 64
5, 1481335, Note_off_c, 3, 36, 64
5, 1481340, Note_on_c, 3, 36, 92
5, 1481340, Note_on_c, 3, 48, 92
5, 1481575, Note_off_c, 3, 48, 64
5, 1481575, Note_off_c, 3, 36, 64
5, 1481580, Note_on_c, 3, 41, 75
5, 1481980, Note_off_c, 3, 41, 64
5, 1484220, Note_on_c, 3, 52, 75
5, 1484220, Note_on_c, 3, 55, 75
5, 1484455, Note_off_c, 3, 55, 64
5, 1484455, Note_off_c, 3, 52, 64
5, 1484460, Note_on_c, 3, 53, 75
5, 1485180, Note_off_c, 3, 53, 64
5, 1485180, Note_on_c, 3, 55, 75
5, 1485900, Note_off_c, 3, 55, 64
5, 1485900, Note_on_c, 3, 53, 75
5, 1485900, Note_on_c, 3, 57, 75
5, 1486540, Note_off_c, 3, 57, 64
5, 1486540, Note_off_c, 3, 53, 64
5, 1486620, Note_on_c, 3, 55, 75
5, 1486620, Note_on_c, 3, 58, 75
5, 1487020, Note_off_c, 3, 58, 64
5, 1487020, Note_off_c, 3, 55, 64
5, 1487100, Note_on_c, 3, 52, 75
5, 1487100, Note_on_c, 3, 55, 75
5, 1487335, Note_off_c, 3, 55, 64
5, 1487335, Note_off_c, 3, 52, 64
5, 1489980, Note_on_c, 3, 52, 75
5, 1489980, Note_on_c, 3, 55, 75
5, 1490215, Note_off_c, 3, 55, 64
5, 1490215, Note_off_c, 3, 52, 64
5, 1490220, Note_on_c, 3, 53, 75
5, 1490940, Note_off_c, 3, 53, 64
5, 1490940, Note_on_c, 3, 55, 75
5, 1491660, Note_off_c, 3, 55, 64
5, 1491660, Note_on_c, 3, 53, 75
5, 1491660, Note_on_c, 3, 57, 75
5, 1492300, Note_off_c, 3, 57, 64
5, 1492300, Note_off_c, 3, 53, 64
5, 1492380, Note_on_c, 3, 55, 75
5, 1492380, Note_on_c, 3, 58, 75
5, 1492780, Note_off_c, 3, 58, 64
5, 1492780, Note_off_c, 3, 55, 64
5, 1492860, Note_on_c, 3, 55, 75
5, 1492860, Note_on_c, 3, 58, 75
5, 1493095, Note_off_c, 3, 58, 64
5, 1493095, Note_off_c, 3, 55, 64
5, 1493100, Note_on_c, 3, 57, 75
5, 1493100, Note_on_c, 3, 60, 75
5, 1493740, Note_off_c, 3, 60, 64
5, 1493740, Note_off_c, 3, 57, 64
5, 1493820, Note_on_c, 3, 59, 75
5, 1493820, Note_on_c, 3, 62, 75
5, 1494220, Note_off_c, 3, 62, 64
5, 1494220, Note_off_c, 3, 59, 64
5, 1494300, Note_on_c, 3, 47, 75
5, 1494300, Note_on_c, 3, 50, 75
5, 1494535, Note_off_c, 3, 50, 64
5, 1494535, Note_off_c, 3, 47, 64
5, 1494540, Note_on_c, 3, 48, 75
5, 1494540, Note_on_c, 3, 52, 75
5, 1495180, Note_off_c, 3, 52, 64
5, 1495180, Note_off_c, 3, 48, 64
5, 1495260, Note_on_c, 3, 50, 75
5, 1495260, Note_on_c, 3, 53, 75
5, 1495660, Note_off_c, 3, 53, 64
5, 1495660, Note_off_c, 3, 50, 64
5, 1495740, Note_on_c, 3, 50, 75
5, 1495740, Note_on_c, 3, 53, 75
5, 1495975, Note_off_c, 3, 53, 64
5, 1495975, Note_off_c, 3, 50, 64
5, 1495980, Note_on_c, 3, 52, 75
5, 1495980, Note_on_c, 3, 55, 75
5, 1497100, Note_off_c, 3, 55, 64
5, 1497100, Note_off_c, 3, 52, 64
5, 1497180, Note_on_c, 3, 48, 75
5, 1497180, Note_on_c, 3, 52, 75
5, 1497415, Note_off_c, 3, 52, 64
5, 1497415, Note_off_c, 3, 48, 64
5, 1497420, Note_on_c, 3, 48, 75
5, 1497420, Note_on_c, 3, 52, 75
5, 1497820, Note_off_c, 3, 52, 64
5, 1497820, Note_off_c, 3, 48, 64
5, 1497900, Note_on_c, 3, 48, 75
5, 1497900, Note_on_c, 3, 52, 75
5, 1498135, Note_off_c, 3, 52, 64
5, 1498135, Note_off_c, 3, 48, 64
5, 1498140, Note_on_c, 3, 48, 75
5, 1498140, Note_on_c, 3, 52, 75
5, 1498540, Note_off_c, 3, 52, 64
5, 1498540, Note_off_c, 3, 48, 64
5, 1498620, Note_on_c, 3, 48, 75
5, 1498620, Note_on_c, 3, 52, 75
5, 1498855, Note_off_c, 3, 52, 64
5, 1498855, Note_off_c, 3, 48, 64
5, 1498860, Note_on_c, 3, 50, 75
5, 1498860, Note_on_c, 3, 53, 75
5, 1499980, Note_off_c, 3, 53, 64
5, 1499980, Note_off_c, 3, 50, 64
5, 1500060, Note_on_c, 3, 43, 75
5, 1500060, Note_on_c, 3, 50, 75
5, 1500295, Note_off_c, 3, 50, 64
5, 1500295, Note_off_c, 3, 43, 64
5, 1500300, Note_on_c, 3, 43, 75
5, 1500300, Note_on_c, 3, 50, 75
5, 1500700, Note_off_c, 3, 50, 64
5, 1500700, Note_off_c, 3, 43, 64
5, 1500780, Note_on_c, 3, 43, 75
5, 1500780, Note_on_c, 3, 50, 75
5, 1501015, Note_off_c, 3, 50, 64
5, 1501015, Note_off_c, 3, 43, 64
5, 1501020, Note_on_c, 3, 43, 75
5, 1501020, Note_on_c, 3, 50, 75
5, 1501420, Note_off_c, 3, 50, 64
5, 1501420, Note_off_c, 3, 43, 64
5, 1501500, Note_on_c, 3, 43, 75
5, 1501500, Note_on_c, 3, 50, 75
5, 1501735, Note_off_c, 3, 50, 64
5, 1501735, Note_off_c, 3, 43, 64
5, 1501740, Note_on_c, 3, 52, 75
5, 1501740, Note_on_c, 3, 55, 75
5, 1502140, Note_off_c, 3, 55, 64
5, 1502140, Note_off_c, 3, 52, 64
5, 1502220, Note_on_c, 3, 52, 75
5, 1502220, Note_on_c, 3, 55, 75
5, 1502455, Note_off_c, 3, 55, 64
5, 1502455, Note_off_c, 3, 52, 64
5, 1502460, Note_on_c, 3, 52, 75
5, 1502460, Note_on_c, 3, 55, 75
5, 1502860, Note_off_c, 3, 55, 64
5, 1502860, Note_off_c, 3, 52, 64
5, 1502940, Note_on_c, 3, 52, 75
5, 1502940, Note_on_c, 3, 55, 75
5, 1503175, Note_off_c, 3, 55, 64
5, 1503175, Note_off_c, 3, 52, 64
5, 1503180, Note_on_c, 3, 52, 75
5, 1503180, Note_on_c, 3, 55, 75
5, 1503580, Note_off_c, 3, 55, 64
5, 1503580, Note_off_c, 3, 52, 64
5, 1503660, Note_on_c, 3, 48, 75
5, 1503660, Note_on_c, 3, 52, 75
5, 1503895, Note_off_c, 3, 52, 64
5, 1503895, Note_off_c, 3, 48, 64
5, 1503900, Note_on_c, 3, 48, 75
5, 1503900, Note_on_c, 3, 52, 75
5, 1504300, Note_off_c, 3, 52, 64
5, 1504300, Note_off_c, 3, 48, 64
5, 1504380, Note_on_c, 3, 48, 75
5, 1504380, Note_on_c, 3, 52, 75
5, 1504615, Note_off_c, 3, 52, 64
5, 1504615, Note_off_c, 3, 48, 64
5, 1504620, Note_on_c, 3, 50, 75
5, 1504620, Note_on_c, 3, 53, 75
5, 1505020, Note_off_c, 3, 53, 64
5, 1505020, Note_off_c, 3, 50, 64
5, 1505100, Note_on_c, 3, 50, 75
5, 1505100, Note_on_c, 3, 53, 75
5, 1505335, Note_off_c, 3, 53, 64
5, 1505335, Note_off_c, 3, 50, 64
5, 1505340, Note_on_c, 3, 50, 75
5, 1505340, Note_on_c, 3, 53, 75
5, 1505740, Note_off_c, 3, 53, 64
5, 1505740, Note_off_c, 3, 50, 64
5, 1505820, Note_on_c, 3, 50, 75
5, 1505820, Note_on_c, 3, 53, 75
5, 1506055, Note_off_c, 3, 53, 64
5, 1506055, Note_off_c, 3, 50, 64
5, 1506060, Note_on_c, 3, 50, 75
5, 1506060, Note_on_c, 3, 53, 75
5, 1506460, Note_off_c, 3, 53, 64
5, 1506460, Note_off_c, 3, 50, 64
5, 1506540, Note_on_c, 3, 43, 75
5, 1506540, Note_on_c, 3, 50, 75
5, 1506775, Note_off_c, 3, 50, 64
5, 1506775, Note_off_c, 3, 43, 64
5, 1506780, Note_on_c, 3, 43, 75
5, 1506780, Note_on_c, 3, 50, 75
5, 1507180, Note_off_c, 3, 50, 64
5, 1507180, Note_off_c, 3, 43, 64
5, 1507260, Note_on_c, 3, 43, 75
5, 1507260, Note_on_c, 3, 50, 75
5, 1507495, Note_off_c, 3, 50, 64
5, 1507495, Note_off_c, 3, 43, 64
5, 1507500, Note_on_c, 3, 48, 75
5, 1507500, Note_on_c, 3, 52, 75
5, 1507900, Note_off_c, 3, 52, 64
5, 1507900, Note_off_c, 3, 48, 64
5, 1508700, Note_on_c, 3, 60, 45
5, 1509180, Note_off_c, 3, 60, 64
5, 1509180, Note_on_c, 3, 65, 55
5, 1509420, Note_off_c, 3, 65, 64
5, 1509420, Note_on_c, 3, 48, 65
5, 1509420, Note_on_c, 3, 64, 65
5, 1509660, Note_off_c, 3, 64, 64
5, 1509660, Note_off_c, 3, 48, 64
5, 1509660, Note_on_c, 3, 43, 75
5, 1509660, Note_on_c, 3, 59, 75
5, 1510060, Note_off_c, 3, 59, 64
5, 1510060, Note_off_c, 3, 43, 64
5, 1510140, Note_on_c, 3, 43, 75
5, 1510140, Note_on_c, 3, 59, 75
5, 1510380, Note_off_c, 3, 59, 64
5, 1510380, Note_off_c, 3, 43, 64
5, 1510380, Note_on_c, 3, 48, 75
5, 1510380, Note_on_c, 3, 60, 75
5, 1510615, Note_off_c, 3, 60, 64
5, 1510615, Note_off_c, 3, 48, 64
5, 1511580, Note_on_c, 3, 60, 45
5, 1512060, Note_off_c, 3, 60, 64
5, 1512060, Note_on_c, 3, 65, 50
5, 1512300, Note_off_c, 3, 65, 64
5, 1512300, Note_on_c, 3, 48, 55
5, 1512300, Note_on_c, 3, 64, 55
5, 1512540, Note_off_c, 3, 64, 64
5, 1512540, Note_off_c, 3, 48, 64
5, 1512540, Note_on_c, 3, 43, 60
5, 1512540, Note_on_c, 3, 59, 60
5, 1512940, Note_off_c, 3, 59, 64
5, 1512940, Note_off_c, 3, 43, 64
5, 1513020, Note_on_c, 3, 43, 70
5, 1513020, Note_on_c, 3, 59, 70
5, 1513100, Note_off_c, 3, 59, 64
5, 1513100, Note_off_c, 3, 43, 64
5, 1513260, Note_on_c, 3, 48, 75
5, 1513260, Note_on_c, 3, 60, 75
5, 1513980, Note_off_c, 3, 60, 64
5, 1513980, Note_off_c, 3, 48, 64
5, 1513980, Note_on_c, 3, 48, 75
5, 1513980, Note_on_c, 3, 55, 75
5, 1514215, Note_off_c, 3, 55, 64
5, 1514215, Note_off_c, 3, 48, 64
5, 1514460, Note_on_c, 3, 55, 75
5, 1514460, Note_on_c, 3, 64, 75
5, 1514540, Note_off_c, 3, 64, 64
5, 1514540, Note_off_c, 3, 55, 64
5, 1514700, Note_on_c, 3, 53, 75
5, 1514700, Note_on_c, 3, 62, 75
5, 1515420, Note_off_c, 3, 62, 64
5, 1515420, Note_off_c, 3, 53, 64
5, 1515420, Note_on_c, 3, 53, 75
5, 1515420, Note_on_c, 3, 57, 75
5, 1515655, Note_off_c, 3, 57, 64
5, 1515655, Note_off_c, 3, 53, 64
5, 1515900, Note_on_c, 3, 57, 75
5, 1515900, Note_on_c, 3, 65, 75
5, 1515980, Note_off_c, 3, 65, 64
5, 1515980, Note_off_c, 3, 57, 64
5, 1516140, Note_on_c, 3, 60, 45
5, 1516140, Note_on_c, 3, 64, 45
5, 1516375, Note_off_c, 3, 64, 64
5, 1516375, Note_off_c, 3, 60, 64
5, 1524780, Note_on_c, 3, 58, 45
5, 1527540, Note_off_c, 3, 58, 64
5, 1527660, Note_on_c, 3, 53, 45
5, 1527660, Note_on_c, 3, 57, 45
5, 1531980, Note_off_c, 3, 57, 64
5, 1531980, Note_off_c, 3, 53, 64
5, 1531980, Note_on_c, 3, 50, 45
5, 1531980, Note_on_c, 3, 53, 45
5, 1533180, Note_off_c, 3, 53, 64
5, 1533180, Note_off_c, 3, 50, 64
5, 1533180, Note_on_c, 3, 52, 45
5, 1533180, Note_on_c, 3, 55, 45
5, 1533420, Note_off_c, 3, 55, 64
5, 1533420, Note_off_c, 3, 52, 64
5, 1533420, Note_on_c, 3, 52, 45
5, 1533420, Note_on_c, 3, 55, 45
5, 1534860, Note_off_c, 3, 55, 64
5, 1534860, Note_off_c, 3, 52, 64
5, 1534860, Note_on_c, 3, 53, 45
5, 1534860, Note_on_c, 3, 57, 45
5, 1536300, Note_off_c, 3, 57, 64
5, 1536300, Note_on_c, 3, 55, 45
5, 1537020, Note_off_c, 3, 53, 64
5, 1537020, Note_off_c, 3, 55, 64
5, 1537020, Note_on_c, 3, 52, 45
5, 1537020, Note_on_c, 3, 55, 45
5, 1537740, Note_off_c, 3, 55, 64
5, 1537740, Note_off_c, 3, 52, 64
5, 1537740, Note_on_c, 3, 53, 45
5, 1537740, Note_on_c, 3, 57, 45
5, 1539060, Note_off_c, 3, 57, 64
5, 1539060, Note_off_c, 3, 53, 64
5, 1539180, Note_on_c, 3, 53, 45
5, 1539180, Note_on_c, 3, 57, 45
5, 1539415, Note_off_c, 3, 57, 64
5, 1539415, Note_off_c, 3, 53, 64
5, 1539420, Note_on_c, 3, 53, 45
5, 1539420, Note_on_c, 3, 57, 45
5, 1539655, Note_off_c, 3, 57, 64
5, 1539655, Note_off_c, 3, 53, 64
5, 1539660, Note_on_c, 3, 53, 45
5, 1539660, Note_on_c, 3, 57, 45
5, 1539895, Note_off_c, 3, 57, 64
5, 1539895, Note_off_c, 3, 53, 64
5, 1539900, Note_on_c, 3, 53, 45
5, 1539900, Note_on_c, 3, 57, 45
5, 1540135, Note_off_c, 3, 57, 64
5, 1540135, Note_off_c, 3, 53, 64
5, 1540140, Note_on_c, 3, 53, 45
5, 1540140, Note_on_c, 3, 57, 45
5, 1540375, Note_off_c, 3, 57, 64
5, 1540375, Note_off_c, 3, 53, 64
5, 1540380, Note_on_c, 3, 53, 45
5, 1540380, Note_on_c, 3, 57, 45
5, 1540615, Note_off_c, 3, 57, 64
5, 1540615, Note_off_c, 3, 53, 64
5, 1540620, Note_on_c, 3, 53, 46
5, 1540620, Note_on_c, 3, 57, 46
5, 1540855, Note_off_c, 3, 57, 64
5, 1540855, Note_off_c, 3, 53, 64
5, 1540860, Note_on_c, 3, 53, 46
5, 1540860, Note_on_c, 3, 57, 46
5, 1541095, Note_off_c, 3, 57, 64
5, 1541095, Note_off_c, 3, 53, 64
5, 1541100, Note_on_c, 3, 53, 47
5, 1541100, Note_on_c, 3, 57, 47
5, 1541335, Note_off_c, 3, 57, 64
5, 1541335, Note_off_c, 3, 53, 64
5, 1541340, Note_on_c, 3, 53, 48
5, 1541340, Note_on_c, 3, 57, 48
5, 1541575, Note_off_c, 3, 57, 64
5, 1541575, Note_off_c, 3, 53, 64
5, 1541580, Note_on_c, 3, 53, 49
5, 1541580, Note_on_c, 3, 57, 49
5, 1541815, Note_off_c, 3, 57, 64
5, 1541815, Note_off_c, 3, 53, 64
5, 1541820, Note_on_c, 3, 53, 50
5, 1541820, Note_on_c, 3, 57, 50
5, 1542055, Note_off_c, 3, 57, 64
5, 1542055, Note_off_c, 3, 53, 64
5, 1542060, Note_on_c, 3, 53, 51
5, 1542060, Note_on_c, 3, 57, 51
5, 1542295, Note_off_c, 3, 57, 64
5, 1542295, Note_off_c, 3, 53, 64
5, 1542300, Note_on_c, 3, 53, 52
5, 1542300, Note_on_c, 3, 57, 52
5, 1542535, Note_off_c, 3, 57, 64
5, 1542535, Note_off_c, 3, 53, 64
5, 1542540, Note_on_c, 3, 53, 53
5, 1542540, Note_on_c, 3, 57, 53
5, 1542775, Note_off_c, 3, 57, 64
5, 1542775, Note_off_c, 3, 53, 64
5, 1542780, Note_on_c, 3, 53, 54
5, 1542780, Note_on_c, 3, 57, 54
5, 1543015, Note_off_c, 3, 57, 64
5, 1543015, Note_off_c, 3, 53, 64
5, 1543020, Note_on_c, 3, 53, 55
5, 1543020, Note_on_c, 3, 57, 55
5, 1543255, Note_off_c, 3, 57, 64
5, 1543255, Note_off_c, 3, 53, 64
5, 1543260, Note_on_c, 3, 53, 56
5, 1543260, Note_on_c, 3, 57, 56
5, 1543495, Note_off_c, 3, 57, 64
5, 1543495, Note_off_c, 3, 53, 64
5, 1543500, Note_on_c, 3, 53, 57
5, 1543500, Note_on_c, 3, 57, 57
5, 1543735, Note_off_c, 3, 57, 64
5, 1543735, Note_off_c, 3, 53, 64
5, 1543740, Note_on_c, 3, 53, 58
5, 1543740, Note_on_c, 3, 57, 58
5, 1543975, Note_off_c, 3, 57, 64
5, 1543975, Note_off_c, 3, 53, 64
5, 1543980, Note_on_c, 3, 53, 59
5, 1543980, Note_on_c, 3, 57, 59
5, 1544215, Note_off_c, 3, 57, 64
5, 1544215, Note_off_c, 3, 53, 64
5, 1544220, Note_on_c, 3, 53, 60
5, 1544220, Note_on_c, 3, 57, 60
5, 1544455, Note_off_c, 3, 57, 64
5, 1544455, Note_off_c, 3, 53, 64
5, 1544460, Note_on_c, 3, 53, 61
5, 1544460, Note_on_c, 3, 57, 61
5, 1544695, Note_off_c, 3, 57, 64
5, 1544695, Note_off_c, 3, 53, 64
5, 1544700, Note_on_c, 3, 53, 62
5, 1544700, Note_on_c, 3, 57, 62
5, 1544935, Note_off_c, 3, 57, 64
5, 1544935, Note_off_c, 3, 53, 64
5, 1544940, Note_on_c, 3, 53, 63
5, 1544940, Note_on_c, 3, 57, 63
5, 1545175, Note_off_c, 3, 57, 64
5, 1545175, Note_off_c, 3, 53, 64
5, 1545180, Note_on_c, 3, 53, 64
5, 1545180, Note_on_c, 3, 57, 64
5, 1545415, Note_off_c, 3, 57, 64
5, 1545415, Note_off_c, 3, 53, 64
5, 1545420, Note_on_c, 3, 53, 65
5, 1545420, Note_on_c, 3, 57, 65
5, 1545655, Note_off_c, 3, 57, 64
5, 1545655, Note_off_c, 3, 53, 64
5, 1545660, Note_on_c, 3, 53, 66
5, 1545660, Note_on_c, 3, 57, 66
5, 1545895, Note_off_c, 3, 57, 64
5, 1545895, Note_off_c, 3, 53, 64
5, 1545900, Note_on_c, 3, 53, 67
5, 1545900, Note_on_c, 3, 57, 67
5, 1546135, Note_off_c, 3, 57, 64
5, 1546135, Note_off_c, 3, 53, 64
5, 1546140, Note_on_c, 3, 53, 68
5, 1546140, Note_on_c, 3, 57, 68
5, 1546375, Note_off_c, 3, 57, 64
5, 1546375, Note_off_c, 3, 53, 64
5, 1546380, Note_on_c, 3, 53, 69
5, 1546380, Note_on_c, 3, 63, 69
5, 1546615, Note_off_c, 3, 63, 64
5, 1546615, Note_off_c, 3, 53, 64
5, 1546620, Note_on_c, 3, 53, 70
5, 1546620, Note_on_c, 3, 63, 70
5, 1546855, Note_off_c, 3, 63, 64
5, 1546855, Note_off_c, 3, 53, 64
5, 1546860, Note_on_c, 3, 53, 71
5, 1546860, Note_on_c, 3, 63, 71
5, 1547095, Note_off_c, 3, 63, 64
5, 1547095, Note_off_c, 3, 53, 64
5, 1547100, Note_on_c, 3, 53, 72
5, 1547100, Note_on_c, 3, 63, 72
5, 1547335, Note_off_c, 3, 63, 64
5, 1547335, Note_off_c, 3, 53, 64
5, 1547340, Note_on_c, 3, 53, 73
5, 1547340, Note_on_c, 3, 63, 73
5, 1547575, Note_off_c, 3, 63, 64
5, 1547575, Note_off_c, 3, 53, 64
5, 1547580, Note_on_c, 3, 57, 75
5, 1547580, Note_on_c, 3, 65, 75
5, 1547815, Note_off_c, 3, 65, 64
5, 1547815, Note_off_c, 3, 57, 64
5, 1547820, Note_on_c, 3, 57, 75
5, 1547820, Note_on_c, 3, 65, 75
5, 1548220, Note_off_c, 3, 65, 64
5, 1548220, Note_off_c, 3, 57, 64
5, 1548300, Note_on_c, 3, 57, 75
5, 1548300, Note_on_c, 3, 65, 75
5, 1548535, Note_off_c, 3, 65, 64
5, 1548535, Note_off_c, 3, 57, 64
5, 1548540, Note_on_c, 3, 57, 75
5, 1548540, Note_on_c, 3, 65, 75
5, 1548940, Note_off_c, 3, 65, 64
5, 1548940, Note_off_c, 3, 57, 64
5, 1549020, Note_on_c, 3, 57, 75
5, 1549020, Note_on_c, 3, 65, 75
5, 1549255, Note_off_c, 3, 65, 64
5, 1549255, Note_off_c, 3, 57, 64
5, 1549260, Note_on_c, 3, 57, 75
5, 1549260, Note_on_c, 3, 65, 75
5, 1549660, Note_off_c, 3, 65, 64
5, 1549660, Note_off_c, 3, 57, 64
5, 1549740, Note_on_c, 3, 57, 75
5, 1549740, Note_on_c, 3, 65, 75
5, 1549975, Note_off_c, 3, 65, 64
5, 1549975, Note_off_c, 3, 57, 64
5, 1549980, Note_on_c, 3, 57, 75
5, 1549980, Note_on_c, 3, 65, 75
5, 1550380, Note_off_c, 3, 65, 64
5, 1550380, Note_off_c, 3, 57, 64
5, 1550460, Note_on_c, 3, 57, 75
5, 1550460, Note_on_c, 3, 65, 75
5, 1550695, Note_off_c, 3, 65, 64
5, 1550695, Note_off_c, 3, 57, 64
5, 1550700, Note_on_c, 3, 53, 75
5, 1550700, Note_on_c, 3, 62, 75
5, 1551900, Note_off_c, 3, 62, 64
5, 1551900, Note_off_c, 3, 53, 64
5, 1551900, Note_on_c, 3, 51, 75
5, 1551900, Note_on_c, 3, 60, 75
5, 1552140, Note_off_c, 3, 60, 64
5, 1552140, Note_off_c, 3, 51, 64
5, 1552140, Note_on_c, 3, 50, 75
5, 1552140, Note_on_c, 3, 58, 75
5, 1552620, Note_off_c, 3, 58, 64
5, 1552620, Note_off_c, 3, 50, 64
5, 1552620, Note_on_c, 3, 51, 75
5, 1552620, Note_on_c, 3, 60, 75
5, 1552860, Note_off_c, 3, 60, 64
5, 1552860, Note_off_c, 3, 51, 64
5, 1552860, Note_on_c, 3, 53, 75
5, 1552860, Note_on_c, 3, 62, 75
5, 1553260, Note_off_c, 3, 62, 64
5, 1553260, Note_off_c, 3, 53, 64
5, 1553340, Note_on_c, 3, 41, 75
5, 1553340, Note_on_c, 3, 58, 75
5, 1553575, Note_off_c, 3, 58, 64
5, 1553575, Note_off_c, 3, 41, 64
5, 1553580, Note_on_c, 3, 48, 75
5, 1553580, Note_on_c, 3, 58, 75
5, 1554060, Note_off_c, 3, 58, 64
5, 1554060, Note_off_c, 3, 48, 64
5, 1554060, Note_on_c, 3, 57, 75
5, 1554300, Note_off_c, 3, 57, 64
5, 1554300, Note_on_c, 3, 53, 75
5, 1554300, Note_on_c, 3, 57, 75
5, 1554780, Note_off_c, 3, 57, 64
5, 1554780, Note_off_c, 3, 53, 64
5, 1554780, Note_on_c, 3, 55, 75
5, 1554780, Note_on_c, 3, 59, 75
5, 1555020, Note_off_c, 3, 59, 64
5, 1555020, Note_off_c, 3, 55, 64
5, 1555020, Note_on_c, 3, 59, 75
5, 1555020, Note_on_c, 3, 62, 75
5, 1555080, Note_off_c, 3, 62, 64
5, 1555080, Note_off_c, 3, 59, 64
5, 1555080, Note_on_c, 3, 57, 75
5, 1555080, Note_on_c, 3, 60, 75
5, 1555500, Note_off_c, 3, 60, 64
5, 1555500, Note_off_c, 3, 57, 64
5, 1555500, Note_on_c, 3, 55, 75
5, 1555500, Note_on_c, 3, 59, 75
5, 1555740, Note_off_c, 3, 59, 64
5, 1555740, Note_off_c, 3, 55, 64
5, 1555740, Note_on_c, 3, 57, 75
5, 1555740, Note_on_c, 3, 60, 75
5, 1556220, Note_off_c, 3, 60, 64
5, 1556220, Note_off_c, 3, 57, 64
5, 1556220, Note_on_c, 3, 59, 75
5, 1556220, Note_on_c, 3, 62, 75
5, 1556455, Note_off_c, 3, 62, 64
5, 1556455, Note_off_c, 3, 59, 64
5, 1556460, Note_on_c, 3, 59, 75
5, 1556460, Note_on_c, 3, 62, 75
5, 1556940, Note_off_c, 3, 62, 64
5, 1556940, Note_off_c, 3, 59, 64
5, 1556940, Note_on_c, 3, 60, 75
5, 1556940, Note_on_c, 3, 63, 75
5, 1557175, Note_off_c, 3, 63, 64
5, 1557175, Note_off_c, 3, 60, 64
5, 1557180, Note_on_c, 3, 60, 75
5, 1557180, Note_on_c, 3, 63, 75
5, 1557660, Note_off_c, 3, 63, 64
5, 1557660, Note_off_c, 3, 60, 64
5, 1557660, Note_on_c, 3, 58, 75
5, 1557660, Note_on_c, 3, 62, 75
5, 1557900, Note_off_c, 3, 62, 64
5, 1557900, Note_off_c, 3, 58, 64
5, 1557900, Note_on_c, 3, 57, 75
5, 1557900, Note_on_c, 3, 60, 75
5, 1558380, Note_off_c, 3, 60, 64
5, 1558380, Note_off_c, 3, 57, 64
5, 1558380, Note_on_c, 3, 58, 75
5, 1558380, Note_on_c, 3, 62, 75
5, 1558620, Note_off_c, 3, 62, 64
5, 1558620, Note_off_c, 3, 58, 64
5, 1558620, Note_on_c, 3, 60, 75
5, 1558620, Note_on_c, 3, 63, 75
5, 1559100, Note_off_c, 3, 63, 64
5, 1559100, Note_off_c, 3, 60, 64
5, 1559100, Note_on_c, 3, 57, 75
5, 1559100, Note_on_c, 3, 65, 75
5, 1559340, Note_off_c, 3, 65, 64
5, 1559340, Note_off_c, 3, 57, 64
5, 1559340, Note_on_c, 3, 58, 75
5, 1559340, Note_on_c, 3, 62, 75
5, 1559740, Note_off_c, 3, 62, 64
5, 1559740, Note_off_c, 3, 58, 64
5, 1559820, Note_on_c, 3, 58, 75
5, 1559820, Note_on_c, 3, 62, 75
5, 1560060, Note_off_c, 3, 62, 64
5, 1560060, Note_off_c, 3, 58, 64
5, 1560060, Note_on_c, 3, 60, 75
5, 1560060, Note_on_c, 3, 63, 75
5, 1560540, Note_off_c, 3, 63, 64
5, 1560540, Note_off_c, 3, 60, 64
5, 1560540, Note_on_c, 3, 62, 75
5, 1560540, Note_on_c, 3, 65, 75
5, 1560780, Note_off_c, 3, 65, 64
5, 1560780, Note_off_c, 3, 62, 64
5, 1560780, Note_on_c, 3, 63, 75
5, 1560780, Note_on_c, 3, 67, 75
5, 1561900, Note_off_c, 3, 67, 64
5, 1561900, Note_off_c, 3, 63, 64
5, 1561980, Note_on_c, 3, 63, 75
5, 1561980, Note_on_c, 3, 67, 75
5, 1562215, Note_off_c, 3, 67, 64
5, 1562215, Note_off_c, 3, 63, 64
5, 1562220, Note_on_c, 3, 62, 75
5, 1562220, Note_on_c, 3, 65, 75
5, 1563340, Note_off_c, 3, 65, 64
5, 1563340, Note_off_c, 3, 62, 64
5, 1563420, Note_on_c, 3, 62, 75
5, 1563420, Note_on_c, 3, 65, 75
5, 1563655, Note_off_c, 3, 65, 64
5, 1563655, Note_off_c, 3, 62, 64
5, 1563660, Note_on_c, 3, 60, 75
5, 1563660, Note_on_c, 3, 63, 75
5, 1564060, Note_off_c, 3, 63, 64
5, 1564060, Note_off_c, 3, 60, 64
5, 1564140, Note_on_c, 3, 60, 75
5, 1564140, Note_on_c, 3, 63, 75
5, 1564380, Note_off_c, 3, 63, 64
5, 1564380, Note_off_c, 3, 60, 64
5, 1564380, Note_on_c, 3, 62, 75
5, 1564380, Note_on_c, 3, 65, 75
5, 1564860, Note_off_c, 3, 65, 64
5, 1564860, Note_off_c, 3, 62, 64
5, 1564860, Note_on_c, 3, 60, 75
5, 1564860, Note_on_c, 3, 63, 75
5, 1565100, Note_off_c, 3, 63, 64
5, 1565100, Note_off_c, 3, 60, 64
5, 1565100, Note_on_c, 3, 58, 75
5, 1565100, Note_on_c, 3, 62, 75
5, 1565500, Note_off_c, 3, 62, 64
5, 1565500, Note_off_c, 3, 58, 64
5, 1565580, Note_on_c, 3, 46, 75
5, 1565580, Note_on_c, 3, 50, 75
5, 1565820, Note_off_c, 3, 50, 64
5, 1565820, Note_off_c, 3, 46, 64
5, 1565820, Note_on_c, 3, 48, 75
5, 1565820, Note_on_c, 3, 51, 75
5, 1566300, Note_off_c, 3, 51, 64
5, 1566300, Note_off_c, 3, 48, 64
5, 1566300, Note_on_c, 3, 50, 75
5, 1566300, Note_on_c, 3, 53, 75
5, 1566535, Note_off_c, 3, 53, 64
5, 1566535, Note_off_c, 3, 50, 64
5, 1566540, Note_on_c, 3, 51, 75
5, 1566540, Note_on_c, 3, 55, 75
5, 1567660, Note_off_c, 3, 55, 64
5, 1567660, Note_off_c, 3, 51, 64
5, 1567740, Note_on_c, 3, 51, 75
5, 1567740, Note_on_c, 3, 55, 75
5, 1567980, Note_off_c, 3, 55, 64
5, 1567980, Note_off_c, 3, 51, 64
5, 1567980, Note_on_c, 3, 53, 75
5, 1567980, Note_on_c, 3, 58, 75
5, 1569100, Note_off_c, 3, 58, 64
5, 1569100, Note_off_c, 3, 53, 64
5, 1569180, Note_on_c, 3, 53, 75
5, 1569180, Note_on_c, 3, 58, 75
5, 1569415, Note_off_c, 3, 58, 64
5, 1569415, Note_off_c, 3, 53, 64
5, 1569420, Note_on_c, 3, 54, 60
5, 1569420, Note_on_c, 3, 61, 60
5, 1570540, Note_off_c, 3, 61, 64
5, 1570540, Note_off_c, 3, 54, 64
5, 1570620, Note_on_c, 3, 55, 60
5, 1570620, Note_on_c, 3, 61, 60
5, 1570860, Note_off_c, 3, 61, 64
5, 1570860, Note_off_c, 3, 55, 64
5, 1570860, Note_on_c, 3, 56, 60
5, 1570860, Note_on_c, 3, 61, 60
5, 1571340, Note_off_c, 3, 61, 64
5, 1571340, Note_off_c, 3, 56, 64
5, 1571340, Note_on_c, 3, 56, 60
5, 1571340, Note_on_c, 3, 61, 60
5, 1571580, Note_off_c, 3, 61, 64
5, 1571580, Note_off_c, 3, 56, 64
5, 1571580, Note_on_c, 3, 56, 60
5, 1571580, Note_on_c, 3, 60, 60
5, 1572060, Note_off_c, 3, 60, 64
5, 1572060, Note_off_c, 3, 56, 64
5, 1572060, Note_on_c, 3, 56, 60
5, 1572060, Note_on_c, 3, 60, 60
5, 1572295, Note_off_c, 3, 60, 64
5, 1572295, Note_off_c, 3, 56, 64
5, 1572300, Note_on_c, 3, 56, 30
5, 1572300, Note_on_c, 3, 61, 30
5, 1573740, Note_off_c, 3, 61, 64
5, 1573740, Note_off_c, 3, 56, 64
5, 1573740, Note_on_c, 3, 57, 30
5, 1573740, Note_on_c, 3, 60, 30
5, 1575180, Note_off_c, 3, 60, 64
5, 1575180, Note_off_c, 3, 57, 64
5, 1575180, Note_on_c, 3, 58, 30
5, 1575180, Note_on_c, 3, 61, 30
5, 1576620, Note_off_c, 3, 61, 64
5, 1576620, Note_off_c, 3, 58, 64
5, 1576620, Note_on_c, 3, 59, 30
5, 1576620, Note_on_c, 3, 62, 30
5, 1578060, Note_off_c, 3, 62, 64
5, 1578060, Note_off_c, 3, 59, 64
5, 1578060, Note_on_c, 3, 60, 30
5, 1578060, Note_on_c, 3, 64, 30
5, 1578460, Note_off_c, 3, 64, 64
5, 1578460, Note_off_c, 3, 60, 64
5, 1580700, Note_on_c, 3, 62, 75
5, 1580700, Note_on_c, 3, 65, 75
5, 1580935, Note_off_c, 3, 65, 64
5, 1580935, Note_off_c, 3, 62, 64
5, 1580940, Note_on_c, 3, 59, 75
5, 1581660, Note_off_c, 3, 59, 64
5, 1581660, Note_on_c, 3, 55, 75
5, 1581895, Note_off_c, 3, 55, 64
5, 1582140, Note_on_c, 3, 62, 75
5, 1582375, Note_off_c, 3, 62, 64
5, 1582380, Note_on_c, 3, 60, 75
5, 1583100, Note_off_c, 3, 60, 64
5, 1583100, Note_on_c, 3, 55, 75
5, 1583335, Note_off_c, 3, 55, 64
5, 1583580, Note_on_c, 3, 60, 75
5, 1583815, Note_off_c, 3, 60, 64
5, 1586460, Note_on_c, 3, 62, 60
5, 1586460, Note_on_c, 3, 65, 60
5, 1586695, Note_off_c, 3, 65, 64
5, 1586695, Note_off_c, 3, 62, 64
5, 1586700, Note_on_c, 3, 59, 60
5, 1587420, Note_off_c, 3, 59, 64
5, 1587420, Note_on_c, 3, 55, 63
5, 1587655, Note_off_c, 3, 55, 64
5, 1587900, Note_on_c, 3, 62, 65
5, 1588135, Note_off_c, 3, 62, 64
5, 1588140, Note_on_c, 3, 60, 66
5, 1588860, Note_off_c, 3, 60, 64
5, 1588860, Note_on_c, 3, 55, 70
5, 1589095, Note_off_c, 3, 55, 64
5, 1589340, Note_on_c, 3, 60, 73
5, 1589575, Note_off_c, 3, 60, 64
5, 1589580, Note_on_c, 3, 60, 75
5, 1590300, Note_off_c, 3, 60, 64
5, 1590300, Note_on_c, 3, 55, 75
5, 1590535, Note_off_c, 3, 55, 64
5, 1590780, Note_on_c, 3, 60, 75
5, 1591015, Note_off_c, 3, 60, 64
5, 1591020, Note_on_c, 3, 60, 75
5, 1591740, Note_off_c, 3, 60, 64
5, 1591740, Note_on_c, 3, 55, 75
5, 1591975, Note_off_c, 3, 55, 64
5, 1592220, Note_on_c, 3, 60, 75
5, 1592455, Note_off_c, 3, 60, 64
5, 1592460, Note_on_c, 3, 48, 45
5, 1592460, Note_on_c, 3, 55, 45
5, 1595220, Note_off_c, 3, 55, 64
5, 1595220, Note_off_c, 3, 48, 64
5, 1595340, Note_on_c, 3, 48, 45
5, 1595340, Note_on_c, 3, 55, 45
5, 1598100, Note_off_c, 3, 55, 64
5, 1598100, Note_off_c, 3, 48, 64
5, 1598220, Note_on_c, 3, 48, 30
5, 1598220, Note_on_c, 3, 55, 30
5, 1600300, Note_off_c, 3, 55, 64
5, 1600300, Note_off_c, 3, 48, 64
5, 1600380, Note_on_c, 3, 55, 30
5, 1600380, Note_on_c, 3, 58, 30
5, 1603860, Note_off_c, 3, 58, 64
5, 1603860, Note_off_c, 3, 55, 64
5, 1603980, Note_on_c, 3, 53, 45
5, 1603980, Note_on_c, 3, 57, 45
5, 1608300, Note_off_c, 3, 57, 64
5, 1608300, Note_off_c, 3, 53, 64
5, 1608300, Note_on_c, 3, 50, 45
5, 1608300, Note_on_c, 3, 53, 45
5, 1609500, Note_off_c, 3, 53, 64
5, 1609500, Note_off_c, 3, 50, 64
5, 1609500, Note_on_c, 3, 52, 45
5, 1609500, Note_on_c, 3, 55, 45
5, 1609740, Note_off_c, 3, 55, 64
5, 1609740, Note_off_c, 3, 52, 64
5, 1609740, Note_on_c, 3, 52, 45
5, 1609740, Note_on_c, 3, 55, 45
5, 1611180, Note_off_c, 3, 55, 64
5, 1611180, Note_off_c, 3, 52, 64
5, 1611180, Note_on_c, 3, 53, 45
5, 1611180, Note_on_c, 3, 57, 45
5, 1612620, Note_off_c, 3, 57, 64
5, 1612620, Note_on_c, 3, 55, 45
5, 1613340, Note_off_c, 3, 53, 64
5, 1613340, Note_off_c, 3, 55, 64
5, 1613340, Note_on_c, 3, 52, 45
5, 1613340, Note_on_c, 3, 55, 45
5, 1614060, Note_off_c, 3, 55, 64
5, 1614060, Note_off_c, 3, 52, 64
5, 1614060, Note_on_c, 3, 53, 45
5, 1614060, Note_on_c, 3, 57, 45
5, 1615380, Note_off_c, 3, 57, 64
5, 1615380, Note_off_c, 3, 53, 64
5, 1615500, Note_on_c, 3, 53, 45
5, 1615500, Note_on_c, 3, 57, 45
5, 1615735, Note_off_c, 3, 57, 64
5, 1615735, Note_off_c, 3, 53, 64
5, 1615740, Note_on_c, 3, 53, 45
5, 1615740, Note_on_c, 3, 57, 45
5, 1615975, Note_off_c, 3, 57, 64
5, 1615975, Note_off_c, 3, 53, 64
5, 1615980, Note_on_c, 3, 53, 45
5, 1615980, Note_on_c, 3, 57, 45
5, 1616215, Note_off_c, 3, 57, 64
5, 1616215, Note_off_c, 3, 53, 64
5, 1616220, Note_on_c, 3, 53, 45
5, 1616220, Note_on_c, 3, 57, 45
5, 1616455, Note_off_c, 3, 57, 64
5, 1616455, Note_off_c, 3, 53, 64
5, 1616460, Note_on_c, 3, 53, 45
5, 1616460, Note_on_c, 3, 57, 45
5, 1616695, Note_off_c, 3, 57, 64
5, 1616695, Note_off_c, 3, 53, 64
5, 1616700, Note_on_c, 3, 53, 45
5, 1616700, Note_on_c, 3, 57, 45
5, 1616935, Note_off_c, 3, 57, 64
5, 1616935, Note_off_c, 3, 53, 64
5, 1616940, Note_on_c, 3, 53, 45
5, 1616940, Note_on_c, 3, 57, 45
5, 1617175, Note_off_c, 3, 57, 64
5, 1617175, Note_off_c, 3, 53, 64
5, 1617180, Note_on_c, 3, 53, 45
5, 1617180, Note_on_c, 3, 57, 45
5, 1617415, Note_off_c, 3, 57, 64
5, 1617415, Note_off_c, 3, 53, 64
5, 1617420, Note_on_c, 3, 53, 45
5, 1617420, Note_on_c, 3, 57, 45
5, 1617655, Note_off_c, 3, 57, 64
5, 1617655, Note_off_c, 3, 53, 64
5, 1617660, Note_on_c, 3, 53, 45
5, 1617660, Note_on_c, 3, 57, 45
5, 1617895, Note_off_c, 3, 57, 64
5, 1617895, Note_off_c, 3, 53, 64
5, 1617900, Note_on_c, 3, 53, 45
5, 1617900, Note_on_c, 3, 57, 45
5, 1618135, Note_off_c, 3, 57, 64
5, 1618135, Note_off_c, 3, 53, 64
5, 1618140, Note_on_c, 3, 53, 45
5, 1618140, Note_on_c, 3, 57, 45
5, 1618375, Note_off_c, 3, 57, 64
5, 1618375, Note_off_c, 3, 53, 64
5, 1618380, Note_on_c, 3, 53, 45
5, 1618380, Note_on_c, 3, 57, 45
5, 1618615, Note_off_c, 3, 57, 64
5, 1618615, Note_off_c, 3, 53, 64
5, 1618620, Note_on_c, 3, 53, 45
5, 1618620, Note_on_c, 3, 57, 45
5, 1618855, Note_off_c, 3, 57, 64
5, 1618855, Note_off_c, 3, 53, 64
5, 1618860, Note_on_c, 3, 53, 45
5, 1618860, Note_on_c, 3, 57, 45
5, 1619095, Note_off_c, 3, 57, 64
5, 1619095, Note_off_c, 3, 53, 64
5, 1619100, Note_on_c, 3, 53, 45
5, 1619100, Note_on_c, 3, 57, 45
5, 1619335, Note_off_c, 3, 57, 64
5, 1619335, Note_off_c, 3, 53, 64
5, 1619340, Note_on_c, 3, 53, 45
5, 1619340, Note_on_c, 3, 57, 45
5, 1619575, Note_off_c, 3, 57, 64
5, 1619575, Note_off_c, 3, 53, 64
5, 1619580, Note_on_c, 3, 53, 45
5, 1619580, Note_on_c, 3, 57, 45
5, 1619815, Note_off_c, 3, 57, 64
5, 1619815, Note_off_c, 3, 53, 64
5, 1619820, Note_on_c, 3, 50, 45
5, 1619820, Note_on_c, 3, 53, 45
5, 1620055, Note_off_c, 3, 53, 64
5, 1620055, Note_off_c, 3, 50, 64
5, 1620060, Note_on_c, 3, 50, 46
5, 1620060, Note_on_c, 3, 53, 46
5, 1620295, Note_off_c, 3, 53, 64
5, 1620295, Note_off_c, 3, 50, 64
5, 1620300, Note_on_c, 3, 50, 46
5, 1620300, Note_on_c, 3, 53, 46
5, 1620535, Note_off_c, 3, 53, 64
5, 1620535, Note_off_c, 3, 50, 64
5, 1620540, Note_on_c, 3, 50, 47
5, 1620540, Note_on_c, 3, 53, 47
5, 1620775, Note_off_c, 3, 53, 64
5, 1620775, Note_off_c, 3, 50, 64
5, 1620780, Note_on_c, 3, 50, 48
5, 1620780, Note_on_c, 3, 53, 48
5, 1621015, Note_off_c, 3, 53, 64
5, 1621015, Note_off_c, 3, 50, 64
5, 1621020, Note_on_c, 3, 52, 49
5, 1621020, Note_on_c, 3, 55, 49
5, 1621255, Note_off_c, 3, 55, 64
5, 1621255, Note_off_c, 3, 52, 64
5, 1621260, Note_on_c, 3, 52, 50
5, 1621260, Note_on_c, 3, 55, 50
5, 1621495, Note_off_c, 3, 55, 64
5, 1621495, Note_off_c, 3, 52, 64
5, 1621500, Note_on_c, 3, 52, 51
5, 1621500, Note_on_c, 3, 55, 51
5, 1621735, Note_off_c, 3, 55, 64
5, 1621735, Note_off_c, 3, 52, 64
5, 1621740, Note_on_c, 3, 52, 52
5, 1621740, Note_on_c, 3, 55, 52
5, 1621975, Note_off_c, 3, 55, 64
5, 1621975, Note_off_c, 3, 52, 64
5, 1621980, Note_on_c, 3, 52, 53
5, 1621980, Note_on_c, 3, 55, 53
5, 1622215, Note_off_c, 3, 55, 64
5, 1622215, Note_off_c, 3, 52, 64
5, 1622220, Note_on_c, 3, 52, 54
5, 1622220, Note_on_c, 3, 55, 54
5, 1622455, Note_off_c, 3, 55, 64
5, 1622455, Note_off_c, 3, 52, 64
5, 1622460, Note_on_c, 3, 48, 55
5, 1622460, Note_on_c, 3, 55, 55
5, 1622695, Note_off_c, 3, 55, 64
5, 1622695, Note_off_c, 3, 48, 64
5, 1622700, Note_on_c, 3, 53, 56
5, 1622700, Note_on_c, 3, 57, 56
5, 1622935, Note_off_c, 3, 57, 64
5, 1622935, Note_off_c, 3, 53, 64
5, 1622940, Note_on_c, 3, 53, 57
5, 1622940, Note_on_c, 3, 57, 57
5, 1623175, Note_off_c, 3, 57, 64
5, 1623175, Note_off_c, 3, 53, 64
5, 1623180, Note_on_c, 3, 53, 58
5, 1623180, Note_on_c, 3, 57, 58
5, 1623415, Note_off_c, 3, 57, 64
5, 1623415, Note_off_c, 3, 53, 64
5, 1623420, Note_on_c, 3, 50, 59
5, 1623420, Note_on_c, 3, 53, 59
5, 1623655, Note_off_c, 3, 53, 64
5, 1623655, Note_off_c, 3, 50, 64
5, 1623660, Note_on_c, 3, 50, 60
5, 1623660, Note_on_c, 3, 53, 60
5, 1623895, Note_off_c, 3, 53, 64
5, 1623895, Note_off_c, 3, 50, 64
5, 1623900, Note_on_c, 3, 45, 61
5, 1623900, Note_on_c, 3, 53, 61
5, 1624135, Note_off_c, 3, 53, 64
5, 1624135, Note_off_c, 3, 45, 64
5, 1624140, Note_on_c, 3, 46, 62
5, 1624140, Note_on_c, 3, 53, 62
5, 1624375, Note_off_c, 3, 53, 64
5, 1624375, Note_off_c, 3, 46, 64
5, 1624380, Note_on_c, 3, 46, 63
5, 1624380, Note_on_c, 3, 53, 63
5, 1624615, Note_off_c, 3, 53, 64
5, 1624615, Note_off_c, 3, 46, 64
5, 1624620, Note_on_c, 3, 46, 64
5, 1624620, Note_on_c, 3, 53, 64
5, 1624855, Note_off_c, 3, 53, 64
5, 1624855, Note_off_c, 3, 46, 64
5, 1624860, Note_on_c, 3, 48, 65
5, 1624860, Note_on_c, 3, 52, 65
5, 1625095, Note_off_c, 3, 52, 64
5, 1625095, Note_off_c, 3, 48, 64
5, 1625100, Note_on_c, 3, 48, 66
5, 1625100, Note_on_c, 3, 52, 66
5, 1625335, Note_off_c, 3, 52, 64
5, 1625335, Note_off_c, 3, 48, 64
5, 1625340, Note_on_c, 3, 48, 67
5, 1625340, Note_on_c, 3, 52, 67
5, 1625575, Note_off_c, 3, 52, 64
5, 1625575, Note_off_c, 3, 48, 64
5, 1625580, Note_on_c, 3, 41, 68
5, 1625580, Note_on_c, 3, 53, 68
5, 1625815, Note_off_c, 3, 53, 64
5, 1625815, Note_off_c, 3, 41, 64
5, 1625820, Note_on_c, 3, 41, 69
5, 1625820, Note_on_c, 3, 53, 69
5, 1626055, Note_off_c, 3, 53, 64
5, 1626055, Note_off_c, 3, 41, 64
5, 1626060, Note_on_c, 3, 41, 70
5, 1626060, Note_on_c, 3, 53, 70
5, 1626295, Note_off_c, 3, 53, 64
5, 1626295, Note_off_c, 3, 41, 64
5, 1626300, Note_on_c, 3, 41, 71
5, 1626300, Note_on_c, 3, 53, 71
5, 1626535, Note_off_c, 3, 53, 64
5, 1626535, Note_off_c, 3, 41, 64
5, 1626540, Note_on_c, 3, 41, 72
5, 1626540, Note_on_c, 3, 53, 72
5, 1626775, Note_off_c, 3, 53, 64
5, 1626775, Note_off_c, 3, 41, 64
5, 1626780, Note_on_c, 3, 41, 73
5, 1626780, Note_on_c, 3, 53, 73
5, 1627015, Note_off_c, 3, 53, 64
5, 1627015, Note_off_c, 3, 41, 64
5, 1627020, Note_on_c, 3, 41, 75
5, 1627020, Note_on_c, 3, 53, 75
5, 1627255, Note_off_c, 3, 53, 64
5, 1627255, Note_off_c, 3, 41, 64
5, 1627260, Note_on_c, 3, 41, 75
5, 1627260, Note_on_c, 3, 53, 75
5, 1627495, Note_off_c, 3, 53, 64
5, 1627495, Note_off_c, 3, 41, 64
5, 1627500, Note_on_c, 3, 41, 75
5, 1627500, Note_on_c, 3, 53, 75
5, 1627735, Note_off_c, 3, 53, 64
5, 1627735, Note_off_c, 3, 41, 64
5, 1627740, Note_on_c, 3, 41, 75
5, 1627740, Note_on_c, 3, 53, 75
5, 1627975, Note_off_c, 3, 53, 64
5, 1627975, Note_off_c, 3, 41, 64
5, 1627980, Note_on_c, 3, 41, 75
5, 1627980, Note_on_c, 3, 53, 75
5, 1628215, Note_off_c, 3, 53, 64
5, 1628215, Note_off_c, 3, 41, 64
5, 1628220, Note_on_c, 3, 41, 75
5, 1628220, Note_on_c, 3, 53, 75
5, 1628455, Note_off_c, 3, 53, 64
5, 1628455, Note_off_c, 3, 41, 64
5, 1628460, Note_on_c, 3, 41, 75
5, 1628460, Note_on_c, 3, 53, 75
5, 1628695, Note_off_c, 3, 53, 64
5, 1628695, Note_off_c, 3, 41, 64
5, 1628700, Note_on_c, 3, 41, 75
5, 1628700, Note_on_c, 3, 53, 75
5, 1628935, Note_off_c, 3, 53, 64
5, 1628935, Note_off_c, 3, 41, 64
5, 1628940, Note_on_c, 3, 41, 75
5, 1628940, Note_on_c, 3, 53, 75
5, 1629175, Note_off_c, 3, 53, 64
5, 1629175, Note_off_c, 3, 41, 64
5, 1629180, Note_on_c, 3, 41, 75
5, 1629180, Note_on_c, 3, 53, 75
5, 1629415, Note_off_c, 3, 53, 64
5, 1629415, Note_off_c, 3, 41, 64
5, 1629420, Note_on_c, 3, 41, 75
5, 1629420, Note_on_c, 3, 53, 75
5, 1629655, Note_off_c, 3, 53, 64
5, 1629655, Note_off_c, 3, 41, 64
5, 1629660, Note_on_c, 3, 41, 75
5, 1629660, Note_on_c, 3, 53, 75
5, 1629895, Note_off_c, 3, 53, 64
5, 1629895, Note_off_c, 3, 41, 64
5, 1629900, Note_on_c, 3, 41, 75
5, 1629900, Note_on_c, 3, 53, 75
5, 1630135, Note_off_c, 3, 53, 64
5, 1630135, Note_off_c, 3, 41, 64
5, 1630140, Note_on_c, 3, 41, 75
5, 1630140, Note_on_c, 3, 53, 75
5, 1630375, Note_off_c, 3, 53, 64
5, 1630375, Note_off_c, 3, 41, 64
5, 1630380, Note_on_c, 3, 41, 75
5, 1630380, Note_on_c, 3, 53, 75
5, 1630615, Note_off_c, 3, 53, 64
5, 1630615, Note_off_c, 3, 41, 64
5, 1630620, Note_on_c, 3, 41, 75
5, 1630620, Note_on_c, 3, 53, 75
5, 1630855, Note_off_c, 3, 53, 64
5, 1630855, Note_off_c, 3, 41, 64
5, 1630860, Note_on_c, 3, 41, 75
5, 1630860, Note_on_c, 3, 53, 75
5, 1631095, Note_off_c, 3, 53, 64
5, 1631095, Note_off_c, 3, 41, 64
5, 1631100, Note_on_c, 3, 41, 75
5, 1631100, Note_on_c, 3, 53, 75
5, 1631335, Note_off_c, 3, 53, 64
5, 1631335, Note_off_c, 3, 41, 64
5, 1631340, Note_on_c, 3, 41, 75
5, 1631340, Note_on_c, 3, 53, 75
5, 1631575, Note_off_c, 3, 53, 64
5, 1631575, Note_off_c, 3, 41, 64
5, 1631580, Note_on_c, 3, 41, 75
5, 1631580, Note_on_c, 3, 53, 75
5, 1631815, Note_off_c, 3, 53, 64
5, 1631815, Note_off_c, 3, 41, 64
5, 1631820, Note_on_c, 3, 41, 75
5, 1631820, Note_on_c, 3, 53, 75
5, 1632055, Note_off_c, 3, 53, 64
5, 1632055, Note_off_c, 3, 41, 64
5, 1632060, Note_on_c, 3, 41, 75
5, 1632060, Note_on_c, 3, 53, 75
5, 1632295, Note_off_c, 3, 53, 64
5, 1632295, Note_off_c, 3, 41, 64
5, 1632300, Note_on_c, 3, 41, 75
5, 1632300, Note_on_c, 3, 53, 75
5, 1632535, Note_off_c, 3, 53, 64
5, 1632535, Note_off_c, 3, 41, 64
5, 1632540, Note_on_c, 3, 41, 75
5, 1632540, Note_on_c, 3, 53, 75
5, 1632775, Note_off_c, 3, 53, 64
5, 1632775, Note_off_c, 3, 41, 64
5, 1632780, Note_on_c, 3, 40, 75
5, 1632780, Note_on_c, 3, 52, 75
5, 1633015, Note_off_c, 3, 52, 64
5, 1633015, Note_off_c, 3, 40, 64
5, 1633020, Note_on_c, 3, 40, 75
5, 1633020, Note_on_c, 3, 52, 75
5, 1633255, Note_off_c, 3, 52, 64
5, 1633255, Note_off_c, 3, 40, 64
5, 1633260, Note_on_c, 3, 40, 75
5, 1633260, Note_on_c, 3, 52, 75
5, 1633495, Note_off_c, 3, 52, 64
5, 1633495, Note_off_c, 3, 40, 64
5, 1633500, Note_on_c, 3, 40, 75
5, 1633500, Note_on_c, 3, 52, 75
5, 1633735, Note_off_c, 3, 52, 64
5, 1633735, Note_off_c, 3, 40, 64
5, 1633740, Note_on_c, 3, 40, 75
5, 1633740, Note_on_c, 3, 52, 75
5, 1633975, Note_off_c, 3, 52, 64
5, 1633975, Note_off_c, 3, 40, 64
5, 1633980, Note_on_c, 3, 36, 75
5, 1633980, Note_on_c, 3, 48, 75
5, 1634215, Note_off_c, 3, 48, 64
5, 1634215, Note_off_c, 3, 36, 64
5, 1634220, Note_on_c, 3, 41, 75
5, 1634220, Note_on_c, 3, 53, 75
5, 1634455, Note_off_c, 3, 53, 64
5, 1634455, Note_off_c, 3, 41, 64
5, 1634460, Note_on_c, 3, 41, 75
5, 1634460, Note_on_c, 3, 53, 75
5, 1634695, Note_off_c, 3, 53, 64
5, 1634695, Note_off_c, 3, 41, 64
5, 1634700, Note_on_c, 3, 41, 75
5, 1634700, Note_on_c, 3, 53, 75
5, 1634935, Note_off_c, 3, 53, 64
5, 1634935, Note_off_c, 3, 41, 64
5, 1634940, Note_on_c, 3, 38, 75
5, 1634940, Note_on_c, 3, 50, 75
5, 1635175, Note_off_c, 3, 50, 64
5, 1635175, Note_off_c, 3, 38, 64
5, 1635180, Note_on_c, 3, 38, 75
5, 1635180, Note_on_c, 3, 50, 75
5, 1635415, Note_off_c, 3, 50, 64
5, 1635415, Note_off_c, 3, 38, 64
5, 1635420, Note_on_c, 3, 45, 75
5, 1635655, Note_off_c, 3, 45, 64
5, 1635660, Note_on_c, 3, 34, 75
5, 1635660, Note_on_c, 3, 46, 75
5, 1635895, Note_off_c, 3, 46, 64
5, 1635895, Note_off_c, 3, 34, 64
5, 1635900, Note_on_c, 3, 34, 75
5, 1635900, Note_on_c, 3, 46, 75
5, 1636135, Note_off_c, 3, 46, 64
5, 1636135, Note_off_c, 3, 34, 64
5, 1636140, Note_on_c, 3, 34, 75
5, 1636140, Note_on_c, 3, 46, 75
5, 1636375, Note_off_c, 3, 46, 64
5, 1636375, Note_off_c, 3, 34, 64
5, 1636380, Note_on_c, 3, 36, 75
5, 1636380, Note_on_c, 3, 48, 75
5, 1636615, Note_off_c, 3, 48, 64
5, 1636615, Note_off_c, 3, 36, 64
5, 1636620, Note_on_c, 3, 36, 75
5, 1636620, Note_on_c, 3, 48, 75
5, 1636855, Note_off_c, 3, 48, 64
5, 1636855, Note_off_c, 3, 36, 64
5, 1636860, Note_on_c, 3, 36, 75
5, 1636860, Note_on_c, 3, 48, 75
5, 1637095, Note_off_c, 3, 48, 64
5, 1637095, Note_off_c, 3, 36, 64
5, 1637100, Note_on_c, 3, 41, 75
5, 1637100, Note_on_c, 3, 53, 75
5, 1637335, Note_off_c, 3, 53, 64
5, 1637335, Note_off_c, 3, 41, 64
5, 1639740, Note_on_c, 3, 52, 75
5, 1639740, Note_on_c, 3, 55, 75
5, 1639975, Note_off_c, 3, 55, 64
5, 1639975, Note_off_c, 3, 52, 64
5, 1639980, Note_on_c, 3, 53, 75
5, 1640700, Note_off_c, 3, 53, 64
5, 1640700, Note_on_c, 3, 55, 75
5, 1641420, Note_off_c, 3, 55, 64
5, 1641420, Note_on_c, 3, 53, 75
5, 1641420, Note_on_c, 3, 57, 75
5, 1642060, Note_off_c, 3, 57, 64
5, 1642060, Note_off_c, 3, 53, 64
5, 1642140, Note_on_c, 3, 55, 75
5, 1642140, Note_on_c, 3, 58, 75
5, 1642540, Note_off_c, 3, 58, 64
5, 1642540, Note_off_c, 3, 55, 64
5, 1642620, Note_on_c, 3, 52, 75
5, 1642620, Note_on_c, 3, 55, 75
5, 1642855, Note_off_c, 3, 55, 64
5, 1642855, Note_off_c, 3, 52, 64
5, 1644060, Note_on_c, 3, 48, 75
5, 1644060, Note_on_c, 3, 55, 75
5, 1644300, Note_off_c, 3, 55, 64
5, 1644300, Note_off_c, 3, 48, 64
5, 1644300, Note_on_c, 3, 53, 75
5, 1644300, Note_on_c, 3, 57, 75
5, 1645020, Note_off_c, 3, 57, 64
5, 1645020, Note_off_c, 3, 53, 64
5, 1645020, Note_on_c, 3, 55, 75
5, 1645020, Note_on_c, 3, 59, 75
5, 1645420, Note_off_c, 3, 59, 64
5, 1645420, Note_off_c, 3, 55, 64
5, 1645500, Note_on_c, 3, 55, 75
5, 1645500, Note_on_c, 3, 59, 75
5, 1645740, Note_off_c, 3, 59, 64
5, 1645740, Note_off_c, 3, 55, 64
5, 1645740, Note_on_c, 3, 57, 75
5, 1645740, Note_on_c, 3, 60, 75
5, 1646380, Note_off_c, 3, 60, 64
5, 1646380, Note_off_c, 3, 57, 64
5, 1646460, Note_on_c, 3, 59, 75
5, 1646460, Note_on_c, 3, 62, 75
5, 1646860, Note_off_c, 3, 62, 64
5, 1646860, Note_off_c, 3, 59, 64
5, 1646940, Note_on_c, 3, 59, 75
5, 1646940, Note_on_c, 3, 62, 75
5, 1647175, Note_off_c, 3, 62, 64
5, 1647175, Note_off_c, 3, 59, 64
5, 1647180, Note_on_c, 3, 60, 75
5, 1647180, Note_on_c, 3, 64, 75
5, 1647820, Note_off_c, 3, 64, 64
5, 1647820, Note_off_c, 3, 60, 64
5, 1647900, Note_on_c, 3, 62, 75
5, 1647900, Note_on_c, 3, 65, 75
5, 1648300, Note_off_c, 3, 65, 64
5, 1648300, Note_off_c, 3, 62, 64
5, 1648380, Note_on_c, 3, 55, 60
5, 1648380, Note_on_c, 3, 59, 60
5, 1648615, Note_off_c, 3, 59, 64
5, 1648615, Note_off_c, 3, 55, 64
5, 1648620, Note_on_c, 3, 52, 60
5, 1648620, Note_on_c, 3, 55, 60
5, 1649260, Note_off_c, 3, 55, 64
5, 1649260, Note_off_c, 3, 52, 64
5, 1649340, Note_on_c, 3, 53, 60
5, 1649340, Note_on_c, 3, 57, 60
5, 1649980, Note_off_c, 3, 57, 64
5, 1649980, Note_off_c, 3, 53, 64
5, 1650060, Note_on_c, 3, 55, 60
5, 1650060, Note_on_c, 3, 58, 60
5, 1650700, Note_off_c, 3, 58, 64
5, 1650700, Note_off_c, 3, 55, 64
5, 1650780, Note_on_c, 3, 56, 60
5, 1650780, Note_on_c, 3, 59, 60
5, 1651180, Note_off_c, 3, 59, 64
5, 1651180, Note_off_c, 3, 56, 64
5, 1651260, Note_on_c, 3, 56, 60
5, 1651260, Note_on_c, 3, 59, 60
5, 1651495, Note_off_c, 3, 59, 64
5, 1651495, Note_off_c, 3, 56, 64
5, 1651500, Note_on_c, 3, 57, 60
5, 1651500, Note_on_c, 3, 60, 60
5, 1652620, Note_off_c, 3, 60, 64
5, 1652620, Note_off_c, 3, 57, 64
5, 1652700, Note_on_c, 3, 53, 60
5, 1652700, Note_on_c, 3, 57, 60
5, 1652935, Note_off_c, 3, 57, 64
5, 1652935, Note_off_c, 3, 53, 64
5, 1652940, Note_on_c, 3, 53, 60
5, 1652940, Note_on_c, 3, 57, 60
5, 1653340, Note_off_c, 3, 57, 64
5, 1653340, Note_off_c, 3, 53, 64
5, 1653420, Note_on_c, 3, 53, 60
5, 1653420, Note_on_c, 3, 57, 60
5, 1653655, Note_off_c, 3, 57, 64
5, 1653655, Note_off_c, 3, 53, 64
5, 1653660, Note_on_c, 3, 53, 60
5, 1653660, Note_on_c, 3, 57, 60
5, 1654060, Note_off_c, 3, 57, 64
5, 1654060, Note_off_c, 3, 53, 64
5, 1654140, Note_on_c, 3, 53, 60
5, 1654140, Note_on_c, 3, 57, 60
5, 1654375, Note_off_c, 3, 57, 64
5, 1654375, Note_off_c, 3, 53, 64
5, 1654380, Note_on_c, 3, 55, 60
5, 1654380, Note_on_c, 3, 58, 60
5, 1655500, Note_off_c, 3, 58, 64
5, 1655500, Note_off_c, 3, 55, 64
5, 1655580, Note_on_c, 3, 52, 60
5, 1655580, Note_on_c, 3, 55, 60
5, 1655815, Note_off_c, 3, 55, 64
5, 1655815, Note_off_c, 3, 52, 64
5, 1655820, Note_on_c, 3, 52, 60
5, 1655820, Note_on_c, 3, 55, 60
5, 1656220, Note_off_c, 3, 55, 64
5, 1656220, Note_off_c, 3, 52, 64
5, 1656300, Note_on_c, 3, 52, 60
5, 1656300, Note_on_c, 3, 55, 60
5, 1656535, Note_off_c, 3, 55, 64
5, 1656535, Note_off_c, 3, 52, 64
5, 1656540, Note_on_c, 3, 52, 60
5, 1656540, Note_on_c, 3, 55, 60
5, 1656940, Note_off_c, 3, 55, 64
5, 1656940, Note_off_c, 3, 52, 64
5, 1657020, Note_on_c, 3, 52, 60
5, 1657020, Note_on_c, 3, 55, 60
5, 1657255, Note_off_c, 3, 55, 64
5, 1657255, Note_off_c, 3, 52, 64
5, 1657260, Note_on_c, 3, 57, 60
5, 1657260, Note_on_c, 3, 60, 60
5, 1657660, Note_off_c, 3, 60, 64
5, 1657660, Note_off_c, 3, 57, 64
5, 1657740, Note_on_c, 3, 57, 60
5, 1657740, Note_on_c, 3, 60, 60
5, 1657975, Note_off_c, 3, 60, 64
5, 1657975, Note_off_c, 3, 57, 64
5, 1657980, Note_on_c, 3, 57, 60
5, 1657980, Note_on_c, 3, 60, 60
5, 1658380, Note_off_c, 3, 60, 64
5, 1658380, Note_off_c, 3, 57, 64
5, 1658460, Note_on_c, 3, 57, 60
5, 1658460, Note_on_c, 3, 60, 60
5, 1658695, Note_off_c, 3, 60, 64
5, 1658695, Note_off_c, 3, 57, 64
5, 1658700, Note_on_c, 3, 57, 60
5, 1658700, Note_on_c, 3, 60, 60
5, 1659100, Note_off_c, 3, 60, 64
5, 1659100, Note_off_c, 3, 57, 64
5, 1659180, Note_on_c, 3, 53, 60
5, 1659180, Note_on_c, 3, 57, 60
5, 1659415, Note_off_c, 3, 57, 64
5, 1659415, Note_off_c, 3, 53, 64
5, 1659420, Note_on_c, 3, 53, 60
5, 1659420, Note_on_c, 3, 57, 60
5, 1659820, Note_off_c, 3, 57, 64
5, 1659820, Note_off_c, 3, 53, 64
5, 1659900, Note_on_c, 3, 53, 60
5, 1659900, Note_on_c, 3, 57, 60
5, 1660135, Note_off_c, 3, 57, 64
5, 1660135, Note_off_c, 3, 53, 64
5, 1660140, Note_on_c, 3, 55, 60
5, 1660140, Note_on_c, 3, 58, 60
5, 1660540, Note_off_c, 3, 58, 64
5, 1660540, Note_off_c, 3, 55, 64
5, 1660620, Note_on_c, 3, 55, 60
5, 1660620, Note_on_c, 3, 58, 60
5, 1660855, Note_off_c, 3, 58, 64
5, 1660855, Note_off_c, 3, 55, 64
5, 1660860, Note_on_c, 3, 55, 60
5, 1660860, Note_on_c, 3, 58, 60
5, 1661260, Note_off_c, 3, 58, 64
5, 1661260, Note_off_c, 3, 55, 64
5, 1661340, Note_on_c, 3, 55, 60
5, 1661340, Note_on_c, 3, 58, 60
5, 1661575, Note_off_c, 3, 58, 64
5, 1661575, Note_off_c, 3, 55, 64
5, 1661580, Note_on_c, 3, 55, 60
5, 1661580, Note_on_c, 3, 58, 60
5, 1661980, Note_off_c, 3, 58, 64
5, 1661980, Note_off_c, 3, 55, 64
5, 1662060, Note_on_c, 3, 52, 60
5, 1662060, Note_on_c, 3, 55, 60
5, 1662295, Note_off_c, 3, 55, 64
5, 1662295, Note_off_c, 3, 52, 64
5, 1662300, Note_on_c, 3, 52, 60
5, 1662300, Note_on_c, 3, 55, 60
5, 1662700, Note_off_c, 3, 55, 64
5, 1662700, Note_off_c, 3, 52, 64
5, 1662780, Note_on_c, 3, 52, 60
5, 1662780, Note_on_c, 3, 55, 60
5, 1663015, Note_off_c, 3, 55, 64
5, 1663015, Note_off_c, 3, 52, 64
5, 1663020, Note_on_c, 3, 53, 60
5, 1663020, Note_on_c, 3, 57, 60
5, 1663420, Note_off_c, 3, 57, 64
5, 1663420, Note_off_c, 3, 53, 64
5, 1664940, Note_on_c, 3, 53, 60
5, 1664940, Note_on_c, 3, 57, 60
5, 1665180, Note_off_c, 3, 57, 64
5, 1665180, Note_off_c, 3, 53, 64
5, 1665180, Note_on_c, 3, 52, 60
5, 1665180, Note_on_c, 3, 55, 60
5, 1665580, Note_off_c, 3, 55, 64
5, 1665580, Note_off_c, 3, 52, 64
5, 1665660, Note_on_c, 3, 52, 60
5, 1665660, Note_on_c, 3, 55, 60
5, 1665900, Note_off_c, 3, 55, 64
5, 1665900, Note_off_c, 3, 52, 64
5, 1665900, Note_on_c, 3, 53, 60
5, 1665900, Note_on_c, 3, 57, 60
5, 1666300, Note_off_c, 3, 57, 64
5, 1666300, Note_off_c, 3, 53, 64
5, 1667100, Note_on_c, 3, 53, 45
5, 1667100, Note_on_c, 3, 62, 45
5, 1667340, Note_off_c, 3, 62, 64
5, 1667340, Note_on_c, 3, 60, 45
5, 1667580, Note_off_c, 3, 53, 64
5, 1667580, Note_off_c, 3, 60, 64
5, 1667580, Note_on_c, 3, 58, 55
5, 1667580, Note_on_c, 3, 64, 55
5, 1667820, Note_off_c, 3, 64, 64
5, 1667820, Note_off_c, 3, 58, 64
5, 1667820, Note_on_c, 3, 57, 65
5, 1667820, Note_on_c, 3, 65, 65
5, 1668060, Note_off_c, 3, 65, 64
5, 1668060, Note_off_c, 3, 57, 64
5, 1668060, Note_on_c, 3, 55, 75
5, 1668060, Note_on_c, 3, 58, 75
5, 1668460, Note_off_c, 3, 58, 64
5, 1668460, Note_off_c, 3, 55, 64
5, 1668540, Note_on_c, 3, 55, 75
5, 1668540, Note_on_c, 3, 60, 75
5, 1668620, Note_off_c, 3, 60, 64
5, 1668620, Note_off_c, 3, 55, 64
5, 1668780, Note_on_c, 3, 57, 75
5, 1668780, Note_on_c, 3, 60, 75
5, 1669500, Note_off_c, 3, 60, 64
5, 1669500, Note_off_c, 3, 57, 64
5, 1669500, Note_on_c, 3, 53, 75
5, 1669500, Note_on_c, 3, 57, 75
5, 1669735, Note_off_c, 3, 57, 64
5, 1669735, Note_off_c, 3, 53, 64
5, 1669980, Note_on_c, 3, 57, 75
5, 1669980, Note_on_c, 3, 60, 75
5, 1670215, Note_off_c, 3, 60, 64
5, 1670215, Note_off_c, 3, 57, 64
5, 1670220, Note_on_c, 3, 58, 75
5, 1670220, Note_on_c, 3, 62, 75
5, 1670940, Note_off_c, 3, 62, 64
5, 1670940, Note_off_c, 3, 58, 64
5, 1670940, Note_on_c, 3, 55, 75
5, 1670940, Note_on_c, 3, 58, 75
5, 1671175, Note_off_c, 3, 58, 64
5, 1671175, Note_off_c, 3, 55, 64
5, 1671420, Note_on_c, 3, 58, 75
5, 1671420, Note_on_c, 3, 62, 75
5, 1671655, Note_off_c, 3, 62, 64
5, 1671655, Note_off_c, 3, 58, 64
5, 1671660, Note_on_c, 3, 53, 60
5, 1671660, Note_on_c, 3, 57, 60
5, 1671895, Note_off_c, 3, 57, 64
5, 1671895, Note_off_c, 3, 53, 64
5, 1678140, Note_on_c, 3, 55, 30
5, 1678140, Note_on_c, 3, 62, 30
5, 1679260, Note_off_c, 3, 62, 64
5, 1679260, Note_off_c, 3, 55, 64
5, 1679580, Note_on_c, 3, 55, 30
5, 1679580, Note_on_c, 3, 62, 30
5, 1679980, Note_off_c, 3, 62, 64
5, 1679980, Note_off_c, 3, 55, 64
5, 1680300, Note_on_c, 3, 55, 30
5, 1680300, Note_on_c, 3, 62, 30
5, 1680700, Note_off_c, 3, 62, 64
5, 1680700, Note_off_c, 3, 55, 64
5, 1681020, Note_on_c, 3, 55, 30
5, 1681020, Note_on_c, 3, 62, 30
5, 1681420, Note_off_c, 3, 62, 64
5, 1681420, Note_off_c, 3, 55, 64
5, 1681740, Note_on_c, 3, 55, 30
5, 1681740, Note_on_c, 3, 62, 30
5, 1682140, Note_off_c, 3, 62, 64
5, 1682140, Note_off_c, 3, 55, 64
5, 1682460, Note_on_c, 3, 55, 30
5, 1682460, Note_on_c, 3, 62, 30
5, 1682860, Note_off_c, 3, 62, 64
5, 1682860, Note_off_c, 3, 55, 64
5, 1683180, Note_on_c, 3, 55, 30
5, 1683180, Note_on_c, 3, 62, 30
5, 1683580, Note_off_c, 3, 62, 64
5, 1683580, Note_off_c, 3, 55, 64
5, 1683900, Note_on_c, 3, 55, 37
5, 1683900, Note_on_c, 3, 62, 37
5, 1684300, Note_off_c, 3, 62, 64
5, 1684300, Note_off_c, 3, 55, 64
5, 1684620, Note_on_c, 3, 55, 44
5, 1684620, Note_on_c, 3, 64, 44
5, 1685020, Note_off_c, 3, 64, 64
5, 1685020, Note_off_c, 3, 55, 64
5, 1685340, Note_on_c, 3, 55, 51
5, 1685340, Note_on_c, 3, 64, 51
5, 1685740, Note_off_c, 3, 64, 64
5, 1685740, Note_off_c, 3, 55, 64
5, 1686060, Note_on_c, 3, 55, 60
5, 1686060, Note_on_c, 3, 64, 60
5, 1686460, Note_off_c, 3, 64, 64
5, 1686460, Note_off_c, 3, 55, 64
5, 1686780, Note_on_c, 3, 55, 69
5, 1686780, Note_on_c, 3, 64, 69
5, 1687015, Note_off_c, 3, 64, 64
5, 1687015, Note_off_c, 3, 55, 64
5, 1687260, Note_on_c, 3, 55, 75
5, 1687260, Note_on_c, 3, 58, 75
5, 1688620, Note_off_c, 3, 58, 64
5, 1688620, Note_off_c, 3, 55, 64
5, 1688700, Note_on_c, 3, 55, 75
5, 1688700, Note_on_c, 3, 58, 75
5, 1689340, Note_off_c, 3, 58, 64
5, 1689340, Note_off_c, 3, 55, 64
5, 1689420, Note_on_c, 3, 55, 75
5, 1689420, Note_on_c, 3, 58, 75
5, 1690060, Note_off_c, 3, 58, 64
5, 1690060, Note_off_c, 3, 55, 64
5, 1690140, Note_on_c, 3, 55, 75
5, 1690140, Note_on_c, 3, 58, 75
5, 1690375, Note_off_c, 3, 58, 64
5, 1690375, Note_off_c, 3, 55, 64
5, 1690380, Note_on_c, 3, 57, 75
5, 1691100, Note_off_c, 3, 57, 64
5, 1691100, Note_on_c, 3, 53, 75
5, 1691335, Note_off_c, 3, 53, 64
5, 1691580, Note_on_c, 3, 60, 75
5, 1691750, Note_off_c, 3, 60, 64
5, 1691820, Note_on_c, 3, 57, 75
5, 1693020, Note_off_c, 3, 57, 64
5, 1693140, Note_on_c, 3, 48, 45
5, 1693380, Note_off_c, 3, 48, 64
5, 1693380, Note_on_c, 3, 53, 45
5, 1693860, Note_off_c, 3, 53, 64
5, 1693860, Note_on_c, 3, 57, 45
5, 1694100, Note_off_c, 3, 57, 64
5, 1694100, Note_on_c, 3, 60, 45
5, 1694580, Note_off_c, 3, 60, 64
5, 1694580, Note_on_c, 3, 57, 45
5, 1694820, Note_off_c, 3, 57, 64
5, 1694820, Note_on_c, 3, 58, 45
5, 1696020, Note_off_c, 3, 58, 64
5, 1696140, Note_on_c, 3, 48, 45
5, 1696380, Note_off_c, 3, 48, 64
5, 1696380, Note_on_c, 3, 52, 45
5, 1696860, Note_off_c, 3, 52, 64
5, 1696860, Note_on_c, 3, 55, 45
5, 1697100, Note_off_c, 3, 55, 64
5, 1697100, Note_on_c, 3, 58, 45
5, 1697580, Note_off_c, 3, 58, 64
5, 1697580, Note_on_c, 3, 55, 45
5, 1697820, Note_off_c, 3, 55, 64
5, 1697820, Note_on_c, 3, 57, 45
5, 1698220, Note_off_c, 3, 57, 64
5, 1699260, Note_on_c, 3, 54, 30
5, 1699260, Note_on_c, 3, 57, 30
5, 1700700, Note_off_c, 3, 57, 64
5, 1700700, Note_off_c, 3, 54, 64
5, 1700700, Note_on_c, 3, 55, 30
5, 1700700, Note_on_c, 3, 58, 30
5, 1701100, Note_off_c, 3, 58, 64
5, 1701100, Note_off_c, 3, 55, 64
5, 1702140, Note_on_c, 3, 55, 30
5, 1702140, Note_on_c, 3, 58, 30
5, 1703580, Note_off_c, 3, 58, 64
5, 1703580, Note_off_c, 3, 55, 64
5, 1703580, Note_on_c, 3, 53, 30
5, 1703580, Note_on_c, 3, 57, 30
5, 1703980, Note_off_c, 3, 57, 64
5, 1703980, Note_off_c, 3, 53, 64
5, 1705260, Note_on_c, 3, 54, 32
5, 1705260, Note_on_c, 3, 57, 32
5, 1705495, Note_off_c, 3, 57, 64
5, 1705495, Note_off_c, 3, 54, 64
5, 1705500, Note_on_c, 3, 54, 34
5, 1705500, Note_on_c, 3, 57, 34
5, 1705735, Note_off_c, 3, 57, 64
5, 1705735, Note_off_c, 3, 54, 64
5, 1705740, Note_on_c, 3, 54, 36
5, 1705740, Note_on_c, 3, 57, 36
5, 1705975, Note_off_c, 3, 57, 64
5, 1705975, Note_off_c, 3, 54, 64
5, 1705980, Note_on_c, 3, 54, 38
5, 1705980, Note_on_c, 3, 57, 38
5, 1706215, Note_off_c, 3, 57, 64
5, 1706215, Note_off_c, 3, 54, 64
5, 1706220, Note_on_c, 3, 54, 40
5, 1706220, Note_on_c, 3, 57, 40
5, 1706455, Note_off_c, 3, 57, 64
5, 1706455, Note_off_c, 3, 54, 64
5, 1706460, Note_on_c, 3, 55, 42
5, 1706460, Note_on_c, 3, 58, 42
5, 1706860, Note_off_c, 3, 58, 64
5, 1706860, Note_off_c, 3, 55, 64
5, 1708140, Note_on_c, 3, 52, 60
5, 1708140, Note_on_c, 3, 55, 60
5, 1708375, Note_off_c, 3, 55, 64
5, 1708375, Note_off_c, 3, 52, 64
5, 1708380, Note_on_c, 3, 52, 63
5, 1708380, Note_on_c, 3, 55, 63
5, 1708615, Note_off_c, 3, 55, 64
5, 1708615, Note_off_c, 3, 52, 64
5, 1708620, Note_on_c, 3, 52, 66
5, 1708620, Note_on_c, 3, 55, 66
5, 1708855, Note_off_c, 3, 55, 64
5, 1708855, Note_off_c, 3, 52, 64
5, 1708860, Note_on_c, 3, 52, 69
5, 1708860, Note_on_c, 3, 55, 69
5, 1709095, Note_off_c, 3, 55, 64
5, 1709095, Note_off_c, 3, 52, 64
5, 1709100, Note_on_c, 3, 52, 72
5, 1709100, Note_on_c, 3, 55, 72
5, 1709335, Note_off_c, 3, 55, 64
5, 1709335, Note_off_c, 3, 52, 64
5, 1709340, Note_on_c, 3, 53, 75
5, 1709340, Note_on_c, 3, 57, 75
5, 1711900, Note_off_c, 3, 57, 64
5, 1711900, Note_off_c, 3, 53, 64
5, 1711980, Note_on_c, 3, 53, 75
5, 1711980, Note_on_c, 3, 57, 75
5, 1712215, Note_off_c, 3, 57, 64
5, 1712215, Note_off_c, 3, 53, 64
5, 1712220, Note_on_c, 3, 53, 75
5, 1712220, Note_on_c, 3, 57, 75
5, 1714780, Note_off_c, 3, 57, 64
5, 1714780, Note_off_c, 3, 53, 64
5, 1714860, Note_on_c, 3, 53, 75
5, 1714860, Note_on_c, 3, 57, 75
5, 1715095, Note_off_c, 3, 57, 64
5, 1715095, Note_off_c, 3, 53, 64
5, 1715100, Note_on_c, 3, 55, 75
5, 1715100, Note_on_c, 3, 59, 75
5, 1717660, Note_off_c, 3, 59, 64
5, 1717660, Note_off_c, 3, 55, 64
5, 1717740, Note_on_c, 3, 55, 60
5, 1717740, Note_on_c, 3, 59, 60
5, 1717975, Note_off_c, 3, 59, 64
5, 1717975, Note_off_c, 3, 55, 64
5, 1719180, Note_on_c, 3, 55, 45
5, 1719180, Note_on_c, 3, 62, 45
5, 1719260, Note_off_c, 3, 62, 64
5, 1719260, Note_off_c, 3, 55, 64
5, 1719300, Note_on_c, 3, 55, 45
5, 1719300, Note_on_c, 3, 62, 45
5, 1719380, Note_off_c, 3, 62, 64
5, 1719380, Note_off_c, 3, 55, 64
5, 1719420, Note_on_c, 3, 55, 45
5, 1719420, Note_on_c, 3, 62, 45
5, 1719655, Note_off_c, 3, 62, 64
5, 1719655, Note_off_c, 3, 55, 64
5, 1720620, Note_on_c, 3, 55, 45
5, 1720620, Note_on_c, 3, 62, 45
5, 1720700, Note_off_c, 3, 62, 64
5, 1720700, Note_off_c, 3, 55, 64
5, 1720740, Note_on_c, 3, 55, 45
5, 1720740, Note_on_c, 3, 62, 45
5, 1720820, Note_off_c, 3, 62, 64
5, 1720820, Note_off_c, 3, 55, 64
5, 1720860, Note_on_c, 3, 55, 45
5, 1720860, Note_on_c, 3, 62, 45
5, 1721095, Note_off_c, 3, 62, 64
5, 1721095, Note_off_c, 3, 55, 64
5, 1721340, Note_on_c, 3, 55, 45
5, 1721340, Note_on_c, 3, 62, 45
5, 1721420, Note_off_c, 3, 62, 64
5, 1721420, Note_off_c, 3, 55, 64
5, 1721460, Note_on_c, 3, 55, 45
5, 1721460, Note_on_c, 3, 62, 45
5, 1721540, Note_off_c, 3, 62, 64
5, 1721540, Note_off_c, 3, 55, 64
5, 1721580, Note_on_c, 3, 55, 45
5, 1721580, Note_on_c, 3, 62, 45
5, 1721815, Note_off_c, 3, 62, 64
5, 1721815, Note_off_c, 3, 55, 64
5, 1722060, Note_on_c, 3, 55, 45
5, 1722060, Note_on_c, 3, 62, 45
5, 1722140, Note_off_c, 3, 62, 64
5, 1722140, Note_off_c, 3, 55, 64
5, 1722180, Note_on_c, 3, 55, 45
5, 1722180, Note_on_c, 3, 62, 45
5, 1722260, Note_off_c, 3, 62, 64
5, 1722260, Note_off_c, 3, 55, 64
5, 1722300, Note_on_c, 3, 55, 45
5, 1722300, Note_on_c, 3, 62, 45
5, 1722535, Note_off_c, 3, 62, 64
5, 1722535, Note_off_c, 3, 55, 64
5, 1722780, Note_on_c, 3, 55, 45
5, 1722780, Note_on_c, 3, 62, 45
5, 1722860, Note_off_c, 3, 62, 64
5, 1722860, Note_off_c, 3, 55, 64
5, 1722900, Note_on_c, 3, 55, 45
5, 1722900, Note_on_c, 3, 62, 45
5, 1722980, Note_off_c, 3, 62, 64
5, 1722980, Note_off_c, 3, 55, 64
5, 1723020, Note_on_c, 3, 55, 45
5, 1723020, Note_on_c, 3, 62, 45
5, 1723255, Note_off_c, 3, 62, 64
5, 1723255, Note_off_c, 3, 55, 64
5, 1723500, Note_on_c, 3, 55, 45
5, 1723500, Note_on_c, 3, 62, 45
5, 1723580, Note_off_c, 3, 62, 64
5, 1723580, Note_off_c, 3, 55, 64
5, 1723620, Note_on_c, 3, 55, 45
5, 1723620, Note_on_c, 3, 62, 45
5, 1723700, Note_off_c, 3, 62, 64
5, 1723700, Note_off_c, 3, 55, 64
5, 1723740, Note_on_c, 3, 60, 45
5, 1723740, Note_on_c, 3, 64, 45
5, 1723975, Note_off_c, 3, 64, 64
5, 1723975, Note_off_c, 3, 60, 64
5, 1724220, Note_on_c, 3, 60, 47
5, 1724220, Note_on_c, 3, 64, 47
5, 1724300, Note_off_c, 3, 64, 64
5, 1724300, Note_off_c, 3, 60, 64
5, 1724340, Note_on_c, 3, 60, 47
5, 1724340, Note_on_c, 3, 64, 47
5, 1724420, Note_off_c, 3, 64, 64
5, 1724420, Note_off_c, 3, 60, 64
5, 1724460, Note_on_c, 3, 60, 47
5, 1724460, Note_on_c, 3, 64, 47
5, 1724695, Note_off_c, 3, 64, 64
5, 1724695, Note_off_c, 3, 60, 64
5, 1724940, Note_on_c, 3, 60, 49
5, 1724940, Note_on_c, 3, 64, 49
5, 1725020, Note_off_c, 3, 64, 64
5, 1725020, Note_off_c, 3, 60, 64
5, 1725060, Note_on_c, 3, 60, 49
5, 1725060, Note_on_c, 3, 64, 49
5, 1725140, Note_off_c, 3, 64, 64
5, 1725140, Note_off_c, 3, 60, 64
5, 1725180, Note_on_c, 3, 60, 49
5, 1725180, Note_on_c, 3, 64, 49
5, 1725415, Note_off_c, 3, 64, 64
5, 1725415, Note_off_c, 3, 60, 64
5, 1725660, Note_on_c, 3, 60, 51
5, 1725660, Note_on_c, 3, 64, 51
5, 1725740, Note_off_c, 3, 64, 64
5, 1725740, Note_off_c, 3, 60, 64
5, 1725780, Note_on_c, 3, 60, 51
5, 1725780, Note_on_c, 3, 64, 51
5, 1725860, Note_off_c, 3, 64, 64
5, 1725860, Note_off_c, 3, 60, 64
5, 1725900, Note_on_c, 3, 60, 51
5, 1725900, Note_on_c, 3, 64, 51
5, 1726135, Note_off_c, 3, 64, 64
5, 1726135, Note_off_c, 3, 60, 64
5, 1726380, Note_on_c, 3, 55, 53
5, 1726380, Note_on_c, 3, 58, 53
5, 1726460, Note_off_c, 3, 58, 64
5, 1726460, Note_off_c, 3, 55, 64
5, 1726500, Note_on_c, 3, 55, 53
5, 1726500, Note_on_c, 3, 58, 53
5, 1726580, Note_off_c, 3, 58, 64
5, 1726580, Note_off_c, 3, 55, 64
5, 1726620, Note_on_c, 3, 55, 53
5, 1726620, Note_on_c, 3, 58, 53
5, 1726855, Note_off_c, 3, 58, 64
5, 1726855, Note_off_c, 3, 55, 64
5, 1727100, Note_on_c, 3, 55, 57
5, 1727100, Note_on_c, 3, 58, 57
5, 1727180, Note_off_c, 3, 58, 64
5, 1727180, Note_off_c, 3, 55, 64
5, 1727220, Note_on_c, 3, 55, 58
5, 1727220, Note_on_c, 3, 58, 58
5, 1727300, Note_off_c, 3, 58, 64
5, 1727300, Note_off_c, 3, 55, 64
5, 1727340, Note_on_c, 3, 55, 59
5, 1727340, Note_on_c, 3, 58, 59
5, 1727575, Note_off_c, 3, 58, 64
5, 1727575, Note_off_c, 3, 55, 64
5, 1727820, Note_on_c, 3, 55, 63
5, 1727820, Note_on_c, 3, 58, 63
5, 1727900, Note_off_c, 3, 58, 64
5, 1727900, Note_off_c, 3, 55, 64
5, 1727940, Note_on_c, 3, 55, 64
5, 1727940, Note_on_c, 3, 58, 64
5, 1728020, Note_off_c, 3, 58, 64
5, 1728020, Note_off_c, 3, 55, 64
5, 1728060, Note_on_c, 3, 55, 65
5, 1728060, Note_on_c, 3, 58, 65
5, 1728295, Note_off_c, 3, 58, 64
5, 1728295, Note_off_c, 3, 55, 64
5, 1728540, Note_on_c, 3, 55, 69
5, 1728540, Note_on_c, 3, 58, 69
5, 1728620, Note_off_c, 3, 58, 64
5, 1728620, Note_off_c, 3, 55, 64
5, 1728660, Note_on_c, 3, 55, 70
5, 1728660, Note_on_c, 3, 58, 70
5, 1728740, Note_off_c, 3, 58, 64
5, 1728740, Note_off_c, 3, 55, 64
5, 1728780, Note_on_c, 3, 55, 71
5, 1728780, Note_on_c, 3, 58, 71
5, 1729015, Note_off_c, 3, 58, 64
5, 1729015, Note_off_c, 3, 55, 64
5, 1729260, Note_on_c, 3, 55, 75
5, 1729260, Note_on_c, 3, 58, 75
5, 1730620, Note_off_c, 3, 58, 64
5, 1730620, Note_off_c, 3, 55, 64
5, 1730700, Note_on_c, 3, 55, 75
5, 1730700, Note_on_c, 3, 58, 75
5, 1731340, Note_off_c, 3, 58, 64
5, 1731340, Note_off_c, 3, 55, 64
5, 1731420, Note_on_c, 3, 55, 75
5, 1731420, Note_on_c, 3, 58, 75
5, 1732060, Note_off_c, 3, 58, 64
5, 1732060, Note_off_c, 3, 55, 64
5, 1732140, Note_on_c, 3, 52, 75
5, 1732140, Note_on_c, 3, 55, 75
5, 1732380, Note_off_c, 3, 55, 64
5, 1732380, Note_off_c, 3, 52, 64
5, 1732380, Note_on_c, 3, 57, 92
5, 1732500, Note_off_c, 3, 57, 64
5, 1732500, Note_on_c, 3, 58, 92
5, 1732620, Note_off_c, 3, 58, 64
5, 1732620, Note_on_c, 3, 57, 92
5, 1732740, Note_off_c, 3, 57, 64
5, 1732740, Note_on_c, 3, 55, 92
5, 1732860, Note_off_c, 3, 55, 64
5, 1732860, Note_on_c, 3, 53, 92
5, 1732980, Note_off_c, 3, 53, 64
5, 1732980, Note_on_c, 3, 52, 92
5, 1733100, Note_off_c, 3, 52, 64
5, 1733100, Note_on_c, 3, 53, 92
5, 1733220, Note_off_c, 3, 53, 64
5, 1733220, Note_on_c, 3, 55, 92
5, 1733340, Note_off_c, 3, 55, 64
5, 1733340, Note_on_c, 3, 57, 92
5, 1733460, Note_off_c, 3, 57, 64
5, 1733460, Note_on_c, 3, 58, 92
5, 1733580, Note_off_c, 3, 58, 64
5, 1733580, Note_on_c, 3, 60, 92
5, 1733700, Note_off_c, 3, 60, 64
5, 1733700, Note_on_c, 3, 58, 92
5, 1733820, Note_off_c, 3, 58, 64
5, 1733820, Note_on_c, 3, 57, 92
5, 1733940, Note_off_c, 3, 57, 64
5, 1733940, Note_on_c, 3, 58, 92
5, 1734060, Note_off_c, 3, 58, 64
5, 1734060, Note_on_c, 3, 57, 92
5, 1734180, Note_off_c, 3, 57, 64
5, 1734180, Note_on_c, 3, 55, 92
5, 1734300, Note_off_c, 3, 55, 64
5, 1734300, Note_on_c, 3, 53, 92
5, 1734420, Note_off_c, 3, 53, 64
5, 1734420, Note_on_c, 3, 52, 92
5, 1734540, Note_off_c, 3, 52, 64
5, 1734540, Note_on_c, 3, 53, 92
5, 1734660, Note_off_c, 3, 53, 64
5, 1734660, Note_on_c, 3, 52, 92
5, 1734780, Note_off_c, 3, 52, 64
5, 1734780, Note_on_c, 3, 53, 92
5, 1734900, Note_off_c, 3, 53, 64
5, 1734900, Note_on_c, 3, 48, 45
5, 1735020, Note_off_c, 3, 48, 64
5, 1735020, Note_on_c, 3, 50, 45
5, 1735140, Note_off_c, 3, 50, 64
5, 1735140, Note_on_c, 3, 52, 45
5, 1735260, Note_off_c, 3, 52, 64
5, 1735260, Note_on_c, 3, 53, 45
5, 1735380, Note_off_c, 3, 53, 64
5, 1735380, Note_on_c, 3, 55, 45
5, 1735500, Note_off_c, 3, 55, 64
5, 1735500, Note_on_c, 3, 53, 45
5, 1735620, Note_off_c, 3, 53, 64
5, 1735620, Note_on_c, 3, 52, 45
5, 1735740, Note_off_c, 3, 52, 64
5, 1735740, Note_on_c, 3, 53, 45
5, 1735860, Note_off_c, 3, 53, 64
5, 1735860, Note_on_c, 3, 55, 45
5, 1735980, Note_off_c, 3, 55, 64
5, 1735980, Note_on_c, 3, 57, 45
5, 1736100, Note_off_c, 3, 57, 64
5, 1736100, Note_on_c, 3, 58, 45
5, 1736220, Note_off_c, 3, 58, 64
5, 1736220, Note_on_c, 3, 60, 45
5, 1736340, Note_off_c, 3, 60, 64
5, 1736340, Note_on_c, 3, 59, 45
5, 1736460, Note_off_c, 3, 59, 64
5, 1736460, Note_on_c, 3, 60, 45
5, 1736580, Note_off_c, 3, 60, 64
5, 1736580, Note_on_c, 3, 57, 45
5, 1736700, Note_off_c, 3, 57, 64
5, 1736700, Note_on_c, 3, 58, 45
5, 1736820, Note_off_c, 3, 58, 64
5, 1736820, Note_on_c, 3, 60, 45
5, 1736940, Note_off_c, 3, 60, 64
5, 1736940, Note_on_c, 3, 62, 45
5, 1737060, Note_off_c, 3, 62, 64
5, 1737060, Note_on_c, 3, 60, 45
5, 1737180, Note_off_c, 3, 60, 64
5, 1737180, Note_on_c, 3, 58, 45
5, 1737300, Note_off_c, 3, 58, 64
5, 1737300, Note_on_c, 3, 60, 45
5, 1737420, Note_off_c, 3, 60, 64
5, 1737420, Note_on_c, 3, 58, 45
5, 1737540, Note_off_c, 3, 58, 64
5, 1737540, Note_on_c, 3, 60, 45
5, 1737660, Note_off_c, 3, 60, 64
5, 1737660, Note_on_c, 3, 58, 45
5, 1737780, Note_off_c, 3, 58, 64
5, 1737780, Note_on_c, 3, 57, 45
5, 1737900, Note_off_c, 3, 57, 64
5, 1737900, Note_on_c, 3, 55, 46
5, 1738020, Note_off_c, 3, 55, 64
5, 1738020, Note_on_c, 3, 53, 47
5, 1738140, Note_off_c, 3, 53, 64
5, 1738140, Note_on_c, 3, 52, 48
5, 1738260, Note_off_c, 3, 52, 64
5, 1738260, Note_on_c, 3, 53, 49
5, 1738380, Note_off_c, 3, 53, 64
5, 1738380, Note_on_c, 3, 52, 50
5, 1738500, Note_off_c, 3, 52, 64
5, 1738500, Note_on_c, 3, 50, 51
5, 1738620, Note_off_c, 3, 50, 64
5, 1738620, Note_on_c, 3, 52, 52
5, 1738740, Note_off_c, 3, 52, 64
5, 1738740, Note_on_c, 3, 53, 53
5, 1738860, Note_off_c, 3, 53, 64
5, 1738860, Note_on_c, 3, 55, 54
5, 1738980, Note_off_c, 3, 55, 64
5, 1738980, Note_on_c, 3, 57, 55
5, 1739100, Note_off_c, 3, 57, 64
5, 1739100, Note_on_c, 3, 58, 56
5, 1739220, Note_off_c, 3, 58, 64
5, 1739220, Note_on_c, 3, 57, 57
5, 1739340, Note_off_c, 3, 57, 64
5, 1739340, Note_on_c, 3, 58, 58
5, 1739460, Note_off_c, 3, 58, 64
5, 1739460, Note_on_c, 3, 55, 59
5, 1739580, Note_off_c, 3, 55, 64
5, 1739580, Note_on_c, 3, 57, 60
5, 1739980, Note_off_c, 3, 57, 64
5, 1742460, Note_on_c, 3, 55, 45
5, 1742460, Note_on_c, 3, 58, 45
5, 1743180, Note_off_c, 3, 58, 64
5, 1743180, Note_off_c, 3, 55, 64
5, 1743180, Note_on_c, 3, 55, 52
5, 1743660, Note_off_c, 3, 55, 64
5, 1743660, Note_on_c, 3, 53, 57
5, 1743660, Note_on_c, 3, 60, 57
5, 1743900, Note_off_c, 3, 60, 64
5, 1743900, Note_off_c, 3, 53, 64
5, 1743900, Note_on_c, 3, 52, 60
5, 1743900, Note_on_c, 3, 60, 60
5, 1744540, Note_off_c, 3, 60, 64
5, 1744540, Note_off_c, 3, 52, 64
5, 1747980, Note_on_c, 3, 50, 45
5, 1748220, Note_off_c, 3, 50, 64
5, 1748220, Note_on_c, 3, 55, 45
5, 1748700, Note_off_c, 3, 55, 64
5, 1748700, Note_on_c, 3, 58, 45
5, 1748940, Note_off_c, 3, 58, 64
5, 1748940, Note_on_c, 3, 62, 45
5, 1749175, Note_off_c, 3, 62, 64
5, 1749420, Note_on_c, 3, 50, 45
5, 1749660, Note_off_c, 3, 50, 64
5, 1749660, Note_on_c, 3, 52, 45
5, 1750140, Note_off_c, 3, 52, 64
5, 1750140, Note_on_c, 3, 52, 45
5, 1750140, Note_on_c, 3, 55, 45
5, 1750380, Note_off_c, 3, 55, 64
5, 1750380, Note_off_c, 3, 52, 64
5, 1750380, Note_on_c, 3, 55, 52
5, 1750380, Note_on_c, 3, 58, 52
5, 1750780, Note_off_c, 3, 58, 64
5, 1750780, Note_off_c, 3, 55, 64
5, 1750860, Note_on_c, 3, 55, 67
5, 1750860, Note_on_c, 3, 58, 67
5, 1751095, Note_off_c, 3, 58, 64
5, 1751095, Note_off_c, 3, 55, 64
5, 1751100, Note_on_c, 3, 53, 75
5, 1751100, Note_on_c, 3, 57, 75
5, 1753660, Note_off_c, 3, 57, 64
5, 1753660, Note_off_c, 3, 53, 64
5, 1753740, Note_on_c, 3, 53, 75
5, 1753740, Note_on_c, 3, 57, 75
5, 1753975, Note_off_c, 3, 57, 64
5, 1753975, Note_off_c, 3, 53, 64
5, 1753980, Note_on_c, 3, 53, 75
5, 1753980, Note_on_c, 3, 57, 75
5, 1756540, Note_off_c, 3, 57, 64
5, 1756540, Note_off_c, 3, 53, 64
5, 1756620, Note_on_c, 3, 53, 75
5, 1756620, Note_on_c, 3, 62, 75
5, 1756855, Note_off_c, 3, 62, 64
5, 1756855, Note_off_c, 3, 53, 64
5, 1756860, Note_on_c, 3, 59, 75
5, 1756860, Note_on_c, 3, 62, 75
5, 1759420, Note_off_c, 3, 62, 64
5, 1759420, Note_off_c, 3, 59, 64
5, 1759500, Note_on_c, 3, 59, 75
5, 1759500, Note_on_c, 3, 62, 75
5, 1759735, Note_off_c, 3, 62, 64
5, 1759735, Note_off_c, 3, 59, 64
5, 1759740, Note_on_c, 3, 58, 75
5, 1759740, Note_on_c, 3, 65, 75
5, 1762300, Note_off_c, 3, 65, 64
5, 1762300, Note_off_c, 3, 58, 64
5, 1762380, Note_on_c, 3, 58, 75
5, 1762380, Note_on_c, 3, 65, 75
5, 1762615, Note_off_c, 3, 65, 64
5, 1762615, Note_off_c, 3, 58, 64
5, 1762620, Note_on_c, 3, 60, 75
5, 1762620, Note_on_c, 3, 63, 75
5, 1764060, Note_off_c, 3, 63, 64
5, 1764060, Note_off_c, 3, 60, 64
5, 1764060, Note_on_c, 3, 57, 75
5, 1764060, Note_on_c, 3, 60, 75
5, 1765380, Note_off_c, 3, 60, 64
5, 1765380, Note_off_c, 3, 57, 64
5, 1765500, Note_on_c, 3, 46, 75
5, 1765500, Note_on_c, 3, 58, 75
5, 1766220, Note_off_c, 3, 58, 64
5, 1766220, Note_off_c, 3, 46, 64
5, 1766220, Note_on_c, 3, 46, 75
5, 1766220, Note_on_c, 3, 62, 75
5, 1766940, Note_off_c, 3, 62, 64
5, 1766940, Note_off_c, 3, 46, 64
5, 1766940, Note_on_c, 3, 46, 75
5, 1766940, Note_on_c, 3, 62, 75
5, 1767660, Note_off_c, 3, 62, 64
5, 1767660, Note_off_c, 3, 46, 64
5, 1767660, Note_on_c, 3, 46, 75
5, 1767660, Note_on_c, 3, 62, 75
5, 1768300, Note_off_c, 3, 62, 64
5, 1768300, Note_off_c, 3, 46, 64
5, 1768380, Note_on_c, 3, 57, 60
5, 1769100, Note_off_c, 3, 57, 64
5, 1769100, Note_on_c, 3, 55, 60
5, 1769100, Note_on_c, 3, 58, 60
5, 1770540, Note_off_c, 3, 58, 64
5, 1770540, Note_off_c, 3, 55, 64
5, 1770540, Note_on_c, 3, 55, 50
5, 1770540, Note_on_c, 3, 58, 50
5, 1771260, Note_off_c, 3, 58, 64
5, 1771260, Note_off_c, 3, 55, 64
5, 1771260, Note_on_c, 3, 55, 45
5, 1771260, Note_on_c, 3, 58, 45
5, 1777020, Note_off_c, 3, 58, 64
5, 1777020, Note_off_c, 3, 55, 64
5, 1777020, Note_on_c, 3, 53, 30
5, 1777020, Note_on_c, 3, 57, 30
5, 1777420, Note_off_c, 3, 57, 64
5, 1777420, Note_off_c, 3, 53, 64
5, 1789320, Note_on_c, 3, 53, 75
5, 1790040, Note_off_c, 3, 53, 64
5, 1790040, Note_on_c, 3, 50, 75
5, 1790275, Note_off_c, 3, 50, 64
5, 1790520, Note_on_c, 3, 45, 75
5, 1790755, Note_off_c, 3, 45, 64
5, 1790760, Note_on_c, 3, 46, 75
5, 1791880, Note_off_c, 3, 46, 64
5, 1792080, Note_on_c, 3, 46, 45
5, 1792080, Note_on_c, 3, 58, 45
5, 1792320, Note_off_c, 3, 58, 64
5, 1792320, Note_off_c, 3, 46, 64
5, 1792320, Note_on_c, 3, 48, 45
5, 1792320, Note_on_c, 3, 60, 45
5, 1793760, Note_off_c, 3, 60, 64
5, 1793760, Note_off_c, 3, 48, 64
5, 1793760, Note_on_c, 3, 53, 45
5, 1793760, Note_on_c, 3, 60, 45
5, 1794400, Note_off_c, 3, 60, 64
5, 1794400, Note_off_c, 3, 53, 64
5, 1798080, Note_on_c, 3, 57, 45
5, 1798080, Note_on_c, 3, 65, 45
5, 1798320, Note_off_c, 3, 65, 64
5, 1798320, Note_off_c, 3, 57, 64
5, 1798320, Note_on_c, 3, 55, 45
5, 1798320, Note_on_c, 3, 64, 45
5, 1799520, Note_off_c, 3, 64, 64
5, 1799520, Note_off_c, 3, 55, 64
5, 1799520, Note_on_c, 3, 55, 45
5, 1799520, Note_on_c, 3, 64, 45
5, 1799760, Note_off_c, 3, 64, 64
5, 1799760, Note_off_c, 3, 55, 64
5, 1799760, Note_on_c, 3, 57, 45
5, 1799760, Note_on_c, 3, 65, 45
5, 1800400, Note_off_c, 3, 65, 64
5, 1800400, Note_off_c, 3, 57, 64
5, 1801080, Note_on_c, 3, 53, 30
5, 1801080, Note_on_c, 3, 57, 30
5, 1801320, Note_off_c, 3, 57, 64
5, 1801320, Note_off_c, 3, 53, 64
5, 1801320, Note_on_c, 3, 48, 36
5, 1801320, Note_on_c, 3, 55, 36
5, 1802440, Note_off_c, 3, 55, 64
5, 1802440, Note_off_c, 3, 48, 64
5, 1802520, Note_on_c, 3, 48, 68
5, 1802520, Note_on_c, 3, 55, 68
5, 1802755, Note_off_c, 3, 55, 64
5, 1802755, Note_off_c, 3, 48, 64
5, 1802760, Note_on_c, 3, 48, 75
5, 1802760, Note_on_c, 3, 55, 75
5, 1805640, Note_off_c, 3, 55, 64
5, 1805640, Note_off_c, 3, 48, 64
5, 1805640, Note_on_c, 3, 48, 60
5, 1805640, Note_on_c, 3, 55, 60
5, 1807080, Note_off_c, 3, 55, 64
5, 1807080, Note_off_c, 3, 48, 64
5, 1807080, Note_on_c, 3, 48, 45
5, 1807080, Note_on_c, 3, 55, 45
5, 1808400, Note_off_c, 3, 55, 64
5, 1808400, Note_off_c, 3, 48, 64
5, 1808520, Note_on_c, 3, 45, 45
5, 1808520, Note_on_c, 3, 53, 45
5, 1809840, Note_off_c, 3, 53, 64
5, 1809840, Note_off_c, 3, 45, 64
5, 1810020, Note_on_c, 3, 45, 45
5, 1810020, Note_on_c, 3, 53, 45
5, 1811340, Note_off_c, 3, 53, 64
5, 1811340, Note_off_c, 3, 45, 64
5, 1811520, Note_on_c, 3, 41, 45
5, 1811520, Note_on_c, 3, 53, 45
5, 1816960, Note_off_c, 3, 53, 64
5, 1816960, Note_off_c, 3, 41, 64
5, 1817040, Note_on_c, 3, 41, 75
5, 1817040, Note_on_c, 3, 53, 75
5, 1817275, Note_off_c, 3, 53, 64
5, 1817275, Note_off_c, 3, 41, 64
5, 1817280, Note_on_c, 3, 41, 75
5, 1817280, Note_on_c, 3, 53, 75
5, 1818040, Note_off_c, 3, 53, 64
5, 1818040, Note_off_c, 3, 41, 64
5, 1818040, End_track
6, 0, Start_track
6, 0, MIDI_port, 0
6, 0, Channel_prefix, 4
6, 0, Control_c, 4, 7, 127
6, 0, Control_c, 4, 10, 24
6, 0, Control_c, 4, 91, 95
6, 0, Program_c, 4, 60
6, 11880, Note_on_c, 4, 48, 75
6, 11880, Note_on_c, 4, 60, 75
6, 12280, Note_off_c, 4, 60, 64
6, 12280, Note_off_c, 4, 48, 64
6, 12360, Note_on_c, 4, 48, 75
6, 12360, Note_on_c, 4, 60, 75
6, 12760, Note_off_c, 4, 60, 64
6, 12760, Note_off_c, 4, 48, 64
6, 12840, Note_on_c, 4, 48, 75
6, 12840, Note_on_c, 4, 60, 75
6, 13480, Note_off_c, 4, 60, 64
6, 13480, Note_off_c, 4, 48, 64
6, 13560, Note_on_c, 4, 53, 75
6, 13560, Note_on_c, 4, 65, 75
6, 13795, Note_off_c, 4, 65, 64
6, 13795, Note_off_c, 4, 53, 64
6, 13800, Note_on_c, 4, 53, 45
6, 13800, Note_on_c, 4, 65, 45
6, 14200, Note_off_c, 4, 65, 64
6, 14200, Note_off_c, 4, 53, 64
6, 14280, Note_on_c, 4, 53, 47
6, 14280, Note_on_c, 4, 65, 47
6, 14680, Note_off_c, 4, 65, 64
6, 14680, Note_off_c, 4, 53, 64
6, 14760, Note_on_c, 4, 48, 49
6, 14760, Note_on_c, 4, 60, 49
6, 15160, Note_off_c, 4, 60, 64
6, 15160, Note_off_c, 4, 48, 64
6, 15720, Note_on_c, 4, 48, 53
6, 15720, Note_on_c, 4, 60, 53
6, 16120, Note_off_c, 4, 60, 64
6, 16120, Note_off_c, 4, 48, 64
6, 16680, Note_on_c, 4, 48, 57
6, 16680, Note_on_c, 4, 60, 57
6, 17080, Note_off_c, 4, 60, 64
6, 17080, Note_off_c, 4, 48, 64
6, 17640, Note_on_c, 4, 48, 63
6, 17640, Note_on_c, 4, 60, 63
6, 18040, Note_off_c, 4, 60, 64
6, 18040, Note_off_c, 4, 48, 64
6, 18600, Note_on_c, 4, 48, 69
6, 18600, Note_on_c, 4, 60, 69
6, 19000, Note_off_c, 4, 60, 64
6, 19000, Note_off_c, 4, 48, 64
6, 19560, Note_on_c, 4, 48, 75
6, 19560, Note_on_c, 4, 60, 75
6, 19960, Note_off_c, 4, 60, 64
6, 19960, Note_off_c, 4, 48, 64
6, 20520, Note_on_c, 4, 48, 75
6, 20520, Note_on_c, 4, 60, 75
6, 20920, Note_off_c, 4, 60, 64
6, 20920, Note_off_c, 4, 48, 64
6, 21480, Note_on_c, 4, 48, 60
6, 21480, Note_on_c, 4, 60, 60
6, 21880, Note_off_c, 4, 60, 64
6, 21880, Note_off_c, 4, 48, 64
6, 22440, Note_on_c, 4, 48, 60
6, 22440, Note_on_c, 4, 60, 60
6, 22840, Note_off_c, 4, 60, 64
6, 22840, Note_off_c, 4, 48, 64
6, 23400, Note_on_c, 4, 48, 30
6, 23400, Note_on_c, 4, 60, 30
6, 23635, Note_off_c, 4, 60, 64
6, 23635, Note_off_c, 4, 48, 64
6, 27240, Note_on_c, 4, 53, 45
6, 27240, Note_on_c, 4, 60, 45
6, 31315, Note_off_c, 4, 60, 64
6, 31315, Note_off_c, 4, 53, 64
6, 31320, Note_on_c, 4, 53, 45
6, 31320, Note_on_c, 4, 60, 45
6, 31555, Note_off_c, 4, 60, 64
6, 31555, Note_off_c, 4, 53, 64
6, 31800, Note_on_c, 4, 53, 45
6, 31800, Note_on_c, 4, 60, 45
6, 32035, Note_off_c, 4, 60, 64
6, 32035, Note_off_c, 4, 53, 64
6, 32280, Note_on_c, 4, 53, 47
6, 32280, Note_on_c, 4, 60, 47
6, 32515, Note_off_c, 4, 60, 64
6, 32515, Note_off_c, 4, 53, 64
6, 32760, Note_on_c, 4, 53, 51
6, 32760, Note_on_c, 4, 60, 51
6, 32995, Note_off_c, 4, 60, 64
6, 32995, Note_off_c, 4, 53, 64
6, 33240, Note_on_c, 4, 53, 55
6, 33240, Note_on_c, 4, 60, 55
6, 33475, Note_off_c, 4, 60, 64
6, 33475, Note_off_c, 4, 53, 64
6, 33720, Note_on_c, 4, 53, 60
6, 33720, Note_on_c, 4, 60, 60
6, 33955, Note_off_c, 4, 60, 64
6, 33955, Note_off_c, 4, 53, 64
6, 34200, Note_on_c, 4, 53, 66
6, 34200, Note_on_c, 4, 60, 66
6, 34435, Note_off_c, 4, 60, 64
6, 34435, Note_off_c, 4, 53, 64
6, 34680, Note_on_c, 4, 53, 72
6, 34680, Note_on_c, 4, 60, 72
6, 34915, Note_off_c, 4, 60, 64
6, 34915, Note_off_c, 4, 53, 64
6, 34920, Note_on_c, 4, 53, 75
6, 34920, Note_on_c, 4, 60, 75
6, 35000, Note_off_c, 4, 60, 64
6, 35000, Note_off_c, 4, 53, 64
6, 35160, Note_on_c, 4, 65, 75
6, 35160, Note_on_c, 4, 69, 75
6, 35240, Note_off_c, 4, 69, 64
6, 35240, Note_off_c, 4, 65, 64
6, 35400, Note_on_c, 4, 67, 75
6, 35400, Note_on_c, 4, 70, 75
6, 35480, Note_off_c, 4, 70, 64
6, 35480, Note_off_c, 4, 67, 64
6, 35640, Note_on_c, 4, 67, 75
6, 35640, Note_on_c, 4, 70, 75
6, 35720, Note_off_c, 4, 70, 64
6, 35720, Note_off_c, 4, 67, 64
6, 35880, Note_on_c, 4, 69, 75
6, 35880, Note_on_c, 4, 72, 75
6, 36120, Note_off_c, 4, 72, 64
6, 36120, Note_off_c, 4, 69, 64
6, 36120, Note_on_c, 4, 67, 75
6, 36120, Note_on_c, 4, 70, 75
6, 36240, Note_off_c, 4, 70, 64
6, 36240, Note_off_c, 4, 67, 64
6, 36240, Note_on_c, 4, 65, 75
6, 36240, Note_on_c, 4, 69, 75
6, 36355, Note_off_c, 4, 69, 64
6, 36355, Note_off_c, 4, 65, 64
6, 36360, Note_on_c, 4, 60, 75
6, 36360, Note_on_c, 4, 67, 75
6, 36440, Note_off_c, 4, 67, 64
6, 36440, Note_off_c, 4, 60, 64
6, 36600, Note_on_c, 4, 60, 75
6, 36680, Note_off_c, 4, 60, 64
6, 36840, Note_on_c, 4, 57, 75
6, 36840, Note_on_c, 4, 65, 75
6, 36920, Note_off_c, 4, 65, 64
6, 36920, Note_off_c, 4, 57, 64
6, 37080, Note_on_c, 4, 60, 75
6, 37080, Note_on_c, 4, 67, 75
6, 37160, Note_off_c, 4, 67, 64
6, 37160, Note_off_c, 4, 60, 64
6, 37320, Note_on_c, 4, 65, 75
6, 37320, Note_on_c, 4, 69, 75
6, 37720, Note_off_c, 4, 69, 64
6, 37720, Note_off_c, 4, 65, 64
6, 37800, Note_on_c, 4, 60, 75
6, 37800, Note_on_c, 4, 67, 75
6, 37880, Note_off_c, 4, 67, 64
6, 37880, Note_off_c, 4, 60, 64
6, 38040, Note_on_c, 4, 65, 75
6, 38040, Note_on_c, 4, 69, 75
6, 38120, Note_off_c, 4, 69, 64
6, 38120, Note_off_c, 4, 65, 64
6, 38280, Note_on_c, 4, 67, 75
6, 38280, Note_on_c, 4, 70, 75
6, 38680, Note_off_c, 4, 70, 64
6, 38680, Note_off_c, 4, 67, 64
6, 38760, Note_on_c, 4, 65, 75
6, 38760, Note_on_c, 4, 69, 75
6, 39000, Note_off_c, 4, 69, 64
6, 39000, Note_off_c, 4, 65, 64
6, 39000, Note_on_c, 4, 69, 75
6, 39000, Note_on_c, 4, 72, 75
6, 39080, Note_off_c, 4, 72, 64
6, 39080, Note_off_c, 4, 69, 64
6, 39240, Note_on_c, 4, 69, 75
6, 39240, Note_on_c, 4, 72, 75
6, 39320, Note_off_c, 4, 72, 64
6, 39320, Note_off_c, 4, 69, 64
6, 39480, Note_on_c, 4, 69, 75
6, 39480, Note_on_c, 4, 72, 75
6, 39560, Note_off_c, 4, 72, 64
6, 39560, Note_off_c, 4, 69, 64
6, 39720, Note_on_c, 4, 69, 75
6, 39720, Note_on_c, 4, 72, 75
6, 40200, Note_off_c, 4, 72, 64
6, 40200, Note_off_c, 4, 69, 64
6, 40200, Note_on_c, 4, 65, 75
6, 40200, Note_on_c, 4, 69, 75
6, 40440, Note_off_c, 4, 69, 64
6, 40440, Note_off_c, 4, 65, 64
6, 40440, Note_on_c, 4, 57, 75
6, 40440, Note_on_c, 4, 65, 75
6, 40675, Note_off_c, 4, 65, 64
6, 40675, Note_off_c, 4, 57, 64
6, 40920, Note_on_c, 4, 57, 75
6, 40920, Note_on_c, 4, 65, 75
6, 41155, Note_off_c, 4, 65, 64
6, 41155, Note_off_c, 4, 57, 64
6, 41160, Note_on_c, 4, 60, 75
6, 41160, Note_on_c, 4, 67, 75
6, 41560, Note_off_c, 4, 67, 64
6, 41560, Note_off_c, 4, 60, 64
6, 41640, Note_on_c, 4, 57, 75
6, 41640, Note_on_c, 4, 65, 75
6, 41720, Note_off_c, 4, 65, 64
6, 41720, Note_off_c, 4, 57, 64
6, 41880, Note_on_c, 4, 60, 75
6, 41880, Note_on_c, 4, 67, 75
6, 41960, Note_off_c, 4, 67, 64
6, 41960, Note_off_c, 4, 60, 64
6, 42120, Note_on_c, 4, 65, 75
6, 42120, Note_on_c, 4, 69, 75
6, 42520, Note_off_c, 4, 69, 64
6, 42520, Note_off_c, 4, 65, 64
6, 42600, Note_on_c, 4, 60, 75
6, 42600, Note_on_c, 4, 67, 75
6, 42840, Note_off_c, 4, 67, 64
6, 42840, Note_off_c, 4, 60, 64
6, 42840, Note_on_c, 4, 67, 75
6, 42840, Note_on_c, 4, 70, 75
6, 42920, Note_off_c, 4, 70, 64
6, 42920, Note_off_c, 4, 67, 64
6, 43080, Note_on_c, 4, 67, 75
6, 43080, Note_on_c, 4, 70, 75
6, 43160, Note_off_c, 4, 70, 64
6, 43160, Note_off_c, 4, 67, 64
6, 43320, Note_on_c, 4, 67, 75
6, 43320, Note_on_c, 4, 70, 75
6, 43400, Note_off_c, 4, 70, 64
6, 43400, Note_off_c, 4, 67, 64
6, 43560, Note_on_c, 4, 67, 75
6, 43560, Note_on_c, 4, 70, 75
6, 44200, Note_off_c, 4, 70, 64
6, 44200, Note_off_c, 4, 67, 64
6, 44280, Note_on_c, 4, 60, 75
6, 44280, Note_on_c, 4, 67, 75
6, 44515, Note_off_c, 4, 67, 64
6, 44515, Note_off_c, 4, 60, 64
6, 44520, Note_on_c, 4, 65, 75
6, 44520, Note_on_c, 4, 69, 75
6, 44600, Note_off_c, 4, 69, 64
6, 44600, Note_off_c, 4, 65, 64
6, 44760, Note_on_c, 4, 67, 75
6, 44760, Note_on_c, 4, 70, 75
6, 44840, Note_off_c, 4, 70, 64
6, 44840, Note_off_c, 4, 67, 64
6, 45000, Note_on_c, 4, 69, 75
6, 45000, Note_on_c, 4, 72, 75
6, 45400, Note_off_c, 4, 72, 64
6, 45400, Note_off_c, 4, 69, 64
6, 45480, Note_on_c, 4, 67, 75
6, 45480, Note_on_c, 4, 70, 75
6, 45720, Note_off_c, 4, 70, 64
6, 45720, Note_off_c, 4, 67, 64
6, 45720, Note_on_c, 4, 60, 75
6, 45720, Note_on_c, 4, 67, 75
6, 45960, Note_off_c, 4, 67, 64
6, 45960, Note_off_c, 4, 60, 64
6, 45960, Note_on_c, 4, 67, 75
6, 45960, Note_on_c, 4, 70, 75
6, 46200, Note_off_c, 4, 70, 64
6, 46200, Note_off_c, 4, 67, 64
6, 46200, Note_on_c, 4, 60, 75
6, 46200, Note_on_c, 4, 67, 75
6, 46435, Note_off_c, 4, 67, 64
6, 46435, Note_off_c, 4, 60, 64
6, 46440, Note_on_c, 4, 65, 75
6, 46440, Note_on_c, 4, 69, 75
6, 46520, Note_off_c, 4, 69, 64
6, 46520, Note_off_c, 4, 65, 64
6, 46680, Note_on_c, 4, 67, 75
6, 46680, Note_on_c, 4, 70, 75
6, 46760, Note_off_c, 4, 70, 64
6, 46760, Note_off_c, 4, 67, 64
6, 46920, Note_on_c, 4, 69, 75
6, 46920, Note_on_c, 4, 72, 75
6, 47320, Note_off_c, 4, 72, 64
6, 47320, Note_off_c, 4, 69, 64
6, 47400, Note_on_c, 4, 67, 75
6, 47400, Note_on_c, 4, 70, 75
6, 47480, Note_off_c, 4, 70, 64
6, 47480, Note_off_c, 4, 67, 64
6, 47640, Note_on_c, 4, 60, 75
6, 47640, Note_on_c, 4, 67, 75
6, 47720, Note_off_c, 4, 67, 64
6, 47720, Note_off_c, 4, 60, 64
6, 47880, Note_on_c, 4, 67, 75
6, 47880, Note_on_c, 4, 70, 75
6, 47960, Note_off_c, 4, 70, 64
6, 47960, Note_off_c, 4, 67, 64
6, 48120, Note_on_c, 4, 60, 75
6, 48120, Note_on_c, 4, 67, 75
6, 48200, Note_off_c, 4, 67, 64
6, 48200, Note_off_c, 4, 60, 64
6, 48360, Note_on_c, 4, 65, 75
6, 48360, Note_on_c, 4, 69, 75
6, 48440, Note_off_c, 4, 69, 64
6, 48440, Note_off_c, 4, 65, 64
6, 48600, Note_on_c, 4, 60, 75
6, 48600, Note_on_c, 4, 67, 75
6, 48680, Note_off_c, 4, 67, 64
6, 48680, Note_off_c, 4, 60, 64
6, 48840, Note_on_c, 4, 60, 75
6, 48840, Note_on_c, 4, 67, 75
6, 48920, Note_off_c, 4, 67, 64
6, 48920, Note_off_c, 4, 60, 64
6, 49080, Note_on_c, 4, 60, 75
6, 49080, Note_on_c, 4, 67, 75
6, 49160, Note_off_c, 4, 67, 64
6, 49160, Note_off_c, 4, 60, 64
6, 49320, Note_on_c, 4, 65, 75
6, 49320, Note_on_c, 4, 69, 75
6, 49400, Note_off_c, 4, 69, 64
6, 49400, Note_off_c, 4, 65, 64
6, 49560, Note_on_c, 4, 60, 68
6, 49560, Note_on_c, 4, 67, 68
6, 49640, Note_off_c, 4, 67, 64
6, 49640, Note_off_c, 4, 60, 64
6, 49800, Note_on_c, 4, 60, 61
6, 49800, Note_on_c, 4, 67, 61
6, 49880, Note_off_c, 4, 67, 64
6, 49880, Note_off_c, 4, 60, 64
6, 50040, Note_on_c, 4, 60, 53
6, 50040, Note_on_c, 4, 67, 53
6, 50120, Note_off_c, 4, 67, 64
6, 50120, Note_off_c, 4, 60, 64
6, 50280, Note_on_c, 4, 65, 45
6, 50280, Note_on_c, 4, 69, 45
6, 50385, Note_off_c, 4, 69, 64
6, 50385, Note_off_c, 4, 65, 64
6, 50440, Note_on_c, 4, 65, 45
6, 50440, Note_on_c, 4, 69, 45
6, 50545, Note_off_c, 4, 69, 64
6, 50545, Note_off_c, 4, 65, 64
6, 50600, Note_on_c, 4, 65, 45
6, 50600, Note_on_c, 4, 69, 45
6, 50705, Note_off_c, 4, 69, 64
6, 50705, Note_off_c, 4, 65, 64
6, 50760, Note_on_c, 4, 65, 45
6, 50760, Note_on_c, 4, 69, 45
6, 50865, Note_off_c, 4, 69, 64
6, 50865, Note_off_c, 4, 65, 64
6, 50920, Note_on_c, 4, 65, 45
6, 50920, Note_on_c, 4, 69, 45
6, 51025, Note_off_c, 4, 69, 64
6, 51025, Note_off_c, 4, 65, 64
6, 51080, Note_on_c, 4, 65, 45
6, 51080, Note_on_c, 4, 69, 45
6, 51185, Note_off_c, 4, 69, 64
6, 51185, Note_off_c, 4, 65, 64
6, 51240, Note_on_c, 4, 65, 45
6, 51240, Note_on_c, 4, 69, 45
6, 51720, Note_off_c, 4, 69, 64
6, 51720, Note_off_c, 4, 65, 64
6, 54120, Note_on_c, 4, 57, 45
6, 54120, Note_on_c, 4, 65, 45
6, 54225, Note_off_c, 4, 65, 64
6, 54225, Note_off_c, 4, 57, 64
6, 54280, Note_on_c, 4, 57, 45
6, 54280, Note_on_c, 4, 65, 45
6, 54385, Note_off_c, 4, 65, 64
6, 54385, Note_off_c, 4, 57, 64
6, 54440, Note_on_c, 4, 57, 45
6, 54440, Note_on_c, 4, 65, 45
6, 54545, Note_off_c, 4, 65, 64
6, 54545, Note_off_c, 4, 57, 64
6, 54600, Note_on_c, 4, 57, 45
6, 54600, Note_on_c, 4, 65, 45
6, 54705, Note_off_c, 4, 65, 64
6, 54705, Note_off_c, 4, 57, 64
6, 54760, Note_on_c, 4, 57, 45
6, 54760, Note_on_c, 4, 65, 45
6, 54865, Note_off_c, 4, 65, 64
6, 54865, Note_off_c, 4, 57, 64
6, 54920, Note_on_c, 4, 57, 45
6, 54920, Note_on_c, 4, 65, 45
6, 55025, Note_off_c, 4, 65, 64
6, 55025, Note_off_c, 4, 57, 64
6, 55080, Note_on_c, 4, 57, 45
6, 55080, Note_on_c, 4, 65, 45
6, 55560, Note_off_c, 4, 65, 64
6, 55560, Note_off_c, 4, 57, 64
6, 57960, Note_on_c, 4, 57, 45
6, 57960, Note_on_c, 4, 65, 45
6, 58065, Note_off_c, 4, 65, 64
6, 58065, Note_off_c, 4, 57, 64
6, 58120, Note_on_c, 4, 57, 45
6, 58120, Note_on_c, 4, 65, 45
6, 58225, Note_off_c, 4, 65, 64
6, 58225, Note_off_c, 4, 57, 64
6, 58280, Note_on_c, 4, 57, 45
6, 58280, Note_on_c, 4, 65, 45
6, 58385, Note_off_c, 4, 65, 64
6, 58385, Note_off_c, 4, 57, 64
6, 58440, Note_on_c, 4, 57, 45
6, 58440, Note_on_c, 4, 65, 45
6, 58545, Note_off_c, 4, 65, 64
6, 58545, Note_off_c, 4, 57, 64
6, 58600, Note_on_c, 4, 57, 45
6, 58600, Note_on_c, 4, 65, 45
6, 58705, Note_off_c, 4, 65, 64
6, 58705, Note_off_c, 4, 57, 64
6, 58760, Note_on_c, 4, 57, 45
6, 58760, Note_on_c, 4, 65, 45
6, 58865, Note_off_c, 4, 65, 64
6, 58865, Note_off_c, 4, 57, 64
6, 58920, Note_on_c, 4, 57, 45
6, 58920, Note_on_c, 4, 65, 45
6, 59320, Note_off_c, 4, 65, 64
6, 59320, Note_off_c, 4, 57, 64
6, 59880, Note_on_c, 4, 55, 45
6, 59880, Note_on_c, 4, 65, 45
6, 59985, Note_off_c, 4, 65, 64
6, 59985, Note_off_c, 4, 55, 64
6, 60040, Note_on_c, 4, 55, 45
6, 60040, Note_on_c, 4, 65, 45
6, 60145, Note_off_c, 4, 65, 64
6, 60145, Note_off_c, 4, 55, 64
6, 60200, Note_on_c, 4, 55, 45
6, 60200, Note_on_c, 4, 65, 45
6, 60305, Note_off_c, 4, 65, 64
6, 60305, Note_off_c, 4, 55, 64
6, 60360, Note_on_c, 4, 55, 45
6, 60360, Note_on_c, 4, 65, 45
6, 60465, Note_off_c, 4, 65, 64
6, 60465, Note_off_c, 4, 55, 64
6, 60520, Note_on_c, 4, 55, 45
6, 60520, Note_on_c, 4, 65, 45
6, 60625, Note_off_c, 4, 65, 64
6, 60625, Note_off_c, 4, 55, 64
6, 60680, Note_on_c, 4, 55, 45
6, 60680, Note_on_c, 4, 65, 45
6, 60785, Note_off_c, 4, 65, 64
6, 60785, Note_off_c, 4, 55, 64
6, 60840, Note_on_c, 4, 55, 45
6, 60840, Note_on_c, 4, 65, 45
6, 61240, Note_off_c, 4, 65, 64
6, 61240, Note_off_c, 4, 55, 64
6, 82920, Note_on_c, 4, 67, 92
6, 84720, Note_off_c, 4, 67, 64
6, 84840, Note_on_c, 4, 72, 92
6, 86640, Note_off_c, 4, 72, 64
6, 86760, Note_on_c, 4, 71, 92
6, 87160, Note_off_c, 4, 71, 64
6, 87240, Note_on_c, 4, 71, 92
6, 87640, Note_off_c, 4, 71, 64
6, 87720, Note_on_c, 4, 71, 92
6, 88120, Note_off_c, 4, 71, 64
6, 88200, Note_on_c, 4, 74, 84
6, 88435, Note_off_c, 4, 74, 64
6, 88440, Note_on_c, 4, 71, 80
6, 88675, Note_off_c, 4, 71, 64
6, 88680, Note_on_c, 4, 72, 75
6, 90835, Note_off_c, 4, 72, 64
6, 90840, Note_on_c, 4, 60, 75
6, 91075, Note_off_c, 4, 60, 64
6, 91080, Note_on_c, 4, 60, 75
6, 91315, Note_off_c, 4, 60, 64
6, 91320, Note_on_c, 4, 60, 75
6, 91555, Note_off_c, 4, 60, 64
6, 91560, Note_on_c, 4, 60, 75
6, 91800, Note_off_c, 4, 60, 64
6, 95400, Note_on_c, 4, 72, 60
6, 97475, Note_off_c, 4, 72, 64
6, 97480, Note_on_c, 4, 60, 60
6, 97635, Note_off_c, 4, 60, 64
6, 97640, Note_on_c, 4, 60, 60
6, 97795, Note_off_c, 4, 60, 64
6, 97800, Note_on_c, 4, 60, 60
6, 97955, Note_off_c, 4, 60, 64
6, 97960, Note_on_c, 4, 60, 60
6, 98115, Note_off_c, 4, 60, 64
6, 98120, Note_on_c, 4, 60, 60
6, 98275, Note_off_c, 4, 60, 64
6, 98280, Note_on_c, 4, 60, 75
6, 98515, Note_off_c, 4, 60, 64
6, 99240, Note_on_c, 4, 60, 45
6, 101040, Note_off_c, 4, 60, 64
6, 101160, Note_on_c, 4, 67, 45
6, 102000, Note_off_c, 4, 67, 64
6, 102120, Note_on_c, 4, 60, 45
6, 102520, Note_off_c, 4, 60, 64
6, 102600, Note_on_c, 4, 60, 45
6, 103480, Note_off_c, 4, 60, 64
6, 103560, Note_on_c, 4, 60, 53
6, 104440, Note_off_c, 4, 60, 64
6, 104520, Note_on_c, 4, 60, 61
6, 104920, Note_off_c, 4, 60, 64
6, 105000, Note_on_c, 4, 67, 65
6, 105400, Note_off_c, 4, 67, 64
6, 105480, Note_on_c, 4, 67, 70
6, 105880, Note_off_c, 4, 67, 64
6, 105960, Note_on_c, 4, 60, 75
6, 106115, Note_off_c, 4, 60, 64
6, 106120, Note_on_c, 4, 60, 75
6, 106275, Note_off_c, 4, 60, 64
6, 106280, Note_on_c, 4, 60, 75
6, 106435, Note_off_c, 4, 60, 64
6, 106440, Note_on_c, 4, 60, 75
6, 106595, Note_off_c, 4, 60, 64
6, 106600, Note_on_c, 4, 60, 75
6, 106755, Note_off_c, 4, 60, 64
6, 106760, Note_on_c, 4, 60, 75
6, 106915, Note_off_c, 4, 60, 64
6, 106920, Note_on_c, 4, 65, 75
6, 107155, Note_off_c, 4, 65, 64
6, 107400, Note_on_c, 4, 69, 75
6, 107635, Note_off_c, 4, 69, 64
6, 107880, Note_on_c, 4, 72, 75
6, 108115, Note_off_c, 4, 72, 64
6, 108360, Note_on_c, 4, 67, 75
6, 108595, Note_off_c, 4, 67, 64
6, 108840, Note_on_c, 4, 67, 75
6, 109075, Note_off_c, 4, 67, 64
6, 109320, Note_on_c, 4, 67, 75
6, 109555, Note_off_c, 4, 67, 64
6, 109800, Note_on_c, 4, 60, 75
6, 109955, Note_off_c, 4, 60, 64
6, 109960, Note_on_c, 4, 60, 75
6, 110115, Note_off_c, 4, 60, 64
6, 110120, Note_on_c, 4, 60, 75
6, 110275, Note_off_c, 4, 60, 64
6, 110280, Note_on_c, 4, 60, 75
6, 111875, Note_off_c, 4, 60, 64
6, 111880, Note_on_c, 4, 60, 75
6, 112035, Note_off_c, 4, 60, 64
6, 112040, Note_on_c, 4, 60, 75
6, 112195, Note_off_c, 4, 60, 64
6, 112200, Note_on_c, 4, 60, 75
6, 113795, Note_off_c, 4, 60, 64
6, 113800, Note_on_c, 4, 60, 75
6, 113955, Note_off_c, 4, 60, 64
6, 113960, Note_on_c, 4, 60, 75
6, 114115, Note_off_c, 4, 60, 64
6, 114120, Note_on_c, 4, 60, 75
6, 115715, Note_off_c, 4, 60, 64
6, 115720, Note_on_c, 4, 60, 75
6, 115875, Note_off_c, 4, 60, 64
6, 115880, Note_on_c, 4, 60, 75
6, 116035, Note_off_c, 4, 60, 64
6, 116040, Note_on_c, 4, 60, 75
6, 117635, Note_off_c, 4, 60, 64
6, 117640, Note_on_c, 4, 60, 75
6, 117795, Note_off_c, 4, 60, 64
6, 117800, Note_on_c, 4, 60, 75
6, 117955, Note_off_c, 4, 60, 64
6, 117960, Note_on_c, 4, 60, 75
6, 118595, Note_off_c, 4, 60, 64
6, 118600, Note_on_c, 4, 60, 75
6, 118755, Note_off_c, 4, 60, 64
6, 118760, Note_on_c, 4, 60, 75
6, 118915, Note_off_c, 4, 60, 64
6, 118920, Note_on_c, 4, 60, 75
6, 119555, Note_off_c, 4, 60, 64
6, 119560, Note_on_c, 4, 60, 75
6, 119715, Note_off_c, 4, 60, 64
6, 119720, Note_on_c, 4, 60, 75
6, 119875, Note_off_c, 4, 60, 64
6, 119880, Note_on_c, 4, 60, 75
6, 120515, Note_off_c, 4, 60, 64
6, 120520, Note_on_c, 4, 60, 46
6, 120675, Note_off_c, 4, 60, 64
6, 120680, Note_on_c, 4, 60, 38
6, 120835, Note_off_c, 4, 60, 64
6, 120840, Note_on_c, 4, 60, 30
6, 121555, Note_off_c, 4, 60, 64
6, 132960, Note_on_c, 4, 60, 30
6, 132960, Note_on_c, 4, 67, 30
6, 134760, Note_off_c, 4, 67, 64
6, 134760, Note_off_c, 4, 60, 64
6, 134880, Note_on_c, 4, 60, 30
6, 134880, Note_on_c, 4, 67, 30
6, 136680, Note_off_c, 4, 67, 64
6, 136680, Note_off_c, 4, 60, 64
6, 140760, Note_on_c, 4, 29, 30
6, 140760, Note_on_c, 4, 41, 30
6, 142560, Note_off_c, 4, 41, 64
6, 142560, Note_off_c, 4, 29, 64
6, 142680, Note_on_c, 4, 29, 30
6, 142680, Note_on_c, 4, 41, 30
6, 144480, Note_off_c, 4, 41, 64
6, 144480, Note_off_c, 4, 29, 64
6, 144600, Note_on_c, 4, 29, 30
6, 144600, Note_on_c, 4, 41, 30
6, 152160, Note_off_c, 4, 41, 64
6, 152160, Note_off_c, 4, 29, 64
6, 152280, Note_on_c, 4, 29, 38
6, 152280, Note_on_c, 4, 41, 38
6, 156000, Note_off_c, 4, 41, 64
6, 156000, Note_off_c, 4, 29, 64
6, 163800, Note_on_c, 4, 69, 63
6, 167520, Note_off_c, 4, 69, 64
6, 167640, Note_on_c, 4, 69, 75
6, 168280, Note_off_c, 4, 69, 64
6, 168360, Note_on_c, 4, 69, 75
6, 168595, Note_off_c, 4, 69, 64
6, 168600, Note_on_c, 4, 69, 75
6, 169240, Note_off_c, 4, 69, 64
6, 169320, Note_on_c, 4, 69, 75
6, 169555, Note_off_c, 4, 69, 64
6, 169560, Note_on_c, 4, 69, 75
6, 170200, Note_off_c, 4, 69, 64
6, 170280, Note_on_c, 4, 69, 75
6, 170515, Note_off_c, 4, 69, 64
6, 170520, Note_on_c, 4, 69, 75
6, 171160, Note_off_c, 4, 69, 64
6, 171240, Note_on_c, 4, 69, 75
6, 171475, Note_off_c, 4, 69, 64
6, 171480, Note_on_c, 4, 69, 75
6, 171715, Note_off_c, 4, 69, 64
6, 173400, Note_on_c, 4, 69, 75
6, 173635, Note_off_c, 4, 69, 64
6, 250200, Note_on_c, 4, 67, 60
6, 252000, Note_off_c, 4, 67, 64
6, 252120, Note_on_c, 4, 60, 105
6, 253920, Note_off_c, 4, 60, 64
6, 254040, Note_on_c, 4, 60, 105
6, 255840, Note_off_c, 4, 60, 64
6, 255960, Note_on_c, 4, 60, 105
6, 257760, Note_off_c, 4, 60, 64
6, 257880, Note_on_c, 4, 60, 105
6, 259680, Note_off_c, 4, 60, 64
6, 259800, Note_on_c, 4, 60, 105
6, 260200, Note_off_c, 4, 60, 64
6, 260280, Note_on_c, 4, 60, 75
6, 260680, Note_off_c, 4, 60, 64
6, 260760, Note_on_c, 4, 60, 75
6, 261400, Note_off_c, 4, 60, 64
6, 261480, Note_on_c, 4, 60, 75
6, 261715, Note_off_c, 4, 60, 64
6, 261720, Note_on_c, 4, 60, 105
6, 262120, Note_off_c, 4, 60, 64
6, 262200, Note_on_c, 4, 60, 75
6, 262600, Note_off_c, 4, 60, 64
6, 262680, Note_on_c, 4, 60, 75
6, 263320, Note_off_c, 4, 60, 64
6, 263400, Note_on_c, 4, 60, 64
6, 263635, Note_off_c, 4, 60, 64
6, 263640, Note_on_c, 4, 41, 60
6, 267715, Note_off_c, 4, 41, 64
6, 269400, Note_on_c, 4, 48, 30
6, 271200, Note_off_c, 4, 48, 64
6, 282840, Note_on_c, 4, 65, 45
6, 283800, Note_off_c, 4, 65, 64
6, 283800, Note_on_c, 4, 60, 45
6, 284760, Note_off_c, 4, 60, 64
6, 284760, Note_on_c, 4, 60, 45
6, 285160, Note_off_c, 4, 60, 64
6, 295320, Note_on_c, 4, 60, 30
6, 295475, Note_off_c, 4, 60, 64
6, 295480, Note_on_c, 4, 60, 31
6, 295635, Note_off_c, 4, 60, 64
6, 295640, Note_on_c, 4, 60, 32
6, 295795, Note_off_c, 4, 60, 64
6, 295800, Note_on_c, 4, 60, 33
6, 295955, Note_off_c, 4, 60, 64
6, 295960, Note_on_c, 4, 60, 35
6, 296115, Note_off_c, 4, 60, 64
6, 296120, Note_on_c, 4, 60, 37
6, 296275, Note_off_c, 4, 60, 64
6, 296280, Note_on_c, 4, 60, 39
6, 296435, Note_off_c, 4, 60, 64
6, 296440, Note_on_c, 4, 60, 41
6, 296595, Note_off_c, 4, 60, 64
6, 296600, Note_on_c, 4, 60, 43
6, 296755, Note_off_c, 4, 60, 64
6, 296760, Note_on_c, 4, 60, 45
6, 296915, Note_off_c, 4, 60, 64
6, 296920, Note_on_c, 4, 60, 47
6, 297075, Note_off_c, 4, 60, 64
6, 297080, Note_on_c, 4, 60, 49
6, 297235, Note_off_c, 4, 60, 64
6, 297240, Note_on_c, 4, 60, 51
6, 297395, Note_off_c, 4, 60, 64
6, 297400, Note_on_c, 4, 60, 53
6, 297555, Note_off_c, 4, 60, 64
6, 297560, Note_on_c, 4, 60, 55
6, 297715, Note_off_c, 4, 60, 64
6, 297720, Note_on_c, 4, 60, 57
6, 297875, Note_off_c, 4, 60, 64
6, 297880, Note_on_c, 4, 60, 59
6, 298035, Note_off_c, 4, 60, 64
6, 298040, Note_on_c, 4, 60, 61
6, 298195, Note_off_c, 4, 60, 64
6, 298200, Note_on_c, 4, 60, 63
6, 298355, Note_off_c, 4, 60, 64
6, 298360, Note_on_c, 4, 60, 65
6, 298515, Note_off_c, 4, 60, 64
6, 298520, Note_on_c, 4, 60, 67
6, 298675, Note_off_c, 4, 60, 64
6, 298680, Note_on_c, 4, 60, 69
6, 298835, Note_off_c, 4, 60, 64
6, 298840, Note_on_c, 4, 60, 71
6, 298995, Note_off_c, 4, 60, 64
6, 299000, Note_on_c, 4, 60, 73
6, 299155, Note_off_c, 4, 60, 64
6, 299160, Note_on_c, 4, 65, 75
6, 299395, Note_off_c, 4, 65, 64
6, 299400, Note_on_c, 4, 69, 75
6, 299635, Note_off_c, 4, 69, 64
6, 299640, Note_on_c, 4, 70, 75
6, 299875, Note_off_c, 4, 70, 64
6, 299880, Note_on_c, 4, 70, 75
6, 300115, Note_off_c, 4, 70, 64
6, 300120, Note_on_c, 4, 72, 75
6, 300360, Note_off_c, 4, 72, 64
6, 300360, Note_on_c, 4, 70, 75
6, 300480, Note_off_c, 4, 70, 64
6, 300480, Note_on_c, 4, 69, 75
6, 300600, Note_off_c, 4, 69, 64
6, 300600, Note_on_c, 4, 67, 75
6, 300680, Note_off_c, 4, 67, 64
6, 300840, Note_on_c, 4, 60, 75
6, 300920, Note_off_c, 4, 60, 64
6, 301080, Note_on_c, 4, 65, 75
6, 301160, Note_off_c, 4, 65, 64
6, 301320, Note_on_c, 4, 67, 75
6, 301400, Note_off_c, 4, 67, 64
6, 301560, Note_on_c, 4, 69, 75
6, 302040, Note_off_c, 4, 69, 64
6, 302040, Note_on_c, 4, 67, 75
6, 302120, Note_off_c, 4, 67, 64
6, 302280, Note_on_c, 4, 69, 75
6, 302360, Note_off_c, 4, 69, 64
6, 302520, Note_on_c, 4, 70, 75
6, 303000, Note_off_c, 4, 70, 64
6, 303000, Note_on_c, 4, 69, 75
6, 303240, Note_off_c, 4, 69, 64
6, 303240, Note_on_c, 4, 72, 75
6, 303320, Note_off_c, 4, 72, 64
6, 303480, Note_on_c, 4, 72, 75
6, 303560, Note_off_c, 4, 72, 64
6, 303720, Note_on_c, 4, 72, 75
6, 303800, Note_off_c, 4, 72, 64
6, 303960, Note_on_c, 4, 72, 75
6, 304440, Note_off_c, 4, 72, 64
6, 304440, Note_on_c, 4, 69, 75
6, 304675, Note_off_c, 4, 69, 64
6, 304680, Note_on_c, 4, 65, 75
6, 304915, Note_off_c, 4, 65, 64
6, 305160, Note_on_c, 4, 65, 75
6, 305395, Note_off_c, 4, 65, 64
6, 305400, Note_on_c, 4, 67, 75
6, 305800, Note_off_c, 4, 67, 64
6, 305880, Note_on_c, 4, 65, 75
6, 305960, Note_off_c, 4, 65, 64
6, 306120, Note_on_c, 4, 67, 75
6, 306200, Note_off_c, 4, 67, 64
6, 306360, Note_on_c, 4, 69, 75
6, 306840, Note_off_c, 4, 69, 64
6, 306840, Note_on_c, 4, 67, 75
6, 307080, Note_off_c, 4, 67, 64
6, 307080, Note_on_c, 4, 70, 75
6, 307160, Note_off_c, 4, 70, 64
6, 307320, Note_on_c, 4, 70, 75
6, 307400, Note_off_c, 4, 70, 64
6, 307560, Note_on_c, 4, 70, 75
6, 307640, Note_off_c, 4, 70, 64
6, 307800, Note_on_c, 4, 70, 75
6, 308520, Note_off_c, 4, 70, 64
6, 308520, Note_on_c, 4, 67, 75
6, 308755, Note_off_c, 4, 67, 64
6, 308760, Note_on_c, 4, 69, 75
6, 308840, Note_off_c, 4, 69, 64
6, 309000, Note_on_c, 4, 70, 75
6, 309080, Note_off_c, 4, 70, 64
6, 309240, Note_on_c, 4, 72, 75
6, 309720, Note_off_c, 4, 72, 64
6, 309720, Note_on_c, 4, 70, 75
6, 309955, Note_off_c, 4, 70, 64
6, 309960, Note_on_c, 4, 67, 75
6, 310195, Note_off_c, 4, 67, 64
6, 310200, Note_on_c, 4, 70, 75
6, 310435, Note_off_c, 4, 70, 64
6, 310440, Note_on_c, 4, 67, 75
6, 310675, Note_off_c, 4, 67, 64
6, 310680, Note_on_c, 4, 69, 75
6, 310760, Note_off_c, 4, 69, 64
6, 310920, Note_on_c, 4, 70, 75
6, 311000, Note_off_c, 4, 70, 64
6, 311160, Note_on_c, 4, 72, 75
6, 311640, Note_off_c, 4, 72, 64
6, 311640, Note_on_c, 4, 70, 75
6, 311880, Note_off_c, 4, 70, 64
6, 311880, Note_on_c, 4, 67, 75
6, 312115, Note_off_c, 4, 67, 64
6, 312120, Note_on_c, 4, 70, 75
6, 312360, Note_off_c, 4, 70, 64
6, 312360, Note_on_c, 4, 67, 75
6, 312595, Note_off_c, 4, 67, 64
6, 312600, Note_on_c, 4, 69, 75
6, 312840, Note_off_c, 4, 69, 64
6, 312840, Note_on_c, 4, 67, 75
6, 313075, Note_off_c, 4, 67, 64
6, 313080, Note_on_c, 4, 67, 75
6, 313315, Note_off_c, 4, 67, 64
6, 313320, Note_on_c, 4, 67, 75
6, 313555, Note_off_c, 4, 67, 64
6, 313560, Note_on_c, 4, 69, 75
6, 313800, Note_off_c, 4, 69, 64
6, 313800, Note_on_c, 4, 67, 68
6, 314035, Note_off_c, 4, 67, 64
6, 314040, Note_on_c, 4, 67, 61
6, 314275, Note_off_c, 4, 67, 64
6, 314280, Note_on_c, 4, 67, 53
6, 314515, Note_off_c, 4, 67, 64
6, 314520, Note_on_c, 4, 65, 45
6, 314625, Note_off_c, 4, 65, 64
6, 314680, Note_on_c, 4, 65, 45
6, 314785, Note_off_c, 4, 65, 64
6, 314840, Note_on_c, 4, 65, 45
6, 314945, Note_off_c, 4, 65, 64
6, 315000, Note_on_c, 4, 65, 45
6, 315105, Note_off_c, 4, 65, 64
6, 315160, Note_on_c, 4, 65, 45
6, 315265, Note_off_c, 4, 65, 64
6, 315320, Note_on_c, 4, 65, 45
6, 315425, Note_off_c, 4, 65, 64
6, 315480, Note_on_c, 4, 65, 45
6, 315880, Note_off_c, 4, 65, 64
6, 318360, Note_on_c, 4, 65, 45
6, 318465, Note_off_c, 4, 65, 64
6, 318520, Note_on_c, 4, 65, 45
6, 318625, Note_off_c, 4, 65, 64
6, 318680, Note_on_c, 4, 65, 45
6, 318785, Note_off_c, 4, 65, 64
6, 318840, Note_on_c, 4, 65, 45
6, 318945, Note_off_c, 4, 65, 64
6, 319000, Note_on_c, 4, 65, 45
6, 319105, Note_off_c, 4, 65, 64
6, 319160, Note_on_c, 4, 65, 45
6, 319265, Note_off_c, 4, 65, 64
6, 319320, Note_on_c, 4, 65, 45
6, 319720, Note_off_c, 4, 65, 64
6, 322200, Note_on_c, 4, 65, 45
6, 322305, Note_off_c, 4, 65, 64
6, 322360, Note_on_c, 4, 65, 45
6, 322465, Note_off_c, 4, 65, 64
6, 322520, Note_on_c, 4, 65, 45
6, 322625, Note_off_c, 4, 65, 64
6, 322680, Note_on_c, 4, 65, 45
6, 322785, Note_off_c, 4, 65, 64
6, 322840, Note_on_c, 4, 65, 45
6, 322945, Note_off_c, 4, 65, 64
6, 323000, Note_on_c, 4, 65, 45
6, 323105, Note_off_c, 4, 65, 64
6, 323160, Note_on_c, 4, 65, 45
6, 323560, Note_off_c, 4, 65, 64
6, 324120, Note_on_c, 4, 67, 45
6, 324225, Note_off_c, 4, 67, 64
6, 324280, Note_on_c, 4, 67, 45
6, 324385, Note_off_c, 4, 67, 64
6, 324440, Note_on_c, 4, 67, 45
6, 324545, Note_off_c, 4, 67, 64
6, 324600, Note_on_c, 4, 67, 45
6, 324705, Note_off_c, 4, 67, 64
6, 324760, Note_on_c, 4, 67, 45
6, 324865, Note_off_c, 4, 67, 64
6, 324920, Note_on_c, 4, 67, 45
6, 325025, Note_off_c, 4, 67, 64
6, 325080, Note_on_c, 4, 67, 45
6, 325480, Note_off_c, 4, 67, 64
6, 326040, Note_on_c, 4, 67, 45
6, 326145, Note_off_c, 4, 67, 64
6, 326200, Note_on_c, 4, 67, 45
6, 326305, Note_off_c, 4, 67, 64
6, 326360, Note_on_c, 4, 67, 45
6, 326465, Note_off_c, 4, 67, 64
6, 326520, Note_on_c, 4, 67, 45
6, 326625, Note_off_c, 4, 67, 64
6, 326680, Note_on_c, 4, 67, 45
6, 326785, Note_off_c, 4, 67, 64
6, 326840, Note_on_c, 4, 67, 45
6, 326945, Note_off_c, 4, 67, 64
6, 327000, Note_on_c, 4, 67, 45
6, 327400, Note_off_c, 4, 67, 64
6, 343320, Note_on_c, 4, 60, 45
6, 345120, Note_off_c, 4, 60, 64
6, 345240, Note_on_c, 4, 65, 51
6, 347040, Note_off_c, 4, 65, 64
6, 347160, Note_on_c, 4, 64, 57
6, 347640, Note_off_c, 4, 64, 64
6, 347640, Note_on_c, 4, 64, 58
6, 348120, Note_off_c, 4, 64, 64
6, 348120, Note_on_c, 4, 64, 59
6, 348600, Note_off_c, 4, 64, 64
6, 348600, Note_on_c, 4, 67, 60
6, 348840, Note_off_c, 4, 67, 64
6, 348840, Note_on_c, 4, 64, 60
6, 349075, Note_off_c, 4, 64, 64
6, 349080, Note_on_c, 4, 65, 60
6, 349560, Note_off_c, 4, 65, 64
6, 349560, Note_on_c, 4, 65, 62
6, 350040, Note_off_c, 4, 65, 64
6, 350040, Note_on_c, 4, 65, 64
6, 350520, Note_off_c, 4, 65, 64
6, 350520, Note_on_c, 4, 69, 66
6, 350760, Note_off_c, 4, 69, 64
6, 350760, Note_on_c, 4, 65, 67
6, 350995, Note_off_c, 4, 65, 64
6, 351000, Note_on_c, 4, 67, 67
6, 351480, Note_off_c, 4, 67, 64
6, 351480, Note_on_c, 4, 67, 69
6, 351960, Note_off_c, 4, 67, 64
6, 351960, Note_on_c, 4, 67, 71
6, 352440, Note_off_c, 4, 67, 64
6, 352440, Note_on_c, 4, 70, 73
6, 352680, Note_off_c, 4, 70, 64
6, 352680, Note_on_c, 4, 67, 74
6, 352915, Note_off_c, 4, 67, 64
6, 352920, Note_on_c, 4, 69, 75
6, 353400, Note_off_c, 4, 69, 64
6, 353400, Note_on_c, 4, 69, 77
6, 353880, Note_off_c, 4, 69, 64
6, 353880, Note_on_c, 4, 69, 79
6, 354360, Note_off_c, 4, 69, 64
6, 354360, Note_on_c, 4, 72, 81
6, 354600, Note_off_c, 4, 72, 64
6, 354600, Note_on_c, 4, 69, 82
6, 354835, Note_off_c, 4, 69, 64
6, 354840, Note_on_c, 4, 72, 83
6, 355075, Note_off_c, 4, 72, 64
6, 355080, Note_on_c, 4, 60, 84
6, 355315, Note_off_c, 4, 60, 64
6, 355320, Note_on_c, 4, 60, 85
6, 355555, Note_off_c, 4, 60, 64
6, 355560, Note_on_c, 4, 60, 86
6, 355795, Note_off_c, 4, 60, 64
6, 355800, Note_on_c, 4, 60, 87
6, 356035, Note_off_c, 4, 60, 64
6, 356040, Note_on_c, 4, 60, 88
6, 356275, Note_off_c, 4, 60, 64
6, 356280, Note_on_c, 4, 60, 89
6, 356515, Note_off_c, 4, 60, 64
6, 356520, Note_on_c, 4, 60, 90
6, 356755, Note_off_c, 4, 60, 64
6, 356760, Note_on_c, 4, 65, 92
6, 358915, Note_off_c, 4, 65, 64
6, 358920, Note_on_c, 4, 65, 92
6, 359155, Note_off_c, 4, 65, 64
6, 359160, Note_on_c, 4, 65, 92
6, 359395, Note_off_c, 4, 65, 64
6, 359400, Note_on_c, 4, 65, 92
6, 359635, Note_off_c, 4, 65, 64
6, 359640, Note_on_c, 4, 65, 92
6, 359875, Note_off_c, 4, 65, 64
6, 363600, Note_on_c, 4, 65, 75
6, 365675, Note_off_c, 4, 65, 64
6, 365680, Note_on_c, 4, 65, 75
6, 365785, Note_off_c, 4, 65, 64
6, 365840, Note_on_c, 4, 65, 75
6, 365945, Note_off_c, 4, 65, 64
6, 366000, Note_on_c, 4, 65, 75
6, 366105, Note_off_c, 4, 65, 64
6, 366160, Note_on_c, 4, 65, 75
6, 366265, Note_off_c, 4, 65, 64
6, 366320, Note_on_c, 4, 65, 75
6, 366425, Note_off_c, 4, 65, 64
6, 366480, Note_on_c, 4, 65, 75
6, 366715, Note_off_c, 4, 65, 64
6, 367560, Note_on_c, 4, 41, 45
6, 369360, Note_off_c, 4, 41, 64
6, 369480, Note_on_c, 4, 48, 45
6, 370320, Note_off_c, 4, 48, 64
6, 370440, Note_on_c, 4, 41, 45
6, 370840, Note_off_c, 4, 41, 64
6, 370920, Note_on_c, 4, 41, 45
6, 371800, Note_off_c, 4, 41, 64
6, 371880, Note_on_c, 4, 41, 53
6, 372760, Note_off_c, 4, 41, 64
6, 372840, Note_on_c, 4, 41, 61
6, 373240, Note_off_c, 4, 41, 64
6, 373320, Note_on_c, 4, 48, 65
6, 373720, Note_off_c, 4, 48, 64
6, 373800, Note_on_c, 4, 48, 70
6, 374200, Note_off_c, 4, 48, 64
6, 374280, Note_on_c, 4, 65, 75
6, 374435, Note_off_c, 4, 65, 64
6, 374440, Note_on_c, 4, 65, 75
6, 374595, Note_off_c, 4, 65, 64
6, 374600, Note_on_c, 4, 65, 75
6, 374755, Note_off_c, 4, 65, 64
6, 374760, Note_on_c, 4, 65, 75
6, 374915, Note_off_c, 4, 65, 64
6, 374920, Note_on_c, 4, 65, 75
6, 375075, Note_off_c, 4, 65, 64
6, 375080, Note_on_c, 4, 65, 75
6, 375235, Note_off_c, 4, 65, 64
6, 375240, Note_on_c, 4, 65, 75
6, 375475, Note_off_c, 4, 65, 64
6, 375720, Note_on_c, 4, 65, 75
6, 375955, Note_off_c, 4, 65, 64
6, 376200, Note_on_c, 4, 65, 75
6, 376435, Note_off_c, 4, 65, 64
6, 376680, Note_on_c, 4, 65, 75
6, 376915, Note_off_c, 4, 65, 64
6, 377160, Note_on_c, 4, 60, 75
6, 377395, Note_off_c, 4, 60, 64
6, 377640, Note_on_c, 4, 60, 75
6, 377875, Note_off_c, 4, 60, 64
6, 378120, Note_on_c, 4, 65, 60
6, 378600, Note_off_c, 4, 65, 64
6, 378600, Note_on_c, 4, 60, 60
6, 379920, Note_off_c, 4, 60, 64
6, 380040, Note_on_c, 4, 69, 60
6, 380520, Note_off_c, 4, 69, 64
6, 380520, Note_on_c, 4, 65, 60
6, 381840, Note_off_c, 4, 65, 64
6, 381960, Note_on_c, 4, 65, 60
6, 382440, Note_off_c, 4, 65, 64
6, 382440, Note_on_c, 4, 60, 60
6, 383760, Note_off_c, 4, 60, 64
6, 383880, Note_on_c, 4, 69, 60
6, 384360, Note_off_c, 4, 69, 64
6, 384360, Note_on_c, 4, 65, 60
6, 386280, Note_off_c, 4, 65, 64
6, 386280, Note_on_c, 4, 60, 45
6, 386760, Note_off_c, 4, 60, 64
6, 386760, Note_on_c, 4, 65, 45
6, 387240, Note_off_c, 4, 65, 64
6, 387240, Note_on_c, 4, 60, 45
6, 387720, Note_off_c, 4, 60, 64
6, 387720, Note_on_c, 4, 65, 45
6, 388200, Note_off_c, 4, 65, 64
6, 388200, Note_on_c, 4, 60, 45
6, 388680, Note_off_c, 4, 60, 64
6, 388680, Note_on_c, 4, 65, 45
6, 389160, Note_off_c, 4, 65, 64
6, 389160, Note_on_c, 4, 60, 38
6, 389640, Note_off_c, 4, 60, 64
6, 389640, Note_on_c, 4, 65, 30
6, 390040, Note_off_c, 4, 65, 64
6, 401280, Note_on_c, 4, 41, 30
6, 403080, Note_off_c, 4, 41, 64
6, 403200, Note_on_c, 4, 41, 30
6, 405000, Note_off_c, 4, 41, 64
6, 406800, Note_on_c, 4, 65, 92
6, 406880, Note_off_c, 4, 65, 64
6, 407040, Note_on_c, 4, 65, 92
6, 407120, Note_off_c, 4, 65, 64
6, 407280, Note_on_c, 4, 65, 92
6, 407360, Note_off_c, 4, 65, 64
6, 407520, Note_on_c, 4, 65, 92
6, 407600, Note_off_c, 4, 65, 64
6, 407760, Note_on_c, 4, 65, 92
6, 407840, Note_off_c, 4, 65, 64
6, 408000, Note_on_c, 4, 65, 92
6, 408080, Note_off_c, 4, 65, 64
6, 408240, Note_on_c, 4, 65, 92
6, 408320, Note_off_c, 4, 65, 64
6, 408480, Note_on_c, 4, 65, 92
6, 408560, Note_off_c, 4, 65, 64
6, 408720, Note_on_c, 4, 65, 92
6, 408800, Note_off_c, 4, 65, 64
6, 408960, Note_on_c, 4, 65, 45
6, 409195, Note_off_c, 4, 65, 64
6, 422400, Note_on_c, 4, 65, 75
6, 422555, Note_off_c, 4, 65, 64
6, 422560, Note_on_c, 4, 65, 75
6, 422715, Note_off_c, 4, 65, 64
6, 422720, Note_on_c, 4, 65, 75
6, 422875, Note_off_c, 4, 65, 64
6, 422880, Note_on_c, 4, 65, 75
6, 424475, Note_off_c, 4, 65, 64
6, 424480, Note_on_c, 4, 65, 75
6, 424635, Note_off_c, 4, 65, 64
6, 424640, Note_on_c, 4, 65, 75
6, 424795, Note_off_c, 4, 65, 64
6, 424800, Note_on_c, 4, 65, 75
6, 426395, Note_off_c, 4, 65, 64
6, 426400, Note_on_c, 4, 65, 75
6, 426555, Note_off_c, 4, 65, 64
6, 426560, Note_on_c, 4, 65, 75
6, 426715, Note_off_c, 4, 65, 64
6, 426720, Note_on_c, 4, 65, 75
6, 428315, Note_off_c, 4, 65, 64
6, 428320, Note_on_c, 4, 65, 75
6, 428475, Note_off_c, 4, 65, 64
6, 428480, Note_on_c, 4, 65, 75
6, 428635, Note_off_c, 4, 65, 64
6, 428640, Note_on_c, 4, 65, 75
6, 430235, Note_off_c, 4, 65, 64
6, 430240, Note_on_c, 4, 65, 75
6, 430395, Note_off_c, 4, 65, 64
6, 430400, Note_on_c, 4, 65, 75
6, 430555, Note_off_c, 4, 65, 64
6, 430560, Note_on_c, 4, 65, 75
6, 431195, Note_off_c, 4, 65, 64
6, 431200, Note_on_c, 4, 65, 75
6, 431355, Note_off_c, 4, 65, 64
6, 431360, Note_on_c, 4, 65, 75
6, 431515, Note_off_c, 4, 65, 64
6, 431520, Note_on_c, 4, 65, 75
6, 432155, Note_off_c, 4, 65, 64
6, 432160, Note_on_c, 4, 65, 75
6, 432315, Note_off_c, 4, 65, 64
6, 432320, Note_on_c, 4, 65, 75
6, 432475, Note_off_c, 4, 65, 64
6, 432480, Note_on_c, 4, 65, 75
6, 432880, Note_off_c, 4, 65, 64
6, 432960, Note_on_c, 4, 67, 75
6, 433115, Note_off_c, 4, 67, 64
6, 433120, Note_on_c, 4, 67, 75
6, 433275, Note_off_c, 4, 67, 64
6, 433280, Note_on_c, 4, 67, 75
6, 433435, Note_off_c, 4, 67, 64
6, 433440, Note_on_c, 4, 67, 75
6, 433840, Note_off_c, 4, 67, 64
6, 433920, Note_on_c, 4, 65, 75
6, 434075, Note_off_c, 4, 65, 64
6, 434080, Note_on_c, 4, 65, 75
6, 434235, Note_off_c, 4, 65, 64
6, 434240, Note_on_c, 4, 65, 75
6, 434395, Note_off_c, 4, 65, 64
6, 434400, Note_on_c, 4, 65, 75
6, 435035, Note_off_c, 4, 65, 64
6, 435040, Note_on_c, 4, 65, 75
6, 435195, Note_off_c, 4, 65, 64
6, 435200, Note_on_c, 4, 65, 75
6, 435355, Note_off_c, 4, 65, 64
6, 435360, Note_on_c, 4, 65, 75
6, 435995, Note_off_c, 4, 65, 64
6, 436000, Note_on_c, 4, 65, 75
6, 436155, Note_off_c, 4, 65, 64
6, 436160, Note_on_c, 4, 65, 75
6, 436315, Note_off_c, 4, 65, 64
6, 436320, Note_on_c, 4, 65, 75
6, 436720, Note_off_c, 4, 65, 64
6, 436800, Note_on_c, 4, 67, 75
6, 436955, Note_off_c, 4, 67, 64
6, 436960, Note_on_c, 4, 67, 75
6, 437115, Note_off_c, 4, 67, 64
6, 437120, Note_on_c, 4, 67, 75
6, 437275, Note_off_c, 4, 67, 64
6, 437280, Note_on_c, 4, 67, 75
6, 437680, Note_off_c, 4, 67, 64
6, 437760, Note_on_c, 4, 65, 75
6, 437915, Note_off_c, 4, 65, 64
6, 437920, Note_on_c, 4, 65, 75
6, 438075, Note_off_c, 4, 65, 64
6, 438080, Note_on_c, 4, 65, 75
6, 438235, Note_off_c, 4, 65, 64
6, 438240, Note_on_c, 4, 65, 75
6, 438875, Note_off_c, 4, 65, 64
6, 438880, Note_on_c, 4, 65, 75
6, 439035, Note_off_c, 4, 65, 64
6, 439040, Note_on_c, 4, 65, 75
6, 439195, Note_off_c, 4, 65, 64
6, 439200, Note_on_c, 4, 65, 75
6, 439835, Note_off_c, 4, 65, 64
6, 439840, Note_on_c, 4, 65, 75
6, 439995, Note_off_c, 4, 65, 64
6, 440000, Note_on_c, 4, 65, 75
6, 440155, Note_off_c, 4, 65, 64
6, 440160, Note_on_c, 4, 65, 75
6, 440795, Note_off_c, 4, 65, 64
6, 440800, Note_on_c, 4, 65, 75
6, 440955, Note_off_c, 4, 65, 64
6, 440960, Note_on_c, 4, 65, 75
6, 441115, Note_off_c, 4, 65, 64
6, 441120, Note_on_c, 4, 65, 75
6, 441835, Note_off_c, 4, 65, 64
6, 451200, Note_on_c, 4, 60, 60
6, 452040, Note_off_c, 4, 60, 64
6, 452160, Note_on_c, 4, 60, 60
6, 452395, Note_off_c, 4, 60, 64
6, 452640, Note_on_c, 4, 60, 60
6, 452875, Note_off_c, 4, 60, 64
6, 455040, Note_on_c, 4, 60, 60
6, 455880, Note_off_c, 4, 60, 64
6, 456000, Note_on_c, 4, 60, 60
6, 456235, Note_off_c, 4, 60, 64
6, 456480, Note_on_c, 4, 60, 60
6, 456715, Note_off_c, 4, 60, 64
6, 456960, Note_on_c, 4, 57, 60
6, 457195, Note_off_c, 4, 57, 64
6, 459840, Note_on_c, 4, 60, 75
6, 460480, Note_off_c, 4, 60, 64
6, 460560, Note_on_c, 4, 60, 75
6, 460795, Note_off_c, 4, 60, 64
6, 460800, Note_on_c, 4, 65, 75
6, 461035, Note_off_c, 4, 65, 64
6, 463680, Note_on_c, 4, 60, 75
6, 464320, Note_off_c, 4, 60, 64
6, 464400, Note_on_c, 4, 60, 75
6, 464635, Note_off_c, 4, 60, 64
6, 464640, Note_on_c, 4, 65, 75
6, 464875, Note_off_c, 4, 65, 64
6, 465600, Note_on_c, 4, 60, 75
6, 466240, Note_off_c, 4, 60, 64
6, 466320, Note_on_c, 4, 60, 75
6, 466555, Note_off_c, 4, 60, 64
6, 466560, Note_on_c, 4, 65, 75
6, 466795, Note_off_c, 4, 65, 64
6, 467520, Note_on_c, 4, 60, 75
6, 468160, Note_off_c, 4, 60, 64
6, 468240, Note_on_c, 4, 60, 75
6, 468475, Note_off_c, 4, 60, 64
6, 468480, Note_on_c, 4, 57, 75
6, 468715, Note_off_c, 4, 57, 64
6, 469440, Note_on_c, 4, 57, 75
6, 469675, Note_off_c, 4, 57, 64
6, 470400, Note_on_c, 4, 57, 60
6, 470635, Note_off_c, 4, 57, 64
6, 471360, Note_on_c, 4, 57, 45
6, 471595, Note_off_c, 4, 57, 64
6, 472320, Note_on_c, 4, 57, 30
6, 472555, Note_off_c, 4, 57, 64
6, 486000, Note_on_c, 4, 65, 75
6, 486840, Note_off_c, 4, 65, 64
6, 486960, Note_on_c, 4, 67, 75
6, 487800, Note_off_c, 4, 67, 64
6, 487920, Note_on_c, 4, 69, 75
6, 488760, Note_off_c, 4, 69, 64
6, 488880, Note_on_c, 4, 69, 68
6, 489360, Note_off_c, 4, 69, 64
6, 489360, Note_on_c, 4, 69, 64
6, 489840, Note_off_c, 4, 69, 64
6, 489840, Note_on_c, 4, 69, 60
6, 490680, Note_off_c, 4, 69, 64
6, 490800, Note_on_c, 4, 57, 45
6, 491640, Note_off_c, 4, 57, 64
6, 491760, Note_on_c, 4, 57, 45
6, 492600, Note_off_c, 4, 57, 64
6, 553680, Note_on_c, 4, 67, 45
6, 554080, Note_off_c, 4, 67, 64
6, 554160, Note_on_c, 4, 60, 45
6, 555000, Note_off_c, 4, 60, 64
6, 555120, Note_on_c, 4, 60, 45
6, 556440, Note_off_c, 4, 60, 64
6, 556560, Note_on_c, 4, 60, 45
6, 557880, Note_off_c, 4, 60, 64
6, 558000, Note_on_c, 4, 60, 45
6, 559320, Note_off_c, 4, 60, 64
6, 559440, Note_on_c, 4, 60, 45
6, 560760, Note_off_c, 4, 60, 64
6, 560880, Note_on_c, 4, 60, 45
6, 562200, Note_off_c, 4, 60, 64
6, 562320, Note_on_c, 4, 60, 45
6, 563640, Note_off_c, 4, 60, 64
6, 563760, Note_on_c, 4, 67, 45
6, 564160, Note_off_c, 4, 67, 64
6, 564240, Note_on_c, 4, 67, 45
6, 564640, Note_off_c, 4, 67, 64
6, 564720, Note_on_c, 4, 60, 48
6, 565120, Note_off_c, 4, 60, 64
6, 565200, Note_on_c, 4, 60, 51
6, 565600, Note_off_c, 4, 60, 64
6, 565680, Note_on_c, 4, 60, 54
6, 566080, Note_off_c, 4, 60, 64
6, 566160, Note_on_c, 4, 60, 57
6, 566560, Note_off_c, 4, 60, 64
6, 566640, Note_on_c, 4, 60, 60
6, 567040, Note_off_c, 4, 60, 64
6, 567120, Note_on_c, 4, 60, 63
6, 567520, Note_off_c, 4, 60, 64
6, 567600, Note_on_c, 4, 60, 66
6, 568000, Note_off_c, 4, 60, 64
6, 568080, Note_on_c, 4, 60, 69
6, 568480, Note_off_c, 4, 60, 64
6, 568560, Note_on_c, 4, 60, 72
6, 568960, Note_off_c, 4, 60, 64
6, 569040, Note_on_c, 4, 60, 76
6, 569440, Note_off_c, 4, 60, 64
6, 569520, Note_on_c, 4, 60, 80
6, 569920, Note_off_c, 4, 60, 64
6, 570000, Note_on_c, 4, 60, 84
6, 570400, Note_off_c, 4, 60, 64
6, 570480, Note_on_c, 4, 60, 88
6, 570880, Note_off_c, 4, 60, 64
6, 570960, Note_on_c, 4, 60, 127
6, 571080, Note_off_c, 4, 60, 64
6, 571440, Note_on_c, 4, 65, 127
6, 571560, Note_off_c, 4, 65, 64
6, 571920, Note_on_c, 4, 65, 92
6, 572040, Note_off_c, 4, 65, 64
6, 572400, Note_on_c, 4, 65, 92
6, 572520, Note_off_c, 4, 65, 64
6, 572880, Note_on_c, 4, 65, 92
6, 573000, Note_off_c, 4, 65, 64
6, 573360, Note_on_c, 4, 65, 92
6, 573480, Note_off_c, 4, 65, 64
6, 573840, Note_on_c, 4, 65, 92
6, 573960, Note_off_c, 4, 65, 64
6, 574320, Note_on_c, 4, 65, 92
6, 574720, Note_off_c, 4, 65, 64
6, 574800, Note_on_c, 4, 65, 92
6, 575200, Note_off_c, 4, 65, 64
6, 575280, Note_on_c, 4, 67, 92
6, 575680, Note_off_c, 4, 67, 64
6, 575760, Note_on_c, 4, 69, 92
6, 576160, Note_off_c, 4, 69, 64
6, 577200, Note_on_c, 4, 69, 92
6, 577600, Note_off_c, 4, 69, 64
6, 578640, Note_on_c, 4, 69, 92
6, 579040, Note_off_c, 4, 69, 64
6, 580080, Note_on_c, 4, 69, 92
6, 581400, Note_off_c, 4, 69, 64
6, 581520, Note_on_c, 4, 67, 92
6, 582360, Note_off_c, 4, 67, 64
6, 582480, Note_on_c, 4, 60, 92
6, 582880, Note_off_c, 4, 60, 64
6, 582960, Note_on_c, 4, 60, 92
6, 583800, Note_off_c, 4, 60, 64
6, 583920, Note_on_c, 4, 60, 92
6, 584320, Note_off_c, 4, 60, 64
6, 584400, Note_on_c, 4, 60, 92
6, 585240, Note_off_c, 4, 60, 64
6, 585360, Note_on_c, 4, 60, 92
6, 585760, Note_off_c, 4, 60, 64
6, 585840, Note_on_c, 4, 65, 92
6, 587160, Note_off_c, 4, 65, 64
6, 587280, Note_on_c, 4, 67, 92
6, 588600, Note_off_c, 4, 67, 64
6, 588720, Note_on_c, 4, 69, 92
6, 590040, Note_off_c, 4, 69, 64
6, 590160, Note_on_c, 4, 67, 92
6, 591480, Note_off_c, 4, 67, 64
6, 591600, Note_on_c, 4, 69, 92
6, 592000, Note_off_c, 4, 69, 64
6, 594000, Note_on_c, 4, 60, 92
6, 594400, Note_off_c, 4, 60, 64
6, 594480, Note_on_c, 4, 60, 92
6, 595320, Note_off_c, 4, 60, 64
6, 595440, Note_on_c, 4, 60, 92
6, 595840, Note_off_c, 4, 60, 64
6, 595920, Note_on_c, 4, 60, 92
6, 596760, Note_off_c, 4, 60, 64
6, 596880, Note_on_c, 4, 67, 92
6, 597280, Note_off_c, 4, 67, 64
6, 597360, Note_on_c, 4, 65, 92
6, 598680, Note_off_c, 4, 65, 64
6, 598800, Note_on_c, 4, 65, 92
6, 600120, Note_off_c, 4, 65, 64
6, 600240, Note_on_c, 4, 65, 92
6, 601560, Note_off_c, 4, 65, 64
6, 601680, Note_on_c, 4, 60, 92
6, 603000, Note_off_c, 4, 60, 64
6, 603120, Note_on_c, 4, 65, 92
6, 603520, Note_off_c, 4, 65, 64
6, 603600, Note_on_c, 4, 69, 92
6, 603720, Note_off_c, 4, 69, 64
6, 604080, Note_on_c, 4, 69, 92
6, 604200, Note_off_c, 4, 69, 64
6, 604560, Note_on_c, 4, 72, 92
6, 604960, Note_off_c, 4, 72, 64
6, 605040, Note_on_c, 4, 69, 92
6, 605160, Note_off_c, 4, 69, 64
6, 605520, Note_on_c, 4, 69, 92
6, 605640, Note_off_c, 4, 69, 64
6, 606000, Note_on_c, 4, 72, 92
6, 606400, Note_off_c, 4, 72, 64
6, 606480, Note_on_c, 4, 69, 92
6, 606600, Note_off_c, 4, 69, 64
6, 606960, Note_on_c, 4, 69, 92
6, 607080, Note_off_c, 4, 69, 64
6, 607440, Note_on_c, 4, 70, 92
6, 607840, Note_off_c, 4, 70, 64
6, 607920, Note_on_c, 4, 67, 92
6, 608040, Note_off_c, 4, 67, 64
6, 608400, Note_on_c, 4, 67, 92
6, 608520, Note_off_c, 4, 67, 64
6, 608880, Note_on_c, 4, 72, 92
6, 609280, Note_off_c, 4, 72, 64
6, 609360, Note_on_c, 4, 69, 92
6, 609480, Note_off_c, 4, 69, 64
6, 609840, Note_on_c, 4, 69, 92
6, 609960, Note_off_c, 4, 69, 64
6, 610320, Note_on_c, 4, 72, 92
6, 610720, Note_off_c, 4, 72, 64
6, 610800, Note_on_c, 4, 69, 92
6, 610920, Note_off_c, 4, 69, 64
6, 611280, Note_on_c, 4, 69, 92
6, 611400, Note_off_c, 4, 69, 64
6, 611760, Note_on_c, 4, 72, 92
6, 612160, Note_off_c, 4, 72, 64
6, 612240, Note_on_c, 4, 69, 92
6, 612360, Note_off_c, 4, 69, 64
6, 612720, Note_on_c, 4, 69, 92
6, 612840, Note_off_c, 4, 69, 64
6, 613200, Note_on_c, 4, 70, 92
6, 613600, Note_off_c, 4, 70, 64
6, 613680, Note_on_c, 4, 67, 92
6, 613800, Note_off_c, 4, 67, 64
6, 614160, Note_on_c, 4, 67, 92
6, 614280, Note_off_c, 4, 67, 64
6, 614640, Note_on_c, 4, 72, 92
6, 615040, Note_off_c, 4, 72, 64
6, 615120, Note_on_c, 4, 69, 92
6, 615240, Note_off_c, 4, 69, 64
6, 615600, Note_on_c, 4, 69, 92
6, 615720, Note_off_c, 4, 69, 64
6, 616080, Note_on_c, 4, 72, 92
6, 616480, Note_off_c, 4, 72, 64
6, 616560, Note_on_c, 4, 69, 92
6, 616680, Note_off_c, 4, 69, 64
6, 617040, Note_on_c, 4, 69, 92
6, 617160, Note_off_c, 4, 69, 64
6, 617520, Note_on_c, 4, 72, 92
6, 617920, Note_off_c, 4, 72, 64
6, 618000, Note_on_c, 4, 69, 92
6, 618120, Note_off_c, 4, 69, 64
6, 618480, Note_on_c, 4, 69, 92
6, 618600, Note_off_c, 4, 69, 64
6, 618960, Note_on_c, 4, 72, 92
6, 619360, Note_off_c, 4, 72, 64
6, 619440, Note_on_c, 4, 69, 92
6, 619560, Note_off_c, 4, 69, 64
6, 619920, Note_on_c, 4, 69, 92
6, 620040, Note_off_c, 4, 69, 64
6, 683760, Note_on_c, 4, 60, 75
6, 685080, Note_off_c, 4, 60, 64
6, 685200, Note_on_c, 4, 70, 75
6, 685600, Note_off_c, 4, 70, 64
6, 685680, Note_on_c, 4, 67, 75
6, 686080, Note_off_c, 4, 67, 64
6, 686160, Note_on_c, 4, 67, 75
6, 686560, Note_off_c, 4, 67, 64
6, 686640, Note_on_c, 4, 69, 75
6, 687040, Note_off_c, 4, 69, 64
6, 687120, Note_on_c, 4, 69, 60
6, 687240, Note_off_c, 4, 69, 64
6, 687600, Note_on_c, 4, 72, 60
6, 688480, Note_off_c, 4, 72, 64
6, 688560, Note_on_c, 4, 69, 60
6, 688680, Note_off_c, 4, 69, 64
6, 689040, Note_on_c, 4, 65, 60
6, 689920, Note_off_c, 4, 65, 64
6, 690000, Note_on_c, 4, 60, 60
6, 690120, Note_off_c, 4, 60, 64
6, 690480, Note_on_c, 4, 67, 60
6, 691360, Note_off_c, 4, 67, 64
6, 691440, Note_on_c, 4, 65, 60
6, 691920, Note_off_c, 4, 65, 64
6, 691920, Note_on_c, 4, 67, 60
6, 692400, Note_off_c, 4, 67, 64
6, 692400, Note_on_c, 4, 69, 60
6, 692880, Note_off_c, 4, 69, 64
6, 692880, Note_on_c, 4, 67, 60
6, 693360, Note_off_c, 4, 67, 64
6, 693360, Note_on_c, 4, 65, 60
6, 693840, Note_off_c, 4, 65, 64
6, 693840, Note_on_c, 4, 67, 60
6, 694320, Note_off_c, 4, 67, 64
6, 694320, Note_on_c, 4, 69, 60
6, 694800, Note_off_c, 4, 69, 64
6, 694800, Note_on_c, 4, 70, 60
6, 695280, Note_off_c, 4, 70, 64
6, 695280, Note_on_c, 4, 69, 60
6, 695760, Note_off_c, 4, 69, 64
6, 695760, Note_on_c, 4, 70, 60
6, 696160, Note_off_c, 4, 70, 64
6, 696240, Note_on_c, 4, 72, 60
6, 704320, Note_off_c, 4, 72, 64
6, 704400, Note_on_c, 4, 69, 60
6, 704880, Note_off_c, 4, 69, 64
6, 704880, Note_on_c, 4, 70, 60
6, 705360, Note_off_c, 4, 70, 64
6, 705360, Note_on_c, 4, 72, 60
6, 705840, Note_off_c, 4, 72, 64
6, 705840, Note_on_c, 4, 70, 60
6, 706320, Note_off_c, 4, 70, 64
6, 706320, Note_on_c, 4, 69, 60
6, 706800, Note_off_c, 4, 69, 64
6, 706800, Note_on_c, 4, 67, 60
6, 707640, Note_off_c, 4, 67, 64
6, 707760, Note_on_c, 4, 69, 61
6, 708240, Note_off_c, 4, 69, 64
6, 708240, Note_on_c, 4, 70, 61
6, 708720, Note_off_c, 4, 70, 64
6, 708720, Note_on_c, 4, 67, 61
6, 709200, Note_off_c, 4, 67, 64
6, 709200, Note_on_c, 4, 69, 62
6, 709680, Note_off_c, 4, 69, 64
6, 709680, Note_on_c, 4, 65, 63
6, 710080, Note_off_c, 4, 65, 64
6, 710160, Note_on_c, 4, 69, 64
6, 710640, Note_off_c, 4, 69, 64
6, 710640, Note_on_c, 4, 70, 65
6, 711120, Note_off_c, 4, 70, 64
6, 711120, Note_on_c, 4, 72, 66
6, 711600, Note_off_c, 4, 72, 64
6, 711600, Note_on_c, 4, 70, 67
6, 712080, Note_off_c, 4, 70, 64
6, 712080, Note_on_c, 4, 69, 68
6, 712560, Note_off_c, 4, 69, 64
6, 712560, Note_on_c, 4, 67, 69
6, 713400, Note_off_c, 4, 67, 64
6, 713520, Note_on_c, 4, 69, 71
6, 714000, Note_off_c, 4, 69, 64
6, 714000, Note_on_c, 4, 70, 72
6, 714480, Note_off_c, 4, 70, 64
6, 714480, Note_on_c, 4, 67, 73
6, 714960, Note_off_c, 4, 67, 64
6, 714960, Note_on_c, 4, 69, 74
6, 715440, Note_off_c, 4, 69, 64
6, 715440, Note_on_c, 4, 65, 75
6, 715840, Note_off_c, 4, 65, 64
6, 716880, Note_on_c, 4, 69, 60
6, 717360, Note_off_c, 4, 69, 64
6, 717360, Note_on_c, 4, 72, 60
6, 717840, Note_off_c, 4, 72, 64
6, 717840, Note_on_c, 4, 70, 60
6, 718240, Note_off_c, 4, 70, 64
6, 719760, Note_on_c, 4, 67, 60
6, 720240, Note_off_c, 4, 67, 64
6, 720240, Note_on_c, 4, 70, 60
6, 720720, Note_off_c, 4, 70, 64
6, 720720, Note_on_c, 4, 69, 60
6, 721120, Note_off_c, 4, 69, 64
6, 721200, Note_on_c, 4, 65, 60
6, 722520, Note_off_c, 4, 65, 64
6, 722640, Note_on_c, 4, 72, 63
6, 726840, Note_off_c, 4, 72, 64
6, 726960, Note_on_c, 4, 65, 75
6, 727360, Note_off_c, 4, 65, 64
6, 732720, Note_on_c, 4, 65, 60
6, 733560, Note_off_c, 4, 65, 64
6, 733680, Note_on_c, 4, 65, 60
6, 734520, Note_off_c, 4, 65, 64
6, 734640, Note_on_c, 4, 65, 60
6, 735480, Note_off_c, 4, 65, 64
6, 735600, Note_on_c, 4, 65, 60
6, 736000, Note_off_c, 4, 65, 64
6, 736080, Note_on_c, 4, 65, 60
6, 736480, Note_off_c, 4, 65, 64
6, 736560, Note_on_c, 4, 65, 60
6, 737400, Note_off_c, 4, 65, 64
6, 737520, Note_on_c, 4, 65, 60
6, 738360, Note_off_c, 4, 65, 64
6, 738480, Note_on_c, 4, 65, 60
6, 739320, Note_off_c, 4, 65, 64
6, 739440, Note_on_c, 4, 65, 60
6, 739840, Note_off_c, 4, 65, 64
6, 739920, Note_on_c, 4, 65, 60
6, 740320, Note_off_c, 4, 65, 64
6, 740400, Note_on_c, 4, 65, 60
6, 741240, Note_off_c, 4, 65, 64
6, 741360, Note_on_c, 4, 65, 60
6, 742200, Note_off_c, 4, 65, 64
6, 742320, Note_on_c, 4, 65, 60
6, 743160, Note_off_c, 4, 65, 64
6, 743280, Note_on_c, 4, 65, 60
6, 743680, Note_off_c, 4, 65, 64
6, 743760, Note_on_c, 4, 65, 60
6, 744160, Note_off_c, 4, 65, 64
6, 744240, Note_on_c, 4, 65, 60
6, 745080, Note_off_c, 4, 65, 64
6, 745200, Note_on_c, 4, 65, 60
6, 746040, Note_off_c, 4, 65, 64
6, 746160, Note_on_c, 4, 65, 60
6, 747000, Note_off_c, 4, 65, 64
6, 747120, Note_on_c, 4, 65, 60
6, 747520, Note_off_c, 4, 65, 64
6, 747600, Note_on_c, 4, 65, 60
6, 748000, Note_off_c, 4, 65, 64
6, 750000, Note_on_c, 4, 69, 60
6, 750400, Note_off_c, 4, 69, 64
6, 750480, Note_on_c, 4, 65, 60
6, 750880, Note_off_c, 4, 65, 64
6, 750960, Note_on_c, 4, 67, 60
6, 751440, Note_off_c, 4, 67, 64
6, 751440, Note_on_c, 4, 65, 60
6, 751840, Note_off_c, 4, 65, 64
6, 753840, Note_on_c, 4, 69, 60
6, 754240, Note_off_c, 4, 69, 64
6, 754320, Note_on_c, 4, 65, 60
6, 754720, Note_off_c, 4, 65, 64
6, 754800, Note_on_c, 4, 67, 60
6, 755280, Note_off_c, 4, 67, 64
6, 755280, Note_on_c, 4, 65, 60
6, 755680, Note_off_c, 4, 65, 64
6, 755760, Note_on_c, 4, 60, 60
6, 756160, Note_off_c, 4, 60, 64
6, 756240, Note_on_c, 4, 67, 60
6, 756640, Note_off_c, 4, 67, 64
6, 756720, Note_on_c, 4, 60, 60
6, 757360, Note_off_c, 4, 60, 64
6, 757440, Note_on_c, 4, 60, 60
6, 757675, Note_off_c, 4, 60, 64
6, 757680, Note_on_c, 4, 60, 60
6, 757915, Note_off_c, 4, 60, 64
6, 758160, Note_on_c, 4, 60, 60
6, 758395, Note_off_c, 4, 60, 64
6, 758640, Note_on_c, 4, 60, 60
6, 758875, Note_off_c, 4, 60, 64
6, 759120, Note_on_c, 4, 67, 60
6, 759355, Note_off_c, 4, 67, 64
6, 759600, Note_on_c, 4, 60, 60
6, 759680, Note_off_c, 4, 60, 64
6, 759840, Note_on_c, 4, 60, 60
6, 759920, Note_off_c, 4, 60, 64
6, 760080, Note_on_c, 4, 67, 60
6, 760160, Note_off_c, 4, 67, 64
6, 760320, Note_on_c, 4, 67, 60
6, 760400, Note_off_c, 4, 67, 64
6, 760560, Note_on_c, 4, 60, 60
6, 760640, Note_off_c, 4, 60, 64
6, 760800, Note_on_c, 4, 60, 60
6, 760880, Note_off_c, 4, 60, 64
6, 761280, Note_on_c, 4, 60, 60
6, 761515, Note_off_c, 4, 60, 64
6, 761520, Note_on_c, 4, 60, 60
6, 761755, Note_off_c, 4, 60, 64
6, 761760, Note_on_c, 4, 60, 60
6, 761995, Note_off_c, 4, 60, 64
6, 762240, Note_on_c, 4, 60, 60
6, 762475, Note_off_c, 4, 60, 64
6, 762720, Note_on_c, 4, 60, 60
6, 762955, Note_off_c, 4, 60, 64
6, 763200, Note_on_c, 4, 67, 60
6, 763435, Note_off_c, 4, 67, 64
6, 763440, Note_on_c, 4, 60, 60
6, 764080, Note_off_c, 4, 60, 64
6, 764160, Note_on_c, 4, 60, 60
6, 764395, Note_off_c, 4, 60, 64
6, 764400, Note_on_c, 4, 60, 60
6, 765040, Note_off_c, 4, 60, 64
6, 765120, Note_on_c, 4, 60, 60
6, 765355, Note_off_c, 4, 60, 64
6, 765360, Note_on_c, 4, 60, 60
6, 766000, Note_off_c, 4, 60, 64
6, 766080, Note_on_c, 4, 60, 60
6, 766315, Note_off_c, 4, 60, 64
6, 766320, Note_on_c, 4, 60, 60
6, 766960, Note_off_c, 4, 60, 64
6, 767040, Note_on_c, 4, 60, 60
6, 767275, Note_off_c, 4, 60, 64
6, 767280, Note_on_c, 4, 60, 60
6, 767515, Note_off_c, 4, 60, 64
6, 767520, Note_on_c, 4, 60, 60
6, 767755, Note_off_c, 4, 60, 64
6, 767760, Note_on_c, 4, 60, 60
6, 767995, Note_off_c, 4, 60, 64
6, 768000, Note_on_c, 4, 60, 60
6, 768235, Note_off_c, 4, 60, 64
6, 768240, Note_on_c, 4, 60, 60
6, 768475, Note_off_c, 4, 60, 64
6, 768480, Note_on_c, 4, 60, 60
6, 768715, Note_off_c, 4, 60, 64
6, 768720, Note_on_c, 4, 60, 60
6, 768955, Note_off_c, 4, 60, 64
6, 768960, Note_on_c, 4, 60, 60
6, 769195, Note_off_c, 4, 60, 64
6, 769200, Note_on_c, 4, 60, 60
6, 769435, Note_off_c, 4, 60, 64
6, 770160, Note_on_c, 4, 55, 45
6, 770395, Note_off_c, 4, 55, 64
6, 830160, Note_on_c, 4, 67, 45
6, 830560, Note_off_c, 4, 67, 64
6, 830640, Note_on_c, 4, 60, 45
6, 831480, Note_off_c, 4, 60, 64
6, 831600, Note_on_c, 4, 60, 45
6, 832920, Note_off_c, 4, 60, 64
6, 833040, Note_on_c, 4, 60, 45
6, 834360, Note_off_c, 4, 60, 64
6, 834480, Note_on_c, 4, 60, 45
6, 835800, Note_off_c, 4, 60, 64
6, 835920, Note_on_c, 4, 60, 45
6, 837240, Note_off_c, 4, 60, 64
6, 837360, Note_on_c, 4, 60, 45
6, 838680, Note_off_c, 4, 60, 64
6, 838800, Note_on_c, 4, 60, 45
6, 840120, Note_off_c, 4, 60, 64
6, 840240, Note_on_c, 4, 67, 45
6, 840640, Note_off_c, 4, 67, 64
6, 840720, Note_on_c, 4, 67, 45
6, 841120, Note_off_c, 4, 67, 64
6, 841200, Note_on_c, 4, 60, 48
6, 841600, Note_off_c, 4, 60, 64
6, 841680, Note_on_c, 4, 60, 51
6, 842080, Note_off_c, 4, 60, 64
6, 842160, Note_on_c, 4, 60, 54
6, 842560, Note_off_c, 4, 60, 64
6, 842640, Note_on_c, 4, 60, 57
6, 843040, Note_off_c, 4, 60, 64
6, 843120, Note_on_c, 4, 60, 60
6, 843520, Note_off_c, 4, 60, 64
6, 843600, Note_on_c, 4, 60, 63
6, 844000, Note_off_c, 4, 60, 64
6, 844080, Note_on_c, 4, 60, 66
6, 844480, Note_off_c, 4, 60, 64
6, 844560, Note_on_c, 4, 60, 69
6, 844960, Note_off_c, 4, 60, 64
6, 845040, Note_on_c, 4, 60, 72
6, 845440, Note_off_c, 4, 60, 64
6, 845520, Note_on_c, 4, 60, 76
6, 845920, Note_off_c, 4, 60, 64
6, 846000, Note_on_c, 4, 60, 80
6, 846400, Note_off_c, 4, 60, 64
6, 846480, Note_on_c, 4, 60, 84
6, 846880, Note_off_c, 4, 60, 64
6, 846960, Note_on_c, 4, 60, 88
6, 847360, Note_off_c, 4, 60, 64
6, 847440, Note_on_c, 4, 60, 127
6, 847560, Note_off_c, 4, 60, 64
6, 847920, Note_on_c, 4, 65, 127
6, 848040, Note_off_c, 4, 65, 64
6, 848400, Note_on_c, 4, 65, 92
6, 848520, Note_off_c, 4, 65, 64
6, 848880, Note_on_c, 4, 65, 92
6, 849000, Note_off_c, 4, 65, 64
6, 849360, Note_on_c, 4, 65, 92
6, 849480, Note_off_c, 4, 65, 64
6, 849840, Note_on_c, 4, 65, 92
6, 849960, Note_off_c, 4, 65, 64
6, 850320, Note_on_c, 4, 65, 92
6, 850440, Note_off_c, 4, 65, 64
6, 850800, Note_on_c, 4, 65, 92
6, 851200, Note_off_c, 4, 65, 64
6, 851280, Note_on_c, 4, 65, 92
6, 851680, Note_off_c, 4, 65, 64
6, 851760, Note_on_c, 4, 67, 92
6, 852160, Note_off_c, 4, 67, 64
6, 852240, Note_on_c, 4, 69, 92
6, 852640, Note_off_c, 4, 69, 64
6, 853680, Note_on_c, 4, 69, 92
6, 854080, Note_off_c, 4, 69, 64
6, 855120, Note_on_c, 4, 69, 92
6, 855520, Note_off_c, 4, 69, 64
6, 856560, Note_on_c, 4, 69, 92
6, 857880, Note_off_c, 4, 69, 64
6, 858000, Note_on_c, 4, 67, 92
6, 858840, Note_off_c, 4, 67, 64
6, 858960, Note_on_c, 4, 60, 92
6, 859360, Note_off_c, 4, 60, 64
6, 859440, Note_on_c, 4, 60, 92
6, 860280, Note_off_c, 4, 60, 64
6, 860400, Note_on_c, 4, 60, 92
6, 860800, Note_off_c, 4, 60, 64
6, 860880, Note_on_c, 4, 60, 92
6, 861720, Note_off_c, 4, 60, 64
6, 861840, Note_on_c, 4, 60, 92
6, 862240, Note_off_c, 4, 60, 64
6, 862320, Note_on_c, 4, 65, 92
6, 863640, Note_off_c, 4, 65, 64
6, 863760, Note_on_c, 4, 67, 92
6, 865080, Note_off_c, 4, 67, 64
6, 865200, Note_on_c, 4, 69, 92
6, 866520, Note_off_c, 4, 69, 64
6, 866640, Note_on_c, 4, 67, 92
6, 867960, Note_off_c, 4, 67, 64
6, 868080, Note_on_c, 4, 69, 92
6, 868480, Note_off_c, 4, 69, 64
6, 870480, Note_on_c, 4, 60, 92
6, 870880, Note_off_c, 4, 60, 64
6, 870960, Note_on_c, 4, 60, 92
6, 871800, Note_off_c, 4, 60, 64
6, 871920, Note_on_c, 4, 60, 92
6, 872320, Note_off_c, 4, 60, 64
6, 872400, Note_on_c, 4, 60, 92
6, 873240, Note_off_c, 4, 60, 64
6, 873360, Note_on_c, 4, 67, 92
6, 873760, Note_off_c, 4, 67, 64
6, 873840, Note_on_c, 4, 65, 92
6, 875160, Note_off_c, 4, 65, 64
6, 875280, Note_on_c, 4, 65, 92
6, 876600, Note_off_c, 4, 65, 64
6, 876720, Note_on_c, 4, 65, 92
6, 878040, Note_off_c, 4, 65, 64
6, 878160, Note_on_c, 4, 60, 92
6, 879480, Note_off_c, 4, 60, 64
6, 879600, Note_on_c, 4, 65, 92
6, 880000, Note_off_c, 4, 65, 64
6, 880080, Note_on_c, 4, 69, 92
6, 880200, Note_off_c, 4, 69, 64
6, 880560, Note_on_c, 4, 69, 92
6, 880680, Note_off_c, 4, 69, 64
6, 881040, Note_on_c, 4, 72, 92
6, 881440, Note_off_c, 4, 72, 64
6, 881520, Note_on_c, 4, 69, 92
6, 881640, Note_off_c, 4, 69, 64
6, 882000, Note_on_c, 4, 69, 92
6, 882120, Note_off_c, 4, 69, 64
6, 882480, Note_on_c, 4, 72, 92
6, 882880, Note_off_c, 4, 72, 64
6, 882960, Note_on_c, 4, 69, 92
6, 883080, Note_off_c, 4, 69, 64
6, 883440, Note_on_c, 4, 69, 92
6, 883560, Note_off_c, 4, 69, 64
6, 883920, Note_on_c, 4, 70, 92
6, 884320, Note_off_c, 4, 70, 64
6, 884400, Note_on_c, 4, 67, 92
6, 884520, Note_off_c, 4, 67, 64
6, 884880, Note_on_c, 4, 67, 92
6, 885000, Note_off_c, 4, 67, 64
6, 885360, Note_on_c, 4, 72, 92
6, 885760, Note_off_c, 4, 72, 64
6, 885840, Note_on_c, 4, 69, 92
6, 885960, Note_off_c, 4, 69, 64
6, 886320, Note_on_c, 4, 69, 92
6, 886440, Note_off_c, 4, 69, 64
6, 886800, Note_on_c, 4, 72, 92
6, 887200, Note_off_c, 4, 72, 64
6, 887280, Note_on_c, 4, 69, 92
6, 887400, Note_off_c, 4, 69, 64
6, 887760, Note_on_c, 4, 69, 92
6, 887880, Note_off_c, 4, 69, 64
6, 888240, Note_on_c, 4, 72, 92
6, 888640, Note_off_c, 4, 72, 64
6, 888720, Note_on_c, 4, 69, 92
6, 888840, Note_off_c, 4, 69, 64
6, 889200, Note_on_c, 4, 69, 92
6, 889320, Note_off_c, 4, 69, 64
6, 889680, Note_on_c, 4, 70, 92
6, 890080, Note_off_c, 4, 70, 64
6, 890160, Note_on_c, 4, 67, 92
6, 890280, Note_off_c, 4, 67, 64
6, 890640, Note_on_c, 4, 67, 92
6, 890760, Note_off_c, 4, 67, 64
6, 891120, Note_on_c, 4, 72, 92
6, 891520, Note_off_c, 4, 72, 64
6, 891600, Note_on_c, 4, 69, 92
6, 891720, Note_off_c, 4, 69, 64
6, 892080, Note_on_c, 4, 69, 92
6, 892200, Note_off_c, 4, 69, 64
6, 892560, Note_on_c, 4, 72, 92
6, 892960, Note_off_c, 4, 72, 64
6, 893040, Note_on_c, 4, 69, 92
6, 893160, Note_off_c, 4, 69, 64
6, 893520, Note_on_c, 4, 69, 92
6, 893640, Note_off_c, 4, 69, 64
6, 894000, Note_on_c, 4, 72, 92
6, 894400, Note_off_c, 4, 72, 64
6, 894480, Note_on_c, 4, 69, 92
6, 894600, Note_off_c, 4, 69, 64
6, 894960, Note_on_c, 4, 69, 92
6, 895080, Note_off_c, 4, 69, 64
6, 895440, Note_on_c, 4, 72, 92
6, 895840, Note_off_c, 4, 72, 64
6, 895920, Note_on_c, 4, 69, 92
6, 896040, Note_off_c, 4, 69, 64
6, 896400, Note_on_c, 4, 69, 92
6, 896520, Note_off_c, 4, 69, 64
6, 960240, Note_on_c, 4, 60, 75
6, 961560, Note_off_c, 4, 60, 64
6, 961680, Note_on_c, 4, 70, 75
6, 962080, Note_off_c, 4, 70, 64
6, 962160, Note_on_c, 4, 67, 75
6, 962560, Note_off_c, 4, 67, 64
6, 962640, Note_on_c, 4, 67, 75
6, 963040, Note_off_c, 4, 67, 64
6, 963120, Note_on_c, 4, 69, 75
6, 963520, Note_off_c, 4, 69, 64
6, 963600, Note_on_c, 4, 69, 60
6, 963720, Note_off_c, 4, 69, 64
6, 964080, Note_on_c, 4, 72, 60
6, 964960, Note_off_c, 4, 72, 64
6, 965040, Note_on_c, 4, 69, 60
6, 965160, Note_off_c, 4, 69, 64
6, 965520, Note_on_c, 4, 65, 60
6, 966400, Note_off_c, 4, 65, 64
6, 966480, Note_on_c, 4, 60, 60
6, 966600, Note_off_c, 4, 60, 64
6, 966960, Note_on_c, 4, 67, 60
6, 967840, Note_off_c, 4, 67, 64
6, 967920, Note_on_c, 4, 65, 60
6, 968400, Note_off_c, 4, 65, 64
6, 968400, Note_on_c, 4, 67, 60
6, 968880, Note_off_c, 4, 67, 64
6, 968880, Note_on_c, 4, 69, 60
6, 969360, Note_off_c, 4, 69, 64
6, 969360, Note_on_c, 4, 67, 60
6, 969840, Note_off_c, 4, 67, 64
6, 969840, Note_on_c, 4, 65, 60
6, 970320, Note_off_c, 4, 65, 64
6, 970320, Note_on_c, 4, 67, 60
6, 970800, Note_off_c, 4, 67, 64
6, 970800, Note_on_c, 4, 69, 60
6, 971280, Note_off_c, 4, 69, 64
6, 971280, Note_on_c, 4, 70, 60
6, 971760, Note_off_c, 4, 70, 64
6, 971760, Note_on_c, 4, 69, 60
6, 972240, Note_off_c, 4, 69, 64
6, 972240, Note_on_c, 4, 70, 60
6, 972640, Note_off_c, 4, 70, 64
6, 972720, Note_on_c, 4, 72, 60
6, 980800, Note_off_c, 4, 72, 64
6, 980880, Note_on_c, 4, 69, 60
6, 981360, Note_off_c, 4, 69, 64
6, 981360, Note_on_c, 4, 70, 60
6, 981840, Note_off_c, 4, 70, 64
6, 981840, Note_on_c, 4, 72, 60
6, 982320, Note_off_c, 4, 72, 64
6, 982320, Note_on_c, 4, 70, 60
6, 982800, Note_off_c, 4, 70, 64
6, 982800, Note_on_c, 4, 69, 60
6, 983280, Note_off_c, 4, 69, 64
6, 983280, Note_on_c, 4, 67, 60
6, 984120, Note_off_c, 4, 67, 64
6, 984240, Note_on_c, 4, 69, 61
6, 984720, Note_off_c, 4, 69, 64
6, 984720, Note_on_c, 4, 70, 61
6, 985200, Note_off_c, 4, 70, 64
6, 985200, Note_on_c, 4, 67, 61
6, 985680, Note_off_c, 4, 67, 64
6, 985680, Note_on_c, 4, 69, 62
6, 986160, Note_off_c, 4, 69, 64
6, 986160, Note_on_c, 4, 65, 63
6, 986560, Note_off_c, 4, 65, 64
6, 986640, Note_on_c, 4, 69, 64
6, 987120, Note_off_c, 4, 69, 64
6, 987120, Note_on_c, 4, 70, 65
6, 987600, Note_off_c, 4, 70, 64
6, 987600, Note_on_c, 4, 72, 66
6, 988080, Note_off_c, 4, 72, 64
6, 988080, Note_on_c, 4, 70, 67
6, 988560, Note_off_c, 4, 70, 64
6, 988560, Note_on_c, 4, 69, 68
6, 989040, Note_off_c, 4, 69, 64
6, 989040, Note_on_c, 4, 67, 69
6, 989880, Note_off_c, 4, 67, 64
6, 990000, Note_on_c, 4, 69, 71
6, 990480, Note_off_c, 4, 69, 64
6, 990480, Note_on_c, 4, 70, 72
6, 990960, Note_off_c, 4, 70, 64
6, 990960, Note_on_c, 4, 67, 73
6, 991440, Note_off_c, 4, 67, 64
6, 991440, Note_on_c, 4, 69, 74
6, 991920, Note_off_c, 4, 69, 64
6, 991920, Note_on_c, 4, 65, 75
6, 992320, Note_off_c, 4, 65, 64
6, 993360, Note_on_c, 4, 69, 60
6, 993840, Note_off_c, 4, 69, 64
6, 993840, Note_on_c, 4, 72, 60
6, 994320, Note_off_c, 4, 72, 64
6, 994320, Note_on_c, 4, 70, 60
6, 994720, Note_off_c, 4, 70, 64
6, 996240, Note_on_c, 4, 67, 60
6, 996720, Note_off_c, 4, 67, 64
6, 996720, Note_on_c, 4, 70, 60
6, 997200, Note_off_c, 4, 70, 64
6, 997200, Note_on_c, 4, 69, 60
6, 997600, Note_off_c, 4, 69, 64
6, 997680, Note_on_c, 4, 65, 60
6, 999000, Note_off_c, 4, 65, 64
6, 999120, Note_on_c, 4, 72, 63
6, 1003320, Note_off_c, 4, 72, 64
6, 1003440, Note_on_c, 4, 65, 75
6, 1003840, Note_off_c, 4, 65, 64
6, 1009200, Note_on_c, 4, 65, 60
6, 1010040, Note_off_c, 4, 65, 64
6, 1010160, Note_on_c, 4, 65, 60
6, 1011000, Note_off_c, 4, 65, 64
6, 1011120, Note_on_c, 4, 65, 60
6, 1011960, Note_off_c, 4, 65, 64
6, 1012080, Note_on_c, 4, 65, 60
6, 1012480, Note_off_c, 4, 65, 64
6, 1012560, Note_on_c, 4, 65, 60
6, 1012960, Note_off_c, 4, 65, 64
6, 1013040, Note_on_c, 4, 65, 60
6, 1013880, Note_off_c, 4, 65, 64
6, 1014000, Note_on_c, 4, 65, 60
6, 1014840, Note_off_c, 4, 65, 64
6, 1014960, Note_on_c, 4, 65, 60
6, 1015800, Note_off_c, 4, 65, 64
6, 1015920, Note_on_c, 4, 65, 60
6, 1016320, Note_off_c, 4, 65, 64
6, 1016400, Note_on_c, 4, 65, 60
6, 1016800, Note_off_c, 4, 65, 64
6, 1016880, Note_on_c, 4, 65, 60
6, 1017720, Note_off_c, 4, 65, 64
6, 1017840, Note_on_c, 4, 65, 60
6, 1018680, Note_off_c, 4, 65, 64
6, 1018800, Note_on_c, 4, 65, 60
6, 1019640, Note_off_c, 4, 65, 64
6, 1019760, Note_on_c, 4, 65, 60
6, 1020160, Note_off_c, 4, 65, 64
6, 1020240, Note_on_c, 4, 65, 60
6, 1020640, Note_off_c, 4, 65, 64
6, 1020720, Note_on_c, 4, 65, 60
6, 1021560, Note_off_c, 4, 65, 64
6, 1021680, Note_on_c, 4, 65, 60
6, 1022520, Note_off_c, 4, 65, 64
6, 1022640, Note_on_c, 4, 65, 60
6, 1023480, Note_off_c, 4, 65, 64
6, 1023600, Note_on_c, 4, 65, 60
6, 1024000, Note_off_c, 4, 65, 64
6, 1024080, Note_on_c, 4, 65, 60
6, 1024480, Note_off_c, 4, 65, 64
6, 1026480, Note_on_c, 4, 69, 60
6, 1026880, Note_off_c, 4, 69, 64
6, 1026960, Note_on_c, 4, 65, 60
6, 1027360, Note_off_c, 4, 65, 64
6, 1027440, Note_on_c, 4, 67, 60
6, 1027920, Note_off_c, 4, 67, 64
6, 1027920, Note_on_c, 4, 65, 60
6, 1028320, Note_off_c, 4, 65, 64
6, 1030320, Note_on_c, 4, 69, 60
6, 1030720, Note_off_c, 4, 69, 64
6, 1030800, Note_on_c, 4, 65, 60
6, 1031200, Note_off_c, 4, 65, 64
6, 1031280, Note_on_c, 4, 67, 60
6, 1031760, Note_off_c, 4, 67, 64
6, 1031760, Note_on_c, 4, 65, 60
6, 1032160, Note_off_c, 4, 65, 64
6, 1032240, Note_on_c, 4, 60, 60
6, 1032640, Note_off_c, 4, 60, 64
6, 1032720, Note_on_c, 4, 67, 60
6, 1033120, Note_off_c, 4, 67, 64
6, 1033200, Note_on_c, 4, 60, 60
6, 1033840, Note_off_c, 4, 60, 64
6, 1033920, Note_on_c, 4, 60, 60
6, 1034155, Note_off_c, 4, 60, 64
6, 1034160, Note_on_c, 4, 60, 60
6, 1034395, Note_off_c, 4, 60, 64
6, 1034640, Note_on_c, 4, 60, 60
6, 1034875, Note_off_c, 4, 60, 64
6, 1035120, Note_on_c, 4, 60, 60
6, 1035355, Note_off_c, 4, 60, 64
6, 1035600, Note_on_c, 4, 67, 60
6, 1035835, Note_off_c, 4, 67, 64
6, 1036080, Note_on_c, 4, 60, 60
6, 1036160, Note_off_c, 4, 60, 64
6, 1036320, Note_on_c, 4, 60, 60
6, 1036400, Note_off_c, 4, 60, 64
6, 1036560, Note_on_c, 4, 67, 60
6, 1036640, Note_off_c, 4, 67, 64
6, 1036800, Note_on_c, 4, 67, 60
6, 1036880, Note_off_c, 4, 67, 64
6, 1037040, Note_on_c, 4, 60, 60
6, 1037120, Note_off_c, 4, 60, 64
6, 1037280, Note_on_c, 4, 60, 60
6, 1037360, Note_off_c, 4, 60, 64
6, 1037760, Note_on_c, 4, 60, 60
6, 1037995, Note_off_c, 4, 60, 64
6, 1038000, Note_on_c, 4, 60, 60
6, 1038235, Note_off_c, 4, 60, 64
6, 1038240, Note_on_c, 4, 60, 60
6, 1038475, Note_off_c, 4, 60, 64
6, 1038720, Note_on_c, 4, 60, 60
6, 1038955, Note_off_c, 4, 60, 64
6, 1039200, Note_on_c, 4, 60, 60
6, 1039435, Note_off_c, 4, 60, 64
6, 1039680, Note_on_c, 4, 67, 60
6, 1039915, Note_off_c, 4, 67, 64
6, 1039920, Note_on_c, 4, 60, 60
6, 1040560, Note_off_c, 4, 60, 64
6, 1040640, Note_on_c, 4, 60, 60
6, 1040875, Note_off_c, 4, 60, 64
6, 1040880, Note_on_c, 4, 60, 60
6, 1041520, Note_off_c, 4, 60, 64
6, 1041600, Note_on_c, 4, 60, 60
6, 1041835, Note_off_c, 4, 60, 64
6, 1041840, Note_on_c, 4, 60, 60
6, 1042480, Note_off_c, 4, 60, 64
6, 1042560, Note_on_c, 4, 60, 60
6, 1042795, Note_off_c, 4, 60, 64
6, 1042800, Note_on_c, 4, 60, 60
6, 1043440, Note_off_c, 4, 60, 64
6, 1043520, Note_on_c, 4, 60, 60
6, 1043755, Note_off_c, 4, 60, 64
6, 1043760, Note_on_c, 4, 60, 60
6, 1043995, Note_off_c, 4, 60, 64
6, 1044000, Note_on_c, 4, 60, 60
6, 1044235, Note_off_c, 4, 60, 64
6, 1044240, Note_on_c, 4, 60, 60
6, 1044475, Note_off_c, 4, 60, 64
6, 1044480, Note_on_c, 4, 60, 60
6, 1044715, Note_off_c, 4, 60, 64
6, 1044720, Note_on_c, 4, 60, 60
6, 1044955, Note_off_c, 4, 60, 64
6, 1044960, Note_on_c, 4, 60, 60
6, 1045195, Note_off_c, 4, 60, 64
6, 1045200, Note_on_c, 4, 60, 60
6, 1045435, Note_off_c, 4, 60, 64
6, 1045440, Note_on_c, 4, 60, 60
6, 1045675, Note_off_c, 4, 60, 64
6, 1045680, Note_on_c, 4, 60, 60
6, 1045915, Note_off_c, 4, 60, 64
6, 1046640, Note_on_c, 4, 55, 45
6, 1046875, Note_off_c, 4, 55, 64
6, 1069200, Note_on_c, 4, 67, 75
6, 1069680, Note_off_c, 4, 67, 64
6, 1069680, Note_on_c, 4, 69, 75
6, 1070320, Note_off_c, 4, 69, 64
6, 1073040, Note_on_c, 4, 67, 30
6, 1073760, Note_off_c, 4, 67, 64
6, 1076400, Note_on_c, 4, 60, 45
6, 1076800, Note_off_c, 4, 60, 64
6, 1076880, Note_on_c, 4, 41, 45
6, 1077720, Note_off_c, 4, 41, 64
6, 1077840, Note_on_c, 4, 41, 45
6, 1079160, Note_off_c, 4, 41, 64
6, 1079280, Note_on_c, 4, 41, 45
6, 1080600, Note_off_c, 4, 41, 64
6, 1080720, Note_on_c, 4, 41, 45
6, 1082040, Note_off_c, 4, 41, 64
6, 1082160, Note_on_c, 4, 41, 45
6, 1083480, Note_off_c, 4, 41, 64
6, 1083600, Note_on_c, 4, 41, 45
6, 1084920, Note_off_c, 4, 41, 64
6, 1085040, Note_on_c, 4, 41, 45
6, 1086360, Note_off_c, 4, 41, 64
6, 1086480, Note_on_c, 4, 41, 45
6, 1087800, Note_off_c, 4, 41, 64
6, 1087920, Note_on_c, 4, 41, 45
6, 1089240, Note_off_c, 4, 41, 64
6, 1089360, Note_on_c, 4, 41, 45
6, 1090680, Note_off_c, 4, 41, 64
6, 1090800, Note_on_c, 4, 41, 54
6, 1092120, Note_off_c, 4, 41, 64
6, 1092240, Note_on_c, 4, 41, 64
6, 1093560, Note_off_c, 4, 41, 64
6, 1093680, Note_on_c, 4, 60, 75
6, 1094080, Note_off_c, 4, 60, 64
6, 1094160, Note_on_c, 4, 65, 75
6, 1094560, Note_off_c, 4, 65, 64
6, 1094640, Note_on_c, 4, 65, 75
6, 1095040, Note_off_c, 4, 65, 64
6, 1095120, Note_on_c, 4, 65, 75
6, 1095520, Note_off_c, 4, 65, 64
6, 1095600, Note_on_c, 4, 65, 75
6, 1096000, Note_off_c, 4, 65, 64
6, 1096080, Note_on_c, 4, 65, 75
6, 1096480, Note_off_c, 4, 65, 64
6, 1096560, Note_on_c, 4, 65, 75
6, 1096960, Note_off_c, 4, 65, 64
6, 1097040, Note_on_c, 4, 65, 75
6, 1097440, Note_off_c, 4, 65, 64
6, 1097520, Note_on_c, 4, 65, 75
6, 1097920, Note_off_c, 4, 65, 64
6, 1098000, Note_on_c, 4, 67, 75
6, 1098400, Note_off_c, 4, 67, 64
6, 1098480, Note_on_c, 4, 69, 75
6, 1098880, Note_off_c, 4, 69, 64
6, 1099920, Note_on_c, 4, 69, 75
6, 1100320, Note_off_c, 4, 69, 64
6, 1101360, Note_on_c, 4, 69, 75
6, 1101760, Note_off_c, 4, 69, 64
6, 1102800, Note_on_c, 4, 69, 75
6, 1104120, Note_off_c, 4, 69, 64
6, 1104240, Note_on_c, 4, 67, 75
6, 1105080, Note_off_c, 4, 67, 64
6, 1105200, Note_on_c, 4, 60, 75
6, 1105600, Note_off_c, 4, 60, 64
6, 1105680, Note_on_c, 4, 60, 75
6, 1106520, Note_off_c, 4, 60, 64
6, 1106640, Note_on_c, 4, 60, 75
6, 1107040, Note_off_c, 4, 60, 64
6, 1107120, Note_on_c, 4, 60, 75
6, 1107960, Note_off_c, 4, 60, 64
6, 1108080, Note_on_c, 4, 60, 75
6, 1108480, Note_off_c, 4, 60, 64
6, 1108560, Note_on_c, 4, 65, 75
6, 1109880, Note_off_c, 4, 65, 64
6, 1110000, Note_on_c, 4, 67, 75
6, 1111320, Note_off_c, 4, 67, 64
6, 1111440, Note_on_c, 4, 69, 75
6, 1112760, Note_off_c, 4, 69, 64
6, 1112880, Note_on_c, 4, 67, 75
6, 1114200, Note_off_c, 4, 67, 64
6, 1114320, Note_on_c, 4, 69, 75
6, 1114720, Note_off_c, 4, 69, 64
6, 1116720, Note_on_c, 4, 60, 75
6, 1117120, Note_off_c, 4, 60, 64
6, 1117200, Note_on_c, 4, 60, 75
6, 1118040, Note_off_c, 4, 60, 64
6, 1118160, Note_on_c, 4, 60, 75
6, 1118560, Note_off_c, 4, 60, 64
6, 1118640, Note_on_c, 4, 60, 75
6, 1119480, Note_off_c, 4, 60, 64
6, 1119600, Note_on_c, 4, 67, 75
6, 1120000, Note_off_c, 4, 67, 64
6, 1120080, Note_on_c, 4, 65, 75
6, 1121400, Note_off_c, 4, 65, 64
6, 1121520, Note_on_c, 4, 65, 75
6, 1122840, Note_off_c, 4, 65, 64
6, 1122960, Note_on_c, 4, 65, 75
6, 1124280, Note_off_c, 4, 65, 64
6, 1124400, Note_on_c, 4, 60, 75
6, 1125720, Note_off_c, 4, 60, 64
6, 1125840, Note_on_c, 4, 65, 75
6, 1126240, Note_off_c, 4, 65, 64
6, 1126320, Note_on_c, 4, 69, 75
6, 1126720, Note_off_c, 4, 69, 64
6, 1126800, Note_on_c, 4, 69, 75
6, 1127200, Note_off_c, 4, 69, 64
6, 1127280, Note_on_c, 4, 72, 75
6, 1127680, Note_off_c, 4, 72, 64
6, 1127760, Note_on_c, 4, 69, 75
6, 1128160, Note_off_c, 4, 69, 64
6, 1128240, Note_on_c, 4, 69, 75
6, 1128640, Note_off_c, 4, 69, 64
6, 1128720, Note_on_c, 4, 72, 75
6, 1129120, Note_off_c, 4, 72, 64
6, 1129200, Note_on_c, 4, 69, 75
6, 1129600, Note_off_c, 4, 69, 64
6, 1129680, Note_on_c, 4, 69, 75
6, 1130080, Note_off_c, 4, 69, 64
6, 1130160, Note_on_c, 4, 70, 75
6, 1130560, Note_off_c, 4, 70, 64
6, 1130640, Note_on_c, 4, 67, 75
6, 1131040, Note_off_c, 4, 67, 64
6, 1131120, Note_on_c, 4, 67, 75
6, 1131520, Note_off_c, 4, 67, 64
6, 1131600, Note_on_c, 4, 72, 75
6, 1132000, Note_off_c, 4, 72, 64
6, 1132080, Note_on_c, 4, 69, 75
6, 1132480, Note_off_c, 4, 69, 64
6, 1132560, Note_on_c, 4, 69, 75
6, 1132960, Note_off_c, 4, 69, 64
6, 1133040, Note_on_c, 4, 72, 75
6, 1133440, Note_off_c, 4, 72, 64
6, 1133520, Note_on_c, 4, 69, 75
6, 1133920, Note_off_c, 4, 69, 64
6, 1134000, Note_on_c, 4, 69, 75
6, 1134400, Note_off_c, 4, 69, 64
6, 1134480, Note_on_c, 4, 72, 75
6, 1134880, Note_off_c, 4, 72, 64
6, 1134960, Note_on_c, 4, 69, 75
6, 1135360, Note_off_c, 4, 69, 64
6, 1135440, Note_on_c, 4, 69, 75
6, 1135840, Note_off_c, 4, 69, 64
6, 1135920, Note_on_c, 4, 70, 75
6, 1136320, Note_off_c, 4, 70, 64
6, 1136400, Note_on_c, 4, 67, 75
6, 1136800, Note_off_c, 4, 67, 64
6, 1136880, Note_on_c, 4, 67, 75
6, 1137280, Note_off_c, 4, 67, 64
6, 1177680, Note_on_c, 4, 65, 75
6, 1181400, Note_off_c, 4, 65, 64
6, 1181520, Note_on_c, 4, 65, 75
6, 1185240, Note_off_c, 4, 65, 64
6, 1185360, Note_on_c, 4, 67, 75
6, 1189080, Note_off_c, 4, 67, 64
6, 1189200, Note_on_c, 4, 67, 75
6, 1192920, Note_off_c, 4, 67, 64
6, 1193040, Note_on_c, 4, 60, 75
6, 1196760, Note_off_c, 4, 60, 64
6, 1196880, Note_on_c, 4, 60, 75
6, 1200600, Note_off_c, 4, 60, 64
6, 1200720, Note_on_c, 4, 65, 75
6, 1200955, Note_off_c, 4, 65, 64
6, 1201200, Note_on_c, 4, 65, 75
6, 1201435, Note_off_c, 4, 65, 64
6, 1202640, Note_on_c, 4, 65, 75
6, 1202875, Note_off_c, 4, 65, 64
6, 1203120, Note_on_c, 4, 65, 75
6, 1203355, Note_off_c, 4, 65, 64
6, 1204560, Note_on_c, 4, 60, 75
6, 1204960, Note_off_c, 4, 60, 64
6, 1205520, Note_on_c, 4, 60, 75
6, 1206880, Note_off_c, 4, 60, 64
6, 1208400, Note_on_c, 4, 60, 75
6, 1208800, Note_off_c, 4, 60, 64
6, 1209360, Note_on_c, 4, 72, 75
6, 1210720, Note_off_c, 4, 72, 64
6, 1212240, Note_on_c, 4, 53, 75
6, 1212640, Note_off_c, 4, 53, 64
6, 1213200, Note_on_c, 4, 65, 105
6, 1214560, Note_off_c, 4, 65, 64
6, 1220400, Note_on_c, 4, 65, 127
6, 1220635, Note_off_c, 4, 65, 64
6, 1228080, Note_on_c, 4, 67, 127
6, 1228315, Note_off_c, 4, 67, 64
6, 1235760, Note_on_c, 4, 69, 92
6, 1235995, Note_off_c, 4, 69, 64
6, 1237680, Note_on_c, 4, 69, 92
6, 1237915, Note_off_c, 4, 69, 64
6, 1239600, Note_on_c, 4, 65, 92
6, 1239835, Note_off_c, 4, 65, 64
6, 1241520, Note_on_c, 4, 67, 92
6, 1241755, Note_off_c, 4, 67, 64
6, 1243440, Note_on_c, 4, 67, 92
6, 1243675, Note_off_c, 4, 67, 64
6, 1244400, Note_on_c, 4, 67, 92
6, 1244635, Note_off_c, 4, 67, 64
6, 1244880, Note_on_c, 4, 69, 92
6, 1245115, Note_off_c, 4, 69, 64
6, 1264080, Note_on_c, 4, 69, 30
6, 1267800, Note_off_c, 4, 69, 64
6, 1287120, Note_on_c, 4, 67, 75
6, 1289440, Note_off_c, 4, 67, 64
6, 1292880, Note_on_c, 4, 60, 75
6, 1293280, Note_off_c, 4, 60, 64
6, 1294800, Note_on_c, 4, 60, 75
6, 1295200, Note_off_c, 4, 60, 64
6, 1296720, Note_on_c, 4, 65, 75
6, 1297120, Note_off_c, 4, 65, 64
6, 1298640, Note_on_c, 4, 65, 75
6, 1300960, Note_off_c, 4, 65, 64
6, 1308240, Note_on_c, 4, 65, 75
6, 1308880, Note_off_c, 4, 65, 64
6, 1308960, Note_on_c, 4, 65, 75
6, 1309195, Note_off_c, 4, 65, 64
6, 1309200, Note_on_c, 4, 65, 75
6, 1310560, Note_off_c, 4, 65, 64
6, 1335120, Note_on_c, 4, 67, 92
6, 1335520, Note_off_c, 4, 67, 64
6, 1337040, Note_on_c, 4, 67, 92
6, 1337440, Note_off_c, 4, 67, 64
6, 1339440, Note_on_c, 4, 65, 92
6, 1339840, Note_off_c, 4, 65, 64
6, 1341360, Note_on_c, 4, 65, 92
6, 1341760, Note_off_c, 4, 65, 64
6, 1342320, Note_on_c, 4, 69, 75
6, 1350360, Note_off_c, 4, 69, 64
6, 1350480, Note_on_c, 4, 69, 75
6, 1352400, Note_off_c, 4, 69, 64
6, 1352400, Note_on_c, 4, 69, 105
6, 1354200, Note_off_c, 4, 69, 64
6, 1354320, Note_on_c, 4, 65, 75
6, 1356240, Note_off_c, 4, 65, 64
6, 1356240, Note_on_c, 4, 65, 105
6, 1358040, Note_off_c, 4, 65, 64
6, 1358160, Note_on_c, 4, 41, 75
6, 1360080, Note_off_c, 4, 41, 64
6, 1360080, Note_on_c, 4, 41, 105
6, 1361880, Note_off_c, 4, 41, 64
6, 1362000, Note_on_c, 4, 41, 75
6, 1363920, Note_off_c, 4, 41, 64
6, 1363920, Note_on_c, 4, 41, 105
6, 1365720, Note_off_c, 4, 41, 64
6, 1365840, Note_on_c, 4, 46, 45
6, 1366240, Note_off_c, 4, 46, 64
6, 1442640, Note_on_c, 4, 67, 30
6, 1443360, Note_off_c, 4, 67, 64
6, 1443360, Note_on_c, 4, 60, 36
6, 1443660, Note_off_c, 4, 60, 64
6, 1443840, Note_on_c, 4, 72, 40
6, 1444010, Note_off_c, 4, 72, 64
6, 1444080, Note_on_c, 4, 67, 42
6, 1444800, Note_off_c, 4, 67, 64
6, 1444800, Note_on_c, 4, 60, 48
6, 1445100, Note_off_c, 4, 60, 64
6, 1445280, Note_on_c, 4, 72, 52
6, 1445450, Note_off_c, 4, 72, 64
6, 1445520, Note_on_c, 4, 67, 54
6, 1445760, Note_off_c, 4, 67, 64
6, 1445760, Note_on_c, 4, 60, 56
6, 1445930, Note_off_c, 4, 60, 64
6, 1446000, Note_on_c, 4, 72, 58
6, 1446170, Note_off_c, 4, 72, 64
6, 1446240, Note_on_c, 4, 67, 60
6, 1446480, Note_off_c, 4, 67, 64
6, 1446480, Note_on_c, 4, 60, 62
6, 1446650, Note_off_c, 4, 60, 64
6, 1446720, Note_on_c, 4, 72, 64
6, 1446890, Note_off_c, 4, 72, 64
6, 1446960, Note_on_c, 4, 67, 66
6, 1447200, Note_off_c, 4, 67, 64
6, 1447200, Note_on_c, 4, 60, 69
6, 1447370, Note_off_c, 4, 60, 64
6, 1447440, Note_on_c, 4, 72, 72
6, 1447610, Note_off_c, 4, 72, 64
6, 1447680, Note_on_c, 4, 69, 75
6, 1447920, Note_off_c, 4, 69, 64
6, 1447920, Note_on_c, 4, 60, 75
6, 1448090, Note_off_c, 4, 60, 64
6, 1448160, Note_on_c, 4, 72, 75
6, 1448330, Note_off_c, 4, 72, 64
6, 1448460, Note_on_c, 4, 69, 30
6, 1449415, Note_off_c, 4, 69, 64
6, 1457820, Note_on_c, 4, 60, 30
6, 1459860, Note_off_c, 4, 60, 64
6, 1459980, Note_on_c, 4, 69, 30
6, 1460215, Note_off_c, 4, 69, 64
6, 1460220, Note_on_c, 4, 69, 31
6, 1460455, Note_off_c, 4, 69, 64
6, 1460460, Note_on_c, 4, 69, 32
6, 1460695, Note_off_c, 4, 69, 64
6, 1460700, Note_on_c, 4, 69, 33
6, 1460935, Note_off_c, 4, 69, 64
6, 1460940, Note_on_c, 4, 69, 34
6, 1461175, Note_off_c, 4, 69, 64
6, 1461180, Note_on_c, 4, 69, 35
6, 1461415, Note_off_c, 4, 69, 64
6, 1461420, Note_on_c, 4, 69, 36
6, 1461655, Note_off_c, 4, 69, 64
6, 1461660, Note_on_c, 4, 69, 37
6, 1461895, Note_off_c, 4, 69, 64
6, 1461900, Note_on_c, 4, 69, 38
6, 1462135, Note_off_c, 4, 69, 64
6, 1462140, Note_on_c, 4, 69, 39
6, 1462375, Note_off_c, 4, 69, 64
6, 1462380, Note_on_c, 4, 69, 40
6, 1462615, Note_off_c, 4, 69, 64
6, 1462620, Note_on_c, 4, 69, 41
6, 1462855, Note_off_c, 4, 69, 64
6, 1462860, Note_on_c, 4, 69, 42
6, 1463095, Note_off_c, 4, 69, 64
6, 1463100, Note_on_c, 4, 69, 43
6, 1463335, Note_off_c, 4, 69, 64
6, 1463340, Note_on_c, 4, 69, 44
6, 1463575, Note_off_c, 4, 69, 64
6, 1463580, Note_on_c, 4, 69, 45
6, 1463815, Note_off_c, 4, 69, 64
6, 1463820, Note_on_c, 4, 69, 46
6, 1464055, Note_off_c, 4, 69, 64
6, 1464060, Note_on_c, 4, 69, 47
6, 1464295, Note_off_c, 4, 69, 64
6, 1464300, Note_on_c, 4, 70, 48
6, 1464535, Note_off_c, 4, 70, 64
6, 1464540, Note_on_c, 4, 70, 49
6, 1464775, Note_off_c, 4, 70, 64
6, 1464780, Note_on_c, 4, 70, 50
6, 1465015, Note_off_c, 4, 70, 64
6, 1465020, Note_on_c, 4, 70, 51
6, 1465255, Note_off_c, 4, 70, 64
6, 1465260, Note_on_c, 4, 70, 52
6, 1465495, Note_off_c, 4, 70, 64
6, 1465500, Note_on_c, 4, 70, 53
6, 1465735, Note_off_c, 4, 70, 64
6, 1465740, Note_on_c, 4, 70, 54
6, 1465975, Note_off_c, 4, 70, 64
6, 1465980, Note_on_c, 4, 70, 55
6, 1466215, Note_off_c, 4, 70, 64
6, 1466220, Note_on_c, 4, 70, 56
6, 1466455, Note_off_c, 4, 70, 64
6, 1466460, Note_on_c, 4, 70, 57
6, 1466695, Note_off_c, 4, 70, 64
6, 1466700, Note_on_c, 4, 70, 58
6, 1466935, Note_off_c, 4, 70, 64
6, 1466940, Note_on_c, 4, 70, 59
6, 1467175, Note_off_c, 4, 70, 64
6, 1467180, Note_on_c, 4, 69, 60
6, 1467415, Note_off_c, 4, 69, 64
6, 1467420, Note_on_c, 4, 69, 61
6, 1467655, Note_off_c, 4, 69, 64
6, 1467660, Note_on_c, 4, 69, 62
6, 1467895, Note_off_c, 4, 69, 64
6, 1467900, Note_on_c, 4, 69, 63
6, 1468135, Note_off_c, 4, 69, 64
6, 1468140, Note_on_c, 4, 69, 64
6, 1468375, Note_off_c, 4, 69, 64
6, 1468380, Note_on_c, 4, 69, 66
6, 1468615, Note_off_c, 4, 69, 64
6, 1468620, Note_on_c, 4, 67, 68
6, 1468855, Note_off_c, 4, 67, 64
6, 1468860, Note_on_c, 4, 67, 70
6, 1469095, Note_off_c, 4, 67, 64
6, 1469100, Note_on_c, 4, 67, 72
6, 1469335, Note_off_c, 4, 67, 64
6, 1469340, Note_on_c, 4, 67, 74
6, 1469575, Note_off_c, 4, 67, 64
6, 1469580, Note_on_c, 4, 67, 76
6, 1469815, Note_off_c, 4, 67, 64
6, 1469820, Note_on_c, 4, 67, 78
6, 1470055, Note_off_c, 4, 67, 64
6, 1470060, Note_on_c, 4, 69, 80
6, 1470295, Note_off_c, 4, 69, 64
6, 1470300, Note_on_c, 4, 69, 82
6, 1470535, Note_off_c, 4, 69, 64
6, 1470540, Note_on_c, 4, 69, 84
6, 1470775, Note_off_c, 4, 69, 64
6, 1470780, Note_on_c, 4, 69, 86
6, 1471015, Note_off_c, 4, 69, 64
6, 1471020, Note_on_c, 4, 69, 88
6, 1471255, Note_off_c, 4, 69, 64
6, 1471260, Note_on_c, 4, 69, 90
6, 1471495, Note_off_c, 4, 69, 64
6, 1471500, Note_on_c, 4, 69, 92
6, 1472220, Note_off_c, 4, 69, 64
6, 1472220, Note_on_c, 4, 65, 92
6, 1472700, Note_off_c, 4, 65, 64
6, 1472700, Note_on_c, 4, 72, 92
6, 1472870, Note_off_c, 4, 72, 64
6, 1472940, Note_on_c, 4, 69, 92
6, 1473660, Note_off_c, 4, 69, 64
6, 1473660, Note_on_c, 4, 65, 92
6, 1474140, Note_off_c, 4, 65, 64
6, 1474140, Note_on_c, 4, 60, 92
6, 1474310, Note_off_c, 4, 60, 64
6, 1474380, Note_on_c, 4, 65, 92
6, 1474860, Note_off_c, 4, 65, 64
6, 1474860, Note_on_c, 4, 69, 92
6, 1475100, Note_off_c, 4, 69, 64
6, 1475100, Note_on_c, 4, 72, 92
6, 1475580, Note_off_c, 4, 72, 64
6, 1475580, Note_on_c, 4, 69, 92
6, 1475820, Note_off_c, 4, 69, 64
6, 1475820, Note_on_c, 4, 70, 92
6, 1477020, Note_off_c, 4, 70, 64
6, 1477020, Note_on_c, 4, 67, 92
6, 1477190, Note_off_c, 4, 67, 64
6, 1477260, Note_on_c, 4, 70, 92
6, 1477980, Note_off_c, 4, 70, 64
6, 1477980, Note_on_c, 4, 67, 92
6, 1478460, Note_off_c, 4, 67, 64
6, 1478460, Note_on_c, 4, 72, 92
6, 1478630, Note_off_c, 4, 72, 64
6, 1478700, Note_on_c, 4, 69, 92
6, 1479420, Note_off_c, 4, 69, 64
6, 1479420, Note_on_c, 4, 65, 92
6, 1479900, Note_off_c, 4, 65, 64
6, 1479900, Note_on_c, 4, 69, 92
6, 1480070, Note_off_c, 4, 69, 64
6, 1480140, Note_on_c, 4, 67, 92
6, 1480620, Note_off_c, 4, 67, 64
6, 1480620, Note_on_c, 4, 62, 92
6, 1480860, Note_off_c, 4, 62, 64
6, 1480860, Note_on_c, 4, 64, 92
6, 1481340, Note_off_c, 4, 64, 64
6, 1481340, Note_on_c, 4, 60, 92
6, 1481580, Note_off_c, 4, 60, 64
6, 1481580, Note_on_c, 4, 65, 75
6, 1481980, Note_off_c, 4, 65, 64
6, 1484220, Note_on_c, 4, 60, 75
6, 1484455, Note_off_c, 4, 60, 64
6, 1484460, Note_on_c, 4, 60, 75
6, 1486540, Note_off_c, 4, 60, 64
6, 1486620, Note_on_c, 4, 60, 75
6, 1487020, Note_off_c, 4, 60, 64
6, 1487100, Note_on_c, 4, 60, 75
6, 1487335, Note_off_c, 4, 60, 64
6, 1489980, Note_on_c, 4, 60, 75
6, 1490215, Note_off_c, 4, 60, 64
6, 1490220, Note_on_c, 4, 60, 75
6, 1492300, Note_off_c, 4, 60, 64
6, 1492380, Note_on_c, 4, 60, 75
6, 1492780, Note_off_c, 4, 60, 64
6, 1492860, Note_on_c, 4, 60, 75
6, 1493095, Note_off_c, 4, 60, 64
6, 1493100, Note_on_c, 4, 60, 75
6, 1493740, Note_off_c, 4, 60, 64
6, 1493820, Note_on_c, 4, 67, 75
6, 1494220, Note_off_c, 4, 67, 64
6, 1494300, Note_on_c, 4, 67, 75
6, 1494535, Note_off_c, 4, 67, 64
6, 1494540, Note_on_c, 4, 67, 75
6, 1495180, Note_off_c, 4, 67, 64
6, 1495260, Note_on_c, 4, 67, 75
6, 1495660, Note_off_c, 4, 67, 64
6, 1495740, Note_on_c, 4, 67, 75
6, 1495975, Note_off_c, 4, 67, 64
6, 1495980, Note_on_c, 4, 67, 75
6, 1497100, Note_off_c, 4, 67, 64
6, 1497180, Note_on_c, 4, 67, 75
6, 1497260, Note_off_c, 4, 67, 64
6, 1497300, Note_on_c, 4, 67, 75
6, 1497380, Note_off_c, 4, 67, 64
6, 1497420, Note_on_c, 4, 67, 75
6, 1497820, Note_off_c, 4, 67, 64
6, 1497900, Note_on_c, 4, 67, 75
6, 1498135, Note_off_c, 4, 67, 64
6, 1498140, Note_on_c, 4, 67, 75
6, 1498540, Note_off_c, 4, 67, 64
6, 1498620, Note_on_c, 4, 67, 75
6, 1498855, Note_off_c, 4, 67, 64
6, 1498860, Note_on_c, 4, 67, 75
6, 1499980, Note_off_c, 4, 67, 64
6, 1500060, Note_on_c, 4, 67, 75
6, 1500140, Note_off_c, 4, 67, 64
6, 1500180, Note_on_c, 4, 67, 75
6, 1500260, Note_off_c, 4, 67, 64
6, 1500300, Note_on_c, 4, 67, 75
6, 1500700, Note_off_c, 4, 67, 64
6, 1500780, Note_on_c, 4, 67, 75
6, 1501015, Note_off_c, 4, 67, 64
6, 1501020, Note_on_c, 4, 67, 75
6, 1501420, Note_off_c, 4, 67, 64
6, 1501500, Note_on_c, 4, 67, 75
6, 1501735, Note_off_c, 4, 67, 64
6, 1501740, Note_on_c, 4, 67, 75
6, 1502140, Note_off_c, 4, 67, 64
6, 1502220, Note_on_c, 4, 67, 75
6, 1502455, Note_off_c, 4, 67, 64
6, 1502460, Note_on_c, 4, 67, 75
6, 1502860, Note_off_c, 4, 67, 64
6, 1502940, Note_on_c, 4, 67, 75
6, 1503020, Note_off_c, 4, 67, 64
6, 1503060, Note_on_c, 4, 67, 75
6, 1503140, Note_off_c, 4, 67, 64
6, 1503180, Note_on_c, 4, 67, 75
6, 1503580, Note_off_c, 4, 67, 64
6, 1503660, Note_on_c, 4, 67, 75
6, 1503895, Note_off_c, 4, 67, 64
6, 1503900, Note_on_c, 4, 67, 75
6, 1504300, Note_off_c, 4, 67, 64
6, 1504380, Note_on_c, 4, 67, 75
6, 1504615, Note_off_c, 4, 67, 64
6, 1504620, Note_on_c, 4, 67, 75
6, 1505020, Note_off_c, 4, 67, 64
6, 1505100, Note_on_c, 4, 67, 75
6, 1505335, Note_off_c, 4, 67, 64
6, 1505340, Note_on_c, 4, 67, 75
6, 1505740, Note_off_c, 4, 67, 64
6, 1505820, Note_on_c, 4, 67, 75
6, 1505900, Note_off_c, 4, 67, 64
6, 1505940, Note_on_c, 4, 67, 75
6, 1506020, Note_off_c, 4, 67, 64
6, 1506060, Note_on_c, 4, 67, 75
6, 1506460, Note_off_c, 4, 67, 64
6, 1506540, Note_on_c, 4, 67, 75
6, 1506775, Note_off_c, 4, 67, 64
6, 1506780, Note_on_c, 4, 67, 75
6, 1507180, Note_off_c, 4, 67, 64
6, 1507260, Note_on_c, 4, 67, 75
6, 1507495, Note_off_c, 4, 67, 64
6, 1507500, Note_on_c, 4, 60, 75
6, 1507900, Note_off_c, 4, 60, 64
6, 1509420, Note_on_c, 4, 60, 75
6, 1509660, Note_off_c, 4, 60, 64
6, 1509660, Note_on_c, 4, 67, 75
6, 1510060, Note_off_c, 4, 67, 64
6, 1510140, Note_on_c, 4, 67, 75
6, 1510380, Note_off_c, 4, 67, 64
6, 1510380, Note_on_c, 4, 60, 75
6, 1510615, Note_off_c, 4, 60, 64
6, 1512300, Note_on_c, 4, 60, 60
6, 1512540, Note_off_c, 4, 60, 64
6, 1512540, Note_on_c, 4, 67, 63
6, 1512940, Note_off_c, 4, 67, 64
6, 1513020, Note_on_c, 4, 67, 71
6, 1513100, Note_off_c, 4, 67, 64
6, 1513260, Note_on_c, 4, 60, 75
6, 1513980, Note_off_c, 4, 60, 64
6, 1513980, Note_on_c, 4, 60, 75
6, 1514215, Note_off_c, 4, 60, 64
6, 1514460, Note_on_c, 4, 60, 75
6, 1514540, Note_off_c, 4, 60, 64
6, 1514700, Note_on_c, 4, 69, 75
6, 1515420, Note_off_c, 4, 69, 64
6, 1515420, Note_on_c, 4, 69, 75
6, 1515655, Note_off_c, 4, 69, 64
6, 1515900, Note_on_c, 4, 69, 75
6, 1515980, Note_off_c, 4, 69, 64
6, 1516140, Note_on_c, 4, 67, 45
6, 1516375, Note_off_c, 4, 67, 64
6, 1524780, Note_on_c, 4, 67, 60
6, 1524950, Note_off_c, 4, 67, 64
6, 1525020, Note_on_c, 4, 60, 65
6, 1525190, Note_off_c, 4, 60, 64
6, 1525260, Note_on_c, 4, 72, 70
6, 1525430, Note_off_c, 4, 72, 64
6, 1525500, Note_on_c, 4, 67, 75
6, 1525670, Note_off_c, 4, 67, 64
6, 1525740, Note_on_c, 4, 60, 80
6, 1525910, Note_off_c, 4, 60, 64
6, 1525980, Note_on_c, 4, 72, 85
6, 1526150, Note_off_c, 4, 72, 64
6, 1526220, Note_on_c, 4, 67, 90
6, 1526390, Note_off_c, 4, 67, 64
6, 1526460, Note_on_c, 4, 60, 96
6, 1526630, Note_off_c, 4, 60, 64
6, 1526700, Note_on_c, 4, 72, 102
6, 1526870, Note_off_c, 4, 72, 64
6, 1526940, Note_on_c, 4, 67, 108
6, 1527110, Note_off_c, 4, 67, 64
6, 1527180, Note_on_c, 4, 60, 108
6, 1527350, Note_off_c, 4, 60, 64
6, 1527420, Note_on_c, 4, 72, 108
6, 1527590, Note_off_c, 4, 72, 64
6, 1527660, Note_on_c, 4, 69, 45
6, 1528060, Note_off_c, 4, 69, 64
6, 1537020, Note_on_c, 4, 60, 45
6, 1539060, Note_off_c, 4, 60, 64
6, 1539180, Note_on_c, 4, 69, 45
6, 1539415, Note_off_c, 4, 69, 64
6, 1539420, Note_on_c, 4, 69, 45
6, 1539655, Note_off_c, 4, 69, 64
6, 1539660, Note_on_c, 4, 69, 45
6, 1539895, Note_off_c, 4, 69, 64
6, 1539900, Note_on_c, 4, 69, 45
6, 1540135, Note_off_c, 4, 69, 64
6, 1540140, Note_on_c, 4, 69, 45
6, 1540375, Note_off_c, 4, 69, 64
6, 1540380, Note_on_c, 4, 69, 45
6, 1540615, Note_off_c, 4, 69, 64
6, 1540620, Note_on_c, 4, 69, 46
6, 1540855, Note_off_c, 4, 69, 64
6, 1540860, Note_on_c, 4, 69, 46
6, 1541095, Note_off_c, 4, 69, 64
6, 1541100, Note_on_c, 4, 69, 47
6, 1541335, Note_off_c, 4, 69, 64
6, 1541340, Note_on_c, 4, 69, 48
6, 1541575, Note_off_c, 4, 69, 64
6, 1541580, Note_on_c, 4, 69, 49
6, 1541815, Note_off_c, 4, 69, 64
6, 1541820, Note_on_c, 4, 69, 50
6, 1542055, Note_off_c, 4, 69, 64
6, 1542060, Note_on_c, 4, 69, 51
6, 1542295, Note_off_c, 4, 69, 64
6, 1542300, Note_on_c, 4, 69, 52
6, 1542535, Note_off_c, 4, 69, 64
6, 1542540, Note_on_c, 4, 69, 53
6, 1542775, Note_off_c, 4, 69, 64
6, 1542780, Note_on_c, 4, 69, 54
6, 1543015, Note_off_c, 4, 69, 64
6, 1543020, Note_on_c, 4, 69, 55
6, 1543255, Note_off_c, 4, 69, 64
6, 1543260, Note_on_c, 4, 69, 56
6, 1543495, Note_off_c, 4, 69, 64
6, 1543500, Note_on_c, 4, 69, 57
6, 1543735, Note_off_c, 4, 69, 64
6, 1543740, Note_on_c, 4, 69, 58
6, 1543975, Note_off_c, 4, 69, 64
6, 1543980, Note_on_c, 4, 69, 59
6, 1544215, Note_off_c, 4, 69, 64
6, 1544220, Note_on_c, 4, 69, 60
6, 1544455, Note_off_c, 4, 69, 64
6, 1544460, Note_on_c, 4, 69, 61
6, 1544695, Note_off_c, 4, 69, 64
6, 1544700, Note_on_c, 4, 69, 62
6, 1544935, Note_off_c, 4, 69, 64
6, 1544940, Note_on_c, 4, 69, 63
6, 1545175, Note_off_c, 4, 69, 64
6, 1545180, Note_on_c, 4, 69, 64
6, 1545415, Note_off_c, 4, 69, 64
6, 1545420, Note_on_c, 4, 69, 65
6, 1545655, Note_off_c, 4, 69, 64
6, 1545660, Note_on_c, 4, 69, 66
6, 1545895, Note_off_c, 4, 69, 64
6, 1545900, Note_on_c, 4, 69, 67
6, 1546135, Note_off_c, 4, 69, 64
6, 1546140, Note_on_c, 4, 69, 68
6, 1546375, Note_off_c, 4, 69, 64
6, 1546380, Note_on_c, 4, 69, 69
6, 1546615, Note_off_c, 4, 69, 64
6, 1546620, Note_on_c, 4, 69, 70
6, 1546855, Note_off_c, 4, 69, 64
6, 1546860, Note_on_c, 4, 69, 71
6, 1547095, Note_off_c, 4, 69, 64
6, 1547100, Note_on_c, 4, 69, 72
6, 1547335, Note_off_c, 4, 69, 64
6, 1547340, Note_on_c, 4, 69, 73
6, 1547575, Note_off_c, 4, 69, 64
6, 1547580, Note_on_c, 4, 65, 75
6, 1547815, Note_off_c, 4, 65, 64
6, 1547820, Note_on_c, 4, 65, 75
6, 1548220, Note_off_c, 4, 65, 64
6, 1548300, Note_on_c, 4, 65, 75
6, 1548535, Note_off_c, 4, 65, 64
6, 1548540, Note_on_c, 4, 65, 75
6, 1548940, Note_off_c, 4, 65, 64
6, 1549020, Note_on_c, 4, 65, 75
6, 1549255, Note_off_c, 4, 65, 64
6, 1549260, Note_on_c, 4, 65, 75
6, 1549660, Note_off_c, 4, 65, 64
6, 1549740, Note_on_c, 4, 65, 75
6, 1549975, Note_off_c, 4, 65, 64
6, 1549980, Note_on_c, 4, 65, 75
6, 1550380, Note_off_c, 4, 65, 64
6, 1550460, Note_on_c, 4, 65, 75
6, 1550695, Note_off_c, 4, 65, 64
6, 1550700, Note_on_c, 4, 65, 75
6, 1551100, Note_off_c, 4, 65, 64
6, 1553340, Note_on_c, 4, 65, 75
6, 1553575, Note_off_c, 4, 65, 64
6, 1553580, Note_on_c, 4, 65, 75
6, 1553980, Note_off_c, 4, 65, 64
6, 1556220, Note_on_c, 4, 65, 75
6, 1556455, Note_off_c, 4, 65, 64
6, 1556460, Note_on_c, 4, 65, 75
6, 1556695, Note_off_c, 4, 65, 64
6, 1557180, Note_on_c, 4, 65, 75
6, 1557580, Note_off_c, 4, 65, 64
6, 1557660, Note_on_c, 4, 65, 75
6, 1557895, Note_off_c, 4, 65, 64
6, 1557900, Note_on_c, 4, 65, 75
6, 1558300, Note_off_c, 4, 65, 64
6, 1558380, Note_on_c, 4, 65, 75
6, 1558615, Note_off_c, 4, 65, 64
6, 1558620, Note_on_c, 4, 65, 75
6, 1559020, Note_off_c, 4, 65, 64
6, 1559100, Note_on_c, 4, 65, 75
6, 1559340, Note_off_c, 4, 65, 64
6, 1559340, Note_on_c, 4, 65, 75
6, 1559740, Note_off_c, 4, 65, 64
6, 1560540, Note_on_c, 4, 70, 75
6, 1560780, Note_off_c, 4, 70, 64
6, 1560780, Note_on_c, 4, 70, 75
6, 1561180, Note_off_c, 4, 70, 64
6, 1561980, Note_on_c, 4, 70, 75
6, 1562220, Note_off_c, 4, 70, 64
6, 1562220, Note_on_c, 4, 70, 75
6, 1562620, Note_off_c, 4, 70, 64
6, 1563420, Note_on_c, 4, 70, 75
6, 1563660, Note_off_c, 4, 70, 64
6, 1563660, Note_on_c, 4, 65, 75
6, 1564060, Note_off_c, 4, 65, 64
6, 1564860, Note_on_c, 4, 65, 75
6, 1565100, Note_off_c, 4, 65, 64
6, 1565100, Note_on_c, 4, 65, 75
6, 1565500, Note_off_c, 4, 65, 64
6, 1566300, Note_on_c, 4, 70, 75
6, 1566540, Note_off_c, 4, 70, 64
6, 1566540, Note_on_c, 4, 70, 75
6, 1566940, Note_off_c, 4, 70, 64
6, 1567740, Note_on_c, 4, 70, 75
6, 1567980, Note_off_c, 4, 70, 64
6, 1567980, Note_on_c, 4, 70, 75
6, 1568380, Note_off_c, 4, 70, 64
6, 1569180, Note_on_c, 4, 70, 75
6, 1569420, Note_off_c, 4, 70, 64
6, 1569420, Note_on_c, 4, 70, 60
6, 1570860, Note_off_c, 4, 70, 64
6, 1570860, Note_on_c, 4, 65, 60
6, 1571260, Note_off_c, 4, 65, 64
6, 1577340, Note_on_c, 4, 67, 45
6, 1577980, Note_off_c, 4, 67, 64
6, 1578060, Note_on_c, 4, 67, 45
6, 1580140, Note_off_c, 4, 67, 64
6, 1580700, Note_on_c, 4, 67, 75
6, 1580935, Note_off_c, 4, 67, 64
6, 1580940, Note_on_c, 4, 67, 75
6, 1581660, Note_off_c, 4, 67, 64
6, 1581660, Note_on_c, 4, 67, 75
6, 1581895, Note_off_c, 4, 67, 64
6, 1582140, Note_on_c, 4, 67, 75
6, 1582375, Note_off_c, 4, 67, 64
6, 1582380, Note_on_c, 4, 67, 75
6, 1583100, Note_off_c, 4, 67, 64
6, 1583100, Note_on_c, 4, 67, 75
6, 1583335, Note_off_c, 4, 67, 64
6, 1583580, Note_on_c, 4, 67, 75
6, 1583815, Note_off_c, 4, 67, 64
6, 1583820, Note_on_c, 4, 67, 45
6, 1586380, Note_off_c, 4, 67, 64
6, 1586460, Note_on_c, 4, 67, 60
6, 1586695, Note_off_c, 4, 67, 64
6, 1586700, Note_on_c, 4, 67, 60
6, 1587420, Note_off_c, 4, 67, 64
6, 1587420, Note_on_c, 4, 67, 63
6, 1587655, Note_off_c, 4, 67, 64
6, 1587900, Note_on_c, 4, 67, 65
6, 1588135, Note_off_c, 4, 67, 64
6, 1588140, Note_on_c, 4, 67, 66
6, 1588860, Note_off_c, 4, 67, 64
6, 1588860, Note_on_c, 4, 67, 70
6, 1589095, Note_off_c, 4, 67, 64
6, 1589340, Note_on_c, 4, 67, 73
6, 1589575, Note_off_c, 4, 67, 64
6, 1589580, Note_on_c, 4, 67, 75
6, 1590300, Note_off_c, 4, 67, 64
6, 1590300, Note_on_c, 4, 67, 75
6, 1590535, Note_off_c, 4, 67, 64
6, 1590780, Note_on_c, 4, 67, 75
6, 1591015, Note_off_c, 4, 67, 64
6, 1591020, Note_on_c, 4, 67, 75
6, 1591975, Note_off_c, 4, 67, 64
6, 1592220, Note_on_c, 4, 67, 75
6, 1592455, Note_off_c, 4, 67, 64
6, 1592460, Note_on_c, 4, 67, 45
6, 1595220, Note_off_c, 4, 67, 64
6, 1595340, Note_on_c, 4, 67, 45
6, 1598100, Note_off_c, 4, 67, 64
6, 1598220, Note_on_c, 4, 67, 30
6, 1600780, Note_off_c, 4, 67, 64
6, 1600860, Note_on_c, 4, 72, 60
6, 1601030, Note_off_c, 4, 72, 64
6, 1601100, Note_on_c, 4, 67, 63
6, 1601270, Note_off_c, 4, 67, 64
6, 1601340, Note_on_c, 4, 60, 66
6, 1601510, Note_off_c, 4, 60, 64
6, 1601580, Note_on_c, 4, 72, 69
6, 1601750, Note_off_c, 4, 72, 64
6, 1601820, Note_on_c, 4, 67, 72
6, 1601990, Note_off_c, 4, 67, 64
6, 1602060, Note_on_c, 4, 60, 75
6, 1602230, Note_off_c, 4, 60, 64
6, 1602300, Note_on_c, 4, 72, 78
6, 1602470, Note_off_c, 4, 72, 64
6, 1602540, Note_on_c, 4, 67, 81
6, 1602710, Note_off_c, 4, 67, 64
6, 1602780, Note_on_c, 4, 60, 84
6, 1602950, Note_off_c, 4, 60, 64
6, 1603020, Note_on_c, 4, 72, 88
6, 1603190, Note_off_c, 4, 72, 64
6, 1603260, Note_on_c, 4, 67, 92
6, 1603430, Note_off_c, 4, 67, 64
6, 1603500, Note_on_c, 4, 60, 92
6, 1603670, Note_off_c, 4, 60, 64
6, 1603740, Note_on_c, 4, 72, 92
6, 1603910, Note_off_c, 4, 72, 64
6, 1603980, Note_on_c, 4, 65, 45
6, 1604380, Note_off_c, 4, 65, 64
6, 1613340, Note_on_c, 4, 60, 45
6, 1613740, Note_off_c, 4, 60, 64
6, 1613820, Note_on_c, 4, 60, 45
6, 1614055, Note_off_c, 4, 60, 64
6, 1614060, Note_on_c, 4, 60, 45
6, 1615180, Note_off_c, 4, 60, 64
6, 1615260, Note_on_c, 4, 69, 45
6, 1615495, Note_off_c, 4, 69, 64
6, 1615500, Note_on_c, 4, 69, 45
6, 1615735, Note_off_c, 4, 69, 64
6, 1615740, Note_on_c, 4, 69, 45
6, 1615975, Note_off_c, 4, 69, 64
6, 1615980, Note_on_c, 4, 69, 45
6, 1616215, Note_off_c, 4, 69, 64
6, 1616220, Note_on_c, 4, 69, 46
6, 1616455, Note_off_c, 4, 69, 64
6, 1616460, Note_on_c, 4, 69, 47
6, 1616695, Note_off_c, 4, 69, 64
6, 1616700, Note_on_c, 4, 69, 48
6, 1616935, Note_off_c, 4, 69, 64
6, 1616940, Note_on_c, 4, 69, 49
6, 1617175, Note_off_c, 4, 69, 64
6, 1617180, Note_on_c, 4, 69, 50
6, 1617415, Note_off_c, 4, 69, 64
6, 1617420, Note_on_c, 4, 69, 51
6, 1617655, Note_off_c, 4, 69, 64
6, 1617660, Note_on_c, 4, 69, 52
6, 1617895, Note_off_c, 4, 69, 64
6, 1617900, Note_on_c, 4, 69, 53
6, 1618135, Note_off_c, 4, 69, 64
6, 1618140, Note_on_c, 4, 69, 54
6, 1618375, Note_off_c, 4, 69, 64
6, 1618380, Note_on_c, 4, 69, 55
6, 1618615, Note_off_c, 4, 69, 64
6, 1618620, Note_on_c, 4, 69, 56
6, 1618855, Note_off_c, 4, 69, 64
6, 1618860, Note_on_c, 4, 69, 57
6, 1619095, Note_off_c, 4, 69, 64
6, 1619100, Note_on_c, 4, 69, 58
6, 1619335, Note_off_c, 4, 69, 64
6, 1619340, Note_on_c, 4, 69, 59
6, 1619575, Note_off_c, 4, 69, 64
6, 1619580, Note_on_c, 4, 69, 60
6, 1619815, Note_off_c, 4, 69, 64
6, 1619820, Note_on_c, 4, 70, 61
6, 1620055, Note_off_c, 4, 70, 64
6, 1620060, Note_on_c, 4, 70, 62
6, 1620295, Note_off_c, 4, 70, 64
6, 1620300, Note_on_c, 4, 70, 63
6, 1620535, Note_off_c, 4, 70, 64
6, 1620540, Note_on_c, 4, 70, 64
6, 1620775, Note_off_c, 4, 70, 64
6, 1620780, Note_on_c, 4, 70, 65
6, 1621015, Note_off_c, 4, 70, 64
6, 1621020, Note_on_c, 4, 70, 66
6, 1621255, Note_off_c, 4, 70, 64
6, 1621260, Note_on_c, 4, 70, 67
6, 1621495, Note_off_c, 4, 70, 64
6, 1621500, Note_on_c, 4, 70, 68
6, 1621735, Note_off_c, 4, 70, 64
6, 1621740, Note_on_c, 4, 70, 69
6, 1621975, Note_off_c, 4, 70, 64
6, 1621980, Note_on_c, 4, 70, 70
6, 1622215, Note_off_c, 4, 70, 64
6, 1622220, Note_on_c, 4, 70, 71
6, 1622455, Note_off_c, 4, 70, 64
6, 1622460, Note_on_c, 4, 70, 72
6, 1622695, Note_off_c, 4, 70, 64
6, 1622700, Note_on_c, 4, 69, 73
6, 1622935, Note_off_c, 4, 69, 64
6, 1622940, Note_on_c, 4, 69, 74
6, 1623175, Note_off_c, 4, 69, 64
6, 1623180, Note_on_c, 4, 69, 75
6, 1623415, Note_off_c, 4, 69, 64
6, 1623420, Note_on_c, 4, 69, 76
6, 1623655, Note_off_c, 4, 69, 64
6, 1623660, Note_on_c, 4, 69, 77
6, 1623895, Note_off_c, 4, 69, 64
6, 1623900, Note_on_c, 4, 69, 78
6, 1624135, Note_off_c, 4, 69, 64
6, 1624140, Note_on_c, 4, 67, 79
6, 1624375, Note_off_c, 4, 67, 64
6, 1624380, Note_on_c, 4, 67, 80
6, 1624615, Note_off_c, 4, 67, 64
6, 1624620, Note_on_c, 4, 67, 81
6, 1624855, Note_off_c, 4, 67, 64
6, 1624860, Note_on_c, 4, 67, 82
6, 1625095, Note_off_c, 4, 67, 64
6, 1625100, Note_on_c, 4, 67, 83
6, 1625335, Note_off_c, 4, 67, 64
6, 1625340, Note_on_c, 4, 67, 84
6, 1625575, Note_off_c, 4, 67, 64
6, 1625580, Note_on_c, 4, 69, 85
6, 1625815, Note_off_c, 4, 69, 64
6, 1625820, Note_on_c, 4, 69, 86
6, 1626055, Note_off_c, 4, 69, 64
6, 1626060, Note_on_c, 4, 69, 87
6, 1626295, Note_off_c, 4, 69, 64
6, 1626300, Note_on_c, 4, 69, 88
6, 1626535, Note_off_c, 4, 69, 64
6, 1626540, Note_on_c, 4, 69, 89
6, 1626775, Note_off_c, 4, 69, 64
6, 1626780, Note_on_c, 4, 69, 90
6, 1627015, Note_off_c, 4, 69, 64
6, 1627020, Note_on_c, 4, 69, 92
6, 1627420, Note_off_c, 4, 69, 64
6, 1627500, Note_on_c, 4, 69, 92
6, 1627735, Note_off_c, 4, 69, 64
6, 1627740, Note_on_c, 4, 69, 92
6, 1627975, Note_off_c, 4, 69, 64
6, 1627980, Note_on_c, 4, 65, 92
6, 1628215, Note_off_c, 4, 65, 64
6, 1628220, Note_on_c, 4, 72, 92
6, 1628455, Note_off_c, 4, 72, 64
6, 1628940, Note_on_c, 4, 69, 92
6, 1629175, Note_off_c, 4, 69, 64
6, 1629180, Note_on_c, 4, 69, 92
6, 1629415, Note_off_c, 4, 69, 64
6, 1629420, Note_on_c, 4, 60, 92
6, 1629655, Note_off_c, 4, 60, 64
6, 1629660, Note_on_c, 4, 65, 92
6, 1629895, Note_off_c, 4, 65, 64
6, 1630380, Note_on_c, 4, 69, 92
6, 1630615, Note_off_c, 4, 69, 64
6, 1630620, Note_on_c, 4, 69, 92
6, 1630855, Note_off_c, 4, 69, 64
6, 1630860, Note_on_c, 4, 65, 92
6, 1631095, Note_off_c, 4, 65, 64
6, 1631100, Note_on_c, 4, 72, 92
6, 1631335, Note_off_c, 4, 72, 64
6, 1631820, Note_on_c, 4, 70, 92
6, 1632055, Note_off_c, 4, 70, 64
6, 1632060, Note_on_c, 4, 70, 92
6, 1632295, Note_off_c, 4, 70, 64
6, 1632300, Note_on_c, 4, 65, 92
6, 1632535, Note_off_c, 4, 65, 64
6, 1632540, Note_on_c, 4, 60, 92
6, 1632775, Note_off_c, 4, 60, 64
6, 1633260, Note_on_c, 4, 70, 92
6, 1633495, Note_off_c, 4, 70, 64
6, 1633500, Note_on_c, 4, 70, 92
6, 1633735, Note_off_c, 4, 70, 64
6, 1633740, Note_on_c, 4, 67, 92
6, 1633975, Note_off_c, 4, 67, 64
6, 1633980, Note_on_c, 4, 72, 92
6, 1634215, Note_off_c, 4, 72, 64
6, 1634700, Note_on_c, 4, 69, 92
6, 1634935, Note_off_c, 4, 69, 64
6, 1634940, Note_on_c, 4, 69, 92
6, 1635175, Note_off_c, 4, 69, 64
6, 1635180, Note_on_c, 4, 65, 92
6, 1635415, Note_off_c, 4, 65, 64
6, 1635420, Note_on_c, 4, 69, 92
6, 1635655, Note_off_c, 4, 69, 64
6, 1636140, Note_on_c, 4, 67, 92
6, 1636375, Note_off_c, 4, 67, 64
6, 1636380, Note_on_c, 4, 67, 92
6, 1636615, Note_off_c, 4, 67, 64
6, 1636620, Note_on_c, 4, 60, 92
6, 1636855, Note_off_c, 4, 60, 64
6, 1636860, Note_on_c, 4, 67, 92
6, 1637095, Note_off_c, 4, 67, 64
6, 1637100, Note_on_c, 4, 65, 75
6, 1637335, Note_off_c, 4, 65, 64
6, 1639740, Note_on_c, 4, 60, 75
6, 1639975, Note_off_c, 4, 60, 64
6, 1639980, Note_on_c, 4, 60, 75
6, 1642060, Note_off_c, 4, 60, 64
6, 1642140, Note_on_c, 4, 60, 75
6, 1642540, Note_off_c, 4, 60, 64
6, 1642620, Note_on_c, 4, 60, 75
6, 1642855, Note_off_c, 4, 60, 64
6, 1646460, Note_on_c, 4, 67, 75
6, 1646860, Note_off_c, 4, 67, 64
6, 1646940, Note_on_c, 4, 67, 75
6, 1647175, Note_off_c, 4, 67, 64
6, 1647180, Note_on_c, 4, 67, 75
6, 1647820, Note_off_c, 4, 67, 64
6, 1647900, Note_on_c, 4, 67, 75
6, 1648300, Note_off_c, 4, 67, 64
6, 1648380, Note_on_c, 4, 67, 60
6, 1648615, Note_off_c, 4, 67, 64
6, 1648620, Note_on_c, 4, 67, 60
6, 1649260, Note_off_c, 4, 67, 64
6, 1649340, Note_on_c, 4, 60, 60
6, 1649980, Note_off_c, 4, 60, 64
6, 1650060, Note_on_c, 4, 60, 60
6, 1650700, Note_off_c, 4, 60, 64
6, 1650780, Note_on_c, 4, 65, 60
6, 1651180, Note_off_c, 4, 65, 64
6, 1651260, Note_on_c, 4, 65, 60
6, 1651495, Note_off_c, 4, 65, 64
6, 1651500, Note_on_c, 4, 60, 60
6, 1652620, Note_off_c, 4, 60, 64
6, 1652700, Note_on_c, 4, 60, 60
6, 1652780, Note_off_c, 4, 60, 64
6, 1652820, Note_on_c, 4, 60, 60
6, 1652900, Note_off_c, 4, 60, 64
6, 1652940, Note_on_c, 4, 60, 60
6, 1653340, Note_off_c, 4, 60, 64
6, 1653420, Note_on_c, 4, 60, 60
6, 1653655, Note_off_c, 4, 60, 64
6, 1653660, Note_on_c, 4, 60, 60
6, 1654060, Note_off_c, 4, 60, 64
6, 1654140, Note_on_c, 4, 60, 60
6, 1654375, Note_off_c, 4, 60, 64
6, 1654380, Note_on_c, 4, 60, 60
6, 1655500, Note_off_c, 4, 60, 64
6, 1655580, Note_on_c, 4, 60, 60
6, 1655660, Note_off_c, 4, 60, 64
6, 1655700, Note_on_c, 4, 60, 60
6, 1655780, Note_off_c, 4, 60, 64
6, 1655820, Note_on_c, 4, 60, 60
6, 1656220, Note_off_c, 4, 60, 64
6, 1656300, Note_on_c, 4, 60, 60
6, 1656535, Note_off_c, 4, 60, 64
6, 1656540, Note_on_c, 4, 60, 60
6, 1656940, Note_off_c, 4, 60, 64
6, 1657020, Note_on_c, 4, 60, 60
6, 1657255, Note_off_c, 4, 60, 64
6, 1657260, Note_on_c, 4, 60, 60
6, 1657660, Note_off_c, 4, 60, 64
6, 1657740, Note_on_c, 4, 60, 60
6, 1657975, Note_off_c, 4, 60, 64
6, 1657980, Note_on_c, 4, 60, 60
6, 1658380, Note_off_c, 4, 60, 64
6, 1658460, Note_on_c, 4, 60, 60
6, 1658540, Note_off_c, 4, 60, 64
6, 1658580, Note_on_c, 4, 60, 60
6, 1658660, Note_off_c, 4, 60, 64
6, 1658700, Note_on_c, 4, 60, 60
6, 1659100, Note_off_c, 4, 60, 64
6, 1659180, Note_on_c, 4, 60, 60
6, 1659415, Note_off_c, 4, 60, 64
6, 1659420, Note_on_c, 4, 60, 60
6, 1659820, Note_off_c, 4, 60, 64
6, 1659900, Note_on_c, 4, 60, 60
6, 1660135, Note_off_c, 4, 60, 64
6, 1660140, Note_on_c, 4, 60, 60
6, 1660540, Note_off_c, 4, 60, 64
6, 1660620, Note_on_c, 4, 60, 60
6, 1660855, Note_off_c, 4, 60, 64
6, 1660860, Note_on_c, 4, 60, 60
6, 1661260, Note_off_c, 4, 60, 64
6, 1661340, Note_on_c, 4, 60, 60
6, 1661455, Note_off_c, 4, 60, 64
6, 1661460, Note_on_c, 4, 60, 60
6, 1661575, Note_off_c, 4, 60, 64
6, 1661580, Note_on_c, 4, 60, 60
6, 1661980, Note_off_c, 4, 60, 64
6, 1662060, Note_on_c, 4, 60, 60
6, 1662295, Note_off_c, 4, 60, 64
6, 1662300, Note_on_c, 4, 60, 60
6, 1662700, Note_off_c, 4, 60, 64
6, 1662780, Note_on_c, 4, 60, 60
6, 1663015, Note_off_c, 4, 60, 64
6, 1663020, Note_on_c, 4, 65, 60
6, 1663420, Note_off_c, 4, 65, 64
6, 1664940, Note_on_c, 4, 65, 60
6, 1665180, Note_off_c, 4, 65, 64
6, 1665180, Note_on_c, 4, 60, 60
6, 1665580, Note_off_c, 4, 60, 64
6, 1665660, Note_on_c, 4, 60, 60
6, 1665900, Note_off_c, 4, 60, 64
6, 1665900, Note_on_c, 4, 65, 60
6, 1666300, Note_off_c, 4, 65, 64
6, 1666380, Note_on_c, 4, 65, 45
6, 1667575, Note_off_c, 4, 65, 64
6, 1667580, Note_on_c, 4, 60, 55
6, 1667815, Note_off_c, 4, 60, 64
6, 1667820, Note_on_c, 4, 60, 65
6, 1668055, Note_off_c, 4, 60, 64
6, 1668060, Note_on_c, 4, 60, 75
6, 1668460, Note_off_c, 4, 60, 64
6, 1668540, Note_on_c, 4, 60, 75
6, 1668620, Note_off_c, 4, 60, 64
6, 1668780, Note_on_c, 4, 65, 75
6, 1669420, Note_off_c, 4, 65, 64
6, 1669500, Note_on_c, 4, 65, 75
6, 1669735, Note_off_c, 4, 65, 64
6, 1669980, Note_on_c, 4, 65, 75
6, 1670215, Note_off_c, 4, 65, 64
6, 1670220, Note_on_c, 4, 67, 75
6, 1670860, Note_off_c, 4, 67, 64
6, 1670940, Note_on_c, 4, 67, 75
6, 1671175, Note_off_c, 4, 67, 64
6, 1671420, Note_on_c, 4, 67, 75
6, 1671655, Note_off_c, 4, 67, 64
6, 1671660, Note_on_c, 4, 60, 60
6, 1671895, Note_off_c, 4, 60, 64
6, 1684620, Note_on_c, 4, 60, 45
6, 1685020, Note_off_c, 4, 60, 64
6, 1685340, Note_on_c, 4, 60, 45
6, 1685740, Note_off_c, 4, 60, 64
6, 1686060, Note_on_c, 4, 60, 55
6, 1686460, Note_off_c, 4, 60, 64
6, 1686780, Note_on_c, 4, 60, 67
6, 1687015, Note_off_c, 4, 60, 64
6, 1687260, Note_on_c, 4, 60, 75
6, 1688620, Note_off_c, 4, 60, 64
6, 1688700, Note_on_c, 4, 60, 75
6, 1689340, Note_off_c, 4, 60, 64
6, 1689420, Note_on_c, 4, 60, 75
6, 1690060, Note_off_c, 4, 60, 64
6, 1690140, Note_on_c, 4, 60, 75
6, 1690375, Note_off_c, 4, 60, 64
6, 1690380, Note_on_c, 4, 69, 75
6, 1690615, Note_off_c, 4, 69, 64
6, 1708140, Note_on_c, 4, 67, 60
6, 1708375, Note_off_c, 4, 67, 64
6, 1708380, Note_on_c, 4, 67, 63
6, 1708615, Note_off_c, 4, 67, 64
6, 1708620, Note_on_c, 4, 67, 66
6, 1708855, Note_off_c, 4, 67, 64
6, 1708860, Note_on_c, 4, 67, 69
6, 1709095, Note_off_c, 4, 67, 64
6, 1709100, Note_on_c, 4, 67, 72
6, 1709335, Note_off_c, 4, 67, 64
6, 1709340, Note_on_c, 4, 65, 75
6, 1711900, Note_off_c, 4, 65, 64
6, 1711980, Note_on_c, 4, 65, 75
6, 1712215, Note_off_c, 4, 65, 64
6, 1712220, Note_on_c, 4, 65, 75
6, 1714780, Note_off_c, 4, 65, 64
6, 1714860, Note_on_c, 4, 65, 75
6, 1715095, Note_off_c, 4, 65, 64
6, 1715100, Note_on_c, 4, 67, 75
6, 1717660, Note_off_c, 4, 67, 64
6, 1717740, Note_on_c, 4, 67, 60
6, 1717975, Note_off_c, 4, 67, 64
6, 1726380, Note_on_c, 4, 60, 60
6, 1726460, Note_off_c, 4, 60, 64
6, 1726500, Note_on_c, 4, 60, 60
6, 1726580, Note_off_c, 4, 60, 64
6, 1726620, Note_on_c, 4, 60, 60
6, 1726855, Note_off_c, 4, 60, 64
6, 1727100, Note_on_c, 4, 60, 62
6, 1727180, Note_off_c, 4, 60, 64
6, 1727220, Note_on_c, 4, 60, 62
6, 1727300, Note_off_c, 4, 60, 64
6, 1727340, Note_on_c, 4, 60, 62
6, 1727575, Note_off_c, 4, 60, 64
6, 1727820, Note_on_c, 4, 60, 64
6, 1727900, Note_off_c, 4, 60, 64
6, 1727940, Note_on_c, 4, 60, 64
6, 1728020, Note_off_c, 4, 60, 64
6, 1728060, Note_on_c, 4, 60, 65
6, 1728295, Note_off_c, 4, 60, 64
6, 1728540, Note_on_c, 4, 60, 69
6, 1728620, Note_off_c, 4, 60, 64
6, 1728660, Note_on_c, 4, 60, 70
6, 1728740, Note_off_c, 4, 60, 64
6, 1728780, Note_on_c, 4, 60, 71
6, 1729015, Note_off_c, 4, 60, 64
6, 1729260, Note_on_c, 4, 60, 75
6, 1730620, Note_off_c, 4, 60, 64
6, 1730700, Note_on_c, 4, 60, 75
6, 1731340, Note_off_c, 4, 60, 64
6, 1731420, Note_on_c, 4, 60, 75
6, 1732060, Note_off_c, 4, 60, 64
6, 1732140, Note_on_c, 4, 60, 75
6, 1732380, Note_off_c, 4, 60, 64
6, 1732380, Note_on_c, 4, 57, 75
6, 1732780, Note_off_c, 4, 57, 64
6, 1739580, Note_on_c, 4, 69, 45
6, 1740300, Note_off_c, 4, 69, 64
6, 1740300, Note_on_c, 4, 65, 52
6, 1740780, Note_off_c, 4, 65, 64
6, 1740780, Note_on_c, 4, 72, 57
6, 1741020, Note_off_c, 4, 72, 64
6, 1741020, Note_on_c, 4, 69, 60
6, 1741660, Note_off_c, 4, 69, 64
6, 1745100, Note_on_c, 4, 60, 45
6, 1745340, Note_off_c, 4, 60, 64
6, 1745340, Note_on_c, 4, 65, 48
6, 1745820, Note_off_c, 4, 65, 64
6, 1745820, Note_on_c, 4, 69, 56
6, 1746060, Note_off_c, 4, 69, 64
6, 1746060, Note_on_c, 4, 72, 60
6, 1746700, Note_off_c, 4, 72, 64
6, 1750140, Note_on_c, 4, 60, 75
6, 1750375, Note_off_c, 4, 60, 64
6, 1750380, Note_on_c, 4, 67, 75
6, 1750780, Note_off_c, 4, 67, 64
6, 1750860, Note_on_c, 4, 67, 75
6, 1751095, Note_off_c, 4, 67, 64
6, 1751100, Note_on_c, 4, 65, 75
6, 1753660, Note_off_c, 4, 65, 64
6, 1753740, Note_on_c, 4, 65, 75
6, 1753975, Note_off_c, 4, 65, 64
6, 1753980, Note_on_c, 4, 65, 75
6, 1756540, Note_off_c, 4, 65, 64
6, 1756620, Note_on_c, 4, 69, 75
6, 1756855, Note_off_c, 4, 69, 64
6, 1756860, Note_on_c, 4, 67, 75
6, 1759420, Note_off_c, 4, 67, 64
6, 1759500, Note_on_c, 4, 67, 75
6, 1759735, Note_off_c, 4, 67, 64
6, 1759740, Note_on_c, 4, 67, 75
6, 1762300, Note_off_c, 4, 67, 64
6, 1762380, Note_on_c, 4, 67, 75
6, 1762615, Note_off_c, 4, 67, 64
6, 1762620, Note_on_c, 4, 69, 75
6, 1765380, Note_off_c, 4, 69, 64
6, 1765500, Note_on_c, 4, 65, 75
6, 1766220, Note_off_c, 4, 65, 64
6, 1766220, Note_on_c, 4, 65, 75
6, 1766940, Note_off_c, 4, 65, 64
6, 1766940, Note_on_c, 4, 65, 75
6, 1767660, Note_off_c, 4, 65, 64
6, 1767660, Note_on_c, 4, 65, 75
6, 1768300, Note_off_c, 4, 65, 64
6, 1768380, Note_on_c, 4, 60, 60
6, 1769100, Note_off_c, 4, 60, 64
6, 1769100, Note_on_c, 4, 60, 60
6, 1769820, Note_off_c, 4, 60, 64
6, 1769820, Note_on_c, 4, 60, 55
6, 1770540, Note_off_c, 4, 60, 64
6, 1770540, Note_on_c, 4, 60, 50
6, 1771260, Note_off_c, 4, 60, 64
6, 1771260, Note_on_c, 4, 60, 45
6, 1777020, Note_off_c, 4, 60, 64
6, 1777020, Note_on_c, 4, 65, 30
6, 1777420, Note_off_c, 4, 65, 64
6, 1789320, Note_on_c, 4, 65, 75
6, 1790040, Note_off_c, 4, 65, 64
6, 1790040, Note_on_c, 4, 65, 75
6, 1790275, Note_off_c, 4, 65, 64
6, 1790520, Note_on_c, 4, 65, 75
6, 1790755, Note_off_c, 4, 65, 64
6, 1790760, Note_on_c, 4, 65, 75
6, 1791880, Note_off_c, 4, 65, 64
6, 1792080, Note_on_c, 4, 67, 45
6, 1792320, Note_off_c, 4, 67, 64
6, 1792320, Note_on_c, 4, 67, 45
6, 1793760, Note_off_c, 4, 67, 64
6, 1793760, Note_on_c, 4, 69, 45
6, 1794400, Note_off_c, 4, 69, 64
6, 1798080, Note_on_c, 4, 60, 45
6, 1798320, Note_off_c, 4, 60, 64
6, 1798320, Note_on_c, 4, 60, 45
6, 1799520, Note_off_c, 4, 60, 64
6, 1799520, Note_on_c, 4, 60, 45
6, 1799760, Note_off_c, 4, 60, 64
6, 1799760, Note_on_c, 4, 60, 45
6, 1800400, Note_off_c, 4, 60, 64
6, 1801080, Note_on_c, 4, 60, 30
6, 1801320, Note_off_c, 4, 60, 64
6, 1801320, Note_on_c, 4, 60, 36
6, 1802440, Note_off_c, 4, 60, 64
6, 1802520, Note_on_c, 4, 60, 68
6, 1802755, Note_off_c, 4, 60, 64
6, 1802760, Note_on_c, 4, 67, 75
6, 1805640, Note_off_c, 4, 67, 64
6, 1805640, Note_on_c, 4, 67, 60
6, 1807080, Note_off_c, 4, 67, 64
6, 1807080, Note_on_c, 4, 67, 45
6, 1808400, Note_off_c, 4, 67, 64
6, 1808520, Note_on_c, 4, 65, 45
6, 1808920, Note_off_c, 4, 65, 64
6, 1811520, Note_on_c, 4, 65, 45
6, 1812240, Note_off_c, 4, 65, 64
6, 1812240, Note_on_c, 4, 60, 54
6, 1812720, Note_off_c, 4, 60, 64
6, 1812720, Note_on_c, 4, 69, 60
6, 1812890, Note_off_c, 4, 69, 64
6, 1812960, Note_on_c, 4, 65, 63
6, 1813680, Note_off_c, 4, 65, 64
6, 1813680, Note_on_c, 4, 60, 72
6, 1814160, Note_off_c, 4, 60, 64
6, 1814160, Note_on_c, 4, 69, 78
6, 1814330, Note_off_c, 4, 69, 64
6, 1814400, Note_on_c, 4, 65, 81
6, 1814570, Note_off_c, 4, 65, 64
6, 1814640, Note_on_c, 4, 60, 84
6, 1814810, Note_off_c, 4, 60, 64
6, 1814880, Note_on_c, 4, 69, 87
6, 1815050, Note_off_c, 4, 69, 64
6, 1815120, Note_on_c, 4, 65, 90
6, 1815290, Note_off_c, 4, 65, 64
6, 1815360, Note_on_c, 4, 60, 93
6, 1815530, Note_off_c, 4, 60, 64
6, 1815600, Note_on_c, 4, 69, 96
6, 1815770, Note_off_c, 4, 69, 64
6, 1815840, Note_on_c, 4, 65, 99
6, 1816010, Note_off_c, 4, 65, 64
6, 1816080, Note_on_c, 4, 60, 102
6, 1816250, Note_off_c, 4, 60, 64
6, 1816320, Note_on_c, 4, 69, 105
6, 1816490, Note_off_c, 4, 69, 64
6, 1816560, Note_on_c, 4, 65, 108
6, 1816730, Note_off_c, 4, 65, 64
6, 1816800, Note_on_c, 4, 60, 108
6, 1816880, Note_off_c, 4, 60, 64
6, 1817040, Note_on_c, 4, 69, 75
6, 1817275, Note_off_c, 4, 69, 64
6, 1817280, Note_on_c, 4, 65, 75
6, 1818040, Note_off_c, 4, 65, 64
6, 1818040, End_track
7, 0, Start_track
7, 0, MIDI_port, 0
7, 0, Channel_prefix, 5
7, 0, Control_c, 5, 7, 127
7, 0, Control_c, 5, 10, 104
7, 0, Control_c, 5, 91, 95
7, 0, Program_c, 5, 60
7, 59880, Note_on_c, 5, 59, 45
7, 59985, Note_off_c, 5, 59, 64
7, 60040, Note_on_c, 5, 59, 45
7, 60145, Note_off_c, 5, 59, 64
7, 60200, Note_on_c, 5, 59, 45
7, 60305, Note_off_c, 5, 59, 64
7, 60360, Note_on_c, 5, 59, 45
7, 60465, Note_off_c, 5, 59, 64
7, 60520, Note_on_c, 5, 59, 45
7, 60625, Note_off_c, 5, 59, 64
7, 60680, Note_on_c, 5, 59, 45
7, 60785, Note_off_c, 5, 59, 64
7, 60840, Note_on_c, 5, 59, 45
7, 61240, Note_off_c, 5, 59, 64
7, 84840, Note_on_c, 5, 60, 92
7, 86640, Note_off_c, 5, 60, 64
7, 86760, Note_on_c, 5, 67, 92
7, 87160, Note_off_c, 5, 67, 64
7, 87240, Note_on_c, 5, 67, 92
7, 87640, Note_off_c, 5, 67, 64
7, 87720, Note_on_c, 5, 67, 92
7, 88120, Note_off_c, 5, 67, 64
7, 88200, Note_on_c, 5, 67, 84
7, 88600, Note_off_c, 5, 67, 64
7, 88680, Note_on_c, 5, 60, 75
7, 90835, Note_off_c, 5, 60, 64
7, 90840, Note_on_c, 5, 48, 75
7, 91075, Note_off_c, 5, 48, 64
7, 91080, Note_on_c, 5, 48, 75
7, 91315, Note_off_c, 5, 48, 64
7, 91320, Note_on_c, 5, 48, 75
7, 91555, Note_off_c, 5, 48, 64
7, 91560, Note_on_c, 5, 48, 75
7, 91800, Note_off_c, 5, 48, 64
7, 95400, Note_on_c, 5, 60, 60
7, 97475, Note_off_c, 5, 60, 64
7, 97480, Note_on_c, 5, 48, 60
7, 97635, Note_off_c, 5, 48, 64
7, 97640, Note_on_c, 5, 48, 60
7, 97795, Note_off_c, 5, 48, 64
7, 97800, Note_on_c, 5, 48, 60
7, 97955, Note_off_c, 5, 48, 64
7, 97960, Note_on_c, 5, 48, 60
7, 98115, Note_off_c, 5, 48, 64
7, 98120, Note_on_c, 5, 48, 60
7, 98275, Note_off_c, 5, 48, 64
7, 98280, Note_on_c, 5, 48, 75
7, 98515, Note_off_c, 5, 48, 64
7, 99240, Note_on_c, 5, 48, 45
7, 101040, Note_off_c, 5, 48, 64
7, 101160, Note_on_c, 5, 55, 45
7, 102000, Note_off_c, 5, 55, 64
7, 102120, Note_on_c, 5, 48, 45
7, 102520, Note_off_c, 5, 48, 64
7, 102600, Note_on_c, 5, 48, 45
7, 103480, Note_off_c, 5, 48, 64
7, 103560, Note_on_c, 5, 48, 53
7, 104440, Note_off_c, 5, 48, 64
7, 104520, Note_on_c, 5, 48, 61
7, 104920, Note_off_c, 5, 48, 64
7, 105000, Note_on_c, 5, 55, 65
7, 105400, Note_off_c, 5, 55, 64
7, 105480, Note_on_c, 5, 55, 70
7, 105880, Note_off_c, 5, 55, 64
7, 105960, Note_on_c, 5, 48, 75
7, 106115, Note_off_c, 5, 48, 64
7, 106120, Note_on_c, 5, 48, 75
7, 106275, Note_off_c, 5, 48, 64
7, 106280, Note_on_c, 5, 48, 75
7, 106435, Note_off_c, 5, 48, 64
7, 106440, Note_on_c, 5, 48, 75
7, 106595, Note_off_c, 5, 48, 64
7, 106600, Note_on_c, 5, 48, 75
7, 106755, Note_off_c, 5, 48, 64
7, 106760, Note_on_c, 5, 48, 75
7, 106915, Note_off_c, 5, 48, 64
7, 106920, Note_on_c, 5, 53, 75
7, 107155, Note_off_c, 5, 53, 64
7, 107400, Note_on_c, 5, 57, 75
7, 107635, Note_off_c, 5, 57, 64
7, 107880, Note_on_c, 5, 60, 75
7, 108115, Note_off_c, 5, 60, 64
7, 108360, Note_on_c, 5, 55, 75
7, 108595, Note_off_c, 5, 55, 64
7, 108840, Note_on_c, 5, 55, 75
7, 109075, Note_off_c, 5, 55, 64
7, 109320, Note_on_c, 5, 55, 75
7, 109555, Note_off_c, 5, 55, 64
7, 109800, Note_on_c, 5, 48, 75
7, 109955, Note_off_c, 5, 48, 64
7, 109960, Note_on_c, 5, 48, 75
7, 110115, Note_off_c, 5, 48, 64
7, 110120, Note_on_c, 5, 48, 75
7, 110275, Note_off_c, 5, 48, 64
7, 110280, Note_on_c, 5, 48, 75
7, 111875, Note_off_c, 5, 48, 64
7, 111880, Note_on_c, 5, 48, 75
7, 112035, Note_off_c, 5, 48, 64
7, 112040, Note_on_c, 5, 48, 75
7, 112195, Note_off_c, 5, 48, 64
7, 112200, Note_on_c, 5, 48, 75
7, 113795, Note_off_c, 5, 48, 64
7, 113800, Note_on_c, 5, 48, 75
7, 113955, Note_off_c, 5, 48, 64
7, 113960, Note_on_c, 5, 48, 75
7, 114115, Note_off_c, 5, 48, 64
7, 114120, Note_on_c, 5, 48, 75
7, 115715, Note_off_c, 5, 48, 64
7, 115720, Note_on_c, 5, 48, 75
7, 115875, Note_off_c, 5, 48, 64
7, 115880, Note_on_c, 5, 48, 75
7, 116035, Note_off_c, 5, 48, 64
7, 116040, Note_on_c, 5, 48, 75
7, 117635, Note_off_c, 5, 48, 64
7, 117640, Note_on_c, 5, 48, 75
7, 117795, Note_off_c, 5, 48, 64
7, 117800, Note_on_c, 5, 48, 75
7, 117955, Note_off_c, 5, 48, 64
7, 117960, Note_on_c, 5, 48, 75
7, 118595, Note_off_c, 5, 48, 64
7, 118600, Note_on_c, 5, 48, 75
7, 118755, Note_off_c, 5, 48, 64
7, 118760, Note_on_c, 5, 48, 75
7, 118915, Note_off_c, 5, 48, 64
7, 118920, Note_on_c, 5, 48, 75
7, 119555, Note_off_c, 5, 48, 64
7, 119560, Note_on_c, 5, 48, 75
7, 119715, Note_off_c, 5, 48, 64
7, 119720, Note_on_c, 5, 48, 75
7, 119875, Note_off_c, 5, 48, 64
7, 119880, Note_on_c, 5, 48, 75
7, 120515, Note_off_c, 5, 48, 64
7, 120520, Note_on_c, 5, 48, 46
7, 120675, Note_off_c, 5, 48, 64
7, 120680, Note_on_c, 5, 48, 38
7, 120835, Note_off_c, 5, 48, 64
7, 120840, Note_on_c, 5, 48, 30
7, 121555, Note_off_c, 5, 48, 64
7, 252120, Note_on_c, 5, 48, 105
7, 253920, Note_off_c, 5, 48, 64
7, 254040, Note_on_c, 5, 48, 105
7, 255840, Note_off_c, 5, 48, 64
7, 255960, Note_on_c, 5, 48, 105
7, 257760, Note_off_c, 5, 48, 64
7, 257880, Note_on_c, 5, 48, 105
7, 259680, Note_off_c, 5, 48, 64
7, 259800, Note_on_c, 5, 48, 105
7, 260200, Note_off_c, 5, 48, 64
7, 260280, Note_on_c, 5, 48, 75
7, 260680, Note_off_c, 5, 48, 64
7, 260760, Note_on_c, 5, 48, 75
7, 261400, Note_off_c, 5, 48, 64
7, 261480, Note_on_c, 5, 48, 75
7, 261715, Note_off_c, 5, 48, 64
7, 261720, Note_on_c, 5, 48, 105
7, 262120, Note_off_c, 5, 48, 64
7, 262200, Note_on_c, 5, 48, 75
7, 262600, Note_off_c, 5, 48, 64
7, 262680, Note_on_c, 5, 48, 75
7, 263320, Note_off_c, 5, 48, 64
7, 263400, Note_on_c, 5, 48, 64
7, 263635, Note_off_c, 5, 48, 64
7, 263640, Note_on_c, 5, 29, 60
7, 267715, Note_off_c, 5, 29, 64
7, 282840, Note_on_c, 5, 53, 45
7, 283800, Note_off_c, 5, 53, 64
7, 283800, Note_on_c, 5, 48, 45
7, 284760, Note_off_c, 5, 48, 64
7, 284760, Note_on_c, 5, 53, 45
7, 285160, Note_off_c, 5, 53, 64
7, 295320, Note_on_c, 5, 48, 45
7, 295475, Note_off_c, 5, 48, 64
7, 295480, Note_on_c, 5, 48, 46
7, 295635, Note_off_c, 5, 48, 64
7, 295640, Note_on_c, 5, 48, 47
7, 295795, Note_off_c, 5, 48, 64
7, 295800, Note_on_c, 5, 48, 48
7, 295955, Note_off_c, 5, 48, 64
7, 295960, Note_on_c, 5, 48, 49
7, 296115, Note_off_c, 5, 48, 64
7, 296120, Note_on_c, 5, 48, 50
7, 296275, Note_off_c, 5, 48, 64
7, 296280, Note_on_c, 5, 48, 51
7, 296435, Note_off_c, 5, 48, 64
7, 296440, Note_on_c, 5, 48, 52
7, 296595, Note_off_c, 5, 48, 64
7, 296600, Note_on_c, 5, 48, 53
7, 296755, Note_off_c, 5, 48, 64
7, 296760, Note_on_c, 5, 48, 54
7, 296915, Note_off_c, 5, 48, 64
7, 296920, Note_on_c, 5, 48, 55
7, 297075, Note_off_c, 5, 48, 64
7, 297080, Note_on_c, 5, 48, 56
7, 297235, Note_off_c, 5, 48, 64
7, 297240, Note_on_c, 5, 48, 57
7, 297395, Note_off_c, 5, 48, 64
7, 297400, Note_on_c, 5, 48, 58
7, 297555, Note_off_c, 5, 48, 64
7, 297560, Note_on_c, 5, 48, 59
7, 297715, Note_off_c, 5, 48, 64
7, 297720, Note_on_c, 5, 48, 60
7, 297875, Note_off_c, 5, 48, 64
7, 297880, Note_on_c, 5, 48, 61
7, 298035, Note_off_c, 5, 48, 64
7, 298040, Note_on_c, 5, 48, 62
7, 298195, Note_off_c, 5, 48, 64
7, 298200, Note_on_c, 5, 48, 63
7, 298355, Note_off_c, 5, 48, 64
7, 298360, Note_on_c, 5, 48, 65
7, 298515, Note_off_c, 5, 48, 64
7, 298520, Note_on_c, 5, 48, 67
7, 298675, Note_off_c, 5, 48, 64
7, 298680, Note_on_c, 5, 48, 69
7, 298835, Note_off_c, 5, 48, 64
7, 298840, Note_on_c, 5, 48, 71
7, 298995, Note_off_c, 5, 48, 64
7, 299000, Note_on_c, 5, 48, 73
7, 299155, Note_off_c, 5, 48, 64
7, 299160, Note_on_c, 5, 53, 75
7, 299395, Note_off_c, 5, 53, 64
7, 299400, Note_on_c, 5, 65, 75
7, 299635, Note_off_c, 5, 65, 64
7, 299640, Note_on_c, 5, 67, 75
7, 299875, Note_off_c, 5, 67, 64
7, 299880, Note_on_c, 5, 67, 75
7, 300115, Note_off_c, 5, 67, 64
7, 300120, Note_on_c, 5, 69, 75
7, 300360, Note_off_c, 5, 69, 64
7, 300360, Note_on_c, 5, 67, 75
7, 300480, Note_off_c, 5, 67, 64
7, 300480, Note_on_c, 5, 65, 75
7, 300600, Note_off_c, 5, 65, 64
7, 300600, Note_on_c, 5, 60, 75
7, 300680, Note_off_c, 5, 60, 64
7, 300840, Note_on_c, 5, 60, 75
7, 300920, Note_off_c, 5, 60, 64
7, 301080, Note_on_c, 5, 57, 75
7, 301160, Note_off_c, 5, 57, 64
7, 301320, Note_on_c, 5, 60, 75
7, 301400, Note_off_c, 5, 60, 64
7, 301560, Note_on_c, 5, 65, 75
7, 302040, Note_off_c, 5, 65, 64
7, 302040, Note_on_c, 5, 60, 75
7, 302120, Note_off_c, 5, 60, 64
7, 302280, Note_on_c, 5, 65, 75
7, 302360, Note_off_c, 5, 65, 64
7, 302520, Note_on_c, 5, 67, 75
7, 303000, Note_off_c, 5, 67, 64
7, 303000, Note_on_c, 5, 65, 75
7, 303240, Note_off_c, 5, 65, 64
7, 303240, Note_on_c, 5, 69, 75
7, 303320, Note_off_c, 5, 69, 64
7, 303480, Note_on_c, 5, 69, 75
7, 303560, Note_off_c, 5, 69, 64
7, 303720, Note_on_c, 5, 69, 75
7, 303800, Note_off_c, 5, 69, 64
7, 303960, Note_on_c, 5, 69, 75
7, 304440, Note_off_c, 5, 69, 64
7, 304440, Note_on_c, 5, 65, 75
7, 304675, Note_off_c, 5, 65, 64
7, 304680, Note_on_c, 5, 57, 75
7, 304915, Note_off_c, 5, 57, 64
7, 305160, Note_on_c, 5, 57, 75
7, 305395, Note_off_c, 5, 57, 64
7, 305400, Note_on_c, 5, 60, 75
7, 305800, Note_off_c, 5, 60, 64
7, 305880, Note_on_c, 5, 57, 75
7, 305960, Note_off_c, 5, 57, 64
7, 306120, Note_on_c, 5, 60, 75
7, 306200, Note_off_c, 5, 60, 64
7, 306360, Note_on_c, 5, 65, 75
7, 306840, Note_off_c, 5, 65, 64
7, 306840, Note_on_c, 5, 60, 75
7, 307080, Note_off_c, 5, 60, 64
7, 307080, Note_on_c, 5, 67, 75
7, 307160, Note_off_c, 5, 67, 64
7, 307320, Note_on_c, 5, 67, 75
7, 307400, Note_off_c, 5, 67, 64
7, 307560, Note_on_c, 5, 67, 75
7, 307640, Note_off_c, 5, 67, 64
7, 307800, Note_on_c, 5, 67, 75
7, 308520, Note_off_c, 5, 67, 64
7, 308520, Note_on_c, 5, 60, 75
7, 308755, Note_off_c, 5, 60, 64
7, 308760, Note_on_c, 5, 65, 75
7, 308840, Note_off_c, 5, 65, 64
7, 309000, Note_on_c, 5, 67, 75
7, 309080, Note_off_c, 5, 67, 64
7, 309240, Note_on_c, 5, 69, 75
7, 309720, Note_off_c, 5, 69, 64
7, 309720, Note_on_c, 5, 67, 75
7, 309955, Note_off_c, 5, 67, 64
7, 309960, Note_on_c, 5, 60, 75
7, 310195, Note_off_c, 5, 60, 64
7, 310200, Note_on_c, 5, 67, 75
7, 310435, Note_off_c, 5, 67, 64
7, 310440, Note_on_c, 5, 60, 75
7, 310675, Note_off_c, 5, 60, 64
7, 310680, Note_on_c, 5, 65, 75
7, 310760, Note_off_c, 5, 65, 64
7, 310920, Note_on_c, 5, 67, 75
7, 311000, Note_off_c, 5, 67, 64
7, 311160, Note_on_c, 5, 69, 75
7, 311640, Note_off_c, 5, 69, 64
7, 311640, Note_on_c, 5, 67, 75
7, 311880, Note_off_c, 5, 67, 64
7, 311880, Note_on_c, 5, 60, 75
7, 312115, Note_off_c, 5, 60, 64
7, 312120, Note_on_c, 5, 67, 75
7, 312360, Note_off_c, 5, 67, 64
7, 312360, Note_on_c, 5, 60, 75
7, 312595, Note_off_c, 5, 60, 64
7, 312600, Note_on_c, 5, 65, 75
7, 312840, Note_off_c, 5, 65, 64
7, 312840, Note_on_c, 5, 60, 75
7, 313075, Note_off_c, 5, 60, 64
7, 313080, Note_on_c, 5, 60, 75
7, 313315, Note_off_c, 5, 60, 64
7, 313320, Note_on_c, 5, 60, 75
7, 313555, Note_off_c, 5, 60, 64
7, 313560, Note_on_c, 5, 65, 75
7, 313800, Note_off_c, 5, 65, 64
7, 313800, Note_on_c, 5, 60, 68
7, 314035, Note_off_c, 5, 60, 64
7, 314040, Note_on_c, 5, 60, 61
7, 314275, Note_off_c, 5, 60, 64
7, 314280, Note_on_c, 5, 60, 53
7, 314515, Note_off_c, 5, 60, 64
7, 314520, Note_on_c, 5, 57, 45
7, 314625, Note_off_c, 5, 57, 64
7, 314680, Note_on_c, 5, 57, 45
7, 314785, Note_off_c, 5, 57, 64
7, 314840, Note_on_c, 5, 57, 45
7, 314945, Note_off_c, 5, 57, 64
7, 315000, Note_on_c, 5, 57, 45
7, 315105, Note_off_c, 5, 57, 64
7, 315160, Note_on_c, 5, 57, 45
7, 315265, Note_off_c, 5, 57, 64
7, 315320, Note_on_c, 5, 57, 45
7, 315425, Note_off_c, 5, 57, 64
7, 315480, Note_on_c, 5, 57, 45
7, 315880, Note_off_c, 5, 57, 64
7, 318360, Note_on_c, 5, 57, 45
7, 318465, Note_off_c, 5, 57, 64
7, 318520, Note_on_c, 5, 57, 45
7, 318625, Note_off_c, 5, 57, 64
7, 318680, Note_on_c, 5, 57, 45
7, 318785, Note_off_c, 5, 57, 64
7, 318840, Note_on_c, 5, 57, 45
7, 318945, Note_off_c, 5, 57, 64
7, 319000, Note_on_c, 5, 57, 45
7, 319105, Note_off_c, 5, 57, 64
7, 319160, Note_on_c, 5, 57, 45
7, 319265, Note_off_c, 5, 57, 64
7, 319320, Note_on_c, 5, 57, 45
7, 319720, Note_off_c, 5, 57, 64
7, 322200, Note_on_c, 5, 57, 45
7, 322305, Note_off_c, 5, 57, 64
7, 322360, Note_on_c, 5, 57, 45
7, 322465, Note_off_c, 5, 57, 64
7, 322520, Note_on_c, 5, 57, 45
7, 322625, Note_off_c, 5, 57, 64
7, 322680, Note_on_c, 5, 57, 45
7, 322785, Note_off_c, 5, 57, 64
7, 322840, Note_on_c, 5, 57, 45
7, 322945, Note_off_c, 5, 57, 64
7, 323000, Note_on_c, 5, 57, 45
7, 323105, Note_off_c, 5, 57, 64
7, 323160, Note_on_c, 5, 57, 45
7, 323560, Note_off_c, 5, 57, 64
7, 324120, Note_on_c, 5, 65, 45
7, 324225, Note_off_c, 5, 65, 64
7, 324280, Note_on_c, 5, 65, 45
7, 324385, Note_off_c, 5, 65, 64
7, 324440, Note_on_c, 5, 65, 45
7, 324545, Note_off_c, 5, 65, 64
7, 324600, Note_on_c, 5, 65, 45
7, 324705, Note_off_c, 5, 65, 64
7, 324760, Note_on_c, 5, 65, 45
7, 324865, Note_off_c, 5, 65, 64
7, 324920, Note_on_c, 5, 65, 45
7, 325025, Note_off_c, 5, 65, 64
7, 325080, Note_on_c, 5, 65, 45
7, 325480, Note_off_c, 5, 65, 64
7, 326040, Note_on_c, 5, 60, 45
7, 326145, Note_off_c, 5, 60, 64
7, 326200, Note_on_c, 5, 60, 45
7, 326305, Note_off_c, 5, 60, 64
7, 326360, Note_on_c, 5, 60, 45
7, 326465, Note_off_c, 5, 60, 64
7, 326520, Note_on_c, 5, 60, 45
7, 326625, Note_off_c, 5, 60, 64
7, 326680, Note_on_c, 5, 60, 45
7, 326785, Note_off_c, 5, 60, 64
7, 326840, Note_on_c, 5, 60, 45
7, 326945, Note_off_c, 5, 60, 64
7, 327000, Note_on_c, 5, 60, 45
7, 327400, Note_off_c, 5, 60, 64
7, 343320, Note_on_c, 5, 48, 45
7, 345120, Note_off_c, 5, 48, 64
7, 345240, Note_on_c, 5, 53, 51
7, 347040, Note_off_c, 5, 53, 64
7, 347160, Note_on_c, 5, 52, 57
7, 347640, Note_off_c, 5, 52, 64
7, 347640, Note_on_c, 5, 52, 58
7, 348120, Note_off_c, 5, 52, 64
7, 348120, Note_on_c, 5, 52, 59
7, 348600, Note_off_c, 5, 52, 64
7, 348600, Note_on_c, 5, 55, 60
7, 348840, Note_off_c, 5, 55, 64
7, 348840, Note_on_c, 5, 52, 60
7, 349075, Note_off_c, 5, 52, 64
7, 349080, Note_on_c, 5, 53, 60
7, 349560, Note_off_c, 5, 53, 64
7, 349560, Note_on_c, 5, 53, 62
7, 350040, Note_off_c, 5, 53, 64
7, 350040, Note_on_c, 5, 53, 64
7, 350520, Note_off_c, 5, 53, 64
7, 350520, Note_on_c, 5, 57, 66
7, 350760, Note_off_c, 5, 57, 64
7, 350760, Note_on_c, 5, 53, 67
7, 350995, Note_off_c, 5, 53, 64
7, 351000, Note_on_c, 5, 55, 67
7, 351480, Note_off_c, 5, 55, 64
7, 351480, Note_on_c, 5, 55, 69
7, 351960, Note_off_c, 5, 55, 64
7, 351960, Note_on_c, 5, 55, 71
7, 352440, Note_off_c, 5, 55, 64
7, 352440, Note_on_c, 5, 58, 73
7, 352680, Note_off_c, 5, 58, 64
7, 352680, Note_on_c, 5, 55, 74
7, 352915, Note_off_c, 5, 55, 64
7, 352920, Note_on_c, 5, 57, 75
7, 353400, Note_off_c, 5, 57, 64
7, 353400, Note_on_c, 5, 57, 77
7, 353880, Note_off_c, 5, 57, 64
7, 353880, Note_on_c, 5, 57, 79
7, 354360, Note_off_c, 5, 57, 64
7, 354360, Note_on_c, 5, 60, 81
7, 354600, Note_off_c, 5, 60, 64
7, 354600, Note_on_c, 5, 57, 82
7, 354835, Note_off_c, 5, 57, 64
7, 354840, Note_on_c, 5, 60, 83
7, 355075, Note_off_c, 5, 60, 64
7, 355080, Note_on_c, 5, 48, 84
7, 355315, Note_off_c, 5, 48, 64
7, 355320, Note_on_c, 5, 48, 85
7, 355555, Note_off_c, 5, 48, 64
7, 355560, Note_on_c, 5, 48, 86
7, 355795, Note_off_c, 5, 48, 64
7, 355800, Note_on_c, 5, 48, 87
7, 356035, Note_off_c, 5, 48, 64
7, 356040, Note_on_c, 5, 48, 88
7, 356275, Note_off_c, 5, 48, 64
7, 356280, Note_on_c, 5, 48, 89
7, 356515, Note_off_c, 5, 48, 64
7, 356520, Note_on_c, 5, 48, 90
7, 356755, Note_off_c, 5, 48, 64
7, 356760, Note_on_c, 5, 53, 92
7, 358915, Note_off_c, 5, 53, 64
7, 358920, Note_on_c, 5, 53, 92
7, 359155, Note_off_c, 5, 53, 64
7, 359160, Note_on_c, 5, 53, 92
7, 359395, Note_off_c, 5, 53, 64
7, 359400, Note_on_c, 5, 53, 92
7, 359635, Note_off_c, 5, 53, 64
7, 359640, Note_on_c, 5, 53, 92
7, 359875, Note_off_c, 5, 53, 64
7, 363600, Note_on_c, 5, 53, 75
7, 365675, Note_off_c, 5, 53, 64
7, 365680, Note_on_c, 5, 53, 75
7, 365785, Note_off_c, 5, 53, 64
7, 365840, Note_on_c, 5, 53, 75
7, 365945, Note_off_c, 5, 53, 64
7, 366000, Note_on_c, 5, 53, 75
7, 366105, Note_off_c, 5, 53, 64
7, 366160, Note_on_c, 5, 53, 75
7, 366265, Note_off_c, 5, 53, 64
7, 366320, Note_on_c, 5, 53, 75
7, 366425, Note_off_c, 5, 53, 64
7, 366480, Note_on_c, 5, 53, 75
7, 366715, Note_off_c, 5, 53, 64
7, 367560, Note_on_c, 5, 29, 45
7, 369360, Note_off_c, 5, 29, 64
7, 369480, Note_on_c, 5, 36, 45
7, 370320, Note_off_c, 5, 36, 64
7, 370440, Note_on_c, 5, 29, 45
7, 370840, Note_off_c, 5, 29, 64
7, 370920, Note_on_c, 5, 29, 45
7, 371800, Note_off_c, 5, 29, 64
7, 371880, Note_on_c, 5, 29, 53
7, 372760, Note_off_c, 5, 29, 64
7, 372840, Note_on_c, 5, 29, 61
7, 373240, Note_off_c, 5, 29, 64
7, 373320, Note_on_c, 5, 36, 65
7, 373720, Note_off_c, 5, 36, 64
7, 373800, Note_on_c, 5, 36, 70
7, 374200, Note_off_c, 5, 36, 64
7, 374280, Note_on_c, 5, 53, 75
7, 374435, Note_off_c, 5, 53, 64
7, 374440, Note_on_c, 5, 53, 75
7, 374595, Note_off_c, 5, 53, 64
7, 374600, Note_on_c, 5, 53, 75
7, 374755, Note_off_c, 5, 53, 64
7, 374760, Note_on_c, 5, 53, 75
7, 374915, Note_off_c, 5, 53, 64
7, 374920, Note_on_c, 5, 53, 75
7, 375075, Note_off_c, 5, 53, 64
7, 375080, Note_on_c, 5, 53, 75
7, 375235, Note_off_c, 5, 53, 64
7, 375240, Note_on_c, 5, 53, 75
7, 375475, Note_off_c, 5, 53, 64
7, 375720, Note_on_c, 5, 53, 75
7, 375955, Note_off_c, 5, 53, 64
7, 376200, Note_on_c, 5, 53, 75
7, 376435, Note_off_c, 5, 53, 64
7, 376680, Note_on_c, 5, 53, 75
7, 376915, Note_off_c, 5, 53, 64
7, 377160, Note_on_c, 5, 48, 75
7, 377395, Note_off_c, 5, 48, 64
7, 377640, Note_on_c, 5, 48, 75
7, 377875, Note_off_c, 5, 48, 64
7, 378120, Note_on_c, 5, 53, 60
7, 378600, Note_off_c, 5, 53, 64
7, 378600, Note_on_c, 5, 48, 60
7, 379920, Note_off_c, 5, 48, 64
7, 380040, Note_on_c, 5, 57, 60
7, 380520, Note_off_c, 5, 57, 64
7, 380520, Note_on_c, 5, 53, 60
7, 381840, Note_off_c, 5, 53, 64
7, 381960, Note_on_c, 5, 53, 60
7, 382440, Note_off_c, 5, 53, 64
7, 382440, Note_on_c, 5, 48, 60
7, 383760, Note_off_c, 5, 48, 64
7, 383880, Note_on_c, 5, 57, 60
7, 384360, Note_off_c, 5, 57, 64
7, 384360, Note_on_c, 5, 53, 60
7, 386280, Note_off_c, 5, 53, 64
7, 386280, Note_on_c, 5, 48, 45
7, 386760, Note_off_c, 5, 48, 64
7, 386760, Note_on_c, 5, 53, 45
7, 387240, Note_off_c, 5, 53, 64
7, 387240, Note_on_c, 5, 48, 45
7, 387720, Note_off_c, 5, 48, 64
7, 387720, Note_on_c, 5, 53, 45
7, 388200, Note_off_c, 5, 53, 64
7, 388200, Note_on_c, 5, 48, 45
7, 388680, Note_off_c, 5, 48, 64
7, 388680, Note_on_c, 5, 53, 45
7, 389160, Note_off_c, 5, 53, 64
7, 389160, Note_on_c, 5, 48, 38
7, 389640, Note_off_c, 5, 48, 64
7, 389640, Note_on_c, 5, 53, 30
7, 390040, Note_off_c, 5, 53, 64
7, 401280, Note_on_c, 5, 29, 30
7, 403080, Note_off_c, 5, 29, 64
7, 403200, Note_on_c, 5, 29, 30
7, 405000, Note_off_c, 5, 29, 64
7, 406800, Note_on_c, 5, 53, 92
7, 406880, Note_off_c, 5, 53, 64
7, 407040, Note_on_c, 5, 53, 92
7, 407120, Note_off_c, 5, 53, 64
7, 407280, Note_on_c, 5, 53, 92
7, 407360, Note_off_c, 5, 53, 64
7, 407520, Note_on_c, 5, 53, 92
7, 407600, Note_off_c, 5, 53, 64
7, 407760, Note_on_c, 5, 53, 92
7, 407840, Note_off_c, 5, 53, 64
7, 408000, Note_on_c, 5, 53, 92
7, 408080, Note_off_c, 5, 53, 64
7, 408240, Note_on_c, 5, 53, 92
7, 408320, Note_off_c, 5, 53, 64
7, 408480, Note_on_c, 5, 53, 92
7, 408560, Note_off_c, 5, 53, 64
7, 408720, Note_on_c, 5, 53, 92
7, 408800, Note_off_c, 5, 53, 64
7, 408960, Note_on_c, 5, 53, 45
7, 409195, Note_off_c, 5, 53, 64
7, 422400, Note_on_c, 5, 53, 75
7, 422555, Note_off_c, 5, 53, 64
7, 422560, Note_on_c, 5, 53, 75
7, 422715, Note_off_c, 5, 53, 64
7, 422720, Note_on_c, 5, 53, 75
7, 422875, Note_off_c, 5, 53, 64
7, 422880, Note_on_c, 5, 53, 75
7, 424475, Note_off_c, 5, 53, 64
7, 424480, Note_on_c, 5, 53, 75
7, 424635, Note_off_c, 5, 53, 64
7, 424640, Note_on_c, 5, 53, 75
7, 424795, Note_off_c, 5, 53, 64
7, 424800, Note_on_c, 5, 53, 75
7, 426395, Note_off_c, 5, 53, 64
7, 426400, Note_on_c, 5, 53, 75
7, 426555, Note_off_c, 5, 53, 64
7, 426560, Note_on_c, 5, 53, 75
7, 426715, Note_off_c, 5, 53, 64
7, 426720, Note_on_c, 5, 53, 75
7, 428315, Note_off_c, 5, 53, 64
7, 428320, Note_on_c, 5, 53, 75
7, 428475, Note_off_c, 5, 53, 64
7, 428480, Note_on_c, 5, 53, 75
7, 428635, Note_off_c, 5, 53, 64
7, 428640, Note_on_c, 5, 53, 75
7, 430235, Note_off_c, 5, 53, 64
7, 430240, Note_on_c, 5, 57, 75
7, 430395, Note_off_c, 5, 57, 64
7, 430400, Note_on_c, 5, 57, 75
7, 430555, Note_off_c, 5, 57, 64
7, 430560, Note_on_c, 5, 57, 75
7, 431195, Note_off_c, 5, 57, 64
7, 431200, Note_on_c, 5, 57, 75
7, 431355, Note_off_c, 5, 57, 64
7, 431360, Note_on_c, 5, 57, 75
7, 431515, Note_off_c, 5, 57, 64
7, 431520, Note_on_c, 5, 57, 75
7, 432155, Note_off_c, 5, 57, 64
7, 432160, Note_on_c, 5, 57, 75
7, 432315, Note_off_c, 5, 57, 64
7, 432320, Note_on_c, 5, 57, 75
7, 432475, Note_off_c, 5, 57, 64
7, 432480, Note_on_c, 5, 57, 75
7, 432880, Note_off_c, 5, 57, 64
7, 432960, Note_on_c, 5, 60, 75
7, 433115, Note_off_c, 5, 60, 64
7, 433120, Note_on_c, 5, 60, 75
7, 433275, Note_off_c, 5, 60, 64
7, 433280, Note_on_c, 5, 60, 75
7, 433435, Note_off_c, 5, 60, 64
7, 433440, Note_on_c, 5, 60, 75
7, 433840, Note_off_c, 5, 60, 64
7, 433920, Note_on_c, 5, 57, 75
7, 434075, Note_off_c, 5, 57, 64
7, 434080, Note_on_c, 5, 57, 75
7, 434235, Note_off_c, 5, 57, 64
7, 434240, Note_on_c, 5, 57, 75
7, 434395, Note_off_c, 5, 57, 64
7, 434400, Note_on_c, 5, 57, 75
7, 435035, Note_off_c, 5, 57, 64
7, 435040, Note_on_c, 5, 57, 75
7, 435195, Note_off_c, 5, 57, 64
7, 435200, Note_on_c, 5, 57, 75
7, 435355, Note_off_c, 5, 57, 64
7, 435360, Note_on_c, 5, 57, 75
7, 435995, Note_off_c, 5, 57, 64
7, 436000, Note_on_c, 5, 57, 75
7, 436155, Note_off_c, 5, 57, 64
7, 436160, Note_on_c, 5, 57, 75
7, 436315, Note_off_c, 5, 57, 64
7, 436320, Note_on_c, 5, 57, 75
7, 436720, Note_off_c, 5, 57, 64
7, 436800, Note_on_c, 5, 60, 75
7, 436955, Note_off_c, 5, 60, 64
7, 436960, Note_on_c, 5, 60, 75
7, 437115, Note_off_c, 5, 60, 64
7, 437120, Note_on_c, 5, 60, 75
7, 437275, Note_off_c, 5, 60, 64
7, 437280, Note_on_c, 5, 60, 75
7, 437680, Note_off_c, 5, 60, 64
7, 437760, Note_on_c, 5, 57, 75
7, 437915, Note_off_c, 5, 57, 64
7, 437920, Note_on_c, 5, 57, 75
7, 438075, Note_off_c, 5, 57, 64
7, 438080, Note_on_c, 5, 57, 75
7, 438235, Note_off_c, 5, 57, 64
7, 438240, Note_on_c, 5, 57, 75
7, 438875, Note_off_c, 5, 57, 64
7, 438880, Note_on_c, 5, 57, 75
7, 439035, Note_off_c, 5, 57, 64
7, 439040, Note_on_c, 5, 57, 75
7, 439195, Note_off_c, 5, 57, 64
7, 439200, Note_on_c, 5, 57, 75
7, 439835, Note_off_c, 5, 57, 64
7, 439840, Note_on_c, 5, 57, 75
7, 439995, Note_off_c, 5, 57, 64
7, 440000, Note_on_c, 5, 57, 75
7, 440155, Note_off_c, 5, 57, 64
7, 440160, Note_on_c, 5, 57, 75
7, 440795, Note_off_c, 5, 57, 64
7, 440800, Note_on_c, 5, 57, 75
7, 440955, Note_off_c, 5, 57, 64
7, 440960, Note_on_c, 5, 57, 75
7, 441115, Note_off_c, 5, 57, 64
7, 441120, Note_on_c, 5, 57, 75
7, 441835, Note_off_c, 5, 57, 64
7, 451200, Note_on_c, 5, 48, 60
7, 452040, Note_off_c, 5, 48, 64
7, 452160, Note_on_c, 5, 48, 60
7, 452395, Note_off_c, 5, 48, 64
7, 452640, Note_on_c, 5, 48, 60
7, 452875, Note_off_c, 5, 48, 64
7, 455040, Note_on_c, 5, 48, 60
7, 455880, Note_off_c, 5, 48, 64
7, 456000, Note_on_c, 5, 48, 60
7, 456235, Note_off_c, 5, 48, 64
7, 456480, Note_on_c, 5, 48, 60
7, 456715, Note_off_c, 5, 48, 64
7, 456960, Note_on_c, 5, 53, 60
7, 457195, Note_off_c, 5, 53, 64
7, 459840, Note_on_c, 5, 48, 75
7, 460480, Note_off_c, 5, 48, 64
7, 460560, Note_on_c, 5, 48, 75
7, 460795, Note_off_c, 5, 48, 64
7, 460800, Note_on_c, 5, 53, 75
7, 461035, Note_off_c, 5, 53, 64
7, 463680, Note_on_c, 5, 48, 75
7, 464320, Note_off_c, 5, 48, 64
7, 464400, Note_on_c, 5, 48, 75
7, 464635, Note_off_c, 5, 48, 64
7, 464640, Note_on_c, 5, 53, 75
7, 464875, Note_off_c, 5, 53, 64
7, 465600, Note_on_c, 5, 48, 75
7, 466240, Note_off_c, 5, 48, 64
7, 466320, Note_on_c, 5, 48, 75
7, 466555, Note_off_c, 5, 48, 64
7, 466560, Note_on_c, 5, 53, 75
7, 466795, Note_off_c, 5, 53, 64
7, 467520, Note_on_c, 5, 48, 75
7, 468160, Note_off_c, 5, 48, 64
7, 468240, Note_on_c, 5, 48, 75
7, 468475, Note_off_c, 5, 48, 64
7, 468480, Note_on_c, 5, 48, 75
7, 468715, Note_off_c, 5, 48, 64
7, 469440, Note_on_c, 5, 48, 75
7, 469675, Note_off_c, 5, 48, 64
7, 470400, Note_on_c, 5, 48, 60
7, 470635, Note_off_c, 5, 48, 64
7, 471360, Note_on_c, 5, 48, 45
7, 471595, Note_off_c, 5, 48, 64
7, 472320, Note_on_c, 5, 48, 30
7, 472555, Note_off_c, 5, 48, 64
7, 486000, Note_on_c, 5, 53, 75
7, 486840, Note_off_c, 5, 53, 64
7, 486960, Note_on_c, 5, 60, 75
7, 487800, Note_off_c, 5, 60, 64
7, 487920, Note_on_c, 5, 65, 75
7, 488760, Note_off_c, 5, 65, 64
7, 488880, Note_on_c, 5, 65, 68
7, 489360, Note_off_c, 5, 65, 64
7, 489360, Note_on_c, 5, 65, 64
7, 489840, Note_off_c, 5, 65, 64
7, 489840, Note_on_c, 5, 65, 60
7, 490680, Note_off_c, 5, 65, 64
7, 490800, Note_on_c, 5, 53, 45
7, 491640, Note_off_c, 5, 53, 64
7, 491760, Note_on_c, 5, 53, 45
7, 492600, Note_off_c, 5, 53, 64
7, 553680, Note_on_c, 5, 55, 45
7, 554080, Note_off_c, 5, 55, 64
7, 554160, Note_on_c, 5, 48, 45
7, 555000, Note_off_c, 5, 48, 64
7, 555120, Note_on_c, 5, 48, 45
7, 556440, Note_off_c, 5, 48, 64
7, 556560, Note_on_c, 5, 48, 45
7, 557880, Note_off_c, 5, 48, 64
7, 558000, Note_on_c, 5, 48, 45
7, 559320, Note_off_c, 5, 48, 64
7, 559440, Note_on_c, 5, 48, 45
7, 560760, Note_off_c, 5, 48, 64
7, 560880, Note_on_c, 5, 48, 45
7, 562200, Note_off_c, 5, 48, 64
7, 562320, Note_on_c, 5, 48, 45
7, 563640, Note_off_c, 5, 48, 64
7, 563760, Note_on_c, 5, 55, 45
7, 564160, Note_off_c, 5, 55, 64
7, 564240, Note_on_c, 5, 55, 45
7, 564640, Note_off_c, 5, 55, 64
7, 564720, Note_on_c, 5, 48, 48
7, 565120, Note_off_c, 5, 48, 64
7, 565200, Note_on_c, 5, 48, 51
7, 565600, Note_off_c, 5, 48, 64
7, 565680, Note_on_c, 5, 48, 54
7, 566080, Note_off_c, 5, 48, 64
7, 566160, Note_on_c, 5, 48, 57
7, 566560, Note_off_c, 5, 48, 64
7, 566640, Note_on_c, 5, 48, 60
7, 567040, Note_off_c, 5, 48, 64
7, 567120, Note_on_c, 5, 48, 63
7, 567520, Note_off_c, 5, 48, 64
7, 567600, Note_on_c, 5, 48, 66
7, 568000, Note_off_c, 5, 48, 64
7, 568080, Note_on_c, 5, 48, 69
7, 568480, Note_off_c, 5, 48, 64
7, 568560, Note_on_c, 5, 48, 72
7, 568960, Note_off_c, 5, 48, 64
7, 569040, Note_on_c, 5, 48, 76
7, 569440, Note_off_c, 5, 48, 64
7, 569520, Note_on_c, 5, 48, 80
7, 569920, Note_off_c, 5, 48, 64
7, 570000, Note_on_c, 5, 48, 84
7, 570400, Note_off_c, 5, 48, 64
7, 570480, Note_on_c, 5, 48, 88
7, 570880, Note_off_c, 5, 48, 64
7, 570960, Note_on_c, 5, 48, 127
7, 571080, Note_off_c, 5, 48, 64
7, 571440, Note_on_c, 5, 53, 127
7, 571560, Note_off_c, 5, 53, 64
7, 571920, Note_on_c, 5, 53, 92
7, 572040, Note_off_c, 5, 53, 64
7, 572400, Note_on_c, 5, 53, 92
7, 572520, Note_off_c, 5, 53, 64
7, 572880, Note_on_c, 5, 53, 92
7, 573000, Note_off_c, 5, 53, 64
7, 573360, Note_on_c, 5, 53, 92
7, 573480, Note_off_c, 5, 53, 64
7, 573840, Note_on_c, 5, 53, 92
7, 573960, Note_off_c, 5, 53, 64
7, 574320, Note_on_c, 5, 53, 92
7, 574720, Note_off_c, 5, 53, 64
7, 574800, Note_on_c, 5, 53, 92
7, 575200, Note_off_c, 5, 53, 64
7, 575280, Note_on_c, 5, 55, 92
7, 575680, Note_off_c, 5, 55, 64
7, 575760, Note_on_c, 5, 57, 92
7, 576160, Note_off_c, 5, 57, 64
7, 577200, Note_on_c, 5, 57, 92
7, 577600, Note_off_c, 5, 57, 64
7, 578640, Note_on_c, 5, 57, 92
7, 579040, Note_off_c, 5, 57, 64
7, 580080, Note_on_c, 5, 57, 92
7, 581400, Note_off_c, 5, 57, 64
7, 581520, Note_on_c, 5, 55, 92
7, 582360, Note_off_c, 5, 55, 64
7, 582480, Note_on_c, 5, 48, 92
7, 582880, Note_off_c, 5, 48, 64
7, 582960, Note_on_c, 5, 48, 92
7, 583800, Note_off_c, 5, 48, 64
7, 583920, Note_on_c, 5, 48, 92
7, 584320, Note_off_c, 5, 48, 64
7, 584400, Note_on_c, 5, 48, 92
7, 585240, Note_off_c, 5, 48, 64
7, 585360, Note_on_c, 5, 48, 92
7, 585760, Note_off_c, 5, 48, 64
7, 585840, Note_on_c, 5, 53, 92
7, 587160, Note_off_c, 5, 53, 64
7, 587280, Note_on_c, 5, 65, 92
7, 588600, Note_off_c, 5, 65, 64
7, 588720, Note_on_c, 5, 65, 92
7, 590040, Note_off_c, 5, 65, 64
7, 590160, Note_on_c, 5, 60, 92
7, 591480, Note_off_c, 5, 60, 64
7, 591600, Note_on_c, 5, 65, 92
7, 592000, Note_off_c, 5, 65, 64
7, 594000, Note_on_c, 5, 48, 92
7, 594400, Note_off_c, 5, 48, 64
7, 594480, Note_on_c, 5, 48, 92
7, 595320, Note_off_c, 5, 48, 64
7, 595440, Note_on_c, 5, 48, 92
7, 595840, Note_off_c, 5, 48, 64
7, 595920, Note_on_c, 5, 48, 92
7, 596760, Note_off_c, 5, 48, 64
7, 596880, Note_on_c, 5, 60, 92
7, 597280, Note_off_c, 5, 60, 64
7, 597360, Note_on_c, 5, 53, 92
7, 598680, Note_off_c, 5, 53, 64
7, 598800, Note_on_c, 5, 53, 92
7, 600120, Note_off_c, 5, 53, 64
7, 600240, Note_on_c, 5, 53, 92
7, 601560, Note_off_c, 5, 53, 64
7, 601680, Note_on_c, 5, 48, 92
7, 603000, Note_off_c, 5, 48, 64
7, 603120, Note_on_c, 5, 57, 92
7, 603520, Note_off_c, 5, 57, 64
7, 603600, Note_on_c, 5, 65, 92
7, 603720, Note_off_c, 5, 65, 64
7, 604080, Note_on_c, 5, 65, 92
7, 604200, Note_off_c, 5, 65, 64
7, 604560, Note_on_c, 5, 69, 92
7, 604960, Note_off_c, 5, 69, 64
7, 605040, Note_on_c, 5, 65, 92
7, 605160, Note_off_c, 5, 65, 64
7, 605520, Note_on_c, 5, 65, 92
7, 605640, Note_off_c, 5, 65, 64
7, 606000, Note_on_c, 5, 69, 92
7, 606400, Note_off_c, 5, 69, 64
7, 606480, Note_on_c, 5, 65, 92
7, 606600, Note_off_c, 5, 65, 64
7, 606960, Note_on_c, 5, 65, 92
7, 607080, Note_off_c, 5, 65, 64
7, 607440, Note_on_c, 5, 67, 92
7, 607840, Note_off_c, 5, 67, 64
7, 607920, Note_on_c, 5, 60, 92
7, 608040, Note_off_c, 5, 60, 64
7, 608400, Note_on_c, 5, 60, 92
7, 608520, Note_off_c, 5, 60, 64
7, 608880, Note_on_c, 5, 69, 92
7, 609280, Note_off_c, 5, 69, 64
7, 609360, Note_on_c, 5, 65, 92
7, 609480, Note_off_c, 5, 65, 64
7, 609840, Note_on_c, 5, 65, 92
7, 609960, Note_off_c, 5, 65, 64
7, 610320, Note_on_c, 5, 69, 92
7, 610720, Note_off_c, 5, 69, 64
7, 610800, Note_on_c, 5, 65, 92
7, 610920, Note_off_c, 5, 65, 64
7, 611280, Note_on_c, 5, 65, 92
7, 611400, Note_off_c, 5, 65, 64
7, 611760, Note_on_c, 5, 69, 92
7, 612160, Note_off_c, 5, 69, 64
7, 612240, Note_on_c, 5, 65, 92
7, 612360, Note_off_c, 5, 65, 64
7, 612720, Note_on_c, 5, 65, 92
7, 612840, Note_off_c, 5, 65, 64
7, 613200, Note_on_c, 5, 67, 92
7, 613600, Note_off_c, 5, 67, 64
7, 613680, Note_on_c, 5, 60, 92
7, 613800, Note_off_c, 5, 60, 64
7, 614160, Note_on_c, 5, 60, 92
7, 614280, Note_off_c, 5, 60, 64
7, 614640, Note_on_c, 5, 69, 92
7, 615040, Note_off_c, 5, 69, 64
7, 615120, Note_on_c, 5, 65, 92
7, 615240, Note_off_c, 5, 65, 64
7, 615600, Note_on_c, 5, 65, 92
7, 615720, Note_off_c, 5, 65, 64
7, 616080, Note_on_c, 5, 69, 92
7, 616480, Note_off_c, 5, 69, 64
7, 616560, Note_on_c, 5, 65, 92
7, 616680, Note_off_c, 5, 65, 64
7, 617040, Note_on_c, 5, 65, 92
7, 617160, Note_off_c, 5, 65, 64
7, 617520, Note_on_c, 5, 69, 92
7, 617920, Note_off_c, 5, 69, 64
7, 618000, Note_on_c, 5, 65, 92
7, 618120, Note_off_c, 5, 65, 64
7, 618480, Note_on_c, 5, 65, 92
7, 618600, Note_off_c, 5, 65, 64
7, 618960, Note_on_c, 5, 69, 92
7, 619360, Note_off_c, 5, 69, 64
7, 619440, Note_on_c, 5, 65, 92
7, 619560, Note_off_c, 5, 65, 64
7, 619920, Note_on_c, 5, 65, 92
7, 620040, Note_off_c, 5, 65, 64
7, 683760, Note_on_c, 5, 48, 75
7, 685080, Note_off_c, 5, 48, 64
7, 685200, Note_on_c, 5, 48, 75
7, 686520, Note_off_c, 5, 48, 64
7, 686640, Note_on_c, 5, 53, 75
7, 687040, Note_off_c, 5, 53, 64
7, 714000, Note_on_c, 5, 48, 60
7, 716760, Note_off_c, 5, 48, 64
7, 716880, Note_on_c, 5, 48, 60
7, 726840, Note_off_c, 5, 48, 64
7, 726960, Note_on_c, 5, 53, 75
7, 727360, Note_off_c, 5, 53, 64
7, 732720, Note_on_c, 5, 53, 60
7, 733560, Note_off_c, 5, 53, 64
7, 733680, Note_on_c, 5, 53, 60
7, 734520, Note_off_c, 5, 53, 64
7, 734640, Note_on_c, 5, 53, 60
7, 735480, Note_off_c, 5, 53, 64
7, 735600, Note_on_c, 5, 53, 60
7, 736000, Note_off_c, 5, 53, 64
7, 736080, Note_on_c, 5, 53, 60
7, 736480, Note_off_c, 5, 53, 64
7, 736560, Note_on_c, 5, 53, 60
7, 737400, Note_off_c, 5, 53, 64
7, 737520, Note_on_c, 5, 53, 60
7, 738360, Note_off_c, 5, 53, 64
7, 738480, Note_on_c, 5, 53, 60
7, 739320, Note_off_c, 5, 53, 64
7, 739440, Note_on_c, 5, 53, 60
7, 739840, Note_off_c, 5, 53, 64
7, 739920, Note_on_c, 5, 53, 60
7, 740320, Note_off_c, 5, 53, 64
7, 740400, Note_on_c, 5, 53, 60
7, 741240, Note_off_c, 5, 53, 64
7, 741360, Note_on_c, 5, 53, 60
7, 742200, Note_off_c, 5, 53, 64
7, 742320, Note_on_c, 5, 53, 60
7, 743160, Note_off_c, 5, 53, 64
7, 743280, Note_on_c, 5, 53, 60
7, 743680, Note_off_c, 5, 53, 64
7, 743760, Note_on_c, 5, 53, 60
7, 744160, Note_off_c, 5, 53, 64
7, 744240, Note_on_c, 5, 53, 60
7, 745080, Note_off_c, 5, 53, 64
7, 745200, Note_on_c, 5, 53, 60
7, 746040, Note_off_c, 5, 53, 64
7, 746160, Note_on_c, 5, 53, 60
7, 747000, Note_off_c, 5, 53, 64
7, 747120, Note_on_c, 5, 53, 60
7, 747520, Note_off_c, 5, 53, 64
7, 747600, Note_on_c, 5, 53, 60
7, 748000, Note_off_c, 5, 53, 64
7, 750000, Note_on_c, 5, 65, 60
7, 750400, Note_off_c, 5, 65, 64
7, 750480, Note_on_c, 5, 57, 60
7, 750880, Note_off_c, 5, 57, 64
7, 750960, Note_on_c, 5, 60, 60
7, 751440, Note_off_c, 5, 60, 64
7, 751440, Note_on_c, 5, 57, 60
7, 751840, Note_off_c, 5, 57, 64
7, 753840, Note_on_c, 5, 65, 60
7, 754240, Note_off_c, 5, 65, 64
7, 754320, Note_on_c, 5, 57, 60
7, 754720, Note_off_c, 5, 57, 64
7, 754800, Note_on_c, 5, 60, 60
7, 755280, Note_off_c, 5, 60, 64
7, 755280, Note_on_c, 5, 57, 60
7, 755680, Note_off_c, 5, 57, 64
7, 755760, Note_on_c, 5, 48, 60
7, 756160, Note_off_c, 5, 48, 64
7, 756240, Note_on_c, 5, 55, 60
7, 756640, Note_off_c, 5, 55, 64
7, 756720, Note_on_c, 5, 48, 60
7, 757360, Note_off_c, 5, 48, 64
7, 757440, Note_on_c, 5, 48, 60
7, 757675, Note_off_c, 5, 48, 64
7, 757680, Note_on_c, 5, 48, 60
7, 757915, Note_off_c, 5, 48, 64
7, 758160, Note_on_c, 5, 48, 60
7, 758395, Note_off_c, 5, 48, 64
7, 758640, Note_on_c, 5, 48, 60
7, 758875, Note_off_c, 5, 48, 64
7, 759120, Note_on_c, 5, 67, 60
7, 759355, Note_off_c, 5, 67, 64
7, 759600, Note_on_c, 5, 48, 60
7, 759680, Note_off_c, 5, 48, 64
7, 759840, Note_on_c, 5, 48, 60
7, 759920, Note_off_c, 5, 48, 64
7, 760080, Note_on_c, 5, 55, 60
7, 760160, Note_off_c, 5, 55, 64
7, 760320, Note_on_c, 5, 55, 60
7, 760400, Note_off_c, 5, 55, 64
7, 760560, Note_on_c, 5, 48, 60
7, 760640, Note_off_c, 5, 48, 64
7, 760800, Note_on_c, 5, 48, 60
7, 760880, Note_off_c, 5, 48, 64
7, 761280, Note_on_c, 5, 48, 60
7, 761515, Note_off_c, 5, 48, 64
7, 761520, Note_on_c, 5, 48, 60
7, 761755, Note_off_c, 5, 48, 64
7, 761760, Note_on_c, 5, 48, 60
7, 761995, Note_off_c, 5, 48, 64
7, 762240, Note_on_c, 5, 48, 60
7, 762475, Note_off_c, 5, 48, 64
7, 762720, Note_on_c, 5, 48, 60
7, 762955, Note_off_c, 5, 48, 64
7, 763200, Note_on_c, 5, 55, 60
7, 763435, Note_off_c, 5, 55, 64
7, 763440, Note_on_c, 5, 48, 60
7, 764080, Note_off_c, 5, 48, 64
7, 764160, Note_on_c, 5, 48, 60
7, 764395, Note_off_c, 5, 48, 64
7, 764400, Note_on_c, 5, 48, 60
7, 765040, Note_off_c, 5, 48, 64
7, 765120, Note_on_c, 5, 48, 60
7, 765355, Note_off_c, 5, 48, 64
7, 765360, Note_on_c, 5, 48, 60
7, 766000, Note_off_c, 5, 48, 64
7, 766080, Note_on_c, 5, 48, 60
7, 766315, Note_off_c, 5, 48, 64
7, 766320, Note_on_c, 5, 48, 60
7, 766960, Note_off_c, 5, 48, 64
7, 767040, Note_on_c, 5, 48, 60
7, 767275, Note_off_c, 5, 48, 64
7, 767280, Note_on_c, 5, 48, 60
7, 767515, Note_off_c, 5, 48, 64
7, 767520, Note_on_c, 5, 48, 60
7, 767755, Note_off_c, 5, 48, 64
7, 767760, Note_on_c, 5, 48, 60
7, 767995, Note_off_c, 5, 48, 64
7, 768000, Note_on_c, 5, 48, 60
7, 768235, Note_off_c, 5, 48, 64
7, 768240, Note_on_c, 5, 48, 60
7, 768475, Note_off_c, 5, 48, 64
7, 768480, Note_on_c, 5, 48, 60
7, 768715, Note_off_c, 5, 48, 64
7, 768720, Note_on_c, 5, 48, 60
7, 768955, Note_off_c, 5, 48, 64
7, 768960, Note_on_c, 5, 48, 60
7, 769195, Note_off_c, 5, 48, 64
7, 769200, Note_on_c, 5, 48, 60
7, 769435, Note_off_c, 5, 48, 64
7, 830160, Note_on_c, 5, 55, 45
7, 830560, Note_off_c, 5, 55, 64
7, 830640, Note_on_c, 5, 48, 45
7, 831480, Note_off_c, 5, 48, 64
7, 831600, Note_on_c, 5, 48, 45
7, 832920, Note_off_c, 5, 48, 64
7, 833040, Note_on_c, 5, 48, 45
7, 834360, Note_off_c, 5, 48, 64
7, 834480, Note_on_c, 5, 48, 45
7, 835800, Note_off_c, 5, 48, 64
7, 835920, Note_on_c, 5, 48, 45
7, 837240, Note_off_c, 5, 48, 64
7, 837360, Note_on_c, 5, 48, 45
7, 838680, Note_off_c, 5, 48, 64
7, 838800, Note_on_c, 5, 48, 45
7, 840120, Note_off_c, 5, 48, 64
7, 840240, Note_on_c, 5, 55, 45
7, 840640, Note_off_c, 5, 55, 64
7, 840720, Note_on_c, 5, 55, 45
7, 841120, Note_off_c, 5, 55, 64
7, 841200, Note_on_c, 5, 48, 48
7, 841600, Note_off_c, 5, 48, 64
7, 841680, Note_on_c, 5, 48, 51
7, 842080, Note_off_c, 5, 48, 64
7, 842160, Note_on_c, 5, 48, 54
7, 842560, Note_off_c, 5, 48, 64
7, 842640, Note_on_c, 5, 48, 57
7, 843040, Note_off_c, 5, 48, 64
7, 843120, Note_on_c, 5, 48, 60
7, 843520, Note_off_c, 5, 48, 64
7, 843600, Note_on_c, 5, 48, 63
7, 844000, Note_off_c, 5, 48, 64
7, 844080, Note_on_c, 5, 48, 66
7, 844480, Note_off_c, 5, 48, 64
7, 844560, Note_on_c, 5, 48, 69
7, 844960, Note_off_c, 5, 48, 64
7, 845040, Note_on_c, 5, 48, 72
7, 845440, Note_off_c, 5, 48, 64
7, 845520, Note_on_c, 5, 48, 76
7, 845920, Note_off_c, 5, 48, 64
7, 846000, Note_on_c, 5, 48, 80
7, 846400, Note_off_c, 5, 48, 64
7, 846480, Note_on_c, 5, 48, 84
7, 846880, Note_off_c, 5, 48, 64
7, 846960, Note_on_c, 5, 48, 88
7, 847360, Note_off_c, 5, 48, 64
7, 847440, Note_on_c, 5, 48, 127
7, 847560, Note_off_c, 5, 48, 64
7, 847920, Note_on_c, 5, 53, 127
7, 848040, Note_off_c, 5, 53, 64
7, 848400, Note_on_c, 5, 53, 92
7, 848520, Note_off_c, 5, 53, 64
7, 848880, Note_on_c, 5, 53, 92
7, 849000, Note_off_c, 5, 53, 64
7, 849360, Note_on_c, 5, 53, 92
7, 849480, Note_off_c, 5, 53, 64
7, 849840, Note_on_c, 5, 53, 92
7, 849960, Note_off_c, 5, 53, 64
7, 850320, Note_on_c, 5, 53, 92
7, 850440, Note_off_c, 5, 53, 64
7, 850800, Note_on_c, 5, 53, 92
7, 851200, Note_off_c, 5, 53, 64
7, 851280, Note_on_c, 5, 53, 92
7, 851680, Note_off_c, 5, 53, 64
7, 851760, Note_on_c, 5, 55, 92
7, 852160, Note_off_c, 5, 55, 64
7, 852240, Note_on_c, 5, 57, 92
7, 852640, Note_off_c, 5, 57, 64
7, 853680, Note_on_c, 5, 57, 92
7, 854080, Note_off_c, 5, 57, 64
7, 855120, Note_on_c, 5, 57, 92
7, 855520, Note_off_c, 5, 57, 64
7, 856560, Note_on_c, 5, 57, 92
7, 857880, Note_off_c, 5, 57, 64
7, 858000, Note_on_c, 5, 55, 92
7, 858840, Note_off_c, 5, 55, 64
7, 858960, Note_on_c, 5, 48, 92
7, 859360, Note_off_c, 5, 48, 64
7, 859440, Note_on_c, 5, 48, 92
7, 860280, Note_off_c, 5, 48, 64
7, 860400, Note_on_c, 5, 48, 92
7, 860800, Note_off_c, 5, 48, 64
7, 860880, Note_on_c, 5, 48, 92
7, 861720, Note_off_c, 5, 48, 64
7, 861840, Note_on_c, 5, 48, 92
7, 862240, Note_off_c, 5, 48, 64
7, 862320, Note_on_c, 5, 53, 92
7, 863640, Note_off_c, 5, 53, 64
7, 863760, Note_on_c, 5, 65, 92
7, 865080, Note_off_c, 5, 65, 64
7, 865200, Note_on_c, 5, 65, 92
7, 866520, Note_off_c, 5, 65, 64
7, 866640, Note_on_c, 5, 60, 92
7, 867960, Note_off_c, 5, 60, 64
7, 868080, Note_on_c, 5, 65, 92
7, 868480, Note_off_c, 5, 65, 64
7, 870480, Note_on_c, 5, 48, 92
7, 870880, Note_off_c, 5, 48, 64
7, 870960, Note_on_c, 5, 48, 92
7, 871800, Note_off_c, 5, 48, 64
7, 871920, Note_on_c, 5, 48, 92
7, 872320, Note_off_c, 5, 48, 64
7, 872400, Note_on_c, 5, 48, 92
7, 873240, Note_off_c, 5, 48, 64
7, 873360, Note_on_c, 5, 60, 92
7, 873760, Note_off_c, 5, 60, 64
7, 873840, Note_on_c, 5, 53, 92
7, 875160, Note_off_c, 5, 53, 64
7, 875280, Note_on_c, 5, 53, 92
7, 876600, Note_off_c, 5, 53, 64
7, 876720, Note_on_c, 5, 53, 92
7, 878040, Note_off_c, 5, 53, 64
7, 878160, Note_on_c, 5, 48, 92
7, 879480, Note_off_c, 5, 48, 64
7, 879600, Note_on_c, 5, 57, 92
7, 880000, Note_off_c, 5, 57, 64
7, 880080, Note_on_c, 5, 65, 92
7, 880200, Note_off_c, 5, 65, 64
7, 880560, Note_on_c, 5, 65, 92
7, 880680, Note_off_c, 5, 65, 64
7, 881040, Note_on_c, 5, 69, 92
7, 881440, Note_off_c, 5, 69, 64
7, 881520, Note_on_c, 5, 65, 92
7, 881640, Note_off_c, 5, 65, 64
7, 882000, Note_on_c, 5, 65, 92
7, 882120, Note_off_c, 5, 65, 64
7, 882480, Note_on_c, 5, 69, 92
7, 882880, Note_off_c, 5, 69, 64
7, 882960, Note_on_c, 5, 65, 92
7, 883080, Note_off_c, 5, 65, 64
7, 883440, Note_on_c, 5, 65, 92
7, 883560, Note_off_c, 5, 65, 64
7, 883920, Note_on_c, 5, 67, 92
7, 884320, Note_off_c, 5, 67, 64
7, 884400, Note_on_c, 5, 60, 92
7, 884520, Note_off_c, 5, 60, 64
7, 884880, Note_on_c, 5, 60, 92
7, 885000, Note_off_c, 5, 60, 64
7, 885360, Note_on_c, 5, 69, 92
7, 885760, Note_off_c, 5, 69, 64
7, 885840, Note_on_c, 5, 65, 92
7, 885960, Note_off_c, 5, 65, 64
7, 886320, Note_on_c, 5, 65, 92
7, 886440, Note_off_c, 5, 65, 64
7, 886800, Note_on_c, 5, 69, 92
7, 887200, Note_off_c, 5, 69, 64
7, 887280, Note_on_c, 5, 65, 92
7, 887400, Note_off_c, 5, 65, 64
7, 887760, Note_on_c, 5, 65, 92
7, 887880, Note_off_c, 5, 65, 64
7, 888240, Note_on_c, 5, 69, 92
7, 888640, Note_off_c, 5, 69, 64
7, 888720, Note_on_c, 5, 65, 92
7, 888840, Note_off_c, 5, 65, 64
7, 889200, Note_on_c, 5, 65, 92
7, 889320, Note_off_c, 5, 65, 64
7, 889680, Note_on_c, 5, 67, 92
7, 890080, Note_off_c, 5, 67, 64
7, 890160, Note_on_c, 5, 60, 92
7, 890280, Note_off_c, 5, 60, 64
7, 890640, Note_on_c, 5, 60, 92
7, 890760, Note_off_c, 5, 60, 64
7, 891120, Note_on_c, 5, 69, 92
7, 891520, Note_off_c, 5, 69, 64
7, 891600, Note_on_c, 5, 65, 92
7, 891720, Note_off_c, 5, 65, 64
7, 892080, Note_on_c, 5, 65, 92
7, 892200, Note_off_c, 5, 65, 64
7, 892560, Note_on_c, 5, 69, 92
7, 892960, Note_off_c, 5, 69, 64
7, 893040, Note_on_c, 5, 65, 92
7, 893160, Note_off_c, 5, 65, 64
7, 893520, Note_on_c, 5, 65, 92
7, 893640, Note_off_c, 5, 65, 64
7, 894000, Note_on_c, 5, 69, 92
7, 894400, Note_off_c, 5, 69, 64
7, 894480, Note_on_c, 5, 65, 92
7, 894600, Note_off_c, 5, 65, 64
7, 894960, Note_on_c, 5, 65, 92
7, 895080, Note_off_c, 5, 65, 64
7, 895440, Note_on_c, 5, 69, 92
7, 895840, Note_off_c, 5, 69, 64
7, 895920, Note_on_c, 5, 65, 92
7, 896040, Note_off_c, 5, 65, 64
7, 896400, Note_on_c, 5, 65, 92
7, 896520, Note_off_c, 5, 65, 64
7, 960240, Note_on_c, 5, 48, 75
7, 961560, Note_off_c, 5, 48, 64
7, 961680, Note_on_c, 5, 48, 75
7, 963000, Note_off_c, 5, 48, 64
7, 963120, Note_on_c, 5, 53, 75
7, 963520, Note_off_c, 5, 53, 64
7, 990480, Note_on_c, 5, 48, 60
7, 993240, Note_off_c, 5, 48, 64
7, 993360, Note_on_c, 5, 48, 60
7, 1003320, Note_off_c, 5, 48, 64
7, 1003440, Note_on_c, 5, 53, 75
7, 1003840, Note_off_c, 5, 53, 64
7, 1009200, Note_on_c, 5, 53, 60
7, 1010040, Note_off_c, 5, 53, 64
7, 1010160, Note_on_c, 5, 53, 60
7, 1011000, Note_off_c, 5, 53, 64
7, 1011120, Note_on_c, 5, 53, 60
7, 1011960, Note_off_c, 5, 53, 64
7, 1012080, Note_on_c, 5, 53, 60
7, 1012480, Note_off_c, 5, 53, 64
7, 1012560, Note_on_c, 5, 53, 60
7, 1012960, Note_off_c, 5, 53, 64
7, 1013040, Note_on_c, 5, 53, 60
7, 1013880, Note_off_c, 5, 53, 64
7, 1014000, Note_on_c, 5, 53, 60
7, 1014840, Note_off_c, 5, 53, 64
7, 1014960, Note_on_c, 5, 53, 60
7, 1015800, Note_off_c, 5, 53, 64
7, 1015920, Note_on_c, 5, 53, 60
7, 1016320, Note_off_c, 5, 53, 64
7, 1016400, Note_on_c, 5, 53, 60
7, 1016800, Note_off_c, 5, 53, 64
7, 1016880, Note_on_c, 5, 53, 60
7, 1017720, Note_off_c, 5, 53, 64
7, 1017840, Note_on_c, 5, 53, 60
7, 1018680, Note_off_c, 5, 53, 64
7, 1018800, Note_on_c, 5, 53, 60
7, 1019640, Note_off_c, 5, 53, 64
7, 1019760, Note_on_c, 5, 53, 60
7, 1020160, Note_off_c, 5, 53, 64
7, 1020240, Note_on_c, 5, 53, 60
7, 1020640, Note_off_c, 5, 53, 64
7, 1020720, Note_on_c, 5, 53, 60
7, 1021560, Note_off_c, 5, 53, 64
7, 1021680, Note_on_c, 5, 53, 60
7, 1022520, Note_off_c, 5, 53, 64
7, 1022640, Note_on_c, 5, 53, 60
7, 1023480, Note_off_c, 5, 53, 64
7, 1023600, Note_on_c, 5, 53, 60
7, 1024000, Note_off_c, 5, 53, 64
7, 1024080, Note_on_c, 5, 53, 60
7, 1024480, Note_off_c, 5, 53, 64
7, 1026480, Note_on_c, 5, 65, 60
7, 1026880, Note_off_c, 5, 65, 64
7, 1026960, Note_on_c, 5, 57, 60
7, 1027360, Note_off_c, 5, 57, 64
7, 1027440, Note_on_c, 5, 60, 60
7, 1027920, Note_off_c, 5, 60, 64
7, 1027920, Note_on_c, 5, 57, 60
7, 1028320, Note_off_c, 5, 57, 64
7, 1030320, Note_on_c, 5, 65, 60
7, 1030720, Note_off_c, 5, 65, 64
7, 1030800, Note_on_c, 5, 57, 60
7, 1031200, Note_off_c, 5, 57, 64
7, 1031280, Note_on_c, 5, 60, 60
7, 1031760, Note_off_c, 5, 60, 64
7, 1031760, Note_on_c, 5, 57, 60
7, 1032160, Note_off_c, 5, 57, 64
7, 1032240, Note_on_c, 5, 48, 60
7, 1032640, Note_off_c, 5, 48, 64
7, 1032720, Note_on_c, 5, 55, 60
7, 1033120, Note_off_c, 5, 55, 64
7, 1033200, Note_on_c, 5, 48, 60
7, 1033840, Note_off_c, 5, 48, 64
7, 1033920, Note_on_c, 5, 48, 60
7, 1034155, Note_off_c, 5, 48, 64
7, 1034160, Note_on_c, 5, 48, 60
7, 1034395, Note_off_c, 5, 48, 64
7, 1034640, Note_on_c, 5, 48, 60
7, 1034875, Note_off_c, 5, 48, 64
7, 1035120, Note_on_c, 5, 48, 60
7, 1035355, Note_off_c, 5, 48, 64
7, 1035600, Note_on_c, 5, 67, 60
7, 1035835, Note_off_c, 5, 67, 64
7, 1036080, Note_on_c, 5, 48, 60
7, 1036160, Note_off_c, 5, 48, 64
7, 1036320, Note_on_c, 5, 48, 60
7, 1036400, Note_off_c, 5, 48, 64
7, 1036560, Note_on_c, 5, 55, 60
7, 1036640, Note_off_c, 5, 55, 64
7, 1036800, Note_on_c, 5, 55, 60
7, 1036880, Note_off_c, 5, 55, 64
7, 1037040, Note_on_c, 5, 48, 60
7, 1037120, Note_off_c, 5, 48, 64
7, 1037280, Note_on_c, 5, 48, 60
7, 1037360, Note_off_c, 5, 48, 64
7, 1037760, Note_on_c, 5, 48, 60
7, 1037995, Note_off_c, 5, 48, 64
7, 1038000, Note_on_c, 5, 48, 60
7, 1038235, Note_off_c, 5, 48, 64
7, 1038240, Note_on_c, 5, 48, 60
7, 1038475, Note_off_c, 5, 48, 64
7, 1038720, Note_on_c, 5, 48, 60
7, 1038955, Note_off_c, 5, 48, 64
7, 1039200, Note_on_c, 5, 48, 60
7, 1039435, Note_off_c, 5, 48, 64
7, 1039680, Note_on_c, 5, 55, 60
7, 1039915, Note_off_c, 5, 55, 64
7, 1039920, Note_on_c, 5, 48, 60
7, 1040560, Note_off_c, 5, 48, 64
7, 1040640, Note_on_c, 5, 48, 60
7, 1040875, Note_off_c, 5, 48, 64
7, 1040880, Note_on_c, 5, 48, 60
7, 1041520, Note_off_c, 5, 48, 64
7, 1041600, Note_on_c, 5, 48, 60
7, 1041835, Note_off_c, 5, 48, 64
7, 1041840, Note_on_c, 5, 48, 60
7, 1042480, Note_off_c, 5, 48, 64
7, 1042560, Note_on_c, 5, 48, 60
7, 1042795, Note_off_c, 5, 48, 64
7, 1042800, Note_on_c, 5, 48, 60
7, 1043440, Note_off_c, 5, 48, 64
7, 1043520, Note_on_c, 5, 48, 60
7, 1043755, Note_off_c, 5, 48, 64
7, 1043760, Note_on_c, 5, 48, 60
7, 1043995, Note_off_c, 5, 48, 64
7, 1044000, Note_on_c, 5, 48, 60
7, 1044235, Note_off_c, 5, 48, 64
7, 1044240, Note_on_c, 5, 48, 60
7, 1044475, Note_off_c, 5, 48, 64
7, 1044480, Note_on_c, 5, 48, 60
7, 1044715, Note_off_c, 5, 48, 64
7, 1044720, Note_on_c, 5, 48, 60
7, 1044955, Note_off_c, 5, 48, 64
7, 1044960, Note_on_c, 5, 48, 60
7, 1045195, Note_off_c, 5, 48, 64
7, 1045200, Note_on_c, 5, 48, 60
7, 1045435, Note_off_c, 5, 48, 64
7, 1045440, Note_on_c, 5, 48, 60
7, 1045675, Note_off_c, 5, 48, 64
7, 1045680, Note_on_c, 5, 48, 60
7, 1045915, Note_off_c, 5, 48, 64
7, 1069200, Note_on_c, 5, 55, 75
7, 1069680, Note_off_c, 5, 55, 64
7, 1069680, Note_on_c, 5, 65, 75
7, 1070320, Note_off_c, 5, 65, 64
7, 1073040, Note_on_c, 5, 60, 45
7, 1073040, Note_on_c, 5, 64, 45
7, 1073760, Note_off_c, 5, 64, 64
7, 1073760, Note_off_c, 5, 60, 64
7, 1076400, Note_on_c, 5, 48, 45
7, 1076800, Note_off_c, 5, 48, 64
7, 1076880, Note_on_c, 5, 29, 45
7, 1077720, Note_off_c, 5, 29, 64
7, 1077840, Note_on_c, 5, 29, 45
7, 1079160, Note_off_c, 5, 29, 64
7, 1079280, Note_on_c, 5, 29, 45
7, 1080600, Note_off_c, 5, 29, 64
7, 1080720, Note_on_c, 5, 29, 45
7, 1082040, Note_off_c, 5, 29, 64
7, 1082160, Note_on_c, 5, 29, 45
7, 1083480, Note_off_c, 5, 29, 64
7, 1083600, Note_on_c, 5, 29, 45
7, 1084920, Note_off_c, 5, 29, 64
7, 1085040, Note_on_c, 5, 29, 45
7, 1086360, Note_off_c, 5, 29, 64
7, 1086480, Note_on_c, 5, 29, 45
7, 1087800, Note_off_c, 5, 29, 64
7, 1087920, Note_on_c, 5, 29, 45
7, 1089240, Note_off_c, 5, 29, 64
7, 1089360, Note_on_c, 5, 29, 45
7, 1090680, Note_off_c, 5, 29, 64
7, 1090800, Note_on_c, 5, 29, 54
7, 1092120, Note_off_c, 5, 29, 64
7, 1092240, Note_on_c, 5, 29, 64
7, 1093560, Note_off_c, 5, 29, 64
7, 1093680, Note_on_c, 5, 48, 75
7, 1094080, Note_off_c, 5, 48, 64
7, 1094160, Note_on_c, 5, 53, 75
7, 1094560, Note_off_c, 5, 53, 64
7, 1094640, Note_on_c, 5, 53, 75
7, 1095040, Note_off_c, 5, 53, 64
7, 1095120, Note_on_c, 5, 53, 75
7, 1095520, Note_off_c, 5, 53, 64
7, 1095600, Note_on_c, 5, 53, 75
7, 1096000, Note_off_c, 5, 53, 64
7, 1096080, Note_on_c, 5, 53, 75
7, 1096480, Note_off_c, 5, 53, 64
7, 1096560, Note_on_c, 5, 53, 75
7, 1096960, Note_off_c, 5, 53, 64
7, 1097040, Note_on_c, 5, 53, 75
7, 1097440, Note_off_c, 5, 53, 64
7, 1097520, Note_on_c, 5, 53, 75
7, 1097920, Note_off_c, 5, 53, 64
7, 1098000, Note_on_c, 5, 55, 75
7, 1098400, Note_off_c, 5, 55, 64
7, 1098480, Note_on_c, 5, 57, 75
7, 1098880, Note_off_c, 5, 57, 64
7, 1099920, Note_on_c, 5, 57, 75
7, 1100320, Note_off_c, 5, 57, 64
7, 1101360, Note_on_c, 5, 57, 75
7, 1101760, Note_off_c, 5, 57, 64
7, 1102800, Note_on_c, 5, 57, 75
7, 1104120, Note_off_c, 5, 57, 64
7, 1104240, Note_on_c, 5, 55, 75
7, 1105080, Note_off_c, 5, 55, 64
7, 1105200, Note_on_c, 5, 48, 75
7, 1105600, Note_off_c, 5, 48, 64
7, 1105680, Note_on_c, 5, 48, 75
7, 1106520, Note_off_c, 5, 48, 64
7, 1106640, Note_on_c, 5, 48, 75
7, 1107040, Note_off_c, 5, 48, 64
7, 1107120, Note_on_c, 5, 48, 75
7, 1107960, Note_off_c, 5, 48, 64
7, 1108080, Note_on_c, 5, 48, 75
7, 1108480, Note_off_c, 5, 48, 64
7, 1108560, Note_on_c, 5, 53, 75
7, 1109880, Note_off_c, 5, 53, 64
7, 1110000, Note_on_c, 5, 65, 75
7, 1111320, Note_off_c, 5, 65, 64
7, 1111440, Note_on_c, 5, 65, 75
7, 1112760, Note_off_c, 5, 65, 64
7, 1112880, Note_on_c, 5, 64, 75
7, 1114200, Note_off_c, 5, 64, 64
7, 1114320, Note_on_c, 5, 65, 75
7, 1114720, Note_off_c, 5, 65, 64
7, 1116720, Note_on_c, 5, 48, 75
7, 1117120, Note_off_c, 5, 48, 64
7, 1117200, Note_on_c, 5, 48, 75
7, 1118040, Note_off_c, 5, 48, 64
7, 1118160, Note_on_c, 5, 48, 75
7, 1118560, Note_off_c, 5, 48, 64
7, 1118640, Note_on_c, 5, 48, 75
7, 1119480, Note_off_c, 5, 48, 64
7, 1119600, Note_on_c, 5, 60, 75
7, 1120000, Note_off_c, 5, 60, 64
7, 1120080, Note_on_c, 5, 53, 75
7, 1121400, Note_off_c, 5, 53, 64
7, 1121520, Note_on_c, 5, 53, 75
7, 1122840, Note_off_c, 5, 53, 64
7, 1122960, Note_on_c, 5, 53, 75
7, 1124280, Note_off_c, 5, 53, 64
7, 1124400, Note_on_c, 5, 48, 75
7, 1125720, Note_off_c, 5, 48, 64
7, 1125840, Note_on_c, 5, 53, 75
7, 1126240, Note_off_c, 5, 53, 64
7, 1126320, Note_on_c, 5, 65, 75
7, 1126720, Note_off_c, 5, 65, 64
7, 1126800, Note_on_c, 5, 65, 75
7, 1127200, Note_off_c, 5, 65, 64
7, 1127280, Note_on_c, 5, 69, 75
7, 1127680, Note_off_c, 5, 69, 64
7, 1127760, Note_on_c, 5, 65, 75
7, 1128160, Note_off_c, 5, 65, 64
7, 1128240, Note_on_c, 5, 65, 75
7, 1128640, Note_off_c, 5, 65, 64
7, 1128720, Note_on_c, 5, 69, 75
7, 1129120, Note_off_c, 5, 69, 64
7, 1129200, Note_on_c, 5, 65, 75
7, 1129600, Note_off_c, 5, 65, 64
7, 1129680, Note_on_c, 5, 65, 75
7, 1130080, Note_off_c, 5, 65, 64
7, 1130160, Note_on_c, 5, 67, 75
7, 1130560, Note_off_c, 5, 67, 64
7, 1130640, Note_on_c, 5, 60, 75
7, 1131040, Note_off_c, 5, 60, 64
7, 1131120, Note_on_c, 5, 60, 75
7, 1131520, Note_off_c, 5, 60, 64
7, 1131600, Note_on_c, 5, 69, 75
7, 1132000, Note_off_c, 5, 69, 64
7, 1132080, Note_on_c, 5, 65, 75
7, 1132480, Note_off_c, 5, 65, 64
7, 1132560, Note_on_c, 5, 65, 75
7, 1132960, Note_off_c, 5, 65, 64
7, 1133040, Note_on_c, 5, 69, 75
7, 1133440, Note_off_c, 5, 69, 64
7, 1133520, Note_on_c, 5, 65, 75
7, 1133920, Note_off_c, 5, 65, 64
7, 1134000, Note_on_c, 5, 65, 75
7, 1134400, Note_off_c, 5, 65, 64
7, 1134480, Note_on_c, 5, 69, 75
7, 1134880, Note_off_c, 5, 69, 64
7, 1134960, Note_on_c, 5, 65, 75
7, 1135360, Note_off_c, 5, 65, 64
7, 1135440, Note_on_c, 5, 65, 75
7, 1135840, Note_off_c, 5, 65, 64
7, 1135920, Note_on_c, 5, 67, 75
7, 1136320, Note_off_c, 5, 67, 64
7, 1136400, Note_on_c, 5, 60, 75
7, 1136800, Note_off_c, 5, 60, 64
7, 1136880, Note_on_c, 5, 60, 75
7, 1137280, Note_off_c, 5, 60, 64
7, 1177680, Note_on_c, 5, 53, 75
7, 1181400, Note_off_c, 5, 53, 64
7, 1181520, Note_on_c, 5, 53, 75
7, 1185240, Note_off_c, 5, 53, 64
7, 1185360, Note_on_c, 5, 55, 75
7, 1189080, Note_off_c, 5, 55, 64
7, 1189200, Note_on_c, 5, 55, 75
7, 1192920, Note_off_c, 5, 55, 64
7, 1193040, Note_on_c, 5, 48, 75
7, 1196760, Note_off_c, 5, 48, 64
7, 1196880, Note_on_c, 5, 48, 75
7, 1200600, Note_off_c, 5, 48, 64
7, 1200720, Note_on_c, 5, 53, 75
7, 1200955, Note_off_c, 5, 53, 64
7, 1201200, Note_on_c, 5, 53, 75
7, 1201435, Note_off_c, 5, 53, 64
7, 1202640, Note_on_c, 5, 53, 75
7, 1202875, Note_off_c, 5, 53, 64
7, 1203120, Note_on_c, 5, 53, 75
7, 1203355, Note_off_c, 5, 53, 64
7, 1204560, Note_on_c, 5, 48, 75
7, 1204960, Note_off_c, 5, 48, 64
7, 1205520, Note_on_c, 5, 48, 75
7, 1206880, Note_off_c, 5, 48, 64
7, 1208400, Note_on_c, 5, 48, 75
7, 1208800, Note_off_c, 5, 48, 64
7, 1209360, Note_on_c, 5, 60, 75
7, 1210720, Note_off_c, 5, 60, 64
7, 1212240, Note_on_c, 5, 53, 75
7, 1212640, Note_off_c, 5, 53, 64
7, 1213200, Note_on_c, 5, 53, 105
7, 1214560, Note_off_c, 5, 53, 64
7, 1220400, Note_on_c, 5, 53, 127
7, 1220635, Note_off_c, 5, 53, 64
7, 1228080, Note_on_c, 5, 65, 127
7, 1228315, Note_off_c, 5, 65, 64
7, 1235760, Note_on_c, 5, 57, 92
7, 1235995, Note_off_c, 5, 57, 64
7, 1237680, Note_on_c, 5, 57, 92
7, 1237915, Note_off_c, 5, 57, 64
7, 1239600, Note_on_c, 5, 53, 92
7, 1239835, Note_off_c, 5, 53, 64
7, 1241520, Note_on_c, 5, 65, 92
7, 1241755, Note_off_c, 5, 65, 64
7, 1243440, Note_on_c, 5, 60, 92
7, 1243675, Note_off_c, 5, 60, 64
7, 1244400, Note_on_c, 5, 55, 92
7, 1244635, Note_off_c, 5, 55, 64
7, 1244880, Note_on_c, 5, 57, 92
7, 1245115, Note_off_c, 5, 57, 64
7, 1264080, Note_on_c, 5, 57, 30
7, 1267800, Note_off_c, 5, 57, 64
7, 1287120, Note_on_c, 5, 55, 75
7, 1289440, Note_off_c, 5, 55, 64
7, 1292880, Note_on_c, 5, 48, 75
7, 1293280, Note_off_c, 5, 48, 64
7, 1294800, Note_on_c, 5, 48, 75
7, 1295200, Note_off_c, 5, 48, 64
7, 1296720, Note_on_c, 5, 53, 75
7, 1297120, Note_off_c, 5, 53, 64
7, 1298640, Note_on_c, 5, 53, 75
7, 1300960, Note_off_c, 5, 53, 64
7, 1335120, Note_on_c, 5, 55, 92
7, 1335520, Note_off_c, 5, 55, 64
7, 1337040, Note_on_c, 5, 55, 92
7, 1337440, Note_off_c, 5, 55, 64
7, 1339440, Note_on_c, 5, 53, 92
7, 1339840, Note_off_c, 5, 53, 64
7, 1341360, Note_on_c, 5, 53, 92
7, 1341760, Note_off_c, 5, 53, 64
7, 1342320, Note_on_c, 5, 57, 75
7, 1350360, Note_off_c, 5, 57, 64
7, 1350480, Note_on_c, 5, 57, 75
7, 1352400, Note_off_c, 5, 57, 64
7, 1352400, Note_on_c, 5, 57, 105
7, 1354200, Note_off_c, 5, 57, 64
7, 1354320, Note_on_c, 5, 53, 75
7, 1356240, Note_off_c, 5, 53, 64
7, 1356240, Note_on_c, 5, 53, 105
7, 1358040, Note_off_c, 5, 53, 64
7, 1358160, Note_on_c, 5, 29, 75
7, 1360080, Note_off_c, 5, 29, 64
7, 1360080, Note_on_c, 5, 29, 105
7, 1361880, Note_off_c, 5, 29, 64
7, 1362000, Note_on_c, 5, 29, 75
7, 1363920, Note_off_c, 5, 29, 64
7, 1363920, Note_on_c, 5, 29, 105
7, 1365720, Note_off_c, 5, 29, 64
7, 1365840, Note_on_c, 5, 34, 45
7, 1366240, Note_off_c, 5, 34, 64
7, 1457820, Note_on_c, 5, 48, 30
7, 1458540, Note_off_c, 5, 48, 64
7, 1458540, Note_on_c, 5, 53, 30
7, 1459860, Note_off_c, 5, 53, 64
7, 1459980, Note_on_c, 5, 65, 30
7, 1460215, Note_off_c, 5, 65, 64
7, 1460220, Note_on_c, 5, 65, 31
7, 1460455, Note_off_c, 5, 65, 64
7, 1460460, Note_on_c, 5, 65, 32
7, 1460695, Note_off_c, 5, 65, 64
7, 1460700, Note_on_c, 5, 65, 33
7, 1460935, Note_off_c, 5, 65, 64
7, 1460940, Note_on_c, 5, 65, 34
7, 1461175, Note_off_c, 5, 65, 64
7, 1461180, Note_on_c, 5, 65, 35
7, 1461415, Note_off_c, 5, 65, 64
7, 1461420, Note_on_c, 5, 65, 36
7, 1461655, Note_off_c, 5, 65, 64
7, 1461660, Note_on_c, 5, 65, 37
7, 1461895, Note_off_c, 5, 65, 64
7, 1461900, Note_on_c, 5, 65, 38
7, 1462135, Note_off_c, 5, 65, 64
7, 1462140, Note_on_c, 5, 65, 39
7, 1462375, Note_off_c, 5, 65, 64
7, 1462380, Note_on_c, 5, 65, 40
7, 1462615, Note_off_c, 5, 65, 64
7, 1462620, Note_on_c, 5, 65, 41
7, 1462855, Note_off_c, 5, 65, 64
7, 1462860, Note_on_c, 5, 65, 42
7, 1463095, Note_off_c, 5, 65, 64
7, 1463100, Note_on_c, 5, 65, 43
7, 1463335, Note_off_c, 5, 65, 64
7, 1463340, Note_on_c, 5, 65, 44
7, 1463575, Note_off_c, 5, 65, 64
7, 1463580, Note_on_c, 5, 65, 45
7, 1463815, Note_off_c, 5, 65, 64
7, 1463820, Note_on_c, 5, 65, 46
7, 1464055, Note_off_c, 5, 65, 64
7, 1464060, Note_on_c, 5, 65, 47
7, 1464295, Note_off_c, 5, 65, 64
7, 1464300, Note_on_c, 5, 65, 48
7, 1464535, Note_off_c, 5, 65, 64
7, 1464540, Note_on_c, 5, 65, 49
7, 1464775, Note_off_c, 5, 65, 64
7, 1464780, Note_on_c, 5, 65, 50
7, 1465015, Note_off_c, 5, 65, 64
7, 1465020, Note_on_c, 5, 65, 51
7, 1465255, Note_off_c, 5, 65, 64
7, 1465260, Note_on_c, 5, 65, 52
7, 1465495, Note_off_c, 5, 65, 64
7, 1465500, Note_on_c, 5, 65, 53
7, 1465735, Note_off_c, 5, 65, 64
7, 1465740, Note_on_c, 5, 67, 54
7, 1465975, Note_off_c, 5, 67, 64
7, 1465980, Note_on_c, 5, 67, 55
7, 1466215, Note_off_c, 5, 67, 64
7, 1466220, Note_on_c, 5, 67, 56
7, 1466455, Note_off_c, 5, 67, 64
7, 1466460, Note_on_c, 5, 67, 57
7, 1466695, Note_off_c, 5, 67, 64
7, 1466700, Note_on_c, 5, 67, 58
7, 1466935, Note_off_c, 5, 67, 64
7, 1466940, Note_on_c, 5, 67, 59
7, 1467175, Note_off_c, 5, 67, 64
7, 1467180, Note_on_c, 5, 65, 60
7, 1467415, Note_off_c, 5, 65, 64
7, 1467420, Note_on_c, 5, 65, 61
7, 1467655, Note_off_c, 5, 65, 64
7, 1467660, Note_on_c, 5, 65, 62
7, 1467895, Note_off_c, 5, 65, 64
7, 1467900, Note_on_c, 5, 65, 63
7, 1468135, Note_off_c, 5, 65, 64
7, 1468140, Note_on_c, 5, 65, 64
7, 1468375, Note_off_c, 5, 65, 64
7, 1468380, Note_on_c, 5, 65, 66
7, 1468615, Note_off_c, 5, 65, 64
7, 1468620, Note_on_c, 5, 65, 68
7, 1468855, Note_off_c, 5, 65, 64
7, 1468860, Note_on_c, 5, 65, 70
7, 1469095, Note_off_c, 5, 65, 64
7, 1469100, Note_on_c, 5, 65, 72
7, 1469335, Note_off_c, 5, 65, 64
7, 1469340, Note_on_c, 5, 60, 74
7, 1469575, Note_off_c, 5, 60, 64
7, 1469580, Note_on_c, 5, 60, 76
7, 1469815, Note_off_c, 5, 60, 64
7, 1469820, Note_on_c, 5, 60, 78
7, 1470055, Note_off_c, 5, 60, 64
7, 1470060, Note_on_c, 5, 65, 80
7, 1470295, Note_off_c, 5, 65, 64
7, 1470300, Note_on_c, 5, 65, 82
7, 1470535, Note_off_c, 5, 65, 64
7, 1470540, Note_on_c, 5, 65, 84
7, 1470775, Note_off_c, 5, 65, 64
7, 1470780, Note_on_c, 5, 65, 86
7, 1471015, Note_off_c, 5, 65, 64
7, 1471020, Note_on_c, 5, 65, 88
7, 1471255, Note_off_c, 5, 65, 64
7, 1471260, Note_on_c, 5, 65, 90
7, 1471495, Note_off_c, 5, 65, 64
7, 1471500, Note_on_c, 5, 57, 92
7, 1472220, Note_off_c, 5, 57, 64
7, 1472220, Note_on_c, 5, 53, 92
7, 1472700, Note_off_c, 5, 53, 64
7, 1472700, Note_on_c, 5, 60, 92
7, 1472870, Note_off_c, 5, 60, 64
7, 1472940, Note_on_c, 5, 57, 92
7, 1473660, Note_off_c, 5, 57, 64
7, 1473660, Note_on_c, 5, 53, 92
7, 1474140, Note_off_c, 5, 53, 64
7, 1474140, Note_on_c, 5, 48, 92
7, 1474310, Note_off_c, 5, 48, 64
7, 1474380, Note_on_c, 5, 53, 92
7, 1474860, Note_off_c, 5, 53, 64
7, 1474860, Note_on_c, 5, 57, 92
7, 1475100, Note_off_c, 5, 57, 64
7, 1475100, Note_on_c, 5, 60, 92
7, 1475580, Note_off_c, 5, 60, 64
7, 1475580, Note_on_c, 5, 57, 92
7, 1475820, Note_off_c, 5, 57, 64
7, 1475820, Note_on_c, 5, 58, 92
7, 1477020, Note_off_c, 5, 58, 64
7, 1477020, Note_on_c, 5, 55, 92
7, 1477190, Note_off_c, 5, 55, 64
7, 1477260, Note_on_c, 5, 58, 92
7, 1477980, Note_off_c, 5, 58, 64
7, 1477980, Note_on_c, 5, 55, 92
7, 1478460, Note_off_c, 5, 55, 64
7, 1478460, Note_on_c, 5, 60, 92
7, 1478630, Note_off_c, 5, 60, 64
7, 1478700, Note_on_c, 5, 57, 92
7, 1479420, Note_off_c, 5, 57, 64
7, 1479420, Note_on_c, 5, 53, 92
7, 1479900, Note_off_c, 5, 53, 64
7, 1479900, Note_on_c, 5, 57, 92
7, 1480140, Note_off_c, 5, 57, 64
7, 1480140, Note_on_c, 5, 55, 92
7, 1480620, Note_off_c, 5, 55, 64
7, 1480620, Note_on_c, 5, 50, 92
7, 1480860, Note_off_c, 5, 50, 64
7, 1480860, Note_on_c, 5, 52, 92
7, 1481340, Note_off_c, 5, 52, 64
7, 1481340, Note_on_c, 5, 48, 92
7, 1481580, Note_off_c, 5, 48, 64
7, 1481580, Note_on_c, 5, 53, 75
7, 1481980, Note_off_c, 5, 53, 64
7, 1484220, Note_on_c, 5, 48, 75
7, 1484455, Note_off_c, 5, 48, 64
7, 1484460, Note_on_c, 5, 48, 75
7, 1486540, Note_off_c, 5, 48, 64
7, 1486620, Note_on_c, 5, 48, 75
7, 1487020, Note_off_c, 5, 48, 64
7, 1487100, Note_on_c, 5, 48, 75
7, 1487335, Note_off_c, 5, 48, 64
7, 1489980, Note_on_c, 5, 48, 75
7, 1490215, Note_off_c, 5, 48, 64
7, 1490220, Note_on_c, 5, 48, 75
7, 1492300, Note_off_c, 5, 48, 64
7, 1492380, Note_on_c, 5, 48, 75
7, 1492780, Note_off_c, 5, 48, 64
7, 1492860, Note_on_c, 5, 48, 75
7, 1493095, Note_off_c, 5, 48, 64
7, 1493100, Note_on_c, 5, 48, 75
7, 1493740, Note_off_c, 5, 48, 64
7, 1493820, Note_on_c, 5, 62, 75
7, 1494220, Note_off_c, 5, 62, 64
7, 1494300, Note_on_c, 5, 62, 75
7, 1494535, Note_off_c, 5, 62, 64
7, 1494540, Note_on_c, 5, 64, 75
7, 1495180, Note_off_c, 5, 64, 64
7, 1495260, Note_on_c, 5, 65, 75
7, 1495660, Note_off_c, 5, 65, 64
7, 1495740, Note_on_c, 5, 59, 75
7, 1495975, Note_off_c, 5, 59, 64
7, 1495980, Note_on_c, 5, 60, 75
7, 1497100, Note_off_c, 5, 60, 64
7, 1497180, Note_on_c, 5, 60, 75
7, 1497260, Note_off_c, 5, 60, 64
7, 1497300, Note_on_c, 5, 60, 75
7, 1497380, Note_off_c, 5, 60, 64
7, 1497420, Note_on_c, 5, 60, 75
7, 1497820, Note_off_c, 5, 60, 64
7, 1497900, Note_on_c, 5, 60, 75
7, 1498135, Note_off_c, 5, 60, 64
7, 1498140, Note_on_c, 5, 60, 75
7, 1498540, Note_off_c, 5, 60, 64
7, 1498620, Note_on_c, 5, 60, 75
7, 1498855, Note_off_c, 5, 60, 64
7, 1498860, Note_on_c, 5, 62, 75
7, 1499980, Note_off_c, 5, 62, 64
7, 1500060, Note_on_c, 5, 62, 75
7, 1500140, Note_off_c, 5, 62, 64
7, 1500180, Note_on_c, 5, 62, 75
7, 1500260, Note_off_c, 5, 62, 64
7, 1500300, Note_on_c, 5, 62, 75
7, 1500700, Note_off_c, 5, 62, 64
7, 1500780, Note_on_c, 5, 62, 75
7, 1501015, Note_off_c, 5, 62, 64
7, 1501020, Note_on_c, 5, 62, 75
7, 1501420, Note_off_c, 5, 62, 64
7, 1501500, Note_on_c, 5, 62, 75
7, 1501735, Note_off_c, 5, 62, 64
7, 1501740, Note_on_c, 5, 64, 75
7, 1502140, Note_off_c, 5, 64, 64
7, 1502220, Note_on_c, 5, 64, 75
7, 1502455, Note_off_c, 5, 64, 64
7, 1502460, Note_on_c, 5, 64, 75
7, 1502860, Note_off_c, 5, 64, 64
7, 1502940, Note_on_c, 5, 64, 75
7, 1503020, Note_off_c, 5, 64, 64
7, 1503060, Note_on_c, 5, 64, 75
7, 1503140, Note_off_c, 5, 64, 64
7, 1503180, Note_on_c, 5, 64, 75
7, 1503580, Note_off_c, 5, 64, 64
7, 1503660, Note_on_c, 5, 64, 75
7, 1503895, Note_off_c, 5, 64, 64
7, 1503900, Note_on_c, 5, 64, 75
7, 1504300, Note_off_c, 5, 64, 64
7, 1504380, Note_on_c, 5, 64, 75
7, 1504615, Note_off_c, 5, 64, 64
7, 1504620, Note_on_c, 5, 62, 75
7, 1505020, Note_off_c, 5, 62, 64
7, 1505100, Note_on_c, 5, 62, 75
7, 1505335, Note_off_c, 5, 62, 64
7, 1505340, Note_on_c, 5, 62, 75
7, 1505740, Note_off_c, 5, 62, 64
7, 1505820, Note_on_c, 5, 62, 75
7, 1505900, Note_off_c, 5, 62, 64
7, 1505940, Note_on_c, 5, 62, 75
7, 1506020, Note_off_c, 5, 62, 64
7, 1506060, Note_on_c, 5, 62, 75
7, 1506460, Note_off_c, 5, 62, 64
7, 1506540, Note_on_c, 5, 62, 75
7, 1506775, Note_off_c, 5, 62, 64
7, 1506780, Note_on_c, 5, 62, 75
7, 1507180, Note_off_c, 5, 62, 64
7, 1507260, Note_on_c, 5, 62, 75
7, 1507495, Note_off_c, 5, 62, 64
7, 1507500, Note_on_c, 5, 48, 75
7, 1507900, Note_off_c, 5, 48, 64
7, 1509420, Note_on_c, 5, 48, 75
7, 1509660, Note_off_c, 5, 48, 64
7, 1509660, Note_on_c, 5, 62, 75
7, 1510060, Note_off_c, 5, 62, 64
7, 1510140, Note_on_c, 5, 62, 75
7, 1510380, Note_off_c, 5, 62, 64
7, 1510380, Note_on_c, 5, 48, 75
7, 1510615, Note_off_c, 5, 48, 64
7, 1512300, Note_on_c, 5, 48, 60
7, 1512540, Note_off_c, 5, 48, 64
7, 1512540, Note_on_c, 5, 62, 63
7, 1512940, Note_off_c, 5, 62, 64
7, 1513020, Note_on_c, 5, 62, 71
7, 1513100, Note_off_c, 5, 62, 64
7, 1513260, Note_on_c, 5, 48, 75
7, 1513980, Note_off_c, 5, 48, 64
7, 1513980, Note_on_c, 5, 48, 75
7, 1514215, Note_off_c, 5, 48, 64
7, 1514460, Note_on_c, 5, 48, 75
7, 1514540, Note_off_c, 5, 48, 64
7, 1514700, Note_on_c, 5, 57, 75
7, 1515420, Note_off_c, 5, 57, 64
7, 1515420, Note_on_c, 5, 57, 75
7, 1515655, Note_off_c, 5, 57, 64
7, 1515900, Note_on_c, 5, 57, 75
7, 1515980, Note_off_c, 5, 57, 64
7, 1516140, Note_on_c, 5, 64, 45
7, 1516375, Note_off_c, 5, 64, 64
7, 1522620, Note_on_c, 5, 48, 45
7, 1527660, Note_off_c, 5, 48, 64
7, 1527660, Note_on_c, 5, 53, 45
7, 1528060, Note_off_c, 5, 53, 64
7, 1537020, Note_on_c, 5, 48, 45
7, 1537740, Note_off_c, 5, 48, 64
7, 1537740, Note_on_c, 5, 53, 45
7, 1539060, Note_off_c, 5, 53, 64
7, 1539180, Note_on_c, 5, 65, 45
7, 1539415, Note_off_c, 5, 65, 64
7, 1539420, Note_on_c, 5, 65, 45
7, 1539655, Note_off_c, 5, 65, 64
7, 1539660, Note_on_c, 5, 65, 45
7, 1539895, Note_off_c, 5, 65, 64
7, 1539900, Note_on_c, 5, 65, 45
7, 1540135, Note_off_c, 5, 65, 64
7, 1540140, Note_on_c, 5, 65, 45
7, 1540375, Note_off_c, 5, 65, 64
7, 1540380, Note_on_c, 5, 65, 45
7, 1540615, Note_off_c, 5, 65, 64
7, 1540620, Note_on_c, 5, 65, 46
7, 1540855, Note_off_c, 5, 65, 64
7, 1540860, Note_on_c, 5, 65, 46
7, 1541095, Note_off_c, 5, 65, 64
7, 1541100, Note_on_c, 5, 65, 47
7, 1541335, Note_off_c, 5, 65, 64
7, 1541340, Note_on_c, 5, 65, 48
7, 1541575, Note_off_c, 5, 65, 64
7, 1541580, Note_on_c, 5, 65, 49
7, 1541815, Note_off_c, 5, 65, 64
7, 1541820, Note_on_c, 5, 65, 50
7, 1542055, Note_off_c, 5, 65, 64
7, 1542060, Note_on_c, 5, 65, 51
7, 1542295, Note_off_c, 5, 65, 64
7, 1542300, Note_on_c, 5, 65, 52
7, 1542535, Note_off_c, 5, 65, 64
7, 1542540, Note_on_c, 5, 65, 53
7, 1542775, Note_off_c, 5, 65, 64
7, 1542780, Note_on_c, 5, 65, 54
7, 1543015, Note_off_c, 5, 65, 64
7, 1543020, Note_on_c, 5, 65, 55
7, 1543255, Note_off_c, 5, 65, 64
7, 1543260, Note_on_c, 5, 65, 56
7, 1543495, Note_off_c, 5, 65, 64
7, 1543500, Note_on_c, 5, 65, 57
7, 1543735, Note_off_c, 5, 65, 64
7, 1543740, Note_on_c, 5, 65, 58
7, 1543975, Note_off_c, 5, 65, 64
7, 1543980, Note_on_c, 5, 65, 59
7, 1544215, Note_off_c, 5, 65, 64
7, 1544220, Note_on_c, 5, 65, 60
7, 1544455, Note_off_c, 5, 65, 64
7, 1544460, Note_on_c, 5, 65, 61
7, 1544695, Note_off_c, 5, 65, 64
7, 1544700, Note_on_c, 5, 65, 62
7, 1544935, Note_off_c, 5, 65, 64
7, 1544940, Note_on_c, 5, 65, 63
7, 1545175, Note_off_c, 5, 65, 64
7, 1545180, Note_on_c, 5, 65, 64
7, 1545415, Note_off_c, 5, 65, 64
7, 1545420, Note_on_c, 5, 65, 65
7, 1545655, Note_off_c, 5, 65, 64
7, 1545660, Note_on_c, 5, 65, 66
7, 1545895, Note_off_c, 5, 65, 64
7, 1545900, Note_on_c, 5, 65, 67
7, 1546135, Note_off_c, 5, 65, 64
7, 1546140, Note_on_c, 5, 65, 68
7, 1546375, Note_off_c, 5, 65, 64
7, 1546380, Note_on_c, 5, 65, 69
7, 1546615, Note_off_c, 5, 65, 64
7, 1546620, Note_on_c, 5, 65, 70
7, 1546855, Note_off_c, 5, 65, 64
7, 1546860, Note_on_c, 5, 65, 71
7, 1547095, Note_off_c, 5, 65, 64
7, 1547100, Note_on_c, 5, 65, 72
7, 1547335, Note_off_c, 5, 65, 64
7, 1547340, Note_on_c, 5, 65, 73
7, 1547575, Note_off_c, 5, 65, 64
7, 1547580, Note_on_c, 5, 53, 75
7, 1547815, Note_off_c, 5, 53, 64
7, 1547820, Note_on_c, 5, 53, 75
7, 1548220, Note_off_c, 5, 53, 64
7, 1548300, Note_on_c, 5, 53, 75
7, 1548535, Note_off_c, 5, 53, 64
7, 1548540, Note_on_c, 5, 53, 75
7, 1548940, Note_off_c, 5, 53, 64
7, 1549020, Note_on_c, 5, 53, 75
7, 1549255, Note_off_c, 5, 53, 64
7, 1549260, Note_on_c, 5, 53, 75
7, 1549660, Note_off_c, 5, 53, 64
7, 1549740, Note_on_c, 5, 53, 75
7, 1549975, Note_off_c, 5, 53, 64
7, 1549980, Note_on_c, 5, 53, 75
7, 1550380, Note_off_c, 5, 53, 64
7, 1550460, Note_on_c, 5, 53, 75
7, 1550695, Note_off_c, 5, 53, 64
7, 1550700, Note_on_c, 5, 53, 75
7, 1551100, Note_off_c, 5, 53, 64
7, 1553340, Note_on_c, 5, 53, 75
7, 1553575, Note_off_c, 5, 53, 64
7, 1553580, Note_on_c, 5, 53, 75
7, 1553980, Note_off_c, 5, 53, 64
7, 1556220, Note_on_c, 5, 53, 75
7, 1556455, Note_off_c, 5, 53, 64
7, 1556460, Note_on_c, 5, 53, 75
7, 1556695, Note_off_c, 5, 53, 64
7, 1557180, Note_on_c, 5, 53, 75
7, 1557580, Note_off_c, 5, 53, 64
7, 1557660, Note_on_c, 5, 53, 75
7, 1557895, Note_off_c, 5, 53, 64
7, 1557900, Note_on_c, 5, 53, 75
7, 1558300, Note_off_c, 5, 53, 64
7, 1558380, Note_on_c, 5, 53, 75
7, 1558615, Note_off_c, 5, 53, 64
7, 1558620, Note_on_c, 5, 53, 75
7, 1559020, Note_off_c, 5, 53, 64
7, 1559100, Note_on_c, 5, 53, 75
7, 1559340, Note_off_c, 5, 53, 64
7, 1559340, Note_on_c, 5, 53, 75
7, 1559740, Note_off_c, 5, 53, 64
7, 1560540, Note_on_c, 5, 65, 75
7, 1560780, Note_off_c, 5, 65, 64
7, 1560780, Note_on_c, 5, 67, 75
7, 1561180, Note_off_c, 5, 67, 64
7, 1561980, Note_on_c, 5, 67, 75
7, 1562220, Note_off_c, 5, 67, 64
7, 1562220, Note_on_c, 5, 65, 75
7, 1562620, Note_off_c, 5, 65, 64
7, 1563420, Note_on_c, 5, 65, 75
7, 1563660, Note_off_c, 5, 65, 64
7, 1563660, Note_on_c, 5, 53, 75
7, 1564060, Note_off_c, 5, 53, 64
7, 1564860, Note_on_c, 5, 53, 75
7, 1565100, Note_off_c, 5, 53, 64
7, 1565100, Note_on_c, 5, 53, 75
7, 1565500, Note_off_c, 5, 53, 64
7, 1566300, Note_on_c, 5, 65, 75
7, 1566540, Note_off_c, 5, 65, 64
7, 1566540, Note_on_c, 5, 67, 75
7, 1566940, Note_off_c, 5, 67, 64
7, 1567740, Note_on_c, 5, 67, 75
7, 1567980, Note_off_c, 5, 67, 64
7, 1567980, Note_on_c, 5, 65, 75
7, 1568380, Note_off_c, 5, 65, 64
7, 1569180, Note_on_c, 5, 65, 75
7, 1569420, Note_off_c, 5, 65, 64
7, 1569420, Note_on_c, 5, 64, 60
7, 1570860, Note_off_c, 5, 64, 64
7, 1570860, Note_on_c, 5, 53, 60
7, 1571260, Note_off_c, 5, 53, 64
7, 1577340, Note_on_c, 5, 59, 45
7, 1577980, Note_off_c, 5, 59, 64
7, 1578060, Note_on_c, 5, 64, 45
7, 1579500, Note_off_c, 5, 64, 64
7, 1579500, Note_on_c, 5, 62, 45
7, 1580140, Note_off_c, 5, 62, 64
7, 1580700, Note_on_c, 5, 55, 75
7, 1580935, Note_off_c, 5, 55, 64
7, 1580940, Note_on_c, 5, 59, 75
7, 1581660, Note_off_c, 5, 59, 64
7, 1581660, Note_on_c, 5, 59, 75
7, 1581895, Note_off_c, 5, 59, 64
7, 1582140, Note_on_c, 5, 59, 75
7, 1582375, Note_off_c, 5, 59, 64
7, 1582380, Note_on_c, 5, 60, 75
7, 1583100, Note_off_c, 5, 60, 64
7, 1583100, Note_on_c, 5, 60, 75
7, 1583335, Note_off_c, 5, 60, 64
7, 1583580, Note_on_c, 5, 60, 75
7, 1583815, Note_off_c, 5, 60, 64
7, 1583820, Note_on_c, 5, 64, 45
7, 1585260, Note_off_c, 5, 64, 64
7, 1585260, Note_on_c, 5, 62, 45
7, 1586380, Note_off_c, 5, 62, 64
7, 1586460, Note_on_c, 5, 55, 60
7, 1586695, Note_off_c, 5, 55, 64
7, 1586700, Note_on_c, 5, 59, 60
7, 1587420, Note_off_c, 5, 59, 64
7, 1587420, Note_on_c, 5, 59, 63
7, 1587655, Note_off_c, 5, 59, 64
7, 1587900, Note_on_c, 5, 59, 65
7, 1588135, Note_off_c, 5, 59, 64
7, 1588140, Note_on_c, 5, 60, 66
7, 1588860, Note_off_c, 5, 60, 64
7, 1588860, Note_on_c, 5, 60, 70
7, 1589095, Note_off_c, 5, 60, 64
7, 1589340, Note_on_c, 5, 60, 73
7, 1589575, Note_off_c, 5, 60, 64
7, 1589580, Note_on_c, 5, 60, 75
7, 1590300, Note_off_c, 5, 60, 64
7, 1590300, Note_on_c, 5, 60, 75
7, 1590535, Note_off_c, 5, 60, 64
7, 1590780, Note_on_c, 5, 60, 75
7, 1591015, Note_off_c, 5, 60, 64
7, 1591020, Note_on_c, 5, 60, 75
7, 1591975, Note_off_c, 5, 60, 64
7, 1592220, Note_on_c, 5, 60, 75
7, 1592455, Note_off_c, 5, 60, 64
7, 1592460, Note_on_c, 5, 60, 45
7, 1595220, Note_off_c, 5, 60, 64
7, 1595340, Note_on_c, 5, 60, 45
7, 1598100, Note_off_c, 5, 60, 64
7, 1598220, Note_on_c, 5, 60, 30
7, 1600980, Note_off_c, 5, 60, 64
7, 1601100, Note_on_c, 5, 60, 30
7, 1603860, Note_off_c, 5, 60, 64
7, 1603980, Note_on_c, 5, 53, 45
7, 1604380, Note_off_c, 5, 53, 64
7, 1613340, Note_on_c, 5, 48, 45
7, 1613740, Note_off_c, 5, 48, 64
7, 1613820, Note_on_c, 5, 48, 45
7, 1614055, Note_off_c, 5, 48, 64
7, 1614060, Note_on_c, 5, 53, 45
7, 1615180, Note_off_c, 5, 53, 64
7, 1615260, Note_on_c, 5, 65, 45
7, 1615495, Note_off_c, 5, 65, 64
7, 1615500, Note_on_c, 5, 65, 45
7, 1615735, Note_off_c, 5, 65, 64
7, 1615740, Note_on_c, 5, 65, 45
7, 1615975, Note_off_c, 5, 65, 64
7, 1615980, Note_on_c, 5, 65, 45
7, 1616215, Note_off_c, 5, 65, 64
7, 1616220, Note_on_c, 5, 65, 46
7, 1616455, Note_off_c, 5, 65, 64
7, 1616460, Note_on_c, 5, 65, 47
7, 1616695, Note_off_c, 5, 65, 64
7, 1616700, Note_on_c, 5, 65, 48
7, 1616935, Note_off_c, 5, 65, 64
7, 1616940, Note_on_c, 5, 65, 49
7, 1617175, Note_off_c, 5, 65, 64
7, 1617180, Note_on_c, 5, 65, 50
7, 1617415, Note_off_c, 5, 65, 64
7, 1617420, Note_on_c, 5, 65, 51
7, 1617655, Note_off_c, 5, 65, 64
7, 1617660, Note_on_c, 5, 65, 52
7, 1617895, Note_off_c, 5, 65, 64
7, 1617900, Note_on_c, 5, 65, 53
7, 1618135, Note_off_c, 5, 65, 64
7, 1618140, Note_on_c, 5, 65, 54
7, 1618375, Note_off_c, 5, 65, 64
7, 1618380, Note_on_c, 5, 65, 55
7, 1618615, Note_off_c, 5, 65, 64
7, 1618620, Note_on_c, 5, 65, 56
7, 1618855, Note_off_c, 5, 65, 64
7, 1618860, Note_on_c, 5, 65, 57
7, 1619095, Note_off_c, 5, 65, 64
7, 1619100, Note_on_c, 5, 65, 58
7, 1619335, Note_off_c, 5, 65, 64
7, 1619340, Note_on_c, 5, 65, 59
7, 1619575, Note_off_c, 5, 65, 64
7, 1619580, Note_on_c, 5, 65, 60
7, 1619815, Note_off_c, 5, 65, 64
7, 1619820, Note_on_c, 5, 65, 61
7, 1620055, Note_off_c, 5, 65, 64
7, 1620060, Note_on_c, 5, 65, 62
7, 1620295, Note_off_c, 5, 65, 64
7, 1620300, Note_on_c, 5, 65, 63
7, 1620535, Note_off_c, 5, 65, 64
7, 1620540, Note_on_c, 5, 65, 64
7, 1620775, Note_off_c, 5, 65, 64
7, 1620780, Note_on_c, 5, 65, 65
7, 1621015, Note_off_c, 5, 65, 64
7, 1621020, Note_on_c, 5, 67, 66
7, 1621255, Note_off_c, 5, 67, 64
7, 1621260, Note_on_c, 5, 67, 67
7, 1621495, Note_off_c, 5, 67, 64
7, 1621500, Note_on_c, 5, 67, 68
7, 1621735, Note_off_c, 5, 67, 64
7, 1621740, Note_on_c, 5, 67, 69
7, 1621975, Note_off_c, 5, 67, 64
7, 1621980, Note_on_c, 5, 67, 70
7, 1622215, Note_off_c, 5, 67, 64
7, 1622220, Note_on_c, 5, 67, 71
7, 1622455, Note_off_c, 5, 67, 64
7, 1622460, Note_on_c, 5, 67, 72
7, 1622695, Note_off_c, 5, 67, 64
7, 1622700, Note_on_c, 5, 65, 73
7, 1622935, Note_off_c, 5, 65, 64
7, 1622940, Note_on_c, 5, 65, 74
7, 1623175, Note_off_c, 5, 65, 64
7, 1623180, Note_on_c, 5, 65, 75
7, 1623415, Note_off_c, 5, 65, 64
7, 1623420, Note_on_c, 5, 65, 76
7, 1623655, Note_off_c, 5, 65, 64
7, 1623660, Note_on_c, 5, 65, 77
7, 1623895, Note_off_c, 5, 65, 64
7, 1623900, Note_on_c, 5, 65, 78
7, 1624135, Note_off_c, 5, 65, 64
7, 1624140, Note_on_c, 5, 65, 79
7, 1624375, Note_off_c, 5, 65, 64
7, 1624380, Note_on_c, 5, 65, 80
7, 1624615, Note_off_c, 5, 65, 64
7, 1624620, Note_on_c, 5, 65, 81
7, 1624855, Note_off_c, 5, 65, 64
7, 1624860, Note_on_c, 5, 60, 82
7, 1625095, Note_off_c, 5, 60, 64
7, 1625100, Note_on_c, 5, 60, 83
7, 1625335, Note_off_c, 5, 60, 64
7, 1625340, Note_on_c, 5, 60, 84
7, 1625575, Note_off_c, 5, 60, 64
7, 1625580, Note_on_c, 5, 65, 85
7, 1625815, Note_off_c, 5, 65, 64
7, 1625820, Note_on_c, 5, 65, 86
7, 1626055, Note_off_c, 5, 65, 64
7, 1626060, Note_on_c, 5, 65, 87
7, 1626295, Note_off_c, 5, 65, 64
7, 1626300, Note_on_c, 5, 65, 88
7, 1626535, Note_off_c, 5, 65, 64
7, 1626540, Note_on_c, 5, 65, 89
7, 1626775, Note_off_c, 5, 65, 64
7, 1626780, Note_on_c, 5, 65, 90
7, 1627015, Note_off_c, 5, 65, 64
7, 1627020, Note_on_c, 5, 57, 92
7, 1627420, Note_off_c, 5, 57, 64
7, 1627500, Note_on_c, 5, 57, 92
7, 1627735, Note_off_c, 5, 57, 64
7, 1627740, Note_on_c, 5, 57, 92
7, 1627975, Note_off_c, 5, 57, 64
7, 1627980, Note_on_c, 5, 53, 92
7, 1628215, Note_off_c, 5, 53, 64
7, 1628220, Note_on_c, 5, 60, 92
7, 1628455, Note_off_c, 5, 60, 64
7, 1628940, Note_on_c, 5, 57, 92
7, 1629175, Note_off_c, 5, 57, 64
7, 1629180, Note_on_c, 5, 57, 92
7, 1629415, Note_off_c, 5, 57, 64
7, 1629420, Note_on_c, 5, 48, 92
7, 1629655, Note_off_c, 5, 48, 64
7, 1629660, Note_on_c, 5, 53, 92
7, 1629895, Note_off_c, 5, 53, 64
7, 1630380, Note_on_c, 5, 57, 92
7, 1630615, Note_off_c, 5, 57, 64
7, 1630620, Note_on_c, 5, 57, 92
7, 1630855, Note_off_c, 5, 57, 64
7, 1630860, Note_on_c, 5, 53, 92
7, 1631095, Note_off_c, 5, 53, 64
7, 1631100, Note_on_c, 5, 60, 92
7, 1631335, Note_off_c, 5, 60, 64
7, 1631820, Note_on_c, 5, 65, 92
7, 1632055, Note_off_c, 5, 65, 64
7, 1632060, Note_on_c, 5, 65, 92
7, 1632295, Note_off_c, 5, 65, 64
7, 1632300, Note_on_c, 5, 53, 92
7, 1632535, Note_off_c, 5, 53, 64
7, 1632540, Note_on_c, 5, 48, 92
7, 1632775, Note_off_c, 5, 48, 64
7, 1633260, Note_on_c, 5, 67, 92
7, 1633495, Note_off_c, 5, 67, 64
7, 1633500, Note_on_c, 5, 67, 92
7, 1633735, Note_off_c, 5, 67, 64
7, 1633740, Note_on_c, 5, 60, 92
7, 1633975, Note_off_c, 5, 60, 64
7, 1633980, Note_on_c, 5, 60, 92
7, 1634215, Note_off_c, 5, 60, 64
7, 1634700, Note_on_c, 5, 65, 92
7, 1634935, Note_off_c, 5, 65, 64
7, 1634940, Note_on_c, 5, 65, 92
7, 1635175, Note_off_c, 5, 65, 64
7, 1635180, Note_on_c, 5, 57, 92
7, 1635415, Note_off_c, 5, 57, 64
7, 1635420, Note_on_c, 5, 65, 92
7, 1635655, Note_off_c, 5, 65, 64
7, 1636140, Note_on_c, 5, 65, 92
7, 1636375, Note_off_c, 5, 65, 64
7, 1636380, Note_on_c, 5, 60, 92
7, 1636615, Note_off_c, 5, 60, 64
7, 1636620, Note_on_c, 5, 60, 92
7, 1636855, Note_off_c, 5, 60, 64
7, 1636860, Note_on_c, 5, 60, 92
7, 1637095, Note_off_c, 5, 60, 64
7, 1637100, Note_on_c, 5, 57, 75
7, 1637335, Note_off_c, 5, 57, 64
7, 1639740, Note_on_c, 5, 48, 75
7, 1639975, Note_off_c, 5, 48, 64
7, 1639980, Note_on_c, 5, 48, 75
7, 1642060, Note_off_c, 5, 48, 64
7, 1642140, Note_on_c, 5, 48, 75
7, 1642540, Note_off_c, 5, 48, 64
7, 1642620, Note_on_c, 5, 48, 75
7, 1642855, Note_off_c, 5, 48, 64
7, 1646460, Note_on_c, 5, 65, 75
7, 1646860, Note_off_c, 5, 65, 64
7, 1646940, Note_on_c, 5, 65, 75
7, 1647175, Note_off_c, 5, 65, 64
7, 1647180, Note_on_c, 5, 64, 75
7, 1647820, Note_off_c, 5, 64, 64
7, 1647900, Note_on_c, 5, 65, 75
7, 1648300, Note_off_c, 5, 65, 64
7, 1648380, Note_on_c, 5, 59, 60
7, 1648615, Note_off_c, 5, 59, 64
7, 1648620, Note_on_c, 5, 60, 60
7, 1649260, Note_off_c, 5, 60, 64
7, 1649340, Note_on_c, 5, 48, 60
7, 1649980, Note_off_c, 5, 48, 64
7, 1650060, Note_on_c, 5, 48, 60
7, 1650700, Note_off_c, 5, 48, 64
7, 1650780, Note_on_c, 5, 53, 60
7, 1651180, Note_off_c, 5, 53, 64
7, 1651260, Note_on_c, 5, 53, 60
7, 1651495, Note_off_c, 5, 53, 64
7, 1651500, Note_on_c, 5, 48, 60
7, 1652620, Note_off_c, 5, 48, 64
7, 1652700, Note_on_c, 5, 48, 60
7, 1652780, Note_off_c, 5, 48, 64
7, 1652820, Note_on_c, 5, 48, 60
7, 1652900, Note_off_c, 5, 48, 64
7, 1652940, Note_on_c, 5, 48, 60
7, 1653340, Note_off_c, 5, 48, 64
7, 1653420, Note_on_c, 5, 48, 60
7, 1653655, Note_off_c, 5, 48, 64
7, 1653660, Note_on_c, 5, 48, 60
7, 1654060, Note_off_c, 5, 48, 64
7, 1654140, Note_on_c, 5, 48, 60
7, 1654375, Note_off_c, 5, 48, 64
7, 1654380, Note_on_c, 5, 48, 60
7, 1655500, Note_off_c, 5, 48, 64
7, 1655580, Note_on_c, 5, 48, 60
7, 1655660, Note_off_c, 5, 48, 64
7, 1655700, Note_on_c, 5, 48, 60
7, 1655780, Note_off_c, 5, 48, 64
7, 1655820, Note_on_c, 5, 48, 60
7, 1656220, Note_off_c, 5, 48, 64
7, 1656300, Note_on_c, 5, 48, 60
7, 1656535, Note_off_c, 5, 48, 64
7, 1656540, Note_on_c, 5, 48, 60
7, 1656940, Note_off_c, 5, 48, 64
7, 1657020, Note_on_c, 5, 48, 60
7, 1657255, Note_off_c, 5, 48, 64
7, 1657260, Note_on_c, 5, 48, 60
7, 1657660, Note_off_c, 5, 48, 64
7, 1657740, Note_on_c, 5, 48, 60
7, 1657975, Note_off_c, 5, 48, 64
7, 1657980, Note_on_c, 5, 48, 60
7, 1658380, Note_off_c, 5, 48, 64
7, 1658460, Note_on_c, 5, 48, 60
7, 1658540, Note_off_c, 5, 48, 64
7, 1658580, Note_on_c, 5, 48, 60
7, 1658660, Note_off_c, 5, 48, 64
7, 1658700, Note_on_c, 5, 48, 60
7, 1659100, Note_off_c, 5, 48, 64
7, 1659180, Note_on_c, 5, 48, 60
7, 1659415, Note_off_c, 5, 48, 64
7, 1659420, Note_on_c, 5, 48, 60
7, 1659820, Note_off_c, 5, 48, 64
7, 1659900, Note_on_c, 5, 48, 60
7, 1660135, Note_off_c, 5, 48, 64
7, 1660140, Note_on_c, 5, 48, 60
7, 1660540, Note_off_c, 5, 48, 64
7, 1660620, Note_on_c, 5, 48, 60
7, 1660855, Note_off_c, 5, 48, 64
7, 1660860, Note_on_c, 5, 48, 60
7, 1661260, Note_off_c, 5, 48, 64
7, 1661340, Note_on_c, 5, 48, 60
7, 1661455, Note_off_c, 5, 48, 64
7, 1661460, Note_on_c, 5, 48, 60
7, 1661575, Note_off_c, 5, 48, 64
7, 1661580, Note_on_c, 5, 48, 60
7, 1661980, Note_off_c, 5, 48, 64
7, 1662060, Note_on_c, 5, 48, 60
7, 1662295, Note_off_c, 5, 48, 64
7, 1662300, Note_on_c, 5, 48, 60
7, 1662700, Note_off_c, 5, 48, 64
7, 1662780, Note_on_c, 5, 48, 60
7, 1663015, Note_off_c, 5, 48, 64
7, 1663020, Note_on_c, 5, 53, 60
7, 1663420, Note_off_c, 5, 53, 64
7, 1664940, Note_on_c, 5, 53, 60
7, 1665180, Note_off_c, 5, 53, 64
7, 1665180, Note_on_c, 5, 48, 60
7, 1665580, Note_off_c, 5, 48, 64
7, 1665660, Note_on_c, 5, 48, 60
7, 1665900, Note_off_c, 5, 48, 64
7, 1665900, Note_on_c, 5, 53, 60
7, 1666300, Note_off_c, 5, 53, 64
7, 1666380, Note_on_c, 5, 53, 45
7, 1667575, Note_off_c, 5, 53, 64
7, 1667580, Note_on_c, 5, 48, 50
7, 1667815, Note_off_c, 5, 48, 64
7, 1667820, Note_on_c, 5, 48, 55
7, 1668055, Note_off_c, 5, 48, 64
7, 1668060, Note_on_c, 5, 48, 60
7, 1668460, Note_off_c, 5, 48, 64
7, 1668540, Note_on_c, 5, 48, 70
7, 1668620, Note_off_c, 5, 48, 64
7, 1668780, Note_on_c, 5, 53, 75
7, 1669420, Note_off_c, 5, 53, 64
7, 1669500, Note_on_c, 5, 53, 75
7, 1669735, Note_off_c, 5, 53, 64
7, 1669980, Note_on_c, 5, 53, 75
7, 1670215, Note_off_c, 5, 53, 64
7, 1670220, Note_on_c, 5, 62, 75
7, 1670860, Note_off_c, 5, 62, 64
7, 1670940, Note_on_c, 5, 62, 75
7, 1671175, Note_off_c, 5, 62, 64
7, 1671420, Note_on_c, 5, 62, 75
7, 1671655, Note_off_c, 5, 62, 64
7, 1671660, Note_on_c, 5, 48, 60
7, 1671895, Note_off_c, 5, 48, 64
7, 1684620, Note_on_c, 5, 48, 45
7, 1685020, Note_off_c, 5, 48, 64
7, 1685340, Note_on_c, 5, 48, 45
7, 1685740, Note_off_c, 5, 48, 64
7, 1686060, Note_on_c, 5, 48, 55
7, 1686460, Note_off_c, 5, 48, 64
7, 1686780, Note_on_c, 5, 48, 67
7, 1687015, Note_off_c, 5, 48, 64
7, 1687260, Note_on_c, 5, 48, 75
7, 1688620, Note_off_c, 5, 48, 64
7, 1688700, Note_on_c, 5, 48, 75
7, 1689340, Note_off_c, 5, 48, 64
7, 1689420, Note_on_c, 5, 48, 75
7, 1690060, Note_off_c, 5, 48, 64
7, 1690140, Note_on_c, 5, 48, 75
7, 1690375, Note_off_c, 5, 48, 64
7, 1690380, Note_on_c, 5, 53, 75
7, 1690615, Note_off_c, 5, 53, 64
7, 1708140, Note_on_c, 5, 60, 60
7, 1708375, Note_off_c, 5, 60, 64
7, 1708380, Note_on_c, 5, 60, 63
7, 1708615, Note_off_c, 5, 60, 64
7, 1708620, Note_on_c, 5, 60, 66
7, 1708855, Note_off_c, 5, 60, 64
7, 1708860, Note_on_c, 5, 60, 69
7, 1709095, Note_off_c, 5, 60, 64
7, 1709100, Note_on_c, 5, 60, 72
7, 1709335, Note_off_c, 5, 60, 64
7, 1709340, Note_on_c, 5, 57, 75
7, 1711900, Note_off_c, 5, 57, 64
7, 1711980, Note_on_c, 5, 57, 75
7, 1712215, Note_off_c, 5, 57, 64
7, 1712220, Note_on_c, 5, 57, 75
7, 1714780, Note_off_c, 5, 57, 64
7, 1714860, Note_on_c, 5, 53, 75
7, 1715095, Note_off_c, 5, 53, 64
7, 1715100, Note_on_c, 5, 55, 75
7, 1717660, Note_off_c, 5, 55, 64
7, 1717740, Note_on_c, 5, 55, 60
7, 1717975, Note_off_c, 5, 55, 64
7, 1723740, Note_on_c, 5, 48, 60
7, 1726300, Note_off_c, 5, 48, 64
7, 1726380, Note_on_c, 5, 48, 66
7, 1726460, Note_off_c, 5, 48, 64
7, 1726500, Note_on_c, 5, 48, 66
7, 1726580, Note_off_c, 5, 48, 64
7, 1726620, Note_on_c, 5, 48, 66
7, 1726855, Note_off_c, 5, 48, 64
7, 1727100, Note_on_c, 5, 48, 66
7, 1727180, Note_off_c, 5, 48, 64
7, 1727220, Note_on_c, 5, 48, 66
7, 1727300, Note_off_c, 5, 48, 64
7, 1727340, Note_on_c, 5, 48, 66
7, 1727575, Note_off_c, 5, 48, 64
7, 1727820, Note_on_c, 5, 48, 68
7, 1727900, Note_off_c, 5, 48, 64
7, 1727940, Note_on_c, 5, 48, 68
7, 1728020, Note_off_c, 5, 48, 64
7, 1728060, Note_on_c, 5, 48, 68
7, 1728295, Note_off_c, 5, 48, 64
7, 1728540, Note_on_c, 5, 48, 70
7, 1728620, Note_off_c, 5, 48, 64
7, 1728660, Note_on_c, 5, 48, 70
7, 1728740, Note_off_c, 5, 48, 64
7, 1728780, Note_on_c, 5, 48, 71
7, 1729015, Note_off_c, 5, 48, 64
7, 1729260, Note_on_c, 5, 48, 75
7, 1730620, Note_off_c, 5, 48, 64
7, 1730700, Note_on_c, 5, 48, 75
7, 1731340, Note_off_c, 5, 48, 64
7, 1731420, Note_on_c, 5, 48, 75
7, 1732060, Note_off_c, 5, 48, 64
7, 1732140, Note_on_c, 5, 48, 75
7, 1732380, Note_off_c, 5, 48, 64
7, 1732380, Note_on_c, 5, 53, 75
7, 1732780, Note_off_c, 5, 53, 64
7, 1750140, Note_on_c, 5, 48, 75
7, 1750375, Note_off_c, 5, 48, 64
7, 1750380, Note_on_c, 5, 60, 75
7, 1750780, Note_off_c, 5, 60, 64
7, 1750860, Note_on_c, 5, 60, 75
7, 1751095, Note_off_c, 5, 60, 64
7, 1751100, Note_on_c, 5, 57, 75
7, 1753660, Note_off_c, 5, 57, 64
7, 1753740, Note_on_c, 5, 57, 75
7, 1753975, Note_off_c, 5, 57, 64
7, 1753980, Note_on_c, 5, 53, 75
7, 1756540, Note_off_c, 5, 53, 64
7, 1756620, Note_on_c, 5, 65, 75
7, 1756855, Note_off_c, 5, 65, 64
7, 1756860, Note_on_c, 5, 65, 75
7, 1759420, Note_off_c, 5, 65, 64
7, 1759500, Note_on_c, 5, 65, 75
7, 1759735, Note_off_c, 5, 65, 64
7, 1759740, Note_on_c, 5, 60, 75
7, 1762300, Note_off_c, 5, 60, 64
7, 1762380, Note_on_c, 5, 60, 75
7, 1762615, Note_off_c, 5, 60, 64
7, 1762620, Note_on_c, 5, 57, 75
7, 1765380, Note_off_c, 5, 57, 64
7, 1765500, Note_on_c, 5, 53, 75
7, 1766220, Note_off_c, 5, 53, 64
7, 1766220, Note_on_c, 5, 53, 75
7, 1766940, Note_off_c, 5, 53, 64
7, 1766940, Note_on_c, 5, 53, 75
7, 1767660, Note_off_c, 5, 53, 64
7, 1767660, Note_on_c, 5, 53, 75
7, 1768300, Note_off_c, 5, 53, 64
7, 1768380, Note_on_c, 5, 48, 60
7, 1769100, Note_off_c, 5, 48, 64
7, 1769100, Note_on_c, 5, 48, 60
7, 1769820, Note_off_c, 5, 48, 64
7, 1769820, Note_on_c, 5, 48, 55
7, 1770540, Note_off_c, 5, 48, 64
7, 1770540, Note_on_c, 5, 48, 50
7, 1771260, Note_off_c, 5, 48, 64
7, 1771260, Note_on_c, 5, 48, 45
7, 1777020, Note_off_c, 5, 48, 64
7, 1777020, Note_on_c, 5, 53, 30
7, 1777420, Note_off_c, 5, 53, 64
7, 1789320, Note_on_c, 5, 53, 75
7, 1790040, Note_off_c, 5, 53, 64
7, 1790040, Note_on_c, 5, 53, 75
7, 1790275, Note_off_c, 5, 53, 64
7, 1790520, Note_on_c, 5, 53, 75
7, 1790755, Note_off_c, 5, 53, 64
7, 1790760, Note_on_c, 5, 53, 75
7, 1791880, Note_off_c, 5, 53, 64
7, 1792080, Note_on_c, 5, 65, 45
7, 1792320, Note_off_c, 5, 65, 64
7, 1792320, Note_on_c, 5, 60, 45
7, 1793760, Note_off_c, 5, 60, 64
7, 1793760, Note_on_c, 5, 65, 45
7, 1794400, Note_off_c, 5, 65, 64
7, 1798080, Note_on_c, 5, 53, 45
7, 1798320, Note_off_c, 5, 53, 64
7, 1798320, Note_on_c, 5, 48, 45
7, 1799520, Note_off_c, 5, 48, 64
7, 1799520, Note_on_c, 5, 48, 45
7, 1799760, Note_off_c, 5, 48, 64
7, 1799760, Note_on_c, 5, 53, 45
7, 1800400, Note_off_c, 5, 53, 64
7, 1801080, Note_on_c, 5, 53, 30
7, 1801320, Note_off_c, 5, 53, 64
7, 1801320, Note_on_c, 5, 48, 36
7, 1802440, Note_off_c, 5, 48, 64
7, 1802520, Note_on_c, 5, 48, 68
7, 1802755, Note_off_c, 5, 48, 64
7, 1802760, Note_on_c, 5, 60, 75
7, 1805640, Note_off_c, 5, 60, 64
7, 1805640, Note_on_c, 5, 60, 60
7, 1807080, Note_off_c, 5, 60, 64
7, 1807080, Note_on_c, 5, 60, 45
7, 1808400, Note_off_c, 5, 60, 64
7, 1808520, Note_on_c, 5, 57, 45
7, 1808920, Note_off_c, 5, 57, 64
7, 1817040, Note_on_c, 5, 53, 75
7, 1817275, Note_off_c, 5, 53, 64
7, 1817280, Note_on_c, 5, 53, 75
7, 1818040, Note_off_c, 5, 53, 64
7, 1818040, End_track
8, 0, Start_track
8, 0, MIDI_port, 0
8, 0, Channel_prefix, 6
8, 0, Control_c, 6, 7, 127
8, 0, Control_c, 6, 10, 64
8, 0, Control_c, 6, 91, 95
8, 0, Program_c, 6, 56
8, 748080, Note_on_c, 6, 60, 92
8, 748080, Note_on_c, 6, 72, 92
8, 748920, Note_off_c, 6, 72, 64
8, 748920, Note_off_c, 6, 60, 64
8, 749040, Note_on_c, 6, 60, 92
8, 749040, Note_on_c, 6, 72, 92
8, 749880, Note_off_c, 6, 72, 64
8, 749880, Note_off_c, 6, 60, 64
8, 750000, Note_on_c, 6, 60, 92
8, 750000, Note_on_c, 6, 72, 92
8, 750840, Note_off_c, 6, 72, 64
8, 750840, Note_off_c, 6, 60, 64
8, 750960, Note_on_c, 6, 60, 92
8, 750960, Note_on_c, 6, 72, 92
8, 751360, Note_off_c, 6, 72, 64
8, 751360, Note_off_c, 6, 60, 64
8, 751440, Note_on_c, 6, 60, 92
8, 751440, Note_on_c, 6, 72, 92
8, 751840, Note_off_c, 6, 72, 64
8, 751840, Note_off_c, 6, 60, 64
8, 751920, Note_on_c, 6, 60, 92
8, 751920, Note_on_c, 6, 72, 92
8, 752760, Note_off_c, 6, 72, 64
8, 752760, Note_off_c, 6, 60, 64
8, 752880, Note_on_c, 6, 60, 92
8, 752880, Note_on_c, 6, 72, 92
8, 753720, Note_off_c, 6, 72, 64
8, 753720, Note_off_c, 6, 60, 64
8, 753840, Note_on_c, 6, 60, 92
8, 753840, Note_on_c, 6, 72, 92
8, 754680, Note_off_c, 6, 72, 64
8, 754680, Note_off_c, 6, 60, 64
8, 754800, Note_on_c, 6, 60, 92
8, 754800, Note_on_c, 6, 72, 92
8, 755200, Note_off_c, 6, 72, 64
8, 755200, Note_off_c, 6, 60, 64
8, 755280, Note_on_c, 6, 60, 92
8, 755280, Note_on_c, 6, 72, 92
8, 755680, Note_off_c, 6, 72, 64
8, 755680, Note_off_c, 6, 60, 64
8, 755760, Note_on_c, 6, 60, 92
8, 755760, Note_on_c, 6, 72, 92
8, 756160, Note_off_c, 6, 72, 64
8, 756160, Note_off_c, 6, 60, 64
8, 756240, Note_on_c, 6, 55, 92
8, 756240, Note_on_c, 6, 67, 92
8, 756640, Note_off_c, 6, 67, 64
8, 756640, Note_off_c, 6, 55, 64
8, 756720, Note_on_c, 6, 60, 92
8, 756720, Note_on_c, 6, 72, 92
8, 757360, Note_off_c, 6, 72, 64
8, 757360, Note_off_c, 6, 60, 64
8, 757440, Note_on_c, 6, 60, 92
8, 757440, Note_on_c, 6, 72, 92
8, 757675, Note_off_c, 6, 72, 64
8, 757675, Note_off_c, 6, 60, 64
8, 757680, Note_on_c, 6, 60, 92
8, 757680, Note_on_c, 6, 72, 92
8, 757915, Note_off_c, 6, 72, 64
8, 757915, Note_off_c, 6, 60, 64
8, 758160, Note_on_c, 6, 60, 92
8, 758160, Note_on_c, 6, 72, 92
8, 758395, Note_off_c, 6, 72, 64
8, 758395, Note_off_c, 6, 60, 64
8, 758640, Note_on_c, 6, 60, 92
8, 758640, Note_on_c, 6, 72, 92
8, 758875, Note_off_c, 6, 72, 64
8, 758875, Note_off_c, 6, 60, 64
8, 759120, Note_on_c, 6, 55, 92
8, 759120, Note_on_c, 6, 67, 92
8, 759355, Note_off_c, 6, 67, 64
8, 759355, Note_off_c, 6, 55, 64
8, 759600, Note_on_c, 6, 60, 92
8, 759600, Note_on_c, 6, 72, 92
8, 759680, Note_off_c, 6, 72, 64
8, 759680, Note_off_c, 6, 60, 64
8, 759840, Note_on_c, 6, 60, 92
8, 759840, Note_on_c, 6, 72, 92
8, 759920, Note_off_c, 6, 72, 64
8, 759920, Note_off_c, 6, 60, 64
8, 760080, Note_on_c, 6, 55, 92
8, 760080, Note_on_c, 6, 67, 92
8, 760160, Note_off_c, 6, 67, 64
8, 760160, Note_off_c, 6, 55, 64
8, 760320, Note_on_c, 6, 55, 92
8, 760320, Note_on_c, 6, 67, 92
8, 760400, Note_off_c, 6, 67, 64
8, 760400, Note_off_c, 6, 55, 64
8, 760560, Note_on_c, 6, 60, 92
8, 760560, Note_on_c, 6, 72, 92
8, 760640, Note_off_c, 6, 72, 64
8, 760640, Note_off_c, 6, 60, 64
8, 760800, Note_on_c, 6, 60, 92
8, 760800, Note_on_c, 6, 72, 92
8, 760880, Note_off_c, 6, 72, 64
8, 760880, Note_off_c, 6, 60, 64
8, 761280, Note_on_c, 6, 60, 92
8, 761280, Note_on_c, 6, 72, 92
8, 761515, Note_off_c, 6, 72, 64
8, 761515, Note_off_c, 6, 60, 64
8, 761520, Note_on_c, 6, 60, 92
8, 761520, Note_on_c, 6, 72, 92
8, 761755, Note_off_c, 6, 72, 64
8, 761755, Note_off_c, 6, 60, 64
8, 761760, Note_on_c, 6, 60, 92
8, 761760, Note_on_c, 6, 72, 92
8, 761995, Note_off_c, 6, 72, 64
8, 761995, Note_off_c, 6, 60, 64
8, 762240, Note_on_c, 6, 60, 92
8, 762240, Note_on_c, 6, 72, 92
8, 762475, Note_off_c, 6, 72, 64
8, 762475, Note_off_c, 6, 60, 64
8, 762720, Note_on_c, 6, 60, 92
8, 762720, Note_on_c, 6, 72, 92
8, 762955, Note_off_c, 6, 72, 64
8, 762955, Note_off_c, 6, 60, 64
8, 763200, Note_on_c, 6, 55, 92
8, 763200, Note_on_c, 6, 67, 92
8, 763435, Note_off_c, 6, 67, 64
8, 763435, Note_off_c, 6, 55, 64
8, 763440, Note_on_c, 6, 60, 92
8, 763440, Note_on_c, 6, 72, 92
8, 764080, Note_off_c, 6, 72, 64
8, 764080, Note_off_c, 6, 60, 64
8, 764160, Note_on_c, 6, 60, 92
8, 764160, Note_on_c, 6, 72, 92
8, 764395, Note_off_c, 6, 72, 64
8, 764395, Note_off_c, 6, 60, 64
8, 764400, Note_on_c, 6, 60, 92
8, 764400, Note_on_c, 6, 72, 92
8, 765040, Note_off_c, 6, 72, 64
8, 765040, Note_off_c, 6, 60, 64
8, 765120, Note_on_c, 6, 60, 92
8, 765120, Note_on_c, 6, 72, 92
8, 765355, Note_off_c, 6, 72, 64
8, 765355, Note_off_c, 6, 60, 64
8, 765360, Note_on_c, 6, 60, 92
8, 765360, Note_on_c, 6, 72, 92
8, 766000, Note_off_c, 6, 72, 64
8, 766000, Note_off_c, 6, 60, 64
8, 766080, Note_on_c, 6, 60, 92
8, 766080, Note_on_c, 6, 72, 92
8, 766315, Note_off_c, 6, 72, 64
8, 766315, Note_off_c, 6, 60, 64
8, 766320, Note_on_c, 6, 60, 92
8, 766320, Note_on_c, 6, 72, 92
8, 766960, Note_off_c, 6, 72, 64
8, 766960, Note_off_c, 6, 60, 64
8, 767040, Note_on_c, 6, 60, 92
8, 767040, Note_on_c, 6, 72, 92
8, 767275, Note_off_c, 6, 72, 64
8, 767275, Note_off_c, 6, 60, 64
8, 767280, Note_on_c, 6, 60, 92
8, 767280, Note_on_c, 6, 72, 92
8, 767515, Note_off_c, 6, 72, 64
8, 767515, Note_off_c, 6, 60, 64
8, 767520, Note_on_c, 6, 60, 92
8, 767520, Note_on_c, 6, 72, 92
8, 767755, Note_off_c, 6, 72, 64
8, 767755, Note_off_c, 6, 60, 64
8, 767760, Note_on_c, 6, 60, 92
8, 767760, Note_on_c, 6, 72, 92
8, 767995, Note_off_c, 6, 72, 64
8, 767995, Note_off_c, 6, 60, 64
8, 768000, Note_on_c, 6, 60, 92
8, 768000, Note_on_c, 6, 72, 92
8, 768235, Note_off_c, 6, 72, 64
8, 768235, Note_off_c, 6, 60, 64
8, 768240, Note_on_c, 6, 60, 92
8, 768240, Note_on_c, 6, 72, 92
8, 768475, Note_off_c, 6, 72, 64
8, 768475, Note_off_c, 6, 60, 64
8, 768480, Note_on_c, 6, 60, 92
8, 768480, Note_on_c, 6, 76, 92
8, 768715, Note_off_c, 6, 76, 64
8, 768715, Note_off_c, 6, 60, 64
8, 768720, Note_on_c, 6, 60, 92
8, 768720, Note_on_c, 6, 76, 92
8, 768955, Note_off_c, 6, 76, 64
8, 768955, Note_off_c, 6, 60, 64
8, 768960, Note_on_c, 6, 60, 92
8, 768960, Note_on_c, 6, 76, 92
8, 769195, Note_off_c, 6, 76, 64
8, 769195, Note_off_c, 6, 60, 64
8, 769200, Note_on_c, 6, 60, 92
8, 769200, Note_on_c, 6, 76, 92
8, 769435, Note_off_c, 6, 60, 64
8, 770040, Note_off_c, 6, 76, 64
8, 770160, Note_on_c, 6, 72, 92
8, 770875, Note_off_c, 6, 72, 64
8, 1024560, Note_on_c, 6, 60, 92
8, 1024560, Note_on_c, 6, 72, 92
8, 1025400, Note_off_c, 6, 72, 64
8, 1025400, Note_off_c, 6, 60, 64
8, 1025520, Note_on_c, 6, 60, 92
8, 1025520, Note_on_c, 6, 72, 92
8, 1026360, Note_off_c, 6, 72, 64
8, 1026360, Note_off_c, 6, 60, 64
8, 1026480, Note_on_c, 6, 60, 92
8, 1026480, Note_on_c, 6, 72, 92
8, 1027320, Note_off_c, 6, 72, 64
8, 1027320, Note_off_c, 6, 60, 64
8, 1027440, Note_on_c, 6, 60, 92
8, 1027440, Note_on_c, 6, 72, 92
8, 1027840, Note_off_c, 6, 72, 64
8, 1027840, Note_off_c, 6, 60, 64
8, 1027920, Note_on_c, 6, 60, 92
8, 1027920, Note_on_c, 6, 72, 92
8, 1028320, Note_off_c, 6, 72, 64
8, 1028320, Note_off_c, 6, 60, 64
8, 1028400, Note_on_c, 6, 60, 92
8, 1028400, Note_on_c, 6, 72, 92
8, 1029240, Note_off_c, 6, 72, 64
8, 1029240, Note_off_c, 6, 60, 64
8, 1029360, Note_on_c, 6, 60, 92
8, 1029360, Note_on_c, 6, 72, 92
8, 1030200, Note_off_c, 6, 72, 64
8, 1030200, Note_off_c, 6, 60, 64
8, 1030320, Note_on_c, 6, 60, 92
8, 1030320, Note_on_c, 6, 72, 92
8, 1031160, Note_off_c, 6, 72, 64
8, 1031160, Note_off_c, 6, 60, 64
8, 1031280, Note_on_c, 6, 60, 92
8, 1031280, Note_on_c, 6, 72, 92
8, 1031680, Note_off_c, 6, 72, 64
8, 1031680, Note_off_c, 6, 60, 64
8, 1031760, Note_on_c, 6, 60, 92
8, 1031760, Note_on_c, 6, 72, 92
8, 1032160, Note_off_c, 6, 72, 64
8, 1032160, Note_off_c, 6, 60, 64
8, 1032240, Note_on_c, 6, 60, 92
8, 1032240, Note_on_c, 6, 72, 92
8, 1032640, Note_off_c, 6, 72, 64
8, 1032640, Note_off_c, 6, 60, 64
8, 1032720, Note_on_c, 6, 55, 92
8, 1032720, Note_on_c, 6, 67, 92
8, 1033120, Note_off_c, 6, 67, 64
8, 1033120, Note_off_c, 6, 55, 64
8, 1033200, Note_on_c, 6, 60, 92
8, 1033200, Note_on_c, 6, 72, 92
8, 1033840, Note_off_c, 6, 72, 64
8, 1033840, Note_off_c, 6, 60, 64
8, 1033920, Note_on_c, 6, 60, 92
8, 1033920, Note_on_c, 6, 72, 92
8, 1034155, Note_off_c, 6, 72, 64
8, 1034155, Note_off_c, 6, 60, 64
8, 1034160, Note_on_c, 6, 60, 92
8, 1034160, Note_on_c, 6, 72, 92
8, 1034395, Note_off_c, 6, 72, 64
8, 1034395, Note_off_c, 6, 60, 64
8, 1034640, Note_on_c, 6, 60, 92
8, 1034640, Note_on_c, 6, 72, 92
8, 1034875, Note_off_c, 6, 72, 64
8, 1034875, Note_off_c, 6, 60, 64
8, 1035120, Note_on_c, 6, 60, 92
8, 1035120, Note_on_c, 6, 72, 92
8, 1035355, Note_off_c, 6, 72, 64
8, 1035355, Note_off_c, 6, 60, 64
8, 1035600, Note_on_c, 6, 55, 92
8, 1035600, Note_on_c, 6, 67, 92
8, 1035835, Note_off_c, 6, 67, 64
8, 1035835, Note_off_c, 6, 55, 64
8, 1036080, Note_on_c, 6, 60, 92
8, 1036080, Note_on_c, 6, 72, 92
8, 1036160, Note_off_c, 6, 72, 64
8, 1036160, Note_off_c, 6, 60, 64
8, 1036320, Note_on_c, 6, 60, 92
8, 1036320, Note_on_c, 6, 72, 92
8, 1036400, Note_off_c, 6, 72, 64
8, 1036400, Note_off_c, 6, 60, 64
8, 1036560, Note_on_c, 6, 55, 92
8, 1036560, Note_on_c, 6, 67, 92
8, 1036640, Note_off_c, 6, 67, 64
8, 1036640, Note_off_c, 6, 55, 64
8, 1036800, Note_on_c, 6, 55, 92
8, 1036800, Note_on_c, 6, 67, 92
8, 1036880, Note_off_c, 6, 67, 64
8, 1036880, Note_off_c, 6, 55, 64
8, 1037040, Note_on_c, 6, 60, 92
8, 1037040, Note_on_c, 6, 72, 92
8, 1037120, Note_off_c, 6, 72, 64
8, 1037120, Note_off_c, 6, 60, 64
8, 1037280, Note_on_c, 6, 60, 92
8, 1037280, Note_on_c, 6, 72, 92
8, 1037360, Note_off_c, 6, 72, 64
8, 1037360, Note_off_c, 6, 60, 64
8, 1037760, Note_on_c, 6, 60, 92
8, 1037760, Note_on_c, 6, 72, 92
8, 1037995, Note_off_c, 6, 72, 64
8, 1037995, Note_off_c, 6, 60, 64
8, 1038000, Note_on_c, 6, 60, 92
8, 1038000, Note_on_c, 6, 72, 92
8, 1038235, Note_off_c, 6, 72, 64
8, 1038235, Note_off_c, 6, 60, 64
8, 1038240, Note_on_c, 6, 60, 92
8, 1038240, Note_on_c, 6, 72, 92
8, 1038475, Note_off_c, 6, 72, 64
8, 1038475, Note_off_c, 6, 60, 64
8, 1038720, Note_on_c, 6, 60, 92
8, 1038720, Note_on_c, 6, 72, 92
8, 1038955, Note_off_c, 6, 72, 64
8, 1038955, Note_off_c, 6, 60, 64
8, 1039200, Note_on_c, 6, 60, 92
8, 1039200, Note_on_c, 6, 72, 92
8, 1039435, Note_off_c, 6, 72, 64
8, 1039435, Note_off_c, 6, 60, 64
8, 1039680, Note_on_c, 6, 55, 92
8, 1039680, Note_on_c, 6, 67, 92
8, 1039915, Note_off_c, 6, 67, 64
8, 1039915, Note_off_c, 6, 55, 64
8, 1039920, Note_on_c, 6, 60, 92
8, 1039920, Note_on_c, 6, 72, 92
8, 1040560, Note_off_c, 6, 72, 64
8, 1040560, Note_off_c, 6, 60, 64
8, 1040640, Note_on_c, 6, 60, 92
8, 1040640, Note_on_c, 6, 72, 92
8, 1040875, Note_off_c, 6, 72, 64
8, 1040875, Note_off_c, 6, 60, 64
8, 1040880, Note_on_c, 6, 60, 92
8, 1040880, Note_on_c, 6, 72, 92
8, 1041520, Note_off_c, 6, 72, 64
8, 1041520, Note_off_c, 6, 60, 64
8, 1041600, Note_on_c, 6, 60, 92
8, 1041600, Note_on_c, 6, 72, 92
8, 1041835, Note_off_c, 6, 72, 64
8, 1041835, Note_off_c, 6, 60, 64
8, 1041840, Note_on_c, 6, 60, 92
8, 1041840, Note_on_c, 6, 72, 92
8, 1042480, Note_off_c, 6, 72, 64
8, 1042480, Note_off_c, 6, 60, 64
8, 1042560, Note_on_c, 6, 60, 92
8, 1042560, Note_on_c, 6, 72, 92
8, 1042795, Note_off_c, 6, 72, 64
8, 1042795, Note_off_c, 6, 60, 64
8, 1042800, Note_on_c, 6, 60, 92
8, 1042800, Note_on_c, 6, 72, 92
8, 1043440, Note_off_c, 6, 72, 64
8, 1043440, Note_off_c, 6, 60, 64
8, 1043520, Note_on_c, 6, 60, 92
8, 1043520, Note_on_c, 6, 72, 92
8, 1043755, Note_off_c, 6, 72, 64
8, 1043755, Note_off_c, 6, 60, 64
8, 1043760, Note_on_c, 6, 60, 92
8, 1043760, Note_on_c, 6, 72, 92
8, 1043995, Note_off_c, 6, 72, 64
8, 1043995, Note_off_c, 6, 60, 64
8, 1044000, Note_on_c, 6, 60, 92
8, 1044000, Note_on_c, 6, 72, 92
8, 1044235, Note_off_c, 6, 72, 64
8, 1044235, Note_off_c, 6, 60, 64
8, 1044240, Note_on_c, 6, 60, 92
8, 1044240, Note_on_c, 6, 72, 92
8, 1044475, Note_off_c, 6, 72, 64
8, 1044475, Note_off_c, 6, 60, 64
8, 1044480, Note_on_c, 6, 60, 92
8, 1044480, Note_on_c, 6, 72, 92
8, 1044715, Note_off_c, 6, 72, 64
8, 1044715, Note_off_c, 6, 60, 64
8, 1044720, Note_on_c, 6, 60, 92
8, 1044720, Note_on_c, 6, 72, 92
8, 1044955, Note_off_c, 6, 72, 64
8, 1044955, Note_off_c, 6, 60, 64
8, 1044960, Note_on_c, 6, 60, 92
8, 1044960, Note_on_c, 6, 76, 92
8, 1045195, Note_off_c, 6, 76, 64
8, 1045195, Note_off_c, 6, 60, 64
8, 1045200, Note_on_c, 6, 60, 92
8, 1045200, Note_on_c, 6, 76, 92
8, 1045435, Note_off_c, 6, 76, 64
8, 1045435, Note_off_c, 6, 60, 64
8, 1045440, Note_on_c, 6, 60, 92
8, 1045440, Note_on_c, 6, 76, 92
8, 1045675, Note_off_c, 6, 76, 64
8, 1045675, Note_off_c, 6, 60, 64
8, 1045680, Note_on_c, 6, 60, 92
8, 1045680, Note_on_c, 6, 76, 92
8, 1045915, Note_off_c, 6, 60, 64
8, 1046520, Note_off_c, 6, 76, 64
8, 1046640, Note_on_c, 6, 72, 92
8, 1047355, Note_off_c, 6, 72, 64
8, 1177680, Note_on_c, 6, 77, 75
8, 1181400, Note_off_c, 6, 77, 64
8, 1181520, Note_on_c, 6, 77, 75
8, 1185240, Note_off_c, 6, 77, 64
8, 1185360, Note_on_c, 6, 58, 75
8, 1185360, Note_on_c, 6, 70, 75
8, 1189080, Note_off_c, 6, 70, 64
8, 1189080, Note_off_c, 6, 58, 64
8, 1189200, Note_on_c, 6, 58, 75
8, 1189200, Note_on_c, 6, 70, 75
8, 1192920, Note_off_c, 6, 70, 64
8, 1192920, Note_off_c, 6, 58, 64
8, 1193040, Note_on_c, 6, 63, 75
8, 1193040, Note_on_c, 6, 75, 75
8, 1196760, Note_off_c, 6, 75, 64
8, 1196760, Note_off_c, 6, 63, 64
8, 1196880, Note_on_c, 6, 63, 75
8, 1196880, Note_on_c, 6, 75, 75
8, 1200600, Note_off_c, 6, 75, 64
8, 1200600, Note_off_c, 6, 63, 64
8, 1200720, Note_on_c, 6, 58, 75
8, 1200720, Note_on_c, 6, 70, 75
8, 1200955, Note_off_c, 6, 70, 64
8, 1200955, Note_off_c, 6, 58, 64
8, 1201200, Note_on_c, 6, 58, 75
8, 1201200, Note_on_c, 6, 70, 75
8, 1201435, Note_off_c, 6, 70, 64
8, 1201435, Note_off_c, 6, 58, 64
8, 1209360, Note_on_c, 6, 77, 75
8, 1210720, Note_off_c, 6, 77, 64
8, 1228080, Note_on_c, 6, 67, 127
8, 1228080, Note_on_c, 6, 79, 127
8, 1228315, Note_off_c, 6, 79, 64
8, 1228315, Note_off_c, 6, 67, 64
8, 1235760, Note_on_c, 6, 63, 92
8, 1235760, Note_on_c, 6, 75, 92
8, 1235995, Note_off_c, 6, 75, 64
8, 1235995, Note_off_c, 6, 63, 64
8, 1237680, Note_on_c, 6, 63, 92
8, 1237680, Note_on_c, 6, 75, 92
8, 1237915, Note_off_c, 6, 75, 64
8, 1237915, Note_off_c, 6, 63, 64
8, 1239600, Note_on_c, 6, 58, 92
8, 1239600, Note_on_c, 6, 70, 92
8, 1239835, Note_off_c, 6, 70, 64
8, 1239835, Note_off_c, 6, 58, 64
8, 1241520, Note_on_c, 6, 67, 92
8, 1241520, Note_on_c, 6, 79, 92
8, 1241755, Note_off_c, 6, 79, 64
8, 1241755, Note_off_c, 6, 67, 64
8, 1243440, Note_on_c, 6, 67, 92
8, 1243440, Note_on_c, 6, 79, 92
8, 1243675, Note_off_c, 6, 79, 64
8, 1243675, Note_off_c, 6, 67, 64
8, 1244400, Note_on_c, 6, 67, 92
8, 1244400, Note_on_c, 6, 79, 92
8, 1244635, Note_off_c, 6, 79, 64
8, 1244635, Note_off_c, 6, 67, 64
8, 1287120, Note_on_c, 6, 67, 75
8, 1287120, Note_on_c, 6, 79, 75
8, 1289440, Note_off_c, 6, 79, 64
8, 1289440, Note_off_c, 6, 67, 64
8, 1300080, Note_on_c, 6, 59, 92
8, 1300080, Note_on_c, 6, 71, 92
8, 1300480, Note_off_c, 6, 71, 64
8, 1300480, Note_off_c, 6, 59, 64
8, 1300560, Note_on_c, 6, 70, 92
8, 1300560, Note_on_c, 6, 82, 92
8, 1302880, Note_off_c, 6, 82, 64
8, 1302880, Note_off_c, 6, 70, 64
8, 1304880, Note_on_c, 6, 58, 92
8, 1304880, Note_on_c, 6, 70, 92
8, 1306720, Note_off_c, 6, 70, 64
8, 1306720, Note_off_c, 6, 58, 64
8, 1306800, Note_on_c, 6, 58, 92
8, 1306800, Note_on_c, 6, 70, 92
8, 1307640, Note_off_c, 6, 70, 64
8, 1307640, Note_off_c, 6, 58, 64
8, 1308240, Note_on_c, 6, 73, 92
8, 1310560, Note_off_c, 6, 73, 64
8, 1312080, Note_on_c, 6, 58, 92
8, 1312080, Note_on_c, 6, 70, 92
8, 1312720, Note_off_c, 6, 70, 64
8, 1312720, Note_off_c, 6, 58, 64
8, 1312800, Note_on_c, 6, 58, 92
8, 1312800, Note_on_c, 6, 70, 92
8, 1313035, Note_off_c, 6, 70, 64
8, 1313035, Note_off_c, 6, 58, 64
8, 1313040, Note_on_c, 6, 58, 92
8, 1313040, Note_on_c, 6, 70, 92
8, 1314400, Note_off_c, 6, 70, 64
8, 1314400, Note_off_c, 6, 58, 64
8, 1342320, Note_on_c, 6, 63, 75
8, 1342320, Note_on_c, 6, 75, 75
8, 1350360, Note_off_c, 6, 75, 64
8, 1350360, Note_off_c, 6, 63, 64
8, 1350480, Note_on_c, 6, 63, 75
8, 1350480, Note_on_c, 6, 75, 75
8, 1352400, Note_off_c, 6, 75, 64
8, 1352400, Note_off_c, 6, 63, 64
8, 1352400, Note_on_c, 6, 63, 105
8, 1352400, Note_on_c, 6, 75, 105
8, 1354200, Note_off_c, 6, 75, 64
8, 1354200, Note_off_c, 6, 63, 64
8, 1354320, Note_on_c, 6, 61, 75
8, 1354320, Note_on_c, 6, 73, 75
8, 1356240, Note_off_c, 6, 73, 64
8, 1356240, Note_off_c, 6, 61, 64
8, 1356240, Note_on_c, 6, 61, 105
8, 1356240, Note_on_c, 6, 73, 105
8, 1358040, Note_off_c, 6, 73, 64
8, 1358040, Note_off_c, 6, 61, 64
8, 1471500, Note_on_c, 6, 60, 92
8, 1471500, Note_on_c, 6, 72, 92
8, 1472820, Note_off_c, 6, 72, 64
8, 1472820, Note_off_c, 6, 60, 64
8, 1472940, Note_on_c, 6, 60, 92
8, 1472940, Note_on_c, 6, 72, 92
8, 1474260, Note_off_c, 6, 72, 64
8, 1474260, Note_off_c, 6, 60, 64
8, 1474380, Note_on_c, 6, 60, 92
8, 1474380, Note_on_c, 6, 72, 92
8, 1475700, Note_off_c, 6, 72, 64
8, 1475700, Note_off_c, 6, 60, 64
8, 1475820, Note_on_c, 6, 74, 92
8, 1476940, Note_off_c, 6, 74, 64
8, 1477020, Note_on_c, 6, 60, 92
8, 1477020, Note_on_c, 6, 72, 92
8, 1477100, Note_off_c, 6, 72, 64
8, 1477100, Note_off_c, 6, 60, 64
8, 1477260, Note_on_c, 6, 60, 92
8, 1477260, Note_on_c, 6, 72, 92
8, 1478380, Note_off_c, 6, 72, 64
8, 1478380, Note_off_c, 6, 60, 64
8, 1478460, Note_on_c, 6, 60, 92
8, 1478460, Note_on_c, 6, 72, 92
8, 1478695, Note_off_c, 6, 72, 64
8, 1478695, Note_off_c, 6, 60, 64
8, 1478700, Note_on_c, 6, 60, 92
8, 1478700, Note_on_c, 6, 72, 92
8, 1479340, Note_off_c, 6, 72, 64
8, 1479340, Note_off_c, 6, 60, 64
8, 1479420, Note_on_c, 6, 60, 92
8, 1479420, Note_on_c, 6, 72, 92
8, 1479820, Note_off_c, 6, 72, 64
8, 1479820, Note_off_c, 6, 60, 64
8, 1479900, Note_on_c, 6, 62, 92
8, 1479900, Note_on_c, 6, 74, 92
8, 1480135, Note_off_c, 6, 74, 64
8, 1480135, Note_off_c, 6, 62, 64
8, 1480620, Note_on_c, 6, 74, 92
8, 1480735, Note_off_c, 6, 74, 64
8, 1480740, Note_on_c, 6, 74, 92
8, 1480855, Note_off_c, 6, 74, 64
8, 1480860, Note_on_c, 6, 60, 92
8, 1480860, Note_on_c, 6, 72, 92
8, 1481260, Note_off_c, 6, 72, 64
8, 1481260, Note_off_c, 6, 60, 64
8, 1481340, Note_on_c, 6, 60, 92
8, 1481340, Note_on_c, 6, 72, 92
8, 1481575, Note_off_c, 6, 72, 64
8, 1481575, Note_off_c, 6, 60, 64
8, 1484220, Note_on_c, 6, 60, 75
8, 1484220, Note_on_c, 6, 72, 75
8, 1484455, Note_off_c, 6, 72, 64
8, 1484455, Note_off_c, 6, 60, 64
8, 1484460, Note_on_c, 6, 60, 75
8, 1484460, Note_on_c, 6, 72, 75
8, 1486540, Note_off_c, 6, 72, 64
8, 1486540, Note_off_c, 6, 60, 64
8, 1486620, Note_on_c, 6, 60, 75
8, 1486620, Note_on_c, 6, 72, 75
8, 1487020, Note_off_c, 6, 72, 64
8, 1487020, Note_off_c, 6, 60, 64
8, 1487100, Note_on_c, 6, 60, 75
8, 1487100, Note_on_c, 6, 72, 75
8, 1487335, Note_off_c, 6, 72, 64
8, 1487335, Note_off_c, 6, 60, 64
8, 1489980, Note_on_c, 6, 60, 75
8, 1489980, Note_on_c, 6, 72, 75
8, 1490215, Note_off_c, 6, 72, 64
8, 1490215, Note_off_c, 6, 60, 64
8, 1490220, Note_on_c, 6, 60, 75
8, 1490220, Note_on_c, 6, 72, 75
8, 1492300, Note_off_c, 6, 72, 64
8, 1492300, Note_off_c, 6, 60, 64
8, 1492380, Note_on_c, 6, 60, 75
8, 1492380, Note_on_c, 6, 72, 75
8, 1492780, Note_off_c, 6, 72, 64
8, 1492780, Note_off_c, 6, 60, 64
8, 1492860, Note_on_c, 6, 60, 75
8, 1492860, Note_on_c, 6, 72, 75
8, 1493095, Note_off_c, 6, 72, 64
8, 1493095, Note_off_c, 6, 60, 64
8, 1495980, Note_on_c, 6, 55, 75
8, 1495980, Note_on_c, 6, 67, 75
8, 1497100, Note_off_c, 6, 67, 64
8, 1497100, Note_off_c, 6, 55, 64
8, 1498860, Note_on_c, 6, 55, 75
8, 1498860, Note_on_c, 6, 67, 75
8, 1499980, Note_off_c, 6, 67, 64
8, 1499980, Note_off_c, 6, 55, 64
8, 1502460, Note_on_c, 6, 55, 75
8, 1502460, Note_on_c, 6, 67, 75
8, 1503580, Note_off_c, 6, 67, 64
8, 1503580, Note_off_c, 6, 55, 64
8, 1503660, Note_on_c, 6, 55, 75
8, 1503660, Note_on_c, 6, 67, 75
8, 1503895, Note_off_c, 6, 67, 64
8, 1503895, Note_off_c, 6, 55, 64
8, 1503900, Note_on_c, 6, 55, 75
8, 1503900, Note_on_c, 6, 67, 75
8, 1504300, Note_off_c, 6, 67, 64
8, 1504300, Note_off_c, 6, 55, 64
8, 1504380, Note_on_c, 6, 55, 75
8, 1504380, Note_on_c, 6, 67, 75
8, 1504615, Note_off_c, 6, 67, 64
8, 1504615, Note_off_c, 6, 55, 64
8, 1505340, Note_on_c, 6, 55, 75
8, 1505340, Note_on_c, 6, 67, 75
8, 1506460, Note_off_c, 6, 67, 64
8, 1506460, Note_off_c, 6, 55, 64
8, 1506540, Note_on_c, 6, 55, 75
8, 1506540, Note_on_c, 6, 67, 75
8, 1506775, Note_off_c, 6, 67, 64
8, 1506775, Note_off_c, 6, 55, 64
8, 1506780, Note_on_c, 6, 55, 75
8, 1506780, Note_on_c, 6, 67, 75
8, 1507180, Note_off_c, 6, 67, 64
8, 1507180, Note_off_c, 6, 55, 64
8, 1507260, Note_on_c, 6, 55, 75
8, 1507260, Note_on_c, 6, 67, 75
8, 1507495, Note_off_c, 6, 67, 64
8, 1507495, Note_off_c, 6, 55, 64
8, 1507500, Note_on_c, 6, 60, 75
8, 1507900, Note_off_c, 6, 60, 64
8, 1509660, Note_on_c, 6, 55, 75
8, 1509660, Note_on_c, 6, 67, 75
8, 1510060, Note_off_c, 6, 67, 64
8, 1510060, Note_off_c, 6, 55, 64
8, 1510140, Note_on_c, 6, 55, 75
8, 1510140, Note_on_c, 6, 67, 75
8, 1510380, Note_off_c, 6, 67, 64
8, 1510380, Note_off_c, 6, 55, 64
8, 1510380, Note_on_c, 6, 60, 75
8, 1510615, Note_off_c, 6, 60, 64
8, 1512540, Note_on_c, 6, 55, 63
8, 1512540, Note_on_c, 6, 67, 63
8, 1512940, Note_off_c, 6, 67, 64
8, 1512940, Note_off_c, 6, 55, 64
8, 1513020, Note_on_c, 6, 55, 71
8, 1513020, Note_on_c, 6, 67, 71
8, 1513100, Note_off_c, 6, 67, 64
8, 1513100, Note_off_c, 6, 55, 64
8, 1513260, Note_on_c, 6, 64, 75
8, 1513260, Note_on_c, 6, 72, 75
8, 1513980, Note_off_c, 6, 72, 64
8, 1513980, Note_off_c, 6, 64, 64
8, 1513980, Note_on_c, 6, 64, 75
8, 1513980, Note_on_c, 6, 67, 75
8, 1514215, Note_off_c, 6, 67, 64
8, 1514215, Note_off_c, 6, 64, 64
8, 1514460, Note_on_c, 6, 60, 75
8, 1514460, Note_on_c, 6, 72, 75
8, 1514540, Note_off_c, 6, 72, 64
8, 1514540, Note_off_c, 6, 60, 64
8, 1514700, Note_on_c, 6, 60, 75
8, 1514700, Note_on_c, 6, 72, 75
8, 1515420, Note_off_c, 6, 72, 64
8, 1515420, Note_off_c, 6, 60, 64
8, 1515420, Note_on_c, 6, 60, 75
8, 1515420, Note_on_c, 6, 72, 75
8, 1515655, Note_off_c, 6, 72, 64
8, 1515655, Note_off_c, 6, 60, 64
8, 1515900, Note_on_c, 6, 60, 75
8, 1515900, Note_on_c, 6, 72, 75
8, 1515980, Note_off_c, 6, 72, 64
8, 1515980, Note_off_c, 6, 60, 64
8, 1516140, Note_on_c, 6, 55, 45
8, 1516140, Note_on_c, 6, 67, 45
8, 1516375, Note_off_c, 6, 67, 64
8, 1516375, Note_off_c, 6, 55, 64
8, 1547580, Note_on_c, 6, 60, 75
8, 1547580, Note_on_c, 6, 72, 75
8, 1547815, Note_off_c, 6, 72, 64
8, 1547815, Note_off_c, 6, 60, 64
8, 1547820, Note_on_c, 6, 60, 75
8, 1547820, Note_on_c, 6, 72, 75
8, 1548055, Note_off_c, 6, 72, 64
8, 1548055, Note_off_c, 6, 60, 64
8, 1548300, Note_on_c, 6, 60, 75
8, 1548300, Note_on_c, 6, 72, 75
8, 1548535, Note_off_c, 6, 72, 64
8, 1548535, Note_off_c, 6, 60, 64
8, 1548540, Note_on_c, 6, 60, 75
8, 1548540, Note_on_c, 6, 72, 75
8, 1548775, Note_off_c, 6, 72, 64
8, 1548775, Note_off_c, 6, 60, 64
8, 1549020, Note_on_c, 6, 60, 75
8, 1549020, Note_on_c, 6, 72, 75
8, 1549255, Note_off_c, 6, 72, 64
8, 1549255, Note_off_c, 6, 60, 64
8, 1549260, Note_on_c, 6, 60, 75
8, 1549260, Note_on_c, 6, 72, 75
8, 1549660, Note_off_c, 6, 72, 64
8, 1549660, Note_off_c, 6, 60, 64
8, 1549740, Note_on_c, 6, 60, 75
8, 1549740, Note_on_c, 6, 72, 75
8, 1549975, Note_off_c, 6, 72, 64
8, 1549975, Note_off_c, 6, 60, 64
8, 1549980, Note_on_c, 6, 60, 75
8, 1549980, Note_on_c, 6, 72, 75
8, 1550380, Note_off_c, 6, 72, 64
8, 1550380, Note_off_c, 6, 60, 64
8, 1550460, Note_on_c, 6, 60, 75
8, 1550460, Note_on_c, 6, 72, 75
8, 1550695, Note_off_c, 6, 72, 64
8, 1550695, Note_off_c, 6, 60, 64
8, 1550700, Note_on_c, 6, 62, 75
8, 1550700, Note_on_c, 6, 74, 75
8, 1551100, Note_off_c, 6, 74, 64
8, 1551100, Note_off_c, 6, 62, 64
8, 1580700, Note_on_c, 6, 55, 75
8, 1580700, Note_on_c, 6, 67, 75
8, 1580935, Note_off_c, 6, 67, 64
8, 1580935, Note_off_c, 6, 55, 64
8, 1580940, Note_on_c, 6, 55, 75
8, 1580940, Note_on_c, 6, 67, 75
8, 1581660, Note_off_c, 6, 67, 64
8, 1581660, Note_off_c, 6, 55, 64
8, 1581660, Note_on_c, 6, 55, 75
8, 1581660, Note_on_c, 6, 67, 75
8, 1581895, Note_off_c, 6, 67, 64
8, 1581895, Note_off_c, 6, 55, 64
8, 1582140, Note_on_c, 6, 55, 75
8, 1582140, Note_on_c, 6, 67, 75
8, 1582375, Note_off_c, 6, 67, 64
8, 1582375, Note_off_c, 6, 55, 64
8, 1582380, Note_on_c, 6, 60, 75
8, 1582380, Note_on_c, 6, 72, 75
8, 1583100, Note_off_c, 6, 72, 64
8, 1583100, Note_off_c, 6, 60, 64
8, 1583100, Note_on_c, 6, 55, 75
8, 1583100, Note_on_c, 6, 67, 75
8, 1583335, Note_off_c, 6, 67, 64
8, 1583335, Note_off_c, 6, 55, 64
8, 1586460, Note_on_c, 6, 55, 60
8, 1586460, Note_on_c, 6, 67, 60
8, 1586695, Note_off_c, 6, 67, 64
8, 1586695, Note_off_c, 6, 55, 64
8, 1586700, Note_on_c, 6, 55, 60
8, 1586700, Note_on_c, 6, 67, 60
8, 1587420, Note_off_c, 6, 67, 64
8, 1587420, Note_off_c, 6, 55, 64
8, 1587420, Note_on_c, 6, 55, 63
8, 1587420, Note_on_c, 6, 67, 63
8, 1587655, Note_off_c, 6, 67, 64
8, 1587655, Note_off_c, 6, 55, 64
8, 1587900, Note_on_c, 6, 55, 65
8, 1587900, Note_on_c, 6, 67, 65
8, 1588135, Note_off_c, 6, 67, 64
8, 1588135, Note_off_c, 6, 55, 64
8, 1588140, Note_on_c, 6, 60, 66
8, 1588140, Note_on_c, 6, 72, 66
8, 1588860, Note_off_c, 6, 72, 64
8, 1588860, Note_off_c, 6, 60, 64
8, 1588860, Note_on_c, 6, 55, 70
8, 1588860, Note_on_c, 6, 67, 70
8, 1589095, Note_off_c, 6, 67, 64
8, 1589095, Note_off_c, 6, 55, 64
8, 1589340, Note_on_c, 6, 64, 73
8, 1589340, Note_on_c, 6, 76, 73
8, 1589575, Note_off_c, 6, 76, 64
8, 1589575, Note_off_c, 6, 64, 64
8, 1589580, Note_on_c, 6, 60, 75
8, 1589580, Note_on_c, 6, 72, 75
8, 1590300, Note_off_c, 6, 72, 64
8, 1590300, Note_off_c, 6, 60, 64
8, 1590300, Note_on_c, 6, 55, 75
8, 1590300, Note_on_c, 6, 67, 75
8, 1590535, Note_off_c, 6, 67, 64
8, 1590535, Note_off_c, 6, 55, 64
8, 1590780, Note_on_c, 6, 64, 75
8, 1590780, Note_on_c, 6, 76, 75
8, 1591015, Note_off_c, 6, 76, 64
8, 1591015, Note_off_c, 6, 64, 64
8, 1591020, Note_on_c, 6, 60, 75
8, 1591020, Note_on_c, 6, 72, 75
8, 1591740, Note_off_c, 6, 72, 64
8, 1591740, Note_off_c, 6, 60, 64
8, 1591740, Note_on_c, 6, 55, 75
8, 1591740, Note_on_c, 6, 67, 75
8, 1591975, Note_off_c, 6, 67, 64
8, 1591975, Note_off_c, 6, 55, 64
8, 1592220, Note_on_c, 6, 64, 75
8, 1592220, Note_on_c, 6, 76, 75
8, 1592455, Note_off_c, 6, 76, 64
8, 1592455, Note_off_c, 6, 64, 64
8, 1603980, Note_on_c, 6, 60, 45
8, 1603980, Note_on_c, 6, 72, 45
8, 1604380, Note_off_c, 6, 72, 64
8, 1604380, Note_off_c, 6, 60, 64
8, 1627020, Note_on_c, 6, 60, 92
8, 1627020, Note_on_c, 6, 72, 92
8, 1628140, Note_off_c, 6, 72, 64
8, 1628140, Note_off_c, 6, 60, 64
8, 1628220, Note_on_c, 6, 60, 92
8, 1628220, Note_on_c, 6, 72, 92
8, 1628455, Note_off_c, 6, 72, 64
8, 1628455, Note_off_c, 6, 60, 64
8, 1628460, Note_on_c, 6, 60, 92
8, 1628460, Note_on_c, 6, 72, 92
8, 1629580, Note_off_c, 6, 72, 64
8, 1629580, Note_off_c, 6, 60, 64
8, 1629660, Note_on_c, 6, 60, 92
8, 1629660, Note_on_c, 6, 72, 92
8, 1629895, Note_off_c, 6, 72, 64
8, 1629895, Note_off_c, 6, 60, 64
8, 1629900, Note_on_c, 6, 60, 92
8, 1629900, Note_on_c, 6, 72, 92
8, 1631020, Note_off_c, 6, 72, 64
8, 1631020, Note_off_c, 6, 60, 64
8, 1631100, Note_on_c, 6, 60, 92
8, 1631100, Note_on_c, 6, 72, 92
8, 1631335, Note_off_c, 6, 72, 64
8, 1631335, Note_off_c, 6, 60, 64
8, 1631340, Note_on_c, 6, 74, 92
8, 1631740, Note_off_c, 6, 74, 64
8, 1632540, Note_on_c, 6, 60, 92
8, 1632540, Note_on_c, 6, 72, 92
8, 1632775, Note_off_c, 6, 72, 64
8, 1632775, Note_off_c, 6, 60, 64
8, 1632780, Note_on_c, 6, 72, 92
8, 1633900, Note_off_c, 6, 72, 64
8, 1633980, Note_on_c, 6, 72, 92
8, 1634215, Note_off_c, 6, 72, 64
8, 1634220, Note_on_c, 6, 72, 92
8, 1634860, Note_off_c, 6, 72, 64
8, 1634940, Note_on_c, 6, 74, 92
8, 1635175, Note_off_c, 6, 74, 64
8, 1636380, Note_on_c, 6, 72, 92
8, 1636780, Note_off_c, 6, 72, 64
8, 1636860, Note_on_c, 6, 72, 92
8, 1637095, Note_off_c, 6, 72, 64
8, 1637100, Note_on_c, 6, 72, 75
8, 1637335, Note_off_c, 6, 72, 64
8, 1639740, Note_on_c, 6, 60, 75
8, 1639740, Note_on_c, 6, 72, 75
8, 1639975, Note_off_c, 6, 72, 64
8, 1639975, Note_off_c, 6, 60, 64
8, 1639980, Note_on_c, 6, 60, 75
8, 1639980, Note_on_c, 6, 72, 75
8, 1642060, Note_off_c, 6, 72, 64
8, 1642060, Note_off_c, 6, 60, 64
8, 1642140, Note_on_c, 6, 60, 75
8, 1642140, Note_on_c, 6, 72, 75
8, 1642540, Note_off_c, 6, 72, 64
8, 1642540, Note_off_c, 6, 60, 64
8, 1642620, Note_on_c, 6, 60, 75
8, 1642620, Note_on_c, 6, 72, 75
8, 1642855, Note_off_c, 6, 72, 64
8, 1642855, Note_off_c, 6, 60, 64
8, 1651500, Note_on_c, 6, 60, 75
8, 1651500, Note_on_c, 6, 72, 75
8, 1652620, Note_off_c, 6, 72, 64
8, 1652620, Note_off_c, 6, 60, 64
8, 1654380, Note_on_c, 6, 60, 75
8, 1654380, Note_on_c, 6, 72, 75
8, 1655500, Note_off_c, 6, 72, 64
8, 1655500, Note_off_c, 6, 60, 64
8, 1657260, Note_on_c, 6, 60, 75
8, 1657260, Note_on_c, 6, 72, 75
8, 1657660, Note_off_c, 6, 72, 64
8, 1657660, Note_off_c, 6, 60, 64
8, 1657980, Note_on_c, 6, 60, 75
8, 1657980, Note_on_c, 6, 72, 75
8, 1658380, Note_off_c, 6, 72, 64
8, 1658380, Note_off_c, 6, 60, 64
8, 1660140, Note_on_c, 6, 60, 75
8, 1660140, Note_on_c, 6, 72, 75
8, 1660540, Note_off_c, 6, 72, 64
8, 1660540, Note_off_c, 6, 60, 64
8, 1660860, Note_on_c, 6, 60, 75
8, 1660860, Note_on_c, 6, 72, 75
8, 1661260, Note_off_c, 6, 72, 64
8, 1661260, Note_off_c, 6, 60, 64
8, 1665180, Note_on_c, 6, 60, 75
8, 1665180, Note_on_c, 6, 72, 75
8, 1665580, Note_off_c, 6, 72, 64
8, 1665580, Note_off_c, 6, 60, 64
8, 1665660, Note_on_c, 6, 60, 75
8, 1665660, Note_on_c, 6, 72, 75
8, 1665895, Note_off_c, 6, 72, 64
8, 1665895, Note_off_c, 6, 60, 64
8, 1668060, Note_on_c, 6, 60, 45
8, 1668060, Note_on_c, 6, 72, 45
8, 1668460, Note_off_c, 6, 72, 64
8, 1668460, Note_off_c, 6, 60, 64
8, 1668540, Note_on_c, 6, 60, 65
8, 1668540, Note_on_c, 6, 72, 65
8, 1668620, Note_off_c, 6, 72, 64
8, 1668620, Note_off_c, 6, 60, 64
8, 1668780, Note_on_c, 6, 60, 75
8, 1668780, Note_on_c, 6, 72, 75
8, 1669420, Note_off_c, 6, 72, 64
8, 1669420, Note_off_c, 6, 60, 64
8, 1669500, Note_on_c, 6, 60, 75
8, 1669500, Note_on_c, 6, 72, 75
8, 1669735, Note_off_c, 6, 72, 64
8, 1669735, Note_off_c, 6, 60, 64
8, 1671660, Note_on_c, 6, 60, 60
8, 1671660, Note_on_c, 6, 72, 60
8, 1671895, Note_off_c, 6, 72, 64
8, 1671895, Note_off_c, 6, 60, 64
8, 1709340, Note_on_c, 6, 60, 75
8, 1709340, Note_on_c, 6, 72, 75
8, 1711900, Note_off_c, 6, 72, 64
8, 1711900, Note_off_c, 6, 60, 64
8, 1711980, Note_on_c, 6, 60, 75
8, 1711980, Note_on_c, 6, 72, 75
8, 1712215, Note_off_c, 6, 72, 64
8, 1712215, Note_off_c, 6, 60, 64
8, 1712220, Note_on_c, 6, 74, 75
8, 1714780, Note_off_c, 6, 74, 64
8, 1715100, Note_on_c, 6, 55, 75
8, 1715100, Note_on_c, 6, 67, 75
8, 1717660, Note_off_c, 6, 67, 64
8, 1717660, Note_off_c, 6, 55, 64
8, 1729260, Note_on_c, 6, 60, 75
8, 1729260, Note_on_c, 6, 72, 75
8, 1730620, Note_off_c, 6, 72, 64
8, 1730620, Note_off_c, 6, 60, 64
8, 1730700, Note_on_c, 6, 60, 75
8, 1730700, Note_on_c, 6, 72, 75
8, 1731340, Note_off_c, 6, 72, 64
8, 1731340, Note_off_c, 6, 60, 64
8, 1731420, Note_on_c, 6, 60, 75
8, 1731420, Note_on_c, 6, 72, 75
8, 1732135, Note_off_c, 6, 72, 64
8, 1732135, Note_off_c, 6, 60, 64
8, 1732140, Note_on_c, 6, 60, 75
8, 1732140, Note_on_c, 6, 72, 75
8, 1732380, Note_off_c, 6, 72, 64
8, 1732380, Note_off_c, 6, 60, 64
8, 1732380, Note_on_c, 6, 69, 75
8, 1732780, Note_off_c, 6, 69, 64
8, 1751100, Note_on_c, 6, 57, 75
8, 1751100, Note_on_c, 6, 72, 75
8, 1753660, Note_off_c, 6, 72, 64
8, 1753660, Note_off_c, 6, 57, 64
8, 1753980, Note_on_c, 6, 74, 75
8, 1756540, Note_off_c, 6, 74, 64
8, 1756860, Note_on_c, 6, 55, 75
8, 1756860, Note_on_c, 6, 67, 75
8, 1759420, Note_off_c, 6, 67, 64
8, 1759420, Note_off_c, 6, 55, 64
8, 1759740, Note_on_c, 6, 60, 75
8, 1759740, Note_on_c, 6, 72, 75
8, 1762300, Note_off_c, 6, 72, 64
8, 1762300, Note_off_c, 6, 60, 64
8, 1762620, Note_on_c, 6, 60, 75
8, 1762620, Note_on_c, 6, 72, 75
8, 1765180, Note_off_c, 6, 72, 64
8, 1765180, Note_off_c, 6, 60, 64
8, 1766220, Note_on_c, 6, 74, 75
8, 1766860, Note_off_c, 6, 74, 64
8, 1767660, Note_on_c, 6, 74, 75
8, 1768300, Note_off_c, 6, 74, 64
8, 1802760, Note_on_c, 6, 60, 75
8, 1802760, Note_on_c, 6, 72, 75
8, 1805640, Note_off_c, 6, 72, 64
8, 1805640, Note_off_c, 6, 60, 64
8, 1805640, Note_on_c, 6, 60, 60
8, 1805640, Note_on_c, 6, 72, 60
8, 1807080, Note_off_c, 6, 72, 64
8, 1807080, Note_off_c, 6, 60, 64
8, 1807080, Note_on_c, 6, 60, 45
8, 1807080, Note_on_c, 6, 72, 45
8, 1808400, Note_off_c, 6, 72, 64
8, 1808400, Note_off_c, 6, 60, 64
8, 1817040, Note_on_c, 6, 60, 75
8, 1817040, Note_on_c, 6, 72, 75
8, 1817275, Note_off_c, 6, 72, 64
8, 1817275, Note_off_c, 6, 60, 64
8, 1817280, Note_on_c, 6, 60, 75
8, 1817280, Note_on_c, 6, 72, 75
8, 1818040, Note_off_c, 6, 72, 64
8, 1818040, Note_off_c, 6, 60, 64
8, 1818040, End_track
9, 0, Start_track
9, 0, MIDI_port, 0
9, 0, Channel_prefix, 7
9, 0, Control_c, 7, 7, 127
9, 0, Control_c, 7, 10, 85
9, 0, Control_c, 7, 91, 95
9, 0, Program_c, 7, 57
9, 1342320, Note_on_c, 7, 60, 75
9, 1342320, Note_on_c, 7, 72, 75
9, 1350360, Note_off_c, 7, 72, 64
9, 1350360, Note_off_c, 7, 60, 64
9, 1350480, Note_on_c, 7, 60, 75
9, 1350480, Note_on_c, 7, 72, 75
9, 1352400, Note_off_c, 7, 72, 64
9, 1352400, Note_off_c, 7, 60, 64
9, 1352400, Note_on_c, 7, 53, 105
9, 1352400, Note_on_c, 7, 65, 105
9, 1354200, Note_off_c, 7, 65, 64
9, 1354200, Note_off_c, 7, 53, 64
9, 1354320, Note_on_c, 7, 53, 75
9, 1354320, Note_on_c, 7, 65, 75
9, 1356240, Note_off_c, 7, 65, 64
9, 1356240, Note_off_c, 7, 53, 64
9, 1356240, Note_on_c, 7, 55, 105
9, 1356240, Note_on_c, 7, 67, 105
9, 1358040, Note_off_c, 7, 67, 64
9, 1358040, Note_off_c, 7, 55, 64
9, 1360080, Note_on_c, 7, 60, 105
9, 1360080, Note_on_c, 7, 72, 105
9, 1361880, Note_off_c, 7, 72, 64
9, 1361880, Note_off_c, 7, 60, 64
9, 1362000, Note_on_c, 7, 53, 75
9, 1362000, Note_on_c, 7, 65, 75
9, 1363920, Note_off_c, 7, 65, 64
9, 1363920, Note_off_c, 7, 53, 64
9, 1363920, Note_on_c, 7, 55, 105
9, 1363920, Note_on_c, 7, 67, 105
9, 1365720, Note_off_c, 7, 67, 64
9, 1365720, Note_off_c, 7, 55, 64
9, 1365840, Note_on_c, 7, 56, 45
9, 1365840, Note_on_c, 7, 68, 45
9, 1366240, Note_off_c, 7, 68, 64
9, 1366240, Note_off_c, 7, 56, 64
9, 1471500, Note_on_c, 7, 57, 92
9, 1471500, Note_on_c, 7, 69, 92
9, 1472820, Note_off_c, 7, 69, 64
9, 1472820, Note_off_c, 7, 57, 64
9, 1472940, Note_on_c, 7, 57, 92
9, 1472940, Note_on_c, 7, 69, 92
9, 1474260, Note_off_c, 7, 69, 64
9, 1474260, Note_off_c, 7, 57, 64
9, 1474380, Note_on_c, 7, 57, 92
9, 1474380, Note_on_c, 7, 69, 92
9, 1475700, Note_off_c, 7, 69, 64
9, 1475700, Note_off_c, 7, 57, 64
9, 1475820, Note_on_c, 7, 58, 92
9, 1475820, Note_on_c, 7, 70, 92
9, 1476940, Note_off_c, 7, 70, 64
9, 1476940, Note_off_c, 7, 58, 64
9, 1477260, Note_on_c, 7, 67, 92
9, 1477260, Note_on_c, 7, 70, 92
9, 1477900, Note_off_c, 7, 70, 64
9, 1477900, Note_off_c, 7, 67, 64
9, 1477980, Note_on_c, 7, 67, 92
9, 1478380, Note_off_c, 7, 67, 64
9, 1478700, Note_on_c, 7, 65, 92
9, 1478700, Note_on_c, 7, 69, 92
9, 1479420, Note_off_c, 7, 69, 64
9, 1479420, Note_off_c, 7, 65, 64
9, 1479420, Note_on_c, 7, 65, 92
9, 1479820, Note_off_c, 7, 65, 64
9, 1480860, Note_on_c, 7, 48, 92
9, 1480860, Note_on_c, 7, 67, 92
9, 1481580, Note_off_c, 7, 67, 64
9, 1481580, Note_off_c, 7, 48, 64
9, 1481580, Note_on_c, 7, 53, 75
9, 1481580, Note_on_c, 7, 65, 75
9, 1481980, Note_off_c, 7, 65, 64
9, 1481980, Note_off_c, 7, 53, 64
9, 1489980, Note_on_c, 7, 48, 75
9, 1489980, Note_on_c, 7, 60, 75
9, 1490215, Note_off_c, 7, 60, 64
9, 1490215, Note_off_c, 7, 48, 64
9, 1490220, Note_on_c, 7, 48, 75
9, 1490220, Note_on_c, 7, 60, 75
9, 1492300, Note_off_c, 7, 60, 64
9, 1492300, Note_off_c, 7, 48, 64
9, 1492380, Note_on_c, 7, 48, 75
9, 1492380, Note_on_c, 7, 60, 75
9, 1492780, Note_off_c, 7, 60, 64
9, 1492780, Note_off_c, 7, 48, 64
9, 1492860, Note_on_c, 7, 48, 75
9, 1492860, Note_on_c, 7, 60, 75
9, 1493095, Note_off_c, 7, 60, 64
9, 1493095, Note_off_c, 7, 48, 64
9, 1495980, Note_on_c, 7, 64, 75
9, 1495980, Note_on_c, 7, 67, 75
9, 1497100, Note_off_c, 7, 67, 64
9, 1497100, Note_off_c, 7, 64, 64
9, 1498860, Note_on_c, 7, 62, 75
9, 1498860, Note_on_c, 7, 65, 75
9, 1499980, Note_off_c, 7, 65, 64
9, 1499980, Note_off_c, 7, 62, 64
9, 1501740, Note_on_c, 7, 64, 75
9, 1501740, Note_on_c, 7, 67, 75
9, 1503580, Note_off_c, 7, 67, 64
9, 1503580, Note_off_c, 7, 64, 64
9, 1504620, Note_on_c, 7, 62, 75
9, 1504620, Note_on_c, 7, 65, 75
9, 1506460, Note_off_c, 7, 65, 64
9, 1506460, Note_off_c, 7, 62, 64
9, 1513260, Note_on_c, 7, 64, 75
9, 1513260, Note_on_c, 7, 72, 75
9, 1513980, Note_off_c, 7, 72, 64
9, 1513980, Note_off_c, 7, 64, 64
9, 1513980, Note_on_c, 7, 64, 75
9, 1513980, Note_on_c, 7, 67, 75
9, 1514215, Note_off_c, 7, 67, 64
9, 1514215, Note_off_c, 7, 64, 64
9, 1514700, Note_on_c, 7, 65, 75
9, 1514700, Note_on_c, 7, 74, 75
9, 1515420, Note_off_c, 7, 74, 64
9, 1515420, Note_off_c, 7, 65, 64
9, 1515420, Note_on_c, 7, 65, 75
9, 1515420, Note_on_c, 7, 69, 75
9, 1515655, Note_off_c, 7, 69, 64
9, 1515655, Note_off_c, 7, 65, 64
9, 1580940, Note_on_c, 7, 62, 75
9, 1580940, Note_on_c, 7, 71, 75
9, 1581340, Note_off_c, 7, 71, 64
9, 1581340, Note_off_c, 7, 62, 64
9, 1582380, Note_on_c, 7, 64, 75
9, 1582380, Note_on_c, 7, 72, 75
9, 1582780, Note_off_c, 7, 72, 64
9, 1582780, Note_off_c, 7, 64, 64
9, 1586700, Note_on_c, 7, 62, 60
9, 1586700, Note_on_c, 7, 71, 60
9, 1587100, Note_off_c, 7, 71, 64
9, 1587100, Note_off_c, 7, 62, 64
9, 1588140, Note_on_c, 7, 64, 66
9, 1588140, Note_on_c, 7, 72, 66
9, 1588540, Note_off_c, 7, 72, 64
9, 1588540, Note_off_c, 7, 64, 64
9, 1589580, Note_on_c, 7, 64, 75
9, 1589580, Note_on_c, 7, 72, 75
9, 1590535, Note_off_c, 7, 72, 64
9, 1590535, Note_off_c, 7, 64, 64
9, 1591020, Note_on_c, 7, 64, 75
9, 1591020, Note_on_c, 7, 72, 75
9, 1591975, Note_off_c, 7, 72, 64
9, 1591975, Note_off_c, 7, 64, 64
9, 1627020, Note_on_c, 7, 65, 92
9, 1627020, Note_on_c, 7, 69, 92
9, 1627420, Note_off_c, 7, 69, 64
9, 1627420, Note_off_c, 7, 65, 64
9, 1628460, Note_on_c, 7, 65, 92
9, 1628460, Note_on_c, 7, 69, 92
9, 1628860, Note_off_c, 7, 69, 64
9, 1628860, Note_off_c, 7, 65, 64
9, 1629900, Note_on_c, 7, 65, 92
9, 1629900, Note_on_c, 7, 69, 92
9, 1630300, Note_off_c, 7, 69, 64
9, 1630300, Note_off_c, 7, 65, 64
9, 1631340, Note_on_c, 7, 65, 92
9, 1631340, Note_on_c, 7, 70, 92
9, 1631740, Note_off_c, 7, 70, 64
9, 1631740, Note_off_c, 7, 65, 64
9, 1632780, Note_on_c, 7, 67, 92
9, 1632780, Note_on_c, 7, 70, 92
9, 1633180, Note_off_c, 7, 70, 64
9, 1633180, Note_off_c, 7, 67, 64
9, 1634220, Note_on_c, 7, 57, 92
9, 1634220, Note_on_c, 7, 69, 92
9, 1634620, Note_off_c, 7, 69, 64
9, 1634620, Note_off_c, 7, 57, 64
9, 1634940, Note_on_c, 7, 62, 92
9, 1634940, Note_on_c, 7, 69, 92
9, 1635340, Note_off_c, 7, 69, 64
9, 1635340, Note_off_c, 7, 62, 64
9, 1635660, Note_on_c, 7, 58, 92
9, 1635660, Note_on_c, 7, 67, 92
9, 1636060, Note_off_c, 7, 67, 64
9, 1636060, Note_off_c, 7, 58, 64
9, 1636380, Note_on_c, 7, 60, 92
9, 1636380, Note_on_c, 7, 67, 92
9, 1636780, Note_off_c, 7, 67, 64
9, 1636780, Note_off_c, 7, 60, 64
9, 1637100, Note_on_c, 7, 53, 75
9, 1637100, Note_on_c, 7, 65, 75
9, 1637500, Note_off_c, 7, 65, 64
9, 1637500, Note_off_c, 7, 53, 64
9, 1651500, Note_on_c, 7, 65, 75
9, 1651500, Note_on_c, 7, 69, 75
9, 1652620, Note_off_c, 7, 69, 64
9, 1652620, Note_off_c, 7, 65, 64
9, 1654380, Note_on_c, 7, 64, 75
9, 1654380, Note_on_c, 7, 70, 75
9, 1655500, Note_off_c, 7, 70, 64
9, 1655500, Note_off_c, 7, 64, 64
9, 1657260, Note_on_c, 7, 65, 75
9, 1657260, Note_on_c, 7, 69, 75
9, 1657660, Note_off_c, 7, 69, 64
9, 1657660, Note_off_c, 7, 65, 64
9, 1657980, Note_on_c, 7, 65, 75
9, 1657980, Note_on_c, 7, 69, 75
9, 1658380, Note_off_c, 7, 69, 64
9, 1658380, Note_off_c, 7, 65, 64
9, 1660140, Note_on_c, 7, 64, 75
9, 1660140, Note_on_c, 7, 70, 75
9, 1660540, Note_off_c, 7, 70, 64
9, 1660540, Note_off_c, 7, 64, 64
9, 1660860, Note_on_c, 7, 64, 75
9, 1660860, Note_on_c, 7, 70, 75
9, 1661260, Note_off_c, 7, 70, 64
9, 1661260, Note_off_c, 7, 64, 64
9, 1663020, Note_on_c, 7, 53, 75
9, 1663020, Note_on_c, 7, 65, 75
9, 1663420, Note_off_c, 7, 65, 64
9, 1663420, Note_off_c, 7, 53, 64
9, 1665900, Note_on_c, 7, 53, 92
9, 1665900, Note_on_c, 7, 65, 92
9, 1666300, Note_off_c, 7, 65, 64
9, 1666300, Note_off_c, 7, 53, 64
9, 1668780, Note_on_c, 7, 65, 75
9, 1668780, Note_on_c, 7, 69, 75
9, 1669420, Note_off_c, 7, 69, 64
9, 1669420, Note_off_c, 7, 65, 64
9, 1669500, Note_on_c, 7, 65, 75
9, 1669500, Note_on_c, 7, 69, 75
9, 1669735, Note_off_c, 7, 69, 64
9, 1669735, Note_off_c, 7, 65, 64
9, 1670220, Note_on_c, 7, 58, 75
9, 1670220, Note_on_c, 7, 70, 75
9, 1670860, Note_off_c, 7, 70, 64
9, 1670860, Note_off_c, 7, 58, 64
9, 1670940, Note_on_c, 7, 58, 75
9, 1670940, Note_on_c, 7, 70, 75
9, 1671175, Note_off_c, 7, 70, 64
9, 1671175, Note_off_c, 7, 58, 64
9, 1671660, Note_on_c, 7, 60, 60
9, 1671660, Note_on_c, 7, 69, 60
9, 1671895, Note_off_c, 7, 69, 64
9, 1671895, Note_off_c, 7, 60, 64
9, 1709340, Note_on_c, 7, 57, 75
9, 1709340, Note_on_c, 7, 69, 75
9, 1711900, Note_off_c, 7, 69, 64
9, 1711900, Note_off_c, 7, 57, 64
9, 1711980, Note_on_c, 7, 57, 75
9, 1711980, Note_on_c, 7, 69, 75
9, 1712215, Note_off_c, 7, 69, 64
9, 1712215, Note_off_c, 7, 57, 64
9, 1712220, Note_on_c, 7, 62, 75
9, 1712220, Note_on_c, 7, 69, 75
9, 1714780, Note_off_c, 7, 69, 64
9, 1714780, Note_off_c, 7, 62, 64
9, 1715100, Note_on_c, 7, 62, 75
9, 1715100, Note_on_c, 7, 74, 75
9, 1717660, Note_off_c, 7, 74, 64
9, 1717660, Note_off_c, 7, 62, 64
9, 1751100, Note_on_c, 7, 53, 75
9, 1751100, Note_on_c, 7, 69, 75
9, 1753660, Note_off_c, 7, 69, 64
9, 1753660, Note_off_c, 7, 53, 64
9, 1753980, Note_on_c, 7, 50, 75
9, 1753980, Note_on_c, 7, 69, 75
9, 1756540, Note_off_c, 7, 69, 64
9, 1756540, Note_off_c, 7, 50, 64
9, 1756860, Note_on_c, 7, 55, 75
9, 1756860, Note_on_c, 7, 71, 75
9, 1759420, Note_off_c, 7, 71, 64
9, 1759420, Note_off_c, 7, 55, 64
9, 1759740, Note_on_c, 7, 48, 75
9, 1759740, Note_on_c, 7, 72, 75
9, 1762300, Note_off_c, 7, 72, 64
9, 1762300, Note_off_c, 7, 48, 64
9, 1762620, Note_on_c, 7, 53, 75
9, 1762620, Note_on_c, 7, 72, 75
9, 1765380, Note_off_c, 7, 72, 64
9, 1765380, Note_off_c, 7, 53, 64
9, 1765500, Note_on_c, 7, 53, 75
9, 1765500, Note_on_c, 7, 70, 75
9, 1766220, Note_off_c, 7, 70, 64
9, 1766220, Note_off_c, 7, 53, 64
9, 1766220, Note_on_c, 7, 62, 75
9, 1766220, Note_on_c, 7, 65, 75
9, 1766940, Note_off_c, 7, 65, 64
9, 1766940, Note_off_c, 7, 62, 64
9, 1766940, Note_on_c, 7, 62, 75
9, 1766940, Note_on_c, 7, 65, 75
9, 1767660, Note_off_c, 7, 65, 64
9, 1767660, Note_off_c, 7, 62, 64
9, 1767660, Note_on_c, 7, 62, 75
9, 1767660, Note_on_c, 7, 65, 75
9, 1768300, Note_off_c, 7, 65, 64
9, 1768300, Note_off_c, 7, 62, 64
9, 1804200, Note_on_c, 7, 67, 75
9, 1804200, Note_on_c, 7, 70, 75
9, 1806040, Note_off_c, 7, 70, 64
9, 1806040, Note_off_c, 7, 67, 64
9, 1817280, Note_on_c, 7, 53, 92
9, 1817280, Note_on_c, 7, 65, 92
9, 1818040, Note_off_c, 7, 65, 64
9, 1818040, Note_off_c, 7, 53, 64
9, 1818040, End_track
10, 0, Start_track
10, 0, MIDI_port, 0
10, 0, Channel_prefix, 8
10, 0, Control_c, 8, 7, 127
10, 0, Control_c, 8, 10, 45
10, 0, Control_c, 8, 91, 95
10, 0, Program_c, 8, 47
10, 1177680, Note_on_c, 8, 43, 75
10, 1177795, Note_off_c, 8, 43, 64
10, 1177800, Note_on_c, 8, 43, 75
10, 1177915, Note_off_c, 8, 43, 64
10, 1177920, Note_on_c, 8, 43, 75
10, 1178035, Note_off_c, 8, 43, 64
10, 1178040, Note_on_c, 8, 43, 75
10, 1178155, Note_off_c, 8, 43, 64
10, 1178160, Note_on_c, 8, 43, 75
10, 1178275, Note_off_c, 8, 43, 64
10, 1178280, Note_on_c, 8, 43, 75
10, 1178395, Note_off_c, 8, 43, 64
10, 1178400, Note_on_c, 8, 43, 75
10, 1178515, Note_off_c, 8, 43, 64
10, 1178520, Note_on_c, 8, 43, 75
10, 1178635, Note_off_c, 8, 43, 64
10, 1178640, Note_on_c, 8, 43, 75
10, 1178755, Note_off_c, 8, 43, 64
10, 1178760, Note_on_c, 8, 43, 75
10, 1178875, Note_off_c, 8, 43, 64
10, 1178880, Note_on_c, 8, 43, 75
10, 1178995, Note_off_c, 8, 43, 64
10, 1179000, Note_on_c, 8, 43, 75
10, 1179115, Note_off_c, 8, 43, 64
10, 1179120, Note_on_c, 8, 43, 75
10, 1179235, Note_off_c, 8, 43, 64
10, 1179240, Note_on_c, 8, 43, 75
10, 1179355, Note_off_c, 8, 43, 64
10, 1179360, Note_on_c, 8, 43, 75
10, 1179475, Note_off_c, 8, 43, 64
10, 1179480, Note_on_c, 8, 43, 75
10, 1179595, Note_off_c, 8, 43, 64
10, 1179600, Note_on_c, 8, 43, 75
10, 1179715, Note_off_c, 8, 43, 64
10, 1179720, Note_on_c, 8, 43, 75
10, 1179835, Note_off_c, 8, 43, 64
10, 1179840, Note_on_c, 8, 43, 75
10, 1179955, Note_off_c, 8, 43, 64
10, 1179960, Note_on_c, 8, 43, 75
10, 1180075, Note_off_c, 8, 43, 64
10, 1180080, Note_on_c, 8, 43, 75
10, 1180195, Note_off_c, 8, 43, 64
10, 1180200, Note_on_c, 8, 43, 75
10, 1180315, Note_off_c, 8, 43, 64
10, 1180320, Note_on_c, 8, 43, 75
10, 1180435, Note_off_c, 8, 43, 64
10, 1180440, Note_on_c, 8, 43, 75
10, 1180555, Note_off_c, 8, 43, 64
10, 1180560, Note_on_c, 8, 43, 75
10, 1180675, Note_off_c, 8, 43, 64
10, 1180680, Note_on_c, 8, 43, 75
10, 1180795, Note_off_c, 8, 43, 64
10, 1180800, Note_on_c, 8, 43, 75
10, 1180915, Note_off_c, 8, 43, 64
10, 1180920, Note_on_c, 8, 43, 75
10, 1181035, Note_off_c, 8, 43, 64
10, 1181040, Note_on_c, 8, 43, 75
10, 1181155, Note_off_c, 8, 43, 64
10, 1181160, Note_on_c, 8, 43, 75
10, 1181275, Note_off_c, 8, 43, 64
10, 1181280, Note_on_c, 8, 43, 75
10, 1181395, Note_off_c, 8, 43, 64
10, 1181400, Note_on_c, 8, 43, 75
10, 1181515, Note_off_c, 8, 43, 64
10, 1181520, Note_on_c, 8, 43, 75
10, 1181635, Note_off_c, 8, 43, 64
10, 1181640, Note_on_c, 8, 43, 75
10, 1181755, Note_off_c, 8, 43, 64
10, 1181760, Note_on_c, 8, 43, 75
10, 1181875, Note_off_c, 8, 43, 64
10, 1181880, Note_on_c, 8, 43, 75
10, 1181995, Note_off_c, 8, 43, 64
10, 1182000, Note_on_c, 8, 43, 75
10, 1182115, Note_off_c, 8, 43, 64
10, 1182120, Note_on_c, 8, 43, 75
10, 1182235, Note_off_c, 8, 43, 64
10, 1182240, Note_on_c, 8, 43, 75
10, 1182355, Note_off_c, 8, 43, 64
10, 1182360, Note_on_c, 8, 43, 75
10, 1182475, Note_off_c, 8, 43, 64
10, 1182480, Note_on_c, 8, 43, 75
10, 1182595, Note_off_c, 8, 43, 64
10, 1182600, Note_on_c, 8, 43, 75
10, 1182715, Note_off_c, 8, 43, 64
10, 1182720, Note_on_c, 8, 43, 75
10, 1182835, Note_off_c, 8, 43, 64
10, 1182840, Note_on_c, 8, 43, 75
10, 1182955, Note_off_c, 8, 43, 64
10, 1182960, Note_on_c, 8, 43, 75
10, 1183075, Note_off_c, 8, 43, 64
10, 1183080, Note_on_c, 8, 43, 75
10, 1183195, Note_off_c, 8, 43, 64
10, 1183200, Note_on_c, 8, 43, 75
10, 1183315, Note_off_c, 8, 43, 64
10, 1183320, Note_on_c, 8, 43, 75
10, 1183435, Note_off_c, 8, 43, 64
10, 1183440, Note_on_c, 8, 43, 75
10, 1183555, Note_off_c, 8, 43, 64
10, 1183560, Note_on_c, 8, 43, 75
10, 1183675, Note_off_c, 8, 43, 64
10, 1183680, Note_on_c, 8, 43, 75
10, 1183795, Note_off_c, 8, 43, 64
10, 1183800, Note_on_c, 8, 43, 75
10, 1183915, Note_off_c, 8, 43, 64
10, 1183920, Note_on_c, 8, 43, 75
10, 1184035, Note_off_c, 8, 43, 64
10, 1184040, Note_on_c, 8, 43, 75
10, 1184155, Note_off_c, 8, 43, 64
10, 1184160, Note_on_c, 8, 43, 75
10, 1184275, Note_off_c, 8, 43, 64
10, 1184280, Note_on_c, 8, 43, 75
10, 1184395, Note_off_c, 8, 43, 64
10, 1184400, Note_on_c, 8, 43, 75
10, 1184515, Note_off_c, 8, 43, 64
10, 1184520, Note_on_c, 8, 43, 75
10, 1184635, Note_off_c, 8, 43, 64
10, 1184640, Note_on_c, 8, 43, 75
10, 1184755, Note_off_c, 8, 43, 64
10, 1184760, Note_on_c, 8, 43, 75
10, 1184875, Note_off_c, 8, 43, 64
10, 1184880, Note_on_c, 8, 43, 75
10, 1184995, Note_off_c, 8, 43, 64
10, 1185000, Note_on_c, 8, 43, 75
10, 1185115, Note_off_c, 8, 43, 64
10, 1185120, Note_on_c, 8, 43, 75
10, 1185235, Note_off_c, 8, 43, 64
10, 1185240, Note_on_c, 8, 43, 75
10, 1185355, Note_off_c, 8, 43, 64
10, 1193040, Note_on_c, 8, 43, 75
10, 1193155, Note_off_c, 8, 43, 64
10, 1193160, Note_on_c, 8, 43, 75
10, 1193275, Note_off_c, 8, 43, 64
10, 1193280, Note_on_c, 8, 43, 75
10, 1193395, Note_off_c, 8, 43, 64
10, 1193400, Note_on_c, 8, 43, 75
10, 1193515, Note_off_c, 8, 43, 64
10, 1193520, Note_on_c, 8, 43, 75
10, 1193635, Note_off_c, 8, 43, 64
10, 1193640, Note_on_c, 8, 43, 75
10, 1193755, Note_off_c, 8, 43, 64
10, 1193760, Note_on_c, 8, 43, 75
10, 1193875, Note_off_c, 8, 43, 64
10, 1193880, Note_on_c, 8, 43, 75
10, 1193995, Note_off_c, 8, 43, 64
10, 1194000, Note_on_c, 8, 43, 75
10, 1194115, Note_off_c, 8, 43, 64
10, 1194120, Note_on_c, 8, 43, 75
10, 1194235, Note_off_c, 8, 43, 64
10, 1194240, Note_on_c, 8, 43, 75
10, 1194355, Note_off_c, 8, 43, 64
10, 1194360, Note_on_c, 8, 43, 75
10, 1194475, Note_off_c, 8, 43, 64
10, 1194480, Note_on_c, 8, 43, 75
10, 1194595, Note_off_c, 8, 43, 64
10, 1194600, Note_on_c, 8, 43, 75
10, 1194715, Note_off_c, 8, 43, 64
10, 1194720, Note_on_c, 8, 43, 75
10, 1194835, Note_off_c, 8, 43, 64
10, 1194840, Note_on_c, 8, 43, 75
10, 1194955, Note_off_c, 8, 43, 64
10, 1194960, Note_on_c, 8, 43, 75
10, 1195075, Note_off_c, 8, 43, 64
10, 1195080, Note_on_c, 8, 43, 75
10, 1195195, Note_off_c, 8, 43, 64
10, 1195200, Note_on_c, 8, 43, 75
10, 1195315, Note_off_c, 8, 43, 64
10, 1195320, Note_on_c, 8, 43, 75
10, 1195435, Note_off_c, 8, 43, 64
10, 1195440, Note_on_c, 8, 43, 75
10, 1195555, Note_off_c, 8, 43, 64
10, 1195560, Note_on_c, 8, 43, 75
10, 1195675, Note_off_c, 8, 43, 64
10, 1195680, Note_on_c, 8, 43, 75
10, 1195795, Note_off_c, 8, 43, 64
10, 1195800, Note_on_c, 8, 43, 75
10, 1195915, Note_off_c, 8, 43, 64
10, 1195920, Note_on_c, 8, 43, 75
10, 1196035, Note_off_c, 8, 43, 64
10, 1196040, Note_on_c, 8, 43, 75
10, 1196155, Note_off_c, 8, 43, 64
10, 1196160, Note_on_c, 8, 43, 75
10, 1196275, Note_off_c, 8, 43, 64
10, 1196280, Note_on_c, 8, 43, 75
10, 1196395, Note_off_c, 8, 43, 64
10, 1196400, Note_on_c, 8, 43, 75
10, 1196515, Note_off_c, 8, 43, 64
10, 1196520, Note_on_c, 8, 43, 75
10, 1196635, Note_off_c, 8, 43, 64
10, 1196640, Note_on_c, 8, 43, 75
10, 1196755, Note_off_c, 8, 43, 64
10, 1196760, Note_on_c, 8, 43, 75
10, 1196875, Note_off_c, 8, 43, 64
10, 1196880, Note_on_c, 8, 43, 75
10, 1196995, Note_off_c, 8, 43, 64
10, 1197000, Note_on_c, 8, 43, 75
10, 1197115, Note_off_c, 8, 43, 64
10, 1197120, Note_on_c, 8, 43, 75
10, 1197235, Note_off_c, 8, 43, 64
10, 1197240, Note_on_c, 8, 43, 75
10, 1197355, Note_off_c, 8, 43, 64
10, 1197360, Note_on_c, 8, 43, 75
10, 1197475, Note_off_c, 8, 43, 64
10, 1197480, Note_on_c, 8, 43, 75
10, 1197595, Note_off_c, 8, 43, 64
10, 1197600, Note_on_c, 8, 43, 75
10, 1197715, Note_off_c, 8, 43, 64
10, 1197720, Note_on_c, 8, 43, 75
10, 1197835, Note_off_c, 8, 43, 64
10, 1197840, Note_on_c, 8, 43, 75
10, 1197955, Note_off_c, 8, 43, 64
10, 1197960, Note_on_c, 8, 43, 75
10, 1198075, Note_off_c, 8, 43, 64
10, 1198080, Note_on_c, 8, 43, 75
10, 1198195, Note_off_c, 8, 43, 64
10, 1198200, Note_on_c, 8, 43, 75
10, 1198315, Note_off_c, 8, 43, 64
10, 1198320, Note_on_c, 8, 43, 75
10, 1198435, Note_off_c, 8, 43, 64
10, 1198440, Note_on_c, 8, 43, 75
10, 1198555, Note_off_c, 8, 43, 64
10, 1198560, Note_on_c, 8, 43, 75
10, 1198675, Note_off_c, 8, 43, 64
10, 1198680, Note_on_c, 8, 43, 75
10, 1198795, Note_off_c, 8, 43, 64
10, 1198800, Note_on_c, 8, 43, 75
10, 1198915, Note_off_c, 8, 43, 64
10, 1198920, Note_on_c, 8, 43, 75
10, 1199035, Note_off_c, 8, 43, 64
10, 1199040, Note_on_c, 8, 43, 75
10, 1199155, Note_off_c, 8, 43, 64
10, 1199160, Note_on_c, 8, 43, 75
10, 1199275, Note_off_c, 8, 43, 64
10, 1199280, Note_on_c, 8, 43, 75
10, 1199395, Note_off_c, 8, 43, 64
10, 1199400, Note_on_c, 8, 43, 75
10, 1199515, Note_off_c, 8, 43, 64
10, 1199520, Note_on_c, 8, 43, 75
10, 1199635, Note_off_c, 8, 43, 64
10, 1199640, Note_on_c, 8, 43, 75
10, 1199755, Note_off_c, 8, 43, 64
10, 1199760, Note_on_c, 8, 43, 75
10, 1199875, Note_off_c, 8, 43, 64
10, 1199880, Note_on_c, 8, 43, 75
10, 1199995, Note_off_c, 8, 43, 64
10, 1200000, Note_on_c, 8, 43, 75
10, 1200115, Note_off_c, 8, 43, 64
10, 1200120, Note_on_c, 8, 43, 75
10, 1200235, Note_off_c, 8, 43, 64
10, 1200240, Note_on_c, 8, 43, 75
10, 1200355, Note_off_c, 8, 43, 64
10, 1200360, Note_on_c, 8, 43, 75
10, 1200475, Note_off_c, 8, 43, 64
10, 1200480, Note_on_c, 8, 43, 75
10, 1200595, Note_off_c, 8, 43, 64
10, 1200600, Note_on_c, 8, 43, 75
10, 1200715, Note_off_c, 8, 43, 64
10, 1200720, Note_on_c, 8, 41, 105
10, 1201120, Note_off_c, 8, 41, 64
10, 1202640, Note_on_c, 8, 41, 75
10, 1203040, Note_off_c, 8, 41, 64
10, 1204560, Note_on_c, 8, 48, 75
10, 1204960, Note_off_c, 8, 48, 64
10, 1205520, Note_on_c, 8, 48, 75
10, 1205635, Note_off_c, 8, 48, 64
10, 1205640, Note_on_c, 8, 48, 75
10, 1205755, Note_off_c, 8, 48, 64
10, 1205760, Note_on_c, 8, 48, 75
10, 1205875, Note_off_c, 8, 48, 64
10, 1205880, Note_on_c, 8, 48, 75
10, 1205995, Note_off_c, 8, 48, 64
10, 1206000, Note_on_c, 8, 48, 75
10, 1206115, Note_off_c, 8, 48, 64
10, 1206120, Note_on_c, 8, 48, 75
10, 1206235, Note_off_c, 8, 48, 64
10, 1206240, Note_on_c, 8, 48, 75
10, 1206355, Note_off_c, 8, 48, 64
10, 1206360, Note_on_c, 8, 48, 75
10, 1206475, Note_off_c, 8, 48, 64
10, 1206480, Note_on_c, 8, 48, 75
10, 1206880, Note_off_c, 8, 48, 64
10, 1208400, Note_on_c, 8, 48, 75
10, 1208800, Note_off_c, 8, 48, 64
10, 1209360, Note_on_c, 8, 48, 75
10, 1209475, Note_off_c, 8, 48, 64
10, 1209480, Note_on_c, 8, 48, 75
10, 1209595, Note_off_c, 8, 48, 64
10, 1209600, Note_on_c, 8, 48, 75
10, 1209715, Note_off_c, 8, 48, 64
10, 1209720, Note_on_c, 8, 48, 75
10, 1209835, Note_off_c, 8, 48, 64
10, 1209840, Note_on_c, 8, 48, 75
10, 1209955, Note_off_c, 8, 48, 64
10, 1209960, Note_on_c, 8, 48, 75
10, 1210075, Note_off_c, 8, 48, 64
10, 1210080, Note_on_c, 8, 48, 75
10, 1210195, Note_off_c, 8, 48, 64
10, 1210200, Note_on_c, 8, 48, 75
10, 1210315, Note_off_c, 8, 48, 64
10, 1210320, Note_on_c, 8, 48, 75
10, 1210720, Note_off_c, 8, 48, 64
10, 1212240, Note_on_c, 8, 41, 75
10, 1212640, Note_off_c, 8, 41, 64
10, 1213200, Note_on_c, 8, 41, 75
10, 1213315, Note_off_c, 8, 41, 64
10, 1213320, Note_on_c, 8, 41, 75
10, 1213435, Note_off_c, 8, 41, 64
10, 1213440, Note_on_c, 8, 41, 75
10, 1213555, Note_off_c, 8, 41, 64
10, 1213560, Note_on_c, 8, 41, 75
10, 1213675, Note_off_c, 8, 41, 64
10, 1213680, Note_on_c, 8, 41, 75
10, 1213795, Note_off_c, 8, 41, 64
10, 1213800, Note_on_c, 8, 41, 75
10, 1213915, Note_off_c, 8, 41, 64
10, 1213920, Note_on_c, 8, 41, 75
10, 1214035, Note_off_c, 8, 41, 64
10, 1214040, Note_on_c, 8, 41, 75
10, 1214155, Note_off_c, 8, 41, 64
10, 1214160, Note_on_c, 8, 41, 75
10, 1214560, Note_off_c, 8, 41, 64
10, 1219920, Note_on_c, 8, 41, 105
10, 1220155, Note_off_c, 8, 41, 64
10, 1227600, Note_on_c, 8, 41, 105
10, 1227835, Note_off_c, 8, 41, 64
10, 1231440, Note_on_c, 8, 48, 30
10, 1231555, Note_off_c, 8, 48, 64
10, 1231560, Note_on_c, 8, 48, 30
10, 1231675, Note_off_c, 8, 48, 64
10, 1231680, Note_on_c, 8, 48, 30
10, 1231795, Note_off_c, 8, 48, 64
10, 1231800, Note_on_c, 8, 48, 31
10, 1231915, Note_off_c, 8, 48, 64
10, 1231920, Note_on_c, 8, 48, 32
10, 1232035, Note_off_c, 8, 48, 64
10, 1232040, Note_on_c, 8, 48, 33
10, 1232155, Note_off_c, 8, 48, 64
10, 1232160, Note_on_c, 8, 48, 34
10, 1232275, Note_off_c, 8, 48, 64
10, 1232280, Note_on_c, 8, 48, 35
10, 1232395, Note_off_c, 8, 48, 64
10, 1232400, Note_on_c, 8, 48, 36
10, 1232515, Note_off_c, 8, 48, 64
10, 1232520, Note_on_c, 8, 48, 37
10, 1232635, Note_off_c, 8, 48, 64
10, 1232640, Note_on_c, 8, 48, 38
10, 1232755, Note_off_c, 8, 48, 64
10, 1232760, Note_on_c, 8, 48, 39
10, 1232875, Note_off_c, 8, 48, 64
10, 1232880, Note_on_c, 8, 48, 40
10, 1232995, Note_off_c, 8, 48, 64
10, 1233000, Note_on_c, 8, 48, 41
10, 1233115, Note_off_c, 8, 48, 64
10, 1233120, Note_on_c, 8, 48, 42
10, 1233235, Note_off_c, 8, 48, 64
10, 1233240, Note_on_c, 8, 48, 43
10, 1233355, Note_off_c, 8, 48, 64
10, 1233360, Note_on_c, 8, 48, 44
10, 1233475, Note_off_c, 8, 48, 64
10, 1233480, Note_on_c, 8, 48, 45
10, 1233595, Note_off_c, 8, 48, 64
10, 1233600, Note_on_c, 8, 48, 47
10, 1233715, Note_off_c, 8, 48, 64
10, 1233720, Note_on_c, 8, 48, 49
10, 1233835, Note_off_c, 8, 48, 64
10, 1233840, Note_on_c, 8, 48, 51
10, 1233955, Note_off_c, 8, 48, 64
10, 1233960, Note_on_c, 8, 48, 53
10, 1234075, Note_off_c, 8, 48, 64
10, 1234080, Note_on_c, 8, 48, 55
10, 1234195, Note_off_c, 8, 48, 64
10, 1234200, Note_on_c, 8, 48, 57
10, 1234315, Note_off_c, 8, 48, 64
10, 1234320, Note_on_c, 8, 48, 59
10, 1234435, Note_off_c, 8, 48, 64
10, 1234440, Note_on_c, 8, 48, 61
10, 1234555, Note_off_c, 8, 48, 64
10, 1234560, Note_on_c, 8, 48, 63
10, 1234675, Note_off_c, 8, 48, 64
10, 1234680, Note_on_c, 8, 48, 65
10, 1234795, Note_off_c, 8, 48, 64
10, 1234800, Note_on_c, 8, 48, 67
10, 1234915, Note_off_c, 8, 48, 64
10, 1234920, Note_on_c, 8, 48, 69
10, 1235035, Note_off_c, 8, 48, 64
10, 1235040, Note_on_c, 8, 48, 71
10, 1235155, Note_off_c, 8, 48, 64
10, 1235160, Note_on_c, 8, 48, 73
10, 1235275, Note_off_c, 8, 48, 64
10, 1235280, Note_on_c, 8, 48, 105
10, 1235680, Note_off_c, 8, 48, 64
10, 1237200, Note_on_c, 8, 41, 75
10, 1237600, Note_off_c, 8, 41, 64
10, 1242960, Note_on_c, 8, 48, 75
10, 1243360, Note_off_c, 8, 48, 64
10, 1243920, Note_on_c, 8, 48, 75
10, 1244320, Note_off_c, 8, 48, 64
10, 1290960, Note_on_c, 8, 48, 92
10, 1291360, Note_off_c, 8, 48, 64
10, 1292880, Note_on_c, 8, 48, 92
10, 1293280, Note_off_c, 8, 48, 64
10, 1294800, Note_on_c, 8, 48, 92
10, 1295200, Note_off_c, 8, 48, 64
10, 1296720, Note_on_c, 8, 41, 92
10, 1297120, Note_off_c, 8, 41, 64
10, 1342320, Note_on_c, 8, 48, 92
10, 1342435, Note_off_c, 8, 48, 64
10, 1342440, Note_on_c, 8, 48, 92
10, 1342555, Note_off_c, 8, 48, 64
10, 1342560, Note_on_c, 8, 48, 92
10, 1342675, Note_off_c, 8, 48, 64
10, 1342680, Note_on_c, 8, 48, 92
10, 1342795, Note_off_c, 8, 48, 64
10, 1342800, Note_on_c, 8, 48, 92
10, 1342915, Note_off_c, 8, 48, 64
10, 1342920, Note_on_c, 8, 48, 92
10, 1343035, Note_off_c, 8, 48, 64
10, 1343040, Note_on_c, 8, 48, 92
10, 1343155, Note_off_c, 8, 48, 64
10, 1343160, Note_on_c, 8, 48, 92
10, 1343275, Note_off_c, 8, 48, 64
10, 1343280, Note_on_c, 8, 48, 92
10, 1343395, Note_off_c, 8, 48, 64
10, 1343400, Note_on_c, 8, 48, 92
10, 1343515, Note_off_c, 8, 48, 64
10, 1343520, Note_on_c, 8, 48, 92
10, 1343635, Note_off_c, 8, 48, 64
10, 1343640, Note_on_c, 8, 48, 92
10, 1343755, Note_off_c, 8, 48, 64
10, 1343760, Note_on_c, 8, 48, 92
10, 1343875, Note_off_c, 8, 48, 64
10, 1343880, Note_on_c, 8, 48, 92
10, 1343995, Note_off_c, 8, 48, 64
10, 1344000, Note_on_c, 8, 48, 92
10, 1344115, Note_off_c, 8, 48, 64
10, 1344120, Note_on_c, 8, 48, 92
10, 1344235, Note_off_c, 8, 48, 64
10, 1344240, Note_on_c, 8, 48, 92
10, 1344355, Note_off_c, 8, 48, 64
10, 1344360, Note_on_c, 8, 48, 92
10, 1344475, Note_off_c, 8, 48, 64
10, 1344480, Note_on_c, 8, 48, 92
10, 1344595, Note_off_c, 8, 48, 64
10, 1344600, Note_on_c, 8, 48, 92
10, 1344715, Note_off_c, 8, 48, 64
10, 1344720, Note_on_c, 8, 48, 92
10, 1344835, Note_off_c, 8, 48, 64
10, 1344840, Note_on_c, 8, 48, 92
10, 1344955, Note_off_c, 8, 48, 64
10, 1344960, Note_on_c, 8, 48, 92
10, 1345075, Note_off_c, 8, 48, 64
10, 1345080, Note_on_c, 8, 48, 92
10, 1345195, Note_off_c, 8, 48, 64
10, 1345200, Note_on_c, 8, 48, 92
10, 1345315, Note_off_c, 8, 48, 64
10, 1345320, Note_on_c, 8, 48, 92
10, 1345435, Note_off_c, 8, 48, 64
10, 1345440, Note_on_c, 8, 48, 92
10, 1345555, Note_off_c, 8, 48, 64
10, 1345560, Note_on_c, 8, 48, 92
10, 1345675, Note_off_c, 8, 48, 64
10, 1345680, Note_on_c, 8, 48, 92
10, 1345795, Note_off_c, 8, 48, 64
10, 1345800, Note_on_c, 8, 48, 92
10, 1345915, Note_off_c, 8, 48, 64
10, 1345920, Note_on_c, 8, 48, 92
10, 1346035, Note_off_c, 8, 48, 64
10, 1346040, Note_on_c, 8, 48, 92
10, 1346155, Note_off_c, 8, 48, 64
10, 1346160, Note_on_c, 8, 48, 92
10, 1346275, Note_off_c, 8, 48, 64
10, 1346280, Note_on_c, 8, 48, 92
10, 1346395, Note_off_c, 8, 48, 64
10, 1346400, Note_on_c, 8, 48, 92
10, 1346515, Note_off_c, 8, 48, 64
10, 1346520, Note_on_c, 8, 48, 92
10, 1346635, Note_off_c, 8, 48, 64
10, 1346640, Note_on_c, 8, 48, 92
10, 1346755, Note_off_c, 8, 48, 64
10, 1346760, Note_on_c, 8, 48, 92
10, 1346875, Note_off_c, 8, 48, 64
10, 1346880, Note_on_c, 8, 48, 92
10, 1346995, Note_off_c, 8, 48, 64
10, 1347000, Note_on_c, 8, 48, 92
10, 1347115, Note_off_c, 8, 48, 64
10, 1347120, Note_on_c, 8, 48, 92
10, 1347235, Note_off_c, 8, 48, 64
10, 1347240, Note_on_c, 8, 48, 92
10, 1347355, Note_off_c, 8, 48, 64
10, 1347360, Note_on_c, 8, 48, 92
10, 1347475, Note_off_c, 8, 48, 64
10, 1347480, Note_on_c, 8, 48, 92
10, 1347595, Note_off_c, 8, 48, 64
10, 1347600, Note_on_c, 8, 48, 92
10, 1347715, Note_off_c, 8, 48, 64
10, 1347720, Note_on_c, 8, 48, 92
10, 1347835, Note_off_c, 8, 48, 64
10, 1347840, Note_on_c, 8, 48, 92
10, 1347955, Note_off_c, 8, 48, 64
10, 1347960, Note_on_c, 8, 48, 92
10, 1348075, Note_off_c, 8, 48, 64
10, 1348080, Note_on_c, 8, 48, 92
10, 1348195, Note_off_c, 8, 48, 64
10, 1348200, Note_on_c, 8, 48, 92
10, 1348315, Note_off_c, 8, 48, 64
10, 1348320, Note_on_c, 8, 48, 92
10, 1348435, Note_off_c, 8, 48, 64
10, 1348440, Note_on_c, 8, 48, 92
10, 1348555, Note_off_c, 8, 48, 64
10, 1348560, Note_on_c, 8, 48, 92
10, 1348675, Note_off_c, 8, 48, 64
10, 1348680, Note_on_c, 8, 48, 92
10, 1348795, Note_off_c, 8, 48, 64
10, 1348800, Note_on_c, 8, 48, 92
10, 1348915, Note_off_c, 8, 48, 64
10, 1348920, Note_on_c, 8, 48, 92
10, 1349035, Note_off_c, 8, 48, 64
10, 1349040, Note_on_c, 8, 48, 92
10, 1349155, Note_off_c, 8, 48, 64
10, 1349160, Note_on_c, 8, 48, 92
10, 1349275, Note_off_c, 8, 48, 64
10, 1349280, Note_on_c, 8, 48, 92
10, 1349395, Note_off_c, 8, 48, 64
10, 1349400, Note_on_c, 8, 48, 92
10, 1349515, Note_off_c, 8, 48, 64
10, 1349520, Note_on_c, 8, 48, 92
10, 1349635, Note_off_c, 8, 48, 64
10, 1349640, Note_on_c, 8, 48, 92
10, 1349755, Note_off_c, 8, 48, 64
10, 1349760, Note_on_c, 8, 48, 92
10, 1349875, Note_off_c, 8, 48, 64
10, 1349880, Note_on_c, 8, 48, 92
10, 1349995, Note_off_c, 8, 48, 64
10, 1350000, Note_on_c, 8, 48, 92
10, 1350115, Note_off_c, 8, 48, 64
10, 1350120, Note_on_c, 8, 48, 92
10, 1350235, Note_off_c, 8, 48, 64
10, 1350240, Note_on_c, 8, 48, 92
10, 1350355, Note_off_c, 8, 48, 64
10, 1350360, Note_on_c, 8, 48, 92
10, 1350475, Note_off_c, 8, 48, 64
10, 1350480, Note_on_c, 8, 48, 92
10, 1350880, Note_off_c, 8, 48, 64
10, 1352400, Note_on_c, 8, 41, 92
10, 1352515, Note_off_c, 8, 41, 64
10, 1352520, Note_on_c, 8, 41, 92
10, 1352635, Note_off_c, 8, 41, 64
10, 1352640, Note_on_c, 8, 41, 92
10, 1352755, Note_off_c, 8, 41, 64
10, 1352760, Note_on_c, 8, 41, 92
10, 1352875, Note_off_c, 8, 41, 64
10, 1352880, Note_on_c, 8, 41, 92
10, 1352995, Note_off_c, 8, 41, 64
10, 1353000, Note_on_c, 8, 41, 92
10, 1353115, Note_off_c, 8, 41, 64
10, 1353120, Note_on_c, 8, 41, 92
10, 1353235, Note_off_c, 8, 41, 64
10, 1353240, Note_on_c, 8, 41, 92
10, 1353355, Note_off_c, 8, 41, 64
10, 1353360, Note_on_c, 8, 41, 92
10, 1353475, Note_off_c, 8, 41, 64
10, 1353480, Note_on_c, 8, 41, 92
10, 1353595, Note_off_c, 8, 41, 64
10, 1353600, Note_on_c, 8, 41, 92
10, 1353715, Note_off_c, 8, 41, 64
10, 1353720, Note_on_c, 8, 41, 92
10, 1353835, Note_off_c, 8, 41, 64
10, 1353840, Note_on_c, 8, 41, 92
10, 1353955, Note_off_c, 8, 41, 64
10, 1353960, Note_on_c, 8, 41, 92
10, 1354075, Note_off_c, 8, 41, 64
10, 1354080, Note_on_c, 8, 41, 92
10, 1354195, Note_off_c, 8, 41, 64
10, 1354200, Note_on_c, 8, 41, 92
10, 1354315, Note_off_c, 8, 41, 64
10, 1354320, Note_on_c, 8, 41, 92
10, 1354720, Note_off_c, 8, 41, 64
10, 1356240, Note_on_c, 8, 41, 92
10, 1356355, Note_off_c, 8, 41, 64
10, 1356360, Note_on_c, 8, 41, 92
10, 1356475, Note_off_c, 8, 41, 64
10, 1356480, Note_on_c, 8, 41, 92
10, 1356595, Note_off_c, 8, 41, 64
10, 1356600, Note_on_c, 8, 41, 92
10, 1356715, Note_off_c, 8, 41, 64
10, 1356720, Note_on_c, 8, 41, 92
10, 1356835, Note_off_c, 8, 41, 64
10, 1356840, Note_on_c, 8, 41, 92
10, 1356955, Note_off_c, 8, 41, 64
10, 1356960, Note_on_c, 8, 41, 92
10, 1357075, Note_off_c, 8, 41, 64
10, 1357080, Note_on_c, 8, 41, 92
10, 1357195, Note_off_c, 8, 41, 64
10, 1357200, Note_on_c, 8, 41, 92
10, 1357315, Note_off_c, 8, 41, 64
10, 1357320, Note_on_c, 8, 41, 92
10, 1357435, Note_off_c, 8, 41, 64
10, 1357440, Note_on_c, 8, 41, 92
10, 1357555, Note_off_c, 8, 41, 64
10, 1357560, Note_on_c, 8, 41, 92
10, 1357675, Note_off_c, 8, 41, 64
10, 1357680, Note_on_c, 8, 41, 92
10, 1357795, Note_off_c, 8, 41, 64
10, 1357800, Note_on_c, 8, 41, 92
10, 1357915, Note_off_c, 8, 41, 64
10, 1357920, Note_on_c, 8, 41, 92
10, 1358035, Note_off_c, 8, 41, 64
10, 1358040, Note_on_c, 8, 41, 92
10, 1358155, Note_off_c, 8, 41, 64
10, 1358160, Note_on_c, 8, 41, 92
10, 1358560, Note_off_c, 8, 41, 64
10, 1360080, Note_on_c, 8, 41, 92
10, 1360195, Note_off_c, 8, 41, 64
10, 1360200, Note_on_c, 8, 41, 92
10, 1360315, Note_off_c, 8, 41, 64
10, 1360320, Note_on_c, 8, 41, 92
10, 1360435, Note_off_c, 8, 41, 64
10, 1360440, Note_on_c, 8, 41, 92
10, 1360555, Note_off_c, 8, 41, 64
10, 1360560, Note_on_c, 8, 41, 92
10, 1360675, Note_off_c, 8, 41, 64
10, 1360680, Note_on_c, 8, 41, 92
10, 1360795, Note_off_c, 8, 41, 64
10, 1360800, Note_on_c, 8, 41, 92
10, 1360915, Note_off_c, 8, 41, 64
10, 1360920, Note_on_c, 8, 41, 92
10, 1361035, Note_off_c, 8, 41, 64
10, 1361040, Note_on_c, 8, 41, 92
10, 1361155, Note_off_c, 8, 41, 64
10, 1361160, Note_on_c, 8, 41, 92
10, 1361275, Note_off_c, 8, 41, 64
10, 1361280, Note_on_c, 8, 41, 92
10, 1361395, Note_off_c, 8, 41, 64
10, 1361400, Note_on_c, 8, 41, 92
10, 1361515, Note_off_c, 8, 41, 64
10, 1361520, Note_on_c, 8, 41, 92
10, 1361635, Note_off_c, 8, 41, 64
10, 1361640, Note_on_c, 8, 41, 92
10, 1361755, Note_off_c, 8, 41, 64
10, 1361760, Note_on_c, 8, 41, 92
10, 1361875, Note_off_c, 8, 41, 64
10, 1361880, Note_on_c, 8, 41, 92
10, 1361995, Note_off_c, 8, 41, 64
10, 1362000, Note_on_c, 8, 41, 92
10, 1362400, Note_off_c, 8, 41, 64
10, 1363920, Note_on_c, 8, 41, 92
10, 1364035, Note_off_c, 8, 41, 64
10, 1364040, Note_on_c, 8, 41, 92
10, 1364155, Note_off_c, 8, 41, 64
10, 1364160, Note_on_c, 8, 41, 92
10, 1364275, Note_off_c, 8, 41, 64
10, 1364280, Note_on_c, 8, 41, 92
10, 1364395, Note_off_c, 8, 41, 64
10, 1364400, Note_on_c, 8, 41, 92
10, 1364515, Note_off_c, 8, 41, 64
10, 1364520, Note_on_c, 8, 41, 92
10, 1364635, Note_off_c, 8, 41, 64
10, 1364640, Note_on_c, 8, 41, 92
10, 1364755, Note_off_c, 8, 41, 64
10, 1364760, Note_on_c, 8, 41, 92
10, 1364875, Note_off_c, 8, 41, 64
10, 1364880, Note_on_c, 8, 41, 92
10, 1364995, Note_off_c, 8, 41, 64
10, 1365000, Note_on_c, 8, 41, 92
10, 1365115, Note_off_c, 8, 41, 64
10, 1365120, Note_on_c, 8, 41, 92
10, 1365235, Note_off_c, 8, 41, 64
10, 1365240, Note_on_c, 8, 41, 92
10, 1365355, Note_off_c, 8, 41, 64
10, 1365360, Note_on_c, 8, 41, 92
10, 1365475, Note_off_c, 8, 41, 64
10, 1365480, Note_on_c, 8, 41, 92
10, 1365595, Note_off_c, 8, 41, 64
10, 1365600, Note_on_c, 8, 41, 92
10, 1365715, Note_off_c, 8, 41, 64
10, 1365720, Note_on_c, 8, 41, 92
10, 1365835, Note_off_c, 8, 41, 64
10, 1365840, Note_on_c, 8, 41, 45
10, 1366240, Note_off_c, 8, 41, 64
10, 1400400, Note_on_c, 8, 48, 75
10, 1400515, Note_off_c, 8, 48, 64
10, 1400520, Note_on_c, 8, 48, 75
10, 1400635, Note_off_c, 8, 48, 64
10, 1400640, Note_on_c, 8, 48, 75
10, 1400755, Note_off_c, 8, 48, 64
10, 1400760, Note_on_c, 8, 48, 75
10, 1400875, Note_off_c, 8, 48, 64
10, 1400880, Note_on_c, 8, 48, 75
10, 1400995, Note_off_c, 8, 48, 64
10, 1401000, Note_on_c, 8, 48, 75
10, 1401115, Note_off_c, 8, 48, 64
10, 1401120, Note_on_c, 8, 48, 75
10, 1401235, Note_off_c, 8, 48, 64
10, 1401240, Note_on_c, 8, 48, 75
10, 1401355, Note_off_c, 8, 48, 64
10, 1401360, Note_on_c, 8, 48, 75
10, 1401475, Note_off_c, 8, 48, 64
10, 1401480, Note_on_c, 8, 48, 75
10, 1401595, Note_off_c, 8, 48, 64
10, 1401600, Note_on_c, 8, 48, 75
10, 1401715, Note_off_c, 8, 48, 64
10, 1401720, Note_on_c, 8, 48, 75
10, 1401835, Note_off_c, 8, 48, 64
10, 1401840, Note_on_c, 8, 48, 75
10, 1401955, Note_off_c, 8, 48, 64
10, 1401960, Note_on_c, 8, 48, 75
10, 1402075, Note_off_c, 8, 48, 64
10, 1402080, Note_on_c, 8, 48, 75
10, 1402195, Note_off_c, 8, 48, 64
10, 1402200, Note_on_c, 8, 48, 75
10, 1402315, Note_off_c, 8, 48, 64
10, 1404240, Note_on_c, 8, 41, 75
10, 1404355, Note_off_c, 8, 41, 64
10, 1404360, Note_on_c, 8, 41, 75
10, 1404475, Note_off_c, 8, 41, 64
10, 1404480, Note_on_c, 8, 41, 75
10, 1404595, Note_off_c, 8, 41, 64
10, 1404600, Note_on_c, 8, 41, 75
10, 1404715, Note_off_c, 8, 41, 64
10, 1404720, Note_on_c, 8, 41, 75
10, 1404835, Note_off_c, 8, 41, 64
10, 1404840, Note_on_c, 8, 41, 75
10, 1404955, Note_off_c, 8, 41, 64
10, 1404960, Note_on_c, 8, 41, 75
10, 1405075, Note_off_c, 8, 41, 64
10, 1405080, Note_on_c, 8, 41, 75
10, 1405195, Note_off_c, 8, 41, 64
10, 1405200, Note_on_c, 8, 41, 75
10, 1405315, Note_off_c, 8, 41, 64
10, 1405320, Note_on_c, 8, 41, 75
10, 1405435, Note_off_c, 8, 41, 64
10, 1405440, Note_on_c, 8, 41, 75
10, 1405555, Note_off_c, 8, 41, 64
10, 1405560, Note_on_c, 8, 41, 75
10, 1405675, Note_off_c, 8, 41, 64
10, 1405680, Note_on_c, 8, 41, 75
10, 1405795, Note_off_c, 8, 41, 64
10, 1405800, Note_on_c, 8, 41, 75
10, 1405915, Note_off_c, 8, 41, 64
10, 1405920, Note_on_c, 8, 41, 75
10, 1406035, Note_off_c, 8, 41, 64
10, 1406040, Note_on_c, 8, 41, 75
10, 1406155, Note_off_c, 8, 41, 64
10, 1408080, Note_on_c, 8, 41, 30
10, 1408195, Note_off_c, 8, 41, 64
10, 1408200, Note_on_c, 8, 41, 30
10, 1408315, Note_off_c, 8, 41, 64
10, 1408320, Note_on_c, 8, 41, 30
10, 1408435, Note_off_c, 8, 41, 64
10, 1408440, Note_on_c, 8, 41, 30
10, 1408555, Note_off_c, 8, 41, 64
10, 1408560, Note_on_c, 8, 41, 30
10, 1408675, Note_off_c, 8, 41, 64
10, 1408680, Note_on_c, 8, 41, 30
10, 1408795, Note_off_c, 8, 41, 64
10, 1408800, Note_on_c, 8, 41, 30
10, 1408915, Note_off_c, 8, 41, 64
10, 1408920, Note_on_c, 8, 41, 30
10, 1409035, Note_off_c, 8, 41, 64
10, 1409040, Note_on_c, 8, 41, 30
10, 1409155, Note_off_c, 8, 41, 64
10, 1409160, Note_on_c, 8, 41, 30
10, 1409275, Note_off_c, 8, 41, 64
10, 1409280, Note_on_c, 8, 41, 30
10, 1409395, Note_off_c, 8, 41, 64
10, 1409400, Note_on_c, 8, 41, 30
10, 1409515, Note_off_c, 8, 41, 64
10, 1409520, Note_on_c, 8, 41, 30
10, 1409635, Note_off_c, 8, 41, 64
10, 1409640, Note_on_c, 8, 41, 30
10, 1409755, Note_off_c, 8, 41, 64
10, 1409760, Note_on_c, 8, 41, 30
10, 1409875, Note_off_c, 8, 41, 64
10, 1409880, Note_on_c, 8, 41, 30
10, 1409995, Note_off_c, 8, 41, 64
10, 1411920, Note_on_c, 8, 41, 10
10, 1412035, Note_off_c, 8, 41, 64
10, 1412040, Note_on_c, 8, 41, 10
10, 1412155, Note_off_c, 8, 41, 64
10, 1412160, Note_on_c, 8, 41, 10
10, 1412275, Note_off_c, 8, 41, 64
10, 1412280, Note_on_c, 8, 41, 10
10, 1412395, Note_off_c, 8, 41, 64
10, 1412400, Note_on_c, 8, 41, 10
10, 1412515, Note_off_c, 8, 41, 64
10, 1412520, Note_on_c, 8, 41, 10
10, 1412635, Note_off_c, 8, 41, 64
10, 1412640, Note_on_c, 8, 41, 10
10, 1412755, Note_off_c, 8, 41, 64
10, 1412760, Note_on_c, 8, 41, 10
10, 1412875, Note_off_c, 8, 41, 64
10, 1412880, Note_on_c, 8, 41, 10
10, 1412995, Note_off_c, 8, 41, 64
10, 1413000, Note_on_c, 8, 41, 10
10, 1413115, Note_off_c, 8, 41, 64
10, 1413120, Note_on_c, 8, 41, 10
10, 1413235, Note_off_c, 8, 41, 64
10, 1413240, Note_on_c, 8, 41, 10
10, 1413355, Note_off_c, 8, 41, 64
10, 1413360, Note_on_c, 8, 41, 10
10, 1413475, Note_off_c, 8, 41, 64
10, 1413480, Note_on_c, 8, 41, 10
10, 1413595, Note_off_c, 8, 41, 64
10, 1413600, Note_on_c, 8, 41, 10
10, 1413715, Note_off_c, 8, 41, 64
10, 1413720, Note_on_c, 8, 41, 10
10, 1413835, Note_off_c, 8, 41, 64
10, 1413835, End_track
11, 0, Start_track
11, 0, MIDI_port, 0
11, 0, Channel_prefix, 10
11, 0, Control_c, 10, 7, 127
11, 0, Control_c, 10, 10, 0
11, 0, Control_c, 10, 91, 127
11, 0, Program_c, 10, 48
11, 480, Note_on_c, 10, 69, 45
11, 720, Note_off_c, 10, 69, 64
11, 720, Note_on_c, 10, 70, 45
11, 800, Note_off_c, 10, 70, 64
11, 960, Note_on_c, 10, 74, 45
11, 1040, Note_off_c, 10, 74, 64
11, 1200, Note_on_c, 10, 72, 45
11, 1440, Note_off_c, 10, 72, 64
11, 1440, Note_on_c, 10, 70, 45
11, 1560, Note_off_c, 10, 70, 64
11, 1560, Note_on_c, 10, 69, 45
11, 1675, Note_off_c, 10, 69, 64
11, 1680, Note_on_c, 10, 67, 45
11, 1760, Note_off_c, 10, 67, 64
11, 1920, Note_on_c, 10, 60, 45
11, 2000, Note_off_c, 10, 60, 64
11, 2160, Note_on_c, 10, 65, 45
11, 2400, Note_off_c, 10, 65, 64
11, 2400, Note_on_c, 10, 67, 45
11, 2640, Note_off_c, 10, 67, 64
11, 2640, Note_on_c, 10, 69, 45
11, 2880, Note_off_c, 10, 69, 64
11, 2880, Note_on_c, 10, 70, 45
11, 3000, Note_off_c, 10, 70, 64
11, 3000, Note_on_c, 10, 69, 45
11, 3115, Note_off_c, 10, 69, 64
11, 3120, Note_on_c, 10, 67, 45
11, 3960, Note_off_c, 10, 67, 64
11, 5400, Note_on_c, 10, 67, 45
11, 5520, Note_off_c, 10, 67, 64
11, 5520, Note_on_c, 10, 69, 46
11, 5640, Note_off_c, 10, 69, 64
11, 5640, Note_on_c, 10, 70, 47
11, 5880, Note_off_c, 10, 70, 64
11, 5880, Note_on_c, 10, 67, 49
11, 6120, Note_off_c, 10, 67, 64
11, 6120, Note_on_c, 10, 69, 51
11, 6355, Note_off_c, 10, 69, 64
11, 6840, Note_on_c, 10, 70, 57
11, 7080, Note_off_c, 10, 70, 64
11, 7080, Note_on_c, 10, 67, 59
11, 7315, Note_off_c, 10, 67, 64
11, 7320, Note_on_c, 10, 67, 61
11, 7440, Note_off_c, 10, 67, 64
11, 7440, Note_on_c, 10, 69, 62
11, 7560, Note_off_c, 10, 69, 64
11, 7560, Note_on_c, 10, 70, 63
11, 7800, Note_off_c, 10, 70, 64
11, 7800, Note_on_c, 10, 67, 65
11, 8035, Note_off_c, 10, 67, 64
11, 8040, Note_on_c, 10, 69, 68
11, 8520, Note_off_c, 10, 69, 64
11, 8520, Note_on_c, 10, 72, 74
11, 9000, Note_off_c, 10, 72, 64
11, 9000, Note_on_c, 10, 70, 80
11, 9720, Note_off_c, 10, 70, 64
11, 9720, Note_on_c, 10, 69, 89
11, 9955, Note_off_c, 10, 69, 64
11, 9960, Note_on_c, 10, 74, 92
11, 10440, Note_off_c, 10, 74, 64
11, 10440, Note_on_c, 10, 72, 92
11, 10920, Note_off_c, 10, 72, 64
11, 10920, Note_on_c, 10, 67, 92
11, 11000, Note_off_c, 10, 67, 64
11, 11160, Note_on_c, 10, 67, 92
11, 11280, Note_off_c, 10, 67, 64
11, 11280, Note_on_c, 10, 69, 92
11, 11400, Note_off_c, 10, 69, 64
11, 11400, Note_on_c, 10, 70, 92
11, 11640, Note_off_c, 10, 70, 64
11, 11640, Note_on_c, 10, 67, 92
11, 11875, Note_off_c, 10, 67, 64
11, 11880, Note_on_c, 10, 69, 92
11, 12360, Note_off_c, 10, 69, 64
11, 12360, Note_on_c, 10, 72, 92
11, 12840, Note_off_c, 10, 72, 64
11, 12840, Note_on_c, 10, 70, 92
11, 13560, Note_off_c, 10, 70, 64
11, 13560, Note_on_c, 10, 69, 92
11, 13795, Note_off_c, 10, 69, 64
11, 13800, Note_on_c, 10, 74, 45
11, 14280, Note_off_c, 10, 74, 64
11, 14280, Note_on_c, 10, 72, 48
11, 14680, Note_off_c, 10, 72, 64
11, 14760, Note_on_c, 10, 72, 52
11, 14840, Note_off_c, 10, 72, 64
11, 15000, Note_on_c, 10, 67, 54
11, 15120, Note_off_c, 10, 67, 64
11, 15120, Note_on_c, 10, 69, 55
11, 15235, Note_off_c, 10, 69, 64
11, 15240, Note_on_c, 10, 70, 56
11, 15320, Note_off_c, 10, 70, 64
11, 15480, Note_on_c, 10, 71, 58
11, 15560, Note_off_c, 10, 71, 64
11, 15720, Note_on_c, 10, 72, 60
11, 15800, Note_off_c, 10, 72, 64
11, 15960, Note_on_c, 10, 67, 62
11, 16080, Note_off_c, 10, 67, 64
11, 16080, Note_on_c, 10, 69, 63
11, 16195, Note_off_c, 10, 69, 64
11, 16200, Note_on_c, 10, 70, 63
11, 16280, Note_off_c, 10, 70, 64
11, 16440, Note_on_c, 10, 71, 65
11, 16520, Note_off_c, 10, 71, 64
11, 16680, Note_on_c, 10, 72, 67
11, 16760, Note_off_c, 10, 72, 64
11, 16920, Note_on_c, 10, 67, 69
11, 17040, Note_off_c, 10, 67, 64
11, 17040, Note_on_c, 10, 69, 70
11, 17155, Note_off_c, 10, 69, 64
11, 17160, Note_on_c, 10, 70, 71
11, 17240, Note_off_c, 10, 70, 64
11, 17400, Note_on_c, 10, 71, 73
11, 17480, Note_off_c, 10, 71, 64
11, 17640, Note_on_c, 10, 72, 75
11, 17720, Note_off_c, 10, 72, 64
11, 17880, Note_on_c, 10, 67, 77
11, 18000, Note_off_c, 10, 67, 64
11, 18000, Note_on_c, 10, 69, 78
11, 18115, Note_off_c, 10, 69, 64
11, 18120, Note_on_c, 10, 70, 79
11, 18200, Note_off_c, 10, 70, 64
11, 18360, Note_on_c, 10, 71, 81
11, 18440, Note_off_c, 10, 71, 64
11, 18600, Note_on_c, 10, 72, 83
11, 18680, Note_off_c, 10, 72, 64
11, 18840, Note_on_c, 10, 67, 85
11, 18960, Note_off_c, 10, 67, 64
11, 18960, Note_on_c, 10, 69, 86
11, 19075, Note_off_c, 10, 69, 64
11, 19080, Note_on_c, 10, 70, 87
11, 19160, Note_off_c, 10, 70, 64
11, 19320, Note_on_c, 10, 71, 89
11, 19400, Note_off_c, 10, 71, 64
11, 19560, Note_on_c, 10, 72, 92
11, 19640, Note_off_c, 10, 72, 64
11, 19800, Note_on_c, 10, 67, 92
11, 19920, Note_off_c, 10, 67, 64
11, 19920, Note_on_c, 10, 69, 92
11, 20035, Note_off_c, 10, 69, 64
11, 20040, Note_on_c, 10, 70, 92
11, 20120, Note_off_c, 10, 70, 64
11, 20280, Note_on_c, 10, 71, 92
11, 20360, Note_off_c, 10, 71, 64
11, 20520, Note_on_c, 10, 72, 92
11, 20600, Note_off_c, 10, 72, 64
11, 20760, Note_on_c, 10, 67, 84
11, 20880, Note_off_c, 10, 67, 64
11, 20880, Note_on_c, 10, 69, 80
11, 20995, Note_off_c, 10, 69, 64
11, 21000, Note_on_c, 10, 70, 76
11, 21080, Note_off_c, 10, 70, 64
11, 21240, Note_on_c, 10, 71, 68
11, 21320, Note_off_c, 10, 71, 64
11, 21480, Note_on_c, 10, 72, 60
11, 21560, Note_off_c, 10, 72, 64
11, 21720, Note_on_c, 10, 67, 60
11, 21840, Note_off_c, 10, 67, 64
11, 21840, Note_on_c, 10, 69, 60
11, 21955, Note_off_c, 10, 69, 64
11, 21960, Note_on_c, 10, 70, 60
11, 22040, Note_off_c, 10, 70, 64
11, 22200, Note_on_c, 10, 71, 60
11, 22280, Note_off_c, 10, 71, 64
11, 22440, Note_on_c, 10, 72, 60
11, 22520, Note_off_c, 10, 72, 64
11, 22680, Note_on_c, 10, 67, 57
11, 22800, Note_off_c, 10, 67, 64
11, 22800, Note_on_c, 10, 69, 55
11, 22915, Note_off_c, 10, 69, 64
11, 22920, Note_on_c, 10, 70, 53
11, 23000, Note_off_c, 10, 70, 64
11, 23160, Note_on_c, 10, 71, 49
11, 23240, Note_off_c, 10, 71, 64
11, 23400, Note_on_c, 10, 72, 45
11, 23480, Note_off_c, 10, 72, 64
11, 23640, Note_on_c, 10, 67, 45
11, 23760, Note_off_c, 10, 67, 64
11, 23760, Note_on_c, 10, 69, 45
11, 23875, Note_off_c, 10, 69, 64
11, 23880, Note_on_c, 10, 70, 45
11, 23960, Note_off_c, 10, 70, 64
11, 24120, Note_on_c, 10, 71, 45
11, 24200, Note_off_c, 10, 71, 64
11, 24360, Note_on_c, 10, 72, 45
11, 24440, Note_off_c, 10, 72, 64
11, 24600, Note_on_c, 10, 69, 45
11, 24720, Note_off_c, 10, 69, 64
11, 24720, Note_on_c, 10, 70, 45
11, 24835, Note_off_c, 10, 70, 64
11, 24840, Note_on_c, 10, 72, 45
11, 24920, Note_off_c, 10, 72, 64
11, 25080, Note_on_c, 10, 73, 45
11, 25160, Note_off_c, 10, 73, 64
11, 25320, Note_on_c, 10, 74, 45
11, 25400, Note_off_c, 10, 74, 64
11, 31320, Note_on_c, 10, 65, 47
11, 31440, Note_off_c, 10, 65, 64
11, 31440, Note_on_c, 10, 69, 48
11, 31555, Note_off_c, 10, 69, 64
11, 31800, Note_on_c, 10, 67, 52
11, 31920, Note_off_c, 10, 67, 64
11, 31920, Note_on_c, 10, 70, 53
11, 32035, Note_off_c, 10, 70, 64
11, 32280, Note_on_c, 10, 69, 57
11, 32400, Note_off_c, 10, 69, 64
11, 32400, Note_on_c, 10, 72, 58
11, 32515, Note_off_c, 10, 72, 64
11, 32760, Note_on_c, 10, 67, 62
11, 32880, Note_off_c, 10, 67, 64
11, 32880, Note_on_c, 10, 76, 63
11, 32995, Note_off_c, 10, 76, 64
11, 33240, Note_on_c, 10, 69, 67
11, 33360, Note_off_c, 10, 69, 64
11, 33360, Note_on_c, 10, 77, 68
11, 33475, Note_off_c, 10, 77, 64
11, 33720, Note_on_c, 10, 69, 72
11, 33840, Note_off_c, 10, 69, 64
11, 33840, Note_on_c, 10, 77, 74
11, 33955, Note_off_c, 10, 77, 64
11, 34200, Note_on_c, 10, 76, 80
11, 34320, Note_off_c, 10, 76, 64
11, 34320, Note_on_c, 10, 79, 82
11, 34435, Note_off_c, 10, 79, 64
11, 34680, Note_on_c, 10, 76, 88
11, 34800, Note_off_c, 10, 76, 64
11, 34800, Note_on_c, 10, 79, 90
11, 34915, Note_off_c, 10, 79, 64
11, 34920, Note_on_c, 10, 81, 92
11, 35000, Note_off_c, 10, 81, 64
11, 35160, Note_on_c, 10, 81, 92
11, 35240, Note_off_c, 10, 81, 64
11, 35400, Note_on_c, 10, 82, 92
11, 35480, Note_off_c, 10, 82, 64
11, 35640, Note_on_c, 10, 86, 92
11, 35720, Note_off_c, 10, 86, 64
11, 35880, Note_on_c, 10, 84, 92
11, 36120, Note_off_c, 10, 84, 64
11, 36120, Note_on_c, 10, 82, 92
11, 36240, Note_off_c, 10, 82, 64
11, 36240, Note_on_c, 10, 81, 92
11, 36355, Note_off_c, 10, 81, 64
11, 36360, Note_on_c, 10, 79, 92
11, 36440, Note_off_c, 10, 79, 64
11, 36600, Note_on_c, 10, 72, 92
11, 36680, Note_off_c, 10, 72, 64
11, 36840, Note_on_c, 10, 77, 92
11, 36920, Note_off_c, 10, 77, 64
11, 37080, Note_on_c, 10, 79, 92
11, 37160, Note_off_c, 10, 79, 64
11, 37320, Note_on_c, 10, 81, 92
11, 37560, Note_off_c, 10, 81, 64
11, 37560, Note_on_c, 10, 82, 92
11, 37680, Note_off_c, 10, 82, 64
11, 37680, Note_on_c, 10, 81, 92
11, 37795, Note_off_c, 10, 81, 64
11, 37800, Note_on_c, 10, 79, 92
11, 37880, Note_off_c, 10, 79, 64
11, 38040, Note_on_c, 10, 81, 92
11, 38120, Note_off_c, 10, 81, 64
11, 38280, Note_on_c, 10, 82, 92
11, 38520, Note_off_c, 10, 82, 64
11, 38520, Note_on_c, 10, 84, 92
11, 38640, Note_off_c, 10, 84, 64
11, 38640, Note_on_c, 10, 82, 92
11, 38755, Note_off_c, 10, 82, 64
11, 38760, Note_on_c, 10, 81, 92
11, 39000, Note_off_c, 10, 81, 64
11, 39000, Note_on_c, 10, 84, 92
11, 39080, Note_off_c, 10, 84, 64
11, 39240, Note_on_c, 10, 84, 92
11, 39320, Note_off_c, 10, 84, 64
11, 39480, Note_on_c, 10, 84, 92
11, 39560, Note_off_c, 10, 84, 64
11, 39720, Note_on_c, 10, 84, 92
11, 40120, Note_off_c, 10, 84, 64
11, 40200, Note_on_c, 10, 82, 92
11, 40320, Note_off_c, 10, 82, 64
11, 40320, Note_on_c, 10, 81, 92
11, 40440, Note_off_c, 10, 81, 64
11, 40440, Note_on_c, 10, 79, 92
11, 40560, Note_off_c, 10, 79, 64
11, 40560, Note_on_c, 10, 77, 92
11, 40675, Note_off_c, 10, 77, 64
11, 40680, Note_on_c, 10, 76, 92
11, 40760, Note_off_c, 10, 76, 64
11, 40920, Note_on_c, 10, 77, 92
11, 41000, Note_off_c, 10, 77, 64
11, 41160, Note_on_c, 10, 79, 92
11, 41400, Note_off_c, 10, 79, 64
11, 41400, Note_on_c, 10, 81, 92
11, 41520, Note_off_c, 10, 81, 64
11, 41520, Note_on_c, 10, 79, 92
11, 41635, Note_off_c, 10, 79, 64
11, 41640, Note_on_c, 10, 77, 92
11, 41720, Note_off_c, 10, 77, 64
11, 41880, Note_on_c, 10, 79, 92
11, 41960, Note_off_c, 10, 79, 64
11, 42120, Note_on_c, 10, 81, 92
11, 42360, Note_off_c, 10, 81, 64
11, 42360, Note_on_c, 10, 82, 92
11, 42480, Note_off_c, 10, 82, 64
11, 42480, Note_on_c, 10, 81, 92
11, 42595, Note_off_c, 10, 81, 64
11, 42600, Note_on_c, 10, 79, 92
11, 42840, Note_off_c, 10, 79, 64
11, 42840, Note_on_c, 10, 82, 92
11, 42920, Note_off_c, 10, 82, 64
11, 43080, Note_on_c, 10, 82, 92
11, 43160, Note_off_c, 10, 82, 64
11, 43320, Note_on_c, 10, 82, 92
11, 43400, Note_off_c, 10, 82, 64
11, 43560, Note_on_c, 10, 82, 92
11, 44040, Note_off_c, 10, 82, 64
11, 44040, Note_on_c, 10, 84, 92
11, 44160, Note_off_c, 10, 84, 64
11, 44160, Note_on_c, 10, 82, 92
11, 44280, Note_off_c, 10, 82, 64
11, 44280, Note_on_c, 10, 81, 92
11, 44400, Note_off_c, 10, 81, 64
11, 44400, Note_on_c, 10, 79, 92
11, 44515, Note_off_c, 10, 79, 64
11, 44520, Note_on_c, 10, 81, 92
11, 44600, Note_off_c, 10, 81, 64
11, 44760, Note_on_c, 10, 82, 92
11, 44840, Note_off_c, 10, 82, 64
11, 45000, Note_on_c, 10, 84, 92
11, 45240, Note_off_c, 10, 84, 64
11, 45240, Note_on_c, 10, 86, 92
11, 45360, Note_off_c, 10, 86, 64
11, 45360, Note_on_c, 10, 84, 92
11, 45475, Note_off_c, 10, 84, 64
11, 45480, Note_on_c, 10, 82, 92
11, 45720, Note_off_c, 10, 82, 64
11, 45720, Note_on_c, 10, 84, 92
11, 45840, Note_off_c, 10, 84, 64
11, 45840, Note_on_c, 10, 82, 92
11, 45960, Note_off_c, 10, 82, 64
11, 45960, Note_on_c, 10, 79, 92
11, 46200, Note_off_c, 10, 79, 64
11, 46200, Note_on_c, 10, 84, 92
11, 46320, Note_off_c, 10, 84, 64
11, 46320, Note_on_c, 10, 82, 92
11, 46435, Note_off_c, 10, 82, 64
11, 46440, Note_on_c, 10, 81, 92
11, 46520, Note_off_c, 10, 81, 64
11, 46680, Note_on_c, 10, 82, 92
11, 46760, Note_off_c, 10, 82, 64
11, 46920, Note_on_c, 10, 84, 92
11, 47160, Note_off_c, 10, 84, 64
11, 47160, Note_on_c, 10, 86, 92
11, 47280, Note_off_c, 10, 86, 64
11, 47280, Note_on_c, 10, 84, 92
11, 47395, Note_off_c, 10, 84, 64
11, 47400, Note_on_c, 10, 82, 92
11, 47640, Note_off_c, 10, 82, 64
11, 47640, Note_on_c, 10, 84, 92
11, 47760, Note_off_c, 10, 84, 64
11, 47760, Note_on_c, 10, 82, 92
11, 47880, Note_off_c, 10, 82, 64
11, 47880, Note_on_c, 10, 79, 92
11, 48120, Note_off_c, 10, 79, 64
11, 48120, Note_on_c, 10, 84, 92
11, 48240, Note_off_c, 10, 84, 64
11, 48240, Note_on_c, 10, 82, 92
11, 48355, Note_off_c, 10, 82, 64
11, 48360, Note_on_c, 10, 81, 92
11, 48600, Note_off_c, 10, 81, 64
11, 48600, Note_on_c, 10, 84, 92
11, 48720, Note_off_c, 10, 84, 64
11, 48720, Note_on_c, 10, 82, 92
11, 48840, Note_off_c, 10, 82, 64
11, 48840, Note_on_c, 10, 79, 92
11, 49080, Note_off_c, 10, 79, 64
11, 49080, Note_on_c, 10, 84, 92
11, 49200, Note_off_c, 10, 84, 64
11, 49200, Note_on_c, 10, 82, 92
11, 49315, Note_off_c, 10, 82, 64
11, 49320, Note_on_c, 10, 81, 92
11, 49560, Note_off_c, 10, 81, 64
11, 49560, Note_on_c, 10, 84, 88
11, 49680, Note_off_c, 10, 84, 64
11, 49680, Note_on_c, 10, 82, 86
11, 49800, Note_off_c, 10, 82, 64
11, 49800, Note_on_c, 10, 79, 84
11, 50040, Note_off_c, 10, 79, 64
11, 50040, Note_on_c, 10, 84, 80
11, 50160, Note_off_c, 10, 84, 64
11, 50160, Note_on_c, 10, 82, 78
11, 50275, Note_off_c, 10, 82, 64
11, 50280, Note_on_c, 10, 65, 75
11, 50280, Note_on_c, 10, 72, 75
11, 50280, Note_on_c, 10, 81, 75
11, 50515, Note_off_c, 10, 81, 64
11, 50515, Note_off_c, 10, 72, 64
11, 50515, Note_off_c, 10, 65, 64
11, 51480, Note_on_c, 10, 65, 60
11, 51720, Note_off_c, 10, 65, 64
11, 51720, Note_on_c, 10, 67, 60
11, 51800, Note_off_c, 10, 67, 64
11, 51960, Note_on_c, 10, 70, 60
11, 52040, Note_off_c, 10, 70, 64
11, 52200, Note_on_c, 10, 69, 60
11, 52280, Note_off_c, 10, 69, 64
11, 52440, Note_on_c, 10, 74, 60
11, 52680, Note_off_c, 10, 74, 64
11, 52680, Note_on_c, 10, 76, 60
11, 52760, Note_off_c, 10, 76, 64
11, 52920, Note_on_c, 10, 79, 60
11, 53000, Note_off_c, 10, 79, 64
11, 53160, Note_on_c, 10, 77, 60
11, 53240, Note_off_c, 10, 77, 64
11, 53400, Note_on_c, 10, 77, 60
11, 53640, Note_off_c, 10, 77, 64
11, 53640, Note_on_c, 10, 79, 60
11, 53720, Note_off_c, 10, 79, 64
11, 53880, Note_on_c, 10, 82, 60
11, 53960, Note_off_c, 10, 82, 64
11, 54120, Note_on_c, 10, 81, 60
11, 54355, Note_off_c, 10, 81, 64
11, 55320, Note_on_c, 10, 65, 60
11, 55560, Note_off_c, 10, 65, 64
11, 55560, Note_on_c, 10, 67, 60
11, 55640, Note_off_c, 10, 67, 64
11, 55800, Note_on_c, 10, 70, 60
11, 55880, Note_off_c, 10, 70, 64
11, 56040, Note_on_c, 10, 69, 60
11, 56120, Note_off_c, 10, 69, 64
11, 56280, Note_on_c, 10, 74, 60
11, 56520, Note_off_c, 10, 74, 64
11, 56520, Note_on_c, 10, 76, 60
11, 56600, Note_off_c, 10, 76, 64
11, 56760, Note_on_c, 10, 79, 60
11, 56840, Note_off_c, 10, 79, 64
11, 57000, Note_on_c, 10, 77, 60
11, 57080, Note_off_c, 10, 77, 64
11, 57240, Note_on_c, 10, 77, 60
11, 57480, Note_off_c, 10, 77, 64
11, 57480, Note_on_c, 10, 79, 60
11, 57560, Note_off_c, 10, 79, 64
11, 57720, Note_on_c, 10, 82, 60
11, 57800, Note_off_c, 10, 82, 64
11, 57960, Note_on_c, 10, 81, 60
11, 58195, Note_off_c, 10, 81, 64
11, 59160, Note_on_c, 10, 77, 60
11, 59400, Note_off_c, 10, 77, 64
11, 59400, Note_on_c, 10, 79, 60
11, 59480, Note_off_c, 10, 79, 64
11, 59640, Note_on_c, 10, 81, 60
11, 59720, Note_off_c, 10, 81, 64
11, 59880, Note_on_c, 10, 79, 60
11, 60280, Note_off_c, 10, 79, 64
11, 61080, Note_on_c, 10, 78, 45
11, 61320, Note_off_c, 10, 78, 64
11, 61320, Note_on_c, 10, 79, 45
11, 61400, Note_off_c, 10, 79, 64
11, 61560, Note_on_c, 10, 81, 45
11, 61640, Note_off_c, 10, 81, 64
11, 61800, Note_on_c, 10, 79, 45
11, 61880, Note_off_c, 10, 79, 64
11, 62040, Note_on_c, 10, 78, 45
11, 62280, Note_off_c, 10, 78, 64
11, 62280, Note_on_c, 10, 79, 45
11, 62360, Note_off_c, 10, 79, 64
11, 62520, Note_on_c, 10, 81, 45
11, 62600, Note_off_c, 10, 81, 64
11, 62760, Note_on_c, 10, 79, 45
11, 62840, Note_off_c, 10, 79, 64
11, 63000, Note_on_c, 10, 78, 45
11, 63240, Note_off_c, 10, 78, 64
11, 63240, Note_on_c, 10, 79, 45
11, 63320, Note_off_c, 10, 79, 64
11, 63480, Note_on_c, 10, 81, 45
11, 63560, Note_off_c, 10, 81, 64
11, 63720, Note_on_c, 10, 79, 45
11, 63960, Note_off_c, 10, 79, 64
11, 63960, Note_on_c, 10, 77, 45
11, 64200, Note_off_c, 10, 77, 64
11, 64200, Note_on_c, 10, 74, 45
11, 64440, Note_off_c, 10, 74, 64
11, 64440, Note_on_c, 10, 71, 45
11, 64680, Note_off_c, 10, 71, 64
11, 64680, Note_on_c, 10, 67, 45
11, 64920, Note_off_c, 10, 67, 64
11, 64920, Note_on_c, 10, 74, 45
11, 65160, Note_off_c, 10, 74, 64
11, 65160, Note_on_c, 10, 71, 45
11, 65400, Note_off_c, 10, 71, 64
11, 65400, Note_on_c, 10, 67, 45
11, 65635, Note_off_c, 10, 67, 64
11, 65640, Note_on_c, 10, 81, 45
11, 65880, Note_off_c, 10, 81, 64
11, 65880, Note_on_c, 10, 79, 45
11, 66120, Note_off_c, 10, 79, 64
11, 66120, Note_on_c, 10, 76, 45
11, 66360, Note_off_c, 10, 76, 64
11, 66360, Note_on_c, 10, 72, 45
11, 66600, Note_off_c, 10, 72, 64
11, 66600, Note_on_c, 10, 67, 45
11, 66840, Note_off_c, 10, 67, 64
11, 66840, Note_on_c, 10, 76, 45
11, 67080, Note_off_c, 10, 76, 64
11, 67080, Note_on_c, 10, 72, 45
11, 67320, Note_off_c, 10, 72, 64
11, 67320, Note_on_c, 10, 67, 45
11, 67555, Note_off_c, 10, 67, 64
11, 67560, Note_on_c, 10, 62, 30
11, 67800, Note_off_c, 10, 62, 64
11, 67800, Note_on_c, 10, 55, 30
11, 68040, Note_off_c, 10, 55, 64
11, 68040, Note_on_c, 10, 62, 30
11, 68280, Note_off_c, 10, 62, 64
11, 68280, Note_on_c, 10, 55, 30
11, 68520, Note_off_c, 10, 55, 64
11, 68520, Note_on_c, 10, 62, 30
11, 68760, Note_off_c, 10, 62, 64
11, 68760, Note_on_c, 10, 55, 30
11, 69000, Note_off_c, 10, 55, 64
11, 69000, Note_on_c, 10, 55, 30
11, 69240, Note_off_c, 10, 55, 64
11, 69240, Note_on_c, 10, 62, 30
11, 69480, Note_off_c, 10, 62, 64
11, 69480, Note_on_c, 10, 64, 30
11, 69720, Note_off_c, 10, 64, 64
11, 69720, Note_on_c, 10, 55, 30
11, 69960, Note_off_c, 10, 55, 64
11, 69960, Note_on_c, 10, 64, 30
11, 70200, Note_off_c, 10, 64, 64
11, 70200, Note_on_c, 10, 55, 30
11, 70440, Note_off_c, 10, 55, 64
11, 70440, Note_on_c, 10, 64, 30
11, 70680, Note_off_c, 10, 64, 64
11, 70680, Note_on_c, 10, 55, 30
11, 70920, Note_off_c, 10, 55, 64
11, 70920, Note_on_c, 10, 64, 30
11, 71160, Note_off_c, 10, 64, 64
11, 71160, Note_on_c, 10, 60, 30
11, 71395, Note_off_c, 10, 60, 64
11, 71400, Note_on_c, 10, 67, 45
11, 73200, Note_off_c, 10, 67, 64
11, 73320, Note_on_c, 10, 72, 45
11, 75120, Note_off_c, 10, 72, 64
11, 75240, Note_on_c, 10, 71, 55
11, 75720, Note_off_c, 10, 71, 64
11, 75720, Note_on_c, 10, 71, 57
11, 76200, Note_off_c, 10, 71, 64
11, 76200, Note_on_c, 10, 71, 59
11, 76680, Note_off_c, 10, 71, 64
11, 76680, Note_on_c, 10, 74, 61
11, 76920, Note_off_c, 10, 74, 64
11, 76920, Note_on_c, 10, 71, 62
11, 77155, Note_off_c, 10, 71, 64
11, 77160, Note_on_c, 10, 72, 63
11, 77640, Note_off_c, 10, 72, 64
11, 77640, Note_on_c, 10, 72, 66
11, 78120, Note_off_c, 10, 72, 64
11, 78120, Note_on_c, 10, 72, 69
11, 78600, Note_off_c, 10, 72, 64
11, 78600, Note_on_c, 10, 76, 72
11, 78840, Note_off_c, 10, 76, 64
11, 78840, Note_on_c, 10, 72, 73
11, 79075, Note_off_c, 10, 72, 64
11, 79080, Note_on_c, 10, 79, 75
11, 79240, Note_off_c, 10, 79, 64
11, 79240, Note_on_c, 10, 81, 75
11, 79400, Note_off_c, 10, 81, 64
11, 79400, Note_on_c, 10, 79, 75
11, 79560, Note_off_c, 10, 79, 64
11, 79560, Note_on_c, 10, 81, 75
11, 79720, Note_off_c, 10, 81, 64
11, 79720, Note_on_c, 10, 79, 75
11, 79880, Note_off_c, 10, 79, 64
11, 79880, Note_on_c, 10, 81, 75
11, 80040, Note_off_c, 10, 81, 64
11, 80040, Note_on_c, 10, 79, 75
11, 80200, Note_off_c, 10, 79, 64
11, 80200, Note_on_c, 10, 81, 75
11, 80360, Note_off_c, 10, 81, 64
11, 80360, Note_on_c, 10, 79, 75
11, 80520, Note_off_c, 10, 79, 64
11, 80520, Note_on_c, 10, 81, 75
11, 80680, Note_off_c, 10, 81, 64
11, 80680, Note_on_c, 10, 79, 75
11, 80840, Note_off_c, 10, 79, 64
11, 80840, Note_on_c, 10, 81, 75
11, 80995, Note_off_c, 10, 81, 64
11, 81000, Note_on_c, 10, 79, 75
11, 81160, Note_off_c, 10, 79, 64
11, 81160, Note_on_c, 10, 81, 75
11, 81320, Note_off_c, 10, 81, 64
11, 81320, Note_on_c, 10, 79, 75
11, 81480, Note_off_c, 10, 79, 64
11, 81480, Note_on_c, 10, 81, 75
11, 81640, Note_off_c, 10, 81, 64
11, 81640, Note_on_c, 10, 79, 75
11, 81800, Note_off_c, 10, 79, 64
11, 81800, Note_on_c, 10, 81, 75
11, 81960, Note_off_c, 10, 81, 64
11, 81960, Note_on_c, 10, 79, 75
11, 82120, Note_off_c, 10, 79, 64
11, 82120, Note_on_c, 10, 81, 75
11, 82280, Note_off_c, 10, 81, 64
11, 82280, Note_on_c, 10, 79, 75
11, 82440, Note_off_c, 10, 79, 64
11, 82440, Note_on_c, 10, 81, 75
11, 82600, Note_off_c, 10, 81, 64
11, 82600, Note_on_c, 10, 79, 75
11, 82760, Note_off_c, 10, 79, 64
11, 82760, Note_on_c, 10, 81, 75
11, 82915, Note_off_c, 10, 81, 64
11, 82920, Note_on_c, 10, 79, 75
11, 83040, Note_off_c, 10, 79, 64
11, 83040, Note_on_c, 10, 81, 75
11, 83160, Note_off_c, 10, 81, 64
11, 83160, Note_on_c, 10, 79, 75
11, 83280, Note_off_c, 10, 79, 64
11, 83280, Note_on_c, 10, 81, 75
11, 83400, Note_off_c, 10, 81, 64
11, 83400, Note_on_c, 10, 79, 75
11, 83520, Note_off_c, 10, 79, 64
11, 83520, Note_on_c, 10, 81, 75
11, 83640, Note_off_c, 10, 81, 64
11, 83640, Note_on_c, 10, 79, 75
11, 83760, Note_off_c, 10, 79, 64
11, 83760, Note_on_c, 10, 81, 75
11, 83880, Note_off_c, 10, 81, 64
11, 83880, Note_on_c, 10, 79, 75
11, 84000, Note_off_c, 10, 79, 64
11, 84000, Note_on_c, 10, 81, 75
11, 84120, Note_off_c, 10, 81, 64
11, 84120, Note_on_c, 10, 79, 75
11, 84240, Note_off_c, 10, 79, 64
11, 84240, Note_on_c, 10, 81, 75
11, 84360, Note_off_c, 10, 81, 64
11, 84360, Note_on_c, 10, 79, 75
11, 84480, Note_off_c, 10, 79, 64
11, 84480, Note_on_c, 10, 81, 75
11, 84600, Note_off_c, 10, 81, 64
11, 84600, Note_on_c, 10, 79, 75
11, 84720, Note_off_c, 10, 79, 64
11, 84720, Note_on_c, 10, 81, 75
11, 84835, Note_off_c, 10, 81, 64
11, 84840, Note_on_c, 10, 79, 75
11, 84960, Note_off_c, 10, 79, 64
11, 84960, Note_on_c, 10, 81, 75
11, 85080, Note_off_c, 10, 81, 64
11, 85080, Note_on_c, 10, 79, 75
11, 85200, Note_off_c, 10, 79, 64
11, 85200, Note_on_c, 10, 81, 75
11, 85320, Note_off_c, 10, 81, 64
11, 85320, Note_on_c, 10, 79, 75
11, 85440, Note_off_c, 10, 79, 64
11, 85440, Note_on_c, 10, 81, 75
11, 85560, Note_off_c, 10, 81, 64
11, 85560, Note_on_c, 10, 79, 75
11, 85680, Note_off_c, 10, 79, 64
11, 85680, Note_on_c, 10, 81, 75
11, 85800, Note_off_c, 10, 81, 64
11, 85800, Note_on_c, 10, 79, 75
11, 85920, Note_off_c, 10, 79, 64
11, 85920, Note_on_c, 10, 81, 75
11, 86040, Note_off_c, 10, 81, 64
11, 86040, Note_on_c, 10, 79, 75
11, 86160, Note_off_c, 10, 79, 64
11, 86160, Note_on_c, 10, 81, 75
11, 86280, Note_off_c, 10, 81, 64
11, 86280, Note_on_c, 10, 79, 75
11, 86400, Note_off_c, 10, 79, 64
11, 86400, Note_on_c, 10, 81, 75
11, 86520, Note_off_c, 10, 81, 64
11, 86520, Note_on_c, 10, 79, 75
11, 86640, Note_off_c, 10, 79, 64
11, 86640, Note_on_c, 10, 81, 75
11, 86755, Note_off_c, 10, 81, 64
11, 86760, Note_on_c, 10, 79, 76
11, 86880, Note_off_c, 10, 79, 64
11, 86880, Note_on_c, 10, 81, 77
11, 87000, Note_off_c, 10, 81, 64
11, 87000, Note_on_c, 10, 79, 78
11, 87120, Note_off_c, 10, 79, 64
11, 87120, Note_on_c, 10, 81, 79
11, 87240, Note_off_c, 10, 81, 64
11, 87240, Note_on_c, 10, 79, 80
11, 87360, Note_off_c, 10, 79, 64
11, 87360, Note_on_c, 10, 81, 81
11, 87480, Note_off_c, 10, 81, 64
11, 87480, Note_on_c, 10, 79, 82
11, 87600, Note_off_c, 10, 79, 64
11, 87600, Note_on_c, 10, 81, 83
11, 87720, Note_off_c, 10, 81, 64
11, 87720, Note_on_c, 10, 79, 84
11, 87840, Note_off_c, 10, 79, 64
11, 87840, Note_on_c, 10, 81, 85
11, 87960, Note_off_c, 10, 81, 64
11, 87960, Note_on_c, 10, 79, 86
11, 88080, Note_off_c, 10, 79, 64
11, 88080, Note_on_c, 10, 81, 87
11, 88200, Note_off_c, 10, 81, 64
11, 88200, Note_on_c, 10, 79, 88
11, 88320, Note_off_c, 10, 79, 64
11, 88320, Note_on_c, 10, 81, 89
11, 88440, Note_off_c, 10, 81, 64
11, 88440, Note_on_c, 10, 79, 90
11, 88560, Note_off_c, 10, 79, 64
11, 88560, Note_on_c, 10, 81, 91
11, 88675, Note_off_c, 10, 81, 64
11, 88680, Note_on_c, 10, 79, 92
11, 89400, Note_off_c, 10, 79, 64
11, 89400, Note_on_c, 10, 81, 92
11, 89520, Note_off_c, 10, 81, 64
11, 89520, Note_on_c, 10, 83, 92
11, 89635, Note_off_c, 10, 83, 64
11, 89640, Note_on_c, 10, 84, 92
11, 89880, Note_off_c, 10, 84, 64
11, 89880, Note_on_c, 10, 83, 92
11, 90000, Note_off_c, 10, 83, 64
11, 90000, Note_on_c, 10, 81, 92
11, 90120, Note_off_c, 10, 81, 64
11, 90120, Note_on_c, 10, 79, 92
11, 90360, Note_off_c, 10, 79, 64
11, 90360, Note_on_c, 10, 81, 92
11, 90480, Note_off_c, 10, 81, 64
11, 90480, Note_on_c, 10, 83, 92
11, 90595, Note_off_c, 10, 83, 64
11, 90600, Note_on_c, 10, 84, 92
11, 90840, Note_off_c, 10, 84, 64
11, 90840, Note_on_c, 10, 83, 92
11, 90960, Note_off_c, 10, 83, 64
11, 90960, Note_on_c, 10, 81, 92
11, 91080, Note_off_c, 10, 81, 64
11, 91080, Note_on_c, 10, 79, 92
11, 91320, Note_off_c, 10, 79, 64
11, 91320, Note_on_c, 10, 81, 92
11, 91440, Note_off_c, 10, 81, 64
11, 91440, Note_on_c, 10, 83, 92
11, 91555, Note_off_c, 10, 83, 64
11, 91560, Note_on_c, 10, 84, 92
11, 91795, Note_off_c, 10, 84, 64
11, 92520, Note_on_c, 10, 69, 45
11, 92760, Note_off_c, 10, 69, 64
11, 92760, Note_on_c, 10, 72, 45
11, 93000, Note_off_c, 10, 72, 64
11, 93000, Note_on_c, 10, 69, 45
11, 93240, Note_off_c, 10, 69, 64
11, 93240, Note_on_c, 10, 72, 45
11, 93480, Note_off_c, 10, 72, 64
11, 93480, Note_on_c, 10, 67, 45
11, 93720, Note_off_c, 10, 67, 64
11, 93720, Note_on_c, 10, 72, 45
11, 93960, Note_off_c, 10, 72, 64
11, 93960, Note_on_c, 10, 67, 45
11, 94200, Note_off_c, 10, 67, 64
11, 94200, Note_on_c, 10, 72, 45
11, 94440, Note_off_c, 10, 72, 64
11, 94440, Note_on_c, 10, 67, 45
11, 94680, Note_off_c, 10, 67, 64
11, 94680, Note_on_c, 10, 71, 45
11, 94920, Note_off_c, 10, 71, 64
11, 94920, Note_on_c, 10, 67, 45
11, 95160, Note_off_c, 10, 67, 64
11, 95160, Note_on_c, 10, 71, 45
11, 95395, Note_off_c, 10, 71, 64
11, 95400, Note_on_c, 10, 79, 92
11, 96120, Note_off_c, 10, 79, 64
11, 96120, Note_on_c, 10, 81, 92
11, 96240, Note_off_c, 10, 81, 64
11, 96240, Note_on_c, 10, 83, 92
11, 96355, Note_off_c, 10, 83, 64
11, 96360, Note_on_c, 10, 84, 92
11, 96600, Note_off_c, 10, 84, 64
11, 96600, Note_on_c, 10, 83, 92
11, 96720, Note_off_c, 10, 83, 64
11, 96720, Note_on_c, 10, 81, 92
11, 96840, Note_off_c, 10, 81, 64
11, 96840, Note_on_c, 10, 79, 92
11, 97080, Note_off_c, 10, 79, 64
11, 97080, Note_on_c, 10, 81, 92
11, 97200, Note_off_c, 10, 81, 64
11, 97200, Note_on_c, 10, 83, 92
11, 97315, Note_off_c, 10, 83, 64
11, 97320, Note_on_c, 10, 84, 92
11, 97560, Note_off_c, 10, 84, 64
11, 97560, Note_on_c, 10, 83, 92
11, 97680, Note_off_c, 10, 83, 64
11, 97680, Note_on_c, 10, 81, 92
11, 97800, Note_off_c, 10, 81, 64
11, 97800, Note_on_c, 10, 79, 92
11, 98040, Note_off_c, 10, 79, 64
11, 98040, Note_on_c, 10, 81, 92
11, 98160, Note_off_c, 10, 81, 64
11, 98160, Note_on_c, 10, 83, 92
11, 98275, Note_off_c, 10, 83, 64
11, 98280, Note_on_c, 10, 84, 92
11, 98515, Note_off_c, 10, 84, 64
11, 99240, Note_on_c, 10, 69, 45
11, 99480, Note_off_c, 10, 69, 64
11, 99480, Note_on_c, 10, 72, 45
11, 99720, Note_off_c, 10, 72, 64
11, 99720, Note_on_c, 10, 69, 45
11, 99960, Note_off_c, 10, 69, 64
11, 99960, Note_on_c, 10, 72, 45
11, 100200, Note_off_c, 10, 72, 64
11, 100200, Note_on_c, 10, 67, 45
11, 100440, Note_off_c, 10, 67, 64
11, 100440, Note_on_c, 10, 72, 45
11, 100680, Note_off_c, 10, 72, 64
11, 100680, Note_on_c, 10, 67, 45
11, 100920, Note_off_c, 10, 67, 64
11, 100920, Note_on_c, 10, 72, 45
11, 101160, Note_off_c, 10, 72, 64
11, 101160, Note_on_c, 10, 67, 45
11, 101400, Note_off_c, 10, 67, 64
11, 101400, Note_on_c, 10, 71, 45
11, 101640, Note_off_c, 10, 71, 64
11, 101640, Note_on_c, 10, 67, 45
11, 101880, Note_off_c, 10, 67, 64
11, 101880, Note_on_c, 10, 71, 45
11, 102115, Note_off_c, 10, 71, 64
11, 102120, Note_on_c, 10, 67, 45
11, 102355, Note_off_c, 10, 67, 64
11, 102360, Note_on_c, 10, 72, 45
11, 102595, Note_off_c, 10, 72, 64
11, 102600, Note_on_c, 10, 72, 45
11, 102835, Note_off_c, 10, 72, 64
11, 102840, Note_on_c, 10, 72, 48
11, 103075, Note_off_c, 10, 72, 64
11, 103080, Note_on_c, 10, 69, 51
11, 103320, Note_off_c, 10, 69, 64
11, 103320, Note_on_c, 10, 72, 54
11, 103560, Note_off_c, 10, 72, 64
11, 103560, Note_on_c, 10, 69, 57
11, 103800, Note_off_c, 10, 69, 64
11, 103800, Note_on_c, 10, 72, 60
11, 104040, Note_off_c, 10, 72, 64
11, 104040, Note_on_c, 10, 67, 63
11, 104280, Note_off_c, 10, 67, 64
11, 104280, Note_on_c, 10, 72, 66
11, 104520, Note_off_c, 10, 72, 64
11, 104520, Note_on_c, 10, 67, 69
11, 104760, Note_off_c, 10, 67, 64
11, 104760, Note_on_c, 10, 72, 72
11, 105000, Note_off_c, 10, 72, 64
11, 105000, Note_on_c, 10, 67, 76
11, 105240, Note_off_c, 10, 67, 64
11, 105240, Note_on_c, 10, 71, 80
11, 105480, Note_off_c, 10, 71, 64
11, 105480, Note_on_c, 10, 67, 84
11, 105720, Note_off_c, 10, 67, 64
11, 105720, Note_on_c, 10, 71, 88
11, 105955, Note_off_c, 10, 71, 64
11, 105960, Note_on_c, 10, 72, 92
11, 106115, Note_off_c, 10, 72, 64
11, 106120, Note_on_c, 10, 84, 92
11, 106275, Note_off_c, 10, 84, 64
11, 106280, Note_on_c, 10, 84, 92
11, 106435, Note_off_c, 10, 84, 64
11, 106440, Note_on_c, 10, 84, 92
11, 106595, Note_off_c, 10, 84, 64
11, 106600, Note_on_c, 10, 84, 92
11, 106755, Note_off_c, 10, 84, 64
11, 106760, Note_on_c, 10, 84, 92
11, 106915, Note_off_c, 10, 84, 64
11, 106920, Note_on_c, 10, 84, 92
11, 107075, Note_off_c, 10, 84, 64
11, 107080, Note_on_c, 10, 72, 92
11, 107235, Note_off_c, 10, 72, 64
11, 107240, Note_on_c, 10, 84, 92
11, 107395, Note_off_c, 10, 84, 64
11, 107400, Note_on_c, 10, 72, 92
11, 107555, Note_off_c, 10, 72, 64
11, 107560, Note_on_c, 10, 83, 92
11, 107715, Note_off_c, 10, 83, 64
11, 107720, Note_on_c, 10, 81, 92
11, 107875, Note_off_c, 10, 81, 64
11, 107880, Note_on_c, 10, 79, 92
11, 108035, Note_off_c, 10, 79, 64
11, 108040, Note_on_c, 10, 67, 92
11, 108195, Note_off_c, 10, 67, 64
11, 108200, Note_on_c, 10, 79, 92
11, 108355, Note_off_c, 10, 79, 64
11, 108360, Note_on_c, 10, 67, 92
11, 108515, Note_off_c, 10, 67, 64
11, 108520, Note_on_c, 10, 77, 92
11, 108675, Note_off_c, 10, 77, 64
11, 108680, Note_on_c, 10, 76, 92
11, 108835, Note_off_c, 10, 76, 64
11, 108840, Note_on_c, 10, 74, 92
11, 108995, Note_off_c, 10, 74, 64
11, 109000, Note_on_c, 10, 65, 92
11, 109155, Note_off_c, 10, 65, 64
11, 109160, Note_on_c, 10, 74, 92
11, 109315, Note_off_c, 10, 74, 64
11, 109320, Note_on_c, 10, 65, 92
11, 109475, Note_off_c, 10, 65, 64
11, 109480, Note_on_c, 10, 72, 92
11, 109635, Note_off_c, 10, 72, 64
11, 109640, Note_on_c, 10, 74, 92
11, 109795, Note_off_c, 10, 74, 64
11, 109800, Note_on_c, 10, 72, 92
11, 110200, Note_off_c, 10, 72, 64
11, 110520, Note_on_c, 10, 76, 92
11, 110640, Note_off_c, 10, 76, 64
11, 110640, Note_on_c, 10, 74, 92
11, 110760, Note_off_c, 10, 74, 64
11, 110760, Note_on_c, 10, 72, 92
11, 110840, Note_off_c, 10, 72, 64
11, 111000, Note_on_c, 10, 76, 92
11, 111120, Note_off_c, 10, 76, 64
11, 111120, Note_on_c, 10, 74, 92
11, 111240, Note_off_c, 10, 74, 64
11, 111240, Note_on_c, 10, 72, 92
11, 111320, Note_off_c, 10, 72, 64
11, 111480, Note_on_c, 10, 81, 92
11, 111600, Note_off_c, 10, 81, 64
11, 111600, Note_on_c, 10, 78, 92
11, 111720, Note_off_c, 10, 78, 64
11, 111720, Note_on_c, 10, 79, 92
11, 112120, Note_off_c, 10, 79, 64
11, 112440, Note_on_c, 10, 81, 92
11, 112560, Note_off_c, 10, 81, 64
11, 112560, Note_on_c, 10, 79, 92
11, 112680, Note_off_c, 10, 79, 64
11, 112680, Note_on_c, 10, 76, 92
11, 112760, Note_off_c, 10, 76, 64
11, 112920, Note_on_c, 10, 79, 92
11, 113040, Note_off_c, 10, 79, 64
11, 113040, Note_on_c, 10, 77, 92
11, 113160, Note_off_c, 10, 77, 64
11, 113160, Note_on_c, 10, 74, 92
11, 113240, Note_off_c, 10, 74, 64
11, 113400, Note_on_c, 10, 77, 92
11, 113520, Note_off_c, 10, 77, 64
11, 113520, Note_on_c, 10, 76, 92
11, 113640, Note_off_c, 10, 76, 64
11, 113640, Note_on_c, 10, 72, 92
11, 114040, Note_off_c, 10, 72, 64
11, 114360, Note_on_c, 10, 76, 92
11, 114480, Note_off_c, 10, 76, 64
11, 114480, Note_on_c, 10, 74, 92
11, 114600, Note_off_c, 10, 74, 64
11, 114600, Note_on_c, 10, 72, 92
11, 114680, Note_off_c, 10, 72, 64
11, 114840, Note_on_c, 10, 76, 92
11, 114960, Note_off_c, 10, 76, 64
11, 114960, Note_on_c, 10, 74, 92
11, 115080, Note_off_c, 10, 74, 64
11, 115080, Note_on_c, 10, 72, 92
11, 115160, Note_off_c, 10, 72, 64
11, 115320, Note_on_c, 10, 81, 92
11, 115440, Note_off_c, 10, 81, 64
11, 115440, Note_on_c, 10, 78, 92
11, 115560, Note_off_c, 10, 78, 64
11, 115560, Note_on_c, 10, 79, 92
11, 115960, Note_off_c, 10, 79, 64
11, 116280, Note_on_c, 10, 81, 91
11, 116400, Note_off_c, 10, 81, 64
11, 116400, Note_on_c, 10, 79, 91
11, 116520, Note_off_c, 10, 79, 64
11, 116520, Note_on_c, 10, 76, 91
11, 116600, Note_off_c, 10, 76, 64
11, 116760, Note_on_c, 10, 79, 89
11, 116880, Note_off_c, 10, 79, 64
11, 116880, Note_on_c, 10, 77, 88
11, 117000, Note_off_c, 10, 77, 64
11, 117000, Note_on_c, 10, 74, 87
11, 117080, Note_off_c, 10, 74, 64
11, 117240, Note_on_c, 10, 77, 85
11, 117360, Note_off_c, 10, 77, 64
11, 117360, Note_on_c, 10, 76, 84
11, 117480, Note_off_c, 10, 76, 64
11, 117480, Note_on_c, 10, 72, 83
11, 117560, Note_off_c, 10, 72, 64
11, 117720, Note_on_c, 10, 79, 81
11, 117840, Note_off_c, 10, 79, 64
11, 117840, Note_on_c, 10, 76, 80
11, 117960, Note_off_c, 10, 76, 64
11, 117960, Note_on_c, 10, 74, 79
11, 118040, Note_off_c, 10, 74, 64
11, 118200, Note_on_c, 10, 79, 77
11, 118320, Note_off_c, 10, 79, 64
11, 118320, Note_on_c, 10, 77, 76
11, 118440, Note_off_c, 10, 77, 64
11, 118440, Note_on_c, 10, 72, 75
11, 118520, Note_off_c, 10, 72, 64
11, 118680, Note_on_c, 10, 79, 75
11, 118800, Note_off_c, 10, 79, 64
11, 118800, Note_on_c, 10, 76, 75
11, 118920, Note_off_c, 10, 76, 64
11, 118920, Note_on_c, 10, 74, 75
11, 119000, Note_off_c, 10, 74, 64
11, 119160, Note_on_c, 10, 79, 75
11, 119280, Note_off_c, 10, 79, 64
11, 119280, Note_on_c, 10, 77, 75
11, 119400, Note_off_c, 10, 77, 64
11, 119400, Note_on_c, 10, 72, 75
11, 119480, Note_off_c, 10, 72, 64
11, 119640, Note_on_c, 10, 79, 72
11, 119760, Note_off_c, 10, 79, 64
11, 119760, Note_on_c, 10, 76, 71
11, 119880, Note_off_c, 10, 76, 64
11, 119880, Note_on_c, 10, 74, 69
11, 119960, Note_off_c, 10, 74, 64
11, 120120, Note_on_c, 10, 79, 65
11, 120240, Note_off_c, 10, 79, 64
11, 120240, Note_on_c, 10, 77, 63
11, 120360, Note_off_c, 10, 77, 64
11, 120360, Note_on_c, 10, 72, 61
11, 120440, Note_off_c, 10, 72, 64
11, 120600, Note_on_c, 10, 79, 57
11, 120720, Note_off_c, 10, 79, 64
11, 120720, Note_on_c, 10, 76, 55
11, 120840, Note_off_c, 10, 76, 64
11, 120840, Note_on_c, 10, 74, 53
11, 120920, Note_off_c, 10, 74, 64
11, 121080, Note_on_c, 10, 79, 49
11, 121200, Note_off_c, 10, 79, 64
11, 121200, Note_on_c, 10, 77, 47
11, 121315, Note_off_c, 10, 77, 64
11, 121320, Note_on_c, 10, 72, 45
11, 121800, Note_off_c, 10, 72, 64
11, 121800, Note_on_c, 10, 67, 45
11, 122280, Note_off_c, 10, 67, 64
11, 122280, Note_on_c, 10, 72, 45
11, 122760, Note_off_c, 10, 72, 64
11, 122760, Note_on_c, 10, 67, 45
11, 123240, Note_off_c, 10, 67, 64
11, 123240, Note_on_c, 10, 72, 45
11, 123720, Note_off_c, 10, 72, 64
11, 123720, Note_on_c, 10, 67, 45
11, 124200, Note_off_c, 10, 67, 64
11, 124200, Note_on_c, 10, 72, 45
11, 124680, Note_off_c, 10, 72, 64
11, 124680, Note_on_c, 10, 67, 45
11, 125080, Note_off_c, 10, 67, 64
11, 125160, Note_on_c, 10, 72, 30
11, 125395, Note_off_c, 10, 72, 64
11, 129240, Note_on_c, 10, 60, 45
11, 129480, Note_off_c, 10, 60, 64
11, 129480, Note_on_c, 10, 62, 45
11, 129560, Note_off_c, 10, 62, 64
11, 129720, Note_on_c, 10, 65, 45
11, 129800, Note_off_c, 10, 65, 64
11, 129960, Note_on_c, 10, 64, 45
11, 130040, Note_off_c, 10, 64, 64
11, 130200, Note_on_c, 10, 64, 45
11, 130440, Note_off_c, 10, 64, 64
11, 130440, Note_on_c, 10, 65, 45
11, 130520, Note_off_c, 10, 65, 64
11, 130680, Note_on_c, 10, 69, 45
11, 130760, Note_off_c, 10, 69, 64
11, 130920, Note_on_c, 10, 67, 45
11, 131000, Note_off_c, 10, 67, 64
11, 131160, Note_on_c, 10, 67, 45
11, 131400, Note_off_c, 10, 67, 64
11, 131400, Note_on_c, 10, 69, 45
11, 131480, Note_off_c, 10, 69, 64
11, 131640, Note_on_c, 10, 72, 45
11, 131720, Note_off_c, 10, 72, 64
11, 131880, Note_on_c, 10, 70, 45
11, 131960, Note_off_c, 10, 70, 64
11, 132120, Note_on_c, 10, 69, 92
11, 132360, Note_off_c, 10, 69, 64
11, 132360, Note_on_c, 10, 70, 92
11, 132440, Note_off_c, 10, 70, 64
11, 132600, Note_on_c, 10, 74, 92
11, 132680, Note_off_c, 10, 74, 64
11, 133200, Note_on_c, 10, 69, 45
11, 133440, Note_off_c, 10, 69, 64
11, 133440, Note_on_c, 10, 70, 45
11, 133520, Note_off_c, 10, 70, 64
11, 133680, Note_on_c, 10, 74, 45
11, 133760, Note_off_c, 10, 74, 64
11, 133920, Note_on_c, 10, 72, 45
11, 134160, Note_off_c, 10, 72, 64
11, 134160, Note_on_c, 10, 70, 45
11, 134280, Note_off_c, 10, 70, 64
11, 134280, Note_on_c, 10, 69, 45
11, 134400, Note_off_c, 10, 69, 64
11, 134400, Note_on_c, 10, 67, 45
11, 134480, Note_off_c, 10, 67, 64
11, 134640, Note_on_c, 10, 60, 45
11, 134720, Note_off_c, 10, 60, 64
11, 135120, Note_on_c, 10, 69, 45
11, 135360, Note_off_c, 10, 69, 64
11, 135360, Note_on_c, 10, 70, 45
11, 135440, Note_off_c, 10, 70, 64
11, 135600, Note_on_c, 10, 74, 45
11, 135680, Note_off_c, 10, 74, 64
11, 135840, Note_on_c, 10, 72, 45
11, 136080, Note_off_c, 10, 72, 64
11, 136080, Note_on_c, 10, 70, 45
11, 136200, Note_off_c, 10, 70, 64
11, 136200, Note_on_c, 10, 69, 45
11, 136320, Note_off_c, 10, 69, 64
11, 136320, Note_on_c, 10, 67, 45
11, 136400, Note_off_c, 10, 67, 64
11, 136560, Note_on_c, 10, 60, 45
11, 136640, Note_off_c, 10, 60, 64
11, 136800, Note_on_c, 10, 65, 45
11, 136880, Note_off_c, 10, 65, 64
11, 137040, Note_on_c, 10, 65, 45
11, 137280, Note_off_c, 10, 65, 64
11, 137280, Note_on_c, 10, 67, 45
11, 137360, Note_off_c, 10, 67, 64
11, 137520, Note_on_c, 10, 70, 45
11, 137600, Note_off_c, 10, 70, 64
11, 137760, Note_on_c, 10, 69, 45
11, 137840, Note_off_c, 10, 69, 64
11, 138000, Note_on_c, 10, 69, 45
11, 138240, Note_off_c, 10, 69, 64
11, 138240, Note_on_c, 10, 70, 45
11, 138320, Note_off_c, 10, 70, 64
11, 138480, Note_on_c, 10, 74, 45
11, 138560, Note_off_c, 10, 74, 64
11, 138720, Note_on_c, 10, 72, 45
11, 138800, Note_off_c, 10, 72, 64
11, 138960, Note_on_c, 10, 72, 45
11, 139200, Note_off_c, 10, 72, 64
11, 139200, Note_on_c, 10, 74, 45
11, 139280, Note_off_c, 10, 74, 64
11, 139440, Note_on_c, 10, 77, 45
11, 139520, Note_off_c, 10, 77, 64
11, 139680, Note_on_c, 10, 75, 45
11, 139760, Note_off_c, 10, 75, 64
11, 139920, Note_on_c, 10, 74, 92
11, 140160, Note_off_c, 10, 74, 64
11, 140160, Note_on_c, 10, 75, 92
11, 140240, Note_off_c, 10, 75, 64
11, 140400, Note_on_c, 10, 79, 92
11, 140480, Note_off_c, 10, 79, 64
11, 142440, Note_on_c, 10, 65, 30
11, 142675, Note_off_c, 10, 65, 64
11, 144360, Note_on_c, 10, 65, 60
11, 144440, Note_off_c, 10, 65, 64
11, 144600, Note_on_c, 10, 70, 60
11, 144680, Note_off_c, 10, 70, 64
11, 144840, Note_on_c, 10, 65, 60
11, 144960, Note_off_c, 10, 65, 64
11, 144960, Note_on_c, 10, 63, 60
11, 145080, Note_off_c, 10, 63, 64
11, 145080, Note_on_c, 10, 62, 60
11, 145160, Note_off_c, 10, 62, 64
11, 145320, Note_on_c, 10, 58, 60
11, 145400, Note_off_c, 10, 58, 64
11, 145560, Note_on_c, 10, 70, 60
11, 145640, Note_off_c, 10, 70, 64
11, 145800, Note_on_c, 10, 65, 60
11, 145920, Note_off_c, 10, 65, 64
11, 145920, Note_on_c, 10, 63, 60
11, 146040, Note_off_c, 10, 63, 64
11, 146040, Note_on_c, 10, 62, 60
11, 146120, Note_off_c, 10, 62, 64
11, 146280, Note_on_c, 10, 58, 60
11, 146360, Note_off_c, 10, 58, 64
11, 146520, Note_on_c, 10, 70, 60
11, 146600, Note_off_c, 10, 70, 64
11, 146760, Note_on_c, 10, 65, 60
11, 146880, Note_off_c, 10, 65, 64
11, 146880, Note_on_c, 10, 63, 60
11, 147000, Note_off_c, 10, 63, 64
11, 147000, Note_on_c, 10, 62, 60
11, 147080, Note_off_c, 10, 62, 64
11, 147240, Note_on_c, 10, 58, 60
11, 147320, Note_off_c, 10, 58, 64
11, 147480, Note_on_c, 10, 70, 60
11, 147560, Note_off_c, 10, 70, 64
11, 147720, Note_on_c, 10, 65, 60
11, 147840, Note_off_c, 10, 65, 64
11, 147840, Note_on_c, 10, 63, 60
11, 147960, Note_off_c, 10, 63, 64
11, 147960, Note_on_c, 10, 62, 60
11, 148040, Note_off_c, 10, 62, 64
11, 148200, Note_on_c, 10, 58, 60
11, 148280, Note_off_c, 10, 58, 64
11, 148440, Note_on_c, 10, 74, 60
11, 152160, Note_off_c, 10, 74, 64
11, 152280, Note_on_c, 10, 74, 68
11, 152360, Note_off_c, 10, 74, 64
11, 152520, Note_on_c, 10, 72, 68
11, 152640, Note_off_c, 10, 72, 64
11, 152640, Note_on_c, 10, 70, 68
11, 152760, Note_off_c, 10, 70, 64
11, 152760, Note_on_c, 10, 65, 68
11, 152840, Note_off_c, 10, 65, 64
11, 153000, Note_on_c, 10, 62, 68
11, 153080, Note_off_c, 10, 62, 64
11, 153240, Note_on_c, 10, 74, 68
11, 153320, Note_off_c, 10, 74, 64
11, 153480, Note_on_c, 10, 72, 68
11, 153600, Note_off_c, 10, 72, 64
11, 153600, Note_on_c, 10, 70, 68
11, 153720, Note_off_c, 10, 70, 64
11, 153720, Note_on_c, 10, 65, 68
11, 153800, Note_off_c, 10, 65, 64
11, 153960, Note_on_c, 10, 62, 68
11, 154040, Note_off_c, 10, 62, 64
11, 154200, Note_on_c, 10, 74, 68
11, 154280, Note_off_c, 10, 74, 64
11, 154440, Note_on_c, 10, 72, 69
11, 154560, Note_off_c, 10, 72, 64
11, 154560, Note_on_c, 10, 70, 69
11, 154680, Note_off_c, 10, 70, 64
11, 154680, Note_on_c, 10, 65, 69
11, 154760, Note_off_c, 10, 65, 64
11, 154920, Note_on_c, 10, 62, 70
11, 155000, Note_off_c, 10, 62, 64
11, 155160, Note_on_c, 10, 74, 71
11, 155240, Note_off_c, 10, 74, 64
11, 155400, Note_on_c, 10, 72, 72
11, 155520, Note_off_c, 10, 72, 64
11, 155520, Note_on_c, 10, 70, 72
11, 155640, Note_off_c, 10, 70, 64
11, 155640, Note_on_c, 10, 65, 72
11, 155720, Note_off_c, 10, 65, 64
11, 155880, Note_on_c, 10, 62, 73
11, 155960, Note_off_c, 10, 62, 64
11, 156120, Note_on_c, 10, 78, 74
11, 159840, Note_off_c, 10, 78, 64
11, 159960, Note_on_c, 10, 78, 92
11, 160040, Note_off_c, 10, 78, 64
11, 160200, Note_on_c, 10, 76, 92
11, 160320, Note_off_c, 10, 76, 64
11, 160320, Note_on_c, 10, 74, 92
11, 160440, Note_off_c, 10, 74, 64
11, 160440, Note_on_c, 10, 69, 92
11, 160520, Note_off_c, 10, 69, 64
11, 160680, Note_on_c, 10, 66, 92
11, 160760, Note_off_c, 10, 66, 64
11, 160920, Note_on_c, 10, 78, 92
11, 161000, Note_off_c, 10, 78, 64
11, 161160, Note_on_c, 10, 76, 92
11, 161280, Note_off_c, 10, 76, 64
11, 161280, Note_on_c, 10, 74, 92
11, 161400, Note_off_c, 10, 74, 64
11, 161400, Note_on_c, 10, 69, 92
11, 161480, Note_off_c, 10, 69, 64
11, 161640, Note_on_c, 10, 66, 92
11, 161720, Note_off_c, 10, 66, 64
11, 161880, Note_on_c, 10, 78, 92
11, 161960, Note_off_c, 10, 78, 64
11, 162120, Note_on_c, 10, 76, 92
11, 162240, Note_off_c, 10, 76, 64
11, 162240, Note_on_c, 10, 74, 92
11, 162360, Note_off_c, 10, 74, 64
11, 162360, Note_on_c, 10, 69, 92
11, 162440, Note_off_c, 10, 69, 64
11, 162600, Note_on_c, 10, 66, 92
11, 162680, Note_off_c, 10, 66, 64
11, 162840, Note_on_c, 10, 78, 92
11, 162920, Note_off_c, 10, 78, 64
11, 163080, Note_on_c, 10, 76, 92
11, 163200, Note_off_c, 10, 76, 64
11, 163200, Note_on_c, 10, 74, 92
11, 163320, Note_off_c, 10, 74, 64
11, 163320, Note_on_c, 10, 69, 92
11, 163400, Note_off_c, 10, 69, 64
11, 163560, Note_on_c, 10, 66, 92
11, 163640, Note_off_c, 10, 66, 64
11, 163800, Note_on_c, 10, 81, 92
11, 167520, Note_off_c, 10, 81, 64
11, 167640, Program_c, 10, 44
11, 167640, Note_on_c, 10, 81, 92
11, 168480, Note_off_c, 10, 81, 64
11, 168600, Note_on_c, 10, 81, 92
11, 169440, Note_off_c, 10, 81, 64
11, 169560, Note_on_c, 10, 81, 92
11, 170400, Note_off_c, 10, 81, 64
11, 170520, Note_on_c, 10, 81, 92
11, 171360, Note_off_c, 10, 81, 64
11, 171480, Program_c, 10, 48
11, 171480, Note_on_c, 10, 81, 92
11, 171715, Note_off_c, 10, 81, 64
11, 172440, Note_on_c, 10, 74, 92
11, 172520, Note_off_c, 10, 74, 64
11, 172680, Note_on_c, 10, 69, 92
11, 172800, Note_off_c, 10, 69, 64
11, 172800, Note_on_c, 10, 67, 92
11, 172920, Note_off_c, 10, 67, 64
11, 172920, Note_on_c, 10, 66, 92
11, 173000, Note_off_c, 10, 66, 64
11, 173160, Note_on_c, 10, 62, 92
11, 173240, Note_off_c, 10, 62, 64
11, 174360, Note_on_c, 10, 78, 75
11, 174440, Note_off_c, 10, 78, 64
11, 174600, Note_on_c, 10, 76, 75
11, 174720, Note_off_c, 10, 76, 64
11, 174720, Note_on_c, 10, 74, 75
11, 174840, Note_off_c, 10, 74, 64
11, 174840, Note_on_c, 10, 69, 75
11, 174920, Note_off_c, 10, 69, 64
11, 175080, Note_on_c, 10, 66, 75
11, 175160, Note_off_c, 10, 66, 64
11, 176280, Note_on_c, 10, 81, 60
11, 176360, Note_off_c, 10, 81, 64
11, 176520, Note_on_c, 10, 79, 60
11, 176640, Note_off_c, 10, 79, 64
11, 176640, Note_on_c, 10, 78, 60
11, 176760, Note_off_c, 10, 78, 64
11, 176760, Note_on_c, 10, 74, 60
11, 176840, Note_off_c, 10, 74, 64
11, 177000, Note_on_c, 10, 69, 60
11, 177080, Note_off_c, 10, 69, 64
11, 177240, Note_on_c, 10, 81, 60
11, 177320, Note_off_c, 10, 81, 64
11, 177480, Note_on_c, 10, 79, 60
11, 177600, Note_off_c, 10, 79, 64
11, 177600, Note_on_c, 10, 78, 60
11, 177720, Note_off_c, 10, 78, 64
11, 177720, Note_on_c, 10, 74, 60
11, 177800, Note_off_c, 10, 74, 64
11, 177960, Note_on_c, 10, 69, 60
11, 178040, Note_off_c, 10, 69, 64
11, 178200, Note_on_c, 10, 81, 60
11, 178280, Note_off_c, 10, 81, 64
11, 178440, Note_on_c, 10, 79, 60
11, 178560, Note_off_c, 10, 79, 64
11, 178560, Note_on_c, 10, 78, 60
11, 178680, Note_off_c, 10, 78, 64
11, 178680, Note_on_c, 10, 74, 60
11, 178760, Note_off_c, 10, 74, 64
11, 178920, Note_on_c, 10, 69, 60
11, 179000, Note_off_c, 10, 69, 64
11, 179640, Note_on_c, 10, 74, 60
11, 179720, Note_off_c, 10, 74, 64
11, 179880, Note_on_c, 10, 69, 60
11, 179960, Note_off_c, 10, 69, 64
11, 180600, Note_on_c, 10, 74, 60
11, 180680, Note_off_c, 10, 74, 64
11, 180840, Note_on_c, 10, 69, 60
11, 180920, Note_off_c, 10, 69, 64
11, 181080, Note_on_c, 10, 74, 60
11, 181160, Note_off_c, 10, 74, 64
11, 181320, Note_on_c, 10, 69, 60
11, 181400, Note_off_c, 10, 69, 64
11, 181560, Note_on_c, 10, 74, 60
11, 181640, Note_off_c, 10, 74, 64
11, 181800, Note_on_c, 10, 69, 60
11, 181880, Note_off_c, 10, 69, 64
11, 182040, Note_on_c, 10, 74, 60
11, 182120, Note_off_c, 10, 74, 64
11, 182280, Note_on_c, 10, 69, 60
11, 182360, Note_off_c, 10, 69, 64
11, 182520, Note_on_c, 10, 74, 60
11, 182600, Note_off_c, 10, 74, 64
11, 182760, Note_on_c, 10, 69, 60
11, 182840, Note_off_c, 10, 69, 64
11, 183240, Note_on_c, 10, 71, 60
11, 183320, Note_off_c, 10, 71, 64
11, 183480, Note_on_c, 10, 72, 60
11, 183560, Note_off_c, 10, 72, 64
11, 183720, Note_on_c, 10, 76, 60
11, 183800, Note_off_c, 10, 76, 64
11, 183960, Note_on_c, 10, 74, 60
11, 184200, Note_off_c, 10, 74, 64
11, 184200, Note_on_c, 10, 72, 60
11, 184320, Note_off_c, 10, 72, 64
11, 184320, Note_on_c, 10, 71, 60
11, 184440, Note_off_c, 10, 71, 64
11, 184440, Note_on_c, 10, 69, 60
11, 184520, Note_off_c, 10, 69, 64
11, 184680, Note_on_c, 10, 62, 60
11, 184760, Note_off_c, 10, 62, 64
11, 184920, Note_on_c, 10, 67, 60
11, 185000, Note_off_c, 10, 67, 64
11, 185160, Note_on_c, 10, 69, 60
11, 185240, Note_off_c, 10, 69, 64
11, 185400, Note_on_c, 10, 71, 60
11, 185640, Note_off_c, 10, 71, 64
11, 185640, Note_on_c, 10, 72, 60
11, 185760, Note_off_c, 10, 72, 64
11, 185760, Note_on_c, 10, 71, 60
11, 185875, Note_off_c, 10, 71, 64
11, 185880, Note_on_c, 10, 69, 60
11, 186720, Note_off_c, 10, 69, 64
11, 186840, Note_on_c, 10, 71, 60
11, 186920, Note_off_c, 10, 71, 64
11, 187080, Note_on_c, 10, 69, 60
11, 187160, Note_off_c, 10, 69, 64
11, 187320, Note_on_c, 10, 67, 60
11, 187560, Note_off_c, 10, 67, 64
11, 187560, Note_on_c, 10, 66, 60
11, 187680, Note_off_c, 10, 66, 64
11, 187680, Note_on_c, 10, 67, 60
11, 187795, Note_off_c, 10, 67, 64
11, 187800, Note_on_c, 10, 72, 60
11, 187880, Note_off_c, 10, 72, 64
11, 188040, Note_on_c, 10, 71, 60
11, 188120, Note_off_c, 10, 71, 64
11, 188280, Note_on_c, 10, 69, 60
11, 188520, Note_off_c, 10, 69, 64
11, 188520, Note_on_c, 10, 67, 60
11, 188640, Note_off_c, 10, 67, 64
11, 188640, Note_on_c, 10, 69, 60
11, 188755, Note_off_c, 10, 69, 64
11, 188760, Note_on_c, 10, 71, 60
11, 188840, Note_off_c, 10, 71, 64
11, 189000, Note_on_c, 10, 69, 60
11, 189120, Note_off_c, 10, 69, 64
11, 189120, Note_on_c, 10, 67, 60
11, 189240, Note_off_c, 10, 67, 64
11, 189240, Note_on_c, 10, 62, 60
11, 189320, Note_off_c, 10, 62, 64
11, 189480, Note_on_c, 10, 59, 60
11, 189560, Note_off_c, 10, 59, 64
11, 189720, Note_on_c, 10, 71, 60
11, 189800, Note_off_c, 10, 71, 64
11, 189960, Note_on_c, 10, 69, 60
11, 190080, Note_off_c, 10, 69, 64
11, 190080, Note_on_c, 10, 67, 60
11, 190200, Note_off_c, 10, 67, 64
11, 190200, Note_on_c, 10, 62, 60
11, 190280, Note_off_c, 10, 62, 64
11, 190440, Note_on_c, 10, 59, 60
11, 190520, Note_off_c, 10, 59, 64
11, 190680, Note_on_c, 10, 71, 60
11, 190760, Note_off_c, 10, 71, 64
11, 190920, Note_on_c, 10, 69, 60
11, 191040, Note_off_c, 10, 69, 64
11, 191040, Note_on_c, 10, 67, 60
11, 191160, Note_off_c, 10, 67, 64
11, 191160, Note_on_c, 10, 62, 60
11, 191240, Note_off_c, 10, 62, 64
11, 191400, Note_on_c, 10, 59, 60
11, 191480, Note_off_c, 10, 59, 64
11, 191640, Note_on_c, 10, 71, 60
11, 191720, Note_off_c, 10, 71, 64
11, 191880, Note_on_c, 10, 69, 60
11, 192000, Note_off_c, 10, 69, 64
11, 192000, Note_on_c, 10, 67, 60
11, 192120, Note_off_c, 10, 67, 64
11, 192120, Note_on_c, 10, 62, 60
11, 192200, Note_off_c, 10, 62, 64
11, 192360, Note_on_c, 10, 59, 60
11, 192440, Note_off_c, 10, 59, 64
11, 192600, Note_on_c, 10, 74, 60
11, 196320, Note_off_c, 10, 74, 64
11, 196440, Note_on_c, 10, 74, 67
11, 196520, Note_off_c, 10, 74, 64
11, 196680, Note_on_c, 10, 72, 67
11, 196800, Note_off_c, 10, 72, 64
11, 196800, Note_on_c, 10, 71, 67
11, 196920, Note_off_c, 10, 71, 64
11, 196920, Note_on_c, 10, 67, 67
11, 197000, Note_off_c, 10, 67, 64
11, 197160, Note_on_c, 10, 62, 67
11, 197240, Note_off_c, 10, 62, 64
11, 197400, Note_on_c, 10, 74, 67
11, 197480, Note_off_c, 10, 74, 64
11, 197640, Note_on_c, 10, 72, 67
11, 197760, Note_off_c, 10, 72, 64
11, 197760, Note_on_c, 10, 71, 67
11, 197880, Note_off_c, 10, 71, 64
11, 197880, Note_on_c, 10, 67, 67
11, 197960, Note_off_c, 10, 67, 64
11, 198120, Note_on_c, 10, 62, 67
11, 198200, Note_off_c, 10, 62, 64
11, 198360, Note_on_c, 10, 74, 67
11, 198440, Note_off_c, 10, 74, 64
11, 198600, Note_on_c, 10, 72, 68
11, 198720, Note_off_c, 10, 72, 64
11, 198720, Note_on_c, 10, 71, 68
11, 198840, Note_off_c, 10, 71, 64
11, 198840, Note_on_c, 10, 67, 68
11, 198920, Note_off_c, 10, 67, 64
11, 199080, Note_on_c, 10, 62, 69
11, 199160, Note_off_c, 10, 62, 64
11, 199320, Note_on_c, 10, 74, 70
11, 199400, Note_off_c, 10, 74, 64
11, 199560, Note_on_c, 10, 72, 71
11, 199680, Note_off_c, 10, 72, 64
11, 199680, Note_on_c, 10, 71, 71
11, 199800, Note_off_c, 10, 71, 64
11, 199800, Note_on_c, 10, 67, 71
11, 199880, Note_off_c, 10, 67, 64
11, 200040, Note_on_c, 10, 62, 73
11, 200120, Note_off_c, 10, 62, 64
11, 200280, Note_on_c, 10, 76, 75
11, 204000, Note_off_c, 10, 76, 64
11, 204120, Note_on_c, 10, 80, 79
11, 204200, Note_off_c, 10, 80, 64
11, 204360, Note_on_c, 10, 78, 79
11, 204480, Note_off_c, 10, 78, 64
11, 204480, Note_on_c, 10, 76, 79
11, 204600, Note_off_c, 10, 76, 64
11, 204600, Note_on_c, 10, 71, 79
11, 204680, Note_off_c, 10, 71, 64
11, 204840, Note_on_c, 10, 68, 79
11, 204920, Note_off_c, 10, 68, 64
11, 205080, Note_on_c, 10, 80, 79
11, 205160, Note_off_c, 10, 80, 64
11, 205320, Note_on_c, 10, 78, 79
11, 205440, Note_off_c, 10, 78, 64
11, 205440, Note_on_c, 10, 76, 79
11, 205560, Note_off_c, 10, 76, 64
11, 205560, Note_on_c, 10, 71, 79
11, 205640, Note_off_c, 10, 71, 64
11, 205800, Note_on_c, 10, 68, 79
11, 205880, Note_off_c, 10, 68, 64
11, 206040, Note_on_c, 10, 80, 79
11, 206120, Note_off_c, 10, 80, 64
11, 206280, Note_on_c, 10, 78, 79
11, 206400, Note_off_c, 10, 78, 64
11, 206400, Note_on_c, 10, 76, 79
11, 206520, Note_off_c, 10, 76, 64
11, 206520, Note_on_c, 10, 71, 79
11, 206600, Note_off_c, 10, 71, 64
11, 206760, Note_on_c, 10, 68, 79
11, 206840, Note_off_c, 10, 68, 64
11, 207000, Note_on_c, 10, 80, 79
11, 207080, Note_off_c, 10, 80, 64
11, 207240, Note_on_c, 10, 78, 79
11, 207360, Note_off_c, 10, 78, 64
11, 207360, Note_on_c, 10, 76, 79
11, 207480, Note_off_c, 10, 76, 64
11, 207480, Note_on_c, 10, 71, 79
11, 207560, Note_off_c, 10, 71, 64
11, 207720, Note_on_c, 10, 68, 79
11, 207800, Note_off_c, 10, 68, 64
11, 207960, Note_on_c, 10, 83, 79
11, 211680, Note_off_c, 10, 83, 64
11, 211800, Note_on_c, 10, 83, 92
11, 211855, Note_off_c, 10, 83, 64
11, 211860, Note_on_c, 10, 83, 92
11, 211915, Note_off_c, 10, 83, 64
11, 211920, Note_on_c, 10, 83, 92
11, 211975, Note_off_c, 10, 83, 64
11, 211980, Note_on_c, 10, 83, 92
11, 212035, Note_off_c, 10, 83, 64
11, 212040, Note_on_c, 10, 83, 92
11, 212095, Note_off_c, 10, 83, 64
11, 212100, Note_on_c, 10, 83, 92
11, 212155, Note_off_c, 10, 83, 64
11, 212160, Note_on_c, 10, 83, 92
11, 212215, Note_off_c, 10, 83, 64
11, 212220, Note_on_c, 10, 83, 92
11, 212275, Note_off_c, 10, 83, 64
11, 212280, Note_on_c, 10, 83, 92
11, 212335, Note_off_c, 10, 83, 64
11, 212340, Note_on_c, 10, 83, 92
11, 212395, Note_off_c, 10, 83, 64
11, 212400, Note_on_c, 10, 83, 92
11, 212455, Note_off_c, 10, 83, 64
11, 212460, Note_on_c, 10, 83, 92
11, 212515, Note_off_c, 10, 83, 64
11, 212520, Note_on_c, 10, 83, 92
11, 212575, Note_off_c, 10, 83, 64
11, 212580, Note_on_c, 10, 83, 92
11, 212635, Note_off_c, 10, 83, 64
11, 212640, Note_on_c, 10, 83, 92
11, 212695, Note_off_c, 10, 83, 64
11, 212700, Note_on_c, 10, 83, 92
11, 212755, Note_off_c, 10, 83, 64
11, 212760, Note_on_c, 10, 83, 92
11, 212815, Note_off_c, 10, 83, 64
11, 212820, Note_on_c, 10, 83, 92
11, 212875, Note_off_c, 10, 83, 64
11, 212880, Note_on_c, 10, 83, 92
11, 212935, Note_off_c, 10, 83, 64
11, 212940, Note_on_c, 10, 83, 92
11, 212995, Note_off_c, 10, 83, 64
11, 213000, Note_on_c, 10, 83, 92
11, 213055, Note_off_c, 10, 83, 64
11, 213060, Note_on_c, 10, 83, 92
11, 213115, Note_off_c, 10, 83, 64
11, 213120, Note_on_c, 10, 83, 92
11, 213175, Note_off_c, 10, 83, 64
11, 213180, Note_on_c, 10, 83, 92
11, 213235, Note_off_c, 10, 83, 64
11, 213240, Note_on_c, 10, 83, 92
11, 213295, Note_off_c, 10, 83, 64
11, 213300, Note_on_c, 10, 83, 92
11, 213355, Note_off_c, 10, 83, 64
11, 213360, Note_on_c, 10, 83, 92
11, 213415, Note_off_c, 10, 83, 64
11, 213420, Note_on_c, 10, 83, 92
11, 213475, Note_off_c, 10, 83, 64
11, 213480, Note_on_c, 10, 83, 92
11, 213535, Note_off_c, 10, 83, 64
11, 213540, Note_on_c, 10, 83, 92
11, 213595, Note_off_c, 10, 83, 64
11, 213600, Note_on_c, 10, 83, 92
11, 213655, Note_off_c, 10, 83, 64
11, 213660, Note_on_c, 10, 83, 92
11, 213715, Note_off_c, 10, 83, 64
11, 213720, Note_on_c, 10, 83, 92
11, 213775, Note_off_c, 10, 83, 64
11, 213780, Note_on_c, 10, 83, 92
11, 213835, Note_off_c, 10, 83, 64
11, 213840, Note_on_c, 10, 83, 92
11, 213895, Note_off_c, 10, 83, 64
11, 213900, Note_on_c, 10, 83, 92
11, 213955, Note_off_c, 10, 83, 64
11, 213960, Note_on_c, 10, 83, 92
11, 214015, Note_off_c, 10, 83, 64
11, 214020, Note_on_c, 10, 83, 92
11, 214075, Note_off_c, 10, 83, 64
11, 214080, Note_on_c, 10, 83, 92
11, 214135, Note_off_c, 10, 83, 64
11, 214140, Note_on_c, 10, 83, 92
11, 214195, Note_off_c, 10, 83, 64
11, 214200, Note_on_c, 10, 83, 92
11, 214255, Note_off_c, 10, 83, 64
11, 214260, Note_on_c, 10, 83, 92
11, 214315, Note_off_c, 10, 83, 64
11, 214320, Note_on_c, 10, 83, 92
11, 214375, Note_off_c, 10, 83, 64
11, 214380, Note_on_c, 10, 83, 92
11, 214435, Note_off_c, 10, 83, 64
11, 214440, Note_on_c, 10, 83, 92
11, 214495, Note_off_c, 10, 83, 64
11, 214500, Note_on_c, 10, 83, 92
11, 214555, Note_off_c, 10, 83, 64
11, 214560, Note_on_c, 10, 83, 92
11, 214615, Note_off_c, 10, 83, 64
11, 214620, Note_on_c, 10, 83, 92
11, 214675, Note_off_c, 10, 83, 64
11, 214680, Note_on_c, 10, 83, 92
11, 214735, Note_off_c, 10, 83, 64
11, 214740, Note_on_c, 10, 83, 92
11, 214795, Note_off_c, 10, 83, 64
11, 214800, Note_on_c, 10, 83, 92
11, 214855, Note_off_c, 10, 83, 64
11, 214860, Note_on_c, 10, 83, 92
11, 214915, Note_off_c, 10, 83, 64
11, 214920, Note_on_c, 10, 83, 92
11, 214975, Note_off_c, 10, 83, 64
11, 214980, Note_on_c, 10, 83, 92
11, 215035, Note_off_c, 10, 83, 64
11, 215040, Note_on_c, 10, 83, 92
11, 215095, Note_off_c, 10, 83, 64
11, 215100, Note_on_c, 10, 83, 92
11, 215155, Note_off_c, 10, 83, 64
11, 215160, Note_on_c, 10, 83, 92
11, 215215, Note_off_c, 10, 83, 64
11, 215220, Note_on_c, 10, 83, 92
11, 215275, Note_off_c, 10, 83, 64
11, 215280, Note_on_c, 10, 83, 92
11, 215335, Note_off_c, 10, 83, 64
11, 215340, Note_on_c, 10, 83, 92
11, 215395, Note_off_c, 10, 83, 64
11, 215400, Note_on_c, 10, 83, 92
11, 215455, Note_off_c, 10, 83, 64
11, 215460, Note_on_c, 10, 83, 92
11, 215515, Note_off_c, 10, 83, 64
11, 215520, Note_on_c, 10, 83, 92
11, 215575, Note_off_c, 10, 83, 64
11, 215580, Note_on_c, 10, 83, 92
11, 215635, Note_off_c, 10, 83, 64
11, 215640, Note_on_c, 10, 83, 92
11, 215875, Note_off_c, 10, 83, 64
11, 216600, Note_on_c, 10, 76, 92
11, 216680, Note_off_c, 10, 76, 64
11, 216840, Note_on_c, 10, 71, 92
11, 216960, Note_off_c, 10, 71, 64
11, 216960, Note_on_c, 10, 69, 92
11, 217080, Note_off_c, 10, 69, 64
11, 217080, Note_on_c, 10, 68, 92
11, 217160, Note_off_c, 10, 68, 64
11, 217320, Note_on_c, 10, 64, 92
11, 217400, Note_off_c, 10, 64, 64
11, 218520, Note_on_c, 10, 80, 92
11, 218600, Note_off_c, 10, 80, 64
11, 218760, Note_on_c, 10, 78, 92
11, 218880, Note_off_c, 10, 78, 64
11, 218880, Note_on_c, 10, 76, 92
11, 219000, Note_off_c, 10, 76, 64
11, 219000, Note_on_c, 10, 71, 92
11, 219080, Note_off_c, 10, 71, 64
11, 219240, Note_on_c, 10, 68, 92
11, 219320, Note_off_c, 10, 68, 64
11, 220440, Note_on_c, 10, 83, 75
11, 220520, Note_off_c, 10, 83, 64
11, 220680, Note_on_c, 10, 81, 75
11, 220800, Note_off_c, 10, 81, 64
11, 220800, Note_on_c, 10, 80, 75
11, 220920, Note_off_c, 10, 80, 64
11, 220920, Note_on_c, 10, 76, 75
11, 221000, Note_off_c, 10, 76, 64
11, 221160, Note_on_c, 10, 71, 75
11, 221240, Note_off_c, 10, 71, 64
11, 221400, Note_on_c, 10, 83, 60
11, 221480, Note_off_c, 10, 83, 64
11, 221640, Note_on_c, 10, 81, 60
11, 221760, Note_off_c, 10, 81, 64
11, 221760, Note_on_c, 10, 80, 60
11, 221880, Note_off_c, 10, 80, 64
11, 221880, Note_on_c, 10, 76, 60
11, 221960, Note_off_c, 10, 76, 64
11, 222120, Note_on_c, 10, 71, 60
11, 222200, Note_off_c, 10, 71, 64
11, 222360, Note_on_c, 10, 83, 60
11, 222440, Note_off_c, 10, 83, 64
11, 222600, Note_on_c, 10, 81, 60
11, 222720, Note_off_c, 10, 81, 64
11, 222720, Note_on_c, 10, 80, 60
11, 222840, Note_off_c, 10, 80, 64
11, 222840, Note_on_c, 10, 76, 60
11, 222920, Note_off_c, 10, 76, 64
11, 223080, Note_on_c, 10, 71, 60
11, 223160, Note_off_c, 10, 71, 64
11, 223800, Note_on_c, 10, 76, 60
11, 223880, Note_off_c, 10, 76, 64
11, 224040, Note_on_c, 10, 71, 60
11, 224120, Note_off_c, 10, 71, 64
11, 224760, Note_on_c, 10, 76, 60
11, 224840, Note_off_c, 10, 76, 64
11, 225000, Note_on_c, 10, 71, 60
11, 225080, Note_off_c, 10, 71, 64
11, 225240, Note_on_c, 10, 76, 60
11, 225320, Note_off_c, 10, 76, 64
11, 225480, Note_on_c, 10, 71, 60
11, 225560, Note_off_c, 10, 71, 64
11, 225720, Note_on_c, 10, 76, 60
11, 225800, Note_off_c, 10, 76, 64
11, 225960, Note_on_c, 10, 71, 60
11, 226040, Note_off_c, 10, 71, 64
11, 226200, Note_on_c, 10, 76, 60
11, 226280, Note_off_c, 10, 76, 64
11, 226440, Note_on_c, 10, 71, 60
11, 226520, Note_off_c, 10, 71, 64
11, 226680, Note_on_c, 10, 76, 60
11, 226760, Note_off_c, 10, 76, 64
11, 226920, Note_on_c, 10, 71, 60
11, 227000, Note_off_c, 10, 71, 64
11, 227400, Note_on_c, 10, 73, 60
11, 227480, Note_off_c, 10, 73, 64
11, 227640, Note_on_c, 10, 74, 60
11, 227720, Note_off_c, 10, 74, 64
11, 227880, Note_on_c, 10, 78, 60
11, 227960, Note_off_c, 10, 78, 64
11, 228120, Note_on_c, 10, 76, 60
11, 228360, Note_off_c, 10, 76, 64
11, 228360, Note_on_c, 10, 74, 60
11, 228480, Note_off_c, 10, 74, 64
11, 228480, Note_on_c, 10, 73, 60
11, 228600, Note_off_c, 10, 73, 64
11, 228600, Note_on_c, 10, 71, 60
11, 228680, Note_off_c, 10, 71, 64
11, 228840, Note_on_c, 10, 64, 60
11, 228920, Note_off_c, 10, 64, 64
11, 229080, Note_on_c, 10, 69, 60
11, 229160, Note_off_c, 10, 69, 64
11, 229320, Note_on_c, 10, 71, 60
11, 229400, Note_off_c, 10, 71, 64
11, 229560, Note_on_c, 10, 73, 60
11, 229800, Note_off_c, 10, 73, 64
11, 229800, Note_on_c, 10, 74, 60
11, 229920, Note_off_c, 10, 74, 64
11, 229920, Note_on_c, 10, 73, 60
11, 230035, Note_off_c, 10, 73, 64
11, 230040, Note_on_c, 10, 71, 60
11, 230880, Note_off_c, 10, 71, 64
11, 231000, Note_on_c, 10, 73, 60
11, 231080, Note_off_c, 10, 73, 64
11, 231240, Note_on_c, 10, 71, 60
11, 231320, Note_off_c, 10, 71, 64
11, 231480, Note_on_c, 10, 69, 60
11, 231720, Note_off_c, 10, 69, 64
11, 231720, Note_on_c, 10, 68, 60
11, 231840, Note_off_c, 10, 68, 64
11, 231840, Note_on_c, 10, 69, 60
11, 231955, Note_off_c, 10, 69, 64
11, 231960, Note_on_c, 10, 74, 60
11, 232040, Note_off_c, 10, 74, 64
11, 232200, Note_on_c, 10, 73, 60
11, 232280, Note_off_c, 10, 73, 64
11, 232440, Note_on_c, 10, 71, 60
11, 232680, Note_off_c, 10, 71, 64
11, 232680, Note_on_c, 10, 69, 60
11, 232800, Note_off_c, 10, 69, 64
11, 232800, Note_on_c, 10, 71, 60
11, 232915, Note_off_c, 10, 71, 64
11, 232920, Note_on_c, 10, 73, 60
11, 233000, Note_off_c, 10, 73, 64
11, 236760, Note_on_c, 10, 57, 45
11, 236875, Note_off_c, 10, 57, 64
11, 236880, Note_on_c, 10, 61, 45
11, 236995, Note_off_c, 10, 61, 64
11, 237000, Note_on_c, 10, 69, 45
11, 237115, Note_off_c, 10, 69, 64
11, 237120, Note_on_c, 10, 69, 45
11, 237235, Note_off_c, 10, 69, 64
11, 237240, Note_on_c, 10, 61, 45
11, 237355, Note_off_c, 10, 61, 64
11, 237360, Note_on_c, 10, 64, 45
11, 237475, Note_off_c, 10, 64, 64
11, 237480, Note_on_c, 10, 69, 45
11, 237595, Note_off_c, 10, 69, 64
11, 237600, Note_on_c, 10, 69, 45
11, 237715, Note_off_c, 10, 69, 64
11, 237720, Note_on_c, 10, 59, 45
11, 237835, Note_off_c, 10, 59, 64
11, 237840, Note_on_c, 10, 62, 45
11, 237955, Note_off_c, 10, 62, 64
11, 237960, Note_on_c, 10, 69, 45
11, 238075, Note_off_c, 10, 69, 64
11, 238080, Note_on_c, 10, 69, 45
11, 238195, Note_off_c, 10, 69, 64
11, 238200, Note_on_c, 10, 62, 45
11, 238315, Note_off_c, 10, 62, 64
11, 238320, Note_on_c, 10, 69, 45
11, 238435, Note_off_c, 10, 69, 64
11, 238440, Note_on_c, 10, 61, 45
11, 238555, Note_off_c, 10, 61, 64
11, 238560, Note_on_c, 10, 69, 45
11, 238675, Note_off_c, 10, 69, 64
11, 238680, Note_on_c, 10, 57, 45
11, 238795, Note_off_c, 10, 57, 64
11, 238800, Note_on_c, 10, 61, 45
11, 238915, Note_off_c, 10, 61, 64
11, 238920, Note_on_c, 10, 69, 45
11, 239035, Note_off_c, 10, 69, 64
11, 239040, Note_on_c, 10, 69, 45
11, 239155, Note_off_c, 10, 69, 64
11, 239160, Note_on_c, 10, 57, 45
11, 239275, Note_off_c, 10, 57, 64
11, 239280, Note_on_c, 10, 61, 45
11, 239395, Note_off_c, 10, 61, 64
11, 239400, Note_on_c, 10, 69, 45
11, 239515, Note_off_c, 10, 69, 64
11, 239520, Note_on_c, 10, 69, 45
11, 239635, Note_off_c, 10, 69, 64
11, 239640, Note_on_c, 10, 62, 45
11, 239755, Note_off_c, 10, 62, 64
11, 239760, Note_on_c, 10, 69, 45
11, 239875, Note_off_c, 10, 69, 64
11, 239880, Note_on_c, 10, 57, 45
11, 239995, Note_off_c, 10, 57, 64
11, 240000, Note_on_c, 10, 69, 45
11, 240115, Note_off_c, 10, 69, 64
11, 240120, Note_on_c, 10, 57, 45
11, 240235, Note_off_c, 10, 57, 64
11, 240240, Note_on_c, 10, 69, 45
11, 240355, Note_off_c, 10, 69, 64
11, 240360, Note_on_c, 10, 57, 45
11, 240475, Note_off_c, 10, 57, 64
11, 240480, Note_on_c, 10, 69, 45
11, 240595, Note_off_c, 10, 69, 64
11, 240600, Note_on_c, 10, 57, 45
11, 240715, Note_off_c, 10, 57, 64
11, 240720, Note_on_c, 10, 64, 45
11, 240835, Note_off_c, 10, 64, 64
11, 240840, Note_on_c, 10, 69, 45
11, 240955, Note_off_c, 10, 69, 64
11, 240960, Note_on_c, 10, 69, 45
11, 241075, Note_off_c, 10, 69, 64
11, 241080, Note_on_c, 10, 57, 45
11, 241195, Note_off_c, 10, 57, 64
11, 241200, Note_on_c, 10, 67, 45
11, 241315, Note_off_c, 10, 67, 64
11, 241320, Note_on_c, 10, 69, 45
11, 241435, Note_off_c, 10, 69, 64
11, 241440, Note_on_c, 10, 69, 45
11, 241555, Note_off_c, 10, 69, 64
11, 241560, Note_on_c, 10, 57, 45
11, 241675, Note_off_c, 10, 57, 64
11, 241680, Note_on_c, 10, 66, 45
11, 241795, Note_off_c, 10, 66, 64
11, 241800, Note_on_c, 10, 69, 45
11, 241915, Note_off_c, 10, 69, 64
11, 241920, Note_on_c, 10, 69, 45
11, 242035, Note_off_c, 10, 69, 64
11, 242040, Note_on_c, 10, 57, 45
11, 242155, Note_off_c, 10, 57, 64
11, 242160, Note_on_c, 10, 69, 45
11, 242275, Note_off_c, 10, 69, 64
11, 242280, Note_on_c, 10, 57, 45
11, 242395, Note_off_c, 10, 57, 64
11, 242400, Note_on_c, 10, 69, 45
11, 242515, Note_off_c, 10, 69, 64
11, 242520, Note_on_c, 10, 57, 45
11, 242635, Note_off_c, 10, 57, 64
11, 242640, Note_on_c, 10, 66, 45
11, 242755, Note_off_c, 10, 66, 64
11, 242760, Note_on_c, 10, 69, 45
11, 242875, Note_off_c, 10, 69, 64
11, 242880, Note_on_c, 10, 69, 45
11, 242995, Note_off_c, 10, 69, 64
11, 243000, Note_on_c, 10, 57, 45
11, 243115, Note_off_c, 10, 57, 64
11, 243120, Note_on_c, 10, 67, 45
11, 243235, Note_off_c, 10, 67, 64
11, 243240, Note_on_c, 10, 69, 45
11, 243355, Note_off_c, 10, 69, 64
11, 243360, Note_on_c, 10, 69, 45
11, 243475, Note_off_c, 10, 69, 64
11, 243480, Note_on_c, 10, 57, 45
11, 243595, Note_off_c, 10, 57, 64
11, 243600, Note_on_c, 10, 69, 45
11, 243715, Note_off_c, 10, 69, 64
11, 243720, Note_on_c, 10, 62, 45
11, 243835, Note_off_c, 10, 62, 64
11, 243840, Note_on_c, 10, 74, 45
11, 243955, Note_off_c, 10, 74, 64
11, 243960, Note_on_c, 10, 62, 45
11, 244075, Note_off_c, 10, 62, 64
11, 244080, Note_on_c, 10, 74, 45
11, 244195, Note_off_c, 10, 74, 64
11, 244200, Note_on_c, 10, 62, 45
11, 244315, Note_off_c, 10, 62, 64
11, 244320, Note_on_c, 10, 74, 45
11, 244435, Note_off_c, 10, 74, 64
11, 244440, Note_on_c, 10, 66, 45
11, 244920, Note_off_c, 10, 66, 64
11, 244920, Note_on_c, 10, 69, 46
11, 245400, Note_off_c, 10, 69, 64
11, 245400, Note_on_c, 10, 67, 48
11, 246120, Note_off_c, 10, 67, 64
11, 246120, Note_on_c, 10, 66, 51
11, 246355, Note_off_c, 10, 66, 64
11, 246360, Note_on_c, 10, 70, 52
11, 246840, Note_off_c, 10, 70, 64
11, 246840, Note_on_c, 10, 69, 54
11, 247320, Note_off_c, 10, 69, 64
11, 247320, Note_on_c, 10, 67, 56
11, 247400, Note_off_c, 10, 67, 64
11, 247560, Note_on_c, 10, 67, 57
11, 247680, Note_off_c, 10, 67, 64
11, 247680, Note_on_c, 10, 69, 57
11, 247800, Note_off_c, 10, 69, 64
11, 247800, Note_on_c, 10, 70, 57
11, 248040, Note_off_c, 10, 70, 64
11, 248040, Note_on_c, 10, 67, 58
11, 248275, Note_off_c, 10, 67, 64
11, 248280, Note_on_c, 10, 69, 60
11, 248760, Note_off_c, 10, 69, 64
11, 248760, Note_on_c, 10, 72, 60
11, 249240, Note_off_c, 10, 72, 64
11, 249240, Note_on_c, 10, 70, 60
11, 249960, Note_off_c, 10, 70, 64
11, 249960, Note_on_c, 10, 69, 63
11, 250195, Note_off_c, 10, 69, 64
11, 250200, Note_on_c, 10, 74, 64
11, 250680, Note_off_c, 10, 74, 64
11, 250680, Note_on_c, 10, 72, 66
11, 251160, Note_off_c, 10, 72, 64
11, 251160, Note_on_c, 10, 71, 69
11, 251240, Note_off_c, 10, 71, 64
11, 251400, Note_on_c, 10, 71, 70
11, 251520, Note_off_c, 10, 71, 64
11, 251520, Note_on_c, 10, 72, 70
11, 251640, Note_off_c, 10, 72, 64
11, 251640, Note_on_c, 10, 74, 71
11, 251880, Note_off_c, 10, 74, 64
11, 251880, Note_on_c, 10, 71, 73
11, 252115, Note_off_c, 10, 71, 64
11, 252120, Note_on_c, 10, 72, 75
11, 252120, Note_on_c, 10, 84, 75
11, 252235, Note_off_c, 10, 84, 64
11, 252235, Note_off_c, 10, 72, 64
11, 252240, Note_on_c, 10, 72, 75
11, 252240, Note_on_c, 10, 84, 75
11, 252355, Note_off_c, 10, 84, 64
11, 252355, Note_off_c, 10, 72, 64
11, 252360, Note_on_c, 10, 72, 75
11, 252360, Note_on_c, 10, 84, 75
11, 252475, Note_off_c, 10, 84, 64
11, 252475, Note_off_c, 10, 72, 64
11, 252480, Note_on_c, 10, 72, 75
11, 252480, Note_on_c, 10, 84, 75
11, 252595, Note_off_c, 10, 84, 64
11, 252595, Note_off_c, 10, 72, 64
11, 252600, Note_on_c, 10, 72, 75
11, 252600, Note_on_c, 10, 84, 75
11, 252715, Note_off_c, 10, 84, 64
11, 252715, Note_off_c, 10, 72, 64
11, 252720, Note_on_c, 10, 72, 75
11, 252720, Note_on_c, 10, 84, 75
11, 252835, Note_off_c, 10, 84, 64
11, 252835, Note_off_c, 10, 72, 64
11, 252840, Note_on_c, 10, 72, 75
11, 252840, Note_on_c, 10, 84, 75
11, 252955, Note_off_c, 10, 84, 64
11, 252955, Note_off_c, 10, 72, 64
11, 252960, Note_on_c, 10, 72, 75
11, 252960, Note_on_c, 10, 84, 75
11, 253075, Note_off_c, 10, 84, 64
11, 253075, Note_off_c, 10, 72, 64
11, 253080, Note_on_c, 10, 72, 75
11, 253080, Note_on_c, 10, 84, 75
11, 253195, Note_off_c, 10, 84, 64
11, 253195, Note_off_c, 10, 72, 64
11, 253200, Note_on_c, 10, 72, 75
11, 253200, Note_on_c, 10, 84, 75
11, 253315, Note_off_c, 10, 84, 64
11, 253315, Note_off_c, 10, 72, 64
11, 253320, Note_on_c, 10, 72, 75
11, 253320, Note_on_c, 10, 84, 75
11, 253435, Note_off_c, 10, 84, 64
11, 253435, Note_off_c, 10, 72, 64
11, 253440, Note_on_c, 10, 72, 75
11, 253440, Note_on_c, 10, 84, 75
11, 253555, Note_off_c, 10, 84, 64
11, 253555, Note_off_c, 10, 72, 64
11, 253560, Note_on_c, 10, 72, 75
11, 253560, Note_on_c, 10, 84, 75
11, 253675, Note_off_c, 10, 84, 64
11, 253675, Note_off_c, 10, 72, 64
11, 253680, Note_on_c, 10, 72, 75
11, 253680, Note_on_c, 10, 84, 75
11, 253795, Note_off_c, 10, 84, 64
11, 253795, Note_off_c, 10, 72, 64
11, 253800, Note_on_c, 10, 72, 75
11, 253800, Note_on_c, 10, 84, 75
11, 253915, Note_off_c, 10, 84, 64
11, 253915, Note_off_c, 10, 72, 64
11, 253920, Note_on_c, 10, 72, 75
11, 253920, Note_on_c, 10, 84, 75
11, 254035, Note_off_c, 10, 84, 64
11, 254035, Note_off_c, 10, 72, 64
11, 254040, Note_on_c, 10, 72, 75
11, 254040, Note_on_c, 10, 84, 75
11, 254155, Note_off_c, 10, 84, 64
11, 254155, Note_off_c, 10, 72, 64
11, 254160, Note_on_c, 10, 72, 75
11, 254160, Note_on_c, 10, 84, 75
11, 254275, Note_off_c, 10, 84, 64
11, 254275, Note_off_c, 10, 72, 64
11, 254280, Note_on_c, 10, 72, 75
11, 254280, Note_on_c, 10, 84, 75
11, 254395, Note_off_c, 10, 84, 64
11, 254395, Note_off_c, 10, 72, 64
11, 254400, Note_on_c, 10, 72, 75
11, 254400, Note_on_c, 10, 84, 75
11, 254515, Note_off_c, 10, 84, 64
11, 254515, Note_off_c, 10, 72, 64
11, 254520, Note_on_c, 10, 72, 75
11, 254520, Note_on_c, 10, 84, 75
11, 254635, Note_off_c, 10, 84, 64
11, 254635, Note_off_c, 10, 72, 64
11, 254640, Note_on_c, 10, 72, 75
11, 254640, Note_on_c, 10, 84, 75
11, 254755, Note_off_c, 10, 84, 64
11, 254755, Note_off_c, 10, 72, 64
11, 254760, Note_on_c, 10, 72, 75
11, 254760, Note_on_c, 10, 84, 75
11, 254875, Note_off_c, 10, 84, 64
11, 254875, Note_off_c, 10, 72, 64
11, 254880, Note_on_c, 10, 72, 75
11, 254880, Note_on_c, 10, 84, 75
11, 254995, Note_off_c, 10, 84, 64
11, 254995, Note_off_c, 10, 72, 64
11, 255000, Note_on_c, 10, 72, 75
11, 255000, Note_on_c, 10, 84, 75
11, 255115, Note_off_c, 10, 84, 64
11, 255115, Note_off_c, 10, 72, 64
11, 255120, Note_on_c, 10, 72, 75
11, 255120, Note_on_c, 10, 84, 75
11, 255235, Note_off_c, 10, 84, 64
11, 255235, Note_off_c, 10, 72, 64
11, 255240, Note_on_c, 10, 72, 75
11, 255240, Note_on_c, 10, 84, 75
11, 255355, Note_off_c, 10, 84, 64
11, 255355, Note_off_c, 10, 72, 64
11, 255360, Note_on_c, 10, 72, 75
11, 255360, Note_on_c, 10, 84, 75
11, 255475, Note_off_c, 10, 84, 64
11, 255475, Note_off_c, 10, 72, 64
11, 255480, Note_on_c, 10, 72, 75
11, 255480, Note_on_c, 10, 84, 75
11, 255595, Note_off_c, 10, 84, 64
11, 255595, Note_off_c, 10, 72, 64
11, 255600, Note_on_c, 10, 72, 75
11, 255600, Note_on_c, 10, 84, 75
11, 255715, Note_off_c, 10, 84, 64
11, 255715, Note_off_c, 10, 72, 64
11, 255720, Note_on_c, 10, 72, 75
11, 255720, Note_on_c, 10, 84, 75
11, 255835, Note_off_c, 10, 84, 64
11, 255835, Note_off_c, 10, 72, 64
11, 255840, Note_on_c, 10, 72, 75
11, 255840, Note_on_c, 10, 84, 75
11, 255955, Note_off_c, 10, 84, 64
11, 255955, Note_off_c, 10, 72, 64
11, 255960, Note_on_c, 10, 72, 75
11, 255960, Note_on_c, 10, 84, 75
11, 256075, Note_off_c, 10, 84, 64
11, 256075, Note_off_c, 10, 72, 64
11, 256080, Note_on_c, 10, 72, 75
11, 256080, Note_on_c, 10, 84, 75
11, 256195, Note_off_c, 10, 84, 64
11, 256195, Note_off_c, 10, 72, 64
11, 256200, Note_on_c, 10, 72, 75
11, 256200, Note_on_c, 10, 84, 75
11, 256315, Note_off_c, 10, 84, 64
11, 256315, Note_off_c, 10, 72, 64
11, 256320, Note_on_c, 10, 72, 75
11, 256320, Note_on_c, 10, 84, 75
11, 256435, Note_off_c, 10, 84, 64
11, 256435, Note_off_c, 10, 72, 64
11, 256440, Note_on_c, 10, 72, 75
11, 256440, Note_on_c, 10, 84, 75
11, 256555, Note_off_c, 10, 84, 64
11, 256555, Note_off_c, 10, 72, 64
11, 256560, Note_on_c, 10, 72, 75
11, 256560, Note_on_c, 10, 84, 75
11, 256675, Note_off_c, 10, 84, 64
11, 256675, Note_off_c, 10, 72, 64
11, 256680, Note_on_c, 10, 72, 75
11, 256680, Note_on_c, 10, 84, 75
11, 256795, Note_off_c, 10, 84, 64
11, 256795, Note_off_c, 10, 72, 64
11, 256800, Note_on_c, 10, 72, 75
11, 256800, Note_on_c, 10, 84, 75
11, 256915, Note_off_c, 10, 84, 64
11, 256915, Note_off_c, 10, 72, 64
11, 256920, Note_on_c, 10, 72, 75
11, 256920, Note_on_c, 10, 84, 75
11, 257035, Note_off_c, 10, 84, 64
11, 257035, Note_off_c, 10, 72, 64
11, 257040, Note_on_c, 10, 72, 75
11, 257040, Note_on_c, 10, 84, 75
11, 257155, Note_off_c, 10, 84, 64
11, 257155, Note_off_c, 10, 72, 64
11, 257160, Note_on_c, 10, 72, 75
11, 257160, Note_on_c, 10, 84, 75
11, 257275, Note_off_c, 10, 84, 64
11, 257275, Note_off_c, 10, 72, 64
11, 257280, Note_on_c, 10, 72, 75
11, 257280, Note_on_c, 10, 84, 75
11, 257395, Note_off_c, 10, 84, 64
11, 257395, Note_off_c, 10, 72, 64
11, 257400, Note_on_c, 10, 72, 75
11, 257400, Note_on_c, 10, 84, 75
11, 257515, Note_off_c, 10, 84, 64
11, 257515, Note_off_c, 10, 72, 64
11, 257520, Note_on_c, 10, 72, 75
11, 257520, Note_on_c, 10, 84, 75
11, 257635, Note_off_c, 10, 84, 64
11, 257635, Note_off_c, 10, 72, 64
11, 257640, Note_on_c, 10, 72, 75
11, 257640, Note_on_c, 10, 84, 75
11, 257755, Note_off_c, 10, 84, 64
11, 257755, Note_off_c, 10, 72, 64
11, 257760, Note_on_c, 10, 72, 75
11, 257760, Note_on_c, 10, 84, 75
11, 257875, Note_off_c, 10, 84, 64
11, 257875, Note_off_c, 10, 72, 64
11, 257880, Note_on_c, 10, 72, 75
11, 257880, Note_on_c, 10, 84, 75
11, 257995, Note_off_c, 10, 84, 64
11, 257995, Note_off_c, 10, 72, 64
11, 258000, Note_on_c, 10, 72, 75
11, 258000, Note_on_c, 10, 84, 75
11, 258115, Note_off_c, 10, 84, 64
11, 258115, Note_off_c, 10, 72, 64
11, 258120, Note_on_c, 10, 72, 75
11, 258120, Note_on_c, 10, 84, 75
11, 258235, Note_off_c, 10, 84, 64
11, 258235, Note_off_c, 10, 72, 64
11, 258240, Note_on_c, 10, 72, 75
11, 258240, Note_on_c, 10, 84, 75
11, 258355, Note_off_c, 10, 84, 64
11, 258355, Note_off_c, 10, 72, 64
11, 258360, Note_on_c, 10, 72, 75
11, 258360, Note_on_c, 10, 84, 75
11, 258475, Note_off_c, 10, 84, 64
11, 258475, Note_off_c, 10, 72, 64
11, 258480, Note_on_c, 10, 72, 75
11, 258480, Note_on_c, 10, 84, 75
11, 258595, Note_off_c, 10, 84, 64
11, 258595, Note_off_c, 10, 72, 64
11, 258600, Note_on_c, 10, 72, 75
11, 258600, Note_on_c, 10, 84, 75
11, 258715, Note_off_c, 10, 84, 64
11, 258715, Note_off_c, 10, 72, 64
11, 258720, Note_on_c, 10, 72, 75
11, 258720, Note_on_c, 10, 84, 75
11, 258835, Note_off_c, 10, 84, 64
11, 258835, Note_off_c, 10, 72, 64
11, 258840, Note_on_c, 10, 72, 75
11, 258840, Note_on_c, 10, 84, 75
11, 258955, Note_off_c, 10, 84, 64
11, 258955, Note_off_c, 10, 72, 64
11, 258960, Note_on_c, 10, 72, 75
11, 258960, Note_on_c, 10, 84, 75
11, 259075, Note_off_c, 10, 84, 64
11, 259075, Note_off_c, 10, 72, 64
11, 259080, Note_on_c, 10, 72, 75
11, 259080, Note_on_c, 10, 84, 75
11, 259195, Note_off_c, 10, 84, 64
11, 259195, Note_off_c, 10, 72, 64
11, 259200, Note_on_c, 10, 72, 75
11, 259200, Note_on_c, 10, 84, 75
11, 259315, Note_off_c, 10, 84, 64
11, 259315, Note_off_c, 10, 72, 64
11, 259320, Note_on_c, 10, 72, 75
11, 259320, Note_on_c, 10, 84, 75
11, 259435, Note_off_c, 10, 84, 64
11, 259435, Note_off_c, 10, 72, 64
11, 259440, Note_on_c, 10, 72, 75
11, 259440, Note_on_c, 10, 84, 75
11, 259555, Note_off_c, 10, 84, 64
11, 259555, Note_off_c, 10, 72, 64
11, 259560, Note_on_c, 10, 72, 75
11, 259560, Note_on_c, 10, 84, 75
11, 259675, Note_off_c, 10, 84, 64
11, 259675, Note_off_c, 10, 72, 64
11, 259680, Note_on_c, 10, 72, 75
11, 259680, Note_on_c, 10, 84, 75
11, 259795, Note_off_c, 10, 84, 64
11, 259795, Note_off_c, 10, 72, 64
11, 259800, Note_on_c, 10, 72, 75
11, 259800, Note_on_c, 10, 84, 75
11, 259915, Note_off_c, 10, 84, 64
11, 259915, Note_off_c, 10, 72, 64
11, 259920, Note_on_c, 10, 72, 75
11, 259920, Note_on_c, 10, 84, 75
11, 260035, Note_off_c, 10, 84, 64
11, 260035, Note_off_c, 10, 72, 64
11, 260040, Note_on_c, 10, 72, 75
11, 260040, Note_on_c, 10, 84, 75
11, 260155, Note_off_c, 10, 84, 64
11, 260155, Note_off_c, 10, 72, 64
11, 260160, Note_on_c, 10, 72, 75
11, 260160, Note_on_c, 10, 84, 75
11, 260275, Note_off_c, 10, 84, 64
11, 260275, Note_off_c, 10, 72, 64
11, 260280, Note_on_c, 10, 72, 75
11, 260280, Note_on_c, 10, 84, 75
11, 260395, Note_off_c, 10, 84, 64
11, 260395, Note_off_c, 10, 72, 64
11, 260400, Note_on_c, 10, 72, 75
11, 260400, Note_on_c, 10, 84, 75
11, 260515, Note_off_c, 10, 84, 64
11, 260515, Note_off_c, 10, 72, 64
11, 260520, Note_on_c, 10, 72, 75
11, 260520, Note_on_c, 10, 84, 75
11, 260635, Note_off_c, 10, 84, 64
11, 260635, Note_off_c, 10, 72, 64
11, 260640, Note_on_c, 10, 72, 75
11, 260640, Note_on_c, 10, 84, 75
11, 260755, Note_off_c, 10, 84, 64
11, 260755, Note_off_c, 10, 72, 64
11, 260760, Note_on_c, 10, 72, 75
11, 260760, Note_on_c, 10, 84, 75
11, 260875, Note_off_c, 10, 84, 64
11, 260875, Note_off_c, 10, 72, 64
11, 260880, Note_on_c, 10, 72, 75
11, 260880, Note_on_c, 10, 84, 75
11, 260995, Note_off_c, 10, 84, 64
11, 260995, Note_off_c, 10, 72, 64
11, 261000, Note_on_c, 10, 72, 75
11, 261000, Note_on_c, 10, 84, 75
11, 261115, Note_off_c, 10, 84, 64
11, 261115, Note_off_c, 10, 72, 64
11, 261120, Note_on_c, 10, 72, 75
11, 261120, Note_on_c, 10, 84, 75
11, 261235, Note_off_c, 10, 84, 64
11, 261235, Note_off_c, 10, 72, 64
11, 261240, Note_on_c, 10, 72, 75
11, 261240, Note_on_c, 10, 84, 75
11, 261355, Note_off_c, 10, 84, 64
11, 261355, Note_off_c, 10, 72, 64
11, 261360, Note_on_c, 10, 72, 75
11, 261360, Note_on_c, 10, 84, 75
11, 261475, Note_off_c, 10, 84, 64
11, 261475, Note_off_c, 10, 72, 64
11, 261480, Note_on_c, 10, 72, 75
11, 261480, Note_on_c, 10, 84, 75
11, 261595, Note_off_c, 10, 84, 64
11, 261595, Note_off_c, 10, 72, 64
11, 261600, Note_on_c, 10, 72, 75
11, 261600, Note_on_c, 10, 84, 75
11, 261715, Note_off_c, 10, 84, 64
11, 261715, Note_off_c, 10, 72, 64
11, 261720, Note_on_c, 10, 72, 75
11, 261720, Note_on_c, 10, 84, 75
11, 261835, Note_off_c, 10, 84, 64
11, 261835, Note_off_c, 10, 72, 64
11, 261840, Note_on_c, 10, 72, 75
11, 261840, Note_on_c, 10, 84, 75
11, 261955, Note_off_c, 10, 84, 64
11, 261955, Note_off_c, 10, 72, 64
11, 261960, Note_on_c, 10, 72, 75
11, 261960, Note_on_c, 10, 84, 75
11, 262075, Note_off_c, 10, 84, 64
11, 262075, Note_off_c, 10, 72, 64
11, 262080, Note_on_c, 10, 72, 75
11, 262080, Note_on_c, 10, 84, 75
11, 262195, Note_off_c, 10, 84, 64
11, 262195, Note_off_c, 10, 72, 64
11, 262200, Note_on_c, 10, 72, 75
11, 262200, Note_on_c, 10, 84, 75
11, 262315, Note_off_c, 10, 84, 64
11, 262315, Note_off_c, 10, 72, 64
11, 262320, Note_on_c, 10, 72, 75
11, 262320, Note_on_c, 10, 84, 75
11, 262435, Note_off_c, 10, 84, 64
11, 262435, Note_off_c, 10, 72, 64
11, 262440, Note_on_c, 10, 72, 75
11, 262440, Note_on_c, 10, 84, 75
11, 262555, Note_off_c, 10, 84, 64
11, 262555, Note_off_c, 10, 72, 64
11, 262560, Note_on_c, 10, 72, 75
11, 262560, Note_on_c, 10, 84, 75
11, 262675, Note_off_c, 10, 84, 64
11, 262675, Note_off_c, 10, 72, 64
11, 262680, Note_on_c, 10, 72, 75
11, 262680, Note_on_c, 10, 84, 75
11, 262795, Note_off_c, 10, 84, 64
11, 262795, Note_off_c, 10, 72, 64
11, 262800, Note_on_c, 10, 72, 75
11, 262800, Note_on_c, 10, 84, 75
11, 262915, Note_off_c, 10, 84, 64
11, 262915, Note_off_c, 10, 72, 64
11, 262920, Note_on_c, 10, 72, 75
11, 262920, Note_on_c, 10, 84, 75
11, 263035, Note_off_c, 10, 84, 64
11, 263035, Note_off_c, 10, 72, 64
11, 263040, Note_on_c, 10, 72, 75
11, 263040, Note_on_c, 10, 84, 75
11, 263155, Note_off_c, 10, 84, 64
11, 263155, Note_off_c, 10, 72, 64
11, 263160, Note_on_c, 10, 72, 75
11, 263160, Note_on_c, 10, 84, 75
11, 263275, Note_off_c, 10, 84, 64
11, 263275, Note_off_c, 10, 72, 64
11, 263280, Note_on_c, 10, 72, 75
11, 263280, Note_on_c, 10, 84, 75
11, 263395, Note_off_c, 10, 84, 64
11, 263395, Note_off_c, 10, 72, 64
11, 263400, Note_on_c, 10, 72, 75
11, 263400, Note_on_c, 10, 84, 75
11, 263515, Note_off_c, 10, 84, 64
11, 263515, Note_off_c, 10, 72, 64
11, 263520, Note_on_c, 10, 72, 75
11, 263520, Note_on_c, 10, 84, 75
11, 263635, Note_off_c, 10, 84, 64
11, 263635, Note_off_c, 10, 72, 64
11, 263640, Note_on_c, 10, 86, 75
11, 267360, Note_off_c, 10, 86, 64
11, 267480, Note_on_c, 10, 84, 45
11, 269635, Note_off_c, 10, 84, 64
11, 269640, Note_on_c, 10, 82, 45
11, 269760, Note_off_c, 10, 82, 64
11, 269760, Note_on_c, 10, 81, 45
11, 269880, Note_off_c, 10, 81, 64
11, 269880, Note_on_c, 10, 79, 45
11, 270000, Note_off_c, 10, 79, 64
11, 270000, Note_on_c, 10, 77, 45
11, 270120, Note_off_c, 10, 77, 64
11, 270120, Note_on_c, 10, 76, 45
11, 270240, Note_off_c, 10, 76, 64
11, 270240, Note_on_c, 10, 77, 45
11, 270355, Note_off_c, 10, 77, 64
11, 270360, Note_on_c, 10, 79, 45
11, 270420, Note_off_c, 10, 79, 64
11, 270420, Note_on_c, 10, 81, 45
11, 270480, Note_off_c, 10, 81, 64
11, 270480, Note_on_c, 10, 79, 45
11, 270540, Note_off_c, 10, 79, 64
11, 270540, Note_on_c, 10, 81, 45
11, 270600, Note_off_c, 10, 81, 64
11, 270600, Note_on_c, 10, 79, 45
11, 270660, Note_off_c, 10, 79, 64
11, 270660, Note_on_c, 10, 81, 45
11, 270720, Note_off_c, 10, 81, 64
11, 270720, Note_on_c, 10, 79, 45
11, 270780, Note_off_c, 10, 79, 64
11, 270780, Note_on_c, 10, 81, 45
11, 270840, Note_off_c, 10, 81, 64
11, 270840, Note_on_c, 10, 79, 45
11, 270900, Note_off_c, 10, 79, 64
11, 270900, Note_on_c, 10, 81, 45
11, 270960, Note_off_c, 10, 81, 64
11, 270960, Note_on_c, 10, 79, 45
11, 271020, Note_off_c, 10, 79, 64
11, 271020, Note_on_c, 10, 81, 45
11, 271080, Note_off_c, 10, 81, 64
11, 271080, Note_on_c, 10, 79, 45
11, 271140, Note_off_c, 10, 79, 64
11, 271140, Note_on_c, 10, 81, 45
11, 271200, Note_off_c, 10, 81, 64
11, 271200, Note_on_c, 10, 79, 45
11, 271260, Note_off_c, 10, 79, 64
11, 271260, Note_on_c, 10, 81, 45
11, 271320, Note_off_c, 10, 81, 64
11, 271320, Note_on_c, 10, 79, 45
11, 271380, Note_off_c, 10, 79, 64
11, 271380, Note_on_c, 10, 81, 45
11, 271440, Note_off_c, 10, 81, 64
11, 271440, Note_on_c, 10, 79, 45
11, 271500, Note_off_c, 10, 79, 64
11, 271500, Note_on_c, 10, 81, 45
11, 271560, Note_off_c, 10, 81, 64
11, 271560, Note_on_c, 10, 79, 45
11, 271620, Note_off_c, 10, 79, 64
11, 271620, Note_on_c, 10, 81, 45
11, 271680, Note_off_c, 10, 81, 64
11, 271680, Note_on_c, 10, 79, 45
11, 271740, Note_off_c, 10, 79, 64
11, 271740, Note_on_c, 10, 81, 45
11, 271800, Note_off_c, 10, 81, 64
11, 271800, Note_on_c, 10, 79, 45
11, 271860, Note_off_c, 10, 79, 64
11, 271860, Note_on_c, 10, 81, 45
11, 271920, Note_off_c, 10, 81, 64
11, 271920, Note_on_c, 10, 79, 45
11, 271980, Note_off_c, 10, 79, 64
11, 271980, Note_on_c, 10, 81, 45
11, 272040, Note_off_c, 10, 81, 64
11, 272040, Note_on_c, 10, 79, 45
11, 272100, Note_off_c, 10, 79, 64
11, 272100, Note_on_c, 10, 81, 45
11, 272160, Note_off_c, 10, 81, 64
11, 272160, Note_on_c, 10, 79, 45
11, 272220, Note_off_c, 10, 79, 64
11, 272220, Note_on_c, 10, 81, 45
11, 272280, Note_off_c, 10, 81, 64
11, 272280, Note_on_c, 10, 79, 45
11, 272340, Note_off_c, 10, 79, 64
11, 272340, Note_on_c, 10, 81, 45
11, 272400, Note_off_c, 10, 81, 64
11, 272400, Note_on_c, 10, 79, 45
11, 272460, Note_off_c, 10, 79, 64
11, 272460, Note_on_c, 10, 81, 45
11, 272520, Note_off_c, 10, 81, 64
11, 272520, Note_on_c, 10, 79, 45
11, 272580, Note_off_c, 10, 79, 64
11, 272580, Note_on_c, 10, 81, 45
11, 272640, Note_off_c, 10, 81, 64
11, 272640, Note_on_c, 10, 79, 45
11, 272700, Note_off_c, 10, 79, 64
11, 272700, Note_on_c, 10, 81, 45
11, 272760, Note_off_c, 10, 81, 64
11, 272760, Note_on_c, 10, 79, 45
11, 272820, Note_off_c, 10, 79, 64
11, 272820, Note_on_c, 10, 81, 45
11, 272880, Note_off_c, 10, 81, 64
11, 272880, Note_on_c, 10, 79, 45
11, 272940, Note_off_c, 10, 79, 64
11, 272940, Note_on_c, 10, 81, 45
11, 273000, Note_off_c, 10, 81, 64
11, 273000, Note_on_c, 10, 79, 45
11, 273060, Note_off_c, 10, 79, 64
11, 273060, Note_on_c, 10, 81, 45
11, 273120, Note_off_c, 10, 81, 64
11, 273120, Note_on_c, 10, 77, 45
11, 273235, Note_off_c, 10, 77, 64
11, 273240, Note_on_c, 10, 79, 45
11, 273320, Note_off_c, 10, 79, 64
11, 273480, Note_on_c, 10, 79, 45
11, 273560, Note_off_c, 10, 79, 64
11, 273720, Note_on_c, 10, 84, 45
11, 273800, Note_off_c, 10, 84, 64
11, 273960, Note_on_c, 10, 79, 45
11, 274040, Note_off_c, 10, 79, 64
11, 274200, Note_on_c, 10, 76, 45
11, 274280, Note_off_c, 10, 76, 64
11, 274440, Note_on_c, 10, 79, 46
11, 274520, Note_off_c, 10, 79, 64
11, 274680, Note_on_c, 10, 76, 47
11, 274760, Note_off_c, 10, 76, 64
11, 274920, Note_on_c, 10, 72, 48
11, 275000, Note_off_c, 10, 72, 64
11, 275160, Note_on_c, 10, 67, 49
11, 275240, Note_off_c, 10, 67, 64
11, 275400, Note_on_c, 10, 72, 50
11, 275480, Note_off_c, 10, 72, 64
11, 275640, Note_on_c, 10, 67, 51
11, 275720, Note_off_c, 10, 67, 64
11, 275880, Note_on_c, 10, 64, 52
11, 275960, Note_off_c, 10, 64, 64
11, 276120, Note_on_c, 10, 60, 53
11, 276200, Note_off_c, 10, 60, 64
11, 276360, Note_on_c, 10, 72, 54
11, 276440, Note_off_c, 10, 72, 64
11, 276600, Note_on_c, 10, 70, 56
11, 276680, Note_off_c, 10, 70, 64
11, 276840, Note_on_c, 10, 67, 58
11, 276920, Note_off_c, 10, 67, 64
11, 277080, Note_on_c, 10, 69, 60
11, 277240, Note_off_c, 10, 69, 64
11, 277240, Note_on_c, 10, 77, 60
11, 277400, Note_off_c, 10, 77, 64
11, 277400, Note_on_c, 10, 76, 60
11, 277560, Note_off_c, 10, 76, 64
11, 277560, Note_on_c, 10, 77, 60
11, 277720, Note_off_c, 10, 77, 64
11, 277720, Note_on_c, 10, 74, 60
11, 277880, Note_off_c, 10, 74, 64
11, 277880, Note_on_c, 10, 70, 60
11, 278040, Note_off_c, 10, 70, 64
11, 278040, Note_on_c, 10, 67, 60
11, 278200, Note_off_c, 10, 67, 64
11, 278200, Note_on_c, 10, 79, 60
11, 278360, Note_off_c, 10, 79, 64
11, 278360, Note_on_c, 10, 78, 60
11, 278520, Note_off_c, 10, 78, 64
11, 278520, Note_on_c, 10, 79, 60
11, 278680, Note_off_c, 10, 79, 64
11, 278680, Note_on_c, 10, 76, 60
11, 278840, Note_off_c, 10, 76, 64
11, 278840, Note_on_c, 10, 70, 60
11, 279000, Note_off_c, 10, 70, 64
11, 279000, Note_on_c, 10, 69, 60
11, 279160, Note_off_c, 10, 69, 64
11, 279160, Note_on_c, 10, 77, 60
11, 279320, Note_off_c, 10, 77, 64
11, 279320, Note_on_c, 10, 76, 60
11, 279480, Note_off_c, 10, 76, 64
11, 279480, Note_on_c, 10, 77, 60
11, 279640, Note_off_c, 10, 77, 64
11, 279640, Note_on_c, 10, 74, 60
11, 279800, Note_off_c, 10, 74, 64
11, 279800, Note_on_c, 10, 70, 60
11, 279960, Note_off_c, 10, 70, 64
11, 279960, Note_on_c, 10, 67, 60
11, 280120, Note_off_c, 10, 67, 64
11, 280120, Note_on_c, 10, 79, 60
11, 280280, Note_off_c, 10, 79, 64
11, 280280, Note_on_c, 10, 78, 60
11, 280440, Note_off_c, 10, 78, 64
11, 280440, Note_on_c, 10, 79, 60
11, 280600, Note_off_c, 10, 79, 64
11, 280600, Note_on_c, 10, 76, 60
11, 280760, Note_off_c, 10, 76, 64
11, 280760, Note_on_c, 10, 70, 60
11, 280920, Note_off_c, 10, 70, 64
11, 280920, Note_on_c, 10, 69, 60
11, 281080, Note_off_c, 10, 69, 64
11, 281080, Note_on_c, 10, 77, 60
11, 281240, Note_off_c, 10, 77, 64
11, 281240, Note_on_c, 10, 76, 60
11, 281400, Note_off_c, 10, 76, 64
11, 281400, Note_on_c, 10, 77, 60
11, 281560, Note_off_c, 10, 77, 64
11, 281560, Note_on_c, 10, 69, 60
11, 281720, Note_off_c, 10, 69, 64
11, 281720, Note_on_c, 10, 72, 60
11, 281880, Note_off_c, 10, 72, 64
11, 281880, Note_on_c, 10, 70, 60
11, 282040, Note_off_c, 10, 70, 64
11, 282040, Note_on_c, 10, 67, 60
11, 282200, Note_off_c, 10, 67, 64
11, 282200, Note_on_c, 10, 72, 60
11, 282360, Note_off_c, 10, 72, 64
11, 282360, Note_on_c, 10, 70, 60
11, 282520, Note_off_c, 10, 70, 64
11, 282520, Note_on_c, 10, 72, 60
11, 282680, Note_off_c, 10, 72, 64
11, 282680, Note_on_c, 10, 69, 60
11, 282840, Note_off_c, 10, 69, 64
11, 282840, Note_on_c, 10, 74, 60
11, 283000, Note_off_c, 10, 74, 64
11, 283000, Note_on_c, 10, 70, 60
11, 283160, Note_off_c, 10, 70, 64
11, 283160, Note_on_c, 10, 77, 60
11, 283320, Note_off_c, 10, 77, 64
11, 283320, Note_on_c, 10, 72, 60
11, 283480, Note_off_c, 10, 72, 64
11, 283480, Note_on_c, 10, 69, 60
11, 283640, Note_off_c, 10, 69, 64
11, 283640, Note_on_c, 10, 77, 60
11, 283800, Note_off_c, 10, 77, 64
11, 283800, Note_on_c, 10, 67, 60
11, 283960, Note_off_c, 10, 67, 64
11, 283960, Note_on_c, 10, 79, 60
11, 284120, Note_off_c, 10, 79, 64
11, 284120, Note_on_c, 10, 77, 60
11, 284280, Note_off_c, 10, 77, 64
11, 284280, Note_on_c, 10, 76, 60
11, 284440, Note_off_c, 10, 76, 64
11, 284440, Note_on_c, 10, 79, 60
11, 284600, Note_off_c, 10, 79, 64
11, 284600, Note_on_c, 10, 70, 60
11, 284760, Note_off_c, 10, 70, 64
11, 284760, Note_on_c, 10, 69, 60
11, 284920, Note_off_c, 10, 69, 64
11, 284920, Note_on_c, 10, 77, 60
11, 285080, Note_off_c, 10, 77, 64
11, 285080, Note_on_c, 10, 76, 60
11, 285240, Note_off_c, 10, 76, 64
11, 285240, Note_on_c, 10, 77, 60
11, 285400, Note_off_c, 10, 77, 64
11, 285400, Note_on_c, 10, 69, 60
11, 285560, Note_off_c, 10, 69, 64
11, 285560, Note_on_c, 10, 72, 60
11, 285720, Note_off_c, 10, 72, 64
11, 285720, Note_on_c, 10, 70, 60
11, 285880, Note_off_c, 10, 70, 64
11, 285880, Note_on_c, 10, 67, 60
11, 286040, Note_off_c, 10, 67, 64
11, 286040, Note_on_c, 10, 72, 60
11, 286200, Note_off_c, 10, 72, 64
11, 286200, Note_on_c, 10, 70, 60
11, 286360, Note_off_c, 10, 70, 64
11, 286360, Note_on_c, 10, 72, 60
11, 286520, Note_off_c, 10, 72, 64
11, 286520, Note_on_c, 10, 69, 60
11, 286680, Note_off_c, 10, 69, 64
11, 286680, Note_on_c, 10, 74, 60
11, 286840, Note_off_c, 10, 74, 64
11, 286840, Note_on_c, 10, 70, 60
11, 287000, Note_off_c, 10, 70, 64
11, 287000, Note_on_c, 10, 67, 60
11, 287160, Note_off_c, 10, 67, 64
11, 287160, Note_on_c, 10, 72, 60
11, 287320, Note_off_c, 10, 72, 64
11, 287320, Note_on_c, 10, 69, 60
11, 287480, Note_off_c, 10, 69, 64
11, 287480, Note_on_c, 10, 65, 60
11, 287635, Note_off_c, 10, 65, 64
11, 287640, Note_on_c, 10, 64, 60
11, 287745, Note_off_c, 10, 64, 64
11, 287800, Note_on_c, 10, 72, 60
11, 287960, Note_off_c, 10, 72, 64
11, 287960, Note_on_c, 10, 70, 60
11, 288115, Note_off_c, 10, 70, 64
11, 288120, Note_on_c, 10, 69, 60
11, 288225, Note_off_c, 10, 69, 64
11, 288280, Note_on_c, 10, 67, 59
11, 288385, Note_off_c, 10, 67, 64
11, 288440, Note_on_c, 10, 65, 58
11, 288545, Note_off_c, 10, 65, 64
11, 288600, Note_on_c, 10, 64, 57
11, 288705, Note_off_c, 10, 64, 64
11, 288760, Note_on_c, 10, 72, 56
11, 288920, Note_off_c, 10, 72, 64
11, 288920, Note_on_c, 10, 70, 55
11, 289075, Note_off_c, 10, 70, 64
11, 289080, Note_on_c, 10, 69, 54
11, 289185, Note_off_c, 10, 69, 64
11, 289240, Note_on_c, 10, 67, 53
11, 289345, Note_off_c, 10, 67, 64
11, 289400, Note_on_c, 10, 65, 52
11, 289505, Note_off_c, 10, 65, 64
11, 289560, Note_on_c, 10, 64, 51
11, 289665, Note_off_c, 10, 64, 64
11, 289720, Note_on_c, 10, 72, 50
11, 289880, Note_off_c, 10, 72, 64
11, 289880, Note_on_c, 10, 70, 49
11, 290035, Note_off_c, 10, 70, 64
11, 290040, Note_on_c, 10, 69, 48
11, 290145, Note_off_c, 10, 69, 64
11, 290200, Note_on_c, 10, 67, 47
11, 290305, Note_off_c, 10, 67, 64
11, 290360, Note_on_c, 10, 65, 46
11, 290465, Note_off_c, 10, 65, 64
11, 290520, Note_on_c, 10, 64, 45
11, 290600, Note_off_c, 10, 64, 64
11, 290760, Note_on_c, 10, 67, 45
11, 290880, Note_off_c, 10, 67, 64
11, 290880, Note_on_c, 10, 69, 45
11, 291000, Note_off_c, 10, 69, 64
11, 291000, Note_on_c, 10, 70, 45
11, 291080, Note_off_c, 10, 70, 64
11, 291240, Note_on_c, 10, 71, 45
11, 291320, Note_off_c, 10, 71, 64
11, 291480, Note_on_c, 10, 72, 45
11, 291560, Note_off_c, 10, 72, 64
11, 291720, Note_on_c, 10, 67, 45
11, 291840, Note_off_c, 10, 67, 64
11, 291840, Note_on_c, 10, 69, 45
11, 291960, Note_off_c, 10, 69, 64
11, 291960, Note_on_c, 10, 70, 45
11, 292040, Note_off_c, 10, 70, 64
11, 292200, Note_on_c, 10, 71, 45
11, 292280, Note_off_c, 10, 71, 64
11, 292440, Note_on_c, 10, 72, 45
11, 292520, Note_off_c, 10, 72, 64
11, 292680, Note_on_c, 10, 67, 45
11, 292800, Note_off_c, 10, 67, 64
11, 292800, Note_on_c, 10, 69, 45
11, 292920, Note_off_c, 10, 69, 64
11, 292920, Note_on_c, 10, 70, 45
11, 293000, Note_off_c, 10, 70, 64
11, 293160, Note_on_c, 10, 71, 45
11, 293240, Note_off_c, 10, 71, 64
11, 293400, Note_on_c, 10, 72, 45
11, 293480, Note_off_c, 10, 72, 64
11, 293640, Note_on_c, 10, 67, 45
11, 293760, Note_off_c, 10, 67, 64
11, 293760, Note_on_c, 10, 69, 45
11, 293880, Note_off_c, 10, 69, 64
11, 293880, Note_on_c, 10, 70, 45
11, 293960, Note_off_c, 10, 70, 64
11, 294120, Note_on_c, 10, 71, 45
11, 294200, Note_off_c, 10, 71, 64
11, 294360, Note_on_c, 10, 72, 45
11, 294440, Note_off_c, 10, 72, 64
11, 294600, Note_on_c, 10, 67, 45
11, 294720, Note_off_c, 10, 67, 64
11, 294720, Note_on_c, 10, 69, 45
11, 294840, Note_off_c, 10, 69, 64
11, 294840, Note_on_c, 10, 70, 45
11, 294920, Note_off_c, 10, 70, 64
11, 295080, Note_on_c, 10, 71, 45
11, 295160, Note_off_c, 10, 71, 64
11, 295320, Note_on_c, 10, 72, 45
11, 295400, Note_off_c, 10, 72, 64
11, 295560, Note_on_c, 10, 67, 47
11, 295680, Note_off_c, 10, 67, 64
11, 295680, Note_on_c, 10, 69, 48
11, 295800, Note_off_c, 10, 69, 64
11, 295800, Note_on_c, 10, 70, 49
11, 295880, Note_off_c, 10, 70, 64
11, 296040, Note_on_c, 10, 71, 52
11, 296120, Note_off_c, 10, 71, 64
11, 296280, Note_on_c, 10, 72, 55
11, 296360, Note_off_c, 10, 72, 64
11, 296520, Note_on_c, 10, 69, 58
11, 296640, Note_off_c, 10, 69, 64
11, 296640, Note_on_c, 10, 70, 59
11, 296760, Note_off_c, 10, 70, 64
11, 296760, Note_on_c, 10, 72, 60
11, 296840, Note_off_c, 10, 72, 64
11, 297000, Note_on_c, 10, 73, 63
11, 297080, Note_off_c, 10, 73, 64
11, 297240, Note_on_c, 10, 74, 66
11, 297320, Note_off_c, 10, 74, 64
11, 297480, Note_on_c, 10, 70, 69
11, 297600, Note_off_c, 10, 70, 64
11, 297600, Note_on_c, 10, 72, 70
11, 297720, Note_off_c, 10, 72, 64
11, 297720, Note_on_c, 10, 74, 71
11, 297800, Note_off_c, 10, 74, 64
11, 297960, Note_on_c, 10, 76, 74
11, 298040, Note_off_c, 10, 76, 64
11, 298200, Note_on_c, 10, 77, 77
11, 298280, Note_off_c, 10, 77, 64
11, 298440, Note_on_c, 10, 74, 80
11, 298560, Note_off_c, 10, 74, 64
11, 298560, Note_on_c, 10, 76, 82
11, 298645, Note_off_c, 10, 76, 64
11, 298680, Note_on_c, 10, 77, 84
11, 298760, Note_off_c, 10, 77, 64
11, 298920, Note_on_c, 10, 79, 88
11, 299000, Note_off_c, 10, 79, 64
11, 299160, Note_on_c, 10, 81, 92
11, 299240, Note_off_c, 10, 81, 64
11, 299400, Note_on_c, 10, 81, 92
11, 299480, Note_off_c, 10, 81, 64
11, 299640, Note_on_c, 10, 82, 92
11, 299720, Note_off_c, 10, 82, 64
11, 299880, Note_on_c, 10, 86, 92
11, 299960, Note_off_c, 10, 86, 64
11, 300120, Note_on_c, 10, 84, 92
11, 300360, Note_off_c, 10, 84, 64
11, 300360, Note_on_c, 10, 82, 92
11, 300480, Note_off_c, 10, 82, 64
11, 300480, Note_on_c, 10, 81, 92
11, 300600, Note_off_c, 10, 81, 64
11, 300600, Note_on_c, 10, 79, 92
11, 300680, Note_off_c, 10, 79, 64
11, 300840, Note_on_c, 10, 72, 92
11, 300920, Note_off_c, 10, 72, 64
11, 301080, Note_on_c, 10, 77, 92
11, 301160, Note_off_c, 10, 77, 64
11, 301320, Note_on_c, 10, 79, 92
11, 301400, Note_off_c, 10, 79, 64
11, 301560, Note_on_c, 10, 81, 92
11, 301800, Note_off_c, 10, 81, 64
11, 301800, Note_on_c, 10, 82, 92
11, 301920, Note_off_c, 10, 82, 64
11, 301920, Note_on_c, 10, 81, 92
11, 302035, Note_off_c, 10, 81, 64
11, 302040, Note_on_c, 10, 79, 92
11, 302120, Note_off_c, 10, 79, 64
11, 302280, Note_on_c, 10, 81, 92
11, 302360, Note_off_c, 10, 81, 64
11, 302520, Note_on_c, 10, 82, 92
11, 302760, Note_off_c, 10, 82, 64
11, 302760, Note_on_c, 10, 84, 92
11, 302880, Note_off_c, 10, 84, 64
11, 302880, Note_on_c, 10, 82, 92
11, 302995, Note_off_c, 10, 82, 64
11, 303000, Note_on_c, 10, 81, 92
11, 303240, Note_off_c, 10, 81, 64
11, 303240, Note_on_c, 10, 84, 92
11, 303320, Note_off_c, 10, 84, 64
11, 303480, Note_on_c, 10, 84, 92
11, 303560, Note_off_c, 10, 84, 64
11, 303720, Note_on_c, 10, 84, 92
11, 303800, Note_off_c, 10, 84, 64
11, 303960, Note_on_c, 10, 84, 92
11, 304440, Note_off_c, 10, 84, 64
11, 304440, Note_on_c, 10, 82, 92
11, 304560, Note_off_c, 10, 82, 64
11, 304560, Note_on_c, 10, 81, 92
11, 304680, Note_off_c, 10, 81, 64
11, 304680, Note_on_c, 10, 79, 92
11, 304800, Note_off_c, 10, 79, 64
11, 304800, Note_on_c, 10, 77, 92
11, 304915, Note_off_c, 10, 77, 64
11, 304920, Note_on_c, 10, 76, 92
11, 305000, Note_off_c, 10, 76, 64
11, 305160, Note_on_c, 10, 77, 92
11, 305240, Note_off_c, 10, 77, 64
11, 305400, Note_on_c, 10, 79, 92
11, 305640, Note_off_c, 10, 79, 64
11, 305640, Note_on_c, 10, 81, 92
11, 305760, Note_off_c, 10, 81, 64
11, 305760, Note_on_c, 10, 79, 92
11, 305875, Note_off_c, 10, 79, 64
11, 305880, Note_on_c, 10, 77, 92
11, 305960, Note_off_c, 10, 77, 64
11, 306120, Note_on_c, 10, 79, 92
11, 306200, Note_off_c, 10, 79, 64
11, 306360, Note_on_c, 10, 81, 92
11, 306600, Note_off_c, 10, 81, 64
11, 306600, Note_on_c, 10, 82, 92
11, 306720, Note_off_c, 10, 82, 64
11, 306720, Note_on_c, 10, 81, 92
11, 306835, Note_off_c, 10, 81, 64
11, 306840, Note_on_c, 10, 79, 92
11, 307080, Note_off_c, 10, 79, 64
11, 307080, Note_on_c, 10, 82, 92
11, 307160, Note_off_c, 10, 82, 64
11, 307320, Note_on_c, 10, 82, 92
11, 307400, Note_off_c, 10, 82, 64
11, 307560, Note_on_c, 10, 82, 92
11, 307640, Note_off_c, 10, 82, 64
11, 307800, Note_on_c, 10, 82, 92
11, 308280, Note_off_c, 10, 82, 64
11, 308280, Note_on_c, 10, 84, 92
11, 308400, Note_off_c, 10, 84, 64
11, 308400, Note_on_c, 10, 82, 92
11, 308520, Note_off_c, 10, 82, 64
11, 308520, Note_on_c, 10, 81, 92
11, 308640, Note_off_c, 10, 81, 64
11, 308640, Note_on_c, 10, 79, 92
11, 308755, Note_off_c, 10, 79, 64
11, 308760, Note_on_c, 10, 81, 92
11, 308840, Note_off_c, 10, 81, 64
11, 309000, Note_on_c, 10, 82, 92
11, 309080, Note_off_c, 10, 82, 64
11, 309240, Note_on_c, 10, 84, 92
11, 309480, Note_off_c, 10, 84, 64
11, 309480, Note_on_c, 10, 86, 92
11, 309600, Note_off_c, 10, 86, 64
11, 309600, Note_on_c, 10, 84, 92
11, 309715, Note_off_c, 10, 84, 64
11, 309720, Note_on_c, 10, 82, 92
11, 309960, Note_off_c, 10, 82, 64
11, 309960, Note_on_c, 10, 84, 92
11, 310080, Note_off_c, 10, 84, 64
11, 310080, Note_on_c, 10, 82, 92
11, 310200, Note_off_c, 10, 82, 64
11, 310200, Note_on_c, 10, 79, 92
11, 310440, Note_off_c, 10, 79, 64
11, 310440, Note_on_c, 10, 84, 92
11, 310560, Note_off_c, 10, 84, 64
11, 310560, Note_on_c, 10, 82, 92
11, 310675, Note_off_c, 10, 82, 64
11, 310680, Note_on_c, 10, 81, 92
11, 310760, Note_off_c, 10, 81, 64
11, 310920, Note_on_c, 10, 82, 92
11, 311000, Note_off_c, 10, 82, 64
11, 311160, Note_on_c, 10, 84, 92
11, 311400, Note_off_c, 10, 84, 64
11, 311400, Note_on_c, 10, 86, 92
11, 311520, Note_off_c, 10, 86, 64
11, 311520, Note_on_c, 10, 84, 92
11, 311635, Note_off_c, 10, 84, 64
11, 311640, Note_on_c, 10, 82, 92
11, 311880, Note_off_c, 10, 82, 64
11, 311880, Note_on_c, 10, 84, 92
11, 312000, Note_off_c, 10, 84, 64
11, 312000, Note_on_c, 10, 82, 92
11, 312120, Note_off_c, 10, 82, 64
11, 312120, Note_on_c, 10, 79, 92
11, 312360, Note_off_c, 10, 79, 64
11, 312360, Note_on_c, 10, 84, 92
11, 312480, Note_off_c, 10, 84, 64
11, 312480, Note_on_c, 10, 82, 92
11, 312595, Note_off_c, 10, 82, 64
11, 312600, Note_on_c, 10, 81, 92
11, 312840, Note_off_c, 10, 81, 64
11, 312840, Note_on_c, 10, 84, 92
11, 312960, Note_off_c, 10, 84, 64
11, 312960, Note_on_c, 10, 82, 92
11, 313080, Note_off_c, 10, 82, 64
11, 313080, Note_on_c, 10, 79, 92
11, 313320, Note_off_c, 10, 79, 64
11, 313320, Note_on_c, 10, 84, 92
11, 313440, Note_off_c, 10, 84, 64
11, 313440, Note_on_c, 10, 82, 92
11, 313555, Note_off_c, 10, 82, 64
11, 313560, Note_on_c, 10, 81, 92
11, 313800, Note_off_c, 10, 81, 64
11, 313800, Note_on_c, 10, 84, 92
11, 313920, Note_off_c, 10, 84, 64
11, 313920, Note_on_c, 10, 82, 92
11, 314040, Note_off_c, 10, 82, 64
11, 314040, Note_on_c, 10, 79, 92
11, 314280, Note_off_c, 10, 79, 64
11, 314280, Note_on_c, 10, 84, 92
11, 314400, Note_off_c, 10, 84, 64
11, 314400, Note_on_c, 10, 82, 92
11, 314515, Note_off_c, 10, 82, 64
11, 314520, Note_on_c, 10, 65, 75
11, 314520, Note_on_c, 10, 72, 75
11, 314520, Note_on_c, 10, 81, 75
11, 314755, Note_off_c, 10, 81, 64
11, 314755, Note_off_c, 10, 72, 64
11, 314755, Note_off_c, 10, 65, 64
11, 315720, Note_on_c, 10, 65, 60
11, 315960, Note_off_c, 10, 65, 64
11, 315960, Note_on_c, 10, 67, 60
11, 316040, Note_off_c, 10, 67, 64
11, 316200, Note_on_c, 10, 70, 60
11, 316280, Note_off_c, 10, 70, 64
11, 316440, Note_on_c, 10, 69, 60
11, 316520, Note_off_c, 10, 69, 64
11, 316680, Note_on_c, 10, 74, 60
11, 316920, Note_off_c, 10, 74, 64
11, 316920, Note_on_c, 10, 76, 60
11, 317000, Note_off_c, 10, 76, 64
11, 317160, Note_on_c, 10, 79, 60
11, 317240, Note_off_c, 10, 79, 64
11, 317400, Note_on_c, 10, 77, 60
11, 317480, Note_off_c, 10, 77, 64
11, 317640, Note_on_c, 10, 77, 60
11, 317880, Note_off_c, 10, 77, 64
11, 317880, Note_on_c, 10, 79, 60
11, 317960, Note_off_c, 10, 79, 64
11, 318120, Note_on_c, 10, 82, 60
11, 318200, Note_off_c, 10, 82, 64
11, 318360, Program_c, 10, 45
11, 318360, Note_on_c, 10, 81, 60
11, 318595, Note_off_c, 10, 81, 64
11, 319320, Program_c, 10, 48
11, 319560, Note_on_c, 10, 65, 60
11, 319800, Note_off_c, 10, 65, 64
11, 319800, Note_on_c, 10, 67, 60
11, 319880, Note_off_c, 10, 67, 64
11, 320040, Note_on_c, 10, 70, 60
11, 320120, Note_off_c, 10, 70, 64
11, 320280, Note_on_c, 10, 69, 60
11, 320360, Note_off_c, 10, 69, 64
11, 320520, Note_on_c, 10, 74, 60
11, 320760, Note_off_c, 10, 74, 64
11, 320760, Note_on_c, 10, 76, 60
11, 320840, Note_off_c, 10, 76, 64
11, 321000, Note_on_c, 10, 79, 60
11, 321080, Note_off_c, 10, 79, 64
11, 321240, Note_on_c, 10, 77, 60
11, 321320, Note_off_c, 10, 77, 64
11, 321480, Note_on_c, 10, 77, 60
11, 321720, Note_off_c, 10, 77, 64
11, 321720, Note_on_c, 10, 79, 60
11, 321800, Note_off_c, 10, 79, 64
11, 321960, Note_on_c, 10, 82, 60
11, 322040, Note_off_c, 10, 82, 64
11, 322200, Program_c, 10, 45
11, 322200, Note_on_c, 10, 81, 60
11, 322435, Note_off_c, 10, 81, 64
11, 323160, Program_c, 10, 48
11, 323400, Note_on_c, 10, 77, 60
11, 323640, Note_off_c, 10, 77, 64
11, 323640, Note_on_c, 10, 79, 60
11, 323720, Note_off_c, 10, 79, 64
11, 323880, Note_on_c, 10, 81, 60
11, 323960, Note_off_c, 10, 81, 64
11, 324120, Note_on_c, 10, 79, 60
11, 324200, Note_off_c, 10, 79, 64
11, 325320, Note_on_c, 10, 78, 60
11, 325560, Note_off_c, 10, 78, 64
11, 325560, Note_on_c, 10, 79, 60
11, 325640, Note_off_c, 10, 79, 64
11, 325800, Note_on_c, 10, 81, 60
11, 325880, Note_off_c, 10, 81, 64
11, 326040, Note_on_c, 10, 79, 60
11, 326120, Note_off_c, 10, 79, 64
11, 327240, Note_on_c, 10, 78, 60
11, 327480, Note_off_c, 10, 78, 64
11, 327480, Note_on_c, 10, 79, 60
11, 327560, Note_off_c, 10, 79, 64
11, 327720, Note_on_c, 10, 81, 60
11, 327800, Note_off_c, 10, 81, 64
11, 327960, Note_on_c, 10, 79, 60
11, 328040, Note_off_c, 10, 79, 64
11, 328200, Note_on_c, 10, 78, 60
11, 328440, Note_off_c, 10, 78, 64
11, 328440, Note_on_c, 10, 79, 60
11, 328520, Note_off_c, 10, 79, 64
11, 328680, Note_on_c, 10, 81, 60
11, 328760, Note_off_c, 10, 81, 64
11, 328920, Note_on_c, 10, 82, 60
11, 329000, Note_off_c, 10, 82, 64
11, 329160, Note_on_c, 10, 81, 60
11, 329400, Note_off_c, 10, 81, 64
11, 329400, Note_on_c, 10, 82, 60
11, 329480, Note_off_c, 10, 82, 64
11, 329640, Note_on_c, 10, 83, 60
11, 329720, Note_off_c, 10, 83, 64
11, 329880, Note_on_c, 10, 84, 60
11, 329960, Note_off_c, 10, 84, 64
11, 330120, Note_on_c, 10, 83, 60
11, 330360, Note_off_c, 10, 83, 64
11, 330360, Note_on_c, 10, 84, 60
11, 330440, Note_off_c, 10, 84, 64
11, 330600, Note_on_c, 10, 86, 60
11, 330680, Note_off_c, 10, 86, 64
11, 330840, Note_on_c, 10, 84, 60
11, 330920, Note_off_c, 10, 84, 64
11, 331080, Note_on_c, 10, 83, 60
11, 331320, Note_off_c, 10, 83, 64
11, 331320, Note_on_c, 10, 84, 60
11, 331400, Note_off_c, 10, 84, 64
11, 331560, Note_on_c, 10, 86, 60
11, 331640, Note_off_c, 10, 86, 64
11, 331800, Note_on_c, 10, 84, 60
11, 332040, Note_off_c, 10, 84, 64
11, 332040, Note_on_c, 10, 82, 60
11, 332280, Note_off_c, 10, 82, 64
11, 332280, Note_on_c, 10, 79, 60
11, 332520, Note_off_c, 10, 79, 64
11, 332520, Note_on_c, 10, 76, 60
11, 332760, Note_off_c, 10, 76, 64
11, 332760, Note_on_c, 10, 72, 60
11, 333000, Note_off_c, 10, 72, 64
11, 333000, Note_on_c, 10, 79, 60
11, 333240, Note_off_c, 10, 79, 64
11, 333240, Note_on_c, 10, 76, 60
11, 333480, Note_off_c, 10, 76, 64
11, 333480, Note_on_c, 10, 72, 60
11, 333715, Note_off_c, 10, 72, 64
11, 333720, Note_on_c, 10, 86, 60
11, 333960, Note_off_c, 10, 86, 64
11, 333960, Note_on_c, 10, 84, 60
11, 334200, Note_off_c, 10, 84, 64
11, 334200, Note_on_c, 10, 81, 60
11, 334440, Note_off_c, 10, 81, 64
11, 334440, Note_on_c, 10, 77, 60
11, 334680, Note_off_c, 10, 77, 64
11, 334680, Note_on_c, 10, 72, 60
11, 334920, Note_off_c, 10, 72, 64
11, 334920, Note_on_c, 10, 81, 60
11, 335160, Note_off_c, 10, 81, 64
11, 335160, Note_on_c, 10, 77, 60
11, 335400, Note_off_c, 10, 77, 64
11, 335400, Note_on_c, 10, 72, 60
11, 335635, Note_off_c, 10, 72, 64
11, 335640, Note_on_c, 10, 60, 45
11, 335880, Note_off_c, 10, 60, 64
11, 335880, Note_on_c, 10, 58, 45
11, 336120, Note_off_c, 10, 58, 64
11, 336120, Note_on_c, 10, 60, 45
11, 336360, Note_off_c, 10, 60, 64
11, 336360, Note_on_c, 10, 58, 45
11, 336600, Note_off_c, 10, 58, 64
11, 336600, Note_on_c, 10, 60, 45
11, 336840, Note_off_c, 10, 60, 64
11, 336840, Note_on_c, 10, 58, 45
11, 337080, Note_off_c, 10, 58, 64
11, 337080, Note_on_c, 10, 60, 45
11, 337320, Note_off_c, 10, 60, 64
11, 337320, Note_on_c, 10, 58, 45
11, 337555, Note_off_c, 10, 58, 64
11, 337560, Note_on_c, 10, 60, 45
11, 337800, Note_off_c, 10, 60, 64
11, 337800, Note_on_c, 10, 57, 45
11, 338040, Note_off_c, 10, 57, 64
11, 338040, Note_on_c, 10, 60, 45
11, 338280, Note_off_c, 10, 60, 64
11, 338280, Note_on_c, 10, 57, 45
11, 338520, Note_off_c, 10, 57, 64
11, 338520, Note_on_c, 10, 60, 45
11, 338760, Note_off_c, 10, 60, 64
11, 338760, Note_on_c, 10, 57, 45
11, 339000, Note_off_c, 10, 57, 64
11, 339000, Note_on_c, 10, 60, 45
11, 339240, Note_off_c, 10, 60, 64
11, 339240, Note_on_c, 10, 57, 45
11, 339475, Note_off_c, 10, 57, 64
11, 339480, Note_on_c, 10, 72, 60
11, 341280, Note_off_c, 10, 72, 64
11, 341400, Note_on_c, 10, 77, 62
11, 343200, Note_off_c, 10, 77, 64
11, 343320, Note_on_c, 10, 76, 64
11, 343800, Note_off_c, 10, 76, 64
11, 343800, Note_on_c, 10, 76, 65
11, 344280, Note_off_c, 10, 76, 64
11, 344280, Note_on_c, 10, 76, 66
11, 344760, Note_off_c, 10, 76, 64
11, 344760, Note_on_c, 10, 79, 67
11, 345000, Note_off_c, 10, 79, 64
11, 345000, Note_on_c, 10, 76, 67
11, 345235, Note_off_c, 10, 76, 64
11, 345240, Note_on_c, 10, 77, 67
11, 345720, Note_off_c, 10, 77, 64
11, 345720, Note_on_c, 10, 77, 68
11, 346200, Note_off_c, 10, 77, 64
11, 346200, Note_on_c, 10, 77, 69
11, 346680, Note_off_c, 10, 77, 64
11, 346680, Note_on_c, 10, 81, 70
11, 346920, Note_off_c, 10, 81, 64
11, 346920, Note_on_c, 10, 77, 70
11, 347155, Note_off_c, 10, 77, 64
11, 347160, Note_on_c, 10, 84, 70
11, 347320, Note_off_c, 10, 84, 64
11, 347320, Note_on_c, 10, 86, 70
11, 347480, Note_off_c, 10, 86, 64
11, 347480, Note_on_c, 10, 84, 70
11, 347640, Note_off_c, 10, 84, 64
11, 347640, Note_on_c, 10, 86, 70
11, 347800, Note_off_c, 10, 86, 64
11, 347800, Note_on_c, 10, 84, 70
11, 347960, Note_off_c, 10, 84, 64
11, 347960, Note_on_c, 10, 86, 70
11, 348115, Note_off_c, 10, 86, 64
11, 348120, Note_on_c, 10, 84, 70
11, 348280, Note_off_c, 10, 84, 64
11, 348280, Note_on_c, 10, 86, 70
11, 348440, Note_off_c, 10, 86, 64
11, 348440, Note_on_c, 10, 84, 70
11, 348600, Note_off_c, 10, 84, 64
11, 348600, Note_on_c, 10, 86, 70
11, 348760, Note_off_c, 10, 86, 64
11, 348760, Note_on_c, 10, 84, 70
11, 348920, Note_off_c, 10, 84, 64
11, 348920, Note_on_c, 10, 86, 70
11, 349075, Note_off_c, 10, 86, 64
11, 349080, Note_on_c, 10, 84, 70
11, 349240, Note_off_c, 10, 84, 64
11, 349240, Note_on_c, 10, 86, 70
11, 349400, Note_off_c, 10, 86, 64
11, 349400, Note_on_c, 10, 84, 70
11, 349560, Note_off_c, 10, 84, 64
11, 349560, Note_on_c, 10, 86, 70
11, 349720, Note_off_c, 10, 86, 64
11, 349720, Note_on_c, 10, 84, 70
11, 349880, Note_off_c, 10, 84, 64
11, 349880, Note_on_c, 10, 86, 70
11, 350035, Note_off_c, 10, 86, 64
11, 350040, Note_on_c, 10, 84, 70
11, 350200, Note_off_c, 10, 84, 64
11, 350200, Note_on_c, 10, 86, 70
11, 350360, Note_off_c, 10, 86, 64
11, 350360, Note_on_c, 10, 84, 70
11, 350520, Note_off_c, 10, 84, 64
11, 350520, Note_on_c, 10, 86, 70
11, 350680, Note_off_c, 10, 86, 64
11, 350680, Note_on_c, 10, 84, 70
11, 350840, Note_off_c, 10, 84, 64
11, 350840, Note_on_c, 10, 86, 70
11, 350995, Note_off_c, 10, 86, 64
11, 351000, Note_on_c, 10, 84, 70
11, 351120, Note_off_c, 10, 84, 64
11, 351120, Note_on_c, 10, 86, 70
11, 351240, Note_off_c, 10, 86, 64
11, 351240, Note_on_c, 10, 84, 70
11, 351360, Note_off_c, 10, 84, 64
11, 351360, Note_on_c, 10, 86, 70
11, 351480, Note_off_c, 10, 86, 64
11, 351480, Note_on_c, 10, 84, 70
11, 351600, Note_off_c, 10, 84, 64
11, 351600, Note_on_c, 10, 86, 70
11, 351720, Note_off_c, 10, 86, 64
11, 351720, Note_on_c, 10, 84, 70
11, 351840, Note_off_c, 10, 84, 64
11, 351840, Note_on_c, 10, 86, 70
11, 351960, Note_off_c, 10, 86, 64
11, 351960, Note_on_c, 10, 84, 70
11, 352080, Note_off_c, 10, 84, 64
11, 352080, Note_on_c, 10, 86, 70
11, 352200, Note_off_c, 10, 86, 64
11, 352200, Note_on_c, 10, 84, 70
11, 352320, Note_off_c, 10, 84, 64
11, 352320, Note_on_c, 10, 86, 70
11, 352440, Note_off_c, 10, 86, 64
11, 352440, Note_on_c, 10, 84, 70
11, 352560, Note_off_c, 10, 84, 64
11, 352560, Note_on_c, 10, 86, 70
11, 352680, Note_off_c, 10, 86, 64
11, 352680, Note_on_c, 10, 84, 70
11, 352800, Note_off_c, 10, 84, 64
11, 352800, Note_on_c, 10, 86, 70
11, 352915, Note_off_c, 10, 86, 64
11, 352920, Note_on_c, 10, 84, 70
11, 353040, Note_off_c, 10, 84, 64
11, 353040, Note_on_c, 10, 86, 70
11, 353160, Note_off_c, 10, 86, 64
11, 353160, Note_on_c, 10, 84, 70
11, 353280, Note_off_c, 10, 84, 64
11, 353280, Note_on_c, 10, 86, 70
11, 353400, Note_off_c, 10, 86, 64
11, 353400, Note_on_c, 10, 84, 70
11, 353520, Note_off_c, 10, 84, 64
11, 353520, Note_on_c, 10, 86, 70
11, 353640, Note_off_c, 10, 86, 64
11, 353640, Note_on_c, 10, 84, 70
11, 353760, Note_off_c, 10, 84, 64
11, 353760, Note_on_c, 10, 86, 70
11, 353880, Note_off_c, 10, 86, 64
11, 353880, Note_on_c, 10, 84, 70
11, 354000, Note_off_c, 10, 84, 64
11, 354000, Note_on_c, 10, 86, 70
11, 354120, Note_off_c, 10, 86, 64
11, 354120, Note_on_c, 10, 84, 70
11, 354240, Note_off_c, 10, 84, 64
11, 354240, Note_on_c, 10, 86, 71
11, 354360, Note_off_c, 10, 86, 64
11, 354360, Note_on_c, 10, 84, 72
11, 354480, Note_off_c, 10, 84, 64
11, 354480, Note_on_c, 10, 86, 73
11, 354600, Note_off_c, 10, 86, 64
11, 354600, Note_on_c, 10, 84, 74
11, 354720, Note_off_c, 10, 84, 64
11, 354720, Note_on_c, 10, 86, 75
11, 354835, Note_off_c, 10, 86, 64
11, 354840, Note_on_c, 10, 84, 76
11, 354960, Note_off_c, 10, 84, 64
11, 354960, Note_on_c, 10, 86, 77
11, 355080, Note_off_c, 10, 86, 64
11, 355080, Note_on_c, 10, 84, 78
11, 355200, Note_off_c, 10, 84, 64
11, 355200, Note_on_c, 10, 86, 79
11, 355320, Note_off_c, 10, 86, 64
11, 355320, Note_on_c, 10, 84, 80
11, 355440, Note_off_c, 10, 84, 64
11, 355440, Note_on_c, 10, 86, 81
11, 355560, Note_off_c, 10, 86, 64
11, 355560, Note_on_c, 10, 84, 82
11, 355680, Note_off_c, 10, 84, 64
11, 355680, Note_on_c, 10, 86, 83
11, 355800, Note_off_c, 10, 86, 64
11, 355800, Note_on_c, 10, 84, 84
11, 355920, Note_off_c, 10, 84, 64
11, 355920, Note_on_c, 10, 86, 85
11, 356040, Note_off_c, 10, 86, 64
11, 356040, Note_on_c, 10, 84, 86
11, 356160, Note_off_c, 10, 84, 64
11, 356160, Note_on_c, 10, 86, 87
11, 356280, Note_off_c, 10, 86, 64
11, 356280, Note_on_c, 10, 84, 88
11, 356400, Note_off_c, 10, 84, 64
11, 356400, Note_on_c, 10, 86, 89
11, 356520, Note_off_c, 10, 86, 64
11, 356520, Note_on_c, 10, 84, 90
11, 356640, Note_off_c, 10, 84, 64
11, 356640, Note_on_c, 10, 86, 91
11, 356755, Note_off_c, 10, 86, 64
11, 356760, Note_on_c, 10, 72, 92
11, 357480, Note_off_c, 10, 72, 64
11, 357480, Note_on_c, 10, 74, 92
11, 357600, Note_off_c, 10, 74, 64
11, 357600, Note_on_c, 10, 76, 92
11, 357715, Note_off_c, 10, 76, 64
11, 357720, Note_on_c, 10, 77, 92
11, 357960, Note_off_c, 10, 77, 64
11, 357960, Note_on_c, 10, 76, 92
11, 358080, Note_off_c, 10, 76, 64
11, 358080, Note_on_c, 10, 74, 92
11, 358200, Note_off_c, 10, 74, 64
11, 358200, Note_on_c, 10, 72, 92
11, 358440, Note_off_c, 10, 72, 64
11, 358440, Note_on_c, 10, 74, 92
11, 358560, Note_off_c, 10, 74, 64
11, 358560, Note_on_c, 10, 76, 92
11, 358675, Note_off_c, 10, 76, 64
11, 358680, Note_on_c, 10, 77, 92
11, 358920, Note_off_c, 10, 77, 64
11, 358920, Note_on_c, 10, 76, 92
11, 359040, Note_off_c, 10, 76, 64
11, 359040, Note_on_c, 10, 74, 92
11, 359160, Note_off_c, 10, 74, 64
11, 359160, Note_on_c, 10, 72, 92
11, 359400, Note_off_c, 10, 72, 64
11, 359400, Note_on_c, 10, 74, 92
11, 359520, Note_off_c, 10, 74, 64
11, 359520, Note_on_c, 10, 76, 92
11, 359635, Note_off_c, 10, 76, 64
11, 359640, Note_on_c, 10, 77, 92
11, 359875, Note_off_c, 10, 77, 64
11, 360720, Program_c, 10, 48
11, 360720, Note_on_c, 10, 62, 45
11, 360960, Note_off_c, 10, 62, 64
11, 360960, Note_on_c, 10, 65, 45
11, 361200, Note_off_c, 10, 65, 64
11, 361200, Note_on_c, 10, 62, 45
11, 361440, Note_off_c, 10, 62, 64
11, 361440, Note_on_c, 10, 65, 45
11, 361680, Note_off_c, 10, 65, 64
11, 361680, Note_on_c, 10, 60, 45
11, 361920, Note_off_c, 10, 60, 64
11, 361920, Note_on_c, 10, 65, 45
11, 362160, Note_off_c, 10, 65, 64
11, 362160, Note_on_c, 10, 60, 45
11, 362400, Note_off_c, 10, 60, 64
11, 362400, Note_on_c, 10, 65, 45
11, 362640, Note_off_c, 10, 65, 64
11, 362640, Note_on_c, 10, 60, 45
11, 362880, Note_off_c, 10, 60, 64
11, 362880, Note_on_c, 10, 64, 45
11, 363120, Note_off_c, 10, 64, 64
11, 363120, Note_on_c, 10, 60, 45
11, 363360, Note_off_c, 10, 60, 64
11, 363360, Note_on_c, 10, 64, 45
11, 363595, Note_off_c, 10, 64, 64
11, 363600, Note_on_c, 10, 72, 92
11, 364320, Note_off_c, 10, 72, 64
11, 364320, Note_on_c, 10, 74, 92
11, 364440, Note_off_c, 10, 74, 64
11, 364440, Note_on_c, 10, 76, 92
11, 364555, Note_off_c, 10, 76, 64
11, 364560, Note_on_c, 10, 77, 92
11, 364800, Note_off_c, 10, 77, 64
11, 364800, Note_on_c, 10, 76, 92
11, 364920, Note_off_c, 10, 76, 64
11, 364920, Note_on_c, 10, 74, 92
11, 365040, Note_off_c, 10, 74, 64
11, 365040, Note_on_c, 10, 72, 92
11, 365280, Note_off_c, 10, 72, 64
11, 365280, Note_on_c, 10, 74, 92
11, 365400, Note_off_c, 10, 74, 64
11, 365400, Note_on_c, 10, 76, 92
11, 365515, Note_off_c, 10, 76, 64
11, 365520, Note_on_c, 10, 77, 92
11, 365760, Note_off_c, 10, 77, 64
11, 365760, Note_on_c, 10, 76, 92
11, 365880, Note_off_c, 10, 76, 64
11, 365880, Note_on_c, 10, 74, 92
11, 366000, Note_off_c, 10, 74, 64
11, 366000, Note_on_c, 10, 72, 92
11, 366240, Note_off_c, 10, 72, 64
11, 366240, Note_on_c, 10, 74, 92
11, 366360, Note_off_c, 10, 74, 64
11, 366360, Note_on_c, 10, 76, 92
11, 366475, Note_off_c, 10, 76, 64
11, 366480, Note_on_c, 10, 77, 92
11, 366715, Note_off_c, 10, 77, 64
11, 367560, Note_on_c, 10, 62, 45
11, 367800, Note_off_c, 10, 62, 64
11, 367800, Note_on_c, 10, 65, 45
11, 368040, Note_off_c, 10, 65, 64
11, 368040, Note_on_c, 10, 62, 45
11, 368280, Note_off_c, 10, 62, 64
11, 368280, Note_on_c, 10, 65, 45
11, 368520, Note_off_c, 10, 65, 64
11, 368520, Note_on_c, 10, 60, 45
11, 368760, Note_off_c, 10, 60, 64
11, 368760, Note_on_c, 10, 65, 45
11, 369000, Note_off_c, 10, 65, 64
11, 369000, Note_on_c, 10, 60, 45
11, 369240, Note_off_c, 10, 60, 64
11, 369240, Note_on_c, 10, 65, 45
11, 369480, Note_off_c, 10, 65, 64
11, 369480, Note_on_c, 10, 60, 45
11, 369720, Note_off_c, 10, 60, 64
11, 369720, Note_on_c, 10, 64, 45
11, 369960, Note_off_c, 10, 64, 64
11, 369960, Note_on_c, 10, 60, 45
11, 370200, Note_off_c, 10, 60, 64
11, 370200, Note_on_c, 10, 64, 45
11, 370435, Note_off_c, 10, 64, 64
11, 370440, Note_on_c, 10, 60, 45
11, 370680, Note_off_c, 10, 60, 64
11, 370680, Note_on_c, 10, 65, 45
11, 370760, Note_off_c, 10, 65, 64
11, 370920, Note_on_c, 10, 65, 45
11, 371000, Note_off_c, 10, 65, 64
11, 371160, Note_on_c, 10, 65, 48
11, 371240, Note_off_c, 10, 65, 64
11, 371400, Note_on_c, 10, 62, 51
11, 371640, Note_off_c, 10, 62, 64
11, 371640, Note_on_c, 10, 65, 54
11, 371880, Note_off_c, 10, 65, 64
11, 371880, Note_on_c, 10, 62, 57
11, 372120, Note_off_c, 10, 62, 64
11, 372120, Note_on_c, 10, 65, 60
11, 372360, Note_off_c, 10, 65, 64
11, 372360, Note_on_c, 10, 60, 63
11, 372600, Note_off_c, 10, 60, 64
11, 372600, Note_on_c, 10, 65, 66
11, 372840, Note_off_c, 10, 65, 64
11, 372840, Note_on_c, 10, 60, 69
11, 373080, Note_off_c, 10, 60, 64
11, 373080, Note_on_c, 10, 65, 72
11, 373320, Note_off_c, 10, 65, 64
11, 373320, Note_on_c, 10, 60, 76
11, 373560, Note_off_c, 10, 60, 64
11, 373560, Note_on_c, 10, 64, 80
11, 373800, Note_off_c, 10, 64, 64
11, 373800, Note_on_c, 10, 60, 84
11, 374040, Note_off_c, 10, 60, 64
11, 374040, Note_on_c, 10, 64, 88
11, 374275, Note_off_c, 10, 64, 64
11, 374280, Note_on_c, 10, 60, 92
11, 374435, Note_off_c, 10, 60, 64
11, 374440, Note_on_c, 10, 65, 92
11, 374595, Note_off_c, 10, 65, 64
11, 374600, Note_on_c, 10, 77, 92
11, 374755, Note_off_c, 10, 77, 64
11, 374760, Note_on_c, 10, 77, 92
11, 374915, Note_off_c, 10, 77, 64
11, 374920, Note_on_c, 10, 77, 92
11, 375075, Note_off_c, 10, 77, 64
11, 375080, Note_on_c, 10, 77, 92
11, 375235, Note_off_c, 10, 77, 64
11, 375240, Note_on_c, 10, 77, 92
11, 375395, Note_off_c, 10, 77, 64
11, 375400, Note_on_c, 10, 65, 92
11, 375555, Note_off_c, 10, 65, 64
11, 375560, Note_on_c, 10, 77, 92
11, 375715, Note_off_c, 10, 77, 64
11, 375720, Note_on_c, 10, 65, 92
11, 375875, Note_off_c, 10, 65, 64
11, 375880, Note_on_c, 10, 76, 92
11, 376035, Note_off_c, 10, 76, 64
11, 376040, Note_on_c, 10, 74, 92
11, 376195, Note_off_c, 10, 74, 64
11, 376200, Note_on_c, 10, 72, 92
11, 376355, Note_off_c, 10, 72, 64
11, 376360, Note_on_c, 10, 60, 92
11, 376515, Note_off_c, 10, 60, 64
11, 376520, Note_on_c, 10, 72, 92
11, 376675, Note_off_c, 10, 72, 64
11, 376680, Note_on_c, 10, 60, 92
11, 376835, Note_off_c, 10, 60, 64
11, 376840, Note_on_c, 10, 70, 92
11, 376995, Note_off_c, 10, 70, 64
11, 377000, Note_on_c, 10, 69, 92
11, 377155, Note_off_c, 10, 69, 64
11, 377160, Note_on_c, 10, 67, 92
11, 377315, Note_off_c, 10, 67, 64
11, 377320, Note_on_c, 10, 58, 92
11, 377475, Note_off_c, 10, 58, 64
11, 377480, Note_on_c, 10, 67, 92
11, 377635, Note_off_c, 10, 67, 64
11, 377640, Note_on_c, 10, 58, 92
11, 377795, Note_off_c, 10, 58, 64
11, 377800, Note_on_c, 10, 65, 92
11, 377955, Note_off_c, 10, 65, 64
11, 377960, Note_on_c, 10, 67, 92
11, 378115, Note_off_c, 10, 67, 64
11, 378120, Note_on_c, 10, 65, 92
11, 378520, Note_off_c, 10, 65, 64
11, 378840, Note_on_c, 10, 69, 92
11, 378960, Note_off_c, 10, 69, 64
11, 378960, Note_on_c, 10, 67, 92
11, 379080, Note_off_c, 10, 67, 64
11, 379080, Note_on_c, 10, 65, 92
11, 379160, Note_off_c, 10, 65, 64
11, 379320, Note_on_c, 10, 69, 92
11, 379440, Note_off_c, 10, 69, 64
11, 379440, Note_on_c, 10, 67, 92
11, 379560, Note_off_c, 10, 67, 64
11, 379560, Note_on_c, 10, 65, 92
11, 379640, Note_off_c, 10, 65, 64
11, 379800, Note_on_c, 10, 74, 92
11, 379920, Note_off_c, 10, 74, 64
11, 379920, Note_on_c, 10, 71, 92
11, 380040, Note_off_c, 10, 71, 64
11, 380040, Note_on_c, 10, 72, 92
11, 380520, Note_off_c, 10, 72, 64
11, 380760, Note_on_c, 10, 74, 92
11, 380880, Note_off_c, 10, 74, 64
11, 380880, Note_on_c, 10, 72, 92
11, 381000, Note_off_c, 10, 72, 64
11, 381000, Note_on_c, 10, 69, 92
11, 381080, Note_off_c, 10, 69, 64
11, 381240, Note_on_c, 10, 72, 92
11, 381360, Note_off_c, 10, 72, 64
11, 381360, Note_on_c, 10, 70, 92
11, 381480, Note_off_c, 10, 70, 64
11, 381480, Note_on_c, 10, 67, 92
11, 381560, Note_off_c, 10, 67, 64
11, 381720, Note_on_c, 10, 70, 92
11, 381840, Note_off_c, 10, 70, 64
11, 381840, Note_on_c, 10, 69, 92
11, 381960, Note_off_c, 10, 69, 64
11, 381960, Note_on_c, 10, 65, 92
11, 382440, Note_off_c, 10, 65, 64
11, 382680, Note_on_c, 10, 69, 92
11, 382800, Note_off_c, 10, 69, 64
11, 382800, Note_on_c, 10, 67, 92
11, 382920, Note_off_c, 10, 67, 64
11, 382920, Note_on_c, 10, 65, 92
11, 383000, Note_off_c, 10, 65, 64
11, 383160, Note_on_c, 10, 69, 92
11, 383280, Note_off_c, 10, 69, 64
11, 383280, Note_on_c, 10, 67, 92
11, 383400, Note_off_c, 10, 67, 64
11, 383400, Note_on_c, 10, 65, 92
11, 383480, Note_off_c, 10, 65, 64
11, 383640, Note_on_c, 10, 74, 92
11, 383760, Note_off_c, 10, 74, 64
11, 383760, Note_on_c, 10, 71, 92
11, 383880, Note_off_c, 10, 71, 64
11, 383880, Note_on_c, 10, 72, 92
11, 384360, Note_off_c, 10, 72, 64
11, 384600, Note_on_c, 10, 74, 92
11, 384720, Note_off_c, 10, 74, 64
11, 384720, Note_on_c, 10, 72, 92
11, 384840, Note_off_c, 10, 72, 64
11, 384840, Note_on_c, 10, 69, 92
11, 384920, Note_off_c, 10, 69, 64
11, 385080, Note_on_c, 10, 72, 92
11, 385200, Note_off_c, 10, 72, 64
11, 385200, Note_on_c, 10, 70, 92
11, 385320, Note_off_c, 10, 70, 64
11, 385320, Note_on_c, 10, 67, 92
11, 385400, Note_off_c, 10, 67, 64
11, 385560, Note_on_c, 10, 70, 92
11, 385680, Note_off_c, 10, 70, 64
11, 385680, Note_on_c, 10, 69, 92
11, 385800, Note_off_c, 10, 69, 64
11, 385800, Note_on_c, 10, 65, 75
11, 385880, Note_off_c, 10, 65, 64
11, 386040, Note_on_c, 10, 72, 75
11, 386160, Note_off_c, 10, 72, 64
11, 386160, Note_on_c, 10, 69, 75
11, 386280, Note_off_c, 10, 69, 64
11, 386280, Note_on_c, 10, 67, 75
11, 386360, Note_off_c, 10, 67, 64
11, 386520, Note_on_c, 10, 72, 75
11, 386640, Note_off_c, 10, 72, 64
11, 386640, Note_on_c, 10, 70, 75
11, 386760, Note_off_c, 10, 70, 64
11, 386760, Note_on_c, 10, 65, 75
11, 386840, Note_off_c, 10, 65, 64
11, 387000, Note_on_c, 10, 72, 75
11, 387120, Note_off_c, 10, 72, 64
11, 387120, Note_on_c, 10, 69, 75
11, 387240, Note_off_c, 10, 69, 64
11, 387240, Note_on_c, 10, 67, 75
11, 387320, Note_off_c, 10, 67, 64
11, 387480, Note_on_c, 10, 72, 72
11, 387600, Note_off_c, 10, 72, 64
11, 387600, Note_on_c, 10, 70, 70
11, 387720, Note_off_c, 10, 70, 64
11, 387720, Note_on_c, 10, 65, 68
11, 387800, Note_off_c, 10, 65, 64
11, 387960, Note_on_c, 10, 72, 64
11, 388080, Note_off_c, 10, 72, 64
11, 388080, Note_on_c, 10, 69, 62
11, 388200, Note_off_c, 10, 69, 64
11, 388200, Note_on_c, 10, 67, 60
11, 388280, Note_off_c, 10, 67, 64
11, 388440, Note_on_c, 10, 72, 60
11, 388560, Note_off_c, 10, 72, 64
11, 388560, Note_on_c, 10, 70, 60
11, 388680, Note_off_c, 10, 70, 64
11, 388680, Note_on_c, 10, 65, 60
11, 388760, Note_off_c, 10, 65, 64
11, 388920, Note_on_c, 10, 72, 57
11, 389040, Note_off_c, 10, 72, 64
11, 389040, Note_on_c, 10, 69, 55
11, 389160, Note_off_c, 10, 69, 64
11, 389160, Note_on_c, 10, 67, 53
11, 389240, Note_off_c, 10, 67, 64
11, 389400, Note_on_c, 10, 72, 49
11, 389520, Note_off_c, 10, 72, 64
11, 389520, Note_on_c, 10, 70, 47
11, 389635, Note_off_c, 10, 70, 64
11, 389640, Note_on_c, 10, 65, 45
11, 390120, Note_off_c, 10, 65, 64
11, 390120, Note_on_c, 10, 60, 45
11, 390600, Note_off_c, 10, 60, 64
11, 390600, Note_on_c, 10, 65, 45
11, 391080, Note_off_c, 10, 65, 64
11, 391080, Note_on_c, 10, 60, 45
11, 391560, Note_off_c, 10, 60, 64
11, 391560, Note_on_c, 10, 65, 45
11, 392040, Note_off_c, 10, 65, 64
11, 392040, Note_on_c, 10, 60, 45
11, 392520, Note_off_c, 10, 60, 64
11, 392520, Note_on_c, 10, 65, 30
11, 393000, Note_off_c, 10, 65, 64
11, 393000, Note_on_c, 10, 60, 30
11, 393480, Note_off_c, 10, 60, 64
11, 397560, Note_on_c, 10, 65, 45
11, 397800, Note_off_c, 10, 65, 64
11, 397800, Note_on_c, 10, 67, 45
11, 397880, Note_off_c, 10, 67, 64
11, 398040, Note_on_c, 10, 70, 45
11, 398120, Note_off_c, 10, 70, 64
11, 398280, Note_on_c, 10, 69, 45
11, 398360, Note_off_c, 10, 69, 64
11, 398520, Note_on_c, 10, 69, 45
11, 398760, Note_off_c, 10, 69, 64
11, 398760, Note_on_c, 10, 70, 45
11, 398840, Note_off_c, 10, 70, 64
11, 399000, Note_on_c, 10, 74, 45
11, 399080, Note_off_c, 10, 74, 64
11, 399240, Note_on_c, 10, 72, 45
11, 399320, Note_off_c, 10, 72, 64
11, 399480, Note_on_c, 10, 72, 45
11, 399720, Note_off_c, 10, 72, 64
11, 399720, Note_on_c, 10, 74, 45
11, 399800, Note_off_c, 10, 74, 64
11, 399960, Note_on_c, 10, 77, 45
11, 400040, Note_off_c, 10, 77, 64
11, 400200, Note_on_c, 10, 75, 45
11, 400280, Note_off_c, 10, 75, 64
11, 400440, Note_on_c, 10, 74, 92
11, 400680, Note_off_c, 10, 74, 64
11, 400680, Note_on_c, 10, 75, 92
11, 400760, Note_off_c, 10, 75, 64
11, 400920, Note_on_c, 10, 79, 92
11, 401000, Note_off_c, 10, 79, 64
11, 402480, Note_on_c, 10, 74, 60
11, 402720, Note_off_c, 10, 74, 64
11, 402720, Note_on_c, 10, 75, 60
11, 402800, Note_off_c, 10, 75, 64
11, 402960, Note_on_c, 10, 79, 60
11, 403040, Note_off_c, 10, 79, 64
11, 404400, Note_on_c, 10, 74, 60
11, 404640, Note_off_c, 10, 74, 64
11, 404640, Note_on_c, 10, 75, 60
11, 404720, Note_off_c, 10, 75, 64
11, 404880, Note_on_c, 10, 79, 60
11, 404960, Note_off_c, 10, 79, 64
11, 405360, Note_on_c, 10, 74, 127
11, 405440, Note_off_c, 10, 74, 64
11, 405600, Note_on_c, 10, 75, 127
11, 405680, Note_off_c, 10, 75, 64
11, 405840, Note_on_c, 10, 79, 127
11, 405920, Note_off_c, 10, 79, 64
11, 406080, Note_on_c, 10, 77, 127
11, 406160, Note_off_c, 10, 77, 64
11, 406320, Note_on_c, 10, 75, 127
11, 406440, Note_off_c, 10, 75, 64
11, 406440, Note_on_c, 10, 74, 127
11, 406560, Note_off_c, 10, 74, 64
11, 406560, Note_on_c, 10, 72, 127
11, 406640, Note_off_c, 10, 72, 64
11, 406800, Note_on_c, 10, 65, 127
11, 406880, Note_off_c, 10, 65, 64
11, 407040, Note_on_c, 10, 70, 127
11, 407120, Note_off_c, 10, 70, 64
11, 407280, Note_on_c, 10, 72, 127
11, 407360, Note_off_c, 10, 72, 64
11, 407520, Note_on_c, 10, 74, 127
11, 407760, Note_off_c, 10, 74, 64
11, 407760, Note_on_c, 10, 75, 127
11, 407880, Note_off_c, 10, 75, 64
11, 407880, Note_on_c, 10, 74, 127
11, 407995, Note_off_c, 10, 74, 64
11, 408000, Note_on_c, 10, 72, 127
11, 408080, Note_off_c, 10, 72, 64
11, 408240, Note_on_c, 10, 74, 127
11, 408320, Note_off_c, 10, 74, 64
11, 408480, Note_on_c, 10, 75, 127
11, 408720, Note_off_c, 10, 75, 64
11, 408720, Note_on_c, 10, 77, 127
11, 408840, Note_off_c, 10, 77, 64
11, 408840, Note_on_c, 10, 75, 127
11, 408955, Note_off_c, 10, 75, 64
11, 408960, Note_on_c, 10, 74, 60
11, 409195, Note_off_c, 10, 74, 64
11, 409920, Note_on_c, 10, 60, 60
11, 410155, Note_off_c, 10, 60, 64
11, 410880, Note_on_c, 10, 62, 60
11, 411035, Note_off_c, 10, 62, 64
11, 411040, Note_on_c, 10, 82, 60
11, 411195, Note_off_c, 10, 82, 64
11, 411200, Note_on_c, 10, 82, 60
11, 411355, Note_off_c, 10, 82, 64
11, 411360, Note_on_c, 10, 82, 60
11, 412955, Note_off_c, 10, 82, 64
11, 412960, Note_on_c, 10, 82, 60
11, 413115, Note_off_c, 10, 82, 64
11, 413120, Note_on_c, 10, 82, 60
11, 413275, Note_off_c, 10, 82, 64
11, 413280, Note_on_c, 10, 82, 60
11, 414875, Note_off_c, 10, 82, 64
11, 414880, Note_on_c, 10, 82, 60
11, 415035, Note_off_c, 10, 82, 64
11, 415040, Note_on_c, 10, 82, 60
11, 415195, Note_off_c, 10, 82, 64
11, 415200, Note_on_c, 10, 82, 60
11, 416795, Note_off_c, 10, 82, 64
11, 416800, Note_on_c, 10, 82, 60
11, 416955, Note_off_c, 10, 82, 64
11, 416960, Note_on_c, 10, 82, 60
11, 417115, Note_off_c, 10, 82, 64
11, 417120, Note_on_c, 10, 82, 60
11, 418715, Note_off_c, 10, 82, 64
11, 418720, Note_on_c, 10, 82, 60
11, 418875, Note_off_c, 10, 82, 64
11, 418880, Note_on_c, 10, 82, 60
11, 419035, Note_off_c, 10, 82, 64
11, 419040, Note_on_c, 10, 82, 60
11, 419675, Note_off_c, 10, 82, 64
11, 419680, Note_on_c, 10, 79, 60
11, 419835, Note_off_c, 10, 79, 64
11, 419840, Note_on_c, 10, 79, 60
11, 419995, Note_off_c, 10, 79, 64
11, 420000, Note_on_c, 10, 79, 60
11, 420635, Note_off_c, 10, 79, 64
11, 420640, Note_on_c, 10, 76, 72
11, 420795, Note_off_c, 10, 76, 64
11, 420800, Note_on_c, 10, 76, 75
11, 420955, Note_off_c, 10, 76, 64
11, 420960, Note_on_c, 10, 76, 78
11, 421595, Note_off_c, 10, 76, 64
11, 421600, Note_on_c, 10, 72, 91
11, 421755, Note_off_c, 10, 72, 64
11, 421760, Note_on_c, 10, 72, 94
11, 421915, Note_off_c, 10, 72, 64
11, 421920, Note_on_c, 10, 72, 97
11, 422320, Note_off_c, 10, 72, 64
11, 422400, Note_on_c, 10, 65, 108
11, 422400, Note_on_c, 10, 69, 108
11, 422400, Note_on_c, 10, 77, 108
11, 422800, Note_off_c, 10, 69, 64
11, 422800, Note_off_c, 10, 65, 64
11, 423035, Note_off_c, 10, 77, 64
11, 423040, Note_on_c, 10, 81, 108
11, 423200, Note_off_c, 10, 81, 64
11, 423200, Note_on_c, 10, 79, 108
11, 423355, Note_off_c, 10, 79, 64
11, 423360, Note_on_c, 10, 77, 108
11, 423520, Note_off_c, 10, 77, 64
11, 423520, Note_on_c, 10, 81, 108
11, 423680, Note_off_c, 10, 81, 64
11, 423680, Note_on_c, 10, 79, 108
11, 423835, Note_off_c, 10, 79, 64
11, 423840, Note_on_c, 10, 77, 108
11, 424000, Note_off_c, 10, 77, 64
11, 424000, Note_on_c, 10, 86, 108
11, 424160, Note_off_c, 10, 86, 64
11, 424160, Note_on_c, 10, 83, 108
11, 424315, Note_off_c, 10, 83, 64
11, 424320, Note_on_c, 10, 84, 108
11, 424955, Note_off_c, 10, 84, 64
11, 424960, Note_on_c, 10, 86, 108
11, 425120, Note_off_c, 10, 86, 64
11, 425120, Note_on_c, 10, 84, 108
11, 425275, Note_off_c, 10, 84, 64
11, 425280, Note_on_c, 10, 81, 108
11, 425440, Note_off_c, 10, 81, 64
11, 425440, Note_on_c, 10, 84, 108
11, 425600, Note_off_c, 10, 84, 64
11, 425600, Note_on_c, 10, 82, 108
11, 425755, Note_off_c, 10, 82, 64
11, 425760, Note_on_c, 10, 79, 108
11, 425920, Note_off_c, 10, 79, 64
11, 425920, Note_on_c, 10, 82, 108
11, 426080, Note_off_c, 10, 82, 64
11, 426080, Note_on_c, 10, 81, 108
11, 426235, Note_off_c, 10, 81, 64
11, 426240, Note_on_c, 10, 77, 108
11, 426875, Note_off_c, 10, 77, 64
11, 426880, Note_on_c, 10, 81, 108
11, 427040, Note_off_c, 10, 81, 64
11, 427040, Note_on_c, 10, 79, 108
11, 427195, Note_off_c, 10, 79, 64
11, 427200, Note_on_c, 10, 77, 108
11, 427360, Note_off_c, 10, 77, 64
11, 427360, Note_on_c, 10, 81, 108
11, 427520, Note_off_c, 10, 81, 64
11, 427520, Note_on_c, 10, 79, 108
11, 427675, Note_off_c, 10, 79, 64
11, 427680, Note_on_c, 10, 77, 108
11, 427840, Note_off_c, 10, 77, 64
11, 427840, Note_on_c, 10, 86, 108
11, 428000, Note_off_c, 10, 86, 64
11, 428000, Note_on_c, 10, 83, 108
11, 428155, Note_off_c, 10, 83, 64
11, 428160, Note_on_c, 10, 84, 108
11, 428795, Note_off_c, 10, 84, 64
11, 428800, Note_on_c, 10, 86, 108
11, 428960, Note_off_c, 10, 86, 64
11, 428960, Note_on_c, 10, 84, 108
11, 429115, Note_off_c, 10, 84, 64
11, 429120, Note_on_c, 10, 81, 108
11, 429280, Note_off_c, 10, 81, 64
11, 429280, Note_on_c, 10, 84, 108
11, 429440, Note_off_c, 10, 84, 64
11, 429440, Note_on_c, 10, 82, 108
11, 429595, Note_off_c, 10, 82, 64
11, 429600, Note_on_c, 10, 79, 108
11, 429760, Note_off_c, 10, 79, 64
11, 429760, Note_on_c, 10, 82, 108
11, 429920, Note_off_c, 10, 82, 64
11, 429920, Note_on_c, 10, 81, 108
11, 430075, Note_off_c, 10, 81, 64
11, 430080, Note_on_c, 10, 77, 108
11, 430715, Note_off_c, 10, 77, 64
11, 430720, Note_on_c, 10, 81, 108
11, 430875, Note_off_c, 10, 81, 64
11, 430880, Note_on_c, 10, 81, 108
11, 431035, Note_off_c, 10, 81, 64
11, 431040, Note_on_c, 10, 81, 108
11, 431675, Note_off_c, 10, 81, 64
11, 431680, Note_on_c, 10, 81, 108
11, 431835, Note_off_c, 10, 81, 64
11, 431840, Note_on_c, 10, 81, 108
11, 431995, Note_off_c, 10, 81, 64
11, 432000, Note_on_c, 10, 84, 108
11, 432635, Note_off_c, 10, 84, 64
11, 432640, Note_on_c, 10, 84, 108
11, 432795, Note_off_c, 10, 84, 64
11, 432800, Note_on_c, 10, 84, 108
11, 432955, Note_off_c, 10, 84, 64
11, 432960, Note_on_c, 10, 79, 108
11, 433595, Note_off_c, 10, 79, 64
11, 433600, Note_on_c, 10, 79, 108
11, 433755, Note_off_c, 10, 79, 64
11, 433760, Note_on_c, 10, 79, 108
11, 433915, Note_off_c, 10, 79, 64
11, 433920, Note_on_c, 10, 81, 108
11, 434555, Note_off_c, 10, 81, 64
11, 434560, Note_on_c, 10, 81, 108
11, 434715, Note_off_c, 10, 81, 64
11, 434720, Note_on_c, 10, 81, 108
11, 434875, Note_off_c, 10, 81, 64
11, 434880, Note_on_c, 10, 81, 108
11, 435515, Note_off_c, 10, 81, 64
11, 435520, Note_on_c, 10, 81, 108
11, 435675, Note_off_c, 10, 81, 64
11, 435680, Note_on_c, 10, 81, 108
11, 435835, Note_off_c, 10, 81, 64
11, 435840, Note_on_c, 10, 84, 108
11, 436475, Note_off_c, 10, 84, 64
11, 436480, Note_on_c, 10, 84, 108
11, 436635, Note_off_c, 10, 84, 64
11, 436640, Note_on_c, 10, 84, 108
11, 436795, Note_off_c, 10, 84, 64
11, 436800, Note_on_c, 10, 79, 108
11, 437435, Note_off_c, 10, 79, 64
11, 437440, Note_on_c, 10, 79, 108
11, 437595, Note_off_c, 10, 79, 64
11, 437600, Note_on_c, 10, 79, 108
11, 437755, Note_off_c, 10, 79, 64
11, 437760, Note_on_c, 10, 81, 108
11, 438395, Note_off_c, 10, 81, 64
11, 438400, Note_on_c, 10, 81, 108
11, 438555, Note_off_c, 10, 81, 64
11, 438560, Note_on_c, 10, 81, 108
11, 438715, Note_off_c, 10, 81, 64
11, 438720, Note_on_c, 10, 81, 108
11, 439355, Note_off_c, 10, 81, 64
11, 439360, Note_on_c, 10, 81, 108
11, 439515, Note_off_c, 10, 81, 64
11, 439520, Note_on_c, 10, 81, 108
11, 439675, Note_off_c, 10, 81, 64
11, 439680, Note_on_c, 10, 84, 108
11, 440315, Note_off_c, 10, 84, 64
11, 440320, Note_on_c, 10, 84, 108
11, 440475, Note_off_c, 10, 84, 64
11, 440480, Note_on_c, 10, 84, 108
11, 440635, Note_off_c, 10, 84, 64
11, 440640, Note_on_c, 10, 84, 108
11, 441275, Note_off_c, 10, 84, 64
11, 441280, Note_on_c, 10, 84, 108
11, 441435, Note_off_c, 10, 84, 64
11, 441440, Note_on_c, 10, 84, 108
11, 441595, Note_off_c, 10, 84, 64
11, 441600, Note_on_c, 10, 84, 108
11, 442235, Note_off_c, 10, 84, 64
11, 442240, Note_on_c, 10, 82, 103
11, 442395, Note_off_c, 10, 82, 64
11, 442400, Note_on_c, 10, 82, 102
11, 442555, Note_off_c, 10, 82, 64
11, 442560, Note_on_c, 10, 82, 101
11, 443195, Note_off_c, 10, 82, 64
11, 443200, Note_on_c, 10, 81, 96
11, 443355, Note_off_c, 10, 81, 64
11, 443360, Note_on_c, 10, 81, 94
11, 443515, Note_off_c, 10, 81, 64
11, 443520, Note_on_c, 10, 81, 92
11, 444155, Note_off_c, 10, 81, 64
11, 444160, Note_on_c, 10, 79, 92
11, 444315, Note_off_c, 10, 79, 64
11, 444320, Note_on_c, 10, 79, 92
11, 444475, Note_off_c, 10, 79, 64
11, 444480, Note_on_c, 10, 79, 92
11, 445115, Note_off_c, 10, 79, 64
11, 445120, Note_on_c, 10, 77, 81
11, 445275, Note_off_c, 10, 77, 64
11, 445280, Note_on_c, 10, 77, 78
11, 445435, Note_off_c, 10, 77, 64
11, 445440, Note_on_c, 10, 77, 75
11, 446075, Note_off_c, 10, 77, 64
11, 446080, Note_on_c, 10, 76, 75
11, 446235, Note_off_c, 10, 76, 64
11, 446240, Note_on_c, 10, 76, 75
11, 446395, Note_off_c, 10, 76, 64
11, 446400, Note_on_c, 10, 76, 75
11, 447035, Note_off_c, 10, 76, 64
11, 447040, Note_on_c, 10, 74, 66
11, 447195, Note_off_c, 10, 74, 64
11, 447200, Note_on_c, 10, 74, 63
11, 447355, Note_off_c, 10, 74, 64
11, 447360, Note_on_c, 10, 74, 60
11, 447995, Note_off_c, 10, 74, 64
11, 448000, Note_on_c, 10, 72, 60
11, 448155, Note_off_c, 10, 72, 64
11, 448160, Note_on_c, 10, 72, 60
11, 448315, Note_off_c, 10, 72, 64
11, 448320, Note_on_c, 10, 72, 60
11, 448955, Note_off_c, 10, 72, 64
11, 448960, Note_on_c, 10, 70, 51
11, 449115, Note_off_c, 10, 70, 64
11, 449120, Note_on_c, 10, 70, 48
11, 449275, Note_off_c, 10, 70, 64
11, 449280, Note_on_c, 10, 70, 45
11, 450240, Note_off_c, 10, 70, 64
11, 450240, Note_on_c, 10, 71, 45
11, 451080, Note_off_c, 10, 71, 64
11, 451200, Note_on_c, 10, 70, 108
11, 451200, Note_on_c, 10, 82, 108
11, 451280, Note_off_c, 10, 82, 64
11, 451280, Note_off_c, 10, 70, 64
11, 451440, Note_on_c, 10, 67, 108
11, 451440, Note_on_c, 10, 79, 108
11, 451560, Note_off_c, 10, 79, 64
11, 451560, Note_off_c, 10, 67, 64
11, 451560, Note_on_c, 10, 65, 108
11, 451560, Note_on_c, 10, 77, 108
11, 451680, Note_off_c, 10, 77, 64
11, 451680, Note_off_c, 10, 65, 64
11, 451680, Note_on_c, 10, 64, 108
11, 451680, Note_on_c, 10, 76, 108
11, 451760, Note_off_c, 10, 76, 64
11, 451760, Note_off_c, 10, 64, 64
11, 451920, Note_on_c, 10, 60, 108
11, 451920, Note_on_c, 10, 72, 108
11, 452000, Note_off_c, 10, 72, 64
11, 452000, Note_off_c, 10, 60, 64
11, 452160, Note_on_c, 10, 69, 108
11, 452160, Note_on_c, 10, 81, 108
11, 452395, Note_off_c, 10, 81, 64
11, 452395, Note_off_c, 10, 69, 64
11, 452640, Note_on_c, 10, 67, 108
11, 452640, Note_on_c, 10, 79, 108
11, 452875, Note_off_c, 10, 79, 64
11, 452875, Note_off_c, 10, 67, 64
11, 453120, Note_on_c, 10, 70, 45
11, 454080, Note_off_c, 10, 70, 64
11, 454080, Note_on_c, 10, 71, 45
11, 454920, Note_off_c, 10, 71, 64
11, 455040, Note_on_c, 10, 70, 108
11, 455040, Note_on_c, 10, 82, 108
11, 455120, Note_off_c, 10, 82, 64
11, 455120, Note_off_c, 10, 70, 64
11, 455280, Note_on_c, 10, 67, 108
11, 455280, Note_on_c, 10, 79, 108
11, 455400, Note_off_c, 10, 79, 64
11, 455400, Note_off_c, 10, 67, 64
11, 455400, Note_on_c, 10, 65, 108
11, 455400, Note_on_c, 10, 77, 108
11, 455520, Note_off_c, 10, 77, 64
11, 455520, Note_off_c, 10, 65, 64
11, 455520, Note_on_c, 10, 64, 108
11, 455520, Note_on_c, 10, 76, 108
11, 455600, Note_off_c, 10, 76, 64
11, 455600, Note_off_c, 10, 64, 64
11, 455760, Note_on_c, 10, 60, 108
11, 455760, Note_on_c, 10, 72, 108
11, 455840, Note_off_c, 10, 72, 64
11, 455840, Note_off_c, 10, 60, 64
11, 456000, Note_on_c, 10, 69, 108
11, 456000, Note_on_c, 10, 81, 108
11, 456235, Note_off_c, 10, 81, 64
11, 456235, Note_off_c, 10, 69, 64
11, 456480, Note_on_c, 10, 67, 108
11, 456480, Note_on_c, 10, 79, 108
11, 456715, Note_off_c, 10, 79, 64
11, 456715, Note_off_c, 10, 67, 64
11, 456960, Note_on_c, 10, 65, 108
11, 456960, Note_on_c, 10, 77, 108
11, 457195, Note_off_c, 10, 77, 64
11, 457195, Note_off_c, 10, 65, 64
11, 459840, Note_on_c, 10, 82, 92
11, 460480, Note_off_c, 10, 82, 64
11, 460560, Note_on_c, 10, 82, 92
11, 460795, Note_off_c, 10, 82, 64
11, 460800, Note_on_c, 10, 81, 92
11, 461035, Note_off_c, 10, 81, 64
11, 463680, Note_on_c, 10, 82, 92
11, 464320, Note_off_c, 10, 82, 64
11, 464400, Note_on_c, 10, 82, 92
11, 464635, Note_off_c, 10, 82, 64
11, 464640, Note_on_c, 10, 81, 92
11, 464875, Note_off_c, 10, 81, 64
11, 465600, Note_on_c, 10, 82, 92
11, 466240, Note_off_c, 10, 82, 64
11, 466320, Note_on_c, 10, 82, 92
11, 466555, Note_off_c, 10, 82, 64
11, 466560, Note_on_c, 10, 81, 92
11, 466795, Note_off_c, 10, 81, 64
11, 467520, Note_on_c, 10, 82, 92
11, 468160, Note_off_c, 10, 82, 64
11, 468240, Note_on_c, 10, 82, 92
11, 468475, Note_off_c, 10, 82, 64
11, 468480, Note_on_c, 10, 81, 92
11, 468715, Note_off_c, 10, 81, 64
11, 469440, Note_on_c, 10, 81, 92
11, 469675, Note_off_c, 10, 81, 64
11, 470400, Note_on_c, 10, 81, 75
11, 470635, Note_off_c, 10, 81, 64
11, 471360, Note_on_c, 10, 81, 45
11, 471595, Note_off_c, 10, 81, 64
11, 472320, Note_on_c, 10, 81, 45
11, 472555, Note_off_c, 10, 81, 64
11, 472560, Note_on_c, 10, 69, 45
11, 472640, Note_off_c, 10, 69, 64
11, 472800, Note_on_c, 10, 70, 45
11, 472880, Note_off_c, 10, 70, 64
11, 473040, Note_on_c, 10, 74, 45
11, 473120, Note_off_c, 10, 74, 64
11, 473280, Note_on_c, 10, 72, 45
11, 473520, Note_off_c, 10, 72, 64
11, 473520, Note_on_c, 10, 70, 45
11, 473640, Note_off_c, 10, 70, 64
11, 473640, Note_on_c, 10, 69, 45
11, 473760, Note_off_c, 10, 69, 64
11, 473760, Note_on_c, 10, 67, 45
11, 473840, Note_off_c, 10, 67, 64
11, 474000, Note_on_c, 10, 60, 45
11, 474080, Note_off_c, 10, 60, 64
11, 474240, Note_on_c, 10, 65, 45
11, 474320, Note_off_c, 10, 65, 64
11, 474480, Note_on_c, 10, 67, 45
11, 474560, Note_off_c, 10, 67, 64
11, 474720, Note_on_c, 10, 69, 45
11, 474960, Note_off_c, 10, 69, 64
11, 474960, Note_on_c, 10, 70, 45
11, 475080, Note_off_c, 10, 70, 64
11, 475080, Note_on_c, 10, 69, 45
11, 475195, Note_off_c, 10, 69, 64
11, 475200, Note_on_c, 10, 67, 45
11, 475280, Note_off_c, 10, 67, 64
11, 475440, Note_on_c, 10, 69, 45
11, 475520, Note_off_c, 10, 69, 64
11, 475680, Note_on_c, 10, 70, 45
11, 475920, Note_off_c, 10, 70, 64
11, 475920, Note_on_c, 10, 72, 45
11, 476040, Note_off_c, 10, 72, 64
11, 476040, Note_on_c, 10, 70, 45
11, 476155, Note_off_c, 10, 70, 64
11, 476160, Note_on_c, 10, 69, 45
11, 476240, Note_off_c, 10, 69, 64
11, 476400, Note_on_c, 10, 70, 45
11, 476480, Note_off_c, 10, 70, 64
11, 476640, Note_on_c, 10, 72, 45
11, 476880, Note_off_c, 10, 72, 64
11, 476880, Note_on_c, 10, 74, 45
11, 477000, Note_off_c, 10, 74, 64
11, 477000, Note_on_c, 10, 72, 45
11, 477115, Note_off_c, 10, 72, 64
11, 477120, Note_on_c, 10, 70, 45
11, 477200, Note_off_c, 10, 70, 64
11, 477360, Note_on_c, 10, 72, 45
11, 477440, Note_off_c, 10, 72, 64
11, 477600, Note_on_c, 10, 74, 45
11, 477680, Note_off_c, 10, 74, 64
11, 477840, Note_on_c, 10, 76, 45
11, 477920, Note_off_c, 10, 76, 64
11, 478080, Note_on_c, 10, 77, 45
11, 478160, Note_off_c, 10, 77, 64
11, 485040, Note_on_c, 10, 70, 92
11, 485120, Note_off_c, 10, 70, 64
11, 485280, Note_on_c, 10, 72, 92
11, 485360, Note_off_c, 10, 72, 64
11, 485520, Note_on_c, 10, 74, 92
11, 485600, Note_off_c, 10, 74, 64
11, 485760, Note_on_c, 10, 76, 92
11, 485840, Note_off_c, 10, 76, 64
11, 486000, Note_on_c, 10, 77, 92
11, 486840, Note_off_c, 10, 77, 64
11, 486960, Note_on_c, 10, 64, 92
11, 486960, Note_on_c, 10, 67, 92
11, 486960, Note_on_c, 10, 79, 92
11, 487800, Note_off_c, 10, 79, 64
11, 487800, Note_off_c, 10, 67, 64
11, 487800, Note_off_c, 10, 64, 64
11, 487920, Note_on_c, 10, 69, 92
11, 487920, Note_on_c, 10, 81, 92
11, 488760, Note_off_c, 10, 81, 64
11, 488760, Note_off_c, 10, 69, 64
11, 488880, Note_on_c, 10, 69, 75
11, 488880, Note_on_c, 10, 81, 75
11, 489360, Note_off_c, 10, 81, 64
11, 489360, Note_off_c, 10, 69, 64
11, 489360, Note_on_c, 10, 69, 75
11, 489360, Note_on_c, 10, 81, 75
11, 489840, Note_off_c, 10, 81, 64
11, 489840, Note_off_c, 10, 69, 64
11, 489840, Note_on_c, 10, 69, 75
11, 489840, Note_on_c, 10, 81, 75
11, 490680, Note_off_c, 10, 81, 64
11, 490680, Note_off_c, 10, 69, 64
11, 490800, Note_on_c, 10, 60, 60
11, 490800, Note_on_c, 10, 69, 60
11, 491640, Note_off_c, 10, 69, 64
11, 491640, Note_off_c, 10, 60, 64
11, 491760, Note_on_c, 10, 60, 60
11, 491760, Note_on_c, 10, 69, 60
11, 492600, Note_off_c, 10, 69, 64
11, 492600, Note_off_c, 10, 60, 64
11, 496080, Note_on_c, 10, 72, 60
11, 496200, Note_off_c, 10, 72, 64
11, 496560, Note_on_c, 10, 77, 60
11, 496680, Note_off_c, 10, 77, 64
11, 497040, Note_on_c, 10, 72, 60
11, 497160, Note_off_c, 10, 72, 64
11, 497520, Note_on_c, 10, 74, 60
11, 497640, Note_off_c, 10, 74, 64
11, 498000, Note_on_c, 10, 72, 60
11, 498120, Note_off_c, 10, 72, 64
11, 498480, Note_on_c, 10, 69, 60
11, 498600, Note_off_c, 10, 69, 64
11, 498960, Note_on_c, 10, 70, 60
11, 499080, Note_off_c, 10, 70, 64
11, 499440, Note_on_c, 10, 69, 60
11, 499560, Note_off_c, 10, 69, 64
11, 499920, Note_on_c, 10, 65, 60
11, 500040, Note_off_c, 10, 65, 64
11, 500400, Note_on_c, 10, 67, 60
11, 500520, Note_off_c, 10, 67, 64
11, 500880, Note_on_c, 10, 69, 60
11, 501000, Note_off_c, 10, 69, 64
11, 501360, Note_on_c, 10, 65, 60
11, 501480, Note_off_c, 10, 65, 64
11, 501840, Note_on_c, 10, 67, 60
11, 501960, Note_off_c, 10, 67, 64
11, 502320, Note_on_c, 10, 69, 60
11, 502440, Note_off_c, 10, 69, 64
11, 502800, Note_on_c, 10, 65, 60
11, 502920, Note_off_c, 10, 65, 64
11, 503280, Note_on_c, 10, 67, 60
11, 503400, Note_off_c, 10, 67, 64
11, 503760, Note_on_c, 10, 65, 60
11, 503880, Note_off_c, 10, 65, 64
11, 504240, Note_on_c, 10, 62, 60
11, 504360, Note_off_c, 10, 62, 64
11, 504720, Note_on_c, 10, 64, 60
11, 504840, Note_off_c, 10, 64, 64
11, 505200, Note_on_c, 10, 62, 60
11, 505320, Note_off_c, 10, 62, 64
11, 505680, Note_on_c, 10, 57, 60
11, 505800, Note_off_c, 10, 57, 64
11, 506160, Note_on_c, 10, 57, 60
11, 506280, Note_off_c, 10, 57, 64
11, 506640, Note_on_c, 10, 57, 60
11, 506760, Note_off_c, 10, 57, 64
11, 507600, Note_on_c, 10, 69, 60
11, 508080, Note_off_c, 10, 69, 64
11, 508080, Note_on_c, 10, 74, 60
11, 509040, Note_off_c, 10, 74, 64
11, 509040, Note_on_c, 10, 78, 60
11, 509520, Note_off_c, 10, 78, 64
11, 509520, Note_on_c, 10, 81, 60
11, 510000, Note_off_c, 10, 81, 64
11, 510000, Note_on_c, 10, 78, 60
11, 510400, Note_off_c, 10, 78, 64
11, 510480, Note_on_c, 10, 78, 60
11, 510960, Note_off_c, 10, 78, 64
11, 510960, Note_on_c, 10, 81, 60
11, 511440, Note_off_c, 10, 81, 64
11, 511440, Note_on_c, 10, 85, 60
11, 511920, Note_off_c, 10, 85, 64
11, 511920, Note_on_c, 10, 86, 60
11, 512160, Note_off_c, 10, 86, 64
11, 512160, Note_on_c, 10, 83, 60
11, 512400, Note_off_c, 10, 83, 64
11, 512400, Note_on_c, 10, 81, 60
11, 513240, Note_off_c, 10, 81, 64
11, 513360, Note_on_c, 10, 85, 60
11, 513840, Note_off_c, 10, 85, 64
11, 513840, Note_on_c, 10, 86, 60
11, 514320, Note_off_c, 10, 86, 64
11, 514320, Note_on_c, 10, 81, 60
11, 514800, Note_off_c, 10, 81, 64
11, 514800, Note_on_c, 10, 83, 60
11, 515200, Note_off_c, 10, 83, 64
11, 515280, Note_on_c, 10, 81, 60
11, 515760, Note_off_c, 10, 81, 64
11, 515760, Note_on_c, 10, 78, 60
11, 516240, Note_off_c, 10, 78, 64
11, 516240, Note_on_c, 10, 79, 60
11, 516720, Note_off_c, 10, 79, 64
11, 516720, Note_on_c, 10, 78, 60
11, 517200, Note_off_c, 10, 78, 64
11, 517200, Note_on_c, 10, 74, 60
11, 517680, Note_off_c, 10, 74, 64
11, 517680, Note_on_c, 10, 78, 60
11, 517920, Note_off_c, 10, 78, 64
11, 517920, Note_on_c, 10, 76, 60
11, 518160, Note_off_c, 10, 76, 64
11, 518160, Note_on_c, 10, 74, 60
11, 518560, Note_off_c, 10, 74, 64
11, 519120, Note_on_c, 10, 72, 60
11, 519240, Note_off_c, 10, 72, 64
11, 519600, Note_on_c, 10, 77, 60
11, 519720, Note_off_c, 10, 77, 64
11, 520080, Note_on_c, 10, 72, 60
11, 520200, Note_off_c, 10, 72, 64
11, 520560, Note_on_c, 10, 74, 60
11, 520680, Note_off_c, 10, 74, 64
11, 521040, Note_on_c, 10, 72, 60
11, 521160, Note_off_c, 10, 72, 64
11, 521520, Note_on_c, 10, 69, 60
11, 521640, Note_off_c, 10, 69, 64
11, 522000, Note_on_c, 10, 70, 60
11, 522120, Note_off_c, 10, 70, 64
11, 522480, Note_on_c, 10, 69, 60
11, 522600, Note_off_c, 10, 69, 64
11, 522960, Note_on_c, 10, 65, 60
11, 523080, Note_off_c, 10, 65, 64
11, 523440, Note_on_c, 10, 67, 60
11, 523560, Note_off_c, 10, 67, 64
11, 523920, Note_on_c, 10, 69, 60
11, 524040, Note_off_c, 10, 69, 64
11, 524400, Note_on_c, 10, 65, 60
11, 524520, Note_off_c, 10, 65, 64
11, 524880, Note_on_c, 10, 67, 60
11, 525000, Note_off_c, 10, 67, 64
11, 525360, Note_on_c, 10, 69, 60
11, 525480, Note_off_c, 10, 69, 64
11, 525840, Note_on_c, 10, 65, 60
11, 525960, Note_off_c, 10, 65, 64
11, 526320, Note_on_c, 10, 67, 60
11, 526440, Note_off_c, 10, 67, 64
11, 526800, Note_on_c, 10, 65, 60
11, 526920, Note_off_c, 10, 65, 64
11, 527280, Note_on_c, 10, 62, 60
11, 527400, Note_off_c, 10, 62, 64
11, 527760, Note_on_c, 10, 64, 60
11, 527880, Note_off_c, 10, 64, 64
11, 528240, Note_on_c, 10, 62, 60
11, 528360, Note_off_c, 10, 62, 64
11, 528720, Note_on_c, 10, 57, 60
11, 528840, Note_off_c, 10, 57, 64
11, 529200, Note_on_c, 10, 57, 60
11, 529320, Note_off_c, 10, 57, 64
11, 529680, Note_on_c, 10, 57, 60
11, 529800, Note_off_c, 10, 57, 64
11, 530640, Note_on_c, 10, 69, 60
11, 531120, Note_off_c, 10, 69, 64
11, 531120, Note_on_c, 10, 74, 60
11, 532080, Note_off_c, 10, 74, 64
11, 532080, Note_on_c, 10, 78, 60
11, 532560, Note_off_c, 10, 78, 64
11, 532560, Note_on_c, 10, 81, 60
11, 533040, Note_off_c, 10, 81, 64
11, 533040, Note_on_c, 10, 78, 60
11, 533440, Note_off_c, 10, 78, 64
11, 533520, Note_on_c, 10, 78, 60
11, 534000, Note_off_c, 10, 78, 64
11, 534000, Note_on_c, 10, 81, 60
11, 534480, Note_off_c, 10, 81, 64
11, 534480, Note_on_c, 10, 85, 60
11, 534960, Note_off_c, 10, 85, 64
11, 534960, Note_on_c, 10, 86, 60
11, 535200, Note_off_c, 10, 86, 64
11, 535200, Note_on_c, 10, 83, 60
11, 535440, Note_off_c, 10, 83, 64
11, 535440, Note_on_c, 10, 81, 60
11, 536280, Note_off_c, 10, 81, 64
11, 536400, Note_on_c, 10, 85, 60
11, 536880, Note_off_c, 10, 85, 64
11, 536880, Note_on_c, 10, 86, 60
11, 537360, Note_off_c, 10, 86, 64
11, 537360, Note_on_c, 10, 81, 60
11, 537840, Note_off_c, 10, 81, 64
11, 537840, Note_on_c, 10, 83, 60
11, 538240, Note_off_c, 10, 83, 64
11, 538320, Note_on_c, 10, 81, 60
11, 538800, Note_off_c, 10, 81, 64
11, 538800, Note_on_c, 10, 78, 60
11, 539280, Note_off_c, 10, 78, 64
11, 539280, Note_on_c, 10, 79, 60
11, 539760, Note_off_c, 10, 79, 64
11, 539760, Note_on_c, 10, 78, 60
11, 540240, Note_off_c, 10, 78, 64
11, 540240, Note_on_c, 10, 74, 60
11, 540720, Note_off_c, 10, 74, 64
11, 540720, Note_on_c, 10, 78, 60
11, 540960, Note_off_c, 10, 78, 64
11, 540960, Note_on_c, 10, 76, 60
11, 541200, Note_off_c, 10, 76, 64
11, 541200, Note_on_c, 10, 74, 60
11, 541600, Note_off_c, 10, 74, 64
11, 542160, Note_on_c, 10, 81, 60
11, 542280, Note_off_c, 10, 81, 64
11, 542640, Note_on_c, 10, 86, 60
11, 542760, Note_off_c, 10, 86, 64
11, 543120, Note_on_c, 10, 81, 60
11, 543240, Note_off_c, 10, 81, 64
11, 543600, Note_on_c, 10, 83, 60
11, 543720, Note_off_c, 10, 83, 64
11, 544080, Note_on_c, 10, 81, 60
11, 544200, Note_off_c, 10, 81, 64
11, 544560, Note_on_c, 10, 78, 60
11, 544680, Note_off_c, 10, 78, 64
11, 545040, Note_on_c, 10, 79, 60
11, 545160, Note_off_c, 10, 79, 64
11, 545520, Note_on_c, 10, 78, 60
11, 545640, Note_off_c, 10, 78, 64
11, 546000, Note_on_c, 10, 74, 60
11, 546120, Note_off_c, 10, 74, 64
11, 546480, Note_on_c, 10, 76, 60
11, 546600, Note_off_c, 10, 76, 64
11, 546960, Note_on_c, 10, 78, 60
11, 547080, Note_off_c, 10, 78, 64
11, 547440, Note_on_c, 10, 74, 60
11, 547560, Note_off_c, 10, 74, 64
11, 547920, Note_on_c, 10, 74, 60
11, 548040, Note_off_c, 10, 74, 64
11, 548400, Note_on_c, 10, 79, 60
11, 548520, Note_off_c, 10, 79, 64
11, 548880, Note_on_c, 10, 74, 60
11, 549000, Note_off_c, 10, 74, 64
11, 549360, Note_on_c, 10, 76, 60
11, 549480, Note_off_c, 10, 76, 64
11, 549840, Note_on_c, 10, 74, 60
11, 549960, Note_off_c, 10, 74, 64
11, 550320, Note_on_c, 10, 71, 60
11, 550440, Note_off_c, 10, 71, 64
11, 550800, Note_on_c, 10, 72, 60
11, 550920, Note_off_c, 10, 72, 64
11, 551280, Note_on_c, 10, 71, 60
11, 551400, Note_off_c, 10, 71, 64
11, 551760, Note_on_c, 10, 67, 60
11, 551880, Note_off_c, 10, 67, 64
11, 552240, Note_on_c, 10, 69, 60
11, 552360, Note_off_c, 10, 69, 64
11, 552720, Note_on_c, 10, 71, 60
11, 552840, Note_off_c, 10, 71, 64
11, 553200, Note_on_c, 10, 67, 60
11, 553320, Note_off_c, 10, 67, 64
11, 553680, Note_on_c, 10, 67, 60
11, 554160, Note_off_c, 10, 67, 64
11, 554160, Note_on_c, 10, 72, 60
11, 555120, Note_off_c, 10, 72, 64
11, 555120, Note_on_c, 10, 76, 60
11, 555600, Note_off_c, 10, 76, 64
11, 555600, Note_on_c, 10, 79, 60
11, 556080, Note_off_c, 10, 79, 64
11, 556080, Note_on_c, 10, 76, 60
11, 556480, Note_off_c, 10, 76, 64
11, 556560, Note_on_c, 10, 76, 60
11, 557040, Note_off_c, 10, 76, 64
11, 557040, Note_on_c, 10, 79, 60
11, 557520, Note_off_c, 10, 79, 64
11, 557520, Note_on_c, 10, 83, 60
11, 558000, Note_off_c, 10, 83, 64
11, 558000, Note_on_c, 10, 84, 60
11, 558240, Note_off_c, 10, 84, 64
11, 558240, Note_on_c, 10, 81, 60
11, 558480, Note_off_c, 10, 81, 64
11, 558480, Note_on_c, 10, 79, 60
11, 559320, Note_off_c, 10, 79, 64
11, 559440, Note_on_c, 10, 83, 60
11, 559920, Note_off_c, 10, 83, 64
11, 559920, Note_on_c, 10, 84, 60
11, 560400, Note_off_c, 10, 84, 64
11, 560400, Note_on_c, 10, 79, 60
11, 560880, Note_off_c, 10, 79, 64
11, 560880, Note_on_c, 10, 81, 60
11, 561360, Note_off_c, 10, 81, 64
11, 561360, Note_on_c, 10, 79, 60
11, 561840, Note_off_c, 10, 79, 64
11, 561840, Note_on_c, 10, 76, 60
11, 562320, Note_off_c, 10, 76, 64
11, 562320, Note_on_c, 10, 77, 60
11, 562800, Note_off_c, 10, 77, 64
11, 562800, Note_on_c, 10, 76, 60
11, 563280, Note_off_c, 10, 76, 64
11, 563280, Note_on_c, 10, 72, 60
11, 563760, Note_off_c, 10, 72, 64
11, 563760, Note_on_c, 10, 74, 60
11, 564240, Note_off_c, 10, 74, 64
11, 564240, Note_on_c, 10, 76, 60
11, 564720, Note_off_c, 10, 76, 64
11, 564720, Note_on_c, 10, 72, 63
11, 565120, Note_off_c, 10, 72, 64
11, 565200, Note_on_c, 10, 72, 66
11, 565680, Note_off_c, 10, 72, 64
11, 565680, Note_on_c, 10, 84, 69
11, 566160, Note_off_c, 10, 84, 64
11, 566160, Note_on_c, 10, 81, 72
11, 566640, Note_off_c, 10, 81, 64
11, 566640, Note_on_c, 10, 82, 75
11, 567120, Note_off_c, 10, 82, 64
11, 567120, Note_on_c, 10, 81, 78
11, 567600, Note_off_c, 10, 81, 64
11, 567600, Note_on_c, 10, 77, 81
11, 568080, Note_off_c, 10, 77, 64
11, 568080, Note_on_c, 10, 79, 84
11, 568560, Note_off_c, 10, 79, 64
11, 568560, Note_on_c, 10, 77, 88
11, 569040, Note_off_c, 10, 77, 64
11, 569040, Note_on_c, 10, 72, 92
11, 569520, Note_off_c, 10, 72, 64
11, 569520, Note_on_c, 10, 79, 96
11, 570000, Note_off_c, 10, 79, 64
11, 570000, Note_on_c, 10, 81, 100
11, 570480, Note_off_c, 10, 81, 64
11, 570480, Note_on_c, 10, 77, 104
11, 570880, Note_off_c, 10, 77, 64
11, 570960, Note_on_c, 10, 84, 108
11, 571080, Note_off_c, 10, 84, 64
11, 571440, Note_on_c, 10, 89, 108
11, 571560, Note_off_c, 10, 89, 64
11, 571920, Note_on_c, 10, 84, 108
11, 572040, Note_off_c, 10, 84, 64
11, 572400, Note_on_c, 10, 86, 108
11, 572520, Note_off_c, 10, 86, 64
11, 572880, Note_on_c, 10, 84, 108
11, 573000, Note_off_c, 10, 84, 64
11, 573360, Note_on_c, 10, 81, 108
11, 573480, Note_off_c, 10, 81, 64
11, 573840, Note_on_c, 10, 82, 108
11, 573960, Note_off_c, 10, 82, 64
11, 574320, Note_on_c, 10, 81, 108
11, 574440, Note_off_c, 10, 81, 64
11, 574800, Note_on_c, 10, 77, 108
11, 574920, Note_off_c, 10, 77, 64
11, 575280, Note_on_c, 10, 79, 108
11, 575400, Note_off_c, 10, 79, 64
11, 575760, Note_on_c, 10, 81, 108
11, 575880, Note_off_c, 10, 81, 64
11, 576240, Note_on_c, 10, 77, 108
11, 576360, Note_off_c, 10, 77, 64
11, 576720, Note_on_c, 10, 79, 108
11, 576840, Note_off_c, 10, 79, 64
11, 577200, Note_on_c, 10, 81, 108
11, 577320, Note_off_c, 10, 81, 64
11, 577680, Note_on_c, 10, 77, 108
11, 577800, Note_off_c, 10, 77, 64
11, 578160, Note_on_c, 10, 79, 108
11, 578280, Note_off_c, 10, 79, 64
11, 578640, Note_on_c, 10, 81, 108
11, 578760, Note_off_c, 10, 81, 64
11, 579120, Note_on_c, 10, 77, 108
11, 579240, Note_off_c, 10, 77, 64
11, 579600, Note_on_c, 10, 79, 108
11, 579720, Note_off_c, 10, 79, 64
11, 580080, Note_on_c, 10, 81, 108
11, 581400, Note_off_c, 10, 81, 64
11, 581520, Note_on_c, 10, 79, 108
11, 581580, Note_off_c, 10, 79, 64
11, 581580, Note_on_c, 10, 81, 108
11, 581640, Note_off_c, 10, 81, 64
11, 581640, Note_on_c, 10, 79, 108
11, 582400, Note_off_c, 10, 79, 64
11, 582480, Note_on_c, 10, 77, 108
11, 582880, Note_off_c, 10, 77, 64
11, 582960, Note_on_c, 10, 76, 108
11, 583020, Note_off_c, 10, 76, 64
11, 583020, Note_on_c, 10, 77, 108
11, 583080, Note_off_c, 10, 77, 64
11, 583080, Note_on_c, 10, 76, 108
11, 583840, Note_off_c, 10, 76, 64
11, 583920, Note_on_c, 10, 74, 108
11, 584320, Note_off_c, 10, 74, 64
11, 584400, Note_on_c, 10, 72, 108
11, 585240, Note_off_c, 10, 72, 64
11, 585360, Note_on_c, 10, 76, 108
11, 585760, Note_off_c, 10, 76, 64
11, 585840, Note_on_c, 10, 77, 108
11, 587160, Note_off_c, 10, 77, 64
11, 587280, Note_on_c, 10, 79, 108
11, 588600, Note_off_c, 10, 79, 64
11, 588720, Note_on_c, 10, 81, 108
11, 590040, Note_off_c, 10, 81, 64
11, 590160, Note_on_c, 10, 79, 108
11, 591480, Note_off_c, 10, 79, 64
11, 591600, Note_on_c, 10, 65, 108
11, 591600, Note_on_c, 10, 72, 108
11, 591600, Note_on_c, 10, 81, 108
11, 592000, Note_off_c, 10, 81, 64
11, 592000, Note_off_c, 10, 72, 64
11, 592000, Note_off_c, 10, 65, 64
11, 592560, Note_on_c, 10, 81, 108
11, 592960, Note_off_c, 10, 81, 64
11, 593040, Note_on_c, 10, 79, 108
11, 593100, Note_off_c, 10, 79, 64
11, 593100, Note_on_c, 10, 81, 108
11, 593160, Note_off_c, 10, 81, 64
11, 593160, Note_on_c, 10, 79, 108
11, 593920, Note_off_c, 10, 79, 64
11, 594000, Note_on_c, 10, 77, 108
11, 594400, Note_off_c, 10, 77, 64
11, 594480, Note_on_c, 10, 76, 108
11, 594540, Note_off_c, 10, 76, 64
11, 594540, Note_on_c, 10, 77, 108
11, 594600, Note_off_c, 10, 77, 64
11, 594600, Note_on_c, 10, 76, 108
11, 595360, Note_off_c, 10, 76, 64
11, 595440, Note_on_c, 10, 74, 108
11, 595840, Note_off_c, 10, 74, 64
11, 595920, Note_on_c, 10, 72, 108
11, 596760, Note_off_c, 10, 72, 64
11, 596880, Note_on_c, 10, 76, 108
11, 597280, Note_off_c, 10, 76, 64
11, 597360, Note_on_c, 10, 77, 108
11, 598680, Note_off_c, 10, 77, 64
11, 598800, Note_on_c, 10, 79, 108
11, 600120, Note_off_c, 10, 79, 64
11, 600240, Note_on_c, 10, 81, 108
11, 601560, Note_off_c, 10, 81, 64
11, 601680, Note_on_c, 10, 79, 108
11, 603000, Note_off_c, 10, 79, 64
11, 603120, Note_on_c, 10, 65, 92
11, 603120, Note_on_c, 10, 72, 92
11, 603120, Note_on_c, 10, 81, 92
11, 603520, Note_off_c, 10, 81, 64
11, 603520, Note_off_c, 10, 72, 64
11, 603520, Note_off_c, 10, 65, 64
11, 606000, Note_on_c, 10, 69, 108
11, 606080, Note_off_c, 10, 69, 64
11, 606240, Note_on_c, 10, 72, 108
11, 606320, Note_off_c, 10, 72, 64
11, 606480, Note_on_c, 10, 77, 108
11, 606560, Note_off_c, 10, 77, 64
11, 606720, Note_on_c, 10, 81, 108
11, 606800, Note_off_c, 10, 81, 64
11, 606960, Note_on_c, 10, 84, 108
11, 607360, Note_off_c, 10, 84, 64
11, 607440, Note_on_c, 10, 76, 92
11, 607840, Note_off_c, 10, 76, 64
11, 607920, Note_on_c, 10, 76, 92
11, 608320, Note_off_c, 10, 76, 64
11, 608400, Note_on_c, 10, 76, 92
11, 608800, Note_off_c, 10, 76, 64
11, 608880, Note_on_c, 10, 77, 92
11, 609280, Note_off_c, 10, 77, 64
11, 611760, Note_on_c, 10, 69, 108
11, 611840, Note_off_c, 10, 69, 64
11, 612000, Note_on_c, 10, 72, 108
11, 612080, Note_off_c, 10, 72, 64
11, 612240, Note_on_c, 10, 77, 108
11, 612320, Note_off_c, 10, 77, 64
11, 612480, Note_on_c, 10, 81, 108
11, 612560, Note_off_c, 10, 81, 64
11, 612720, Note_on_c, 10, 84, 108
11, 613120, Note_off_c, 10, 84, 64
11, 613200, Note_on_c, 10, 76, 92
11, 613600, Note_off_c, 10, 76, 64
11, 613680, Note_on_c, 10, 76, 92
11, 614080, Note_off_c, 10, 76, 64
11, 614160, Note_on_c, 10, 76, 92
11, 614560, Note_off_c, 10, 76, 64
11, 614640, Note_on_c, 10, 77, 92
11, 615040, Note_off_c, 10, 77, 64
11, 617520, Note_on_c, 10, 77, 92
11, 617920, Note_off_c, 10, 77, 64
11, 620400, Note_on_c, 10, 72, 92
11, 620520, Note_off_c, 10, 72, 64
11, 620880, Note_on_c, 10, 69, 92
11, 621000, Note_off_c, 10, 69, 64
11, 621360, Note_on_c, 10, 69, 92
11, 621480, Note_off_c, 10, 69, 64
11, 621840, Note_on_c, 10, 72, 92
11, 621960, Note_off_c, 10, 72, 64
11, 622320, Note_on_c, 10, 69, 89
11, 622440, Note_off_c, 10, 69, 64
11, 622800, Note_on_c, 10, 69, 86
11, 622920, Note_off_c, 10, 69, 64
11, 623280, Note_on_c, 10, 72, 83
11, 623400, Note_off_c, 10, 72, 64
11, 623760, Note_on_c, 10, 69, 80
11, 623880, Note_off_c, 10, 69, 64
11, 624240, Note_on_c, 10, 69, 76
11, 624360, Note_off_c, 10, 69, 64
11, 624720, Note_on_c, 10, 72, 72
11, 624840, Note_off_c, 10, 72, 64
11, 625200, Note_on_c, 10, 69, 68
11, 625320, Note_off_c, 10, 69, 64
11, 625680, Note_on_c, 10, 69, 64
11, 625800, Note_off_c, 10, 69, 64
11, 626160, Note_on_c, 10, 72, 60
11, 626280, Note_off_c, 10, 72, 64
11, 626640, Note_on_c, 10, 69, 60
11, 626760, Note_off_c, 10, 69, 64
11, 627120, Note_on_c, 10, 69, 60
11, 627240, Note_off_c, 10, 69, 64
11, 627600, Note_on_c, 10, 72, 60
11, 627720, Note_off_c, 10, 72, 64
11, 628080, Note_on_c, 10, 69, 60
11, 628200, Note_off_c, 10, 69, 64
11, 628560, Note_on_c, 10, 69, 60
11, 628680, Note_off_c, 10, 69, 64
11, 629040, Note_on_c, 10, 72, 60
11, 629160, Note_off_c, 10, 72, 64
11, 629520, Note_on_c, 10, 70, 60
11, 629640, Note_off_c, 10, 70, 64
11, 630000, Note_on_c, 10, 70, 60
11, 630120, Note_off_c, 10, 70, 64
11, 630480, Note_on_c, 10, 72, 60
11, 630600, Note_off_c, 10, 72, 64
11, 630960, Note_on_c, 10, 70, 60
11, 631080, Note_off_c, 10, 70, 64
11, 631440, Note_on_c, 10, 70, 60
11, 631560, Note_off_c, 10, 70, 64
11, 631920, Note_on_c, 10, 72, 60
11, 632040, Note_off_c, 10, 72, 64
11, 632400, Note_on_c, 10, 69, 60
11, 632520, Note_off_c, 10, 69, 64
11, 632880, Note_on_c, 10, 69, 60
11, 633000, Note_off_c, 10, 69, 64
11, 633360, Note_on_c, 10, 72, 60
11, 633480, Note_off_c, 10, 72, 64
11, 633840, Note_on_c, 10, 67, 60
11, 633960, Note_off_c, 10, 67, 64
11, 634320, Note_on_c, 10, 67, 60
11, 634440, Note_off_c, 10, 67, 64
11, 634800, Note_on_c, 10, 72, 60
11, 634920, Note_off_c, 10, 72, 64
11, 635280, Note_on_c, 10, 69, 60
11, 635400, Note_off_c, 10, 69, 64
11, 635760, Note_on_c, 10, 69, 60
11, 635880, Note_off_c, 10, 69, 64
11, 636240, Note_on_c, 10, 72, 60
11, 636360, Note_off_c, 10, 72, 64
11, 636720, Note_on_c, 10, 69, 60
11, 636840, Note_off_c, 10, 69, 64
11, 637200, Note_on_c, 10, 69, 60
11, 637320, Note_off_c, 10, 69, 64
11, 637680, Note_on_c, 10, 72, 60
11, 637800, Note_off_c, 10, 72, 64
11, 638160, Note_on_c, 10, 69, 60
11, 638280, Note_off_c, 10, 69, 64
11, 638640, Note_on_c, 10, 69, 60
11, 638760, Note_off_c, 10, 69, 64
11, 639120, Note_on_c, 10, 72, 60
11, 639240, Note_off_c, 10, 72, 64
11, 639600, Note_on_c, 10, 69, 60
11, 639720, Note_off_c, 10, 69, 64
11, 640080, Note_on_c, 10, 69, 60
11, 640200, Note_off_c, 10, 69, 64
11, 640560, Note_on_c, 10, 72, 60
11, 640680, Note_off_c, 10, 72, 64
11, 641040, Note_on_c, 10, 70, 60
11, 641160, Note_off_c, 10, 70, 64
11, 641520, Note_on_c, 10, 70, 60
11, 641640, Note_off_c, 10, 70, 64
11, 642000, Note_on_c, 10, 72, 60
11, 642120, Note_off_c, 10, 72, 64
11, 642480, Note_on_c, 10, 70, 60
11, 642600, Note_off_c, 10, 70, 64
11, 642960, Note_on_c, 10, 70, 60
11, 643080, Note_off_c, 10, 70, 64
11, 643440, Note_on_c, 10, 72, 60
11, 643560, Note_off_c, 10, 72, 64
11, 643920, Note_on_c, 10, 69, 60
11, 644040, Note_off_c, 10, 69, 64
11, 644400, Note_on_c, 10, 69, 60
11, 644520, Note_off_c, 10, 69, 64
11, 644880, Note_on_c, 10, 72, 60
11, 645000, Note_off_c, 10, 72, 64
11, 645360, Note_on_c, 10, 67, 60
11, 645480, Note_off_c, 10, 67, 64
11, 645840, Note_on_c, 10, 67, 60
11, 645960, Note_off_c, 10, 67, 64
11, 646320, Note_on_c, 10, 72, 60
11, 646440, Note_off_c, 10, 72, 64
11, 646800, Note_on_c, 10, 67, 60
11, 646920, Note_off_c, 10, 67, 64
11, 647280, Note_on_c, 10, 67, 60
11, 647400, Note_off_c, 10, 67, 64
11, 647760, Note_on_c, 10, 72, 60
11, 647880, Note_off_c, 10, 72, 64
11, 648240, Note_on_c, 10, 69, 60
11, 648360, Note_off_c, 10, 69, 64
11, 648720, Note_on_c, 10, 69, 60
11, 648840, Note_off_c, 10, 69, 64
11, 649200, Note_on_c, 10, 72, 60
11, 649320, Note_off_c, 10, 72, 64
11, 649680, Note_on_c, 10, 69, 60
11, 649800, Note_off_c, 10, 69, 64
11, 650160, Note_on_c, 10, 69, 60
11, 650280, Note_off_c, 10, 69, 64
11, 650640, Note_on_c, 10, 72, 60
11, 650760, Note_off_c, 10, 72, 64
11, 651120, Note_on_c, 10, 69, 60
11, 651240, Note_off_c, 10, 69, 64
11, 651600, Note_on_c, 10, 69, 60
11, 651720, Note_off_c, 10, 69, 64
11, 652080, Note_on_c, 10, 72, 60
11, 652200, Note_off_c, 10, 72, 64
11, 652560, Note_on_c, 10, 70, 60
11, 652680, Note_off_c, 10, 70, 64
11, 653040, Note_on_c, 10, 70, 60
11, 653160, Note_off_c, 10, 70, 64
11, 653520, Note_on_c, 10, 72, 60
11, 653640, Note_off_c, 10, 72, 64
11, 654000, Note_on_c, 10, 70, 60
11, 654120, Note_off_c, 10, 70, 64
11, 654480, Note_on_c, 10, 70, 60
11, 654600, Note_off_c, 10, 70, 64
11, 654960, Note_on_c, 10, 72, 60
11, 655080, Note_off_c, 10, 72, 64
11, 655440, Note_on_c, 10, 69, 60
11, 655560, Note_off_c, 10, 69, 64
11, 655920, Note_on_c, 10, 69, 60
11, 656040, Note_off_c, 10, 69, 64
11, 656400, Note_on_c, 10, 72, 60
11, 656520, Note_off_c, 10, 72, 64
11, 656880, Note_on_c, 10, 67, 60
11, 657000, Note_off_c, 10, 67, 64
11, 657360, Note_on_c, 10, 67, 60
11, 657480, Note_off_c, 10, 67, 64
11, 657840, Note_on_c, 10, 72, 60
11, 657960, Note_off_c, 10, 72, 64
11, 658320, Note_on_c, 10, 69, 60
11, 658440, Note_off_c, 10, 69, 64
11, 658800, Note_on_c, 10, 69, 60
11, 658920, Note_off_c, 10, 69, 64
11, 659280, Note_on_c, 10, 72, 60
11, 659400, Note_off_c, 10, 72, 64
11, 659760, Note_on_c, 10, 69, 60
11, 659880, Note_off_c, 10, 69, 64
11, 660240, Note_on_c, 10, 69, 60
11, 660360, Note_off_c, 10, 69, 64
11, 660720, Note_on_c, 10, 72, 60
11, 660840, Note_off_c, 10, 72, 64
11, 661200, Note_on_c, 10, 69, 60
11, 661320, Note_off_c, 10, 69, 64
11, 661680, Note_on_c, 10, 69, 60
11, 661800, Note_off_c, 10, 69, 64
11, 662160, Note_on_c, 10, 72, 60
11, 662280, Note_off_c, 10, 72, 64
11, 662640, Note_on_c, 10, 69, 60
11, 662760, Note_off_c, 10, 69, 64
11, 663120, Note_on_c, 10, 69, 60
11, 663240, Note_off_c, 10, 69, 64
11, 663600, Note_on_c, 10, 72, 60
11, 663720, Note_off_c, 10, 72, 64
11, 664080, Note_on_c, 10, 70, 60
11, 664200, Note_off_c, 10, 70, 64
11, 664560, Note_on_c, 10, 70, 60
11, 664680, Note_off_c, 10, 70, 64
11, 665040, Note_on_c, 10, 72, 60
11, 665160, Note_off_c, 10, 72, 64
11, 665520, Note_on_c, 10, 70, 60
11, 665640, Note_off_c, 10, 70, 64
11, 666000, Note_on_c, 10, 70, 60
11, 666120, Note_off_c, 10, 70, 64
11, 666480, Note_on_c, 10, 72, 60
11, 666600, Note_off_c, 10, 72, 64
11, 666960, Note_on_c, 10, 69, 60
11, 667080, Note_off_c, 10, 69, 64
11, 667440, Note_on_c, 10, 69, 60
11, 667560, Note_off_c, 10, 69, 64
11, 667920, Note_on_c, 10, 72, 60
11, 668040, Note_off_c, 10, 72, 64
11, 668400, Note_on_c, 10, 67, 60
11, 668520, Note_off_c, 10, 67, 64
11, 668880, Note_on_c, 10, 67, 60
11, 669000, Note_off_c, 10, 67, 64
11, 669360, Note_on_c, 10, 72, 60
11, 669480, Note_off_c, 10, 72, 64
11, 669840, Note_on_c, 10, 67, 60
11, 669960, Note_off_c, 10, 67, 64
11, 670320, Note_on_c, 10, 67, 60
11, 670440, Note_off_c, 10, 67, 64
11, 670800, Note_on_c, 10, 72, 60
11, 670920, Note_off_c, 10, 72, 64
11, 671280, Note_on_c, 10, 69, 60
11, 671400, Note_off_c, 10, 69, 64
11, 671760, Note_on_c, 10, 69, 60
11, 671880, Note_off_c, 10, 69, 64
11, 683760, Note_on_c, 10, 72, 75
11, 683880, Note_off_c, 10, 72, 64
11, 684240, Note_on_c, 10, 67, 75
11, 684360, Note_off_c, 10, 67, 64
11, 684720, Note_on_c, 10, 67, 75
11, 684840, Note_off_c, 10, 67, 64
11, 685200, Note_on_c, 10, 72, 75
11, 685320, Note_off_c, 10, 72, 64
11, 685680, Note_on_c, 10, 67, 75
11, 685800, Note_off_c, 10, 67, 64
11, 686160, Note_on_c, 10, 67, 75
11, 686280, Note_off_c, 10, 67, 64
11, 686640, Note_on_c, 10, 72, 75
11, 686760, Note_off_c, 10, 72, 64
11, 687120, Note_on_c, 10, 69, 73
11, 687240, Note_off_c, 10, 69, 64
11, 687600, Note_on_c, 10, 69, 71
11, 687720, Note_off_c, 10, 69, 64
11, 688080, Note_on_c, 10, 72, 69
11, 688200, Note_off_c, 10, 72, 64
11, 688560, Note_on_c, 10, 69, 66
11, 688680, Note_off_c, 10, 69, 64
11, 689040, Note_on_c, 10, 69, 63
11, 689160, Note_off_c, 10, 69, 64
11, 689520, Note_on_c, 10, 72, 60
11, 689640, Note_off_c, 10, 72, 64
11, 690000, Note_on_c, 10, 70, 60
11, 690120, Note_off_c, 10, 70, 64
11, 690480, Note_on_c, 10, 70, 60
11, 690600, Note_off_c, 10, 70, 64
11, 690960, Note_on_c, 10, 72, 60
11, 691080, Note_off_c, 10, 72, 64
11, 691440, Note_on_c, 10, 70, 60
11, 691560, Note_off_c, 10, 70, 64
11, 691920, Note_on_c, 10, 70, 60
11, 692040, Note_off_c, 10, 70, 64
11, 692400, Note_on_c, 10, 72, 60
11, 692520, Note_off_c, 10, 72, 64
11, 692880, Note_on_c, 10, 69, 60
11, 693000, Note_off_c, 10, 69, 64
11, 693360, Note_on_c, 10, 69, 60
11, 693480, Note_off_c, 10, 69, 64
11, 693840, Note_on_c, 10, 72, 60
11, 693960, Note_off_c, 10, 72, 64
11, 694320, Note_on_c, 10, 67, 60
11, 694440, Note_off_c, 10, 67, 64
11, 694800, Note_on_c, 10, 67, 60
11, 694920, Note_off_c, 10, 67, 64
11, 695280, Note_on_c, 10, 72, 60
11, 695400, Note_off_c, 10, 72, 64
11, 695760, Note_on_c, 10, 69, 60
11, 695880, Note_off_c, 10, 69, 64
11, 696240, Note_on_c, 10, 69, 60
11, 696360, Note_off_c, 10, 69, 64
11, 696720, Note_on_c, 10, 72, 60
11, 696840, Note_off_c, 10, 72, 64
11, 697200, Note_on_c, 10, 69, 60
11, 697320, Note_off_c, 10, 69, 64
11, 697680, Note_on_c, 10, 69, 60
11, 697800, Note_off_c, 10, 69, 64
11, 698160, Note_on_c, 10, 72, 60
11, 698280, Note_off_c, 10, 72, 64
11, 698640, Note_on_c, 10, 69, 60
11, 698760, Note_off_c, 10, 69, 64
11, 699120, Note_on_c, 10, 69, 60
11, 699240, Note_off_c, 10, 69, 64
11, 699600, Note_on_c, 10, 72, 60
11, 699720, Note_off_c, 10, 72, 64
11, 700080, Note_on_c, 10, 69, 60
11, 700200, Note_off_c, 10, 69, 64
11, 700560, Note_on_c, 10, 69, 60
11, 700680, Note_off_c, 10, 69, 64
11, 701040, Note_on_c, 10, 72, 60
11, 701160, Note_off_c, 10, 72, 64
11, 701520, Note_on_c, 10, 64, 60
11, 701640, Note_off_c, 10, 64, 64
11, 702000, Note_on_c, 10, 64, 60
11, 702120, Note_off_c, 10, 64, 64
11, 702480, Note_on_c, 10, 72, 60
11, 702600, Note_off_c, 10, 72, 64
11, 702960, Note_on_c, 10, 67, 60
11, 703080, Note_off_c, 10, 67, 64
11, 703440, Note_on_c, 10, 67, 60
11, 703560, Note_off_c, 10, 67, 64
11, 703920, Note_on_c, 10, 72, 60
11, 704040, Note_off_c, 10, 72, 64
11, 704400, Note_on_c, 10, 69, 60
11, 704520, Note_off_c, 10, 69, 64
11, 704880, Note_on_c, 10, 69, 60
11, 705000, Note_off_c, 10, 69, 64
11, 705360, Note_on_c, 10, 72, 60
11, 705480, Note_off_c, 10, 72, 64
11, 705840, Note_on_c, 10, 69, 60
11, 705960, Note_off_c, 10, 69, 64
11, 706320, Note_on_c, 10, 69, 60
11, 706440, Note_off_c, 10, 69, 64
11, 706800, Note_on_c, 10, 72, 60
11, 706920, Note_off_c, 10, 72, 64
11, 707280, Note_on_c, 10, 67, 60
11, 707400, Note_off_c, 10, 67, 64
11, 707760, Note_on_c, 10, 67, 60
11, 707880, Note_off_c, 10, 67, 64
11, 708240, Note_on_c, 10, 72, 60
11, 708360, Note_off_c, 10, 72, 64
11, 708720, Note_on_c, 10, 67, 61
11, 708840, Note_off_c, 10, 67, 64
11, 709200, Note_on_c, 10, 67, 62
11, 709320, Note_off_c, 10, 67, 64
11, 709680, Note_on_c, 10, 72, 63
11, 709800, Note_off_c, 10, 72, 64
11, 710160, Note_on_c, 10, 69, 64
11, 710280, Note_off_c, 10, 69, 64
11, 710640, Note_on_c, 10, 69, 65
11, 710760, Note_off_c, 10, 69, 64
11, 711120, Note_on_c, 10, 72, 66
11, 711240, Note_off_c, 10, 72, 64
11, 711600, Note_on_c, 10, 69, 67
11, 711720, Note_off_c, 10, 69, 64
11, 712080, Note_on_c, 10, 69, 68
11, 712200, Note_off_c, 10, 69, 64
11, 712560, Note_on_c, 10, 72, 69
11, 712680, Note_off_c, 10, 72, 64
11, 713040, Note_on_c, 10, 67, 70
11, 713160, Note_off_c, 10, 67, 64
11, 713520, Note_on_c, 10, 67, 71
11, 713640, Note_off_c, 10, 67, 64
11, 714000, Note_on_c, 10, 72, 72
11, 714120, Note_off_c, 10, 72, 64
11, 714480, Note_on_c, 10, 67, 73
11, 714600, Note_off_c, 10, 67, 64
11, 714960, Note_on_c, 10, 67, 74
11, 715080, Note_off_c, 10, 67, 64
11, 715440, Note_on_c, 10, 77, 75
11, 718200, Note_off_c, 10, 77, 64
11, 718320, Note_on_c, 10, 76, 75
11, 721080, Note_off_c, 10, 76, 64
11, 721200, Note_on_c, 10, 77, 75
11, 723960, Note_off_c, 10, 77, 64
11, 724080, Note_on_c, 10, 76, 83
11, 726840, Note_off_c, 10, 76, 64
11, 726960, Note_on_c, 10, 77, 92
11, 727360, Note_off_c, 10, 77, 64
11, 732720, Note_on_c, 10, 65, 127
11, 732960, Note_off_c, 10, 65, 64
11, 732960, Note_on_c, 10, 67, 108
11, 733080, Note_off_c, 10, 67, 64
11, 733080, Note_on_c, 10, 65, 108
11, 733200, Note_off_c, 10, 65, 64
11, 733200, Note_on_c, 10, 60, 108
11, 733440, Note_off_c, 10, 60, 64
11, 733440, Note_on_c, 10, 62, 108
11, 733560, Note_off_c, 10, 62, 64
11, 733560, Note_on_c, 10, 64, 108
11, 733675, Note_off_c, 10, 64, 64
11, 733680, Note_on_c, 10, 65, 127
11, 733920, Note_off_c, 10, 65, 64
11, 733920, Note_on_c, 10, 67, 108
11, 734040, Note_off_c, 10, 67, 64
11, 734040, Note_on_c, 10, 65, 108
11, 734155, Note_off_c, 10, 65, 64
11, 734160, Note_on_c, 10, 60, 108
11, 734560, Note_off_c, 10, 60, 64
11, 734640, Note_on_c, 10, 58, 127
11, 734760, Note_off_c, 10, 58, 64
11, 734760, Note_on_c, 10, 60, 108
11, 734880, Note_off_c, 10, 60, 64
11, 734880, Note_on_c, 10, 62, 108
11, 735000, Note_off_c, 10, 62, 64
11, 735000, Note_on_c, 10, 63, 108
11, 735115, Note_off_c, 10, 63, 64
11, 735120, Note_on_c, 10, 65, 108
11, 735200, Note_off_c, 10, 65, 64
11, 735360, Note_on_c, 10, 65, 108
11, 735420, Note_off_c, 10, 65, 64
11, 735420, Note_on_c, 10, 67, 108
11, 735595, Note_off_c, 10, 67, 64
11, 735600, Note_on_c, 10, 60, 127
11, 735680, Note_off_c, 10, 60, 64
11, 735840, Note_on_c, 10, 60, 108
11, 735900, Note_off_c, 10, 60, 64
11, 735900, Note_on_c, 10, 65, 108
11, 736075, Note_off_c, 10, 65, 64
11, 736080, Note_on_c, 10, 58, 108
11, 736480, Note_off_c, 10, 58, 64
11, 736560, Note_on_c, 10, 65, 127
11, 736800, Note_off_c, 10, 65, 64
11, 736800, Note_on_c, 10, 67, 108
11, 736920, Note_off_c, 10, 67, 64
11, 736920, Note_on_c, 10, 65, 108
11, 737040, Note_off_c, 10, 65, 64
11, 737040, Note_on_c, 10, 60, 108
11, 737280, Note_off_c, 10, 60, 64
11, 737280, Note_on_c, 10, 62, 108
11, 737400, Note_off_c, 10, 62, 64
11, 737400, Note_on_c, 10, 64, 108
11, 737515, Note_off_c, 10, 64, 64
11, 737520, Note_on_c, 10, 65, 127
11, 737760, Note_off_c, 10, 65, 64
11, 737760, Note_on_c, 10, 67, 108
11, 737880, Note_off_c, 10, 67, 64
11, 737880, Note_on_c, 10, 65, 108
11, 737995, Note_off_c, 10, 65, 64
11, 738000, Note_on_c, 10, 60, 108
11, 738400, Note_off_c, 10, 60, 64
11, 738480, Note_on_c, 10, 58, 127
11, 738600, Note_off_c, 10, 58, 64
11, 738600, Note_on_c, 10, 60, 108
11, 738720, Note_off_c, 10, 60, 64
11, 738720, Note_on_c, 10, 62, 108
11, 738840, Note_off_c, 10, 62, 64
11, 738840, Note_on_c, 10, 63, 108
11, 738955, Note_off_c, 10, 63, 64
11, 738960, Note_on_c, 10, 65, 108
11, 739040, Note_off_c, 10, 65, 64
11, 739200, Note_on_c, 10, 65, 108
11, 739260, Note_off_c, 10, 65, 64
11, 739260, Note_on_c, 10, 67, 108
11, 739435, Note_off_c, 10, 67, 64
11, 739440, Note_on_c, 10, 60, 127
11, 739520, Note_off_c, 10, 60, 64
11, 739680, Note_on_c, 10, 60, 108
11, 739740, Note_off_c, 10, 60, 64
11, 739740, Note_on_c, 10, 65, 108
11, 739915, Note_off_c, 10, 65, 64
11, 739920, Note_on_c, 10, 58, 108
11, 740320, Note_off_c, 10, 58, 64
11, 740400, Note_on_c, 10, 65, 127
11, 740640, Note_off_c, 10, 65, 64
11, 740640, Note_on_c, 10, 67, 108
11, 740760, Note_off_c, 10, 67, 64
11, 740760, Note_on_c, 10, 65, 108
11, 740880, Note_off_c, 10, 65, 64
11, 740880, Note_on_c, 10, 60, 108
11, 741120, Note_off_c, 10, 60, 64
11, 741120, Note_on_c, 10, 62, 108
11, 741240, Note_off_c, 10, 62, 64
11, 741240, Note_on_c, 10, 64, 108
11, 741355, Note_off_c, 10, 64, 64
11, 741360, Note_on_c, 10, 65, 127
11, 741600, Note_off_c, 10, 65, 64
11, 741600, Note_on_c, 10, 67, 108
11, 741720, Note_off_c, 10, 67, 64
11, 741720, Note_on_c, 10, 65, 108
11, 741835, Note_off_c, 10, 65, 64
11, 741840, Note_on_c, 10, 60, 108
11, 742240, Note_off_c, 10, 60, 64
11, 742320, Note_on_c, 10, 58, 127
11, 742440, Note_off_c, 10, 58, 64
11, 742440, Note_on_c, 10, 60, 108
11, 742560, Note_off_c, 10, 60, 64
11, 742560, Note_on_c, 10, 62, 108
11, 742680, Note_off_c, 10, 62, 64
11, 742680, Note_on_c, 10, 63, 108
11, 742795, Note_off_c, 10, 63, 64
11, 742800, Note_on_c, 10, 65, 108
11, 742880, Note_off_c, 10, 65, 64
11, 743040, Note_on_c, 10, 65, 108
11, 743100, Note_off_c, 10, 65, 64
11, 743100, Note_on_c, 10, 67, 108
11, 743275, Note_off_c, 10, 67, 64
11, 743280, Note_on_c, 10, 60, 127
11, 743360, Note_off_c, 10, 60, 64
11, 743520, Note_on_c, 10, 60, 108
11, 743580, Note_off_c, 10, 60, 64
11, 743580, Note_on_c, 10, 65, 108
11, 743755, Note_off_c, 10, 65, 64
11, 743760, Note_on_c, 10, 58, 108
11, 744160, Note_off_c, 10, 58, 64
11, 744240, Note_on_c, 10, 65, 127
11, 744480, Note_off_c, 10, 65, 64
11, 744480, Note_on_c, 10, 67, 108
11, 744600, Note_off_c, 10, 67, 64
11, 744600, Note_on_c, 10, 65, 108
11, 744720, Note_off_c, 10, 65, 64
11, 744720, Note_on_c, 10, 60, 108
11, 744960, Note_off_c, 10, 60, 64
11, 744960, Note_on_c, 10, 62, 108
11, 745080, Note_off_c, 10, 62, 64
11, 745080, Note_on_c, 10, 64, 108
11, 745195, Note_off_c, 10, 64, 64
11, 745200, Note_on_c, 10, 65, 127
11, 745440, Note_off_c, 10, 65, 64
11, 745440, Note_on_c, 10, 67, 108
11, 745560, Note_off_c, 10, 67, 64
11, 745560, Note_on_c, 10, 65, 108
11, 745675, Note_off_c, 10, 65, 64
11, 745680, Note_on_c, 10, 60, 108
11, 746080, Note_off_c, 10, 60, 64
11, 746160, Note_on_c, 10, 58, 127
11, 746280, Note_off_c, 10, 58, 64
11, 746280, Note_on_c, 10, 60, 108
11, 746400, Note_off_c, 10, 60, 64
11, 746400, Note_on_c, 10, 62, 108
11, 746520, Note_off_c, 10, 62, 64
11, 746520, Note_on_c, 10, 63, 108
11, 746635, Note_off_c, 10, 63, 64
11, 746640, Note_on_c, 10, 65, 108
11, 746720, Note_off_c, 10, 65, 64
11, 746880, Note_on_c, 10, 65, 108
11, 746940, Note_off_c, 10, 65, 64
11, 746940, Note_on_c, 10, 67, 108
11, 747115, Note_off_c, 10, 67, 64
11, 747120, Note_on_c, 10, 60, 127
11, 747200, Note_off_c, 10, 60, 64
11, 747360, Note_on_c, 10, 60, 108
11, 747420, Note_off_c, 10, 60, 64
11, 747420, Note_on_c, 10, 65, 108
11, 747595, Note_off_c, 10, 65, 64
11, 747600, Note_on_c, 10, 58, 108
11, 748000, Note_off_c, 10, 58, 64
11, 748080, Note_on_c, 10, 72, 108
11, 748560, Note_off_c, 10, 72, 64
11, 748560, Note_on_c, 10, 77, 108
11, 748960, Note_off_c, 10, 77, 64
11, 749040, Note_on_c, 10, 76, 108
11, 749520, Note_off_c, 10, 76, 64
11, 749520, Note_on_c, 10, 82, 108
11, 749920, Note_off_c, 10, 82, 64
11, 750000, Note_on_c, 10, 81, 108
11, 750480, Note_off_c, 10, 81, 64
11, 750480, Note_on_c, 10, 77, 108
11, 750880, Note_off_c, 10, 77, 64
11, 750960, Note_on_c, 10, 76, 108
11, 751440, Note_off_c, 10, 76, 64
11, 751440, Note_on_c, 10, 77, 108
11, 751840, Note_off_c, 10, 77, 64
11, 751920, Note_on_c, 10, 72, 108
11, 752400, Note_off_c, 10, 72, 64
11, 752400, Note_on_c, 10, 77, 108
11, 752800, Note_off_c, 10, 77, 64
11, 752880, Note_on_c, 10, 76, 108
11, 753360, Note_off_c, 10, 76, 64
11, 753360, Note_on_c, 10, 82, 108
11, 753760, Note_off_c, 10, 82, 64
11, 753840, Note_on_c, 10, 81, 108
11, 754320, Note_off_c, 10, 81, 64
11, 754320, Note_on_c, 10, 77, 108
11, 754720, Note_off_c, 10, 77, 64
11, 754800, Note_on_c, 10, 76, 108
11, 755280, Note_off_c, 10, 76, 64
11, 755280, Note_on_c, 10, 77, 108
11, 755680, Note_off_c, 10, 77, 64
11, 755760, Note_on_c, 10, 72, 108
11, 756240, Note_off_c, 10, 72, 64
11, 756240, Note_on_c, 10, 77, 108
11, 756720, Note_off_c, 10, 77, 64
11, 756720, Note_on_c, 10, 76, 108
11, 757360, Note_off_c, 10, 76, 64
11, 757440, Note_on_c, 10, 81, 108
11, 757675, Note_off_c, 10, 81, 64
11, 757680, Note_on_c, 10, 81, 108
11, 757740, Note_off_c, 10, 81, 64
11, 757740, Note_on_c, 10, 79, 108
11, 757800, Note_off_c, 10, 79, 64
11, 757800, Note_on_c, 10, 77, 108
11, 757860, Note_off_c, 10, 77, 64
11, 757860, Note_on_c, 10, 79, 108
11, 757915, Note_off_c, 10, 79, 64
11, 758160, Note_on_c, 10, 79, 108
11, 758220, Note_off_c, 10, 79, 64
11, 758220, Note_on_c, 10, 77, 108
11, 758280, Note_off_c, 10, 77, 64
11, 758280, Note_on_c, 10, 76, 108
11, 758340, Note_off_c, 10, 76, 64
11, 758340, Note_on_c, 10, 77, 108
11, 758395, Note_off_c, 10, 77, 64
11, 758640, Note_on_c, 10, 77, 108
11, 758700, Note_off_c, 10, 77, 64
11, 758700, Note_on_c, 10, 76, 108
11, 758760, Note_off_c, 10, 76, 64
11, 758760, Note_on_c, 10, 74, 108
11, 758820, Note_off_c, 10, 74, 64
11, 758820, Note_on_c, 10, 76, 108
11, 758875, Note_off_c, 10, 76, 64
11, 759120, Note_on_c, 10, 76, 108
11, 759180, Note_off_c, 10, 76, 64
11, 759180, Note_on_c, 10, 74, 108
11, 759240, Note_off_c, 10, 74, 64
11, 759240, Note_on_c, 10, 72, 108
11, 759300, Note_off_c, 10, 72, 64
11, 759300, Note_on_c, 10, 74, 108
11, 759355, Note_off_c, 10, 74, 64
11, 759600, Note_on_c, 10, 72, 108
11, 759835, Note_off_c, 10, 72, 64
11, 759840, Note_on_c, 10, 72, 108
11, 760075, Note_off_c, 10, 72, 64
11, 760080, Note_on_c, 10, 77, 108
11, 760315, Note_off_c, 10, 77, 64
11, 760320, Note_on_c, 10, 77, 108
11, 760555, Note_off_c, 10, 77, 64
11, 760560, Note_on_c, 10, 76, 108
11, 760795, Note_off_c, 10, 76, 64
11, 760800, Note_on_c, 10, 76, 108
11, 761035, Note_off_c, 10, 76, 64
11, 761280, Note_on_c, 10, 81, 108
11, 761515, Note_off_c, 10, 81, 64
11, 761760, Note_on_c, 10, 79, 108
11, 761995, Note_off_c, 10, 79, 64
11, 762240, Note_on_c, 10, 77, 108
11, 762475, Note_off_c, 10, 77, 64
11, 762720, Note_on_c, 10, 76, 108
11, 762955, Note_off_c, 10, 76, 64
11, 763200, Note_on_c, 10, 74, 108
11, 763435, Note_off_c, 10, 74, 64
11, 763440, Note_on_c, 10, 72, 108
11, 764080, Note_off_c, 10, 72, 64
11, 764160, Note_on_c, 10, 76, 108
11, 764395, Note_off_c, 10, 76, 64
11, 764400, Note_on_c, 10, 76, 108
11, 765040, Note_off_c, 10, 76, 64
11, 765120, Note_on_c, 10, 72, 108
11, 765355, Note_off_c, 10, 72, 64
11, 765360, Note_on_c, 10, 72, 108
11, 766000, Note_off_c, 10, 72, 64
11, 766080, Note_on_c, 10, 79, 108
11, 766315, Note_off_c, 10, 79, 64
11, 766320, Note_on_c, 10, 79, 108
11, 766960, Note_off_c, 10, 79, 64
11, 767040, Note_on_c, 10, 72, 108
11, 767275, Note_off_c, 10, 72, 64
11, 767280, Note_on_c, 10, 72, 108
11, 767515, Note_off_c, 10, 72, 64
11, 767520, Note_on_c, 10, 84, 108
11, 767755, Note_off_c, 10, 84, 64
11, 767760, Note_on_c, 10, 84, 108
11, 767995, Note_off_c, 10, 84, 64
11, 768000, Note_on_c, 10, 76, 108
11, 768235, Note_off_c, 10, 76, 64
11, 768240, Note_on_c, 10, 76, 108
11, 768475, Note_off_c, 10, 76, 64
11, 768480, Note_on_c, 10, 88, 108
11, 768715, Note_off_c, 10, 88, 64
11, 768720, Note_on_c, 10, 88, 108
11, 768955, Note_off_c, 10, 88, 64
11, 768960, Note_on_c, 10, 76, 108
11, 769195, Note_off_c, 10, 76, 64
11, 769200, Note_on_c, 10, 76, 108
11, 770040, Note_off_c, 10, 76, 64
11, 770160, Note_on_c, 10, 72, 108
11, 770875, Note_off_c, 10, 72, 64
11, 772560, Note_on_c, 10, 72, 60
11, 772680, Note_off_c, 10, 72, 64
11, 773040, Note_on_c, 10, 77, 60
11, 773160, Note_off_c, 10, 77, 64
11, 773520, Note_on_c, 10, 72, 60
11, 773640, Note_off_c, 10, 72, 64
11, 774000, Note_on_c, 10, 74, 60
11, 774120, Note_off_c, 10, 74, 64
11, 774480, Note_on_c, 10, 72, 60
11, 774600, Note_off_c, 10, 72, 64
11, 774960, Note_on_c, 10, 69, 60
11, 775080, Note_off_c, 10, 69, 64
11, 775440, Note_on_c, 10, 70, 60
11, 775560, Note_off_c, 10, 70, 64
11, 775920, Note_on_c, 10, 69, 60
11, 776040, Note_off_c, 10, 69, 64
11, 776400, Note_on_c, 10, 65, 60
11, 776520, Note_off_c, 10, 65, 64
11, 776880, Note_on_c, 10, 67, 60
11, 777000, Note_off_c, 10, 67, 64
11, 777360, Note_on_c, 10, 69, 60
11, 777480, Note_off_c, 10, 69, 64
11, 777840, Note_on_c, 10, 65, 60
11, 777960, Note_off_c, 10, 65, 64
11, 778320, Note_on_c, 10, 67, 60
11, 778440, Note_off_c, 10, 67, 64
11, 778800, Note_on_c, 10, 69, 60
11, 778920, Note_off_c, 10, 69, 64
11, 779280, Note_on_c, 10, 65, 60
11, 779400, Note_off_c, 10, 65, 64
11, 779760, Note_on_c, 10, 67, 60
11, 779880, Note_off_c, 10, 67, 64
11, 780240, Note_on_c, 10, 65, 60
11, 780360, Note_off_c, 10, 65, 64
11, 780720, Note_on_c, 10, 62, 60
11, 780840, Note_off_c, 10, 62, 64
11, 781200, Note_on_c, 10, 64, 60
11, 781320, Note_off_c, 10, 64, 64
11, 781680, Note_on_c, 10, 62, 60
11, 781800, Note_off_c, 10, 62, 64
11, 782160, Note_on_c, 10, 57, 60
11, 782280, Note_off_c, 10, 57, 64
11, 782640, Note_on_c, 10, 57, 60
11, 782760, Note_off_c, 10, 57, 64
11, 783120, Note_on_c, 10, 57, 60
11, 783240, Note_off_c, 10, 57, 64
11, 784080, Note_on_c, 10, 69, 60
11, 784560, Note_off_c, 10, 69, 64
11, 784560, Note_on_c, 10, 74, 60
11, 785520, Note_off_c, 10, 74, 64
11, 785520, Note_on_c, 10, 78, 60
11, 786000, Note_off_c, 10, 78, 64
11, 786000, Note_on_c, 10, 81, 60
11, 786480, Note_off_c, 10, 81, 64
11, 786480, Note_on_c, 10, 78, 60
11, 786880, Note_off_c, 10, 78, 64
11, 786960, Note_on_c, 10, 78, 60
11, 787440, Note_off_c, 10, 78, 64
11, 787440, Note_on_c, 10, 81, 60
11, 787920, Note_off_c, 10, 81, 64
11, 787920, Note_on_c, 10, 85, 60
11, 788400, Note_off_c, 10, 85, 64
11, 788400, Note_on_c, 10, 86, 60
11, 788640, Note_off_c, 10, 86, 64
11, 788640, Note_on_c, 10, 83, 60
11, 788880, Note_off_c, 10, 83, 64
11, 788880, Note_on_c, 10, 81, 60
11, 789720, Note_off_c, 10, 81, 64
11, 789840, Note_on_c, 10, 85, 60
11, 790320, Note_off_c, 10, 85, 64
11, 790320, Note_on_c, 10, 86, 60
11, 790800, Note_off_c, 10, 86, 64
11, 790800, Note_on_c, 10, 81, 60
11, 791280, Note_off_c, 10, 81, 64
11, 791280, Note_on_c, 10, 83, 60
11, 791680, Note_off_c, 10, 83, 64
11, 791760, Note_on_c, 10, 81, 60
11, 792240, Note_off_c, 10, 81, 64
11, 792240, Note_on_c, 10, 78, 60
11, 792720, Note_off_c, 10, 78, 64
11, 792720, Note_on_c, 10, 79, 60
11, 793200, Note_off_c, 10, 79, 64
11, 793200, Note_on_c, 10, 78, 60
11, 793680, Note_off_c, 10, 78, 64
11, 793680, Note_on_c, 10, 74, 60
11, 794160, Note_off_c, 10, 74, 64
11, 794160, Note_on_c, 10, 78, 60
11, 794400, Note_off_c, 10, 78, 64
11, 794400, Note_on_c, 10, 76, 60
11, 794640, Note_off_c, 10, 76, 64
11, 794640, Note_on_c, 10, 74, 60
11, 795040, Note_off_c, 10, 74, 64
11, 795600, Note_on_c, 10, 72, 60
11, 795720, Note_off_c, 10, 72, 64
11, 796080, Note_on_c, 10, 77, 60
11, 796200, Note_off_c, 10, 77, 64
11, 796560, Note_on_c, 10, 72, 60
11, 796680, Note_off_c, 10, 72, 64
11, 797040, Note_on_c, 10, 74, 60
11, 797160, Note_off_c, 10, 74, 64
11, 797520, Note_on_c, 10, 72, 60
11, 797640, Note_off_c, 10, 72, 64
11, 798000, Note_on_c, 10, 69, 60
11, 798120, Note_off_c, 10, 69, 64
11, 798480, Note_on_c, 10, 70, 60
11, 798600, Note_off_c, 10, 70, 64
11, 798960, Note_on_c, 10, 69, 60
11, 799080, Note_off_c, 10, 69, 64
11, 799440, Note_on_c, 10, 65, 60
11, 799560, Note_off_c, 10, 65, 64
11, 799920, Note_on_c, 10, 67, 60
11, 800040, Note_off_c, 10, 67, 64
11, 800400, Note_on_c, 10, 69, 60
11, 800520, Note_off_c, 10, 69, 64
11, 800880, Note_on_c, 10, 65, 60
11, 801000, Note_off_c, 10, 65, 64
11, 801360, Note_on_c, 10, 67, 60
11, 801480, Note_off_c, 10, 67, 64
11, 801840, Note_on_c, 10, 69, 60
11, 801960, Note_off_c, 10, 69, 64
11, 802320, Note_on_c, 10, 65, 60
11, 802440, Note_off_c, 10, 65, 64
11, 802800, Note_on_c, 10, 67, 60
11, 802920, Note_off_c, 10, 67, 64
11, 803280, Note_on_c, 10, 65, 60
11, 803400, Note_off_c, 10, 65, 64
11, 803760, Note_on_c, 10, 62, 60
11, 803880, Note_off_c, 10, 62, 64
11, 804240, Note_on_c, 10, 64, 60
11, 804360, Note_off_c, 10, 64, 64
11, 804720, Note_on_c, 10, 62, 60
11, 804840, Note_off_c, 10, 62, 64
11, 805200, Note_on_c, 10, 57, 60
11, 805320, Note_off_c, 10, 57, 64
11, 805680, Note_on_c, 10, 57, 60
11, 805800, Note_off_c, 10, 57, 64
11, 806160, Note_on_c, 10, 57, 60
11, 806280, Note_off_c, 10, 57, 64
11, 807120, Note_on_c, 10, 69, 60
11, 807600, Note_off_c, 10, 69, 64
11, 807600, Note_on_c, 10, 74, 60
11, 808560, Note_off_c, 10, 74, 64
11, 808560, Note_on_c, 10, 78, 60
11, 809040, Note_off_c, 10, 78, 64
11, 809040, Note_on_c, 10, 81, 60
11, 809520, Note_off_c, 10, 81, 64
11, 809520, Note_on_c, 10, 78, 60
11, 809920, Note_off_c, 10, 78, 64
11, 810000, Note_on_c, 10, 78, 60
11, 810480, Note_off_c, 10, 78, 64
11, 810480, Note_on_c, 10, 81, 60
11, 810960, Note_off_c, 10, 81, 64
11, 810960, Note_on_c, 10, 85, 60
11, 811440, Note_off_c, 10, 85, 64
11, 811440, Note_on_c, 10, 86, 60
11, 811680, Note_off_c, 10, 86, 64
11, 811680, Note_on_c, 10, 83, 60
11, 811920, Note_off_c, 10, 83, 64
11, 811920, Note_on_c, 10, 81, 60
11, 812760, Note_off_c, 10, 81, 64
11, 812880, Note_on_c, 10, 85, 60
11, 813360, Note_off_c, 10, 85, 64
11, 813360, Note_on_c, 10, 86, 60
11, 813840, Note_off_c, 10, 86, 64
11, 813840, Note_on_c, 10, 81, 60
11, 814320, Note_off_c, 10, 81, 64
11, 814320, Note_on_c, 10, 83, 60
11, 814720, Note_off_c, 10, 83, 64
11, 814800, Note_on_c, 10, 81, 60
11, 815280, Note_off_c, 10, 81, 64
11, 815280, Note_on_c, 10, 78, 60
11, 815760, Note_off_c, 10, 78, 64
11, 815760, Note_on_c, 10, 79, 60
11, 816240, Note_off_c, 10, 79, 64
11, 816240, Note_on_c, 10, 78, 60
11, 816720, Note_off_c, 10, 78, 64
11, 816720, Note_on_c, 10, 74, 60
11, 817200, Note_off_c, 10, 74, 64
11, 817200, Note_on_c, 10, 78, 60
11, 817440, Note_off_c, 10, 78, 64
11, 817440, Note_on_c, 10, 76, 60
11, 817680, Note_off_c, 10, 76, 64
11, 817680, Note_on_c, 10, 74, 60
11, 818080, Note_off_c, 10, 74, 64
11, 818640, Note_on_c, 10, 81, 60
11, 818760, Note_off_c, 10, 81, 64
11, 819120, Note_on_c, 10, 86, 60
11, 819240, Note_off_c, 10, 86, 64
11, 819600, Note_on_c, 10, 81, 60
11, 819720, Note_off_c, 10, 81, 64
11, 820080, Note_on_c, 10, 83, 60
11, 820200, Note_off_c, 10, 83, 64
11, 820560, Note_on_c, 10, 81, 60
11, 820680, Note_off_c, 10, 81, 64
11, 821040, Note_on_c, 10, 78, 60
11, 821160, Note_off_c, 10, 78, 64
11, 821520, Note_on_c, 10, 79, 60
11, 821640, Note_off_c, 10, 79, 64
11, 822000, Note_on_c, 10, 78, 60
11, 822120, Note_off_c, 10, 78, 64
11, 822480, Note_on_c, 10, 74, 60
11, 822600, Note_off_c, 10, 74, 64
11, 822960, Note_on_c, 10, 76, 60
11, 823080, Note_off_c, 10, 76, 64
11, 823440, Note_on_c, 10, 78, 60
11, 823560, Note_off_c, 10, 78, 64
11, 823920, Note_on_c, 10, 74, 60
11, 824040, Note_off_c, 10, 74, 64
11, 824400, Note_on_c, 10, 74, 60
11, 824520, Note_off_c, 10, 74, 64
11, 824880, Note_on_c, 10, 79, 60
11, 825000, Note_off_c, 10, 79, 64
11, 825360, Note_on_c, 10, 74, 60
11, 825480, Note_off_c, 10, 74, 64
11, 825840, Note_on_c, 10, 76, 60
11, 825960, Note_off_c, 10, 76, 64
11, 826320, Note_on_c, 10, 74, 60
11, 826440, Note_off_c, 10, 74, 64
11, 826800, Note_on_c, 10, 71, 60
11, 826920, Note_off_c, 10, 71, 64
11, 827280, Note_on_c, 10, 72, 60
11, 827400, Note_off_c, 10, 72, 64
11, 827760, Note_on_c, 10, 71, 60
11, 827880, Note_off_c, 10, 71, 64
11, 828240, Note_on_c, 10, 67, 60
11, 828360, Note_off_c, 10, 67, 64
11, 828720, Note_on_c, 10, 69, 60
11, 828840, Note_off_c, 10, 69, 64
11, 829200, Note_on_c, 10, 71, 60
11, 829320, Note_off_c, 10, 71, 64
11, 829680, Note_on_c, 10, 67, 60
11, 829800, Note_off_c, 10, 67, 64
11, 830160, Note_on_c, 10, 67, 60
11, 830640, Note_off_c, 10, 67, 64
11, 830640, Note_on_c, 10, 72, 60
11, 831600, Note_off_c, 10, 72, 64
11, 831600, Note_on_c, 10, 76, 60
11, 832080, Note_off_c, 10, 76, 64
11, 832080, Note_on_c, 10, 79, 60
11, 832560, Note_off_c, 10, 79, 64
11, 832560, Note_on_c, 10, 76, 60
11, 832960, Note_off_c, 10, 76, 64
11, 833040, Note_on_c, 10, 76, 60
11, 833520, Note_off_c, 10, 76, 64
11, 833520, Note_on_c, 10, 79, 60
11, 834000, Note_off_c, 10, 79, 64
11, 834000, Note_on_c, 10, 83, 60
11, 834480, Note_off_c, 10, 83, 64
11, 834480, Note_on_c, 10, 84, 60
11, 834720, Note_off_c, 10, 84, 64
11, 834720, Note_on_c, 10, 81, 60
11, 834960, Note_off_c, 10, 81, 64
11, 834960, Note_on_c, 10, 79, 60
11, 835800, Note_off_c, 10, 79, 64
11, 835920, Note_on_c, 10, 83, 60
11, 836400, Note_off_c, 10, 83, 64
11, 836400, Note_on_c, 10, 84, 60
11, 836880, Note_off_c, 10, 84, 64
11, 836880, Note_on_c, 10, 79, 60
11, 837360, Note_off_c, 10, 79, 64
11, 837360, Note_on_c, 10, 81, 60
11, 837840, Note_off_c, 10, 81, 64
11, 837840, Note_on_c, 10, 79, 60
11, 838320, Note_off_c, 10, 79, 64
11, 838320, Note_on_c, 10, 76, 60
11, 838800, Note_off_c, 10, 76, 64
11, 838800, Note_on_c, 10, 77, 60
11, 839280, Note_off_c, 10, 77, 64
11, 839280, Note_on_c, 10, 76, 60
11, 839760, Note_off_c, 10, 76, 64
11, 839760, Note_on_c, 10, 72, 60
11, 840240, Note_off_c, 10, 72, 64
11, 840240, Note_on_c, 10, 74, 60
11, 840720, Note_off_c, 10, 74, 64
11, 840720, Note_on_c, 10, 76, 60
11, 841200, Note_off_c, 10, 76, 64
11, 841200, Note_on_c, 10, 72, 63
11, 841600, Note_off_c, 10, 72, 64
11, 841680, Note_on_c, 10, 72, 66
11, 842160, Note_off_c, 10, 72, 64
11, 842160, Note_on_c, 10, 84, 69
11, 842640, Note_off_c, 10, 84, 64
11, 842640, Note_on_c, 10, 81, 72
11, 843120, Note_off_c, 10, 81, 64
11, 843120, Note_on_c, 10, 82, 75
11, 843600, Note_off_c, 10, 82, 64
11, 843600, Note_on_c, 10, 81, 78
11, 844080, Note_off_c, 10, 81, 64
11, 844080, Note_on_c, 10, 77, 81
11, 844560, Note_off_c, 10, 77, 64
11, 844560, Note_on_c, 10, 79, 84
11, 845040, Note_off_c, 10, 79, 64
11, 845040, Note_on_c, 10, 77, 88
11, 845520, Note_off_c, 10, 77, 64
11, 845520, Note_on_c, 10, 72, 92
11, 846000, Note_off_c, 10, 72, 64
11, 846000, Note_on_c, 10, 79, 96
11, 846480, Note_off_c, 10, 79, 64
11, 846480, Note_on_c, 10, 81, 100
11, 846960, Note_off_c, 10, 81, 64
11, 846960, Note_on_c, 10, 77, 104
11, 847360, Note_off_c, 10, 77, 64
11, 847440, Note_on_c, 10, 84, 108
11, 847560, Note_off_c, 10, 84, 64
11, 847920, Note_on_c, 10, 89, 108
11, 848040, Note_off_c, 10, 89, 64
11, 848400, Note_on_c, 10, 84, 108
11, 848520, Note_off_c, 10, 84, 64
11, 848880, Note_on_c, 10, 86, 108
11, 849000, Note_off_c, 10, 86, 64
11, 849360, Note_on_c, 10, 84, 108
11, 849480, Note_off_c, 10, 84, 64
11, 849840, Note_on_c, 10, 81, 108
11, 849960, Note_off_c, 10, 81, 64
11, 850320, Note_on_c, 10, 82, 108
11, 850440, Note_off_c, 10, 82, 64
11, 850800, Note_on_c, 10, 81, 108
11, 850920, Note_off_c, 10, 81, 64
11, 851280, Note_on_c, 10, 77, 108
11, 851400, Note_off_c, 10, 77, 64
11, 851760, Note_on_c, 10, 79, 108
11, 851880, Note_off_c, 10, 79, 64
11, 852240, Note_on_c, 10, 81, 108
11, 852360, Note_off_c, 10, 81, 64
11, 852720, Note_on_c, 10, 77, 108
11, 852840, Note_off_c, 10, 77, 64
11, 853200, Note_on_c, 10, 79, 108
11, 853320, Note_off_c, 10, 79, 64
11, 853680, Note_on_c, 10, 81, 108
11, 853800, Note_off_c, 10, 81, 64
11, 854160, Note_on_c, 10, 77, 108
11, 854280, Note_off_c, 10, 77, 64
11, 854640, Note_on_c, 10, 79, 108
11, 854760, Note_off_c, 10, 79, 64
11, 855120, Note_on_c, 10, 81, 108
11, 855240, Note_off_c, 10, 81, 64
11, 855600, Note_on_c, 10, 77, 108
11, 855720, Note_off_c, 10, 77, 64
11, 856080, Note_on_c, 10, 79, 108
11, 856200, Note_off_c, 10, 79, 64
11, 856560, Note_on_c, 10, 81, 108
11, 857880, Note_off_c, 10, 81, 64
11, 858000, Note_on_c, 10, 79, 108
11, 858060, Note_off_c, 10, 79, 64
11, 858060, Note_on_c, 10, 81, 108
11, 858120, Note_off_c, 10, 81, 64
11, 858120, Note_on_c, 10, 79, 108
11, 858880, Note_off_c, 10, 79, 64
11, 858960, Note_on_c, 10, 77, 108
11, 859360, Note_off_c, 10, 77, 64
11, 859440, Note_on_c, 10, 76, 108
11, 859500, Note_off_c, 10, 76, 64
11, 859500, Note_on_c, 10, 77, 108
11, 859560, Note_off_c, 10, 77, 64
11, 859560, Note_on_c, 10, 76, 108
11, 860320, Note_off_c, 10, 76, 64
11, 860400, Note_on_c, 10, 74, 108
11, 860800, Note_off_c, 10, 74, 64
11, 860880, Note_on_c, 10, 72, 108
11, 861720, Note_off_c, 10, 72, 64
11, 861840, Note_on_c, 10, 76, 108
11, 862240, Note_off_c, 10, 76, 64
11, 862320, Note_on_c, 10, 77, 108
11, 863640, Note_off_c, 10, 77, 64
11, 863760, Note_on_c, 10, 79, 108
11, 865080, Note_off_c, 10, 79, 64
11, 865200, Note_on_c, 10, 81, 108
11, 866520, Note_off_c, 10, 81, 64
11, 866640, Note_on_c, 10, 79, 108
11, 867960, Note_off_c, 10, 79, 64
11, 868080, Note_on_c, 10, 65, 108
11, 868080, Note_on_c, 10, 72, 108
11, 868080, Note_on_c, 10, 81, 108
11, 868480, Note_off_c, 10, 81, 64
11, 868480, Note_off_c, 10, 72, 64
11, 868480, Note_off_c, 10, 65, 64
11, 869040, Note_on_c, 10, 81, 108
11, 869440, Note_off_c, 10, 81, 64
11, 869520, Note_on_c, 10, 79, 108
11, 869580, Note_off_c, 10, 79, 64
11, 869580, Note_on_c, 10, 81, 108
11, 869640, Note_off_c, 10, 81, 64
11, 869640, Note_on_c, 10, 79, 108
11, 870400, Note_off_c, 10, 79, 64
11, 870480, Note_on_c, 10, 77, 108
11, 870880, Note_off_c, 10, 77, 64
11, 870960, Note_on_c, 10, 76, 108
11, 871020, Note_off_c, 10, 76, 64
11, 871020, Note_on_c, 10, 77, 108
11, 871080, Note_off_c, 10, 77, 64
11, 871080, Note_on_c, 10, 76, 108
11, 871840, Note_off_c, 10, 76, 64
11, 871920, Note_on_c, 10, 74, 108
11, 872320, Note_off_c, 10, 74, 64
11, 872400, Note_on_c, 10, 72, 108
11, 873240, Note_off_c, 10, 72, 64
11, 873360, Note_on_c, 10, 76, 108
11, 873760, Note_off_c, 10, 76, 64
11, 873840, Note_on_c, 10, 77, 108
11, 875160, Note_off_c, 10, 77, 64
11, 875280, Note_on_c, 10, 79, 108
11, 876600, Note_off_c, 10, 79, 64
11, 876720, Note_on_c, 10, 81, 108
11, 878040, Note_off_c, 10, 81, 64
11, 878160, Note_on_c, 10, 79, 108
11, 879480, Note_off_c, 10, 79, 64
11, 879600, Note_on_c, 10, 65, 92
11, 879600, Note_on_c, 10, 72, 92
11, 879600, Note_on_c, 10, 81, 92
11, 880000, Note_off_c, 10, 81, 64
11, 880000, Note_off_c, 10, 72, 64
11, 880000, Note_off_c, 10, 65, 64
11, 882480, Note_on_c, 10, 69, 108
11, 882560, Note_off_c, 10, 69, 64
11, 882720, Note_on_c, 10, 72, 108
11, 882800, Note_off_c, 10, 72, 64
11, 882960, Note_on_c, 10, 77, 108
11, 883040, Note_off_c, 10, 77, 64
11, 883200, Note_on_c, 10, 81, 108
11, 883280, Note_off_c, 10, 81, 64
11, 883440, Note_on_c, 10, 84, 108
11, 883840, Note_off_c, 10, 84, 64
11, 883920, Note_on_c, 10, 76, 92
11, 884320, Note_off_c, 10, 76, 64
11, 884400, Note_on_c, 10, 76, 92
11, 884800, Note_off_c, 10, 76, 64
11, 884880, Note_on_c, 10, 76, 92
11, 885280, Note_off_c, 10, 76, 64
11, 885360, Note_on_c, 10, 77, 92
11, 885760, Note_off_c, 10, 77, 64
11, 888240, Note_on_c, 10, 69, 108
11, 888320, Note_off_c, 10, 69, 64
11, 888480, Note_on_c, 10, 72, 108
11, 888560, Note_off_c, 10, 72, 64
11, 888720, Note_on_c, 10, 77, 108
11, 888800, Note_off_c, 10, 77, 64
11, 888960, Note_on_c, 10, 81, 108
11, 889040, Note_off_c, 10, 81, 64
11, 889200, Note_on_c, 10, 84, 108
11, 889600, Note_off_c, 10, 84, 64
11, 889680, Note_on_c, 10, 76, 92
11, 890080, Note_off_c, 10, 76, 64
11, 890160, Note_on_c, 10, 76, 92
11, 890560, Note_off_c, 10, 76, 64
11, 890640, Note_on_c, 10, 76, 92
11, 891040, Note_off_c, 10, 76, 64
11, 891120, Note_on_c, 10, 77, 92
11, 891520, Note_off_c, 10, 77, 64
11, 894000, Note_on_c, 10, 77, 92
11, 894400, Note_off_c, 10, 77, 64
11, 896880, Note_on_c, 10, 72, 92
11, 897000, Note_off_c, 10, 72, 64
11, 897360, Note_on_c, 10, 69, 92
11, 897480, Note_off_c, 10, 69, 64
11, 897840, Note_on_c, 10, 69, 92
11, 897960, Note_off_c, 10, 69, 64
11, 898320, Note_on_c, 10, 72, 92
11, 898440, Note_off_c, 10, 72, 64
11, 898800, Note_on_c, 10, 69, 89
11, 898920, Note_off_c, 10, 69, 64
11, 899280, Note_on_c, 10, 69, 86
11, 899400, Note_off_c, 10, 69, 64
11, 899760, Note_on_c, 10, 72, 83
11, 899880, Note_off_c, 10, 72, 64
11, 900240, Note_on_c, 10, 69, 80
11, 900360, Note_off_c, 10, 69, 64
11, 900720, Note_on_c, 10, 69, 76
11, 900840, Note_off_c, 10, 69, 64
11, 901200, Note_on_c, 10, 72, 72
11, 901320, Note_off_c, 10, 72, 64
11, 901680, Note_on_c, 10, 69, 68
11, 901800, Note_off_c, 10, 69, 64
11, 902160, Note_on_c, 10, 69, 64
11, 902280, Note_off_c, 10, 69, 64
11, 902640, Note_on_c, 10, 72, 60
11, 902760, Note_off_c, 10, 72, 64
11, 903120, Note_on_c, 10, 69, 60
11, 903240, Note_off_c, 10, 69, 64
11, 903600, Note_on_c, 10, 69, 60
11, 903720, Note_off_c, 10, 69, 64
11, 904080, Note_on_c, 10, 72, 60
11, 904200, Note_off_c, 10, 72, 64
11, 904560, Note_on_c, 10, 69, 60
11, 904680, Note_off_c, 10, 69, 64
11, 905040, Note_on_c, 10, 69, 60
11, 905160, Note_off_c, 10, 69, 64
11, 905520, Note_on_c, 10, 72, 60
11, 905640, Note_off_c, 10, 72, 64
11, 906000, Note_on_c, 10, 70, 60
11, 906120, Note_off_c, 10, 70, 64
11, 906480, Note_on_c, 10, 70, 60
11, 906600, Note_off_c, 10, 70, 64
11, 906960, Note_on_c, 10, 72, 60
11, 907080, Note_off_c, 10, 72, 64
11, 907440, Note_on_c, 10, 70, 60
11, 907560, Note_off_c, 10, 70, 64
11, 907920, Note_on_c, 10, 70, 60
11, 908040, Note_off_c, 10, 70, 64
11, 908400, Note_on_c, 10, 72, 60
11, 908520, Note_off_c, 10, 72, 64
11, 908880, Note_on_c, 10, 69, 60
11, 909000, Note_off_c, 10, 69, 64
11, 909360, Note_on_c, 10, 69, 60
11, 909480, Note_off_c, 10, 69, 64
11, 909840, Note_on_c, 10, 72, 60
11, 909960, Note_off_c, 10, 72, 64
11, 910320, Note_on_c, 10, 67, 60
11, 910440, Note_off_c, 10, 67, 64
11, 910800, Note_on_c, 10, 67, 60
11, 910920, Note_off_c, 10, 67, 64
11, 911280, Note_on_c, 10, 72, 60
11, 911400, Note_off_c, 10, 72, 64
11, 911760, Note_on_c, 10, 69, 60
11, 911880, Note_off_c, 10, 69, 64
11, 912240, Note_on_c, 10, 69, 60
11, 912360, Note_off_c, 10, 69, 64
11, 912720, Note_on_c, 10, 72, 60
11, 912840, Note_off_c, 10, 72, 64
11, 913200, Note_on_c, 10, 69, 60
11, 913320, Note_off_c, 10, 69, 64
11, 913680, Note_on_c, 10, 69, 60
11, 913800, Note_off_c, 10, 69, 64
11, 914160, Note_on_c, 10, 72, 60
11, 914280, Note_off_c, 10, 72, 64
11, 914640, Note_on_c, 10, 69, 60
11, 914760, Note_off_c, 10, 69, 64
11, 915120, Note_on_c, 10, 69, 60
11, 915240, Note_off_c, 10, 69, 64
11, 915600, Note_on_c, 10, 72, 60
11, 915720, Note_off_c, 10, 72, 64
11, 916080, Note_on_c, 10, 69, 60
11, 916200, Note_off_c, 10, 69, 64
11, 916560, Note_on_c, 10, 69, 60
11, 916680, Note_off_c, 10, 69, 64
11, 917040, Note_on_c, 10, 72, 60
11, 917160, Note_off_c, 10, 72, 64
11, 917520, Note_on_c, 10, 70, 60
11, 917640, Note_off_c, 10, 70, 64
11, 918000, Note_on_c, 10, 70, 60
11, 918120, Note_off_c, 10, 70, 64
11, 918480, Note_on_c, 10, 72, 60
11, 918600, Note_off_c, 10, 72, 64
11, 918960, Note_on_c, 10, 70, 60
11, 919080, Note_off_c, 10, 70, 64
11, 919440, Note_on_c, 10, 70, 60
11, 919560, Note_off_c, 10, 70, 64
11, 919920, Note_on_c, 10, 72, 60
11, 920040, Note_off_c, 10, 72, 64
11, 920400, Note_on_c, 10, 69, 60
11, 920520, Note_off_c, 10, 69, 64
11, 920880, Note_on_c, 10, 69, 60
11, 921000, Note_off_c, 10, 69, 64
11, 921360, Note_on_c, 10, 72, 60
11, 921480, Note_off_c, 10, 72, 64
11, 921840, Note_on_c, 10, 67, 60
11, 921960, Note_off_c, 10, 67, 64
11, 922320, Note_on_c, 10, 67, 60
11, 922440, Note_off_c, 10, 67, 64
11, 922800, Note_on_c, 10, 72, 60
11, 922920, Note_off_c, 10, 72, 64
11, 923280, Note_on_c, 10, 67, 60
11, 923400, Note_off_c, 10, 67, 64
11, 923760, Note_on_c, 10, 67, 60
11, 923880, Note_off_c, 10, 67, 64
11, 924240, Note_on_c, 10, 72, 60
11, 924360, Note_off_c, 10, 72, 64
11, 924720, Note_on_c, 10, 69, 60
11, 924840, Note_off_c, 10, 69, 64
11, 925200, Note_on_c, 10, 69, 60
11, 925320, Note_off_c, 10, 69, 64
11, 925680, Note_on_c, 10, 72, 60
11, 925800, Note_off_c, 10, 72, 64
11, 926160, Note_on_c, 10, 69, 60
11, 926280, Note_off_c, 10, 69, 64
11, 926640, Note_on_c, 10, 69, 60
11, 926760, Note_off_c, 10, 69, 64
11, 927120, Note_on_c, 10, 72, 60
11, 927240, Note_off_c, 10, 72, 64
11, 927600, Note_on_c, 10, 69, 60
11, 927720, Note_off_c, 10, 69, 64
11, 928080, Note_on_c, 10, 69, 60
11, 928200, Note_off_c, 10, 69, 64
11, 928560, Note_on_c, 10, 72, 60
11, 928680, Note_off_c, 10, 72, 64
11, 929040, Note_on_c, 10, 70, 60
11, 929160, Note_off_c, 10, 70, 64
11, 929520, Note_on_c, 10, 70, 60
11, 929640, Note_off_c, 10, 70, 64
11, 930000, Note_on_c, 10, 72, 60
11, 930120, Note_off_c, 10, 72, 64
11, 930480, Note_on_c, 10, 70, 60
11, 930600, Note_off_c, 10, 70, 64
11, 930960, Note_on_c, 10, 70, 60
11, 931080, Note_off_c, 10, 70, 64
11, 931440, Note_on_c, 10, 72, 60
11, 931560, Note_off_c, 10, 72, 64
11, 931920, Note_on_c, 10, 69, 60
11, 932040, Note_off_c, 10, 69, 64
11, 932400, Note_on_c, 10, 69, 60
11, 932520, Note_off_c, 10, 69, 64
11, 932880, Note_on_c, 10, 72, 60
11, 933000, Note_off_c, 10, 72, 64
11, 933360, Note_on_c, 10, 67, 60
11, 933480, Note_off_c, 10, 67, 64
11, 933840, Note_on_c, 10, 67, 60
11, 933960, Note_off_c, 10, 67, 64
11, 934320, Note_on_c, 10, 72, 60
11, 934440, Note_off_c, 10, 72, 64
11, 934800, Note_on_c, 10, 69, 60
11, 934920, Note_off_c, 10, 69, 64
11, 935280, Note_on_c, 10, 69, 60
11, 935400, Note_off_c, 10, 69, 64
11, 935760, Note_on_c, 10, 72, 60
11, 935880, Note_off_c, 10, 72, 64
11, 936240, Note_on_c, 10, 69, 60
11, 936360, Note_off_c, 10, 69, 64
11, 936720, Note_on_c, 10, 69, 60
11, 936840, Note_off_c, 10, 69, 64
11, 937200, Note_on_c, 10, 72, 60
11, 937320, Note_off_c, 10, 72, 64
11, 937680, Note_on_c, 10, 69, 60
11, 937800, Note_off_c, 10, 69, 64
11, 938160, Note_on_c, 10, 69, 60
11, 938280, Note_off_c, 10, 69, 64
11, 938640, Note_on_c, 10, 72, 60
11, 938760, Note_off_c, 10, 72, 64
11, 939120, Note_on_c, 10, 69, 60
11, 939240, Note_off_c, 10, 69, 64
11, 939600, Note_on_c, 10, 69, 60
11, 939720, Note_off_c, 10, 69, 64
11, 940080, Note_on_c, 10, 72, 60
11, 940200, Note_off_c, 10, 72, 64
11, 940560, Note_on_c, 10, 70, 60
11, 940680, Note_off_c, 10, 70, 64
11, 941040, Note_on_c, 10, 70, 60
11, 941160, Note_off_c, 10, 70, 64
11, 941520, Note_on_c, 10, 72, 60
11, 941640, Note_off_c, 10, 72, 64
11, 942000, Note_on_c, 10, 70, 60
11, 942120, Note_off_c, 10, 70, 64
11, 942480, Note_on_c, 10, 70, 60
11, 942600, Note_off_c, 10, 70, 64
11, 942960, Note_on_c, 10, 72, 60
11, 943080, Note_off_c, 10, 72, 64
11, 943440, Note_on_c, 10, 69, 60
11, 943560, Note_off_c, 10, 69, 64
11, 943920, Note_on_c, 10, 69, 60
11, 944040, Note_off_c, 10, 69, 64
11, 944400, Note_on_c, 10, 72, 60
11, 944520, Note_off_c, 10, 72, 64
11, 944880, Note_on_c, 10, 67, 60
11, 945000, Note_off_c, 10, 67, 64
11, 945360, Note_on_c, 10, 67, 60
11, 945480, Note_off_c, 10, 67, 64
11, 945840, Note_on_c, 10, 72, 60
11, 945960, Note_off_c, 10, 72, 64
11, 946320, Note_on_c, 10, 67, 60
11, 946440, Note_off_c, 10, 67, 64
11, 946800, Note_on_c, 10, 67, 60
11, 946920, Note_off_c, 10, 67, 64
11, 947280, Note_on_c, 10, 72, 60
11, 947400, Note_off_c, 10, 72, 64
11, 947760, Note_on_c, 10, 69, 60
11, 947880, Note_off_c, 10, 69, 64
11, 948240, Note_on_c, 10, 69, 60
11, 948360, Note_off_c, 10, 69, 64
11, 960240, Note_on_c, 10, 72, 75
11, 960360, Note_off_c, 10, 72, 64
11, 960720, Note_on_c, 10, 67, 75
11, 960840, Note_off_c, 10, 67, 64
11, 961200, Note_on_c, 10, 67, 75
11, 961320, Note_off_c, 10, 67, 64
11, 961680, Note_on_c, 10, 72, 75
11, 961800, Note_off_c, 10, 72, 64
11, 962160, Note_on_c, 10, 67, 75
11, 962280, Note_off_c, 10, 67, 64
11, 962640, Note_on_c, 10, 67, 75
11, 962760, Note_off_c, 10, 67, 64
11, 963120, Note_on_c, 10, 72, 75
11, 963240, Note_off_c, 10, 72, 64
11, 963600, Note_on_c, 10, 69, 73
11, 963720, Note_off_c, 10, 69, 64
11, 964080, Note_on_c, 10, 69, 71
11, 964200, Note_off_c, 10, 69, 64
11, 964560, Note_on_c, 10, 72, 69
11, 964680, Note_off_c, 10, 72, 64
11, 965040, Note_on_c, 10, 69, 66
11, 965160, Note_off_c, 10, 69, 64
11, 965520, Note_on_c, 10, 69, 63
11, 965640, Note_off_c, 10, 69, 64
11, 966000, Note_on_c, 10, 72, 60
11, 966120, Note_off_c, 10, 72, 64
11, 966480, Note_on_c, 10, 70, 60
11, 966600, Note_off_c, 10, 70, 64
11, 966960, Note_on_c, 10, 70, 60
11, 967080, Note_off_c, 10, 70, 64
11, 967440, Note_on_c, 10, 72, 60
11, 967560, Note_off_c, 10, 72, 64
11, 967920, Note_on_c, 10, 70, 60
11, 968040, Note_off_c, 10, 70, 64
11, 968400, Note_on_c, 10, 70, 60
11, 968520, Note_off_c, 10, 70, 64
11, 968880, Note_on_c, 10, 72, 60
11, 969000, Note_off_c, 10, 72, 64
11, 969360, Note_on_c, 10, 69, 60
11, 969480, Note_off_c, 10, 69, 64
11, 969840, Note_on_c, 10, 69, 60
11, 969960, Note_off_c, 10, 69, 64
11, 970320, Note_on_c, 10, 72, 60
11, 970440, Note_off_c, 10, 72, 64
11, 970800, Note_on_c, 10, 67, 60
11, 970920, Note_off_c, 10, 67, 64
11, 971280, Note_on_c, 10, 67, 60
11, 971400, Note_off_c, 10, 67, 64
11, 971760, Note_on_c, 10, 72, 60
11, 971880, Note_off_c, 10, 72, 64
11, 972240, Note_on_c, 10, 69, 60
11, 972360, Note_off_c, 10, 69, 64
11, 972720, Note_on_c, 10, 69, 60
11, 972840, Note_off_c, 10, 69, 64
11, 973200, Note_on_c, 10, 72, 60
11, 973320, Note_off_c, 10, 72, 64
11, 973680, Note_on_c, 10, 69, 60
11, 973800, Note_off_c, 10, 69, 64
11, 974160, Note_on_c, 10, 69, 60
11, 974280, Note_off_c, 10, 69, 64
11, 974640, Note_on_c, 10, 72, 60
11, 974760, Note_off_c, 10, 72, 64
11, 975120, Note_on_c, 10, 69, 60
11, 975240, Note_off_c, 10, 69, 64
11, 975600, Note_on_c, 10, 69, 60
11, 975720, Note_off_c, 10, 69, 64
11, 976080, Note_on_c, 10, 72, 60
11, 976200, Note_off_c, 10, 72, 64
11, 976560, Note_on_c, 10, 69, 60
11, 976680, Note_off_c, 10, 69, 64
11, 977040, Note_on_c, 10, 69, 60
11, 977160, Note_off_c, 10, 69, 64
11, 977520, Note_on_c, 10, 72, 60
11, 977640, Note_off_c, 10, 72, 64
11, 978000, Note_on_c, 10, 64, 60
11, 978120, Note_off_c, 10, 64, 64
11, 978480, Note_on_c, 10, 64, 60
11, 978600, Note_off_c, 10, 64, 64
11, 978960, Note_on_c, 10, 72, 60
11, 979080, Note_off_c, 10, 72, 64
11, 979440, Note_on_c, 10, 67, 60
11, 979560, Note_off_c, 10, 67, 64
11, 979920, Note_on_c, 10, 67, 60
11, 980040, Note_off_c, 10, 67, 64
11, 980400, Note_on_c, 10, 72, 60
11, 980520, Note_off_c, 10, 72, 64
11, 980880, Note_on_c, 10, 69, 60
11, 981000, Note_off_c, 10, 69, 64
11, 981360, Note_on_c, 10, 69, 60
11, 981480, Note_off_c, 10, 69, 64
11, 981840, Note_on_c, 10, 72, 60
11, 981960, Note_off_c, 10, 72, 64
11, 982320, Note_on_c, 10, 69, 60
11, 982440, Note_off_c, 10, 69, 64
11, 982800, Note_on_c, 10, 69, 60
11, 982920, Note_off_c, 10, 69, 64
11, 983280, Note_on_c, 10, 72, 60
11, 983400, Note_off_c, 10, 72, 64
11, 983760, Note_on_c, 10, 67, 60
11, 983880, Note_off_c, 10, 67, 64
11, 984240, Note_on_c, 10, 67, 60
11, 984360, Note_off_c, 10, 67, 64
11, 984720, Note_on_c, 10, 72, 60
11, 984840, Note_off_c, 10, 72, 64
11, 985200, Note_on_c, 10, 67, 61
11, 985320, Note_off_c, 10, 67, 64
11, 985680, Note_on_c, 10, 67, 62
11, 985800, Note_off_c, 10, 67, 64
11, 986160, Note_on_c, 10, 72, 63
11, 986280, Note_off_c, 10, 72, 64
11, 986640, Note_on_c, 10, 69, 64
11, 986760, Note_off_c, 10, 69, 64
11, 987120, Note_on_c, 10, 69, 65
11, 987240, Note_off_c, 10, 69, 64
11, 987600, Note_on_c, 10, 72, 66
11, 987720, Note_off_c, 10, 72, 64
11, 988080, Note_on_c, 10, 69, 67
11, 988200, Note_off_c, 10, 69, 64
11, 988560, Note_on_c, 10, 69, 68
11, 988680, Note_off_c, 10, 69, 64
11, 989040, Note_on_c, 10, 72, 69
11, 989160, Note_off_c, 10, 72, 64
11, 989520, Note_on_c, 10, 67, 70
11, 989640, Note_off_c, 10, 67, 64
11, 990000, Note_on_c, 10, 67, 71
11, 990120, Note_off_c, 10, 67, 64
11, 990480, Note_on_c, 10, 72, 72
11, 990600, Note_off_c, 10, 72, 64
11, 990960, Note_on_c, 10, 67, 73
11, 991080, Note_off_c, 10, 67, 64
11, 991440, Note_on_c, 10, 67, 74
11, 991560, Note_off_c, 10, 67, 64
11, 991920, Note_on_c, 10, 77, 75
11, 994680, Note_off_c, 10, 77, 64
11, 994800, Note_on_c, 10, 76, 75
11, 997560, Note_off_c, 10, 76, 64
11, 997680, Note_on_c, 10, 77, 75
11, 1000440, Note_off_c, 10, 77, 64
11, 1000560, Note_on_c, 10, 76, 83
11, 1003320, Note_off_c, 10, 76, 64
11, 1003440, Note_on_c, 10, 77, 92
11, 1003840, Note_off_c, 10, 77, 64
11, 1009200, Note_on_c, 10, 65, 127
11, 1009440, Note_off_c, 10, 65, 64
11, 1009440, Note_on_c, 10, 67, 108
11, 1009560, Note_off_c, 10, 67, 64
11, 1009560, Note_on_c, 10, 65, 108
11, 1009680, Note_off_c, 10, 65, 64
11, 1009680, Note_on_c, 10, 60, 108
11, 1009920, Note_off_c, 10, 60, 64
11, 1009920, Note_on_c, 10, 62, 108
11, 1010040, Note_off_c, 10, 62, 64
11, 1010040, Note_on_c, 10, 64, 108
11, 1010155, Note_off_c, 10, 64, 64
11, 1010160, Note_on_c, 10, 65, 127
11, 1010400, Note_off_c, 10, 65, 64
11, 1010400, Note_on_c, 10, 67, 108
11, 1010520, Note_off_c, 10, 67, 64
11, 1010520, Note_on_c, 10, 65, 108
11, 1010635, Note_off_c, 10, 65, 64
11, 1010640, Note_on_c, 10, 60, 108
11, 1011040, Note_off_c, 10, 60, 64
11, 1011120, Note_on_c, 10, 58, 127
11, 1011240, Note_off_c, 10, 58, 64
11, 1011240, Note_on_c, 10, 60, 108
11, 1011360, Note_off_c, 10, 60, 64
11, 1011360, Note_on_c, 10, 62, 108
11, 1011480, Note_off_c, 10, 62, 64
11, 1011480, Note_on_c, 10, 63, 108
11, 1011595, Note_off_c, 10, 63, 64
11, 1011600, Note_on_c, 10, 65, 108
11, 1011680, Note_off_c, 10, 65, 64
11, 1011840, Note_on_c, 10, 65, 108
11, 1011900, Note_off_c, 10, 65, 64
11, 1011900, Note_on_c, 10, 67, 108
11, 1012075, Note_off_c, 10, 67, 64
11, 1012080, Note_on_c, 10, 60, 127
11, 1012160, Note_off_c, 10, 60, 64
11, 1012320, Note_on_c, 10, 60, 108
11, 1012380, Note_off_c, 10, 60, 64
11, 1012380, Note_on_c, 10, 65, 108
11, 1012555, Note_off_c, 10, 65, 64
11, 1012560, Note_on_c, 10, 58, 108
11, 1012960, Note_off_c, 10, 58, 64
11, 1013040, Note_on_c, 10, 65, 127
11, 1013280, Note_off_c, 10, 65, 64
11, 1013280, Note_on_c, 10, 67, 108
11, 1013400, Note_off_c, 10, 67, 64
11, 1013400, Note_on_c, 10, 65, 108
11, 1013520, Note_off_c, 10, 65, 64
11, 1013520, Note_on_c, 10, 60, 108
11, 1013760, Note_off_c, 10, 60, 64
11, 1013760, Note_on_c, 10, 62, 108
11, 1013880, Note_off_c, 10, 62, 64
11, 1013880, Note_on_c, 10, 64, 108
11, 1013995, Note_off_c, 10, 64, 64
11, 1014000, Note_on_c, 10, 65, 127
11, 1014240, Note_off_c, 10, 65, 64
11, 1014240, Note_on_c, 10, 67, 108
11, 1014360, Note_off_c, 10, 67, 64
11, 1014360, Note_on_c, 10, 65, 108
11, 1014475, Note_off_c, 10, 65, 64
11, 1014480, Note_on_c, 10, 60, 108
11, 1014880, Note_off_c, 10, 60, 64
11, 1014960, Note_on_c, 10, 58, 127
11, 1015080, Note_off_c, 10, 58, 64
11, 1015080, Note_on_c, 10, 60, 108
11, 1015200, Note_off_c, 10, 60, 64
11, 1015200, Note_on_c, 10, 62, 108
11, 1015320, Note_off_c, 10, 62, 64
11, 1015320, Note_on_c, 10, 63, 108
11, 1015435, Note_off_c, 10, 63, 64
11, 1015440, Note_on_c, 10, 65, 108
11, 1015520, Note_off_c, 10, 65, 64
11, 1015680, Note_on_c, 10, 65, 108
11, 1015740, Note_off_c, 10, 65, 64
11, 1015740, Note_on_c, 10, 67, 108
11, 1015915, Note_off_c, 10, 67, 64
11, 1015920, Note_on_c, 10, 60, 127
11, 1016000, Note_off_c, 10, 60, 64
11, 1016160, Note_on_c, 10, 60, 108
11, 1016220, Note_off_c, 10, 60, 64
11, 1016220, Note_on_c, 10, 65, 108
11, 1016395, Note_off_c, 10, 65, 64
11, 1016400, Note_on_c, 10, 58, 108
11, 1016800, Note_off_c, 10, 58, 64
11, 1016880, Note_on_c, 10, 65, 127
11, 1017120, Note_off_c, 10, 65, 64
11, 1017120, Note_on_c, 10, 67, 108
11, 1017240, Note_off_c, 10, 67, 64
11, 1017240, Note_on_c, 10, 65, 108
11, 1017360, Note_off_c, 10, 65, 64
11, 1017360, Note_on_c, 10, 60, 108
11, 1017600, Note_off_c, 10, 60, 64
11, 1017600, Note_on_c, 10, 62, 108
11, 1017720, Note_off_c, 10, 62, 64
11, 1017720, Note_on_c, 10, 64, 108
11, 1017835, Note_off_c, 10, 64, 64
11, 1017840, Note_on_c, 10, 65, 127
11, 1018080, Note_off_c, 10, 65, 64
11, 1018080, Note_on_c, 10, 67, 108
11, 1018200, Note_off_c, 10, 67, 64
11, 1018200, Note_on_c, 10, 65, 108
11, 1018315, Note_off_c, 10, 65, 64
11, 1018320, Note_on_c, 10, 60, 108
11, 1018720, Note_off_c, 10, 60, 64
11, 1018800, Note_on_c, 10, 58, 127
11, 1018920, Note_off_c, 10, 58, 64
11, 1018920, Note_on_c, 10, 60, 108
11, 1019040, Note_off_c, 10, 60, 64
11, 1019040, Note_on_c, 10, 62, 108
11, 1019160, Note_off_c, 10, 62, 64
11, 1019160, Note_on_c, 10, 63, 108
11, 1019275, Note_off_c, 10, 63, 64
11, 1019280, Note_on_c, 10, 65, 108
11, 1019360, Note_off_c, 10, 65, 64
11, 1019520, Note_on_c, 10, 65, 108
11, 1019580, Note_off_c, 10, 65, 64
11, 1019580, Note_on_c, 10, 67, 108
11, 1019755, Note_off_c, 10, 67, 64
11, 1019760, Note_on_c, 10, 60, 127
11, 1019840, Note_off_c, 10, 60, 64
11, 1020000, Note_on_c, 10, 60, 108
11, 1020060, Note_off_c, 10, 60, 64
11, 1020060, Note_on_c, 10, 65, 108
11, 1020235, Note_off_c, 10, 65, 64
11, 1020240, Note_on_c, 10, 58, 108
11, 1020640, Note_off_c, 10, 58, 64
11, 1020720, Note_on_c, 10, 65, 127
11, 1020960, Note_off_c, 10, 65, 64
11, 1020960, Note_on_c, 10, 67, 108
11, 1021080, Note_off_c, 10, 67, 64
11, 1021080, Note_on_c, 10, 65, 108
11, 1021200, Note_off_c, 10, 65, 64
11, 1021200, Note_on_c, 10, 60, 108
11, 1021440, Note_off_c, 10, 60, 64
11, 1021440, Note_on_c, 10, 62, 108
11, 1021560, Note_off_c, 10, 62, 64
11, 1021560, Note_on_c, 10, 64, 108
11, 1021675, Note_off_c, 10, 64, 64
11, 1021680, Note_on_c, 10, 65, 127
11, 1021920, Note_off_c, 10, 65, 64
11, 1021920, Note_on_c, 10, 67, 108
11, 1022040, Note_off_c, 10, 67, 64
11, 1022040, Note_on_c, 10, 65, 108
11, 1022155, Note_off_c, 10, 65, 64
11, 1022160, Note_on_c, 10, 60, 108
11, 1022560, Note_off_c, 10, 60, 64
11, 1022640, Note_on_c, 10, 58, 127
11, 1022760, Note_off_c, 10, 58, 64
11, 1022760, Note_on_c, 10, 60, 108
11, 1022880, Note_off_c, 10, 60, 64
11, 1022880, Note_on_c, 10, 62, 108
11, 1023000, Note_off_c, 10, 62, 64
11, 1023000, Note_on_c, 10, 63, 108
11, 1023115, Note_off_c, 10, 63, 64
11, 1023120, Note_on_c, 10, 65, 108
11, 1023200, Note_off_c, 10, 65, 64
11, 1023360, Note_on_c, 10, 65, 108
11, 1023420, Note_off_c, 10, 65, 64
11, 1023420, Note_on_c, 10, 67, 108
11, 1023595, Note_off_c, 10, 67, 64
11, 1023600, Note_on_c, 10, 60, 127
11, 1023680, Note_off_c, 10, 60, 64
11, 1023840, Note_on_c, 10, 60, 108
11, 1023900, Note_off_c, 10, 60, 64
11, 1023900, Note_on_c, 10, 65, 108
11, 1024075, Note_off_c, 10, 65, 64
11, 1024080, Note_on_c, 10, 58, 108
11, 1024480, Note_off_c, 10, 58, 64
11, 1024560, Note_on_c, 10, 72, 108
11, 1025040, Note_off_c, 10, 72, 64
11, 1025040, Note_on_c, 10, 77, 108
11, 1025440, Note_off_c, 10, 77, 64
11, 1025520, Note_on_c, 10, 76, 108
11, 1026000, Note_off_c, 10, 76, 64
11, 1026000, Note_on_c, 10, 82, 108
11, 1026400, Note_off_c, 10, 82, 64
11, 1026480, Note_on_c, 10, 81, 108
11, 1026960, Note_off_c, 10, 81, 64
11, 1026960, Note_on_c, 10, 77, 108
11, 1027360, Note_off_c, 10, 77, 64
11, 1027440, Note_on_c, 10, 76, 108
11, 1027920, Note_off_c, 10, 76, 64
11, 1027920, Note_on_c, 10, 77, 108
11, 1028320, Note_off_c, 10, 77, 64
11, 1028400, Note_on_c, 10, 72, 108
11, 1028880, Note_off_c, 10, 72, 64
11, 1028880, Note_on_c, 10, 77, 108
11, 1029280, Note_off_c, 10, 77, 64
11, 1029360, Note_on_c, 10, 76, 108
11, 1029840, Note_off_c, 10, 76, 64
11, 1029840, Note_on_c, 10, 82, 108
11, 1030240, Note_off_c, 10, 82, 64
11, 1030320, Note_on_c, 10, 81, 108
11, 1030800, Note_off_c, 10, 81, 64
11, 1030800, Note_on_c, 10, 77, 108
11, 1031200, Note_off_c, 10, 77, 64
11, 1031280, Note_on_c, 10, 76, 108
11, 1031760, Note_off_c, 10, 76, 64
11, 1031760, Note_on_c, 10, 77, 108
11, 1032160, Note_off_c, 10, 77, 64
11, 1032240, Note_on_c, 10, 72, 108
11, 1032720, Note_off_c, 10, 72, 64
11, 1032720, Note_on_c, 10, 77, 108
11, 1033200, Note_off_c, 10, 77, 64
11, 1033200, Note_on_c, 10, 76, 108
11, 1033840, Note_off_c, 10, 76, 64
11, 1033920, Note_on_c, 10, 81, 108
11, 1034155, Note_off_c, 10, 81, 64
11, 1034160, Note_on_c, 10, 81, 108
11, 1034220, Note_off_c, 10, 81, 64
11, 1034220, Note_on_c, 10, 79, 108
11, 1034280, Note_off_c, 10, 79, 64
11, 1034280, Note_on_c, 10, 77, 108
11, 1034340, Note_off_c, 10, 77, 64
11, 1034340, Note_on_c, 10, 79, 108
11, 1034395, Note_off_c, 10, 79, 64
11, 1034640, Note_on_c, 10, 79, 108
11, 1034700, Note_off_c, 10, 79, 64
11, 1034700, Note_on_c, 10, 77, 108
11, 1034760, Note_off_c, 10, 77, 64
11, 1034760, Note_on_c, 10, 76, 108
11, 1034820, Note_off_c, 10, 76, 64
11, 1034820, Note_on_c, 10, 77, 108
11, 1034875, Note_off_c, 10, 77, 64
11, 1035120, Note_on_c, 10, 77, 108
11, 1035180, Note_off_c, 10, 77, 64
11, 1035180, Note_on_c, 10, 76, 108
11, 1035240, Note_off_c, 10, 76, 64
11, 1035240, Note_on_c, 10, 74, 108
11, 1035300, Note_off_c, 10, 74, 64
11, 1035300, Note_on_c, 10, 76, 108
11, 1035355, Note_off_c, 10, 76, 64
11, 1035600, Note_on_c, 10, 76, 108
11, 1035660, Note_off_c, 10, 76, 64
11, 1035660, Note_on_c, 10, 74, 108
11, 1035720, Note_off_c, 10, 74, 64
11, 1035720, Note_on_c, 10, 72, 108
11, 1035780, Note_off_c, 10, 72, 64
11, 1035780, Note_on_c, 10, 74, 108
11, 1035835, Note_off_c, 10, 74, 64
11, 1036080, Note_on_c, 10, 72, 108
11, 1036315, Note_off_c, 10, 72, 64
11, 1036320, Note_on_c, 10, 72, 108
11, 1036555, Note_off_c, 10, 72, 64
11, 1036560, Note_on_c, 10, 77, 108
11, 1036795, Note_off_c, 10, 77, 64
11, 1036800, Note_on_c, 10, 77, 108
11, 1037035, Note_off_c, 10, 77, 64
11, 1037040, Note_on_c, 10, 76, 108
11, 1037275, Note_off_c, 10, 76, 64
11, 1037280, Note_on_c, 10, 76, 108
11, 1037515, Note_off_c, 10, 76, 64
11, 1037760, Note_on_c, 10, 81, 108
11, 1037995, Note_off_c, 10, 81, 64
11, 1038240, Note_on_c, 10, 79, 108
11, 1038475, Note_off_c, 10, 79, 64
11, 1038720, Note_on_c, 10, 77, 108
11, 1038955, Note_off_c, 10, 77, 64
11, 1039200, Note_on_c, 10, 76, 108
11, 1039435, Note_off_c, 10, 76, 64
11, 1039680, Note_on_c, 10, 74, 108
11, 1039915, Note_off_c, 10, 74, 64
11, 1039920, Note_on_c, 10, 72, 108
11, 1040560, Note_off_c, 10, 72, 64
11, 1040640, Note_on_c, 10, 76, 108
11, 1040875, Note_off_c, 10, 76, 64
11, 1040880, Note_on_c, 10, 76, 108
11, 1041520, Note_off_c, 10, 76, 64
11, 1041600, Note_on_c, 10, 72, 108
11, 1041835, Note_off_c, 10, 72, 64
11, 1041840, Note_on_c, 10, 72, 108
11, 1042480, Note_off_c, 10, 72, 64
11, 1042560, Note_on_c, 10, 79, 108
11, 1042795, Note_off_c, 10, 79, 64
11, 1042800, Note_on_c, 10, 79, 108
11, 1043440, Note_off_c, 10, 79, 64
11, 1043520, Note_on_c, 10, 72, 108
11, 1043755, Note_off_c, 10, 72, 64
11, 1043760, Note_on_c, 10, 72, 108
11, 1043995, Note_off_c, 10, 72, 64
11, 1044000, Note_on_c, 10, 84, 108
11, 1044235, Note_off_c, 10, 84, 64
11, 1044240, Note_on_c, 10, 84, 108
11, 1044475, Note_off_c, 10, 84, 64
11, 1044480, Note_on_c, 10, 76, 108
11, 1044715, Note_off_c, 10, 76, 64
11, 1044720, Note_on_c, 10, 76, 108
11, 1044955, Note_off_c, 10, 76, 64
11, 1044960, Note_on_c, 10, 88, 108
11, 1045195, Note_off_c, 10, 88, 64
11, 1045200, Note_on_c, 10, 88, 108
11, 1045435, Note_off_c, 10, 88, 64
11, 1045440, Note_on_c, 10, 76, 108
11, 1045675, Note_off_c, 10, 76, 64
11, 1045680, Note_on_c, 10, 76, 108
11, 1046520, Note_off_c, 10, 76, 64
11, 1046640, Note_on_c, 10, 72, 108
11, 1047355, Note_off_c, 10, 72, 64
11, 1049040, Note_on_c, 10, 72, 45
11, 1049160, Note_off_c, 10, 72, 64
11, 1049520, Note_on_c, 10, 77, 45
11, 1049640, Note_off_c, 10, 77, 64
11, 1050000, Note_on_c, 10, 72, 45
11, 1050120, Note_off_c, 10, 72, 64
11, 1050480, Note_on_c, 10, 74, 45
11, 1050600, Note_off_c, 10, 74, 64
11, 1050960, Note_on_c, 10, 72, 45
11, 1051080, Note_off_c, 10, 72, 64
11, 1051440, Note_on_c, 10, 69, 45
11, 1051560, Note_off_c, 10, 69, 64
11, 1051920, Note_on_c, 10, 70, 45
11, 1052040, Note_off_c, 10, 70, 64
11, 1052400, Note_on_c, 10, 69, 45
11, 1052520, Note_off_c, 10, 69, 64
11, 1052880, Note_on_c, 10, 65, 45
11, 1053000, Note_off_c, 10, 65, 64
11, 1053360, Note_on_c, 10, 67, 45
11, 1053480, Note_off_c, 10, 67, 64
11, 1053840, Note_on_c, 10, 69, 45
11, 1053960, Note_off_c, 10, 69, 64
11, 1054320, Note_on_c, 10, 65, 45
11, 1054440, Note_off_c, 10, 65, 64
11, 1054800, Note_on_c, 10, 67, 45
11, 1054920, Note_off_c, 10, 67, 64
11, 1055280, Note_on_c, 10, 69, 45
11, 1055400, Note_off_c, 10, 69, 64
11, 1055760, Note_on_c, 10, 65, 45
11, 1055880, Note_off_c, 10, 65, 64
11, 1056240, Note_on_c, 10, 67, 45
11, 1056360, Note_off_c, 10, 67, 64
11, 1056720, Note_on_c, 10, 65, 45
11, 1056840, Note_off_c, 10, 65, 64
11, 1057200, Note_on_c, 10, 62, 45
11, 1057320, Note_off_c, 10, 62, 64
11, 1057680, Note_on_c, 10, 64, 45
11, 1057800, Note_off_c, 10, 64, 64
11, 1058160, Note_on_c, 10, 62, 45
11, 1058280, Note_off_c, 10, 62, 64
11, 1058640, Note_on_c, 10, 57, 45
11, 1058760, Note_off_c, 10, 57, 64
11, 1059120, Note_on_c, 10, 57, 45
11, 1059240, Note_off_c, 10, 57, 64
11, 1059600, Note_on_c, 10, 57, 45
11, 1059720, Note_off_c, 10, 57, 64
11, 1060560, Note_on_c, 10, 69, 45
11, 1061040, Note_off_c, 10, 69, 64
11, 1061040, Note_on_c, 10, 74, 45
11, 1062000, Note_off_c, 10, 74, 64
11, 1062000, Note_on_c, 10, 78, 45
11, 1062480, Note_off_c, 10, 78, 64
11, 1062480, Note_on_c, 10, 81, 45
11, 1062960, Note_off_c, 10, 81, 64
11, 1062960, Note_on_c, 10, 78, 45
11, 1063360, Note_off_c, 10, 78, 64
11, 1063440, Note_on_c, 10, 78, 45
11, 1063920, Note_off_c, 10, 78, 64
11, 1063920, Note_on_c, 10, 81, 45
11, 1064400, Note_off_c, 10, 81, 64
11, 1064400, Note_on_c, 10, 85, 48
11, 1064880, Note_off_c, 10, 85, 64
11, 1064880, Note_on_c, 10, 86, 52
11, 1065120, Note_off_c, 10, 86, 64
11, 1065120, Note_on_c, 10, 83, 54
11, 1065360, Note_off_c, 10, 83, 64
11, 1065360, Note_on_c, 10, 81, 56
11, 1065840, Note_off_c, 10, 81, 64
11, 1065840, Note_on_c, 10, 85, 60
11, 1066320, Note_off_c, 10, 85, 64
11, 1066320, Note_on_c, 10, 86, 64
11, 1066560, Note_off_c, 10, 86, 64
11, 1066560, Note_on_c, 10, 82, 66
11, 1066800, Note_off_c, 10, 82, 64
11, 1066800, Note_on_c, 10, 81, 68
11, 1067280, Note_off_c, 10, 81, 64
11, 1067280, Note_on_c, 10, 84, 72
11, 1067760, Note_off_c, 10, 84, 64
11, 1067760, Note_on_c, 10, 86, 76
11, 1068000, Note_off_c, 10, 86, 64
11, 1068000, Note_on_c, 10, 82, 78
11, 1068240, Note_off_c, 10, 82, 64
11, 1068240, Note_on_c, 10, 81, 80
11, 1068720, Note_off_c, 10, 81, 64
11, 1068720, Note_on_c, 10, 84, 84
11, 1069200, Note_off_c, 10, 84, 64
11, 1069200, Note_on_c, 10, 82, 88
11, 1069440, Note_off_c, 10, 82, 64
11, 1069440, Note_on_c, 10, 79, 90
11, 1069675, Note_off_c, 10, 79, 64
11, 1069680, Note_on_c, 10, 69, 92
11, 1069680, Note_on_c, 10, 77, 92
11, 1070080, Note_off_c, 10, 77, 64
11, 1070080, Note_off_c, 10, 69, 64
11, 1073040, Note_on_c, 10, 76, 45
11, 1073760, Note_off_c, 10, 76, 64
11, 1076880, Program_c, 10, 45
11, 1076880, Note_on_c, 10, 65, 30
11, 1077280, Note_off_c, 10, 65, 64
11, 1078320, Note_on_c, 10, 65, 30
11, 1078720, Note_off_c, 10, 65, 64
11, 1079760, Note_on_c, 10, 65, 30
11, 1080160, Note_off_c, 10, 65, 64
11, 1081200, Note_on_c, 10, 65, 30
11, 1081600, Note_off_c, 10, 65, 64
11, 1082640, Note_on_c, 10, 65, 30
11, 1083040, Note_off_c, 10, 65, 64
11, 1084080, Note_on_c, 10, 65, 30
11, 1084480, Note_off_c, 10, 65, 64
11, 1085520, Note_on_c, 10, 65, 30
11, 1085920, Note_off_c, 10, 65, 64
11, 1086960, Note_on_c, 10, 65, 30
11, 1087360, Note_off_c, 10, 65, 64
11, 1087920, Program_c, 10, 48
11, 1087920, Note_on_c, 10, 72, 60
11, 1088400, Note_off_c, 10, 72, 64
11, 1088400, Note_on_c, 10, 77, 60
11, 1088880, Note_off_c, 10, 77, 64
11, 1088880, Note_on_c, 10, 72, 62
11, 1089360, Note_off_c, 10, 72, 64
11, 1089360, Note_on_c, 10, 74, 65
11, 1089840, Note_off_c, 10, 74, 64
11, 1089840, Note_on_c, 10, 72, 68
11, 1090320, Note_off_c, 10, 72, 64
11, 1090320, Note_on_c, 10, 69, 71
11, 1090800, Note_off_c, 10, 69, 64
11, 1090800, Note_on_c, 10, 70, 74
11, 1091280, Note_off_c, 10, 70, 64
11, 1091280, Note_on_c, 10, 69, 77
11, 1091760, Note_off_c, 10, 69, 64
11, 1091760, Note_on_c, 10, 65, 80
11, 1092240, Note_off_c, 10, 65, 64
11, 1092240, Note_on_c, 10, 67, 83
11, 1092720, Note_off_c, 10, 67, 64
11, 1092720, Note_on_c, 10, 69, 86
11, 1093200, Note_off_c, 10, 69, 64
11, 1093200, Note_on_c, 10, 65, 89
11, 1093600, Note_off_c, 10, 65, 64
11, 1093680, Note_on_c, 10, 84, 92
11, 1093800, Note_off_c, 10, 84, 64
11, 1094160, Note_on_c, 10, 89, 92
11, 1094280, Note_off_c, 10, 89, 64
11, 1094640, Note_on_c, 10, 84, 92
11, 1094760, Note_off_c, 10, 84, 64
11, 1095120, Note_on_c, 10, 86, 92
11, 1095240, Note_off_c, 10, 86, 64
11, 1095600, Note_on_c, 10, 84, 92
11, 1095720, Note_off_c, 10, 84, 64
11, 1096080, Note_on_c, 10, 81, 92
11, 1096200, Note_off_c, 10, 81, 64
11, 1096560, Note_on_c, 10, 82, 92
11, 1096680, Note_off_c, 10, 82, 64
11, 1097040, Note_on_c, 10, 81, 92
11, 1097160, Note_off_c, 10, 81, 64
11, 1097520, Note_on_c, 10, 77, 92
11, 1097640, Note_off_c, 10, 77, 64
11, 1098000, Note_on_c, 10, 79, 92
11, 1098120, Note_off_c, 10, 79, 64
11, 1098480, Note_on_c, 10, 81, 92
11, 1098880, Note_off_c, 10, 81, 64
11, 1098960, Note_on_c, 10, 77, 92
11, 1099360, Note_off_c, 10, 77, 64
11, 1099440, Note_on_c, 10, 79, 92
11, 1099840, Note_off_c, 10, 79, 64
11, 1099920, Note_on_c, 10, 81, 92
11, 1100320, Note_off_c, 10, 81, 64
11, 1100400, Note_on_c, 10, 77, 92
11, 1100800, Note_off_c, 10, 77, 64
11, 1100880, Note_on_c, 10, 79, 92
11, 1101280, Note_off_c, 10, 79, 64
11, 1101360, Note_on_c, 10, 81, 92
11, 1101760, Note_off_c, 10, 81, 64
11, 1101840, Note_on_c, 10, 77, 92
11, 1102240, Note_off_c, 10, 77, 64
11, 1102320, Note_on_c, 10, 79, 92
11, 1102720, Note_off_c, 10, 79, 64
11, 1102800, Note_on_c, 10, 81, 92
11, 1104120, Note_off_c, 10, 81, 64
11, 1104240, Note_on_c, 10, 79, 92
11, 1105080, Note_off_c, 10, 79, 64
11, 1105200, Note_on_c, 10, 77, 92
11, 1105600, Note_off_c, 10, 77, 64
11, 1105680, Note_on_c, 10, 76, 92
11, 1106520, Note_off_c, 10, 76, 64
11, 1106640, Note_on_c, 10, 74, 92
11, 1107040, Note_off_c, 10, 74, 64
11, 1107120, Note_on_c, 10, 72, 92
11, 1107960, Note_off_c, 10, 72, 64
11, 1108080, Note_on_c, 10, 76, 92
11, 1108480, Note_off_c, 10, 76, 64
11, 1108560, Note_on_c, 10, 77, 92
11, 1109880, Note_off_c, 10, 77, 64
11, 1110000, Note_on_c, 10, 79, 92
11, 1111320, Note_off_c, 10, 79, 64
11, 1111440, Note_on_c, 10, 81, 92
11, 1112760, Note_off_c, 10, 81, 64
11, 1112880, Note_on_c, 10, 79, 92
11, 1114200, Note_off_c, 10, 79, 64
11, 1114320, Note_on_c, 10, 81, 92
11, 1114720, Note_off_c, 10, 81, 64
11, 1115280, Note_on_c, 10, 81, 92
11, 1115680, Note_off_c, 10, 81, 64
11, 1115760, Note_on_c, 10, 79, 92
11, 1115820, Note_off_c, 10, 79, 64
11, 1115820, Note_on_c, 10, 81, 92
11, 1115880, Note_off_c, 10, 81, 64
11, 1115880, Note_on_c, 10, 79, 92
11, 1116640, Note_off_c, 10, 79, 64
11, 1116720, Note_on_c, 10, 77, 92
11, 1117120, Note_off_c, 10, 77, 64
11, 1117200, Note_on_c, 10, 76, 92
11, 1117260, Note_off_c, 10, 76, 64
11, 1117260, Note_on_c, 10, 77, 92
11, 1117320, Note_off_c, 10, 77, 64
11, 1117320, Note_on_c, 10, 76, 92
11, 1118080, Note_off_c, 10, 76, 64
11, 1118160, Note_on_c, 10, 74, 92
11, 1118560, Note_off_c, 10, 74, 64
11, 1118640, Note_on_c, 10, 72, 92
11, 1119480, Note_off_c, 10, 72, 64
11, 1119600, Note_on_c, 10, 76, 92
11, 1120000, Note_off_c, 10, 76, 64
11, 1120080, Note_on_c, 10, 77, 92
11, 1121400, Note_off_c, 10, 77, 64
11, 1121520, Note_on_c, 10, 79, 92
11, 1122840, Note_off_c, 10, 79, 64
11, 1122960, Note_on_c, 10, 81, 92
11, 1124280, Note_off_c, 10, 81, 64
11, 1124400, Note_on_c, 10, 79, 92
11, 1125720, Note_off_c, 10, 79, 64
11, 1125840, Note_on_c, 10, 65, 108
11, 1125840, Note_on_c, 10, 77, 108
11, 1126240, Note_off_c, 10, 77, 64
11, 1126240, Note_off_c, 10, 65, 64
11, 1128720, Note_on_c, 10, 69, 108
11, 1128800, Note_off_c, 10, 69, 64
11, 1128960, Note_on_c, 10, 72, 108
11, 1129040, Note_off_c, 10, 72, 64
11, 1129200, Note_on_c, 10, 77, 108
11, 1129280, Note_off_c, 10, 77, 64
11, 1129440, Note_on_c, 10, 81, 108
11, 1129520, Note_off_c, 10, 81, 64
11, 1129680, Note_on_c, 10, 84, 108
11, 1130080, Note_off_c, 10, 84, 64
11, 1130160, Note_on_c, 10, 67, 108
11, 1130160, Note_on_c, 10, 76, 108
11, 1130560, Note_off_c, 10, 76, 64
11, 1130560, Note_off_c, 10, 67, 64
11, 1130640, Note_on_c, 10, 67, 108
11, 1130640, Note_on_c, 10, 76, 108
11, 1131040, Note_off_c, 10, 76, 64
11, 1131040, Note_off_c, 10, 67, 64
11, 1131120, Note_on_c, 10, 67, 108
11, 1131120, Note_on_c, 10, 76, 108
11, 1131520, Note_off_c, 10, 76, 64
11, 1131520, Note_off_c, 10, 67, 64
11, 1131600, Note_on_c, 10, 65, 108
11, 1131600, Note_on_c, 10, 69, 108
11, 1131600, Note_on_c, 10, 77, 108
11, 1132000, Note_off_c, 10, 77, 64
11, 1132000, Note_off_c, 10, 69, 64
11, 1132000, Note_off_c, 10, 65, 64
11, 1134480, Note_on_c, 10, 69, 108
11, 1134560, Note_off_c, 10, 69, 64
11, 1134720, Note_on_c, 10, 72, 108
11, 1134800, Note_off_c, 10, 72, 64
11, 1134960, Note_on_c, 10, 77, 108
11, 1135040, Note_off_c, 10, 77, 64
11, 1135200, Note_on_c, 10, 81, 108
11, 1135280, Note_off_c, 10, 81, 64
11, 1135440, Note_on_c, 10, 84, 108
11, 1135840, Note_off_c, 10, 84, 64
11, 1135920, Note_on_c, 10, 67, 108
11, 1135920, Note_on_c, 10, 76, 108
11, 1136320, Note_off_c, 10, 76, 64
11, 1136320, Note_off_c, 10, 67, 64
11, 1136400, Note_on_c, 10, 67, 108
11, 1136400, Note_on_c, 10, 76, 108
11, 1136800, Note_off_c, 10, 76, 64
11, 1136800, Note_off_c, 10, 67, 64
11, 1136880, Note_on_c, 10, 67, 108
11, 1136880, Note_on_c, 10, 76, 108
11, 1137280, Note_off_c, 10, 76, 64
11, 1137280, Note_off_c, 10, 67, 64
11, 1145520, Note_on_c, 10, 72, 30
11, 1146000, Note_off_c, 10, 72, 64
11, 1146000, Note_on_c, 10, 78, 30
11, 1146480, Note_off_c, 10, 78, 64
11, 1146480, Note_on_c, 10, 77, 30
11, 1146880, Note_off_c, 10, 77, 64
11, 1147440, Note_on_c, 10, 72, 30
11, 1147920, Note_off_c, 10, 72, 64
11, 1147920, Note_on_c, 10, 78, 30
11, 1148400, Note_off_c, 10, 78, 64
11, 1148400, Note_on_c, 10, 77, 30
11, 1148800, Note_off_c, 10, 77, 64
11, 1149360, Note_on_c, 10, 74, 30
11, 1149440, Note_off_c, 10, 74, 64
11, 1149600, Note_on_c, 10, 75, 30
11, 1149680, Note_off_c, 10, 75, 64
11, 1149840, Note_on_c, 10, 77, 30
11, 1149920, Note_off_c, 10, 77, 64
11, 1150080, Note_on_c, 10, 78, 30
11, 1150160, Note_off_c, 10, 78, 64
11, 1150320, Note_on_c, 10, 80, 30
11, 1150400, Note_off_c, 10, 80, 64
11, 1150560, Note_on_c, 10, 82, 30
11, 1150640, Note_off_c, 10, 82, 64
11, 1150800, Note_on_c, 10, 83, 30
11, 1151200, Note_off_c, 10, 83, 64
11, 1166640, Note_on_c, 10, 74, 45
11, 1167120, Note_off_c, 10, 74, 64
11, 1167120, Note_on_c, 10, 80, 45
11, 1167600, Note_off_c, 10, 80, 64
11, 1167600, Note_on_c, 10, 78, 45
11, 1168000, Note_off_c, 10, 78, 64
11, 1168560, Note_on_c, 10, 74, 45
11, 1169040, Note_off_c, 10, 74, 64
11, 1169040, Note_on_c, 10, 80, 45
11, 1169520, Note_off_c, 10, 80, 64
11, 1169520, Note_on_c, 10, 78, 45
11, 1169920, Note_off_c, 10, 78, 64
11, 1170480, Note_on_c, 10, 76, 45
11, 1170560, Note_off_c, 10, 76, 64
11, 1170720, Note_on_c, 10, 77, 45
11, 1170800, Note_off_c, 10, 77, 64
11, 1170960, Note_on_c, 10, 79, 45
11, 1171040, Note_off_c, 10, 79, 64
11, 1171200, Note_on_c, 10, 80, 45
11, 1171280, Note_off_c, 10, 80, 64
11, 1171440, Note_on_c, 10, 82, 45
11, 1171520, Note_off_c, 10, 82, 64
11, 1171680, Note_on_c, 10, 84, 45
11, 1171760, Note_off_c, 10, 84, 64
11, 1171920, Note_on_c, 10, 85, 45
11, 1172320, Note_off_c, 10, 85, 64
11, 1177680, Note_on_c, 10, 77, 92
11, 1177680, Note_on_c, 10, 89, 92
11, 1177795, Note_off_c, 10, 89, 64
11, 1177795, Note_off_c, 10, 77, 64
11, 1177800, Note_on_c, 10, 77, 92
11, 1177800, Note_on_c, 10, 89, 92
11, 1177915, Note_off_c, 10, 89, 64
11, 1177915, Note_off_c, 10, 77, 64
11, 1177920, Note_on_c, 10, 77, 92
11, 1177920, Note_on_c, 10, 89, 92
11, 1178035, Note_off_c, 10, 89, 64
11, 1178035, Note_off_c, 10, 77, 64
11, 1178040, Note_on_c, 10, 77, 92
11, 1178040, Note_on_c, 10, 89, 92
11, 1178155, Note_off_c, 10, 89, 64
11, 1178155, Note_off_c, 10, 77, 64
11, 1178160, Note_on_c, 10, 77, 92
11, 1178160, Note_on_c, 10, 89, 92
11, 1178275, Note_off_c, 10, 89, 64
11, 1178275, Note_off_c, 10, 77, 64
11, 1178280, Note_on_c, 10, 77, 92
11, 1178280, Note_on_c, 10, 89, 92
11, 1178395, Note_off_c, 10, 89, 64
11, 1178395, Note_off_c, 10, 77, 64
11, 1178400, Note_on_c, 10, 77, 92
11, 1178400, Note_on_c, 10, 89, 92
11, 1178515, Note_off_c, 10, 89, 64
11, 1178515, Note_off_c, 10, 77, 64
11, 1178520, Note_on_c, 10, 77, 92
11, 1178520, Note_on_c, 10, 89, 92
11, 1178635, Note_off_c, 10, 89, 64
11, 1178635, Note_off_c, 10, 77, 64
11, 1178640, Note_on_c, 10, 77, 92
11, 1178640, Note_on_c, 10, 89, 92
11, 1178755, Note_off_c, 10, 89, 64
11, 1178755, Note_off_c, 10, 77, 64
11, 1178760, Note_on_c, 10, 77, 92
11, 1178760, Note_on_c, 10, 89, 92
11, 1178875, Note_off_c, 10, 89, 64
11, 1178875, Note_off_c, 10, 77, 64
11, 1178880, Note_on_c, 10, 77, 92
11, 1178880, Note_on_c, 10, 89, 92
11, 1178995, Note_off_c, 10, 89, 64
11, 1178995, Note_off_c, 10, 77, 64
11, 1179000, Note_on_c, 10, 77, 92
11, 1179000, Note_on_c, 10, 89, 92
11, 1179115, Note_off_c, 10, 89, 64
11, 1179115, Note_off_c, 10, 77, 64
11, 1179120, Note_on_c, 10, 77, 92
11, 1179120, Note_on_c, 10, 89, 92
11, 1179235, Note_off_c, 10, 89, 64
11, 1179235, Note_off_c, 10, 77, 64
11, 1179240, Note_on_c, 10, 77, 92
11, 1179240, Note_on_c, 10, 89, 92
11, 1179355, Note_off_c, 10, 89, 64
11, 1179355, Note_off_c, 10, 77, 64
11, 1179360, Note_on_c, 10, 77, 92
11, 1179360, Note_on_c, 10, 89, 92
11, 1179475, Note_off_c, 10, 89, 64
11, 1179475, Note_off_c, 10, 77, 64
11, 1179480, Note_on_c, 10, 77, 92
11, 1179480, Note_on_c, 10, 89, 92
11, 1179595, Note_off_c, 10, 89, 64
11, 1179595, Note_off_c, 10, 77, 64
11, 1179600, Note_on_c, 10, 77, 92
11, 1179600, Note_on_c, 10, 89, 92
11, 1179715, Note_off_c, 10, 89, 64
11, 1179715, Note_off_c, 10, 77, 64
11, 1179720, Note_on_c, 10, 77, 92
11, 1179720, Note_on_c, 10, 89, 92
11, 1179835, Note_off_c, 10, 89, 64
11, 1179835, Note_off_c, 10, 77, 64
11, 1179840, Note_on_c, 10, 77, 92
11, 1179840, Note_on_c, 10, 89, 92
11, 1179955, Note_off_c, 10, 89, 64
11, 1179955, Note_off_c, 10, 77, 64
11, 1179960, Note_on_c, 10, 77, 92
11, 1179960, Note_on_c, 10, 89, 92
11, 1180075, Note_off_c, 10, 89, 64
11, 1180075, Note_off_c, 10, 77, 64
11, 1180080, Note_on_c, 10, 77, 92
11, 1180080, Note_on_c, 10, 89, 92
11, 1180195, Note_off_c, 10, 89, 64
11, 1180195, Note_off_c, 10, 77, 64
11, 1180200, Note_on_c, 10, 77, 92
11, 1180200, Note_on_c, 10, 89, 92
11, 1180315, Note_off_c, 10, 89, 64
11, 1180315, Note_off_c, 10, 77, 64
11, 1180320, Note_on_c, 10, 77, 92
11, 1180320, Note_on_c, 10, 89, 92
11, 1180435, Note_off_c, 10, 89, 64
11, 1180435, Note_off_c, 10, 77, 64
11, 1180440, Note_on_c, 10, 77, 92
11, 1180440, Note_on_c, 10, 89, 92
11, 1180555, Note_off_c, 10, 89, 64
11, 1180555, Note_off_c, 10, 77, 64
11, 1180560, Note_on_c, 10, 77, 92
11, 1180560, Note_on_c, 10, 89, 92
11, 1180675, Note_off_c, 10, 89, 64
11, 1180675, Note_off_c, 10, 77, 64
11, 1180680, Note_on_c, 10, 77, 92
11, 1180680, Note_on_c, 10, 89, 92
11, 1180795, Note_off_c, 10, 89, 64
11, 1180795, Note_off_c, 10, 77, 64
11, 1180800, Note_on_c, 10, 77, 92
11, 1180800, Note_on_c, 10, 89, 92
11, 1180915, Note_off_c, 10, 89, 64
11, 1180915, Note_off_c, 10, 77, 64
11, 1180920, Note_on_c, 10, 77, 92
11, 1180920, Note_on_c, 10, 89, 92
11, 1181035, Note_off_c, 10, 89, 64
11, 1181035, Note_off_c, 10, 77, 64
11, 1181040, Note_on_c, 10, 77, 92
11, 1181040, Note_on_c, 10, 89, 92
11, 1181155, Note_off_c, 10, 89, 64
11, 1181155, Note_off_c, 10, 77, 64
11, 1181160, Note_on_c, 10, 77, 92
11, 1181160, Note_on_c, 10, 89, 92
11, 1181275, Note_off_c, 10, 89, 64
11, 1181275, Note_off_c, 10, 77, 64
11, 1181280, Note_on_c, 10, 77, 92
11, 1181280, Note_on_c, 10, 89, 92
11, 1181395, Note_off_c, 10, 89, 64
11, 1181395, Note_off_c, 10, 77, 64
11, 1181400, Note_on_c, 10, 77, 92
11, 1181400, Note_on_c, 10, 89, 92
11, 1181515, Note_off_c, 10, 89, 64
11, 1181515, Note_off_c, 10, 77, 64
11, 1181520, Note_on_c, 10, 77, 92
11, 1181520, Note_on_c, 10, 89, 92
11, 1181635, Note_off_c, 10, 89, 64
11, 1181635, Note_off_c, 10, 77, 64
11, 1181640, Note_on_c, 10, 77, 92
11, 1181640, Note_on_c, 10, 89, 92
11, 1181755, Note_off_c, 10, 89, 64
11, 1181755, Note_off_c, 10, 77, 64
11, 1181760, Note_on_c, 10, 77, 92
11, 1181760, Note_on_c, 10, 89, 92
11, 1181875, Note_off_c, 10, 89, 64
11, 1181875, Note_off_c, 10, 77, 64
11, 1181880, Note_on_c, 10, 77, 92
11, 1181880, Note_on_c, 10, 89, 92
11, 1181995, Note_off_c, 10, 89, 64
11, 1181995, Note_off_c, 10, 77, 64
11, 1182000, Note_on_c, 10, 77, 92
11, 1182000, Note_on_c, 10, 89, 92
11, 1182115, Note_off_c, 10, 89, 64
11, 1182115, Note_off_c, 10, 77, 64
11, 1182120, Note_on_c, 10, 77, 92
11, 1182120, Note_on_c, 10, 89, 92
11, 1182235, Note_off_c, 10, 89, 64
11, 1182235, Note_off_c, 10, 77, 64
11, 1182240, Note_on_c, 10, 77, 92
11, 1182240, Note_on_c, 10, 89, 92
11, 1182355, Note_off_c, 10, 89, 64
11, 1182355, Note_off_c, 10, 77, 64
11, 1182360, Note_on_c, 10, 77, 92
11, 1182360, Note_on_c, 10, 89, 92
11, 1182475, Note_off_c, 10, 89, 64
11, 1182475, Note_off_c, 10, 77, 64
11, 1182480, Note_on_c, 10, 77, 92
11, 1182480, Note_on_c, 10, 89, 92
11, 1182595, Note_off_c, 10, 89, 64
11, 1182595, Note_off_c, 10, 77, 64
11, 1182600, Note_on_c, 10, 77, 92
11, 1182600, Note_on_c, 10, 89, 92
11, 1182715, Note_off_c, 10, 89, 64
11, 1182715, Note_off_c, 10, 77, 64
11, 1182720, Note_on_c, 10, 77, 92
11, 1182720, Note_on_c, 10, 89, 92
11, 1182835, Note_off_c, 10, 89, 64
11, 1182835, Note_off_c, 10, 77, 64
11, 1182840, Note_on_c, 10, 77, 92
11, 1182840, Note_on_c, 10, 89, 92
11, 1182955, Note_off_c, 10, 89, 64
11, 1182955, Note_off_c, 10, 77, 64
11, 1182960, Note_on_c, 10, 84, 127
11, 1183315, Note_off_c, 10, 84, 64
11, 1183320, Note_on_c, 10, 80, 127
11, 1183435, Note_off_c, 10, 80, 64
11, 1183440, Note_on_c, 10, 77, 127
11, 1183840, Note_off_c, 10, 77, 64
11, 1183920, Note_on_c, 10, 72, 127
11, 1184275, Note_off_c, 10, 72, 64
11, 1184280, Note_on_c, 10, 68, 127
11, 1184395, Note_off_c, 10, 68, 64
11, 1184400, Note_on_c, 10, 65, 127
11, 1184800, Note_off_c, 10, 65, 64
11, 1184880, Note_on_c, 10, 65, 127
11, 1185280, Note_off_c, 10, 65, 64
11, 1185360, Note_on_c, 10, 76, 92
11, 1185360, Note_on_c, 10, 88, 92
11, 1185475, Note_off_c, 10, 88, 64
11, 1185475, Note_off_c, 10, 76, 64
11, 1185480, Note_on_c, 10, 76, 92
11, 1185480, Note_on_c, 10, 88, 92
11, 1185595, Note_off_c, 10, 88, 64
11, 1185595, Note_off_c, 10, 76, 64
11, 1185600, Note_on_c, 10, 76, 92
11, 1185600, Note_on_c, 10, 88, 92
11, 1185715, Note_off_c, 10, 88, 64
11, 1185715, Note_off_c, 10, 76, 64
11, 1185720, Note_on_c, 10, 76, 92
11, 1185720, Note_on_c, 10, 88, 92
11, 1185835, Note_off_c, 10, 88, 64
11, 1185835, Note_off_c, 10, 76, 64
11, 1185840, Note_on_c, 10, 76, 92
11, 1185840, Note_on_c, 10, 88, 92
11, 1185955, Note_off_c, 10, 88, 64
11, 1185955, Note_off_c, 10, 76, 64
11, 1185960, Note_on_c, 10, 76, 92
11, 1185960, Note_on_c, 10, 88, 92
11, 1186075, Note_off_c, 10, 88, 64
11, 1186075, Note_off_c, 10, 76, 64
11, 1186080, Note_on_c, 10, 76, 92
11, 1186080, Note_on_c, 10, 88, 92
11, 1186195, Note_off_c, 10, 88, 64
11, 1186195, Note_off_c, 10, 76, 64
11, 1186200, Note_on_c, 10, 76, 92
11, 1186200, Note_on_c, 10, 88, 92
11, 1186315, Note_off_c, 10, 88, 64
11, 1186315, Note_off_c, 10, 76, 64
11, 1186320, Note_on_c, 10, 76, 92
11, 1186320, Note_on_c, 10, 88, 92
11, 1186435, Note_off_c, 10, 88, 64
11, 1186435, Note_off_c, 10, 76, 64
11, 1186440, Note_on_c, 10, 76, 92
11, 1186440, Note_on_c, 10, 88, 92
11, 1186555, Note_off_c, 10, 88, 64
11, 1186555, Note_off_c, 10, 76, 64
11, 1186560, Note_on_c, 10, 76, 92
11, 1186560, Note_on_c, 10, 88, 92
11, 1186675, Note_off_c, 10, 88, 64
11, 1186675, Note_off_c, 10, 76, 64
11, 1186680, Note_on_c, 10, 76, 92
11, 1186680, Note_on_c, 10, 88, 92
11, 1186795, Note_off_c, 10, 88, 64
11, 1186795, Note_off_c, 10, 76, 64
11, 1186800, Note_on_c, 10, 76, 92
11, 1186800, Note_on_c, 10, 88, 92
11, 1186915, Note_off_c, 10, 88, 64
11, 1186915, Note_off_c, 10, 76, 64
11, 1186920, Note_on_c, 10, 76, 92
11, 1186920, Note_on_c, 10, 88, 92
11, 1187035, Note_off_c, 10, 88, 64
11, 1187035, Note_off_c, 10, 76, 64
11, 1187040, Note_on_c, 10, 76, 92
11, 1187040, Note_on_c, 10, 88, 92
11, 1187155, Note_off_c, 10, 88, 64
11, 1187155, Note_off_c, 10, 76, 64
11, 1187160, Note_on_c, 10, 76, 92
11, 1187160, Note_on_c, 10, 88, 92
11, 1187275, Note_off_c, 10, 88, 64
11, 1187275, Note_off_c, 10, 76, 64
11, 1187280, Note_on_c, 10, 76, 92
11, 1187280, Note_on_c, 10, 88, 92
11, 1187395, Note_off_c, 10, 88, 64
11, 1187395, Note_off_c, 10, 76, 64
11, 1187400, Note_on_c, 10, 76, 92
11, 1187400, Note_on_c, 10, 88, 92
11, 1187515, Note_off_c, 10, 88, 64
11, 1187515, Note_off_c, 10, 76, 64
11, 1187520, Note_on_c, 10, 76, 92
11, 1187520, Note_on_c, 10, 88, 92
11, 1187635, Note_off_c, 10, 88, 64
11, 1187635, Note_off_c, 10, 76, 64
11, 1187640, Note_on_c, 10, 76, 92
11, 1187640, Note_on_c, 10, 88, 92
11, 1187755, Note_off_c, 10, 88, 64
11, 1187755, Note_off_c, 10, 76, 64
11, 1187760, Note_on_c, 10, 76, 92
11, 1187760, Note_on_c, 10, 88, 92
11, 1187875, Note_off_c, 10, 88, 64
11, 1187875, Note_off_c, 10, 76, 64
11, 1187880, Note_on_c, 10, 76, 92
11, 1187880, Note_on_c, 10, 88, 92
11, 1187995, Note_off_c, 10, 88, 64
11, 1187995, Note_off_c, 10, 76, 64
11, 1188000, Note_on_c, 10, 76, 92
11, 1188000, Note_on_c, 10, 88, 92
11, 1188115, Note_off_c, 10, 88, 64
11, 1188115, Note_off_c, 10, 76, 64
11, 1188120, Note_on_c, 10, 76, 92
11, 1188120, Note_on_c, 10, 88, 92
11, 1188235, Note_off_c, 10, 88, 64
11, 1188235, Note_off_c, 10, 76, 64
11, 1188240, Note_on_c, 10, 76, 92
11, 1188240, Note_on_c, 10, 88, 92
11, 1188355, Note_off_c, 10, 88, 64
11, 1188355, Note_off_c, 10, 76, 64
11, 1188360, Note_on_c, 10, 76, 92
11, 1188360, Note_on_c, 10, 88, 92
11, 1188475, Note_off_c, 10, 88, 64
11, 1188475, Note_off_c, 10, 76, 64
11, 1188480, Note_on_c, 10, 76, 92
11, 1188480, Note_on_c, 10, 88, 92
11, 1188595, Note_off_c, 10, 88, 64
11, 1188595, Note_off_c, 10, 76, 64
11, 1188600, Note_on_c, 10, 76, 92
11, 1188600, Note_on_c, 10, 88, 92
11, 1188715, Note_off_c, 10, 88, 64
11, 1188715, Note_off_c, 10, 76, 64
11, 1188720, Note_on_c, 10, 76, 92
11, 1188720, Note_on_c, 10, 88, 92
11, 1188835, Note_off_c, 10, 88, 64
11, 1188835, Note_off_c, 10, 76, 64
11, 1188840, Note_on_c, 10, 76, 92
11, 1188840, Note_on_c, 10, 88, 92
11, 1188955, Note_off_c, 10, 88, 64
11, 1188955, Note_off_c, 10, 76, 64
11, 1188960, Note_on_c, 10, 76, 92
11, 1188960, Note_on_c, 10, 88, 92
11, 1189075, Note_off_c, 10, 88, 64
11, 1189075, Note_off_c, 10, 76, 64
11, 1189080, Note_on_c, 10, 76, 92
11, 1189080, Note_on_c, 10, 88, 92
11, 1189195, Note_off_c, 10, 88, 64
11, 1189195, Note_off_c, 10, 76, 64
11, 1189200, Note_on_c, 10, 76, 92
11, 1189200, Note_on_c, 10, 88, 92
11, 1189315, Note_off_c, 10, 88, 64
11, 1189315, Note_off_c, 10, 76, 64
11, 1189320, Note_on_c, 10, 76, 92
11, 1189320, Note_on_c, 10, 88, 92
11, 1189435, Note_off_c, 10, 88, 64
11, 1189435, Note_off_c, 10, 76, 64
11, 1189440, Note_on_c, 10, 76, 92
11, 1189440, Note_on_c, 10, 88, 92
11, 1189555, Note_off_c, 10, 88, 64
11, 1189555, Note_off_c, 10, 76, 64
11, 1189560, Note_on_c, 10, 76, 92
11, 1189560, Note_on_c, 10, 88, 92
11, 1189675, Note_off_c, 10, 88, 64
11, 1189675, Note_off_c, 10, 76, 64
11, 1189680, Note_on_c, 10, 76, 92
11, 1189680, Note_on_c, 10, 88, 92
11, 1189795, Note_off_c, 10, 88, 64
11, 1189795, Note_off_c, 10, 76, 64
11, 1189800, Note_on_c, 10, 76, 92
11, 1189800, Note_on_c, 10, 88, 92
11, 1189915, Note_off_c, 10, 88, 64
11, 1189915, Note_off_c, 10, 76, 64
11, 1189920, Note_on_c, 10, 76, 92
11, 1189920, Note_on_c, 10, 88, 92
11, 1190035, Note_off_c, 10, 88, 64
11, 1190035, Note_off_c, 10, 76, 64
11, 1190040, Note_on_c, 10, 76, 92
11, 1190040, Note_on_c, 10, 88, 92
11, 1190155, Note_off_c, 10, 88, 64
11, 1190155, Note_off_c, 10, 76, 64
11, 1190160, Note_on_c, 10, 76, 92
11, 1190160, Note_on_c, 10, 88, 92
11, 1190275, Note_off_c, 10, 88, 64
11, 1190275, Note_off_c, 10, 76, 64
11, 1190280, Note_on_c, 10, 76, 92
11, 1190280, Note_on_c, 10, 88, 92
11, 1190395, Note_off_c, 10, 88, 64
11, 1190395, Note_off_c, 10, 76, 64
11, 1190400, Note_on_c, 10, 76, 92
11, 1190400, Note_on_c, 10, 88, 92
11, 1190515, Note_off_c, 10, 88, 64
11, 1190515, Note_off_c, 10, 76, 64
11, 1190520, Note_on_c, 10, 76, 92
11, 1190520, Note_on_c, 10, 88, 92
11, 1190635, Note_off_c, 10, 88, 64
11, 1190635, Note_off_c, 10, 76, 64
11, 1190640, Note_on_c, 10, 82, 127
11, 1190995, Note_off_c, 10, 82, 64
11, 1191000, Note_on_c, 10, 79, 127
11, 1191115, Note_off_c, 10, 79, 64
11, 1191120, Note_on_c, 10, 76, 127
11, 1191520, Note_off_c, 10, 76, 64
11, 1191600, Note_on_c, 10, 73, 127
11, 1191955, Note_off_c, 10, 73, 64
11, 1191960, Note_on_c, 10, 70, 127
11, 1192075, Note_off_c, 10, 70, 64
11, 1192080, Note_on_c, 10, 67, 127
11, 1192480, Note_off_c, 10, 67, 64
11, 1192560, Note_on_c, 10, 64, 127
11, 1192960, Note_off_c, 10, 64, 64
11, 1193040, Note_on_c, 10, 63, 92
11, 1193155, Note_off_c, 10, 63, 64
11, 1193160, Note_on_c, 10, 75, 92
11, 1193160, Note_on_c, 10, 87, 92
11, 1193275, Note_off_c, 10, 87, 64
11, 1193275, Note_off_c, 10, 75, 64
11, 1193280, Note_on_c, 10, 75, 92
11, 1193280, Note_on_c, 10, 87, 92
11, 1193395, Note_off_c, 10, 87, 64
11, 1193395, Note_off_c, 10, 75, 64
11, 1193400, Note_on_c, 10, 75, 92
11, 1193400, Note_on_c, 10, 87, 92
11, 1193515, Note_off_c, 10, 87, 64
11, 1193515, Note_off_c, 10, 75, 64
11, 1193520, Note_on_c, 10, 75, 92
11, 1193520, Note_on_c, 10, 87, 92
11, 1193635, Note_off_c, 10, 87, 64
11, 1193635, Note_off_c, 10, 75, 64
11, 1193640, Note_on_c, 10, 75, 92
11, 1193640, Note_on_c, 10, 87, 92
11, 1193755, Note_off_c, 10, 87, 64
11, 1193755, Note_off_c, 10, 75, 64
11, 1193760, Note_on_c, 10, 75, 92
11, 1193760, Note_on_c, 10, 87, 92
11, 1193875, Note_off_c, 10, 87, 64
11, 1193875, Note_off_c, 10, 75, 64
11, 1193880, Note_on_c, 10, 75, 92
11, 1193880, Note_on_c, 10, 87, 92
11, 1193995, Note_off_c, 10, 87, 64
11, 1193995, Note_off_c, 10, 75, 64
11, 1194000, Note_on_c, 10, 78, 92
11, 1194000, Note_on_c, 10, 90, 92
11, 1194115, Note_off_c, 10, 90, 64
11, 1194115, Note_off_c, 10, 78, 64
11, 1194120, Note_on_c, 10, 78, 92
11, 1194120, Note_on_c, 10, 90, 92
11, 1194235, Note_off_c, 10, 90, 64
11, 1194235, Note_off_c, 10, 78, 64
11, 1194240, Note_on_c, 10, 78, 92
11, 1194240, Note_on_c, 10, 90, 92
11, 1194355, Note_off_c, 10, 90, 64
11, 1194355, Note_off_c, 10, 78, 64
11, 1194360, Note_on_c, 10, 78, 92
11, 1194360, Note_on_c, 10, 90, 92
11, 1194475, Note_off_c, 10, 90, 64
11, 1194475, Note_off_c, 10, 78, 64
11, 1194480, Note_on_c, 10, 78, 92
11, 1194480, Note_on_c, 10, 90, 92
11, 1194595, Note_off_c, 10, 90, 64
11, 1194595, Note_off_c, 10, 78, 64
11, 1194600, Note_on_c, 10, 78, 92
11, 1194600, Note_on_c, 10, 90, 92
11, 1194715, Note_off_c, 10, 90, 64
11, 1194715, Note_off_c, 10, 78, 64
11, 1194720, Note_on_c, 10, 78, 92
11, 1194720, Note_on_c, 10, 90, 92
11, 1194835, Note_off_c, 10, 90, 64
11, 1194835, Note_off_c, 10, 78, 64
11, 1194840, Note_on_c, 10, 78, 92
11, 1194840, Note_on_c, 10, 90, 92
11, 1194955, Note_off_c, 10, 90, 64
11, 1194955, Note_off_c, 10, 78, 64
11, 1194960, Note_on_c, 10, 78, 92
11, 1194960, Note_on_c, 10, 90, 92
11, 1195075, Note_off_c, 10, 90, 64
11, 1195075, Note_off_c, 10, 78, 64
11, 1195080, Note_on_c, 10, 78, 92
11, 1195080, Note_on_c, 10, 90, 92
11, 1195195, Note_off_c, 10, 90, 64
11, 1195195, Note_off_c, 10, 78, 64
11, 1195200, Note_on_c, 10, 78, 92
11, 1195200, Note_on_c, 10, 90, 92
11, 1195315, Note_off_c, 10, 90, 64
11, 1195315, Note_off_c, 10, 78, 64
11, 1195320, Note_on_c, 10, 78, 92
11, 1195320, Note_on_c, 10, 90, 92
11, 1195435, Note_off_c, 10, 90, 64
11, 1195435, Note_off_c, 10, 78, 64
11, 1195440, Note_on_c, 10, 78, 92
11, 1195440, Note_on_c, 10, 90, 92
11, 1195555, Note_off_c, 10, 90, 64
11, 1195555, Note_off_c, 10, 78, 64
11, 1195560, Note_on_c, 10, 78, 92
11, 1195560, Note_on_c, 10, 90, 92
11, 1195675, Note_off_c, 10, 90, 64
11, 1195675, Note_off_c, 10, 78, 64
11, 1195680, Note_on_c, 10, 78, 92
11, 1195680, Note_on_c, 10, 90, 92
11, 1195795, Note_off_c, 10, 90, 64
11, 1195795, Note_off_c, 10, 78, 64
11, 1195800, Note_on_c, 10, 78, 92
11, 1195800, Note_on_c, 10, 90, 92
11, 1195915, Note_off_c, 10, 90, 64
11, 1195915, Note_off_c, 10, 78, 64
11, 1195920, Note_on_c, 10, 78, 92
11, 1195920, Note_on_c, 10, 90, 92
11, 1196035, Note_off_c, 10, 90, 64
11, 1196035, Note_off_c, 10, 78, 64
11, 1196040, Note_on_c, 10, 78, 92
11, 1196040, Note_on_c, 10, 90, 92
11, 1196155, Note_off_c, 10, 90, 64
11, 1196155, Note_off_c, 10, 78, 64
11, 1196160, Note_on_c, 10, 78, 92
11, 1196160, Note_on_c, 10, 90, 92
11, 1196275, Note_off_c, 10, 90, 64
11, 1196275, Note_off_c, 10, 78, 64
11, 1196280, Note_on_c, 10, 78, 92
11, 1196280, Note_on_c, 10, 90, 92
11, 1196395, Note_off_c, 10, 90, 64
11, 1196395, Note_off_c, 10, 78, 64
11, 1196400, Note_on_c, 10, 78, 92
11, 1196400, Note_on_c, 10, 90, 92
11, 1196515, Note_off_c, 10, 90, 64
11, 1196515, Note_off_c, 10, 78, 64
11, 1196520, Note_on_c, 10, 78, 92
11, 1196520, Note_on_c, 10, 90, 92
11, 1196635, Note_off_c, 10, 90, 64
11, 1196635, Note_off_c, 10, 78, 64
11, 1196640, Note_on_c, 10, 78, 92
11, 1196640, Note_on_c, 10, 90, 92
11, 1196755, Note_off_c, 10, 90, 64
11, 1196755, Note_off_c, 10, 78, 64
11, 1196760, Note_on_c, 10, 78, 92
11, 1196760, Note_on_c, 10, 90, 92
11, 1196875, Note_off_c, 10, 90, 64
11, 1196875, Note_off_c, 10, 78, 64
11, 1196880, Note_on_c, 10, 78, 127
11, 1196880, Note_on_c, 10, 90, 127
11, 1198200, Note_off_c, 10, 90, 64
11, 1198200, Note_off_c, 10, 78, 64
11, 1198320, Note_on_c, 10, 87, 127
11, 1198675, Note_off_c, 10, 87, 64
11, 1198680, Note_on_c, 10, 84, 127
11, 1198795, Note_off_c, 10, 84, 64
11, 1198800, Note_on_c, 10, 78, 127
11, 1199200, Note_off_c, 10, 78, 64
11, 1199280, Note_on_c, 10, 75, 127
11, 1199635, Note_off_c, 10, 75, 64
11, 1199640, Note_on_c, 10, 72, 127
11, 1199755, Note_off_c, 10, 72, 64
11, 1199760, Note_on_c, 10, 66, 127
11, 1200160, Note_off_c, 10, 66, 64
11, 1200240, Note_on_c, 10, 63, 127
11, 1200595, Note_off_c, 10, 63, 64
11, 1200600, Note_on_c, 10, 60, 127
11, 1200715, Note_off_c, 10, 60, 64
11, 1200720, Note_on_c, 10, 61, 127
11, 1200800, Note_off_c, 10, 61, 64
11, 1200960, Note_on_c, 10, 77, 127
11, 1201080, Note_off_c, 10, 77, 64
11, 1201080, Note_on_c, 10, 82, 127
11, 1201200, Note_off_c, 10, 82, 64
11, 1201200, Note_on_c, 10, 85, 127
11, 1201280, Note_off_c, 10, 85, 64
11, 1202640, Note_on_c, 10, 59, 127
11, 1202720, Note_off_c, 10, 59, 64
11, 1202880, Note_on_c, 10, 77, 127
11, 1203000, Note_off_c, 10, 77, 64
11, 1203000, Note_on_c, 10, 80, 127
11, 1203120, Note_off_c, 10, 80, 64
11, 1203120, Note_on_c, 10, 86, 127
11, 1203200, Note_off_c, 10, 86, 64
11, 1204560, Note_on_c, 10, 60, 108
11, 1204960, Note_off_c, 10, 60, 64
11, 1205520, Note_on_c, 10, 84, 108
11, 1206160, Note_off_c, 10, 84, 64
11, 1206240, Note_on_c, 10, 79, 108
11, 1206320, Note_off_c, 10, 79, 64
11, 1206480, Note_on_c, 10, 80, 108
11, 1206560, Note_off_c, 10, 80, 64
11, 1206720, Note_on_c, 10, 76, 108
11, 1206800, Note_off_c, 10, 76, 64
11, 1206960, Note_on_c, 10, 77, 108
11, 1207040, Note_off_c, 10, 77, 64
11, 1207200, Note_on_c, 10, 72, 108
11, 1207280, Note_off_c, 10, 72, 64
11, 1207440, Note_on_c, 10, 73, 108
11, 1207520, Note_off_c, 10, 73, 64
11, 1207680, Note_on_c, 10, 72, 108
11, 1207760, Note_off_c, 10, 72, 64
11, 1207920, Note_on_c, 10, 72, 108
11, 1208000, Note_off_c, 10, 72, 64
11, 1208160, Note_on_c, 10, 70, 108
11, 1208240, Note_off_c, 10, 70, 64
11, 1208400, Note_on_c, 10, 68, 108
11, 1208800, Note_off_c, 10, 68, 64
11, 1209360, Note_on_c, 10, 80, 108
11, 1210000, Note_off_c, 10, 80, 64
11, 1210080, Note_on_c, 10, 76, 108
11, 1210160, Note_off_c, 10, 76, 64
11, 1210320, Note_on_c, 10, 77, 108
11, 1210400, Note_off_c, 10, 77, 64
11, 1210560, Note_on_c, 10, 72, 108
11, 1210640, Note_off_c, 10, 72, 64
11, 1210800, Note_on_c, 10, 73, 108
11, 1210880, Note_off_c, 10, 73, 64
11, 1211040, Note_on_c, 10, 68, 108
11, 1211120, Note_off_c, 10, 68, 64
11, 1211280, Note_on_c, 10, 70, 108
11, 1211360, Note_off_c, 10, 70, 64
11, 1211520, Note_on_c, 10, 68, 108
11, 1211600, Note_off_c, 10, 68, 64
11, 1211760, Note_on_c, 10, 68, 108
11, 1211840, Note_off_c, 10, 68, 64
11, 1212000, Note_on_c, 10, 67, 108
11, 1212080, Note_off_c, 10, 67, 64
11, 1212240, Note_on_c, 10, 65, 108
11, 1212640, Note_off_c, 10, 65, 64
11, 1213200, Note_on_c, 10, 77, 108
11, 1213840, Note_off_c, 10, 77, 64
11, 1213920, Note_on_c, 10, 72, 108
11, 1214000, Note_off_c, 10, 72, 64
11, 1214160, Note_on_c, 10, 73, 108
11, 1214240, Note_off_c, 10, 73, 64
11, 1214400, Note_on_c, 10, 68, 108
11, 1214480, Note_off_c, 10, 68, 64
11, 1214640, Note_on_c, 10, 70, 108
11, 1214720, Note_off_c, 10, 70, 64
11, 1214880, Note_on_c, 10, 65, 108
11, 1214960, Note_off_c, 10, 65, 64
11, 1215120, Note_on_c, 10, 66, 108
11, 1215200, Note_off_c, 10, 66, 64
11, 1215360, Note_on_c, 10, 65, 108
11, 1215440, Note_off_c, 10, 65, 64
11, 1215600, Note_on_c, 10, 65, 108
11, 1215680, Note_off_c, 10, 65, 64
11, 1215840, Note_on_c, 10, 63, 108
11, 1215920, Note_off_c, 10, 63, 64
11, 1216080, Note_on_c, 10, 61, 30
11, 1216480, Note_off_c, 10, 61, 64
11, 1219920, Note_on_c, 10, 61, 127
11, 1220000, Note_off_c, 10, 61, 64
11, 1220160, Note_on_c, 10, 73, 127
11, 1220280, Note_off_c, 10, 73, 64
11, 1220280, Note_on_c, 10, 77, 127
11, 1220400, Note_off_c, 10, 77, 64
11, 1220400, Note_on_c, 10, 80, 127
11, 1220480, Note_off_c, 10, 80, 64
11, 1227600, Note_on_c, 10, 55, 127
11, 1227600, Note_on_c, 10, 65, 127
11, 1227680, Note_off_c, 10, 65, 64
11, 1227680, Note_off_c, 10, 55, 64
11, 1227840, Note_on_c, 10, 74, 127
11, 1227960, Note_off_c, 10, 74, 64
11, 1227960, Note_on_c, 10, 77, 127
11, 1228080, Note_off_c, 10, 77, 64
11, 1228080, Note_on_c, 10, 79, 127
11, 1228160, Note_off_c, 10, 79, 64
11, 1235280, Note_on_c, 10, 57, 127
11, 1235360, Note_off_c, 10, 57, 64
11, 1235520, Note_on_c, 10, 72, 127
11, 1235640, Note_off_c, 10, 72, 64
11, 1235640, Note_on_c, 10, 75, 127
11, 1235760, Note_off_c, 10, 75, 64
11, 1235760, Note_on_c, 10, 81, 127
11, 1235840, Note_off_c, 10, 81, 64
11, 1237200, Note_on_c, 10, 57, 127
11, 1237280, Note_off_c, 10, 57, 64
11, 1237440, Note_on_c, 10, 72, 127
11, 1237560, Note_off_c, 10, 72, 64
11, 1237560, Note_on_c, 10, 75, 127
11, 1237680, Note_off_c, 10, 75, 64
11, 1237680, Note_on_c, 10, 81, 127
11, 1237760, Note_off_c, 10, 81, 64
11, 1239120, Note_on_c, 10, 58, 127
11, 1239200, Note_off_c, 10, 58, 64
11, 1239360, Note_on_c, 10, 73, 127
11, 1239480, Note_off_c, 10, 73, 64
11, 1239480, Note_on_c, 10, 77, 127
11, 1239600, Note_off_c, 10, 77, 64
11, 1239600, Note_on_c, 10, 82, 127
11, 1239680, Note_off_c, 10, 82, 64
11, 1241040, Note_on_c, 10, 55, 127
11, 1241120, Note_off_c, 10, 55, 64
11, 1241280, Note_on_c, 10, 74, 127
11, 1241400, Note_off_c, 10, 74, 64
11, 1241400, Note_on_c, 10, 77, 127
11, 1241520, Note_off_c, 10, 77, 64
11, 1241520, Note_on_c, 10, 83, 127
11, 1241600, Note_off_c, 10, 83, 64
11, 1242960, Note_on_c, 10, 60, 127
11, 1243040, Note_off_c, 10, 60, 64
11, 1243200, Note_on_c, 10, 75, 127
11, 1243320, Note_off_c, 10, 75, 64
11, 1243320, Note_on_c, 10, 79, 127
11, 1243440, Note_off_c, 10, 79, 64
11, 1243440, Note_on_c, 10, 84, 127
11, 1243520, Note_off_c, 10, 84, 64
11, 1243920, Note_on_c, 10, 58, 127
11, 1244000, Note_off_c, 10, 58, 64
11, 1244160, Note_on_c, 10, 76, 127
11, 1244280, Note_off_c, 10, 76, 64
11, 1244280, Note_on_c, 10, 79, 127
11, 1244400, Note_off_c, 10, 79, 64
11, 1244400, Note_on_c, 10, 84, 127
11, 1244480, Note_off_c, 10, 84, 64
11, 1244880, Note_on_c, 10, 85, 127
11, 1244960, Note_off_c, 10, 85, 64
11, 1245120, Note_on_c, 10, 73, 75
11, 1245200, Note_off_c, 10, 73, 64
11, 1245360, Note_on_c, 10, 76, 75
11, 1245440, Note_off_c, 10, 76, 64
11, 1245600, Note_on_c, 10, 74, 75
11, 1245680, Note_off_c, 10, 74, 64
11, 1245840, Note_on_c, 10, 73, 75
11, 1245920, Note_off_c, 10, 73, 64
11, 1246080, Note_on_c, 10, 71, 75
11, 1246160, Note_off_c, 10, 71, 64
11, 1246320, Note_on_c, 10, 69, 75
11, 1246400, Note_off_c, 10, 69, 64
11, 1246560, Note_on_c, 10, 68, 75
11, 1246640, Note_off_c, 10, 68, 64
11, 1246800, Note_on_c, 10, 69, 75
11, 1246880, Note_off_c, 10, 69, 64
11, 1247040, Note_on_c, 10, 76, 75
11, 1247120, Note_off_c, 10, 76, 64
11, 1247280, Note_on_c, 10, 79, 75
11, 1247360, Note_off_c, 10, 79, 64
11, 1247520, Note_on_c, 10, 77, 75
11, 1247600, Note_off_c, 10, 77, 64
11, 1247760, Note_on_c, 10, 76, 75
11, 1247840, Note_off_c, 10, 76, 64
11, 1248000, Note_on_c, 10, 74, 75
11, 1248080, Note_off_c, 10, 74, 64
11, 1248240, Note_on_c, 10, 73, 75
11, 1248320, Note_off_c, 10, 73, 64
11, 1248480, Note_on_c, 10, 71, 75
11, 1248560, Note_off_c, 10, 71, 64
11, 1248720, Note_on_c, 10, 73, 75
11, 1248800, Note_off_c, 10, 73, 64
11, 1248960, Note_on_c, 10, 79, 75
11, 1249040, Note_off_c, 10, 79, 64
11, 1249200, Note_on_c, 10, 82, 75
11, 1249280, Note_off_c, 10, 82, 64
11, 1249440, Note_on_c, 10, 81, 75
11, 1249520, Note_off_c, 10, 81, 64
11, 1249680, Note_on_c, 10, 79, 75
11, 1249760, Note_off_c, 10, 79, 64
11, 1249920, Note_on_c, 10, 77, 75
11, 1250000, Note_off_c, 10, 77, 64
11, 1250160, Note_on_c, 10, 76, 75
11, 1250240, Note_off_c, 10, 76, 64
11, 1250400, Note_on_c, 10, 74, 75
11, 1250480, Note_off_c, 10, 74, 64
11, 1250640, Note_on_c, 10, 73, 75
11, 1250720, Note_off_c, 10, 73, 64
11, 1250880, Note_on_c, 10, 85, 75
11, 1250960, Note_off_c, 10, 85, 64
11, 1251120, Note_on_c, 10, 88, 75
11, 1251200, Note_off_c, 10, 88, 64
11, 1251360, Note_on_c, 10, 86, 75
11, 1251440, Note_off_c, 10, 86, 64
11, 1251600, Note_on_c, 10, 85, 75
11, 1251680, Note_off_c, 10, 85, 64
11, 1251840, Note_on_c, 10, 82, 75
11, 1251920, Note_off_c, 10, 82, 64
11, 1252080, Note_on_c, 10, 81, 75
11, 1252160, Note_off_c, 10, 81, 64
11, 1252320, Note_on_c, 10, 79, 75
11, 1252400, Note_off_c, 10, 79, 64
11, 1252560, Note_on_c, 10, 88, 75
11, 1252640, Note_off_c, 10, 88, 64
11, 1252800, Note_on_c, 10, 82, 75
11, 1252880, Note_off_c, 10, 82, 64
11, 1253040, Note_on_c, 10, 81, 75
11, 1253120, Note_off_c, 10, 81, 64
11, 1253280, Note_on_c, 10, 79, 75
11, 1253360, Note_off_c, 10, 79, 64
11, 1253520, Note_on_c, 10, 77, 75
11, 1253600, Note_off_c, 10, 77, 64
11, 1253760, Note_on_c, 10, 76, 75
11, 1253840, Note_off_c, 10, 76, 64
11, 1254000, Note_on_c, 10, 74, 75
11, 1254080, Note_off_c, 10, 74, 64
11, 1254240, Note_on_c, 10, 73, 75
11, 1254320, Note_off_c, 10, 73, 64
11, 1254480, Note_on_c, 10, 70, 75
11, 1254560, Note_off_c, 10, 70, 64
11, 1254720, Note_on_c, 10, 69, 75
11, 1254800, Note_off_c, 10, 69, 64
11, 1254960, Note_on_c, 10, 67, 75
11, 1255040, Note_off_c, 10, 67, 64
11, 1255200, Note_on_c, 10, 65, 75
11, 1255280, Note_off_c, 10, 65, 64
11, 1255440, Note_on_c, 10, 64, 75
11, 1255520, Note_off_c, 10, 64, 64
11, 1255680, Note_on_c, 10, 62, 75
11, 1255760, Note_off_c, 10, 62, 64
11, 1255920, Note_on_c, 10, 61, 75
11, 1256000, Note_off_c, 10, 61, 64
11, 1256160, Note_on_c, 10, 58, 75
11, 1256240, Note_off_c, 10, 58, 64
11, 1264320, Note_on_c, 10, 81, 60
11, 1264400, Note_off_c, 10, 81, 64
11, 1264560, Note_on_c, 10, 83, 60
11, 1264640, Note_off_c, 10, 83, 64
11, 1264800, Note_on_c, 10, 81, 60
11, 1264880, Note_off_c, 10, 81, 64
11, 1265040, Note_on_c, 10, 79, 60
11, 1265120, Note_off_c, 10, 79, 64
11, 1265280, Note_on_c, 10, 78, 60
11, 1265360, Note_off_c, 10, 78, 64
11, 1265520, Note_on_c, 10, 76, 60
11, 1265600, Note_off_c, 10, 76, 64
11, 1265760, Note_on_c, 10, 74, 60
11, 1265840, Note_off_c, 10, 74, 64
11, 1266240, Note_on_c, 10, 81, 60
11, 1266320, Note_off_c, 10, 81, 64
11, 1266480, Note_on_c, 10, 83, 60
11, 1266560, Note_off_c, 10, 83, 64
11, 1266720, Note_on_c, 10, 81, 60
11, 1266800, Note_off_c, 10, 81, 64
11, 1266960, Note_on_c, 10, 79, 60
11, 1267040, Note_off_c, 10, 79, 64
11, 1267200, Note_on_c, 10, 78, 60
11, 1267280, Note_off_c, 10, 78, 64
11, 1267440, Note_on_c, 10, 76, 60
11, 1267520, Note_off_c, 10, 76, 64
11, 1267680, Note_on_c, 10, 74, 60
11, 1267760, Note_off_c, 10, 74, 64
11, 1267920, Note_on_c, 10, 75, 60
11, 1268320, Note_off_c, 10, 75, 64
11, 1272000, Note_on_c, 10, 75, 60
11, 1272080, Note_off_c, 10, 75, 64
11, 1272240, Note_on_c, 10, 77, 60
11, 1272320, Note_off_c, 10, 77, 64
11, 1272480, Note_on_c, 10, 75, 60
11, 1272560, Note_off_c, 10, 75, 64
11, 1272720, Note_on_c, 10, 74, 60
11, 1272800, Note_off_c, 10, 74, 64
11, 1272960, Note_on_c, 10, 72, 60
11, 1273040, Note_off_c, 10, 72, 64
11, 1273200, Note_on_c, 10, 70, 60
11, 1273280, Note_off_c, 10, 70, 64
11, 1273440, Note_on_c, 10, 69, 60
11, 1273520, Note_off_c, 10, 69, 64
11, 1273920, Note_on_c, 10, 75, 60
11, 1274000, Note_off_c, 10, 75, 64
11, 1274160, Note_on_c, 10, 77, 60
11, 1274240, Note_off_c, 10, 77, 64
11, 1274400, Note_on_c, 10, 75, 60
11, 1274480, Note_off_c, 10, 75, 64
11, 1274640, Note_on_c, 10, 74, 60
11, 1274720, Note_off_c, 10, 74, 64
11, 1274880, Note_on_c, 10, 72, 60
11, 1274960, Note_off_c, 10, 72, 64
11, 1275120, Note_on_c, 10, 70, 60
11, 1275200, Note_off_c, 10, 70, 64
11, 1275360, Note_on_c, 10, 69, 60
11, 1275440, Note_off_c, 10, 69, 64
11, 1275840, Note_on_c, 10, 75, 61
11, 1275920, Note_off_c, 10, 75, 64
11, 1276080, Note_on_c, 10, 77, 62
11, 1276160, Note_off_c, 10, 77, 64
11, 1276320, Note_on_c, 10, 75, 63
11, 1276400, Note_off_c, 10, 75, 64
11, 1276560, Note_on_c, 10, 73, 64
11, 1276640, Note_off_c, 10, 73, 64
11, 1276800, Note_on_c, 10, 72, 65
11, 1276880, Note_off_c, 10, 72, 64
11, 1277040, Note_on_c, 10, 70, 66
11, 1277120, Note_off_c, 10, 70, 64
11, 1277280, Note_on_c, 10, 69, 67
11, 1277360, Note_off_c, 10, 69, 64
11, 1277760, Note_on_c, 10, 75, 69
11, 1277840, Note_off_c, 10, 75, 64
11, 1278000, Note_on_c, 10, 77, 70
11, 1278080, Note_off_c, 10, 77, 64
11, 1278240, Note_on_c, 10, 75, 71
11, 1278320, Note_off_c, 10, 75, 64
11, 1278480, Note_on_c, 10, 73, 72
11, 1278560, Note_off_c, 10, 73, 64
11, 1278720, Note_on_c, 10, 72, 73
11, 1278800, Note_off_c, 10, 72, 64
11, 1278960, Note_on_c, 10, 70, 74
11, 1279040, Note_off_c, 10, 70, 64
11, 1279200, Note_on_c, 10, 69, 75
11, 1279280, Note_off_c, 10, 69, 64
11, 1279680, Note_on_c, 10, 77, 77
11, 1279760, Note_off_c, 10, 77, 64
11, 1279920, Note_on_c, 10, 78, 78
11, 1280000, Note_off_c, 10, 78, 64
11, 1280160, Note_on_c, 10, 77, 79
11, 1280240, Note_off_c, 10, 77, 64
11, 1280400, Note_on_c, 10, 75, 80
11, 1280480, Note_off_c, 10, 75, 64
11, 1280640, Note_on_c, 10, 73, 81
11, 1280720, Note_off_c, 10, 73, 64
11, 1280880, Note_on_c, 10, 72, 82
11, 1280960, Note_off_c, 10, 72, 64
11, 1281120, Note_on_c, 10, 70, 83
11, 1281200, Note_off_c, 10, 70, 64
11, 1281600, Note_on_c, 10, 77, 85
11, 1281680, Note_off_c, 10, 77, 64
11, 1281840, Note_on_c, 10, 78, 86
11, 1281920, Note_off_c, 10, 78, 64
11, 1282080, Note_on_c, 10, 77, 87
11, 1282160, Note_off_c, 10, 77, 64
11, 1282320, Note_on_c, 10, 75, 88
11, 1282400, Note_off_c, 10, 75, 64
11, 1282560, Note_on_c, 10, 73, 89
11, 1282640, Note_off_c, 10, 73, 64
11, 1282800, Note_on_c, 10, 72, 91
11, 1282880, Note_off_c, 10, 72, 64
11, 1283040, Note_on_c, 10, 70, 93
11, 1283120, Note_off_c, 10, 70, 64
11, 1283520, Note_on_c, 10, 77, 97
11, 1283600, Note_off_c, 10, 77, 64
11, 1283760, Note_on_c, 10, 79, 99
11, 1283840, Note_off_c, 10, 79, 64
11, 1284000, Note_on_c, 10, 77, 101
11, 1284080, Note_off_c, 10, 77, 64
11, 1284240, Note_on_c, 10, 75, 103
11, 1284320, Note_off_c, 10, 75, 64
11, 1284480, Note_on_c, 10, 74, 105
11, 1284560, Note_off_c, 10, 74, 64
11, 1284720, Note_on_c, 10, 72, 107
11, 1284800, Note_off_c, 10, 72, 64
11, 1284960, Note_on_c, 10, 71, 109
11, 1285040, Note_off_c, 10, 71, 64
11, 1285440, Note_on_c, 10, 77, 113
11, 1285520, Note_off_c, 10, 77, 64
11, 1285680, Note_on_c, 10, 79, 115
11, 1285760, Note_off_c, 10, 79, 64
11, 1285920, Note_on_c, 10, 77, 117
11, 1286000, Note_off_c, 10, 77, 64
11, 1286160, Note_on_c, 10, 75, 119
11, 1286240, Note_off_c, 10, 75, 64
11, 1286400, Note_on_c, 10, 74, 121
11, 1286480, Note_off_c, 10, 74, 64
11, 1286640, Note_on_c, 10, 72, 123
11, 1286720, Note_off_c, 10, 72, 64
11, 1286880, Note_on_c, 10, 71, 125
11, 1286960, Note_off_c, 10, 71, 64
11, 1287120, Note_on_c, 10, 79, 127
11, 1287235, Note_off_c, 10, 79, 64
11, 1287240, Note_on_c, 10, 79, 127
11, 1287355, Note_off_c, 10, 79, 64
11, 1287360, Note_on_c, 10, 74, 127
11, 1287475, Note_off_c, 10, 74, 64
11, 1287480, Note_on_c, 10, 74, 127
11, 1287595, Note_off_c, 10, 74, 64
11, 1287600, Note_on_c, 10, 71, 127
11, 1287715, Note_off_c, 10, 71, 64
11, 1287720, Note_on_c, 10, 71, 127
11, 1287835, Note_off_c, 10, 71, 64
11, 1287840, Note_on_c, 10, 67, 127
11, 1287955, Note_off_c, 10, 67, 64
11, 1287960, Note_on_c, 10, 67, 127
11, 1288075, Note_off_c, 10, 67, 64
11, 1288080, Note_on_c, 10, 62, 127
11, 1288195, Note_off_c, 10, 62, 64
11, 1288200, Note_on_c, 10, 62, 127
11, 1288315, Note_off_c, 10, 62, 64
11, 1288320, Note_on_c, 10, 59, 127
11, 1288435, Note_off_c, 10, 59, 64
11, 1288440, Note_on_c, 10, 59, 127
11, 1288555, Note_off_c, 10, 59, 64
11, 1288560, Note_on_c, 10, 55, 127
11, 1288675, Note_off_c, 10, 55, 64
11, 1288680, Note_on_c, 10, 55, 127
11, 1288795, Note_off_c, 10, 55, 64
11, 1288800, Note_on_c, 10, 79, 127
11, 1288915, Note_off_c, 10, 79, 64
11, 1288920, Note_on_c, 10, 79, 127
11, 1289035, Note_off_c, 10, 79, 64
11, 1289040, Note_on_c, 10, 79, 127
11, 1289155, Note_off_c, 10, 79, 64
11, 1289160, Note_on_c, 10, 79, 127
11, 1289275, Note_off_c, 10, 79, 64
11, 1289280, Note_on_c, 10, 75, 127
11, 1289395, Note_off_c, 10, 75, 64
11, 1289400, Note_on_c, 10, 75, 127
11, 1289515, Note_off_c, 10, 75, 64
11, 1289520, Note_on_c, 10, 72, 127
11, 1289635, Note_off_c, 10, 72, 64
11, 1289640, Note_on_c, 10, 72, 127
11, 1289755, Note_off_c, 10, 72, 64
11, 1289760, Note_on_c, 10, 67, 127
11, 1289875, Note_off_c, 10, 67, 64
11, 1289880, Note_on_c, 10, 67, 127
11, 1289995, Note_off_c, 10, 67, 64
11, 1290000, Note_on_c, 10, 63, 127
11, 1290115, Note_off_c, 10, 63, 64
11, 1290120, Note_on_c, 10, 63, 127
11, 1290235, Note_off_c, 10, 63, 64
11, 1290240, Note_on_c, 10, 60, 127
11, 1290355, Note_off_c, 10, 60, 64
11, 1290360, Note_on_c, 10, 60, 127
11, 1290475, Note_off_c, 10, 60, 64
11, 1290480, Note_on_c, 10, 55, 127
11, 1290595, Note_off_c, 10, 55, 64
11, 1290600, Note_on_c, 10, 55, 127
11, 1290715, Note_off_c, 10, 55, 64
11, 1290720, Note_on_c, 10, 79, 127
11, 1290835, Note_off_c, 10, 79, 64
11, 1290840, Note_on_c, 10, 79, 127
11, 1290955, Note_off_c, 10, 79, 64
11, 1290960, Note_on_c, 10, 79, 127
11, 1291075, Note_off_c, 10, 79, 64
11, 1291080, Note_on_c, 10, 79, 127
11, 1291195, Note_off_c, 10, 79, 64
11, 1291200, Note_on_c, 10, 75, 127
11, 1291315, Note_off_c, 10, 75, 64
11, 1291320, Note_on_c, 10, 75, 127
11, 1291435, Note_off_c, 10, 75, 64
11, 1291440, Note_on_c, 10, 72, 127
11, 1291555, Note_off_c, 10, 72, 64
11, 1291560, Note_on_c, 10, 72, 127
11, 1291675, Note_off_c, 10, 72, 64
11, 1291680, Note_on_c, 10, 67, 127
11, 1291795, Note_off_c, 10, 67, 64
11, 1291800, Note_on_c, 10, 67, 127
11, 1291915, Note_off_c, 10, 67, 64
11, 1291920, Note_on_c, 10, 63, 127
11, 1292035, Note_off_c, 10, 63, 64
11, 1292040, Note_on_c, 10, 63, 127
11, 1292155, Note_off_c, 10, 63, 64
11, 1292160, Note_on_c, 10, 60, 127
11, 1292275, Note_off_c, 10, 60, 64
11, 1292280, Note_on_c, 10, 60, 127
11, 1292395, Note_off_c, 10, 60, 64
11, 1292400, Note_on_c, 10, 55, 127
11, 1292515, Note_off_c, 10, 55, 64
11, 1292520, Note_on_c, 10, 55, 127
11, 1292635, Note_off_c, 10, 55, 64
11, 1292640, Note_on_c, 10, 79, 127
11, 1292755, Note_off_c, 10, 79, 64
11, 1292760, Note_on_c, 10, 79, 127
11, 1292875, Note_off_c, 10, 79, 64
11, 1292880, Note_on_c, 10, 80, 127
11, 1292995, Note_off_c, 10, 80, 64
11, 1293000, Note_on_c, 10, 80, 127
11, 1293115, Note_off_c, 10, 80, 64
11, 1293120, Note_on_c, 10, 75, 127
11, 1293235, Note_off_c, 10, 75, 64
11, 1293240, Note_on_c, 10, 75, 127
11, 1293355, Note_off_c, 10, 75, 64
11, 1293360, Note_on_c, 10, 72, 127
11, 1293475, Note_off_c, 10, 72, 64
11, 1293480, Note_on_c, 10, 72, 127
11, 1293595, Note_off_c, 10, 72, 64
11, 1293600, Note_on_c, 10, 68, 127
11, 1293715, Note_off_c, 10, 68, 64
11, 1293720, Note_on_c, 10, 68, 127
11, 1293835, Note_off_c, 10, 68, 64
11, 1293840, Note_on_c, 10, 63, 127
11, 1293955, Note_off_c, 10, 63, 64
11, 1293960, Note_on_c, 10, 63, 127
11, 1294075, Note_off_c, 10, 63, 64
11, 1294080, Note_on_c, 10, 60, 127
11, 1294195, Note_off_c, 10, 60, 64
11, 1294200, Note_on_c, 10, 60, 127
11, 1294315, Note_off_c, 10, 60, 64
11, 1294320, Note_on_c, 10, 56, 127
11, 1294435, Note_off_c, 10, 56, 64
11, 1294440, Note_on_c, 10, 56, 127
11, 1294555, Note_off_c, 10, 56, 64
11, 1294560, Note_on_c, 10, 80, 127
11, 1294675, Note_off_c, 10, 80, 64
11, 1294680, Note_on_c, 10, 80, 127
11, 1294795, Note_off_c, 10, 80, 64
11, 1294800, Note_on_c, 10, 80, 127
11, 1294915, Note_off_c, 10, 80, 64
11, 1294920, Note_on_c, 10, 80, 127
11, 1295035, Note_off_c, 10, 80, 64
11, 1295040, Note_on_c, 10, 75, 127
11, 1295155, Note_off_c, 10, 75, 64
11, 1295160, Note_on_c, 10, 75, 127
11, 1295275, Note_off_c, 10, 75, 64
11, 1295280, Note_on_c, 10, 72, 127
11, 1295395, Note_off_c, 10, 72, 64
11, 1295400, Note_on_c, 10, 72, 127
11, 1295515, Note_off_c, 10, 72, 64
11, 1295520, Note_on_c, 10, 68, 127
11, 1295635, Note_off_c, 10, 68, 64
11, 1295640, Note_on_c, 10, 68, 127
11, 1295755, Note_off_c, 10, 68, 64
11, 1295760, Note_on_c, 10, 63, 127
11, 1295875, Note_off_c, 10, 63, 64
11, 1295880, Note_on_c, 10, 63, 127
11, 1295995, Note_off_c, 10, 63, 64
11, 1296000, Note_on_c, 10, 60, 127
11, 1296115, Note_off_c, 10, 60, 64
11, 1296120, Note_on_c, 10, 60, 127
11, 1296235, Note_off_c, 10, 60, 64
11, 1296240, Note_on_c, 10, 56, 127
11, 1296355, Note_off_c, 10, 56, 64
11, 1296360, Note_on_c, 10, 56, 127
11, 1296475, Note_off_c, 10, 56, 64
11, 1296480, Note_on_c, 10, 80, 127
11, 1296595, Note_off_c, 10, 80, 64
11, 1296600, Note_on_c, 10, 80, 127
11, 1296715, Note_off_c, 10, 80, 64
11, 1296720, Note_on_c, 10, 80, 127
11, 1296835, Note_off_c, 10, 80, 64
11, 1296840, Note_on_c, 10, 80, 127
11, 1296955, Note_off_c, 10, 80, 64
11, 1296960, Note_on_c, 10, 77, 127
11, 1297075, Note_off_c, 10, 77, 64
11, 1297080, Note_on_c, 10, 77, 127
11, 1297195, Note_off_c, 10, 77, 64
11, 1297200, Note_on_c, 10, 73, 127
11, 1297315, Note_off_c, 10, 73, 64
11, 1297320, Note_on_c, 10, 73, 127
11, 1297435, Note_off_c, 10, 73, 64
11, 1297440, Note_on_c, 10, 68, 127
11, 1297555, Note_off_c, 10, 68, 64
11, 1297560, Note_on_c, 10, 68, 127
11, 1297675, Note_off_c, 10, 68, 64
11, 1297680, Note_on_c, 10, 65, 127
11, 1297795, Note_off_c, 10, 65, 64
11, 1297800, Note_on_c, 10, 65, 127
11, 1297915, Note_off_c, 10, 65, 64
11, 1297920, Note_on_c, 10, 61, 127
11, 1298035, Note_off_c, 10, 61, 64
11, 1298040, Note_on_c, 10, 61, 127
11, 1298155, Note_off_c, 10, 61, 64
11, 1298160, Note_on_c, 10, 56, 127
11, 1298275, Note_off_c, 10, 56, 64
11, 1298280, Note_on_c, 10, 56, 127
11, 1298395, Note_off_c, 10, 56, 64
11, 1298400, Note_on_c, 10, 80, 127
11, 1298515, Note_off_c, 10, 80, 64
11, 1298520, Note_on_c, 10, 80, 127
11, 1298635, Note_off_c, 10, 80, 64
11, 1298640, Note_on_c, 10, 80, 127
11, 1298755, Note_off_c, 10, 80, 64
11, 1298760, Note_on_c, 10, 80, 127
11, 1298875, Note_off_c, 10, 80, 64
11, 1298880, Note_on_c, 10, 77, 127
11, 1298995, Note_off_c, 10, 77, 64
11, 1299000, Note_on_c, 10, 77, 127
11, 1299115, Note_off_c, 10, 77, 64
11, 1299120, Note_on_c, 10, 73, 127
11, 1299235, Note_off_c, 10, 73, 64
11, 1299240, Note_on_c, 10, 73, 127
11, 1299355, Note_off_c, 10, 73, 64
11, 1299360, Note_on_c, 10, 68, 127
11, 1299475, Note_off_c, 10, 68, 64
11, 1299480, Note_on_c, 10, 68, 127
11, 1299595, Note_off_c, 10, 68, 64
11, 1299600, Note_on_c, 10, 65, 127
11, 1299715, Note_off_c, 10, 65, 64
11, 1299720, Note_on_c, 10, 65, 127
11, 1299835, Note_off_c, 10, 65, 64
11, 1299840, Note_on_c, 10, 61, 127
11, 1299955, Note_off_c, 10, 61, 64
11, 1299960, Note_on_c, 10, 61, 127
11, 1300075, Note_off_c, 10, 61, 64
11, 1300080, Note_on_c, 10, 57, 127
11, 1300195, Note_off_c, 10, 57, 64
11, 1300200, Note_on_c, 10, 57, 127
11, 1300315, Note_off_c, 10, 57, 64
11, 1300320, Note_on_c, 10, 81, 127
11, 1300435, Note_off_c, 10, 81, 64
11, 1300440, Note_on_c, 10, 81, 127
11, 1300555, Note_off_c, 10, 81, 64
11, 1300560, Note_on_c, 10, 82, 127
11, 1300675, Note_off_c, 10, 82, 64
11, 1300680, Note_on_c, 10, 82, 127
11, 1300795, Note_off_c, 10, 82, 64
11, 1300800, Note_on_c, 10, 77, 127
11, 1300915, Note_off_c, 10, 77, 64
11, 1300920, Note_on_c, 10, 77, 127
11, 1301035, Note_off_c, 10, 77, 64
11, 1301040, Note_on_c, 10, 74, 127
11, 1301155, Note_off_c, 10, 74, 64
11, 1301160, Note_on_c, 10, 74, 127
11, 1301275, Note_off_c, 10, 74, 64
11, 1301280, Note_on_c, 10, 70, 127
11, 1301395, Note_off_c, 10, 70, 64
11, 1301400, Note_on_c, 10, 70, 127
11, 1301515, Note_off_c, 10, 70, 64
11, 1301520, Note_on_c, 10, 65, 127
11, 1301635, Note_off_c, 10, 65, 64
11, 1301640, Note_on_c, 10, 65, 127
11, 1301755, Note_off_c, 10, 65, 64
11, 1301760, Note_on_c, 10, 62, 127
11, 1301875, Note_off_c, 10, 62, 64
11, 1301880, Note_on_c, 10, 62, 127
11, 1301995, Note_off_c, 10, 62, 64
11, 1302000, Note_on_c, 10, 58, 127
11, 1302115, Note_off_c, 10, 58, 64
11, 1302120, Note_on_c, 10, 58, 127
11, 1302235, Note_off_c, 10, 58, 64
11, 1302240, Note_on_c, 10, 82, 127
11, 1302355, Note_off_c, 10, 82, 64
11, 1302360, Note_on_c, 10, 82, 127
11, 1302475, Note_off_c, 10, 82, 64
11, 1302480, Note_on_c, 10, 82, 127
11, 1302595, Note_off_c, 10, 82, 64
11, 1302600, Note_on_c, 10, 82, 127
11, 1302715, Note_off_c, 10, 82, 64
11, 1302720, Note_on_c, 10, 77, 127
11, 1302835, Note_off_c, 10, 77, 64
11, 1302840, Note_on_c, 10, 77, 127
11, 1302955, Note_off_c, 10, 77, 64
11, 1302960, Note_on_c, 10, 74, 127
11, 1303075, Note_off_c, 10, 74, 64
11, 1303080, Note_on_c, 10, 74, 127
11, 1303195, Note_off_c, 10, 74, 64
11, 1303200, Note_on_c, 10, 70, 127
11, 1303315, Note_off_c, 10, 70, 64
11, 1303320, Note_on_c, 10, 70, 127
11, 1303435, Note_off_c, 10, 70, 64
11, 1303440, Note_on_c, 10, 65, 127
11, 1303555, Note_off_c, 10, 65, 64
11, 1303560, Note_on_c, 10, 65, 127
11, 1303675, Note_off_c, 10, 65, 64
11, 1303680, Note_on_c, 10, 62, 127
11, 1303795, Note_off_c, 10, 62, 64
11, 1303800, Note_on_c, 10, 62, 127
11, 1303915, Note_off_c, 10, 62, 64
11, 1303920, Note_on_c, 10, 58, 127
11, 1304035, Note_off_c, 10, 58, 64
11, 1304040, Note_on_c, 10, 58, 127
11, 1304155, Note_off_c, 10, 58, 64
11, 1304160, Note_on_c, 10, 82, 127
11, 1304275, Note_off_c, 10, 82, 64
11, 1304280, Note_on_c, 10, 82, 127
11, 1304395, Note_off_c, 10, 82, 64
11, 1304400, Note_on_c, 10, 82, 127
11, 1304515, Note_off_c, 10, 82, 64
11, 1304520, Note_on_c, 10, 82, 127
11, 1304635, Note_off_c, 10, 82, 64
11, 1304640, Note_on_c, 10, 78, 127
11, 1304755, Note_off_c, 10, 78, 64
11, 1304760, Note_on_c, 10, 78, 127
11, 1304875, Note_off_c, 10, 78, 64
11, 1304880, Note_on_c, 10, 75, 127
11, 1304995, Note_off_c, 10, 75, 64
11, 1305000, Note_on_c, 10, 75, 127
11, 1305115, Note_off_c, 10, 75, 64
11, 1305120, Note_on_c, 10, 70, 127
11, 1305235, Note_off_c, 10, 70, 64
11, 1305240, Note_on_c, 10, 70, 127
11, 1305355, Note_off_c, 10, 70, 64
11, 1305360, Note_on_c, 10, 66, 127
11, 1305475, Note_off_c, 10, 66, 64
11, 1305480, Note_on_c, 10, 66, 127
11, 1305595, Note_off_c, 10, 66, 64
11, 1305600, Note_on_c, 10, 63, 127
11, 1305715, Note_off_c, 10, 63, 64
11, 1305720, Note_on_c, 10, 63, 127
11, 1305835, Note_off_c, 10, 63, 64
11, 1305840, Note_on_c, 10, 60, 127
11, 1305955, Note_off_c, 10, 60, 64
11, 1305960, Note_on_c, 10, 60, 127
11, 1306075, Note_off_c, 10, 60, 64
11, 1306080, Note_on_c, 10, 82, 127
11, 1306195, Note_off_c, 10, 82, 64
11, 1306200, Note_on_c, 10, 82, 127
11, 1306315, Note_off_c, 10, 82, 64
11, 1306320, Note_on_c, 10, 82, 127
11, 1306435, Note_off_c, 10, 82, 64
11, 1306440, Note_on_c, 10, 82, 127
11, 1306555, Note_off_c, 10, 82, 64
11, 1306560, Note_on_c, 10, 78, 127
11, 1306675, Note_off_c, 10, 78, 64
11, 1306680, Note_on_c, 10, 78, 127
11, 1306795, Note_off_c, 10, 78, 64
11, 1306800, Note_on_c, 10, 75, 127
11, 1306915, Note_off_c, 10, 75, 64
11, 1306920, Note_on_c, 10, 75, 127
11, 1307035, Note_off_c, 10, 75, 64
11, 1307040, Note_on_c, 10, 70, 127
11, 1307155, Note_off_c, 10, 70, 64
11, 1307160, Note_on_c, 10, 70, 127
11, 1307275, Note_off_c, 10, 70, 64
11, 1307280, Note_on_c, 10, 66, 127
11, 1307395, Note_off_c, 10, 66, 64
11, 1307400, Note_on_c, 10, 66, 127
11, 1307515, Note_off_c, 10, 66, 64
11, 1307520, Note_on_c, 10, 63, 127
11, 1307635, Note_off_c, 10, 63, 64
11, 1307640, Note_on_c, 10, 63, 127
11, 1307755, Note_off_c, 10, 63, 64
11, 1307760, Note_on_c, 10, 60, 127
11, 1307875, Note_off_c, 10, 60, 64
11, 1307880, Note_on_c, 10, 60, 127
11, 1307995, Note_off_c, 10, 60, 64
11, 1308000, Note_on_c, 10, 72, 127
11, 1308115, Note_off_c, 10, 72, 64
11, 1308120, Note_on_c, 10, 72, 127
11, 1308235, Note_off_c, 10, 72, 64
11, 1308240, Note_on_c, 10, 73, 127
11, 1308640, Note_off_c, 10, 73, 64
11, 1309200, Note_on_c, 10, 85, 127
11, 1309840, Note_off_c, 10, 85, 64
11, 1309920, Note_on_c, 10, 80, 127
11, 1310000, Note_off_c, 10, 80, 64
11, 1310160, Note_on_c, 10, 82, 127
11, 1310240, Note_off_c, 10, 82, 64
11, 1310400, Note_on_c, 10, 77, 127
11, 1310480, Note_off_c, 10, 77, 64
11, 1310640, Note_on_c, 10, 78, 127
11, 1310720, Note_off_c, 10, 78, 64
11, 1310880, Note_on_c, 10, 77, 127
11, 1310960, Note_off_c, 10, 77, 64
11, 1311120, Note_on_c, 10, 75, 127
11, 1311200, Note_off_c, 10, 75, 64
11, 1311360, Note_on_c, 10, 73, 127
11, 1311440, Note_off_c, 10, 73, 64
11, 1311600, Note_on_c, 10, 73, 127
11, 1311680, Note_off_c, 10, 73, 64
11, 1311840, Note_on_c, 10, 72, 127
11, 1311920, Note_off_c, 10, 72, 64
11, 1312080, Note_on_c, 10, 70, 127
11, 1312480, Note_off_c, 10, 70, 64
11, 1313040, Note_on_c, 10, 82, 127
11, 1313680, Note_off_c, 10, 82, 64
11, 1313760, Note_on_c, 10, 77, 127
11, 1313840, Note_off_c, 10, 77, 64
11, 1314000, Note_on_c, 10, 78, 127
11, 1314080, Note_off_c, 10, 78, 64
11, 1314240, Note_on_c, 10, 73, 127
11, 1314320, Note_off_c, 10, 73, 64
11, 1314480, Note_on_c, 10, 75, 127
11, 1314560, Note_off_c, 10, 75, 64
11, 1314720, Note_on_c, 10, 73, 127
11, 1314800, Note_off_c, 10, 73, 64
11, 1314960, Note_on_c, 10, 71, 127
11, 1315040, Note_off_c, 10, 71, 64
11, 1315200, Note_on_c, 10, 70, 127
11, 1315280, Note_off_c, 10, 70, 64
11, 1315440, Note_on_c, 10, 70, 127
11, 1315520, Note_off_c, 10, 70, 64
11, 1315680, Note_on_c, 10, 68, 127
11, 1315760, Note_off_c, 10, 68, 64
11, 1315920, Note_on_c, 10, 66, 127
11, 1316320, Note_off_c, 10, 66, 64
11, 1316880, Note_on_c, 10, 78, 127
11, 1317520, Note_off_c, 10, 78, 64
11, 1317600, Note_on_c, 10, 73, 127
11, 1317680, Note_off_c, 10, 73, 64
11, 1317840, Note_on_c, 10, 75, 127
11, 1317920, Note_off_c, 10, 75, 64
11, 1318080, Note_on_c, 10, 70, 127
11, 1318160, Note_off_c, 10, 70, 64
11, 1318320, Note_on_c, 10, 71, 127
11, 1318400, Note_off_c, 10, 71, 64
11, 1318560, Note_on_c, 10, 70, 127
11, 1318640, Note_off_c, 10, 70, 64
11, 1318800, Note_on_c, 10, 68, 127
11, 1318880, Note_off_c, 10, 68, 64
11, 1319040, Note_on_c, 10, 66, 127
11, 1319120, Note_off_c, 10, 66, 64
11, 1319280, Note_on_c, 10, 66, 127
11, 1319360, Note_off_c, 10, 66, 64
11, 1319520, Note_on_c, 10, 67, 127
11, 1319600, Note_off_c, 10, 67, 64
11, 1319760, Note_on_c, 10, 67, 127
11, 1319995, Note_off_c, 10, 67, 64
11, 1320000, Note_on_c, 10, 78, 127
11, 1320240, Note_off_c, 10, 78, 64
11, 1320240, Note_on_c, 10, 79, 127
11, 1320955, Note_off_c, 10, 79, 64
11, 1320960, Note_on_c, 10, 78, 60
11, 1321200, Note_off_c, 10, 78, 64
11, 1321200, Note_on_c, 10, 77, 60
11, 1321440, Note_off_c, 10, 77, 64
11, 1321440, Note_on_c, 10, 76, 60
11, 1321680, Note_off_c, 10, 76, 64
11, 1321680, Note_on_c, 10, 74, 60
11, 1321920, Note_off_c, 10, 74, 64
11, 1321920, Note_on_c, 10, 73, 60
11, 1322160, Note_off_c, 10, 73, 64
11, 1322160, Note_on_c, 10, 72, 60
11, 1322400, Note_off_c, 10, 72, 64
11, 1322400, Note_on_c, 10, 71, 60
11, 1322640, Note_off_c, 10, 71, 64
11, 1322640, Note_on_c, 10, 70, 60
11, 1322880, Note_off_c, 10, 70, 64
11, 1322880, Note_on_c, 10, 69, 60
11, 1323120, Note_off_c, 10, 69, 64
11, 1323120, Note_on_c, 10, 68, 60
11, 1323360, Note_off_c, 10, 68, 64
11, 1323360, Note_on_c, 10, 67, 60
11, 1323595, Note_off_c, 10, 67, 64
11, 1323600, Note_on_c, 10, 66, 60
11, 1323840, Note_off_c, 10, 66, 64
11, 1323840, Note_on_c, 10, 65, 61
11, 1324080, Note_off_c, 10, 65, 64
11, 1324080, Note_on_c, 10, 64, 62
11, 1324320, Note_off_c, 10, 64, 64
11, 1324320, Note_on_c, 10, 63, 64
11, 1324560, Note_off_c, 10, 63, 64
11, 1324560, Note_on_c, 10, 62, 66
11, 1324800, Note_off_c, 10, 62, 64
11, 1324800, Note_on_c, 10, 61, 68
11, 1325040, Note_off_c, 10, 61, 64
11, 1325040, Note_on_c, 10, 60, 70
11, 1325280, Note_off_c, 10, 60, 64
11, 1325280, Note_on_c, 10, 59, 72
11, 1325515, Note_off_c, 10, 59, 64
11, 1325520, Note_on_c, 10, 58, 74
11, 1325760, Note_off_c, 10, 58, 64
11, 1325760, Note_on_c, 10, 59, 76
11, 1326000, Note_off_c, 10, 59, 64
11, 1326000, Note_on_c, 10, 60, 78
11, 1326240, Note_off_c, 10, 60, 64
11, 1326240, Note_on_c, 10, 61, 80
11, 1326480, Note_off_c, 10, 61, 64
11, 1326480, Note_on_c, 10, 62, 82
11, 1326720, Note_off_c, 10, 62, 64
11, 1326720, Note_on_c, 10, 63, 84
11, 1326960, Note_off_c, 10, 63, 64
11, 1326960, Note_on_c, 10, 64, 86
11, 1327200, Note_off_c, 10, 64, 64
11, 1327200, Note_on_c, 10, 63, 88
11, 1327440, Note_off_c, 10, 63, 64
11, 1327440, Note_on_c, 10, 64, 90
11, 1327675, Note_off_c, 10, 64, 64
11, 1327680, Note_on_c, 10, 78, 92
11, 1327920, Note_off_c, 10, 78, 64
11, 1327920, Note_on_c, 10, 79, 92
11, 1328635, Note_off_c, 10, 79, 64
11, 1328640, Note_on_c, 10, 78, 60
11, 1328880, Note_off_c, 10, 78, 64
11, 1328880, Note_on_c, 10, 77, 60
11, 1329120, Note_off_c, 10, 77, 64
11, 1329120, Note_on_c, 10, 76, 60
11, 1329360, Note_off_c, 10, 76, 64
11, 1329360, Note_on_c, 10, 74, 60
11, 1329600, Note_off_c, 10, 74, 64
11, 1329600, Note_on_c, 10, 73, 60
11, 1329840, Note_off_c, 10, 73, 64
11, 1329840, Note_on_c, 10, 72, 60
11, 1330080, Note_off_c, 10, 72, 64
11, 1330080, Note_on_c, 10, 71, 60
11, 1330320, Note_off_c, 10, 71, 64
11, 1330320, Note_on_c, 10, 70, 60
11, 1330560, Note_off_c, 10, 70, 64
11, 1330560, Note_on_c, 10, 69, 60
11, 1330800, Note_off_c, 10, 69, 64
11, 1330800, Note_on_c, 10, 68, 60
11, 1331040, Note_off_c, 10, 68, 64
11, 1331040, Note_on_c, 10, 67, 60
11, 1331275, Note_off_c, 10, 67, 64
11, 1331280, Note_on_c, 10, 66, 60
11, 1331520, Note_off_c, 10, 66, 64
11, 1331520, Note_on_c, 10, 65, 63
11, 1331760, Note_off_c, 10, 65, 64
11, 1331760, Note_on_c, 10, 64, 66
11, 1332000, Note_off_c, 10, 64, 64
11, 1332000, Note_on_c, 10, 63, 69
11, 1332240, Note_off_c, 10, 63, 64
11, 1332240, Note_on_c, 10, 62, 72
11, 1332480, Note_off_c, 10, 62, 64
11, 1332480, Note_on_c, 10, 61, 75
11, 1332720, Note_off_c, 10, 61, 64
11, 1332720, Note_on_c, 10, 60, 78
11, 1332960, Note_off_c, 10, 60, 64
11, 1332960, Note_on_c, 10, 59, 81
11, 1333195, Note_off_c, 10, 59, 64
11, 1333200, Note_on_c, 10, 58, 84
11, 1333440, Note_off_c, 10, 58, 64
11, 1333440, Note_on_c, 10, 59, 87
11, 1333680, Note_off_c, 10, 59, 64
11, 1333680, Note_on_c, 10, 60, 90
11, 1333920, Note_off_c, 10, 60, 64
11, 1333920, Note_on_c, 10, 61, 93
11, 1334160, Note_off_c, 10, 61, 64
11, 1334160, Note_on_c, 10, 62, 96
11, 1334400, Note_off_c, 10, 62, 64
11, 1334400, Note_on_c, 10, 63, 99
11, 1334640, Note_off_c, 10, 63, 64
11, 1334640, Note_on_c, 10, 64, 102
11, 1334880, Note_off_c, 10, 64, 64
11, 1334880, Note_on_c, 10, 63, 105
11, 1335120, Note_off_c, 10, 63, 64
11, 1335120, Note_on_c, 10, 64, 108
11, 1335355, Note_off_c, 10, 64, 64
11, 1335360, Note_on_c, 10, 78, 108
11, 1335600, Note_off_c, 10, 78, 64
11, 1335600, Note_on_c, 10, 79, 108
11, 1337275, Note_off_c, 10, 79, 64
11, 1337280, Note_on_c, 10, 78, 108
11, 1337520, Note_off_c, 10, 78, 64
11, 1337520, Note_on_c, 10, 79, 108
11, 1339195, Note_off_c, 10, 79, 64
11, 1339200, Note_on_c, 10, 79, 108
11, 1339440, Note_off_c, 10, 79, 64
11, 1339440, Note_on_c, 10, 80, 108
11, 1341115, Note_off_c, 10, 80, 64
11, 1341120, Note_on_c, 10, 79, 108
11, 1341360, Note_off_c, 10, 79, 64
11, 1341360, Note_on_c, 10, 80, 108
11, 1341760, Note_off_c, 10, 80, 64
11, 1341840, Note_on_c, 10, 69, 108
11, 1341840, Note_on_c, 10, 81, 108
11, 1342075, Note_off_c, 10, 81, 64
11, 1342075, Note_off_c, 10, 69, 64
11, 1342080, Note_on_c, 10, 83, 108
11, 1342315, Note_off_c, 10, 83, 64
11, 1342320, Note_on_c, 10, 69, 108
11, 1342320, Note_on_c, 10, 84, 108
11, 1342435, Note_off_c, 10, 84, 64
11, 1342435, Note_off_c, 10, 69, 64
11, 1342440, Note_on_c, 10, 69, 108
11, 1342440, Note_on_c, 10, 84, 108
11, 1342555, Note_off_c, 10, 84, 64
11, 1342555, Note_off_c, 10, 69, 64
11, 1342560, Note_on_c, 10, 69, 108
11, 1342560, Note_on_c, 10, 84, 108
11, 1342675, Note_off_c, 10, 84, 64
11, 1342675, Note_off_c, 10, 69, 64
11, 1342680, Note_on_c, 10, 69, 108
11, 1342680, Note_on_c, 10, 84, 108
11, 1342795, Note_off_c, 10, 84, 64
11, 1342795, Note_off_c, 10, 69, 64
11, 1342800, Note_on_c, 10, 69, 108
11, 1342800, Note_on_c, 10, 84, 108
11, 1342915, Note_off_c, 10, 84, 64
11, 1342915, Note_off_c, 10, 69, 64
11, 1342920, Note_on_c, 10, 69, 108
11, 1342920, Note_on_c, 10, 84, 108
11, 1343035, Note_off_c, 10, 84, 64
11, 1343035, Note_off_c, 10, 69, 64
11, 1343040, Note_on_c, 10, 69, 108
11, 1343040, Note_on_c, 10, 84, 108
11, 1343155, Note_off_c, 10, 84, 64
11, 1343155, Note_off_c, 10, 69, 64
11, 1343160, Note_on_c, 10, 69, 108
11, 1343160, Note_on_c, 10, 84, 108
11, 1343275, Note_off_c, 10, 84, 64
11, 1343275, Note_off_c, 10, 69, 64
11, 1343280, Note_on_c, 10, 69, 108
11, 1343280, Note_on_c, 10, 84, 108
11, 1343395, Note_off_c, 10, 84, 64
11, 1343395, Note_off_c, 10, 69, 64
11, 1343400, Note_on_c, 10, 69, 108
11, 1343400, Note_on_c, 10, 84, 108
11, 1343515, Note_off_c, 10, 84, 64
11, 1343515, Note_off_c, 10, 69, 64
11, 1343520, Note_on_c, 10, 69, 108
11, 1343520, Note_on_c, 10, 84, 108
11, 1343635, Note_off_c, 10, 84, 64
11, 1343635, Note_off_c, 10, 69, 64
11, 1343640, Note_on_c, 10, 69, 108
11, 1343640, Note_on_c, 10, 84, 108
11, 1343755, Note_off_c, 10, 84, 64
11, 1343755, Note_off_c, 10, 69, 64
11, 1343760, Note_on_c, 10, 69, 108
11, 1343760, Note_on_c, 10, 84, 108
11, 1343875, Note_off_c, 10, 84, 64
11, 1343875, Note_off_c, 10, 69, 64
11, 1343880, Note_on_c, 10, 69, 108
11, 1343880, Note_on_c, 10, 84, 108
11, 1343995, Note_off_c, 10, 84, 64
11, 1343995, Note_off_c, 10, 69, 64
11, 1344000, Note_on_c, 10, 69, 108
11, 1344000, Note_on_c, 10, 84, 108
11, 1344115, Note_off_c, 10, 84, 64
11, 1344115, Note_off_c, 10, 69, 64
11, 1344120, Note_on_c, 10, 69, 108
11, 1344120, Note_on_c, 10, 84, 108
11, 1344235, Note_off_c, 10, 84, 64
11, 1344235, Note_off_c, 10, 69, 64
11, 1344240, Note_on_c, 10, 69, 108
11, 1344240, Note_on_c, 10, 84, 108
11, 1344355, Note_off_c, 10, 84, 64
11, 1344355, Note_off_c, 10, 69, 64
11, 1344360, Note_on_c, 10, 69, 108
11, 1344360, Note_on_c, 10, 84, 108
11, 1344475, Note_off_c, 10, 84, 64
11, 1344475, Note_off_c, 10, 69, 64
11, 1344480, Note_on_c, 10, 69, 108
11, 1344480, Note_on_c, 10, 84, 108
11, 1344595, Note_off_c, 10, 84, 64
11, 1344595, Note_off_c, 10, 69, 64
11, 1344600, Note_on_c, 10, 69, 108
11, 1344600, Note_on_c, 10, 84, 108
11, 1344715, Note_off_c, 10, 84, 64
11, 1344715, Note_off_c, 10, 69, 64
11, 1344720, Note_on_c, 10, 69, 108
11, 1344720, Note_on_c, 10, 84, 108
11, 1344835, Note_off_c, 10, 84, 64
11, 1344835, Note_off_c, 10, 69, 64
11, 1344840, Note_on_c, 10, 69, 108
11, 1344840, Note_on_c, 10, 84, 108
11, 1344955, Note_off_c, 10, 84, 64
11, 1344955, Note_off_c, 10, 69, 64
11, 1344960, Note_on_c, 10, 69, 108
11, 1344960, Note_on_c, 10, 84, 108
11, 1345075, Note_off_c, 10, 84, 64
11, 1345075, Note_off_c, 10, 69, 64
11, 1345080, Note_on_c, 10, 69, 108
11, 1345080, Note_on_c, 10, 84, 108
11, 1345195, Note_off_c, 10, 84, 64
11, 1345195, Note_off_c, 10, 69, 64
11, 1345200, Note_on_c, 10, 69, 108
11, 1345200, Note_on_c, 10, 84, 108
11, 1345315, Note_off_c, 10, 84, 64
11, 1345315, Note_off_c, 10, 69, 64
11, 1345320, Note_on_c, 10, 69, 108
11, 1345320, Note_on_c, 10, 84, 108
11, 1345435, Note_off_c, 10, 84, 64
11, 1345435, Note_off_c, 10, 69, 64
11, 1345440, Note_on_c, 10, 69, 108
11, 1345440, Note_on_c, 10, 84, 108
11, 1345555, Note_off_c, 10, 84, 64
11, 1345555, Note_off_c, 10, 69, 64
11, 1345560, Note_on_c, 10, 69, 108
11, 1345560, Note_on_c, 10, 84, 108
11, 1345675, Note_off_c, 10, 84, 64
11, 1345675, Note_off_c, 10, 69, 64
11, 1345680, Note_on_c, 10, 69, 108
11, 1345680, Note_on_c, 10, 84, 108
11, 1345795, Note_off_c, 10, 84, 64
11, 1345795, Note_off_c, 10, 69, 64
11, 1345800, Note_on_c, 10, 69, 108
11, 1345800, Note_on_c, 10, 84, 108
11, 1345915, Note_off_c, 10, 84, 64
11, 1345915, Note_off_c, 10, 69, 64
11, 1345920, Note_on_c, 10, 69, 108
11, 1345920, Note_on_c, 10, 84, 108
11, 1346035, Note_off_c, 10, 84, 64
11, 1346035, Note_off_c, 10, 69, 64
11, 1346040, Note_on_c, 10, 69, 108
11, 1346040, Note_on_c, 10, 84, 108
11, 1346155, Note_off_c, 10, 84, 64
11, 1346155, Note_off_c, 10, 69, 64
11, 1346160, Note_on_c, 10, 69, 108
11, 1346160, Note_on_c, 10, 84, 108
11, 1346275, Note_off_c, 10, 84, 64
11, 1346275, Note_off_c, 10, 69, 64
11, 1346280, Note_on_c, 10, 69, 108
11, 1346280, Note_on_c, 10, 84, 108
11, 1346395, Note_off_c, 10, 84, 64
11, 1346395, Note_off_c, 10, 69, 64
11, 1346400, Note_on_c, 10, 69, 108
11, 1346400, Note_on_c, 10, 84, 108
11, 1346515, Note_off_c, 10, 84, 64
11, 1346515, Note_off_c, 10, 69, 64
11, 1346520, Note_on_c, 10, 69, 108
11, 1346520, Note_on_c, 10, 84, 108
11, 1346635, Note_off_c, 10, 84, 64
11, 1346635, Note_off_c, 10, 69, 64
11, 1346640, Note_on_c, 10, 69, 108
11, 1346640, Note_on_c, 10, 84, 108
11, 1346755, Note_off_c, 10, 84, 64
11, 1346755, Note_off_c, 10, 69, 64
11, 1346760, Note_on_c, 10, 69, 108
11, 1346760, Note_on_c, 10, 84, 108
11, 1346875, Note_off_c, 10, 84, 64
11, 1346875, Note_off_c, 10, 69, 64
11, 1346880, Note_on_c, 10, 69, 108
11, 1346880, Note_on_c, 10, 84, 108
11, 1346995, Note_off_c, 10, 84, 64
11, 1346995, Note_off_c, 10, 69, 64
11, 1347000, Note_on_c, 10, 69, 108
11, 1347000, Note_on_c, 10, 84, 108
11, 1347115, Note_off_c, 10, 84, 64
11, 1347115, Note_off_c, 10, 69, 64
11, 1347120, Note_on_c, 10, 69, 108
11, 1347120, Note_on_c, 10, 84, 108
11, 1347235, Note_off_c, 10, 84, 64
11, 1347235, Note_off_c, 10, 69, 64
11, 1347240, Note_on_c, 10, 69, 108
11, 1347240, Note_on_c, 10, 84, 108
11, 1347355, Note_off_c, 10, 84, 64
11, 1347355, Note_off_c, 10, 69, 64
11, 1347360, Note_on_c, 10, 69, 108
11, 1347360, Note_on_c, 10, 84, 108
11, 1347475, Note_off_c, 10, 84, 64
11, 1347475, Note_off_c, 10, 69, 64
11, 1347480, Note_on_c, 10, 69, 108
11, 1347480, Note_on_c, 10, 84, 108
11, 1347595, Note_off_c, 10, 84, 64
11, 1347595, Note_off_c, 10, 69, 64
11, 1347600, Note_on_c, 10, 69, 108
11, 1347600, Note_on_c, 10, 84, 108
11, 1347715, Note_off_c, 10, 84, 64
11, 1347715, Note_off_c, 10, 69, 64
11, 1347720, Note_on_c, 10, 69, 108
11, 1347720, Note_on_c, 10, 84, 108
11, 1347835, Note_off_c, 10, 84, 64
11, 1347835, Note_off_c, 10, 69, 64
11, 1347840, Note_on_c, 10, 69, 108
11, 1347840, Note_on_c, 10, 84, 108
11, 1347955, Note_off_c, 10, 84, 64
11, 1347955, Note_off_c, 10, 69, 64
11, 1347960, Note_on_c, 10, 69, 108
11, 1347960, Note_on_c, 10, 84, 108
11, 1348075, Note_off_c, 10, 84, 64
11, 1348075, Note_off_c, 10, 69, 64
11, 1348080, Note_on_c, 10, 69, 108
11, 1348080, Note_on_c, 10, 84, 108
11, 1348195, Note_off_c, 10, 84, 64
11, 1348195, Note_off_c, 10, 69, 64
11, 1348200, Note_on_c, 10, 69, 108
11, 1348200, Note_on_c, 10, 84, 108
11, 1348315, Note_off_c, 10, 84, 64
11, 1348315, Note_off_c, 10, 69, 64
11, 1348320, Note_on_c, 10, 69, 108
11, 1348320, Note_on_c, 10, 84, 108
11, 1348435, Note_off_c, 10, 84, 64
11, 1348435, Note_off_c, 10, 69, 64
11, 1348440, Note_on_c, 10, 69, 108
11, 1348440, Note_on_c, 10, 84, 108
11, 1348555, Note_off_c, 10, 84, 64
11, 1348555, Note_off_c, 10, 69, 64
11, 1348560, Note_on_c, 10, 69, 108
11, 1348560, Note_on_c, 10, 84, 108
11, 1348675, Note_off_c, 10, 84, 64
11, 1348675, Note_off_c, 10, 69, 64
11, 1348680, Note_on_c, 10, 69, 108
11, 1348680, Note_on_c, 10, 84, 108
11, 1348795, Note_off_c, 10, 84, 64
11, 1348795, Note_off_c, 10, 69, 64
11, 1348800, Note_on_c, 10, 69, 108
11, 1348800, Note_on_c, 10, 84, 108
11, 1348915, Note_off_c, 10, 84, 64
11, 1348915, Note_off_c, 10, 69, 64
11, 1348920, Note_on_c, 10, 69, 108
11, 1348920, Note_on_c, 10, 84, 108
11, 1349035, Note_off_c, 10, 84, 64
11, 1349035, Note_off_c, 10, 69, 64
11, 1349040, Note_on_c, 10, 69, 108
11, 1349040, Note_on_c, 10, 84, 108
11, 1349155, Note_off_c, 10, 84, 64
11, 1349155, Note_off_c, 10, 69, 64
11, 1349160, Note_on_c, 10, 69, 108
11, 1349160, Note_on_c, 10, 84, 108
11, 1349275, Note_off_c, 10, 84, 64
11, 1349275, Note_off_c, 10, 69, 64
11, 1349280, Note_on_c, 10, 69, 108
11, 1349280, Note_on_c, 10, 84, 108
11, 1349395, Note_off_c, 10, 84, 64
11, 1349395, Note_off_c, 10, 69, 64
11, 1349400, Note_on_c, 10, 69, 108
11, 1349400, Note_on_c, 10, 84, 108
11, 1349515, Note_off_c, 10, 84, 64
11, 1349515, Note_off_c, 10, 69, 64
11, 1349520, Note_on_c, 10, 69, 108
11, 1349520, Note_on_c, 10, 84, 108
11, 1349635, Note_off_c, 10, 84, 64
11, 1349635, Note_off_c, 10, 69, 64
11, 1349640, Note_on_c, 10, 69, 108
11, 1349640, Note_on_c, 10, 84, 108
11, 1349755, Note_off_c, 10, 84, 64
11, 1349755, Note_off_c, 10, 69, 64
11, 1349760, Note_on_c, 10, 69, 108
11, 1349760, Note_on_c, 10, 84, 108
11, 1349875, Note_off_c, 10, 84, 64
11, 1349875, Note_off_c, 10, 69, 64
11, 1349880, Note_on_c, 10, 69, 108
11, 1349880, Note_on_c, 10, 84, 108
11, 1349995, Note_off_c, 10, 84, 64
11, 1349995, Note_off_c, 10, 69, 64
11, 1350000, Note_on_c, 10, 69, 108
11, 1350000, Note_on_c, 10, 84, 108
11, 1350115, Note_off_c, 10, 84, 64
11, 1350115, Note_off_c, 10, 69, 64
11, 1350120, Note_on_c, 10, 69, 108
11, 1350120, Note_on_c, 10, 84, 108
11, 1350235, Note_off_c, 10, 84, 64
11, 1350235, Note_off_c, 10, 69, 64
11, 1350240, Note_on_c, 10, 69, 108
11, 1350240, Note_on_c, 10, 84, 108
11, 1350355, Note_off_c, 10, 84, 64
11, 1350355, Note_off_c, 10, 69, 64
11, 1350360, Note_on_c, 10, 69, 108
11, 1350360, Note_on_c, 10, 84, 108
11, 1350475, Note_off_c, 10, 84, 64
11, 1350475, Note_off_c, 10, 69, 64
11, 1350480, Note_on_c, 10, 69, 108
11, 1350480, Note_on_c, 10, 84, 108
11, 1350595, Note_off_c, 10, 84, 64
11, 1350595, Note_off_c, 10, 69, 64
11, 1350600, Note_on_c, 10, 78, 108
11, 1350715, Note_off_c, 10, 78, 64
11, 1350720, Note_on_c, 10, 78, 108
11, 1350835, Note_off_c, 10, 78, 64
11, 1350840, Note_on_c, 10, 78, 108
11, 1350955, Note_off_c, 10, 78, 64
11, 1350960, Note_on_c, 10, 78, 108
11, 1351075, Note_off_c, 10, 78, 64
11, 1351080, Note_on_c, 10, 78, 108
11, 1351195, Note_off_c, 10, 78, 64
11, 1351200, Note_on_c, 10, 78, 108
11, 1351315, Note_off_c, 10, 78, 64
11, 1351320, Note_on_c, 10, 78, 108
11, 1351435, Note_off_c, 10, 78, 64
11, 1351440, Note_on_c, 10, 78, 108
11, 1351555, Note_off_c, 10, 78, 64
11, 1351560, Note_on_c, 10, 78, 108
11, 1351675, Note_off_c, 10, 78, 64
11, 1351680, Note_on_c, 10, 78, 108
11, 1351795, Note_off_c, 10, 78, 64
11, 1351800, Note_on_c, 10, 78, 108
11, 1351915, Note_off_c, 10, 78, 64
11, 1351920, Note_on_c, 10, 78, 108
11, 1352035, Note_off_c, 10, 78, 64
11, 1352040, Note_on_c, 10, 78, 108
11, 1352155, Note_off_c, 10, 78, 64
11, 1352160, Note_on_c, 10, 78, 108
11, 1352275, Note_off_c, 10, 78, 64
11, 1352280, Note_on_c, 10, 78, 108
11, 1352395, Note_off_c, 10, 78, 64
11, 1352400, Note_on_c, 10, 78, 108
11, 1352515, Note_off_c, 10, 78, 64
11, 1352520, Note_on_c, 10, 78, 108
11, 1352635, Note_off_c, 10, 78, 64
11, 1352640, Note_on_c, 10, 78, 108
11, 1352755, Note_off_c, 10, 78, 64
11, 1352760, Note_on_c, 10, 78, 108
11, 1352875, Note_off_c, 10, 78, 64
11, 1352880, Note_on_c, 10, 78, 108
11, 1352995, Note_off_c, 10, 78, 64
11, 1353000, Note_on_c, 10, 78, 108
11, 1353115, Note_off_c, 10, 78, 64
11, 1353120, Note_on_c, 10, 78, 108
11, 1353235, Note_off_c, 10, 78, 64
11, 1353240, Note_on_c, 10, 78, 108
11, 1353355, Note_off_c, 10, 78, 64
11, 1353360, Note_on_c, 10, 78, 108
11, 1353475, Note_off_c, 10, 78, 64
11, 1353480, Note_on_c, 10, 78, 108
11, 1353595, Note_off_c, 10, 78, 64
11, 1353600, Note_on_c, 10, 78, 108
11, 1353715, Note_off_c, 10, 78, 64
11, 1353720, Note_on_c, 10, 78, 108
11, 1353835, Note_off_c, 10, 78, 64
11, 1353840, Note_on_c, 10, 78, 108
11, 1353955, Note_off_c, 10, 78, 64
11, 1353960, Note_on_c, 10, 78, 108
11, 1354075, Note_off_c, 10, 78, 64
11, 1354080, Note_on_c, 10, 78, 108
11, 1354195, Note_off_c, 10, 78, 64
11, 1354200, Note_on_c, 10, 78, 108
11, 1354315, Note_off_c, 10, 78, 64
11, 1354320, Note_on_c, 10, 77, 108
11, 1354435, Note_off_c, 10, 77, 64
11, 1354440, Note_on_c, 10, 77, 108
11, 1354555, Note_off_c, 10, 77, 64
11, 1354560, Note_on_c, 10, 77, 108
11, 1354675, Note_off_c, 10, 77, 64
11, 1354680, Note_on_c, 10, 77, 108
11, 1354795, Note_off_c, 10, 77, 64
11, 1354800, Note_on_c, 10, 77, 108
11, 1354915, Note_off_c, 10, 77, 64
11, 1354920, Note_on_c, 10, 77, 108
11, 1355035, Note_off_c, 10, 77, 64
11, 1355040, Note_on_c, 10, 77, 108
11, 1355155, Note_off_c, 10, 77, 64
11, 1355160, Note_on_c, 10, 77, 108
11, 1355275, Note_off_c, 10, 77, 64
11, 1355280, Note_on_c, 10, 77, 108
11, 1355395, Note_off_c, 10, 77, 64
11, 1355400, Note_on_c, 10, 77, 108
11, 1355515, Note_off_c, 10, 77, 64
11, 1355520, Note_on_c, 10, 77, 108
11, 1355635, Note_off_c, 10, 77, 64
11, 1355640, Note_on_c, 10, 77, 108
11, 1355755, Note_off_c, 10, 77, 64
11, 1355760, Note_on_c, 10, 77, 108
11, 1355875, Note_off_c, 10, 77, 64
11, 1355880, Note_on_c, 10, 77, 108
11, 1355995, Note_off_c, 10, 77, 64
11, 1356000, Note_on_c, 10, 77, 108
11, 1356115, Note_off_c, 10, 77, 64
11, 1356120, Note_on_c, 10, 77, 108
11, 1356235, Note_off_c, 10, 77, 64
11, 1356240, Note_on_c, 10, 76, 108
11, 1356355, Note_off_c, 10, 76, 64
11, 1356360, Note_on_c, 10, 76, 108
11, 1356475, Note_off_c, 10, 76, 64
11, 1356480, Note_on_c, 10, 76, 108
11, 1356595, Note_off_c, 10, 76, 64
11, 1356600, Note_on_c, 10, 76, 108
11, 1356715, Note_off_c, 10, 76, 64
11, 1356720, Note_on_c, 10, 76, 108
11, 1356835, Note_off_c, 10, 76, 64
11, 1356840, Note_on_c, 10, 76, 108
11, 1356955, Note_off_c, 10, 76, 64
11, 1356960, Note_on_c, 10, 76, 108
11, 1357075, Note_off_c, 10, 76, 64
11, 1357080, Note_on_c, 10, 76, 108
11, 1357195, Note_off_c, 10, 76, 64
11, 1357200, Note_on_c, 10, 76, 108
11, 1357315, Note_off_c, 10, 76, 64
11, 1357320, Note_on_c, 10, 76, 108
11, 1357435, Note_off_c, 10, 76, 64
11, 1357440, Note_on_c, 10, 76, 108
11, 1357555, Note_off_c, 10, 76, 64
11, 1357560, Note_on_c, 10, 76, 108
11, 1357675, Note_off_c, 10, 76, 64
11, 1357680, Note_on_c, 10, 76, 108
11, 1357795, Note_off_c, 10, 76, 64
11, 1357800, Note_on_c, 10, 76, 108
11, 1357915, Note_off_c, 10, 76, 64
11, 1357920, Note_on_c, 10, 76, 108
11, 1358035, Note_off_c, 10, 76, 64
11, 1358040, Note_on_c, 10, 76, 108
11, 1358155, Note_off_c, 10, 76, 64
11, 1358160, Note_on_c, 10, 75, 108
11, 1358275, Note_off_c, 10, 75, 64
11, 1358280, Note_on_c, 10, 75, 108
11, 1358395, Note_off_c, 10, 75, 64
11, 1358400, Note_on_c, 10, 75, 108
11, 1358515, Note_off_c, 10, 75, 64
11, 1358520, Note_on_c, 10, 75, 108
11, 1358635, Note_off_c, 10, 75, 64
11, 1358640, Note_on_c, 10, 75, 108
11, 1358755, Note_off_c, 10, 75, 64
11, 1358760, Note_on_c, 10, 75, 108
11, 1358875, Note_off_c, 10, 75, 64
11, 1358880, Note_on_c, 10, 75, 108
11, 1358995, Note_off_c, 10, 75, 64
11, 1359000, Note_on_c, 10, 75, 108
11, 1359115, Note_off_c, 10, 75, 64
11, 1359120, Note_on_c, 10, 75, 108
11, 1359235, Note_off_c, 10, 75, 64
11, 1359240, Note_on_c, 10, 75, 108
11, 1359355, Note_off_c, 10, 75, 64
11, 1359360, Note_on_c, 10, 75, 108
11, 1359475, Note_off_c, 10, 75, 64
11, 1359480, Note_on_c, 10, 75, 108
11, 1359595, Note_off_c, 10, 75, 64
11, 1359600, Note_on_c, 10, 75, 108
11, 1359715, Note_off_c, 10, 75, 64
11, 1359720, Note_on_c, 10, 75, 108
11, 1359835, Note_off_c, 10, 75, 64
11, 1359840, Note_on_c, 10, 75, 108
11, 1359955, Note_off_c, 10, 75, 64
11, 1359960, Note_on_c, 10, 75, 108
11, 1360075, Note_off_c, 10, 75, 64
11, 1360080, Note_on_c, 10, 75, 108
11, 1360195, Note_off_c, 10, 75, 64
11, 1360200, Note_on_c, 10, 75, 108
11, 1360315, Note_off_c, 10, 75, 64
11, 1360320, Note_on_c, 10, 75, 108
11, 1360435, Note_off_c, 10, 75, 64
11, 1360440, Note_on_c, 10, 75, 108
11, 1360555, Note_off_c, 10, 75, 64
11, 1360560, Note_on_c, 10, 75, 108
11, 1360675, Note_off_c, 10, 75, 64
11, 1360680, Note_on_c, 10, 75, 108
11, 1360795, Note_off_c, 10, 75, 64
11, 1360800, Note_on_c, 10, 75, 108
11, 1360915, Note_off_c, 10, 75, 64
11, 1360920, Note_on_c, 10, 75, 108
11, 1361035, Note_off_c, 10, 75, 64
11, 1361040, Note_on_c, 10, 75, 108
11, 1361155, Note_off_c, 10, 75, 64
11, 1361160, Note_on_c, 10, 75, 108
11, 1361275, Note_off_c, 10, 75, 64
11, 1361280, Note_on_c, 10, 75, 108
11, 1361395, Note_off_c, 10, 75, 64
11, 1361400, Note_on_c, 10, 75, 108
11, 1361515, Note_off_c, 10, 75, 64
11, 1361520, Note_on_c, 10, 75, 108
11, 1361635, Note_off_c, 10, 75, 64
11, 1361640, Note_on_c, 10, 75, 108
11, 1361755, Note_off_c, 10, 75, 64
11, 1361760, Note_on_c, 10, 75, 108
11, 1361875, Note_off_c, 10, 75, 64
11, 1361880, Note_on_c, 10, 75, 108
11, 1361995, Note_off_c, 10, 75, 64
11, 1362000, Note_on_c, 10, 73, 108
11, 1362115, Note_off_c, 10, 73, 64
11, 1362120, Note_on_c, 10, 73, 108
11, 1362235, Note_off_c, 10, 73, 64
11, 1362240, Note_on_c, 10, 73, 108
11, 1362355, Note_off_c, 10, 73, 64
11, 1362360, Note_on_c, 10, 73, 108
11, 1362475, Note_off_c, 10, 73, 64
11, 1362480, Note_on_c, 10, 73, 108
11, 1362595, Note_off_c, 10, 73, 64
11, 1362600, Note_on_c, 10, 73, 108
11, 1362715, Note_off_c, 10, 73, 64
11, 1362720, Note_on_c, 10, 73, 108
11, 1362835, Note_off_c, 10, 73, 64
11, 1362840, Note_on_c, 10, 73, 108
11, 1362955, Note_off_c, 10, 73, 64
11, 1362960, Note_on_c, 10, 73, 108
11, 1363075, Note_off_c, 10, 73, 64
11, 1363080, Note_on_c, 10, 73, 108
11, 1363195, Note_off_c, 10, 73, 64
11, 1363200, Note_on_c, 10, 73, 108
11, 1363315, Note_off_c, 10, 73, 64
11, 1363320, Note_on_c, 10, 73, 108
11, 1363435, Note_off_c, 10, 73, 64
11, 1363440, Note_on_c, 10, 73, 108
11, 1363555, Note_off_c, 10, 73, 64
11, 1363560, Note_on_c, 10, 73, 108
11, 1363675, Note_off_c, 10, 73, 64
11, 1363680, Note_on_c, 10, 73, 108
11, 1363795, Note_off_c, 10, 73, 64
11, 1363800, Note_on_c, 10, 73, 108
11, 1363915, Note_off_c, 10, 73, 64
11, 1363920, Note_on_c, 10, 73, 108
11, 1364035, Note_off_c, 10, 73, 64
11, 1364040, Note_on_c, 10, 73, 108
11, 1364155, Note_off_c, 10, 73, 64
11, 1364160, Note_on_c, 10, 73, 108
11, 1364275, Note_off_c, 10, 73, 64
11, 1364280, Note_on_c, 10, 73, 108
11, 1364395, Note_off_c, 10, 73, 64
11, 1364400, Note_on_c, 10, 73, 108
11, 1364515, Note_off_c, 10, 73, 64
11, 1364520, Note_on_c, 10, 73, 108
11, 1364635, Note_off_c, 10, 73, 64
11, 1364640, Note_on_c, 10, 73, 108
11, 1364755, Note_off_c, 10, 73, 64
11, 1364760, Note_on_c, 10, 73, 108
11, 1364875, Note_off_c, 10, 73, 64
11, 1364880, Note_on_c, 10, 73, 108
11, 1364995, Note_off_c, 10, 73, 64
11, 1365000, Note_on_c, 10, 73, 108
11, 1365115, Note_off_c, 10, 73, 64
11, 1365120, Note_on_c, 10, 73, 108
11, 1365235, Note_off_c, 10, 73, 64
11, 1365240, Note_on_c, 10, 73, 108
11, 1365355, Note_off_c, 10, 73, 64
11, 1365360, Note_on_c, 10, 73, 108
11, 1365475, Note_off_c, 10, 73, 64
11, 1365480, Note_on_c, 10, 73, 108
11, 1365595, Note_off_c, 10, 73, 64
11, 1365600, Note_on_c, 10, 73, 108
11, 1365715, Note_off_c, 10, 73, 64
11, 1365720, Note_on_c, 10, 73, 108
11, 1365835, Note_off_c, 10, 73, 64
11, 1365840, Note_on_c, 10, 77, 108
11, 1365955, Note_off_c, 10, 77, 64
11, 1365960, Note_on_c, 10, 77, 108
11, 1366075, Note_off_c, 10, 77, 64
11, 1366080, Note_on_c, 10, 72, 108
11, 1366195, Note_off_c, 10, 72, 64
11, 1366200, Note_on_c, 10, 72, 108
11, 1366315, Note_off_c, 10, 72, 64
11, 1366320, Note_on_c, 10, 69, 108
11, 1366435, Note_off_c, 10, 69, 64
11, 1366440, Note_on_c, 10, 69, 108
11, 1366555, Note_off_c, 10, 69, 64
11, 1366560, Note_on_c, 10, 65, 108
11, 1366675, Note_off_c, 10, 65, 64
11, 1366680, Note_on_c, 10, 65, 108
11, 1366795, Note_off_c, 10, 65, 64
11, 1366800, Note_on_c, 10, 60, 108
11, 1366915, Note_off_c, 10, 60, 64
11, 1366920, Note_on_c, 10, 60, 108
11, 1367035, Note_off_c, 10, 60, 64
11, 1367040, Note_on_c, 10, 57, 108
11, 1367155, Note_off_c, 10, 57, 64
11, 1367160, Note_on_c, 10, 57, 108
11, 1367275, Note_off_c, 10, 57, 64
11, 1367280, Note_on_c, 10, 65, 108
11, 1367395, Note_off_c, 10, 65, 64
11, 1367400, Note_on_c, 10, 65, 108
11, 1367515, Note_off_c, 10, 65, 64
11, 1367520, Note_on_c, 10, 77, 108
11, 1367635, Note_off_c, 10, 77, 64
11, 1367640, Note_on_c, 10, 77, 108
11, 1367755, Note_off_c, 10, 77, 64
11, 1367760, Note_on_c, 10, 77, 108
11, 1367875, Note_off_c, 10, 77, 64
11, 1367880, Note_on_c, 10, 77, 107
11, 1367995, Note_off_c, 10, 77, 64
11, 1368000, Note_on_c, 10, 73, 106
11, 1368115, Note_off_c, 10, 73, 64
11, 1368120, Note_on_c, 10, 73, 105
11, 1368235, Note_off_c, 10, 73, 64
11, 1368240, Note_on_c, 10, 70, 104
11, 1368355, Note_off_c, 10, 70, 64
11, 1368360, Note_on_c, 10, 70, 103
11, 1368475, Note_off_c, 10, 70, 64
11, 1368480, Note_on_c, 10, 65, 102
11, 1368595, Note_off_c, 10, 65, 64
11, 1368600, Note_on_c, 10, 65, 101
11, 1368715, Note_off_c, 10, 65, 64
11, 1368720, Note_on_c, 10, 61, 100
11, 1368835, Note_off_c, 10, 61, 64
11, 1368840, Note_on_c, 10, 61, 99
11, 1368955, Note_off_c, 10, 61, 64
11, 1368960, Note_on_c, 10, 58, 98
11, 1369075, Note_off_c, 10, 58, 64
11, 1369080, Note_on_c, 10, 58, 97
11, 1369195, Note_off_c, 10, 58, 64
11, 1369200, Note_on_c, 10, 65, 96
11, 1369315, Note_off_c, 10, 65, 64
11, 1369320, Note_on_c, 10, 65, 95
11, 1369435, Note_off_c, 10, 65, 64
11, 1369440, Note_on_c, 10, 77, 94
11, 1369555, Note_off_c, 10, 77, 64
11, 1369560, Note_on_c, 10, 77, 93
11, 1369675, Note_off_c, 10, 77, 64
11, 1369680, Note_on_c, 10, 77, 92
11, 1369795, Note_off_c, 10, 77, 64
11, 1369800, Note_on_c, 10, 77, 92
11, 1369915, Note_off_c, 10, 77, 64
11, 1369920, Note_on_c, 10, 73, 92
11, 1370035, Note_off_c, 10, 73, 64
11, 1370040, Note_on_c, 10, 73, 92
11, 1370155, Note_off_c, 10, 73, 64
11, 1370160, Note_on_c, 10, 70, 92
11, 1370275, Note_off_c, 10, 70, 64
11, 1370280, Note_on_c, 10, 70, 92
11, 1370395, Note_off_c, 10, 70, 64
11, 1370400, Note_on_c, 10, 65, 92
11, 1370515, Note_off_c, 10, 65, 64
11, 1370520, Note_on_c, 10, 65, 92
11, 1370635, Note_off_c, 10, 65, 64
11, 1370640, Note_on_c, 10, 61, 92
11, 1370755, Note_off_c, 10, 61, 64
11, 1370760, Note_on_c, 10, 61, 92
11, 1370875, Note_off_c, 10, 61, 64
11, 1370880, Note_on_c, 10, 58, 92
11, 1370995, Note_off_c, 10, 58, 64
11, 1371000, Note_on_c, 10, 58, 92
11, 1371115, Note_off_c, 10, 58, 64
11, 1371120, Note_on_c, 10, 60, 92
11, 1371235, Note_off_c, 10, 60, 64
11, 1371240, Note_on_c, 10, 60, 92
11, 1371355, Note_off_c, 10, 60, 64
11, 1371360, Note_on_c, 10, 78, 92
11, 1371475, Note_off_c, 10, 78, 64
11, 1371480, Note_on_c, 10, 78, 92
11, 1371595, Note_off_c, 10, 78, 64
11, 1371600, Note_on_c, 10, 79, 92
11, 1371715, Note_off_c, 10, 79, 64
11, 1371720, Note_on_c, 10, 79, 92
11, 1371835, Note_off_c, 10, 79, 64
11, 1371840, Note_on_c, 10, 74, 92
11, 1371955, Note_off_c, 10, 74, 64
11, 1371960, Note_on_c, 10, 74, 92
11, 1372075, Note_off_c, 10, 74, 64
11, 1372080, Note_on_c, 10, 71, 92
11, 1372195, Note_off_c, 10, 71, 64
11, 1372200, Note_on_c, 10, 71, 92
11, 1372315, Note_off_c, 10, 71, 64
11, 1372320, Note_on_c, 10, 67, 92
11, 1372435, Note_off_c, 10, 67, 64
11, 1372440, Note_on_c, 10, 67, 92
11, 1372555, Note_off_c, 10, 67, 64
11, 1372560, Note_on_c, 10, 62, 92
11, 1372675, Note_off_c, 10, 62, 64
11, 1372680, Note_on_c, 10, 62, 92
11, 1372795, Note_off_c, 10, 62, 64
11, 1372800, Note_on_c, 10, 59, 92
11, 1372915, Note_off_c, 10, 59, 64
11, 1372920, Note_on_c, 10, 59, 92
11, 1373035, Note_off_c, 10, 59, 64
11, 1373040, Note_on_c, 10, 55, 92
11, 1373155, Note_off_c, 10, 55, 64
11, 1373160, Note_on_c, 10, 55, 92
11, 1373275, Note_off_c, 10, 55, 64
11, 1373280, Note_on_c, 10, 79, 92
11, 1373395, Note_off_c, 10, 79, 64
11, 1373400, Note_on_c, 10, 79, 92
11, 1373515, Note_off_c, 10, 79, 64
11, 1373520, Note_on_c, 10, 79, 75
11, 1373635, Note_off_c, 10, 79, 64
11, 1373640, Note_on_c, 10, 79, 75
11, 1373755, Note_off_c, 10, 79, 64
11, 1373760, Note_on_c, 10, 74, 75
11, 1373875, Note_off_c, 10, 74, 64
11, 1373880, Note_on_c, 10, 74, 75
11, 1373995, Note_off_c, 10, 74, 64
11, 1374000, Note_on_c, 10, 71, 75
11, 1374115, Note_off_c, 10, 71, 64
11, 1374120, Note_on_c, 10, 71, 75
11, 1374235, Note_off_c, 10, 71, 64
11, 1374240, Note_on_c, 10, 67, 75
11, 1374355, Note_off_c, 10, 67, 64
11, 1374360, Note_on_c, 10, 67, 75
11, 1374475, Note_off_c, 10, 67, 64
11, 1374480, Note_on_c, 10, 62, 75
11, 1374595, Note_off_c, 10, 62, 64
11, 1374600, Note_on_c, 10, 62, 75
11, 1374715, Note_off_c, 10, 62, 64
11, 1374720, Note_on_c, 10, 59, 75
11, 1374835, Note_off_c, 10, 59, 64
11, 1374840, Note_on_c, 10, 59, 75
11, 1374955, Note_off_c, 10, 59, 64
11, 1374960, Note_on_c, 10, 55, 75
11, 1375075, Note_off_c, 10, 55, 64
11, 1375080, Note_on_c, 10, 55, 75
11, 1375195, Note_off_c, 10, 55, 64
11, 1375200, Note_on_c, 10, 79, 75
11, 1375315, Note_off_c, 10, 79, 64
11, 1375320, Note_on_c, 10, 79, 75
11, 1375435, Note_off_c, 10, 79, 64
11, 1375440, Note_on_c, 10, 79, 75
11, 1375555, Note_off_c, 10, 79, 64
11, 1375560, Note_on_c, 10, 79, 75
11, 1375675, Note_off_c, 10, 79, 64
11, 1375680, Note_on_c, 10, 75, 74
11, 1375795, Note_off_c, 10, 75, 64
11, 1375800, Note_on_c, 10, 75, 73
11, 1375915, Note_off_c, 10, 75, 64
11, 1375920, Note_on_c, 10, 72, 72
11, 1376035, Note_off_c, 10, 72, 64
11, 1376040, Note_on_c, 10, 72, 71
11, 1376155, Note_off_c, 10, 72, 64
11, 1376160, Note_on_c, 10, 67, 70
11, 1376275, Note_off_c, 10, 67, 64
11, 1376280, Note_on_c, 10, 67, 69
11, 1376395, Note_off_c, 10, 67, 64
11, 1376400, Note_on_c, 10, 63, 68
11, 1376515, Note_off_c, 10, 63, 64
11, 1376520, Note_on_c, 10, 63, 67
11, 1376635, Note_off_c, 10, 63, 64
11, 1376640, Note_on_c, 10, 60, 66
11, 1376755, Note_off_c, 10, 60, 64
11, 1376760, Note_on_c, 10, 60, 65
11, 1376875, Note_off_c, 10, 60, 64
11, 1376880, Note_on_c, 10, 55, 64
11, 1376995, Note_off_c, 10, 55, 64
11, 1377000, Note_on_c, 10, 55, 63
11, 1377115, Note_off_c, 10, 55, 64
11, 1377120, Note_on_c, 10, 79, 62
11, 1377235, Note_off_c, 10, 79, 64
11, 1377240, Note_on_c, 10, 79, 61
11, 1377355, Note_off_c, 10, 79, 64
11, 1377360, Note_on_c, 10, 79, 60
11, 1377475, Note_off_c, 10, 79, 64
11, 1377480, Note_on_c, 10, 79, 60
11, 1377595, Note_off_c, 10, 79, 64
11, 1377600, Note_on_c, 10, 75, 60
11, 1377715, Note_off_c, 10, 75, 64
11, 1377720, Note_on_c, 10, 75, 60
11, 1377835, Note_off_c, 10, 75, 64
11, 1377840, Note_on_c, 10, 72, 60
11, 1377955, Note_off_c, 10, 72, 64
11, 1377960, Note_on_c, 10, 72, 60
11, 1378075, Note_off_c, 10, 72, 64
11, 1378080, Note_on_c, 10, 67, 60
11, 1378195, Note_off_c, 10, 67, 64
11, 1378200, Note_on_c, 10, 67, 60
11, 1378315, Note_off_c, 10, 67, 64
11, 1378320, Note_on_c, 10, 63, 60
11, 1378435, Note_off_c, 10, 63, 64
11, 1378440, Note_on_c, 10, 63, 60
11, 1378555, Note_off_c, 10, 63, 64
11, 1378560, Note_on_c, 10, 60, 60
11, 1378675, Note_off_c, 10, 60, 64
11, 1378680, Note_on_c, 10, 60, 60
11, 1378795, Note_off_c, 10, 60, 64
11, 1378800, Note_on_c, 10, 55, 60
11, 1378915, Note_off_c, 10, 55, 64
11, 1378920, Note_on_c, 10, 55, 60
11, 1379035, Note_off_c, 10, 55, 64
11, 1379040, Note_on_c, 10, 79, 60
11, 1379155, Note_off_c, 10, 79, 64
11, 1379160, Note_on_c, 10, 79, 60
11, 1379275, Note_off_c, 10, 79, 64
11, 1379280, Note_on_c, 10, 80, 60
11, 1379395, Note_off_c, 10, 80, 64
11, 1379400, Note_on_c, 10, 80, 60
11, 1379515, Note_off_c, 10, 80, 64
11, 1379520, Note_on_c, 10, 75, 60
11, 1379635, Note_off_c, 10, 75, 64
11, 1379640, Note_on_c, 10, 75, 60
11, 1379755, Note_off_c, 10, 75, 64
11, 1379760, Note_on_c, 10, 72, 60
11, 1379875, Note_off_c, 10, 72, 64
11, 1379880, Note_on_c, 10, 72, 60
11, 1379995, Note_off_c, 10, 72, 64
11, 1380000, Note_on_c, 10, 68, 60
11, 1380115, Note_off_c, 10, 68, 64
11, 1380120, Note_on_c, 10, 68, 60
11, 1380235, Note_off_c, 10, 68, 64
11, 1380240, Note_on_c, 10, 63, 60
11, 1380355, Note_off_c, 10, 63, 64
11, 1380360, Note_on_c, 10, 63, 60
11, 1380475, Note_off_c, 10, 63, 64
11, 1380480, Note_on_c, 10, 60, 60
11, 1380595, Note_off_c, 10, 60, 64
11, 1380600, Note_on_c, 10, 60, 60
11, 1380715, Note_off_c, 10, 60, 64
11, 1380720, Note_on_c, 10, 56, 60
11, 1380835, Note_off_c, 10, 56, 64
11, 1380840, Note_on_c, 10, 56, 60
11, 1380955, Note_off_c, 10, 56, 64
11, 1380960, Note_on_c, 10, 80, 60
11, 1381075, Note_off_c, 10, 80, 64
11, 1381080, Note_on_c, 10, 80, 60
11, 1381195, Note_off_c, 10, 80, 64
11, 1381200, Note_on_c, 10, 80, 60
11, 1381315, Note_off_c, 10, 80, 64
11, 1381320, Note_on_c, 10, 80, 60
11, 1381435, Note_off_c, 10, 80, 64
11, 1381440, Note_on_c, 10, 75, 60
11, 1381555, Note_off_c, 10, 75, 64
11, 1381560, Note_on_c, 10, 75, 60
11, 1381675, Note_off_c, 10, 75, 64
11, 1381680, Note_on_c, 10, 72, 60
11, 1381795, Note_off_c, 10, 72, 64
11, 1381800, Note_on_c, 10, 72, 60
11, 1381915, Note_off_c, 10, 72, 64
11, 1381920, Note_on_c, 10, 68, 60
11, 1382035, Note_off_c, 10, 68, 64
11, 1382040, Note_on_c, 10, 68, 60
11, 1382155, Note_off_c, 10, 68, 64
11, 1382160, Note_on_c, 10, 63, 60
11, 1382275, Note_off_c, 10, 63, 64
11, 1382280, Note_on_c, 10, 63, 60
11, 1382395, Note_off_c, 10, 63, 64
11, 1382400, Note_on_c, 10, 60, 60
11, 1382515, Note_off_c, 10, 60, 64
11, 1382520, Note_on_c, 10, 60, 60
11, 1382635, Note_off_c, 10, 60, 64
11, 1382640, Note_on_c, 10, 56, 60
11, 1382755, Note_off_c, 10, 56, 64
11, 1382760, Note_on_c, 10, 56, 60
11, 1382875, Note_off_c, 10, 56, 64
11, 1382880, Note_on_c, 10, 80, 60
11, 1382995, Note_off_c, 10, 80, 64
11, 1383000, Note_on_c, 10, 80, 60
11, 1383115, Note_off_c, 10, 80, 64
11, 1383120, Note_on_c, 10, 80, 60
11, 1383235, Note_off_c, 10, 80, 64
11, 1383240, Note_on_c, 10, 80, 60
11, 1383355, Note_off_c, 10, 80, 64
11, 1383360, Note_on_c, 10, 77, 60
11, 1383475, Note_off_c, 10, 77, 64
11, 1383480, Note_on_c, 10, 77, 60
11, 1383595, Note_off_c, 10, 77, 64
11, 1383600, Note_on_c, 10, 73, 60
11, 1383715, Note_off_c, 10, 73, 64
11, 1383720, Note_on_c, 10, 73, 60
11, 1383835, Note_off_c, 10, 73, 64
11, 1383840, Note_on_c, 10, 68, 60
11, 1383955, Note_off_c, 10, 68, 64
11, 1383960, Note_on_c, 10, 68, 60
11, 1384075, Note_off_c, 10, 68, 64
11, 1384080, Note_on_c, 10, 65, 60
11, 1384195, Note_off_c, 10, 65, 64
11, 1384200, Note_on_c, 10, 65, 60
11, 1384315, Note_off_c, 10, 65, 64
11, 1384320, Note_on_c, 10, 61, 60
11, 1384435, Note_off_c, 10, 61, 64
11, 1384440, Note_on_c, 10, 61, 60
11, 1384555, Note_off_c, 10, 61, 64
11, 1384560, Note_on_c, 10, 56, 60
11, 1384675, Note_off_c, 10, 56, 64
11, 1384680, Note_on_c, 10, 56, 60
11, 1384795, Note_off_c, 10, 56, 64
11, 1384800, Note_on_c, 10, 80, 60
11, 1384915, Note_off_c, 10, 80, 64
11, 1384920, Note_on_c, 10, 80, 60
11, 1385035, Note_off_c, 10, 80, 64
11, 1385040, Note_on_c, 10, 80, 60
11, 1385155, Note_off_c, 10, 80, 64
11, 1385160, Note_on_c, 10, 80, 60
11, 1385275, Note_off_c, 10, 80, 64
11, 1385280, Note_on_c, 10, 77, 59
11, 1385395, Note_off_c, 10, 77, 64
11, 1385400, Note_on_c, 10, 77, 58
11, 1385515, Note_off_c, 10, 77, 64
11, 1385520, Note_on_c, 10, 73, 57
11, 1385635, Note_off_c, 10, 73, 64
11, 1385640, Note_on_c, 10, 73, 56
11, 1385755, Note_off_c, 10, 73, 64
11, 1385760, Note_on_c, 10, 68, 55
11, 1385875, Note_off_c, 10, 68, 64
11, 1385880, Note_on_c, 10, 68, 54
11, 1385995, Note_off_c, 10, 68, 64
11, 1386000, Note_on_c, 10, 65, 53
11, 1386115, Note_off_c, 10, 65, 64
11, 1386120, Note_on_c, 10, 65, 52
11, 1386235, Note_off_c, 10, 65, 64
11, 1386240, Note_on_c, 10, 61, 51
11, 1386355, Note_off_c, 10, 61, 64
11, 1386360, Note_on_c, 10, 61, 50
11, 1386475, Note_off_c, 10, 61, 64
11, 1386480, Note_on_c, 10, 56, 49
11, 1386595, Note_off_c, 10, 56, 64
11, 1386600, Note_on_c, 10, 56, 48
11, 1386715, Note_off_c, 10, 56, 64
11, 1386720, Note_on_c, 10, 80, 47
11, 1386835, Note_off_c, 10, 80, 64
11, 1386840, Note_on_c, 10, 80, 46
11, 1386955, Note_off_c, 10, 80, 64
11, 1386960, Note_on_c, 10, 80, 45
11, 1387075, Note_off_c, 10, 80, 64
11, 1387080, Note_on_c, 10, 80, 45
11, 1387195, Note_off_c, 10, 80, 64
11, 1387200, Note_on_c, 10, 80, 45
11, 1387315, Note_off_c, 10, 80, 64
11, 1387320, Note_on_c, 10, 80, 45
11, 1387435, Note_off_c, 10, 80, 64
11, 1387440, Note_on_c, 10, 80, 45
11, 1387555, Note_off_c, 10, 80, 64
11, 1387560, Note_on_c, 10, 80, 45
11, 1387675, Note_off_c, 10, 80, 64
11, 1387680, Note_on_c, 10, 80, 45
11, 1387795, Note_off_c, 10, 80, 64
11, 1387800, Note_on_c, 10, 80, 45
11, 1387915, Note_off_c, 10, 80, 64
11, 1387920, Note_on_c, 10, 80, 45
11, 1388035, Note_off_c, 10, 80, 64
11, 1388040, Note_on_c, 10, 80, 45
11, 1388155, Note_off_c, 10, 80, 64
11, 1388160, Note_on_c, 10, 80, 45
11, 1388275, Note_off_c, 10, 80, 64
11, 1388280, Note_on_c, 10, 80, 45
11, 1388395, Note_off_c, 10, 80, 64
11, 1388400, Note_on_c, 10, 80, 45
11, 1388515, Note_off_c, 10, 80, 64
11, 1388520, Note_on_c, 10, 80, 45
11, 1388635, Note_off_c, 10, 80, 64
11, 1388640, Note_on_c, 10, 80, 45
11, 1388755, Note_off_c, 10, 80, 64
11, 1388760, Note_on_c, 10, 80, 45
11, 1388875, Note_off_c, 10, 80, 64
11, 1388880, Note_on_c, 10, 80, 45
11, 1388995, Note_off_c, 10, 80, 64
11, 1389000, Note_on_c, 10, 80, 45
11, 1389115, Note_off_c, 10, 80, 64
11, 1389120, Note_on_c, 10, 80, 45
11, 1389235, Note_off_c, 10, 80, 64
11, 1389240, Note_on_c, 10, 80, 45
11, 1389355, Note_off_c, 10, 80, 64
11, 1389360, Note_on_c, 10, 80, 45
11, 1389475, Note_off_c, 10, 80, 64
11, 1389480, Note_on_c, 10, 80, 45
11, 1389595, Note_off_c, 10, 80, 64
11, 1389600, Note_on_c, 10, 80, 45
11, 1389715, Note_off_c, 10, 80, 64
11, 1389720, Note_on_c, 10, 80, 45
11, 1389835, Note_off_c, 10, 80, 64
11, 1389840, Note_on_c, 10, 80, 45
11, 1389955, Note_off_c, 10, 80, 64
11, 1389960, Note_on_c, 10, 80, 45
11, 1390075, Note_off_c, 10, 80, 64
11, 1390080, Note_on_c, 10, 80, 45
11, 1390195, Note_off_c, 10, 80, 64
11, 1390200, Note_on_c, 10, 80, 45
11, 1390315, Note_off_c, 10, 80, 64
11, 1390320, Note_on_c, 10, 80, 45
11, 1390435, Note_off_c, 10, 80, 64
11, 1390440, Note_on_c, 10, 80, 45
11, 1390555, Note_off_c, 10, 80, 64
11, 1390560, Note_on_c, 10, 80, 45
11, 1390675, Note_off_c, 10, 80, 64
11, 1390680, Note_on_c, 10, 80, 45
11, 1390795, Note_off_c, 10, 80, 64
11, 1390800, Note_on_c, 10, 79, 45
11, 1390915, Note_off_c, 10, 79, 64
11, 1390920, Note_on_c, 10, 79, 45
11, 1391035, Note_off_c, 10, 79, 64
11, 1391040, Note_on_c, 10, 79, 45
11, 1391155, Note_off_c, 10, 79, 64
11, 1391160, Note_on_c, 10, 79, 45
11, 1391275, Note_off_c, 10, 79, 64
11, 1391280, Note_on_c, 10, 79, 45
11, 1391395, Note_off_c, 10, 79, 64
11, 1391400, Note_on_c, 10, 79, 45
11, 1391515, Note_off_c, 10, 79, 64
11, 1391520, Note_on_c, 10, 79, 45
11, 1391635, Note_off_c, 10, 79, 64
11, 1391640, Note_on_c, 10, 79, 45
11, 1391755, Note_off_c, 10, 79, 64
11, 1391760, Note_on_c, 10, 79, 45
11, 1391875, Note_off_c, 10, 79, 64
11, 1391880, Note_on_c, 10, 79, 45
11, 1391995, Note_off_c, 10, 79, 64
11, 1392000, Note_on_c, 10, 79, 45
11, 1392115, Note_off_c, 10, 79, 64
11, 1392120, Note_on_c, 10, 79, 45
11, 1392235, Note_off_c, 10, 79, 64
11, 1392240, Note_on_c, 10, 79, 45
11, 1392355, Note_off_c, 10, 79, 64
11, 1392360, Note_on_c, 10, 79, 45
11, 1392475, Note_off_c, 10, 79, 64
11, 1392480, Note_on_c, 10, 79, 45
11, 1392595, Note_off_c, 10, 79, 64
11, 1392600, Note_on_c, 10, 79, 45
11, 1392715, Note_off_c, 10, 79, 64
11, 1392720, Note_on_c, 10, 79, 45
11, 1392835, Note_off_c, 10, 79, 64
11, 1392840, Note_on_c, 10, 79, 45
11, 1392955, Note_off_c, 10, 79, 64
11, 1392960, Note_on_c, 10, 79, 45
11, 1393075, Note_off_c, 10, 79, 64
11, 1393080, Note_on_c, 10, 79, 45
11, 1393195, Note_off_c, 10, 79, 64
11, 1393200, Note_on_c, 10, 79, 45
11, 1393315, Note_off_c, 10, 79, 64
11, 1393320, Note_on_c, 10, 79, 45
11, 1393435, Note_off_c, 10, 79, 64
11, 1393440, Note_on_c, 10, 79, 45
11, 1393555, Note_off_c, 10, 79, 64
11, 1393560, Note_on_c, 10, 79, 45
11, 1393675, Note_off_c, 10, 79, 64
11, 1393680, Note_on_c, 10, 79, 45
11, 1393795, Note_off_c, 10, 79, 64
11, 1393800, Note_on_c, 10, 79, 45
11, 1393915, Note_off_c, 10, 79, 64
11, 1393920, Note_on_c, 10, 79, 45
11, 1394035, Note_off_c, 10, 79, 64
11, 1394040, Note_on_c, 10, 79, 45
11, 1394155, Note_off_c, 10, 79, 64
11, 1394160, Note_on_c, 10, 79, 45
11, 1394275, Note_off_c, 10, 79, 64
11, 1394280, Note_on_c, 10, 79, 45
11, 1394395, Note_off_c, 10, 79, 64
11, 1394400, Note_on_c, 10, 79, 45
11, 1394515, Note_off_c, 10, 79, 64
11, 1394520, Note_on_c, 10, 79, 45
11, 1394635, Note_off_c, 10, 79, 64
11, 1394640, Note_on_c, 10, 79, 45
11, 1394755, Note_off_c, 10, 79, 64
11, 1394760, Note_on_c, 10, 79, 45
11, 1394875, Note_off_c, 10, 79, 64
11, 1394880, Note_on_c, 10, 79, 45
11, 1394995, Note_off_c, 10, 79, 64
11, 1395000, Note_on_c, 10, 79, 45
11, 1395115, Note_off_c, 10, 79, 64
11, 1395120, Note_on_c, 10, 79, 45
11, 1395235, Note_off_c, 10, 79, 64
11, 1395240, Note_on_c, 10, 79, 45
11, 1395355, Note_off_c, 10, 79, 64
11, 1395360, Note_on_c, 10, 79, 45
11, 1395475, Note_off_c, 10, 79, 64
11, 1395480, Note_on_c, 10, 79, 45
11, 1395595, Note_off_c, 10, 79, 64
11, 1395600, Note_on_c, 10, 79, 45
11, 1395715, Note_off_c, 10, 79, 64
11, 1395720, Note_on_c, 10, 79, 45
11, 1395835, Note_off_c, 10, 79, 64
11, 1395840, Note_on_c, 10, 79, 45
11, 1395955, Note_off_c, 10, 79, 64
11, 1395960, Note_on_c, 10, 79, 45
11, 1396075, Note_off_c, 10, 79, 64
11, 1396080, Note_on_c, 10, 79, 45
11, 1396195, Note_off_c, 10, 79, 64
11, 1396200, Note_on_c, 10, 79, 45
11, 1396315, Note_off_c, 10, 79, 64
11, 1396320, Note_on_c, 10, 79, 45
11, 1396435, Note_off_c, 10, 79, 64
11, 1396440, Note_on_c, 10, 79, 45
11, 1396555, Note_off_c, 10, 79, 64
11, 1396560, Note_on_c, 10, 79, 45
11, 1396675, Note_off_c, 10, 79, 64
11, 1396680, Note_on_c, 10, 79, 45
11, 1396795, Note_off_c, 10, 79, 64
11, 1396800, Note_on_c, 10, 79, 44
11, 1396915, Note_off_c, 10, 79, 64
11, 1396920, Note_on_c, 10, 79, 43
11, 1397035, Note_off_c, 10, 79, 64
11, 1397040, Note_on_c, 10, 79, 42
11, 1397155, Note_off_c, 10, 79, 64
11, 1397160, Note_on_c, 10, 79, 41
11, 1397275, Note_off_c, 10, 79, 64
11, 1397280, Note_on_c, 10, 79, 40
11, 1397395, Note_off_c, 10, 79, 64
11, 1397400, Note_on_c, 10, 79, 39
11, 1397515, Note_off_c, 10, 79, 64
11, 1397520, Note_on_c, 10, 79, 38
11, 1397635, Note_off_c, 10, 79, 64
11, 1397640, Note_on_c, 10, 79, 37
11, 1397755, Note_off_c, 10, 79, 64
11, 1397760, Note_on_c, 10, 79, 36
11, 1397875, Note_off_c, 10, 79, 64
11, 1397880, Note_on_c, 10, 79, 35
11, 1397995, Note_off_c, 10, 79, 64
11, 1398000, Note_on_c, 10, 79, 34
11, 1398115, Note_off_c, 10, 79, 64
11, 1398120, Note_on_c, 10, 79, 33
11, 1398235, Note_off_c, 10, 79, 64
11, 1398240, Note_on_c, 10, 79, 32
11, 1398355, Note_off_c, 10, 79, 64
11, 1398360, Note_on_c, 10, 79, 31
11, 1398475, Note_off_c, 10, 79, 64
11, 1398480, Note_on_c, 10, 79, 30
11, 1398880, Note_off_c, 10, 79, 64
11, 1400400, Note_on_c, 10, 70, 92
11, 1402200, Note_off_c, 10, 70, 64
11, 1402320, Note_on_c, 10, 71, 45
11, 1402720, Note_off_c, 10, 71, 64
11, 1404240, Note_on_c, 10, 71, 92
11, 1406040, Note_off_c, 10, 71, 64
11, 1406160, Note_on_c, 10, 72, 45
11, 1406560, Note_off_c, 10, 72, 64
11, 1406880, Note_on_c, 10, 76, 60
11, 1407000, Note_off_c, 10, 76, 64
11, 1407000, Note_on_c, 10, 79, 60
11, 1407120, Note_off_c, 10, 79, 64
11, 1407120, Note_on_c, 10, 84, 60
11, 1407200, Note_off_c, 10, 84, 64
11, 1409040, Note_on_c, 10, 70, 30
11, 1410000, Note_off_c, 10, 70, 64
11, 1410000, Note_on_c, 10, 71, 30
11, 1410400, Note_off_c, 10, 71, 64
11, 1412880, Note_on_c, 10, 71, 30
11, 1413840, Note_off_c, 10, 71, 64
11, 1413840, Note_on_c, 10, 72, 30
11, 1420440, Note_off_c, 10, 72, 64
11, 1420560, Note_on_c, 10, 72, 30
11, 1422480, Note_off_c, 10, 72, 64
11, 1422480, Note_on_c, 10, 72, 30
11, 1423440, Note_off_c, 10, 72, 64
11, 1423440, Note_on_c, 10, 74, 30
11, 1425240, Note_off_c, 10, 74, 64
11, 1425360, Note_on_c, 10, 72, 30
11, 1426320, Note_off_c, 10, 72, 64
11, 1426320, Note_on_c, 10, 67, 30
11, 1427280, Note_off_c, 10, 67, 64
11, 1427280, Note_on_c, 10, 69, 30
11, 1428240, Note_off_c, 10, 69, 64
11, 1428240, Note_on_c, 10, 67, 30
11, 1429200, Note_off_c, 10, 67, 64
11, 1429200, Note_on_c, 10, 65, 30
11, 1430040, Note_off_c, 10, 65, 64
11, 1430160, Note_on_c, 10, 64, 30
11, 1431120, Note_off_c, 10, 64, 64
11, 1431120, Note_on_c, 10, 62, 30
11, 1432080, Note_off_c, 10, 62, 64
11, 1432080, Note_on_c, 10, 60, 30
11, 1432920, Note_off_c, 10, 60, 64
11, 1433040, Note_on_c, 10, 59, 30
11, 1436760, Note_off_c, 10, 59, 64
11, 1436880, Note_on_c, 10, 60, 30
11, 1437280, Note_off_c, 10, 60, 64
11, 1448460, Note_on_c, 10, 81, 60
11, 1449180, Note_off_c, 10, 81, 64
11, 1449180, Note_on_c, 10, 77, 60
11, 1449660, Note_off_c, 10, 77, 64
11, 1449660, Note_on_c, 10, 84, 60
11, 1449900, Note_off_c, 10, 84, 64
11, 1449900, Note_on_c, 10, 81, 60
11, 1450620, Note_off_c, 10, 81, 64
11, 1450620, Note_on_c, 10, 77, 60
11, 1451100, Note_off_c, 10, 77, 64
11, 1451100, Note_on_c, 10, 72, 60
11, 1451340, Note_off_c, 10, 72, 64
11, 1451340, Note_on_c, 10, 77, 60
11, 1451820, Note_off_c, 10, 77, 64
11, 1451820, Note_on_c, 10, 81, 60
11, 1452060, Note_off_c, 10, 81, 64
11, 1452060, Note_on_c, 10, 84, 60
11, 1452540, Note_off_c, 10, 84, 64
11, 1452540, Note_on_c, 10, 81, 60
11, 1452780, Note_off_c, 10, 81, 64
11, 1452780, Note_on_c, 10, 82, 60
11, 1453980, Note_off_c, 10, 82, 64
11, 1453980, Note_on_c, 10, 79, 60
11, 1454220, Note_off_c, 10, 79, 64
11, 1454220, Note_on_c, 10, 82, 60
11, 1454940, Note_off_c, 10, 82, 64
11, 1454940, Note_on_c, 10, 79, 60
11, 1455420, Note_off_c, 10, 79, 64
11, 1455420, Note_on_c, 10, 84, 60
11, 1455660, Note_off_c, 10, 84, 64
11, 1455660, Note_on_c, 10, 81, 60
11, 1456380, Note_off_c, 10, 81, 64
11, 1456380, Note_on_c, 10, 77, 60
11, 1456860, Note_off_c, 10, 77, 64
11, 1456860, Note_on_c, 10, 81, 60
11, 1457100, Note_off_c, 10, 81, 64
11, 1457100, Note_on_c, 10, 79, 60
11, 1457580, Note_off_c, 10, 79, 64
11, 1457580, Note_on_c, 10, 74, 60
11, 1457820, Note_off_c, 10, 74, 64
11, 1457820, Note_on_c, 10, 76, 60
11, 1458300, Note_off_c, 10, 76, 64
11, 1458300, Note_on_c, 10, 72, 60
11, 1458540, Note_off_c, 10, 72, 64
11, 1458540, Note_on_c, 10, 72, 60
11, 1458780, Note_off_c, 10, 72, 64
11, 1458780, Note_on_c, 10, 77, 60
11, 1459740, Note_off_c, 10, 77, 64
11, 1459740, Note_on_c, 10, 81, 60
11, 1459975, Note_off_c, 10, 81, 64
11, 1459980, Note_on_c, 10, 77, 45
11, 1460100, Note_off_c, 10, 77, 64
11, 1460100, Note_on_c, 10, 81, 45
11, 1460220, Note_off_c, 10, 81, 64
11, 1460220, Note_on_c, 10, 77, 45
11, 1460340, Note_off_c, 10, 77, 64
11, 1460340, Note_on_c, 10, 81, 45
11, 1460460, Note_off_c, 10, 81, 64
11, 1460460, Note_on_c, 10, 77, 45
11, 1460580, Note_off_c, 10, 77, 64
11, 1460580, Note_on_c, 10, 81, 45
11, 1460700, Note_off_c, 10, 81, 64
11, 1460700, Note_on_c, 10, 77, 45
11, 1460820, Note_off_c, 10, 77, 64
11, 1460820, Note_on_c, 10, 81, 45
11, 1460940, Note_off_c, 10, 81, 64
11, 1460940, Note_on_c, 10, 77, 45
11, 1461060, Note_off_c, 10, 77, 64
11, 1461060, Note_on_c, 10, 81, 45
11, 1461180, Note_off_c, 10, 81, 64
11, 1461180, Note_on_c, 10, 77, 45
11, 1461300, Note_off_c, 10, 77, 64
11, 1461300, Note_on_c, 10, 81, 45
11, 1461420, Note_off_c, 10, 81, 64
11, 1461420, Note_on_c, 10, 77, 45
11, 1461540, Note_off_c, 10, 77, 64
11, 1461540, Note_on_c, 10, 81, 45
11, 1461660, Note_off_c, 10, 81, 64
11, 1461660, Note_on_c, 10, 77, 45
11, 1461780, Note_off_c, 10, 77, 64
11, 1461780, Note_on_c, 10, 81, 45
11, 1461900, Note_off_c, 10, 81, 64
11, 1461900, Note_on_c, 10, 77, 45
11, 1462020, Note_off_c, 10, 77, 64
11, 1462020, Note_on_c, 10, 81, 45
11, 1462140, Note_off_c, 10, 81, 64
11, 1462140, Note_on_c, 10, 77, 45
11, 1462260, Note_off_c, 10, 77, 64
11, 1462260, Note_on_c, 10, 81, 45
11, 1462380, Note_off_c, 10, 81, 64
11, 1462380, Note_on_c, 10, 77, 45
11, 1462500, Note_off_c, 10, 77, 64
11, 1462500, Note_on_c, 10, 81, 45
11, 1462620, Note_off_c, 10, 81, 64
11, 1462620, Note_on_c, 10, 77, 45
11, 1462740, Note_off_c, 10, 77, 64
11, 1462740, Note_on_c, 10, 81, 45
11, 1462860, Note_off_c, 10, 81, 64
11, 1462860, Note_on_c, 10, 77, 45
11, 1462980, Note_off_c, 10, 77, 64
11, 1462980, Note_on_c, 10, 81, 45
11, 1463100, Note_off_c, 10, 81, 64
11, 1463100, Note_on_c, 10, 77, 45
11, 1463220, Note_off_c, 10, 77, 64
11, 1463220, Note_on_c, 10, 81, 45
11, 1463340, Note_off_c, 10, 81, 64
11, 1463340, Note_on_c, 10, 77, 45
11, 1463460, Note_off_c, 10, 77, 64
11, 1463460, Note_on_c, 10, 81, 45
11, 1463580, Note_off_c, 10, 81, 64
11, 1463580, Note_on_c, 10, 77, 45
11, 1463700, Note_off_c, 10, 77, 64
11, 1463700, Note_on_c, 10, 81, 45
11, 1463820, Note_off_c, 10, 81, 64
11, 1463820, Note_on_c, 10, 77, 45
11, 1463940, Note_off_c, 10, 77, 64
11, 1463940, Note_on_c, 10, 81, 45
11, 1464060, Note_off_c, 10, 81, 64
11, 1464060, Note_on_c, 10, 77, 45
11, 1464180, Note_off_c, 10, 77, 64
11, 1464180, Note_on_c, 10, 81, 45
11, 1464300, Note_off_c, 10, 81, 64
11, 1464300, Note_on_c, 10, 77, 45
11, 1464420, Note_off_c, 10, 77, 64
11, 1464420, Note_on_c, 10, 82, 45
11, 1464540, Note_off_c, 10, 82, 64
11, 1464540, Note_on_c, 10, 77, 45
11, 1464660, Note_off_c, 10, 77, 64
11, 1464660, Note_on_c, 10, 82, 45
11, 1464780, Note_off_c, 10, 82, 64
11, 1464780, Note_on_c, 10, 77, 45
11, 1464900, Note_off_c, 10, 77, 64
11, 1464900, Note_on_c, 10, 82, 45
11, 1465020, Note_off_c, 10, 82, 64
11, 1465020, Note_on_c, 10, 77, 45
11, 1465140, Note_off_c, 10, 77, 64
11, 1465140, Note_on_c, 10, 82, 45
11, 1465260, Note_off_c, 10, 82, 64
11, 1465260, Note_on_c, 10, 77, 45
11, 1465380, Note_off_c, 10, 77, 64
11, 1465380, Note_on_c, 10, 82, 45
11, 1465500, Note_off_c, 10, 82, 64
11, 1465500, Note_on_c, 10, 79, 45
11, 1465620, Note_off_c, 10, 79, 64
11, 1465620, Note_on_c, 10, 84, 45
11, 1465740, Note_off_c, 10, 84, 64
11, 1465740, Note_on_c, 10, 79, 45
11, 1465860, Note_off_c, 10, 79, 64
11, 1465860, Note_on_c, 10, 82, 45
11, 1465980, Note_off_c, 10, 82, 64
11, 1465980, Note_on_c, 10, 79, 45
11, 1466100, Note_off_c, 10, 79, 64
11, 1466100, Note_on_c, 10, 82, 45
11, 1466220, Note_off_c, 10, 82, 64
11, 1466220, Note_on_c, 10, 79, 45
11, 1466340, Note_off_c, 10, 79, 64
11, 1466340, Note_on_c, 10, 82, 45
11, 1466460, Note_off_c, 10, 82, 64
11, 1466460, Note_on_c, 10, 79, 45
11, 1466580, Note_off_c, 10, 79, 64
11, 1466580, Note_on_c, 10, 82, 45
11, 1466700, Note_off_c, 10, 82, 64
11, 1466700, Note_on_c, 10, 79, 45
11, 1466820, Note_off_c, 10, 79, 64
11, 1466820, Note_on_c, 10, 82, 45
11, 1466940, Note_off_c, 10, 82, 64
11, 1466940, Note_on_c, 10, 79, 45
11, 1467060, Note_off_c, 10, 79, 64
11, 1467060, Note_on_c, 10, 84, 45
11, 1467180, Note_off_c, 10, 84, 64
11, 1467180, Note_on_c, 10, 81, 45
11, 1467300, Note_off_c, 10, 81, 64
11, 1467300, Note_on_c, 10, 84, 45
11, 1467420, Note_off_c, 10, 84, 64
11, 1467420, Note_on_c, 10, 81, 45
11, 1467540, Note_off_c, 10, 81, 64
11, 1467540, Note_on_c, 10, 84, 45
11, 1467660, Note_off_c, 10, 84, 64
11, 1467660, Note_on_c, 10, 81, 45
11, 1467780, Note_off_c, 10, 81, 64
11, 1467780, Note_on_c, 10, 84, 45
11, 1467900, Note_off_c, 10, 84, 64
11, 1467900, Note_on_c, 10, 81, 45
11, 1468020, Note_off_c, 10, 81, 64
11, 1468020, Note_on_c, 10, 86, 46
11, 1468140, Note_off_c, 10, 86, 64
11, 1468140, Note_on_c, 10, 81, 46
11, 1468260, Note_off_c, 10, 81, 64
11, 1468260, Note_on_c, 10, 86, 47
11, 1468380, Note_off_c, 10, 86, 64
11, 1468380, Note_on_c, 10, 81, 48
11, 1468500, Note_off_c, 10, 81, 64
11, 1468500, Note_on_c, 10, 84, 49
11, 1468620, Note_off_c, 10, 84, 64
11, 1468620, Note_on_c, 10, 79, 50
11, 1468740, Note_off_c, 10, 79, 64
11, 1468740, Note_on_c, 10, 86, 51
11, 1468860, Note_off_c, 10, 86, 64
11, 1468860, Note_on_c, 10, 79, 52
11, 1468980, Note_off_c, 10, 79, 64
11, 1468980, Note_on_c, 10, 86, 53
11, 1469100, Note_off_c, 10, 86, 64
11, 1469100, Note_on_c, 10, 79, 54
11, 1469220, Note_off_c, 10, 79, 64
11, 1469220, Note_on_c, 10, 86, 55
11, 1469340, Note_off_c, 10, 86, 64
11, 1469340, Note_on_c, 10, 79, 56
11, 1469460, Note_off_c, 10, 79, 64
11, 1469460, Note_on_c, 10, 84, 57
11, 1469580, Note_off_c, 10, 84, 64
11, 1469580, Note_on_c, 10, 79, 58
11, 1469700, Note_off_c, 10, 79, 64
11, 1469700, Note_on_c, 10, 84, 59
11, 1469820, Note_off_c, 10, 84, 64
11, 1469820, Note_on_c, 10, 79, 60
11, 1469940, Note_off_c, 10, 79, 64
11, 1469940, Note_on_c, 10, 84, 61
11, 1470060, Note_off_c, 10, 84, 64
11, 1470060, Note_on_c, 10, 81, 62
11, 1470180, Note_off_c, 10, 81, 64
11, 1470180, Note_on_c, 10, 84, 63
11, 1470300, Note_off_c, 10, 84, 64
11, 1470300, Note_on_c, 10, 81, 64
11, 1470420, Note_off_c, 10, 81, 64
11, 1470420, Note_on_c, 10, 84, 65
11, 1470540, Note_off_c, 10, 84, 64
11, 1470540, Note_on_c, 10, 81, 66
11, 1470660, Note_off_c, 10, 81, 64
11, 1470660, Note_on_c, 10, 84, 67
11, 1470780, Note_off_c, 10, 84, 64
11, 1470780, Note_on_c, 10, 81, 68
11, 1470900, Note_off_c, 10, 81, 64
11, 1470900, Note_on_c, 10, 84, 69
11, 1471020, Note_off_c, 10, 84, 64
11, 1471020, Note_on_c, 10, 81, 70
11, 1471140, Note_off_c, 10, 81, 64
11, 1471140, Note_on_c, 10, 84, 71
11, 1471260, Note_off_c, 10, 84, 64
11, 1471260, Note_on_c, 10, 81, 72
11, 1471380, Note_off_c, 10, 81, 64
11, 1471380, Note_on_c, 10, 84, 73
11, 1471495, Note_off_c, 10, 84, 64
11, 1471500, Note_on_c, 10, 77, 75
11, 1471500, Note_on_c, 10, 89, 75
11, 1471575, Note_off_c, 10, 89, 64
11, 1471575, Note_off_c, 10, 77, 64
11, 1471580, Note_on_c, 10, 77, 75
11, 1471580, Note_on_c, 10, 89, 75
11, 1471655, Note_off_c, 10, 89, 64
11, 1471655, Note_off_c, 10, 77, 64
11, 1471660, Note_on_c, 10, 77, 75
11, 1471660, Note_on_c, 10, 89, 75
11, 1471735, Note_off_c, 10, 89, 64
11, 1471735, Note_off_c, 10, 77, 64
11, 1471740, Note_on_c, 10, 77, 75
11, 1471740, Note_on_c, 10, 89, 75
11, 1471815, Note_off_c, 10, 89, 64
11, 1471815, Note_off_c, 10, 77, 64
11, 1471820, Note_on_c, 10, 77, 75
11, 1471820, Note_on_c, 10, 89, 75
11, 1471895, Note_off_c, 10, 89, 64
11, 1471895, Note_off_c, 10, 77, 64
11, 1471900, Note_on_c, 10, 77, 75
11, 1471900, Note_on_c, 10, 89, 75
11, 1471975, Note_off_c, 10, 89, 64
11, 1471975, Note_off_c, 10, 77, 64
11, 1471980, Note_on_c, 10, 77, 75
11, 1471980, Note_on_c, 10, 89, 75
11, 1472055, Note_off_c, 10, 89, 64
11, 1472055, Note_off_c, 10, 77, 64
11, 1472060, Note_on_c, 10, 77, 75
11, 1472060, Note_on_c, 10, 89, 75
11, 1472135, Note_off_c, 10, 89, 64
11, 1472135, Note_off_c, 10, 77, 64
11, 1472140, Note_on_c, 10, 77, 75
11, 1472140, Note_on_c, 10, 89, 75
11, 1472215, Note_off_c, 10, 89, 64
11, 1472215, Note_off_c, 10, 77, 64
11, 1472220, Note_on_c, 10, 77, 75
11, 1472220, Note_on_c, 10, 89, 75
11, 1472295, Note_off_c, 10, 89, 64
11, 1472295, Note_off_c, 10, 77, 64
11, 1472300, Note_on_c, 10, 77, 75
11, 1472300, Note_on_c, 10, 89, 75
11, 1472375, Note_off_c, 10, 89, 64
11, 1472375, Note_off_c, 10, 77, 64
11, 1472380, Note_on_c, 10, 77, 75
11, 1472380, Note_on_c, 10, 89, 75
11, 1472455, Note_off_c, 10, 89, 64
11, 1472455, Note_off_c, 10, 77, 64
11, 1472460, Note_on_c, 10, 77, 75
11, 1472460, Note_on_c, 10, 89, 75
11, 1472535, Note_off_c, 10, 89, 64
11, 1472535, Note_off_c, 10, 77, 64
11, 1472540, Note_on_c, 10, 77, 75
11, 1472540, Note_on_c, 10, 89, 75
11, 1472615, Note_off_c, 10, 89, 64
11, 1472615, Note_off_c, 10, 77, 64
11, 1472620, Note_on_c, 10, 77, 75
11, 1472620, Note_on_c, 10, 89, 75
11, 1472695, Note_off_c, 10, 89, 64
11, 1472695, Note_off_c, 10, 77, 64
11, 1472700, Note_on_c, 10, 77, 75
11, 1472700, Note_on_c, 10, 89, 75
11, 1472775, Note_off_c, 10, 89, 64
11, 1472775, Note_off_c, 10, 77, 64
11, 1472780, Note_on_c, 10, 77, 75
11, 1472780, Note_on_c, 10, 89, 75
11, 1472855, Note_off_c, 10, 89, 64
11, 1472855, Note_off_c, 10, 77, 64
11, 1472860, Note_on_c, 10, 77, 75
11, 1472860, Note_on_c, 10, 89, 75
11, 1472935, Note_off_c, 10, 89, 64
11, 1472935, Note_off_c, 10, 77, 64
11, 1472940, Note_on_c, 10, 77, 75
11, 1472940, Note_on_c, 10, 89, 75
11, 1473015, Note_off_c, 10, 89, 64
11, 1473015, Note_off_c, 10, 77, 64
11, 1473020, Note_on_c, 10, 77, 75
11, 1473020, Note_on_c, 10, 89, 75
11, 1473095, Note_off_c, 10, 89, 64
11, 1473095, Note_off_c, 10, 77, 64
11, 1473100, Note_on_c, 10, 77, 75
11, 1473100, Note_on_c, 10, 89, 75
11, 1473175, Note_off_c, 10, 89, 64
11, 1473175, Note_off_c, 10, 77, 64
11, 1473180, Note_on_c, 10, 77, 75
11, 1473180, Note_on_c, 10, 89, 75
11, 1473255, Note_off_c, 10, 89, 64
11, 1473255, Note_off_c, 10, 77, 64
11, 1473260, Note_on_c, 10, 77, 75
11, 1473260, Note_on_c, 10, 89, 75
11, 1473335, Note_off_c, 10, 89, 64
11, 1473335, Note_off_c, 10, 77, 64
11, 1473340, Note_on_c, 10, 77, 75
11, 1473340, Note_on_c, 10, 89, 75
11, 1473415, Note_off_c, 10, 89, 64
11, 1473415, Note_off_c, 10, 77, 64
11, 1473420, Note_on_c, 10, 77, 75
11, 1473420, Note_on_c, 10, 89, 75
11, 1473495, Note_off_c, 10, 89, 64
11, 1473495, Note_off_c, 10, 77, 64
11, 1473500, Note_on_c, 10, 77, 75
11, 1473500, Note_on_c, 10, 89, 75
11, 1473575, Note_off_c, 10, 89, 64
11, 1473575, Note_off_c, 10, 77, 64
11, 1473580, Note_on_c, 10, 77, 75
11, 1473580, Note_on_c, 10, 89, 75
11, 1473655, Note_off_c, 10, 89, 64
11, 1473655, Note_off_c, 10, 77, 64
11, 1473660, Note_on_c, 10, 77, 75
11, 1473660, Note_on_c, 10, 89, 75
11, 1473735, Note_off_c, 10, 89, 64
11, 1473735, Note_off_c, 10, 77, 64
11, 1473740, Note_on_c, 10, 77, 75
11, 1473740, Note_on_c, 10, 89, 75
11, 1473815, Note_off_c, 10, 89, 64
11, 1473815, Note_off_c, 10, 77, 64
11, 1473820, Note_on_c, 10, 77, 75
11, 1473820, Note_on_c, 10, 89, 75
11, 1473895, Note_off_c, 10, 89, 64
11, 1473895, Note_off_c, 10, 77, 64
11, 1473900, Note_on_c, 10, 77, 75
11, 1473900, Note_on_c, 10, 89, 75
11, 1473975, Note_off_c, 10, 89, 64
11, 1473975, Note_off_c, 10, 77, 64
11, 1473980, Note_on_c, 10, 77, 75
11, 1473980, Note_on_c, 10, 89, 75
11, 1474055, Note_off_c, 10, 89, 64
11, 1474055, Note_off_c, 10, 77, 64
11, 1474060, Note_on_c, 10, 77, 75
11, 1474060, Note_on_c, 10, 89, 75
11, 1474135, Note_off_c, 10, 89, 64
11, 1474135, Note_off_c, 10, 77, 64
11, 1474140, Note_on_c, 10, 77, 75
11, 1474140, Note_on_c, 10, 89, 75
11, 1474215, Note_off_c, 10, 89, 64
11, 1474215, Note_off_c, 10, 77, 64
11, 1474220, Note_on_c, 10, 77, 75
11, 1474220, Note_on_c, 10, 89, 75
11, 1474295, Note_off_c, 10, 89, 64
11, 1474295, Note_off_c, 10, 77, 64
11, 1474300, Note_on_c, 10, 77, 75
11, 1474300, Note_on_c, 10, 89, 75
11, 1474375, Note_off_c, 10, 89, 64
11, 1474375, Note_off_c, 10, 77, 64
11, 1474380, Note_on_c, 10, 77, 75
11, 1474380, Note_on_c, 10, 89, 75
11, 1474455, Note_off_c, 10, 89, 64
11, 1474455, Note_off_c, 10, 77, 64
11, 1474460, Note_on_c, 10, 77, 75
11, 1474460, Note_on_c, 10, 89, 75
11, 1474535, Note_off_c, 10, 89, 64
11, 1474535, Note_off_c, 10, 77, 64
11, 1474540, Note_on_c, 10, 77, 75
11, 1474540, Note_on_c, 10, 89, 75
11, 1474615, Note_off_c, 10, 89, 64
11, 1474615, Note_off_c, 10, 77, 64
11, 1474620, Note_on_c, 10, 77, 75
11, 1474620, Note_on_c, 10, 89, 75
11, 1474695, Note_off_c, 10, 89, 64
11, 1474695, Note_off_c, 10, 77, 64
11, 1474700, Note_on_c, 10, 77, 75
11, 1474700, Note_on_c, 10, 89, 75
11, 1474775, Note_off_c, 10, 89, 64
11, 1474775, Note_off_c, 10, 77, 64
11, 1474780, Note_on_c, 10, 77, 75
11, 1474780, Note_on_c, 10, 89, 75
11, 1474855, Note_off_c, 10, 89, 64
11, 1474855, Note_off_c, 10, 77, 64
11, 1474860, Note_on_c, 10, 77, 75
11, 1474860, Note_on_c, 10, 89, 75
11, 1474935, Note_off_c, 10, 89, 64
11, 1474935, Note_off_c, 10, 77, 64
11, 1474940, Note_on_c, 10, 77, 75
11, 1474940, Note_on_c, 10, 89, 75
11, 1475015, Note_off_c, 10, 89, 64
11, 1475015, Note_off_c, 10, 77, 64
11, 1475020, Note_on_c, 10, 77, 75
11, 1475020, Note_on_c, 10, 89, 75
11, 1475095, Note_off_c, 10, 89, 64
11, 1475095, Note_off_c, 10, 77, 64
11, 1475100, Note_on_c, 10, 77, 75
11, 1475100, Note_on_c, 10, 89, 75
11, 1475175, Note_off_c, 10, 89, 64
11, 1475175, Note_off_c, 10, 77, 64
11, 1475180, Note_on_c, 10, 77, 75
11, 1475180, Note_on_c, 10, 89, 75
11, 1475255, Note_off_c, 10, 89, 64
11, 1475255, Note_off_c, 10, 77, 64
11, 1475260, Note_on_c, 10, 77, 75
11, 1475260, Note_on_c, 10, 89, 75
11, 1475335, Note_off_c, 10, 89, 64
11, 1475335, Note_off_c, 10, 77, 64
11, 1475340, Note_on_c, 10, 77, 75
11, 1475340, Note_on_c, 10, 89, 75
11, 1475415, Note_off_c, 10, 89, 64
11, 1475415, Note_off_c, 10, 77, 64
11, 1475420, Note_on_c, 10, 77, 75
11, 1475420, Note_on_c, 10, 89, 75
11, 1475495, Note_off_c, 10, 89, 64
11, 1475495, Note_off_c, 10, 77, 64
11, 1475500, Note_on_c, 10, 77, 75
11, 1475500, Note_on_c, 10, 89, 75
11, 1475575, Note_off_c, 10, 89, 64
11, 1475575, Note_off_c, 10, 77, 64
11, 1475580, Note_on_c, 10, 77, 75
11, 1475580, Note_on_c, 10, 89, 75
11, 1475655, Note_off_c, 10, 89, 64
11, 1475655, Note_off_c, 10, 77, 64
11, 1475660, Note_on_c, 10, 77, 75
11, 1475660, Note_on_c, 10, 89, 75
11, 1475735, Note_off_c, 10, 89, 64
11, 1475735, Note_off_c, 10, 77, 64
11, 1475740, Note_on_c, 10, 77, 75
11, 1475740, Note_on_c, 10, 89, 75
11, 1475815, Note_off_c, 10, 89, 64
11, 1475815, Note_off_c, 10, 77, 64
11, 1475820, Note_on_c, 10, 77, 75
11, 1475820, Note_on_c, 10, 89, 75
11, 1475895, Note_off_c, 10, 89, 64
11, 1475895, Note_off_c, 10, 77, 64
11, 1475900, Note_on_c, 10, 77, 75
11, 1475900, Note_on_c, 10, 89, 75
11, 1475975, Note_off_c, 10, 89, 64
11, 1475975, Note_off_c, 10, 77, 64
11, 1475980, Note_on_c, 10, 77, 75
11, 1475980, Note_on_c, 10, 89, 75
11, 1476055, Note_off_c, 10, 89, 64
11, 1476055, Note_off_c, 10, 77, 64
11, 1476060, Note_on_c, 10, 77, 75
11, 1476060, Note_on_c, 10, 89, 75
11, 1476135, Note_off_c, 10, 89, 64
11, 1476135, Note_off_c, 10, 77, 64
11, 1476140, Note_on_c, 10, 77, 75
11, 1476140, Note_on_c, 10, 89, 75
11, 1476215, Note_off_c, 10, 89, 64
11, 1476215, Note_off_c, 10, 77, 64
11, 1476220, Note_on_c, 10, 77, 75
11, 1476220, Note_on_c, 10, 89, 75
11, 1476295, Note_off_c, 10, 89, 64
11, 1476295, Note_off_c, 10, 77, 64
11, 1476300, Note_on_c, 10, 77, 75
11, 1476300, Note_on_c, 10, 89, 75
11, 1476375, Note_off_c, 10, 89, 64
11, 1476375, Note_off_c, 10, 77, 64
11, 1476380, Note_on_c, 10, 77, 75
11, 1476380, Note_on_c, 10, 89, 75
11, 1476455, Note_off_c, 10, 89, 64
11, 1476455, Note_off_c, 10, 77, 64
11, 1476460, Note_on_c, 10, 77, 75
11, 1476460, Note_on_c, 10, 89, 75
11, 1476535, Note_off_c, 10, 89, 64
11, 1476535, Note_off_c, 10, 77, 64
11, 1476540, Note_on_c, 10, 77, 75
11, 1476540, Note_on_c, 10, 89, 75
11, 1476615, Note_off_c, 10, 89, 64
11, 1476615, Note_off_c, 10, 77, 64
11, 1476620, Note_on_c, 10, 77, 75
11, 1476620, Note_on_c, 10, 89, 75
11, 1476695, Note_off_c, 10, 89, 64
11, 1476695, Note_off_c, 10, 77, 64
11, 1476700, Note_on_c, 10, 77, 75
11, 1476700, Note_on_c, 10, 89, 75
11, 1476775, Note_off_c, 10, 89, 64
11, 1476775, Note_off_c, 10, 77, 64
11, 1476780, Note_on_c, 10, 77, 75
11, 1476780, Note_on_c, 10, 89, 75
11, 1476855, Note_off_c, 10, 89, 64
11, 1476855, Note_off_c, 10, 77, 64
11, 1476860, Note_on_c, 10, 77, 75
11, 1476860, Note_on_c, 10, 89, 75
11, 1476935, Note_off_c, 10, 89, 64
11, 1476935, Note_off_c, 10, 77, 64
11, 1476940, Note_on_c, 10, 77, 75
11, 1476940, Note_on_c, 10, 89, 75
11, 1477015, Note_off_c, 10, 89, 64
11, 1477015, Note_off_c, 10, 77, 64
11, 1477020, Note_on_c, 10, 79, 75
11, 1477020, Note_on_c, 10, 91, 75
11, 1477095, Note_off_c, 10, 91, 64
11, 1477095, Note_off_c, 10, 79, 64
11, 1477100, Note_on_c, 10, 79, 75
11, 1477100, Note_on_c, 10, 91, 75
11, 1477175, Note_off_c, 10, 91, 64
11, 1477175, Note_off_c, 10, 79, 64
11, 1477180, Note_on_c, 10, 79, 75
11, 1477180, Note_on_c, 10, 91, 75
11, 1477255, Note_off_c, 10, 91, 64
11, 1477255, Note_off_c, 10, 79, 64
11, 1477260, Note_on_c, 10, 79, 75
11, 1477260, Note_on_c, 10, 91, 75
11, 1477335, Note_off_c, 10, 91, 64
11, 1477335, Note_off_c, 10, 79, 64
11, 1477340, Note_on_c, 10, 79, 75
11, 1477340, Note_on_c, 10, 91, 75
11, 1477415, Note_off_c, 10, 91, 64
11, 1477415, Note_off_c, 10, 79, 64
11, 1477420, Note_on_c, 10, 79, 75
11, 1477420, Note_on_c, 10, 91, 75
11, 1477495, Note_off_c, 10, 91, 64
11, 1477495, Note_off_c, 10, 79, 64
11, 1477500, Note_on_c, 10, 79, 75
11, 1477500, Note_on_c, 10, 91, 75
11, 1477575, Note_off_c, 10, 91, 64
11, 1477575, Note_off_c, 10, 79, 64
11, 1477580, Note_on_c, 10, 79, 75
11, 1477580, Note_on_c, 10, 91, 75
11, 1477655, Note_off_c, 10, 91, 64
11, 1477655, Note_off_c, 10, 79, 64
11, 1477660, Note_on_c, 10, 79, 75
11, 1477660, Note_on_c, 10, 91, 75
11, 1477735, Note_off_c, 10, 91, 64
11, 1477735, Note_off_c, 10, 79, 64
11, 1477740, Note_on_c, 10, 79, 75
11, 1477740, Note_on_c, 10, 91, 75
11, 1477815, Note_off_c, 10, 91, 64
11, 1477815, Note_off_c, 10, 79, 64
11, 1477820, Note_on_c, 10, 79, 75
11, 1477820, Note_on_c, 10, 91, 75
11, 1477895, Note_off_c, 10, 91, 64
11, 1477895, Note_off_c, 10, 79, 64
11, 1477900, Note_on_c, 10, 79, 75
11, 1477900, Note_on_c, 10, 91, 75
11, 1477975, Note_off_c, 10, 91, 64
11, 1477975, Note_off_c, 10, 79, 64
11, 1477980, Note_on_c, 10, 79, 75
11, 1477980, Note_on_c, 10, 91, 75
11, 1478055, Note_off_c, 10, 91, 64
11, 1478055, Note_off_c, 10, 79, 64
11, 1478060, Note_on_c, 10, 79, 75
11, 1478060, Note_on_c, 10, 91, 75
11, 1478135, Note_off_c, 10, 91, 64
11, 1478135, Note_off_c, 10, 79, 64
11, 1478140, Note_on_c, 10, 79, 75
11, 1478140, Note_on_c, 10, 91, 75
11, 1478215, Note_off_c, 10, 91, 64
11, 1478215, Note_off_c, 10, 79, 64
11, 1478220, Note_on_c, 10, 79, 75
11, 1478220, Note_on_c, 10, 91, 75
11, 1478295, Note_off_c, 10, 91, 64
11, 1478295, Note_off_c, 10, 79, 64
11, 1478300, Note_on_c, 10, 79, 75
11, 1478300, Note_on_c, 10, 91, 75
11, 1478375, Note_off_c, 10, 91, 64
11, 1478375, Note_off_c, 10, 79, 64
11, 1478380, Note_on_c, 10, 79, 75
11, 1478380, Note_on_c, 10, 91, 75
11, 1478455, Note_off_c, 10, 91, 64
11, 1478455, Note_off_c, 10, 79, 64
11, 1478460, Note_on_c, 10, 79, 75
11, 1478460, Note_on_c, 10, 91, 75
11, 1478535, Note_off_c, 10, 91, 64
11, 1478535, Note_off_c, 10, 79, 64
11, 1478540, Note_on_c, 10, 79, 75
11, 1478540, Note_on_c, 10, 91, 75
11, 1478615, Note_off_c, 10, 91, 64
11, 1478615, Note_off_c, 10, 79, 64
11, 1478620, Note_on_c, 10, 79, 75
11, 1478620, Note_on_c, 10, 91, 75
11, 1478695, Note_off_c, 10, 91, 64
11, 1478695, Note_off_c, 10, 79, 64
11, 1478700, Note_on_c, 10, 79, 75
11, 1478700, Note_on_c, 10, 91, 75
11, 1478775, Note_off_c, 10, 91, 64
11, 1478775, Note_off_c, 10, 79, 64
11, 1478780, Note_on_c, 10, 79, 75
11, 1478780, Note_on_c, 10, 91, 75
11, 1478855, Note_off_c, 10, 91, 64
11, 1478855, Note_off_c, 10, 79, 64
11, 1478860, Note_on_c, 10, 79, 75
11, 1478860, Note_on_c, 10, 91, 75
11, 1478935, Note_off_c, 10, 91, 64
11, 1478935, Note_off_c, 10, 79, 64
11, 1478940, Note_on_c, 10, 77, 75
11, 1478940, Note_on_c, 10, 89, 75
11, 1479015, Note_off_c, 10, 89, 64
11, 1479015, Note_off_c, 10, 77, 64
11, 1479020, Note_on_c, 10, 77, 75
11, 1479020, Note_on_c, 10, 89, 75
11, 1479095, Note_off_c, 10, 89, 64
11, 1479095, Note_off_c, 10, 77, 64
11, 1479100, Note_on_c, 10, 77, 75
11, 1479100, Note_on_c, 10, 89, 75
11, 1479175, Note_off_c, 10, 89, 64
11, 1479175, Note_off_c, 10, 77, 64
11, 1479180, Note_on_c, 10, 77, 75
11, 1479180, Note_on_c, 10, 89, 75
11, 1479255, Note_off_c, 10, 89, 64
11, 1479255, Note_off_c, 10, 77, 64
11, 1479260, Note_on_c, 10, 77, 75
11, 1479260, Note_on_c, 10, 89, 75
11, 1479335, Note_off_c, 10, 89, 64
11, 1479335, Note_off_c, 10, 77, 64
11, 1479340, Note_on_c, 10, 77, 75
11, 1479340, Note_on_c, 10, 89, 75
11, 1479415, Note_off_c, 10, 89, 64
11, 1479415, Note_off_c, 10, 77, 64
11, 1479420, Note_on_c, 10, 77, 75
11, 1479420, Note_on_c, 10, 89, 75
11, 1479495, Note_off_c, 10, 89, 64
11, 1479495, Note_off_c, 10, 77, 64
11, 1479500, Note_on_c, 10, 77, 75
11, 1479500, Note_on_c, 10, 89, 75
11, 1479575, Note_off_c, 10, 89, 64
11, 1479575, Note_off_c, 10, 77, 64
11, 1479580, Note_on_c, 10, 77, 75
11, 1479580, Note_on_c, 10, 89, 75
11, 1479655, Note_off_c, 10, 89, 64
11, 1479655, Note_off_c, 10, 77, 64
11, 1479660, Note_on_c, 10, 77, 75
11, 1479660, Note_on_c, 10, 89, 75
11, 1479735, Note_off_c, 10, 89, 64
11, 1479735, Note_off_c, 10, 77, 64
11, 1479740, Note_on_c, 10, 77, 75
11, 1479740, Note_on_c, 10, 89, 75
11, 1479815, Note_off_c, 10, 89, 64
11, 1479815, Note_off_c, 10, 77, 64
11, 1479820, Note_on_c, 10, 77, 75
11, 1479820, Note_on_c, 10, 89, 75
11, 1479895, Note_off_c, 10, 89, 64
11, 1479895, Note_off_c, 10, 77, 64
11, 1479900, Note_on_c, 10, 77, 75
11, 1479900, Note_on_c, 10, 89, 75
11, 1479975, Note_off_c, 10, 89, 64
11, 1479975, Note_off_c, 10, 77, 64
11, 1479980, Note_on_c, 10, 77, 75
11, 1479980, Note_on_c, 10, 89, 75
11, 1480055, Note_off_c, 10, 89, 64
11, 1480055, Note_off_c, 10, 77, 64
11, 1480060, Note_on_c, 10, 77, 75
11, 1480060, Note_on_c, 10, 89, 75
11, 1480135, Note_off_c, 10, 89, 64
11, 1480135, Note_off_c, 10, 77, 64
11, 1480140, Note_on_c, 10, 77, 75
11, 1480140, Note_on_c, 10, 89, 75
11, 1480215, Note_off_c, 10, 89, 64
11, 1480215, Note_off_c, 10, 77, 64
11, 1480220, Note_on_c, 10, 77, 75
11, 1480220, Note_on_c, 10, 89, 75
11, 1480295, Note_off_c, 10, 89, 64
11, 1480295, Note_off_c, 10, 77, 64
11, 1480300, Note_on_c, 10, 77, 75
11, 1480300, Note_on_c, 10, 89, 75
11, 1480375, Note_off_c, 10, 89, 64
11, 1480375, Note_off_c, 10, 77, 64
11, 1480380, Note_on_c, 10, 77, 75
11, 1480380, Note_on_c, 10, 89, 75
11, 1480455, Note_off_c, 10, 89, 64
11, 1480455, Note_off_c, 10, 77, 64
11, 1480460, Note_on_c, 10, 77, 75
11, 1480460, Note_on_c, 10, 89, 75
11, 1480535, Note_off_c, 10, 89, 64
11, 1480535, Note_off_c, 10, 77, 64
11, 1480540, Note_on_c, 10, 77, 75
11, 1480540, Note_on_c, 10, 89, 75
11, 1480615, Note_off_c, 10, 89, 64
11, 1480615, Note_off_c, 10, 77, 64
11, 1480620, Note_on_c, 10, 77, 75
11, 1480620, Note_on_c, 10, 89, 75
11, 1480695, Note_off_c, 10, 89, 64
11, 1480695, Note_off_c, 10, 77, 64
11, 1480700, Note_on_c, 10, 77, 75
11, 1480700, Note_on_c, 10, 89, 75
11, 1480775, Note_off_c, 10, 89, 64
11, 1480775, Note_off_c, 10, 77, 64
11, 1480780, Note_on_c, 10, 77, 75
11, 1480780, Note_on_c, 10, 89, 75
11, 1480855, Note_off_c, 10, 89, 64
11, 1480855, Note_off_c, 10, 77, 64
11, 1480860, Note_on_c, 10, 76, 75
11, 1480860, Note_on_c, 10, 88, 75
11, 1480935, Note_off_c, 10, 88, 64
11, 1480935, Note_off_c, 10, 76, 64
11, 1480940, Note_on_c, 10, 76, 75
11, 1480940, Note_on_c, 10, 88, 75
11, 1481015, Note_off_c, 10, 88, 64
11, 1481015, Note_off_c, 10, 76, 64
11, 1481020, Note_on_c, 10, 76, 75
11, 1481020, Note_on_c, 10, 88, 75
11, 1481095, Note_off_c, 10, 88, 64
11, 1481095, Note_off_c, 10, 76, 64
11, 1481100, Note_on_c, 10, 76, 75
11, 1481100, Note_on_c, 10, 88, 75
11, 1481175, Note_off_c, 10, 88, 64
11, 1481175, Note_off_c, 10, 76, 64
11, 1481180, Note_on_c, 10, 76, 75
11, 1481180, Note_on_c, 10, 88, 75
11, 1481255, Note_off_c, 10, 88, 64
11, 1481255, Note_off_c, 10, 76, 64
11, 1481260, Note_on_c, 10, 76, 75
11, 1481260, Note_on_c, 10, 88, 75
11, 1481335, Note_off_c, 10, 88, 64
11, 1481335, Note_off_c, 10, 76, 64
11, 1481340, Note_on_c, 10, 76, 75
11, 1481340, Note_on_c, 10, 88, 75
11, 1481415, Note_off_c, 10, 88, 64
11, 1481415, Note_off_c, 10, 76, 64
11, 1481420, Note_on_c, 10, 76, 75
11, 1481420, Note_on_c, 10, 88, 75
11, 1481495, Note_off_c, 10, 88, 64
11, 1481495, Note_off_c, 10, 76, 64
11, 1481500, Note_on_c, 10, 76, 75
11, 1481500, Note_on_c, 10, 88, 75
11, 1481575, Note_off_c, 10, 88, 64
11, 1481575, Note_off_c, 10, 76, 64
11, 1481580, Note_on_c, 10, 77, 75
11, 1481580, Note_on_c, 10, 89, 75
11, 1481815, Note_off_c, 10, 89, 64
11, 1481815, Note_off_c, 10, 77, 64
11, 1484220, Note_on_c, 10, 72, 127
11, 1484460, Note_off_c, 10, 72, 64
11, 1484460, Note_on_c, 10, 72, 127
11, 1484700, Note_off_c, 10, 72, 64
11, 1484700, Note_on_c, 10, 77, 127
11, 1485100, Note_off_c, 10, 77, 64
11, 1485180, Note_on_c, 10, 72, 127
11, 1485420, Note_off_c, 10, 72, 64
11, 1485420, Note_on_c, 10, 79, 127
11, 1485820, Note_off_c, 10, 79, 64
11, 1485900, Note_on_c, 10, 72, 127
11, 1486140, Note_off_c, 10, 72, 64
11, 1486140, Note_on_c, 10, 81, 127
11, 1486540, Note_off_c, 10, 81, 64
11, 1486620, Note_on_c, 10, 84, 127
11, 1486860, Note_off_c, 10, 84, 64
11, 1486860, Note_on_c, 10, 82, 127
11, 1487095, Note_off_c, 10, 82, 64
11, 1487100, Note_on_c, 10, 79, 127
11, 1487180, Note_off_c, 10, 79, 64
11, 1487220, Note_on_c, 10, 76, 127
11, 1487300, Note_off_c, 10, 76, 64
11, 1489980, Note_on_c, 10, 72, 127
11, 1490220, Note_off_c, 10, 72, 64
11, 1490220, Note_on_c, 10, 72, 127
11, 1490460, Note_off_c, 10, 72, 64
11, 1490460, Note_on_c, 10, 77, 127
11, 1490695, Note_off_c, 10, 77, 64
11, 1490700, Note_on_c, 10, 77, 127
11, 1490760, Note_off_c, 10, 77, 64
11, 1490760, Note_on_c, 10, 79, 127
11, 1490820, Note_off_c, 10, 79, 64
11, 1490820, Note_on_c, 10, 77, 127
11, 1490880, Note_off_c, 10, 77, 64
11, 1490880, Note_on_c, 10, 79, 127
11, 1490935, Note_off_c, 10, 79, 64
11, 1490940, Note_on_c, 10, 72, 127
11, 1491180, Note_off_c, 10, 72, 64
11, 1491180, Note_on_c, 10, 79, 127
11, 1491415, Note_off_c, 10, 79, 64
11, 1491420, Note_on_c, 10, 79, 127
11, 1491480, Note_off_c, 10, 79, 64
11, 1491480, Note_on_c, 10, 81, 127
11, 1491540, Note_off_c, 10, 81, 64
11, 1491540, Note_on_c, 10, 79, 127
11, 1491600, Note_off_c, 10, 79, 64
11, 1491600, Note_on_c, 10, 81, 127
11, 1491655, Note_off_c, 10, 81, 64
11, 1491660, Note_on_c, 10, 72, 127
11, 1491900, Note_off_c, 10, 72, 64
11, 1491900, Note_on_c, 10, 81, 127
11, 1492135, Note_off_c, 10, 81, 64
11, 1492140, Note_on_c, 10, 81, 127
11, 1492200, Note_off_c, 10, 81, 64
11, 1492200, Note_on_c, 10, 82, 127
11, 1492260, Note_off_c, 10, 82, 64
11, 1492260, Note_on_c, 10, 81, 127
11, 1492320, Note_off_c, 10, 81, 64
11, 1492320, Note_on_c, 10, 82, 127
11, 1492375, Note_off_c, 10, 82, 64
11, 1492380, Note_on_c, 10, 84, 127
11, 1492620, Note_off_c, 10, 84, 64
11, 1492620, Note_on_c, 10, 82, 127
11, 1492855, Note_off_c, 10, 82, 64
11, 1492860, Note_on_c, 10, 79, 127
11, 1492940, Note_off_c, 10, 79, 64
11, 1492980, Note_on_c, 10, 76, 127
11, 1493060, Note_off_c, 10, 76, 64
11, 1493820, Note_on_c, 10, 76, 127
11, 1494060, Note_off_c, 10, 76, 64
11, 1494060, Note_on_c, 10, 74, 127
11, 1494295, Note_off_c, 10, 74, 64
11, 1494300, Note_on_c, 10, 71, 127
11, 1494380, Note_off_c, 10, 71, 64
11, 1494420, Note_on_c, 10, 67, 127
11, 1494500, Note_off_c, 10, 67, 64
11, 1495260, Note_on_c, 10, 79, 127
11, 1495500, Note_off_c, 10, 79, 64
11, 1495500, Note_on_c, 10, 77, 127
11, 1495735, Note_off_c, 10, 77, 64
11, 1495740, Note_on_c, 10, 74, 127
11, 1495820, Note_off_c, 10, 74, 64
11, 1495860, Note_on_c, 10, 71, 127
11, 1495940, Note_off_c, 10, 71, 64
11, 1495980, Note_on_c, 10, 81, 127
11, 1496220, Note_off_c, 10, 81, 64
11, 1496220, Note_on_c, 10, 79, 127
11, 1496455, Note_off_c, 10, 79, 64
11, 1496460, Note_on_c, 10, 76, 127
11, 1496540, Note_off_c, 10, 76, 64
11, 1496580, Note_on_c, 10, 72, 127
11, 1496660, Note_off_c, 10, 72, 64
11, 1496700, Note_on_c, 10, 69, 127
11, 1496940, Note_off_c, 10, 69, 64
11, 1496940, Note_on_c, 10, 67, 127
11, 1497175, Note_off_c, 10, 67, 64
11, 1497180, Note_on_c, 10, 64, 127
11, 1497260, Note_off_c, 10, 64, 64
11, 1497300, Note_on_c, 10, 60, 127
11, 1497380, Note_off_c, 10, 60, 64
11, 1497420, Note_on_c, 10, 55, 127
11, 1497820, Note_off_c, 10, 55, 64
11, 1497900, Note_on_c, 10, 76, 127
11, 1498135, Note_off_c, 10, 76, 64
11, 1498140, Note_on_c, 10, 76, 127
11, 1498375, Note_off_c, 10, 76, 64
11, 1498380, Note_on_c, 10, 76, 127
11, 1498615, Note_off_c, 10, 76, 64
11, 1498620, Note_on_c, 10, 76, 127
11, 1498680, Note_off_c, 10, 76, 64
11, 1498680, Note_on_c, 10, 77, 127
11, 1498740, Note_off_c, 10, 77, 64
11, 1498740, Note_on_c, 10, 76, 127
11, 1498800, Note_off_c, 10, 76, 64
11, 1498800, Note_on_c, 10, 77, 127
11, 1498855, Note_off_c, 10, 77, 64
11, 1498860, Note_on_c, 10, 79, 127
11, 1499100, Note_off_c, 10, 79, 64
11, 1499100, Note_on_c, 10, 77, 127
11, 1499335, Note_off_c, 10, 77, 64
11, 1499340, Note_on_c, 10, 74, 127
11, 1499420, Note_off_c, 10, 74, 64
11, 1499460, Note_on_c, 10, 71, 127
11, 1499540, Note_off_c, 10, 71, 64
11, 1499580, Note_on_c, 10, 67, 127
11, 1499820, Note_off_c, 10, 67, 64
11, 1499820, Note_on_c, 10, 65, 127
11, 1500055, Note_off_c, 10, 65, 64
11, 1500060, Note_on_c, 10, 62, 127
11, 1500140, Note_off_c, 10, 62, 64
11, 1500180, Note_on_c, 10, 59, 127
11, 1500260, Note_off_c, 10, 59, 64
11, 1500300, Note_on_c, 10, 55, 127
11, 1500700, Note_off_c, 10, 55, 64
11, 1500780, Note_on_c, 10, 74, 127
11, 1501015, Note_off_c, 10, 74, 64
11, 1501020, Note_on_c, 10, 74, 127
11, 1501255, Note_off_c, 10, 74, 64
11, 1501260, Note_on_c, 10, 74, 127
11, 1501495, Note_off_c, 10, 74, 64
11, 1501500, Note_on_c, 10, 74, 127
11, 1501560, Note_off_c, 10, 74, 64
11, 1501560, Note_on_c, 10, 76, 127
11, 1501620, Note_off_c, 10, 76, 64
11, 1501620, Note_on_c, 10, 74, 127
11, 1501680, Note_off_c, 10, 74, 64
11, 1501680, Note_on_c, 10, 76, 127
11, 1501735, Note_off_c, 10, 76, 64
11, 1501740, Note_on_c, 10, 81, 127
11, 1501860, Note_off_c, 10, 81, 64
11, 1501860, Note_on_c, 10, 79, 127
11, 1501940, Note_off_c, 10, 79, 64
11, 1501980, Note_on_c, 10, 78, 127
11, 1502060, Note_off_c, 10, 78, 64
11, 1502100, Note_on_c, 10, 79, 127
11, 1502180, Note_off_c, 10, 79, 64
11, 1502220, Note_on_c, 10, 76, 127
11, 1502300, Note_off_c, 10, 76, 64
11, 1502340, Note_on_c, 10, 72, 127
11, 1502420, Note_off_c, 10, 72, 64
11, 1502460, Note_on_c, 10, 69, 127
11, 1502580, Note_off_c, 10, 69, 64
11, 1502580, Note_on_c, 10, 67, 127
11, 1502660, Note_off_c, 10, 67, 64
11, 1502700, Note_on_c, 10, 66, 127
11, 1502780, Note_off_c, 10, 66, 64
11, 1502820, Note_on_c, 10, 67, 127
11, 1502900, Note_off_c, 10, 67, 64
11, 1502940, Note_on_c, 10, 64, 127
11, 1503020, Note_off_c, 10, 64, 64
11, 1503060, Note_on_c, 10, 60, 127
11, 1503140, Note_off_c, 10, 60, 64
11, 1503180, Note_on_c, 10, 55, 127
11, 1503580, Note_off_c, 10, 55, 64
11, 1503660, Note_on_c, 10, 76, 127
11, 1503895, Note_off_c, 10, 76, 64
11, 1503900, Note_on_c, 10, 76, 127
11, 1504135, Note_off_c, 10, 76, 64
11, 1504140, Note_on_c, 10, 76, 127
11, 1504375, Note_off_c, 10, 76, 64
11, 1504380, Note_on_c, 10, 76, 127
11, 1504440, Note_off_c, 10, 76, 64
11, 1504440, Note_on_c, 10, 77, 127
11, 1504500, Note_off_c, 10, 77, 64
11, 1504500, Note_on_c, 10, 76, 127
11, 1504560, Note_off_c, 10, 76, 64
11, 1504560, Note_on_c, 10, 77, 127
11, 1504615, Note_off_c, 10, 77, 64
11, 1504620, Note_on_c, 10, 79, 127
11, 1504740, Note_off_c, 10, 79, 64
11, 1504740, Note_on_c, 10, 77, 127
11, 1504820, Note_off_c, 10, 77, 64
11, 1504860, Note_on_c, 10, 76, 127
11, 1504940, Note_off_c, 10, 76, 64
11, 1504980, Note_on_c, 10, 77, 127
11, 1505060, Note_off_c, 10, 77, 64
11, 1505100, Note_on_c, 10, 74, 127
11, 1505180, Note_off_c, 10, 74, 64
11, 1505220, Note_on_c, 10, 71, 127
11, 1505300, Note_off_c, 10, 71, 64
11, 1505340, Note_on_c, 10, 67, 127
11, 1505460, Note_off_c, 10, 67, 64
11, 1505460, Note_on_c, 10, 65, 127
11, 1505540, Note_off_c, 10, 65, 64
11, 1505580, Note_on_c, 10, 64, 127
11, 1505660, Note_off_c, 10, 64, 64
11, 1505700, Note_on_c, 10, 65, 127
11, 1505780, Note_off_c, 10, 65, 64
11, 1505820, Note_on_c, 10, 62, 127
11, 1505900, Note_off_c, 10, 62, 64
11, 1505940, Note_on_c, 10, 59, 127
11, 1506020, Note_off_c, 10, 59, 64
11, 1506060, Note_on_c, 10, 57, 127
11, 1506460, Note_off_c, 10, 57, 64
11, 1506540, Note_on_c, 10, 74, 127
11, 1506775, Note_off_c, 10, 74, 64
11, 1506780, Note_on_c, 10, 74, 127
11, 1507015, Note_off_c, 10, 74, 64
11, 1507020, Note_on_c, 10, 74, 127
11, 1507255, Note_off_c, 10, 74, 64
11, 1507260, Note_on_c, 10, 74, 127
11, 1507320, Note_off_c, 10, 74, 64
11, 1507320, Note_on_c, 10, 76, 127
11, 1507380, Note_off_c, 10, 76, 64
11, 1507380, Note_on_c, 10, 74, 127
11, 1507440, Note_off_c, 10, 74, 64
11, 1507440, Note_on_c, 10, 76, 127
11, 1507495, Note_off_c, 10, 76, 64
11, 1507500, Note_on_c, 10, 64, 127
11, 1507500, Note_on_c, 10, 72, 127
11, 1507500, Note_on_c, 10, 76, 127
11, 1507900, Note_off_c, 10, 76, 64
11, 1507900, Note_off_c, 10, 72, 64
11, 1507900, Note_off_c, 10, 64, 64
11, 1508220, Note_on_c, 10, 77, 45
11, 1508460, Note_off_c, 10, 77, 64
11, 1508460, Note_on_c, 10, 76, 52
11, 1508700, Note_off_c, 10, 76, 64
11, 1508700, Note_on_c, 10, 81, 60
11, 1508935, Note_off_c, 10, 81, 64
11, 1508940, Note_on_c, 10, 79, 68
11, 1509180, Note_off_c, 10, 79, 64
11, 1509180, Note_on_c, 10, 83, 76
11, 1509420, Note_off_c, 10, 83, 64
11, 1509420, Note_on_c, 10, 84, 84
11, 1509655, Note_off_c, 10, 84, 64
11, 1509660, Note_on_c, 10, 69, 92
11, 1509660, Note_on_c, 10, 77, 92
11, 1509660, Note_on_c, 10, 86, 92
11, 1510060, Note_off_c, 10, 86, 64
11, 1510060, Note_off_c, 10, 77, 64
11, 1510060, Note_off_c, 10, 69, 64
11, 1510140, Note_on_c, 10, 69, 92
11, 1510140, Note_on_c, 10, 77, 92
11, 1510140, Note_on_c, 10, 86, 92
11, 1510375, Note_off_c, 10, 86, 64
11, 1510375, Note_off_c, 10, 77, 64
11, 1510375, Note_off_c, 10, 69, 64
11, 1510380, Note_on_c, 10, 67, 92
11, 1510380, Note_on_c, 10, 76, 92
11, 1510380, Note_on_c, 10, 84, 92
11, 1510615, Note_off_c, 10, 84, 64
11, 1510615, Note_off_c, 10, 76, 64
11, 1510615, Note_off_c, 10, 67, 64
11, 1510860, Note_on_c, 10, 76, 45
11, 1511100, Note_off_c, 10, 76, 64
11, 1511100, Note_on_c, 10, 77, 45
11, 1511340, Note_off_c, 10, 77, 64
11, 1511340, Note_on_c, 10, 76, 52
11, 1511580, Note_off_c, 10, 76, 64
11, 1511580, Note_on_c, 10, 81, 59
11, 1511815, Note_off_c, 10, 81, 64
11, 1511820, Note_on_c, 10, 79, 66
11, 1512060, Note_off_c, 10, 79, 64
11, 1512060, Note_on_c, 10, 83, 73
11, 1512300, Note_off_c, 10, 83, 64
11, 1512300, Note_on_c, 10, 84, 80
11, 1512535, Note_off_c, 10, 84, 64
11, 1512540, Note_on_c, 10, 69, 87
11, 1512540, Note_on_c, 10, 77, 87
11, 1512540, Note_on_c, 10, 86, 87
11, 1512940, Note_off_c, 10, 86, 64
11, 1512940, Note_off_c, 10, 77, 64
11, 1512940, Note_off_c, 10, 69, 64
11, 1513020, Note_on_c, 10, 69, 101
11, 1513020, Note_on_c, 10, 77, 101
11, 1513020, Note_on_c, 10, 86, 101
11, 1513255, Note_off_c, 10, 86, 64
11, 1513255, Note_off_c, 10, 77, 64
11, 1513255, Note_off_c, 10, 69, 64
11, 1513260, Note_on_c, 10, 84, 108
11, 1513980, Note_off_c, 10, 84, 64
11, 1513980, Note_on_c, 10, 79, 108
11, 1514215, Note_off_c, 10, 79, 64
11, 1514460, Note_on_c, 10, 88, 108
11, 1514695, Note_off_c, 10, 88, 64
11, 1514700, Note_on_c, 10, 86, 108
11, 1515420, Note_off_c, 10, 86, 64
11, 1515420, Note_on_c, 10, 81, 108
11, 1515655, Note_off_c, 10, 81, 64
11, 1515900, Note_on_c, 10, 89, 108
11, 1516135, Note_off_c, 10, 89, 64
11, 1516140, Note_on_c, 10, 84, 60
11, 1517100, Note_off_c, 10, 84, 64
11, 1517100, Note_on_c, 10, 79, 60
11, 1517340, Note_off_c, 10, 79, 64
11, 1517340, Note_on_c, 10, 88, 60
11, 1517580, Note_off_c, 10, 88, 64
11, 1517580, Note_on_c, 10, 84, 60
11, 1517820, Note_off_c, 10, 84, 64
11, 1517820, Note_on_c, 10, 79, 59
11, 1518060, Note_off_c, 10, 79, 64
11, 1518060, Note_on_c, 10, 88, 58
11, 1518300, Note_off_c, 10, 88, 64
11, 1518300, Note_on_c, 10, 84, 57
11, 1518540, Note_off_c, 10, 84, 64
11, 1518540, Note_on_c, 10, 79, 56
11, 1518780, Note_off_c, 10, 79, 64
11, 1518780, Note_on_c, 10, 88, 55
11, 1519020, Note_off_c, 10, 88, 64
11, 1519020, Note_on_c, 10, 84, 54
11, 1519260, Note_off_c, 10, 84, 64
11, 1519260, Note_on_c, 10, 79, 53
11, 1519500, Note_off_c, 10, 79, 64
11, 1519500, Note_on_c, 10, 88, 52
11, 1519740, Note_off_c, 10, 88, 64
11, 1519740, Note_on_c, 10, 79, 51
11, 1519980, Note_off_c, 10, 79, 64
11, 1519980, Note_on_c, 10, 76, 49
11, 1520220, Note_off_c, 10, 76, 64
11, 1520220, Note_on_c, 10, 84, 47
11, 1520460, Note_off_c, 10, 84, 64
11, 1520460, Note_on_c, 10, 79, 45
11, 1520700, Note_off_c, 10, 79, 64
11, 1520700, Note_on_c, 10, 76, 45
11, 1520940, Note_off_c, 10, 76, 64
11, 1520940, Note_on_c, 10, 84, 45
11, 1521180, Note_off_c, 10, 84, 64
11, 1521180, Note_on_c, 10, 76, 45
11, 1521420, Note_off_c, 10, 76, 64
11, 1521420, Note_on_c, 10, 72, 45
11, 1521660, Note_off_c, 10, 72, 64
11, 1521660, Note_on_c, 10, 79, 45
11, 1521900, Note_off_c, 10, 79, 64
11, 1521900, Note_on_c, 10, 76, 45
11, 1522140, Note_off_c, 10, 76, 64
11, 1522140, Note_on_c, 10, 72, 45
11, 1522380, Note_off_c, 10, 72, 64
11, 1522380, Note_on_c, 10, 79, 45
11, 1522620, Note_off_c, 10, 79, 64
11, 1522620, Note_on_c, 10, 72, 45
11, 1522790, Note_off_c, 10, 72, 64
11, 1522860, Note_on_c, 10, 67, 45
11, 1523030, Note_off_c, 10, 67, 64
11, 1523100, Note_on_c, 10, 76, 45
11, 1523270, Note_off_c, 10, 76, 64
11, 1523340, Note_on_c, 10, 72, 45
11, 1523510, Note_off_c, 10, 72, 64
11, 1523580, Note_on_c, 10, 67, 45
11, 1523750, Note_off_c, 10, 67, 64
11, 1523820, Note_on_c, 10, 76, 45
11, 1523990, Note_off_c, 10, 76, 64
11, 1524060, Note_on_c, 10, 72, 45
11, 1524230, Note_off_c, 10, 72, 64
11, 1524300, Note_on_c, 10, 67, 45
11, 1524470, Note_off_c, 10, 67, 64
11, 1524540, Note_on_c, 10, 76, 45
11, 1524620, Note_off_c, 10, 76, 64
11, 1525500, Note_on_c, 10, 60, 60
11, 1526140, Note_off_c, 10, 60, 64
11, 1526220, Note_on_c, 10, 62, 60
11, 1526220, Note_on_c, 10, 60, 60
11, 1526280, Note_off_c, 10, 62, 64
11, 1526280, Note_on_c, 10, 60, 60
11, 1526300, Note_off_c, 10, 60, 64
11, 1526340, Note_off_c, 10, 60, 64
11, 1526340, Note_on_c, 10, 59, 60
11, 1526340, Note_on_c, 10, 62, 64
11, 1526400, Note_off_c, 10, 59, 64
11, 1526420, Note_off_c, 10, 62, 64
11, 1526460, Note_on_c, 10, 64, 68
11, 1526540, Note_off_c, 10, 64, 64
11, 1526580, Note_on_c, 10, 65, 72
11, 1526660, Note_off_c, 10, 65, 64
11, 1526700, Note_on_c, 10, 67, 76
11, 1526780, Note_off_c, 10, 67, 64
11, 1526820, Note_on_c, 10, 69, 80
11, 1526900, Note_off_c, 10, 69, 64
11, 1526940, Note_on_c, 10, 70, 84
11, 1527020, Note_off_c, 10, 70, 64
11, 1527060, Note_on_c, 10, 72, 88
11, 1527140, Note_off_c, 10, 72, 64
11, 1527180, Note_on_c, 10, 74, 93
11, 1527260, Note_off_c, 10, 74, 64
11, 1527300, Note_on_c, 10, 76, 98
11, 1527380, Note_off_c, 10, 76, 64
11, 1527420, Note_on_c, 10, 77, 103
11, 1527500, Note_off_c, 10, 77, 64
11, 1527540, Note_on_c, 10, 79, 108
11, 1527620, Note_off_c, 10, 79, 64
11, 1527660, Note_on_c, 10, 81, 60
11, 1528380, Note_off_c, 10, 81, 64
11, 1528380, Note_on_c, 10, 77, 60
11, 1528860, Note_off_c, 10, 77, 64
11, 1528860, Note_on_c, 10, 84, 60
11, 1529100, Note_off_c, 10, 84, 64
11, 1529100, Note_on_c, 10, 81, 60
11, 1529820, Note_off_c, 10, 81, 64
11, 1529820, Note_on_c, 10, 77, 60
11, 1530300, Note_off_c, 10, 77, 64
11, 1530300, Note_on_c, 10, 72, 60
11, 1530540, Note_off_c, 10, 72, 64
11, 1530540, Note_on_c, 10, 77, 60
11, 1530600, Note_off_c, 10, 77, 64
11, 1530600, Note_on_c, 10, 79, 60
11, 1530660, Note_off_c, 10, 79, 64
11, 1530660, Note_on_c, 10, 77, 60
11, 1530720, Note_off_c, 10, 77, 64
11, 1530720, Note_on_c, 10, 79, 60
11, 1530780, Note_off_c, 10, 79, 64
11, 1530780, Note_on_c, 10, 77, 60
11, 1530840, Note_off_c, 10, 77, 64
11, 1530840, Note_on_c, 10, 79, 60
11, 1530900, Note_off_c, 10, 79, 64
11, 1530900, Note_on_c, 10, 77, 60
11, 1530960, Note_off_c, 10, 77, 64
11, 1530960, Note_on_c, 10, 79, 60
11, 1531020, Note_off_c, 10, 79, 64
11, 1531020, Note_on_c, 10, 81, 60
11, 1531260, Note_off_c, 10, 81, 64
11, 1531260, Note_on_c, 10, 84, 60
11, 1531740, Note_off_c, 10, 84, 64
11, 1531740, Note_on_c, 10, 81, 60
11, 1531980, Note_off_c, 10, 81, 64
11, 1531980, Note_on_c, 10, 82, 60
11, 1533180, Note_off_c, 10, 82, 64
11, 1533180, Note_on_c, 10, 79, 60
11, 1533420, Note_off_c, 10, 79, 64
11, 1533420, Note_on_c, 10, 82, 60
11, 1534140, Note_off_c, 10, 82, 64
11, 1534140, Note_on_c, 10, 79, 60
11, 1534620, Note_off_c, 10, 79, 64
11, 1534620, Note_on_c, 10, 84, 60
11, 1534860, Note_off_c, 10, 84, 64
11, 1534860, Note_on_c, 10, 81, 60
11, 1535580, Note_off_c, 10, 81, 64
11, 1535580, Note_on_c, 10, 77, 60
11, 1536060, Note_off_c, 10, 77, 64
11, 1536060, Note_on_c, 10, 81, 60
11, 1536300, Note_off_c, 10, 81, 64
11, 1536300, Note_on_c, 10, 79, 60
11, 1536780, Note_off_c, 10, 79, 64
11, 1536780, Note_on_c, 10, 74, 60
11, 1537020, Note_off_c, 10, 74, 64
11, 1537020, Note_on_c, 10, 76, 60
11, 1537500, Note_off_c, 10, 76, 64
11, 1537500, Note_on_c, 10, 72, 60
11, 1537740, Note_off_c, 10, 72, 64
11, 1537740, Note_on_c, 10, 72, 60
11, 1537980, Note_off_c, 10, 72, 64
11, 1537980, Note_on_c, 10, 77, 60
11, 1538940, Note_off_c, 10, 77, 64
11, 1538940, Note_on_c, 10, 81, 60
11, 1539175, Note_off_c, 10, 81, 64
11, 1539180, Note_on_c, 10, 77, 45
11, 1539300, Note_off_c, 10, 77, 64
11, 1539300, Note_on_c, 10, 81, 45
11, 1539420, Note_off_c, 10, 81, 64
11, 1539420, Note_on_c, 10, 77, 45
11, 1539540, Note_off_c, 10, 77, 64
11, 1539540, Note_on_c, 10, 81, 45
11, 1539660, Note_off_c, 10, 81, 64
11, 1539660, Note_on_c, 10, 77, 45
11, 1539780, Note_off_c, 10, 77, 64
11, 1539780, Note_on_c, 10, 81, 45
11, 1539900, Note_off_c, 10, 81, 64
11, 1539900, Note_on_c, 10, 77, 45
11, 1540020, Note_off_c, 10, 77, 64
11, 1540020, Note_on_c, 10, 81, 46
11, 1540140, Note_off_c, 10, 81, 64
11, 1540140, Note_on_c, 10, 77, 47
11, 1540260, Note_off_c, 10, 77, 64
11, 1540260, Note_on_c, 10, 81, 48
11, 1540380, Note_off_c, 10, 81, 64
11, 1540380, Note_on_c, 10, 77, 49
11, 1540500, Note_off_c, 10, 77, 64
11, 1540500, Note_on_c, 10, 81, 50
11, 1540620, Note_off_c, 10, 81, 64
11, 1540620, Note_on_c, 10, 77, 51
11, 1540740, Note_off_c, 10, 77, 64
11, 1540740, Note_on_c, 10, 81, 52
11, 1540860, Note_off_c, 10, 81, 64
11, 1540860, Note_on_c, 10, 77, 53
11, 1540980, Note_off_c, 10, 77, 64
11, 1540980, Note_on_c, 10, 81, 54
11, 1541100, Note_off_c, 10, 81, 64
11, 1541100, Note_on_c, 10, 77, 55
11, 1541220, Note_off_c, 10, 77, 64
11, 1541220, Note_on_c, 10, 81, 56
11, 1541340, Note_off_c, 10, 81, 64
11, 1541340, Note_on_c, 10, 77, 57
11, 1541460, Note_off_c, 10, 77, 64
11, 1541460, Note_on_c, 10, 81, 58
11, 1541580, Note_off_c, 10, 81, 64
11, 1541580, Note_on_c, 10, 77, 59
11, 1541700, Note_off_c, 10, 77, 64
11, 1541700, Note_on_c, 10, 81, 60
11, 1541820, Note_off_c, 10, 81, 64
11, 1541820, Note_on_c, 10, 77, 61
11, 1541940, Note_off_c, 10, 77, 64
11, 1541940, Note_on_c, 10, 81, 62
11, 1542060, Note_off_c, 10, 81, 64
11, 1542060, Note_on_c, 10, 77, 63
11, 1542180, Note_off_c, 10, 77, 64
11, 1542180, Note_on_c, 10, 81, 64
11, 1542300, Note_off_c, 10, 81, 64
11, 1542300, Note_on_c, 10, 77, 65
11, 1542420, Note_off_c, 10, 77, 64
11, 1542420, Note_on_c, 10, 81, 66
11, 1542540, Note_off_c, 10, 81, 64
11, 1542540, Note_on_c, 10, 77, 67
11, 1542660, Note_off_c, 10, 77, 64
11, 1542660, Note_on_c, 10, 81, 68
11, 1542780, Note_off_c, 10, 81, 64
11, 1542780, Note_on_c, 10, 77, 69
11, 1542900, Note_off_c, 10, 77, 64
11, 1542900, Note_on_c, 10, 81, 70
11, 1543020, Note_off_c, 10, 81, 64
11, 1543020, Note_on_c, 10, 77, 71
11, 1543140, Note_off_c, 10, 77, 64
11, 1543140, Note_on_c, 10, 81, 72
11, 1543260, Note_off_c, 10, 81, 64
11, 1543260, Note_on_c, 10, 77, 73
11, 1543380, Note_off_c, 10, 77, 64
11, 1543380, Note_on_c, 10, 81, 74
11, 1543500, Note_off_c, 10, 81, 64
11, 1543500, Note_on_c, 10, 77, 75
11, 1543620, Note_off_c, 10, 77, 64
11, 1543620, Note_on_c, 10, 81, 76
11, 1543740, Note_off_c, 10, 81, 64
11, 1543740, Note_on_c, 10, 77, 77
11, 1543860, Note_off_c, 10, 77, 64
11, 1543860, Note_on_c, 10, 81, 78
11, 1543980, Note_off_c, 10, 81, 64
11, 1543980, Note_on_c, 10, 77, 79
11, 1544100, Note_off_c, 10, 77, 64
11, 1544100, Note_on_c, 10, 81, 80
11, 1544220, Note_off_c, 10, 81, 64
11, 1544220, Note_on_c, 10, 77, 81
11, 1544340, Note_off_c, 10, 77, 64
11, 1544340, Note_on_c, 10, 81, 82
11, 1544460, Note_off_c, 10, 81, 64
11, 1544460, Note_on_c, 10, 77, 83
11, 1544580, Note_off_c, 10, 77, 64
11, 1544580, Note_on_c, 10, 81, 84
11, 1544700, Note_off_c, 10, 81, 64
11, 1544700, Note_on_c, 10, 77, 85
11, 1544820, Note_off_c, 10, 77, 64
11, 1544820, Note_on_c, 10, 81, 86
11, 1544940, Note_off_c, 10, 81, 64
11, 1544940, Note_on_c, 10, 77, 87
11, 1545060, Note_off_c, 10, 77, 64
11, 1545060, Note_on_c, 10, 81, 88
11, 1545180, Note_off_c, 10, 81, 64
11, 1545180, Note_on_c, 10, 77, 89
11, 1545300, Note_off_c, 10, 77, 64
11, 1545300, Note_on_c, 10, 81, 90
11, 1545420, Note_off_c, 10, 81, 64
11, 1545420, Note_on_c, 10, 77, 91
11, 1545540, Note_off_c, 10, 77, 64
11, 1545540, Note_on_c, 10, 81, 93
11, 1545660, Note_off_c, 10, 81, 64
11, 1545660, Note_on_c, 10, 77, 95
11, 1545780, Note_off_c, 10, 77, 64
11, 1545780, Note_on_c, 10, 81, 97
11, 1545900, Note_off_c, 10, 81, 64
11, 1545900, Note_on_c, 10, 77, 99
11, 1546020, Note_off_c, 10, 77, 64
11, 1546020, Note_on_c, 10, 81, 101
11, 1546140, Note_off_c, 10, 81, 64
11, 1546140, Note_on_c, 10, 77, 103
11, 1546260, Note_off_c, 10, 77, 64
11, 1546260, Note_on_c, 10, 81, 105
11, 1546380, Note_off_c, 10, 81, 64
11, 1546380, Note_on_c, 10, 77, 107
11, 1546500, Note_off_c, 10, 77, 64
11, 1546500, Note_on_c, 10, 81, 109
11, 1546620, Note_off_c, 10, 81, 64
11, 1546620, Note_on_c, 10, 77, 111
11, 1546740, Note_off_c, 10, 77, 64
11, 1546740, Note_on_c, 10, 81, 113
11, 1546860, Note_off_c, 10, 81, 64
11, 1546860, Note_on_c, 10, 77, 115
11, 1546980, Note_off_c, 10, 77, 64
11, 1546980, Note_on_c, 10, 81, 117
11, 1547100, Note_off_c, 10, 81, 64
11, 1547100, Note_on_c, 10, 77, 119
11, 1547220, Note_off_c, 10, 77, 64
11, 1547220, Note_on_c, 10, 81, 121
11, 1547340, Note_off_c, 10, 81, 64
11, 1547340, Note_on_c, 10, 77, 123
11, 1547460, Note_off_c, 10, 77, 64
11, 1547460, Note_on_c, 10, 81, 125
11, 1547575, Note_off_c, 10, 81, 64
11, 1547580, Note_on_c, 10, 65, 127
11, 1547815, Note_off_c, 10, 65, 64
11, 1547820, Note_on_c, 10, 69, 127
11, 1548220, Note_off_c, 10, 69, 64
11, 1548300, Note_on_c, 10, 72, 127
11, 1548535, Note_off_c, 10, 72, 64
11, 1548540, Note_on_c, 10, 75, 127
11, 1548940, Note_off_c, 10, 75, 64
11, 1549020, Note_on_c, 10, 77, 127
11, 1549255, Note_off_c, 10, 77, 64
11, 1549260, Note_on_c, 10, 81, 127
11, 1549660, Note_off_c, 10, 81, 64
11, 1549740, Note_on_c, 10, 84, 127
11, 1549975, Note_off_c, 10, 84, 64
11, 1549980, Note_on_c, 10, 87, 127
11, 1550380, Note_off_c, 10, 87, 64
11, 1550460, Note_on_c, 10, 81, 127
11, 1550695, Note_off_c, 10, 81, 64
11, 1550700, Note_on_c, 10, 74, 108
11, 1550700, Note_on_c, 10, 82, 108
11, 1551100, Note_off_c, 10, 82, 64
11, 1551100, Note_off_c, 10, 74, 64
11, 1553340, Note_on_c, 10, 70, 108
11, 1553575, Note_off_c, 10, 70, 64
11, 1553580, Note_on_c, 10, 70, 108
11, 1554060, Note_off_c, 10, 70, 64
11, 1554060, Note_on_c, 10, 69, 108
11, 1554295, Note_off_c, 10, 69, 64
11, 1556220, Note_on_c, 10, 74, 108
11, 1556455, Note_off_c, 10, 74, 64
11, 1556460, Note_on_c, 10, 74, 108
11, 1556940, Note_off_c, 10, 74, 64
11, 1556940, Note_on_c, 10, 75, 108
11, 1557175, Note_off_c, 10, 75, 64
11, 1559100, Note_on_c, 10, 77, 108
11, 1559340, Note_off_c, 10, 77, 64
11, 1559340, Note_on_c, 10, 74, 108
11, 1559740, Note_off_c, 10, 74, 64
11, 1560540, Note_on_c, 10, 77, 108
11, 1560780, Note_off_c, 10, 77, 64
11, 1560780, Note_on_c, 10, 79, 108
11, 1561180, Note_off_c, 10, 79, 64
11, 1561980, Note_on_c, 10, 79, 108
11, 1562220, Note_off_c, 10, 79, 64
11, 1562220, Note_on_c, 10, 77, 108
11, 1562620, Note_off_c, 10, 77, 64
11, 1563420, Note_on_c, 10, 77, 108
11, 1563660, Note_off_c, 10, 77, 64
11, 1563660, Note_on_c, 10, 75, 108
11, 1564060, Note_off_c, 10, 75, 64
11, 1564860, Note_on_c, 10, 75, 108
11, 1565095, Note_off_c, 10, 75, 64
11, 1565100, Note_on_c, 10, 74, 108
11, 1565220, Note_off_c, 10, 74, 64
11, 1565220, Note_on_c, 10, 70, 108
11, 1565340, Note_off_c, 10, 70, 64
11, 1565340, Note_on_c, 10, 69, 108
11, 1565460, Note_off_c, 10, 69, 64
11, 1565460, Note_on_c, 10, 70, 108
11, 1565580, Note_off_c, 10, 70, 64
11, 1565580, Note_on_c, 10, 74, 108
11, 1565700, Note_off_c, 10, 74, 64
11, 1565700, Note_on_c, 10, 70, 108
11, 1565815, Note_off_c, 10, 70, 64
11, 1565820, Note_on_c, 10, 75, 108
11, 1565940, Note_off_c, 10, 75, 64
11, 1565940, Note_on_c, 10, 70, 108
11, 1566060, Note_off_c, 10, 70, 64
11, 1566060, Note_on_c, 10, 75, 108
11, 1566180, Note_off_c, 10, 75, 64
11, 1566180, Note_on_c, 10, 70, 108
11, 1566300, Note_off_c, 10, 70, 64
11, 1566300, Note_on_c, 10, 77, 108
11, 1566420, Note_off_c, 10, 77, 64
11, 1566420, Note_on_c, 10, 70, 108
11, 1566535, Note_off_c, 10, 70, 64
11, 1566540, Note_on_c, 10, 70, 108
11, 1566540, Note_on_c, 10, 79, 108
11, 1566940, Note_off_c, 10, 79, 64
11, 1566940, Note_off_c, 10, 70, 64
11, 1567020, Note_on_c, 10, 79, 108
11, 1567260, Note_off_c, 10, 79, 64
11, 1567260, Note_on_c, 10, 79, 108
11, 1567320, Note_off_c, 10, 79, 64
11, 1567320, Note_on_c, 10, 82, 108
11, 1567740, Note_off_c, 10, 82, 64
11, 1567740, Note_on_c, 10, 79, 108
11, 1567975, Note_off_c, 10, 79, 64
11, 1567980, Note_on_c, 10, 70, 108
11, 1567980, Note_on_c, 10, 77, 108
11, 1568380, Note_off_c, 10, 77, 64
11, 1568380, Note_off_c, 10, 70, 64
11, 1568460, Note_on_c, 10, 77, 108
11, 1568700, Note_off_c, 10, 77, 64
11, 1568700, Note_on_c, 10, 77, 108
11, 1568760, Note_off_c, 10, 77, 64
11, 1568760, Note_on_c, 10, 82, 108
11, 1569180, Note_off_c, 10, 82, 64
11, 1569180, Note_on_c, 10, 77, 108
11, 1569415, Note_off_c, 10, 77, 64
11, 1569420, Note_on_c, 10, 70, 108
11, 1569420, Note_on_c, 10, 76, 108
11, 1569820, Note_off_c, 10, 76, 64
11, 1569820, Note_off_c, 10, 70, 64
11, 1569900, Note_on_c, 10, 76, 108
11, 1570135, Note_off_c, 10, 76, 64
11, 1570140, Note_on_c, 10, 76, 108
11, 1570200, Note_off_c, 10, 76, 64
11, 1570200, Note_on_c, 10, 82, 108
11, 1570615, Note_off_c, 10, 82, 64
11, 1570620, Note_on_c, 10, 76, 75
11, 1570855, Note_off_c, 10, 76, 64
11, 1570860, Note_on_c, 10, 77, 75
11, 1571260, Note_off_c, 10, 77, 64
11, 1571340, Note_on_c, 10, 77, 75
11, 1571580, Note_off_c, 10, 77, 64
11, 1571580, Note_on_c, 10, 78, 75
11, 1572060, Note_off_c, 10, 78, 64
11, 1572060, Note_on_c, 10, 75, 75
11, 1572295, Note_off_c, 10, 75, 64
11, 1572300, Note_on_c, 10, 73, 75
11, 1573020, Note_off_c, 10, 73, 64
11, 1573020, Note_on_c, 10, 68, 75
11, 1573500, Note_off_c, 10, 68, 64
11, 1573500, Note_on_c, 10, 77, 75
11, 1573740, Note_off_c, 10, 77, 64
11, 1573740, Note_on_c, 10, 69, 75
11, 1574460, Note_off_c, 10, 69, 64
11, 1574460, Note_on_c, 10, 65, 75
11, 1574940, Note_off_c, 10, 65, 64
11, 1574940, Note_on_c, 10, 72, 75
11, 1575180, Note_off_c, 10, 72, 64
11, 1575180, Note_on_c, 10, 70, 75
11, 1575900, Note_off_c, 10, 70, 64
11, 1575900, Note_on_c, 10, 65, 75
11, 1576380, Note_off_c, 10, 65, 64
11, 1576380, Note_on_c, 10, 73, 75
11, 1576620, Note_off_c, 10, 73, 64
11, 1576620, Note_on_c, 10, 68, 75
11, 1577340, Note_off_c, 10, 68, 64
11, 1577340, Note_on_c, 10, 67, 75
11, 1577820, Note_off_c, 10, 67, 64
11, 1577820, Note_on_c, 10, 74, 75
11, 1578060, Note_off_c, 10, 74, 64
11, 1578060, Note_on_c, 10, 76, 75
11, 1578460, Note_off_c, 10, 76, 64
11, 1580700, Note_on_c, 10, 77, 92
11, 1580780, Note_off_c, 10, 77, 64
11, 1580820, Note_on_c, 10, 74, 92
11, 1580900, Note_off_c, 10, 74, 64
11, 1580940, Note_on_c, 10, 71, 92
11, 1581060, Note_off_c, 10, 71, 64
11, 1581060, Note_on_c, 10, 72, 92
11, 1581140, Note_off_c, 10, 72, 64
11, 1581180, Note_on_c, 10, 74, 92
11, 1581260, Note_off_c, 10, 74, 64
11, 1581300, Note_on_c, 10, 76, 92
11, 1581380, Note_off_c, 10, 76, 64
11, 1581420, Note_on_c, 10, 77, 92
11, 1581500, Note_off_c, 10, 77, 64
11, 1581540, Note_on_c, 10, 76, 92
11, 1581620, Note_off_c, 10, 76, 64
11, 1581660, Note_on_c, 10, 79, 92
11, 1581740, Note_off_c, 10, 79, 64
11, 1581780, Note_on_c, 10, 77, 92
11, 1581860, Note_off_c, 10, 77, 64
11, 1581900, Note_on_c, 10, 76, 92
11, 1581980, Note_off_c, 10, 76, 64
11, 1582020, Note_on_c, 10, 74, 92
11, 1582100, Note_off_c, 10, 74, 64
11, 1582140, Note_on_c, 10, 72, 92
11, 1582220, Note_off_c, 10, 72, 64
11, 1582260, Note_on_c, 10, 71, 92
11, 1582340, Note_off_c, 10, 71, 64
11, 1582380, Note_on_c, 10, 72, 92
11, 1582500, Note_off_c, 10, 72, 64
11, 1582500, Note_on_c, 10, 74, 92
11, 1582580, Note_off_c, 10, 74, 64
11, 1582620, Note_on_c, 10, 76, 92
11, 1582700, Note_off_c, 10, 76, 64
11, 1582740, Note_on_c, 10, 77, 92
11, 1582820, Note_off_c, 10, 77, 64
11, 1582860, Note_on_c, 10, 79, 92
11, 1582940, Note_off_c, 10, 79, 64
11, 1582980, Note_on_c, 10, 78, 92
11, 1583060, Note_off_c, 10, 78, 64
11, 1583100, Note_on_c, 10, 81, 92
11, 1583180, Note_off_c, 10, 81, 64
11, 1583220, Note_on_c, 10, 79, 92
11, 1583300, Note_off_c, 10, 79, 64
11, 1583340, Note_on_c, 10, 77, 92
11, 1583420, Note_off_c, 10, 77, 64
11, 1583460, Note_on_c, 10, 76, 92
11, 1583540, Note_off_c, 10, 76, 64
11, 1583580, Note_on_c, 10, 74, 92
11, 1583660, Note_off_c, 10, 74, 64
11, 1583700, Note_on_c, 10, 72, 92
11, 1583780, Note_off_c, 10, 72, 64
11, 1586460, Note_on_c, 10, 77, 92
11, 1586540, Note_off_c, 10, 77, 64
11, 1586580, Note_on_c, 10, 74, 92
11, 1586660, Note_off_c, 10, 74, 64
11, 1586700, Note_on_c, 10, 71, 92
11, 1586820, Note_off_c, 10, 71, 64
11, 1586820, Note_on_c, 10, 72, 92
11, 1586900, Note_off_c, 10, 72, 64
11, 1586940, Note_on_c, 10, 74, 92
11, 1587020, Note_off_c, 10, 74, 64
11, 1587060, Note_on_c, 10, 76, 92
11, 1587140, Note_off_c, 10, 76, 64
11, 1587180, Note_on_c, 10, 77, 92
11, 1587260, Note_off_c, 10, 77, 64
11, 1587300, Note_on_c, 10, 76, 92
11, 1587380, Note_off_c, 10, 76, 64
11, 1587420, Note_on_c, 10, 79, 92
11, 1587500, Note_off_c, 10, 79, 64
11, 1587540, Note_on_c, 10, 77, 92
11, 1587620, Note_off_c, 10, 77, 64
11, 1587660, Note_on_c, 10, 76, 92
11, 1587740, Note_off_c, 10, 76, 64
11, 1587780, Note_on_c, 10, 74, 93
11, 1587860, Note_off_c, 10, 74, 64
11, 1587900, Note_on_c, 10, 72, 94
11, 1587980, Note_off_c, 10, 72, 64
11, 1588020, Note_on_c, 10, 71, 95
11, 1588100, Note_off_c, 10, 71, 64
11, 1588140, Note_on_c, 10, 72, 96
11, 1588260, Note_off_c, 10, 72, 64
11, 1588260, Note_on_c, 10, 74, 97
11, 1588340, Note_off_c, 10, 74, 64
11, 1588380, Note_on_c, 10, 76, 98
11, 1588460, Note_off_c, 10, 76, 64
11, 1588500, Note_on_c, 10, 77, 99
11, 1588580, Note_off_c, 10, 77, 64
11, 1588620, Note_on_c, 10, 79, 100
11, 1588700, Note_off_c, 10, 79, 64
11, 1588740, Note_on_c, 10, 78, 101
11, 1588820, Note_off_c, 10, 78, 64
11, 1588860, Note_on_c, 10, 81, 102
11, 1588940, Note_off_c, 10, 81, 64
11, 1588980, Note_on_c, 10, 79, 103
11, 1589060, Note_off_c, 10, 79, 64
11, 1589100, Note_on_c, 10, 77, 104
11, 1589180, Note_off_c, 10, 77, 64
11, 1589220, Note_on_c, 10, 76, 105
11, 1589300, Note_off_c, 10, 76, 64
11, 1589340, Note_on_c, 10, 74, 106
11, 1589420, Note_off_c, 10, 74, 64
11, 1589460, Note_on_c, 10, 72, 107
11, 1589540, Note_off_c, 10, 72, 64
11, 1589580, Note_on_c, 10, 72, 108
11, 1589700, Note_off_c, 10, 72, 64
11, 1589700, Note_on_c, 10, 74, 108
11, 1589780, Note_off_c, 10, 74, 64
11, 1589820, Note_on_c, 10, 76, 108
11, 1589900, Note_off_c, 10, 76, 64
11, 1589940, Note_on_c, 10, 77, 108
11, 1590020, Note_off_c, 10, 77, 64
11, 1590060, Note_on_c, 10, 79, 108
11, 1590140, Note_off_c, 10, 79, 64
11, 1590180, Note_on_c, 10, 78, 108
11, 1590260, Note_off_c, 10, 78, 64
11, 1590300, Note_on_c, 10, 81, 108
11, 1590380, Note_off_c, 10, 81, 64
11, 1590420, Note_on_c, 10, 79, 108
11, 1590500, Note_off_c, 10, 79, 64
11, 1590540, Note_on_c, 10, 77, 108
11, 1590620, Note_off_c, 10, 77, 64
11, 1590660, Note_on_c, 10, 76, 108
11, 1590740, Note_off_c, 10, 76, 64
11, 1590780, Note_on_c, 10, 74, 108
11, 1590860, Note_off_c, 10, 74, 64
11, 1590900, Note_on_c, 10, 72, 108
11, 1590980, Note_off_c, 10, 72, 64
11, 1591020, Note_on_c, 10, 72, 108
11, 1591140, Note_off_c, 10, 72, 64
11, 1591140, Note_on_c, 10, 74, 108
11, 1591220, Note_off_c, 10, 74, 64
11, 1591260, Note_on_c, 10, 76, 108
11, 1591340, Note_off_c, 10, 76, 64
11, 1591380, Note_on_c, 10, 77, 108
11, 1591460, Note_off_c, 10, 77, 64
11, 1591500, Note_on_c, 10, 79, 108
11, 1591580, Note_off_c, 10, 79, 64
11, 1591620, Note_on_c, 10, 78, 108
11, 1591700, Note_off_c, 10, 78, 64
11, 1591740, Note_on_c, 10, 81, 108
11, 1591820, Note_off_c, 10, 81, 64
11, 1591860, Note_on_c, 10, 79, 108
11, 1591940, Note_off_c, 10, 79, 64
11, 1591980, Note_on_c, 10, 77, 108
11, 1592060, Note_off_c, 10, 77, 64
11, 1592100, Note_on_c, 10, 76, 108
11, 1592180, Note_off_c, 10, 76, 64
11, 1592220, Note_on_c, 10, 74, 108
11, 1592300, Note_off_c, 10, 74, 64
11, 1592340, Note_on_c, 10, 72, 108
11, 1592420, Note_off_c, 10, 72, 64
11, 1592460, Note_on_c, 10, 72, 60
11, 1592580, Note_off_c, 10, 72, 64
11, 1592580, Note_on_c, 10, 74, 60
11, 1592700, Note_off_c, 10, 74, 64
11, 1592700, Note_on_c, 10, 76, 60
11, 1592820, Note_off_c, 10, 76, 64
11, 1592820, Note_on_c, 10, 77, 60
11, 1592940, Note_off_c, 10, 77, 64
11, 1592940, Note_on_c, 10, 79, 60
11, 1593060, Note_off_c, 10, 79, 64
11, 1593060, Note_on_c, 10, 78, 60
11, 1593175, Note_off_c, 10, 78, 64
11, 1593180, Note_on_c, 10, 81, 60
11, 1593300, Note_off_c, 10, 81, 64
11, 1593300, Note_on_c, 10, 79, 60
11, 1593420, Note_off_c, 10, 79, 64
11, 1593420, Note_on_c, 10, 77, 60
11, 1593540, Note_off_c, 10, 77, 64
11, 1593540, Note_on_c, 10, 76, 60
11, 1593660, Note_off_c, 10, 76, 64
11, 1593660, Note_on_c, 10, 74, 60
11, 1593780, Note_off_c, 10, 74, 64
11, 1593780, Note_on_c, 10, 72, 60
11, 1593895, Note_off_c, 10, 72, 64
11, 1593900, Note_on_c, 10, 72, 60
11, 1594020, Note_off_c, 10, 72, 64
11, 1594020, Note_on_c, 10, 74, 60
11, 1594140, Note_off_c, 10, 74, 64
11, 1594140, Note_on_c, 10, 76, 60
11, 1594260, Note_off_c, 10, 76, 64
11, 1594260, Note_on_c, 10, 77, 60
11, 1594380, Note_off_c, 10, 77, 64
11, 1594380, Note_on_c, 10, 79, 60
11, 1594500, Note_off_c, 10, 79, 64
11, 1594500, Note_on_c, 10, 78, 60
11, 1594615, Note_off_c, 10, 78, 64
11, 1594620, Note_on_c, 10, 81, 60
11, 1594740, Note_off_c, 10, 81, 64
11, 1594740, Note_on_c, 10, 79, 60
11, 1594860, Note_off_c, 10, 79, 64
11, 1594860, Note_on_c, 10, 77, 60
11, 1594980, Note_off_c, 10, 77, 64
11, 1594980, Note_on_c, 10, 76, 60
11, 1595100, Note_off_c, 10, 76, 64
11, 1595100, Note_on_c, 10, 74, 60
11, 1595220, Note_off_c, 10, 74, 64
11, 1595220, Note_on_c, 10, 72, 60
11, 1595335, Note_off_c, 10, 72, 64
11, 1595340, Note_on_c, 10, 81, 60
11, 1595460, Note_off_c, 10, 81, 64
11, 1595460, Note_on_c, 10, 79, 60
11, 1595580, Note_off_c, 10, 79, 64
11, 1595580, Note_on_c, 10, 77, 60
11, 1595700, Note_off_c, 10, 77, 64
11, 1595700, Note_on_c, 10, 76, 60
11, 1595820, Note_off_c, 10, 76, 64
11, 1595820, Note_on_c, 10, 74, 60
11, 1595940, Note_off_c, 10, 74, 64
11, 1595940, Note_on_c, 10, 72, 60
11, 1596055, Note_off_c, 10, 72, 64
11, 1596060, Note_on_c, 10, 81, 60
11, 1596180, Note_off_c, 10, 81, 64
11, 1596180, Note_on_c, 10, 79, 60
11, 1596300, Note_off_c, 10, 79, 64
11, 1596300, Note_on_c, 10, 77, 60
11, 1596420, Note_off_c, 10, 77, 64
11, 1596420, Note_on_c, 10, 76, 60
11, 1596540, Note_off_c, 10, 76, 64
11, 1596540, Note_on_c, 10, 74, 60
11, 1596660, Note_off_c, 10, 74, 64
11, 1596660, Note_on_c, 10, 72, 60
11, 1596775, Note_off_c, 10, 72, 64
11, 1596780, Note_on_c, 10, 81, 60
11, 1596900, Note_off_c, 10, 81, 64
11, 1596900, Note_on_c, 10, 79, 60
11, 1597020, Note_off_c, 10, 79, 64
11, 1597020, Note_on_c, 10, 77, 60
11, 1597140, Note_off_c, 10, 77, 64
11, 1597140, Note_on_c, 10, 76, 60
11, 1597260, Note_off_c, 10, 76, 64
11, 1597260, Note_on_c, 10, 74, 60
11, 1597380, Note_off_c, 10, 74, 64
11, 1597380, Note_on_c, 10, 72, 60
11, 1597495, Note_off_c, 10, 72, 64
11, 1597500, Note_on_c, 10, 81, 60
11, 1597620, Note_off_c, 10, 81, 64
11, 1597620, Note_on_c, 10, 79, 60
11, 1597740, Note_off_c, 10, 79, 64
11, 1597740, Note_on_c, 10, 77, 60
11, 1597860, Note_off_c, 10, 77, 64
11, 1597860, Note_on_c, 10, 76, 60
11, 1597980, Note_off_c, 10, 76, 64
11, 1597980, Note_on_c, 10, 74, 60
11, 1598100, Note_off_c, 10, 74, 64
11, 1598100, Note_on_c, 10, 72, 60
11, 1598215, Note_off_c, 10, 72, 64
11, 1598220, Note_on_c, 10, 81, 60
11, 1598340, Note_off_c, 10, 81, 64
11, 1598340, Note_on_c, 10, 79, 60
11, 1598460, Note_off_c, 10, 79, 64
11, 1598460, Note_on_c, 10, 77, 60
11, 1598580, Note_off_c, 10, 77, 64
11, 1598580, Note_on_c, 10, 76, 60
11, 1598700, Note_off_c, 10, 76, 64
11, 1598700, Note_on_c, 10, 74, 60
11, 1598820, Note_off_c, 10, 74, 64
11, 1598820, Note_on_c, 10, 72, 60
11, 1598935, Note_off_c, 10, 72, 64
11, 1598940, Note_on_c, 10, 81, 60
11, 1599060, Note_off_c, 10, 81, 64
11, 1599060, Note_on_c, 10, 79, 60
11, 1599180, Note_off_c, 10, 79, 64
11, 1599180, Note_on_c, 10, 77, 60
11, 1599300, Note_off_c, 10, 77, 64
11, 1599300, Note_on_c, 10, 76, 60
11, 1599420, Note_off_c, 10, 76, 64
11, 1599420, Note_on_c, 10, 74, 60
11, 1599540, Note_off_c, 10, 74, 64
11, 1599540, Note_on_c, 10, 72, 60
11, 1599655, Note_off_c, 10, 72, 64
11, 1599660, Note_on_c, 10, 81, 60
11, 1599780, Note_off_c, 10, 81, 64
11, 1599780, Note_on_c, 10, 79, 60
11, 1599900, Note_off_c, 10, 79, 64
11, 1599900, Note_on_c, 10, 77, 60
11, 1600020, Note_off_c, 10, 77, 64
11, 1600020, Note_on_c, 10, 76, 60
11, 1600140, Note_off_c, 10, 76, 64
11, 1600140, Note_on_c, 10, 74, 60
11, 1600260, Note_off_c, 10, 74, 64
11, 1600260, Note_on_c, 10, 72, 60
11, 1600375, Note_off_c, 10, 72, 64
11, 1600380, Note_on_c, 10, 84, 60
11, 1600500, Note_off_c, 10, 84, 64
11, 1600500, Note_on_c, 10, 82, 61
11, 1600620, Note_off_c, 10, 82, 64
11, 1600620, Note_on_c, 10, 81, 62
11, 1600740, Note_off_c, 10, 81, 64
11, 1600740, Note_on_c, 10, 79, 63
11, 1600860, Note_off_c, 10, 79, 64
11, 1600860, Note_on_c, 10, 77, 64
11, 1600980, Note_off_c, 10, 77, 64
11, 1600980, Note_on_c, 10, 76, 65
11, 1601095, Note_off_c, 10, 76, 64
11, 1601100, Note_on_c, 10, 74, 66
11, 1601220, Note_off_c, 10, 74, 64
11, 1601220, Note_on_c, 10, 72, 67
11, 1601340, Note_off_c, 10, 72, 64
11, 1601340, Note_on_c, 10, 70, 68
11, 1601460, Note_off_c, 10, 70, 64
11, 1601460, Note_on_c, 10, 69, 69
11, 1601580, Note_off_c, 10, 69, 64
11, 1601580, Note_on_c, 10, 67, 70
11, 1601700, Note_off_c, 10, 67, 64
11, 1601700, Note_on_c, 10, 65, 71
11, 1601820, Note_off_c, 10, 65, 64
11, 1601820, Note_on_c, 10, 64, 72
11, 1601940, Note_off_c, 10, 64, 64
11, 1601940, Note_on_c, 10, 62, 73
11, 1602060, Note_off_c, 10, 62, 64
11, 1602060, Note_on_c, 10, 60, 74
11, 1602180, Note_off_c, 10, 60, 64
11, 1602180, Note_on_c, 10, 58, 75
11, 1602300, Note_off_c, 10, 58, 64
11, 1602300, Note_on_c, 10, 57, 76
11, 1602420, Note_off_c, 10, 57, 64
11, 1602420, Note_on_c, 10, 55, 77
11, 1602535, Note_off_c, 10, 55, 64
11, 1602540, Note_on_c, 10, 58, 78
11, 1602660, Note_off_c, 10, 58, 64
11, 1602660, Note_on_c, 10, 60, 79
11, 1602780, Note_off_c, 10, 60, 64
11, 1602780, Note_on_c, 10, 64, 80
11, 1602900, Note_off_c, 10, 64, 64
11, 1602900, Note_on_c, 10, 67, 81
11, 1603020, Note_off_c, 10, 67, 64
11, 1603020, Note_on_c, 10, 70, 82
11, 1603140, Note_off_c, 10, 70, 64
11, 1603140, Note_on_c, 10, 72, 83
11, 1603255, Note_off_c, 10, 72, 64
11, 1603260, Note_on_c, 10, 76, 84
11, 1603380, Note_off_c, 10, 76, 64
11, 1603380, Note_on_c, 10, 79, 86
11, 1603500, Note_off_c, 10, 79, 64
11, 1603500, Note_on_c, 10, 82, 88
11, 1603620, Note_off_c, 10, 82, 64
11, 1603620, Note_on_c, 10, 79, 90
11, 1603740, Note_off_c, 10, 79, 64
11, 1603740, Note_on_c, 10, 84, 92
11, 1603860, Note_off_c, 10, 84, 64
11, 1603860, Note_on_c, 10, 82, 92
11, 1603975, Note_off_c, 10, 82, 64
11, 1603980, Note_on_c, 10, 81, 60
11, 1604100, Note_off_c, 10, 81, 64
11, 1604100, Note_on_c, 10, 82, 60
11, 1604220, Note_off_c, 10, 82, 64
11, 1604220, Note_on_c, 10, 81, 60
11, 1604340, Note_off_c, 10, 81, 64
11, 1604340, Note_on_c, 10, 79, 60
11, 1604460, Note_off_c, 10, 79, 64
11, 1604460, Note_on_c, 10, 77, 60
11, 1604580, Note_off_c, 10, 77, 64
11, 1604580, Note_on_c, 10, 76, 60
11, 1604700, Note_off_c, 10, 76, 64
11, 1604700, Note_on_c, 10, 77, 60
11, 1604820, Note_off_c, 10, 77, 64
11, 1604820, Note_on_c, 10, 79, 60
11, 1604940, Note_off_c, 10, 79, 64
11, 1604940, Note_on_c, 10, 81, 60
11, 1605060, Note_off_c, 10, 81, 64
11, 1605060, Note_on_c, 10, 82, 60
11, 1605180, Note_off_c, 10, 82, 64
11, 1605180, Note_on_c, 10, 84, 60
11, 1605300, Note_off_c, 10, 84, 64
11, 1605300, Note_on_c, 10, 82, 60
11, 1605420, Note_off_c, 10, 82, 64
11, 1605420, Note_on_c, 10, 81, 60
11, 1605540, Note_off_c, 10, 81, 64
11, 1605540, Note_on_c, 10, 82, 60
11, 1605660, Note_off_c, 10, 82, 64
11, 1605660, Note_on_c, 10, 81, 60
11, 1605780, Note_off_c, 10, 81, 64
11, 1605780, Note_on_c, 10, 79, 60
11, 1605900, Note_off_c, 10, 79, 64
11, 1605900, Note_on_c, 10, 77, 60
11, 1606020, Note_off_c, 10, 77, 64
11, 1606020, Note_on_c, 10, 76, 60
11, 1606140, Note_off_c, 10, 76, 64
11, 1606140, Note_on_c, 10, 77, 60
11, 1606260, Note_off_c, 10, 77, 64
11, 1606260, Note_on_c, 10, 76, 60
11, 1606380, Note_off_c, 10, 76, 64
11, 1606380, Note_on_c, 10, 77, 60
11, 1606500, Note_off_c, 10, 77, 64
11, 1606500, Note_on_c, 10, 72, 60
11, 1606620, Note_off_c, 10, 72, 64
11, 1606620, Note_on_c, 10, 74, 60
11, 1606740, Note_off_c, 10, 74, 64
11, 1606740, Note_on_c, 10, 76, 60
11, 1606860, Note_off_c, 10, 76, 64
11, 1606860, Note_on_c, 10, 77, 60
11, 1606980, Note_off_c, 10, 77, 64
11, 1606980, Note_on_c, 10, 79, 60
11, 1607100, Note_off_c, 10, 79, 64
11, 1607100, Note_on_c, 10, 77, 60
11, 1607220, Note_off_c, 10, 77, 64
11, 1607220, Note_on_c, 10, 76, 60
11, 1607340, Note_off_c, 10, 76, 64
11, 1607340, Note_on_c, 10, 77, 60
11, 1607460, Note_off_c, 10, 77, 64
11, 1607460, Note_on_c, 10, 79, 60
11, 1607580, Note_off_c, 10, 79, 64
11, 1607580, Note_on_c, 10, 81, 60
11, 1607700, Note_off_c, 10, 81, 64
11, 1607700, Note_on_c, 10, 82, 60
11, 1607820, Note_off_c, 10, 82, 64
11, 1607820, Note_on_c, 10, 84, 60
11, 1607940, Note_off_c, 10, 84, 64
11, 1607940, Note_on_c, 10, 83, 60
11, 1608060, Note_off_c, 10, 83, 64
11, 1608060, Note_on_c, 10, 84, 60
11, 1608180, Note_off_c, 10, 84, 64
11, 1608180, Note_on_c, 10, 81, 60
11, 1608300, Note_off_c, 10, 81, 64
11, 1608300, Note_on_c, 10, 82, 60
11, 1608420, Note_off_c, 10, 82, 64
11, 1608420, Note_on_c, 10, 84, 60
11, 1608540, Note_off_c, 10, 84, 64
11, 1608540, Note_on_c, 10, 86, 60
11, 1608660, Note_off_c, 10, 86, 64
11, 1608660, Note_on_c, 10, 84, 60
11, 1608780, Note_off_c, 10, 84, 64
11, 1608780, Note_on_c, 10, 82, 60
11, 1608900, Note_off_c, 10, 82, 64
11, 1608900, Note_on_c, 10, 84, 60
11, 1609020, Note_off_c, 10, 84, 64
11, 1609020, Note_on_c, 10, 82, 60
11, 1609140, Note_off_c, 10, 82, 64
11, 1609140, Note_on_c, 10, 84, 60
11, 1609260, Note_off_c, 10, 84, 64
11, 1609260, Note_on_c, 10, 82, 60
11, 1609380, Note_off_c, 10, 82, 64
11, 1609380, Note_on_c, 10, 81, 60
11, 1609500, Note_off_c, 10, 81, 64
11, 1609500, Note_on_c, 10, 79, 60
11, 1609620, Note_off_c, 10, 79, 64
11, 1609620, Note_on_c, 10, 81, 60
11, 1609740, Note_off_c, 10, 81, 64
11, 1609740, Note_on_c, 10, 82, 60
11, 1609860, Note_off_c, 10, 82, 64
11, 1609860, Note_on_c, 10, 84, 60
11, 1609980, Note_off_c, 10, 84, 64
11, 1609980, Note_on_c, 10, 82, 60
11, 1610100, Note_off_c, 10, 82, 64
11, 1610100, Note_on_c, 10, 81, 60
11, 1610220, Note_off_c, 10, 81, 64
11, 1610220, Note_on_c, 10, 79, 60
11, 1610340, Note_off_c, 10, 79, 64
11, 1610340, Note_on_c, 10, 78, 60
11, 1610460, Note_off_c, 10, 78, 64
11, 1610460, Note_on_c, 10, 79, 60
11, 1610580, Note_off_c, 10, 79, 64
11, 1610580, Note_on_c, 10, 81, 60
11, 1610700, Note_off_c, 10, 81, 64
11, 1610700, Note_on_c, 10, 82, 60
11, 1610820, Note_off_c, 10, 82, 64
11, 1610820, Note_on_c, 10, 83, 60
11, 1610940, Note_off_c, 10, 83, 64
11, 1610940, Note_on_c, 10, 84, 60
11, 1611060, Note_off_c, 10, 84, 64
11, 1611060, Note_on_c, 10, 82, 60
11, 1611180, Note_off_c, 10, 82, 64
11, 1611180, Note_on_c, 10, 81, 60
11, 1611300, Note_off_c, 10, 81, 64
11, 1611300, Note_on_c, 10, 82, 60
11, 1611420, Note_off_c, 10, 82, 64
11, 1611420, Note_on_c, 10, 81, 60
11, 1611540, Note_off_c, 10, 81, 64
11, 1611540, Note_on_c, 10, 79, 60
11, 1611660, Note_off_c, 10, 79, 64
11, 1611660, Note_on_c, 10, 81, 60
11, 1611780, Note_off_c, 10, 81, 64
11, 1611780, Note_on_c, 10, 79, 60
11, 1611900, Note_off_c, 10, 79, 64
11, 1611900, Note_on_c, 10, 77, 60
11, 1612020, Note_off_c, 10, 77, 64
11, 1612020, Note_on_c, 10, 79, 60
11, 1612140, Note_off_c, 10, 79, 64
11, 1612140, Note_on_c, 10, 77, 60
11, 1612260, Note_off_c, 10, 77, 64
11, 1612260, Note_on_c, 10, 76, 60
11, 1612380, Note_off_c, 10, 76, 64
11, 1612380, Note_on_c, 10, 77, 60
11, 1612500, Note_off_c, 10, 77, 64
11, 1612500, Note_on_c, 10, 81, 60
11, 1612620, Note_off_c, 10, 81, 64
11, 1612620, Note_on_c, 10, 81, 60
11, 1612740, Note_off_c, 10, 81, 64
11, 1612740, Note_on_c, 10, 79, 60
11, 1612860, Note_off_c, 10, 79, 64
11, 1612860, Note_on_c, 10, 77, 60
11, 1612980, Note_off_c, 10, 77, 64
11, 1612980, Note_on_c, 10, 79, 60
11, 1613100, Note_off_c, 10, 79, 64
11, 1613100, Note_on_c, 10, 74, 60
11, 1613220, Note_off_c, 10, 74, 64
11, 1613220, Note_on_c, 10, 79, 60
11, 1613340, Note_off_c, 10, 79, 64
11, 1613340, Note_on_c, 10, 77, 60
11, 1613460, Note_off_c, 10, 77, 64
11, 1613460, Note_on_c, 10, 76, 60
11, 1613580, Note_off_c, 10, 76, 64
11, 1613580, Note_on_c, 10, 74, 60
11, 1613700, Note_off_c, 10, 74, 64
11, 1613700, Note_on_c, 10, 76, 60
11, 1613820, Note_off_c, 10, 76, 64
11, 1613820, Note_on_c, 10, 72, 61
11, 1613940, Note_off_c, 10, 72, 64
11, 1613940, Note_on_c, 10, 76, 62
11, 1614060, Note_off_c, 10, 76, 64
11, 1614060, Note_on_c, 10, 72, 63
11, 1614180, Note_off_c, 10, 72, 64
11, 1614180, Note_on_c, 10, 77, 64
11, 1614300, Note_off_c, 10, 77, 64
11, 1614300, Note_on_c, 10, 72, 65
11, 1614420, Note_off_c, 10, 72, 64
11, 1614420, Note_on_c, 10, 70, 66
11, 1614540, Note_off_c, 10, 70, 64
11, 1614540, Note_on_c, 10, 69, 67
11, 1614660, Note_off_c, 10, 69, 64
11, 1614660, Note_on_c, 10, 70, 68
11, 1614780, Note_off_c, 10, 70, 64
11, 1614780, Note_on_c, 10, 72, 69
11, 1614900, Note_off_c, 10, 72, 64
11, 1614900, Note_on_c, 10, 74, 70
11, 1615020, Note_off_c, 10, 74, 64
11, 1615020, Note_on_c, 10, 76, 71
11, 1615140, Note_off_c, 10, 76, 64
11, 1615140, Note_on_c, 10, 77, 72
11, 1615260, Note_off_c, 10, 77, 64
11, 1615260, Note_on_c, 10, 79, 73
11, 1615380, Note_off_c, 10, 79, 64
11, 1615380, Note_on_c, 10, 81, 74
11, 1615495, Note_off_c, 10, 81, 64
11, 1615500, Note_on_c, 10, 77, 75
11, 1615900, Note_off_c, 10, 77, 64
11, 1615980, Note_on_c, 10, 81, 75
11, 1616060, Note_off_c, 10, 81, 64
11, 1616220, Note_on_c, 10, 81, 75
11, 1616300, Note_off_c, 10, 81, 64
11, 1616460, Note_on_c, 10, 77, 75
11, 1616540, Note_off_c, 10, 77, 64
11, 1616700, Note_on_c, 10, 84, 75
11, 1616780, Note_off_c, 10, 84, 64
11, 1617420, Note_on_c, 10, 81, 75
11, 1617500, Note_off_c, 10, 81, 64
11, 1617660, Note_on_c, 10, 81, 75
11, 1617740, Note_off_c, 10, 81, 64
11, 1617900, Note_on_c, 10, 77, 75
11, 1617980, Note_off_c, 10, 77, 64
11, 1618140, Note_on_c, 10, 84, 75
11, 1618220, Note_off_c, 10, 84, 64
11, 1618860, Note_on_c, 10, 81, 75
11, 1618940, Note_off_c, 10, 81, 64
11, 1619100, Note_on_c, 10, 81, 75
11, 1619180, Note_off_c, 10, 81, 64
11, 1619340, Note_on_c, 10, 77, 75
11, 1619420, Note_off_c, 10, 77, 64
11, 1619580, Note_on_c, 10, 84, 75
11, 1619660, Note_off_c, 10, 84, 64
11, 1620300, Note_on_c, 10, 82, 76
11, 1620380, Note_off_c, 10, 82, 64
11, 1620540, Note_on_c, 10, 82, 76
11, 1620620, Note_off_c, 10, 82, 64
11, 1620780, Note_on_c, 10, 77, 76
11, 1620860, Note_off_c, 10, 77, 64
11, 1621020, Note_on_c, 10, 79, 76
11, 1621100, Note_off_c, 10, 79, 64
11, 1621740, Note_on_c, 10, 82, 77
11, 1621820, Note_off_c, 10, 82, 64
11, 1621980, Note_on_c, 10, 82, 77
11, 1622060, Note_off_c, 10, 82, 64
11, 1622220, Note_on_c, 10, 79, 77
11, 1622300, Note_off_c, 10, 79, 64
11, 1622460, Note_on_c, 10, 84, 77
11, 1622540, Note_off_c, 10, 84, 64
11, 1623180, Note_on_c, 10, 81, 78
11, 1623260, Note_off_c, 10, 81, 64
11, 1623420, Note_on_c, 10, 81, 78
11, 1623500, Note_off_c, 10, 81, 64
11, 1623660, Note_on_c, 10, 77, 78
11, 1623740, Note_off_c, 10, 77, 64
11, 1623900, Note_on_c, 10, 84, 79
11, 1623980, Note_off_c, 10, 84, 64
11, 1624620, Note_on_c, 10, 79, 82
11, 1624700, Note_off_c, 10, 79, 64
11, 1624860, Note_on_c, 10, 79, 83
11, 1624940, Note_off_c, 10, 79, 64
11, 1625100, Note_on_c, 10, 76, 84
11, 1625180, Note_off_c, 10, 76, 64
11, 1625340, Note_on_c, 10, 84, 85
11, 1625420, Note_off_c, 10, 84, 64
11, 1626060, Note_on_c, 10, 77, 88
11, 1626135, Note_off_c, 10, 77, 64
11, 1626140, Note_on_c, 10, 77, 88
11, 1626215, Note_off_c, 10, 77, 64
11, 1626220, Note_on_c, 10, 77, 88
11, 1626295, Note_off_c, 10, 77, 64
11, 1626300, Note_on_c, 10, 77, 88
11, 1626375, Note_off_c, 10, 77, 64
11, 1626380, Note_on_c, 10, 77, 88
11, 1626455, Note_off_c, 10, 77, 64
11, 1626460, Note_on_c, 10, 77, 88
11, 1626535, Note_off_c, 10, 77, 64
11, 1626540, Note_on_c, 10, 81, 88
11, 1626615, Note_off_c, 10, 81, 64
11, 1626620, Note_on_c, 10, 81, 88
11, 1626695, Note_off_c, 10, 81, 64
11, 1626700, Note_on_c, 10, 81, 88
11, 1626775, Note_off_c, 10, 81, 64
11, 1626780, Note_on_c, 10, 84, 89
11, 1626855, Note_off_c, 10, 84, 64
11, 1626860, Note_on_c, 10, 84, 90
11, 1626935, Note_off_c, 10, 84, 64
11, 1626940, Note_on_c, 10, 84, 91
11, 1627015, Note_off_c, 10, 84, 64
11, 1627020, Program_c, 10, 48
11, 1627020, Note_on_c, 10, 77, 92
11, 1627020, Note_on_c, 10, 89, 92
11, 1627095, Note_off_c, 10, 89, 64
11, 1627095, Note_off_c, 10, 77, 64
11, 1627100, Note_on_c, 10, 77, 92
11, 1627100, Note_on_c, 10, 89, 92
11, 1627175, Note_off_c, 10, 89, 64
11, 1627175, Note_off_c, 10, 77, 64
11, 1627180, Note_on_c, 10, 77, 92
11, 1627180, Note_on_c, 10, 89, 92
11, 1627255, Note_off_c, 10, 89, 64
11, 1627255, Note_off_c, 10, 77, 64
11, 1627260, Note_on_c, 10, 77, 92
11, 1627260, Note_on_c, 10, 89, 92
11, 1627335, Note_off_c, 10, 89, 64
11, 1627335, Note_off_c, 10, 77, 64
11, 1627340, Note_on_c, 10, 77, 92
11, 1627340, Note_on_c, 10, 89, 92
11, 1627415, Note_off_c, 10, 89, 64
11, 1627415, Note_off_c, 10, 77, 64
11, 1627420, Note_on_c, 10, 77, 92
11, 1627420, Note_on_c, 10, 89, 92
11, 1627495, Note_off_c, 10, 89, 64
11, 1627495, Note_off_c, 10, 77, 64
11, 1627500, Note_on_c, 10, 77, 92
11, 1627500, Note_on_c, 10, 89, 92
11, 1627575, Note_off_c, 10, 89, 64
11, 1627575, Note_off_c, 10, 77, 64
11, 1627580, Note_on_c, 10, 77, 92
11, 1627580, Note_on_c, 10, 89, 92
11, 1627655, Note_off_c, 10, 89, 64
11, 1627655, Note_off_c, 10, 77, 64
11, 1627660, Note_on_c, 10, 77, 92
11, 1627660, Note_on_c, 10, 89, 92
11, 1627735, Note_off_c, 10, 89, 64
11, 1627735, Note_off_c, 10, 77, 64
11, 1627740, Note_on_c, 10, 77, 92
11, 1627740, Note_on_c, 10, 89, 92
11, 1627815, Note_off_c, 10, 89, 64
11, 1627815, Note_off_c, 10, 77, 64
11, 1627820, Note_on_c, 10, 77, 92
11, 1627820, Note_on_c, 10, 89, 92
11, 1627895, Note_off_c, 10, 89, 64
11, 1627895, Note_off_c, 10, 77, 64
11, 1627900, Note_on_c, 10, 77, 92
11, 1627900, Note_on_c, 10, 89, 92
11, 1627975, Note_off_c, 10, 89, 64
11, 1627975, Note_off_c, 10, 77, 64
11, 1627980, Note_on_c, 10, 77, 92
11, 1627980, Note_on_c, 10, 89, 92
11, 1628055, Note_off_c, 10, 89, 64
11, 1628055, Note_off_c, 10, 77, 64
11, 1628060, Note_on_c, 10, 77, 92
11, 1628060, Note_on_c, 10, 89, 92
11, 1628135, Note_off_c, 10, 89, 64
11, 1628135, Note_off_c, 10, 77, 64
11, 1628140, Note_on_c, 10, 77, 92
11, 1628140, Note_on_c, 10, 89, 92
11, 1628215, Note_off_c, 10, 89, 64
11, 1628215, Note_off_c, 10, 77, 64
11, 1628220, Note_on_c, 10, 77, 92
11, 1628220, Note_on_c, 10, 89, 92
11, 1628295, Note_off_c, 10, 89, 64
11, 1628295, Note_off_c, 10, 77, 64
11, 1628300, Note_on_c, 10, 77, 92
11, 1628300, Note_on_c, 10, 89, 92
11, 1628375, Note_off_c, 10, 89, 64
11, 1628375, Note_off_c, 10, 77, 64
11, 1628380, Note_on_c, 10, 77, 92
11, 1628380, Note_on_c, 10, 89, 92
11, 1628455, Note_off_c, 10, 89, 64
11, 1628455, Note_off_c, 10, 77, 64
11, 1628460, Note_on_c, 10, 77, 92
11, 1628460, Note_on_c, 10, 89, 92
11, 1628535, Note_off_c, 10, 89, 64
11, 1628535, Note_off_c, 10, 77, 64
11, 1628540, Note_on_c, 10, 77, 92
11, 1628540, Note_on_c, 10, 89, 92
11, 1628615, Note_off_c, 10, 89, 64
11, 1628615, Note_off_c, 10, 77, 64
11, 1628620, Note_on_c, 10, 77, 92
11, 1628620, Note_on_c, 10, 89, 92
11, 1628695, Note_off_c, 10, 89, 64
11, 1628695, Note_off_c, 10, 77, 64
11, 1628700, Note_on_c, 10, 77, 92
11, 1628700, Note_on_c, 10, 89, 92
11, 1628775, Note_off_c, 10, 89, 64
11, 1628775, Note_off_c, 10, 77, 64
11, 1628780, Note_on_c, 10, 77, 92
11, 1628780, Note_on_c, 10, 89, 92
11, 1628855, Note_off_c, 10, 89, 64
11, 1628855, Note_off_c, 10, 77, 64
11, 1628860, Note_on_c, 10, 77, 92
11, 1628860, Note_on_c, 10, 89, 92
11, 1628935, Note_off_c, 10, 89, 64
11, 1628935, Note_off_c, 10, 77, 64
11, 1628940, Note_on_c, 10, 77, 92
11, 1628940, Note_on_c, 10, 89, 92
11, 1629015, Note_off_c, 10, 89, 64
11, 1629015, Note_off_c, 10, 77, 64
11, 1629020, Note_on_c, 10, 77, 92
11, 1629020, Note_on_c, 10, 89, 92
11, 1629095, Note_off_c, 10, 89, 64
11, 1629095, Note_off_c, 10, 77, 64
11, 1629100, Note_on_c, 10, 77, 92
11, 1629100, Note_on_c, 10, 89, 92
11, 1629175, Note_off_c, 10, 89, 64
11, 1629175, Note_off_c, 10, 77, 64
11, 1629180, Note_on_c, 10, 77, 92
11, 1629180, Note_on_c, 10, 89, 92
11, 1629255, Note_off_c, 10, 89, 64
11, 1629255, Note_off_c, 10, 77, 64
11, 1629260, Note_on_c, 10, 77, 92
11, 1629260, Note_on_c, 10, 89, 92
11, 1629335, Note_off_c, 10, 89, 64
11, 1629335, Note_off_c, 10, 77, 64
11, 1629340, Note_on_c, 10, 77, 92
11, 1629340, Note_on_c, 10, 89, 92
11, 1629415, Note_off_c, 10, 89, 64
11, 1629415, Note_off_c, 10, 77, 64
11, 1629420, Note_on_c, 10, 77, 92
11, 1629420, Note_on_c, 10, 89, 92
11, 1629495, Note_off_c, 10, 89, 64
11, 1629495, Note_off_c, 10, 77, 64
11, 1629500, Note_on_c, 10, 77, 92
11, 1629500, Note_on_c, 10, 89, 92
11, 1629575, Note_off_c, 10, 89, 64
11, 1629575, Note_off_c, 10, 77, 64
11, 1629580, Note_on_c, 10, 77, 92
11, 1629580, Note_on_c, 10, 89, 92
11, 1629655, Note_off_c, 10, 89, 64
11, 1629655, Note_off_c, 10, 77, 64
11, 1629660, Note_on_c, 10, 77, 92
11, 1629660, Note_on_c, 10, 89, 92
11, 1629735, Note_off_c, 10, 89, 64
11, 1629735, Note_off_c, 10, 77, 64
11, 1629740, Note_on_c, 10, 77, 92
11, 1629740, Note_on_c, 10, 89, 92
11, 1629815, Note_off_c, 10, 89, 64
11, 1629815, Note_off_c, 10, 77, 64
11, 1629820, Note_on_c, 10, 77, 92
11, 1629820, Note_on_c, 10, 89, 92
11, 1629895, Note_off_c, 10, 89, 64
11, 1629895, Note_off_c, 10, 77, 64
11, 1629900, Note_on_c, 10, 77, 92
11, 1629900, Note_on_c, 10, 89, 92
11, 1629975, Note_off_c, 10, 89, 64
11, 1629975, Note_off_c, 10, 77, 64
11, 1629980, Note_on_c, 10, 77, 92
11, 1629980, Note_on_c, 10, 89, 92
11, 1630055, Note_off_c, 10, 89, 64
11, 1630055, Note_off_c, 10, 77, 64
11, 1630060, Note_on_c, 10, 77, 92
11, 1630060, Note_on_c, 10, 89, 92
11, 1630135, Note_off_c, 10, 89, 64
11, 1630135, Note_off_c, 10, 77, 64
11, 1630140, Note_on_c, 10, 77, 92
11, 1630140, Note_on_c, 10, 89, 92
11, 1630215, Note_off_c, 10, 89, 64
11, 1630215, Note_off_c, 10, 77, 64
11, 1630220, Note_on_c, 10, 77, 92
11, 1630220, Note_on_c, 10, 89, 92
11, 1630295, Note_off_c, 10, 89, 64
11, 1630295, Note_off_c, 10, 77, 64
11, 1630300, Note_on_c, 10, 77, 92
11, 1630300, Note_on_c, 10, 89, 92
11, 1630375, Note_off_c, 10, 89, 64
11, 1630375, Note_off_c, 10, 77, 64
11, 1630380, Note_on_c, 10, 77, 92
11, 1630380, Note_on_c, 10, 89, 92
11, 1630455, Note_off_c, 10, 89, 64
11, 1630455, Note_off_c, 10, 77, 64
11, 1630460, Note_on_c, 10, 77, 92
11, 1630460, Note_on_c, 10, 89, 92
11, 1630535, Note_off_c, 10, 89, 64
11, 1630535, Note_off_c, 10, 77, 64
11, 1630540, Note_on_c, 10, 77, 92
11, 1630540, Note_on_c, 10, 89, 92
11, 1630615, Note_off_c, 10, 89, 64
11, 1630615, Note_off_c, 10, 77, 64
11, 1630620, Note_on_c, 10, 77, 92
11, 1630620, Note_on_c, 10, 89, 92
11, 1630695, Note_off_c, 10, 89, 64
11, 1630695, Note_off_c, 10, 77, 64
11, 1630700, Note_on_c, 10, 77, 92
11, 1630700, Note_on_c, 10, 89, 92
11, 1630775, Note_off_c, 10, 89, 64
11, 1630775, Note_off_c, 10, 77, 64
11, 1630780, Note_on_c, 10, 77, 92
11, 1630780, Note_on_c, 10, 89, 92
11, 1630855, Note_off_c, 10, 89, 64
11, 1630855, Note_off_c, 10, 77, 64
11, 1630860, Note_on_c, 10, 77, 92
11, 1630860, Note_on_c, 10, 89, 92
11, 1630935, Note_off_c, 10, 89, 64
11, 1630935, Note_off_c, 10, 77, 64
11, 1630940, Note_on_c, 10, 77, 92
11, 1630940, Note_on_c, 10, 89, 92
11, 1631015, Note_off_c, 10, 89, 64
11, 1631015, Note_off_c, 10, 77, 64
11, 1631020, Note_on_c, 10, 77, 92
11, 1631020, Note_on_c, 10, 89, 92
11, 1631095, Note_off_c, 10, 89, 64
11, 1631095, Note_off_c, 10, 77, 64
11, 1631100, Note_on_c, 10, 77, 92
11, 1631100, Note_on_c, 10, 89, 92
11, 1631175, Note_off_c, 10, 89, 64
11, 1631175, Note_off_c, 10, 77, 64
11, 1631180, Note_on_c, 10, 77, 92
11, 1631180, Note_on_c, 10, 89, 92
11, 1631255, Note_off_c, 10, 89, 64
11, 1631255, Note_off_c, 10, 77, 64
11, 1631260, Note_on_c, 10, 77, 92
11, 1631260, Note_on_c, 10, 89, 92
11, 1631335, Note_off_c, 10, 89, 64
11, 1631335, Note_off_c, 10, 77, 64
11, 1631340, Note_on_c, 10, 77, 92
11, 1631340, Note_on_c, 10, 89, 92
11, 1631415, Note_off_c, 10, 89, 64
11, 1631415, Note_off_c, 10, 77, 64
11, 1631420, Note_on_c, 10, 77, 92
11, 1631420, Note_on_c, 10, 89, 92
11, 1631495, Note_off_c, 10, 89, 64
11, 1631495, Note_off_c, 10, 77, 64
11, 1631500, Note_on_c, 10, 77, 92
11, 1631500, Note_on_c, 10, 89, 92
11, 1631575, Note_off_c, 10, 89, 64
11, 1631575, Note_off_c, 10, 77, 64
11, 1631580, Note_on_c, 10, 77, 92
11, 1631580, Note_on_c, 10, 89, 92
11, 1631655, Note_off_c, 10, 89, 64
11, 1631655, Note_off_c, 10, 77, 64
11, 1631660, Note_on_c, 10, 77, 92
11, 1631660, Note_on_c, 10, 89, 92
11, 1631735, Note_off_c, 10, 89, 64
11, 1631735, Note_off_c, 10, 77, 64
11, 1631740, Note_on_c, 10, 77, 92
11, 1631740, Note_on_c, 10, 89, 92
11, 1631815, Note_off_c, 10, 89, 64
11, 1631815, Note_off_c, 10, 77, 64
11, 1631820, Note_on_c, 10, 77, 92
11, 1631820, Note_on_c, 10, 89, 92
11, 1631895, Note_off_c, 10, 89, 64
11, 1631895, Note_off_c, 10, 77, 64
11, 1631900, Note_on_c, 10, 77, 92
11, 1631900, Note_on_c, 10, 89, 92
11, 1631975, Note_off_c, 10, 89, 64
11, 1631975, Note_off_c, 10, 77, 64
11, 1631980, Note_on_c, 10, 77, 92
11, 1631980, Note_on_c, 10, 89, 92
11, 1632055, Note_off_c, 10, 89, 64
11, 1632055, Note_off_c, 10, 77, 64
11, 1632060, Note_on_c, 10, 77, 92
11, 1632060, Note_on_c, 10, 89, 92
11, 1632135, Note_off_c, 10, 89, 64
11, 1632135, Note_off_c, 10, 77, 64
11, 1632140, Note_on_c, 10, 77, 92
11, 1632140, Note_on_c, 10, 89, 92
11, 1632215, Note_off_c, 10, 89, 64
11, 1632215, Note_off_c, 10, 77, 64
11, 1632220, Note_on_c, 10, 77, 92
11, 1632220, Note_on_c, 10, 89, 92
11, 1632295, Note_off_c, 10, 89, 64
11, 1632295, Note_off_c, 10, 77, 64
11, 1632300, Note_on_c, 10, 77, 92
11, 1632300, Note_on_c, 10, 89, 92
11, 1632375, Note_off_c, 10, 89, 64
11, 1632375, Note_off_c, 10, 77, 64
11, 1632380, Note_on_c, 10, 77, 92
11, 1632380, Note_on_c, 10, 89, 92
11, 1632455, Note_off_c, 10, 89, 64
11, 1632455, Note_off_c, 10, 77, 64
11, 1632460, Note_on_c, 10, 77, 92
11, 1632460, Note_on_c, 10, 89, 92
11, 1632535, Note_off_c, 10, 89, 64
11, 1632535, Note_off_c, 10, 77, 64
11, 1632540, Note_on_c, 10, 79, 92
11, 1632540, Note_on_c, 10, 91, 92
11, 1632615, Note_off_c, 10, 91, 64
11, 1632615, Note_off_c, 10, 79, 64
11, 1632620, Note_on_c, 10, 79, 92
11, 1632620, Note_on_c, 10, 91, 92
11, 1632695, Note_off_c, 10, 91, 64
11, 1632695, Note_off_c, 10, 79, 64
11, 1632700, Note_on_c, 10, 79, 92
11, 1632700, Note_on_c, 10, 91, 92
11, 1632775, Note_off_c, 10, 91, 64
11, 1632775, Note_off_c, 10, 79, 64
11, 1632780, Note_on_c, 10, 79, 92
11, 1632780, Note_on_c, 10, 91, 92
11, 1632855, Note_off_c, 10, 91, 64
11, 1632855, Note_off_c, 10, 79, 64
11, 1632860, Note_on_c, 10, 79, 92
11, 1632860, Note_on_c, 10, 91, 92
11, 1632935, Note_off_c, 10, 91, 64
11, 1632935, Note_off_c, 10, 79, 64
11, 1632940, Note_on_c, 10, 79, 92
11, 1632940, Note_on_c, 10, 91, 92
11, 1633015, Note_off_c, 10, 91, 64
11, 1633015, Note_off_c, 10, 79, 64
11, 1633020, Note_on_c, 10, 79, 92
11, 1633020, Note_on_c, 10, 91, 92
11, 1633095, Note_off_c, 10, 91, 64
11, 1633095, Note_off_c, 10, 79, 64
11, 1633100, Note_on_c, 10, 79, 92
11, 1633100, Note_on_c, 10, 91, 92
11, 1633175, Note_off_c, 10, 91, 64
11, 1633175, Note_off_c, 10, 79, 64
11, 1633180, Note_on_c, 10, 79, 92
11, 1633180, Note_on_c, 10, 91, 92
11, 1633255, Note_off_c, 10, 91, 64
11, 1633255, Note_off_c, 10, 79, 64
11, 1633260, Note_on_c, 10, 79, 92
11, 1633260, Note_on_c, 10, 91, 92
11, 1633335, Note_off_c, 10, 91, 64
11, 1633335, Note_off_c, 10, 79, 64
11, 1633340, Note_on_c, 10, 79, 92
11, 1633340, Note_on_c, 10, 91, 92
11, 1633415, Note_off_c, 10, 91, 64
11, 1633415, Note_off_c, 10, 79, 64
11, 1633420, Note_on_c, 10, 79, 92
11, 1633420, Note_on_c, 10, 91, 92
11, 1633495, Note_off_c, 10, 91, 64
11, 1633495, Note_off_c, 10, 79, 64
11, 1633500, Note_on_c, 10, 79, 92
11, 1633500, Note_on_c, 10, 91, 92
11, 1633575, Note_off_c, 10, 91, 64
11, 1633575, Note_off_c, 10, 79, 64
11, 1633580, Note_on_c, 10, 79, 92
11, 1633580, Note_on_c, 10, 91, 92
11, 1633655, Note_off_c, 10, 91, 64
11, 1633655, Note_off_c, 10, 79, 64
11, 1633660, Note_on_c, 10, 79, 92
11, 1633660, Note_on_c, 10, 91, 92
11, 1633735, Note_off_c, 10, 91, 64
11, 1633735, Note_off_c, 10, 79, 64
11, 1633740, Note_on_c, 10, 79, 92
11, 1633740, Note_on_c, 10, 91, 92
11, 1633815, Note_off_c, 10, 91, 64
11, 1633815, Note_off_c, 10, 79, 64
11, 1633820, Note_on_c, 10, 79, 92
11, 1633820, Note_on_c, 10, 91, 92
11, 1633895, Note_off_c, 10, 91, 64
11, 1633895, Note_off_c, 10, 79, 64
11, 1633900, Note_on_c, 10, 79, 92
11, 1633900, Note_on_c, 10, 91, 92
11, 1633975, Note_off_c, 10, 91, 64
11, 1633975, Note_off_c, 10, 79, 64
11, 1633980, Note_on_c, 10, 79, 92
11, 1633980, Note_on_c, 10, 91, 92
11, 1634055, Note_off_c, 10, 91, 64
11, 1634055, Note_off_c, 10, 79, 64
11, 1634060, Note_on_c, 10, 79, 92
11, 1634060, Note_on_c, 10, 91, 92
11, 1634135, Note_off_c, 10, 91, 64
11, 1634135, Note_off_c, 10, 79, 64
11, 1634140, Note_on_c, 10, 79, 92
11, 1634140, Note_on_c, 10, 91, 92
11, 1634215, Note_off_c, 10, 91, 64
11, 1634215, Note_off_c, 10, 79, 64
11, 1634220, Note_on_c, 10, 79, 92
11, 1634220, Note_on_c, 10, 91, 92
11, 1634295, Note_off_c, 10, 91, 64
11, 1634295, Note_off_c, 10, 79, 64
11, 1634300, Note_on_c, 10, 79, 92
11, 1634300, Note_on_c, 10, 91, 92
11, 1634375, Note_off_c, 10, 91, 64
11, 1634375, Note_off_c, 10, 79, 64
11, 1634380, Note_on_c, 10, 79, 92
11, 1634380, Note_on_c, 10, 91, 92
11, 1634455, Note_off_c, 10, 91, 64
11, 1634455, Note_off_c, 10, 79, 64
11, 1634460, Note_on_c, 10, 77, 92
11, 1634460, Note_on_c, 10, 89, 92
11, 1634535, Note_off_c, 10, 89, 64
11, 1634535, Note_off_c, 10, 77, 64
11, 1634540, Note_on_c, 10, 77, 92
11, 1634540, Note_on_c, 10, 89, 92
11, 1634615, Note_off_c, 10, 89, 64
11, 1634615, Note_off_c, 10, 77, 64
11, 1634620, Note_on_c, 10, 77, 92
11, 1634620, Note_on_c, 10, 89, 92
11, 1634695, Note_off_c, 10, 89, 64
11, 1634695, Note_off_c, 10, 77, 64
11, 1634700, Note_on_c, 10, 77, 92
11, 1634700, Note_on_c, 10, 89, 92
11, 1634775, Note_off_c, 10, 89, 64
11, 1634775, Note_off_c, 10, 77, 64
11, 1634780, Note_on_c, 10, 77, 92
11, 1634780, Note_on_c, 10, 89, 92
11, 1634855, Note_off_c, 10, 89, 64
11, 1634855, Note_off_c, 10, 77, 64
11, 1634860, Note_on_c, 10, 77, 92
11, 1634860, Note_on_c, 10, 89, 92
11, 1634935, Note_off_c, 10, 89, 64
11, 1634935, Note_off_c, 10, 77, 64
11, 1634940, Note_on_c, 10, 77, 92
11, 1634940, Note_on_c, 10, 89, 92
11, 1635015, Note_off_c, 10, 89, 64
11, 1635015, Note_off_c, 10, 77, 64
11, 1635020, Note_on_c, 10, 77, 92
11, 1635020, Note_on_c, 10, 89, 92
11, 1635095, Note_off_c, 10, 89, 64
11, 1635095, Note_off_c, 10, 77, 64
11, 1635100, Note_on_c, 10, 77, 92
11, 1635100, Note_on_c, 10, 89, 92
11, 1635175, Note_off_c, 10, 89, 64
11, 1635175, Note_off_c, 10, 77, 64
11, 1635180, Note_on_c, 10, 77, 92
11, 1635180, Note_on_c, 10, 89, 92
11, 1635255, Note_off_c, 10, 89, 64
11, 1635255, Note_off_c, 10, 77, 64
11, 1635260, Note_on_c, 10, 77, 92
11, 1635260, Note_on_c, 10, 89, 92
11, 1635335, Note_off_c, 10, 89, 64
11, 1635335, Note_off_c, 10, 77, 64
11, 1635340, Note_on_c, 10, 77, 92
11, 1635340, Note_on_c, 10, 89, 92
11, 1635415, Note_off_c, 10, 89, 64
11, 1635415, Note_off_c, 10, 77, 64
11, 1635420, Note_on_c, 10, 77, 92
11, 1635420, Note_on_c, 10, 89, 92
11, 1635495, Note_off_c, 10, 89, 64
11, 1635495, Note_off_c, 10, 77, 64
11, 1635500, Note_on_c, 10, 77, 92
11, 1635500, Note_on_c, 10, 89, 92
11, 1635575, Note_off_c, 10, 89, 64
11, 1635575, Note_off_c, 10, 77, 64
11, 1635580, Note_on_c, 10, 77, 92
11, 1635580, Note_on_c, 10, 89, 92
11, 1635655, Note_off_c, 10, 89, 64
11, 1635655, Note_off_c, 10, 77, 64
11, 1635660, Note_on_c, 10, 77, 92
11, 1635660, Note_on_c, 10, 89, 92
11, 1635735, Note_off_c, 10, 89, 64
11, 1635735, Note_off_c, 10, 77, 64
11, 1635740, Note_on_c, 10, 77, 92
11, 1635740, Note_on_c, 10, 89, 92
11, 1635815, Note_off_c, 10, 89, 64
11, 1635815, Note_off_c, 10, 77, 64
11, 1635820, Note_on_c, 10, 77, 92
11, 1635820, Note_on_c, 10, 89, 92
11, 1635895, Note_off_c, 10, 89, 64
11, 1635895, Note_off_c, 10, 77, 64
11, 1635900, Note_on_c, 10, 77, 92
11, 1635900, Note_on_c, 10, 89, 92
11, 1635975, Note_off_c, 10, 89, 64
11, 1635975, Note_off_c, 10, 77, 64
11, 1635980, Note_on_c, 10, 77, 92
11, 1635980, Note_on_c, 10, 89, 92
11, 1636055, Note_off_c, 10, 89, 64
11, 1636055, Note_off_c, 10, 77, 64
11, 1636060, Note_on_c, 10, 77, 92
11, 1636060, Note_on_c, 10, 89, 92
11, 1636135, Note_off_c, 10, 89, 64
11, 1636135, Note_off_c, 10, 77, 64
11, 1636140, Note_on_c, 10, 77, 92
11, 1636140, Note_on_c, 10, 89, 92
11, 1636215, Note_off_c, 10, 89, 64
11, 1636215, Note_off_c, 10, 77, 64
11, 1636220, Note_on_c, 10, 77, 92
11, 1636220, Note_on_c, 10, 89, 92
11, 1636295, Note_off_c, 10, 89, 64
11, 1636295, Note_off_c, 10, 77, 64
11, 1636300, Note_on_c, 10, 77, 92
11, 1636300, Note_on_c, 10, 89, 92
11, 1636375, Note_off_c, 10, 89, 64
11, 1636375, Note_off_c, 10, 77, 64
11, 1636380, Note_on_c, 10, 76, 92
11, 1636380, Note_on_c, 10, 88, 92
11, 1636455, Note_off_c, 10, 88, 64
11, 1636455, Note_off_c, 10, 76, 64
11, 1636460, Note_on_c, 10, 76, 92
11, 1636460, Note_on_c, 10, 88, 92
11, 1636535, Note_off_c, 10, 88, 64
11, 1636535, Note_off_c, 10, 76, 64
11, 1636540, Note_on_c, 10, 76, 92
11, 1636540, Note_on_c, 10, 88, 92
11, 1636615, Note_off_c, 10, 88, 64
11, 1636615, Note_off_c, 10, 76, 64
11, 1636620, Note_on_c, 10, 76, 92
11, 1636620, Note_on_c, 10, 88, 92
11, 1636695, Note_off_c, 10, 88, 64
11, 1636695, Note_off_c, 10, 76, 64
11, 1636700, Note_on_c, 10, 76, 92
11, 1636700, Note_on_c, 10, 88, 92
11, 1636775, Note_off_c, 10, 88, 64
11, 1636775, Note_off_c, 10, 76, 64
11, 1636780, Note_on_c, 10, 76, 92
11, 1636780, Note_on_c, 10, 88, 92
11, 1636855, Note_off_c, 10, 88, 64
11, 1636855, Note_off_c, 10, 76, 64
11, 1636860, Note_on_c, 10, 76, 92
11, 1636860, Note_on_c, 10, 88, 92
11, 1636935, Note_off_c, 10, 88, 64
11, 1636935, Note_off_c, 10, 76, 64
11, 1636940, Note_on_c, 10, 76, 92
11, 1636940, Note_on_c, 10, 88, 92
11, 1637015, Note_off_c, 10, 88, 64
11, 1637015, Note_off_c, 10, 76, 64
11, 1637020, Note_on_c, 10, 76, 92
11, 1637020, Note_on_c, 10, 88, 92
11, 1637095, Note_off_c, 10, 88, 64
11, 1637095, Note_off_c, 10, 76, 64
11, 1637100, Note_on_c, 10, 77, 75
11, 1637100, Note_on_c, 10, 89, 75
11, 1637335, Note_off_c, 10, 89, 64
11, 1637335, Note_off_c, 10, 77, 64
11, 1639740, Note_on_c, 10, 72, 108
11, 1639975, Note_off_c, 10, 72, 64
11, 1639980, Note_on_c, 10, 72, 108
11, 1640220, Note_off_c, 10, 72, 64
11, 1640220, Note_on_c, 10, 77, 108
11, 1640620, Note_off_c, 10, 77, 64
11, 1640700, Note_on_c, 10, 72, 108
11, 1640940, Note_off_c, 10, 72, 64
11, 1640940, Note_on_c, 10, 79, 108
11, 1641340, Note_off_c, 10, 79, 64
11, 1641420, Note_on_c, 10, 72, 108
11, 1641660, Note_off_c, 10, 72, 64
11, 1641660, Note_on_c, 10, 81, 108
11, 1642060, Note_off_c, 10, 81, 64
11, 1642140, Note_on_c, 10, 84, 108
11, 1642380, Note_off_c, 10, 84, 64
11, 1642380, Note_on_c, 10, 82, 108
11, 1642615, Note_off_c, 10, 82, 64
11, 1642620, Note_on_c, 10, 79, 108
11, 1642700, Note_off_c, 10, 79, 64
11, 1642740, Note_on_c, 10, 76, 108
11, 1642820, Note_off_c, 10, 76, 64
11, 1645740, Note_on_c, 10, 74, 108
11, 1645980, Note_off_c, 10, 74, 64
11, 1645980, Note_on_c, 10, 72, 108
11, 1646215, Note_off_c, 10, 72, 64
11, 1646220, Note_on_c, 10, 69, 108
11, 1646300, Note_off_c, 10, 69, 64
11, 1646340, Note_on_c, 10, 65, 108
11, 1646420, Note_off_c, 10, 65, 64
11, 1647180, Note_on_c, 10, 77, 108
11, 1647420, Note_off_c, 10, 77, 64
11, 1647420, Note_on_c, 10, 76, 108
11, 1647655, Note_off_c, 10, 76, 64
11, 1647660, Note_on_c, 10, 72, 108
11, 1647740, Note_off_c, 10, 72, 64
11, 1647780, Note_on_c, 10, 67, 108
11, 1647860, Note_off_c, 10, 67, 64
11, 1648620, Note_on_c, 10, 81, 108
11, 1648860, Note_off_c, 10, 81, 64
11, 1648860, Note_on_c, 10, 79, 109
11, 1649095, Note_off_c, 10, 79, 64
11, 1649100, Note_on_c, 10, 76, 110
11, 1649180, Note_off_c, 10, 76, 64
11, 1649220, Note_on_c, 10, 72, 110
11, 1649300, Note_off_c, 10, 72, 64
11, 1649340, Note_on_c, 10, 82, 110
11, 1649580, Note_off_c, 10, 82, 64
11, 1649580, Note_on_c, 10, 81, 111
11, 1649815, Note_off_c, 10, 81, 64
11, 1649820, Note_on_c, 10, 77, 113
11, 1649900, Note_off_c, 10, 77, 64
11, 1649940, Note_on_c, 10, 72, 114
11, 1650020, Note_off_c, 10, 72, 64
11, 1650060, Note_on_c, 10, 84, 115
11, 1650300, Note_off_c, 10, 84, 64
11, 1650300, Note_on_c, 10, 82, 117
11, 1650535, Note_off_c, 10, 82, 64
11, 1650540, Note_on_c, 10, 79, 119
11, 1650620, Note_off_c, 10, 79, 64
11, 1650660, Note_on_c, 10, 76, 120
11, 1650740, Note_off_c, 10, 76, 64
11, 1650780, Note_on_c, 10, 84, 121
11, 1651020, Note_off_c, 10, 84, 64
11, 1651020, Note_on_c, 10, 83, 123
11, 1651255, Note_off_c, 10, 83, 64
11, 1651260, Note_on_c, 10, 83, 125
11, 1651340, Note_off_c, 10, 83, 64
11, 1651380, Note_on_c, 10, 83, 126
11, 1651460, Note_off_c, 10, 83, 64
11, 1651500, Note_on_c, 10, 86, 127
11, 1651740, Note_off_c, 10, 86, 64
11, 1651740, Note_on_c, 10, 84, 127
11, 1651975, Note_off_c, 10, 84, 64
11, 1651980, Note_on_c, 10, 81, 127
11, 1652060, Note_off_c, 10, 81, 64
11, 1652100, Note_on_c, 10, 77, 127
11, 1652180, Note_off_c, 10, 77, 64
11, 1652220, Note_on_c, 10, 74, 127
11, 1652460, Note_off_c, 10, 74, 64
11, 1652460, Note_on_c, 10, 72, 127
11, 1652695, Note_off_c, 10, 72, 64
11, 1652700, Note_on_c, 10, 69, 127
11, 1652780, Note_off_c, 10, 69, 64
11, 1652820, Note_on_c, 10, 65, 127
11, 1652900, Note_off_c, 10, 65, 64
11, 1652940, Note_on_c, 10, 60, 127
11, 1653340, Note_off_c, 10, 60, 64
11, 1653420, Note_on_c, 10, 81, 127
11, 1653655, Note_off_c, 10, 81, 64
11, 1653660, Note_on_c, 10, 81, 127
11, 1653895, Note_off_c, 10, 81, 64
11, 1653900, Note_on_c, 10, 81, 127
11, 1654135, Note_off_c, 10, 81, 64
11, 1654140, Note_on_c, 10, 81, 127
11, 1654200, Note_off_c, 10, 81, 64
11, 1654200, Note_on_c, 10, 82, 127
11, 1654260, Note_off_c, 10, 82, 64
11, 1654260, Note_on_c, 10, 81, 127
11, 1654320, Note_off_c, 10, 81, 64
11, 1654320, Note_on_c, 10, 82, 127
11, 1654375, Note_off_c, 10, 82, 64
11, 1654380, Note_on_c, 10, 84, 127
11, 1654620, Note_off_c, 10, 84, 64
11, 1654620, Note_on_c, 10, 82, 127
11, 1654855, Note_off_c, 10, 82, 64
11, 1654860, Note_on_c, 10, 79, 127
11, 1654940, Note_off_c, 10, 79, 64
11, 1654980, Note_on_c, 10, 76, 127
11, 1655060, Note_off_c, 10, 76, 64
11, 1655100, Note_on_c, 10, 72, 127
11, 1655340, Note_off_c, 10, 72, 64
11, 1655340, Note_on_c, 10, 70, 127
11, 1655575, Note_off_c, 10, 70, 64
11, 1655580, Note_on_c, 10, 67, 127
11, 1655660, Note_off_c, 10, 67, 64
11, 1655700, Note_on_c, 10, 64, 127
11, 1655780, Note_off_c, 10, 64, 64
11, 1655820, Note_on_c, 10, 60, 127
11, 1656220, Note_off_c, 10, 60, 64
11, 1656300, Note_on_c, 10, 79, 127
11, 1656535, Note_off_c, 10, 79, 64
11, 1656540, Note_on_c, 10, 79, 127
11, 1656775, Note_off_c, 10, 79, 64
11, 1656780, Note_on_c, 10, 79, 127
11, 1657015, Note_off_c, 10, 79, 64
11, 1657020, Note_on_c, 10, 79, 127
11, 1657080, Note_off_c, 10, 79, 64
11, 1657080, Note_on_c, 10, 81, 127
11, 1657140, Note_off_c, 10, 81, 64
11, 1657140, Note_on_c, 10, 79, 127
11, 1657200, Note_off_c, 10, 79, 64
11, 1657200, Note_on_c, 10, 81, 127
11, 1657255, Note_off_c, 10, 81, 64
11, 1657260, Note_on_c, 10, 86, 127
11, 1657380, Note_off_c, 10, 86, 64
11, 1657380, Note_on_c, 10, 84, 127
11, 1657460, Note_off_c, 10, 84, 64
11, 1657500, Note_on_c, 10, 83, 127
11, 1657580, Note_off_c, 10, 83, 64
11, 1657620, Note_on_c, 10, 84, 127
11, 1657700, Note_off_c, 10, 84, 64
11, 1657740, Note_on_c, 10, 81, 127
11, 1657820, Note_off_c, 10, 81, 64
11, 1657860, Note_on_c, 10, 77, 127
11, 1657940, Note_off_c, 10, 77, 64
11, 1657980, Note_on_c, 10, 74, 127
11, 1658100, Note_off_c, 10, 74, 64
11, 1658100, Note_on_c, 10, 72, 127
11, 1658180, Note_off_c, 10, 72, 64
11, 1658220, Note_on_c, 10, 71, 127
11, 1658300, Note_off_c, 10, 71, 64
11, 1658340, Note_on_c, 10, 72, 127
11, 1658420, Note_off_c, 10, 72, 64
11, 1658460, Note_on_c, 10, 69, 127
11, 1658540, Note_off_c, 10, 69, 64
11, 1658580, Note_on_c, 10, 65, 127
11, 1658660, Note_off_c, 10, 65, 64
11, 1658700, Note_on_c, 10, 60, 127
11, 1659100, Note_off_c, 10, 60, 64
11, 1659180, Note_on_c, 10, 81, 127
11, 1659415, Note_off_c, 10, 81, 64
11, 1659420, Note_on_c, 10, 81, 127
11, 1659655, Note_off_c, 10, 81, 64
11, 1659660, Note_on_c, 10, 81, 127
11, 1659895, Note_off_c, 10, 81, 64
11, 1659900, Note_on_c, 10, 81, 127
11, 1659960, Note_off_c, 10, 81, 64
11, 1659960, Note_on_c, 10, 82, 127
11, 1660020, Note_off_c, 10, 82, 64
11, 1660020, Note_on_c, 10, 81, 127
11, 1660080, Note_off_c, 10, 81, 64
11, 1660080, Note_on_c, 10, 82, 127
11, 1660135, Note_off_c, 10, 82, 64
11, 1660140, Note_on_c, 10, 84, 127
11, 1660260, Note_off_c, 10, 84, 64
11, 1660260, Note_on_c, 10, 82, 127
11, 1660340, Note_off_c, 10, 82, 64
11, 1660380, Note_on_c, 10, 81, 127
11, 1660460, Note_off_c, 10, 81, 64
11, 1660500, Note_on_c, 10, 82, 127
11, 1660580, Note_off_c, 10, 82, 64
11, 1660620, Note_on_c, 10, 79, 127
11, 1660700, Note_off_c, 10, 79, 64
11, 1660740, Note_on_c, 10, 76, 127
11, 1660820, Note_off_c, 10, 76, 64
11, 1660860, Note_on_c, 10, 72, 127
11, 1660980, Note_off_c, 10, 72, 64
11, 1660980, Note_on_c, 10, 70, 127
11, 1661060, Note_off_c, 10, 70, 64
11, 1661100, Note_on_c, 10, 69, 127
11, 1661180, Note_off_c, 10, 69, 64
11, 1661220, Note_on_c, 10, 70, 127
11, 1661300, Note_off_c, 10, 70, 64
11, 1661340, Note_on_c, 10, 67, 127
11, 1661420, Note_off_c, 10, 67, 64
11, 1661460, Note_on_c, 10, 64, 127
11, 1661540, Note_off_c, 10, 64, 64
11, 1661580, Note_on_c, 10, 60, 127
11, 1661980, Note_off_c, 10, 60, 64
11, 1662060, Note_on_c, 10, 79, 127
11, 1662295, Note_off_c, 10, 79, 64
11, 1662300, Note_on_c, 10, 79, 127
11, 1662535, Note_off_c, 10, 79, 64
11, 1662540, Note_on_c, 10, 79, 127
11, 1662775, Note_off_c, 10, 79, 64
11, 1662780, Note_on_c, 10, 79, 127
11, 1662840, Note_off_c, 10, 79, 64
11, 1662840, Note_on_c, 10, 81, 127
11, 1662900, Note_off_c, 10, 81, 64
11, 1662900, Note_on_c, 10, 79, 127
11, 1662960, Note_off_c, 10, 79, 64
11, 1662960, Note_on_c, 10, 81, 127
11, 1663015, Note_off_c, 10, 81, 64
11, 1663020, Note_on_c, 10, 69, 127
11, 1663020, Note_on_c, 10, 81, 127
11, 1663420, Note_off_c, 10, 81, 64
11, 1663420, Note_off_c, 10, 69, 64
11, 1663740, Note_on_c, 10, 70, 45
11, 1663980, Note_off_c, 10, 70, 64
11, 1663980, Note_on_c, 10, 69, 45
11, 1664220, Note_off_c, 10, 69, 64
11, 1664220, Note_on_c, 10, 74, 45
11, 1664455, Note_off_c, 10, 74, 64
11, 1664460, Note_on_c, 10, 72, 45
11, 1664700, Note_off_c, 10, 72, 64
11, 1664700, Note_on_c, 10, 76, 66
11, 1664940, Note_off_c, 10, 76, 64
11, 1664940, Note_on_c, 10, 77, 87
11, 1665175, Note_off_c, 10, 77, 64
11, 1665180, Note_on_c, 10, 72, 108
11, 1665180, Note_on_c, 10, 79, 108
11, 1665580, Note_off_c, 10, 79, 64
11, 1665580, Note_off_c, 10, 72, 64
11, 1665660, Note_on_c, 10, 72, 108
11, 1665660, Note_on_c, 10, 79, 108
11, 1665895, Note_off_c, 10, 79, 64
11, 1665895, Note_off_c, 10, 72, 64
11, 1665900, Note_on_c, 10, 72, 108
11, 1665900, Note_on_c, 10, 81, 108
11, 1666300, Note_off_c, 10, 81, 64
11, 1666300, Note_off_c, 10, 72, 64
11, 1666380, Note_on_c, 10, 69, 45
11, 1666620, Note_off_c, 10, 69, 64
11, 1666620, Note_on_c, 10, 70, 45
11, 1666860, Note_off_c, 10, 70, 64
11, 1666860, Note_on_c, 10, 69, 45
11, 1667100, Note_off_c, 10, 69, 64
11, 1667100, Note_on_c, 10, 74, 45
11, 1667335, Note_off_c, 10, 74, 64
11, 1667340, Note_on_c, 10, 72, 45
11, 1667580, Note_off_c, 10, 72, 64
11, 1667580, Note_on_c, 10, 76, 66
11, 1667820, Note_off_c, 10, 76, 64
11, 1667820, Note_on_c, 10, 77, 87
11, 1668055, Note_off_c, 10, 77, 64
11, 1668060, Note_on_c, 10, 72, 108
11, 1668060, Note_on_c, 10, 79, 108
11, 1668460, Note_off_c, 10, 79, 64
11, 1668460, Note_off_c, 10, 72, 64
11, 1668540, Note_on_c, 10, 72, 108
11, 1668540, Note_on_c, 10, 79, 108
11, 1668775, Note_off_c, 10, 79, 64
11, 1668775, Note_off_c, 10, 72, 64
11, 1668780, Note_on_c, 10, 65, 108
11, 1668780, Note_on_c, 10, 72, 108
11, 1668780, Note_on_c, 10, 81, 108
11, 1669500, Note_off_c, 10, 81, 64
11, 1669500, Note_off_c, 10, 72, 64
11, 1669500, Note_off_c, 10, 65, 64
11, 1669500, Note_on_c, 10, 69, 108
11, 1669500, Note_on_c, 10, 77, 108
11, 1669735, Note_off_c, 10, 77, 64
11, 1669735, Note_off_c, 10, 69, 64
11, 1669980, Note_on_c, 10, 69, 108
11, 1669980, Note_on_c, 10, 84, 108
11, 1670215, Note_off_c, 10, 84, 64
11, 1670215, Note_off_c, 10, 69, 64
11, 1670220, Note_on_c, 10, 62, 108
11, 1670220, Note_on_c, 10, 74, 108
11, 1670220, Note_on_c, 10, 82, 108
11, 1670940, Note_off_c, 10, 82, 64
11, 1670940, Note_off_c, 10, 74, 64
11, 1670940, Note_off_c, 10, 62, 64
11, 1670940, Note_on_c, 10, 79, 108
11, 1671175, Note_off_c, 10, 79, 64
11, 1671420, Note_on_c, 10, 86, 108
11, 1671655, Note_off_c, 10, 86, 64
11, 1671660, Program_c, 10, 48
11, 1671660, Note_on_c, 10, 81, 92
11, 1672620, Note_off_c, 10, 81, 64
11, 1672620, Note_on_c, 10, 77, 92
11, 1672860, Note_off_c, 10, 77, 64
11, 1672860, Note_on_c, 10, 84, 92
11, 1673100, Note_off_c, 10, 84, 64
11, 1673100, Note_on_c, 10, 81, 75
11, 1673340, Note_off_c, 10, 81, 64
11, 1673340, Note_on_c, 10, 77, 75
11, 1673580, Note_off_c, 10, 77, 64
11, 1673580, Note_on_c, 10, 84, 75
11, 1673820, Note_off_c, 10, 84, 64
11, 1673820, Note_on_c, 10, 77, 75
11, 1674060, Note_off_c, 10, 77, 64
11, 1674060, Note_on_c, 10, 72, 75
11, 1674300, Note_off_c, 10, 72, 64
11, 1674300, Note_on_c, 10, 81, 75
11, 1674540, Note_off_c, 10, 81, 64
11, 1674540, Note_on_c, 10, 77, 60
11, 1674780, Note_off_c, 10, 77, 64
11, 1674780, Note_on_c, 10, 72, 60
11, 1675020, Note_off_c, 10, 72, 64
11, 1675020, Note_on_c, 10, 81, 60
11, 1675260, Note_off_c, 10, 81, 64
11, 1675260, Note_on_c, 10, 72, 60
11, 1675500, Note_off_c, 10, 72, 64
11, 1675500, Note_on_c, 10, 69, 60
11, 1675740, Note_off_c, 10, 69, 64
11, 1675740, Note_on_c, 10, 77, 60
11, 1675980, Note_off_c, 10, 77, 64
11, 1675980, Note_on_c, 10, 72, 60
11, 1676220, Note_off_c, 10, 72, 64
11, 1676220, Note_on_c, 10, 69, 60
11, 1676460, Note_off_c, 10, 69, 64
11, 1676460, Note_on_c, 10, 77, 60
11, 1676700, Note_off_c, 10, 77, 64
11, 1676700, Note_on_c, 10, 74, 60
11, 1676940, Note_off_c, 10, 74, 64
11, 1676940, Note_on_c, 10, 71, 60
11, 1677180, Note_off_c, 10, 71, 64
11, 1677180, Note_on_c, 10, 77, 60
11, 1677420, Note_off_c, 10, 77, 64
11, 1677420, Note_on_c, 10, 74, 60
11, 1677660, Note_off_c, 10, 74, 64
11, 1677660, Note_on_c, 10, 71, 60
11, 1677900, Note_off_c, 10, 71, 64
11, 1677900, Note_on_c, 10, 77, 60
11, 1678140, Note_off_c, 10, 77, 64
11, 1678140, Note_on_c, 10, 74, 60
11, 1678380, Note_off_c, 10, 74, 64
11, 1678380, Note_on_c, 10, 71, 60
11, 1678620, Note_off_c, 10, 71, 64
11, 1678620, Note_on_c, 10, 77, 60
11, 1678860, Note_off_c, 10, 77, 64
11, 1678860, Note_on_c, 10, 74, 60
11, 1678980, Note_off_c, 10, 74, 64
11, 1678980, Note_on_c, 10, 71, 60
11, 1679100, Note_off_c, 10, 71, 64
11, 1679100, Note_on_c, 10, 79, 60
11, 1679220, Note_off_c, 10, 79, 64
11, 1679220, Note_on_c, 10, 77, 60
11, 1679340, Note_off_c, 10, 77, 64
11, 1679340, Note_on_c, 10, 74, 60
11, 1679460, Note_off_c, 10, 74, 64
11, 1679460, Note_on_c, 10, 71, 60
11, 1679575, Note_off_c, 10, 71, 64
11, 1679700, Note_on_c, 10, 71, 60
11, 1679820, Note_off_c, 10, 71, 64
11, 1679820, Note_on_c, 10, 79, 60
11, 1679940, Note_off_c, 10, 79, 64
11, 1679940, Note_on_c, 10, 77, 60
11, 1680060, Note_off_c, 10, 77, 64
11, 1680060, Note_on_c, 10, 74, 60
11, 1680180, Note_off_c, 10, 74, 64
11, 1680180, Note_on_c, 10, 71, 60
11, 1680295, Note_off_c, 10, 71, 64
11, 1680420, Note_on_c, 10, 71, 60
11, 1680540, Note_off_c, 10, 71, 64
11, 1680540, Note_on_c, 10, 79, 60
11, 1680660, Note_off_c, 10, 79, 64
11, 1680660, Note_on_c, 10, 77, 60
11, 1680780, Note_off_c, 10, 77, 64
11, 1680780, Note_on_c, 10, 74, 60
11, 1680900, Note_off_c, 10, 74, 64
11, 1680900, Note_on_c, 10, 71, 60
11, 1681015, Note_off_c, 10, 71, 64
11, 1681140, Note_on_c, 10, 71, 60
11, 1681260, Note_off_c, 10, 71, 64
11, 1681260, Note_on_c, 10, 79, 60
11, 1681380, Note_off_c, 10, 79, 64
11, 1681380, Note_on_c, 10, 77, 60
11, 1681500, Note_off_c, 10, 77, 64
11, 1681500, Note_on_c, 10, 74, 60
11, 1681620, Note_off_c, 10, 74, 64
11, 1681620, Note_on_c, 10, 71, 60
11, 1681735, Note_off_c, 10, 71, 64
11, 1681860, Note_on_c, 10, 71, 61
11, 1681980, Note_off_c, 10, 71, 64
11, 1681980, Note_on_c, 10, 79, 61
11, 1682100, Note_off_c, 10, 79, 64
11, 1682100, Note_on_c, 10, 77, 62
11, 1682220, Note_off_c, 10, 77, 64
11, 1682220, Note_on_c, 10, 74, 63
11, 1682340, Note_off_c, 10, 74, 64
11, 1682340, Note_on_c, 10, 71, 64
11, 1682455, Note_off_c, 10, 71, 64
11, 1682580, Note_on_c, 10, 71, 66
11, 1682700, Note_off_c, 10, 71, 64
11, 1682700, Note_on_c, 10, 79, 67
11, 1682820, Note_off_c, 10, 79, 64
11, 1682820, Note_on_c, 10, 77, 68
11, 1682940, Note_off_c, 10, 77, 64
11, 1682940, Note_on_c, 10, 74, 69
11, 1683060, Note_off_c, 10, 74, 64
11, 1683060, Note_on_c, 10, 71, 70
11, 1683175, Note_off_c, 10, 71, 64
11, 1683300, Note_on_c, 10, 71, 72
11, 1683420, Note_off_c, 10, 71, 64
11, 1683420, Note_on_c, 10, 79, 73
11, 1683540, Note_off_c, 10, 79, 64
11, 1683540, Note_on_c, 10, 77, 74
11, 1683660, Note_off_c, 10, 77, 64
11, 1683660, Note_on_c, 10, 74, 75
11, 1683780, Note_off_c, 10, 74, 64
11, 1683780, Note_on_c, 10, 71, 76
11, 1683895, Note_off_c, 10, 71, 64
11, 1684020, Note_on_c, 10, 71, 78
11, 1684140, Note_off_c, 10, 71, 64
11, 1684140, Note_on_c, 10, 79, 79
11, 1684260, Note_off_c, 10, 79, 64
11, 1684260, Note_on_c, 10, 77, 80
11, 1684380, Note_off_c, 10, 77, 64
11, 1684380, Note_on_c, 10, 74, 81
11, 1684500, Note_off_c, 10, 74, 64
11, 1684500, Note_on_c, 10, 71, 82
11, 1684615, Note_off_c, 10, 71, 64
11, 1684740, Note_on_c, 10, 70, 84
11, 1684860, Note_off_c, 10, 70, 64
11, 1684860, Note_on_c, 10, 79, 85
11, 1684980, Note_off_c, 10, 79, 64
11, 1684980, Note_on_c, 10, 76, 86
11, 1685100, Note_off_c, 10, 76, 64
11, 1685100, Note_on_c, 10, 72, 87
11, 1685220, Note_off_c, 10, 72, 64
11, 1685220, Note_on_c, 10, 70, 88
11, 1685335, Note_off_c, 10, 70, 64
11, 1685460, Note_on_c, 10, 70, 90
11, 1685580, Note_off_c, 10, 70, 64
11, 1685580, Note_on_c, 10, 79, 91
11, 1685700, Note_off_c, 10, 79, 64
11, 1685700, Note_on_c, 10, 76, 92
11, 1685820, Note_off_c, 10, 76, 64
11, 1685820, Note_on_c, 10, 72, 93
11, 1685940, Note_off_c, 10, 72, 64
11, 1685940, Note_on_c, 10, 70, 94
11, 1686055, Note_off_c, 10, 70, 64
11, 1686180, Note_on_c, 10, 70, 96
11, 1686300, Note_off_c, 10, 70, 64
11, 1686300, Note_on_c, 10, 79, 97
11, 1686420, Note_off_c, 10, 79, 64
11, 1686420, Note_on_c, 10, 76, 98
11, 1686540, Note_off_c, 10, 76, 64
11, 1686540, Note_on_c, 10, 72, 99
11, 1686660, Note_off_c, 10, 72, 64
11, 1686660, Note_on_c, 10, 70, 100
11, 1686775, Note_off_c, 10, 70, 64
11, 1686900, Note_on_c, 10, 70, 102
11, 1687020, Note_off_c, 10, 70, 64
11, 1687020, Note_on_c, 10, 79, 103
11, 1687140, Note_off_c, 10, 79, 64
11, 1687140, Note_on_c, 10, 76, 104
11, 1687260, Note_off_c, 10, 76, 64
11, 1687260, Note_on_c, 10, 72, 105
11, 1687380, Note_off_c, 10, 72, 64
11, 1687380, Note_on_c, 10, 70, 106
11, 1687495, Note_off_c, 10, 70, 64
11, 1687500, Note_on_c, 10, 82, 108
11, 1687620, Note_off_c, 10, 82, 64
11, 1687620, Note_on_c, 10, 79, 108
11, 1687740, Note_off_c, 10, 79, 64
11, 1687740, Note_on_c, 10, 76, 108
11, 1687860, Note_off_c, 10, 76, 64
11, 1687860, Note_on_c, 10, 70, 108
11, 1687975, Note_off_c, 10, 70, 64
11, 1687980, Note_on_c, 10, 82, 108
11, 1688100, Note_off_c, 10, 82, 64
11, 1688100, Note_on_c, 10, 79, 108
11, 1688220, Note_off_c, 10, 79, 64
11, 1688220, Note_on_c, 10, 76, 108
11, 1688340, Note_off_c, 10, 76, 64
11, 1688340, Note_on_c, 10, 70, 108
11, 1688455, Note_off_c, 10, 70, 64
11, 1688460, Note_on_c, 10, 82, 108
11, 1688580, Note_off_c, 10, 82, 64
11, 1688580, Note_on_c, 10, 79, 108
11, 1688700, Note_off_c, 10, 79, 64
11, 1688700, Note_on_c, 10, 76, 108
11, 1688820, Note_off_c, 10, 76, 64
11, 1688820, Note_on_c, 10, 70, 108
11, 1688935, Note_off_c, 10, 70, 64
11, 1688940, Note_on_c, 10, 82, 108
11, 1689060, Note_off_c, 10, 82, 64
11, 1689060, Note_on_c, 10, 79, 108
11, 1689180, Note_off_c, 10, 79, 64
11, 1689180, Note_on_c, 10, 76, 108
11, 1689300, Note_off_c, 10, 76, 64
11, 1689300, Note_on_c, 10, 70, 108
11, 1689415, Note_off_c, 10, 70, 64
11, 1689420, Note_on_c, 10, 82, 108
11, 1689540, Note_off_c, 10, 82, 64
11, 1689540, Note_on_c, 10, 79, 108
11, 1689660, Note_off_c, 10, 79, 64
11, 1689660, Note_on_c, 10, 76, 108
11, 1689780, Note_off_c, 10, 76, 64
11, 1689780, Note_on_c, 10, 70, 108
11, 1689895, Note_off_c, 10, 70, 64
11, 1689900, Note_on_c, 10, 82, 108
11, 1690020, Note_off_c, 10, 82, 64
11, 1690020, Note_on_c, 10, 79, 108
11, 1690140, Note_off_c, 10, 79, 64
11, 1690140, Note_on_c, 10, 76, 108
11, 1690260, Note_off_c, 10, 76, 64
11, 1690260, Note_on_c, 10, 72, 108
11, 1690375, Note_off_c, 10, 72, 64
11, 1690380, Note_on_c, 10, 72, 92
11, 1690380, Note_on_c, 10, 81, 92
11, 1690615, Note_off_c, 10, 81, 64
11, 1690615, Note_off_c, 10, 72, 64
11, 1704780, Note_on_c, 10, 72, 45
11, 1705020, Note_off_c, 10, 72, 64
11, 1705020, Note_on_c, 10, 78, 47
11, 1705500, Note_off_c, 10, 78, 64
11, 1705500, Note_on_c, 10, 81, 52
11, 1705740, Note_off_c, 10, 81, 64
11, 1705740, Note_on_c, 10, 84, 54
11, 1706220, Note_off_c, 10, 84, 64
11, 1706220, Note_on_c, 10, 81, 59
11, 1706455, Note_off_c, 10, 81, 64
11, 1706460, Note_on_c, 10, 82, 61
11, 1707580, Note_off_c, 10, 82, 64
11, 1707660, Note_on_c, 10, 72, 73
11, 1707900, Note_off_c, 10, 72, 64
11, 1707900, Note_on_c, 10, 76, 75
11, 1708380, Note_off_c, 10, 76, 64
11, 1708380, Note_on_c, 10, 79, 80
11, 1708620, Note_off_c, 10, 79, 64
11, 1708620, Note_on_c, 10, 82, 83
11, 1709100, Note_off_c, 10, 82, 64
11, 1709100, Note_on_c, 10, 79, 89
11, 1709335, Note_off_c, 10, 79, 64
11, 1709340, Note_on_c, 10, 81, 92
11, 1709415, Note_off_c, 10, 81, 64
11, 1709420, Note_on_c, 10, 81, 92
11, 1709495, Note_off_c, 10, 81, 64
11, 1709500, Note_on_c, 10, 81, 92
11, 1709575, Note_off_c, 10, 81, 64
11, 1709580, Note_on_c, 10, 81, 92
11, 1709655, Note_off_c, 10, 81, 64
11, 1709660, Note_on_c, 10, 81, 92
11, 1709735, Note_off_c, 10, 81, 64
11, 1709740, Note_on_c, 10, 81, 92
11, 1709815, Note_off_c, 10, 81, 64
11, 1709820, Note_on_c, 10, 84, 92
11, 1709895, Note_off_c, 10, 84, 64
11, 1709900, Note_on_c, 10, 84, 92
11, 1709975, Note_off_c, 10, 84, 64
11, 1709980, Note_on_c, 10, 84, 92
11, 1710055, Note_off_c, 10, 84, 64
11, 1710060, Note_on_c, 10, 89, 92
11, 1710135, Note_off_c, 10, 89, 64
11, 1710140, Note_on_c, 10, 89, 92
11, 1710215, Note_off_c, 10, 89, 64
11, 1710220, Note_on_c, 10, 89, 92
11, 1710295, Note_off_c, 10, 89, 64
11, 1710300, Note_on_c, 10, 89, 92
11, 1710375, Note_off_c, 10, 89, 64
11, 1710380, Note_on_c, 10, 89, 92
11, 1710455, Note_off_c, 10, 89, 64
11, 1710460, Note_on_c, 10, 89, 92
11, 1710535, Note_off_c, 10, 89, 64
11, 1710540, Note_on_c, 10, 89, 92
11, 1710615, Note_off_c, 10, 89, 64
11, 1710620, Note_on_c, 10, 89, 92
11, 1710695, Note_off_c, 10, 89, 64
11, 1710700, Note_on_c, 10, 89, 92
11, 1710775, Note_off_c, 10, 89, 64
11, 1710780, Note_on_c, 10, 89, 92
11, 1710855, Note_off_c, 10, 89, 64
11, 1710860, Note_on_c, 10, 89, 92
11, 1710935, Note_off_c, 10, 89, 64
11, 1710940, Note_on_c, 10, 89, 92
11, 1711015, Note_off_c, 10, 89, 64
11, 1711020, Note_on_c, 10, 89, 92
11, 1711095, Note_off_c, 10, 89, 64
11, 1711100, Note_on_c, 10, 89, 92
11, 1711175, Note_off_c, 10, 89, 64
11, 1711180, Note_on_c, 10, 89, 92
11, 1711255, Note_off_c, 10, 89, 64
11, 1711260, Note_on_c, 10, 89, 92
11, 1711335, Note_off_c, 10, 89, 64
11, 1711340, Note_on_c, 10, 89, 92
11, 1711415, Note_off_c, 10, 89, 64
11, 1711420, Note_on_c, 10, 89, 92
11, 1711495, Note_off_c, 10, 89, 64
11, 1711500, Note_on_c, 10, 89, 92
11, 1711575, Note_off_c, 10, 89, 64
11, 1711580, Note_on_c, 10, 89, 92
11, 1711655, Note_off_c, 10, 89, 64
11, 1711660, Note_on_c, 10, 89, 92
11, 1711735, Note_off_c, 10, 89, 64
11, 1711740, Note_on_c, 10, 89, 92
11, 1711815, Note_off_c, 10, 89, 64
11, 1711820, Note_on_c, 10, 89, 92
11, 1711895, Note_off_c, 10, 89, 64
11, 1711900, Note_on_c, 10, 89, 92
11, 1711975, Note_off_c, 10, 89, 64
11, 1711980, Note_on_c, 10, 89, 92
11, 1712055, Note_off_c, 10, 89, 64
11, 1712060, Note_on_c, 10, 89, 92
11, 1712135, Note_off_c, 10, 89, 64
11, 1712140, Note_on_c, 10, 89, 92
11, 1712215, Note_off_c, 10, 89, 64
11, 1712220, Note_on_c, 10, 81, 92
11, 1712295, Note_off_c, 10, 81, 64
11, 1712300, Note_on_c, 10, 81, 92
11, 1712375, Note_off_c, 10, 81, 64
11, 1712380, Note_on_c, 10, 81, 92
11, 1712455, Note_off_c, 10, 81, 64
11, 1712460, Note_on_c, 10, 81, 92
11, 1712535, Note_off_c, 10, 81, 64
11, 1712540, Note_on_c, 10, 81, 92
11, 1712615, Note_off_c, 10, 81, 64
11, 1712620, Note_on_c, 10, 81, 92
11, 1712695, Note_off_c, 10, 81, 64
11, 1712700, Note_on_c, 10, 86, 92
11, 1712775, Note_off_c, 10, 86, 64
11, 1712780, Note_on_c, 10, 86, 92
11, 1712855, Note_off_c, 10, 86, 64
11, 1712860, Note_on_c, 10, 86, 92
11, 1712935, Note_off_c, 10, 86, 64
11, 1712940, Note_on_c, 10, 89, 92
11, 1713015, Note_off_c, 10, 89, 64
11, 1713020, Note_on_c, 10, 89, 92
11, 1713095, Note_off_c, 10, 89, 64
11, 1713100, Note_on_c, 10, 89, 92
11, 1713175, Note_off_c, 10, 89, 64
11, 1713180, Note_on_c, 10, 89, 92
11, 1713255, Note_off_c, 10, 89, 64
11, 1713260, Note_on_c, 10, 89, 92
11, 1713335, Note_off_c, 10, 89, 64
11, 1713340, Note_on_c, 10, 89, 92
11, 1713415, Note_off_c, 10, 89, 64
11, 1713420, Note_on_c, 10, 89, 92
11, 1713495, Note_off_c, 10, 89, 64
11, 1713500, Note_on_c, 10, 89, 92
11, 1713575, Note_off_c, 10, 89, 64
11, 1713580, Note_on_c, 10, 89, 92
11, 1713655, Note_off_c, 10, 89, 64
11, 1713660, Note_on_c, 10, 89, 92
11, 1713735, Note_off_c, 10, 89, 64
11, 1713740, Note_on_c, 10, 89, 92
11, 1713815, Note_off_c, 10, 89, 64
11, 1713820, Note_on_c, 10, 89, 92
11, 1713895, Note_off_c, 10, 89, 64
11, 1713900, Note_on_c, 10, 89, 92
11, 1713975, Note_off_c, 10, 89, 64
11, 1713980, Note_on_c, 10, 89, 92
11, 1714055, Note_off_c, 10, 89, 64
11, 1714060, Note_on_c, 10, 89, 92
11, 1714135, Note_off_c, 10, 89, 64
11, 1714140, Note_on_c, 10, 89, 92
11, 1714215, Note_off_c, 10, 89, 64
11, 1714220, Note_on_c, 10, 89, 92
11, 1714295, Note_off_c, 10, 89, 64
11, 1714300, Note_on_c, 10, 89, 92
11, 1714375, Note_off_c, 10, 89, 64
11, 1714380, Note_on_c, 10, 89, 92
11, 1714455, Note_off_c, 10, 89, 64
11, 1714460, Note_on_c, 10, 89, 92
11, 1714535, Note_off_c, 10, 89, 64
11, 1714540, Note_on_c, 10, 89, 92
11, 1714615, Note_off_c, 10, 89, 64
11, 1714620, Note_on_c, 10, 89, 92
11, 1714695, Note_off_c, 10, 89, 64
11, 1714700, Note_on_c, 10, 89, 92
11, 1714775, Note_off_c, 10, 89, 64
11, 1714780, Note_on_c, 10, 89, 92
11, 1714855, Note_off_c, 10, 89, 64
11, 1714860, Note_on_c, 10, 89, 92
11, 1714935, Note_off_c, 10, 89, 64
11, 1714940, Note_on_c, 10, 89, 92
11, 1715015, Note_off_c, 10, 89, 64
11, 1715020, Note_on_c, 10, 89, 92
11, 1715095, Note_off_c, 10, 89, 64
11, 1715100, Note_on_c, 10, 83, 92
11, 1715175, Note_off_c, 10, 83, 64
11, 1715180, Note_on_c, 10, 83, 92
11, 1715255, Note_off_c, 10, 83, 64
11, 1715260, Note_on_c, 10, 83, 92
11, 1715335, Note_off_c, 10, 83, 64
11, 1715340, Note_on_c, 10, 83, 92
11, 1715415, Note_off_c, 10, 83, 64
11, 1715420, Note_on_c, 10, 83, 92
11, 1715495, Note_off_c, 10, 83, 64
11, 1715500, Note_on_c, 10, 83, 92
11, 1715575, Note_off_c, 10, 83, 64
11, 1715580, Note_on_c, 10, 86, 92
11, 1715655, Note_off_c, 10, 86, 64
11, 1715660, Note_on_c, 10, 86, 92
11, 1715735, Note_off_c, 10, 86, 64
11, 1715740, Note_on_c, 10, 86, 92
11, 1715815, Note_off_c, 10, 86, 64
11, 1715820, Note_on_c, 10, 89, 92
11, 1715895, Note_off_c, 10, 89, 64
11, 1715900, Note_on_c, 10, 89, 92
11, 1715975, Note_off_c, 10, 89, 64
11, 1715980, Note_on_c, 10, 89, 92
11, 1716055, Note_off_c, 10, 89, 64
11, 1716060, Note_on_c, 10, 89, 92
11, 1716135, Note_off_c, 10, 89, 64
11, 1716140, Note_on_c, 10, 89, 92
11, 1716215, Note_off_c, 10, 89, 64
11, 1716220, Note_on_c, 10, 89, 92
11, 1716295, Note_off_c, 10, 89, 64
11, 1716300, Note_on_c, 10, 89, 92
11, 1716375, Note_off_c, 10, 89, 64
11, 1716380, Note_on_c, 10, 89, 92
11, 1716455, Note_off_c, 10, 89, 64
11, 1716460, Note_on_c, 10, 89, 92
11, 1716535, Note_off_c, 10, 89, 64
11, 1716540, Note_on_c, 10, 89, 92
11, 1716615, Note_off_c, 10, 89, 64
11, 1716620, Note_on_c, 10, 89, 92
11, 1716695, Note_off_c, 10, 89, 64
11, 1716700, Note_on_c, 10, 89, 92
11, 1716775, Note_off_c, 10, 89, 64
11, 1716780, Note_on_c, 10, 89, 92
11, 1716855, Note_off_c, 10, 89, 64
11, 1716860, Note_on_c, 10, 89, 92
11, 1716935, Note_off_c, 10, 89, 64
11, 1716940, Note_on_c, 10, 89, 92
11, 1717015, Note_off_c, 10, 89, 64
11, 1717020, Note_on_c, 10, 89, 92
11, 1717095, Note_off_c, 10, 89, 64
11, 1717100, Note_on_c, 10, 89, 92
11, 1717175, Note_off_c, 10, 89, 64
11, 1717180, Note_on_c, 10, 89, 92
11, 1717255, Note_off_c, 10, 89, 64
11, 1717260, Note_on_c, 10, 89, 92
11, 1717335, Note_off_c, 10, 89, 64
11, 1717340, Note_on_c, 10, 89, 92
11, 1717415, Note_off_c, 10, 89, 64
11, 1717420, Note_on_c, 10, 89, 92
11, 1717495, Note_off_c, 10, 89, 64
11, 1717500, Note_on_c, 10, 89, 92
11, 1717575, Note_off_c, 10, 89, 64
11, 1717580, Note_on_c, 10, 89, 92
11, 1717655, Note_off_c, 10, 89, 64
11, 1717660, Note_on_c, 10, 89, 92
11, 1717735, Note_off_c, 10, 89, 64
11, 1717740, Note_on_c, 10, 89, 92
11, 1717815, Note_off_c, 10, 89, 64
11, 1717820, Note_on_c, 10, 89, 92
11, 1717895, Note_off_c, 10, 89, 64
11, 1717900, Note_on_c, 10, 89, 92
11, 1717975, Note_off_c, 10, 89, 64
11, 1717980, Note_on_c, 10, 71, 60
11, 1718700, Note_off_c, 10, 71, 64
11, 1718700, Note_on_c, 10, 67, 60
11, 1719180, Note_off_c, 10, 67, 64
11, 1719180, Note_on_c, 10, 74, 60
11, 1719415, Note_off_c, 10, 74, 64
11, 1719420, Note_on_c, 10, 71, 60
11, 1720140, Note_off_c, 10, 71, 64
11, 1720140, Note_on_c, 10, 67, 60
11, 1720620, Note_off_c, 10, 67, 64
11, 1720620, Note_on_c, 10, 77, 60
11, 1720855, Note_off_c, 10, 77, 64
11, 1720860, Note_on_c, 10, 74, 60
11, 1721100, Note_off_c, 10, 74, 64
11, 1721100, Note_on_c, 10, 71, 61
11, 1721340, Note_off_c, 10, 71, 64
11, 1721340, Note_on_c, 10, 83, 62
11, 1721580, Note_off_c, 10, 83, 64
11, 1721580, Note_on_c, 10, 77, 63
11, 1721820, Note_off_c, 10, 77, 64
11, 1721820, Note_on_c, 10, 74, 64
11, 1722060, Note_off_c, 10, 74, 64
11, 1722060, Note_on_c, 10, 86, 65
11, 1722300, Note_off_c, 10, 86, 64
11, 1722300, Note_on_c, 10, 83, 66
11, 1722540, Note_off_c, 10, 83, 64
11, 1722540, Note_on_c, 10, 79, 67
11, 1722780, Note_off_c, 10, 79, 64
11, 1722780, Note_on_c, 10, 86, 68
11, 1723020, Note_off_c, 10, 86, 64
11, 1723020, Note_on_c, 10, 83, 69
11, 1723260, Note_off_c, 10, 83, 64
11, 1723260, Note_on_c, 10, 79, 70
11, 1723500, Note_off_c, 10, 79, 64
11, 1723500, Note_on_c, 10, 86, 71
11, 1723740, Note_off_c, 10, 86, 64
11, 1723740, Note_on_c, 10, 88, 72
11, 1723980, Note_off_c, 10, 88, 64
11, 1723980, Note_on_c, 10, 84, 73
11, 1724220, Note_off_c, 10, 84, 64
11, 1724220, Note_on_c, 10, 88, 74
11, 1724460, Note_off_c, 10, 88, 64
11, 1724460, Note_on_c, 10, 84, 75
11, 1724700, Note_off_c, 10, 84, 64
11, 1724700, Note_on_c, 10, 79, 76
11, 1724940, Note_off_c, 10, 79, 64
11, 1724940, Note_on_c, 10, 84, 77
11, 1725180, Note_off_c, 10, 84, 64
11, 1725180, Note_on_c, 10, 79, 78
11, 1725420, Note_off_c, 10, 79, 64
11, 1725420, Note_on_c, 10, 76, 79
11, 1725660, Note_off_c, 10, 76, 64
11, 1725660, Note_on_c, 10, 79, 80
11, 1725900, Note_off_c, 10, 79, 64
11, 1725900, Note_on_c, 10, 76, 81
11, 1726140, Note_off_c, 10, 76, 64
11, 1726140, Note_on_c, 10, 72, 82
11, 1726380, Note_off_c, 10, 72, 64
11, 1726380, Note_on_c, 10, 76, 84
11, 1726620, Note_off_c, 10, 76, 64
11, 1726620, Note_on_c, 10, 72, 86
11, 1726860, Note_off_c, 10, 72, 64
11, 1726860, Note_on_c, 10, 70, 88
11, 1727100, Note_off_c, 10, 70, 64
11, 1727100, Note_on_c, 10, 72, 90
11, 1727340, Note_off_c, 10, 72, 64
11, 1727340, Note_on_c, 10, 70, 92
11, 1727580, Note_off_c, 10, 70, 64
11, 1727580, Note_on_c, 10, 67, 94
11, 1727820, Note_off_c, 10, 67, 64
11, 1727820, Note_on_c, 10, 70, 96
11, 1728060, Note_off_c, 10, 70, 64
11, 1728060, Note_on_c, 10, 67, 98
11, 1728300, Note_off_c, 10, 67, 64
11, 1728300, Note_on_c, 10, 64, 100
11, 1728540, Note_off_c, 10, 64, 64
11, 1728540, Note_on_c, 10, 67, 102
11, 1728780, Note_off_c, 10, 67, 64
11, 1728780, Note_on_c, 10, 64, 104
11, 1729020, Note_off_c, 10, 64, 64
11, 1729020, Note_on_c, 10, 60, 106
11, 1729255, Note_off_c, 10, 60, 64
11, 1729260, Note_on_c, 10, 64, 108
11, 1729380, Note_off_c, 10, 64, 64
11, 1729380, Note_on_c, 10, 60, 108
11, 1729495, Note_off_c, 10, 60, 64
11, 1729500, Note_on_c, 10, 58, 108
11, 1729620, Note_off_c, 10, 58, 64
11, 1729620, Note_on_c, 10, 60, 108
11, 1729740, Note_off_c, 10, 60, 64
11, 1729740, Note_on_c, 10, 64, 108
11, 1729860, Note_off_c, 10, 64, 64
11, 1729860, Note_on_c, 10, 67, 108
11, 1729980, Note_off_c, 10, 67, 64
11, 1729980, Note_on_c, 10, 70, 108
11, 1730100, Note_off_c, 10, 70, 64
11, 1730100, Note_on_c, 10, 67, 108
11, 1730215, Note_off_c, 10, 67, 64
11, 1730220, Note_on_c, 10, 64, 108
11, 1730340, Note_off_c, 10, 64, 64
11, 1730340, Note_on_c, 10, 67, 108
11, 1730460, Note_off_c, 10, 67, 64
11, 1730460, Note_on_c, 10, 70, 108
11, 1730580, Note_off_c, 10, 70, 64
11, 1730580, Note_on_c, 10, 72, 108
11, 1730700, Note_off_c, 10, 72, 64
11, 1730700, Note_on_c, 10, 76, 108
11, 1730820, Note_off_c, 10, 76, 64
11, 1730820, Note_on_c, 10, 72, 108
11, 1730935, Note_off_c, 10, 72, 64
11, 1730940, Note_on_c, 10, 70, 108
11, 1731060, Note_off_c, 10, 70, 64
11, 1731060, Note_on_c, 10, 72, 108
11, 1731180, Note_off_c, 10, 72, 64
11, 1731180, Note_on_c, 10, 76, 108
11, 1731300, Note_off_c, 10, 76, 64
11, 1731300, Note_on_c, 10, 79, 108
11, 1731420, Note_off_c, 10, 79, 64
11, 1731420, Note_on_c, 10, 82, 108
11, 1731540, Note_off_c, 10, 82, 64
11, 1731540, Note_on_c, 10, 79, 108
11, 1731655, Note_off_c, 10, 79, 64
11, 1731660, Note_on_c, 10, 82, 108
11, 1731780, Note_off_c, 10, 82, 64
11, 1731780, Note_on_c, 10, 79, 108
11, 1731900, Note_off_c, 10, 79, 64
11, 1731900, Note_on_c, 10, 82, 108
11, 1732020, Note_off_c, 10, 82, 64
11, 1732020, Note_on_c, 10, 79, 108
11, 1732140, Note_off_c, 10, 79, 64
11, 1732140, Note_on_c, 10, 82, 108
11, 1732260, Note_off_c, 10, 82, 64
11, 1732260, Note_on_c, 10, 79, 108
11, 1732375, Note_off_c, 10, 79, 64
11, 1732380, Note_on_c, 10, 69, 75
11, 1732380, Note_on_c, 10, 81, 75
11, 1732780, Note_off_c, 10, 81, 64
11, 1732780, Note_off_c, 10, 69, 64
11, 1746420, Note_on_c, 10, 72, 75
11, 1746540, Note_off_c, 10, 72, 64
11, 1746540, Note_on_c, 10, 74, 75
11, 1746660, Note_off_c, 10, 74, 64
11, 1746660, Note_on_c, 10, 76, 75
11, 1746780, Note_off_c, 10, 76, 64
11, 1746780, Note_on_c, 10, 78, 75
11, 1746900, Note_off_c, 10, 78, 64
11, 1746900, Note_on_c, 10, 79, 75
11, 1747020, Note_off_c, 10, 79, 64
11, 1747020, Note_on_c, 10, 78, 75
11, 1747140, Note_off_c, 10, 78, 64
11, 1747140, Note_on_c, 10, 76, 75
11, 1747260, Note_off_c, 10, 76, 64
11, 1747260, Note_on_c, 10, 78, 75
11, 1747380, Note_off_c, 10, 78, 64
11, 1747380, Note_on_c, 10, 79, 75
11, 1747500, Note_off_c, 10, 79, 64
11, 1747500, Note_on_c, 10, 81, 75
11, 1747620, Note_off_c, 10, 81, 64
11, 1747620, Note_on_c, 10, 82, 75
11, 1747740, Note_off_c, 10, 82, 64
11, 1747740, Note_on_c, 10, 84, 75
11, 1747860, Note_off_c, 10, 84, 64
11, 1747860, Note_on_c, 10, 82, 75
11, 1747980, Note_off_c, 10, 82, 64
11, 1747980, Note_on_c, 10, 84, 75
11, 1748100, Note_off_c, 10, 84, 64
11, 1748100, Note_on_c, 10, 81, 75
11, 1748220, Note_off_c, 10, 81, 64
11, 1748220, Note_on_c, 10, 82, 75
11, 1748340, Note_off_c, 10, 82, 64
11, 1748340, Note_on_c, 10, 84, 75
11, 1748460, Note_off_c, 10, 84, 64
11, 1748460, Note_on_c, 10, 82, 75
11, 1748580, Note_off_c, 10, 82, 64
11, 1748580, Note_on_c, 10, 81, 75
11, 1748700, Note_off_c, 10, 81, 64
11, 1748700, Note_on_c, 10, 82, 75
11, 1748820, Note_off_c, 10, 82, 64
11, 1748820, Note_on_c, 10, 81, 75
11, 1748940, Note_off_c, 10, 81, 64
11, 1748940, Note_on_c, 10, 79, 75
11, 1749060, Note_off_c, 10, 79, 64
11, 1749060, Note_on_c, 10, 81, 75
11, 1749180, Note_off_c, 10, 81, 64
11, 1749180, Note_on_c, 10, 79, 76
11, 1749300, Note_off_c, 10, 79, 64
11, 1749300, Note_on_c, 10, 77, 77
11, 1749420, Note_off_c, 10, 77, 64
11, 1749420, Note_on_c, 10, 79, 78
11, 1749540, Note_off_c, 10, 79, 64
11, 1749540, Note_on_c, 10, 77, 79
11, 1749660, Note_off_c, 10, 77, 64
11, 1749660, Note_on_c, 10, 76, 80
11, 1749780, Note_off_c, 10, 76, 64
11, 1749780, Note_on_c, 10, 77, 81
11, 1749900, Note_off_c, 10, 77, 64
11, 1749900, Note_on_c, 10, 76, 82
11, 1750020, Note_off_c, 10, 76, 64
11, 1750020, Note_on_c, 10, 74, 83
11, 1750140, Note_off_c, 10, 74, 64
11, 1750140, Note_on_c, 10, 76, 84
11, 1750260, Note_off_c, 10, 76, 64
11, 1750260, Note_on_c, 10, 77, 85
11, 1750380, Note_off_c, 10, 77, 64
11, 1750380, Note_on_c, 10, 79, 86
11, 1750500, Note_off_c, 10, 79, 64
11, 1750500, Note_on_c, 10, 81, 87
11, 1750620, Note_off_c, 10, 81, 64
11, 1750620, Note_on_c, 10, 82, 88
11, 1750740, Note_off_c, 10, 82, 64
11, 1750740, Note_on_c, 10, 84, 89
11, 1750860, Note_off_c, 10, 84, 64
11, 1750860, Note_on_c, 10, 86, 90
11, 1750980, Note_off_c, 10, 86, 64
11, 1750980, Note_on_c, 10, 88, 91
11, 1751095, Note_off_c, 10, 88, 64
11, 1751100, Note_on_c, 10, 89, 92
11, 1751175, Note_off_c, 10, 89, 64
11, 1751180, Note_on_c, 10, 89, 92
11, 1751255, Note_off_c, 10, 89, 64
11, 1751260, Note_on_c, 10, 89, 92
11, 1751335, Note_off_c, 10, 89, 64
11, 1751340, Note_on_c, 10, 89, 92
11, 1751415, Note_off_c, 10, 89, 64
11, 1751420, Note_on_c, 10, 89, 92
11, 1751495, Note_off_c, 10, 89, 64
11, 1751500, Note_on_c, 10, 89, 92
11, 1751575, Note_off_c, 10, 89, 64
11, 1751580, Note_on_c, 10, 89, 92
11, 1751655, Note_off_c, 10, 89, 64
11, 1751660, Note_on_c, 10, 89, 92
11, 1751735, Note_off_c, 10, 89, 64
11, 1751740, Note_on_c, 10, 89, 92
11, 1751815, Note_off_c, 10, 89, 64
11, 1751820, Note_on_c, 10, 89, 92
11, 1751895, Note_off_c, 10, 89, 64
11, 1751900, Note_on_c, 10, 89, 92
11, 1751975, Note_off_c, 10, 89, 64
11, 1751980, Note_on_c, 10, 89, 92
11, 1752055, Note_off_c, 10, 89, 64
11, 1752060, Note_on_c, 10, 89, 92
11, 1752135, Note_off_c, 10, 89, 64
11, 1752140, Note_on_c, 10, 89, 92
11, 1752215, Note_off_c, 10, 89, 64
11, 1752220, Note_on_c, 10, 89, 92
11, 1752295, Note_off_c, 10, 89, 64
11, 1752300, Note_on_c, 10, 89, 92
11, 1752375, Note_off_c, 10, 89, 64
11, 1752380, Note_on_c, 10, 89, 92
11, 1752455, Note_off_c, 10, 89, 64
11, 1752460, Note_on_c, 10, 89, 92
11, 1752535, Note_off_c, 10, 89, 64
11, 1752540, Note_on_c, 10, 89, 92
11, 1752615, Note_off_c, 10, 89, 64
11, 1752620, Note_on_c, 10, 89, 92
11, 1752695, Note_off_c, 10, 89, 64
11, 1752700, Note_on_c, 10, 89, 92
11, 1752775, Note_off_c, 10, 89, 64
11, 1752780, Note_on_c, 10, 89, 92
11, 1752855, Note_off_c, 10, 89, 64
11, 1752860, Note_on_c, 10, 89, 92
11, 1752935, Note_off_c, 10, 89, 64
11, 1752940, Note_on_c, 10, 89, 92
11, 1753015, Note_off_c, 10, 89, 64
11, 1753020, Note_on_c, 10, 89, 92
11, 1753095, Note_off_c, 10, 89, 64
11, 1753100, Note_on_c, 10, 89, 92
11, 1753175, Note_off_c, 10, 89, 64
11, 1753180, Note_on_c, 10, 89, 92
11, 1753255, Note_off_c, 10, 89, 64
11, 1753260, Note_on_c, 10, 89, 92
11, 1753335, Note_off_c, 10, 89, 64
11, 1753340, Note_on_c, 10, 89, 92
11, 1753415, Note_off_c, 10, 89, 64
11, 1753420, Note_on_c, 10, 89, 92
11, 1753495, Note_off_c, 10, 89, 64
11, 1753500, Note_on_c, 10, 89, 92
11, 1753575, Note_off_c, 10, 89, 64
11, 1753580, Note_on_c, 10, 89, 92
11, 1753655, Note_off_c, 10, 89, 64
11, 1753660, Note_on_c, 10, 89, 92
11, 1753735, Note_off_c, 10, 89, 64
11, 1753740, Note_on_c, 10, 89, 92
11, 1753815, Note_off_c, 10, 89, 64
11, 1753820, Note_on_c, 10, 89, 92
11, 1753895, Note_off_c, 10, 89, 64
11, 1753900, Note_on_c, 10, 89, 92
11, 1753975, Note_off_c, 10, 89, 64
11, 1753980, Note_on_c, 10, 89, 92
11, 1754055, Note_off_c, 10, 89, 64
11, 1754060, Note_on_c, 10, 89, 92
11, 1754135, Note_off_c, 10, 89, 64
11, 1754140, Note_on_c, 10, 89, 92
11, 1754215, Note_off_c, 10, 89, 64
11, 1754220, Note_on_c, 10, 89, 92
11, 1754295, Note_off_c, 10, 89, 64
11, 1754300, Note_on_c, 10, 89, 92
11, 1754375, Note_off_c, 10, 89, 64
11, 1754380, Note_on_c, 10, 89, 92
11, 1754455, Note_off_c, 10, 89, 64
11, 1754460, Note_on_c, 10, 89, 92
11, 1754535, Note_off_c, 10, 89, 64
11, 1754540, Note_on_c, 10, 89, 92
11, 1754615, Note_off_c, 10, 89, 64
11, 1754620, Note_on_c, 10, 89, 92
11, 1754695, Note_off_c, 10, 89, 64
11, 1754700, Note_on_c, 10, 89, 92
11, 1754775, Note_off_c, 10, 89, 64
11, 1754780, Note_on_c, 10, 89, 92
11, 1754855, Note_off_c, 10, 89, 64
11, 1754860, Note_on_c, 10, 89, 92
11, 1754935, Note_off_c, 10, 89, 64
11, 1754940, Note_on_c, 10, 89, 92
11, 1755015, Note_off_c, 10, 89, 64
11, 1755020, Note_on_c, 10, 89, 92
11, 1755095, Note_off_c, 10, 89, 64
11, 1755100, Note_on_c, 10, 89, 92
11, 1755175, Note_off_c, 10, 89, 64
11, 1755180, Note_on_c, 10, 89, 92
11, 1755255, Note_off_c, 10, 89, 64
11, 1755260, Note_on_c, 10, 89, 92
11, 1755335, Note_off_c, 10, 89, 64
11, 1755340, Note_on_c, 10, 89, 92
11, 1755415, Note_off_c, 10, 89, 64
11, 1755420, Note_on_c, 10, 89, 92
11, 1755495, Note_off_c, 10, 89, 64
11, 1755500, Note_on_c, 10, 89, 92
11, 1755575, Note_off_c, 10, 89, 64
11, 1755580, Note_on_c, 10, 89, 92
11, 1755655, Note_off_c, 10, 89, 64
11, 1755660, Note_on_c, 10, 89, 92
11, 1755735, Note_off_c, 10, 89, 64
11, 1755740, Note_on_c, 10, 89, 92
11, 1755815, Note_off_c, 10, 89, 64
11, 1755820, Note_on_c, 10, 89, 92
11, 1755895, Note_off_c, 10, 89, 64
11, 1755900, Note_on_c, 10, 89, 92
11, 1755975, Note_off_c, 10, 89, 64
11, 1755980, Note_on_c, 10, 89, 92
11, 1756055, Note_off_c, 10, 89, 64
11, 1756060, Note_on_c, 10, 89, 92
11, 1756135, Note_off_c, 10, 89, 64
11, 1756140, Note_on_c, 10, 89, 92
11, 1756215, Note_off_c, 10, 89, 64
11, 1756220, Note_on_c, 10, 89, 92
11, 1756295, Note_off_c, 10, 89, 64
11, 1756300, Note_on_c, 10, 89, 92
11, 1756375, Note_off_c, 10, 89, 64
11, 1756380, Note_on_c, 10, 89, 92
11, 1756455, Note_off_c, 10, 89, 64
11, 1756460, Note_on_c, 10, 89, 92
11, 1756535, Note_off_c, 10, 89, 64
11, 1756540, Note_on_c, 10, 89, 92
11, 1756615, Note_off_c, 10, 89, 64
11, 1756620, Note_on_c, 10, 89, 92
11, 1756695, Note_off_c, 10, 89, 64
11, 1756700, Note_on_c, 10, 89, 92
11, 1756775, Note_off_c, 10, 89, 64
11, 1756780, Note_on_c, 10, 89, 92
11, 1756855, Note_off_c, 10, 89, 64
11, 1756860, Note_on_c, 10, 89, 92
11, 1756935, Note_off_c, 10, 89, 64
11, 1756940, Note_on_c, 10, 89, 92
11, 1757015, Note_off_c, 10, 89, 64
11, 1757020, Note_on_c, 10, 89, 92
11, 1757095, Note_off_c, 10, 89, 64
11, 1757100, Note_on_c, 10, 89, 92
11, 1757175, Note_off_c, 10, 89, 64
11, 1757180, Note_on_c, 10, 89, 92
11, 1757255, Note_off_c, 10, 89, 64
11, 1757260, Note_on_c, 10, 89, 92
11, 1757335, Note_off_c, 10, 89, 64
11, 1757340, Note_on_c, 10, 89, 92
11, 1757415, Note_off_c, 10, 89, 64
11, 1757420, Note_on_c, 10, 89, 92
11, 1757495, Note_off_c, 10, 89, 64
11, 1757500, Note_on_c, 10, 89, 92
11, 1757575, Note_off_c, 10, 89, 64
11, 1757580, Note_on_c, 10, 91, 92
11, 1757655, Note_off_c, 10, 91, 64
11, 1757660, Note_on_c, 10, 91, 92
11, 1757735, Note_off_c, 10, 91, 64
11, 1757740, Note_on_c, 10, 91, 92
11, 1757815, Note_off_c, 10, 91, 64
11, 1757820, Note_on_c, 10, 91, 92
11, 1757895, Note_off_c, 10, 91, 64
11, 1757900, Note_on_c, 10, 91, 92
11, 1757975, Note_off_c, 10, 91, 64
11, 1757980, Note_on_c, 10, 91, 92
11, 1758055, Note_off_c, 10, 91, 64
11, 1758060, Note_on_c, 10, 91, 92
11, 1758135, Note_off_c, 10, 91, 64
11, 1758140, Note_on_c, 10, 91, 92
11, 1758215, Note_off_c, 10, 91, 64
11, 1758220, Note_on_c, 10, 91, 92
11, 1758295, Note_off_c, 10, 91, 64
11, 1758300, Note_on_c, 10, 91, 92
11, 1758375, Note_off_c, 10, 91, 64
11, 1758380, Note_on_c, 10, 91, 92
11, 1758455, Note_off_c, 10, 91, 64
11, 1758460, Note_on_c, 10, 91, 92
11, 1758535, Note_off_c, 10, 91, 64
11, 1758540, Note_on_c, 10, 91, 92
11, 1758615, Note_off_c, 10, 91, 64
11, 1758620, Note_on_c, 10, 91, 92
11, 1758695, Note_off_c, 10, 91, 64
11, 1758700, Note_on_c, 10, 91, 92
11, 1758775, Note_off_c, 10, 91, 64
11, 1758780, Note_on_c, 10, 91, 92
11, 1758855, Note_off_c, 10, 91, 64
11, 1758860, Note_on_c, 10, 91, 92
11, 1758935, Note_off_c, 10, 91, 64
11, 1758940, Note_on_c, 10, 91, 92
11, 1759015, Note_off_c, 10, 91, 64
11, 1759020, Note_on_c, 10, 91, 92
11, 1759095, Note_off_c, 10, 91, 64
11, 1759100, Note_on_c, 10, 91, 92
11, 1759175, Note_off_c, 10, 91, 64
11, 1759180, Note_on_c, 10, 91, 92
11, 1759255, Note_off_c, 10, 91, 64
11, 1759260, Note_on_c, 10, 91, 92
11, 1759335, Note_off_c, 10, 91, 64
11, 1759340, Note_on_c, 10, 91, 92
11, 1759415, Note_off_c, 10, 91, 64
11, 1759420, Note_on_c, 10, 91, 92
11, 1759495, Note_off_c, 10, 91, 64
11, 1759500, Note_on_c, 10, 91, 92
11, 1759575, Note_off_c, 10, 91, 64
11, 1759580, Note_on_c, 10, 91, 92
11, 1759655, Note_off_c, 10, 91, 64
11, 1759660, Note_on_c, 10, 91, 92
11, 1759735, Note_off_c, 10, 91, 64
11, 1759740, Note_on_c, 10, 91, 92
11, 1759815, Note_off_c, 10, 91, 64
11, 1759820, Note_on_c, 10, 91, 92
11, 1759895, Note_off_c, 10, 91, 64
11, 1759900, Note_on_c, 10, 91, 92
11, 1759975, Note_off_c, 10, 91, 64
11, 1759980, Note_on_c, 10, 91, 92
11, 1760055, Note_off_c, 10, 91, 64
11, 1760060, Note_on_c, 10, 91, 92
11, 1760135, Note_off_c, 10, 91, 64
11, 1760140, Note_on_c, 10, 91, 92
11, 1760215, Note_off_c, 10, 91, 64
11, 1760220, Note_on_c, 10, 91, 92
11, 1760295, Note_off_c, 10, 91, 64
11, 1760300, Note_on_c, 10, 91, 92
11, 1760375, Note_off_c, 10, 91, 64
11, 1760380, Note_on_c, 10, 91, 92
11, 1760455, Note_off_c, 10, 91, 64
11, 1760460, Note_on_c, 10, 91, 92
11, 1760535, Note_off_c, 10, 91, 64
11, 1760540, Note_on_c, 10, 91, 92
11, 1760615, Note_off_c, 10, 91, 64
11, 1760620, Note_on_c, 10, 91, 92
11, 1760695, Note_off_c, 10, 91, 64
11, 1760700, Note_on_c, 10, 91, 92
11, 1760775, Note_off_c, 10, 91, 64
11, 1760780, Note_on_c, 10, 91, 92
11, 1760855, Note_off_c, 10, 91, 64
11, 1760860, Note_on_c, 10, 91, 92
11, 1760935, Note_off_c, 10, 91, 64
11, 1760940, Note_on_c, 10, 91, 92
11, 1761015, Note_off_c, 10, 91, 64
11, 1761020, Note_on_c, 10, 91, 92
11, 1761095, Note_off_c, 10, 91, 64
11, 1761100, Note_on_c, 10, 91, 92
11, 1761175, Note_off_c, 10, 91, 64
11, 1761180, Note_on_c, 10, 91, 92
11, 1761255, Note_off_c, 10, 91, 64
11, 1761260, Note_on_c, 10, 91, 92
11, 1761335, Note_off_c, 10, 91, 64
11, 1761340, Note_on_c, 10, 91, 92
11, 1761415, Note_off_c, 10, 91, 64
11, 1761420, Note_on_c, 10, 91, 92
11, 1761495, Note_off_c, 10, 91, 64
11, 1761500, Note_on_c, 10, 91, 92
11, 1761575, Note_off_c, 10, 91, 64
11, 1761580, Note_on_c, 10, 91, 92
11, 1761655, Note_off_c, 10, 91, 64
11, 1761660, Note_on_c, 10, 91, 92
11, 1761735, Note_off_c, 10, 91, 64
11, 1761740, Note_on_c, 10, 91, 92
11, 1761815, Note_off_c, 10, 91, 64
11, 1761820, Note_on_c, 10, 91, 92
11, 1761895, Note_off_c, 10, 91, 64
11, 1761900, Note_on_c, 10, 91, 92
11, 1761975, Note_off_c, 10, 91, 64
11, 1761980, Note_on_c, 10, 91, 92
11, 1762055, Note_off_c, 10, 91, 64
11, 1762060, Note_on_c, 10, 91, 92
11, 1762135, Note_off_c, 10, 91, 64
11, 1762140, Note_on_c, 10, 91, 92
11, 1762215, Note_off_c, 10, 91, 64
11, 1762220, Note_on_c, 10, 91, 92
11, 1762295, Note_off_c, 10, 91, 64
11, 1762300, Note_on_c, 10, 91, 92
11, 1762375, Note_off_c, 10, 91, 64
11, 1762380, Note_on_c, 10, 91, 92
11, 1762455, Note_off_c, 10, 91, 64
11, 1762460, Note_on_c, 10, 91, 92
11, 1762535, Note_off_c, 10, 91, 64
11, 1762540, Note_on_c, 10, 91, 92
11, 1762615, Note_off_c, 10, 91, 64
11, 1762620, Note_on_c, 10, 91, 92
11, 1762695, Note_off_c, 10, 91, 64
11, 1762700, Note_on_c, 10, 91, 92
11, 1762775, Note_off_c, 10, 91, 64
11, 1762780, Note_on_c, 10, 91, 92
11, 1762855, Note_off_c, 10, 91, 64
11, 1762860, Note_on_c, 10, 91, 92
11, 1762935, Note_off_c, 10, 91, 64
11, 1762940, Note_on_c, 10, 91, 92
11, 1763015, Note_off_c, 10, 91, 64
11, 1763020, Note_on_c, 10, 91, 92
11, 1763095, Note_off_c, 10, 91, 64
11, 1763100, Note_on_c, 10, 91, 92
11, 1763175, Note_off_c, 10, 91, 64
11, 1763180, Note_on_c, 10, 91, 92
11, 1763255, Note_off_c, 10, 91, 64
11, 1763260, Note_on_c, 10, 91, 92
11, 1763335, Note_off_c, 10, 91, 64
11, 1763340, Note_on_c, 10, 91, 92
11, 1763415, Note_off_c, 10, 91, 64
11, 1763420, Note_on_c, 10, 91, 92
11, 1763495, Note_off_c, 10, 91, 64
11, 1763500, Note_on_c, 10, 91, 92
11, 1763575, Note_off_c, 10, 91, 64
11, 1763580, Note_on_c, 10, 91, 92
11, 1763655, Note_off_c, 10, 91, 64
11, 1763660, Note_on_c, 10, 91, 92
11, 1763735, Note_off_c, 10, 91, 64
11, 1763740, Note_on_c, 10, 91, 92
11, 1763815, Note_off_c, 10, 91, 64
11, 1763820, Note_on_c, 10, 91, 92
11, 1763895, Note_off_c, 10, 91, 64
11, 1763900, Note_on_c, 10, 91, 92
11, 1763975, Note_off_c, 10, 91, 64
11, 1763980, Note_on_c, 10, 91, 92
11, 1764055, Note_off_c, 10, 91, 64
11, 1764060, Note_on_c, 10, 89, 92
11, 1764135, Note_off_c, 10, 89, 64
11, 1764140, Note_on_c, 10, 89, 92
11, 1764215, Note_off_c, 10, 89, 64
11, 1764220, Note_on_c, 10, 89, 92
11, 1764295, Note_off_c, 10, 89, 64
11, 1764300, Note_on_c, 10, 89, 92
11, 1764375, Note_off_c, 10, 89, 64
11, 1764380, Note_on_c, 10, 89, 92
11, 1764455, Note_off_c, 10, 89, 64
11, 1764460, Note_on_c, 10, 89, 92
11, 1764535, Note_off_c, 10, 89, 64
11, 1764540, Note_on_c, 10, 89, 92
11, 1764615, Note_off_c, 10, 89, 64
11, 1764620, Note_on_c, 10, 89, 92
11, 1764695, Note_off_c, 10, 89, 64
11, 1764700, Note_on_c, 10, 89, 92
11, 1764775, Note_off_c, 10, 89, 64
11, 1764780, Note_on_c, 10, 89, 92
11, 1764855, Note_off_c, 10, 89, 64
11, 1764860, Note_on_c, 10, 89, 92
11, 1764935, Note_off_c, 10, 89, 64
11, 1764940, Note_on_c, 10, 89, 92
11, 1765015, Note_off_c, 10, 89, 64
11, 1765020, Note_on_c, 10, 89, 92
11, 1765095, Note_off_c, 10, 89, 64
11, 1765100, Note_on_c, 10, 89, 92
11, 1765175, Note_off_c, 10, 89, 64
11, 1765180, Note_on_c, 10, 89, 92
11, 1765255, Note_off_c, 10, 89, 64
11, 1765260, Note_on_c, 10, 89, 92
11, 1765335, Note_off_c, 10, 89, 64
11, 1765340, Note_on_c, 10, 89, 92
11, 1765415, Note_off_c, 10, 89, 64
11, 1765420, Note_on_c, 10, 89, 92
11, 1765495, Note_off_c, 10, 89, 64
11, 1765500, Note_on_c, 10, 87, 92
11, 1765575, Note_off_c, 10, 87, 64
11, 1765580, Note_on_c, 10, 87, 92
11, 1765655, Note_off_c, 10, 87, 64
11, 1765660, Note_on_c, 10, 87, 92
11, 1765735, Note_off_c, 10, 87, 64
11, 1765740, Note_on_c, 10, 87, 92
11, 1765815, Note_off_c, 10, 87, 64
11, 1765820, Note_on_c, 10, 87, 92
11, 1765895, Note_off_c, 10, 87, 64
11, 1765900, Note_on_c, 10, 87, 92
11, 1765975, Note_off_c, 10, 87, 64
11, 1765980, Note_on_c, 10, 87, 92
11, 1766055, Note_off_c, 10, 87, 64
11, 1766060, Note_on_c, 10, 87, 92
11, 1766135, Note_off_c, 10, 87, 64
11, 1766140, Note_on_c, 10, 87, 92
11, 1766215, Note_off_c, 10, 87, 64
11, 1766220, Note_on_c, 10, 86, 92
11, 1766295, Note_off_c, 10, 86, 64
11, 1766300, Note_on_c, 10, 86, 92
11, 1766375, Note_off_c, 10, 86, 64
11, 1766380, Note_on_c, 10, 86, 92
11, 1766455, Note_off_c, 10, 86, 64
11, 1766460, Note_on_c, 10, 86, 92
11, 1766535, Note_off_c, 10, 86, 64
11, 1766540, Note_on_c, 10, 86, 92
11, 1766615, Note_off_c, 10, 86, 64
11, 1766620, Note_on_c, 10, 86, 92
11, 1766695, Note_off_c, 10, 86, 64
11, 1766700, Note_on_c, 10, 86, 92
11, 1766775, Note_off_c, 10, 86, 64
11, 1766780, Note_on_c, 10, 86, 92
11, 1766855, Note_off_c, 10, 86, 64
11, 1766860, Note_on_c, 10, 86, 92
11, 1766935, Note_off_c, 10, 86, 64
11, 1766940, Note_on_c, 10, 84, 92
11, 1767015, Note_off_c, 10, 84, 64
11, 1767020, Note_on_c, 10, 84, 92
11, 1767095, Note_off_c, 10, 84, 64
11, 1767100, Note_on_c, 10, 84, 92
11, 1767175, Note_off_c, 10, 84, 64
11, 1767180, Note_on_c, 10, 84, 92
11, 1767255, Note_off_c, 10, 84, 64
11, 1767260, Note_on_c, 10, 84, 92
11, 1767335, Note_off_c, 10, 84, 64
11, 1767340, Note_on_c, 10, 84, 92
11, 1767415, Note_off_c, 10, 84, 64
11, 1767420, Note_on_c, 10, 84, 92
11, 1767495, Note_off_c, 10, 84, 64
11, 1767500, Note_on_c, 10, 84, 92
11, 1767575, Note_off_c, 10, 84, 64
11, 1767580, Note_on_c, 10, 84, 92
11, 1767655, Note_off_c, 10, 84, 64
11, 1767660, Note_on_c, 10, 82, 92
11, 1767735, Note_off_c, 10, 82, 64
11, 1767740, Note_on_c, 10, 82, 92
11, 1767815, Note_off_c, 10, 82, 64
11, 1767820, Note_on_c, 10, 82, 92
11, 1767895, Note_off_c, 10, 82, 64
11, 1767900, Note_on_c, 10, 82, 92
11, 1767975, Note_off_c, 10, 82, 64
11, 1767980, Note_on_c, 10, 82, 92
11, 1768055, Note_off_c, 10, 82, 64
11, 1768060, Note_on_c, 10, 82, 92
11, 1768135, Note_off_c, 10, 82, 64
11, 1768140, Note_on_c, 10, 82, 92
11, 1768215, Note_off_c, 10, 82, 64
11, 1768220, Note_on_c, 10, 82, 92
11, 1768295, Note_off_c, 10, 82, 64
11, 1768300, Note_on_c, 10, 82, 92
11, 1768375, Note_off_c, 10, 82, 64
11, 1768380, Note_on_c, 10, 81, 92
11, 1768455, Note_off_c, 10, 81, 64
11, 1768460, Note_on_c, 10, 81, 92
11, 1768535, Note_off_c, 10, 81, 64
11, 1768540, Note_on_c, 10, 81, 92
11, 1768615, Note_off_c, 10, 81, 64
11, 1768620, Note_on_c, 10, 81, 92
11, 1768695, Note_off_c, 10, 81, 64
11, 1768700, Note_on_c, 10, 81, 92
11, 1768775, Note_off_c, 10, 81, 64
11, 1768780, Note_on_c, 10, 81, 92
11, 1768855, Note_off_c, 10, 81, 64
11, 1768860, Note_on_c, 10, 81, 92
11, 1768935, Note_off_c, 10, 81, 64
11, 1768940, Note_on_c, 10, 81, 92
11, 1769015, Note_off_c, 10, 81, 64
11, 1769020, Note_on_c, 10, 81, 92
11, 1769095, Note_off_c, 10, 81, 64
11, 1769100, Note_on_c, 10, 79, 92
11, 1769175, Note_off_c, 10, 79, 64
11, 1769180, Note_on_c, 10, 79, 92
11, 1769255, Note_off_c, 10, 79, 64
11, 1769260, Note_on_c, 10, 79, 92
11, 1769335, Note_off_c, 10, 79, 64
11, 1769340, Note_on_c, 10, 79, 92
11, 1769415, Note_off_c, 10, 79, 64
11, 1769420, Note_on_c, 10, 79, 92
11, 1769495, Note_off_c, 10, 79, 64
11, 1769500, Note_on_c, 10, 79, 92
11, 1769575, Note_off_c, 10, 79, 64
11, 1769580, Note_on_c, 10, 79, 92
11, 1769655, Note_off_c, 10, 79, 64
11, 1769660, Note_on_c, 10, 79, 92
11, 1769735, Note_off_c, 10, 79, 64
11, 1769740, Note_on_c, 10, 79, 92
11, 1769815, Note_off_c, 10, 79, 64
11, 1769820, Note_on_c, 10, 77, 60
11, 1769895, Note_off_c, 10, 77, 64
11, 1769900, Note_on_c, 10, 77, 60
11, 1769975, Note_off_c, 10, 77, 64
11, 1769980, Note_on_c, 10, 77, 60
11, 1770055, Note_off_c, 10, 77, 64
11, 1770060, Note_on_c, 10, 77, 60
11, 1770135, Note_off_c, 10, 77, 64
11, 1770140, Note_on_c, 10, 77, 60
11, 1770215, Note_off_c, 10, 77, 64
11, 1770220, Note_on_c, 10, 77, 60
11, 1770295, Note_off_c, 10, 77, 64
11, 1770300, Note_on_c, 10, 77, 60
11, 1770375, Note_off_c, 10, 77, 64
11, 1770380, Note_on_c, 10, 77, 60
11, 1770455, Note_off_c, 10, 77, 64
11, 1770460, Note_on_c, 10, 77, 60
11, 1770535, Note_off_c, 10, 77, 64
11, 1770540, Note_on_c, 10, 76, 60
11, 1770615, Note_off_c, 10, 76, 64
11, 1770620, Note_on_c, 10, 76, 60
11, 1770695, Note_off_c, 10, 76, 64
11, 1770700, Note_on_c, 10, 76, 60
11, 1770775, Note_off_c, 10, 76, 64
11, 1770780, Note_on_c, 10, 76, 60
11, 1770855, Note_off_c, 10, 76, 64
11, 1770860, Note_on_c, 10, 76, 60
11, 1770935, Note_off_c, 10, 76, 64
11, 1770940, Note_on_c, 10, 76, 60
11, 1771015, Note_off_c, 10, 76, 64
11, 1771020, Note_on_c, 10, 76, 60
11, 1771095, Note_off_c, 10, 76, 64
11, 1771100, Note_on_c, 10, 76, 60
11, 1771175, Note_off_c, 10, 76, 64
11, 1771180, Note_on_c, 10, 76, 60
11, 1771255, Note_off_c, 10, 76, 64
11, 1771260, Note_on_c, 10, 74, 45
11, 1771335, Note_off_c, 10, 74, 64
11, 1771340, Note_on_c, 10, 74, 45
11, 1771415, Note_off_c, 10, 74, 64
11, 1771420, Note_on_c, 10, 74, 45
11, 1771495, Note_off_c, 10, 74, 64
11, 1771500, Note_on_c, 10, 74, 45
11, 1771575, Note_off_c, 10, 74, 64
11, 1771580, Note_on_c, 10, 74, 45
11, 1771655, Note_off_c, 10, 74, 64
11, 1771660, Note_on_c, 10, 74, 45
11, 1771735, Note_off_c, 10, 74, 64
11, 1771740, Note_on_c, 10, 74, 45
11, 1771815, Note_off_c, 10, 74, 64
11, 1771820, Note_on_c, 10, 74, 45
11, 1771895, Note_off_c, 10, 74, 64
11, 1771900, Note_on_c, 10, 74, 45
11, 1771975, Note_off_c, 10, 74, 64
11, 1771980, Note_on_c, 10, 72, 45
11, 1772055, Note_off_c, 10, 72, 64
11, 1772060, Note_on_c, 10, 72, 45
11, 1772135, Note_off_c, 10, 72, 64
11, 1772140, Note_on_c, 10, 72, 45
11, 1772215, Note_off_c, 10, 72, 64
11, 1772220, Note_on_c, 10, 72, 45
11, 1772295, Note_off_c, 10, 72, 64
11, 1772300, Note_on_c, 10, 72, 45
11, 1772375, Note_off_c, 10, 72, 64
11, 1772380, Note_on_c, 10, 72, 45
11, 1772455, Note_off_c, 10, 72, 64
11, 1772460, Note_on_c, 10, 72, 45
11, 1772535, Note_off_c, 10, 72, 64
11, 1772540, Note_on_c, 10, 72, 45
11, 1772615, Note_off_c, 10, 72, 64
11, 1772620, Note_on_c, 10, 72, 45
11, 1772695, Note_off_c, 10, 72, 64
11, 1772700, Note_on_c, 10, 74, 45
11, 1772775, Note_off_c, 10, 74, 64
11, 1772780, Note_on_c, 10, 74, 45
11, 1772855, Note_off_c, 10, 74, 64
11, 1772860, Note_on_c, 10, 74, 45
11, 1772935, Note_off_c, 10, 74, 64
11, 1772940, Note_on_c, 10, 74, 45
11, 1773015, Note_off_c, 10, 74, 64
11, 1773020, Note_on_c, 10, 74, 45
11, 1773095, Note_off_c, 10, 74, 64
11, 1773100, Note_on_c, 10, 74, 45
11, 1773175, Note_off_c, 10, 74, 64
11, 1773180, Note_on_c, 10, 74, 45
11, 1773255, Note_off_c, 10, 74, 64
11, 1773260, Note_on_c, 10, 74, 45
11, 1773335, Note_off_c, 10, 74, 64
11, 1773340, Note_on_c, 10, 74, 45
11, 1773415, Note_off_c, 10, 74, 64
11, 1773420, Note_on_c, 10, 72, 45
11, 1773495, Note_off_c, 10, 72, 64
11, 1773500, Note_on_c, 10, 72, 45
11, 1773575, Note_off_c, 10, 72, 64
11, 1773580, Note_on_c, 10, 72, 45
11, 1773655, Note_off_c, 10, 72, 64
11, 1773660, Note_on_c, 10, 72, 45
11, 1773735, Note_off_c, 10, 72, 64
11, 1773740, Note_on_c, 10, 72, 45
11, 1773815, Note_off_c, 10, 72, 64
11, 1773820, Note_on_c, 10, 72, 45
11, 1773895, Note_off_c, 10, 72, 64
11, 1773900, Note_on_c, 10, 72, 45
11, 1773975, Note_off_c, 10, 72, 64
11, 1773980, Note_on_c, 10, 72, 45
11, 1774055, Note_off_c, 10, 72, 64
11, 1774060, Note_on_c, 10, 72, 45
11, 1774135, Note_off_c, 10, 72, 64
11, 1774140, Note_on_c, 10, 70, 45
11, 1774215, Note_off_c, 10, 70, 64
11, 1774220, Note_on_c, 10, 70, 45
11, 1774295, Note_off_c, 10, 70, 64
11, 1774300, Note_on_c, 10, 70, 45
11, 1774375, Note_off_c, 10, 70, 64
11, 1774380, Note_on_c, 10, 70, 45
11, 1774455, Note_off_c, 10, 70, 64
11, 1774460, Note_on_c, 10, 70, 45
11, 1774535, Note_off_c, 10, 70, 64
11, 1774540, Note_on_c, 10, 70, 45
11, 1774615, Note_off_c, 10, 70, 64
11, 1774620, Note_on_c, 10, 70, 45
11, 1774695, Note_off_c, 10, 70, 64
11, 1774700, Note_on_c, 10, 70, 45
11, 1774775, Note_off_c, 10, 70, 64
11, 1774780, Note_on_c, 10, 70, 45
11, 1774855, Note_off_c, 10, 70, 64
11, 1774860, Note_on_c, 10, 67, 45
11, 1774935, Note_off_c, 10, 67, 64
11, 1774940, Note_on_c, 10, 67, 45
11, 1775015, Note_off_c, 10, 67, 64
11, 1775020, Note_on_c, 10, 67, 45
11, 1775095, Note_off_c, 10, 67, 64
11, 1775100, Note_on_c, 10, 67, 45
11, 1775175, Note_off_c, 10, 67, 64
11, 1775180, Note_on_c, 10, 67, 45
11, 1775255, Note_off_c, 10, 67, 64
11, 1775260, Note_on_c, 10, 67, 45
11, 1775335, Note_off_c, 10, 67, 64
11, 1775340, Note_on_c, 10, 67, 45
11, 1775415, Note_off_c, 10, 67, 64
11, 1775420, Note_on_c, 10, 67, 45
11, 1775495, Note_off_c, 10, 67, 64
11, 1775500, Note_on_c, 10, 67, 45
11, 1775575, Note_off_c, 10, 67, 64
11, 1775580, Note_on_c, 10, 67, 30
11, 1775655, Note_off_c, 10, 67, 64
11, 1775660, Note_on_c, 10, 67, 30
11, 1775735, Note_off_c, 10, 67, 64
11, 1775740, Note_on_c, 10, 67, 30
11, 1775815, Note_off_c, 10, 67, 64
11, 1775820, Note_on_c, 10, 67, 30
11, 1775895, Note_off_c, 10, 67, 64
11, 1775900, Note_on_c, 10, 67, 30
11, 1775975, Note_off_c, 10, 67, 64
11, 1775980, Note_on_c, 10, 67, 30
11, 1776055, Note_off_c, 10, 67, 64
11, 1776060, Note_on_c, 10, 67, 30
11, 1776135, Note_off_c, 10, 67, 64
11, 1776140, Note_on_c, 10, 67, 30
11, 1776215, Note_off_c, 10, 67, 64
11, 1776220, Note_on_c, 10, 67, 30
11, 1776295, Note_off_c, 10, 67, 64
11, 1776300, Note_on_c, 10, 64, 30
11, 1776375, Note_off_c, 10, 64, 64
11, 1776380, Note_on_c, 10, 64, 30
11, 1776455, Note_off_c, 10, 64, 64
11, 1776460, Note_on_c, 10, 64, 30
11, 1776535, Note_off_c, 10, 64, 64
11, 1776540, Note_on_c, 10, 64, 30
11, 1776615, Note_off_c, 10, 64, 64
11, 1776620, Note_on_c, 10, 64, 30
11, 1776695, Note_off_c, 10, 64, 64
11, 1776700, Note_on_c, 10, 64, 30
11, 1776775, Note_off_c, 10, 64, 64
11, 1776780, Note_on_c, 10, 64, 30
11, 1776855, Note_off_c, 10, 64, 64
11, 1776860, Note_on_c, 10, 64, 30
11, 1776935, Note_off_c, 10, 64, 64
11, 1776940, Note_on_c, 10, 64, 30
11, 1777015, Note_off_c, 10, 64, 64
11, 1777020, Note_on_c, 10, 65, 45
11, 1777740, Note_off_c, 10, 65, 64
11, 1777740, Note_on_c, 10, 60, 45
11, 1778220, Note_off_c, 10, 60, 64
11, 1778220, Note_on_c, 10, 69, 45
11, 1778460, Note_off_c, 10, 69, 64
11, 1778460, Note_on_c, 10, 67, 45
11, 1780020, Note_off_c, 10, 67, 64
11, 1780260, Note_on_c, 10, 67, 45
11, 1780980, Note_off_c, 10, 67, 64
11, 1780980, Note_on_c, 10, 60, 45
11, 1781460, Note_off_c, 10, 60, 64
11, 1781460, Note_on_c, 10, 70, 45
11, 1781700, Note_off_c, 10, 70, 64
11, 1781700, Note_on_c, 10, 69, 45
11, 1783260, Note_off_c, 10, 69, 64
11, 1783500, Note_on_c, 10, 69, 45
11, 1784220, Note_off_c, 10, 69, 64
11, 1784220, Note_on_c, 10, 70, 45
11, 1784700, Note_off_c, 10, 70, 64
11, 1784700, Note_on_c, 10, 72, 45
11, 1784940, Note_off_c, 10, 72, 64
11, 1784940, Note_on_c, 10, 74, 45
11, 1786060, Note_off_c, 10, 74, 64
11, 1786200, Note_on_c, 10, 67, 45
11, 1786440, Note_off_c, 10, 67, 64
11, 1786440, Note_on_c, 10, 67, 45
11, 1787400, Note_off_c, 10, 67, 64
11, 1787400, Note_on_c, 10, 69, 45
11, 1787640, Note_off_c, 10, 69, 64
11, 1787640, Note_on_c, 10, 72, 45
11, 1787700, Note_off_c, 10, 72, 64
11, 1787700, Note_on_c, 10, 70, 45
11, 1787742, Note_off_c, 10, 70, 64
11, 1787760, Note_on_c, 10, 69, 45
11, 1787845, Note_off_c, 10, 69, 64
11, 1787880, Note_on_c, 10, 69, 45
11, 1788595, Note_off_c, 10, 69, 64
11, 1789320, Note_on_c, 10, 81, 92
11, 1789960, Note_off_c, 10, 81, 64
11, 1790040, Note_on_c, 10, 82, 92
11, 1790275, Note_off_c, 10, 82, 64
11, 1790520, Note_on_c, 10, 84, 92
11, 1790755, Note_off_c, 10, 84, 64
11, 1790760, Note_on_c, 10, 86, 92
11, 1791880, Note_off_c, 10, 86, 64
11, 1795080, Note_on_c, 10, 69, 45
11, 1795320, Note_off_c, 10, 69, 64
11, 1795320, Note_on_c, 10, 70, 45
11, 1796440, Note_off_c, 10, 70, 64
11, 1796520, Note_on_c, 10, 70, 45
11, 1796760, Note_off_c, 10, 70, 64
11, 1796760, Note_on_c, 10, 69, 45
11, 1797400, Note_off_c, 10, 69, 64
11, 1801080, Note_on_c, 10, 69, 45
11, 1801320, Note_off_c, 10, 69, 64
11, 1801320, Note_on_c, 10, 70, 51
11, 1802520, Note_off_c, 10, 70, 64
11, 1802520, Note_on_c, 10, 70, 85
11, 1802755, Note_off_c, 10, 70, 64
11, 1802760, Note_on_c, 10, 76, 92
11, 1805640, Note_off_c, 10, 76, 64
11, 1805640, Note_on_c, 10, 76, 75
11, 1807080, Note_off_c, 10, 76, 64
11, 1807080, Note_on_c, 10, 76, 75
11, 1808400, Note_off_c, 10, 76, 64
11, 1808520, Note_on_c, 10, 77, 61
11, 1809840, Note_off_c, 10, 77, 64
11, 1810020, Note_on_c, 10, 77, 45
11, 1811340, Note_off_c, 10, 77, 64
11, 1811520, Note_on_c, 10, 77, 60
11, 1811640, Note_off_c, 10, 77, 64
11, 1811640, Note_on_c, 10, 79, 60
11, 1811760, Note_off_c, 10, 79, 64
11, 1811760, Note_on_c, 10, 81, 60
11, 1811880, Note_off_c, 10, 81, 64
11, 1811880, Note_on_c, 10, 82, 60
11, 1812000, Note_off_c, 10, 82, 64
11, 1812000, Note_on_c, 10, 84, 60
11, 1812120, Note_off_c, 10, 84, 64
11, 1812120, Note_on_c, 10, 83, 60
11, 1812235, Note_off_c, 10, 83, 64
11, 1812240, Note_on_c, 10, 86, 60
11, 1812360, Note_off_c, 10, 86, 64
11, 1812360, Note_on_c, 10, 84, 60
11, 1812480, Note_off_c, 10, 84, 64
11, 1812480, Note_on_c, 10, 82, 60
11, 1812600, Note_off_c, 10, 82, 64
11, 1812600, Note_on_c, 10, 81, 60
11, 1812720, Note_off_c, 10, 81, 64
11, 1812720, Note_on_c, 10, 79, 60
11, 1812840, Note_off_c, 10, 79, 64
11, 1812840, Note_on_c, 10, 77, 60
11, 1812955, Note_off_c, 10, 77, 64
11, 1817040, Note_on_c, 10, 69, 108
11, 1817040, Note_on_c, 10, 81, 108
11, 1817275, Note_off_c, 10, 81, 64
11, 1817275, Note_off_c, 10, 69, 64
11, 1817280, Note_on_c, 10, 69, 108
11, 1817280, Note_on_c, 10, 77, 108
11, 1818040, Note_off_c, 10, 77, 64
11, 1818040, Note_off_c, 10, 69, 64
11, 1818040, End_track
12, 0, Start_track
12, 0, MIDI_port, 0
12, 0, Channel_prefix, 11
12, 0, Control_c, 11, 7, 127
12, 0, Control_c, 11, 10, 32
12, 0, Control_c, 11, 91, 127
12, 0, Program_c, 11, 48
12, 2400, Note_on_c, 11, 64, 45
12, 2640, Note_off_c, 11, 64, 64
12, 2640, Note_on_c, 11, 65, 45
12, 2880, Note_off_c, 11, 65, 64
12, 2880, Note_on_c, 11, 67, 45
12, 3000, Note_off_c, 11, 67, 64
12, 3000, Note_on_c, 11, 65, 45
12, 3115, Note_off_c, 11, 65, 64
12, 3120, Note_on_c, 11, 64, 45
12, 4080, Note_off_c, 11, 64, 64
12, 4440, Note_on_c, 11, 57, 45
12, 4680, Note_off_c, 11, 57, 64
12, 4680, Note_on_c, 11, 58, 47
12, 4920, Note_off_c, 11, 58, 64
12, 4920, Note_on_c, 11, 62, 49
12, 5155, Note_off_c, 11, 62, 64
12, 5160, Note_on_c, 11, 60, 51
12, 6355, Note_off_c, 11, 60, 64
12, 6360, Note_on_c, 11, 57, 61
12, 6600, Note_off_c, 11, 57, 64
12, 6600, Note_on_c, 11, 58, 63
12, 6840, Note_off_c, 11, 58, 64
12, 6840, Note_on_c, 11, 62, 65
12, 7075, Note_off_c, 11, 62, 64
12, 7080, Note_on_c, 11, 60, 67
12, 7920, Note_off_c, 11, 60, 64
12, 8040, Note_on_c, 11, 60, 75
12, 8520, Note_off_c, 11, 60, 64
12, 8520, Note_on_c, 11, 65, 79
12, 9000, Note_off_c, 11, 65, 64
12, 9000, Note_on_c, 11, 64, 83
12, 9720, Note_off_c, 11, 64, 64
12, 9720, Note_on_c, 11, 65, 89
12, 9955, Note_off_c, 11, 65, 64
12, 9960, Note_on_c, 11, 70, 92
12, 10440, Note_off_c, 11, 70, 64
12, 10440, Note_on_c, 11, 69, 92
12, 10920, Note_off_c, 11, 69, 64
12, 10920, Note_on_c, 11, 64, 92
12, 11760, Note_off_c, 11, 64, 64
12, 11880, Note_on_c, 11, 65, 92
12, 12280, Note_off_c, 11, 65, 64
12, 12360, Note_on_c, 11, 65, 92
12, 12840, Note_off_c, 11, 65, 64
12, 12840, Note_on_c, 11, 64, 92
12, 13560, Note_off_c, 11, 64, 64
12, 13560, Note_on_c, 11, 65, 92
12, 13795, Note_off_c, 11, 65, 64
12, 13800, Note_on_c, 11, 70, 45
12, 14280, Note_off_c, 11, 70, 64
12, 14280, Note_on_c, 11, 69, 48
12, 14680, Note_off_c, 11, 69, 64
12, 14760, Note_on_c, 11, 64, 52
12, 15400, Note_off_c, 11, 64, 64
12, 15480, Note_on_c, 11, 65, 58
12, 15715, Note_off_c, 11, 65, 64
12, 15720, Note_on_c, 11, 64, 60
12, 16360, Note_off_c, 11, 64, 64
12, 16440, Note_on_c, 11, 65, 66
12, 16675, Note_off_c, 11, 65, 64
12, 16680, Note_on_c, 11, 64, 68
12, 17320, Note_off_c, 11, 64, 64
12, 17400, Note_on_c, 11, 65, 74
12, 17635, Note_off_c, 11, 65, 64
12, 17640, Note_on_c, 11, 64, 76
12, 18280, Note_off_c, 11, 64, 64
12, 18360, Note_on_c, 11, 65, 82
12, 18595, Note_off_c, 11, 65, 64
12, 18600, Note_on_c, 11, 64, 84
12, 19240, Note_off_c, 11, 64, 64
12, 19320, Note_on_c, 11, 65, 90
12, 19555, Note_off_c, 11, 65, 64
12, 19560, Note_on_c, 11, 64, 92
12, 20200, Note_off_c, 11, 64, 64
12, 20280, Note_on_c, 11, 65, 92
12, 20515, Note_off_c, 11, 65, 64
12, 20520, Note_on_c, 11, 64, 92
12, 21160, Note_off_c, 11, 64, 64
12, 21240, Note_on_c, 11, 65, 68
12, 21475, Note_off_c, 11, 65, 64
12, 21480, Note_on_c, 11, 64, 60
12, 22120, Note_off_c, 11, 64, 64
12, 22200, Note_on_c, 11, 65, 60
12, 22435, Note_off_c, 11, 65, 64
12, 22440, Note_on_c, 11, 64, 60
12, 23080, Note_off_c, 11, 64, 64
12, 23160, Note_on_c, 11, 65, 38
12, 23395, Note_off_c, 11, 65, 64
12, 23400, Note_on_c, 11, 64, 30
12, 23635, Note_off_c, 11, 64, 64
12, 24600, Note_on_c, 11, 57, 45
12, 24720, Note_off_c, 11, 57, 64
12, 24720, Note_on_c, 11, 58, 45
12, 24835, Note_off_c, 11, 58, 64
12, 24840, Note_on_c, 11, 60, 45
12, 24920, Note_off_c, 11, 60, 64
12, 25080, Note_on_c, 11, 61, 45
12, 25160, Note_off_c, 11, 61, 64
12, 25320, Note_on_c, 11, 62, 45
12, 25400, Note_off_c, 11, 62, 64
12, 25560, Note_on_c, 11, 58, 45
12, 25680, Note_off_c, 11, 58, 64
12, 25680, Note_on_c, 11, 60, 45
12, 25795, Note_off_c, 11, 60, 64
12, 25800, Note_on_c, 11, 62, 45
12, 25880, Note_off_c, 11, 62, 64
12, 26040, Note_on_c, 11, 64, 45
12, 26120, Note_off_c, 11, 64, 64
12, 26280, Note_on_c, 11, 65, 45
12, 26360, Note_off_c, 11, 65, 64
12, 26520, Note_on_c, 11, 62, 45
12, 26640, Note_off_c, 11, 62, 64
12, 26640, Note_on_c, 11, 64, 45
12, 26755, Note_off_c, 11, 64, 64
12, 26760, Note_on_c, 11, 65, 45
12, 26840, Note_off_c, 11, 65, 64
12, 27000, Note_on_c, 11, 67, 45
12, 27080, Note_off_c, 11, 67, 64
12, 27240, Note_on_c, 11, 69, 45
12, 27320, Note_off_c, 11, 69, 64
12, 31080, Note_on_c, 11, 72, 45
12, 34800, Note_off_c, 11, 72, 64
12, 34920, Note_on_c, 11, 69, 92
12, 35000, Note_off_c, 11, 69, 64
12, 35160, Note_on_c, 11, 69, 92
12, 35240, Note_off_c, 11, 69, 64
12, 35400, Note_on_c, 11, 70, 92
12, 35480, Note_off_c, 11, 70, 64
12, 35640, Note_on_c, 11, 74, 92
12, 35720, Note_off_c, 11, 74, 64
12, 35880, Note_on_c, 11, 72, 92
12, 36120, Note_off_c, 11, 72, 64
12, 36120, Note_on_c, 11, 70, 92
12, 36240, Note_off_c, 11, 70, 64
12, 36240, Note_on_c, 11, 69, 92
12, 36355, Note_off_c, 11, 69, 64
12, 36360, Note_on_c, 11, 67, 92
12, 36440, Note_off_c, 11, 67, 64
12, 36600, Note_on_c, 11, 60, 92
12, 36680, Note_off_c, 11, 60, 64
12, 36840, Note_on_c, 11, 65, 92
12, 36920, Note_off_c, 11, 65, 64
12, 37080, Note_on_c, 11, 76, 92
12, 37160, Note_off_c, 11, 76, 64
12, 37320, Note_on_c, 11, 77, 92
12, 37560, Note_off_c, 11, 77, 64
12, 37560, Note_on_c, 11, 79, 92
12, 37680, Note_off_c, 11, 79, 64
12, 37680, Note_on_c, 11, 77, 92
12, 37795, Note_off_c, 11, 77, 64
12, 37800, Note_on_c, 11, 76, 92
12, 37880, Note_off_c, 11, 76, 64
12, 38040, Note_on_c, 11, 77, 92
12, 38120, Note_off_c, 11, 77, 64
12, 38280, Note_on_c, 11, 79, 92
12, 38520, Note_off_c, 11, 79, 64
12, 38520, Note_on_c, 11, 81, 92
12, 38640, Note_off_c, 11, 81, 64
12, 38640, Note_on_c, 11, 79, 92
12, 38755, Note_off_c, 11, 79, 64
12, 38760, Note_on_c, 11, 77, 92
12, 39000, Note_off_c, 11, 77, 64
12, 39000, Note_on_c, 11, 81, 92
12, 39080, Note_off_c, 11, 81, 64
12, 39240, Note_on_c, 11, 81, 92
12, 39320, Note_off_c, 11, 81, 64
12, 39480, Note_on_c, 11, 81, 92
12, 39560, Note_off_c, 11, 81, 64
12, 39720, Note_on_c, 11, 81, 92
12, 40120, Note_off_c, 11, 81, 64
12, 40200, Note_on_c, 11, 79, 92
12, 40320, Note_off_c, 11, 79, 64
12, 40320, Note_on_c, 11, 77, 92
12, 40440, Note_off_c, 11, 77, 64
12, 40440, Note_on_c, 11, 76, 92
12, 40560, Note_off_c, 11, 76, 64
12, 40560, Note_on_c, 11, 74, 92
12, 40675, Note_off_c, 11, 74, 64
12, 40680, Note_on_c, 11, 72, 92
12, 40760, Note_off_c, 11, 72, 64
12, 40920, Note_on_c, 11, 74, 92
12, 41000, Note_off_c, 11, 74, 64
12, 41160, Note_on_c, 11, 76, 92
12, 41400, Note_off_c, 11, 76, 64
12, 41400, Note_on_c, 11, 77, 92
12, 41520, Note_off_c, 11, 77, 64
12, 41520, Note_on_c, 11, 76, 92
12, 41635, Note_off_c, 11, 76, 64
12, 41640, Note_on_c, 11, 74, 92
12, 41720, Note_off_c, 11, 74, 64
12, 41880, Note_on_c, 11, 76, 92
12, 41960, Note_off_c, 11, 76, 64
12, 42120, Note_on_c, 11, 77, 92
12, 42360, Note_off_c, 11, 77, 64
12, 42360, Note_on_c, 11, 79, 92
12, 42480, Note_off_c, 11, 79, 64
12, 42480, Note_on_c, 11, 77, 92
12, 42595, Note_off_c, 11, 77, 64
12, 42600, Note_on_c, 11, 76, 92
12, 42840, Note_off_c, 11, 76, 64
12, 42840, Note_on_c, 11, 79, 92
12, 42920, Note_off_c, 11, 79, 64
12, 43080, Note_on_c, 11, 79, 92
12, 43160, Note_off_c, 11, 79, 64
12, 43320, Note_on_c, 11, 79, 92
12, 43400, Note_off_c, 11, 79, 64
12, 43560, Note_on_c, 11, 79, 92
12, 44040, Note_off_c, 11, 79, 64
12, 44040, Note_on_c, 11, 81, 92
12, 44160, Note_off_c, 11, 81, 64
12, 44160, Note_on_c, 11, 79, 92
12, 44280, Note_off_c, 11, 79, 64
12, 44280, Note_on_c, 11, 77, 92
12, 44400, Note_off_c, 11, 77, 64
12, 44400, Note_on_c, 11, 76, 92
12, 44515, Note_off_c, 11, 76, 64
12, 44520, Note_on_c, 11, 77, 92
12, 44600, Note_off_c, 11, 77, 64
12, 44760, Note_on_c, 11, 79, 92
12, 44840, Note_off_c, 11, 79, 64
12, 45000, Note_on_c, 11, 81, 92
12, 45240, Note_off_c, 11, 81, 64
12, 45240, Note_on_c, 11, 82, 92
12, 45360, Note_off_c, 11, 82, 64
12, 45360, Note_on_c, 11, 81, 92
12, 45475, Note_off_c, 11, 81, 64
12, 45480, Note_on_c, 11, 79, 92
12, 45720, Note_off_c, 11, 79, 64
12, 45720, Note_on_c, 11, 76, 92
12, 45960, Note_off_c, 11, 76, 64
12, 45960, Note_on_c, 11, 79, 92
12, 46200, Note_off_c, 11, 79, 64
12, 46200, Note_on_c, 11, 76, 92
12, 46435, Note_off_c, 11, 76, 64
12, 46440, Note_on_c, 11, 77, 92
12, 46520, Note_off_c, 11, 77, 64
12, 46680, Note_on_c, 11, 79, 92
12, 46760, Note_off_c, 11, 79, 64
12, 46920, Note_on_c, 11, 81, 92
12, 47160, Note_off_c, 11, 81, 64
12, 47160, Note_on_c, 11, 82, 92
12, 47280, Note_off_c, 11, 82, 64
12, 47280, Note_on_c, 11, 81, 92
12, 47395, Note_off_c, 11, 81, 64
12, 47400, Note_on_c, 11, 79, 92
12, 47640, Note_off_c, 11, 79, 64
12, 47640, Note_on_c, 11, 76, 92
12, 47880, Note_off_c, 11, 76, 64
12, 47880, Note_on_c, 11, 79, 92
12, 48120, Note_off_c, 11, 79, 64
12, 48120, Note_on_c, 11, 76, 92
12, 48355, Note_off_c, 11, 76, 64
12, 48360, Note_on_c, 11, 77, 92
12, 48600, Note_off_c, 11, 77, 64
12, 48600, Note_on_c, 11, 76, 92
12, 48840, Note_off_c, 11, 76, 64
12, 48840, Note_on_c, 11, 79, 92
12, 49080, Note_off_c, 11, 79, 64
12, 49080, Note_on_c, 11, 76, 92
12, 49315, Note_off_c, 11, 76, 64
12, 49320, Note_on_c, 11, 77, 92
12, 49560, Note_off_c, 11, 77, 64
12, 49560, Note_on_c, 11, 76, 88
12, 49800, Note_off_c, 11, 76, 64
12, 49800, Note_on_c, 11, 79, 84
12, 50040, Note_off_c, 11, 79, 64
12, 50040, Note_on_c, 11, 76, 80
12, 50275, Note_off_c, 11, 76, 64
12, 50280, Note_on_c, 11, 69, 75
12, 50280, Note_on_c, 11, 77, 75
12, 50515, Note_off_c, 11, 77, 64
12, 50515, Note_off_c, 11, 69, 64
12, 54120, Program_c, 11, 45
12, 54120, Note_on_c, 11, 65, 30
12, 54120, Note_on_c, 11, 69, 30
12, 54355, Note_off_c, 11, 69, 64
12, 54355, Note_off_c, 11, 65, 64
12, 57960, Note_on_c, 11, 65, 30
12, 57960, Note_on_c, 11, 69, 30
12, 58360, Note_off_c, 11, 69, 64
12, 58360, Note_off_c, 11, 65, 64
12, 59880, Note_on_c, 11, 65, 30
12, 59880, Note_on_c, 11, 72, 30
12, 60280, Note_off_c, 11, 72, 64
12, 60280, Note_off_c, 11, 65, 64
12, 61800, Program_c, 11, 48
12, 62040, Note_on_c, 11, 69, 45
12, 62280, Note_off_c, 11, 69, 64
12, 62280, Note_on_c, 11, 67, 45
12, 62360, Note_off_c, 11, 67, 64
12, 62520, Note_on_c, 11, 66, 45
12, 62600, Note_off_c, 11, 66, 64
12, 62760, Note_on_c, 11, 67, 45
12, 62840, Note_off_c, 11, 67, 64
12, 63720, Note_on_c, 11, 59, 45
12, 63960, Note_off_c, 11, 59, 64
12, 63960, Note_on_c, 11, 62, 45
12, 64200, Note_off_c, 11, 62, 64
12, 64200, Note_on_c, 11, 59, 45
12, 64440, Note_off_c, 11, 59, 64
12, 64440, Note_on_c, 11, 62, 45
12, 64680, Note_off_c, 11, 62, 64
12, 64680, Note_on_c, 11, 59, 45
12, 64920, Note_off_c, 11, 59, 64
12, 64920, Note_on_c, 11, 62, 45
12, 65160, Note_off_c, 11, 62, 64
12, 65160, Note_on_c, 11, 59, 45
12, 65400, Note_off_c, 11, 59, 64
12, 65400, Note_on_c, 11, 62, 45
12, 65635, Note_off_c, 11, 62, 64
12, 65640, Note_on_c, 11, 60, 45
12, 65880, Note_off_c, 11, 60, 64
12, 65880, Note_on_c, 11, 64, 45
12, 66120, Note_off_c, 11, 64, 64
12, 66120, Note_on_c, 11, 60, 45
12, 66360, Note_off_c, 11, 60, 64
12, 66360, Note_on_c, 11, 64, 45
12, 66600, Note_off_c, 11, 64, 64
12, 66600, Note_on_c, 11, 60, 45
12, 66840, Note_off_c, 11, 60, 64
12, 66840, Note_on_c, 11, 64, 45
12, 67080, Note_off_c, 11, 64, 64
12, 67080, Note_on_c, 11, 60, 45
12, 67320, Note_off_c, 11, 60, 64
12, 67320, Note_on_c, 11, 64, 45
12, 67555, Note_off_c, 11, 64, 64
12, 67560, Note_on_c, 11, 69, 45
12, 67800, Note_off_c, 11, 69, 64
12, 67800, Note_on_c, 11, 67, 45
12, 68040, Note_off_c, 11, 67, 64
12, 68040, Note_on_c, 11, 65, 45
12, 68280, Note_off_c, 11, 65, 64
12, 68280, Note_on_c, 11, 62, 45
12, 68520, Note_off_c, 11, 62, 64
12, 68520, Note_on_c, 11, 55, 45
12, 68760, Note_off_c, 11, 55, 64
12, 68760, Note_on_c, 11, 65, 45
12, 69000, Note_off_c, 11, 65, 64
12, 69000, Note_on_c, 11, 62, 45
12, 69240, Note_off_c, 11, 62, 64
12, 69240, Note_on_c, 11, 55, 45
12, 69480, Note_off_c, 11, 55, 64
12, 69480, Note_on_c, 11, 69, 45
12, 69720, Note_off_c, 11, 69, 64
12, 69720, Note_on_c, 11, 67, 45
12, 69960, Note_off_c, 11, 67, 64
12, 69960, Note_on_c, 11, 64, 45
12, 70200, Note_off_c, 11, 64, 64
12, 70200, Note_on_c, 11, 60, 45
12, 70440, Note_off_c, 11, 60, 64
12, 70440, Note_on_c, 11, 55, 45
12, 70680, Note_off_c, 11, 55, 64
12, 70680, Note_on_c, 11, 64, 45
12, 70920, Note_off_c, 11, 64, 64
12, 70920, Note_on_c, 11, 60, 45
12, 71160, Note_off_c, 11, 60, 64
12, 71160, Note_on_c, 11, 55, 45
12, 71395, Note_off_c, 11, 55, 64
12, 71400, Note_on_c, 11, 62, 30
12, 71640, Note_off_c, 11, 62, 64
12, 71640, Note_on_c, 11, 59, 30
12, 71880, Note_off_c, 11, 59, 64
12, 71880, Note_on_c, 11, 62, 30
12, 72120, Note_off_c, 11, 62, 64
12, 72120, Note_on_c, 11, 59, 30
12, 72360, Note_off_c, 11, 59, 64
12, 72360, Note_on_c, 11, 62, 30
12, 72600, Note_off_c, 11, 62, 64
12, 72600, Note_on_c, 11, 59, 30
12, 72840, Note_off_c, 11, 59, 64
12, 72840, Note_on_c, 11, 62, 30
12, 73080, Note_off_c, 11, 62, 64
12, 73080, Note_on_c, 11, 59, 30
12, 73315, Note_off_c, 11, 59, 64
12, 73320, Note_on_c, 11, 64, 30
12, 73560, Note_off_c, 11, 64, 64
12, 73560, Note_on_c, 11, 60, 31
12, 73800, Note_off_c, 11, 60, 64
12, 73800, Note_on_c, 11, 64, 32
12, 74040, Note_off_c, 11, 64, 64
12, 74040, Note_on_c, 11, 60, 33
12, 74280, Note_off_c, 11, 60, 64
12, 74280, Note_on_c, 11, 64, 35
12, 74520, Note_off_c, 11, 64, 64
12, 74520, Note_on_c, 11, 60, 37
12, 74760, Note_off_c, 11, 60, 64
12, 74760, Note_on_c, 11, 64, 39
12, 75000, Note_off_c, 11, 64, 64
12, 75000, Note_on_c, 11, 60, 41
12, 75235, Note_off_c, 11, 60, 64
12, 75240, Note_on_c, 11, 65, 43
12, 75480, Note_off_c, 11, 65, 64
12, 75480, Note_on_c, 11, 62, 45
12, 75720, Note_off_c, 11, 62, 64
12, 75720, Note_on_c, 11, 67, 47
12, 75960, Note_off_c, 11, 67, 64
12, 75960, Note_on_c, 11, 62, 49
12, 76200, Note_off_c, 11, 62, 64
12, 76200, Note_on_c, 11, 67, 51
12, 76440, Note_off_c, 11, 67, 64
12, 76440, Note_on_c, 11, 62, 53
12, 76680, Note_off_c, 11, 62, 64
12, 76680, Note_on_c, 11, 67, 55
12, 76920, Note_off_c, 11, 67, 64
12, 76920, Note_on_c, 11, 62, 57
12, 77155, Note_off_c, 11, 62, 64
12, 77160, Note_on_c, 11, 67, 59
12, 77400, Note_off_c, 11, 67, 64
12, 77400, Note_on_c, 11, 64, 61
12, 77640, Note_off_c, 11, 64, 64
12, 77640, Note_on_c, 11, 67, 63
12, 77880, Note_off_c, 11, 67, 64
12, 77880, Note_on_c, 11, 64, 65
12, 78120, Note_off_c, 11, 64, 64
12, 78120, Note_on_c, 11, 67, 67
12, 78360, Note_off_c, 11, 67, 64
12, 78360, Note_on_c, 11, 64, 69
12, 78600, Note_off_c, 11, 64, 64
12, 78600, Note_on_c, 11, 67, 71
12, 78840, Note_off_c, 11, 67, 64
12, 78840, Note_on_c, 11, 64, 73
12, 79075, Note_off_c, 11, 64, 64
12, 79080, Note_on_c, 11, 74, 75
12, 79240, Note_off_c, 11, 74, 64
12, 79240, Note_on_c, 11, 71, 75
12, 79400, Note_off_c, 11, 71, 64
12, 79400, Note_on_c, 11, 74, 75
12, 79560, Note_off_c, 11, 74, 64
12, 79560, Note_on_c, 11, 71, 75
12, 79720, Note_off_c, 11, 71, 64
12, 79720, Note_on_c, 11, 74, 75
12, 79880, Note_off_c, 11, 74, 64
12, 79880, Note_on_c, 11, 71, 75
12, 80040, Note_off_c, 11, 71, 64
12, 80040, Note_on_c, 11, 74, 75
12, 80200, Note_off_c, 11, 74, 64
12, 80200, Note_on_c, 11, 71, 75
12, 80360, Note_off_c, 11, 71, 64
12, 80360, Note_on_c, 11, 74, 75
12, 80520, Note_off_c, 11, 74, 64
12, 80520, Note_on_c, 11, 71, 75
12, 80680, Note_off_c, 11, 71, 64
12, 80680, Note_on_c, 11, 74, 75
12, 80840, Note_off_c, 11, 74, 64
12, 80840, Note_on_c, 11, 71, 75
12, 80995, Note_off_c, 11, 71, 64
12, 81000, Note_on_c, 11, 76, 75
12, 81160, Note_off_c, 11, 76, 64
12, 81160, Note_on_c, 11, 72, 75
12, 81320, Note_off_c, 11, 72, 64
12, 81320, Note_on_c, 11, 76, 75
12, 81480, Note_off_c, 11, 76, 64
12, 81480, Note_on_c, 11, 72, 75
12, 81640, Note_off_c, 11, 72, 64
12, 81640, Note_on_c, 11, 76, 75
12, 81800, Note_off_c, 11, 76, 64
12, 81800, Note_on_c, 11, 72, 75
12, 81960, Note_off_c, 11, 72, 64
12, 81960, Note_on_c, 11, 76, 75
12, 82120, Note_off_c, 11, 76, 64
12, 82120, Note_on_c, 11, 72, 75
12, 82280, Note_off_c, 11, 72, 64
12, 82280, Note_on_c, 11, 76, 75
12, 82440, Note_off_c, 11, 76, 64
12, 82440, Note_on_c, 11, 72, 75
12, 82600, Note_off_c, 11, 72, 64
12, 82600, Note_on_c, 11, 76, 75
12, 82760, Note_off_c, 11, 76, 64
12, 82760, Note_on_c, 11, 72, 75
12, 82915, Note_off_c, 11, 72, 64
12, 82920, Note_on_c, 11, 77, 75
12, 83040, Note_off_c, 11, 77, 64
12, 83040, Note_on_c, 11, 74, 75
12, 83160, Note_off_c, 11, 74, 64
12, 83160, Note_on_c, 11, 77, 75
12, 83280, Note_off_c, 11, 77, 64
12, 83280, Note_on_c, 11, 74, 75
12, 83400, Note_off_c, 11, 74, 64
12, 83400, Note_on_c, 11, 77, 75
12, 83520, Note_off_c, 11, 77, 64
12, 83520, Note_on_c, 11, 74, 75
12, 83640, Note_off_c, 11, 74, 64
12, 83640, Note_on_c, 11, 77, 75
12, 83760, Note_off_c, 11, 77, 64
12, 83760, Note_on_c, 11, 74, 75
12, 83880, Note_off_c, 11, 74, 64
12, 83880, Note_on_c, 11, 77, 75
12, 84000, Note_off_c, 11, 77, 64
12, 84000, Note_on_c, 11, 74, 75
12, 84120, Note_off_c, 11, 74, 64
12, 84120, Note_on_c, 11, 77, 75
12, 84240, Note_off_c, 11, 77, 64
12, 84240, Note_on_c, 11, 74, 75
12, 84360, Note_off_c, 11, 74, 64
12, 84360, Note_on_c, 11, 77, 75
12, 84480, Note_off_c, 11, 77, 64
12, 84480, Note_on_c, 11, 74, 75
12, 84600, Note_off_c, 11, 74, 64
12, 84600, Note_on_c, 11, 77, 75
12, 84720, Note_off_c, 11, 77, 64
12, 84720, Note_on_c, 11, 74, 75
12, 84835, Note_off_c, 11, 74, 64
12, 84840, Note_on_c, 11, 76, 75
12, 84960, Note_off_c, 11, 76, 64
12, 84960, Note_on_c, 11, 72, 75
12, 85080, Note_off_c, 11, 72, 64
12, 85080, Note_on_c, 11, 76, 75
12, 85200, Note_off_c, 11, 76, 64
12, 85200, Note_on_c, 11, 72, 75
12, 85320, Note_off_c, 11, 72, 64
12, 85320, Note_on_c, 11, 76, 75
12, 85440, Note_off_c, 11, 76, 64
12, 85440, Note_on_c, 11, 72, 75
12, 85560, Note_off_c, 11, 72, 64
12, 85560, Note_on_c, 11, 76, 75
12, 85680, Note_off_c, 11, 76, 64
12, 85680, Note_on_c, 11, 72, 75
12, 85800, Note_off_c, 11, 72, 64
12, 85800, Note_on_c, 11, 76, 75
12, 85920, Note_off_c, 11, 76, 64
12, 85920, Note_on_c, 11, 72, 75
12, 86040, Note_off_c, 11, 72, 64
12, 86040, Note_on_c, 11, 76, 75
12, 86160, Note_off_c, 11, 76, 64
12, 86160, Note_on_c, 11, 72, 75
12, 86280, Note_off_c, 11, 72, 64
12, 86280, Note_on_c, 11, 76, 75
12, 86400, Note_off_c, 11, 76, 64
12, 86400, Note_on_c, 11, 72, 75
12, 86520, Note_off_c, 11, 72, 64
12, 86520, Note_on_c, 11, 76, 75
12, 86640, Note_off_c, 11, 76, 64
12, 86640, Note_on_c, 11, 72, 75
12, 86755, Note_off_c, 11, 72, 64
12, 86760, Note_on_c, 11, 77, 76
12, 86880, Note_off_c, 11, 77, 64
12, 86880, Note_on_c, 11, 71, 77
12, 87000, Note_off_c, 11, 71, 64
12, 87000, Note_on_c, 11, 77, 78
12, 87120, Note_off_c, 11, 77, 64
12, 87120, Note_on_c, 11, 71, 79
12, 87240, Note_off_c, 11, 71, 64
12, 87240, Note_on_c, 11, 77, 80
12, 87360, Note_off_c, 11, 77, 64
12, 87360, Note_on_c, 11, 71, 81
12, 87480, Note_off_c, 11, 71, 64
12, 87480, Note_on_c, 11, 77, 82
12, 87600, Note_off_c, 11, 77, 64
12, 87600, Note_on_c, 11, 71, 83
12, 87720, Note_off_c, 11, 71, 64
12, 87720, Note_on_c, 11, 77, 84
12, 87840, Note_off_c, 11, 77, 64
12, 87840, Note_on_c, 11, 71, 85
12, 87960, Note_off_c, 11, 71, 64
12, 87960, Note_on_c, 11, 77, 86
12, 88080, Note_off_c, 11, 77, 64
12, 88080, Note_on_c, 11, 71, 87
12, 88200, Note_off_c, 11, 71, 64
12, 88200, Note_on_c, 11, 77, 88
12, 88320, Note_off_c, 11, 77, 64
12, 88320, Note_on_c, 11, 71, 89
12, 88440, Note_off_c, 11, 71, 64
12, 88440, Note_on_c, 11, 77, 90
12, 88560, Note_off_c, 11, 77, 64
12, 88560, Note_on_c, 11, 71, 91
12, 88675, Note_off_c, 11, 71, 64
12, 88680, Note_on_c, 11, 76, 92
12, 89400, Note_off_c, 11, 76, 64
12, 89400, Note_on_c, 11, 77, 92
12, 89520, Note_off_c, 11, 77, 64
12, 89520, Note_on_c, 11, 79, 92
12, 89635, Note_off_c, 11, 79, 64
12, 89640, Note_on_c, 11, 81, 92
12, 89880, Note_off_c, 11, 81, 64
12, 89880, Note_on_c, 11, 79, 92
12, 90000, Note_off_c, 11, 79, 64
12, 90000, Note_on_c, 11, 77, 92
12, 90120, Note_off_c, 11, 77, 64
12, 90120, Note_on_c, 11, 76, 92
12, 90360, Note_off_c, 11, 76, 64
12, 90360, Note_on_c, 11, 77, 92
12, 90480, Note_off_c, 11, 77, 64
12, 90480, Note_on_c, 11, 79, 92
12, 90595, Note_off_c, 11, 79, 64
12, 90600, Note_on_c, 11, 81, 92
12, 90840, Note_off_c, 11, 81, 64
12, 90840, Note_on_c, 11, 79, 92
12, 90960, Note_off_c, 11, 79, 64
12, 90960, Note_on_c, 11, 77, 92
12, 91080, Note_off_c, 11, 77, 64
12, 91080, Note_on_c, 11, 76, 92
12, 91320, Note_off_c, 11, 76, 64
12, 91320, Note_on_c, 11, 77, 92
12, 91440, Note_off_c, 11, 77, 64
12, 91440, Note_on_c, 11, 79, 92
12, 91555, Note_off_c, 11, 79, 64
12, 91560, Note_on_c, 11, 81, 92
12, 91795, Note_off_c, 11, 81, 64
12, 92520, Note_on_c, 11, 65, 45
12, 92760, Note_off_c, 11, 65, 64
12, 92760, Note_on_c, 11, 60, 45
12, 93000, Note_off_c, 11, 60, 64
12, 93000, Note_on_c, 11, 65, 45
12, 93240, Note_off_c, 11, 65, 64
12, 93240, Note_on_c, 11, 60, 45
12, 93480, Note_off_c, 11, 60, 64
12, 93480, Note_on_c, 11, 64, 45
12, 93720, Note_off_c, 11, 64, 64
12, 93720, Note_on_c, 11, 60, 45
12, 93960, Note_off_c, 11, 60, 64
12, 93960, Note_on_c, 11, 64, 45
12, 94200, Note_off_c, 11, 64, 64
12, 94200, Note_on_c, 11, 60, 45
12, 94440, Note_off_c, 11, 60, 64
12, 94440, Note_on_c, 11, 65, 45
12, 94680, Note_off_c, 11, 65, 64
12, 94680, Note_on_c, 11, 62, 45
12, 94920, Note_off_c, 11, 62, 64
12, 94920, Note_on_c, 11, 65, 45
12, 95160, Note_off_c, 11, 65, 64
12, 95160, Note_on_c, 11, 62, 45
12, 95395, Note_off_c, 11, 62, 64
12, 95400, Note_on_c, 11, 76, 92
12, 96120, Note_off_c, 11, 76, 64
12, 96120, Note_on_c, 11, 77, 92
12, 96240, Note_off_c, 11, 77, 64
12, 96240, Note_on_c, 11, 79, 92
12, 96355, Note_off_c, 11, 79, 64
12, 96360, Note_on_c, 11, 81, 92
12, 96600, Note_off_c, 11, 81, 64
12, 96600, Note_on_c, 11, 79, 92
12, 96720, Note_off_c, 11, 79, 64
12, 96720, Note_on_c, 11, 77, 92
12, 96840, Note_off_c, 11, 77, 64
12, 96840, Note_on_c, 11, 76, 92
12, 97080, Note_off_c, 11, 76, 64
12, 97080, Note_on_c, 11, 77, 92
12, 97200, Note_off_c, 11, 77, 64
12, 97200, Note_on_c, 11, 79, 92
12, 97315, Note_off_c, 11, 79, 64
12, 97320, Note_on_c, 11, 81, 92
12, 97560, Note_off_c, 11, 81, 64
12, 97560, Note_on_c, 11, 79, 92
12, 97680, Note_off_c, 11, 79, 64
12, 97680, Note_on_c, 11, 77, 92
12, 97800, Note_off_c, 11, 77, 64
12, 97800, Note_on_c, 11, 76, 92
12, 98040, Note_off_c, 11, 76, 64
12, 98040, Note_on_c, 11, 77, 92
12, 98160, Note_off_c, 11, 77, 64
12, 98160, Note_on_c, 11, 79, 92
12, 98275, Note_off_c, 11, 79, 64
12, 98280, Note_on_c, 11, 81, 92
12, 98515, Note_off_c, 11, 81, 64
12, 99240, Note_on_c, 11, 65, 45
12, 99480, Note_off_c, 11, 65, 64
12, 99480, Note_on_c, 11, 60, 45
12, 99720, Note_off_c, 11, 60, 64
12, 99720, Note_on_c, 11, 65, 45
12, 99960, Note_off_c, 11, 65, 64
12, 99960, Note_on_c, 11, 60, 45
12, 100200, Note_off_c, 11, 60, 64
12, 100200, Note_on_c, 11, 64, 45
12, 100440, Note_off_c, 11, 64, 64
12, 100440, Note_on_c, 11, 60, 45
12, 100680, Note_off_c, 11, 60, 64
12, 100680, Note_on_c, 11, 64, 45
12, 100920, Note_off_c, 11, 64, 64
12, 100920, Note_on_c, 11, 60, 45
12, 101160, Note_off_c, 11, 60, 64
12, 101160, Note_on_c, 11, 65, 45
12, 101400, Note_off_c, 11, 65, 64
12, 101400, Note_on_c, 11, 62, 45
12, 101640, Note_off_c, 11, 62, 64
12, 101640, Note_on_c, 11, 65, 45
12, 101880, Note_off_c, 11, 65, 64
12, 101880, Note_on_c, 11, 62, 45
12, 102115, Note_off_c, 11, 62, 64
12, 102120, Note_on_c, 11, 64, 45
12, 102355, Note_off_c, 11, 64, 64
12, 102360, Note_on_c, 11, 60, 45
12, 102595, Note_off_c, 11, 60, 64
12, 102600, Note_on_c, 11, 60, 45
12, 102835, Note_off_c, 11, 60, 64
12, 102840, Note_on_c, 11, 60, 48
12, 103075, Note_off_c, 11, 60, 64
12, 103080, Note_on_c, 11, 65, 51
12, 103320, Note_off_c, 11, 65, 64
12, 103320, Note_on_c, 11, 60, 54
12, 103560, Note_off_c, 11, 60, 64
12, 103560, Note_on_c, 11, 65, 57
12, 103800, Note_off_c, 11, 65, 64
12, 103800, Note_on_c, 11, 60, 60
12, 104040, Note_off_c, 11, 60, 64
12, 104040, Note_on_c, 11, 64, 63
12, 104280, Note_off_c, 11, 64, 64
12, 104280, Note_on_c, 11, 60, 66
12, 104520, Note_off_c, 11, 60, 64
12, 104520, Note_on_c, 11, 64, 69
12, 104760, Note_off_c, 11, 64, 64
12, 104760, Note_on_c, 11, 60, 72
12, 105000, Note_off_c, 11, 60, 64
12, 105000, Note_on_c, 11, 65, 76
12, 105240, Note_off_c, 11, 65, 64
12, 105240, Note_on_c, 11, 62, 80
12, 105480, Note_off_c, 11, 62, 64
12, 105480, Note_on_c, 11, 65, 84
12, 105720, Note_off_c, 11, 65, 64
12, 105720, Note_on_c, 11, 62, 88
12, 105955, Note_off_c, 11, 62, 64
12, 105960, Note_on_c, 11, 64, 92
12, 106115, Note_off_c, 11, 64, 64
12, 106120, Note_on_c, 11, 72, 92
12, 106120, Note_on_c, 11, 76, 92
12, 106275, Note_off_c, 11, 76, 64
12, 106275, Note_off_c, 11, 72, 64
12, 106280, Note_on_c, 11, 72, 92
12, 106280, Note_on_c, 11, 76, 92
12, 106435, Note_off_c, 11, 76, 64
12, 106435, Note_off_c, 11, 72, 64
12, 106440, Note_on_c, 11, 72, 92
12, 106440, Note_on_c, 11, 76, 92
12, 106595, Note_off_c, 11, 76, 64
12, 106595, Note_off_c, 11, 72, 64
12, 106600, Note_on_c, 11, 72, 92
12, 106600, Note_on_c, 11, 77, 92
12, 106755, Note_off_c, 11, 77, 64
12, 106755, Note_off_c, 11, 72, 64
12, 106760, Note_on_c, 11, 72, 92
12, 106760, Note_on_c, 11, 79, 92
12, 106915, Note_off_c, 11, 79, 64
12, 106915, Note_off_c, 11, 72, 64
12, 106920, Note_on_c, 11, 81, 92
12, 107075, Note_off_c, 11, 81, 64
12, 107080, Note_on_c, 11, 72, 92
12, 107235, Note_off_c, 11, 72, 64
12, 107240, Note_on_c, 11, 81, 92
12, 107395, Note_off_c, 11, 81, 64
12, 107400, Note_on_c, 11, 72, 92
12, 107555, Note_off_c, 11, 72, 64
12, 107560, Note_on_c, 11, 79, 92
12, 107715, Note_off_c, 11, 79, 64
12, 107720, Note_on_c, 11, 77, 92
12, 107875, Note_off_c, 11, 77, 64
12, 107880, Note_on_c, 11, 76, 92
12, 108035, Note_off_c, 11, 76, 64
12, 108040, Note_on_c, 11, 67, 92
12, 108195, Note_off_c, 11, 67, 64
12, 108200, Note_on_c, 11, 76, 92
12, 108355, Note_off_c, 11, 76, 64
12, 108360, Note_on_c, 11, 67, 92
12, 108515, Note_off_c, 11, 67, 64
12, 108520, Note_on_c, 11, 74, 92
12, 108675, Note_off_c, 11, 74, 64
12, 108680, Note_on_c, 11, 72, 92
12, 108835, Note_off_c, 11, 72, 64
12, 108840, Note_on_c, 11, 65, 92
12, 108995, Note_off_c, 11, 65, 64
12, 109000, Note_on_c, 11, 62, 92
12, 109155, Note_off_c, 11, 62, 64
12, 109160, Note_on_c, 11, 65, 92
12, 109315, Note_off_c, 11, 65, 64
12, 109320, Note_on_c, 11, 62, 92
12, 109475, Note_off_c, 11, 62, 64
12, 109480, Note_on_c, 11, 64, 92
12, 109635, Note_off_c, 11, 64, 64
12, 109640, Note_on_c, 11, 65, 92
12, 109795, Note_off_c, 11, 65, 64
12, 109800, Note_on_c, 11, 60, 92
12, 110200, Note_off_c, 11, 60, 64
12, 110520, Note_on_c, 11, 64, 92
12, 110640, Note_off_c, 11, 64, 64
12, 110640, Note_on_c, 11, 62, 92
12, 110760, Note_off_c, 11, 62, 64
12, 110760, Note_on_c, 11, 60, 92
12, 110840, Note_off_c, 11, 60, 64
12, 111000, Note_on_c, 11, 64, 92
12, 111120, Note_off_c, 11, 64, 64
12, 111120, Note_on_c, 11, 62, 92
12, 111240, Note_off_c, 11, 62, 64
12, 111240, Note_on_c, 11, 60, 92
12, 111320, Note_off_c, 11, 60, 64
12, 111480, Note_on_c, 11, 69, 92
12, 111600, Note_off_c, 11, 69, 64
12, 111600, Note_on_c, 11, 66, 92
12, 111720, Note_off_c, 11, 66, 64
12, 111720, Note_on_c, 11, 67, 92
12, 112120, Note_off_c, 11, 67, 64
12, 112440, Note_on_c, 11, 69, 92
12, 112560, Note_off_c, 11, 69, 64
12, 112560, Note_on_c, 11, 67, 92
12, 112680, Note_off_c, 11, 67, 64
12, 112680, Note_on_c, 11, 64, 92
12, 112760, Note_off_c, 11, 64, 64
12, 112920, Note_on_c, 11, 67, 92
12, 113040, Note_off_c, 11, 67, 64
12, 113040, Note_on_c, 11, 65, 92
12, 113160, Note_off_c, 11, 65, 64
12, 113160, Note_on_c, 11, 62, 92
12, 113240, Note_off_c, 11, 62, 64
12, 113400, Note_on_c, 11, 65, 92
12, 113520, Note_off_c, 11, 65, 64
12, 113520, Note_on_c, 11, 64, 92
12, 113640, Note_off_c, 11, 64, 64
12, 113640, Note_on_c, 11, 60, 92
12, 114040, Note_off_c, 11, 60, 64
12, 114360, Note_on_c, 11, 64, 92
12, 114480, Note_off_c, 11, 64, 64
12, 114480, Note_on_c, 11, 62, 92
12, 114600, Note_off_c, 11, 62, 64
12, 114600, Note_on_c, 11, 60, 92
12, 114680, Note_off_c, 11, 60, 64
12, 114840, Note_on_c, 11, 64, 92
12, 114960, Note_off_c, 11, 64, 64
12, 114960, Note_on_c, 11, 62, 92
12, 115080, Note_off_c, 11, 62, 64
12, 115080, Note_on_c, 11, 60, 92
12, 115160, Note_off_c, 11, 60, 64
12, 115320, Note_on_c, 11, 69, 92
12, 115440, Note_off_c, 11, 69, 64
12, 115440, Note_on_c, 11, 66, 92
12, 115560, Note_off_c, 11, 66, 64
12, 115560, Note_on_c, 11, 67, 92
12, 115960, Note_off_c, 11, 67, 64
12, 116280, Note_on_c, 11, 69, 91
12, 116400, Note_off_c, 11, 69, 64
12, 116400, Note_on_c, 11, 67, 91
12, 116520, Note_off_c, 11, 67, 64
12, 116520, Note_on_c, 11, 64, 91
12, 116600, Note_off_c, 11, 64, 64
12, 116760, Note_on_c, 11, 67, 89
12, 116880, Note_off_c, 11, 67, 64
12, 116880, Note_on_c, 11, 65, 88
12, 117000, Note_off_c, 11, 65, 64
12, 117000, Note_on_c, 11, 62, 87
12, 117080, Note_off_c, 11, 62, 64
12, 117240, Note_on_c, 11, 65, 85
12, 117360, Note_off_c, 11, 65, 64
12, 117360, Note_on_c, 11, 64, 84
12, 117480, Note_off_c, 11, 64, 64
12, 117480, Note_on_c, 11, 60, 83
12, 117560, Note_off_c, 11, 60, 64
12, 117720, Note_on_c, 11, 67, 81
12, 117840, Note_off_c, 11, 67, 64
12, 117840, Note_on_c, 11, 64, 80
12, 117960, Note_off_c, 11, 64, 64
12, 117960, Note_on_c, 11, 62, 79
12, 118040, Note_off_c, 11, 62, 64
12, 118200, Note_on_c, 11, 67, 77
12, 118320, Note_off_c, 11, 67, 64
12, 118320, Note_on_c, 11, 65, 76
12, 118440, Note_off_c, 11, 65, 64
12, 118440, Note_on_c, 11, 60, 75
12, 118520, Note_off_c, 11, 60, 64
12, 118680, Note_on_c, 11, 67, 75
12, 118800, Note_off_c, 11, 67, 64
12, 118800, Note_on_c, 11, 64, 75
12, 118920, Note_off_c, 11, 64, 64
12, 118920, Note_on_c, 11, 62, 75
12, 119000, Note_off_c, 11, 62, 64
12, 119160, Note_on_c, 11, 67, 75
12, 119280, Note_off_c, 11, 67, 64
12, 119280, Note_on_c, 11, 65, 75
12, 119400, Note_off_c, 11, 65, 64
12, 119400, Note_on_c, 11, 60, 75
12, 119480, Note_off_c, 11, 60, 64
12, 119640, Note_on_c, 11, 67, 72
12, 119760, Note_off_c, 11, 67, 64
12, 119760, Note_on_c, 11, 64, 71
12, 119880, Note_off_c, 11, 64, 64
12, 119880, Note_on_c, 11, 62, 69
12, 119960, Note_off_c, 11, 62, 64
12, 120120, Note_on_c, 11, 67, 65
12, 120240, Note_off_c, 11, 67, 64
12, 120240, Note_on_c, 11, 65, 63
12, 120360, Note_off_c, 11, 65, 64
12, 120360, Note_on_c, 11, 60, 61
12, 120440, Note_off_c, 11, 60, 64
12, 120600, Note_on_c, 11, 67, 57
12, 120720, Note_off_c, 11, 67, 64
12, 120720, Note_on_c, 11, 64, 55
12, 120840, Note_off_c, 11, 64, 64
12, 120840, Note_on_c, 11, 62, 53
12, 120920, Note_off_c, 11, 62, 64
12, 121080, Note_on_c, 11, 67, 49
12, 121200, Note_off_c, 11, 67, 64
12, 121200, Note_on_c, 11, 65, 47
12, 121320, Note_off_c, 11, 65, 64
12, 121320, Note_on_c, 11, 60, 45
12, 121400, Note_off_c, 11, 60, 64
12, 121560, Note_on_c, 11, 67, 45
12, 121680, Note_off_c, 11, 67, 64
12, 121680, Note_on_c, 11, 64, 45
12, 121800, Note_off_c, 11, 64, 64
12, 121800, Note_on_c, 11, 62, 45
12, 121880, Note_off_c, 11, 62, 64
12, 122040, Note_on_c, 11, 67, 45
12, 122160, Note_off_c, 11, 67, 64
12, 122160, Note_on_c, 11, 65, 45
12, 122280, Note_off_c, 11, 65, 64
12, 122280, Note_on_c, 11, 60, 45
12, 122360, Note_off_c, 11, 60, 64
12, 122520, Note_on_c, 11, 67, 45
12, 122640, Note_off_c, 11, 67, 64
12, 122640, Note_on_c, 11, 64, 45
12, 122760, Note_off_c, 11, 64, 64
12, 122760, Note_on_c, 11, 62, 45
12, 122840, Note_off_c, 11, 62, 64
12, 123000, Note_on_c, 11, 67, 45
12, 123120, Note_off_c, 11, 67, 64
12, 123120, Note_on_c, 11, 65, 45
12, 123240, Note_off_c, 11, 65, 64
12, 123240, Note_on_c, 11, 60, 45
12, 123320, Note_off_c, 11, 60, 64
12, 123480, Note_on_c, 11, 67, 45
12, 123600, Note_off_c, 11, 67, 64
12, 123600, Note_on_c, 11, 64, 45
12, 123720, Note_off_c, 11, 64, 64
12, 123720, Note_on_c, 11, 62, 45
12, 123800, Note_off_c, 11, 62, 64
12, 123960, Note_on_c, 11, 67, 45
12, 124080, Note_off_c, 11, 67, 64
12, 124080, Note_on_c, 11, 65, 45
12, 124200, Note_off_c, 11, 65, 64
12, 124200, Note_on_c, 11, 60, 30
12, 124280, Note_off_c, 11, 60, 64
12, 124440, Note_on_c, 11, 67, 30
12, 124560, Note_off_c, 11, 67, 64
12, 124560, Note_on_c, 11, 64, 30
12, 124680, Note_off_c, 11, 64, 64
12, 124680, Note_on_c, 11, 62, 30
12, 124760, Note_off_c, 11, 62, 64
12, 124920, Note_on_c, 11, 67, 30
12, 125040, Note_off_c, 11, 67, 64
12, 125040, Note_on_c, 11, 65, 30
12, 125155, Note_off_c, 11, 65, 64
12, 125160, Note_on_c, 11, 60, 30
12, 125640, Note_off_c, 11, 60, 64
12, 125640, Note_on_c, 11, 55, 30
12, 126120, Note_off_c, 11, 55, 64
12, 126120, Note_on_c, 11, 60, 10
12, 126600, Note_off_c, 11, 60, 64
12, 126600, Note_on_c, 11, 55, 10
12, 127080, Note_off_c, 11, 55, 64
12, 127080, Note_on_c, 11, 60, 10
12, 127560, Note_off_c, 11, 60, 64
12, 127560, Note_on_c, 11, 55, 10
12, 128040, Note_off_c, 11, 55, 64
12, 128040, Note_on_c, 11, 60, 10
12, 128520, Note_off_c, 11, 60, 64
12, 128520, Note_on_c, 11, 55, 10
12, 129000, Note_off_c, 11, 55, 64
12, 129000, Note_on_c, 11, 60, 10
12, 129080, Note_off_c, 11, 60, 64
12, 132960, Note_on_c, 11, 58, 45
12, 134760, Note_off_c, 11, 58, 64
12, 134880, Note_on_c, 11, 58, 45
12, 136680, Note_off_c, 11, 58, 64
12, 144360, Program_c, 11, 50
12, 144360, Note_on_c, 11, 65, 60
12, 144440, Note_off_c, 11, 65, 64
12, 144600, Note_on_c, 11, 70, 60
12, 144680, Note_off_c, 11, 70, 64
12, 144840, Note_on_c, 11, 65, 60
12, 144960, Note_off_c, 11, 65, 64
12, 144960, Note_on_c, 11, 63, 60
12, 145080, Note_off_c, 11, 63, 64
12, 145080, Note_on_c, 11, 62, 60
12, 145160, Note_off_c, 11, 62, 64
12, 145320, Note_on_c, 11, 58, 60
12, 145400, Note_off_c, 11, 58, 64
12, 145560, Note_on_c, 11, 70, 60
12, 145640, Note_off_c, 11, 70, 64
12, 145800, Note_on_c, 11, 65, 60
12, 145920, Note_off_c, 11, 65, 64
12, 145920, Note_on_c, 11, 63, 60
12, 146040, Note_off_c, 11, 63, 64
12, 146040, Note_on_c, 11, 62, 60
12, 146120, Note_off_c, 11, 62, 64
12, 146280, Note_on_c, 11, 58, 60
12, 146360, Note_off_c, 11, 58, 64
12, 146520, Note_on_c, 11, 70, 60
12, 146600, Note_off_c, 11, 70, 64
12, 146760, Note_on_c, 11, 65, 60
12, 146880, Note_off_c, 11, 65, 64
12, 146880, Note_on_c, 11, 63, 60
12, 147000, Note_off_c, 11, 63, 64
12, 147000, Note_on_c, 11, 62, 60
12, 147080, Note_off_c, 11, 62, 64
12, 147240, Note_on_c, 11, 58, 60
12, 147320, Note_off_c, 11, 58, 64
12, 147480, Note_on_c, 11, 70, 60
12, 147560, Note_off_c, 11, 70, 64
12, 147720, Note_on_c, 11, 65, 60
12, 147840, Note_off_c, 11, 65, 64
12, 147840, Note_on_c, 11, 63, 60
12, 147960, Note_off_c, 11, 63, 64
12, 147960, Note_on_c, 11, 62, 60
12, 148040, Note_off_c, 11, 62, 64
12, 148200, Note_on_c, 11, 58, 60
12, 148280, Note_off_c, 11, 58, 64
12, 148440, Program_c, 11, 48
12, 148440, Note_on_c, 11, 70, 60
12, 148520, Note_off_c, 11, 70, 64
12, 148680, Note_on_c, 11, 65, 60
12, 148800, Note_off_c, 11, 65, 64
12, 148800, Note_on_c, 11, 63, 60
12, 148920, Note_off_c, 11, 63, 64
12, 148920, Note_on_c, 11, 62, 60
12, 149000, Note_off_c, 11, 62, 64
12, 149160, Note_on_c, 11, 58, 60
12, 149240, Note_off_c, 11, 58, 64
12, 149400, Note_on_c, 11, 70, 60
12, 149480, Note_off_c, 11, 70, 64
12, 149640, Note_on_c, 11, 65, 60
12, 149760, Note_off_c, 11, 65, 64
12, 149760, Note_on_c, 11, 63, 60
12, 149880, Note_off_c, 11, 63, 64
12, 149880, Note_on_c, 11, 62, 60
12, 149960, Note_off_c, 11, 62, 64
12, 150120, Note_on_c, 11, 58, 60
12, 150200, Note_off_c, 11, 58, 64
12, 150360, Note_on_c, 11, 70, 60
12, 150440, Note_off_c, 11, 70, 64
12, 150600, Note_on_c, 11, 65, 60
12, 150720, Note_off_c, 11, 65, 64
12, 150720, Note_on_c, 11, 63, 60
12, 150840, Note_off_c, 11, 63, 64
12, 150840, Note_on_c, 11, 62, 60
12, 150920, Note_off_c, 11, 62, 64
12, 151080, Note_on_c, 11, 58, 60
12, 151160, Note_off_c, 11, 58, 64
12, 151320, Note_on_c, 11, 70, 60
12, 151400, Note_off_c, 11, 70, 64
12, 151560, Note_on_c, 11, 65, 60
12, 151680, Note_off_c, 11, 65, 64
12, 151680, Note_on_c, 11, 63, 60
12, 151800, Note_off_c, 11, 63, 64
12, 151800, Note_on_c, 11, 62, 60
12, 151880, Note_off_c, 11, 62, 64
12, 152040, Note_on_c, 11, 58, 60
12, 152120, Note_off_c, 11, 58, 64
12, 152280, Note_on_c, 11, 74, 60
12, 156000, Note_off_c, 11, 74, 64
12, 156120, Note_on_c, 11, 69, 68
12, 156200, Note_off_c, 11, 69, 64
12, 156360, Note_on_c, 11, 66, 68
12, 156480, Note_off_c, 11, 66, 64
12, 156480, Note_on_c, 11, 64, 68
12, 156600, Note_off_c, 11, 64, 64
12, 156600, Note_on_c, 11, 62, 68
12, 156680, Note_off_c, 11, 62, 64
12, 156840, Note_on_c, 11, 57, 68
12, 156920, Note_off_c, 11, 57, 64
12, 157080, Note_on_c, 11, 69, 68
12, 157160, Note_off_c, 11, 69, 64
12, 157320, Note_on_c, 11, 66, 68
12, 157440, Note_off_c, 11, 66, 64
12, 157440, Note_on_c, 11, 64, 68
12, 157560, Note_off_c, 11, 64, 64
12, 157560, Note_on_c, 11, 62, 68
12, 157640, Note_off_c, 11, 62, 64
12, 157800, Note_on_c, 11, 57, 68
12, 157880, Note_off_c, 11, 57, 64
12, 158040, Note_on_c, 11, 69, 68
12, 158120, Note_off_c, 11, 69, 64
12, 158280, Note_on_c, 11, 66, 68
12, 158400, Note_off_c, 11, 66, 64
12, 158400, Note_on_c, 11, 64, 68
12, 158520, Note_off_c, 11, 64, 64
12, 158520, Note_on_c, 11, 62, 68
12, 158600, Note_off_c, 11, 62, 64
12, 158760, Note_on_c, 11, 57, 68
12, 158840, Note_off_c, 11, 57, 64
12, 159000, Note_on_c, 11, 69, 68
12, 159080, Note_off_c, 11, 69, 64
12, 159240, Note_on_c, 11, 66, 68
12, 159360, Note_off_c, 11, 66, 64
12, 159360, Note_on_c, 11, 64, 68
12, 159480, Note_off_c, 11, 64, 64
12, 159480, Note_on_c, 11, 62, 68
12, 159560, Note_off_c, 11, 62, 64
12, 159720, Note_on_c, 11, 57, 68
12, 159800, Note_off_c, 11, 57, 64
12, 159960, Note_on_c, 11, 74, 68
12, 163680, Note_off_c, 11, 74, 64
12, 163800, Note_on_c, 11, 74, 80
12, 163880, Note_off_c, 11, 74, 64
12, 164040, Note_on_c, 11, 69, 80
12, 164160, Note_off_c, 11, 69, 64
12, 164160, Note_on_c, 11, 67, 80
12, 164280, Note_off_c, 11, 67, 64
12, 164280, Note_on_c, 11, 66, 80
12, 164360, Note_off_c, 11, 66, 64
12, 164520, Note_on_c, 11, 62, 80
12, 164600, Note_off_c, 11, 62, 64
12, 164760, Note_on_c, 11, 74, 80
12, 164840, Note_off_c, 11, 74, 64
12, 165000, Note_on_c, 11, 69, 81
12, 165120, Note_off_c, 11, 69, 64
12, 165120, Note_on_c, 11, 67, 81
12, 165240, Note_off_c, 11, 67, 64
12, 165240, Note_on_c, 11, 66, 81
12, 165320, Note_off_c, 11, 66, 64
12, 165480, Note_on_c, 11, 62, 82
12, 165560, Note_off_c, 11, 62, 64
12, 165720, Note_on_c, 11, 74, 83
12, 165800, Note_off_c, 11, 74, 64
12, 165960, Note_on_c, 11, 69, 84
12, 166080, Note_off_c, 11, 69, 64
12, 166080, Note_on_c, 11, 67, 84
12, 166200, Note_off_c, 11, 67, 64
12, 166200, Note_on_c, 11, 66, 84
12, 166280, Note_off_c, 11, 66, 64
12, 166440, Note_on_c, 11, 62, 85
12, 166520, Note_off_c, 11, 62, 64
12, 166680, Note_on_c, 11, 74, 86
12, 166760, Note_off_c, 11, 74, 64
12, 166920, Note_on_c, 11, 69, 87
12, 167040, Note_off_c, 11, 69, 64
12, 167040, Note_on_c, 11, 67, 87
12, 167160, Note_off_c, 11, 67, 64
12, 167160, Note_on_c, 11, 66, 88
12, 167240, Note_off_c, 11, 66, 64
12, 167400, Note_on_c, 11, 62, 90
12, 167480, Note_off_c, 11, 62, 64
12, 167640, Program_c, 11, 44
12, 167640, Note_on_c, 11, 78, 92
12, 168480, Note_off_c, 11, 78, 64
12, 168600, Note_on_c, 11, 78, 92
12, 169440, Note_off_c, 11, 78, 64
12, 169560, Note_on_c, 11, 78, 92
12, 170400, Note_off_c, 11, 78, 64
12, 170520, Note_on_c, 11, 78, 92
12, 171360, Note_off_c, 11, 78, 64
12, 171480, Program_c, 11, 48
12, 171480, Note_on_c, 11, 78, 92
12, 171715, Note_off_c, 11, 78, 64
12, 172440, Program_c, 11, 50
12, 172440, Note_on_c, 11, 74, 92
12, 172520, Note_off_c, 11, 74, 64
12, 172680, Note_on_c, 11, 69, 92
12, 172800, Note_off_c, 11, 69, 64
12, 172800, Note_on_c, 11, 67, 92
12, 172920, Note_off_c, 11, 67, 64
12, 172920, Note_on_c, 11, 66, 92
12, 173000, Note_off_c, 11, 66, 64
12, 173160, Note_on_c, 11, 62, 92
12, 173240, Note_off_c, 11, 62, 64
12, 174360, Note_on_c, 11, 78, 75
12, 174440, Note_off_c, 11, 78, 64
12, 174600, Note_on_c, 11, 76, 75
12, 174720, Note_off_c, 11, 76, 64
12, 174720, Note_on_c, 11, 74, 75
12, 174840, Note_off_c, 11, 74, 64
12, 174840, Note_on_c, 11, 69, 75
12, 174920, Note_off_c, 11, 69, 64
12, 175080, Note_on_c, 11, 66, 75
12, 175160, Note_off_c, 11, 66, 64
12, 184920, Program_c, 11, 48
12, 184920, Note_on_c, 11, 79, 60
12, 186000, Note_off_c, 11, 79, 64
12, 186000, Note_on_c, 11, 78, 60
12, 186120, Note_off_c, 11, 78, 64
12, 186120, Note_on_c, 11, 76, 60
12, 186240, Note_off_c, 11, 76, 64
12, 186240, Note_on_c, 11, 74, 60
12, 186355, Note_off_c, 11, 74, 64
12, 186360, Note_on_c, 11, 74, 60
12, 186440, Note_off_c, 11, 74, 64
12, 186600, Note_on_c, 11, 74, 60
12, 186680, Note_off_c, 11, 74, 64
12, 187320, Note_on_c, 11, 74, 60
12, 187555, Note_off_c, 11, 74, 64
12, 187560, Note_on_c, 11, 74, 60
12, 187795, Note_off_c, 11, 74, 64
12, 188280, Note_on_c, 11, 74, 60
12, 188515, Note_off_c, 11, 74, 64
12, 188520, Note_on_c, 11, 74, 60
12, 188755, Note_off_c, 11, 74, 64
12, 188760, Note_on_c, 11, 55, 60
12, 188760, Note_on_c, 11, 62, 60
12, 188760, Note_on_c, 11, 71, 60
12, 188995, Note_off_c, 11, 71, 64
12, 188995, Note_off_c, 11, 62, 64
12, 188995, Note_off_c, 11, 55, 64
12, 192600, Note_on_c, 11, 67, 60
12, 192680, Note_off_c, 11, 67, 64
12, 192840, Note_on_c, 11, 62, 60
12, 192960, Note_off_c, 11, 62, 64
12, 192960, Note_on_c, 11, 60, 60
12, 193080, Note_off_c, 11, 60, 64
12, 193080, Note_on_c, 11, 59, 60
12, 193160, Note_off_c, 11, 59, 64
12, 193320, Note_on_c, 11, 55, 60
12, 193400, Note_off_c, 11, 55, 64
12, 193560, Note_on_c, 11, 67, 60
12, 193640, Note_off_c, 11, 67, 64
12, 193800, Note_on_c, 11, 62, 60
12, 193920, Note_off_c, 11, 62, 64
12, 193920, Note_on_c, 11, 60, 60
12, 194040, Note_off_c, 11, 60, 64
12, 194040, Note_on_c, 11, 59, 60
12, 194120, Note_off_c, 11, 59, 64
12, 194280, Note_on_c, 11, 55, 60
12, 194360, Note_off_c, 11, 55, 64
12, 194520, Note_on_c, 11, 67, 60
12, 194600, Note_off_c, 11, 67, 64
12, 194760, Note_on_c, 11, 62, 60
12, 194880, Note_off_c, 11, 62, 64
12, 194880, Note_on_c, 11, 60, 60
12, 195000, Note_off_c, 11, 60, 64
12, 195000, Note_on_c, 11, 59, 60
12, 195080, Note_off_c, 11, 59, 64
12, 195240, Note_on_c, 11, 55, 60
12, 195320, Note_off_c, 11, 55, 64
12, 195480, Note_on_c, 11, 67, 60
12, 195560, Note_off_c, 11, 67, 64
12, 195720, Note_on_c, 11, 62, 60
12, 195840, Note_off_c, 11, 62, 64
12, 195840, Note_on_c, 11, 60, 60
12, 195960, Note_off_c, 11, 60, 64
12, 195960, Note_on_c, 11, 59, 60
12, 196040, Note_off_c, 11, 59, 64
12, 196200, Note_on_c, 11, 55, 60
12, 196280, Note_off_c, 11, 55, 64
12, 196440, Note_on_c, 11, 71, 60
12, 200160, Note_off_c, 11, 71, 64
12, 200280, Note_on_c, 11, 71, 75
12, 200360, Note_off_c, 11, 71, 64
12, 200520, Note_on_c, 11, 69, 75
12, 200640, Note_off_c, 11, 69, 64
12, 200640, Note_on_c, 11, 68, 75
12, 200760, Note_off_c, 11, 68, 64
12, 200760, Note_on_c, 11, 64, 75
12, 200840, Note_off_c, 11, 64, 64
12, 201000, Note_on_c, 11, 59, 75
12, 201080, Note_off_c, 11, 59, 64
12, 201240, Note_on_c, 11, 71, 75
12, 201320, Note_off_c, 11, 71, 64
12, 201480, Note_on_c, 11, 69, 75
12, 201600, Note_off_c, 11, 69, 64
12, 201600, Note_on_c, 11, 68, 75
12, 201720, Note_off_c, 11, 68, 64
12, 201720, Note_on_c, 11, 64, 75
12, 201800, Note_off_c, 11, 64, 64
12, 201960, Note_on_c, 11, 59, 75
12, 202040, Note_off_c, 11, 59, 64
12, 202200, Note_on_c, 11, 71, 75
12, 202280, Note_off_c, 11, 71, 64
12, 202440, Note_on_c, 11, 69, 75
12, 202560, Note_off_c, 11, 69, 64
12, 202560, Note_on_c, 11, 68, 75
12, 202680, Note_off_c, 11, 68, 64
12, 202680, Note_on_c, 11, 64, 75
12, 202760, Note_off_c, 11, 64, 64
12, 202920, Note_on_c, 11, 59, 75
12, 203000, Note_off_c, 11, 59, 64
12, 203160, Note_on_c, 11, 71, 75
12, 203240, Note_off_c, 11, 71, 64
12, 203400, Note_on_c, 11, 69, 75
12, 203520, Note_off_c, 11, 69, 64
12, 203520, Note_on_c, 11, 68, 75
12, 203640, Note_off_c, 11, 68, 64
12, 203640, Note_on_c, 11, 64, 75
12, 203720, Note_off_c, 11, 64, 64
12, 203880, Note_on_c, 11, 59, 75
12, 203960, Note_off_c, 11, 59, 64
12, 204120, Note_on_c, 11, 76, 75
12, 207840, Note_off_c, 11, 76, 64
12, 207960, Note_on_c, 11, 80, 83
12, 208040, Note_off_c, 11, 80, 64
12, 208200, Note_on_c, 11, 78, 83
12, 208320, Note_off_c, 11, 78, 64
12, 208320, Note_on_c, 11, 76, 83
12, 208440, Note_off_c, 11, 76, 64
12, 208440, Note_on_c, 11, 71, 83
12, 208520, Note_off_c, 11, 71, 64
12, 208680, Note_on_c, 11, 68, 83
12, 208760, Note_off_c, 11, 68, 64
12, 208920, Note_on_c, 11, 80, 83
12, 209000, Note_off_c, 11, 80, 64
12, 209160, Note_on_c, 11, 78, 83
12, 209280, Note_off_c, 11, 78, 64
12, 209280, Note_on_c, 11, 76, 83
12, 209400, Note_off_c, 11, 76, 64
12, 209400, Note_on_c, 11, 71, 83
12, 209480, Note_off_c, 11, 71, 64
12, 209640, Note_on_c, 11, 68, 83
12, 209720, Note_off_c, 11, 68, 64
12, 209880, Note_on_c, 11, 80, 84
12, 209960, Note_off_c, 11, 80, 64
12, 210120, Note_on_c, 11, 78, 85
12, 210240, Note_off_c, 11, 78, 64
12, 210240, Note_on_c, 11, 76, 85
12, 210360, Note_off_c, 11, 76, 64
12, 210360, Note_on_c, 11, 71, 85
12, 210440, Note_off_c, 11, 71, 64
12, 210600, Note_on_c, 11, 68, 86
12, 210680, Note_off_c, 11, 68, 64
12, 210840, Note_on_c, 11, 80, 87
12, 210920, Note_off_c, 11, 80, 64
12, 211080, Note_on_c, 11, 78, 88
12, 211200, Note_off_c, 11, 78, 64
12, 211200, Note_on_c, 11, 76, 88
12, 211320, Note_off_c, 11, 76, 64
12, 211320, Note_on_c, 11, 71, 88
12, 211400, Note_off_c, 11, 71, 64
12, 211560, Note_on_c, 11, 68, 90
12, 211640, Note_off_c, 11, 68, 64
12, 211800, Note_on_c, 11, 80, 92
12, 211855, Note_off_c, 11, 80, 64
12, 211860, Note_on_c, 11, 80, 92
12, 211915, Note_off_c, 11, 80, 64
12, 211920, Note_on_c, 11, 80, 92
12, 211975, Note_off_c, 11, 80, 64
12, 211980, Note_on_c, 11, 80, 92
12, 212035, Note_off_c, 11, 80, 64
12, 212040, Note_on_c, 11, 80, 92
12, 212095, Note_off_c, 11, 80, 64
12, 212100, Note_on_c, 11, 80, 92
12, 212155, Note_off_c, 11, 80, 64
12, 212160, Note_on_c, 11, 80, 92
12, 212215, Note_off_c, 11, 80, 64
12, 212220, Note_on_c, 11, 80, 92
12, 212275, Note_off_c, 11, 80, 64
12, 212280, Note_on_c, 11, 80, 92
12, 212335, Note_off_c, 11, 80, 64
12, 212340, Note_on_c, 11, 80, 92
12, 212395, Note_off_c, 11, 80, 64
12, 212400, Note_on_c, 11, 80, 92
12, 212455, Note_off_c, 11, 80, 64
12, 212460, Note_on_c, 11, 80, 92
12, 212515, Note_off_c, 11, 80, 64
12, 212520, Note_on_c, 11, 80, 92
12, 212575, Note_off_c, 11, 80, 64
12, 212580, Note_on_c, 11, 80, 92
12, 212635, Note_off_c, 11, 80, 64
12, 212640, Note_on_c, 11, 80, 92
12, 212695, Note_off_c, 11, 80, 64
12, 212700, Note_on_c, 11, 80, 92
12, 212755, Note_off_c, 11, 80, 64
12, 212760, Note_on_c, 11, 80, 92
12, 212815, Note_off_c, 11, 80, 64
12, 212820, Note_on_c, 11, 80, 92
12, 212875, Note_off_c, 11, 80, 64
12, 212880, Note_on_c, 11, 80, 92
12, 212935, Note_off_c, 11, 80, 64
12, 212940, Note_on_c, 11, 80, 92
12, 212995, Note_off_c, 11, 80, 64
12, 213000, Note_on_c, 11, 80, 92
12, 213055, Note_off_c, 11, 80, 64
12, 213060, Note_on_c, 11, 80, 92
12, 213115, Note_off_c, 11, 80, 64
12, 213120, Note_on_c, 11, 80, 92
12, 213175, Note_off_c, 11, 80, 64
12, 213180, Note_on_c, 11, 80, 92
12, 213235, Note_off_c, 11, 80, 64
12, 213240, Note_on_c, 11, 80, 92
12, 213295, Note_off_c, 11, 80, 64
12, 213300, Note_on_c, 11, 80, 92
12, 213355, Note_off_c, 11, 80, 64
12, 213360, Note_on_c, 11, 80, 92
12, 213415, Note_off_c, 11, 80, 64
12, 213420, Note_on_c, 11, 80, 92
12, 213475, Note_off_c, 11, 80, 64
12, 213480, Note_on_c, 11, 80, 92
12, 213535, Note_off_c, 11, 80, 64
12, 213540, Note_on_c, 11, 80, 92
12, 213595, Note_off_c, 11, 80, 64
12, 213600, Note_on_c, 11, 80, 92
12, 213655, Note_off_c, 11, 80, 64
12, 213660, Note_on_c, 11, 80, 92
12, 213715, Note_off_c, 11, 80, 64
12, 213720, Note_on_c, 11, 80, 92
12, 213775, Note_off_c, 11, 80, 64
12, 213780, Note_on_c, 11, 80, 92
12, 213835, Note_off_c, 11, 80, 64
12, 213840, Note_on_c, 11, 80, 92
12, 213895, Note_off_c, 11, 80, 64
12, 213900, Note_on_c, 11, 80, 92
12, 213955, Note_off_c, 11, 80, 64
12, 213960, Note_on_c, 11, 80, 92
12, 214015, Note_off_c, 11, 80, 64
12, 214020, Note_on_c, 11, 80, 92
12, 214075, Note_off_c, 11, 80, 64
12, 214080, Note_on_c, 11, 80, 92
12, 214135, Note_off_c, 11, 80, 64
12, 214140, Note_on_c, 11, 80, 92
12, 214195, Note_off_c, 11, 80, 64
12, 214200, Note_on_c, 11, 80, 92
12, 214255, Note_off_c, 11, 80, 64
12, 214260, Note_on_c, 11, 80, 92
12, 214315, Note_off_c, 11, 80, 64
12, 214320, Note_on_c, 11, 80, 92
12, 214375, Note_off_c, 11, 80, 64
12, 214380, Note_on_c, 11, 80, 92
12, 214435, Note_off_c, 11, 80, 64
12, 214440, Note_on_c, 11, 80, 92
12, 214495, Note_off_c, 11, 80, 64
12, 214500, Note_on_c, 11, 80, 92
12, 214555, Note_off_c, 11, 80, 64
12, 214560, Note_on_c, 11, 80, 92
12, 214615, Note_off_c, 11, 80, 64
12, 214620, Note_on_c, 11, 80, 92
12, 214675, Note_off_c, 11, 80, 64
12, 214680, Note_on_c, 11, 80, 92
12, 214735, Note_off_c, 11, 80, 64
12, 214740, Note_on_c, 11, 80, 92
12, 214795, Note_off_c, 11, 80, 64
12, 214800, Note_on_c, 11, 80, 92
12, 214855, Note_off_c, 11, 80, 64
12, 214860, Note_on_c, 11, 80, 92
12, 214915, Note_off_c, 11, 80, 64
12, 214920, Note_on_c, 11, 80, 92
12, 214975, Note_off_c, 11, 80, 64
12, 214980, Note_on_c, 11, 80, 92
12, 215035, Note_off_c, 11, 80, 64
12, 215040, Note_on_c, 11, 80, 92
12, 215095, Note_off_c, 11, 80, 64
12, 215100, Note_on_c, 11, 80, 92
12, 215155, Note_off_c, 11, 80, 64
12, 215160, Note_on_c, 11, 80, 92
12, 215215, Note_off_c, 11, 80, 64
12, 215220, Note_on_c, 11, 80, 92
12, 215275, Note_off_c, 11, 80, 64
12, 215280, Note_on_c, 11, 80, 92
12, 215335, Note_off_c, 11, 80, 64
12, 215340, Note_on_c, 11, 80, 92
12, 215395, Note_off_c, 11, 80, 64
12, 215400, Note_on_c, 11, 80, 92
12, 215455, Note_off_c, 11, 80, 64
12, 215460, Note_on_c, 11, 80, 92
12, 215515, Note_off_c, 11, 80, 64
12, 215520, Note_on_c, 11, 80, 92
12, 215575, Note_off_c, 11, 80, 64
12, 215580, Note_on_c, 11, 80, 92
12, 215635, Note_off_c, 11, 80, 64
12, 215640, Note_on_c, 11, 80, 92
12, 215875, Note_off_c, 11, 80, 64
12, 216600, Program_c, 11, 50
12, 216600, Note_on_c, 11, 76, 92
12, 216680, Note_off_c, 11, 76, 64
12, 216840, Note_on_c, 11, 71, 92
12, 216960, Note_off_c, 11, 71, 64
12, 216960, Note_on_c, 11, 69, 92
12, 217080, Note_off_c, 11, 69, 64
12, 217080, Note_on_c, 11, 68, 92
12, 217160, Note_off_c, 11, 68, 64
12, 217320, Note_on_c, 11, 64, 92
12, 217400, Note_off_c, 11, 64, 64
12, 218520, Note_on_c, 11, 80, 92
12, 218600, Note_off_c, 11, 80, 64
12, 218760, Note_on_c, 11, 78, 92
12, 218880, Note_off_c, 11, 78, 64
12, 218880, Note_on_c, 11, 76, 92
12, 219000, Note_off_c, 11, 76, 64
12, 219000, Note_on_c, 11, 71, 92
12, 219080, Note_off_c, 11, 71, 64
12, 219240, Note_on_c, 11, 68, 92
12, 219320, Note_off_c, 11, 68, 64
12, 219480, Program_c, 11, 48
12, 219480, Note_on_c, 11, 71, 75
12, 219560, Note_off_c, 11, 71, 64
12, 219720, Note_on_c, 11, 69, 75
12, 219840, Note_off_c, 11, 69, 64
12, 219840, Note_on_c, 11, 68, 75
12, 219960, Note_off_c, 11, 68, 64
12, 219960, Note_on_c, 11, 64, 75
12, 220040, Note_off_c, 11, 64, 64
12, 220200, Note_on_c, 11, 59, 75
12, 220280, Note_off_c, 11, 59, 64
12, 220440, Note_on_c, 11, 71, 75
12, 220520, Note_off_c, 11, 71, 64
12, 220680, Note_on_c, 11, 69, 75
12, 220800, Note_off_c, 11, 69, 64
12, 220800, Note_on_c, 11, 68, 75
12, 220920, Note_off_c, 11, 68, 64
12, 220920, Note_on_c, 11, 64, 75
12, 221000, Note_off_c, 11, 64, 64
12, 221160, Note_on_c, 11, 59, 75
12, 221240, Note_off_c, 11, 59, 64
12, 221400, Note_on_c, 11, 71, 60
12, 221480, Note_off_c, 11, 71, 64
12, 221640, Note_on_c, 11, 69, 60
12, 221760, Note_off_c, 11, 69, 64
12, 221760, Note_on_c, 11, 68, 60
12, 221880, Note_off_c, 11, 68, 64
12, 221880, Note_on_c, 11, 64, 60
12, 221960, Note_off_c, 11, 64, 64
12, 222120, Note_on_c, 11, 59, 60
12, 222200, Note_off_c, 11, 59, 64
12, 222360, Note_on_c, 11, 71, 60
12, 222440, Note_off_c, 11, 71, 64
12, 222600, Note_on_c, 11, 69, 60
12, 222720, Note_off_c, 11, 69, 64
12, 222720, Note_on_c, 11, 68, 60
12, 222840, Note_off_c, 11, 68, 64
12, 222840, Note_on_c, 11, 64, 60
12, 222920, Note_off_c, 11, 64, 64
12, 223080, Note_on_c, 11, 59, 60
12, 223160, Note_off_c, 11, 59, 64
12, 229080, Note_on_c, 11, 81, 60
12, 230160, Note_off_c, 11, 81, 64
12, 230160, Note_on_c, 11, 80, 60
12, 230280, Note_off_c, 11, 80, 64
12, 230280, Note_on_c, 11, 78, 60
12, 230400, Note_off_c, 11, 78, 64
12, 230400, Note_on_c, 11, 76, 60
12, 230515, Note_off_c, 11, 76, 64
12, 230520, Note_on_c, 11, 76, 60
12, 230600, Note_off_c, 11, 76, 64
12, 230760, Note_on_c, 11, 76, 60
12, 230840, Note_off_c, 11, 76, 64
12, 231480, Note_on_c, 11, 76, 60
12, 231715, Note_off_c, 11, 76, 64
12, 231720, Note_on_c, 11, 76, 60
12, 231955, Note_off_c, 11, 76, 64
12, 232440, Note_on_c, 11, 76, 60
12, 232675, Note_off_c, 11, 76, 64
12, 232680, Note_on_c, 11, 76, 60
12, 232915, Note_off_c, 11, 76, 64
12, 232920, Note_on_c, 11, 76, 60
12, 233155, Note_off_c, 11, 76, 64
12, 236760, Program_c, 11, 50
12, 236760, Note_on_c, 11, 57, 45
12, 236875, Note_off_c, 11, 57, 64
12, 236880, Note_on_c, 11, 61, 45
12, 236995, Note_off_c, 11, 61, 64
12, 237000, Note_on_c, 11, 69, 45
12, 237115, Note_off_c, 11, 69, 64
12, 237120, Note_on_c, 11, 69, 45
12, 237235, Note_off_c, 11, 69, 64
12, 237240, Note_on_c, 11, 61, 45
12, 237355, Note_off_c, 11, 61, 64
12, 237360, Note_on_c, 11, 64, 45
12, 237475, Note_off_c, 11, 64, 64
12, 237480, Note_on_c, 11, 69, 45
12, 237595, Note_off_c, 11, 69, 64
12, 237600, Note_on_c, 11, 69, 45
12, 237715, Note_off_c, 11, 69, 64
12, 237720, Note_on_c, 11, 59, 45
12, 237835, Note_off_c, 11, 59, 64
12, 237840, Note_on_c, 11, 62, 45
12, 237955, Note_off_c, 11, 62, 64
12, 237960, Note_on_c, 11, 69, 45
12, 238075, Note_off_c, 11, 69, 64
12, 238080, Note_on_c, 11, 69, 45
12, 238195, Note_off_c, 11, 69, 64
12, 238200, Note_on_c, 11, 62, 45
12, 238315, Note_off_c, 11, 62, 64
12, 238320, Note_on_c, 11, 69, 45
12, 238435, Note_off_c, 11, 69, 64
12, 238440, Note_on_c, 11, 61, 45
12, 238555, Note_off_c, 11, 61, 64
12, 238560, Note_on_c, 11, 69, 45
12, 238675, Note_off_c, 11, 69, 64
12, 238680, Note_on_c, 11, 57, 45
12, 238795, Note_off_c, 11, 57, 64
12, 238800, Note_on_c, 11, 61, 45
12, 238915, Note_off_c, 11, 61, 64
12, 238920, Note_on_c, 11, 69, 45
12, 239035, Note_off_c, 11, 69, 64
12, 239040, Note_on_c, 11, 69, 45
12, 239155, Note_off_c, 11, 69, 64
12, 239160, Note_on_c, 11, 57, 45
12, 239275, Note_off_c, 11, 57, 64
12, 239280, Note_on_c, 11, 61, 45
12, 239395, Note_off_c, 11, 61, 64
12, 239400, Note_on_c, 11, 69, 45
12, 239515, Note_off_c, 11, 69, 64
12, 239520, Note_on_c, 11, 69, 45
12, 239635, Note_off_c, 11, 69, 64
12, 239640, Note_on_c, 11, 62, 45
12, 239755, Note_off_c, 11, 62, 64
12, 239760, Note_on_c, 11, 69, 45
12, 239875, Note_off_c, 11, 69, 64
12, 239880, Note_on_c, 11, 57, 45
12, 239995, Note_off_c, 11, 57, 64
12, 240000, Note_on_c, 11, 69, 45
12, 240115, Note_off_c, 11, 69, 64
12, 240120, Note_on_c, 11, 57, 45
12, 240235, Note_off_c, 11, 57, 64
12, 240240, Note_on_c, 11, 69, 45
12, 240355, Note_off_c, 11, 69, 64
12, 240360, Note_on_c, 11, 57, 45
12, 240475, Note_off_c, 11, 57, 64
12, 240480, Note_on_c, 11, 69, 45
12, 240595, Note_off_c, 11, 69, 64
12, 240600, Note_on_c, 11, 57, 45
12, 240715, Note_off_c, 11, 57, 64
12, 240720, Note_on_c, 11, 64, 45
12, 240835, Note_off_c, 11, 64, 64
12, 240840, Note_on_c, 11, 69, 45
12, 240955, Note_off_c, 11, 69, 64
12, 240960, Note_on_c, 11, 69, 45
12, 241075, Note_off_c, 11, 69, 64
12, 241080, Note_on_c, 11, 57, 45
12, 241195, Note_off_c, 11, 57, 64
12, 241200, Note_on_c, 11, 67, 45
12, 241315, Note_off_c, 11, 67, 64
12, 241320, Note_on_c, 11, 69, 45
12, 241435, Note_off_c, 11, 69, 64
12, 241440, Note_on_c, 11, 69, 45
12, 241555, Note_off_c, 11, 69, 64
12, 241560, Note_on_c, 11, 57, 45
12, 241675, Note_off_c, 11, 57, 64
12, 241680, Note_on_c, 11, 66, 45
12, 241795, Note_off_c, 11, 66, 64
12, 241800, Note_on_c, 11, 69, 45
12, 241915, Note_off_c, 11, 69, 64
12, 241920, Note_on_c, 11, 69, 45
12, 242035, Note_off_c, 11, 69, 64
12, 242040, Note_on_c, 11, 57, 45
12, 242155, Note_off_c, 11, 57, 64
12, 242160, Note_on_c, 11, 69, 45
12, 242275, Note_off_c, 11, 69, 64
12, 242280, Note_on_c, 11, 57, 45
12, 242395, Note_off_c, 11, 57, 64
12, 242400, Note_on_c, 11, 69, 45
12, 242515, Note_off_c, 11, 69, 64
12, 242520, Note_on_c, 11, 57, 45
12, 242635, Note_off_c, 11, 57, 64
12, 242640, Note_on_c, 11, 66, 45
12, 242755, Note_off_c, 11, 66, 64
12, 242760, Note_on_c, 11, 69, 45
12, 242875, Note_off_c, 11, 69, 64
12, 242880, Note_on_c, 11, 69, 45
12, 242995, Note_off_c, 11, 69, 64
12, 243000, Note_on_c, 11, 57, 45
12, 243115, Note_off_c, 11, 57, 64
12, 243120, Note_on_c, 11, 67, 45
12, 243235, Note_off_c, 11, 67, 64
12, 243240, Note_on_c, 11, 69, 45
12, 243355, Note_off_c, 11, 69, 64
12, 243360, Note_on_c, 11, 69, 45
12, 243475, Note_off_c, 11, 69, 64
12, 243480, Note_on_c, 11, 57, 45
12, 243595, Note_off_c, 11, 57, 64
12, 243600, Note_on_c, 11, 69, 45
12, 243715, Note_off_c, 11, 69, 64
12, 243720, Note_on_c, 11, 62, 45
12, 243835, Note_off_c, 11, 62, 64
12, 243840, Note_on_c, 11, 74, 45
12, 243955, Note_off_c, 11, 74, 64
12, 243960, Note_on_c, 11, 62, 45
12, 244075, Note_off_c, 11, 62, 64
12, 244080, Note_on_c, 11, 74, 45
12, 244195, Note_off_c, 11, 74, 64
12, 244200, Note_on_c, 11, 62, 45
12, 244315, Note_off_c, 11, 62, 64
12, 244320, Note_on_c, 11, 74, 45
12, 244435, Note_off_c, 11, 74, 64
12, 244440, Program_c, 11, 48
12, 244440, Note_on_c, 11, 57, 45
12, 244520, Note_off_c, 11, 57, 64
12, 244560, Note_on_c, 11, 60, 45
12, 244640, Note_off_c, 11, 60, 64
12, 244680, Note_on_c, 11, 62, 45
12, 244760, Note_off_c, 11, 62, 64
12, 244800, Note_on_c, 11, 60, 45
12, 244880, Note_off_c, 11, 60, 64
12, 244920, Note_on_c, 11, 57, 45
12, 245000, Note_off_c, 11, 57, 64
12, 245040, Note_on_c, 11, 60, 45
12, 245120, Note_off_c, 11, 60, 64
12, 245160, Note_on_c, 11, 62, 45
12, 245240, Note_off_c, 11, 62, 64
12, 245280, Note_on_c, 11, 60, 45
12, 245360, Note_off_c, 11, 60, 64
12, 245400, Note_on_c, 11, 57, 45
12, 245480, Note_off_c, 11, 57, 64
12, 245520, Note_on_c, 11, 60, 45
12, 245600, Note_off_c, 11, 60, 64
12, 245640, Note_on_c, 11, 62, 45
12, 245720, Note_off_c, 11, 62, 64
12, 245760, Note_on_c, 11, 60, 45
12, 245840, Note_off_c, 11, 60, 64
12, 245880, Note_on_c, 11, 57, 45
12, 245960, Note_off_c, 11, 57, 64
12, 246000, Note_on_c, 11, 60, 45
12, 246080, Note_off_c, 11, 60, 64
12, 246120, Note_on_c, 11, 62, 45
12, 246200, Note_off_c, 11, 62, 64
12, 246240, Note_on_c, 11, 60, 45
12, 246320, Note_off_c, 11, 60, 64
12, 246360, Note_on_c, 11, 55, 45
12, 246440, Note_off_c, 11, 55, 64
12, 246480, Note_on_c, 11, 58, 45
12, 246560, Note_off_c, 11, 58, 64
12, 246600, Note_on_c, 11, 62, 46
12, 246680, Note_off_c, 11, 62, 64
12, 246720, Note_on_c, 11, 58, 47
12, 246800, Note_off_c, 11, 58, 64
12, 246840, Note_on_c, 11, 55, 48
12, 246920, Note_off_c, 11, 55, 64
12, 246960, Note_on_c, 11, 58, 49
12, 247040, Note_off_c, 11, 58, 64
12, 247080, Note_on_c, 11, 62, 50
12, 247160, Note_off_c, 11, 62, 64
12, 247200, Note_on_c, 11, 58, 51
12, 247280, Note_off_c, 11, 58, 64
12, 247320, Note_on_c, 11, 55, 52
12, 247400, Note_off_c, 11, 55, 64
12, 247440, Note_on_c, 11, 58, 53
12, 247520, Note_off_c, 11, 58, 64
12, 247560, Note_on_c, 11, 62, 54
12, 247640, Note_off_c, 11, 62, 64
12, 247680, Note_on_c, 11, 58, 55
12, 247760, Note_off_c, 11, 58, 64
12, 247800, Note_on_c, 11, 55, 56
12, 247880, Note_off_c, 11, 55, 64
12, 247920, Note_on_c, 11, 58, 57
12, 248000, Note_off_c, 11, 58, 64
12, 248040, Note_on_c, 11, 62, 58
12, 248120, Note_off_c, 11, 62, 64
12, 248160, Note_on_c, 11, 58, 59
12, 248240, Note_off_c, 11, 58, 64
12, 248280, Note_on_c, 11, 66, 60
12, 248760, Note_off_c, 11, 66, 64
12, 248760, Note_on_c, 11, 69, 60
12, 249240, Note_off_c, 11, 69, 64
12, 249240, Note_on_c, 11, 67, 60
12, 249960, Note_off_c, 11, 67, 64
12, 249960, Note_on_c, 11, 66, 68
12, 250195, Note_off_c, 11, 66, 64
12, 250200, Note_on_c, 11, 65, 70
12, 250680, Note_off_c, 11, 65, 64
12, 250680, Note_on_c, 11, 64, 75
12, 251160, Note_off_c, 11, 64, 64
12, 251160, Note_on_c, 11, 62, 80
12, 251240, Note_off_c, 11, 62, 64
12, 251400, Note_on_c, 11, 62, 83
12, 251520, Note_off_c, 11, 62, 64
12, 251520, Note_on_c, 11, 64, 84
12, 251640, Note_off_c, 11, 64, 64
12, 251640, Note_on_c, 11, 65, 85
12, 251880, Note_off_c, 11, 65, 64
12, 251880, Note_on_c, 11, 62, 88
12, 252115, Note_off_c, 11, 62, 64
12, 252120, Program_c, 11, 48
12, 252120, Note_on_c, 11, 76, 92
12, 252600, Note_off_c, 11, 76, 64
12, 252600, Note_on_c, 11, 79, 92
12, 253000, Note_off_c, 11, 79, 64
12, 253080, Note_on_c, 11, 77, 92
12, 253800, Note_off_c, 11, 77, 64
12, 253800, Note_on_c, 11, 76, 92
12, 254035, Note_off_c, 11, 76, 64
12, 254040, Note_on_c, 11, 81, 92
12, 254520, Note_off_c, 11, 81, 64
12, 254520, Note_on_c, 11, 79, 92
12, 255000, Note_off_c, 11, 79, 64
12, 255000, Note_on_c, 11, 77, 92
12, 255080, Note_off_c, 11, 77, 64
12, 255240, Note_on_c, 11, 77, 92
12, 255360, Note_off_c, 11, 77, 64
12, 255360, Note_on_c, 11, 79, 92
12, 255480, Note_off_c, 11, 79, 64
12, 255480, Note_on_c, 11, 81, 92
12, 255560, Note_off_c, 11, 81, 64
12, 255720, Note_on_c, 11, 77, 92
12, 255800, Note_off_c, 11, 77, 64
12, 255960, Note_on_c, 11, 79, 92
12, 256440, Note_off_c, 11, 79, 64
12, 256440, Note_on_c, 11, 82, 92
12, 256840, Note_off_c, 11, 82, 64
12, 256920, Note_on_c, 11, 81, 92
12, 257640, Note_off_c, 11, 81, 64
12, 257640, Note_on_c, 11, 79, 92
12, 257875, Note_off_c, 11, 79, 64
12, 257880, Note_on_c, 11, 84, 92
12, 258360, Note_off_c, 11, 84, 64
12, 258360, Note_on_c, 11, 82, 92
12, 258840, Note_off_c, 11, 82, 64
12, 258840, Note_on_c, 11, 81, 92
12, 258920, Note_off_c, 11, 81, 64
12, 259080, Note_on_c, 11, 81, 92
12, 259200, Note_off_c, 11, 81, 64
12, 259200, Note_on_c, 11, 82, 92
12, 259320, Note_off_c, 11, 82, 64
12, 259320, Note_on_c, 11, 84, 92
12, 259400, Note_off_c, 11, 84, 64
12, 259560, Note_on_c, 11, 81, 92
12, 259640, Note_off_c, 11, 81, 64
12, 259800, Note_on_c, 11, 86, 92
12, 260280, Note_off_c, 11, 86, 64
12, 260280, Note_on_c, 11, 84, 92
12, 260760, Note_off_c, 11, 84, 64
12, 260760, Note_on_c, 11, 82, 92
12, 260840, Note_off_c, 11, 82, 64
12, 261000, Note_on_c, 11, 79, 92
12, 261120, Note_off_c, 11, 79, 64
12, 261120, Note_on_c, 11, 81, 92
12, 261240, Note_off_c, 11, 81, 64
12, 261240, Note_on_c, 11, 82, 92
12, 261320, Note_off_c, 11, 82, 64
12, 261480, Note_on_c, 11, 84, 92
12, 261560, Note_off_c, 11, 84, 64
12, 261720, Note_on_c, 11, 86, 92
12, 262200, Note_off_c, 11, 86, 64
12, 262200, Note_on_c, 11, 84, 92
12, 262680, Note_off_c, 11, 84, 64
12, 262680, Note_on_c, 11, 82, 92
12, 262760, Note_off_c, 11, 82, 64
12, 262920, Note_on_c, 11, 79, 92
12, 263040, Note_off_c, 11, 79, 64
12, 263040, Note_on_c, 11, 81, 92
12, 263160, Note_off_c, 11, 81, 64
12, 263160, Note_on_c, 11, 82, 92
12, 263240, Note_off_c, 11, 82, 64
12, 263400, Note_on_c, 11, 84, 92
12, 263480, Note_off_c, 11, 84, 64
12, 263640, Note_on_c, 11, 86, 92
12, 263875, Note_off_c, 11, 86, 64
12, 263880, Program_c, 11, 48
12, 263880, Note_on_c, 11, 65, 92
12, 263960, Note_off_c, 11, 65, 64
12, 263960, Note_on_c, 11, 67, 92
12, 264040, Note_off_c, 11, 67, 64
12, 264040, Note_on_c, 11, 69, 92
12, 264120, Note_off_c, 11, 69, 64
12, 264120, Note_on_c, 11, 70, 92
12, 264200, Note_off_c, 11, 70, 64
12, 264360, Note_on_c, 11, 72, 92
12, 264440, Note_off_c, 11, 72, 64
12, 264600, Note_on_c, 11, 74, 92
12, 264835, Note_off_c, 11, 74, 64
12, 266760, Note_on_c, 11, 65, 45
12, 266880, Note_off_c, 11, 65, 64
12, 266880, Note_on_c, 11, 67, 45
12, 267000, Note_off_c, 11, 67, 64
12, 267000, Note_on_c, 11, 69, 45
12, 267080, Note_off_c, 11, 69, 64
12, 267240, Note_on_c, 11, 70, 45
12, 267320, Note_off_c, 11, 70, 64
12, 267480, Note_on_c, 11, 72, 45
12, 267560, Note_off_c, 11, 72, 64
12, 267720, Note_on_c, 11, 69, 45
12, 267960, Note_off_c, 11, 69, 64
12, 267960, Note_on_c, 11, 70, 45
12, 268040, Note_off_c, 11, 70, 64
12, 268200, Note_on_c, 11, 74, 45
12, 268280, Note_off_c, 11, 74, 64
12, 268440, Note_on_c, 11, 72, 45
12, 268680, Note_off_c, 11, 72, 64
12, 268680, Note_on_c, 11, 70, 45
12, 268800, Note_off_c, 11, 70, 64
12, 268800, Note_on_c, 11, 69, 45
12, 268920, Note_off_c, 11, 69, 64
12, 268920, Note_on_c, 11, 67, 45
12, 269000, Note_off_c, 11, 67, 64
12, 269160, Note_on_c, 11, 60, 45
12, 269240, Note_off_c, 11, 60, 64
12, 269400, Note_on_c, 11, 65, 45
12, 269480, Note_off_c, 11, 65, 64
12, 269640, Note_on_c, 11, 67, 45
12, 269720, Note_off_c, 11, 67, 64
12, 269880, Note_on_c, 11, 69, 45
12, 270120, Note_off_c, 11, 69, 64
12, 270120, Note_on_c, 11, 70, 45
12, 270240, Note_off_c, 11, 70, 64
12, 270240, Note_on_c, 11, 69, 45
12, 270355, Note_off_c, 11, 69, 64
12, 270360, Note_on_c, 11, 67, 45
12, 271200, Note_off_c, 11, 67, 64
12, 277320, Note_on_c, 11, 57, 60
12, 277560, Note_off_c, 11, 57, 64
12, 277560, Note_on_c, 11, 58, 60
12, 277800, Note_off_c, 11, 58, 64
12, 277800, Note_on_c, 11, 62, 60
12, 278040, Note_off_c, 11, 62, 64
12, 278040, Note_on_c, 11, 60, 60
12, 278120, Note_off_c, 11, 60, 64
12, 278280, Note_on_c, 11, 55, 60
12, 278400, Note_off_c, 11, 55, 64
12, 278400, Note_on_c, 11, 57, 60
12, 278520, Note_off_c, 11, 57, 64
12, 278520, Note_on_c, 11, 58, 60
12, 278760, Note_off_c, 11, 58, 64
12, 278760, Note_on_c, 11, 55, 60
12, 278995, Note_off_c, 11, 55, 64
12, 279000, Note_on_c, 11, 57, 60
12, 279235, Note_off_c, 11, 57, 64
12, 284760, Note_on_c, 11, 57, 45
12, 285240, Note_off_c, 11, 57, 64
12, 285240, Note_on_c, 11, 60, 45
12, 285640, Note_off_c, 11, 60, 64
12, 285720, Note_on_c, 11, 58, 45
12, 286440, Note_off_c, 11, 58, 64
12, 286440, Note_on_c, 11, 57, 45
12, 286675, Note_off_c, 11, 57, 64
12, 286680, Note_on_c, 11, 62, 45
12, 287160, Note_off_c, 11, 62, 64
12, 287160, Note_on_c, 11, 60, 45
12, 287560, Note_off_c, 11, 60, 64
12, 287640, Note_on_c, 11, 55, 45
12, 287720, Note_off_c, 11, 55, 64
12, 287880, Note_on_c, 11, 55, 45
12, 288000, Note_off_c, 11, 55, 64
12, 288000, Note_on_c, 11, 57, 45
12, 288120, Note_off_c, 11, 57, 64
12, 288120, Note_on_c, 11, 58, 45
12, 288200, Note_off_c, 11, 58, 64
12, 288360, Note_on_c, 11, 59, 45
12, 288440, Note_off_c, 11, 59, 64
12, 288600, Note_on_c, 11, 60, 45
12, 288680, Note_off_c, 11, 60, 64
12, 288840, Note_on_c, 11, 55, 45
12, 288960, Note_off_c, 11, 55, 64
12, 288960, Note_on_c, 11, 57, 45
12, 289080, Note_off_c, 11, 57, 64
12, 289080, Note_on_c, 11, 58, 45
12, 289160, Note_off_c, 11, 58, 64
12, 289320, Note_on_c, 11, 59, 45
12, 289400, Note_off_c, 11, 59, 64
12, 289560, Note_on_c, 11, 60, 45
12, 289640, Note_off_c, 11, 60, 64
12, 289800, Note_on_c, 11, 55, 45
12, 289920, Note_off_c, 11, 55, 64
12, 289920, Note_on_c, 11, 57, 45
12, 290040, Note_off_c, 11, 57, 64
12, 290040, Note_on_c, 11, 58, 45
12, 290120, Note_off_c, 11, 58, 64
12, 290280, Note_on_c, 11, 59, 45
12, 290360, Note_off_c, 11, 59, 64
12, 290520, Note_on_c, 11, 60, 45
12, 290920, Note_off_c, 11, 60, 64
12, 296520, Note_on_c, 11, 57, 48
12, 296640, Note_off_c, 11, 57, 64
12, 296640, Note_on_c, 11, 58, 50
12, 296760, Note_off_c, 11, 58, 64
12, 296760, Note_on_c, 11, 60, 52
12, 296840, Note_off_c, 11, 60, 64
12, 297000, Note_on_c, 11, 61, 56
12, 297080, Note_off_c, 11, 61, 64
12, 297240, Note_on_c, 11, 62, 60
12, 297320, Note_off_c, 11, 62, 64
12, 297480, Note_on_c, 11, 58, 64
12, 297600, Note_off_c, 11, 58, 64
12, 297600, Note_on_c, 11, 60, 66
12, 297720, Note_off_c, 11, 60, 64
12, 297720, Note_on_c, 11, 62, 68
12, 297800, Note_off_c, 11, 62, 64
12, 297960, Note_on_c, 11, 64, 72
12, 298040, Note_off_c, 11, 64, 64
12, 298200, Note_on_c, 11, 65, 76
12, 298280, Note_off_c, 11, 65, 64
12, 298440, Note_on_c, 11, 62, 80
12, 298560, Note_off_c, 11, 62, 64
12, 298560, Note_on_c, 11, 64, 82
12, 298645, Note_off_c, 11, 64, 64
12, 298680, Note_on_c, 11, 65, 84
12, 298760, Note_off_c, 11, 65, 64
12, 298920, Note_on_c, 11, 67, 88
12, 299000, Note_off_c, 11, 67, 64
12, 299160, Note_on_c, 11, 65, 92
12, 299160, Note_on_c, 11, 69, 92
12, 299160, Note_on_c, 11, 77, 92
12, 299240, Note_off_c, 11, 77, 64
12, 299240, Note_off_c, 11, 69, 64
12, 299240, Note_off_c, 11, 65, 64
12, 299400, Note_on_c, 11, 69, 92
12, 299480, Note_off_c, 11, 69, 64
12, 299640, Note_on_c, 11, 70, 92
12, 299720, Note_off_c, 11, 70, 64
12, 299880, Note_on_c, 11, 74, 92
12, 299960, Note_off_c, 11, 74, 64
12, 300120, Note_on_c, 11, 72, 92
12, 300360, Note_off_c, 11, 72, 64
12, 300360, Note_on_c, 11, 70, 92
12, 300480, Note_off_c, 11, 70, 64
12, 300480, Note_on_c, 11, 69, 92
12, 300600, Note_off_c, 11, 69, 64
12, 300600, Note_on_c, 11, 67, 92
12, 300680, Note_off_c, 11, 67, 64
12, 300840, Note_on_c, 11, 60, 92
12, 300920, Note_off_c, 11, 60, 64
12, 301080, Note_on_c, 11, 65, 92
12, 301160, Note_off_c, 11, 65, 64
12, 301320, Note_on_c, 11, 76, 92
12, 301400, Note_off_c, 11, 76, 64
12, 301560, Note_on_c, 11, 77, 92
12, 301800, Note_off_c, 11, 77, 64
12, 301800, Note_on_c, 11, 79, 92
12, 301920, Note_off_c, 11, 79, 64
12, 301920, Note_on_c, 11, 77, 92
12, 302035, Note_off_c, 11, 77, 64
12, 302040, Note_on_c, 11, 76, 92
12, 302120, Note_off_c, 11, 76, 64
12, 302280, Note_on_c, 11, 77, 92
12, 302360, Note_off_c, 11, 77, 64
12, 302520, Note_on_c, 11, 79, 92
12, 302760, Note_off_c, 11, 79, 64
12, 302760, Note_on_c, 11, 81, 92
12, 302880, Note_off_c, 11, 81, 64
12, 302880, Note_on_c, 11, 79, 92
12, 302995, Note_off_c, 11, 79, 64
12, 303000, Note_on_c, 11, 77, 92
12, 303240, Note_off_c, 11, 77, 64
12, 303240, Note_on_c, 11, 81, 92
12, 303320, Note_off_c, 11, 81, 64
12, 303480, Note_on_c, 11, 81, 92
12, 303560, Note_off_c, 11, 81, 64
12, 303720, Note_on_c, 11, 81, 92
12, 303800, Note_off_c, 11, 81, 64
12, 303960, Note_on_c, 11, 81, 92
12, 304440, Note_off_c, 11, 81, 64
12, 304440, Note_on_c, 11, 79, 92
12, 304560, Note_off_c, 11, 79, 64
12, 304560, Note_on_c, 11, 77, 92
12, 304680, Note_off_c, 11, 77, 64
12, 304680, Note_on_c, 11, 76, 92
12, 304800, Note_off_c, 11, 76, 64
12, 304800, Note_on_c, 11, 74, 92
12, 304915, Note_off_c, 11, 74, 64
12, 304920, Note_on_c, 11, 72, 92
12, 305000, Note_off_c, 11, 72, 64
12, 305160, Note_on_c, 11, 74, 92
12, 305240, Note_off_c, 11, 74, 64
12, 305400, Note_on_c, 11, 76, 92
12, 305640, Note_off_c, 11, 76, 64
12, 305640, Note_on_c, 11, 77, 92
12, 305760, Note_off_c, 11, 77, 64
12, 305760, Note_on_c, 11, 76, 92
12, 305875, Note_off_c, 11, 76, 64
12, 305880, Note_on_c, 11, 74, 92
12, 305960, Note_off_c, 11, 74, 64
12, 306120, Note_on_c, 11, 76, 92
12, 306200, Note_off_c, 11, 76, 64
12, 306360, Note_on_c, 11, 77, 92
12, 306600, Note_off_c, 11, 77, 64
12, 306600, Note_on_c, 11, 79, 92
12, 306720, Note_off_c, 11, 79, 64
12, 306720, Note_on_c, 11, 77, 92
12, 306835, Note_off_c, 11, 77, 64
12, 306840, Note_on_c, 11, 76, 92
12, 307080, Note_off_c, 11, 76, 64
12, 307080, Note_on_c, 11, 79, 92
12, 307160, Note_off_c, 11, 79, 64
12, 307320, Note_on_c, 11, 79, 92
12, 307400, Note_off_c, 11, 79, 64
12, 307560, Note_on_c, 11, 79, 92
12, 307640, Note_off_c, 11, 79, 64
12, 307800, Note_on_c, 11, 79, 92
12, 308280, Note_off_c, 11, 79, 64
12, 308280, Note_on_c, 11, 81, 92
12, 308400, Note_off_c, 11, 81, 64
12, 308400, Note_on_c, 11, 79, 92
12, 308520, Note_off_c, 11, 79, 64
12, 308520, Note_on_c, 11, 77, 92
12, 308640, Note_off_c, 11, 77, 64
12, 308640, Note_on_c, 11, 76, 92
12, 308755, Note_off_c, 11, 76, 64
12, 308760, Note_on_c, 11, 77, 92
12, 308840, Note_off_c, 11, 77, 64
12, 309000, Note_on_c, 11, 79, 92
12, 309080, Note_off_c, 11, 79, 64
12, 309240, Note_on_c, 11, 81, 92
12, 309480, Note_off_c, 11, 81, 64
12, 309480, Note_on_c, 11, 82, 92
12, 309600, Note_off_c, 11, 82, 64
12, 309600, Note_on_c, 11, 81, 92
12, 309715, Note_off_c, 11, 81, 64
12, 309720, Note_on_c, 11, 79, 92
12, 309960, Note_off_c, 11, 79, 64
12, 309960, Note_on_c, 11, 76, 92
12, 310200, Note_off_c, 11, 76, 64
12, 310200, Note_on_c, 11, 79, 92
12, 310440, Note_off_c, 11, 79, 64
12, 310440, Note_on_c, 11, 76, 92
12, 310675, Note_off_c, 11, 76, 64
12, 310680, Note_on_c, 11, 77, 92
12, 310760, Note_off_c, 11, 77, 64
12, 310920, Note_on_c, 11, 79, 92
12, 311000, Note_off_c, 11, 79, 64
12, 311160, Note_on_c, 11, 81, 92
12, 311400, Note_off_c, 11, 81, 64
12, 311400, Note_on_c, 11, 82, 92
12, 311520, Note_off_c, 11, 82, 64
12, 311520, Note_on_c, 11, 81, 92
12, 311635, Note_off_c, 11, 81, 64
12, 311640, Note_on_c, 11, 79, 92
12, 311880, Note_off_c, 11, 79, 64
12, 311880, Note_on_c, 11, 76, 92
12, 312120, Note_off_c, 11, 76, 64
12, 312120, Note_on_c, 11, 79, 92
12, 312360, Note_off_c, 11, 79, 64
12, 312360, Note_on_c, 11, 76, 92
12, 312595, Note_off_c, 11, 76, 64
12, 312600, Note_on_c, 11, 77, 92
12, 312840, Note_off_c, 11, 77, 64
12, 312840, Note_on_c, 11, 76, 92
12, 313080, Note_off_c, 11, 76, 64
12, 313080, Note_on_c, 11, 79, 92
12, 313320, Note_off_c, 11, 79, 64
12, 313320, Note_on_c, 11, 76, 92
12, 313555, Note_off_c, 11, 76, 64
12, 313560, Note_on_c, 11, 77, 92
12, 313800, Note_off_c, 11, 77, 64
12, 313800, Note_on_c, 11, 76, 92
12, 314040, Note_off_c, 11, 76, 64
12, 314040, Note_on_c, 11, 79, 92
12, 314280, Note_off_c, 11, 79, 64
12, 314280, Note_on_c, 11, 76, 92
12, 314515, Note_off_c, 11, 76, 64
12, 314520, Note_on_c, 11, 69, 75
12, 314520, Note_on_c, 11, 77, 75
12, 314755, Note_off_c, 11, 77, 64
12, 314755, Note_off_c, 11, 69, 64
12, 318360, Program_c, 11, 45
12, 318360, Note_on_c, 11, 65, 30
12, 318360, Note_on_c, 11, 69, 30
12, 318760, Note_off_c, 11, 69, 64
12, 318760, Note_off_c, 11, 65, 64
12, 322200, Note_on_c, 11, 65, 30
12, 322200, Note_on_c, 11, 69, 30
12, 322600, Note_off_c, 11, 69, 64
12, 322600, Note_off_c, 11, 65, 64
12, 324120, Note_on_c, 11, 55, 30
12, 324120, Note_on_c, 11, 67, 30
12, 324520, Note_off_c, 11, 67, 64
12, 324520, Note_off_c, 11, 55, 64
12, 326040, Note_on_c, 11, 60, 30
12, 326040, Note_on_c, 11, 67, 30
12, 326440, Note_off_c, 11, 67, 64
12, 326440, Note_off_c, 11, 60, 64
12, 329880, Program_c, 11, 48
12, 330120, Note_on_c, 11, 74, 60
12, 330360, Note_off_c, 11, 74, 64
12, 330360, Note_on_c, 11, 72, 60
12, 330440, Note_off_c, 11, 72, 64
12, 330600, Note_on_c, 11, 71, 60
12, 330680, Note_off_c, 11, 71, 64
12, 330840, Note_on_c, 11, 72, 60
12, 330920, Note_off_c, 11, 72, 64
12, 331800, Note_on_c, 11, 60, 45
12, 332040, Note_off_c, 11, 60, 64
12, 332040, Note_on_c, 11, 64, 45
12, 332280, Note_off_c, 11, 64, 64
12, 332280, Note_on_c, 11, 60, 45
12, 332520, Note_off_c, 11, 60, 64
12, 332520, Note_on_c, 11, 64, 45
12, 332760, Note_off_c, 11, 64, 64
12, 332760, Note_on_c, 11, 60, 45
12, 333000, Note_off_c, 11, 60, 64
12, 333000, Note_on_c, 11, 64, 45
12, 333240, Note_off_c, 11, 64, 64
12, 333240, Note_on_c, 11, 60, 45
12, 333480, Note_off_c, 11, 60, 64
12, 333480, Note_on_c, 11, 64, 45
12, 333715, Note_off_c, 11, 64, 64
12, 333720, Note_on_c, 11, 60, 45
12, 333960, Note_off_c, 11, 60, 64
12, 333960, Note_on_c, 11, 65, 45
12, 334200, Note_off_c, 11, 65, 64
12, 334200, Note_on_c, 11, 60, 45
12, 334440, Note_off_c, 11, 60, 64
12, 334440, Note_on_c, 11, 65, 45
12, 334680, Note_off_c, 11, 65, 64
12, 334680, Note_on_c, 11, 60, 45
12, 334920, Note_off_c, 11, 60, 64
12, 334920, Note_on_c, 11, 65, 45
12, 335160, Note_off_c, 11, 65, 64
12, 335160, Note_on_c, 11, 60, 45
12, 335400, Note_off_c, 11, 60, 64
12, 335400, Note_on_c, 11, 65, 45
12, 335635, Note_off_c, 11, 65, 64
12, 335640, Note_on_c, 11, 72, 60
12, 335880, Note_off_c, 11, 72, 64
12, 335880, Note_on_c, 11, 70, 60
12, 336120, Note_off_c, 11, 70, 64
12, 336120, Note_on_c, 11, 67, 60
12, 336360, Note_off_c, 11, 67, 64
12, 336360, Note_on_c, 11, 64, 60
12, 336600, Note_off_c, 11, 64, 64
12, 336600, Note_on_c, 11, 60, 60
12, 336840, Note_off_c, 11, 60, 64
12, 336840, Note_on_c, 11, 67, 60
12, 337080, Note_off_c, 11, 67, 64
12, 337080, Note_on_c, 11, 64, 60
12, 337320, Note_off_c, 11, 64, 64
12, 337320, Note_on_c, 11, 60, 60
12, 337555, Note_off_c, 11, 60, 64
12, 337560, Note_on_c, 11, 74, 60
12, 337800, Note_off_c, 11, 74, 64
12, 337800, Note_on_c, 11, 72, 60
12, 338040, Note_off_c, 11, 72, 64
12, 338040, Note_on_c, 11, 69, 60
12, 338280, Note_off_c, 11, 69, 64
12, 338280, Note_on_c, 11, 65, 60
12, 338520, Note_off_c, 11, 65, 64
12, 338520, Note_on_c, 11, 60, 60
12, 338760, Note_off_c, 11, 60, 64
12, 338760, Note_on_c, 11, 69, 60
12, 339000, Note_off_c, 11, 69, 64
12, 339000, Note_on_c, 11, 65, 60
12, 339240, Note_off_c, 11, 65, 64
12, 339240, Note_on_c, 11, 60, 60
12, 339475, Note_off_c, 11, 60, 64
12, 339480, Note_on_c, 11, 58, 45
12, 339720, Note_off_c, 11, 58, 64
12, 339720, Note_on_c, 11, 64, 45
12, 339960, Note_off_c, 11, 64, 64
12, 339960, Note_on_c, 11, 58, 45
12, 340200, Note_off_c, 11, 58, 64
12, 340200, Note_on_c, 11, 64, 45
12, 340440, Note_off_c, 11, 64, 64
12, 340440, Note_on_c, 11, 58, 45
12, 340680, Note_off_c, 11, 58, 64
12, 340680, Note_on_c, 11, 64, 45
12, 340920, Note_off_c, 11, 64, 64
12, 340920, Note_on_c, 11, 58, 45
12, 341160, Note_off_c, 11, 58, 64
12, 341160, Note_on_c, 11, 64, 45
12, 341395, Note_off_c, 11, 64, 64
12, 341400, Note_on_c, 11, 60, 45
12, 341640, Note_off_c, 11, 60, 64
12, 341640, Note_on_c, 11, 65, 45
12, 341880, Note_off_c, 11, 65, 64
12, 341880, Note_on_c, 11, 60, 45
12, 342120, Note_off_c, 11, 60, 64
12, 342120, Note_on_c, 11, 65, 45
12, 342360, Note_off_c, 11, 65, 64
12, 342360, Note_on_c, 11, 60, 45
12, 342600, Note_off_c, 11, 60, 64
12, 342600, Note_on_c, 11, 65, 45
12, 342840, Note_off_c, 11, 65, 64
12, 342840, Note_on_c, 11, 60, 45
12, 343080, Note_off_c, 11, 60, 64
12, 343080, Note_on_c, 11, 65, 45
12, 343315, Note_off_c, 11, 65, 64
12, 343320, Note_on_c, 11, 67, 45
12, 343560, Note_off_c, 11, 67, 64
12, 343560, Note_on_c, 11, 70, 45
12, 343800, Note_off_c, 11, 70, 64
12, 343800, Note_on_c, 11, 67, 45
12, 344040, Note_off_c, 11, 67, 64
12, 344040, Note_on_c, 11, 70, 45
12, 344280, Note_off_c, 11, 70, 64
12, 344280, Note_on_c, 11, 67, 45
12, 344520, Note_off_c, 11, 67, 64
12, 344520, Note_on_c, 11, 70, 45
12, 344760, Note_off_c, 11, 70, 64
12, 344760, Note_on_c, 11, 67, 45
12, 345000, Note_off_c, 11, 67, 64
12, 345000, Note_on_c, 11, 70, 45
12, 345235, Note_off_c, 11, 70, 64
12, 345240, Note_on_c, 11, 69, 45
12, 345480, Note_off_c, 11, 69, 64
12, 345480, Note_on_c, 11, 72, 45
12, 345720, Note_off_c, 11, 72, 64
12, 345720, Note_on_c, 11, 69, 45
12, 345960, Note_off_c, 11, 69, 64
12, 345960, Note_on_c, 11, 72, 45
12, 346200, Note_off_c, 11, 72, 64
12, 346200, Note_on_c, 11, 69, 45
12, 346440, Note_off_c, 11, 69, 64
12, 346440, Note_on_c, 11, 72, 45
12, 346680, Note_off_c, 11, 72, 64
12, 346680, Note_on_c, 11, 69, 45
12, 346920, Note_off_c, 11, 69, 64
12, 346920, Note_on_c, 11, 77, 45
12, 347155, Note_off_c, 11, 77, 64
12, 347160, Note_on_c, 11, 79, 45
12, 347320, Note_off_c, 11, 79, 64
12, 347320, Note_on_c, 11, 76, 45
12, 347480, Note_off_c, 11, 76, 64
12, 347480, Note_on_c, 11, 79, 45
12, 347640, Note_off_c, 11, 79, 64
12, 347640, Note_on_c, 11, 76, 45
12, 347800, Note_off_c, 11, 76, 64
12, 347800, Note_on_c, 11, 79, 45
12, 347960, Note_off_c, 11, 79, 64
12, 347960, Note_on_c, 11, 76, 45
12, 348115, Note_off_c, 11, 76, 64
12, 348120, Note_on_c, 11, 79, 45
12, 348280, Note_off_c, 11, 79, 64
12, 348280, Note_on_c, 11, 76, 45
12, 348440, Note_off_c, 11, 76, 64
12, 348440, Note_on_c, 11, 79, 45
12, 348600, Note_off_c, 11, 79, 64
12, 348600, Note_on_c, 11, 76, 45
12, 348760, Note_off_c, 11, 76, 64
12, 348760, Note_on_c, 11, 79, 45
12, 348920, Note_off_c, 11, 79, 64
12, 348920, Note_on_c, 11, 76, 45
12, 349075, Note_off_c, 11, 76, 64
12, 349080, Note_on_c, 11, 81, 45
12, 349240, Note_off_c, 11, 81, 64
12, 349240, Note_on_c, 11, 77, 45
12, 349400, Note_off_c, 11, 77, 64
12, 349400, Note_on_c, 11, 81, 45
12, 349560, Note_off_c, 11, 81, 64
12, 349560, Note_on_c, 11, 77, 45
12, 349720, Note_off_c, 11, 77, 64
12, 349720, Note_on_c, 11, 81, 45
12, 349880, Note_off_c, 11, 81, 64
12, 349880, Note_on_c, 11, 77, 45
12, 350035, Note_off_c, 11, 77, 64
12, 350040, Note_on_c, 11, 81, 45
12, 350200, Note_off_c, 11, 81, 64
12, 350200, Note_on_c, 11, 77, 45
12, 350360, Note_off_c, 11, 77, 64
12, 350360, Note_on_c, 11, 81, 45
12, 350520, Note_off_c, 11, 81, 64
12, 350520, Note_on_c, 11, 77, 45
12, 350680, Note_off_c, 11, 77, 64
12, 350680, Note_on_c, 11, 81, 45
12, 350840, Note_off_c, 11, 81, 64
12, 350840, Note_on_c, 11, 77, 45
12, 350995, Note_off_c, 11, 77, 64
12, 351000, Note_on_c, 11, 82, 45
12, 351120, Note_off_c, 11, 82, 64
12, 351120, Note_on_c, 11, 79, 45
12, 351240, Note_off_c, 11, 79, 64
12, 351240, Note_on_c, 11, 82, 45
12, 351360, Note_off_c, 11, 82, 64
12, 351360, Note_on_c, 11, 79, 45
12, 351480, Note_off_c, 11, 79, 64
12, 351480, Note_on_c, 11, 82, 45
12, 351600, Note_off_c, 11, 82, 64
12, 351600, Note_on_c, 11, 79, 45
12, 351720, Note_off_c, 11, 79, 64
12, 351720, Note_on_c, 11, 82, 45
12, 351840, Note_off_c, 11, 82, 64
12, 351840, Note_on_c, 11, 79, 45
12, 351960, Note_off_c, 11, 79, 64
12, 351960, Note_on_c, 11, 82, 45
12, 352080, Note_off_c, 11, 82, 64
12, 352080, Note_on_c, 11, 79, 45
12, 352200, Note_off_c, 11, 79, 64
12, 352200, Note_on_c, 11, 82, 45
12, 352320, Note_off_c, 11, 82, 64
12, 352320, Note_on_c, 11, 79, 45
12, 352440, Note_off_c, 11, 79, 64
12, 352440, Note_on_c, 11, 82, 45
12, 352560, Note_off_c, 11, 82, 64
12, 352560, Note_on_c, 11, 79, 45
12, 352680, Note_off_c, 11, 79, 64
12, 352680, Note_on_c, 11, 82, 45
12, 352800, Note_off_c, 11, 82, 64
12, 352800, Note_on_c, 11, 79, 45
12, 352915, Note_off_c, 11, 79, 64
12, 352920, Note_on_c, 11, 81, 45
12, 353040, Note_off_c, 11, 81, 64
12, 353040, Note_on_c, 11, 77, 45
12, 353160, Note_off_c, 11, 77, 64
12, 353160, Note_on_c, 11, 81, 45
12, 353280, Note_off_c, 11, 81, 64
12, 353280, Note_on_c, 11, 77, 45
12, 353400, Note_off_c, 11, 77, 64
12, 353400, Note_on_c, 11, 81, 45
12, 353520, Note_off_c, 11, 81, 64
12, 353520, Note_on_c, 11, 77, 45
12, 353640, Note_off_c, 11, 77, 64
12, 353640, Note_on_c, 11, 81, 45
12, 353760, Note_off_c, 11, 81, 64
12, 353760, Note_on_c, 11, 77, 45
12, 353880, Note_off_c, 11, 77, 64
12, 353880, Note_on_c, 11, 81, 45
12, 354000, Note_off_c, 11, 81, 64
12, 354000, Note_on_c, 11, 77, 45
12, 354120, Note_off_c, 11, 77, 64
12, 354120, Note_on_c, 11, 81, 45
12, 354240, Note_off_c, 11, 81, 64
12, 354240, Note_on_c, 11, 77, 46
12, 354360, Note_off_c, 11, 77, 64
12, 354360, Note_on_c, 11, 81, 47
12, 354480, Note_off_c, 11, 81, 64
12, 354480, Note_on_c, 11, 77, 48
12, 354600, Note_off_c, 11, 77, 64
12, 354600, Note_on_c, 11, 81, 49
12, 354720, Note_off_c, 11, 81, 64
12, 354720, Note_on_c, 11, 77, 50
12, 354835, Note_off_c, 11, 77, 64
12, 354840, Note_on_c, 11, 82, 51
12, 354960, Note_off_c, 11, 82, 64
12, 354960, Note_on_c, 11, 76, 52
12, 355080, Note_off_c, 11, 76, 64
12, 355080, Note_on_c, 11, 72, 53
12, 355200, Note_off_c, 11, 72, 64
12, 355200, Note_on_c, 11, 70, 54
12, 355320, Note_off_c, 11, 70, 64
12, 355320, Note_on_c, 11, 72, 55
12, 355440, Note_off_c, 11, 72, 64
12, 355440, Note_on_c, 11, 70, 56
12, 355560, Note_off_c, 11, 70, 64
12, 355560, Note_on_c, 11, 72, 57
12, 355680, Note_off_c, 11, 72, 64
12, 355680, Note_on_c, 11, 70, 58
12, 355800, Note_off_c, 11, 70, 64
12, 355800, Note_on_c, 11, 72, 59
12, 355920, Note_off_c, 11, 72, 64
12, 355920, Note_on_c, 11, 70, 60
12, 356040, Note_off_c, 11, 70, 64
12, 356040, Note_on_c, 11, 72, 61
12, 356160, Note_off_c, 11, 72, 64
12, 356160, Note_on_c, 11, 70, 62
12, 356280, Note_off_c, 11, 70, 64
12, 356280, Note_on_c, 11, 72, 63
12, 356400, Note_off_c, 11, 72, 64
12, 356400, Note_on_c, 11, 70, 64
12, 356520, Note_off_c, 11, 70, 64
12, 356520, Note_on_c, 11, 72, 65
12, 356640, Note_off_c, 11, 72, 64
12, 356640, Note_on_c, 11, 70, 66
12, 356755, Note_off_c, 11, 70, 64
12, 360720, Program_c, 11, 45
12, 361200, Note_on_c, 11, 65, 30
12, 361600, Note_off_c, 11, 65, 64
12, 362160, Note_on_c, 11, 65, 30
12, 362560, Note_off_c, 11, 65, 64
12, 363120, Note_on_c, 11, 64, 30
12, 363520, Note_off_c, 11, 64, 64
12, 363600, Program_c, 11, 49
12, 363600, Note_on_c, 11, 72, 92
12, 364320, Note_off_c, 11, 72, 64
12, 364320, Note_on_c, 11, 74, 92
12, 364440, Note_off_c, 11, 74, 64
12, 364440, Note_on_c, 11, 76, 92
12, 364555, Note_off_c, 11, 76, 64
12, 364560, Note_on_c, 11, 77, 92
12, 364800, Note_off_c, 11, 77, 64
12, 364800, Note_on_c, 11, 76, 92
12, 364920, Note_off_c, 11, 76, 64
12, 364920, Note_on_c, 11, 74, 92
12, 365040, Note_off_c, 11, 74, 64
12, 365040, Note_on_c, 11, 72, 92
12, 365280, Note_off_c, 11, 72, 64
12, 365280, Note_on_c, 11, 74, 92
12, 365400, Note_off_c, 11, 74, 64
12, 365400, Note_on_c, 11, 76, 92
12, 365515, Note_off_c, 11, 76, 64
12, 365520, Note_on_c, 11, 77, 92
12, 365760, Note_off_c, 11, 77, 64
12, 365760, Note_on_c, 11, 76, 92
12, 365880, Note_off_c, 11, 76, 64
12, 365880, Note_on_c, 11, 74, 92
12, 366000, Note_off_c, 11, 74, 64
12, 366000, Note_on_c, 11, 72, 92
12, 366240, Note_off_c, 11, 72, 64
12, 366240, Note_on_c, 11, 74, 92
12, 366360, Note_off_c, 11, 74, 64
12, 366360, Note_on_c, 11, 76, 92
12, 366475, Note_off_c, 11, 76, 64
12, 366480, Note_on_c, 11, 77, 92
12, 366715, Note_off_c, 11, 77, 64
12, 367560, Program_c, 11, 45
12, 368040, Note_on_c, 11, 65, 30
12, 368440, Note_off_c, 11, 65, 64
12, 369000, Note_on_c, 11, 65, 30
12, 369400, Note_off_c, 11, 65, 64
12, 369960, Note_on_c, 11, 64, 30
12, 370360, Note_off_c, 11, 64, 64
12, 370920, Note_on_c, 11, 65, 30
12, 371320, Note_off_c, 11, 65, 64
12, 371880, Note_on_c, 11, 65, 30
12, 372280, Note_off_c, 11, 65, 64
12, 372840, Note_on_c, 11, 65, 30
12, 373240, Note_off_c, 11, 65, 64
12, 373800, Note_on_c, 11, 64, 30
12, 374200, Note_off_c, 11, 64, 64
12, 374280, Program_c, 11, 48
12, 374280, Note_on_c, 11, 65, 92
12, 374435, Note_off_c, 11, 65, 64
12, 374440, Note_on_c, 11, 69, 92
12, 374595, Note_off_c, 11, 69, 64
12, 374600, Note_on_c, 11, 69, 92
12, 374755, Note_off_c, 11, 69, 64
12, 374760, Note_on_c, 11, 69, 92
12, 374915, Note_off_c, 11, 69, 64
12, 374920, Note_on_c, 11, 70, 92
12, 375075, Note_off_c, 11, 70, 64
12, 375080, Note_on_c, 11, 72, 92
12, 375235, Note_off_c, 11, 72, 64
12, 375240, Note_on_c, 11, 74, 92
12, 375395, Note_off_c, 11, 74, 64
12, 375400, Note_on_c, 11, 65, 92
12, 375555, Note_off_c, 11, 65, 64
12, 375560, Note_on_c, 11, 74, 92
12, 375715, Note_off_c, 11, 74, 64
12, 375720, Note_on_c, 11, 65, 92
12, 375875, Note_off_c, 11, 65, 64
12, 375880, Note_on_c, 11, 72, 92
12, 376035, Note_off_c, 11, 72, 64
12, 376040, Note_on_c, 11, 70, 92
12, 376195, Note_off_c, 11, 70, 64
12, 376200, Note_on_c, 11, 69, 92
12, 376355, Note_off_c, 11, 69, 64
12, 376360, Note_on_c, 11, 60, 92
12, 376515, Note_off_c, 11, 60, 64
12, 376520, Note_on_c, 11, 69, 92
12, 376675, Note_off_c, 11, 69, 64
12, 376680, Note_on_c, 11, 60, 92
12, 376835, Note_off_c, 11, 60, 64
12, 376840, Note_on_c, 11, 67, 92
12, 376995, Note_off_c, 11, 67, 64
12, 377000, Note_on_c, 11, 65, 92
12, 377155, Note_off_c, 11, 65, 64
12, 377160, Note_on_c, 11, 58, 92
12, 377315, Note_off_c, 11, 58, 64
12, 377320, Note_on_c, 11, 55, 92
12, 377475, Note_off_c, 11, 55, 64
12, 377480, Note_on_c, 11, 58, 92
12, 377635, Note_off_c, 11, 58, 64
12, 377640, Note_on_c, 11, 55, 92
12, 377795, Note_off_c, 11, 55, 64
12, 377800, Note_on_c, 11, 57, 92
12, 377955, Note_off_c, 11, 57, 64
12, 377960, Note_on_c, 11, 58, 92
12, 378115, Note_off_c, 11, 58, 64
12, 378120, Note_on_c, 11, 57, 92
12, 378520, Note_off_c, 11, 57, 64
12, 378600, Program_c, 11, 50
12, 378840, Note_on_c, 11, 69, 92
12, 378960, Note_off_c, 11, 69, 64
12, 378960, Note_on_c, 11, 67, 92
12, 379080, Note_off_c, 11, 67, 64
12, 379080, Note_on_c, 11, 65, 92
12, 379160, Note_off_c, 11, 65, 64
12, 379320, Note_on_c, 11, 69, 92
12, 379440, Note_off_c, 11, 69, 64
12, 379440, Note_on_c, 11, 67, 92
12, 379560, Note_off_c, 11, 67, 64
12, 379560, Note_on_c, 11, 65, 92
12, 379640, Note_off_c, 11, 65, 64
12, 379800, Note_on_c, 11, 74, 92
12, 379920, Note_off_c, 11, 74, 64
12, 379920, Note_on_c, 11, 71, 92
12, 380040, Note_off_c, 11, 71, 64
12, 380040, Note_on_c, 11, 72, 92
12, 380520, Note_off_c, 11, 72, 64
12, 380760, Note_on_c, 11, 74, 92
12, 380880, Note_off_c, 11, 74, 64
12, 380880, Note_on_c, 11, 72, 92
12, 381000, Note_off_c, 11, 72, 64
12, 381000, Note_on_c, 11, 69, 92
12, 381080, Note_off_c, 11, 69, 64
12, 381240, Note_on_c, 11, 72, 92
12, 381360, Note_off_c, 11, 72, 64
12, 381360, Note_on_c, 11, 70, 92
12, 381480, Note_off_c, 11, 70, 64
12, 381480, Note_on_c, 11, 67, 92
12, 381560, Note_off_c, 11, 67, 64
12, 381720, Note_on_c, 11, 70, 92
12, 381840, Note_off_c, 11, 70, 64
12, 381840, Note_on_c, 11, 69, 92
12, 381960, Note_off_c, 11, 69, 64
12, 381960, Note_on_c, 11, 65, 92
12, 382440, Note_off_c, 11, 65, 64
12, 382680, Note_on_c, 11, 69, 92
12, 382800, Note_off_c, 11, 69, 64
12, 382800, Note_on_c, 11, 67, 92
12, 382920, Note_off_c, 11, 67, 64
12, 382920, Note_on_c, 11, 65, 92
12, 383000, Note_off_c, 11, 65, 64
12, 383160, Note_on_c, 11, 69, 92
12, 383280, Note_off_c, 11, 69, 64
12, 383280, Note_on_c, 11, 67, 92
12, 383400, Note_off_c, 11, 67, 64
12, 383400, Note_on_c, 11, 65, 92
12, 383480, Note_off_c, 11, 65, 64
12, 383640, Note_on_c, 11, 74, 92
12, 383760, Note_off_c, 11, 74, 64
12, 383760, Note_on_c, 11, 71, 92
12, 383880, Note_off_c, 11, 71, 64
12, 383880, Note_on_c, 11, 72, 92
12, 384360, Note_off_c, 11, 72, 64
12, 384600, Note_on_c, 11, 74, 92
12, 384720, Note_off_c, 11, 74, 64
12, 384720, Note_on_c, 11, 72, 92
12, 384840, Note_off_c, 11, 72, 64
12, 384840, Note_on_c, 11, 69, 92
12, 384920, Note_off_c, 11, 69, 64
12, 385080, Note_on_c, 11, 72, 92
12, 385200, Note_off_c, 11, 72, 64
12, 385200, Note_on_c, 11, 70, 92
12, 385320, Note_off_c, 11, 70, 64
12, 385320, Note_on_c, 11, 67, 92
12, 385400, Note_off_c, 11, 67, 64
12, 385560, Note_on_c, 11, 70, 92
12, 385680, Note_off_c, 11, 70, 64
12, 385680, Note_on_c, 11, 69, 92
12, 385800, Note_off_c, 11, 69, 64
12, 385800, Note_on_c, 11, 65, 75
12, 385880, Note_off_c, 11, 65, 64
12, 386040, Note_on_c, 11, 72, 75
12, 386160, Note_off_c, 11, 72, 64
12, 386160, Note_on_c, 11, 69, 75
12, 386280, Note_off_c, 11, 69, 64
12, 386280, Note_on_c, 11, 67, 75
12, 386360, Note_off_c, 11, 67, 64
12, 386520, Note_on_c, 11, 72, 75
12, 386640, Note_off_c, 11, 72, 64
12, 386640, Note_on_c, 11, 70, 75
12, 386760, Note_off_c, 11, 70, 64
12, 386760, Note_on_c, 11, 65, 75
12, 386840, Note_off_c, 11, 65, 64
12, 387000, Note_on_c, 11, 72, 75
12, 387120, Note_off_c, 11, 72, 64
12, 387120, Note_on_c, 11, 69, 75
12, 387240, Note_off_c, 11, 69, 64
12, 387240, Note_on_c, 11, 67, 75
12, 387320, Note_off_c, 11, 67, 64
12, 387480, Note_on_c, 11, 72, 72
12, 387600, Note_off_c, 11, 72, 64
12, 387600, Note_on_c, 11, 70, 70
12, 387720, Note_off_c, 11, 70, 64
12, 387720, Note_on_c, 11, 65, 68
12, 387800, Note_off_c, 11, 65, 64
12, 387960, Note_on_c, 11, 72, 64
12, 388080, Note_off_c, 11, 72, 64
12, 388080, Note_on_c, 11, 69, 62
12, 388200, Note_off_c, 11, 69, 64
12, 388200, Note_on_c, 11, 67, 60
12, 388280, Note_off_c, 11, 67, 64
12, 388440, Note_on_c, 11, 72, 60
12, 388560, Note_off_c, 11, 72, 64
12, 388560, Note_on_c, 11, 70, 60
12, 388680, Note_off_c, 11, 70, 64
12, 388680, Note_on_c, 11, 65, 60
12, 388760, Note_off_c, 11, 65, 64
12, 388920, Note_on_c, 11, 72, 57
12, 389040, Note_off_c, 11, 72, 64
12, 389040, Note_on_c, 11, 69, 55
12, 389160, Note_off_c, 11, 69, 64
12, 389160, Note_on_c, 11, 67, 53
12, 389240, Note_off_c, 11, 67, 64
12, 389400, Note_on_c, 11, 72, 49
12, 389520, Note_off_c, 11, 72, 64
12, 389520, Note_on_c, 11, 70, 47
12, 389635, Note_off_c, 11, 70, 64
12, 389640, Program_c, 11, 48
12, 389880, Note_on_c, 11, 72, 45
12, 390000, Note_off_c, 11, 72, 64
12, 390000, Note_on_c, 11, 69, 45
12, 390120, Note_off_c, 11, 69, 64
12, 390120, Note_on_c, 11, 67, 45
12, 390200, Note_off_c, 11, 67, 64
12, 390360, Note_on_c, 11, 72, 40
12, 390480, Note_off_c, 11, 72, 64
12, 390480, Note_on_c, 11, 70, 38
12, 390600, Note_off_c, 11, 70, 64
12, 390840, Note_on_c, 11, 72, 30
12, 390960, Note_off_c, 11, 72, 64
12, 390960, Note_on_c, 11, 69, 30
12, 391080, Note_off_c, 11, 69, 64
12, 391080, Note_on_c, 11, 67, 30
12, 391160, Note_off_c, 11, 67, 64
12, 391320, Note_on_c, 11, 72, 30
12, 391440, Note_off_c, 11, 72, 64
12, 391440, Note_on_c, 11, 70, 30
12, 391560, Note_off_c, 11, 70, 64
12, 391800, Note_on_c, 11, 72, 30
12, 391920, Note_off_c, 11, 72, 64
12, 391920, Note_on_c, 11, 69, 30
12, 392040, Note_off_c, 11, 69, 64
12, 392040, Note_on_c, 11, 67, 30
12, 392120, Note_off_c, 11, 67, 64
12, 392280, Note_on_c, 11, 72, 30
12, 392400, Note_off_c, 11, 72, 64
12, 392400, Note_on_c, 11, 70, 30
12, 392520, Note_off_c, 11, 70, 64
12, 392760, Note_on_c, 11, 72, 30
12, 392880, Note_off_c, 11, 72, 64
12, 392880, Note_on_c, 11, 69, 30
12, 393000, Note_off_c, 11, 69, 64
12, 393000, Note_on_c, 11, 67, 30
12, 393080, Note_off_c, 11, 67, 64
12, 393240, Note_on_c, 11, 72, 30
12, 393360, Note_off_c, 11, 72, 64
12, 393360, Note_on_c, 11, 70, 30
12, 393475, Note_off_c, 11, 70, 64
12, 393480, Note_on_c, 11, 65, 30
12, 393960, Note_off_c, 11, 65, 64
12, 393960, Note_on_c, 11, 60, 30
12, 394440, Note_off_c, 11, 60, 64
12, 394440, Note_on_c, 11, 65, 30
12, 394920, Note_off_c, 11, 65, 64
12, 394920, Note_on_c, 11, 60, 30
12, 395400, Note_off_c, 11, 60, 64
12, 395400, Note_on_c, 11, 65, 30
12, 395880, Note_off_c, 11, 65, 64
12, 395880, Note_on_c, 11, 60, 30
12, 396360, Note_off_c, 11, 60, 64
12, 396360, Note_on_c, 11, 65, 30
12, 396840, Note_off_c, 11, 65, 64
12, 396840, Note_on_c, 11, 60, 30
12, 397320, Note_off_c, 11, 60, 64
12, 397320, Note_on_c, 11, 65, 30
12, 397555, Note_off_c, 11, 65, 64
12, 405360, Note_on_c, 11, 70, 108
12, 405440, Note_off_c, 11, 70, 64
12, 405600, Note_on_c, 11, 58, 108
12, 405680, Note_off_c, 11, 58, 64
12, 405840, Note_on_c, 11, 70, 108
12, 405920, Note_off_c, 11, 70, 64
12, 406080, Note_on_c, 11, 58, 108
12, 406160, Note_off_c, 11, 58, 64
12, 406320, Note_on_c, 11, 67, 108
12, 406400, Note_off_c, 11, 67, 64
12, 406560, Note_on_c, 11, 69, 108
12, 406640, Note_off_c, 11, 69, 64
12, 406800, Note_on_c, 11, 57, 108
12, 406880, Note_off_c, 11, 57, 64
12, 407040, Note_on_c, 11, 65, 108
12, 407120, Note_off_c, 11, 65, 64
12, 407280, Note_on_c, 11, 63, 108
12, 407360, Note_off_c, 11, 63, 64
12, 407520, Note_on_c, 11, 62, 108
12, 407760, Note_off_c, 11, 62, 64
12, 407760, Note_on_c, 11, 63, 108
12, 407880, Note_off_c, 11, 63, 64
12, 407880, Note_on_c, 11, 62, 108
12, 407995, Note_off_c, 11, 62, 64
12, 408000, Note_on_c, 11, 60, 108
12, 408080, Note_off_c, 11, 60, 64
12, 408240, Note_on_c, 11, 70, 108
12, 408320, Note_off_c, 11, 70, 64
12, 408480, Note_on_c, 11, 69, 108
12, 408560, Note_off_c, 11, 69, 64
12, 408720, Note_on_c, 11, 69, 108
12, 408800, Note_off_c, 11, 69, 64
12, 408960, Note_on_c, 11, 70, 60
12, 409195, Note_off_c, 11, 70, 64
12, 409920, Note_on_c, 11, 57, 60
12, 410155, Note_off_c, 11, 57, 64
12, 410880, Note_on_c, 11, 62, 60
12, 411035, Note_off_c, 11, 62, 64
12, 411040, Note_on_c, 11, 70, 60
12, 411195, Note_off_c, 11, 70, 64
12, 411200, Note_on_c, 11, 70, 60
12, 411355, Note_off_c, 11, 70, 64
12, 411360, Note_on_c, 11, 70, 60
12, 412955, Note_off_c, 11, 70, 64
12, 412960, Note_on_c, 11, 70, 60
12, 413115, Note_off_c, 11, 70, 64
12, 413120, Note_on_c, 11, 70, 60
12, 413275, Note_off_c, 11, 70, 64
12, 413280, Note_on_c, 11, 70, 60
12, 414875, Note_off_c, 11, 70, 64
12, 414880, Note_on_c, 11, 70, 60
12, 415035, Note_off_c, 11, 70, 64
12, 415040, Note_on_c, 11, 70, 60
12, 415195, Note_off_c, 11, 70, 64
12, 415200, Note_on_c, 11, 70, 60
12, 416795, Note_off_c, 11, 70, 64
12, 416800, Note_on_c, 11, 70, 60
12, 416955, Note_off_c, 11, 70, 64
12, 416960, Note_on_c, 11, 70, 60
12, 417115, Note_off_c, 11, 70, 64
12, 417120, Note_on_c, 11, 70, 60
12, 418715, Note_off_c, 11, 70, 64
12, 418720, Note_on_c, 11, 70, 60
12, 418875, Note_off_c, 11, 70, 64
12, 418880, Note_on_c, 11, 70, 60
12, 419035, Note_off_c, 11, 70, 64
12, 419040, Note_on_c, 11, 70, 60
12, 419675, Note_off_c, 11, 70, 64
12, 419680, Note_on_c, 11, 67, 60
12, 419835, Note_off_c, 11, 67, 64
12, 419840, Note_on_c, 11, 67, 60
12, 419995, Note_off_c, 11, 67, 64
12, 420000, Note_on_c, 11, 67, 60
12, 420635, Note_off_c, 11, 67, 64
12, 420640, Note_on_c, 11, 64, 72
12, 420795, Note_off_c, 11, 64, 64
12, 420800, Note_on_c, 11, 64, 75
12, 420955, Note_off_c, 11, 64, 64
12, 420960, Note_on_c, 11, 64, 78
12, 421595, Note_off_c, 11, 64, 64
12, 421600, Note_on_c, 11, 60, 91
12, 421755, Note_off_c, 11, 60, 64
12, 421760, Note_on_c, 11, 60, 94
12, 421915, Note_off_c, 11, 60, 64
12, 421920, Note_on_c, 11, 60, 97
12, 422320, Note_off_c, 11, 60, 64
12, 422400, Note_on_c, 11, 57, 108
12, 422400, Note_on_c, 11, 65, 108
12, 422800, Note_off_c, 11, 57, 64
12, 423035, Note_off_c, 11, 65, 64
12, 423040, Note_on_c, 11, 69, 108
12, 423200, Note_off_c, 11, 69, 64
12, 423200, Note_on_c, 11, 67, 108
12, 423355, Note_off_c, 11, 67, 64
12, 423360, Note_on_c, 11, 65, 108
12, 423520, Note_off_c, 11, 65, 64
12, 423520, Note_on_c, 11, 69, 108
12, 423680, Note_off_c, 11, 69, 64
12, 423680, Note_on_c, 11, 67, 108
12, 423835, Note_off_c, 11, 67, 64
12, 423840, Note_on_c, 11, 65, 108
12, 424000, Note_off_c, 11, 65, 64
12, 424000, Note_on_c, 11, 74, 108
12, 424160, Note_off_c, 11, 74, 64
12, 424160, Note_on_c, 11, 71, 108
12, 424315, Note_off_c, 11, 71, 64
12, 424320, Note_on_c, 11, 72, 108
12, 424955, Note_off_c, 11, 72, 64
12, 424960, Note_on_c, 11, 74, 108
12, 425120, Note_off_c, 11, 74, 64
12, 425120, Note_on_c, 11, 72, 108
12, 425275, Note_off_c, 11, 72, 64
12, 425280, Note_on_c, 11, 69, 108
12, 425440, Note_off_c, 11, 69, 64
12, 425440, Note_on_c, 11, 72, 108
12, 425600, Note_off_c, 11, 72, 64
12, 425600, Note_on_c, 11, 70, 108
12, 425755, Note_off_c, 11, 70, 64
12, 425760, Note_on_c, 11, 67, 108
12, 425920, Note_off_c, 11, 67, 64
12, 425920, Note_on_c, 11, 70, 108
12, 426080, Note_off_c, 11, 70, 64
12, 426080, Note_on_c, 11, 69, 108
12, 426235, Note_off_c, 11, 69, 64
12, 426240, Note_on_c, 11, 65, 108
12, 426875, Note_off_c, 11, 65, 64
12, 426880, Note_on_c, 11, 69, 108
12, 427040, Note_off_c, 11, 69, 64
12, 427040, Note_on_c, 11, 67, 108
12, 427195, Note_off_c, 11, 67, 64
12, 427200, Note_on_c, 11, 65, 108
12, 427360, Note_off_c, 11, 65, 64
12, 427360, Note_on_c, 11, 69, 108
12, 427520, Note_off_c, 11, 69, 64
12, 427520, Note_on_c, 11, 67, 108
12, 427675, Note_off_c, 11, 67, 64
12, 427680, Note_on_c, 11, 65, 108
12, 427840, Note_off_c, 11, 65, 64
12, 427840, Note_on_c, 11, 74, 108
12, 428000, Note_off_c, 11, 74, 64
12, 428000, Note_on_c, 11, 71, 108
12, 428155, Note_off_c, 11, 71, 64
12, 428160, Note_on_c, 11, 72, 108
12, 428795, Note_off_c, 11, 72, 64
12, 428800, Note_on_c, 11, 74, 108
12, 428960, Note_off_c, 11, 74, 64
12, 428960, Note_on_c, 11, 72, 108
12, 429115, Note_off_c, 11, 72, 64
12, 429120, Note_on_c, 11, 69, 108
12, 429280, Note_off_c, 11, 69, 64
12, 429280, Note_on_c, 11, 72, 108
12, 429440, Note_off_c, 11, 72, 64
12, 429440, Note_on_c, 11, 70, 108
12, 429595, Note_off_c, 11, 70, 64
12, 429600, Note_on_c, 11, 67, 108
12, 429760, Note_off_c, 11, 67, 64
12, 429760, Note_on_c, 11, 70, 108
12, 429920, Note_off_c, 11, 70, 64
12, 429920, Note_on_c, 11, 69, 108
12, 430075, Note_off_c, 11, 69, 64
12, 430080, Note_on_c, 11, 65, 108
12, 430715, Note_off_c, 11, 65, 64
12, 430720, Note_on_c, 11, 77, 108
12, 430875, Note_off_c, 11, 77, 64
12, 430880, Note_on_c, 11, 77, 108
12, 431035, Note_off_c, 11, 77, 64
12, 431040, Note_on_c, 11, 77, 108
12, 431675, Note_off_c, 11, 77, 64
12, 431680, Note_on_c, 11, 77, 108
12, 431835, Note_off_c, 11, 77, 64
12, 431840, Note_on_c, 11, 77, 108
12, 431995, Note_off_c, 11, 77, 64
12, 432000, Note_on_c, 11, 81, 108
12, 432635, Note_off_c, 11, 81, 64
12, 432640, Note_on_c, 11, 81, 108
12, 432795, Note_off_c, 11, 81, 64
12, 432800, Note_on_c, 11, 81, 108
12, 432955, Note_off_c, 11, 81, 64
12, 432960, Note_on_c, 11, 76, 108
12, 433595, Note_off_c, 11, 76, 64
12, 433600, Note_on_c, 11, 76, 108
12, 433755, Note_off_c, 11, 76, 64
12, 433760, Note_on_c, 11, 76, 108
12, 433915, Note_off_c, 11, 76, 64
12, 433920, Note_on_c, 11, 77, 108
12, 434555, Note_off_c, 11, 77, 64
12, 434560, Note_on_c, 11, 77, 108
12, 434715, Note_off_c, 11, 77, 64
12, 434720, Note_on_c, 11, 77, 108
12, 434875, Note_off_c, 11, 77, 64
12, 434880, Note_on_c, 11, 77, 108
12, 435515, Note_off_c, 11, 77, 64
12, 435520, Note_on_c, 11, 77, 108
12, 435675, Note_off_c, 11, 77, 64
12, 435680, Note_on_c, 11, 77, 108
12, 435835, Note_off_c, 11, 77, 64
12, 435840, Note_on_c, 11, 81, 108
12, 436475, Note_off_c, 11, 81, 64
12, 436480, Note_on_c, 11, 81, 108
12, 436635, Note_off_c, 11, 81, 64
12, 436640, Note_on_c, 11, 81, 108
12, 436795, Note_off_c, 11, 81, 64
12, 436800, Note_on_c, 11, 76, 108
12, 437435, Note_off_c, 11, 76, 64
12, 437440, Note_on_c, 11, 76, 108
12, 437595, Note_off_c, 11, 76, 64
12, 437600, Note_on_c, 11, 76, 108
12, 437755, Note_off_c, 11, 76, 64
12, 437760, Note_on_c, 11, 77, 108
12, 438395, Note_off_c, 11, 77, 64
12, 438400, Note_on_c, 11, 77, 108
12, 438555, Note_off_c, 11, 77, 64
12, 438560, Note_on_c, 11, 77, 108
12, 438715, Note_off_c, 11, 77, 64
12, 438720, Note_on_c, 11, 77, 108
12, 439355, Note_off_c, 11, 77, 64
12, 439360, Note_on_c, 11, 77, 108
12, 439515, Note_off_c, 11, 77, 64
12, 439520, Note_on_c, 11, 77, 108
12, 439675, Note_off_c, 11, 77, 64
12, 439680, Note_on_c, 11, 81, 108
12, 440315, Note_off_c, 11, 81, 64
12, 440320, Note_on_c, 11, 81, 108
12, 440475, Note_off_c, 11, 81, 64
12, 440480, Note_on_c, 11, 81, 108
12, 440635, Note_off_c, 11, 81, 64
12, 440640, Note_on_c, 11, 81, 108
12, 441275, Note_off_c, 11, 81, 64
12, 441280, Note_on_c, 11, 81, 108
12, 441435, Note_off_c, 11, 81, 64
12, 441440, Note_on_c, 11, 81, 108
12, 441595, Note_off_c, 11, 81, 64
12, 441600, Note_on_c, 11, 81, 108
12, 442235, Note_off_c, 11, 81, 64
12, 442240, Note_on_c, 11, 79, 103
12, 442395, Note_off_c, 11, 79, 64
12, 442400, Note_on_c, 11, 79, 102
12, 442555, Note_off_c, 11, 79, 64
12, 442560, Note_on_c, 11, 79, 101
12, 443195, Note_off_c, 11, 79, 64
12, 443200, Note_on_c, 11, 77, 96
12, 443355, Note_off_c, 11, 77, 64
12, 443360, Note_on_c, 11, 77, 94
12, 443515, Note_off_c, 11, 77, 64
12, 443520, Note_on_c, 11, 77, 92
12, 444155, Note_off_c, 11, 77, 64
12, 444160, Note_on_c, 11, 76, 92
12, 444315, Note_off_c, 11, 76, 64
12, 444320, Note_on_c, 11, 76, 92
12, 444475, Note_off_c, 11, 76, 64
12, 444480, Note_on_c, 11, 76, 92
12, 445115, Note_off_c, 11, 76, 64
12, 445120, Note_on_c, 11, 74, 81
12, 445275, Note_off_c, 11, 74, 64
12, 445280, Note_on_c, 11, 74, 78
12, 445435, Note_off_c, 11, 74, 64
12, 445440, Note_on_c, 11, 74, 75
12, 446075, Note_off_c, 11, 74, 64
12, 446080, Note_on_c, 11, 72, 75
12, 446235, Note_off_c, 11, 72, 64
12, 446240, Note_on_c, 11, 72, 75
12, 446395, Note_off_c, 11, 72, 64
12, 446400, Note_on_c, 11, 72, 75
12, 447035, Note_off_c, 11, 72, 64
12, 447040, Note_on_c, 11, 70, 66
12, 447195, Note_off_c, 11, 70, 64
12, 447200, Note_on_c, 11, 70, 63
12, 447355, Note_off_c, 11, 70, 64
12, 447360, Note_on_c, 11, 70, 60
12, 447995, Note_off_c, 11, 70, 64
12, 448000, Note_on_c, 11, 69, 60
12, 448155, Note_off_c, 11, 69, 64
12, 448160, Note_on_c, 11, 69, 60
12, 448315, Note_off_c, 11, 69, 64
12, 448320, Note_on_c, 11, 69, 60
12, 448955, Note_off_c, 11, 69, 64
12, 448960, Note_on_c, 11, 67, 60
12, 449115, Note_off_c, 11, 67, 64
12, 449120, Note_on_c, 11, 67, 60
12, 449275, Note_off_c, 11, 67, 64
12, 450240, Note_on_c, 11, 65, 60
12, 450320, Note_off_c, 11, 65, 64
12, 450480, Note_on_c, 11, 62, 60
12, 450600, Note_off_c, 11, 62, 64
12, 450600, Note_on_c, 11, 60, 60
12, 450720, Note_off_c, 11, 60, 64
12, 450720, Note_on_c, 11, 59, 60
12, 450800, Note_off_c, 11, 59, 64
12, 450960, Note_on_c, 11, 55, 60
12, 451040, Note_off_c, 11, 55, 64
12, 451200, Note_on_c, 11, 60, 92
12, 451840, Note_off_c, 11, 60, 64
12, 451920, Note_on_c, 11, 72, 92
12, 452155, Note_off_c, 11, 72, 64
12, 452160, Note_on_c, 11, 65, 92
12, 452160, Note_on_c, 11, 72, 92
12, 452395, Note_off_c, 11, 72, 64
12, 452395, Note_off_c, 11, 65, 64
12, 452640, Note_on_c, 11, 64, 92
12, 452640, Note_on_c, 11, 72, 92
12, 452875, Note_off_c, 11, 72, 64
12, 452875, Note_off_c, 11, 64, 64
12, 454080, Note_on_c, 11, 65, 60
12, 454160, Note_off_c, 11, 65, 64
12, 454320, Note_on_c, 11, 62, 60
12, 454440, Note_off_c, 11, 62, 64
12, 454440, Note_on_c, 11, 60, 60
12, 454560, Note_off_c, 11, 60, 64
12, 454560, Note_on_c, 11, 59, 60
12, 454640, Note_off_c, 11, 59, 64
12, 454800, Note_on_c, 11, 55, 60
12, 454880, Note_off_c, 11, 55, 64
12, 455040, Note_on_c, 11, 60, 92
12, 455680, Note_off_c, 11, 60, 64
12, 455760, Note_on_c, 11, 72, 92
12, 455995, Note_off_c, 11, 72, 64
12, 456000, Note_on_c, 11, 65, 92
12, 456000, Note_on_c, 11, 72, 92
12, 456235, Note_off_c, 11, 72, 64
12, 456235, Note_off_c, 11, 65, 64
12, 456480, Note_on_c, 11, 64, 92
12, 456480, Note_on_c, 11, 72, 92
12, 456715, Note_off_c, 11, 72, 64
12, 456715, Note_off_c, 11, 64, 64
12, 456960, Note_on_c, 11, 69, 92
12, 456960, Note_on_c, 11, 72, 92
12, 457195, Note_off_c, 11, 72, 64
12, 457195, Note_off_c, 11, 69, 64
12, 459840, Note_on_c, 11, 76, 92
12, 460480, Note_off_c, 11, 76, 64
12, 460560, Note_on_c, 11, 76, 92
12, 460795, Note_off_c, 11, 76, 64
12, 460800, Note_on_c, 11, 69, 92
12, 460800, Note_on_c, 11, 77, 92
12, 461035, Note_off_c, 11, 77, 64
12, 461035, Note_off_c, 11, 69, 64
12, 463680, Note_on_c, 11, 76, 92
12, 464320, Note_off_c, 11, 76, 64
12, 464400, Note_on_c, 11, 76, 92
12, 464635, Note_off_c, 11, 76, 64
12, 464640, Note_on_c, 11, 69, 92
12, 464640, Note_on_c, 11, 77, 92
12, 464875, Note_off_c, 11, 77, 64
12, 464875, Note_off_c, 11, 69, 64
12, 465600, Note_on_c, 11, 76, 92
12, 466240, Note_off_c, 11, 76, 64
12, 466320, Note_on_c, 11, 76, 92
12, 466555, Note_off_c, 11, 76, 64
12, 466560, Note_on_c, 11, 69, 92
12, 466560, Note_on_c, 11, 77, 92
12, 466795, Note_off_c, 11, 77, 64
12, 466795, Note_off_c, 11, 69, 64
12, 467520, Note_on_c, 11, 76, 92
12, 468160, Note_off_c, 11, 76, 64
12, 468240, Note_on_c, 11, 76, 92
12, 468475, Note_off_c, 11, 76, 64
12, 468480, Note_on_c, 11, 69, 92
12, 468480, Note_on_c, 11, 77, 92
12, 468715, Note_off_c, 11, 77, 64
12, 468715, Note_off_c, 11, 69, 64
12, 469440, Note_on_c, 11, 69, 92
12, 469440, Note_on_c, 11, 77, 92
12, 469675, Note_off_c, 11, 77, 64
12, 469675, Note_off_c, 11, 69, 64
12, 470400, Note_on_c, 11, 69, 75
12, 470400, Note_on_c, 11, 77, 75
12, 470635, Note_off_c, 11, 77, 64
12, 470635, Note_off_c, 11, 69, 64
12, 471360, Note_on_c, 11, 69, 45
12, 471360, Note_on_c, 11, 77, 45
12, 471595, Note_off_c, 11, 77, 64
12, 471595, Note_off_c, 11, 69, 64
12, 472320, Note_on_c, 11, 69, 30
12, 472320, Note_on_c, 11, 77, 30
12, 472555, Note_off_c, 11, 77, 64
12, 472555, Note_off_c, 11, 69, 64
12, 486000, Note_on_c, 11, 72, 92
12, 486840, Note_off_c, 11, 72, 64
12, 486960, Note_on_c, 11, 64, 92
12, 486960, Note_on_c, 11, 72, 92
12, 487800, Note_off_c, 11, 72, 64
12, 487800, Note_off_c, 11, 64, 64
12, 487920, Note_on_c, 11, 65, 92
12, 487920, Note_on_c, 11, 72, 92
12, 488760, Note_off_c, 11, 72, 64
12, 488760, Note_off_c, 11, 65, 64
12, 488880, Note_on_c, 11, 65, 75
12, 488880, Note_on_c, 11, 72, 75
12, 489360, Note_off_c, 11, 72, 64
12, 489360, Note_off_c, 11, 65, 64
12, 489360, Note_on_c, 11, 65, 75
12, 489360, Note_on_c, 11, 72, 75
12, 489840, Note_off_c, 11, 72, 64
12, 489840, Note_off_c, 11, 65, 64
12, 489840, Note_on_c, 11, 65, 75
12, 489840, Note_on_c, 11, 72, 75
12, 490680, Note_off_c, 11, 72, 64
12, 490680, Note_off_c, 11, 65, 64
12, 490800, Note_on_c, 11, 65, 60
12, 491640, Note_off_c, 11, 65, 64
12, 491760, Note_on_c, 11, 65, 60
12, 492600, Note_off_c, 11, 65, 64
12, 496080, Program_c, 11, 50
12, 496080, Note_on_c, 11, 72, 60
12, 496200, Note_off_c, 11, 72, 64
12, 496560, Note_on_c, 11, 77, 60
12, 496680, Note_off_c, 11, 77, 64
12, 497040, Note_on_c, 11, 72, 60
12, 497160, Note_off_c, 11, 72, 64
12, 497520, Note_on_c, 11, 74, 60
12, 497640, Note_off_c, 11, 74, 64
12, 498000, Note_on_c, 11, 72, 60
12, 498120, Note_off_c, 11, 72, 64
12, 498480, Note_on_c, 11, 69, 60
12, 498600, Note_off_c, 11, 69, 64
12, 498960, Note_on_c, 11, 70, 60
12, 499080, Note_off_c, 11, 70, 64
12, 499440, Note_on_c, 11, 69, 60
12, 499560, Note_off_c, 11, 69, 64
12, 499920, Note_on_c, 11, 65, 60
12, 500040, Note_off_c, 11, 65, 64
12, 500400, Note_on_c, 11, 67, 60
12, 500520, Note_off_c, 11, 67, 64
12, 500880, Note_on_c, 11, 69, 60
12, 501000, Note_off_c, 11, 69, 64
12, 501360, Note_on_c, 11, 65, 60
12, 501480, Note_off_c, 11, 65, 64
12, 501840, Note_on_c, 11, 67, 60
12, 501960, Note_off_c, 11, 67, 64
12, 502320, Note_on_c, 11, 69, 60
12, 502440, Note_off_c, 11, 69, 64
12, 502800, Note_on_c, 11, 65, 60
12, 502920, Note_off_c, 11, 65, 64
12, 503280, Note_on_c, 11, 67, 60
12, 503400, Note_off_c, 11, 67, 64
12, 503760, Note_on_c, 11, 65, 60
12, 503880, Note_off_c, 11, 65, 64
12, 504240, Note_on_c, 11, 62, 60
12, 504360, Note_off_c, 11, 62, 64
12, 504720, Note_on_c, 11, 64, 60
12, 504840, Note_off_c, 11, 64, 64
12, 505200, Note_on_c, 11, 62, 60
12, 505320, Note_off_c, 11, 62, 64
12, 505680, Note_on_c, 11, 57, 60
12, 505800, Note_off_c, 11, 57, 64
12, 506160, Note_on_c, 11, 57, 60
12, 506280, Note_off_c, 11, 57, 64
12, 506640, Note_on_c, 11, 57, 60
12, 506760, Note_off_c, 11, 57, 64
12, 507600, Program_c, 11, 48
12, 507600, Note_on_c, 11, 57, 60
12, 508080, Note_off_c, 11, 57, 64
12, 508080, Note_on_c, 11, 62, 60
12, 509040, Note_off_c, 11, 62, 64
12, 509040, Note_on_c, 11, 66, 60
12, 509520, Note_off_c, 11, 66, 64
12, 509520, Note_on_c, 11, 69, 60
12, 510000, Note_off_c, 11, 69, 64
12, 510000, Note_on_c, 11, 66, 60
12, 510400, Note_off_c, 11, 66, 64
12, 510480, Note_on_c, 11, 66, 60
12, 510960, Note_off_c, 11, 66, 64
12, 510960, Note_on_c, 11, 69, 60
12, 511440, Note_off_c, 11, 69, 64
12, 511440, Note_on_c, 11, 73, 60
12, 511920, Note_off_c, 11, 73, 64
12, 511920, Note_on_c, 11, 74, 60
12, 512160, Note_off_c, 11, 74, 64
12, 512160, Note_on_c, 11, 71, 60
12, 512400, Note_off_c, 11, 71, 64
12, 512400, Note_on_c, 11, 69, 60
12, 513240, Note_off_c, 11, 69, 64
12, 513360, Note_on_c, 11, 73, 60
12, 513840, Note_off_c, 11, 73, 64
12, 513840, Note_on_c, 11, 74, 60
12, 514320, Note_off_c, 11, 74, 64
12, 514320, Note_on_c, 11, 69, 60
12, 514800, Note_off_c, 11, 69, 64
12, 514800, Note_on_c, 11, 71, 60
12, 515200, Note_off_c, 11, 71, 64
12, 515280, Note_on_c, 11, 69, 60
12, 515760, Note_off_c, 11, 69, 64
12, 515760, Note_on_c, 11, 66, 60
12, 516240, Note_off_c, 11, 66, 64
12, 516240, Note_on_c, 11, 67, 60
12, 516720, Note_off_c, 11, 67, 64
12, 516720, Note_on_c, 11, 66, 60
12, 517200, Note_off_c, 11, 66, 64
12, 517200, Note_on_c, 11, 62, 60
12, 517680, Note_off_c, 11, 62, 64
12, 517680, Note_on_c, 11, 66, 60
12, 517920, Note_off_c, 11, 66, 64
12, 517920, Note_on_c, 11, 64, 60
12, 518160, Note_off_c, 11, 64, 64
12, 518160, Note_on_c, 11, 62, 60
12, 518560, Note_off_c, 11, 62, 64
12, 519120, Program_c, 11, 50
12, 519120, Note_on_c, 11, 72, 60
12, 519240, Note_off_c, 11, 72, 64
12, 519600, Note_on_c, 11, 77, 60
12, 519720, Note_off_c, 11, 77, 64
12, 520080, Note_on_c, 11, 72, 60
12, 520200, Note_off_c, 11, 72, 64
12, 520560, Note_on_c, 11, 74, 60
12, 520680, Note_off_c, 11, 74, 64
12, 521040, Note_on_c, 11, 72, 60
12, 521160, Note_off_c, 11, 72, 64
12, 521520, Note_on_c, 11, 69, 60
12, 521640, Note_off_c, 11, 69, 64
12, 522000, Note_on_c, 11, 70, 60
12, 522120, Note_off_c, 11, 70, 64
12, 522480, Note_on_c, 11, 69, 60
12, 522600, Note_off_c, 11, 69, 64
12, 522960, Note_on_c, 11, 65, 60
12, 523080, Note_off_c, 11, 65, 64
12, 523440, Note_on_c, 11, 67, 60
12, 523560, Note_off_c, 11, 67, 64
12, 523920, Note_on_c, 11, 69, 60
12, 524040, Note_off_c, 11, 69, 64
12, 524400, Note_on_c, 11, 65, 60
12, 524520, Note_off_c, 11, 65, 64
12, 524880, Note_on_c, 11, 67, 60
12, 525000, Note_off_c, 11, 67, 64
12, 525360, Note_on_c, 11, 69, 60
12, 525480, Note_off_c, 11, 69, 64
12, 525840, Note_on_c, 11, 65, 60
12, 525960, Note_off_c, 11, 65, 64
12, 526320, Note_on_c, 11, 67, 60
12, 526440, Note_off_c, 11, 67, 64
12, 526800, Note_on_c, 11, 65, 60
12, 526920, Note_off_c, 11, 65, 64
12, 527280, Note_on_c, 11, 62, 60
12, 527400, Note_off_c, 11, 62, 64
12, 527760, Note_on_c, 11, 64, 60
12, 527880, Note_off_c, 11, 64, 64
12, 528240, Note_on_c, 11, 62, 60
12, 528360, Note_off_c, 11, 62, 64
12, 528720, Note_on_c, 11, 57, 60
12, 528840, Note_off_c, 11, 57, 64
12, 529200, Note_on_c, 11, 57, 60
12, 529320, Note_off_c, 11, 57, 64
12, 529680, Note_on_c, 11, 57, 60
12, 529800, Note_off_c, 11, 57, 64
12, 530640, Program_c, 11, 48
12, 530640, Note_on_c, 11, 57, 60
12, 531120, Note_off_c, 11, 57, 64
12, 531120, Note_on_c, 11, 62, 60
12, 532080, Note_off_c, 11, 62, 64
12, 532080, Note_on_c, 11, 66, 60
12, 532560, Note_off_c, 11, 66, 64
12, 532560, Note_on_c, 11, 69, 60
12, 533040, Note_off_c, 11, 69, 64
12, 533040, Note_on_c, 11, 66, 60
12, 533440, Note_off_c, 11, 66, 64
12, 533520, Note_on_c, 11, 66, 60
12, 534000, Note_off_c, 11, 66, 64
12, 534000, Note_on_c, 11, 69, 60
12, 534480, Note_off_c, 11, 69, 64
12, 534480, Note_on_c, 11, 73, 60
12, 534960, Note_off_c, 11, 73, 64
12, 534960, Note_on_c, 11, 74, 60
12, 535200, Note_off_c, 11, 74, 64
12, 535200, Note_on_c, 11, 71, 60
12, 535440, Note_off_c, 11, 71, 64
12, 535440, Note_on_c, 11, 69, 60
12, 536280, Note_off_c, 11, 69, 64
12, 536400, Note_on_c, 11, 73, 60
12, 536880, Note_off_c, 11, 73, 64
12, 536880, Note_on_c, 11, 74, 60
12, 537360, Note_off_c, 11, 74, 64
12, 537360, Note_on_c, 11, 69, 60
12, 537840, Note_off_c, 11, 69, 64
12, 537840, Note_on_c, 11, 71, 60
12, 538240, Note_off_c, 11, 71, 64
12, 538320, Note_on_c, 11, 69, 60
12, 538800, Note_off_c, 11, 69, 64
12, 538800, Note_on_c, 11, 66, 60
12, 539280, Note_off_c, 11, 66, 64
12, 539280, Note_on_c, 11, 67, 60
12, 539760, Note_off_c, 11, 67, 64
12, 539760, Note_on_c, 11, 66, 60
12, 540240, Note_off_c, 11, 66, 64
12, 540240, Note_on_c, 11, 62, 60
12, 540720, Note_off_c, 11, 62, 64
12, 540720, Note_on_c, 11, 66, 60
12, 540960, Note_off_c, 11, 66, 64
12, 540960, Note_on_c, 11, 64, 60
12, 541200, Note_off_c, 11, 64, 64
12, 541200, Note_on_c, 11, 62, 60
12, 541600, Note_off_c, 11, 62, 64
12, 542160, Note_on_c, 11, 69, 60
12, 542280, Note_off_c, 11, 69, 64
12, 542640, Note_on_c, 11, 74, 60
12, 542760, Note_off_c, 11, 74, 64
12, 543120, Note_on_c, 11, 69, 60
12, 543240, Note_off_c, 11, 69, 64
12, 543600, Note_on_c, 11, 71, 60
12, 543720, Note_off_c, 11, 71, 64
12, 544080, Note_on_c, 11, 69, 60
12, 544200, Note_off_c, 11, 69, 64
12, 544560, Note_on_c, 11, 66, 60
12, 544680, Note_off_c, 11, 66, 64
12, 545040, Note_on_c, 11, 67, 60
12, 545160, Note_off_c, 11, 67, 64
12, 545520, Note_on_c, 11, 66, 60
12, 545640, Note_off_c, 11, 66, 64
12, 546000, Note_on_c, 11, 62, 60
12, 546120, Note_off_c, 11, 62, 64
12, 546480, Note_on_c, 11, 64, 60
12, 546600, Note_off_c, 11, 64, 64
12, 546960, Note_on_c, 11, 66, 60
12, 547080, Note_off_c, 11, 66, 64
12, 547440, Note_on_c, 11, 62, 60
12, 547560, Note_off_c, 11, 62, 64
12, 547920, Note_on_c, 11, 62, 60
12, 548040, Note_off_c, 11, 62, 64
12, 548400, Note_on_c, 11, 67, 60
12, 548520, Note_off_c, 11, 67, 64
12, 548880, Note_on_c, 11, 62, 60
12, 549000, Note_off_c, 11, 62, 64
12, 549360, Note_on_c, 11, 64, 60
12, 549480, Note_off_c, 11, 64, 64
12, 549840, Note_on_c, 11, 62, 60
12, 549960, Note_off_c, 11, 62, 64
12, 550320, Note_on_c, 11, 59, 60
12, 550440, Note_off_c, 11, 59, 64
12, 550800, Note_on_c, 11, 60, 60
12, 550920, Note_off_c, 11, 60, 64
12, 551280, Note_on_c, 11, 59, 60
12, 551400, Note_off_c, 11, 59, 64
12, 551760, Note_on_c, 11, 55, 60
12, 551880, Note_off_c, 11, 55, 64
12, 552240, Note_on_c, 11, 57, 60
12, 552360, Note_off_c, 11, 57, 64
12, 552720, Note_on_c, 11, 59, 60
12, 552840, Note_off_c, 11, 59, 64
12, 553200, Note_on_c, 11, 55, 60
12, 553320, Note_off_c, 11, 55, 64
12, 553680, Note_on_c, 11, 55, 60
12, 554160, Note_off_c, 11, 55, 64
12, 554160, Note_on_c, 11, 60, 60
12, 555120, Note_off_c, 11, 60, 64
12, 555120, Note_on_c, 11, 64, 60
12, 555600, Note_off_c, 11, 64, 64
12, 555600, Note_on_c, 11, 67, 60
12, 556080, Note_off_c, 11, 67, 64
12, 556080, Note_on_c, 11, 64, 60
12, 556480, Note_off_c, 11, 64, 64
12, 556560, Note_on_c, 11, 64, 60
12, 557040, Note_off_c, 11, 64, 64
12, 557040, Note_on_c, 11, 67, 60
12, 557520, Note_off_c, 11, 67, 64
12, 557520, Note_on_c, 11, 71, 60
12, 558000, Note_off_c, 11, 71, 64
12, 558000, Note_on_c, 11, 72, 60
12, 558240, Note_off_c, 11, 72, 64
12, 558240, Note_on_c, 11, 69, 60
12, 558480, Note_off_c, 11, 69, 64
12, 558480, Note_on_c, 11, 67, 60
12, 559320, Note_off_c, 11, 67, 64
12, 559440, Note_on_c, 11, 71, 60
12, 559920, Note_off_c, 11, 71, 64
12, 559920, Note_on_c, 11, 72, 60
12, 560400, Note_off_c, 11, 72, 64
12, 560400, Note_on_c, 11, 67, 60
12, 560880, Note_off_c, 11, 67, 64
12, 560880, Note_on_c, 11, 69, 60
12, 561360, Note_off_c, 11, 69, 64
12, 561360, Note_on_c, 11, 67, 60
12, 561840, Note_off_c, 11, 67, 64
12, 561840, Note_on_c, 11, 64, 60
12, 562320, Note_off_c, 11, 64, 64
12, 562320, Note_on_c, 11, 65, 60
12, 562800, Note_off_c, 11, 65, 64
12, 562800, Note_on_c, 11, 64, 60
12, 563280, Note_off_c, 11, 64, 64
12, 563280, Note_on_c, 11, 60, 60
12, 563760, Note_off_c, 11, 60, 64
12, 563760, Note_on_c, 11, 55, 60
12, 563760, Note_on_c, 11, 62, 60
12, 564240, Note_off_c, 11, 62, 64
12, 564240, Note_off_c, 11, 55, 64
12, 564240, Note_on_c, 11, 55, 60
12, 564240, Note_on_c, 11, 64, 60
12, 564640, Note_off_c, 11, 64, 64
12, 564640, Note_off_c, 11, 55, 64
12, 564720, Note_on_c, 11, 60, 63
12, 565120, Note_off_c, 11, 60, 64
12, 565200, Note_on_c, 11, 60, 66
12, 565680, Note_off_c, 11, 60, 64
12, 565680, Note_on_c, 11, 72, 69
12, 566160, Note_off_c, 11, 72, 64
12, 566160, Note_on_c, 11, 69, 72
12, 566640, Note_off_c, 11, 69, 64
12, 566640, Note_on_c, 11, 70, 75
12, 567120, Note_off_c, 11, 70, 64
12, 567120, Note_on_c, 11, 69, 78
12, 567600, Note_off_c, 11, 69, 64
12, 567600, Note_on_c, 11, 65, 81
12, 568080, Note_off_c, 11, 65, 64
12, 568080, Note_on_c, 11, 67, 84
12, 568560, Note_off_c, 11, 67, 64
12, 568560, Note_on_c, 11, 65, 88
12, 569040, Note_off_c, 11, 65, 64
12, 569040, Note_on_c, 11, 60, 92
12, 569520, Note_off_c, 11, 60, 64
12, 569520, Note_on_c, 11, 67, 96
12, 570000, Note_off_c, 11, 67, 64
12, 570000, Note_on_c, 11, 69, 100
12, 570480, Note_off_c, 11, 69, 64
12, 570480, Note_on_c, 11, 65, 104
12, 570880, Note_off_c, 11, 65, 64
12, 570960, Note_on_c, 11, 72, 108
12, 571080, Note_off_c, 11, 72, 64
12, 571440, Note_on_c, 11, 77, 108
12, 571560, Note_off_c, 11, 77, 64
12, 571920, Note_on_c, 11, 72, 108
12, 572040, Note_off_c, 11, 72, 64
12, 572400, Note_on_c, 11, 74, 108
12, 572520, Note_off_c, 11, 74, 64
12, 572880, Note_on_c, 11, 72, 108
12, 573000, Note_off_c, 11, 72, 64
12, 573360, Note_on_c, 11, 69, 108
12, 573480, Note_off_c, 11, 69, 64
12, 573840, Note_on_c, 11, 70, 108
12, 573960, Note_off_c, 11, 70, 64
12, 574320, Note_on_c, 11, 69, 108
12, 574440, Note_off_c, 11, 69, 64
12, 574800, Note_on_c, 11, 65, 108
12, 574920, Note_off_c, 11, 65, 64
12, 575280, Note_on_c, 11, 67, 108
12, 575400, Note_off_c, 11, 67, 64
12, 575760, Note_on_c, 11, 69, 108
12, 575880, Note_off_c, 11, 69, 64
12, 576240, Note_on_c, 11, 65, 108
12, 576360, Note_off_c, 11, 65, 64
12, 576720, Note_on_c, 11, 67, 108
12, 576840, Note_off_c, 11, 67, 64
12, 577200, Note_on_c, 11, 69, 108
12, 577320, Note_off_c, 11, 69, 64
12, 577680, Note_on_c, 11, 65, 108
12, 577800, Note_off_c, 11, 65, 64
12, 578160, Note_on_c, 11, 67, 108
12, 578280, Note_off_c, 11, 67, 64
12, 578640, Note_on_c, 11, 69, 108
12, 578760, Note_off_c, 11, 69, 64
12, 579120, Note_on_c, 11, 65, 108
12, 579240, Note_off_c, 11, 65, 64
12, 579600, Note_on_c, 11, 67, 108
12, 579720, Note_off_c, 11, 67, 64
12, 580080, Note_on_c, 11, 69, 108
12, 581400, Note_off_c, 11, 69, 64
12, 581520, Note_on_c, 11, 67, 108
12, 581580, Note_off_c, 11, 67, 64
12, 581580, Note_on_c, 11, 69, 108
12, 581640, Note_off_c, 11, 69, 64
12, 581640, Note_on_c, 11, 67, 108
12, 582400, Note_off_c, 11, 67, 64
12, 582480, Note_on_c, 11, 65, 108
12, 582880, Note_off_c, 11, 65, 64
12, 582960, Note_on_c, 11, 64, 108
12, 583020, Note_off_c, 11, 64, 64
12, 583020, Note_on_c, 11, 65, 108
12, 583080, Note_off_c, 11, 65, 64
12, 583080, Note_on_c, 11, 64, 108
12, 583840, Note_off_c, 11, 64, 64
12, 583920, Note_on_c, 11, 62, 108
12, 584320, Note_off_c, 11, 62, 64
12, 584400, Note_on_c, 11, 60, 108
12, 585240, Note_off_c, 11, 60, 64
12, 585360, Note_on_c, 11, 72, 108
12, 585760, Note_off_c, 11, 72, 64
12, 585840, Note_on_c, 11, 69, 108
12, 587160, Note_off_c, 11, 69, 64
12, 587280, Note_on_c, 11, 77, 108
12, 588600, Note_off_c, 11, 77, 64
12, 588720, Note_on_c, 11, 77, 108
12, 590040, Note_off_c, 11, 77, 64
12, 590160, Note_on_c, 11, 76, 108
12, 591480, Note_off_c, 11, 76, 64
12, 591600, Note_on_c, 11, 69, 108
12, 591600, Note_on_c, 11, 77, 108
12, 592000, Note_off_c, 11, 77, 64
12, 592000, Note_off_c, 11, 69, 64
12, 597360, Note_on_c, 11, 69, 108
12, 598680, Note_off_c, 11, 69, 64
12, 598800, Note_on_c, 11, 77, 108
12, 600120, Note_off_c, 11, 77, 64
12, 600240, Note_on_c, 11, 77, 108
12, 601560, Note_off_c, 11, 77, 64
12, 601680, Note_on_c, 11, 76, 108
12, 603000, Note_off_c, 11, 76, 64
12, 603120, Note_on_c, 11, 69, 92
12, 603120, Note_on_c, 11, 77, 92
12, 603520, Note_off_c, 11, 77, 64
12, 603520, Note_off_c, 11, 69, 64
12, 604560, Note_on_c, 11, 57, 108
12, 604640, Note_off_c, 11, 57, 64
12, 604800, Note_on_c, 11, 60, 108
12, 604880, Note_off_c, 11, 60, 64
12, 605040, Note_on_c, 11, 65, 108
12, 605120, Note_off_c, 11, 65, 64
12, 605280, Note_on_c, 11, 69, 108
12, 605360, Note_off_c, 11, 69, 64
12, 605520, Note_on_c, 11, 72, 108
12, 605920, Note_off_c, 11, 72, 64
12, 607440, Note_on_c, 11, 67, 92
12, 607440, Note_on_c, 11, 70, 92
12, 607840, Note_off_c, 11, 70, 64
12, 607840, Note_off_c, 11, 67, 64
12, 607920, Note_on_c, 11, 67, 92
12, 607920, Note_on_c, 11, 70, 92
12, 608320, Note_off_c, 11, 70, 64
12, 608320, Note_off_c, 11, 67, 64
12, 608400, Note_on_c, 11, 67, 92
12, 608400, Note_on_c, 11, 70, 92
12, 608800, Note_off_c, 11, 70, 64
12, 608800, Note_off_c, 11, 67, 64
12, 608880, Note_on_c, 11, 65, 92
12, 608880, Note_on_c, 11, 69, 92
12, 609280, Note_off_c, 11, 69, 64
12, 609280, Note_off_c, 11, 65, 64
12, 610320, Note_on_c, 11, 57, 108
12, 610400, Note_off_c, 11, 57, 64
12, 610560, Note_on_c, 11, 60, 108
12, 610640, Note_off_c, 11, 60, 64
12, 610800, Note_on_c, 11, 65, 108
12, 610880, Note_off_c, 11, 65, 64
12, 611040, Note_on_c, 11, 69, 108
12, 611120, Note_off_c, 11, 69, 64
12, 611280, Note_on_c, 11, 72, 108
12, 611680, Note_off_c, 11, 72, 64
12, 613200, Note_on_c, 11, 67, 92
12, 613200, Note_on_c, 11, 70, 92
12, 613600, Note_off_c, 11, 70, 64
12, 613600, Note_off_c, 11, 67, 64
12, 613680, Note_on_c, 11, 67, 92
12, 613680, Note_on_c, 11, 70, 92
12, 614080, Note_off_c, 11, 70, 64
12, 614080, Note_off_c, 11, 67, 64
12, 614160, Note_on_c, 11, 67, 92
12, 614160, Note_on_c, 11, 70, 92
12, 614560, Note_off_c, 11, 70, 64
12, 614560, Note_off_c, 11, 67, 64
12, 614640, Note_on_c, 11, 65, 92
12, 614640, Note_on_c, 11, 69, 92
12, 615040, Note_off_c, 11, 69, 64
12, 615040, Note_off_c, 11, 65, 64
12, 617520, Note_on_c, 11, 65, 92
12, 617520, Note_on_c, 11, 69, 92
12, 617920, Note_off_c, 11, 69, 64
12, 617920, Note_off_c, 11, 65, 64
12, 620400, Note_on_c, 11, 69, 92
12, 620520, Note_off_c, 11, 69, 64
12, 620880, Note_on_c, 11, 65, 92
12, 621000, Note_off_c, 11, 65, 64
12, 621360, Note_on_c, 11, 65, 92
12, 621480, Note_off_c, 11, 65, 64
12, 621840, Note_on_c, 11, 69, 92
12, 621960, Note_off_c, 11, 69, 64
12, 622320, Note_on_c, 11, 65, 89
12, 622440, Note_off_c, 11, 65, 64
12, 622800, Note_on_c, 11, 65, 86
12, 622920, Note_off_c, 11, 65, 64
12, 623280, Note_on_c, 11, 69, 83
12, 623400, Note_off_c, 11, 69, 64
12, 623760, Note_on_c, 11, 65, 80
12, 623880, Note_off_c, 11, 65, 64
12, 624240, Note_on_c, 11, 65, 76
12, 624360, Note_off_c, 11, 65, 64
12, 624720, Note_on_c, 11, 69, 72
12, 624840, Note_off_c, 11, 69, 64
12, 625200, Note_on_c, 11, 65, 68
12, 625320, Note_off_c, 11, 65, 64
12, 625680, Note_on_c, 11, 65, 64
12, 625800, Note_off_c, 11, 65, 64
12, 626160, Note_on_c, 11, 69, 60
12, 626280, Note_off_c, 11, 69, 64
12, 626640, Note_on_c, 11, 65, 60
12, 626760, Note_off_c, 11, 65, 64
12, 627120, Note_on_c, 11, 65, 60
12, 627240, Note_off_c, 11, 65, 64
12, 627600, Note_on_c, 11, 69, 60
12, 627720, Note_off_c, 11, 69, 64
12, 628080, Note_on_c, 11, 65, 60
12, 628200, Note_off_c, 11, 65, 64
12, 628560, Note_on_c, 11, 65, 60
12, 628680, Note_off_c, 11, 65, 64
12, 629040, Note_on_c, 11, 70, 60
12, 629160, Note_off_c, 11, 70, 64
12, 629520, Note_on_c, 11, 65, 60
12, 629640, Note_off_c, 11, 65, 64
12, 630000, Note_on_c, 11, 65, 60
12, 630120, Note_off_c, 11, 65, 64
12, 630480, Note_on_c, 11, 70, 60
12, 630600, Note_off_c, 11, 70, 64
12, 630960, Note_on_c, 11, 65, 60
12, 631080, Note_off_c, 11, 65, 64
12, 631440, Note_on_c, 11, 65, 60
12, 631560, Note_off_c, 11, 65, 64
12, 631920, Note_on_c, 11, 69, 60
12, 632040, Note_off_c, 11, 69, 64
12, 632400, Note_on_c, 11, 65, 60
12, 632520, Note_off_c, 11, 65, 64
12, 632880, Note_on_c, 11, 65, 60
12, 633000, Note_off_c, 11, 65, 64
12, 633360, Note_on_c, 11, 67, 60
12, 633480, Note_off_c, 11, 67, 64
12, 633840, Note_on_c, 11, 64, 60
12, 633960, Note_off_c, 11, 64, 64
12, 634320, Note_on_c, 11, 64, 60
12, 634440, Note_off_c, 11, 64, 64
12, 634800, Note_on_c, 11, 69, 60
12, 634920, Note_off_c, 11, 69, 64
12, 635280, Note_on_c, 11, 65, 60
12, 635400, Note_off_c, 11, 65, 64
12, 635760, Note_on_c, 11, 65, 60
12, 635880, Note_off_c, 11, 65, 64
12, 636240, Note_on_c, 11, 69, 60
12, 636360, Note_off_c, 11, 69, 64
12, 636720, Note_on_c, 11, 65, 60
12, 636840, Note_off_c, 11, 65, 64
12, 637200, Note_on_c, 11, 65, 60
12, 637320, Note_off_c, 11, 65, 64
12, 637680, Note_on_c, 11, 69, 60
12, 637800, Note_off_c, 11, 69, 64
12, 638160, Note_on_c, 11, 65, 60
12, 638280, Note_off_c, 11, 65, 64
12, 638640, Note_on_c, 11, 65, 60
12, 638760, Note_off_c, 11, 65, 64
12, 639120, Note_on_c, 11, 69, 60
12, 639240, Note_off_c, 11, 69, 64
12, 639600, Note_on_c, 11, 65, 60
12, 639720, Note_off_c, 11, 65, 64
12, 640080, Note_on_c, 11, 65, 60
12, 640200, Note_off_c, 11, 65, 64
12, 640560, Note_on_c, 11, 70, 60
12, 640680, Note_off_c, 11, 70, 64
12, 641040, Note_on_c, 11, 65, 60
12, 641160, Note_off_c, 11, 65, 64
12, 641520, Note_on_c, 11, 65, 60
12, 641640, Note_off_c, 11, 65, 64
12, 642000, Note_on_c, 11, 70, 60
12, 642120, Note_off_c, 11, 70, 64
12, 642480, Note_on_c, 11, 65, 60
12, 642600, Note_off_c, 11, 65, 64
12, 642960, Note_on_c, 11, 65, 60
12, 643080, Note_off_c, 11, 65, 64
12, 643440, Note_on_c, 11, 69, 60
12, 643560, Note_off_c, 11, 69, 64
12, 643920, Note_on_c, 11, 65, 60
12, 644040, Note_off_c, 11, 65, 64
12, 644400, Note_on_c, 11, 65, 60
12, 644520, Note_off_c, 11, 65, 64
12, 644880, Note_on_c, 11, 70, 60
12, 645000, Note_off_c, 11, 70, 64
12, 645360, Note_on_c, 11, 64, 60
12, 645480, Note_off_c, 11, 64, 64
12, 645840, Note_on_c, 11, 64, 60
12, 645960, Note_off_c, 11, 64, 64
12, 646320, Note_on_c, 11, 67, 60
12, 646440, Note_off_c, 11, 67, 64
12, 646800, Note_on_c, 11, 64, 60
12, 646920, Note_off_c, 11, 64, 64
12, 647280, Note_on_c, 11, 64, 60
12, 647400, Note_off_c, 11, 64, 64
12, 647760, Note_on_c, 11, 69, 60
12, 647880, Note_off_c, 11, 69, 64
12, 648240, Note_on_c, 11, 65, 60
12, 648360, Note_off_c, 11, 65, 64
12, 648720, Note_on_c, 11, 65, 60
12, 648840, Note_off_c, 11, 65, 64
12, 649200, Note_on_c, 11, 69, 60
12, 649320, Note_off_c, 11, 69, 64
12, 649680, Note_on_c, 11, 65, 60
12, 649800, Note_off_c, 11, 65, 64
12, 650160, Note_on_c, 11, 65, 60
12, 650280, Note_off_c, 11, 65, 64
12, 650640, Note_on_c, 11, 69, 60
12, 650760, Note_off_c, 11, 69, 64
12, 651120, Note_on_c, 11, 65, 60
12, 651240, Note_off_c, 11, 65, 64
12, 651600, Note_on_c, 11, 65, 60
12, 651720, Note_off_c, 11, 65, 64
12, 652080, Note_on_c, 11, 70, 60
12, 652200, Note_off_c, 11, 70, 64
12, 652560, Note_on_c, 11, 65, 60
12, 652680, Note_off_c, 11, 65, 64
12, 653040, Note_on_c, 11, 65, 60
12, 653160, Note_off_c, 11, 65, 64
12, 653520, Note_on_c, 11, 70, 60
12, 653640, Note_off_c, 11, 70, 64
12, 654000, Note_on_c, 11, 65, 60
12, 654120, Note_off_c, 11, 65, 64
12, 654480, Note_on_c, 11, 65, 60
12, 654600, Note_off_c, 11, 65, 64
12, 654960, Note_on_c, 11, 69, 60
12, 655080, Note_off_c, 11, 69, 64
12, 655440, Note_on_c, 11, 65, 60
12, 655560, Note_off_c, 11, 65, 64
12, 655920, Note_on_c, 11, 65, 60
12, 656040, Note_off_c, 11, 65, 64
12, 656400, Note_on_c, 11, 67, 60
12, 656520, Note_off_c, 11, 67, 64
12, 656880, Note_on_c, 11, 64, 60
12, 657000, Note_off_c, 11, 64, 64
12, 657360, Note_on_c, 11, 64, 60
12, 657480, Note_off_c, 11, 64, 64
12, 657840, Note_on_c, 11, 69, 60
12, 657960, Note_off_c, 11, 69, 64
12, 658320, Note_on_c, 11, 65, 60
12, 658440, Note_off_c, 11, 65, 64
12, 658800, Note_on_c, 11, 65, 60
12, 658920, Note_off_c, 11, 65, 64
12, 659280, Note_on_c, 11, 69, 60
12, 659400, Note_off_c, 11, 69, 64
12, 659760, Note_on_c, 11, 65, 60
12, 659880, Note_off_c, 11, 65, 64
12, 660240, Note_on_c, 11, 65, 60
12, 660360, Note_off_c, 11, 65, 64
12, 660720, Note_on_c, 11, 69, 60
12, 660840, Note_off_c, 11, 69, 64
12, 661200, Note_on_c, 11, 65, 60
12, 661320, Note_off_c, 11, 65, 64
12, 661680, Note_on_c, 11, 65, 60
12, 661800, Note_off_c, 11, 65, 64
12, 662160, Note_on_c, 11, 69, 60
12, 662280, Note_off_c, 11, 69, 64
12, 662640, Note_on_c, 11, 65, 60
12, 662760, Note_off_c, 11, 65, 64
12, 663120, Note_on_c, 11, 65, 60
12, 663240, Note_off_c, 11, 65, 64
12, 663600, Note_on_c, 11, 70, 60
12, 663720, Note_off_c, 11, 70, 64
12, 664080, Note_on_c, 11, 65, 60
12, 664200, Note_off_c, 11, 65, 64
12, 664560, Note_on_c, 11, 65, 60
12, 664680, Note_off_c, 11, 65, 64
12, 665040, Note_on_c, 11, 70, 60
12, 665160, Note_off_c, 11, 70, 64
12, 665520, Note_on_c, 11, 65, 60
12, 665640, Note_off_c, 11, 65, 64
12, 666000, Note_on_c, 11, 65, 60
12, 666120, Note_off_c, 11, 65, 64
12, 666480, Note_on_c, 11, 69, 60
12, 666600, Note_off_c, 11, 69, 64
12, 666960, Note_on_c, 11, 65, 60
12, 667080, Note_off_c, 11, 65, 64
12, 667440, Note_on_c, 11, 65, 60
12, 667560, Note_off_c, 11, 65, 64
12, 667920, Note_on_c, 11, 70, 60
12, 668040, Note_off_c, 11, 70, 64
12, 668400, Note_on_c, 11, 64, 60
12, 668520, Note_off_c, 11, 64, 64
12, 668880, Note_on_c, 11, 64, 60
12, 669000, Note_off_c, 11, 64, 64
12, 669360, Note_on_c, 11, 67, 60
12, 669480, Note_off_c, 11, 67, 64
12, 669840, Note_on_c, 11, 64, 60
12, 669960, Note_off_c, 11, 64, 64
12, 670320, Note_on_c, 11, 64, 60
12, 670440, Note_off_c, 11, 64, 64
12, 670800, Note_on_c, 11, 69, 60
12, 670920, Note_off_c, 11, 69, 64
12, 671280, Note_on_c, 11, 65, 60
12, 671400, Note_off_c, 11, 65, 64
12, 671760, Note_on_c, 11, 65, 60
12, 671880, Note_off_c, 11, 65, 64
12, 683760, Note_on_c, 11, 67, 75
12, 683880, Note_off_c, 11, 67, 64
12, 684240, Note_on_c, 11, 64, 75
12, 684360, Note_off_c, 11, 64, 64
12, 684720, Note_on_c, 11, 64, 75
12, 684840, Note_off_c, 11, 64, 64
12, 685200, Note_on_c, 11, 67, 75
12, 685320, Note_off_c, 11, 67, 64
12, 685680, Note_on_c, 11, 64, 75
12, 685800, Note_off_c, 11, 64, 64
12, 686160, Note_on_c, 11, 64, 75
12, 686280, Note_off_c, 11, 64, 64
12, 686640, Note_on_c, 11, 69, 75
12, 686760, Note_off_c, 11, 69, 64
12, 687120, Note_on_c, 11, 65, 73
12, 687240, Note_off_c, 11, 65, 64
12, 687600, Note_on_c, 11, 65, 71
12, 687720, Note_off_c, 11, 65, 64
12, 688080, Note_on_c, 11, 69, 69
12, 688200, Note_off_c, 11, 69, 64
12, 688560, Note_on_c, 11, 65, 66
12, 688680, Note_off_c, 11, 65, 64
12, 689040, Note_on_c, 11, 65, 63
12, 689160, Note_off_c, 11, 65, 64
12, 689520, Note_on_c, 11, 70, 60
12, 689640, Note_off_c, 11, 70, 64
12, 690000, Note_on_c, 11, 65, 60
12, 690120, Note_off_c, 11, 65, 64
12, 690480, Note_on_c, 11, 65, 60
12, 690600, Note_off_c, 11, 65, 64
12, 690960, Note_on_c, 11, 70, 60
12, 691080, Note_off_c, 11, 70, 64
12, 691440, Note_on_c, 11, 65, 60
12, 691560, Note_off_c, 11, 65, 64
12, 691920, Note_on_c, 11, 65, 60
12, 692040, Note_off_c, 11, 65, 64
12, 692400, Note_on_c, 11, 69, 60
12, 692520, Note_off_c, 11, 69, 64
12, 692880, Note_on_c, 11, 65, 60
12, 693000, Note_off_c, 11, 65, 64
12, 693360, Note_on_c, 11, 65, 60
12, 693480, Note_off_c, 11, 65, 64
12, 693840, Note_on_c, 11, 67, 60
12, 693960, Note_off_c, 11, 67, 64
12, 694320, Note_on_c, 11, 64, 60
12, 694440, Note_off_c, 11, 64, 64
12, 694800, Note_on_c, 11, 64, 60
12, 694920, Note_off_c, 11, 64, 64
12, 695280, Note_on_c, 11, 69, 60
12, 695400, Note_off_c, 11, 69, 64
12, 695760, Note_on_c, 11, 65, 60
12, 695880, Note_off_c, 11, 65, 64
12, 696240, Note_on_c, 11, 65, 60
12, 696360, Note_off_c, 11, 65, 64
12, 696720, Note_on_c, 11, 69, 60
12, 696840, Note_off_c, 11, 69, 64
12, 697200, Note_on_c, 11, 65, 60
12, 697320, Note_off_c, 11, 65, 64
12, 697680, Note_on_c, 11, 65, 60
12, 697800, Note_off_c, 11, 65, 64
12, 698160, Note_on_c, 11, 69, 60
12, 698280, Note_off_c, 11, 69, 64
12, 698640, Note_on_c, 11, 65, 60
12, 698760, Note_off_c, 11, 65, 64
12, 699120, Note_on_c, 11, 65, 60
12, 699240, Note_off_c, 11, 65, 64
12, 699600, Note_on_c, 11, 69, 60
12, 699720, Note_off_c, 11, 69, 64
12, 700080, Note_on_c, 11, 65, 60
12, 700200, Note_off_c, 11, 65, 64
12, 700560, Note_on_c, 11, 65, 60
12, 700680, Note_off_c, 11, 65, 64
12, 701040, Note_on_c, 11, 70, 60
12, 701160, Note_off_c, 11, 70, 64
12, 701520, Note_on_c, 11, 60, 60
12, 701640, Note_off_c, 11, 60, 64
12, 702000, Note_on_c, 11, 60, 60
12, 702120, Note_off_c, 11, 60, 64
12, 702480, Note_on_c, 11, 70, 60
12, 702600, Note_off_c, 11, 70, 64
12, 702960, Note_on_c, 11, 64, 60
12, 703080, Note_off_c, 11, 64, 64
12, 703440, Note_on_c, 11, 64, 60
12, 703560, Note_off_c, 11, 64, 64
12, 703920, Note_on_c, 11, 69, 60
12, 704040, Note_off_c, 11, 69, 64
12, 704400, Note_on_c, 11, 65, 60
12, 704520, Note_off_c, 11, 65, 64
12, 704880, Note_on_c, 11, 65, 60
12, 705000, Note_off_c, 11, 65, 64
12, 705360, Note_on_c, 11, 69, 60
12, 705480, Note_off_c, 11, 69, 64
12, 705840, Note_on_c, 11, 65, 60
12, 705960, Note_off_c, 11, 65, 64
12, 706320, Note_on_c, 11, 65, 60
12, 706440, Note_off_c, 11, 65, 64
12, 706800, Note_on_c, 11, 70, 60
12, 706920, Note_off_c, 11, 70, 64
12, 707280, Note_on_c, 11, 60, 60
12, 707400, Note_off_c, 11, 60, 64
12, 707760, Note_on_c, 11, 60, 60
12, 707880, Note_off_c, 11, 60, 64
12, 708240, Note_on_c, 11, 70, 60
12, 708360, Note_off_c, 11, 70, 64
12, 708720, Note_on_c, 11, 60, 61
12, 708840, Note_off_c, 11, 60, 64
12, 709200, Note_on_c, 11, 60, 62
12, 709320, Note_off_c, 11, 60, 64
12, 709680, Note_on_c, 11, 69, 63
12, 709800, Note_off_c, 11, 69, 64
12, 710160, Note_on_c, 11, 65, 64
12, 710280, Note_off_c, 11, 65, 64
12, 710640, Note_on_c, 11, 65, 65
12, 710760, Note_off_c, 11, 65, 64
12, 711120, Note_on_c, 11, 69, 66
12, 711240, Note_off_c, 11, 69, 64
12, 711600, Note_on_c, 11, 65, 67
12, 711720, Note_off_c, 11, 65, 64
12, 712080, Note_on_c, 11, 65, 68
12, 712200, Note_off_c, 11, 65, 64
12, 712560, Note_on_c, 11, 70, 69
12, 712680, Note_off_c, 11, 70, 64
12, 713040, Note_on_c, 11, 60, 70
12, 713160, Note_off_c, 11, 60, 64
12, 713520, Note_on_c, 11, 60, 71
12, 713640, Note_off_c, 11, 60, 64
12, 714000, Note_on_c, 11, 70, 72
12, 714120, Note_off_c, 11, 70, 64
12, 714480, Note_on_c, 11, 60, 73
12, 714600, Note_off_c, 11, 60, 64
12, 714960, Note_on_c, 11, 60, 74
12, 715080, Note_off_c, 11, 60, 64
12, 715440, Note_on_c, 11, 65, 75
12, 718200, Note_off_c, 11, 65, 64
12, 718320, Note_on_c, 11, 64, 75
12, 721080, Note_off_c, 11, 64, 64
12, 721200, Note_on_c, 11, 65, 75
12, 723960, Note_off_c, 11, 65, 64
12, 724080, Note_on_c, 11, 64, 83
12, 726840, Note_off_c, 11, 64, 64
12, 726960, Note_on_c, 11, 65, 92
12, 727360, Note_off_c, 11, 65, 64
12, 732720, Program_c, 11, 50
12, 732720, Note_on_c, 11, 65, 127
12, 732960, Note_off_c, 11, 65, 64
12, 732960, Note_on_c, 11, 67, 108
12, 733080, Note_off_c, 11, 67, 64
12, 733080, Note_on_c, 11, 65, 108
12, 733200, Note_off_c, 11, 65, 64
12, 733200, Note_on_c, 11, 60, 108
12, 733440, Note_off_c, 11, 60, 64
12, 733440, Note_on_c, 11, 62, 108
12, 733560, Note_off_c, 11, 62, 64
12, 733560, Note_on_c, 11, 64, 108
12, 733675, Note_off_c, 11, 64, 64
12, 733680, Note_on_c, 11, 65, 127
12, 733920, Note_off_c, 11, 65, 64
12, 733920, Note_on_c, 11, 67, 108
12, 734040, Note_off_c, 11, 67, 64
12, 734040, Note_on_c, 11, 65, 108
12, 734155, Note_off_c, 11, 65, 64
12, 734160, Note_on_c, 11, 60, 108
12, 734560, Note_off_c, 11, 60, 64
12, 734640, Note_on_c, 11, 58, 127
12, 734760, Note_off_c, 11, 58, 64
12, 734760, Note_on_c, 11, 60, 108
12, 734880, Note_off_c, 11, 60, 64
12, 734880, Note_on_c, 11, 62, 108
12, 735000, Note_off_c, 11, 62, 64
12, 735000, Note_on_c, 11, 63, 108
12, 735115, Note_off_c, 11, 63, 64
12, 735120, Note_on_c, 11, 65, 108
12, 735200, Note_off_c, 11, 65, 64
12, 735360, Note_on_c, 11, 65, 108
12, 735420, Note_off_c, 11, 65, 64
12, 735420, Note_on_c, 11, 67, 108
12, 735595, Note_off_c, 11, 67, 64
12, 735600, Note_on_c, 11, 60, 127
12, 735680, Note_off_c, 11, 60, 64
12, 735840, Note_on_c, 11, 60, 108
12, 735900, Note_off_c, 11, 60, 64
12, 735900, Note_on_c, 11, 65, 108
12, 736075, Note_off_c, 11, 65, 64
12, 736080, Note_on_c, 11, 58, 108
12, 736480, Note_off_c, 11, 58, 64
12, 736560, Note_on_c, 11, 65, 127
12, 736800, Note_off_c, 11, 65, 64
12, 736800, Note_on_c, 11, 67, 108
12, 736920, Note_off_c, 11, 67, 64
12, 736920, Note_on_c, 11, 65, 108
12, 737040, Note_off_c, 11, 65, 64
12, 737040, Note_on_c, 11, 60, 108
12, 737280, Note_off_c, 11, 60, 64
12, 737280, Note_on_c, 11, 62, 108
12, 737400, Note_off_c, 11, 62, 64
12, 737400, Note_on_c, 11, 64, 108
12, 737515, Note_off_c, 11, 64, 64
12, 737520, Note_on_c, 11, 65, 127
12, 737760, Note_off_c, 11, 65, 64
12, 737760, Note_on_c, 11, 67, 108
12, 737880, Note_off_c, 11, 67, 64
12, 737880, Note_on_c, 11, 65, 108
12, 737995, Note_off_c, 11, 65, 64
12, 738000, Note_on_c, 11, 60, 108
12, 738400, Note_off_c, 11, 60, 64
12, 738480, Note_on_c, 11, 58, 127
12, 738600, Note_off_c, 11, 58, 64
12, 738600, Note_on_c, 11, 60, 108
12, 738720, Note_off_c, 11, 60, 64
12, 738720, Note_on_c, 11, 62, 108
12, 738840, Note_off_c, 11, 62, 64
12, 738840, Note_on_c, 11, 63, 108
12, 738955, Note_off_c, 11, 63, 64
12, 738960, Note_on_c, 11, 65, 108
12, 739040, Note_off_c, 11, 65, 64
12, 739200, Note_on_c, 11, 65, 108
12, 739260, Note_off_c, 11, 65, 64
12, 739260, Note_on_c, 11, 67, 108
12, 739435, Note_off_c, 11, 67, 64
12, 739440, Note_on_c, 11, 60, 127
12, 739520, Note_off_c, 11, 60, 64
12, 739680, Note_on_c, 11, 60, 108
12, 739740, Note_off_c, 11, 60, 64
12, 739740, Note_on_c, 11, 65, 108
12, 739915, Note_off_c, 11, 65, 64
12, 739920, Note_on_c, 11, 58, 108
12, 740320, Note_off_c, 11, 58, 64
12, 740400, Note_on_c, 11, 65, 127
12, 740640, Note_off_c, 11, 65, 64
12, 740640, Note_on_c, 11, 67, 108
12, 740760, Note_off_c, 11, 67, 64
12, 740760, Note_on_c, 11, 65, 108
12, 740880, Note_off_c, 11, 65, 64
12, 740880, Note_on_c, 11, 60, 108
12, 741120, Note_off_c, 11, 60, 64
12, 741120, Note_on_c, 11, 62, 108
12, 741240, Note_off_c, 11, 62, 64
12, 741240, Note_on_c, 11, 64, 108
12, 741355, Note_off_c, 11, 64, 64
12, 741360, Note_on_c, 11, 65, 127
12, 741600, Note_off_c, 11, 65, 64
12, 741600, Note_on_c, 11, 67, 108
12, 741720, Note_off_c, 11, 67, 64
12, 741720, Note_on_c, 11, 65, 108
12, 741835, Note_off_c, 11, 65, 64
12, 741840, Note_on_c, 11, 60, 108
12, 742240, Note_off_c, 11, 60, 64
12, 742320, Note_on_c, 11, 58, 127
12, 742440, Note_off_c, 11, 58, 64
12, 742440, Note_on_c, 11, 60, 108
12, 742560, Note_off_c, 11, 60, 64
12, 742560, Note_on_c, 11, 62, 108
12, 742680, Note_off_c, 11, 62, 64
12, 742680, Note_on_c, 11, 63, 108
12, 742795, Note_off_c, 11, 63, 64
12, 742800, Note_on_c, 11, 65, 108
12, 742880, Note_off_c, 11, 65, 64
12, 743040, Note_on_c, 11, 65, 108
12, 743100, Note_off_c, 11, 65, 64
12, 743100, Note_on_c, 11, 67, 108
12, 743275, Note_off_c, 11, 67, 64
12, 743280, Note_on_c, 11, 60, 127
12, 743360, Note_off_c, 11, 60, 64
12, 743520, Note_on_c, 11, 60, 108
12, 743580, Note_off_c, 11, 60, 64
12, 743580, Note_on_c, 11, 65, 108
12, 743755, Note_off_c, 11, 65, 64
12, 743760, Note_on_c, 11, 58, 108
12, 744160, Note_off_c, 11, 58, 64
12, 744240, Note_on_c, 11, 65, 127
12, 744480, Note_off_c, 11, 65, 64
12, 744480, Note_on_c, 11, 67, 108
12, 744600, Note_off_c, 11, 67, 64
12, 744600, Note_on_c, 11, 65, 108
12, 744720, Note_off_c, 11, 65, 64
12, 744720, Note_on_c, 11, 60, 108
12, 744960, Note_off_c, 11, 60, 64
12, 744960, Note_on_c, 11, 62, 108
12, 745080, Note_off_c, 11, 62, 64
12, 745080, Note_on_c, 11, 64, 108
12, 745195, Note_off_c, 11, 64, 64
12, 745200, Note_on_c, 11, 65, 127
12, 745440, Note_off_c, 11, 65, 64
12, 745440, Note_on_c, 11, 67, 108
12, 745560, Note_off_c, 11, 67, 64
12, 745560, Note_on_c, 11, 65, 108
12, 745675, Note_off_c, 11, 65, 64
12, 745680, Note_on_c, 11, 60, 108
12, 746080, Note_off_c, 11, 60, 64
12, 746160, Note_on_c, 11, 58, 127
12, 746280, Note_off_c, 11, 58, 64
12, 746280, Note_on_c, 11, 60, 108
12, 746400, Note_off_c, 11, 60, 64
12, 746400, Note_on_c, 11, 62, 108
12, 746520, Note_off_c, 11, 62, 64
12, 746520, Note_on_c, 11, 63, 108
12, 746635, Note_off_c, 11, 63, 64
12, 746640, Note_on_c, 11, 65, 108
12, 746720, Note_off_c, 11, 65, 64
12, 746880, Note_on_c, 11, 65, 108
12, 746940, Note_off_c, 11, 65, 64
12, 746940, Note_on_c, 11, 67, 108
12, 747115, Note_off_c, 11, 67, 64
12, 747120, Note_on_c, 11, 60, 127
12, 747200, Note_off_c, 11, 60, 64
12, 747360, Note_on_c, 11, 60, 108
12, 747420, Note_off_c, 11, 60, 64
12, 747420, Note_on_c, 11, 65, 108
12, 747595, Note_off_c, 11, 65, 64
12, 747600, Note_on_c, 11, 58, 108
12, 748000, Note_off_c, 11, 58, 64
12, 748080, Program_c, 11, 48
12, 748080, Note_on_c, 11, 69, 108
12, 748560, Note_off_c, 11, 69, 64
12, 748560, Note_on_c, 11, 74, 108
12, 748960, Note_off_c, 11, 74, 64
12, 749040, Note_on_c, 11, 72, 108
12, 749520, Note_off_c, 11, 72, 64
12, 749520, Note_on_c, 11, 76, 108
12, 749920, Note_off_c, 11, 76, 64
12, 750000, Note_on_c, 11, 77, 108
12, 750480, Note_off_c, 11, 77, 64
12, 750480, Note_on_c, 11, 69, 108
12, 750880, Note_off_c, 11, 69, 64
12, 750960, Note_on_c, 11, 70, 108
12, 751440, Note_off_c, 11, 70, 64
12, 751440, Note_on_c, 11, 69, 108
12, 751680, Note_off_c, 11, 69, 64
12, 751680, Note_on_c, 11, 71, 108
12, 751915, Note_off_c, 11, 71, 64
12, 751920, Note_on_c, 11, 69, 108
12, 752400, Note_off_c, 11, 69, 64
12, 752400, Note_on_c, 11, 74, 108
12, 752800, Note_off_c, 11, 74, 64
12, 752880, Note_on_c, 11, 72, 108
12, 753360, Note_off_c, 11, 72, 64
12, 753360, Note_on_c, 11, 76, 108
12, 753760, Note_off_c, 11, 76, 64
12, 753840, Note_on_c, 11, 77, 108
12, 754320, Note_off_c, 11, 77, 64
12, 754320, Note_on_c, 11, 69, 108
12, 754720, Note_off_c, 11, 69, 64
12, 754800, Note_on_c, 11, 70, 108
12, 755280, Note_off_c, 11, 70, 64
12, 755280, Note_on_c, 11, 69, 108
12, 755680, Note_off_c, 11, 69, 64
12, 755760, Note_on_c, 11, 60, 108
12, 756000, Note_off_c, 11, 60, 64
12, 756000, Note_on_c, 11, 62, 108
12, 756120, Note_off_c, 11, 62, 64
12, 756120, Note_on_c, 11, 60, 108
12, 756240, Note_off_c, 11, 60, 64
12, 756240, Note_on_c, 11, 55, 108
12, 756480, Note_off_c, 11, 55, 64
12, 756480, Note_on_c, 11, 57, 108
12, 756600, Note_off_c, 11, 57, 64
12, 756600, Note_on_c, 11, 59, 108
12, 756715, Note_off_c, 11, 59, 64
12, 756720, Note_on_c, 11, 60, 108
12, 756960, Note_off_c, 11, 60, 64
12, 756960, Note_on_c, 11, 62, 108
12, 757080, Note_off_c, 11, 62, 64
12, 757080, Note_on_c, 11, 60, 108
12, 757200, Note_off_c, 11, 60, 64
12, 757200, Note_on_c, 11, 59, 108
12, 757440, Note_off_c, 11, 59, 64
12, 757440, Note_on_c, 11, 60, 108
12, 757560, Note_off_c, 11, 60, 64
12, 757560, Note_on_c, 11, 62, 108
12, 757675, Note_off_c, 11, 62, 64
12, 757680, Note_on_c, 11, 67, 108
12, 757920, Note_off_c, 11, 67, 64
12, 757920, Note_on_c, 11, 65, 108
12, 758040, Note_off_c, 11, 65, 64
12, 758040, Note_on_c, 11, 67, 108
12, 758155, Note_off_c, 11, 67, 64
12, 758160, Note_on_c, 11, 69, 108
12, 758395, Note_off_c, 11, 69, 64
12, 758640, Note_on_c, 11, 64, 108
12, 758640, Note_on_c, 11, 72, 108
12, 758875, Note_off_c, 11, 72, 64
12, 758875, Note_off_c, 11, 64, 64
12, 759120, Note_on_c, 11, 65, 108
12, 759120, Note_on_c, 11, 71, 108
12, 759355, Note_off_c, 11, 71, 64
12, 759355, Note_off_c, 11, 65, 64
12, 759600, Note_on_c, 11, 60, 108
12, 759840, Note_off_c, 11, 60, 64
12, 759840, Note_on_c, 11, 62, 108
12, 759960, Note_off_c, 11, 62, 64
12, 759960, Note_on_c, 11, 60, 108
12, 760075, Note_off_c, 11, 60, 64
12, 760080, Note_on_c, 11, 59, 108
12, 760320, Note_off_c, 11, 59, 64
12, 760320, Note_on_c, 11, 60, 108
12, 760440, Note_off_c, 11, 60, 64
12, 760440, Note_on_c, 11, 62, 108
12, 760555, Note_off_c, 11, 62, 64
12, 760560, Note_on_c, 11, 64, 108
12, 760800, Note_off_c, 11, 64, 64
12, 760800, Note_on_c, 11, 65, 108
12, 760920, Note_off_c, 11, 65, 64
12, 760920, Note_on_c, 11, 64, 108
12, 761035, Note_off_c, 11, 64, 64
12, 761040, Note_on_c, 11, 62, 108
12, 761280, Note_off_c, 11, 62, 64
12, 761280, Note_on_c, 11, 64, 108
12, 761400, Note_off_c, 11, 64, 64
12, 761400, Note_on_c, 11, 65, 108
12, 761515, Note_off_c, 11, 65, 64
12, 761520, Note_on_c, 11, 67, 108
12, 761760, Note_off_c, 11, 67, 64
12, 761760, Note_on_c, 11, 65, 108
12, 761880, Note_off_c, 11, 65, 64
12, 761880, Note_on_c, 11, 67, 108
12, 761995, Note_off_c, 11, 67, 64
12, 762000, Note_on_c, 11, 69, 108
12, 762235, Note_off_c, 11, 69, 64
12, 762240, Note_on_c, 11, 69, 108
12, 762475, Note_off_c, 11, 69, 64
12, 762720, Note_on_c, 11, 55, 108
12, 762720, Note_on_c, 11, 64, 108
12, 762720, Note_on_c, 11, 72, 108
12, 762955, Note_off_c, 11, 72, 64
12, 762955, Note_off_c, 11, 64, 64
12, 762955, Note_off_c, 11, 55, 64
12, 763200, Note_on_c, 11, 55, 108
12, 763200, Note_on_c, 11, 65, 108
12, 763200, Note_on_c, 11, 71, 108
12, 763435, Note_off_c, 11, 71, 64
12, 763435, Note_off_c, 11, 65, 64
12, 763435, Note_off_c, 11, 55, 64
12, 763440, Note_on_c, 11, 55, 108
12, 763440, Note_on_c, 11, 64, 108
12, 764080, Note_off_c, 11, 64, 64
12, 764080, Note_off_c, 11, 55, 64
12, 764160, Note_on_c, 11, 64, 108
12, 764395, Note_off_c, 11, 64, 64
12, 764400, Note_on_c, 11, 64, 108
12, 765040, Note_off_c, 11, 64, 64
12, 765120, Note_on_c, 11, 60, 108
12, 765355, Note_off_c, 11, 60, 64
12, 765360, Note_on_c, 11, 60, 108
12, 766000, Note_off_c, 11, 60, 64
12, 766080, Note_on_c, 11, 67, 108
12, 766315, Note_off_c, 11, 67, 64
12, 766320, Note_on_c, 11, 67, 108
12, 766960, Note_off_c, 11, 67, 64
12, 767040, Note_on_c, 11, 60, 108
12, 767275, Note_off_c, 11, 60, 64
12, 767280, Note_on_c, 11, 60, 108
12, 767360, Note_off_c, 11, 60, 64
12, 767520, Note_on_c, 11, 72, 108
12, 767600, Note_off_c, 11, 72, 64
12, 767760, Note_on_c, 11, 72, 108
12, 767840, Note_off_c, 11, 72, 64
12, 768000, Note_on_c, 11, 64, 108
12, 768080, Note_off_c, 11, 64, 64
12, 768240, Note_on_c, 11, 64, 108
12, 768320, Note_off_c, 11, 64, 64
12, 768480, Note_on_c, 11, 76, 108
12, 768560, Note_off_c, 11, 76, 64
12, 768720, Note_on_c, 11, 76, 108
12, 768800, Note_off_c, 11, 76, 64
12, 768960, Note_on_c, 11, 72, 108
12, 769040, Note_off_c, 11, 72, 64
12, 769200, Note_on_c, 11, 72, 108
12, 769435, Note_off_c, 11, 72, 64
12, 770160, Note_on_c, 11, 64, 108
12, 770395, Note_off_c, 11, 64, 64
12, 772560, Program_c, 11, 50
12, 772560, Note_on_c, 11, 72, 60
12, 772680, Note_off_c, 11, 72, 64
12, 773040, Note_on_c, 11, 77, 60
12, 773160, Note_off_c, 11, 77, 64
12, 773520, Note_on_c, 11, 72, 60
12, 773640, Note_off_c, 11, 72, 64
12, 774000, Note_on_c, 11, 74, 60
12, 774120, Note_off_c, 11, 74, 64
12, 774480, Note_on_c, 11, 72, 60
12, 774600, Note_off_c, 11, 72, 64
12, 774960, Note_on_c, 11, 69, 60
12, 775080, Note_off_c, 11, 69, 64
12, 775440, Note_on_c, 11, 70, 60
12, 775560, Note_off_c, 11, 70, 64
12, 775920, Note_on_c, 11, 69, 60
12, 776040, Note_off_c, 11, 69, 64
12, 776400, Note_on_c, 11, 65, 60
12, 776520, Note_off_c, 11, 65, 64
12, 776880, Note_on_c, 11, 67, 60
12, 777000, Note_off_c, 11, 67, 64
12, 777360, Note_on_c, 11, 69, 60
12, 777480, Note_off_c, 11, 69, 64
12, 777840, Note_on_c, 11, 65, 60
12, 777960, Note_off_c, 11, 65, 64
12, 778320, Note_on_c, 11, 67, 60
12, 778440, Note_off_c, 11, 67, 64
12, 778800, Note_on_c, 11, 69, 60
12, 778920, Note_off_c, 11, 69, 64
12, 779280, Note_on_c, 11, 65, 60
12, 779400, Note_off_c, 11, 65, 64
12, 779760, Note_on_c, 11, 67, 60
12, 779880, Note_off_c, 11, 67, 64
12, 780240, Note_on_c, 11, 65, 60
12, 780360, Note_off_c, 11, 65, 64
12, 780720, Note_on_c, 11, 62, 60
12, 780840, Note_off_c, 11, 62, 64
12, 781200, Note_on_c, 11, 64, 60
12, 781320, Note_off_c, 11, 64, 64
12, 781680, Note_on_c, 11, 62, 60
12, 781800, Note_off_c, 11, 62, 64
12, 782160, Note_on_c, 11, 57, 60
12, 782280, Note_off_c, 11, 57, 64
12, 782640, Note_on_c, 11, 57, 60
12, 782760, Note_off_c, 11, 57, 64
12, 783120, Note_on_c, 11, 57, 60
12, 783240, Note_off_c, 11, 57, 64
12, 784080, Program_c, 11, 48
12, 784080, Note_on_c, 11, 57, 60
12, 784560, Note_off_c, 11, 57, 64
12, 784560, Note_on_c, 11, 62, 60
12, 785520, Note_off_c, 11, 62, 64
12, 785520, Note_on_c, 11, 66, 60
12, 786000, Note_off_c, 11, 66, 64
12, 786000, Note_on_c, 11, 69, 60
12, 786480, Note_off_c, 11, 69, 64
12, 786480, Note_on_c, 11, 66, 60
12, 786880, Note_off_c, 11, 66, 64
12, 786960, Note_on_c, 11, 66, 60
12, 787440, Note_off_c, 11, 66, 64
12, 787440, Note_on_c, 11, 69, 60
12, 787920, Note_off_c, 11, 69, 64
12, 787920, Note_on_c, 11, 73, 60
12, 788400, Note_off_c, 11, 73, 64
12, 788400, Note_on_c, 11, 74, 60
12, 788640, Note_off_c, 11, 74, 64
12, 788640, Note_on_c, 11, 71, 60
12, 788880, Note_off_c, 11, 71, 64
12, 788880, Note_on_c, 11, 69, 60
12, 789720, Note_off_c, 11, 69, 64
12, 789840, Note_on_c, 11, 73, 60
12, 790320, Note_off_c, 11, 73, 64
12, 790320, Note_on_c, 11, 74, 60
12, 790800, Note_off_c, 11, 74, 64
12, 790800, Note_on_c, 11, 69, 60
12, 791280, Note_off_c, 11, 69, 64
12, 791280, Note_on_c, 11, 71, 60
12, 791680, Note_off_c, 11, 71, 64
12, 791760, Note_on_c, 11, 69, 60
12, 792240, Note_off_c, 11, 69, 64
12, 792240, Note_on_c, 11, 66, 60
12, 792720, Note_off_c, 11, 66, 64
12, 792720, Note_on_c, 11, 67, 60
12, 793200, Note_off_c, 11, 67, 64
12, 793200, Note_on_c, 11, 66, 60
12, 793680, Note_off_c, 11, 66, 64
12, 793680, Note_on_c, 11, 62, 60
12, 794160, Note_off_c, 11, 62, 64
12, 794160, Note_on_c, 11, 66, 60
12, 794400, Note_off_c, 11, 66, 64
12, 794400, Note_on_c, 11, 64, 60
12, 794640, Note_off_c, 11, 64, 64
12, 794640, Note_on_c, 11, 62, 60
12, 795040, Note_off_c, 11, 62, 64
12, 795600, Program_c, 11, 50
12, 795600, Note_on_c, 11, 72, 60
12, 795720, Note_off_c, 11, 72, 64
12, 796080, Note_on_c, 11, 77, 60
12, 796200, Note_off_c, 11, 77, 64
12, 796560, Note_on_c, 11, 72, 60
12, 796680, Note_off_c, 11, 72, 64
12, 797040, Note_on_c, 11, 74, 60
12, 797160, Note_off_c, 11, 74, 64
12, 797520, Note_on_c, 11, 72, 60
12, 797640, Note_off_c, 11, 72, 64
12, 798000, Note_on_c, 11, 69, 60
12, 798120, Note_off_c, 11, 69, 64
12, 798480, Note_on_c, 11, 70, 60
12, 798600, Note_off_c, 11, 70, 64
12, 798960, Note_on_c, 11, 69, 60
12, 799080, Note_off_c, 11, 69, 64
12, 799440, Note_on_c, 11, 65, 60
12, 799560, Note_off_c, 11, 65, 64
12, 799920, Note_on_c, 11, 67, 60
12, 800040, Note_off_c, 11, 67, 64
12, 800400, Note_on_c, 11, 69, 60
12, 800520, Note_off_c, 11, 69, 64
12, 800880, Note_on_c, 11, 65, 60
12, 801000, Note_off_c, 11, 65, 64
12, 801360, Note_on_c, 11, 67, 60
12, 801480, Note_off_c, 11, 67, 64
12, 801840, Note_on_c, 11, 69, 60
12, 801960, Note_off_c, 11, 69, 64
12, 802320, Note_on_c, 11, 65, 60
12, 802440, Note_off_c, 11, 65, 64
12, 802800, Note_on_c, 11, 67, 60
12, 802920, Note_off_c, 11, 67, 64
12, 803280, Note_on_c, 11, 65, 60
12, 803400, Note_off_c, 11, 65, 64
12, 803760, Note_on_c, 11, 62, 60
12, 803880, Note_off_c, 11, 62, 64
12, 804240, Note_on_c, 11, 64, 60
12, 804360, Note_off_c, 11, 64, 64
12, 804720, Note_on_c, 11, 62, 60
12, 804840, Note_off_c, 11, 62, 64
12, 805200, Note_on_c, 11, 57, 60
12, 805320, Note_off_c, 11, 57, 64
12, 805680, Note_on_c, 11, 57, 60
12, 805800, Note_off_c, 11, 57, 64
12, 806160, Note_on_c, 11, 57, 60
12, 806280, Note_off_c, 11, 57, 64
12, 807120, Program_c, 11, 48
12, 807120, Note_on_c, 11, 57, 60
12, 807600, Note_off_c, 11, 57, 64
12, 807600, Note_on_c, 11, 62, 60
12, 808560, Note_off_c, 11, 62, 64
12, 808560, Note_on_c, 11, 66, 60
12, 809040, Note_off_c, 11, 66, 64
12, 809040, Note_on_c, 11, 69, 60
12, 809520, Note_off_c, 11, 69, 64
12, 809520, Note_on_c, 11, 66, 60
12, 809920, Note_off_c, 11, 66, 64
12, 810000, Note_on_c, 11, 66, 60
12, 810480, Note_off_c, 11, 66, 64
12, 810480, Note_on_c, 11, 69, 60
12, 810960, Note_off_c, 11, 69, 64
12, 810960, Note_on_c, 11, 73, 60
12, 811440, Note_off_c, 11, 73, 64
12, 811440, Note_on_c, 11, 74, 60
12, 811680, Note_off_c, 11, 74, 64
12, 811680, Note_on_c, 11, 71, 60
12, 811920, Note_off_c, 11, 71, 64
12, 811920, Note_on_c, 11, 69, 60
12, 812760, Note_off_c, 11, 69, 64
12, 812880, Note_on_c, 11, 73, 60
12, 813360, Note_off_c, 11, 73, 64
12, 813360, Note_on_c, 11, 74, 60
12, 813840, Note_off_c, 11, 74, 64
12, 813840, Note_on_c, 11, 69, 60
12, 814320, Note_off_c, 11, 69, 64
12, 814320, Note_on_c, 11, 71, 60
12, 814720, Note_off_c, 11, 71, 64
12, 814800, Note_on_c, 11, 69, 60
12, 815280, Note_off_c, 11, 69, 64
12, 815280, Note_on_c, 11, 66, 60
12, 815760, Note_off_c, 11, 66, 64
12, 815760, Note_on_c, 11, 67, 60
12, 816240, Note_off_c, 11, 67, 64
12, 816240, Note_on_c, 11, 66, 60
12, 816720, Note_off_c, 11, 66, 64
12, 816720, Note_on_c, 11, 62, 60
12, 817200, Note_off_c, 11, 62, 64
12, 817200, Note_on_c, 11, 66, 60
12, 817440, Note_off_c, 11, 66, 64
12, 817440, Note_on_c, 11, 64, 60
12, 817680, Note_off_c, 11, 64, 64
12, 817680, Note_on_c, 11, 62, 60
12, 818080, Note_off_c, 11, 62, 64
12, 818640, Note_on_c, 11, 69, 60
12, 818760, Note_off_c, 11, 69, 64
12, 819120, Note_on_c, 11, 74, 60
12, 819240, Note_off_c, 11, 74, 64
12, 819600, Note_on_c, 11, 69, 60
12, 819720, Note_off_c, 11, 69, 64
12, 820080, Note_on_c, 11, 71, 60
12, 820200, Note_off_c, 11, 71, 64
12, 820560, Note_on_c, 11, 69, 60
12, 820680, Note_off_c, 11, 69, 64
12, 821040, Note_on_c, 11, 66, 60
12, 821160, Note_off_c, 11, 66, 64
12, 821520, Note_on_c, 11, 67, 60
12, 821640, Note_off_c, 11, 67, 64
12, 822000, Note_on_c, 11, 66, 60
12, 822120, Note_off_c, 11, 66, 64
12, 822480, Note_on_c, 11, 62, 60
12, 822600, Note_off_c, 11, 62, 64
12, 822960, Note_on_c, 11, 64, 60
12, 823080, Note_off_c, 11, 64, 64
12, 823440, Note_on_c, 11, 66, 60
12, 823560, Note_off_c, 11, 66, 64
12, 823920, Note_on_c, 11, 62, 60
12, 824040, Note_off_c, 11, 62, 64
12, 824400, Note_on_c, 11, 62, 60
12, 824520, Note_off_c, 11, 62, 64
12, 824880, Note_on_c, 11, 67, 60
12, 825000, Note_off_c, 11, 67, 64
12, 825360, Note_on_c, 11, 62, 60
12, 825480, Note_off_c, 11, 62, 64
12, 825840, Note_on_c, 11, 64, 60
12, 825960, Note_off_c, 11, 64, 64
12, 826320, Note_on_c, 11, 62, 60
12, 826440, Note_off_c, 11, 62, 64
12, 826800, Note_on_c, 11, 59, 60
12, 826920, Note_off_c, 11, 59, 64
12, 827280, Note_on_c, 11, 60, 60
12, 827400, Note_off_c, 11, 60, 64
12, 827760, Note_on_c, 11, 59, 60
12, 827880, Note_off_c, 11, 59, 64
12, 828240, Note_on_c, 11, 55, 60
12, 828360, Note_off_c, 11, 55, 64
12, 828720, Note_on_c, 11, 57, 60
12, 828840, Note_off_c, 11, 57, 64
12, 829200, Note_on_c, 11, 59, 60
12, 829320, Note_off_c, 11, 59, 64
12, 829680, Note_on_c, 11, 55, 60
12, 829800, Note_off_c, 11, 55, 64
12, 830160, Note_on_c, 11, 55, 60
12, 830640, Note_off_c, 11, 55, 64
12, 830640, Note_on_c, 11, 60, 60
12, 831600, Note_off_c, 11, 60, 64
12, 831600, Note_on_c, 11, 64, 60
12, 832080, Note_off_c, 11, 64, 64
12, 832080, Note_on_c, 11, 67, 60
12, 832560, Note_off_c, 11, 67, 64
12, 832560, Note_on_c, 11, 64, 60
12, 832960, Note_off_c, 11, 64, 64
12, 833040, Note_on_c, 11, 64, 60
12, 833520, Note_off_c, 11, 64, 64
12, 833520, Note_on_c, 11, 67, 60
12, 834000, Note_off_c, 11, 67, 64
12, 834000, Note_on_c, 11, 71, 60
12, 834480, Note_off_c, 11, 71, 64
12, 834480, Note_on_c, 11, 72, 60
12, 834720, Note_off_c, 11, 72, 64
12, 834720, Note_on_c, 11, 69, 60
12, 834960, Note_off_c, 11, 69, 64
12, 834960, Note_on_c, 11, 67, 60
12, 835800, Note_off_c, 11, 67, 64
12, 835920, Note_on_c, 11, 71, 60
12, 836400, Note_off_c, 11, 71, 64
12, 836400, Note_on_c, 11, 72, 60
12, 836880, Note_off_c, 11, 72, 64
12, 836880, Note_on_c, 11, 67, 60
12, 837360, Note_off_c, 11, 67, 64
12, 837360, Note_on_c, 11, 69, 60
12, 837840, Note_off_c, 11, 69, 64
12, 837840, Note_on_c, 11, 67, 60
12, 838320, Note_off_c, 11, 67, 64
12, 838320, Note_on_c, 11, 64, 60
12, 838800, Note_off_c, 11, 64, 64
12, 838800, Note_on_c, 11, 65, 60
12, 839280, Note_off_c, 11, 65, 64
12, 839280, Note_on_c, 11, 64, 60
12, 839760, Note_off_c, 11, 64, 64
12, 839760, Note_on_c, 11, 60, 60
12, 840240, Note_off_c, 11, 60, 64
12, 840240, Note_on_c, 11, 55, 60
12, 840240, Note_on_c, 11, 62, 60
12, 840720, Note_off_c, 11, 62, 64
12, 840720, Note_off_c, 11, 55, 64
12, 840720, Note_on_c, 11, 55, 60
12, 840720, Note_on_c, 11, 64, 60
12, 841120, Note_off_c, 11, 64, 64
12, 841120, Note_off_c, 11, 55, 64
12, 841200, Note_on_c, 11, 60, 63
12, 841600, Note_off_c, 11, 60, 64
12, 841680, Note_on_c, 11, 60, 66
12, 842160, Note_off_c, 11, 60, 64
12, 842160, Note_on_c, 11, 72, 69
12, 842640, Note_off_c, 11, 72, 64
12, 842640, Note_on_c, 11, 69, 72
12, 843120, Note_off_c, 11, 69, 64
12, 843120, Note_on_c, 11, 70, 75
12, 843600, Note_off_c, 11, 70, 64
12, 843600, Note_on_c, 11, 69, 78
12, 844080, Note_off_c, 11, 69, 64
12, 844080, Note_on_c, 11, 65, 81
12, 844560, Note_off_c, 11, 65, 64
12, 844560, Note_on_c, 11, 67, 84
12, 845040, Note_off_c, 11, 67, 64
12, 845040, Note_on_c, 11, 65, 88
12, 845520, Note_off_c, 11, 65, 64
12, 845520, Note_on_c, 11, 60, 92
12, 846000, Note_off_c, 11, 60, 64
12, 846000, Note_on_c, 11, 67, 96
12, 846480, Note_off_c, 11, 67, 64
12, 846480, Note_on_c, 11, 69, 100
12, 846960, Note_off_c, 11, 69, 64
12, 846960, Note_on_c, 11, 65, 104
12, 847360, Note_off_c, 11, 65, 64
12, 847440, Note_on_c, 11, 72, 108
12, 847560, Note_off_c, 11, 72, 64
12, 847920, Note_on_c, 11, 77, 108
12, 848040, Note_off_c, 11, 77, 64
12, 848400, Note_on_c, 11, 72, 108
12, 848520, Note_off_c, 11, 72, 64
12, 848880, Note_on_c, 11, 74, 108
12, 849000, Note_off_c, 11, 74, 64
12, 849360, Note_on_c, 11, 72, 108
12, 849480, Note_off_c, 11, 72, 64
12, 849840, Note_on_c, 11, 69, 108
12, 849960, Note_off_c, 11, 69, 64
12, 850320, Note_on_c, 11, 70, 108
12, 850440, Note_off_c, 11, 70, 64
12, 850800, Note_on_c, 11, 69, 108
12, 850920, Note_off_c, 11, 69, 64
12, 851280, Note_on_c, 11, 65, 108
12, 851400, Note_off_c, 11, 65, 64
12, 851760, Note_on_c, 11, 67, 108
12, 851880, Note_off_c, 11, 67, 64
12, 852240, Note_on_c, 11, 69, 108
12, 852360, Note_off_c, 11, 69, 64
12, 852720, Note_on_c, 11, 65, 108
12, 852840, Note_off_c, 11, 65, 64
12, 853200, Note_on_c, 11, 67, 108
12, 853320, Note_off_c, 11, 67, 64
12, 853680, Note_on_c, 11, 69, 108
12, 853800, Note_off_c, 11, 69, 64
12, 854160, Note_on_c, 11, 65, 108
12, 854280, Note_off_c, 11, 65, 64
12, 854640, Note_on_c, 11, 67, 108
12, 854760, Note_off_c, 11, 67, 64
12, 855120, Note_on_c, 11, 69, 108
12, 855240, Note_off_c, 11, 69, 64
12, 855600, Note_on_c, 11, 65, 108
12, 855720, Note_off_c, 11, 65, 64
12, 856080, Note_on_c, 11, 67, 108
12, 856200, Note_off_c, 11, 67, 64
12, 856560, Note_on_c, 11, 69, 108
12, 857880, Note_off_c, 11, 69, 64
12, 858000, Note_on_c, 11, 67, 108
12, 858060, Note_off_c, 11, 67, 64
12, 858060, Note_on_c, 11, 69, 108
12, 858120, Note_off_c, 11, 69, 64
12, 858120, Note_on_c, 11, 67, 108
12, 858880, Note_off_c, 11, 67, 64
12, 858960, Note_on_c, 11, 65, 108
12, 859360, Note_off_c, 11, 65, 64
12, 859440, Note_on_c, 11, 64, 108
12, 859500, Note_off_c, 11, 64, 64
12, 859500, Note_on_c, 11, 65, 108
12, 859560, Note_off_c, 11, 65, 64
12, 859560, Note_on_c, 11, 64, 108
12, 860320, Note_off_c, 11, 64, 64
12, 860400, Note_on_c, 11, 62, 108
12, 860800, Note_off_c, 11, 62, 64
12, 860880, Note_on_c, 11, 60, 108
12, 861720, Note_off_c, 11, 60, 64
12, 861840, Note_on_c, 11, 72, 108
12, 862240, Note_off_c, 11, 72, 64
12, 862320, Note_on_c, 11, 69, 108
12, 863640, Note_off_c, 11, 69, 64
12, 863760, Note_on_c, 11, 77, 108
12, 865080, Note_off_c, 11, 77, 64
12, 865200, Note_on_c, 11, 77, 108
12, 866520, Note_off_c, 11, 77, 64
12, 866640, Note_on_c, 11, 76, 108
12, 867960, Note_off_c, 11, 76, 64
12, 868080, Note_on_c, 11, 69, 108
12, 868080, Note_on_c, 11, 77, 108
12, 868480, Note_off_c, 11, 77, 64
12, 868480, Note_off_c, 11, 69, 64
12, 873840, Note_on_c, 11, 69, 108
12, 875160, Note_off_c, 11, 69, 64
12, 875280, Note_on_c, 11, 77, 108
12, 876600, Note_off_c, 11, 77, 64
12, 876720, Note_on_c, 11, 77, 108
12, 878040, Note_off_c, 11, 77, 64
12, 878160, Note_on_c, 11, 76, 108
12, 879480, Note_off_c, 11, 76, 64
12, 879600, Note_on_c, 11, 69, 92
12, 879600, Note_on_c, 11, 77, 92
12, 880000, Note_off_c, 11, 77, 64
12, 880000, Note_off_c, 11, 69, 64
12, 881040, Note_on_c, 11, 57, 108
12, 881120, Note_off_c, 11, 57, 64
12, 881280, Note_on_c, 11, 60, 108
12, 881360, Note_off_c, 11, 60, 64
12, 881520, Note_on_c, 11, 65, 108
12, 881600, Note_off_c, 11, 65, 64
12, 881760, Note_on_c, 11, 69, 108
12, 881840, Note_off_c, 11, 69, 64
12, 882000, Note_on_c, 11, 72, 108
12, 882400, Note_off_c, 11, 72, 64
12, 883920, Note_on_c, 11, 67, 92
12, 883920, Note_on_c, 11, 70, 92
12, 884320, Note_off_c, 11, 70, 64
12, 884320, Note_off_c, 11, 67, 64
12, 884400, Note_on_c, 11, 67, 92
12, 884400, Note_on_c, 11, 70, 92
12, 884800, Note_off_c, 11, 70, 64
12, 884800, Note_off_c, 11, 67, 64
12, 884880, Note_on_c, 11, 67, 92
12, 884880, Note_on_c, 11, 70, 92
12, 885280, Note_off_c, 11, 70, 64
12, 885280, Note_off_c, 11, 67, 64
12, 885360, Note_on_c, 11, 65, 92
12, 885360, Note_on_c, 11, 69, 92
12, 885760, Note_off_c, 11, 69, 64
12, 885760, Note_off_c, 11, 65, 64
12, 886800, Note_on_c, 11, 57, 108
12, 886880, Note_off_c, 11, 57, 64
12, 887040, Note_on_c, 11, 60, 108
12, 887120, Note_off_c, 11, 60, 64
12, 887280, Note_on_c, 11, 65, 108
12, 887360, Note_off_c, 11, 65, 64
12, 887520, Note_on_c, 11, 69, 108
12, 887600, Note_off_c, 11, 69, 64
12, 887760, Note_on_c, 11, 72, 108
12, 888160, Note_off_c, 11, 72, 64
12, 889680, Note_on_c, 11, 67, 92
12, 889680, Note_on_c, 11, 70, 92
12, 890080, Note_off_c, 11, 70, 64
12, 890080, Note_off_c, 11, 67, 64
12, 890160, Note_on_c, 11, 67, 92
12, 890160, Note_on_c, 11, 70, 92
12, 890560, Note_off_c, 11, 70, 64
12, 890560, Note_off_c, 11, 67, 64
12, 890640, Note_on_c, 11, 67, 92
12, 890640, Note_on_c, 11, 70, 92
12, 891040, Note_off_c, 11, 70, 64
12, 891040, Note_off_c, 11, 67, 64
12, 891120, Note_on_c, 11, 65, 92
12, 891120, Note_on_c, 11, 69, 92
12, 891520, Note_off_c, 11, 69, 64
12, 891520, Note_off_c, 11, 65, 64
12, 894000, Note_on_c, 11, 65, 92
12, 894000, Note_on_c, 11, 69, 92
12, 894400, Note_off_c, 11, 69, 64
12, 894400, Note_off_c, 11, 65, 64
12, 896880, Note_on_c, 11, 69, 92
12, 897000, Note_off_c, 11, 69, 64
12, 897360, Note_on_c, 11, 65, 92
12, 897480, Note_off_c, 11, 65, 64
12, 897840, Note_on_c, 11, 65, 92
12, 897960, Note_off_c, 11, 65, 64
12, 898320, Note_on_c, 11, 69, 92
12, 898440, Note_off_c, 11, 69, 64
12, 898800, Note_on_c, 11, 65, 89
12, 898920, Note_off_c, 11, 65, 64
12, 899280, Note_on_c, 11, 65, 86
12, 899400, Note_off_c, 11, 65, 64
12, 899760, Note_on_c, 11, 69, 83
12, 899880, Note_off_c, 11, 69, 64
12, 900240, Note_on_c, 11, 65, 80
12, 900360, Note_off_c, 11, 65, 64
12, 900720, Note_on_c, 11, 65, 76
12, 900840, Note_off_c, 11, 65, 64
12, 901200, Note_on_c, 11, 69, 72
12, 901320, Note_off_c, 11, 69, 64
12, 901680, Note_on_c, 11, 65, 68
12, 901800, Note_off_c, 11, 65, 64
12, 902160, Note_on_c, 11, 65, 64
12, 902280, Note_off_c, 11, 65, 64
12, 902640, Note_on_c, 11, 69, 60
12, 902760, Note_off_c, 11, 69, 64
12, 903120, Note_on_c, 11, 65, 60
12, 903240, Note_off_c, 11, 65, 64
12, 903600, Note_on_c, 11, 65, 60
12, 903720, Note_off_c, 11, 65, 64
12, 904080, Note_on_c, 11, 69, 60
12, 904200, Note_off_c, 11, 69, 64
12, 904560, Note_on_c, 11, 65, 60
12, 904680, Note_off_c, 11, 65, 64
12, 905040, Note_on_c, 11, 65, 60
12, 905160, Note_off_c, 11, 65, 64
12, 905520, Note_on_c, 11, 70, 60
12, 905640, Note_off_c, 11, 70, 64
12, 906000, Note_on_c, 11, 65, 60
12, 906120, Note_off_c, 11, 65, 64
12, 906480, Note_on_c, 11, 65, 60
12, 906600, Note_off_c, 11, 65, 64
12, 906960, Note_on_c, 11, 70, 60
12, 907080, Note_off_c, 11, 70, 64
12, 907440, Note_on_c, 11, 65, 60
12, 907560, Note_off_c, 11, 65, 64
12, 907920, Note_on_c, 11, 65, 60
12, 908040, Note_off_c, 11, 65, 64
12, 908400, Note_on_c, 11, 69, 60
12, 908520, Note_off_c, 11, 69, 64
12, 908880, Note_on_c, 11, 65, 60
12, 909000, Note_off_c, 11, 65, 64
12, 909360, Note_on_c, 11, 65, 60
12, 909480, Note_off_c, 11, 65, 64
12, 909840, Note_on_c, 11, 67, 60
12, 909960, Note_off_c, 11, 67, 64
12, 910320, Note_on_c, 11, 64, 60
12, 910440, Note_off_c, 11, 64, 64
12, 910800, Note_on_c, 11, 64, 60
12, 910920, Note_off_c, 11, 64, 64
12, 911280, Note_on_c, 11, 69, 60
12, 911400, Note_off_c, 11, 69, 64
12, 911760, Note_on_c, 11, 65, 60
12, 911880, Note_off_c, 11, 65, 64
12, 912240, Note_on_c, 11, 65, 60
12, 912360, Note_off_c, 11, 65, 64
12, 912720, Note_on_c, 11, 69, 60
12, 912840, Note_off_c, 11, 69, 64
12, 913200, Note_on_c, 11, 65, 60
12, 913320, Note_off_c, 11, 65, 64
12, 913680, Note_on_c, 11, 65, 60
12, 913800, Note_off_c, 11, 65, 64
12, 914160, Note_on_c, 11, 69, 60
12, 914280, Note_off_c, 11, 69, 64
12, 914640, Note_on_c, 11, 65, 60
12, 914760, Note_off_c, 11, 65, 64
12, 915120, Note_on_c, 11, 65, 60
12, 915240, Note_off_c, 11, 65, 64
12, 915600, Note_on_c, 11, 69, 60
12, 915720, Note_off_c, 11, 69, 64
12, 916080, Note_on_c, 11, 65, 60
12, 916200, Note_off_c, 11, 65, 64
12, 916560, Note_on_c, 11, 65, 60
12, 916680, Note_off_c, 11, 65, 64
12, 917040, Note_on_c, 11, 70, 60
12, 917160, Note_off_c, 11, 70, 64
12, 917520, Note_on_c, 11, 65, 60
12, 917640, Note_off_c, 11, 65, 64
12, 918000, Note_on_c, 11, 65, 60
12, 918120, Note_off_c, 11, 65, 64
12, 918480, Note_on_c, 11, 70, 60
12, 918600, Note_off_c, 11, 70, 64
12, 918960, Note_on_c, 11, 65, 60
12, 919080, Note_off_c, 11, 65, 64
12, 919440, Note_on_c, 11, 65, 60
12, 919560, Note_off_c, 11, 65, 64
12, 919920, Note_on_c, 11, 69, 60
12, 920040, Note_off_c, 11, 69, 64
12, 920400, Note_on_c, 11, 65, 60
12, 920520, Note_off_c, 11, 65, 64
12, 920880, Note_on_c, 11, 65, 60
12, 921000, Note_off_c, 11, 65, 64
12, 921360, Note_on_c, 11, 70, 60
12, 921480, Note_off_c, 11, 70, 64
12, 921840, Note_on_c, 11, 64, 60
12, 921960, Note_off_c, 11, 64, 64
12, 922320, Note_on_c, 11, 64, 60
12, 922440, Note_off_c, 11, 64, 64
12, 922800, Note_on_c, 11, 67, 60
12, 922920, Note_off_c, 11, 67, 64
12, 923280, Note_on_c, 11, 64, 60
12, 923400, Note_off_c, 11, 64, 64
12, 923760, Note_on_c, 11, 64, 60
12, 923880, Note_off_c, 11, 64, 64
12, 924240, Note_on_c, 11, 69, 60
12, 924360, Note_off_c, 11, 69, 64
12, 924720, Note_on_c, 11, 65, 60
12, 924840, Note_off_c, 11, 65, 64
12, 925200, Note_on_c, 11, 65, 60
12, 925320, Note_off_c, 11, 65, 64
12, 925680, Note_on_c, 11, 69, 60
12, 925800, Note_off_c, 11, 69, 64
12, 926160, Note_on_c, 11, 65, 60
12, 926280, Note_off_c, 11, 65, 64
12, 926640, Note_on_c, 11, 65, 60
12, 926760, Note_off_c, 11, 65, 64
12, 927120, Note_on_c, 11, 69, 60
12, 927240, Note_off_c, 11, 69, 64
12, 927600, Note_on_c, 11, 65, 60
12, 927720, Note_off_c, 11, 65, 64
12, 928080, Note_on_c, 11, 65, 60
12, 928200, Note_off_c, 11, 65, 64
12, 928560, Note_on_c, 11, 70, 60
12, 928680, Note_off_c, 11, 70, 64
12, 929040, Note_on_c, 11, 65, 60
12, 929160, Note_off_c, 11, 65, 64
12, 929520, Note_on_c, 11, 65, 60
12, 929640, Note_off_c, 11, 65, 64
12, 930000, Note_on_c, 11, 70, 60
12, 930120, Note_off_c, 11, 70, 64
12, 930480, Note_on_c, 11, 65, 60
12, 930600, Note_off_c, 11, 65, 64
12, 930960, Note_on_c, 11, 65, 60
12, 931080, Note_off_c, 11, 65, 64
12, 931440, Note_on_c, 11, 69, 60
12, 931560, Note_off_c, 11, 69, 64
12, 931920, Note_on_c, 11, 65, 60
12, 932040, Note_off_c, 11, 65, 64
12, 932400, Note_on_c, 11, 65, 60
12, 932520, Note_off_c, 11, 65, 64
12, 932880, Note_on_c, 11, 67, 60
12, 933000, Note_off_c, 11, 67, 64
12, 933360, Note_on_c, 11, 64, 60
12, 933480, Note_off_c, 11, 64, 64
12, 933840, Note_on_c, 11, 64, 60
12, 933960, Note_off_c, 11, 64, 64
12, 934320, Note_on_c, 11, 69, 60
12, 934440, Note_off_c, 11, 69, 64
12, 934800, Note_on_c, 11, 65, 60
12, 934920, Note_off_c, 11, 65, 64
12, 935280, Note_on_c, 11, 65, 60
12, 935400, Note_off_c, 11, 65, 64
12, 935760, Note_on_c, 11, 69, 60
12, 935880, Note_off_c, 11, 69, 64
12, 936240, Note_on_c, 11, 65, 60
12, 936360, Note_off_c, 11, 65, 64
12, 936720, Note_on_c, 11, 65, 60
12, 936840, Note_off_c, 11, 65, 64
12, 937200, Note_on_c, 11, 69, 60
12, 937320, Note_off_c, 11, 69, 64
12, 937680, Note_on_c, 11, 65, 60
12, 937800, Note_off_c, 11, 65, 64
12, 938160, Note_on_c, 11, 65, 60
12, 938280, Note_off_c, 11, 65, 64
12, 938640, Note_on_c, 11, 69, 60
12, 938760, Note_off_c, 11, 69, 64
12, 939120, Note_on_c, 11, 65, 60
12, 939240, Note_off_c, 11, 65, 64
12, 939600, Note_on_c, 11, 65, 60
12, 939720, Note_off_c, 11, 65, 64
12, 940080, Note_on_c, 11, 70, 60
12, 940200, Note_off_c, 11, 70, 64
12, 940560, Note_on_c, 11, 65, 60
12, 940680, Note_off_c, 11, 65, 64
12, 941040, Note_on_c, 11, 65, 60
12, 941160, Note_off_c, 11, 65, 64
12, 941520, Note_on_c, 11, 70, 60
12, 941640, Note_off_c, 11, 70, 64
12, 942000, Note_on_c, 11, 65, 60
12, 942120, Note_off_c, 11, 65, 64
12, 942480, Note_on_c, 11, 65, 60
12, 942600, Note_off_c, 11, 65, 64
12, 942960, Note_on_c, 11, 69, 60
12, 943080, Note_off_c, 11, 69, 64
12, 943440, Note_on_c, 11, 65, 60
12, 943560, Note_off_c, 11, 65, 64
12, 943920, Note_on_c, 11, 65, 60
12, 944040, Note_off_c, 11, 65, 64
12, 944400, Note_on_c, 11, 70, 60
12, 944520, Note_off_c, 11, 70, 64
12, 944880, Note_on_c, 11, 64, 60
12, 945000, Note_off_c, 11, 64, 64
12, 945360, Note_on_c, 11, 64, 60
12, 945480, Note_off_c, 11, 64, 64
12, 945840, Note_on_c, 11, 67, 60
12, 945960, Note_off_c, 11, 67, 64
12, 946320, Note_on_c, 11, 64, 60
12, 946440, Note_off_c, 11, 64, 64
12, 946800, Note_on_c, 11, 64, 60
12, 946920, Note_off_c, 11, 64, 64
12, 947280, Note_on_c, 11, 69, 60
12, 947400, Note_off_c, 11, 69, 64
12, 947760, Note_on_c, 11, 65, 60
12, 947880, Note_off_c, 11, 65, 64
12, 948240, Note_on_c, 11, 65, 60
12, 948360, Note_off_c, 11, 65, 64
12, 960240, Note_on_c, 11, 67, 75
12, 960360, Note_off_c, 11, 67, 64
12, 960720, Note_on_c, 11, 64, 75
12, 960840, Note_off_c, 11, 64, 64
12, 961200, Note_on_c, 11, 64, 75
12, 961320, Note_off_c, 11, 64, 64
12, 961680, Note_on_c, 11, 67, 75
12, 961800, Note_off_c, 11, 67, 64
12, 962160, Note_on_c, 11, 64, 75
12, 962280, Note_off_c, 11, 64, 64
12, 962640, Note_on_c, 11, 64, 75
12, 962760, Note_off_c, 11, 64, 64
12, 963120, Note_on_c, 11, 69, 75
12, 963240, Note_off_c, 11, 69, 64
12, 963600, Note_on_c, 11, 65, 73
12, 963720, Note_off_c, 11, 65, 64
12, 964080, Note_on_c, 11, 65, 71
12, 964200, Note_off_c, 11, 65, 64
12, 964560, Note_on_c, 11, 69, 69
12, 964680, Note_off_c, 11, 69, 64
12, 965040, Note_on_c, 11, 65, 66
12, 965160, Note_off_c, 11, 65, 64
12, 965520, Note_on_c, 11, 65, 63
12, 965640, Note_off_c, 11, 65, 64
12, 966000, Note_on_c, 11, 70, 60
12, 966120, Note_off_c, 11, 70, 64
12, 966480, Note_on_c, 11, 65, 60
12, 966600, Note_off_c, 11, 65, 64
12, 966960, Note_on_c, 11, 65, 60
12, 967080, Note_off_c, 11, 65, 64
12, 967440, Note_on_c, 11, 70, 60
12, 967560, Note_off_c, 11, 70, 64
12, 967920, Note_on_c, 11, 65, 60
12, 968040, Note_off_c, 11, 65, 64
12, 968400, Note_on_c, 11, 65, 60
12, 968520, Note_off_c, 11, 65, 64
12, 968880, Note_on_c, 11, 69, 60
12, 969000, Note_off_c, 11, 69, 64
12, 969360, Note_on_c, 11, 65, 60
12, 969480, Note_off_c, 11, 65, 64
12, 969840, Note_on_c, 11, 65, 60
12, 969960, Note_off_c, 11, 65, 64
12, 970320, Note_on_c, 11, 67, 60
12, 970440, Note_off_c, 11, 67, 64
12, 970800, Note_on_c, 11, 64, 60
12, 970920, Note_off_c, 11, 64, 64
12, 971280, Note_on_c, 11, 64, 60
12, 971400, Note_off_c, 11, 64, 64
12, 971760, Note_on_c, 11, 69, 60
12, 971880, Note_off_c, 11, 69, 64
12, 972240, Note_on_c, 11, 65, 60
12, 972360, Note_off_c, 11, 65, 64
12, 972720, Note_on_c, 11, 65, 60
12, 972840, Note_off_c, 11, 65, 64
12, 973200, Note_on_c, 11, 69, 60
12, 973320, Note_off_c, 11, 69, 64
12, 973680, Note_on_c, 11, 65, 60
12, 973800, Note_off_c, 11, 65, 64
12, 974160, Note_on_c, 11, 65, 60
12, 974280, Note_off_c, 11, 65, 64
12, 974640, Note_on_c, 11, 69, 60
12, 974760, Note_off_c, 11, 69, 64
12, 975120, Note_on_c, 11, 65, 60
12, 975240, Note_off_c, 11, 65, 64
12, 975600, Note_on_c, 11, 65, 60
12, 975720, Note_off_c, 11, 65, 64
12, 976080, Note_on_c, 11, 69, 60
12, 976200, Note_off_c, 11, 69, 64
12, 976560, Note_on_c, 11, 65, 60
12, 976680, Note_off_c, 11, 65, 64
12, 977040, Note_on_c, 11, 65, 60
12, 977160, Note_off_c, 11, 65, 64
12, 977520, Note_on_c, 11, 70, 60
12, 977640, Note_off_c, 11, 70, 64
12, 978000, Note_on_c, 11, 60, 60
12, 978120, Note_off_c, 11, 60, 64
12, 978480, Note_on_c, 11, 60, 60
12, 978600, Note_off_c, 11, 60, 64
12, 978960, Note_on_c, 11, 70, 60
12, 979080, Note_off_c, 11, 70, 64
12, 979440, Note_on_c, 11, 64, 60
12, 979560, Note_off_c, 11, 64, 64
12, 979920, Note_on_c, 11, 64, 60
12, 980040, Note_off_c, 11, 64, 64
12, 980400, Note_on_c, 11, 69, 60
12, 980520, Note_off_c, 11, 69, 64
12, 980880, Note_on_c, 11, 65, 60
12, 981000, Note_off_c, 11, 65, 64
12, 981360, Note_on_c, 11, 65, 60
12, 981480, Note_off_c, 11, 65, 64
12, 981840, Note_on_c, 11, 69, 60
12, 981960, Note_off_c, 11, 69, 64
12, 982320, Note_on_c, 11, 65, 60
12, 982440, Note_off_c, 11, 65, 64
12, 982800, Note_on_c, 11, 65, 60
12, 982920, Note_off_c, 11, 65, 64
12, 983280, Note_on_c, 11, 70, 60
12, 983400, Note_off_c, 11, 70, 64
12, 983760, Note_on_c, 11, 60, 60
12, 983880, Note_off_c, 11, 60, 64
12, 984240, Note_on_c, 11, 60, 60
12, 984360, Note_off_c, 11, 60, 64
12, 984720, Note_on_c, 11, 70, 60
12, 984840, Note_off_c, 11, 70, 64
12, 985200, Note_on_c, 11, 60, 61
12, 985320, Note_off_c, 11, 60, 64
12, 985680, Note_on_c, 11, 60, 62
12, 985800, Note_off_c, 11, 60, 64
12, 986160, Note_on_c, 11, 69, 63
12, 986280, Note_off_c, 11, 69, 64
12, 986640, Note_on_c, 11, 65, 64
12, 986760, Note_off_c, 11, 65, 64
12, 987120, Note_on_c, 11, 65, 65
12, 987240, Note_off_c, 11, 65, 64
12, 987600, Note_on_c, 11, 69, 66
12, 987720, Note_off_c, 11, 69, 64
12, 988080, Note_on_c, 11, 65, 67
12, 988200, Note_off_c, 11, 65, 64
12, 988560, Note_on_c, 11, 65, 68
12, 988680, Note_off_c, 11, 65, 64
12, 989040, Note_on_c, 11, 70, 69
12, 989160, Note_off_c, 11, 70, 64
12, 989520, Note_on_c, 11, 60, 70
12, 989640, Note_off_c, 11, 60, 64
12, 990000, Note_on_c, 11, 60, 71
12, 990120, Note_off_c, 11, 60, 64
12, 990480, Note_on_c, 11, 70, 72
12, 990600, Note_off_c, 11, 70, 64
12, 990960, Note_on_c, 11, 60, 73
12, 991080, Note_off_c, 11, 60, 64
12, 991440, Note_on_c, 11, 60, 74
12, 991560, Note_off_c, 11, 60, 64
12, 991920, Note_on_c, 11, 65, 75
12, 994680, Note_off_c, 11, 65, 64
12, 994800, Note_on_c, 11, 64, 75
12, 997560, Note_off_c, 11, 64, 64
12, 997680, Note_on_c, 11, 65, 75
12, 1000440, Note_off_c, 11, 65, 64
12, 1000560, Note_on_c, 11, 64, 83
12, 1003320, Note_off_c, 11, 64, 64
12, 1003440, Note_on_c, 11, 65, 92
12, 1003840, Note_off_c, 11, 65, 64
12, 1009200, Program_c, 11, 50
12, 1009200, Note_on_c, 11, 65, 127
12, 1009440, Note_off_c, 11, 65, 64
12, 1009440, Note_on_c, 11, 67, 108
12, 1009560, Note_off_c, 11, 67, 64
12, 1009560, Note_on_c, 11, 65, 108
12, 1009680, Note_off_c, 11, 65, 64
12, 1009680, Note_on_c, 11, 60, 108
12, 1009920, Note_off_c, 11, 60, 64
12, 1009920, Note_on_c, 11, 62, 108
12, 1010040, Note_off_c, 11, 62, 64
12, 1010040, Note_on_c, 11, 64, 108
12, 1010155, Note_off_c, 11, 64, 64
12, 1010160, Note_on_c, 11, 65, 127
12, 1010400, Note_off_c, 11, 65, 64
12, 1010400, Note_on_c, 11, 67, 108
12, 1010520, Note_off_c, 11, 67, 64
12, 1010520, Note_on_c, 11, 65, 108
12, 1010635, Note_off_c, 11, 65, 64
12, 1010640, Note_on_c, 11, 60, 108
12, 1011040, Note_off_c, 11, 60, 64
12, 1011120, Note_on_c, 11, 58, 127
12, 1011240, Note_off_c, 11, 58, 64
12, 1011240, Note_on_c, 11, 60, 108
12, 1011360, Note_off_c, 11, 60, 64
12, 1011360, Note_on_c, 11, 62, 108
12, 1011480, Note_off_c, 11, 62, 64
12, 1011480, Note_on_c, 11, 63, 108
12, 1011595, Note_off_c, 11, 63, 64
12, 1011600, Note_on_c, 11, 65, 108
12, 1011680, Note_off_c, 11, 65, 64
12, 1011840, Note_on_c, 11, 65, 108
12, 1011900, Note_off_c, 11, 65, 64
12, 1011900, Note_on_c, 11, 67, 108
12, 1012075, Note_off_c, 11, 67, 64
12, 1012080, Note_on_c, 11, 60, 127
12, 1012160, Note_off_c, 11, 60, 64
12, 1012320, Note_on_c, 11, 60, 108
12, 1012380, Note_off_c, 11, 60, 64
12, 1012380, Note_on_c, 11, 65, 108
12, 1012555, Note_off_c, 11, 65, 64
12, 1012560, Note_on_c, 11, 58, 108
12, 1012960, Note_off_c, 11, 58, 64
12, 1013040, Note_on_c, 11, 65, 127
12, 1013280, Note_off_c, 11, 65, 64
12, 1013280, Note_on_c, 11, 67, 108
12, 1013400, Note_off_c, 11, 67, 64
12, 1013400, Note_on_c, 11, 65, 108
12, 1013520, Note_off_c, 11, 65, 64
12, 1013520, Note_on_c, 11, 60, 108
12, 1013760, Note_off_c, 11, 60, 64
12, 1013760, Note_on_c, 11, 62, 108
12, 1013880, Note_off_c, 11, 62, 64
12, 1013880, Note_on_c, 11, 64, 108
12, 1013995, Note_off_c, 11, 64, 64
12, 1014000, Note_on_c, 11, 65, 127
12, 1014240, Note_off_c, 11, 65, 64
12, 1014240, Note_on_c, 11, 67, 108
12, 1014360, Note_off_c, 11, 67, 64
12, 1014360, Note_on_c, 11, 65, 108
12, 1014475, Note_off_c, 11, 65, 64
12, 1014480, Note_on_c, 11, 60, 108
12, 1014880, Note_off_c, 11, 60, 64
12, 1014960, Note_on_c, 11, 58, 127
12, 1015080, Note_off_c, 11, 58, 64
12, 1015080, Note_on_c, 11, 60, 108
12, 1015200, Note_off_c, 11, 60, 64
12, 1015200, Note_on_c, 11, 62, 108
12, 1015320, Note_off_c, 11, 62, 64
12, 1015320, Note_on_c, 11, 63, 108
12, 1015435, Note_off_c, 11, 63, 64
12, 1015440, Note_on_c, 11, 65, 108
12, 1015520, Note_off_c, 11, 65, 64
12, 1015680, Note_on_c, 11, 65, 108
12, 1015740, Note_off_c, 11, 65, 64
12, 1015740, Note_on_c, 11, 67, 108
12, 1015915, Note_off_c, 11, 67, 64
12, 1015920, Note_on_c, 11, 60, 127
12, 1016000, Note_off_c, 11, 60, 64
12, 1016160, Note_on_c, 11, 60, 108
12, 1016220, Note_off_c, 11, 60, 64
12, 1016220, Note_on_c, 11, 65, 108
12, 1016395, Note_off_c, 11, 65, 64
12, 1016400, Note_on_c, 11, 58, 108
12, 1016800, Note_off_c, 11, 58, 64
12, 1016880, Note_on_c, 11, 65, 127
12, 1017120, Note_off_c, 11, 65, 64
12, 1017120, Note_on_c, 11, 67, 108
12, 1017240, Note_off_c, 11, 67, 64
12, 1017240, Note_on_c, 11, 65, 108
12, 1017360, Note_off_c, 11, 65, 64
12, 1017360, Note_on_c, 11, 60, 108
12, 1017600, Note_off_c, 11, 60, 64
12, 1017600, Note_on_c, 11, 62, 108
12, 1017720, Note_off_c, 11, 62, 64
12, 1017720, Note_on_c, 11, 64, 108
12, 1017835, Note_off_c, 11, 64, 64
12, 1017840, Note_on_c, 11, 65, 127
12, 1018080, Note_off_c, 11, 65, 64
12, 1018080, Note_on_c, 11, 67, 108
12, 1018200, Note_off_c, 11, 67, 64
12, 1018200, Note_on_c, 11, 65, 108
12, 1018315, Note_off_c, 11, 65, 64
12, 1018320, Note_on_c, 11, 60, 108
12, 1018720, Note_off_c, 11, 60, 64
12, 1018800, Note_on_c, 11, 58, 127
12, 1018920, Note_off_c, 11, 58, 64
12, 1018920, Note_on_c, 11, 60, 108
12, 1019040, Note_off_c, 11, 60, 64
12, 1019040, Note_on_c, 11, 62, 108
12, 1019160, Note_off_c, 11, 62, 64
12, 1019160, Note_on_c, 11, 63, 108
12, 1019275, Note_off_c, 11, 63, 64
12, 1019280, Note_on_c, 11, 65, 108
12, 1019360, Note_off_c, 11, 65, 64
12, 1019520, Note_on_c, 11, 65, 108
12, 1019580, Note_off_c, 11, 65, 64
12, 1019580, Note_on_c, 11, 67, 108
12, 1019755, Note_off_c, 11, 67, 64
12, 1019760, Note_on_c, 11, 60, 127
12, 1019840, Note_off_c, 11, 60, 64
12, 1020000, Note_on_c, 11, 60, 108
12, 1020060, Note_off_c, 11, 60, 64
12, 1020060, Note_on_c, 11, 65, 108
12, 1020235, Note_off_c, 11, 65, 64
12, 1020240, Note_on_c, 11, 58, 108
12, 1020640, Note_off_c, 11, 58, 64
12, 1020720, Note_on_c, 11, 65, 127
12, 1020960, Note_off_c, 11, 65, 64
12, 1020960, Note_on_c, 11, 67, 108
12, 1021080, Note_off_c, 11, 67, 64
12, 1021080, Note_on_c, 11, 65, 108
12, 1021200, Note_off_c, 11, 65, 64
12, 1021200, Note_on_c, 11, 60, 108
12, 1021440, Note_off_c, 11, 60, 64
12, 1021440, Note_on_c, 11, 62, 108
12, 1021560, Note_off_c, 11, 62, 64
12, 1021560, Note_on_c, 11, 64, 108
12, 1021675, Note_off_c, 11, 64, 64
12, 1021680, Note_on_c, 11, 65, 127
12, 1021920, Note_off_c, 11, 65, 64
12, 1021920, Note_on_c, 11, 67, 108
12, 1022040, Note_off_c, 11, 67, 64
12, 1022040, Note_on_c, 11, 65, 108
12, 1022155, Note_off_c, 11, 65, 64
12, 1022160, Note_on_c, 11, 60, 108
12, 1022560, Note_off_c, 11, 60, 64
12, 1022640, Note_on_c, 11, 58, 127
12, 1022760, Note_off_c, 11, 58, 64
12, 1022760, Note_on_c, 11, 60, 108
12, 1022880, Note_off_c, 11, 60, 64
12, 1022880, Note_on_c, 11, 62, 108
12, 1023000, Note_off_c, 11, 62, 64
12, 1023000, Note_on_c, 11, 63, 108
12, 1023115, Note_off_c, 11, 63, 64
12, 1023120, Note_on_c, 11, 65, 108
12, 1023200, Note_off_c, 11, 65, 64
12, 1023360, Note_on_c, 11, 65, 108
12, 1023420, Note_off_c, 11, 65, 64
12, 1023420, Note_on_c, 11, 67, 108
12, 1023595, Note_off_c, 11, 67, 64
12, 1023600, Note_on_c, 11, 60, 127
12, 1023680, Note_off_c, 11, 60, 64
12, 1023840, Note_on_c, 11, 60, 108
12, 1023900, Note_off_c, 11, 60, 64
12, 1023900, Note_on_c, 11, 65, 108
12, 1024075, Note_off_c, 11, 65, 64
12, 1024080, Note_on_c, 11, 58, 108
12, 1024480, Note_off_c, 11, 58, 64
12, 1024560, Program_c, 11, 48
12, 1024560, Note_on_c, 11, 69, 108
12, 1025040, Note_off_c, 11, 69, 64
12, 1025040, Note_on_c, 11, 74, 108
12, 1025440, Note_off_c, 11, 74, 64
12, 1025520, Note_on_c, 11, 72, 108
12, 1026000, Note_off_c, 11, 72, 64
12, 1026000, Note_on_c, 11, 76, 108
12, 1026400, Note_off_c, 11, 76, 64
12, 1026480, Note_on_c, 11, 77, 108
12, 1026960, Note_off_c, 11, 77, 64
12, 1026960, Note_on_c, 11, 69, 108
12, 1027360, Note_off_c, 11, 69, 64
12, 1027440, Note_on_c, 11, 70, 108
12, 1027920, Note_off_c, 11, 70, 64
12, 1027920, Note_on_c, 11, 69, 108
12, 1028160, Note_off_c, 11, 69, 64
12, 1028160, Note_on_c, 11, 71, 108
12, 1028395, Note_off_c, 11, 71, 64
12, 1028400, Note_on_c, 11, 69, 108
12, 1028880, Note_off_c, 11, 69, 64
12, 1028880, Note_on_c, 11, 74, 108
12, 1029280, Note_off_c, 11, 74, 64
12, 1029360, Note_on_c, 11, 72, 108
12, 1029840, Note_off_c, 11, 72, 64
12, 1029840, Note_on_c, 11, 76, 108
12, 1030240, Note_off_c, 11, 76, 64
12, 1030320, Note_on_c, 11, 77, 108
12, 1030800, Note_off_c, 11, 77, 64
12, 1030800, Note_on_c, 11, 69, 108
12, 1031200, Note_off_c, 11, 69, 64
12, 1031280, Note_on_c, 11, 70, 108
12, 1031760, Note_off_c, 11, 70, 64
12, 1031760, Note_on_c, 11, 69, 108
12, 1032160, Note_off_c, 11, 69, 64
12, 1032240, Note_on_c, 11, 60, 108
12, 1032480, Note_off_c, 11, 60, 64
12, 1032480, Note_on_c, 11, 62, 108
12, 1032600, Note_off_c, 11, 62, 64
12, 1032600, Note_on_c, 11, 60, 108
12, 1032720, Note_off_c, 11, 60, 64
12, 1032720, Note_on_c, 11, 55, 108
12, 1032960, Note_off_c, 11, 55, 64
12, 1032960, Note_on_c, 11, 57, 108
12, 1033080, Note_off_c, 11, 57, 64
12, 1033080, Note_on_c, 11, 59, 108
12, 1033195, Note_off_c, 11, 59, 64
12, 1033200, Note_on_c, 11, 60, 108
12, 1033440, Note_off_c, 11, 60, 64
12, 1033440, Note_on_c, 11, 62, 108
12, 1033560, Note_off_c, 11, 62, 64
12, 1033560, Note_on_c, 11, 60, 108
12, 1033680, Note_off_c, 11, 60, 64
12, 1033680, Note_on_c, 11, 59, 108
12, 1033920, Note_off_c, 11, 59, 64
12, 1033920, Note_on_c, 11, 60, 108
12, 1034040, Note_off_c, 11, 60, 64
12, 1034040, Note_on_c, 11, 62, 108
12, 1034155, Note_off_c, 11, 62, 64
12, 1034160, Note_on_c, 11, 67, 108
12, 1034400, Note_off_c, 11, 67, 64
12, 1034400, Note_on_c, 11, 65, 108
12, 1034520, Note_off_c, 11, 65, 64
12, 1034520, Note_on_c, 11, 67, 108
12, 1034635, Note_off_c, 11, 67, 64
12, 1034640, Note_on_c, 11, 69, 108
12, 1034875, Note_off_c, 11, 69, 64
12, 1035120, Note_on_c, 11, 64, 108
12, 1035120, Note_on_c, 11, 72, 108
12, 1035355, Note_off_c, 11, 72, 64
12, 1035355, Note_off_c, 11, 64, 64
12, 1035600, Note_on_c, 11, 65, 108
12, 1035600, Note_on_c, 11, 71, 108
12, 1035835, Note_off_c, 11, 71, 64
12, 1035835, Note_off_c, 11, 65, 64
12, 1036080, Note_on_c, 11, 60, 108
12, 1036320, Note_off_c, 11, 60, 64
12, 1036320, Note_on_c, 11, 62, 108
12, 1036440, Note_off_c, 11, 62, 64
12, 1036440, Note_on_c, 11, 60, 108
12, 1036555, Note_off_c, 11, 60, 64
12, 1036560, Note_on_c, 11, 59, 108
12, 1036800, Note_off_c, 11, 59, 64
12, 1036800, Note_on_c, 11, 60, 108
12, 1036920, Note_off_c, 11, 60, 64
12, 1036920, Note_on_c, 11, 62, 108
12, 1037035, Note_off_c, 11, 62, 64
12, 1037040, Note_on_c, 11, 64, 108
12, 1037280, Note_off_c, 11, 64, 64
12, 1037280, Note_on_c, 11, 65, 108
12, 1037400, Note_off_c, 11, 65, 64
12, 1037400, Note_on_c, 11, 64, 108
12, 1037515, Note_off_c, 11, 64, 64
12, 1037520, Note_on_c, 11, 62, 108
12, 1037760, Note_off_c, 11, 62, 64
12, 1037760, Note_on_c, 11, 64, 108
12, 1037880, Note_off_c, 11, 64, 64
12, 1037880, Note_on_c, 11, 65, 108
12, 1037995, Note_off_c, 11, 65, 64
12, 1038000, Note_on_c, 11, 67, 108
12, 1038240, Note_off_c, 11, 67, 64
12, 1038240, Note_on_c, 11, 65, 108
12, 1038360, Note_off_c, 11, 65, 64
12, 1038360, Note_on_c, 11, 67, 108
12, 1038475, Note_off_c, 11, 67, 64
12, 1038480, Note_on_c, 11, 69, 108
12, 1038715, Note_off_c, 11, 69, 64
12, 1038720, Note_on_c, 11, 69, 108
12, 1038955, Note_off_c, 11, 69, 64
12, 1039200, Note_on_c, 11, 55, 108
12, 1039200, Note_on_c, 11, 64, 108
12, 1039200, Note_on_c, 11, 72, 108
12, 1039435, Note_off_c, 11, 72, 64
12, 1039435, Note_off_c, 11, 64, 64
12, 1039435, Note_off_c, 11, 55, 64
12, 1039680, Note_on_c, 11, 55, 108
12, 1039680, Note_on_c, 11, 65, 108
12, 1039680, Note_on_c, 11, 71, 108
12, 1039915, Note_off_c, 11, 71, 64
12, 1039915, Note_off_c, 11, 65, 64
12, 1039915, Note_off_c, 11, 55, 64
12, 1039920, Note_on_c, 11, 55, 108
12, 1039920, Note_on_c, 11, 64, 108
12, 1040560, Note_off_c, 11, 64, 64
12, 1040560, Note_off_c, 11, 55, 64
12, 1040640, Note_on_c, 11, 64, 108
12, 1040875, Note_off_c, 11, 64, 64
12, 1040880, Note_on_c, 11, 64, 108
12, 1041520, Note_off_c, 11, 64, 64
12, 1041600, Note_on_c, 11, 60, 108
12, 1041835, Note_off_c, 11, 60, 64
12, 1041840, Note_on_c, 11, 60, 108
12, 1042480, Note_off_c, 11, 60, 64
12, 1042560, Note_on_c, 11, 67, 108
12, 1042795, Note_off_c, 11, 67, 64
12, 1042800, Note_on_c, 11, 67, 108
12, 1043440, Note_off_c, 11, 67, 64
12, 1043520, Note_on_c, 11, 60, 108
12, 1043755, Note_off_c, 11, 60, 64
12, 1043760, Note_on_c, 11, 60, 108
12, 1043840, Note_off_c, 11, 60, 64
12, 1044000, Note_on_c, 11, 72, 108
12, 1044080, Note_off_c, 11, 72, 64
12, 1044240, Note_on_c, 11, 72, 108
12, 1044320, Note_off_c, 11, 72, 64
12, 1044480, Note_on_c, 11, 64, 108
12, 1044560, Note_off_c, 11, 64, 64
12, 1044720, Note_on_c, 11, 64, 108
12, 1044800, Note_off_c, 11, 64, 64
12, 1044960, Note_on_c, 11, 76, 108
12, 1045040, Note_off_c, 11, 76, 64
12, 1045200, Note_on_c, 11, 76, 108
12, 1045280, Note_off_c, 11, 76, 64
12, 1045440, Note_on_c, 11, 72, 108
12, 1045520, Note_off_c, 11, 72, 64
12, 1045680, Note_on_c, 11, 72, 108
12, 1045915, Note_off_c, 11, 72, 64
12, 1046640, Note_on_c, 11, 64, 108
12, 1046875, Note_off_c, 11, 64, 64
12, 1049040, Program_c, 11, 50
12, 1049040, Note_on_c, 11, 72, 45
12, 1049160, Note_off_c, 11, 72, 64
12, 1049520, Note_on_c, 11, 77, 45
12, 1049640, Note_off_c, 11, 77, 64
12, 1050000, Note_on_c, 11, 72, 45
12, 1050120, Note_off_c, 11, 72, 64
12, 1050480, Note_on_c, 11, 74, 45
12, 1050600, Note_off_c, 11, 74, 64
12, 1050960, Note_on_c, 11, 72, 45
12, 1051080, Note_off_c, 11, 72, 64
12, 1051440, Note_on_c, 11, 69, 45
12, 1051560, Note_off_c, 11, 69, 64
12, 1051920, Note_on_c, 11, 70, 45
12, 1052040, Note_off_c, 11, 70, 64
12, 1052400, Note_on_c, 11, 69, 45
12, 1052520, Note_off_c, 11, 69, 64
12, 1052880, Note_on_c, 11, 65, 45
12, 1053000, Note_off_c, 11, 65, 64
12, 1053360, Note_on_c, 11, 67, 45
12, 1053480, Note_off_c, 11, 67, 64
12, 1053840, Note_on_c, 11, 69, 45
12, 1053960, Note_off_c, 11, 69, 64
12, 1054320, Note_on_c, 11, 65, 45
12, 1054440, Note_off_c, 11, 65, 64
12, 1054800, Note_on_c, 11, 67, 45
12, 1054920, Note_off_c, 11, 67, 64
12, 1055280, Note_on_c, 11, 69, 45
12, 1055400, Note_off_c, 11, 69, 64
12, 1055760, Note_on_c, 11, 65, 45
12, 1055880, Note_off_c, 11, 65, 64
12, 1056240, Note_on_c, 11, 67, 45
12, 1056360, Note_off_c, 11, 67, 64
12, 1056720, Note_on_c, 11, 65, 45
12, 1056840, Note_off_c, 11, 65, 64
12, 1057200, Note_on_c, 11, 62, 45
12, 1057320, Note_off_c, 11, 62, 64
12, 1057680, Note_on_c, 11, 64, 45
12, 1057800, Note_off_c, 11, 64, 64
12, 1058160, Note_on_c, 11, 62, 45
12, 1058280, Note_off_c, 11, 62, 64
12, 1058640, Note_on_c, 11, 57, 45
12, 1058760, Note_off_c, 11, 57, 64
12, 1059120, Note_on_c, 11, 57, 45
12, 1059240, Note_off_c, 11, 57, 64
12, 1059600, Note_on_c, 11, 57, 45
12, 1059720, Note_off_c, 11, 57, 64
12, 1060560, Note_on_c, 11, 57, 45
12, 1061040, Note_off_c, 11, 57, 64
12, 1061040, Note_on_c, 11, 62, 45
12, 1062000, Note_off_c, 11, 62, 64
12, 1062000, Note_on_c, 11, 66, 45
12, 1062480, Note_off_c, 11, 66, 64
12, 1062480, Note_on_c, 11, 69, 45
12, 1062960, Note_off_c, 11, 69, 64
12, 1062960, Note_on_c, 11, 66, 45
12, 1063360, Note_off_c, 11, 66, 64
12, 1063440, Note_on_c, 11, 66, 45
12, 1063920, Note_off_c, 11, 66, 64
12, 1063920, Note_on_c, 11, 69, 45
12, 1064400, Note_off_c, 11, 69, 64
12, 1064400, Note_on_c, 11, 73, 48
12, 1064880, Note_off_c, 11, 73, 64
12, 1064880, Note_on_c, 11, 74, 52
12, 1065120, Note_off_c, 11, 74, 64
12, 1065120, Note_on_c, 11, 71, 54
12, 1065360, Note_off_c, 11, 71, 64
12, 1065360, Note_on_c, 11, 69, 56
12, 1065840, Note_off_c, 11, 69, 64
12, 1065840, Note_on_c, 11, 73, 60
12, 1066320, Note_off_c, 11, 73, 64
12, 1066320, Note_on_c, 11, 74, 64
12, 1066560, Note_off_c, 11, 74, 64
12, 1066560, Note_on_c, 11, 70, 66
12, 1066800, Note_off_c, 11, 70, 64
12, 1066800, Note_on_c, 11, 69, 68
12, 1067280, Note_off_c, 11, 69, 64
12, 1067280, Note_on_c, 11, 72, 72
12, 1067760, Note_off_c, 11, 72, 64
12, 1067760, Note_on_c, 11, 74, 76
12, 1068000, Note_off_c, 11, 74, 64
12, 1068000, Note_on_c, 11, 70, 78
12, 1068240, Note_off_c, 11, 70, 64
12, 1068240, Note_on_c, 11, 69, 80
12, 1068720, Note_off_c, 11, 69, 64
12, 1068720, Note_on_c, 11, 72, 84
12, 1069200, Note_off_c, 11, 72, 64
12, 1069200, Note_on_c, 11, 70, 88
12, 1069440, Note_off_c, 11, 70, 64
12, 1069440, Note_on_c, 11, 67, 90
12, 1069675, Note_off_c, 11, 67, 64
12, 1069680, Note_on_c, 11, 65, 92
12, 1070080, Note_off_c, 11, 65, 64
12, 1073040, Note_on_c, 11, 67, 45
12, 1073040, Note_on_c, 11, 70, 45
12, 1073760, Note_off_c, 11, 70, 64
12, 1073760, Note_off_c, 11, 67, 64
12, 1087920, Program_c, 11, 50
12, 1087920, Note_on_c, 11, 72, 60
12, 1088400, Note_off_c, 11, 72, 64
12, 1088400, Note_on_c, 11, 77, 60
12, 1088880, Note_off_c, 11, 77, 64
12, 1088880, Note_on_c, 11, 72, 62
12, 1089360, Note_off_c, 11, 72, 64
12, 1089360, Note_on_c, 11, 74, 65
12, 1089840, Note_off_c, 11, 74, 64
12, 1089840, Note_on_c, 11, 72, 68
12, 1090320, Note_off_c, 11, 72, 64
12, 1090320, Note_on_c, 11, 69, 71
12, 1090800, Note_off_c, 11, 69, 64
12, 1090800, Note_on_c, 11, 70, 74
12, 1091280, Note_off_c, 11, 70, 64
12, 1091280, Note_on_c, 11, 69, 77
12, 1091760, Note_off_c, 11, 69, 64
12, 1091760, Note_on_c, 11, 65, 80
12, 1092240, Note_off_c, 11, 65, 64
12, 1092240, Note_on_c, 11, 67, 83
12, 1092720, Note_off_c, 11, 67, 64
12, 1092720, Note_on_c, 11, 69, 86
12, 1093200, Note_off_c, 11, 69, 64
12, 1093200, Note_on_c, 11, 65, 89
12, 1093600, Note_off_c, 11, 65, 64
12, 1093680, Program_c, 11, 48
12, 1093680, Note_on_c, 11, 72, 92
12, 1093800, Note_off_c, 11, 72, 64
12, 1094160, Note_on_c, 11, 77, 92
12, 1094280, Note_off_c, 11, 77, 64
12, 1094640, Note_on_c, 11, 72, 92
12, 1094760, Note_off_c, 11, 72, 64
12, 1095120, Note_on_c, 11, 74, 92
12, 1095240, Note_off_c, 11, 74, 64
12, 1095600, Note_on_c, 11, 72, 92
12, 1095720, Note_off_c, 11, 72, 64
12, 1096080, Note_on_c, 11, 69, 92
12, 1096200, Note_off_c, 11, 69, 64
12, 1096560, Note_on_c, 11, 70, 92
12, 1096680, Note_off_c, 11, 70, 64
12, 1097040, Note_on_c, 11, 69, 92
12, 1097160, Note_off_c, 11, 69, 64
12, 1097520, Note_on_c, 11, 65, 92
12, 1097640, Note_off_c, 11, 65, 64
12, 1098000, Note_on_c, 11, 67, 92
12, 1098120, Note_off_c, 11, 67, 64
12, 1098480, Note_on_c, 11, 69, 92
12, 1098880, Note_off_c, 11, 69, 64
12, 1098960, Note_on_c, 11, 65, 92
12, 1099360, Note_off_c, 11, 65, 64
12, 1099440, Note_on_c, 11, 67, 92
12, 1099840, Note_off_c, 11, 67, 64
12, 1099920, Note_on_c, 11, 69, 92
12, 1100320, Note_off_c, 11, 69, 64
12, 1100400, Note_on_c, 11, 65, 92
12, 1100800, Note_off_c, 11, 65, 64
12, 1100880, Note_on_c, 11, 67, 92
12, 1101280, Note_off_c, 11, 67, 64
12, 1101360, Note_on_c, 11, 69, 92
12, 1101760, Note_off_c, 11, 69, 64
12, 1101840, Note_on_c, 11, 65, 92
12, 1102240, Note_off_c, 11, 65, 64
12, 1102320, Note_on_c, 11, 67, 92
12, 1102720, Note_off_c, 11, 67, 64
12, 1102800, Note_on_c, 11, 69, 92
12, 1104120, Note_off_c, 11, 69, 64
12, 1104240, Note_on_c, 11, 67, 92
12, 1105080, Note_off_c, 11, 67, 64
12, 1105200, Note_on_c, 11, 65, 92
12, 1105600, Note_off_c, 11, 65, 64
12, 1105680, Note_on_c, 11, 64, 92
12, 1106520, Note_off_c, 11, 64, 64
12, 1106640, Note_on_c, 11, 62, 92
12, 1107040, Note_off_c, 11, 62, 64
12, 1107120, Note_on_c, 11, 60, 92
12, 1107960, Note_off_c, 11, 60, 64
12, 1108080, Note_on_c, 11, 72, 92
12, 1108480, Note_off_c, 11, 72, 64
12, 1108560, Note_on_c, 11, 69, 92
12, 1109880, Note_off_c, 11, 69, 64
12, 1110000, Note_on_c, 11, 77, 92
12, 1111320, Note_off_c, 11, 77, 64
12, 1111440, Note_on_c, 11, 77, 92
12, 1112760, Note_off_c, 11, 77, 64
12, 1112880, Note_on_c, 11, 76, 92
12, 1114200, Note_off_c, 11, 76, 64
12, 1114320, Note_on_c, 11, 77, 92
12, 1114720, Note_off_c, 11, 77, 64
12, 1120080, Note_on_c, 11, 69, 92
12, 1121400, Note_off_c, 11, 69, 64
12, 1121520, Note_on_c, 11, 65, 92
12, 1122840, Note_off_c, 11, 65, 64
12, 1122960, Note_on_c, 11, 72, 92
12, 1124280, Note_off_c, 11, 72, 64
12, 1124400, Note_on_c, 11, 76, 92
12, 1125720, Note_off_c, 11, 76, 64
12, 1125840, Note_on_c, 11, 69, 92
12, 1125840, Note_on_c, 11, 72, 92
12, 1126240, Note_off_c, 11, 72, 64
12, 1126240, Note_off_c, 11, 69, 64
12, 1127280, Note_on_c, 11, 57, 108
12, 1127360, Note_off_c, 11, 57, 64
12, 1127520, Note_on_c, 11, 60, 108
12, 1127600, Note_off_c, 11, 60, 64
12, 1127760, Note_on_c, 11, 65, 108
12, 1127840, Note_off_c, 11, 65, 64
12, 1128000, Note_on_c, 11, 69, 108
12, 1128080, Note_off_c, 11, 69, 64
12, 1128240, Note_on_c, 11, 72, 108
12, 1128640, Note_off_c, 11, 72, 64
12, 1130160, Note_on_c, 11, 67, 108
12, 1130160, Note_on_c, 11, 70, 108
12, 1130560, Note_off_c, 11, 70, 64
12, 1130560, Note_off_c, 11, 67, 64
12, 1130640, Note_on_c, 11, 67, 108
12, 1130640, Note_on_c, 11, 70, 108
12, 1131040, Note_off_c, 11, 70, 64
12, 1131040, Note_off_c, 11, 67, 64
12, 1131120, Note_on_c, 11, 67, 108
12, 1131120, Note_on_c, 11, 70, 108
12, 1131520, Note_off_c, 11, 70, 64
12, 1131520, Note_off_c, 11, 67, 64
12, 1131600, Note_on_c, 11, 65, 108
12, 1131600, Note_on_c, 11, 69, 108
12, 1132000, Note_off_c, 11, 69, 64
12, 1132000, Note_off_c, 11, 65, 64
12, 1133040, Note_on_c, 11, 57, 108
12, 1133120, Note_off_c, 11, 57, 64
12, 1133280, Note_on_c, 11, 60, 108
12, 1133360, Note_off_c, 11, 60, 64
12, 1133520, Note_on_c, 11, 65, 108
12, 1133600, Note_off_c, 11, 65, 64
12, 1133760, Note_on_c, 11, 69, 108
12, 1133840, Note_off_c, 11, 69, 64
12, 1134000, Note_on_c, 11, 72, 108
12, 1134400, Note_off_c, 11, 72, 64
12, 1135920, Note_on_c, 11, 67, 108
12, 1135920, Note_on_c, 11, 70, 108
12, 1136320, Note_off_c, 11, 70, 64
12, 1136320, Note_off_c, 11, 67, 64
12, 1136400, Note_on_c, 11, 67, 108
12, 1136400, Note_on_c, 11, 70, 108
12, 1136800, Note_off_c, 11, 70, 64
12, 1136800, Note_off_c, 11, 67, 64
12, 1136880, Note_on_c, 11, 67, 108
12, 1136880, Note_on_c, 11, 70, 108
12, 1137280, Note_off_c, 11, 70, 64
12, 1137280, Note_off_c, 11, 67, 64
12, 1141440, Note_on_c, 11, 68, 30
12, 1141520, Note_off_c, 11, 68, 64
12, 1141680, Note_on_c, 11, 70, 30
12, 1141760, Note_off_c, 11, 70, 64
12, 1141920, Note_on_c, 11, 68, 30
12, 1142000, Note_off_c, 11, 68, 64
12, 1142160, Note_on_c, 11, 66, 30
12, 1142240, Note_off_c, 11, 66, 64
12, 1142400, Note_on_c, 11, 65, 30
12, 1142480, Note_off_c, 11, 65, 64
12, 1142640, Note_on_c, 11, 63, 30
12, 1142720, Note_off_c, 11, 63, 64
12, 1142880, Note_on_c, 11, 61, 30
12, 1142960, Note_off_c, 11, 61, 64
12, 1143120, Note_on_c, 11, 60, 30
12, 1143200, Note_off_c, 11, 60, 64
12, 1143360, Note_on_c, 11, 61, 30
12, 1143440, Note_off_c, 11, 61, 64
12, 1143600, Note_on_c, 11, 63, 30
12, 1143680, Note_off_c, 11, 63, 64
12, 1143840, Note_on_c, 11, 65, 30
12, 1143920, Note_off_c, 11, 65, 64
12, 1144080, Note_on_c, 11, 66, 30
12, 1144160, Note_off_c, 11, 66, 64
12, 1144320, Note_on_c, 11, 68, 30
12, 1144400, Note_off_c, 11, 68, 64
12, 1144560, Note_on_c, 11, 66, 30
12, 1144640, Note_off_c, 11, 66, 64
12, 1144800, Note_on_c, 11, 65, 30
12, 1144880, Note_off_c, 11, 65, 64
12, 1145040, Note_on_c, 11, 63, 30
12, 1145120, Note_off_c, 11, 63, 64
12, 1145280, Note_on_c, 11, 65, 30
12, 1145360, Note_off_c, 11, 65, 64
12, 1145520, Note_on_c, 11, 63, 30
12, 1145600, Note_off_c, 11, 63, 64
12, 1145760, Note_on_c, 11, 61, 30
12, 1145840, Note_off_c, 11, 61, 64
12, 1146000, Note_on_c, 11, 60, 30
12, 1146080, Note_off_c, 11, 60, 64
12, 1146240, Note_on_c, 11, 63, 30
12, 1146320, Note_off_c, 11, 63, 64
12, 1146480, Note_on_c, 11, 61, 30
12, 1146560, Note_off_c, 11, 61, 64
12, 1146720, Note_on_c, 11, 68, 30
12, 1146800, Note_off_c, 11, 68, 64
12, 1146960, Note_on_c, 11, 63, 30
12, 1147040, Note_off_c, 11, 63, 64
12, 1147200, Note_on_c, 11, 65, 30
12, 1147280, Note_off_c, 11, 65, 64
12, 1147440, Note_on_c, 11, 63, 30
12, 1147520, Note_off_c, 11, 63, 64
12, 1147680, Note_on_c, 11, 61, 30
12, 1147760, Note_off_c, 11, 61, 64
12, 1147920, Note_on_c, 11, 60, 30
12, 1148000, Note_off_c, 11, 60, 64
12, 1148160, Note_on_c, 11, 63, 30
12, 1148240, Note_off_c, 11, 63, 64
12, 1148400, Note_on_c, 11, 61, 30
12, 1148480, Note_off_c, 11, 61, 64
12, 1148640, Note_on_c, 11, 68, 30
12, 1148720, Note_off_c, 11, 68, 64
12, 1148880, Note_on_c, 11, 62, 30
12, 1148960, Note_off_c, 11, 62, 64
12, 1149120, Note_on_c, 11, 68, 30
12, 1149200, Note_off_c, 11, 68, 64
12, 1149360, Note_on_c, 11, 71, 30
12, 1149440, Note_off_c, 11, 71, 64
12, 1149600, Note_on_c, 11, 70, 30
12, 1149680, Note_off_c, 11, 70, 64
12, 1149840, Note_on_c, 11, 68, 30
12, 1149920, Note_off_c, 11, 68, 64
12, 1150080, Note_on_c, 11, 66, 30
12, 1150160, Note_off_c, 11, 66, 64
12, 1150320, Note_on_c, 11, 65, 30
12, 1150400, Note_off_c, 11, 65, 64
12, 1150560, Note_on_c, 11, 63, 30
12, 1150640, Note_off_c, 11, 63, 64
12, 1150800, Note_on_c, 11, 62, 30
12, 1150920, Note_off_c, 11, 62, 64
12, 1151280, Note_on_c, 11, 62, 30
12, 1151360, Note_off_c, 11, 62, 64
12, 1151520, Note_on_c, 11, 63, 30
12, 1151600, Note_off_c, 11, 63, 64
12, 1151760, Note_on_c, 11, 65, 30
12, 1151840, Note_off_c, 11, 65, 64
12, 1152000, Note_on_c, 11, 66, 30
12, 1152080, Note_off_c, 11, 66, 64
12, 1152240, Note_on_c, 11, 68, 30
12, 1152320, Note_off_c, 11, 68, 64
12, 1152480, Note_on_c, 11, 70, 30
12, 1152560, Note_off_c, 11, 70, 64
12, 1152720, Note_on_c, 11, 71, 30
12, 1153120, Note_off_c, 11, 71, 64
12, 1162560, Note_on_c, 11, 70, 45
12, 1162640, Note_off_c, 11, 70, 64
12, 1162800, Note_on_c, 11, 71, 45
12, 1162880, Note_off_c, 11, 71, 64
12, 1163040, Note_on_c, 11, 70, 45
12, 1163120, Note_off_c, 11, 70, 64
12, 1163280, Note_on_c, 11, 68, 45
12, 1163360, Note_off_c, 11, 68, 64
12, 1163520, Note_on_c, 11, 66, 45
12, 1163600, Note_off_c, 11, 66, 64
12, 1163760, Note_on_c, 11, 65, 45
12, 1163840, Note_off_c, 11, 65, 64
12, 1164000, Note_on_c, 11, 63, 45
12, 1164080, Note_off_c, 11, 63, 64
12, 1164240, Note_on_c, 11, 62, 45
12, 1164320, Note_off_c, 11, 62, 64
12, 1164480, Note_on_c, 11, 63, 45
12, 1164560, Note_off_c, 11, 63, 64
12, 1164720, Note_on_c, 11, 65, 45
12, 1164800, Note_off_c, 11, 65, 64
12, 1164960, Note_on_c, 11, 66, 45
12, 1165040, Note_off_c, 11, 66, 64
12, 1165200, Note_on_c, 11, 68, 45
12, 1165280, Note_off_c, 11, 68, 64
12, 1165440, Note_on_c, 11, 70, 45
12, 1165520, Note_off_c, 11, 70, 64
12, 1165680, Note_on_c, 11, 68, 45
12, 1165760, Note_off_c, 11, 68, 64
12, 1165920, Note_on_c, 11, 66, 45
12, 1166000, Note_off_c, 11, 66, 64
12, 1166160, Note_on_c, 11, 65, 45
12, 1166240, Note_off_c, 11, 65, 64
12, 1166400, Note_on_c, 11, 66, 45
12, 1166480, Note_off_c, 11, 66, 64
12, 1166640, Note_on_c, 11, 65, 45
12, 1166720, Note_off_c, 11, 65, 64
12, 1166880, Note_on_c, 11, 63, 45
12, 1166960, Note_off_c, 11, 63, 64
12, 1167120, Note_on_c, 11, 62, 45
12, 1167200, Note_off_c, 11, 62, 64
12, 1167360, Note_on_c, 11, 65, 45
12, 1167440, Note_off_c, 11, 65, 64
12, 1167600, Note_on_c, 11, 63, 45
12, 1167680, Note_off_c, 11, 63, 64
12, 1167840, Note_on_c, 11, 70, 45
12, 1167920, Note_off_c, 11, 70, 64
12, 1168080, Note_on_c, 11, 65, 45
12, 1168160, Note_off_c, 11, 65, 64
12, 1168320, Note_on_c, 11, 66, 45
12, 1168400, Note_off_c, 11, 66, 64
12, 1168560, Note_on_c, 11, 65, 45
12, 1168640, Note_off_c, 11, 65, 64
12, 1168800, Note_on_c, 11, 63, 45
12, 1168880, Note_off_c, 11, 63, 64
12, 1169040, Note_on_c, 11, 62, 45
12, 1169120, Note_off_c, 11, 62, 64
12, 1169280, Note_on_c, 11, 65, 45
12, 1169360, Note_off_c, 11, 65, 64
12, 1169520, Note_on_c, 11, 63, 45
12, 1169600, Note_off_c, 11, 63, 64
12, 1169760, Note_on_c, 11, 70, 45
12, 1169840, Note_off_c, 11, 70, 64
12, 1170000, Note_on_c, 11, 64, 45
12, 1170080, Note_off_c, 11, 64, 64
12, 1170240, Note_on_c, 11, 70, 45
12, 1170320, Note_off_c, 11, 70, 64
12, 1170480, Note_on_c, 11, 73, 45
12, 1170560, Note_off_c, 11, 73, 64
12, 1170720, Note_on_c, 11, 72, 45
12, 1170800, Note_off_c, 11, 72, 64
12, 1170960, Note_on_c, 11, 70, 45
12, 1171040, Note_off_c, 11, 70, 64
12, 1171200, Note_on_c, 11, 68, 45
12, 1171280, Note_off_c, 11, 68, 64
12, 1171440, Note_on_c, 11, 67, 45
12, 1171520, Note_off_c, 11, 67, 64
12, 1171680, Note_on_c, 11, 65, 45
12, 1171760, Note_off_c, 11, 65, 64
12, 1171920, Note_on_c, 11, 64, 45
12, 1172320, Note_off_c, 11, 64, 64
12, 1172400, Note_on_c, 11, 64, 45
12, 1172480, Note_off_c, 11, 64, 64
12, 1172640, Note_on_c, 11, 65, 45
12, 1172720, Note_off_c, 11, 65, 64
12, 1172880, Note_on_c, 11, 67, 45
12, 1172960, Note_off_c, 11, 67, 64
12, 1173120, Note_on_c, 11, 68, 45
12, 1173200, Note_off_c, 11, 68, 64
12, 1173360, Note_on_c, 11, 70, 45
12, 1173440, Note_off_c, 11, 70, 64
12, 1173600, Note_on_c, 11, 72, 45
12, 1173680, Note_off_c, 11, 72, 64
12, 1173840, Note_on_c, 11, 73, 45
12, 1174240, Note_off_c, 11, 73, 64
12, 1177680, Note_on_c, 11, 68, 92
12, 1177795, Note_off_c, 11, 68, 64
12, 1177800, Note_on_c, 11, 72, 92
12, 1177800, Note_on_c, 11, 80, 92
12, 1177915, Note_off_c, 11, 80, 64
12, 1177915, Note_off_c, 11, 72, 64
12, 1177920, Note_on_c, 11, 72, 92
12, 1177920, Note_on_c, 11, 80, 92
12, 1178035, Note_off_c, 11, 80, 64
12, 1178035, Note_off_c, 11, 72, 64
12, 1178040, Note_on_c, 11, 72, 92
12, 1178040, Note_on_c, 11, 80, 92
12, 1178155, Note_off_c, 11, 80, 64
12, 1178155, Note_off_c, 11, 72, 64
12, 1178160, Note_on_c, 11, 72, 92
12, 1178160, Note_on_c, 11, 80, 92
12, 1178275, Note_off_c, 11, 80, 64
12, 1178275, Note_off_c, 11, 72, 64
12, 1178280, Note_on_c, 11, 72, 92
12, 1178280, Note_on_c, 11, 80, 92
12, 1178395, Note_off_c, 11, 80, 64
12, 1178395, Note_off_c, 11, 72, 64
12, 1178400, Note_on_c, 11, 72, 92
12, 1178400, Note_on_c, 11, 80, 92
12, 1178515, Note_off_c, 11, 80, 64
12, 1178515, Note_off_c, 11, 72, 64
12, 1178520, Note_on_c, 11, 72, 92
12, 1178520, Note_on_c, 11, 80, 92
12, 1178635, Note_off_c, 11, 80, 64
12, 1178635, Note_off_c, 11, 72, 64
12, 1178640, Note_on_c, 11, 72, 92
12, 1178640, Note_on_c, 11, 80, 92
12, 1178755, Note_off_c, 11, 80, 64
12, 1178755, Note_off_c, 11, 72, 64
12, 1178760, Note_on_c, 11, 72, 92
12, 1178760, Note_on_c, 11, 80, 92
12, 1178875, Note_off_c, 11, 80, 64
12, 1178875, Note_off_c, 11, 72, 64
12, 1178880, Note_on_c, 11, 72, 92
12, 1178880, Note_on_c, 11, 80, 92
12, 1178995, Note_off_c, 11, 80, 64
12, 1178995, Note_off_c, 11, 72, 64
12, 1179000, Note_on_c, 11, 72, 92
12, 1179000, Note_on_c, 11, 80, 92
12, 1179115, Note_off_c, 11, 80, 64
12, 1179115, Note_off_c, 11, 72, 64
12, 1179120, Note_on_c, 11, 72, 92
12, 1179120, Note_on_c, 11, 80, 92
12, 1179235, Note_off_c, 11, 80, 64
12, 1179235, Note_off_c, 11, 72, 64
12, 1179240, Note_on_c, 11, 72, 92
12, 1179240, Note_on_c, 11, 80, 92
12, 1179355, Note_off_c, 11, 80, 64
12, 1179355, Note_off_c, 11, 72, 64
12, 1179360, Note_on_c, 11, 72, 92
12, 1179360, Note_on_c, 11, 80, 92
12, 1179475, Note_off_c, 11, 80, 64
12, 1179475, Note_off_c, 11, 72, 64
12, 1179480, Note_on_c, 11, 72, 92
12, 1179480, Note_on_c, 11, 80, 92
12, 1179595, Note_off_c, 11, 80, 64
12, 1179595, Note_off_c, 11, 72, 64
12, 1179600, Note_on_c, 11, 72, 92
12, 1179600, Note_on_c, 11, 80, 92
12, 1179715, Note_off_c, 11, 80, 64
12, 1179715, Note_off_c, 11, 72, 64
12, 1179720, Note_on_c, 11, 72, 92
12, 1179720, Note_on_c, 11, 80, 92
12, 1179835, Note_off_c, 11, 80, 64
12, 1179835, Note_off_c, 11, 72, 64
12, 1179840, Note_on_c, 11, 72, 92
12, 1179840, Note_on_c, 11, 80, 92
12, 1179955, Note_off_c, 11, 80, 64
12, 1179955, Note_off_c, 11, 72, 64
12, 1179960, Note_on_c, 11, 72, 92
12, 1179960, Note_on_c, 11, 80, 92
12, 1180075, Note_off_c, 11, 80, 64
12, 1180075, Note_off_c, 11, 72, 64
12, 1180080, Note_on_c, 11, 72, 92
12, 1180080, Note_on_c, 11, 80, 92
12, 1180195, Note_off_c, 11, 80, 64
12, 1180195, Note_off_c, 11, 72, 64
12, 1180200, Note_on_c, 11, 72, 92
12, 1180200, Note_on_c, 11, 80, 92
12, 1180315, Note_off_c, 11, 80, 64
12, 1180315, Note_off_c, 11, 72, 64
12, 1180320, Note_on_c, 11, 72, 92
12, 1180320, Note_on_c, 11, 80, 92
12, 1180435, Note_off_c, 11, 80, 64
12, 1180435, Note_off_c, 11, 72, 64
12, 1180440, Note_on_c, 11, 72, 92
12, 1180440, Note_on_c, 11, 80, 92
12, 1180555, Note_off_c, 11, 80, 64
12, 1180555, Note_off_c, 11, 72, 64
12, 1180560, Note_on_c, 11, 72, 92
12, 1180560, Note_on_c, 11, 80, 92
12, 1180675, Note_off_c, 11, 80, 64
12, 1180675, Note_off_c, 11, 72, 64
12, 1180680, Note_on_c, 11, 72, 92
12, 1180680, Note_on_c, 11, 80, 92
12, 1180795, Note_off_c, 11, 80, 64
12, 1180795, Note_off_c, 11, 72, 64
12, 1180800, Note_on_c, 11, 72, 92
12, 1180800, Note_on_c, 11, 80, 92
12, 1180915, Note_off_c, 11, 80, 64
12, 1180915, Note_off_c, 11, 72, 64
12, 1180920, Note_on_c, 11, 72, 92
12, 1180920, Note_on_c, 11, 80, 92
12, 1181035, Note_off_c, 11, 80, 64
12, 1181035, Note_off_c, 11, 72, 64
12, 1181040, Note_on_c, 11, 72, 92
12, 1181040, Note_on_c, 11, 80, 92
12, 1181155, Note_off_c, 11, 80, 64
12, 1181155, Note_off_c, 11, 72, 64
12, 1181160, Note_on_c, 11, 72, 92
12, 1181160, Note_on_c, 11, 80, 92
12, 1181275, Note_off_c, 11, 80, 64
12, 1181275, Note_off_c, 11, 72, 64
12, 1181280, Note_on_c, 11, 72, 92
12, 1181280, Note_on_c, 11, 80, 92
12, 1181395, Note_off_c, 11, 80, 64
12, 1181395, Note_off_c, 11, 72, 64
12, 1181400, Note_on_c, 11, 72, 92
12, 1181400, Note_on_c, 11, 80, 92
12, 1181515, Note_off_c, 11, 80, 64
12, 1181515, Note_off_c, 11, 72, 64
12, 1181520, Note_on_c, 11, 72, 92
12, 1181520, Note_on_c, 11, 80, 92
12, 1181635, Note_off_c, 11, 80, 64
12, 1181635, Note_off_c, 11, 72, 64
12, 1181640, Note_on_c, 11, 72, 92
12, 1181640, Note_on_c, 11, 80, 92
12, 1181755, Note_off_c, 11, 80, 64
12, 1181755, Note_off_c, 11, 72, 64
12, 1181760, Note_on_c, 11, 72, 92
12, 1181760, Note_on_c, 11, 80, 92
12, 1181875, Note_off_c, 11, 80, 64
12, 1181875, Note_off_c, 11, 72, 64
12, 1181880, Note_on_c, 11, 72, 92
12, 1181880, Note_on_c, 11, 80, 92
12, 1181995, Note_off_c, 11, 80, 64
12, 1181995, Note_off_c, 11, 72, 64
12, 1182000, Note_on_c, 11, 72, 92
12, 1182000, Note_on_c, 11, 80, 92
12, 1182115, Note_off_c, 11, 80, 64
12, 1182115, Note_off_c, 11, 72, 64
12, 1182120, Note_on_c, 11, 72, 92
12, 1182120, Note_on_c, 11, 80, 92
12, 1182235, Note_off_c, 11, 80, 64
12, 1182235, Note_off_c, 11, 72, 64
12, 1182240, Note_on_c, 11, 72, 92
12, 1182240, Note_on_c, 11, 80, 92
12, 1182355, Note_off_c, 11, 80, 64
12, 1182355, Note_off_c, 11, 72, 64
12, 1182360, Note_on_c, 11, 72, 92
12, 1182360, Note_on_c, 11, 80, 92
12, 1182475, Note_off_c, 11, 80, 64
12, 1182475, Note_off_c, 11, 72, 64
12, 1182480, Note_on_c, 11, 72, 92
12, 1182480, Note_on_c, 11, 80, 92
12, 1182595, Note_off_c, 11, 80, 64
12, 1182595, Note_off_c, 11, 72, 64
12, 1182600, Note_on_c, 11, 72, 92
12, 1182600, Note_on_c, 11, 80, 92
12, 1182715, Note_off_c, 11, 80, 64
12, 1182715, Note_off_c, 11, 72, 64
12, 1182720, Note_on_c, 11, 72, 92
12, 1182720, Note_on_c, 11, 80, 92
12, 1182835, Note_off_c, 11, 80, 64
12, 1182835, Note_off_c, 11, 72, 64
12, 1182840, Note_on_c, 11, 72, 92
12, 1182840, Note_on_c, 11, 80, 92
12, 1182955, Note_off_c, 11, 80, 64
12, 1182955, Note_off_c, 11, 72, 64
12, 1182960, Note_on_c, 11, 72, 92
12, 1182960, Note_on_c, 11, 80, 92
12, 1183075, Note_off_c, 11, 80, 64
12, 1183075, Note_off_c, 11, 72, 64
12, 1183080, Note_on_c, 11, 72, 92
12, 1183080, Note_on_c, 11, 80, 92
12, 1183195, Note_off_c, 11, 80, 64
12, 1183195, Note_off_c, 11, 72, 64
12, 1183200, Note_on_c, 11, 72, 92
12, 1183200, Note_on_c, 11, 80, 92
12, 1183315, Note_off_c, 11, 80, 64
12, 1183315, Note_off_c, 11, 72, 64
12, 1183320, Note_on_c, 11, 72, 92
12, 1183320, Note_on_c, 11, 80, 92
12, 1183435, Note_off_c, 11, 80, 64
12, 1183435, Note_off_c, 11, 72, 64
12, 1183440, Note_on_c, 11, 72, 92
12, 1183440, Note_on_c, 11, 80, 92
12, 1183555, Note_off_c, 11, 80, 64
12, 1183555, Note_off_c, 11, 72, 64
12, 1183560, Note_on_c, 11, 68, 92
12, 1183675, Note_off_c, 11, 68, 64
12, 1183680, Note_on_c, 11, 68, 92
12, 1183795, Note_off_c, 11, 68, 64
12, 1183800, Note_on_c, 11, 68, 92
12, 1183915, Note_off_c, 11, 68, 64
12, 1183920, Note_on_c, 11, 68, 92
12, 1184035, Note_off_c, 11, 68, 64
12, 1184040, Note_on_c, 11, 68, 92
12, 1184155, Note_off_c, 11, 68, 64
12, 1184160, Note_on_c, 11, 68, 92
12, 1184275, Note_off_c, 11, 68, 64
12, 1184280, Note_on_c, 11, 68, 92
12, 1184395, Note_off_c, 11, 68, 64
12, 1184400, Note_on_c, 11, 68, 92
12, 1184515, Note_off_c, 11, 68, 64
12, 1184520, Note_on_c, 11, 68, 92
12, 1184635, Note_off_c, 11, 68, 64
12, 1184640, Note_on_c, 11, 68, 92
12, 1184755, Note_off_c, 11, 68, 64
12, 1184760, Note_on_c, 11, 68, 92
12, 1184875, Note_off_c, 11, 68, 64
12, 1184880, Note_on_c, 11, 68, 92
12, 1184995, Note_off_c, 11, 68, 64
12, 1185000, Note_on_c, 11, 68, 92
12, 1185115, Note_off_c, 11, 68, 64
12, 1185120, Note_on_c, 11, 68, 92
12, 1185235, Note_off_c, 11, 68, 64
12, 1185240, Note_on_c, 11, 68, 92
12, 1185355, Note_off_c, 11, 68, 64
12, 1185360, Note_on_c, 11, 64, 92
12, 1185360, Note_on_c, 11, 76, 92
12, 1185475, Note_off_c, 11, 76, 64
12, 1185475, Note_off_c, 11, 64, 64
12, 1185480, Note_on_c, 11, 64, 92
12, 1185480, Note_on_c, 11, 76, 92
12, 1185595, Note_off_c, 11, 76, 64
12, 1185595, Note_off_c, 11, 64, 64
12, 1185600, Note_on_c, 11, 64, 92
12, 1185600, Note_on_c, 11, 76, 92
12, 1185715, Note_off_c, 11, 76, 64
12, 1185715, Note_off_c, 11, 64, 64
12, 1185720, Note_on_c, 11, 64, 92
12, 1185720, Note_on_c, 11, 76, 92
12, 1185835, Note_off_c, 11, 76, 64
12, 1185835, Note_off_c, 11, 64, 64
12, 1185840, Note_on_c, 11, 64, 92
12, 1185840, Note_on_c, 11, 76, 92
12, 1185955, Note_off_c, 11, 76, 64
12, 1185955, Note_off_c, 11, 64, 64
12, 1185960, Note_on_c, 11, 64, 92
12, 1185960, Note_on_c, 11, 76, 92
12, 1186075, Note_off_c, 11, 76, 64
12, 1186075, Note_off_c, 11, 64, 64
12, 1186080, Note_on_c, 11, 64, 92
12, 1186080, Note_on_c, 11, 76, 92
12, 1186195, Note_off_c, 11, 76, 64
12, 1186195, Note_off_c, 11, 64, 64
12, 1186200, Note_on_c, 11, 64, 92
12, 1186200, Note_on_c, 11, 76, 92
12, 1186315, Note_off_c, 11, 76, 64
12, 1186315, Note_off_c, 11, 64, 64
12, 1186320, Note_on_c, 11, 64, 92
12, 1186320, Note_on_c, 11, 76, 92
12, 1186435, Note_off_c, 11, 76, 64
12, 1186435, Note_off_c, 11, 64, 64
12, 1186440, Note_on_c, 11, 64, 92
12, 1186440, Note_on_c, 11, 76, 92
12, 1186555, Note_off_c, 11, 76, 64
12, 1186555, Note_off_c, 11, 64, 64
12, 1186560, Note_on_c, 11, 64, 92
12, 1186560, Note_on_c, 11, 76, 92
12, 1186675, Note_off_c, 11, 76, 64
12, 1186675, Note_off_c, 11, 64, 64
12, 1186680, Note_on_c, 11, 64, 92
12, 1186680, Note_on_c, 11, 76, 92
12, 1186795, Note_off_c, 11, 76, 64
12, 1186795, Note_off_c, 11, 64, 64
12, 1186800, Note_on_c, 11, 64, 92
12, 1186800, Note_on_c, 11, 76, 92
12, 1186915, Note_off_c, 11, 76, 64
12, 1186915, Note_off_c, 11, 64, 64
12, 1186920, Note_on_c, 11, 64, 92
12, 1186920, Note_on_c, 11, 76, 92
12, 1187035, Note_off_c, 11, 76, 64
12, 1187035, Note_off_c, 11, 64, 64
12, 1187040, Note_on_c, 11, 64, 92
12, 1187040, Note_on_c, 11, 76, 92
12, 1187155, Note_off_c, 11, 76, 64
12, 1187155, Note_off_c, 11, 64, 64
12, 1187160, Note_on_c, 11, 64, 92
12, 1187160, Note_on_c, 11, 76, 92
12, 1187275, Note_off_c, 11, 76, 64
12, 1187275, Note_off_c, 11, 64, 64
12, 1187280, Note_on_c, 11, 76, 92
12, 1187395, Note_off_c, 11, 76, 64
12, 1187400, Note_on_c, 11, 76, 92
12, 1187400, Note_on_c, 11, 85, 92
12, 1187515, Note_off_c, 11, 85, 64
12, 1187515, Note_off_c, 11, 76, 64
12, 1187520, Note_on_c, 11, 76, 92
12, 1187520, Note_on_c, 11, 85, 92
12, 1187635, Note_off_c, 11, 85, 64
12, 1187635, Note_off_c, 11, 76, 64
12, 1187640, Note_on_c, 11, 76, 92
12, 1187640, Note_on_c, 11, 85, 92
12, 1187755, Note_off_c, 11, 85, 64
12, 1187755, Note_off_c, 11, 76, 64
12, 1187760, Note_on_c, 11, 76, 92
12, 1187760, Note_on_c, 11, 85, 92
12, 1187875, Note_off_c, 11, 85, 64
12, 1187875, Note_off_c, 11, 76, 64
12, 1187880, Note_on_c, 11, 76, 92
12, 1187880, Note_on_c, 11, 85, 92
12, 1187995, Note_off_c, 11, 85, 64
12, 1187995, Note_off_c, 11, 76, 64
12, 1188000, Note_on_c, 11, 76, 92
12, 1188000, Note_on_c, 11, 85, 92
12, 1188115, Note_off_c, 11, 85, 64
12, 1188115, Note_off_c, 11, 76, 64
12, 1188120, Note_on_c, 11, 76, 92
12, 1188120, Note_on_c, 11, 85, 92
12, 1188235, Note_off_c, 11, 85, 64
12, 1188235, Note_off_c, 11, 76, 64
12, 1188240, Note_on_c, 11, 76, 92
12, 1188240, Note_on_c, 11, 85, 92
12, 1188355, Note_off_c, 11, 85, 64
12, 1188355, Note_off_c, 11, 76, 64
12, 1188360, Note_on_c, 11, 76, 92
12, 1188360, Note_on_c, 11, 85, 92
12, 1188475, Note_off_c, 11, 85, 64
12, 1188475, Note_off_c, 11, 76, 64
12, 1188480, Note_on_c, 11, 76, 92
12, 1188480, Note_on_c, 11, 85, 92
12, 1188595, Note_off_c, 11, 85, 64
12, 1188595, Note_off_c, 11, 76, 64
12, 1188600, Note_on_c, 11, 76, 92
12, 1188600, Note_on_c, 11, 85, 92
12, 1188715, Note_off_c, 11, 85, 64
12, 1188715, Note_off_c, 11, 76, 64
12, 1188720, Note_on_c, 11, 76, 92
12, 1188720, Note_on_c, 11, 85, 92
12, 1188835, Note_off_c, 11, 85, 64
12, 1188835, Note_off_c, 11, 76, 64
12, 1188840, Note_on_c, 11, 76, 92
12, 1188840, Note_on_c, 11, 85, 92
12, 1188955, Note_off_c, 11, 85, 64
12, 1188955, Note_off_c, 11, 76, 64
12, 1188960, Note_on_c, 11, 76, 92
12, 1188960, Note_on_c, 11, 85, 92
12, 1189075, Note_off_c, 11, 85, 64
12, 1189075, Note_off_c, 11, 76, 64
12, 1189080, Note_on_c, 11, 76, 92
12, 1189080, Note_on_c, 11, 85, 92
12, 1189195, Note_off_c, 11, 85, 64
12, 1189195, Note_off_c, 11, 76, 64
12, 1189200, Note_on_c, 11, 76, 92
12, 1189200, Note_on_c, 11, 85, 92
12, 1189315, Note_off_c, 11, 85, 64
12, 1189315, Note_off_c, 11, 76, 64
12, 1189320, Note_on_c, 11, 76, 92
12, 1189320, Note_on_c, 11, 85, 92
12, 1189435, Note_off_c, 11, 85, 64
12, 1189435, Note_off_c, 11, 76, 64
12, 1189440, Note_on_c, 11, 76, 92
12, 1189440, Note_on_c, 11, 85, 92
12, 1189555, Note_off_c, 11, 85, 64
12, 1189555, Note_off_c, 11, 76, 64
12, 1189560, Note_on_c, 11, 76, 92
12, 1189560, Note_on_c, 11, 85, 92
12, 1189675, Note_off_c, 11, 85, 64
12, 1189675, Note_off_c, 11, 76, 64
12, 1189680, Note_on_c, 11, 76, 92
12, 1189680, Note_on_c, 11, 85, 92
12, 1189795, Note_off_c, 11, 85, 64
12, 1189795, Note_off_c, 11, 76, 64
12, 1189800, Note_on_c, 11, 76, 92
12, 1189800, Note_on_c, 11, 85, 92
12, 1189915, Note_off_c, 11, 85, 64
12, 1189915, Note_off_c, 11, 76, 64
12, 1189920, Note_on_c, 11, 76, 92
12, 1189920, Note_on_c, 11, 85, 92
12, 1190035, Note_off_c, 11, 85, 64
12, 1190035, Note_off_c, 11, 76, 64
12, 1190040, Note_on_c, 11, 76, 92
12, 1190040, Note_on_c, 11, 85, 92
12, 1190155, Note_off_c, 11, 85, 64
12, 1190155, Note_off_c, 11, 76, 64
12, 1190160, Note_on_c, 11, 76, 92
12, 1190160, Note_on_c, 11, 85, 92
12, 1190275, Note_off_c, 11, 85, 64
12, 1190275, Note_off_c, 11, 76, 64
12, 1190280, Note_on_c, 11, 76, 92
12, 1190280, Note_on_c, 11, 85, 92
12, 1190395, Note_off_c, 11, 85, 64
12, 1190395, Note_off_c, 11, 76, 64
12, 1190400, Note_on_c, 11, 76, 92
12, 1190400, Note_on_c, 11, 85, 92
12, 1190515, Note_off_c, 11, 85, 64
12, 1190515, Note_off_c, 11, 76, 64
12, 1190520, Note_on_c, 11, 76, 92
12, 1190520, Note_on_c, 11, 85, 92
12, 1190635, Note_off_c, 11, 85, 64
12, 1190635, Note_off_c, 11, 76, 64
12, 1190640, Note_on_c, 11, 76, 92
12, 1190640, Note_on_c, 11, 85, 92
12, 1190755, Note_off_c, 11, 85, 64
12, 1190755, Note_off_c, 11, 76, 64
12, 1190760, Note_on_c, 11, 76, 92
12, 1190760, Note_on_c, 11, 85, 92
12, 1190875, Note_off_c, 11, 85, 64
12, 1190875, Note_off_c, 11, 76, 64
12, 1190880, Note_on_c, 11, 76, 92
12, 1190880, Note_on_c, 11, 85, 92
12, 1190995, Note_off_c, 11, 85, 64
12, 1190995, Note_off_c, 11, 76, 64
12, 1191000, Note_on_c, 11, 76, 92
12, 1191000, Note_on_c, 11, 85, 92
12, 1191115, Note_off_c, 11, 85, 64
12, 1191115, Note_off_c, 11, 76, 64
12, 1191120, Note_on_c, 11, 76, 92
12, 1191120, Note_on_c, 11, 85, 92
12, 1191235, Note_off_c, 11, 85, 64
12, 1191235, Note_off_c, 11, 76, 64
12, 1191240, Note_on_c, 11, 76, 92
12, 1191240, Note_on_c, 11, 85, 92
12, 1191355, Note_off_c, 11, 85, 64
12, 1191355, Note_off_c, 11, 76, 64
12, 1191360, Note_on_c, 11, 76, 92
12, 1191360, Note_on_c, 11, 85, 92
12, 1191475, Note_off_c, 11, 85, 64
12, 1191475, Note_off_c, 11, 76, 64
12, 1191480, Note_on_c, 11, 76, 92
12, 1191480, Note_on_c, 11, 85, 92
12, 1191595, Note_off_c, 11, 85, 64
12, 1191595, Note_off_c, 11, 76, 64
12, 1191600, Note_on_c, 11, 76, 92
12, 1191600, Note_on_c, 11, 85, 92
12, 1191715, Note_off_c, 11, 85, 64
12, 1191715, Note_off_c, 11, 76, 64
12, 1191720, Note_on_c, 11, 76, 92
12, 1191720, Note_on_c, 11, 85, 92
12, 1191835, Note_off_c, 11, 85, 64
12, 1191835, Note_off_c, 11, 76, 64
12, 1191840, Note_on_c, 11, 76, 92
12, 1191840, Note_on_c, 11, 85, 92
12, 1191955, Note_off_c, 11, 85, 64
12, 1191955, Note_off_c, 11, 76, 64
12, 1191960, Note_on_c, 11, 76, 92
12, 1191960, Note_on_c, 11, 85, 92
12, 1192075, Note_off_c, 11, 85, 64
12, 1192075, Note_off_c, 11, 76, 64
12, 1192080, Note_on_c, 11, 76, 92
12, 1192080, Note_on_c, 11, 85, 92
12, 1192195, Note_off_c, 11, 85, 64
12, 1192195, Note_off_c, 11, 76, 64
12, 1192200, Note_on_c, 11, 76, 92
12, 1192200, Note_on_c, 11, 85, 92
12, 1192315, Note_off_c, 11, 85, 64
12, 1192315, Note_off_c, 11, 76, 64
12, 1192320, Note_on_c, 11, 76, 92
12, 1192320, Note_on_c, 11, 85, 92
12, 1192435, Note_off_c, 11, 85, 64
12, 1192435, Note_off_c, 11, 76, 64
12, 1192440, Note_on_c, 11, 76, 92
12, 1192440, Note_on_c, 11, 85, 92
12, 1192555, Note_off_c, 11, 85, 64
12, 1192555, Note_off_c, 11, 76, 64
12, 1192560, Note_on_c, 11, 76, 92
12, 1192560, Note_on_c, 11, 85, 92
12, 1192675, Note_off_c, 11, 85, 64
12, 1192675, Note_off_c, 11, 76, 64
12, 1192680, Note_on_c, 11, 76, 92
12, 1192680, Note_on_c, 11, 85, 92
12, 1192795, Note_off_c, 11, 85, 64
12, 1192795, Note_off_c, 11, 76, 64
12, 1192800, Note_on_c, 11, 76, 92
12, 1192800, Note_on_c, 11, 85, 92
12, 1192915, Note_off_c, 11, 85, 64
12, 1192915, Note_off_c, 11, 76, 64
12, 1192920, Note_on_c, 11, 76, 92
12, 1192920, Note_on_c, 11, 85, 92
12, 1193035, Note_off_c, 11, 85, 64
12, 1193035, Note_off_c, 11, 76, 64
12, 1193040, Note_on_c, 11, 75, 92
12, 1193040, Note_on_c, 11, 84, 92
12, 1193155, Note_off_c, 11, 84, 64
12, 1193155, Note_off_c, 11, 75, 64
12, 1193160, Note_on_c, 11, 75, 92
12, 1193160, Note_on_c, 11, 84, 92
12, 1193275, Note_off_c, 11, 84, 64
12, 1193275, Note_off_c, 11, 75, 64
12, 1193280, Note_on_c, 11, 75, 92
12, 1193280, Note_on_c, 11, 84, 92
12, 1193395, Note_off_c, 11, 84, 64
12, 1193395, Note_off_c, 11, 75, 64
12, 1193400, Note_on_c, 11, 75, 92
12, 1193400, Note_on_c, 11, 84, 92
12, 1193515, Note_off_c, 11, 84, 64
12, 1193515, Note_off_c, 11, 75, 64
12, 1193520, Note_on_c, 11, 75, 92
12, 1193520, Note_on_c, 11, 84, 92
12, 1193635, Note_off_c, 11, 84, 64
12, 1193635, Note_off_c, 11, 75, 64
12, 1193640, Note_on_c, 11, 75, 92
12, 1193640, Note_on_c, 11, 84, 92
12, 1193755, Note_off_c, 11, 84, 64
12, 1193755, Note_off_c, 11, 75, 64
12, 1193760, Note_on_c, 11, 75, 92
12, 1193760, Note_on_c, 11, 84, 92
12, 1193875, Note_off_c, 11, 84, 64
12, 1193875, Note_off_c, 11, 75, 64
12, 1193880, Note_on_c, 11, 75, 92
12, 1193880, Note_on_c, 11, 84, 92
12, 1193995, Note_off_c, 11, 84, 64
12, 1193995, Note_off_c, 11, 75, 64
12, 1194000, Note_on_c, 11, 75, 92
12, 1194000, Note_on_c, 11, 84, 92
12, 1194115, Note_off_c, 11, 84, 64
12, 1194115, Note_off_c, 11, 75, 64
12, 1194120, Note_on_c, 11, 75, 92
12, 1194120, Note_on_c, 11, 87, 92
12, 1194235, Note_off_c, 11, 87, 64
12, 1194235, Note_off_c, 11, 75, 64
12, 1194240, Note_on_c, 11, 75, 92
12, 1194240, Note_on_c, 11, 87, 92
12, 1194355, Note_off_c, 11, 87, 64
12, 1194355, Note_off_c, 11, 75, 64
12, 1194360, Note_on_c, 11, 75, 92
12, 1194360, Note_on_c, 11, 87, 92
12, 1194475, Note_off_c, 11, 87, 64
12, 1194475, Note_off_c, 11, 75, 64
12, 1194480, Note_on_c, 11, 75, 92
12, 1194480, Note_on_c, 11, 87, 92
12, 1194595, Note_off_c, 11, 87, 64
12, 1194595, Note_off_c, 11, 75, 64
12, 1194600, Note_on_c, 11, 75, 92
12, 1194600, Note_on_c, 11, 87, 92
12, 1194715, Note_off_c, 11, 87, 64
12, 1194715, Note_off_c, 11, 75, 64
12, 1194720, Note_on_c, 11, 75, 92
12, 1194720, Note_on_c, 11, 87, 92
12, 1194835, Note_off_c, 11, 87, 64
12, 1194835, Note_off_c, 11, 75, 64
12, 1194840, Note_on_c, 11, 75, 92
12, 1194840, Note_on_c, 11, 87, 92
12, 1194955, Note_off_c, 11, 87, 64
12, 1194955, Note_off_c, 11, 75, 64
12, 1194960, Note_on_c, 11, 75, 92
12, 1194960, Note_on_c, 11, 87, 92
12, 1195075, Note_off_c, 11, 87, 64
12, 1195075, Note_off_c, 11, 75, 64
12, 1195080, Note_on_c, 11, 75, 92
12, 1195080, Note_on_c, 11, 87, 92
12, 1195195, Note_off_c, 11, 87, 64
12, 1195195, Note_off_c, 11, 75, 64
12, 1195200, Note_on_c, 11, 75, 92
12, 1195200, Note_on_c, 11, 87, 92
12, 1195315, Note_off_c, 11, 87, 64
12, 1195315, Note_off_c, 11, 75, 64
12, 1195320, Note_on_c, 11, 75, 92
12, 1195320, Note_on_c, 11, 87, 92
12, 1195435, Note_off_c, 11, 87, 64
12, 1195435, Note_off_c, 11, 75, 64
12, 1195440, Note_on_c, 11, 75, 92
12, 1195440, Note_on_c, 11, 87, 92
12, 1195555, Note_off_c, 11, 87, 64
12, 1195555, Note_off_c, 11, 75, 64
12, 1195560, Note_on_c, 11, 75, 92
12, 1195560, Note_on_c, 11, 87, 92
12, 1195675, Note_off_c, 11, 87, 64
12, 1195675, Note_off_c, 11, 75, 64
12, 1195680, Note_on_c, 11, 75, 92
12, 1195680, Note_on_c, 11, 87, 92
12, 1195795, Note_off_c, 11, 87, 64
12, 1195795, Note_off_c, 11, 75, 64
12, 1195800, Note_on_c, 11, 75, 92
12, 1195800, Note_on_c, 11, 87, 92
12, 1195915, Note_off_c, 11, 87, 64
12, 1195915, Note_off_c, 11, 75, 64
12, 1195920, Note_on_c, 11, 75, 92
12, 1195920, Note_on_c, 11, 87, 92
12, 1196035, Note_off_c, 11, 87, 64
12, 1196035, Note_off_c, 11, 75, 64
12, 1196040, Note_on_c, 11, 75, 92
12, 1196040, Note_on_c, 11, 87, 92
12, 1196155, Note_off_c, 11, 87, 64
12, 1196155, Note_off_c, 11, 75, 64
12, 1196160, Note_on_c, 11, 75, 92
12, 1196160, Note_on_c, 11, 87, 92
12, 1196275, Note_off_c, 11, 87, 64
12, 1196275, Note_off_c, 11, 75, 64
12, 1196280, Note_on_c, 11, 75, 92
12, 1196280, Note_on_c, 11, 87, 92
12, 1196395, Note_off_c, 11, 87, 64
12, 1196395, Note_off_c, 11, 75, 64
12, 1196400, Note_on_c, 11, 75, 92
12, 1196400, Note_on_c, 11, 87, 92
12, 1196515, Note_off_c, 11, 87, 64
12, 1196515, Note_off_c, 11, 75, 64
12, 1196520, Note_on_c, 11, 75, 92
12, 1196520, Note_on_c, 11, 87, 92
12, 1196635, Note_off_c, 11, 87, 64
12, 1196635, Note_off_c, 11, 75, 64
12, 1196640, Note_on_c, 11, 75, 92
12, 1196640, Note_on_c, 11, 87, 92
12, 1196755, Note_off_c, 11, 87, 64
12, 1196755, Note_off_c, 11, 75, 64
12, 1196760, Note_on_c, 11, 75, 92
12, 1196760, Note_on_c, 11, 87, 92
12, 1196875, Note_off_c, 11, 87, 64
12, 1196875, Note_off_c, 11, 75, 64
12, 1196880, Note_on_c, 11, 75, 92
12, 1196880, Note_on_c, 11, 87, 92
12, 1196995, Note_off_c, 11, 87, 64
12, 1196995, Note_off_c, 11, 75, 64
12, 1197000, Note_on_c, 11, 75, 92
12, 1197000, Note_on_c, 11, 87, 92
12, 1197115, Note_off_c, 11, 87, 64
12, 1197115, Note_off_c, 11, 75, 64
12, 1197120, Note_on_c, 11, 75, 92
12, 1197120, Note_on_c, 11, 87, 92
12, 1197235, Note_off_c, 11, 87, 64
12, 1197235, Note_off_c, 11, 75, 64
12, 1197240, Note_on_c, 11, 75, 92
12, 1197240, Note_on_c, 11, 87, 92
12, 1197355, Note_off_c, 11, 87, 64
12, 1197355, Note_off_c, 11, 75, 64
12, 1197360, Note_on_c, 11, 75, 92
12, 1197360, Note_on_c, 11, 87, 92
12, 1197475, Note_off_c, 11, 87, 64
12, 1197475, Note_off_c, 11, 75, 64
12, 1197480, Note_on_c, 11, 75, 92
12, 1197480, Note_on_c, 11, 87, 92
12, 1197595, Note_off_c, 11, 87, 64
12, 1197595, Note_off_c, 11, 75, 64
12, 1197600, Note_on_c, 11, 75, 92
12, 1197600, Note_on_c, 11, 87, 92
12, 1197715, Note_off_c, 11, 87, 64
12, 1197715, Note_off_c, 11, 75, 64
12, 1197720, Note_on_c, 11, 75, 92
12, 1197720, Note_on_c, 11, 87, 92
12, 1197835, Note_off_c, 11, 87, 64
12, 1197835, Note_off_c, 11, 75, 64
12, 1197840, Note_on_c, 11, 75, 92
12, 1197840, Note_on_c, 11, 87, 92
12, 1197955, Note_off_c, 11, 87, 64
12, 1197955, Note_off_c, 11, 75, 64
12, 1197960, Note_on_c, 11, 75, 92
12, 1197960, Note_on_c, 11, 87, 92
12, 1198075, Note_off_c, 11, 87, 64
12, 1198075, Note_off_c, 11, 75, 64
12, 1198080, Note_on_c, 11, 75, 92
12, 1198080, Note_on_c, 11, 87, 92
12, 1198195, Note_off_c, 11, 87, 64
12, 1198195, Note_off_c, 11, 75, 64
12, 1198200, Note_on_c, 11, 75, 92
12, 1198200, Note_on_c, 11, 87, 92
12, 1198315, Note_off_c, 11, 87, 64
12, 1198315, Note_off_c, 11, 75, 64
12, 1198320, Note_on_c, 11, 75, 92
12, 1198320, Note_on_c, 11, 87, 92
12, 1198435, Note_off_c, 11, 87, 64
12, 1198435, Note_off_c, 11, 75, 64
12, 1198440, Note_on_c, 11, 75, 92
12, 1198440, Note_on_c, 11, 87, 92
12, 1198555, Note_off_c, 11, 87, 64
12, 1198555, Note_off_c, 11, 75, 64
12, 1198560, Note_on_c, 11, 75, 92
12, 1198560, Note_on_c, 11, 87, 92
12, 1198675, Note_off_c, 11, 87, 64
12, 1198675, Note_off_c, 11, 75, 64
12, 1198680, Note_on_c, 11, 75, 92
12, 1198680, Note_on_c, 11, 87, 92
12, 1198795, Note_off_c, 11, 87, 64
12, 1198795, Note_off_c, 11, 75, 64
12, 1198800, Note_on_c, 11, 75, 92
12, 1198800, Note_on_c, 11, 87, 92
12, 1198915, Note_off_c, 11, 87, 64
12, 1198915, Note_off_c, 11, 75, 64
12, 1198920, Note_on_c, 11, 75, 92
12, 1198920, Note_on_c, 11, 87, 92
12, 1199035, Note_off_c, 11, 87, 64
12, 1199035, Note_off_c, 11, 75, 64
12, 1199040, Note_on_c, 11, 75, 92
12, 1199040, Note_on_c, 11, 87, 92
12, 1199155, Note_off_c, 11, 87, 64
12, 1199155, Note_off_c, 11, 75, 64
12, 1199160, Note_on_c, 11, 75, 92
12, 1199160, Note_on_c, 11, 87, 92
12, 1199275, Note_off_c, 11, 87, 64
12, 1199275, Note_off_c, 11, 75, 64
12, 1199280, Note_on_c, 11, 75, 92
12, 1199280, Note_on_c, 11, 87, 92
12, 1199395, Note_off_c, 11, 87, 64
12, 1199395, Note_off_c, 11, 75, 64
12, 1199400, Note_on_c, 11, 75, 92
12, 1199400, Note_on_c, 11, 87, 92
12, 1199515, Note_off_c, 11, 87, 64
12, 1199515, Note_off_c, 11, 75, 64
12, 1199520, Note_on_c, 11, 75, 92
12, 1199520, Note_on_c, 11, 87, 92
12, 1199635, Note_off_c, 11, 87, 64
12, 1199635, Note_off_c, 11, 75, 64
12, 1199640, Note_on_c, 11, 75, 92
12, 1199640, Note_on_c, 11, 87, 92
12, 1199755, Note_off_c, 11, 87, 64
12, 1199755, Note_off_c, 11, 75, 64
12, 1199760, Note_on_c, 11, 75, 92
12, 1199760, Note_on_c, 11, 87, 92
12, 1199875, Note_off_c, 11, 87, 64
12, 1199875, Note_off_c, 11, 75, 64
12, 1199880, Note_on_c, 11, 75, 92
12, 1199880, Note_on_c, 11, 84, 92
12, 1199995, Note_off_c, 11, 84, 64
12, 1199995, Note_off_c, 11, 75, 64
12, 1200000, Note_on_c, 11, 75, 92
12, 1200000, Note_on_c, 11, 84, 92
12, 1200115, Note_off_c, 11, 84, 64
12, 1200115, Note_off_c, 11, 75, 64
12, 1200120, Note_on_c, 11, 75, 92
12, 1200120, Note_on_c, 11, 84, 92
12, 1200235, Note_off_c, 11, 84, 64
12, 1200235, Note_off_c, 11, 75, 64
12, 1200240, Note_on_c, 11, 75, 92
12, 1200240, Note_on_c, 11, 84, 92
12, 1200355, Note_off_c, 11, 84, 64
12, 1200355, Note_off_c, 11, 75, 64
12, 1200360, Note_on_c, 11, 75, 92
12, 1200360, Note_on_c, 11, 84, 92
12, 1200475, Note_off_c, 11, 84, 64
12, 1200475, Note_off_c, 11, 75, 64
12, 1200480, Note_on_c, 11, 75, 92
12, 1200480, Note_on_c, 11, 84, 92
12, 1200595, Note_off_c, 11, 84, 64
12, 1200595, Note_off_c, 11, 75, 64
12, 1200600, Note_on_c, 11, 75, 92
12, 1200600, Note_on_c, 11, 84, 92
12, 1200715, Note_off_c, 11, 84, 64
12, 1200715, Note_off_c, 11, 75, 64
12, 1200720, Note_on_c, 11, 73, 127
12, 1200720, Note_on_c, 11, 85, 127
12, 1200835, Note_off_c, 11, 85, 64
12, 1200835, Note_off_c, 11, 73, 64
12, 1200840, Note_on_c, 11, 65, 92
12, 1200955, Note_off_c, 11, 65, 64
12, 1200960, Note_on_c, 11, 65, 92
12, 1201075, Note_off_c, 11, 65, 64
12, 1201080, Note_on_c, 11, 65, 92
12, 1201195, Note_off_c, 11, 65, 64
12, 1201200, Note_on_c, 11, 65, 92
12, 1201315, Note_off_c, 11, 65, 64
12, 1201320, Note_on_c, 11, 65, 92
12, 1201435, Note_off_c, 11, 65, 64
12, 1201440, Note_on_c, 11, 65, 92
12, 1201555, Note_off_c, 11, 65, 64
12, 1201560, Note_on_c, 11, 65, 92
12, 1201675, Note_off_c, 11, 65, 64
12, 1201680, Note_on_c, 11, 65, 92
12, 1201795, Note_off_c, 11, 65, 64
12, 1201800, Note_on_c, 11, 65, 92
12, 1201915, Note_off_c, 11, 65, 64
12, 1201920, Note_on_c, 11, 65, 92
12, 1202035, Note_off_c, 11, 65, 64
12, 1202040, Note_on_c, 11, 65, 92
12, 1202155, Note_off_c, 11, 65, 64
12, 1202160, Note_on_c, 11, 65, 92
12, 1202275, Note_off_c, 11, 65, 64
12, 1202280, Note_on_c, 11, 65, 92
12, 1202395, Note_off_c, 11, 65, 64
12, 1202400, Note_on_c, 11, 65, 92
12, 1202515, Note_off_c, 11, 65, 64
12, 1202520, Note_on_c, 11, 65, 92
12, 1202635, Note_off_c, 11, 65, 64
12, 1202640, Note_on_c, 11, 80, 92
12, 1202755, Note_off_c, 11, 80, 64
12, 1202760, Note_on_c, 11, 59, 92
12, 1202760, Note_on_c, 11, 68, 92
12, 1202875, Note_off_c, 11, 68, 64
12, 1202875, Note_off_c, 11, 59, 64
12, 1202880, Note_on_c, 11, 59, 92
12, 1202880, Note_on_c, 11, 68, 92
12, 1202995, Note_off_c, 11, 68, 64
12, 1202995, Note_off_c, 11, 59, 64
12, 1203000, Note_on_c, 11, 59, 92
12, 1203000, Note_on_c, 11, 68, 92
12, 1203115, Note_off_c, 11, 68, 64
12, 1203115, Note_off_c, 11, 59, 64
12, 1203120, Note_on_c, 11, 59, 92
12, 1203120, Note_on_c, 11, 68, 92
12, 1203235, Note_off_c, 11, 68, 64
12, 1203235, Note_off_c, 11, 59, 64
12, 1203240, Note_on_c, 11, 59, 92
12, 1203240, Note_on_c, 11, 68, 92
12, 1203355, Note_off_c, 11, 68, 64
12, 1203355, Note_off_c, 11, 59, 64
12, 1203360, Note_on_c, 11, 59, 92
12, 1203360, Note_on_c, 11, 68, 92
12, 1203475, Note_off_c, 11, 68, 64
12, 1203475, Note_off_c, 11, 59, 64
12, 1203480, Note_on_c, 11, 59, 92
12, 1203480, Note_on_c, 11, 68, 92
12, 1203595, Note_off_c, 11, 68, 64
12, 1203595, Note_off_c, 11, 59, 64
12, 1203600, Note_on_c, 11, 59, 92
12, 1203600, Note_on_c, 11, 68, 92
12, 1203715, Note_off_c, 11, 68, 64
12, 1203715, Note_off_c, 11, 59, 64
12, 1203720, Note_on_c, 11, 59, 92
12, 1203720, Note_on_c, 11, 68, 92
12, 1203835, Note_off_c, 11, 68, 64
12, 1203835, Note_off_c, 11, 59, 64
12, 1203840, Note_on_c, 11, 59, 92
12, 1203840, Note_on_c, 11, 68, 92
12, 1203955, Note_off_c, 11, 68, 64
12, 1203955, Note_off_c, 11, 59, 64
12, 1203960, Note_on_c, 11, 59, 92
12, 1203960, Note_on_c, 11, 68, 92
12, 1204075, Note_off_c, 11, 68, 64
12, 1204075, Note_off_c, 11, 59, 64
12, 1204080, Note_on_c, 11, 59, 92
12, 1204080, Note_on_c, 11, 68, 92
12, 1204195, Note_off_c, 11, 68, 64
12, 1204195, Note_off_c, 11, 59, 64
12, 1204200, Note_on_c, 11, 59, 92
12, 1204200, Note_on_c, 11, 68, 92
12, 1204315, Note_off_c, 11, 68, 64
12, 1204315, Note_off_c, 11, 59, 64
12, 1204320, Note_on_c, 11, 59, 92
12, 1204320, Note_on_c, 11, 68, 92
12, 1204435, Note_off_c, 11, 68, 64
12, 1204435, Note_off_c, 11, 59, 64
12, 1204440, Note_on_c, 11, 59, 92
12, 1204440, Note_on_c, 11, 68, 92
12, 1204555, Note_off_c, 11, 68, 64
12, 1204555, Note_off_c, 11, 59, 64
12, 1204560, Note_on_c, 11, 60, 92
12, 1204560, Note_on_c, 11, 67, 92
12, 1204960, Note_off_c, 11, 67, 64
12, 1204960, Note_off_c, 11, 60, 64
12, 1205520, Program_c, 11, 50
12, 1205520, Note_on_c, 11, 84, 108
12, 1206160, Note_off_c, 11, 84, 64
12, 1206240, Note_on_c, 11, 79, 108
12, 1206320, Note_off_c, 11, 79, 64
12, 1206480, Note_on_c, 11, 80, 108
12, 1206560, Note_off_c, 11, 80, 64
12, 1206720, Note_on_c, 11, 76, 108
12, 1206800, Note_off_c, 11, 76, 64
12, 1206960, Note_on_c, 11, 77, 108
12, 1207040, Note_off_c, 11, 77, 64
12, 1207200, Note_on_c, 11, 72, 108
12, 1207280, Note_off_c, 11, 72, 64
12, 1207440, Note_on_c, 11, 73, 108
12, 1207520, Note_off_c, 11, 73, 64
12, 1207680, Note_on_c, 11, 72, 108
12, 1207760, Note_off_c, 11, 72, 64
12, 1207920, Note_on_c, 11, 72, 108
12, 1208000, Note_off_c, 11, 72, 64
12, 1208160, Note_on_c, 11, 70, 108
12, 1208240, Note_off_c, 11, 70, 64
12, 1208400, Note_on_c, 11, 68, 108
12, 1208800, Note_off_c, 11, 68, 64
12, 1209360, Note_on_c, 11, 80, 108
12, 1210000, Note_off_c, 11, 80, 64
12, 1210080, Note_on_c, 11, 76, 108
12, 1210160, Note_off_c, 11, 76, 64
12, 1210320, Note_on_c, 11, 77, 108
12, 1210400, Note_off_c, 11, 77, 64
12, 1210560, Note_on_c, 11, 72, 108
12, 1210640, Note_off_c, 11, 72, 64
12, 1210800, Note_on_c, 11, 73, 108
12, 1210880, Note_off_c, 11, 73, 64
12, 1211040, Note_on_c, 11, 68, 108
12, 1211120, Note_off_c, 11, 68, 64
12, 1211280, Note_on_c, 11, 70, 108
12, 1211360, Note_off_c, 11, 70, 64
12, 1211520, Note_on_c, 11, 68, 108
12, 1211600, Note_off_c, 11, 68, 64
12, 1211760, Note_on_c, 11, 68, 108
12, 1211840, Note_off_c, 11, 68, 64
12, 1212000, Note_on_c, 11, 67, 108
12, 1212080, Note_off_c, 11, 67, 64
12, 1212240, Note_on_c, 11, 65, 108
12, 1212640, Note_off_c, 11, 65, 64
12, 1213200, Note_on_c, 11, 77, 108
12, 1213840, Note_off_c, 11, 77, 64
12, 1213920, Note_on_c, 11, 72, 108
12, 1214000, Note_off_c, 11, 72, 64
12, 1214160, Note_on_c, 11, 73, 108
12, 1214240, Note_off_c, 11, 73, 64
12, 1214400, Note_on_c, 11, 68, 108
12, 1214480, Note_off_c, 11, 68, 64
12, 1214640, Note_on_c, 11, 70, 108
12, 1214720, Note_off_c, 11, 70, 64
12, 1214880, Note_on_c, 11, 65, 108
12, 1214960, Note_off_c, 11, 65, 64
12, 1215120, Note_on_c, 11, 66, 108
12, 1215200, Note_off_c, 11, 66, 64
12, 1215360, Note_on_c, 11, 65, 108
12, 1215440, Note_off_c, 11, 65, 64
12, 1215600, Note_on_c, 11, 65, 108
12, 1215680, Note_off_c, 11, 65, 64
12, 1215840, Note_on_c, 11, 63, 108
12, 1215920, Note_off_c, 11, 63, 64
12, 1216080, Program_c, 11, 48
12, 1216200, Note_on_c, 11, 56, 30
12, 1216315, Note_off_c, 11, 56, 64
12, 1216320, Note_on_c, 11, 56, 30
12, 1216435, Note_off_c, 11, 56, 64
12, 1216440, Note_on_c, 11, 56, 30
12, 1216555, Note_off_c, 11, 56, 64
12, 1216560, Note_on_c, 11, 56, 30
12, 1216675, Note_off_c, 11, 56, 64
12, 1216680, Note_on_c, 11, 56, 30
12, 1216795, Note_off_c, 11, 56, 64
12, 1216800, Note_on_c, 11, 56, 30
12, 1216915, Note_off_c, 11, 56, 64
12, 1216920, Note_on_c, 11, 56, 30
12, 1217035, Note_off_c, 11, 56, 64
12, 1217040, Note_on_c, 11, 56, 30
12, 1217155, Note_off_c, 11, 56, 64
12, 1217160, Note_on_c, 11, 56, 30
12, 1217275, Note_off_c, 11, 56, 64
12, 1217280, Note_on_c, 11, 56, 30
12, 1217395, Note_off_c, 11, 56, 64
12, 1217400, Note_on_c, 11, 56, 30
12, 1217515, Note_off_c, 11, 56, 64
12, 1217520, Note_on_c, 11, 56, 30
12, 1217635, Note_off_c, 11, 56, 64
12, 1217640, Note_on_c, 11, 56, 30
12, 1217755, Note_off_c, 11, 56, 64
12, 1217760, Note_on_c, 11, 56, 30
12, 1217875, Note_off_c, 11, 56, 64
12, 1217880, Note_on_c, 11, 56, 30
12, 1217995, Note_off_c, 11, 56, 64
12, 1218000, Note_on_c, 11, 56, 30
12, 1218115, Note_off_c, 11, 56, 64
12, 1218120, Note_on_c, 11, 56, 30
12, 1218235, Note_off_c, 11, 56, 64
12, 1218240, Note_on_c, 11, 56, 30
12, 1218355, Note_off_c, 11, 56, 64
12, 1218360, Note_on_c, 11, 56, 30
12, 1218475, Note_off_c, 11, 56, 64
12, 1218480, Note_on_c, 11, 56, 30
12, 1218595, Note_off_c, 11, 56, 64
12, 1218600, Note_on_c, 11, 56, 30
12, 1218715, Note_off_c, 11, 56, 64
12, 1218720, Note_on_c, 11, 56, 30
12, 1218835, Note_off_c, 11, 56, 64
12, 1218840, Note_on_c, 11, 56, 30
12, 1218955, Note_off_c, 11, 56, 64
12, 1218960, Note_on_c, 11, 56, 30
12, 1219075, Note_off_c, 11, 56, 64
12, 1219080, Note_on_c, 11, 56, 30
12, 1219195, Note_off_c, 11, 56, 64
12, 1219200, Note_on_c, 11, 56, 30
12, 1219315, Note_off_c, 11, 56, 64
12, 1219320, Note_on_c, 11, 56, 30
12, 1219435, Note_off_c, 11, 56, 64
12, 1219440, Note_on_c, 11, 56, 30
12, 1219555, Note_off_c, 11, 56, 64
12, 1219560, Note_on_c, 11, 56, 30
12, 1219675, Note_off_c, 11, 56, 64
12, 1219680, Note_on_c, 11, 56, 30
12, 1219795, Note_off_c, 11, 56, 64
12, 1219800, Note_on_c, 11, 56, 30
12, 1219915, Note_off_c, 11, 56, 64
12, 1219920, Note_on_c, 11, 61, 105
12, 1219920, Note_on_c, 11, 65, 105
12, 1220035, Note_off_c, 11, 65, 64
12, 1220035, Note_off_c, 11, 61, 64
12, 1220040, Note_on_c, 11, 61, 75
12, 1220040, Note_on_c, 11, 65, 75
12, 1220155, Note_off_c, 11, 65, 64
12, 1220155, Note_off_c, 11, 61, 64
12, 1220160, Note_on_c, 11, 61, 75
12, 1220160, Note_on_c, 11, 65, 75
12, 1220275, Note_off_c, 11, 65, 64
12, 1220275, Note_off_c, 11, 61, 64
12, 1220280, Note_on_c, 11, 61, 75
12, 1220280, Note_on_c, 11, 65, 75
12, 1220395, Note_off_c, 11, 65, 64
12, 1220395, Note_off_c, 11, 61, 64
12, 1220400, Note_on_c, 11, 61, 45
12, 1220400, Note_on_c, 11, 65, 45
12, 1220515, Note_off_c, 11, 65, 64
12, 1220515, Note_off_c, 11, 61, 64
12, 1220520, Note_on_c, 11, 61, 45
12, 1220520, Note_on_c, 11, 65, 45
12, 1220635, Note_off_c, 11, 65, 64
12, 1220635, Note_off_c, 11, 61, 64
12, 1220640, Note_on_c, 11, 61, 45
12, 1220640, Note_on_c, 11, 65, 45
12, 1220755, Note_off_c, 11, 65, 64
12, 1220755, Note_off_c, 11, 61, 64
12, 1220760, Note_on_c, 11, 61, 45
12, 1220760, Note_on_c, 11, 65, 45
12, 1220875, Note_off_c, 11, 65, 64
12, 1220875, Note_off_c, 11, 61, 64
12, 1220880, Note_on_c, 11, 61, 45
12, 1220880, Note_on_c, 11, 65, 45
12, 1220995, Note_off_c, 11, 65, 64
12, 1220995, Note_off_c, 11, 61, 64
12, 1221000, Note_on_c, 11, 61, 45
12, 1221000, Note_on_c, 11, 65, 45
12, 1221115, Note_off_c, 11, 65, 64
12, 1221115, Note_off_c, 11, 61, 64
12, 1221120, Note_on_c, 11, 61, 45
12, 1221120, Note_on_c, 11, 65, 45
12, 1221235, Note_off_c, 11, 65, 64
12, 1221235, Note_off_c, 11, 61, 64
12, 1221240, Note_on_c, 11, 61, 45
12, 1221240, Note_on_c, 11, 65, 45
12, 1221355, Note_off_c, 11, 65, 64
12, 1221355, Note_off_c, 11, 61, 64
12, 1221360, Note_on_c, 11, 61, 45
12, 1221360, Note_on_c, 11, 65, 45
12, 1221475, Note_off_c, 11, 65, 64
12, 1221475, Note_off_c, 11, 61, 64
12, 1221480, Note_on_c, 11, 61, 45
12, 1221480, Note_on_c, 11, 65, 45
12, 1221595, Note_off_c, 11, 65, 64
12, 1221595, Note_off_c, 11, 61, 64
12, 1221600, Note_on_c, 11, 61, 45
12, 1221600, Note_on_c, 11, 65, 45
12, 1221715, Note_off_c, 11, 65, 64
12, 1221715, Note_off_c, 11, 61, 64
12, 1221720, Note_on_c, 11, 61, 45
12, 1221720, Note_on_c, 11, 65, 45
12, 1221835, Note_off_c, 11, 65, 64
12, 1221835, Note_off_c, 11, 61, 64
12, 1221840, Note_on_c, 11, 61, 45
12, 1221840, Note_on_c, 11, 65, 45
12, 1221955, Note_off_c, 11, 65, 64
12, 1221955, Note_off_c, 11, 61, 64
12, 1221960, Note_on_c, 11, 61, 45
12, 1221960, Note_on_c, 11, 65, 45
12, 1222075, Note_off_c, 11, 65, 64
12, 1222075, Note_off_c, 11, 61, 64
12, 1222080, Note_on_c, 11, 61, 45
12, 1222080, Note_on_c, 11, 65, 45
12, 1222195, Note_off_c, 11, 65, 64
12, 1222195, Note_off_c, 11, 61, 64
12, 1222200, Note_on_c, 11, 61, 45
12, 1222200, Note_on_c, 11, 65, 45
12, 1222315, Note_off_c, 11, 65, 64
12, 1222315, Note_off_c, 11, 61, 64
12, 1222320, Note_on_c, 11, 61, 45
12, 1222320, Note_on_c, 11, 65, 45
12, 1222435, Note_off_c, 11, 65, 64
12, 1222435, Note_off_c, 11, 61, 64
12, 1222440, Note_on_c, 11, 61, 45
12, 1222440, Note_on_c, 11, 65, 45
12, 1222555, Note_off_c, 11, 65, 64
12, 1222555, Note_off_c, 11, 61, 64
12, 1222560, Note_on_c, 11, 61, 45
12, 1222560, Note_on_c, 11, 65, 45
12, 1222675, Note_off_c, 11, 65, 64
12, 1222675, Note_off_c, 11, 61, 64
12, 1222680, Note_on_c, 11, 61, 45
12, 1222680, Note_on_c, 11, 65, 45
12, 1222795, Note_off_c, 11, 65, 64
12, 1222795, Note_off_c, 11, 61, 64
12, 1222800, Note_on_c, 11, 61, 45
12, 1222800, Note_on_c, 11, 65, 45
12, 1222915, Note_off_c, 11, 65, 64
12, 1222915, Note_off_c, 11, 61, 64
12, 1222920, Note_on_c, 11, 61, 45
12, 1222920, Note_on_c, 11, 65, 45
12, 1223035, Note_off_c, 11, 65, 64
12, 1223035, Note_off_c, 11, 61, 64
12, 1223040, Note_on_c, 11, 61, 45
12, 1223040, Note_on_c, 11, 65, 45
12, 1223155, Note_off_c, 11, 65, 64
12, 1223155, Note_off_c, 11, 61, 64
12, 1223160, Note_on_c, 11, 61, 45
12, 1223160, Note_on_c, 11, 65, 45
12, 1223275, Note_off_c, 11, 65, 64
12, 1223275, Note_off_c, 11, 61, 64
12, 1223280, Note_on_c, 11, 61, 45
12, 1223280, Note_on_c, 11, 65, 45
12, 1223395, Note_off_c, 11, 65, 64
12, 1223395, Note_off_c, 11, 61, 64
12, 1223400, Note_on_c, 11, 61, 45
12, 1223400, Note_on_c, 11, 65, 45
12, 1223515, Note_off_c, 11, 65, 64
12, 1223515, Note_off_c, 11, 61, 64
12, 1223520, Note_on_c, 11, 61, 45
12, 1223520, Note_on_c, 11, 65, 45
12, 1223635, Note_off_c, 11, 65, 64
12, 1223635, Note_off_c, 11, 61, 64
12, 1223640, Note_on_c, 11, 61, 45
12, 1223640, Note_on_c, 11, 65, 45
12, 1223755, Note_off_c, 11, 65, 64
12, 1223755, Note_off_c, 11, 61, 64
12, 1223760, Note_on_c, 11, 56, 45
12, 1223875, Note_off_c, 11, 56, 64
12, 1223880, Note_on_c, 11, 56, 45
12, 1223995, Note_off_c, 11, 56, 64
12, 1224000, Note_on_c, 11, 56, 45
12, 1224115, Note_off_c, 11, 56, 64
12, 1224120, Note_on_c, 11, 56, 45
12, 1224235, Note_off_c, 11, 56, 64
12, 1224240, Note_on_c, 11, 56, 45
12, 1224355, Note_off_c, 11, 56, 64
12, 1224360, Note_on_c, 11, 56, 45
12, 1224475, Note_off_c, 11, 56, 64
12, 1224480, Note_on_c, 11, 56, 45
12, 1224595, Note_off_c, 11, 56, 64
12, 1224600, Note_on_c, 11, 56, 45
12, 1224715, Note_off_c, 11, 56, 64
12, 1224720, Note_on_c, 11, 56, 45
12, 1224835, Note_off_c, 11, 56, 64
12, 1224840, Note_on_c, 11, 56, 45
12, 1224955, Note_off_c, 11, 56, 64
12, 1224960, Note_on_c, 11, 56, 45
12, 1225075, Note_off_c, 11, 56, 64
12, 1225080, Note_on_c, 11, 56, 45
12, 1225195, Note_off_c, 11, 56, 64
12, 1225200, Note_on_c, 11, 56, 45
12, 1225315, Note_off_c, 11, 56, 64
12, 1225320, Note_on_c, 11, 56, 45
12, 1225435, Note_off_c, 11, 56, 64
12, 1225440, Note_on_c, 11, 56, 45
12, 1225555, Note_off_c, 11, 56, 64
12, 1225560, Note_on_c, 11, 56, 45
12, 1225675, Note_off_c, 11, 56, 64
12, 1225680, Note_on_c, 11, 56, 45
12, 1225795, Note_off_c, 11, 56, 64
12, 1225800, Note_on_c, 11, 56, 45
12, 1225915, Note_off_c, 11, 56, 64
12, 1225920, Note_on_c, 11, 56, 45
12, 1226035, Note_off_c, 11, 56, 64
12, 1226040, Note_on_c, 11, 56, 45
12, 1226155, Note_off_c, 11, 56, 64
12, 1226160, Note_on_c, 11, 56, 45
12, 1226275, Note_off_c, 11, 56, 64
12, 1226280, Note_on_c, 11, 56, 45
12, 1226395, Note_off_c, 11, 56, 64
12, 1226400, Note_on_c, 11, 56, 45
12, 1226515, Note_off_c, 11, 56, 64
12, 1226520, Note_on_c, 11, 56, 45
12, 1226635, Note_off_c, 11, 56, 64
12, 1226640, Note_on_c, 11, 56, 45
12, 1226755, Note_off_c, 11, 56, 64
12, 1226760, Note_on_c, 11, 56, 45
12, 1226875, Note_off_c, 11, 56, 64
12, 1226880, Note_on_c, 11, 56, 45
12, 1226995, Note_off_c, 11, 56, 64
12, 1227000, Note_on_c, 11, 56, 45
12, 1227115, Note_off_c, 11, 56, 64
12, 1227120, Note_on_c, 11, 56, 45
12, 1227235, Note_off_c, 11, 56, 64
12, 1227240, Note_on_c, 11, 56, 45
12, 1227355, Note_off_c, 11, 56, 64
12, 1227360, Note_on_c, 11, 56, 45
12, 1227475, Note_off_c, 11, 56, 64
12, 1227480, Note_on_c, 11, 56, 45
12, 1227595, Note_off_c, 11, 56, 64
12, 1227600, Note_on_c, 11, 59, 75
12, 1227600, Note_on_c, 11, 67, 75
12, 1227715, Note_off_c, 11, 67, 64
12, 1227715, Note_off_c, 11, 59, 64
12, 1227720, Note_on_c, 11, 59, 75
12, 1227720, Note_on_c, 11, 67, 75
12, 1227835, Note_off_c, 11, 67, 64
12, 1227835, Note_off_c, 11, 59, 64
12, 1227840, Note_on_c, 11, 59, 75
12, 1227840, Note_on_c, 11, 67, 75
12, 1227955, Note_off_c, 11, 67, 64
12, 1227955, Note_off_c, 11, 59, 64
12, 1227960, Note_on_c, 11, 59, 75
12, 1227960, Note_on_c, 11, 67, 75
12, 1228075, Note_off_c, 11, 67, 64
12, 1228075, Note_off_c, 11, 59, 64
12, 1228080, Note_on_c, 11, 59, 45
12, 1228080, Note_on_c, 11, 67, 45
12, 1228195, Note_off_c, 11, 67, 64
12, 1228195, Note_off_c, 11, 59, 64
12, 1228200, Note_on_c, 11, 59, 45
12, 1228200, Note_on_c, 11, 67, 45
12, 1228315, Note_off_c, 11, 67, 64
12, 1228315, Note_off_c, 11, 59, 64
12, 1228320, Note_on_c, 11, 59, 45
12, 1228320, Note_on_c, 11, 67, 45
12, 1228435, Note_off_c, 11, 67, 64
12, 1228435, Note_off_c, 11, 59, 64
12, 1228440, Note_on_c, 11, 59, 45
12, 1228440, Note_on_c, 11, 67, 45
12, 1228555, Note_off_c, 11, 67, 64
12, 1228555, Note_off_c, 11, 59, 64
12, 1228560, Note_on_c, 11, 59, 45
12, 1228560, Note_on_c, 11, 67, 45
12, 1228675, Note_off_c, 11, 67, 64
12, 1228675, Note_off_c, 11, 59, 64
12, 1228680, Note_on_c, 11, 59, 45
12, 1228680, Note_on_c, 11, 67, 45
12, 1228795, Note_off_c, 11, 67, 64
12, 1228795, Note_off_c, 11, 59, 64
12, 1228800, Note_on_c, 11, 59, 45
12, 1228800, Note_on_c, 11, 67, 45
12, 1228915, Note_off_c, 11, 67, 64
12, 1228915, Note_off_c, 11, 59, 64
12, 1228920, Note_on_c, 11, 59, 45
12, 1228920, Note_on_c, 11, 67, 45
12, 1229035, Note_off_c, 11, 67, 64
12, 1229035, Note_off_c, 11, 59, 64
12, 1229040, Note_on_c, 11, 59, 45
12, 1229040, Note_on_c, 11, 67, 45
12, 1229155, Note_off_c, 11, 67, 64
12, 1229155, Note_off_c, 11, 59, 64
12, 1229160, Note_on_c, 11, 59, 45
12, 1229160, Note_on_c, 11, 67, 45
12, 1229275, Note_off_c, 11, 67, 64
12, 1229275, Note_off_c, 11, 59, 64
12, 1229280, Note_on_c, 11, 59, 45
12, 1229280, Note_on_c, 11, 67, 45
12, 1229395, Note_off_c, 11, 67, 64
12, 1229395, Note_off_c, 11, 59, 64
12, 1229400, Note_on_c, 11, 59, 45
12, 1229400, Note_on_c, 11, 67, 45
12, 1229515, Note_off_c, 11, 67, 64
12, 1229515, Note_off_c, 11, 59, 64
12, 1229520, Note_on_c, 11, 59, 45
12, 1229520, Note_on_c, 11, 67, 45
12, 1229635, Note_off_c, 11, 67, 64
12, 1229635, Note_off_c, 11, 59, 64
12, 1229640, Note_on_c, 11, 59, 45
12, 1229640, Note_on_c, 11, 67, 45
12, 1229755, Note_off_c, 11, 67, 64
12, 1229755, Note_off_c, 11, 59, 64
12, 1229760, Note_on_c, 11, 59, 45
12, 1229760, Note_on_c, 11, 67, 45
12, 1229875, Note_off_c, 11, 67, 64
12, 1229875, Note_off_c, 11, 59, 64
12, 1229880, Note_on_c, 11, 59, 45
12, 1229880, Note_on_c, 11, 67, 45
12, 1229995, Note_off_c, 11, 67, 64
12, 1229995, Note_off_c, 11, 59, 64
12, 1230000, Note_on_c, 11, 59, 45
12, 1230000, Note_on_c, 11, 67, 45
12, 1230115, Note_off_c, 11, 67, 64
12, 1230115, Note_off_c, 11, 59, 64
12, 1230120, Note_on_c, 11, 59, 45
12, 1230120, Note_on_c, 11, 67, 45
12, 1230235, Note_off_c, 11, 67, 64
12, 1230235, Note_off_c, 11, 59, 64
12, 1230240, Note_on_c, 11, 59, 45
12, 1230240, Note_on_c, 11, 67, 45
12, 1230355, Note_off_c, 11, 67, 64
12, 1230355, Note_off_c, 11, 59, 64
12, 1230360, Note_on_c, 11, 59, 45
12, 1230360, Note_on_c, 11, 67, 45
12, 1230475, Note_off_c, 11, 67, 64
12, 1230475, Note_off_c, 11, 59, 64
12, 1230480, Note_on_c, 11, 59, 45
12, 1230480, Note_on_c, 11, 67, 45
12, 1230595, Note_off_c, 11, 67, 64
12, 1230595, Note_off_c, 11, 59, 64
12, 1230600, Note_on_c, 11, 59, 45
12, 1230600, Note_on_c, 11, 67, 45
12, 1230715, Note_off_c, 11, 67, 64
12, 1230715, Note_off_c, 11, 59, 64
12, 1230720, Note_on_c, 11, 59, 45
12, 1230720, Note_on_c, 11, 67, 45
12, 1230835, Note_off_c, 11, 67, 64
12, 1230835, Note_off_c, 11, 59, 64
12, 1230840, Note_on_c, 11, 59, 45
12, 1230840, Note_on_c, 11, 67, 45
12, 1230955, Note_off_c, 11, 67, 64
12, 1230955, Note_off_c, 11, 59, 64
12, 1230960, Note_on_c, 11, 59, 45
12, 1230960, Note_on_c, 11, 67, 45
12, 1231075, Note_off_c, 11, 67, 64
12, 1231075, Note_off_c, 11, 59, 64
12, 1231080, Note_on_c, 11, 59, 45
12, 1231080, Note_on_c, 11, 67, 45
12, 1231195, Note_off_c, 11, 67, 64
12, 1231195, Note_off_c, 11, 59, 64
12, 1231200, Note_on_c, 11, 59, 45
12, 1231200, Note_on_c, 11, 67, 45
12, 1231315, Note_off_c, 11, 67, 64
12, 1231315, Note_off_c, 11, 59, 64
12, 1231320, Note_on_c, 11, 59, 45
12, 1231320, Note_on_c, 11, 67, 45
12, 1231435, Note_off_c, 11, 67, 64
12, 1231435, Note_off_c, 11, 59, 64
12, 1231440, Note_on_c, 11, 60, 45
12, 1231440, Note_on_c, 11, 67, 45
12, 1231555, Note_off_c, 11, 67, 64
12, 1231555, Note_off_c, 11, 60, 64
12, 1231560, Note_on_c, 11, 60, 45
12, 1231560, Note_on_c, 11, 67, 45
12, 1231675, Note_off_c, 11, 67, 64
12, 1231675, Note_off_c, 11, 60, 64
12, 1231680, Note_on_c, 11, 60, 45
12, 1231680, Note_on_c, 11, 67, 45
12, 1231795, Note_off_c, 11, 67, 64
12, 1231795, Note_off_c, 11, 60, 64
12, 1231800, Note_on_c, 11, 60, 45
12, 1231800, Note_on_c, 11, 67, 45
12, 1231915, Note_off_c, 11, 67, 64
12, 1231915, Note_off_c, 11, 60, 64
12, 1231920, Note_on_c, 11, 60, 45
12, 1231920, Note_on_c, 11, 67, 45
12, 1232035, Note_off_c, 11, 67, 64
12, 1232035, Note_off_c, 11, 60, 64
12, 1232040, Note_on_c, 11, 60, 46
12, 1232040, Note_on_c, 11, 67, 46
12, 1232155, Note_off_c, 11, 67, 64
12, 1232155, Note_off_c, 11, 60, 64
12, 1232160, Note_on_c, 11, 60, 47
12, 1232160, Note_on_c, 11, 67, 47
12, 1232275, Note_off_c, 11, 67, 64
12, 1232275, Note_off_c, 11, 60, 64
12, 1232280, Note_on_c, 11, 60, 48
12, 1232280, Note_on_c, 11, 67, 48
12, 1232395, Note_off_c, 11, 67, 64
12, 1232395, Note_off_c, 11, 60, 64
12, 1232400, Note_on_c, 11, 60, 49
12, 1232400, Note_on_c, 11, 67, 49
12, 1232515, Note_off_c, 11, 67, 64
12, 1232515, Note_off_c, 11, 60, 64
12, 1232520, Note_on_c, 11, 60, 50
12, 1232520, Note_on_c, 11, 67, 50
12, 1232635, Note_off_c, 11, 67, 64
12, 1232635, Note_off_c, 11, 60, 64
12, 1232640, Note_on_c, 11, 60, 51
12, 1232640, Note_on_c, 11, 67, 51
12, 1232755, Note_off_c, 11, 67, 64
12, 1232755, Note_off_c, 11, 60, 64
12, 1232760, Note_on_c, 11, 60, 52
12, 1232760, Note_on_c, 11, 67, 52
12, 1232875, Note_off_c, 11, 67, 64
12, 1232875, Note_off_c, 11, 60, 64
12, 1232880, Note_on_c, 11, 60, 53
12, 1232880, Note_on_c, 11, 67, 53
12, 1232995, Note_off_c, 11, 67, 64
12, 1232995, Note_off_c, 11, 60, 64
12, 1233000, Note_on_c, 11, 60, 54
12, 1233000, Note_on_c, 11, 67, 54
12, 1233115, Note_off_c, 11, 67, 64
12, 1233115, Note_off_c, 11, 60, 64
12, 1233120, Note_on_c, 11, 60, 56
12, 1233120, Note_on_c, 11, 67, 56
12, 1233235, Note_off_c, 11, 67, 64
12, 1233235, Note_off_c, 11, 60, 64
12, 1233240, Note_on_c, 11, 60, 58
12, 1233240, Note_on_c, 11, 67, 58
12, 1233355, Note_off_c, 11, 67, 64
12, 1233355, Note_off_c, 11, 60, 64
12, 1233360, Note_on_c, 11, 60, 60
12, 1233360, Note_on_c, 11, 67, 60
12, 1233475, Note_off_c, 11, 67, 64
12, 1233475, Note_off_c, 11, 60, 64
12, 1233480, Note_on_c, 11, 60, 62
12, 1233480, Note_on_c, 11, 67, 62
12, 1233595, Note_off_c, 11, 67, 64
12, 1233595, Note_off_c, 11, 60, 64
12, 1233600, Note_on_c, 11, 60, 64
12, 1233600, Note_on_c, 11, 67, 64
12, 1233715, Note_off_c, 11, 67, 64
12, 1233715, Note_off_c, 11, 60, 64
12, 1233720, Note_on_c, 11, 60, 66
12, 1233720, Note_on_c, 11, 67, 66
12, 1233835, Note_off_c, 11, 67, 64
12, 1233835, Note_off_c, 11, 60, 64
12, 1233840, Note_on_c, 11, 60, 68
12, 1233840, Note_on_c, 11, 67, 68
12, 1233955, Note_off_c, 11, 67, 64
12, 1233955, Note_off_c, 11, 60, 64
12, 1233960, Note_on_c, 11, 60, 70
12, 1233960, Note_on_c, 11, 67, 70
12, 1234075, Note_off_c, 11, 67, 64
12, 1234075, Note_off_c, 11, 60, 64
12, 1234080, Note_on_c, 11, 60, 72
12, 1234080, Note_on_c, 11, 67, 72
12, 1234195, Note_off_c, 11, 67, 64
12, 1234195, Note_off_c, 11, 60, 64
12, 1234200, Note_on_c, 11, 60, 74
12, 1234200, Note_on_c, 11, 67, 74
12, 1234315, Note_off_c, 11, 67, 64
12, 1234315, Note_off_c, 11, 60, 64
12, 1234320, Note_on_c, 11, 60, 76
12, 1234320, Note_on_c, 11, 67, 76
12, 1234435, Note_off_c, 11, 67, 64
12, 1234435, Note_off_c, 11, 60, 64
12, 1234440, Note_on_c, 11, 60, 78
12, 1234440, Note_on_c, 11, 67, 78
12, 1234555, Note_off_c, 11, 67, 64
12, 1234555, Note_off_c, 11, 60, 64
12, 1234560, Note_on_c, 11, 60, 80
12, 1234560, Note_on_c, 11, 67, 80
12, 1234675, Note_off_c, 11, 67, 64
12, 1234675, Note_off_c, 11, 60, 64
12, 1234680, Note_on_c, 11, 60, 82
12, 1234680, Note_on_c, 11, 67, 82
12, 1234795, Note_off_c, 11, 67, 64
12, 1234795, Note_off_c, 11, 60, 64
12, 1234800, Note_on_c, 11, 60, 84
12, 1234800, Note_on_c, 11, 67, 84
12, 1234915, Note_off_c, 11, 67, 64
12, 1234915, Note_off_c, 11, 60, 64
12, 1234920, Note_on_c, 11, 60, 86
12, 1234920, Note_on_c, 11, 67, 86
12, 1235035, Note_off_c, 11, 67, 64
12, 1235035, Note_off_c, 11, 60, 64
12, 1235040, Note_on_c, 11, 60, 88
12, 1235040, Note_on_c, 11, 67, 88
12, 1235155, Note_off_c, 11, 67, 64
12, 1235155, Note_off_c, 11, 60, 64
12, 1235160, Note_on_c, 11, 60, 90
12, 1235160, Note_on_c, 11, 67, 90
12, 1235275, Note_off_c, 11, 67, 64
12, 1235275, Note_off_c, 11, 60, 64
12, 1235280, Note_on_c, 11, 60, 92
12, 1235280, Note_on_c, 11, 69, 92
12, 1235395, Note_off_c, 11, 69, 64
12, 1235395, Note_off_c, 11, 60, 64
12, 1235400, Note_on_c, 11, 60, 92
12, 1235400, Note_on_c, 11, 69, 92
12, 1235515, Note_off_c, 11, 69, 64
12, 1235515, Note_off_c, 11, 60, 64
12, 1235520, Note_on_c, 11, 60, 92
12, 1235520, Note_on_c, 11, 69, 92
12, 1235635, Note_off_c, 11, 69, 64
12, 1235635, Note_off_c, 11, 60, 64
12, 1235640, Note_on_c, 11, 60, 92
12, 1235640, Note_on_c, 11, 69, 92
12, 1235755, Note_off_c, 11, 69, 64
12, 1235755, Note_off_c, 11, 60, 64
12, 1235760, Note_on_c, 11, 60, 92
12, 1235760, Note_on_c, 11, 69, 92
12, 1235875, Note_off_c, 11, 69, 64
12, 1235875, Note_off_c, 11, 60, 64
12, 1235880, Note_on_c, 11, 60, 92
12, 1235880, Note_on_c, 11, 69, 92
12, 1235995, Note_off_c, 11, 69, 64
12, 1235995, Note_off_c, 11, 60, 64
12, 1236000, Note_on_c, 11, 60, 92
12, 1236000, Note_on_c, 11, 69, 92
12, 1236115, Note_off_c, 11, 69, 64
12, 1236115, Note_off_c, 11, 60, 64
12, 1236120, Note_on_c, 11, 60, 92
12, 1236120, Note_on_c, 11, 69, 92
12, 1236235, Note_off_c, 11, 69, 64
12, 1236235, Note_off_c, 11, 60, 64
12, 1236240, Note_on_c, 11, 60, 92
12, 1236240, Note_on_c, 11, 69, 92
12, 1236355, Note_off_c, 11, 69, 64
12, 1236355, Note_off_c, 11, 60, 64
12, 1236360, Note_on_c, 11, 60, 92
12, 1236360, Note_on_c, 11, 69, 92
12, 1236475, Note_off_c, 11, 69, 64
12, 1236475, Note_off_c, 11, 60, 64
12, 1236480, Note_on_c, 11, 60, 92
12, 1236480, Note_on_c, 11, 69, 92
12, 1236595, Note_off_c, 11, 69, 64
12, 1236595, Note_off_c, 11, 60, 64
12, 1236600, Note_on_c, 11, 60, 92
12, 1236600, Note_on_c, 11, 69, 92
12, 1236715, Note_off_c, 11, 69, 64
12, 1236715, Note_off_c, 11, 60, 64
12, 1236720, Note_on_c, 11, 60, 92
12, 1236720, Note_on_c, 11, 69, 92
12, 1236835, Note_off_c, 11, 69, 64
12, 1236835, Note_off_c, 11, 60, 64
12, 1236840, Note_on_c, 11, 60, 92
12, 1236840, Note_on_c, 11, 69, 92
12, 1236955, Note_off_c, 11, 69, 64
12, 1236955, Note_off_c, 11, 60, 64
12, 1236960, Note_on_c, 11, 60, 92
12, 1236960, Note_on_c, 11, 69, 92
12, 1237075, Note_off_c, 11, 69, 64
12, 1237075, Note_off_c, 11, 60, 64
12, 1237080, Note_on_c, 11, 60, 92
12, 1237080, Note_on_c, 11, 69, 92
12, 1237195, Note_off_c, 11, 69, 64
12, 1237195, Note_off_c, 11, 60, 64
12, 1237200, Note_on_c, 11, 60, 92
12, 1237200, Note_on_c, 11, 69, 92
12, 1237315, Note_off_c, 11, 69, 64
12, 1237315, Note_off_c, 11, 60, 64
12, 1237320, Note_on_c, 11, 60, 92
12, 1237320, Note_on_c, 11, 69, 92
12, 1237435, Note_off_c, 11, 69, 64
12, 1237435, Note_off_c, 11, 60, 64
12, 1237440, Note_on_c, 11, 60, 92
12, 1237440, Note_on_c, 11, 69, 92
12, 1237555, Note_off_c, 11, 69, 64
12, 1237555, Note_off_c, 11, 60, 64
12, 1237560, Note_on_c, 11, 60, 92
12, 1237560, Note_on_c, 11, 69, 92
12, 1237675, Note_off_c, 11, 69, 64
12, 1237675, Note_off_c, 11, 60, 64
12, 1237680, Note_on_c, 11, 60, 92
12, 1237680, Note_on_c, 11, 69, 92
12, 1237795, Note_off_c, 11, 69, 64
12, 1237795, Note_off_c, 11, 60, 64
12, 1237800, Note_on_c, 11, 60, 92
12, 1237800, Note_on_c, 11, 69, 92
12, 1237915, Note_off_c, 11, 69, 64
12, 1237915, Note_off_c, 11, 60, 64
12, 1237920, Note_on_c, 11, 60, 92
12, 1237920, Note_on_c, 11, 69, 92
12, 1238035, Note_off_c, 11, 69, 64
12, 1238035, Note_off_c, 11, 60, 64
12, 1238040, Note_on_c, 11, 60, 92
12, 1238040, Note_on_c, 11, 69, 92
12, 1238155, Note_off_c, 11, 69, 64
12, 1238155, Note_off_c, 11, 60, 64
12, 1238160, Note_on_c, 11, 60, 92
12, 1238160, Note_on_c, 11, 69, 92
12, 1238275, Note_off_c, 11, 69, 64
12, 1238275, Note_off_c, 11, 60, 64
12, 1238280, Note_on_c, 11, 60, 92
12, 1238280, Note_on_c, 11, 69, 92
12, 1238395, Note_off_c, 11, 69, 64
12, 1238395, Note_off_c, 11, 60, 64
12, 1238400, Note_on_c, 11, 60, 92
12, 1238400, Note_on_c, 11, 69, 92
12, 1238515, Note_off_c, 11, 69, 64
12, 1238515, Note_off_c, 11, 60, 64
12, 1238520, Note_on_c, 11, 60, 92
12, 1238520, Note_on_c, 11, 69, 92
12, 1238635, Note_off_c, 11, 69, 64
12, 1238635, Note_off_c, 11, 60, 64
12, 1238640, Note_on_c, 11, 60, 92
12, 1238640, Note_on_c, 11, 69, 92
12, 1238755, Note_off_c, 11, 69, 64
12, 1238755, Note_off_c, 11, 60, 64
12, 1238760, Note_on_c, 11, 60, 92
12, 1238760, Note_on_c, 11, 69, 92
12, 1238875, Note_off_c, 11, 69, 64
12, 1238875, Note_off_c, 11, 60, 64
12, 1238880, Note_on_c, 11, 60, 92
12, 1238880, Note_on_c, 11, 69, 92
12, 1238995, Note_off_c, 11, 69, 64
12, 1238995, Note_off_c, 11, 60, 64
12, 1239000, Note_on_c, 11, 60, 92
12, 1239000, Note_on_c, 11, 69, 92
12, 1239115, Note_off_c, 11, 69, 64
12, 1239115, Note_off_c, 11, 60, 64
12, 1239120, Note_on_c, 11, 70, 92
12, 1239235, Note_off_c, 11, 70, 64
12, 1239240, Note_on_c, 11, 70, 92
12, 1239355, Note_off_c, 11, 70, 64
12, 1239360, Note_on_c, 11, 70, 92
12, 1239475, Note_off_c, 11, 70, 64
12, 1239480, Note_on_c, 11, 70, 92
12, 1239595, Note_off_c, 11, 70, 64
12, 1239600, Note_on_c, 11, 70, 92
12, 1239715, Note_off_c, 11, 70, 64
12, 1239720, Note_on_c, 11, 70, 92
12, 1239835, Note_off_c, 11, 70, 64
12, 1239840, Note_on_c, 11, 70, 92
12, 1239955, Note_off_c, 11, 70, 64
12, 1239960, Note_on_c, 11, 70, 92
12, 1240075, Note_off_c, 11, 70, 64
12, 1240080, Note_on_c, 11, 70, 92
12, 1240195, Note_off_c, 11, 70, 64
12, 1240200, Note_on_c, 11, 70, 92
12, 1240315, Note_off_c, 11, 70, 64
12, 1240320, Note_on_c, 11, 70, 92
12, 1240435, Note_off_c, 11, 70, 64
12, 1240440, Note_on_c, 11, 70, 92
12, 1240555, Note_off_c, 11, 70, 64
12, 1240560, Note_on_c, 11, 70, 92
12, 1240675, Note_off_c, 11, 70, 64
12, 1240680, Note_on_c, 11, 70, 92
12, 1240795, Note_off_c, 11, 70, 64
12, 1240800, Note_on_c, 11, 70, 92
12, 1240915, Note_off_c, 11, 70, 64
12, 1240920, Note_on_c, 11, 70, 92
12, 1241035, Note_off_c, 11, 70, 64
12, 1241040, Note_on_c, 11, 62, 92
12, 1241040, Note_on_c, 11, 71, 92
12, 1241155, Note_off_c, 11, 71, 64
12, 1241155, Note_off_c, 11, 62, 64
12, 1241160, Note_on_c, 11, 62, 92
12, 1241160, Note_on_c, 11, 71, 92
12, 1241275, Note_off_c, 11, 71, 64
12, 1241275, Note_off_c, 11, 62, 64
12, 1241280, Note_on_c, 11, 62, 92
12, 1241280, Note_on_c, 11, 71, 92
12, 1241395, Note_off_c, 11, 71, 64
12, 1241395, Note_off_c, 11, 62, 64
12, 1241400, Note_on_c, 11, 62, 92
12, 1241400, Note_on_c, 11, 71, 92
12, 1241515, Note_off_c, 11, 71, 64
12, 1241515, Note_off_c, 11, 62, 64
12, 1241520, Note_on_c, 11, 62, 92
12, 1241520, Note_on_c, 11, 71, 92
12, 1241635, Note_off_c, 11, 71, 64
12, 1241635, Note_off_c, 11, 62, 64
12, 1241640, Note_on_c, 11, 62, 92
12, 1241640, Note_on_c, 11, 71, 92
12, 1241755, Note_off_c, 11, 71, 64
12, 1241755, Note_off_c, 11, 62, 64
12, 1241760, Note_on_c, 11, 62, 92
12, 1241760, Note_on_c, 11, 71, 92
12, 1241875, Note_off_c, 11, 71, 64
12, 1241875, Note_off_c, 11, 62, 64
12, 1241880, Note_on_c, 11, 62, 92
12, 1241880, Note_on_c, 11, 71, 92
12, 1241995, Note_off_c, 11, 71, 64
12, 1241995, Note_off_c, 11, 62, 64
12, 1242000, Note_on_c, 11, 62, 92
12, 1242000, Note_on_c, 11, 71, 92
12, 1242115, Note_off_c, 11, 71, 64
12, 1242115, Note_off_c, 11, 62, 64
12, 1242120, Note_on_c, 11, 62, 92
12, 1242120, Note_on_c, 11, 71, 92
12, 1242235, Note_off_c, 11, 71, 64
12, 1242235, Note_off_c, 11, 62, 64
12, 1242240, Note_on_c, 11, 62, 92
12, 1242240, Note_on_c, 11, 71, 92
12, 1242355, Note_off_c, 11, 71, 64
12, 1242355, Note_off_c, 11, 62, 64
12, 1242360, Note_on_c, 11, 62, 92
12, 1242360, Note_on_c, 11, 71, 92
12, 1242475, Note_off_c, 11, 71, 64
12, 1242475, Note_off_c, 11, 62, 64
12, 1242480, Note_on_c, 11, 62, 92
12, 1242480, Note_on_c, 11, 71, 92
12, 1242595, Note_off_c, 11, 71, 64
12, 1242595, Note_off_c, 11, 62, 64
12, 1242600, Note_on_c, 11, 62, 92
12, 1242600, Note_on_c, 11, 71, 92
12, 1242715, Note_off_c, 11, 71, 64
12, 1242715, Note_off_c, 11, 62, 64
12, 1242720, Note_on_c, 11, 62, 92
12, 1242720, Note_on_c, 11, 71, 92
12, 1242835, Note_off_c, 11, 71, 64
12, 1242835, Note_off_c, 11, 62, 64
12, 1242840, Note_on_c, 11, 62, 92
12, 1242840, Note_on_c, 11, 71, 92
12, 1242955, Note_off_c, 11, 71, 64
12, 1242955, Note_off_c, 11, 62, 64
12, 1242960, Note_on_c, 11, 63, 92
12, 1242960, Note_on_c, 11, 72, 92
12, 1243075, Note_off_c, 11, 72, 64
12, 1243075, Note_off_c, 11, 63, 64
12, 1243080, Note_on_c, 11, 63, 92
12, 1243080, Note_on_c, 11, 72, 92
12, 1243195, Note_off_c, 11, 72, 64
12, 1243195, Note_off_c, 11, 63, 64
12, 1243200, Note_on_c, 11, 63, 92
12, 1243200, Note_on_c, 11, 72, 92
12, 1243315, Note_off_c, 11, 72, 64
12, 1243315, Note_off_c, 11, 63, 64
12, 1243320, Note_on_c, 11, 63, 92
12, 1243320, Note_on_c, 11, 72, 92
12, 1243435, Note_off_c, 11, 72, 64
12, 1243435, Note_off_c, 11, 63, 64
12, 1243440, Note_on_c, 11, 63, 92
12, 1243440, Note_on_c, 11, 72, 92
12, 1243555, Note_off_c, 11, 72, 64
12, 1243555, Note_off_c, 11, 63, 64
12, 1243560, Note_on_c, 11, 63, 92
12, 1243560, Note_on_c, 11, 72, 92
12, 1243675, Note_off_c, 11, 72, 64
12, 1243675, Note_off_c, 11, 63, 64
12, 1243680, Note_on_c, 11, 63, 92
12, 1243680, Note_on_c, 11, 72, 92
12, 1243795, Note_off_c, 11, 72, 64
12, 1243795, Note_off_c, 11, 63, 64
12, 1243800, Note_on_c, 11, 63, 92
12, 1243800, Note_on_c, 11, 72, 92
12, 1243915, Note_off_c, 11, 72, 64
12, 1243915, Note_off_c, 11, 63, 64
12, 1243920, Note_on_c, 11, 64, 92
12, 1243920, Note_on_c, 11, 72, 92
12, 1244035, Note_off_c, 11, 72, 64
12, 1244035, Note_off_c, 11, 64, 64
12, 1244040, Note_on_c, 11, 64, 92
12, 1244040, Note_on_c, 11, 72, 92
12, 1244155, Note_off_c, 11, 72, 64
12, 1244155, Note_off_c, 11, 64, 64
12, 1244160, Note_on_c, 11, 64, 92
12, 1244160, Note_on_c, 11, 72, 92
12, 1244275, Note_off_c, 11, 72, 64
12, 1244275, Note_off_c, 11, 64, 64
12, 1244280, Note_on_c, 11, 64, 92
12, 1244280, Note_on_c, 11, 72, 92
12, 1244395, Note_off_c, 11, 72, 64
12, 1244395, Note_off_c, 11, 64, 64
12, 1244400, Note_on_c, 11, 64, 92
12, 1244400, Note_on_c, 11, 72, 92
12, 1244515, Note_off_c, 11, 72, 64
12, 1244515, Note_off_c, 11, 64, 64
12, 1244520, Note_on_c, 11, 64, 92
12, 1244520, Note_on_c, 11, 72, 92
12, 1244635, Note_off_c, 11, 72, 64
12, 1244635, Note_off_c, 11, 64, 64
12, 1244640, Note_on_c, 11, 64, 92
12, 1244640, Note_on_c, 11, 72, 92
12, 1244755, Note_off_c, 11, 72, 64
12, 1244755, Note_off_c, 11, 64, 64
12, 1244760, Note_on_c, 11, 64, 92
12, 1244760, Note_on_c, 11, 72, 92
12, 1244875, Note_off_c, 11, 72, 64
12, 1244875, Note_off_c, 11, 64, 64
12, 1244880, Note_on_c, 11, 64, 92
12, 1244880, Note_on_c, 11, 73, 92
12, 1244995, Note_off_c, 11, 73, 64
12, 1244995, Note_off_c, 11, 64, 64
12, 1245000, Note_on_c, 11, 61, 45
12, 1245000, Note_on_c, 11, 64, 45
12, 1245115, Note_off_c, 11, 64, 64
12, 1245115, Note_off_c, 11, 61, 64
12, 1245120, Note_on_c, 11, 61, 45
12, 1245120, Note_on_c, 11, 64, 45
12, 1245235, Note_off_c, 11, 64, 64
12, 1245235, Note_off_c, 11, 61, 64
12, 1245240, Note_on_c, 11, 61, 45
12, 1245240, Note_on_c, 11, 64, 45
12, 1245355, Note_off_c, 11, 64, 64
12, 1245355, Note_off_c, 11, 61, 64
12, 1245360, Note_on_c, 11, 61, 45
12, 1245360, Note_on_c, 11, 64, 45
12, 1245475, Note_off_c, 11, 64, 64
12, 1245475, Note_off_c, 11, 61, 64
12, 1245480, Note_on_c, 11, 61, 45
12, 1245480, Note_on_c, 11, 64, 45
12, 1245595, Note_off_c, 11, 64, 64
12, 1245595, Note_off_c, 11, 61, 64
12, 1245600, Note_on_c, 11, 61, 45
12, 1245600, Note_on_c, 11, 64, 45
12, 1245715, Note_off_c, 11, 64, 64
12, 1245715, Note_off_c, 11, 61, 64
12, 1245720, Note_on_c, 11, 61, 45
12, 1245720, Note_on_c, 11, 64, 45
12, 1245835, Note_off_c, 11, 64, 64
12, 1245835, Note_off_c, 11, 61, 64
12, 1245840, Note_on_c, 11, 61, 45
12, 1245840, Note_on_c, 11, 64, 45
12, 1245955, Note_off_c, 11, 64, 64
12, 1245955, Note_off_c, 11, 61, 64
12, 1245960, Note_on_c, 11, 61, 45
12, 1245960, Note_on_c, 11, 64, 45
12, 1246075, Note_off_c, 11, 64, 64
12, 1246075, Note_off_c, 11, 61, 64
12, 1246080, Note_on_c, 11, 61, 45
12, 1246080, Note_on_c, 11, 64, 45
12, 1246195, Note_off_c, 11, 64, 64
12, 1246195, Note_off_c, 11, 61, 64
12, 1246200, Note_on_c, 11, 61, 45
12, 1246200, Note_on_c, 11, 64, 45
12, 1246315, Note_off_c, 11, 64, 64
12, 1246315, Note_off_c, 11, 61, 64
12, 1246320, Note_on_c, 11, 61, 45
12, 1246320, Note_on_c, 11, 64, 45
12, 1246435, Note_off_c, 11, 64, 64
12, 1246435, Note_off_c, 11, 61, 64
12, 1246440, Note_on_c, 11, 61, 45
12, 1246440, Note_on_c, 11, 64, 45
12, 1246555, Note_off_c, 11, 64, 64
12, 1246555, Note_off_c, 11, 61, 64
12, 1246560, Note_on_c, 11, 61, 45
12, 1246560, Note_on_c, 11, 64, 45
12, 1246675, Note_off_c, 11, 64, 64
12, 1246675, Note_off_c, 11, 61, 64
12, 1246680, Note_on_c, 11, 61, 45
12, 1246680, Note_on_c, 11, 64, 45
12, 1246795, Note_off_c, 11, 64, 64
12, 1246795, Note_off_c, 11, 61, 64
12, 1246800, Note_on_c, 11, 61, 45
12, 1246800, Note_on_c, 11, 64, 45
12, 1246915, Note_off_c, 11, 64, 64
12, 1246915, Note_off_c, 11, 61, 64
12, 1246920, Note_on_c, 11, 61, 45
12, 1246920, Note_on_c, 11, 64, 45
12, 1247035, Note_off_c, 11, 64, 64
12, 1247035, Note_off_c, 11, 61, 64
12, 1247040, Note_on_c, 11, 61, 45
12, 1247040, Note_on_c, 11, 64, 45
12, 1247155, Note_off_c, 11, 64, 64
12, 1247155, Note_off_c, 11, 61, 64
12, 1247160, Note_on_c, 11, 61, 45
12, 1247160, Note_on_c, 11, 64, 45
12, 1247275, Note_off_c, 11, 64, 64
12, 1247275, Note_off_c, 11, 61, 64
12, 1247280, Note_on_c, 11, 61, 45
12, 1247280, Note_on_c, 11, 64, 45
12, 1247395, Note_off_c, 11, 64, 64
12, 1247395, Note_off_c, 11, 61, 64
12, 1247400, Note_on_c, 11, 61, 45
12, 1247400, Note_on_c, 11, 64, 45
12, 1247515, Note_off_c, 11, 64, 64
12, 1247515, Note_off_c, 11, 61, 64
12, 1247520, Note_on_c, 11, 61, 45
12, 1247520, Note_on_c, 11, 64, 45
12, 1247635, Note_off_c, 11, 64, 64
12, 1247635, Note_off_c, 11, 61, 64
12, 1247640, Note_on_c, 11, 61, 45
12, 1247640, Note_on_c, 11, 64, 45
12, 1247755, Note_off_c, 11, 64, 64
12, 1247755, Note_off_c, 11, 61, 64
12, 1247760, Note_on_c, 11, 61, 45
12, 1247760, Note_on_c, 11, 64, 45
12, 1247875, Note_off_c, 11, 64, 64
12, 1247875, Note_off_c, 11, 61, 64
12, 1247880, Note_on_c, 11, 61, 45
12, 1247880, Note_on_c, 11, 64, 45
12, 1247995, Note_off_c, 11, 64, 64
12, 1247995, Note_off_c, 11, 61, 64
12, 1248000, Note_on_c, 11, 61, 45
12, 1248000, Note_on_c, 11, 64, 45
12, 1248115, Note_off_c, 11, 64, 64
12, 1248115, Note_off_c, 11, 61, 64
12, 1248120, Note_on_c, 11, 61, 45
12, 1248120, Note_on_c, 11, 64, 45
12, 1248235, Note_off_c, 11, 64, 64
12, 1248235, Note_off_c, 11, 61, 64
12, 1248240, Note_on_c, 11, 61, 45
12, 1248240, Note_on_c, 11, 64, 45
12, 1248355, Note_off_c, 11, 64, 64
12, 1248355, Note_off_c, 11, 61, 64
12, 1248360, Note_on_c, 11, 61, 45
12, 1248360, Note_on_c, 11, 64, 45
12, 1248475, Note_off_c, 11, 64, 64
12, 1248475, Note_off_c, 11, 61, 64
12, 1248480, Note_on_c, 11, 61, 45
12, 1248480, Note_on_c, 11, 64, 45
12, 1248595, Note_off_c, 11, 64, 64
12, 1248595, Note_off_c, 11, 61, 64
12, 1248600, Note_on_c, 11, 61, 45
12, 1248600, Note_on_c, 11, 64, 45
12, 1248715, Note_off_c, 11, 64, 64
12, 1248715, Note_off_c, 11, 61, 64
12, 1248720, Note_on_c, 11, 61, 45
12, 1248720, Note_on_c, 11, 64, 45
12, 1248835, Note_off_c, 11, 64, 64
12, 1248835, Note_off_c, 11, 61, 64
12, 1248840, Note_on_c, 11, 61, 45
12, 1248840, Note_on_c, 11, 64, 45
12, 1248955, Note_off_c, 11, 64, 64
12, 1248955, Note_off_c, 11, 61, 64
12, 1248960, Note_on_c, 11, 61, 45
12, 1248960, Note_on_c, 11, 64, 45
12, 1249075, Note_off_c, 11, 64, 64
12, 1249075, Note_off_c, 11, 61, 64
12, 1249080, Note_on_c, 11, 61, 45
12, 1249080, Note_on_c, 11, 64, 45
12, 1249195, Note_off_c, 11, 64, 64
12, 1249195, Note_off_c, 11, 61, 64
12, 1249200, Note_on_c, 11, 61, 45
12, 1249200, Note_on_c, 11, 64, 45
12, 1249315, Note_off_c, 11, 64, 64
12, 1249315, Note_off_c, 11, 61, 64
12, 1249320, Note_on_c, 11, 61, 45
12, 1249320, Note_on_c, 11, 64, 45
12, 1249435, Note_off_c, 11, 64, 64
12, 1249435, Note_off_c, 11, 61, 64
12, 1249440, Note_on_c, 11, 61, 45
12, 1249440, Note_on_c, 11, 64, 45
12, 1249555, Note_off_c, 11, 64, 64
12, 1249555, Note_off_c, 11, 61, 64
12, 1249560, Note_on_c, 11, 61, 45
12, 1249560, Note_on_c, 11, 64, 45
12, 1249675, Note_off_c, 11, 64, 64
12, 1249675, Note_off_c, 11, 61, 64
12, 1249680, Note_on_c, 11, 61, 45
12, 1249680, Note_on_c, 11, 64, 45
12, 1249795, Note_off_c, 11, 64, 64
12, 1249795, Note_off_c, 11, 61, 64
12, 1249800, Note_on_c, 11, 61, 45
12, 1249800, Note_on_c, 11, 64, 45
12, 1249915, Note_off_c, 11, 64, 64
12, 1249915, Note_off_c, 11, 61, 64
12, 1249920, Note_on_c, 11, 61, 45
12, 1249920, Note_on_c, 11, 64, 45
12, 1250035, Note_off_c, 11, 64, 64
12, 1250035, Note_off_c, 11, 61, 64
12, 1250040, Note_on_c, 11, 61, 45
12, 1250040, Note_on_c, 11, 64, 45
12, 1250155, Note_off_c, 11, 64, 64
12, 1250155, Note_off_c, 11, 61, 64
12, 1250160, Note_on_c, 11, 61, 45
12, 1250160, Note_on_c, 11, 64, 45
12, 1250275, Note_off_c, 11, 64, 64
12, 1250275, Note_off_c, 11, 61, 64
12, 1250280, Note_on_c, 11, 61, 45
12, 1250280, Note_on_c, 11, 64, 45
12, 1250395, Note_off_c, 11, 64, 64
12, 1250395, Note_off_c, 11, 61, 64
12, 1250400, Note_on_c, 11, 61, 45
12, 1250400, Note_on_c, 11, 64, 45
12, 1250515, Note_off_c, 11, 64, 64
12, 1250515, Note_off_c, 11, 61, 64
12, 1250520, Note_on_c, 11, 61, 45
12, 1250520, Note_on_c, 11, 64, 45
12, 1250635, Note_off_c, 11, 64, 64
12, 1250635, Note_off_c, 11, 61, 64
12, 1250640, Note_on_c, 11, 61, 45
12, 1250640, Note_on_c, 11, 64, 45
12, 1250755, Note_off_c, 11, 64, 64
12, 1250755, Note_off_c, 11, 61, 64
12, 1250760, Note_on_c, 11, 61, 45
12, 1250760, Note_on_c, 11, 64, 45
12, 1250875, Note_off_c, 11, 64, 64
12, 1250875, Note_off_c, 11, 61, 64
12, 1250880, Note_on_c, 11, 61, 45
12, 1250880, Note_on_c, 11, 64, 45
12, 1250995, Note_off_c, 11, 64, 64
12, 1250995, Note_off_c, 11, 61, 64
12, 1251000, Note_on_c, 11, 61, 45
12, 1251000, Note_on_c, 11, 64, 45
12, 1251115, Note_off_c, 11, 64, 64
12, 1251115, Note_off_c, 11, 61, 64
12, 1251120, Note_on_c, 11, 61, 45
12, 1251120, Note_on_c, 11, 64, 45
12, 1251235, Note_off_c, 11, 64, 64
12, 1251235, Note_off_c, 11, 61, 64
12, 1251240, Note_on_c, 11, 61, 45
12, 1251240, Note_on_c, 11, 64, 45
12, 1251355, Note_off_c, 11, 64, 64
12, 1251355, Note_off_c, 11, 61, 64
12, 1251360, Note_on_c, 11, 61, 45
12, 1251360, Note_on_c, 11, 64, 45
12, 1251475, Note_off_c, 11, 64, 64
12, 1251475, Note_off_c, 11, 61, 64
12, 1251480, Note_on_c, 11, 61, 45
12, 1251480, Note_on_c, 11, 64, 45
12, 1251595, Note_off_c, 11, 64, 64
12, 1251595, Note_off_c, 11, 61, 64
12, 1251600, Note_on_c, 11, 61, 45
12, 1251600, Note_on_c, 11, 64, 45
12, 1251715, Note_off_c, 11, 64, 64
12, 1251715, Note_off_c, 11, 61, 64
12, 1251720, Note_on_c, 11, 61, 45
12, 1251720, Note_on_c, 11, 64, 45
12, 1251835, Note_off_c, 11, 64, 64
12, 1251835, Note_off_c, 11, 61, 64
12, 1251840, Note_on_c, 11, 61, 45
12, 1251840, Note_on_c, 11, 64, 45
12, 1251955, Note_off_c, 11, 64, 64
12, 1251955, Note_off_c, 11, 61, 64
12, 1251960, Note_on_c, 11, 61, 45
12, 1251960, Note_on_c, 11, 64, 45
12, 1252075, Note_off_c, 11, 64, 64
12, 1252075, Note_off_c, 11, 61, 64
12, 1252080, Note_on_c, 11, 61, 45
12, 1252080, Note_on_c, 11, 64, 45
12, 1252195, Note_off_c, 11, 64, 64
12, 1252195, Note_off_c, 11, 61, 64
12, 1252200, Note_on_c, 11, 61, 45
12, 1252200, Note_on_c, 11, 64, 45
12, 1252315, Note_off_c, 11, 64, 64
12, 1252315, Note_off_c, 11, 61, 64
12, 1252320, Note_on_c, 11, 61, 45
12, 1252320, Note_on_c, 11, 64, 45
12, 1252435, Note_off_c, 11, 64, 64
12, 1252435, Note_off_c, 11, 61, 64
12, 1252440, Note_on_c, 11, 61, 45
12, 1252440, Note_on_c, 11, 64, 45
12, 1252555, Note_off_c, 11, 64, 64
12, 1252555, Note_off_c, 11, 61, 64
12, 1252560, Note_on_c, 11, 61, 45
12, 1252560, Note_on_c, 11, 64, 45
12, 1252675, Note_off_c, 11, 64, 64
12, 1252675, Note_off_c, 11, 61, 64
12, 1252680, Note_on_c, 11, 61, 45
12, 1252680, Note_on_c, 11, 64, 45
12, 1252795, Note_off_c, 11, 64, 64
12, 1252795, Note_off_c, 11, 61, 64
12, 1252800, Note_on_c, 11, 61, 45
12, 1252800, Note_on_c, 11, 64, 45
12, 1252915, Note_off_c, 11, 64, 64
12, 1252915, Note_off_c, 11, 61, 64
12, 1252920, Note_on_c, 11, 61, 45
12, 1252920, Note_on_c, 11, 64, 45
12, 1253035, Note_off_c, 11, 64, 64
12, 1253035, Note_off_c, 11, 61, 64
12, 1253040, Note_on_c, 11, 61, 45
12, 1253040, Note_on_c, 11, 64, 45
12, 1253155, Note_off_c, 11, 64, 64
12, 1253155, Note_off_c, 11, 61, 64
12, 1253160, Note_on_c, 11, 61, 45
12, 1253160, Note_on_c, 11, 64, 45
12, 1253275, Note_off_c, 11, 64, 64
12, 1253275, Note_off_c, 11, 61, 64
12, 1253280, Note_on_c, 11, 61, 45
12, 1253280, Note_on_c, 11, 64, 45
12, 1253395, Note_off_c, 11, 64, 64
12, 1253395, Note_off_c, 11, 61, 64
12, 1253400, Note_on_c, 11, 61, 45
12, 1253400, Note_on_c, 11, 64, 45
12, 1253515, Note_off_c, 11, 64, 64
12, 1253515, Note_off_c, 11, 61, 64
12, 1253520, Note_on_c, 11, 61, 45
12, 1253520, Note_on_c, 11, 64, 45
12, 1253635, Note_off_c, 11, 64, 64
12, 1253635, Note_off_c, 11, 61, 64
12, 1253640, Note_on_c, 11, 61, 45
12, 1253640, Note_on_c, 11, 64, 45
12, 1253755, Note_off_c, 11, 64, 64
12, 1253755, Note_off_c, 11, 61, 64
12, 1253760, Note_on_c, 11, 61, 45
12, 1253760, Note_on_c, 11, 64, 45
12, 1253875, Note_off_c, 11, 64, 64
12, 1253875, Note_off_c, 11, 61, 64
12, 1253880, Note_on_c, 11, 61, 45
12, 1253880, Note_on_c, 11, 64, 45
12, 1253995, Note_off_c, 11, 64, 64
12, 1253995, Note_off_c, 11, 61, 64
12, 1254000, Note_on_c, 11, 61, 45
12, 1254000, Note_on_c, 11, 64, 45
12, 1254115, Note_off_c, 11, 64, 64
12, 1254115, Note_off_c, 11, 61, 64
12, 1254120, Note_on_c, 11, 61, 45
12, 1254120, Note_on_c, 11, 64, 45
12, 1254235, Note_off_c, 11, 64, 64
12, 1254235, Note_off_c, 11, 61, 64
12, 1254240, Note_on_c, 11, 61, 45
12, 1254240, Note_on_c, 11, 64, 45
12, 1254355, Note_off_c, 11, 64, 64
12, 1254355, Note_off_c, 11, 61, 64
12, 1254360, Note_on_c, 11, 61, 45
12, 1254360, Note_on_c, 11, 64, 45
12, 1254475, Note_off_c, 11, 64, 64
12, 1254475, Note_off_c, 11, 61, 64
12, 1254480, Note_on_c, 11, 61, 45
12, 1254480, Note_on_c, 11, 64, 45
12, 1254595, Note_off_c, 11, 64, 64
12, 1254595, Note_off_c, 11, 61, 64
12, 1254600, Note_on_c, 11, 61, 45
12, 1254600, Note_on_c, 11, 64, 45
12, 1254715, Note_off_c, 11, 64, 64
12, 1254715, Note_off_c, 11, 61, 64
12, 1254720, Note_on_c, 11, 61, 44
12, 1254720, Note_on_c, 11, 64, 44
12, 1254835, Note_off_c, 11, 64, 64
12, 1254835, Note_off_c, 11, 61, 64
12, 1254840, Note_on_c, 11, 61, 43
12, 1254840, Note_on_c, 11, 64, 43
12, 1254955, Note_off_c, 11, 64, 64
12, 1254955, Note_off_c, 11, 61, 64
12, 1254960, Note_on_c, 11, 61, 42
12, 1254960, Note_on_c, 11, 64, 42
12, 1255075, Note_off_c, 11, 64, 64
12, 1255075, Note_off_c, 11, 61, 64
12, 1255080, Note_on_c, 11, 61, 41
12, 1255080, Note_on_c, 11, 64, 41
12, 1255195, Note_off_c, 11, 64, 64
12, 1255195, Note_off_c, 11, 61, 64
12, 1255200, Note_on_c, 11, 61, 40
12, 1255200, Note_on_c, 11, 64, 40
12, 1255315, Note_off_c, 11, 64, 64
12, 1255315, Note_off_c, 11, 61, 64
12, 1255320, Note_on_c, 11, 61, 39
12, 1255320, Note_on_c, 11, 64, 39
12, 1255435, Note_off_c, 11, 64, 64
12, 1255435, Note_off_c, 11, 61, 64
12, 1255440, Note_on_c, 11, 61, 38
12, 1255440, Note_on_c, 11, 64, 38
12, 1255555, Note_off_c, 11, 64, 64
12, 1255555, Note_off_c, 11, 61, 64
12, 1255560, Note_on_c, 11, 61, 37
12, 1255560, Note_on_c, 11, 64, 37
12, 1255675, Note_off_c, 11, 64, 64
12, 1255675, Note_off_c, 11, 61, 64
12, 1255680, Note_on_c, 11, 61, 36
12, 1255680, Note_on_c, 11, 64, 36
12, 1255795, Note_off_c, 11, 64, 64
12, 1255795, Note_off_c, 11, 61, 64
12, 1255800, Note_on_c, 11, 61, 35
12, 1255800, Note_on_c, 11, 64, 35
12, 1255915, Note_off_c, 11, 64, 64
12, 1255915, Note_off_c, 11, 61, 64
12, 1255920, Note_on_c, 11, 61, 34
12, 1255920, Note_on_c, 11, 64, 34
12, 1256035, Note_off_c, 11, 64, 64
12, 1256035, Note_off_c, 11, 61, 64
12, 1256040, Note_on_c, 11, 61, 33
12, 1256040, Note_on_c, 11, 64, 33
12, 1256155, Note_off_c, 11, 64, 64
12, 1256155, Note_off_c, 11, 61, 64
12, 1256160, Note_on_c, 11, 61, 32
12, 1256160, Note_on_c, 11, 64, 32
12, 1256275, Note_off_c, 11, 64, 64
12, 1256275, Note_off_c, 11, 61, 64
12, 1256280, Note_on_c, 11, 61, 31
12, 1256280, Note_on_c, 11, 64, 31
12, 1256395, Note_off_c, 11, 64, 64
12, 1256395, Note_off_c, 11, 61, 64
12, 1256400, Note_on_c, 11, 57, 30
12, 1256515, Note_off_c, 11, 57, 64
12, 1256520, Note_on_c, 11, 57, 30
12, 1256635, Note_off_c, 11, 57, 64
12, 1256640, Note_on_c, 11, 57, 30
12, 1256755, Note_off_c, 11, 57, 64
12, 1256760, Note_on_c, 11, 57, 30
12, 1256875, Note_off_c, 11, 57, 64
12, 1256880, Note_on_c, 11, 57, 30
12, 1256995, Note_off_c, 11, 57, 64
12, 1257000, Note_on_c, 11, 57, 30
12, 1257115, Note_off_c, 11, 57, 64
12, 1257120, Note_on_c, 11, 57, 30
12, 1257235, Note_off_c, 11, 57, 64
12, 1257240, Note_on_c, 11, 57, 30
12, 1257355, Note_off_c, 11, 57, 64
12, 1257360, Note_on_c, 11, 57, 30
12, 1257475, Note_off_c, 11, 57, 64
12, 1257480, Note_on_c, 11, 57, 30
12, 1257595, Note_off_c, 11, 57, 64
12, 1257600, Note_on_c, 11, 57, 30
12, 1257715, Note_off_c, 11, 57, 64
12, 1257720, Note_on_c, 11, 57, 30
12, 1257835, Note_off_c, 11, 57, 64
12, 1257840, Note_on_c, 11, 57, 30
12, 1257955, Note_off_c, 11, 57, 64
12, 1257960, Note_on_c, 11, 57, 30
12, 1258075, Note_off_c, 11, 57, 64
12, 1258080, Note_on_c, 11, 57, 30
12, 1258195, Note_off_c, 11, 57, 64
12, 1258200, Note_on_c, 11, 57, 30
12, 1258315, Note_off_c, 11, 57, 64
12, 1258320, Note_on_c, 11, 57, 30
12, 1258435, Note_off_c, 11, 57, 64
12, 1258440, Note_on_c, 11, 57, 30
12, 1258555, Note_off_c, 11, 57, 64
12, 1258560, Note_on_c, 11, 57, 30
12, 1258675, Note_off_c, 11, 57, 64
12, 1258680, Note_on_c, 11, 57, 30
12, 1258795, Note_off_c, 11, 57, 64
12, 1258800, Note_on_c, 11, 57, 30
12, 1258915, Note_off_c, 11, 57, 64
12, 1258920, Note_on_c, 11, 57, 30
12, 1259035, Note_off_c, 11, 57, 64
12, 1259040, Note_on_c, 11, 57, 30
12, 1259155, Note_off_c, 11, 57, 64
12, 1259160, Note_on_c, 11, 57, 30
12, 1259275, Note_off_c, 11, 57, 64
12, 1259280, Note_on_c, 11, 57, 30
12, 1259395, Note_off_c, 11, 57, 64
12, 1259400, Note_on_c, 11, 57, 30
12, 1259515, Note_off_c, 11, 57, 64
12, 1259520, Note_on_c, 11, 57, 30
12, 1259635, Note_off_c, 11, 57, 64
12, 1259640, Note_on_c, 11, 57, 30
12, 1259755, Note_off_c, 11, 57, 64
12, 1259760, Note_on_c, 11, 57, 30
12, 1259875, Note_off_c, 11, 57, 64
12, 1259880, Note_on_c, 11, 57, 30
12, 1259995, Note_off_c, 11, 57, 64
12, 1260000, Note_on_c, 11, 57, 30
12, 1260115, Note_off_c, 11, 57, 64
12, 1260120, Note_on_c, 11, 57, 30
12, 1260235, Note_off_c, 11, 57, 64
12, 1260240, Note_on_c, 11, 57, 30
12, 1260355, Note_off_c, 11, 57, 64
12, 1260360, Note_on_c, 11, 57, 30
12, 1260475, Note_off_c, 11, 57, 64
12, 1260480, Note_on_c, 11, 57, 30
12, 1260595, Note_off_c, 11, 57, 64
12, 1260600, Note_on_c, 11, 57, 30
12, 1260715, Note_off_c, 11, 57, 64
12, 1260720, Note_on_c, 11, 57, 30
12, 1260835, Note_off_c, 11, 57, 64
12, 1260840, Note_on_c, 11, 57, 30
12, 1260955, Note_off_c, 11, 57, 64
12, 1260960, Note_on_c, 11, 57, 30
12, 1261075, Note_off_c, 11, 57, 64
12, 1261080, Note_on_c, 11, 57, 30
12, 1261195, Note_off_c, 11, 57, 64
12, 1261200, Note_on_c, 11, 57, 30
12, 1261315, Note_off_c, 11, 57, 64
12, 1261320, Note_on_c, 11, 57, 30
12, 1261435, Note_off_c, 11, 57, 64
12, 1261440, Note_on_c, 11, 57, 30
12, 1261555, Note_off_c, 11, 57, 64
12, 1261560, Note_on_c, 11, 57, 30
12, 1261675, Note_off_c, 11, 57, 64
12, 1261680, Note_on_c, 11, 57, 30
12, 1261795, Note_off_c, 11, 57, 64
12, 1261800, Note_on_c, 11, 57, 30
12, 1261915, Note_off_c, 11, 57, 64
12, 1261920, Note_on_c, 11, 57, 30
12, 1262035, Note_off_c, 11, 57, 64
12, 1262040, Note_on_c, 11, 57, 30
12, 1262155, Note_off_c, 11, 57, 64
12, 1262160, Note_on_c, 11, 57, 30
12, 1262275, Note_off_c, 11, 57, 64
12, 1262280, Note_on_c, 11, 57, 30
12, 1262395, Note_off_c, 11, 57, 64
12, 1262400, Note_on_c, 11, 57, 30
12, 1262515, Note_off_c, 11, 57, 64
12, 1262520, Note_on_c, 11, 57, 30
12, 1262635, Note_off_c, 11, 57, 64
12, 1262640, Note_on_c, 11, 57, 30
12, 1262755, Note_off_c, 11, 57, 64
12, 1262760, Note_on_c, 11, 57, 30
12, 1262875, Note_off_c, 11, 57, 64
12, 1262880, Note_on_c, 11, 57, 30
12, 1262995, Note_off_c, 11, 57, 64
12, 1263000, Note_on_c, 11, 57, 30
12, 1263115, Note_off_c, 11, 57, 64
12, 1263120, Note_on_c, 11, 57, 30
12, 1263235, Note_off_c, 11, 57, 64
12, 1263240, Note_on_c, 11, 57, 30
12, 1263355, Note_off_c, 11, 57, 64
12, 1263360, Note_on_c, 11, 57, 30
12, 1263475, Note_off_c, 11, 57, 64
12, 1263480, Note_on_c, 11, 57, 30
12, 1263595, Note_off_c, 11, 57, 64
12, 1263600, Note_on_c, 11, 57, 30
12, 1263715, Note_off_c, 11, 57, 64
12, 1263720, Note_on_c, 11, 57, 30
12, 1263835, Note_off_c, 11, 57, 64
12, 1263840, Note_on_c, 11, 57, 30
12, 1263955, Note_off_c, 11, 57, 64
12, 1263960, Note_on_c, 11, 57, 30
12, 1264075, Note_off_c, 11, 57, 64
12, 1264080, Note_on_c, 11, 62, 30
12, 1264195, Note_off_c, 11, 62, 64
12, 1264200, Note_on_c, 11, 62, 30
12, 1264315, Note_off_c, 11, 62, 64
12, 1264320, Note_on_c, 11, 62, 30
12, 1264435, Note_off_c, 11, 62, 64
12, 1264440, Note_on_c, 11, 62, 30
12, 1264555, Note_off_c, 11, 62, 64
12, 1264560, Note_on_c, 11, 62, 30
12, 1264675, Note_off_c, 11, 62, 64
12, 1264680, Note_on_c, 11, 62, 30
12, 1264795, Note_off_c, 11, 62, 64
12, 1264800, Note_on_c, 11, 62, 30
12, 1264915, Note_off_c, 11, 62, 64
12, 1264920, Note_on_c, 11, 62, 30
12, 1265035, Note_off_c, 11, 62, 64
12, 1265040, Note_on_c, 11, 62, 30
12, 1265155, Note_off_c, 11, 62, 64
12, 1265160, Note_on_c, 11, 62, 30
12, 1265275, Note_off_c, 11, 62, 64
12, 1265280, Note_on_c, 11, 62, 30
12, 1265395, Note_off_c, 11, 62, 64
12, 1265400, Note_on_c, 11, 62, 30
12, 1265515, Note_off_c, 11, 62, 64
12, 1265520, Note_on_c, 11, 62, 30
12, 1265635, Note_off_c, 11, 62, 64
12, 1265640, Note_on_c, 11, 62, 30
12, 1265755, Note_off_c, 11, 62, 64
12, 1265760, Note_on_c, 11, 62, 30
12, 1265875, Note_off_c, 11, 62, 64
12, 1265880, Note_on_c, 11, 62, 30
12, 1265995, Note_off_c, 11, 62, 64
12, 1266000, Note_on_c, 11, 62, 30
12, 1266115, Note_off_c, 11, 62, 64
12, 1266120, Note_on_c, 11, 62, 30
12, 1266235, Note_off_c, 11, 62, 64
12, 1266240, Note_on_c, 11, 62, 30
12, 1266355, Note_off_c, 11, 62, 64
12, 1266360, Note_on_c, 11, 62, 30
12, 1266475, Note_off_c, 11, 62, 64
12, 1266480, Note_on_c, 11, 62, 30
12, 1266595, Note_off_c, 11, 62, 64
12, 1266600, Note_on_c, 11, 62, 30
12, 1266715, Note_off_c, 11, 62, 64
12, 1266720, Note_on_c, 11, 62, 30
12, 1266835, Note_off_c, 11, 62, 64
12, 1266840, Note_on_c, 11, 62, 30
12, 1266955, Note_off_c, 11, 62, 64
12, 1266960, Note_on_c, 11, 62, 30
12, 1267075, Note_off_c, 11, 62, 64
12, 1267080, Note_on_c, 11, 62, 30
12, 1267195, Note_off_c, 11, 62, 64
12, 1267200, Note_on_c, 11, 62, 30
12, 1267315, Note_off_c, 11, 62, 64
12, 1267320, Note_on_c, 11, 62, 30
12, 1267435, Note_off_c, 11, 62, 64
12, 1267440, Note_on_c, 11, 62, 30
12, 1267555, Note_off_c, 11, 62, 64
12, 1267560, Note_on_c, 11, 62, 30
12, 1267675, Note_off_c, 11, 62, 64
12, 1267680, Note_on_c, 11, 62, 30
12, 1267795, Note_off_c, 11, 62, 64
12, 1267800, Note_on_c, 11, 62, 30
12, 1267915, Note_off_c, 11, 62, 64
12, 1267920, Note_on_c, 11, 60, 30
12, 1267920, Note_on_c, 11, 63, 30
12, 1268035, Note_off_c, 11, 63, 64
12, 1268035, Note_off_c, 11, 60, 64
12, 1268040, Note_on_c, 11, 60, 30
12, 1268040, Note_on_c, 11, 63, 30
12, 1268155, Note_off_c, 11, 63, 64
12, 1268155, Note_off_c, 11, 60, 64
12, 1268160, Note_on_c, 11, 60, 30
12, 1268160, Note_on_c, 11, 63, 30
12, 1268275, Note_off_c, 11, 63, 64
12, 1268275, Note_off_c, 11, 60, 64
12, 1268280, Note_on_c, 11, 60, 30
12, 1268280, Note_on_c, 11, 63, 30
12, 1268395, Note_off_c, 11, 63, 64
12, 1268395, Note_off_c, 11, 60, 64
12, 1268400, Note_on_c, 11, 60, 30
12, 1268400, Note_on_c, 11, 63, 30
12, 1268515, Note_off_c, 11, 63, 64
12, 1268515, Note_off_c, 11, 60, 64
12, 1268520, Note_on_c, 11, 60, 30
12, 1268520, Note_on_c, 11, 63, 30
12, 1268635, Note_off_c, 11, 63, 64
12, 1268635, Note_off_c, 11, 60, 64
12, 1268640, Note_on_c, 11, 60, 30
12, 1268640, Note_on_c, 11, 63, 30
12, 1268755, Note_off_c, 11, 63, 64
12, 1268755, Note_off_c, 11, 60, 64
12, 1268760, Note_on_c, 11, 60, 30
12, 1268760, Note_on_c, 11, 63, 30
12, 1268875, Note_off_c, 11, 63, 64
12, 1268875, Note_off_c, 11, 60, 64
12, 1268880, Note_on_c, 11, 60, 30
12, 1268880, Note_on_c, 11, 63, 30
12, 1268995, Note_off_c, 11, 63, 64
12, 1268995, Note_off_c, 11, 60, 64
12, 1269000, Note_on_c, 11, 60, 30
12, 1269000, Note_on_c, 11, 63, 30
12, 1269115, Note_off_c, 11, 63, 64
12, 1269115, Note_off_c, 11, 60, 64
12, 1269120, Note_on_c, 11, 60, 30
12, 1269120, Note_on_c, 11, 63, 30
12, 1269235, Note_off_c, 11, 63, 64
12, 1269235, Note_off_c, 11, 60, 64
12, 1269240, Note_on_c, 11, 60, 30
12, 1269240, Note_on_c, 11, 63, 30
12, 1269355, Note_off_c, 11, 63, 64
12, 1269355, Note_off_c, 11, 60, 64
12, 1269360, Note_on_c, 11, 60, 30
12, 1269360, Note_on_c, 11, 63, 30
12, 1269475, Note_off_c, 11, 63, 64
12, 1269475, Note_off_c, 11, 60, 64
12, 1269480, Note_on_c, 11, 60, 30
12, 1269480, Note_on_c, 11, 63, 30
12, 1269595, Note_off_c, 11, 63, 64
12, 1269595, Note_off_c, 11, 60, 64
12, 1269600, Note_on_c, 11, 60, 30
12, 1269600, Note_on_c, 11, 63, 30
12, 1269715, Note_off_c, 11, 63, 64
12, 1269715, Note_off_c, 11, 60, 64
12, 1269720, Note_on_c, 11, 60, 30
12, 1269720, Note_on_c, 11, 63, 30
12, 1269835, Note_off_c, 11, 63, 64
12, 1269835, Note_off_c, 11, 60, 64
12, 1269840, Note_on_c, 11, 60, 30
12, 1269840, Note_on_c, 11, 63, 30
12, 1269955, Note_off_c, 11, 63, 64
12, 1269955, Note_off_c, 11, 60, 64
12, 1269960, Note_on_c, 11, 60, 30
12, 1269960, Note_on_c, 11, 63, 30
12, 1270075, Note_off_c, 11, 63, 64
12, 1270075, Note_off_c, 11, 60, 64
12, 1270080, Note_on_c, 11, 60, 30
12, 1270080, Note_on_c, 11, 63, 30
12, 1270195, Note_off_c, 11, 63, 64
12, 1270195, Note_off_c, 11, 60, 64
12, 1270200, Note_on_c, 11, 60, 30
12, 1270200, Note_on_c, 11, 63, 30
12, 1270315, Note_off_c, 11, 63, 64
12, 1270315, Note_off_c, 11, 60, 64
12, 1270320, Note_on_c, 11, 60, 30
12, 1270320, Note_on_c, 11, 63, 30
12, 1270435, Note_off_c, 11, 63, 64
12, 1270435, Note_off_c, 11, 60, 64
12, 1270440, Note_on_c, 11, 60, 30
12, 1270440, Note_on_c, 11, 63, 30
12, 1270555, Note_off_c, 11, 63, 64
12, 1270555, Note_off_c, 11, 60, 64
12, 1270560, Note_on_c, 11, 60, 30
12, 1270560, Note_on_c, 11, 63, 30
12, 1270675, Note_off_c, 11, 63, 64
12, 1270675, Note_off_c, 11, 60, 64
12, 1270680, Note_on_c, 11, 60, 30
12, 1270680, Note_on_c, 11, 63, 30
12, 1270795, Note_off_c, 11, 63, 64
12, 1270795, Note_off_c, 11, 60, 64
12, 1270800, Note_on_c, 11, 60, 30
12, 1270800, Note_on_c, 11, 63, 30
12, 1270915, Note_off_c, 11, 63, 64
12, 1270915, Note_off_c, 11, 60, 64
12, 1270920, Note_on_c, 11, 60, 30
12, 1270920, Note_on_c, 11, 63, 30
12, 1271035, Note_off_c, 11, 63, 64
12, 1271035, Note_off_c, 11, 60, 64
12, 1271040, Note_on_c, 11, 60, 30
12, 1271040, Note_on_c, 11, 63, 30
12, 1271155, Note_off_c, 11, 63, 64
12, 1271155, Note_off_c, 11, 60, 64
12, 1271160, Note_on_c, 11, 60, 30
12, 1271160, Note_on_c, 11, 63, 30
12, 1271275, Note_off_c, 11, 63, 64
12, 1271275, Note_off_c, 11, 60, 64
12, 1271280, Note_on_c, 11, 60, 30
12, 1271280, Note_on_c, 11, 63, 30
12, 1271395, Note_off_c, 11, 63, 64
12, 1271395, Note_off_c, 11, 60, 64
12, 1271400, Note_on_c, 11, 60, 30
12, 1271400, Note_on_c, 11, 63, 30
12, 1271515, Note_off_c, 11, 63, 64
12, 1271515, Note_off_c, 11, 60, 64
12, 1271520, Note_on_c, 11, 60, 30
12, 1271520, Note_on_c, 11, 63, 30
12, 1271635, Note_off_c, 11, 63, 64
12, 1271635, Note_off_c, 11, 60, 64
12, 1271640, Note_on_c, 11, 60, 30
12, 1271640, Note_on_c, 11, 63, 30
12, 1271755, Note_off_c, 11, 63, 64
12, 1271755, Note_off_c, 11, 60, 64
12, 1271760, Note_on_c, 11, 60, 30
12, 1271760, Note_on_c, 11, 63, 30
12, 1271875, Note_off_c, 11, 63, 64
12, 1271875, Note_off_c, 11, 60, 64
12, 1271880, Note_on_c, 11, 60, 30
12, 1271880, Note_on_c, 11, 63, 30
12, 1271995, Note_off_c, 11, 63, 64
12, 1271995, Note_off_c, 11, 60, 64
12, 1272000, Note_on_c, 11, 60, 30
12, 1272000, Note_on_c, 11, 63, 30
12, 1272115, Note_off_c, 11, 63, 64
12, 1272115, Note_off_c, 11, 60, 64
12, 1272120, Note_on_c, 11, 60, 30
12, 1272120, Note_on_c, 11, 63, 30
12, 1272235, Note_off_c, 11, 63, 64
12, 1272235, Note_off_c, 11, 60, 64
12, 1272240, Note_on_c, 11, 60, 30
12, 1272240, Note_on_c, 11, 63, 30
12, 1272355, Note_off_c, 11, 63, 64
12, 1272355, Note_off_c, 11, 60, 64
12, 1272360, Note_on_c, 11, 60, 30
12, 1272360, Note_on_c, 11, 63, 30
12, 1272475, Note_off_c, 11, 63, 64
12, 1272475, Note_off_c, 11, 60, 64
12, 1272480, Note_on_c, 11, 60, 30
12, 1272480, Note_on_c, 11, 63, 30
12, 1272595, Note_off_c, 11, 63, 64
12, 1272595, Note_off_c, 11, 60, 64
12, 1272600, Note_on_c, 11, 60, 30
12, 1272600, Note_on_c, 11, 63, 30
12, 1272715, Note_off_c, 11, 63, 64
12, 1272715, Note_off_c, 11, 60, 64
12, 1272720, Note_on_c, 11, 60, 30
12, 1272720, Note_on_c, 11, 63, 30
12, 1272835, Note_off_c, 11, 63, 64
12, 1272835, Note_off_c, 11, 60, 64
12, 1272840, Note_on_c, 11, 60, 30
12, 1272840, Note_on_c, 11, 63, 30
12, 1272955, Note_off_c, 11, 63, 64
12, 1272955, Note_off_c, 11, 60, 64
12, 1272960, Note_on_c, 11, 60, 30
12, 1272960, Note_on_c, 11, 63, 30
12, 1273075, Note_off_c, 11, 63, 64
12, 1273075, Note_off_c, 11, 60, 64
12, 1273080, Note_on_c, 11, 60, 30
12, 1273080, Note_on_c, 11, 63, 30
12, 1273195, Note_off_c, 11, 63, 64
12, 1273195, Note_off_c, 11, 60, 64
12, 1273200, Note_on_c, 11, 60, 30
12, 1273200, Note_on_c, 11, 63, 30
12, 1273315, Note_off_c, 11, 63, 64
12, 1273315, Note_off_c, 11, 60, 64
12, 1273320, Note_on_c, 11, 60, 30
12, 1273320, Note_on_c, 11, 63, 30
12, 1273435, Note_off_c, 11, 63, 64
12, 1273435, Note_off_c, 11, 60, 64
12, 1273440, Note_on_c, 11, 60, 30
12, 1273440, Note_on_c, 11, 63, 30
12, 1273555, Note_off_c, 11, 63, 64
12, 1273555, Note_off_c, 11, 60, 64
12, 1273560, Note_on_c, 11, 60, 30
12, 1273560, Note_on_c, 11, 63, 30
12, 1273675, Note_off_c, 11, 63, 64
12, 1273675, Note_off_c, 11, 60, 64
12, 1273680, Note_on_c, 11, 60, 30
12, 1273680, Note_on_c, 11, 63, 30
12, 1273795, Note_off_c, 11, 63, 64
12, 1273795, Note_off_c, 11, 60, 64
12, 1273800, Note_on_c, 11, 60, 30
12, 1273800, Note_on_c, 11, 63, 30
12, 1273915, Note_off_c, 11, 63, 64
12, 1273915, Note_off_c, 11, 60, 64
12, 1273920, Note_on_c, 11, 60, 30
12, 1273920, Note_on_c, 11, 63, 30
12, 1274035, Note_off_c, 11, 63, 64
12, 1274035, Note_off_c, 11, 60, 64
12, 1274040, Note_on_c, 11, 60, 30
12, 1274040, Note_on_c, 11, 63, 30
12, 1274155, Note_off_c, 11, 63, 64
12, 1274155, Note_off_c, 11, 60, 64
12, 1274160, Note_on_c, 11, 60, 30
12, 1274160, Note_on_c, 11, 63, 30
12, 1274275, Note_off_c, 11, 63, 64
12, 1274275, Note_off_c, 11, 60, 64
12, 1274280, Note_on_c, 11, 60, 30
12, 1274280, Note_on_c, 11, 63, 30
12, 1274395, Note_off_c, 11, 63, 64
12, 1274395, Note_off_c, 11, 60, 64
12, 1274400, Note_on_c, 11, 60, 30
12, 1274400, Note_on_c, 11, 63, 30
12, 1274515, Note_off_c, 11, 63, 64
12, 1274515, Note_off_c, 11, 60, 64
12, 1274520, Note_on_c, 11, 60, 30
12, 1274520, Note_on_c, 11, 63, 30
12, 1274635, Note_off_c, 11, 63, 64
12, 1274635, Note_off_c, 11, 60, 64
12, 1274640, Note_on_c, 11, 60, 30
12, 1274640, Note_on_c, 11, 63, 30
12, 1274755, Note_off_c, 11, 63, 64
12, 1274755, Note_off_c, 11, 60, 64
12, 1274760, Note_on_c, 11, 60, 30
12, 1274760, Note_on_c, 11, 63, 30
12, 1274875, Note_off_c, 11, 63, 64
12, 1274875, Note_off_c, 11, 60, 64
12, 1274880, Note_on_c, 11, 60, 30
12, 1274880, Note_on_c, 11, 63, 30
12, 1274995, Note_off_c, 11, 63, 64
12, 1274995, Note_off_c, 11, 60, 64
12, 1275000, Note_on_c, 11, 60, 30
12, 1275000, Note_on_c, 11, 63, 30
12, 1275115, Note_off_c, 11, 63, 64
12, 1275115, Note_off_c, 11, 60, 64
12, 1275120, Note_on_c, 11, 60, 30
12, 1275120, Note_on_c, 11, 63, 30
12, 1275235, Note_off_c, 11, 63, 64
12, 1275235, Note_off_c, 11, 60, 64
12, 1275240, Note_on_c, 11, 60, 30
12, 1275240, Note_on_c, 11, 63, 30
12, 1275355, Note_off_c, 11, 63, 64
12, 1275355, Note_off_c, 11, 60, 64
12, 1275360, Note_on_c, 11, 60, 30
12, 1275360, Note_on_c, 11, 63, 30
12, 1275475, Note_off_c, 11, 63, 64
12, 1275475, Note_off_c, 11, 60, 64
12, 1275480, Note_on_c, 11, 60, 30
12, 1275480, Note_on_c, 11, 63, 30
12, 1275595, Note_off_c, 11, 63, 64
12, 1275595, Note_off_c, 11, 60, 64
12, 1275600, Note_on_c, 11, 60, 30
12, 1275600, Note_on_c, 11, 63, 30
12, 1275715, Note_off_c, 11, 63, 64
12, 1275715, Note_off_c, 11, 60, 64
12, 1275720, Note_on_c, 11, 60, 30
12, 1275720, Note_on_c, 11, 63, 30
12, 1275835, Note_off_c, 11, 63, 64
12, 1275835, Note_off_c, 11, 60, 64
12, 1275840, Note_on_c, 11, 60, 30
12, 1275840, Note_on_c, 11, 63, 30
12, 1275955, Note_off_c, 11, 63, 64
12, 1275955, Note_off_c, 11, 60, 64
12, 1275960, Note_on_c, 11, 60, 30
12, 1275960, Note_on_c, 11, 63, 30
12, 1276075, Note_off_c, 11, 63, 64
12, 1276075, Note_off_c, 11, 60, 64
12, 1276080, Note_on_c, 11, 60, 30
12, 1276080, Note_on_c, 11, 63, 30
12, 1276195, Note_off_c, 11, 63, 64
12, 1276195, Note_off_c, 11, 60, 64
12, 1276200, Note_on_c, 11, 60, 31
12, 1276200, Note_on_c, 11, 63, 31
12, 1276315, Note_off_c, 11, 63, 64
12, 1276315, Note_off_c, 11, 60, 64
12, 1276320, Note_on_c, 11, 60, 32
12, 1276320, Note_on_c, 11, 63, 32
12, 1276435, Note_off_c, 11, 63, 64
12, 1276435, Note_off_c, 11, 60, 64
12, 1276440, Note_on_c, 11, 60, 33
12, 1276440, Note_on_c, 11, 63, 33
12, 1276555, Note_off_c, 11, 63, 64
12, 1276555, Note_off_c, 11, 60, 64
12, 1276560, Note_on_c, 11, 60, 34
12, 1276560, Note_on_c, 11, 63, 34
12, 1276675, Note_off_c, 11, 63, 64
12, 1276675, Note_off_c, 11, 60, 64
12, 1276680, Note_on_c, 11, 60, 35
12, 1276680, Note_on_c, 11, 63, 35
12, 1276795, Note_off_c, 11, 63, 64
12, 1276795, Note_off_c, 11, 60, 64
12, 1276800, Note_on_c, 11, 60, 36
12, 1276800, Note_on_c, 11, 63, 36
12, 1276915, Note_off_c, 11, 63, 64
12, 1276915, Note_off_c, 11, 60, 64
12, 1276920, Note_on_c, 11, 60, 37
12, 1276920, Note_on_c, 11, 63, 37
12, 1277035, Note_off_c, 11, 63, 64
12, 1277035, Note_off_c, 11, 60, 64
12, 1277040, Note_on_c, 11, 60, 38
12, 1277040, Note_on_c, 11, 63, 38
12, 1277155, Note_off_c, 11, 63, 64
12, 1277155, Note_off_c, 11, 60, 64
12, 1277160, Note_on_c, 11, 60, 39
12, 1277160, Note_on_c, 11, 63, 39
12, 1277275, Note_off_c, 11, 63, 64
12, 1277275, Note_off_c, 11, 60, 64
12, 1277280, Note_on_c, 11, 60, 40
12, 1277280, Note_on_c, 11, 63, 40
12, 1277395, Note_off_c, 11, 63, 64
12, 1277395, Note_off_c, 11, 60, 64
12, 1277400, Note_on_c, 11, 60, 41
12, 1277400, Note_on_c, 11, 63, 41
12, 1277515, Note_off_c, 11, 63, 64
12, 1277515, Note_off_c, 11, 60, 64
12, 1277520, Note_on_c, 11, 60, 42
12, 1277520, Note_on_c, 11, 63, 42
12, 1277635, Note_off_c, 11, 63, 64
12, 1277635, Note_off_c, 11, 60, 64
12, 1277640, Note_on_c, 11, 60, 43
12, 1277640, Note_on_c, 11, 63, 43
12, 1277755, Note_off_c, 11, 63, 64
12, 1277755, Note_off_c, 11, 60, 64
12, 1277760, Note_on_c, 11, 60, 44
12, 1277760, Note_on_c, 11, 63, 44
12, 1277875, Note_off_c, 11, 63, 64
12, 1277875, Note_off_c, 11, 60, 64
12, 1277880, Note_on_c, 11, 60, 45
12, 1277880, Note_on_c, 11, 63, 45
12, 1277995, Note_off_c, 11, 63, 64
12, 1277995, Note_off_c, 11, 60, 64
12, 1278000, Note_on_c, 11, 60, 46
12, 1278000, Note_on_c, 11, 63, 46
12, 1278115, Note_off_c, 11, 63, 64
12, 1278115, Note_off_c, 11, 60, 64
12, 1278120, Note_on_c, 11, 60, 47
12, 1278120, Note_on_c, 11, 63, 47
12, 1278235, Note_off_c, 11, 63, 64
12, 1278235, Note_off_c, 11, 60, 64
12, 1278240, Note_on_c, 11, 60, 48
12, 1278240, Note_on_c, 11, 63, 48
12, 1278355, Note_off_c, 11, 63, 64
12, 1278355, Note_off_c, 11, 60, 64
12, 1278360, Note_on_c, 11, 60, 49
12, 1278360, Note_on_c, 11, 63, 49
12, 1278475, Note_off_c, 11, 63, 64
12, 1278475, Note_off_c, 11, 60, 64
12, 1278480, Note_on_c, 11, 60, 50
12, 1278480, Note_on_c, 11, 63, 50
12, 1278595, Note_off_c, 11, 63, 64
12, 1278595, Note_off_c, 11, 60, 64
12, 1278600, Note_on_c, 11, 60, 51
12, 1278600, Note_on_c, 11, 63, 51
12, 1278715, Note_off_c, 11, 63, 64
12, 1278715, Note_off_c, 11, 60, 64
12, 1278720, Note_on_c, 11, 60, 52
12, 1278720, Note_on_c, 11, 63, 52
12, 1278835, Note_off_c, 11, 63, 64
12, 1278835, Note_off_c, 11, 60, 64
12, 1278840, Note_on_c, 11, 60, 53
12, 1278840, Note_on_c, 11, 63, 53
12, 1278955, Note_off_c, 11, 63, 64
12, 1278955, Note_off_c, 11, 60, 64
12, 1278960, Note_on_c, 11, 60, 54
12, 1278960, Note_on_c, 11, 63, 54
12, 1279075, Note_off_c, 11, 63, 64
12, 1279075, Note_off_c, 11, 60, 64
12, 1279080, Note_on_c, 11, 60, 55
12, 1279080, Note_on_c, 11, 63, 55
12, 1279195, Note_off_c, 11, 63, 64
12, 1279195, Note_off_c, 11, 60, 64
12, 1279200, Note_on_c, 11, 60, 56
12, 1279200, Note_on_c, 11, 63, 56
12, 1279315, Note_off_c, 11, 63, 64
12, 1279315, Note_off_c, 11, 60, 64
12, 1279320, Note_on_c, 11, 60, 57
12, 1279320, Note_on_c, 11, 63, 57
12, 1279435, Note_off_c, 11, 63, 64
12, 1279435, Note_off_c, 11, 60, 64
12, 1279440, Note_on_c, 11, 61, 58
12, 1279555, Note_off_c, 11, 61, 64
12, 1279560, Note_on_c, 11, 61, 59
12, 1279675, Note_off_c, 11, 61, 64
12, 1279680, Note_on_c, 11, 61, 60
12, 1279795, Note_off_c, 11, 61, 64
12, 1279800, Note_on_c, 11, 61, 61
12, 1279915, Note_off_c, 11, 61, 64
12, 1279920, Note_on_c, 11, 61, 62
12, 1280035, Note_off_c, 11, 61, 64
12, 1280040, Note_on_c, 11, 61, 63
12, 1280155, Note_off_c, 11, 61, 64
12, 1280160, Note_on_c, 11, 61, 64
12, 1280275, Note_off_c, 11, 61, 64
12, 1280280, Note_on_c, 11, 61, 65
12, 1280395, Note_off_c, 11, 61, 64
12, 1280400, Note_on_c, 11, 61, 66
12, 1280515, Note_off_c, 11, 61, 64
12, 1280520, Note_on_c, 11, 61, 67
12, 1280635, Note_off_c, 11, 61, 64
12, 1280640, Note_on_c, 11, 61, 68
12, 1280755, Note_off_c, 11, 61, 64
12, 1280760, Note_on_c, 11, 61, 69
12, 1280875, Note_off_c, 11, 61, 64
12, 1280880, Note_on_c, 11, 61, 70
12, 1280995, Note_off_c, 11, 61, 64
12, 1281000, Note_on_c, 11, 61, 71
12, 1281115, Note_off_c, 11, 61, 64
12, 1281120, Note_on_c, 11, 61, 72
12, 1281235, Note_off_c, 11, 61, 64
12, 1281240, Note_on_c, 11, 61, 73
12, 1281355, Note_off_c, 11, 61, 64
12, 1281360, Note_on_c, 11, 61, 74
12, 1281475, Note_off_c, 11, 61, 64
12, 1281480, Note_on_c, 11, 61, 75
12, 1281595, Note_off_c, 11, 61, 64
12, 1281600, Note_on_c, 11, 61, 76
12, 1281715, Note_off_c, 11, 61, 64
12, 1281720, Note_on_c, 11, 61, 77
12, 1281835, Note_off_c, 11, 61, 64
12, 1281840, Note_on_c, 11, 61, 78
12, 1281955, Note_off_c, 11, 61, 64
12, 1281960, Note_on_c, 11, 61, 79
12, 1282075, Note_off_c, 11, 61, 64
12, 1282080, Note_on_c, 11, 61, 80
12, 1282195, Note_off_c, 11, 61, 64
12, 1282200, Note_on_c, 11, 61, 81
12, 1282315, Note_off_c, 11, 61, 64
12, 1282320, Note_on_c, 11, 61, 82
12, 1282435, Note_off_c, 11, 61, 64
12, 1282440, Note_on_c, 11, 61, 83
12, 1282555, Note_off_c, 11, 61, 64
12, 1282560, Note_on_c, 11, 61, 84
12, 1282675, Note_off_c, 11, 61, 64
12, 1282680, Note_on_c, 11, 61, 85
12, 1282795, Note_off_c, 11, 61, 64
12, 1282800, Note_on_c, 11, 61, 86
12, 1282915, Note_off_c, 11, 61, 64
12, 1282920, Note_on_c, 11, 61, 87
12, 1283035, Note_off_c, 11, 61, 64
12, 1283040, Note_on_c, 11, 61, 88
12, 1283155, Note_off_c, 11, 61, 64
12, 1283160, Note_on_c, 11, 61, 89
12, 1283275, Note_off_c, 11, 61, 64
12, 1283280, Note_on_c, 11, 55, 90
12, 1283280, Note_on_c, 11, 65, 90
12, 1283395, Note_off_c, 11, 65, 64
12, 1283395, Note_off_c, 11, 55, 64
12, 1283400, Note_on_c, 11, 55, 91
12, 1283400, Note_on_c, 11, 65, 91
12, 1283515, Note_off_c, 11, 65, 64
12, 1283515, Note_off_c, 11, 55, 64
12, 1283520, Note_on_c, 11, 55, 92
12, 1283520, Note_on_c, 11, 65, 92
12, 1283635, Note_off_c, 11, 65, 64
12, 1283635, Note_off_c, 11, 55, 64
12, 1283640, Note_on_c, 11, 55, 93
12, 1283640, Note_on_c, 11, 65, 93
12, 1283755, Note_off_c, 11, 65, 64
12, 1283755, Note_off_c, 11, 55, 64
12, 1283760, Note_on_c, 11, 55, 94
12, 1283760, Note_on_c, 11, 65, 94
12, 1283875, Note_off_c, 11, 65, 64
12, 1283875, Note_off_c, 11, 55, 64
12, 1283880, Note_on_c, 11, 55, 95
12, 1283880, Note_on_c, 11, 65, 95
12, 1283995, Note_off_c, 11, 65, 64
12, 1283995, Note_off_c, 11, 55, 64
12, 1284000, Note_on_c, 11, 55, 96
12, 1284000, Note_on_c, 11, 65, 96
12, 1284115, Note_off_c, 11, 65, 64
12, 1284115, Note_off_c, 11, 55, 64
12, 1284120, Note_on_c, 11, 55, 97
12, 1284120, Note_on_c, 11, 65, 97
12, 1284235, Note_off_c, 11, 65, 64
12, 1284235, Note_off_c, 11, 55, 64
12, 1284240, Note_on_c, 11, 55, 98
12, 1284240, Note_on_c, 11, 65, 98
12, 1284355, Note_off_c, 11, 65, 64
12, 1284355, Note_off_c, 11, 55, 64
12, 1284360, Note_on_c, 11, 55, 99
12, 1284360, Note_on_c, 11, 65, 99
12, 1284475, Note_off_c, 11, 65, 64
12, 1284475, Note_off_c, 11, 55, 64
12, 1284480, Note_on_c, 11, 55, 100
12, 1284480, Note_on_c, 11, 65, 100
12, 1284595, Note_off_c, 11, 65, 64
12, 1284595, Note_off_c, 11, 55, 64
12, 1284600, Note_on_c, 11, 55, 101
12, 1284600, Note_on_c, 11, 65, 101
12, 1284715, Note_off_c, 11, 65, 64
12, 1284715, Note_off_c, 11, 55, 64
12, 1284720, Note_on_c, 11, 55, 102
12, 1284720, Note_on_c, 11, 65, 102
12, 1284835, Note_off_c, 11, 65, 64
12, 1284835, Note_off_c, 11, 55, 64
12, 1284840, Note_on_c, 11, 55, 103
12, 1284840, Note_on_c, 11, 65, 103
12, 1284955, Note_off_c, 11, 65, 64
12, 1284955, Note_off_c, 11, 55, 64
12, 1284960, Note_on_c, 11, 55, 104
12, 1284960, Note_on_c, 11, 65, 104
12, 1285075, Note_off_c, 11, 65, 64
12, 1285075, Note_off_c, 11, 55, 64
12, 1285080, Note_on_c, 11, 55, 105
12, 1285080, Note_on_c, 11, 65, 105
12, 1285195, Note_off_c, 11, 65, 64
12, 1285195, Note_off_c, 11, 55, 64
12, 1285200, Note_on_c, 11, 55, 106
12, 1285200, Note_on_c, 11, 65, 106
12, 1285315, Note_off_c, 11, 65, 64
12, 1285315, Note_off_c, 11, 55, 64
12, 1285320, Note_on_c, 11, 55, 107
12, 1285320, Note_on_c, 11, 65, 107
12, 1285435, Note_off_c, 11, 65, 64
12, 1285435, Note_off_c, 11, 55, 64
12, 1285440, Note_on_c, 11, 55, 108
12, 1285440, Note_on_c, 11, 65, 108
12, 1285555, Note_off_c, 11, 65, 64
12, 1285555, Note_off_c, 11, 55, 64
12, 1285560, Note_on_c, 11, 55, 109
12, 1285560, Note_on_c, 11, 65, 109
12, 1285675, Note_off_c, 11, 65, 64
12, 1285675, Note_off_c, 11, 55, 64
12, 1285680, Note_on_c, 11, 55, 110
12, 1285680, Note_on_c, 11, 65, 110
12, 1285795, Note_off_c, 11, 65, 64
12, 1285795, Note_off_c, 11, 55, 64
12, 1285800, Note_on_c, 11, 55, 111
12, 1285800, Note_on_c, 11, 65, 111
12, 1285915, Note_off_c, 11, 65, 64
12, 1285915, Note_off_c, 11, 55, 64
12, 1285920, Note_on_c, 11, 55, 112
12, 1285920, Note_on_c, 11, 65, 112
12, 1286035, Note_off_c, 11, 65, 64
12, 1286035, Note_off_c, 11, 55, 64
12, 1286040, Note_on_c, 11, 55, 113
12, 1286040, Note_on_c, 11, 65, 113
12, 1286155, Note_off_c, 11, 65, 64
12, 1286155, Note_off_c, 11, 55, 64
12, 1286160, Note_on_c, 11, 55, 114
12, 1286160, Note_on_c, 11, 65, 114
12, 1286275, Note_off_c, 11, 65, 64
12, 1286275, Note_off_c, 11, 55, 64
12, 1286280, Note_on_c, 11, 55, 115
12, 1286280, Note_on_c, 11, 65, 115
12, 1286395, Note_off_c, 11, 65, 64
12, 1286395, Note_off_c, 11, 55, 64
12, 1286400, Note_on_c, 11, 55, 116
12, 1286400, Note_on_c, 11, 65, 116
12, 1286515, Note_off_c, 11, 65, 64
12, 1286515, Note_off_c, 11, 55, 64
12, 1286520, Note_on_c, 11, 55, 117
12, 1286520, Note_on_c, 11, 65, 117
12, 1286635, Note_off_c, 11, 65, 64
12, 1286635, Note_off_c, 11, 55, 64
12, 1286640, Note_on_c, 11, 55, 119
12, 1286640, Note_on_c, 11, 65, 119
12, 1286755, Note_off_c, 11, 65, 64
12, 1286755, Note_off_c, 11, 55, 64
12, 1286760, Note_on_c, 11, 55, 121
12, 1286760, Note_on_c, 11, 65, 121
12, 1286875, Note_off_c, 11, 65, 64
12, 1286875, Note_off_c, 11, 55, 64
12, 1286880, Note_on_c, 11, 55, 123
12, 1286880, Note_on_c, 11, 65, 123
12, 1286995, Note_off_c, 11, 65, 64
12, 1286995, Note_off_c, 11, 55, 64
12, 1287000, Note_on_c, 11, 55, 125
12, 1287000, Note_on_c, 11, 65, 125
12, 1287115, Note_off_c, 11, 65, 64
12, 1287115, Note_off_c, 11, 55, 64
12, 1287120, Program_c, 11, 50
12, 1287120, Note_on_c, 11, 79, 127
12, 1287235, Note_off_c, 11, 79, 64
12, 1287240, Note_on_c, 11, 79, 127
12, 1287355, Note_off_c, 11, 79, 64
12, 1287360, Note_on_c, 11, 74, 127
12, 1287475, Note_off_c, 11, 74, 64
12, 1287480, Note_on_c, 11, 74, 127
12, 1287595, Note_off_c, 11, 74, 64
12, 1287600, Note_on_c, 11, 71, 127
12, 1287715, Note_off_c, 11, 71, 64
12, 1287720, Note_on_c, 11, 71, 127
12, 1287835, Note_off_c, 11, 71, 64
12, 1287840, Note_on_c, 11, 67, 127
12, 1287955, Note_off_c, 11, 67, 64
12, 1287960, Note_on_c, 11, 67, 127
12, 1288075, Note_off_c, 11, 67, 64
12, 1288080, Note_on_c, 11, 62, 127
12, 1288195, Note_off_c, 11, 62, 64
12, 1288200, Note_on_c, 11, 62, 127
12, 1288315, Note_off_c, 11, 62, 64
12, 1288320, Note_on_c, 11, 59, 127
12, 1288435, Note_off_c, 11, 59, 64
12, 1288440, Note_on_c, 11, 59, 127
12, 1288555, Note_off_c, 11, 59, 64
12, 1288560, Note_on_c, 11, 55, 127
12, 1288675, Note_off_c, 11, 55, 64
12, 1288680, Note_on_c, 11, 55, 127
12, 1288795, Note_off_c, 11, 55, 64
12, 1288800, Note_on_c, 11, 79, 127
12, 1288915, Note_off_c, 11, 79, 64
12, 1288920, Note_on_c, 11, 79, 127
12, 1289035, Note_off_c, 11, 79, 64
12, 1289040, Note_on_c, 11, 79, 127
12, 1289155, Note_off_c, 11, 79, 64
12, 1289160, Note_on_c, 11, 79, 127
12, 1289275, Note_off_c, 11, 79, 64
12, 1289280, Note_on_c, 11, 75, 127
12, 1289395, Note_off_c, 11, 75, 64
12, 1289400, Note_on_c, 11, 75, 127
12, 1289515, Note_off_c, 11, 75, 64
12, 1289520, Note_on_c, 11, 72, 127
12, 1289635, Note_off_c, 11, 72, 64
12, 1289640, Note_on_c, 11, 72, 127
12, 1289755, Note_off_c, 11, 72, 64
12, 1289760, Note_on_c, 11, 67, 127
12, 1289875, Note_off_c, 11, 67, 64
12, 1289880, Note_on_c, 11, 67, 127
12, 1289995, Note_off_c, 11, 67, 64
12, 1290000, Note_on_c, 11, 63, 127
12, 1290115, Note_off_c, 11, 63, 64
12, 1290120, Note_on_c, 11, 63, 127
12, 1290235, Note_off_c, 11, 63, 64
12, 1290240, Note_on_c, 11, 60, 127
12, 1290355, Note_off_c, 11, 60, 64
12, 1290360, Note_on_c, 11, 60, 127
12, 1290475, Note_off_c, 11, 60, 64
12, 1290480, Note_on_c, 11, 55, 127
12, 1290595, Note_off_c, 11, 55, 64
12, 1290600, Note_on_c, 11, 55, 127
12, 1290715, Note_off_c, 11, 55, 64
12, 1290720, Note_on_c, 11, 79, 127
12, 1290835, Note_off_c, 11, 79, 64
12, 1290840, Note_on_c, 11, 79, 127
12, 1290955, Note_off_c, 11, 79, 64
12, 1290960, Note_on_c, 11, 79, 127
12, 1291075, Note_off_c, 11, 79, 64
12, 1291080, Note_on_c, 11, 79, 127
12, 1291195, Note_off_c, 11, 79, 64
12, 1291200, Note_on_c, 11, 75, 127
12, 1291315, Note_off_c, 11, 75, 64
12, 1291320, Note_on_c, 11, 75, 127
12, 1291435, Note_off_c, 11, 75, 64
12, 1291440, Note_on_c, 11, 72, 127
12, 1291555, Note_off_c, 11, 72, 64
12, 1291560, Note_on_c, 11, 72, 127
12, 1291675, Note_off_c, 11, 72, 64
12, 1291680, Note_on_c, 11, 67, 127
12, 1291795, Note_off_c, 11, 67, 64
12, 1291800, Note_on_c, 11, 67, 127
12, 1291915, Note_off_c, 11, 67, 64
12, 1291920, Note_on_c, 11, 63, 127
12, 1292035, Note_off_c, 11, 63, 64
12, 1292040, Note_on_c, 11, 63, 127
12, 1292155, Note_off_c, 11, 63, 64
12, 1292160, Note_on_c, 11, 60, 127
12, 1292275, Note_off_c, 11, 60, 64
12, 1292280, Note_on_c, 11, 60, 127
12, 1292395, Note_off_c, 11, 60, 64
12, 1292400, Note_on_c, 11, 55, 127
12, 1292515, Note_off_c, 11, 55, 64
12, 1292520, Note_on_c, 11, 55, 127
12, 1292635, Note_off_c, 11, 55, 64
12, 1292640, Note_on_c, 11, 79, 127
12, 1292755, Note_off_c, 11, 79, 64
12, 1292760, Note_on_c, 11, 79, 127
12, 1292875, Note_off_c, 11, 79, 64
12, 1292880, Note_on_c, 11, 80, 127
12, 1292995, Note_off_c, 11, 80, 64
12, 1293000, Note_on_c, 11, 80, 127
12, 1293115, Note_off_c, 11, 80, 64
12, 1293120, Note_on_c, 11, 75, 127
12, 1293235, Note_off_c, 11, 75, 64
12, 1293240, Note_on_c, 11, 75, 127
12, 1293355, Note_off_c, 11, 75, 64
12, 1293360, Note_on_c, 11, 72, 127
12, 1293475, Note_off_c, 11, 72, 64
12, 1293480, Note_on_c, 11, 72, 127
12, 1293595, Note_off_c, 11, 72, 64
12, 1293600, Note_on_c, 11, 68, 127
12, 1293715, Note_off_c, 11, 68, 64
12, 1293720, Note_on_c, 11, 68, 127
12, 1293835, Note_off_c, 11, 68, 64
12, 1293840, Note_on_c, 11, 63, 127
12, 1293955, Note_off_c, 11, 63, 64
12, 1293960, Note_on_c, 11, 63, 127
12, 1294075, Note_off_c, 11, 63, 64
12, 1294080, Note_on_c, 11, 60, 127
12, 1294195, Note_off_c, 11, 60, 64
12, 1294200, Note_on_c, 11, 60, 127
12, 1294315, Note_off_c, 11, 60, 64
12, 1294320, Note_on_c, 11, 56, 127
12, 1294435, Note_off_c, 11, 56, 64
12, 1294440, Note_on_c, 11, 56, 127
12, 1294555, Note_off_c, 11, 56, 64
12, 1294560, Note_on_c, 11, 80, 127
12, 1294675, Note_off_c, 11, 80, 64
12, 1294680, Note_on_c, 11, 80, 127
12, 1294795, Note_off_c, 11, 80, 64
12, 1294800, Note_on_c, 11, 80, 127
12, 1294915, Note_off_c, 11, 80, 64
12, 1294920, Note_on_c, 11, 80, 127
12, 1295035, Note_off_c, 11, 80, 64
12, 1295040, Note_on_c, 11, 75, 127
12, 1295155, Note_off_c, 11, 75, 64
12, 1295160, Note_on_c, 11, 75, 127
12, 1295275, Note_off_c, 11, 75, 64
12, 1295280, Note_on_c, 11, 72, 127
12, 1295395, Note_off_c, 11, 72, 64
12, 1295400, Note_on_c, 11, 72, 127
12, 1295515, Note_off_c, 11, 72, 64
12, 1295520, Note_on_c, 11, 68, 127
12, 1295635, Note_off_c, 11, 68, 64
12, 1295640, Note_on_c, 11, 68, 127
12, 1295755, Note_off_c, 11, 68, 64
12, 1295760, Note_on_c, 11, 63, 127
12, 1295875, Note_off_c, 11, 63, 64
12, 1295880, Note_on_c, 11, 63, 127
12, 1295995, Note_off_c, 11, 63, 64
12, 1296000, Note_on_c, 11, 60, 127
12, 1296115, Note_off_c, 11, 60, 64
12, 1296120, Note_on_c, 11, 60, 127
12, 1296235, Note_off_c, 11, 60, 64
12, 1296240, Note_on_c, 11, 56, 127
12, 1296355, Note_off_c, 11, 56, 64
12, 1296360, Note_on_c, 11, 56, 127
12, 1296475, Note_off_c, 11, 56, 64
12, 1296480, Note_on_c, 11, 80, 127
12, 1296595, Note_off_c, 11, 80, 64
12, 1296600, Note_on_c, 11, 80, 127
12, 1296715, Note_off_c, 11, 80, 64
12, 1296720, Note_on_c, 11, 80, 127
12, 1296835, Note_off_c, 11, 80, 64
12, 1296840, Note_on_c, 11, 80, 127
12, 1296955, Note_off_c, 11, 80, 64
12, 1296960, Note_on_c, 11, 77, 127
12, 1297075, Note_off_c, 11, 77, 64
12, 1297080, Note_on_c, 11, 77, 127
12, 1297195, Note_off_c, 11, 77, 64
12, 1297200, Note_on_c, 11, 73, 127
12, 1297315, Note_off_c, 11, 73, 64
12, 1297320, Note_on_c, 11, 73, 127
12, 1297435, Note_off_c, 11, 73, 64
12, 1297440, Note_on_c, 11, 68, 127
12, 1297555, Note_off_c, 11, 68, 64
12, 1297560, Note_on_c, 11, 68, 127
12, 1297675, Note_off_c, 11, 68, 64
12, 1297680, Note_on_c, 11, 65, 127
12, 1297795, Note_off_c, 11, 65, 64
12, 1297800, Note_on_c, 11, 65, 127
12, 1297915, Note_off_c, 11, 65, 64
12, 1297920, Note_on_c, 11, 61, 127
12, 1298035, Note_off_c, 11, 61, 64
12, 1298040, Note_on_c, 11, 61, 127
12, 1298155, Note_off_c, 11, 61, 64
12, 1298160, Note_on_c, 11, 56, 127
12, 1298275, Note_off_c, 11, 56, 64
12, 1298280, Note_on_c, 11, 56, 127
12, 1298395, Note_off_c, 11, 56, 64
12, 1298400, Note_on_c, 11, 80, 127
12, 1298515, Note_off_c, 11, 80, 64
12, 1298520, Note_on_c, 11, 80, 127
12, 1298635, Note_off_c, 11, 80, 64
12, 1298640, Note_on_c, 11, 80, 127
12, 1298755, Note_off_c, 11, 80, 64
12, 1298760, Note_on_c, 11, 80, 127
12, 1298875, Note_off_c, 11, 80, 64
12, 1298880, Note_on_c, 11, 77, 127
12, 1298995, Note_off_c, 11, 77, 64
12, 1299000, Note_on_c, 11, 77, 127
12, 1299115, Note_off_c, 11, 77, 64
12, 1299120, Note_on_c, 11, 73, 127
12, 1299235, Note_off_c, 11, 73, 64
12, 1299240, Note_on_c, 11, 73, 127
12, 1299355, Note_off_c, 11, 73, 64
12, 1299360, Note_on_c, 11, 68, 127
12, 1299475, Note_off_c, 11, 68, 64
12, 1299480, Note_on_c, 11, 68, 127
12, 1299595, Note_off_c, 11, 68, 64
12, 1299600, Note_on_c, 11, 65, 127
12, 1299715, Note_off_c, 11, 65, 64
12, 1299720, Note_on_c, 11, 65, 127
12, 1299835, Note_off_c, 11, 65, 64
12, 1299840, Note_on_c, 11, 61, 127
12, 1299955, Note_off_c, 11, 61, 64
12, 1299960, Note_on_c, 11, 61, 127
12, 1300075, Note_off_c, 11, 61, 64
12, 1300080, Note_on_c, 11, 57, 127
12, 1300195, Note_off_c, 11, 57, 64
12, 1300200, Note_on_c, 11, 57, 127
12, 1300315, Note_off_c, 11, 57, 64
12, 1300320, Note_on_c, 11, 81, 127
12, 1300435, Note_off_c, 11, 81, 64
12, 1300440, Note_on_c, 11, 81, 127
12, 1300555, Note_off_c, 11, 81, 64
12, 1300560, Note_on_c, 11, 82, 127
12, 1300675, Note_off_c, 11, 82, 64
12, 1300680, Note_on_c, 11, 82, 127
12, 1300795, Note_off_c, 11, 82, 64
12, 1300800, Note_on_c, 11, 77, 127
12, 1300915, Note_off_c, 11, 77, 64
12, 1300920, Note_on_c, 11, 77, 127
12, 1301035, Note_off_c, 11, 77, 64
12, 1301040, Note_on_c, 11, 74, 127
12, 1301155, Note_off_c, 11, 74, 64
12, 1301160, Note_on_c, 11, 74, 127
12, 1301275, Note_off_c, 11, 74, 64
12, 1301280, Note_on_c, 11, 70, 127
12, 1301395, Note_off_c, 11, 70, 64
12, 1301400, Note_on_c, 11, 70, 127
12, 1301515, Note_off_c, 11, 70, 64
12, 1301520, Note_on_c, 11, 65, 127
12, 1301635, Note_off_c, 11, 65, 64
12, 1301640, Note_on_c, 11, 65, 127
12, 1301755, Note_off_c, 11, 65, 64
12, 1301760, Note_on_c, 11, 62, 127
12, 1301875, Note_off_c, 11, 62, 64
12, 1301880, Note_on_c, 11, 62, 127
12, 1301995, Note_off_c, 11, 62, 64
12, 1302000, Note_on_c, 11, 58, 127
12, 1302115, Note_off_c, 11, 58, 64
12, 1302120, Note_on_c, 11, 58, 127
12, 1302235, Note_off_c, 11, 58, 64
12, 1302240, Note_on_c, 11, 82, 127
12, 1302355, Note_off_c, 11, 82, 64
12, 1302360, Note_on_c, 11, 82, 127
12, 1302475, Note_off_c, 11, 82, 64
12, 1302480, Note_on_c, 11, 82, 127
12, 1302595, Note_off_c, 11, 82, 64
12, 1302600, Note_on_c, 11, 82, 127
12, 1302715, Note_off_c, 11, 82, 64
12, 1302720, Note_on_c, 11, 77, 127
12, 1302835, Note_off_c, 11, 77, 64
12, 1302840, Note_on_c, 11, 77, 127
12, 1302955, Note_off_c, 11, 77, 64
12, 1302960, Note_on_c, 11, 74, 127
12, 1303075, Note_off_c, 11, 74, 64
12, 1303080, Note_on_c, 11, 74, 127
12, 1303195, Note_off_c, 11, 74, 64
12, 1303200, Note_on_c, 11, 70, 127
12, 1303315, Note_off_c, 11, 70, 64
12, 1303320, Note_on_c, 11, 70, 127
12, 1303435, Note_off_c, 11, 70, 64
12, 1303440, Note_on_c, 11, 65, 127
12, 1303555, Note_off_c, 11, 65, 64
12, 1303560, Note_on_c, 11, 65, 127
12, 1303675, Note_off_c, 11, 65, 64
12, 1303680, Note_on_c, 11, 62, 127
12, 1303795, Note_off_c, 11, 62, 64
12, 1303800, Note_on_c, 11, 62, 127
12, 1303915, Note_off_c, 11, 62, 64
12, 1303920, Note_on_c, 11, 58, 127
12, 1304035, Note_off_c, 11, 58, 64
12, 1304040, Note_on_c, 11, 58, 127
12, 1304155, Note_off_c, 11, 58, 64
12, 1304160, Note_on_c, 11, 82, 127
12, 1304275, Note_off_c, 11, 82, 64
12, 1304280, Note_on_c, 11, 82, 127
12, 1304395, Note_off_c, 11, 82, 64
12, 1304400, Note_on_c, 11, 82, 127
12, 1304515, Note_off_c, 11, 82, 64
12, 1304520, Note_on_c, 11, 82, 127
12, 1304635, Note_off_c, 11, 82, 64
12, 1304640, Note_on_c, 11, 78, 127
12, 1304755, Note_off_c, 11, 78, 64
12, 1304760, Note_on_c, 11, 78, 127
12, 1304875, Note_off_c, 11, 78, 64
12, 1304880, Note_on_c, 11, 75, 127
12, 1304995, Note_off_c, 11, 75, 64
12, 1305000, Note_on_c, 11, 75, 127
12, 1305115, Note_off_c, 11, 75, 64
12, 1305120, Note_on_c, 11, 70, 127
12, 1305235, Note_off_c, 11, 70, 64
12, 1305240, Note_on_c, 11, 70, 127
12, 1305355, Note_off_c, 11, 70, 64
12, 1305360, Note_on_c, 11, 66, 127
12, 1305475, Note_off_c, 11, 66, 64
12, 1305480, Note_on_c, 11, 66, 127
12, 1305595, Note_off_c, 11, 66, 64
12, 1305600, Note_on_c, 11, 63, 127
12, 1305715, Note_off_c, 11, 63, 64
12, 1305720, Note_on_c, 11, 63, 127
12, 1305835, Note_off_c, 11, 63, 64
12, 1305840, Note_on_c, 11, 60, 127
12, 1305955, Note_off_c, 11, 60, 64
12, 1305960, Note_on_c, 11, 60, 127
12, 1306075, Note_off_c, 11, 60, 64
12, 1306080, Note_on_c, 11, 82, 127
12, 1306195, Note_off_c, 11, 82, 64
12, 1306200, Note_on_c, 11, 82, 127
12, 1306315, Note_off_c, 11, 82, 64
12, 1306320, Note_on_c, 11, 82, 127
12, 1306435, Note_off_c, 11, 82, 64
12, 1306440, Note_on_c, 11, 82, 127
12, 1306555, Note_off_c, 11, 82, 64
12, 1306560, Note_on_c, 11, 78, 127
12, 1306675, Note_off_c, 11, 78, 64
12, 1306680, Note_on_c, 11, 78, 127
12, 1306795, Note_off_c, 11, 78, 64
12, 1306800, Note_on_c, 11, 75, 127
12, 1306915, Note_off_c, 11, 75, 64
12, 1306920, Note_on_c, 11, 75, 127
12, 1307035, Note_off_c, 11, 75, 64
12, 1307040, Note_on_c, 11, 70, 127
12, 1307155, Note_off_c, 11, 70, 64
12, 1307160, Note_on_c, 11, 70, 127
12, 1307275, Note_off_c, 11, 70, 64
12, 1307280, Note_on_c, 11, 66, 127
12, 1307395, Note_off_c, 11, 66, 64
12, 1307400, Note_on_c, 11, 66, 127
12, 1307515, Note_off_c, 11, 66, 64
12, 1307520, Note_on_c, 11, 63, 127
12, 1307635, Note_off_c, 11, 63, 64
12, 1307640, Note_on_c, 11, 63, 127
12, 1307755, Note_off_c, 11, 63, 64
12, 1307760, Note_on_c, 11, 60, 127
12, 1307875, Note_off_c, 11, 60, 64
12, 1307880, Note_on_c, 11, 60, 127
12, 1307995, Note_off_c, 11, 60, 64
12, 1308000, Note_on_c, 11, 72, 127
12, 1308115, Note_off_c, 11, 72, 64
12, 1308120, Note_on_c, 11, 72, 127
12, 1308235, Note_off_c, 11, 72, 64
12, 1308240, Program_c, 11, 48
12, 1308240, Note_on_c, 11, 73, 127
12, 1308640, Note_off_c, 11, 73, 64
12, 1309200, Note_on_c, 11, 73, 127
12, 1309840, Note_off_c, 11, 73, 64
12, 1309920, Note_on_c, 11, 68, 127
12, 1310000, Note_off_c, 11, 68, 64
12, 1310160, Note_on_c, 11, 70, 127
12, 1310240, Note_off_c, 11, 70, 64
12, 1310400, Note_on_c, 11, 65, 127
12, 1310480, Note_off_c, 11, 65, 64
12, 1310640, Note_on_c, 11, 66, 127
12, 1310720, Note_off_c, 11, 66, 64
12, 1310880, Note_on_c, 11, 65, 127
12, 1310960, Note_off_c, 11, 65, 64
12, 1311120, Note_on_c, 11, 63, 127
12, 1311200, Note_off_c, 11, 63, 64
12, 1311360, Note_on_c, 11, 61, 127
12, 1311440, Note_off_c, 11, 61, 64
12, 1311600, Note_on_c, 11, 61, 127
12, 1311680, Note_off_c, 11, 61, 64
12, 1311840, Note_on_c, 11, 60, 127
12, 1311920, Note_off_c, 11, 60, 64
12, 1312080, Note_on_c, 11, 58, 127
12, 1312480, Note_off_c, 11, 58, 64
12, 1313040, Note_on_c, 11, 70, 127
12, 1313680, Note_off_c, 11, 70, 64
12, 1313760, Note_on_c, 11, 65, 127
12, 1313840, Note_off_c, 11, 65, 64
12, 1314000, Note_on_c, 11, 66, 127
12, 1314080, Note_off_c, 11, 66, 64
12, 1314240, Note_on_c, 11, 61, 127
12, 1314320, Note_off_c, 11, 61, 64
12, 1314480, Note_on_c, 11, 63, 127
12, 1314560, Note_off_c, 11, 63, 64
12, 1314720, Note_on_c, 11, 61, 127
12, 1314800, Note_off_c, 11, 61, 64
12, 1314960, Note_on_c, 11, 59, 127
12, 1315040, Note_off_c, 11, 59, 64
12, 1315200, Note_on_c, 11, 58, 127
12, 1315280, Note_off_c, 11, 58, 64
12, 1315440, Note_on_c, 11, 58, 127
12, 1315520, Note_off_c, 11, 58, 64
12, 1315680, Note_on_c, 11, 56, 127
12, 1315760, Note_off_c, 11, 56, 64
12, 1315920, Note_on_c, 11, 54, 127
12, 1316320, Note_off_c, 11, 54, 64
12, 1316880, Note_on_c, 11, 66, 127
12, 1317520, Note_off_c, 11, 66, 64
12, 1317600, Note_on_c, 11, 61, 127
12, 1317680, Note_off_c, 11, 61, 64
12, 1317840, Note_on_c, 11, 63, 127
12, 1317920, Note_off_c, 11, 63, 64
12, 1318080, Note_on_c, 11, 58, 127
12, 1318160, Note_off_c, 11, 58, 64
12, 1318320, Note_on_c, 11, 59, 127
12, 1318400, Note_off_c, 11, 59, 64
12, 1318560, Note_on_c, 11, 58, 127
12, 1318640, Note_off_c, 11, 58, 64
12, 1318800, Note_on_c, 11, 56, 127
12, 1318880, Note_off_c, 11, 56, 64
12, 1319040, Note_on_c, 11, 54, 127
12, 1319120, Note_off_c, 11, 54, 64
12, 1319280, Note_on_c, 11, 54, 127
12, 1319360, Note_off_c, 11, 54, 64
12, 1319520, Note_on_c, 11, 55, 127
12, 1319600, Note_off_c, 11, 55, 64
12, 1319760, Note_on_c, 11, 55, 75
12, 1319760, Note_on_c, 11, 67, 75
12, 1319875, Note_off_c, 11, 67, 64
12, 1319875, Note_off_c, 11, 55, 64
12, 1319880, Note_on_c, 11, 55, 75
12, 1319880, Note_on_c, 11, 67, 75
12, 1319995, Note_off_c, 11, 67, 64
12, 1319995, Note_off_c, 11, 55, 64
12, 1320000, Note_on_c, 11, 55, 75
12, 1320000, Note_on_c, 11, 67, 75
12, 1320115, Note_off_c, 11, 67, 64
12, 1320115, Note_off_c, 11, 55, 64
12, 1320120, Note_on_c, 11, 55, 75
12, 1320120, Note_on_c, 11, 67, 75
12, 1320235, Note_off_c, 11, 67, 64
12, 1320235, Note_off_c, 11, 55, 64
12, 1320240, Note_on_c, 11, 55, 75
12, 1320240, Note_on_c, 11, 67, 75
12, 1320355, Note_off_c, 11, 67, 64
12, 1320355, Note_off_c, 11, 55, 64
12, 1320360, Note_on_c, 11, 55, 75
12, 1320360, Note_on_c, 11, 67, 75
12, 1320475, Note_off_c, 11, 67, 64
12, 1320475, Note_off_c, 11, 55, 64
12, 1320480, Note_on_c, 11, 55, 75
12, 1320480, Note_on_c, 11, 67, 75
12, 1320595, Note_off_c, 11, 67, 64
12, 1320595, Note_off_c, 11, 55, 64
12, 1320600, Note_on_c, 11, 55, 75
12, 1320600, Note_on_c, 11, 67, 75
12, 1320715, Note_off_c, 11, 67, 64
12, 1320715, Note_off_c, 11, 55, 64
12, 1320720, Note_on_c, 11, 55, 45
12, 1320720, Note_on_c, 11, 67, 45
12, 1320835, Note_off_c, 11, 67, 64
12, 1320835, Note_off_c, 11, 55, 64
12, 1320840, Note_on_c, 11, 55, 45
12, 1320840, Note_on_c, 11, 67, 45
12, 1320955, Note_off_c, 11, 67, 64
12, 1320955, Note_off_c, 11, 55, 64
12, 1320960, Note_on_c, 11, 55, 45
12, 1320960, Note_on_c, 11, 67, 45
12, 1321075, Note_off_c, 11, 67, 64
12, 1321075, Note_off_c, 11, 55, 64
12, 1321080, Note_on_c, 11, 55, 45
12, 1321080, Note_on_c, 11, 67, 45
12, 1321195, Note_off_c, 11, 67, 64
12, 1321195, Note_off_c, 11, 55, 64
12, 1321200, Note_on_c, 11, 55, 45
12, 1321200, Note_on_c, 11, 67, 45
12, 1321315, Note_off_c, 11, 67, 64
12, 1321315, Note_off_c, 11, 55, 64
12, 1321320, Note_on_c, 11, 55, 45
12, 1321320, Note_on_c, 11, 67, 45
12, 1321435, Note_off_c, 11, 67, 64
12, 1321435, Note_off_c, 11, 55, 64
12, 1321440, Note_on_c, 11, 55, 45
12, 1321440, Note_on_c, 11, 67, 45
12, 1321555, Note_off_c, 11, 67, 64
12, 1321555, Note_off_c, 11, 55, 64
12, 1321560, Note_on_c, 11, 55, 45
12, 1321560, Note_on_c, 11, 67, 45
12, 1321675, Note_off_c, 11, 67, 64
12, 1321675, Note_off_c, 11, 55, 64
12, 1321680, Note_on_c, 11, 55, 45
12, 1321680, Note_on_c, 11, 67, 45
12, 1321795, Note_off_c, 11, 67, 64
12, 1321795, Note_off_c, 11, 55, 64
12, 1321800, Note_on_c, 11, 55, 45
12, 1321800, Note_on_c, 11, 67, 45
12, 1321915, Note_off_c, 11, 67, 64
12, 1321915, Note_off_c, 11, 55, 64
12, 1321920, Note_on_c, 11, 55, 45
12, 1321920, Note_on_c, 11, 67, 45
12, 1322035, Note_off_c, 11, 67, 64
12, 1322035, Note_off_c, 11, 55, 64
12, 1322040, Note_on_c, 11, 55, 45
12, 1322040, Note_on_c, 11, 67, 45
12, 1322155, Note_off_c, 11, 67, 64
12, 1322155, Note_off_c, 11, 55, 64
12, 1322160, Note_on_c, 11, 55, 45
12, 1322160, Note_on_c, 11, 67, 45
12, 1322275, Note_off_c, 11, 67, 64
12, 1322275, Note_off_c, 11, 55, 64
12, 1322280, Note_on_c, 11, 55, 45
12, 1322280, Note_on_c, 11, 67, 45
12, 1322395, Note_off_c, 11, 67, 64
12, 1322395, Note_off_c, 11, 55, 64
12, 1322400, Note_on_c, 11, 55, 45
12, 1322400, Note_on_c, 11, 67, 45
12, 1322515, Note_off_c, 11, 67, 64
12, 1322515, Note_off_c, 11, 55, 64
12, 1322520, Note_on_c, 11, 55, 45
12, 1322520, Note_on_c, 11, 67, 45
12, 1322635, Note_off_c, 11, 67, 64
12, 1322635, Note_off_c, 11, 55, 64
12, 1322640, Note_on_c, 11, 55, 45
12, 1322640, Note_on_c, 11, 67, 45
12, 1322755, Note_off_c, 11, 67, 64
12, 1322755, Note_off_c, 11, 55, 64
12, 1322760, Note_on_c, 11, 55, 45
12, 1322760, Note_on_c, 11, 67, 45
12, 1322875, Note_off_c, 11, 67, 64
12, 1322875, Note_off_c, 11, 55, 64
12, 1322880, Note_on_c, 11, 55, 45
12, 1322880, Note_on_c, 11, 67, 45
12, 1322995, Note_off_c, 11, 67, 64
12, 1322995, Note_off_c, 11, 55, 64
12, 1323000, Note_on_c, 11, 55, 45
12, 1323000, Note_on_c, 11, 67, 45
12, 1323115, Note_off_c, 11, 67, 64
12, 1323115, Note_off_c, 11, 55, 64
12, 1323120, Note_on_c, 11, 55, 45
12, 1323120, Note_on_c, 11, 67, 45
12, 1323235, Note_off_c, 11, 67, 64
12, 1323235, Note_off_c, 11, 55, 64
12, 1323240, Note_on_c, 11, 55, 45
12, 1323240, Note_on_c, 11, 67, 45
12, 1323355, Note_off_c, 11, 67, 64
12, 1323355, Note_off_c, 11, 55, 64
12, 1323360, Note_on_c, 11, 55, 45
12, 1323360, Note_on_c, 11, 67, 45
12, 1323475, Note_off_c, 11, 67, 64
12, 1323475, Note_off_c, 11, 55, 64
12, 1323480, Note_on_c, 11, 55, 45
12, 1323480, Note_on_c, 11, 67, 45
12, 1323595, Note_off_c, 11, 67, 64
12, 1323595, Note_off_c, 11, 55, 64
12, 1323600, Note_on_c, 11, 55, 45
12, 1323600, Note_on_c, 11, 67, 45
12, 1323715, Note_off_c, 11, 67, 64
12, 1323715, Note_off_c, 11, 55, 64
12, 1323720, Note_on_c, 11, 55, 45
12, 1323720, Note_on_c, 11, 67, 45
12, 1323835, Note_off_c, 11, 67, 64
12, 1323835, Note_off_c, 11, 55, 64
12, 1323840, Note_on_c, 11, 55, 45
12, 1323840, Note_on_c, 11, 67, 45
12, 1323955, Note_off_c, 11, 67, 64
12, 1323955, Note_off_c, 11, 55, 64
12, 1323960, Note_on_c, 11, 55, 46
12, 1323960, Note_on_c, 11, 67, 46
12, 1324075, Note_off_c, 11, 67, 64
12, 1324075, Note_off_c, 11, 55, 64
12, 1324080, Note_on_c, 11, 55, 46
12, 1324080, Note_on_c, 11, 67, 46
12, 1324195, Note_off_c, 11, 67, 64
12, 1324195, Note_off_c, 11, 55, 64
12, 1324200, Note_on_c, 11, 55, 47
12, 1324200, Note_on_c, 11, 67, 47
12, 1324315, Note_off_c, 11, 67, 64
12, 1324315, Note_off_c, 11, 55, 64
12, 1324320, Note_on_c, 11, 55, 48
12, 1324320, Note_on_c, 11, 67, 48
12, 1324435, Note_off_c, 11, 67, 64
12, 1324435, Note_off_c, 11, 55, 64
12, 1324440, Note_on_c, 11, 55, 49
12, 1324440, Note_on_c, 11, 67, 49
12, 1324555, Note_off_c, 11, 67, 64
12, 1324555, Note_off_c, 11, 55, 64
12, 1324560, Note_on_c, 11, 55, 50
12, 1324560, Note_on_c, 11, 67, 50
12, 1324675, Note_off_c, 11, 67, 64
12, 1324675, Note_off_c, 11, 55, 64
12, 1324680, Note_on_c, 11, 55, 51
12, 1324680, Note_on_c, 11, 67, 51
12, 1324795, Note_off_c, 11, 67, 64
12, 1324795, Note_off_c, 11, 55, 64
12, 1324800, Note_on_c, 11, 55, 52
12, 1324800, Note_on_c, 11, 67, 52
12, 1324915, Note_off_c, 11, 67, 64
12, 1324915, Note_off_c, 11, 55, 64
12, 1324920, Note_on_c, 11, 55, 53
12, 1324920, Note_on_c, 11, 67, 53
12, 1325035, Note_off_c, 11, 67, 64
12, 1325035, Note_off_c, 11, 55, 64
12, 1325040, Note_on_c, 11, 55, 54
12, 1325040, Note_on_c, 11, 67, 54
12, 1325155, Note_off_c, 11, 67, 64
12, 1325155, Note_off_c, 11, 55, 64
12, 1325160, Note_on_c, 11, 55, 55
12, 1325160, Note_on_c, 11, 67, 55
12, 1325275, Note_off_c, 11, 67, 64
12, 1325275, Note_off_c, 11, 55, 64
12, 1325280, Note_on_c, 11, 55, 56
12, 1325280, Note_on_c, 11, 67, 56
12, 1325395, Note_off_c, 11, 67, 64
12, 1325395, Note_off_c, 11, 55, 64
12, 1325400, Note_on_c, 11, 55, 57
12, 1325400, Note_on_c, 11, 67, 57
12, 1325515, Note_off_c, 11, 67, 64
12, 1325515, Note_off_c, 11, 55, 64
12, 1325520, Note_on_c, 11, 55, 58
12, 1325520, Note_on_c, 11, 67, 58
12, 1325635, Note_off_c, 11, 67, 64
12, 1325635, Note_off_c, 11, 55, 64
12, 1325640, Note_on_c, 11, 55, 59
12, 1325640, Note_on_c, 11, 67, 59
12, 1325755, Note_off_c, 11, 67, 64
12, 1325755, Note_off_c, 11, 55, 64
12, 1325760, Note_on_c, 11, 55, 60
12, 1325760, Note_on_c, 11, 67, 60
12, 1325875, Note_off_c, 11, 67, 64
12, 1325875, Note_off_c, 11, 55, 64
12, 1325880, Note_on_c, 11, 55, 61
12, 1325880, Note_on_c, 11, 67, 61
12, 1325995, Note_off_c, 11, 67, 64
12, 1325995, Note_off_c, 11, 55, 64
12, 1326000, Note_on_c, 11, 55, 62
12, 1326000, Note_on_c, 11, 67, 62
12, 1326115, Note_off_c, 11, 67, 64
12, 1326115, Note_off_c, 11, 55, 64
12, 1326120, Note_on_c, 11, 55, 63
12, 1326120, Note_on_c, 11, 67, 63
12, 1326235, Note_off_c, 11, 67, 64
12, 1326235, Note_off_c, 11, 55, 64
12, 1326240, Note_on_c, 11, 55, 64
12, 1326240, Note_on_c, 11, 67, 64
12, 1326355, Note_off_c, 11, 67, 64
12, 1326355, Note_off_c, 11, 55, 64
12, 1326360, Note_on_c, 11, 55, 65
12, 1326360, Note_on_c, 11, 67, 65
12, 1326475, Note_off_c, 11, 67, 64
12, 1326475, Note_off_c, 11, 55, 64
12, 1326480, Note_on_c, 11, 55, 66
12, 1326480, Note_on_c, 11, 67, 66
12, 1326595, Note_off_c, 11, 67, 64
12, 1326595, Note_off_c, 11, 55, 64
12, 1326600, Note_on_c, 11, 55, 67
12, 1326600, Note_on_c, 11, 67, 67
12, 1326715, Note_off_c, 11, 67, 64
12, 1326715, Note_off_c, 11, 55, 64
12, 1326720, Note_on_c, 11, 55, 68
12, 1326720, Note_on_c, 11, 67, 68
12, 1326835, Note_off_c, 11, 67, 64
12, 1326835, Note_off_c, 11, 55, 64
12, 1326840, Note_on_c, 11, 55, 69
12, 1326840, Note_on_c, 11, 67, 69
12, 1326955, Note_off_c, 11, 67, 64
12, 1326955, Note_off_c, 11, 55, 64
12, 1326960, Note_on_c, 11, 55, 70
12, 1326960, Note_on_c, 11, 67, 70
12, 1327075, Note_off_c, 11, 67, 64
12, 1327075, Note_off_c, 11, 55, 64
12, 1327080, Note_on_c, 11, 55, 71
12, 1327080, Note_on_c, 11, 67, 71
12, 1327195, Note_off_c, 11, 67, 64
12, 1327195, Note_off_c, 11, 55, 64
12, 1327200, Note_on_c, 11, 55, 72
12, 1327200, Note_on_c, 11, 67, 72
12, 1327315, Note_off_c, 11, 67, 64
12, 1327315, Note_off_c, 11, 55, 64
12, 1327320, Note_on_c, 11, 55, 73
12, 1327320, Note_on_c, 11, 67, 73
12, 1327435, Note_off_c, 11, 67, 64
12, 1327435, Note_off_c, 11, 55, 64
12, 1327440, Note_on_c, 11, 55, 75
12, 1327440, Note_on_c, 11, 67, 75
12, 1327555, Note_off_c, 11, 67, 64
12, 1327555, Note_off_c, 11, 55, 64
12, 1327560, Note_on_c, 11, 55, 75
12, 1327560, Note_on_c, 11, 67, 75
12, 1327675, Note_off_c, 11, 67, 64
12, 1327675, Note_off_c, 11, 55, 64
12, 1327680, Note_on_c, 11, 55, 75
12, 1327680, Note_on_c, 11, 67, 75
12, 1327795, Note_off_c, 11, 67, 64
12, 1327795, Note_off_c, 11, 55, 64
12, 1327800, Note_on_c, 11, 55, 75
12, 1327800, Note_on_c, 11, 67, 75
12, 1327915, Note_off_c, 11, 67, 64
12, 1327915, Note_off_c, 11, 55, 64
12, 1327920, Note_on_c, 11, 55, 45
12, 1327920, Note_on_c, 11, 67, 45
12, 1328035, Note_off_c, 11, 67, 64
12, 1328035, Note_off_c, 11, 55, 64
12, 1328040, Note_on_c, 11, 55, 45
12, 1328040, Note_on_c, 11, 67, 45
12, 1328155, Note_off_c, 11, 67, 64
12, 1328155, Note_off_c, 11, 55, 64
12, 1328160, Note_on_c, 11, 55, 45
12, 1328160, Note_on_c, 11, 67, 45
12, 1328275, Note_off_c, 11, 67, 64
12, 1328275, Note_off_c, 11, 55, 64
12, 1328280, Note_on_c, 11, 55, 45
12, 1328280, Note_on_c, 11, 67, 45
12, 1328395, Note_off_c, 11, 67, 64
12, 1328395, Note_off_c, 11, 55, 64
12, 1328400, Note_on_c, 11, 55, 45
12, 1328400, Note_on_c, 11, 67, 45
12, 1328515, Note_off_c, 11, 67, 64
12, 1328515, Note_off_c, 11, 55, 64
12, 1328520, Note_on_c, 11, 55, 45
12, 1328520, Note_on_c, 11, 67, 45
12, 1328635, Note_off_c, 11, 67, 64
12, 1328635, Note_off_c, 11, 55, 64
12, 1328640, Note_on_c, 11, 55, 45
12, 1328640, Note_on_c, 11, 67, 45
12, 1328755, Note_off_c, 11, 67, 64
12, 1328755, Note_off_c, 11, 55, 64
12, 1328760, Note_on_c, 11, 55, 45
12, 1328760, Note_on_c, 11, 67, 45
12, 1328875, Note_off_c, 11, 67, 64
12, 1328875, Note_off_c, 11, 55, 64
12, 1328880, Note_on_c, 11, 55, 45
12, 1328880, Note_on_c, 11, 67, 45
12, 1328995, Note_off_c, 11, 67, 64
12, 1328995, Note_off_c, 11, 55, 64
12, 1329000, Note_on_c, 11, 55, 45
12, 1329000, Note_on_c, 11, 67, 45
12, 1329115, Note_off_c, 11, 67, 64
12, 1329115, Note_off_c, 11, 55, 64
12, 1329120, Note_on_c, 11, 55, 45
12, 1329120, Note_on_c, 11, 67, 45
12, 1329235, Note_off_c, 11, 67, 64
12, 1329235, Note_off_c, 11, 55, 64
12, 1329240, Note_on_c, 11, 55, 45
12, 1329240, Note_on_c, 11, 67, 45
12, 1329355, Note_off_c, 11, 67, 64
12, 1329355, Note_off_c, 11, 55, 64
12, 1329360, Note_on_c, 11, 55, 45
12, 1329360, Note_on_c, 11, 67, 45
12, 1329475, Note_off_c, 11, 67, 64
12, 1329475, Note_off_c, 11, 55, 64
12, 1329480, Note_on_c, 11, 55, 45
12, 1329480, Note_on_c, 11, 67, 45
12, 1329595, Note_off_c, 11, 67, 64
12, 1329595, Note_off_c, 11, 55, 64
12, 1329600, Note_on_c, 11, 55, 45
12, 1329600, Note_on_c, 11, 67, 45
12, 1329715, Note_off_c, 11, 67, 64
12, 1329715, Note_off_c, 11, 55, 64
12, 1329720, Note_on_c, 11, 55, 45
12, 1329720, Note_on_c, 11, 67, 45
12, 1329835, Note_off_c, 11, 67, 64
12, 1329835, Note_off_c, 11, 55, 64
12, 1329840, Note_on_c, 11, 55, 45
12, 1329840, Note_on_c, 11, 67, 45
12, 1329955, Note_off_c, 11, 67, 64
12, 1329955, Note_off_c, 11, 55, 64
12, 1329960, Note_on_c, 11, 55, 45
12, 1329960, Note_on_c, 11, 67, 45
12, 1330075, Note_off_c, 11, 67, 64
12, 1330075, Note_off_c, 11, 55, 64
12, 1330080, Note_on_c, 11, 55, 45
12, 1330080, Note_on_c, 11, 67, 45
12, 1330195, Note_off_c, 11, 67, 64
12, 1330195, Note_off_c, 11, 55, 64
12, 1330200, Note_on_c, 11, 55, 45
12, 1330200, Note_on_c, 11, 67, 45
12, 1330315, Note_off_c, 11, 67, 64
12, 1330315, Note_off_c, 11, 55, 64
12, 1330320, Note_on_c, 11, 55, 45
12, 1330320, Note_on_c, 11, 67, 45
12, 1330435, Note_off_c, 11, 67, 64
12, 1330435, Note_off_c, 11, 55, 64
12, 1330440, Note_on_c, 11, 55, 45
12, 1330440, Note_on_c, 11, 67, 45
12, 1330555, Note_off_c, 11, 67, 64
12, 1330555, Note_off_c, 11, 55, 64
12, 1330560, Note_on_c, 11, 55, 45
12, 1330560, Note_on_c, 11, 67, 45
12, 1330675, Note_off_c, 11, 67, 64
12, 1330675, Note_off_c, 11, 55, 64
12, 1330680, Note_on_c, 11, 55, 45
12, 1330680, Note_on_c, 11, 67, 45
12, 1330795, Note_off_c, 11, 67, 64
12, 1330795, Note_off_c, 11, 55, 64
12, 1330800, Note_on_c, 11, 55, 45
12, 1330800, Note_on_c, 11, 67, 45
12, 1330915, Note_off_c, 11, 67, 64
12, 1330915, Note_off_c, 11, 55, 64
12, 1330920, Note_on_c, 11, 55, 45
12, 1330920, Note_on_c, 11, 67, 45
12, 1331035, Note_off_c, 11, 67, 64
12, 1331035, Note_off_c, 11, 55, 64
12, 1331040, Note_on_c, 11, 55, 45
12, 1331040, Note_on_c, 11, 67, 45
12, 1331155, Note_off_c, 11, 67, 64
12, 1331155, Note_off_c, 11, 55, 64
12, 1331160, Note_on_c, 11, 55, 45
12, 1331160, Note_on_c, 11, 67, 45
12, 1331275, Note_off_c, 11, 67, 64
12, 1331275, Note_off_c, 11, 55, 64
12, 1331280, Note_on_c, 11, 55, 45
12, 1331280, Note_on_c, 11, 67, 45
12, 1331395, Note_off_c, 11, 67, 64
12, 1331395, Note_off_c, 11, 55, 64
12, 1331400, Note_on_c, 11, 55, 45
12, 1331400, Note_on_c, 11, 67, 45
12, 1331515, Note_off_c, 11, 67, 64
12, 1331515, Note_off_c, 11, 55, 64
12, 1331520, Note_on_c, 11, 55, 45
12, 1331520, Note_on_c, 11, 67, 45
12, 1331635, Note_off_c, 11, 67, 64
12, 1331635, Note_off_c, 11, 55, 64
12, 1331640, Note_on_c, 11, 55, 45
12, 1331640, Note_on_c, 11, 67, 45
12, 1331755, Note_off_c, 11, 67, 64
12, 1331755, Note_off_c, 11, 55, 64
12, 1331760, Note_on_c, 11, 55, 45
12, 1331760, Note_on_c, 11, 67, 45
12, 1331875, Note_off_c, 11, 67, 64
12, 1331875, Note_off_c, 11, 55, 64
12, 1331880, Note_on_c, 11, 55, 45
12, 1331880, Note_on_c, 11, 67, 45
12, 1331995, Note_off_c, 11, 67, 64
12, 1331995, Note_off_c, 11, 55, 64
12, 1332000, Note_on_c, 11, 55, 45
12, 1332000, Note_on_c, 11, 67, 45
12, 1332115, Note_off_c, 11, 67, 64
12, 1332115, Note_off_c, 11, 55, 64
12, 1332120, Note_on_c, 11, 55, 45
12, 1332120, Note_on_c, 11, 67, 45
12, 1332235, Note_off_c, 11, 67, 64
12, 1332235, Note_off_c, 11, 55, 64
12, 1332240, Note_on_c, 11, 55, 45
12, 1332240, Note_on_c, 11, 67, 45
12, 1332355, Note_off_c, 11, 67, 64
12, 1332355, Note_off_c, 11, 55, 64
12, 1332360, Note_on_c, 11, 55, 45
12, 1332360, Note_on_c, 11, 67, 45
12, 1332475, Note_off_c, 11, 67, 64
12, 1332475, Note_off_c, 11, 55, 64
12, 1332480, Note_on_c, 11, 55, 45
12, 1332480, Note_on_c, 11, 67, 45
12, 1332595, Note_off_c, 11, 67, 64
12, 1332595, Note_off_c, 11, 55, 64
12, 1332600, Note_on_c, 11, 55, 45
12, 1332600, Note_on_c, 11, 67, 45
12, 1332715, Note_off_c, 11, 67, 64
12, 1332715, Note_off_c, 11, 55, 64
12, 1332720, Note_on_c, 11, 55, 45
12, 1332720, Note_on_c, 11, 67, 45
12, 1332835, Note_off_c, 11, 67, 64
12, 1332835, Note_off_c, 11, 55, 64
12, 1332840, Note_on_c, 11, 55, 45
12, 1332840, Note_on_c, 11, 67, 45
12, 1332955, Note_off_c, 11, 67, 64
12, 1332955, Note_off_c, 11, 55, 64
12, 1332960, Note_on_c, 11, 55, 45
12, 1332960, Note_on_c, 11, 67, 45
12, 1333075, Note_off_c, 11, 67, 64
12, 1333075, Note_off_c, 11, 55, 64
12, 1333080, Note_on_c, 11, 55, 45
12, 1333080, Note_on_c, 11, 67, 45
12, 1333195, Note_off_c, 11, 67, 64
12, 1333195, Note_off_c, 11, 55, 64
12, 1333200, Note_on_c, 11, 55, 45
12, 1333200, Note_on_c, 11, 67, 45
12, 1333315, Note_off_c, 11, 67, 64
12, 1333315, Note_off_c, 11, 55, 64
12, 1333320, Note_on_c, 11, 55, 45
12, 1333320, Note_on_c, 11, 67, 45
12, 1333435, Note_off_c, 11, 67, 64
12, 1333435, Note_off_c, 11, 55, 64
12, 1333440, Note_on_c, 11, 55, 45
12, 1333440, Note_on_c, 11, 67, 45
12, 1333555, Note_off_c, 11, 67, 64
12, 1333555, Note_off_c, 11, 55, 64
12, 1333560, Note_on_c, 11, 55, 45
12, 1333560, Note_on_c, 11, 67, 45
12, 1333675, Note_off_c, 11, 67, 64
12, 1333675, Note_off_c, 11, 55, 64
12, 1333680, Note_on_c, 11, 55, 45
12, 1333680, Note_on_c, 11, 67, 45
12, 1333795, Note_off_c, 11, 67, 64
12, 1333795, Note_off_c, 11, 55, 64
12, 1333800, Note_on_c, 11, 55, 45
12, 1333800, Note_on_c, 11, 67, 45
12, 1333915, Note_off_c, 11, 67, 64
12, 1333915, Note_off_c, 11, 55, 64
12, 1333920, Note_on_c, 11, 55, 45
12, 1333920, Note_on_c, 11, 67, 45
12, 1334035, Note_off_c, 11, 67, 64
12, 1334035, Note_off_c, 11, 55, 64
12, 1334040, Note_on_c, 11, 55, 45
12, 1334040, Note_on_c, 11, 67, 45
12, 1334155, Note_off_c, 11, 67, 64
12, 1334155, Note_off_c, 11, 55, 64
12, 1334160, Note_on_c, 11, 55, 45
12, 1334160, Note_on_c, 11, 67, 45
12, 1334275, Note_off_c, 11, 67, 64
12, 1334275, Note_off_c, 11, 55, 64
12, 1334280, Note_on_c, 11, 55, 45
12, 1334280, Note_on_c, 11, 67, 45
12, 1334395, Note_off_c, 11, 67, 64
12, 1334395, Note_off_c, 11, 55, 64
12, 1334400, Note_on_c, 11, 55, 45
12, 1334400, Note_on_c, 11, 67, 45
12, 1334515, Note_off_c, 11, 67, 64
12, 1334515, Note_off_c, 11, 55, 64
12, 1334520, Note_on_c, 11, 55, 45
12, 1334520, Note_on_c, 11, 67, 45
12, 1334635, Note_off_c, 11, 67, 64
12, 1334635, Note_off_c, 11, 55, 64
12, 1334640, Note_on_c, 11, 55, 45
12, 1334640, Note_on_c, 11, 67, 45
12, 1334755, Note_off_c, 11, 67, 64
12, 1334755, Note_off_c, 11, 55, 64
12, 1334760, Note_on_c, 11, 55, 45
12, 1334760, Note_on_c, 11, 67, 45
12, 1334875, Note_off_c, 11, 67, 64
12, 1334875, Note_off_c, 11, 55, 64
12, 1334880, Note_on_c, 11, 55, 45
12, 1334880, Note_on_c, 11, 67, 45
12, 1334995, Note_off_c, 11, 67, 64
12, 1334995, Note_off_c, 11, 55, 64
12, 1335000, Note_on_c, 11, 55, 45
12, 1335000, Note_on_c, 11, 67, 45
12, 1335115, Note_off_c, 11, 67, 64
12, 1335115, Note_off_c, 11, 55, 64
12, 1335120, Note_on_c, 11, 58, 75
12, 1335235, Note_off_c, 11, 58, 64
12, 1335240, Note_on_c, 11, 58, 75
12, 1335240, Note_on_c, 11, 67, 75
12, 1335355, Note_off_c, 11, 67, 64
12, 1335355, Note_off_c, 11, 58, 64
12, 1335360, Note_on_c, 11, 58, 75
12, 1335360, Note_on_c, 11, 67, 75
12, 1335475, Note_off_c, 11, 67, 64
12, 1335475, Note_off_c, 11, 58, 64
12, 1335480, Note_on_c, 11, 58, 75
12, 1335480, Note_on_c, 11, 67, 75
12, 1335595, Note_off_c, 11, 67, 64
12, 1335595, Note_off_c, 11, 58, 64
12, 1335600, Note_on_c, 11, 58, 75
12, 1335600, Note_on_c, 11, 67, 75
12, 1335715, Note_off_c, 11, 67, 64
12, 1335715, Note_off_c, 11, 58, 64
12, 1335720, Note_on_c, 11, 58, 75
12, 1335720, Note_on_c, 11, 67, 75
12, 1335835, Note_off_c, 11, 67, 64
12, 1335835, Note_off_c, 11, 58, 64
12, 1335840, Note_on_c, 11, 58, 75
12, 1335840, Note_on_c, 11, 67, 75
12, 1335955, Note_off_c, 11, 67, 64
12, 1335955, Note_off_c, 11, 58, 64
12, 1335960, Note_on_c, 11, 58, 75
12, 1335960, Note_on_c, 11, 67, 75
12, 1336075, Note_off_c, 11, 67, 64
12, 1336075, Note_off_c, 11, 58, 64
12, 1336080, Note_on_c, 11, 58, 75
12, 1336080, Note_on_c, 11, 67, 75
12, 1336195, Note_off_c, 11, 67, 64
12, 1336195, Note_off_c, 11, 58, 64
12, 1336200, Note_on_c, 11, 58, 75
12, 1336200, Note_on_c, 11, 67, 75
12, 1336315, Note_off_c, 11, 67, 64
12, 1336315, Note_off_c, 11, 58, 64
12, 1336320, Note_on_c, 11, 58, 75
12, 1336320, Note_on_c, 11, 67, 75
12, 1336435, Note_off_c, 11, 67, 64
12, 1336435, Note_off_c, 11, 58, 64
12, 1336440, Note_on_c, 11, 58, 75
12, 1336440, Note_on_c, 11, 67, 75
12, 1336555, Note_off_c, 11, 67, 64
12, 1336555, Note_off_c, 11, 58, 64
12, 1336560, Note_on_c, 11, 58, 75
12, 1336560, Note_on_c, 11, 67, 75
12, 1336675, Note_off_c, 11, 67, 64
12, 1336675, Note_off_c, 11, 58, 64
12, 1336680, Note_on_c, 11, 58, 75
12, 1336680, Note_on_c, 11, 67, 75
12, 1336795, Note_off_c, 11, 67, 64
12, 1336795, Note_off_c, 11, 58, 64
12, 1336800, Note_on_c, 11, 58, 75
12, 1336800, Note_on_c, 11, 67, 75
12, 1336915, Note_off_c, 11, 67, 64
12, 1336915, Note_off_c, 11, 58, 64
12, 1336920, Note_on_c, 11, 58, 75
12, 1336920, Note_on_c, 11, 67, 75
12, 1337035, Note_off_c, 11, 67, 64
12, 1337035, Note_off_c, 11, 58, 64
12, 1337040, Note_on_c, 11, 58, 75
12, 1337155, Note_off_c, 11, 58, 64
12, 1337160, Note_on_c, 11, 58, 75
12, 1337160, Note_on_c, 11, 67, 75
12, 1337275, Note_off_c, 11, 67, 64
12, 1337275, Note_off_c, 11, 58, 64
12, 1337280, Note_on_c, 11, 58, 75
12, 1337280, Note_on_c, 11, 67, 75
12, 1337395, Note_off_c, 11, 67, 64
12, 1337395, Note_off_c, 11, 58, 64
12, 1337400, Note_on_c, 11, 58, 75
12, 1337400, Note_on_c, 11, 67, 75
12, 1337515, Note_off_c, 11, 67, 64
12, 1337515, Note_off_c, 11, 58, 64
12, 1337520, Note_on_c, 11, 58, 75
12, 1337520, Note_on_c, 11, 67, 75
12, 1337635, Note_off_c, 11, 67, 64
12, 1337635, Note_off_c, 11, 58, 64
12, 1337640, Note_on_c, 11, 58, 75
12, 1337640, Note_on_c, 11, 67, 75
12, 1337755, Note_off_c, 11, 67, 64
12, 1337755, Note_off_c, 11, 58, 64
12, 1337760, Note_on_c, 11, 58, 75
12, 1337760, Note_on_c, 11, 67, 75
12, 1337875, Note_off_c, 11, 67, 64
12, 1337875, Note_off_c, 11, 58, 64
12, 1337880, Note_on_c, 11, 58, 75
12, 1337880, Note_on_c, 11, 67, 75
12, 1337995, Note_off_c, 11, 67, 64
12, 1337995, Note_off_c, 11, 58, 64
12, 1338000, Note_on_c, 11, 58, 75
12, 1338000, Note_on_c, 11, 67, 75
12, 1338115, Note_off_c, 11, 67, 64
12, 1338115, Note_off_c, 11, 58, 64
12, 1338120, Note_on_c, 11, 58, 75
12, 1338120, Note_on_c, 11, 67, 75
12, 1338235, Note_off_c, 11, 67, 64
12, 1338235, Note_off_c, 11, 58, 64
12, 1338240, Note_on_c, 11, 58, 75
12, 1338240, Note_on_c, 11, 67, 75
12, 1338355, Note_off_c, 11, 67, 64
12, 1338355, Note_off_c, 11, 58, 64
12, 1338360, Note_on_c, 11, 58, 75
12, 1338360, Note_on_c, 11, 67, 75
12, 1338475, Note_off_c, 11, 67, 64
12, 1338475, Note_off_c, 11, 58, 64
12, 1338480, Note_on_c, 11, 58, 75
12, 1338480, Note_on_c, 11, 67, 75
12, 1338595, Note_off_c, 11, 67, 64
12, 1338595, Note_off_c, 11, 58, 64
12, 1338600, Note_on_c, 11, 58, 75
12, 1338600, Note_on_c, 11, 67, 75
12, 1338715, Note_off_c, 11, 67, 64
12, 1338715, Note_off_c, 11, 58, 64
12, 1338720, Note_on_c, 11, 58, 75
12, 1338720, Note_on_c, 11, 67, 75
12, 1338835, Note_off_c, 11, 67, 64
12, 1338835, Note_off_c, 11, 58, 64
12, 1338840, Note_on_c, 11, 58, 75
12, 1338840, Note_on_c, 11, 67, 75
12, 1338955, Note_off_c, 11, 67, 64
12, 1338955, Note_off_c, 11, 58, 64
12, 1338960, Note_on_c, 11, 59, 75
12, 1339075, Note_off_c, 11, 59, 64
12, 1339080, Note_on_c, 11, 59, 75
12, 1339080, Note_on_c, 11, 68, 75
12, 1339195, Note_off_c, 11, 68, 64
12, 1339195, Note_off_c, 11, 59, 64
12, 1339200, Note_on_c, 11, 59, 75
12, 1339200, Note_on_c, 11, 68, 75
12, 1339315, Note_off_c, 11, 68, 64
12, 1339315, Note_off_c, 11, 59, 64
12, 1339320, Note_on_c, 11, 59, 75
12, 1339320, Note_on_c, 11, 68, 75
12, 1339435, Note_off_c, 11, 68, 64
12, 1339435, Note_off_c, 11, 59, 64
12, 1339440, Note_on_c, 11, 59, 75
12, 1339440, Note_on_c, 11, 68, 75
12, 1339555, Note_off_c, 11, 68, 64
12, 1339555, Note_off_c, 11, 59, 64
12, 1339560, Note_on_c, 11, 59, 75
12, 1339560, Note_on_c, 11, 68, 75
12, 1339675, Note_off_c, 11, 68, 64
12, 1339675, Note_off_c, 11, 59, 64
12, 1339680, Note_on_c, 11, 59, 75
12, 1339680, Note_on_c, 11, 68, 75
12, 1339795, Note_off_c, 11, 68, 64
12, 1339795, Note_off_c, 11, 59, 64
12, 1339800, Note_on_c, 11, 59, 75
12, 1339800, Note_on_c, 11, 68, 75
12, 1339915, Note_off_c, 11, 68, 64
12, 1339915, Note_off_c, 11, 59, 64
12, 1339920, Note_on_c, 11, 59, 75
12, 1339920, Note_on_c, 11, 68, 75
12, 1340035, Note_off_c, 11, 68, 64
12, 1340035, Note_off_c, 11, 59, 64
12, 1340040, Note_on_c, 11, 59, 75
12, 1340040, Note_on_c, 11, 68, 75
12, 1340155, Note_off_c, 11, 68, 64
12, 1340155, Note_off_c, 11, 59, 64
12, 1340160, Note_on_c, 11, 59, 75
12, 1340160, Note_on_c, 11, 68, 75
12, 1340275, Note_off_c, 11, 68, 64
12, 1340275, Note_off_c, 11, 59, 64
12, 1340280, Note_on_c, 11, 59, 75
12, 1340280, Note_on_c, 11, 68, 75
12, 1340395, Note_off_c, 11, 68, 64
12, 1340395, Note_off_c, 11, 59, 64
12, 1340400, Note_on_c, 11, 59, 75
12, 1340400, Note_on_c, 11, 68, 75
12, 1340515, Note_off_c, 11, 68, 64
12, 1340515, Note_off_c, 11, 59, 64
12, 1340520, Note_on_c, 11, 59, 75
12, 1340520, Note_on_c, 11, 68, 75
12, 1340635, Note_off_c, 11, 68, 64
12, 1340635, Note_off_c, 11, 59, 64
12, 1340640, Note_on_c, 11, 59, 75
12, 1340640, Note_on_c, 11, 68, 75
12, 1340755, Note_off_c, 11, 68, 64
12, 1340755, Note_off_c, 11, 59, 64
12, 1340760, Note_on_c, 11, 59, 75
12, 1340760, Note_on_c, 11, 68, 75
12, 1340875, Note_off_c, 11, 68, 64
12, 1340875, Note_off_c, 11, 59, 64
12, 1340880, Note_on_c, 11, 59, 75
12, 1340995, Note_off_c, 11, 59, 64
12, 1341000, Note_on_c, 11, 59, 75
12, 1341000, Note_on_c, 11, 68, 75
12, 1341115, Note_off_c, 11, 68, 64
12, 1341115, Note_off_c, 11, 59, 64
12, 1341120, Note_on_c, 11, 59, 75
12, 1341120, Note_on_c, 11, 68, 75
12, 1341235, Note_off_c, 11, 68, 64
12, 1341235, Note_off_c, 11, 59, 64
12, 1341240, Note_on_c, 11, 59, 75
12, 1341240, Note_on_c, 11, 68, 75
12, 1341355, Note_off_c, 11, 68, 64
12, 1341355, Note_off_c, 11, 59, 64
12, 1341360, Note_on_c, 11, 59, 75
12, 1341360, Note_on_c, 11, 68, 75
12, 1341475, Note_off_c, 11, 68, 64
12, 1341475, Note_off_c, 11, 59, 64
12, 1341480, Note_on_c, 11, 59, 75
12, 1341480, Note_on_c, 11, 68, 75
12, 1341595, Note_off_c, 11, 68, 64
12, 1341595, Note_off_c, 11, 59, 64
12, 1341600, Note_on_c, 11, 59, 75
12, 1341600, Note_on_c, 11, 68, 75
12, 1341715, Note_off_c, 11, 68, 64
12, 1341715, Note_off_c, 11, 59, 64
12, 1341720, Note_on_c, 11, 59, 75
12, 1341720, Note_on_c, 11, 68, 75
12, 1341835, Note_off_c, 11, 68, 64
12, 1341835, Note_off_c, 11, 59, 64
12, 1341840, Note_on_c, 11, 60, 75
12, 1341840, Note_on_c, 11, 69, 75
12, 1341955, Note_off_c, 11, 69, 64
12, 1341955, Note_off_c, 11, 60, 64
12, 1341960, Note_on_c, 11, 60, 75
12, 1341960, Note_on_c, 11, 69, 75
12, 1342075, Note_off_c, 11, 69, 64
12, 1342075, Note_off_c, 11, 60, 64
12, 1342080, Note_on_c, 11, 60, 75
12, 1342080, Note_on_c, 11, 69, 75
12, 1342195, Note_off_c, 11, 69, 64
12, 1342195, Note_off_c, 11, 60, 64
12, 1342200, Note_on_c, 11, 60, 75
12, 1342200, Note_on_c, 11, 69, 75
12, 1342315, Note_off_c, 11, 69, 64
12, 1342315, Note_off_c, 11, 60, 64
12, 1342320, Note_on_c, 11, 69, 108
12, 1342320, Note_on_c, 11, 81, 108
12, 1342435, Note_off_c, 11, 81, 64
12, 1342435, Note_off_c, 11, 69, 64
12, 1342440, Note_on_c, 11, 69, 108
12, 1342440, Note_on_c, 11, 81, 108
12, 1342555, Note_off_c, 11, 81, 64
12, 1342555, Note_off_c, 11, 69, 64
12, 1342560, Note_on_c, 11, 69, 108
12, 1342560, Note_on_c, 11, 81, 108
12, 1342675, Note_off_c, 11, 81, 64
12, 1342675, Note_off_c, 11, 69, 64
12, 1342680, Note_on_c, 11, 69, 108
12, 1342680, Note_on_c, 11, 81, 108
12, 1342795, Note_off_c, 11, 81, 64
12, 1342795, Note_off_c, 11, 69, 64
12, 1342800, Note_on_c, 11, 69, 108
12, 1342800, Note_on_c, 11, 81, 108
12, 1342915, Note_off_c, 11, 81, 64
12, 1342915, Note_off_c, 11, 69, 64
12, 1342920, Note_on_c, 11, 69, 108
12, 1342920, Note_on_c, 11, 81, 108
12, 1343035, Note_off_c, 11, 81, 64
12, 1343035, Note_off_c, 11, 69, 64
12, 1343040, Note_on_c, 11, 69, 108
12, 1343040, Note_on_c, 11, 81, 108
12, 1343155, Note_off_c, 11, 81, 64
12, 1343155, Note_off_c, 11, 69, 64
12, 1343160, Note_on_c, 11, 69, 108
12, 1343160, Note_on_c, 11, 81, 108
12, 1343275, Note_off_c, 11, 81, 64
12, 1343275, Note_off_c, 11, 69, 64
12, 1343280, Note_on_c, 11, 69, 108
12, 1343280, Note_on_c, 11, 81, 108
12, 1343395, Note_off_c, 11, 81, 64
12, 1343395, Note_off_c, 11, 69, 64
12, 1343400, Note_on_c, 11, 69, 108
12, 1343400, Note_on_c, 11, 81, 108
12, 1343515, Note_off_c, 11, 81, 64
12, 1343515, Note_off_c, 11, 69, 64
12, 1343520, Note_on_c, 11, 69, 108
12, 1343520, Note_on_c, 11, 81, 108
12, 1343635, Note_off_c, 11, 81, 64
12, 1343635, Note_off_c, 11, 69, 64
12, 1343640, Note_on_c, 11, 69, 108
12, 1343640, Note_on_c, 11, 81, 108
12, 1343755, Note_off_c, 11, 81, 64
12, 1343755, Note_off_c, 11, 69, 64
12, 1343760, Note_on_c, 11, 69, 108
12, 1343760, Note_on_c, 11, 81, 108
12, 1343875, Note_off_c, 11, 81, 64
12, 1343875, Note_off_c, 11, 69, 64
12, 1343880, Note_on_c, 11, 69, 108
12, 1343880, Note_on_c, 11, 81, 108
12, 1343995, Note_off_c, 11, 81, 64
12, 1343995, Note_off_c, 11, 69, 64
12, 1344000, Note_on_c, 11, 69, 108
12, 1344000, Note_on_c, 11, 81, 108
12, 1344115, Note_off_c, 11, 81, 64
12, 1344115, Note_off_c, 11, 69, 64
12, 1344120, Note_on_c, 11, 69, 108
12, 1344120, Note_on_c, 11, 81, 108
12, 1344235, Note_off_c, 11, 81, 64
12, 1344235, Note_off_c, 11, 69, 64
12, 1344240, Note_on_c, 11, 69, 108
12, 1344240, Note_on_c, 11, 81, 108
12, 1344355, Note_off_c, 11, 81, 64
12, 1344355, Note_off_c, 11, 69, 64
12, 1344360, Note_on_c, 11, 69, 108
12, 1344360, Note_on_c, 11, 81, 108
12, 1344475, Note_off_c, 11, 81, 64
12, 1344475, Note_off_c, 11, 69, 64
12, 1344480, Note_on_c, 11, 69, 108
12, 1344480, Note_on_c, 11, 81, 108
12, 1344595, Note_off_c, 11, 81, 64
12, 1344595, Note_off_c, 11, 69, 64
12, 1344600, Note_on_c, 11, 69, 108
12, 1344600, Note_on_c, 11, 81, 108
12, 1344715, Note_off_c, 11, 81, 64
12, 1344715, Note_off_c, 11, 69, 64
12, 1344720, Note_on_c, 11, 69, 108
12, 1344720, Note_on_c, 11, 81, 108
12, 1344835, Note_off_c, 11, 81, 64
12, 1344835, Note_off_c, 11, 69, 64
12, 1344840, Note_on_c, 11, 69, 108
12, 1344840, Note_on_c, 11, 81, 108
12, 1344955, Note_off_c, 11, 81, 64
12, 1344955, Note_off_c, 11, 69, 64
12, 1344960, Note_on_c, 11, 69, 108
12, 1344960, Note_on_c, 11, 81, 108
12, 1345075, Note_off_c, 11, 81, 64
12, 1345075, Note_off_c, 11, 69, 64
12, 1345080, Note_on_c, 11, 69, 108
12, 1345080, Note_on_c, 11, 81, 108
12, 1345195, Note_off_c, 11, 81, 64
12, 1345195, Note_off_c, 11, 69, 64
12, 1345200, Note_on_c, 11, 69, 108
12, 1345200, Note_on_c, 11, 81, 108
12, 1345315, Note_off_c, 11, 81, 64
12, 1345315, Note_off_c, 11, 69, 64
12, 1345320, Note_on_c, 11, 69, 108
12, 1345320, Note_on_c, 11, 81, 108
12, 1345435, Note_off_c, 11, 81, 64
12, 1345435, Note_off_c, 11, 69, 64
12, 1345440, Note_on_c, 11, 69, 108
12, 1345440, Note_on_c, 11, 81, 108
12, 1345555, Note_off_c, 11, 81, 64
12, 1345555, Note_off_c, 11, 69, 64
12, 1345560, Note_on_c, 11, 69, 108
12, 1345560, Note_on_c, 11, 81, 108
12, 1345675, Note_off_c, 11, 81, 64
12, 1345675, Note_off_c, 11, 69, 64
12, 1345680, Note_on_c, 11, 69, 108
12, 1345680, Note_on_c, 11, 81, 108
12, 1345795, Note_off_c, 11, 81, 64
12, 1345795, Note_off_c, 11, 69, 64
12, 1345800, Note_on_c, 11, 69, 108
12, 1345800, Note_on_c, 11, 81, 108
12, 1345915, Note_off_c, 11, 81, 64
12, 1345915, Note_off_c, 11, 69, 64
12, 1345920, Note_on_c, 11, 69, 108
12, 1345920, Note_on_c, 11, 81, 108
12, 1346035, Note_off_c, 11, 81, 64
12, 1346035, Note_off_c, 11, 69, 64
12, 1346040, Note_on_c, 11, 69, 108
12, 1346040, Note_on_c, 11, 81, 108
12, 1346155, Note_off_c, 11, 81, 64
12, 1346155, Note_off_c, 11, 69, 64
12, 1346160, Note_on_c, 11, 69, 108
12, 1346160, Note_on_c, 11, 81, 108
12, 1346275, Note_off_c, 11, 81, 64
12, 1346275, Note_off_c, 11, 69, 64
12, 1346280, Note_on_c, 11, 69, 108
12, 1346280, Note_on_c, 11, 81, 108
12, 1346395, Note_off_c, 11, 81, 64
12, 1346395, Note_off_c, 11, 69, 64
12, 1346400, Note_on_c, 11, 69, 108
12, 1346400, Note_on_c, 11, 81, 108
12, 1346515, Note_off_c, 11, 81, 64
12, 1346515, Note_off_c, 11, 69, 64
12, 1346520, Note_on_c, 11, 69, 108
12, 1346520, Note_on_c, 11, 81, 108
12, 1346635, Note_off_c, 11, 81, 64
12, 1346635, Note_off_c, 11, 69, 64
12, 1346640, Note_on_c, 11, 69, 108
12, 1346640, Note_on_c, 11, 81, 108
12, 1346755, Note_off_c, 11, 81, 64
12, 1346755, Note_off_c, 11, 69, 64
12, 1346760, Note_on_c, 11, 69, 108
12, 1346760, Note_on_c, 11, 81, 108
12, 1346875, Note_off_c, 11, 81, 64
12, 1346875, Note_off_c, 11, 69, 64
12, 1346880, Note_on_c, 11, 69, 108
12, 1346880, Note_on_c, 11, 81, 108
12, 1346995, Note_off_c, 11, 81, 64
12, 1346995, Note_off_c, 11, 69, 64
12, 1347000, Note_on_c, 11, 69, 108
12, 1347000, Note_on_c, 11, 81, 108
12, 1347115, Note_off_c, 11, 81, 64
12, 1347115, Note_off_c, 11, 69, 64
12, 1347120, Note_on_c, 11, 69, 108
12, 1347120, Note_on_c, 11, 81, 108
12, 1347235, Note_off_c, 11, 81, 64
12, 1347235, Note_off_c, 11, 69, 64
12, 1347240, Note_on_c, 11, 69, 108
12, 1347240, Note_on_c, 11, 81, 108
12, 1347355, Note_off_c, 11, 81, 64
12, 1347355, Note_off_c, 11, 69, 64
12, 1347360, Note_on_c, 11, 69, 108
12, 1347360, Note_on_c, 11, 81, 108
12, 1347475, Note_off_c, 11, 81, 64
12, 1347475, Note_off_c, 11, 69, 64
12, 1347480, Note_on_c, 11, 69, 108
12, 1347480, Note_on_c, 11, 81, 108
12, 1347595, Note_off_c, 11, 81, 64
12, 1347595, Note_off_c, 11, 69, 64
12, 1347600, Note_on_c, 11, 69, 108
12, 1347600, Note_on_c, 11, 81, 108
12, 1347715, Note_off_c, 11, 81, 64
12, 1347715, Note_off_c, 11, 69, 64
12, 1347720, Note_on_c, 11, 69, 108
12, 1347720, Note_on_c, 11, 81, 108
12, 1347835, Note_off_c, 11, 81, 64
12, 1347835, Note_off_c, 11, 69, 64
12, 1347840, Note_on_c, 11, 69, 108
12, 1347840, Note_on_c, 11, 81, 108
12, 1347955, Note_off_c, 11, 81, 64
12, 1347955, Note_off_c, 11, 69, 64
12, 1347960, Note_on_c, 11, 69, 108
12, 1347960, Note_on_c, 11, 81, 108
12, 1348075, Note_off_c, 11, 81, 64
12, 1348075, Note_off_c, 11, 69, 64
12, 1348080, Note_on_c, 11, 69, 108
12, 1348080, Note_on_c, 11, 81, 108
12, 1348195, Note_off_c, 11, 81, 64
12, 1348195, Note_off_c, 11, 69, 64
12, 1348200, Note_on_c, 11, 69, 108
12, 1348200, Note_on_c, 11, 81, 108
12, 1348315, Note_off_c, 11, 81, 64
12, 1348315, Note_off_c, 11, 69, 64
12, 1348320, Note_on_c, 11, 69, 108
12, 1348320, Note_on_c, 11, 81, 108
12, 1348435, Note_off_c, 11, 81, 64
12, 1348435, Note_off_c, 11, 69, 64
12, 1348440, Note_on_c, 11, 69, 108
12, 1348440, Note_on_c, 11, 81, 108
12, 1348555, Note_off_c, 11, 81, 64
12, 1348555, Note_off_c, 11, 69, 64
12, 1348560, Note_on_c, 11, 69, 108
12, 1348560, Note_on_c, 11, 81, 108
12, 1348675, Note_off_c, 11, 81, 64
12, 1348675, Note_off_c, 11, 69, 64
12, 1348680, Note_on_c, 11, 69, 108
12, 1348680, Note_on_c, 11, 81, 108
12, 1348795, Note_off_c, 11, 81, 64
12, 1348795, Note_off_c, 11, 69, 64
12, 1348800, Note_on_c, 11, 69, 108
12, 1348800, Note_on_c, 11, 81, 108
12, 1348915, Note_off_c, 11, 81, 64
12, 1348915, Note_off_c, 11, 69, 64
12, 1348920, Note_on_c, 11, 69, 108
12, 1348920, Note_on_c, 11, 81, 108
12, 1349035, Note_off_c, 11, 81, 64
12, 1349035, Note_off_c, 11, 69, 64
12, 1349040, Note_on_c, 11, 69, 108
12, 1349040, Note_on_c, 11, 81, 108
12, 1349155, Note_off_c, 11, 81, 64
12, 1349155, Note_off_c, 11, 69, 64
12, 1349160, Note_on_c, 11, 69, 108
12, 1349160, Note_on_c, 11, 81, 108
12, 1349275, Note_off_c, 11, 81, 64
12, 1349275, Note_off_c, 11, 69, 64
12, 1349280, Note_on_c, 11, 69, 108
12, 1349280, Note_on_c, 11, 81, 108
12, 1349395, Note_off_c, 11, 81, 64
12, 1349395, Note_off_c, 11, 69, 64
12, 1349400, Note_on_c, 11, 69, 108
12, 1349400, Note_on_c, 11, 81, 108
12, 1349515, Note_off_c, 11, 81, 64
12, 1349515, Note_off_c, 11, 69, 64
12, 1349520, Note_on_c, 11, 69, 108
12, 1349520, Note_on_c, 11, 81, 108
12, 1349635, Note_off_c, 11, 81, 64
12, 1349635, Note_off_c, 11, 69, 64
12, 1349640, Note_on_c, 11, 69, 108
12, 1349640, Note_on_c, 11, 81, 108
12, 1349755, Note_off_c, 11, 81, 64
12, 1349755, Note_off_c, 11, 69, 64
12, 1349760, Note_on_c, 11, 69, 108
12, 1349760, Note_on_c, 11, 81, 108
12, 1349875, Note_off_c, 11, 81, 64
12, 1349875, Note_off_c, 11, 69, 64
12, 1349880, Note_on_c, 11, 69, 108
12, 1349880, Note_on_c, 11, 81, 108
12, 1349995, Note_off_c, 11, 81, 64
12, 1349995, Note_off_c, 11, 69, 64
12, 1350000, Note_on_c, 11, 69, 108
12, 1350000, Note_on_c, 11, 81, 108
12, 1350115, Note_off_c, 11, 81, 64
12, 1350115, Note_off_c, 11, 69, 64
12, 1350120, Note_on_c, 11, 69, 108
12, 1350120, Note_on_c, 11, 81, 108
12, 1350235, Note_off_c, 11, 81, 64
12, 1350235, Note_off_c, 11, 69, 64
12, 1350240, Note_on_c, 11, 69, 108
12, 1350240, Note_on_c, 11, 81, 108
12, 1350355, Note_off_c, 11, 81, 64
12, 1350355, Note_off_c, 11, 69, 64
12, 1350360, Note_on_c, 11, 69, 108
12, 1350360, Note_on_c, 11, 81, 108
12, 1350475, Note_off_c, 11, 81, 64
12, 1350475, Note_off_c, 11, 69, 64
12, 1350480, Note_on_c, 11, 69, 108
12, 1350480, Note_on_c, 11, 81, 108
12, 1350595, Note_off_c, 11, 81, 64
12, 1350595, Note_off_c, 11, 69, 64
12, 1350600, Note_on_c, 11, 75, 108
12, 1350715, Note_off_c, 11, 75, 64
12, 1350720, Note_on_c, 11, 75, 108
12, 1350835, Note_off_c, 11, 75, 64
12, 1350840, Note_on_c, 11, 75, 108
12, 1350955, Note_off_c, 11, 75, 64
12, 1350960, Note_on_c, 11, 75, 108
12, 1351075, Note_off_c, 11, 75, 64
12, 1351080, Note_on_c, 11, 75, 108
12, 1351195, Note_off_c, 11, 75, 64
12, 1351200, Note_on_c, 11, 75, 108
12, 1351315, Note_off_c, 11, 75, 64
12, 1351320, Note_on_c, 11, 75, 108
12, 1351435, Note_off_c, 11, 75, 64
12, 1351440, Note_on_c, 11, 75, 108
12, 1351555, Note_off_c, 11, 75, 64
12, 1351560, Note_on_c, 11, 75, 108
12, 1351675, Note_off_c, 11, 75, 64
12, 1351680, Note_on_c, 11, 75, 108
12, 1351795, Note_off_c, 11, 75, 64
12, 1351800, Note_on_c, 11, 75, 108
12, 1351915, Note_off_c, 11, 75, 64
12, 1351920, Note_on_c, 11, 75, 108
12, 1352035, Note_off_c, 11, 75, 64
12, 1352040, Note_on_c, 11, 75, 108
12, 1352155, Note_off_c, 11, 75, 64
12, 1352160, Note_on_c, 11, 75, 108
12, 1352275, Note_off_c, 11, 75, 64
12, 1352280, Note_on_c, 11, 75, 108
12, 1352395, Note_off_c, 11, 75, 64
12, 1352400, Note_on_c, 11, 75, 108
12, 1352515, Note_off_c, 11, 75, 64
12, 1352520, Note_on_c, 11, 75, 108
12, 1352635, Note_off_c, 11, 75, 64
12, 1352640, Note_on_c, 11, 75, 108
12, 1352755, Note_off_c, 11, 75, 64
12, 1352760, Note_on_c, 11, 75, 108
12, 1352875, Note_off_c, 11, 75, 64
12, 1352880, Note_on_c, 11, 75, 108
12, 1352995, Note_off_c, 11, 75, 64
12, 1353000, Note_on_c, 11, 75, 108
12, 1353115, Note_off_c, 11, 75, 64
12, 1353120, Note_on_c, 11, 75, 108
12, 1353235, Note_off_c, 11, 75, 64
12, 1353240, Note_on_c, 11, 75, 108
12, 1353355, Note_off_c, 11, 75, 64
12, 1353360, Note_on_c, 11, 75, 108
12, 1353475, Note_off_c, 11, 75, 64
12, 1353480, Note_on_c, 11, 75, 108
12, 1353595, Note_off_c, 11, 75, 64
12, 1353600, Note_on_c, 11, 75, 108
12, 1353715, Note_off_c, 11, 75, 64
12, 1353720, Note_on_c, 11, 75, 108
12, 1353835, Note_off_c, 11, 75, 64
12, 1353840, Note_on_c, 11, 75, 108
12, 1353955, Note_off_c, 11, 75, 64
12, 1353960, Note_on_c, 11, 75, 108
12, 1354075, Note_off_c, 11, 75, 64
12, 1354080, Note_on_c, 11, 75, 108
12, 1354195, Note_off_c, 11, 75, 64
12, 1354200, Note_on_c, 11, 75, 108
12, 1354315, Note_off_c, 11, 75, 64
12, 1354320, Note_on_c, 11, 73, 108
12, 1354435, Note_off_c, 11, 73, 64
12, 1354440, Note_on_c, 11, 73, 108
12, 1354555, Note_off_c, 11, 73, 64
12, 1354560, Note_on_c, 11, 73, 108
12, 1354675, Note_off_c, 11, 73, 64
12, 1354680, Note_on_c, 11, 73, 108
12, 1354795, Note_off_c, 11, 73, 64
12, 1354800, Note_on_c, 11, 73, 108
12, 1354915, Note_off_c, 11, 73, 64
12, 1354920, Note_on_c, 11, 73, 108
12, 1355035, Note_off_c, 11, 73, 64
12, 1355040, Note_on_c, 11, 73, 108
12, 1355155, Note_off_c, 11, 73, 64
12, 1355160, Note_on_c, 11, 73, 108
12, 1355275, Note_off_c, 11, 73, 64
12, 1355280, Note_on_c, 11, 73, 108
12, 1355395, Note_off_c, 11, 73, 64
12, 1355400, Note_on_c, 11, 73, 108
12, 1355515, Note_off_c, 11, 73, 64
12, 1355520, Note_on_c, 11, 73, 108
12, 1355635, Note_off_c, 11, 73, 64
12, 1355640, Note_on_c, 11, 73, 108
12, 1355755, Note_off_c, 11, 73, 64
12, 1355760, Note_on_c, 11, 73, 108
12, 1355875, Note_off_c, 11, 73, 64
12, 1355880, Note_on_c, 11, 73, 108
12, 1355995, Note_off_c, 11, 73, 64
12, 1356000, Note_on_c, 11, 73, 108
12, 1356115, Note_off_c, 11, 73, 64
12, 1356120, Note_on_c, 11, 73, 108
12, 1356235, Note_off_c, 11, 73, 64
12, 1356240, Note_on_c, 11, 73, 108
12, 1356355, Note_off_c, 11, 73, 64
12, 1356360, Note_on_c, 11, 73, 108
12, 1356475, Note_off_c, 11, 73, 64
12, 1356480, Note_on_c, 11, 73, 108
12, 1356595, Note_off_c, 11, 73, 64
12, 1356600, Note_on_c, 11, 73, 108
12, 1356715, Note_off_c, 11, 73, 64
12, 1356720, Note_on_c, 11, 73, 108
12, 1356835, Note_off_c, 11, 73, 64
12, 1356840, Note_on_c, 11, 73, 108
12, 1356955, Note_off_c, 11, 73, 64
12, 1356960, Note_on_c, 11, 73, 108
12, 1357075, Note_off_c, 11, 73, 64
12, 1357080, Note_on_c, 11, 73, 108
12, 1357195, Note_off_c, 11, 73, 64
12, 1357200, Note_on_c, 11, 73, 108
12, 1357315, Note_off_c, 11, 73, 64
12, 1357320, Note_on_c, 11, 73, 108
12, 1357435, Note_off_c, 11, 73, 64
12, 1357440, Note_on_c, 11, 73, 108
12, 1357555, Note_off_c, 11, 73, 64
12, 1357560, Note_on_c, 11, 73, 108
12, 1357675, Note_off_c, 11, 73, 64
12, 1357680, Note_on_c, 11, 73, 108
12, 1357795, Note_off_c, 11, 73, 64
12, 1357800, Note_on_c, 11, 73, 108
12, 1357915, Note_off_c, 11, 73, 64
12, 1357920, Note_on_c, 11, 73, 108
12, 1358035, Note_off_c, 11, 73, 64
12, 1358040, Note_on_c, 11, 73, 108
12, 1358155, Note_off_c, 11, 73, 64
12, 1358160, Note_on_c, 11, 69, 108
12, 1358160, Note_on_c, 11, 72, 108
12, 1358275, Note_off_c, 11, 72, 64
12, 1358275, Note_off_c, 11, 69, 64
12, 1358280, Note_on_c, 11, 69, 108
12, 1358280, Note_on_c, 11, 72, 108
12, 1358395, Note_off_c, 11, 72, 64
12, 1358395, Note_off_c, 11, 69, 64
12, 1358400, Note_on_c, 11, 69, 108
12, 1358400, Note_on_c, 11, 72, 108
12, 1358515, Note_off_c, 11, 72, 64
12, 1358515, Note_off_c, 11, 69, 64
12, 1358520, Note_on_c, 11, 69, 108
12, 1358520, Note_on_c, 11, 72, 108
12, 1358635, Note_off_c, 11, 72, 64
12, 1358635, Note_off_c, 11, 69, 64
12, 1358640, Note_on_c, 11, 69, 108
12, 1358640, Note_on_c, 11, 72, 108
12, 1358755, Note_off_c, 11, 72, 64
12, 1358755, Note_off_c, 11, 69, 64
12, 1358760, Note_on_c, 11, 69, 108
12, 1358760, Note_on_c, 11, 72, 108
12, 1358875, Note_off_c, 11, 72, 64
12, 1358875, Note_off_c, 11, 69, 64
12, 1358880, Note_on_c, 11, 69, 108
12, 1358880, Note_on_c, 11, 72, 108
12, 1358995, Note_off_c, 11, 72, 64
12, 1358995, Note_off_c, 11, 69, 64
12, 1359000, Note_on_c, 11, 69, 108
12, 1359000, Note_on_c, 11, 72, 108
12, 1359115, Note_off_c, 11, 72, 64
12, 1359115, Note_off_c, 11, 69, 64
12, 1359120, Note_on_c, 11, 69, 108
12, 1359120, Note_on_c, 11, 72, 108
12, 1359235, Note_off_c, 11, 72, 64
12, 1359235, Note_off_c, 11, 69, 64
12, 1359240, Note_on_c, 11, 69, 108
12, 1359240, Note_on_c, 11, 72, 108
12, 1359355, Note_off_c, 11, 72, 64
12, 1359355, Note_off_c, 11, 69, 64
12, 1359360, Note_on_c, 11, 69, 108
12, 1359360, Note_on_c, 11, 72, 108
12, 1359475, Note_off_c, 11, 72, 64
12, 1359475, Note_off_c, 11, 69, 64
12, 1359480, Note_on_c, 11, 69, 108
12, 1359480, Note_on_c, 11, 72, 108
12, 1359595, Note_off_c, 11, 72, 64
12, 1359595, Note_off_c, 11, 69, 64
12, 1359600, Note_on_c, 11, 69, 108
12, 1359600, Note_on_c, 11, 72, 108
12, 1359715, Note_off_c, 11, 72, 64
12, 1359715, Note_off_c, 11, 69, 64
12, 1359720, Note_on_c, 11, 69, 108
12, 1359720, Note_on_c, 11, 72, 108
12, 1359835, Note_off_c, 11, 72, 64
12, 1359835, Note_off_c, 11, 69, 64
12, 1359840, Note_on_c, 11, 69, 108
12, 1359840, Note_on_c, 11, 72, 108
12, 1359955, Note_off_c, 11, 72, 64
12, 1359955, Note_off_c, 11, 69, 64
12, 1359960, Note_on_c, 11, 69, 108
12, 1359960, Note_on_c, 11, 72, 108
12, 1360075, Note_off_c, 11, 72, 64
12, 1360075, Note_off_c, 11, 69, 64
12, 1360080, Note_on_c, 11, 69, 108
12, 1360080, Note_on_c, 11, 72, 108
12, 1360195, Note_off_c, 11, 72, 64
12, 1360195, Note_off_c, 11, 69, 64
12, 1360200, Note_on_c, 11, 69, 108
12, 1360200, Note_on_c, 11, 72, 108
12, 1360315, Note_off_c, 11, 72, 64
12, 1360315, Note_off_c, 11, 69, 64
12, 1360320, Note_on_c, 11, 69, 108
12, 1360320, Note_on_c, 11, 72, 108
12, 1360435, Note_off_c, 11, 72, 64
12, 1360435, Note_off_c, 11, 69, 64
12, 1360440, Note_on_c, 11, 69, 108
12, 1360440, Note_on_c, 11, 72, 108
12, 1360555, Note_off_c, 11, 72, 64
12, 1360555, Note_off_c, 11, 69, 64
12, 1360560, Note_on_c, 11, 69, 108
12, 1360560, Note_on_c, 11, 72, 108
12, 1360675, Note_off_c, 11, 72, 64
12, 1360675, Note_off_c, 11, 69, 64
12, 1360680, Note_on_c, 11, 69, 108
12, 1360680, Note_on_c, 11, 72, 108
12, 1360795, Note_off_c, 11, 72, 64
12, 1360795, Note_off_c, 11, 69, 64
12, 1360800, Note_on_c, 11, 69, 108
12, 1360800, Note_on_c, 11, 72, 108
12, 1360915, Note_off_c, 11, 72, 64
12, 1360915, Note_off_c, 11, 69, 64
12, 1360920, Note_on_c, 11, 69, 108
12, 1360920, Note_on_c, 11, 72, 108
12, 1361035, Note_off_c, 11, 72, 64
12, 1361035, Note_off_c, 11, 69, 64
12, 1361040, Note_on_c, 11, 69, 108
12, 1361040, Note_on_c, 11, 72, 108
12, 1361155, Note_off_c, 11, 72, 64
12, 1361155, Note_off_c, 11, 69, 64
12, 1361160, Note_on_c, 11, 69, 108
12, 1361160, Note_on_c, 11, 72, 108
12, 1361275, Note_off_c, 11, 72, 64
12, 1361275, Note_off_c, 11, 69, 64
12, 1361280, Note_on_c, 11, 69, 108
12, 1361280, Note_on_c, 11, 72, 108
12, 1361395, Note_off_c, 11, 72, 64
12, 1361395, Note_off_c, 11, 69, 64
12, 1361400, Note_on_c, 11, 69, 108
12, 1361400, Note_on_c, 11, 72, 108
12, 1361515, Note_off_c, 11, 72, 64
12, 1361515, Note_off_c, 11, 69, 64
12, 1361520, Note_on_c, 11, 69, 108
12, 1361520, Note_on_c, 11, 72, 108
12, 1361635, Note_off_c, 11, 72, 64
12, 1361635, Note_off_c, 11, 69, 64
12, 1361640, Note_on_c, 11, 69, 108
12, 1361640, Note_on_c, 11, 72, 108
12, 1361755, Note_off_c, 11, 72, 64
12, 1361755, Note_off_c, 11, 69, 64
12, 1361760, Note_on_c, 11, 69, 108
12, 1361760, Note_on_c, 11, 72, 108
12, 1361875, Note_off_c, 11, 72, 64
12, 1361875, Note_off_c, 11, 69, 64
12, 1361880, Note_on_c, 11, 69, 108
12, 1361880, Note_on_c, 11, 72, 108
12, 1361995, Note_off_c, 11, 72, 64
12, 1361995, Note_off_c, 11, 69, 64
12, 1362000, Note_on_c, 11, 70, 108
12, 1362115, Note_off_c, 11, 70, 64
12, 1362120, Note_on_c, 11, 70, 108
12, 1362235, Note_off_c, 11, 70, 64
12, 1362240, Note_on_c, 11, 70, 108
12, 1362355, Note_off_c, 11, 70, 64
12, 1362360, Note_on_c, 11, 70, 108
12, 1362475, Note_off_c, 11, 70, 64
12, 1362480, Note_on_c, 11, 70, 108
12, 1362595, Note_off_c, 11, 70, 64
12, 1362600, Note_on_c, 11, 70, 108
12, 1362715, Note_off_c, 11, 70, 64
12, 1362720, Note_on_c, 11, 70, 108
12, 1362835, Note_off_c, 11, 70, 64
12, 1362840, Note_on_c, 11, 70, 108
12, 1362955, Note_off_c, 11, 70, 64
12, 1362960, Note_on_c, 11, 70, 108
12, 1363075, Note_off_c, 11, 70, 64
12, 1363080, Note_on_c, 11, 70, 108
12, 1363195, Note_off_c, 11, 70, 64
12, 1363200, Note_on_c, 11, 70, 108
12, 1363315, Note_off_c, 11, 70, 64
12, 1363320, Note_on_c, 11, 70, 108
12, 1363435, Note_off_c, 11, 70, 64
12, 1363440, Note_on_c, 11, 70, 108
12, 1363555, Note_off_c, 11, 70, 64
12, 1363560, Note_on_c, 11, 70, 108
12, 1363675, Note_off_c, 11, 70, 64
12, 1363680, Note_on_c, 11, 70, 108
12, 1363795, Note_off_c, 11, 70, 64
12, 1363800, Note_on_c, 11, 70, 108
12, 1363915, Note_off_c, 11, 70, 64
12, 1363920, Note_on_c, 11, 67, 108
12, 1363920, Note_on_c, 11, 70, 108
12, 1364035, Note_off_c, 11, 70, 64
12, 1364035, Note_off_c, 11, 67, 64
12, 1364040, Note_on_c, 11, 67, 108
12, 1364040, Note_on_c, 11, 70, 108
12, 1364155, Note_off_c, 11, 70, 64
12, 1364155, Note_off_c, 11, 67, 64
12, 1364160, Note_on_c, 11, 67, 108
12, 1364160, Note_on_c, 11, 70, 108
12, 1364275, Note_off_c, 11, 70, 64
12, 1364275, Note_off_c, 11, 67, 64
12, 1364280, Note_on_c, 11, 67, 108
12, 1364280, Note_on_c, 11, 70, 108
12, 1364395, Note_off_c, 11, 70, 64
12, 1364395, Note_off_c, 11, 67, 64
12, 1364400, Note_on_c, 11, 67, 108
12, 1364400, Note_on_c, 11, 70, 108
12, 1364515, Note_off_c, 11, 70, 64
12, 1364515, Note_off_c, 11, 67, 64
12, 1364520, Note_on_c, 11, 67, 108
12, 1364520, Note_on_c, 11, 70, 108
12, 1364635, Note_off_c, 11, 70, 64
12, 1364635, Note_off_c, 11, 67, 64
12, 1364640, Note_on_c, 11, 67, 108
12, 1364640, Note_on_c, 11, 70, 108
12, 1364755, Note_off_c, 11, 70, 64
12, 1364755, Note_off_c, 11, 67, 64
12, 1364760, Note_on_c, 11, 67, 108
12, 1364760, Note_on_c, 11, 70, 108
12, 1364875, Note_off_c, 11, 70, 64
12, 1364875, Note_off_c, 11, 67, 64
12, 1364880, Note_on_c, 11, 67, 108
12, 1364880, Note_on_c, 11, 70, 108
12, 1364995, Note_off_c, 11, 70, 64
12, 1364995, Note_off_c, 11, 67, 64
12, 1365000, Note_on_c, 11, 67, 108
12, 1365000, Note_on_c, 11, 70, 108
12, 1365115, Note_off_c, 11, 70, 64
12, 1365115, Note_off_c, 11, 67, 64
12, 1365120, Note_on_c, 11, 67, 108
12, 1365120, Note_on_c, 11, 70, 108
12, 1365235, Note_off_c, 11, 70, 64
12, 1365235, Note_off_c, 11, 67, 64
12, 1365240, Note_on_c, 11, 67, 108
12, 1365240, Note_on_c, 11, 70, 108
12, 1365355, Note_off_c, 11, 70, 64
12, 1365355, Note_off_c, 11, 67, 64
12, 1365360, Note_on_c, 11, 67, 108
12, 1365360, Note_on_c, 11, 70, 108
12, 1365475, Note_off_c, 11, 70, 64
12, 1365475, Note_off_c, 11, 67, 64
12, 1365480, Note_on_c, 11, 67, 108
12, 1365480, Note_on_c, 11, 70, 108
12, 1365595, Note_off_c, 11, 70, 64
12, 1365595, Note_off_c, 11, 67, 64
12, 1365600, Note_on_c, 11, 67, 108
12, 1365600, Note_on_c, 11, 70, 108
12, 1365715, Note_off_c, 11, 70, 64
12, 1365715, Note_off_c, 11, 67, 64
12, 1365720, Note_on_c, 11, 67, 108
12, 1365720, Note_on_c, 11, 70, 108
12, 1365835, Note_off_c, 11, 70, 64
12, 1365835, Note_off_c, 11, 67, 64
12, 1365840, Note_on_c, 11, 57, 92
12, 1365955, Note_off_c, 11, 57, 64
12, 1365960, Note_on_c, 11, 57, 92
12, 1366075, Note_off_c, 11, 57, 64
12, 1366080, Note_on_c, 11, 60, 92
12, 1366195, Note_off_c, 11, 60, 64
12, 1366200, Note_on_c, 11, 60, 92
12, 1366315, Note_off_c, 11, 60, 64
12, 1366320, Note_on_c, 11, 57, 92
12, 1366435, Note_off_c, 11, 57, 64
12, 1366440, Note_on_c, 11, 57, 92
12, 1366555, Note_off_c, 11, 57, 64
12, 1366560, Note_on_c, 11, 60, 92
12, 1366675, Note_off_c, 11, 60, 64
12, 1366680, Note_on_c, 11, 60, 92
12, 1366795, Note_off_c, 11, 60, 64
12, 1366800, Note_on_c, 11, 57, 92
12, 1366915, Note_off_c, 11, 57, 64
12, 1366920, Note_on_c, 11, 57, 92
12, 1367035, Note_off_c, 11, 57, 64
12, 1367040, Note_on_c, 11, 60, 92
12, 1367155, Note_off_c, 11, 60, 64
12, 1367160, Note_on_c, 11, 60, 92
12, 1367275, Note_off_c, 11, 60, 64
12, 1367280, Note_on_c, 11, 57, 92
12, 1367395, Note_off_c, 11, 57, 64
12, 1367400, Note_on_c, 11, 57, 92
12, 1367515, Note_off_c, 11, 57, 64
12, 1367520, Note_on_c, 11, 60, 92
12, 1367635, Note_off_c, 11, 60, 64
12, 1367640, Note_on_c, 11, 60, 92
12, 1367755, Note_off_c, 11, 60, 64
12, 1367760, Note_on_c, 11, 58, 92
12, 1367875, Note_off_c, 11, 58, 64
12, 1367880, Note_on_c, 11, 58, 91
12, 1367995, Note_off_c, 11, 58, 64
12, 1368000, Note_on_c, 11, 61, 90
12, 1368115, Note_off_c, 11, 61, 64
12, 1368120, Note_on_c, 11, 61, 89
12, 1368235, Note_off_c, 11, 61, 64
12, 1368240, Note_on_c, 11, 58, 88
12, 1368355, Note_off_c, 11, 58, 64
12, 1368360, Note_on_c, 11, 58, 87
12, 1368475, Note_off_c, 11, 58, 64
12, 1368480, Note_on_c, 11, 61, 86
12, 1368595, Note_off_c, 11, 61, 64
12, 1368600, Note_on_c, 11, 61, 85
12, 1368715, Note_off_c, 11, 61, 64
12, 1368720, Note_on_c, 11, 58, 84
12, 1368835, Note_off_c, 11, 58, 64
12, 1368840, Note_on_c, 11, 58, 83
12, 1368955, Note_off_c, 11, 58, 64
12, 1368960, Note_on_c, 11, 61, 82
12, 1369075, Note_off_c, 11, 61, 64
12, 1369080, Note_on_c, 11, 61, 81
12, 1369195, Note_off_c, 11, 61, 64
12, 1369200, Note_on_c, 11, 57, 80
12, 1369315, Note_off_c, 11, 57, 64
12, 1369320, Note_on_c, 11, 57, 79
12, 1369435, Note_off_c, 11, 57, 64
12, 1369440, Note_on_c, 11, 63, 78
12, 1369555, Note_off_c, 11, 63, 64
12, 1369560, Note_on_c, 11, 63, 77
12, 1369675, Note_off_c, 11, 63, 64
12, 1369680, Note_on_c, 11, 61, 75
12, 1369795, Note_off_c, 11, 61, 64
12, 1369800, Note_on_c, 11, 61, 75
12, 1369915, Note_off_c, 11, 61, 64
12, 1369920, Note_on_c, 11, 65, 75
12, 1370035, Note_off_c, 11, 65, 64
12, 1370040, Note_on_c, 11, 65, 75
12, 1370155, Note_off_c, 11, 65, 64
12, 1370160, Note_on_c, 11, 61, 75
12, 1370275, Note_off_c, 11, 61, 64
12, 1370280, Note_on_c, 11, 61, 75
12, 1370395, Note_off_c, 11, 61, 64
12, 1370400, Note_on_c, 11, 65, 75
12, 1370515, Note_off_c, 11, 65, 64
12, 1370520, Note_on_c, 11, 65, 75
12, 1370635, Note_off_c, 11, 65, 64
12, 1370640, Note_on_c, 11, 61, 75
12, 1370755, Note_off_c, 11, 61, 64
12, 1370760, Note_on_c, 11, 61, 75
12, 1370875, Note_off_c, 11, 61, 64
12, 1370880, Note_on_c, 11, 65, 75
12, 1370995, Note_off_c, 11, 65, 64
12, 1371000, Note_on_c, 11, 65, 75
12, 1371115, Note_off_c, 11, 65, 64
12, 1371120, Note_on_c, 11, 60, 75
12, 1371235, Note_off_c, 11, 60, 64
12, 1371240, Note_on_c, 11, 60, 75
12, 1371355, Note_off_c, 11, 60, 64
12, 1371360, Note_on_c, 11, 62, 75
12, 1371475, Note_off_c, 11, 62, 64
12, 1371480, Note_on_c, 11, 62, 75
12, 1371595, Note_off_c, 11, 62, 64
12, 1371600, Note_on_c, 11, 59, 75
12, 1371715, Note_off_c, 11, 59, 64
12, 1371720, Note_on_c, 11, 59, 75
12, 1371835, Note_off_c, 11, 59, 64
12, 1371840, Note_on_c, 11, 62, 75
12, 1371955, Note_off_c, 11, 62, 64
12, 1371960, Note_on_c, 11, 62, 75
12, 1372075, Note_off_c, 11, 62, 64
12, 1372080, Note_on_c, 11, 59, 75
12, 1372195, Note_off_c, 11, 59, 64
12, 1372200, Note_on_c, 11, 59, 75
12, 1372315, Note_off_c, 11, 59, 64
12, 1372320, Note_on_c, 11, 62, 75
12, 1372435, Note_off_c, 11, 62, 64
12, 1372440, Note_on_c, 11, 62, 75
12, 1372555, Note_off_c, 11, 62, 64
12, 1372560, Note_on_c, 11, 59, 75
12, 1372675, Note_off_c, 11, 59, 64
12, 1372680, Note_on_c, 11, 59, 75
12, 1372795, Note_off_c, 11, 59, 64
12, 1372800, Note_on_c, 11, 62, 75
12, 1372915, Note_off_c, 11, 62, 64
12, 1372920, Note_on_c, 11, 62, 75
12, 1373035, Note_off_c, 11, 62, 64
12, 1373040, Note_on_c, 11, 59, 75
12, 1373155, Note_off_c, 11, 59, 64
12, 1373160, Note_on_c, 11, 59, 75
12, 1373275, Note_off_c, 11, 59, 64
12, 1373280, Note_on_c, 11, 62, 75
12, 1373395, Note_off_c, 11, 62, 64
12, 1373400, Note_on_c, 11, 62, 75
12, 1373515, Note_off_c, 11, 62, 64
12, 1373520, Note_on_c, 11, 59, 60
12, 1373635, Note_off_c, 11, 59, 64
12, 1373640, Note_on_c, 11, 59, 60
12, 1373755, Note_off_c, 11, 59, 64
12, 1373760, Note_on_c, 11, 62, 60
12, 1373875, Note_off_c, 11, 62, 64
12, 1373880, Note_on_c, 11, 62, 60
12, 1373995, Note_off_c, 11, 62, 64
12, 1374000, Note_on_c, 11, 59, 60
12, 1374115, Note_off_c, 11, 59, 64
12, 1374120, Note_on_c, 11, 59, 60
12, 1374235, Note_off_c, 11, 59, 64
12, 1374240, Note_on_c, 11, 62, 60
12, 1374355, Note_off_c, 11, 62, 64
12, 1374360, Note_on_c, 11, 62, 60
12, 1374475, Note_off_c, 11, 62, 64
12, 1374480, Note_on_c, 11, 59, 60
12, 1374595, Note_off_c, 11, 59, 64
12, 1374600, Note_on_c, 11, 59, 60
12, 1374715, Note_off_c, 11, 59, 64
12, 1374720, Note_on_c, 11, 62, 60
12, 1374835, Note_off_c, 11, 62, 64
12, 1374840, Note_on_c, 11, 62, 60
12, 1374955, Note_off_c, 11, 62, 64
12, 1374960, Note_on_c, 11, 59, 60
12, 1375075, Note_off_c, 11, 59, 64
12, 1375080, Note_on_c, 11, 59, 60
12, 1375195, Note_off_c, 11, 59, 64
12, 1375200, Note_on_c, 11, 62, 60
12, 1375315, Note_off_c, 11, 62, 64
12, 1375320, Note_on_c, 11, 62, 60
12, 1375435, Note_off_c, 11, 62, 64
12, 1375440, Note_on_c, 11, 60, 60
12, 1375555, Note_off_c, 11, 60, 64
12, 1375560, Note_on_c, 11, 60, 60
12, 1375675, Note_off_c, 11, 60, 64
12, 1375680, Note_on_c, 11, 63, 59
12, 1375795, Note_off_c, 11, 63, 64
12, 1375800, Note_on_c, 11, 63, 58
12, 1375915, Note_off_c, 11, 63, 64
12, 1375920, Note_on_c, 11, 60, 57
12, 1376035, Note_off_c, 11, 60, 64
12, 1376040, Note_on_c, 11, 60, 56
12, 1376155, Note_off_c, 11, 60, 64
12, 1376160, Note_on_c, 11, 63, 55
12, 1376275, Note_off_c, 11, 63, 64
12, 1376280, Note_on_c, 11, 63, 54
12, 1376395, Note_off_c, 11, 63, 64
12, 1376400, Note_on_c, 11, 60, 53
12, 1376515, Note_off_c, 11, 60, 64
12, 1376520, Note_on_c, 11, 60, 52
12, 1376635, Note_off_c, 11, 60, 64
12, 1376640, Note_on_c, 11, 63, 51
12, 1376755, Note_off_c, 11, 63, 64
12, 1376760, Note_on_c, 11, 63, 50
12, 1376875, Note_off_c, 11, 63, 64
12, 1376880, Note_on_c, 11, 59, 49
12, 1376995, Note_off_c, 11, 59, 64
12, 1377000, Note_on_c, 11, 59, 48
12, 1377115, Note_off_c, 11, 59, 64
12, 1377120, Note_on_c, 11, 65, 47
12, 1377235, Note_off_c, 11, 65, 64
12, 1377240, Note_on_c, 11, 65, 46
12, 1377355, Note_off_c, 11, 65, 64
12, 1377360, Note_on_c, 11, 60, 45
12, 1377475, Note_off_c, 11, 60, 64
12, 1377480, Note_on_c, 11, 60, 45
12, 1377595, Note_off_c, 11, 60, 64
12, 1377600, Note_on_c, 11, 63, 45
12, 1377715, Note_off_c, 11, 63, 64
12, 1377720, Note_on_c, 11, 63, 45
12, 1377835, Note_off_c, 11, 63, 64
12, 1377840, Note_on_c, 11, 60, 45
12, 1377955, Note_off_c, 11, 60, 64
12, 1377960, Note_on_c, 11, 60, 45
12, 1378075, Note_off_c, 11, 60, 64
12, 1378080, Note_on_c, 11, 63, 45
12, 1378195, Note_off_c, 11, 63, 64
12, 1378200, Note_on_c, 11, 63, 45
12, 1378315, Note_off_c, 11, 63, 64
12, 1378320, Note_on_c, 11, 60, 45
12, 1378435, Note_off_c, 11, 60, 64
12, 1378440, Note_on_c, 11, 60, 45
12, 1378555, Note_off_c, 11, 60, 64
12, 1378560, Note_on_c, 11, 63, 45
12, 1378675, Note_off_c, 11, 63, 64
12, 1378680, Note_on_c, 11, 63, 45
12, 1378795, Note_off_c, 11, 63, 64
12, 1378800, Note_on_c, 11, 61, 45
12, 1378915, Note_off_c, 11, 61, 64
12, 1378920, Note_on_c, 11, 61, 45
12, 1379035, Note_off_c, 11, 61, 64
12, 1379040, Note_on_c, 11, 63, 45
12, 1379155, Note_off_c, 11, 63, 64
12, 1379160, Note_on_c, 11, 63, 45
12, 1379275, Note_off_c, 11, 63, 64
12, 1379280, Note_on_c, 11, 60, 45
12, 1379395, Note_off_c, 11, 60, 64
12, 1379400, Note_on_c, 11, 60, 45
12, 1379515, Note_off_c, 11, 60, 64
12, 1379520, Note_on_c, 11, 63, 45
12, 1379635, Note_off_c, 11, 63, 64
12, 1379640, Note_on_c, 11, 63, 45
12, 1379755, Note_off_c, 11, 63, 64
12, 1379760, Note_on_c, 11, 60, 45
12, 1379875, Note_off_c, 11, 60, 64
12, 1379880, Note_on_c, 11, 60, 45
12, 1379995, Note_off_c, 11, 60, 64
12, 1380000, Note_on_c, 11, 63, 45
12, 1380115, Note_off_c, 11, 63, 64
12, 1380120, Note_on_c, 11, 63, 45
12, 1380235, Note_off_c, 11, 63, 64
12, 1380240, Note_on_c, 11, 60, 45
12, 1380355, Note_off_c, 11, 60, 64
12, 1380360, Note_on_c, 11, 60, 45
12, 1380475, Note_off_c, 11, 60, 64
12, 1380480, Note_on_c, 11, 63, 45
12, 1380595, Note_off_c, 11, 63, 64
12, 1380600, Note_on_c, 11, 63, 45
12, 1380715, Note_off_c, 11, 63, 64
12, 1380720, Note_on_c, 11, 60, 45
12, 1380835, Note_off_c, 11, 60, 64
12, 1380840, Note_on_c, 11, 60, 45
12, 1380955, Note_off_c, 11, 60, 64
12, 1380960, Note_on_c, 11, 63, 45
12, 1381075, Note_off_c, 11, 63, 64
12, 1381080, Note_on_c, 11, 63, 45
12, 1381195, Note_off_c, 11, 63, 64
12, 1381200, Note_on_c, 11, 60, 45
12, 1381315, Note_off_c, 11, 60, 64
12, 1381320, Note_on_c, 11, 60, 45
12, 1381435, Note_off_c, 11, 60, 64
12, 1381440, Note_on_c, 11, 63, 45
12, 1381555, Note_off_c, 11, 63, 64
12, 1381560, Note_on_c, 11, 63, 45
12, 1381675, Note_off_c, 11, 63, 64
12, 1381680, Note_on_c, 11, 60, 45
12, 1381795, Note_off_c, 11, 60, 64
12, 1381800, Note_on_c, 11, 60, 45
12, 1381915, Note_off_c, 11, 60, 64
12, 1381920, Note_on_c, 11, 63, 45
12, 1382035, Note_off_c, 11, 63, 64
12, 1382040, Note_on_c, 11, 63, 45
12, 1382155, Note_off_c, 11, 63, 64
12, 1382160, Note_on_c, 11, 60, 45
12, 1382275, Note_off_c, 11, 60, 64
12, 1382280, Note_on_c, 11, 60, 45
12, 1382395, Note_off_c, 11, 60, 64
12, 1382400, Note_on_c, 11, 63, 45
12, 1382515, Note_off_c, 11, 63, 64
12, 1382520, Note_on_c, 11, 63, 45
12, 1382635, Note_off_c, 11, 63, 64
12, 1382640, Note_on_c, 11, 60, 45
12, 1382755, Note_off_c, 11, 60, 64
12, 1382760, Note_on_c, 11, 60, 45
12, 1382875, Note_off_c, 11, 60, 64
12, 1382880, Note_on_c, 11, 63, 45
12, 1382995, Note_off_c, 11, 63, 64
12, 1383000, Note_on_c, 11, 63, 45
12, 1383115, Note_off_c, 11, 63, 64
12, 1383120, Note_on_c, 11, 61, 45
12, 1383235, Note_off_c, 11, 61, 64
12, 1383240, Note_on_c, 11, 61, 45
12, 1383355, Note_off_c, 11, 61, 64
12, 1383360, Note_on_c, 11, 65, 45
12, 1383475, Note_off_c, 11, 65, 64
12, 1383480, Note_on_c, 11, 65, 45
12, 1383595, Note_off_c, 11, 65, 64
12, 1383600, Note_on_c, 11, 61, 45
12, 1383715, Note_off_c, 11, 61, 64
12, 1383720, Note_on_c, 11, 61, 45
12, 1383835, Note_off_c, 11, 61, 64
12, 1383840, Note_on_c, 11, 65, 45
12, 1383955, Note_off_c, 11, 65, 64
12, 1383960, Note_on_c, 11, 65, 45
12, 1384075, Note_off_c, 11, 65, 64
12, 1384080, Note_on_c, 11, 61, 45
12, 1384195, Note_off_c, 11, 61, 64
12, 1384200, Note_on_c, 11, 61, 45
12, 1384315, Note_off_c, 11, 61, 64
12, 1384320, Note_on_c, 11, 65, 45
12, 1384435, Note_off_c, 11, 65, 64
12, 1384440, Note_on_c, 11, 65, 45
12, 1384555, Note_off_c, 11, 65, 64
12, 1384560, Note_on_c, 11, 60, 45
12, 1384675, Note_off_c, 11, 60, 64
12, 1384680, Note_on_c, 11, 60, 45
12, 1384795, Note_off_c, 11, 60, 64
12, 1384800, Note_on_c, 11, 66, 45
12, 1384915, Note_off_c, 11, 66, 64
12, 1384920, Note_on_c, 11, 66, 45
12, 1385035, Note_off_c, 11, 66, 64
12, 1385040, Note_on_c, 11, 65, 45
12, 1385155, Note_off_c, 11, 65, 64
12, 1385160, Note_on_c, 11, 65, 45
12, 1385275, Note_off_c, 11, 65, 64
12, 1385280, Note_on_c, 11, 68, 44
12, 1385395, Note_off_c, 11, 68, 64
12, 1385400, Note_on_c, 11, 68, 43
12, 1385515, Note_off_c, 11, 68, 64
12, 1385520, Note_on_c, 11, 65, 42
12, 1385635, Note_off_c, 11, 65, 64
12, 1385640, Note_on_c, 11, 65, 41
12, 1385755, Note_off_c, 11, 65, 64
12, 1385760, Note_on_c, 11, 68, 40
12, 1385875, Note_off_c, 11, 68, 64
12, 1385880, Note_on_c, 11, 68, 39
12, 1385995, Note_off_c, 11, 68, 64
12, 1386000, Note_on_c, 11, 65, 38
12, 1386115, Note_off_c, 11, 65, 64
12, 1386120, Note_on_c, 11, 65, 37
12, 1386235, Note_off_c, 11, 65, 64
12, 1386240, Note_on_c, 11, 68, 36
12, 1386355, Note_off_c, 11, 68, 64
12, 1386360, Note_on_c, 11, 68, 35
12, 1386475, Note_off_c, 11, 68, 64
12, 1386480, Note_on_c, 11, 65, 34
12, 1386595, Note_off_c, 11, 65, 64
12, 1386600, Note_on_c, 11, 65, 33
12, 1386715, Note_off_c, 11, 65, 64
12, 1386720, Note_on_c, 11, 77, 32
12, 1386835, Note_off_c, 11, 77, 64
12, 1386840, Note_on_c, 11, 77, 31
12, 1386955, Note_off_c, 11, 77, 64
12, 1386960, Note_on_c, 11, 77, 30
12, 1387075, Note_off_c, 11, 77, 64
12, 1387080, Note_on_c, 11, 77, 30
12, 1387195, Note_off_c, 11, 77, 64
12, 1387200, Note_on_c, 11, 77, 30
12, 1387315, Note_off_c, 11, 77, 64
12, 1387320, Note_on_c, 11, 77, 30
12, 1387435, Note_off_c, 11, 77, 64
12, 1387440, Note_on_c, 11, 77, 30
12, 1387555, Note_off_c, 11, 77, 64
12, 1387560, Note_on_c, 11, 77, 30
12, 1387675, Note_off_c, 11, 77, 64
12, 1387680, Note_on_c, 11, 77, 30
12, 1387795, Note_off_c, 11, 77, 64
12, 1387800, Note_on_c, 11, 77, 30
12, 1387915, Note_off_c, 11, 77, 64
12, 1387920, Note_on_c, 11, 77, 30
12, 1388035, Note_off_c, 11, 77, 64
12, 1388040, Note_on_c, 11, 77, 30
12, 1388155, Note_off_c, 11, 77, 64
12, 1388160, Note_on_c, 11, 77, 30
12, 1388275, Note_off_c, 11, 77, 64
12, 1388280, Note_on_c, 11, 77, 30
12, 1388395, Note_off_c, 11, 77, 64
12, 1388400, Note_on_c, 11, 77, 30
12, 1388515, Note_off_c, 11, 77, 64
12, 1388520, Note_on_c, 11, 77, 30
12, 1388635, Note_off_c, 11, 77, 64
12, 1388640, Note_on_c, 11, 77, 30
12, 1388755, Note_off_c, 11, 77, 64
12, 1388760, Note_on_c, 11, 77, 30
12, 1388875, Note_off_c, 11, 77, 64
12, 1388880, Note_on_c, 11, 77, 30
12, 1388995, Note_off_c, 11, 77, 64
12, 1389000, Note_on_c, 11, 77, 30
12, 1389115, Note_off_c, 11, 77, 64
12, 1389120, Note_on_c, 11, 77, 30
12, 1389235, Note_off_c, 11, 77, 64
12, 1389240, Note_on_c, 11, 77, 30
12, 1389355, Note_off_c, 11, 77, 64
12, 1389360, Note_on_c, 11, 77, 30
12, 1389475, Note_off_c, 11, 77, 64
12, 1389480, Note_on_c, 11, 77, 30
12, 1389595, Note_off_c, 11, 77, 64
12, 1389600, Note_on_c, 11, 77, 30
12, 1389715, Note_off_c, 11, 77, 64
12, 1389720, Note_on_c, 11, 77, 30
12, 1389835, Note_off_c, 11, 77, 64
12, 1389840, Note_on_c, 11, 77, 30
12, 1389955, Note_off_c, 11, 77, 64
12, 1389960, Note_on_c, 11, 77, 30
12, 1390075, Note_off_c, 11, 77, 64
12, 1390080, Note_on_c, 11, 77, 30
12, 1390195, Note_off_c, 11, 77, 64
12, 1390200, Note_on_c, 11, 77, 30
12, 1390315, Note_off_c, 11, 77, 64
12, 1390320, Note_on_c, 11, 77, 30
12, 1390435, Note_off_c, 11, 77, 64
12, 1390440, Note_on_c, 11, 77, 30
12, 1390555, Note_off_c, 11, 77, 64
12, 1390560, Note_on_c, 11, 77, 30
12, 1390675, Note_off_c, 11, 77, 64
12, 1390680, Note_on_c, 11, 77, 30
12, 1390795, Note_off_c, 11, 77, 64
12, 1390800, Note_on_c, 11, 77, 30
12, 1390915, Note_off_c, 11, 77, 64
12, 1390920, Note_on_c, 11, 77, 30
12, 1391035, Note_off_c, 11, 77, 64
12, 1391040, Note_on_c, 11, 77, 30
12, 1391155, Note_off_c, 11, 77, 64
12, 1391160, Note_on_c, 11, 77, 30
12, 1391275, Note_off_c, 11, 77, 64
12, 1391280, Note_on_c, 11, 77, 30
12, 1391395, Note_off_c, 11, 77, 64
12, 1391400, Note_on_c, 11, 77, 30
12, 1391515, Note_off_c, 11, 77, 64
12, 1391520, Note_on_c, 11, 77, 30
12, 1391635, Note_off_c, 11, 77, 64
12, 1391640, Note_on_c, 11, 77, 30
12, 1391755, Note_off_c, 11, 77, 64
12, 1391760, Note_on_c, 11, 77, 30
12, 1391875, Note_off_c, 11, 77, 64
12, 1391880, Note_on_c, 11, 77, 30
12, 1391995, Note_off_c, 11, 77, 64
12, 1392000, Note_on_c, 11, 77, 30
12, 1392115, Note_off_c, 11, 77, 64
12, 1392120, Note_on_c, 11, 77, 30
12, 1392235, Note_off_c, 11, 77, 64
12, 1392240, Note_on_c, 11, 77, 30
12, 1392355, Note_off_c, 11, 77, 64
12, 1392360, Note_on_c, 11, 77, 30
12, 1392475, Note_off_c, 11, 77, 64
12, 1392480, Note_on_c, 11, 77, 30
12, 1392595, Note_off_c, 11, 77, 64
12, 1392600, Note_on_c, 11, 77, 30
12, 1392715, Note_off_c, 11, 77, 64
12, 1392720, Note_on_c, 11, 77, 30
12, 1392835, Note_off_c, 11, 77, 64
12, 1392840, Note_on_c, 11, 77, 30
12, 1392955, Note_off_c, 11, 77, 64
12, 1392960, Note_on_c, 11, 77, 30
12, 1393075, Note_off_c, 11, 77, 64
12, 1393080, Note_on_c, 11, 77, 30
12, 1393195, Note_off_c, 11, 77, 64
12, 1393200, Note_on_c, 11, 77, 30
12, 1393315, Note_off_c, 11, 77, 64
12, 1393320, Note_on_c, 11, 77, 30
12, 1393435, Note_off_c, 11, 77, 64
12, 1393440, Note_on_c, 11, 77, 30
12, 1393555, Note_off_c, 11, 77, 64
12, 1393560, Note_on_c, 11, 77, 30
12, 1393675, Note_off_c, 11, 77, 64
12, 1393680, Note_on_c, 11, 77, 30
12, 1393795, Note_off_c, 11, 77, 64
12, 1393800, Note_on_c, 11, 77, 30
12, 1393915, Note_off_c, 11, 77, 64
12, 1393920, Note_on_c, 11, 77, 30
12, 1394035, Note_off_c, 11, 77, 64
12, 1394040, Note_on_c, 11, 77, 30
12, 1394155, Note_off_c, 11, 77, 64
12, 1394160, Note_on_c, 11, 77, 30
12, 1394275, Note_off_c, 11, 77, 64
12, 1394280, Note_on_c, 11, 77, 30
12, 1394395, Note_off_c, 11, 77, 64
12, 1394400, Note_on_c, 11, 77, 30
12, 1394515, Note_off_c, 11, 77, 64
12, 1394520, Note_on_c, 11, 77, 30
12, 1394635, Note_off_c, 11, 77, 64
12, 1394640, Note_on_c, 11, 77, 30
12, 1394755, Note_off_c, 11, 77, 64
12, 1394760, Note_on_c, 11, 77, 30
12, 1394875, Note_off_c, 11, 77, 64
12, 1394880, Note_on_c, 11, 77, 30
12, 1394995, Note_off_c, 11, 77, 64
12, 1395000, Note_on_c, 11, 77, 30
12, 1395115, Note_off_c, 11, 77, 64
12, 1395120, Note_on_c, 11, 77, 30
12, 1395235, Note_off_c, 11, 77, 64
12, 1395240, Note_on_c, 11, 77, 30
12, 1395355, Note_off_c, 11, 77, 64
12, 1395360, Note_on_c, 11, 77, 30
12, 1395475, Note_off_c, 11, 77, 64
12, 1395480, Note_on_c, 11, 77, 30
12, 1395595, Note_off_c, 11, 77, 64
12, 1395600, Note_on_c, 11, 77, 30
12, 1395715, Note_off_c, 11, 77, 64
12, 1395720, Note_on_c, 11, 77, 30
12, 1395835, Note_off_c, 11, 77, 64
12, 1395840, Note_on_c, 11, 77, 30
12, 1395955, Note_off_c, 11, 77, 64
12, 1395960, Note_on_c, 11, 77, 30
12, 1396075, Note_off_c, 11, 77, 64
12, 1396080, Note_on_c, 11, 77, 30
12, 1396195, Note_off_c, 11, 77, 64
12, 1396200, Note_on_c, 11, 77, 30
12, 1396315, Note_off_c, 11, 77, 64
12, 1396320, Note_on_c, 11, 77, 30
12, 1396435, Note_off_c, 11, 77, 64
12, 1396440, Note_on_c, 11, 77, 30
12, 1396555, Note_off_c, 11, 77, 64
12, 1396560, Note_on_c, 11, 77, 30
12, 1396675, Note_off_c, 11, 77, 64
12, 1396680, Note_on_c, 11, 77, 30
12, 1396795, Note_off_c, 11, 77, 64
12, 1396800, Note_on_c, 11, 77, 30
12, 1396915, Note_off_c, 11, 77, 64
12, 1396920, Note_on_c, 11, 77, 30
12, 1397035, Note_off_c, 11, 77, 64
12, 1397040, Note_on_c, 11, 77, 30
12, 1397155, Note_off_c, 11, 77, 64
12, 1397160, Note_on_c, 11, 77, 30
12, 1397275, Note_off_c, 11, 77, 64
12, 1397280, Note_on_c, 11, 77, 30
12, 1397395, Note_off_c, 11, 77, 64
12, 1397400, Note_on_c, 11, 77, 30
12, 1397515, Note_off_c, 11, 77, 64
12, 1397520, Note_on_c, 11, 77, 30
12, 1397635, Note_off_c, 11, 77, 64
12, 1397640, Note_on_c, 11, 77, 30
12, 1397755, Note_off_c, 11, 77, 64
12, 1397760, Note_on_c, 11, 77, 30
12, 1397875, Note_off_c, 11, 77, 64
12, 1397880, Note_on_c, 11, 77, 30
12, 1397995, Note_off_c, 11, 77, 64
12, 1398000, Note_on_c, 11, 77, 30
12, 1398115, Note_off_c, 11, 77, 64
12, 1398120, Note_on_c, 11, 77, 30
12, 1398235, Note_off_c, 11, 77, 64
12, 1398240, Note_on_c, 11, 77, 30
12, 1398355, Note_off_c, 11, 77, 64
12, 1398360, Note_on_c, 11, 77, 30
12, 1398475, Note_off_c, 11, 77, 64
12, 1398480, Note_on_c, 11, 76, 30
12, 1398880, Note_off_c, 11, 76, 64
12, 1400400, Note_on_c, 11, 67, 92
12, 1402200, Note_off_c, 11, 67, 64
12, 1402320, Note_on_c, 11, 68, 45
12, 1402720, Note_off_c, 11, 68, 64
12, 1404240, Note_on_c, 11, 68, 92
12, 1406040, Note_off_c, 11, 68, 64
12, 1406160, Note_on_c, 11, 67, 45
12, 1406560, Note_off_c, 11, 67, 64
12, 1409040, Note_on_c, 11, 67, 30
12, 1410000, Note_off_c, 11, 67, 64
12, 1410000, Note_on_c, 11, 68, 30
12, 1410400, Note_off_c, 11, 68, 64
12, 1412880, Note_on_c, 11, 68, 30
12, 1413840, Note_off_c, 11, 68, 64
12, 1413840, Note_on_c, 11, 64, 30
12, 1418520, Note_off_c, 11, 64, 64
12, 1418640, Note_on_c, 11, 67, 30
12, 1419600, Note_off_c, 11, 67, 64
12, 1419600, Note_on_c, 11, 69, 30
12, 1420560, Note_off_c, 11, 69, 64
12, 1420560, Note_on_c, 11, 67, 30
12, 1421520, Note_off_c, 11, 67, 64
12, 1421520, Note_on_c, 11, 65, 30
12, 1422480, Note_off_c, 11, 65, 64
12, 1422480, Note_on_c, 11, 64, 30
12, 1423440, Note_off_c, 11, 64, 64
12, 1423440, Note_on_c, 11, 62, 30
12, 1424400, Note_off_c, 11, 62, 64
12, 1424400, Note_on_c, 11, 65, 30
12, 1425240, Note_off_c, 11, 65, 64
12, 1425360, Note_on_c, 11, 60, 30
12, 1426320, Note_off_c, 11, 60, 64
12, 1426320, Note_on_c, 11, 64, 30
12, 1427280, Note_off_c, 11, 64, 64
12, 1427280, Note_on_c, 11, 65, 30
12, 1428240, Note_off_c, 11, 65, 64
12, 1428240, Note_on_c, 11, 64, 30
12, 1429200, Note_off_c, 11, 64, 64
12, 1429200, Note_on_c, 11, 60, 30
12, 1430040, Note_off_c, 11, 60, 64
12, 1430160, Note_on_c, 11, 60, 30
12, 1431120, Note_off_c, 11, 60, 64
12, 1431120, Note_on_c, 11, 57, 30
12, 1432080, Note_off_c, 11, 57, 64
12, 1432080, Note_on_c, 11, 55, 30
12, 1433040, Note_off_c, 11, 55, 64
12, 1433040, Note_on_c, 11, 59, 30
12, 1433440, Note_off_c, 11, 59, 64
12, 1447740, Note_on_c, 11, 65, 45
12, 1447740, Note_on_c, 11, 69, 45
12, 1448695, Note_off_c, 11, 69, 64
12, 1448695, Note_off_c, 11, 65, 64
12, 1459980, Note_on_c, 11, 69, 60
12, 1460700, Note_off_c, 11, 69, 64
12, 1460700, Note_on_c, 11, 65, 62
12, 1461180, Note_off_c, 11, 65, 64
12, 1461180, Note_on_c, 11, 72, 63
12, 1461420, Note_off_c, 11, 72, 64
12, 1461420, Note_on_c, 11, 69, 63
12, 1462140, Note_off_c, 11, 69, 64
12, 1462140, Note_on_c, 11, 65, 65
12, 1462620, Note_off_c, 11, 65, 64
12, 1462620, Note_on_c, 11, 60, 66
12, 1462860, Note_off_c, 11, 60, 64
12, 1462860, Note_on_c, 11, 65, 66
12, 1463340, Note_off_c, 11, 65, 64
12, 1463340, Note_on_c, 11, 69, 67
12, 1463580, Note_off_c, 11, 69, 64
12, 1463580, Note_on_c, 11, 72, 67
12, 1464060, Note_off_c, 11, 72, 64
12, 1464060, Note_on_c, 11, 69, 68
12, 1464300, Note_off_c, 11, 69, 64
12, 1464300, Note_on_c, 11, 70, 68
12, 1465500, Note_off_c, 11, 70, 64
12, 1465500, Note_on_c, 11, 67, 71
12, 1465740, Note_off_c, 11, 67, 64
12, 1465740, Note_on_c, 11, 70, 71
12, 1466460, Note_off_c, 11, 70, 64
12, 1466460, Note_on_c, 11, 67, 73
12, 1466940, Note_off_c, 11, 67, 64
12, 1466940, Note_on_c, 11, 72, 74
12, 1467180, Note_off_c, 11, 72, 64
12, 1467180, Note_on_c, 11, 69, 75
12, 1467900, Note_off_c, 11, 69, 64
12, 1467900, Note_on_c, 11, 65, 78
12, 1468380, Note_off_c, 11, 65, 64
12, 1468380, Note_on_c, 11, 69, 80
12, 1468620, Note_off_c, 11, 69, 64
12, 1468620, Note_on_c, 11, 67, 81
12, 1469100, Note_off_c, 11, 67, 64
12, 1469100, Note_on_c, 11, 62, 83
12, 1469340, Note_off_c, 11, 62, 64
12, 1469340, Note_on_c, 11, 64, 84
12, 1469820, Note_off_c, 11, 64, 64
12, 1469820, Note_on_c, 11, 60, 86
12, 1470060, Note_off_c, 11, 60, 64
12, 1470060, Note_on_c, 11, 60, 87
12, 1470300, Note_off_c, 11, 60, 64
12, 1470300, Note_on_c, 11, 65, 88
12, 1471260, Note_off_c, 11, 65, 64
12, 1471260, Note_on_c, 11, 69, 92
12, 1471495, Note_off_c, 11, 69, 64
12, 1471500, Note_on_c, 11, 72, 75
12, 1471500, Note_on_c, 11, 81, 75
12, 1471575, Note_off_c, 11, 81, 64
12, 1471575, Note_off_c, 11, 72, 64
12, 1471580, Note_on_c, 11, 72, 75
12, 1471580, Note_on_c, 11, 81, 75
12, 1471655, Note_off_c, 11, 81, 64
12, 1471655, Note_off_c, 11, 72, 64
12, 1471660, Note_on_c, 11, 72, 75
12, 1471660, Note_on_c, 11, 81, 75
12, 1471735, Note_off_c, 11, 81, 64
12, 1471735, Note_off_c, 11, 72, 64
12, 1471740, Note_on_c, 11, 72, 75
12, 1471740, Note_on_c, 11, 81, 75
12, 1471815, Note_off_c, 11, 81, 64
12, 1471815, Note_off_c, 11, 72, 64
12, 1471820, Note_on_c, 11, 72, 75
12, 1471820, Note_on_c, 11, 81, 75
12, 1471895, Note_off_c, 11, 81, 64
12, 1471895, Note_off_c, 11, 72, 64
12, 1471900, Note_on_c, 11, 72, 75
12, 1471900, Note_on_c, 11, 81, 75
12, 1471975, Note_off_c, 11, 81, 64
12, 1471975, Note_off_c, 11, 72, 64
12, 1471980, Note_on_c, 11, 72, 75
12, 1471980, Note_on_c, 11, 81, 75
12, 1472055, Note_off_c, 11, 81, 64
12, 1472055, Note_off_c, 11, 72, 64
12, 1472060, Note_on_c, 11, 72, 75
12, 1472060, Note_on_c, 11, 81, 75
12, 1472135, Note_off_c, 11, 81, 64
12, 1472135, Note_off_c, 11, 72, 64
12, 1472140, Note_on_c, 11, 72, 75
12, 1472140, Note_on_c, 11, 81, 75
12, 1472215, Note_off_c, 11, 81, 64
12, 1472215, Note_off_c, 11, 72, 64
12, 1472220, Note_on_c, 11, 72, 75
12, 1472220, Note_on_c, 11, 81, 75
12, 1472295, Note_off_c, 11, 81, 64
12, 1472295, Note_off_c, 11, 72, 64
12, 1472300, Note_on_c, 11, 72, 75
12, 1472300, Note_on_c, 11, 81, 75
12, 1472375, Note_off_c, 11, 81, 64
12, 1472375, Note_off_c, 11, 72, 64
12, 1472380, Note_on_c, 11, 72, 75
12, 1472380, Note_on_c, 11, 81, 75
12, 1472455, Note_off_c, 11, 81, 64
12, 1472455, Note_off_c, 11, 72, 64
12, 1472460, Note_on_c, 11, 72, 75
12, 1472460, Note_on_c, 11, 81, 75
12, 1472535, Note_off_c, 11, 81, 64
12, 1472535, Note_off_c, 11, 72, 64
12, 1472540, Note_on_c, 11, 72, 75
12, 1472540, Note_on_c, 11, 81, 75
12, 1472615, Note_off_c, 11, 81, 64
12, 1472615, Note_off_c, 11, 72, 64
12, 1472620, Note_on_c, 11, 72, 75
12, 1472620, Note_on_c, 11, 81, 75
12, 1472695, Note_off_c, 11, 81, 64
12, 1472695, Note_off_c, 11, 72, 64
12, 1472700, Note_on_c, 11, 72, 75
12, 1472700, Note_on_c, 11, 81, 75
12, 1472775, Note_off_c, 11, 81, 64
12, 1472775, Note_off_c, 11, 72, 64
12, 1472780, Note_on_c, 11, 72, 75
12, 1472780, Note_on_c, 11, 81, 75
12, 1472855, Note_off_c, 11, 81, 64
12, 1472855, Note_off_c, 11, 72, 64
12, 1472860, Note_on_c, 11, 72, 75
12, 1472860, Note_on_c, 11, 81, 75
12, 1472935, Note_off_c, 11, 81, 64
12, 1472935, Note_off_c, 11, 72, 64
12, 1472940, Note_on_c, 11, 72, 75
12, 1472940, Note_on_c, 11, 81, 75
12, 1473015, Note_off_c, 11, 81, 64
12, 1473015, Note_off_c, 11, 72, 64
12, 1473020, Note_on_c, 11, 72, 75
12, 1473020, Note_on_c, 11, 81, 75
12, 1473095, Note_off_c, 11, 81, 64
12, 1473095, Note_off_c, 11, 72, 64
12, 1473100, Note_on_c, 11, 72, 75
12, 1473100, Note_on_c, 11, 81, 75
12, 1473175, Note_off_c, 11, 81, 64
12, 1473175, Note_off_c, 11, 72, 64
12, 1473180, Note_on_c, 11, 72, 75
12, 1473180, Note_on_c, 11, 81, 75
12, 1473255, Note_off_c, 11, 81, 64
12, 1473255, Note_off_c, 11, 72, 64
12, 1473260, Note_on_c, 11, 72, 75
12, 1473260, Note_on_c, 11, 81, 75
12, 1473335, Note_off_c, 11, 81, 64
12, 1473335, Note_off_c, 11, 72, 64
12, 1473340, Note_on_c, 11, 72, 75
12, 1473340, Note_on_c, 11, 81, 75
12, 1473415, Note_off_c, 11, 81, 64
12, 1473415, Note_off_c, 11, 72, 64
12, 1473420, Note_on_c, 11, 72, 75
12, 1473420, Note_on_c, 11, 81, 75
12, 1473495, Note_off_c, 11, 81, 64
12, 1473495, Note_off_c, 11, 72, 64
12, 1473500, Note_on_c, 11, 72, 75
12, 1473500, Note_on_c, 11, 81, 75
12, 1473575, Note_off_c, 11, 81, 64
12, 1473575, Note_off_c, 11, 72, 64
12, 1473580, Note_on_c, 11, 72, 75
12, 1473580, Note_on_c, 11, 81, 75
12, 1473655, Note_off_c, 11, 81, 64
12, 1473655, Note_off_c, 11, 72, 64
12, 1473660, Note_on_c, 11, 72, 75
12, 1473660, Note_on_c, 11, 81, 75
12, 1473735, Note_off_c, 11, 81, 64
12, 1473735, Note_off_c, 11, 72, 64
12, 1473740, Note_on_c, 11, 72, 75
12, 1473740, Note_on_c, 11, 81, 75
12, 1473815, Note_off_c, 11, 81, 64
12, 1473815, Note_off_c, 11, 72, 64
12, 1473820, Note_on_c, 11, 72, 75
12, 1473820, Note_on_c, 11, 81, 75
12, 1473895, Note_off_c, 11, 81, 64
12, 1473895, Note_off_c, 11, 72, 64
12, 1473900, Note_on_c, 11, 72, 75
12, 1473900, Note_on_c, 11, 81, 75
12, 1473975, Note_off_c, 11, 81, 64
12, 1473975, Note_off_c, 11, 72, 64
12, 1473980, Note_on_c, 11, 72, 75
12, 1473980, Note_on_c, 11, 81, 75
12, 1474055, Note_off_c, 11, 81, 64
12, 1474055, Note_off_c, 11, 72, 64
12, 1474060, Note_on_c, 11, 72, 75
12, 1474060, Note_on_c, 11, 81, 75
12, 1474135, Note_off_c, 11, 81, 64
12, 1474135, Note_off_c, 11, 72, 64
12, 1474140, Note_on_c, 11, 72, 75
12, 1474140, Note_on_c, 11, 81, 75
12, 1474215, Note_off_c, 11, 81, 64
12, 1474215, Note_off_c, 11, 72, 64
12, 1474220, Note_on_c, 11, 72, 75
12, 1474220, Note_on_c, 11, 81, 75
12, 1474295, Note_off_c, 11, 81, 64
12, 1474295, Note_off_c, 11, 72, 64
12, 1474300, Note_on_c, 11, 72, 75
12, 1474300, Note_on_c, 11, 81, 75
12, 1474375, Note_off_c, 11, 81, 64
12, 1474375, Note_off_c, 11, 72, 64
12, 1474380, Note_on_c, 11, 72, 75
12, 1474380, Note_on_c, 11, 81, 75
12, 1474455, Note_off_c, 11, 81, 64
12, 1474455, Note_off_c, 11, 72, 64
12, 1474460, Note_on_c, 11, 72, 75
12, 1474460, Note_on_c, 11, 81, 75
12, 1474535, Note_off_c, 11, 81, 64
12, 1474535, Note_off_c, 11, 72, 64
12, 1474540, Note_on_c, 11, 72, 75
12, 1474540, Note_on_c, 11, 81, 75
12, 1474615, Note_off_c, 11, 81, 64
12, 1474615, Note_off_c, 11, 72, 64
12, 1474620, Note_on_c, 11, 72, 75
12, 1474620, Note_on_c, 11, 81, 75
12, 1474695, Note_off_c, 11, 81, 64
12, 1474695, Note_off_c, 11, 72, 64
12, 1474700, Note_on_c, 11, 72, 75
12, 1474700, Note_on_c, 11, 81, 75
12, 1474775, Note_off_c, 11, 81, 64
12, 1474775, Note_off_c, 11, 72, 64
12, 1474780, Note_on_c, 11, 72, 75
12, 1474780, Note_on_c, 11, 81, 75
12, 1474855, Note_off_c, 11, 81, 64
12, 1474855, Note_off_c, 11, 72, 64
12, 1474860, Note_on_c, 11, 72, 75
12, 1474860, Note_on_c, 11, 81, 75
12, 1474935, Note_off_c, 11, 81, 64
12, 1474935, Note_off_c, 11, 72, 64
12, 1474940, Note_on_c, 11, 72, 75
12, 1474940, Note_on_c, 11, 81, 75
12, 1475015, Note_off_c, 11, 81, 64
12, 1475015, Note_off_c, 11, 72, 64
12, 1475020, Note_on_c, 11, 72, 75
12, 1475020, Note_on_c, 11, 81, 75
12, 1475095, Note_off_c, 11, 81, 64
12, 1475095, Note_off_c, 11, 72, 64
12, 1475100, Note_on_c, 11, 72, 75
12, 1475100, Note_on_c, 11, 81, 75
12, 1475175, Note_off_c, 11, 81, 64
12, 1475175, Note_off_c, 11, 72, 64
12, 1475180, Note_on_c, 11, 72, 75
12, 1475180, Note_on_c, 11, 81, 75
12, 1475255, Note_off_c, 11, 81, 64
12, 1475255, Note_off_c, 11, 72, 64
12, 1475260, Note_on_c, 11, 72, 75
12, 1475260, Note_on_c, 11, 81, 75
12, 1475335, Note_off_c, 11, 81, 64
12, 1475335, Note_off_c, 11, 72, 64
12, 1475340, Note_on_c, 11, 72, 75
12, 1475340, Note_on_c, 11, 81, 75
12, 1475415, Note_off_c, 11, 81, 64
12, 1475415, Note_off_c, 11, 72, 64
12, 1475420, Note_on_c, 11, 72, 75
12, 1475420, Note_on_c, 11, 81, 75
12, 1475495, Note_off_c, 11, 81, 64
12, 1475495, Note_off_c, 11, 72, 64
12, 1475500, Note_on_c, 11, 72, 75
12, 1475500, Note_on_c, 11, 81, 75
12, 1475575, Note_off_c, 11, 81, 64
12, 1475575, Note_off_c, 11, 72, 64
12, 1475580, Note_on_c, 11, 72, 75
12, 1475580, Note_on_c, 11, 81, 75
12, 1475655, Note_off_c, 11, 81, 64
12, 1475655, Note_off_c, 11, 72, 64
12, 1475660, Note_on_c, 11, 72, 75
12, 1475660, Note_on_c, 11, 81, 75
12, 1475735, Note_off_c, 11, 81, 64
12, 1475735, Note_off_c, 11, 72, 64
12, 1475740, Note_on_c, 11, 72, 75
12, 1475740, Note_on_c, 11, 81, 75
12, 1475815, Note_off_c, 11, 81, 64
12, 1475815, Note_off_c, 11, 72, 64
12, 1475820, Note_on_c, 11, 72, 75
12, 1475820, Note_on_c, 11, 81, 75
12, 1475895, Note_off_c, 11, 81, 64
12, 1475895, Note_off_c, 11, 72, 64
12, 1475900, Note_on_c, 11, 72, 75
12, 1475900, Note_on_c, 11, 81, 75
12, 1475975, Note_off_c, 11, 81, 64
12, 1475975, Note_off_c, 11, 72, 64
12, 1475980, Note_on_c, 11, 72, 75
12, 1475980, Note_on_c, 11, 81, 75
12, 1476055, Note_off_c, 11, 81, 64
12, 1476055, Note_off_c, 11, 72, 64
12, 1476060, Note_on_c, 11, 72, 75
12, 1476060, Note_on_c, 11, 81, 75
12, 1476135, Note_off_c, 11, 81, 64
12, 1476135, Note_off_c, 11, 72, 64
12, 1476140, Note_on_c, 11, 72, 75
12, 1476140, Note_on_c, 11, 81, 75
12, 1476215, Note_off_c, 11, 81, 64
12, 1476215, Note_off_c, 11, 72, 64
12, 1476220, Note_on_c, 11, 72, 75
12, 1476220, Note_on_c, 11, 81, 75
12, 1476295, Note_off_c, 11, 81, 64
12, 1476295, Note_off_c, 11, 72, 64
12, 1476300, Note_on_c, 11, 72, 75
12, 1476300, Note_on_c, 11, 81, 75
12, 1476375, Note_off_c, 11, 81, 64
12, 1476375, Note_off_c, 11, 72, 64
12, 1476380, Note_on_c, 11, 72, 75
12, 1476380, Note_on_c, 11, 81, 75
12, 1476455, Note_off_c, 11, 81, 64
12, 1476455, Note_off_c, 11, 72, 64
12, 1476460, Note_on_c, 11, 72, 75
12, 1476460, Note_on_c, 11, 81, 75
12, 1476535, Note_off_c, 11, 81, 64
12, 1476535, Note_off_c, 11, 72, 64
12, 1476540, Note_on_c, 11, 72, 75
12, 1476540, Note_on_c, 11, 81, 75
12, 1476615, Note_off_c, 11, 81, 64
12, 1476615, Note_off_c, 11, 72, 64
12, 1476620, Note_on_c, 11, 72, 75
12, 1476620, Note_on_c, 11, 81, 75
12, 1476695, Note_off_c, 11, 81, 64
12, 1476695, Note_off_c, 11, 72, 64
12, 1476700, Note_on_c, 11, 72, 75
12, 1476700, Note_on_c, 11, 81, 75
12, 1476775, Note_off_c, 11, 81, 64
12, 1476775, Note_off_c, 11, 72, 64
12, 1476780, Note_on_c, 11, 72, 75
12, 1476780, Note_on_c, 11, 81, 75
12, 1476855, Note_off_c, 11, 81, 64
12, 1476855, Note_off_c, 11, 72, 64
12, 1476860, Note_on_c, 11, 72, 75
12, 1476860, Note_on_c, 11, 81, 75
12, 1476935, Note_off_c, 11, 81, 64
12, 1476935, Note_off_c, 11, 72, 64
12, 1476940, Note_on_c, 11, 72, 75
12, 1476940, Note_on_c, 11, 81, 75
12, 1477015, Note_off_c, 11, 81, 64
12, 1477015, Note_off_c, 11, 72, 64
12, 1477020, Note_on_c, 11, 72, 75
12, 1477020, Note_on_c, 11, 84, 75
12, 1477095, Note_off_c, 11, 84, 64
12, 1477095, Note_off_c, 11, 72, 64
12, 1477100, Note_on_c, 11, 72, 75
12, 1477100, Note_on_c, 11, 84, 75
12, 1477175, Note_off_c, 11, 84, 64
12, 1477175, Note_off_c, 11, 72, 64
12, 1477180, Note_on_c, 11, 72, 75
12, 1477180, Note_on_c, 11, 84, 75
12, 1477255, Note_off_c, 11, 84, 64
12, 1477255, Note_off_c, 11, 72, 64
12, 1477260, Note_on_c, 11, 72, 75
12, 1477260, Note_on_c, 11, 82, 75
12, 1477335, Note_off_c, 11, 82, 64
12, 1477335, Note_off_c, 11, 72, 64
12, 1477340, Note_on_c, 11, 72, 75
12, 1477340, Note_on_c, 11, 82, 75
12, 1477415, Note_off_c, 11, 82, 64
12, 1477415, Note_off_c, 11, 72, 64
12, 1477420, Note_on_c, 11, 72, 75
12, 1477420, Note_on_c, 11, 82, 75
12, 1477495, Note_off_c, 11, 82, 64
12, 1477495, Note_off_c, 11, 72, 64
12, 1477500, Note_on_c, 11, 72, 75
12, 1477500, Note_on_c, 11, 82, 75
12, 1477575, Note_off_c, 11, 82, 64
12, 1477575, Note_off_c, 11, 72, 64
12, 1477580, Note_on_c, 11, 72, 75
12, 1477580, Note_on_c, 11, 82, 75
12, 1477655, Note_off_c, 11, 82, 64
12, 1477655, Note_off_c, 11, 72, 64
12, 1477660, Note_on_c, 11, 72, 75
12, 1477660, Note_on_c, 11, 82, 75
12, 1477735, Note_off_c, 11, 82, 64
12, 1477735, Note_off_c, 11, 72, 64
12, 1477740, Note_on_c, 11, 72, 75
12, 1477740, Note_on_c, 11, 82, 75
12, 1477815, Note_off_c, 11, 82, 64
12, 1477815, Note_off_c, 11, 72, 64
12, 1477820, Note_on_c, 11, 72, 75
12, 1477820, Note_on_c, 11, 82, 75
12, 1477895, Note_off_c, 11, 82, 64
12, 1477895, Note_off_c, 11, 72, 64
12, 1477900, Note_on_c, 11, 72, 75
12, 1477900, Note_on_c, 11, 82, 75
12, 1477975, Note_off_c, 11, 82, 64
12, 1477975, Note_off_c, 11, 72, 64
12, 1477980, Note_on_c, 11, 72, 75
12, 1477980, Note_on_c, 11, 82, 75
12, 1478055, Note_off_c, 11, 82, 64
12, 1478055, Note_off_c, 11, 72, 64
12, 1478060, Note_on_c, 11, 72, 75
12, 1478060, Note_on_c, 11, 82, 75
12, 1478135, Note_off_c, 11, 82, 64
12, 1478135, Note_off_c, 11, 72, 64
12, 1478140, Note_on_c, 11, 72, 75
12, 1478140, Note_on_c, 11, 82, 75
12, 1478215, Note_off_c, 11, 82, 64
12, 1478215, Note_off_c, 11, 72, 64
12, 1478220, Note_on_c, 11, 72, 75
12, 1478220, Note_on_c, 11, 82, 75
12, 1478295, Note_off_c, 11, 82, 64
12, 1478295, Note_off_c, 11, 72, 64
12, 1478300, Note_on_c, 11, 72, 75
12, 1478300, Note_on_c, 11, 82, 75
12, 1478375, Note_off_c, 11, 82, 64
12, 1478375, Note_off_c, 11, 72, 64
12, 1478380, Note_on_c, 11, 72, 75
12, 1478380, Note_on_c, 11, 82, 75
12, 1478455, Note_off_c, 11, 82, 64
12, 1478455, Note_off_c, 11, 72, 64
12, 1478460, Note_on_c, 11, 72, 75
12, 1478460, Note_on_c, 11, 82, 75
12, 1478535, Note_off_c, 11, 82, 64
12, 1478535, Note_off_c, 11, 72, 64
12, 1478540, Note_on_c, 11, 72, 75
12, 1478540, Note_on_c, 11, 82, 75
12, 1478615, Note_off_c, 11, 82, 64
12, 1478615, Note_off_c, 11, 72, 64
12, 1478620, Note_on_c, 11, 72, 75
12, 1478620, Note_on_c, 11, 82, 75
12, 1478695, Note_off_c, 11, 82, 64
12, 1478695, Note_off_c, 11, 72, 64
12, 1478700, Note_on_c, 11, 72, 75
12, 1478700, Note_on_c, 11, 81, 75
12, 1478775, Note_off_c, 11, 81, 64
12, 1478775, Note_off_c, 11, 72, 64
12, 1478780, Note_on_c, 11, 72, 75
12, 1478780, Note_on_c, 11, 81, 75
12, 1478855, Note_off_c, 11, 81, 64
12, 1478855, Note_off_c, 11, 72, 64
12, 1478860, Note_on_c, 11, 72, 75
12, 1478860, Note_on_c, 11, 81, 75
12, 1478935, Note_off_c, 11, 81, 64
12, 1478935, Note_off_c, 11, 72, 64
12, 1478940, Note_on_c, 11, 69, 75
12, 1478940, Note_on_c, 11, 81, 75
12, 1479015, Note_off_c, 11, 81, 64
12, 1479015, Note_off_c, 11, 69, 64
12, 1479020, Note_on_c, 11, 69, 75
12, 1479020, Note_on_c, 11, 81, 75
12, 1479095, Note_off_c, 11, 81, 64
12, 1479095, Note_off_c, 11, 69, 64
12, 1479100, Note_on_c, 11, 69, 75
12, 1479100, Note_on_c, 11, 81, 75
12, 1479175, Note_off_c, 11, 81, 64
12, 1479175, Note_off_c, 11, 69, 64
12, 1479180, Note_on_c, 11, 69, 75
12, 1479180, Note_on_c, 11, 81, 75
12, 1479255, Note_off_c, 11, 81, 64
12, 1479255, Note_off_c, 11, 69, 64
12, 1479260, Note_on_c, 11, 69, 75
12, 1479260, Note_on_c, 11, 81, 75
12, 1479335, Note_off_c, 11, 81, 64
12, 1479335, Note_off_c, 11, 69, 64
12, 1479340, Note_on_c, 11, 69, 75
12, 1479340, Note_on_c, 11, 81, 75
12, 1479415, Note_off_c, 11, 81, 64
12, 1479415, Note_off_c, 11, 69, 64
12, 1479420, Note_on_c, 11, 69, 75
12, 1479420, Note_on_c, 11, 81, 75
12, 1479495, Note_off_c, 11, 81, 64
12, 1479495, Note_off_c, 11, 69, 64
12, 1479500, Note_on_c, 11, 69, 75
12, 1479500, Note_on_c, 11, 81, 75
12, 1479575, Note_off_c, 11, 81, 64
12, 1479575, Note_off_c, 11, 69, 64
12, 1479580, Note_on_c, 11, 69, 75
12, 1479580, Note_on_c, 11, 81, 75
12, 1479655, Note_off_c, 11, 81, 64
12, 1479655, Note_off_c, 11, 69, 64
12, 1479660, Note_on_c, 11, 69, 75
12, 1479660, Note_on_c, 11, 81, 75
12, 1479735, Note_off_c, 11, 81, 64
12, 1479735, Note_off_c, 11, 69, 64
12, 1479740, Note_on_c, 11, 69, 75
12, 1479740, Note_on_c, 11, 81, 75
12, 1479815, Note_off_c, 11, 81, 64
12, 1479815, Note_off_c, 11, 69, 64
12, 1479820, Note_on_c, 11, 69, 75
12, 1479820, Note_on_c, 11, 81, 75
12, 1479895, Note_off_c, 11, 81, 64
12, 1479895, Note_off_c, 11, 69, 64
12, 1479900, Note_on_c, 11, 72, 75
12, 1479900, Note_on_c, 11, 77, 75
12, 1479975, Note_off_c, 11, 77, 64
12, 1479975, Note_off_c, 11, 72, 64
12, 1479980, Note_on_c, 11, 72, 75
12, 1479980, Note_on_c, 11, 77, 75
12, 1480055, Note_off_c, 11, 77, 64
12, 1480055, Note_off_c, 11, 72, 64
12, 1480060, Note_on_c, 11, 72, 75
12, 1480060, Note_on_c, 11, 77, 75
12, 1480135, Note_off_c, 11, 77, 64
12, 1480135, Note_off_c, 11, 72, 64
12, 1480140, Note_on_c, 11, 74, 75
12, 1480140, Note_on_c, 11, 79, 75
12, 1480215, Note_off_c, 11, 79, 64
12, 1480215, Note_off_c, 11, 74, 64
12, 1480220, Note_on_c, 11, 74, 75
12, 1480220, Note_on_c, 11, 79, 75
12, 1480295, Note_off_c, 11, 79, 64
12, 1480295, Note_off_c, 11, 74, 64
12, 1480300, Note_on_c, 11, 74, 75
12, 1480300, Note_on_c, 11, 79, 75
12, 1480375, Note_off_c, 11, 79, 64
12, 1480375, Note_off_c, 11, 74, 64
12, 1480380, Note_on_c, 11, 74, 75
12, 1480380, Note_on_c, 11, 79, 75
12, 1480455, Note_off_c, 11, 79, 64
12, 1480455, Note_off_c, 11, 74, 64
12, 1480460, Note_on_c, 11, 74, 75
12, 1480460, Note_on_c, 11, 79, 75
12, 1480535, Note_off_c, 11, 79, 64
12, 1480535, Note_off_c, 11, 74, 64
12, 1480540, Note_on_c, 11, 74, 75
12, 1480540, Note_on_c, 11, 79, 75
12, 1480615, Note_off_c, 11, 79, 64
12, 1480615, Note_off_c, 11, 74, 64
12, 1480620, Note_on_c, 11, 74, 75
12, 1480620, Note_on_c, 11, 79, 75
12, 1480695, Note_off_c, 11, 79, 64
12, 1480695, Note_off_c, 11, 74, 64
12, 1480700, Note_on_c, 11, 74, 75
12, 1480700, Note_on_c, 11, 79, 75
12, 1480775, Note_off_c, 11, 79, 64
12, 1480775, Note_off_c, 11, 74, 64
12, 1480780, Note_on_c, 11, 74, 75
12, 1480780, Note_on_c, 11, 79, 75
12, 1480855, Note_off_c, 11, 79, 64
12, 1480855, Note_off_c, 11, 74, 64
12, 1480860, Note_on_c, 11, 72, 75
12, 1480860, Note_on_c, 11, 79, 75
12, 1480935, Note_off_c, 11, 79, 64
12, 1480935, Note_off_c, 11, 72, 64
12, 1480940, Note_on_c, 11, 72, 75
12, 1480940, Note_on_c, 11, 79, 75
12, 1481015, Note_off_c, 11, 79, 64
12, 1481015, Note_off_c, 11, 72, 64
12, 1481020, Note_on_c, 11, 72, 75
12, 1481020, Note_on_c, 11, 79, 75
12, 1481095, Note_off_c, 11, 79, 64
12, 1481095, Note_off_c, 11, 72, 64
12, 1481100, Note_on_c, 11, 72, 75
12, 1481100, Note_on_c, 11, 79, 75
12, 1481175, Note_off_c, 11, 79, 64
12, 1481175, Note_off_c, 11, 72, 64
12, 1481180, Note_on_c, 11, 72, 75
12, 1481180, Note_on_c, 11, 79, 75
12, 1481255, Note_off_c, 11, 79, 64
12, 1481255, Note_off_c, 11, 72, 64
12, 1481260, Note_on_c, 11, 72, 75
12, 1481260, Note_on_c, 11, 79, 75
12, 1481335, Note_off_c, 11, 79, 64
12, 1481335, Note_off_c, 11, 72, 64
12, 1481340, Note_on_c, 11, 72, 75
12, 1481340, Note_on_c, 11, 79, 75
12, 1481415, Note_off_c, 11, 79, 64
12, 1481415, Note_off_c, 11, 72, 64
12, 1481420, Note_on_c, 11, 72, 75
12, 1481420, Note_on_c, 11, 79, 75
12, 1481495, Note_off_c, 11, 79, 64
12, 1481495, Note_off_c, 11, 72, 64
12, 1481500, Note_on_c, 11, 72, 75
12, 1481500, Note_on_c, 11, 79, 75
12, 1481575, Note_off_c, 11, 79, 64
12, 1481575, Note_off_c, 11, 72, 64
12, 1481580, Note_on_c, 11, 69, 75
12, 1481580, Note_on_c, 11, 81, 75
12, 1481695, Note_off_c, 11, 81, 64
12, 1481695, Note_off_c, 11, 69, 64
12, 1481700, Note_on_c, 11, 60, 75
12, 1481820, Note_off_c, 11, 60, 64
12, 1481820, Note_on_c, 11, 65, 75
12, 1481940, Note_off_c, 11, 65, 64
12, 1481940, Note_on_c, 11, 60, 75
12, 1482060, Note_off_c, 11, 60, 64
12, 1482060, Note_on_c, 11, 57, 75
12, 1482180, Note_off_c, 11, 57, 64
12, 1482180, Note_on_c, 11, 60, 75
12, 1482300, Note_off_c, 11, 60, 64
12, 1482300, Note_on_c, 11, 58, 75
12, 1482420, Note_off_c, 11, 58, 64
12, 1482420, Note_on_c, 11, 60, 75
12, 1482540, Note_off_c, 11, 60, 64
12, 1482540, Note_on_c, 11, 64, 75
12, 1482660, Note_off_c, 11, 64, 64
12, 1482660, Note_on_c, 11, 60, 75
12, 1482780, Note_off_c, 11, 60, 64
12, 1482780, Note_on_c, 11, 58, 75
12, 1482900, Note_off_c, 11, 58, 64
12, 1482900, Note_on_c, 11, 60, 75
12, 1483020, Note_off_c, 11, 60, 64
12, 1483020, Note_on_c, 11, 57, 75
12, 1483140, Note_off_c, 11, 57, 64
12, 1483140, Note_on_c, 11, 60, 75
12, 1483260, Note_off_c, 11, 60, 64
12, 1483260, Note_on_c, 11, 65, 75
12, 1483380, Note_off_c, 11, 65, 64
12, 1483380, Note_on_c, 11, 60, 75
12, 1483500, Note_off_c, 11, 60, 64
12, 1483500, Note_on_c, 11, 57, 75
12, 1483620, Note_off_c, 11, 57, 64
12, 1483620, Note_on_c, 11, 60, 75
12, 1483740, Note_off_c, 11, 60, 64
12, 1483740, Note_on_c, 11, 55, 75
12, 1483860, Note_off_c, 11, 55, 64
12, 1483860, Note_on_c, 11, 60, 77
12, 1483980, Note_off_c, 11, 60, 64
12, 1483980, Note_on_c, 11, 64, 80
12, 1484100, Note_off_c, 11, 64, 64
12, 1484100, Note_on_c, 11, 60, 83
12, 1484220, Note_off_c, 11, 60, 64
12, 1484220, Note_on_c, 11, 64, 86
12, 1484340, Note_off_c, 11, 64, 64
12, 1484340, Note_on_c, 11, 67, 89
12, 1484455, Note_off_c, 11, 67, 64
12, 1484460, Note_on_c, 11, 60, 92
12, 1484460, Note_on_c, 11, 69, 92
12, 1484860, Note_off_c, 11, 69, 64
12, 1484860, Note_off_c, 11, 60, 64
12, 1487100, Note_on_c, 11, 58, 75
12, 1487220, Note_off_c, 11, 58, 64
12, 1487220, Note_on_c, 11, 60, 75
12, 1487340, Note_off_c, 11, 60, 64
12, 1487340, Note_on_c, 11, 57, 75
12, 1487460, Note_off_c, 11, 57, 64
12, 1487460, Note_on_c, 11, 60, 75
12, 1487580, Note_off_c, 11, 60, 64
12, 1487580, Note_on_c, 11, 65, 75
12, 1487700, Note_off_c, 11, 65, 64
12, 1487700, Note_on_c, 11, 60, 75
12, 1487820, Note_off_c, 11, 60, 64
12, 1487820, Note_on_c, 11, 57, 75
12, 1487940, Note_off_c, 11, 57, 64
12, 1487940, Note_on_c, 11, 60, 75
12, 1488060, Note_off_c, 11, 60, 64
12, 1488060, Note_on_c, 11, 55, 75
12, 1488180, Note_off_c, 11, 55, 64
12, 1488180, Note_on_c, 11, 60, 75
12, 1488300, Note_off_c, 11, 60, 64
12, 1488300, Note_on_c, 11, 64, 75
12, 1488420, Note_off_c, 11, 64, 64
12, 1488420, Note_on_c, 11, 60, 75
12, 1488540, Note_off_c, 11, 60, 64
12, 1488540, Note_on_c, 11, 55, 75
12, 1488660, Note_off_c, 11, 55, 64
12, 1488660, Note_on_c, 11, 60, 75
12, 1488780, Note_off_c, 11, 60, 64
12, 1488780, Note_on_c, 11, 57, 75
12, 1488900, Note_off_c, 11, 57, 64
12, 1488900, Note_on_c, 11, 60, 75
12, 1489020, Note_off_c, 11, 60, 64
12, 1489020, Note_on_c, 11, 65, 75
12, 1489140, Note_off_c, 11, 65, 64
12, 1489140, Note_on_c, 11, 60, 75
12, 1489260, Note_off_c, 11, 60, 64
12, 1489260, Note_on_c, 11, 65, 75
12, 1489380, Note_off_c, 11, 65, 64
12, 1489380, Note_on_c, 11, 60, 75
12, 1489500, Note_off_c, 11, 60, 64
12, 1489500, Note_on_c, 11, 55, 75
12, 1489620, Note_off_c, 11, 55, 64
12, 1489620, Note_on_c, 11, 60, 75
12, 1489740, Note_off_c, 11, 60, 64
12, 1489740, Note_on_c, 11, 64, 75
12, 1489860, Note_off_c, 11, 64, 64
12, 1489860, Note_on_c, 11, 60, 75
12, 1489980, Note_off_c, 11, 60, 64
12, 1489980, Note_on_c, 11, 64, 75
12, 1490100, Note_off_c, 11, 64, 64
12, 1490100, Note_on_c, 11, 67, 75
12, 1490215, Note_off_c, 11, 67, 64
12, 1490220, Note_on_c, 11, 60, 75
12, 1490220, Note_on_c, 11, 72, 75
12, 1490620, Note_off_c, 11, 72, 64
12, 1490620, Note_off_c, 11, 60, 64
12, 1492860, Note_on_c, 11, 58, 108
12, 1492980, Note_off_c, 11, 58, 64
12, 1492980, Note_on_c, 11, 60, 108
12, 1493100, Note_off_c, 11, 60, 64
12, 1493100, Note_on_c, 11, 57, 108
12, 1493220, Note_off_c, 11, 57, 64
12, 1493220, Note_on_c, 11, 60, 108
12, 1493340, Note_off_c, 11, 60, 64
12, 1493340, Note_on_c, 11, 57, 108
12, 1493460, Note_off_c, 11, 57, 64
12, 1493460, Note_on_c, 11, 60, 108
12, 1493580, Note_off_c, 11, 60, 64
12, 1493580, Note_on_c, 11, 57, 108
12, 1493700, Note_off_c, 11, 57, 64
12, 1493700, Note_on_c, 11, 60, 108
12, 1493820, Note_off_c, 11, 60, 64
12, 1493820, Note_on_c, 11, 59, 108
12, 1493940, Note_off_c, 11, 59, 64
12, 1493940, Note_on_c, 11, 62, 108
12, 1494060, Note_off_c, 11, 62, 64
12, 1494060, Note_on_c, 11, 59, 108
12, 1494180, Note_off_c, 11, 59, 64
12, 1494180, Note_on_c, 11, 62, 108
12, 1494300, Note_off_c, 11, 62, 64
12, 1494300, Note_on_c, 11, 59, 108
12, 1494420, Note_off_c, 11, 59, 64
12, 1494420, Note_on_c, 11, 62, 108
12, 1494540, Note_off_c, 11, 62, 64
12, 1494540, Note_on_c, 11, 60, 108
12, 1494660, Note_off_c, 11, 60, 64
12, 1494660, Note_on_c, 11, 64, 108
12, 1494780, Note_off_c, 11, 64, 64
12, 1494780, Note_on_c, 11, 60, 108
12, 1494900, Note_off_c, 11, 60, 64
12, 1494900, Note_on_c, 11, 64, 108
12, 1495020, Note_off_c, 11, 64, 64
12, 1495020, Note_on_c, 11, 60, 108
12, 1495140, Note_off_c, 11, 60, 64
12, 1495140, Note_on_c, 11, 64, 108
12, 1495260, Note_off_c, 11, 64, 64
12, 1495260, Note_on_c, 11, 62, 108
12, 1495380, Note_off_c, 11, 62, 64
12, 1495380, Note_on_c, 11, 65, 108
12, 1495500, Note_off_c, 11, 65, 64
12, 1495500, Note_on_c, 11, 62, 108
12, 1495620, Note_off_c, 11, 62, 64
12, 1495620, Note_on_c, 11, 65, 108
12, 1495740, Note_off_c, 11, 65, 64
12, 1495740, Note_on_c, 11, 62, 108
12, 1495860, Note_off_c, 11, 62, 64
12, 1495860, Note_on_c, 11, 65, 108
12, 1495975, Note_off_c, 11, 65, 64
12, 1495980, Note_on_c, 11, 55, 108
12, 1495980, Note_on_c, 11, 67, 108
12, 1496620, Note_off_c, 11, 67, 64
12, 1496620, Note_off_c, 11, 55, 64
12, 1497420, Note_on_c, 11, 64, 108
12, 1497420, Note_on_c, 11, 72, 108
12, 1497820, Note_off_c, 11, 72, 64
12, 1497820, Note_off_c, 11, 64, 64
12, 1497900, Note_on_c, 11, 72, 108
12, 1498135, Note_off_c, 11, 72, 64
12, 1498140, Note_on_c, 11, 72, 108
12, 1498375, Note_off_c, 11, 72, 64
12, 1498380, Note_on_c, 11, 72, 108
12, 1498615, Note_off_c, 11, 72, 64
12, 1498620, Note_on_c, 11, 72, 108
12, 1498680, Note_off_c, 11, 72, 64
12, 1498680, Note_on_c, 11, 74, 108
12, 1498740, Note_off_c, 11, 74, 64
12, 1498740, Note_on_c, 11, 72, 108
12, 1498800, Note_off_c, 11, 72, 64
12, 1498800, Note_on_c, 11, 74, 108
12, 1498855, Note_off_c, 11, 74, 64
12, 1498860, Note_on_c, 11, 62, 108
12, 1498860, Note_on_c, 11, 71, 108
12, 1499500, Note_off_c, 11, 71, 64
12, 1499500, Note_off_c, 11, 62, 64
12, 1500300, Note_on_c, 11, 62, 108
12, 1500300, Note_on_c, 11, 71, 108
12, 1500700, Note_off_c, 11, 71, 64
12, 1500700, Note_off_c, 11, 62, 64
12, 1500780, Note_on_c, 11, 71, 108
12, 1501015, Note_off_c, 11, 71, 64
12, 1501020, Note_on_c, 11, 71, 108
12, 1501255, Note_off_c, 11, 71, 64
12, 1501260, Note_on_c, 11, 71, 108
12, 1501495, Note_off_c, 11, 71, 64
12, 1501500, Note_on_c, 11, 71, 108
12, 1501560, Note_off_c, 11, 71, 64
12, 1501560, Note_on_c, 11, 72, 108
12, 1501620, Note_off_c, 11, 72, 64
12, 1501620, Note_on_c, 11, 71, 108
12, 1501680, Note_off_c, 11, 71, 64
12, 1501680, Note_on_c, 11, 72, 108
12, 1501735, Note_off_c, 11, 72, 64
12, 1501740, Note_on_c, 11, 64, 108
12, 1501740, Note_on_c, 11, 72, 108
12, 1502380, Note_off_c, 11, 72, 64
12, 1502380, Note_off_c, 11, 64, 64
12, 1503180, Note_on_c, 11, 72, 108
12, 1503580, Note_off_c, 11, 72, 64
12, 1503660, Note_on_c, 11, 72, 108
12, 1503895, Note_off_c, 11, 72, 64
12, 1503900, Note_on_c, 11, 72, 108
12, 1504135, Note_off_c, 11, 72, 64
12, 1504140, Note_on_c, 11, 72, 108
12, 1504375, Note_off_c, 11, 72, 64
12, 1504380, Note_on_c, 11, 72, 108
12, 1504440, Note_off_c, 11, 72, 64
12, 1504440, Note_on_c, 11, 74, 108
12, 1504500, Note_off_c, 11, 74, 64
12, 1504500, Note_on_c, 11, 72, 108
12, 1504560, Note_off_c, 11, 72, 64
12, 1504560, Note_on_c, 11, 74, 108
12, 1504615, Note_off_c, 11, 74, 64
12, 1504620, Note_on_c, 11, 62, 108
12, 1504620, Note_on_c, 11, 71, 108
12, 1505260, Note_off_c, 11, 71, 64
12, 1505260, Note_off_c, 11, 62, 64
12, 1506060, Note_on_c, 11, 71, 108
12, 1506460, Note_off_c, 11, 71, 64
12, 1506540, Note_on_c, 11, 71, 108
12, 1506775, Note_off_c, 11, 71, 64
12, 1506780, Note_on_c, 11, 71, 108
12, 1507015, Note_off_c, 11, 71, 64
12, 1507020, Note_on_c, 11, 71, 108
12, 1507255, Note_off_c, 11, 71, 64
12, 1507260, Note_on_c, 11, 71, 108
12, 1507320, Note_off_c, 11, 71, 64
12, 1507320, Note_on_c, 11, 72, 108
12, 1507380, Note_off_c, 11, 72, 64
12, 1507380, Note_on_c, 11, 71, 108
12, 1507440, Note_off_c, 11, 71, 64
12, 1507440, Note_on_c, 11, 72, 108
12, 1507495, Note_off_c, 11, 72, 64
12, 1507500, Note_on_c, 11, 72, 108
12, 1507900, Note_off_c, 11, 72, 64
12, 1508220, Note_on_c, 11, 65, 45
12, 1508460, Note_off_c, 11, 65, 64
12, 1508460, Note_on_c, 11, 64, 50
12, 1508700, Note_off_c, 11, 64, 64
12, 1508700, Note_on_c, 11, 69, 55
12, 1508935, Note_off_c, 11, 69, 64
12, 1508940, Note_on_c, 11, 67, 60
12, 1509180, Note_off_c, 11, 67, 64
12, 1509180, Note_on_c, 11, 71, 65
12, 1509420, Note_off_c, 11, 71, 64
12, 1509420, Note_on_c, 11, 72, 70
12, 1509655, Note_off_c, 11, 72, 64
12, 1509660, Note_on_c, 11, 65, 75
12, 1509660, Note_on_c, 11, 74, 75
12, 1510060, Note_off_c, 11, 74, 64
12, 1510060, Note_off_c, 11, 65, 64
12, 1510140, Note_on_c, 11, 65, 75
12, 1510140, Note_on_c, 11, 74, 75
12, 1510375, Note_off_c, 11, 74, 64
12, 1510375, Note_off_c, 11, 65, 64
12, 1510380, Note_on_c, 11, 64, 75
12, 1510380, Note_on_c, 11, 72, 75
12, 1510615, Note_off_c, 11, 72, 64
12, 1510615, Note_off_c, 11, 64, 64
12, 1510860, Note_on_c, 11, 64, 45
12, 1511100, Note_off_c, 11, 64, 64
12, 1511100, Note_on_c, 11, 65, 45
12, 1511340, Note_off_c, 11, 65, 64
12, 1511340, Note_on_c, 11, 64, 52
12, 1511580, Note_off_c, 11, 64, 64
12, 1511580, Note_on_c, 11, 69, 59
12, 1511815, Note_off_c, 11, 69, 64
12, 1511820, Note_on_c, 11, 67, 66
12, 1512060, Note_off_c, 11, 67, 64
12, 1512060, Note_on_c, 11, 71, 73
12, 1512300, Note_off_c, 11, 71, 64
12, 1512300, Note_on_c, 11, 72, 80
12, 1512535, Note_off_c, 11, 72, 64
12, 1512540, Note_on_c, 11, 65, 87
12, 1512540, Note_on_c, 11, 74, 87
12, 1512940, Note_off_c, 11, 74, 64
12, 1512940, Note_off_c, 11, 65, 64
12, 1513020, Note_on_c, 11, 65, 101
12, 1513020, Note_on_c, 11, 74, 101
12, 1513255, Note_off_c, 11, 74, 64
12, 1513255, Note_off_c, 11, 65, 64
12, 1513260, Note_on_c, 11, 64, 108
12, 1513260, Note_on_c, 11, 76, 108
12, 1513980, Note_off_c, 11, 76, 64
12, 1513980, Note_on_c, 11, 72, 108
12, 1514215, Note_off_c, 11, 64, 64
12, 1514215, Note_off_c, 11, 72, 64
12, 1514460, Note_on_c, 11, 76, 108
12, 1514695, Note_off_c, 11, 76, 64
12, 1514700, Note_on_c, 11, 77, 108
12, 1515420, Note_off_c, 11, 77, 64
12, 1515420, Note_on_c, 11, 74, 108
12, 1515655, Note_off_c, 11, 74, 64
12, 1515900, Note_on_c, 11, 69, 108
12, 1516135, Note_off_c, 11, 69, 64
12, 1516140, Note_on_c, 11, 60, 45
12, 1516140, Note_on_c, 11, 64, 45
12, 1527540, Note_off_c, 11, 64, 64
12, 1527540, Note_off_c, 11, 60, 64
12, 1527660, Note_on_c, 11, 60, 60
12, 1527660, Note_on_c, 11, 65, 60
12, 1528060, Note_off_c, 11, 65, 64
12, 1528060, Note_off_c, 11, 60, 64
12, 1528500, Note_on_c, 11, 57, 60
12, 1528620, Note_off_c, 11, 57, 64
12, 1528620, Note_on_c, 11, 60, 60
12, 1528740, Note_off_c, 11, 60, 64
12, 1528740, Note_on_c, 11, 65, 60
12, 1528860, Note_off_c, 11, 65, 64
12, 1528860, Note_on_c, 11, 69, 60
12, 1528980, Note_off_c, 11, 69, 64
12, 1528980, Note_on_c, 11, 65, 60
12, 1529095, Note_off_c, 11, 65, 64
12, 1529940, Note_on_c, 11, 57, 60
12, 1530060, Note_off_c, 11, 57, 64
12, 1530060, Note_on_c, 11, 60, 60
12, 1530180, Note_off_c, 11, 60, 64
12, 1530180, Note_on_c, 11, 65, 60
12, 1530300, Note_off_c, 11, 65, 64
12, 1530300, Note_on_c, 11, 69, 60
12, 1530420, Note_off_c, 11, 69, 64
12, 1530420, Note_on_c, 11, 65, 60
12, 1530535, Note_off_c, 11, 65, 64
12, 1531380, Note_on_c, 11, 60, 60
12, 1531500, Note_off_c, 11, 60, 64
12, 1531500, Note_on_c, 11, 65, 60
12, 1531620, Note_off_c, 11, 65, 64
12, 1531620, Note_on_c, 11, 69, 60
12, 1531740, Note_off_c, 11, 69, 64
12, 1531740, Note_on_c, 11, 72, 60
12, 1531860, Note_off_c, 11, 72, 64
12, 1531860, Note_on_c, 11, 69, 60
12, 1531975, Note_off_c, 11, 69, 64
12, 1532820, Note_on_c, 11, 58, 60
12, 1532940, Note_off_c, 11, 58, 64
12, 1532940, Note_on_c, 11, 62, 60
12, 1533060, Note_off_c, 11, 62, 64
12, 1533060, Note_on_c, 11, 65, 60
12, 1533180, Note_off_c, 11, 65, 64
12, 1533180, Note_on_c, 11, 70, 60
12, 1533300, Note_off_c, 11, 70, 64
12, 1533300, Note_on_c, 11, 67, 60
12, 1533415, Note_off_c, 11, 67, 64
12, 1534260, Note_on_c, 11, 60, 60
12, 1534380, Note_off_c, 11, 60, 64
12, 1534380, Note_on_c, 11, 64, 60
12, 1534500, Note_off_c, 11, 64, 64
12, 1534500, Note_on_c, 11, 67, 60
12, 1534620, Note_off_c, 11, 67, 64
12, 1534620, Note_on_c, 11, 72, 60
12, 1534740, Note_off_c, 11, 72, 64
12, 1534740, Note_on_c, 11, 67, 60
12, 1534855, Note_off_c, 11, 67, 64
12, 1535700, Note_on_c, 11, 57, 60
12, 1535820, Note_off_c, 11, 57, 64
12, 1535820, Note_on_c, 11, 62, 60
12, 1535940, Note_off_c, 11, 62, 64
12, 1535940, Note_on_c, 11, 65, 60
12, 1536060, Note_off_c, 11, 65, 64
12, 1536060, Note_on_c, 11, 69, 60
12, 1536180, Note_off_c, 11, 69, 64
12, 1536180, Note_on_c, 11, 65, 60
12, 1536295, Note_off_c, 11, 65, 64
12, 1537140, Note_on_c, 11, 55, 60
12, 1537260, Note_off_c, 11, 55, 64
12, 1537260, Note_on_c, 11, 60, 60
12, 1537380, Note_off_c, 11, 60, 64
12, 1537380, Note_on_c, 11, 64, 60
12, 1537500, Note_off_c, 11, 64, 64
12, 1537500, Note_on_c, 11, 67, 60
12, 1537620, Note_off_c, 11, 67, 64
12, 1537620, Note_on_c, 11, 64, 60
12, 1537735, Note_off_c, 11, 64, 64
12, 1538580, Note_on_c, 11, 57, 60
12, 1538700, Note_off_c, 11, 57, 64
12, 1538700, Note_on_c, 11, 60, 60
12, 1538820, Note_off_c, 11, 60, 64
12, 1538820, Note_on_c, 11, 65, 60
12, 1538940, Note_off_c, 11, 65, 64
12, 1538940, Note_on_c, 11, 69, 60
12, 1539060, Note_off_c, 11, 69, 64
12, 1539060, Note_on_c, 11, 65, 60
12, 1539175, Note_off_c, 11, 65, 64
12, 1539180, Note_on_c, 11, 69, 75
12, 1539900, Note_off_c, 11, 69, 64
12, 1539900, Note_on_c, 11, 65, 76
12, 1540380, Note_off_c, 11, 65, 64
12, 1540380, Note_on_c, 11, 72, 77
12, 1540615, Note_off_c, 11, 72, 64
12, 1540620, Note_on_c, 11, 69, 77
12, 1541340, Note_off_c, 11, 69, 64
12, 1541340, Note_on_c, 11, 65, 78
12, 1541820, Note_off_c, 11, 65, 64
12, 1541820, Note_on_c, 11, 60, 79
12, 1542055, Note_off_c, 11, 60, 64
12, 1542060, Note_on_c, 11, 65, 79
12, 1542540, Note_off_c, 11, 65, 64
12, 1542540, Note_on_c, 11, 69, 80
12, 1542780, Note_off_c, 11, 69, 64
12, 1542780, Note_on_c, 11, 72, 80
12, 1543260, Note_off_c, 11, 72, 64
12, 1543260, Note_on_c, 11, 69, 81
12, 1543495, Note_off_c, 11, 69, 64
12, 1543500, Note_on_c, 11, 72, 81
12, 1544620, Note_off_c, 11, 72, 64
12, 1544700, Note_on_c, 11, 65, 85
12, 1544940, Note_off_c, 11, 65, 64
12, 1544940, Note_on_c, 11, 69, 86
12, 1545420, Note_off_c, 11, 69, 64
12, 1545420, Note_on_c, 11, 72, 88
12, 1545660, Note_off_c, 11, 72, 64
12, 1545660, Note_on_c, 11, 75, 89
12, 1546140, Note_off_c, 11, 75, 64
12, 1546140, Note_on_c, 11, 72, 91
12, 1546380, Note_off_c, 11, 72, 64
12, 1546380, Note_on_c, 11, 75, 92
12, 1547500, Note_off_c, 11, 75, 64
12, 1547580, Note_on_c, 11, 65, 75
12, 1547580, Note_on_c, 11, 75, 75
12, 1547655, Note_off_c, 11, 75, 64
12, 1547655, Note_off_c, 11, 65, 64
12, 1547660, Note_on_c, 11, 65, 75
12, 1547660, Note_on_c, 11, 75, 75
12, 1547735, Note_off_c, 11, 75, 64
12, 1547735, Note_off_c, 11, 65, 64
12, 1547740, Note_on_c, 11, 65, 75
12, 1547740, Note_on_c, 11, 75, 75
12, 1547815, Note_off_c, 11, 75, 64
12, 1547815, Note_off_c, 11, 65, 64
12, 1547820, Note_on_c, 11, 65, 75
12, 1547820, Note_on_c, 11, 75, 75
12, 1547895, Note_off_c, 11, 75, 64
12, 1547895, Note_off_c, 11, 65, 64
12, 1547900, Note_on_c, 11, 65, 75
12, 1547900, Note_on_c, 11, 75, 75
12, 1547975, Note_off_c, 11, 75, 64
12, 1547975, Note_off_c, 11, 65, 64
12, 1547980, Note_on_c, 11, 65, 75
12, 1547980, Note_on_c, 11, 75, 75
12, 1548055, Note_off_c, 11, 75, 64
12, 1548055, Note_off_c, 11, 65, 64
12, 1548060, Note_on_c, 11, 65, 75
12, 1548060, Note_on_c, 11, 75, 75
12, 1548135, Note_off_c, 11, 75, 64
12, 1548135, Note_off_c, 11, 65, 64
12, 1548140, Note_on_c, 11, 65, 75
12, 1548140, Note_on_c, 11, 75, 75
12, 1548215, Note_off_c, 11, 75, 64
12, 1548215, Note_off_c, 11, 65, 64
12, 1548220, Note_on_c, 11, 65, 75
12, 1548220, Note_on_c, 11, 75, 75
12, 1548295, Note_off_c, 11, 75, 64
12, 1548295, Note_off_c, 11, 65, 64
12, 1548300, Note_on_c, 11, 65, 75
12, 1548300, Note_on_c, 11, 75, 75
12, 1548375, Note_off_c, 11, 75, 64
12, 1548375, Note_off_c, 11, 65, 64
12, 1548380, Note_on_c, 11, 65, 75
12, 1548380, Note_on_c, 11, 75, 75
12, 1548455, Note_off_c, 11, 75, 64
12, 1548455, Note_off_c, 11, 65, 64
12, 1548460, Note_on_c, 11, 65, 75
12, 1548460, Note_on_c, 11, 75, 75
12, 1548535, Note_off_c, 11, 75, 64
12, 1548535, Note_off_c, 11, 65, 64
12, 1548540, Note_on_c, 11, 65, 75
12, 1548540, Note_on_c, 11, 75, 75
12, 1548615, Note_off_c, 11, 75, 64
12, 1548615, Note_off_c, 11, 65, 64
12, 1548620, Note_on_c, 11, 65, 75
12, 1548620, Note_on_c, 11, 75, 75
12, 1548695, Note_off_c, 11, 75, 64
12, 1548695, Note_off_c, 11, 65, 64
12, 1548700, Note_on_c, 11, 65, 75
12, 1548700, Note_on_c, 11, 75, 75
12, 1548775, Note_off_c, 11, 75, 64
12, 1548775, Note_off_c, 11, 65, 64
12, 1548780, Note_on_c, 11, 65, 75
12, 1548780, Note_on_c, 11, 75, 75
12, 1548855, Note_off_c, 11, 75, 64
12, 1548855, Note_off_c, 11, 65, 64
12, 1548860, Note_on_c, 11, 65, 75
12, 1548860, Note_on_c, 11, 75, 75
12, 1548935, Note_off_c, 11, 75, 64
12, 1548935, Note_off_c, 11, 65, 64
12, 1548940, Note_on_c, 11, 65, 75
12, 1548940, Note_on_c, 11, 75, 75
12, 1549015, Note_off_c, 11, 75, 64
12, 1549015, Note_off_c, 11, 65, 64
12, 1549020, Note_on_c, 11, 65, 75
12, 1549020, Note_on_c, 11, 75, 75
12, 1549095, Note_off_c, 11, 75, 64
12, 1549095, Note_off_c, 11, 65, 64
12, 1549100, Note_on_c, 11, 65, 75
12, 1549100, Note_on_c, 11, 75, 75
12, 1549175, Note_off_c, 11, 75, 64
12, 1549175, Note_off_c, 11, 65, 64
12, 1549180, Note_on_c, 11, 65, 75
12, 1549180, Note_on_c, 11, 75, 75
12, 1549255, Note_off_c, 11, 75, 64
12, 1549255, Note_off_c, 11, 65, 64
12, 1549260, Note_on_c, 11, 65, 75
12, 1549260, Note_on_c, 11, 75, 75
12, 1549335, Note_off_c, 11, 75, 64
12, 1549335, Note_off_c, 11, 65, 64
12, 1549340, Note_on_c, 11, 65, 75
12, 1549340, Note_on_c, 11, 75, 75
12, 1549415, Note_off_c, 11, 75, 64
12, 1549415, Note_off_c, 11, 65, 64
12, 1549420, Note_on_c, 11, 65, 75
12, 1549420, Note_on_c, 11, 75, 75
12, 1549495, Note_off_c, 11, 75, 64
12, 1549495, Note_off_c, 11, 65, 64
12, 1549500, Note_on_c, 11, 65, 75
12, 1549500, Note_on_c, 11, 75, 75
12, 1549575, Note_off_c, 11, 75, 64
12, 1549575, Note_off_c, 11, 65, 64
12, 1549580, Note_on_c, 11, 65, 75
12, 1549580, Note_on_c, 11, 75, 75
12, 1549655, Note_off_c, 11, 75, 64
12, 1549655, Note_off_c, 11, 65, 64
12, 1549660, Note_on_c, 11, 65, 75
12, 1549660, Note_on_c, 11, 75, 75
12, 1549735, Note_off_c, 11, 75, 64
12, 1549735, Note_off_c, 11, 65, 64
12, 1549740, Note_on_c, 11, 65, 75
12, 1549740, Note_on_c, 11, 75, 75
12, 1549815, Note_off_c, 11, 75, 64
12, 1549815, Note_off_c, 11, 65, 64
12, 1549820, Note_on_c, 11, 65, 75
12, 1549820, Note_on_c, 11, 75, 75
12, 1549895, Note_off_c, 11, 75, 64
12, 1549895, Note_off_c, 11, 65, 64
12, 1549900, Note_on_c, 11, 65, 75
12, 1549900, Note_on_c, 11, 75, 75
12, 1549975, Note_off_c, 11, 75, 64
12, 1549975, Note_off_c, 11, 65, 64
12, 1549980, Note_on_c, 11, 65, 75
12, 1549980, Note_on_c, 11, 75, 75
12, 1550055, Note_off_c, 11, 75, 64
12, 1550055, Note_off_c, 11, 65, 64
12, 1550060, Note_on_c, 11, 65, 75
12, 1550060, Note_on_c, 11, 75, 75
12, 1550135, Note_off_c, 11, 75, 64
12, 1550135, Note_off_c, 11, 65, 64
12, 1550140, Note_on_c, 11, 65, 75
12, 1550140, Note_on_c, 11, 75, 75
12, 1550215, Note_off_c, 11, 75, 64
12, 1550215, Note_off_c, 11, 65, 64
12, 1550220, Note_on_c, 11, 65, 75
12, 1550220, Note_on_c, 11, 75, 75
12, 1550295, Note_off_c, 11, 75, 64
12, 1550295, Note_off_c, 11, 65, 64
12, 1550300, Note_on_c, 11, 65, 75
12, 1550300, Note_on_c, 11, 75, 75
12, 1550375, Note_off_c, 11, 75, 64
12, 1550375, Note_off_c, 11, 65, 64
12, 1550380, Note_on_c, 11, 65, 75
12, 1550380, Note_on_c, 11, 75, 75
12, 1550455, Note_off_c, 11, 75, 64
12, 1550455, Note_off_c, 11, 65, 64
12, 1550460, Note_on_c, 11, 65, 75
12, 1550460, Note_on_c, 11, 72, 75
12, 1550535, Note_off_c, 11, 72, 64
12, 1550535, Note_off_c, 11, 65, 64
12, 1550540, Note_on_c, 11, 65, 75
12, 1550540, Note_on_c, 11, 72, 75
12, 1550615, Note_off_c, 11, 72, 64
12, 1550615, Note_off_c, 11, 65, 64
12, 1550620, Note_on_c, 11, 65, 75
12, 1550620, Note_on_c, 11, 72, 75
12, 1550695, Note_off_c, 11, 72, 64
12, 1550695, Note_off_c, 11, 65, 64
12, 1550700, Note_on_c, 11, 58, 108
12, 1550700, Note_on_c, 11, 65, 108
12, 1551100, Note_off_c, 11, 65, 64
12, 1551100, Note_off_c, 11, 58, 64
12, 1553340, Note_on_c, 11, 58, 108
12, 1553580, Note_off_c, 11, 58, 64
12, 1553580, Note_on_c, 11, 63, 108
12, 1553980, Note_off_c, 11, 63, 64
12, 1556220, Note_on_c, 11, 71, 108
12, 1556455, Note_off_c, 11, 71, 64
12, 1556460, Note_on_c, 11, 71, 108
12, 1556940, Note_off_c, 11, 71, 64
12, 1556940, Note_on_c, 11, 72, 108
12, 1557175, Note_off_c, 11, 72, 64
12, 1559100, Note_on_c, 11, 69, 108
12, 1559340, Note_off_c, 11, 69, 64
12, 1559340, Note_on_c, 11, 70, 108
12, 1559740, Note_off_c, 11, 70, 64
12, 1560540, Note_on_c, 11, 62, 108
12, 1560540, Note_on_c, 11, 70, 108
12, 1560780, Note_off_c, 11, 70, 64
12, 1560780, Note_off_c, 11, 62, 64
12, 1560780, Note_on_c, 11, 63, 108
12, 1560780, Note_on_c, 11, 70, 108
12, 1561180, Note_off_c, 11, 70, 64
12, 1561180, Note_off_c, 11, 63, 64
12, 1561980, Note_on_c, 11, 63, 108
12, 1561980, Note_on_c, 11, 70, 108
12, 1562220, Note_off_c, 11, 70, 64
12, 1562220, Note_off_c, 11, 63, 64
12, 1562220, Note_on_c, 11, 62, 108
12, 1562220, Note_on_c, 11, 70, 108
12, 1562620, Note_off_c, 11, 70, 64
12, 1562620, Note_off_c, 11, 62, 64
12, 1563420, Note_on_c, 11, 62, 108
12, 1563660, Note_off_c, 11, 62, 64
12, 1563660, Note_on_c, 11, 57, 108
12, 1564060, Note_off_c, 11, 57, 64
12, 1564860, Note_on_c, 11, 57, 108
12, 1564860, Note_on_c, 11, 65, 108
12, 1565095, Note_off_c, 11, 65, 64
12, 1565095, Note_off_c, 11, 57, 64
12, 1565100, Note_on_c, 11, 58, 108
12, 1565220, Note_off_c, 11, 58, 64
12, 1565220, Note_on_c, 11, 70, 108
12, 1565340, Note_off_c, 11, 70, 64
12, 1565340, Note_on_c, 11, 69, 108
12, 1565460, Note_off_c, 11, 69, 64
12, 1565460, Note_on_c, 11, 70, 108
12, 1565580, Note_off_c, 11, 70, 64
12, 1565580, Note_on_c, 11, 62, 108
12, 1565700, Note_off_c, 11, 62, 64
12, 1565700, Note_on_c, 11, 70, 108
12, 1565820, Note_off_c, 11, 70, 64
12, 1565820, Note_on_c, 11, 63, 108
12, 1565940, Note_off_c, 11, 63, 64
12, 1565940, Note_on_c, 11, 70, 108
12, 1566060, Note_off_c, 11, 70, 64
12, 1566060, Note_on_c, 11, 63, 108
12, 1566180, Note_off_c, 11, 63, 64
12, 1566180, Note_on_c, 11, 70, 108
12, 1566300, Note_off_c, 11, 70, 64
12, 1566300, Note_on_c, 11, 65, 108
12, 1566420, Note_off_c, 11, 65, 64
12, 1566420, Note_on_c, 11, 70, 108
12, 1566540, Note_off_c, 11, 70, 64
12, 1566540, Note_on_c, 11, 67, 108
12, 1566660, Note_off_c, 11, 67, 64
12, 1566660, Note_on_c, 11, 70, 108
12, 1566780, Note_off_c, 11, 70, 64
12, 1566780, Note_on_c, 11, 67, 108
12, 1566900, Note_off_c, 11, 67, 64
12, 1566900, Note_on_c, 11, 70, 108
12, 1567020, Note_off_c, 11, 70, 64
12, 1567020, Note_on_c, 11, 67, 108
12, 1567140, Note_off_c, 11, 67, 64
12, 1567140, Note_on_c, 11, 70, 108
12, 1567260, Note_off_c, 11, 70, 64
12, 1567260, Note_on_c, 11, 67, 108
12, 1567380, Note_off_c, 11, 67, 64
12, 1567380, Note_on_c, 11, 70, 108
12, 1567500, Note_off_c, 11, 70, 64
12, 1567500, Note_on_c, 11, 67, 108
12, 1567620, Note_off_c, 11, 67, 64
12, 1567620, Note_on_c, 11, 70, 108
12, 1567740, Note_off_c, 11, 70, 64
12, 1567740, Note_on_c, 11, 67, 108
12, 1567860, Note_off_c, 11, 67, 64
12, 1567860, Note_on_c, 11, 70, 108
12, 1567980, Note_off_c, 11, 70, 64
12, 1567980, Note_on_c, 11, 65, 108
12, 1568100, Note_off_c, 11, 65, 64
12, 1568100, Note_on_c, 11, 70, 108
12, 1568220, Note_off_c, 11, 70, 64
12, 1568220, Note_on_c, 11, 65, 108
12, 1568340, Note_off_c, 11, 65, 64
12, 1568340, Note_on_c, 11, 70, 108
12, 1568460, Note_off_c, 11, 70, 64
12, 1568460, Note_on_c, 11, 65, 108
12, 1568580, Note_off_c, 11, 65, 64
12, 1568580, Note_on_c, 11, 70, 108
12, 1568700, Note_off_c, 11, 70, 64
12, 1568700, Note_on_c, 11, 65, 108
12, 1568820, Note_off_c, 11, 65, 64
12, 1568820, Note_on_c, 11, 70, 108
12, 1568940, Note_off_c, 11, 70, 64
12, 1568940, Note_on_c, 11, 65, 108
12, 1569060, Note_off_c, 11, 65, 64
12, 1569060, Note_on_c, 11, 70, 108
12, 1569180, Note_off_c, 11, 70, 64
12, 1569180, Note_on_c, 11, 65, 108
12, 1569300, Note_off_c, 11, 65, 64
12, 1569300, Note_on_c, 11, 70, 108
12, 1569420, Note_off_c, 11, 70, 64
12, 1569420, Note_on_c, 11, 64, 75
12, 1569540, Note_off_c, 11, 64, 64
12, 1569540, Note_on_c, 11, 61, 75
12, 1569660, Note_off_c, 11, 61, 64
12, 1569660, Note_on_c, 11, 58, 75
12, 1569780, Note_off_c, 11, 58, 64
12, 1569780, Note_on_c, 11, 61, 75
12, 1569900, Note_off_c, 11, 61, 64
12, 1569900, Note_on_c, 11, 58, 75
12, 1570020, Note_off_c, 11, 58, 64
12, 1570020, Note_on_c, 11, 61, 75
12, 1570140, Note_off_c, 11, 61, 64
12, 1570140, Note_on_c, 11, 58, 75
12, 1570260, Note_off_c, 11, 58, 64
12, 1570260, Note_on_c, 11, 61, 75
12, 1570380, Note_off_c, 11, 61, 64
12, 1570380, Note_on_c, 11, 58, 75
12, 1570500, Note_off_c, 11, 58, 64
12, 1570500, Note_on_c, 11, 61, 75
12, 1570620, Note_off_c, 11, 61, 64
12, 1570620, Note_on_c, 11, 58, 75
12, 1570740, Note_off_c, 11, 58, 64
12, 1570740, Note_on_c, 11, 61, 75
12, 1570860, Note_off_c, 11, 61, 64
12, 1570860, Note_on_c, 11, 61, 60
12, 1570980, Note_off_c, 11, 61, 64
12, 1570980, Note_on_c, 11, 65, 60
12, 1571100, Note_off_c, 11, 65, 64
12, 1571100, Note_on_c, 11, 61, 60
12, 1571220, Note_off_c, 11, 61, 64
12, 1571220, Note_on_c, 11, 65, 60
12, 1571340, Note_off_c, 11, 65, 64
12, 1571340, Note_on_c, 11, 61, 60
12, 1571460, Note_off_c, 11, 61, 64
12, 1571460, Note_on_c, 11, 65, 60
12, 1571580, Note_off_c, 11, 65, 64
12, 1571580, Note_on_c, 11, 60, 60
12, 1571700, Note_off_c, 11, 60, 64
12, 1571700, Note_on_c, 11, 66, 60
12, 1571820, Note_off_c, 11, 66, 64
12, 1571820, Note_on_c, 11, 60, 60
12, 1571940, Note_off_c, 11, 60, 64
12, 1571940, Note_on_c, 11, 66, 60
12, 1572060, Note_off_c, 11, 66, 64
12, 1572060, Note_on_c, 11, 60, 60
12, 1572180, Note_off_c, 11, 60, 64
12, 1572180, Note_on_c, 11, 66, 60
12, 1572300, Note_off_c, 11, 66, 64
12, 1572300, Note_on_c, 11, 61, 45
12, 1572420, Note_off_c, 11, 61, 64
12, 1572420, Note_on_c, 11, 65, 45
12, 1572540, Note_off_c, 11, 65, 64
12, 1572540, Note_on_c, 11, 61, 45
12, 1572660, Note_off_c, 11, 61, 64
12, 1572660, Note_on_c, 11, 65, 45
12, 1572780, Note_off_c, 11, 65, 64
12, 1572780, Note_on_c, 11, 61, 45
12, 1572900, Note_off_c, 11, 61, 64
12, 1572900, Note_on_c, 11, 65, 45
12, 1573020, Note_off_c, 11, 65, 64
12, 1573020, Note_on_c, 11, 61, 45
12, 1573140, Note_off_c, 11, 61, 64
12, 1573140, Note_on_c, 11, 65, 45
12, 1573260, Note_off_c, 11, 65, 64
12, 1573260, Note_on_c, 11, 61, 45
12, 1573380, Note_off_c, 11, 61, 64
12, 1573380, Note_on_c, 11, 65, 45
12, 1573500, Note_off_c, 11, 65, 64
12, 1573500, Note_on_c, 11, 61, 45
12, 1573620, Note_off_c, 11, 61, 64
12, 1573620, Note_on_c, 11, 65, 45
12, 1573740, Note_off_c, 11, 65, 64
12, 1573740, Note_on_c, 11, 63, 45
12, 1573860, Note_off_c, 11, 63, 64
12, 1573860, Note_on_c, 11, 65, 45
12, 1573980, Note_off_c, 11, 65, 64
12, 1573980, Note_on_c, 11, 63, 45
12, 1574100, Note_off_c, 11, 63, 64
12, 1574100, Note_on_c, 11, 65, 45
12, 1574220, Note_off_c, 11, 65, 64
12, 1574220, Note_on_c, 11, 63, 45
12, 1574340, Note_off_c, 11, 63, 64
12, 1574340, Note_on_c, 11, 65, 45
12, 1574460, Note_off_c, 11, 65, 64
12, 1574460, Note_on_c, 11, 63, 45
12, 1574580, Note_off_c, 11, 63, 64
12, 1574580, Note_on_c, 11, 65, 45
12, 1574700, Note_off_c, 11, 65, 64
12, 1574700, Note_on_c, 11, 63, 45
12, 1574820, Note_off_c, 11, 63, 64
12, 1574820, Note_on_c, 11, 65, 45
12, 1574940, Note_off_c, 11, 65, 64
12, 1574940, Note_on_c, 11, 63, 45
12, 1575060, Note_off_c, 11, 63, 64
12, 1575060, Note_on_c, 11, 65, 45
12, 1575180, Note_off_c, 11, 65, 64
12, 1575180, Note_on_c, 11, 61, 45
12, 1575300, Note_off_c, 11, 61, 64
12, 1575300, Note_on_c, 11, 65, 45
12, 1575420, Note_off_c, 11, 65, 64
12, 1575420, Note_on_c, 11, 61, 45
12, 1575540, Note_off_c, 11, 61, 64
12, 1575540, Note_on_c, 11, 65, 45
12, 1575660, Note_off_c, 11, 65, 64
12, 1575660, Note_on_c, 11, 61, 45
12, 1575780, Note_off_c, 11, 61, 64
12, 1575780, Note_on_c, 11, 65, 45
12, 1575900, Note_off_c, 11, 65, 64
12, 1575900, Note_on_c, 11, 61, 45
12, 1576020, Note_off_c, 11, 61, 64
12, 1576020, Note_on_c, 11, 65, 45
12, 1576140, Note_off_c, 11, 65, 64
12, 1576140, Note_on_c, 11, 61, 45
12, 1576260, Note_off_c, 11, 61, 64
12, 1576260, Note_on_c, 11, 65, 45
12, 1576380, Note_off_c, 11, 65, 64
12, 1576380, Note_on_c, 11, 61, 45
12, 1576500, Note_off_c, 11, 61, 64
12, 1576500, Note_on_c, 11, 65, 45
12, 1576620, Note_off_c, 11, 65, 64
12, 1576620, Note_on_c, 11, 62, 45
12, 1576740, Note_off_c, 11, 62, 64
12, 1576740, Note_on_c, 11, 65, 45
12, 1576860, Note_off_c, 11, 65, 64
12, 1576860, Note_on_c, 11, 62, 45
12, 1576980, Note_off_c, 11, 62, 64
12, 1576980, Note_on_c, 11, 65, 45
12, 1577100, Note_off_c, 11, 65, 64
12, 1577100, Note_on_c, 11, 62, 45
12, 1577220, Note_off_c, 11, 62, 64
12, 1577220, Note_on_c, 11, 65, 45
12, 1577340, Note_off_c, 11, 65, 64
12, 1577340, Note_on_c, 11, 62, 45
12, 1577460, Note_off_c, 11, 62, 64
12, 1577460, Note_on_c, 11, 65, 45
12, 1577580, Note_off_c, 11, 65, 64
12, 1577580, Note_on_c, 11, 62, 45
12, 1577700, Note_off_c, 11, 62, 64
12, 1577700, Note_on_c, 11, 65, 45
12, 1577820, Note_off_c, 11, 65, 64
12, 1577820, Note_on_c, 11, 62, 45
12, 1577940, Note_off_c, 11, 62, 64
12, 1577940, Note_on_c, 11, 65, 45
12, 1578055, Note_off_c, 11, 65, 64
12, 1578060, Note_on_c, 11, 60, 60
12, 1578180, Note_off_c, 11, 60, 64
12, 1578180, Note_on_c, 11, 62, 60
12, 1578260, Note_off_c, 11, 62, 64
12, 1578300, Note_on_c, 11, 64, 60
12, 1578380, Note_off_c, 11, 64, 64
12, 1578420, Note_on_c, 11, 65, 60
12, 1578500, Note_off_c, 11, 65, 64
12, 1578540, Note_on_c, 11, 67, 60
12, 1578620, Note_off_c, 11, 67, 64
12, 1578660, Note_on_c, 11, 66, 60
12, 1578740, Note_off_c, 11, 66, 64
12, 1578780, Note_on_c, 11, 69, 60
12, 1578860, Note_off_c, 11, 69, 64
12, 1578900, Note_on_c, 11, 67, 60
12, 1578980, Note_off_c, 11, 67, 64
12, 1579020, Note_on_c, 11, 65, 60
12, 1579100, Note_off_c, 11, 65, 64
12, 1579140, Note_on_c, 11, 64, 60
12, 1579220, Note_off_c, 11, 64, 64
12, 1579260, Note_on_c, 11, 62, 60
12, 1579340, Note_off_c, 11, 62, 64
12, 1579380, Note_on_c, 11, 60, 60
12, 1579460, Note_off_c, 11, 60, 64
12, 1579500, Note_on_c, 11, 59, 60
12, 1579620, Note_off_c, 11, 59, 64
12, 1579620, Note_on_c, 11, 60, 60
12, 1579700, Note_off_c, 11, 60, 64
12, 1579740, Note_on_c, 11, 62, 60
12, 1579820, Note_off_c, 11, 62, 64
12, 1579860, Note_on_c, 11, 64, 60
12, 1579940, Note_off_c, 11, 64, 64
12, 1579980, Note_on_c, 11, 65, 60
12, 1580060, Note_off_c, 11, 65, 64
12, 1580100, Note_on_c, 11, 64, 60
12, 1580180, Note_off_c, 11, 64, 64
12, 1580220, Note_on_c, 11, 67, 60
12, 1580300, Note_off_c, 11, 67, 64
12, 1580340, Note_on_c, 11, 65, 60
12, 1580420, Note_off_c, 11, 65, 64
12, 1580460, Note_on_c, 11, 64, 60
12, 1580540, Note_off_c, 11, 64, 64
12, 1580580, Note_on_c, 11, 62, 60
12, 1580660, Note_off_c, 11, 62, 64
12, 1580700, Note_on_c, 11, 60, 92
12, 1580780, Note_off_c, 11, 60, 64
12, 1580820, Note_on_c, 11, 59, 92
12, 1580900, Note_off_c, 11, 59, 64
12, 1580940, Note_on_c, 11, 59, 92
12, 1581060, Note_off_c, 11, 59, 64
12, 1581060, Note_on_c, 11, 60, 92
12, 1581140, Note_off_c, 11, 60, 64
12, 1581180, Note_on_c, 11, 62, 92
12, 1581260, Note_off_c, 11, 62, 64
12, 1581300, Note_on_c, 11, 64, 92
12, 1581380, Note_off_c, 11, 64, 64
12, 1581420, Note_on_c, 11, 65, 92
12, 1581500, Note_off_c, 11, 65, 64
12, 1581540, Note_on_c, 11, 64, 92
12, 1581620, Note_off_c, 11, 64, 64
12, 1581660, Note_on_c, 11, 67, 92
12, 1581740, Note_off_c, 11, 67, 64
12, 1581780, Note_on_c, 11, 65, 92
12, 1581860, Note_off_c, 11, 65, 64
12, 1581900, Note_on_c, 11, 64, 92
12, 1581980, Note_off_c, 11, 64, 64
12, 1582020, Note_on_c, 11, 62, 92
12, 1582100, Note_off_c, 11, 62, 64
12, 1582140, Note_on_c, 11, 60, 92
12, 1582220, Note_off_c, 11, 60, 64
12, 1582260, Note_on_c, 11, 59, 92
12, 1582340, Note_off_c, 11, 59, 64
12, 1582380, Note_on_c, 11, 60, 92
12, 1582500, Note_off_c, 11, 60, 64
12, 1582500, Note_on_c, 11, 62, 92
12, 1582580, Note_off_c, 11, 62, 64
12, 1582620, Note_on_c, 11, 64, 92
12, 1582700, Note_off_c, 11, 64, 64
12, 1582740, Note_on_c, 11, 65, 92
12, 1582820, Note_off_c, 11, 65, 64
12, 1582860, Note_on_c, 11, 67, 92
12, 1582940, Note_off_c, 11, 67, 64
12, 1582980, Note_on_c, 11, 66, 92
12, 1583060, Note_off_c, 11, 66, 64
12, 1583100, Note_on_c, 11, 69, 92
12, 1583180, Note_off_c, 11, 69, 64
12, 1583220, Note_on_c, 11, 67, 92
12, 1583300, Note_off_c, 11, 67, 64
12, 1583340, Note_on_c, 11, 65, 92
12, 1583420, Note_off_c, 11, 65, 64
12, 1583460, Note_on_c, 11, 64, 92
12, 1583540, Note_off_c, 11, 64, 64
12, 1583580, Note_on_c, 11, 62, 92
12, 1583660, Note_off_c, 11, 62, 64
12, 1583700, Note_on_c, 11, 60, 92
12, 1583780, Note_off_c, 11, 60, 64
12, 1583820, Note_on_c, 11, 60, 60
12, 1583940, Note_off_c, 11, 60, 64
12, 1583940, Note_on_c, 11, 62, 60
12, 1584020, Note_off_c, 11, 62, 64
12, 1584060, Note_on_c, 11, 64, 60
12, 1584140, Note_off_c, 11, 64, 64
12, 1584180, Note_on_c, 11, 65, 60
12, 1584260, Note_off_c, 11, 65, 64
12, 1584300, Note_on_c, 11, 67, 60
12, 1584380, Note_off_c, 11, 67, 64
12, 1584420, Note_on_c, 11, 66, 60
12, 1584500, Note_off_c, 11, 66, 64
12, 1584540, Note_on_c, 11, 69, 60
12, 1584620, Note_off_c, 11, 69, 64
12, 1584660, Note_on_c, 11, 67, 60
12, 1584740, Note_off_c, 11, 67, 64
12, 1584780, Note_on_c, 11, 65, 60
12, 1584860, Note_off_c, 11, 65, 64
12, 1584900, Note_on_c, 11, 64, 60
12, 1584980, Note_off_c, 11, 64, 64
12, 1585020, Note_on_c, 11, 62, 60
12, 1585100, Note_off_c, 11, 62, 64
12, 1585140, Note_on_c, 11, 60, 60
12, 1585220, Note_off_c, 11, 60, 64
12, 1585260, Note_on_c, 11, 59, 60
12, 1585380, Note_off_c, 11, 59, 64
12, 1585380, Note_on_c, 11, 60, 60
12, 1585460, Note_off_c, 11, 60, 64
12, 1585500, Note_on_c, 11, 62, 60
12, 1585580, Note_off_c, 11, 62, 64
12, 1585620, Note_on_c, 11, 64, 60
12, 1585700, Note_off_c, 11, 64, 64
12, 1585740, Note_on_c, 11, 65, 60
12, 1585820, Note_off_c, 11, 65, 64
12, 1585860, Note_on_c, 11, 64, 60
12, 1585940, Note_off_c, 11, 64, 64
12, 1585980, Note_on_c, 11, 67, 60
12, 1586060, Note_off_c, 11, 67, 64
12, 1586100, Note_on_c, 11, 65, 60
12, 1586180, Note_off_c, 11, 65, 64
12, 1586220, Note_on_c, 11, 64, 60
12, 1586300, Note_off_c, 11, 64, 64
12, 1586340, Note_on_c, 11, 62, 60
12, 1586420, Note_off_c, 11, 62, 64
12, 1586460, Note_on_c, 11, 60, 92
12, 1586540, Note_off_c, 11, 60, 64
12, 1586580, Note_on_c, 11, 59, 92
12, 1586660, Note_off_c, 11, 59, 64
12, 1586700, Note_on_c, 11, 59, 92
12, 1586820, Note_off_c, 11, 59, 64
12, 1586820, Note_on_c, 11, 60, 92
12, 1586900, Note_off_c, 11, 60, 64
12, 1586940, Note_on_c, 11, 62, 92
12, 1587020, Note_off_c, 11, 62, 64
12, 1587060, Note_on_c, 11, 64, 92
12, 1587140, Note_off_c, 11, 64, 64
12, 1587180, Note_on_c, 11, 65, 92
12, 1587260, Note_off_c, 11, 65, 64
12, 1587300, Note_on_c, 11, 64, 92
12, 1587380, Note_off_c, 11, 64, 64
12, 1587420, Note_on_c, 11, 67, 92
12, 1587500, Note_off_c, 11, 67, 64
12, 1587540, Note_on_c, 11, 65, 92
12, 1587620, Note_off_c, 11, 65, 64
12, 1587660, Note_on_c, 11, 64, 92
12, 1587740, Note_off_c, 11, 64, 64
12, 1587780, Note_on_c, 11, 62, 93
12, 1587860, Note_off_c, 11, 62, 64
12, 1587900, Note_on_c, 11, 60, 94
12, 1587980, Note_off_c, 11, 60, 64
12, 1588020, Note_on_c, 11, 59, 95
12, 1588100, Note_off_c, 11, 59, 64
12, 1588140, Note_on_c, 11, 60, 96
12, 1588260, Note_off_c, 11, 60, 64
12, 1588260, Note_on_c, 11, 62, 97
12, 1588340, Note_off_c, 11, 62, 64
12, 1588380, Note_on_c, 11, 64, 98
12, 1588460, Note_off_c, 11, 64, 64
12, 1588500, Note_on_c, 11, 65, 99
12, 1588580, Note_off_c, 11, 65, 64
12, 1588620, Note_on_c, 11, 67, 100
12, 1588700, Note_off_c, 11, 67, 64
12, 1588740, Note_on_c, 11, 66, 101
12, 1588820, Note_off_c, 11, 66, 64
12, 1588860, Note_on_c, 11, 69, 102
12, 1588940, Note_off_c, 11, 69, 64
12, 1588980, Note_on_c, 11, 67, 103
12, 1589060, Note_off_c, 11, 67, 64
12, 1589100, Note_on_c, 11, 65, 104
12, 1589180, Note_off_c, 11, 65, 64
12, 1589220, Note_on_c, 11, 64, 105
12, 1589300, Note_off_c, 11, 64, 64
12, 1589340, Note_on_c, 11, 62, 106
12, 1589420, Note_off_c, 11, 62, 64
12, 1589460, Note_on_c, 11, 60, 107
12, 1589540, Note_off_c, 11, 60, 64
12, 1589580, Note_on_c, 11, 60, 108
12, 1589700, Note_off_c, 11, 60, 64
12, 1589700, Note_on_c, 11, 62, 108
12, 1589780, Note_off_c, 11, 62, 64
12, 1589820, Note_on_c, 11, 64, 108
12, 1589900, Note_off_c, 11, 64, 64
12, 1589940, Note_on_c, 11, 65, 108
12, 1590020, Note_off_c, 11, 65, 64
12, 1590060, Note_on_c, 11, 67, 108
12, 1590140, Note_off_c, 11, 67, 64
12, 1590180, Note_on_c, 11, 66, 108
12, 1590260, Note_off_c, 11, 66, 64
12, 1590300, Note_on_c, 11, 69, 108
12, 1590380, Note_off_c, 11, 69, 64
12, 1590420, Note_on_c, 11, 67, 108
12, 1590500, Note_off_c, 11, 67, 64
12, 1590540, Note_on_c, 11, 65, 108
12, 1590620, Note_off_c, 11, 65, 64
12, 1590660, Note_on_c, 11, 64, 108
12, 1590740, Note_off_c, 11, 64, 64
12, 1590780, Note_on_c, 11, 62, 108
12, 1590860, Note_off_c, 11, 62, 64
12, 1590900, Note_on_c, 11, 60, 108
12, 1590980, Note_off_c, 11, 60, 64
12, 1591020, Note_on_c, 11, 60, 108
12, 1591140, Note_off_c, 11, 60, 64
12, 1591140, Note_on_c, 11, 62, 108
12, 1591220, Note_off_c, 11, 62, 64
12, 1591260, Note_on_c, 11, 64, 108
12, 1591340, Note_off_c, 11, 64, 64
12, 1591380, Note_on_c, 11, 65, 108
12, 1591460, Note_off_c, 11, 65, 64
12, 1591500, Note_on_c, 11, 67, 108
12, 1591580, Note_off_c, 11, 67, 64
12, 1591620, Note_on_c, 11, 66, 108
12, 1591700, Note_off_c, 11, 66, 64
12, 1591740, Note_on_c, 11, 69, 108
12, 1591820, Note_off_c, 11, 69, 64
12, 1591860, Note_on_c, 11, 67, 108
12, 1591940, Note_off_c, 11, 67, 64
12, 1591980, Note_on_c, 11, 65, 108
12, 1592060, Note_off_c, 11, 65, 64
12, 1592100, Note_on_c, 11, 64, 108
12, 1592180, Note_off_c, 11, 64, 64
12, 1592220, Note_on_c, 11, 62, 108
12, 1592300, Note_off_c, 11, 62, 64
12, 1592340, Note_on_c, 11, 60, 108
12, 1592420, Note_off_c, 11, 60, 64
12, 1592460, Note_on_c, 11, 60, 45
12, 1592580, Note_off_c, 11, 60, 64
12, 1592580, Note_on_c, 11, 62, 45
12, 1592700, Note_off_c, 11, 62, 64
12, 1592700, Note_on_c, 11, 64, 45
12, 1592820, Note_off_c, 11, 64, 64
12, 1592820, Note_on_c, 11, 65, 45
12, 1592940, Note_off_c, 11, 65, 64
12, 1592940, Note_on_c, 11, 67, 45
12, 1593060, Note_off_c, 11, 67, 64
12, 1593060, Note_on_c, 11, 66, 45
12, 1593175, Note_off_c, 11, 66, 64
12, 1593180, Note_on_c, 11, 69, 45
12, 1593300, Note_off_c, 11, 69, 64
12, 1593300, Note_on_c, 11, 67, 45
12, 1593420, Note_off_c, 11, 67, 64
12, 1593420, Note_on_c, 11, 65, 45
12, 1593540, Note_off_c, 11, 65, 64
12, 1593540, Note_on_c, 11, 64, 45
12, 1593660, Note_off_c, 11, 64, 64
12, 1593660, Note_on_c, 11, 62, 45
12, 1593780, Note_off_c, 11, 62, 64
12, 1593780, Note_on_c, 11, 60, 45
12, 1593895, Note_off_c, 11, 60, 64
12, 1597500, Note_on_c, 11, 69, 60
12, 1597620, Note_off_c, 11, 69, 64
12, 1597620, Note_on_c, 11, 67, 60
12, 1597740, Note_off_c, 11, 67, 64
12, 1597740, Note_on_c, 11, 65, 60
12, 1597860, Note_off_c, 11, 65, 64
12, 1597860, Note_on_c, 11, 64, 60
12, 1597980, Note_off_c, 11, 64, 64
12, 1597980, Note_on_c, 11, 62, 60
12, 1598100, Note_off_c, 11, 62, 64
12, 1598100, Note_on_c, 11, 60, 60
12, 1598215, Note_off_c, 11, 60, 64
12, 1598220, Note_on_c, 11, 69, 60
12, 1598340, Note_off_c, 11, 69, 64
12, 1598340, Note_on_c, 11, 67, 60
12, 1598460, Note_off_c, 11, 67, 64
12, 1598460, Note_on_c, 11, 65, 60
12, 1598580, Note_off_c, 11, 65, 64
12, 1598580, Note_on_c, 11, 64, 60
12, 1598700, Note_off_c, 11, 64, 64
12, 1598700, Note_on_c, 11, 62, 60
12, 1598820, Note_off_c, 11, 62, 64
12, 1598820, Note_on_c, 11, 60, 60
12, 1598935, Note_off_c, 11, 60, 64
12, 1598940, Note_on_c, 11, 69, 60
12, 1599060, Note_off_c, 11, 69, 64
12, 1599060, Note_on_c, 11, 67, 60
12, 1599180, Note_off_c, 11, 67, 64
12, 1599180, Note_on_c, 11, 65, 60
12, 1599300, Note_off_c, 11, 65, 64
12, 1599300, Note_on_c, 11, 64, 60
12, 1599420, Note_off_c, 11, 64, 64
12, 1599420, Note_on_c, 11, 62, 60
12, 1599540, Note_off_c, 11, 62, 64
12, 1599540, Note_on_c, 11, 60, 60
12, 1599655, Note_off_c, 11, 60, 64
12, 1599660, Note_on_c, 11, 69, 60
12, 1599780, Note_off_c, 11, 69, 64
12, 1599780, Note_on_c, 11, 67, 60
12, 1599900, Note_off_c, 11, 67, 64
12, 1599900, Note_on_c, 11, 65, 60
12, 1600020, Note_off_c, 11, 65, 64
12, 1600020, Note_on_c, 11, 64, 60
12, 1600140, Note_off_c, 11, 64, 64
12, 1600140, Note_on_c, 11, 62, 60
12, 1600260, Note_off_c, 11, 62, 64
12, 1600260, Note_on_c, 11, 60, 60
12, 1600375, Note_off_c, 11, 60, 64
12, 1600380, Note_on_c, 11, 72, 60
12, 1600500, Note_off_c, 11, 72, 64
12, 1600500, Note_on_c, 11, 70, 58
12, 1600620, Note_off_c, 11, 70, 64
12, 1600620, Note_on_c, 11, 69, 56
12, 1600740, Note_off_c, 11, 69, 64
12, 1600740, Note_on_c, 11, 67, 54
12, 1600860, Note_off_c, 11, 67, 64
12, 1600860, Note_on_c, 11, 65, 52
12, 1600980, Note_off_c, 11, 65, 64
12, 1600980, Note_on_c, 11, 64, 50
12, 1601095, Note_off_c, 11, 64, 64
12, 1601820, Program_c, 11, 45
12, 1601820, Note_on_c, 11, 55, 30
12, 1601820, Note_on_c, 11, 64, 30
12, 1601820, Note_on_c, 11, 70, 30
12, 1602220, Note_off_c, 11, 70, 64
12, 1602220, Note_off_c, 11, 64, 64
12, 1602220, Note_off_c, 11, 55, 64
12, 1602780, Note_on_c, 11, 55, 30
12, 1603015, Note_off_c, 11, 55, 64
12, 1603020, Note_on_c, 11, 58, 30
12, 1603255, Note_off_c, 11, 58, 64
12, 1603260, Note_on_c, 11, 64, 30
12, 1603495, Note_off_c, 11, 64, 64
12, 1603500, Note_on_c, 11, 67, 30
12, 1603735, Note_off_c, 11, 67, 64
12, 1603740, Note_on_c, 11, 70, 30
12, 1603975, Note_off_c, 11, 70, 64
12, 1603980, Note_on_c, 11, 69, 45
12, 1604380, Note_off_c, 11, 69, 64
12, 1604460, Note_on_c, 11, 69, 45
12, 1604695, Note_off_c, 11, 69, 64
12, 1604700, Note_on_c, 11, 69, 45
12, 1604935, Note_off_c, 11, 69, 64
12, 1604940, Note_on_c, 11, 65, 45
12, 1605175, Note_off_c, 11, 65, 64
12, 1605180, Note_on_c, 11, 72, 45
12, 1605415, Note_off_c, 11, 72, 64
12, 1605900, Note_on_c, 11, 69, 45
12, 1606135, Note_off_c, 11, 69, 64
12, 1606140, Note_on_c, 11, 69, 45
12, 1606375, Note_off_c, 11, 69, 64
12, 1606380, Note_on_c, 11, 60, 45
12, 1606615, Note_off_c, 11, 60, 64
12, 1606620, Note_on_c, 11, 65, 45
12, 1606855, Note_off_c, 11, 65, 64
12, 1607340, Note_on_c, 11, 69, 45
12, 1607575, Note_off_c, 11, 69, 64
12, 1607580, Note_on_c, 11, 69, 45
12, 1607815, Note_off_c, 11, 69, 64
12, 1607820, Note_on_c, 11, 65, 45
12, 1608055, Note_off_c, 11, 65, 64
12, 1608060, Note_on_c, 11, 72, 45
12, 1608295, Note_off_c, 11, 72, 64
12, 1608780, Note_on_c, 11, 70, 45
12, 1609015, Note_off_c, 11, 70, 64
12, 1609020, Note_on_c, 11, 70, 45
12, 1609255, Note_off_c, 11, 70, 64
12, 1609260, Note_on_c, 11, 65, 45
12, 1609495, Note_off_c, 11, 65, 64
12, 1609500, Note_on_c, 11, 67, 45
12, 1609735, Note_off_c, 11, 67, 64
12, 1610220, Note_on_c, 11, 70, 47
12, 1610455, Note_off_c, 11, 70, 64
12, 1610460, Note_on_c, 11, 70, 48
12, 1610695, Note_off_c, 11, 70, 64
12, 1610700, Note_on_c, 11, 67, 49
12, 1610935, Note_off_c, 11, 67, 64
12, 1610940, Note_on_c, 11, 72, 50
12, 1611175, Note_off_c, 11, 72, 64
12, 1611660, Note_on_c, 11, 69, 53
12, 1611895, Note_off_c, 11, 69, 64
12, 1611900, Note_on_c, 11, 69, 54
12, 1612135, Note_off_c, 11, 69, 64
12, 1612140, Note_on_c, 11, 65, 55
12, 1612375, Note_off_c, 11, 65, 64
12, 1612380, Note_on_c, 11, 72, 56
12, 1612615, Note_off_c, 11, 72, 64
12, 1613100, Note_on_c, 11, 67, 60
12, 1613335, Note_off_c, 11, 67, 64
12, 1613340, Note_on_c, 11, 67, 61
12, 1613575, Note_off_c, 11, 67, 64
12, 1613580, Note_on_c, 11, 60, 62
12, 1613815, Note_off_c, 11, 60, 64
12, 1613820, Note_on_c, 11, 72, 63
12, 1614055, Note_off_c, 11, 72, 64
12, 1614060, Note_on_c, 11, 69, 65
12, 1614460, Note_off_c, 11, 69, 64
12, 1615260, Program_c, 11, 48
12, 1615260, Note_on_c, 11, 60, 75
12, 1615380, Note_off_c, 11, 60, 64
12, 1615380, Note_on_c, 11, 65, 75
12, 1615500, Note_off_c, 11, 65, 64
12, 1615500, Note_on_c, 11, 69, 75
12, 1615620, Note_off_c, 11, 69, 64
12, 1615620, Note_on_c, 11, 70, 75
12, 1615740, Note_off_c, 11, 70, 64
12, 1615740, Note_on_c, 11, 69, 75
12, 1615860, Note_off_c, 11, 69, 64
12, 1615860, Note_on_c, 11, 67, 75
12, 1615980, Note_off_c, 11, 67, 64
12, 1615980, Note_on_c, 11, 65, 75
12, 1616100, Note_off_c, 11, 65, 64
12, 1616100, Note_on_c, 11, 64, 75
12, 1616220, Note_off_c, 11, 64, 64
12, 1616220, Note_on_c, 11, 65, 75
12, 1616340, Note_off_c, 11, 65, 64
12, 1616340, Note_on_c, 11, 67, 75
12, 1616460, Note_off_c, 11, 67, 64
12, 1616460, Note_on_c, 11, 69, 75
12, 1616580, Note_off_c, 11, 69, 64
12, 1616580, Note_on_c, 11, 70, 75
12, 1616700, Note_off_c, 11, 70, 64
12, 1616700, Note_on_c, 11, 72, 75
12, 1616820, Note_off_c, 11, 72, 64
12, 1616820, Note_on_c, 11, 70, 75
12, 1616940, Note_off_c, 11, 70, 64
12, 1616940, Note_on_c, 11, 69, 75
12, 1617060, Note_off_c, 11, 69, 64
12, 1617060, Note_on_c, 11, 70, 75
12, 1617180, Note_off_c, 11, 70, 64
12, 1617180, Note_on_c, 11, 69, 75
12, 1617300, Note_off_c, 11, 69, 64
12, 1617300, Note_on_c, 11, 67, 75
12, 1617420, Note_off_c, 11, 67, 64
12, 1617420, Note_on_c, 11, 65, 75
12, 1617540, Note_off_c, 11, 65, 64
12, 1617540, Note_on_c, 11, 64, 75
12, 1617660, Note_off_c, 11, 64, 64
12, 1617660, Note_on_c, 11, 65, 75
12, 1617780, Note_off_c, 11, 65, 64
12, 1617780, Note_on_c, 11, 64, 75
12, 1617900, Note_off_c, 11, 64, 64
12, 1617900, Note_on_c, 11, 65, 75
12, 1618020, Note_off_c, 11, 65, 64
12, 1618020, Note_on_c, 11, 60, 75
12, 1618140, Note_off_c, 11, 60, 64
12, 1618140, Note_on_c, 11, 62, 75
12, 1618260, Note_off_c, 11, 62, 64
12, 1618260, Note_on_c, 11, 64, 75
12, 1618380, Note_off_c, 11, 64, 64
12, 1618380, Note_on_c, 11, 65, 75
12, 1618500, Note_off_c, 11, 65, 64
12, 1618500, Note_on_c, 11, 67, 75
12, 1618620, Note_off_c, 11, 67, 64
12, 1618620, Note_on_c, 11, 65, 75
12, 1618740, Note_off_c, 11, 65, 64
12, 1618740, Note_on_c, 11, 64, 75
12, 1618860, Note_off_c, 11, 64, 64
12, 1618860, Note_on_c, 11, 65, 75
12, 1618980, Note_off_c, 11, 65, 64
12, 1618980, Note_on_c, 11, 67, 75
12, 1619100, Note_off_c, 11, 67, 64
12, 1619100, Note_on_c, 11, 69, 75
12, 1619220, Note_off_c, 11, 69, 64
12, 1619220, Note_on_c, 11, 70, 75
12, 1619340, Note_off_c, 11, 70, 64
12, 1619340, Note_on_c, 11, 72, 75
12, 1619460, Note_off_c, 11, 72, 64
12, 1619460, Note_on_c, 11, 71, 75
12, 1619580, Note_off_c, 11, 71, 64
12, 1619580, Note_on_c, 11, 72, 75
12, 1619700, Note_off_c, 11, 72, 64
12, 1619700, Note_on_c, 11, 69, 75
12, 1619820, Note_off_c, 11, 69, 64
12, 1619820, Note_on_c, 11, 70, 75
12, 1619940, Note_off_c, 11, 70, 64
12, 1619940, Note_on_c, 11, 72, 75
12, 1620060, Note_off_c, 11, 72, 64
12, 1620060, Note_on_c, 11, 74, 75
12, 1620180, Note_off_c, 11, 74, 64
12, 1620180, Note_on_c, 11, 72, 75
12, 1620300, Note_off_c, 11, 72, 64
12, 1620300, Note_on_c, 11, 70, 75
12, 1620420, Note_off_c, 11, 70, 64
12, 1620420, Note_on_c, 11, 72, 75
12, 1620540, Note_off_c, 11, 72, 64
12, 1620540, Note_on_c, 11, 70, 75
12, 1620660, Note_off_c, 11, 70, 64
12, 1620660, Note_on_c, 11, 72, 75
12, 1620780, Note_off_c, 11, 72, 64
12, 1620780, Note_on_c, 11, 70, 75
12, 1620900, Note_off_c, 11, 70, 64
12, 1620900, Note_on_c, 11, 69, 75
12, 1621020, Note_off_c, 11, 69, 64
12, 1621020, Note_on_c, 11, 67, 75
12, 1621140, Note_off_c, 11, 67, 64
12, 1621140, Note_on_c, 11, 69, 75
12, 1621260, Note_off_c, 11, 69, 64
12, 1621260, Note_on_c, 11, 70, 75
12, 1621380, Note_off_c, 11, 70, 64
12, 1621380, Note_on_c, 11, 72, 75
12, 1621500, Note_off_c, 11, 72, 64
12, 1621500, Note_on_c, 11, 70, 75
12, 1621620, Note_off_c, 11, 70, 64
12, 1621620, Note_on_c, 11, 69, 75
12, 1621740, Note_off_c, 11, 69, 64
12, 1621740, Note_on_c, 11, 67, 75
12, 1621860, Note_off_c, 11, 67, 64
12, 1621860, Note_on_c, 11, 66, 75
12, 1621980, Note_off_c, 11, 66, 64
12, 1621980, Note_on_c, 11, 67, 75
12, 1622100, Note_off_c, 11, 67, 64
12, 1622100, Note_on_c, 11, 69, 75
12, 1622220, Note_off_c, 11, 69, 64
12, 1622220, Note_on_c, 11, 70, 75
12, 1622340, Note_off_c, 11, 70, 64
12, 1622340, Note_on_c, 11, 71, 75
12, 1622460, Note_off_c, 11, 71, 64
12, 1622460, Note_on_c, 11, 72, 75
12, 1622580, Note_off_c, 11, 72, 64
12, 1622580, Note_on_c, 11, 70, 75
12, 1622700, Note_off_c, 11, 70, 64
12, 1622700, Note_on_c, 11, 69, 75
12, 1622820, Note_off_c, 11, 69, 64
12, 1622820, Note_on_c, 11, 70, 75
12, 1622940, Note_off_c, 11, 70, 64
12, 1622940, Note_on_c, 11, 69, 75
12, 1623060, Note_off_c, 11, 69, 64
12, 1623060, Note_on_c, 11, 67, 75
12, 1623180, Note_off_c, 11, 67, 64
12, 1623180, Note_on_c, 11, 69, 75
12, 1623300, Note_off_c, 11, 69, 64
12, 1623300, Note_on_c, 11, 67, 75
12, 1623420, Note_off_c, 11, 67, 64
12, 1623420, Note_on_c, 11, 65, 75
12, 1623540, Note_off_c, 11, 65, 64
12, 1623540, Note_on_c, 11, 67, 75
12, 1623660, Note_off_c, 11, 67, 64
12, 1623660, Note_on_c, 11, 65, 75
12, 1623780, Note_off_c, 11, 65, 64
12, 1623780, Note_on_c, 11, 64, 75
12, 1623900, Note_off_c, 11, 64, 64
12, 1623900, Note_on_c, 11, 65, 75
12, 1624020, Note_off_c, 11, 65, 64
12, 1624020, Note_on_c, 11, 69, 75
12, 1624140, Note_off_c, 11, 69, 64
12, 1624140, Note_on_c, 11, 69, 75
12, 1624260, Note_off_c, 11, 69, 64
12, 1624260, Note_on_c, 11, 67, 75
12, 1624380, Note_off_c, 11, 67, 64
12, 1624380, Note_on_c, 11, 65, 75
12, 1624500, Note_off_c, 11, 65, 64
12, 1624500, Note_on_c, 11, 67, 75
12, 1624620, Note_off_c, 11, 67, 64
12, 1624620, Note_on_c, 11, 62, 75
12, 1624740, Note_off_c, 11, 62, 64
12, 1624740, Note_on_c, 11, 67, 75
12, 1624860, Note_off_c, 11, 67, 64
12, 1624860, Note_on_c, 11, 65, 75
12, 1624980, Note_off_c, 11, 65, 64
12, 1624980, Note_on_c, 11, 64, 76
12, 1625100, Note_off_c, 11, 64, 64
12, 1625100, Note_on_c, 11, 62, 77
12, 1625220, Note_off_c, 11, 62, 64
12, 1625220, Note_on_c, 11, 64, 78
12, 1625340, Note_off_c, 11, 64, 64
12, 1625340, Note_on_c, 11, 60, 79
12, 1625460, Note_off_c, 11, 60, 64
12, 1625460, Note_on_c, 11, 64, 80
12, 1625580, Note_off_c, 11, 64, 64
12, 1625580, Note_on_c, 11, 60, 81
12, 1625700, Note_off_c, 11, 60, 64
12, 1625700, Note_on_c, 11, 65, 82
12, 1625820, Note_off_c, 11, 65, 64
12, 1625820, Note_on_c, 11, 60, 83
12, 1625940, Note_off_c, 11, 60, 64
12, 1625940, Note_on_c, 11, 58, 84
12, 1626060, Note_off_c, 11, 58, 64
12, 1626060, Note_on_c, 11, 57, 85
12, 1626180, Note_off_c, 11, 57, 64
12, 1626180, Note_on_c, 11, 58, 86
12, 1626300, Note_off_c, 11, 58, 64
12, 1626300, Note_on_c, 11, 60, 87
12, 1626420, Note_off_c, 11, 60, 64
12, 1626420, Note_on_c, 11, 62, 88
12, 1626540, Note_off_c, 11, 62, 64
12, 1626540, Note_on_c, 11, 64, 89
12, 1626660, Note_off_c, 11, 64, 64
12, 1626660, Note_on_c, 11, 65, 90
12, 1626780, Note_off_c, 11, 65, 64
12, 1626780, Note_on_c, 11, 67, 91
12, 1626900, Note_off_c, 11, 67, 64
12, 1626900, Note_on_c, 11, 69, 92
12, 1627015, Note_off_c, 11, 69, 64
12, 1627020, Program_c, 11, 48
12, 1627020, Note_on_c, 11, 72, 92
12, 1627020, Note_on_c, 11, 81, 92
12, 1627095, Note_off_c, 11, 81, 64
12, 1627095, Note_off_c, 11, 72, 64
12, 1627100, Note_on_c, 11, 72, 92
12, 1627100, Note_on_c, 11, 81, 92
12, 1627175, Note_off_c, 11, 81, 64
12, 1627175, Note_off_c, 11, 72, 64
12, 1627180, Note_on_c, 11, 72, 92
12, 1627180, Note_on_c, 11, 81, 92
12, 1627255, Note_off_c, 11, 81, 64
12, 1627255, Note_off_c, 11, 72, 64
12, 1627260, Note_on_c, 11, 72, 92
12, 1627260, Note_on_c, 11, 81, 92
12, 1627335, Note_off_c, 11, 81, 64
12, 1627335, Note_off_c, 11, 72, 64
12, 1627340, Note_on_c, 11, 72, 92
12, 1627340, Note_on_c, 11, 81, 92
12, 1627415, Note_off_c, 11, 81, 64
12, 1627415, Note_off_c, 11, 72, 64
12, 1627420, Note_on_c, 11, 72, 92
12, 1627420, Note_on_c, 11, 81, 92
12, 1627495, Note_off_c, 11, 81, 64
12, 1627495, Note_off_c, 11, 72, 64
12, 1627500, Note_on_c, 11, 72, 92
12, 1627500, Note_on_c, 11, 81, 92
12, 1627575, Note_off_c, 11, 81, 64
12, 1627575, Note_off_c, 11, 72, 64
12, 1627580, Note_on_c, 11, 72, 92
12, 1627580, Note_on_c, 11, 81, 92
12, 1627655, Note_off_c, 11, 81, 64
12, 1627655, Note_off_c, 11, 72, 64
12, 1627660, Note_on_c, 11, 72, 92
12, 1627660, Note_on_c, 11, 81, 92
12, 1627735, Note_off_c, 11, 81, 64
12, 1627735, Note_off_c, 11, 72, 64
12, 1627740, Note_on_c, 11, 72, 92
12, 1627740, Note_on_c, 11, 81, 92
12, 1627815, Note_off_c, 11, 81, 64
12, 1627815, Note_off_c, 11, 72, 64
12, 1627820, Note_on_c, 11, 72, 92
12, 1627820, Note_on_c, 11, 81, 92
12, 1627895, Note_off_c, 11, 81, 64
12, 1627895, Note_off_c, 11, 72, 64
12, 1627900, Note_on_c, 11, 72, 92
12, 1627900, Note_on_c, 11, 81, 92
12, 1627975, Note_off_c, 11, 81, 64
12, 1627975, Note_off_c, 11, 72, 64
12, 1627980, Note_on_c, 11, 72, 92
12, 1627980, Note_on_c, 11, 81, 92
12, 1628055, Note_off_c, 11, 81, 64
12, 1628055, Note_off_c, 11, 72, 64
12, 1628060, Note_on_c, 11, 72, 92
12, 1628060, Note_on_c, 11, 81, 92
12, 1628135, Note_off_c, 11, 81, 64
12, 1628135, Note_off_c, 11, 72, 64
12, 1628140, Note_on_c, 11, 72, 92
12, 1628140, Note_on_c, 11, 81, 92
12, 1628215, Note_off_c, 11, 81, 64
12, 1628215, Note_off_c, 11, 72, 64
12, 1628220, Note_on_c, 11, 72, 92
12, 1628220, Note_on_c, 11, 81, 92
12, 1628295, Note_off_c, 11, 81, 64
12, 1628295, Note_off_c, 11, 72, 64
12, 1628300, Note_on_c, 11, 72, 92
12, 1628300, Note_on_c, 11, 81, 92
12, 1628375, Note_off_c, 11, 81, 64
12, 1628375, Note_off_c, 11, 72, 64
12, 1628380, Note_on_c, 11, 72, 92
12, 1628380, Note_on_c, 11, 81, 92
12, 1628455, Note_off_c, 11, 81, 64
12, 1628455, Note_off_c, 11, 72, 64
12, 1628460, Note_on_c, 11, 72, 92
12, 1628460, Note_on_c, 11, 81, 92
12, 1628535, Note_off_c, 11, 81, 64
12, 1628535, Note_off_c, 11, 72, 64
12, 1628540, Note_on_c, 11, 72, 92
12, 1628540, Note_on_c, 11, 81, 92
12, 1628615, Note_off_c, 11, 81, 64
12, 1628615, Note_off_c, 11, 72, 64
12, 1628620, Note_on_c, 11, 72, 92
12, 1628620, Note_on_c, 11, 81, 92
12, 1628695, Note_off_c, 11, 81, 64
12, 1628695, Note_off_c, 11, 72, 64
12, 1628700, Note_on_c, 11, 72, 92
12, 1628700, Note_on_c, 11, 81, 92
12, 1628775, Note_off_c, 11, 81, 64
12, 1628775, Note_off_c, 11, 72, 64
12, 1628780, Note_on_c, 11, 72, 92
12, 1628780, Note_on_c, 11, 81, 92
12, 1628855, Note_off_c, 11, 81, 64
12, 1628855, Note_off_c, 11, 72, 64
12, 1628860, Note_on_c, 11, 72, 92
12, 1628860, Note_on_c, 11, 81, 92
12, 1628935, Note_off_c, 11, 81, 64
12, 1628935, Note_off_c, 11, 72, 64
12, 1628940, Note_on_c, 11, 72, 92
12, 1628940, Note_on_c, 11, 81, 92
12, 1629015, Note_off_c, 11, 81, 64
12, 1629015, Note_off_c, 11, 72, 64
12, 1629020, Note_on_c, 11, 72, 92
12, 1629020, Note_on_c, 11, 81, 92
12, 1629095, Note_off_c, 11, 81, 64
12, 1629095, Note_off_c, 11, 72, 64
12, 1629100, Note_on_c, 11, 72, 92
12, 1629100, Note_on_c, 11, 81, 92
12, 1629175, Note_off_c, 11, 81, 64
12, 1629175, Note_off_c, 11, 72, 64
12, 1629180, Note_on_c, 11, 72, 92
12, 1629180, Note_on_c, 11, 81, 92
12, 1629255, Note_off_c, 11, 81, 64
12, 1629255, Note_off_c, 11, 72, 64
12, 1629260, Note_on_c, 11, 72, 92
12, 1629260, Note_on_c, 11, 81, 92
12, 1629335, Note_off_c, 11, 81, 64
12, 1629335, Note_off_c, 11, 72, 64
12, 1629340, Note_on_c, 11, 72, 92
12, 1629340, Note_on_c, 11, 81, 92
12, 1629415, Note_off_c, 11, 81, 64
12, 1629415, Note_off_c, 11, 72, 64
12, 1629420, Note_on_c, 11, 72, 92
12, 1629420, Note_on_c, 11, 81, 92
12, 1629495, Note_off_c, 11, 81, 64
12, 1629495, Note_off_c, 11, 72, 64
12, 1629500, Note_on_c, 11, 72, 92
12, 1629500, Note_on_c, 11, 81, 92
12, 1629575, Note_off_c, 11, 81, 64
12, 1629575, Note_off_c, 11, 72, 64
12, 1629580, Note_on_c, 11, 72, 92
12, 1629580, Note_on_c, 11, 81, 92
12, 1629655, Note_off_c, 11, 81, 64
12, 1629655, Note_off_c, 11, 72, 64
12, 1629660, Note_on_c, 11, 72, 92
12, 1629735, Note_off_c, 11, 72, 64
12, 1629740, Note_on_c, 11, 72, 92
12, 1629815, Note_off_c, 11, 72, 64
12, 1629820, Note_on_c, 11, 72, 92
12, 1629895, Note_off_c, 11, 72, 64
12, 1629900, Note_on_c, 11, 72, 92
12, 1629900, Note_on_c, 11, 81, 92
12, 1629975, Note_off_c, 11, 81, 64
12, 1629975, Note_off_c, 11, 72, 64
12, 1629980, Note_on_c, 11, 72, 92
12, 1629980, Note_on_c, 11, 81, 92
12, 1630055, Note_off_c, 11, 81, 64
12, 1630055, Note_off_c, 11, 72, 64
12, 1630060, Note_on_c, 11, 72, 92
12, 1630060, Note_on_c, 11, 81, 92
12, 1630135, Note_off_c, 11, 81, 64
12, 1630135, Note_off_c, 11, 72, 64
12, 1630140, Note_on_c, 11, 72, 92
12, 1630140, Note_on_c, 11, 81, 92
12, 1630215, Note_off_c, 11, 81, 64
12, 1630215, Note_off_c, 11, 72, 64
12, 1630220, Note_on_c, 11, 72, 92
12, 1630220, Note_on_c, 11, 81, 92
12, 1630295, Note_off_c, 11, 81, 64
12, 1630295, Note_off_c, 11, 72, 64
12, 1630300, Note_on_c, 11, 72, 92
12, 1630300, Note_on_c, 11, 81, 92
12, 1630375, Note_off_c, 11, 81, 64
12, 1630375, Note_off_c, 11, 72, 64
12, 1630380, Note_on_c, 11, 72, 92
12, 1630380, Note_on_c, 11, 81, 92
12, 1630455, Note_off_c, 11, 81, 64
12, 1630455, Note_off_c, 11, 72, 64
12, 1630460, Note_on_c, 11, 72, 92
12, 1630460, Note_on_c, 11, 81, 92
12, 1630535, Note_off_c, 11, 81, 64
12, 1630535, Note_off_c, 11, 72, 64
12, 1630540, Note_on_c, 11, 72, 92
12, 1630540, Note_on_c, 11, 81, 92
12, 1630615, Note_off_c, 11, 81, 64
12, 1630615, Note_off_c, 11, 72, 64
12, 1630620, Note_on_c, 11, 72, 92
12, 1630620, Note_on_c, 11, 81, 92
12, 1630695, Note_off_c, 11, 81, 64
12, 1630695, Note_off_c, 11, 72, 64
12, 1630700, Note_on_c, 11, 72, 92
12, 1630700, Note_on_c, 11, 81, 92
12, 1630775, Note_off_c, 11, 81, 64
12, 1630775, Note_off_c, 11, 72, 64
12, 1630780, Note_on_c, 11, 72, 92
12, 1630780, Note_on_c, 11, 81, 92
12, 1630855, Note_off_c, 11, 81, 64
12, 1630855, Note_off_c, 11, 72, 64
12, 1630860, Note_on_c, 11, 72, 92
12, 1630860, Note_on_c, 11, 81, 92
12, 1630935, Note_off_c, 11, 81, 64
12, 1630935, Note_off_c, 11, 72, 64
12, 1630940, Note_on_c, 11, 72, 92
12, 1630940, Note_on_c, 11, 81, 92
12, 1631015, Note_off_c, 11, 81, 64
12, 1631015, Note_off_c, 11, 72, 64
12, 1631020, Note_on_c, 11, 72, 92
12, 1631020, Note_on_c, 11, 81, 92
12, 1631095, Note_off_c, 11, 81, 64
12, 1631095, Note_off_c, 11, 72, 64
12, 1631100, Note_on_c, 11, 72, 92
12, 1631100, Note_on_c, 11, 81, 92
12, 1631175, Note_off_c, 11, 81, 64
12, 1631175, Note_off_c, 11, 72, 64
12, 1631180, Note_on_c, 11, 72, 92
12, 1631180, Note_on_c, 11, 81, 92
12, 1631255, Note_off_c, 11, 81, 64
12, 1631255, Note_off_c, 11, 72, 64
12, 1631260, Note_on_c, 11, 72, 92
12, 1631260, Note_on_c, 11, 81, 92
12, 1631335, Note_off_c, 11, 81, 64
12, 1631335, Note_off_c, 11, 72, 64
12, 1631340, Note_on_c, 11, 74, 92
12, 1631415, Note_off_c, 11, 74, 64
12, 1631420, Note_on_c, 11, 74, 92
12, 1631420, Note_on_c, 11, 82, 92
12, 1631495, Note_off_c, 11, 82, 64
12, 1631495, Note_off_c, 11, 74, 64
12, 1631500, Note_on_c, 11, 74, 92
12, 1631500, Note_on_c, 11, 82, 92
12, 1631575, Note_off_c, 11, 82, 64
12, 1631575, Note_off_c, 11, 74, 64
12, 1631580, Note_on_c, 11, 74, 92
12, 1631580, Note_on_c, 11, 82, 92
12, 1631655, Note_off_c, 11, 82, 64
12, 1631655, Note_off_c, 11, 74, 64
12, 1631660, Note_on_c, 11, 74, 92
12, 1631660, Note_on_c, 11, 82, 92
12, 1631735, Note_off_c, 11, 82, 64
12, 1631735, Note_off_c, 11, 74, 64
12, 1631740, Note_on_c, 11, 74, 92
12, 1631740, Note_on_c, 11, 82, 92
12, 1631815, Note_off_c, 11, 82, 64
12, 1631815, Note_off_c, 11, 74, 64
12, 1631820, Note_on_c, 11, 74, 92
12, 1631820, Note_on_c, 11, 82, 92
12, 1631895, Note_off_c, 11, 82, 64
12, 1631895, Note_off_c, 11, 74, 64
12, 1631900, Note_on_c, 11, 74, 92
12, 1631900, Note_on_c, 11, 82, 92
12, 1631975, Note_off_c, 11, 82, 64
12, 1631975, Note_off_c, 11, 74, 64
12, 1631980, Note_on_c, 11, 74, 92
12, 1631980, Note_on_c, 11, 82, 92
12, 1632055, Note_off_c, 11, 82, 64
12, 1632055, Note_off_c, 11, 74, 64
12, 1632060, Note_on_c, 11, 74, 92
12, 1632060, Note_on_c, 11, 82, 92
12, 1632135, Note_off_c, 11, 82, 64
12, 1632135, Note_off_c, 11, 74, 64
12, 1632140, Note_on_c, 11, 74, 92
12, 1632140, Note_on_c, 11, 82, 92
12, 1632215, Note_off_c, 11, 82, 64
12, 1632215, Note_off_c, 11, 74, 64
12, 1632220, Note_on_c, 11, 74, 92
12, 1632220, Note_on_c, 11, 82, 92
12, 1632295, Note_off_c, 11, 82, 64
12, 1632295, Note_off_c, 11, 74, 64
12, 1632300, Note_on_c, 11, 74, 92
12, 1632300, Note_on_c, 11, 82, 92
12, 1632375, Note_off_c, 11, 82, 64
12, 1632375, Note_off_c, 11, 74, 64
12, 1632380, Note_on_c, 11, 74, 92
12, 1632380, Note_on_c, 11, 82, 92
12, 1632455, Note_off_c, 11, 82, 64
12, 1632455, Note_off_c, 11, 74, 64
12, 1632460, Note_on_c, 11, 74, 92
12, 1632460, Note_on_c, 11, 82, 92
12, 1632535, Note_off_c, 11, 82, 64
12, 1632535, Note_off_c, 11, 74, 64
12, 1632540, Note_on_c, 11, 74, 92
12, 1632540, Note_on_c, 11, 82, 92
12, 1632615, Note_off_c, 11, 82, 64
12, 1632615, Note_off_c, 11, 74, 64
12, 1632620, Note_on_c, 11, 74, 92
12, 1632620, Note_on_c, 11, 82, 92
12, 1632695, Note_off_c, 11, 82, 64
12, 1632695, Note_off_c, 11, 74, 64
12, 1632700, Note_on_c, 11, 74, 92
12, 1632700, Note_on_c, 11, 82, 92
12, 1632775, Note_off_c, 11, 82, 64
12, 1632775, Note_off_c, 11, 74, 64
12, 1632780, Note_on_c, 11, 72, 92
12, 1632780, Note_on_c, 11, 82, 92
12, 1632855, Note_off_c, 11, 82, 64
12, 1632855, Note_off_c, 11, 72, 64
12, 1632860, Note_on_c, 11, 72, 92
12, 1632860, Note_on_c, 11, 82, 92
12, 1632935, Note_off_c, 11, 82, 64
12, 1632935, Note_off_c, 11, 72, 64
12, 1632940, Note_on_c, 11, 72, 92
12, 1632940, Note_on_c, 11, 82, 92
12, 1633015, Note_off_c, 11, 82, 64
12, 1633015, Note_off_c, 11, 72, 64
12, 1633020, Note_on_c, 11, 72, 92
12, 1633020, Note_on_c, 11, 82, 92
12, 1633095, Note_off_c, 11, 82, 64
12, 1633095, Note_off_c, 11, 72, 64
12, 1633100, Note_on_c, 11, 72, 92
12, 1633100, Note_on_c, 11, 82, 92
12, 1633175, Note_off_c, 11, 82, 64
12, 1633175, Note_off_c, 11, 72, 64
12, 1633180, Note_on_c, 11, 72, 92
12, 1633180, Note_on_c, 11, 82, 92
12, 1633255, Note_off_c, 11, 82, 64
12, 1633255, Note_off_c, 11, 72, 64
12, 1633260, Note_on_c, 11, 72, 92
12, 1633260, Note_on_c, 11, 82, 92
12, 1633335, Note_off_c, 11, 82, 64
12, 1633335, Note_off_c, 11, 72, 64
12, 1633340, Note_on_c, 11, 72, 92
12, 1633340, Note_on_c, 11, 82, 92
12, 1633415, Note_off_c, 11, 82, 64
12, 1633415, Note_off_c, 11, 72, 64
12, 1633420, Note_on_c, 11, 72, 92
12, 1633420, Note_on_c, 11, 82, 92
12, 1633495, Note_off_c, 11, 82, 64
12, 1633495, Note_off_c, 11, 72, 64
12, 1633500, Note_on_c, 11, 72, 92
12, 1633500, Note_on_c, 11, 82, 92
12, 1633575, Note_off_c, 11, 82, 64
12, 1633575, Note_off_c, 11, 72, 64
12, 1633580, Note_on_c, 11, 72, 92
12, 1633580, Note_on_c, 11, 82, 92
12, 1633655, Note_off_c, 11, 82, 64
12, 1633655, Note_off_c, 11, 72, 64
12, 1633660, Note_on_c, 11, 72, 92
12, 1633660, Note_on_c, 11, 82, 92
12, 1633735, Note_off_c, 11, 82, 64
12, 1633735, Note_off_c, 11, 72, 64
12, 1633740, Note_on_c, 11, 72, 92
12, 1633740, Note_on_c, 11, 82, 92
12, 1633815, Note_off_c, 11, 82, 64
12, 1633815, Note_off_c, 11, 72, 64
12, 1633820, Note_on_c, 11, 72, 92
12, 1633820, Note_on_c, 11, 82, 92
12, 1633895, Note_off_c, 11, 82, 64
12, 1633895, Note_off_c, 11, 72, 64
12, 1633900, Note_on_c, 11, 72, 92
12, 1633900, Note_on_c, 11, 82, 92
12, 1633975, Note_off_c, 11, 82, 64
12, 1633975, Note_off_c, 11, 72, 64
12, 1633980, Note_on_c, 11, 76, 92
12, 1634055, Note_off_c, 11, 76, 64
12, 1634060, Note_on_c, 11, 76, 92
12, 1634135, Note_off_c, 11, 76, 64
12, 1634140, Note_on_c, 11, 76, 92
12, 1634215, Note_off_c, 11, 76, 64
12, 1634220, Note_on_c, 11, 69, 92
12, 1634220, Note_on_c, 11, 81, 92
12, 1634295, Note_off_c, 11, 81, 64
12, 1634295, Note_off_c, 11, 69, 64
12, 1634300, Note_on_c, 11, 69, 92
12, 1634300, Note_on_c, 11, 81, 92
12, 1634375, Note_off_c, 11, 81, 64
12, 1634375, Note_off_c, 11, 69, 64
12, 1634380, Note_on_c, 11, 69, 92
12, 1634380, Note_on_c, 11, 81, 92
12, 1634455, Note_off_c, 11, 81, 64
12, 1634455, Note_off_c, 11, 69, 64
12, 1634460, Note_on_c, 11, 69, 92
12, 1634460, Note_on_c, 11, 81, 92
12, 1634535, Note_off_c, 11, 81, 64
12, 1634535, Note_off_c, 11, 69, 64
12, 1634540, Note_on_c, 11, 69, 92
12, 1634540, Note_on_c, 11, 81, 92
12, 1634615, Note_off_c, 11, 81, 64
12, 1634615, Note_off_c, 11, 69, 64
12, 1634620, Note_on_c, 11, 69, 92
12, 1634620, Note_on_c, 11, 81, 92
12, 1634695, Note_off_c, 11, 81, 64
12, 1634695, Note_off_c, 11, 69, 64
12, 1634700, Note_on_c, 11, 69, 92
12, 1634700, Note_on_c, 11, 81, 92
12, 1634775, Note_off_c, 11, 81, 64
12, 1634775, Note_off_c, 11, 69, 64
12, 1634780, Note_on_c, 11, 69, 92
12, 1634780, Note_on_c, 11, 81, 92
12, 1634855, Note_off_c, 11, 81, 64
12, 1634855, Note_off_c, 11, 69, 64
12, 1634860, Note_on_c, 11, 69, 92
12, 1634860, Note_on_c, 11, 81, 92
12, 1634935, Note_off_c, 11, 81, 64
12, 1634935, Note_off_c, 11, 69, 64
12, 1634940, Note_on_c, 11, 69, 92
12, 1634940, Note_on_c, 11, 81, 92
12, 1635015, Note_off_c, 11, 81, 64
12, 1635015, Note_off_c, 11, 69, 64
12, 1635020, Note_on_c, 11, 69, 92
12, 1635020, Note_on_c, 11, 81, 92
12, 1635095, Note_off_c, 11, 81, 64
12, 1635095, Note_off_c, 11, 69, 64
12, 1635100, Note_on_c, 11, 69, 92
12, 1635100, Note_on_c, 11, 81, 92
12, 1635175, Note_off_c, 11, 81, 64
12, 1635175, Note_off_c, 11, 69, 64
12, 1635180, Note_on_c, 11, 69, 92
12, 1635180, Note_on_c, 11, 81, 92
12, 1635255, Note_off_c, 11, 81, 64
12, 1635255, Note_off_c, 11, 69, 64
12, 1635260, Note_on_c, 11, 69, 92
12, 1635260, Note_on_c, 11, 81, 92
12, 1635335, Note_off_c, 11, 81, 64
12, 1635335, Note_off_c, 11, 69, 64
12, 1635340, Note_on_c, 11, 69, 92
12, 1635340, Note_on_c, 11, 81, 92
12, 1635415, Note_off_c, 11, 81, 64
12, 1635415, Note_off_c, 11, 69, 64
12, 1635420, Note_on_c, 11, 69, 92
12, 1635420, Note_on_c, 11, 81, 92
12, 1635495, Note_off_c, 11, 81, 64
12, 1635495, Note_off_c, 11, 69, 64
12, 1635500, Note_on_c, 11, 69, 92
12, 1635500, Note_on_c, 11, 81, 92
12, 1635575, Note_off_c, 11, 81, 64
12, 1635575, Note_off_c, 11, 69, 64
12, 1635580, Note_on_c, 11, 69, 92
12, 1635580, Note_on_c, 11, 81, 92
12, 1635655, Note_off_c, 11, 81, 64
12, 1635655, Note_off_c, 11, 69, 64
12, 1635660, Note_on_c, 11, 74, 92
12, 1635660, Note_on_c, 11, 77, 92
12, 1635735, Note_off_c, 11, 77, 64
12, 1635735, Note_off_c, 11, 74, 64
12, 1635740, Note_on_c, 11, 79, 92
12, 1635815, Note_off_c, 11, 79, 64
12, 1635820, Note_on_c, 11, 79, 92
12, 1635895, Note_off_c, 11, 79, 64
12, 1635900, Note_on_c, 11, 79, 92
12, 1635975, Note_off_c, 11, 79, 64
12, 1635980, Note_on_c, 11, 79, 92
12, 1636055, Note_off_c, 11, 79, 64
12, 1636060, Note_on_c, 11, 79, 92
12, 1636135, Note_off_c, 11, 79, 64
12, 1636140, Note_on_c, 11, 79, 92
12, 1636215, Note_off_c, 11, 79, 64
12, 1636220, Note_on_c, 11, 79, 92
12, 1636295, Note_off_c, 11, 79, 64
12, 1636300, Note_on_c, 11, 79, 92
12, 1636375, Note_off_c, 11, 79, 64
12, 1636380, Note_on_c, 11, 70, 92
12, 1636380, Note_on_c, 11, 79, 92
12, 1636455, Note_off_c, 11, 79, 64
12, 1636455, Note_off_c, 11, 70, 64
12, 1636460, Note_on_c, 11, 70, 92
12, 1636460, Note_on_c, 11, 79, 92
12, 1636535, Note_off_c, 11, 79, 64
12, 1636535, Note_off_c, 11, 70, 64
12, 1636540, Note_on_c, 11, 70, 92
12, 1636540, Note_on_c, 11, 79, 92
12, 1636615, Note_off_c, 11, 79, 64
12, 1636615, Note_off_c, 11, 70, 64
12, 1636620, Note_on_c, 11, 70, 92
12, 1636620, Note_on_c, 11, 79, 92
12, 1636695, Note_off_c, 11, 79, 64
12, 1636695, Note_off_c, 11, 70, 64
12, 1636700, Note_on_c, 11, 70, 92
12, 1636700, Note_on_c, 11, 79, 92
12, 1636775, Note_off_c, 11, 79, 64
12, 1636775, Note_off_c, 11, 70, 64
12, 1636780, Note_on_c, 11, 70, 92
12, 1636780, Note_on_c, 11, 79, 92
12, 1636855, Note_off_c, 11, 79, 64
12, 1636855, Note_off_c, 11, 70, 64
12, 1636860, Note_on_c, 11, 70, 92
12, 1636860, Note_on_c, 11, 79, 92
12, 1636935, Note_off_c, 11, 79, 64
12, 1636935, Note_off_c, 11, 70, 64
12, 1636940, Note_on_c, 11, 70, 92
12, 1636940, Note_on_c, 11, 79, 92
12, 1637015, Note_off_c, 11, 79, 64
12, 1637015, Note_off_c, 11, 70, 64
12, 1637020, Note_on_c, 11, 70, 92
12, 1637020, Note_on_c, 11, 79, 92
12, 1637095, Note_off_c, 11, 79, 64
12, 1637095, Note_off_c, 11, 70, 64
12, 1637100, Program_c, 11, 48
12, 1637100, Note_on_c, 11, 69, 60
12, 1637100, Note_on_c, 11, 77, 60
12, 1637220, Note_off_c, 11, 77, 64
12, 1637220, Note_off_c, 11, 69, 64
12, 1637220, Note_on_c, 11, 60, 60
12, 1637340, Note_off_c, 11, 60, 64
12, 1637340, Note_on_c, 11, 65, 60
12, 1637460, Note_off_c, 11, 65, 64
12, 1637460, Note_on_c, 11, 60, 60
12, 1637580, Note_off_c, 11, 60, 64
12, 1637580, Note_on_c, 11, 57, 60
12, 1637700, Note_off_c, 11, 57, 64
12, 1637700, Note_on_c, 11, 60, 60
12, 1637815, Note_off_c, 11, 60, 64
12, 1637820, Note_on_c, 11, 58, 60
12, 1637940, Note_off_c, 11, 58, 64
12, 1637940, Note_on_c, 11, 60, 60
12, 1638060, Note_off_c, 11, 60, 64
12, 1638060, Note_on_c, 11, 64, 60
12, 1638180, Note_off_c, 11, 64, 64
12, 1638180, Note_on_c, 11, 60, 60
12, 1638300, Note_off_c, 11, 60, 64
12, 1638300, Note_on_c, 11, 58, 60
12, 1638420, Note_off_c, 11, 58, 64
12, 1638420, Note_on_c, 11, 60, 60
12, 1638535, Note_off_c, 11, 60, 64
12, 1638540, Note_on_c, 11, 57, 60
12, 1638660, Note_off_c, 11, 57, 64
12, 1638660, Note_on_c, 11, 60, 60
12, 1638780, Note_off_c, 11, 60, 64
12, 1638780, Note_on_c, 11, 65, 60
12, 1638900, Note_off_c, 11, 65, 64
12, 1638900, Note_on_c, 11, 60, 60
12, 1639020, Note_off_c, 11, 60, 64
12, 1639020, Note_on_c, 11, 57, 60
12, 1639140, Note_off_c, 11, 57, 64
12, 1639140, Note_on_c, 11, 60, 60
12, 1639255, Note_off_c, 11, 60, 64
12, 1639260, Note_on_c, 11, 52, 60
12, 1639380, Note_off_c, 11, 52, 64
12, 1639380, Note_on_c, 11, 60, 60
12, 1639500, Note_off_c, 11, 60, 64
12, 1639500, Note_on_c, 11, 64, 60
12, 1639620, Note_off_c, 11, 64, 64
12, 1639620, Note_on_c, 11, 60, 60
12, 1639740, Note_off_c, 11, 60, 64
12, 1639740, Note_on_c, 11, 64, 60
12, 1639860, Note_off_c, 11, 64, 64
12, 1639860, Note_on_c, 11, 67, 60
12, 1639975, Note_off_c, 11, 67, 64
12, 1639980, Note_on_c, 11, 60, 60
12, 1639980, Note_on_c, 11, 69, 60
12, 1640380, Note_off_c, 11, 69, 64
12, 1640380, Note_off_c, 11, 60, 64
12, 1642380, Note_on_c, 11, 58, 60
12, 1642500, Note_off_c, 11, 58, 64
12, 1642500, Note_on_c, 11, 60, 60
12, 1642620, Note_off_c, 11, 60, 64
12, 1642620, Note_on_c, 11, 58, 60
12, 1642740, Note_off_c, 11, 58, 64
12, 1642740, Note_on_c, 11, 60, 60
12, 1642860, Note_off_c, 11, 60, 64
12, 1642860, Note_on_c, 11, 57, 60
12, 1642980, Note_off_c, 11, 57, 64
12, 1642980, Note_on_c, 11, 60, 60
12, 1643100, Note_off_c, 11, 60, 64
12, 1643100, Note_on_c, 11, 65, 60
12, 1643220, Note_off_c, 11, 65, 64
12, 1643220, Note_on_c, 11, 60, 60
12, 1643340, Note_off_c, 11, 60, 64
12, 1643340, Note_on_c, 11, 57, 60
12, 1643460, Note_off_c, 11, 57, 64
12, 1643460, Note_on_c, 11, 60, 60
12, 1643580, Note_off_c, 11, 60, 64
12, 1643580, Note_on_c, 11, 58, 60
12, 1643700, Note_off_c, 11, 58, 64
12, 1643700, Note_on_c, 11, 60, 60
12, 1643820, Note_off_c, 11, 60, 64
12, 1643820, Note_on_c, 11, 64, 60
12, 1643940, Note_off_c, 11, 64, 64
12, 1643940, Note_on_c, 11, 60, 60
12, 1644060, Note_off_c, 11, 60, 64
12, 1644060, Note_on_c, 11, 58, 60
12, 1644180, Note_off_c, 11, 58, 64
12, 1644180, Note_on_c, 11, 60, 60
12, 1644300, Note_off_c, 11, 60, 64
12, 1644300, Note_on_c, 11, 57, 60
12, 1644420, Note_off_c, 11, 57, 64
12, 1644420, Note_on_c, 11, 60, 60
12, 1644540, Note_off_c, 11, 60, 64
12, 1644540, Note_on_c, 11, 65, 60
12, 1644660, Note_off_c, 11, 65, 64
12, 1644660, Note_on_c, 11, 57, 60
12, 1644780, Note_off_c, 11, 57, 64
12, 1644780, Note_on_c, 11, 65, 60
12, 1644900, Note_off_c, 11, 65, 64
12, 1644900, Note_on_c, 11, 57, 60
12, 1645020, Note_off_c, 11, 57, 64
12, 1645020, Note_on_c, 11, 65, 60
12, 1645140, Note_off_c, 11, 65, 64
12, 1645140, Note_on_c, 11, 59, 60
12, 1645260, Note_off_c, 11, 59, 64
12, 1645260, Note_on_c, 11, 65, 60
12, 1645380, Note_off_c, 11, 65, 64
12, 1645380, Note_on_c, 11, 59, 60
12, 1645500, Note_off_c, 11, 59, 64
12, 1645500, Note_on_c, 11, 65, 60
12, 1645620, Note_off_c, 11, 65, 64
12, 1645620, Note_on_c, 11, 59, 60
12, 1645740, Note_off_c, 11, 59, 64
12, 1645740, Note_on_c, 11, 65, 60
12, 1645860, Note_off_c, 11, 65, 64
12, 1645860, Note_on_c, 11, 60, 60
12, 1645980, Note_off_c, 11, 60, 64
12, 1645980, Note_on_c, 11, 65, 60
12, 1646100, Note_off_c, 11, 65, 64
12, 1646100, Note_on_c, 11, 60, 60
12, 1646220, Note_off_c, 11, 60, 64
12, 1646220, Note_on_c, 11, 65, 60
12, 1646340, Note_off_c, 11, 65, 64
12, 1646340, Note_on_c, 11, 60, 60
12, 1646460, Note_off_c, 11, 60, 64
12, 1646460, Note_on_c, 11, 65, 60
12, 1646580, Note_off_c, 11, 65, 64
12, 1646580, Note_on_c, 11, 62, 60
12, 1646700, Note_off_c, 11, 62, 64
12, 1646700, Note_on_c, 11, 67, 60
12, 1646820, Note_off_c, 11, 67, 64
12, 1646820, Note_on_c, 11, 62, 60
12, 1646940, Note_off_c, 11, 62, 64
12, 1646940, Note_on_c, 11, 67, 60
12, 1647060, Note_off_c, 11, 67, 64
12, 1647060, Note_on_c, 11, 62, 60
12, 1647180, Note_off_c, 11, 62, 64
12, 1647180, Note_on_c, 11, 67, 60
12, 1647300, Note_off_c, 11, 67, 64
12, 1647300, Note_on_c, 11, 64, 60
12, 1647420, Note_off_c, 11, 64, 64
12, 1647420, Note_on_c, 11, 67, 60
12, 1647540, Note_off_c, 11, 67, 64
12, 1647540, Note_on_c, 11, 64, 60
12, 1647660, Note_off_c, 11, 64, 64
12, 1647660, Note_on_c, 11, 67, 60
12, 1647780, Note_off_c, 11, 67, 64
12, 1647780, Note_on_c, 11, 64, 60
12, 1647900, Note_off_c, 11, 64, 64
12, 1647900, Note_on_c, 11, 67, 60
12, 1648020, Note_off_c, 11, 67, 64
12, 1648020, Note_on_c, 11, 65, 60
12, 1648140, Note_off_c, 11, 65, 64
12, 1648140, Note_on_c, 11, 67, 60
12, 1648260, Note_off_c, 11, 67, 64
12, 1648260, Note_on_c, 11, 65, 60
12, 1648380, Note_off_c, 11, 65, 64
12, 1648380, Note_on_c, 11, 67, 60
12, 1648500, Note_off_c, 11, 67, 64
12, 1648500, Note_on_c, 11, 65, 60
12, 1648620, Note_off_c, 11, 65, 64
12, 1648620, Note_on_c, 11, 67, 60
12, 1648740, Note_off_c, 11, 67, 64
12, 1648740, Note_on_c, 11, 55, 61
12, 1648860, Note_off_c, 11, 55, 64
12, 1648860, Note_on_c, 11, 60, 62
12, 1648980, Note_off_c, 11, 60, 64
12, 1648980, Note_on_c, 11, 55, 63
12, 1649100, Note_off_c, 11, 55, 64
12, 1649100, Note_on_c, 11, 60, 64
12, 1649220, Note_off_c, 11, 60, 64
12, 1649220, Note_on_c, 11, 55, 65
12, 1649340, Note_off_c, 11, 55, 64
12, 1649340, Note_on_c, 11, 60, 66
12, 1649460, Note_off_c, 11, 60, 64
12, 1649460, Note_on_c, 11, 57, 67
12, 1649580, Note_off_c, 11, 57, 64
12, 1649580, Note_on_c, 11, 60, 68
12, 1649700, Note_off_c, 11, 60, 64
12, 1649700, Note_on_c, 11, 57, 69
12, 1649820, Note_off_c, 11, 57, 64
12, 1649820, Note_on_c, 11, 60, 70
12, 1649940, Note_off_c, 11, 60, 64
12, 1649940, Note_on_c, 11, 57, 71
12, 1650060, Note_off_c, 11, 57, 64
12, 1650060, Note_on_c, 11, 60, 72
12, 1650180, Note_off_c, 11, 60, 64
12, 1650180, Note_on_c, 11, 58, 73
12, 1650300, Note_off_c, 11, 58, 64
12, 1650300, Note_on_c, 11, 64, 74
12, 1650420, Note_off_c, 11, 64, 64
12, 1650420, Note_on_c, 11, 55, 75
12, 1650540, Note_off_c, 11, 55, 64
12, 1650540, Note_on_c, 11, 64, 76
12, 1650660, Note_off_c, 11, 64, 64
12, 1650660, Note_on_c, 11, 55, 78
12, 1650780, Note_off_c, 11, 55, 64
12, 1650780, Note_on_c, 11, 65, 80
12, 1650900, Note_off_c, 11, 65, 64
12, 1650900, Note_on_c, 11, 56, 82
12, 1651020, Note_off_c, 11, 56, 64
12, 1651020, Note_on_c, 11, 65, 84
12, 1651140, Note_off_c, 11, 65, 64
12, 1651140, Note_on_c, 11, 56, 86
12, 1651260, Note_off_c, 11, 56, 64
12, 1651260, Note_on_c, 11, 65, 88
12, 1651380, Note_off_c, 11, 65, 64
12, 1651380, Note_on_c, 11, 60, 90
12, 1651495, Note_off_c, 11, 60, 64
12, 1651500, Note_on_c, 11, 57, 92
12, 1651500, Note_on_c, 11, 65, 92
12, 1652140, Note_off_c, 11, 65, 64
12, 1652140, Note_off_c, 11, 57, 64
12, 1652940, Note_on_c, 11, 77, 127
12, 1653340, Note_off_c, 11, 77, 64
12, 1653420, Note_on_c, 11, 77, 127
12, 1653655, Note_off_c, 11, 77, 64
12, 1653660, Note_on_c, 11, 77, 127
12, 1653895, Note_off_c, 11, 77, 64
12, 1653900, Note_on_c, 11, 77, 127
12, 1654135, Note_off_c, 11, 77, 64
12, 1654140, Note_on_c, 11, 77, 127
12, 1654200, Note_off_c, 11, 77, 64
12, 1654200, Note_on_c, 11, 79, 127
12, 1654260, Note_off_c, 11, 79, 64
12, 1654260, Note_on_c, 11, 77, 127
12, 1654320, Note_off_c, 11, 77, 64
12, 1654320, Note_on_c, 11, 79, 127
12, 1654375, Note_off_c, 11, 79, 64
12, 1654380, Note_on_c, 11, 76, 127
12, 1655020, Note_off_c, 11, 76, 64
12, 1655820, Note_on_c, 11, 76, 127
12, 1656220, Note_off_c, 11, 76, 64
12, 1656300, Note_on_c, 11, 76, 127
12, 1656535, Note_off_c, 11, 76, 64
12, 1656540, Note_on_c, 11, 76, 127
12, 1656775, Note_off_c, 11, 76, 64
12, 1656780, Note_on_c, 11, 76, 127
12, 1657015, Note_off_c, 11, 76, 64
12, 1657020, Note_on_c, 11, 76, 127
12, 1657080, Note_off_c, 11, 76, 64
12, 1657080, Note_on_c, 11, 77, 127
12, 1657140, Note_off_c, 11, 77, 64
12, 1657140, Note_on_c, 11, 76, 127
12, 1657200, Note_off_c, 11, 76, 64
12, 1657200, Note_on_c, 11, 77, 127
12, 1657255, Note_off_c, 11, 77, 64
12, 1657260, Note_on_c, 11, 69, 127
12, 1657260, Note_on_c, 11, 77, 127
12, 1657900, Note_off_c, 11, 77, 64
12, 1657900, Note_off_c, 11, 69, 64
12, 1658700, Note_on_c, 11, 69, 127
12, 1658700, Note_on_c, 11, 77, 127
12, 1659100, Note_off_c, 11, 77, 64
12, 1659100, Note_off_c, 11, 69, 64
12, 1659180, Note_on_c, 11, 77, 127
12, 1659415, Note_off_c, 11, 77, 64
12, 1659420, Note_on_c, 11, 77, 127
12, 1659655, Note_off_c, 11, 77, 64
12, 1659660, Note_on_c, 11, 77, 127
12, 1659895, Note_off_c, 11, 77, 64
12, 1659900, Note_on_c, 11, 77, 127
12, 1659960, Note_off_c, 11, 77, 64
12, 1659960, Note_on_c, 11, 79, 127
12, 1660020, Note_off_c, 11, 79, 64
12, 1660020, Note_on_c, 11, 77, 127
12, 1660080, Note_off_c, 11, 77, 64
12, 1660080, Note_on_c, 11, 79, 127
12, 1660135, Note_off_c, 11, 79, 64
12, 1660140, Note_on_c, 11, 67, 127
12, 1660140, Note_on_c, 11, 76, 127
12, 1660780, Note_off_c, 11, 76, 64
12, 1660780, Note_off_c, 11, 67, 64
12, 1661580, Note_on_c, 11, 67, 127
12, 1661580, Note_on_c, 11, 76, 127
12, 1661980, Note_off_c, 11, 76, 64
12, 1661980, Note_off_c, 11, 67, 64
12, 1662060, Note_on_c, 11, 76, 127
12, 1662295, Note_off_c, 11, 76, 64
12, 1662300, Note_on_c, 11, 76, 127
12, 1662535, Note_off_c, 11, 76, 64
12, 1662540, Note_on_c, 11, 76, 127
12, 1662775, Note_off_c, 11, 76, 64
12, 1662780, Note_on_c, 11, 76, 127
12, 1662840, Note_off_c, 11, 76, 64
12, 1662840, Note_on_c, 11, 77, 127
12, 1662900, Note_off_c, 11, 77, 64
12, 1662900, Note_on_c, 11, 76, 127
12, 1662960, Note_off_c, 11, 76, 64
12, 1662960, Note_on_c, 11, 77, 127
12, 1663015, Note_off_c, 11, 77, 64
12, 1663020, Note_on_c, 11, 69, 127
12, 1663020, Note_on_c, 11, 77, 127
12, 1663420, Note_off_c, 11, 77, 64
12, 1663420, Note_off_c, 11, 69, 64
12, 1664220, Note_on_c, 11, 65, 45
12, 1664700, Note_off_c, 11, 65, 64
12, 1664700, Note_on_c, 11, 70, 60
12, 1664940, Note_off_c, 11, 70, 64
12, 1664940, Note_on_c, 11, 69, 76
12, 1665175, Note_off_c, 11, 69, 64
12, 1665180, Note_on_c, 11, 67, 92
12, 1665180, Note_on_c, 11, 70, 92
12, 1665580, Note_off_c, 11, 70, 64
12, 1665580, Note_off_c, 11, 67, 64
12, 1665660, Note_on_c, 11, 67, 92
12, 1665660, Note_on_c, 11, 70, 92
12, 1665895, Note_off_c, 11, 70, 64
12, 1665895, Note_off_c, 11, 67, 64
12, 1665900, Note_on_c, 11, 65, 92
12, 1665900, Note_on_c, 11, 69, 92
12, 1666300, Note_off_c, 11, 69, 64
12, 1666300, Note_off_c, 11, 65, 64
12, 1666380, Note_on_c, 11, 57, 45
12, 1666620, Note_off_c, 11, 57, 64
12, 1666620, Note_on_c, 11, 58, 45
12, 1666860, Note_off_c, 11, 58, 64
12, 1666860, Note_on_c, 11, 57, 45
12, 1667100, Note_off_c, 11, 57, 64
12, 1667100, Note_on_c, 11, 62, 45
12, 1667335, Note_off_c, 11, 62, 64
12, 1667340, Note_on_c, 11, 60, 45
12, 1667580, Note_off_c, 11, 60, 64
12, 1667580, Note_on_c, 11, 70, 66
12, 1667820, Note_off_c, 11, 70, 64
12, 1667820, Note_on_c, 11, 69, 87
12, 1668055, Note_off_c, 11, 69, 64
12, 1668060, Note_on_c, 11, 67, 108
12, 1668060, Note_on_c, 11, 76, 108
12, 1668460, Note_off_c, 11, 76, 64
12, 1668460, Note_off_c, 11, 67, 64
12, 1668540, Note_on_c, 11, 67, 108
12, 1668540, Note_on_c, 11, 76, 108
12, 1668775, Note_off_c, 11, 76, 64
12, 1668775, Note_off_c, 11, 67, 64
12, 1668780, Note_on_c, 11, 69, 108
12, 1668780, Note_on_c, 11, 77, 108
12, 1669500, Note_off_c, 11, 77, 64
12, 1669500, Note_off_c, 11, 69, 64
12, 1669500, Note_on_c, 11, 65, 108
12, 1669500, Note_on_c, 11, 69, 108
12, 1669735, Note_off_c, 11, 69, 64
12, 1669735, Note_off_c, 11, 65, 64
12, 1669980, Note_on_c, 11, 69, 108
12, 1670215, Note_off_c, 11, 69, 64
12, 1670220, Note_on_c, 11, 62, 108
12, 1670220, Note_on_c, 11, 70, 108
12, 1670940, Note_off_c, 11, 70, 64
12, 1670940, Note_on_c, 11, 74, 108
12, 1671175, Note_off_c, 11, 62, 64
12, 1671175, Note_off_c, 11, 74, 64
12, 1671420, Note_on_c, 11, 62, 108
12, 1671420, Note_on_c, 11, 74, 108
12, 1671655, Note_off_c, 11, 74, 64
12, 1671655, Note_off_c, 11, 62, 64
12, 1671660, Note_on_c, 11, 65, 75
12, 1671660, Note_on_c, 11, 69, 75
12, 1672060, Note_off_c, 11, 69, 64
12, 1672060, Note_off_c, 11, 65, 64
12, 1675260, Note_on_c, 11, 57, 45
12, 1676620, Note_off_c, 11, 57, 64
12, 1676700, Note_on_c, 11, 59, 45
12, 1678740, Note_off_c, 11, 59, 64
12, 1678860, Note_on_c, 11, 59, 75
12, 1679580, Note_off_c, 11, 59, 64
12, 1679580, Note_on_c, 11, 55, 75
12, 1680060, Note_off_c, 11, 55, 64
12, 1680060, Note_on_c, 11, 62, 75
12, 1680295, Note_off_c, 11, 62, 64
12, 1680300, Note_on_c, 11, 59, 75
12, 1681020, Note_off_c, 11, 59, 64
12, 1681020, Note_on_c, 11, 55, 75
12, 1681500, Note_off_c, 11, 55, 64
12, 1681500, Note_on_c, 11, 65, 75
12, 1681735, Note_off_c, 11, 65, 64
12, 1681740, Note_on_c, 11, 62, 75
12, 1681980, Note_off_c, 11, 62, 64
12, 1681980, Note_on_c, 11, 59, 75
12, 1682220, Note_off_c, 11, 59, 64
12, 1682220, Note_on_c, 11, 71, 75
12, 1682460, Note_off_c, 11, 71, 64
12, 1682460, Note_on_c, 11, 65, 75
12, 1682700, Note_off_c, 11, 65, 64
12, 1682700, Note_on_c, 11, 62, 75
12, 1682940, Note_off_c, 11, 62, 64
12, 1682940, Note_on_c, 11, 74, 75
12, 1683180, Note_off_c, 11, 74, 64
12, 1683180, Note_on_c, 11, 71, 75
12, 1683420, Note_off_c, 11, 71, 64
12, 1683420, Note_on_c, 11, 65, 76
12, 1683660, Note_off_c, 11, 65, 64
12, 1683660, Note_on_c, 11, 77, 77
12, 1683900, Note_off_c, 11, 77, 64
12, 1683900, Note_on_c, 11, 74, 78
12, 1684140, Note_off_c, 11, 74, 64
12, 1684140, Note_on_c, 11, 71, 79
12, 1684380, Note_off_c, 11, 71, 64
12, 1684380, Note_on_c, 11, 79, 80
12, 1684620, Note_off_c, 11, 79, 64
12, 1684620, Note_on_c, 11, 70, 81
12, 1684620, Note_on_c, 11, 79, 81
12, 1687180, Note_off_c, 11, 79, 64
12, 1687180, Note_off_c, 11, 70, 64
12, 1687260, Note_on_c, 11, 55, 92
12, 1687260, Note_on_c, 11, 64, 92
12, 1687335, Note_off_c, 11, 64, 64
12, 1687335, Note_off_c, 11, 55, 64
12, 1687340, Note_on_c, 11, 55, 92
12, 1687340, Note_on_c, 11, 64, 92
12, 1687415, Note_off_c, 11, 64, 64
12, 1687415, Note_off_c, 11, 55, 64
12, 1687420, Note_on_c, 11, 55, 92
12, 1687420, Note_on_c, 11, 64, 92
12, 1687495, Note_off_c, 11, 64, 64
12, 1687495, Note_off_c, 11, 55, 64
12, 1687500, Note_on_c, 11, 55, 92
12, 1687500, Note_on_c, 11, 64, 92
12, 1687575, Note_off_c, 11, 64, 64
12, 1687575, Note_off_c, 11, 55, 64
12, 1687580, Note_on_c, 11, 55, 92
12, 1687580, Note_on_c, 11, 64, 92
12, 1687655, Note_off_c, 11, 64, 64
12, 1687655, Note_off_c, 11, 55, 64
12, 1687660, Note_on_c, 11, 55, 92
12, 1687660, Note_on_c, 11, 64, 92
12, 1687735, Note_off_c, 11, 64, 64
12, 1687735, Note_off_c, 11, 55, 64
12, 1687740, Note_on_c, 11, 55, 92
12, 1687740, Note_on_c, 11, 64, 92
12, 1687815, Note_off_c, 11, 64, 64
12, 1687815, Note_off_c, 11, 55, 64
12, 1687820, Note_on_c, 11, 55, 92
12, 1687820, Note_on_c, 11, 64, 92
12, 1687895, Note_off_c, 11, 64, 64
12, 1687895, Note_off_c, 11, 55, 64
12, 1687900, Note_on_c, 11, 55, 92
12, 1687900, Note_on_c, 11, 64, 92
12, 1687975, Note_off_c, 11, 64, 64
12, 1687975, Note_off_c, 11, 55, 64
12, 1687980, Note_on_c, 11, 55, 92
12, 1687980, Note_on_c, 11, 64, 92
12, 1688055, Note_off_c, 11, 64, 64
12, 1688055, Note_off_c, 11, 55, 64
12, 1688060, Note_on_c, 11, 55, 92
12, 1688060, Note_on_c, 11, 64, 92
12, 1688135, Note_off_c, 11, 64, 64
12, 1688135, Note_off_c, 11, 55, 64
12, 1688140, Note_on_c, 11, 55, 92
12, 1688140, Note_on_c, 11, 64, 92
12, 1688215, Note_off_c, 11, 64, 64
12, 1688215, Note_off_c, 11, 55, 64
12, 1688220, Note_on_c, 11, 55, 92
12, 1688220, Note_on_c, 11, 64, 92
12, 1688295, Note_off_c, 11, 64, 64
12, 1688295, Note_off_c, 11, 55, 64
12, 1688300, Note_on_c, 11, 55, 92
12, 1688300, Note_on_c, 11, 64, 92
12, 1688375, Note_off_c, 11, 64, 64
12, 1688375, Note_off_c, 11, 55, 64
12, 1688380, Note_on_c, 11, 55, 92
12, 1688380, Note_on_c, 11, 64, 92
12, 1688455, Note_off_c, 11, 64, 64
12, 1688455, Note_off_c, 11, 55, 64
12, 1688460, Note_on_c, 11, 55, 92
12, 1688460, Note_on_c, 11, 64, 92
12, 1688535, Note_off_c, 11, 64, 64
12, 1688535, Note_off_c, 11, 55, 64
12, 1688540, Note_on_c, 11, 55, 92
12, 1688540, Note_on_c, 11, 64, 92
12, 1688615, Note_off_c, 11, 64, 64
12, 1688615, Note_off_c, 11, 55, 64
12, 1688620, Note_on_c, 11, 55, 92
12, 1688620, Note_on_c, 11, 64, 92
12, 1688695, Note_off_c, 11, 64, 64
12, 1688695, Note_off_c, 11, 55, 64
12, 1688700, Note_on_c, 11, 55, 92
12, 1688700, Note_on_c, 11, 64, 92
12, 1688775, Note_off_c, 11, 64, 64
12, 1688775, Note_off_c, 11, 55, 64
12, 1688780, Note_on_c, 11, 55, 92
12, 1688780, Note_on_c, 11, 64, 92
12, 1688855, Note_off_c, 11, 64, 64
12, 1688855, Note_off_c, 11, 55, 64
12, 1688860, Note_on_c, 11, 55, 92
12, 1688860, Note_on_c, 11, 64, 92
12, 1688935, Note_off_c, 11, 64, 64
12, 1688935, Note_off_c, 11, 55, 64
12, 1688940, Note_on_c, 11, 55, 92
12, 1688940, Note_on_c, 11, 64, 92
12, 1689015, Note_off_c, 11, 64, 64
12, 1689015, Note_off_c, 11, 55, 64
12, 1689020, Note_on_c, 11, 55, 92
12, 1689020, Note_on_c, 11, 64, 92
12, 1689095, Note_off_c, 11, 64, 64
12, 1689095, Note_off_c, 11, 55, 64
12, 1689100, Note_on_c, 11, 55, 92
12, 1689100, Note_on_c, 11, 64, 92
12, 1689175, Note_off_c, 11, 64, 64
12, 1689175, Note_off_c, 11, 55, 64
12, 1689180, Note_on_c, 11, 55, 92
12, 1689180, Note_on_c, 11, 64, 92
12, 1689255, Note_off_c, 11, 64, 64
12, 1689255, Note_off_c, 11, 55, 64
12, 1689260, Note_on_c, 11, 55, 92
12, 1689260, Note_on_c, 11, 64, 92
12, 1689335, Note_off_c, 11, 64, 64
12, 1689335, Note_off_c, 11, 55, 64
12, 1689340, Note_on_c, 11, 55, 92
12, 1689340, Note_on_c, 11, 64, 92
12, 1689415, Note_off_c, 11, 64, 64
12, 1689415, Note_off_c, 11, 55, 64
12, 1689420, Note_on_c, 11, 55, 92
12, 1689420, Note_on_c, 11, 64, 92
12, 1689495, Note_off_c, 11, 64, 64
12, 1689495, Note_off_c, 11, 55, 64
12, 1689500, Note_on_c, 11, 55, 92
12, 1689500, Note_on_c, 11, 64, 92
12, 1689575, Note_off_c, 11, 64, 64
12, 1689575, Note_off_c, 11, 55, 64
12, 1689580, Note_on_c, 11, 55, 92
12, 1689580, Note_on_c, 11, 64, 92
12, 1689655, Note_off_c, 11, 64, 64
12, 1689655, Note_off_c, 11, 55, 64
12, 1689660, Note_on_c, 11, 55, 92
12, 1689660, Note_on_c, 11, 64, 92
12, 1689735, Note_off_c, 11, 64, 64
12, 1689735, Note_off_c, 11, 55, 64
12, 1689740, Note_on_c, 11, 55, 92
12, 1689740, Note_on_c, 11, 64, 92
12, 1689815, Note_off_c, 11, 64, 64
12, 1689815, Note_off_c, 11, 55, 64
12, 1689820, Note_on_c, 11, 55, 92
12, 1689820, Note_on_c, 11, 64, 92
12, 1689895, Note_off_c, 11, 64, 64
12, 1689895, Note_off_c, 11, 55, 64
12, 1689900, Note_on_c, 11, 55, 92
12, 1689900, Note_on_c, 11, 64, 92
12, 1689975, Note_off_c, 11, 64, 64
12, 1689975, Note_off_c, 11, 55, 64
12, 1689980, Note_on_c, 11, 55, 92
12, 1689980, Note_on_c, 11, 64, 92
12, 1690055, Note_off_c, 11, 64, 64
12, 1690055, Note_off_c, 11, 55, 64
12, 1690060, Note_on_c, 11, 55, 92
12, 1690060, Note_on_c, 11, 64, 92
12, 1690135, Note_off_c, 11, 64, 64
12, 1690135, Note_off_c, 11, 55, 64
12, 1690140, Note_on_c, 11, 55, 92
12, 1690140, Note_on_c, 11, 64, 92
12, 1690215, Note_off_c, 11, 64, 64
12, 1690215, Note_off_c, 11, 55, 64
12, 1690220, Note_on_c, 11, 55, 92
12, 1690220, Note_on_c, 11, 64, 92
12, 1690295, Note_off_c, 11, 64, 64
12, 1690295, Note_off_c, 11, 55, 64
12, 1690300, Note_on_c, 11, 55, 92
12, 1690300, Note_on_c, 11, 64, 92
12, 1690375, Note_off_c, 11, 64, 64
12, 1690375, Note_off_c, 11, 55, 64
12, 1690380, Note_on_c, 11, 65, 92
12, 1690615, Note_off_c, 11, 65, 64
12, 1699020, Note_on_c, 11, 60, 45
12, 1699260, Note_off_c, 11, 60, 64
12, 1699260, Note_on_c, 11, 66, 45
12, 1699740, Note_off_c, 11, 66, 64
12, 1699740, Note_on_c, 11, 69, 45
12, 1699980, Note_off_c, 11, 69, 64
12, 1699980, Note_on_c, 11, 72, 45
12, 1700460, Note_off_c, 11, 72, 64
12, 1700460, Note_on_c, 11, 69, 45
12, 1700700, Note_off_c, 11, 69, 64
12, 1700700, Note_on_c, 11, 70, 45
12, 1701820, Note_off_c, 11, 70, 64
12, 1701900, Note_on_c, 11, 60, 45
12, 1702140, Note_off_c, 11, 60, 64
12, 1702140, Note_on_c, 11, 64, 45
12, 1702620, Note_off_c, 11, 64, 64
12, 1702620, Note_on_c, 11, 67, 45
12, 1702860, Note_off_c, 11, 67, 64
12, 1702860, Note_on_c, 11, 70, 45
12, 1703340, Note_off_c, 11, 70, 64
12, 1703340, Note_on_c, 11, 67, 45
12, 1703580, Note_off_c, 11, 67, 64
12, 1703580, Note_on_c, 11, 69, 45
12, 1703820, Note_off_c, 11, 69, 64
12, 1703820, Note_on_c, 11, 84, 45
12, 1703900, Note_off_c, 11, 84, 64
12, 1704060, Note_on_c, 11, 84, 45
12, 1704140, Note_off_c, 11, 84, 64
12, 1704300, Note_on_c, 11, 84, 45
12, 1704540, Note_off_c, 11, 84, 64
12, 1704540, Note_on_c, 11, 81, 45
12, 1704775, Note_off_c, 11, 81, 64
12, 1704780, Note_on_c, 11, 81, 45
12, 1704860, Note_off_c, 11, 81, 64
12, 1705020, Note_on_c, 11, 81, 45
12, 1705260, Note_off_c, 11, 81, 64
12, 1705260, Note_on_c, 11, 78, 47
12, 1705495, Note_off_c, 11, 78, 64
12, 1705500, Note_on_c, 11, 78, 49
12, 1705580, Note_off_c, 11, 78, 64
12, 1705740, Note_on_c, 11, 78, 51
12, 1705980, Note_off_c, 11, 78, 64
12, 1705980, Note_on_c, 11, 74, 53
12, 1706215, Note_off_c, 11, 74, 64
12, 1706220, Note_on_c, 11, 74, 55
12, 1706300, Note_off_c, 11, 74, 64
12, 1706460, Note_on_c, 11, 74, 57
12, 1706700, Note_off_c, 11, 74, 64
12, 1706700, Note_on_c, 11, 82, 59
12, 1706935, Note_off_c, 11, 82, 64
12, 1706940, Note_on_c, 11, 82, 62
12, 1707020, Note_off_c, 11, 82, 64
12, 1707180, Note_on_c, 11, 82, 65
12, 1707420, Note_off_c, 11, 82, 64
12, 1707420, Note_on_c, 11, 79, 68
12, 1707655, Note_off_c, 11, 79, 64
12, 1707660, Note_on_c, 11, 79, 71
12, 1707740, Note_off_c, 11, 79, 64
12, 1707900, Note_on_c, 11, 79, 74
12, 1708140, Note_off_c, 11, 79, 64
12, 1708140, Note_on_c, 11, 76, 77
12, 1708375, Note_off_c, 11, 76, 64
12, 1708380, Note_on_c, 11, 76, 80
12, 1708460, Note_off_c, 11, 76, 64
12, 1708620, Note_on_c, 11, 76, 83
12, 1708860, Note_off_c, 11, 76, 64
12, 1708860, Note_on_c, 11, 72, 86
12, 1709100, Note_off_c, 11, 72, 64
12, 1709100, Note_on_c, 11, 76, 89
12, 1709335, Note_off_c, 11, 76, 64
12, 1709340, Note_on_c, 11, 77, 92
12, 1709415, Note_off_c, 11, 77, 64
12, 1709420, Note_on_c, 11, 77, 92
12, 1709495, Note_off_c, 11, 77, 64
12, 1709500, Note_on_c, 11, 77, 92
12, 1709575, Note_off_c, 11, 77, 64
12, 1709580, Note_on_c, 11, 77, 92
12, 1709655, Note_off_c, 11, 77, 64
12, 1709660, Note_on_c, 11, 77, 92
12, 1709735, Note_off_c, 11, 77, 64
12, 1709740, Note_on_c, 11, 77, 92
12, 1709815, Note_off_c, 11, 77, 64
12, 1709820, Note_on_c, 11, 81, 92
12, 1709895, Note_off_c, 11, 81, 64
12, 1709900, Note_on_c, 11, 81, 92
12, 1709975, Note_off_c, 11, 81, 64
12, 1709980, Note_on_c, 11, 81, 92
12, 1710055, Note_off_c, 11, 81, 64
12, 1710060, Note_on_c, 11, 81, 92
12, 1710135, Note_off_c, 11, 81, 64
12, 1710140, Note_on_c, 11, 81, 92
12, 1710215, Note_off_c, 11, 81, 64
12, 1710220, Note_on_c, 11, 81, 92
12, 1710295, Note_off_c, 11, 81, 64
12, 1710300, Note_on_c, 11, 81, 92
12, 1710375, Note_off_c, 11, 81, 64
12, 1710380, Note_on_c, 11, 81, 92
12, 1710455, Note_off_c, 11, 81, 64
12, 1710460, Note_on_c, 11, 81, 92
12, 1710535, Note_off_c, 11, 81, 64
12, 1710540, Note_on_c, 11, 81, 92
12, 1710615, Note_off_c, 11, 81, 64
12, 1710620, Note_on_c, 11, 81, 92
12, 1710695, Note_off_c, 11, 81, 64
12, 1710700, Note_on_c, 11, 81, 92
12, 1710775, Note_off_c, 11, 81, 64
12, 1710780, Note_on_c, 11, 81, 92
12, 1710855, Note_off_c, 11, 81, 64
12, 1710860, Note_on_c, 11, 81, 92
12, 1710935, Note_off_c, 11, 81, 64
12, 1710940, Note_on_c, 11, 81, 92
12, 1711015, Note_off_c, 11, 81, 64
12, 1711020, Note_on_c, 11, 81, 92
12, 1711095, Note_off_c, 11, 81, 64
12, 1711100, Note_on_c, 11, 81, 92
12, 1711175, Note_off_c, 11, 81, 64
12, 1711180, Note_on_c, 11, 81, 92
12, 1711255, Note_off_c, 11, 81, 64
12, 1711260, Note_on_c, 11, 81, 92
12, 1711335, Note_off_c, 11, 81, 64
12, 1711340, Note_on_c, 11, 81, 92
12, 1711415, Note_off_c, 11, 81, 64
12, 1711420, Note_on_c, 11, 81, 92
12, 1711495, Note_off_c, 11, 81, 64
12, 1711500, Note_on_c, 11, 81, 92
12, 1711575, Note_off_c, 11, 81, 64
12, 1711580, Note_on_c, 11, 81, 92
12, 1711655, Note_off_c, 11, 81, 64
12, 1711660, Note_on_c, 11, 81, 92
12, 1711735, Note_off_c, 11, 81, 64
12, 1711740, Note_on_c, 11, 81, 92
12, 1711815, Note_off_c, 11, 81, 64
12, 1711820, Note_on_c, 11, 81, 92
12, 1711895, Note_off_c, 11, 81, 64
12, 1711900, Note_on_c, 11, 81, 92
12, 1711975, Note_off_c, 11, 81, 64
12, 1711980, Note_on_c, 11, 81, 92
12, 1712055, Note_off_c, 11, 81, 64
12, 1712060, Note_on_c, 11, 81, 92
12, 1712135, Note_off_c, 11, 81, 64
12, 1712140, Note_on_c, 11, 81, 92
12, 1712215, Note_off_c, 11, 81, 64
12, 1712220, Note_on_c, 11, 77, 92
12, 1712295, Note_off_c, 11, 77, 64
12, 1712300, Note_on_c, 11, 77, 92
12, 1712375, Note_off_c, 11, 77, 64
12, 1712380, Note_on_c, 11, 77, 92
12, 1712455, Note_off_c, 11, 77, 64
12, 1712460, Note_on_c, 11, 77, 92
12, 1712535, Note_off_c, 11, 77, 64
12, 1712540, Note_on_c, 11, 77, 92
12, 1712615, Note_off_c, 11, 77, 64
12, 1712620, Note_on_c, 11, 77, 92
12, 1712695, Note_off_c, 11, 77, 64
12, 1712700, Note_on_c, 11, 77, 92
12, 1712775, Note_off_c, 11, 77, 64
12, 1712780, Note_on_c, 11, 77, 92
12, 1712855, Note_off_c, 11, 77, 64
12, 1712860, Note_on_c, 11, 77, 92
12, 1712935, Note_off_c, 11, 77, 64
12, 1712940, Note_on_c, 11, 81, 92
12, 1713015, Note_off_c, 11, 81, 64
12, 1713020, Note_on_c, 11, 81, 92
12, 1713095, Note_off_c, 11, 81, 64
12, 1713100, Note_on_c, 11, 81, 92
12, 1713175, Note_off_c, 11, 81, 64
12, 1713180, Note_on_c, 11, 81, 92
12, 1713255, Note_off_c, 11, 81, 64
12, 1713260, Note_on_c, 11, 81, 92
12, 1713335, Note_off_c, 11, 81, 64
12, 1713340, Note_on_c, 11, 81, 92
12, 1713415, Note_off_c, 11, 81, 64
12, 1713420, Note_on_c, 11, 81, 92
12, 1713495, Note_off_c, 11, 81, 64
12, 1713500, Note_on_c, 11, 81, 92
12, 1713575, Note_off_c, 11, 81, 64
12, 1713580, Note_on_c, 11, 81, 92
12, 1713655, Note_off_c, 11, 81, 64
12, 1713660, Note_on_c, 11, 81, 92
12, 1713735, Note_off_c, 11, 81, 64
12, 1713740, Note_on_c, 11, 81, 92
12, 1713815, Note_off_c, 11, 81, 64
12, 1713820, Note_on_c, 11, 81, 92
12, 1713895, Note_off_c, 11, 81, 64
12, 1713900, Note_on_c, 11, 81, 92
12, 1713975, Note_off_c, 11, 81, 64
12, 1713980, Note_on_c, 11, 81, 92
12, 1714055, Note_off_c, 11, 81, 64
12, 1714060, Note_on_c, 11, 81, 92
12, 1714135, Note_off_c, 11, 81, 64
12, 1714140, Note_on_c, 11, 81, 92
12, 1714215, Note_off_c, 11, 81, 64
12, 1714220, Note_on_c, 11, 81, 92
12, 1714295, Note_off_c, 11, 81, 64
12, 1714300, Note_on_c, 11, 81, 92
12, 1714375, Note_off_c, 11, 81, 64
12, 1714380, Note_on_c, 11, 81, 92
12, 1714455, Note_off_c, 11, 81, 64
12, 1714460, Note_on_c, 11, 81, 92
12, 1714535, Note_off_c, 11, 81, 64
12, 1714540, Note_on_c, 11, 81, 92
12, 1714615, Note_off_c, 11, 81, 64
12, 1714620, Note_on_c, 11, 81, 92
12, 1714695, Note_off_c, 11, 81, 64
12, 1714700, Note_on_c, 11, 81, 92
12, 1714775, Note_off_c, 11, 81, 64
12, 1714780, Note_on_c, 11, 81, 92
12, 1714855, Note_off_c, 11, 81, 64
12, 1714860, Note_on_c, 11, 81, 92
12, 1714935, Note_off_c, 11, 81, 64
12, 1714940, Note_on_c, 11, 81, 92
12, 1715015, Note_off_c, 11, 81, 64
12, 1715020, Note_on_c, 11, 81, 92
12, 1715095, Note_off_c, 11, 81, 64
12, 1715100, Note_on_c, 11, 74, 92
12, 1715175, Note_off_c, 11, 74, 64
12, 1715180, Note_on_c, 11, 74, 92
12, 1715255, Note_off_c, 11, 74, 64
12, 1715260, Note_on_c, 11, 74, 92
12, 1715335, Note_off_c, 11, 74, 64
12, 1715340, Note_on_c, 11, 74, 92
12, 1715415, Note_off_c, 11, 74, 64
12, 1715420, Note_on_c, 11, 74, 92
12, 1715495, Note_off_c, 11, 74, 64
12, 1715500, Note_on_c, 11, 74, 92
12, 1715575, Note_off_c, 11, 74, 64
12, 1715580, Note_on_c, 11, 83, 92
12, 1715655, Note_off_c, 11, 83, 64
12, 1715660, Note_on_c, 11, 83, 92
12, 1715735, Note_off_c, 11, 83, 64
12, 1715740, Note_on_c, 11, 83, 92
12, 1715815, Note_off_c, 11, 83, 64
12, 1715820, Note_on_c, 11, 86, 92
12, 1715895, Note_off_c, 11, 86, 64
12, 1715900, Note_on_c, 11, 86, 92
12, 1715975, Note_off_c, 11, 86, 64
12, 1715980, Note_on_c, 11, 86, 92
12, 1716055, Note_off_c, 11, 86, 64
12, 1716060, Note_on_c, 11, 86, 92
12, 1716135, Note_off_c, 11, 86, 64
12, 1716140, Note_on_c, 11, 86, 92
12, 1716215, Note_off_c, 11, 86, 64
12, 1716220, Note_on_c, 11, 86, 92
12, 1716295, Note_off_c, 11, 86, 64
12, 1716300, Note_on_c, 11, 86, 92
12, 1716375, Note_off_c, 11, 86, 64
12, 1716380, Note_on_c, 11, 86, 92
12, 1716455, Note_off_c, 11, 86, 64
12, 1716460, Note_on_c, 11, 86, 92
12, 1716535, Note_off_c, 11, 86, 64
12, 1716540, Note_on_c, 11, 86, 92
12, 1716615, Note_off_c, 11, 86, 64
12, 1716620, Note_on_c, 11, 86, 92
12, 1716695, Note_off_c, 11, 86, 64
12, 1716700, Note_on_c, 11, 86, 92
12, 1716775, Note_off_c, 11, 86, 64
12, 1716780, Note_on_c, 11, 86, 92
12, 1716855, Note_off_c, 11, 86, 64
12, 1716860, Note_on_c, 11, 86, 92
12, 1716935, Note_off_c, 11, 86, 64
12, 1716940, Note_on_c, 11, 86, 92
12, 1717015, Note_off_c, 11, 86, 64
12, 1717020, Note_on_c, 11, 86, 92
12, 1717095, Note_off_c, 11, 86, 64
12, 1717100, Note_on_c, 11, 86, 92
12, 1717175, Note_off_c, 11, 86, 64
12, 1717180, Note_on_c, 11, 86, 92
12, 1717255, Note_off_c, 11, 86, 64
12, 1717260, Note_on_c, 11, 86, 92
12, 1717335, Note_off_c, 11, 86, 64
12, 1717340, Note_on_c, 11, 86, 92
12, 1717415, Note_off_c, 11, 86, 64
12, 1717420, Note_on_c, 11, 86, 92
12, 1717495, Note_off_c, 11, 86, 64
12, 1717500, Note_on_c, 11, 86, 92
12, 1717575, Note_off_c, 11, 86, 64
12, 1717580, Note_on_c, 11, 86, 92
12, 1717655, Note_off_c, 11, 86, 64
12, 1717660, Note_on_c, 11, 86, 92
12, 1717735, Note_off_c, 11, 86, 64
12, 1717740, Note_on_c, 11, 86, 92
12, 1717815, Note_off_c, 11, 86, 64
12, 1717820, Note_on_c, 11, 86, 92
12, 1717895, Note_off_c, 11, 86, 64
12, 1717900, Note_on_c, 11, 86, 92
12, 1717975, Note_off_c, 11, 86, 64
12, 1717980, Note_on_c, 11, 65, 45
12, 1718100, Note_off_c, 11, 65, 64
12, 1718100, Note_on_c, 11, 62, 45
12, 1718220, Note_off_c, 11, 62, 64
12, 1718220, Note_on_c, 11, 65, 45
12, 1718340, Note_off_c, 11, 65, 64
12, 1718340, Note_on_c, 11, 62, 45
12, 1718460, Note_off_c, 11, 62, 64
12, 1718460, Note_on_c, 11, 65, 45
12, 1718580, Note_off_c, 11, 65, 64
12, 1718580, Note_on_c, 11, 62, 45
12, 1718700, Note_off_c, 11, 62, 64
12, 1718700, Note_on_c, 11, 65, 45
12, 1718820, Note_off_c, 11, 65, 64
12, 1718820, Note_on_c, 11, 62, 45
12, 1718940, Note_off_c, 11, 62, 64
12, 1718940, Note_on_c, 11, 65, 45
12, 1719060, Note_off_c, 11, 65, 64
12, 1719060, Note_on_c, 11, 62, 45
12, 1719180, Note_off_c, 11, 62, 64
12, 1719180, Note_on_c, 11, 65, 45
12, 1719300, Note_off_c, 11, 65, 64
12, 1719300, Note_on_c, 11, 62, 45
12, 1719420, Note_off_c, 11, 62, 64
12, 1719420, Note_on_c, 11, 65, 45
12, 1719540, Note_off_c, 11, 65, 64
12, 1719540, Note_on_c, 11, 62, 45
12, 1719660, Note_off_c, 11, 62, 64
12, 1719660, Note_on_c, 11, 65, 45
12, 1719780, Note_off_c, 11, 65, 64
12, 1719780, Note_on_c, 11, 62, 45
12, 1719900, Note_off_c, 11, 62, 64
12, 1719900, Note_on_c, 11, 65, 45
12, 1720020, Note_off_c, 11, 65, 64
12, 1720020, Note_on_c, 11, 62, 45
12, 1720140, Note_off_c, 11, 62, 64
12, 1720140, Note_on_c, 11, 65, 45
12, 1720260, Note_off_c, 11, 65, 64
12, 1720260, Note_on_c, 11, 62, 45
12, 1720380, Note_off_c, 11, 62, 64
12, 1720380, Note_on_c, 11, 65, 45
12, 1720500, Note_off_c, 11, 65, 64
12, 1720500, Note_on_c, 11, 62, 45
12, 1720620, Note_off_c, 11, 62, 64
12, 1720620, Note_on_c, 11, 65, 45
12, 1720740, Note_off_c, 11, 65, 64
12, 1720740, Note_on_c, 11, 62, 45
12, 1720860, Note_off_c, 11, 62, 64
12, 1720860, Note_on_c, 11, 65, 45
12, 1720980, Note_off_c, 11, 65, 64
12, 1720980, Note_on_c, 11, 62, 45
12, 1721100, Note_off_c, 11, 62, 64
12, 1721100, Note_on_c, 11, 65, 45
12, 1721220, Note_off_c, 11, 65, 64
12, 1721220, Note_on_c, 11, 62, 45
12, 1721340, Note_off_c, 11, 62, 64
12, 1721340, Note_on_c, 11, 65, 45
12, 1721460, Note_off_c, 11, 65, 64
12, 1721460, Note_on_c, 11, 62, 45
12, 1721580, Note_off_c, 11, 62, 64
12, 1721580, Note_on_c, 11, 65, 45
12, 1721700, Note_off_c, 11, 65, 64
12, 1721700, Note_on_c, 11, 62, 45
12, 1721820, Note_off_c, 11, 62, 64
12, 1721820, Note_on_c, 11, 65, 45
12, 1721940, Note_off_c, 11, 65, 64
12, 1721940, Note_on_c, 11, 62, 45
12, 1722060, Note_off_c, 11, 62, 64
12, 1722060, Note_on_c, 11, 65, 45
12, 1722180, Note_off_c, 11, 65, 64
12, 1722180, Note_on_c, 11, 62, 45
12, 1722300, Note_off_c, 11, 62, 64
12, 1722300, Note_on_c, 11, 65, 45
12, 1722420, Note_off_c, 11, 65, 64
12, 1722420, Note_on_c, 11, 62, 45
12, 1722540, Note_off_c, 11, 62, 64
12, 1722540, Note_on_c, 11, 65, 45
12, 1722660, Note_off_c, 11, 65, 64
12, 1722660, Note_on_c, 11, 62, 45
12, 1722780, Note_off_c, 11, 62, 64
12, 1722780, Note_on_c, 11, 65, 45
12, 1722900, Note_off_c, 11, 65, 64
12, 1722900, Note_on_c, 11, 62, 45
12, 1723020, Note_off_c, 11, 62, 64
12, 1723020, Note_on_c, 11, 65, 45
12, 1723140, Note_off_c, 11, 65, 64
12, 1723140, Note_on_c, 11, 62, 45
12, 1723260, Note_off_c, 11, 62, 64
12, 1723260, Note_on_c, 11, 65, 45
12, 1723380, Note_off_c, 11, 65, 64
12, 1723380, Note_on_c, 11, 62, 45
12, 1723500, Note_off_c, 11, 62, 64
12, 1723500, Note_on_c, 11, 65, 45
12, 1723620, Note_off_c, 11, 65, 64
12, 1723620, Note_on_c, 11, 62, 45
12, 1723740, Note_off_c, 11, 62, 64
12, 1723740, Note_on_c, 11, 64, 45
12, 1723860, Note_off_c, 11, 64, 64
12, 1723860, Note_on_c, 11, 60, 46
12, 1723980, Note_off_c, 11, 60, 64
12, 1723980, Note_on_c, 11, 64, 47
12, 1724100, Note_off_c, 11, 64, 64
12, 1724100, Note_on_c, 11, 60, 48
12, 1724220, Note_off_c, 11, 60, 64
12, 1724220, Note_on_c, 11, 64, 49
12, 1724340, Note_off_c, 11, 64, 64
12, 1724340, Note_on_c, 11, 60, 50
12, 1724460, Note_off_c, 11, 60, 64
12, 1724460, Note_on_c, 11, 64, 51
12, 1724580, Note_off_c, 11, 64, 64
12, 1724580, Note_on_c, 11, 60, 52
12, 1724700, Note_off_c, 11, 60, 64
12, 1724700, Note_on_c, 11, 64, 53
12, 1724820, Note_off_c, 11, 64, 64
12, 1724820, Note_on_c, 11, 60, 54
12, 1724940, Note_off_c, 11, 60, 64
12, 1724940, Note_on_c, 11, 64, 55
12, 1725060, Note_off_c, 11, 64, 64
12, 1725060, Note_on_c, 11, 60, 56
12, 1725180, Note_off_c, 11, 60, 64
12, 1725180, Note_on_c, 11, 64, 57
12, 1725300, Note_off_c, 11, 64, 64
12, 1725300, Note_on_c, 11, 60, 58
12, 1725420, Note_off_c, 11, 60, 64
12, 1725420, Note_on_c, 11, 64, 59
12, 1725540, Note_off_c, 11, 64, 64
12, 1725540, Note_on_c, 11, 60, 60
12, 1725660, Note_off_c, 11, 60, 64
12, 1725660, Note_on_c, 11, 64, 61
12, 1725780, Note_off_c, 11, 64, 64
12, 1725780, Note_on_c, 11, 60, 62
12, 1725900, Note_off_c, 11, 60, 64
12, 1725900, Note_on_c, 11, 64, 63
12, 1726020, Note_off_c, 11, 64, 64
12, 1726020, Note_on_c, 11, 60, 64
12, 1726140, Note_off_c, 11, 60, 64
12, 1726140, Note_on_c, 11, 64, 65
12, 1726260, Note_off_c, 11, 64, 64
12, 1726260, Note_on_c, 11, 60, 66
12, 1726380, Note_off_c, 11, 60, 64
12, 1726380, Note_on_c, 11, 64, 67
12, 1726500, Note_off_c, 11, 64, 64
12, 1726500, Note_on_c, 11, 60, 68
12, 1726620, Note_off_c, 11, 60, 64
12, 1726620, Note_on_c, 11, 64, 69
12, 1726740, Note_off_c, 11, 64, 64
12, 1726740, Note_on_c, 11, 58, 70
12, 1726860, Note_off_c, 11, 58, 64
12, 1726860, Note_on_c, 11, 64, 71
12, 1726980, Note_off_c, 11, 64, 64
12, 1726980, Note_on_c, 11, 58, 72
12, 1727100, Note_off_c, 11, 58, 64
12, 1727100, Note_on_c, 11, 64, 73
12, 1727220, Note_off_c, 11, 64, 64
12, 1727220, Note_on_c, 11, 58, 74
12, 1727340, Note_off_c, 11, 58, 64
12, 1727340, Note_on_c, 11, 64, 75
12, 1727460, Note_off_c, 11, 64, 64
12, 1727460, Note_on_c, 11, 58, 76
12, 1727580, Note_off_c, 11, 58, 64
12, 1727580, Note_on_c, 11, 64, 77
12, 1727700, Note_off_c, 11, 64, 64
12, 1727700, Note_on_c, 11, 58, 78
12, 1727820, Note_off_c, 11, 58, 64
12, 1727820, Note_on_c, 11, 64, 79
12, 1727940, Note_off_c, 11, 64, 64
12, 1727940, Note_on_c, 11, 58, 80
12, 1728060, Note_off_c, 11, 58, 64
12, 1728060, Note_on_c, 11, 64, 81
12, 1728180, Note_off_c, 11, 64, 64
12, 1728180, Note_on_c, 11, 58, 82
12, 1728300, Note_off_c, 11, 58, 64
12, 1728300, Note_on_c, 11, 58, 83
12, 1728420, Note_off_c, 11, 58, 64
12, 1728420, Note_on_c, 11, 58, 84
12, 1728540, Note_off_c, 11, 58, 64
12, 1728540, Note_on_c, 11, 64, 85
12, 1728660, Note_off_c, 11, 64, 64
12, 1728660, Note_on_c, 11, 58, 86
12, 1728780, Note_off_c, 11, 58, 64
12, 1728780, Note_on_c, 11, 58, 87
12, 1728900, Note_off_c, 11, 58, 64
12, 1728900, Note_on_c, 11, 58, 88
12, 1729020, Note_off_c, 11, 58, 64
12, 1729020, Note_on_c, 11, 64, 89
12, 1729140, Note_off_c, 11, 64, 64
12, 1729140, Note_on_c, 11, 58, 90
12, 1729255, Note_off_c, 11, 58, 64
12, 1729260, Note_on_c, 11, 55, 92
12, 1729260, Note_on_c, 11, 64, 92
12, 1729335, Note_off_c, 11, 64, 64
12, 1729335, Note_off_c, 11, 55, 64
12, 1729340, Note_on_c, 11, 55, 92
12, 1729340, Note_on_c, 11, 64, 92
12, 1729415, Note_off_c, 11, 64, 64
12, 1729415, Note_off_c, 11, 55, 64
12, 1729420, Note_on_c, 11, 55, 92
12, 1729420, Note_on_c, 11, 64, 92
12, 1729495, Note_off_c, 11, 64, 64
12, 1729495, Note_off_c, 11, 55, 64
12, 1729500, Note_on_c, 11, 55, 92
12, 1729500, Note_on_c, 11, 64, 92
12, 1729575, Note_off_c, 11, 64, 64
12, 1729575, Note_off_c, 11, 55, 64
12, 1729580, Note_on_c, 11, 55, 92
12, 1729580, Note_on_c, 11, 64, 92
12, 1729655, Note_off_c, 11, 64, 64
12, 1729655, Note_off_c, 11, 55, 64
12, 1729660, Note_on_c, 11, 55, 92
12, 1729660, Note_on_c, 11, 64, 92
12, 1729735, Note_off_c, 11, 64, 64
12, 1729735, Note_off_c, 11, 55, 64
12, 1729740, Note_on_c, 11, 55, 92
12, 1729740, Note_on_c, 11, 64, 92
12, 1729815, Note_off_c, 11, 64, 64
12, 1729815, Note_off_c, 11, 55, 64
12, 1729820, Note_on_c, 11, 55, 92
12, 1729820, Note_on_c, 11, 64, 92
12, 1729895, Note_off_c, 11, 64, 64
12, 1729895, Note_off_c, 11, 55, 64
12, 1729900, Note_on_c, 11, 55, 92
12, 1729900, Note_on_c, 11, 64, 92
12, 1729975, Note_off_c, 11, 64, 64
12, 1729975, Note_off_c, 11, 55, 64
12, 1729980, Note_on_c, 11, 55, 92
12, 1729980, Note_on_c, 11, 64, 92
12, 1730055, Note_off_c, 11, 64, 64
12, 1730055, Note_off_c, 11, 55, 64
12, 1730060, Note_on_c, 11, 55, 92
12, 1730060, Note_on_c, 11, 64, 92
12, 1730135, Note_off_c, 11, 64, 64
12, 1730135, Note_off_c, 11, 55, 64
12, 1730140, Note_on_c, 11, 55, 92
12, 1730140, Note_on_c, 11, 64, 92
12, 1730215, Note_off_c, 11, 64, 64
12, 1730215, Note_off_c, 11, 55, 64
12, 1730220, Note_on_c, 11, 55, 92
12, 1730220, Note_on_c, 11, 64, 92
12, 1730295, Note_off_c, 11, 64, 64
12, 1730295, Note_off_c, 11, 55, 64
12, 1730300, Note_on_c, 11, 55, 92
12, 1730300, Note_on_c, 11, 64, 92
12, 1730375, Note_off_c, 11, 64, 64
12, 1730375, Note_off_c, 11, 55, 64
12, 1730380, Note_on_c, 11, 55, 92
12, 1730380, Note_on_c, 11, 64, 92
12, 1730455, Note_off_c, 11, 64, 64
12, 1730455, Note_off_c, 11, 55, 64
12, 1730460, Note_on_c, 11, 55, 92
12, 1730460, Note_on_c, 11, 64, 92
12, 1730535, Note_off_c, 11, 64, 64
12, 1730535, Note_off_c, 11, 55, 64
12, 1730540, Note_on_c, 11, 55, 92
12, 1730540, Note_on_c, 11, 64, 92
12, 1730615, Note_off_c, 11, 64, 64
12, 1730615, Note_off_c, 11, 55, 64
12, 1730620, Note_on_c, 11, 55, 92
12, 1730620, Note_on_c, 11, 64, 92
12, 1730695, Note_off_c, 11, 64, 64
12, 1730695, Note_off_c, 11, 55, 64
12, 1730700, Note_on_c, 11, 55, 92
12, 1730700, Note_on_c, 11, 64, 92
12, 1730775, Note_off_c, 11, 64, 64
12, 1730775, Note_off_c, 11, 55, 64
12, 1730780, Note_on_c, 11, 55, 92
12, 1730780, Note_on_c, 11, 64, 92
12, 1730855, Note_off_c, 11, 64, 64
12, 1730855, Note_off_c, 11, 55, 64
12, 1730860, Note_on_c, 11, 55, 92
12, 1730860, Note_on_c, 11, 64, 92
12, 1730935, Note_off_c, 11, 64, 64
12, 1730935, Note_off_c, 11, 55, 64
12, 1730940, Note_on_c, 11, 55, 92
12, 1730940, Note_on_c, 11, 64, 92
12, 1731015, Note_off_c, 11, 64, 64
12, 1731015, Note_off_c, 11, 55, 64
12, 1731020, Note_on_c, 11, 55, 92
12, 1731020, Note_on_c, 11, 64, 92
12, 1731095, Note_off_c, 11, 64, 64
12, 1731095, Note_off_c, 11, 55, 64
12, 1731100, Note_on_c, 11, 55, 92
12, 1731100, Note_on_c, 11, 64, 92
12, 1731175, Note_off_c, 11, 64, 64
12, 1731175, Note_off_c, 11, 55, 64
12, 1731180, Note_on_c, 11, 55, 92
12, 1731180, Note_on_c, 11, 64, 92
12, 1731255, Note_off_c, 11, 64, 64
12, 1731255, Note_off_c, 11, 55, 64
12, 1731260, Note_on_c, 11, 55, 92
12, 1731260, Note_on_c, 11, 64, 92
12, 1731335, Note_off_c, 11, 64, 64
12, 1731335, Note_off_c, 11, 55, 64
12, 1731340, Note_on_c, 11, 55, 92
12, 1731340, Note_on_c, 11, 64, 92
12, 1731415, Note_off_c, 11, 64, 64
12, 1731415, Note_off_c, 11, 55, 64
12, 1731420, Note_on_c, 11, 55, 92
12, 1731420, Note_on_c, 11, 64, 92
12, 1731495, Note_off_c, 11, 64, 64
12, 1731495, Note_off_c, 11, 55, 64
12, 1731500, Note_on_c, 11, 55, 92
12, 1731500, Note_on_c, 11, 64, 92
12, 1731575, Note_off_c, 11, 64, 64
12, 1731575, Note_off_c, 11, 55, 64
12, 1731580, Note_on_c, 11, 55, 92
12, 1731580, Note_on_c, 11, 64, 92
12, 1731655, Note_off_c, 11, 64, 64
12, 1731655, Note_off_c, 11, 55, 64
12, 1731660, Note_on_c, 11, 55, 92
12, 1731660, Note_on_c, 11, 64, 92
12, 1731735, Note_off_c, 11, 64, 64
12, 1731735, Note_off_c, 11, 55, 64
12, 1731740, Note_on_c, 11, 55, 92
12, 1731740, Note_on_c, 11, 64, 92
12, 1731815, Note_off_c, 11, 64, 64
12, 1731815, Note_off_c, 11, 55, 64
12, 1731820, Note_on_c, 11, 55, 92
12, 1731820, Note_on_c, 11, 64, 92
12, 1731895, Note_off_c, 11, 64, 64
12, 1731895, Note_off_c, 11, 55, 64
12, 1731900, Note_on_c, 11, 55, 92
12, 1731900, Note_on_c, 11, 64, 92
12, 1731975, Note_off_c, 11, 64, 64
12, 1731975, Note_off_c, 11, 55, 64
12, 1731980, Note_on_c, 11, 55, 92
12, 1731980, Note_on_c, 11, 64, 92
12, 1732055, Note_off_c, 11, 64, 64
12, 1732055, Note_off_c, 11, 55, 64
12, 1732060, Note_on_c, 11, 55, 92
12, 1732060, Note_on_c, 11, 64, 92
12, 1732135, Note_off_c, 11, 64, 64
12, 1732135, Note_off_c, 11, 55, 64
12, 1732140, Note_on_c, 11, 55, 92
12, 1732140, Note_on_c, 11, 64, 92
12, 1732215, Note_off_c, 11, 64, 64
12, 1732215, Note_off_c, 11, 55, 64
12, 1732220, Note_on_c, 11, 55, 92
12, 1732220, Note_on_c, 11, 64, 92
12, 1732295, Note_off_c, 11, 64, 64
12, 1732295, Note_off_c, 11, 55, 64
12, 1732300, Note_on_c, 11, 55, 92
12, 1732300, Note_on_c, 11, 64, 92
12, 1732375, Note_off_c, 11, 64, 64
12, 1732375, Note_off_c, 11, 55, 64
12, 1732380, Note_on_c, 11, 57, 75
12, 1732380, Note_on_c, 11, 65, 75
12, 1732780, Note_off_c, 11, 65, 64
12, 1732780, Note_off_c, 11, 57, 64
12, 1740660, Note_on_c, 11, 60, 60
12, 1740780, Note_off_c, 11, 60, 64
12, 1740780, Note_on_c, 11, 62, 60
12, 1740900, Note_off_c, 11, 62, 64
12, 1740900, Note_on_c, 11, 64, 60
12, 1741020, Note_off_c, 11, 64, 64
12, 1741020, Note_on_c, 11, 66, 60
12, 1741140, Note_off_c, 11, 66, 64
12, 1741140, Note_on_c, 11, 67, 60
12, 1741260, Note_off_c, 11, 67, 64
12, 1741260, Note_on_c, 11, 66, 60
12, 1741380, Note_off_c, 11, 66, 64
12, 1741380, Note_on_c, 11, 64, 60
12, 1741500, Note_off_c, 11, 64, 64
12, 1741500, Note_on_c, 11, 66, 60
12, 1741620, Note_off_c, 11, 66, 64
12, 1741620, Note_on_c, 11, 67, 60
12, 1741740, Note_off_c, 11, 67, 64
12, 1741740, Note_on_c, 11, 69, 60
12, 1741860, Note_off_c, 11, 69, 64
12, 1741860, Note_on_c, 11, 70, 60
12, 1741980, Note_off_c, 11, 70, 64
12, 1741980, Note_on_c, 11, 72, 60
12, 1742100, Note_off_c, 11, 72, 64
12, 1742100, Note_on_c, 11, 70, 60
12, 1742220, Note_off_c, 11, 70, 64
12, 1742220, Note_on_c, 11, 72, 60
12, 1742340, Note_off_c, 11, 72, 64
12, 1742340, Note_on_c, 11, 69, 60
12, 1742460, Note_off_c, 11, 69, 64
12, 1742460, Note_on_c, 11, 70, 60
12, 1742580, Note_off_c, 11, 70, 64
12, 1742580, Note_on_c, 11, 72, 60
12, 1742700, Note_off_c, 11, 72, 64
12, 1742700, Note_on_c, 11, 70, 60
12, 1742820, Note_off_c, 11, 70, 64
12, 1742820, Note_on_c, 11, 69, 60
12, 1742940, Note_off_c, 11, 69, 64
12, 1742940, Note_on_c, 11, 70, 60
12, 1743060, Note_off_c, 11, 70, 64
12, 1743060, Note_on_c, 11, 69, 60
12, 1743180, Note_off_c, 11, 69, 64
12, 1743180, Note_on_c, 11, 67, 60
12, 1743300, Note_off_c, 11, 67, 64
12, 1743300, Note_on_c, 11, 69, 60
12, 1743420, Note_off_c, 11, 69, 64
12, 1743420, Note_on_c, 11, 67, 60
12, 1743540, Note_off_c, 11, 67, 64
12, 1743540, Note_on_c, 11, 65, 60
12, 1743660, Note_off_c, 11, 65, 64
12, 1743660, Note_on_c, 11, 67, 60
12, 1743780, Note_off_c, 11, 67, 64
12, 1743780, Note_on_c, 11, 65, 60
12, 1743900, Note_off_c, 11, 65, 64
12, 1743900, Note_on_c, 11, 64, 60
12, 1744020, Note_off_c, 11, 64, 64
12, 1744020, Note_on_c, 11, 65, 60
12, 1744140, Note_off_c, 11, 65, 64
12, 1744140, Note_on_c, 11, 64, 60
12, 1744260, Note_off_c, 11, 64, 64
12, 1744260, Note_on_c, 11, 62, 60
12, 1744380, Note_off_c, 11, 62, 64
12, 1744380, Note_on_c, 11, 64, 60
12, 1744500, Note_off_c, 11, 64, 64
12, 1744500, Note_on_c, 11, 65, 60
12, 1744620, Note_off_c, 11, 65, 64
12, 1744620, Note_on_c, 11, 67, 60
12, 1744740, Note_off_c, 11, 67, 64
12, 1744740, Note_on_c, 11, 69, 60
12, 1744860, Note_off_c, 11, 69, 64
12, 1744860, Note_on_c, 11, 70, 60
12, 1744980, Note_off_c, 11, 70, 64
12, 1744980, Note_on_c, 11, 69, 60
12, 1745100, Note_off_c, 11, 69, 64
12, 1745100, Note_on_c, 11, 70, 60
12, 1745220, Note_off_c, 11, 70, 64
12, 1745220, Note_on_c, 11, 67, 60
12, 1745340, Note_off_c, 11, 67, 64
12, 1745340, Note_on_c, 11, 69, 60
12, 1745460, Note_off_c, 11, 69, 64
12, 1745460, Note_on_c, 11, 70, 60
12, 1745580, Note_off_c, 11, 70, 64
12, 1745580, Note_on_c, 11, 72, 60
12, 1745700, Note_off_c, 11, 72, 64
12, 1745700, Note_on_c, 11, 70, 60
12, 1745820, Note_off_c, 11, 70, 64
12, 1745820, Note_on_c, 11, 69, 60
12, 1745940, Note_off_c, 11, 69, 64
12, 1745940, Note_on_c, 11, 67, 60
12, 1746060, Note_off_c, 11, 67, 64
12, 1746060, Note_on_c, 11, 66, 60
12, 1746180, Note_off_c, 11, 66, 64
12, 1746180, Note_on_c, 11, 67, 60
12, 1746300, Note_off_c, 11, 67, 64
12, 1746300, Note_on_c, 11, 69, 60
12, 1746420, Note_off_c, 11, 69, 64
12, 1746420, Note_on_c, 11, 67, 60
12, 1746540, Note_off_c, 11, 67, 64
12, 1746540, Note_on_c, 11, 66, 60
12, 1746660, Note_off_c, 11, 66, 64
12, 1746660, Note_on_c, 11, 64, 60
12, 1746780, Note_off_c, 11, 64, 64
12, 1746780, Note_on_c, 11, 62, 60
12, 1746900, Note_off_c, 11, 62, 64
12, 1746900, Note_on_c, 11, 64, 60
12, 1747020, Note_off_c, 11, 64, 64
12, 1747020, Note_on_c, 11, 62, 60
12, 1747140, Note_off_c, 11, 62, 64
12, 1747140, Note_on_c, 11, 61, 60
12, 1747260, Note_off_c, 11, 61, 64
12, 1747260, Note_on_c, 11, 62, 60
12, 1747380, Note_off_c, 11, 62, 64
12, 1747380, Note_on_c, 11, 64, 61
12, 1747500, Note_off_c, 11, 64, 64
12, 1747500, Note_on_c, 11, 66, 61
12, 1747620, Note_off_c, 11, 66, 64
12, 1747620, Note_on_c, 11, 67, 62
12, 1747740, Note_off_c, 11, 67, 64
12, 1747740, Note_on_c, 11, 69, 63
12, 1747860, Note_off_c, 11, 69, 64
12, 1747860, Note_on_c, 11, 67, 64
12, 1747980, Note_off_c, 11, 67, 64
12, 1747980, Note_on_c, 11, 69, 65
12, 1748100, Note_off_c, 11, 69, 64
12, 1748100, Note_on_c, 11, 66, 66
12, 1748220, Note_off_c, 11, 66, 64
12, 1748220, Note_on_c, 11, 67, 67
12, 1748340, Note_off_c, 11, 67, 64
12, 1748340, Note_on_c, 11, 66, 68
12, 1748460, Note_off_c, 11, 66, 64
12, 1748460, Note_on_c, 11, 67, 69
12, 1748580, Note_off_c, 11, 67, 64
12, 1748580, Note_on_c, 11, 69, 70
12, 1748700, Note_off_c, 11, 69, 64
12, 1748700, Note_on_c, 11, 67, 71
12, 1748820, Note_off_c, 11, 67, 64
12, 1748820, Note_on_c, 11, 69, 72
12, 1748940, Note_off_c, 11, 69, 64
12, 1748940, Note_on_c, 11, 70, 73
12, 1749060, Note_off_c, 11, 70, 64
12, 1749060, Note_on_c, 11, 69, 74
12, 1749180, Note_off_c, 11, 69, 64
12, 1749180, Note_on_c, 11, 70, 75
12, 1749300, Note_off_c, 11, 70, 64
12, 1749300, Note_on_c, 11, 71, 76
12, 1749420, Note_off_c, 11, 71, 64
12, 1749420, Note_on_c, 11, 69, 77
12, 1749540, Note_off_c, 11, 69, 64
12, 1749540, Note_on_c, 11, 71, 78
12, 1749660, Note_off_c, 11, 71, 64
12, 1749660, Note_on_c, 11, 72, 79
12, 1749780, Note_off_c, 11, 72, 64
12, 1749780, Note_on_c, 11, 74, 80
12, 1749900, Note_off_c, 11, 74, 64
12, 1749900, Note_on_c, 11, 72, 81
12, 1750020, Note_off_c, 11, 72, 64
12, 1750020, Note_on_c, 11, 71, 82
12, 1750140, Note_off_c, 11, 71, 64
12, 1750140, Note_on_c, 11, 72, 83
12, 1750260, Note_off_c, 11, 72, 64
12, 1750260, Note_on_c, 11, 74, 84
12, 1750380, Note_off_c, 11, 74, 64
12, 1750380, Note_on_c, 11, 76, 85
12, 1750500, Note_off_c, 11, 76, 64
12, 1750500, Note_on_c, 11, 77, 86
12, 1750620, Note_off_c, 11, 77, 64
12, 1750620, Note_on_c, 11, 79, 87
12, 1750740, Note_off_c, 11, 79, 64
12, 1750740, Note_on_c, 11, 76, 88
12, 1750860, Note_off_c, 11, 76, 64
12, 1750860, Note_on_c, 11, 77, 89
12, 1750980, Note_off_c, 11, 77, 64
12, 1750980, Note_on_c, 11, 79, 90
12, 1751095, Note_off_c, 11, 79, 64
12, 1751100, Note_on_c, 11, 81, 92
12, 1751175, Note_off_c, 11, 81, 64
12, 1751180, Note_on_c, 11, 81, 92
12, 1751255, Note_off_c, 11, 81, 64
12, 1751260, Note_on_c, 11, 81, 92
12, 1751335, Note_off_c, 11, 81, 64
12, 1751340, Note_on_c, 11, 81, 92
12, 1751415, Note_off_c, 11, 81, 64
12, 1751420, Note_on_c, 11, 81, 92
12, 1751495, Note_off_c, 11, 81, 64
12, 1751500, Note_on_c, 11, 81, 92
12, 1751575, Note_off_c, 11, 81, 64
12, 1751580, Note_on_c, 11, 81, 92
12, 1751655, Note_off_c, 11, 81, 64
12, 1751660, Note_on_c, 11, 81, 92
12, 1751735, Note_off_c, 11, 81, 64
12, 1751740, Note_on_c, 11, 81, 92
12, 1751815, Note_off_c, 11, 81, 64
12, 1751820, Note_on_c, 11, 81, 92
12, 1751895, Note_off_c, 11, 81, 64
12, 1751900, Note_on_c, 11, 81, 92
12, 1751975, Note_off_c, 11, 81, 64
12, 1751980, Note_on_c, 11, 81, 92
12, 1752055, Note_off_c, 11, 81, 64
12, 1752060, Note_on_c, 11, 81, 92
12, 1752135, Note_off_c, 11, 81, 64
12, 1752140, Note_on_c, 11, 81, 92
12, 1752215, Note_off_c, 11, 81, 64
12, 1752220, Note_on_c, 11, 81, 92
12, 1752295, Note_off_c, 11, 81, 64
12, 1752300, Note_on_c, 11, 81, 92
12, 1752375, Note_off_c, 11, 81, 64
12, 1752380, Note_on_c, 11, 81, 92
12, 1752455, Note_off_c, 11, 81, 64
12, 1752460, Note_on_c, 11, 81, 92
12, 1752535, Note_off_c, 11, 81, 64
12, 1752540, Note_on_c, 11, 81, 92
12, 1752615, Note_off_c, 11, 81, 64
12, 1752620, Note_on_c, 11, 81, 92
12, 1752695, Note_off_c, 11, 81, 64
12, 1752700, Note_on_c, 11, 81, 92
12, 1752775, Note_off_c, 11, 81, 64
12, 1752780, Note_on_c, 11, 81, 92
12, 1752855, Note_off_c, 11, 81, 64
12, 1752860, Note_on_c, 11, 81, 92
12, 1752935, Note_off_c, 11, 81, 64
12, 1752940, Note_on_c, 11, 81, 92
12, 1753015, Note_off_c, 11, 81, 64
12, 1753020, Note_on_c, 11, 81, 92
12, 1753095, Note_off_c, 11, 81, 64
12, 1753100, Note_on_c, 11, 81, 92
12, 1753175, Note_off_c, 11, 81, 64
12, 1753180, Note_on_c, 11, 81, 92
12, 1753255, Note_off_c, 11, 81, 64
12, 1753260, Note_on_c, 11, 81, 92
12, 1753335, Note_off_c, 11, 81, 64
12, 1753340, Note_on_c, 11, 81, 92
12, 1753415, Note_off_c, 11, 81, 64
12, 1753420, Note_on_c, 11, 81, 92
12, 1753495, Note_off_c, 11, 81, 64
12, 1753500, Note_on_c, 11, 81, 92
12, 1753575, Note_off_c, 11, 81, 64
12, 1753580, Note_on_c, 11, 81, 92
12, 1753655, Note_off_c, 11, 81, 64
12, 1753660, Note_on_c, 11, 81, 92
12, 1753735, Note_off_c, 11, 81, 64
12, 1753740, Note_on_c, 11, 81, 92
12, 1753815, Note_off_c, 11, 81, 64
12, 1753820, Note_on_c, 11, 81, 92
12, 1753895, Note_off_c, 11, 81, 64
12, 1753900, Note_on_c, 11, 81, 92
12, 1753975, Note_off_c, 11, 81, 64
12, 1753980, Note_on_c, 11, 81, 92
12, 1754055, Note_off_c, 11, 81, 64
12, 1754060, Note_on_c, 11, 81, 92
12, 1754135, Note_off_c, 11, 81, 64
12, 1754140, Note_on_c, 11, 81, 92
12, 1754215, Note_off_c, 11, 81, 64
12, 1754220, Note_on_c, 11, 81, 92
12, 1754295, Note_off_c, 11, 81, 64
12, 1754300, Note_on_c, 11, 81, 92
12, 1754375, Note_off_c, 11, 81, 64
12, 1754380, Note_on_c, 11, 81, 92
12, 1754455, Note_off_c, 11, 81, 64
12, 1754460, Note_on_c, 11, 81, 92
12, 1754535, Note_off_c, 11, 81, 64
12, 1754540, Note_on_c, 11, 81, 92
12, 1754615, Note_off_c, 11, 81, 64
12, 1754620, Note_on_c, 11, 81, 92
12, 1754695, Note_off_c, 11, 81, 64
12, 1754700, Note_on_c, 11, 81, 92
12, 1754775, Note_off_c, 11, 81, 64
12, 1754780, Note_on_c, 11, 81, 92
12, 1754855, Note_off_c, 11, 81, 64
12, 1754860, Note_on_c, 11, 81, 92
12, 1754935, Note_off_c, 11, 81, 64
12, 1754940, Note_on_c, 11, 81, 92
12, 1755015, Note_off_c, 11, 81, 64
12, 1755020, Note_on_c, 11, 81, 92
12, 1755095, Note_off_c, 11, 81, 64
12, 1755100, Note_on_c, 11, 81, 92
12, 1755175, Note_off_c, 11, 81, 64
12, 1755180, Note_on_c, 11, 81, 92
12, 1755255, Note_off_c, 11, 81, 64
12, 1755260, Note_on_c, 11, 81, 92
12, 1755335, Note_off_c, 11, 81, 64
12, 1755340, Note_on_c, 11, 81, 92
12, 1755415, Note_off_c, 11, 81, 64
12, 1755420, Note_on_c, 11, 81, 92
12, 1755495, Note_off_c, 11, 81, 64
12, 1755500, Note_on_c, 11, 81, 92
12, 1755575, Note_off_c, 11, 81, 64
12, 1755580, Note_on_c, 11, 81, 92
12, 1755655, Note_off_c, 11, 81, 64
12, 1755660, Note_on_c, 11, 81, 92
12, 1755735, Note_off_c, 11, 81, 64
12, 1755740, Note_on_c, 11, 81, 92
12, 1755815, Note_off_c, 11, 81, 64
12, 1755820, Note_on_c, 11, 81, 92
12, 1755895, Note_off_c, 11, 81, 64
12, 1755900, Note_on_c, 11, 81, 92
12, 1755975, Note_off_c, 11, 81, 64
12, 1755980, Note_on_c, 11, 81, 92
12, 1756055, Note_off_c, 11, 81, 64
12, 1756060, Note_on_c, 11, 81, 92
12, 1756135, Note_off_c, 11, 81, 64
12, 1756140, Note_on_c, 11, 81, 92
12, 1756215, Note_off_c, 11, 81, 64
12, 1756220, Note_on_c, 11, 81, 92
12, 1756295, Note_off_c, 11, 81, 64
12, 1756300, Note_on_c, 11, 81, 92
12, 1756375, Note_off_c, 11, 81, 64
12, 1756380, Note_on_c, 11, 81, 92
12, 1756455, Note_off_c, 11, 81, 64
12, 1756460, Note_on_c, 11, 81, 92
12, 1756535, Note_off_c, 11, 81, 64
12, 1756540, Note_on_c, 11, 81, 92
12, 1756615, Note_off_c, 11, 81, 64
12, 1756620, Note_on_c, 11, 81, 92
12, 1756695, Note_off_c, 11, 81, 64
12, 1756700, Note_on_c, 11, 81, 92
12, 1756775, Note_off_c, 11, 81, 64
12, 1756780, Note_on_c, 11, 81, 92
12, 1756855, Note_off_c, 11, 81, 64
12, 1756860, Note_on_c, 11, 83, 92
12, 1756935, Note_off_c, 11, 83, 64
12, 1756940, Note_on_c, 11, 83, 92
12, 1757015, Note_off_c, 11, 83, 64
12, 1757020, Note_on_c, 11, 83, 92
12, 1757095, Note_off_c, 11, 83, 64
12, 1757100, Note_on_c, 11, 83, 92
12, 1757175, Note_off_c, 11, 83, 64
12, 1757180, Note_on_c, 11, 83, 92
12, 1757255, Note_off_c, 11, 83, 64
12, 1757260, Note_on_c, 11, 83, 92
12, 1757335, Note_off_c, 11, 83, 64
12, 1757340, Note_on_c, 11, 83, 92
12, 1757415, Note_off_c, 11, 83, 64
12, 1757420, Note_on_c, 11, 83, 92
12, 1757495, Note_off_c, 11, 83, 64
12, 1757500, Note_on_c, 11, 83, 92
12, 1757575, Note_off_c, 11, 83, 64
12, 1757580, Note_on_c, 11, 83, 92
12, 1757655, Note_off_c, 11, 83, 64
12, 1757660, Note_on_c, 11, 83, 92
12, 1757735, Note_off_c, 11, 83, 64
12, 1757740, Note_on_c, 11, 83, 92
12, 1757815, Note_off_c, 11, 83, 64
12, 1757820, Note_on_c, 11, 83, 92
12, 1757895, Note_off_c, 11, 83, 64
12, 1757900, Note_on_c, 11, 83, 92
12, 1757975, Note_off_c, 11, 83, 64
12, 1757980, Note_on_c, 11, 83, 92
12, 1758055, Note_off_c, 11, 83, 64
12, 1758060, Note_on_c, 11, 83, 92
12, 1758135, Note_off_c, 11, 83, 64
12, 1758140, Note_on_c, 11, 83, 92
12, 1758215, Note_off_c, 11, 83, 64
12, 1758220, Note_on_c, 11, 83, 92
12, 1758295, Note_off_c, 11, 83, 64
12, 1758300, Note_on_c, 11, 83, 92
12, 1758375, Note_off_c, 11, 83, 64
12, 1758380, Note_on_c, 11, 83, 92
12, 1758455, Note_off_c, 11, 83, 64
12, 1758460, Note_on_c, 11, 83, 92
12, 1758535, Note_off_c, 11, 83, 64
12, 1758540, Note_on_c, 11, 83, 92
12, 1758615, Note_off_c, 11, 83, 64
12, 1758620, Note_on_c, 11, 83, 92
12, 1758695, Note_off_c, 11, 83, 64
12, 1758700, Note_on_c, 11, 83, 92
12, 1758775, Note_off_c, 11, 83, 64
12, 1758780, Note_on_c, 11, 83, 92
12, 1758855, Note_off_c, 11, 83, 64
12, 1758860, Note_on_c, 11, 83, 92
12, 1758935, Note_off_c, 11, 83, 64
12, 1758940, Note_on_c, 11, 83, 92
12, 1759015, Note_off_c, 11, 83, 64
12, 1759020, Note_on_c, 11, 83, 92
12, 1759095, Note_off_c, 11, 83, 64
12, 1759100, Note_on_c, 11, 83, 92
12, 1759175, Note_off_c, 11, 83, 64
12, 1759180, Note_on_c, 11, 83, 92
12, 1759255, Note_off_c, 11, 83, 64
12, 1759260, Note_on_c, 11, 83, 92
12, 1759335, Note_off_c, 11, 83, 64
12, 1759340, Note_on_c, 11, 83, 92
12, 1759415, Note_off_c, 11, 83, 64
12, 1759420, Note_on_c, 11, 83, 92
12, 1759495, Note_off_c, 11, 83, 64
12, 1759500, Note_on_c, 11, 83, 92
12, 1759575, Note_off_c, 11, 83, 64
12, 1759580, Note_on_c, 11, 83, 92
12, 1759655, Note_off_c, 11, 83, 64
12, 1759660, Note_on_c, 11, 83, 92
12, 1759735, Note_off_c, 11, 83, 64
12, 1759740, Note_on_c, 11, 82, 92
12, 1759815, Note_off_c, 11, 82, 64
12, 1759820, Note_on_c, 11, 82, 92
12, 1759895, Note_off_c, 11, 82, 64
12, 1759900, Note_on_c, 11, 82, 92
12, 1759975, Note_off_c, 11, 82, 64
12, 1759980, Note_on_c, 11, 82, 92
12, 1760055, Note_off_c, 11, 82, 64
12, 1760060, Note_on_c, 11, 82, 92
12, 1760135, Note_off_c, 11, 82, 64
12, 1760140, Note_on_c, 11, 82, 92
12, 1760215, Note_off_c, 11, 82, 64
12, 1760220, Note_on_c, 11, 82, 92
12, 1760295, Note_off_c, 11, 82, 64
12, 1760300, Note_on_c, 11, 82, 92
12, 1760375, Note_off_c, 11, 82, 64
12, 1760380, Note_on_c, 11, 82, 92
12, 1760455, Note_off_c, 11, 82, 64
12, 1760460, Note_on_c, 11, 82, 92
12, 1760535, Note_off_c, 11, 82, 64
12, 1760540, Note_on_c, 11, 82, 92
12, 1760615, Note_off_c, 11, 82, 64
12, 1760620, Note_on_c, 11, 82, 92
12, 1760695, Note_off_c, 11, 82, 64
12, 1760700, Note_on_c, 11, 82, 92
12, 1760775, Note_off_c, 11, 82, 64
12, 1760780, Note_on_c, 11, 82, 92
12, 1760855, Note_off_c, 11, 82, 64
12, 1760860, Note_on_c, 11, 82, 92
12, 1760935, Note_off_c, 11, 82, 64
12, 1760940, Note_on_c, 11, 82, 92
12, 1761015, Note_off_c, 11, 82, 64
12, 1761020, Note_on_c, 11, 82, 92
12, 1761095, Note_off_c, 11, 82, 64
12, 1761100, Note_on_c, 11, 82, 92
12, 1761175, Note_off_c, 11, 82, 64
12, 1761180, Note_on_c, 11, 82, 92
12, 1761255, Note_off_c, 11, 82, 64
12, 1761260, Note_on_c, 11, 82, 92
12, 1761335, Note_off_c, 11, 82, 64
12, 1761340, Note_on_c, 11, 82, 92
12, 1761415, Note_off_c, 11, 82, 64
12, 1761420, Note_on_c, 11, 82, 92
12, 1761495, Note_off_c, 11, 82, 64
12, 1761500, Note_on_c, 11, 82, 92
12, 1761575, Note_off_c, 11, 82, 64
12, 1761580, Note_on_c, 11, 82, 92
12, 1761655, Note_off_c, 11, 82, 64
12, 1761660, Note_on_c, 11, 82, 92
12, 1761735, Note_off_c, 11, 82, 64
12, 1761740, Note_on_c, 11, 82, 92
12, 1761815, Note_off_c, 11, 82, 64
12, 1761820, Note_on_c, 11, 82, 92
12, 1761895, Note_off_c, 11, 82, 64
12, 1761900, Note_on_c, 11, 82, 92
12, 1761975, Note_off_c, 11, 82, 64
12, 1761980, Note_on_c, 11, 82, 92
12, 1762055, Note_off_c, 11, 82, 64
12, 1762060, Note_on_c, 11, 82, 92
12, 1762135, Note_off_c, 11, 82, 64
12, 1762140, Note_on_c, 11, 82, 92
12, 1762215, Note_off_c, 11, 82, 64
12, 1762220, Note_on_c, 11, 82, 92
12, 1762295, Note_off_c, 11, 82, 64
12, 1762300, Note_on_c, 11, 82, 92
12, 1762375, Note_off_c, 11, 82, 64
12, 1762380, Note_on_c, 11, 82, 92
12, 1762455, Note_off_c, 11, 82, 64
12, 1762460, Note_on_c, 11, 82, 92
12, 1762535, Note_off_c, 11, 82, 64
12, 1762540, Note_on_c, 11, 82, 92
12, 1762615, Note_off_c, 11, 82, 64
12, 1762620, Note_on_c, 11, 81, 92
12, 1762695, Note_off_c, 11, 81, 64
12, 1762700, Note_on_c, 11, 81, 92
12, 1762775, Note_off_c, 11, 81, 64
12, 1762780, Note_on_c, 11, 81, 92
12, 1762855, Note_off_c, 11, 81, 64
12, 1762860, Note_on_c, 11, 81, 92
12, 1762935, Note_off_c, 11, 81, 64
12, 1762940, Note_on_c, 11, 81, 92
12, 1763015, Note_off_c, 11, 81, 64
12, 1763020, Note_on_c, 11, 81, 92
12, 1763095, Note_off_c, 11, 81, 64
12, 1763100, Note_on_c, 11, 81, 92
12, 1763175, Note_off_c, 11, 81, 64
12, 1763180, Note_on_c, 11, 81, 92
12, 1763255, Note_off_c, 11, 81, 64
12, 1763260, Note_on_c, 11, 81, 92
12, 1763335, Note_off_c, 11, 81, 64
12, 1763340, Note_on_c, 11, 81, 92
12, 1763415, Note_off_c, 11, 81, 64
12, 1763420, Note_on_c, 11, 81, 92
12, 1763495, Note_off_c, 11, 81, 64
12, 1763500, Note_on_c, 11, 81, 92
12, 1763575, Note_off_c, 11, 81, 64
12, 1763580, Note_on_c, 11, 81, 92
12, 1763655, Note_off_c, 11, 81, 64
12, 1763660, Note_on_c, 11, 81, 92
12, 1763735, Note_off_c, 11, 81, 64
12, 1763740, Note_on_c, 11, 81, 92
12, 1763815, Note_off_c, 11, 81, 64
12, 1763820, Note_on_c, 11, 81, 92
12, 1763895, Note_off_c, 11, 81, 64
12, 1763900, Note_on_c, 11, 81, 92
12, 1763975, Note_off_c, 11, 81, 64
12, 1763980, Note_on_c, 11, 81, 92
12, 1764055, Note_off_c, 11, 81, 64
12, 1764060, Note_on_c, 11, 81, 92
12, 1764135, Note_off_c, 11, 81, 64
12, 1764140, Note_on_c, 11, 81, 92
12, 1764215, Note_off_c, 11, 81, 64
12, 1764220, Note_on_c, 11, 81, 92
12, 1764295, Note_off_c, 11, 81, 64
12, 1764300, Note_on_c, 11, 81, 92
12, 1764375, Note_off_c, 11, 81, 64
12, 1764380, Note_on_c, 11, 81, 92
12, 1764455, Note_off_c, 11, 81, 64
12, 1764460, Note_on_c, 11, 81, 92
12, 1764535, Note_off_c, 11, 81, 64
12, 1764540, Note_on_c, 11, 81, 92
12, 1764615, Note_off_c, 11, 81, 64
12, 1764620, Note_on_c, 11, 81, 92
12, 1764695, Note_off_c, 11, 81, 64
12, 1764700, Note_on_c, 11, 81, 92
12, 1764775, Note_off_c, 11, 81, 64
12, 1764780, Note_on_c, 11, 81, 92
12, 1764855, Note_off_c, 11, 81, 64
12, 1764860, Note_on_c, 11, 81, 92
12, 1764935, Note_off_c, 11, 81, 64
12, 1764940, Note_on_c, 11, 81, 92
12, 1765015, Note_off_c, 11, 81, 64
12, 1765020, Note_on_c, 11, 81, 92
12, 1765095, Note_off_c, 11, 81, 64
12, 1765100, Note_on_c, 11, 81, 92
12, 1765175, Note_off_c, 11, 81, 64
12, 1765180, Note_on_c, 11, 81, 92
12, 1765255, Note_off_c, 11, 81, 64
12, 1765260, Note_on_c, 11, 81, 92
12, 1765335, Note_off_c, 11, 81, 64
12, 1765340, Note_on_c, 11, 81, 92
12, 1765415, Note_off_c, 11, 81, 64
12, 1765420, Note_on_c, 11, 81, 92
12, 1765495, Note_off_c, 11, 81, 64
12, 1765500, Note_on_c, 11, 82, 92
12, 1765575, Note_off_c, 11, 82, 64
12, 1765580, Note_on_c, 11, 82, 92
12, 1765655, Note_off_c, 11, 82, 64
12, 1765660, Note_on_c, 11, 82, 92
12, 1765735, Note_off_c, 11, 82, 64
12, 1765740, Note_on_c, 11, 82, 92
12, 1765815, Note_off_c, 11, 82, 64
12, 1765820, Note_on_c, 11, 82, 92
12, 1765895, Note_off_c, 11, 82, 64
12, 1765900, Note_on_c, 11, 82, 92
12, 1765975, Note_off_c, 11, 82, 64
12, 1765980, Note_on_c, 11, 82, 92
12, 1766055, Note_off_c, 11, 82, 64
12, 1766060, Note_on_c, 11, 82, 92
12, 1766135, Note_off_c, 11, 82, 64
12, 1766140, Note_on_c, 11, 82, 92
12, 1766215, Note_off_c, 11, 82, 64
12, 1766220, Note_on_c, 11, 82, 92
12, 1766295, Note_off_c, 11, 82, 64
12, 1766300, Note_on_c, 11, 82, 92
12, 1766375, Note_off_c, 11, 82, 64
12, 1766380, Note_on_c, 11, 82, 92
12, 1766455, Note_off_c, 11, 82, 64
12, 1766460, Note_on_c, 11, 82, 92
12, 1766535, Note_off_c, 11, 82, 64
12, 1766540, Note_on_c, 11, 82, 92
12, 1766615, Note_off_c, 11, 82, 64
12, 1766620, Note_on_c, 11, 82, 92
12, 1766695, Note_off_c, 11, 82, 64
12, 1766700, Note_on_c, 11, 82, 92
12, 1766775, Note_off_c, 11, 82, 64
12, 1766780, Note_on_c, 11, 82, 92
12, 1766855, Note_off_c, 11, 82, 64
12, 1766860, Note_on_c, 11, 82, 92
12, 1766935, Note_off_c, 11, 82, 64
12, 1766940, Note_on_c, 11, 77, 92
12, 1767015, Note_off_c, 11, 77, 64
12, 1767020, Note_on_c, 11, 77, 92
12, 1767095, Note_off_c, 11, 77, 64
12, 1767100, Note_on_c, 11, 77, 92
12, 1767175, Note_off_c, 11, 77, 64
12, 1767180, Note_on_c, 11, 77, 92
12, 1767255, Note_off_c, 11, 77, 64
12, 1767260, Note_on_c, 11, 77, 92
12, 1767335, Note_off_c, 11, 77, 64
12, 1767340, Note_on_c, 11, 77, 92
12, 1767415, Note_off_c, 11, 77, 64
12, 1767420, Note_on_c, 11, 77, 92
12, 1767495, Note_off_c, 11, 77, 64
12, 1767500, Note_on_c, 11, 77, 92
12, 1767575, Note_off_c, 11, 77, 64
12, 1767580, Note_on_c, 11, 77, 92
12, 1767655, Note_off_c, 11, 77, 64
12, 1767660, Note_on_c, 11, 77, 92
12, 1767735, Note_off_c, 11, 77, 64
12, 1767740, Note_on_c, 11, 77, 92
12, 1767815, Note_off_c, 11, 77, 64
12, 1767820, Note_on_c, 11, 77, 92
12, 1767895, Note_off_c, 11, 77, 64
12, 1767900, Note_on_c, 11, 77, 92
12, 1767975, Note_off_c, 11, 77, 64
12, 1767980, Note_on_c, 11, 77, 92
12, 1768055, Note_off_c, 11, 77, 64
12, 1768060, Note_on_c, 11, 77, 92
12, 1768135, Note_off_c, 11, 77, 64
12, 1768140, Note_on_c, 11, 77, 92
12, 1768215, Note_off_c, 11, 77, 64
12, 1768220, Note_on_c, 11, 77, 92
12, 1768295, Note_off_c, 11, 77, 64
12, 1768300, Note_on_c, 11, 77, 92
12, 1768375, Note_off_c, 11, 77, 64
12, 1768380, Note_on_c, 11, 76, 92
12, 1768455, Note_off_c, 11, 76, 64
12, 1768460, Note_on_c, 11, 76, 92
12, 1768535, Note_off_c, 11, 76, 64
12, 1768540, Note_on_c, 11, 76, 92
12, 1768615, Note_off_c, 11, 76, 64
12, 1768620, Note_on_c, 11, 76, 92
12, 1768695, Note_off_c, 11, 76, 64
12, 1768700, Note_on_c, 11, 76, 92
12, 1768775, Note_off_c, 11, 76, 64
12, 1768780, Note_on_c, 11, 76, 92
12, 1768855, Note_off_c, 11, 76, 64
12, 1768860, Note_on_c, 11, 76, 92
12, 1768935, Note_off_c, 11, 76, 64
12, 1768940, Note_on_c, 11, 76, 92
12, 1769015, Note_off_c, 11, 76, 64
12, 1769020, Note_on_c, 11, 76, 92
12, 1769095, Note_off_c, 11, 76, 64
12, 1769100, Note_on_c, 11, 76, 92
12, 1769175, Note_off_c, 11, 76, 64
12, 1769180, Note_on_c, 11, 76, 92
12, 1769255, Note_off_c, 11, 76, 64
12, 1769260, Note_on_c, 11, 76, 92
12, 1769335, Note_off_c, 11, 76, 64
12, 1769340, Note_on_c, 11, 76, 92
12, 1769415, Note_off_c, 11, 76, 64
12, 1769420, Note_on_c, 11, 76, 92
12, 1769495, Note_off_c, 11, 76, 64
12, 1769500, Note_on_c, 11, 76, 92
12, 1769575, Note_off_c, 11, 76, 64
12, 1769580, Note_on_c, 11, 76, 92
12, 1769655, Note_off_c, 11, 76, 64
12, 1769660, Note_on_c, 11, 76, 92
12, 1769735, Note_off_c, 11, 76, 64
12, 1769740, Note_on_c, 11, 76, 92
12, 1769815, Note_off_c, 11, 76, 64
12, 1769820, Note_on_c, 11, 70, 60
12, 1769895, Note_off_c, 11, 70, 64
12, 1769900, Note_on_c, 11, 70, 60
12, 1769975, Note_off_c, 11, 70, 64
12, 1769980, Note_on_c, 11, 70, 60
12, 1770055, Note_off_c, 11, 70, 64
12, 1770060, Note_on_c, 11, 70, 60
12, 1770135, Note_off_c, 11, 70, 64
12, 1770140, Note_on_c, 11, 70, 60
12, 1770215, Note_off_c, 11, 70, 64
12, 1770220, Note_on_c, 11, 70, 60
12, 1770295, Note_off_c, 11, 70, 64
12, 1770300, Note_on_c, 11, 70, 60
12, 1770375, Note_off_c, 11, 70, 64
12, 1770380, Note_on_c, 11, 70, 60
12, 1770455, Note_off_c, 11, 70, 64
12, 1770460, Note_on_c, 11, 70, 60
12, 1770535, Note_off_c, 11, 70, 64
12, 1770540, Note_on_c, 11, 70, 60
12, 1770615, Note_off_c, 11, 70, 64
12, 1770620, Note_on_c, 11, 70, 60
12, 1770695, Note_off_c, 11, 70, 64
12, 1770700, Note_on_c, 11, 70, 60
12, 1770775, Note_off_c, 11, 70, 64
12, 1770780, Note_on_c, 11, 70, 60
12, 1770855, Note_off_c, 11, 70, 64
12, 1770860, Note_on_c, 11, 70, 60
12, 1770935, Note_off_c, 11, 70, 64
12, 1770940, Note_on_c, 11, 70, 60
12, 1771015, Note_off_c, 11, 70, 64
12, 1771020, Note_on_c, 11, 70, 60
12, 1771095, Note_off_c, 11, 70, 64
12, 1771100, Note_on_c, 11, 70, 60
12, 1771175, Note_off_c, 11, 70, 64
12, 1771180, Note_on_c, 11, 70, 60
12, 1771255, Note_off_c, 11, 70, 64
12, 1771260, Note_on_c, 11, 70, 45
12, 1771335, Note_off_c, 11, 70, 64
12, 1771340, Note_on_c, 11, 70, 45
12, 1771415, Note_off_c, 11, 70, 64
12, 1771420, Note_on_c, 11, 70, 45
12, 1771495, Note_off_c, 11, 70, 64
12, 1771500, Note_on_c, 11, 70, 45
12, 1771575, Note_off_c, 11, 70, 64
12, 1771580, Note_on_c, 11, 70, 45
12, 1771655, Note_off_c, 11, 70, 64
12, 1771660, Note_on_c, 11, 70, 45
12, 1771735, Note_off_c, 11, 70, 64
12, 1771740, Note_on_c, 11, 70, 45
12, 1771815, Note_off_c, 11, 70, 64
12, 1771820, Note_on_c, 11, 70, 45
12, 1771895, Note_off_c, 11, 70, 64
12, 1771900, Note_on_c, 11, 70, 45
12, 1771975, Note_off_c, 11, 70, 64
12, 1771980, Note_on_c, 11, 67, 45
12, 1772055, Note_off_c, 11, 67, 64
12, 1772060, Note_on_c, 11, 67, 45
12, 1772135, Note_off_c, 11, 67, 64
12, 1772140, Note_on_c, 11, 67, 45
12, 1772215, Note_off_c, 11, 67, 64
12, 1772220, Note_on_c, 11, 67, 45
12, 1772295, Note_off_c, 11, 67, 64
12, 1772300, Note_on_c, 11, 67, 45
12, 1772375, Note_off_c, 11, 67, 64
12, 1772380, Note_on_c, 11, 67, 45
12, 1772455, Note_off_c, 11, 67, 64
12, 1772460, Note_on_c, 11, 67, 45
12, 1772535, Note_off_c, 11, 67, 64
12, 1772540, Note_on_c, 11, 67, 45
12, 1772615, Note_off_c, 11, 67, 64
12, 1772620, Note_on_c, 11, 67, 45
12, 1772695, Note_off_c, 11, 67, 64
12, 1772700, Note_on_c, 11, 67, 45
12, 1772775, Note_off_c, 11, 67, 64
12, 1772780, Note_on_c, 11, 67, 45
12, 1772855, Note_off_c, 11, 67, 64
12, 1772860, Note_on_c, 11, 67, 45
12, 1772935, Note_off_c, 11, 67, 64
12, 1772940, Note_on_c, 11, 67, 45
12, 1773015, Note_off_c, 11, 67, 64
12, 1773020, Note_on_c, 11, 67, 45
12, 1773095, Note_off_c, 11, 67, 64
12, 1773100, Note_on_c, 11, 67, 45
12, 1773175, Note_off_c, 11, 67, 64
12, 1773180, Note_on_c, 11, 67, 45
12, 1773255, Note_off_c, 11, 67, 64
12, 1773260, Note_on_c, 11, 67, 45
12, 1773335, Note_off_c, 11, 67, 64
12, 1773340, Note_on_c, 11, 67, 45
12, 1773415, Note_off_c, 11, 67, 64
12, 1773420, Note_on_c, 11, 64, 45
12, 1773495, Note_off_c, 11, 64, 64
12, 1773500, Note_on_c, 11, 64, 45
12, 1773575, Note_off_c, 11, 64, 64
12, 1773580, Note_on_c, 11, 64, 45
12, 1773655, Note_off_c, 11, 64, 64
12, 1773660, Note_on_c, 11, 64, 45
12, 1773735, Note_off_c, 11, 64, 64
12, 1773740, Note_on_c, 11, 64, 45
12, 1773815, Note_off_c, 11, 64, 64
12, 1773820, Note_on_c, 11, 64, 45
12, 1773895, Note_off_c, 11, 64, 64
12, 1773900, Note_on_c, 11, 64, 45
12, 1773975, Note_off_c, 11, 64, 64
12, 1773980, Note_on_c, 11, 64, 45
12, 1774055, Note_off_c, 11, 64, 64
12, 1774060, Note_on_c, 11, 64, 45
12, 1774135, Note_off_c, 11, 64, 64
12, 1774140, Note_on_c, 11, 64, 30
12, 1774215, Note_off_c, 11, 64, 64
12, 1774220, Note_on_c, 11, 64, 30
12, 1774295, Note_off_c, 11, 64, 64
12, 1774300, Note_on_c, 11, 64, 30
12, 1774375, Note_off_c, 11, 64, 64
12, 1774380, Note_on_c, 11, 64, 30
12, 1774455, Note_off_c, 11, 64, 64
12, 1774460, Note_on_c, 11, 64, 30
12, 1774535, Note_off_c, 11, 64, 64
12, 1774540, Note_on_c, 11, 64, 30
12, 1774615, Note_off_c, 11, 64, 64
12, 1774620, Note_on_c, 11, 64, 30
12, 1774695, Note_off_c, 11, 64, 64
12, 1774700, Note_on_c, 11, 64, 30
12, 1774775, Note_off_c, 11, 64, 64
12, 1774780, Note_on_c, 11, 64, 30
12, 1774855, Note_off_c, 11, 64, 64
12, 1774860, Note_on_c, 11, 60, 30
12, 1774935, Note_off_c, 11, 60, 64
12, 1774940, Note_on_c, 11, 60, 30
12, 1775015, Note_off_c, 11, 60, 64
12, 1775020, Note_on_c, 11, 60, 30
12, 1775095, Note_off_c, 11, 60, 64
12, 1775100, Note_on_c, 11, 60, 30
12, 1775175, Note_off_c, 11, 60, 64
12, 1775180, Note_on_c, 11, 60, 30
12, 1775255, Note_off_c, 11, 60, 64
12, 1775260, Note_on_c, 11, 60, 30
12, 1775335, Note_off_c, 11, 60, 64
12, 1775340, Note_on_c, 11, 60, 30
12, 1775415, Note_off_c, 11, 60, 64
12, 1775420, Note_on_c, 11, 60, 30
12, 1775495, Note_off_c, 11, 60, 64
12, 1775500, Note_on_c, 11, 60, 30
12, 1775575, Note_off_c, 11, 60, 64
12, 1775580, Note_on_c, 11, 60, 30
12, 1775655, Note_off_c, 11, 60, 64
12, 1775660, Note_on_c, 11, 60, 30
12, 1775735, Note_off_c, 11, 60, 64
12, 1775740, Note_on_c, 11, 60, 30
12, 1775815, Note_off_c, 11, 60, 64
12, 1775820, Note_on_c, 11, 60, 30
12, 1775895, Note_off_c, 11, 60, 64
12, 1775900, Note_on_c, 11, 60, 30
12, 1775975, Note_off_c, 11, 60, 64
12, 1775980, Note_on_c, 11, 60, 30
12, 1776055, Note_off_c, 11, 60, 64
12, 1776060, Note_on_c, 11, 60, 30
12, 1776135, Note_off_c, 11, 60, 64
12, 1776140, Note_on_c, 11, 60, 30
12, 1776215, Note_off_c, 11, 60, 64
12, 1776220, Note_on_c, 11, 60, 30
12, 1776295, Note_off_c, 11, 60, 64
12, 1776300, Note_on_c, 11, 58, 30
12, 1776375, Note_off_c, 11, 58, 64
12, 1776380, Note_on_c, 11, 58, 30
12, 1776455, Note_off_c, 11, 58, 64
12, 1776460, Note_on_c, 11, 58, 30
12, 1776535, Note_off_c, 11, 58, 64
12, 1776540, Note_on_c, 11, 58, 30
12, 1776615, Note_off_c, 11, 58, 64
12, 1776620, Note_on_c, 11, 58, 30
12, 1776695, Note_off_c, 11, 58, 64
12, 1776700, Note_on_c, 11, 58, 30
12, 1776775, Note_off_c, 11, 58, 64
12, 1776780, Note_on_c, 11, 58, 30
12, 1776855, Note_off_c, 11, 58, 64
12, 1776860, Note_on_c, 11, 58, 30
12, 1776935, Note_off_c, 11, 58, 64
12, 1776940, Note_on_c, 11, 58, 30
12, 1777015, Note_off_c, 11, 58, 64
12, 1777020, Note_on_c, 11, 57, 45
12, 1778220, Note_off_c, 11, 57, 64
12, 1778220, Note_on_c, 11, 65, 45
12, 1778460, Note_off_c, 11, 65, 64
12, 1778460, Note_on_c, 11, 64, 45
12, 1780020, Note_off_c, 11, 64, 64
12, 1780260, Note_on_c, 11, 64, 45
12, 1781460, Note_off_c, 11, 64, 64
12, 1781460, Note_on_c, 11, 67, 45
12, 1781700, Note_off_c, 11, 67, 64
12, 1781700, Note_on_c, 11, 65, 45
12, 1783260, Note_off_c, 11, 65, 64
12, 1783500, Note_on_c, 11, 65, 45
12, 1784700, Note_off_c, 11, 65, 64
12, 1784700, Note_on_c, 11, 65, 45
12, 1784940, Note_off_c, 11, 65, 64
12, 1784940, Note_on_c, 11, 65, 45
12, 1786435, Note_off_c, 11, 65, 64
12, 1786440, Note_on_c, 11, 64, 45
12, 1787880, Note_off_c, 11, 64, 64
12, 1787880, Note_on_c, 11, 65, 45
12, 1788595, Note_off_c, 11, 65, 64
12, 1789320, Note_on_c, 11, 69, 92
12, 1789320, Note_on_c, 11, 77, 92
12, 1789960, Note_off_c, 11, 77, 64
12, 1789960, Note_off_c, 11, 69, 64
12, 1790040, Note_on_c, 11, 70, 92
12, 1790040, Note_on_c, 11, 77, 92
12, 1790275, Note_off_c, 11, 77, 64
12, 1790275, Note_off_c, 11, 70, 64
12, 1790520, Note_on_c, 11, 72, 92
12, 1790520, Note_on_c, 11, 77, 92
12, 1790755, Note_off_c, 11, 77, 64
12, 1790755, Note_off_c, 11, 72, 64
12, 1790760, Note_on_c, 11, 74, 92
12, 1790760, Note_on_c, 11, 77, 92
12, 1791880, Note_off_c, 11, 77, 64
12, 1791880, Note_off_c, 11, 74, 64
12, 1795080, Note_on_c, 11, 60, 45
12, 1795080, Note_on_c, 11, 65, 45
12, 1795320, Note_off_c, 11, 65, 64
12, 1795320, Note_off_c, 11, 60, 64
12, 1795320, Note_on_c, 11, 60, 45
12, 1795320, Note_on_c, 11, 64, 45
12, 1796440, Note_off_c, 11, 64, 64
12, 1796440, Note_off_c, 11, 60, 64
12, 1796520, Note_on_c, 11, 60, 45
12, 1796520, Note_on_c, 11, 64, 45
12, 1796760, Note_off_c, 11, 64, 64
12, 1796760, Note_off_c, 11, 60, 64
12, 1796760, Note_on_c, 11, 60, 45
12, 1796760, Note_on_c, 11, 65, 45
12, 1797400, Note_off_c, 11, 65, 64
12, 1797400, Note_off_c, 11, 60, 64
12, 1801080, Note_on_c, 11, 60, 45
12, 1801080, Note_on_c, 11, 65, 45
12, 1801320, Note_off_c, 11, 65, 64
12, 1801320, Note_off_c, 11, 60, 64
12, 1801320, Note_on_c, 11, 60, 51
12, 1801320, Note_on_c, 11, 64, 51
12, 1802520, Note_off_c, 11, 64, 64
12, 1802520, Note_off_c, 11, 60, 64
12, 1802520, Note_on_c, 11, 60, 85
12, 1802520, Note_on_c, 11, 64, 85
12, 1802755, Note_off_c, 11, 64, 64
12, 1802755, Note_off_c, 11, 60, 64
12, 1802760, Note_on_c, 11, 67, 92
12, 1802760, Note_on_c, 11, 70, 92
12, 1805640, Note_off_c, 11, 70, 64
12, 1805640, Note_off_c, 11, 67, 64
12, 1805640, Note_on_c, 11, 67, 75
12, 1805640, Note_on_c, 11, 70, 75
12, 1807080, Note_off_c, 11, 70, 64
12, 1807080, Note_off_c, 11, 67, 64
12, 1807080, Note_on_c, 11, 67, 75
12, 1807080, Note_on_c, 11, 70, 75
12, 1808400, Note_off_c, 11, 70, 64
12, 1808400, Note_off_c, 11, 67, 64
12, 1808520, Note_on_c, 11, 65, 61
12, 1808520, Note_on_c, 11, 69, 61
12, 1809840, Note_off_c, 11, 69, 64
12, 1809840, Note_off_c, 11, 65, 64
12, 1810020, Note_on_c, 11, 65, 45
12, 1810020, Note_on_c, 11, 69, 45
12, 1811340, Note_off_c, 11, 69, 64
12, 1811340, Note_off_c, 11, 65, 64
12, 1811520, Note_on_c, 11, 65, 45
12, 1811520, Note_on_c, 11, 69, 45
12, 1811920, Note_off_c, 11, 69, 64
12, 1811920, Note_off_c, 11, 65, 64
12, 1812960, Note_on_c, 11, 65, 60
12, 1813080, Note_off_c, 11, 65, 64
12, 1813080, Note_on_c, 11, 67, 60
12, 1813200, Note_off_c, 11, 67, 64
12, 1813200, Note_on_c, 11, 69, 60
12, 1813320, Note_off_c, 11, 69, 64
12, 1813320, Note_on_c, 11, 70, 60
12, 1813440, Note_off_c, 11, 70, 64
12, 1813440, Note_on_c, 11, 72, 60
12, 1813560, Note_off_c, 11, 72, 64
12, 1813560, Note_on_c, 11, 71, 60
12, 1813675, Note_off_c, 11, 71, 64
12, 1813680, Note_on_c, 11, 74, 60
12, 1813800, Note_off_c, 11, 74, 64
12, 1813800, Note_on_c, 11, 72, 60
12, 1813920, Note_off_c, 11, 72, 64
12, 1813920, Note_on_c, 11, 70, 60
12, 1814040, Note_off_c, 11, 70, 64
12, 1814040, Note_on_c, 11, 69, 60
12, 1814160, Note_off_c, 11, 69, 64
12, 1814160, Note_on_c, 11, 67, 60
12, 1814280, Note_off_c, 11, 67, 64
12, 1814280, Note_on_c, 11, 65, 60
12, 1814395, Note_off_c, 11, 65, 64
12, 1817040, Note_on_c, 11, 72, 108
12, 1817040, Note_on_c, 11, 77, 108
12, 1817275, Note_off_c, 11, 77, 64
12, 1817275, Note_off_c, 11, 72, 64
12, 1817280, Note_on_c, 11, 57, 108
12, 1817280, Note_on_c, 11, 65, 108
12, 1818040, Note_off_c, 11, 65, 64
12, 1818040, Note_off_c, 11, 57, 64
12, 1818040, End_track
13, 0, Start_track
13, 0, MIDI_port, 0
13, 0, Channel_prefix, 12
13, 0, Control_c, 12, 7, 127
13, 0, Control_c, 12, 10, 64
13, 0, Control_c, 12, 91, 127
13, 0, Program_c, 12, 48
13, 240, Note_on_c, 12, 48, 45
13, 3000, Note_off_c, 12, 48, 64
13, 3120, Note_on_c, 12, 48, 45
13, 4080, Note_off_c, 12, 48, 64
13, 4200, Note_on_c, 12, 53, 45
13, 4680, Note_off_c, 12, 53, 64
13, 4680, Note_on_c, 12, 50, 48
13, 5080, Note_off_c, 12, 50, 64
13, 5160, Note_on_c, 12, 52, 52
13, 5880, Note_off_c, 12, 52, 64
13, 5880, Note_on_c, 12, 48, 58
13, 6115, Note_off_c, 12, 48, 64
13, 6120, Note_on_c, 12, 53, 60
13, 6600, Note_off_c, 12, 53, 64
13, 6600, Note_on_c, 12, 50, 64
13, 7000, Note_off_c, 12, 50, 64
13, 7080, Note_on_c, 12, 52, 68
13, 7800, Note_off_c, 12, 52, 64
13, 7800, Note_on_c, 12, 48, 74
13, 8035, Note_off_c, 12, 48, 64
13, 8040, Note_on_c, 12, 53, 76
13, 8520, Note_off_c, 12, 53, 64
13, 8520, Note_on_c, 12, 60, 80
13, 9000, Note_off_c, 12, 60, 64
13, 9000, Note_on_c, 12, 60, 84
13, 9720, Note_off_c, 12, 60, 64
13, 9720, Note_on_c, 12, 65, 90
13, 9955, Note_off_c, 12, 65, 64
13, 9960, Note_on_c, 12, 65, 92
13, 10440, Note_off_c, 12, 65, 64
13, 10440, Note_on_c, 12, 60, 92
13, 11760, Note_off_c, 12, 60, 64
13, 11880, Note_on_c, 12, 57, 92
13, 11880, Note_on_c, 12, 60, 92
13, 12360, Note_off_c, 12, 60, 64
13, 12360, Note_off_c, 12, 57, 64
13, 12360, Note_on_c, 12, 53, 92
13, 12360, Note_on_c, 12, 57, 92
13, 12840, Note_off_c, 12, 57, 64
13, 12840, Note_off_c, 12, 53, 64
13, 12840, Note_on_c, 12, 55, 92
13, 12840, Note_on_c, 12, 58, 92
13, 13560, Note_off_c, 12, 58, 64
13, 13560, Note_off_c, 12, 55, 64
13, 13560, Note_on_c, 12, 57, 92
13, 13560, Note_on_c, 12, 60, 92
13, 13795, Note_off_c, 12, 60, 64
13, 13795, Note_off_c, 12, 57, 64
13, 13800, Note_on_c, 12, 62, 45
13, 14040, Note_off_c, 12, 62, 64
13, 14040, Note_on_c, 12, 64, 46
13, 14280, Note_off_c, 12, 64, 64
13, 14280, Note_on_c, 12, 65, 48
13, 14515, Note_off_c, 12, 65, 64
13, 14520, Note_on_c, 12, 48, 50
13, 14600, Note_off_c, 12, 48, 64
13, 14760, Note_on_c, 12, 55, 52
13, 15400, Note_off_c, 12, 55, 64
13, 15480, Note_on_c, 12, 62, 58
13, 15715, Note_off_c, 12, 62, 64
13, 15720, Note_on_c, 12, 55, 60
13, 16360, Note_off_c, 12, 55, 64
13, 16440, Note_on_c, 12, 62, 66
13, 16675, Note_off_c, 12, 62, 64
13, 16680, Note_on_c, 12, 55, 68
13, 17320, Note_off_c, 12, 55, 64
13, 17400, Note_on_c, 12, 62, 74
13, 17635, Note_off_c, 12, 62, 64
13, 17640, Note_on_c, 12, 55, 76
13, 18280, Note_off_c, 12, 55, 64
13, 18360, Note_on_c, 12, 62, 82
13, 18595, Note_off_c, 12, 62, 64
13, 18600, Note_on_c, 12, 55, 84
13, 19240, Note_off_c, 12, 55, 64
13, 19320, Note_on_c, 12, 62, 90
13, 19555, Note_off_c, 12, 62, 64
13, 19560, Note_on_c, 12, 55, 92
13, 20200, Note_off_c, 12, 55, 64
13, 20280, Note_on_c, 12, 62, 92
13, 20515, Note_off_c, 12, 62, 64
13, 20520, Note_on_c, 12, 55, 92
13, 21160, Note_off_c, 12, 55, 64
13, 21240, Note_on_c, 12, 62, 68
13, 21475, Note_off_c, 12, 62, 64
13, 21480, Note_on_c, 12, 55, 60
13, 22120, Note_off_c, 12, 55, 64
13, 22200, Note_on_c, 12, 62, 60
13, 22435, Note_off_c, 12, 62, 64
13, 22440, Note_on_c, 12, 55, 60
13, 23080, Note_off_c, 12, 55, 64
13, 23160, Note_on_c, 12, 62, 38
13, 23395, Note_off_c, 12, 62, 64
13, 23400, Note_on_c, 12, 55, 30
13, 23635, Note_off_c, 12, 55, 64
13, 31080, Note_on_c, 12, 60, 45
13, 34800, Note_off_c, 12, 60, 64
13, 34920, Note_on_c, 12, 65, 92
13, 35155, Note_off_c, 12, 65, 64
13, 35160, Note_on_c, 12, 60, 92
13, 35395, Note_off_c, 12, 60, 64
13, 35400, Note_on_c, 12, 60, 92
13, 35635, Note_off_c, 12, 60, 64
13, 35640, Note_on_c, 12, 60, 92
13, 35875, Note_off_c, 12, 60, 64
13, 35880, Note_on_c, 12, 60, 92
13, 36115, Note_off_c, 12, 60, 64
13, 36120, Note_on_c, 12, 60, 92
13, 36355, Note_off_c, 12, 60, 64
13, 36360, Note_on_c, 12, 60, 92
13, 36595, Note_off_c, 12, 60, 64
13, 36600, Note_on_c, 12, 60, 92
13, 36835, Note_off_c, 12, 60, 64
13, 36840, Note_on_c, 12, 60, 92
13, 37075, Note_off_c, 12, 60, 64
13, 37080, Note_on_c, 12, 60, 92
13, 37315, Note_off_c, 12, 60, 64
13, 37320, Note_on_c, 12, 60, 92
13, 37555, Note_off_c, 12, 60, 64
13, 37560, Note_on_c, 12, 60, 92
13, 37795, Note_off_c, 12, 60, 64
13, 37800, Note_on_c, 12, 60, 92
13, 38035, Note_off_c, 12, 60, 64
13, 38040, Note_on_c, 12, 60, 92
13, 38275, Note_off_c, 12, 60, 64
13, 38280, Note_on_c, 12, 60, 92
13, 38515, Note_off_c, 12, 60, 64
13, 38520, Note_on_c, 12, 60, 92
13, 38755, Note_off_c, 12, 60, 64
13, 38760, Note_on_c, 12, 60, 92
13, 38995, Note_off_c, 12, 60, 64
13, 39000, Note_on_c, 12, 60, 92
13, 39235, Note_off_c, 12, 60, 64
13, 39240, Note_on_c, 12, 60, 92
13, 39475, Note_off_c, 12, 60, 64
13, 39480, Note_on_c, 12, 60, 92
13, 39715, Note_off_c, 12, 60, 64
13, 39720, Note_on_c, 12, 60, 92
13, 39955, Note_off_c, 12, 60, 64
13, 39960, Note_on_c, 12, 60, 92
13, 40195, Note_off_c, 12, 60, 64
13, 40200, Note_on_c, 12, 60, 92
13, 40435, Note_off_c, 12, 60, 64
13, 40440, Note_on_c, 12, 60, 92
13, 40675, Note_off_c, 12, 60, 64
13, 40680, Note_on_c, 12, 60, 92
13, 40915, Note_off_c, 12, 60, 64
13, 40920, Note_on_c, 12, 60, 92
13, 41155, Note_off_c, 12, 60, 64
13, 41160, Note_on_c, 12, 60, 92
13, 41395, Note_off_c, 12, 60, 64
13, 41400, Note_on_c, 12, 60, 92
13, 41635, Note_off_c, 12, 60, 64
13, 41640, Note_on_c, 12, 60, 92
13, 41875, Note_off_c, 12, 60, 64
13, 41880, Note_on_c, 12, 60, 92
13, 42115, Note_off_c, 12, 60, 64
13, 42120, Note_on_c, 12, 60, 92
13, 42355, Note_off_c, 12, 60, 64
13, 42360, Note_on_c, 12, 60, 92
13, 42595, Note_off_c, 12, 60, 64
13, 42600, Note_on_c, 12, 60, 92
13, 42835, Note_off_c, 12, 60, 64
13, 42840, Note_on_c, 12, 60, 92
13, 43075, Note_off_c, 12, 60, 64
13, 43080, Note_on_c, 12, 60, 92
13, 43315, Note_off_c, 12, 60, 64
13, 43320, Note_on_c, 12, 60, 92
13, 43555, Note_off_c, 12, 60, 64
13, 43560, Note_on_c, 12, 60, 92
13, 43795, Note_off_c, 12, 60, 64
13, 43800, Note_on_c, 12, 60, 92
13, 44035, Note_off_c, 12, 60, 64
13, 44040, Note_on_c, 12, 60, 92
13, 44275, Note_off_c, 12, 60, 64
13, 44280, Note_on_c, 12, 60, 92
13, 44515, Note_off_c, 12, 60, 64
13, 44520, Note_on_c, 12, 60, 92
13, 44755, Note_off_c, 12, 60, 64
13, 44760, Note_on_c, 12, 60, 92
13, 44995, Note_off_c, 12, 60, 64
13, 45000, Note_on_c, 12, 60, 92
13, 45235, Note_off_c, 12, 60, 64
13, 45240, Note_on_c, 12, 60, 92
13, 45475, Note_off_c, 12, 60, 64
13, 45480, Note_on_c, 12, 60, 92
13, 45715, Note_off_c, 12, 60, 64
13, 45720, Note_on_c, 12, 60, 92
13, 45955, Note_off_c, 12, 60, 64
13, 45960, Note_on_c, 12, 60, 92
13, 46195, Note_off_c, 12, 60, 64
13, 46200, Note_on_c, 12, 60, 92
13, 46435, Note_off_c, 12, 60, 64
13, 46440, Note_on_c, 12, 60, 92
13, 46675, Note_off_c, 12, 60, 64
13, 46680, Note_on_c, 12, 60, 92
13, 46915, Note_off_c, 12, 60, 64
13, 46920, Note_on_c, 12, 60, 92
13, 47155, Note_off_c, 12, 60, 64
13, 47160, Note_on_c, 12, 60, 92
13, 47395, Note_off_c, 12, 60, 64
13, 47400, Note_on_c, 12, 60, 92
13, 47635, Note_off_c, 12, 60, 64
13, 47640, Note_on_c, 12, 60, 92
13, 47875, Note_off_c, 12, 60, 64
13, 47880, Note_on_c, 12, 60, 92
13, 48115, Note_off_c, 12, 60, 64
13, 48120, Note_on_c, 12, 60, 92
13, 48355, Note_off_c, 12, 60, 64
13, 48360, Note_on_c, 12, 60, 92
13, 48595, Note_off_c, 12, 60, 64
13, 48600, Note_on_c, 12, 60, 92
13, 48835, Note_off_c, 12, 60, 64
13, 48840, Note_on_c, 12, 60, 92
13, 49075, Note_off_c, 12, 60, 64
13, 49080, Note_on_c, 12, 60, 92
13, 49315, Note_off_c, 12, 60, 64
13, 49320, Note_on_c, 12, 60, 92
13, 49555, Note_off_c, 12, 60, 64
13, 49560, Note_on_c, 12, 60, 88
13, 49795, Note_off_c, 12, 60, 64
13, 49800, Note_on_c, 12, 60, 84
13, 50035, Note_off_c, 12, 60, 64
13, 50040, Note_on_c, 12, 60, 80
13, 50275, Note_off_c, 12, 60, 64
13, 50280, Program_c, 12, 48
13, 50280, Note_on_c, 12, 53, 75
13, 50515, Note_off_c, 12, 53, 64
13, 54120, Program_c, 12, 45
13, 54120, Note_on_c, 12, 62, 30
13, 54355, Note_off_c, 12, 62, 64
13, 57960, Note_on_c, 12, 60, 30
13, 58360, Note_off_c, 12, 60, 64
13, 59880, Note_on_c, 12, 59, 30
13, 59880, Note_on_c, 12, 62, 30
13, 60280, Note_off_c, 12, 62, 64
13, 60280, Note_off_c, 12, 59, 64
13, 63720, Program_c, 12, 48
13, 63720, Note_on_c, 12, 50, 45
13, 63960, Note_off_c, 12, 50, 64
13, 63960, Note_on_c, 12, 53, 45
13, 64200, Note_off_c, 12, 53, 64
13, 64200, Note_on_c, 12, 50, 45
13, 64440, Note_off_c, 12, 50, 64
13, 64440, Note_on_c, 12, 53, 45
13, 64680, Note_off_c, 12, 53, 64
13, 64680, Note_on_c, 12, 50, 45
13, 64920, Note_off_c, 12, 50, 64
13, 64920, Note_on_c, 12, 53, 45
13, 65160, Note_off_c, 12, 53, 64
13, 65160, Note_on_c, 12, 50, 45
13, 65400, Note_off_c, 12, 50, 64
13, 65400, Note_on_c, 12, 53, 45
13, 65635, Note_off_c, 12, 53, 64
13, 65640, Note_on_c, 12, 52, 45
13, 65880, Note_off_c, 12, 52, 64
13, 65880, Note_on_c, 12, 55, 45
13, 66120, Note_off_c, 12, 55, 64
13, 66120, Note_on_c, 12, 52, 45
13, 66360, Note_off_c, 12, 52, 64
13, 66360, Note_on_c, 12, 55, 45
13, 66600, Note_off_c, 12, 55, 64
13, 66600, Note_on_c, 12, 52, 45
13, 66840, Note_off_c, 12, 52, 64
13, 66840, Note_on_c, 12, 55, 45
13, 67080, Note_off_c, 12, 55, 64
13, 67080, Note_on_c, 12, 52, 45
13, 67320, Note_off_c, 12, 52, 64
13, 67320, Note_on_c, 12, 55, 45
13, 67555, Note_off_c, 12, 55, 64
13, 67560, Note_on_c, 12, 53, 45
13, 67800, Note_off_c, 12, 53, 64
13, 67800, Note_on_c, 12, 55, 45
13, 68040, Note_off_c, 12, 55, 64
13, 68040, Note_on_c, 12, 53, 45
13, 68280, Note_off_c, 12, 53, 64
13, 68280, Note_on_c, 12, 55, 45
13, 68520, Note_off_c, 12, 55, 64
13, 68520, Note_on_c, 12, 53, 45
13, 68760, Note_off_c, 12, 53, 64
13, 68760, Note_on_c, 12, 55, 45
13, 69000, Note_off_c, 12, 55, 64
13, 69000, Note_on_c, 12, 53, 45
13, 69240, Note_off_c, 12, 53, 64
13, 69480, Note_on_c, 12, 52, 45
13, 69720, Note_off_c, 12, 52, 64
13, 69720, Note_on_c, 12, 55, 45
13, 69960, Note_off_c, 12, 55, 64
13, 69960, Note_on_c, 12, 52, 45
13, 70200, Note_off_c, 12, 52, 64
13, 70200, Note_on_c, 12, 55, 45
13, 70440, Note_off_c, 12, 55, 64
13, 70440, Note_on_c, 12, 52, 45
13, 70680, Note_off_c, 12, 52, 64
13, 70680, Note_on_c, 12, 55, 45
13, 70920, Note_off_c, 12, 55, 64
13, 70920, Note_on_c, 12, 52, 45
13, 71160, Note_off_c, 12, 52, 64
13, 71160, Note_on_c, 12, 48, 45
13, 71395, Note_off_c, 12, 48, 64
13, 71400, Note_on_c, 12, 59, 30
13, 71640, Note_off_c, 12, 59, 64
13, 71640, Note_on_c, 12, 55, 30
13, 71880, Note_off_c, 12, 55, 64
13, 71880, Note_on_c, 12, 59, 30
13, 72120, Note_off_c, 12, 59, 64
13, 72120, Note_on_c, 12, 55, 30
13, 72360, Note_off_c, 12, 55, 64
13, 72360, Note_on_c, 12, 59, 30
13, 72600, Note_off_c, 12, 59, 64
13, 72600, Note_on_c, 12, 55, 30
13, 72840, Note_off_c, 12, 55, 64
13, 72840, Note_on_c, 12, 59, 30
13, 73080, Note_off_c, 12, 59, 64
13, 73080, Note_on_c, 12, 55, 30
13, 73315, Note_off_c, 12, 55, 64
13, 73320, Note_on_c, 12, 60, 30
13, 73560, Note_off_c, 12, 60, 64
13, 73560, Note_on_c, 12, 55, 31
13, 73800, Note_off_c, 12, 55, 64
13, 73800, Note_on_c, 12, 60, 32
13, 74040, Note_off_c, 12, 60, 64
13, 74040, Note_on_c, 12, 55, 33
13, 74280, Note_off_c, 12, 55, 64
13, 74280, Note_on_c, 12, 60, 35
13, 74520, Note_off_c, 12, 60, 64
13, 74520, Note_on_c, 12, 55, 37
13, 74760, Note_off_c, 12, 55, 64
13, 74760, Note_on_c, 12, 60, 39
13, 75000, Note_off_c, 12, 60, 64
13, 75000, Note_on_c, 12, 55, 41
13, 75235, Note_off_c, 12, 55, 64
13, 75240, Note_on_c, 12, 62, 43
13, 75480, Note_off_c, 12, 62, 64
13, 75480, Note_on_c, 12, 55, 45
13, 75720, Note_off_c, 12, 55, 64
13, 75720, Note_on_c, 12, 62, 47
13, 75960, Note_off_c, 12, 62, 64
13, 75960, Note_on_c, 12, 55, 49
13, 76200, Note_off_c, 12, 55, 64
13, 76200, Note_on_c, 12, 62, 51
13, 76440, Note_off_c, 12, 62, 64
13, 76440, Note_on_c, 12, 55, 53
13, 76680, Note_off_c, 12, 55, 64
13, 76680, Note_on_c, 12, 62, 55
13, 76920, Note_off_c, 12, 62, 64
13, 76920, Note_on_c, 12, 55, 57
13, 77155, Note_off_c, 12, 55, 64
13, 77160, Note_on_c, 12, 64, 59
13, 77400, Note_off_c, 12, 64, 64
13, 77400, Note_on_c, 12, 55, 61
13, 77640, Note_off_c, 12, 55, 64
13, 77640, Note_on_c, 12, 64, 63
13, 77880, Note_off_c, 12, 64, 64
13, 77880, Note_on_c, 12, 55, 65
13, 78120, Note_off_c, 12, 55, 64
13, 78120, Note_on_c, 12, 64, 67
13, 78360, Note_off_c, 12, 64, 64
13, 78360, Note_on_c, 12, 55, 69
13, 78600, Note_off_c, 12, 55, 64
13, 78600, Note_on_c, 12, 64, 71
13, 78840, Note_off_c, 12, 64, 64
13, 78840, Note_on_c, 12, 55, 73
13, 79075, Note_off_c, 12, 55, 64
13, 79080, Note_on_c, 12, 65, 75
13, 79240, Note_off_c, 12, 65, 64
13, 79240, Note_on_c, 12, 62, 75
13, 79400, Note_off_c, 12, 62, 64
13, 79400, Note_on_c, 12, 65, 75
13, 79560, Note_off_c, 12, 65, 64
13, 79560, Note_on_c, 12, 62, 75
13, 79720, Note_off_c, 12, 62, 64
13, 79720, Note_on_c, 12, 65, 75
13, 79880, Note_off_c, 12, 65, 64
13, 79880, Note_on_c, 12, 62, 75
13, 80040, Note_off_c, 12, 62, 64
13, 80040, Note_on_c, 12, 65, 75
13, 80200, Note_off_c, 12, 65, 64
13, 80200, Note_on_c, 12, 62, 75
13, 80360, Note_off_c, 12, 62, 64
13, 80360, Note_on_c, 12, 65, 75
13, 80520, Note_off_c, 12, 65, 64
13, 80520, Note_on_c, 12, 62, 75
13, 80680, Note_off_c, 12, 62, 64
13, 80680, Note_on_c, 12, 65, 75
13, 80840, Note_off_c, 12, 65, 64
13, 80840, Note_on_c, 12, 62, 75
13, 80995, Note_off_c, 12, 62, 64
13, 81000, Note_on_c, 12, 67, 75
13, 81160, Note_off_c, 12, 67, 64
13, 81160, Note_on_c, 12, 64, 75
13, 81320, Note_off_c, 12, 64, 64
13, 81320, Note_on_c, 12, 67, 75
13, 81480, Note_off_c, 12, 67, 64
13, 81480, Note_on_c, 12, 64, 75
13, 81640, Note_off_c, 12, 64, 64
13, 81640, Note_on_c, 12, 67, 75
13, 81800, Note_off_c, 12, 67, 64
13, 81800, Note_on_c, 12, 64, 75
13, 81960, Note_off_c, 12, 64, 64
13, 81960, Note_on_c, 12, 67, 75
13, 82120, Note_off_c, 12, 67, 64
13, 82120, Note_on_c, 12, 64, 75
13, 82280, Note_off_c, 12, 64, 64
13, 82280, Note_on_c, 12, 67, 75
13, 82440, Note_off_c, 12, 67, 64
13, 82440, Note_on_c, 12, 64, 75
13, 82600, Note_off_c, 12, 64, 64
13, 82600, Note_on_c, 12, 67, 75
13, 82760, Note_off_c, 12, 67, 64
13, 82760, Note_on_c, 12, 64, 75
13, 82915, Note_off_c, 12, 64, 64
13, 82920, Note_on_c, 12, 67, 75
13, 83040, Note_off_c, 12, 67, 64
13, 83040, Note_on_c, 12, 65, 75
13, 83160, Note_off_c, 12, 65, 64
13, 83160, Note_on_c, 12, 67, 75
13, 83280, Note_off_c, 12, 67, 64
13, 83280, Note_on_c, 12, 65, 75
13, 83400, Note_off_c, 12, 65, 64
13, 83400, Note_on_c, 12, 67, 75
13, 83520, Note_off_c, 12, 67, 64
13, 83520, Note_on_c, 12, 65, 75
13, 83640, Note_off_c, 12, 65, 64
13, 83640, Note_on_c, 12, 67, 75
13, 83760, Note_off_c, 12, 67, 64
13, 83760, Note_on_c, 12, 65, 75
13, 83880, Note_off_c, 12, 65, 64
13, 83880, Note_on_c, 12, 67, 75
13, 84000, Note_off_c, 12, 67, 64
13, 84000, Note_on_c, 12, 65, 75
13, 84120, Note_off_c, 12, 65, 64
13, 84120, Note_on_c, 12, 67, 75
13, 84240, Note_off_c, 12, 67, 64
13, 84240, Note_on_c, 12, 65, 75
13, 84360, Note_off_c, 12, 65, 64
13, 84360, Note_on_c, 12, 67, 75
13, 84480, Note_off_c, 12, 67, 64
13, 84480, Note_on_c, 12, 65, 75
13, 84600, Note_off_c, 12, 65, 64
13, 84600, Note_on_c, 12, 67, 75
13, 84720, Note_off_c, 12, 67, 64
13, 84720, Note_on_c, 12, 65, 75
13, 84835, Note_off_c, 12, 65, 64
13, 84840, Note_on_c, 12, 67, 75
13, 84960, Note_off_c, 12, 67, 64
13, 84960, Note_on_c, 12, 64, 75
13, 85080, Note_off_c, 12, 64, 64
13, 85080, Note_on_c, 12, 67, 75
13, 85200, Note_off_c, 12, 67, 64
13, 85200, Note_on_c, 12, 64, 75
13, 85320, Note_off_c, 12, 64, 64
13, 85320, Note_on_c, 12, 67, 75
13, 85440, Note_off_c, 12, 67, 64
13, 85440, Note_on_c, 12, 64, 75
13, 85560, Note_off_c, 12, 64, 64
13, 85560, Note_on_c, 12, 67, 75
13, 85680, Note_off_c, 12, 67, 64
13, 85680, Note_on_c, 12, 64, 75
13, 85800, Note_off_c, 12, 64, 64
13, 85800, Note_on_c, 12, 67, 75
13, 85920, Note_off_c, 12, 67, 64
13, 85920, Note_on_c, 12, 64, 75
13, 86040, Note_off_c, 12, 64, 64
13, 86040, Note_on_c, 12, 67, 75
13, 86160, Note_off_c, 12, 67, 64
13, 86160, Note_on_c, 12, 64, 75
13, 86280, Note_off_c, 12, 64, 64
13, 86280, Note_on_c, 12, 67, 75
13, 86400, Note_off_c, 12, 67, 64
13, 86400, Note_on_c, 12, 64, 75
13, 86520, Note_off_c, 12, 64, 64
13, 86520, Note_on_c, 12, 67, 75
13, 86640, Note_off_c, 12, 67, 64
13, 86640, Note_on_c, 12, 64, 75
13, 86755, Note_off_c, 12, 64, 64
13, 86760, Note_on_c, 12, 67, 76
13, 86880, Note_off_c, 12, 67, 64
13, 86880, Note_on_c, 12, 65, 77
13, 87000, Note_off_c, 12, 65, 64
13, 87000, Note_on_c, 12, 67, 78
13, 87120, Note_off_c, 12, 67, 64
13, 87120, Note_on_c, 12, 65, 79
13, 87240, Note_off_c, 12, 65, 64
13, 87240, Note_on_c, 12, 67, 80
13, 87360, Note_off_c, 12, 67, 64
13, 87360, Note_on_c, 12, 65, 81
13, 87480, Note_off_c, 12, 65, 64
13, 87480, Note_on_c, 12, 67, 82
13, 87600, Note_off_c, 12, 67, 64
13, 87600, Note_on_c, 12, 65, 83
13, 87720, Note_off_c, 12, 65, 64
13, 87720, Note_on_c, 12, 67, 84
13, 87840, Note_off_c, 12, 67, 64
13, 87840, Note_on_c, 12, 65, 85
13, 87960, Note_off_c, 12, 65, 64
13, 87960, Note_on_c, 12, 67, 86
13, 88080, Note_off_c, 12, 67, 64
13, 88080, Note_on_c, 12, 65, 87
13, 88200, Note_off_c, 12, 65, 64
13, 88200, Note_on_c, 12, 67, 88
13, 88320, Note_off_c, 12, 67, 64
13, 88320, Note_on_c, 12, 65, 89
13, 88440, Note_off_c, 12, 65, 64
13, 88440, Note_on_c, 12, 67, 90
13, 88560, Note_off_c, 12, 67, 64
13, 88560, Note_on_c, 12, 65, 91
13, 88675, Note_off_c, 12, 65, 64
13, 88680, Note_on_c, 12, 64, 92
13, 88680, Note_on_c, 12, 67, 92
13, 89400, Note_off_c, 12, 67, 64
13, 89400, Note_off_c, 12, 64, 64
13, 89400, Note_on_c, 12, 65, 92
13, 89400, Note_on_c, 12, 69, 92
13, 89520, Note_off_c, 12, 69, 64
13, 89520, Note_off_c, 12, 65, 64
13, 89520, Note_on_c, 12, 67, 92
13, 89520, Note_on_c, 12, 71, 92
13, 89635, Note_off_c, 12, 71, 64
13, 89635, Note_off_c, 12, 67, 64
13, 89640, Note_on_c, 12, 69, 92
13, 89640, Note_on_c, 12, 72, 92
13, 89880, Note_off_c, 12, 72, 64
13, 89880, Note_off_c, 12, 69, 64
13, 89880, Note_on_c, 12, 67, 92
13, 89880, Note_on_c, 12, 71, 92
13, 90000, Note_off_c, 12, 71, 64
13, 90000, Note_off_c, 12, 67, 64
13, 90000, Note_on_c, 12, 65, 92
13, 90000, Note_on_c, 12, 69, 92
13, 90120, Note_off_c, 12, 69, 64
13, 90120, Note_off_c, 12, 65, 64
13, 90120, Note_on_c, 12, 64, 92
13, 90120, Note_on_c, 12, 67, 92
13, 90360, Note_off_c, 12, 67, 64
13, 90360, Note_off_c, 12, 64, 64
13, 90360, Note_on_c, 12, 65, 92
13, 90360, Note_on_c, 12, 69, 92
13, 90480, Note_off_c, 12, 69, 64
13, 90480, Note_off_c, 12, 65, 64
13, 90480, Note_on_c, 12, 67, 92
13, 90480, Note_on_c, 12, 71, 92
13, 90595, Note_off_c, 12, 71, 64
13, 90595, Note_off_c, 12, 67, 64
13, 90600, Note_on_c, 12, 69, 92
13, 90600, Note_on_c, 12, 72, 92
13, 90840, Note_off_c, 12, 72, 64
13, 90840, Note_off_c, 12, 69, 64
13, 90840, Note_on_c, 12, 67, 92
13, 90840, Note_on_c, 12, 71, 92
13, 90960, Note_off_c, 12, 71, 64
13, 90960, Note_off_c, 12, 67, 64
13, 90960, Note_on_c, 12, 65, 92
13, 90960, Note_on_c, 12, 69, 92
13, 91080, Note_off_c, 12, 69, 64
13, 91080, Note_off_c, 12, 65, 64
13, 91080, Note_on_c, 12, 64, 92
13, 91080, Note_on_c, 12, 67, 92
13, 91320, Note_off_c, 12, 67, 64
13, 91320, Note_off_c, 12, 64, 64
13, 91320, Note_on_c, 12, 65, 92
13, 91320, Note_on_c, 12, 69, 92
13, 91440, Note_off_c, 12, 69, 64
13, 91440, Note_off_c, 12, 65, 64
13, 91440, Note_on_c, 12, 67, 92
13, 91440, Note_on_c, 12, 71, 92
13, 91555, Note_off_c, 12, 71, 64
13, 91555, Note_off_c, 12, 67, 64
13, 91560, Note_on_c, 12, 69, 92
13, 91560, Note_on_c, 12, 72, 92
13, 91795, Note_off_c, 12, 72, 64
13, 91795, Note_off_c, 12, 69, 64
13, 92520, Note_on_c, 12, 53, 45
13, 92520, Note_on_c, 12, 57, 45
13, 92760, Note_off_c, 12, 57, 64
13, 92760, Note_off_c, 12, 53, 64
13, 92760, Note_on_c, 12, 48, 45
13, 92760, Note_on_c, 12, 60, 45
13, 93000, Note_off_c, 12, 60, 64
13, 93000, Note_off_c, 12, 48, 64
13, 93000, Note_on_c, 12, 53, 45
13, 93000, Note_on_c, 12, 57, 45
13, 93240, Note_off_c, 12, 57, 64
13, 93240, Note_off_c, 12, 53, 64
13, 93240, Note_on_c, 12, 48, 45
13, 93240, Note_on_c, 12, 60, 45
13, 93480, Note_off_c, 12, 60, 64
13, 93480, Note_off_c, 12, 48, 64
13, 93480, Note_on_c, 12, 52, 45
13, 93480, Note_on_c, 12, 55, 45
13, 93720, Note_off_c, 12, 55, 64
13, 93720, Note_off_c, 12, 52, 64
13, 93720, Note_on_c, 12, 48, 45
13, 93720, Note_on_c, 12, 60, 45
13, 93960, Note_off_c, 12, 60, 64
13, 93960, Note_off_c, 12, 48, 64
13, 93960, Note_on_c, 12, 52, 45
13, 93960, Note_on_c, 12, 55, 45
13, 94200, Note_off_c, 12, 55, 64
13, 94200, Note_off_c, 12, 52, 64
13, 94200, Note_on_c, 12, 48, 45
13, 94200, Note_on_c, 12, 60, 45
13, 94440, Note_off_c, 12, 60, 64
13, 94440, Note_off_c, 12, 48, 64
13, 94440, Note_on_c, 12, 53, 45
13, 94440, Note_on_c, 12, 55, 45
13, 94680, Note_off_c, 12, 55, 64
13, 94680, Note_off_c, 12, 53, 64
13, 94680, Note_on_c, 12, 50, 45
13, 94680, Note_on_c, 12, 59, 45
13, 94920, Note_off_c, 12, 59, 64
13, 94920, Note_off_c, 12, 50, 64
13, 94920, Note_on_c, 12, 53, 45
13, 94920, Note_on_c, 12, 55, 45
13, 95160, Note_off_c, 12, 55, 64
13, 95160, Note_off_c, 12, 53, 64
13, 95160, Note_on_c, 12, 50, 45
13, 95160, Note_on_c, 12, 59, 45
13, 95395, Note_off_c, 12, 59, 64
13, 95395, Note_off_c, 12, 50, 64
13, 95400, Note_on_c, 12, 64, 92
13, 95400, Note_on_c, 12, 67, 92
13, 96120, Note_off_c, 12, 67, 64
13, 96120, Note_off_c, 12, 64, 64
13, 96120, Note_on_c, 12, 65, 92
13, 96120, Note_on_c, 12, 69, 92
13, 96240, Note_off_c, 12, 69, 64
13, 96240, Note_off_c, 12, 65, 64
13, 96240, Note_on_c, 12, 67, 92
13, 96240, Note_on_c, 12, 71, 92
13, 96355, Note_off_c, 12, 71, 64
13, 96355, Note_off_c, 12, 67, 64
13, 96360, Note_on_c, 12, 69, 92
13, 96360, Note_on_c, 12, 72, 92
13, 96600, Note_off_c, 12, 72, 64
13, 96600, Note_off_c, 12, 69, 64
13, 96600, Note_on_c, 12, 67, 92
13, 96600, Note_on_c, 12, 71, 92
13, 96720, Note_off_c, 12, 71, 64
13, 96720, Note_off_c, 12, 67, 64
13, 96720, Note_on_c, 12, 65, 92
13, 96720, Note_on_c, 12, 69, 92
13, 96840, Note_off_c, 12, 69, 64
13, 96840, Note_off_c, 12, 65, 64
13, 96840, Note_on_c, 12, 64, 92
13, 96840, Note_on_c, 12, 67, 92
13, 97080, Note_off_c, 12, 67, 64
13, 97080, Note_off_c, 12, 64, 64
13, 97080, Note_on_c, 12, 65, 92
13, 97080, Note_on_c, 12, 69, 92
13, 97200, Note_off_c, 12, 69, 64
13, 97200, Note_off_c, 12, 65, 64
13, 97200, Note_on_c, 12, 67, 92
13, 97200, Note_on_c, 12, 71, 92
13, 97315, Note_off_c, 12, 71, 64
13, 97315, Note_off_c, 12, 67, 64
13, 97320, Note_on_c, 12, 69, 92
13, 97320, Note_on_c, 12, 72, 92
13, 97560, Note_off_c, 12, 72, 64
13, 97560, Note_off_c, 12, 69, 64
13, 97560, Note_on_c, 12, 67, 92
13, 97560, Note_on_c, 12, 71, 92
13, 97680, Note_off_c, 12, 71, 64
13, 97680, Note_off_c, 12, 67, 64
13, 97680, Note_on_c, 12, 65, 92
13, 97680, Note_on_c, 12, 69, 92
13, 97800, Note_off_c, 12, 69, 64
13, 97800, Note_off_c, 12, 65, 64
13, 97800, Note_on_c, 12, 64, 92
13, 97800, Note_on_c, 12, 67, 92
13, 98040, Note_off_c, 12, 67, 64
13, 98040, Note_off_c, 12, 64, 64
13, 98040, Note_on_c, 12, 65, 92
13, 98040, Note_on_c, 12, 69, 92
13, 98160, Note_off_c, 12, 69, 64
13, 98160, Note_off_c, 12, 65, 64
13, 98160, Note_on_c, 12, 67, 92
13, 98160, Note_on_c, 12, 71, 92
13, 98275, Note_off_c, 12, 71, 64
13, 98275, Note_off_c, 12, 67, 64
13, 98280, Note_on_c, 12, 69, 92
13, 98280, Note_on_c, 12, 72, 92
13, 98515, Note_off_c, 12, 72, 64
13, 98515, Note_off_c, 12, 69, 64
13, 99240, Note_on_c, 12, 53, 45
13, 99240, Note_on_c, 12, 57, 45
13, 99480, Note_off_c, 12, 57, 64
13, 99480, Note_off_c, 12, 53, 64
13, 99480, Note_on_c, 12, 48, 45
13, 99480, Note_on_c, 12, 60, 45
13, 99720, Note_off_c, 12, 60, 64
13, 99720, Note_off_c, 12, 48, 64
13, 99720, Note_on_c, 12, 53, 45
13, 99720, Note_on_c, 12, 57, 45
13, 99960, Note_off_c, 12, 57, 64
13, 99960, Note_off_c, 12, 53, 64
13, 99960, Note_on_c, 12, 48, 45
13, 99960, Note_on_c, 12, 60, 45
13, 100200, Note_off_c, 12, 60, 64
13, 100200, Note_off_c, 12, 48, 64
13, 100200, Note_on_c, 12, 52, 45
13, 100200, Note_on_c, 12, 55, 45
13, 100440, Note_off_c, 12, 55, 64
13, 100440, Note_off_c, 12, 52, 64
13, 100440, Note_on_c, 12, 48, 45
13, 100440, Note_on_c, 12, 60, 45
13, 100680, Note_off_c, 12, 60, 64
13, 100680, Note_off_c, 12, 48, 64
13, 100680, Note_on_c, 12, 52, 45
13, 100680, Note_on_c, 12, 55, 45
13, 100920, Note_off_c, 12, 55, 64
13, 100920, Note_off_c, 12, 52, 64
13, 100920, Note_on_c, 12, 48, 45
13, 100920, Note_on_c, 12, 60, 45
13, 101160, Note_off_c, 12, 60, 64
13, 101160, Note_off_c, 12, 48, 64
13, 101160, Note_on_c, 12, 53, 45
13, 101160, Note_on_c, 12, 55, 45
13, 101400, Note_off_c, 12, 55, 64
13, 101400, Note_off_c, 12, 53, 64
13, 101400, Note_on_c, 12, 50, 45
13, 101400, Note_on_c, 12, 59, 45
13, 101640, Note_off_c, 12, 59, 64
13, 101640, Note_off_c, 12, 50, 64
13, 101640, Note_on_c, 12, 53, 45
13, 101640, Note_on_c, 12, 55, 45
13, 101880, Note_off_c, 12, 55, 64
13, 101880, Note_off_c, 12, 53, 64
13, 101880, Note_on_c, 12, 50, 45
13, 101880, Note_on_c, 12, 59, 45
13, 102115, Note_off_c, 12, 59, 64
13, 102115, Note_off_c, 12, 50, 64
13, 102120, Note_on_c, 12, 52, 45
13, 102120, Note_on_c, 12, 55, 45
13, 102355, Note_off_c, 12, 55, 64
13, 102355, Note_off_c, 12, 52, 64
13, 102360, Note_on_c, 12, 48, 45
13, 102360, Note_on_c, 12, 60, 45
13, 102595, Note_off_c, 12, 60, 64
13, 102595, Note_off_c, 12, 48, 64
13, 102600, Note_on_c, 12, 48, 45
13, 102600, Note_on_c, 12, 60, 45
13, 102835, Note_off_c, 12, 60, 64
13, 102835, Note_off_c, 12, 48, 64
13, 102840, Note_on_c, 12, 48, 48
13, 102840, Note_on_c, 12, 60, 48
13, 103075, Note_off_c, 12, 60, 64
13, 103075, Note_off_c, 12, 48, 64
13, 103080, Note_on_c, 12, 53, 51
13, 103080, Note_on_c, 12, 57, 51
13, 103320, Note_off_c, 12, 57, 64
13, 103320, Note_off_c, 12, 53, 64
13, 103320, Note_on_c, 12, 48, 54
13, 103320, Note_on_c, 12, 60, 54
13, 103560, Note_off_c, 12, 60, 64
13, 103560, Note_off_c, 12, 48, 64
13, 103560, Note_on_c, 12, 53, 57
13, 103560, Note_on_c, 12, 57, 57
13, 103800, Note_off_c, 12, 57, 64
13, 103800, Note_off_c, 12, 53, 64
13, 103800, Note_on_c, 12, 48, 60
13, 103800, Note_on_c, 12, 60, 60
13, 104040, Note_off_c, 12, 60, 64
13, 104040, Note_off_c, 12, 48, 64
13, 104040, Note_on_c, 12, 52, 63
13, 104040, Note_on_c, 12, 55, 63
13, 104280, Note_off_c, 12, 55, 64
13, 104280, Note_off_c, 12, 52, 64
13, 104280, Note_on_c, 12, 48, 66
13, 104280, Note_on_c, 12, 60, 66
13, 104520, Note_off_c, 12, 60, 64
13, 104520, Note_off_c, 12, 48, 64
13, 104520, Note_on_c, 12, 52, 69
13, 104520, Note_on_c, 12, 55, 69
13, 104760, Note_off_c, 12, 55, 64
13, 104760, Note_off_c, 12, 52, 64
13, 104760, Note_on_c, 12, 48, 72
13, 104760, Note_on_c, 12, 60, 72
13, 105000, Note_off_c, 12, 60, 64
13, 105000, Note_off_c, 12, 48, 64
13, 105000, Note_on_c, 12, 53, 76
13, 105000, Note_on_c, 12, 55, 76
13, 105240, Note_off_c, 12, 55, 64
13, 105240, Note_off_c, 12, 53, 64
13, 105240, Note_on_c, 12, 50, 80
13, 105240, Note_on_c, 12, 59, 80
13, 105480, Note_off_c, 12, 59, 64
13, 105480, Note_off_c, 12, 50, 64
13, 105480, Note_on_c, 12, 53, 84
13, 105480, Note_on_c, 12, 55, 84
13, 105720, Note_off_c, 12, 55, 64
13, 105720, Note_off_c, 12, 53, 64
13, 105720, Note_on_c, 12, 50, 88
13, 105720, Note_on_c, 12, 59, 88
13, 105955, Note_off_c, 12, 59, 64
13, 105955, Note_off_c, 12, 50, 64
13, 105960, Note_on_c, 12, 52, 92
13, 105960, Note_on_c, 12, 60, 92
13, 106115, Note_off_c, 12, 60, 64
13, 106115, Note_off_c, 12, 52, 64
13, 106120, Note_on_c, 12, 64, 92
13, 106120, Note_on_c, 12, 67, 92
13, 106275, Note_off_c, 12, 67, 64
13, 106275, Note_off_c, 12, 64, 64
13, 106280, Note_on_c, 12, 64, 92
13, 106280, Note_on_c, 12, 67, 92
13, 106435, Note_off_c, 12, 67, 64
13, 106435, Note_off_c, 12, 64, 64
13, 106440, Note_on_c, 12, 64, 92
13, 106440, Note_on_c, 12, 67, 92
13, 106595, Note_off_c, 12, 67, 64
13, 106595, Note_off_c, 12, 64, 64
13, 106600, Note_on_c, 12, 62, 92
13, 106600, Note_on_c, 12, 65, 92
13, 106755, Note_off_c, 12, 65, 64
13, 106755, Note_off_c, 12, 62, 64
13, 106760, Note_on_c, 12, 60, 92
13, 106760, Note_on_c, 12, 64, 92
13, 106915, Note_off_c, 12, 64, 64
13, 106915, Note_off_c, 12, 60, 64
13, 106920, Note_on_c, 12, 69, 92
13, 106920, Note_on_c, 12, 72, 92
13, 107075, Note_off_c, 12, 72, 64
13, 107075, Note_off_c, 12, 69, 64
13, 107080, Note_on_c, 12, 69, 92
13, 107080, Note_on_c, 12, 72, 92
13, 107235, Note_off_c, 12, 72, 64
13, 107235, Note_off_c, 12, 69, 64
13, 107240, Note_on_c, 12, 69, 92
13, 107240, Note_on_c, 12, 72, 92
13, 107395, Note_off_c, 12, 72, 64
13, 107395, Note_off_c, 12, 69, 64
13, 107400, Note_on_c, 12, 65, 92
13, 107400, Note_on_c, 12, 69, 92
13, 107555, Note_off_c, 12, 69, 64
13, 107555, Note_off_c, 12, 65, 64
13, 107560, Note_on_c, 12, 65, 92
13, 107560, Note_on_c, 12, 69, 92
13, 107715, Note_off_c, 12, 69, 64
13, 107715, Note_off_c, 12, 65, 64
13, 107720, Note_on_c, 12, 65, 92
13, 107720, Note_on_c, 12, 69, 92
13, 107875, Note_off_c, 12, 69, 64
13, 107875, Note_off_c, 12, 65, 64
13, 107880, Note_on_c, 12, 64, 92
13, 107880, Note_on_c, 12, 67, 92
13, 108035, Note_off_c, 12, 67, 64
13, 108035, Note_off_c, 12, 64, 64
13, 108040, Note_on_c, 12, 64, 92
13, 108040, Note_on_c, 12, 67, 92
13, 108195, Note_off_c, 12, 67, 64
13, 108195, Note_off_c, 12, 64, 64
13, 108200, Note_on_c, 12, 64, 92
13, 108200, Note_on_c, 12, 67, 92
13, 108355, Note_off_c, 12, 67, 64
13, 108355, Note_off_c, 12, 64, 64
13, 108360, Note_on_c, 12, 60, 92
13, 108360, Note_on_c, 12, 64, 92
13, 108515, Note_off_c, 12, 64, 64
13, 108515, Note_off_c, 12, 60, 64
13, 108520, Note_on_c, 12, 60, 92
13, 108520, Note_on_c, 12, 64, 92
13, 108675, Note_off_c, 12, 64, 64
13, 108675, Note_off_c, 12, 60, 64
13, 108680, Note_on_c, 12, 60, 92
13, 108680, Note_on_c, 12, 64, 92
13, 108835, Note_off_c, 12, 64, 64
13, 108835, Note_off_c, 12, 60, 64
13, 108840, Note_on_c, 12, 53, 92
13, 108840, Note_on_c, 12, 62, 92
13, 108995, Note_off_c, 12, 62, 64
13, 108995, Note_off_c, 12, 53, 64
13, 109000, Note_on_c, 12, 53, 92
13, 109000, Note_on_c, 12, 62, 92
13, 109155, Note_off_c, 12, 62, 64
13, 109155, Note_off_c, 12, 53, 64
13, 109160, Note_on_c, 12, 53, 92
13, 109160, Note_on_c, 12, 62, 92
13, 109315, Note_off_c, 12, 62, 64
13, 109315, Note_off_c, 12, 53, 64
13, 109320, Note_on_c, 12, 53, 92
13, 109320, Note_on_c, 12, 62, 92
13, 109475, Note_off_c, 12, 62, 64
13, 109475, Note_off_c, 12, 53, 64
13, 109480, Note_on_c, 12, 52, 92
13, 109480, Note_on_c, 12, 60, 92
13, 109635, Note_off_c, 12, 60, 64
13, 109635, Note_off_c, 12, 52, 64
13, 109640, Note_on_c, 12, 53, 92
13, 109640, Note_on_c, 12, 62, 92
13, 109795, Note_off_c, 12, 62, 64
13, 109795, Note_off_c, 12, 53, 64
13, 109800, Note_on_c, 12, 48, 92
13, 109955, Note_off_c, 12, 48, 64
13, 109960, Note_on_c, 12, 48, 92
13, 110115, Note_off_c, 12, 48, 64
13, 110120, Note_on_c, 12, 48, 92
13, 110275, Note_off_c, 12, 48, 64
13, 110280, Note_on_c, 12, 48, 92
13, 111875, Note_off_c, 12, 48, 64
13, 111880, Note_on_c, 12, 48, 92
13, 112035, Note_off_c, 12, 48, 64
13, 112040, Note_on_c, 12, 48, 92
13, 112195, Note_off_c, 12, 48, 64
13, 112200, Note_on_c, 12, 48, 92
13, 113795, Note_off_c, 12, 48, 64
13, 113800, Note_on_c, 12, 48, 92
13, 113955, Note_off_c, 12, 48, 64
13, 113960, Note_on_c, 12, 48, 92
13, 114115, Note_off_c, 12, 48, 64
13, 114120, Note_on_c, 12, 48, 92
13, 115715, Note_off_c, 12, 48, 64
13, 115720, Note_on_c, 12, 48, 92
13, 115875, Note_off_c, 12, 48, 64
13, 115880, Note_on_c, 12, 48, 92
13, 116035, Note_off_c, 12, 48, 64
13, 116040, Note_on_c, 12, 48, 75
13, 117635, Note_off_c, 12, 48, 64
13, 117640, Note_on_c, 12, 48, 63
13, 117795, Note_off_c, 12, 48, 64
13, 117800, Note_on_c, 12, 48, 62
13, 117955, Note_off_c, 12, 48, 64
13, 117960, Note_on_c, 12, 48, 60
13, 119555, Note_off_c, 12, 48, 64
13, 119560, Note_on_c, 12, 48, 60
13, 119715, Note_off_c, 12, 48, 64
13, 119720, Note_on_c, 12, 48, 60
13, 119875, Note_off_c, 12, 48, 64
13, 119880, Note_on_c, 12, 48, 60
13, 121555, Note_off_c, 12, 48, 64
13, 125160, Note_on_c, 12, 48, 45
13, 125240, Note_off_c, 12, 48, 64
13, 125400, Note_on_c, 12, 55, 30
13, 125520, Note_off_c, 12, 55, 64
13, 125520, Note_on_c, 12, 52, 30
13, 125640, Note_off_c, 12, 52, 64
13, 125640, Note_on_c, 12, 50, 30
13, 125720, Note_off_c, 12, 50, 64
13, 125880, Note_on_c, 12, 55, 30
13, 126000, Note_off_c, 12, 55, 64
13, 126000, Note_on_c, 12, 52, 30
13, 126120, Note_off_c, 12, 52, 64
13, 126120, Note_on_c, 12, 48, 30
13, 126200, Note_off_c, 12, 48, 64
13, 126360, Note_on_c, 12, 55, 30
13, 126480, Note_off_c, 12, 55, 64
13, 126480, Note_on_c, 12, 52, 30
13, 126600, Note_off_c, 12, 52, 64
13, 126600, Note_on_c, 12, 50, 30
13, 126680, Note_off_c, 12, 50, 64
13, 126840, Note_on_c, 12, 55, 30
13, 126960, Note_off_c, 12, 55, 64
13, 126960, Note_on_c, 12, 52, 30
13, 127080, Note_off_c, 12, 52, 64
13, 127080, Note_on_c, 12, 48, 30
13, 127160, Note_off_c, 12, 48, 64
13, 127320, Note_on_c, 12, 55, 30
13, 127440, Note_off_c, 12, 55, 64
13, 127440, Note_on_c, 12, 52, 30
13, 127560, Note_off_c, 12, 52, 64
13, 127560, Note_on_c, 12, 50, 30
13, 127640, Note_off_c, 12, 50, 64
13, 127800, Note_on_c, 12, 55, 30
13, 127920, Note_off_c, 12, 55, 64
13, 127920, Note_on_c, 12, 52, 30
13, 128040, Note_off_c, 12, 52, 64
13, 128040, Note_on_c, 12, 48, 30
13, 128120, Note_off_c, 12, 48, 64
13, 128280, Note_on_c, 12, 55, 30
13, 128400, Note_off_c, 12, 55, 64
13, 128400, Note_on_c, 12, 52, 30
13, 128520, Note_off_c, 12, 52, 64
13, 128520, Note_on_c, 12, 50, 30
13, 128600, Note_off_c, 12, 50, 64
13, 128760, Note_on_c, 12, 55, 30
13, 128880, Note_off_c, 12, 55, 64
13, 128880, Note_on_c, 12, 52, 30
13, 129000, Note_off_c, 12, 52, 64
13, 129000, Note_on_c, 12, 48, 30
13, 129080, Note_off_c, 12, 48, 64
13, 132120, Note_on_c, 12, 57, 92
13, 132360, Note_off_c, 12, 57, 64
13, 132360, Note_on_c, 12, 58, 92
13, 132440, Note_off_c, 12, 58, 64
13, 132600, Note_on_c, 12, 62, 92
13, 132680, Note_off_c, 12, 62, 64
13, 132960, Note_on_c, 12, 55, 45
13, 134760, Note_off_c, 12, 55, 64
13, 134880, Note_on_c, 12, 55, 45
13, 136680, Note_off_c, 12, 55, 64
13, 137040, Note_on_c, 12, 53, 45
13, 137280, Note_off_c, 12, 53, 64
13, 137280, Note_on_c, 12, 55, 45
13, 137360, Note_off_c, 12, 55, 64
13, 137520, Note_on_c, 12, 58, 45
13, 137600, Note_off_c, 12, 58, 64
13, 137760, Note_on_c, 12, 57, 45
13, 137840, Note_off_c, 12, 57, 64
13, 138000, Note_on_c, 12, 57, 45
13, 138240, Note_off_c, 12, 57, 64
13, 138240, Note_on_c, 12, 58, 45
13, 138320, Note_off_c, 12, 58, 64
13, 138480, Note_on_c, 12, 62, 45
13, 138560, Note_off_c, 12, 62, 64
13, 138720, Note_on_c, 12, 60, 45
13, 138800, Note_off_c, 12, 60, 64
13, 138960, Note_on_c, 12, 60, 45
13, 139200, Note_off_c, 12, 60, 64
13, 139200, Note_on_c, 12, 62, 45
13, 139280, Note_off_c, 12, 62, 64
13, 139440, Note_on_c, 12, 65, 45
13, 139520, Note_off_c, 12, 65, 64
13, 139680, Note_on_c, 12, 63, 45
13, 139760, Note_off_c, 12, 63, 64
13, 139920, Note_on_c, 12, 62, 92
13, 140160, Note_off_c, 12, 62, 64
13, 140160, Note_on_c, 12, 63, 92
13, 140240, Note_off_c, 12, 63, 64
13, 140400, Note_on_c, 12, 67, 92
13, 140480, Note_off_c, 12, 67, 64
13, 142440, Note_on_c, 12, 53, 30
13, 142675, Note_off_c, 12, 53, 64
13, 144360, Note_on_c, 12, 53, 60
13, 144595, Note_off_c, 12, 53, 64
13, 144600, Note_on_c, 12, 53, 60
13, 144705, Note_off_c, 12, 53, 64
13, 144760, Note_on_c, 12, 62, 60
13, 144865, Note_off_c, 12, 62, 64
13, 144920, Note_on_c, 12, 58, 60
13, 145025, Note_off_c, 12, 58, 64
13, 145080, Note_on_c, 12, 65, 60
13, 145185, Note_off_c, 12, 65, 64
13, 145240, Note_on_c, 12, 62, 60
13, 145345, Note_off_c, 12, 62, 64
13, 145400, Note_on_c, 12, 58, 60
13, 145505, Note_off_c, 12, 58, 64
13, 145560, Note_on_c, 12, 53, 60
13, 145665, Note_off_c, 12, 53, 64
13, 145720, Note_on_c, 12, 62, 60
13, 145825, Note_off_c, 12, 62, 64
13, 145880, Note_on_c, 12, 58, 60
13, 145985, Note_off_c, 12, 58, 64
13, 146040, Note_on_c, 12, 65, 60
13, 146145, Note_off_c, 12, 65, 64
13, 146200, Note_on_c, 12, 62, 60
13, 146305, Note_off_c, 12, 62, 64
13, 146360, Note_on_c, 12, 58, 60
13, 146465, Note_off_c, 12, 58, 64
13, 146520, Note_on_c, 12, 53, 60
13, 146625, Note_off_c, 12, 53, 64
13, 146680, Note_on_c, 12, 62, 60
13, 146785, Note_off_c, 12, 62, 64
13, 146840, Note_on_c, 12, 58, 60
13, 146945, Note_off_c, 12, 58, 64
13, 147000, Note_on_c, 12, 65, 60
13, 147105, Note_off_c, 12, 65, 64
13, 147160, Note_on_c, 12, 62, 60
13, 147265, Note_off_c, 12, 62, 64
13, 147320, Note_on_c, 12, 58, 60
13, 147425, Note_off_c, 12, 58, 64
13, 147480, Note_on_c, 12, 53, 60
13, 147585, Note_off_c, 12, 53, 64
13, 147640, Note_on_c, 12, 62, 60
13, 147745, Note_off_c, 12, 62, 64
13, 147800, Note_on_c, 12, 58, 60
13, 147905, Note_off_c, 12, 58, 64
13, 147960, Note_on_c, 12, 65, 60
13, 148065, Note_off_c, 12, 65, 64
13, 148120, Note_on_c, 12, 62, 60
13, 148225, Note_off_c, 12, 62, 64
13, 148280, Note_on_c, 12, 58, 60
13, 148385, Note_off_c, 12, 58, 64
13, 148440, Note_on_c, 12, 53, 60
13, 148545, Note_off_c, 12, 53, 64
13, 148600, Note_on_c, 12, 62, 60
13, 148705, Note_off_c, 12, 62, 64
13, 148760, Note_on_c, 12, 58, 60
13, 148865, Note_off_c, 12, 58, 64
13, 148920, Note_on_c, 12, 65, 60
13, 149025, Note_off_c, 12, 65, 64
13, 149080, Note_on_c, 12, 62, 60
13, 149185, Note_off_c, 12, 62, 64
13, 149240, Note_on_c, 12, 58, 60
13, 149345, Note_off_c, 12, 58, 64
13, 149400, Note_on_c, 12, 53, 60
13, 149505, Note_off_c, 12, 53, 64
13, 149560, Note_on_c, 12, 62, 60
13, 149665, Note_off_c, 12, 62, 64
13, 149720, Note_on_c, 12, 58, 60
13, 149825, Note_off_c, 12, 58, 64
13, 149880, Note_on_c, 12, 65, 60
13, 149985, Note_off_c, 12, 65, 64
13, 150040, Note_on_c, 12, 62, 60
13, 150145, Note_off_c, 12, 62, 64
13, 150200, Note_on_c, 12, 58, 60
13, 150305, Note_off_c, 12, 58, 64
13, 150360, Note_on_c, 12, 53, 60
13, 150465, Note_off_c, 12, 53, 64
13, 150520, Note_on_c, 12, 62, 60
13, 150625, Note_off_c, 12, 62, 64
13, 150680, Note_on_c, 12, 58, 60
13, 150785, Note_off_c, 12, 58, 64
13, 150840, Note_on_c, 12, 65, 60
13, 150945, Note_off_c, 12, 65, 64
13, 151000, Note_on_c, 12, 62, 60
13, 151105, Note_off_c, 12, 62, 64
13, 151160, Note_on_c, 12, 58, 60
13, 151265, Note_off_c, 12, 58, 64
13, 151320, Note_on_c, 12, 53, 60
13, 151425, Note_off_c, 12, 53, 64
13, 151480, Note_on_c, 12, 62, 60
13, 151585, Note_off_c, 12, 62, 64
13, 151640, Note_on_c, 12, 58, 60
13, 151745, Note_off_c, 12, 58, 64
13, 151800, Note_on_c, 12, 65, 60
13, 151905, Note_off_c, 12, 65, 64
13, 151960, Note_on_c, 12, 62, 60
13, 152065, Note_off_c, 12, 62, 64
13, 152120, Note_on_c, 12, 58, 60
13, 152225, Note_off_c, 12, 58, 64
13, 152280, Note_on_c, 12, 53, 60
13, 152385, Note_off_c, 12, 53, 64
13, 152440, Note_on_c, 12, 62, 60
13, 152545, Note_off_c, 12, 62, 64
13, 152600, Note_on_c, 12, 58, 60
13, 152705, Note_off_c, 12, 58, 64
13, 152760, Note_on_c, 12, 65, 60
13, 152865, Note_off_c, 12, 65, 64
13, 152920, Note_on_c, 12, 62, 60
13, 153025, Note_off_c, 12, 62, 64
13, 153080, Note_on_c, 12, 58, 60
13, 153185, Note_off_c, 12, 58, 64
13, 153240, Note_on_c, 12, 53, 60
13, 153345, Note_off_c, 12, 53, 64
13, 153400, Note_on_c, 12, 62, 60
13, 153505, Note_off_c, 12, 62, 64
13, 153560, Note_on_c, 12, 58, 60
13, 153665, Note_off_c, 12, 58, 64
13, 153720, Note_on_c, 12, 65, 60
13, 153825, Note_off_c, 12, 65, 64
13, 153880, Note_on_c, 12, 62, 60
13, 153985, Note_off_c, 12, 62, 64
13, 154040, Note_on_c, 12, 58, 60
13, 154145, Note_off_c, 12, 58, 64
13, 154200, Note_on_c, 12, 53, 60
13, 154305, Note_off_c, 12, 53, 64
13, 154360, Note_on_c, 12, 62, 60
13, 154465, Note_off_c, 12, 62, 64
13, 154520, Note_on_c, 12, 58, 60
13, 154625, Note_off_c, 12, 58, 64
13, 154680, Note_on_c, 12, 65, 60
13, 154785, Note_off_c, 12, 65, 64
13, 154840, Note_on_c, 12, 62, 60
13, 154945, Note_off_c, 12, 62, 64
13, 155000, Note_on_c, 12, 58, 60
13, 155105, Note_off_c, 12, 58, 64
13, 155160, Note_on_c, 12, 53, 60
13, 155265, Note_off_c, 12, 53, 64
13, 155320, Note_on_c, 12, 62, 60
13, 155425, Note_off_c, 12, 62, 64
13, 155480, Note_on_c, 12, 58, 60
13, 155585, Note_off_c, 12, 58, 64
13, 155640, Note_on_c, 12, 65, 60
13, 155745, Note_off_c, 12, 65, 64
13, 155800, Note_on_c, 12, 62, 60
13, 155905, Note_off_c, 12, 62, 64
13, 155960, Note_on_c, 12, 58, 60
13, 156065, Note_off_c, 12, 58, 64
13, 156120, Note_on_c, 12, 57, 60
13, 156225, Note_off_c, 12, 57, 64
13, 156280, Note_on_c, 12, 66, 60
13, 156385, Note_off_c, 12, 66, 64
13, 156440, Note_on_c, 12, 62, 60
13, 156545, Note_off_c, 12, 62, 64
13, 156600, Note_on_c, 12, 69, 60
13, 156705, Note_off_c, 12, 69, 64
13, 156760, Note_on_c, 12, 66, 60
13, 156865, Note_off_c, 12, 66, 64
13, 156920, Note_on_c, 12, 62, 60
13, 157025, Note_off_c, 12, 62, 64
13, 157080, Note_on_c, 12, 57, 60
13, 157185, Note_off_c, 12, 57, 64
13, 157240, Note_on_c, 12, 66, 60
13, 157345, Note_off_c, 12, 66, 64
13, 157400, Note_on_c, 12, 62, 60
13, 157505, Note_off_c, 12, 62, 64
13, 157560, Note_on_c, 12, 69, 60
13, 157665, Note_off_c, 12, 69, 64
13, 157720, Note_on_c, 12, 66, 60
13, 157825, Note_off_c, 12, 66, 64
13, 157880, Note_on_c, 12, 62, 60
13, 157985, Note_off_c, 12, 62, 64
13, 158040, Note_on_c, 12, 57, 60
13, 158145, Note_off_c, 12, 57, 64
13, 158200, Note_on_c, 12, 66, 60
13, 158305, Note_off_c, 12, 66, 64
13, 158360, Note_on_c, 12, 62, 60
13, 158465, Note_off_c, 12, 62, 64
13, 158520, Note_on_c, 12, 69, 60
13, 158625, Note_off_c, 12, 69, 64
13, 158680, Note_on_c, 12, 66, 60
13, 158785, Note_off_c, 12, 66, 64
13, 158840, Note_on_c, 12, 62, 60
13, 158945, Note_off_c, 12, 62, 64
13, 159000, Note_on_c, 12, 57, 60
13, 159105, Note_off_c, 12, 57, 64
13, 159160, Note_on_c, 12, 66, 60
13, 159265, Note_off_c, 12, 66, 64
13, 159320, Note_on_c, 12, 62, 60
13, 159425, Note_off_c, 12, 62, 64
13, 159480, Note_on_c, 12, 69, 60
13, 159585, Note_off_c, 12, 69, 64
13, 159640, Note_on_c, 12, 66, 60
13, 159745, Note_off_c, 12, 66, 64
13, 159800, Note_on_c, 12, 62, 60
13, 159905, Note_off_c, 12, 62, 64
13, 159960, Note_on_c, 12, 57, 60
13, 160065, Note_off_c, 12, 57, 64
13, 160120, Note_on_c, 12, 66, 60
13, 160225, Note_off_c, 12, 66, 64
13, 160280, Note_on_c, 12, 62, 60
13, 160385, Note_off_c, 12, 62, 64
13, 160440, Note_on_c, 12, 69, 60
13, 160545, Note_off_c, 12, 69, 64
13, 160600, Note_on_c, 12, 66, 60
13, 160705, Note_off_c, 12, 66, 64
13, 160760, Note_on_c, 12, 62, 60
13, 160865, Note_off_c, 12, 62, 64
13, 160920, Note_on_c, 12, 57, 60
13, 161025, Note_off_c, 12, 57, 64
13, 161080, Note_on_c, 12, 66, 60
13, 161185, Note_off_c, 12, 66, 64
13, 161240, Note_on_c, 12, 62, 60
13, 161345, Note_off_c, 12, 62, 64
13, 161400, Note_on_c, 12, 69, 60
13, 161505, Note_off_c, 12, 69, 64
13, 161560, Note_on_c, 12, 66, 60
13, 161665, Note_off_c, 12, 66, 64
13, 161720, Note_on_c, 12, 62, 60
13, 161825, Note_off_c, 12, 62, 64
13, 161880, Note_on_c, 12, 57, 60
13, 161985, Note_off_c, 12, 57, 64
13, 162040, Note_on_c, 12, 66, 60
13, 162145, Note_off_c, 12, 66, 64
13, 162200, Note_on_c, 12, 62, 60
13, 162305, Note_off_c, 12, 62, 64
13, 162360, Note_on_c, 12, 69, 60
13, 162465, Note_off_c, 12, 69, 64
13, 162520, Note_on_c, 12, 66, 60
13, 162625, Note_off_c, 12, 66, 64
13, 162680, Note_on_c, 12, 62, 61
13, 162785, Note_off_c, 12, 62, 64
13, 162840, Note_on_c, 12, 57, 61
13, 162945, Note_off_c, 12, 57, 64
13, 163000, Note_on_c, 12, 66, 62
13, 163105, Note_off_c, 12, 66, 64
13, 163160, Note_on_c, 12, 62, 63
13, 163265, Note_off_c, 12, 62, 64
13, 163320, Note_on_c, 12, 69, 64
13, 163425, Note_off_c, 12, 69, 64
13, 163480, Note_on_c, 12, 66, 65
13, 163585, Note_off_c, 12, 66, 64
13, 163640, Note_on_c, 12, 62, 66
13, 163745, Note_off_c, 12, 62, 64
13, 163800, Note_on_c, 12, 57, 67
13, 163905, Note_off_c, 12, 57, 64
13, 163960, Note_on_c, 12, 66, 68
13, 164065, Note_off_c, 12, 66, 64
13, 164120, Note_on_c, 12, 62, 69
13, 164225, Note_off_c, 12, 62, 64
13, 164280, Note_on_c, 12, 69, 70
13, 164385, Note_off_c, 12, 69, 64
13, 164440, Note_on_c, 12, 66, 71
13, 164545, Note_off_c, 12, 66, 64
13, 164600, Note_on_c, 12, 62, 72
13, 164705, Note_off_c, 12, 62, 64
13, 164760, Note_on_c, 12, 57, 73
13, 164865, Note_off_c, 12, 57, 64
13, 164920, Note_on_c, 12, 66, 74
13, 165025, Note_off_c, 12, 66, 64
13, 165080, Note_on_c, 12, 62, 75
13, 165185, Note_off_c, 12, 62, 64
13, 165240, Note_on_c, 12, 69, 76
13, 165345, Note_off_c, 12, 69, 64
13, 165400, Note_on_c, 12, 66, 77
13, 165505, Note_off_c, 12, 66, 64
13, 165560, Note_on_c, 12, 62, 78
13, 165665, Note_off_c, 12, 62, 64
13, 165720, Note_on_c, 12, 57, 79
13, 165825, Note_off_c, 12, 57, 64
13, 165880, Note_on_c, 12, 66, 80
13, 165985, Note_off_c, 12, 66, 64
13, 166040, Note_on_c, 12, 62, 81
13, 166145, Note_off_c, 12, 62, 64
13, 166200, Note_on_c, 12, 69, 82
13, 166305, Note_off_c, 12, 69, 64
13, 166360, Note_on_c, 12, 66, 83
13, 166465, Note_off_c, 12, 66, 64
13, 166520, Note_on_c, 12, 62, 84
13, 166625, Note_off_c, 12, 62, 64
13, 166680, Note_on_c, 12, 57, 85
13, 166785, Note_off_c, 12, 57, 64
13, 166840, Note_on_c, 12, 66, 86
13, 166945, Note_off_c, 12, 66, 64
13, 167000, Note_on_c, 12, 62, 87
13, 167105, Note_off_c, 12, 62, 64
13, 167160, Note_on_c, 12, 69, 88
13, 167265, Note_off_c, 12, 69, 64
13, 167320, Note_on_c, 12, 66, 89
13, 167425, Note_off_c, 12, 66, 64
13, 167480, Note_on_c, 12, 62, 90
13, 167585, Note_off_c, 12, 62, 64
13, 167640, Program_c, 12, 44
13, 167640, Note_on_c, 12, 50, 92
13, 167640, Note_on_c, 12, 62, 92
13, 168480, Note_off_c, 12, 62, 64
13, 168480, Note_off_c, 12, 50, 64
13, 168600, Note_on_c, 12, 50, 92
13, 168600, Note_on_c, 12, 62, 92
13, 169440, Note_off_c, 12, 62, 64
13, 169440, Note_off_c, 12, 50, 64
13, 169560, Note_on_c, 12, 50, 92
13, 169560, Note_on_c, 12, 62, 92
13, 170400, Note_off_c, 12, 62, 64
13, 170400, Note_off_c, 12, 50, 64
13, 170520, Note_on_c, 12, 50, 92
13, 170520, Note_on_c, 12, 62, 92
13, 171360, Note_off_c, 12, 62, 64
13, 171360, Note_off_c, 12, 50, 64
13, 171480, Program_c, 12, 48
13, 171480, Note_on_c, 12, 50, 92
13, 171480, Note_on_c, 12, 62, 92
13, 171560, Note_off_c, 12, 62, 64
13, 171560, Note_off_c, 12, 50, 64
13, 171720, Note_on_c, 12, 57, 92
13, 171840, Note_off_c, 12, 57, 64
13, 171840, Note_on_c, 12, 55, 92
13, 171960, Note_off_c, 12, 55, 64
13, 171960, Note_on_c, 12, 54, 92
13, 172040, Note_off_c, 12, 54, 64
13, 172200, Note_on_c, 12, 50, 92
13, 172280, Note_off_c, 12, 50, 64
13, 173400, Note_on_c, 12, 62, 92
13, 173480, Note_off_c, 12, 62, 64
13, 173640, Note_on_c, 12, 57, 92
13, 173760, Note_off_c, 12, 57, 64
13, 173760, Note_on_c, 12, 55, 92
13, 173880, Note_off_c, 12, 55, 64
13, 173880, Note_on_c, 12, 54, 92
13, 173960, Note_off_c, 12, 54, 64
13, 174120, Note_on_c, 12, 50, 92
13, 174200, Note_off_c, 12, 50, 64
13, 175320, Note_on_c, 12, 62, 60
13, 175400, Note_off_c, 12, 62, 64
13, 175560, Note_on_c, 12, 57, 60
13, 175680, Note_off_c, 12, 57, 64
13, 175680, Note_on_c, 12, 55, 60
13, 175800, Note_off_c, 12, 55, 64
13, 175800, Note_on_c, 12, 54, 60
13, 175880, Note_off_c, 12, 54, 64
13, 176040, Note_on_c, 12, 50, 60
13, 176120, Note_off_c, 12, 50, 64
13, 185880, Note_on_c, 12, 62, 60
13, 188640, Note_off_c, 12, 62, 64
13, 188760, Note_on_c, 12, 55, 60
13, 188865, Note_off_c, 12, 55, 64
13, 188920, Note_on_c, 12, 62, 60
13, 189025, Note_off_c, 12, 62, 64
13, 189080, Note_on_c, 12, 59, 60
13, 189185, Note_off_c, 12, 59, 64
13, 189240, Note_on_c, 12, 67, 60
13, 189345, Note_off_c, 12, 67, 64
13, 189400, Note_on_c, 12, 62, 60
13, 189505, Note_off_c, 12, 62, 64
13, 189560, Note_on_c, 12, 59, 60
13, 189665, Note_off_c, 12, 59, 64
13, 189720, Note_on_c, 12, 55, 60
13, 189825, Note_off_c, 12, 55, 64
13, 189880, Note_on_c, 12, 62, 60
13, 189985, Note_off_c, 12, 62, 64
13, 190040, Note_on_c, 12, 59, 60
13, 190145, Note_off_c, 12, 59, 64
13, 190200, Note_on_c, 12, 67, 60
13, 190305, Note_off_c, 12, 67, 64
13, 190360, Note_on_c, 12, 62, 60
13, 190465, Note_off_c, 12, 62, 64
13, 190520, Note_on_c, 12, 59, 60
13, 190625, Note_off_c, 12, 59, 64
13, 190680, Note_on_c, 12, 55, 60
13, 190785, Note_off_c, 12, 55, 64
13, 190840, Note_on_c, 12, 62, 60
13, 190945, Note_off_c, 12, 62, 64
13, 191000, Note_on_c, 12, 59, 60
13, 191105, Note_off_c, 12, 59, 64
13, 191160, Note_on_c, 12, 67, 60
13, 191265, Note_off_c, 12, 67, 64
13, 191320, Note_on_c, 12, 62, 60
13, 191425, Note_off_c, 12, 62, 64
13, 191480, Note_on_c, 12, 59, 60
13, 191585, Note_off_c, 12, 59, 64
13, 191640, Note_on_c, 12, 55, 60
13, 191745, Note_off_c, 12, 55, 64
13, 191800, Note_on_c, 12, 62, 60
13, 191905, Note_off_c, 12, 62, 64
13, 191960, Note_on_c, 12, 59, 60
13, 192065, Note_off_c, 12, 59, 64
13, 192120, Note_on_c, 12, 67, 60
13, 192225, Note_off_c, 12, 67, 64
13, 192280, Note_on_c, 12, 62, 60
13, 192385, Note_off_c, 12, 62, 64
13, 192440, Note_on_c, 12, 59, 60
13, 192545, Note_off_c, 12, 59, 64
13, 192600, Note_on_c, 12, 55, 60
13, 192705, Note_off_c, 12, 55, 64
13, 192760, Note_on_c, 12, 62, 60
13, 192865, Note_off_c, 12, 62, 64
13, 192920, Note_on_c, 12, 59, 60
13, 193025, Note_off_c, 12, 59, 64
13, 193080, Note_on_c, 12, 67, 60
13, 193185, Note_off_c, 12, 67, 64
13, 193240, Note_on_c, 12, 62, 60
13, 193345, Note_off_c, 12, 62, 64
13, 193400, Note_on_c, 12, 59, 60
13, 193505, Note_off_c, 12, 59, 64
13, 193560, Note_on_c, 12, 55, 60
13, 193665, Note_off_c, 12, 55, 64
13, 193720, Note_on_c, 12, 62, 60
13, 193825, Note_off_c, 12, 62, 64
13, 193880, Note_on_c, 12, 59, 60
13, 193985, Note_off_c, 12, 59, 64
13, 194040, Note_on_c, 12, 67, 60
13, 194145, Note_off_c, 12, 67, 64
13, 194200, Note_on_c, 12, 62, 60
13, 194305, Note_off_c, 12, 62, 64
13, 194360, Note_on_c, 12, 59, 60
13, 194465, Note_off_c, 12, 59, 64
13, 194520, Note_on_c, 12, 55, 60
13, 194625, Note_off_c, 12, 55, 64
13, 194680, Note_on_c, 12, 62, 60
13, 194785, Note_off_c, 12, 62, 64
13, 194840, Note_on_c, 12, 59, 60
13, 194945, Note_off_c, 12, 59, 64
13, 195000, Note_on_c, 12, 67, 60
13, 195105, Note_off_c, 12, 67, 64
13, 195160, Note_on_c, 12, 62, 60
13, 195265, Note_off_c, 12, 62, 64
13, 195320, Note_on_c, 12, 59, 60
13, 195425, Note_off_c, 12, 59, 64
13, 195480, Note_on_c, 12, 55, 60
13, 195585, Note_off_c, 12, 55, 64
13, 195640, Note_on_c, 12, 62, 60
13, 195745, Note_off_c, 12, 62, 64
13, 195800, Note_on_c, 12, 59, 60
13, 195905, Note_off_c, 12, 59, 64
13, 195960, Note_on_c, 12, 67, 60
13, 196065, Note_off_c, 12, 67, 64
13, 196120, Note_on_c, 12, 62, 60
13, 196225, Note_off_c, 12, 62, 64
13, 196280, Note_on_c, 12, 59, 60
13, 196385, Note_off_c, 12, 59, 64
13, 196440, Note_on_c, 12, 55, 60
13, 196545, Note_off_c, 12, 55, 64
13, 196600, Note_on_c, 12, 62, 60
13, 196705, Note_off_c, 12, 62, 64
13, 196760, Note_on_c, 12, 59, 60
13, 196865, Note_off_c, 12, 59, 64
13, 196920, Note_on_c, 12, 67, 60
13, 197025, Note_off_c, 12, 67, 64
13, 197080, Note_on_c, 12, 62, 60
13, 197185, Note_off_c, 12, 62, 64
13, 197240, Note_on_c, 12, 59, 60
13, 197345, Note_off_c, 12, 59, 64
13, 197400, Note_on_c, 12, 55, 60
13, 197505, Note_off_c, 12, 55, 64
13, 197560, Note_on_c, 12, 62, 60
13, 197665, Note_off_c, 12, 62, 64
13, 197720, Note_on_c, 12, 59, 60
13, 197825, Note_off_c, 12, 59, 64
13, 197880, Note_on_c, 12, 67, 60
13, 197985, Note_off_c, 12, 67, 64
13, 198040, Note_on_c, 12, 62, 61
13, 198145, Note_off_c, 12, 62, 64
13, 198200, Note_on_c, 12, 59, 62
13, 198305, Note_off_c, 12, 59, 64
13, 198360, Note_on_c, 12, 55, 63
13, 198465, Note_off_c, 12, 55, 64
13, 198520, Note_on_c, 12, 62, 64
13, 198625, Note_off_c, 12, 62, 64
13, 198680, Note_on_c, 12, 59, 65
13, 198785, Note_off_c, 12, 59, 64
13, 198840, Note_on_c, 12, 67, 66
13, 198945, Note_off_c, 12, 67, 64
13, 199000, Note_on_c, 12, 62, 67
13, 199105, Note_off_c, 12, 62, 64
13, 199160, Note_on_c, 12, 59, 68
13, 199265, Note_off_c, 12, 59, 64
13, 199320, Note_on_c, 12, 55, 69
13, 199425, Note_off_c, 12, 55, 64
13, 199480, Note_on_c, 12, 62, 70
13, 199585, Note_off_c, 12, 62, 64
13, 199640, Note_on_c, 12, 59, 71
13, 199745, Note_off_c, 12, 59, 64
13, 199800, Note_on_c, 12, 67, 72
13, 199905, Note_off_c, 12, 67, 64
13, 199960, Note_on_c, 12, 62, 73
13, 200065, Note_off_c, 12, 62, 64
13, 200120, Note_on_c, 12, 59, 74
13, 200225, Note_off_c, 12, 59, 64
13, 200280, Note_on_c, 12, 52, 75
13, 200385, Note_off_c, 12, 52, 64
13, 200440, Note_on_c, 12, 64, 75
13, 200545, Note_off_c, 12, 64, 64
13, 200600, Note_on_c, 12, 59, 75
13, 200705, Note_off_c, 12, 59, 64
13, 200760, Note_on_c, 12, 68, 75
13, 200865, Note_off_c, 12, 68, 64
13, 200920, Note_on_c, 12, 64, 75
13, 201025, Note_off_c, 12, 64, 64
13, 201080, Note_on_c, 12, 59, 75
13, 201185, Note_off_c, 12, 59, 64
13, 201240, Note_on_c, 12, 52, 75
13, 201345, Note_off_c, 12, 52, 64
13, 201400, Note_on_c, 12, 64, 75
13, 201505, Note_off_c, 12, 64, 64
13, 201560, Note_on_c, 12, 59, 75
13, 201665, Note_off_c, 12, 59, 64
13, 201720, Note_on_c, 12, 68, 75
13, 201825, Note_off_c, 12, 68, 64
13, 201880, Note_on_c, 12, 64, 75
13, 201985, Note_off_c, 12, 64, 64
13, 202040, Note_on_c, 12, 59, 75
13, 202145, Note_off_c, 12, 59, 64
13, 202200, Note_on_c, 12, 52, 75
13, 202305, Note_off_c, 12, 52, 64
13, 202360, Note_on_c, 12, 64, 75
13, 202465, Note_off_c, 12, 64, 64
13, 202520, Note_on_c, 12, 59, 75
13, 202625, Note_off_c, 12, 59, 64
13, 202680, Note_on_c, 12, 68, 75
13, 202785, Note_off_c, 12, 68, 64
13, 202840, Note_on_c, 12, 64, 75
13, 202945, Note_off_c, 12, 64, 64
13, 203000, Note_on_c, 12, 59, 75
13, 203105, Note_off_c, 12, 59, 64
13, 203160, Note_on_c, 12, 52, 75
13, 203265, Note_off_c, 12, 52, 64
13, 203320, Note_on_c, 12, 64, 75
13, 203425, Note_off_c, 12, 64, 64
13, 203480, Note_on_c, 12, 59, 75
13, 203585, Note_off_c, 12, 59, 64
13, 203640, Note_on_c, 12, 68, 75
13, 203745, Note_off_c, 12, 68, 64
13, 203800, Note_on_c, 12, 64, 75
13, 203905, Note_off_c, 12, 64, 64
13, 203960, Note_on_c, 12, 59, 75
13, 204065, Note_off_c, 12, 59, 64
13, 204120, Note_on_c, 12, 52, 75
13, 204225, Note_off_c, 12, 52, 64
13, 204280, Note_on_c, 12, 64, 75
13, 204385, Note_off_c, 12, 64, 64
13, 204440, Note_on_c, 12, 59, 75
13, 204545, Note_off_c, 12, 59, 64
13, 204600, Note_on_c, 12, 68, 75
13, 204705, Note_off_c, 12, 68, 64
13, 204760, Note_on_c, 12, 64, 75
13, 204865, Note_off_c, 12, 64, 64
13, 204920, Note_on_c, 12, 59, 75
13, 205025, Note_off_c, 12, 59, 64
13, 205080, Note_on_c, 12, 52, 75
13, 205185, Note_off_c, 12, 52, 64
13, 205240, Note_on_c, 12, 64, 75
13, 205345, Note_off_c, 12, 64, 64
13, 205400, Note_on_c, 12, 59, 75
13, 205505, Note_off_c, 12, 59, 64
13, 205560, Note_on_c, 12, 68, 75
13, 205665, Note_off_c, 12, 68, 64
13, 205720, Note_on_c, 12, 64, 75
13, 205825, Note_off_c, 12, 64, 64
13, 205880, Note_on_c, 12, 59, 75
13, 205985, Note_off_c, 12, 59, 64
13, 206040, Note_on_c, 12, 52, 75
13, 206145, Note_off_c, 12, 52, 64
13, 206200, Note_on_c, 12, 64, 75
13, 206305, Note_off_c, 12, 64, 64
13, 206360, Note_on_c, 12, 59, 75
13, 206465, Note_off_c, 12, 59, 64
13, 206520, Note_on_c, 12, 68, 75
13, 206625, Note_off_c, 12, 68, 64
13, 206680, Note_on_c, 12, 64, 75
13, 206785, Note_off_c, 12, 64, 64
13, 206840, Note_on_c, 12, 59, 75
13, 206945, Note_off_c, 12, 59, 64
13, 207000, Note_on_c, 12, 52, 75
13, 207105, Note_off_c, 12, 52, 64
13, 207160, Note_on_c, 12, 64, 75
13, 207265, Note_off_c, 12, 64, 64
13, 207320, Note_on_c, 12, 59, 75
13, 207425, Note_off_c, 12, 59, 64
13, 207480, Note_on_c, 12, 68, 75
13, 207585, Note_off_c, 12, 68, 64
13, 207640, Note_on_c, 12, 64, 75
13, 207745, Note_off_c, 12, 64, 64
13, 207800, Note_on_c, 12, 59, 75
13, 207905, Note_off_c, 12, 59, 64
13, 207960, Note_on_c, 12, 52, 75
13, 208065, Note_off_c, 12, 52, 64
13, 208120, Note_on_c, 12, 64, 75
13, 208225, Note_off_c, 12, 64, 64
13, 208280, Note_on_c, 12, 59, 75
13, 208385, Note_off_c, 12, 59, 64
13, 208440, Note_on_c, 12, 68, 75
13, 208545, Note_off_c, 12, 68, 64
13, 208600, Note_on_c, 12, 64, 75
13, 208705, Note_off_c, 12, 64, 64
13, 208760, Note_on_c, 12, 59, 75
13, 208865, Note_off_c, 12, 59, 64
13, 208920, Note_on_c, 12, 52, 75
13, 209025, Note_off_c, 12, 52, 64
13, 209080, Note_on_c, 12, 64, 75
13, 209185, Note_off_c, 12, 64, 64
13, 209240, Note_on_c, 12, 59, 76
13, 209345, Note_off_c, 12, 59, 64
13, 209400, Note_on_c, 12, 68, 77
13, 209505, Note_off_c, 12, 68, 64
13, 209560, Note_on_c, 12, 64, 78
13, 209665, Note_off_c, 12, 64, 64
13, 209720, Note_on_c, 12, 59, 79
13, 209825, Note_off_c, 12, 59, 64
13, 209880, Note_on_c, 12, 52, 80
13, 209985, Note_off_c, 12, 52, 64
13, 210040, Note_on_c, 12, 64, 81
13, 210145, Note_off_c, 12, 64, 64
13, 210200, Note_on_c, 12, 59, 82
13, 210305, Note_off_c, 12, 59, 64
13, 210360, Note_on_c, 12, 68, 83
13, 210465, Note_off_c, 12, 68, 64
13, 210520, Note_on_c, 12, 64, 84
13, 210625, Note_off_c, 12, 64, 64
13, 210680, Note_on_c, 12, 59, 85
13, 210785, Note_off_c, 12, 59, 64
13, 210840, Note_on_c, 12, 52, 86
13, 210945, Note_off_c, 12, 52, 64
13, 211000, Note_on_c, 12, 64, 87
13, 211105, Note_off_c, 12, 64, 64
13, 211160, Note_on_c, 12, 59, 88
13, 211265, Note_off_c, 12, 59, 64
13, 211320, Note_on_c, 12, 68, 89
13, 211425, Note_off_c, 12, 68, 64
13, 211480, Note_on_c, 12, 64, 90
13, 211585, Note_off_c, 12, 64, 64
13, 211640, Note_on_c, 12, 59, 91
13, 211745, Note_off_c, 12, 59, 64
13, 211800, Note_on_c, 12, 64, 92
13, 211855, Note_off_c, 12, 64, 64
13, 211860, Note_on_c, 12, 64, 92
13, 211915, Note_off_c, 12, 64, 64
13, 211920, Note_on_c, 12, 64, 92
13, 211975, Note_off_c, 12, 64, 64
13, 211980, Note_on_c, 12, 64, 92
13, 212035, Note_off_c, 12, 64, 64
13, 212040, Note_on_c, 12, 64, 92
13, 212095, Note_off_c, 12, 64, 64
13, 212100, Note_on_c, 12, 64, 92
13, 212155, Note_off_c, 12, 64, 64
13, 212160, Note_on_c, 12, 64, 92
13, 212215, Note_off_c, 12, 64, 64
13, 212220, Note_on_c, 12, 64, 92
13, 212275, Note_off_c, 12, 64, 64
13, 212280, Note_on_c, 12, 64, 92
13, 212335, Note_off_c, 12, 64, 64
13, 212340, Note_on_c, 12, 64, 92
13, 212395, Note_off_c, 12, 64, 64
13, 212400, Note_on_c, 12, 64, 92
13, 212455, Note_off_c, 12, 64, 64
13, 212460, Note_on_c, 12, 64, 92
13, 212515, Note_off_c, 12, 64, 64
13, 212520, Note_on_c, 12, 64, 92
13, 212575, Note_off_c, 12, 64, 64
13, 212580, Note_on_c, 12, 64, 92
13, 212635, Note_off_c, 12, 64, 64
13, 212640, Note_on_c, 12, 64, 92
13, 212695, Note_off_c, 12, 64, 64
13, 212700, Note_on_c, 12, 64, 92
13, 212755, Note_off_c, 12, 64, 64
13, 212760, Note_on_c, 12, 64, 92
13, 212815, Note_off_c, 12, 64, 64
13, 212820, Note_on_c, 12, 64, 92
13, 212875, Note_off_c, 12, 64, 64
13, 212880, Note_on_c, 12, 64, 92
13, 212935, Note_off_c, 12, 64, 64
13, 212940, Note_on_c, 12, 64, 92
13, 212995, Note_off_c, 12, 64, 64
13, 213000, Note_on_c, 12, 64, 92
13, 213055, Note_off_c, 12, 64, 64
13, 213060, Note_on_c, 12, 64, 92
13, 213115, Note_off_c, 12, 64, 64
13, 213120, Note_on_c, 12, 64, 92
13, 213175, Note_off_c, 12, 64, 64
13, 213180, Note_on_c, 12, 64, 92
13, 213235, Note_off_c, 12, 64, 64
13, 213240, Note_on_c, 12, 64, 92
13, 213295, Note_off_c, 12, 64, 64
13, 213300, Note_on_c, 12, 64, 92
13, 213355, Note_off_c, 12, 64, 64
13, 213360, Note_on_c, 12, 64, 92
13, 213415, Note_off_c, 12, 64, 64
13, 213420, Note_on_c, 12, 64, 92
13, 213475, Note_off_c, 12, 64, 64
13, 213480, Note_on_c, 12, 64, 92
13, 213535, Note_off_c, 12, 64, 64
13, 213540, Note_on_c, 12, 64, 92
13, 213595, Note_off_c, 12, 64, 64
13, 213600, Note_on_c, 12, 64, 92
13, 213655, Note_off_c, 12, 64, 64
13, 213660, Note_on_c, 12, 64, 92
13, 213715, Note_off_c, 12, 64, 64
13, 213720, Note_on_c, 12, 64, 92
13, 213775, Note_off_c, 12, 64, 64
13, 213780, Note_on_c, 12, 64, 92
13, 213835, Note_off_c, 12, 64, 64
13, 213840, Note_on_c, 12, 64, 92
13, 213895, Note_off_c, 12, 64, 64
13, 213900, Note_on_c, 12, 64, 92
13, 213955, Note_off_c, 12, 64, 64
13, 213960, Note_on_c, 12, 64, 92
13, 214015, Note_off_c, 12, 64, 64
13, 214020, Note_on_c, 12, 64, 92
13, 214075, Note_off_c, 12, 64, 64
13, 214080, Note_on_c, 12, 64, 92
13, 214135, Note_off_c, 12, 64, 64
13, 214140, Note_on_c, 12, 64, 92
13, 214195, Note_off_c, 12, 64, 64
13, 214200, Note_on_c, 12, 64, 92
13, 214255, Note_off_c, 12, 64, 64
13, 214260, Note_on_c, 12, 64, 92
13, 214315, Note_off_c, 12, 64, 64
13, 214320, Note_on_c, 12, 64, 92
13, 214375, Note_off_c, 12, 64, 64
13, 214380, Note_on_c, 12, 64, 92
13, 214435, Note_off_c, 12, 64, 64
13, 214440, Note_on_c, 12, 64, 92
13, 214495, Note_off_c, 12, 64, 64
13, 214500, Note_on_c, 12, 64, 92
13, 214555, Note_off_c, 12, 64, 64
13, 214560, Note_on_c, 12, 64, 92
13, 214615, Note_off_c, 12, 64, 64
13, 214620, Note_on_c, 12, 64, 92
13, 214675, Note_off_c, 12, 64, 64
13, 214680, Note_on_c, 12, 64, 92
13, 214735, Note_off_c, 12, 64, 64
13, 214740, Note_on_c, 12, 64, 92
13, 214795, Note_off_c, 12, 64, 64
13, 214800, Note_on_c, 12, 64, 92
13, 214855, Note_off_c, 12, 64, 64
13, 214860, Note_on_c, 12, 64, 92
13, 214915, Note_off_c, 12, 64, 64
13, 214920, Note_on_c, 12, 64, 92
13, 214975, Note_off_c, 12, 64, 64
13, 214980, Note_on_c, 12, 64, 92
13, 215035, Note_off_c, 12, 64, 64
13, 215040, Note_on_c, 12, 64, 92
13, 215095, Note_off_c, 12, 64, 64
13, 215100, Note_on_c, 12, 64, 92
13, 215155, Note_off_c, 12, 64, 64
13, 215160, Note_on_c, 12, 64, 92
13, 215215, Note_off_c, 12, 64, 64
13, 215220, Note_on_c, 12, 64, 92
13, 215275, Note_off_c, 12, 64, 64
13, 215280, Note_on_c, 12, 64, 92
13, 215335, Note_off_c, 12, 64, 64
13, 215340, Note_on_c, 12, 64, 92
13, 215395, Note_off_c, 12, 64, 64
13, 215400, Note_on_c, 12, 64, 92
13, 215455, Note_off_c, 12, 64, 64
13, 215460, Note_on_c, 12, 64, 92
13, 215515, Note_off_c, 12, 64, 64
13, 215520, Note_on_c, 12, 64, 92
13, 215575, Note_off_c, 12, 64, 64
13, 215580, Note_on_c, 12, 64, 92
13, 215635, Note_off_c, 12, 64, 64
13, 215640, Note_on_c, 12, 64, 92
13, 215720, Note_off_c, 12, 64, 64
13, 215880, Note_on_c, 12, 59, 92
13, 216000, Note_off_c, 12, 59, 64
13, 216000, Note_on_c, 12, 57, 92
13, 216120, Note_off_c, 12, 57, 64
13, 216120, Note_on_c, 12, 56, 92
13, 216200, Note_off_c, 12, 56, 64
13, 216360, Note_on_c, 12, 52, 92
13, 216440, Note_off_c, 12, 52, 64
13, 217560, Note_on_c, 12, 64, 92
13, 217640, Note_off_c, 12, 64, 64
13, 217800, Note_on_c, 12, 59, 92
13, 217920, Note_off_c, 12, 59, 64
13, 217920, Note_on_c, 12, 57, 92
13, 218040, Note_off_c, 12, 57, 64
13, 218040, Note_on_c, 12, 56, 92
13, 218120, Note_off_c, 12, 56, 64
13, 218280, Note_on_c, 12, 52, 92
13, 218360, Note_off_c, 12, 52, 64
13, 229080, Note_on_c, 12, 69, 60
13, 229920, Note_off_c, 12, 69, 64
13, 230040, Note_on_c, 12, 64, 60
13, 232800, Note_off_c, 12, 64, 64
13, 232920, Note_on_c, 12, 57, 60
13, 234720, Note_off_c, 12, 57, 64
13, 234840, Note_on_c, 12, 50, 60
13, 235320, Note_off_c, 12, 50, 64
13, 235320, Note_on_c, 12, 57, 60
13, 235720, Note_off_c, 12, 57, 64
13, 235800, Note_on_c, 12, 52, 60
13, 236640, Note_off_c, 12, 52, 64
13, 236760, Note_on_c, 12, 49, 60
13, 237240, Note_off_c, 12, 49, 64
13, 237240, Note_on_c, 12, 52, 60
13, 237720, Note_off_c, 12, 52, 64
13, 237720, Note_on_c, 12, 50, 60
13, 238440, Note_off_c, 12, 50, 64
13, 238440, Note_on_c, 12, 49, 60
13, 238675, Note_off_c, 12, 49, 64
13, 238680, Note_on_c, 12, 54, 60
13, 239160, Note_off_c, 12, 54, 64
13, 239160, Note_on_c, 12, 52, 60
13, 239640, Note_off_c, 12, 52, 64
13, 239640, Note_on_c, 12, 50, 60
13, 239720, Note_off_c, 12, 50, 64
13, 239880, Note_on_c, 12, 50, 60
13, 240000, Note_off_c, 12, 50, 64
13, 240000, Note_on_c, 12, 52, 60
13, 240120, Note_off_c, 12, 52, 64
13, 240120, Note_on_c, 12, 54, 60
13, 240360, Note_off_c, 12, 54, 64
13, 240360, Note_on_c, 12, 50, 60
13, 240595, Note_off_c, 12, 50, 64
13, 240600, Note_on_c, 12, 52, 60
13, 241080, Note_off_c, 12, 52, 64
13, 241080, Note_on_c, 12, 55, 60
13, 241560, Note_off_c, 12, 55, 64
13, 241560, Note_on_c, 12, 54, 60
13, 242280, Note_off_c, 12, 54, 64
13, 242280, Note_on_c, 12, 52, 60
13, 242515, Note_off_c, 12, 52, 64
13, 242520, Note_on_c, 12, 57, 60
13, 243000, Note_off_c, 12, 57, 64
13, 243000, Note_on_c, 12, 55, 60
13, 243480, Note_off_c, 12, 55, 64
13, 243480, Note_on_c, 12, 54, 60
13, 243560, Note_off_c, 12, 54, 64
13, 243720, Note_on_c, 12, 54, 60
13, 243840, Note_off_c, 12, 54, 64
13, 243840, Note_on_c, 12, 55, 60
13, 243960, Note_off_c, 12, 55, 64
13, 243960, Note_on_c, 12, 57, 60
13, 244200, Note_off_c, 12, 57, 64
13, 244200, Note_on_c, 12, 54, 60
13, 244435, Note_off_c, 12, 54, 64
13, 244440, Program_c, 12, 48
13, 244440, Note_on_c, 12, 54, 60
13, 244920, Note_off_c, 12, 54, 64
13, 244920, Note_on_c, 12, 57, 60
13, 245400, Note_off_c, 12, 57, 64
13, 245400, Note_on_c, 12, 55, 60
13, 246120, Note_off_c, 12, 55, 64
13, 246120, Note_on_c, 12, 54, 60
13, 246355, Note_off_c, 12, 54, 64
13, 246360, Note_on_c, 12, 58, 60
13, 246840, Note_off_c, 12, 58, 64
13, 246840, Note_on_c, 12, 57, 60
13, 247320, Note_off_c, 12, 57, 64
13, 247320, Note_on_c, 12, 55, 60
13, 247400, Note_off_c, 12, 55, 64
13, 247560, Note_on_c, 12, 55, 60
13, 247680, Note_off_c, 12, 55, 64
13, 247680, Note_on_c, 12, 57, 60
13, 247800, Note_off_c, 12, 57, 64
13, 247800, Note_on_c, 12, 58, 60
13, 248040, Note_off_c, 12, 58, 64
13, 248040, Note_on_c, 12, 55, 60
13, 248275, Note_off_c, 12, 55, 64
13, 248280, Note_on_c, 12, 50, 45
13, 248360, Note_off_c, 12, 50, 64
13, 248400, Note_on_c, 12, 57, 46
13, 248480, Note_off_c, 12, 57, 64
13, 248520, Note_on_c, 12, 60, 47
13, 248600, Note_off_c, 12, 60, 64
13, 248640, Note_on_c, 12, 57, 48
13, 248720, Note_off_c, 12, 57, 64
13, 248760, Note_on_c, 12, 50, 49
13, 248840, Note_off_c, 12, 50, 64
13, 248880, Note_on_c, 12, 54, 50
13, 248960, Note_off_c, 12, 54, 64
13, 249000, Note_on_c, 12, 57, 51
13, 249080, Note_off_c, 12, 57, 64
13, 249120, Note_on_c, 12, 54, 52
13, 249200, Note_off_c, 12, 54, 64
13, 249240, Note_on_c, 12, 50, 53
13, 249320, Note_off_c, 12, 50, 64
13, 249360, Note_on_c, 12, 55, 54
13, 249440, Note_off_c, 12, 55, 64
13, 249480, Note_on_c, 12, 58, 55
13, 249560, Note_off_c, 12, 58, 64
13, 249600, Note_on_c, 12, 55, 56
13, 249680, Note_off_c, 12, 55, 64
13, 249720, Note_on_c, 12, 50, 57
13, 249800, Note_off_c, 12, 50, 64
13, 249840, Note_on_c, 12, 57, 58
13, 249920, Note_off_c, 12, 57, 64
13, 249960, Note_on_c, 12, 60, 59
13, 250040, Note_off_c, 12, 60, 64
13, 250080, Note_on_c, 12, 57, 60
13, 250160, Note_off_c, 12, 57, 64
13, 250200, Note_on_c, 12, 50, 61
13, 250280, Note_off_c, 12, 50, 64
13, 250320, Note_on_c, 12, 55, 62
13, 250400, Note_off_c, 12, 55, 64
13, 250440, Note_on_c, 12, 59, 64
13, 250520, Note_off_c, 12, 59, 64
13, 250560, Note_on_c, 12, 55, 66
13, 250640, Note_off_c, 12, 55, 64
13, 250680, Note_on_c, 12, 52, 68
13, 250760, Note_off_c, 12, 52, 64
13, 250800, Note_on_c, 12, 55, 70
13, 250880, Note_off_c, 12, 55, 64
13, 250920, Note_on_c, 12, 60, 72
13, 251000, Note_off_c, 12, 60, 64
13, 251040, Note_on_c, 12, 55, 74
13, 251120, Note_off_c, 12, 55, 64
13, 251160, Note_on_c, 12, 53, 76
13, 251240, Note_off_c, 12, 53, 64
13, 251280, Note_on_c, 12, 55, 78
13, 251360, Note_off_c, 12, 55, 64
13, 251400, Note_on_c, 12, 62, 80
13, 251480, Note_off_c, 12, 62, 64
13, 251520, Note_on_c, 12, 55, 82
13, 251600, Note_off_c, 12, 55, 64
13, 251640, Note_on_c, 12, 53, 84
13, 251720, Note_off_c, 12, 53, 64
13, 251760, Note_on_c, 12, 55, 86
13, 251840, Note_off_c, 12, 55, 64
13, 251880, Note_on_c, 12, 53, 88
13, 251960, Note_off_c, 12, 53, 64
13, 252000, Note_on_c, 12, 55, 90
13, 252080, Note_off_c, 12, 55, 64
13, 252120, Program_c, 12, 48
13, 252120, Note_on_c, 12, 64, 92
13, 252600, Note_off_c, 12, 64, 64
13, 252600, Note_on_c, 12, 67, 92
13, 253000, Note_off_c, 12, 67, 64
13, 253080, Note_on_c, 12, 65, 92
13, 253800, Note_off_c, 12, 65, 64
13, 253800, Note_on_c, 12, 64, 92
13, 254035, Note_off_c, 12, 64, 64
13, 254040, Note_on_c, 12, 69, 92
13, 254520, Note_off_c, 12, 69, 64
13, 254520, Note_on_c, 12, 67, 92
13, 255000, Note_off_c, 12, 67, 64
13, 255000, Note_on_c, 12, 65, 92
13, 255080, Note_off_c, 12, 65, 64
13, 255240, Note_on_c, 12, 65, 92
13, 255360, Note_off_c, 12, 65, 64
13, 255360, Note_on_c, 12, 67, 92
13, 255480, Note_off_c, 12, 67, 64
13, 255480, Note_on_c, 12, 69, 92
13, 255560, Note_off_c, 12, 69, 64
13, 255720, Note_on_c, 12, 65, 92
13, 255800, Note_off_c, 12, 65, 64
13, 255960, Note_on_c, 12, 67, 92
13, 256440, Note_off_c, 12, 67, 64
13, 256440, Note_on_c, 12, 70, 92
13, 256840, Note_off_c, 12, 70, 64
13, 256920, Note_on_c, 12, 69, 92
13, 257640, Note_off_c, 12, 69, 64
13, 257640, Note_on_c, 12, 67, 92
13, 257875, Note_off_c, 12, 67, 64
13, 257880, Note_on_c, 12, 72, 92
13, 258360, Note_off_c, 12, 72, 64
13, 258360, Note_on_c, 12, 70, 92
13, 258840, Note_off_c, 12, 70, 64
13, 258840, Note_on_c, 12, 69, 92
13, 258920, Note_off_c, 12, 69, 64
13, 259080, Note_on_c, 12, 69, 92
13, 259200, Note_off_c, 12, 69, 64
13, 259200, Note_on_c, 12, 70, 92
13, 259320, Note_off_c, 12, 70, 64
13, 259320, Note_on_c, 12, 72, 92
13, 259400, Note_off_c, 12, 72, 64
13, 259560, Note_on_c, 12, 69, 92
13, 259640, Note_off_c, 12, 69, 64
13, 259800, Note_on_c, 12, 74, 92
13, 260280, Note_off_c, 12, 74, 64
13, 260280, Note_on_c, 12, 72, 92
13, 260760, Note_off_c, 12, 72, 64
13, 260760, Note_on_c, 12, 70, 92
13, 260840, Note_off_c, 12, 70, 64
13, 261000, Note_on_c, 12, 67, 92
13, 261120, Note_off_c, 12, 67, 64
13, 261120, Note_on_c, 12, 69, 92
13, 261240, Note_off_c, 12, 69, 64
13, 261240, Note_on_c, 12, 70, 92
13, 261320, Note_off_c, 12, 70, 64
13, 261480, Note_on_c, 12, 72, 92
13, 261560, Note_off_c, 12, 72, 64
13, 261720, Note_on_c, 12, 74, 92
13, 262200, Note_off_c, 12, 74, 64
13, 262200, Note_on_c, 12, 72, 92
13, 262680, Note_off_c, 12, 72, 64
13, 262680, Note_on_c, 12, 70, 92
13, 262760, Note_off_c, 12, 70, 64
13, 262920, Note_on_c, 12, 67, 92
13, 263040, Note_off_c, 12, 67, 64
13, 263040, Note_on_c, 12, 69, 92
13, 263160, Note_off_c, 12, 69, 64
13, 263160, Note_on_c, 12, 70, 92
13, 263240, Note_off_c, 12, 70, 64
13, 263400, Note_on_c, 12, 72, 92
13, 263480, Note_off_c, 12, 72, 64
13, 263640, Program_c, 12, 48
13, 263640, Note_on_c, 12, 74, 92
13, 263875, Note_off_c, 12, 74, 64
13, 264840, Note_on_c, 12, 53, 92
13, 264920, Note_off_c, 12, 53, 64
13, 264920, Note_on_c, 12, 55, 92
13, 265000, Note_off_c, 12, 55, 64
13, 265000, Note_on_c, 12, 57, 92
13, 265080, Note_off_c, 12, 57, 64
13, 265080, Note_on_c, 12, 58, 92
13, 265160, Note_off_c, 12, 58, 64
13, 265320, Note_on_c, 12, 60, 92
13, 265400, Note_off_c, 12, 60, 64
13, 265560, Note_on_c, 12, 62, 92
13, 265795, Note_off_c, 12, 62, 64
13, 266760, Note_on_c, 12, 53, 45
13, 266880, Note_off_c, 12, 53, 64
13, 266880, Note_on_c, 12, 55, 45
13, 267000, Note_off_c, 12, 55, 64
13, 267000, Note_on_c, 12, 57, 45
13, 267080, Note_off_c, 12, 57, 64
13, 267240, Note_on_c, 12, 58, 45
13, 267320, Note_off_c, 12, 58, 64
13, 267480, Note_on_c, 12, 60, 45
13, 267560, Note_off_c, 12, 60, 64
13, 267720, Note_on_c, 12, 57, 45
13, 267960, Note_off_c, 12, 57, 64
13, 267960, Note_on_c, 12, 58, 45
13, 268040, Note_off_c, 12, 58, 64
13, 268200, Note_on_c, 12, 62, 45
13, 268280, Note_off_c, 12, 62, 64
13, 268440, Note_on_c, 12, 60, 45
13, 268680, Note_off_c, 12, 60, 64
13, 268680, Note_on_c, 12, 58, 45
13, 268800, Note_off_c, 12, 58, 64
13, 268800, Note_on_c, 12, 57, 45
13, 268920, Note_off_c, 12, 57, 64
13, 268920, Note_on_c, 12, 55, 45
13, 269000, Note_off_c, 12, 55, 64
13, 269160, Note_on_c, 12, 48, 45
13, 269240, Note_off_c, 12, 48, 64
13, 269400, Note_on_c, 12, 53, 45
13, 269480, Note_off_c, 12, 53, 64
13, 269640, Note_on_c, 12, 55, 45
13, 269720, Note_off_c, 12, 55, 64
13, 269880, Note_on_c, 12, 57, 45
13, 270120, Note_off_c, 12, 57, 64
13, 270120, Note_on_c, 12, 58, 45
13, 270240, Note_off_c, 12, 58, 64
13, 270240, Note_on_c, 12, 57, 45
13, 270355, Note_off_c, 12, 57, 64
13, 270360, Note_on_c, 12, 55, 45
13, 271200, Note_off_c, 12, 55, 64
13, 277080, Note_on_c, 12, 53, 60
13, 277560, Note_off_c, 12, 53, 64
13, 277560, Note_on_c, 12, 50, 60
13, 278040, Note_off_c, 12, 50, 64
13, 278040, Note_on_c, 12, 52, 60
13, 278760, Note_off_c, 12, 52, 64
13, 278760, Note_on_c, 12, 48, 60
13, 278995, Note_off_c, 12, 48, 64
13, 279000, Note_on_c, 12, 53, 60
13, 279480, Note_off_c, 12, 53, 64
13, 279480, Note_on_c, 12, 50, 60
13, 279960, Note_off_c, 12, 50, 64
13, 279960, Note_on_c, 12, 52, 60
13, 280680, Note_off_c, 12, 52, 64
13, 280680, Note_on_c, 12, 48, 60
13, 280915, Note_off_c, 12, 48, 64
13, 280920, Note_on_c, 12, 53, 60
13, 283680, Note_off_c, 12, 53, 64
13, 283800, Note_on_c, 12, 52, 60
13, 284640, Note_off_c, 12, 52, 64
13, 284760, Note_on_c, 12, 53, 45
13, 285240, Note_off_c, 12, 53, 64
13, 285240, Note_on_c, 12, 57, 45
13, 285640, Note_off_c, 12, 57, 64
13, 285720, Note_on_c, 12, 55, 45
13, 286440, Note_off_c, 12, 55, 64
13, 286440, Note_on_c, 12, 53, 45
13, 286675, Note_off_c, 12, 53, 64
13, 286680, Note_on_c, 12, 58, 45
13, 287160, Note_off_c, 12, 58, 64
13, 287160, Note_on_c, 12, 57, 45
13, 287560, Note_off_c, 12, 57, 64
13, 287640, Note_on_c, 12, 48, 45
13, 288280, Note_off_c, 12, 48, 64
13, 288360, Note_on_c, 12, 48, 45
13, 288595, Note_off_c, 12, 48, 64
13, 288600, Note_on_c, 12, 48, 45
13, 289240, Note_off_c, 12, 48, 64
13, 289320, Note_on_c, 12, 48, 45
13, 289555, Note_off_c, 12, 48, 64
13, 289560, Note_on_c, 12, 48, 45
13, 290200, Note_off_c, 12, 48, 64
13, 290280, Note_on_c, 12, 48, 45
13, 290515, Note_off_c, 12, 48, 64
13, 290520, Note_on_c, 12, 48, 45
13, 291160, Note_off_c, 12, 48, 64
13, 291240, Note_on_c, 12, 48, 56
13, 291475, Note_off_c, 12, 48, 64
13, 291480, Note_on_c, 12, 48, 60
13, 291640, Note_off_c, 12, 48, 64
13, 291640, Note_on_c, 12, 60, 60
13, 291745, Note_off_c, 12, 60, 64
13, 291800, Note_on_c, 12, 58, 60
13, 291905, Note_off_c, 12, 58, 64
13, 291960, Note_on_c, 12, 57, 60
13, 292065, Note_off_c, 12, 57, 64
13, 292120, Note_on_c, 12, 55, 60
13, 292225, Note_off_c, 12, 55, 64
13, 292280, Note_on_c, 12, 53, 60
13, 292385, Note_off_c, 12, 53, 64
13, 292440, Note_on_c, 12, 52, 60
13, 292545, Note_off_c, 12, 52, 64
13, 292600, Note_on_c, 12, 60, 60
13, 292760, Note_off_c, 12, 60, 64
13, 292760, Note_on_c, 12, 58, 60
13, 292865, Note_off_c, 12, 58, 64
13, 292920, Note_on_c, 12, 57, 60
13, 293025, Note_off_c, 12, 57, 64
13, 293080, Note_on_c, 12, 55, 60
13, 293185, Note_off_c, 12, 55, 64
13, 293240, Note_on_c, 12, 53, 60
13, 293345, Note_off_c, 12, 53, 64
13, 293400, Note_on_c, 12, 52, 60
13, 293505, Note_off_c, 12, 52, 64
13, 293560, Note_on_c, 12, 60, 60
13, 293720, Note_off_c, 12, 60, 64
13, 293720, Note_on_c, 12, 58, 60
13, 293825, Note_off_c, 12, 58, 64
13, 293880, Note_on_c, 12, 57, 60
13, 293985, Note_off_c, 12, 57, 64
13, 294040, Note_on_c, 12, 55, 60
13, 294145, Note_off_c, 12, 55, 64
13, 294200, Note_on_c, 12, 53, 60
13, 294305, Note_off_c, 12, 53, 64
13, 294360, Note_on_c, 12, 52, 60
13, 294465, Note_off_c, 12, 52, 64
13, 294520, Note_on_c, 12, 60, 60
13, 294680, Note_off_c, 12, 60, 64
13, 294680, Note_on_c, 12, 58, 60
13, 294785, Note_off_c, 12, 58, 64
13, 294840, Note_on_c, 12, 57, 60
13, 294945, Note_off_c, 12, 57, 64
13, 295000, Note_on_c, 12, 55, 60
13, 295105, Note_off_c, 12, 55, 64
13, 295160, Note_on_c, 12, 53, 60
13, 295265, Note_off_c, 12, 53, 64
13, 295320, Note_on_c, 12, 60, 60
13, 295400, Note_off_c, 12, 60, 64
13, 295560, Note_on_c, 12, 55, 62
13, 295680, Note_off_c, 12, 55, 64
13, 295680, Note_on_c, 12, 57, 63
13, 295800, Note_off_c, 12, 57, 64
13, 295800, Note_on_c, 12, 58, 63
13, 295880, Note_off_c, 12, 58, 64
13, 296040, Note_on_c, 12, 59, 65
13, 296120, Note_off_c, 12, 59, 64
13, 296280, Note_on_c, 12, 60, 67
13, 296360, Note_off_c, 12, 60, 64
13, 296520, Note_on_c, 12, 57, 69
13, 296640, Note_off_c, 12, 57, 64
13, 296640, Note_on_c, 12, 58, 70
13, 296760, Note_off_c, 12, 58, 64
13, 296760, Note_on_c, 12, 60, 71
13, 296840, Note_off_c, 12, 60, 64
13, 297000, Note_on_c, 12, 61, 73
13, 297080, Note_off_c, 12, 61, 64
13, 297240, Note_on_c, 12, 62, 75
13, 297320, Note_off_c, 12, 62, 64
13, 297480, Note_on_c, 12, 58, 77
13, 297600, Note_off_c, 12, 58, 64
13, 297600, Note_on_c, 12, 60, 78
13, 297720, Note_off_c, 12, 60, 64
13, 297720, Note_on_c, 12, 62, 79
13, 297800, Note_off_c, 12, 62, 64
13, 297960, Note_on_c, 12, 64, 81
13, 298040, Note_off_c, 12, 64, 64
13, 298200, Note_on_c, 12, 65, 83
13, 298280, Note_off_c, 12, 65, 64
13, 298440, Note_on_c, 12, 62, 85
13, 298560, Note_off_c, 12, 62, 64
13, 298560, Note_on_c, 12, 64, 86
13, 298645, Note_off_c, 12, 64, 64
13, 298680, Note_on_c, 12, 65, 87
13, 298760, Note_off_c, 12, 65, 64
13, 298920, Note_on_c, 12, 67, 89
13, 299000, Note_off_c, 12, 67, 64
13, 299160, Note_on_c, 12, 53, 92
13, 299395, Note_off_c, 12, 53, 64
13, 299400, Note_on_c, 12, 60, 92
13, 299635, Note_off_c, 12, 60, 64
13, 299640, Note_on_c, 12, 60, 92
13, 299875, Note_off_c, 12, 60, 64
13, 299880, Note_on_c, 12, 60, 92
13, 300115, Note_off_c, 12, 60, 64
13, 300120, Note_on_c, 12, 60, 92
13, 300355, Note_off_c, 12, 60, 64
13, 300360, Note_on_c, 12, 60, 92
13, 300595, Note_off_c, 12, 60, 64
13, 300600, Note_on_c, 12, 60, 92
13, 300835, Note_off_c, 12, 60, 64
13, 300840, Note_on_c, 12, 60, 92
13, 301075, Note_off_c, 12, 60, 64
13, 301080, Note_on_c, 12, 60, 92
13, 301315, Note_off_c, 12, 60, 64
13, 301320, Note_on_c, 12, 60, 92
13, 301555, Note_off_c, 12, 60, 64
13, 301560, Note_on_c, 12, 60, 92
13, 301795, Note_off_c, 12, 60, 64
13, 301800, Note_on_c, 12, 60, 92
13, 302035, Note_off_c, 12, 60, 64
13, 302040, Note_on_c, 12, 60, 92
13, 302275, Note_off_c, 12, 60, 64
13, 302280, Note_on_c, 12, 60, 92
13, 302515, Note_off_c, 12, 60, 64
13, 302520, Note_on_c, 12, 60, 92
13, 302755, Note_off_c, 12, 60, 64
13, 302760, Note_on_c, 12, 60, 92
13, 302995, Note_off_c, 12, 60, 64
13, 303000, Note_on_c, 12, 60, 92
13, 303235, Note_off_c, 12, 60, 64
13, 303240, Note_on_c, 12, 60, 92
13, 303475, Note_off_c, 12, 60, 64
13, 303480, Note_on_c, 12, 60, 92
13, 303715, Note_off_c, 12, 60, 64
13, 303720, Note_on_c, 12, 60, 92
13, 303955, Note_off_c, 12, 60, 64
13, 303960, Note_on_c, 12, 60, 92
13, 304195, Note_off_c, 12, 60, 64
13, 304200, Note_on_c, 12, 60, 92
13, 304435, Note_off_c, 12, 60, 64
13, 304440, Note_on_c, 12, 60, 92
13, 304675, Note_off_c, 12, 60, 64
13, 304680, Note_on_c, 12, 60, 92
13, 304915, Note_off_c, 12, 60, 64
13, 304920, Note_on_c, 12, 60, 92
13, 305155, Note_off_c, 12, 60, 64
13, 305160, Note_on_c, 12, 60, 92
13, 305395, Note_off_c, 12, 60, 64
13, 305400, Note_on_c, 12, 60, 92
13, 305635, Note_off_c, 12, 60, 64
13, 305640, Note_on_c, 12, 60, 92
13, 305875, Note_off_c, 12, 60, 64
13, 305880, Note_on_c, 12, 60, 92
13, 306115, Note_off_c, 12, 60, 64
13, 306120, Note_on_c, 12, 60, 92
13, 306355, Note_off_c, 12, 60, 64
13, 306360, Note_on_c, 12, 60, 92
13, 306595, Note_off_c, 12, 60, 64
13, 306600, Note_on_c, 12, 60, 92
13, 306835, Note_off_c, 12, 60, 64
13, 306840, Note_on_c, 12, 60, 92
13, 307075, Note_off_c, 12, 60, 64
13, 307080, Note_on_c, 12, 60, 92
13, 307315, Note_off_c, 12, 60, 64
13, 307320, Note_on_c, 12, 60, 92
13, 307555, Note_off_c, 12, 60, 64
13, 307560, Note_on_c, 12, 60, 92
13, 307795, Note_off_c, 12, 60, 64
13, 307800, Note_on_c, 12, 60, 92
13, 308035, Note_off_c, 12, 60, 64
13, 308040, Note_on_c, 12, 60, 92
13, 308275, Note_off_c, 12, 60, 64
13, 308280, Note_on_c, 12, 60, 92
13, 308515, Note_off_c, 12, 60, 64
13, 308520, Note_on_c, 12, 60, 92
13, 308755, Note_off_c, 12, 60, 64
13, 308760, Note_on_c, 12, 60, 92
13, 308995, Note_off_c, 12, 60, 64
13, 309000, Note_on_c, 12, 60, 92
13, 309235, Note_off_c, 12, 60, 64
13, 309240, Note_on_c, 12, 60, 92
13, 309475, Note_off_c, 12, 60, 64
13, 309480, Note_on_c, 12, 60, 92
13, 309715, Note_off_c, 12, 60, 64
13, 309720, Note_on_c, 12, 60, 92
13, 309955, Note_off_c, 12, 60, 64
13, 309960, Note_on_c, 12, 60, 92
13, 310195, Note_off_c, 12, 60, 64
13, 310200, Note_on_c, 12, 60, 92
13, 310435, Note_off_c, 12, 60, 64
13, 310440, Note_on_c, 12, 60, 92
13, 310675, Note_off_c, 12, 60, 64
13, 310680, Note_on_c, 12, 60, 92
13, 310915, Note_off_c, 12, 60, 64
13, 310920, Note_on_c, 12, 60, 92
13, 311155, Note_off_c, 12, 60, 64
13, 311160, Note_on_c, 12, 60, 92
13, 311395, Note_off_c, 12, 60, 64
13, 311400, Note_on_c, 12, 60, 92
13, 311635, Note_off_c, 12, 60, 64
13, 311640, Note_on_c, 12, 60, 92
13, 311875, Note_off_c, 12, 60, 64
13, 311880, Note_on_c, 12, 60, 92
13, 312115, Note_off_c, 12, 60, 64
13, 312120, Note_on_c, 12, 60, 92
13, 312355, Note_off_c, 12, 60, 64
13, 312360, Note_on_c, 12, 60, 92
13, 312595, Note_off_c, 12, 60, 64
13, 312600, Note_on_c, 12, 60, 92
13, 312835, Note_off_c, 12, 60, 64
13, 312840, Note_on_c, 12, 60, 92
13, 313075, Note_off_c, 12, 60, 64
13, 313080, Note_on_c, 12, 60, 92
13, 313315, Note_off_c, 12, 60, 64
13, 313320, Note_on_c, 12, 60, 92
13, 313555, Note_off_c, 12, 60, 64
13, 313560, Note_on_c, 12, 60, 92
13, 313795, Note_off_c, 12, 60, 64
13, 313800, Note_on_c, 12, 60, 92
13, 314035, Note_off_c, 12, 60, 64
13, 314040, Note_on_c, 12, 60, 92
13, 314275, Note_off_c, 12, 60, 64
13, 314280, Note_on_c, 12, 60, 92
13, 314515, Note_off_c, 12, 60, 64
13, 314520, Note_on_c, 12, 53, 60
13, 314675, Note_off_c, 12, 53, 64
13, 314680, Note_on_c, 12, 53, 60
13, 314680, Note_on_c, 12, 57, 60
13, 314835, Note_off_c, 12, 57, 64
13, 314835, Note_off_c, 12, 53, 64
13, 314840, Note_on_c, 12, 53, 60
13, 314840, Note_on_c, 12, 57, 60
13, 314995, Note_off_c, 12, 57, 64
13, 314995, Note_off_c, 12, 53, 64
13, 315000, Note_on_c, 12, 53, 60
13, 315000, Note_on_c, 12, 57, 60
13, 315155, Note_off_c, 12, 57, 64
13, 315155, Note_off_c, 12, 53, 64
13, 315160, Note_on_c, 12, 53, 60
13, 315160, Note_on_c, 12, 57, 60
13, 315315, Note_off_c, 12, 57, 64
13, 315315, Note_off_c, 12, 53, 64
13, 315320, Note_on_c, 12, 53, 60
13, 315320, Note_on_c, 12, 57, 60
13, 315475, Note_off_c, 12, 57, 64
13, 315475, Note_off_c, 12, 53, 64
13, 315480, Note_on_c, 12, 53, 60
13, 315480, Note_on_c, 12, 57, 60
13, 315880, Note_off_c, 12, 57, 64
13, 315880, Note_off_c, 12, 53, 64
13, 318360, Program_c, 12, 48
13, 318360, Note_on_c, 12, 53, 45
13, 318360, Note_on_c, 12, 57, 45
13, 318515, Note_off_c, 12, 57, 64
13, 318515, Note_off_c, 12, 53, 64
13, 318520, Note_on_c, 12, 53, 45
13, 318520, Note_on_c, 12, 57, 45
13, 318675, Note_off_c, 12, 57, 64
13, 318675, Note_off_c, 12, 53, 64
13, 318680, Note_on_c, 12, 53, 45
13, 318680, Note_on_c, 12, 57, 45
13, 318835, Note_off_c, 12, 57, 64
13, 318835, Note_off_c, 12, 53, 64
13, 318840, Note_on_c, 12, 53, 45
13, 318840, Note_on_c, 12, 57, 45
13, 318995, Note_off_c, 12, 57, 64
13, 318995, Note_off_c, 12, 53, 64
13, 319000, Note_on_c, 12, 53, 45
13, 319000, Note_on_c, 12, 57, 45
13, 319155, Note_off_c, 12, 57, 64
13, 319155, Note_off_c, 12, 53, 64
13, 319160, Note_on_c, 12, 53, 45
13, 319160, Note_on_c, 12, 57, 45
13, 319315, Note_off_c, 12, 57, 64
13, 319315, Note_off_c, 12, 53, 64
13, 319320, Note_on_c, 12, 53, 45
13, 319320, Note_on_c, 12, 57, 45
13, 319720, Note_off_c, 12, 57, 64
13, 319720, Note_off_c, 12, 53, 64
13, 322200, Note_on_c, 12, 53, 45
13, 322200, Note_on_c, 12, 57, 45
13, 322355, Note_off_c, 12, 57, 64
13, 322355, Note_off_c, 12, 53, 64
13, 322360, Note_on_c, 12, 53, 45
13, 322360, Note_on_c, 12, 57, 45
13, 322515, Note_off_c, 12, 57, 64
13, 322515, Note_off_c, 12, 53, 64
13, 322520, Note_on_c, 12, 53, 45
13, 322520, Note_on_c, 12, 57, 45
13, 322675, Note_off_c, 12, 57, 64
13, 322675, Note_off_c, 12, 53, 64
13, 322680, Note_on_c, 12, 53, 45
13, 322680, Note_on_c, 12, 57, 45
13, 322835, Note_off_c, 12, 57, 64
13, 322835, Note_off_c, 12, 53, 64
13, 322840, Note_on_c, 12, 53, 45
13, 322840, Note_on_c, 12, 57, 45
13, 322995, Note_off_c, 12, 57, 64
13, 322995, Note_off_c, 12, 53, 64
13, 323000, Note_on_c, 12, 53, 45
13, 323000, Note_on_c, 12, 57, 45
13, 323155, Note_off_c, 12, 57, 64
13, 323155, Note_off_c, 12, 53, 64
13, 323160, Note_on_c, 12, 53, 45
13, 323160, Note_on_c, 12, 57, 45
13, 323560, Note_off_c, 12, 57, 64
13, 323560, Note_off_c, 12, 53, 64
13, 324120, Note_on_c, 12, 50, 45
13, 324120, Note_on_c, 12, 53, 45
13, 324275, Note_off_c, 12, 53, 64
13, 324275, Note_off_c, 12, 50, 64
13, 324280, Note_on_c, 12, 50, 45
13, 324280, Note_on_c, 12, 53, 45
13, 324435, Note_off_c, 12, 53, 64
13, 324435, Note_off_c, 12, 50, 64
13, 324440, Note_on_c, 12, 50, 45
13, 324440, Note_on_c, 12, 53, 45
13, 324595, Note_off_c, 12, 53, 64
13, 324595, Note_off_c, 12, 50, 64
13, 324600, Note_on_c, 12, 50, 45
13, 324600, Note_on_c, 12, 53, 45
13, 324755, Note_off_c, 12, 53, 64
13, 324755, Note_off_c, 12, 50, 64
13, 324760, Note_on_c, 12, 50, 45
13, 324760, Note_on_c, 12, 53, 45
13, 324915, Note_off_c, 12, 53, 64
13, 324915, Note_off_c, 12, 50, 64
13, 324920, Note_on_c, 12, 50, 45
13, 324920, Note_on_c, 12, 53, 45
13, 325075, Note_off_c, 12, 53, 64
13, 325075, Note_off_c, 12, 50, 64
13, 325080, Note_on_c, 12, 50, 45
13, 325080, Note_on_c, 12, 53, 45
13, 325480, Note_off_c, 12, 53, 64
13, 325480, Note_off_c, 12, 50, 64
13, 326040, Note_on_c, 12, 48, 45
13, 326040, Note_on_c, 12, 52, 45
13, 326195, Note_off_c, 12, 52, 64
13, 326195, Note_off_c, 12, 48, 64
13, 326200, Note_on_c, 12, 48, 45
13, 326200, Note_on_c, 12, 52, 45
13, 326355, Note_off_c, 12, 52, 64
13, 326355, Note_off_c, 12, 48, 64
13, 326360, Note_on_c, 12, 48, 45
13, 326360, Note_on_c, 12, 52, 45
13, 326515, Note_off_c, 12, 52, 64
13, 326515, Note_off_c, 12, 48, 64
13, 326520, Note_on_c, 12, 48, 45
13, 326520, Note_on_c, 12, 52, 45
13, 326675, Note_off_c, 12, 52, 64
13, 326675, Note_off_c, 12, 48, 64
13, 326680, Note_on_c, 12, 48, 45
13, 326680, Note_on_c, 12, 52, 45
13, 326835, Note_off_c, 12, 52, 64
13, 326835, Note_off_c, 12, 48, 64
13, 326840, Note_on_c, 12, 48, 45
13, 326840, Note_on_c, 12, 52, 45
13, 326995, Note_off_c, 12, 52, 64
13, 326995, Note_off_c, 12, 48, 64
13, 327000, Note_on_c, 12, 48, 45
13, 327000, Note_on_c, 12, 52, 45
13, 327400, Note_off_c, 12, 52, 64
13, 327400, Note_off_c, 12, 48, 64
13, 331800, Program_c, 12, 48
13, 331800, Note_on_c, 12, 58, 45
13, 332040, Note_off_c, 12, 58, 64
13, 332040, Note_on_c, 12, 55, 45
13, 332280, Note_off_c, 12, 55, 64
13, 332280, Note_on_c, 12, 58, 45
13, 332520, Note_off_c, 12, 58, 64
13, 332520, Note_on_c, 12, 55, 45
13, 332760, Note_off_c, 12, 55, 64
13, 332760, Note_on_c, 12, 58, 45
13, 333000, Note_off_c, 12, 58, 64
13, 333000, Note_on_c, 12, 55, 45
13, 333240, Note_off_c, 12, 55, 64
13, 333240, Note_on_c, 12, 58, 45
13, 333480, Note_off_c, 12, 58, 64
13, 333480, Note_on_c, 12, 55, 45
13, 333715, Note_off_c, 12, 55, 64
13, 333720, Note_on_c, 12, 57, 45
13, 333960, Note_off_c, 12, 57, 64
13, 333960, Note_on_c, 12, 53, 45
13, 334200, Note_off_c, 12, 53, 64
13, 334200, Note_on_c, 12, 57, 45
13, 334440, Note_off_c, 12, 57, 64
13, 334440, Note_on_c, 12, 53, 45
13, 334680, Note_off_c, 12, 53, 64
13, 334680, Note_on_c, 12, 57, 45
13, 334920, Note_off_c, 12, 57, 64
13, 334920, Note_on_c, 12, 53, 45
13, 335160, Note_off_c, 12, 53, 64
13, 335160, Note_on_c, 12, 57, 45
13, 335400, Note_off_c, 12, 57, 64
13, 335400, Note_on_c, 12, 53, 45
13, 335635, Note_off_c, 12, 53, 64
13, 335640, Note_on_c, 12, 58, 45
13, 335880, Note_off_c, 12, 58, 64
13, 335880, Note_on_c, 12, 55, 45
13, 336120, Note_off_c, 12, 55, 64
13, 336120, Note_on_c, 12, 58, 45
13, 336360, Note_off_c, 12, 58, 64
13, 336360, Note_on_c, 12, 55, 45
13, 336600, Note_off_c, 12, 55, 64
13, 336600, Note_on_c, 12, 58, 45
13, 336840, Note_off_c, 12, 58, 64
13, 336840, Note_on_c, 12, 55, 45
13, 337080, Note_off_c, 12, 55, 64
13, 337080, Note_on_c, 12, 58, 45
13, 337320, Note_off_c, 12, 58, 64
13, 337320, Note_on_c, 12, 55, 45
13, 337555, Note_off_c, 12, 55, 64
13, 337560, Note_on_c, 12, 57, 45
13, 337800, Note_off_c, 12, 57, 64
13, 337800, Note_on_c, 12, 53, 45
13, 338040, Note_off_c, 12, 53, 64
13, 338040, Note_on_c, 12, 57, 45
13, 338280, Note_off_c, 12, 57, 64
13, 338280, Note_on_c, 12, 53, 45
13, 338520, Note_off_c, 12, 53, 64
13, 338520, Note_on_c, 12, 57, 45
13, 338760, Note_off_c, 12, 57, 64
13, 338760, Note_on_c, 12, 53, 45
13, 339000, Note_off_c, 12, 53, 64
13, 339000, Note_on_c, 12, 57, 45
13, 339240, Note_off_c, 12, 57, 64
13, 339240, Note_on_c, 12, 53, 45
13, 339475, Note_off_c, 12, 53, 64
13, 339480, Note_on_c, 12, 55, 45
13, 339720, Note_off_c, 12, 55, 64
13, 339720, Note_on_c, 12, 58, 45
13, 339960, Note_off_c, 12, 58, 64
13, 339960, Note_on_c, 12, 55, 45
13, 340200, Note_off_c, 12, 55, 64
13, 340200, Note_on_c, 12, 58, 45
13, 340440, Note_off_c, 12, 58, 64
13, 340440, Note_on_c, 12, 55, 45
13, 340680, Note_off_c, 12, 55, 64
13, 340680, Note_on_c, 12, 58, 45
13, 340920, Note_off_c, 12, 58, 64
13, 340920, Note_on_c, 12, 55, 45
13, 341160, Note_off_c, 12, 55, 64
13, 341160, Note_on_c, 12, 58, 45
13, 341395, Note_off_c, 12, 58, 64
13, 341400, Note_on_c, 12, 57, 45
13, 341640, Note_off_c, 12, 57, 64
13, 341640, Note_on_c, 12, 60, 45
13, 341880, Note_off_c, 12, 60, 64
13, 341880, Note_on_c, 12, 57, 45
13, 342120, Note_off_c, 12, 57, 64
13, 342120, Note_on_c, 12, 60, 45
13, 342360, Note_off_c, 12, 60, 64
13, 342360, Note_on_c, 12, 57, 45
13, 342600, Note_off_c, 12, 57, 64
13, 342600, Note_on_c, 12, 60, 45
13, 342840, Note_off_c, 12, 60, 64
13, 342840, Note_on_c, 12, 57, 45
13, 343080, Note_off_c, 12, 57, 64
13, 343080, Note_on_c, 12, 60, 45
13, 343315, Note_off_c, 12, 60, 64
13, 343320, Note_on_c, 12, 60, 45
13, 343560, Note_off_c, 12, 60, 64
13, 343560, Note_on_c, 12, 67, 45
13, 343800, Note_off_c, 12, 67, 64
13, 343800, Note_on_c, 12, 60, 45
13, 344040, Note_off_c, 12, 60, 64
13, 344040, Note_on_c, 12, 67, 45
13, 344280, Note_off_c, 12, 67, 64
13, 344280, Note_on_c, 12, 60, 45
13, 344520, Note_off_c, 12, 60, 64
13, 344520, Note_on_c, 12, 67, 45
13, 344760, Note_off_c, 12, 67, 64
13, 344760, Note_on_c, 12, 60, 45
13, 345000, Note_off_c, 12, 60, 64
13, 345000, Note_on_c, 12, 67, 45
13, 345235, Note_off_c, 12, 67, 64
13, 345240, Note_on_c, 12, 60, 45
13, 345480, Note_off_c, 12, 60, 64
13, 345480, Note_on_c, 12, 69, 45
13, 345720, Note_off_c, 12, 69, 64
13, 345720, Note_on_c, 12, 60, 45
13, 345960, Note_off_c, 12, 60, 64
13, 345960, Note_on_c, 12, 69, 46
13, 346200, Note_off_c, 12, 69, 64
13, 346200, Note_on_c, 12, 60, 47
13, 346440, Note_off_c, 12, 60, 64
13, 346440, Note_on_c, 12, 69, 48
13, 346680, Note_off_c, 12, 69, 64
13, 346680, Note_on_c, 12, 60, 49
13, 346920, Note_off_c, 12, 60, 64
13, 346920, Note_on_c, 12, 69, 50
13, 347155, Note_off_c, 12, 69, 64
13, 347160, Note_on_c, 12, 70, 51
13, 347320, Note_off_c, 12, 70, 64
13, 347320, Note_on_c, 12, 67, 51
13, 347480, Note_off_c, 12, 67, 64
13, 347480, Note_on_c, 12, 70, 51
13, 347640, Note_off_c, 12, 70, 64
13, 347640, Note_on_c, 12, 67, 51
13, 347800, Note_off_c, 12, 67, 64
13, 347800, Note_on_c, 12, 70, 51
13, 347960, Note_off_c, 12, 70, 64
13, 347960, Note_on_c, 12, 67, 51
13, 348115, Note_off_c, 12, 67, 64
13, 348120, Note_on_c, 12, 70, 51
13, 348280, Note_off_c, 12, 70, 64
13, 348280, Note_on_c, 12, 67, 51
13, 348440, Note_off_c, 12, 67, 64
13, 348440, Note_on_c, 12, 70, 51
13, 348600, Note_off_c, 12, 70, 64
13, 348600, Note_on_c, 12, 67, 51
13, 348760, Note_off_c, 12, 67, 64
13, 348760, Note_on_c, 12, 70, 51
13, 348920, Note_off_c, 12, 70, 64
13, 348920, Note_on_c, 12, 67, 51
13, 349075, Note_off_c, 12, 67, 64
13, 349080, Note_on_c, 12, 72, 51
13, 349240, Note_off_c, 12, 72, 64
13, 349240, Note_on_c, 12, 69, 51
13, 349400, Note_off_c, 12, 69, 64
13, 349400, Note_on_c, 12, 72, 51
13, 349560, Note_off_c, 12, 72, 64
13, 349560, Note_on_c, 12, 69, 51
13, 349720, Note_off_c, 12, 69, 64
13, 349720, Note_on_c, 12, 72, 51
13, 349880, Note_off_c, 12, 72, 64
13, 349880, Note_on_c, 12, 69, 51
13, 350035, Note_off_c, 12, 69, 64
13, 350040, Note_on_c, 12, 72, 51
13, 350200, Note_off_c, 12, 72, 64
13, 350200, Note_on_c, 12, 69, 51
13, 350360, Note_off_c, 12, 69, 64
13, 350360, Note_on_c, 12, 72, 51
13, 350520, Note_off_c, 12, 72, 64
13, 350520, Note_on_c, 12, 69, 52
13, 350680, Note_off_c, 12, 69, 64
13, 350680, Note_on_c, 12, 72, 53
13, 350840, Note_off_c, 12, 72, 64
13, 350840, Note_on_c, 12, 69, 54
13, 350995, Note_off_c, 12, 69, 64
13, 351000, Note_on_c, 12, 60, 55
13, 351000, Note_on_c, 12, 72, 55
13, 351120, Note_off_c, 12, 72, 64
13, 351120, Note_off_c, 12, 60, 64
13, 351120, Note_on_c, 12, 58, 55
13, 351120, Note_on_c, 12, 70, 55
13, 351240, Note_off_c, 12, 70, 64
13, 351240, Note_off_c, 12, 58, 64
13, 351240, Note_on_c, 12, 60, 55
13, 351240, Note_on_c, 12, 72, 55
13, 351360, Note_off_c, 12, 72, 64
13, 351360, Note_off_c, 12, 60, 64
13, 351360, Note_on_c, 12, 58, 55
13, 351360, Note_on_c, 12, 70, 55
13, 351480, Note_off_c, 12, 70, 64
13, 351480, Note_off_c, 12, 58, 64
13, 351480, Note_on_c, 12, 60, 55
13, 351480, Note_on_c, 12, 72, 55
13, 351600, Note_off_c, 12, 72, 64
13, 351600, Note_off_c, 12, 60, 64
13, 351600, Note_on_c, 12, 58, 55
13, 351600, Note_on_c, 12, 70, 55
13, 351720, Note_off_c, 12, 70, 64
13, 351720, Note_off_c, 12, 58, 64
13, 351720, Note_on_c, 12, 60, 55
13, 351720, Note_on_c, 12, 72, 55
13, 351840, Note_off_c, 12, 72, 64
13, 351840, Note_off_c, 12, 60, 64
13, 351840, Note_on_c, 12, 58, 55
13, 351840, Note_on_c, 12, 70, 55
13, 351960, Note_off_c, 12, 70, 64
13, 351960, Note_off_c, 12, 58, 64
13, 351960, Note_on_c, 12, 60, 55
13, 351960, Note_on_c, 12, 72, 55
13, 352080, Note_off_c, 12, 72, 64
13, 352080, Note_off_c, 12, 60, 64
13, 352080, Note_on_c, 12, 58, 55
13, 352080, Note_on_c, 12, 70, 55
13, 352200, Note_off_c, 12, 70, 64
13, 352200, Note_off_c, 12, 58, 64
13, 352200, Note_on_c, 12, 60, 55
13, 352200, Note_on_c, 12, 72, 55
13, 352320, Note_off_c, 12, 72, 64
13, 352320, Note_off_c, 12, 60, 64
13, 352320, Note_on_c, 12, 58, 55
13, 352320, Note_on_c, 12, 70, 55
13, 352440, Note_off_c, 12, 70, 64
13, 352440, Note_off_c, 12, 58, 64
13, 352440, Note_on_c, 12, 60, 56
13, 352440, Note_on_c, 12, 72, 56
13, 352560, Note_off_c, 12, 72, 64
13, 352560, Note_off_c, 12, 60, 64
13, 352560, Note_on_c, 12, 58, 57
13, 352560, Note_on_c, 12, 70, 57
13, 352680, Note_off_c, 12, 70, 64
13, 352680, Note_off_c, 12, 58, 64
13, 352680, Note_on_c, 12, 60, 58
13, 352680, Note_on_c, 12, 72, 58
13, 352800, Note_off_c, 12, 72, 64
13, 352800, Note_off_c, 12, 60, 64
13, 352800, Note_on_c, 12, 58, 59
13, 352800, Note_on_c, 12, 70, 59
13, 352915, Note_off_c, 12, 70, 64
13, 352915, Note_off_c, 12, 58, 64
13, 352920, Note_on_c, 12, 60, 60
13, 352920, Note_on_c, 12, 72, 60
13, 353040, Note_off_c, 12, 72, 64
13, 353040, Note_off_c, 12, 60, 64
13, 353040, Note_on_c, 12, 57, 61
13, 353040, Note_on_c, 12, 69, 61
13, 353160, Note_off_c, 12, 69, 64
13, 353160, Note_off_c, 12, 57, 64
13, 353160, Note_on_c, 12, 60, 61
13, 353160, Note_on_c, 12, 72, 61
13, 353280, Note_off_c, 12, 72, 64
13, 353280, Note_off_c, 12, 60, 64
13, 353280, Note_on_c, 12, 57, 62
13, 353280, Note_on_c, 12, 69, 62
13, 353400, Note_off_c, 12, 69, 64
13, 353400, Note_off_c, 12, 57, 64
13, 353400, Note_on_c, 12, 60, 63
13, 353400, Note_on_c, 12, 72, 63
13, 353520, Note_off_c, 12, 72, 64
13, 353520, Note_off_c, 12, 60, 64
13, 353520, Note_on_c, 12, 57, 64
13, 353520, Note_on_c, 12, 69, 64
13, 353640, Note_off_c, 12, 69, 64
13, 353640, Note_off_c, 12, 57, 64
13, 353640, Note_on_c, 12, 60, 65
13, 353640, Note_on_c, 12, 72, 65
13, 353760, Note_off_c, 12, 72, 64
13, 353760, Note_off_c, 12, 60, 64
13, 353760, Note_on_c, 12, 57, 66
13, 353760, Note_on_c, 12, 69, 66
13, 353880, Note_off_c, 12, 69, 64
13, 353880, Note_off_c, 12, 57, 64
13, 353880, Note_on_c, 12, 60, 67
13, 353880, Note_on_c, 12, 72, 67
13, 354000, Note_off_c, 12, 72, 64
13, 354000, Note_off_c, 12, 60, 64
13, 354000, Note_on_c, 12, 57, 68
13, 354000, Note_on_c, 12, 69, 68
13, 354120, Note_off_c, 12, 69, 64
13, 354120, Note_off_c, 12, 57, 64
13, 354120, Note_on_c, 12, 60, 69
13, 354120, Note_on_c, 12, 72, 69
13, 354240, Note_off_c, 12, 72, 64
13, 354240, Note_off_c, 12, 60, 64
13, 354240, Note_on_c, 12, 57, 70
13, 354240, Note_on_c, 12, 69, 70
13, 354360, Note_off_c, 12, 69, 64
13, 354360, Note_off_c, 12, 57, 64
13, 354360, Note_on_c, 12, 60, 71
13, 354360, Note_on_c, 12, 72, 71
13, 354480, Note_off_c, 12, 72, 64
13, 354480, Note_off_c, 12, 60, 64
13, 354480, Note_on_c, 12, 57, 72
13, 354480, Note_on_c, 12, 69, 72
13, 354600, Note_off_c, 12, 69, 64
13, 354600, Note_off_c, 12, 57, 64
13, 354600, Note_on_c, 12, 60, 73
13, 354600, Note_on_c, 12, 72, 73
13, 354720, Note_off_c, 12, 72, 64
13, 354720, Note_off_c, 12, 60, 64
13, 354720, Note_on_c, 12, 57, 74
13, 354720, Note_on_c, 12, 69, 74
13, 354835, Note_off_c, 12, 69, 64
13, 354835, Note_off_c, 12, 57, 64
13, 354840, Note_on_c, 12, 60, 75
13, 354840, Note_on_c, 12, 72, 75
13, 354960, Note_off_c, 12, 72, 64
13, 354960, Note_off_c, 12, 60, 64
13, 354960, Note_on_c, 12, 58, 76
13, 354960, Note_on_c, 12, 70, 76
13, 355080, Note_off_c, 12, 70, 64
13, 355080, Note_off_c, 12, 58, 64
13, 355080, Note_on_c, 12, 52, 77
13, 355080, Note_on_c, 12, 64, 77
13, 355200, Note_off_c, 12, 64, 64
13, 355200, Note_off_c, 12, 52, 64
13, 355200, Note_on_c, 12, 48, 78
13, 355200, Note_on_c, 12, 60, 78
13, 355320, Note_off_c, 12, 60, 64
13, 355320, Note_off_c, 12, 48, 64
13, 355320, Note_on_c, 12, 52, 79
13, 355320, Note_on_c, 12, 64, 79
13, 355440, Note_off_c, 12, 64, 64
13, 355440, Note_off_c, 12, 52, 64
13, 355440, Note_on_c, 12, 48, 80
13, 355440, Note_on_c, 12, 60, 80
13, 355560, Note_off_c, 12, 60, 64
13, 355560, Note_off_c, 12, 48, 64
13, 355560, Note_on_c, 12, 52, 81
13, 355560, Note_on_c, 12, 64, 81
13, 355680, Note_off_c, 12, 64, 64
13, 355680, Note_off_c, 12, 52, 64
13, 355680, Note_on_c, 12, 48, 82
13, 355680, Note_on_c, 12, 60, 82
13, 355800, Note_off_c, 12, 60, 64
13, 355800, Note_off_c, 12, 48, 64
13, 355800, Note_on_c, 12, 52, 83
13, 355800, Note_on_c, 12, 64, 83
13, 355920, Note_off_c, 12, 64, 64
13, 355920, Note_off_c, 12, 52, 64
13, 355920, Note_on_c, 12, 48, 84
13, 355920, Note_on_c, 12, 60, 84
13, 356040, Note_off_c, 12, 60, 64
13, 356040, Note_off_c, 12, 48, 64
13, 356040, Note_on_c, 12, 52, 85
13, 356040, Note_on_c, 12, 64, 85
13, 356160, Note_off_c, 12, 64, 64
13, 356160, Note_off_c, 12, 52, 64
13, 356160, Note_on_c, 12, 48, 86
13, 356160, Note_on_c, 12, 60, 86
13, 356280, Note_off_c, 12, 60, 64
13, 356280, Note_off_c, 12, 48, 64
13, 356280, Note_on_c, 12, 52, 87
13, 356280, Note_on_c, 12, 64, 87
13, 356400, Note_off_c, 12, 64, 64
13, 356400, Note_off_c, 12, 52, 64
13, 356400, Note_on_c, 12, 48, 88
13, 356400, Note_on_c, 12, 60, 88
13, 356520, Note_off_c, 12, 60, 64
13, 356520, Note_off_c, 12, 48, 64
13, 356520, Note_on_c, 12, 52, 89
13, 356520, Note_on_c, 12, 64, 89
13, 356640, Note_off_c, 12, 64, 64
13, 356640, Note_off_c, 12, 52, 64
13, 356640, Note_on_c, 12, 48, 90
13, 356640, Note_on_c, 12, 60, 90
13, 356755, Note_off_c, 12, 60, 64
13, 356755, Note_off_c, 12, 48, 64
13, 356760, Note_on_c, 12, 57, 92
13, 356760, Note_on_c, 12, 60, 92
13, 357480, Note_off_c, 12, 60, 64
13, 357480, Note_off_c, 12, 57, 64
13, 357480, Note_on_c, 12, 58, 92
13, 357480, Note_on_c, 12, 62, 92
13, 357600, Note_off_c, 12, 62, 64
13, 357600, Note_off_c, 12, 58, 64
13, 357600, Note_on_c, 12, 60, 92
13, 357600, Note_on_c, 12, 64, 92
13, 357715, Note_off_c, 12, 64, 64
13, 357715, Note_off_c, 12, 60, 64
13, 357720, Note_on_c, 12, 62, 92
13, 357720, Note_on_c, 12, 65, 92
13, 357960, Note_off_c, 12, 65, 64
13, 357960, Note_off_c, 12, 62, 64
13, 357960, Note_on_c, 12, 60, 92
13, 357960, Note_on_c, 12, 64, 92
13, 358080, Note_off_c, 12, 64, 64
13, 358080, Note_off_c, 12, 60, 64
13, 358080, Note_on_c, 12, 58, 92
13, 358080, Note_on_c, 12, 62, 92
13, 358200, Note_off_c, 12, 62, 64
13, 358200, Note_off_c, 12, 58, 64
13, 358200, Note_on_c, 12, 57, 92
13, 358200, Note_on_c, 12, 60, 92
13, 358440, Note_off_c, 12, 60, 64
13, 358440, Note_off_c, 12, 57, 64
13, 358440, Note_on_c, 12, 58, 92
13, 358440, Note_on_c, 12, 62, 92
13, 358560, Note_off_c, 12, 62, 64
13, 358560, Note_off_c, 12, 58, 64
13, 358560, Note_on_c, 12, 60, 92
13, 358560, Note_on_c, 12, 64, 92
13, 358675, Note_off_c, 12, 64, 64
13, 358675, Note_off_c, 12, 60, 64
13, 358680, Note_on_c, 12, 62, 92
13, 358680, Note_on_c, 12, 65, 92
13, 358920, Note_off_c, 12, 65, 64
13, 358920, Note_off_c, 12, 62, 64
13, 358920, Note_on_c, 12, 60, 92
13, 358920, Note_on_c, 12, 64, 92
13, 359040, Note_off_c, 12, 64, 64
13, 359040, Note_off_c, 12, 60, 64
13, 359040, Note_on_c, 12, 58, 92
13, 359040, Note_on_c, 12, 62, 92
13, 359160, Note_off_c, 12, 62, 64
13, 359160, Note_off_c, 12, 58, 64
13, 359160, Note_on_c, 12, 57, 92
13, 359160, Note_on_c, 12, 60, 92
13, 359400, Note_off_c, 12, 60, 64
13, 359400, Note_off_c, 12, 57, 64
13, 359400, Note_on_c, 12, 58, 92
13, 359400, Note_on_c, 12, 62, 92
13, 359520, Note_off_c, 12, 62, 64
13, 359520, Note_off_c, 12, 58, 64
13, 359520, Note_on_c, 12, 60, 92
13, 359520, Note_on_c, 12, 64, 92
13, 359635, Note_off_c, 12, 64, 64
13, 359635, Note_off_c, 12, 60, 64
13, 359640, Note_on_c, 12, 62, 92
13, 359640, Note_on_c, 12, 65, 92
13, 359875, Note_off_c, 12, 65, 64
13, 359875, Note_off_c, 12, 62, 64
13, 360720, Program_c, 12, 48
13, 360720, Note_on_c, 12, 58, 45
13, 360960, Note_off_c, 12, 58, 64
13, 360960, Note_on_c, 12, 53, 45
13, 361200, Note_off_c, 12, 53, 64
13, 361200, Note_on_c, 12, 58, 45
13, 361440, Note_off_c, 12, 58, 64
13, 361440, Note_on_c, 12, 53, 45
13, 361675, Note_off_c, 12, 53, 64
13, 361680, Note_on_c, 12, 58, 45
13, 361920, Note_off_c, 12, 58, 64
13, 361920, Note_on_c, 12, 53, 45
13, 362160, Note_off_c, 12, 53, 64
13, 362160, Note_on_c, 12, 58, 45
13, 362400, Note_off_c, 12, 58, 64
13, 362400, Note_on_c, 12, 53, 45
13, 362635, Note_off_c, 12, 53, 64
13, 362640, Note_on_c, 12, 58, 45
13, 362880, Note_off_c, 12, 58, 64
13, 362880, Note_on_c, 12, 55, 45
13, 363120, Note_off_c, 12, 55, 64
13, 363120, Note_on_c, 12, 58, 45
13, 363360, Note_off_c, 12, 58, 64
13, 363360, Note_on_c, 12, 55, 45
13, 363595, Note_off_c, 12, 55, 64
13, 363600, Note_on_c, 12, 60, 92
13, 364320, Note_off_c, 12, 60, 64
13, 364320, Note_on_c, 12, 62, 92
13, 364440, Note_off_c, 12, 62, 64
13, 364440, Note_on_c, 12, 60, 92
13, 364440, Note_on_c, 12, 64, 92
13, 364555, Note_off_c, 12, 64, 64
13, 364555, Note_off_c, 12, 60, 64
13, 364560, Note_on_c, 12, 62, 92
13, 364560, Note_on_c, 12, 65, 92
13, 364800, Note_off_c, 12, 65, 64
13, 364800, Note_off_c, 12, 62, 64
13, 364800, Note_on_c, 12, 60, 92
13, 364800, Note_on_c, 12, 64, 92
13, 364920, Note_off_c, 12, 64, 64
13, 364920, Note_off_c, 12, 60, 64
13, 364920, Note_on_c, 12, 58, 92
13, 364920, Note_on_c, 12, 62, 92
13, 365040, Note_off_c, 12, 62, 64
13, 365040, Note_off_c, 12, 58, 64
13, 365040, Note_on_c, 12, 57, 92
13, 365040, Note_on_c, 12, 60, 92
13, 365280, Note_off_c, 12, 60, 64
13, 365280, Note_off_c, 12, 57, 64
13, 365280, Note_on_c, 12, 58, 92
13, 365280, Note_on_c, 12, 62, 92
13, 365400, Note_off_c, 12, 62, 64
13, 365400, Note_off_c, 12, 58, 64
13, 365400, Note_on_c, 12, 60, 92
13, 365400, Note_on_c, 12, 64, 92
13, 365515, Note_off_c, 12, 64, 64
13, 365515, Note_off_c, 12, 60, 64
13, 365520, Note_on_c, 12, 62, 92
13, 365520, Note_on_c, 12, 65, 92
13, 365760, Note_off_c, 12, 65, 64
13, 365760, Note_off_c, 12, 62, 64
13, 365760, Note_on_c, 12, 60, 92
13, 365760, Note_on_c, 12, 64, 92
13, 365880, Note_off_c, 12, 64, 64
13, 365880, Note_off_c, 12, 60, 64
13, 365880, Note_on_c, 12, 58, 92
13, 365880, Note_on_c, 12, 62, 92
13, 366000, Note_off_c, 12, 62, 64
13, 366000, Note_off_c, 12, 58, 64
13, 366000, Note_on_c, 12, 57, 92
13, 366000, Note_on_c, 12, 60, 92
13, 366240, Note_off_c, 12, 60, 64
13, 366240, Note_off_c, 12, 57, 64
13, 366240, Note_on_c, 12, 58, 92
13, 366240, Note_on_c, 12, 62, 92
13, 366360, Note_off_c, 12, 62, 64
13, 366360, Note_off_c, 12, 58, 64
13, 366360, Note_on_c, 12, 60, 92
13, 366360, Note_on_c, 12, 64, 92
13, 366475, Note_off_c, 12, 64, 64
13, 366475, Note_off_c, 12, 60, 64
13, 366480, Note_on_c, 12, 62, 92
13, 366480, Note_on_c, 12, 65, 92
13, 366715, Note_off_c, 12, 65, 64
13, 366715, Note_off_c, 12, 62, 64
13, 367560, Note_on_c, 12, 58, 45
13, 367800, Note_off_c, 12, 58, 64
13, 367800, Note_on_c, 12, 53, 45
13, 368040, Note_off_c, 12, 53, 64
13, 368040, Note_on_c, 12, 58, 45
13, 368280, Note_off_c, 12, 58, 64
13, 368280, Note_on_c, 12, 53, 45
13, 368515, Note_off_c, 12, 53, 64
13, 368520, Note_on_c, 12, 58, 45
13, 368760, Note_off_c, 12, 58, 64
13, 368760, Note_on_c, 12, 53, 45
13, 369000, Note_off_c, 12, 53, 64
13, 369000, Note_on_c, 12, 58, 45
13, 369240, Note_off_c, 12, 58, 64
13, 369240, Note_on_c, 12, 53, 45
13, 369475, Note_off_c, 12, 53, 64
13, 369480, Note_on_c, 12, 58, 45
13, 369720, Note_off_c, 12, 58, 64
13, 369720, Note_on_c, 12, 55, 45
13, 369960, Note_off_c, 12, 55, 64
13, 369960, Note_on_c, 12, 58, 45
13, 370200, Note_off_c, 12, 58, 64
13, 370200, Note_on_c, 12, 55, 45
13, 370435, Note_off_c, 12, 55, 64
13, 370440, Note_on_c, 12, 57, 45
13, 370675, Note_off_c, 12, 57, 64
13, 370680, Note_on_c, 12, 53, 45
13, 370680, Note_on_c, 12, 57, 45
13, 370915, Note_off_c, 12, 57, 64
13, 370915, Note_off_c, 12, 53, 64
13, 370920, Note_on_c, 12, 55, 45
13, 370920, Note_on_c, 12, 58, 45
13, 371155, Note_off_c, 12, 58, 64
13, 371155, Note_off_c, 12, 55, 64
13, 371160, Note_on_c, 12, 57, 48
13, 371160, Note_on_c, 12, 60, 48
13, 371395, Note_off_c, 12, 60, 64
13, 371395, Note_off_c, 12, 57, 64
13, 371400, Note_on_c, 12, 58, 51
13, 371640, Note_off_c, 12, 58, 64
13, 371640, Note_on_c, 12, 53, 54
13, 371880, Note_off_c, 12, 53, 64
13, 371880, Note_on_c, 12, 58, 57
13, 372120, Note_off_c, 12, 58, 64
13, 372120, Note_on_c, 12, 53, 60
13, 372360, Note_off_c, 12, 53, 64
13, 372360, Note_on_c, 12, 57, 63
13, 372600, Note_off_c, 12, 57, 64
13, 372600, Note_on_c, 12, 53, 66
13, 372840, Note_off_c, 12, 53, 64
13, 372840, Note_on_c, 12, 57, 69
13, 373080, Note_off_c, 12, 57, 64
13, 373080, Note_on_c, 12, 53, 72
13, 373320, Note_off_c, 12, 53, 64
13, 373320, Note_on_c, 12, 58, 76
13, 373560, Note_off_c, 12, 58, 64
13, 373560, Note_on_c, 12, 55, 80
13, 373800, Note_off_c, 12, 55, 64
13, 373800, Note_on_c, 12, 58, 84
13, 374040, Note_off_c, 12, 58, 64
13, 374040, Note_on_c, 12, 55, 88
13, 374275, Note_off_c, 12, 55, 64
13, 374280, Note_on_c, 12, 53, 92
13, 374280, Note_on_c, 12, 57, 92
13, 374435, Note_off_c, 12, 57, 64
13, 374435, Note_off_c, 12, 53, 64
13, 374440, Note_on_c, 12, 57, 92
13, 374440, Note_on_c, 12, 60, 92
13, 374595, Note_off_c, 12, 60, 64
13, 374595, Note_off_c, 12, 57, 64
13, 374600, Note_on_c, 12, 57, 92
13, 374600, Note_on_c, 12, 60, 92
13, 374755, Note_off_c, 12, 60, 64
13, 374755, Note_off_c, 12, 57, 64
13, 374760, Note_on_c, 12, 57, 92
13, 374760, Note_on_c, 12, 60, 92
13, 374915, Note_off_c, 12, 60, 64
13, 374915, Note_off_c, 12, 57, 64
13, 374920, Note_on_c, 12, 55, 92
13, 374920, Note_on_c, 12, 58, 92
13, 375075, Note_off_c, 12, 58, 64
13, 375075, Note_off_c, 12, 55, 64
13, 375080, Note_on_c, 12, 53, 92
13, 375080, Note_on_c, 12, 57, 92
13, 375235, Note_off_c, 12, 57, 64
13, 375235, Note_off_c, 12, 53, 64
13, 375240, Note_on_c, 12, 65, 92
13, 375395, Note_off_c, 12, 65, 64
13, 375400, Note_on_c, 12, 65, 92
13, 375555, Note_off_c, 12, 65, 64
13, 375560, Note_on_c, 12, 65, 92
13, 375715, Note_off_c, 12, 65, 64
13, 375720, Note_on_c, 12, 53, 92
13, 375875, Note_off_c, 12, 53, 64
13, 375880, Note_on_c, 12, 53, 92
13, 376035, Note_off_c, 12, 53, 64
13, 376040, Note_on_c, 12, 53, 92
13, 376195, Note_off_c, 12, 53, 64
13, 376200, Note_on_c, 12, 65, 92
13, 376355, Note_off_c, 12, 65, 64
13, 376360, Note_on_c, 12, 65, 92
13, 376515, Note_off_c, 12, 65, 64
13, 376520, Note_on_c, 12, 65, 92
13, 376675, Note_off_c, 12, 65, 64
13, 376680, Note_on_c, 12, 53, 92
13, 376835, Note_off_c, 12, 53, 64
13, 376840, Note_on_c, 12, 53, 92
13, 376995, Note_off_c, 12, 53, 64
13, 377000, Note_on_c, 12, 53, 92
13, 377155, Note_off_c, 12, 53, 64
13, 377160, Note_on_c, 12, 52, 92
13, 377315, Note_off_c, 12, 52, 64
13, 377320, Note_on_c, 12, 52, 92
13, 377475, Note_off_c, 12, 52, 64
13, 377480, Note_on_c, 12, 52, 92
13, 377635, Note_off_c, 12, 52, 64
13, 377640, Note_on_c, 12, 52, 92
13, 377795, Note_off_c, 12, 52, 64
13, 377800, Note_on_c, 12, 52, 92
13, 377955, Note_off_c, 12, 52, 64
13, 377960, Note_on_c, 12, 52, 92
13, 378115, Note_off_c, 12, 52, 64
13, 378120, Note_on_c, 12, 53, 92
13, 378520, Note_off_c, 12, 53, 64
13, 378840, Note_on_c, 12, 57, 92
13, 378960, Note_off_c, 12, 57, 64
13, 378960, Note_on_c, 12, 55, 92
13, 379080, Note_off_c, 12, 55, 64
13, 379080, Note_on_c, 12, 53, 92
13, 379160, Note_off_c, 12, 53, 64
13, 379320, Note_on_c, 12, 57, 92
13, 379440, Note_off_c, 12, 57, 64
13, 379440, Note_on_c, 12, 55, 92
13, 379560, Note_off_c, 12, 55, 64
13, 379560, Note_on_c, 12, 53, 92
13, 379640, Note_off_c, 12, 53, 64
13, 379800, Note_on_c, 12, 62, 92
13, 379920, Note_off_c, 12, 62, 64
13, 379920, Note_on_c, 12, 59, 92
13, 380040, Note_off_c, 12, 59, 64
13, 380040, Note_on_c, 12, 60, 92
13, 380520, Note_off_c, 12, 60, 64
13, 380760, Note_on_c, 12, 62, 92
13, 380880, Note_off_c, 12, 62, 64
13, 380880, Note_on_c, 12, 60, 92
13, 381000, Note_off_c, 12, 60, 64
13, 381000, Note_on_c, 12, 57, 92
13, 381080, Note_off_c, 12, 57, 64
13, 381240, Note_on_c, 12, 60, 92
13, 381360, Note_off_c, 12, 60, 64
13, 381360, Note_on_c, 12, 58, 92
13, 381480, Note_off_c, 12, 58, 64
13, 381480, Note_on_c, 12, 55, 92
13, 381560, Note_off_c, 12, 55, 64
13, 381720, Note_on_c, 12, 58, 92
13, 381840, Note_off_c, 12, 58, 64
13, 381840, Note_on_c, 12, 57, 92
13, 381960, Note_off_c, 12, 57, 64
13, 381960, Note_on_c, 12, 53, 92
13, 382440, Note_off_c, 12, 53, 64
13, 382680, Note_on_c, 12, 57, 92
13, 382800, Note_off_c, 12, 57, 64
13, 382800, Note_on_c, 12, 55, 92
13, 382920, Note_off_c, 12, 55, 64
13, 382920, Note_on_c, 12, 53, 92
13, 383000, Note_off_c, 12, 53, 64
13, 383160, Note_on_c, 12, 57, 92
13, 383280, Note_off_c, 12, 57, 64
13, 383280, Note_on_c, 12, 55, 92
13, 383400, Note_off_c, 12, 55, 64
13, 383400, Note_on_c, 12, 53, 92
13, 383480, Note_off_c, 12, 53, 64
13, 383640, Note_on_c, 12, 62, 92
13, 383760, Note_off_c, 12, 62, 64
13, 383760, Note_on_c, 12, 59, 92
13, 383880, Note_off_c, 12, 59, 64
13, 383880, Note_on_c, 12, 60, 92
13, 384360, Note_off_c, 12, 60, 64
13, 384600, Note_on_c, 12, 62, 92
13, 384720, Note_off_c, 12, 62, 64
13, 384720, Note_on_c, 12, 60, 92
13, 384840, Note_off_c, 12, 60, 64
13, 384840, Note_on_c, 12, 57, 92
13, 384920, Note_off_c, 12, 57, 64
13, 385080, Note_on_c, 12, 60, 92
13, 385200, Note_off_c, 12, 60, 64
13, 385200, Note_on_c, 12, 58, 92
13, 385320, Note_off_c, 12, 58, 64
13, 385320, Note_on_c, 12, 55, 92
13, 385400, Note_off_c, 12, 55, 64
13, 385560, Note_on_c, 12, 58, 92
13, 385680, Note_off_c, 12, 58, 64
13, 385680, Note_on_c, 12, 57, 92
13, 385800, Note_off_c, 12, 57, 64
13, 385800, Note_on_c, 12, 53, 75
13, 385880, Note_off_c, 12, 53, 64
13, 386040, Note_on_c, 12, 60, 75
13, 386160, Note_off_c, 12, 60, 64
13, 386160, Note_on_c, 12, 57, 75
13, 386280, Note_off_c, 12, 57, 64
13, 386280, Note_on_c, 12, 55, 75
13, 386360, Note_off_c, 12, 55, 64
13, 386520, Note_on_c, 12, 60, 75
13, 386640, Note_off_c, 12, 60, 64
13, 386640, Note_on_c, 12, 58, 75
13, 386760, Note_off_c, 12, 58, 64
13, 386760, Note_on_c, 12, 53, 75
13, 386840, Note_off_c, 12, 53, 64
13, 387000, Note_on_c, 12, 60, 75
13, 387120, Note_off_c, 12, 60, 64
13, 387120, Note_on_c, 12, 57, 75
13, 387240, Note_off_c, 12, 57, 64
13, 387240, Note_on_c, 12, 55, 75
13, 387320, Note_off_c, 12, 55, 64
13, 387480, Note_on_c, 12, 60, 72
13, 387600, Note_off_c, 12, 60, 64
13, 387600, Note_on_c, 12, 58, 70
13, 387720, Note_off_c, 12, 58, 64
13, 387720, Note_on_c, 12, 53, 68
13, 387800, Note_off_c, 12, 53, 64
13, 387960, Note_on_c, 12, 60, 64
13, 388080, Note_off_c, 12, 60, 64
13, 388080, Note_on_c, 12, 57, 62
13, 388200, Note_off_c, 12, 57, 64
13, 388200, Note_on_c, 12, 55, 60
13, 388280, Note_off_c, 12, 55, 64
13, 388440, Note_on_c, 12, 60, 60
13, 388560, Note_off_c, 12, 60, 64
13, 388560, Note_on_c, 12, 58, 60
13, 388680, Note_off_c, 12, 58, 64
13, 388680, Note_on_c, 12, 53, 60
13, 388760, Note_off_c, 12, 53, 64
13, 388920, Note_on_c, 12, 60, 57
13, 389040, Note_off_c, 12, 60, 64
13, 389040, Note_on_c, 12, 57, 55
13, 389160, Note_off_c, 12, 57, 64
13, 389160, Note_on_c, 12, 55, 53
13, 389240, Note_off_c, 12, 55, 64
13, 389400, Note_on_c, 12, 60, 49
13, 389520, Note_off_c, 12, 60, 64
13, 389520, Note_on_c, 12, 58, 47
13, 389635, Note_off_c, 12, 58, 64
13, 389640, Note_on_c, 12, 53, 45
13, 389720, Note_off_c, 12, 53, 64
13, 389880, Note_on_c, 12, 60, 45
13, 390000, Note_off_c, 12, 60, 64
13, 390000, Note_on_c, 12, 57, 45
13, 390120, Note_off_c, 12, 57, 64
13, 390120, Note_on_c, 12, 55, 45
13, 390200, Note_off_c, 12, 55, 64
13, 390360, Note_on_c, 12, 60, 45
13, 390480, Note_off_c, 12, 60, 64
13, 390480, Note_on_c, 12, 58, 45
13, 390600, Note_off_c, 12, 58, 64
13, 390600, Note_on_c, 12, 53, 45
13, 390680, Note_off_c, 12, 53, 64
13, 390840, Note_on_c, 12, 60, 42
13, 390960, Note_off_c, 12, 60, 64
13, 390960, Note_on_c, 12, 57, 40
13, 391080, Note_off_c, 12, 57, 64
13, 391080, Note_on_c, 12, 55, 38
13, 391160, Note_off_c, 12, 55, 64
13, 391320, Note_on_c, 12, 60, 34
13, 391440, Note_off_c, 12, 60, 64
13, 391440, Note_on_c, 12, 58, 32
13, 391560, Note_off_c, 12, 58, 64
13, 391560, Note_on_c, 12, 53, 30
13, 391640, Note_off_c, 12, 53, 64
13, 391800, Note_on_c, 12, 60, 30
13, 391920, Note_off_c, 12, 60, 64
13, 391920, Note_on_c, 12, 57, 30
13, 392040, Note_off_c, 12, 57, 64
13, 392040, Note_on_c, 12, 55, 30
13, 392120, Note_off_c, 12, 55, 64
13, 392280, Note_on_c, 12, 60, 30
13, 392400, Note_off_c, 12, 60, 64
13, 392400, Note_on_c, 12, 58, 30
13, 392520, Note_off_c, 12, 58, 64
13, 392520, Note_on_c, 12, 53, 30
13, 392600, Note_off_c, 12, 53, 64
13, 392760, Note_on_c, 12, 60, 30
13, 392880, Note_off_c, 12, 60, 64
13, 392880, Note_on_c, 12, 57, 30
13, 393000, Note_off_c, 12, 57, 64
13, 393000, Note_on_c, 12, 55, 30
13, 393080, Note_off_c, 12, 55, 64
13, 393240, Note_on_c, 12, 60, 30
13, 393360, Note_off_c, 12, 60, 64
13, 393360, Note_on_c, 12, 58, 30
13, 393475, Note_off_c, 12, 58, 64
13, 393480, Note_on_c, 12, 53, 30
13, 393960, Note_off_c, 12, 53, 64
13, 393960, Note_on_c, 12, 48, 30
13, 394440, Note_off_c, 12, 48, 64
13, 394440, Note_on_c, 12, 53, 30
13, 394920, Note_off_c, 12, 53, 64
13, 394920, Note_on_c, 12, 48, 30
13, 395400, Note_off_c, 12, 48, 64
13, 395400, Note_on_c, 12, 53, 30
13, 395880, Note_off_c, 12, 53, 64
13, 395880, Note_on_c, 12, 48, 30
13, 396360, Note_off_c, 12, 48, 64
13, 396360, Note_on_c, 12, 53, 30
13, 396840, Note_off_c, 12, 53, 64
13, 396840, Note_on_c, 12, 48, 30
13, 397320, Note_off_c, 12, 48, 64
13, 397320, Note_on_c, 12, 53, 30
13, 397555, Note_off_c, 12, 53, 64
13, 400440, Note_on_c, 12, 62, 92
13, 400680, Note_off_c, 12, 62, 64
13, 400680, Note_on_c, 12, 63, 92
13, 400760, Note_off_c, 12, 63, 64
13, 400920, Note_on_c, 12, 67, 92
13, 401000, Note_off_c, 12, 67, 64
13, 405360, Note_on_c, 12, 65, 108
13, 405440, Note_off_c, 12, 65, 64
13, 405600, Note_on_c, 12, 63, 108
13, 405680, Note_off_c, 12, 63, 64
13, 405840, Note_on_c, 12, 58, 108
13, 405920, Note_off_c, 12, 58, 64
13, 406080, Note_on_c, 12, 65, 108
13, 406160, Note_off_c, 12, 65, 64
13, 406320, Note_on_c, 12, 58, 108
13, 406400, Note_off_c, 12, 58, 64
13, 406560, Note_on_c, 12, 57, 108
13, 406640, Note_off_c, 12, 57, 64
13, 406800, Note_on_c, 12, 60, 108
13, 406880, Note_off_c, 12, 60, 64
13, 407040, Note_on_c, 12, 53, 108
13, 407120, Note_off_c, 12, 53, 64
13, 407280, Note_on_c, 12, 57, 108
13, 407360, Note_off_c, 12, 57, 64
13, 407520, Note_on_c, 12, 58, 108
13, 407760, Note_off_c, 12, 58, 64
13, 407760, Note_on_c, 12, 57, 108
13, 407880, Note_off_c, 12, 57, 64
13, 407880, Note_on_c, 12, 58, 108
13, 407995, Note_off_c, 12, 58, 64
13, 408000, Note_on_c, 12, 60, 108
13, 408080, Note_off_c, 12, 60, 64
13, 408240, Note_on_c, 12, 55, 108
13, 408320, Note_off_c, 12, 55, 64
13, 408480, Note_on_c, 12, 53, 108
13, 408560, Note_off_c, 12, 53, 64
13, 408720, Note_on_c, 12, 60, 108
13, 408800, Note_off_c, 12, 60, 64
13, 408960, Note_on_c, 12, 62, 60
13, 409195, Note_off_c, 12, 62, 64
13, 409920, Note_on_c, 12, 53, 60
13, 410155, Note_off_c, 12, 53, 64
13, 410880, Note_on_c, 12, 53, 60
13, 411035, Note_off_c, 12, 53, 64
13, 411040, Note_on_c, 12, 58, 60
13, 411195, Note_off_c, 12, 58, 64
13, 411200, Note_on_c, 12, 58, 60
13, 411355, Note_off_c, 12, 58, 64
13, 411360, Note_on_c, 12, 58, 60
13, 412955, Note_off_c, 12, 58, 64
13, 412960, Note_on_c, 12, 58, 60
13, 413115, Note_off_c, 12, 58, 64
13, 413120, Note_on_c, 12, 58, 60
13, 413275, Note_off_c, 12, 58, 64
13, 413280, Note_on_c, 12, 58, 60
13, 414875, Note_off_c, 12, 58, 64
13, 414880, Note_on_c, 12, 58, 60
13, 415035, Note_off_c, 12, 58, 64
13, 415040, Note_on_c, 12, 58, 60
13, 415195, Note_off_c, 12, 58, 64
13, 415200, Note_on_c, 12, 58, 60
13, 416795, Note_off_c, 12, 58, 64
13, 416800, Note_on_c, 12, 58, 60
13, 416955, Note_off_c, 12, 58, 64
13, 416960, Note_on_c, 12, 58, 60
13, 417115, Note_off_c, 12, 58, 64
13, 417120, Note_on_c, 12, 58, 60
13, 418715, Note_off_c, 12, 58, 64
13, 418720, Note_on_c, 12, 58, 60
13, 418875, Note_off_c, 12, 58, 64
13, 418880, Note_on_c, 12, 58, 60
13, 419035, Note_off_c, 12, 58, 64
13, 419040, Note_on_c, 12, 58, 60
13, 419675, Note_off_c, 12, 58, 64
13, 419680, Note_on_c, 12, 55, 60
13, 419835, Note_off_c, 12, 55, 64
13, 419840, Note_on_c, 12, 55, 60
13, 419995, Note_off_c, 12, 55, 64
13, 420000, Note_on_c, 12, 55, 60
13, 420635, Note_off_c, 12, 55, 64
13, 420640, Note_on_c, 12, 52, 72
13, 420795, Note_off_c, 12, 52, 64
13, 420800, Note_on_c, 12, 52, 75
13, 420955, Note_off_c, 12, 52, 64
13, 420960, Note_on_c, 12, 52, 78
13, 421595, Note_off_c, 12, 52, 64
13, 421600, Note_on_c, 12, 48, 91
13, 421755, Note_off_c, 12, 48, 64
13, 421760, Note_on_c, 12, 48, 94
13, 421915, Note_off_c, 12, 48, 64
13, 421920, Note_on_c, 12, 48, 97
13, 422320, Note_off_c, 12, 48, 64
13, 422400, Note_on_c, 12, 53, 108
13, 423035, Note_off_c, 12, 53, 64
13, 423040, Note_on_c, 12, 57, 108
13, 423200, Note_off_c, 12, 57, 64
13, 423200, Note_on_c, 12, 55, 108
13, 423355, Note_off_c, 12, 55, 64
13, 423360, Note_on_c, 12, 53, 108
13, 423520, Note_off_c, 12, 53, 64
13, 423520, Note_on_c, 12, 57, 108
13, 423680, Note_off_c, 12, 57, 64
13, 423680, Note_on_c, 12, 55, 108
13, 423835, Note_off_c, 12, 55, 64
13, 423840, Note_on_c, 12, 53, 108
13, 424000, Note_off_c, 12, 53, 64
13, 424000, Note_on_c, 12, 62, 108
13, 424160, Note_off_c, 12, 62, 64
13, 424160, Note_on_c, 12, 59, 108
13, 424315, Note_off_c, 12, 59, 64
13, 424320, Note_on_c, 12, 60, 108
13, 424955, Note_off_c, 12, 60, 64
13, 424960, Note_on_c, 12, 62, 108
13, 425120, Note_off_c, 12, 62, 64
13, 425120, Note_on_c, 12, 60, 108
13, 425275, Note_off_c, 12, 60, 64
13, 425280, Note_on_c, 12, 57, 108
13, 425440, Note_off_c, 12, 57, 64
13, 425440, Note_on_c, 12, 60, 108
13, 425600, Note_off_c, 12, 60, 64
13, 425600, Note_on_c, 12, 58, 108
13, 425755, Note_off_c, 12, 58, 64
13, 425760, Note_on_c, 12, 55, 108
13, 425920, Note_off_c, 12, 55, 64
13, 425920, Note_on_c, 12, 58, 108
13, 426080, Note_off_c, 12, 58, 64
13, 426080, Note_on_c, 12, 57, 108
13, 426235, Note_off_c, 12, 57, 64
13, 426240, Note_on_c, 12, 53, 108
13, 426875, Note_off_c, 12, 53, 64
13, 426880, Note_on_c, 12, 57, 108
13, 427040, Note_off_c, 12, 57, 64
13, 427040, Note_on_c, 12, 55, 108
13, 427195, Note_off_c, 12, 55, 64
13, 427200, Note_on_c, 12, 53, 108
13, 427360, Note_off_c, 12, 53, 64
13, 427360, Note_on_c, 12, 57, 108
13, 427520, Note_off_c, 12, 57, 64
13, 427520, Note_on_c, 12, 55, 108
13, 427675, Note_off_c, 12, 55, 64
13, 427680, Note_on_c, 12, 53, 108
13, 427840, Note_off_c, 12, 53, 64
13, 427840, Note_on_c, 12, 62, 108
13, 428000, Note_off_c, 12, 62, 64
13, 428000, Note_on_c, 12, 59, 108
13, 428155, Note_off_c, 12, 59, 64
13, 428160, Note_on_c, 12, 60, 108
13, 428795, Note_off_c, 12, 60, 64
13, 428800, Note_on_c, 12, 62, 108
13, 428960, Note_off_c, 12, 62, 64
13, 428960, Note_on_c, 12, 60, 108
13, 429115, Note_off_c, 12, 60, 64
13, 429120, Note_on_c, 12, 57, 108
13, 429280, Note_off_c, 12, 57, 64
13, 429280, Note_on_c, 12, 60, 108
13, 429440, Note_off_c, 12, 60, 64
13, 429440, Note_on_c, 12, 58, 108
13, 429595, Note_off_c, 12, 58, 64
13, 429600, Note_on_c, 12, 55, 108
13, 429760, Note_off_c, 12, 55, 64
13, 429760, Note_on_c, 12, 58, 108
13, 429920, Note_off_c, 12, 58, 64
13, 429920, Note_on_c, 12, 57, 108
13, 430075, Note_off_c, 12, 57, 64
13, 430080, Note_on_c, 12, 53, 108
13, 430715, Note_off_c, 12, 53, 64
13, 430720, Note_on_c, 12, 65, 108
13, 430720, Note_on_c, 12, 69, 108
13, 430875, Note_off_c, 12, 69, 64
13, 430875, Note_off_c, 12, 65, 64
13, 430880, Note_on_c, 12, 65, 108
13, 430880, Note_on_c, 12, 69, 108
13, 431035, Note_off_c, 12, 69, 64
13, 431035, Note_off_c, 12, 65, 64
13, 431040, Note_on_c, 12, 65, 108
13, 431040, Note_on_c, 12, 69, 108
13, 431675, Note_off_c, 12, 69, 64
13, 431675, Note_off_c, 12, 65, 64
13, 431680, Note_on_c, 12, 65, 108
13, 431680, Note_on_c, 12, 69, 108
13, 431835, Note_off_c, 12, 69, 64
13, 431835, Note_off_c, 12, 65, 64
13, 431840, Note_on_c, 12, 65, 108
13, 431840, Note_on_c, 12, 69, 108
13, 431995, Note_off_c, 12, 69, 64
13, 431995, Note_off_c, 12, 65, 64
13, 432000, Note_on_c, 12, 69, 108
13, 432000, Note_on_c, 12, 72, 108
13, 432635, Note_off_c, 12, 72, 64
13, 432635, Note_off_c, 12, 69, 64
13, 432640, Note_on_c, 12, 69, 108
13, 432640, Note_on_c, 12, 72, 108
13, 432795, Note_off_c, 12, 72, 64
13, 432795, Note_off_c, 12, 69, 64
13, 432800, Note_on_c, 12, 69, 108
13, 432800, Note_on_c, 12, 72, 108
13, 432955, Note_off_c, 12, 72, 64
13, 432955, Note_off_c, 12, 69, 64
13, 432960, Note_on_c, 12, 64, 108
13, 432960, Note_on_c, 12, 67, 108
13, 433595, Note_off_c, 12, 67, 64
13, 433595, Note_off_c, 12, 64, 64
13, 433600, Note_on_c, 12, 64, 108
13, 433600, Note_on_c, 12, 67, 108
13, 433755, Note_off_c, 12, 67, 64
13, 433755, Note_off_c, 12, 64, 64
13, 433760, Note_on_c, 12, 64, 108
13, 433760, Note_on_c, 12, 67, 108
13, 433915, Note_off_c, 12, 67, 64
13, 433915, Note_off_c, 12, 64, 64
13, 433920, Note_on_c, 12, 65, 108
13, 433920, Note_on_c, 12, 69, 108
13, 434555, Note_off_c, 12, 69, 64
13, 434555, Note_off_c, 12, 65, 64
13, 434560, Note_on_c, 12, 65, 108
13, 434560, Note_on_c, 12, 69, 108
13, 434715, Note_off_c, 12, 69, 64
13, 434715, Note_off_c, 12, 65, 64
13, 434720, Note_on_c, 12, 65, 108
13, 434720, Note_on_c, 12, 69, 108
13, 434875, Note_off_c, 12, 69, 64
13, 434875, Note_off_c, 12, 65, 64
13, 434880, Note_on_c, 12, 65, 108
13, 434880, Note_on_c, 12, 69, 108
13, 435515, Note_off_c, 12, 69, 64
13, 435515, Note_off_c, 12, 65, 64
13, 435520, Note_on_c, 12, 65, 108
13, 435520, Note_on_c, 12, 69, 108
13, 435675, Note_off_c, 12, 69, 64
13, 435675, Note_off_c, 12, 65, 64
13, 435680, Note_on_c, 12, 65, 108
13, 435680, Note_on_c, 12, 69, 108
13, 435835, Note_off_c, 12, 69, 64
13, 435835, Note_off_c, 12, 65, 64
13, 435840, Note_on_c, 12, 69, 108
13, 435840, Note_on_c, 12, 72, 108
13, 436475, Note_off_c, 12, 72, 64
13, 436475, Note_off_c, 12, 69, 64
13, 436480, Note_on_c, 12, 69, 108
13, 436480, Note_on_c, 12, 72, 108
13, 436635, Note_off_c, 12, 72, 64
13, 436635, Note_off_c, 12, 69, 64
13, 436640, Note_on_c, 12, 69, 108
13, 436640, Note_on_c, 12, 72, 108
13, 436795, Note_off_c, 12, 72, 64
13, 436795, Note_off_c, 12, 69, 64
13, 436800, Note_on_c, 12, 64, 108
13, 436800, Note_on_c, 12, 67, 108
13, 437435, Note_off_c, 12, 67, 64
13, 437435, Note_off_c, 12, 64, 64
13, 437440, Note_on_c, 12, 64, 108
13, 437440, Note_on_c, 12, 67, 108
13, 437595, Note_off_c, 12, 67, 64
13, 437595, Note_off_c, 12, 64, 64
13, 437600, Note_on_c, 12, 64, 108
13, 437600, Note_on_c, 12, 67, 108
13, 437755, Note_off_c, 12, 67, 64
13, 437755, Note_off_c, 12, 64, 64
13, 437760, Note_on_c, 12, 65, 108
13, 437760, Note_on_c, 12, 69, 108
13, 438395, Note_off_c, 12, 69, 64
13, 438395, Note_off_c, 12, 65, 64
13, 438400, Note_on_c, 12, 65, 108
13, 438400, Note_on_c, 12, 69, 108
13, 438555, Note_off_c, 12, 69, 64
13, 438555, Note_off_c, 12, 65, 64
13, 438560, Note_on_c, 12, 65, 108
13, 438560, Note_on_c, 12, 69, 108
13, 438715, Note_off_c, 12, 69, 64
13, 438715, Note_off_c, 12, 65, 64
13, 438720, Note_on_c, 12, 65, 108
13, 438720, Note_on_c, 12, 69, 108
13, 439355, Note_off_c, 12, 69, 64
13, 439355, Note_off_c, 12, 65, 64
13, 439360, Note_on_c, 12, 65, 108
13, 439360, Note_on_c, 12, 69, 108
13, 439515, Note_off_c, 12, 69, 64
13, 439515, Note_off_c, 12, 65, 64
13, 439520, Note_on_c, 12, 65, 108
13, 439520, Note_on_c, 12, 69, 108
13, 439675, Note_off_c, 12, 69, 64
13, 439675, Note_off_c, 12, 65, 64
13, 439680, Note_on_c, 12, 69, 108
13, 439680, Note_on_c, 12, 72, 108
13, 440315, Note_off_c, 12, 72, 64
13, 440315, Note_off_c, 12, 69, 64
13, 440320, Note_on_c, 12, 69, 108
13, 440320, Note_on_c, 12, 72, 108
13, 440475, Note_off_c, 12, 72, 64
13, 440475, Note_off_c, 12, 69, 64
13, 440480, Note_on_c, 12, 69, 108
13, 440480, Note_on_c, 12, 72, 108
13, 440635, Note_off_c, 12, 72, 64
13, 440635, Note_off_c, 12, 69, 64
13, 440640, Note_on_c, 12, 69, 108
13, 440640, Note_on_c, 12, 72, 108
13, 441275, Note_off_c, 12, 72, 64
13, 441275, Note_off_c, 12, 69, 64
13, 441280, Note_on_c, 12, 69, 108
13, 441280, Note_on_c, 12, 72, 108
13, 441435, Note_off_c, 12, 72, 64
13, 441435, Note_off_c, 12, 69, 64
13, 441440, Note_on_c, 12, 69, 108
13, 441440, Note_on_c, 12, 72, 108
13, 441595, Note_off_c, 12, 72, 64
13, 441595, Note_off_c, 12, 69, 64
13, 441600, Note_on_c, 12, 69, 108
13, 441600, Note_on_c, 12, 72, 108
13, 442235, Note_off_c, 12, 72, 64
13, 442235, Note_off_c, 12, 69, 64
13, 442240, Note_on_c, 12, 67, 103
13, 442240, Note_on_c, 12, 70, 103
13, 442395, Note_off_c, 12, 70, 64
13, 442395, Note_off_c, 12, 67, 64
13, 442400, Note_on_c, 12, 67, 102
13, 442400, Note_on_c, 12, 70, 102
13, 442555, Note_off_c, 12, 70, 64
13, 442555, Note_off_c, 12, 67, 64
13, 442560, Note_on_c, 12, 67, 101
13, 442560, Note_on_c, 12, 70, 101
13, 443195, Note_off_c, 12, 70, 64
13, 443195, Note_off_c, 12, 67, 64
13, 443200, Note_on_c, 12, 65, 96
13, 443200, Note_on_c, 12, 69, 96
13, 443355, Note_off_c, 12, 69, 64
13, 443355, Note_off_c, 12, 65, 64
13, 443360, Note_on_c, 12, 65, 94
13, 443360, Note_on_c, 12, 69, 94
13, 443515, Note_off_c, 12, 69, 64
13, 443515, Note_off_c, 12, 65, 64
13, 443520, Note_on_c, 12, 65, 92
13, 443520, Note_on_c, 12, 69, 92
13, 444155, Note_off_c, 12, 69, 64
13, 444155, Note_off_c, 12, 65, 64
13, 444160, Note_on_c, 12, 64, 92
13, 444160, Note_on_c, 12, 67, 92
13, 444315, Note_off_c, 12, 67, 64
13, 444315, Note_off_c, 12, 64, 64
13, 444320, Note_on_c, 12, 64, 92
13, 444320, Note_on_c, 12, 67, 92
13, 444475, Note_off_c, 12, 67, 64
13, 444475, Note_off_c, 12, 64, 64
13, 444480, Note_on_c, 12, 64, 92
13, 444480, Note_on_c, 12, 67, 92
13, 445115, Note_off_c, 12, 67, 64
13, 445115, Note_off_c, 12, 64, 64
13, 445120, Note_on_c, 12, 62, 81
13, 445120, Note_on_c, 12, 65, 81
13, 445275, Note_off_c, 12, 65, 64
13, 445275, Note_off_c, 12, 62, 64
13, 445280, Note_on_c, 12, 62, 78
13, 445280, Note_on_c, 12, 65, 78
13, 445435, Note_off_c, 12, 65, 64
13, 445435, Note_off_c, 12, 62, 64
13, 445440, Note_on_c, 12, 62, 75
13, 445440, Note_on_c, 12, 65, 75
13, 446075, Note_off_c, 12, 65, 64
13, 446075, Note_off_c, 12, 62, 64
13, 446080, Note_on_c, 12, 60, 75
13, 446080, Note_on_c, 12, 64, 75
13, 446235, Note_off_c, 12, 64, 64
13, 446235, Note_off_c, 12, 60, 64
13, 446240, Note_on_c, 12, 60, 75
13, 446240, Note_on_c, 12, 64, 75
13, 446395, Note_off_c, 12, 64, 64
13, 446395, Note_off_c, 12, 60, 64
13, 446400, Note_on_c, 12, 60, 75
13, 446400, Note_on_c, 12, 64, 75
13, 447035, Note_off_c, 12, 64, 64
13, 447035, Note_off_c, 12, 60, 64
13, 447040, Note_on_c, 12, 58, 66
13, 447040, Note_on_c, 12, 62, 66
13, 447195, Note_off_c, 12, 62, 64
13, 447195, Note_off_c, 12, 58, 64
13, 447200, Note_on_c, 12, 58, 63
13, 447200, Note_on_c, 12, 62, 63
13, 447355, Note_off_c, 12, 62, 64
13, 447355, Note_off_c, 12, 58, 64
13, 447360, Note_on_c, 12, 58, 60
13, 447360, Note_on_c, 12, 62, 60
13, 447995, Note_off_c, 12, 62, 64
13, 447995, Note_off_c, 12, 58, 64
13, 448000, Note_on_c, 12, 57, 60
13, 448000, Note_on_c, 12, 60, 60
13, 448155, Note_off_c, 12, 60, 64
13, 448155, Note_off_c, 12, 57, 64
13, 448160, Note_on_c, 12, 57, 60
13, 448160, Note_on_c, 12, 60, 60
13, 448315, Note_off_c, 12, 60, 64
13, 448315, Note_off_c, 12, 57, 64
13, 448320, Note_on_c, 12, 57, 60
13, 448320, Note_on_c, 12, 60, 60
13, 448955, Note_off_c, 12, 60, 64
13, 448955, Note_off_c, 12, 57, 64
13, 448960, Note_on_c, 12, 55, 60
13, 448960, Note_on_c, 12, 58, 60
13, 449115, Note_off_c, 12, 58, 64
13, 449115, Note_off_c, 12, 55, 64
13, 449120, Note_on_c, 12, 55, 60
13, 449120, Note_on_c, 12, 58, 60
13, 449275, Note_off_c, 12, 58, 64
13, 449275, Note_off_c, 12, 55, 64
13, 449280, Note_on_c, 12, 58, 60
13, 449360, Note_off_c, 12, 58, 64
13, 449520, Note_on_c, 12, 55, 60
13, 449640, Note_off_c, 12, 55, 64
13, 449640, Note_on_c, 12, 53, 60
13, 449760, Note_off_c, 12, 53, 64
13, 449760, Note_on_c, 12, 52, 60
13, 449840, Note_off_c, 12, 52, 64
13, 450000, Note_on_c, 12, 48, 60
13, 450080, Note_off_c, 12, 48, 64
13, 450240, Note_on_c, 12, 53, 45
13, 451080, Note_off_c, 12, 53, 64
13, 451200, Note_on_c, 12, 55, 92
13, 451840, Note_off_c, 12, 55, 64
13, 451920, Note_on_c, 12, 67, 92
13, 452155, Note_off_c, 12, 67, 64
13, 452160, Note_on_c, 12, 65, 92
13, 452395, Note_off_c, 12, 65, 64
13, 452640, Note_on_c, 12, 48, 92
13, 452875, Note_off_c, 12, 48, 64
13, 453120, Note_on_c, 12, 58, 60
13, 453200, Note_off_c, 12, 58, 64
13, 453360, Note_on_c, 12, 55, 60
13, 453480, Note_off_c, 12, 55, 64
13, 453480, Note_on_c, 12, 53, 60
13, 453600, Note_off_c, 12, 53, 64
13, 453600, Note_on_c, 12, 52, 60
13, 453680, Note_off_c, 12, 52, 64
13, 453840, Note_on_c, 12, 48, 60
13, 453920, Note_off_c, 12, 48, 64
13, 454080, Note_on_c, 12, 53, 45
13, 454920, Note_off_c, 12, 53, 64
13, 455040, Note_on_c, 12, 55, 92
13, 455680, Note_off_c, 12, 55, 64
13, 455760, Note_on_c, 12, 67, 92
13, 455995, Note_off_c, 12, 67, 64
13, 456000, Note_on_c, 12, 65, 92
13, 456235, Note_off_c, 12, 65, 64
13, 456480, Note_on_c, 12, 48, 92
13, 456715, Note_off_c, 12, 48, 64
13, 456960, Note_on_c, 12, 53, 92
13, 457195, Note_off_c, 12, 53, 64
13, 459840, Note_on_c, 12, 67, 92
13, 460480, Note_off_c, 12, 67, 64
13, 460560, Note_on_c, 12, 67, 92
13, 460795, Note_off_c, 12, 67, 64
13, 460800, Note_on_c, 12, 60, 92
13, 460800, Note_on_c, 12, 69, 92
13, 461035, Note_off_c, 12, 69, 64
13, 461035, Note_off_c, 12, 60, 64
13, 463680, Note_on_c, 12, 67, 92
13, 464320, Note_off_c, 12, 67, 64
13, 464400, Note_on_c, 12, 67, 92
13, 464635, Note_off_c, 12, 67, 64
13, 464640, Note_on_c, 12, 60, 92
13, 464640, Note_on_c, 12, 69, 92
13, 464875, Note_off_c, 12, 69, 64
13, 464875, Note_off_c, 12, 60, 64
13, 465600, Note_on_c, 12, 67, 92
13, 466240, Note_off_c, 12, 67, 64
13, 466320, Note_on_c, 12, 67, 92
13, 466555, Note_off_c, 12, 67, 64
13, 466560, Note_on_c, 12, 60, 92
13, 466560, Note_on_c, 12, 69, 92
13, 466795, Note_off_c, 12, 69, 64
13, 466795, Note_off_c, 12, 60, 64
13, 467520, Note_on_c, 12, 67, 92
13, 468160, Note_off_c, 12, 67, 64
13, 468240, Note_on_c, 12, 67, 92
13, 468475, Note_off_c, 12, 67, 64
13, 468480, Note_on_c, 12, 60, 92
13, 468480, Note_on_c, 12, 69, 92
13, 468715, Note_off_c, 12, 69, 64
13, 468715, Note_off_c, 12, 60, 64
13, 469440, Note_on_c, 12, 60, 92
13, 469440, Note_on_c, 12, 69, 92
13, 469675, Note_off_c, 12, 69, 64
13, 469675, Note_off_c, 12, 60, 64
13, 470400, Note_on_c, 12, 60, 75
13, 470400, Note_on_c, 12, 69, 75
13, 470635, Note_off_c, 12, 69, 64
13, 470635, Note_off_c, 12, 60, 64
13, 471360, Note_on_c, 12, 60, 45
13, 471360, Note_on_c, 12, 69, 45
13, 471595, Note_off_c, 12, 69, 64
13, 471595, Note_off_c, 12, 60, 64
13, 472320, Note_on_c, 12, 60, 30
13, 472320, Note_on_c, 12, 69, 30
13, 472555, Note_off_c, 12, 69, 64
13, 472555, Note_off_c, 12, 60, 64
13, 485040, Note_on_c, 12, 58, 92
13, 485120, Note_off_c, 12, 58, 64
13, 485280, Note_on_c, 12, 60, 92
13, 485360, Note_off_c, 12, 60, 64
13, 485520, Note_on_c, 12, 62, 92
13, 485600, Note_off_c, 12, 62, 64
13, 485760, Note_on_c, 12, 64, 92
13, 485840, Note_off_c, 12, 64, 64
13, 486000, Note_on_c, 12, 65, 92
13, 486840, Note_off_c, 12, 65, 64
13, 486960, Note_on_c, 12, 48, 92
13, 486960, Note_on_c, 12, 60, 92
13, 487800, Note_off_c, 12, 60, 64
13, 487800, Note_off_c, 12, 48, 64
13, 487920, Note_on_c, 12, 53, 92
13, 488760, Note_off_c, 12, 53, 64
13, 488880, Note_on_c, 12, 48, 75
13, 488880, Note_on_c, 12, 57, 75
13, 489360, Note_off_c, 12, 57, 64
13, 489360, Note_off_c, 12, 48, 64
13, 489360, Note_on_c, 12, 48, 75
13, 489360, Note_on_c, 12, 57, 75
13, 489840, Note_off_c, 12, 57, 64
13, 489840, Note_off_c, 12, 48, 64
13, 489840, Note_on_c, 12, 48, 75
13, 489840, Note_on_c, 12, 57, 75
13, 490680, Note_off_c, 12, 57, 64
13, 490680, Note_off_c, 12, 48, 64
13, 490800, Note_on_c, 12, 48, 60
13, 490800, Note_on_c, 12, 53, 60
13, 491640, Note_off_c, 12, 53, 64
13, 491640, Note_off_c, 12, 48, 64
13, 491760, Note_on_c, 12, 48, 60
13, 491760, Note_on_c, 12, 53, 60
13, 492600, Note_off_c, 12, 53, 64
13, 492600, Note_off_c, 12, 48, 64
13, 496080, Note_on_c, 12, 60, 60
13, 496200, Note_off_c, 12, 60, 64
13, 496560, Note_on_c, 12, 65, 60
13, 496680, Note_off_c, 12, 65, 64
13, 497040, Note_on_c, 12, 60, 60
13, 497160, Note_off_c, 12, 60, 64
13, 497520, Note_on_c, 12, 62, 60
13, 497640, Note_off_c, 12, 62, 64
13, 498000, Note_on_c, 12, 60, 60
13, 498120, Note_off_c, 12, 60, 64
13, 498480, Note_on_c, 12, 57, 60
13, 498600, Note_off_c, 12, 57, 64
13, 498960, Note_on_c, 12, 58, 60
13, 499080, Note_off_c, 12, 58, 64
13, 499440, Note_on_c, 12, 57, 60
13, 499560, Note_off_c, 12, 57, 64
13, 499920, Note_on_c, 12, 53, 60
13, 500040, Note_off_c, 12, 53, 64
13, 500400, Note_on_c, 12, 55, 60
13, 500520, Note_off_c, 12, 55, 64
13, 500880, Note_on_c, 12, 57, 60
13, 501000, Note_off_c, 12, 57, 64
13, 501360, Note_on_c, 12, 53, 60
13, 501480, Note_off_c, 12, 53, 64
13, 501840, Note_on_c, 12, 55, 60
13, 501960, Note_off_c, 12, 55, 64
13, 502320, Note_on_c, 12, 57, 60
13, 502440, Note_off_c, 12, 57, 64
13, 502800, Note_on_c, 12, 53, 60
13, 502920, Note_off_c, 12, 53, 64
13, 503280, Note_on_c, 12, 55, 60
13, 503400, Note_off_c, 12, 55, 64
13, 503760, Note_on_c, 12, 53, 60
13, 503880, Note_off_c, 12, 53, 64
13, 504240, Note_on_c, 12, 50, 60
13, 504360, Note_off_c, 12, 50, 64
13, 504720, Note_on_c, 12, 52, 60
13, 504840, Note_off_c, 12, 52, 64
13, 505200, Note_on_c, 12, 50, 60
13, 505320, Note_off_c, 12, 50, 64
13, 505680, Note_on_c, 12, 45, 60
13, 505800, Note_off_c, 12, 45, 64
13, 506160, Note_on_c, 12, 45, 60
13, 506280, Note_off_c, 12, 45, 64
13, 506640, Note_on_c, 12, 45, 60
13, 506760, Note_off_c, 12, 45, 64
13, 507600, Note_on_c, 12, 45, 60
13, 508080, Note_off_c, 12, 45, 64
13, 508080, Note_on_c, 12, 50, 60
13, 509040, Note_off_c, 12, 50, 64
13, 509040, Note_on_c, 12, 54, 60
13, 509520, Note_off_c, 12, 54, 64
13, 509520, Note_on_c, 12, 57, 60
13, 510000, Note_off_c, 12, 57, 64
13, 510000, Note_on_c, 12, 54, 60
13, 510400, Note_off_c, 12, 54, 64
13, 510480, Note_on_c, 12, 54, 60
13, 510960, Note_off_c, 12, 54, 64
13, 510960, Note_on_c, 12, 57, 60
13, 511440, Note_off_c, 12, 57, 64
13, 511440, Note_on_c, 12, 61, 60
13, 511920, Note_off_c, 12, 61, 64
13, 511920, Note_on_c, 12, 62, 60
13, 512160, Note_off_c, 12, 62, 64
13, 512160, Note_on_c, 12, 59, 60
13, 512400, Note_off_c, 12, 59, 64
13, 512400, Note_on_c, 12, 57, 60
13, 513240, Note_off_c, 12, 57, 64
13, 513360, Note_on_c, 12, 52, 60
13, 513360, Note_on_c, 12, 61, 60
13, 513840, Note_off_c, 12, 61, 64
13, 513840, Note_off_c, 12, 52, 64
13, 513840, Note_on_c, 12, 54, 60
13, 513840, Note_on_c, 12, 62, 60
13, 514320, Note_off_c, 12, 62, 64
13, 514320, Note_on_c, 12, 57, 60
13, 514680, Note_off_c, 12, 54, 64
13, 514800, Note_off_c, 12, 57, 64
13, 514800, Note_on_c, 12, 55, 60
13, 514800, Note_on_c, 12, 59, 60
13, 515200, Note_off_c, 12, 59, 64
13, 515200, Note_off_c, 12, 55, 64
13, 515280, Note_on_c, 12, 54, 60
13, 515280, Note_on_c, 12, 57, 60
13, 515760, Note_off_c, 12, 57, 64
13, 515760, Note_off_c, 12, 54, 64
13, 515760, Note_on_c, 12, 57, 60
13, 516240, Note_off_c, 12, 57, 64
13, 516240, Note_on_c, 12, 59, 60
13, 516720, Note_off_c, 12, 59, 64
13, 516720, Note_on_c, 12, 57, 60
13, 517200, Note_off_c, 12, 57, 64
13, 517200, Note_on_c, 12, 54, 60
13, 517680, Note_off_c, 12, 54, 64
13, 517680, Note_on_c, 12, 57, 60
13, 518160, Note_off_c, 12, 57, 64
13, 518160, Note_on_c, 12, 50, 60
13, 518560, Note_off_c, 12, 50, 64
13, 519120, Note_on_c, 12, 60, 60
13, 519240, Note_off_c, 12, 60, 64
13, 519600, Note_on_c, 12, 65, 60
13, 519720, Note_off_c, 12, 65, 64
13, 520080, Note_on_c, 12, 60, 60
13, 520200, Note_off_c, 12, 60, 64
13, 520560, Note_on_c, 12, 62, 60
13, 520680, Note_off_c, 12, 62, 64
13, 521040, Note_on_c, 12, 60, 60
13, 521160, Note_off_c, 12, 60, 64
13, 521520, Note_on_c, 12, 57, 60
13, 521640, Note_off_c, 12, 57, 64
13, 522000, Note_on_c, 12, 58, 60
13, 522120, Note_off_c, 12, 58, 64
13, 522480, Note_on_c, 12, 57, 60
13, 522600, Note_off_c, 12, 57, 64
13, 522960, Note_on_c, 12, 53, 60
13, 523080, Note_off_c, 12, 53, 64
13, 523440, Note_on_c, 12, 55, 60
13, 523560, Note_off_c, 12, 55, 64
13, 523920, Note_on_c, 12, 57, 60
13, 524040, Note_off_c, 12, 57, 64
13, 524400, Note_on_c, 12, 53, 60
13, 524520, Note_off_c, 12, 53, 64
13, 524880, Note_on_c, 12, 55, 60
13, 525000, Note_off_c, 12, 55, 64
13, 525360, Note_on_c, 12, 57, 60
13, 525480, Note_off_c, 12, 57, 64
13, 525840, Note_on_c, 12, 53, 60
13, 525960, Note_off_c, 12, 53, 64
13, 526320, Note_on_c, 12, 55, 60
13, 526440, Note_off_c, 12, 55, 64
13, 526800, Note_on_c, 12, 53, 60
13, 526920, Note_off_c, 12, 53, 64
13, 527280, Note_on_c, 12, 50, 60
13, 527400, Note_off_c, 12, 50, 64
13, 527760, Note_on_c, 12, 52, 60
13, 527880, Note_off_c, 12, 52, 64
13, 528240, Note_on_c, 12, 50, 60
13, 528360, Note_off_c, 12, 50, 64
13, 528720, Note_on_c, 12, 45, 60
13, 528840, Note_off_c, 12, 45, 64
13, 529200, Note_on_c, 12, 45, 60
13, 529320, Note_off_c, 12, 45, 64
13, 529680, Note_on_c, 12, 45, 60
13, 529800, Note_off_c, 12, 45, 64
13, 530640, Note_on_c, 12, 45, 60
13, 531120, Note_off_c, 12, 45, 64
13, 531120, Note_on_c, 12, 50, 60
13, 532080, Note_off_c, 12, 50, 64
13, 532080, Note_on_c, 12, 54, 60
13, 532560, Note_off_c, 12, 54, 64
13, 532560, Note_on_c, 12, 57, 60
13, 533040, Note_off_c, 12, 57, 64
13, 533040, Note_on_c, 12, 54, 60
13, 533440, Note_off_c, 12, 54, 64
13, 533520, Note_on_c, 12, 54, 60
13, 534000, Note_off_c, 12, 54, 64
13, 534000, Note_on_c, 12, 57, 60
13, 534480, Note_off_c, 12, 57, 64
13, 534480, Note_on_c, 12, 61, 60
13, 534960, Note_off_c, 12, 61, 64
13, 534960, Note_on_c, 12, 62, 60
13, 535200, Note_off_c, 12, 62, 64
13, 535200, Note_on_c, 12, 59, 60
13, 535440, Note_off_c, 12, 59, 64
13, 535440, Note_on_c, 12, 57, 60
13, 536280, Note_off_c, 12, 57, 64
13, 536400, Note_on_c, 12, 52, 60
13, 536400, Note_on_c, 12, 61, 60
13, 536880, Note_off_c, 12, 61, 64
13, 536880, Note_off_c, 12, 52, 64
13, 536880, Note_on_c, 12, 54, 60
13, 536880, Note_on_c, 12, 62, 60
13, 537360, Note_off_c, 12, 62, 64
13, 537360, Note_on_c, 12, 57, 60
13, 537720, Note_off_c, 12, 54, 64
13, 537840, Note_off_c, 12, 57, 64
13, 537840, Note_on_c, 12, 55, 60
13, 537840, Note_on_c, 12, 59, 60
13, 538240, Note_off_c, 12, 59, 64
13, 538240, Note_off_c, 12, 55, 64
13, 538320, Note_on_c, 12, 54, 60
13, 538320, Note_on_c, 12, 57, 60
13, 538800, Note_off_c, 12, 57, 64
13, 538800, Note_off_c, 12, 54, 64
13, 538800, Note_on_c, 12, 57, 60
13, 538800, Note_on_c, 12, 69, 60
13, 539280, Note_off_c, 12, 69, 64
13, 539280, Note_off_c, 12, 57, 64
13, 539280, Note_on_c, 12, 59, 60
13, 539280, Note_on_c, 12, 71, 60
13, 539760, Note_off_c, 12, 71, 64
13, 539760, Note_off_c, 12, 59, 64
13, 539760, Note_on_c, 12, 57, 60
13, 539760, Note_on_c, 12, 69, 60
13, 540240, Note_off_c, 12, 69, 64
13, 540240, Note_off_c, 12, 57, 64
13, 540240, Note_on_c, 12, 54, 60
13, 540240, Note_on_c, 12, 66, 60
13, 540720, Note_off_c, 12, 66, 64
13, 540720, Note_off_c, 12, 54, 64
13, 540720, Note_on_c, 12, 57, 60
13, 540720, Note_on_c, 12, 69, 60
13, 541200, Note_off_c, 12, 69, 64
13, 541200, Note_off_c, 12, 57, 64
13, 541200, Note_on_c, 12, 50, 60
13, 541600, Note_off_c, 12, 50, 64
13, 547920, Program_c, 12, 50
13, 547920, Note_on_c, 12, 62, 60
13, 548040, Note_off_c, 12, 62, 64
13, 548400, Note_on_c, 12, 67, 60
13, 548520, Note_off_c, 12, 67, 64
13, 548880, Note_on_c, 12, 62, 60
13, 549000, Note_off_c, 12, 62, 64
13, 549360, Note_on_c, 12, 64, 60
13, 549480, Note_off_c, 12, 64, 64
13, 549840, Note_on_c, 12, 62, 60
13, 549960, Note_off_c, 12, 62, 64
13, 550320, Note_on_c, 12, 59, 60
13, 550440, Note_off_c, 12, 59, 64
13, 550800, Note_on_c, 12, 60, 60
13, 550920, Note_off_c, 12, 60, 64
13, 551280, Note_on_c, 12, 59, 60
13, 551400, Note_off_c, 12, 59, 64
13, 551760, Note_on_c, 12, 55, 60
13, 551880, Note_off_c, 12, 55, 64
13, 552240, Note_on_c, 12, 57, 60
13, 552360, Note_off_c, 12, 57, 64
13, 552720, Note_on_c, 12, 59, 60
13, 552840, Note_off_c, 12, 59, 64
13, 553200, Note_on_c, 12, 55, 60
13, 553320, Note_off_c, 12, 55, 64
13, 553680, Note_on_c, 12, 55, 60
13, 554160, Note_off_c, 12, 55, 64
13, 554160, Program_c, 12, 48
13, 554160, Note_on_c, 12, 48, 60
13, 555120, Note_off_c, 12, 48, 64
13, 555120, Note_on_c, 12, 52, 60
13, 555600, Note_off_c, 12, 52, 64
13, 555600, Note_on_c, 12, 55, 60
13, 556080, Note_off_c, 12, 55, 64
13, 556080, Note_on_c, 12, 52, 60
13, 556480, Note_off_c, 12, 52, 64
13, 556560, Note_on_c, 12, 52, 60
13, 557040, Note_off_c, 12, 52, 64
13, 557040, Note_on_c, 12, 55, 60
13, 557520, Note_off_c, 12, 55, 64
13, 557520, Note_on_c, 12, 59, 60
13, 558000, Note_off_c, 12, 59, 64
13, 558000, Note_on_c, 12, 60, 60
13, 558240, Note_off_c, 12, 60, 64
13, 558240, Note_on_c, 12, 57, 60
13, 558480, Note_off_c, 12, 57, 64
13, 558480, Note_on_c, 12, 55, 60
13, 559320, Note_off_c, 12, 55, 64
13, 559440, Note_on_c, 12, 59, 60
13, 559920, Note_off_c, 12, 59, 64
13, 559920, Note_on_c, 12, 64, 60
13, 560880, Note_off_c, 12, 64, 64
13, 560880, Note_on_c, 12, 65, 60
13, 561360, Note_off_c, 12, 65, 64
13, 561360, Note_on_c, 12, 64, 60
13, 561840, Note_off_c, 12, 64, 64
13, 561840, Note_on_c, 12, 60, 60
13, 562320, Note_off_c, 12, 60, 64
13, 562320, Note_on_c, 12, 60, 60
13, 562800, Note_off_c, 12, 60, 64
13, 562800, Note_on_c, 12, 60, 60
13, 563280, Note_off_c, 12, 60, 64
13, 563280, Note_on_c, 12, 52, 60
13, 563760, Note_off_c, 12, 52, 64
13, 563760, Note_on_c, 12, 53, 60
13, 564240, Note_off_c, 12, 53, 64
13, 564240, Note_on_c, 12, 52, 60
13, 564640, Note_off_c, 12, 52, 64
13, 565200, Note_on_c, 12, 48, 66
13, 565680, Note_off_c, 12, 48, 64
13, 565680, Note_on_c, 12, 60, 69
13, 566160, Note_off_c, 12, 60, 64
13, 566160, Note_on_c, 12, 57, 72
13, 566640, Note_off_c, 12, 57, 64
13, 566640, Note_on_c, 12, 58, 75
13, 567120, Note_off_c, 12, 58, 64
13, 567120, Note_on_c, 12, 57, 78
13, 567600, Note_off_c, 12, 57, 64
13, 567600, Note_on_c, 12, 53, 81
13, 568080, Note_off_c, 12, 53, 64
13, 568080, Note_on_c, 12, 55, 84
13, 568560, Note_off_c, 12, 55, 64
13, 568560, Note_on_c, 12, 53, 88
13, 569040, Note_off_c, 12, 53, 64
13, 569040, Note_on_c, 12, 48, 92
13, 569520, Note_off_c, 12, 48, 64
13, 569520, Note_on_c, 12, 55, 96
13, 570000, Note_off_c, 12, 55, 64
13, 570000, Note_on_c, 12, 57, 100
13, 570480, Note_off_c, 12, 57, 64
13, 570480, Note_on_c, 12, 53, 104
13, 570880, Note_off_c, 12, 53, 64
13, 570960, Note_on_c, 12, 60, 108
13, 571080, Note_off_c, 12, 60, 64
13, 571440, Note_on_c, 12, 65, 108
13, 571560, Note_off_c, 12, 65, 64
13, 571920, Note_on_c, 12, 60, 108
13, 572040, Note_off_c, 12, 60, 64
13, 572400, Note_on_c, 12, 62, 108
13, 572520, Note_off_c, 12, 62, 64
13, 572880, Note_on_c, 12, 60, 108
13, 573000, Note_off_c, 12, 60, 64
13, 573360, Note_on_c, 12, 57, 108
13, 573480, Note_off_c, 12, 57, 64
13, 573840, Note_on_c, 12, 58, 108
13, 573960, Note_off_c, 12, 58, 64
13, 574320, Note_on_c, 12, 57, 108
13, 574440, Note_off_c, 12, 57, 64
13, 574800, Note_on_c, 12, 53, 108
13, 574920, Note_off_c, 12, 53, 64
13, 575280, Note_on_c, 12, 55, 108
13, 575400, Note_off_c, 12, 55, 64
13, 575760, Note_on_c, 12, 57, 108
13, 575880, Note_off_c, 12, 57, 64
13, 576240, Note_on_c, 12, 53, 108
13, 576360, Note_off_c, 12, 53, 64
13, 576720, Note_on_c, 12, 55, 108
13, 576840, Note_off_c, 12, 55, 64
13, 577200, Note_on_c, 12, 57, 108
13, 577320, Note_off_c, 12, 57, 64
13, 577680, Note_on_c, 12, 53, 108
13, 577800, Note_off_c, 12, 53, 64
13, 578160, Note_on_c, 12, 55, 108
13, 578280, Note_off_c, 12, 55, 64
13, 578640, Note_on_c, 12, 57, 108
13, 578760, Note_off_c, 12, 57, 64
13, 579120, Note_on_c, 12, 53, 108
13, 579240, Note_off_c, 12, 53, 64
13, 579600, Note_on_c, 12, 55, 108
13, 579720, Note_off_c, 12, 55, 64
13, 580080, Note_on_c, 12, 57, 108
13, 581400, Note_off_c, 12, 57, 64
13, 581520, Note_on_c, 12, 55, 108
13, 582360, Note_off_c, 12, 55, 64
13, 582480, Note_on_c, 12, 53, 108
13, 582880, Note_off_c, 12, 53, 64
13, 582960, Note_on_c, 12, 52, 108
13, 583800, Note_off_c, 12, 52, 64
13, 583920, Note_on_c, 12, 50, 108
13, 584320, Note_off_c, 12, 50, 64
13, 584400, Note_on_c, 12, 48, 108
13, 585240, Note_off_c, 12, 48, 64
13, 585360, Note_on_c, 12, 55, 108
13, 585760, Note_off_c, 12, 55, 64
13, 585840, Note_on_c, 12, 60, 108
13, 587160, Note_off_c, 12, 60, 64
13, 587280, Note_on_c, 12, 62, 108
13, 588600, Note_off_c, 12, 62, 64
13, 588720, Note_on_c, 12, 60, 108
13, 590040, Note_off_c, 12, 60, 64
13, 590160, Note_on_c, 12, 48, 108
13, 591480, Note_off_c, 12, 48, 64
13, 591600, Note_on_c, 12, 53, 108
13, 592000, Note_off_c, 12, 53, 64
13, 592560, Note_on_c, 12, 69, 108
13, 592960, Note_off_c, 12, 69, 64
13, 593040, Note_on_c, 12, 67, 108
13, 593880, Note_off_c, 12, 67, 64
13, 594000, Note_on_c, 12, 65, 108
13, 594400, Note_off_c, 12, 65, 64
13, 594480, Note_on_c, 12, 64, 108
13, 595320, Note_off_c, 12, 64, 64
13, 595440, Note_on_c, 12, 62, 108
13, 595840, Note_off_c, 12, 62, 64
13, 595920, Note_on_c, 12, 60, 108
13, 596760, Note_off_c, 12, 60, 64
13, 596880, Note_on_c, 12, 67, 108
13, 597280, Note_off_c, 12, 67, 64
13, 597360, Note_on_c, 12, 60, 108
13, 598680, Note_off_c, 12, 60, 64
13, 598800, Note_on_c, 12, 62, 108
13, 600120, Note_off_c, 12, 62, 64
13, 600240, Note_on_c, 12, 60, 108
13, 601560, Note_off_c, 12, 60, 64
13, 601680, Note_on_c, 12, 48, 108
13, 601680, Note_on_c, 12, 60, 108
13, 603000, Note_off_c, 12, 60, 64
13, 603000, Note_off_c, 12, 48, 64
13, 603120, Note_on_c, 12, 53, 108
13, 603200, Note_off_c, 12, 53, 64
13, 603360, Note_on_c, 12, 57, 108
13, 603440, Note_off_c, 12, 57, 64
13, 603600, Note_on_c, 12, 60, 108
13, 603680, Note_off_c, 12, 60, 64
13, 603840, Note_on_c, 12, 65, 108
13, 603920, Note_off_c, 12, 65, 64
13, 604080, Note_on_c, 12, 69, 108
13, 604480, Note_off_c, 12, 69, 64
13, 607440, Note_on_c, 12, 60, 92
13, 607840, Note_off_c, 12, 60, 64
13, 607920, Note_on_c, 12, 60, 92
13, 608320, Note_off_c, 12, 60, 64
13, 608400, Note_on_c, 12, 60, 92
13, 608800, Note_off_c, 12, 60, 64
13, 608880, Note_on_c, 12, 53, 108
13, 608960, Note_off_c, 12, 53, 64
13, 609120, Note_on_c, 12, 57, 108
13, 609200, Note_off_c, 12, 57, 64
13, 609360, Note_on_c, 12, 60, 108
13, 609440, Note_off_c, 12, 60, 64
13, 609600, Note_on_c, 12, 65, 108
13, 609680, Note_off_c, 12, 65, 64
13, 609840, Note_on_c, 12, 69, 108
13, 610240, Note_off_c, 12, 69, 64
13, 613200, Note_on_c, 12, 60, 92
13, 613600, Note_off_c, 12, 60, 64
13, 613680, Note_on_c, 12, 60, 92
13, 614080, Note_off_c, 12, 60, 64
13, 614160, Note_on_c, 12, 60, 92
13, 614560, Note_off_c, 12, 60, 64
13, 614640, Note_on_c, 12, 53, 92
13, 615040, Note_off_c, 12, 53, 64
13, 617520, Note_on_c, 12, 53, 92
13, 617920, Note_off_c, 12, 53, 64
13, 678000, Note_on_c, 12, 60, 45
13, 679320, Note_off_c, 12, 60, 64
13, 679440, Note_on_c, 12, 55, 51
13, 680760, Note_off_c, 12, 55, 64
13, 680880, Note_on_c, 12, 48, 57
13, 682200, Note_off_c, 12, 48, 64
13, 685200, Note_on_c, 12, 55, 75
13, 685200, Note_on_c, 12, 60, 75
13, 685320, Note_off_c, 12, 60, 64
13, 685320, Note_off_c, 12, 55, 64
13, 685680, Note_on_c, 12, 52, 75
13, 685680, Note_on_c, 12, 55, 75
13, 685800, Note_off_c, 12, 55, 64
13, 685800, Note_off_c, 12, 52, 64
13, 686160, Note_on_c, 12, 52, 75
13, 686160, Note_on_c, 12, 55, 75
13, 686280, Note_off_c, 12, 55, 64
13, 686280, Note_off_c, 12, 52, 64
13, 686640, Note_on_c, 12, 57, 75
13, 686640, Note_on_c, 12, 60, 75
13, 686760, Note_off_c, 12, 60, 64
13, 686760, Note_off_c, 12, 57, 64
13, 687120, Note_on_c, 12, 53, 70
13, 687120, Note_on_c, 12, 57, 70
13, 687240, Note_off_c, 12, 57, 64
13, 687240, Note_off_c, 12, 53, 64
13, 687600, Note_on_c, 12, 53, 65
13, 687600, Note_on_c, 12, 57, 65
13, 687720, Note_off_c, 12, 57, 64
13, 687720, Note_off_c, 12, 53, 64
13, 688080, Note_on_c, 12, 57, 60
13, 688080, Note_on_c, 12, 60, 60
13, 688200, Note_off_c, 12, 60, 64
13, 688200, Note_off_c, 12, 57, 64
13, 688560, Note_on_c, 12, 53, 60
13, 688560, Note_on_c, 12, 57, 60
13, 688680, Note_off_c, 12, 57, 64
13, 688680, Note_off_c, 12, 53, 64
13, 689040, Note_on_c, 12, 53, 60
13, 689040, Note_on_c, 12, 57, 60
13, 689160, Note_off_c, 12, 57, 64
13, 689160, Note_off_c, 12, 53, 64
13, 689520, Note_on_c, 12, 58, 60
13, 689520, Note_on_c, 12, 60, 60
13, 689640, Note_off_c, 12, 60, 64
13, 689640, Note_off_c, 12, 58, 64
13, 690000, Note_on_c, 12, 53, 60
13, 690000, Note_on_c, 12, 58, 60
13, 690120, Note_off_c, 12, 58, 64
13, 690120, Note_off_c, 12, 53, 64
13, 690480, Note_on_c, 12, 53, 60
13, 690480, Note_on_c, 12, 58, 60
13, 690600, Note_off_c, 12, 58, 64
13, 690600, Note_off_c, 12, 53, 64
13, 690960, Note_on_c, 12, 58, 60
13, 690960, Note_on_c, 12, 60, 60
13, 691080, Note_off_c, 12, 60, 64
13, 691080, Note_off_c, 12, 58, 64
13, 691440, Note_on_c, 12, 53, 60
13, 691440, Note_on_c, 12, 58, 60
13, 691560, Note_off_c, 12, 58, 64
13, 691560, Note_off_c, 12, 53, 64
13, 691920, Note_on_c, 12, 53, 60
13, 691920, Note_on_c, 12, 58, 60
13, 692040, Note_off_c, 12, 58, 64
13, 692040, Note_off_c, 12, 53, 64
13, 692400, Note_on_c, 12, 57, 60
13, 692400, Note_on_c, 12, 60, 60
13, 692520, Note_off_c, 12, 60, 64
13, 692520, Note_off_c, 12, 57, 64
13, 692880, Note_on_c, 12, 53, 60
13, 692880, Note_on_c, 12, 57, 60
13, 693000, Note_off_c, 12, 57, 64
13, 693000, Note_off_c, 12, 53, 64
13, 693360, Note_on_c, 12, 53, 60
13, 693360, Note_on_c, 12, 57, 60
13, 693480, Note_off_c, 12, 57, 64
13, 693480, Note_off_c, 12, 53, 64
13, 693840, Note_on_c, 12, 55, 60
13, 693840, Note_on_c, 12, 60, 60
13, 693960, Note_off_c, 12, 60, 64
13, 693960, Note_off_c, 12, 55, 64
13, 694320, Note_on_c, 12, 52, 60
13, 694320, Note_on_c, 12, 55, 60
13, 694440, Note_off_c, 12, 55, 64
13, 694440, Note_off_c, 12, 52, 64
13, 694800, Note_on_c, 12, 52, 60
13, 694800, Note_on_c, 12, 55, 60
13, 694920, Note_off_c, 12, 55, 64
13, 694920, Note_off_c, 12, 52, 64
13, 695280, Note_on_c, 12, 57, 60
13, 695280, Note_on_c, 12, 60, 60
13, 695400, Note_off_c, 12, 60, 64
13, 695400, Note_off_c, 12, 57, 64
13, 695760, Note_on_c, 12, 53, 60
13, 695760, Note_on_c, 12, 57, 60
13, 695880, Note_off_c, 12, 57, 64
13, 695880, Note_off_c, 12, 53, 64
13, 696240, Note_on_c, 12, 53, 60
13, 696240, Note_on_c, 12, 57, 60
13, 696360, Note_off_c, 12, 57, 64
13, 696360, Note_off_c, 12, 53, 64
13, 696720, Note_on_c, 12, 57, 60
13, 696720, Note_on_c, 12, 60, 60
13, 696840, Note_off_c, 12, 60, 64
13, 696840, Note_off_c, 12, 57, 64
13, 697200, Note_on_c, 12, 53, 60
13, 697200, Note_on_c, 12, 57, 60
13, 697320, Note_off_c, 12, 57, 64
13, 697320, Note_off_c, 12, 53, 64
13, 697680, Note_on_c, 12, 53, 60
13, 697680, Note_on_c, 12, 57, 60
13, 697800, Note_off_c, 12, 57, 64
13, 697800, Note_off_c, 12, 53, 64
13, 698160, Note_on_c, 12, 57, 60
13, 698160, Note_on_c, 12, 60, 60
13, 698280, Note_off_c, 12, 60, 64
13, 698280, Note_off_c, 12, 57, 64
13, 698640, Note_on_c, 12, 53, 60
13, 698640, Note_on_c, 12, 57, 60
13, 698760, Note_off_c, 12, 57, 64
13, 698760, Note_off_c, 12, 53, 64
13, 699120, Note_on_c, 12, 53, 60
13, 699120, Note_on_c, 12, 57, 60
13, 699240, Note_off_c, 12, 57, 64
13, 699240, Note_off_c, 12, 53, 64
13, 699600, Note_on_c, 12, 57, 60
13, 699600, Note_on_c, 12, 60, 60
13, 699720, Note_off_c, 12, 60, 64
13, 699720, Note_off_c, 12, 57, 64
13, 700080, Note_on_c, 12, 53, 60
13, 700080, Note_on_c, 12, 57, 60
13, 700200, Note_off_c, 12, 57, 64
13, 700200, Note_off_c, 12, 53, 64
13, 700560, Note_on_c, 12, 53, 60
13, 700560, Note_on_c, 12, 57, 60
13, 700680, Note_off_c, 12, 57, 64
13, 700680, Note_off_c, 12, 53, 64
13, 701040, Note_on_c, 12, 58, 60
13, 701040, Note_on_c, 12, 60, 60
13, 701160, Note_off_c, 12, 60, 64
13, 701160, Note_off_c, 12, 58, 64
13, 701520, Note_on_c, 12, 48, 60
13, 701520, Note_on_c, 12, 52, 60
13, 701640, Note_off_c, 12, 52, 64
13, 701640, Note_off_c, 12, 48, 64
13, 702000, Note_on_c, 12, 48, 60
13, 702000, Note_on_c, 12, 52, 60
13, 702120, Note_off_c, 12, 52, 64
13, 702120, Note_off_c, 12, 48, 64
13, 702480, Note_on_c, 12, 58, 60
13, 702480, Note_on_c, 12, 60, 60
13, 702600, Note_off_c, 12, 60, 64
13, 702600, Note_off_c, 12, 58, 64
13, 702960, Note_on_c, 12, 52, 60
13, 702960, Note_on_c, 12, 55, 60
13, 703080, Note_off_c, 12, 55, 64
13, 703080, Note_off_c, 12, 52, 64
13, 703440, Note_on_c, 12, 52, 60
13, 703440, Note_on_c, 12, 55, 60
13, 703560, Note_off_c, 12, 55, 64
13, 703560, Note_off_c, 12, 52, 64
13, 703920, Note_on_c, 12, 53, 60
13, 703920, Note_on_c, 12, 57, 60
13, 704040, Note_off_c, 12, 57, 64
13, 704040, Note_off_c, 12, 53, 64
13, 704400, Note_on_c, 12, 48, 60
13, 704400, Note_on_c, 12, 53, 60
13, 704520, Note_off_c, 12, 53, 64
13, 704520, Note_off_c, 12, 48, 64
13, 704880, Note_on_c, 12, 48, 60
13, 704880, Note_on_c, 12, 53, 60
13, 705000, Note_off_c, 12, 53, 64
13, 705000, Note_off_c, 12, 48, 64
13, 705360, Note_on_c, 12, 53, 60
13, 705360, Note_on_c, 12, 57, 60
13, 705480, Note_off_c, 12, 57, 64
13, 705480, Note_off_c, 12, 53, 64
13, 705840, Note_on_c, 12, 48, 60
13, 705840, Note_on_c, 12, 53, 60
13, 705960, Note_off_c, 12, 53, 64
13, 705960, Note_off_c, 12, 48, 64
13, 706320, Note_on_c, 12, 48, 60
13, 706320, Note_on_c, 12, 53, 60
13, 706440, Note_off_c, 12, 53, 64
13, 706440, Note_off_c, 12, 48, 64
13, 706800, Note_on_c, 12, 52, 60
13, 706800, Note_on_c, 12, 55, 60
13, 706920, Note_off_c, 12, 55, 64
13, 706920, Note_off_c, 12, 52, 64
13, 707280, Note_on_c, 12, 48, 60
13, 707280, Note_on_c, 12, 52, 60
13, 707400, Note_off_c, 12, 52, 64
13, 707400, Note_off_c, 12, 48, 64
13, 707760, Note_on_c, 12, 48, 60
13, 707760, Note_on_c, 12, 52, 60
13, 707880, Note_off_c, 12, 52, 64
13, 707880, Note_off_c, 12, 48, 64
13, 708240, Note_on_c, 12, 52, 60
13, 708240, Note_on_c, 12, 55, 60
13, 708360, Note_off_c, 12, 55, 64
13, 708360, Note_off_c, 12, 52, 64
13, 708720, Note_on_c, 12, 48, 61
13, 708720, Note_on_c, 12, 52, 61
13, 708840, Note_off_c, 12, 52, 64
13, 708840, Note_off_c, 12, 48, 64
13, 709200, Note_on_c, 12, 48, 62
13, 709200, Note_on_c, 12, 52, 62
13, 709320, Note_off_c, 12, 52, 64
13, 709320, Note_off_c, 12, 48, 64
13, 709680, Note_on_c, 12, 53, 63
13, 709680, Note_on_c, 12, 57, 63
13, 709800, Note_off_c, 12, 57, 64
13, 709800, Note_off_c, 12, 53, 64
13, 710160, Note_on_c, 12, 48, 64
13, 710160, Note_on_c, 12, 53, 64
13, 710280, Note_off_c, 12, 53, 64
13, 710280, Note_off_c, 12, 48, 64
13, 710640, Note_on_c, 12, 48, 65
13, 710640, Note_on_c, 12, 53, 65
13, 710760, Note_off_c, 12, 53, 64
13, 710760, Note_off_c, 12, 48, 64
13, 711120, Note_on_c, 12, 53, 66
13, 711120, Note_on_c, 12, 57, 66
13, 711240, Note_off_c, 12, 57, 64
13, 711240, Note_off_c, 12, 53, 64
13, 711600, Note_on_c, 12, 48, 67
13, 711600, Note_on_c, 12, 53, 67
13, 711720, Note_off_c, 12, 53, 64
13, 711720, Note_off_c, 12, 48, 64
13, 712080, Note_on_c, 12, 48, 68
13, 712080, Note_on_c, 12, 53, 68
13, 712200, Note_off_c, 12, 53, 64
13, 712200, Note_off_c, 12, 48, 64
13, 712560, Note_on_c, 12, 52, 69
13, 712560, Note_on_c, 12, 55, 69
13, 712680, Note_off_c, 12, 55, 64
13, 712680, Note_off_c, 12, 52, 64
13, 713040, Note_on_c, 12, 48, 70
13, 713040, Note_on_c, 12, 52, 70
13, 713160, Note_off_c, 12, 52, 64
13, 713160, Note_off_c, 12, 48, 64
13, 713520, Note_on_c, 12, 48, 71
13, 713520, Note_on_c, 12, 52, 71
13, 713640, Note_off_c, 12, 52, 64
13, 713640, Note_off_c, 12, 48, 64
13, 714000, Note_on_c, 12, 52, 72
13, 714000, Note_on_c, 12, 55, 72
13, 714120, Note_off_c, 12, 55, 64
13, 714120, Note_off_c, 12, 52, 64
13, 714480, Note_on_c, 12, 48, 73
13, 714480, Note_on_c, 12, 52, 73
13, 714600, Note_off_c, 12, 52, 64
13, 714600, Note_off_c, 12, 48, 64
13, 714960, Note_on_c, 12, 48, 74
13, 714960, Note_on_c, 12, 52, 74
13, 715080, Note_off_c, 12, 52, 64
13, 715080, Note_off_c, 12, 48, 64
13, 715440, Note_on_c, 12, 65, 75
13, 716400, Note_off_c, 12, 65, 64
13, 716400, Note_on_c, 12, 70, 75
13, 716880, Note_off_c, 12, 70, 64
13, 716880, Note_on_c, 12, 72, 75
13, 717360, Note_off_c, 12, 72, 64
13, 717360, Note_on_c, 12, 69, 75
13, 717840, Note_off_c, 12, 69, 64
13, 717840, Note_on_c, 12, 70, 75
13, 718240, Note_off_c, 12, 70, 64
13, 718320, Note_on_c, 12, 67, 75
13, 719280, Note_off_c, 12, 67, 64
13, 719280, Note_on_c, 12, 69, 75
13, 719760, Note_off_c, 12, 69, 64
13, 719760, Note_on_c, 12, 70, 75
13, 720240, Note_off_c, 12, 70, 64
13, 720240, Note_on_c, 12, 67, 75
13, 720720, Note_off_c, 12, 67, 64
13, 720720, Note_on_c, 12, 69, 75
13, 721120, Note_off_c, 12, 69, 64
13, 721200, Note_on_c, 12, 65, 75
13, 722160, Note_off_c, 12, 65, 64
13, 722160, Note_on_c, 12, 58, 77
13, 722640, Note_off_c, 12, 58, 64
13, 722640, Note_on_c, 12, 60, 78
13, 723120, Note_off_c, 12, 60, 64
13, 723120, Note_on_c, 12, 57, 79
13, 723600, Note_off_c, 12, 57, 64
13, 723600, Note_on_c, 12, 58, 80
13, 724000, Note_off_c, 12, 58, 64
13, 724080, Note_on_c, 12, 55, 81
13, 725040, Note_off_c, 12, 55, 64
13, 725040, Note_on_c, 12, 57, 84
13, 725520, Note_off_c, 12, 57, 64
13, 725520, Note_on_c, 12, 58, 86
13, 726000, Note_off_c, 12, 58, 64
13, 726000, Note_on_c, 12, 55, 88
13, 726480, Note_off_c, 12, 55, 64
13, 726480, Note_on_c, 12, 57, 90
13, 726880, Note_off_c, 12, 57, 64
13, 726960, Note_on_c, 12, 53, 92
13, 727360, Note_off_c, 12, 53, 64
13, 732720, Note_on_c, 12, 53, 108
13, 733560, Note_off_c, 12, 53, 64
13, 733680, Note_on_c, 12, 53, 108
13, 734520, Note_off_c, 12, 53, 64
13, 734640, Note_on_c, 12, 58, 108
13, 735480, Note_off_c, 12, 58, 64
13, 735600, Note_on_c, 12, 53, 108
13, 736080, Note_off_c, 12, 53, 64
13, 736080, Note_on_c, 12, 58, 108
13, 736480, Note_off_c, 12, 58, 64
13, 736560, Note_on_c, 12, 53, 108
13, 737400, Note_off_c, 12, 53, 64
13, 737520, Note_on_c, 12, 53, 108
13, 738360, Note_off_c, 12, 53, 64
13, 738480, Note_on_c, 12, 58, 108
13, 739320, Note_off_c, 12, 58, 64
13, 739440, Note_on_c, 12, 53, 108
13, 739920, Note_off_c, 12, 53, 64
13, 739920, Note_on_c, 12, 58, 108
13, 740320, Note_off_c, 12, 58, 64
13, 740400, Note_on_c, 12, 53, 108
13, 741240, Note_off_c, 12, 53, 64
13, 741360, Note_on_c, 12, 53, 108
13, 742200, Note_off_c, 12, 53, 64
13, 742320, Note_on_c, 12, 58, 108
13, 743160, Note_off_c, 12, 58, 64
13, 743280, Note_on_c, 12, 53, 108
13, 743760, Note_off_c, 12, 53, 64
13, 743760, Note_on_c, 12, 58, 108
13, 744160, Note_off_c, 12, 58, 64
13, 744240, Note_on_c, 12, 53, 108
13, 745080, Note_off_c, 12, 53, 64
13, 745200, Note_on_c, 12, 53, 108
13, 746040, Note_off_c, 12, 53, 64
13, 746160, Note_on_c, 12, 58, 108
13, 747000, Note_off_c, 12, 58, 64
13, 747120, Note_on_c, 12, 53, 108
13, 747600, Note_off_c, 12, 53, 64
13, 747600, Note_on_c, 12, 58, 108
13, 748000, Note_off_c, 12, 58, 64
13, 748080, Note_on_c, 12, 60, 108
13, 748320, Note_off_c, 12, 60, 64
13, 748320, Note_on_c, 12, 62, 108
13, 748440, Note_off_c, 12, 62, 64
13, 748440, Note_on_c, 12, 60, 108
13, 748560, Note_off_c, 12, 60, 64
13, 748560, Note_on_c, 12, 55, 108
13, 748800, Note_off_c, 12, 55, 64
13, 748800, Note_on_c, 12, 57, 108
13, 748920, Note_off_c, 12, 57, 64
13, 748920, Note_on_c, 12, 59, 108
13, 749035, Note_off_c, 12, 59, 64
13, 749040, Note_on_c, 12, 60, 108
13, 749280, Note_off_c, 12, 60, 64
13, 749280, Note_on_c, 12, 62, 108
13, 749400, Note_off_c, 12, 62, 64
13, 749400, Note_on_c, 12, 60, 108
13, 749515, Note_off_c, 12, 60, 64
13, 749520, Note_on_c, 12, 55, 108
13, 749920, Note_off_c, 12, 55, 64
13, 750000, Note_on_c, 12, 53, 108
13, 750120, Note_off_c, 12, 53, 64
13, 750120, Note_on_c, 12, 55, 108
13, 750240, Note_off_c, 12, 55, 64
13, 750240, Note_on_c, 12, 57, 108
13, 750360, Note_off_c, 12, 57, 64
13, 750360, Note_on_c, 12, 58, 108
13, 750475, Note_off_c, 12, 58, 64
13, 750480, Note_on_c, 12, 60, 108
13, 750560, Note_off_c, 12, 60, 64
13, 750720, Note_on_c, 12, 60, 108
13, 750780, Note_off_c, 12, 60, 64
13, 750780, Note_on_c, 12, 62, 108
13, 750955, Note_off_c, 12, 62, 64
13, 750960, Note_on_c, 12, 55, 108
13, 751040, Note_off_c, 12, 55, 64
13, 751200, Note_on_c, 12, 55, 108
13, 751260, Note_off_c, 12, 55, 64
13, 751260, Note_on_c, 12, 60, 108
13, 751435, Note_off_c, 12, 60, 64
13, 751440, Note_on_c, 12, 53, 108
13, 751840, Note_off_c, 12, 53, 64
13, 751920, Note_on_c, 12, 60, 108
13, 752160, Note_off_c, 12, 60, 64
13, 752160, Note_on_c, 12, 62, 108
13, 752280, Note_off_c, 12, 62, 64
13, 752280, Note_on_c, 12, 60, 108
13, 752400, Note_off_c, 12, 60, 64
13, 752400, Note_on_c, 12, 55, 108
13, 752640, Note_off_c, 12, 55, 64
13, 752640, Note_on_c, 12, 57, 108
13, 752760, Note_off_c, 12, 57, 64
13, 752760, Note_on_c, 12, 59, 108
13, 752875, Note_off_c, 12, 59, 64
13, 752880, Note_on_c, 12, 60, 108
13, 753120, Note_off_c, 12, 60, 64
13, 753120, Note_on_c, 12, 62, 108
13, 753240, Note_off_c, 12, 62, 64
13, 753240, Note_on_c, 12, 60, 108
13, 753355, Note_off_c, 12, 60, 64
13, 753360, Note_on_c, 12, 55, 108
13, 753760, Note_off_c, 12, 55, 64
13, 753840, Note_on_c, 12, 53, 108
13, 753960, Note_off_c, 12, 53, 64
13, 753960, Note_on_c, 12, 55, 108
13, 754080, Note_off_c, 12, 55, 64
13, 754080, Note_on_c, 12, 57, 108
13, 754200, Note_off_c, 12, 57, 64
13, 754200, Note_on_c, 12, 58, 108
13, 754315, Note_off_c, 12, 58, 64
13, 754320, Note_on_c, 12, 60, 108
13, 754400, Note_off_c, 12, 60, 64
13, 754560, Note_on_c, 12, 60, 108
13, 754620, Note_off_c, 12, 60, 64
13, 754620, Note_on_c, 12, 62, 108
13, 754795, Note_off_c, 12, 62, 64
13, 754800, Note_on_c, 12, 55, 108
13, 754880, Note_off_c, 12, 55, 64
13, 755040, Note_on_c, 12, 55, 108
13, 755100, Note_off_c, 12, 55, 64
13, 755100, Note_on_c, 12, 60, 108
13, 755275, Note_off_c, 12, 60, 64
13, 755280, Note_on_c, 12, 53, 108
13, 755680, Note_off_c, 12, 53, 64
13, 755760, Program_c, 12, 50
13, 755760, Note_on_c, 12, 60, 108
13, 756000, Note_off_c, 12, 60, 64
13, 756000, Note_on_c, 12, 62, 108
13, 756120, Note_off_c, 12, 62, 64
13, 756120, Note_on_c, 12, 60, 108
13, 756240, Note_off_c, 12, 60, 64
13, 756240, Note_on_c, 12, 55, 108
13, 756480, Note_off_c, 12, 55, 64
13, 756480, Note_on_c, 12, 57, 108
13, 756600, Note_off_c, 12, 57, 64
13, 756600, Note_on_c, 12, 59, 108
13, 756715, Note_off_c, 12, 59, 64
13, 756720, Note_on_c, 12, 60, 108
13, 756960, Note_off_c, 12, 60, 64
13, 756960, Note_on_c, 12, 62, 108
13, 757080, Note_off_c, 12, 62, 64
13, 757080, Note_on_c, 12, 60, 108
13, 757200, Note_off_c, 12, 60, 64
13, 757200, Note_on_c, 12, 59, 108
13, 757440, Note_off_c, 12, 59, 64
13, 757440, Note_on_c, 12, 60, 108
13, 757560, Note_off_c, 12, 60, 64
13, 757560, Note_on_c, 12, 62, 108
13, 757675, Note_off_c, 12, 62, 64
13, 757680, Note_on_c, 12, 64, 108
13, 757920, Note_off_c, 12, 64, 64
13, 757920, Note_on_c, 12, 62, 108
13, 758040, Note_off_c, 12, 62, 64
13, 758040, Note_on_c, 12, 64, 108
13, 758155, Note_off_c, 12, 64, 64
13, 758160, Note_on_c, 12, 65, 108
13, 758400, Note_off_c, 12, 65, 64
13, 758400, Note_on_c, 12, 67, 108
13, 758520, Note_off_c, 12, 67, 64
13, 758520, Note_on_c, 12, 69, 108
13, 758635, Note_off_c, 12, 69, 64
13, 758640, Note_on_c, 12, 67, 108
13, 758880, Note_off_c, 12, 67, 64
13, 758880, Note_on_c, 12, 69, 108
13, 759000, Note_off_c, 12, 69, 64
13, 759000, Note_on_c, 12, 66, 108
13, 759115, Note_off_c, 12, 66, 64
13, 759120, Note_on_c, 12, 67, 108
13, 759355, Note_off_c, 12, 67, 64
13, 759360, Note_on_c, 12, 55, 108
13, 759595, Note_off_c, 12, 55, 64
13, 759600, Note_on_c, 12, 60, 108
13, 759840, Note_off_c, 12, 60, 64
13, 759840, Note_on_c, 12, 62, 108
13, 759960, Note_off_c, 12, 62, 64
13, 759960, Note_on_c, 12, 60, 108
13, 760075, Note_off_c, 12, 60, 64
13, 760080, Note_on_c, 12, 55, 108
13, 760320, Note_off_c, 12, 55, 64
13, 760320, Note_on_c, 12, 57, 108
13, 760440, Note_off_c, 12, 57, 64
13, 760440, Note_on_c, 12, 58, 108
13, 760555, Note_off_c, 12, 58, 64
13, 760560, Note_on_c, 12, 60, 108
13, 760800, Note_off_c, 12, 60, 64
13, 760800, Note_on_c, 12, 62, 108
13, 760920, Note_off_c, 12, 62, 64
13, 760920, Note_on_c, 12, 60, 108
13, 761035, Note_off_c, 12, 60, 64
13, 761040, Note_on_c, 12, 59, 108
13, 761280, Note_off_c, 12, 59, 64
13, 761280, Note_on_c, 12, 60, 108
13, 761400, Note_off_c, 12, 60, 64
13, 761400, Note_on_c, 12, 62, 108
13, 761515, Note_off_c, 12, 62, 64
13, 761520, Note_on_c, 12, 64, 108
13, 761760, Note_off_c, 12, 64, 64
13, 761760, Note_on_c, 12, 62, 108
13, 761880, Note_off_c, 12, 62, 64
13, 761880, Note_on_c, 12, 64, 108
13, 761995, Note_off_c, 12, 64, 64
13, 762000, Note_on_c, 12, 65, 108
13, 762240, Note_off_c, 12, 65, 64
13, 762240, Note_on_c, 12, 67, 108
13, 762360, Note_off_c, 12, 67, 64
13, 762360, Note_on_c, 12, 69, 108
13, 762475, Note_off_c, 12, 69, 64
13, 762480, Note_on_c, 12, 67, 108
13, 762720, Note_off_c, 12, 67, 64
13, 762720, Note_on_c, 12, 69, 108
13, 762840, Note_off_c, 12, 69, 64
13, 762840, Note_on_c, 12, 66, 108
13, 762955, Note_off_c, 12, 66, 64
13, 762960, Note_on_c, 12, 67, 108
13, 763195, Note_off_c, 12, 67, 64
13, 763200, Note_on_c, 12, 55, 108
13, 763435, Note_off_c, 12, 55, 64
13, 763440, Note_on_c, 12, 60, 108
13, 763520, Note_off_c, 12, 60, 64
13, 763680, Note_on_c, 12, 62, 108
13, 763795, Note_off_c, 12, 62, 64
13, 763800, Note_on_c, 12, 60, 108
13, 763915, Note_off_c, 12, 60, 64
13, 763920, Note_on_c, 12, 55, 108
13, 764155, Note_off_c, 12, 55, 64
13, 764160, Note_on_c, 12, 57, 108
13, 764275, Note_off_c, 12, 57, 64
13, 764280, Note_on_c, 12, 59, 108
13, 764395, Note_off_c, 12, 59, 64
13, 764400, Note_on_c, 12, 60, 108
13, 764480, Note_off_c, 12, 60, 64
13, 764640, Note_on_c, 12, 62, 108
13, 764755, Note_off_c, 12, 62, 64
13, 764760, Note_on_c, 12, 60, 108
13, 764875, Note_off_c, 12, 60, 64
13, 764880, Note_on_c, 12, 59, 108
13, 765115, Note_off_c, 12, 59, 64
13, 765120, Note_on_c, 12, 60, 108
13, 765235, Note_off_c, 12, 60, 64
13, 765240, Note_on_c, 12, 62, 108
13, 765355, Note_off_c, 12, 62, 64
13, 765360, Note_on_c, 12, 64, 108
13, 765440, Note_off_c, 12, 64, 64
13, 765600, Note_on_c, 12, 65, 108
13, 765715, Note_off_c, 12, 65, 64
13, 765720, Note_on_c, 12, 64, 108
13, 765835, Note_off_c, 12, 64, 64
13, 765840, Note_on_c, 12, 62, 108
13, 766075, Note_off_c, 12, 62, 64
13, 766080, Note_on_c, 12, 64, 108
13, 766195, Note_off_c, 12, 64, 64
13, 766200, Note_on_c, 12, 65, 108
13, 766315, Note_off_c, 12, 65, 64
13, 766320, Note_on_c, 12, 67, 108
13, 766400, Note_off_c, 12, 67, 64
13, 766560, Note_on_c, 12, 69, 108
13, 766675, Note_off_c, 12, 69, 64
13, 766680, Note_on_c, 12, 65, 108
13, 766795, Note_off_c, 12, 65, 64
13, 766800, Note_on_c, 12, 67, 108
13, 767035, Note_off_c, 12, 67, 64
13, 767040, Note_on_c, 12, 69, 108
13, 767155, Note_off_c, 12, 69, 64
13, 767160, Note_on_c, 12, 71, 108
13, 767275, Note_off_c, 12, 71, 64
13, 767280, Note_on_c, 12, 72, 108
13, 767360, Note_off_c, 12, 72, 64
13, 767520, Note_on_c, 12, 74, 108
13, 767635, Note_off_c, 12, 74, 64
13, 767640, Note_on_c, 12, 71, 108
13, 767755, Note_off_c, 12, 71, 64
13, 767760, Note_on_c, 12, 72, 108
13, 767995, Note_off_c, 12, 72, 64
13, 768000, Note_on_c, 12, 74, 108
13, 768115, Note_off_c, 12, 74, 64
13, 768120, Note_on_c, 12, 71, 108
13, 768235, Note_off_c, 12, 71, 64
13, 768240, Note_on_c, 12, 72, 108
13, 768320, Note_off_c, 12, 72, 64
13, 768480, Note_on_c, 12, 74, 108
13, 768595, Note_off_c, 12, 74, 64
13, 768600, Note_on_c, 12, 71, 108
13, 768715, Note_off_c, 12, 71, 64
13, 768720, Note_on_c, 12, 72, 108
13, 768955, Note_off_c, 12, 72, 64
13, 768960, Note_on_c, 12, 74, 108
13, 769075, Note_off_c, 12, 74, 64
13, 769080, Note_on_c, 12, 71, 108
13, 769195, Note_off_c, 12, 71, 64
13, 769200, Note_on_c, 12, 64, 108
13, 769435, Note_off_c, 12, 64, 64
13, 770160, Note_on_c, 12, 55, 108
13, 770395, Note_off_c, 12, 55, 64
13, 772560, Note_on_c, 12, 60, 60
13, 772680, Note_off_c, 12, 60, 64
13, 773040, Note_on_c, 12, 65, 60
13, 773160, Note_off_c, 12, 65, 64
13, 773520, Note_on_c, 12, 60, 60
13, 773640, Note_off_c, 12, 60, 64
13, 774000, Note_on_c, 12, 62, 60
13, 774120, Note_off_c, 12, 62, 64
13, 774480, Note_on_c, 12, 60, 60
13, 774600, Note_off_c, 12, 60, 64
13, 774960, Note_on_c, 12, 57, 60
13, 775080, Note_off_c, 12, 57, 64
13, 775440, Note_on_c, 12, 58, 60
13, 775560, Note_off_c, 12, 58, 64
13, 775920, Note_on_c, 12, 57, 60
13, 776040, Note_off_c, 12, 57, 64
13, 776400, Note_on_c, 12, 53, 60
13, 776520, Note_off_c, 12, 53, 64
13, 776880, Note_on_c, 12, 55, 60
13, 777000, Note_off_c, 12, 55, 64
13, 777360, Note_on_c, 12, 57, 60
13, 777480, Note_off_c, 12, 57, 64
13, 777840, Note_on_c, 12, 53, 60
13, 777960, Note_off_c, 12, 53, 64
13, 778320, Note_on_c, 12, 55, 60
13, 778440, Note_off_c, 12, 55, 64
13, 778800, Note_on_c, 12, 57, 60
13, 778920, Note_off_c, 12, 57, 64
13, 779280, Note_on_c, 12, 53, 60
13, 779400, Note_off_c, 12, 53, 64
13, 779760, Note_on_c, 12, 55, 60
13, 779880, Note_off_c, 12, 55, 64
13, 780240, Note_on_c, 12, 53, 60
13, 780360, Note_off_c, 12, 53, 64
13, 780720, Note_on_c, 12, 50, 60
13, 780840, Note_off_c, 12, 50, 64
13, 781200, Note_on_c, 12, 52, 60
13, 781320, Note_off_c, 12, 52, 64
13, 781680, Note_on_c, 12, 50, 60
13, 781800, Note_off_c, 12, 50, 64
13, 782160, Note_on_c, 12, 45, 60
13, 782280, Note_off_c, 12, 45, 64
13, 782640, Note_on_c, 12, 45, 60
13, 782760, Note_off_c, 12, 45, 64
13, 783120, Note_on_c, 12, 45, 60
13, 783240, Note_off_c, 12, 45, 64
13, 784080, Note_on_c, 12, 45, 60
13, 784560, Note_off_c, 12, 45, 64
13, 784560, Note_on_c, 12, 50, 60
13, 785520, Note_off_c, 12, 50, 64
13, 785520, Note_on_c, 12, 54, 60
13, 786000, Note_off_c, 12, 54, 64
13, 786000, Note_on_c, 12, 57, 60
13, 786480, Note_off_c, 12, 57, 64
13, 786480, Note_on_c, 12, 54, 60
13, 786880, Note_off_c, 12, 54, 64
13, 786960, Note_on_c, 12, 54, 60
13, 787440, Note_off_c, 12, 54, 64
13, 787440, Note_on_c, 12, 57, 60
13, 787920, Note_off_c, 12, 57, 64
13, 787920, Note_on_c, 12, 61, 60
13, 788400, Note_off_c, 12, 61, 64
13, 788400, Note_on_c, 12, 62, 60
13, 788640, Note_off_c, 12, 62, 64
13, 788640, Note_on_c, 12, 59, 60
13, 788880, Note_off_c, 12, 59, 64
13, 788880, Note_on_c, 12, 57, 60
13, 789720, Note_off_c, 12, 57, 64
13, 789840, Note_on_c, 12, 52, 60
13, 789840, Note_on_c, 12, 61, 60
13, 790320, Note_off_c, 12, 61, 64
13, 790320, Note_off_c, 12, 52, 64
13, 790320, Note_on_c, 12, 54, 60
13, 790320, Note_on_c, 12, 62, 60
13, 790800, Note_off_c, 12, 62, 64
13, 790800, Note_on_c, 12, 57, 60
13, 791160, Note_off_c, 12, 54, 64
13, 791280, Note_off_c, 12, 57, 64
13, 791280, Note_on_c, 12, 55, 60
13, 791280, Note_on_c, 12, 59, 60
13, 791680, Note_off_c, 12, 59, 64
13, 791680, Note_off_c, 12, 55, 64
13, 791760, Note_on_c, 12, 54, 60
13, 791760, Note_on_c, 12, 57, 60
13, 792240, Note_off_c, 12, 57, 64
13, 792240, Note_off_c, 12, 54, 64
13, 792240, Note_on_c, 12, 57, 60
13, 792720, Note_off_c, 12, 57, 64
13, 792720, Note_on_c, 12, 59, 60
13, 793200, Note_off_c, 12, 59, 64
13, 793200, Note_on_c, 12, 57, 60
13, 793680, Note_off_c, 12, 57, 64
13, 793680, Note_on_c, 12, 54, 60
13, 794160, Note_off_c, 12, 54, 64
13, 794160, Note_on_c, 12, 57, 60
13, 794640, Note_off_c, 12, 57, 64
13, 794640, Note_on_c, 12, 50, 60
13, 795040, Note_off_c, 12, 50, 64
13, 795600, Note_on_c, 12, 60, 60
13, 795720, Note_off_c, 12, 60, 64
13, 796080, Note_on_c, 12, 65, 60
13, 796200, Note_off_c, 12, 65, 64
13, 796560, Note_on_c, 12, 60, 60
13, 796680, Note_off_c, 12, 60, 64
13, 797040, Note_on_c, 12, 62, 60
13, 797160, Note_off_c, 12, 62, 64
13, 797520, Note_on_c, 12, 60, 60
13, 797640, Note_off_c, 12, 60, 64
13, 798000, Note_on_c, 12, 57, 60
13, 798120, Note_off_c, 12, 57, 64
13, 798480, Note_on_c, 12, 58, 60
13, 798600, Note_off_c, 12, 58, 64
13, 798960, Note_on_c, 12, 57, 60
13, 799080, Note_off_c, 12, 57, 64
13, 799440, Note_on_c, 12, 53, 60
13, 799560, Note_off_c, 12, 53, 64
13, 799920, Note_on_c, 12, 55, 60
13, 800040, Note_off_c, 12, 55, 64
13, 800400, Note_on_c, 12, 57, 60
13, 800520, Note_off_c, 12, 57, 64
13, 800880, Note_on_c, 12, 53, 60
13, 801000, Note_off_c, 12, 53, 64
13, 801360, Note_on_c, 12, 55, 60
13, 801480, Note_off_c, 12, 55, 64
13, 801840, Note_on_c, 12, 57, 60
13, 801960, Note_off_c, 12, 57, 64
13, 802320, Note_on_c, 12, 53, 60
13, 802440, Note_off_c, 12, 53, 64
13, 802800, Note_on_c, 12, 55, 60
13, 802920, Note_off_c, 12, 55, 64
13, 803280, Note_on_c, 12, 53, 60
13, 803400, Note_off_c, 12, 53, 64
13, 803760, Note_on_c, 12, 50, 60
13, 803880, Note_off_c, 12, 50, 64
13, 804240, Note_on_c, 12, 52, 60
13, 804360, Note_off_c, 12, 52, 64
13, 804720, Note_on_c, 12, 50, 60
13, 804840, Note_off_c, 12, 50, 64
13, 805200, Note_on_c, 12, 45, 60
13, 805320, Note_off_c, 12, 45, 64
13, 805680, Note_on_c, 12, 45, 60
13, 805800, Note_off_c, 12, 45, 64
13, 806160, Note_on_c, 12, 45, 60
13, 806280, Note_off_c, 12, 45, 64
13, 807120, Note_on_c, 12, 45, 60
13, 807600, Note_off_c, 12, 45, 64
13, 807600, Note_on_c, 12, 50, 60
13, 808560, Note_off_c, 12, 50, 64
13, 808560, Note_on_c, 12, 54, 60
13, 809040, Note_off_c, 12, 54, 64
13, 809040, Note_on_c, 12, 57, 60
13, 809520, Note_off_c, 12, 57, 64
13, 809520, Note_on_c, 12, 54, 60
13, 809920, Note_off_c, 12, 54, 64
13, 810000, Note_on_c, 12, 54, 60
13, 810480, Note_off_c, 12, 54, 64
13, 810480, Note_on_c, 12, 57, 60
13, 810960, Note_off_c, 12, 57, 64
13, 810960, Note_on_c, 12, 61, 60
13, 811440, Note_off_c, 12, 61, 64
13, 811440, Note_on_c, 12, 62, 60
13, 811680, Note_off_c, 12, 62, 64
13, 811680, Note_on_c, 12, 59, 60
13, 811920, Note_off_c, 12, 59, 64
13, 811920, Note_on_c, 12, 57, 60
13, 812760, Note_off_c, 12, 57, 64
13, 812880, Note_on_c, 12, 52, 60
13, 812880, Note_on_c, 12, 61, 60
13, 813360, Note_off_c, 12, 61, 64
13, 813360, Note_off_c, 12, 52, 64
13, 813360, Note_on_c, 12, 54, 60
13, 813360, Note_on_c, 12, 62, 60
13, 813840, Note_off_c, 12, 62, 64
13, 813840, Note_on_c, 12, 57, 60
13, 814200, Note_off_c, 12, 54, 64
13, 814320, Note_off_c, 12, 57, 64
13, 814320, Note_on_c, 12, 55, 60
13, 814320, Note_on_c, 12, 59, 60
13, 814720, Note_off_c, 12, 59, 64
13, 814720, Note_off_c, 12, 55, 64
13, 814800, Note_on_c, 12, 54, 60
13, 814800, Note_on_c, 12, 57, 60
13, 815280, Note_off_c, 12, 57, 64
13, 815280, Note_off_c, 12, 54, 64
13, 815280, Note_on_c, 12, 57, 60
13, 815280, Note_on_c, 12, 69, 60
13, 815760, Note_off_c, 12, 69, 64
13, 815760, Note_off_c, 12, 57, 64
13, 815760, Note_on_c, 12, 59, 60
13, 815760, Note_on_c, 12, 71, 60
13, 816240, Note_off_c, 12, 71, 64
13, 816240, Note_off_c, 12, 59, 64
13, 816240, Note_on_c, 12, 57, 60
13, 816240, Note_on_c, 12, 69, 60
13, 816720, Note_off_c, 12, 69, 64
13, 816720, Note_off_c, 12, 57, 64
13, 816720, Note_on_c, 12, 54, 60
13, 816720, Note_on_c, 12, 66, 60
13, 817200, Note_off_c, 12, 66, 64
13, 817200, Note_off_c, 12, 54, 64
13, 817200, Note_on_c, 12, 57, 60
13, 817200, Note_on_c, 12, 69, 60
13, 817680, Note_off_c, 12, 69, 64
13, 817680, Note_off_c, 12, 57, 64
13, 817680, Note_on_c, 12, 50, 60
13, 818080, Note_off_c, 12, 50, 64
13, 824400, Program_c, 12, 50
13, 824400, Note_on_c, 12, 62, 60
13, 824520, Note_off_c, 12, 62, 64
13, 824880, Note_on_c, 12, 67, 60
13, 825000, Note_off_c, 12, 67, 64
13, 825360, Note_on_c, 12, 62, 60
13, 825480, Note_off_c, 12, 62, 64
13, 825840, Note_on_c, 12, 64, 60
13, 825960, Note_off_c, 12, 64, 64
13, 826320, Note_on_c, 12, 62, 60
13, 826440, Note_off_c, 12, 62, 64
13, 826800, Note_on_c, 12, 59, 60
13, 826920, Note_off_c, 12, 59, 64
13, 827280, Note_on_c, 12, 60, 60
13, 827400, Note_off_c, 12, 60, 64
13, 827760, Note_on_c, 12, 59, 60
13, 827880, Note_off_c, 12, 59, 64
13, 828240, Note_on_c, 12, 55, 60
13, 828360, Note_off_c, 12, 55, 64
13, 828720, Note_on_c, 12, 57, 60
13, 828840, Note_off_c, 12, 57, 64
13, 829200, Note_on_c, 12, 59, 60
13, 829320, Note_off_c, 12, 59, 64
13, 829680, Note_on_c, 12, 55, 60
13, 829800, Note_off_c, 12, 55, 64
13, 830160, Note_on_c, 12, 55, 60
13, 830640, Note_off_c, 12, 55, 64
13, 830640, Program_c, 12, 48
13, 830640, Note_on_c, 12, 48, 60
13, 831600, Note_off_c, 12, 48, 64
13, 831600, Note_on_c, 12, 52, 60
13, 832080, Note_off_c, 12, 52, 64
13, 832080, Note_on_c, 12, 55, 60
13, 832560, Note_off_c, 12, 55, 64
13, 832560, Note_on_c, 12, 52, 60
13, 832960, Note_off_c, 12, 52, 64
13, 833040, Note_on_c, 12, 52, 60
13, 833520, Note_off_c, 12, 52, 64
13, 833520, Note_on_c, 12, 55, 60
13, 834000, Note_off_c, 12, 55, 64
13, 834000, Note_on_c, 12, 59, 60
13, 834480, Note_off_c, 12, 59, 64
13, 834480, Note_on_c, 12, 60, 60
13, 834720, Note_off_c, 12, 60, 64
13, 834720, Note_on_c, 12, 57, 60
13, 834960, Note_off_c, 12, 57, 64
13, 834960, Note_on_c, 12, 55, 60
13, 835800, Note_off_c, 12, 55, 64
13, 835920, Note_on_c, 12, 59, 60
13, 836400, Note_off_c, 12, 59, 64
13, 836400, Note_on_c, 12, 64, 60
13, 837360, Note_off_c, 12, 64, 64
13, 837360, Note_on_c, 12, 65, 60
13, 837840, Note_off_c, 12, 65, 64
13, 837840, Note_on_c, 12, 64, 60
13, 838320, Note_off_c, 12, 64, 64
13, 838320, Note_on_c, 12, 60, 60
13, 838800, Note_off_c, 12, 60, 64
13, 838800, Note_on_c, 12, 60, 60
13, 839280, Note_off_c, 12, 60, 64
13, 839280, Note_on_c, 12, 60, 60
13, 839760, Note_off_c, 12, 60, 64
13, 839760, Note_on_c, 12, 52, 60
13, 840240, Note_off_c, 12, 52, 64
13, 840240, Note_on_c, 12, 53, 60
13, 840720, Note_off_c, 12, 53, 64
13, 840720, Note_on_c, 12, 52, 60
13, 841120, Note_off_c, 12, 52, 64
13, 841680, Note_on_c, 12, 48, 66
13, 842160, Note_off_c, 12, 48, 64
13, 842160, Note_on_c, 12, 60, 69
13, 842640, Note_off_c, 12, 60, 64
13, 842640, Note_on_c, 12, 57, 72
13, 843120, Note_off_c, 12, 57, 64
13, 843120, Note_on_c, 12, 58, 75
13, 843600, Note_off_c, 12, 58, 64
13, 843600, Note_on_c, 12, 57, 78
13, 844080, Note_off_c, 12, 57, 64
13, 844080, Note_on_c, 12, 53, 81
13, 844560, Note_off_c, 12, 53, 64
13, 844560, Note_on_c, 12, 55, 84
13, 845040, Note_off_c, 12, 55, 64
13, 845040, Note_on_c, 12, 53, 88
13, 845520, Note_off_c, 12, 53, 64
13, 845520, Note_on_c, 12, 48, 92
13, 846000, Note_off_c, 12, 48, 64
13, 846000, Note_on_c, 12, 55, 96
13, 846480, Note_off_c, 12, 55, 64
13, 846480, Note_on_c, 12, 57, 100
13, 846960, Note_off_c, 12, 57, 64
13, 846960, Note_on_c, 12, 53, 104
13, 847360, Note_off_c, 12, 53, 64
13, 847440, Note_on_c, 12, 60, 108
13, 847560, Note_off_c, 12, 60, 64
13, 847920, Note_on_c, 12, 65, 108
13, 848040, Note_off_c, 12, 65, 64
13, 848400, Note_on_c, 12, 60, 108
13, 848520, Note_off_c, 12, 60, 64
13, 848880, Note_on_c, 12, 62, 108
13, 849000, Note_off_c, 12, 62, 64
13, 849360, Note_on_c, 12, 60, 108
13, 849480, Note_off_c, 12, 60, 64
13, 849840, Note_on_c, 12, 57, 108
13, 849960, Note_off_c, 12, 57, 64
13, 850320, Note_on_c, 12, 58, 108
13, 850440, Note_off_c, 12, 58, 64
13, 850800, Note_on_c, 12, 57, 108
13, 850920, Note_off_c, 12, 57, 64
13, 851280, Note_on_c, 12, 53, 108
13, 851400, Note_off_c, 12, 53, 64
13, 851760, Note_on_c, 12, 55, 108
13, 851880, Note_off_c, 12, 55, 64
13, 852240, Note_on_c, 12, 57, 108
13, 852360, Note_off_c, 12, 57, 64
13, 852720, Note_on_c, 12, 53, 108
13, 852840, Note_off_c, 12, 53, 64
13, 853200, Note_on_c, 12, 55, 108
13, 853320, Note_off_c, 12, 55, 64
13, 853680, Note_on_c, 12, 57, 108
13, 853800, Note_off_c, 12, 57, 64
13, 854160, Note_on_c, 12, 53, 108
13, 854280, Note_off_c, 12, 53, 64
13, 854640, Note_on_c, 12, 55, 108
13, 854760, Note_off_c, 12, 55, 64
13, 855120, Note_on_c, 12, 57, 108
13, 855240, Note_off_c, 12, 57, 64
13, 855600, Note_on_c, 12, 53, 108
13, 855720, Note_off_c, 12, 53, 64
13, 856080, Note_on_c, 12, 55, 108
13, 856200, Note_off_c, 12, 55, 64
13, 856560, Note_on_c, 12, 57, 108
13, 857880, Note_off_c, 12, 57, 64
13, 858000, Note_on_c, 12, 55, 108
13, 858840, Note_off_c, 12, 55, 64
13, 858960, Note_on_c, 12, 53, 108
13, 859360, Note_off_c, 12, 53, 64
13, 859440, Note_on_c, 12, 52, 108
13, 860280, Note_off_c, 12, 52, 64
13, 860400, Note_on_c, 12, 50, 108
13, 860800, Note_off_c, 12, 50, 64
13, 860880, Note_on_c, 12, 48, 108
13, 861720, Note_off_c, 12, 48, 64
13, 861840, Note_on_c, 12, 55, 108
13, 862240, Note_off_c, 12, 55, 64
13, 862320, Note_on_c, 12, 60, 108
13, 863640, Note_off_c, 12, 60, 64
13, 863760, Note_on_c, 12, 62, 108
13, 865080, Note_off_c, 12, 62, 64
13, 865200, Note_on_c, 12, 60, 108
13, 866520, Note_off_c, 12, 60, 64
13, 866640, Note_on_c, 12, 48, 108
13, 867960, Note_off_c, 12, 48, 64
13, 868080, Note_on_c, 12, 53, 108
13, 868480, Note_off_c, 12, 53, 64
13, 869040, Note_on_c, 12, 69, 108
13, 869440, Note_off_c, 12, 69, 64
13, 869520, Note_on_c, 12, 67, 108
13, 870360, Note_off_c, 12, 67, 64
13, 870480, Note_on_c, 12, 65, 108
13, 870880, Note_off_c, 12, 65, 64
13, 870960, Note_on_c, 12, 64, 108
13, 871800, Note_off_c, 12, 64, 64
13, 871920, Note_on_c, 12, 62, 108
13, 872320, Note_off_c, 12, 62, 64
13, 872400, Note_on_c, 12, 60, 108
13, 873240, Note_off_c, 12, 60, 64
13, 873360, Note_on_c, 12, 67, 108
13, 873760, Note_off_c, 12, 67, 64
13, 873840, Note_on_c, 12, 60, 108
13, 875160, Note_off_c, 12, 60, 64
13, 875280, Note_on_c, 12, 62, 108
13, 876600, Note_off_c, 12, 62, 64
13, 876720, Note_on_c, 12, 60, 108
13, 878040, Note_off_c, 12, 60, 64
13, 878160, Note_on_c, 12, 48, 108
13, 878160, Note_on_c, 12, 60, 108
13, 879480, Note_off_c, 12, 60, 64
13, 879480, Note_off_c, 12, 48, 64
13, 879600, Note_on_c, 12, 53, 108
13, 879680, Note_off_c, 12, 53, 64
13, 879840, Note_on_c, 12, 57, 108
13, 879920, Note_off_c, 12, 57, 64
13, 880080, Note_on_c, 12, 60, 108
13, 880160, Note_off_c, 12, 60, 64
13, 880320, Note_on_c, 12, 65, 108
13, 880400, Note_off_c, 12, 65, 64
13, 880560, Note_on_c, 12, 69, 108
13, 880960, Note_off_c, 12, 69, 64
13, 883920, Note_on_c, 12, 60, 92
13, 884320, Note_off_c, 12, 60, 64
13, 884400, Note_on_c, 12, 60, 92
13, 884800, Note_off_c, 12, 60, 64
13, 884880, Note_on_c, 12, 60, 92
13, 885280, Note_off_c, 12, 60, 64
13, 885360, Note_on_c, 12, 53, 108
13, 885440, Note_off_c, 12, 53, 64
13, 885600, Note_on_c, 12, 57, 108
13, 885680, Note_off_c, 12, 57, 64
13, 885840, Note_on_c, 12, 60, 108
13, 885920, Note_off_c, 12, 60, 64
13, 886080, Note_on_c, 12, 65, 108
13, 886160, Note_off_c, 12, 65, 64
13, 886320, Note_on_c, 12, 69, 108
13, 886720, Note_off_c, 12, 69, 64
13, 889680, Note_on_c, 12, 60, 92
13, 890080, Note_off_c, 12, 60, 64
13, 890160, Note_on_c, 12, 60, 92
13, 890560, Note_off_c, 12, 60, 64
13, 890640, Note_on_c, 12, 60, 92
13, 891040, Note_off_c, 12, 60, 64
13, 891120, Note_on_c, 12, 53, 92
13, 891520, Note_off_c, 12, 53, 64
13, 894000, Note_on_c, 12, 53, 92
13, 894400, Note_off_c, 12, 53, 64
13, 954480, Note_on_c, 12, 60, 45
13, 955800, Note_off_c, 12, 60, 64
13, 955920, Note_on_c, 12, 55, 51
13, 957240, Note_off_c, 12, 55, 64
13, 957360, Note_on_c, 12, 48, 57
13, 958680, Note_off_c, 12, 48, 64
13, 961680, Note_on_c, 12, 55, 75
13, 961680, Note_on_c, 12, 60, 75
13, 961800, Note_off_c, 12, 60, 64
13, 961800, Note_off_c, 12, 55, 64
13, 962160, Note_on_c, 12, 52, 75
13, 962160, Note_on_c, 12, 55, 75
13, 962280, Note_off_c, 12, 55, 64
13, 962280, Note_off_c, 12, 52, 64
13, 962640, Note_on_c, 12, 52, 75
13, 962640, Note_on_c, 12, 55, 75
13, 962760, Note_off_c, 12, 55, 64
13, 962760, Note_off_c, 12, 52, 64
13, 963120, Note_on_c, 12, 57, 75
13, 963120, Note_on_c, 12, 60, 75
13, 963240, Note_off_c, 12, 60, 64
13, 963240, Note_off_c, 12, 57, 64
13, 963600, Note_on_c, 12, 53, 70
13, 963600, Note_on_c, 12, 57, 70
13, 963720, Note_off_c, 12, 57, 64
13, 963720, Note_off_c, 12, 53, 64
13, 964080, Note_on_c, 12, 53, 65
13, 964080, Note_on_c, 12, 57, 65
13, 964200, Note_off_c, 12, 57, 64
13, 964200, Note_off_c, 12, 53, 64
13, 964560, Note_on_c, 12, 57, 60
13, 964560, Note_on_c, 12, 60, 60
13, 964680, Note_off_c, 12, 60, 64
13, 964680, Note_off_c, 12, 57, 64
13, 965040, Note_on_c, 12, 53, 60
13, 965040, Note_on_c, 12, 57, 60
13, 965160, Note_off_c, 12, 57, 64
13, 965160, Note_off_c, 12, 53, 64
13, 965520, Note_on_c, 12, 53, 60
13, 965520, Note_on_c, 12, 57, 60
13, 965640, Note_off_c, 12, 57, 64
13, 965640, Note_off_c, 12, 53, 64
13, 966000, Note_on_c, 12, 58, 60
13, 966000, Note_on_c, 12, 60, 60
13, 966120, Note_off_c, 12, 60, 64
13, 966120, Note_off_c, 12, 58, 64
13, 966480, Note_on_c, 12, 53, 60
13, 966480, Note_on_c, 12, 58, 60
13, 966600, Note_off_c, 12, 58, 64
13, 966600, Note_off_c, 12, 53, 64
13, 966960, Note_on_c, 12, 53, 60
13, 966960, Note_on_c, 12, 58, 60
13, 967080, Note_off_c, 12, 58, 64
13, 967080, Note_off_c, 12, 53, 64
13, 967440, Note_on_c, 12, 58, 60
13, 967440, Note_on_c, 12, 60, 60
13, 967560, Note_off_c, 12, 60, 64
13, 967560, Note_off_c, 12, 58, 64
13, 967920, Note_on_c, 12, 53, 60
13, 967920, Note_on_c, 12, 58, 60
13, 968040, Note_off_c, 12, 58, 64
13, 968040, Note_off_c, 12, 53, 64
13, 968400, Note_on_c, 12, 53, 60
13, 968400, Note_on_c, 12, 58, 60
13, 968520, Note_off_c, 12, 58, 64
13, 968520, Note_off_c, 12, 53, 64
13, 968880, Note_on_c, 12, 57, 60
13, 968880, Note_on_c, 12, 60, 60
13, 969000, Note_off_c, 12, 60, 64
13, 969000, Note_off_c, 12, 57, 64
13, 969360, Note_on_c, 12, 53, 60
13, 969360, Note_on_c, 12, 57, 60
13, 969480, Note_off_c, 12, 57, 64
13, 969480, Note_off_c, 12, 53, 64
13, 969840, Note_on_c, 12, 53, 60
13, 969840, Note_on_c, 12, 57, 60
13, 969960, Note_off_c, 12, 57, 64
13, 969960, Note_off_c, 12, 53, 64
13, 970320, Note_on_c, 12, 55, 60
13, 970320, Note_on_c, 12, 60, 60
13, 970440, Note_off_c, 12, 60, 64
13, 970440, Note_off_c, 12, 55, 64
13, 970800, Note_on_c, 12, 52, 60
13, 970800, Note_on_c, 12, 55, 60
13, 970920, Note_off_c, 12, 55, 64
13, 970920, Note_off_c, 12, 52, 64
13, 971280, Note_on_c, 12, 52, 60
13, 971280, Note_on_c, 12, 55, 60
13, 971400, Note_off_c, 12, 55, 64
13, 971400, Note_off_c, 12, 52, 64
13, 971760, Note_on_c, 12, 57, 60
13, 971760, Note_on_c, 12, 60, 60
13, 971880, Note_off_c, 12, 60, 64
13, 971880, Note_off_c, 12, 57, 64
13, 972240, Note_on_c, 12, 53, 60
13, 972240, Note_on_c, 12, 57, 60
13, 972360, Note_off_c, 12, 57, 64
13, 972360, Note_off_c, 12, 53, 64
13, 972720, Note_on_c, 12, 53, 60
13, 972720, Note_on_c, 12, 57, 60
13, 972840, Note_off_c, 12, 57, 64
13, 972840, Note_off_c, 12, 53, 64
13, 973200, Note_on_c, 12, 57, 60
13, 973200, Note_on_c, 12, 60, 60
13, 973320, Note_off_c, 12, 60, 64
13, 973320, Note_off_c, 12, 57, 64
13, 973680, Note_on_c, 12, 53, 60
13, 973680, Note_on_c, 12, 57, 60
13, 973800, Note_off_c, 12, 57, 64
13, 973800, Note_off_c, 12, 53, 64
13, 974160, Note_on_c, 12, 53, 60
13, 974160, Note_on_c, 12, 57, 60
13, 974280, Note_off_c, 12, 57, 64
13, 974280, Note_off_c, 12, 53, 64
13, 974640, Note_on_c, 12, 57, 60
13, 974640, Note_on_c, 12, 60, 60
13, 974760, Note_off_c, 12, 60, 64
13, 974760, Note_off_c, 12, 57, 64
13, 975120, Note_on_c, 12, 53, 60
13, 975120, Note_on_c, 12, 57, 60
13, 975240, Note_off_c, 12, 57, 64
13, 975240, Note_off_c, 12, 53, 64
13, 975600, Note_on_c, 12, 53, 60
13, 975600, Note_on_c, 12, 57, 60
13, 975720, Note_off_c, 12, 57, 64
13, 975720, Note_off_c, 12, 53, 64
13, 976080, Note_on_c, 12, 57, 60
13, 976080, Note_on_c, 12, 60, 60
13, 976200, Note_off_c, 12, 60, 64
13, 976200, Note_off_c, 12, 57, 64
13, 976560, Note_on_c, 12, 53, 60
13, 976560, Note_on_c, 12, 57, 60
13, 976680, Note_off_c, 12, 57, 64
13, 976680, Note_off_c, 12, 53, 64
13, 977040, Note_on_c, 12, 53, 60
13, 977040, Note_on_c, 12, 57, 60
13, 977160, Note_off_c, 12, 57, 64
13, 977160, Note_off_c, 12, 53, 64
13, 977520, Note_on_c, 12, 58, 60
13, 977520, Note_on_c, 12, 60, 60
13, 977640, Note_off_c, 12, 60, 64
13, 977640, Note_off_c, 12, 58, 64
13, 978000, Note_on_c, 12, 48, 60
13, 978000, Note_on_c, 12, 52, 60
13, 978120, Note_off_c, 12, 52, 64
13, 978120, Note_off_c, 12, 48, 64
13, 978480, Note_on_c, 12, 48, 60
13, 978480, Note_on_c, 12, 52, 60
13, 978600, Note_off_c, 12, 52, 64
13, 978600, Note_off_c, 12, 48, 64
13, 978960, Note_on_c, 12, 58, 60
13, 978960, Note_on_c, 12, 60, 60
13, 979080, Note_off_c, 12, 60, 64
13, 979080, Note_off_c, 12, 58, 64
13, 979440, Note_on_c, 12, 52, 60
13, 979440, Note_on_c, 12, 55, 60
13, 979560, Note_off_c, 12, 55, 64
13, 979560, Note_off_c, 12, 52, 64
13, 979920, Note_on_c, 12, 52, 60
13, 979920, Note_on_c, 12, 55, 60
13, 980040, Note_off_c, 12, 55, 64
13, 980040, Note_off_c, 12, 52, 64
13, 980400, Note_on_c, 12, 53, 60
13, 980400, Note_on_c, 12, 57, 60
13, 980520, Note_off_c, 12, 57, 64
13, 980520, Note_off_c, 12, 53, 64
13, 980880, Note_on_c, 12, 48, 60
13, 980880, Note_on_c, 12, 53, 60
13, 981000, Note_off_c, 12, 53, 64
13, 981000, Note_off_c, 12, 48, 64
13, 981360, Note_on_c, 12, 48, 60
13, 981360, Note_on_c, 12, 53, 60
13, 981480, Note_off_c, 12, 53, 64
13, 981480, Note_off_c, 12, 48, 64
13, 981840, Note_on_c, 12, 53, 60
13, 981840, Note_on_c, 12, 57, 60
13, 981960, Note_off_c, 12, 57, 64
13, 981960, Note_off_c, 12, 53, 64
13, 982320, Note_on_c, 12, 48, 60
13, 982320, Note_on_c, 12, 53, 60
13, 982440, Note_off_c, 12, 53, 64
13, 982440, Note_off_c, 12, 48, 64
13, 982800, Note_on_c, 12, 48, 60
13, 982800, Note_on_c, 12, 53, 60
13, 982920, Note_off_c, 12, 53, 64
13, 982920, Note_off_c, 12, 48, 64
13, 983280, Note_on_c, 12, 52, 60
13, 983280, Note_on_c, 12, 55, 60
13, 983400, Note_off_c, 12, 55, 64
13, 983400, Note_off_c, 12, 52, 64
13, 983760, Note_on_c, 12, 48, 60
13, 983760, Note_on_c, 12, 52, 60
13, 983880, Note_off_c, 12, 52, 64
13, 983880, Note_off_c, 12, 48, 64
13, 984240, Note_on_c, 12, 48, 60
13, 984240, Note_on_c, 12, 52, 60
13, 984360, Note_off_c, 12, 52, 64
13, 984360, Note_off_c, 12, 48, 64
13, 984720, Note_on_c, 12, 52, 60
13, 984720, Note_on_c, 12, 55, 60
13, 984840, Note_off_c, 12, 55, 64
13, 984840, Note_off_c, 12, 52, 64
13, 985200, Note_on_c, 12, 48, 61
13, 985200, Note_on_c, 12, 52, 61
13, 985320, Note_off_c, 12, 52, 64
13, 985320, Note_off_c, 12, 48, 64
13, 985680, Note_on_c, 12, 48, 62
13, 985680, Note_on_c, 12, 52, 62
13, 985800, Note_off_c, 12, 52, 64
13, 985800, Note_off_c, 12, 48, 64
13, 986160, Note_on_c, 12, 53, 63
13, 986160, Note_on_c, 12, 57, 63
13, 986280, Note_off_c, 12, 57, 64
13, 986280, Note_off_c, 12, 53, 64
13, 986640, Note_on_c, 12, 48, 64
13, 986640, Note_on_c, 12, 53, 64
13, 986760, Note_off_c, 12, 53, 64
13, 986760, Note_off_c, 12, 48, 64
13, 987120, Note_on_c, 12, 48, 65
13, 987120, Note_on_c, 12, 53, 65
13, 987240, Note_off_c, 12, 53, 64
13, 987240, Note_off_c, 12, 48, 64
13, 987600, Note_on_c, 12, 53, 66
13, 987600, Note_on_c, 12, 57, 66
13, 987720, Note_off_c, 12, 57, 64
13, 987720, Note_off_c, 12, 53, 64
13, 988080, Note_on_c, 12, 48, 67
13, 988080, Note_on_c, 12, 53, 67
13, 988200, Note_off_c, 12, 53, 64
13, 988200, Note_off_c, 12, 48, 64
13, 988560, Note_on_c, 12, 48, 68
13, 988560, Note_on_c, 12, 53, 68
13, 988680, Note_off_c, 12, 53, 64
13, 988680, Note_off_c, 12, 48, 64
13, 989040, Note_on_c, 12, 52, 69
13, 989040, Note_on_c, 12, 55, 69
13, 989160, Note_off_c, 12, 55, 64
13, 989160, Note_off_c, 12, 52, 64
13, 989520, Note_on_c, 12, 48, 70
13, 989520, Note_on_c, 12, 52, 70
13, 989640, Note_off_c, 12, 52, 64
13, 989640, Note_off_c, 12, 48, 64
13, 990000, Note_on_c, 12, 48, 71
13, 990000, Note_on_c, 12, 52, 71
13, 990120, Note_off_c, 12, 52, 64
13, 990120, Note_off_c, 12, 48, 64
13, 990480, Note_on_c, 12, 52, 72
13, 990480, Note_on_c, 12, 55, 72
13, 990600, Note_off_c, 12, 55, 64
13, 990600, Note_off_c, 12, 52, 64
13, 990960, Note_on_c, 12, 48, 73
13, 990960, Note_on_c, 12, 52, 73
13, 991080, Note_off_c, 12, 52, 64
13, 991080, Note_off_c, 12, 48, 64
13, 991440, Note_on_c, 12, 48, 74
13, 991440, Note_on_c, 12, 52, 74
13, 991560, Note_off_c, 12, 52, 64
13, 991560, Note_off_c, 12, 48, 64
13, 991920, Note_on_c, 12, 65, 75
13, 992880, Note_off_c, 12, 65, 64
13, 992880, Note_on_c, 12, 70, 75
13, 993360, Note_off_c, 12, 70, 64
13, 993360, Note_on_c, 12, 72, 75
13, 993840, Note_off_c, 12, 72, 64
13, 993840, Note_on_c, 12, 69, 75
13, 994320, Note_off_c, 12, 69, 64
13, 994320, Note_on_c, 12, 70, 75
13, 994720, Note_off_c, 12, 70, 64
13, 994800, Note_on_c, 12, 67, 75
13, 995760, Note_off_c, 12, 67, 64
13, 995760, Note_on_c, 12, 69, 75
13, 996240, Note_off_c, 12, 69, 64
13, 996240, Note_on_c, 12, 70, 75
13, 996720, Note_off_c, 12, 70, 64
13, 996720, Note_on_c, 12, 67, 75
13, 997200, Note_off_c, 12, 67, 64
13, 997200, Note_on_c, 12, 69, 75
13, 997600, Note_off_c, 12, 69, 64
13, 997680, Note_on_c, 12, 65, 75
13, 998640, Note_off_c, 12, 65, 64
13, 998640, Note_on_c, 12, 58, 77
13, 999120, Note_off_c, 12, 58, 64
13, 999120, Note_on_c, 12, 60, 78
13, 999600, Note_off_c, 12, 60, 64
13, 999600, Note_on_c, 12, 57, 79
13, 1000080, Note_off_c, 12, 57, 64
13, 1000080, Note_on_c, 12, 58, 80
13, 1000480, Note_off_c, 12, 58, 64
13, 1000560, Note_on_c, 12, 55, 81
13, 1001520, Note_off_c, 12, 55, 64
13, 1001520, Note_on_c, 12, 57, 84
13, 1002000, Note_off_c, 12, 57, 64
13, 1002000, Note_on_c, 12, 58, 86
13, 1002480, Note_off_c, 12, 58, 64
13, 1002480, Note_on_c, 12, 55, 88
13, 1002960, Note_off_c, 12, 55, 64
13, 1002960, Note_on_c, 12, 57, 90
13, 1003360, Note_off_c, 12, 57, 64
13, 1003440, Note_on_c, 12, 53, 92
13, 1003840, Note_off_c, 12, 53, 64
13, 1009200, Note_on_c, 12, 53, 108
13, 1010040, Note_off_c, 12, 53, 64
13, 1010160, Note_on_c, 12, 53, 108
13, 1011000, Note_off_c, 12, 53, 64
13, 1011120, Note_on_c, 12, 58, 108
13, 1011960, Note_off_c, 12, 58, 64
13, 1012080, Note_on_c, 12, 53, 108
13, 1012560, Note_off_c, 12, 53, 64
13, 1012560, Note_on_c, 12, 58, 108
13, 1012960, Note_off_c, 12, 58, 64
13, 1013040, Note_on_c, 12, 53, 108
13, 1013880, Note_off_c, 12, 53, 64
13, 1014000, Note_on_c, 12, 53, 108
13, 1014840, Note_off_c, 12, 53, 64
13, 1014960, Note_on_c, 12, 58, 108
13, 1015800, Note_off_c, 12, 58, 64
13, 1015920, Note_on_c, 12, 53, 108
13, 1016400, Note_off_c, 12, 53, 64
13, 1016400, Note_on_c, 12, 58, 108
13, 1016800, Note_off_c, 12, 58, 64
13, 1016880, Note_on_c, 12, 53, 108
13, 1017720, Note_off_c, 12, 53, 64
13, 1017840, Note_on_c, 12, 53, 108
13, 1018680, Note_off_c, 12, 53, 64
13, 1018800, Note_on_c, 12, 58, 108
13, 1019640, Note_off_c, 12, 58, 64
13, 1019760, Note_on_c, 12, 53, 108
13, 1020240, Note_off_c, 12, 53, 64
13, 1020240, Note_on_c, 12, 58, 108
13, 1020640, Note_off_c, 12, 58, 64
13, 1020720, Note_on_c, 12, 53, 108
13, 1021560, Note_off_c, 12, 53, 64
13, 1021680, Note_on_c, 12, 53, 108
13, 1022520, Note_off_c, 12, 53, 64
13, 1022640, Note_on_c, 12, 58, 108
13, 1023480, Note_off_c, 12, 58, 64
13, 1023600, Note_on_c, 12, 53, 108
13, 1024080, Note_off_c, 12, 53, 64
13, 1024080, Note_on_c, 12, 58, 108
13, 1024480, Note_off_c, 12, 58, 64
13, 1024560, Note_on_c, 12, 60, 108
13, 1024800, Note_off_c, 12, 60, 64
13, 1024800, Note_on_c, 12, 62, 108
13, 1024920, Note_off_c, 12, 62, 64
13, 1024920, Note_on_c, 12, 60, 108
13, 1025040, Note_off_c, 12, 60, 64
13, 1025040, Note_on_c, 12, 55, 108
13, 1025280, Note_off_c, 12, 55, 64
13, 1025280, Note_on_c, 12, 57, 108
13, 1025400, Note_off_c, 12, 57, 64
13, 1025400, Note_on_c, 12, 59, 108
13, 1025515, Note_off_c, 12, 59, 64
13, 1025520, Note_on_c, 12, 60, 108
13, 1025760, Note_off_c, 12, 60, 64
13, 1025760, Note_on_c, 12, 62, 108
13, 1025880, Note_off_c, 12, 62, 64
13, 1025880, Note_on_c, 12, 60, 108
13, 1025995, Note_off_c, 12, 60, 64
13, 1026000, Note_on_c, 12, 55, 108
13, 1026400, Note_off_c, 12, 55, 64
13, 1026480, Note_on_c, 12, 53, 108
13, 1026600, Note_off_c, 12, 53, 64
13, 1026600, Note_on_c, 12, 55, 108
13, 1026720, Note_off_c, 12, 55, 64
13, 1026720, Note_on_c, 12, 57, 108
13, 1026840, Note_off_c, 12, 57, 64
13, 1026840, Note_on_c, 12, 58, 108
13, 1026955, Note_off_c, 12, 58, 64
13, 1026960, Note_on_c, 12, 60, 108
13, 1027040, Note_off_c, 12, 60, 64
13, 1027200, Note_on_c, 12, 60, 108
13, 1027260, Note_off_c, 12, 60, 64
13, 1027260, Note_on_c, 12, 62, 108
13, 1027435, Note_off_c, 12, 62, 64
13, 1027440, Note_on_c, 12, 55, 108
13, 1027520, Note_off_c, 12, 55, 64
13, 1027680, Note_on_c, 12, 55, 108
13, 1027740, Note_off_c, 12, 55, 64
13, 1027740, Note_on_c, 12, 60, 108
13, 1027915, Note_off_c, 12, 60, 64
13, 1027920, Note_on_c, 12, 53, 108
13, 1028320, Note_off_c, 12, 53, 64
13, 1028400, Note_on_c, 12, 60, 108
13, 1028640, Note_off_c, 12, 60, 64
13, 1028640, Note_on_c, 12, 62, 108
13, 1028760, Note_off_c, 12, 62, 64
13, 1028760, Note_on_c, 12, 60, 108
13, 1028880, Note_off_c, 12, 60, 64
13, 1028880, Note_on_c, 12, 55, 108
13, 1029120, Note_off_c, 12, 55, 64
13, 1029120, Note_on_c, 12, 57, 108
13, 1029240, Note_off_c, 12, 57, 64
13, 1029240, Note_on_c, 12, 59, 108
13, 1029355, Note_off_c, 12, 59, 64
13, 1029360, Note_on_c, 12, 60, 108
13, 1029600, Note_off_c, 12, 60, 64
13, 1029600, Note_on_c, 12, 62, 108
13, 1029720, Note_off_c, 12, 62, 64
13, 1029720, Note_on_c, 12, 60, 108
13, 1029835, Note_off_c, 12, 60, 64
13, 1029840, Note_on_c, 12, 55, 108
13, 1030240, Note_off_c, 12, 55, 64
13, 1030320, Note_on_c, 12, 53, 108
13, 1030440, Note_off_c, 12, 53, 64
13, 1030440, Note_on_c, 12, 55, 108
13, 1030560, Note_off_c, 12, 55, 64
13, 1030560, Note_on_c, 12, 57, 108
13, 1030680, Note_off_c, 12, 57, 64
13, 1030680, Note_on_c, 12, 58, 108
13, 1030795, Note_off_c, 12, 58, 64
13, 1030800, Note_on_c, 12, 60, 108
13, 1030880, Note_off_c, 12, 60, 64
13, 1031040, Note_on_c, 12, 60, 108
13, 1031100, Note_off_c, 12, 60, 64
13, 1031100, Note_on_c, 12, 62, 108
13, 1031275, Note_off_c, 12, 62, 64
13, 1031280, Note_on_c, 12, 55, 108
13, 1031360, Note_off_c, 12, 55, 64
13, 1031520, Note_on_c, 12, 55, 108
13, 1031580, Note_off_c, 12, 55, 64
13, 1031580, Note_on_c, 12, 60, 108
13, 1031755, Note_off_c, 12, 60, 64
13, 1031760, Note_on_c, 12, 53, 108
13, 1032160, Note_off_c, 12, 53, 64
13, 1032240, Program_c, 12, 50
13, 1032240, Note_on_c, 12, 60, 108
13, 1032480, Note_off_c, 12, 60, 64
13, 1032480, Note_on_c, 12, 62, 108
13, 1032600, Note_off_c, 12, 62, 64
13, 1032600, Note_on_c, 12, 60, 108
13, 1032720, Note_off_c, 12, 60, 64
13, 1032720, Note_on_c, 12, 55, 108
13, 1032960, Note_off_c, 12, 55, 64
13, 1032960, Note_on_c, 12, 57, 108
13, 1033080, Note_off_c, 12, 57, 64
13, 1033080, Note_on_c, 12, 59, 108
13, 1033195, Note_off_c, 12, 59, 64
13, 1033200, Note_on_c, 12, 60, 108
13, 1033440, Note_off_c, 12, 60, 64
13, 1033440, Note_on_c, 12, 62, 108
13, 1033560, Note_off_c, 12, 62, 64
13, 1033560, Note_on_c, 12, 60, 108
13, 1033680, Note_off_c, 12, 60, 64
13, 1033680, Note_on_c, 12, 59, 108
13, 1033920, Note_off_c, 12, 59, 64
13, 1033920, Note_on_c, 12, 60, 108
13, 1034040, Note_off_c, 12, 60, 64
13, 1034040, Note_on_c, 12, 62, 108
13, 1034155, Note_off_c, 12, 62, 64
13, 1034160, Note_on_c, 12, 64, 108
13, 1034400, Note_off_c, 12, 64, 64
13, 1034400, Note_on_c, 12, 62, 108
13, 1034520, Note_off_c, 12, 62, 64
13, 1034520, Note_on_c, 12, 64, 108
13, 1034635, Note_off_c, 12, 64, 64
13, 1034640, Note_on_c, 12, 65, 108
13, 1034880, Note_off_c, 12, 65, 64
13, 1034880, Note_on_c, 12, 67, 108
13, 1035000, Note_off_c, 12, 67, 64
13, 1035000, Note_on_c, 12, 69, 108
13, 1035115, Note_off_c, 12, 69, 64
13, 1035120, Note_on_c, 12, 67, 108
13, 1035360, Note_off_c, 12, 67, 64
13, 1035360, Note_on_c, 12, 69, 108
13, 1035480, Note_off_c, 12, 69, 64
13, 1035480, Note_on_c, 12, 66, 108
13, 1035595, Note_off_c, 12, 66, 64
13, 1035600, Note_on_c, 12, 67, 108
13, 1035835, Note_off_c, 12, 67, 64
13, 1035840, Note_on_c, 12, 55, 108
13, 1036075, Note_off_c, 12, 55, 64
13, 1036080, Note_on_c, 12, 60, 108
13, 1036320, Note_off_c, 12, 60, 64
13, 1036320, Note_on_c, 12, 62, 108
13, 1036440, Note_off_c, 12, 62, 64
13, 1036440, Note_on_c, 12, 60, 108
13, 1036555, Note_off_c, 12, 60, 64
13, 1036560, Note_on_c, 12, 55, 108
13, 1036800, Note_off_c, 12, 55, 64
13, 1036800, Note_on_c, 12, 57, 108
13, 1036920, Note_off_c, 12, 57, 64
13, 1036920, Note_on_c, 12, 58, 108
13, 1037035, Note_off_c, 12, 58, 64
13, 1037040, Note_on_c, 12, 60, 108
13, 1037280, Note_off_c, 12, 60, 64
13, 1037280, Note_on_c, 12, 62, 108
13, 1037400, Note_off_c, 12, 62, 64
13, 1037400, Note_on_c, 12, 60, 108
13, 1037515, Note_off_c, 12, 60, 64
13, 1037520, Note_on_c, 12, 59, 108
13, 1037760, Note_off_c, 12, 59, 64
13, 1037760, Note_on_c, 12, 60, 108
13, 1037880, Note_off_c, 12, 60, 64
13, 1037880, Note_on_c, 12, 62, 108
13, 1037995, Note_off_c, 12, 62, 64
13, 1038000, Note_on_c, 12, 64, 108
13, 1038240, Note_off_c, 12, 64, 64
13, 1038240, Note_on_c, 12, 62, 108
13, 1038360, Note_off_c, 12, 62, 64
13, 1038360, Note_on_c, 12, 64, 108
13, 1038475, Note_off_c, 12, 64, 64
13, 1038480, Note_on_c, 12, 65, 108
13, 1038720, Note_off_c, 12, 65, 64
13, 1038720, Note_on_c, 12, 67, 108
13, 1038840, Note_off_c, 12, 67, 64
13, 1038840, Note_on_c, 12, 69, 108
13, 1038955, Note_off_c, 12, 69, 64
13, 1038960, Note_on_c, 12, 67, 108
13, 1039200, Note_off_c, 12, 67, 64
13, 1039200, Note_on_c, 12, 69, 108
13, 1039320, Note_off_c, 12, 69, 64
13, 1039320, Note_on_c, 12, 66, 108
13, 1039435, Note_off_c, 12, 66, 64
13, 1039440, Note_on_c, 12, 67, 108
13, 1039675, Note_off_c, 12, 67, 64
13, 1039680, Note_on_c, 12, 55, 108
13, 1039915, Note_off_c, 12, 55, 64
13, 1039920, Note_on_c, 12, 60, 108
13, 1040000, Note_off_c, 12, 60, 64
13, 1040160, Note_on_c, 12, 62, 108
13, 1040275, Note_off_c, 12, 62, 64
13, 1040280, Note_on_c, 12, 60, 108
13, 1040395, Note_off_c, 12, 60, 64
13, 1040400, Note_on_c, 12, 55, 108
13, 1040635, Note_off_c, 12, 55, 64
13, 1040640, Note_on_c, 12, 57, 108
13, 1040755, Note_off_c, 12, 57, 64
13, 1040760, Note_on_c, 12, 59, 108
13, 1040875, Note_off_c, 12, 59, 64
13, 1040880, Note_on_c, 12, 60, 108
13, 1040960, Note_off_c, 12, 60, 64
13, 1041120, Note_on_c, 12, 62, 108
13, 1041235, Note_off_c, 12, 62, 64
13, 1041240, Note_on_c, 12, 60, 108
13, 1041355, Note_off_c, 12, 60, 64
13, 1041360, Note_on_c, 12, 59, 108
13, 1041595, Note_off_c, 12, 59, 64
13, 1041600, Note_on_c, 12, 60, 108
13, 1041715, Note_off_c, 12, 60, 64
13, 1041720, Note_on_c, 12, 62, 108
13, 1041835, Note_off_c, 12, 62, 64
13, 1041840, Note_on_c, 12, 64, 108
13, 1041920, Note_off_c, 12, 64, 64
13, 1042080, Note_on_c, 12, 65, 108
13, 1042195, Note_off_c, 12, 65, 64
13, 1042200, Note_on_c, 12, 64, 108
13, 1042315, Note_off_c, 12, 64, 64
13, 1042320, Note_on_c, 12, 62, 108
13, 1042555, Note_off_c, 12, 62, 64
13, 1042560, Note_on_c, 12, 64, 108
13, 1042675, Note_off_c, 12, 64, 64
13, 1042680, Note_on_c, 12, 65, 108
13, 1042795, Note_off_c, 12, 65, 64
13, 1042800, Note_on_c, 12, 67, 108
13, 1042880, Note_off_c, 12, 67, 64
13, 1043040, Note_on_c, 12, 69, 108
13, 1043155, Note_off_c, 12, 69, 64
13, 1043160, Note_on_c, 12, 65, 108
13, 1043275, Note_off_c, 12, 65, 64
13, 1043280, Note_on_c, 12, 67, 108
13, 1043515, Note_off_c, 12, 67, 64
13, 1043520, Note_on_c, 12, 69, 108
13, 1043635, Note_off_c, 12, 69, 64
13, 1043640, Note_on_c, 12, 71, 108
13, 1043755, Note_off_c, 12, 71, 64
13, 1043760, Note_on_c, 12, 72, 108
13, 1043840, Note_off_c, 12, 72, 64
13, 1044000, Note_on_c, 12, 74, 108
13, 1044115, Note_off_c, 12, 74, 64
13, 1044120, Note_on_c, 12, 71, 108
13, 1044235, Note_off_c, 12, 71, 64
13, 1044240, Note_on_c, 12, 72, 108
13, 1044475, Note_off_c, 12, 72, 64
13, 1044480, Note_on_c, 12, 74, 108
13, 1044595, Note_off_c, 12, 74, 64
13, 1044600, Note_on_c, 12, 71, 108
13, 1044715, Note_off_c, 12, 71, 64
13, 1044720, Note_on_c, 12, 72, 108
13, 1044800, Note_off_c, 12, 72, 64
13, 1044960, Note_on_c, 12, 74, 108
13, 1045075, Note_off_c, 12, 74, 64
13, 1045080, Note_on_c, 12, 71, 108
13, 1045195, Note_off_c, 12, 71, 64
13, 1045200, Note_on_c, 12, 72, 108
13, 1045435, Note_off_c, 12, 72, 64
13, 1045440, Note_on_c, 12, 74, 108
13, 1045555, Note_off_c, 12, 74, 64
13, 1045560, Note_on_c, 12, 71, 108
13, 1045675, Note_off_c, 12, 71, 64
13, 1045680, Note_on_c, 12, 64, 108
13, 1045915, Note_off_c, 12, 64, 64
13, 1046640, Note_on_c, 12, 55, 108
13, 1046875, Note_off_c, 12, 55, 64
13, 1049040, Note_on_c, 12, 60, 45
13, 1049160, Note_off_c, 12, 60, 64
13, 1049520, Note_on_c, 12, 65, 45
13, 1049640, Note_off_c, 12, 65, 64
13, 1050000, Note_on_c, 12, 60, 45
13, 1050120, Note_off_c, 12, 60, 64
13, 1050480, Note_on_c, 12, 62, 45
13, 1050600, Note_off_c, 12, 62, 64
13, 1050960, Note_on_c, 12, 60, 45
13, 1051080, Note_off_c, 12, 60, 64
13, 1051440, Note_on_c, 12, 57, 45
13, 1051560, Note_off_c, 12, 57, 64
13, 1051920, Note_on_c, 12, 58, 45
13, 1052040, Note_off_c, 12, 58, 64
13, 1052400, Note_on_c, 12, 57, 45
13, 1052520, Note_off_c, 12, 57, 64
13, 1052880, Note_on_c, 12, 53, 45
13, 1053000, Note_off_c, 12, 53, 64
13, 1053360, Note_on_c, 12, 55, 45
13, 1053480, Note_off_c, 12, 55, 64
13, 1053840, Note_on_c, 12, 57, 45
13, 1053960, Note_off_c, 12, 57, 64
13, 1054320, Note_on_c, 12, 53, 45
13, 1054440, Note_off_c, 12, 53, 64
13, 1058640, Note_on_c, 12, 45, 45
13, 1058760, Note_off_c, 12, 45, 64
13, 1059120, Note_on_c, 12, 45, 45
13, 1059240, Note_off_c, 12, 45, 64
13, 1059600, Note_on_c, 12, 45, 45
13, 1059720, Note_off_c, 12, 45, 64
13, 1060560, Note_on_c, 12, 45, 45
13, 1061040, Note_off_c, 12, 45, 64
13, 1061040, Note_on_c, 12, 50, 45
13, 1062000, Note_off_c, 12, 50, 64
13, 1062000, Note_on_c, 12, 54, 45
13, 1062480, Note_off_c, 12, 54, 64
13, 1062480, Note_on_c, 12, 57, 45
13, 1062960, Note_off_c, 12, 57, 64
13, 1062960, Note_on_c, 12, 54, 45
13, 1063360, Note_off_c, 12, 54, 64
13, 1063440, Note_on_c, 12, 54, 45
13, 1063920, Note_off_c, 12, 54, 64
13, 1063920, Note_on_c, 12, 57, 45
13, 1064400, Note_off_c, 12, 57, 64
13, 1064400, Note_on_c, 12, 61, 48
13, 1064880, Note_off_c, 12, 61, 64
13, 1064880, Note_on_c, 12, 62, 52
13, 1065120, Note_off_c, 12, 62, 64
13, 1065120, Note_on_c, 12, 59, 54
13, 1065360, Note_off_c, 12, 59, 64
13, 1065360, Note_on_c, 12, 57, 56
13, 1065840, Note_off_c, 12, 57, 64
13, 1065840, Note_on_c, 12, 61, 60
13, 1066320, Note_off_c, 12, 61, 64
13, 1066320, Note_on_c, 12, 62, 64
13, 1066560, Note_off_c, 12, 62, 64
13, 1066560, Note_on_c, 12, 58, 66
13, 1066800, Note_off_c, 12, 58, 64
13, 1066800, Note_on_c, 12, 57, 68
13, 1067280, Note_off_c, 12, 57, 64
13, 1067280, Note_on_c, 12, 60, 72
13, 1067760, Note_off_c, 12, 60, 64
13, 1067760, Note_on_c, 12, 62, 76
13, 1068000, Note_off_c, 12, 62, 64
13, 1068000, Note_on_c, 12, 58, 78
13, 1068240, Note_off_c, 12, 58, 64
13, 1068240, Note_on_c, 12, 57, 80
13, 1068720, Note_off_c, 12, 57, 64
13, 1068720, Note_on_c, 12, 60, 84
13, 1069200, Note_off_c, 12, 60, 64
13, 1069200, Note_on_c, 12, 62, 88
13, 1069440, Note_off_c, 12, 62, 64
13, 1069440, Note_on_c, 12, 58, 90
13, 1069675, Note_off_c, 12, 58, 64
13, 1069680, Note_on_c, 12, 57, 92
13, 1070080, Note_off_c, 12, 57, 64
13, 1073040, Note_on_c, 12, 60, 45
13, 1073760, Note_off_c, 12, 60, 64
13, 1076880, Program_c, 12, 45
13, 1076880, Note_on_c, 12, 53, 30
13, 1077280, Note_off_c, 12, 53, 64
13, 1078320, Note_on_c, 12, 55, 30
13, 1078720, Note_off_c, 12, 55, 64
13, 1079760, Note_on_c, 12, 55, 30
13, 1080160, Note_off_c, 12, 55, 64
13, 1081200, Note_on_c, 12, 55, 30
13, 1081600, Note_off_c, 12, 55, 64
13, 1082640, Note_on_c, 12, 55, 30
13, 1083040, Note_off_c, 12, 55, 64
13, 1084080, Note_on_c, 12, 55, 30
13, 1084480, Note_off_c, 12, 55, 64
13, 1085520, Note_on_c, 12, 55, 30
13, 1085920, Note_off_c, 12, 55, 64
13, 1086960, Note_on_c, 12, 55, 30
13, 1087360, Note_off_c, 12, 55, 64
13, 1087920, Program_c, 12, 48
13, 1087920, Note_on_c, 12, 60, 60
13, 1088400, Note_off_c, 12, 60, 64
13, 1088400, Note_on_c, 12, 65, 60
13, 1088880, Note_off_c, 12, 65, 64
13, 1088880, Note_on_c, 12, 60, 62
13, 1089360, Note_off_c, 12, 60, 64
13, 1089360, Note_on_c, 12, 62, 65
13, 1089840, Note_off_c, 12, 62, 64
13, 1089840, Note_on_c, 12, 60, 68
13, 1090320, Note_off_c, 12, 60, 64
13, 1090320, Note_on_c, 12, 57, 71
13, 1090800, Note_off_c, 12, 57, 64
13, 1090800, Note_on_c, 12, 58, 74
13, 1091280, Note_off_c, 12, 58, 64
13, 1091280, Note_on_c, 12, 57, 77
13, 1091760, Note_off_c, 12, 57, 64
13, 1091760, Note_on_c, 12, 53, 80
13, 1092240, Note_off_c, 12, 53, 64
13, 1092240, Note_on_c, 12, 55, 83
13, 1092720, Note_off_c, 12, 55, 64
13, 1092720, Note_on_c, 12, 57, 86
13, 1093200, Note_off_c, 12, 57, 64
13, 1093200, Note_on_c, 12, 53, 89
13, 1093600, Note_off_c, 12, 53, 64
13, 1093680, Note_on_c, 12, 60, 92
13, 1093800, Note_off_c, 12, 60, 64
13, 1094160, Note_on_c, 12, 65, 92
13, 1094280, Note_off_c, 12, 65, 64
13, 1094640, Note_on_c, 12, 60, 92
13, 1094760, Note_off_c, 12, 60, 64
13, 1095120, Note_on_c, 12, 62, 92
13, 1095240, Note_off_c, 12, 62, 64
13, 1095600, Note_on_c, 12, 60, 92
13, 1095720, Note_off_c, 12, 60, 64
13, 1096080, Note_on_c, 12, 57, 92
13, 1096200, Note_off_c, 12, 57, 64
13, 1096560, Note_on_c, 12, 58, 92
13, 1096680, Note_off_c, 12, 58, 64
13, 1097040, Note_on_c, 12, 57, 92
13, 1097160, Note_off_c, 12, 57, 64
13, 1097520, Note_on_c, 12, 53, 92
13, 1097640, Note_off_c, 12, 53, 64
13, 1098000, Note_on_c, 12, 55, 92
13, 1098120, Note_off_c, 12, 55, 64
13, 1098480, Note_on_c, 12, 57, 92
13, 1098880, Note_off_c, 12, 57, 64
13, 1098960, Note_on_c, 12, 53, 92
13, 1099360, Note_off_c, 12, 53, 64
13, 1099440, Note_on_c, 12, 55, 92
13, 1099840, Note_off_c, 12, 55, 64
13, 1099920, Note_on_c, 12, 57, 92
13, 1100320, Note_off_c, 12, 57, 64
13, 1100400, Note_on_c, 12, 53, 92
13, 1100800, Note_off_c, 12, 53, 64
13, 1100880, Note_on_c, 12, 55, 92
13, 1101280, Note_off_c, 12, 55, 64
13, 1101360, Note_on_c, 12, 57, 92
13, 1101760, Note_off_c, 12, 57, 64
13, 1101840, Note_on_c, 12, 53, 92
13, 1102240, Note_off_c, 12, 53, 64
13, 1102320, Note_on_c, 12, 55, 92
13, 1102720, Note_off_c, 12, 55, 64
13, 1102800, Note_on_c, 12, 57, 92
13, 1104120, Note_off_c, 12, 57, 64
13, 1104240, Note_on_c, 12, 55, 92
13, 1105080, Note_off_c, 12, 55, 64
13, 1105200, Note_on_c, 12, 53, 92
13, 1105600, Note_off_c, 12, 53, 64
13, 1105680, Note_on_c, 12, 52, 92
13, 1106520, Note_off_c, 12, 52, 64
13, 1106640, Note_on_c, 12, 50, 92
13, 1107040, Note_off_c, 12, 50, 64
13, 1107120, Note_on_c, 12, 48, 92
13, 1107960, Note_off_c, 12, 48, 64
13, 1108080, Note_on_c, 12, 60, 92
13, 1108480, Note_off_c, 12, 60, 64
13, 1108560, Note_on_c, 12, 60, 92
13, 1109880, Note_off_c, 12, 60, 64
13, 1110000, Note_on_c, 12, 62, 92
13, 1111320, Note_off_c, 12, 62, 64
13, 1111440, Note_on_c, 12, 60, 92
13, 1112760, Note_off_c, 12, 60, 64
13, 1112880, Note_on_c, 12, 48, 92
13, 1114200, Note_off_c, 12, 48, 64
13, 1114320, Note_on_c, 12, 53, 92
13, 1114720, Note_off_c, 12, 53, 64
13, 1115280, Note_on_c, 12, 69, 92
13, 1115680, Note_off_c, 12, 69, 64
13, 1115760, Note_on_c, 12, 67, 92
13, 1116600, Note_off_c, 12, 67, 64
13, 1116720, Note_on_c, 12, 65, 92
13, 1117120, Note_off_c, 12, 65, 64
13, 1117200, Note_on_c, 12, 64, 92
13, 1118040, Note_off_c, 12, 64, 64
13, 1118160, Note_on_c, 12, 62, 92
13, 1118560, Note_off_c, 12, 62, 64
13, 1118640, Note_on_c, 12, 60, 92
13, 1119480, Note_off_c, 12, 60, 64
13, 1119600, Note_on_c, 12, 67, 92
13, 1120000, Note_off_c, 12, 67, 64
13, 1120080, Note_on_c, 12, 60, 92
13, 1121400, Note_off_c, 12, 60, 64
13, 1121520, Note_on_c, 12, 62, 92
13, 1122840, Note_off_c, 12, 62, 64
13, 1122960, Note_on_c, 12, 69, 92
13, 1124280, Note_off_c, 12, 69, 64
13, 1124400, Note_on_c, 12, 48, 92
13, 1124400, Note_on_c, 12, 60, 92
13, 1125720, Note_off_c, 12, 60, 64
13, 1125720, Note_off_c, 12, 48, 64
13, 1125840, Note_on_c, 12, 53, 108
13, 1125920, Note_off_c, 12, 53, 64
13, 1126080, Note_on_c, 12, 57, 108
13, 1126160, Note_off_c, 12, 57, 64
13, 1126320, Note_on_c, 12, 60, 108
13, 1126400, Note_off_c, 12, 60, 64
13, 1126560, Note_on_c, 12, 65, 108
13, 1126640, Note_off_c, 12, 65, 64
13, 1126800, Note_on_c, 12, 69, 108
13, 1127200, Note_off_c, 12, 69, 64
13, 1130160, Note_on_c, 12, 60, 108
13, 1130560, Note_off_c, 12, 60, 64
13, 1130640, Note_on_c, 12, 60, 108
13, 1131040, Note_off_c, 12, 60, 64
13, 1131120, Note_on_c, 12, 60, 108
13, 1131520, Note_off_c, 12, 60, 64
13, 1131600, Note_on_c, 12, 53, 108
13, 1131680, Note_off_c, 12, 53, 64
13, 1131840, Note_on_c, 12, 57, 108
13, 1131920, Note_off_c, 12, 57, 64
13, 1132080, Note_on_c, 12, 60, 108
13, 1132160, Note_off_c, 12, 60, 64
13, 1132320, Note_on_c, 12, 65, 108
13, 1132400, Note_off_c, 12, 65, 64
13, 1132560, Note_on_c, 12, 69, 108
13, 1132960, Note_off_c, 12, 69, 64
13, 1135920, Note_on_c, 12, 60, 108
13, 1136320, Note_off_c, 12, 60, 64
13, 1136400, Note_on_c, 12, 60, 108
13, 1136800, Note_off_c, 12, 60, 64
13, 1136880, Note_on_c, 12, 60, 108
13, 1137280, Note_off_c, 12, 60, 64
13, 1151040, Note_on_c, 12, 56, 30
13, 1151120, Note_off_c, 12, 56, 64
13, 1151280, Note_on_c, 12, 59, 30
13, 1151360, Note_off_c, 12, 59, 64
13, 1151520, Note_on_c, 12, 58, 30
13, 1151600, Note_off_c, 12, 58, 64
13, 1151760, Note_on_c, 12, 56, 30
13, 1151840, Note_off_c, 12, 56, 64
13, 1152000, Note_on_c, 12, 54, 30
13, 1152080, Note_off_c, 12, 54, 64
13, 1152240, Note_on_c, 12, 53, 30
13, 1152320, Note_off_c, 12, 53, 64
13, 1152480, Note_on_c, 12, 51, 30
13, 1152560, Note_off_c, 12, 51, 64
13, 1152720, Note_on_c, 12, 50, 30
13, 1153120, Note_off_c, 12, 50, 64
13, 1172160, Note_on_c, 12, 58, 45
13, 1172240, Note_off_c, 12, 58, 64
13, 1172400, Note_on_c, 12, 61, 45
13, 1172480, Note_off_c, 12, 61, 64
13, 1172640, Note_on_c, 12, 60, 45
13, 1172720, Note_off_c, 12, 60, 64
13, 1172880, Note_on_c, 12, 58, 45
13, 1172960, Note_off_c, 12, 58, 64
13, 1173120, Note_on_c, 12, 56, 45
13, 1173200, Note_off_c, 12, 56, 64
13, 1173360, Note_on_c, 12, 55, 45
13, 1173440, Note_off_c, 12, 55, 64
13, 1173600, Note_on_c, 12, 53, 45
13, 1173680, Note_off_c, 12, 53, 64
13, 1173840, Note_on_c, 12, 52, 45
13, 1174240, Note_off_c, 12, 52, 64
13, 1177680, Note_on_c, 12, 53, 92
13, 1177680, Note_on_c, 12, 56, 92
13, 1177680, Note_on_c, 12, 65, 92
13, 1177795, Note_off_c, 12, 65, 64
13, 1177795, Note_off_c, 12, 56, 64
13, 1177795, Note_off_c, 12, 53, 64
13, 1177800, Note_on_c, 12, 53, 92
13, 1177800, Note_on_c, 12, 56, 92
13, 1177800, Note_on_c, 12, 65, 92
13, 1177915, Note_off_c, 12, 65, 64
13, 1177915, Note_off_c, 12, 56, 64
13, 1177915, Note_off_c, 12, 53, 64
13, 1177920, Note_on_c, 12, 53, 92
13, 1177920, Note_on_c, 12, 56, 92
13, 1177920, Note_on_c, 12, 65, 92
13, 1178035, Note_off_c, 12, 65, 64
13, 1178035, Note_off_c, 12, 56, 64
13, 1178035, Note_off_c, 12, 53, 64
13, 1178040, Note_on_c, 12, 53, 92
13, 1178040, Note_on_c, 12, 56, 92
13, 1178040, Note_on_c, 12, 65, 92
13, 1178155, Note_off_c, 12, 65, 64
13, 1178155, Note_off_c, 12, 56, 64
13, 1178155, Note_off_c, 12, 53, 64
13, 1178160, Note_on_c, 12, 53, 92
13, 1178160, Note_on_c, 12, 56, 92
13, 1178160, Note_on_c, 12, 65, 92
13, 1178275, Note_off_c, 12, 65, 64
13, 1178275, Note_off_c, 12, 56, 64
13, 1178275, Note_off_c, 12, 53, 64
13, 1178280, Note_on_c, 12, 53, 92
13, 1178280, Note_on_c, 12, 56, 92
13, 1178280, Note_on_c, 12, 65, 92
13, 1178395, Note_off_c, 12, 65, 64
13, 1178395, Note_off_c, 12, 56, 64
13, 1178395, Note_off_c, 12, 53, 64
13, 1178400, Note_on_c, 12, 53, 92
13, 1178400, Note_on_c, 12, 56, 92
13, 1178400, Note_on_c, 12, 65, 92
13, 1178515, Note_off_c, 12, 65, 64
13, 1178515, Note_off_c, 12, 56, 64
13, 1178515, Note_off_c, 12, 53, 64
13, 1178520, Note_on_c, 12, 53, 92
13, 1178520, Note_on_c, 12, 56, 92
13, 1178520, Note_on_c, 12, 65, 92
13, 1178635, Note_off_c, 12, 65, 64
13, 1178635, Note_off_c, 12, 56, 64
13, 1178635, Note_off_c, 12, 53, 64
13, 1178640, Note_on_c, 12, 53, 92
13, 1178640, Note_on_c, 12, 56, 92
13, 1178640, Note_on_c, 12, 65, 92
13, 1178755, Note_off_c, 12, 65, 64
13, 1178755, Note_off_c, 12, 56, 64
13, 1178755, Note_off_c, 12, 53, 64
13, 1178760, Note_on_c, 12, 53, 92
13, 1178760, Note_on_c, 12, 56, 92
13, 1178760, Note_on_c, 12, 65, 92
13, 1178875, Note_off_c, 12, 65, 64
13, 1178875, Note_off_c, 12, 56, 64
13, 1178875, Note_off_c, 12, 53, 64
13, 1178880, Note_on_c, 12, 53, 92
13, 1178880, Note_on_c, 12, 56, 92
13, 1178880, Note_on_c, 12, 65, 92
13, 1178995, Note_off_c, 12, 65, 64
13, 1178995, Note_off_c, 12, 56, 64
13, 1178995, Note_off_c, 12, 53, 64
13, 1179000, Note_on_c, 12, 53, 92
13, 1179000, Note_on_c, 12, 56, 92
13, 1179000, Note_on_c, 12, 65, 92
13, 1179115, Note_off_c, 12, 65, 64
13, 1179115, Note_off_c, 12, 56, 64
13, 1179115, Note_off_c, 12, 53, 64
13, 1179120, Note_on_c, 12, 53, 92
13, 1179120, Note_on_c, 12, 56, 92
13, 1179120, Note_on_c, 12, 65, 92
13, 1179235, Note_off_c, 12, 65, 64
13, 1179235, Note_off_c, 12, 56, 64
13, 1179235, Note_off_c, 12, 53, 64
13, 1179240, Note_on_c, 12, 53, 92
13, 1179240, Note_on_c, 12, 56, 92
13, 1179240, Note_on_c, 12, 65, 92
13, 1179355, Note_off_c, 12, 65, 64
13, 1179355, Note_off_c, 12, 56, 64
13, 1179355, Note_off_c, 12, 53, 64
13, 1179360, Note_on_c, 12, 53, 92
13, 1179360, Note_on_c, 12, 56, 92
13, 1179360, Note_on_c, 12, 65, 92
13, 1179475, Note_off_c, 12, 65, 64
13, 1179475, Note_off_c, 12, 56, 64
13, 1179475, Note_off_c, 12, 53, 64
13, 1179480, Note_on_c, 12, 53, 92
13, 1179480, Note_on_c, 12, 56, 92
13, 1179480, Note_on_c, 12, 65, 92
13, 1179595, Note_off_c, 12, 65, 64
13, 1179595, Note_off_c, 12, 56, 64
13, 1179595, Note_off_c, 12, 53, 64
13, 1179600, Note_on_c, 12, 53, 92
13, 1179600, Note_on_c, 12, 56, 92
13, 1179600, Note_on_c, 12, 65, 92
13, 1179715, Note_off_c, 12, 65, 64
13, 1179715, Note_off_c, 12, 56, 64
13, 1179715, Note_off_c, 12, 53, 64
13, 1179720, Note_on_c, 12, 53, 92
13, 1179720, Note_on_c, 12, 56, 92
13, 1179720, Note_on_c, 12, 65, 92
13, 1179835, Note_off_c, 12, 65, 64
13, 1179835, Note_off_c, 12, 56, 64
13, 1179835, Note_off_c, 12, 53, 64
13, 1179840, Note_on_c, 12, 53, 92
13, 1179840, Note_on_c, 12, 56, 92
13, 1179840, Note_on_c, 12, 65, 92
13, 1179955, Note_off_c, 12, 65, 64
13, 1179955, Note_off_c, 12, 56, 64
13, 1179955, Note_off_c, 12, 53, 64
13, 1179960, Note_on_c, 12, 53, 92
13, 1179960, Note_on_c, 12, 56, 92
13, 1179960, Note_on_c, 12, 65, 92
13, 1180075, Note_off_c, 12, 65, 64
13, 1180075, Note_off_c, 12, 56, 64
13, 1180075, Note_off_c, 12, 53, 64
13, 1180080, Note_on_c, 12, 53, 92
13, 1180080, Note_on_c, 12, 56, 92
13, 1180080, Note_on_c, 12, 65, 92
13, 1180195, Note_off_c, 12, 65, 64
13, 1180195, Note_off_c, 12, 56, 64
13, 1180195, Note_off_c, 12, 53, 64
13, 1180200, Note_on_c, 12, 53, 92
13, 1180200, Note_on_c, 12, 56, 92
13, 1180200, Note_on_c, 12, 65, 92
13, 1180315, Note_off_c, 12, 65, 64
13, 1180315, Note_off_c, 12, 56, 64
13, 1180315, Note_off_c, 12, 53, 64
13, 1180320, Note_on_c, 12, 53, 92
13, 1180320, Note_on_c, 12, 56, 92
13, 1180320, Note_on_c, 12, 65, 92
13, 1180435, Note_off_c, 12, 65, 64
13, 1180435, Note_off_c, 12, 56, 64
13, 1180435, Note_off_c, 12, 53, 64
13, 1180440, Note_on_c, 12, 53, 92
13, 1180440, Note_on_c, 12, 56, 92
13, 1180440, Note_on_c, 12, 65, 92
13, 1180555, Note_off_c, 12, 65, 64
13, 1180555, Note_off_c, 12, 56, 64
13, 1180555, Note_off_c, 12, 53, 64
13, 1180560, Note_on_c, 12, 53, 92
13, 1180560, Note_on_c, 12, 56, 92
13, 1180560, Note_on_c, 12, 65, 92
13, 1180675, Note_off_c, 12, 65, 64
13, 1180675, Note_off_c, 12, 56, 64
13, 1180675, Note_off_c, 12, 53, 64
13, 1180680, Note_on_c, 12, 53, 92
13, 1180680, Note_on_c, 12, 56, 92
13, 1180680, Note_on_c, 12, 65, 92
13, 1180795, Note_off_c, 12, 65, 64
13, 1180795, Note_off_c, 12, 56, 64
13, 1180795, Note_off_c, 12, 53, 64
13, 1180800, Note_on_c, 12, 53, 92
13, 1180800, Note_on_c, 12, 56, 92
13, 1180800, Note_on_c, 12, 65, 92
13, 1180915, Note_off_c, 12, 65, 64
13, 1180915, Note_off_c, 12, 56, 64
13, 1180915, Note_off_c, 12, 53, 64
13, 1180920, Note_on_c, 12, 53, 92
13, 1180920, Note_on_c, 12, 56, 92
13, 1180920, Note_on_c, 12, 65, 92
13, 1181035, Note_off_c, 12, 65, 64
13, 1181035, Note_off_c, 12, 56, 64
13, 1181035, Note_off_c, 12, 53, 64
13, 1181040, Note_on_c, 12, 53, 92
13, 1181040, Note_on_c, 12, 56, 92
13, 1181040, Note_on_c, 12, 65, 92
13, 1181155, Note_off_c, 12, 65, 64
13, 1181155, Note_off_c, 12, 56, 64
13, 1181155, Note_off_c, 12, 53, 64
13, 1181160, Note_on_c, 12, 53, 92
13, 1181160, Note_on_c, 12, 56, 92
13, 1181160, Note_on_c, 12, 65, 92
13, 1181275, Note_off_c, 12, 65, 64
13, 1181275, Note_off_c, 12, 56, 64
13, 1181275, Note_off_c, 12, 53, 64
13, 1181280, Note_on_c, 12, 53, 92
13, 1181280, Note_on_c, 12, 56, 92
13, 1181280, Note_on_c, 12, 65, 92
13, 1181395, Note_off_c, 12, 65, 64
13, 1181395, Note_off_c, 12, 56, 64
13, 1181395, Note_off_c, 12, 53, 64
13, 1181400, Note_on_c, 12, 53, 92
13, 1181400, Note_on_c, 12, 56, 92
13, 1181400, Note_on_c, 12, 65, 92
13, 1181515, Note_off_c, 12, 65, 64
13, 1181515, Note_off_c, 12, 56, 64
13, 1181515, Note_off_c, 12, 53, 64
13, 1181520, Note_on_c, 12, 53, 92
13, 1181520, Note_on_c, 12, 56, 92
13, 1181520, Note_on_c, 12, 65, 92
13, 1181635, Note_off_c, 12, 65, 64
13, 1181635, Note_off_c, 12, 56, 64
13, 1181635, Note_off_c, 12, 53, 64
13, 1181640, Note_on_c, 12, 53, 92
13, 1181640, Note_on_c, 12, 56, 92
13, 1181640, Note_on_c, 12, 65, 92
13, 1181755, Note_off_c, 12, 65, 64
13, 1181755, Note_off_c, 12, 56, 64
13, 1181755, Note_off_c, 12, 53, 64
13, 1181760, Note_on_c, 12, 53, 92
13, 1181760, Note_on_c, 12, 56, 92
13, 1181760, Note_on_c, 12, 65, 92
13, 1181875, Note_off_c, 12, 65, 64
13, 1181875, Note_off_c, 12, 56, 64
13, 1181875, Note_off_c, 12, 53, 64
13, 1181880, Note_on_c, 12, 53, 92
13, 1181880, Note_on_c, 12, 56, 92
13, 1181880, Note_on_c, 12, 65, 92
13, 1181995, Note_off_c, 12, 65, 64
13, 1181995, Note_off_c, 12, 56, 64
13, 1181995, Note_off_c, 12, 53, 64
13, 1182000, Note_on_c, 12, 53, 92
13, 1182000, Note_on_c, 12, 56, 92
13, 1182000, Note_on_c, 12, 65, 92
13, 1182115, Note_off_c, 12, 65, 64
13, 1182115, Note_off_c, 12, 56, 64
13, 1182115, Note_off_c, 12, 53, 64
13, 1182120, Note_on_c, 12, 53, 92
13, 1182120, Note_on_c, 12, 56, 92
13, 1182120, Note_on_c, 12, 65, 92
13, 1182235, Note_off_c, 12, 65, 64
13, 1182235, Note_off_c, 12, 56, 64
13, 1182235, Note_off_c, 12, 53, 64
13, 1182240, Note_on_c, 12, 53, 92
13, 1182240, Note_on_c, 12, 56, 92
13, 1182240, Note_on_c, 12, 65, 92
13, 1182355, Note_off_c, 12, 65, 64
13, 1182355, Note_off_c, 12, 56, 64
13, 1182355, Note_off_c, 12, 53, 64
13, 1182360, Note_on_c, 12, 53, 92
13, 1182360, Note_on_c, 12, 56, 92
13, 1182360, Note_on_c, 12, 65, 92
13, 1182475, Note_off_c, 12, 65, 64
13, 1182475, Note_off_c, 12, 56, 64
13, 1182475, Note_off_c, 12, 53, 64
13, 1182480, Note_on_c, 12, 53, 92
13, 1182480, Note_on_c, 12, 56, 92
13, 1182480, Note_on_c, 12, 65, 92
13, 1182595, Note_off_c, 12, 65, 64
13, 1182595, Note_off_c, 12, 56, 64
13, 1182595, Note_off_c, 12, 53, 64
13, 1182600, Note_on_c, 12, 53, 92
13, 1182600, Note_on_c, 12, 56, 92
13, 1182600, Note_on_c, 12, 65, 92
13, 1182715, Note_off_c, 12, 65, 64
13, 1182715, Note_off_c, 12, 56, 64
13, 1182715, Note_off_c, 12, 53, 64
13, 1182720, Note_on_c, 12, 53, 92
13, 1182720, Note_on_c, 12, 56, 92
13, 1182720, Note_on_c, 12, 65, 92
13, 1182835, Note_off_c, 12, 65, 64
13, 1182835, Note_off_c, 12, 56, 64
13, 1182835, Note_off_c, 12, 53, 64
13, 1182840, Note_on_c, 12, 53, 92
13, 1182840, Note_on_c, 12, 56, 92
13, 1182840, Note_on_c, 12, 65, 92
13, 1182955, Note_off_c, 12, 65, 64
13, 1182955, Note_off_c, 12, 56, 64
13, 1182955, Note_off_c, 12, 53, 64
13, 1182960, Note_on_c, 12, 72, 127
13, 1183315, Note_off_c, 12, 72, 64
13, 1183320, Note_on_c, 12, 68, 127
13, 1183435, Note_off_c, 12, 68, 64
13, 1183440, Note_on_c, 12, 65, 127
13, 1183840, Note_off_c, 12, 65, 64
13, 1183920, Note_on_c, 12, 60, 127
13, 1184275, Note_off_c, 12, 60, 64
13, 1184280, Note_on_c, 12, 56, 127
13, 1184395, Note_off_c, 12, 56, 64
13, 1184400, Note_on_c, 12, 53, 127
13, 1184800, Note_off_c, 12, 53, 64
13, 1184880, Note_on_c, 12, 53, 127
13, 1185280, Note_off_c, 12, 53, 64
13, 1185360, Note_on_c, 12, 58, 92
13, 1185360, Note_on_c, 12, 61, 92
13, 1185475, Note_off_c, 12, 61, 64
13, 1185475, Note_off_c, 12, 58, 64
13, 1185480, Note_on_c, 12, 58, 92
13, 1185480, Note_on_c, 12, 61, 92
13, 1185595, Note_off_c, 12, 61, 64
13, 1185595, Note_off_c, 12, 58, 64
13, 1185600, Note_on_c, 12, 58, 92
13, 1185600, Note_on_c, 12, 61, 92
13, 1185715, Note_off_c, 12, 61, 64
13, 1185715, Note_off_c, 12, 58, 64
13, 1185720, Note_on_c, 12, 58, 92
13, 1185720, Note_on_c, 12, 61, 92
13, 1185835, Note_off_c, 12, 61, 64
13, 1185835, Note_off_c, 12, 58, 64
13, 1185840, Note_on_c, 12, 58, 92
13, 1185840, Note_on_c, 12, 61, 92
13, 1185955, Note_off_c, 12, 61, 64
13, 1185955, Note_off_c, 12, 58, 64
13, 1185960, Note_on_c, 12, 58, 92
13, 1185960, Note_on_c, 12, 61, 92
13, 1186075, Note_off_c, 12, 61, 64
13, 1186075, Note_off_c, 12, 58, 64
13, 1186080, Note_on_c, 12, 58, 92
13, 1186080, Note_on_c, 12, 61, 92
13, 1186195, Note_off_c, 12, 61, 64
13, 1186195, Note_off_c, 12, 58, 64
13, 1186200, Note_on_c, 12, 58, 92
13, 1186200, Note_on_c, 12, 61, 92
13, 1186315, Note_off_c, 12, 61, 64
13, 1186315, Note_off_c, 12, 58, 64
13, 1186320, Note_on_c, 12, 58, 92
13, 1186320, Note_on_c, 12, 61, 92
13, 1186435, Note_off_c, 12, 61, 64
13, 1186435, Note_off_c, 12, 58, 64
13, 1186440, Note_on_c, 12, 58, 92
13, 1186440, Note_on_c, 12, 61, 92
13, 1186555, Note_off_c, 12, 61, 64
13, 1186555, Note_off_c, 12, 58, 64
13, 1186560, Note_on_c, 12, 58, 92
13, 1186560, Note_on_c, 12, 61, 92
13, 1186675, Note_off_c, 12, 61, 64
13, 1186675, Note_off_c, 12, 58, 64
13, 1186680, Note_on_c, 12, 58, 92
13, 1186680, Note_on_c, 12, 61, 92
13, 1186795, Note_off_c, 12, 61, 64
13, 1186795, Note_off_c, 12, 58, 64
13, 1186800, Note_on_c, 12, 58, 92
13, 1186800, Note_on_c, 12, 61, 92
13, 1186915, Note_off_c, 12, 61, 64
13, 1186915, Note_off_c, 12, 58, 64
13, 1186920, Note_on_c, 12, 58, 92
13, 1186920, Note_on_c, 12, 61, 92
13, 1187035, Note_off_c, 12, 61, 64
13, 1187035, Note_off_c, 12, 58, 64
13, 1187040, Note_on_c, 12, 58, 92
13, 1187040, Note_on_c, 12, 61, 92
13, 1187155, Note_off_c, 12, 61, 64
13, 1187155, Note_off_c, 12, 58, 64
13, 1187160, Note_on_c, 12, 58, 92
13, 1187160, Note_on_c, 12, 61, 92
13, 1187275, Note_off_c, 12, 61, 64
13, 1187275, Note_off_c, 12, 58, 64
13, 1187280, Note_on_c, 12, 58, 92
13, 1187280, Note_on_c, 12, 61, 92
13, 1187395, Note_off_c, 12, 61, 64
13, 1187395, Note_off_c, 12, 58, 64
13, 1187400, Note_on_c, 12, 58, 92
13, 1187400, Note_on_c, 12, 61, 92
13, 1187515, Note_off_c, 12, 61, 64
13, 1187515, Note_off_c, 12, 58, 64
13, 1187520, Note_on_c, 12, 58, 92
13, 1187520, Note_on_c, 12, 61, 92
13, 1187635, Note_off_c, 12, 61, 64
13, 1187635, Note_off_c, 12, 58, 64
13, 1187640, Note_on_c, 12, 58, 92
13, 1187640, Note_on_c, 12, 61, 92
13, 1187755, Note_off_c, 12, 61, 64
13, 1187755, Note_off_c, 12, 58, 64
13, 1187760, Note_on_c, 12, 58, 92
13, 1187760, Note_on_c, 12, 61, 92
13, 1187875, Note_off_c, 12, 61, 64
13, 1187875, Note_off_c, 12, 58, 64
13, 1187880, Note_on_c, 12, 58, 92
13, 1187880, Note_on_c, 12, 61, 92
13, 1187995, Note_off_c, 12, 61, 64
13, 1187995, Note_off_c, 12, 58, 64
13, 1188000, Note_on_c, 12, 58, 92
13, 1188000, Note_on_c, 12, 61, 92
13, 1188115, Note_off_c, 12, 61, 64
13, 1188115, Note_off_c, 12, 58, 64
13, 1188120, Note_on_c, 12, 58, 92
13, 1188120, Note_on_c, 12, 61, 92
13, 1188235, Note_off_c, 12, 61, 64
13, 1188235, Note_off_c, 12, 58, 64
13, 1188240, Note_on_c, 12, 58, 92
13, 1188240, Note_on_c, 12, 61, 92
13, 1188355, Note_off_c, 12, 61, 64
13, 1188355, Note_off_c, 12, 58, 64
13, 1188360, Note_on_c, 12, 58, 92
13, 1188360, Note_on_c, 12, 61, 92
13, 1188475, Note_off_c, 12, 61, 64
13, 1188475, Note_off_c, 12, 58, 64
13, 1188480, Note_on_c, 12, 58, 92
13, 1188480, Note_on_c, 12, 61, 92
13, 1188595, Note_off_c, 12, 61, 64
13, 1188595, Note_off_c, 12, 58, 64
13, 1188600, Note_on_c, 12, 58, 92
13, 1188600, Note_on_c, 12, 61, 92
13, 1188715, Note_off_c, 12, 61, 64
13, 1188715, Note_off_c, 12, 58, 64
13, 1188720, Note_on_c, 12, 58, 92
13, 1188720, Note_on_c, 12, 61, 92
13, 1188835, Note_off_c, 12, 61, 64
13, 1188835, Note_off_c, 12, 58, 64
13, 1188840, Note_on_c, 12, 58, 92
13, 1188840, Note_on_c, 12, 61, 92
13, 1188955, Note_off_c, 12, 61, 64
13, 1188955, Note_off_c, 12, 58, 64
13, 1188960, Note_on_c, 12, 58, 92
13, 1188960, Note_on_c, 12, 61, 92
13, 1189075, Note_off_c, 12, 61, 64
13, 1189075, Note_off_c, 12, 58, 64
13, 1189080, Note_on_c, 12, 58, 92
13, 1189080, Note_on_c, 12, 61, 92
13, 1189195, Note_off_c, 12, 61, 64
13, 1189195, Note_off_c, 12, 58, 64
13, 1189200, Note_on_c, 12, 58, 92
13, 1189200, Note_on_c, 12, 61, 92
13, 1190520, Note_off_c, 12, 61, 64
13, 1190520, Note_off_c, 12, 58, 64
13, 1190640, Note_on_c, 12, 70, 127
13, 1190995, Note_off_c, 12, 70, 64
13, 1191000, Note_on_c, 12, 67, 127
13, 1191115, Note_off_c, 12, 67, 64
13, 1191120, Note_on_c, 12, 64, 127
13, 1191520, Note_off_c, 12, 64, 64
13, 1191600, Note_on_c, 12, 61, 127
13, 1191955, Note_off_c, 12, 61, 64
13, 1191960, Note_on_c, 12, 58, 127
13, 1192075, Note_off_c, 12, 58, 64
13, 1192080, Note_on_c, 12, 55, 127
13, 1192480, Note_off_c, 12, 55, 64
13, 1192560, Note_on_c, 12, 52, 127
13, 1192960, Note_off_c, 12, 52, 64
13, 1193040, Note_on_c, 12, 56, 92
13, 1193040, Note_on_c, 12, 60, 92
13, 1193155, Note_off_c, 12, 60, 64
13, 1193155, Note_off_c, 12, 56, 64
13, 1193160, Note_on_c, 12, 68, 92
13, 1193160, Note_on_c, 12, 72, 92
13, 1193275, Note_off_c, 12, 72, 64
13, 1193275, Note_off_c, 12, 68, 64
13, 1193280, Note_on_c, 12, 68, 92
13, 1193280, Note_on_c, 12, 72, 92
13, 1193395, Note_off_c, 12, 72, 64
13, 1193395, Note_off_c, 12, 68, 64
13, 1193400, Note_on_c, 12, 68, 92
13, 1193400, Note_on_c, 12, 72, 92
13, 1193515, Note_off_c, 12, 72, 64
13, 1193515, Note_off_c, 12, 68, 64
13, 1193520, Note_on_c, 12, 68, 92
13, 1193520, Note_on_c, 12, 72, 92
13, 1193635, Note_off_c, 12, 72, 64
13, 1193635, Note_off_c, 12, 68, 64
13, 1193640, Note_on_c, 12, 68, 92
13, 1193640, Note_on_c, 12, 72, 92
13, 1193755, Note_off_c, 12, 72, 64
13, 1193755, Note_off_c, 12, 68, 64
13, 1193760, Note_on_c, 12, 68, 92
13, 1193760, Note_on_c, 12, 72, 92
13, 1193875, Note_off_c, 12, 72, 64
13, 1193875, Note_off_c, 12, 68, 64
13, 1193880, Note_on_c, 12, 68, 92
13, 1193880, Note_on_c, 12, 72, 92
13, 1193995, Note_off_c, 12, 72, 64
13, 1193995, Note_off_c, 12, 68, 64
13, 1194000, Note_on_c, 12, 68, 92
13, 1194000, Note_on_c, 12, 72, 92
13, 1194115, Note_off_c, 12, 72, 64
13, 1194115, Note_off_c, 12, 68, 64
13, 1194120, Note_on_c, 12, 68, 92
13, 1194120, Note_on_c, 12, 72, 92
13, 1194235, Note_off_c, 12, 72, 64
13, 1194235, Note_off_c, 12, 68, 64
13, 1194240, Note_on_c, 12, 68, 92
13, 1194240, Note_on_c, 12, 72, 92
13, 1194355, Note_off_c, 12, 72, 64
13, 1194355, Note_off_c, 12, 68, 64
13, 1194360, Note_on_c, 12, 68, 92
13, 1194360, Note_on_c, 12, 72, 92
13, 1194475, Note_off_c, 12, 72, 64
13, 1194475, Note_off_c, 12, 68, 64
13, 1194480, Note_on_c, 12, 68, 92
13, 1194480, Note_on_c, 12, 72, 92
13, 1194595, Note_off_c, 12, 72, 64
13, 1194595, Note_off_c, 12, 68, 64
13, 1194600, Note_on_c, 12, 68, 92
13, 1194600, Note_on_c, 12, 72, 92
13, 1194715, Note_off_c, 12, 72, 64
13, 1194715, Note_off_c, 12, 68, 64
13, 1194720, Note_on_c, 12, 68, 92
13, 1194720, Note_on_c, 12, 72, 92
13, 1194835, Note_off_c, 12, 72, 64
13, 1194835, Note_off_c, 12, 68, 64
13, 1194840, Note_on_c, 12, 68, 92
13, 1194840, Note_on_c, 12, 72, 92
13, 1194955, Note_off_c, 12, 72, 64
13, 1194955, Note_off_c, 12, 68, 64
13, 1194960, Note_on_c, 12, 68, 92
13, 1194960, Note_on_c, 12, 72, 92
13, 1195075, Note_off_c, 12, 72, 64
13, 1195075, Note_off_c, 12, 68, 64
13, 1195080, Note_on_c, 12, 68, 92
13, 1195080, Note_on_c, 12, 72, 92
13, 1195195, Note_off_c, 12, 72, 64
13, 1195195, Note_off_c, 12, 68, 64
13, 1195200, Note_on_c, 12, 68, 92
13, 1195200, Note_on_c, 12, 72, 92
13, 1195315, Note_off_c, 12, 72, 64
13, 1195315, Note_off_c, 12, 68, 64
13, 1195320, Note_on_c, 12, 68, 92
13, 1195320, Note_on_c, 12, 72, 92
13, 1195435, Note_off_c, 12, 72, 64
13, 1195435, Note_off_c, 12, 68, 64
13, 1195440, Note_on_c, 12, 68, 92
13, 1195440, Note_on_c, 12, 72, 92
13, 1195555, Note_off_c, 12, 72, 64
13, 1195555, Note_off_c, 12, 68, 64
13, 1195560, Note_on_c, 12, 68, 92
13, 1195560, Note_on_c, 12, 72, 92
13, 1195675, Note_off_c, 12, 72, 64
13, 1195675, Note_off_c, 12, 68, 64
13, 1195680, Note_on_c, 12, 68, 92
13, 1195680, Note_on_c, 12, 72, 92
13, 1195795, Note_off_c, 12, 72, 64
13, 1195795, Note_off_c, 12, 68, 64
13, 1195800, Note_on_c, 12, 68, 92
13, 1195800, Note_on_c, 12, 72, 92
13, 1195915, Note_off_c, 12, 72, 64
13, 1195915, Note_off_c, 12, 68, 64
13, 1195920, Note_on_c, 12, 68, 92
13, 1195920, Note_on_c, 12, 72, 92
13, 1196035, Note_off_c, 12, 72, 64
13, 1196035, Note_off_c, 12, 68, 64
13, 1196040, Note_on_c, 12, 68, 92
13, 1196040, Note_on_c, 12, 72, 92
13, 1196155, Note_off_c, 12, 72, 64
13, 1196155, Note_off_c, 12, 68, 64
13, 1196160, Note_on_c, 12, 68, 92
13, 1196160, Note_on_c, 12, 72, 92
13, 1196275, Note_off_c, 12, 72, 64
13, 1196275, Note_off_c, 12, 68, 64
13, 1196280, Note_on_c, 12, 68, 92
13, 1196280, Note_on_c, 12, 72, 92
13, 1196395, Note_off_c, 12, 72, 64
13, 1196395, Note_off_c, 12, 68, 64
13, 1196400, Note_on_c, 12, 68, 92
13, 1196400, Note_on_c, 12, 72, 92
13, 1196515, Note_off_c, 12, 72, 64
13, 1196515, Note_off_c, 12, 68, 64
13, 1196520, Note_on_c, 12, 68, 92
13, 1196520, Note_on_c, 12, 72, 92
13, 1196635, Note_off_c, 12, 72, 64
13, 1196635, Note_off_c, 12, 68, 64
13, 1196640, Note_on_c, 12, 68, 92
13, 1196640, Note_on_c, 12, 72, 92
13, 1196755, Note_off_c, 12, 72, 64
13, 1196755, Note_off_c, 12, 68, 64
13, 1196760, Note_on_c, 12, 68, 92
13, 1196760, Note_on_c, 12, 72, 92
13, 1196875, Note_off_c, 12, 72, 64
13, 1196875, Note_off_c, 12, 68, 64
13, 1196880, Note_on_c, 12, 68, 127
13, 1196880, Note_on_c, 12, 72, 127
13, 1198200, Note_off_c, 12, 72, 64
13, 1198200, Note_off_c, 12, 68, 64
13, 1198320, Note_on_c, 12, 75, 127
13, 1198675, Note_off_c, 12, 75, 64
13, 1198680, Note_on_c, 12, 72, 127
13, 1198795, Note_off_c, 12, 72, 64
13, 1198800, Note_on_c, 12, 66, 127
13, 1199200, Note_off_c, 12, 66, 64
13, 1199280, Note_on_c, 12, 63, 127
13, 1199635, Note_off_c, 12, 63, 64
13, 1199640, Note_on_c, 12, 60, 127
13, 1199755, Note_off_c, 12, 60, 64
13, 1199760, Note_on_c, 12, 54, 127
13, 1200160, Note_off_c, 12, 54, 64
13, 1200240, Note_on_c, 12, 51, 127
13, 1200595, Note_off_c, 12, 51, 64
13, 1200600, Note_on_c, 12, 48, 127
13, 1200715, Note_off_c, 12, 48, 64
13, 1200720, Note_on_c, 12, 49, 127
13, 1200835, Note_off_c, 12, 49, 64
13, 1200840, Note_on_c, 12, 58, 92
13, 1200840, Note_on_c, 12, 61, 92
13, 1200955, Note_off_c, 12, 61, 64
13, 1200955, Note_off_c, 12, 58, 64
13, 1200960, Note_on_c, 12, 58, 92
13, 1200960, Note_on_c, 12, 61, 92
13, 1201075, Note_off_c, 12, 61, 64
13, 1201075, Note_off_c, 12, 58, 64
13, 1201080, Note_on_c, 12, 58, 92
13, 1201080, Note_on_c, 12, 61, 92
13, 1201195, Note_off_c, 12, 61, 64
13, 1201195, Note_off_c, 12, 58, 64
13, 1201200, Note_on_c, 12, 58, 92
13, 1201200, Note_on_c, 12, 61, 92
13, 1201315, Note_off_c, 12, 61, 64
13, 1201315, Note_off_c, 12, 58, 64
13, 1201320, Note_on_c, 12, 58, 92
13, 1201320, Note_on_c, 12, 61, 92
13, 1201435, Note_off_c, 12, 61, 64
13, 1201435, Note_off_c, 12, 58, 64
13, 1201440, Note_on_c, 12, 58, 92
13, 1201440, Note_on_c, 12, 61, 92
13, 1201555, Note_off_c, 12, 61, 64
13, 1201555, Note_off_c, 12, 58, 64
13, 1201560, Note_on_c, 12, 58, 92
13, 1201560, Note_on_c, 12, 61, 92
13, 1201675, Note_off_c, 12, 61, 64
13, 1201675, Note_off_c, 12, 58, 64
13, 1201680, Note_on_c, 12, 58, 92
13, 1201680, Note_on_c, 12, 61, 92
13, 1201795, Note_off_c, 12, 61, 64
13, 1201795, Note_off_c, 12, 58, 64
13, 1201800, Note_on_c, 12, 58, 92
13, 1201800, Note_on_c, 12, 61, 92
13, 1201915, Note_off_c, 12, 61, 64
13, 1201915, Note_off_c, 12, 58, 64
13, 1201920, Note_on_c, 12, 58, 92
13, 1201920, Note_on_c, 12, 61, 92
13, 1202035, Note_off_c, 12, 61, 64
13, 1202035, Note_off_c, 12, 58, 64
13, 1202040, Note_on_c, 12, 58, 92
13, 1202040, Note_on_c, 12, 61, 92
13, 1202155, Note_off_c, 12, 61, 64
13, 1202155, Note_off_c, 12, 58, 64
13, 1202160, Note_on_c, 12, 58, 92
13, 1202160, Note_on_c, 12, 61, 92
13, 1202275, Note_off_c, 12, 61, 64
13, 1202275, Note_off_c, 12, 58, 64
13, 1202280, Note_on_c, 12, 58, 92
13, 1202280, Note_on_c, 12, 61, 92
13, 1202395, Note_off_c, 12, 61, 64
13, 1202395, Note_off_c, 12, 58, 64
13, 1202400, Note_on_c, 12, 58, 92
13, 1202400, Note_on_c, 12, 61, 92
13, 1202515, Note_off_c, 12, 61, 64
13, 1202515, Note_off_c, 12, 58, 64
13, 1202520, Note_on_c, 12, 58, 92
13, 1202520, Note_on_c, 12, 61, 92
13, 1202635, Note_off_c, 12, 61, 64
13, 1202635, Note_off_c, 12, 58, 64
13, 1202640, Note_on_c, 12, 59, 92
13, 1202640, Note_on_c, 12, 62, 92
13, 1202755, Note_off_c, 12, 62, 64
13, 1202755, Note_off_c, 12, 59, 64
13, 1202760, Note_on_c, 12, 62, 92
13, 1202760, Note_on_c, 12, 65, 92
13, 1202875, Note_off_c, 12, 65, 64
13, 1202875, Note_off_c, 12, 62, 64
13, 1202880, Note_on_c, 12, 62, 92
13, 1202880, Note_on_c, 12, 65, 92
13, 1202995, Note_off_c, 12, 65, 64
13, 1202995, Note_off_c, 12, 62, 64
13, 1203000, Note_on_c, 12, 62, 92
13, 1203000, Note_on_c, 12, 65, 92
13, 1203115, Note_off_c, 12, 65, 64
13, 1203115, Note_off_c, 12, 62, 64
13, 1203120, Note_on_c, 12, 62, 92
13, 1203120, Note_on_c, 12, 65, 92
13, 1203235, Note_off_c, 12, 65, 64
13, 1203235, Note_off_c, 12, 62, 64
13, 1203240, Note_on_c, 12, 62, 92
13, 1203240, Note_on_c, 12, 65, 92
13, 1203355, Note_off_c, 12, 65, 64
13, 1203355, Note_off_c, 12, 62, 64
13, 1203360, Note_on_c, 12, 62, 92
13, 1203360, Note_on_c, 12, 65, 92
13, 1203475, Note_off_c, 12, 65, 64
13, 1203475, Note_off_c, 12, 62, 64
13, 1203480, Note_on_c, 12, 62, 92
13, 1203480, Note_on_c, 12, 65, 92
13, 1203595, Note_off_c, 12, 65, 64
13, 1203595, Note_off_c, 12, 62, 64
13, 1203600, Note_on_c, 12, 62, 92
13, 1203600, Note_on_c, 12, 65, 92
13, 1203715, Note_off_c, 12, 65, 64
13, 1203715, Note_off_c, 12, 62, 64
13, 1203720, Note_on_c, 12, 62, 92
13, 1203720, Note_on_c, 12, 65, 92
13, 1203835, Note_off_c, 12, 65, 64
13, 1203835, Note_off_c, 12, 62, 64
13, 1203840, Note_on_c, 12, 62, 92
13, 1203840, Note_on_c, 12, 65, 92
13, 1203955, Note_off_c, 12, 65, 64
13, 1203955, Note_off_c, 12, 62, 64
13, 1203960, Note_on_c, 12, 62, 92
13, 1203960, Note_on_c, 12, 65, 92
13, 1204075, Note_off_c, 12, 65, 64
13, 1204075, Note_off_c, 12, 62, 64
13, 1204080, Note_on_c, 12, 62, 92
13, 1204080, Note_on_c, 12, 65, 92
13, 1204195, Note_off_c, 12, 65, 64
13, 1204195, Note_off_c, 12, 62, 64
13, 1204200, Note_on_c, 12, 62, 92
13, 1204200, Note_on_c, 12, 65, 92
13, 1204315, Note_off_c, 12, 65, 64
13, 1204315, Note_off_c, 12, 62, 64
13, 1204320, Note_on_c, 12, 62, 92
13, 1204320, Note_on_c, 12, 65, 92
13, 1204435, Note_off_c, 12, 65, 64
13, 1204435, Note_off_c, 12, 62, 64
13, 1204440, Note_on_c, 12, 62, 92
13, 1204440, Note_on_c, 12, 65, 92
13, 1204555, Note_off_c, 12, 65, 64
13, 1204555, Note_off_c, 12, 62, 64
13, 1204560, Note_on_c, 12, 64, 92
13, 1204960, Note_off_c, 12, 64, 64
13, 1205520, Note_on_c, 12, 72, 108
13, 1206160, Note_off_c, 12, 72, 64
13, 1206240, Note_on_c, 12, 67, 108
13, 1206320, Note_off_c, 12, 67, 64
13, 1206480, Note_on_c, 12, 68, 108
13, 1206560, Note_off_c, 12, 68, 64
13, 1206720, Note_on_c, 12, 64, 108
13, 1206800, Note_off_c, 12, 64, 64
13, 1206960, Note_on_c, 12, 65, 108
13, 1207040, Note_off_c, 12, 65, 64
13, 1207200, Note_on_c, 12, 60, 108
13, 1207280, Note_off_c, 12, 60, 64
13, 1207440, Note_on_c, 12, 61, 108
13, 1207520, Note_off_c, 12, 61, 64
13, 1207680, Note_on_c, 12, 60, 108
13, 1207760, Note_off_c, 12, 60, 64
13, 1207920, Note_on_c, 12, 60, 108
13, 1208000, Note_off_c, 12, 60, 64
13, 1208160, Note_on_c, 12, 58, 108
13, 1208240, Note_off_c, 12, 58, 64
13, 1208400, Note_on_c, 12, 56, 108
13, 1208800, Note_off_c, 12, 56, 64
13, 1209360, Note_on_c, 12, 68, 108
13, 1210000, Note_off_c, 12, 68, 64
13, 1210080, Note_on_c, 12, 64, 108
13, 1210160, Note_off_c, 12, 64, 64
13, 1210320, Note_on_c, 12, 65, 108
13, 1210400, Note_off_c, 12, 65, 64
13, 1210560, Note_on_c, 12, 60, 108
13, 1210640, Note_off_c, 12, 60, 64
13, 1210800, Note_on_c, 12, 61, 108
13, 1210880, Note_off_c, 12, 61, 64
13, 1211040, Note_on_c, 12, 56, 108
13, 1211120, Note_off_c, 12, 56, 64
13, 1211280, Note_on_c, 12, 58, 108
13, 1211360, Note_off_c, 12, 58, 64
13, 1211520, Note_on_c, 12, 56, 108
13, 1211600, Note_off_c, 12, 56, 64
13, 1211760, Note_on_c, 12, 56, 108
13, 1211840, Note_off_c, 12, 56, 64
13, 1212000, Note_on_c, 12, 55, 108
13, 1212080, Note_off_c, 12, 55, 64
13, 1212240, Note_on_c, 12, 53, 108
13, 1212640, Note_off_c, 12, 53, 64
13, 1213200, Note_on_c, 12, 65, 108
13, 1213840, Note_off_c, 12, 65, 64
13, 1213920, Note_on_c, 12, 60, 108
13, 1214000, Note_off_c, 12, 60, 64
13, 1214160, Note_on_c, 12, 61, 108
13, 1214240, Note_off_c, 12, 61, 64
13, 1214400, Note_on_c, 12, 56, 108
13, 1214480, Note_off_c, 12, 56, 64
13, 1214640, Note_on_c, 12, 58, 108
13, 1214720, Note_off_c, 12, 58, 64
13, 1214880, Note_on_c, 12, 53, 108
13, 1214960, Note_off_c, 12, 53, 64
13, 1215120, Note_on_c, 12, 54, 108
13, 1215200, Note_off_c, 12, 54, 64
13, 1215360, Note_on_c, 12, 53, 108
13, 1215440, Note_off_c, 12, 53, 64
13, 1215600, Note_on_c, 12, 53, 108
13, 1215680, Note_off_c, 12, 53, 64
13, 1215840, Note_on_c, 12, 51, 108
13, 1215920, Note_off_c, 12, 51, 64
13, 1216080, Note_on_c, 12, 49, 30
13, 1216195, Note_off_c, 12, 49, 64
13, 1216200, Note_on_c, 12, 53, 30
13, 1216315, Note_off_c, 12, 53, 64
13, 1216320, Note_on_c, 12, 53, 30
13, 1216435, Note_off_c, 12, 53, 64
13, 1216440, Note_on_c, 12, 53, 30
13, 1216555, Note_off_c, 12, 53, 64
13, 1216560, Note_on_c, 12, 53, 30
13, 1216675, Note_off_c, 12, 53, 64
13, 1216680, Note_on_c, 12, 53, 30
13, 1216795, Note_off_c, 12, 53, 64
13, 1216800, Note_on_c, 12, 53, 30
13, 1216915, Note_off_c, 12, 53, 64
13, 1216920, Note_on_c, 12, 53, 30
13, 1217035, Note_off_c, 12, 53, 64
13, 1217040, Note_on_c, 12, 53, 30
13, 1217155, Note_off_c, 12, 53, 64
13, 1217160, Note_on_c, 12, 53, 30
13, 1217275, Note_off_c, 12, 53, 64
13, 1217280, Note_on_c, 12, 53, 30
13, 1217395, Note_off_c, 12, 53, 64
13, 1217400, Note_on_c, 12, 53, 30
13, 1217515, Note_off_c, 12, 53, 64
13, 1217520, Note_on_c, 12, 53, 30
13, 1217635, Note_off_c, 12, 53, 64
13, 1217640, Note_on_c, 12, 53, 30
13, 1217755, Note_off_c, 12, 53, 64
13, 1217760, Note_on_c, 12, 53, 30
13, 1217875, Note_off_c, 12, 53, 64
13, 1217880, Note_on_c, 12, 53, 30
13, 1217995, Note_off_c, 12, 53, 64
13, 1218000, Note_on_c, 12, 53, 30
13, 1218115, Note_off_c, 12, 53, 64
13, 1218120, Note_on_c, 12, 53, 30
13, 1218235, Note_off_c, 12, 53, 64
13, 1218240, Note_on_c, 12, 53, 30
13, 1218355, Note_off_c, 12, 53, 64
13, 1218360, Note_on_c, 12, 53, 30
13, 1218475, Note_off_c, 12, 53, 64
13, 1218480, Note_on_c, 12, 53, 30
13, 1218595, Note_off_c, 12, 53, 64
13, 1218600, Note_on_c, 12, 53, 30
13, 1218715, Note_off_c, 12, 53, 64
13, 1218720, Note_on_c, 12, 53, 30
13, 1218835, Note_off_c, 12, 53, 64
13, 1218840, Note_on_c, 12, 53, 30
13, 1218955, Note_off_c, 12, 53, 64
13, 1218960, Note_on_c, 12, 53, 30
13, 1219075, Note_off_c, 12, 53, 64
13, 1219080, Note_on_c, 12, 53, 30
13, 1219195, Note_off_c, 12, 53, 64
13, 1219200, Note_on_c, 12, 53, 30
13, 1219315, Note_off_c, 12, 53, 64
13, 1219320, Note_on_c, 12, 53, 30
13, 1219435, Note_off_c, 12, 53, 64
13, 1219440, Note_on_c, 12, 53, 30
13, 1219555, Note_off_c, 12, 53, 64
13, 1219560, Note_on_c, 12, 53, 30
13, 1219675, Note_off_c, 12, 53, 64
13, 1219680, Note_on_c, 12, 53, 30
13, 1219795, Note_off_c, 12, 53, 64
13, 1219800, Note_on_c, 12, 53, 30
13, 1219915, Note_off_c, 12, 53, 64
13, 1219920, Note_on_c, 12, 53, 75
13, 1219920, Note_on_c, 12, 56, 75
13, 1220035, Note_off_c, 12, 56, 64
13, 1220035, Note_off_c, 12, 53, 64
13, 1220040, Note_on_c, 12, 53, 75
13, 1220040, Note_on_c, 12, 56, 75
13, 1220155, Note_off_c, 12, 56, 64
13, 1220155, Note_off_c, 12, 53, 64
13, 1220160, Note_on_c, 12, 53, 75
13, 1220160, Note_on_c, 12, 56, 75
13, 1220275, Note_off_c, 12, 56, 64
13, 1220275, Note_off_c, 12, 53, 64
13, 1220280, Note_on_c, 12, 53, 75
13, 1220280, Note_on_c, 12, 56, 75
13, 1220395, Note_off_c, 12, 56, 64
13, 1220395, Note_off_c, 12, 53, 64
13, 1220400, Note_on_c, 12, 53, 45
13, 1220400, Note_on_c, 12, 56, 45
13, 1220515, Note_off_c, 12, 56, 64
13, 1220515, Note_off_c, 12, 53, 64
13, 1220520, Note_on_c, 12, 53, 45
13, 1220520, Note_on_c, 12, 56, 45
13, 1220635, Note_off_c, 12, 56, 64
13, 1220635, Note_off_c, 12, 53, 64
13, 1220640, Note_on_c, 12, 53, 45
13, 1220640, Note_on_c, 12, 56, 45
13, 1220755, Note_off_c, 12, 56, 64
13, 1220755, Note_off_c, 12, 53, 64
13, 1220760, Note_on_c, 12, 53, 45
13, 1220760, Note_on_c, 12, 56, 45
13, 1220875, Note_off_c, 12, 56, 64
13, 1220875, Note_off_c, 12, 53, 64
13, 1220880, Note_on_c, 12, 53, 45
13, 1220880, Note_on_c, 12, 56, 45
13, 1220995, Note_off_c, 12, 56, 64
13, 1220995, Note_off_c, 12, 53, 64
13, 1221000, Note_on_c, 12, 53, 45
13, 1221000, Note_on_c, 12, 56, 45
13, 1221115, Note_off_c, 12, 56, 64
13, 1221115, Note_off_c, 12, 53, 64
13, 1221120, Note_on_c, 12, 53, 45
13, 1221120, Note_on_c, 12, 56, 45
13, 1221235, Note_off_c, 12, 56, 64
13, 1221235, Note_off_c, 12, 53, 64
13, 1221240, Note_on_c, 12, 53, 45
13, 1221240, Note_on_c, 12, 56, 45
13, 1221355, Note_off_c, 12, 56, 64
13, 1221355, Note_off_c, 12, 53, 64
13, 1221360, Note_on_c, 12, 53, 45
13, 1221360, Note_on_c, 12, 56, 45
13, 1221475, Note_off_c, 12, 56, 64
13, 1221475, Note_off_c, 12, 53, 64
13, 1221480, Note_on_c, 12, 53, 45
13, 1221480, Note_on_c, 12, 56, 45
13, 1221595, Note_off_c, 12, 56, 64
13, 1221595, Note_off_c, 12, 53, 64
13, 1221600, Note_on_c, 12, 53, 45
13, 1221600, Note_on_c, 12, 56, 45
13, 1221715, Note_off_c, 12, 56, 64
13, 1221715, Note_off_c, 12, 53, 64
13, 1221720, Note_on_c, 12, 53, 45
13, 1221720, Note_on_c, 12, 56, 45
13, 1221835, Note_off_c, 12, 56, 64
13, 1221835, Note_off_c, 12, 53, 64
13, 1221840, Note_on_c, 12, 53, 45
13, 1221840, Note_on_c, 12, 56, 45
13, 1221955, Note_off_c, 12, 56, 64
13, 1221955, Note_off_c, 12, 53, 64
13, 1221960, Note_on_c, 12, 53, 45
13, 1221960, Note_on_c, 12, 56, 45
13, 1222075, Note_off_c, 12, 56, 64
13, 1222075, Note_off_c, 12, 53, 64
13, 1222080, Note_on_c, 12, 53, 45
13, 1222080, Note_on_c, 12, 56, 45
13, 1222195, Note_off_c, 12, 56, 64
13, 1222195, Note_off_c, 12, 53, 64
13, 1222200, Note_on_c, 12, 53, 45
13, 1222200, Note_on_c, 12, 56, 45
13, 1222315, Note_off_c, 12, 56, 64
13, 1222315, Note_off_c, 12, 53, 64
13, 1222320, Note_on_c, 12, 53, 45
13, 1222320, Note_on_c, 12, 56, 45
13, 1222435, Note_off_c, 12, 56, 64
13, 1222435, Note_off_c, 12, 53, 64
13, 1222440, Note_on_c, 12, 53, 45
13, 1222440, Note_on_c, 12, 56, 45
13, 1222555, Note_off_c, 12, 56, 64
13, 1222555, Note_off_c, 12, 53, 64
13, 1222560, Note_on_c, 12, 53, 45
13, 1222560, Note_on_c, 12, 56, 45
13, 1222675, Note_off_c, 12, 56, 64
13, 1222675, Note_off_c, 12, 53, 64
13, 1222680, Note_on_c, 12, 53, 45
13, 1222680, Note_on_c, 12, 56, 45
13, 1222795, Note_off_c, 12, 56, 64
13, 1222795, Note_off_c, 12, 53, 64
13, 1222800, Note_on_c, 12, 53, 45
13, 1222800, Note_on_c, 12, 56, 45
13, 1222915, Note_off_c, 12, 56, 64
13, 1222915, Note_off_c, 12, 53, 64
13, 1222920, Note_on_c, 12, 53, 45
13, 1222920, Note_on_c, 12, 56, 45
13, 1223035, Note_off_c, 12, 56, 64
13, 1223035, Note_off_c, 12, 53, 64
13, 1223040, Note_on_c, 12, 53, 45
13, 1223040, Note_on_c, 12, 56, 45
13, 1223155, Note_off_c, 12, 56, 64
13, 1223155, Note_off_c, 12, 53, 64
13, 1223160, Note_on_c, 12, 53, 45
13, 1223160, Note_on_c, 12, 56, 45
13, 1223275, Note_off_c, 12, 56, 64
13, 1223275, Note_off_c, 12, 53, 64
13, 1223280, Note_on_c, 12, 53, 45
13, 1223280, Note_on_c, 12, 56, 45
13, 1223395, Note_off_c, 12, 56, 64
13, 1223395, Note_off_c, 12, 53, 64
13, 1223400, Note_on_c, 12, 53, 45
13, 1223400, Note_on_c, 12, 56, 45
13, 1223515, Note_off_c, 12, 56, 64
13, 1223515, Note_off_c, 12, 53, 64
13, 1223520, Note_on_c, 12, 53, 45
13, 1223520, Note_on_c, 12, 56, 45
13, 1223635, Note_off_c, 12, 56, 64
13, 1223635, Note_off_c, 12, 53, 64
13, 1223640, Note_on_c, 12, 53, 45
13, 1223640, Note_on_c, 12, 56, 45
13, 1223755, Note_off_c, 12, 56, 64
13, 1223755, Note_off_c, 12, 53, 64
13, 1223760, Note_on_c, 12, 53, 45
13, 1223875, Note_off_c, 12, 53, 64
13, 1223880, Note_on_c, 12, 53, 45
13, 1223995, Note_off_c, 12, 53, 64
13, 1224000, Note_on_c, 12, 53, 45
13, 1224115, Note_off_c, 12, 53, 64
13, 1224120, Note_on_c, 12, 53, 45
13, 1224235, Note_off_c, 12, 53, 64
13, 1224240, Note_on_c, 12, 53, 45
13, 1224355, Note_off_c, 12, 53, 64
13, 1224360, Note_on_c, 12, 53, 45
13, 1224475, Note_off_c, 12, 53, 64
13, 1224480, Note_on_c, 12, 53, 45
13, 1224595, Note_off_c, 12, 53, 64
13, 1224600, Note_on_c, 12, 53, 45
13, 1224715, Note_off_c, 12, 53, 64
13, 1224720, Note_on_c, 12, 53, 45
13, 1224835, Note_off_c, 12, 53, 64
13, 1224840, Note_on_c, 12, 53, 45
13, 1224955, Note_off_c, 12, 53, 64
13, 1224960, Note_on_c, 12, 53, 45
13, 1225075, Note_off_c, 12, 53, 64
13, 1225080, Note_on_c, 12, 53, 45
13, 1225195, Note_off_c, 12, 53, 64
13, 1225200, Note_on_c, 12, 53, 45
13, 1225315, Note_off_c, 12, 53, 64
13, 1225320, Note_on_c, 12, 53, 45
13, 1225435, Note_off_c, 12, 53, 64
13, 1225440, Note_on_c, 12, 53, 45
13, 1225555, Note_off_c, 12, 53, 64
13, 1225560, Note_on_c, 12, 53, 45
13, 1225675, Note_off_c, 12, 53, 64
13, 1225680, Note_on_c, 12, 53, 45
13, 1225795, Note_off_c, 12, 53, 64
13, 1225800, Note_on_c, 12, 53, 45
13, 1225915, Note_off_c, 12, 53, 64
13, 1225920, Note_on_c, 12, 53, 45
13, 1226035, Note_off_c, 12, 53, 64
13, 1226040, Note_on_c, 12, 53, 45
13, 1226155, Note_off_c, 12, 53, 64
13, 1226160, Note_on_c, 12, 53, 45
13, 1226275, Note_off_c, 12, 53, 64
13, 1226280, Note_on_c, 12, 53, 45
13, 1226395, Note_off_c, 12, 53, 64
13, 1226400, Note_on_c, 12, 53, 45
13, 1226515, Note_off_c, 12, 53, 64
13, 1226520, Note_on_c, 12, 53, 45
13, 1226635, Note_off_c, 12, 53, 64
13, 1226640, Note_on_c, 12, 53, 45
13, 1226755, Note_off_c, 12, 53, 64
13, 1226760, Note_on_c, 12, 53, 45
13, 1226875, Note_off_c, 12, 53, 64
13, 1226880, Note_on_c, 12, 53, 45
13, 1226995, Note_off_c, 12, 53, 64
13, 1227000, Note_on_c, 12, 53, 45
13, 1227115, Note_off_c, 12, 53, 64
13, 1227120, Note_on_c, 12, 53, 45
13, 1227235, Note_off_c, 12, 53, 64
13, 1227240, Note_on_c, 12, 53, 45
13, 1227355, Note_off_c, 12, 53, 64
13, 1227360, Note_on_c, 12, 53, 45
13, 1227475, Note_off_c, 12, 53, 64
13, 1227480, Note_on_c, 12, 53, 45
13, 1227595, Note_off_c, 12, 53, 64
13, 1227600, Note_on_c, 12, 53, 75
13, 1227600, Note_on_c, 12, 55, 75
13, 1227715, Note_off_c, 12, 55, 64
13, 1227715, Note_off_c, 12, 53, 64
13, 1227720, Note_on_c, 12, 53, 75
13, 1227720, Note_on_c, 12, 55, 75
13, 1227835, Note_off_c, 12, 55, 64
13, 1227835, Note_off_c, 12, 53, 64
13, 1227840, Note_on_c, 12, 53, 75
13, 1227840, Note_on_c, 12, 55, 75
13, 1227955, Note_off_c, 12, 55, 64
13, 1227955, Note_off_c, 12, 53, 64
13, 1227960, Note_on_c, 12, 53, 75
13, 1227960, Note_on_c, 12, 55, 75
13, 1228075, Note_off_c, 12, 55, 64
13, 1228075, Note_off_c, 12, 53, 64
13, 1228080, Note_on_c, 12, 53, 45
13, 1228080, Note_on_c, 12, 55, 45
13, 1228195, Note_off_c, 12, 55, 64
13, 1228195, Note_off_c, 12, 53, 64
13, 1228200, Note_on_c, 12, 53, 45
13, 1228200, Note_on_c, 12, 55, 45
13, 1228315, Note_off_c, 12, 55, 64
13, 1228315, Note_off_c, 12, 53, 64
13, 1228320, Note_on_c, 12, 53, 45
13, 1228320, Note_on_c, 12, 55, 45
13, 1228435, Note_off_c, 12, 55, 64
13, 1228435, Note_off_c, 12, 53, 64
13, 1228440, Note_on_c, 12, 53, 45
13, 1228440, Note_on_c, 12, 55, 45
13, 1228555, Note_off_c, 12, 55, 64
13, 1228555, Note_off_c, 12, 53, 64
13, 1228560, Note_on_c, 12, 53, 45
13, 1228560, Note_on_c, 12, 55, 45
13, 1228675, Note_off_c, 12, 55, 64
13, 1228675, Note_off_c, 12, 53, 64
13, 1228680, Note_on_c, 12, 53, 45
13, 1228680, Note_on_c, 12, 55, 45
13, 1228795, Note_off_c, 12, 55, 64
13, 1228795, Note_off_c, 12, 53, 64
13, 1228800, Note_on_c, 12, 53, 45
13, 1228800, Note_on_c, 12, 55, 45
13, 1228915, Note_off_c, 12, 55, 64
13, 1228915, Note_off_c, 12, 53, 64
13, 1228920, Note_on_c, 12, 53, 45
13, 1228920, Note_on_c, 12, 55, 45
13, 1229035, Note_off_c, 12, 55, 64
13, 1229035, Note_off_c, 12, 53, 64
13, 1229040, Note_on_c, 12, 53, 45
13, 1229040, Note_on_c, 12, 55, 45
13, 1229155, Note_off_c, 12, 55, 64
13, 1229155, Note_off_c, 12, 53, 64
13, 1229160, Note_on_c, 12, 53, 45
13, 1229160, Note_on_c, 12, 55, 45
13, 1229275, Note_off_c, 12, 55, 64
13, 1229275, Note_off_c, 12, 53, 64
13, 1229280, Note_on_c, 12, 53, 45
13, 1229280, Note_on_c, 12, 55, 45
13, 1229395, Note_off_c, 12, 55, 64
13, 1229395, Note_off_c, 12, 53, 64
13, 1229400, Note_on_c, 12, 53, 45
13, 1229400, Note_on_c, 12, 55, 45
13, 1229515, Note_off_c, 12, 55, 64
13, 1229515, Note_off_c, 12, 53, 64
13, 1229520, Note_on_c, 12, 53, 45
13, 1229520, Note_on_c, 12, 55, 45
13, 1229635, Note_off_c, 12, 55, 64
13, 1229635, Note_off_c, 12, 53, 64
13, 1229640, Note_on_c, 12, 53, 45
13, 1229640, Note_on_c, 12, 55, 45
13, 1229755, Note_off_c, 12, 55, 64
13, 1229755, Note_off_c, 12, 53, 64
13, 1229760, Note_on_c, 12, 53, 45
13, 1229760, Note_on_c, 12, 55, 45
13, 1229875, Note_off_c, 12, 55, 64
13, 1229875, Note_off_c, 12, 53, 64
13, 1229880, Note_on_c, 12, 53, 45
13, 1229880, Note_on_c, 12, 55, 45
13, 1229995, Note_off_c, 12, 55, 64
13, 1229995, Note_off_c, 12, 53, 64
13, 1230000, Note_on_c, 12, 53, 45
13, 1230000, Note_on_c, 12, 55, 45
13, 1230115, Note_off_c, 12, 55, 64
13, 1230115, Note_off_c, 12, 53, 64
13, 1230120, Note_on_c, 12, 53, 45
13, 1230120, Note_on_c, 12, 55, 45
13, 1230235, Note_off_c, 12, 55, 64
13, 1230235, Note_off_c, 12, 53, 64
13, 1230240, Note_on_c, 12, 53, 45
13, 1230240, Note_on_c, 12, 55, 45
13, 1230355, Note_off_c, 12, 55, 64
13, 1230355, Note_off_c, 12, 53, 64
13, 1230360, Note_on_c, 12, 53, 45
13, 1230360, Note_on_c, 12, 55, 45
13, 1230475, Note_off_c, 12, 55, 64
13, 1230475, Note_off_c, 12, 53, 64
13, 1230480, Note_on_c, 12, 53, 45
13, 1230480, Note_on_c, 12, 55, 45
13, 1230595, Note_off_c, 12, 55, 64
13, 1230595, Note_off_c, 12, 53, 64
13, 1230600, Note_on_c, 12, 53, 45
13, 1230600, Note_on_c, 12, 55, 45
13, 1230715, Note_off_c, 12, 55, 64
13, 1230715, Note_off_c, 12, 53, 64
13, 1230720, Note_on_c, 12, 53, 45
13, 1230720, Note_on_c, 12, 55, 45
13, 1230835, Note_off_c, 12, 55, 64
13, 1230835, Note_off_c, 12, 53, 64
13, 1230840, Note_on_c, 12, 53, 45
13, 1230840, Note_on_c, 12, 55, 45
13, 1230955, Note_off_c, 12, 55, 64
13, 1230955, Note_off_c, 12, 53, 64
13, 1230960, Note_on_c, 12, 53, 45
13, 1230960, Note_on_c, 12, 55, 45
13, 1231075, Note_off_c, 12, 55, 64
13, 1231075, Note_off_c, 12, 53, 64
13, 1231080, Note_on_c, 12, 53, 45
13, 1231080, Note_on_c, 12, 55, 45
13, 1231195, Note_off_c, 12, 55, 64
13, 1231195, Note_off_c, 12, 53, 64
13, 1231200, Note_on_c, 12, 53, 45
13, 1231200, Note_on_c, 12, 55, 45
13, 1231315, Note_off_c, 12, 55, 64
13, 1231315, Note_off_c, 12, 53, 64
13, 1231320, Note_on_c, 12, 53, 45
13, 1231320, Note_on_c, 12, 55, 45
13, 1231435, Note_off_c, 12, 55, 64
13, 1231435, Note_off_c, 12, 53, 64
13, 1231440, Note_on_c, 12, 51, 45
13, 1231440, Note_on_c, 12, 55, 45
13, 1231555, Note_off_c, 12, 55, 64
13, 1231555, Note_off_c, 12, 51, 64
13, 1231560, Note_on_c, 12, 51, 45
13, 1231560, Note_on_c, 12, 55, 45
13, 1231675, Note_off_c, 12, 55, 64
13, 1231675, Note_off_c, 12, 51, 64
13, 1231680, Note_on_c, 12, 51, 45
13, 1231680, Note_on_c, 12, 55, 45
13, 1231795, Note_off_c, 12, 55, 64
13, 1231795, Note_off_c, 12, 51, 64
13, 1231800, Note_on_c, 12, 51, 45
13, 1231800, Note_on_c, 12, 55, 45
13, 1231915, Note_off_c, 12, 55, 64
13, 1231915, Note_off_c, 12, 51, 64
13, 1231920, Note_on_c, 12, 51, 45
13, 1231920, Note_on_c, 12, 55, 45
13, 1232035, Note_off_c, 12, 55, 64
13, 1232035, Note_off_c, 12, 51, 64
13, 1232040, Note_on_c, 12, 51, 46
13, 1232040, Note_on_c, 12, 55, 46
13, 1232155, Note_off_c, 12, 55, 64
13, 1232155, Note_off_c, 12, 51, 64
13, 1232160, Note_on_c, 12, 51, 47
13, 1232160, Note_on_c, 12, 55, 47
13, 1232275, Note_off_c, 12, 55, 64
13, 1232275, Note_off_c, 12, 51, 64
13, 1232280, Note_on_c, 12, 51, 48
13, 1232280, Note_on_c, 12, 55, 48
13, 1232395, Note_off_c, 12, 55, 64
13, 1232395, Note_off_c, 12, 51, 64
13, 1232400, Note_on_c, 12, 51, 49
13, 1232400, Note_on_c, 12, 55, 49
13, 1232515, Note_off_c, 12, 55, 64
13, 1232515, Note_off_c, 12, 51, 64
13, 1232520, Note_on_c, 12, 51, 50
13, 1232520, Note_on_c, 12, 55, 50
13, 1232635, Note_off_c, 12, 55, 64
13, 1232635, Note_off_c, 12, 51, 64
13, 1232640, Note_on_c, 12, 51, 51
13, 1232640, Note_on_c, 12, 55, 51
13, 1232755, Note_off_c, 12, 55, 64
13, 1232755, Note_off_c, 12, 51, 64
13, 1232760, Note_on_c, 12, 51, 52
13, 1232760, Note_on_c, 12, 55, 52
13, 1232875, Note_off_c, 12, 55, 64
13, 1232875, Note_off_c, 12, 51, 64
13, 1232880, Note_on_c, 12, 51, 53
13, 1232880, Note_on_c, 12, 55, 53
13, 1232995, Note_off_c, 12, 55, 64
13, 1232995, Note_off_c, 12, 51, 64
13, 1233000, Note_on_c, 12, 51, 54
13, 1233000, Note_on_c, 12, 55, 54
13, 1233115, Note_off_c, 12, 55, 64
13, 1233115, Note_off_c, 12, 51, 64
13, 1233120, Note_on_c, 12, 51, 56
13, 1233120, Note_on_c, 12, 55, 56
13, 1233235, Note_off_c, 12, 55, 64
13, 1233235, Note_off_c, 12, 51, 64
13, 1233240, Note_on_c, 12, 51, 58
13, 1233240, Note_on_c, 12, 55, 58
13, 1233355, Note_off_c, 12, 55, 64
13, 1233355, Note_off_c, 12, 51, 64
13, 1233360, Note_on_c, 12, 51, 60
13, 1233360, Note_on_c, 12, 55, 60
13, 1233475, Note_off_c, 12, 55, 64
13, 1233475, Note_off_c, 12, 51, 64
13, 1233480, Note_on_c, 12, 51, 62
13, 1233480, Note_on_c, 12, 55, 62
13, 1233595, Note_off_c, 12, 55, 64
13, 1233595, Note_off_c, 12, 51, 64
13, 1233600, Note_on_c, 12, 51, 64
13, 1233600, Note_on_c, 12, 55, 64
13, 1233715, Note_off_c, 12, 55, 64
13, 1233715, Note_off_c, 12, 51, 64
13, 1233720, Note_on_c, 12, 51, 66
13, 1233720, Note_on_c, 12, 55, 66
13, 1233835, Note_off_c, 12, 55, 64
13, 1233835, Note_off_c, 12, 51, 64
13, 1233840, Note_on_c, 12, 51, 68
13, 1233840, Note_on_c, 12, 55, 68
13, 1233955, Note_off_c, 12, 55, 64
13, 1233955, Note_off_c, 12, 51, 64
13, 1233960, Note_on_c, 12, 51, 70
13, 1233960, Note_on_c, 12, 55, 70
13, 1234075, Note_off_c, 12, 55, 64
13, 1234075, Note_off_c, 12, 51, 64
13, 1234080, Note_on_c, 12, 51, 72
13, 1234080, Note_on_c, 12, 55, 72
13, 1234195, Note_off_c, 12, 55, 64
13, 1234195, Note_off_c, 12, 51, 64
13, 1234200, Note_on_c, 12, 51, 74
13, 1234200, Note_on_c, 12, 55, 74
13, 1234315, Note_off_c, 12, 55, 64
13, 1234315, Note_off_c, 12, 51, 64
13, 1234320, Note_on_c, 12, 51, 76
13, 1234320, Note_on_c, 12, 55, 76
13, 1234435, Note_off_c, 12, 55, 64
13, 1234435, Note_off_c, 12, 51, 64
13, 1234440, Note_on_c, 12, 51, 78
13, 1234440, Note_on_c, 12, 55, 78
13, 1234555, Note_off_c, 12, 55, 64
13, 1234555, Note_off_c, 12, 51, 64
13, 1234560, Note_on_c, 12, 51, 80
13, 1234560, Note_on_c, 12, 55, 80
13, 1234675, Note_off_c, 12, 55, 64
13, 1234675, Note_off_c, 12, 51, 64
13, 1234680, Note_on_c, 12, 51, 82
13, 1234680, Note_on_c, 12, 55, 82
13, 1234795, Note_off_c, 12, 55, 64
13, 1234795, Note_off_c, 12, 51, 64
13, 1234800, Note_on_c, 12, 51, 84
13, 1234800, Note_on_c, 12, 55, 84
13, 1234915, Note_off_c, 12, 55, 64
13, 1234915, Note_off_c, 12, 51, 64
13, 1234920, Note_on_c, 12, 51, 86
13, 1234920, Note_on_c, 12, 55, 86
13, 1235035, Note_off_c, 12, 55, 64
13, 1235035, Note_off_c, 12, 51, 64
13, 1235040, Note_on_c, 12, 51, 88
13, 1235040, Note_on_c, 12, 55, 88
13, 1235155, Note_off_c, 12, 55, 64
13, 1235155, Note_off_c, 12, 51, 64
13, 1235160, Note_on_c, 12, 51, 90
13, 1235160, Note_on_c, 12, 55, 90
13, 1235275, Note_off_c, 12, 55, 64
13, 1235275, Note_off_c, 12, 51, 64
13, 1235280, Note_on_c, 12, 54, 92
13, 1235280, Note_on_c, 12, 63, 92
13, 1235395, Note_off_c, 12, 63, 64
13, 1235395, Note_off_c, 12, 54, 64
13, 1235400, Note_on_c, 12, 54, 92
13, 1235400, Note_on_c, 12, 63, 92
13, 1235515, Note_off_c, 12, 63, 64
13, 1235515, Note_off_c, 12, 54, 64
13, 1235520, Note_on_c, 12, 54, 92
13, 1235520, Note_on_c, 12, 63, 92
13, 1235635, Note_off_c, 12, 63, 64
13, 1235635, Note_off_c, 12, 54, 64
13, 1235640, Note_on_c, 12, 54, 92
13, 1235640, Note_on_c, 12, 63, 92
13, 1235755, Note_off_c, 12, 63, 64
13, 1235755, Note_off_c, 12, 54, 64
13, 1235760, Note_on_c, 12, 54, 92
13, 1235760, Note_on_c, 12, 63, 92
13, 1235875, Note_off_c, 12, 63, 64
13, 1235875, Note_off_c, 12, 54, 64
13, 1235880, Note_on_c, 12, 54, 92
13, 1235880, Note_on_c, 12, 63, 92
13, 1235995, Note_off_c, 12, 63, 64
13, 1235995, Note_off_c, 12, 54, 64
13, 1236000, Note_on_c, 12, 54, 92
13, 1236000, Note_on_c, 12, 63, 92
13, 1236115, Note_off_c, 12, 63, 64
13, 1236115, Note_off_c, 12, 54, 64
13, 1236120, Note_on_c, 12, 54, 92
13, 1236120, Note_on_c, 12, 63, 92
13, 1236235, Note_off_c, 12, 63, 64
13, 1236235, Note_off_c, 12, 54, 64
13, 1236240, Note_on_c, 12, 54, 92
13, 1236240, Note_on_c, 12, 63, 92
13, 1236355, Note_off_c, 12, 63, 64
13, 1236355, Note_off_c, 12, 54, 64
13, 1236360, Note_on_c, 12, 54, 92
13, 1236360, Note_on_c, 12, 63, 92
13, 1236475, Note_off_c, 12, 63, 64
13, 1236475, Note_off_c, 12, 54, 64
13, 1236480, Note_on_c, 12, 54, 92
13, 1236480, Note_on_c, 12, 63, 92
13, 1236595, Note_off_c, 12, 63, 64
13, 1236595, Note_off_c, 12, 54, 64
13, 1236600, Note_on_c, 12, 54, 92
13, 1236600, Note_on_c, 12, 63, 92
13, 1236715, Note_off_c, 12, 63, 64
13, 1236715, Note_off_c, 12, 54, 64
13, 1236720, Note_on_c, 12, 54, 92
13, 1236720, Note_on_c, 12, 63, 92
13, 1236835, Note_off_c, 12, 63, 64
13, 1236835, Note_off_c, 12, 54, 64
13, 1236840, Note_on_c, 12, 54, 92
13, 1236840, Note_on_c, 12, 63, 92
13, 1236955, Note_off_c, 12, 63, 64
13, 1236955, Note_off_c, 12, 54, 64
13, 1236960, Note_on_c, 12, 54, 92
13, 1236960, Note_on_c, 12, 63, 92
13, 1237075, Note_off_c, 12, 63, 64
13, 1237075, Note_off_c, 12, 54, 64
13, 1237080, Note_on_c, 12, 54, 92
13, 1237080, Note_on_c, 12, 63, 92
13, 1237195, Note_off_c, 12, 63, 64
13, 1237195, Note_off_c, 12, 54, 64
13, 1237200, Note_on_c, 12, 53, 92
13, 1237200, Note_on_c, 12, 63, 92
13, 1237315, Note_off_c, 12, 63, 64
13, 1237315, Note_off_c, 12, 53, 64
13, 1237320, Note_on_c, 12, 53, 92
13, 1237320, Note_on_c, 12, 63, 92
13, 1237435, Note_off_c, 12, 63, 64
13, 1237435, Note_off_c, 12, 53, 64
13, 1237440, Note_on_c, 12, 53, 92
13, 1237440, Note_on_c, 12, 63, 92
13, 1237555, Note_off_c, 12, 63, 64
13, 1237555, Note_off_c, 12, 53, 64
13, 1237560, Note_on_c, 12, 53, 92
13, 1237560, Note_on_c, 12, 63, 92
13, 1237675, Note_off_c, 12, 63, 64
13, 1237675, Note_off_c, 12, 53, 64
13, 1237680, Note_on_c, 12, 53, 92
13, 1237680, Note_on_c, 12, 63, 92
13, 1237795, Note_off_c, 12, 63, 64
13, 1237795, Note_off_c, 12, 53, 64
13, 1237800, Note_on_c, 12, 53, 92
13, 1237800, Note_on_c, 12, 63, 92
13, 1237915, Note_off_c, 12, 63, 64
13, 1237915, Note_off_c, 12, 53, 64
13, 1237920, Note_on_c, 12, 53, 92
13, 1237920, Note_on_c, 12, 63, 92
13, 1238035, Note_off_c, 12, 63, 64
13, 1238035, Note_off_c, 12, 53, 64
13, 1238040, Note_on_c, 12, 53, 92
13, 1238040, Note_on_c, 12, 63, 92
13, 1238155, Note_off_c, 12, 63, 64
13, 1238155, Note_off_c, 12, 53, 64
13, 1238160, Note_on_c, 12, 53, 92
13, 1238160, Note_on_c, 12, 63, 92
13, 1238275, Note_off_c, 12, 63, 64
13, 1238275, Note_off_c, 12, 53, 64
13, 1238280, Note_on_c, 12, 53, 92
13, 1238280, Note_on_c, 12, 63, 92
13, 1238395, Note_off_c, 12, 63, 64
13, 1238395, Note_off_c, 12, 53, 64
13, 1238400, Note_on_c, 12, 53, 92
13, 1238400, Note_on_c, 12, 63, 92
13, 1238515, Note_off_c, 12, 63, 64
13, 1238515, Note_off_c, 12, 53, 64
13, 1238520, Note_on_c, 12, 53, 92
13, 1238520, Note_on_c, 12, 63, 92
13, 1238635, Note_off_c, 12, 63, 64
13, 1238635, Note_off_c, 12, 53, 64
13, 1238640, Note_on_c, 12, 53, 92
13, 1238640, Note_on_c, 12, 63, 92
13, 1238755, Note_off_c, 12, 63, 64
13, 1238755, Note_off_c, 12, 53, 64
13, 1238760, Note_on_c, 12, 53, 92
13, 1238760, Note_on_c, 12, 63, 92
13, 1238875, Note_off_c, 12, 63, 64
13, 1238875, Note_off_c, 12, 53, 64
13, 1238880, Note_on_c, 12, 53, 92
13, 1238880, Note_on_c, 12, 63, 92
13, 1238995, Note_off_c, 12, 63, 64
13, 1238995, Note_off_c, 12, 53, 64
13, 1239000, Note_on_c, 12, 53, 92
13, 1239000, Note_on_c, 12, 63, 92
13, 1239115, Note_off_c, 12, 63, 64
13, 1239115, Note_off_c, 12, 53, 64
13, 1239120, Note_on_c, 12, 53, 92
13, 1239120, Note_on_c, 12, 61, 92
13, 1239235, Note_off_c, 12, 61, 64
13, 1239235, Note_off_c, 12, 53, 64
13, 1239240, Note_on_c, 12, 53, 92
13, 1239240, Note_on_c, 12, 61, 92
13, 1239355, Note_off_c, 12, 61, 64
13, 1239355, Note_off_c, 12, 53, 64
13, 1239360, Note_on_c, 12, 53, 92
13, 1239360, Note_on_c, 12, 61, 92
13, 1239475, Note_off_c, 12, 61, 64
13, 1239475, Note_off_c, 12, 53, 64
13, 1239480, Note_on_c, 12, 53, 92
13, 1239480, Note_on_c, 12, 61, 92
13, 1239595, Note_off_c, 12, 61, 64
13, 1239595, Note_off_c, 12, 53, 64
13, 1239600, Note_on_c, 12, 53, 92
13, 1239600, Note_on_c, 12, 61, 92
13, 1239715, Note_off_c, 12, 61, 64
13, 1239715, Note_off_c, 12, 53, 64
13, 1239720, Note_on_c, 12, 53, 92
13, 1239720, Note_on_c, 12, 61, 92
13, 1239835, Note_off_c, 12, 61, 64
13, 1239835, Note_off_c, 12, 53, 64
13, 1239840, Note_on_c, 12, 53, 92
13, 1239840, Note_on_c, 12, 61, 92
13, 1239955, Note_off_c, 12, 61, 64
13, 1239955, Note_off_c, 12, 53, 64
13, 1239960, Note_on_c, 12, 53, 92
13, 1239960, Note_on_c, 12, 61, 92
13, 1240075, Note_off_c, 12, 61, 64
13, 1240075, Note_off_c, 12, 53, 64
13, 1240080, Note_on_c, 12, 53, 92
13, 1240080, Note_on_c, 12, 61, 92
13, 1240195, Note_off_c, 12, 61, 64
13, 1240195, Note_off_c, 12, 53, 64
13, 1240200, Note_on_c, 12, 53, 92
13, 1240200, Note_on_c, 12, 61, 92
13, 1240315, Note_off_c, 12, 61, 64
13, 1240315, Note_off_c, 12, 53, 64
13, 1240320, Note_on_c, 12, 53, 92
13, 1240320, Note_on_c, 12, 61, 92
13, 1240435, Note_off_c, 12, 61, 64
13, 1240435, Note_off_c, 12, 53, 64
13, 1240440, Note_on_c, 12, 53, 92
13, 1240440, Note_on_c, 12, 61, 92
13, 1240555, Note_off_c, 12, 61, 64
13, 1240555, Note_off_c, 12, 53, 64
13, 1240560, Note_on_c, 12, 53, 92
13, 1240560, Note_on_c, 12, 61, 92
13, 1240675, Note_off_c, 12, 61, 64
13, 1240675, Note_off_c, 12, 53, 64
13, 1240680, Note_on_c, 12, 53, 92
13, 1240680, Note_on_c, 12, 61, 92
13, 1240795, Note_off_c, 12, 61, 64
13, 1240795, Note_off_c, 12, 53, 64
13, 1240800, Note_on_c, 12, 53, 92
13, 1240800, Note_on_c, 12, 61, 92
13, 1240915, Note_off_c, 12, 61, 64
13, 1240915, Note_off_c, 12, 53, 64
13, 1240920, Note_on_c, 12, 53, 92
13, 1240920, Note_on_c, 12, 61, 92
13, 1241035, Note_off_c, 12, 61, 64
13, 1241035, Note_off_c, 12, 53, 64
13, 1241040, Note_on_c, 12, 55, 92
13, 1241040, Note_on_c, 12, 65, 92
13, 1241155, Note_off_c, 12, 65, 64
13, 1241155, Note_off_c, 12, 55, 64
13, 1241160, Note_on_c, 12, 55, 92
13, 1241160, Note_on_c, 12, 65, 92
13, 1241275, Note_off_c, 12, 65, 64
13, 1241275, Note_off_c, 12, 55, 64
13, 1241280, Note_on_c, 12, 55, 92
13, 1241280, Note_on_c, 12, 65, 92
13, 1241395, Note_off_c, 12, 65, 64
13, 1241395, Note_off_c, 12, 55, 64
13, 1241400, Note_on_c, 12, 55, 92
13, 1241400, Note_on_c, 12, 65, 92
13, 1241515, Note_off_c, 12, 65, 64
13, 1241515, Note_off_c, 12, 55, 64
13, 1241520, Note_on_c, 12, 55, 92
13, 1241520, Note_on_c, 12, 65, 92
13, 1241635, Note_off_c, 12, 65, 64
13, 1241635, Note_off_c, 12, 55, 64
13, 1241640, Note_on_c, 12, 55, 92
13, 1241640, Note_on_c, 12, 65, 92
13, 1241755, Note_off_c, 12, 65, 64
13, 1241755, Note_off_c, 12, 55, 64
13, 1241760, Note_on_c, 12, 55, 92
13, 1241760, Note_on_c, 12, 65, 92
13, 1241875, Note_off_c, 12, 65, 64
13, 1241875, Note_off_c, 12, 55, 64
13, 1241880, Note_on_c, 12, 55, 92
13, 1241880, Note_on_c, 12, 65, 92
13, 1241995, Note_off_c, 12, 65, 64
13, 1241995, Note_off_c, 12, 55, 64
13, 1242000, Note_on_c, 12, 55, 92
13, 1242000, Note_on_c, 12, 65, 92
13, 1242115, Note_off_c, 12, 65, 64
13, 1242115, Note_off_c, 12, 55, 64
13, 1242120, Note_on_c, 12, 55, 92
13, 1242120, Note_on_c, 12, 65, 92
13, 1242235, Note_off_c, 12, 65, 64
13, 1242235, Note_off_c, 12, 55, 64
13, 1242240, Note_on_c, 12, 55, 92
13, 1242240, Note_on_c, 12, 65, 92
13, 1242355, Note_off_c, 12, 65, 64
13, 1242355, Note_off_c, 12, 55, 64
13, 1242360, Note_on_c, 12, 55, 92
13, 1242360, Note_on_c, 12, 65, 92
13, 1242475, Note_off_c, 12, 65, 64
13, 1242475, Note_off_c, 12, 55, 64
13, 1242480, Note_on_c, 12, 55, 92
13, 1242480, Note_on_c, 12, 65, 92
13, 1242595, Note_off_c, 12, 65, 64
13, 1242595, Note_off_c, 12, 55, 64
13, 1242600, Note_on_c, 12, 55, 92
13, 1242600, Note_on_c, 12, 65, 92
13, 1242715, Note_off_c, 12, 65, 64
13, 1242715, Note_off_c, 12, 55, 64
13, 1242720, Note_on_c, 12, 55, 92
13, 1242720, Note_on_c, 12, 65, 92
13, 1242835, Note_off_c, 12, 65, 64
13, 1242835, Note_off_c, 12, 55, 64
13, 1242840, Note_on_c, 12, 55, 92
13, 1242840, Note_on_c, 12, 65, 92
13, 1242955, Note_off_c, 12, 65, 64
13, 1242955, Note_off_c, 12, 55, 64
13, 1242960, Note_on_c, 12, 60, 92
13, 1242960, Note_on_c, 12, 67, 92
13, 1243075, Note_off_c, 12, 67, 64
13, 1243075, Note_off_c, 12, 60, 64
13, 1243080, Note_on_c, 12, 60, 92
13, 1243080, Note_on_c, 12, 67, 92
13, 1243195, Note_off_c, 12, 67, 64
13, 1243195, Note_off_c, 12, 60, 64
13, 1243200, Note_on_c, 12, 60, 92
13, 1243200, Note_on_c, 12, 67, 92
13, 1243315, Note_off_c, 12, 67, 64
13, 1243315, Note_off_c, 12, 60, 64
13, 1243320, Note_on_c, 12, 60, 92
13, 1243320, Note_on_c, 12, 67, 92
13, 1243435, Note_off_c, 12, 67, 64
13, 1243435, Note_off_c, 12, 60, 64
13, 1243440, Note_on_c, 12, 60, 92
13, 1243440, Note_on_c, 12, 67, 92
13, 1243555, Note_off_c, 12, 67, 64
13, 1243555, Note_off_c, 12, 60, 64
13, 1243560, Note_on_c, 12, 60, 92
13, 1243560, Note_on_c, 12, 67, 92
13, 1243675, Note_off_c, 12, 67, 64
13, 1243675, Note_off_c, 12, 60, 64
13, 1243680, Note_on_c, 12, 60, 92
13, 1243680, Note_on_c, 12, 67, 92
13, 1243795, Note_off_c, 12, 67, 64
13, 1243795, Note_off_c, 12, 60, 64
13, 1243800, Note_on_c, 12, 60, 92
13, 1243800, Note_on_c, 12, 67, 92
13, 1243915, Note_off_c, 12, 67, 64
13, 1243915, Note_off_c, 12, 60, 64
13, 1243920, Note_on_c, 12, 58, 92
13, 1243920, Note_on_c, 12, 67, 92
13, 1244035, Note_off_c, 12, 67, 64
13, 1244035, Note_off_c, 12, 58, 64
13, 1244040, Note_on_c, 12, 58, 92
13, 1244040, Note_on_c, 12, 67, 92
13, 1244155, Note_off_c, 12, 67, 64
13, 1244155, Note_off_c, 12, 58, 64
13, 1244160, Note_on_c, 12, 58, 92
13, 1244160, Note_on_c, 12, 67, 92
13, 1244275, Note_off_c, 12, 67, 64
13, 1244275, Note_off_c, 12, 58, 64
13, 1244280, Note_on_c, 12, 58, 92
13, 1244280, Note_on_c, 12, 67, 92
13, 1244395, Note_off_c, 12, 67, 64
13, 1244395, Note_off_c, 12, 58, 64
13, 1244400, Note_on_c, 12, 58, 92
13, 1244400, Note_on_c, 12, 67, 92
13, 1244515, Note_off_c, 12, 67, 64
13, 1244515, Note_off_c, 12, 58, 64
13, 1244520, Note_on_c, 12, 58, 92
13, 1244520, Note_on_c, 12, 67, 92
13, 1244635, Note_off_c, 12, 67, 64
13, 1244635, Note_off_c, 12, 58, 64
13, 1244640, Note_on_c, 12, 58, 92
13, 1244640, Note_on_c, 12, 67, 92
13, 1244755, Note_off_c, 12, 67, 64
13, 1244755, Note_off_c, 12, 58, 64
13, 1244760, Note_on_c, 12, 58, 92
13, 1244760, Note_on_c, 12, 67, 92
13, 1244875, Note_off_c, 12, 67, 64
13, 1244875, Note_off_c, 12, 58, 64
13, 1244880, Note_on_c, 12, 57, 92
13, 1244995, Note_off_c, 12, 57, 64
13, 1245000, Note_on_c, 12, 57, 45
13, 1245115, Note_off_c, 12, 57, 64
13, 1245120, Note_on_c, 12, 57, 45
13, 1245235, Note_off_c, 12, 57, 64
13, 1245240, Note_on_c, 12, 57, 45
13, 1245355, Note_off_c, 12, 57, 64
13, 1245360, Note_on_c, 12, 57, 45
13, 1245475, Note_off_c, 12, 57, 64
13, 1245480, Note_on_c, 12, 57, 45
13, 1245595, Note_off_c, 12, 57, 64
13, 1245600, Note_on_c, 12, 57, 45
13, 1245715, Note_off_c, 12, 57, 64
13, 1245720, Note_on_c, 12, 57, 45
13, 1245835, Note_off_c, 12, 57, 64
13, 1245840, Note_on_c, 12, 57, 45
13, 1245955, Note_off_c, 12, 57, 64
13, 1245960, Note_on_c, 12, 57, 45
13, 1246075, Note_off_c, 12, 57, 64
13, 1246080, Note_on_c, 12, 57, 45
13, 1246195, Note_off_c, 12, 57, 64
13, 1246200, Note_on_c, 12, 57, 45
13, 1246315, Note_off_c, 12, 57, 64
13, 1246320, Note_on_c, 12, 57, 45
13, 1246435, Note_off_c, 12, 57, 64
13, 1246440, Note_on_c, 12, 57, 45
13, 1246555, Note_off_c, 12, 57, 64
13, 1246560, Note_on_c, 12, 57, 45
13, 1246675, Note_off_c, 12, 57, 64
13, 1246680, Note_on_c, 12, 57, 45
13, 1246795, Note_off_c, 12, 57, 64
13, 1246800, Note_on_c, 12, 57, 45
13, 1246915, Note_off_c, 12, 57, 64
13, 1246920, Note_on_c, 12, 57, 45
13, 1247035, Note_off_c, 12, 57, 64
13, 1247040, Note_on_c, 12, 57, 45
13, 1247155, Note_off_c, 12, 57, 64
13, 1247160, Note_on_c, 12, 57, 45
13, 1247275, Note_off_c, 12, 57, 64
13, 1247280, Note_on_c, 12, 57, 45
13, 1247395, Note_off_c, 12, 57, 64
13, 1247400, Note_on_c, 12, 57, 45
13, 1247515, Note_off_c, 12, 57, 64
13, 1247520, Note_on_c, 12, 57, 45
13, 1247635, Note_off_c, 12, 57, 64
13, 1247640, Note_on_c, 12, 57, 45
13, 1247755, Note_off_c, 12, 57, 64
13, 1247760, Note_on_c, 12, 57, 45
13, 1247875, Note_off_c, 12, 57, 64
13, 1247880, Note_on_c, 12, 57, 45
13, 1247995, Note_off_c, 12, 57, 64
13, 1248000, Note_on_c, 12, 57, 45
13, 1248115, Note_off_c, 12, 57, 64
13, 1248120, Note_on_c, 12, 57, 45
13, 1248235, Note_off_c, 12, 57, 64
13, 1248240, Note_on_c, 12, 57, 45
13, 1248355, Note_off_c, 12, 57, 64
13, 1248360, Note_on_c, 12, 57, 45
13, 1248475, Note_off_c, 12, 57, 64
13, 1248480, Note_on_c, 12, 57, 45
13, 1248595, Note_off_c, 12, 57, 64
13, 1248600, Note_on_c, 12, 57, 45
13, 1248715, Note_off_c, 12, 57, 64
13, 1248720, Note_on_c, 12, 55, 45
13, 1248720, Note_on_c, 12, 58, 45
13, 1248835, Note_off_c, 12, 58, 64
13, 1248835, Note_off_c, 12, 55, 64
13, 1248840, Note_on_c, 12, 55, 45
13, 1248840, Note_on_c, 12, 58, 45
13, 1248955, Note_off_c, 12, 58, 64
13, 1248955, Note_off_c, 12, 55, 64
13, 1248960, Note_on_c, 12, 55, 45
13, 1248960, Note_on_c, 12, 58, 45
13, 1249075, Note_off_c, 12, 58, 64
13, 1249075, Note_off_c, 12, 55, 64
13, 1249080, Note_on_c, 12, 55, 45
13, 1249080, Note_on_c, 12, 58, 45
13, 1249195, Note_off_c, 12, 58, 64
13, 1249195, Note_off_c, 12, 55, 64
13, 1249200, Note_on_c, 12, 55, 45
13, 1249200, Note_on_c, 12, 58, 45
13, 1249315, Note_off_c, 12, 58, 64
13, 1249315, Note_off_c, 12, 55, 64
13, 1249320, Note_on_c, 12, 55, 45
13, 1249320, Note_on_c, 12, 58, 45
13, 1249435, Note_off_c, 12, 58, 64
13, 1249435, Note_off_c, 12, 55, 64
13, 1249440, Note_on_c, 12, 55, 45
13, 1249440, Note_on_c, 12, 58, 45
13, 1249555, Note_off_c, 12, 58, 64
13, 1249555, Note_off_c, 12, 55, 64
13, 1249560, Note_on_c, 12, 55, 45
13, 1249560, Note_on_c, 12, 58, 45
13, 1249675, Note_off_c, 12, 58, 64
13, 1249675, Note_off_c, 12, 55, 64
13, 1249680, Note_on_c, 12, 55, 45
13, 1249680, Note_on_c, 12, 58, 45
13, 1249795, Note_off_c, 12, 58, 64
13, 1249795, Note_off_c, 12, 55, 64
13, 1249800, Note_on_c, 12, 55, 45
13, 1249800, Note_on_c, 12, 58, 45
13, 1249915, Note_off_c, 12, 58, 64
13, 1249915, Note_off_c, 12, 55, 64
13, 1249920, Note_on_c, 12, 55, 45
13, 1249920, Note_on_c, 12, 58, 45
13, 1250035, Note_off_c, 12, 58, 64
13, 1250035, Note_off_c, 12, 55, 64
13, 1250040, Note_on_c, 12, 55, 45
13, 1250040, Note_on_c, 12, 58, 45
13, 1250155, Note_off_c, 12, 58, 64
13, 1250155, Note_off_c, 12, 55, 64
13, 1250160, Note_on_c, 12, 55, 45
13, 1250160, Note_on_c, 12, 58, 45
13, 1250275, Note_off_c, 12, 58, 64
13, 1250275, Note_off_c, 12, 55, 64
13, 1250280, Note_on_c, 12, 55, 45
13, 1250280, Note_on_c, 12, 58, 45
13, 1250395, Note_off_c, 12, 58, 64
13, 1250395, Note_off_c, 12, 55, 64
13, 1250400, Note_on_c, 12, 55, 45
13, 1250400, Note_on_c, 12, 58, 45
13, 1250515, Note_off_c, 12, 58, 64
13, 1250515, Note_off_c, 12, 55, 64
13, 1250520, Note_on_c, 12, 55, 45
13, 1250520, Note_on_c, 12, 58, 45
13, 1250635, Note_off_c, 12, 58, 64
13, 1250635, Note_off_c, 12, 55, 64
13, 1250640, Note_on_c, 12, 55, 45
13, 1250640, Note_on_c, 12, 58, 45
13, 1250755, Note_off_c, 12, 58, 64
13, 1250755, Note_off_c, 12, 55, 64
13, 1250760, Note_on_c, 12, 55, 45
13, 1250760, Note_on_c, 12, 58, 45
13, 1250875, Note_off_c, 12, 58, 64
13, 1250875, Note_off_c, 12, 55, 64
13, 1250880, Note_on_c, 12, 55, 45
13, 1250880, Note_on_c, 12, 58, 45
13, 1250995, Note_off_c, 12, 58, 64
13, 1250995, Note_off_c, 12, 55, 64
13, 1251000, Note_on_c, 12, 55, 45
13, 1251000, Note_on_c, 12, 58, 45
13, 1251115, Note_off_c, 12, 58, 64
13, 1251115, Note_off_c, 12, 55, 64
13, 1251120, Note_on_c, 12, 55, 45
13, 1251120, Note_on_c, 12, 58, 45
13, 1251235, Note_off_c, 12, 58, 64
13, 1251235, Note_off_c, 12, 55, 64
13, 1251240, Note_on_c, 12, 55, 45
13, 1251240, Note_on_c, 12, 58, 45
13, 1251355, Note_off_c, 12, 58, 64
13, 1251355, Note_off_c, 12, 55, 64
13, 1251360, Note_on_c, 12, 55, 45
13, 1251360, Note_on_c, 12, 58, 45
13, 1251475, Note_off_c, 12, 58, 64
13, 1251475, Note_off_c, 12, 55, 64
13, 1251480, Note_on_c, 12, 55, 45
13, 1251480, Note_on_c, 12, 58, 45
13, 1251595, Note_off_c, 12, 58, 64
13, 1251595, Note_off_c, 12, 55, 64
13, 1251600, Note_on_c, 12, 55, 45
13, 1251600, Note_on_c, 12, 58, 45
13, 1251715, Note_off_c, 12, 58, 64
13, 1251715, Note_off_c, 12, 55, 64
13, 1251720, Note_on_c, 12, 55, 45
13, 1251720, Note_on_c, 12, 58, 45
13, 1251835, Note_off_c, 12, 58, 64
13, 1251835, Note_off_c, 12, 55, 64
13, 1251840, Note_on_c, 12, 55, 45
13, 1251840, Note_on_c, 12, 58, 45
13, 1251955, Note_off_c, 12, 58, 64
13, 1251955, Note_off_c, 12, 55, 64
13, 1251960, Note_on_c, 12, 55, 45
13, 1251960, Note_on_c, 12, 58, 45
13, 1252075, Note_off_c, 12, 58, 64
13, 1252075, Note_off_c, 12, 55, 64
13, 1252080, Note_on_c, 12, 55, 45
13, 1252080, Note_on_c, 12, 58, 45
13, 1252195, Note_off_c, 12, 58, 64
13, 1252195, Note_off_c, 12, 55, 64
13, 1252200, Note_on_c, 12, 55, 45
13, 1252200, Note_on_c, 12, 58, 45
13, 1252315, Note_off_c, 12, 58, 64
13, 1252315, Note_off_c, 12, 55, 64
13, 1252320, Note_on_c, 12, 55, 45
13, 1252320, Note_on_c, 12, 58, 45
13, 1252435, Note_off_c, 12, 58, 64
13, 1252435, Note_off_c, 12, 55, 64
13, 1252440, Note_on_c, 12, 55, 45
13, 1252440, Note_on_c, 12, 58, 45
13, 1252555, Note_off_c, 12, 58, 64
13, 1252555, Note_off_c, 12, 55, 64
13, 1252560, Note_on_c, 12, 55, 45
13, 1252560, Note_on_c, 12, 58, 45
13, 1252675, Note_off_c, 12, 58, 64
13, 1252675, Note_off_c, 12, 55, 64
13, 1252680, Note_on_c, 12, 55, 45
13, 1252680, Note_on_c, 12, 58, 45
13, 1252795, Note_off_c, 12, 58, 64
13, 1252795, Note_off_c, 12, 55, 64
13, 1252800, Note_on_c, 12, 55, 45
13, 1252800, Note_on_c, 12, 58, 45
13, 1252915, Note_off_c, 12, 58, 64
13, 1252915, Note_off_c, 12, 55, 64
13, 1252920, Note_on_c, 12, 55, 45
13, 1252920, Note_on_c, 12, 58, 45
13, 1253035, Note_off_c, 12, 58, 64
13, 1253035, Note_off_c, 12, 55, 64
13, 1253040, Note_on_c, 12, 55, 45
13, 1253040, Note_on_c, 12, 58, 45
13, 1253155, Note_off_c, 12, 58, 64
13, 1253155, Note_off_c, 12, 55, 64
13, 1253160, Note_on_c, 12, 55, 45
13, 1253160, Note_on_c, 12, 58, 45
13, 1253275, Note_off_c, 12, 58, 64
13, 1253275, Note_off_c, 12, 55, 64
13, 1253280, Note_on_c, 12, 55, 45
13, 1253280, Note_on_c, 12, 58, 45
13, 1253395, Note_off_c, 12, 58, 64
13, 1253395, Note_off_c, 12, 55, 64
13, 1253400, Note_on_c, 12, 55, 45
13, 1253400, Note_on_c, 12, 58, 45
13, 1253515, Note_off_c, 12, 58, 64
13, 1253515, Note_off_c, 12, 55, 64
13, 1253520, Note_on_c, 12, 55, 45
13, 1253520, Note_on_c, 12, 58, 45
13, 1253635, Note_off_c, 12, 58, 64
13, 1253635, Note_off_c, 12, 55, 64
13, 1253640, Note_on_c, 12, 55, 45
13, 1253640, Note_on_c, 12, 58, 45
13, 1253755, Note_off_c, 12, 58, 64
13, 1253755, Note_off_c, 12, 55, 64
13, 1253760, Note_on_c, 12, 55, 45
13, 1253760, Note_on_c, 12, 58, 45
13, 1253875, Note_off_c, 12, 58, 64
13, 1253875, Note_off_c, 12, 55, 64
13, 1253880, Note_on_c, 12, 55, 45
13, 1253880, Note_on_c, 12, 58, 45
13, 1253995, Note_off_c, 12, 58, 64
13, 1253995, Note_off_c, 12, 55, 64
13, 1254000, Note_on_c, 12, 55, 45
13, 1254000, Note_on_c, 12, 58, 45
13, 1254115, Note_off_c, 12, 58, 64
13, 1254115, Note_off_c, 12, 55, 64
13, 1254120, Note_on_c, 12, 55, 45
13, 1254120, Note_on_c, 12, 58, 45
13, 1254235, Note_off_c, 12, 58, 64
13, 1254235, Note_off_c, 12, 55, 64
13, 1254240, Note_on_c, 12, 55, 45
13, 1254240, Note_on_c, 12, 58, 45
13, 1254355, Note_off_c, 12, 58, 64
13, 1254355, Note_off_c, 12, 55, 64
13, 1254360, Note_on_c, 12, 55, 45
13, 1254360, Note_on_c, 12, 58, 45
13, 1254475, Note_off_c, 12, 58, 64
13, 1254475, Note_off_c, 12, 55, 64
13, 1254480, Note_on_c, 12, 55, 45
13, 1254480, Note_on_c, 12, 58, 45
13, 1254595, Note_off_c, 12, 58, 64
13, 1254595, Note_off_c, 12, 55, 64
13, 1254600, Note_on_c, 12, 55, 45
13, 1254600, Note_on_c, 12, 58, 45
13, 1254715, Note_off_c, 12, 58, 64
13, 1254715, Note_off_c, 12, 55, 64
13, 1254720, Note_on_c, 12, 55, 44
13, 1254720, Note_on_c, 12, 58, 44
13, 1254835, Note_off_c, 12, 58, 64
13, 1254835, Note_off_c, 12, 55, 64
13, 1254840, Note_on_c, 12, 55, 43
13, 1254840, Note_on_c, 12, 58, 43
13, 1254955, Note_off_c, 12, 58, 64
13, 1254955, Note_off_c, 12, 55, 64
13, 1254960, Note_on_c, 12, 55, 42
13, 1254960, Note_on_c, 12, 58, 42
13, 1255075, Note_off_c, 12, 58, 64
13, 1255075, Note_off_c, 12, 55, 64
13, 1255080, Note_on_c, 12, 55, 41
13, 1255080, Note_on_c, 12, 58, 41
13, 1255195, Note_off_c, 12, 58, 64
13, 1255195, Note_off_c, 12, 55, 64
13, 1255200, Note_on_c, 12, 55, 40
13, 1255200, Note_on_c, 12, 58, 40
13, 1255315, Note_off_c, 12, 58, 64
13, 1255315, Note_off_c, 12, 55, 64
13, 1255320, Note_on_c, 12, 55, 39
13, 1255320, Note_on_c, 12, 58, 39
13, 1255435, Note_off_c, 12, 58, 64
13, 1255435, Note_off_c, 12, 55, 64
13, 1255440, Note_on_c, 12, 55, 38
13, 1255440, Note_on_c, 12, 58, 38
13, 1255555, Note_off_c, 12, 58, 64
13, 1255555, Note_off_c, 12, 55, 64
13, 1255560, Note_on_c, 12, 55, 37
13, 1255560, Note_on_c, 12, 58, 37
13, 1255675, Note_off_c, 12, 58, 64
13, 1255675, Note_off_c, 12, 55, 64
13, 1255680, Note_on_c, 12, 55, 36
13, 1255680, Note_on_c, 12, 58, 36
13, 1255795, Note_off_c, 12, 58, 64
13, 1255795, Note_off_c, 12, 55, 64
13, 1255800, Note_on_c, 12, 55, 35
13, 1255800, Note_on_c, 12, 58, 35
13, 1255915, Note_off_c, 12, 58, 64
13, 1255915, Note_off_c, 12, 55, 64
13, 1255920, Note_on_c, 12, 55, 34
13, 1255920, Note_on_c, 12, 58, 34
13, 1256035, Note_off_c, 12, 58, 64
13, 1256035, Note_off_c, 12, 55, 64
13, 1256040, Note_on_c, 12, 55, 33
13, 1256040, Note_on_c, 12, 58, 33
13, 1256155, Note_off_c, 12, 58, 64
13, 1256155, Note_off_c, 12, 55, 64
13, 1256160, Note_on_c, 12, 55, 32
13, 1256160, Note_on_c, 12, 58, 32
13, 1256275, Note_off_c, 12, 58, 64
13, 1256275, Note_off_c, 12, 55, 64
13, 1256280, Note_on_c, 12, 55, 31
13, 1256280, Note_on_c, 12, 58, 31
13, 1256395, Note_off_c, 12, 58, 64
13, 1256395, Note_off_c, 12, 55, 64
13, 1256400, Note_on_c, 12, 55, 30
13, 1256515, Note_off_c, 12, 55, 64
13, 1256520, Note_on_c, 12, 55, 30
13, 1256635, Note_off_c, 12, 55, 64
13, 1256640, Note_on_c, 12, 55, 30
13, 1256755, Note_off_c, 12, 55, 64
13, 1256760, Note_on_c, 12, 55, 30
13, 1256875, Note_off_c, 12, 55, 64
13, 1256880, Note_on_c, 12, 55, 30
13, 1256995, Note_off_c, 12, 55, 64
13, 1257000, Note_on_c, 12, 55, 30
13, 1257115, Note_off_c, 12, 55, 64
13, 1257120, Note_on_c, 12, 55, 30
13, 1257235, Note_off_c, 12, 55, 64
13, 1257240, Note_on_c, 12, 55, 30
13, 1257355, Note_off_c, 12, 55, 64
13, 1257360, Note_on_c, 12, 55, 30
13, 1257475, Note_off_c, 12, 55, 64
13, 1257480, Note_on_c, 12, 55, 30
13, 1257595, Note_off_c, 12, 55, 64
13, 1257600, Note_on_c, 12, 55, 30
13, 1257715, Note_off_c, 12, 55, 64
13, 1257720, Note_on_c, 12, 55, 30
13, 1257835, Note_off_c, 12, 55, 64
13, 1257840, Note_on_c, 12, 55, 30
13, 1257955, Note_off_c, 12, 55, 64
13, 1257960, Note_on_c, 12, 55, 30
13, 1258075, Note_off_c, 12, 55, 64
13, 1258080, Note_on_c, 12, 55, 30
13, 1258195, Note_off_c, 12, 55, 64
13, 1258200, Note_on_c, 12, 55, 30
13, 1258315, Note_off_c, 12, 55, 64
13, 1258320, Note_on_c, 12, 55, 30
13, 1258435, Note_off_c, 12, 55, 64
13, 1258440, Note_on_c, 12, 55, 30
13, 1258555, Note_off_c, 12, 55, 64
13, 1258560, Note_on_c, 12, 55, 30
13, 1258675, Note_off_c, 12, 55, 64
13, 1258680, Note_on_c, 12, 55, 30
13, 1258795, Note_off_c, 12, 55, 64
13, 1258800, Note_on_c, 12, 55, 30
13, 1258915, Note_off_c, 12, 55, 64
13, 1258920, Note_on_c, 12, 55, 30
13, 1259035, Note_off_c, 12, 55, 64
13, 1259040, Note_on_c, 12, 55, 30
13, 1259155, Note_off_c, 12, 55, 64
13, 1259160, Note_on_c, 12, 55, 30
13, 1259275, Note_off_c, 12, 55, 64
13, 1259280, Note_on_c, 12, 55, 30
13, 1259395, Note_off_c, 12, 55, 64
13, 1259400, Note_on_c, 12, 55, 30
13, 1259515, Note_off_c, 12, 55, 64
13, 1259520, Note_on_c, 12, 55, 30
13, 1259635, Note_off_c, 12, 55, 64
13, 1259640, Note_on_c, 12, 55, 30
13, 1259755, Note_off_c, 12, 55, 64
13, 1259760, Note_on_c, 12, 55, 30
13, 1259875, Note_off_c, 12, 55, 64
13, 1259880, Note_on_c, 12, 55, 30
13, 1259995, Note_off_c, 12, 55, 64
13, 1260000, Note_on_c, 12, 55, 30
13, 1260115, Note_off_c, 12, 55, 64
13, 1260120, Note_on_c, 12, 55, 30
13, 1260235, Note_off_c, 12, 55, 64
13, 1260240, Note_on_c, 12, 54, 30
13, 1260355, Note_off_c, 12, 54, 64
13, 1260360, Note_on_c, 12, 54, 30
13, 1260475, Note_off_c, 12, 54, 64
13, 1260480, Note_on_c, 12, 54, 30
13, 1260595, Note_off_c, 12, 54, 64
13, 1260600, Note_on_c, 12, 54, 30
13, 1260715, Note_off_c, 12, 54, 64
13, 1260720, Note_on_c, 12, 54, 30
13, 1260835, Note_off_c, 12, 54, 64
13, 1260840, Note_on_c, 12, 54, 30
13, 1260955, Note_off_c, 12, 54, 64
13, 1260960, Note_on_c, 12, 54, 30
13, 1261075, Note_off_c, 12, 54, 64
13, 1261080, Note_on_c, 12, 54, 30
13, 1261195, Note_off_c, 12, 54, 64
13, 1261200, Note_on_c, 12, 54, 30
13, 1261315, Note_off_c, 12, 54, 64
13, 1261320, Note_on_c, 12, 54, 30
13, 1261435, Note_off_c, 12, 54, 64
13, 1261440, Note_on_c, 12, 54, 30
13, 1261555, Note_off_c, 12, 54, 64
13, 1261560, Note_on_c, 12, 54, 30
13, 1261675, Note_off_c, 12, 54, 64
13, 1261680, Note_on_c, 12, 54, 30
13, 1261795, Note_off_c, 12, 54, 64
13, 1261800, Note_on_c, 12, 54, 30
13, 1261915, Note_off_c, 12, 54, 64
13, 1261920, Note_on_c, 12, 54, 30
13, 1262035, Note_off_c, 12, 54, 64
13, 1262040, Note_on_c, 12, 54, 30
13, 1262155, Note_off_c, 12, 54, 64
13, 1262160, Note_on_c, 12, 54, 30
13, 1262275, Note_off_c, 12, 54, 64
13, 1262280, Note_on_c, 12, 54, 30
13, 1262395, Note_off_c, 12, 54, 64
13, 1262400, Note_on_c, 12, 54, 30
13, 1262515, Note_off_c, 12, 54, 64
13, 1262520, Note_on_c, 12, 54, 30
13, 1262635, Note_off_c, 12, 54, 64
13, 1262640, Note_on_c, 12, 54, 30
13, 1262755, Note_off_c, 12, 54, 64
13, 1262760, Note_on_c, 12, 54, 30
13, 1262875, Note_off_c, 12, 54, 64
13, 1262880, Note_on_c, 12, 54, 30
13, 1262995, Note_off_c, 12, 54, 64
13, 1263000, Note_on_c, 12, 54, 30
13, 1263115, Note_off_c, 12, 54, 64
13, 1263120, Note_on_c, 12, 54, 30
13, 1263235, Note_off_c, 12, 54, 64
13, 1263240, Note_on_c, 12, 54, 30
13, 1263355, Note_off_c, 12, 54, 64
13, 1263360, Note_on_c, 12, 54, 30
13, 1263475, Note_off_c, 12, 54, 64
13, 1263480, Note_on_c, 12, 54, 30
13, 1263595, Note_off_c, 12, 54, 64
13, 1263600, Note_on_c, 12, 54, 30
13, 1263715, Note_off_c, 12, 54, 64
13, 1263720, Note_on_c, 12, 54, 30
13, 1263835, Note_off_c, 12, 54, 64
13, 1263840, Note_on_c, 12, 54, 30
13, 1263955, Note_off_c, 12, 54, 64
13, 1263960, Note_on_c, 12, 54, 30
13, 1264075, Note_off_c, 12, 54, 64
13, 1264080, Note_on_c, 12, 54, 30
13, 1264080, Note_on_c, 12, 57, 30
13, 1264195, Note_off_c, 12, 57, 64
13, 1264195, Note_off_c, 12, 54, 64
13, 1264200, Note_on_c, 12, 54, 30
13, 1264200, Note_on_c, 12, 57, 30
13, 1264315, Note_off_c, 12, 57, 64
13, 1264315, Note_off_c, 12, 54, 64
13, 1264320, Note_on_c, 12, 54, 30
13, 1264320, Note_on_c, 12, 57, 30
13, 1264435, Note_off_c, 12, 57, 64
13, 1264435, Note_off_c, 12, 54, 64
13, 1264440, Note_on_c, 12, 54, 30
13, 1264440, Note_on_c, 12, 57, 30
13, 1264555, Note_off_c, 12, 57, 64
13, 1264555, Note_off_c, 12, 54, 64
13, 1264560, Note_on_c, 12, 54, 30
13, 1264560, Note_on_c, 12, 57, 30
13, 1264675, Note_off_c, 12, 57, 64
13, 1264675, Note_off_c, 12, 54, 64
13, 1264680, Note_on_c, 12, 54, 30
13, 1264680, Note_on_c, 12, 57, 30
13, 1264795, Note_off_c, 12, 57, 64
13, 1264795, Note_off_c, 12, 54, 64
13, 1264800, Note_on_c, 12, 54, 30
13, 1264800, Note_on_c, 12, 57, 30
13, 1264915, Note_off_c, 12, 57, 64
13, 1264915, Note_off_c, 12, 54, 64
13, 1264920, Note_on_c, 12, 54, 30
13, 1264920, Note_on_c, 12, 57, 30
13, 1265035, Note_off_c, 12, 57, 64
13, 1265035, Note_off_c, 12, 54, 64
13, 1265040, Note_on_c, 12, 54, 30
13, 1265040, Note_on_c, 12, 57, 30
13, 1265155, Note_off_c, 12, 57, 64
13, 1265155, Note_off_c, 12, 54, 64
13, 1265160, Note_on_c, 12, 54, 30
13, 1265160, Note_on_c, 12, 57, 30
13, 1265275, Note_off_c, 12, 57, 64
13, 1265275, Note_off_c, 12, 54, 64
13, 1265280, Note_on_c, 12, 54, 30
13, 1265280, Note_on_c, 12, 57, 30
13, 1265395, Note_off_c, 12, 57, 64
13, 1265395, Note_off_c, 12, 54, 64
13, 1265400, Note_on_c, 12, 54, 30
13, 1265400, Note_on_c, 12, 57, 30
13, 1265515, Note_off_c, 12, 57, 64
13, 1265515, Note_off_c, 12, 54, 64
13, 1265520, Note_on_c, 12, 54, 30
13, 1265520, Note_on_c, 12, 57, 30
13, 1265635, Note_off_c, 12, 57, 64
13, 1265635, Note_off_c, 12, 54, 64
13, 1265640, Note_on_c, 12, 54, 30
13, 1265640, Note_on_c, 12, 57, 30
13, 1265755, Note_off_c, 12, 57, 64
13, 1265755, Note_off_c, 12, 54, 64
13, 1265760, Note_on_c, 12, 54, 30
13, 1265760, Note_on_c, 12, 57, 30
13, 1265875, Note_off_c, 12, 57, 64
13, 1265875, Note_off_c, 12, 54, 64
13, 1265880, Note_on_c, 12, 54, 30
13, 1265880, Note_on_c, 12, 57, 30
13, 1265995, Note_off_c, 12, 57, 64
13, 1265995, Note_off_c, 12, 54, 64
13, 1266000, Note_on_c, 12, 54, 30
13, 1266000, Note_on_c, 12, 57, 30
13, 1266115, Note_off_c, 12, 57, 64
13, 1266115, Note_off_c, 12, 54, 64
13, 1266120, Note_on_c, 12, 54, 30
13, 1266120, Note_on_c, 12, 57, 30
13, 1266235, Note_off_c, 12, 57, 64
13, 1266235, Note_off_c, 12, 54, 64
13, 1266240, Note_on_c, 12, 54, 30
13, 1266240, Note_on_c, 12, 57, 30
13, 1266355, Note_off_c, 12, 57, 64
13, 1266355, Note_off_c, 12, 54, 64
13, 1266360, Note_on_c, 12, 54, 30
13, 1266360, Note_on_c, 12, 57, 30
13, 1266475, Note_off_c, 12, 57, 64
13, 1266475, Note_off_c, 12, 54, 64
13, 1266480, Note_on_c, 12, 54, 30
13, 1266480, Note_on_c, 12, 57, 30
13, 1266595, Note_off_c, 12, 57, 64
13, 1266595, Note_off_c, 12, 54, 64
13, 1266600, Note_on_c, 12, 54, 30
13, 1266600, Note_on_c, 12, 57, 30
13, 1266715, Note_off_c, 12, 57, 64
13, 1266715, Note_off_c, 12, 54, 64
13, 1266720, Note_on_c, 12, 54, 30
13, 1266720, Note_on_c, 12, 57, 30
13, 1266835, Note_off_c, 12, 57, 64
13, 1266835, Note_off_c, 12, 54, 64
13, 1266840, Note_on_c, 12, 54, 30
13, 1266840, Note_on_c, 12, 57, 30
13, 1266955, Note_off_c, 12, 57, 64
13, 1266955, Note_off_c, 12, 54, 64
13, 1266960, Note_on_c, 12, 54, 30
13, 1266960, Note_on_c, 12, 57, 30
13, 1267075, Note_off_c, 12, 57, 64
13, 1267075, Note_off_c, 12, 54, 64
13, 1267080, Note_on_c, 12, 54, 30
13, 1267080, Note_on_c, 12, 57, 30
13, 1267195, Note_off_c, 12, 57, 64
13, 1267195, Note_off_c, 12, 54, 64
13, 1267200, Note_on_c, 12, 54, 30
13, 1267200, Note_on_c, 12, 57, 30
13, 1267315, Note_off_c, 12, 57, 64
13, 1267315, Note_off_c, 12, 54, 64
13, 1267320, Note_on_c, 12, 54, 30
13, 1267320, Note_on_c, 12, 57, 30
13, 1267435, Note_off_c, 12, 57, 64
13, 1267435, Note_off_c, 12, 54, 64
13, 1267440, Note_on_c, 12, 54, 30
13, 1267440, Note_on_c, 12, 57, 30
13, 1267555, Note_off_c, 12, 57, 64
13, 1267555, Note_off_c, 12, 54, 64
13, 1267560, Note_on_c, 12, 54, 30
13, 1267560, Note_on_c, 12, 57, 30
13, 1267675, Note_off_c, 12, 57, 64
13, 1267675, Note_off_c, 12, 54, 64
13, 1267680, Note_on_c, 12, 54, 30
13, 1267680, Note_on_c, 12, 57, 30
13, 1267795, Note_off_c, 12, 57, 64
13, 1267795, Note_off_c, 12, 54, 64
13, 1267800, Note_on_c, 12, 54, 30
13, 1267800, Note_on_c, 12, 57, 30
13, 1267915, Note_off_c, 12, 57, 64
13, 1267915, Note_off_c, 12, 54, 64
13, 1267920, Note_on_c, 12, 54, 30
13, 1267920, Note_on_c, 12, 57, 30
13, 1268035, Note_off_c, 12, 57, 64
13, 1268035, Note_off_c, 12, 54, 64
13, 1268040, Note_on_c, 12, 54, 30
13, 1268040, Note_on_c, 12, 57, 30
13, 1268155, Note_off_c, 12, 57, 64
13, 1268155, Note_off_c, 12, 54, 64
13, 1268160, Note_on_c, 12, 54, 30
13, 1268160, Note_on_c, 12, 57, 30
13, 1268275, Note_off_c, 12, 57, 64
13, 1268275, Note_off_c, 12, 54, 64
13, 1268280, Note_on_c, 12, 54, 30
13, 1268280, Note_on_c, 12, 57, 30
13, 1268395, Note_off_c, 12, 57, 64
13, 1268395, Note_off_c, 12, 54, 64
13, 1268400, Note_on_c, 12, 54, 30
13, 1268400, Note_on_c, 12, 57, 30
13, 1268515, Note_off_c, 12, 57, 64
13, 1268515, Note_off_c, 12, 54, 64
13, 1268520, Note_on_c, 12, 54, 30
13, 1268520, Note_on_c, 12, 57, 30
13, 1268635, Note_off_c, 12, 57, 64
13, 1268635, Note_off_c, 12, 54, 64
13, 1268640, Note_on_c, 12, 54, 30
13, 1268640, Note_on_c, 12, 57, 30
13, 1268755, Note_off_c, 12, 57, 64
13, 1268755, Note_off_c, 12, 54, 64
13, 1268760, Note_on_c, 12, 54, 30
13, 1268760, Note_on_c, 12, 57, 30
13, 1268875, Note_off_c, 12, 57, 64
13, 1268875, Note_off_c, 12, 54, 64
13, 1268880, Note_on_c, 12, 54, 30
13, 1268880, Note_on_c, 12, 57, 30
13, 1268995, Note_off_c, 12, 57, 64
13, 1268995, Note_off_c, 12, 54, 64
13, 1269000, Note_on_c, 12, 54, 30
13, 1269000, Note_on_c, 12, 57, 30
13, 1269115, Note_off_c, 12, 57, 64
13, 1269115, Note_off_c, 12, 54, 64
13, 1269120, Note_on_c, 12, 54, 30
13, 1269120, Note_on_c, 12, 57, 30
13, 1269235, Note_off_c, 12, 57, 64
13, 1269235, Note_off_c, 12, 54, 64
13, 1269240, Note_on_c, 12, 54, 30
13, 1269240, Note_on_c, 12, 57, 30
13, 1269355, Note_off_c, 12, 57, 64
13, 1269355, Note_off_c, 12, 54, 64
13, 1269360, Note_on_c, 12, 54, 30
13, 1269360, Note_on_c, 12, 57, 30
13, 1269475, Note_off_c, 12, 57, 64
13, 1269475, Note_off_c, 12, 54, 64
13, 1269480, Note_on_c, 12, 54, 30
13, 1269480, Note_on_c, 12, 57, 30
13, 1269595, Note_off_c, 12, 57, 64
13, 1269595, Note_off_c, 12, 54, 64
13, 1269600, Note_on_c, 12, 54, 30
13, 1269600, Note_on_c, 12, 57, 30
13, 1269715, Note_off_c, 12, 57, 64
13, 1269715, Note_off_c, 12, 54, 64
13, 1269720, Note_on_c, 12, 54, 30
13, 1269720, Note_on_c, 12, 57, 30
13, 1269835, Note_off_c, 12, 57, 64
13, 1269835, Note_off_c, 12, 54, 64
13, 1269840, Note_on_c, 12, 54, 30
13, 1269840, Note_on_c, 12, 57, 30
13, 1269955, Note_off_c, 12, 57, 64
13, 1269955, Note_off_c, 12, 54, 64
13, 1269960, Note_on_c, 12, 54, 30
13, 1269960, Note_on_c, 12, 57, 30
13, 1270075, Note_off_c, 12, 57, 64
13, 1270075, Note_off_c, 12, 54, 64
13, 1270080, Note_on_c, 12, 54, 30
13, 1270080, Note_on_c, 12, 57, 30
13, 1270195, Note_off_c, 12, 57, 64
13, 1270195, Note_off_c, 12, 54, 64
13, 1270200, Note_on_c, 12, 54, 30
13, 1270200, Note_on_c, 12, 57, 30
13, 1270315, Note_off_c, 12, 57, 64
13, 1270315, Note_off_c, 12, 54, 64
13, 1270320, Note_on_c, 12, 54, 30
13, 1270320, Note_on_c, 12, 57, 30
13, 1270435, Note_off_c, 12, 57, 64
13, 1270435, Note_off_c, 12, 54, 64
13, 1270440, Note_on_c, 12, 54, 30
13, 1270440, Note_on_c, 12, 57, 30
13, 1270555, Note_off_c, 12, 57, 64
13, 1270555, Note_off_c, 12, 54, 64
13, 1270560, Note_on_c, 12, 54, 30
13, 1270560, Note_on_c, 12, 57, 30
13, 1270675, Note_off_c, 12, 57, 64
13, 1270675, Note_off_c, 12, 54, 64
13, 1270680, Note_on_c, 12, 54, 30
13, 1270680, Note_on_c, 12, 57, 30
13, 1270795, Note_off_c, 12, 57, 64
13, 1270795, Note_off_c, 12, 54, 64
13, 1270800, Note_on_c, 12, 54, 30
13, 1270800, Note_on_c, 12, 57, 30
13, 1270915, Note_off_c, 12, 57, 64
13, 1270915, Note_off_c, 12, 54, 64
13, 1270920, Note_on_c, 12, 54, 30
13, 1270920, Note_on_c, 12, 57, 30
13, 1271035, Note_off_c, 12, 57, 64
13, 1271035, Note_off_c, 12, 54, 64
13, 1271040, Note_on_c, 12, 54, 30
13, 1271040, Note_on_c, 12, 57, 30
13, 1271155, Note_off_c, 12, 57, 64
13, 1271155, Note_off_c, 12, 54, 64
13, 1271160, Note_on_c, 12, 54, 30
13, 1271160, Note_on_c, 12, 57, 30
13, 1271275, Note_off_c, 12, 57, 64
13, 1271275, Note_off_c, 12, 54, 64
13, 1271280, Note_on_c, 12, 54, 30
13, 1271280, Note_on_c, 12, 57, 30
13, 1271395, Note_off_c, 12, 57, 64
13, 1271395, Note_off_c, 12, 54, 64
13, 1271400, Note_on_c, 12, 54, 30
13, 1271400, Note_on_c, 12, 57, 30
13, 1271515, Note_off_c, 12, 57, 64
13, 1271515, Note_off_c, 12, 54, 64
13, 1271520, Note_on_c, 12, 54, 30
13, 1271520, Note_on_c, 12, 57, 30
13, 1271635, Note_off_c, 12, 57, 64
13, 1271635, Note_off_c, 12, 54, 64
13, 1271640, Note_on_c, 12, 54, 30
13, 1271640, Note_on_c, 12, 57, 30
13, 1271755, Note_off_c, 12, 57, 64
13, 1271755, Note_off_c, 12, 54, 64
13, 1271760, Note_on_c, 12, 54, 30
13, 1271760, Note_on_c, 12, 57, 30
13, 1271875, Note_off_c, 12, 57, 64
13, 1271875, Note_off_c, 12, 54, 64
13, 1271880, Note_on_c, 12, 54, 30
13, 1271880, Note_on_c, 12, 57, 30
13, 1271995, Note_off_c, 12, 57, 64
13, 1271995, Note_off_c, 12, 54, 64
13, 1272000, Note_on_c, 12, 54, 30
13, 1272000, Note_on_c, 12, 57, 30
13, 1272115, Note_off_c, 12, 57, 64
13, 1272115, Note_off_c, 12, 54, 64
13, 1272120, Note_on_c, 12, 54, 30
13, 1272120, Note_on_c, 12, 57, 30
13, 1272235, Note_off_c, 12, 57, 64
13, 1272235, Note_off_c, 12, 54, 64
13, 1272240, Note_on_c, 12, 54, 30
13, 1272240, Note_on_c, 12, 57, 30
13, 1272355, Note_off_c, 12, 57, 64
13, 1272355, Note_off_c, 12, 54, 64
13, 1272360, Note_on_c, 12, 54, 30
13, 1272360, Note_on_c, 12, 57, 30
13, 1272475, Note_off_c, 12, 57, 64
13, 1272475, Note_off_c, 12, 54, 64
13, 1272480, Note_on_c, 12, 54, 30
13, 1272480, Note_on_c, 12, 57, 30
13, 1272595, Note_off_c, 12, 57, 64
13, 1272595, Note_off_c, 12, 54, 64
13, 1272600, Note_on_c, 12, 54, 30
13, 1272600, Note_on_c, 12, 57, 30
13, 1272715, Note_off_c, 12, 57, 64
13, 1272715, Note_off_c, 12, 54, 64
13, 1272720, Note_on_c, 12, 54, 30
13, 1272720, Note_on_c, 12, 57, 30
13, 1272835, Note_off_c, 12, 57, 64
13, 1272835, Note_off_c, 12, 54, 64
13, 1272840, Note_on_c, 12, 54, 30
13, 1272840, Note_on_c, 12, 57, 30
13, 1272955, Note_off_c, 12, 57, 64
13, 1272955, Note_off_c, 12, 54, 64
13, 1272960, Note_on_c, 12, 54, 30
13, 1272960, Note_on_c, 12, 57, 30
13, 1273075, Note_off_c, 12, 57, 64
13, 1273075, Note_off_c, 12, 54, 64
13, 1273080, Note_on_c, 12, 54, 30
13, 1273080, Note_on_c, 12, 57, 30
13, 1273195, Note_off_c, 12, 57, 64
13, 1273195, Note_off_c, 12, 54, 64
13, 1273200, Note_on_c, 12, 54, 30
13, 1273200, Note_on_c, 12, 57, 30
13, 1273315, Note_off_c, 12, 57, 64
13, 1273315, Note_off_c, 12, 54, 64
13, 1273320, Note_on_c, 12, 54, 30
13, 1273320, Note_on_c, 12, 57, 30
13, 1273435, Note_off_c, 12, 57, 64
13, 1273435, Note_off_c, 12, 54, 64
13, 1273440, Note_on_c, 12, 54, 30
13, 1273440, Note_on_c, 12, 57, 30
13, 1273555, Note_off_c, 12, 57, 64
13, 1273555, Note_off_c, 12, 54, 64
13, 1273560, Note_on_c, 12, 54, 30
13, 1273560, Note_on_c, 12, 57, 30
13, 1273675, Note_off_c, 12, 57, 64
13, 1273675, Note_off_c, 12, 54, 64
13, 1273680, Note_on_c, 12, 54, 30
13, 1273680, Note_on_c, 12, 57, 30
13, 1273795, Note_off_c, 12, 57, 64
13, 1273795, Note_off_c, 12, 54, 64
13, 1273800, Note_on_c, 12, 54, 30
13, 1273800, Note_on_c, 12, 57, 30
13, 1273915, Note_off_c, 12, 57, 64
13, 1273915, Note_off_c, 12, 54, 64
13, 1273920, Note_on_c, 12, 54, 30
13, 1273920, Note_on_c, 12, 57, 30
13, 1274035, Note_off_c, 12, 57, 64
13, 1274035, Note_off_c, 12, 54, 64
13, 1274040, Note_on_c, 12, 54, 30
13, 1274040, Note_on_c, 12, 57, 30
13, 1274155, Note_off_c, 12, 57, 64
13, 1274155, Note_off_c, 12, 54, 64
13, 1274160, Note_on_c, 12, 54, 30
13, 1274160, Note_on_c, 12, 57, 30
13, 1274275, Note_off_c, 12, 57, 64
13, 1274275, Note_off_c, 12, 54, 64
13, 1274280, Note_on_c, 12, 54, 30
13, 1274280, Note_on_c, 12, 57, 30
13, 1274395, Note_off_c, 12, 57, 64
13, 1274395, Note_off_c, 12, 54, 64
13, 1274400, Note_on_c, 12, 54, 30
13, 1274400, Note_on_c, 12, 57, 30
13, 1274515, Note_off_c, 12, 57, 64
13, 1274515, Note_off_c, 12, 54, 64
13, 1274520, Note_on_c, 12, 54, 30
13, 1274520, Note_on_c, 12, 57, 30
13, 1274635, Note_off_c, 12, 57, 64
13, 1274635, Note_off_c, 12, 54, 64
13, 1274640, Note_on_c, 12, 54, 30
13, 1274640, Note_on_c, 12, 57, 30
13, 1274755, Note_off_c, 12, 57, 64
13, 1274755, Note_off_c, 12, 54, 64
13, 1274760, Note_on_c, 12, 54, 30
13, 1274760, Note_on_c, 12, 57, 30
13, 1274875, Note_off_c, 12, 57, 64
13, 1274875, Note_off_c, 12, 54, 64
13, 1274880, Note_on_c, 12, 54, 30
13, 1274880, Note_on_c, 12, 57, 30
13, 1274995, Note_off_c, 12, 57, 64
13, 1274995, Note_off_c, 12, 54, 64
13, 1275000, Note_on_c, 12, 54, 30
13, 1275000, Note_on_c, 12, 57, 30
13, 1275115, Note_off_c, 12, 57, 64
13, 1275115, Note_off_c, 12, 54, 64
13, 1275120, Note_on_c, 12, 54, 30
13, 1275120, Note_on_c, 12, 57, 30
13, 1275235, Note_off_c, 12, 57, 64
13, 1275235, Note_off_c, 12, 54, 64
13, 1275240, Note_on_c, 12, 54, 30
13, 1275240, Note_on_c, 12, 57, 30
13, 1275355, Note_off_c, 12, 57, 64
13, 1275355, Note_off_c, 12, 54, 64
13, 1275360, Note_on_c, 12, 54, 30
13, 1275360, Note_on_c, 12, 57, 30
13, 1275475, Note_off_c, 12, 57, 64
13, 1275475, Note_off_c, 12, 54, 64
13, 1275480, Note_on_c, 12, 54, 30
13, 1275480, Note_on_c, 12, 57, 30
13, 1275595, Note_off_c, 12, 57, 64
13, 1275595, Note_off_c, 12, 54, 64
13, 1275600, Note_on_c, 12, 53, 30
13, 1275600, Note_on_c, 12, 57, 30
13, 1275715, Note_off_c, 12, 57, 64
13, 1275715, Note_off_c, 12, 53, 64
13, 1275720, Note_on_c, 12, 53, 30
13, 1275720, Note_on_c, 12, 57, 30
13, 1275835, Note_off_c, 12, 57, 64
13, 1275835, Note_off_c, 12, 53, 64
13, 1275840, Note_on_c, 12, 53, 30
13, 1275840, Note_on_c, 12, 57, 30
13, 1275955, Note_off_c, 12, 57, 64
13, 1275955, Note_off_c, 12, 53, 64
13, 1275960, Note_on_c, 12, 53, 30
13, 1275960, Note_on_c, 12, 57, 30
13, 1276075, Note_off_c, 12, 57, 64
13, 1276075, Note_off_c, 12, 53, 64
13, 1276080, Note_on_c, 12, 53, 30
13, 1276080, Note_on_c, 12, 57, 30
13, 1276195, Note_off_c, 12, 57, 64
13, 1276195, Note_off_c, 12, 53, 64
13, 1276200, Note_on_c, 12, 53, 31
13, 1276200, Note_on_c, 12, 57, 31
13, 1276315, Note_off_c, 12, 57, 64
13, 1276315, Note_off_c, 12, 53, 64
13, 1276320, Note_on_c, 12, 53, 32
13, 1276320, Note_on_c, 12, 57, 32
13, 1276435, Note_off_c, 12, 57, 64
13, 1276435, Note_off_c, 12, 53, 64
13, 1276440, Note_on_c, 12, 53, 33
13, 1276440, Note_on_c, 12, 57, 33
13, 1276555, Note_off_c, 12, 57, 64
13, 1276555, Note_off_c, 12, 53, 64
13, 1276560, Note_on_c, 12, 53, 34
13, 1276560, Note_on_c, 12, 57, 34
13, 1276675, Note_off_c, 12, 57, 64
13, 1276675, Note_off_c, 12, 53, 64
13, 1276680, Note_on_c, 12, 53, 35
13, 1276680, Note_on_c, 12, 57, 35
13, 1276795, Note_off_c, 12, 57, 64
13, 1276795, Note_off_c, 12, 53, 64
13, 1276800, Note_on_c, 12, 53, 36
13, 1276800, Note_on_c, 12, 57, 36
13, 1276915, Note_off_c, 12, 57, 64
13, 1276915, Note_off_c, 12, 53, 64
13, 1276920, Note_on_c, 12, 53, 37
13, 1276920, Note_on_c, 12, 57, 37
13, 1277035, Note_off_c, 12, 57, 64
13, 1277035, Note_off_c, 12, 53, 64
13, 1277040, Note_on_c, 12, 53, 38
13, 1277040, Note_on_c, 12, 57, 38
13, 1277155, Note_off_c, 12, 57, 64
13, 1277155, Note_off_c, 12, 53, 64
13, 1277160, Note_on_c, 12, 53, 39
13, 1277160, Note_on_c, 12, 57, 39
13, 1277275, Note_off_c, 12, 57, 64
13, 1277275, Note_off_c, 12, 53, 64
13, 1277280, Note_on_c, 12, 53, 40
13, 1277280, Note_on_c, 12, 57, 40
13, 1277395, Note_off_c, 12, 57, 64
13, 1277395, Note_off_c, 12, 53, 64
13, 1277400, Note_on_c, 12, 53, 41
13, 1277400, Note_on_c, 12, 57, 41
13, 1277515, Note_off_c, 12, 57, 64
13, 1277515, Note_off_c, 12, 53, 64
13, 1277520, Note_on_c, 12, 53, 42
13, 1277520, Note_on_c, 12, 57, 42
13, 1277635, Note_off_c, 12, 57, 64
13, 1277635, Note_off_c, 12, 53, 64
13, 1277640, Note_on_c, 12, 53, 43
13, 1277640, Note_on_c, 12, 57, 43
13, 1277755, Note_off_c, 12, 57, 64
13, 1277755, Note_off_c, 12, 53, 64
13, 1277760, Note_on_c, 12, 53, 44
13, 1277760, Note_on_c, 12, 57, 44
13, 1277875, Note_off_c, 12, 57, 64
13, 1277875, Note_off_c, 12, 53, 64
13, 1277880, Note_on_c, 12, 53, 45
13, 1277880, Note_on_c, 12, 57, 45
13, 1277995, Note_off_c, 12, 57, 64
13, 1277995, Note_off_c, 12, 53, 64
13, 1278000, Note_on_c, 12, 53, 46
13, 1278000, Note_on_c, 12, 57, 46
13, 1278115, Note_off_c, 12, 57, 64
13, 1278115, Note_off_c, 12, 53, 64
13, 1278120, Note_on_c, 12, 53, 47
13, 1278120, Note_on_c, 12, 57, 47
13, 1278235, Note_off_c, 12, 57, 64
13, 1278235, Note_off_c, 12, 53, 64
13, 1278240, Note_on_c, 12, 53, 48
13, 1278240, Note_on_c, 12, 57, 48
13, 1278355, Note_off_c, 12, 57, 64
13, 1278355, Note_off_c, 12, 53, 64
13, 1278360, Note_on_c, 12, 53, 49
13, 1278360, Note_on_c, 12, 57, 49
13, 1278475, Note_off_c, 12, 57, 64
13, 1278475, Note_off_c, 12, 53, 64
13, 1278480, Note_on_c, 12, 53, 50
13, 1278480, Note_on_c, 12, 57, 50
13, 1278595, Note_off_c, 12, 57, 64
13, 1278595, Note_off_c, 12, 53, 64
13, 1278600, Note_on_c, 12, 53, 51
13, 1278600, Note_on_c, 12, 57, 51
13, 1278715, Note_off_c, 12, 57, 64
13, 1278715, Note_off_c, 12, 53, 64
13, 1278720, Note_on_c, 12, 53, 52
13, 1278720, Note_on_c, 12, 57, 52
13, 1278835, Note_off_c, 12, 57, 64
13, 1278835, Note_off_c, 12, 53, 64
13, 1278840, Note_on_c, 12, 53, 53
13, 1278840, Note_on_c, 12, 57, 53
13, 1278955, Note_off_c, 12, 57, 64
13, 1278955, Note_off_c, 12, 53, 64
13, 1278960, Note_on_c, 12, 53, 54
13, 1278960, Note_on_c, 12, 57, 54
13, 1279075, Note_off_c, 12, 57, 64
13, 1279075, Note_off_c, 12, 53, 64
13, 1279080, Note_on_c, 12, 53, 55
13, 1279080, Note_on_c, 12, 57, 55
13, 1279195, Note_off_c, 12, 57, 64
13, 1279195, Note_off_c, 12, 53, 64
13, 1279200, Note_on_c, 12, 53, 56
13, 1279200, Note_on_c, 12, 57, 56
13, 1279315, Note_off_c, 12, 57, 64
13, 1279315, Note_off_c, 12, 53, 64
13, 1279320, Note_on_c, 12, 53, 57
13, 1279320, Note_on_c, 12, 57, 57
13, 1279435, Note_off_c, 12, 57, 64
13, 1279435, Note_off_c, 12, 53, 64
13, 1279440, Note_on_c, 12, 53, 58
13, 1279440, Note_on_c, 12, 58, 58
13, 1279555, Note_off_c, 12, 58, 64
13, 1279555, Note_off_c, 12, 53, 64
13, 1279560, Note_on_c, 12, 53, 59
13, 1279560, Note_on_c, 12, 58, 59
13, 1279675, Note_off_c, 12, 58, 64
13, 1279675, Note_off_c, 12, 53, 64
13, 1279680, Note_on_c, 12, 53, 60
13, 1279680, Note_on_c, 12, 58, 60
13, 1279795, Note_off_c, 12, 58, 64
13, 1279795, Note_off_c, 12, 53, 64
13, 1279800, Note_on_c, 12, 53, 61
13, 1279800, Note_on_c, 12, 58, 61
13, 1279915, Note_off_c, 12, 58, 64
13, 1279915, Note_off_c, 12, 53, 64
13, 1279920, Note_on_c, 12, 53, 62
13, 1279920, Note_on_c, 12, 58, 62
13, 1280035, Note_off_c, 12, 58, 64
13, 1280035, Note_off_c, 12, 53, 64
13, 1280040, Note_on_c, 12, 53, 63
13, 1280040, Note_on_c, 12, 58, 63
13, 1280155, Note_off_c, 12, 58, 64
13, 1280155, Note_off_c, 12, 53, 64
13, 1280160, Note_on_c, 12, 53, 64
13, 1280160, Note_on_c, 12, 58, 64
13, 1280275, Note_off_c, 12, 58, 64
13, 1280275, Note_off_c, 12, 53, 64
13, 1280280, Note_on_c, 12, 53, 65
13, 1280280, Note_on_c, 12, 58, 65
13, 1280395, Note_off_c, 12, 58, 64
13, 1280395, Note_off_c, 12, 53, 64
13, 1280400, Note_on_c, 12, 53, 66
13, 1280400, Note_on_c, 12, 58, 66
13, 1280515, Note_off_c, 12, 58, 64
13, 1280515, Note_off_c, 12, 53, 64
13, 1280520, Note_on_c, 12, 53, 67
13, 1280520, Note_on_c, 12, 58, 67
13, 1280635, Note_off_c, 12, 58, 64
13, 1280635, Note_off_c, 12, 53, 64
13, 1280640, Note_on_c, 12, 53, 68
13, 1280640, Note_on_c, 12, 58, 68
13, 1280755, Note_off_c, 12, 58, 64
13, 1280755, Note_off_c, 12, 53, 64
13, 1280760, Note_on_c, 12, 53, 69
13, 1280760, Note_on_c, 12, 58, 69
13, 1280875, Note_off_c, 12, 58, 64
13, 1280875, Note_off_c, 12, 53, 64
13, 1280880, Note_on_c, 12, 53, 70
13, 1280880, Note_on_c, 12, 58, 70
13, 1280995, Note_off_c, 12, 58, 64
13, 1280995, Note_off_c, 12, 53, 64
13, 1281000, Note_on_c, 12, 53, 71
13, 1281000, Note_on_c, 12, 58, 71
13, 1281115, Note_off_c, 12, 58, 64
13, 1281115, Note_off_c, 12, 53, 64
13, 1281120, Note_on_c, 12, 53, 72
13, 1281120, Note_on_c, 12, 58, 72
13, 1281235, Note_off_c, 12, 58, 64
13, 1281235, Note_off_c, 12, 53, 64
13, 1281240, Note_on_c, 12, 53, 73
13, 1281240, Note_on_c, 12, 58, 73
13, 1281355, Note_off_c, 12, 58, 64
13, 1281355, Note_off_c, 12, 53, 64
13, 1281360, Note_on_c, 12, 53, 74
13, 1281360, Note_on_c, 12, 58, 74
13, 1281475, Note_off_c, 12, 58, 64
13, 1281475, Note_off_c, 12, 53, 64
13, 1281480, Note_on_c, 12, 53, 75
13, 1281480, Note_on_c, 12, 58, 75
13, 1281595, Note_off_c, 12, 58, 64
13, 1281595, Note_off_c, 12, 53, 64
13, 1281600, Note_on_c, 12, 53, 76
13, 1281600, Note_on_c, 12, 58, 76
13, 1281715, Note_off_c, 12, 58, 64
13, 1281715, Note_off_c, 12, 53, 64
13, 1281720, Note_on_c, 12, 53, 77
13, 1281720, Note_on_c, 12, 58, 77
13, 1281835, Note_off_c, 12, 58, 64
13, 1281835, Note_off_c, 12, 53, 64
13, 1281840, Note_on_c, 12, 53, 78
13, 1281840, Note_on_c, 12, 58, 78
13, 1281955, Note_off_c, 12, 58, 64
13, 1281955, Note_off_c, 12, 53, 64
13, 1281960, Note_on_c, 12, 53, 79
13, 1281960, Note_on_c, 12, 58, 79
13, 1282075, Note_off_c, 12, 58, 64
13, 1282075, Note_off_c, 12, 53, 64
13, 1282080, Note_on_c, 12, 53, 80
13, 1282080, Note_on_c, 12, 58, 80
13, 1282195, Note_off_c, 12, 58, 64
13, 1282195, Note_off_c, 12, 53, 64
13, 1282200, Note_on_c, 12, 53, 81
13, 1282200, Note_on_c, 12, 58, 81
13, 1282315, Note_off_c, 12, 58, 64
13, 1282315, Note_off_c, 12, 53, 64
13, 1282320, Note_on_c, 12, 53, 82
13, 1282320, Note_on_c, 12, 58, 82
13, 1282435, Note_off_c, 12, 58, 64
13, 1282435, Note_off_c, 12, 53, 64
13, 1282440, Note_on_c, 12, 53, 83
13, 1282440, Note_on_c, 12, 58, 83
13, 1282555, Note_off_c, 12, 58, 64
13, 1282555, Note_off_c, 12, 53, 64
13, 1282560, Note_on_c, 12, 53, 84
13, 1282560, Note_on_c, 12, 58, 84
13, 1282675, Note_off_c, 12, 58, 64
13, 1282675, Note_off_c, 12, 53, 64
13, 1282680, Note_on_c, 12, 53, 85
13, 1282680, Note_on_c, 12, 58, 85
13, 1282795, Note_off_c, 12, 58, 64
13, 1282795, Note_off_c, 12, 53, 64
13, 1282800, Note_on_c, 12, 53, 86
13, 1282800, Note_on_c, 12, 58, 86
13, 1282915, Note_off_c, 12, 58, 64
13, 1282915, Note_off_c, 12, 53, 64
13, 1282920, Note_on_c, 12, 53, 87
13, 1282920, Note_on_c, 12, 58, 87
13, 1283035, Note_off_c, 12, 58, 64
13, 1283035, Note_off_c, 12, 53, 64
13, 1283040, Note_on_c, 12, 53, 88
13, 1283040, Note_on_c, 12, 58, 88
13, 1283155, Note_off_c, 12, 58, 64
13, 1283155, Note_off_c, 12, 53, 64
13, 1283160, Note_on_c, 12, 53, 89
13, 1283160, Note_on_c, 12, 58, 89
13, 1283275, Note_off_c, 12, 58, 64
13, 1283275, Note_off_c, 12, 53, 64
13, 1283280, Note_on_c, 12, 59, 90
13, 1283280, Note_on_c, 12, 62, 90
13, 1283395, Note_off_c, 12, 62, 64
13, 1283395, Note_off_c, 12, 59, 64
13, 1283400, Note_on_c, 12, 59, 91
13, 1283400, Note_on_c, 12, 62, 91
13, 1283515, Note_off_c, 12, 62, 64
13, 1283515, Note_off_c, 12, 59, 64
13, 1283520, Note_on_c, 12, 59, 92
13, 1283520, Note_on_c, 12, 62, 92
13, 1283635, Note_off_c, 12, 62, 64
13, 1283635, Note_off_c, 12, 59, 64
13, 1283640, Note_on_c, 12, 59, 93
13, 1283640, Note_on_c, 12, 62, 93
13, 1283755, Note_off_c, 12, 62, 64
13, 1283755, Note_off_c, 12, 59, 64
13, 1283760, Note_on_c, 12, 59, 94
13, 1283760, Note_on_c, 12, 62, 94
13, 1283875, Note_off_c, 12, 62, 64
13, 1283875, Note_off_c, 12, 59, 64
13, 1283880, Note_on_c, 12, 59, 95
13, 1283880, Note_on_c, 12, 62, 95
13, 1283995, Note_off_c, 12, 62, 64
13, 1283995, Note_off_c, 12, 59, 64
13, 1284000, Note_on_c, 12, 59, 96
13, 1284000, Note_on_c, 12, 62, 96
13, 1284115, Note_off_c, 12, 62, 64
13, 1284115, Note_off_c, 12, 59, 64
13, 1284120, Note_on_c, 12, 59, 97
13, 1284120, Note_on_c, 12, 62, 97
13, 1284235, Note_off_c, 12, 62, 64
13, 1284235, Note_off_c, 12, 59, 64
13, 1284240, Note_on_c, 12, 59, 98
13, 1284240, Note_on_c, 12, 62, 98
13, 1284355, Note_off_c, 12, 62, 64
13, 1284355, Note_off_c, 12, 59, 64
13, 1284360, Note_on_c, 12, 59, 99
13, 1284360, Note_on_c, 12, 62, 99
13, 1284475, Note_off_c, 12, 62, 64
13, 1284475, Note_off_c, 12, 59, 64
13, 1284480, Note_on_c, 12, 59, 100
13, 1284480, Note_on_c, 12, 62, 100
13, 1284595, Note_off_c, 12, 62, 64
13, 1284595, Note_off_c, 12, 59, 64
13, 1284600, Note_on_c, 12, 59, 101
13, 1284600, Note_on_c, 12, 62, 101
13, 1284715, Note_off_c, 12, 62, 64
13, 1284715, Note_off_c, 12, 59, 64
13, 1284720, Note_on_c, 12, 59, 102
13, 1284720, Note_on_c, 12, 62, 102
13, 1284835, Note_off_c, 12, 62, 64
13, 1284835, Note_off_c, 12, 59, 64
13, 1284840, Note_on_c, 12, 59, 103
13, 1284840, Note_on_c, 12, 62, 103
13, 1284955, Note_off_c, 12, 62, 64
13, 1284955, Note_off_c, 12, 59, 64
13, 1284960, Note_on_c, 12, 59, 104
13, 1284960, Note_on_c, 12, 62, 104
13, 1285075, Note_off_c, 12, 62, 64
13, 1285075, Note_off_c, 12, 59, 64
13, 1285080, Note_on_c, 12, 59, 105
13, 1285080, Note_on_c, 12, 62, 105
13, 1285195, Note_off_c, 12, 62, 64
13, 1285195, Note_off_c, 12, 59, 64
13, 1285200, Note_on_c, 12, 59, 106
13, 1285200, Note_on_c, 12, 62, 106
13, 1285315, Note_off_c, 12, 62, 64
13, 1285315, Note_off_c, 12, 59, 64
13, 1285320, Note_on_c, 12, 59, 107
13, 1285320, Note_on_c, 12, 62, 107
13, 1285435, Note_off_c, 12, 62, 64
13, 1285435, Note_off_c, 12, 59, 64
13, 1285440, Note_on_c, 12, 59, 108
13, 1285440, Note_on_c, 12, 62, 108
13, 1285555, Note_off_c, 12, 62, 64
13, 1285555, Note_off_c, 12, 59, 64
13, 1285560, Note_on_c, 12, 59, 109
13, 1285560, Note_on_c, 12, 62, 109
13, 1285675, Note_off_c, 12, 62, 64
13, 1285675, Note_off_c, 12, 59, 64
13, 1285680, Note_on_c, 12, 59, 110
13, 1285680, Note_on_c, 12, 62, 110
13, 1285795, Note_off_c, 12, 62, 64
13, 1285795, Note_off_c, 12, 59, 64
13, 1285800, Note_on_c, 12, 59, 111
13, 1285800, Note_on_c, 12, 62, 111
13, 1285915, Note_off_c, 12, 62, 64
13, 1285915, Note_off_c, 12, 59, 64
13, 1285920, Note_on_c, 12, 59, 112
13, 1285920, Note_on_c, 12, 62, 112
13, 1286035, Note_off_c, 12, 62, 64
13, 1286035, Note_off_c, 12, 59, 64
13, 1286040, Note_on_c, 12, 59, 113
13, 1286040, Note_on_c, 12, 62, 113
13, 1286155, Note_off_c, 12, 62, 64
13, 1286155, Note_off_c, 12, 59, 64
13, 1286160, Note_on_c, 12, 59, 114
13, 1286160, Note_on_c, 12, 62, 114
13, 1286275, Note_off_c, 12, 62, 64
13, 1286275, Note_off_c, 12, 59, 64
13, 1286280, Note_on_c, 12, 59, 115
13, 1286280, Note_on_c, 12, 62, 115
13, 1286395, Note_off_c, 12, 62, 64
13, 1286395, Note_off_c, 12, 59, 64
13, 1286400, Note_on_c, 12, 59, 116
13, 1286400, Note_on_c, 12, 62, 116
13, 1286515, Note_off_c, 12, 62, 64
13, 1286515, Note_off_c, 12, 59, 64
13, 1286520, Note_on_c, 12, 59, 117
13, 1286520, Note_on_c, 12, 62, 117
13, 1286635, Note_off_c, 12, 62, 64
13, 1286635, Note_off_c, 12, 59, 64
13, 1286640, Note_on_c, 12, 59, 119
13, 1286640, Note_on_c, 12, 62, 119
13, 1286755, Note_off_c, 12, 62, 64
13, 1286755, Note_off_c, 12, 59, 64
13, 1286760, Note_on_c, 12, 59, 121
13, 1286760, Note_on_c, 12, 62, 121
13, 1286875, Note_off_c, 12, 62, 64
13, 1286875, Note_off_c, 12, 59, 64
13, 1286880, Note_on_c, 12, 59, 123
13, 1286880, Note_on_c, 12, 62, 123
13, 1286995, Note_off_c, 12, 62, 64
13, 1286995, Note_off_c, 12, 59, 64
13, 1287000, Note_on_c, 12, 59, 125
13, 1287000, Note_on_c, 12, 62, 125
13, 1287115, Note_off_c, 12, 62, 64
13, 1287115, Note_off_c, 12, 59, 64
13, 1287120, Note_on_c, 12, 55, 127
13, 1287355, Note_off_c, 12, 55, 64
13, 1287360, Note_on_c, 12, 59, 127
13, 1287475, Note_off_c, 12, 59, 64
13, 1287480, Note_on_c, 12, 59, 127
13, 1287595, Note_off_c, 12, 59, 64
13, 1287600, Note_on_c, 12, 50, 127
13, 1287715, Note_off_c, 12, 50, 64
13, 1287720, Note_on_c, 12, 50, 127
13, 1287835, Note_off_c, 12, 50, 64
13, 1287840, Note_on_c, 12, 59, 127
13, 1287955, Note_off_c, 12, 59, 64
13, 1287960, Note_on_c, 12, 59, 127
13, 1288075, Note_off_c, 12, 59, 64
13, 1288080, Note_on_c, 12, 50, 127
13, 1288195, Note_off_c, 12, 50, 64
13, 1288200, Note_on_c, 12, 50, 127
13, 1288315, Note_off_c, 12, 50, 64
13, 1288320, Note_on_c, 12, 59, 127
13, 1288435, Note_off_c, 12, 59, 64
13, 1288440, Note_on_c, 12, 59, 127
13, 1288555, Note_off_c, 12, 59, 64
13, 1288560, Note_on_c, 12, 50, 127
13, 1288675, Note_off_c, 12, 50, 64
13, 1288680, Note_on_c, 12, 50, 127
13, 1288795, Note_off_c, 12, 50, 64
13, 1288800, Note_on_c, 12, 59, 127
13, 1288915, Note_off_c, 12, 59, 64
13, 1288920, Note_on_c, 12, 59, 127
13, 1289035, Note_off_c, 12, 59, 64
13, 1289040, Note_on_c, 12, 51, 127
13, 1289155, Note_off_c, 12, 51, 64
13, 1289160, Note_on_c, 12, 51, 127
13, 1289275, Note_off_c, 12, 51, 64
13, 1289280, Note_on_c, 12, 60, 127
13, 1289395, Note_off_c, 12, 60, 64
13, 1289400, Note_on_c, 12, 60, 127
13, 1289515, Note_off_c, 12, 60, 64
13, 1289520, Note_on_c, 12, 51, 127
13, 1289635, Note_off_c, 12, 51, 64
13, 1289640, Note_on_c, 12, 51, 127
13, 1289755, Note_off_c, 12, 51, 64
13, 1289760, Note_on_c, 12, 60, 127
13, 1289875, Note_off_c, 12, 60, 64
13, 1289880, Note_on_c, 12, 60, 127
13, 1289995, Note_off_c, 12, 60, 64
13, 1290000, Note_on_c, 12, 51, 127
13, 1290115, Note_off_c, 12, 51, 64
13, 1290120, Note_on_c, 12, 51, 127
13, 1290235, Note_off_c, 12, 51, 64
13, 1290240, Note_on_c, 12, 60, 127
13, 1290355, Note_off_c, 12, 60, 64
13, 1290360, Note_on_c, 12, 60, 127
13, 1290475, Note_off_c, 12, 60, 64
13, 1290480, Note_on_c, 12, 53, 127
13, 1290595, Note_off_c, 12, 53, 64
13, 1290600, Note_on_c, 12, 53, 127
13, 1290715, Note_off_c, 12, 53, 64
13, 1290720, Note_on_c, 12, 59, 127
13, 1290835, Note_off_c, 12, 59, 64
13, 1290840, Note_on_c, 12, 59, 127
13, 1290955, Note_off_c, 12, 59, 64
13, 1290960, Note_on_c, 12, 51, 127
13, 1291075, Note_off_c, 12, 51, 64
13, 1291080, Note_on_c, 12, 51, 127
13, 1291195, Note_off_c, 12, 51, 64
13, 1291200, Note_on_c, 12, 60, 127
13, 1291315, Note_off_c, 12, 60, 64
13, 1291320, Note_on_c, 12, 60, 127
13, 1291435, Note_off_c, 12, 60, 64
13, 1291440, Note_on_c, 12, 51, 127
13, 1291555, Note_off_c, 12, 51, 64
13, 1291560, Note_on_c, 12, 51, 127
13, 1291675, Note_off_c, 12, 51, 64
13, 1291680, Note_on_c, 12, 60, 127
13, 1291795, Note_off_c, 12, 60, 64
13, 1291800, Note_on_c, 12, 60, 127
13, 1291915, Note_off_c, 12, 60, 64
13, 1291920, Note_on_c, 12, 51, 127
13, 1292035, Note_off_c, 12, 51, 64
13, 1292040, Note_on_c, 12, 51, 127
13, 1292155, Note_off_c, 12, 51, 64
13, 1292160, Note_on_c, 12, 60, 127
13, 1292275, Note_off_c, 12, 60, 64
13, 1292280, Note_on_c, 12, 60, 127
13, 1292395, Note_off_c, 12, 60, 64
13, 1292400, Note_on_c, 12, 51, 127
13, 1292515, Note_off_c, 12, 51, 64
13, 1292520, Note_on_c, 12, 51, 127
13, 1292635, Note_off_c, 12, 51, 64
13, 1292640, Note_on_c, 12, 61, 127
13, 1292755, Note_off_c, 12, 61, 64
13, 1292760, Note_on_c, 12, 61, 127
13, 1292875, Note_off_c, 12, 61, 64
13, 1292880, Note_on_c, 12, 51, 127
13, 1292995, Note_off_c, 12, 51, 64
13, 1293000, Note_on_c, 12, 51, 127
13, 1293115, Note_off_c, 12, 51, 64
13, 1293120, Note_on_c, 12, 60, 127
13, 1293235, Note_off_c, 12, 60, 64
13, 1293240, Note_on_c, 12, 60, 127
13, 1293355, Note_off_c, 12, 60, 64
13, 1293360, Note_on_c, 12, 51, 127
13, 1293475, Note_off_c, 12, 51, 64
13, 1293480, Note_on_c, 12, 51, 127
13, 1293595, Note_off_c, 12, 51, 64
13, 1293600, Note_on_c, 12, 60, 127
13, 1293715, Note_off_c, 12, 60, 64
13, 1293720, Note_on_c, 12, 60, 127
13, 1293835, Note_off_c, 12, 60, 64
13, 1293840, Note_on_c, 12, 51, 127
13, 1293955, Note_off_c, 12, 51, 64
13, 1293960, Note_on_c, 12, 51, 127
13, 1294075, Note_off_c, 12, 51, 64
13, 1294080, Note_on_c, 12, 60, 127
13, 1294195, Note_off_c, 12, 60, 64
13, 1294200, Note_on_c, 12, 60, 127
13, 1294315, Note_off_c, 12, 60, 64
13, 1294320, Note_on_c, 12, 51, 127
13, 1294435, Note_off_c, 12, 51, 64
13, 1294440, Note_on_c, 12, 51, 127
13, 1294555, Note_off_c, 12, 51, 64
13, 1294560, Note_on_c, 12, 60, 127
13, 1294675, Note_off_c, 12, 60, 64
13, 1294680, Note_on_c, 12, 60, 127
13, 1294795, Note_off_c, 12, 60, 64
13, 1294800, Note_on_c, 12, 48, 127
13, 1294915, Note_off_c, 12, 48, 64
13, 1294920, Note_on_c, 12, 48, 127
13, 1295035, Note_off_c, 12, 48, 64
13, 1295040, Note_on_c, 12, 60, 127
13, 1295155, Note_off_c, 12, 60, 64
13, 1295160, Note_on_c, 12, 60, 127
13, 1295275, Note_off_c, 12, 60, 64
13, 1295280, Note_on_c, 12, 48, 127
13, 1295395, Note_off_c, 12, 48, 64
13, 1295400, Note_on_c, 12, 48, 127
13, 1295515, Note_off_c, 12, 48, 64
13, 1295520, Note_on_c, 12, 60, 127
13, 1295635, Note_off_c, 12, 60, 64
13, 1295640, Note_on_c, 12, 60, 127
13, 1295755, Note_off_c, 12, 60, 64
13, 1295760, Note_on_c, 12, 48, 127
13, 1295875, Note_off_c, 12, 48, 64
13, 1295880, Note_on_c, 12, 48, 127
13, 1295995, Note_off_c, 12, 48, 64
13, 1296000, Note_on_c, 12, 60, 127
13, 1296115, Note_off_c, 12, 60, 64
13, 1296120, Note_on_c, 12, 60, 127
13, 1296235, Note_off_c, 12, 60, 64
13, 1296240, Note_on_c, 12, 51, 127
13, 1296355, Note_off_c, 12, 51, 64
13, 1296360, Note_on_c, 12, 51, 127
13, 1296475, Note_off_c, 12, 51, 64
13, 1296480, Note_on_c, 12, 60, 127
13, 1296595, Note_off_c, 12, 60, 64
13, 1296600, Note_on_c, 12, 60, 127
13, 1296715, Note_off_c, 12, 60, 64
13, 1296720, Note_on_c, 12, 53, 127
13, 1296835, Note_off_c, 12, 53, 64
13, 1296840, Note_on_c, 12, 53, 127
13, 1296955, Note_off_c, 12, 53, 64
13, 1296960, Note_on_c, 12, 61, 127
13, 1297075, Note_off_c, 12, 61, 64
13, 1297080, Note_on_c, 12, 61, 127
13, 1297195, Note_off_c, 12, 61, 64
13, 1297200, Note_on_c, 12, 53, 127
13, 1297315, Note_off_c, 12, 53, 64
13, 1297320, Note_on_c, 12, 53, 127
13, 1297435, Note_off_c, 12, 53, 64
13, 1297440, Note_on_c, 12, 61, 127
13, 1297555, Note_off_c, 12, 61, 64
13, 1297560, Note_on_c, 12, 61, 127
13, 1297675, Note_off_c, 12, 61, 64
13, 1297680, Note_on_c, 12, 53, 127
13, 1297795, Note_off_c, 12, 53, 64
13, 1297800, Note_on_c, 12, 53, 127
13, 1297915, Note_off_c, 12, 53, 64
13, 1297920, Note_on_c, 12, 61, 127
13, 1298035, Note_off_c, 12, 61, 64
13, 1298040, Note_on_c, 12, 61, 127
13, 1298155, Note_off_c, 12, 61, 64
13, 1298160, Note_on_c, 12, 54, 127
13, 1298275, Note_off_c, 12, 54, 64
13, 1298280, Note_on_c, 12, 54, 127
13, 1298395, Note_off_c, 12, 54, 64
13, 1298400, Note_on_c, 12, 60, 127
13, 1298515, Note_off_c, 12, 60, 64
13, 1298520, Note_on_c, 12, 60, 127
13, 1298635, Note_off_c, 12, 60, 64
13, 1298640, Note_on_c, 12, 53, 127
13, 1298755, Note_off_c, 12, 53, 64
13, 1298760, Note_on_c, 12, 53, 127
13, 1298875, Note_off_c, 12, 53, 64
13, 1298880, Note_on_c, 12, 61, 127
13, 1298995, Note_off_c, 12, 61, 64
13, 1299000, Note_on_c, 12, 61, 127
13, 1299115, Note_off_c, 12, 61, 64
13, 1299120, Note_on_c, 12, 53, 127
13, 1299235, Note_off_c, 12, 53, 64
13, 1299240, Note_on_c, 12, 53, 127
13, 1299355, Note_off_c, 12, 53, 64
13, 1299360, Note_on_c, 12, 61, 127
13, 1299475, Note_off_c, 12, 61, 64
13, 1299480, Note_on_c, 12, 61, 127
13, 1299595, Note_off_c, 12, 61, 64
13, 1299600, Note_on_c, 12, 53, 127
13, 1299715, Note_off_c, 12, 53, 64
13, 1299720, Note_on_c, 12, 53, 127
13, 1299835, Note_off_c, 12, 53, 64
13, 1299840, Note_on_c, 12, 61, 127
13, 1299955, Note_off_c, 12, 61, 64
13, 1299960, Note_on_c, 12, 61, 127
13, 1300075, Note_off_c, 12, 61, 64
13, 1300080, Note_on_c, 12, 53, 127
13, 1300195, Note_off_c, 12, 53, 64
13, 1300200, Note_on_c, 12, 53, 127
13, 1300315, Note_off_c, 12, 53, 64
13, 1300320, Note_on_c, 12, 59, 127
13, 1300435, Note_off_c, 12, 59, 64
13, 1300440, Note_on_c, 12, 59, 127
13, 1300555, Note_off_c, 12, 59, 64
13, 1300560, Note_on_c, 12, 50, 127
13, 1300675, Note_off_c, 12, 50, 64
13, 1300680, Note_on_c, 12, 50, 127
13, 1300795, Note_off_c, 12, 50, 64
13, 1300800, Note_on_c, 12, 58, 127
13, 1300915, Note_off_c, 12, 58, 64
13, 1300920, Note_on_c, 12, 58, 127
13, 1301035, Note_off_c, 12, 58, 64
13, 1301040, Note_on_c, 12, 50, 127
13, 1301155, Note_off_c, 12, 50, 64
13, 1301160, Note_on_c, 12, 50, 127
13, 1301275, Note_off_c, 12, 50, 64
13, 1301280, Note_on_c, 12, 58, 127
13, 1301395, Note_off_c, 12, 58, 64
13, 1301400, Note_on_c, 12, 58, 127
13, 1301515, Note_off_c, 12, 58, 64
13, 1301520, Note_on_c, 12, 50, 127
13, 1301635, Note_off_c, 12, 50, 64
13, 1301640, Note_on_c, 12, 50, 127
13, 1301755, Note_off_c, 12, 50, 64
13, 1301760, Note_on_c, 12, 58, 127
13, 1301875, Note_off_c, 12, 58, 64
13, 1301880, Note_on_c, 12, 58, 127
13, 1301995, Note_off_c, 12, 58, 64
13, 1302000, Note_on_c, 12, 50, 127
13, 1302115, Note_off_c, 12, 50, 64
13, 1302120, Note_on_c, 12, 50, 127
13, 1302235, Note_off_c, 12, 50, 64
13, 1302240, Note_on_c, 12, 58, 127
13, 1302355, Note_off_c, 12, 58, 64
13, 1302360, Note_on_c, 12, 58, 127
13, 1302475, Note_off_c, 12, 58, 64
13, 1302480, Note_on_c, 12, 50, 127
13, 1302595, Note_off_c, 12, 50, 64
13, 1302600, Note_on_c, 12, 50, 127
13, 1302715, Note_off_c, 12, 50, 64
13, 1302720, Note_on_c, 12, 58, 127
13, 1302835, Note_off_c, 12, 58, 64
13, 1302840, Note_on_c, 12, 58, 127
13, 1302955, Note_off_c, 12, 58, 64
13, 1302960, Note_on_c, 12, 50, 127
13, 1303075, Note_off_c, 12, 50, 64
13, 1303080, Note_on_c, 12, 50, 127
13, 1303195, Note_off_c, 12, 50, 64
13, 1303200, Note_on_c, 12, 58, 127
13, 1303315, Note_off_c, 12, 58, 64
13, 1303320, Note_on_c, 12, 58, 127
13, 1303435, Note_off_c, 12, 58, 64
13, 1303440, Note_on_c, 12, 50, 127
13, 1303555, Note_off_c, 12, 50, 64
13, 1303560, Note_on_c, 12, 50, 127
13, 1303675, Note_off_c, 12, 50, 64
13, 1303680, Note_on_c, 12, 58, 127
13, 1303795, Note_off_c, 12, 58, 64
13, 1303800, Note_on_c, 12, 58, 127
13, 1303915, Note_off_c, 12, 58, 64
13, 1303920, Note_on_c, 12, 50, 127
13, 1304035, Note_off_c, 12, 50, 64
13, 1304040, Note_on_c, 12, 50, 127
13, 1304155, Note_off_c, 12, 50, 64
13, 1304160, Note_on_c, 12, 58, 127
13, 1304275, Note_off_c, 12, 58, 64
13, 1304280, Note_on_c, 12, 58, 127
13, 1304395, Note_off_c, 12, 58, 64
13, 1304400, Note_on_c, 12, 54, 127
13, 1304515, Note_off_c, 12, 54, 64
13, 1304520, Note_on_c, 12, 54, 127
13, 1304635, Note_off_c, 12, 54, 64
13, 1304640, Note_on_c, 12, 63, 127
13, 1304755, Note_off_c, 12, 63, 64
13, 1304760, Note_on_c, 12, 63, 127
13, 1304875, Note_off_c, 12, 63, 64
13, 1304880, Note_on_c, 12, 54, 127
13, 1304995, Note_off_c, 12, 54, 64
13, 1305000, Note_on_c, 12, 54, 127
13, 1305115, Note_off_c, 12, 54, 64
13, 1305120, Note_on_c, 12, 63, 127
13, 1305235, Note_off_c, 12, 63, 64
13, 1305240, Note_on_c, 12, 63, 127
13, 1305355, Note_off_c, 12, 63, 64
13, 1305360, Note_on_c, 12, 54, 127
13, 1305475, Note_off_c, 12, 54, 64
13, 1305480, Note_on_c, 12, 54, 127
13, 1305595, Note_off_c, 12, 54, 64
13, 1305600, Note_on_c, 12, 63, 127
13, 1305715, Note_off_c, 12, 63, 64
13, 1305720, Note_on_c, 12, 63, 127
13, 1305835, Note_off_c, 12, 63, 64
13, 1305840, Note_on_c, 12, 56, 127
13, 1305955, Note_off_c, 12, 56, 64
13, 1305960, Note_on_c, 12, 56, 127
13, 1306075, Note_off_c, 12, 56, 64
13, 1306080, Note_on_c, 12, 65, 127
13, 1306195, Note_off_c, 12, 65, 64
13, 1306200, Note_on_c, 12, 65, 127
13, 1306315, Note_off_c, 12, 65, 64
13, 1306320, Note_on_c, 12, 54, 127
13, 1306435, Note_off_c, 12, 54, 64
13, 1306440, Note_on_c, 12, 54, 127
13, 1306555, Note_off_c, 12, 54, 64
13, 1306560, Note_on_c, 12, 63, 127
13, 1306675, Note_off_c, 12, 63, 64
13, 1306680, Note_on_c, 12, 63, 127
13, 1306795, Note_off_c, 12, 63, 64
13, 1306800, Note_on_c, 12, 54, 127
13, 1306915, Note_off_c, 12, 54, 64
13, 1306920, Note_on_c, 12, 54, 127
13, 1307035, Note_off_c, 12, 54, 64
13, 1307040, Note_on_c, 12, 63, 127
13, 1307155, Note_off_c, 12, 63, 64
13, 1307160, Note_on_c, 12, 63, 127
13, 1307275, Note_off_c, 12, 63, 64
13, 1307280, Note_on_c, 12, 54, 127
13, 1307395, Note_off_c, 12, 54, 64
13, 1307400, Note_on_c, 12, 54, 127
13, 1307515, Note_off_c, 12, 54, 64
13, 1307520, Note_on_c, 12, 63, 127
13, 1307635, Note_off_c, 12, 63, 64
13, 1307640, Note_on_c, 12, 63, 127
13, 1307755, Note_off_c, 12, 63, 64
13, 1307760, Note_on_c, 12, 51, 127
13, 1307760, Note_on_c, 12, 54, 127
13, 1307875, Note_off_c, 12, 54, 64
13, 1307875, Note_off_c, 12, 51, 64
13, 1307880, Note_on_c, 12, 51, 127
13, 1307880, Note_on_c, 12, 54, 127
13, 1307995, Note_off_c, 12, 54, 64
13, 1307995, Note_off_c, 12, 51, 64
13, 1308000, Note_on_c, 12, 51, 127
13, 1308000, Note_on_c, 12, 54, 127
13, 1308115, Note_off_c, 12, 54, 64
13, 1308115, Note_off_c, 12, 51, 64
13, 1308120, Note_on_c, 12, 51, 127
13, 1308120, Note_on_c, 12, 54, 127
13, 1308235, Note_off_c, 12, 54, 64
13, 1308235, Note_off_c, 12, 51, 64
13, 1308240, Note_on_c, 12, 49, 127
13, 1308240, Note_on_c, 12, 53, 127
13, 1308640, Note_off_c, 12, 53, 64
13, 1308640, Note_off_c, 12, 49, 64
13, 1319760, Note_on_c, 12, 58, 75
13, 1319760, Note_on_c, 12, 61, 75
13, 1319875, Note_off_c, 12, 61, 64
13, 1319875, Note_off_c, 12, 58, 64
13, 1319880, Note_on_c, 12, 58, 75
13, 1319880, Note_on_c, 12, 61, 75
13, 1319995, Note_off_c, 12, 61, 64
13, 1319995, Note_off_c, 12, 58, 64
13, 1320000, Note_on_c, 12, 58, 75
13, 1320000, Note_on_c, 12, 61, 75
13, 1320115, Note_off_c, 12, 61, 64
13, 1320115, Note_off_c, 12, 58, 64
13, 1320120, Note_on_c, 12, 58, 75
13, 1320120, Note_on_c, 12, 61, 75
13, 1320235, Note_off_c, 12, 61, 64
13, 1320235, Note_off_c, 12, 58, 64
13, 1320240, Note_on_c, 12, 58, 75
13, 1320240, Note_on_c, 12, 61, 75
13, 1320355, Note_off_c, 12, 61, 64
13, 1320355, Note_off_c, 12, 58, 64
13, 1320360, Note_on_c, 12, 58, 75
13, 1320360, Note_on_c, 12, 61, 75
13, 1320475, Note_off_c, 12, 61, 64
13, 1320475, Note_off_c, 12, 58, 64
13, 1320480, Note_on_c, 12, 58, 75
13, 1320480, Note_on_c, 12, 61, 75
13, 1320595, Note_off_c, 12, 61, 64
13, 1320595, Note_off_c, 12, 58, 64
13, 1320600, Note_on_c, 12, 58, 75
13, 1320600, Note_on_c, 12, 61, 75
13, 1320715, Note_off_c, 12, 61, 64
13, 1320715, Note_off_c, 12, 58, 64
13, 1320720, Note_on_c, 12, 58, 45
13, 1320720, Note_on_c, 12, 61, 45
13, 1320835, Note_off_c, 12, 61, 64
13, 1320835, Note_off_c, 12, 58, 64
13, 1320840, Note_on_c, 12, 58, 45
13, 1320840, Note_on_c, 12, 61, 45
13, 1320955, Note_off_c, 12, 61, 64
13, 1320955, Note_off_c, 12, 58, 64
13, 1320960, Note_on_c, 12, 58, 45
13, 1320960, Note_on_c, 12, 61, 45
13, 1321075, Note_off_c, 12, 61, 64
13, 1321075, Note_off_c, 12, 58, 64
13, 1321080, Note_on_c, 12, 58, 45
13, 1321080, Note_on_c, 12, 61, 45
13, 1321195, Note_off_c, 12, 61, 64
13, 1321195, Note_off_c, 12, 58, 64
13, 1321200, Note_on_c, 12, 58, 45
13, 1321200, Note_on_c, 12, 61, 45
13, 1321315, Note_off_c, 12, 61, 64
13, 1321315, Note_off_c, 12, 58, 64
13, 1321320, Note_on_c, 12, 58, 45
13, 1321320, Note_on_c, 12, 61, 45
13, 1321435, Note_off_c, 12, 61, 64
13, 1321435, Note_off_c, 12, 58, 64
13, 1321440, Note_on_c, 12, 58, 45
13, 1321440, Note_on_c, 12, 61, 45
13, 1321555, Note_off_c, 12, 61, 64
13, 1321555, Note_off_c, 12, 58, 64
13, 1321560, Note_on_c, 12, 58, 45
13, 1321560, Note_on_c, 12, 61, 45
13, 1321675, Note_off_c, 12, 61, 64
13, 1321675, Note_off_c, 12, 58, 64
13, 1321680, Note_on_c, 12, 58, 45
13, 1321680, Note_on_c, 12, 61, 45
13, 1321795, Note_off_c, 12, 61, 64
13, 1321795, Note_off_c, 12, 58, 64
13, 1321800, Note_on_c, 12, 58, 45
13, 1321800, Note_on_c, 12, 61, 45
13, 1321915, Note_off_c, 12, 61, 64
13, 1321915, Note_off_c, 12, 58, 64
13, 1321920, Note_on_c, 12, 58, 45
13, 1321920, Note_on_c, 12, 61, 45
13, 1322035, Note_off_c, 12, 61, 64
13, 1322035, Note_off_c, 12, 58, 64
13, 1322040, Note_on_c, 12, 58, 45
13, 1322040, Note_on_c, 12, 61, 45
13, 1322155, Note_off_c, 12, 61, 64
13, 1322155, Note_off_c, 12, 58, 64
13, 1322160, Note_on_c, 12, 58, 45
13, 1322160, Note_on_c, 12, 61, 45
13, 1322275, Note_off_c, 12, 61, 64
13, 1322275, Note_off_c, 12, 58, 64
13, 1322280, Note_on_c, 12, 58, 45
13, 1322280, Note_on_c, 12, 61, 45
13, 1322395, Note_off_c, 12, 61, 64
13, 1322395, Note_off_c, 12, 58, 64
13, 1322400, Note_on_c, 12, 58, 45
13, 1322400, Note_on_c, 12, 61, 45
13, 1322515, Note_off_c, 12, 61, 64
13, 1322515, Note_off_c, 12, 58, 64
13, 1322520, Note_on_c, 12, 58, 45
13, 1322520, Note_on_c, 12, 61, 45
13, 1322635, Note_off_c, 12, 61, 64
13, 1322635, Note_off_c, 12, 58, 64
13, 1322640, Note_on_c, 12, 58, 45
13, 1322640, Note_on_c, 12, 61, 45
13, 1322755, Note_off_c, 12, 61, 64
13, 1322755, Note_off_c, 12, 58, 64
13, 1322760, Note_on_c, 12, 58, 45
13, 1322760, Note_on_c, 12, 61, 45
13, 1322875, Note_off_c, 12, 61, 64
13, 1322875, Note_off_c, 12, 58, 64
13, 1322880, Note_on_c, 12, 58, 45
13, 1322880, Note_on_c, 12, 61, 45
13, 1322995, Note_off_c, 12, 61, 64
13, 1322995, Note_off_c, 12, 58, 64
13, 1323000, Note_on_c, 12, 58, 45
13, 1323000, Note_on_c, 12, 61, 45
13, 1323115, Note_off_c, 12, 61, 64
13, 1323115, Note_off_c, 12, 58, 64
13, 1323120, Note_on_c, 12, 58, 45
13, 1323120, Note_on_c, 12, 61, 45
13, 1323235, Note_off_c, 12, 61, 64
13, 1323235, Note_off_c, 12, 58, 64
13, 1323240, Note_on_c, 12, 58, 45
13, 1323240, Note_on_c, 12, 61, 45
13, 1323355, Note_off_c, 12, 61, 64
13, 1323355, Note_off_c, 12, 58, 64
13, 1323360, Note_on_c, 12, 58, 45
13, 1323360, Note_on_c, 12, 61, 45
13, 1323475, Note_off_c, 12, 61, 64
13, 1323475, Note_off_c, 12, 58, 64
13, 1323480, Note_on_c, 12, 58, 45
13, 1323480, Note_on_c, 12, 61, 45
13, 1323595, Note_off_c, 12, 61, 64
13, 1323595, Note_off_c, 12, 58, 64
13, 1323600, Note_on_c, 12, 58, 45
13, 1323600, Note_on_c, 12, 61, 45
13, 1323715, Note_off_c, 12, 61, 64
13, 1323715, Note_off_c, 12, 58, 64
13, 1323720, Note_on_c, 12, 58, 45
13, 1323720, Note_on_c, 12, 61, 45
13, 1323835, Note_off_c, 12, 61, 64
13, 1323835, Note_off_c, 12, 58, 64
13, 1323840, Note_on_c, 12, 58, 45
13, 1323840, Note_on_c, 12, 61, 45
13, 1323955, Note_off_c, 12, 61, 64
13, 1323955, Note_off_c, 12, 58, 64
13, 1323960, Note_on_c, 12, 58, 46
13, 1323960, Note_on_c, 12, 61, 46
13, 1324075, Note_off_c, 12, 61, 64
13, 1324075, Note_off_c, 12, 58, 64
13, 1324080, Note_on_c, 12, 58, 46
13, 1324080, Note_on_c, 12, 61, 46
13, 1324195, Note_off_c, 12, 61, 64
13, 1324195, Note_off_c, 12, 58, 64
13, 1324200, Note_on_c, 12, 58, 47
13, 1324200, Note_on_c, 12, 61, 47
13, 1324315, Note_off_c, 12, 61, 64
13, 1324315, Note_off_c, 12, 58, 64
13, 1324320, Note_on_c, 12, 58, 48
13, 1324320, Note_on_c, 12, 61, 48
13, 1324435, Note_off_c, 12, 61, 64
13, 1324435, Note_off_c, 12, 58, 64
13, 1324440, Note_on_c, 12, 58, 49
13, 1324440, Note_on_c, 12, 61, 49
13, 1324555, Note_off_c, 12, 61, 64
13, 1324555, Note_off_c, 12, 58, 64
13, 1324560, Note_on_c, 12, 58, 50
13, 1324560, Note_on_c, 12, 61, 50
13, 1324675, Note_off_c, 12, 61, 64
13, 1324675, Note_off_c, 12, 58, 64
13, 1324680, Note_on_c, 12, 58, 51
13, 1324680, Note_on_c, 12, 61, 51
13, 1324795, Note_off_c, 12, 61, 64
13, 1324795, Note_off_c, 12, 58, 64
13, 1324800, Note_on_c, 12, 58, 52
13, 1324800, Note_on_c, 12, 61, 52
13, 1324915, Note_off_c, 12, 61, 64
13, 1324915, Note_off_c, 12, 58, 64
13, 1324920, Note_on_c, 12, 58, 53
13, 1324920, Note_on_c, 12, 61, 53
13, 1325035, Note_off_c, 12, 61, 64
13, 1325035, Note_off_c, 12, 58, 64
13, 1325040, Note_on_c, 12, 58, 54
13, 1325040, Note_on_c, 12, 61, 54
13, 1325155, Note_off_c, 12, 61, 64
13, 1325155, Note_off_c, 12, 58, 64
13, 1325160, Note_on_c, 12, 58, 55
13, 1325160, Note_on_c, 12, 61, 55
13, 1325275, Note_off_c, 12, 61, 64
13, 1325275, Note_off_c, 12, 58, 64
13, 1325280, Note_on_c, 12, 58, 56
13, 1325280, Note_on_c, 12, 61, 56
13, 1325395, Note_off_c, 12, 61, 64
13, 1325395, Note_off_c, 12, 58, 64
13, 1325400, Note_on_c, 12, 58, 57
13, 1325400, Note_on_c, 12, 61, 57
13, 1325515, Note_off_c, 12, 61, 64
13, 1325515, Note_off_c, 12, 58, 64
13, 1325520, Note_on_c, 12, 58, 58
13, 1325520, Note_on_c, 12, 61, 58
13, 1325635, Note_off_c, 12, 61, 64
13, 1325635, Note_off_c, 12, 58, 64
13, 1325640, Note_on_c, 12, 58, 59
13, 1325640, Note_on_c, 12, 61, 59
13, 1325755, Note_off_c, 12, 61, 64
13, 1325755, Note_off_c, 12, 58, 64
13, 1325760, Note_on_c, 12, 58, 60
13, 1325760, Note_on_c, 12, 61, 60
13, 1325875, Note_off_c, 12, 61, 64
13, 1325875, Note_off_c, 12, 58, 64
13, 1325880, Note_on_c, 12, 58, 61
13, 1325880, Note_on_c, 12, 61, 61
13, 1325995, Note_off_c, 12, 61, 64
13, 1325995, Note_off_c, 12, 58, 64
13, 1326000, Note_on_c, 12, 58, 62
13, 1326000, Note_on_c, 12, 61, 62
13, 1326115, Note_off_c, 12, 61, 64
13, 1326115, Note_off_c, 12, 58, 64
13, 1326120, Note_on_c, 12, 58, 63
13, 1326120, Note_on_c, 12, 61, 63
13, 1326235, Note_off_c, 12, 61, 64
13, 1326235, Note_off_c, 12, 58, 64
13, 1326240, Note_on_c, 12, 58, 64
13, 1326240, Note_on_c, 12, 61, 64
13, 1326355, Note_off_c, 12, 61, 64
13, 1326355, Note_off_c, 12, 58, 64
13, 1326360, Note_on_c, 12, 58, 65
13, 1326360, Note_on_c, 12, 61, 65
13, 1326475, Note_off_c, 12, 61, 64
13, 1326475, Note_off_c, 12, 58, 64
13, 1326480, Note_on_c, 12, 58, 66
13, 1326480, Note_on_c, 12, 61, 66
13, 1326595, Note_off_c, 12, 61, 64
13, 1326595, Note_off_c, 12, 58, 64
13, 1326600, Note_on_c, 12, 58, 67
13, 1326600, Note_on_c, 12, 61, 67
13, 1326715, Note_off_c, 12, 61, 64
13, 1326715, Note_off_c, 12, 58, 64
13, 1326720, Note_on_c, 12, 58, 68
13, 1326720, Note_on_c, 12, 61, 68
13, 1326835, Note_off_c, 12, 61, 64
13, 1326835, Note_off_c, 12, 58, 64
13, 1326840, Note_on_c, 12, 58, 69
13, 1326840, Note_on_c, 12, 61, 69
13, 1326955, Note_off_c, 12, 61, 64
13, 1326955, Note_off_c, 12, 58, 64
13, 1326960, Note_on_c, 12, 58, 70
13, 1326960, Note_on_c, 12, 61, 70
13, 1327075, Note_off_c, 12, 61, 64
13, 1327075, Note_off_c, 12, 58, 64
13, 1327080, Note_on_c, 12, 58, 71
13, 1327080, Note_on_c, 12, 61, 71
13, 1327195, Note_off_c, 12, 61, 64
13, 1327195, Note_off_c, 12, 58, 64
13, 1327200, Note_on_c, 12, 58, 72
13, 1327200, Note_on_c, 12, 61, 72
13, 1327315, Note_off_c, 12, 61, 64
13, 1327315, Note_off_c, 12, 58, 64
13, 1327320, Note_on_c, 12, 58, 73
13, 1327320, Note_on_c, 12, 61, 73
13, 1327435, Note_off_c, 12, 61, 64
13, 1327435, Note_off_c, 12, 58, 64
13, 1327440, Note_on_c, 12, 58, 75
13, 1327440, Note_on_c, 12, 61, 75
13, 1327555, Note_off_c, 12, 61, 64
13, 1327555, Note_off_c, 12, 58, 64
13, 1327560, Note_on_c, 12, 58, 75
13, 1327560, Note_on_c, 12, 61, 75
13, 1327675, Note_off_c, 12, 61, 64
13, 1327675, Note_off_c, 12, 58, 64
13, 1327680, Note_on_c, 12, 58, 75
13, 1327680, Note_on_c, 12, 61, 75
13, 1327795, Note_off_c, 12, 61, 64
13, 1327795, Note_off_c, 12, 58, 64
13, 1327800, Note_on_c, 12, 58, 75
13, 1327800, Note_on_c, 12, 61, 75
13, 1327915, Note_off_c, 12, 61, 64
13, 1327915, Note_off_c, 12, 58, 64
13, 1327920, Note_on_c, 12, 58, 45
13, 1327920, Note_on_c, 12, 61, 45
13, 1328035, Note_off_c, 12, 61, 64
13, 1328035, Note_off_c, 12, 58, 64
13, 1328040, Note_on_c, 12, 58, 45
13, 1328040, Note_on_c, 12, 61, 45
13, 1328155, Note_off_c, 12, 61, 64
13, 1328155, Note_off_c, 12, 58, 64
13, 1328160, Note_on_c, 12, 58, 45
13, 1328160, Note_on_c, 12, 61, 45
13, 1328275, Note_off_c, 12, 61, 64
13, 1328275, Note_off_c, 12, 58, 64
13, 1328280, Note_on_c, 12, 58, 45
13, 1328280, Note_on_c, 12, 61, 45
13, 1328395, Note_off_c, 12, 61, 64
13, 1328395, Note_off_c, 12, 58, 64
13, 1328400, Note_on_c, 12, 58, 45
13, 1328400, Note_on_c, 12, 61, 45
13, 1328515, Note_off_c, 12, 61, 64
13, 1328515, Note_off_c, 12, 58, 64
13, 1328520, Note_on_c, 12, 58, 45
13, 1328520, Note_on_c, 12, 61, 45
13, 1328635, Note_off_c, 12, 61, 64
13, 1328635, Note_off_c, 12, 58, 64
13, 1328640, Note_on_c, 12, 58, 45
13, 1328640, Note_on_c, 12, 61, 45
13, 1328755, Note_off_c, 12, 61, 64
13, 1328755, Note_off_c, 12, 58, 64
13, 1328760, Note_on_c, 12, 58, 45
13, 1328760, Note_on_c, 12, 61, 45
13, 1328875, Note_off_c, 12, 61, 64
13, 1328875, Note_off_c, 12, 58, 64
13, 1328880, Note_on_c, 12, 58, 45
13, 1328880, Note_on_c, 12, 61, 45
13, 1328995, Note_off_c, 12, 61, 64
13, 1328995, Note_off_c, 12, 58, 64
13, 1329000, Note_on_c, 12, 58, 45
13, 1329000, Note_on_c, 12, 61, 45
13, 1329115, Note_off_c, 12, 61, 64
13, 1329115, Note_off_c, 12, 58, 64
13, 1329120, Note_on_c, 12, 58, 45
13, 1329120, Note_on_c, 12, 61, 45
13, 1329235, Note_off_c, 12, 61, 64
13, 1329235, Note_off_c, 12, 58, 64
13, 1329240, Note_on_c, 12, 58, 45
13, 1329240, Note_on_c, 12, 61, 45
13, 1329355, Note_off_c, 12, 61, 64
13, 1329355, Note_off_c, 12, 58, 64
13, 1329360, Note_on_c, 12, 58, 45
13, 1329360, Note_on_c, 12, 61, 45
13, 1329475, Note_off_c, 12, 61, 64
13, 1329475, Note_off_c, 12, 58, 64
13, 1329480, Note_on_c, 12, 58, 45
13, 1329480, Note_on_c, 12, 61, 45
13, 1329595, Note_off_c, 12, 61, 64
13, 1329595, Note_off_c, 12, 58, 64
13, 1329600, Note_on_c, 12, 58, 45
13, 1329600, Note_on_c, 12, 61, 45
13, 1329715, Note_off_c, 12, 61, 64
13, 1329715, Note_off_c, 12, 58, 64
13, 1329720, Note_on_c, 12, 58, 45
13, 1329720, Note_on_c, 12, 61, 45
13, 1329835, Note_off_c, 12, 61, 64
13, 1329835, Note_off_c, 12, 58, 64
13, 1329840, Note_on_c, 12, 58, 45
13, 1329840, Note_on_c, 12, 61, 45
13, 1329955, Note_off_c, 12, 61, 64
13, 1329955, Note_off_c, 12, 58, 64
13, 1329960, Note_on_c, 12, 58, 45
13, 1329960, Note_on_c, 12, 61, 45
13, 1330075, Note_off_c, 12, 61, 64
13, 1330075, Note_off_c, 12, 58, 64
13, 1330080, Note_on_c, 12, 58, 45
13, 1330080, Note_on_c, 12, 61, 45
13, 1330195, Note_off_c, 12, 61, 64
13, 1330195, Note_off_c, 12, 58, 64
13, 1330200, Note_on_c, 12, 58, 45
13, 1330200, Note_on_c, 12, 61, 45
13, 1330315, Note_off_c, 12, 61, 64
13, 1330315, Note_off_c, 12, 58, 64
13, 1330320, Note_on_c, 12, 58, 45
13, 1330320, Note_on_c, 12, 61, 45
13, 1330435, Note_off_c, 12, 61, 64
13, 1330435, Note_off_c, 12, 58, 64
13, 1330440, Note_on_c, 12, 58, 45
13, 1330440, Note_on_c, 12, 61, 45
13, 1330555, Note_off_c, 12, 61, 64
13, 1330555, Note_off_c, 12, 58, 64
13, 1330560, Note_on_c, 12, 58, 45
13, 1330560, Note_on_c, 12, 61, 45
13, 1330675, Note_off_c, 12, 61, 64
13, 1330675, Note_off_c, 12, 58, 64
13, 1330680, Note_on_c, 12, 58, 45
13, 1330680, Note_on_c, 12, 61, 45
13, 1330795, Note_off_c, 12, 61, 64
13, 1330795, Note_off_c, 12, 58, 64
13, 1330800, Note_on_c, 12, 58, 45
13, 1330800, Note_on_c, 12, 61, 45
13, 1330915, Note_off_c, 12, 61, 64
13, 1330915, Note_off_c, 12, 58, 64
13, 1330920, Note_on_c, 12, 58, 45
13, 1330920, Note_on_c, 12, 61, 45
13, 1331035, Note_off_c, 12, 61, 64
13, 1331035, Note_off_c, 12, 58, 64
13, 1331040, Note_on_c, 12, 58, 45
13, 1331040, Note_on_c, 12, 61, 45
13, 1331155, Note_off_c, 12, 61, 64
13, 1331155, Note_off_c, 12, 58, 64
13, 1331160, Note_on_c, 12, 58, 45
13, 1331160, Note_on_c, 12, 61, 45
13, 1331275, Note_off_c, 12, 61, 64
13, 1331275, Note_off_c, 12, 58, 64
13, 1331280, Note_on_c, 12, 58, 45
13, 1331280, Note_on_c, 12, 61, 45
13, 1331395, Note_off_c, 12, 61, 64
13, 1331395, Note_off_c, 12, 58, 64
13, 1331400, Note_on_c, 12, 58, 45
13, 1331400, Note_on_c, 12, 61, 45
13, 1331515, Note_off_c, 12, 61, 64
13, 1331515, Note_off_c, 12, 58, 64
13, 1331520, Note_on_c, 12, 58, 45
13, 1331520, Note_on_c, 12, 61, 45
13, 1331635, Note_off_c, 12, 61, 64
13, 1331635, Note_off_c, 12, 58, 64
13, 1331640, Note_on_c, 12, 58, 45
13, 1331640, Note_on_c, 12, 61, 45
13, 1331755, Note_off_c, 12, 61, 64
13, 1331755, Note_off_c, 12, 58, 64
13, 1331760, Note_on_c, 12, 58, 45
13, 1331760, Note_on_c, 12, 61, 45
13, 1331875, Note_off_c, 12, 61, 64
13, 1331875, Note_off_c, 12, 58, 64
13, 1331880, Note_on_c, 12, 58, 45
13, 1331880, Note_on_c, 12, 61, 45
13, 1331995, Note_off_c, 12, 61, 64
13, 1331995, Note_off_c, 12, 58, 64
13, 1332000, Note_on_c, 12, 58, 45
13, 1332000, Note_on_c, 12, 61, 45
13, 1332115, Note_off_c, 12, 61, 64
13, 1332115, Note_off_c, 12, 58, 64
13, 1332120, Note_on_c, 12, 58, 45
13, 1332120, Note_on_c, 12, 61, 45
13, 1332235, Note_off_c, 12, 61, 64
13, 1332235, Note_off_c, 12, 58, 64
13, 1332240, Note_on_c, 12, 58, 45
13, 1332240, Note_on_c, 12, 61, 45
13, 1332355, Note_off_c, 12, 61, 64
13, 1332355, Note_off_c, 12, 58, 64
13, 1332360, Note_on_c, 12, 58, 45
13, 1332360, Note_on_c, 12, 61, 45
13, 1332475, Note_off_c, 12, 61, 64
13, 1332475, Note_off_c, 12, 58, 64
13, 1332480, Note_on_c, 12, 58, 45
13, 1332480, Note_on_c, 12, 61, 45
13, 1332595, Note_off_c, 12, 61, 64
13, 1332595, Note_off_c, 12, 58, 64
13, 1332600, Note_on_c, 12, 58, 45
13, 1332600, Note_on_c, 12, 61, 45
13, 1332715, Note_off_c, 12, 61, 64
13, 1332715, Note_off_c, 12, 58, 64
13, 1332720, Note_on_c, 12, 58, 45
13, 1332720, Note_on_c, 12, 61, 45
13, 1332835, Note_off_c, 12, 61, 64
13, 1332835, Note_off_c, 12, 58, 64
13, 1332840, Note_on_c, 12, 58, 45
13, 1332840, Note_on_c, 12, 61, 45
13, 1332955, Note_off_c, 12, 61, 64
13, 1332955, Note_off_c, 12, 58, 64
13, 1332960, Note_on_c, 12, 58, 45
13, 1332960, Note_on_c, 12, 61, 45
13, 1333075, Note_off_c, 12, 61, 64
13, 1333075, Note_off_c, 12, 58, 64
13, 1333080, Note_on_c, 12, 58, 45
13, 1333080, Note_on_c, 12, 61, 45
13, 1333195, Note_off_c, 12, 61, 64
13, 1333195, Note_off_c, 12, 58, 64
13, 1333200, Note_on_c, 12, 58, 45
13, 1333200, Note_on_c, 12, 61, 45
13, 1333315, Note_off_c, 12, 61, 64
13, 1333315, Note_off_c, 12, 58, 64
13, 1333320, Note_on_c, 12, 58, 45
13, 1333320, Note_on_c, 12, 61, 45
13, 1333435, Note_off_c, 12, 61, 64
13, 1333435, Note_off_c, 12, 58, 64
13, 1333440, Note_on_c, 12, 58, 45
13, 1333440, Note_on_c, 12, 61, 45
13, 1333555, Note_off_c, 12, 61, 64
13, 1333555, Note_off_c, 12, 58, 64
13, 1333560, Note_on_c, 12, 58, 45
13, 1333560, Note_on_c, 12, 61, 45
13, 1333675, Note_off_c, 12, 61, 64
13, 1333675, Note_off_c, 12, 58, 64
13, 1333680, Note_on_c, 12, 58, 45
13, 1333680, Note_on_c, 12, 61, 45
13, 1333795, Note_off_c, 12, 61, 64
13, 1333795, Note_off_c, 12, 58, 64
13, 1333800, Note_on_c, 12, 58, 45
13, 1333800, Note_on_c, 12, 61, 45
13, 1333915, Note_off_c, 12, 61, 64
13, 1333915, Note_off_c, 12, 58, 64
13, 1333920, Note_on_c, 12, 58, 45
13, 1333920, Note_on_c, 12, 61, 45
13, 1334035, Note_off_c, 12, 61, 64
13, 1334035, Note_off_c, 12, 58, 64
13, 1334040, Note_on_c, 12, 58, 45
13, 1334040, Note_on_c, 12, 61, 45
13, 1334155, Note_off_c, 12, 61, 64
13, 1334155, Note_off_c, 12, 58, 64
13, 1334160, Note_on_c, 12, 58, 45
13, 1334160, Note_on_c, 12, 61, 45
13, 1334275, Note_off_c, 12, 61, 64
13, 1334275, Note_off_c, 12, 58, 64
13, 1334280, Note_on_c, 12, 58, 45
13, 1334280, Note_on_c, 12, 61, 45
13, 1334395, Note_off_c, 12, 61, 64
13, 1334395, Note_off_c, 12, 58, 64
13, 1334400, Note_on_c, 12, 58, 45
13, 1334400, Note_on_c, 12, 61, 45
13, 1334515, Note_off_c, 12, 61, 64
13, 1334515, Note_off_c, 12, 58, 64
13, 1334520, Note_on_c, 12, 58, 45
13, 1334520, Note_on_c, 12, 61, 45
13, 1334635, Note_off_c, 12, 61, 64
13, 1334635, Note_off_c, 12, 58, 64
13, 1334640, Note_on_c, 12, 58, 45
13, 1334640, Note_on_c, 12, 61, 45
13, 1334755, Note_off_c, 12, 61, 64
13, 1334755, Note_off_c, 12, 58, 64
13, 1334760, Note_on_c, 12, 58, 45
13, 1334760, Note_on_c, 12, 61, 45
13, 1334875, Note_off_c, 12, 61, 64
13, 1334875, Note_off_c, 12, 58, 64
13, 1334880, Note_on_c, 12, 58, 45
13, 1334880, Note_on_c, 12, 61, 45
13, 1334995, Note_off_c, 12, 61, 64
13, 1334995, Note_off_c, 12, 58, 64
13, 1335000, Note_on_c, 12, 58, 45
13, 1335000, Note_on_c, 12, 61, 45
13, 1335115, Note_off_c, 12, 61, 64
13, 1335115, Note_off_c, 12, 58, 64
13, 1335120, Note_on_c, 12, 49, 75
13, 1335235, Note_off_c, 12, 49, 64
13, 1335240, Note_on_c, 12, 61, 75
13, 1335355, Note_off_c, 12, 61, 64
13, 1335360, Note_on_c, 12, 61, 75
13, 1335475, Note_off_c, 12, 61, 64
13, 1335480, Note_on_c, 12, 61, 75
13, 1335595, Note_off_c, 12, 61, 64
13, 1335600, Note_on_c, 12, 61, 75
13, 1335715, Note_off_c, 12, 61, 64
13, 1335720, Note_on_c, 12, 61, 75
13, 1335835, Note_off_c, 12, 61, 64
13, 1335840, Note_on_c, 12, 61, 75
13, 1335955, Note_off_c, 12, 61, 64
13, 1335960, Note_on_c, 12, 61, 75
13, 1336075, Note_off_c, 12, 61, 64
13, 1336080, Note_on_c, 12, 61, 75
13, 1336195, Note_off_c, 12, 61, 64
13, 1336200, Note_on_c, 12, 61, 75
13, 1336315, Note_off_c, 12, 61, 64
13, 1336320, Note_on_c, 12, 61, 75
13, 1336435, Note_off_c, 12, 61, 64
13, 1336440, Note_on_c, 12, 61, 75
13, 1336555, Note_off_c, 12, 61, 64
13, 1336560, Note_on_c, 12, 61, 75
13, 1336675, Note_off_c, 12, 61, 64
13, 1336680, Note_on_c, 12, 61, 75
13, 1336795, Note_off_c, 12, 61, 64
13, 1336800, Note_on_c, 12, 61, 75
13, 1336915, Note_off_c, 12, 61, 64
13, 1336920, Note_on_c, 12, 61, 75
13, 1337035, Note_off_c, 12, 61, 64
13, 1337040, Note_on_c, 12, 49, 75
13, 1337155, Note_off_c, 12, 49, 64
13, 1337160, Note_on_c, 12, 61, 75
13, 1337275, Note_off_c, 12, 61, 64
13, 1337280, Note_on_c, 12, 61, 75
13, 1337395, Note_off_c, 12, 61, 64
13, 1337400, Note_on_c, 12, 61, 75
13, 1337515, Note_off_c, 12, 61, 64
13, 1337520, Note_on_c, 12, 61, 75
13, 1337635, Note_off_c, 12, 61, 64
13, 1337640, Note_on_c, 12, 61, 75
13, 1337755, Note_off_c, 12, 61, 64
13, 1337760, Note_on_c, 12, 61, 75
13, 1337875, Note_off_c, 12, 61, 64
13, 1337880, Note_on_c, 12, 61, 75
13, 1337995, Note_off_c, 12, 61, 64
13, 1338000, Note_on_c, 12, 61, 75
13, 1338115, Note_off_c, 12, 61, 64
13, 1338120, Note_on_c, 12, 61, 75
13, 1338235, Note_off_c, 12, 61, 64
13, 1338240, Note_on_c, 12, 61, 75
13, 1338355, Note_off_c, 12, 61, 64
13, 1338360, Note_on_c, 12, 61, 75
13, 1338475, Note_off_c, 12, 61, 64
13, 1338480, Note_on_c, 12, 61, 75
13, 1338595, Note_off_c, 12, 61, 64
13, 1338600, Note_on_c, 12, 61, 75
13, 1338715, Note_off_c, 12, 61, 64
13, 1338720, Note_on_c, 12, 61, 75
13, 1338835, Note_off_c, 12, 61, 64
13, 1338840, Note_on_c, 12, 61, 75
13, 1338955, Note_off_c, 12, 61, 64
13, 1338960, Note_on_c, 12, 53, 75
13, 1339075, Note_off_c, 12, 53, 64
13, 1339080, Note_on_c, 12, 65, 75
13, 1339195, Note_off_c, 12, 65, 64
13, 1339200, Note_on_c, 12, 65, 75
13, 1339315, Note_off_c, 12, 65, 64
13, 1339320, Note_on_c, 12, 65, 75
13, 1339435, Note_off_c, 12, 65, 64
13, 1339440, Note_on_c, 12, 65, 75
13, 1339555, Note_off_c, 12, 65, 64
13, 1339560, Note_on_c, 12, 65, 75
13, 1339675, Note_off_c, 12, 65, 64
13, 1339680, Note_on_c, 12, 65, 75
13, 1339795, Note_off_c, 12, 65, 64
13, 1339800, Note_on_c, 12, 65, 75
13, 1339915, Note_off_c, 12, 65, 64
13, 1339920, Note_on_c, 12, 65, 75
13, 1340035, Note_off_c, 12, 65, 64
13, 1340040, Note_on_c, 12, 65, 75
13, 1340155, Note_off_c, 12, 65, 64
13, 1340160, Note_on_c, 12, 65, 75
13, 1340275, Note_off_c, 12, 65, 64
13, 1340280, Note_on_c, 12, 65, 75
13, 1340395, Note_off_c, 12, 65, 64
13, 1340400, Note_on_c, 12, 65, 75
13, 1340515, Note_off_c, 12, 65, 64
13, 1340520, Note_on_c, 12, 65, 75
13, 1340635, Note_off_c, 12, 65, 64
13, 1340640, Note_on_c, 12, 65, 75
13, 1340755, Note_off_c, 12, 65, 64
13, 1340760, Note_on_c, 12, 65, 75
13, 1340875, Note_off_c, 12, 65, 64
13, 1340880, Note_on_c, 12, 53, 75
13, 1340995, Note_off_c, 12, 53, 64
13, 1341000, Note_on_c, 12, 65, 75
13, 1341115, Note_off_c, 12, 65, 64
13, 1341120, Note_on_c, 12, 65, 75
13, 1341235, Note_off_c, 12, 65, 64
13, 1341240, Note_on_c, 12, 65, 75
13, 1341355, Note_off_c, 12, 65, 64
13, 1341360, Note_on_c, 12, 65, 75
13, 1341475, Note_off_c, 12, 65, 64
13, 1341480, Note_on_c, 12, 65, 75
13, 1341595, Note_off_c, 12, 65, 64
13, 1341600, Note_on_c, 12, 65, 75
13, 1341715, Note_off_c, 12, 65, 64
13, 1341720, Note_on_c, 12, 65, 75
13, 1341835, Note_off_c, 12, 65, 64
13, 1341840, Note_on_c, 12, 65, 75
13, 1341840, Note_on_c, 12, 65, 75
13, 1341955, Note_off_c, 12, 65, 64
13, 1341955, Note_off_c, 12, 65, 64
13, 1341960, Note_on_c, 12, 65, 75
13, 1341960, Note_on_c, 12, 65, 75
13, 1342075, Note_off_c, 12, 65, 64
13, 1342075, Note_off_c, 12, 65, 64
13, 1342080, Note_on_c, 12, 65, 75
13, 1342080, Note_on_c, 12, 65, 75
13, 1342195, Note_off_c, 12, 65, 64
13, 1342195, Note_off_c, 12, 65, 64
13, 1342200, Note_on_c, 12, 65, 75
13, 1342200, Note_on_c, 12, 65, 75
13, 1342315, Note_off_c, 12, 65, 64
13, 1342315, Note_off_c, 12, 65, 64
13, 1342320, Note_on_c, 12, 54, 108
13, 1342320, Note_on_c, 12, 57, 108
13, 1342435, Note_off_c, 12, 57, 64
13, 1342435, Note_off_c, 12, 54, 64
13, 1342440, Note_on_c, 12, 54, 108
13, 1342440, Note_on_c, 12, 57, 108
13, 1342555, Note_off_c, 12, 57, 64
13, 1342555, Note_off_c, 12, 54, 64
13, 1342560, Note_on_c, 12, 54, 108
13, 1342560, Note_on_c, 12, 57, 108
13, 1342675, Note_off_c, 12, 57, 64
13, 1342675, Note_off_c, 12, 54, 64
13, 1342680, Note_on_c, 12, 54, 108
13, 1342680, Note_on_c, 12, 57, 108
13, 1342795, Note_off_c, 12, 57, 64
13, 1342795, Note_off_c, 12, 54, 64
13, 1342800, Note_on_c, 12, 54, 108
13, 1342800, Note_on_c, 12, 57, 108
13, 1342915, Note_off_c, 12, 57, 64
13, 1342915, Note_off_c, 12, 54, 64
13, 1342920, Note_on_c, 12, 54, 108
13, 1342920, Note_on_c, 12, 57, 108
13, 1343035, Note_off_c, 12, 57, 64
13, 1343035, Note_off_c, 12, 54, 64
13, 1343040, Note_on_c, 12, 54, 108
13, 1343040, Note_on_c, 12, 57, 108
13, 1343155, Note_off_c, 12, 57, 64
13, 1343155, Note_off_c, 12, 54, 64
13, 1343160, Note_on_c, 12, 54, 108
13, 1343160, Note_on_c, 12, 57, 108
13, 1343275, Note_off_c, 12, 57, 64
13, 1343275, Note_off_c, 12, 54, 64
13, 1343280, Note_on_c, 12, 54, 108
13, 1343280, Note_on_c, 12, 57, 108
13, 1343395, Note_off_c, 12, 57, 64
13, 1343395, Note_off_c, 12, 54, 64
13, 1343400, Note_on_c, 12, 54, 108
13, 1343400, Note_on_c, 12, 57, 108
13, 1343515, Note_off_c, 12, 57, 64
13, 1343515, Note_off_c, 12, 54, 64
13, 1343520, Note_on_c, 12, 54, 108
13, 1343520, Note_on_c, 12, 57, 108
13, 1343635, Note_off_c, 12, 57, 64
13, 1343635, Note_off_c, 12, 54, 64
13, 1343640, Note_on_c, 12, 54, 108
13, 1343640, Note_on_c, 12, 57, 108
13, 1343755, Note_off_c, 12, 57, 64
13, 1343755, Note_off_c, 12, 54, 64
13, 1343760, Note_on_c, 12, 54, 108
13, 1343760, Note_on_c, 12, 57, 108
13, 1343875, Note_off_c, 12, 57, 64
13, 1343875, Note_off_c, 12, 54, 64
13, 1343880, Note_on_c, 12, 54, 108
13, 1343880, Note_on_c, 12, 57, 108
13, 1343995, Note_off_c, 12, 57, 64
13, 1343995, Note_off_c, 12, 54, 64
13, 1344000, Note_on_c, 12, 54, 108
13, 1344000, Note_on_c, 12, 57, 108
13, 1344115, Note_off_c, 12, 57, 64
13, 1344115, Note_off_c, 12, 54, 64
13, 1344120, Note_on_c, 12, 54, 108
13, 1344120, Note_on_c, 12, 57, 108
13, 1344235, Note_off_c, 12, 57, 64
13, 1344235, Note_off_c, 12, 54, 64
13, 1344240, Note_on_c, 12, 54, 108
13, 1344240, Note_on_c, 12, 57, 108
13, 1344355, Note_off_c, 12, 57, 64
13, 1344355, Note_off_c, 12, 54, 64
13, 1344360, Note_on_c, 12, 54, 108
13, 1344360, Note_on_c, 12, 57, 108
13, 1344475, Note_off_c, 12, 57, 64
13, 1344475, Note_off_c, 12, 54, 64
13, 1344480, Note_on_c, 12, 54, 108
13, 1344480, Note_on_c, 12, 57, 108
13, 1344595, Note_off_c, 12, 57, 64
13, 1344595, Note_off_c, 12, 54, 64
13, 1344600, Note_on_c, 12, 54, 108
13, 1344600, Note_on_c, 12, 57, 108
13, 1344715, Note_off_c, 12, 57, 64
13, 1344715, Note_off_c, 12, 54, 64
13, 1344720, Note_on_c, 12, 54, 108
13, 1344720, Note_on_c, 12, 57, 108
13, 1344835, Note_off_c, 12, 57, 64
13, 1344835, Note_off_c, 12, 54, 64
13, 1344840, Note_on_c, 12, 54, 108
13, 1344840, Note_on_c, 12, 57, 108
13, 1344955, Note_off_c, 12, 57, 64
13, 1344955, Note_off_c, 12, 54, 64
13, 1344960, Note_on_c, 12, 54, 108
13, 1344960, Note_on_c, 12, 57, 108
13, 1345075, Note_off_c, 12, 57, 64
13, 1345075, Note_off_c, 12, 54, 64
13, 1345080, Note_on_c, 12, 54, 108
13, 1345080, Note_on_c, 12, 57, 108
13, 1345195, Note_off_c, 12, 57, 64
13, 1345195, Note_off_c, 12, 54, 64
13, 1345200, Note_on_c, 12, 54, 108
13, 1345200, Note_on_c, 12, 57, 108
13, 1345315, Note_off_c, 12, 57, 64
13, 1345315, Note_off_c, 12, 54, 64
13, 1345320, Note_on_c, 12, 54, 108
13, 1345320, Note_on_c, 12, 57, 108
13, 1345435, Note_off_c, 12, 57, 64
13, 1345435, Note_off_c, 12, 54, 64
13, 1345440, Note_on_c, 12, 54, 108
13, 1345440, Note_on_c, 12, 57, 108
13, 1345555, Note_off_c, 12, 57, 64
13, 1345555, Note_off_c, 12, 54, 64
13, 1345560, Note_on_c, 12, 54, 108
13, 1345560, Note_on_c, 12, 57, 108
13, 1345675, Note_off_c, 12, 57, 64
13, 1345675, Note_off_c, 12, 54, 64
13, 1345680, Note_on_c, 12, 54, 108
13, 1345680, Note_on_c, 12, 57, 108
13, 1345795, Note_off_c, 12, 57, 64
13, 1345795, Note_off_c, 12, 54, 64
13, 1345800, Note_on_c, 12, 54, 108
13, 1345800, Note_on_c, 12, 57, 108
13, 1345915, Note_off_c, 12, 57, 64
13, 1345915, Note_off_c, 12, 54, 64
13, 1345920, Note_on_c, 12, 54, 108
13, 1345920, Note_on_c, 12, 57, 108
13, 1346035, Note_off_c, 12, 57, 64
13, 1346035, Note_off_c, 12, 54, 64
13, 1346040, Note_on_c, 12, 54, 108
13, 1346040, Note_on_c, 12, 57, 108
13, 1346155, Note_off_c, 12, 57, 64
13, 1346155, Note_off_c, 12, 54, 64
13, 1346160, Note_on_c, 12, 54, 108
13, 1346160, Note_on_c, 12, 57, 108
13, 1346275, Note_off_c, 12, 57, 64
13, 1346275, Note_off_c, 12, 54, 64
13, 1346280, Note_on_c, 12, 54, 108
13, 1346280, Note_on_c, 12, 57, 108
13, 1346395, Note_off_c, 12, 57, 64
13, 1346395, Note_off_c, 12, 54, 64
13, 1346400, Note_on_c, 12, 54, 108
13, 1346400, Note_on_c, 12, 57, 108
13, 1346515, Note_off_c, 12, 57, 64
13, 1346515, Note_off_c, 12, 54, 64
13, 1346520, Note_on_c, 12, 54, 108
13, 1346520, Note_on_c, 12, 57, 108
13, 1346635, Note_off_c, 12, 57, 64
13, 1346635, Note_off_c, 12, 54, 64
13, 1346640, Note_on_c, 12, 54, 108
13, 1346640, Note_on_c, 12, 57, 108
13, 1346755, Note_off_c, 12, 57, 64
13, 1346755, Note_off_c, 12, 54, 64
13, 1346760, Note_on_c, 12, 54, 108
13, 1346760, Note_on_c, 12, 57, 108
13, 1346875, Note_off_c, 12, 57, 64
13, 1346875, Note_off_c, 12, 54, 64
13, 1346880, Note_on_c, 12, 54, 108
13, 1346880, Note_on_c, 12, 57, 108
13, 1346995, Note_off_c, 12, 57, 64
13, 1346995, Note_off_c, 12, 54, 64
13, 1347000, Note_on_c, 12, 54, 108
13, 1347000, Note_on_c, 12, 57, 108
13, 1347115, Note_off_c, 12, 57, 64
13, 1347115, Note_off_c, 12, 54, 64
13, 1347120, Note_on_c, 12, 54, 108
13, 1347120, Note_on_c, 12, 57, 108
13, 1347235, Note_off_c, 12, 57, 64
13, 1347235, Note_off_c, 12, 54, 64
13, 1347240, Note_on_c, 12, 54, 108
13, 1347240, Note_on_c, 12, 57, 108
13, 1347355, Note_off_c, 12, 57, 64
13, 1347355, Note_off_c, 12, 54, 64
13, 1347360, Note_on_c, 12, 54, 108
13, 1347360, Note_on_c, 12, 57, 108
13, 1347475, Note_off_c, 12, 57, 64
13, 1347475, Note_off_c, 12, 54, 64
13, 1347480, Note_on_c, 12, 54, 108
13, 1347480, Note_on_c, 12, 57, 108
13, 1347595, Note_off_c, 12, 57, 64
13, 1347595, Note_off_c, 12, 54, 64
13, 1347600, Note_on_c, 12, 54, 108
13, 1347600, Note_on_c, 12, 57, 108
13, 1347715, Note_off_c, 12, 57, 64
13, 1347715, Note_off_c, 12, 54, 64
13, 1347720, Note_on_c, 12, 54, 108
13, 1347720, Note_on_c, 12, 57, 108
13, 1347835, Note_off_c, 12, 57, 64
13, 1347835, Note_off_c, 12, 54, 64
13, 1347840, Note_on_c, 12, 54, 108
13, 1347840, Note_on_c, 12, 57, 108
13, 1347955, Note_off_c, 12, 57, 64
13, 1347955, Note_off_c, 12, 54, 64
13, 1347960, Note_on_c, 12, 54, 108
13, 1347960, Note_on_c, 12, 57, 108
13, 1348075, Note_off_c, 12, 57, 64
13, 1348075, Note_off_c, 12, 54, 64
13, 1348080, Note_on_c, 12, 54, 108
13, 1348080, Note_on_c, 12, 57, 108
13, 1348195, Note_off_c, 12, 57, 64
13, 1348195, Note_off_c, 12, 54, 64
13, 1348200, Note_on_c, 12, 54, 108
13, 1348200, Note_on_c, 12, 57, 108
13, 1348315, Note_off_c, 12, 57, 64
13, 1348315, Note_off_c, 12, 54, 64
13, 1348320, Note_on_c, 12, 54, 108
13, 1348320, Note_on_c, 12, 57, 108
13, 1348435, Note_off_c, 12, 57, 64
13, 1348435, Note_off_c, 12, 54, 64
13, 1348440, Note_on_c, 12, 54, 108
13, 1348440, Note_on_c, 12, 57, 108
13, 1348555, Note_off_c, 12, 57, 64
13, 1348555, Note_off_c, 12, 54, 64
13, 1348560, Note_on_c, 12, 54, 108
13, 1348560, Note_on_c, 12, 57, 108
13, 1348675, Note_off_c, 12, 57, 64
13, 1348675, Note_off_c, 12, 54, 64
13, 1348680, Note_on_c, 12, 54, 108
13, 1348680, Note_on_c, 12, 57, 108
13, 1348795, Note_off_c, 12, 57, 64
13, 1348795, Note_off_c, 12, 54, 64
13, 1348800, Note_on_c, 12, 54, 108
13, 1348800, Note_on_c, 12, 57, 108
13, 1348915, Note_off_c, 12, 57, 64
13, 1348915, Note_off_c, 12, 54, 64
13, 1348920, Note_on_c, 12, 54, 108
13, 1348920, Note_on_c, 12, 57, 108
13, 1349035, Note_off_c, 12, 57, 64
13, 1349035, Note_off_c, 12, 54, 64
13, 1349040, Note_on_c, 12, 54, 108
13, 1349040, Note_on_c, 12, 57, 108
13, 1349155, Note_off_c, 12, 57, 64
13, 1349155, Note_off_c, 12, 54, 64
13, 1349160, Note_on_c, 12, 54, 108
13, 1349160, Note_on_c, 12, 57, 108
13, 1349275, Note_off_c, 12, 57, 64
13, 1349275, Note_off_c, 12, 54, 64
13, 1349280, Note_on_c, 12, 54, 108
13, 1349280, Note_on_c, 12, 57, 108
13, 1349395, Note_off_c, 12, 57, 64
13, 1349395, Note_off_c, 12, 54, 64
13, 1349400, Note_on_c, 12, 54, 108
13, 1349400, Note_on_c, 12, 57, 108
13, 1349515, Note_off_c, 12, 57, 64
13, 1349515, Note_off_c, 12, 54, 64
13, 1349520, Note_on_c, 12, 54, 108
13, 1349520, Note_on_c, 12, 57, 108
13, 1349635, Note_off_c, 12, 57, 64
13, 1349635, Note_off_c, 12, 54, 64
13, 1349640, Note_on_c, 12, 54, 108
13, 1349640, Note_on_c, 12, 57, 108
13, 1349755, Note_off_c, 12, 57, 64
13, 1349755, Note_off_c, 12, 54, 64
13, 1349760, Note_on_c, 12, 54, 108
13, 1349760, Note_on_c, 12, 57, 108
13, 1349875, Note_off_c, 12, 57, 64
13, 1349875, Note_off_c, 12, 54, 64
13, 1349880, Note_on_c, 12, 54, 108
13, 1349880, Note_on_c, 12, 57, 108
13, 1349995, Note_off_c, 12, 57, 64
13, 1349995, Note_off_c, 12, 54, 64
13, 1350000, Note_on_c, 12, 54, 108
13, 1350000, Note_on_c, 12, 57, 108
13, 1350115, Note_off_c, 12, 57, 64
13, 1350115, Note_off_c, 12, 54, 64
13, 1350120, Note_on_c, 12, 54, 108
13, 1350120, Note_on_c, 12, 57, 108
13, 1350235, Note_off_c, 12, 57, 64
13, 1350235, Note_off_c, 12, 54, 64
13, 1350240, Note_on_c, 12, 54, 108
13, 1350240, Note_on_c, 12, 57, 108
13, 1350355, Note_off_c, 12, 57, 64
13, 1350355, Note_off_c, 12, 54, 64
13, 1350360, Note_on_c, 12, 54, 108
13, 1350360, Note_on_c, 12, 57, 108
13, 1350475, Note_off_c, 12, 57, 64
13, 1350475, Note_off_c, 12, 54, 64
13, 1350480, Note_on_c, 12, 53, 108
13, 1350480, Note_on_c, 12, 57, 108
13, 1350595, Note_off_c, 12, 57, 64
13, 1350595, Note_off_c, 12, 53, 64
13, 1350600, Note_on_c, 12, 69, 108
13, 1350600, Note_on_c, 12, 72, 108
13, 1350715, Note_off_c, 12, 72, 64
13, 1350715, Note_off_c, 12, 69, 64
13, 1350720, Note_on_c, 12, 69, 108
13, 1350720, Note_on_c, 12, 72, 108
13, 1350835, Note_off_c, 12, 72, 64
13, 1350835, Note_off_c, 12, 69, 64
13, 1350840, Note_on_c, 12, 69, 108
13, 1350840, Note_on_c, 12, 72, 108
13, 1350955, Note_off_c, 12, 72, 64
13, 1350955, Note_off_c, 12, 69, 64
13, 1350960, Note_on_c, 12, 69, 108
13, 1350960, Note_on_c, 12, 72, 108
13, 1351075, Note_off_c, 12, 72, 64
13, 1351075, Note_off_c, 12, 69, 64
13, 1351080, Note_on_c, 12, 69, 108
13, 1351080, Note_on_c, 12, 72, 108
13, 1351195, Note_off_c, 12, 72, 64
13, 1351195, Note_off_c, 12, 69, 64
13, 1351200, Note_on_c, 12, 69, 108
13, 1351200, Note_on_c, 12, 72, 108
13, 1351315, Note_off_c, 12, 72, 64
13, 1351315, Note_off_c, 12, 69, 64
13, 1351320, Note_on_c, 12, 69, 108
13, 1351320, Note_on_c, 12, 72, 108
13, 1351435, Note_off_c, 12, 72, 64
13, 1351435, Note_off_c, 12, 69, 64
13, 1351440, Note_on_c, 12, 69, 108
13, 1351440, Note_on_c, 12, 72, 108
13, 1351555, Note_off_c, 12, 72, 64
13, 1351555, Note_off_c, 12, 69, 64
13, 1351560, Note_on_c, 12, 69, 108
13, 1351560, Note_on_c, 12, 72, 108
13, 1351675, Note_off_c, 12, 72, 64
13, 1351675, Note_off_c, 12, 69, 64
13, 1351680, Note_on_c, 12, 69, 108
13, 1351680, Note_on_c, 12, 72, 108
13, 1351795, Note_off_c, 12, 72, 64
13, 1351795, Note_off_c, 12, 69, 64
13, 1351800, Note_on_c, 12, 69, 108
13, 1351800, Note_on_c, 12, 72, 108
13, 1351915, Note_off_c, 12, 72, 64
13, 1351915, Note_off_c, 12, 69, 64
13, 1351920, Note_on_c, 12, 69, 108
13, 1351920, Note_on_c, 12, 72, 108
13, 1352035, Note_off_c, 12, 72, 64
13, 1352035, Note_off_c, 12, 69, 64
13, 1352040, Note_on_c, 12, 69, 108
13, 1352040, Note_on_c, 12, 72, 108
13, 1352155, Note_off_c, 12, 72, 64
13, 1352155, Note_off_c, 12, 69, 64
13, 1352160, Note_on_c, 12, 69, 108
13, 1352160, Note_on_c, 12, 72, 108
13, 1352275, Note_off_c, 12, 72, 64
13, 1352275, Note_off_c, 12, 69, 64
13, 1352280, Note_on_c, 12, 69, 108
13, 1352280, Note_on_c, 12, 72, 108
13, 1352395, Note_off_c, 12, 72, 64
13, 1352395, Note_off_c, 12, 69, 64
13, 1352400, Note_on_c, 12, 68, 108
13, 1352400, Note_on_c, 12, 72, 108
13, 1352515, Note_off_c, 12, 72, 64
13, 1352515, Note_off_c, 12, 68, 64
13, 1352520, Note_on_c, 12, 68, 108
13, 1352520, Note_on_c, 12, 72, 108
13, 1352635, Note_off_c, 12, 72, 64
13, 1352635, Note_off_c, 12, 68, 64
13, 1352640, Note_on_c, 12, 68, 108
13, 1352640, Note_on_c, 12, 72, 108
13, 1352755, Note_off_c, 12, 72, 64
13, 1352755, Note_off_c, 12, 68, 64
13, 1352760, Note_on_c, 12, 68, 108
13, 1352760, Note_on_c, 12, 72, 108
13, 1352875, Note_off_c, 12, 72, 64
13, 1352875, Note_off_c, 12, 68, 64
13, 1352880, Note_on_c, 12, 68, 108
13, 1352880, Note_on_c, 12, 72, 108
13, 1352995, Note_off_c, 12, 72, 64
13, 1352995, Note_off_c, 12, 68, 64
13, 1353000, Note_on_c, 12, 68, 108
13, 1353000, Note_on_c, 12, 72, 108
13, 1353115, Note_off_c, 12, 72, 64
13, 1353115, Note_off_c, 12, 68, 64
13, 1353120, Note_on_c, 12, 68, 108
13, 1353120, Note_on_c, 12, 72, 108
13, 1353235, Note_off_c, 12, 72, 64
13, 1353235, Note_off_c, 12, 68, 64
13, 1353240, Note_on_c, 12, 68, 108
13, 1353240, Note_on_c, 12, 72, 108
13, 1353355, Note_off_c, 12, 72, 64
13, 1353355, Note_off_c, 12, 68, 64
13, 1353360, Note_on_c, 12, 68, 108
13, 1353360, Note_on_c, 12, 72, 108
13, 1353475, Note_off_c, 12, 72, 64
13, 1353475, Note_off_c, 12, 68, 64
13, 1353480, Note_on_c, 12, 68, 108
13, 1353480, Note_on_c, 12, 72, 108
13, 1353595, Note_off_c, 12, 72, 64
13, 1353595, Note_off_c, 12, 68, 64
13, 1353600, Note_on_c, 12, 68, 108
13, 1353600, Note_on_c, 12, 72, 108
13, 1353715, Note_off_c, 12, 72, 64
13, 1353715, Note_off_c, 12, 68, 64
13, 1353720, Note_on_c, 12, 68, 108
13, 1353720, Note_on_c, 12, 72, 108
13, 1353835, Note_off_c, 12, 72, 64
13, 1353835, Note_off_c, 12, 68, 64
13, 1353840, Note_on_c, 12, 68, 108
13, 1353840, Note_on_c, 12, 72, 108
13, 1353955, Note_off_c, 12, 72, 64
13, 1353955, Note_off_c, 12, 68, 64
13, 1353960, Note_on_c, 12, 68, 108
13, 1353960, Note_on_c, 12, 72, 108
13, 1354075, Note_off_c, 12, 72, 64
13, 1354075, Note_off_c, 12, 68, 64
13, 1354080, Note_on_c, 12, 68, 108
13, 1354080, Note_on_c, 12, 72, 108
13, 1354195, Note_off_c, 12, 72, 64
13, 1354195, Note_off_c, 12, 68, 64
13, 1354200, Note_on_c, 12, 68, 108
13, 1354200, Note_on_c, 12, 72, 108
13, 1354315, Note_off_c, 12, 72, 64
13, 1354315, Note_off_c, 12, 68, 64
13, 1354320, Note_on_c, 12, 70, 108
13, 1354435, Note_off_c, 12, 70, 64
13, 1354440, Note_on_c, 12, 70, 108
13, 1354555, Note_off_c, 12, 70, 64
13, 1354560, Note_on_c, 12, 70, 108
13, 1354675, Note_off_c, 12, 70, 64
13, 1354680, Note_on_c, 12, 70, 108
13, 1354795, Note_off_c, 12, 70, 64
13, 1354800, Note_on_c, 12, 70, 108
13, 1354915, Note_off_c, 12, 70, 64
13, 1354920, Note_on_c, 12, 70, 108
13, 1355035, Note_off_c, 12, 70, 64
13, 1355040, Note_on_c, 12, 70, 108
13, 1355155, Note_off_c, 12, 70, 64
13, 1355160, Note_on_c, 12, 70, 108
13, 1355275, Note_off_c, 12, 70, 64
13, 1355280, Note_on_c, 12, 70, 108
13, 1355395, Note_off_c, 12, 70, 64
13, 1355400, Note_on_c, 12, 70, 108
13, 1355515, Note_off_c, 12, 70, 64
13, 1355520, Note_on_c, 12, 70, 108
13, 1355635, Note_off_c, 12, 70, 64
13, 1355640, Note_on_c, 12, 70, 108
13, 1355755, Note_off_c, 12, 70, 64
13, 1355760, Note_on_c, 12, 70, 108
13, 1355875, Note_off_c, 12, 70, 64
13, 1355880, Note_on_c, 12, 70, 108
13, 1355995, Note_off_c, 12, 70, 64
13, 1356000, Note_on_c, 12, 70, 108
13, 1356115, Note_off_c, 12, 70, 64
13, 1356120, Note_on_c, 12, 70, 108
13, 1356235, Note_off_c, 12, 70, 64
13, 1356240, Note_on_c, 12, 67, 108
13, 1356240, Note_on_c, 12, 70, 108
13, 1356355, Note_off_c, 12, 70, 64
13, 1356355, Note_off_c, 12, 67, 64
13, 1356360, Note_on_c, 12, 67, 108
13, 1356360, Note_on_c, 12, 70, 108
13, 1356475, Note_off_c, 12, 70, 64
13, 1356475, Note_off_c, 12, 67, 64
13, 1356480, Note_on_c, 12, 67, 108
13, 1356480, Note_on_c, 12, 70, 108
13, 1356595, Note_off_c, 12, 70, 64
13, 1356595, Note_off_c, 12, 67, 64
13, 1356600, Note_on_c, 12, 67, 108
13, 1356600, Note_on_c, 12, 70, 108
13, 1356715, Note_off_c, 12, 70, 64
13, 1356715, Note_off_c, 12, 67, 64
13, 1356720, Note_on_c, 12, 67, 108
13, 1356720, Note_on_c, 12, 70, 108
13, 1356835, Note_off_c, 12, 70, 64
13, 1356835, Note_off_c, 12, 67, 64
13, 1356840, Note_on_c, 12, 67, 108
13, 1356840, Note_on_c, 12, 70, 108
13, 1356955, Note_off_c, 12, 70, 64
13, 1356955, Note_off_c, 12, 67, 64
13, 1356960, Note_on_c, 12, 67, 108
13, 1356960, Note_on_c, 12, 70, 108
13, 1357075, Note_off_c, 12, 70, 64
13, 1357075, Note_off_c, 12, 67, 64
13, 1357080, Note_on_c, 12, 67, 108
13, 1357080, Note_on_c, 12, 70, 108
13, 1357195, Note_off_c, 12, 70, 64
13, 1357195, Note_off_c, 12, 67, 64
13, 1357200, Note_on_c, 12, 67, 108
13, 1357200, Note_on_c, 12, 70, 108
13, 1357315, Note_off_c, 12, 70, 64
13, 1357315, Note_off_c, 12, 67, 64
13, 1357320, Note_on_c, 12, 67, 108
13, 1357320, Note_on_c, 12, 70, 108
13, 1357435, Note_off_c, 12, 70, 64
13, 1357435, Note_off_c, 12, 67, 64
13, 1357440, Note_on_c, 12, 67, 108
13, 1357440, Note_on_c, 12, 70, 108
13, 1357555, Note_off_c, 12, 70, 64
13, 1357555, Note_off_c, 12, 67, 64
13, 1357560, Note_on_c, 12, 67, 108
13, 1357560, Note_on_c, 12, 70, 108
13, 1357675, Note_off_c, 12, 70, 64
13, 1357675, Note_off_c, 12, 67, 64
13, 1357680, Note_on_c, 12, 67, 108
13, 1357680, Note_on_c, 12, 70, 108
13, 1357795, Note_off_c, 12, 70, 64
13, 1357795, Note_off_c, 12, 67, 64
13, 1357800, Note_on_c, 12, 67, 108
13, 1357800, Note_on_c, 12, 70, 108
13, 1357915, Note_off_c, 12, 70, 64
13, 1357915, Note_off_c, 12, 67, 64
13, 1357920, Note_on_c, 12, 67, 108
13, 1357920, Note_on_c, 12, 70, 108
13, 1358035, Note_off_c, 12, 70, 64
13, 1358035, Note_off_c, 12, 67, 64
13, 1358040, Note_on_c, 12, 67, 108
13, 1358040, Note_on_c, 12, 70, 108
13, 1358155, Note_off_c, 12, 70, 64
13, 1358155, Note_off_c, 12, 67, 64
13, 1358160, Note_on_c, 12, 66, 108
13, 1358275, Note_off_c, 12, 66, 64
13, 1358280, Note_on_c, 12, 66, 108
13, 1358395, Note_off_c, 12, 66, 64
13, 1358400, Note_on_c, 12, 66, 108
13, 1358515, Note_off_c, 12, 66, 64
13, 1358520, Note_on_c, 12, 66, 108
13, 1358635, Note_off_c, 12, 66, 64
13, 1358640, Note_on_c, 12, 66, 108
13, 1358755, Note_off_c, 12, 66, 64
13, 1358760, Note_on_c, 12, 66, 108
13, 1358875, Note_off_c, 12, 66, 64
13, 1358880, Note_on_c, 12, 66, 108
13, 1358995, Note_off_c, 12, 66, 64
13, 1359000, Note_on_c, 12, 66, 108
13, 1359115, Note_off_c, 12, 66, 64
13, 1359120, Note_on_c, 12, 66, 108
13, 1359235, Note_off_c, 12, 66, 64
13, 1359240, Note_on_c, 12, 66, 108
13, 1359355, Note_off_c, 12, 66, 64
13, 1359360, Note_on_c, 12, 66, 108
13, 1359475, Note_off_c, 12, 66, 64
13, 1359480, Note_on_c, 12, 66, 108
13, 1359595, Note_off_c, 12, 66, 64
13, 1359600, Note_on_c, 12, 66, 108
13, 1359715, Note_off_c, 12, 66, 64
13, 1359720, Note_on_c, 12, 66, 108
13, 1359835, Note_off_c, 12, 66, 64
13, 1359840, Note_on_c, 12, 66, 108
13, 1359955, Note_off_c, 12, 66, 64
13, 1359960, Note_on_c, 12, 66, 108
13, 1360075, Note_off_c, 12, 66, 64
13, 1360080, Note_on_c, 12, 65, 108
13, 1360195, Note_off_c, 12, 65, 64
13, 1360200, Note_on_c, 12, 65, 108
13, 1360315, Note_off_c, 12, 65, 64
13, 1360320, Note_on_c, 12, 65, 108
13, 1360435, Note_off_c, 12, 65, 64
13, 1360440, Note_on_c, 12, 65, 108
13, 1360555, Note_off_c, 12, 65, 64
13, 1360560, Note_on_c, 12, 65, 108
13, 1360675, Note_off_c, 12, 65, 64
13, 1360680, Note_on_c, 12, 65, 108
13, 1360795, Note_off_c, 12, 65, 64
13, 1360800, Note_on_c, 12, 65, 108
13, 1360915, Note_off_c, 12, 65, 64
13, 1360920, Note_on_c, 12, 65, 108
13, 1361035, Note_off_c, 12, 65, 64
13, 1361040, Note_on_c, 12, 65, 108
13, 1361155, Note_off_c, 12, 65, 64
13, 1361160, Note_on_c, 12, 65, 108
13, 1361275, Note_off_c, 12, 65, 64
13, 1361280, Note_on_c, 12, 65, 108
13, 1361395, Note_off_c, 12, 65, 64
13, 1361400, Note_on_c, 12, 65, 108
13, 1361515, Note_off_c, 12, 65, 64
13, 1361520, Note_on_c, 12, 65, 108
13, 1361635, Note_off_c, 12, 65, 64
13, 1361640, Note_on_c, 12, 65, 108
13, 1361755, Note_off_c, 12, 65, 64
13, 1361760, Note_on_c, 12, 65, 108
13, 1361875, Note_off_c, 12, 65, 64
13, 1361880, Note_on_c, 12, 65, 108
13, 1361995, Note_off_c, 12, 65, 64
13, 1362000, Note_on_c, 12, 65, 108
13, 1362115, Note_off_c, 12, 65, 64
13, 1362120, Note_on_c, 12, 65, 108
13, 1362235, Note_off_c, 12, 65, 64
13, 1362240, Note_on_c, 12, 65, 108
13, 1362355, Note_off_c, 12, 65, 64
13, 1362360, Note_on_c, 12, 65, 108
13, 1362475, Note_off_c, 12, 65, 64
13, 1362480, Note_on_c, 12, 65, 108
13, 1362595, Note_off_c, 12, 65, 64
13, 1362600, Note_on_c, 12, 65, 108
13, 1362715, Note_off_c, 12, 65, 64
13, 1362720, Note_on_c, 12, 65, 108
13, 1362835, Note_off_c, 12, 65, 64
13, 1362840, Note_on_c, 12, 65, 108
13, 1362955, Note_off_c, 12, 65, 64
13, 1362960, Note_on_c, 12, 65, 108
13, 1363075, Note_off_c, 12, 65, 64
13, 1363080, Note_on_c, 12, 65, 108
13, 1363195, Note_off_c, 12, 65, 64
13, 1363200, Note_on_c, 12, 65, 108
13, 1363315, Note_off_c, 12, 65, 64
13, 1363320, Note_on_c, 12, 65, 108
13, 1363435, Note_off_c, 12, 65, 64
13, 1363440, Note_on_c, 12, 65, 108
13, 1363555, Note_off_c, 12, 65, 64
13, 1363560, Note_on_c, 12, 65, 108
13, 1363675, Note_off_c, 12, 65, 64
13, 1363680, Note_on_c, 12, 65, 108
13, 1363795, Note_off_c, 12, 65, 64
13, 1363800, Note_on_c, 12, 65, 108
13, 1363915, Note_off_c, 12, 65, 64
13, 1363920, Note_on_c, 12, 64, 108
13, 1364035, Note_off_c, 12, 64, 64
13, 1364040, Note_on_c, 12, 64, 108
13, 1364155, Note_off_c, 12, 64, 64
13, 1364160, Note_on_c, 12, 64, 108
13, 1364275, Note_off_c, 12, 64, 64
13, 1364280, Note_on_c, 12, 64, 108
13, 1364395, Note_off_c, 12, 64, 64
13, 1364400, Note_on_c, 12, 64, 108
13, 1364515, Note_off_c, 12, 64, 64
13, 1364520, Note_on_c, 12, 64, 108
13, 1364635, Note_off_c, 12, 64, 64
13, 1364640, Note_on_c, 12, 64, 108
13, 1364755, Note_off_c, 12, 64, 64
13, 1364760, Note_on_c, 12, 64, 108
13, 1364875, Note_off_c, 12, 64, 64
13, 1364880, Note_on_c, 12, 64, 108
13, 1364995, Note_off_c, 12, 64, 64
13, 1365000, Note_on_c, 12, 64, 108
13, 1365115, Note_off_c, 12, 64, 64
13, 1365120, Note_on_c, 12, 64, 108
13, 1365235, Note_off_c, 12, 64, 64
13, 1365240, Note_on_c, 12, 64, 108
13, 1365355, Note_off_c, 12, 64, 64
13, 1365360, Note_on_c, 12, 64, 108
13, 1365475, Note_off_c, 12, 64, 64
13, 1365480, Note_on_c, 12, 64, 108
13, 1365595, Note_off_c, 12, 64, 64
13, 1365600, Note_on_c, 12, 64, 108
13, 1365715, Note_off_c, 12, 64, 64
13, 1365720, Note_on_c, 12, 64, 108
13, 1365835, Note_off_c, 12, 64, 64
13, 1365840, Note_on_c, 12, 48, 92
13, 1365955, Note_off_c, 12, 48, 64
13, 1365960, Note_on_c, 12, 48, 92
13, 1366075, Note_off_c, 12, 48, 64
13, 1366080, Note_on_c, 12, 57, 92
13, 1366195, Note_off_c, 12, 57, 64
13, 1366200, Note_on_c, 12, 57, 92
13, 1366315, Note_off_c, 12, 57, 64
13, 1366320, Note_on_c, 12, 48, 92
13, 1366435, Note_off_c, 12, 48, 64
13, 1366440, Note_on_c, 12, 48, 92
13, 1366555, Note_off_c, 12, 48, 64
13, 1366560, Note_on_c, 12, 57, 92
13, 1366675, Note_off_c, 12, 57, 64
13, 1366680, Note_on_c, 12, 57, 92
13, 1366795, Note_off_c, 12, 57, 64
13, 1366800, Note_on_c, 12, 48, 92
13, 1366915, Note_off_c, 12, 48, 64
13, 1366920, Note_on_c, 12, 48, 92
13, 1367035, Note_off_c, 12, 48, 64
13, 1367040, Note_on_c, 12, 57, 92
13, 1367155, Note_off_c, 12, 57, 64
13, 1367160, Note_on_c, 12, 57, 92
13, 1367275, Note_off_c, 12, 57, 64
13, 1367280, Note_on_c, 12, 48, 92
13, 1367395, Note_off_c, 12, 48, 64
13, 1367400, Note_on_c, 12, 48, 92
13, 1367515, Note_off_c, 12, 48, 64
13, 1367520, Note_on_c, 12, 57, 92
13, 1367635, Note_off_c, 12, 57, 64
13, 1367640, Note_on_c, 12, 57, 92
13, 1367755, Note_off_c, 12, 57, 64
13, 1367760, Note_on_c, 12, 53, 92
13, 1367875, Note_off_c, 12, 53, 64
13, 1367880, Note_on_c, 12, 53, 91
13, 1367995, Note_off_c, 12, 53, 64
13, 1368000, Note_on_c, 12, 58, 90
13, 1368115, Note_off_c, 12, 58, 64
13, 1368120, Note_on_c, 12, 58, 89
13, 1368235, Note_off_c, 12, 58, 64
13, 1368240, Note_on_c, 12, 53, 88
13, 1368355, Note_off_c, 12, 53, 64
13, 1368360, Note_on_c, 12, 53, 87
13, 1368475, Note_off_c, 12, 53, 64
13, 1368480, Note_on_c, 12, 58, 86
13, 1368595, Note_off_c, 12, 58, 64
13, 1368600, Note_on_c, 12, 58, 85
13, 1368715, Note_off_c, 12, 58, 64
13, 1368720, Note_on_c, 12, 53, 84
13, 1368835, Note_off_c, 12, 53, 64
13, 1368840, Note_on_c, 12, 53, 83
13, 1368955, Note_off_c, 12, 53, 64
13, 1368960, Note_on_c, 12, 58, 82
13, 1369075, Note_off_c, 12, 58, 64
13, 1369080, Note_on_c, 12, 58, 81
13, 1369195, Note_off_c, 12, 58, 64
13, 1369200, Note_on_c, 12, 53, 80
13, 1369315, Note_off_c, 12, 53, 64
13, 1369320, Note_on_c, 12, 53, 79
13, 1369435, Note_off_c, 12, 53, 64
13, 1369440, Note_on_c, 12, 57, 78
13, 1369555, Note_off_c, 12, 57, 64
13, 1369560, Note_on_c, 12, 57, 77
13, 1369675, Note_off_c, 12, 57, 64
13, 1369680, Note_on_c, 12, 53, 75
13, 1369795, Note_off_c, 12, 53, 64
13, 1369800, Note_on_c, 12, 53, 75
13, 1369915, Note_off_c, 12, 53, 64
13, 1369920, Note_on_c, 12, 61, 75
13, 1370035, Note_off_c, 12, 61, 64
13, 1370040, Note_on_c, 12, 61, 75
13, 1370155, Note_off_c, 12, 61, 64
13, 1370160, Note_on_c, 12, 53, 75
13, 1370275, Note_off_c, 12, 53, 64
13, 1370280, Note_on_c, 12, 53, 75
13, 1370395, Note_off_c, 12, 53, 64
13, 1370400, Note_on_c, 12, 61, 75
13, 1370515, Note_off_c, 12, 61, 64
13, 1370520, Note_on_c, 12, 61, 75
13, 1370635, Note_off_c, 12, 61, 64
13, 1370640, Note_on_c, 12, 53, 75
13, 1370755, Note_off_c, 12, 53, 64
13, 1370760, Note_on_c, 12, 53, 75
13, 1370875, Note_off_c, 12, 53, 64
13, 1370880, Note_on_c, 12, 61, 75
13, 1370995, Note_off_c, 12, 61, 64
13, 1371000, Note_on_c, 12, 61, 75
13, 1371115, Note_off_c, 12, 61, 64
13, 1371120, Note_on_c, 12, 54, 75
13, 1371235, Note_off_c, 12, 54, 64
13, 1371240, Note_on_c, 12, 54, 75
13, 1371355, Note_off_c, 12, 54, 64
13, 1371360, Note_on_c, 12, 60, 75
13, 1371475, Note_off_c, 12, 60, 64
13, 1371480, Note_on_c, 12, 60, 75
13, 1371595, Note_off_c, 12, 60, 64
13, 1371600, Note_on_c, 12, 55, 75
13, 1371715, Note_off_c, 12, 55, 64
13, 1371720, Note_on_c, 12, 55, 75
13, 1371835, Note_off_c, 12, 55, 64
13, 1371840, Note_on_c, 12, 59, 75
13, 1371955, Note_off_c, 12, 59, 64
13, 1371960, Note_on_c, 12, 59, 75
13, 1372075, Note_off_c, 12, 59, 64
13, 1372080, Note_on_c, 12, 55, 75
13, 1372195, Note_off_c, 12, 55, 64
13, 1372200, Note_on_c, 12, 55, 75
13, 1372315, Note_off_c, 12, 55, 64
13, 1372320, Note_on_c, 12, 59, 75
13, 1372435, Note_off_c, 12, 59, 64
13, 1372440, Note_on_c, 12, 59, 75
13, 1372555, Note_off_c, 12, 59, 64
13, 1372560, Note_on_c, 12, 55, 75
13, 1372675, Note_off_c, 12, 55, 64
13, 1372680, Note_on_c, 12, 55, 75
13, 1372795, Note_off_c, 12, 55, 64
13, 1372800, Note_on_c, 12, 59, 75
13, 1372915, Note_off_c, 12, 59, 64
13, 1372920, Note_on_c, 12, 59, 75
13, 1373035, Note_off_c, 12, 59, 64
13, 1373040, Note_on_c, 12, 55, 75
13, 1373155, Note_off_c, 12, 55, 64
13, 1373160, Note_on_c, 12, 55, 75
13, 1373275, Note_off_c, 12, 55, 64
13, 1373280, Note_on_c, 12, 59, 75
13, 1373395, Note_off_c, 12, 59, 64
13, 1373400, Note_on_c, 12, 59, 75
13, 1373515, Note_off_c, 12, 59, 64
13, 1373520, Note_on_c, 12, 55, 60
13, 1373635, Note_off_c, 12, 55, 64
13, 1373640, Note_on_c, 12, 55, 60
13, 1373755, Note_off_c, 12, 55, 64
13, 1373760, Note_on_c, 12, 59, 60
13, 1373875, Note_off_c, 12, 59, 64
13, 1373880, Note_on_c, 12, 59, 60
13, 1373995, Note_off_c, 12, 59, 64
13, 1374000, Note_on_c, 12, 55, 60
13, 1374115, Note_off_c, 12, 55, 64
13, 1374120, Note_on_c, 12, 55, 60
13, 1374235, Note_off_c, 12, 55, 64
13, 1374240, Note_on_c, 12, 59, 60
13, 1374355, Note_off_c, 12, 59, 64
13, 1374360, Note_on_c, 12, 59, 60
13, 1374475, Note_off_c, 12, 59, 64
13, 1374480, Note_on_c, 12, 55, 60
13, 1374595, Note_off_c, 12, 55, 64
13, 1374600, Note_on_c, 12, 55, 60
13, 1374715, Note_off_c, 12, 55, 64
13, 1374720, Note_on_c, 12, 59, 60
13, 1374835, Note_off_c, 12, 59, 64
13, 1374840, Note_on_c, 12, 59, 60
13, 1374955, Note_off_c, 12, 59, 64
13, 1374960, Note_on_c, 12, 55, 60
13, 1375075, Note_off_c, 12, 55, 64
13, 1375080, Note_on_c, 12, 55, 60
13, 1375195, Note_off_c, 12, 55, 64
13, 1375200, Note_on_c, 12, 59, 60
13, 1375315, Note_off_c, 12, 59, 64
13, 1375320, Note_on_c, 12, 59, 60
13, 1375435, Note_off_c, 12, 59, 64
13, 1375440, Note_on_c, 12, 55, 60
13, 1375555, Note_off_c, 12, 55, 64
13, 1375560, Note_on_c, 12, 55, 60
13, 1375675, Note_off_c, 12, 55, 64
13, 1375680, Note_on_c, 12, 60, 59
13, 1375795, Note_off_c, 12, 60, 64
13, 1375800, Note_on_c, 12, 60, 58
13, 1375915, Note_off_c, 12, 60, 64
13, 1375920, Note_on_c, 12, 55, 57
13, 1376035, Note_off_c, 12, 55, 64
13, 1376040, Note_on_c, 12, 55, 56
13, 1376155, Note_off_c, 12, 55, 64
13, 1376160, Note_on_c, 12, 60, 55
13, 1376275, Note_off_c, 12, 60, 64
13, 1376280, Note_on_c, 12, 60, 54
13, 1376395, Note_off_c, 12, 60, 64
13, 1376400, Note_on_c, 12, 55, 53
13, 1376515, Note_off_c, 12, 55, 64
13, 1376520, Note_on_c, 12, 55, 52
13, 1376635, Note_off_c, 12, 55, 64
13, 1376640, Note_on_c, 12, 60, 51
13, 1376755, Note_off_c, 12, 60, 64
13, 1376760, Note_on_c, 12, 60, 50
13, 1376875, Note_off_c, 12, 60, 64
13, 1376880, Note_on_c, 12, 53, 49
13, 1376995, Note_off_c, 12, 53, 64
13, 1377000, Note_on_c, 12, 53, 48
13, 1377115, Note_off_c, 12, 53, 64
13, 1377120, Note_on_c, 12, 59, 47
13, 1377235, Note_off_c, 12, 59, 64
13, 1377240, Note_on_c, 12, 59, 46
13, 1377355, Note_off_c, 12, 59, 64
13, 1377360, Note_on_c, 12, 51, 45
13, 1377475, Note_off_c, 12, 51, 64
13, 1377480, Note_on_c, 12, 51, 45
13, 1377595, Note_off_c, 12, 51, 64
13, 1377600, Note_on_c, 12, 60, 45
13, 1377715, Note_off_c, 12, 60, 64
13, 1377720, Note_on_c, 12, 60, 45
13, 1377835, Note_off_c, 12, 60, 64
13, 1377840, Note_on_c, 12, 51, 45
13, 1377955, Note_off_c, 12, 51, 64
13, 1377960, Note_on_c, 12, 51, 45
13, 1378075, Note_off_c, 12, 51, 64
13, 1378080, Note_on_c, 12, 60, 45
13, 1378195, Note_off_c, 12, 60, 64
13, 1378200, Note_on_c, 12, 60, 45
13, 1378315, Note_off_c, 12, 60, 64
13, 1378320, Note_on_c, 12, 51, 45
13, 1378435, Note_off_c, 12, 51, 64
13, 1378440, Note_on_c, 12, 51, 45
13, 1378555, Note_off_c, 12, 51, 64
13, 1378560, Note_on_c, 12, 60, 45
13, 1378675, Note_off_c, 12, 60, 64
13, 1378680, Note_on_c, 12, 60, 45
13, 1378795, Note_off_c, 12, 60, 64
13, 1378800, Note_on_c, 12, 51, 45
13, 1378915, Note_off_c, 12, 51, 64
13, 1378920, Note_on_c, 12, 51, 45
13, 1379035, Note_off_c, 12, 51, 64
13, 1379040, Note_on_c, 12, 61, 45
13, 1379155, Note_off_c, 12, 61, 64
13, 1379160, Note_on_c, 12, 61, 45
13, 1379275, Note_off_c, 12, 61, 64
13, 1379280, Note_on_c, 12, 51, 45
13, 1379395, Note_off_c, 12, 51, 64
13, 1379400, Note_on_c, 12, 51, 45
13, 1379515, Note_off_c, 12, 51, 64
13, 1379520, Note_on_c, 12, 51, 45
13, 1379635, Note_off_c, 12, 51, 64
13, 1379640, Note_on_c, 12, 51, 45
13, 1379755, Note_off_c, 12, 51, 64
13, 1379760, Note_on_c, 12, 48, 45
13, 1379875, Note_off_c, 12, 48, 64
13, 1379880, Note_on_c, 12, 48, 45
13, 1379995, Note_off_c, 12, 48, 64
13, 1380000, Note_on_c, 12, 51, 45
13, 1380115, Note_off_c, 12, 51, 64
13, 1380120, Note_on_c, 12, 51, 45
13, 1380235, Note_off_c, 12, 51, 64
13, 1380240, Note_on_c, 12, 48, 45
13, 1380355, Note_off_c, 12, 48, 64
13, 1380360, Note_on_c, 12, 48, 45
13, 1380475, Note_off_c, 12, 48, 64
13, 1380480, Note_on_c, 12, 51, 45
13, 1380595, Note_off_c, 12, 51, 64
13, 1380600, Note_on_c, 12, 51, 45
13, 1380715, Note_off_c, 12, 51, 64
13, 1380720, Note_on_c, 12, 48, 45
13, 1380835, Note_off_c, 12, 48, 64
13, 1380840, Note_on_c, 12, 48, 45
13, 1380955, Note_off_c, 12, 48, 64
13, 1380960, Note_on_c, 12, 51, 45
13, 1381075, Note_off_c, 12, 51, 64
13, 1381080, Note_on_c, 12, 51, 45
13, 1381195, Note_off_c, 12, 51, 64
13, 1381200, Note_on_c, 12, 48, 45
13, 1381315, Note_off_c, 12, 48, 64
13, 1381320, Note_on_c, 12, 48, 45
13, 1381435, Note_off_c, 12, 48, 64
13, 1381440, Note_on_c, 12, 51, 45
13, 1381555, Note_off_c, 12, 51, 64
13, 1381560, Note_on_c, 12, 51, 45
13, 1381675, Note_off_c, 12, 51, 64
13, 1381680, Note_on_c, 12, 48, 45
13, 1381795, Note_off_c, 12, 48, 64
13, 1381800, Note_on_c, 12, 48, 45
13, 1381915, Note_off_c, 12, 48, 64
13, 1381920, Note_on_c, 12, 51, 45
13, 1382035, Note_off_c, 12, 51, 64
13, 1382040, Note_on_c, 12, 51, 45
13, 1382155, Note_off_c, 12, 51, 64
13, 1382160, Note_on_c, 12, 48, 45
13, 1382275, Note_off_c, 12, 48, 64
13, 1382280, Note_on_c, 12, 48, 45
13, 1382395, Note_off_c, 12, 48, 64
13, 1382400, Note_on_c, 12, 51, 45
13, 1382515, Note_off_c, 12, 51, 64
13, 1382520, Note_on_c, 12, 51, 45
13, 1382635, Note_off_c, 12, 51, 64
13, 1382640, Note_on_c, 12, 48, 45
13, 1382755, Note_off_c, 12, 48, 64
13, 1382760, Note_on_c, 12, 48, 45
13, 1382875, Note_off_c, 12, 48, 64
13, 1382880, Note_on_c, 12, 51, 45
13, 1382995, Note_off_c, 12, 51, 64
13, 1383000, Note_on_c, 12, 51, 45
13, 1383115, Note_off_c, 12, 51, 64
13, 1383120, Note_on_c, 12, 49, 45
13, 1383235, Note_off_c, 12, 49, 64
13, 1383240, Note_on_c, 12, 49, 45
13, 1383355, Note_off_c, 12, 49, 64
13, 1383360, Note_on_c, 12, 53, 45
13, 1383475, Note_off_c, 12, 53, 64
13, 1383480, Note_on_c, 12, 53, 45
13, 1383595, Note_off_c, 12, 53, 64
13, 1383600, Note_on_c, 12, 49, 45
13, 1383715, Note_off_c, 12, 49, 64
13, 1383720, Note_on_c, 12, 49, 45
13, 1383835, Note_off_c, 12, 49, 64
13, 1383840, Note_on_c, 12, 53, 45
13, 1383955, Note_off_c, 12, 53, 64
13, 1383960, Note_on_c, 12, 53, 45
13, 1384075, Note_off_c, 12, 53, 64
13, 1384080, Note_on_c, 12, 49, 45
13, 1384195, Note_off_c, 12, 49, 64
13, 1384200, Note_on_c, 12, 49, 45
13, 1384315, Note_off_c, 12, 49, 64
13, 1384320, Note_on_c, 12, 53, 45
13, 1384435, Note_off_c, 12, 53, 64
13, 1384440, Note_on_c, 12, 53, 45
13, 1384555, Note_off_c, 12, 53, 64
13, 1384560, Note_on_c, 12, 48, 45
13, 1384675, Note_off_c, 12, 48, 64
13, 1384680, Note_on_c, 12, 48, 45
13, 1384795, Note_off_c, 12, 48, 64
13, 1384800, Note_on_c, 12, 54, 45
13, 1384915, Note_off_c, 12, 54, 64
13, 1384920, Note_on_c, 12, 54, 45
13, 1385035, Note_off_c, 12, 54, 64
13, 1385040, Note_on_c, 12, 53, 45
13, 1385155, Note_off_c, 12, 53, 64
13, 1385160, Note_on_c, 12, 53, 45
13, 1385275, Note_off_c, 12, 53, 64
13, 1385280, Note_on_c, 12, 56, 44
13, 1385395, Note_off_c, 12, 56, 64
13, 1385400, Note_on_c, 12, 56, 43
13, 1385515, Note_off_c, 12, 56, 64
13, 1385520, Note_on_c, 12, 53, 42
13, 1385635, Note_off_c, 12, 53, 64
13, 1385640, Note_on_c, 12, 53, 41
13, 1385755, Note_off_c, 12, 53, 64
13, 1385760, Note_on_c, 12, 56, 40
13, 1385875, Note_off_c, 12, 56, 64
13, 1385880, Note_on_c, 12, 56, 39
13, 1385995, Note_off_c, 12, 56, 64
13, 1386000, Note_on_c, 12, 53, 38
13, 1386115, Note_off_c, 12, 53, 64
13, 1386120, Note_on_c, 12, 53, 37
13, 1386235, Note_off_c, 12, 53, 64
13, 1386240, Note_on_c, 12, 56, 36
13, 1386355, Note_off_c, 12, 56, 64
13, 1386360, Note_on_c, 12, 56, 35
13, 1386475, Note_off_c, 12, 56, 64
13, 1386480, Note_on_c, 12, 53, 34
13, 1386595, Note_off_c, 12, 53, 64
13, 1386600, Note_on_c, 12, 53, 33
13, 1386715, Note_off_c, 12, 53, 64
13, 1386720, Note_on_c, 12, 65, 32
13, 1386720, Note_on_c, 12, 68, 32
13, 1386835, Note_off_c, 12, 68, 64
13, 1386835, Note_off_c, 12, 65, 64
13, 1386840, Note_on_c, 12, 65, 31
13, 1386840, Note_on_c, 12, 68, 31
13, 1386955, Note_off_c, 12, 68, 64
13, 1386955, Note_off_c, 12, 65, 64
13, 1386960, Note_on_c, 12, 65, 30
13, 1386960, Note_on_c, 12, 68, 30
13, 1387075, Note_off_c, 12, 68, 64
13, 1387075, Note_off_c, 12, 65, 64
13, 1387080, Note_on_c, 12, 65, 30
13, 1387080, Note_on_c, 12, 68, 30
13, 1387195, Note_off_c, 12, 68, 64
13, 1387195, Note_off_c, 12, 65, 64
13, 1387200, Note_on_c, 12, 65, 30
13, 1387200, Note_on_c, 12, 68, 30
13, 1387315, Note_off_c, 12, 68, 64
13, 1387315, Note_off_c, 12, 65, 64
13, 1387320, Note_on_c, 12, 65, 30
13, 1387320, Note_on_c, 12, 68, 30
13, 1387435, Note_off_c, 12, 68, 64
13, 1387435, Note_off_c, 12, 65, 64
13, 1387440, Note_on_c, 12, 65, 30
13, 1387440, Note_on_c, 12, 68, 30
13, 1387555, Note_off_c, 12, 68, 64
13, 1387555, Note_off_c, 12, 65, 64
13, 1387560, Note_on_c, 12, 65, 30
13, 1387560, Note_on_c, 12, 68, 30
13, 1387675, Note_off_c, 12, 68, 64
13, 1387675, Note_off_c, 12, 65, 64
13, 1387680, Note_on_c, 12, 65, 30
13, 1387680, Note_on_c, 12, 68, 30
13, 1387795, Note_off_c, 12, 68, 64
13, 1387795, Note_off_c, 12, 65, 64
13, 1387800, Note_on_c, 12, 65, 30
13, 1387800, Note_on_c, 12, 68, 30
13, 1387915, Note_off_c, 12, 68, 64
13, 1387915, Note_off_c, 12, 65, 64
13, 1387920, Note_on_c, 12, 65, 30
13, 1387920, Note_on_c, 12, 68, 30
13, 1388035, Note_off_c, 12, 68, 64
13, 1388035, Note_off_c, 12, 65, 64
13, 1388040, Note_on_c, 12, 65, 30
13, 1388040, Note_on_c, 12, 68, 30
13, 1388155, Note_off_c, 12, 68, 64
13, 1388155, Note_off_c, 12, 65, 64
13, 1388160, Note_on_c, 12, 65, 30
13, 1388160, Note_on_c, 12, 68, 30
13, 1388275, Note_off_c, 12, 68, 64
13, 1388275, Note_off_c, 12, 65, 64
13, 1388280, Note_on_c, 12, 65, 30
13, 1388280, Note_on_c, 12, 68, 30
13, 1388395, Note_off_c, 12, 68, 64
13, 1388395, Note_off_c, 12, 65, 64
13, 1388400, Note_on_c, 12, 65, 30
13, 1388400, Note_on_c, 12, 68, 30
13, 1388515, Note_off_c, 12, 68, 64
13, 1388515, Note_off_c, 12, 65, 64
13, 1388520, Note_on_c, 12, 65, 30
13, 1388520, Note_on_c, 12, 68, 30
13, 1388635, Note_off_c, 12, 68, 64
13, 1388635, Note_off_c, 12, 65, 64
13, 1388640, Note_on_c, 12, 65, 30
13, 1388640, Note_on_c, 12, 68, 30
13, 1388755, Note_off_c, 12, 68, 64
13, 1388755, Note_off_c, 12, 65, 64
13, 1388760, Note_on_c, 12, 65, 30
13, 1388760, Note_on_c, 12, 68, 30
13, 1388875, Note_off_c, 12, 68, 64
13, 1388875, Note_off_c, 12, 65, 64
13, 1388880, Note_on_c, 12, 65, 30
13, 1388880, Note_on_c, 12, 68, 30
13, 1388995, Note_off_c, 12, 68, 64
13, 1388995, Note_off_c, 12, 65, 64
13, 1389000, Note_on_c, 12, 65, 30
13, 1389000, Note_on_c, 12, 68, 30
13, 1389115, Note_off_c, 12, 68, 64
13, 1389115, Note_off_c, 12, 65, 64
13, 1389120, Note_on_c, 12, 65, 30
13, 1389120, Note_on_c, 12, 68, 30
13, 1389235, Note_off_c, 12, 68, 64
13, 1389235, Note_off_c, 12, 65, 64
13, 1389240, Note_on_c, 12, 65, 30
13, 1389240, Note_on_c, 12, 68, 30
13, 1389355, Note_off_c, 12, 68, 64
13, 1389355, Note_off_c, 12, 65, 64
13, 1389360, Note_on_c, 12, 65, 30
13, 1389360, Note_on_c, 12, 68, 30
13, 1389475, Note_off_c, 12, 68, 64
13, 1389475, Note_off_c, 12, 65, 64
13, 1389480, Note_on_c, 12, 65, 30
13, 1389480, Note_on_c, 12, 68, 30
13, 1389595, Note_off_c, 12, 68, 64
13, 1389595, Note_off_c, 12, 65, 64
13, 1389600, Note_on_c, 12, 65, 30
13, 1389600, Note_on_c, 12, 68, 30
13, 1389715, Note_off_c, 12, 68, 64
13, 1389715, Note_off_c, 12, 65, 64
13, 1389720, Note_on_c, 12, 65, 30
13, 1389720, Note_on_c, 12, 68, 30
13, 1389835, Note_off_c, 12, 68, 64
13, 1389835, Note_off_c, 12, 65, 64
13, 1389840, Note_on_c, 12, 65, 30
13, 1389840, Note_on_c, 12, 68, 30
13, 1389955, Note_off_c, 12, 68, 64
13, 1389955, Note_off_c, 12, 65, 64
13, 1389960, Note_on_c, 12, 65, 30
13, 1389960, Note_on_c, 12, 68, 30
13, 1390075, Note_off_c, 12, 68, 64
13, 1390075, Note_off_c, 12, 65, 64
13, 1390080, Note_on_c, 12, 65, 30
13, 1390080, Note_on_c, 12, 68, 30
13, 1390195, Note_off_c, 12, 68, 64
13, 1390195, Note_off_c, 12, 65, 64
13, 1390200, Note_on_c, 12, 65, 30
13, 1390200, Note_on_c, 12, 68, 30
13, 1390315, Note_off_c, 12, 68, 64
13, 1390315, Note_off_c, 12, 65, 64
13, 1390320, Note_on_c, 12, 65, 30
13, 1390320, Note_on_c, 12, 68, 30
13, 1390435, Note_off_c, 12, 68, 64
13, 1390435, Note_off_c, 12, 65, 64
13, 1390440, Note_on_c, 12, 65, 30
13, 1390440, Note_on_c, 12, 68, 30
13, 1390555, Note_off_c, 12, 68, 64
13, 1390555, Note_off_c, 12, 65, 64
13, 1390560, Note_on_c, 12, 65, 30
13, 1390560, Note_on_c, 12, 68, 30
13, 1390675, Note_off_c, 12, 68, 64
13, 1390675, Note_off_c, 12, 65, 64
13, 1390680, Note_on_c, 12, 65, 30
13, 1390680, Note_on_c, 12, 68, 30
13, 1390795, Note_off_c, 12, 68, 64
13, 1390795, Note_off_c, 12, 65, 64
13, 1390800, Note_on_c, 12, 65, 30
13, 1390800, Note_on_c, 12, 67, 30
13, 1390915, Note_off_c, 12, 67, 64
13, 1390915, Note_off_c, 12, 65, 64
13, 1390920, Note_on_c, 12, 65, 30
13, 1390920, Note_on_c, 12, 67, 30
13, 1391035, Note_off_c, 12, 67, 64
13, 1391035, Note_off_c, 12, 65, 64
13, 1391040, Note_on_c, 12, 65, 30
13, 1391040, Note_on_c, 12, 67, 30
13, 1391155, Note_off_c, 12, 67, 64
13, 1391155, Note_off_c, 12, 65, 64
13, 1391160, Note_on_c, 12, 65, 30
13, 1391160, Note_on_c, 12, 67, 30
13, 1391275, Note_off_c, 12, 67, 64
13, 1391275, Note_off_c, 12, 65, 64
13, 1391280, Note_on_c, 12, 65, 30
13, 1391280, Note_on_c, 12, 67, 30
13, 1391395, Note_off_c, 12, 67, 64
13, 1391395, Note_off_c, 12, 65, 64
13, 1391400, Note_on_c, 12, 65, 30
13, 1391400, Note_on_c, 12, 67, 30
13, 1391515, Note_off_c, 12, 67, 64
13, 1391515, Note_off_c, 12, 65, 64
13, 1391520, Note_on_c, 12, 65, 30
13, 1391520, Note_on_c, 12, 67, 30
13, 1391635, Note_off_c, 12, 67, 64
13, 1391635, Note_off_c, 12, 65, 64
13, 1391640, Note_on_c, 12, 65, 30
13, 1391640, Note_on_c, 12, 67, 30
13, 1391755, Note_off_c, 12, 67, 64
13, 1391755, Note_off_c, 12, 65, 64
13, 1391760, Note_on_c, 12, 65, 30
13, 1391760, Note_on_c, 12, 67, 30
13, 1391875, Note_off_c, 12, 67, 64
13, 1391875, Note_off_c, 12, 65, 64
13, 1391880, Note_on_c, 12, 65, 30
13, 1391880, Note_on_c, 12, 67, 30
13, 1391995, Note_off_c, 12, 67, 64
13, 1391995, Note_off_c, 12, 65, 64
13, 1392000, Note_on_c, 12, 65, 30
13, 1392000, Note_on_c, 12, 67, 30
13, 1392115, Note_off_c, 12, 67, 64
13, 1392115, Note_off_c, 12, 65, 64
13, 1392120, Note_on_c, 12, 65, 30
13, 1392120, Note_on_c, 12, 67, 30
13, 1392235, Note_off_c, 12, 67, 64
13, 1392235, Note_off_c, 12, 65, 64
13, 1392240, Note_on_c, 12, 65, 30
13, 1392240, Note_on_c, 12, 67, 30
13, 1392355, Note_off_c, 12, 67, 64
13, 1392355, Note_off_c, 12, 65, 64
13, 1392360, Note_on_c, 12, 65, 30
13, 1392360, Note_on_c, 12, 67, 30
13, 1392475, Note_off_c, 12, 67, 64
13, 1392475, Note_off_c, 12, 65, 64
13, 1392480, Note_on_c, 12, 65, 30
13, 1392480, Note_on_c, 12, 67, 30
13, 1392595, Note_off_c, 12, 67, 64
13, 1392595, Note_off_c, 12, 65, 64
13, 1392600, Note_on_c, 12, 65, 30
13, 1392600, Note_on_c, 12, 67, 30
13, 1392715, Note_off_c, 12, 67, 64
13, 1392715, Note_off_c, 12, 65, 64
13, 1392720, Note_on_c, 12, 65, 30
13, 1392720, Note_on_c, 12, 67, 30
13, 1392835, Note_off_c, 12, 67, 64
13, 1392835, Note_off_c, 12, 65, 64
13, 1392840, Note_on_c, 12, 65, 30
13, 1392840, Note_on_c, 12, 67, 30
13, 1392955, Note_off_c, 12, 67, 64
13, 1392955, Note_off_c, 12, 65, 64
13, 1392960, Note_on_c, 12, 65, 30
13, 1392960, Note_on_c, 12, 67, 30
13, 1393075, Note_off_c, 12, 67, 64
13, 1393075, Note_off_c, 12, 65, 64
13, 1393080, Note_on_c, 12, 65, 30
13, 1393080, Note_on_c, 12, 67, 30
13, 1393195, Note_off_c, 12, 67, 64
13, 1393195, Note_off_c, 12, 65, 64
13, 1393200, Note_on_c, 12, 65, 30
13, 1393200, Note_on_c, 12, 67, 30
13, 1393315, Note_off_c, 12, 67, 64
13, 1393315, Note_off_c, 12, 65, 64
13, 1393320, Note_on_c, 12, 65, 30
13, 1393320, Note_on_c, 12, 67, 30
13, 1393435, Note_off_c, 12, 67, 64
13, 1393435, Note_off_c, 12, 65, 64
13, 1393440, Note_on_c, 12, 65, 30
13, 1393440, Note_on_c, 12, 67, 30
13, 1393555, Note_off_c, 12, 67, 64
13, 1393555, Note_off_c, 12, 65, 64
13, 1393560, Note_on_c, 12, 65, 30
13, 1393560, Note_on_c, 12, 67, 30
13, 1393675, Note_off_c, 12, 67, 64
13, 1393675, Note_off_c, 12, 65, 64
13, 1393680, Note_on_c, 12, 65, 30
13, 1393680, Note_on_c, 12, 67, 30
13, 1393795, Note_off_c, 12, 67, 64
13, 1393795, Note_off_c, 12, 65, 64
13, 1393800, Note_on_c, 12, 65, 30
13, 1393800, Note_on_c, 12, 67, 30
13, 1393915, Note_off_c, 12, 67, 64
13, 1393915, Note_off_c, 12, 65, 64
13, 1393920, Note_on_c, 12, 65, 30
13, 1393920, Note_on_c, 12, 67, 30
13, 1394035, Note_off_c, 12, 67, 64
13, 1394035, Note_off_c, 12, 65, 64
13, 1394040, Note_on_c, 12, 65, 30
13, 1394040, Note_on_c, 12, 67, 30
13, 1394155, Note_off_c, 12, 67, 64
13, 1394155, Note_off_c, 12, 65, 64
13, 1394160, Note_on_c, 12, 65, 30
13, 1394160, Note_on_c, 12, 67, 30
13, 1394275, Note_off_c, 12, 67, 64
13, 1394275, Note_off_c, 12, 65, 64
13, 1394280, Note_on_c, 12, 65, 30
13, 1394280, Note_on_c, 12, 67, 30
13, 1394395, Note_off_c, 12, 67, 64
13, 1394395, Note_off_c, 12, 65, 64
13, 1394400, Note_on_c, 12, 65, 30
13, 1394400, Note_on_c, 12, 67, 30
13, 1394515, Note_off_c, 12, 67, 64
13, 1394515, Note_off_c, 12, 65, 64
13, 1394520, Note_on_c, 12, 65, 30
13, 1394520, Note_on_c, 12, 67, 30
13, 1394635, Note_off_c, 12, 67, 64
13, 1394635, Note_off_c, 12, 65, 64
13, 1394640, Note_on_c, 12, 65, 30
13, 1394640, Note_on_c, 12, 67, 30
13, 1394755, Note_off_c, 12, 67, 64
13, 1394755, Note_off_c, 12, 65, 64
13, 1394760, Note_on_c, 12, 65, 30
13, 1394760, Note_on_c, 12, 67, 30
13, 1394875, Note_off_c, 12, 67, 64
13, 1394875, Note_off_c, 12, 65, 64
13, 1394880, Note_on_c, 12, 65, 30
13, 1394880, Note_on_c, 12, 67, 30
13, 1394995, Note_off_c, 12, 67, 64
13, 1394995, Note_off_c, 12, 65, 64
13, 1395000, Note_on_c, 12, 65, 30
13, 1395000, Note_on_c, 12, 67, 30
13, 1395115, Note_off_c, 12, 67, 64
13, 1395115, Note_off_c, 12, 65, 64
13, 1395120, Note_on_c, 12, 65, 30
13, 1395120, Note_on_c, 12, 67, 30
13, 1395235, Note_off_c, 12, 67, 64
13, 1395235, Note_off_c, 12, 65, 64
13, 1395240, Note_on_c, 12, 65, 30
13, 1395240, Note_on_c, 12, 67, 30
13, 1395355, Note_off_c, 12, 67, 64
13, 1395355, Note_off_c, 12, 65, 64
13, 1395360, Note_on_c, 12, 65, 30
13, 1395360, Note_on_c, 12, 67, 30
13, 1395475, Note_off_c, 12, 67, 64
13, 1395475, Note_off_c, 12, 65, 64
13, 1395480, Note_on_c, 12, 65, 30
13, 1395480, Note_on_c, 12, 67, 30
13, 1395595, Note_off_c, 12, 67, 64
13, 1395595, Note_off_c, 12, 65, 64
13, 1395600, Note_on_c, 12, 65, 30
13, 1395600, Note_on_c, 12, 67, 30
13, 1395715, Note_off_c, 12, 67, 64
13, 1395715, Note_off_c, 12, 65, 64
13, 1395720, Note_on_c, 12, 65, 30
13, 1395720, Note_on_c, 12, 67, 30
13, 1395835, Note_off_c, 12, 67, 64
13, 1395835, Note_off_c, 12, 65, 64
13, 1395840, Note_on_c, 12, 65, 30
13, 1395840, Note_on_c, 12, 67, 30
13, 1395955, Note_off_c, 12, 67, 64
13, 1395955, Note_off_c, 12, 65, 64
13, 1395960, Note_on_c, 12, 65, 30
13, 1395960, Note_on_c, 12, 67, 30
13, 1396075, Note_off_c, 12, 67, 64
13, 1396075, Note_off_c, 12, 65, 64
13, 1396080, Note_on_c, 12, 65, 30
13, 1396080, Note_on_c, 12, 67, 30
13, 1396195, Note_off_c, 12, 67, 64
13, 1396195, Note_off_c, 12, 65, 64
13, 1396200, Note_on_c, 12, 65, 30
13, 1396200, Note_on_c, 12, 67, 30
13, 1396315, Note_off_c, 12, 67, 64
13, 1396315, Note_off_c, 12, 65, 64
13, 1396320, Note_on_c, 12, 65, 30
13, 1396320, Note_on_c, 12, 67, 30
13, 1396435, Note_off_c, 12, 67, 64
13, 1396435, Note_off_c, 12, 65, 64
13, 1396440, Note_on_c, 12, 65, 30
13, 1396440, Note_on_c, 12, 67, 30
13, 1396555, Note_off_c, 12, 67, 64
13, 1396555, Note_off_c, 12, 65, 64
13, 1396560, Note_on_c, 12, 65, 30
13, 1396560, Note_on_c, 12, 67, 30
13, 1396675, Note_off_c, 12, 67, 64
13, 1396675, Note_off_c, 12, 65, 64
13, 1396680, Note_on_c, 12, 65, 30
13, 1396680, Note_on_c, 12, 67, 30
13, 1396795, Note_off_c, 12, 67, 64
13, 1396795, Note_off_c, 12, 65, 64
13, 1396800, Note_on_c, 12, 65, 30
13, 1396800, Note_on_c, 12, 67, 30
13, 1396915, Note_off_c, 12, 67, 64
13, 1396915, Note_off_c, 12, 65, 64
13, 1396920, Note_on_c, 12, 65, 30
13, 1396920, Note_on_c, 12, 67, 30
13, 1397035, Note_off_c, 12, 67, 64
13, 1397035, Note_off_c, 12, 65, 64
13, 1397040, Note_on_c, 12, 65, 30
13, 1397040, Note_on_c, 12, 67, 30
13, 1397155, Note_off_c, 12, 67, 64
13, 1397155, Note_off_c, 12, 65, 64
13, 1397160, Note_on_c, 12, 65, 30
13, 1397160, Note_on_c, 12, 67, 30
13, 1397275, Note_off_c, 12, 67, 64
13, 1397275, Note_off_c, 12, 65, 64
13, 1397280, Note_on_c, 12, 65, 30
13, 1397280, Note_on_c, 12, 67, 30
13, 1397395, Note_off_c, 12, 67, 64
13, 1397395, Note_off_c, 12, 65, 64
13, 1397400, Note_on_c, 12, 65, 30
13, 1397400, Note_on_c, 12, 67, 30
13, 1397515, Note_off_c, 12, 67, 64
13, 1397515, Note_off_c, 12, 65, 64
13, 1397520, Note_on_c, 12, 65, 30
13, 1397520, Note_on_c, 12, 67, 30
13, 1397635, Note_off_c, 12, 67, 64
13, 1397635, Note_off_c, 12, 65, 64
13, 1397640, Note_on_c, 12, 65, 30
13, 1397640, Note_on_c, 12, 67, 30
13, 1397755, Note_off_c, 12, 67, 64
13, 1397755, Note_off_c, 12, 65, 64
13, 1397760, Note_on_c, 12, 65, 30
13, 1397760, Note_on_c, 12, 67, 30
13, 1397875, Note_off_c, 12, 67, 64
13, 1397875, Note_off_c, 12, 65, 64
13, 1397880, Note_on_c, 12, 65, 30
13, 1397880, Note_on_c, 12, 67, 30
13, 1397995, Note_off_c, 12, 67, 64
13, 1397995, Note_off_c, 12, 65, 64
13, 1398000, Note_on_c, 12, 65, 30
13, 1398000, Note_on_c, 12, 67, 30
13, 1398115, Note_off_c, 12, 67, 64
13, 1398115, Note_off_c, 12, 65, 64
13, 1398120, Note_on_c, 12, 65, 30
13, 1398120, Note_on_c, 12, 67, 30
13, 1398235, Note_off_c, 12, 67, 64
13, 1398235, Note_off_c, 12, 65, 64
13, 1398240, Note_on_c, 12, 65, 30
13, 1398240, Note_on_c, 12, 67, 30
13, 1398355, Note_off_c, 12, 67, 64
13, 1398355, Note_off_c, 12, 65, 64
13, 1398360, Note_on_c, 12, 65, 30
13, 1398360, Note_on_c, 12, 67, 30
13, 1398475, Note_off_c, 12, 67, 64
13, 1398475, Note_off_c, 12, 65, 64
13, 1398480, Note_on_c, 12, 64, 30
13, 1398480, Note_on_c, 12, 67, 30
13, 1398880, Note_off_c, 12, 67, 64
13, 1398880, Note_off_c, 12, 64, 64
13, 1400400, Note_on_c, 12, 60, 92
13, 1400400, Note_on_c, 12, 63, 92
13, 1402200, Note_off_c, 12, 63, 64
13, 1402200, Note_off_c, 12, 60, 64
13, 1402320, Note_on_c, 12, 62, 45
13, 1402320, Note_on_c, 12, 65, 45
13, 1402720, Note_off_c, 12, 65, 64
13, 1402720, Note_off_c, 12, 62, 64
13, 1404240, Note_on_c, 12, 62, 92
13, 1404240, Note_on_c, 12, 65, 92
13, 1406040, Note_off_c, 12, 65, 64
13, 1406040, Note_off_c, 12, 62, 64
13, 1406160, Note_on_c, 12, 64, 45
13, 1406560, Note_off_c, 12, 64, 64
13, 1409040, Note_on_c, 12, 60, 30
13, 1409040, Note_on_c, 12, 64, 30
13, 1410000, Note_off_c, 12, 64, 64
13, 1410000, Note_off_c, 12, 60, 64
13, 1410000, Note_on_c, 12, 62, 30
13, 1410000, Note_on_c, 12, 65, 30
13, 1410400, Note_off_c, 12, 65, 64
13, 1410400, Note_off_c, 12, 62, 64
13, 1412880, Note_on_c, 12, 62, 30
13, 1412880, Note_on_c, 12, 65, 30
13, 1413840, Note_off_c, 12, 65, 64
13, 1413840, Note_off_c, 12, 62, 64
13, 1413840, Note_on_c, 12, 60, 30
13, 1418520, Note_off_c, 12, 60, 64
13, 1418640, Note_on_c, 12, 52, 30
13, 1419600, Note_off_c, 12, 52, 64
13, 1419600, Note_on_c, 12, 53, 30
13, 1420560, Note_off_c, 12, 53, 64
13, 1420560, Note_on_c, 12, 52, 30
13, 1421520, Note_off_c, 12, 52, 64
13, 1421520, Note_on_c, 12, 57, 30
13, 1422480, Note_off_c, 12, 57, 64
13, 1422480, Note_on_c, 12, 55, 30
13, 1423440, Note_off_c, 12, 55, 64
13, 1423440, Note_on_c, 12, 53, 30
13, 1425240, Note_off_c, 12, 53, 64
13, 1425360, Note_on_c, 12, 52, 30
13, 1426320, Note_off_c, 12, 52, 64
13, 1426320, Note_on_c, 12, 52, 30
13, 1426320, Note_on_c, 12, 55, 30
13, 1427280, Note_off_c, 12, 55, 64
13, 1427280, Note_off_c, 12, 52, 64
13, 1427280, Note_on_c, 12, 53, 30
13, 1427280, Note_on_c, 12, 57, 30
13, 1428240, Note_off_c, 12, 57, 64
13, 1428240, Note_off_c, 12, 53, 64
13, 1428240, Note_on_c, 12, 52, 30
13, 1428240, Note_on_c, 12, 55, 30
13, 1429080, Note_off_c, 12, 55, 64
13, 1429080, Note_off_c, 12, 52, 64
13, 1429200, Note_on_c, 12, 57, 30
13, 1430160, Note_off_c, 12, 57, 64
13, 1430160, Note_on_c, 12, 55, 30
13, 1431120, Note_off_c, 12, 55, 64
13, 1431120, Note_on_c, 12, 53, 30
13, 1432080, Note_off_c, 12, 53, 64
13, 1432080, Note_on_c, 12, 52, 30
13, 1432920, Note_off_c, 12, 52, 64
13, 1433040, Note_on_c, 12, 50, 30
13, 1433040, Note_on_c, 12, 53, 30
13, 1436400, Note_off_c, 12, 53, 64
13, 1436400, Note_off_c, 12, 50, 64
13, 1436400, Note_on_c, 12, 55, 30
13, 1436800, Note_off_c, 12, 55, 64
13, 1436880, Note_on_c, 12, 48, 45
13, 1436880, Note_on_c, 12, 55, 45
13, 1438320, Note_off_c, 12, 55, 64
13, 1438320, Note_off_c, 12, 48, 64
13, 1438320, Note_on_c, 12, 48, 45
13, 1438320, Note_on_c, 12, 55, 45
13, 1439760, Note_off_c, 12, 55, 64
13, 1439760, Note_off_c, 12, 48, 64
13, 1439760, Note_on_c, 12, 48, 45
13, 1439760, Note_on_c, 12, 55, 45
13, 1443960, Note_off_c, 12, 55, 64
13, 1443960, Note_off_c, 12, 48, 64
13, 1444080, Note_on_c, 12, 48, 45
13, 1444080, Note_on_c, 12, 55, 45
13, 1447600, Note_off_c, 12, 55, 64
13, 1447600, Note_off_c, 12, 48, 64
13, 1447680, Note_on_c, 12, 48, 75
13, 1447680, Note_on_c, 12, 57, 75
13, 1448455, Note_off_c, 12, 57, 64
13, 1448455, Note_off_c, 12, 48, 64
13, 1448460, Note_on_c, 12, 48, 30
13, 1448460, Note_on_c, 12, 57, 30
13, 1448700, Note_off_c, 12, 57, 64
13, 1448700, Note_off_c, 12, 48, 64
13, 1448700, Note_on_c, 12, 60, 45
13, 1452780, Note_off_c, 12, 60, 64
13, 1452780, Note_on_c, 12, 62, 45
13, 1453980, Note_off_c, 12, 62, 64
13, 1453980, Note_on_c, 12, 60, 45
13, 1454220, Note_off_c, 12, 60, 64
13, 1454220, Note_on_c, 12, 60, 45
13, 1456380, Note_off_c, 12, 60, 64
13, 1456380, Note_on_c, 12, 62, 45
13, 1457820, Note_off_c, 12, 62, 64
13, 1457820, Note_on_c, 12, 55, 45
13, 1458300, Note_off_c, 12, 55, 64
13, 1458300, Note_on_c, 12, 60, 45
13, 1458540, Note_off_c, 12, 60, 64
13, 1458540, Note_on_c, 12, 60, 45
13, 1459860, Note_off_c, 12, 60, 64
13, 1460700, Program_c, 12, 45
13, 1460700, Note_on_c, 12, 57, 45
13, 1460700, Note_on_c, 12, 65, 45
13, 1461100, Note_off_c, 12, 65, 64
13, 1461100, Note_off_c, 12, 57, 64
13, 1462140, Note_on_c, 12, 57, 45
13, 1462140, Note_on_c, 12, 65, 45
13, 1462540, Note_off_c, 12, 65, 64
13, 1462540, Note_off_c, 12, 57, 64
13, 1463580, Note_on_c, 12, 57, 45
13, 1463580, Note_on_c, 12, 65, 45
13, 1463980, Note_off_c, 12, 65, 64
13, 1463980, Note_off_c, 12, 57, 64
13, 1465020, Note_on_c, 12, 58, 45
13, 1465020, Note_on_c, 12, 62, 45
13, 1465420, Note_off_c, 12, 62, 64
13, 1465420, Note_off_c, 12, 58, 64
13, 1466460, Note_on_c, 12, 52, 45
13, 1466460, Note_on_c, 12, 60, 45
13, 1466860, Note_off_c, 12, 60, 64
13, 1466860, Note_off_c, 12, 52, 64
13, 1467900, Note_on_c, 12, 53, 54
13, 1467900, Note_on_c, 12, 57, 54
13, 1468300, Note_off_c, 12, 57, 64
13, 1468300, Note_off_c, 12, 53, 64
13, 1469100, Note_on_c, 12, 55, 69
13, 1469100, Note_on_c, 12, 57, 69
13, 1469335, Note_off_c, 12, 57, 64
13, 1469335, Note_off_c, 12, 55, 64
13, 1469820, Note_on_c, 12, 48, 78
13, 1469820, Note_on_c, 12, 60, 78
13, 1470055, Note_off_c, 12, 60, 64
13, 1470055, Note_off_c, 12, 48, 64
13, 1470060, Program_c, 12, 48
13, 1470300, Note_on_c, 12, 53, 84
13, 1470300, Note_on_c, 12, 57, 84
13, 1470535, Note_off_c, 12, 57, 64
13, 1470535, Note_off_c, 12, 53, 64
13, 1470540, Note_on_c, 12, 53, 88
13, 1470540, Note_on_c, 12, 57, 88
13, 1470775, Note_off_c, 12, 57, 64
13, 1470775, Note_off_c, 12, 53, 64
13, 1470780, Note_on_c, 12, 53, 92
13, 1470780, Note_on_c, 12, 57, 92
13, 1471015, Note_off_c, 12, 57, 64
13, 1471015, Note_off_c, 12, 53, 64
13, 1471020, Note_on_c, 12, 53, 92
13, 1471020, Note_on_c, 12, 57, 92
13, 1471255, Note_off_c, 12, 57, 64
13, 1471255, Note_off_c, 12, 53, 64
13, 1471260, Note_on_c, 12, 53, 92
13, 1471260, Note_on_c, 12, 57, 92
13, 1471495, Note_off_c, 12, 57, 64
13, 1471495, Note_off_c, 12, 53, 64
13, 1471500, Program_c, 12, 48
13, 1471500, Note_on_c, 12, 57, 108
13, 1472220, Note_off_c, 12, 57, 64
13, 1472220, Note_on_c, 12, 53, 108
13, 1472700, Note_off_c, 12, 53, 64
13, 1472700, Note_on_c, 12, 60, 108
13, 1472935, Note_off_c, 12, 60, 64
13, 1472940, Note_on_c, 12, 57, 108
13, 1473660, Note_off_c, 12, 57, 64
13, 1473660, Note_on_c, 12, 53, 108
13, 1474060, Note_off_c, 12, 53, 64
13, 1474140, Note_on_c, 12, 48, 108
13, 1474220, Note_off_c, 12, 48, 64
13, 1474380, Note_on_c, 12, 53, 108
13, 1474860, Note_off_c, 12, 53, 64
13, 1474860, Note_on_c, 12, 57, 108
13, 1475100, Note_off_c, 12, 57, 64
13, 1475100, Note_on_c, 12, 60, 108
13, 1475580, Note_off_c, 12, 60, 64
13, 1475580, Note_on_c, 12, 57, 108
13, 1475815, Note_off_c, 12, 57, 64
13, 1475820, Note_on_c, 12, 58, 108
13, 1476940, Note_off_c, 12, 58, 64
13, 1477020, Note_on_c, 12, 55, 108
13, 1477100, Note_off_c, 12, 55, 64
13, 1477260, Note_on_c, 12, 58, 108
13, 1477980, Note_off_c, 12, 58, 64
13, 1477980, Note_on_c, 12, 55, 108
13, 1478380, Note_off_c, 12, 55, 64
13, 1478460, Note_on_c, 12, 60, 108
13, 1478540, Note_off_c, 12, 60, 64
13, 1478700, Note_on_c, 12, 57, 108
13, 1479420, Note_off_c, 12, 57, 64
13, 1479420, Note_on_c, 12, 53, 108
13, 1479820, Note_off_c, 12, 53, 64
13, 1479900, Note_on_c, 12, 57, 108
13, 1479980, Note_off_c, 12, 57, 64
13, 1480140, Note_on_c, 12, 55, 108
13, 1480620, Note_off_c, 12, 55, 64
13, 1480620, Note_on_c, 12, 50, 108
13, 1480860, Note_off_c, 12, 50, 64
13, 1480860, Note_on_c, 12, 52, 108
13, 1481340, Note_off_c, 12, 52, 64
13, 1481340, Note_on_c, 12, 48, 108
13, 1481575, Note_off_c, 12, 48, 64
13, 1481580, Note_on_c, 12, 48, 92
13, 1481820, Note_off_c, 12, 48, 64
13, 1481820, Note_on_c, 12, 53, 92
13, 1482220, Note_off_c, 12, 53, 64
13, 1482300, Note_on_c, 12, 48, 92
13, 1482540, Note_off_c, 12, 48, 64
13, 1482540, Note_on_c, 12, 55, 92
13, 1482940, Note_off_c, 12, 55, 64
13, 1483020, Note_on_c, 12, 48, 92
13, 1483260, Note_off_c, 12, 48, 64
13, 1483260, Note_on_c, 12, 57, 92
13, 1483660, Note_off_c, 12, 57, 64
13, 1483740, Note_on_c, 12, 60, 92
13, 1483980, Note_off_c, 12, 60, 64
13, 1483980, Note_on_c, 12, 58, 92
13, 1484215, Note_off_c, 12, 58, 64
13, 1484220, Note_on_c, 12, 55, 92
13, 1484300, Note_off_c, 12, 55, 64
13, 1484340, Note_on_c, 12, 52, 92
13, 1484420, Note_off_c, 12, 52, 64
13, 1484460, Note_on_c, 12, 48, 75
13, 1484580, Note_off_c, 12, 48, 64
13, 1484580, Note_on_c, 12, 53, 75
13, 1484700, Note_off_c, 12, 53, 64
13, 1484700, Note_on_c, 12, 57, 75
13, 1484820, Note_off_c, 12, 57, 64
13, 1484820, Note_on_c, 12, 60, 75
13, 1484940, Note_off_c, 12, 60, 64
13, 1484940, Note_on_c, 12, 57, 75
13, 1485060, Note_off_c, 12, 57, 64
13, 1485060, Note_on_c, 12, 53, 75
13, 1485180, Note_off_c, 12, 53, 64
13, 1485180, Note_on_c, 12, 48, 75
13, 1485300, Note_off_c, 12, 48, 64
13, 1485300, Note_on_c, 12, 55, 75
13, 1485420, Note_off_c, 12, 55, 64
13, 1485420, Note_on_c, 12, 58, 75
13, 1485540, Note_off_c, 12, 58, 64
13, 1485540, Note_on_c, 12, 60, 75
13, 1485660, Note_off_c, 12, 60, 64
13, 1485660, Note_on_c, 12, 58, 75
13, 1485780, Note_off_c, 12, 58, 64
13, 1485780, Note_on_c, 12, 55, 75
13, 1485900, Note_off_c, 12, 55, 64
13, 1485900, Note_on_c, 12, 48, 75
13, 1486020, Note_off_c, 12, 48, 64
13, 1486020, Note_on_c, 12, 53, 75
13, 1486140, Note_off_c, 12, 53, 64
13, 1486140, Note_on_c, 12, 57, 75
13, 1486260, Note_off_c, 12, 57, 64
13, 1486260, Note_on_c, 12, 60, 75
13, 1486380, Note_off_c, 12, 60, 64
13, 1486380, Note_on_c, 12, 57, 75
13, 1486500, Note_off_c, 12, 57, 64
13, 1486500, Note_on_c, 12, 53, 75
13, 1486620, Note_off_c, 12, 53, 64
13, 1486620, Note_on_c, 12, 48, 75
13, 1486740, Note_off_c, 12, 48, 64
13, 1486740, Note_on_c, 12, 55, 75
13, 1486860, Note_off_c, 12, 55, 64
13, 1486860, Note_on_c, 12, 58, 75
13, 1486980, Note_off_c, 12, 58, 64
13, 1486980, Note_on_c, 12, 60, 75
13, 1487095, Note_off_c, 12, 60, 64
13, 1487100, Note_on_c, 12, 48, 92
13, 1487340, Note_off_c, 12, 48, 64
13, 1487340, Note_on_c, 12, 48, 92
13, 1487580, Note_off_c, 12, 48, 64
13, 1487580, Note_on_c, 12, 53, 92
13, 1487815, Note_off_c, 12, 53, 64
13, 1487820, Note_on_c, 12, 53, 92
13, 1487880, Note_off_c, 12, 53, 64
13, 1487880, Note_on_c, 12, 55, 92
13, 1487940, Note_off_c, 12, 55, 64
13, 1487940, Note_on_c, 12, 53, 92
13, 1488000, Note_off_c, 12, 53, 64
13, 1488000, Note_on_c, 12, 55, 92
13, 1488055, Note_off_c, 12, 55, 64
13, 1488060, Note_on_c, 12, 48, 92
13, 1488300, Note_off_c, 12, 48, 64
13, 1488300, Note_on_c, 12, 55, 92
13, 1488535, Note_off_c, 12, 55, 64
13, 1488540, Note_on_c, 12, 55, 92
13, 1488600, Note_off_c, 12, 55, 64
13, 1488600, Note_on_c, 12, 57, 92
13, 1488660, Note_off_c, 12, 57, 64
13, 1488660, Note_on_c, 12, 55, 92
13, 1488720, Note_off_c, 12, 55, 64
13, 1488720, Note_on_c, 12, 57, 92
13, 1488775, Note_off_c, 12, 57, 64
13, 1488780, Note_on_c, 12, 48, 92
13, 1489020, Note_off_c, 12, 48, 64
13, 1489020, Note_on_c, 12, 57, 92
13, 1489255, Note_off_c, 12, 57, 64
13, 1489260, Note_on_c, 12, 57, 92
13, 1489320, Note_off_c, 12, 57, 64
13, 1489320, Note_on_c, 12, 58, 92
13, 1489380, Note_off_c, 12, 58, 64
13, 1489380, Note_on_c, 12, 57, 92
13, 1489440, Note_off_c, 12, 57, 64
13, 1489440, Note_on_c, 12, 58, 92
13, 1489495, Note_off_c, 12, 58, 64
13, 1489500, Note_on_c, 12, 60, 92
13, 1489740, Note_off_c, 12, 60, 64
13, 1489740, Note_on_c, 12, 58, 92
13, 1489975, Note_off_c, 12, 58, 64
13, 1489980, Note_on_c, 12, 55, 92
13, 1490060, Note_off_c, 12, 55, 64
13, 1490100, Note_on_c, 12, 52, 92
13, 1490180, Note_off_c, 12, 52, 64
13, 1490220, Note_on_c, 12, 48, 75
13, 1490340, Note_off_c, 12, 48, 64
13, 1490340, Note_on_c, 12, 53, 75
13, 1490460, Note_off_c, 12, 53, 64
13, 1490460, Note_on_c, 12, 57, 75
13, 1490580, Note_off_c, 12, 57, 64
13, 1490580, Note_on_c, 12, 60, 75
13, 1490700, Note_off_c, 12, 60, 64
13, 1490700, Note_on_c, 12, 57, 75
13, 1490820, Note_off_c, 12, 57, 64
13, 1490820, Note_on_c, 12, 53, 75
13, 1490940, Note_off_c, 12, 53, 64
13, 1490940, Note_on_c, 12, 48, 75
13, 1491060, Note_off_c, 12, 48, 64
13, 1491060, Note_on_c, 12, 55, 75
13, 1491180, Note_off_c, 12, 55, 64
13, 1491180, Note_on_c, 12, 58, 75
13, 1491300, Note_off_c, 12, 58, 64
13, 1491300, Note_on_c, 12, 60, 75
13, 1491420, Note_off_c, 12, 60, 64
13, 1491420, Note_on_c, 12, 58, 75
13, 1491540, Note_off_c, 12, 58, 64
13, 1491540, Note_on_c, 12, 55, 75
13, 1491660, Note_off_c, 12, 55, 64
13, 1491660, Note_on_c, 12, 48, 75
13, 1491780, Note_off_c, 12, 48, 64
13, 1491780, Note_on_c, 12, 53, 75
13, 1491900, Note_off_c, 12, 53, 64
13, 1491900, Note_on_c, 12, 57, 75
13, 1492020, Note_off_c, 12, 57, 64
13, 1492020, Note_on_c, 12, 60, 75
13, 1492140, Note_off_c, 12, 60, 64
13, 1492140, Note_on_c, 12, 57, 75
13, 1492260, Note_off_c, 12, 57, 64
13, 1492260, Note_on_c, 12, 53, 75
13, 1492380, Note_off_c, 12, 53, 64
13, 1492380, Note_on_c, 12, 48, 75
13, 1492500, Note_off_c, 12, 48, 64
13, 1492500, Note_on_c, 12, 52, 75
13, 1492620, Note_off_c, 12, 52, 64
13, 1492620, Note_on_c, 12, 58, 75
13, 1492740, Note_off_c, 12, 58, 64
13, 1492740, Note_on_c, 12, 60, 75
13, 1492855, Note_off_c, 12, 60, 64
13, 1493100, Note_on_c, 12, 62, 108
13, 1493340, Note_off_c, 12, 62, 64
13, 1493340, Note_on_c, 12, 60, 108
13, 1493575, Note_off_c, 12, 60, 64
13, 1493580, Note_on_c, 12, 57, 108
13, 1493660, Note_off_c, 12, 57, 64
13, 1493700, Note_on_c, 12, 53, 108
13, 1493780, Note_off_c, 12, 53, 64
13, 1494540, Note_on_c, 12, 65, 108
13, 1494780, Note_off_c, 12, 65, 64
13, 1494780, Note_on_c, 12, 64, 108
13, 1495015, Note_off_c, 12, 64, 64
13, 1495020, Note_on_c, 12, 60, 108
13, 1495100, Note_off_c, 12, 60, 64
13, 1495140, Note_on_c, 12, 55, 108
13, 1495220, Note_off_c, 12, 55, 64
13, 1495740, Note_on_c, 12, 50, 108
13, 1495980, Note_off_c, 12, 50, 64
13, 1495980, Note_on_c, 12, 52, 108
13, 1496380, Note_off_c, 12, 52, 64
13, 1498260, Note_on_c, 12, 55, 108
13, 1498340, Note_off_c, 12, 55, 64
13, 1498380, Note_on_c, 12, 60, 108
13, 1498460, Note_off_c, 12, 60, 64
13, 1498500, Note_on_c, 12, 64, 108
13, 1498580, Note_off_c, 12, 64, 64
13, 1498620, Note_on_c, 12, 67, 108
13, 1498700, Note_off_c, 12, 67, 64
13, 1498740, Note_on_c, 12, 67, 108
13, 1498820, Note_off_c, 12, 67, 64
13, 1498860, Note_on_c, 12, 55, 108
13, 1498860, Note_on_c, 12, 67, 108
13, 1499220, Note_off_c, 12, 67, 64
13, 1499220, Note_off_c, 12, 55, 64
13, 1501140, Note_on_c, 12, 55, 108
13, 1501220, Note_off_c, 12, 55, 64
13, 1501260, Note_on_c, 12, 58, 108
13, 1501340, Note_off_c, 12, 58, 64
13, 1501380, Note_on_c, 12, 62, 108
13, 1501460, Note_off_c, 12, 62, 64
13, 1501500, Note_on_c, 12, 67, 108
13, 1501580, Note_off_c, 12, 67, 64
13, 1501620, Note_on_c, 12, 67, 108
13, 1501700, Note_off_c, 12, 67, 64
13, 1501740, Note_on_c, 12, 55, 108
13, 1501740, Note_on_c, 12, 67, 108
13, 1503060, Note_off_c, 12, 67, 64
13, 1503060, Note_off_c, 12, 55, 64
13, 1504020, Note_on_c, 12, 55, 108
13, 1504100, Note_off_c, 12, 55, 64
13, 1504140, Note_on_c, 12, 60, 108
13, 1504220, Note_off_c, 12, 60, 64
13, 1504260, Note_on_c, 12, 64, 108
13, 1504340, Note_off_c, 12, 64, 64
13, 1504380, Note_on_c, 12, 67, 108
13, 1504460, Note_off_c, 12, 67, 64
13, 1504500, Note_on_c, 12, 67, 108
13, 1504580, Note_off_c, 12, 67, 64
13, 1504620, Note_on_c, 12, 55, 108
13, 1504620, Note_on_c, 12, 67, 108
13, 1505940, Note_off_c, 12, 67, 64
13, 1505940, Note_off_c, 12, 55, 64
13, 1506900, Note_on_c, 12, 55, 108
13, 1507015, Note_off_c, 12, 55, 64
13, 1507020, Note_on_c, 12, 59, 108
13, 1507135, Note_off_c, 12, 59, 64
13, 1507140, Note_on_c, 12, 62, 108
13, 1507255, Note_off_c, 12, 62, 64
13, 1507260, Note_on_c, 12, 67, 108
13, 1507375, Note_off_c, 12, 67, 64
13, 1507380, Note_on_c, 12, 55, 108
13, 1507495, Note_off_c, 12, 55, 64
13, 1507500, Note_on_c, 12, 60, 108
13, 1507900, Note_off_c, 12, 60, 64
13, 1509420, Note_on_c, 12, 60, 92
13, 1509660, Note_off_c, 12, 60, 64
13, 1509660, Note_on_c, 12, 55, 92
13, 1510060, Note_off_c, 12, 55, 64
13, 1510140, Note_on_c, 12, 55, 92
13, 1510375, Note_off_c, 12, 55, 64
13, 1510380, Note_on_c, 12, 60, 92
13, 1510615, Note_off_c, 12, 60, 64
13, 1511580, Note_on_c, 12, 53, 45
13, 1511700, Note_off_c, 12, 53, 64
13, 1511700, Note_on_c, 12, 48, 45
13, 1511815, Note_off_c, 12, 48, 64
13, 1511820, Note_on_c, 12, 55, 45
13, 1511940, Note_off_c, 12, 55, 64
13, 1511940, Note_on_c, 12, 48, 50
13, 1512060, Note_off_c, 12, 48, 64
13, 1512060, Note_on_c, 12, 59, 55
13, 1512180, Note_off_c, 12, 59, 64
13, 1512180, Note_on_c, 12, 55, 60
13, 1512300, Note_off_c, 12, 55, 64
13, 1512300, Note_on_c, 12, 60, 65
13, 1512420, Note_off_c, 12, 60, 64
13, 1512420, Note_on_c, 12, 55, 70
13, 1512540, Note_off_c, 12, 55, 64
13, 1512540, Note_on_c, 12, 59, 75
13, 1512660, Note_off_c, 12, 59, 64
13, 1512660, Note_on_c, 12, 55, 80
13, 1512780, Note_off_c, 12, 55, 64
13, 1512780, Note_on_c, 12, 59, 85
13, 1512900, Note_off_c, 12, 59, 64
13, 1512900, Note_on_c, 12, 62, 90
13, 1513020, Note_off_c, 12, 62, 64
13, 1513020, Note_on_c, 12, 67, 96
13, 1513135, Note_off_c, 12, 67, 64
13, 1513140, Note_on_c, 12, 67, 102
13, 1513255, Note_off_c, 12, 67, 64
13, 1513260, Note_on_c, 12, 67, 108
13, 1513980, Note_off_c, 12, 67, 64
13, 1513980, Note_on_c, 12, 64, 108
13, 1514215, Note_off_c, 12, 64, 64
13, 1514460, Note_on_c, 12, 67, 108
13, 1514695, Note_off_c, 12, 67, 64
13, 1514700, Note_on_c, 12, 69, 108
13, 1515420, Note_off_c, 12, 69, 64
13, 1515420, Note_on_c, 12, 65, 108
13, 1515655, Note_off_c, 12, 65, 64
13, 1515900, Note_on_c, 12, 53, 108
13, 1516135, Note_off_c, 12, 53, 64
13, 1516140, Note_on_c, 12, 55, 45
13, 1521900, Note_off_c, 12, 55, 64
13, 1521900, Note_on_c, 12, 55, 30
13, 1524660, Note_off_c, 12, 55, 64
13, 1524780, Note_on_c, 12, 48, 30
13, 1524780, Note_on_c, 12, 55, 30
13, 1527340, Note_off_c, 12, 55, 64
13, 1527340, Note_off_c, 12, 48, 64
13, 1527420, Note_on_c, 12, 60, 30
13, 1527655, Note_off_c, 12, 60, 64
13, 1527660, Note_on_c, 12, 60, 60
13, 1531860, Note_off_c, 12, 60, 64
13, 1531980, Note_on_c, 12, 62, 60
13, 1533100, Note_off_c, 12, 62, 64
13, 1533180, Note_on_c, 12, 60, 60
13, 1533415, Note_off_c, 12, 60, 64
13, 1533420, Note_on_c, 12, 60, 60
13, 1535500, Note_off_c, 12, 60, 64
13, 1535580, Note_on_c, 12, 62, 60
13, 1536940, Note_off_c, 12, 62, 64
13, 1537020, Note_on_c, 12, 55, 60
13, 1537420, Note_off_c, 12, 55, 64
13, 1537500, Note_on_c, 12, 60, 60
13, 1537735, Note_off_c, 12, 60, 64
13, 1537740, Note_on_c, 12, 60, 60
13, 1539060, Note_off_c, 12, 60, 64
13, 1540020, Note_on_c, 12, 48, 46
13, 1540140, Note_off_c, 12, 48, 64
13, 1540140, Note_on_c, 12, 53, 46
13, 1540260, Note_off_c, 12, 53, 64
13, 1540260, Note_on_c, 12, 57, 46
13, 1540380, Note_off_c, 12, 57, 64
13, 1540380, Note_on_c, 12, 60, 47
13, 1540500, Note_off_c, 12, 60, 64
13, 1540500, Note_on_c, 12, 57, 48
13, 1540615, Note_off_c, 12, 57, 64
13, 1541460, Note_on_c, 12, 48, 56
13, 1541580, Note_off_c, 12, 48, 64
13, 1541580, Note_on_c, 12, 53, 57
13, 1541700, Note_off_c, 12, 53, 64
13, 1541700, Note_on_c, 12, 57, 58
13, 1541820, Note_off_c, 12, 57, 64
13, 1541820, Note_on_c, 12, 60, 59
13, 1541940, Note_off_c, 12, 60, 64
13, 1541940, Note_on_c, 12, 57, 60
13, 1542055, Note_off_c, 12, 57, 64
13, 1542900, Note_on_c, 12, 48, 68
13, 1543020, Note_off_c, 12, 48, 64
13, 1543020, Note_on_c, 12, 53, 69
13, 1543140, Note_off_c, 12, 53, 64
13, 1543140, Note_on_c, 12, 57, 70
13, 1543260, Note_off_c, 12, 57, 64
13, 1543260, Note_on_c, 12, 60, 71
13, 1543380, Note_off_c, 12, 60, 64
13, 1543380, Note_on_c, 12, 57, 72
13, 1543495, Note_off_c, 12, 57, 64
13, 1544340, Note_on_c, 12, 53, 80
13, 1544460, Note_off_c, 12, 53, 64
13, 1544460, Note_on_c, 12, 57, 81
13, 1544580, Note_off_c, 12, 57, 64
13, 1544580, Note_on_c, 12, 60, 82
13, 1544700, Note_off_c, 12, 60, 64
13, 1544700, Note_on_c, 12, 65, 83
13, 1544820, Note_off_c, 12, 65, 64
13, 1544820, Note_on_c, 12, 60, 84
13, 1544935, Note_off_c, 12, 60, 64
13, 1545060, Note_on_c, 12, 53, 86
13, 1545180, Note_off_c, 12, 53, 64
13, 1545180, Note_on_c, 12, 57, 87
13, 1545300, Note_off_c, 12, 57, 64
13, 1545300, Note_on_c, 12, 60, 88
13, 1545420, Note_off_c, 12, 60, 64
13, 1545420, Note_on_c, 12, 65, 89
13, 1545540, Note_off_c, 12, 65, 64
13, 1545540, Note_on_c, 12, 60, 90
13, 1545655, Note_off_c, 12, 60, 64
13, 1545780, Note_on_c, 12, 53, 92
13, 1545900, Note_off_c, 12, 53, 64
13, 1545900, Note_on_c, 12, 57, 93
13, 1546020, Note_off_c, 12, 57, 64
13, 1546020, Note_on_c, 12, 60, 94
13, 1546140, Note_off_c, 12, 60, 64
13, 1546140, Note_on_c, 12, 65, 95
13, 1546255, Note_off_c, 12, 65, 64
13, 1546260, Note_on_c, 12, 65, 96
13, 1546375, Note_off_c, 12, 65, 64
13, 1546380, Note_on_c, 12, 69, 97
13, 1546860, Note_off_c, 12, 69, 64
13, 1546860, Note_on_c, 12, 72, 101
13, 1547100, Note_off_c, 12, 72, 64
13, 1547100, Note_on_c, 12, 75, 103
13, 1547500, Note_off_c, 12, 75, 64
13, 1547580, Note_on_c, 12, 53, 108
13, 1547815, Note_off_c, 12, 53, 64
13, 1547820, Note_on_c, 12, 57, 108
13, 1548220, Note_off_c, 12, 57, 64
13, 1548300, Note_on_c, 12, 60, 108
13, 1548535, Note_off_c, 12, 60, 64
13, 1548540, Note_on_c, 12, 63, 108
13, 1548940, Note_off_c, 12, 63, 64
13, 1549020, Note_on_c, 12, 65, 108
13, 1549255, Note_off_c, 12, 65, 64
13, 1549260, Note_on_c, 12, 69, 108
13, 1549660, Note_off_c, 12, 69, 64
13, 1549740, Note_on_c, 12, 72, 108
13, 1549975, Note_off_c, 12, 72, 64
13, 1549980, Note_on_c, 12, 75, 108
13, 1550380, Note_off_c, 12, 75, 64
13, 1550460, Note_on_c, 12, 53, 108
13, 1550695, Note_off_c, 12, 53, 64
13, 1550700, Program_c, 12, 48
13, 1550700, Note_on_c, 12, 50, 92
13, 1550820, Note_off_c, 12, 50, 64
13, 1550820, Note_on_c, 12, 53, 92
13, 1550940, Note_off_c, 12, 53, 64
13, 1550940, Note_on_c, 12, 58, 92
13, 1551060, Note_off_c, 12, 58, 64
13, 1551060, Note_on_c, 12, 53, 92
13, 1551180, Note_off_c, 12, 53, 64
13, 1551180, Note_on_c, 12, 50, 92
13, 1551300, Note_off_c, 12, 50, 64
13, 1551300, Note_on_c, 12, 53, 92
13, 1551420, Note_off_c, 12, 53, 64
13, 1551420, Note_on_c, 12, 50, 92
13, 1551540, Note_off_c, 12, 50, 64
13, 1551540, Note_on_c, 12, 53, 92
13, 1551660, Note_off_c, 12, 53, 64
13, 1551660, Note_on_c, 12, 58, 92
13, 1551780, Note_off_c, 12, 58, 64
13, 1551780, Note_on_c, 12, 62, 92
13, 1551900, Note_off_c, 12, 62, 64
13, 1551900, Note_on_c, 12, 51, 92
13, 1552020, Note_off_c, 12, 51, 64
13, 1552020, Note_on_c, 12, 60, 92
13, 1552140, Note_off_c, 12, 60, 64
13, 1552140, Note_on_c, 12, 50, 92
13, 1552260, Note_off_c, 12, 50, 64
13, 1552260, Note_on_c, 12, 53, 92
13, 1552380, Note_off_c, 12, 53, 64
13, 1552380, Note_on_c, 12, 58, 92
13, 1552500, Note_off_c, 12, 58, 64
13, 1552500, Note_on_c, 12, 50, 92
13, 1552620, Note_off_c, 12, 50, 64
13, 1552620, Note_on_c, 12, 51, 92
13, 1552740, Note_off_c, 12, 51, 64
13, 1552740, Note_on_c, 12, 60, 92
13, 1552860, Note_off_c, 12, 60, 64
13, 1552860, Note_on_c, 12, 53, 92
13, 1552980, Note_off_c, 12, 53, 64
13, 1552980, Note_on_c, 12, 58, 92
13, 1553100, Note_off_c, 12, 58, 64
13, 1553100, Note_on_c, 12, 62, 92
13, 1553220, Note_off_c, 12, 62, 64
13, 1553220, Note_on_c, 12, 50, 92
13, 1553340, Note_off_c, 12, 50, 64
13, 1553340, Note_on_c, 12, 53, 92
13, 1553460, Note_off_c, 12, 53, 64
13, 1553460, Note_on_c, 12, 58, 92
13, 1553580, Note_off_c, 12, 58, 64
13, 1553580, Note_on_c, 12, 51, 92
13, 1553700, Note_off_c, 12, 51, 64
13, 1553700, Note_on_c, 12, 53, 92
13, 1553820, Note_off_c, 12, 53, 64
13, 1553820, Note_on_c, 12, 58, 92
13, 1553940, Note_off_c, 12, 58, 64
13, 1553940, Note_on_c, 12, 51, 92
13, 1554060, Note_off_c, 12, 51, 64
13, 1554060, Note_on_c, 12, 53, 92
13, 1554180, Note_off_c, 12, 53, 64
13, 1554180, Note_on_c, 12, 57, 92
13, 1554300, Note_off_c, 12, 57, 64
13, 1554300, Note_on_c, 12, 48, 92
13, 1554420, Note_off_c, 12, 48, 64
13, 1554420, Note_on_c, 12, 53, 92
13, 1554540, Note_off_c, 12, 53, 64
13, 1554540, Note_on_c, 12, 57, 92
13, 1554660, Note_off_c, 12, 57, 64
13, 1554660, Note_on_c, 12, 53, 92
13, 1554780, Note_off_c, 12, 53, 64
13, 1554780, Note_on_c, 12, 55, 92
13, 1554900, Note_off_c, 12, 55, 64
13, 1554900, Note_on_c, 12, 59, 92
13, 1555020, Note_off_c, 12, 59, 64
13, 1555020, Note_on_c, 12, 53, 92
13, 1555140, Note_off_c, 12, 53, 64
13, 1555140, Note_on_c, 12, 57, 92
13, 1555260, Note_off_c, 12, 57, 64
13, 1555260, Note_on_c, 12, 60, 92
13, 1555380, Note_off_c, 12, 60, 64
13, 1555380, Note_on_c, 12, 53, 92
13, 1555500, Note_off_c, 12, 53, 64
13, 1555500, Note_on_c, 12, 55, 92
13, 1555620, Note_off_c, 12, 55, 64
13, 1555620, Note_on_c, 12, 59, 92
13, 1555740, Note_off_c, 12, 59, 64
13, 1555740, Note_on_c, 12, 53, 92
13, 1555860, Note_off_c, 12, 53, 64
13, 1555860, Note_on_c, 12, 57, 92
13, 1555980, Note_off_c, 12, 57, 64
13, 1555980, Note_on_c, 12, 60, 92
13, 1556100, Note_off_c, 12, 60, 64
13, 1556100, Note_on_c, 12, 53, 92
13, 1556220, Note_off_c, 12, 53, 64
13, 1556220, Note_on_c, 12, 59, 92
13, 1556340, Note_off_c, 12, 59, 64
13, 1556340, Note_on_c, 12, 62, 92
13, 1556460, Note_off_c, 12, 62, 64
13, 1556460, Note_on_c, 12, 53, 92
13, 1556580, Note_off_c, 12, 53, 64
13, 1556580, Note_on_c, 12, 59, 92
13, 1556700, Note_off_c, 12, 59, 64
13, 1556700, Note_on_c, 12, 62, 92
13, 1556820, Note_off_c, 12, 62, 64
13, 1556820, Note_on_c, 12, 53, 92
13, 1556940, Note_off_c, 12, 53, 64
13, 1556940, Note_on_c, 12, 60, 92
13, 1557060, Note_off_c, 12, 60, 64
13, 1557060, Note_on_c, 12, 63, 92
13, 1557180, Note_off_c, 12, 63, 64
13, 1557180, Note_on_c, 12, 53, 92
13, 1557300, Note_off_c, 12, 53, 64
13, 1557300, Note_on_c, 12, 60, 92
13, 1557420, Note_off_c, 12, 60, 64
13, 1557420, Note_on_c, 12, 63, 92
13, 1557540, Note_off_c, 12, 63, 64
13, 1557540, Note_on_c, 12, 53, 92
13, 1557660, Note_off_c, 12, 53, 64
13, 1557660, Note_on_c, 12, 58, 92
13, 1557780, Note_off_c, 12, 58, 64
13, 1557780, Note_on_c, 12, 62, 92
13, 1557900, Note_off_c, 12, 62, 64
13, 1557900, Note_on_c, 12, 53, 92
13, 1558020, Note_off_c, 12, 53, 64
13, 1558020, Note_on_c, 12, 57, 92
13, 1558140, Note_off_c, 12, 57, 64
13, 1558140, Note_on_c, 12, 60, 92
13, 1558260, Note_off_c, 12, 60, 64
13, 1558260, Note_on_c, 12, 53, 92
13, 1558380, Note_off_c, 12, 53, 64
13, 1558380, Note_on_c, 12, 58, 92
13, 1558500, Note_off_c, 12, 58, 64
13, 1558500, Note_on_c, 12, 62, 92
13, 1558620, Note_off_c, 12, 62, 64
13, 1558620, Note_on_c, 12, 53, 92
13, 1558740, Note_off_c, 12, 53, 64
13, 1558740, Note_on_c, 12, 60, 92
13, 1558860, Note_off_c, 12, 60, 64
13, 1558860, Note_on_c, 12, 63, 92
13, 1558980, Note_off_c, 12, 63, 64
13, 1558980, Note_on_c, 12, 53, 92
13, 1559100, Note_off_c, 12, 53, 64
13, 1559100, Note_on_c, 12, 57, 92
13, 1559220, Note_off_c, 12, 57, 64
13, 1559220, Note_on_c, 12, 60, 92
13, 1559340, Note_off_c, 12, 60, 64
13, 1559340, Note_on_c, 12, 53, 92
13, 1559460, Note_off_c, 12, 53, 64
13, 1559460, Note_on_c, 12, 58, 92
13, 1559580, Note_off_c, 12, 58, 64
13, 1559580, Note_on_c, 12, 62, 92
13, 1559700, Note_off_c, 12, 62, 64
13, 1559700, Note_on_c, 12, 50, 92
13, 1559820, Note_off_c, 12, 50, 64
13, 1559820, Note_on_c, 12, 53, 92
13, 1559940, Note_off_c, 12, 53, 64
13, 1559940, Note_on_c, 12, 57, 92
13, 1560060, Note_off_c, 12, 57, 64
13, 1560060, Note_on_c, 12, 48, 92
13, 1560180, Note_off_c, 12, 48, 64
13, 1560180, Note_on_c, 12, 51, 92
13, 1560300, Note_off_c, 12, 51, 64
13, 1560300, Note_on_c, 12, 58, 92
13, 1560420, Note_off_c, 12, 58, 64
13, 1560420, Note_on_c, 12, 50, 92
13, 1560540, Note_off_c, 12, 50, 64
13, 1560540, Note_on_c, 12, 53, 92
13, 1560660, Note_off_c, 12, 53, 64
13, 1560660, Note_on_c, 12, 58, 92
13, 1560780, Note_off_c, 12, 58, 64
13, 1560780, Note_on_c, 12, 51, 92
13, 1560900, Note_off_c, 12, 51, 64
13, 1560900, Note_on_c, 12, 55, 92
13, 1561020, Note_off_c, 12, 55, 64
13, 1561020, Note_on_c, 12, 58, 92
13, 1561140, Note_off_c, 12, 58, 64
13, 1561140, Note_on_c, 12, 51, 92
13, 1561260, Note_off_c, 12, 51, 64
13, 1561260, Note_on_c, 12, 55, 92
13, 1561380, Note_off_c, 12, 55, 64
13, 1561380, Note_on_c, 12, 58, 92
13, 1561500, Note_off_c, 12, 58, 64
13, 1561500, Note_on_c, 12, 51, 92
13, 1561620, Note_off_c, 12, 51, 64
13, 1561620, Note_on_c, 12, 55, 92
13, 1561740, Note_off_c, 12, 55, 64
13, 1561740, Note_on_c, 12, 58, 92
13, 1561860, Note_off_c, 12, 58, 64
13, 1561860, Note_on_c, 12, 51, 92
13, 1561980, Note_off_c, 12, 51, 64
13, 1561980, Note_on_c, 12, 55, 92
13, 1562100, Note_off_c, 12, 55, 64
13, 1562100, Note_on_c, 12, 58, 92
13, 1562220, Note_off_c, 12, 58, 64
13, 1562220, Note_on_c, 12, 50, 92
13, 1562340, Note_off_c, 12, 50, 64
13, 1562340, Note_on_c, 12, 53, 92
13, 1562460, Note_off_c, 12, 53, 64
13, 1562460, Note_on_c, 12, 58, 92
13, 1562580, Note_off_c, 12, 58, 64
13, 1562580, Note_on_c, 12, 50, 92
13, 1562700, Note_off_c, 12, 50, 64
13, 1562700, Note_on_c, 12, 53, 92
13, 1562820, Note_off_c, 12, 53, 64
13, 1562820, Note_on_c, 12, 58, 92
13, 1562940, Note_off_c, 12, 58, 64
13, 1562940, Note_on_c, 12, 50, 92
13, 1563060, Note_off_c, 12, 50, 64
13, 1563060, Note_on_c, 12, 53, 92
13, 1563180, Note_off_c, 12, 53, 64
13, 1563180, Note_on_c, 12, 58, 92
13, 1563300, Note_off_c, 12, 58, 64
13, 1563300, Note_on_c, 12, 50, 92
13, 1563420, Note_off_c, 12, 50, 64
13, 1563420, Note_on_c, 12, 53, 92
13, 1563540, Note_off_c, 12, 53, 64
13, 1563540, Note_on_c, 12, 58, 92
13, 1563660, Note_off_c, 12, 58, 64
13, 1563660, Note_on_c, 12, 48, 92
13, 1563780, Note_off_c, 12, 48, 64
13, 1563780, Note_on_c, 12, 53, 92
13, 1563900, Note_off_c, 12, 53, 64
13, 1563900, Note_on_c, 12, 57, 92
13, 1564020, Note_off_c, 12, 57, 64
13, 1564020, Note_on_c, 12, 48, 92
13, 1564140, Note_off_c, 12, 48, 64
13, 1564140, Note_on_c, 12, 53, 92
13, 1564260, Note_off_c, 12, 53, 64
13, 1564260, Note_on_c, 12, 57, 92
13, 1564380, Note_off_c, 12, 57, 64
13, 1564380, Note_on_c, 12, 48, 92
13, 1564500, Note_off_c, 12, 48, 64
13, 1564500, Note_on_c, 12, 53, 92
13, 1564620, Note_off_c, 12, 53, 64
13, 1564620, Note_on_c, 12, 57, 92
13, 1564740, Note_off_c, 12, 57, 64
13, 1564740, Note_on_c, 12, 48, 92
13, 1564860, Note_off_c, 12, 48, 64
13, 1564860, Note_on_c, 12, 53, 92
13, 1564980, Note_off_c, 12, 53, 64
13, 1564980, Note_on_c, 12, 57, 92
13, 1565095, Note_off_c, 12, 57, 64
13, 1565100, Note_on_c, 12, 50, 92
13, 1565215, Note_off_c, 12, 50, 64
13, 1565220, Note_on_c, 12, 58, 92
13, 1565340, Note_off_c, 12, 58, 64
13, 1565340, Note_on_c, 12, 57, 92
13, 1565460, Note_off_c, 12, 57, 64
13, 1565460, Note_on_c, 12, 58, 92
13, 1565580, Note_off_c, 12, 58, 64
13, 1565580, Note_on_c, 12, 57, 92
13, 1565700, Note_off_c, 12, 57, 64
13, 1565700, Note_on_c, 12, 58, 92
13, 1565820, Note_off_c, 12, 58, 64
13, 1565820, Note_on_c, 12, 57, 92
13, 1565940, Note_off_c, 12, 57, 64
13, 1565940, Note_on_c, 12, 58, 92
13, 1566060, Note_off_c, 12, 58, 64
13, 1566060, Note_on_c, 12, 57, 92
13, 1566180, Note_off_c, 12, 57, 64
13, 1566180, Note_on_c, 12, 58, 92
13, 1566300, Note_off_c, 12, 58, 64
13, 1566300, Note_on_c, 12, 62, 92
13, 1566420, Note_off_c, 12, 62, 64
13, 1566420, Note_on_c, 12, 58, 92
13, 1566540, Note_off_c, 12, 58, 64
13, 1566540, Note_on_c, 12, 63, 92
13, 1566660, Note_off_c, 12, 63, 64
13, 1566660, Note_on_c, 12, 58, 92
13, 1566780, Note_off_c, 12, 58, 64
13, 1566780, Note_on_c, 12, 63, 92
13, 1566900, Note_off_c, 12, 63, 64
13, 1566900, Note_on_c, 12, 58, 92
13, 1567020, Note_off_c, 12, 58, 64
13, 1567020, Note_on_c, 12, 63, 92
13, 1567140, Note_off_c, 12, 63, 64
13, 1567140, Note_on_c, 12, 58, 92
13, 1567260, Note_off_c, 12, 58, 64
13, 1567260, Note_on_c, 12, 63, 92
13, 1567380, Note_off_c, 12, 63, 64
13, 1567380, Note_on_c, 12, 58, 92
13, 1567500, Note_off_c, 12, 58, 64
13, 1567500, Note_on_c, 12, 63, 92
13, 1567620, Note_off_c, 12, 63, 64
13, 1567620, Note_on_c, 12, 58, 92
13, 1567740, Note_off_c, 12, 58, 64
13, 1567740, Note_on_c, 12, 63, 92
13, 1567860, Note_off_c, 12, 63, 64
13, 1567860, Note_on_c, 12, 58, 92
13, 1567980, Note_off_c, 12, 58, 64
13, 1567980, Note_on_c, 12, 62, 92
13, 1568100, Note_off_c, 12, 62, 64
13, 1568100, Note_on_c, 12, 58, 92
13, 1568220, Note_off_c, 12, 58, 64
13, 1568220, Note_on_c, 12, 62, 92
13, 1568340, Note_off_c, 12, 62, 64
13, 1568340, Note_on_c, 12, 58, 92
13, 1568460, Note_off_c, 12, 58, 64
13, 1568460, Note_on_c, 12, 62, 92
13, 1568580, Note_off_c, 12, 62, 64
13, 1568580, Note_on_c, 12, 58, 92
13, 1568700, Note_off_c, 12, 58, 64
13, 1568700, Note_on_c, 12, 62, 92
13, 1568820, Note_off_c, 12, 62, 64
13, 1568820, Note_on_c, 12, 58, 92
13, 1568940, Note_off_c, 12, 58, 64
13, 1568940, Note_on_c, 12, 62, 92
13, 1569060, Note_off_c, 12, 62, 64
13, 1569060, Note_on_c, 12, 58, 92
13, 1569180, Note_off_c, 12, 58, 64
13, 1569180, Note_on_c, 12, 62, 92
13, 1569300, Note_off_c, 12, 62, 64
13, 1569300, Note_on_c, 12, 58, 92
13, 1569420, Note_off_c, 12, 58, 64
13, 1569420, Note_on_c, 12, 61, 75
13, 1569540, Note_off_c, 12, 61, 64
13, 1569540, Note_on_c, 12, 58, 75
13, 1569660, Note_off_c, 12, 58, 64
13, 1569660, Note_on_c, 12, 54, 75
13, 1569780, Note_off_c, 12, 54, 64
13, 1569780, Note_on_c, 12, 58, 75
13, 1569900, Note_off_c, 12, 58, 64
13, 1569900, Note_on_c, 12, 54, 75
13, 1570020, Note_off_c, 12, 54, 64
13, 1570020, Note_on_c, 12, 58, 75
13, 1570140, Note_off_c, 12, 58, 64
13, 1570140, Note_on_c, 12, 54, 75
13, 1570260, Note_off_c, 12, 54, 64
13, 1570260, Note_on_c, 12, 58, 75
13, 1570380, Note_off_c, 12, 58, 64
13, 1570380, Note_on_c, 12, 54, 75
13, 1570500, Note_off_c, 12, 54, 64
13, 1570500, Note_on_c, 12, 58, 75
13, 1570620, Note_off_c, 12, 58, 64
13, 1570620, Note_on_c, 12, 55, 75
13, 1570740, Note_off_c, 12, 55, 64
13, 1570740, Note_on_c, 12, 58, 75
13, 1570860, Note_off_c, 12, 58, 64
13, 1570860, Note_on_c, 12, 56, 60
13, 1570980, Note_off_c, 12, 56, 64
13, 1570980, Note_on_c, 12, 61, 60
13, 1571100, Note_off_c, 12, 61, 64
13, 1571100, Note_on_c, 12, 56, 60
13, 1571220, Note_off_c, 12, 56, 64
13, 1571220, Note_on_c, 12, 61, 60
13, 1571340, Note_off_c, 12, 61, 64
13, 1571340, Note_on_c, 12, 56, 60
13, 1571460, Note_off_c, 12, 56, 64
13, 1571460, Note_on_c, 12, 60, 60
13, 1571580, Note_off_c, 12, 60, 64
13, 1571580, Note_on_c, 12, 56, 60
13, 1571700, Note_off_c, 12, 56, 64
13, 1571700, Note_on_c, 12, 60, 60
13, 1571820, Note_off_c, 12, 60, 64
13, 1571820, Note_on_c, 12, 56, 60
13, 1571940, Note_off_c, 12, 56, 64
13, 1571940, Note_on_c, 12, 60, 60
13, 1572060, Note_off_c, 12, 60, 64
13, 1572060, Note_on_c, 12, 56, 60
13, 1572180, Note_off_c, 12, 56, 64
13, 1572180, Note_on_c, 12, 60, 60
13, 1572300, Note_off_c, 12, 60, 64
13, 1572300, Note_on_c, 12, 56, 45
13, 1572420, Note_off_c, 12, 56, 64
13, 1572420, Note_on_c, 12, 53, 45
13, 1572540, Note_off_c, 12, 53, 64
13, 1572540, Note_on_c, 12, 56, 45
13, 1572660, Note_off_c, 12, 56, 64
13, 1572660, Note_on_c, 12, 53, 45
13, 1572780, Note_off_c, 12, 53, 64
13, 1572780, Note_on_c, 12, 56, 45
13, 1572900, Note_off_c, 12, 56, 64
13, 1572900, Note_on_c, 12, 53, 45
13, 1573020, Note_off_c, 12, 53, 64
13, 1573020, Note_on_c, 12, 56, 45
13, 1573140, Note_off_c, 12, 56, 64
13, 1573140, Note_on_c, 12, 53, 45
13, 1573260, Note_off_c, 12, 53, 64
13, 1573260, Note_on_c, 12, 56, 45
13, 1573380, Note_off_c, 12, 56, 64
13, 1573380, Note_on_c, 12, 53, 45
13, 1573500, Note_off_c, 12, 53, 64
13, 1573500, Note_on_c, 12, 56, 45
13, 1573620, Note_off_c, 12, 56, 64
13, 1573620, Note_on_c, 12, 53, 45
13, 1573740, Note_off_c, 12, 53, 64
13, 1573740, Note_on_c, 12, 57, 45
13, 1573860, Note_off_c, 12, 57, 64
13, 1573860, Note_on_c, 12, 53, 45
13, 1573980, Note_off_c, 12, 53, 64
13, 1573980, Note_on_c, 12, 57, 45
13, 1574100, Note_off_c, 12, 57, 64
13, 1574100, Note_on_c, 12, 53, 45
13, 1574220, Note_off_c, 12, 53, 64
13, 1574220, Note_on_c, 12, 57, 45
13, 1574340, Note_off_c, 12, 57, 64
13, 1574340, Note_on_c, 12, 53, 45
13, 1574460, Note_off_c, 12, 53, 64
13, 1574460, Note_on_c, 12, 57, 45
13, 1574580, Note_off_c, 12, 57, 64
13, 1574580, Note_on_c, 12, 53, 45
13, 1574700, Note_off_c, 12, 53, 64
13, 1574700, Note_on_c, 12, 57, 45
13, 1574820, Note_off_c, 12, 57, 64
13, 1574820, Note_on_c, 12, 53, 45
13, 1574940, Note_off_c, 12, 53, 64
13, 1574940, Note_on_c, 12, 57, 45
13, 1575060, Note_off_c, 12, 57, 64
13, 1575060, Note_on_c, 12, 53, 45
13, 1575180, Note_off_c, 12, 53, 64
13, 1575180, Note_on_c, 12, 58, 45
13, 1575300, Note_off_c, 12, 58, 64
13, 1575300, Note_on_c, 12, 53, 45
13, 1575420, Note_off_c, 12, 53, 64
13, 1575420, Note_on_c, 12, 58, 45
13, 1575540, Note_off_c, 12, 58, 64
13, 1575540, Note_on_c, 12, 53, 45
13, 1575660, Note_off_c, 12, 53, 64
13, 1575660, Note_on_c, 12, 58, 45
13, 1575780, Note_off_c, 12, 58, 64
13, 1575780, Note_on_c, 12, 53, 45
13, 1575900, Note_off_c, 12, 53, 64
13, 1575900, Note_on_c, 12, 58, 45
13, 1576020, Note_off_c, 12, 58, 64
13, 1576020, Note_on_c, 12, 53, 45
13, 1576140, Note_off_c, 12, 53, 64
13, 1576140, Note_on_c, 12, 58, 45
13, 1576260, Note_off_c, 12, 58, 64
13, 1576260, Note_on_c, 12, 53, 45
13, 1576380, Note_off_c, 12, 53, 64
13, 1576380, Note_on_c, 12, 58, 45
13, 1576500, Note_off_c, 12, 58, 64
13, 1576500, Note_on_c, 12, 53, 45
13, 1576620, Note_off_c, 12, 53, 64
13, 1576620, Note_on_c, 12, 56, 45
13, 1576740, Note_off_c, 12, 56, 64
13, 1576740, Note_on_c, 12, 53, 45
13, 1576860, Note_off_c, 12, 53, 64
13, 1576860, Note_on_c, 12, 56, 45
13, 1576980, Note_off_c, 12, 56, 64
13, 1576980, Note_on_c, 12, 53, 45
13, 1577100, Note_off_c, 12, 53, 64
13, 1577100, Note_on_c, 12, 56, 45
13, 1577220, Note_off_c, 12, 56, 64
13, 1577220, Note_on_c, 12, 53, 45
13, 1577340, Note_off_c, 12, 53, 64
13, 1577340, Note_on_c, 12, 55, 45
13, 1577460, Note_off_c, 12, 55, 64
13, 1577460, Note_on_c, 12, 53, 45
13, 1577580, Note_off_c, 12, 53, 64
13, 1577580, Note_on_c, 12, 55, 45
13, 1577700, Note_off_c, 12, 55, 64
13, 1577700, Note_on_c, 12, 53, 45
13, 1577820, Note_off_c, 12, 53, 64
13, 1577820, Note_on_c, 12, 55, 45
13, 1577940, Note_off_c, 12, 55, 64
13, 1577940, Note_on_c, 12, 53, 45
13, 1578055, Note_off_c, 12, 53, 64
13, 1578060, Note_on_c, 12, 52, 45
13, 1578060, Note_on_c, 12, 55, 45
13, 1579380, Note_off_c, 12, 55, 64
13, 1579380, Note_off_c, 12, 52, 64
13, 1579500, Note_on_c, 12, 53, 45
13, 1579500, Note_on_c, 12, 55, 45
13, 1580620, Note_off_c, 12, 55, 64
13, 1580620, Note_off_c, 12, 53, 64
13, 1580700, Note_on_c, 12, 53, 92
13, 1580700, Note_on_c, 12, 55, 92
13, 1580935, Note_off_c, 12, 55, 64
13, 1580935, Note_off_c, 12, 53, 64
13, 1580940, Note_on_c, 12, 53, 92
13, 1580940, Note_on_c, 12, 55, 92
13, 1581895, Note_off_c, 12, 55, 64
13, 1581895, Note_off_c, 12, 53, 64
13, 1582140, Note_on_c, 12, 53, 92
13, 1582140, Note_on_c, 12, 55, 92
13, 1582220, Note_off_c, 12, 55, 64
13, 1582220, Note_off_c, 12, 53, 64
13, 1582380, Note_on_c, 12, 52, 92
13, 1582380, Note_on_c, 12, 55, 92
13, 1583335, Note_off_c, 12, 55, 64
13, 1583335, Note_off_c, 12, 52, 64
13, 1583580, Note_on_c, 12, 52, 92
13, 1583580, Note_on_c, 12, 55, 92
13, 1583660, Note_off_c, 12, 55, 64
13, 1583660, Note_off_c, 12, 52, 64
13, 1583820, Note_on_c, 12, 52, 45
13, 1583820, Note_on_c, 12, 55, 45
13, 1585140, Note_off_c, 12, 55, 64
13, 1585140, Note_off_c, 12, 52, 64
13, 1585260, Note_on_c, 12, 53, 45
13, 1585260, Note_on_c, 12, 55, 45
13, 1586380, Note_off_c, 12, 55, 64
13, 1586380, Note_off_c, 12, 53, 64
13, 1586460, Note_on_c, 12, 53, 92
13, 1586460, Note_on_c, 12, 55, 92
13, 1586695, Note_off_c, 12, 55, 64
13, 1586695, Note_off_c, 12, 53, 64
13, 1586700, Note_on_c, 12, 53, 92
13, 1586700, Note_on_c, 12, 55, 92
13, 1587655, Note_off_c, 12, 55, 64
13, 1587655, Note_off_c, 12, 53, 64
13, 1587900, Note_on_c, 12, 53, 98
13, 1587900, Note_on_c, 12, 55, 98
13, 1587980, Note_off_c, 12, 55, 64
13, 1587980, Note_off_c, 12, 53, 64
13, 1588140, Note_on_c, 12, 52, 99
13, 1588140, Note_on_c, 12, 55, 99
13, 1589095, Note_off_c, 12, 55, 64
13, 1589095, Note_off_c, 12, 52, 64
13, 1589340, Note_on_c, 12, 52, 106
13, 1589340, Note_on_c, 12, 55, 106
13, 1589420, Note_off_c, 12, 55, 64
13, 1589420, Note_off_c, 12, 52, 64
13, 1589580, Note_on_c, 12, 48, 108
13, 1589700, Note_off_c, 12, 48, 64
13, 1589700, Note_on_c, 12, 50, 108
13, 1589780, Note_off_c, 12, 50, 64
13, 1589820, Note_on_c, 12, 52, 108
13, 1589900, Note_off_c, 12, 52, 64
13, 1589940, Note_on_c, 12, 53, 108
13, 1590020, Note_off_c, 12, 53, 64
13, 1590060, Note_on_c, 12, 55, 108
13, 1590140, Note_off_c, 12, 55, 64
13, 1590180, Note_on_c, 12, 54, 108
13, 1590260, Note_off_c, 12, 54, 64
13, 1590300, Note_on_c, 12, 57, 108
13, 1590380, Note_off_c, 12, 57, 64
13, 1590420, Note_on_c, 12, 55, 108
13, 1590500, Note_off_c, 12, 55, 64
13, 1590540, Note_on_c, 12, 53, 108
13, 1590620, Note_off_c, 12, 53, 64
13, 1590660, Note_on_c, 12, 52, 108
13, 1590740, Note_off_c, 12, 52, 64
13, 1590780, Note_on_c, 12, 50, 108
13, 1590860, Note_off_c, 12, 50, 64
13, 1590900, Note_on_c, 12, 48, 108
13, 1590980, Note_off_c, 12, 48, 64
13, 1591020, Note_on_c, 12, 48, 108
13, 1591140, Note_off_c, 12, 48, 64
13, 1591140, Note_on_c, 12, 50, 108
13, 1591220, Note_off_c, 12, 50, 64
13, 1591260, Note_on_c, 12, 52, 108
13, 1591340, Note_off_c, 12, 52, 64
13, 1591380, Note_on_c, 12, 53, 108
13, 1591460, Note_off_c, 12, 53, 64
13, 1591500, Note_on_c, 12, 55, 108
13, 1591580, Note_off_c, 12, 55, 64
13, 1591620, Note_on_c, 12, 54, 108
13, 1591700, Note_off_c, 12, 54, 64
13, 1591740, Note_on_c, 12, 57, 108
13, 1591820, Note_off_c, 12, 57, 64
13, 1591860, Note_on_c, 12, 55, 108
13, 1591940, Note_off_c, 12, 55, 64
13, 1591980, Note_on_c, 12, 53, 108
13, 1592060, Note_off_c, 12, 53, 64
13, 1592100, Note_on_c, 12, 52, 108
13, 1592180, Note_off_c, 12, 52, 64
13, 1592220, Note_on_c, 12, 50, 108
13, 1592300, Note_off_c, 12, 50, 64
13, 1592340, Note_on_c, 12, 48, 108
13, 1592420, Note_off_c, 12, 48, 64
13, 1598220, Note_on_c, 12, 57, 45
13, 1598340, Note_off_c, 12, 57, 64
13, 1598340, Note_on_c, 12, 55, 45
13, 1598460, Note_off_c, 12, 55, 64
13, 1598460, Note_on_c, 12, 53, 45
13, 1598580, Note_off_c, 12, 53, 64
13, 1598580, Note_on_c, 12, 52, 45
13, 1598700, Note_off_c, 12, 52, 64
13, 1598700, Note_on_c, 12, 50, 45
13, 1598820, Note_off_c, 12, 50, 64
13, 1598820, Note_on_c, 12, 48, 45
13, 1598935, Note_off_c, 12, 48, 64
13, 1598940, Note_on_c, 12, 57, 45
13, 1599060, Note_off_c, 12, 57, 64
13, 1599060, Note_on_c, 12, 55, 45
13, 1599180, Note_off_c, 12, 55, 64
13, 1599180, Note_on_c, 12, 53, 45
13, 1599300, Note_off_c, 12, 53, 64
13, 1599300, Note_on_c, 12, 52, 45
13, 1599420, Note_off_c, 12, 52, 64
13, 1599420, Note_on_c, 12, 50, 45
13, 1599540, Note_off_c, 12, 50, 64
13, 1599540, Note_on_c, 12, 48, 45
13, 1599655, Note_off_c, 12, 48, 64
13, 1599660, Note_on_c, 12, 57, 45
13, 1599780, Note_off_c, 12, 57, 64
13, 1599780, Note_on_c, 12, 55, 45
13, 1599900, Note_off_c, 12, 55, 64
13, 1599900, Note_on_c, 12, 53, 45
13, 1600020, Note_off_c, 12, 53, 64
13, 1600020, Note_on_c, 12, 52, 45
13, 1600140, Note_off_c, 12, 52, 64
13, 1600140, Note_on_c, 12, 50, 45
13, 1600260, Note_off_c, 12, 50, 64
13, 1600260, Note_on_c, 12, 48, 45
13, 1600375, Note_off_c, 12, 48, 64
13, 1600380, Note_on_c, 12, 48, 45
13, 1600380, Note_on_c, 12, 55, 45
13, 1603660, Note_off_c, 12, 55, 64
13, 1603740, Note_on_c, 12, 60, 45
13, 1603860, Note_off_c, 12, 48, 64
13, 1603975, Note_off_c, 12, 60, 64
13, 1603980, Note_on_c, 12, 60, 45
13, 1607980, Note_off_c, 12, 60, 64
13, 1608060, Note_on_c, 12, 60, 45
13, 1608295, Note_off_c, 12, 60, 64
13, 1608300, Note_on_c, 12, 62, 45
13, 1609420, Note_off_c, 12, 62, 64
13, 1609500, Note_on_c, 12, 60, 45
13, 1609735, Note_off_c, 12, 60, 64
13, 1609740, Note_on_c, 12, 60, 45
13, 1610860, Note_off_c, 12, 60, 64
13, 1610940, Note_on_c, 12, 60, 47
13, 1611175, Note_off_c, 12, 60, 64
13, 1611180, Note_on_c, 12, 60, 47
13, 1611820, Note_off_c, 12, 60, 64
13, 1611900, Note_on_c, 12, 62, 49
13, 1612300, Note_off_c, 12, 62, 64
13, 1612380, Note_on_c, 12, 62, 50
13, 1612615, Note_off_c, 12, 62, 64
13, 1612620, Note_on_c, 12, 62, 50
13, 1613260, Note_off_c, 12, 62, 64
13, 1613340, Note_on_c, 12, 55, 52
13, 1613740, Note_off_c, 12, 55, 64
13, 1613820, Note_on_c, 12, 60, 53
13, 1614055, Note_off_c, 12, 60, 64
13, 1614060, Note_on_c, 12, 60, 54
13, 1615380, Note_off_c, 12, 60, 64
13, 1615500, Note_on_c, 12, 53, 60
13, 1615500, Note_on_c, 12, 60, 60
13, 1615900, Note_off_c, 12, 60, 64
13, 1615900, Note_off_c, 12, 53, 64
13, 1616700, Program_c, 12, 45
13, 1616700, Note_on_c, 12, 69, 60
13, 1616935, Note_off_c, 12, 69, 64
13, 1616940, Note_on_c, 12, 69, 60
13, 1617175, Note_off_c, 12, 69, 64
13, 1617180, Note_on_c, 12, 65, 60
13, 1617415, Note_off_c, 12, 65, 64
13, 1617420, Note_on_c, 12, 72, 60
13, 1617655, Note_off_c, 12, 72, 64
13, 1618140, Note_on_c, 12, 65, 60
13, 1618375, Note_off_c, 12, 65, 64
13, 1618380, Note_on_c, 12, 69, 60
13, 1618615, Note_off_c, 12, 69, 64
13, 1618620, Note_on_c, 12, 65, 60
13, 1618855, Note_off_c, 12, 65, 64
13, 1618860, Note_on_c, 12, 72, 60
13, 1619095, Note_off_c, 12, 72, 64
13, 1619580, Note_on_c, 12, 65, 60
13, 1619815, Note_off_c, 12, 65, 64
13, 1619820, Note_on_c, 12, 65, 60
13, 1620055, Note_off_c, 12, 65, 64
13, 1620060, Note_on_c, 12, 62, 60
13, 1620295, Note_off_c, 12, 62, 64
13, 1620300, Note_on_c, 12, 70, 60
13, 1620535, Note_off_c, 12, 70, 64
13, 1621020, Note_on_c, 12, 58, 60
13, 1621255, Note_off_c, 12, 58, 64
13, 1621260, Note_on_c, 12, 55, 60
13, 1621495, Note_off_c, 12, 55, 64
13, 1621500, Note_on_c, 12, 48, 60
13, 1621735, Note_off_c, 12, 48, 64
13, 1621740, Note_on_c, 12, 60, 60
13, 1621975, Note_off_c, 12, 60, 64
13, 1622460, Note_on_c, 12, 67, 60
13, 1622695, Note_off_c, 12, 67, 64
13, 1622700, Note_on_c, 12, 69, 60
13, 1622935, Note_off_c, 12, 69, 64
13, 1622940, Note_on_c, 12, 65, 59
13, 1623175, Note_off_c, 12, 65, 64
13, 1623180, Note_on_c, 12, 72, 58
13, 1623415, Note_off_c, 12, 72, 64
13, 1623900, Note_on_c, 12, 60, 54
13, 1624135, Note_off_c, 12, 60, 64
13, 1624140, Note_on_c, 12, 62, 53
13, 1624375, Note_off_c, 12, 62, 64
13, 1624380, Note_on_c, 12, 58, 52
13, 1624615, Note_off_c, 12, 58, 64
13, 1624620, Note_on_c, 12, 67, 51
13, 1624855, Note_off_c, 12, 67, 64
13, 1625340, Program_c, 12, 48
13, 1625340, Note_on_c, 12, 48, 45
13, 1625575, Note_off_c, 12, 48, 64
13, 1625580, Note_on_c, 12, 53, 45
13, 1625580, Note_on_c, 12, 57, 45
13, 1625655, Note_off_c, 12, 57, 64
13, 1625655, Note_off_c, 12, 53, 64
13, 1625660, Note_on_c, 12, 53, 45
13, 1625660, Note_on_c, 12, 57, 45
13, 1625735, Note_off_c, 12, 57, 64
13, 1625735, Note_off_c, 12, 53, 64
13, 1625740, Note_on_c, 12, 53, 45
13, 1625740, Note_on_c, 12, 57, 45
13, 1625815, Note_off_c, 12, 57, 64
13, 1625815, Note_off_c, 12, 53, 64
13, 1625820, Note_on_c, 12, 53, 45
13, 1625820, Note_on_c, 12, 57, 45
13, 1625895, Note_off_c, 12, 57, 64
13, 1625895, Note_off_c, 12, 53, 64
13, 1625900, Note_on_c, 12, 53, 45
13, 1625900, Note_on_c, 12, 57, 45
13, 1625975, Note_off_c, 12, 57, 64
13, 1625975, Note_off_c, 12, 53, 64
13, 1625980, Note_on_c, 12, 53, 45
13, 1625980, Note_on_c, 12, 57, 45
13, 1626055, Note_off_c, 12, 57, 64
13, 1626055, Note_off_c, 12, 53, 64
13, 1626060, Note_on_c, 12, 53, 45
13, 1626060, Note_on_c, 12, 57, 45
13, 1626135, Note_off_c, 12, 57, 64
13, 1626135, Note_off_c, 12, 53, 64
13, 1626140, Note_on_c, 12, 53, 45
13, 1626140, Note_on_c, 12, 57, 45
13, 1626215, Note_off_c, 12, 57, 64
13, 1626215, Note_off_c, 12, 53, 64
13, 1626220, Note_on_c, 12, 53, 45
13, 1626220, Note_on_c, 12, 57, 45
13, 1626295, Note_off_c, 12, 57, 64
13, 1626295, Note_off_c, 12, 53, 64
13, 1626300, Note_on_c, 12, 53, 45
13, 1626300, Note_on_c, 12, 57, 45
13, 1626375, Note_off_c, 12, 57, 64
13, 1626375, Note_off_c, 12, 53, 64
13, 1626380, Note_on_c, 12, 53, 45
13, 1626380, Note_on_c, 12, 57, 45
13, 1626455, Note_off_c, 12, 57, 64
13, 1626455, Note_off_c, 12, 53, 64
13, 1626460, Note_on_c, 12, 53, 45
13, 1626460, Note_on_c, 12, 57, 45
13, 1626535, Note_off_c, 12, 57, 64
13, 1626535, Note_off_c, 12, 53, 64
13, 1626540, Note_on_c, 12, 53, 45
13, 1626540, Note_on_c, 12, 57, 45
13, 1626615, Note_off_c, 12, 57, 64
13, 1626615, Note_off_c, 12, 53, 64
13, 1626620, Note_on_c, 12, 53, 45
13, 1626620, Note_on_c, 12, 57, 45
13, 1626695, Note_off_c, 12, 57, 64
13, 1626695, Note_off_c, 12, 53, 64
13, 1626700, Note_on_c, 12, 53, 45
13, 1626700, Note_on_c, 12, 57, 45
13, 1626775, Note_off_c, 12, 57, 64
13, 1626775, Note_off_c, 12, 53, 64
13, 1626780, Note_on_c, 12, 53, 45
13, 1626780, Note_on_c, 12, 57, 45
13, 1626855, Note_off_c, 12, 57, 64
13, 1626855, Note_off_c, 12, 53, 64
13, 1626860, Note_on_c, 12, 53, 45
13, 1626860, Note_on_c, 12, 57, 45
13, 1626935, Note_off_c, 12, 57, 64
13, 1626935, Note_off_c, 12, 53, 64
13, 1626940, Note_on_c, 12, 53, 45
13, 1626940, Note_on_c, 12, 57, 45
13, 1627015, Note_off_c, 12, 57, 64
13, 1627015, Note_off_c, 12, 53, 64
13, 1627020, Program_c, 12, 48
13, 1627020, Note_on_c, 12, 57, 108
13, 1627140, Note_off_c, 12, 57, 64
13, 1627140, Note_on_c, 12, 58, 108
13, 1627260, Note_off_c, 12, 58, 64
13, 1627260, Note_on_c, 12, 57, 108
13, 1627380, Note_off_c, 12, 57, 64
13, 1627380, Note_on_c, 12, 55, 108
13, 1627500, Note_off_c, 12, 55, 64
13, 1627500, Note_on_c, 12, 53, 108
13, 1627620, Note_off_c, 12, 53, 64
13, 1627620, Note_on_c, 12, 52, 108
13, 1627740, Note_off_c, 12, 52, 64
13, 1627740, Note_on_c, 12, 53, 108
13, 1627860, Note_off_c, 12, 53, 64
13, 1627860, Note_on_c, 12, 55, 108
13, 1627980, Note_off_c, 12, 55, 64
13, 1627980, Note_on_c, 12, 57, 108
13, 1628100, Note_off_c, 12, 57, 64
13, 1628100, Note_on_c, 12, 58, 108
13, 1628220, Note_off_c, 12, 58, 64
13, 1628220, Note_on_c, 12, 60, 108
13, 1628340, Note_off_c, 12, 60, 64
13, 1628340, Note_on_c, 12, 58, 108
13, 1628460, Note_off_c, 12, 58, 64
13, 1628460, Note_on_c, 12, 57, 108
13, 1628580, Note_off_c, 12, 57, 64
13, 1628580, Note_on_c, 12, 58, 108
13, 1628700, Note_off_c, 12, 58, 64
13, 1628700, Note_on_c, 12, 57, 108
13, 1628820, Note_off_c, 12, 57, 64
13, 1628820, Note_on_c, 12, 55, 108
13, 1628940, Note_off_c, 12, 55, 64
13, 1628940, Note_on_c, 12, 53, 108
13, 1629060, Note_off_c, 12, 53, 64
13, 1629060, Note_on_c, 12, 52, 108
13, 1629180, Note_off_c, 12, 52, 64
13, 1629180, Note_on_c, 12, 53, 108
13, 1629300, Note_off_c, 12, 53, 64
13, 1629300, Note_on_c, 12, 52, 108
13, 1629420, Note_off_c, 12, 52, 64
13, 1629420, Note_on_c, 12, 53, 108
13, 1629540, Note_off_c, 12, 53, 64
13, 1629540, Note_on_c, 12, 48, 108
13, 1629660, Note_off_c, 12, 48, 64
13, 1629660, Note_on_c, 12, 50, 108
13, 1629780, Note_off_c, 12, 50, 64
13, 1629780, Note_on_c, 12, 52, 108
13, 1629900, Note_off_c, 12, 52, 64
13, 1629900, Note_on_c, 12, 53, 108
13, 1630020, Note_off_c, 12, 53, 64
13, 1630020, Note_on_c, 12, 55, 108
13, 1630140, Note_off_c, 12, 55, 64
13, 1630140, Note_on_c, 12, 53, 108
13, 1630260, Note_off_c, 12, 53, 64
13, 1630260, Note_on_c, 12, 52, 108
13, 1630380, Note_off_c, 12, 52, 64
13, 1630380, Note_on_c, 12, 53, 108
13, 1630500, Note_off_c, 12, 53, 64
13, 1630500, Note_on_c, 12, 55, 108
13, 1630620, Note_off_c, 12, 55, 64
13, 1630620, Note_on_c, 12, 57, 108
13, 1630740, Note_off_c, 12, 57, 64
13, 1630740, Note_on_c, 12, 58, 108
13, 1630860, Note_off_c, 12, 58, 64
13, 1630860, Note_on_c, 12, 60, 108
13, 1630980, Note_off_c, 12, 60, 64
13, 1630980, Note_on_c, 12, 59, 108
13, 1631100, Note_off_c, 12, 59, 64
13, 1631100, Note_on_c, 12, 60, 108
13, 1631220, Note_off_c, 12, 60, 64
13, 1631220, Note_on_c, 12, 57, 108
13, 1631340, Note_off_c, 12, 57, 64
13, 1631340, Note_on_c, 12, 58, 108
13, 1631460, Note_off_c, 12, 58, 64
13, 1631460, Note_on_c, 12, 60, 108
13, 1631580, Note_off_c, 12, 60, 64
13, 1631580, Note_on_c, 12, 62, 108
13, 1631700, Note_off_c, 12, 62, 64
13, 1631700, Note_on_c, 12, 60, 108
13, 1631820, Note_off_c, 12, 60, 64
13, 1631820, Note_on_c, 12, 58, 108
13, 1631940, Note_off_c, 12, 58, 64
13, 1631940, Note_on_c, 12, 60, 108
13, 1632060, Note_off_c, 12, 60, 64
13, 1632060, Note_on_c, 12, 58, 108
13, 1632180, Note_off_c, 12, 58, 64
13, 1632180, Note_on_c, 12, 60, 108
13, 1632300, Note_off_c, 12, 60, 64
13, 1632300, Note_on_c, 12, 58, 108
13, 1632420, Note_off_c, 12, 58, 64
13, 1632420, Note_on_c, 12, 57, 108
13, 1632540, Note_off_c, 12, 57, 64
13, 1632540, Note_on_c, 12, 55, 108
13, 1632660, Note_off_c, 12, 55, 64
13, 1632660, Note_on_c, 12, 57, 108
13, 1632780, Note_off_c, 12, 57, 64
13, 1632780, Note_on_c, 12, 58, 108
13, 1632900, Note_off_c, 12, 58, 64
13, 1632900, Note_on_c, 12, 60, 108
13, 1633020, Note_off_c, 12, 60, 64
13, 1633020, Note_on_c, 12, 58, 108
13, 1633140, Note_off_c, 12, 58, 64
13, 1633140, Note_on_c, 12, 57, 108
13, 1633260, Note_off_c, 12, 57, 64
13, 1633260, Note_on_c, 12, 55, 108
13, 1633380, Note_off_c, 12, 55, 64
13, 1633380, Note_on_c, 12, 54, 108
13, 1633500, Note_off_c, 12, 54, 64
13, 1633500, Note_on_c, 12, 55, 108
13, 1633620, Note_off_c, 12, 55, 64
13, 1633620, Note_on_c, 12, 57, 108
13, 1633740, Note_off_c, 12, 57, 64
13, 1633740, Note_on_c, 12, 58, 108
13, 1633860, Note_off_c, 12, 58, 64
13, 1633860, Note_on_c, 12, 59, 108
13, 1633980, Note_off_c, 12, 59, 64
13, 1633980, Note_on_c, 12, 60, 108
13, 1634100, Note_off_c, 12, 60, 64
13, 1634100, Note_on_c, 12, 58, 108
13, 1634220, Note_off_c, 12, 58, 64
13, 1634220, Note_on_c, 12, 57, 108
13, 1634340, Note_off_c, 12, 57, 64
13, 1634340, Note_on_c, 12, 58, 108
13, 1634460, Note_off_c, 12, 58, 64
13, 1634460, Note_on_c, 12, 57, 108
13, 1634580, Note_off_c, 12, 57, 64
13, 1634580, Note_on_c, 12, 55, 108
13, 1634700, Note_off_c, 12, 55, 64
13, 1634700, Note_on_c, 12, 57, 108
13, 1634820, Note_off_c, 12, 57, 64
13, 1634820, Note_on_c, 12, 55, 108
13, 1634940, Note_off_c, 12, 55, 64
13, 1634940, Note_on_c, 12, 53, 108
13, 1635060, Note_off_c, 12, 53, 64
13, 1635060, Note_on_c, 12, 55, 108
13, 1635180, Note_off_c, 12, 55, 64
13, 1635180, Note_on_c, 12, 53, 108
13, 1635300, Note_off_c, 12, 53, 64
13, 1635300, Note_on_c, 12, 52, 108
13, 1635420, Note_off_c, 12, 52, 64
13, 1635420, Note_on_c, 12, 53, 108
13, 1635540, Note_off_c, 12, 53, 64
13, 1635540, Note_on_c, 12, 57, 108
13, 1635660, Note_off_c, 12, 57, 64
13, 1635660, Note_on_c, 12, 57, 108
13, 1635780, Note_off_c, 12, 57, 64
13, 1635780, Note_on_c, 12, 55, 108
13, 1635900, Note_off_c, 12, 55, 64
13, 1635900, Note_on_c, 12, 53, 108
13, 1636020, Note_off_c, 12, 53, 64
13, 1636020, Note_on_c, 12, 55, 108
13, 1636140, Note_off_c, 12, 55, 64
13, 1636140, Note_on_c, 12, 50, 108
13, 1636260, Note_off_c, 12, 50, 64
13, 1636260, Note_on_c, 12, 55, 108
13, 1636380, Note_off_c, 12, 55, 64
13, 1636380, Note_on_c, 12, 53, 108
13, 1636500, Note_off_c, 12, 53, 64
13, 1636500, Note_on_c, 12, 52, 108
13, 1636620, Note_off_c, 12, 52, 64
13, 1636620, Note_on_c, 12, 50, 108
13, 1636740, Note_off_c, 12, 50, 64
13, 1636740, Note_on_c, 12, 52, 108
13, 1636860, Note_off_c, 12, 52, 64
13, 1636860, Note_on_c, 12, 48, 108
13, 1636980, Note_off_c, 12, 48, 64
13, 1636980, Note_on_c, 12, 52, 108
13, 1637095, Note_off_c, 12, 52, 64
13, 1637100, Program_c, 12, 50
13, 1637100, Note_on_c, 12, 48, 92
13, 1637340, Note_off_c, 12, 48, 64
13, 1637340, Note_on_c, 12, 53, 92
13, 1637740, Note_off_c, 12, 53, 64
13, 1637820, Note_on_c, 12, 48, 92
13, 1638060, Note_off_c, 12, 48, 64
13, 1638060, Note_on_c, 12, 55, 92
13, 1638460, Note_off_c, 12, 55, 64
13, 1638540, Note_on_c, 12, 48, 92
13, 1638780, Note_off_c, 12, 48, 64
13, 1638780, Note_on_c, 12, 57, 92
13, 1639180, Note_off_c, 12, 57, 64
13, 1639260, Note_on_c, 12, 60, 92
13, 1639500, Note_off_c, 12, 60, 64
13, 1639500, Note_on_c, 12, 58, 92
13, 1639735, Note_off_c, 12, 58, 64
13, 1639740, Note_on_c, 12, 55, 92
13, 1639820, Note_off_c, 12, 55, 64
13, 1639860, Note_on_c, 12, 52, 92
13, 1639940, Note_off_c, 12, 52, 64
13, 1639980, Note_on_c, 12, 50, 92
13, 1639980, Note_on_c, 12, 58, 92
13, 1640380, Note_off_c, 12, 58, 64
13, 1640380, Note_off_c, 12, 50, 64
13, 1642380, Note_on_c, 12, 48, 92
13, 1642500, Note_off_c, 12, 48, 64
13, 1642500, Note_on_c, 12, 50, 92
13, 1642620, Note_off_c, 12, 50, 64
13, 1642620, Note_on_c, 12, 48, 92
13, 1642740, Note_off_c, 12, 48, 64
13, 1642740, Note_on_c, 12, 50, 92
13, 1642860, Note_off_c, 12, 50, 64
13, 1642860, Note_on_c, 12, 48, 108
13, 1643100, Note_off_c, 12, 48, 64
13, 1643100, Note_on_c, 12, 53, 108
13, 1643335, Note_off_c, 12, 53, 64
13, 1643340, Note_on_c, 12, 53, 108
13, 1643400, Note_off_c, 12, 53, 64
13, 1643400, Note_on_c, 12, 55, 108
13, 1643460, Note_off_c, 12, 55, 64
13, 1643460, Note_on_c, 12, 53, 108
13, 1643520, Note_off_c, 12, 53, 64
13, 1643520, Note_on_c, 12, 55, 108
13, 1643575, Note_off_c, 12, 55, 64
13, 1643580, Note_on_c, 12, 48, 108
13, 1643820, Note_off_c, 12, 48, 64
13, 1643820, Note_on_c, 12, 55, 108
13, 1644055, Note_off_c, 12, 55, 64
13, 1644060, Note_on_c, 12, 55, 108
13, 1644120, Note_off_c, 12, 55, 64
13, 1644120, Note_on_c, 12, 57, 108
13, 1644180, Note_off_c, 12, 57, 64
13, 1644180, Note_on_c, 12, 55, 108
13, 1644240, Note_off_c, 12, 55, 64
13, 1644240, Note_on_c, 12, 57, 108
13, 1644295, Note_off_c, 12, 57, 64
13, 1644300, Note_on_c, 12, 48, 108
13, 1644540, Note_off_c, 12, 48, 64
13, 1644540, Note_on_c, 12, 53, 108
13, 1644775, Note_off_c, 12, 53, 64
13, 1644780, Note_on_c, 12, 57, 108
13, 1644840, Note_off_c, 12, 57, 64
13, 1644840, Note_on_c, 12, 58, 108
13, 1644900, Note_off_c, 12, 58, 64
13, 1644900, Note_on_c, 12, 57, 108
13, 1644960, Note_off_c, 12, 57, 64
13, 1644960, Note_on_c, 12, 58, 108
13, 1645015, Note_off_c, 12, 58, 64
13, 1645020, Note_on_c, 12, 60, 108
13, 1645260, Note_off_c, 12, 60, 64
13, 1645260, Note_on_c, 12, 59, 108
13, 1645495, Note_off_c, 12, 59, 64
13, 1645500, Note_on_c, 12, 53, 108
13, 1645580, Note_off_c, 12, 53, 64
13, 1645620, Note_on_c, 12, 50, 108
13, 1645700, Note_off_c, 12, 50, 64
13, 1646460, Note_on_c, 12, 64, 108
13, 1646700, Note_off_c, 12, 64, 64
13, 1646700, Note_on_c, 12, 62, 108
13, 1646935, Note_off_c, 12, 62, 64
13, 1646940, Note_on_c, 12, 59, 108
13, 1647020, Note_off_c, 12, 59, 64
13, 1647060, Note_on_c, 12, 55, 108
13, 1647140, Note_off_c, 12, 55, 64
13, 1647900, Note_on_c, 12, 67, 108
13, 1648140, Note_off_c, 12, 67, 64
13, 1648140, Note_on_c, 12, 65, 108
13, 1648375, Note_off_c, 12, 65, 64
13, 1648380, Note_on_c, 12, 62, 108
13, 1648460, Note_off_c, 12, 62, 64
13, 1648500, Note_on_c, 12, 59, 108
13, 1648580, Note_off_c, 12, 59, 64
13, 1648620, Program_c, 12, 48
13, 1648620, Note_on_c, 12, 52, 108
13, 1648740, Note_off_c, 12, 52, 64
13, 1648740, Note_on_c, 12, 55, 108
13, 1648860, Note_off_c, 12, 55, 64
13, 1648860, Note_on_c, 12, 52, 108
13, 1648980, Note_off_c, 12, 52, 64
13, 1648980, Note_on_c, 12, 55, 108
13, 1649100, Note_off_c, 12, 55, 64
13, 1649100, Note_on_c, 12, 52, 108
13, 1649220, Note_off_c, 12, 52, 64
13, 1649220, Note_on_c, 12, 55, 108
13, 1649335, Note_off_c, 12, 55, 64
13, 1649340, Note_on_c, 12, 53, 108
13, 1649460, Note_off_c, 12, 53, 64
13, 1649460, Note_on_c, 12, 57, 108
13, 1649580, Note_off_c, 12, 57, 64
13, 1649580, Note_on_c, 12, 53, 108
13, 1649700, Note_off_c, 12, 53, 64
13, 1649700, Note_on_c, 12, 57, 107
13, 1649820, Note_off_c, 12, 57, 64
13, 1649820, Note_on_c, 12, 53, 106
13, 1649940, Note_off_c, 12, 53, 64
13, 1649940, Note_on_c, 12, 57, 105
13, 1650055, Note_off_c, 12, 57, 64
13, 1650060, Note_on_c, 12, 55, 104
13, 1650180, Note_off_c, 12, 55, 64
13, 1650180, Note_on_c, 12, 58, 103
13, 1650300, Note_off_c, 12, 58, 64
13, 1650300, Note_on_c, 12, 55, 102
13, 1650420, Note_off_c, 12, 55, 64
13, 1650420, Note_on_c, 12, 58, 101
13, 1650540, Note_off_c, 12, 58, 64
13, 1650540, Note_on_c, 12, 55, 100
13, 1650660, Note_off_c, 12, 55, 64
13, 1650660, Note_on_c, 12, 58, 99
13, 1650775, Note_off_c, 12, 58, 64
13, 1650780, Note_on_c, 12, 56, 98
13, 1650900, Note_off_c, 12, 56, 64
13, 1650900, Note_on_c, 12, 59, 97
13, 1651020, Note_off_c, 12, 59, 64
13, 1651020, Note_on_c, 12, 56, 96
13, 1651140, Note_off_c, 12, 56, 64
13, 1651140, Note_on_c, 12, 59, 95
13, 1651260, Note_off_c, 12, 59, 64
13, 1651260, Note_on_c, 12, 56, 94
13, 1651380, Note_off_c, 12, 56, 64
13, 1651380, Note_on_c, 12, 60, 93
13, 1651495, Note_off_c, 12, 60, 64
13, 1651500, Note_on_c, 12, 48, 92
13, 1651500, Note_on_c, 12, 60, 92
13, 1652820, Note_off_c, 12, 60, 64
13, 1652820, Note_off_c, 12, 48, 64
13, 1653780, Note_on_c, 12, 48, 92
13, 1653895, Note_off_c, 12, 48, 64
13, 1653900, Note_on_c, 12, 53, 92
13, 1654015, Note_off_c, 12, 53, 64
13, 1654020, Note_on_c, 12, 57, 92
13, 1654135, Note_off_c, 12, 57, 64
13, 1654140, Note_on_c, 12, 60, 92
13, 1654255, Note_off_c, 12, 60, 64
13, 1654260, Note_on_c, 12, 60, 92
13, 1654375, Note_off_c, 12, 60, 64
13, 1654380, Note_on_c, 12, 48, 92
13, 1654380, Note_on_c, 12, 60, 92
13, 1655700, Note_off_c, 12, 60, 64
13, 1655700, Note_off_c, 12, 48, 64
13, 1656660, Note_on_c, 12, 48, 92
13, 1656775, Note_off_c, 12, 48, 64
13, 1656780, Note_on_c, 12, 52, 92
13, 1656895, Note_off_c, 12, 52, 64
13, 1656900, Note_on_c, 12, 55, 92
13, 1657015, Note_off_c, 12, 55, 64
13, 1657020, Note_on_c, 12, 60, 92
13, 1657135, Note_off_c, 12, 60, 64
13, 1657140, Note_on_c, 12, 60, 92
13, 1657255, Note_off_c, 12, 60, 64
13, 1657260, Note_on_c, 12, 48, 92
13, 1657260, Note_on_c, 12, 60, 92
13, 1658580, Note_off_c, 12, 60, 64
13, 1658580, Note_off_c, 12, 48, 64
13, 1659540, Note_on_c, 12, 48, 92
13, 1659655, Note_off_c, 12, 48, 64
13, 1659660, Note_on_c, 12, 52, 92
13, 1659775, Note_off_c, 12, 52, 64
13, 1659780, Note_on_c, 12, 55, 92
13, 1659895, Note_off_c, 12, 55, 64
13, 1659900, Note_on_c, 12, 60, 92
13, 1660015, Note_off_c, 12, 60, 64
13, 1660020, Note_on_c, 12, 60, 92
13, 1660135, Note_off_c, 12, 60, 64
13, 1660140, Note_on_c, 12, 48, 92
13, 1660140, Note_on_c, 12, 60, 92
13, 1661460, Note_off_c, 12, 60, 64
13, 1661460, Note_off_c, 12, 48, 64
13, 1662300, Note_on_c, 12, 60, 92
13, 1662420, Note_off_c, 12, 60, 64
13, 1662420, Note_on_c, 12, 58, 92
13, 1662500, Note_off_c, 12, 58, 64
13, 1662540, Note_on_c, 12, 55, 92
13, 1662620, Note_off_c, 12, 55, 64
13, 1662660, Note_on_c, 12, 52, 92
13, 1662740, Note_off_c, 12, 52, 64
13, 1662780, Note_on_c, 12, 60, 92
13, 1662860, Note_off_c, 12, 60, 64
13, 1662900, Note_on_c, 12, 60, 92
13, 1662980, Note_off_c, 12, 60, 64
13, 1663020, Note_on_c, 12, 53, 92
13, 1663420, Note_off_c, 12, 53, 64
13, 1665900, Note_on_c, 12, 53, 92
13, 1665980, Note_off_c, 12, 53, 64
13, 1666020, Note_on_c, 12, 65, 45
13, 1666140, Note_off_c, 12, 65, 64
13, 1666140, Note_on_c, 12, 64, 45
13, 1666260, Note_off_c, 12, 64, 64
13, 1666260, Note_on_c, 12, 65, 45
13, 1666380, Note_off_c, 12, 65, 64
13, 1666380, Note_on_c, 12, 67, 45
13, 1666500, Note_off_c, 12, 67, 64
13, 1666500, Note_on_c, 12, 65, 45
13, 1666615, Note_off_c, 12, 65, 64
13, 1666620, Note_on_c, 12, 62, 45
13, 1666740, Note_off_c, 12, 62, 64
13, 1666740, Note_on_c, 12, 65, 45
13, 1666860, Note_off_c, 12, 65, 64
13, 1666860, Note_on_c, 12, 60, 45
13, 1666980, Note_off_c, 12, 60, 64
13, 1666980, Note_on_c, 12, 65, 45
13, 1667100, Note_off_c, 12, 65, 64
13, 1667100, Note_on_c, 12, 58, 45
13, 1667220, Note_off_c, 12, 58, 64
13, 1667220, Note_on_c, 12, 65, 45
13, 1667335, Note_off_c, 12, 65, 64
13, 1667340, Note_on_c, 12, 57, 45
13, 1667460, Note_off_c, 12, 57, 64
13, 1667460, Note_on_c, 12, 60, 50
13, 1667580, Note_off_c, 12, 60, 64
13, 1667580, Note_on_c, 12, 55, 55
13, 1667700, Note_off_c, 12, 55, 64
13, 1667700, Note_on_c, 12, 60, 60
13, 1667820, Note_off_c, 12, 60, 64
13, 1667820, Note_on_c, 12, 53, 65
13, 1667940, Note_off_c, 12, 53, 64
13, 1667940, Note_on_c, 12, 60, 70
13, 1668055, Note_off_c, 12, 60, 64
13, 1668060, Note_on_c, 12, 48, 75
13, 1668180, Note_off_c, 12, 48, 64
13, 1668180, Note_on_c, 12, 52, 80
13, 1668300, Note_off_c, 12, 52, 64
13, 1668300, Note_on_c, 12, 55, 85
13, 1668420, Note_off_c, 12, 55, 64
13, 1668420, Note_on_c, 12, 60, 90
13, 1668540, Note_off_c, 12, 60, 64
13, 1668540, Note_on_c, 12, 48, 96
13, 1668660, Note_off_c, 12, 48, 64
13, 1668660, Note_on_c, 12, 60, 102
13, 1668775, Note_off_c, 12, 60, 64
13, 1668780, Note_on_c, 12, 60, 108
13, 1669500, Note_off_c, 12, 60, 64
13, 1669500, Note_on_c, 12, 57, 108
13, 1669735, Note_off_c, 12, 57, 64
13, 1669980, Note_on_c, 12, 60, 108
13, 1670215, Note_off_c, 12, 60, 64
13, 1670220, Note_on_c, 12, 62, 108
13, 1670940, Note_off_c, 12, 62, 64
13, 1670940, Note_on_c, 12, 58, 108
13, 1671175, Note_off_c, 12, 58, 64
13, 1671420, Note_on_c, 12, 58, 108
13, 1671655, Note_off_c, 12, 58, 64
13, 1671660, Note_on_c, 12, 53, 45
13, 1676620, Note_off_c, 12, 53, 64
13, 1676700, Note_on_c, 12, 55, 45
13, 1679260, Note_off_c, 12, 55, 64
13, 1684380, Note_on_c, 12, 55, 60
13, 1684620, Note_off_c, 12, 55, 64
13, 1684620, Note_on_c, 12, 52, 62
13, 1684860, Note_off_c, 12, 52, 64
13, 1684860, Note_on_c, 12, 48, 64
13, 1685100, Note_off_c, 12, 48, 64
13, 1685100, Note_on_c, 12, 55, 66
13, 1685340, Note_off_c, 12, 55, 64
13, 1685340, Note_on_c, 12, 52, 68
13, 1685580, Note_off_c, 12, 52, 64
13, 1685580, Note_on_c, 12, 48, 71
13, 1685820, Note_off_c, 12, 48, 64
13, 1685820, Note_on_c, 12, 60, 74
13, 1686060, Note_off_c, 12, 60, 64
13, 1686060, Note_on_c, 12, 55, 77
13, 1686300, Note_off_c, 12, 55, 64
13, 1686300, Note_on_c, 12, 52, 80
13, 1686540, Note_off_c, 12, 52, 64
13, 1686540, Note_on_c, 12, 64, 83
13, 1686780, Note_off_c, 12, 64, 64
13, 1686780, Note_on_c, 12, 60, 86
13, 1687020, Note_off_c, 12, 60, 64
13, 1687020, Note_on_c, 12, 55, 89
13, 1687255, Note_off_c, 12, 55, 64
13, 1687260, Note_on_c, 12, 60, 92
13, 1687335, Note_off_c, 12, 60, 64
13, 1687340, Note_on_c, 12, 60, 92
13, 1687415, Note_off_c, 12, 60, 64
13, 1687420, Note_on_c, 12, 60, 92
13, 1687495, Note_off_c, 12, 60, 64
13, 1687500, Note_on_c, 12, 60, 92
13, 1687575, Note_off_c, 12, 60, 64
13, 1687580, Note_on_c, 12, 60, 92
13, 1687655, Note_off_c, 12, 60, 64
13, 1687660, Note_on_c, 12, 60, 92
13, 1687735, Note_off_c, 12, 60, 64
13, 1687740, Note_on_c, 12, 60, 92
13, 1687815, Note_off_c, 12, 60, 64
13, 1687820, Note_on_c, 12, 60, 92
13, 1687895, Note_off_c, 12, 60, 64
13, 1687900, Note_on_c, 12, 60, 92
13, 1687975, Note_off_c, 12, 60, 64
13, 1687980, Note_on_c, 12, 60, 92
13, 1688055, Note_off_c, 12, 60, 64
13, 1688060, Note_on_c, 12, 60, 92
13, 1688135, Note_off_c, 12, 60, 64
13, 1688140, Note_on_c, 12, 60, 92
13, 1688215, Note_off_c, 12, 60, 64
13, 1688220, Note_on_c, 12, 60, 92
13, 1688295, Note_off_c, 12, 60, 64
13, 1688300, Note_on_c, 12, 60, 92
13, 1688375, Note_off_c, 12, 60, 64
13, 1688380, Note_on_c, 12, 60, 92
13, 1688455, Note_off_c, 12, 60, 64
13, 1688460, Note_on_c, 12, 60, 92
13, 1688535, Note_off_c, 12, 60, 64
13, 1688540, Note_on_c, 12, 60, 92
13, 1688615, Note_off_c, 12, 60, 64
13, 1688620, Note_on_c, 12, 60, 92
13, 1688695, Note_off_c, 12, 60, 64
13, 1688700, Note_on_c, 12, 60, 92
13, 1688775, Note_off_c, 12, 60, 64
13, 1688780, Note_on_c, 12, 60, 92
13, 1688855, Note_off_c, 12, 60, 64
13, 1688860, Note_on_c, 12, 60, 92
13, 1688935, Note_off_c, 12, 60, 64
13, 1688940, Note_on_c, 12, 60, 92
13, 1689015, Note_off_c, 12, 60, 64
13, 1689020, Note_on_c, 12, 60, 92
13, 1689095, Note_off_c, 12, 60, 64
13, 1689100, Note_on_c, 12, 60, 92
13, 1689175, Note_off_c, 12, 60, 64
13, 1689180, Note_on_c, 12, 60, 92
13, 1689255, Note_off_c, 12, 60, 64
13, 1689260, Note_on_c, 12, 60, 92
13, 1689335, Note_off_c, 12, 60, 64
13, 1689340, Note_on_c, 12, 60, 92
13, 1689415, Note_off_c, 12, 60, 64
13, 1689420, Note_on_c, 12, 60, 92
13, 1689495, Note_off_c, 12, 60, 64
13, 1689500, Note_on_c, 12, 60, 92
13, 1689575, Note_off_c, 12, 60, 64
13, 1689580, Note_on_c, 12, 60, 92
13, 1689655, Note_off_c, 12, 60, 64
13, 1689660, Note_on_c, 12, 60, 92
13, 1689735, Note_off_c, 12, 60, 64
13, 1689740, Note_on_c, 12, 60, 92
13, 1689815, Note_off_c, 12, 60, 64
13, 1689820, Note_on_c, 12, 60, 92
13, 1689895, Note_off_c, 12, 60, 64
13, 1689900, Note_on_c, 12, 60, 92
13, 1689975, Note_off_c, 12, 60, 64
13, 1689980, Note_on_c, 12, 60, 92
13, 1690055, Note_off_c, 12, 60, 64
13, 1690060, Note_on_c, 12, 60, 92
13, 1690135, Note_off_c, 12, 60, 64
13, 1690140, Note_on_c, 12, 60, 92
13, 1690215, Note_off_c, 12, 60, 64
13, 1690220, Note_on_c, 12, 60, 92
13, 1690295, Note_off_c, 12, 60, 64
13, 1690300, Note_on_c, 12, 60, 92
13, 1690375, Note_off_c, 12, 60, 64
13, 1690380, Note_on_c, 12, 57, 92
13, 1690615, Note_off_c, 12, 57, 64
13, 1703820, Note_on_c, 12, 72, 45
13, 1703900, Note_off_c, 12, 72, 64
13, 1704060, Note_on_c, 12, 72, 45
13, 1704140, Note_off_c, 12, 72, 64
13, 1704300, Note_on_c, 12, 72, 45
13, 1704540, Note_off_c, 12, 72, 64
13, 1704540, Note_on_c, 12, 69, 45
13, 1704620, Note_off_c, 12, 69, 64
13, 1704780, Note_on_c, 12, 69, 45
13, 1704860, Note_off_c, 12, 69, 64
13, 1705020, Note_on_c, 12, 69, 45
13, 1705260, Note_off_c, 12, 69, 64
13, 1705260, Note_on_c, 12, 66, 47
13, 1705340, Note_off_c, 12, 66, 64
13, 1705500, Note_on_c, 12, 66, 49
13, 1705580, Note_off_c, 12, 66, 64
13, 1705740, Note_on_c, 12, 66, 51
13, 1705980, Note_off_c, 12, 66, 64
13, 1705980, Note_on_c, 12, 62, 53
13, 1706215, Note_off_c, 12, 62, 64
13, 1706220, Note_on_c, 12, 62, 55
13, 1706300, Note_off_c, 12, 62, 64
13, 1706460, Note_on_c, 12, 62, 57
13, 1706700, Note_off_c, 12, 62, 64
13, 1706700, Note_on_c, 12, 70, 59
13, 1706935, Note_off_c, 12, 70, 64
13, 1706940, Note_on_c, 12, 70, 62
13, 1707020, Note_off_c, 12, 70, 64
13, 1707180, Note_on_c, 12, 70, 65
13, 1707420, Note_off_c, 12, 70, 64
13, 1707420, Note_on_c, 12, 67, 68
13, 1707655, Note_off_c, 12, 67, 64
13, 1707660, Note_on_c, 12, 67, 71
13, 1707740, Note_off_c, 12, 67, 64
13, 1707900, Note_on_c, 12, 67, 74
13, 1708140, Note_off_c, 12, 67, 64
13, 1708140, Note_on_c, 12, 64, 77
13, 1708375, Note_off_c, 12, 64, 64
13, 1708380, Note_on_c, 12, 64, 80
13, 1708460, Note_off_c, 12, 64, 64
13, 1708620, Note_on_c, 12, 64, 83
13, 1708860, Note_off_c, 12, 64, 64
13, 1708860, Note_on_c, 12, 60, 86
13, 1709095, Note_off_c, 12, 60, 64
13, 1709100, Note_on_c, 12, 60, 89
13, 1709180, Note_off_c, 12, 60, 64
13, 1709340, Note_on_c, 12, 65, 92
13, 1709340, Note_on_c, 12, 69, 92
13, 1709415, Note_off_c, 12, 69, 64
13, 1709415, Note_off_c, 12, 65, 64
13, 1709420, Note_on_c, 12, 65, 92
13, 1709420, Note_on_c, 12, 69, 92
13, 1709495, Note_off_c, 12, 69, 64
13, 1709495, Note_off_c, 12, 65, 64
13, 1709500, Note_on_c, 12, 65, 92
13, 1709500, Note_on_c, 12, 69, 92
13, 1709575, Note_off_c, 12, 69, 64
13, 1709575, Note_off_c, 12, 65, 64
13, 1709580, Note_on_c, 12, 65, 92
13, 1709580, Note_on_c, 12, 69, 92
13, 1709655, Note_off_c, 12, 69, 64
13, 1709655, Note_off_c, 12, 65, 64
13, 1709660, Note_on_c, 12, 65, 92
13, 1709660, Note_on_c, 12, 69, 92
13, 1709735, Note_off_c, 12, 69, 64
13, 1709735, Note_off_c, 12, 65, 64
13, 1709740, Note_on_c, 12, 65, 92
13, 1709740, Note_on_c, 12, 69, 92
13, 1709815, Note_off_c, 12, 69, 64
13, 1709815, Note_off_c, 12, 65, 64
13, 1709820, Note_on_c, 12, 65, 92
13, 1709820, Note_on_c, 12, 69, 92
13, 1709895, Note_off_c, 12, 69, 64
13, 1709895, Note_off_c, 12, 65, 64
13, 1709900, Note_on_c, 12, 65, 92
13, 1709900, Note_on_c, 12, 69, 92
13, 1709975, Note_off_c, 12, 69, 64
13, 1709975, Note_off_c, 12, 65, 64
13, 1709980, Note_on_c, 12, 65, 92
13, 1709980, Note_on_c, 12, 69, 92
13, 1710055, Note_off_c, 12, 69, 64
13, 1710055, Note_off_c, 12, 65, 64
13, 1710060, Note_on_c, 12, 65, 92
13, 1710060, Note_on_c, 12, 69, 92
13, 1710135, Note_off_c, 12, 69, 64
13, 1710135, Note_off_c, 12, 65, 64
13, 1710140, Note_on_c, 12, 65, 92
13, 1710140, Note_on_c, 12, 69, 92
13, 1710215, Note_off_c, 12, 69, 64
13, 1710215, Note_off_c, 12, 65, 64
13, 1710220, Note_on_c, 12, 65, 92
13, 1710220, Note_on_c, 12, 69, 92
13, 1710295, Note_off_c, 12, 69, 64
13, 1710295, Note_off_c, 12, 65, 64
13, 1710300, Note_on_c, 12, 65, 92
13, 1710300, Note_on_c, 12, 69, 92
13, 1710375, Note_off_c, 12, 69, 64
13, 1710375, Note_off_c, 12, 65, 64
13, 1710380, Note_on_c, 12, 65, 92
13, 1710380, Note_on_c, 12, 69, 92
13, 1710455, Note_off_c, 12, 69, 64
13, 1710455, Note_off_c, 12, 65, 64
13, 1710460, Note_on_c, 12, 65, 92
13, 1710460, Note_on_c, 12, 69, 92
13, 1710535, Note_off_c, 12, 69, 64
13, 1710535, Note_off_c, 12, 65, 64
13, 1710540, Note_on_c, 12, 65, 92
13, 1710540, Note_on_c, 12, 69, 92
13, 1710615, Note_off_c, 12, 69, 64
13, 1710615, Note_off_c, 12, 65, 64
13, 1710620, Note_on_c, 12, 65, 92
13, 1710620, Note_on_c, 12, 69, 92
13, 1710695, Note_off_c, 12, 69, 64
13, 1710695, Note_off_c, 12, 65, 64
13, 1710700, Note_on_c, 12, 65, 92
13, 1710700, Note_on_c, 12, 69, 92
13, 1710775, Note_off_c, 12, 69, 64
13, 1710775, Note_off_c, 12, 65, 64
13, 1710780, Note_on_c, 12, 65, 92
13, 1710780, Note_on_c, 12, 69, 92
13, 1710855, Note_off_c, 12, 69, 64
13, 1710855, Note_off_c, 12, 65, 64
13, 1710860, Note_on_c, 12, 65, 92
13, 1710860, Note_on_c, 12, 69, 92
13, 1710935, Note_off_c, 12, 69, 64
13, 1710935, Note_off_c, 12, 65, 64
13, 1710940, Note_on_c, 12, 65, 92
13, 1710940, Note_on_c, 12, 69, 92
13, 1711015, Note_off_c, 12, 69, 64
13, 1711015, Note_off_c, 12, 65, 64
13, 1711020, Note_on_c, 12, 65, 92
13, 1711020, Note_on_c, 12, 69, 92
13, 1711095, Note_off_c, 12, 69, 64
13, 1711095, Note_off_c, 12, 65, 64
13, 1711100, Note_on_c, 12, 65, 92
13, 1711100, Note_on_c, 12, 69, 92
13, 1711175, Note_off_c, 12, 69, 64
13, 1711175, Note_off_c, 12, 65, 64
13, 1711180, Note_on_c, 12, 65, 92
13, 1711180, Note_on_c, 12, 69, 92
13, 1711255, Note_off_c, 12, 69, 64
13, 1711255, Note_off_c, 12, 65, 64
13, 1711260, Note_on_c, 12, 65, 92
13, 1711260, Note_on_c, 12, 69, 92
13, 1711335, Note_off_c, 12, 69, 64
13, 1711335, Note_off_c, 12, 65, 64
13, 1711340, Note_on_c, 12, 65, 92
13, 1711340, Note_on_c, 12, 69, 92
13, 1711415, Note_off_c, 12, 69, 64
13, 1711415, Note_off_c, 12, 65, 64
13, 1711420, Note_on_c, 12, 65, 92
13, 1711420, Note_on_c, 12, 69, 92
13, 1711495, Note_off_c, 12, 69, 64
13, 1711495, Note_off_c, 12, 65, 64
13, 1711500, Note_on_c, 12, 65, 92
13, 1711500, Note_on_c, 12, 69, 92
13, 1711575, Note_off_c, 12, 69, 64
13, 1711575, Note_off_c, 12, 65, 64
13, 1711580, Note_on_c, 12, 65, 92
13, 1711580, Note_on_c, 12, 69, 92
13, 1711655, Note_off_c, 12, 69, 64
13, 1711655, Note_off_c, 12, 65, 64
13, 1711660, Note_on_c, 12, 65, 92
13, 1711660, Note_on_c, 12, 69, 92
13, 1711735, Note_off_c, 12, 69, 64
13, 1711735, Note_off_c, 12, 65, 64
13, 1711740, Note_on_c, 12, 65, 92
13, 1711740, Note_on_c, 12, 69, 92
13, 1711815, Note_off_c, 12, 69, 64
13, 1711815, Note_off_c, 12, 65, 64
13, 1711820, Note_on_c, 12, 65, 92
13, 1711820, Note_on_c, 12, 69, 92
13, 1711895, Note_off_c, 12, 69, 64
13, 1711895, Note_off_c, 12, 65, 64
13, 1711900, Note_on_c, 12, 65, 92
13, 1711900, Note_on_c, 12, 69, 92
13, 1711975, Note_off_c, 12, 69, 64
13, 1711975, Note_off_c, 12, 65, 64
13, 1711980, Note_on_c, 12, 65, 92
13, 1711980, Note_on_c, 12, 69, 92
13, 1712055, Note_off_c, 12, 69, 64
13, 1712055, Note_off_c, 12, 65, 64
13, 1712060, Note_on_c, 12, 65, 92
13, 1712060, Note_on_c, 12, 69, 92
13, 1712135, Note_off_c, 12, 69, 64
13, 1712135, Note_off_c, 12, 65, 64
13, 1712140, Note_on_c, 12, 65, 92
13, 1712140, Note_on_c, 12, 69, 92
13, 1712215, Note_off_c, 12, 69, 64
13, 1712215, Note_off_c, 12, 65, 64
13, 1712220, Note_on_c, 12, 62, 92
13, 1712295, Note_off_c, 12, 62, 64
13, 1712300, Note_on_c, 12, 62, 92
13, 1712375, Note_off_c, 12, 62, 64
13, 1712380, Note_on_c, 12, 62, 92
13, 1712455, Note_off_c, 12, 62, 64
13, 1712460, Note_on_c, 12, 62, 92
13, 1712535, Note_off_c, 12, 62, 64
13, 1712540, Note_on_c, 12, 62, 92
13, 1712615, Note_off_c, 12, 62, 64
13, 1712620, Note_on_c, 12, 62, 92
13, 1712695, Note_off_c, 12, 62, 64
13, 1712700, Note_on_c, 12, 65, 92
13, 1712775, Note_off_c, 12, 65, 64
13, 1712780, Note_on_c, 12, 65, 92
13, 1712855, Note_off_c, 12, 65, 64
13, 1712860, Note_on_c, 12, 65, 92
13, 1712935, Note_off_c, 12, 65, 64
13, 1712940, Note_on_c, 12, 65, 92
13, 1712940, Note_on_c, 12, 69, 92
13, 1713015, Note_off_c, 12, 69, 64
13, 1713015, Note_off_c, 12, 65, 64
13, 1713020, Note_on_c, 12, 65, 92
13, 1713020, Note_on_c, 12, 69, 92
13, 1713095, Note_off_c, 12, 69, 64
13, 1713095, Note_off_c, 12, 65, 64
13, 1713100, Note_on_c, 12, 65, 92
13, 1713100, Note_on_c, 12, 69, 92
13, 1713175, Note_off_c, 12, 69, 64
13, 1713175, Note_off_c, 12, 65, 64
13, 1713180, Note_on_c, 12, 65, 92
13, 1713180, Note_on_c, 12, 69, 92
13, 1713255, Note_off_c, 12, 69, 64
13, 1713255, Note_off_c, 12, 65, 64
13, 1713260, Note_on_c, 12, 65, 92
13, 1713260, Note_on_c, 12, 69, 92
13, 1713335, Note_off_c, 12, 69, 64
13, 1713335, Note_off_c, 12, 65, 64
13, 1713340, Note_on_c, 12, 65, 92
13, 1713340, Note_on_c, 12, 69, 92
13, 1713415, Note_off_c, 12, 69, 64
13, 1713415, Note_off_c, 12, 65, 64
13, 1713420, Note_on_c, 12, 65, 92
13, 1713420, Note_on_c, 12, 69, 92
13, 1713495, Note_off_c, 12, 69, 64
13, 1713495, Note_off_c, 12, 65, 64
13, 1713500, Note_on_c, 12, 65, 92
13, 1713500, Note_on_c, 12, 69, 92
13, 1713575, Note_off_c, 12, 69, 64
13, 1713575, Note_off_c, 12, 65, 64
13, 1713580, Note_on_c, 12, 65, 92
13, 1713580, Note_on_c, 12, 69, 92
13, 1713655, Note_off_c, 12, 69, 64
13, 1713655, Note_off_c, 12, 65, 64
13, 1713660, Note_on_c, 12, 65, 92
13, 1713660, Note_on_c, 12, 69, 92
13, 1713735, Note_off_c, 12, 69, 64
13, 1713735, Note_off_c, 12, 65, 64
13, 1713740, Note_on_c, 12, 65, 92
13, 1713740, Note_on_c, 12, 69, 92
13, 1713815, Note_off_c, 12, 69, 64
13, 1713815, Note_off_c, 12, 65, 64
13, 1713820, Note_on_c, 12, 65, 92
13, 1713820, Note_on_c, 12, 69, 92
13, 1713895, Note_off_c, 12, 69, 64
13, 1713895, Note_off_c, 12, 65, 64
13, 1713900, Note_on_c, 12, 65, 92
13, 1713900, Note_on_c, 12, 69, 92
13, 1713975, Note_off_c, 12, 69, 64
13, 1713975, Note_off_c, 12, 65, 64
13, 1713980, Note_on_c, 12, 65, 92
13, 1713980, Note_on_c, 12, 69, 92
13, 1714055, Note_off_c, 12, 69, 64
13, 1714055, Note_off_c, 12, 65, 64
13, 1714060, Note_on_c, 12, 65, 92
13, 1714060, Note_on_c, 12, 69, 92
13, 1714135, Note_off_c, 12, 69, 64
13, 1714135, Note_off_c, 12, 65, 64
13, 1714140, Note_on_c, 12, 65, 92
13, 1714140, Note_on_c, 12, 69, 92
13, 1714215, Note_off_c, 12, 69, 64
13, 1714215, Note_off_c, 12, 65, 64
13, 1714220, Note_on_c, 12, 65, 92
13, 1714220, Note_on_c, 12, 69, 92
13, 1714295, Note_off_c, 12, 69, 64
13, 1714295, Note_off_c, 12, 65, 64
13, 1714300, Note_on_c, 12, 65, 92
13, 1714300, Note_on_c, 12, 69, 92
13, 1714375, Note_off_c, 12, 69, 64
13, 1714375, Note_off_c, 12, 65, 64
13, 1714380, Note_on_c, 12, 65, 92
13, 1714380, Note_on_c, 12, 69, 92
13, 1714455, Note_off_c, 12, 69, 64
13, 1714455, Note_off_c, 12, 65, 64
13, 1714460, Note_on_c, 12, 65, 92
13, 1714460, Note_on_c, 12, 69, 92
13, 1714535, Note_off_c, 12, 69, 64
13, 1714535, Note_off_c, 12, 65, 64
13, 1714540, Note_on_c, 12, 65, 92
13, 1714540, Note_on_c, 12, 69, 92
13, 1714615, Note_off_c, 12, 69, 64
13, 1714615, Note_off_c, 12, 65, 64
13, 1714620, Note_on_c, 12, 65, 92
13, 1714620, Note_on_c, 12, 69, 92
13, 1714695, Note_off_c, 12, 69, 64
13, 1714695, Note_off_c, 12, 65, 64
13, 1714700, Note_on_c, 12, 65, 92
13, 1714700, Note_on_c, 12, 69, 92
13, 1714775, Note_off_c, 12, 69, 64
13, 1714775, Note_off_c, 12, 65, 64
13, 1714780, Note_on_c, 12, 65, 92
13, 1714780, Note_on_c, 12, 69, 92
13, 1714855, Note_off_c, 12, 69, 64
13, 1714855, Note_off_c, 12, 65, 64
13, 1714860, Note_on_c, 12, 65, 92
13, 1714860, Note_on_c, 12, 74, 92
13, 1714935, Note_off_c, 12, 74, 64
13, 1714935, Note_off_c, 12, 65, 64
13, 1714940, Note_on_c, 12, 65, 92
13, 1714940, Note_on_c, 12, 74, 92
13, 1715015, Note_off_c, 12, 74, 64
13, 1715015, Note_off_c, 12, 65, 64
13, 1715020, Note_on_c, 12, 65, 92
13, 1715020, Note_on_c, 12, 74, 92
13, 1715095, Note_off_c, 12, 74, 64
13, 1715095, Note_off_c, 12, 65, 64
13, 1715100, Note_on_c, 12, 62, 92
13, 1715100, Note_on_c, 12, 65, 92
13, 1715175, Note_off_c, 12, 65, 64
13, 1715175, Note_off_c, 12, 62, 64
13, 1715180, Note_on_c, 12, 62, 92
13, 1715180, Note_on_c, 12, 65, 92
13, 1715255, Note_off_c, 12, 65, 64
13, 1715255, Note_off_c, 12, 62, 64
13, 1715260, Note_on_c, 12, 62, 92
13, 1715260, Note_on_c, 12, 65, 92
13, 1715335, Note_off_c, 12, 65, 64
13, 1715335, Note_off_c, 12, 62, 64
13, 1715340, Note_on_c, 12, 62, 92
13, 1715340, Note_on_c, 12, 65, 92
13, 1715415, Note_off_c, 12, 65, 64
13, 1715415, Note_off_c, 12, 62, 64
13, 1715420, Note_on_c, 12, 62, 92
13, 1715420, Note_on_c, 12, 65, 92
13, 1715495, Note_off_c, 12, 65, 64
13, 1715495, Note_off_c, 12, 62, 64
13, 1715500, Note_on_c, 12, 62, 92
13, 1715500, Note_on_c, 12, 65, 92
13, 1715575, Note_off_c, 12, 65, 64
13, 1715575, Note_off_c, 12, 62, 64
13, 1715580, Note_on_c, 12, 65, 92
13, 1715580, Note_on_c, 12, 71, 92
13, 1715655, Note_off_c, 12, 71, 64
13, 1715655, Note_off_c, 12, 65, 64
13, 1715660, Note_on_c, 12, 65, 92
13, 1715660, Note_on_c, 12, 71, 92
13, 1715735, Note_off_c, 12, 71, 64
13, 1715735, Note_off_c, 12, 65, 64
13, 1715740, Note_on_c, 12, 65, 92
13, 1715740, Note_on_c, 12, 71, 92
13, 1715815, Note_off_c, 12, 71, 64
13, 1715815, Note_off_c, 12, 65, 64
13, 1715820, Note_on_c, 12, 71, 92
13, 1715820, Note_on_c, 12, 74, 92
13, 1715895, Note_off_c, 12, 74, 64
13, 1715895, Note_off_c, 12, 71, 64
13, 1715900, Note_on_c, 12, 71, 92
13, 1715900, Note_on_c, 12, 74, 92
13, 1715975, Note_off_c, 12, 74, 64
13, 1715975, Note_off_c, 12, 71, 64
13, 1715980, Note_on_c, 12, 71, 92
13, 1715980, Note_on_c, 12, 74, 92
13, 1716055, Note_off_c, 12, 74, 64
13, 1716055, Note_off_c, 12, 71, 64
13, 1716060, Note_on_c, 12, 71, 92
13, 1716060, Note_on_c, 12, 74, 92
13, 1716135, Note_off_c, 12, 74, 64
13, 1716135, Note_off_c, 12, 71, 64
13, 1716140, Note_on_c, 12, 71, 92
13, 1716140, Note_on_c, 12, 74, 92
13, 1716215, Note_off_c, 12, 74, 64
13, 1716215, Note_off_c, 12, 71, 64
13, 1716220, Note_on_c, 12, 71, 92
13, 1716220, Note_on_c, 12, 74, 92
13, 1716295, Note_off_c, 12, 74, 64
13, 1716295, Note_off_c, 12, 71, 64
13, 1716300, Note_on_c, 12, 71, 92
13, 1716300, Note_on_c, 12, 74, 92
13, 1716375, Note_off_c, 12, 74, 64
13, 1716375, Note_off_c, 12, 71, 64
13, 1716380, Note_on_c, 12, 71, 92
13, 1716380, Note_on_c, 12, 74, 92
13, 1716455, Note_off_c, 12, 74, 64
13, 1716455, Note_off_c, 12, 71, 64
13, 1716460, Note_on_c, 12, 71, 92
13, 1716460, Note_on_c, 12, 74, 92
13, 1716535, Note_off_c, 12, 74, 64
13, 1716535, Note_off_c, 12, 71, 64
13, 1716540, Note_on_c, 12, 71, 92
13, 1716540, Note_on_c, 12, 74, 92
13, 1716615, Note_off_c, 12, 74, 64
13, 1716615, Note_off_c, 12, 71, 64
13, 1716620, Note_on_c, 12, 71, 92
13, 1716620, Note_on_c, 12, 74, 92
13, 1716695, Note_off_c, 12, 74, 64
13, 1716695, Note_off_c, 12, 71, 64
13, 1716700, Note_on_c, 12, 71, 92
13, 1716700, Note_on_c, 12, 74, 92
13, 1716775, Note_off_c, 12, 74, 64
13, 1716775, Note_off_c, 12, 71, 64
13, 1716780, Note_on_c, 12, 71, 92
13, 1716780, Note_on_c, 12, 74, 92
13, 1716855, Note_off_c, 12, 74, 64
13, 1716855, Note_off_c, 12, 71, 64
13, 1716860, Note_on_c, 12, 71, 92
13, 1716860, Note_on_c, 12, 74, 92
13, 1716935, Note_off_c, 12, 74, 64
13, 1716935, Note_off_c, 12, 71, 64
13, 1716940, Note_on_c, 12, 71, 92
13, 1716940, Note_on_c, 12, 74, 92
13, 1717015, Note_off_c, 12, 74, 64
13, 1717015, Note_off_c, 12, 71, 64
13, 1717020, Note_on_c, 12, 71, 92
13, 1717020, Note_on_c, 12, 74, 92
13, 1717095, Note_off_c, 12, 74, 64
13, 1717095, Note_off_c, 12, 71, 64
13, 1717100, Note_on_c, 12, 71, 92
13, 1717100, Note_on_c, 12, 74, 92
13, 1717175, Note_off_c, 12, 74, 64
13, 1717175, Note_off_c, 12, 71, 64
13, 1717180, Note_on_c, 12, 71, 92
13, 1717180, Note_on_c, 12, 74, 92
13, 1717255, Note_off_c, 12, 74, 64
13, 1717255, Note_off_c, 12, 71, 64
13, 1717260, Note_on_c, 12, 71, 92
13, 1717260, Note_on_c, 12, 74, 92
13, 1717335, Note_off_c, 12, 74, 64
13, 1717335, Note_off_c, 12, 71, 64
13, 1717340, Note_on_c, 12, 71, 92
13, 1717340, Note_on_c, 12, 74, 92
13, 1717415, Note_off_c, 12, 74, 64
13, 1717415, Note_off_c, 12, 71, 64
13, 1717420, Note_on_c, 12, 71, 92
13, 1717420, Note_on_c, 12, 74, 92
13, 1717495, Note_off_c, 12, 74, 64
13, 1717495, Note_off_c, 12, 71, 64
13, 1717500, Note_on_c, 12, 71, 92
13, 1717500, Note_on_c, 12, 74, 92
13, 1717575, Note_off_c, 12, 74, 64
13, 1717575, Note_off_c, 12, 71, 64
13, 1717580, Note_on_c, 12, 71, 92
13, 1717580, Note_on_c, 12, 74, 92
13, 1717655, Note_off_c, 12, 74, 64
13, 1717655, Note_off_c, 12, 71, 64
13, 1717660, Note_on_c, 12, 71, 92
13, 1717660, Note_on_c, 12, 74, 92
13, 1717735, Note_off_c, 12, 74, 64
13, 1717735, Note_off_c, 12, 71, 64
13, 1717740, Note_on_c, 12, 71, 92
13, 1717740, Note_on_c, 12, 74, 92
13, 1717815, Note_off_c, 12, 74, 64
13, 1717815, Note_off_c, 12, 71, 64
13, 1717820, Note_on_c, 12, 71, 92
13, 1717820, Note_on_c, 12, 74, 92
13, 1717895, Note_off_c, 12, 74, 64
13, 1717895, Note_off_c, 12, 71, 64
13, 1717900, Note_on_c, 12, 71, 92
13, 1717900, Note_on_c, 12, 74, 92
13, 1717975, Note_off_c, 12, 74, 64
13, 1717975, Note_off_c, 12, 71, 64
13, 1717980, Note_on_c, 12, 55, 45
13, 1718100, Note_off_c, 12, 55, 64
13, 1718100, Note_on_c, 12, 59, 45
13, 1718220, Note_off_c, 12, 59, 64
13, 1718220, Note_on_c, 12, 55, 45
13, 1718340, Note_off_c, 12, 55, 64
13, 1718340, Note_on_c, 12, 59, 45
13, 1718460, Note_off_c, 12, 59, 64
13, 1718460, Note_on_c, 12, 55, 45
13, 1718580, Note_off_c, 12, 55, 64
13, 1718580, Note_on_c, 12, 59, 45
13, 1718700, Note_off_c, 12, 59, 64
13, 1718700, Note_on_c, 12, 55, 45
13, 1718820, Note_off_c, 12, 55, 64
13, 1718820, Note_on_c, 12, 59, 45
13, 1718940, Note_off_c, 12, 59, 64
13, 1718940, Note_on_c, 12, 55, 45
13, 1719060, Note_off_c, 12, 55, 64
13, 1719060, Note_on_c, 12, 59, 45
13, 1719180, Note_off_c, 12, 59, 64
13, 1719180, Note_on_c, 12, 55, 45
13, 1719300, Note_off_c, 12, 55, 64
13, 1719300, Note_on_c, 12, 59, 45
13, 1719420, Note_off_c, 12, 59, 64
13, 1719420, Note_on_c, 12, 55, 45
13, 1719540, Note_off_c, 12, 55, 64
13, 1719540, Note_on_c, 12, 59, 45
13, 1719660, Note_off_c, 12, 59, 64
13, 1719660, Note_on_c, 12, 55, 45
13, 1719780, Note_off_c, 12, 55, 64
13, 1719780, Note_on_c, 12, 59, 45
13, 1719900, Note_off_c, 12, 59, 64
13, 1719900, Note_on_c, 12, 55, 45
13, 1720020, Note_off_c, 12, 55, 64
13, 1720020, Note_on_c, 12, 59, 45
13, 1720140, Note_off_c, 12, 59, 64
13, 1720140, Note_on_c, 12, 55, 45
13, 1720260, Note_off_c, 12, 55, 64
13, 1720260, Note_on_c, 12, 59, 45
13, 1720380, Note_off_c, 12, 59, 64
13, 1720380, Note_on_c, 12, 55, 45
13, 1720500, Note_off_c, 12, 55, 64
13, 1720500, Note_on_c, 12, 59, 45
13, 1720620, Note_off_c, 12, 59, 64
13, 1720620, Note_on_c, 12, 55, 45
13, 1720740, Note_off_c, 12, 55, 64
13, 1720740, Note_on_c, 12, 59, 45
13, 1720860, Note_off_c, 12, 59, 64
13, 1720860, Note_on_c, 12, 55, 45
13, 1720980, Note_off_c, 12, 55, 64
13, 1720980, Note_on_c, 12, 59, 45
13, 1721100, Note_off_c, 12, 59, 64
13, 1721100, Note_on_c, 12, 55, 45
13, 1721220, Note_off_c, 12, 55, 64
13, 1721220, Note_on_c, 12, 59, 45
13, 1721340, Note_off_c, 12, 59, 64
13, 1721340, Note_on_c, 12, 55, 45
13, 1721460, Note_off_c, 12, 55, 64
13, 1721460, Note_on_c, 12, 59, 45
13, 1721580, Note_off_c, 12, 59, 64
13, 1721580, Note_on_c, 12, 55, 45
13, 1721700, Note_off_c, 12, 55, 64
13, 1721700, Note_on_c, 12, 59, 45
13, 1721820, Note_off_c, 12, 59, 64
13, 1721820, Note_on_c, 12, 55, 45
13, 1721940, Note_off_c, 12, 55, 64
13, 1721940, Note_on_c, 12, 59, 45
13, 1722060, Note_off_c, 12, 59, 64
13, 1722060, Note_on_c, 12, 55, 45
13, 1722180, Note_off_c, 12, 55, 64
13, 1722180, Note_on_c, 12, 59, 45
13, 1722300, Note_off_c, 12, 59, 64
13, 1722300, Note_on_c, 12, 55, 45
13, 1722420, Note_off_c, 12, 55, 64
13, 1722420, Note_on_c, 12, 59, 45
13, 1722540, Note_off_c, 12, 59, 64
13, 1722540, Note_on_c, 12, 55, 45
13, 1722660, Note_off_c, 12, 55, 64
13, 1722660, Note_on_c, 12, 59, 45
13, 1722780, Note_off_c, 12, 59, 64
13, 1722780, Note_on_c, 12, 55, 45
13, 1722900, Note_off_c, 12, 55, 64
13, 1722900, Note_on_c, 12, 59, 45
13, 1723020, Note_off_c, 12, 59, 64
13, 1723020, Note_on_c, 12, 55, 45
13, 1723140, Note_off_c, 12, 55, 64
13, 1723140, Note_on_c, 12, 59, 45
13, 1723260, Note_off_c, 12, 59, 64
13, 1723260, Note_on_c, 12, 55, 45
13, 1723380, Note_off_c, 12, 55, 64
13, 1723380, Note_on_c, 12, 59, 45
13, 1723500, Note_off_c, 12, 59, 64
13, 1723500, Note_on_c, 12, 55, 45
13, 1723620, Note_off_c, 12, 55, 64
13, 1723620, Note_on_c, 12, 59, 45
13, 1723740, Note_off_c, 12, 59, 64
13, 1723740, Note_on_c, 12, 48, 45
13, 1723860, Note_off_c, 12, 48, 64
13, 1723860, Note_on_c, 12, 55, 46
13, 1723980, Note_off_c, 12, 55, 64
13, 1723980, Note_on_c, 12, 48, 47
13, 1724100, Note_off_c, 12, 48, 64
13, 1724100, Note_on_c, 12, 55, 48
13, 1724220, Note_off_c, 12, 55, 64
13, 1724220, Note_on_c, 12, 48, 49
13, 1724340, Note_off_c, 12, 48, 64
13, 1724340, Note_on_c, 12, 55, 50
13, 1724460, Note_off_c, 12, 55, 64
13, 1724460, Note_on_c, 12, 48, 51
13, 1724580, Note_off_c, 12, 48, 64
13, 1724580, Note_on_c, 12, 55, 52
13, 1724700, Note_off_c, 12, 55, 64
13, 1724700, Note_on_c, 12, 48, 53
13, 1724820, Note_off_c, 12, 48, 64
13, 1724820, Note_on_c, 12, 55, 54
13, 1724940, Note_off_c, 12, 55, 64
13, 1724940, Note_on_c, 12, 48, 55
13, 1725060, Note_off_c, 12, 48, 64
13, 1725060, Note_on_c, 12, 55, 56
13, 1725180, Note_off_c, 12, 55, 64
13, 1725180, Note_on_c, 12, 48, 57
13, 1725300, Note_off_c, 12, 48, 64
13, 1725300, Note_on_c, 12, 55, 58
13, 1725420, Note_off_c, 12, 55, 64
13, 1725420, Note_on_c, 12, 48, 59
13, 1725540, Note_off_c, 12, 48, 64
13, 1725540, Note_on_c, 12, 55, 60
13, 1725660, Note_off_c, 12, 55, 64
13, 1725660, Note_on_c, 12, 48, 61
13, 1725780, Note_off_c, 12, 48, 64
13, 1725780, Note_on_c, 12, 55, 62
13, 1725900, Note_off_c, 12, 55, 64
13, 1725900, Note_on_c, 12, 48, 63
13, 1726020, Note_off_c, 12, 48, 64
13, 1726020, Note_on_c, 12, 55, 64
13, 1726140, Note_off_c, 12, 55, 64
13, 1726140, Note_on_c, 12, 48, 65
13, 1726260, Note_off_c, 12, 48, 64
13, 1726260, Note_on_c, 12, 55, 66
13, 1726380, Note_off_c, 12, 55, 64
13, 1726380, Note_on_c, 12, 48, 67
13, 1726500, Note_off_c, 12, 48, 64
13, 1726500, Note_on_c, 12, 55, 68
13, 1726620, Note_off_c, 12, 55, 64
13, 1726620, Note_on_c, 12, 48, 69
13, 1726740, Note_off_c, 12, 48, 64
13, 1726740, Note_on_c, 12, 55, 70
13, 1726860, Note_off_c, 12, 55, 64
13, 1726860, Note_on_c, 12, 48, 71
13, 1726980, Note_off_c, 12, 48, 64
13, 1726980, Note_on_c, 12, 55, 72
13, 1727100, Note_off_c, 12, 55, 64
13, 1727100, Note_on_c, 12, 48, 73
13, 1727220, Note_off_c, 12, 48, 64
13, 1727220, Note_on_c, 12, 55, 74
13, 1727340, Note_off_c, 12, 55, 64
13, 1727340, Note_on_c, 12, 48, 75
13, 1727460, Note_off_c, 12, 48, 64
13, 1727460, Note_on_c, 12, 55, 76
13, 1727580, Note_off_c, 12, 55, 64
13, 1727580, Note_on_c, 12, 48, 77
13, 1727700, Note_off_c, 12, 48, 64
13, 1727700, Note_on_c, 12, 55, 78
13, 1727820, Note_off_c, 12, 55, 64
13, 1727820, Note_on_c, 12, 48, 79
13, 1727940, Note_off_c, 12, 48, 64
13, 1727940, Note_on_c, 12, 55, 80
13, 1728060, Note_off_c, 12, 55, 64
13, 1728060, Note_on_c, 12, 48, 81
13, 1728180, Note_off_c, 12, 48, 64
13, 1728180, Note_on_c, 12, 55, 82
13, 1728300, Note_off_c, 12, 55, 64
13, 1728300, Note_on_c, 12, 48, 83
13, 1728420, Note_off_c, 12, 48, 64
13, 1728420, Note_on_c, 12, 55, 84
13, 1728540, Note_off_c, 12, 55, 64
13, 1728540, Note_on_c, 12, 48, 85
13, 1728660, Note_off_c, 12, 48, 64
13, 1728660, Note_on_c, 12, 55, 86
13, 1728780, Note_off_c, 12, 55, 64
13, 1728780, Note_on_c, 12, 48, 87
13, 1728900, Note_off_c, 12, 48, 64
13, 1728900, Note_on_c, 12, 55, 88
13, 1729020, Note_off_c, 12, 55, 64
13, 1729020, Note_on_c, 12, 48, 89
13, 1729140, Note_off_c, 12, 48, 64
13, 1729140, Note_on_c, 12, 55, 90
13, 1729255, Note_off_c, 12, 55, 64
13, 1729260, Note_on_c, 12, 60, 92
13, 1729335, Note_off_c, 12, 60, 64
13, 1729340, Note_on_c, 12, 60, 92
13, 1729415, Note_off_c, 12, 60, 64
13, 1729420, Note_on_c, 12, 60, 92
13, 1729495, Note_off_c, 12, 60, 64
13, 1729500, Note_on_c, 12, 60, 92
13, 1729575, Note_off_c, 12, 60, 64
13, 1729580, Note_on_c, 12, 60, 92
13, 1729655, Note_off_c, 12, 60, 64
13, 1729660, Note_on_c, 12, 60, 92
13, 1729735, Note_off_c, 12, 60, 64
13, 1729740, Note_on_c, 12, 60, 92
13, 1729815, Note_off_c, 12, 60, 64
13, 1729820, Note_on_c, 12, 60, 92
13, 1729895, Note_off_c, 12, 60, 64
13, 1729900, Note_on_c, 12, 60, 92
13, 1729975, Note_off_c, 12, 60, 64
13, 1729980, Note_on_c, 12, 60, 92
13, 1730055, Note_off_c, 12, 60, 64
13, 1730060, Note_on_c, 12, 60, 92
13, 1730135, Note_off_c, 12, 60, 64
13, 1730140, Note_on_c, 12, 60, 92
13, 1730215, Note_off_c, 12, 60, 64
13, 1730220, Note_on_c, 12, 60, 92
13, 1730295, Note_off_c, 12, 60, 64
13, 1730300, Note_on_c, 12, 60, 92
13, 1730375, Note_off_c, 12, 60, 64
13, 1730380, Note_on_c, 12, 60, 92
13, 1730455, Note_off_c, 12, 60, 64
13, 1730460, Note_on_c, 12, 60, 92
13, 1730535, Note_off_c, 12, 60, 64
13, 1730540, Note_on_c, 12, 60, 92
13, 1730615, Note_off_c, 12, 60, 64
13, 1730620, Note_on_c, 12, 60, 92
13, 1730695, Note_off_c, 12, 60, 64
13, 1730700, Note_on_c, 12, 60, 92
13, 1730775, Note_off_c, 12, 60, 64
13, 1730780, Note_on_c, 12, 60, 92
13, 1730855, Note_off_c, 12, 60, 64
13, 1730860, Note_on_c, 12, 60, 92
13, 1730935, Note_off_c, 12, 60, 64
13, 1730940, Note_on_c, 12, 60, 92
13, 1731015, Note_off_c, 12, 60, 64
13, 1731020, Note_on_c, 12, 60, 92
13, 1731095, Note_off_c, 12, 60, 64
13, 1731100, Note_on_c, 12, 60, 92
13, 1731175, Note_off_c, 12, 60, 64
13, 1731180, Note_on_c, 12, 60, 92
13, 1731255, Note_off_c, 12, 60, 64
13, 1731260, Note_on_c, 12, 60, 92
13, 1731335, Note_off_c, 12, 60, 64
13, 1731340, Note_on_c, 12, 60, 92
13, 1731415, Note_off_c, 12, 60, 64
13, 1731420, Note_on_c, 12, 60, 92
13, 1731495, Note_off_c, 12, 60, 64
13, 1731500, Note_on_c, 12, 60, 92
13, 1731575, Note_off_c, 12, 60, 64
13, 1731580, Note_on_c, 12, 60, 92
13, 1731655, Note_off_c, 12, 60, 64
13, 1731660, Note_on_c, 12, 60, 92
13, 1731735, Note_off_c, 12, 60, 64
13, 1731740, Note_on_c, 12, 60, 92
13, 1731815, Note_off_c, 12, 60, 64
13, 1731820, Note_on_c, 12, 60, 92
13, 1731895, Note_off_c, 12, 60, 64
13, 1731900, Note_on_c, 12, 60, 92
13, 1731975, Note_off_c, 12, 60, 64
13, 1731980, Note_on_c, 12, 60, 92
13, 1732055, Note_off_c, 12, 60, 64
13, 1732060, Note_on_c, 12, 60, 92
13, 1732135, Note_off_c, 12, 60, 64
13, 1732140, Note_on_c, 12, 60, 92
13, 1732215, Note_off_c, 12, 60, 64
13, 1732220, Note_on_c, 12, 60, 92
13, 1732295, Note_off_c, 12, 60, 64
13, 1732300, Note_on_c, 12, 60, 92
13, 1732375, Note_off_c, 12, 60, 64
13, 1732380, Note_on_c, 12, 53, 75
13, 1732780, Note_off_c, 12, 53, 64
13, 1739220, Note_on_c, 12, 48, 60
13, 1739340, Note_off_c, 12, 48, 64
13, 1739340, Note_on_c, 12, 50, 60
13, 1739460, Note_off_c, 12, 50, 64
13, 1739460, Note_on_c, 12, 52, 60
13, 1739580, Note_off_c, 12, 52, 64
13, 1739580, Note_on_c, 12, 53, 60
13, 1739700, Note_off_c, 12, 53, 64
13, 1739700, Note_on_c, 12, 55, 60
13, 1739820, Note_off_c, 12, 55, 64
13, 1739820, Note_on_c, 12, 57, 60
13, 1739940, Note_off_c, 12, 57, 64
13, 1739940, Note_on_c, 12, 58, 60
13, 1740060, Note_off_c, 12, 58, 64
13, 1740060, Note_on_c, 12, 60, 60
13, 1740180, Note_off_c, 12, 60, 64
13, 1740180, Note_on_c, 12, 58, 60
13, 1740300, Note_off_c, 12, 58, 64
13, 1740300, Note_on_c, 12, 57, 60
13, 1740420, Note_off_c, 12, 57, 64
13, 1740420, Note_on_c, 12, 58, 60
13, 1740540, Note_off_c, 12, 58, 64
13, 1740540, Note_on_c, 12, 57, 60
13, 1740660, Note_off_c, 12, 57, 64
13, 1740660, Note_on_c, 12, 55, 60
13, 1740780, Note_off_c, 12, 55, 64
13, 1740780, Note_on_c, 12, 54, 60
13, 1740900, Note_off_c, 12, 54, 64
13, 1740900, Note_on_c, 12, 52, 60
13, 1741020, Note_off_c, 12, 52, 64
13, 1741020, Note_on_c, 12, 50, 60
13, 1741140, Note_off_c, 12, 50, 64
13, 1741140, Note_on_c, 12, 52, 60
13, 1741260, Note_off_c, 12, 52, 64
13, 1741260, Note_on_c, 12, 50, 60
13, 1741380, Note_off_c, 12, 50, 64
13, 1741380, Note_on_c, 12, 49, 60
13, 1741500, Note_off_c, 12, 49, 64
13, 1741500, Note_on_c, 12, 50, 60
13, 1741620, Note_off_c, 12, 50, 64
13, 1741620, Note_on_c, 12, 52, 60
13, 1741740, Note_off_c, 12, 52, 64
13, 1741740, Note_on_c, 12, 54, 60
13, 1741860, Note_off_c, 12, 54, 64
13, 1741860, Note_on_c, 12, 55, 60
13, 1741980, Note_off_c, 12, 55, 64
13, 1741980, Note_on_c, 12, 57, 60
13, 1742100, Note_off_c, 12, 57, 64
13, 1742100, Note_on_c, 12, 55, 60
13, 1742220, Note_off_c, 12, 55, 64
13, 1742220, Note_on_c, 12, 57, 60
13, 1742340, Note_off_c, 12, 57, 64
13, 1742340, Note_on_c, 12, 54, 60
13, 1742460, Note_off_c, 12, 54, 64
13, 1742460, Note_on_c, 12, 55, 60
13, 1742580, Note_off_c, 12, 55, 64
13, 1742580, Note_on_c, 12, 54, 60
13, 1742700, Note_off_c, 12, 54, 64
13, 1742700, Note_on_c, 12, 55, 60
13, 1742820, Note_off_c, 12, 55, 64
13, 1742820, Note_on_c, 12, 57, 60
13, 1742940, Note_off_c, 12, 57, 64
13, 1742940, Note_on_c, 12, 55, 60
13, 1743060, Note_off_c, 12, 55, 64
13, 1743060, Note_on_c, 12, 57, 60
13, 1743180, Note_off_c, 12, 57, 64
13, 1743180, Note_on_c, 12, 58, 60
13, 1743300, Note_off_c, 12, 58, 64
13, 1743300, Note_on_c, 12, 57, 60
13, 1743420, Note_off_c, 12, 57, 64
13, 1743420, Note_on_c, 12, 58, 60
13, 1743540, Note_off_c, 12, 58, 64
13, 1743540, Note_on_c, 12, 59, 60
13, 1743660, Note_off_c, 12, 59, 64
13, 1743660, Note_on_c, 12, 57, 60
13, 1743780, Note_off_c, 12, 57, 64
13, 1743780, Note_on_c, 12, 59, 60
13, 1743900, Note_off_c, 12, 59, 64
13, 1743900, Note_on_c, 12, 60, 60
13, 1744020, Note_off_c, 12, 60, 64
13, 1744020, Note_on_c, 12, 62, 60
13, 1744140, Note_off_c, 12, 62, 64
13, 1744140, Note_on_c, 12, 60, 60
13, 1744260, Note_off_c, 12, 60, 64
13, 1744260, Note_on_c, 12, 59, 60
13, 1744380, Note_off_c, 12, 59, 64
13, 1744380, Note_on_c, 12, 60, 60
13, 1744500, Note_off_c, 12, 60, 64
13, 1744500, Note_on_c, 12, 62, 60
13, 1744620, Note_off_c, 12, 62, 64
13, 1744620, Note_on_c, 12, 64, 60
13, 1744740, Note_off_c, 12, 64, 64
13, 1744740, Note_on_c, 12, 65, 60
13, 1744860, Note_off_c, 12, 65, 64
13, 1744860, Note_on_c, 12, 67, 60
13, 1744980, Note_off_c, 12, 67, 64
13, 1744980, Note_on_c, 12, 65, 60
13, 1745100, Note_off_c, 12, 65, 64
13, 1745100, Note_on_c, 12, 67, 60
13, 1745220, Note_off_c, 12, 67, 64
13, 1745220, Note_on_c, 12, 64, 60
13, 1745335, Note_off_c, 12, 64, 64
13, 1745340, Note_on_c, 12, 65, 60
13, 1745455, Note_off_c, 12, 65, 64
13, 1745460, Note_on_c, 12, 72, 60
13, 1745575, Note_off_c, 12, 72, 64
13, 1745580, Note_on_c, 12, 72, 60
13, 1745695, Note_off_c, 12, 72, 64
13, 1745700, Note_on_c, 12, 72, 60
13, 1745815, Note_off_c, 12, 72, 64
13, 1745820, Note_on_c, 12, 72, 60
13, 1745935, Note_off_c, 12, 72, 64
13, 1745940, Note_on_c, 12, 72, 60
13, 1746055, Note_off_c, 12, 72, 64
13, 1746060, Note_on_c, 12, 72, 60
13, 1746175, Note_off_c, 12, 72, 64
13, 1746180, Note_on_c, 12, 69, 60
13, 1746295, Note_off_c, 12, 69, 64
13, 1746300, Note_on_c, 12, 69, 60
13, 1746415, Note_off_c, 12, 69, 64
13, 1746420, Note_on_c, 12, 69, 60
13, 1746535, Note_off_c, 12, 69, 64
13, 1746540, Note_on_c, 12, 69, 60
13, 1746655, Note_off_c, 12, 69, 64
13, 1746660, Note_on_c, 12, 69, 60
13, 1746775, Note_off_c, 12, 69, 64
13, 1746780, Note_on_c, 12, 69, 60
13, 1746895, Note_off_c, 12, 69, 64
13, 1746900, Note_on_c, 12, 66, 60
13, 1747015, Note_off_c, 12, 66, 64
13, 1747020, Note_on_c, 12, 66, 60
13, 1747135, Note_off_c, 12, 66, 64
13, 1747140, Note_on_c, 12, 66, 60
13, 1747255, Note_off_c, 12, 66, 64
13, 1747260, Note_on_c, 12, 66, 60
13, 1747375, Note_off_c, 12, 66, 64
13, 1747380, Note_on_c, 12, 66, 61
13, 1747495, Note_off_c, 12, 66, 64
13, 1747500, Note_on_c, 12, 66, 61
13, 1747615, Note_off_c, 12, 66, 64
13, 1747620, Note_on_c, 12, 62, 62
13, 1747735, Note_off_c, 12, 62, 64
13, 1747740, Note_on_c, 12, 62, 63
13, 1747855, Note_off_c, 12, 62, 64
13, 1747860, Note_on_c, 12, 62, 64
13, 1747975, Note_off_c, 12, 62, 64
13, 1747980, Note_on_c, 12, 62, 65
13, 1748095, Note_off_c, 12, 62, 64
13, 1748100, Note_on_c, 12, 62, 66
13, 1748215, Note_off_c, 12, 62, 64
13, 1748220, Note_on_c, 12, 62, 67
13, 1748335, Note_off_c, 12, 62, 64
13, 1748340, Note_on_c, 12, 70, 68
13, 1748455, Note_off_c, 12, 70, 64
13, 1748460, Note_on_c, 12, 70, 69
13, 1748575, Note_off_c, 12, 70, 64
13, 1748580, Note_on_c, 12, 70, 70
13, 1748695, Note_off_c, 12, 70, 64
13, 1748700, Note_on_c, 12, 70, 71
13, 1748815, Note_off_c, 12, 70, 64
13, 1748820, Note_on_c, 12, 70, 72
13, 1748935, Note_off_c, 12, 70, 64
13, 1748940, Note_on_c, 12, 70, 73
13, 1749055, Note_off_c, 12, 70, 64
13, 1749060, Note_on_c, 12, 67, 74
13, 1749175, Note_off_c, 12, 67, 64
13, 1749180, Note_on_c, 12, 67, 75
13, 1749295, Note_off_c, 12, 67, 64
13, 1749300, Note_on_c, 12, 67, 76
13, 1749415, Note_off_c, 12, 67, 64
13, 1749420, Note_on_c, 12, 67, 77
13, 1749535, Note_off_c, 12, 67, 64
13, 1749540, Note_on_c, 12, 67, 78
13, 1749655, Note_off_c, 12, 67, 64
13, 1749660, Note_on_c, 12, 67, 79
13, 1749775, Note_off_c, 12, 67, 64
13, 1749780, Note_on_c, 12, 64, 80
13, 1749895, Note_off_c, 12, 64, 64
13, 1749900, Note_on_c, 12, 64, 81
13, 1750015, Note_off_c, 12, 64, 64
13, 1750020, Note_on_c, 12, 64, 82
13, 1750135, Note_off_c, 12, 64, 64
13, 1750140, Note_on_c, 12, 64, 83
13, 1750255, Note_off_c, 12, 64, 64
13, 1750260, Note_on_c, 12, 64, 84
13, 1750375, Note_off_c, 12, 64, 64
13, 1750380, Note_on_c, 12, 64, 85
13, 1750495, Note_off_c, 12, 64, 64
13, 1750500, Note_on_c, 12, 62, 86
13, 1750615, Note_off_c, 12, 62, 64
13, 1750620, Note_on_c, 12, 60, 87
13, 1750735, Note_off_c, 12, 60, 64
13, 1750740, Note_on_c, 12, 58, 88
13, 1750855, Note_off_c, 12, 58, 64
13, 1750860, Note_on_c, 12, 57, 89
13, 1750975, Note_off_c, 12, 57, 64
13, 1750980, Note_on_c, 12, 55, 90
13, 1751095, Note_off_c, 12, 55, 64
13, 1751100, Note_on_c, 12, 53, 92
13, 1751175, Note_off_c, 12, 53, 64
13, 1751180, Note_on_c, 12, 65, 92
13, 1751255, Note_off_c, 12, 65, 64
13, 1751260, Note_on_c, 12, 65, 92
13, 1751335, Note_off_c, 12, 65, 64
13, 1751340, Note_on_c, 12, 65, 92
13, 1751415, Note_off_c, 12, 65, 64
13, 1751420, Note_on_c, 12, 65, 92
13, 1751495, Note_off_c, 12, 65, 64
13, 1751500, Note_on_c, 12, 65, 92
13, 1751575, Note_off_c, 12, 65, 64
13, 1751580, Note_on_c, 12, 65, 92
13, 1751655, Note_off_c, 12, 65, 64
13, 1751660, Note_on_c, 12, 65, 92
13, 1751735, Note_off_c, 12, 65, 64
13, 1751740, Note_on_c, 12, 65, 92
13, 1751815, Note_off_c, 12, 65, 64
13, 1751820, Note_on_c, 12, 65, 92
13, 1751895, Note_off_c, 12, 65, 64
13, 1751900, Note_on_c, 12, 65, 92
13, 1751975, Note_off_c, 12, 65, 64
13, 1751980, Note_on_c, 12, 65, 92
13, 1752055, Note_off_c, 12, 65, 64
13, 1752060, Note_on_c, 12, 65, 92
13, 1752135, Note_off_c, 12, 65, 64
13, 1752140, Note_on_c, 12, 65, 92
13, 1752215, Note_off_c, 12, 65, 64
13, 1752220, Note_on_c, 12, 65, 92
13, 1752295, Note_off_c, 12, 65, 64
13, 1752300, Note_on_c, 12, 65, 92
13, 1752375, Note_off_c, 12, 65, 64
13, 1752380, Note_on_c, 12, 65, 92
13, 1752455, Note_off_c, 12, 65, 64
13, 1752460, Note_on_c, 12, 65, 92
13, 1752535, Note_off_c, 12, 65, 64
13, 1752540, Note_on_c, 12, 65, 92
13, 1752615, Note_off_c, 12, 65, 64
13, 1752620, Note_on_c, 12, 65, 92
13, 1752695, Note_off_c, 12, 65, 64
13, 1752700, Note_on_c, 12, 65, 92
13, 1752775, Note_off_c, 12, 65, 64
13, 1752780, Note_on_c, 12, 65, 92
13, 1752855, Note_off_c, 12, 65, 64
13, 1752860, Note_on_c, 12, 65, 92
13, 1752935, Note_off_c, 12, 65, 64
13, 1752940, Note_on_c, 12, 65, 92
13, 1753015, Note_off_c, 12, 65, 64
13, 1753020, Note_on_c, 12, 65, 92
13, 1753095, Note_off_c, 12, 65, 64
13, 1753100, Note_on_c, 12, 65, 92
13, 1753175, Note_off_c, 12, 65, 64
13, 1753180, Note_on_c, 12, 65, 92
13, 1753255, Note_off_c, 12, 65, 64
13, 1753260, Note_on_c, 12, 65, 92
13, 1753335, Note_off_c, 12, 65, 64
13, 1753340, Note_on_c, 12, 65, 92
13, 1753415, Note_off_c, 12, 65, 64
13, 1753420, Note_on_c, 12, 65, 92
13, 1753495, Note_off_c, 12, 65, 64
13, 1753500, Note_on_c, 12, 65, 92
13, 1753575, Note_off_c, 12, 65, 64
13, 1753580, Note_on_c, 12, 65, 92
13, 1753655, Note_off_c, 12, 65, 64
13, 1753660, Note_on_c, 12, 65, 92
13, 1753735, Note_off_c, 12, 65, 64
13, 1753740, Note_on_c, 12, 65, 92
13, 1753815, Note_off_c, 12, 65, 64
13, 1753820, Note_on_c, 12, 65, 92
13, 1753895, Note_off_c, 12, 65, 64
13, 1753900, Note_on_c, 12, 65, 92
13, 1753975, Note_off_c, 12, 65, 64
13, 1753980, Note_on_c, 12, 62, 92
13, 1753980, Note_on_c, 12, 74, 92
13, 1754055, Note_off_c, 12, 74, 64
13, 1754055, Note_off_c, 12, 62, 64
13, 1754060, Note_on_c, 12, 62, 92
13, 1754060, Note_on_c, 12, 74, 92
13, 1754135, Note_off_c, 12, 74, 64
13, 1754135, Note_off_c, 12, 62, 64
13, 1754140, Note_on_c, 12, 62, 92
13, 1754140, Note_on_c, 12, 74, 92
13, 1754215, Note_off_c, 12, 74, 64
13, 1754215, Note_off_c, 12, 62, 64
13, 1754220, Note_on_c, 12, 62, 92
13, 1754220, Note_on_c, 12, 74, 92
13, 1754295, Note_off_c, 12, 74, 64
13, 1754295, Note_off_c, 12, 62, 64
13, 1754300, Note_on_c, 12, 62, 92
13, 1754300, Note_on_c, 12, 74, 92
13, 1754375, Note_off_c, 12, 74, 64
13, 1754375, Note_off_c, 12, 62, 64
13, 1754380, Note_on_c, 12, 62, 92
13, 1754380, Note_on_c, 12, 74, 92
13, 1754455, Note_off_c, 12, 74, 64
13, 1754455, Note_off_c, 12, 62, 64
13, 1754460, Note_on_c, 12, 62, 92
13, 1754460, Note_on_c, 12, 74, 92
13, 1754535, Note_off_c, 12, 74, 64
13, 1754535, Note_off_c, 12, 62, 64
13, 1754540, Note_on_c, 12, 62, 92
13, 1754540, Note_on_c, 12, 74, 92
13, 1754615, Note_off_c, 12, 74, 64
13, 1754615, Note_off_c, 12, 62, 64
13, 1754620, Note_on_c, 12, 62, 92
13, 1754620, Note_on_c, 12, 74, 92
13, 1754695, Note_off_c, 12, 74, 64
13, 1754695, Note_off_c, 12, 62, 64
13, 1754700, Note_on_c, 12, 62, 92
13, 1754700, Note_on_c, 12, 74, 92
13, 1754775, Note_off_c, 12, 74, 64
13, 1754775, Note_off_c, 12, 62, 64
13, 1754780, Note_on_c, 12, 62, 92
13, 1754780, Note_on_c, 12, 74, 92
13, 1754855, Note_off_c, 12, 74, 64
13, 1754855, Note_off_c, 12, 62, 64
13, 1754860, Note_on_c, 12, 62, 92
13, 1754860, Note_on_c, 12, 74, 92
13, 1754935, Note_off_c, 12, 74, 64
13, 1754935, Note_off_c, 12, 62, 64
13, 1754940, Note_on_c, 12, 62, 92
13, 1754940, Note_on_c, 12, 74, 92
13, 1755015, Note_off_c, 12, 74, 64
13, 1755015, Note_off_c, 12, 62, 64
13, 1755020, Note_on_c, 12, 62, 92
13, 1755020, Note_on_c, 12, 74, 92
13, 1755095, Note_off_c, 12, 74, 64
13, 1755095, Note_off_c, 12, 62, 64
13, 1755100, Note_on_c, 12, 62, 92
13, 1755100, Note_on_c, 12, 74, 92
13, 1755175, Note_off_c, 12, 74, 64
13, 1755175, Note_off_c, 12, 62, 64
13, 1755180, Note_on_c, 12, 62, 92
13, 1755180, Note_on_c, 12, 74, 92
13, 1755255, Note_off_c, 12, 74, 64
13, 1755255, Note_off_c, 12, 62, 64
13, 1755260, Note_on_c, 12, 62, 92
13, 1755260, Note_on_c, 12, 74, 92
13, 1755335, Note_off_c, 12, 74, 64
13, 1755335, Note_off_c, 12, 62, 64
13, 1755340, Note_on_c, 12, 62, 92
13, 1755340, Note_on_c, 12, 74, 92
13, 1755415, Note_off_c, 12, 74, 64
13, 1755415, Note_off_c, 12, 62, 64
13, 1755420, Note_on_c, 12, 62, 92
13, 1755420, Note_on_c, 12, 74, 92
13, 1755495, Note_off_c, 12, 74, 64
13, 1755495, Note_off_c, 12, 62, 64
13, 1755500, Note_on_c, 12, 62, 92
13, 1755500, Note_on_c, 12, 74, 92
13, 1755575, Note_off_c, 12, 74, 64
13, 1755575, Note_off_c, 12, 62, 64
13, 1755580, Note_on_c, 12, 62, 92
13, 1755580, Note_on_c, 12, 74, 92
13, 1755655, Note_off_c, 12, 74, 64
13, 1755655, Note_off_c, 12, 62, 64
13, 1755660, Note_on_c, 12, 62, 92
13, 1755660, Note_on_c, 12, 74, 92
13, 1755735, Note_off_c, 12, 74, 64
13, 1755735, Note_off_c, 12, 62, 64
13, 1755740, Note_on_c, 12, 62, 92
13, 1755740, Note_on_c, 12, 74, 92
13, 1755815, Note_off_c, 12, 74, 64
13, 1755815, Note_off_c, 12, 62, 64
13, 1755820, Note_on_c, 12, 62, 92
13, 1755820, Note_on_c, 12, 74, 92
13, 1755895, Note_off_c, 12, 74, 64
13, 1755895, Note_off_c, 12, 62, 64
13, 1755900, Note_on_c, 12, 62, 92
13, 1755900, Note_on_c, 12, 74, 92
13, 1755975, Note_off_c, 12, 74, 64
13, 1755975, Note_off_c, 12, 62, 64
13, 1755980, Note_on_c, 12, 62, 92
13, 1755980, Note_on_c, 12, 74, 92
13, 1756055, Note_off_c, 12, 74, 64
13, 1756055, Note_off_c, 12, 62, 64
13, 1756060, Note_on_c, 12, 62, 92
13, 1756060, Note_on_c, 12, 74, 92
13, 1756135, Note_off_c, 12, 74, 64
13, 1756135, Note_off_c, 12, 62, 64
13, 1756140, Note_on_c, 12, 62, 92
13, 1756140, Note_on_c, 12, 74, 92
13, 1756215, Note_off_c, 12, 74, 64
13, 1756215, Note_off_c, 12, 62, 64
13, 1756220, Note_on_c, 12, 62, 92
13, 1756220, Note_on_c, 12, 74, 92
13, 1756295, Note_off_c, 12, 74, 64
13, 1756295, Note_off_c, 12, 62, 64
13, 1756300, Note_on_c, 12, 62, 92
13, 1756300, Note_on_c, 12, 74, 92
13, 1756375, Note_off_c, 12, 74, 64
13, 1756375, Note_off_c, 12, 62, 64
13, 1756380, Note_on_c, 12, 62, 92
13, 1756380, Note_on_c, 12, 74, 92
13, 1756455, Note_off_c, 12, 74, 64
13, 1756455, Note_off_c, 12, 62, 64
13, 1756460, Note_on_c, 12, 62, 92
13, 1756460, Note_on_c, 12, 74, 92
13, 1756535, Note_off_c, 12, 74, 64
13, 1756535, Note_off_c, 12, 62, 64
13, 1756540, Note_on_c, 12, 62, 92
13, 1756540, Note_on_c, 12, 74, 92
13, 1756615, Note_off_c, 12, 74, 64
13, 1756615, Note_off_c, 12, 62, 64
13, 1756620, Note_on_c, 12, 62, 92
13, 1756620, Note_on_c, 12, 74, 92
13, 1756695, Note_off_c, 12, 74, 64
13, 1756695, Note_off_c, 12, 62, 64
13, 1756700, Note_on_c, 12, 62, 92
13, 1756700, Note_on_c, 12, 74, 92
13, 1756775, Note_off_c, 12, 74, 64
13, 1756775, Note_off_c, 12, 62, 64
13, 1756780, Note_on_c, 12, 62, 92
13, 1756780, Note_on_c, 12, 74, 92
13, 1756855, Note_off_c, 12, 74, 64
13, 1756855, Note_off_c, 12, 62, 64
13, 1756860, Note_on_c, 12, 74, 92
13, 1756935, Note_off_c, 12, 74, 64
13, 1756940, Note_on_c, 12, 74, 92
13, 1757015, Note_off_c, 12, 74, 64
13, 1757020, Note_on_c, 12, 74, 92
13, 1757095, Note_off_c, 12, 74, 64
13, 1757100, Note_on_c, 12, 77, 92
13, 1757175, Note_off_c, 12, 77, 64
13, 1757180, Note_on_c, 12, 77, 92
13, 1757255, Note_off_c, 12, 77, 64
13, 1757260, Note_on_c, 12, 77, 92
13, 1757335, Note_off_c, 12, 77, 64
13, 1757340, Note_on_c, 12, 77, 92
13, 1757415, Note_off_c, 12, 77, 64
13, 1757420, Note_on_c, 12, 77, 92
13, 1757495, Note_off_c, 12, 77, 64
13, 1757500, Note_on_c, 12, 77, 92
13, 1757575, Note_off_c, 12, 77, 64
13, 1757580, Note_on_c, 12, 77, 92
13, 1757655, Note_off_c, 12, 77, 64
13, 1757660, Note_on_c, 12, 77, 92
13, 1757735, Note_off_c, 12, 77, 64
13, 1757740, Note_on_c, 12, 77, 92
13, 1757815, Note_off_c, 12, 77, 64
13, 1757820, Note_on_c, 12, 77, 92
13, 1757895, Note_off_c, 12, 77, 64
13, 1757900, Note_on_c, 12, 77, 92
13, 1757975, Note_off_c, 12, 77, 64
13, 1757980, Note_on_c, 12, 77, 92
13, 1758055, Note_off_c, 12, 77, 64
13, 1758060, Note_on_c, 12, 77, 92
13, 1758135, Note_off_c, 12, 77, 64
13, 1758140, Note_on_c, 12, 77, 92
13, 1758215, Note_off_c, 12, 77, 64
13, 1758220, Note_on_c, 12, 77, 92
13, 1758295, Note_off_c, 12, 77, 64
13, 1758300, Note_on_c, 12, 77, 92
13, 1758375, Note_off_c, 12, 77, 64
13, 1758380, Note_on_c, 12, 77, 92
13, 1758455, Note_off_c, 12, 77, 64
13, 1758460, Note_on_c, 12, 77, 92
13, 1758535, Note_off_c, 12, 77, 64
13, 1758540, Note_on_c, 12, 77, 92
13, 1758615, Note_off_c, 12, 77, 64
13, 1758620, Note_on_c, 12, 77, 92
13, 1758695, Note_off_c, 12, 77, 64
13, 1758700, Note_on_c, 12, 77, 92
13, 1758775, Note_off_c, 12, 77, 64
13, 1758780, Note_on_c, 12, 77, 92
13, 1758855, Note_off_c, 12, 77, 64
13, 1758860, Note_on_c, 12, 77, 92
13, 1758935, Note_off_c, 12, 77, 64
13, 1758940, Note_on_c, 12, 77, 92
13, 1759015, Note_off_c, 12, 77, 64
13, 1759020, Note_on_c, 12, 77, 92
13, 1759095, Note_off_c, 12, 77, 64
13, 1759100, Note_on_c, 12, 77, 92
13, 1759175, Note_off_c, 12, 77, 64
13, 1759180, Note_on_c, 12, 77, 92
13, 1759255, Note_off_c, 12, 77, 64
13, 1759260, Note_on_c, 12, 77, 92
13, 1759335, Note_off_c, 12, 77, 64
13, 1759340, Note_on_c, 12, 77, 92
13, 1759415, Note_off_c, 12, 77, 64
13, 1759420, Note_on_c, 12, 77, 92
13, 1759495, Note_off_c, 12, 77, 64
13, 1759500, Note_on_c, 12, 77, 92
13, 1759575, Note_off_c, 12, 77, 64
13, 1759580, Note_on_c, 12, 77, 92
13, 1759655, Note_off_c, 12, 77, 64
13, 1759660, Note_on_c, 12, 77, 92
13, 1759735, Note_off_c, 12, 77, 64
13, 1759740, Note_on_c, 12, 77, 92
13, 1759815, Note_off_c, 12, 77, 64
13, 1759820, Note_on_c, 12, 77, 92
13, 1759895, Note_off_c, 12, 77, 64
13, 1759900, Note_on_c, 12, 77, 92
13, 1759975, Note_off_c, 12, 77, 64
13, 1759980, Note_on_c, 12, 77, 92
13, 1760055, Note_off_c, 12, 77, 64
13, 1760060, Note_on_c, 12, 77, 92
13, 1760135, Note_off_c, 12, 77, 64
13, 1760140, Note_on_c, 12, 77, 92
13, 1760215, Note_off_c, 12, 77, 64
13, 1760220, Note_on_c, 12, 77, 92
13, 1760295, Note_off_c, 12, 77, 64
13, 1760300, Note_on_c, 12, 77, 92
13, 1760375, Note_off_c, 12, 77, 64
13, 1760380, Note_on_c, 12, 77, 92
13, 1760455, Note_off_c, 12, 77, 64
13, 1760460, Note_on_c, 12, 77, 92
13, 1760535, Note_off_c, 12, 77, 64
13, 1760540, Note_on_c, 12, 77, 92
13, 1760615, Note_off_c, 12, 77, 64
13, 1760620, Note_on_c, 12, 77, 92
13, 1760695, Note_off_c, 12, 77, 64
13, 1760700, Note_on_c, 12, 77, 92
13, 1760775, Note_off_c, 12, 77, 64
13, 1760780, Note_on_c, 12, 77, 92
13, 1760855, Note_off_c, 12, 77, 64
13, 1760860, Note_on_c, 12, 77, 92
13, 1760935, Note_off_c, 12, 77, 64
13, 1760940, Note_on_c, 12, 77, 92
13, 1761015, Note_off_c, 12, 77, 64
13, 1761020, Note_on_c, 12, 77, 92
13, 1761095, Note_off_c, 12, 77, 64
13, 1761100, Note_on_c, 12, 77, 92
13, 1761175, Note_off_c, 12, 77, 64
13, 1761180, Note_on_c, 12, 76, 92
13, 1761255, Note_off_c, 12, 76, 64
13, 1761260, Note_on_c, 12, 76, 92
13, 1761335, Note_off_c, 12, 76, 64
13, 1761340, Note_on_c, 12, 76, 92
13, 1761415, Note_off_c, 12, 76, 64
13, 1761420, Note_on_c, 12, 76, 92
13, 1761495, Note_off_c, 12, 76, 64
13, 1761500, Note_on_c, 12, 76, 92
13, 1761575, Note_off_c, 12, 76, 64
13, 1761580, Note_on_c, 12, 76, 92
13, 1761655, Note_off_c, 12, 76, 64
13, 1761660, Note_on_c, 12, 76, 92
13, 1761735, Note_off_c, 12, 76, 64
13, 1761740, Note_on_c, 12, 76, 92
13, 1761815, Note_off_c, 12, 76, 64
13, 1761820, Note_on_c, 12, 76, 92
13, 1761895, Note_off_c, 12, 76, 64
13, 1761900, Note_on_c, 12, 76, 92
13, 1761975, Note_off_c, 12, 76, 64
13, 1761980, Note_on_c, 12, 76, 92
13, 1762055, Note_off_c, 12, 76, 64
13, 1762060, Note_on_c, 12, 76, 92
13, 1762135, Note_off_c, 12, 76, 64
13, 1762140, Note_on_c, 12, 76, 92
13, 1762215, Note_off_c, 12, 76, 64
13, 1762220, Note_on_c, 12, 76, 92
13, 1762295, Note_off_c, 12, 76, 64
13, 1762300, Note_on_c, 12, 76, 92
13, 1762375, Note_off_c, 12, 76, 64
13, 1762380, Note_on_c, 12, 76, 92
13, 1762455, Note_off_c, 12, 76, 64
13, 1762460, Note_on_c, 12, 76, 92
13, 1762535, Note_off_c, 12, 76, 64
13, 1762540, Note_on_c, 12, 76, 92
13, 1762615, Note_off_c, 12, 76, 64
13, 1762620, Note_on_c, 12, 75, 92
13, 1762695, Note_off_c, 12, 75, 64
13, 1762700, Note_on_c, 12, 75, 92
13, 1762775, Note_off_c, 12, 75, 64
13, 1762780, Note_on_c, 12, 75, 92
13, 1762855, Note_off_c, 12, 75, 64
13, 1762860, Note_on_c, 12, 75, 92
13, 1762935, Note_off_c, 12, 75, 64
13, 1762940, Note_on_c, 12, 75, 92
13, 1763015, Note_off_c, 12, 75, 64
13, 1763020, Note_on_c, 12, 75, 92
13, 1763095, Note_off_c, 12, 75, 64
13, 1763100, Note_on_c, 12, 75, 92
13, 1763175, Note_off_c, 12, 75, 64
13, 1763180, Note_on_c, 12, 75, 92
13, 1763255, Note_off_c, 12, 75, 64
13, 1763260, Note_on_c, 12, 75, 92
13, 1763335, Note_off_c, 12, 75, 64
13, 1763340, Note_on_c, 12, 75, 92
13, 1763415, Note_off_c, 12, 75, 64
13, 1763420, Note_on_c, 12, 75, 92
13, 1763495, Note_off_c, 12, 75, 64
13, 1763500, Note_on_c, 12, 75, 92
13, 1763575, Note_off_c, 12, 75, 64
13, 1763580, Note_on_c, 12, 75, 92
13, 1763655, Note_off_c, 12, 75, 64
13, 1763660, Note_on_c, 12, 75, 92
13, 1763735, Note_off_c, 12, 75, 64
13, 1763740, Note_on_c, 12, 75, 92
13, 1763815, Note_off_c, 12, 75, 64
13, 1763820, Note_on_c, 12, 75, 92
13, 1763895, Note_off_c, 12, 75, 64
13, 1763900, Note_on_c, 12, 75, 92
13, 1763975, Note_off_c, 12, 75, 64
13, 1763980, Note_on_c, 12, 75, 92
13, 1764055, Note_off_c, 12, 75, 64
13, 1764060, Note_on_c, 12, 60, 92
13, 1764135, Note_off_c, 12, 60, 64
13, 1764140, Note_on_c, 12, 60, 92
13, 1764215, Note_off_c, 12, 60, 64
13, 1764220, Note_on_c, 12, 60, 92
13, 1764295, Note_off_c, 12, 60, 64
13, 1764300, Note_on_c, 12, 60, 92
13, 1764375, Note_off_c, 12, 60, 64
13, 1764380, Note_on_c, 12, 60, 92
13, 1764455, Note_off_c, 12, 60, 64
13, 1764460, Note_on_c, 12, 60, 92
13, 1764535, Note_off_c, 12, 60, 64
13, 1764540, Note_on_c, 12, 60, 92
13, 1764615, Note_off_c, 12, 60, 64
13, 1764620, Note_on_c, 12, 60, 92
13, 1764695, Note_off_c, 12, 60, 64
13, 1764700, Note_on_c, 12, 60, 92
13, 1764775, Note_off_c, 12, 60, 64
13, 1764780, Note_on_c, 12, 60, 92
13, 1764855, Note_off_c, 12, 60, 64
13, 1764860, Note_on_c, 12, 60, 92
13, 1764935, Note_off_c, 12, 60, 64
13, 1764940, Note_on_c, 12, 60, 92
13, 1765015, Note_off_c, 12, 60, 64
13, 1765020, Note_on_c, 12, 60, 92
13, 1765095, Note_off_c, 12, 60, 64
13, 1765100, Note_on_c, 12, 60, 92
13, 1765175, Note_off_c, 12, 60, 64
13, 1765180, Note_on_c, 12, 60, 92
13, 1765255, Note_off_c, 12, 60, 64
13, 1765260, Note_on_c, 12, 60, 92
13, 1765335, Note_off_c, 12, 60, 64
13, 1765340, Note_on_c, 12, 60, 92
13, 1765415, Note_off_c, 12, 60, 64
13, 1765420, Note_on_c, 12, 60, 92
13, 1765495, Note_off_c, 12, 60, 64
13, 1765500, Note_on_c, 12, 58, 92
13, 1765575, Note_off_c, 12, 58, 64
13, 1765580, Note_on_c, 12, 58, 92
13, 1765655, Note_off_c, 12, 58, 64
13, 1765660, Note_on_c, 12, 58, 92
13, 1765735, Note_off_c, 12, 58, 64
13, 1765740, Note_on_c, 12, 58, 92
13, 1765815, Note_off_c, 12, 58, 64
13, 1765820, Note_on_c, 12, 58, 92
13, 1765895, Note_off_c, 12, 58, 64
13, 1765900, Note_on_c, 12, 58, 92
13, 1765975, Note_off_c, 12, 58, 64
13, 1765980, Note_on_c, 12, 58, 92
13, 1766055, Note_off_c, 12, 58, 64
13, 1766060, Note_on_c, 12, 58, 92
13, 1766135, Note_off_c, 12, 58, 64
13, 1766140, Note_on_c, 12, 58, 92
13, 1766215, Note_off_c, 12, 58, 64
13, 1766220, Note_on_c, 12, 65, 92
13, 1766295, Note_off_c, 12, 65, 64
13, 1766300, Note_on_c, 12, 65, 92
13, 1766375, Note_off_c, 12, 65, 64
13, 1766380, Note_on_c, 12, 65, 92
13, 1766455, Note_off_c, 12, 65, 64
13, 1766460, Note_on_c, 12, 65, 92
13, 1766535, Note_off_c, 12, 65, 64
13, 1766540, Note_on_c, 12, 65, 92
13, 1766615, Note_off_c, 12, 65, 64
13, 1766620, Note_on_c, 12, 65, 92
13, 1766695, Note_off_c, 12, 65, 64
13, 1766700, Note_on_c, 12, 65, 92
13, 1766775, Note_off_c, 12, 65, 64
13, 1766780, Note_on_c, 12, 65, 92
13, 1766855, Note_off_c, 12, 65, 64
13, 1766860, Note_on_c, 12, 65, 92
13, 1766935, Note_off_c, 12, 65, 64
13, 1766940, Note_on_c, 12, 62, 92
13, 1767015, Note_off_c, 12, 62, 64
13, 1767020, Note_on_c, 12, 62, 92
13, 1767095, Note_off_c, 12, 62, 64
13, 1767100, Note_on_c, 12, 62, 92
13, 1767175, Note_off_c, 12, 62, 64
13, 1767180, Note_on_c, 12, 62, 92
13, 1767255, Note_off_c, 12, 62, 64
13, 1767260, Note_on_c, 12, 62, 92
13, 1767335, Note_off_c, 12, 62, 64
13, 1767340, Note_on_c, 12, 62, 92
13, 1767415, Note_off_c, 12, 62, 64
13, 1767420, Note_on_c, 12, 62, 92
13, 1767495, Note_off_c, 12, 62, 64
13, 1767500, Note_on_c, 12, 62, 92
13, 1767575, Note_off_c, 12, 62, 64
13, 1767580, Note_on_c, 12, 62, 92
13, 1767655, Note_off_c, 12, 62, 64
13, 1767660, Note_on_c, 12, 74, 92
13, 1767735, Note_off_c, 12, 74, 64
13, 1767740, Note_on_c, 12, 74, 92
13, 1767815, Note_off_c, 12, 74, 64
13, 1767820, Note_on_c, 12, 74, 92
13, 1767895, Note_off_c, 12, 74, 64
13, 1767900, Note_on_c, 12, 74, 92
13, 1767975, Note_off_c, 12, 74, 64
13, 1767980, Note_on_c, 12, 74, 92
13, 1768055, Note_off_c, 12, 74, 64
13, 1768060, Note_on_c, 12, 74, 92
13, 1768135, Note_off_c, 12, 74, 64
13, 1768140, Note_on_c, 12, 74, 92
13, 1768215, Note_off_c, 12, 74, 64
13, 1768220, Note_on_c, 12, 74, 92
13, 1768295, Note_off_c, 12, 74, 64
13, 1768300, Note_on_c, 12, 74, 92
13, 1768375, Note_off_c, 12, 74, 64
13, 1768380, Note_on_c, 12, 70, 92
13, 1768455, Note_off_c, 12, 70, 64
13, 1768460, Note_on_c, 12, 70, 92
13, 1768535, Note_off_c, 12, 70, 64
13, 1768540, Note_on_c, 12, 70, 92
13, 1768615, Note_off_c, 12, 70, 64
13, 1768620, Note_on_c, 12, 70, 92
13, 1768695, Note_off_c, 12, 70, 64
13, 1768700, Note_on_c, 12, 70, 92
13, 1768775, Note_off_c, 12, 70, 64
13, 1768780, Note_on_c, 12, 70, 92
13, 1768855, Note_off_c, 12, 70, 64
13, 1768860, Note_on_c, 12, 70, 92
13, 1768935, Note_off_c, 12, 70, 64
13, 1768940, Note_on_c, 12, 70, 92
13, 1769015, Note_off_c, 12, 70, 64
13, 1769020, Note_on_c, 12, 70, 92
13, 1769095, Note_off_c, 12, 70, 64
13, 1769100, Note_on_c, 12, 70, 92
13, 1769175, Note_off_c, 12, 70, 64
13, 1769180, Note_on_c, 12, 70, 92
13, 1769255, Note_off_c, 12, 70, 64
13, 1769260, Note_on_c, 12, 70, 92
13, 1769335, Note_off_c, 12, 70, 64
13, 1769340, Note_on_c, 12, 70, 92
13, 1769415, Note_off_c, 12, 70, 64
13, 1769420, Note_on_c, 12, 70, 92
13, 1769495, Note_off_c, 12, 70, 64
13, 1769500, Note_on_c, 12, 70, 92
13, 1769575, Note_off_c, 12, 70, 64
13, 1769580, Note_on_c, 12, 70, 92
13, 1769655, Note_off_c, 12, 70, 64
13, 1769660, Note_on_c, 12, 70, 92
13, 1769735, Note_off_c, 12, 70, 64
13, 1769740, Note_on_c, 12, 70, 92
13, 1769815, Note_off_c, 12, 70, 64
13, 1769820, Note_on_c, 12, 67, 60
13, 1769895, Note_off_c, 12, 67, 64
13, 1769900, Note_on_c, 12, 67, 60
13, 1769975, Note_off_c, 12, 67, 64
13, 1769980, Note_on_c, 12, 67, 60
13, 1770055, Note_off_c, 12, 67, 64
13, 1770060, Note_on_c, 12, 67, 60
13, 1770135, Note_off_c, 12, 67, 64
13, 1770140, Note_on_c, 12, 67, 60
13, 1770215, Note_off_c, 12, 67, 64
13, 1770220, Note_on_c, 12, 67, 60
13, 1770295, Note_off_c, 12, 67, 64
13, 1770300, Note_on_c, 12, 67, 60
13, 1770375, Note_off_c, 12, 67, 64
13, 1770380, Note_on_c, 12, 67, 60
13, 1770455, Note_off_c, 12, 67, 64
13, 1770460, Note_on_c, 12, 67, 60
13, 1770535, Note_off_c, 12, 67, 64
13, 1770540, Note_on_c, 12, 67, 60
13, 1770615, Note_off_c, 12, 67, 64
13, 1770620, Note_on_c, 12, 67, 60
13, 1770695, Note_off_c, 12, 67, 64
13, 1770700, Note_on_c, 12, 67, 60
13, 1770775, Note_off_c, 12, 67, 64
13, 1770780, Note_on_c, 12, 67, 60
13, 1770855, Note_off_c, 12, 67, 64
13, 1770860, Note_on_c, 12, 67, 60
13, 1770935, Note_off_c, 12, 67, 64
13, 1770940, Note_on_c, 12, 67, 60
13, 1771015, Note_off_c, 12, 67, 64
13, 1771020, Note_on_c, 12, 67, 60
13, 1771095, Note_off_c, 12, 67, 64
13, 1771100, Note_on_c, 12, 67, 60
13, 1771175, Note_off_c, 12, 67, 64
13, 1771180, Note_on_c, 12, 67, 60
13, 1771255, Note_off_c, 12, 67, 64
13, 1771260, Note_on_c, 12, 67, 45
13, 1771335, Note_off_c, 12, 67, 64
13, 1771340, Note_on_c, 12, 67, 45
13, 1771415, Note_off_c, 12, 67, 64
13, 1771420, Note_on_c, 12, 67, 45
13, 1771495, Note_off_c, 12, 67, 64
13, 1771500, Note_on_c, 12, 67, 45
13, 1771575, Note_off_c, 12, 67, 64
13, 1771580, Note_on_c, 12, 67, 45
13, 1771655, Note_off_c, 12, 67, 64
13, 1771660, Note_on_c, 12, 67, 45
13, 1771735, Note_off_c, 12, 67, 64
13, 1771740, Note_on_c, 12, 67, 45
13, 1771815, Note_off_c, 12, 67, 64
13, 1771820, Note_on_c, 12, 67, 45
13, 1771895, Note_off_c, 12, 67, 64
13, 1771900, Note_on_c, 12, 67, 45
13, 1771975, Note_off_c, 12, 67, 64
13, 1771980, Note_on_c, 12, 64, 45
13, 1772055, Note_off_c, 12, 64, 64
13, 1772060, Note_on_c, 12, 64, 45
13, 1772135, Note_off_c, 12, 64, 64
13, 1772140, Note_on_c, 12, 64, 45
13, 1772215, Note_off_c, 12, 64, 64
13, 1772220, Note_on_c, 12, 64, 45
13, 1772295, Note_off_c, 12, 64, 64
13, 1772300, Note_on_c, 12, 64, 45
13, 1772375, Note_off_c, 12, 64, 64
13, 1772380, Note_on_c, 12, 64, 45
13, 1772455, Note_off_c, 12, 64, 64
13, 1772460, Note_on_c, 12, 64, 45
13, 1772535, Note_off_c, 12, 64, 64
13, 1772540, Note_on_c, 12, 64, 45
13, 1772615, Note_off_c, 12, 64, 64
13, 1772620, Note_on_c, 12, 64, 45
13, 1772695, Note_off_c, 12, 64, 64
13, 1772700, Note_on_c, 12, 64, 45
13, 1772775, Note_off_c, 12, 64, 64
13, 1772780, Note_on_c, 12, 64, 45
13, 1772855, Note_off_c, 12, 64, 64
13, 1772860, Note_on_c, 12, 64, 45
13, 1772935, Note_off_c, 12, 64, 64
13, 1772940, Note_on_c, 12, 64, 45
13, 1773015, Note_off_c, 12, 64, 64
13, 1773020, Note_on_c, 12, 64, 45
13, 1773095, Note_off_c, 12, 64, 64
13, 1773100, Note_on_c, 12, 64, 45
13, 1773175, Note_off_c, 12, 64, 64
13, 1773180, Note_on_c, 12, 64, 45
13, 1773255, Note_off_c, 12, 64, 64
13, 1773260, Note_on_c, 12, 64, 45
13, 1773335, Note_off_c, 12, 64, 64
13, 1773340, Note_on_c, 12, 64, 45
13, 1773415, Note_off_c, 12, 64, 64
13, 1773420, Note_on_c, 12, 60, 45
13, 1773495, Note_off_c, 12, 60, 64
13, 1773500, Note_on_c, 12, 60, 45
13, 1773575, Note_off_c, 12, 60, 64
13, 1773580, Note_on_c, 12, 60, 45
13, 1773655, Note_off_c, 12, 60, 64
13, 1773660, Note_on_c, 12, 60, 45
13, 1773735, Note_off_c, 12, 60, 64
13, 1773740, Note_on_c, 12, 60, 45
13, 1773815, Note_off_c, 12, 60, 64
13, 1773820, Note_on_c, 12, 60, 45
13, 1773895, Note_off_c, 12, 60, 64
13, 1773900, Note_on_c, 12, 60, 45
13, 1773975, Note_off_c, 12, 60, 64
13, 1773980, Note_on_c, 12, 60, 45
13, 1774055, Note_off_c, 12, 60, 64
13, 1774060, Note_on_c, 12, 60, 45
13, 1774135, Note_off_c, 12, 60, 64
13, 1774140, Note_on_c, 12, 60, 30
13, 1774215, Note_off_c, 12, 60, 64
13, 1774220, Note_on_c, 12, 60, 30
13, 1774295, Note_off_c, 12, 60, 64
13, 1774300, Note_on_c, 12, 60, 30
13, 1774375, Note_off_c, 12, 60, 64
13, 1774380, Note_on_c, 12, 60, 30
13, 1774455, Note_off_c, 12, 60, 64
13, 1774460, Note_on_c, 12, 60, 30
13, 1774535, Note_off_c, 12, 60, 64
13, 1774540, Note_on_c, 12, 60, 30
13, 1774615, Note_off_c, 12, 60, 64
13, 1774620, Note_on_c, 12, 60, 30
13, 1774695, Note_off_c, 12, 60, 64
13, 1774700, Note_on_c, 12, 60, 30
13, 1774775, Note_off_c, 12, 60, 64
13, 1774780, Note_on_c, 12, 60, 30
13, 1774855, Note_off_c, 12, 60, 64
13, 1774860, Note_on_c, 12, 58, 30
13, 1774935, Note_off_c, 12, 58, 64
13, 1774940, Note_on_c, 12, 58, 30
13, 1775015, Note_off_c, 12, 58, 64
13, 1775020, Note_on_c, 12, 58, 30
13, 1775095, Note_off_c, 12, 58, 64
13, 1775100, Note_on_c, 12, 58, 30
13, 1775175, Note_off_c, 12, 58, 64
13, 1775180, Note_on_c, 12, 58, 30
13, 1775255, Note_off_c, 12, 58, 64
13, 1775260, Note_on_c, 12, 58, 30
13, 1775335, Note_off_c, 12, 58, 64
13, 1775340, Note_on_c, 12, 58, 30
13, 1775415, Note_off_c, 12, 58, 64
13, 1775420, Note_on_c, 12, 58, 30
13, 1775495, Note_off_c, 12, 58, 64
13, 1775500, Note_on_c, 12, 58, 30
13, 1775575, Note_off_c, 12, 58, 64
13, 1775580, Note_on_c, 12, 58, 30
13, 1775655, Note_off_c, 12, 58, 64
13, 1775660, Note_on_c, 12, 58, 30
13, 1775735, Note_off_c, 12, 58, 64
13, 1775740, Note_on_c, 12, 58, 30
13, 1775815, Note_off_c, 12, 58, 64
13, 1775820, Note_on_c, 12, 58, 30
13, 1775895, Note_off_c, 12, 58, 64
13, 1775900, Note_on_c, 12, 58, 30
13, 1775975, Note_off_c, 12, 58, 64
13, 1775980, Note_on_c, 12, 58, 30
13, 1776055, Note_off_c, 12, 58, 64
13, 1776060, Note_on_c, 12, 58, 30
13, 1776135, Note_off_c, 12, 58, 64
13, 1776140, Note_on_c, 12, 58, 30
13, 1776215, Note_off_c, 12, 58, 64
13, 1776220, Note_on_c, 12, 58, 30
13, 1776295, Note_off_c, 12, 58, 64
13, 1776300, Note_on_c, 12, 55, 30
13, 1776375, Note_off_c, 12, 55, 64
13, 1776380, Note_on_c, 12, 55, 30
13, 1776455, Note_off_c, 12, 55, 64
13, 1776460, Note_on_c, 12, 55, 30
13, 1776535, Note_off_c, 12, 55, 64
13, 1776540, Note_on_c, 12, 55, 30
13, 1776615, Note_off_c, 12, 55, 64
13, 1776620, Note_on_c, 12, 55, 30
13, 1776695, Note_off_c, 12, 55, 64
13, 1776700, Note_on_c, 12, 55, 30
13, 1776775, Note_off_c, 12, 55, 64
13, 1776780, Note_on_c, 12, 55, 30
13, 1776855, Note_off_c, 12, 55, 64
13, 1776860, Note_on_c, 12, 55, 30
13, 1776935, Note_off_c, 12, 55, 64
13, 1776940, Note_on_c, 12, 55, 30
13, 1777015, Note_off_c, 12, 55, 64
13, 1777020, Note_on_c, 12, 53, 45
13, 1778460, Note_off_c, 12, 53, 64
13, 1778460, Note_on_c, 12, 55, 45
13, 1780020, Note_off_c, 12, 55, 64
13, 1780260, Note_on_c, 12, 52, 45
13, 1780260, Note_on_c, 12, 55, 45
13, 1781700, Note_off_c, 12, 55, 64
13, 1781700, Note_off_c, 12, 52, 64
13, 1781700, Note_on_c, 12, 53, 45
13, 1781700, Note_on_c, 12, 57, 45
13, 1783260, Note_off_c, 12, 57, 64
13, 1783260, Note_off_c, 12, 53, 64
13, 1783500, Note_on_c, 12, 53, 45
13, 1783500, Note_on_c, 12, 57, 45
13, 1784220, Note_off_c, 12, 57, 64
13, 1784220, Note_on_c, 12, 58, 45
13, 1784700, Note_off_c, 12, 53, 64
13, 1784700, Note_off_c, 12, 58, 64
13, 1784700, Note_on_c, 12, 53, 45
13, 1784700, Note_on_c, 12, 57, 45
13, 1784940, Note_off_c, 12, 57, 64
13, 1784940, Note_off_c, 12, 53, 64
13, 1784940, Note_on_c, 12, 53, 45
13, 1784940, Note_on_c, 12, 55, 45
13, 1786435, Note_off_c, 12, 55, 64
13, 1786435, Note_off_c, 12, 53, 64
13, 1786440, Note_on_c, 12, 52, 45
13, 1786440, Note_on_c, 12, 55, 45
13, 1787880, Note_off_c, 12, 55, 64
13, 1787880, Note_off_c, 12, 52, 64
13, 1787880, Note_on_c, 12, 53, 45
13, 1787880, Note_on_c, 12, 57, 45
13, 1788595, Note_off_c, 12, 57, 64
13, 1788595, Note_off_c, 12, 53, 64
13, 1789320, Note_on_c, 12, 60, 92
13, 1789960, Note_off_c, 12, 60, 64
13, 1790040, Note_on_c, 12, 62, 92
13, 1790275, Note_off_c, 12, 62, 64
13, 1790520, Note_on_c, 12, 57, 92
13, 1790755, Note_off_c, 12, 57, 64
13, 1790760, Note_on_c, 12, 58, 92
13, 1791880, Note_off_c, 12, 58, 64
13, 1795080, Note_on_c, 12, 53, 45
13, 1795080, Note_on_c, 12, 57, 45
13, 1795320, Note_off_c, 12, 57, 64
13, 1795320, Note_off_c, 12, 53, 64
13, 1795320, Note_on_c, 12, 48, 45
13, 1795320, Note_on_c, 12, 55, 45
13, 1796440, Note_off_c, 12, 55, 64
13, 1796440, Note_off_c, 12, 48, 64
13, 1796520, Note_on_c, 12, 48, 45
13, 1796520, Note_on_c, 12, 55, 45
13, 1796760, Note_off_c, 12, 55, 64
13, 1796760, Note_off_c, 12, 48, 64
13, 1796760, Note_on_c, 12, 53, 45
13, 1796760, Note_on_c, 12, 57, 45
13, 1797400, Note_off_c, 12, 57, 64
13, 1797400, Note_off_c, 12, 53, 64
13, 1801080, Note_on_c, 12, 53, 45
13, 1801080, Note_on_c, 12, 57, 45
13, 1801320, Note_off_c, 12, 57, 64
13, 1801320, Note_off_c, 12, 53, 64
13, 1801320, Note_on_c, 12, 55, 51
13, 1801320, Note_on_c, 12, 58, 51
13, 1802520, Note_off_c, 12, 58, 64
13, 1802520, Note_off_c, 12, 55, 64
13, 1802520, Note_on_c, 12, 55, 85
13, 1802520, Note_on_c, 12, 58, 85
13, 1802755, Note_off_c, 12, 58, 64
13, 1802755, Note_off_c, 12, 55, 64
13, 1802760, Note_on_c, 12, 55, 92
13, 1802760, Note_on_c, 12, 58, 92
13, 1805640, Note_off_c, 12, 58, 64
13, 1805640, Note_off_c, 12, 55, 64
13, 1805640, Note_on_c, 12, 55, 75
13, 1805640, Note_on_c, 12, 58, 75
13, 1807080, Note_off_c, 12, 58, 64
13, 1807080, Note_off_c, 12, 55, 64
13, 1807080, Note_on_c, 12, 55, 75
13, 1807080, Note_on_c, 12, 58, 75
13, 1808400, Note_off_c, 12, 58, 64
13, 1808400, Note_off_c, 12, 55, 64
13, 1808520, Note_on_c, 12, 48, 61
13, 1808520, Note_on_c, 12, 57, 61
13, 1809840, Note_off_c, 12, 57, 64
13, 1809840, Note_off_c, 12, 48, 64
13, 1810020, Note_on_c, 12, 48, 45
13, 1810020, Note_on_c, 12, 57, 45
13, 1811340, Note_off_c, 12, 57, 64
13, 1811340, Note_off_c, 12, 48, 64
13, 1811520, Note_on_c, 12, 53, 45
13, 1811520, Note_on_c, 12, 57, 45
13, 1811920, Note_off_c, 12, 57, 64
13, 1811920, Note_off_c, 12, 53, 64
13, 1814400, Program_c, 12, 48
13, 1814400, Note_on_c, 12, 53, 60
13, 1814520, Note_off_c, 12, 53, 64
13, 1814520, Note_on_c, 12, 55, 60
13, 1814640, Note_off_c, 12, 55, 64
13, 1814640, Note_on_c, 12, 57, 61
13, 1814760, Note_off_c, 12, 57, 64
13, 1814760, Note_on_c, 12, 58, 62
13, 1814880, Note_off_c, 12, 58, 64
13, 1814880, Note_on_c, 12, 60, 63
13, 1815000, Note_off_c, 12, 60, 64
13, 1815000, Note_on_c, 12, 59, 64
13, 1815115, Note_off_c, 12, 59, 64
13, 1815120, Note_on_c, 12, 62, 65
13, 1815240, Note_off_c, 12, 62, 64
13, 1815240, Note_on_c, 12, 60, 67
13, 1815360, Note_off_c, 12, 60, 64
13, 1815360, Note_on_c, 12, 58, 69
13, 1815480, Note_off_c, 12, 58, 64
13, 1815480, Note_on_c, 12, 57, 71
13, 1815600, Note_off_c, 12, 57, 64
13, 1815600, Note_on_c, 12, 55, 73
13, 1815720, Note_off_c, 12, 55, 64
13, 1815720, Note_on_c, 12, 53, 75
13, 1815835, Note_off_c, 12, 53, 64
13, 1817040, Note_on_c, 12, 65, 108
13, 1817275, Note_off_c, 12, 65, 64
13, 1817280, Note_on_c, 12, 53, 108
13, 1818040, Note_off_c, 12, 53, 64
13, 1818040, End_track
14, 0, Start_track
14, 0, MIDI_port, 0
14, 0, Channel_prefix, 13
14, 0, Control_c, 13, 7, 127
14, 0, Control_c, 13, 10, 96
14, 0, Control_c, 13, 91, 127
14, 0, Program_c, 13, 48
14, 240, Note_on_c, 13, 41, 45
14, 3000, Note_off_c, 13, 41, 64
14, 3120, Note_on_c, 13, 36, 45
14, 4080, Note_off_c, 13, 36, 64
14, 4200, Note_on_c, 13, 41, 45
14, 6000, Note_off_c, 13, 41, 64
14, 6120, Note_on_c, 13, 41, 60
14, 7920, Note_off_c, 13, 41, 64
14, 8040, Note_on_c, 13, 53, 76
14, 8520, Note_off_c, 13, 53, 64
14, 8520, Note_on_c, 13, 57, 80
14, 9000, Note_off_c, 13, 57, 64
14, 9000, Note_on_c, 13, 55, 84
14, 9720, Note_off_c, 13, 55, 64
14, 9720, Note_on_c, 13, 53, 90
14, 9955, Note_off_c, 13, 53, 64
14, 9960, Note_on_c, 13, 46, 92
14, 10440, Note_off_c, 13, 46, 64
14, 10440, Note_on_c, 13, 53, 92
14, 10920, Note_off_c, 13, 53, 64
14, 10920, Note_on_c, 13, 48, 92
14, 11760, Note_off_c, 13, 48, 64
14, 11880, Note_on_c, 13, 41, 92
14, 12360, Note_off_c, 13, 41, 64
14, 12360, Note_on_c, 13, 45, 92
14, 12840, Note_off_c, 13, 45, 64
14, 12840, Note_on_c, 13, 43, 92
14, 13560, Note_off_c, 13, 43, 64
14, 13560, Note_on_c, 13, 41, 92
14, 13795, Note_off_c, 13, 41, 64
14, 13800, Note_on_c, 13, 46, 45
14, 14280, Note_off_c, 13, 46, 64
14, 14280, Note_on_c, 13, 41, 48
14, 14680, Note_off_c, 13, 41, 64
14, 14760, Note_on_c, 13, 48, 52
14, 15400, Note_off_c, 13, 48, 64
14, 15480, Note_on_c, 13, 48, 58
14, 15715, Note_off_c, 13, 48, 64
14, 15720, Note_on_c, 13, 48, 60
14, 16360, Note_off_c, 13, 48, 64
14, 16440, Note_on_c, 13, 48, 66
14, 16675, Note_off_c, 13, 48, 64
14, 16680, Note_on_c, 13, 48, 68
14, 17320, Note_off_c, 13, 48, 64
14, 17400, Note_on_c, 13, 48, 74
14, 17635, Note_off_c, 13, 48, 64
14, 17640, Note_on_c, 13, 48, 76
14, 18280, Note_off_c, 13, 48, 64
14, 18360, Note_on_c, 13, 48, 82
14, 18595, Note_off_c, 13, 48, 64
14, 18600, Note_on_c, 13, 48, 84
14, 19240, Note_off_c, 13, 48, 64
14, 19320, Note_on_c, 13, 48, 90
14, 19555, Note_off_c, 13, 48, 64
14, 19560, Note_on_c, 13, 48, 92
14, 20200, Note_off_c, 13, 48, 64
14, 20280, Note_on_c, 13, 48, 92
14, 20515, Note_off_c, 13, 48, 64
14, 20520, Note_on_c, 13, 48, 92
14, 21160, Note_off_c, 13, 48, 64
14, 21240, Note_on_c, 13, 48, 68
14, 21475, Note_off_c, 13, 48, 64
14, 21480, Note_on_c, 13, 48, 60
14, 22120, Note_off_c, 13, 48, 64
14, 22200, Note_on_c, 13, 48, 60
14, 22435, Note_off_c, 13, 48, 64
14, 22440, Note_on_c, 13, 48, 60
14, 23080, Note_off_c, 13, 48, 64
14, 23160, Note_on_c, 13, 48, 38
14, 23395, Note_off_c, 13, 48, 64
14, 23400, Note_on_c, 13, 48, 30
14, 23635, Note_off_c, 13, 48, 64
14, 27240, Note_on_c, 13, 41, 45
14, 27475, Note_off_c, 13, 41, 64
14, 27480, Note_on_c, 13, 41, 45
14, 27715, Note_off_c, 13, 41, 64
14, 27720, Note_on_c, 13, 41, 45
14, 27955, Note_off_c, 13, 41, 64
14, 27960, Note_on_c, 13, 41, 45
14, 28195, Note_off_c, 13, 41, 64
14, 28200, Note_on_c, 13, 41, 45
14, 28435, Note_off_c, 13, 41, 64
14, 28440, Note_on_c, 13, 41, 45
14, 28675, Note_off_c, 13, 41, 64
14, 28680, Note_on_c, 13, 41, 45
14, 28915, Note_off_c, 13, 41, 64
14, 28920, Note_on_c, 13, 41, 45
14, 29155, Note_off_c, 13, 41, 64
14, 29160, Note_on_c, 13, 41, 45
14, 29395, Note_off_c, 13, 41, 64
14, 29400, Note_on_c, 13, 41, 45
14, 29635, Note_off_c, 13, 41, 64
14, 29640, Note_on_c, 13, 41, 45
14, 29875, Note_off_c, 13, 41, 64
14, 29880, Note_on_c, 13, 41, 45
14, 30115, Note_off_c, 13, 41, 64
14, 30120, Note_on_c, 13, 41, 45
14, 30355, Note_off_c, 13, 41, 64
14, 30360, Note_on_c, 13, 41, 45
14, 30595, Note_off_c, 13, 41, 64
14, 30600, Note_on_c, 13, 41, 45
14, 30835, Note_off_c, 13, 41, 64
14, 30840, Note_on_c, 13, 41, 45
14, 31075, Note_off_c, 13, 41, 64
14, 31080, Note_on_c, 13, 41, 45
14, 31315, Note_off_c, 13, 41, 64
14, 31320, Note_on_c, 13, 41, 47
14, 31555, Note_off_c, 13, 41, 64
14, 31560, Note_on_c, 13, 41, 50
14, 31795, Note_off_c, 13, 41, 64
14, 31800, Note_on_c, 13, 41, 53
14, 32035, Note_off_c, 13, 41, 64
14, 32040, Note_on_c, 13, 41, 56
14, 32275, Note_off_c, 13, 41, 64
14, 32280, Note_on_c, 13, 41, 59
14, 32515, Note_off_c, 13, 41, 64
14, 32520, Note_on_c, 13, 41, 62
14, 32755, Note_off_c, 13, 41, 64
14, 32760, Note_on_c, 13, 41, 65
14, 32995, Note_off_c, 13, 41, 64
14, 33000, Note_on_c, 13, 41, 68
14, 33235, Note_off_c, 13, 41, 64
14, 33240, Note_on_c, 13, 41, 71
14, 33475, Note_off_c, 13, 41, 64
14, 33480, Note_on_c, 13, 41, 74
14, 33715, Note_off_c, 13, 41, 64
14, 33720, Note_on_c, 13, 41, 77
14, 33955, Note_off_c, 13, 41, 64
14, 33960, Note_on_c, 13, 41, 80
14, 34195, Note_off_c, 13, 41, 64
14, 34200, Note_on_c, 13, 41, 83
14, 34435, Note_off_c, 13, 41, 64
14, 34440, Note_on_c, 13, 41, 86
14, 34675, Note_off_c, 13, 41, 64
14, 34680, Note_on_c, 13, 41, 89
14, 34915, Note_off_c, 13, 41, 64
14, 34920, Note_on_c, 13, 41, 92
14, 35155, Note_off_c, 13, 41, 64
14, 35160, Note_on_c, 13, 41, 92
14, 35395, Note_off_c, 13, 41, 64
14, 35400, Note_on_c, 13, 41, 92
14, 35635, Note_off_c, 13, 41, 64
14, 35640, Note_on_c, 13, 41, 92
14, 35875, Note_off_c, 13, 41, 64
14, 35880, Note_on_c, 13, 41, 92
14, 36115, Note_off_c, 13, 41, 64
14, 36120, Note_on_c, 13, 41, 92
14, 36355, Note_off_c, 13, 41, 64
14, 36360, Note_on_c, 13, 41, 92
14, 36595, Note_off_c, 13, 41, 64
14, 36600, Note_on_c, 13, 41, 92
14, 36835, Note_off_c, 13, 41, 64
14, 36840, Note_on_c, 13, 41, 92
14, 37075, Note_off_c, 13, 41, 64
14, 37080, Note_on_c, 13, 41, 92
14, 37315, Note_off_c, 13, 41, 64
14, 37320, Note_on_c, 13, 41, 92
14, 37555, Note_off_c, 13, 41, 64
14, 37560, Note_on_c, 13, 41, 92
14, 37795, Note_off_c, 13, 41, 64
14, 37800, Note_on_c, 13, 41, 92
14, 38035, Note_off_c, 13, 41, 64
14, 38040, Note_on_c, 13, 41, 92
14, 38275, Note_off_c, 13, 41, 64
14, 38280, Note_on_c, 13, 41, 92
14, 38515, Note_off_c, 13, 41, 64
14, 38520, Note_on_c, 13, 41, 92
14, 38755, Note_off_c, 13, 41, 64
14, 38760, Note_on_c, 13, 41, 92
14, 38995, Note_off_c, 13, 41, 64
14, 39000, Note_on_c, 13, 41, 92
14, 39235, Note_off_c, 13, 41, 64
14, 39240, Note_on_c, 13, 41, 92
14, 39475, Note_off_c, 13, 41, 64
14, 39480, Note_on_c, 13, 41, 92
14, 39715, Note_off_c, 13, 41, 64
14, 39720, Note_on_c, 13, 41, 92
14, 39955, Note_off_c, 13, 41, 64
14, 39960, Note_on_c, 13, 41, 92
14, 40195, Note_off_c, 13, 41, 64
14, 40200, Note_on_c, 13, 41, 92
14, 40435, Note_off_c, 13, 41, 64
14, 40440, Note_on_c, 13, 41, 92
14, 40675, Note_off_c, 13, 41, 64
14, 40680, Note_on_c, 13, 48, 92
14, 40915, Note_off_c, 13, 48, 64
14, 40920, Note_on_c, 13, 48, 92
14, 41155, Note_off_c, 13, 48, 64
14, 41160, Note_on_c, 13, 48, 92
14, 41395, Note_off_c, 13, 48, 64
14, 41400, Note_on_c, 13, 48, 92
14, 41635, Note_off_c, 13, 48, 64
14, 41640, Note_on_c, 13, 48, 92
14, 41875, Note_off_c, 13, 48, 64
14, 41880, Note_on_c, 13, 48, 92
14, 42115, Note_off_c, 13, 48, 64
14, 42120, Note_on_c, 13, 48, 92
14, 42355, Note_off_c, 13, 48, 64
14, 42360, Note_on_c, 13, 48, 92
14, 42595, Note_off_c, 13, 48, 64
14, 42600, Note_on_c, 13, 48, 92
14, 42835, Note_off_c, 13, 48, 64
14, 42840, Note_on_c, 13, 48, 92
14, 43075, Note_off_c, 13, 48, 64
14, 43080, Note_on_c, 13, 48, 92
14, 43315, Note_off_c, 13, 48, 64
14, 43320, Note_on_c, 13, 48, 92
14, 43555, Note_off_c, 13, 48, 64
14, 43560, Note_on_c, 13, 48, 92
14, 43795, Note_off_c, 13, 48, 64
14, 43800, Note_on_c, 13, 48, 92
14, 44035, Note_off_c, 13, 48, 64
14, 44040, Note_on_c, 13, 48, 92
14, 44275, Note_off_c, 13, 48, 64
14, 44280, Note_on_c, 13, 48, 92
14, 44515, Note_off_c, 13, 48, 64
14, 44520, Note_on_c, 13, 41, 92
14, 44755, Note_off_c, 13, 41, 64
14, 44760, Note_on_c, 13, 41, 92
14, 44995, Note_off_c, 13, 41, 64
14, 45000, Note_on_c, 13, 41, 92
14, 45235, Note_off_c, 13, 41, 64
14, 45240, Note_on_c, 13, 41, 92
14, 45475, Note_off_c, 13, 41, 64
14, 45480, Note_on_c, 13, 41, 92
14, 45715, Note_off_c, 13, 41, 64
14, 45720, Note_on_c, 13, 41, 92
14, 45955, Note_off_c, 13, 41, 64
14, 45960, Note_on_c, 13, 41, 92
14, 46195, Note_off_c, 13, 41, 64
14, 46200, Note_on_c, 13, 41, 92
14, 46435, Note_off_c, 13, 41, 64
14, 46440, Note_on_c, 13, 41, 92
14, 46675, Note_off_c, 13, 41, 64
14, 46680, Note_on_c, 13, 41, 92
14, 46915, Note_off_c, 13, 41, 64
14, 46920, Note_on_c, 13, 41, 92
14, 47155, Note_off_c, 13, 41, 64
14, 47160, Note_on_c, 13, 41, 92
14, 47395, Note_off_c, 13, 41, 64
14, 47400, Note_on_c, 13, 41, 92
14, 47635, Note_off_c, 13, 41, 64
14, 47640, Note_on_c, 13, 41, 92
14, 47875, Note_off_c, 13, 41, 64
14, 47880, Note_on_c, 13, 41, 92
14, 48115, Note_off_c, 13, 41, 64
14, 48120, Note_on_c, 13, 41, 92
14, 48355, Note_off_c, 13, 41, 64
14, 48360, Note_on_c, 13, 41, 92
14, 48595, Note_off_c, 13, 41, 64
14, 48600, Note_on_c, 13, 41, 92
14, 48835, Note_off_c, 13, 41, 64
14, 48840, Note_on_c, 13, 41, 92
14, 49075, Note_off_c, 13, 41, 64
14, 49080, Note_on_c, 13, 41, 92
14, 49315, Note_off_c, 13, 41, 64
14, 49320, Note_on_c, 13, 41, 92
14, 49555, Note_off_c, 13, 41, 64
14, 49560, Note_on_c, 13, 41, 88
14, 49795, Note_off_c, 13, 41, 64
14, 49800, Note_on_c, 13, 41, 84
14, 50035, Note_off_c, 13, 41, 64
14, 50040, Note_on_c, 13, 41, 80
14, 50275, Note_off_c, 13, 41, 64
14, 50280, Note_on_c, 13, 41, 75
14, 50515, Note_off_c, 13, 41, 64
14, 54120, Program_c, 13, 45
14, 54120, Note_on_c, 13, 50, 30
14, 54355, Note_off_c, 13, 50, 64
14, 57960, Note_on_c, 13, 48, 30
14, 58360, Note_off_c, 13, 48, 64
14, 59880, Note_on_c, 13, 47, 30
14, 60280, Note_off_c, 13, 47, 64
14, 62760, Program_c, 13, 48
14, 63000, Note_on_c, 13, 45, 45
14, 63240, Note_off_c, 13, 45, 64
14, 63240, Note_on_c, 13, 43, 45
14, 63320, Note_off_c, 13, 43, 64
14, 63480, Note_on_c, 13, 42, 45
14, 63560, Note_off_c, 13, 42, 64
14, 63720, Note_on_c, 13, 43, 45
14, 65520, Note_off_c, 13, 43, 64
14, 65640, Note_on_c, 13, 48, 45
14, 67440, Note_off_c, 13, 48, 64
14, 67560, Note_on_c, 13, 47, 45
14, 68040, Note_off_c, 13, 47, 64
14, 68040, Note_on_c, 13, 47, 45
14, 68520, Note_off_c, 13, 47, 64
14, 68520, Note_on_c, 13, 47, 45
14, 69000, Note_off_c, 13, 47, 64
14, 69000, Note_on_c, 13, 50, 45
14, 69240, Note_off_c, 13, 50, 64
14, 69240, Note_on_c, 13, 47, 45
14, 69475, Note_off_c, 13, 47, 64
14, 69480, Note_on_c, 13, 48, 45
14, 69960, Note_off_c, 13, 48, 64
14, 69960, Note_on_c, 13, 48, 45
14, 70440, Note_off_c, 13, 48, 64
14, 70440, Note_on_c, 13, 48, 45
14, 70920, Note_off_c, 13, 48, 64
14, 70920, Note_on_c, 13, 52, 45
14, 71160, Note_off_c, 13, 52, 64
14, 71160, Note_on_c, 13, 48, 45
14, 71395, Note_off_c, 13, 48, 64
14, 71400, Note_on_c, 13, 57, 60
14, 71640, Note_off_c, 13, 57, 64
14, 71640, Note_on_c, 13, 55, 60
14, 71880, Note_off_c, 13, 55, 64
14, 71880, Note_on_c, 13, 53, 60
14, 72120, Note_off_c, 13, 53, 64
14, 72120, Note_on_c, 13, 50, 60
14, 72360, Note_off_c, 13, 50, 64
14, 72360, Note_on_c, 13, 43, 60
14, 72600, Note_off_c, 13, 43, 64
14, 72600, Note_on_c, 13, 53, 60
14, 72840, Note_off_c, 13, 53, 64
14, 72840, Note_on_c, 13, 50, 60
14, 73080, Note_off_c, 13, 50, 64
14, 73080, Note_on_c, 13, 43, 60
14, 73315, Note_off_c, 13, 43, 64
14, 73320, Note_on_c, 13, 57, 60
14, 73560, Note_off_c, 13, 57, 64
14, 73560, Note_on_c, 13, 55, 60
14, 73800, Note_off_c, 13, 55, 64
14, 73800, Note_on_c, 13, 52, 60
14, 74040, Note_off_c, 13, 52, 64
14, 74040, Note_on_c, 13, 48, 60
14, 74280, Note_off_c, 13, 48, 64
14, 74280, Note_on_c, 13, 43, 60
14, 74520, Note_off_c, 13, 43, 64
14, 74520, Note_on_c, 13, 52, 60
14, 74760, Note_off_c, 13, 52, 64
14, 74760, Note_on_c, 13, 48, 60
14, 75000, Note_off_c, 13, 48, 64
14, 75000, Note_on_c, 13, 43, 60
14, 75235, Note_off_c, 13, 43, 64
14, 75240, Note_on_c, 13, 57, 60
14, 75480, Note_off_c, 13, 57, 64
14, 75480, Note_on_c, 13, 55, 60
14, 75720, Note_off_c, 13, 55, 64
14, 75720, Note_on_c, 13, 53, 61
14, 75960, Note_off_c, 13, 53, 64
14, 75960, Note_on_c, 13, 50, 62
14, 76200, Note_off_c, 13, 50, 64
14, 76200, Note_on_c, 13, 43, 63
14, 76440, Note_off_c, 13, 43, 64
14, 76440, Note_on_c, 13, 53, 64
14, 76680, Note_off_c, 13, 53, 64
14, 76680, Note_on_c, 13, 50, 65
14, 76920, Note_off_c, 13, 50, 64
14, 76920, Note_on_c, 13, 43, 66
14, 77155, Note_off_c, 13, 43, 64
14, 77160, Note_on_c, 13, 57, 67
14, 77400, Note_off_c, 13, 57, 64
14, 77400, Note_on_c, 13, 55, 68
14, 77640, Note_off_c, 13, 55, 64
14, 77640, Note_on_c, 13, 52, 69
14, 77880, Note_off_c, 13, 52, 64
14, 77880, Note_on_c, 13, 48, 70
14, 78120, Note_off_c, 13, 48, 64
14, 78120, Note_on_c, 13, 43, 71
14, 78360, Note_off_c, 13, 43, 64
14, 78360, Note_on_c, 13, 52, 72
14, 78600, Note_off_c, 13, 52, 64
14, 78600, Note_on_c, 13, 48, 73
14, 78840, Note_off_c, 13, 48, 64
14, 78840, Note_on_c, 13, 43, 74
14, 79075, Note_off_c, 13, 43, 64
14, 79080, Note_on_c, 13, 43, 75
14, 80880, Note_off_c, 13, 43, 64
14, 81000, Note_on_c, 13, 48, 75
14, 82800, Note_off_c, 13, 48, 64
14, 82920, Note_on_c, 13, 47, 75
14, 83400, Note_off_c, 13, 47, 64
14, 83400, Note_on_c, 13, 47, 75
14, 83880, Note_off_c, 13, 47, 64
14, 83880, Note_on_c, 13, 47, 75
14, 84360, Note_off_c, 13, 47, 64
14, 84360, Note_on_c, 13, 50, 76
14, 84600, Note_off_c, 13, 50, 64
14, 84600, Note_on_c, 13, 47, 76
14, 84835, Note_off_c, 13, 47, 64
14, 84840, Note_on_c, 13, 48, 76
14, 85320, Note_off_c, 13, 48, 64
14, 85320, Note_on_c, 13, 48, 78
14, 85800, Note_off_c, 13, 48, 64
14, 85800, Note_on_c, 13, 48, 80
14, 86280, Note_off_c, 13, 48, 64
14, 86280, Note_on_c, 13, 52, 82
14, 86520, Note_off_c, 13, 52, 64
14, 86520, Note_on_c, 13, 48, 83
14, 86755, Note_off_c, 13, 48, 64
14, 86760, Note_on_c, 13, 50, 84
14, 87240, Note_off_c, 13, 50, 64
14, 87240, Note_on_c, 13, 50, 86
14, 87720, Note_off_c, 13, 50, 64
14, 87720, Note_on_c, 13, 50, 88
14, 88200, Note_off_c, 13, 50, 64
14, 88200, Note_on_c, 13, 53, 90
14, 88440, Note_off_c, 13, 53, 64
14, 88440, Note_on_c, 13, 50, 91
14, 88675, Note_off_c, 13, 50, 64
14, 88680, Note_on_c, 13, 48, 92
14, 91440, Note_off_c, 13, 48, 64
14, 91560, Note_on_c, 13, 41, 92
14, 91795, Note_off_c, 13, 41, 64
14, 92520, Note_on_c, 13, 41, 45
14, 93480, Note_off_c, 13, 41, 64
14, 93480, Note_on_c, 13, 48, 45
14, 94440, Note_off_c, 13, 48, 64
14, 94440, Note_on_c, 13, 43, 45
14, 95280, Note_off_c, 13, 43, 64
14, 95400, Note_on_c, 13, 48, 92
14, 98160, Note_off_c, 13, 48, 64
14, 98280, Note_on_c, 13, 41, 92
14, 98515, Note_off_c, 13, 41, 64
14, 99240, Note_on_c, 13, 41, 45
14, 100200, Note_off_c, 13, 41, 64
14, 100200, Note_on_c, 13, 48, 45
14, 101160, Note_off_c, 13, 48, 64
14, 101160, Note_on_c, 13, 43, 45
14, 102000, Note_off_c, 13, 43, 64
14, 102120, Note_on_c, 13, 48, 45
14, 102520, Note_off_c, 13, 48, 64
14, 102600, Note_on_c, 13, 48, 45
14, 103080, Note_off_c, 13, 48, 64
14, 103080, Note_on_c, 13, 41, 51
14, 103480, Note_off_c, 13, 41, 64
14, 103560, Note_on_c, 13, 41, 57
14, 104040, Note_off_c, 13, 41, 64
14, 104040, Note_on_c, 13, 48, 64
14, 104440, Note_off_c, 13, 48, 64
14, 104520, Note_on_c, 13, 48, 71
14, 105000, Note_off_c, 13, 48, 64
14, 105000, Note_on_c, 13, 43, 78
14, 105400, Note_off_c, 13, 43, 64
14, 105480, Note_on_c, 13, 43, 85
14, 105880, Note_off_c, 13, 43, 64
14, 105960, Note_on_c, 13, 48, 92
14, 106115, Note_off_c, 13, 48, 64
14, 106120, Note_on_c, 13, 48, 92
14, 106275, Note_off_c, 13, 48, 64
14, 106280, Note_on_c, 13, 48, 92
14, 106435, Note_off_c, 13, 48, 64
14, 106440, Note_on_c, 13, 48, 92
14, 106595, Note_off_c, 13, 48, 64
14, 106600, Note_on_c, 13, 50, 92
14, 106755, Note_off_c, 13, 50, 64
14, 106760, Note_on_c, 13, 52, 92
14, 106915, Note_off_c, 13, 52, 64
14, 106920, Note_on_c, 13, 53, 92
14, 107075, Note_off_c, 13, 53, 64
14, 107080, Note_on_c, 13, 53, 92
14, 107235, Note_off_c, 13, 53, 64
14, 107240, Note_on_c, 13, 53, 92
14, 107395, Note_off_c, 13, 53, 64
14, 107400, Note_on_c, 13, 57, 92
14, 107555, Note_off_c, 13, 57, 64
14, 107560, Note_on_c, 13, 57, 92
14, 107715, Note_off_c, 13, 57, 64
14, 107720, Note_on_c, 13, 57, 92
14, 107875, Note_off_c, 13, 57, 64
14, 107880, Note_on_c, 13, 60, 92
14, 108035, Note_off_c, 13, 60, 64
14, 108040, Note_on_c, 13, 60, 92
14, 108195, Note_off_c, 13, 60, 64
14, 108200, Note_on_c, 13, 60, 92
14, 108355, Note_off_c, 13, 60, 64
14, 108360, Note_on_c, 13, 64, 92
14, 108515, Note_off_c, 13, 64, 64
14, 108520, Note_on_c, 13, 64, 92
14, 108675, Note_off_c, 13, 64, 64
14, 108680, Note_on_c, 13, 64, 92
14, 108835, Note_off_c, 13, 64, 64
14, 108840, Note_on_c, 13, 67, 92
14, 108995, Note_off_c, 13, 67, 64
14, 109000, Note_on_c, 13, 43, 92
14, 109155, Note_off_c, 13, 43, 64
14, 109160, Note_on_c, 13, 43, 92
14, 109315, Note_off_c, 13, 43, 64
14, 109320, Note_on_c, 13, 43, 92
14, 109475, Note_off_c, 13, 43, 64
14, 109480, Note_on_c, 13, 43, 92
14, 109635, Note_off_c, 13, 43, 64
14, 109640, Note_on_c, 13, 43, 92
14, 109795, Note_off_c, 13, 43, 64
14, 109800, Note_on_c, 13, 36, 92
14, 109955, Note_off_c, 13, 36, 64
14, 109960, Note_on_c, 13, 36, 92
14, 110115, Note_off_c, 13, 36, 64
14, 110120, Note_on_c, 13, 36, 92
14, 110275, Note_off_c, 13, 36, 64
14, 110280, Note_on_c, 13, 36, 92
14, 111875, Note_off_c, 13, 36, 64
14, 111880, Note_on_c, 13, 36, 92
14, 112035, Note_off_c, 13, 36, 64
14, 112040, Note_on_c, 13, 36, 92
14, 112195, Note_off_c, 13, 36, 64
14, 112200, Note_on_c, 13, 36, 92
14, 113795, Note_off_c, 13, 36, 64
14, 113800, Note_on_c, 13, 36, 92
14, 113955, Note_off_c, 13, 36, 64
14, 113960, Note_on_c, 13, 36, 92
14, 114115, Note_off_c, 13, 36, 64
14, 114120, Note_on_c, 13, 36, 92
14, 115715, Note_off_c, 13, 36, 64
14, 115720, Note_on_c, 13, 36, 92
14, 115875, Note_off_c, 13, 36, 64
14, 115880, Note_on_c, 13, 36, 92
14, 116035, Note_off_c, 13, 36, 64
14, 116040, Note_on_c, 13, 36, 75
14, 117635, Note_off_c, 13, 36, 64
14, 117640, Note_on_c, 13, 36, 63
14, 117795, Note_off_c, 13, 36, 64
14, 117800, Note_on_c, 13, 36, 62
14, 117955, Note_off_c, 13, 36, 64
14, 117960, Note_on_c, 13, 36, 60
14, 119555, Note_off_c, 13, 36, 64
14, 119560, Note_on_c, 13, 36, 60
14, 119715, Note_off_c, 13, 36, 64
14, 119720, Note_on_c, 13, 36, 60
14, 119875, Note_off_c, 13, 36, 64
14, 119880, Note_on_c, 13, 36, 60
14, 121475, Note_off_c, 13, 36, 64
14, 121480, Note_on_c, 13, 36, 45
14, 121635, Note_off_c, 13, 36, 64
14, 121640, Note_on_c, 13, 36, 45
14, 121795, Note_off_c, 13, 36, 64
14, 121800, Note_on_c, 13, 36, 45
14, 122435, Note_off_c, 13, 36, 64
14, 122440, Note_on_c, 13, 36, 45
14, 122595, Note_off_c, 13, 36, 64
14, 122600, Note_on_c, 13, 36, 45
14, 122755, Note_off_c, 13, 36, 64
14, 122760, Note_on_c, 13, 36, 45
14, 123395, Note_off_c, 13, 36, 64
14, 123400, Note_on_c, 13, 36, 45
14, 123555, Note_off_c, 13, 36, 64
14, 123560, Note_on_c, 13, 36, 45
14, 123715, Note_off_c, 13, 36, 64
14, 123720, Note_on_c, 13, 36, 45
14, 124355, Note_off_c, 13, 36, 64
14, 124360, Note_on_c, 13, 36, 45
14, 124515, Note_off_c, 13, 36, 64
14, 124520, Note_on_c, 13, 36, 45
14, 124675, Note_off_c, 13, 36, 64
14, 124680, Note_on_c, 13, 36, 45
14, 125395, Note_off_c, 13, 36, 64
14, 125400, Note_on_c, 13, 43, 30
14, 125520, Note_off_c, 13, 43, 64
14, 125520, Note_on_c, 13, 40, 30
14, 125640, Note_off_c, 13, 40, 64
14, 125640, Note_on_c, 13, 38, 30
14, 125720, Note_off_c, 13, 38, 64
14, 125880, Note_on_c, 13, 43, 30
14, 126000, Note_off_c, 13, 43, 64
14, 126000, Note_on_c, 13, 40, 30
14, 126120, Note_off_c, 13, 40, 64
14, 126120, Note_on_c, 13, 36, 30
14, 126200, Note_off_c, 13, 36, 64
14, 126360, Note_on_c, 13, 43, 30
14, 126480, Note_off_c, 13, 43, 64
14, 126480, Note_on_c, 13, 40, 30
14, 126600, Note_off_c, 13, 40, 64
14, 126600, Note_on_c, 13, 38, 30
14, 126680, Note_off_c, 13, 38, 64
14, 126840, Note_on_c, 13, 43, 30
14, 126925, Note_off_c, 13, 43, 64
14, 126960, Note_on_c, 13, 40, 30
14, 127080, Note_off_c, 13, 40, 64
14, 127080, Note_on_c, 13, 36, 30
14, 127160, Note_off_c, 13, 36, 64
14, 127320, Note_on_c, 13, 43, 30
14, 127440, Note_off_c, 13, 43, 64
14, 127440, Note_on_c, 13, 40, 30
14, 127560, Note_off_c, 13, 40, 64
14, 127560, Note_on_c, 13, 38, 30
14, 127640, Note_off_c, 13, 38, 64
14, 127800, Note_on_c, 13, 43, 30
14, 127920, Note_off_c, 13, 43, 64
14, 127920, Note_on_c, 13, 40, 30
14, 128040, Note_off_c, 13, 40, 64
14, 128040, Note_on_c, 13, 36, 30
14, 128120, Note_off_c, 13, 36, 64
14, 128280, Note_on_c, 13, 43, 30
14, 128400, Note_off_c, 13, 43, 64
14, 128400, Note_on_c, 13, 40, 30
14, 128520, Note_off_c, 13, 40, 64
14, 128520, Note_on_c, 13, 38, 30
14, 128600, Note_off_c, 13, 38, 64
14, 128760, Note_on_c, 13, 43, 30
14, 128880, Note_off_c, 13, 43, 64
14, 128880, Note_on_c, 13, 40, 30
14, 129000, Note_off_c, 13, 40, 64
14, 129000, Note_on_c, 13, 36, 30
14, 129080, Note_off_c, 13, 36, 64
14, 144360, Note_on_c, 13, 41, 60
14, 144595, Note_off_c, 13, 41, 64
14, 144600, Note_on_c, 13, 41, 60
14, 144705, Note_off_c, 13, 41, 64
14, 144760, Note_on_c, 13, 50, 60
14, 144865, Note_off_c, 13, 50, 64
14, 144920, Note_on_c, 13, 46, 60
14, 145025, Note_off_c, 13, 46, 64
14, 145080, Note_on_c, 13, 53, 60
14, 145185, Note_off_c, 13, 53, 64
14, 145240, Note_on_c, 13, 50, 60
14, 145345, Note_off_c, 13, 50, 64
14, 145400, Note_on_c, 13, 46, 60
14, 145505, Note_off_c, 13, 46, 64
14, 145560, Note_on_c, 13, 41, 60
14, 145665, Note_off_c, 13, 41, 64
14, 145720, Note_on_c, 13, 50, 60
14, 145825, Note_off_c, 13, 50, 64
14, 145880, Note_on_c, 13, 46, 60
14, 145985, Note_off_c, 13, 46, 64
14, 146040, Note_on_c, 13, 53, 60
14, 146145, Note_off_c, 13, 53, 64
14, 146200, Note_on_c, 13, 50, 60
14, 146305, Note_off_c, 13, 50, 64
14, 146360, Note_on_c, 13, 46, 60
14, 146465, Note_off_c, 13, 46, 64
14, 146520, Note_on_c, 13, 41, 60
14, 146625, Note_off_c, 13, 41, 64
14, 146680, Note_on_c, 13, 50, 60
14, 146785, Note_off_c, 13, 50, 64
14, 146840, Note_on_c, 13, 46, 60
14, 146945, Note_off_c, 13, 46, 64
14, 147000, Note_on_c, 13, 53, 60
14, 147105, Note_off_c, 13, 53, 64
14, 147160, Note_on_c, 13, 50, 60
14, 147265, Note_off_c, 13, 50, 64
14, 147320, Note_on_c, 13, 46, 60
14, 147425, Note_off_c, 13, 46, 64
14, 147480, Note_on_c, 13, 41, 60
14, 147585, Note_off_c, 13, 41, 64
14, 147640, Note_on_c, 13, 50, 60
14, 147745, Note_off_c, 13, 50, 64
14, 147800, Note_on_c, 13, 46, 60
14, 147905, Note_off_c, 13, 46, 64
14, 147960, Note_on_c, 13, 53, 60
14, 148065, Note_off_c, 13, 53, 64
14, 148120, Note_on_c, 13, 50, 60
14, 148225, Note_off_c, 13, 50, 64
14, 148280, Note_on_c, 13, 46, 60
14, 148385, Note_off_c, 13, 46, 64
14, 148440, Note_on_c, 13, 41, 60
14, 148545, Note_off_c, 13, 41, 64
14, 148600, Note_on_c, 13, 50, 60
14, 148705, Note_off_c, 13, 50, 64
14, 148760, Note_on_c, 13, 46, 60
14, 148865, Note_off_c, 13, 46, 64
14, 148920, Note_on_c, 13, 53, 60
14, 149025, Note_off_c, 13, 53, 64
14, 149080, Note_on_c, 13, 50, 60
14, 149185, Note_off_c, 13, 50, 64
14, 149240, Note_on_c, 13, 46, 60
14, 149345, Note_off_c, 13, 46, 64
14, 149400, Note_on_c, 13, 41, 60
14, 149505, Note_off_c, 13, 41, 64
14, 149560, Note_on_c, 13, 50, 60
14, 149665, Note_off_c, 13, 50, 64
14, 149720, Note_on_c, 13, 46, 60
14, 149825, Note_off_c, 13, 46, 64
14, 149880, Note_on_c, 13, 53, 60
14, 149985, Note_off_c, 13, 53, 64
14, 150040, Note_on_c, 13, 50, 60
14, 150145, Note_off_c, 13, 50, 64
14, 150200, Note_on_c, 13, 46, 60
14, 150305, Note_off_c, 13, 46, 64
14, 150360, Note_on_c, 13, 41, 60
14, 150465, Note_off_c, 13, 41, 64
14, 150520, Note_on_c, 13, 50, 60
14, 150625, Note_off_c, 13, 50, 64
14, 150680, Note_on_c, 13, 46, 60
14, 150785, Note_off_c, 13, 46, 64
14, 150840, Note_on_c, 13, 53, 60
14, 150945, Note_off_c, 13, 53, 64
14, 151000, Note_on_c, 13, 50, 60
14, 151105, Note_off_c, 13, 50, 64
14, 151160, Note_on_c, 13, 46, 60
14, 151265, Note_off_c, 13, 46, 64
14, 151320, Note_on_c, 13, 41, 60
14, 151425, Note_off_c, 13, 41, 64
14, 151480, Note_on_c, 13, 50, 60
14, 151585, Note_off_c, 13, 50, 64
14, 151640, Note_on_c, 13, 46, 60
14, 151745, Note_off_c, 13, 46, 64
14, 151800, Note_on_c, 13, 53, 60
14, 151905, Note_off_c, 13, 53, 64
14, 151960, Note_on_c, 13, 50, 60
14, 152065, Note_off_c, 13, 50, 64
14, 152120, Note_on_c, 13, 46, 60
14, 152225, Note_off_c, 13, 46, 64
14, 152280, Note_on_c, 13, 41, 60
14, 152385, Note_off_c, 13, 41, 64
14, 152440, Note_on_c, 13, 50, 60
14, 152545, Note_off_c, 13, 50, 64
14, 152600, Note_on_c, 13, 46, 60
14, 152705, Note_off_c, 13, 46, 64
14, 152760, Note_on_c, 13, 53, 60
14, 152865, Note_off_c, 13, 53, 64
14, 152920, Note_on_c, 13, 50, 60
14, 153025, Note_off_c, 13, 50, 64
14, 153080, Note_on_c, 13, 46, 60
14, 153185, Note_off_c, 13, 46, 64
14, 153240, Note_on_c, 13, 41, 60
14, 153345, Note_off_c, 13, 41, 64
14, 153400, Note_on_c, 13, 50, 60
14, 153505, Note_off_c, 13, 50, 64
14, 153560, Note_on_c, 13, 46, 60
14, 153665, Note_off_c, 13, 46, 64
14, 153720, Note_on_c, 13, 53, 60
14, 153825, Note_off_c, 13, 53, 64
14, 153880, Note_on_c, 13, 50, 60
14, 153985, Note_off_c, 13, 50, 64
14, 154040, Note_on_c, 13, 46, 60
14, 154145, Note_off_c, 13, 46, 64
14, 154200, Note_on_c, 13, 41, 60
14, 154305, Note_off_c, 13, 41, 64
14, 154360, Note_on_c, 13, 50, 60
14, 154465, Note_off_c, 13, 50, 64
14, 154520, Note_on_c, 13, 46, 60
14, 154625, Note_off_c, 13, 46, 64
14, 154680, Note_on_c, 13, 53, 60
14, 154785, Note_off_c, 13, 53, 64
14, 154840, Note_on_c, 13, 50, 60
14, 154945, Note_off_c, 13, 50, 64
14, 155000, Note_on_c, 13, 46, 60
14, 155105, Note_off_c, 13, 46, 64
14, 155160, Note_on_c, 13, 41, 60
14, 155265, Note_off_c, 13, 41, 64
14, 155320, Note_on_c, 13, 50, 60
14, 155425, Note_off_c, 13, 50, 64
14, 155480, Note_on_c, 13, 46, 60
14, 155585, Note_off_c, 13, 46, 64
14, 155640, Note_on_c, 13, 53, 60
14, 155745, Note_off_c, 13, 53, 64
14, 155800, Note_on_c, 13, 50, 60
14, 155905, Note_off_c, 13, 50, 64
14, 155960, Note_on_c, 13, 46, 60
14, 156065, Note_off_c, 13, 46, 64
14, 156120, Note_on_c, 13, 45, 60
14, 156225, Note_off_c, 13, 45, 64
14, 156280, Note_on_c, 13, 54, 60
14, 156385, Note_off_c, 13, 54, 64
14, 156440, Note_on_c, 13, 50, 60
14, 156545, Note_off_c, 13, 50, 64
14, 156600, Note_on_c, 13, 57, 60
14, 156705, Note_off_c, 13, 57, 64
14, 156760, Note_on_c, 13, 54, 60
14, 156865, Note_off_c, 13, 54, 64
14, 156920, Note_on_c, 13, 50, 60
14, 157025, Note_off_c, 13, 50, 64
14, 157080, Note_on_c, 13, 45, 60
14, 157185, Note_off_c, 13, 45, 64
14, 157240, Note_on_c, 13, 54, 60
14, 157345, Note_off_c, 13, 54, 64
14, 157400, Note_on_c, 13, 50, 60
14, 157505, Note_off_c, 13, 50, 64
14, 157560, Note_on_c, 13, 57, 60
14, 157665, Note_off_c, 13, 57, 64
14, 157720, Note_on_c, 13, 54, 60
14, 157825, Note_off_c, 13, 54, 64
14, 157880, Note_on_c, 13, 50, 60
14, 157985, Note_off_c, 13, 50, 64
14, 158040, Note_on_c, 13, 45, 60
14, 158145, Note_off_c, 13, 45, 64
14, 158200, Note_on_c, 13, 54, 60
14, 158305, Note_off_c, 13, 54, 64
14, 158360, Note_on_c, 13, 50, 60
14, 158465, Note_off_c, 13, 50, 64
14, 158520, Note_on_c, 13, 57, 60
14, 158625, Note_off_c, 13, 57, 64
14, 158680, Note_on_c, 13, 54, 60
14, 158785, Note_off_c, 13, 54, 64
14, 158840, Note_on_c, 13, 50, 60
14, 158945, Note_off_c, 13, 50, 64
14, 159000, Note_on_c, 13, 45, 60
14, 159105, Note_off_c, 13, 45, 64
14, 159160, Note_on_c, 13, 54, 60
14, 159265, Note_off_c, 13, 54, 64
14, 159320, Note_on_c, 13, 50, 60
14, 159425, Note_off_c, 13, 50, 64
14, 159480, Note_on_c, 13, 57, 60
14, 159585, Note_off_c, 13, 57, 64
14, 159640, Note_on_c, 13, 54, 60
14, 159745, Note_off_c, 13, 54, 64
14, 159800, Note_on_c, 13, 50, 60
14, 159905, Note_off_c, 13, 50, 64
14, 159960, Note_on_c, 13, 45, 60
14, 160065, Note_off_c, 13, 45, 64
14, 160120, Note_on_c, 13, 54, 60
14, 160225, Note_off_c, 13, 54, 64
14, 160280, Note_on_c, 13, 50, 60
14, 160385, Note_off_c, 13, 50, 64
14, 160440, Note_on_c, 13, 57, 60
14, 160545, Note_off_c, 13, 57, 64
14, 160600, Note_on_c, 13, 54, 60
14, 160705, Note_off_c, 13, 54, 64
14, 160760, Note_on_c, 13, 50, 60
14, 160865, Note_off_c, 13, 50, 64
14, 160920, Note_on_c, 13, 45, 60
14, 161025, Note_off_c, 13, 45, 64
14, 161080, Note_on_c, 13, 54, 60
14, 161185, Note_off_c, 13, 54, 64
14, 161240, Note_on_c, 13, 50, 60
14, 161345, Note_off_c, 13, 50, 64
14, 161400, Note_on_c, 13, 57, 60
14, 161505, Note_off_c, 13, 57, 64
14, 161560, Note_on_c, 13, 54, 60
14, 161665, Note_off_c, 13, 54, 64
14, 161720, Note_on_c, 13, 50, 60
14, 161825, Note_off_c, 13, 50, 64
14, 161880, Note_on_c, 13, 45, 60
14, 161985, Note_off_c, 13, 45, 64
14, 162040, Note_on_c, 13, 54, 60
14, 162145, Note_off_c, 13, 54, 64
14, 162200, Note_on_c, 13, 50, 60
14, 162305, Note_off_c, 13, 50, 64
14, 162360, Note_on_c, 13, 57, 60
14, 162465, Note_off_c, 13, 57, 64
14, 162520, Note_on_c, 13, 54, 60
14, 162625, Note_off_c, 13, 54, 64
14, 162680, Note_on_c, 13, 50, 61
14, 162785, Note_off_c, 13, 50, 64
14, 162840, Note_on_c, 13, 45, 61
14, 162945, Note_off_c, 13, 45, 64
14, 163000, Note_on_c, 13, 54, 62
14, 163105, Note_off_c, 13, 54, 64
14, 163160, Note_on_c, 13, 50, 63
14, 163265, Note_off_c, 13, 50, 64
14, 163320, Note_on_c, 13, 57, 64
14, 163425, Note_off_c, 13, 57, 64
14, 163480, Note_on_c, 13, 54, 65
14, 163585, Note_off_c, 13, 54, 64
14, 163640, Note_on_c, 13, 50, 66
14, 163745, Note_off_c, 13, 50, 64
14, 163800, Note_on_c, 13, 45, 67
14, 163905, Note_off_c, 13, 45, 64
14, 163960, Note_on_c, 13, 54, 68
14, 164065, Note_off_c, 13, 54, 64
14, 164120, Note_on_c, 13, 50, 69
14, 164225, Note_off_c, 13, 50, 64
14, 164280, Note_on_c, 13, 57, 70
14, 164385, Note_off_c, 13, 57, 64
14, 164440, Note_on_c, 13, 54, 71
14, 164545, Note_off_c, 13, 54, 64
14, 164600, Note_on_c, 13, 50, 72
14, 164705, Note_off_c, 13, 50, 64
14, 164760, Note_on_c, 13, 45, 73
14, 164865, Note_off_c, 13, 45, 64
14, 164920, Note_on_c, 13, 54, 74
14, 165025, Note_off_c, 13, 54, 64
14, 165080, Note_on_c, 13, 50, 75
14, 165185, Note_off_c, 13, 50, 64
14, 165240, Note_on_c, 13, 57, 76
14, 165345, Note_off_c, 13, 57, 64
14, 165400, Note_on_c, 13, 54, 77
14, 165505, Note_off_c, 13, 54, 64
14, 165560, Note_on_c, 13, 50, 78
14, 165665, Note_off_c, 13, 50, 64
14, 165720, Note_on_c, 13, 45, 79
14, 165825, Note_off_c, 13, 45, 64
14, 165880, Note_on_c, 13, 54, 80
14, 165985, Note_off_c, 13, 54, 64
14, 166040, Note_on_c, 13, 50, 81
14, 166145, Note_off_c, 13, 50, 64
14, 166200, Note_on_c, 13, 57, 82
14, 166305, Note_off_c, 13, 57, 64
14, 166360, Note_on_c, 13, 54, 83
14, 166465, Note_off_c, 13, 54, 64
14, 166520, Note_on_c, 13, 50, 84
14, 166625, Note_off_c, 13, 50, 64
14, 166680, Note_on_c, 13, 45, 85
14, 166785, Note_off_c, 13, 45, 64
14, 166840, Note_on_c, 13, 54, 86
14, 166945, Note_off_c, 13, 54, 64
14, 167000, Note_on_c, 13, 50, 87
14, 167105, Note_off_c, 13, 50, 64
14, 167160, Note_on_c, 13, 57, 88
14, 167265, Note_off_c, 13, 57, 64
14, 167320, Note_on_c, 13, 54, 89
14, 167425, Note_off_c, 13, 54, 64
14, 167480, Note_on_c, 13, 50, 90
14, 167585, Note_off_c, 13, 50, 64
14, 167640, Note_on_c, 13, 50, 92
14, 167720, Note_off_c, 13, 50, 64
14, 167880, Note_on_c, 13, 45, 92
14, 168000, Note_off_c, 13, 45, 64
14, 168000, Note_on_c, 13, 43, 92
14, 168120, Note_off_c, 13, 43, 64
14, 168120, Note_on_c, 13, 42, 92
14, 168200, Note_off_c, 13, 42, 64
14, 168360, Note_on_c, 13, 38, 92
14, 168440, Note_off_c, 13, 38, 64
14, 168600, Note_on_c, 13, 50, 92
14, 168680, Note_off_c, 13, 50, 64
14, 168840, Note_on_c, 13, 45, 92
14, 168960, Note_off_c, 13, 45, 64
14, 168960, Note_on_c, 13, 43, 92
14, 169080, Note_off_c, 13, 43, 64
14, 169080, Note_on_c, 13, 42, 92
14, 169160, Note_off_c, 13, 42, 64
14, 169320, Note_on_c, 13, 38, 92
14, 169400, Note_off_c, 13, 38, 64
14, 169560, Note_on_c, 13, 50, 92
14, 169640, Note_off_c, 13, 50, 64
14, 169800, Note_on_c, 13, 45, 92
14, 169920, Note_off_c, 13, 45, 64
14, 169920, Note_on_c, 13, 43, 92
14, 170040, Note_off_c, 13, 43, 64
14, 170040, Note_on_c, 13, 42, 92
14, 170120, Note_off_c, 13, 42, 64
14, 170280, Note_on_c, 13, 38, 92
14, 170360, Note_off_c, 13, 38, 64
14, 170520, Note_on_c, 13, 50, 92
14, 170600, Note_off_c, 13, 50, 64
14, 170760, Note_on_c, 13, 45, 92
14, 170880, Note_off_c, 13, 45, 64
14, 170880, Note_on_c, 13, 43, 92
14, 171000, Note_off_c, 13, 43, 64
14, 171000, Note_on_c, 13, 42, 92
14, 171080, Note_off_c, 13, 42, 64
14, 171240, Note_on_c, 13, 38, 92
14, 171320, Note_off_c, 13, 38, 64
14, 171480, Note_on_c, 13, 50, 92
14, 171560, Note_off_c, 13, 50, 64
14, 171720, Note_on_c, 13, 45, 92
14, 171840, Note_off_c, 13, 45, 64
14, 171840, Note_on_c, 13, 43, 92
14, 171960, Note_off_c, 13, 43, 64
14, 171960, Note_on_c, 13, 42, 92
14, 172040, Note_off_c, 13, 42, 64
14, 172200, Note_on_c, 13, 38, 92
14, 172280, Note_off_c, 13, 38, 64
14, 173400, Note_on_c, 13, 50, 92
14, 173480, Note_off_c, 13, 50, 64
14, 173640, Note_on_c, 13, 45, 92
14, 173760, Note_off_c, 13, 45, 64
14, 173760, Note_on_c, 13, 43, 92
14, 173880, Note_off_c, 13, 43, 64
14, 173880, Note_on_c, 13, 42, 92
14, 173960, Note_off_c, 13, 42, 64
14, 174120, Note_on_c, 13, 38, 92
14, 174200, Note_off_c, 13, 38, 64
14, 175320, Note_on_c, 13, 50, 60
14, 175400, Note_off_c, 13, 50, 64
14, 175560, Note_on_c, 13, 45, 60
14, 175680, Note_off_c, 13, 45, 64
14, 175680, Note_on_c, 13, 43, 60
14, 175800, Note_off_c, 13, 43, 64
14, 175800, Note_on_c, 13, 42, 60
14, 175880, Note_off_c, 13, 42, 64
14, 176040, Note_on_c, 13, 38, 60
14, 176120, Note_off_c, 13, 38, 64
14, 186840, Note_on_c, 13, 43, 60
14, 187920, Note_off_c, 13, 43, 64
14, 187920, Note_on_c, 13, 42, 60
14, 188040, Note_off_c, 13, 42, 64
14, 188040, Note_on_c, 13, 40, 60
14, 188160, Note_off_c, 13, 40, 64
14, 188160, Note_on_c, 13, 38, 60
14, 188275, Note_off_c, 13, 38, 64
14, 188280, Note_on_c, 13, 38, 60
14, 188360, Note_off_c, 13, 38, 64
14, 188520, Note_on_c, 13, 38, 60
14, 188600, Note_off_c, 13, 38, 64
14, 188760, Note_on_c, 13, 43, 60
14, 188865, Note_off_c, 13, 43, 64
14, 188920, Note_on_c, 13, 50, 60
14, 189025, Note_off_c, 13, 50, 64
14, 189080, Note_on_c, 13, 47, 60
14, 189185, Note_off_c, 13, 47, 64
14, 189240, Note_on_c, 13, 55, 60
14, 189345, Note_off_c, 13, 55, 64
14, 189400, Note_on_c, 13, 50, 60
14, 189505, Note_off_c, 13, 50, 64
14, 189560, Note_on_c, 13, 47, 60
14, 189665, Note_off_c, 13, 47, 64
14, 189720, Note_on_c, 13, 43, 60
14, 189825, Note_off_c, 13, 43, 64
14, 189880, Note_on_c, 13, 50, 60
14, 189985, Note_off_c, 13, 50, 64
14, 190040, Note_on_c, 13, 47, 60
14, 190145, Note_off_c, 13, 47, 64
14, 190200, Note_on_c, 13, 55, 60
14, 190305, Note_off_c, 13, 55, 64
14, 190360, Note_on_c, 13, 50, 60
14, 190465, Note_off_c, 13, 50, 64
14, 190520, Note_on_c, 13, 47, 60
14, 190625, Note_off_c, 13, 47, 64
14, 190680, Note_on_c, 13, 43, 60
14, 190785, Note_off_c, 13, 43, 64
14, 190840, Note_on_c, 13, 50, 60
14, 190945, Note_off_c, 13, 50, 64
14, 191000, Note_on_c, 13, 47, 60
14, 191105, Note_off_c, 13, 47, 64
14, 191160, Note_on_c, 13, 55, 60
14, 191265, Note_off_c, 13, 55, 64
14, 191320, Note_on_c, 13, 50, 60
14, 191425, Note_off_c, 13, 50, 64
14, 191480, Note_on_c, 13, 47, 60
14, 191585, Note_off_c, 13, 47, 64
14, 191640, Note_on_c, 13, 43, 60
14, 191745, Note_off_c, 13, 43, 64
14, 191800, Note_on_c, 13, 50, 60
14, 191905, Note_off_c, 13, 50, 64
14, 191960, Note_on_c, 13, 47, 60
14, 192065, Note_off_c, 13, 47, 64
14, 192120, Note_on_c, 13, 55, 60
14, 192225, Note_off_c, 13, 55, 64
14, 192280, Note_on_c, 13, 50, 60
14, 192385, Note_off_c, 13, 50, 64
14, 192440, Note_on_c, 13, 47, 60
14, 192545, Note_off_c, 13, 47, 64
14, 192600, Note_on_c, 13, 43, 60
14, 192705, Note_off_c, 13, 43, 64
14, 192760, Note_on_c, 13, 50, 60
14, 192865, Note_off_c, 13, 50, 64
14, 192920, Note_on_c, 13, 47, 60
14, 193025, Note_off_c, 13, 47, 64
14, 193080, Note_on_c, 13, 55, 60
14, 193185, Note_off_c, 13, 55, 64
14, 193240, Note_on_c, 13, 50, 60
14, 193345, Note_off_c, 13, 50, 64
14, 193400, Note_on_c, 13, 47, 60
14, 193505, Note_off_c, 13, 47, 64
14, 193560, Note_on_c, 13, 43, 60
14, 193665, Note_off_c, 13, 43, 64
14, 193720, Note_on_c, 13, 50, 60
14, 193825, Note_off_c, 13, 50, 64
14, 193880, Note_on_c, 13, 47, 60
14, 193985, Note_off_c, 13, 47, 64
14, 194040, Note_on_c, 13, 55, 60
14, 194145, Note_off_c, 13, 55, 64
14, 194200, Note_on_c, 13, 50, 60
14, 194305, Note_off_c, 13, 50, 64
14, 194360, Note_on_c, 13, 47, 60
14, 194465, Note_off_c, 13, 47, 64
14, 194520, Note_on_c, 13, 43, 60
14, 194625, Note_off_c, 13, 43, 64
14, 194680, Note_on_c, 13, 50, 60
14, 194785, Note_off_c, 13, 50, 64
14, 194840, Note_on_c, 13, 47, 60
14, 194945, Note_off_c, 13, 47, 64
14, 195000, Note_on_c, 13, 55, 60
14, 195105, Note_off_c, 13, 55, 64
14, 195160, Note_on_c, 13, 50, 60
14, 195265, Note_off_c, 13, 50, 64
14, 195320, Note_on_c, 13, 47, 60
14, 195425, Note_off_c, 13, 47, 64
14, 195480, Note_on_c, 13, 43, 60
14, 195585, Note_off_c, 13, 43, 64
14, 195640, Note_on_c, 13, 50, 60
14, 195745, Note_off_c, 13, 50, 64
14, 195800, Note_on_c, 13, 47, 60
14, 195905, Note_off_c, 13, 47, 64
14, 195960, Note_on_c, 13, 55, 60
14, 196065, Note_off_c, 13, 55, 64
14, 196120, Note_on_c, 13, 50, 60
14, 196225, Note_off_c, 13, 50, 64
14, 196280, Note_on_c, 13, 47, 60
14, 196385, Note_off_c, 13, 47, 64
14, 196440, Note_on_c, 13, 43, 60
14, 196545, Note_off_c, 13, 43, 64
14, 196600, Note_on_c, 13, 50, 60
14, 196705, Note_off_c, 13, 50, 64
14, 196760, Note_on_c, 13, 47, 60
14, 196865, Note_off_c, 13, 47, 64
14, 196920, Note_on_c, 13, 55, 60
14, 197025, Note_off_c, 13, 55, 64
14, 197080, Note_on_c, 13, 50, 60
14, 197185, Note_off_c, 13, 50, 64
14, 197240, Note_on_c, 13, 47, 60
14, 197345, Note_off_c, 13, 47, 64
14, 197400, Note_on_c, 13, 43, 60
14, 197505, Note_off_c, 13, 43, 64
14, 197560, Note_on_c, 13, 50, 60
14, 197665, Note_off_c, 13, 50, 64
14, 197720, Note_on_c, 13, 47, 60
14, 197825, Note_off_c, 13, 47, 64
14, 197880, Note_on_c, 13, 55, 60
14, 197985, Note_off_c, 13, 55, 64
14, 198040, Note_on_c, 13, 50, 61
14, 198145, Note_off_c, 13, 50, 64
14, 198200, Note_on_c, 13, 47, 62
14, 198305, Note_off_c, 13, 47, 64
14, 198360, Note_on_c, 13, 43, 63
14, 198465, Note_off_c, 13, 43, 64
14, 198520, Note_on_c, 13, 50, 64
14, 198625, Note_off_c, 13, 50, 64
14, 198680, Note_on_c, 13, 47, 65
14, 198785, Note_off_c, 13, 47, 64
14, 198840, Note_on_c, 13, 55, 66
14, 198945, Note_off_c, 13, 55, 64
14, 199000, Note_on_c, 13, 50, 67
14, 199105, Note_off_c, 13, 50, 64
14, 199160, Note_on_c, 13, 47, 68
14, 199265, Note_off_c, 13, 47, 64
14, 199320, Note_on_c, 13, 43, 69
14, 199425, Note_off_c, 13, 43, 64
14, 199480, Note_on_c, 13, 50, 70
14, 199585, Note_off_c, 13, 50, 64
14, 199640, Note_on_c, 13, 47, 71
14, 199745, Note_off_c, 13, 47, 64
14, 199800, Note_on_c, 13, 55, 72
14, 199905, Note_off_c, 13, 55, 64
14, 199960, Note_on_c, 13, 50, 73
14, 200065, Note_off_c, 13, 50, 64
14, 200120, Note_on_c, 13, 47, 74
14, 200225, Note_off_c, 13, 47, 64
14, 200280, Note_on_c, 13, 40, 75
14, 200385, Note_off_c, 13, 40, 64
14, 200440, Note_on_c, 13, 52, 75
14, 200545, Note_off_c, 13, 52, 64
14, 200600, Note_on_c, 13, 47, 75
14, 200705, Note_off_c, 13, 47, 64
14, 200760, Note_on_c, 13, 56, 75
14, 200865, Note_off_c, 13, 56, 64
14, 200920, Note_on_c, 13, 52, 75
14, 201025, Note_off_c, 13, 52, 64
14, 201080, Note_on_c, 13, 47, 75
14, 201185, Note_off_c, 13, 47, 64
14, 201240, Note_on_c, 13, 40, 75
14, 201345, Note_off_c, 13, 40, 64
14, 201400, Note_on_c, 13, 52, 75
14, 201505, Note_off_c, 13, 52, 64
14, 201560, Note_on_c, 13, 47, 75
14, 201665, Note_off_c, 13, 47, 64
14, 201720, Note_on_c, 13, 56, 75
14, 201825, Note_off_c, 13, 56, 64
14, 201880, Note_on_c, 13, 52, 75
14, 201985, Note_off_c, 13, 52, 64
14, 202040, Note_on_c, 13, 47, 75
14, 202145, Note_off_c, 13, 47, 64
14, 202200, Note_on_c, 13, 40, 75
14, 202305, Note_off_c, 13, 40, 64
14, 202360, Note_on_c, 13, 52, 75
14, 202465, Note_off_c, 13, 52, 64
14, 202520, Note_on_c, 13, 47, 75
14, 202625, Note_off_c, 13, 47, 64
14, 202680, Note_on_c, 13, 56, 75
14, 202785, Note_off_c, 13, 56, 64
14, 202840, Note_on_c, 13, 52, 75
14, 202945, Note_off_c, 13, 52, 64
14, 203000, Note_on_c, 13, 47, 75
14, 203105, Note_off_c, 13, 47, 64
14, 203160, Note_on_c, 13, 40, 75
14, 203265, Note_off_c, 13, 40, 64
14, 203320, Note_on_c, 13, 52, 75
14, 203425, Note_off_c, 13, 52, 64
14, 203480, Note_on_c, 13, 47, 75
14, 203585, Note_off_c, 13, 47, 64
14, 203640, Note_on_c, 13, 56, 75
14, 203745, Note_off_c, 13, 56, 64
14, 203800, Note_on_c, 13, 52, 75
14, 203905, Note_off_c, 13, 52, 64
14, 203960, Note_on_c, 13, 47, 75
14, 204065, Note_off_c, 13, 47, 64
14, 204120, Note_on_c, 13, 40, 75
14, 204225, Note_off_c, 13, 40, 64
14, 204280, Note_on_c, 13, 52, 75
14, 204385, Note_off_c, 13, 52, 64
14, 204440, Note_on_c, 13, 47, 75
14, 204545, Note_off_c, 13, 47, 64
14, 204600, Note_on_c, 13, 56, 75
14, 204705, Note_off_c, 13, 56, 64
14, 204760, Note_on_c, 13, 52, 75
14, 204865, Note_off_c, 13, 52, 64
14, 204920, Note_on_c, 13, 47, 75
14, 205025, Note_off_c, 13, 47, 64
14, 205080, Note_on_c, 13, 40, 75
14, 205185, Note_off_c, 13, 40, 64
14, 205240, Note_on_c, 13, 52, 75
14, 205345, Note_off_c, 13, 52, 64
14, 205400, Note_on_c, 13, 47, 75
14, 205505, Note_off_c, 13, 47, 64
14, 205560, Note_on_c, 13, 56, 75
14, 205665, Note_off_c, 13, 56, 64
14, 205720, Note_on_c, 13, 52, 75
14, 205825, Note_off_c, 13, 52, 64
14, 205880, Note_on_c, 13, 47, 75
14, 205985, Note_off_c, 13, 47, 64
14, 206040, Note_on_c, 13, 40, 75
14, 206145, Note_off_c, 13, 40, 64
14, 206200, Note_on_c, 13, 52, 75
14, 206305, Note_off_c, 13, 52, 64
14, 206360, Note_on_c, 13, 47, 75
14, 206465, Note_off_c, 13, 47, 64
14, 206520, Note_on_c, 13, 56, 75
14, 206625, Note_off_c, 13, 56, 64
14, 206680, Note_on_c, 13, 52, 75
14, 206785, Note_off_c, 13, 52, 64
14, 206840, Note_on_c, 13, 47, 75
14, 206945, Note_off_c, 13, 47, 64
14, 207000, Note_on_c, 13, 40, 75
14, 207105, Note_off_c, 13, 40, 64
14, 207160, Note_on_c, 13, 52, 75
14, 207265, Note_off_c, 13, 52, 64
14, 207320, Note_on_c, 13, 47, 75
14, 207425, Note_off_c, 13, 47, 64
14, 207480, Note_on_c, 13, 56, 75
14, 207585, Note_off_c, 13, 56, 64
14, 207640, Note_on_c, 13, 52, 75
14, 207745, Note_off_c, 13, 52, 64
14, 207800, Note_on_c, 13, 47, 75
14, 207905, Note_off_c, 13, 47, 64
14, 207960, Note_on_c, 13, 40, 75
14, 208065, Note_off_c, 13, 40, 64
14, 208120, Note_on_c, 13, 52, 75
14, 208225, Note_off_c, 13, 52, 64
14, 208280, Note_on_c, 13, 47, 75
14, 208385, Note_off_c, 13, 47, 64
14, 208440, Note_on_c, 13, 56, 75
14, 208545, Note_off_c, 13, 56, 64
14, 208600, Note_on_c, 13, 52, 75
14, 208705, Note_off_c, 13, 52, 64
14, 208760, Note_on_c, 13, 47, 75
14, 208865, Note_off_c, 13, 47, 64
14, 208920, Note_on_c, 13, 40, 75
14, 209025, Note_off_c, 13, 40, 64
14, 209080, Note_on_c, 13, 52, 75
14, 209185, Note_off_c, 13, 52, 64
14, 209240, Note_on_c, 13, 47, 76
14, 209345, Note_off_c, 13, 47, 64
14, 209400, Note_on_c, 13, 56, 77
14, 209505, Note_off_c, 13, 56, 64
14, 209560, Note_on_c, 13, 52, 78
14, 209665, Note_off_c, 13, 52, 64
14, 209720, Note_on_c, 13, 47, 79
14, 209825, Note_off_c, 13, 47, 64
14, 209880, Note_on_c, 13, 40, 80
14, 209985, Note_off_c, 13, 40, 64
14, 210040, Note_on_c, 13, 52, 81
14, 210145, Note_off_c, 13, 52, 64
14, 210200, Note_on_c, 13, 47, 82
14, 210305, Note_off_c, 13, 47, 64
14, 210360, Note_on_c, 13, 56, 83
14, 210465, Note_off_c, 13, 56, 64
14, 210520, Note_on_c, 13, 52, 84
14, 210625, Note_off_c, 13, 52, 64
14, 210680, Note_on_c, 13, 47, 85
14, 210785, Note_off_c, 13, 47, 64
14, 210840, Note_on_c, 13, 40, 86
14, 210945, Note_off_c, 13, 40, 64
14, 211000, Note_on_c, 13, 52, 87
14, 211105, Note_off_c, 13, 52, 64
14, 211160, Note_on_c, 13, 47, 88
14, 211265, Note_off_c, 13, 47, 64
14, 211320, Note_on_c, 13, 56, 89
14, 211425, Note_off_c, 13, 56, 64
14, 211480, Note_on_c, 13, 52, 90
14, 211585, Note_off_c, 13, 52, 64
14, 211640, Note_on_c, 13, 47, 91
14, 211745, Note_off_c, 13, 47, 64
14, 211800, Note_on_c, 13, 52, 92
14, 211880, Note_off_c, 13, 52, 64
14, 212040, Note_on_c, 13, 47, 92
14, 212160, Note_off_c, 13, 47, 64
14, 212160, Note_on_c, 13, 45, 92
14, 212280, Note_off_c, 13, 45, 64
14, 212280, Note_on_c, 13, 44, 92
14, 212360, Note_off_c, 13, 44, 64
14, 212520, Note_on_c, 13, 40, 92
14, 212600, Note_off_c, 13, 40, 64
14, 212760, Note_on_c, 13, 52, 92
14, 212840, Note_off_c, 13, 52, 64
14, 213000, Note_on_c, 13, 47, 92
14, 213120, Note_off_c, 13, 47, 64
14, 213120, Note_on_c, 13, 45, 92
14, 213240, Note_off_c, 13, 45, 64
14, 213240, Note_on_c, 13, 44, 92
14, 213320, Note_off_c, 13, 44, 64
14, 213480, Note_on_c, 13, 40, 92
14, 213560, Note_off_c, 13, 40, 64
14, 213720, Note_on_c, 13, 52, 92
14, 213800, Note_off_c, 13, 52, 64
14, 213960, Note_on_c, 13, 47, 92
14, 214080, Note_off_c, 13, 47, 64
14, 214080, Note_on_c, 13, 45, 92
14, 214200, Note_off_c, 13, 45, 64
14, 214200, Note_on_c, 13, 44, 92
14, 214280, Note_off_c, 13, 44, 64
14, 214440, Note_on_c, 13, 40, 92
14, 214520, Note_off_c, 13, 40, 64
14, 214680, Note_on_c, 13, 52, 92
14, 214760, Note_off_c, 13, 52, 64
14, 214920, Note_on_c, 13, 47, 92
14, 215040, Note_off_c, 13, 47, 64
14, 215040, Note_on_c, 13, 45, 92
14, 215160, Note_off_c, 13, 45, 64
14, 215160, Note_on_c, 13, 44, 92
14, 215240, Note_off_c, 13, 44, 64
14, 215400, Note_on_c, 13, 40, 92
14, 215480, Note_off_c, 13, 40, 64
14, 215640, Note_on_c, 13, 52, 92
14, 215720, Note_off_c, 13, 52, 64
14, 215880, Note_on_c, 13, 47, 92
14, 216000, Note_off_c, 13, 47, 64
14, 216000, Note_on_c, 13, 45, 92
14, 216120, Note_off_c, 13, 45, 64
14, 216120, Note_on_c, 13, 44, 92
14, 216200, Note_off_c, 13, 44, 64
14, 216360, Note_on_c, 13, 40, 92
14, 216440, Note_off_c, 13, 40, 64
14, 217560, Note_on_c, 13, 52, 92
14, 217640, Note_off_c, 13, 52, 64
14, 217800, Note_on_c, 13, 47, 92
14, 217920, Note_off_c, 13, 47, 64
14, 217920, Note_on_c, 13, 45, 92
14, 218040, Note_off_c, 13, 45, 64
14, 218040, Note_on_c, 13, 44, 92
14, 218120, Note_off_c, 13, 44, 64
14, 218280, Note_on_c, 13, 40, 92
14, 218360, Note_off_c, 13, 40, 64
14, 231000, Note_on_c, 13, 45, 60
14, 232080, Note_off_c, 13, 45, 64
14, 232080, Note_on_c, 13, 44, 60
14, 232200, Note_off_c, 13, 44, 64
14, 232200, Note_on_c, 13, 42, 60
14, 232320, Note_off_c, 13, 42, 64
14, 232320, Note_on_c, 13, 40, 60
14, 232435, Note_off_c, 13, 40, 64
14, 232440, Note_on_c, 13, 40, 60
14, 232520, Note_off_c, 13, 40, 64
14, 232680, Note_on_c, 13, 40, 60
14, 232760, Note_off_c, 13, 40, 64
14, 232920, Note_on_c, 13, 45, 60
14, 234720, Note_off_c, 13, 45, 64
14, 234840, Note_on_c, 13, 38, 60
14, 235320, Note_off_c, 13, 38, 64
14, 235320, Note_on_c, 13, 45, 60
14, 235720, Note_off_c, 13, 45, 64
14, 235800, Note_on_c, 13, 40, 60
14, 236640, Note_off_c, 13, 40, 64
14, 236760, Note_on_c, 13, 45, 60
14, 237240, Note_off_c, 13, 45, 64
14, 237240, Note_on_c, 13, 49, 60
14, 237720, Note_off_c, 13, 49, 64
14, 237720, Note_on_c, 13, 47, 60
14, 238440, Note_off_c, 13, 47, 64
14, 238440, Note_on_c, 13, 45, 60
14, 238675, Note_off_c, 13, 45, 64
14, 238680, Note_on_c, 13, 50, 60
14, 239160, Note_off_c, 13, 50, 64
14, 239160, Note_on_c, 13, 49, 60
14, 239640, Note_off_c, 13, 49, 64
14, 239640, Note_on_c, 13, 47, 60
14, 239720, Note_off_c, 13, 47, 64
14, 239880, Note_on_c, 13, 47, 60
14, 240000, Note_off_c, 13, 47, 64
14, 240000, Note_on_c, 13, 49, 60
14, 240120, Note_off_c, 13, 49, 64
14, 240120, Note_on_c, 13, 50, 60
14, 240360, Note_off_c, 13, 50, 64
14, 240360, Note_on_c, 13, 47, 60
14, 240595, Note_off_c, 13, 47, 64
14, 240600, Note_on_c, 13, 49, 60
14, 241080, Note_off_c, 13, 49, 64
14, 241080, Note_on_c, 13, 52, 60
14, 241560, Note_off_c, 13, 52, 64
14, 241560, Note_on_c, 13, 50, 60
14, 242280, Note_off_c, 13, 50, 64
14, 242280, Note_on_c, 13, 49, 60
14, 242515, Note_off_c, 13, 49, 64
14, 242520, Note_on_c, 13, 54, 60
14, 243000, Note_off_c, 13, 54, 64
14, 243000, Note_on_c, 13, 52, 60
14, 243480, Note_off_c, 13, 52, 64
14, 243480, Note_on_c, 13, 50, 60
14, 243560, Note_off_c, 13, 50, 64
14, 243720, Note_on_c, 13, 50, 60
14, 243840, Note_off_c, 13, 50, 64
14, 243840, Note_on_c, 13, 52, 60
14, 243960, Note_off_c, 13, 52, 64
14, 243960, Note_on_c, 13, 54, 60
14, 244200, Note_off_c, 13, 54, 64
14, 244200, Note_on_c, 13, 50, 60
14, 244435, Note_off_c, 13, 50, 64
14, 244440, Program_c, 13, 48
14, 244440, Note_on_c, 13, 50, 60
14, 248280, Note_off_c, 13, 50, 64
14, 248280, Note_on_c, 13, 50, 45
14, 250080, Note_off_c, 13, 50, 64
14, 250200, Note_on_c, 13, 43, 68
14, 252000, Note_off_c, 13, 43, 64
14, 252120, Program_c, 13, 48
14, 252120, Note_on_c, 13, 48, 92
14, 252600, Note_off_c, 13, 48, 64
14, 252600, Note_on_c, 13, 52, 92
14, 253000, Note_off_c, 13, 52, 64
14, 253080, Note_on_c, 13, 50, 92
14, 253800, Note_off_c, 13, 50, 64
14, 253800, Note_on_c, 13, 48, 92
14, 254035, Note_off_c, 13, 48, 64
14, 254040, Note_on_c, 13, 53, 92
14, 254520, Note_off_c, 13, 53, 64
14, 254520, Note_on_c, 13, 52, 92
14, 255000, Note_off_c, 13, 52, 64
14, 255000, Note_on_c, 13, 50, 92
14, 255080, Note_off_c, 13, 50, 64
14, 255240, Note_on_c, 13, 50, 92
14, 255360, Note_off_c, 13, 50, 64
14, 255360, Note_on_c, 13, 52, 92
14, 255480, Note_off_c, 13, 52, 64
14, 255480, Note_on_c, 13, 53, 92
14, 255560, Note_off_c, 13, 53, 64
14, 255720, Note_on_c, 13, 50, 92
14, 255800, Note_off_c, 13, 50, 64
14, 255960, Note_on_c, 13, 52, 92
14, 256440, Note_off_c, 13, 52, 64
14, 256440, Note_on_c, 13, 55, 92
14, 256840, Note_off_c, 13, 55, 64
14, 256920, Note_on_c, 13, 53, 92
14, 257640, Note_off_c, 13, 53, 64
14, 257640, Note_on_c, 13, 52, 92
14, 257875, Note_off_c, 13, 52, 64
14, 257880, Note_on_c, 13, 57, 92
14, 258360, Note_off_c, 13, 57, 64
14, 258360, Note_on_c, 13, 55, 92
14, 258840, Note_off_c, 13, 55, 64
14, 258840, Note_on_c, 13, 53, 92
14, 258920, Note_off_c, 13, 53, 64
14, 259080, Note_on_c, 13, 53, 92
14, 259200, Note_off_c, 13, 53, 64
14, 259200, Note_on_c, 13, 55, 92
14, 259320, Note_off_c, 13, 55, 64
14, 259320, Note_on_c, 13, 57, 92
14, 259400, Note_off_c, 13, 57, 64
14, 259560, Note_on_c, 13, 53, 92
14, 259640, Note_off_c, 13, 53, 64
14, 259800, Note_on_c, 13, 58, 92
14, 260280, Note_off_c, 13, 58, 64
14, 260280, Note_on_c, 13, 57, 92
14, 260760, Note_off_c, 13, 57, 64
14, 260760, Note_on_c, 13, 55, 92
14, 260840, Note_off_c, 13, 55, 64
14, 261000, Note_on_c, 13, 52, 92
14, 261120, Note_off_c, 13, 52, 64
14, 261120, Note_on_c, 13, 53, 92
14, 261240, Note_off_c, 13, 53, 64
14, 261240, Note_on_c, 13, 55, 92
14, 261320, Note_off_c, 13, 55, 64
14, 261480, Note_on_c, 13, 57, 92
14, 261560, Note_off_c, 13, 57, 64
14, 261720, Note_on_c, 13, 58, 92
14, 262200, Note_off_c, 13, 58, 64
14, 262200, Note_on_c, 13, 57, 92
14, 262680, Note_off_c, 13, 57, 64
14, 262680, Note_on_c, 13, 55, 92
14, 262760, Note_off_c, 13, 55, 64
14, 262920, Note_on_c, 13, 52, 92
14, 263040, Note_off_c, 13, 52, 64
14, 263040, Note_on_c, 13, 53, 92
14, 263160, Note_off_c, 13, 53, 64
14, 263160, Note_on_c, 13, 55, 92
14, 263240, Note_off_c, 13, 55, 64
14, 263400, Note_on_c, 13, 57, 92
14, 263480, Note_off_c, 13, 57, 64
14, 263640, Note_on_c, 13, 46, 75
14, 265795, Note_off_c, 13, 46, 64
14, 265800, Note_on_c, 13, 41, 92
14, 265880, Note_off_c, 13, 41, 64
14, 265880, Note_on_c, 13, 43, 92
14, 265960, Note_off_c, 13, 43, 64
14, 265960, Note_on_c, 13, 45, 92
14, 266040, Note_off_c, 13, 45, 64
14, 266040, Note_on_c, 13, 46, 92
14, 266120, Note_off_c, 13, 46, 64
14, 266280, Note_on_c, 13, 48, 92
14, 266360, Note_off_c, 13, 48, 64
14, 266520, Note_on_c, 13, 50, 92
14, 266755, Note_off_c, 13, 50, 64
14, 267000, Note_on_c, 13, 46, 45
14, 267480, Note_off_c, 13, 46, 64
14, 267480, Note_on_c, 13, 41, 45
14, 270240, Note_off_c, 13, 41, 64
14, 270360, Note_on_c, 13, 48, 45
14, 271200, Note_off_c, 13, 48, 64
14, 277080, Note_on_c, 13, 53, 60
14, 277560, Note_off_c, 13, 53, 64
14, 277560, Note_on_c, 13, 50, 60
14, 278040, Note_off_c, 13, 50, 64
14, 278040, Note_on_c, 13, 52, 60
14, 278760, Note_off_c, 13, 52, 64
14, 278760, Note_on_c, 13, 48, 60
14, 278995, Note_off_c, 13, 48, 64
14, 279000, Note_on_c, 13, 53, 60
14, 279480, Note_off_c, 13, 53, 64
14, 279480, Note_on_c, 13, 50, 60
14, 279960, Note_off_c, 13, 50, 64
14, 279960, Note_on_c, 13, 52, 60
14, 280680, Note_off_c, 13, 52, 64
14, 280680, Note_on_c, 13, 48, 60
14, 280915, Note_off_c, 13, 48, 64
14, 280920, Note_on_c, 13, 53, 60
14, 281320, Note_off_c, 13, 53, 64
14, 282840, Program_c, 13, 45
14, 282840, Note_on_c, 13, 46, 60
14, 283240, Note_off_c, 13, 46, 64
14, 283320, Note_on_c, 13, 53, 60
14, 283720, Note_off_c, 13, 53, 64
14, 283800, Note_on_c, 13, 48, 60
14, 284200, Note_off_c, 13, 48, 64
14, 284760, Note_on_c, 13, 53, 60
14, 285160, Note_off_c, 13, 53, 64
14, 286680, Note_on_c, 13, 46, 60
14, 287080, Note_off_c, 13, 46, 64
14, 287160, Note_on_c, 13, 53, 60
14, 287560, Note_off_c, 13, 53, 64
14, 287640, Note_on_c, 13, 48, 60
14, 288040, Note_off_c, 13, 48, 64
14, 291480, Program_c, 13, 48
14, 291480, Note_on_c, 13, 48, 45
14, 292120, Note_off_c, 13, 48, 64
14, 292200, Note_on_c, 13, 48, 45
14, 292435, Note_off_c, 13, 48, 64
14, 292440, Note_on_c, 13, 48, 45
14, 293080, Note_off_c, 13, 48, 64
14, 293160, Note_on_c, 13, 48, 45
14, 293395, Note_off_c, 13, 48, 64
14, 293400, Note_on_c, 13, 48, 45
14, 294040, Note_off_c, 13, 48, 64
14, 294120, Note_on_c, 13, 48, 45
14, 294355, Note_off_c, 13, 48, 64
14, 294360, Note_on_c, 13, 48, 45
14, 295000, Note_off_c, 13, 48, 64
14, 295080, Note_on_c, 13, 48, 45
14, 295315, Note_off_c, 13, 48, 64
14, 295320, Note_on_c, 13, 48, 45
14, 295425, Note_off_c, 13, 48, 64
14, 295480, Note_on_c, 13, 60, 46
14, 295585, Note_off_c, 13, 60, 64
14, 295640, Note_on_c, 13, 58, 48
14, 295745, Note_off_c, 13, 58, 64
14, 295800, Note_on_c, 13, 57, 50
14, 295905, Note_off_c, 13, 57, 64
14, 295960, Note_on_c, 13, 55, 52
14, 296065, Note_off_c, 13, 55, 64
14, 296120, Note_on_c, 13, 53, 54
14, 296225, Note_off_c, 13, 53, 64
14, 296280, Note_on_c, 13, 52, 56
14, 296385, Note_off_c, 13, 52, 64
14, 296440, Note_on_c, 13, 57, 58
14, 296545, Note_off_c, 13, 57, 64
14, 296600, Note_on_c, 13, 55, 60
14, 296705, Note_off_c, 13, 55, 64
14, 296760, Note_on_c, 13, 53, 62
14, 296865, Note_off_c, 13, 53, 64
14, 296920, Note_on_c, 13, 52, 64
14, 297025, Note_off_c, 13, 52, 64
14, 297080, Note_on_c, 13, 50, 66
14, 297185, Note_off_c, 13, 50, 64
14, 297240, Note_on_c, 13, 48, 68
14, 297345, Note_off_c, 13, 48, 64
14, 297400, Note_on_c, 13, 65, 70
14, 297505, Note_off_c, 13, 65, 64
14, 297560, Note_on_c, 13, 64, 72
14, 297665, Note_off_c, 13, 64, 64
14, 297720, Note_on_c, 13, 62, 74
14, 297825, Note_off_c, 13, 62, 64
14, 297880, Note_on_c, 13, 60, 76
14, 297985, Note_off_c, 13, 60, 64
14, 298040, Note_on_c, 13, 58, 78
14, 298145, Note_off_c, 13, 58, 64
14, 298200, Note_on_c, 13, 57, 80
14, 298305, Note_off_c, 13, 57, 64
14, 298360, Note_on_c, 13, 62, 82
14, 298465, Note_off_c, 13, 62, 64
14, 298520, Note_on_c, 13, 60, 84
14, 298625, Note_off_c, 13, 60, 64
14, 298680, Note_on_c, 13, 58, 86
14, 298785, Note_off_c, 13, 58, 64
14, 298840, Note_on_c, 13, 57, 88
14, 298945, Note_off_c, 13, 57, 64
14, 299000, Note_on_c, 13, 55, 90
14, 299105, Note_off_c, 13, 55, 64
14, 299160, Note_on_c, 13, 41, 92
14, 299160, Note_on_c, 13, 48, 92
14, 299395, Note_off_c, 13, 48, 64
14, 299395, Note_off_c, 13, 41, 64
14, 299400, Note_on_c, 13, 41, 92
14, 299400, Note_on_c, 13, 48, 92
14, 299635, Note_off_c, 13, 48, 64
14, 299635, Note_off_c, 13, 41, 64
14, 299640, Note_on_c, 13, 41, 92
14, 299640, Note_on_c, 13, 48, 92
14, 299875, Note_off_c, 13, 48, 64
14, 299875, Note_off_c, 13, 41, 64
14, 299880, Note_on_c, 13, 41, 92
14, 299880, Note_on_c, 13, 48, 92
14, 300115, Note_off_c, 13, 48, 64
14, 300115, Note_off_c, 13, 41, 64
14, 300120, Note_on_c, 13, 41, 92
14, 300120, Note_on_c, 13, 48, 92
14, 300355, Note_off_c, 13, 48, 64
14, 300355, Note_off_c, 13, 41, 64
14, 300360, Note_on_c, 13, 41, 92
14, 300360, Note_on_c, 13, 48, 92
14, 300595, Note_off_c, 13, 48, 64
14, 300595, Note_off_c, 13, 41, 64
14, 300600, Note_on_c, 13, 41, 92
14, 300600, Note_on_c, 13, 48, 92
14, 300835, Note_off_c, 13, 48, 64
14, 300835, Note_off_c, 13, 41, 64
14, 300840, Note_on_c, 13, 41, 92
14, 300840, Note_on_c, 13, 48, 92
14, 301075, Note_off_c, 13, 48, 64
14, 301075, Note_off_c, 13, 41, 64
14, 301080, Note_on_c, 13, 41, 92
14, 301080, Note_on_c, 13, 48, 92
14, 301315, Note_off_c, 13, 48, 64
14, 301315, Note_off_c, 13, 41, 64
14, 301320, Note_on_c, 13, 41, 92
14, 301320, Note_on_c, 13, 48, 92
14, 301555, Note_off_c, 13, 48, 64
14, 301555, Note_off_c, 13, 41, 64
14, 301560, Note_on_c, 13, 41, 92
14, 301560, Note_on_c, 13, 48, 92
14, 301795, Note_off_c, 13, 48, 64
14, 301795, Note_off_c, 13, 41, 64
14, 301800, Note_on_c, 13, 41, 92
14, 301800, Note_on_c, 13, 48, 92
14, 302035, Note_off_c, 13, 48, 64
14, 302035, Note_off_c, 13, 41, 64
14, 302040, Note_on_c, 13, 41, 92
14, 302040, Note_on_c, 13, 48, 92
14, 302275, Note_off_c, 13, 48, 64
14, 302275, Note_off_c, 13, 41, 64
14, 302280, Note_on_c, 13, 41, 92
14, 302280, Note_on_c, 13, 48, 92
14, 302515, Note_off_c, 13, 48, 64
14, 302515, Note_off_c, 13, 41, 64
14, 302520, Note_on_c, 13, 41, 92
14, 302520, Note_on_c, 13, 48, 92
14, 302755, Note_off_c, 13, 48, 64
14, 302755, Note_off_c, 13, 41, 64
14, 302760, Note_on_c, 13, 41, 92
14, 302760, Note_on_c, 13, 48, 92
14, 302995, Note_off_c, 13, 48, 64
14, 302995, Note_off_c, 13, 41, 64
14, 303000, Note_on_c, 13, 41, 92
14, 303000, Note_on_c, 13, 48, 92
14, 303235, Note_off_c, 13, 48, 64
14, 303235, Note_off_c, 13, 41, 64
14, 303240, Note_on_c, 13, 41, 92
14, 303240, Note_on_c, 13, 48, 92
14, 303475, Note_off_c, 13, 48, 64
14, 303475, Note_off_c, 13, 41, 64
14, 303480, Note_on_c, 13, 41, 92
14, 303480, Note_on_c, 13, 48, 92
14, 303715, Note_off_c, 13, 48, 64
14, 303715, Note_off_c, 13, 41, 64
14, 303720, Note_on_c, 13, 41, 92
14, 303720, Note_on_c, 13, 48, 92
14, 303955, Note_off_c, 13, 48, 64
14, 303955, Note_off_c, 13, 41, 64
14, 303960, Note_on_c, 13, 41, 92
14, 303960, Note_on_c, 13, 48, 92
14, 304195, Note_off_c, 13, 48, 64
14, 304195, Note_off_c, 13, 41, 64
14, 304200, Note_on_c, 13, 41, 92
14, 304200, Note_on_c, 13, 48, 92
14, 304435, Note_off_c, 13, 48, 64
14, 304435, Note_off_c, 13, 41, 64
14, 304440, Note_on_c, 13, 41, 92
14, 304440, Note_on_c, 13, 48, 92
14, 304675, Note_off_c, 13, 48, 64
14, 304675, Note_off_c, 13, 41, 64
14, 304680, Note_on_c, 13, 41, 92
14, 304680, Note_on_c, 13, 48, 92
14, 304915, Note_off_c, 13, 48, 64
14, 304915, Note_off_c, 13, 41, 64
14, 304920, Note_on_c, 13, 41, 92
14, 304920, Note_on_c, 13, 48, 92
14, 305155, Note_off_c, 13, 48, 64
14, 305155, Note_off_c, 13, 41, 64
14, 305160, Note_on_c, 13, 41, 92
14, 305160, Note_on_c, 13, 48, 92
14, 305395, Note_off_c, 13, 48, 64
14, 305395, Note_off_c, 13, 41, 64
14, 305400, Note_on_c, 13, 41, 92
14, 305400, Note_on_c, 13, 48, 92
14, 305635, Note_off_c, 13, 48, 64
14, 305635, Note_off_c, 13, 41, 64
14, 305640, Note_on_c, 13, 41, 92
14, 305640, Note_on_c, 13, 48, 92
14, 305875, Note_off_c, 13, 48, 64
14, 305875, Note_off_c, 13, 41, 64
14, 305880, Note_on_c, 13, 41, 92
14, 305880, Note_on_c, 13, 48, 92
14, 306115, Note_off_c, 13, 48, 64
14, 306115, Note_off_c, 13, 41, 64
14, 306120, Note_on_c, 13, 41, 92
14, 306120, Note_on_c, 13, 48, 92
14, 306355, Note_off_c, 13, 48, 64
14, 306355, Note_off_c, 13, 41, 64
14, 306360, Note_on_c, 13, 41, 92
14, 306360, Note_on_c, 13, 48, 92
14, 306595, Note_off_c, 13, 48, 64
14, 306595, Note_off_c, 13, 41, 64
14, 306600, Note_on_c, 13, 41, 92
14, 306600, Note_on_c, 13, 48, 92
14, 306835, Note_off_c, 13, 48, 64
14, 306835, Note_off_c, 13, 41, 64
14, 306840, Note_on_c, 13, 41, 92
14, 306840, Note_on_c, 13, 48, 92
14, 307075, Note_off_c, 13, 48, 64
14, 307075, Note_off_c, 13, 41, 64
14, 307080, Note_on_c, 13, 41, 92
14, 307080, Note_on_c, 13, 48, 92
14, 307315, Note_off_c, 13, 48, 64
14, 307315, Note_off_c, 13, 41, 64
14, 307320, Note_on_c, 13, 41, 92
14, 307320, Note_on_c, 13, 48, 92
14, 307555, Note_off_c, 13, 48, 64
14, 307555, Note_off_c, 13, 41, 64
14, 307560, Note_on_c, 13, 41, 92
14, 307560, Note_on_c, 13, 48, 92
14, 307795, Note_off_c, 13, 48, 64
14, 307795, Note_off_c, 13, 41, 64
14, 307800, Note_on_c, 13, 41, 92
14, 307800, Note_on_c, 13, 48, 92
14, 308035, Note_off_c, 13, 48, 64
14, 308035, Note_off_c, 13, 41, 64
14, 308040, Note_on_c, 13, 41, 92
14, 308040, Note_on_c, 13, 48, 92
14, 308275, Note_off_c, 13, 48, 64
14, 308275, Note_off_c, 13, 41, 64
14, 308280, Note_on_c, 13, 41, 92
14, 308280, Note_on_c, 13, 48, 92
14, 308515, Note_off_c, 13, 48, 64
14, 308515, Note_off_c, 13, 41, 64
14, 308520, Note_on_c, 13, 41, 92
14, 308520, Note_on_c, 13, 48, 92
14, 308755, Note_off_c, 13, 48, 64
14, 308755, Note_off_c, 13, 41, 64
14, 308760, Note_on_c, 13, 41, 92
14, 308760, Note_on_c, 13, 48, 92
14, 308995, Note_off_c, 13, 48, 64
14, 308995, Note_off_c, 13, 41, 64
14, 309000, Note_on_c, 13, 41, 92
14, 309000, Note_on_c, 13, 48, 92
14, 309235, Note_off_c, 13, 48, 64
14, 309235, Note_off_c, 13, 41, 64
14, 309240, Note_on_c, 13, 41, 92
14, 309240, Note_on_c, 13, 48, 92
14, 309475, Note_off_c, 13, 48, 64
14, 309475, Note_off_c, 13, 41, 64
14, 309480, Note_on_c, 13, 41, 92
14, 309480, Note_on_c, 13, 48, 92
14, 309715, Note_off_c, 13, 48, 64
14, 309715, Note_off_c, 13, 41, 64
14, 309720, Note_on_c, 13, 41, 92
14, 309720, Note_on_c, 13, 48, 92
14, 309955, Note_off_c, 13, 48, 64
14, 309955, Note_off_c, 13, 41, 64
14, 309960, Note_on_c, 13, 41, 92
14, 309960, Note_on_c, 13, 48, 92
14, 310195, Note_off_c, 13, 48, 64
14, 310195, Note_off_c, 13, 41, 64
14, 310200, Note_on_c, 13, 41, 92
14, 310200, Note_on_c, 13, 48, 92
14, 310435, Note_off_c, 13, 48, 64
14, 310435, Note_off_c, 13, 41, 64
14, 310440, Note_on_c, 13, 41, 92
14, 310440, Note_on_c, 13, 48, 92
14, 310675, Note_off_c, 13, 48, 64
14, 310675, Note_off_c, 13, 41, 64
14, 310680, Note_on_c, 13, 41, 92
14, 310680, Note_on_c, 13, 48, 92
14, 310915, Note_off_c, 13, 48, 64
14, 310915, Note_off_c, 13, 41, 64
14, 310920, Note_on_c, 13, 41, 92
14, 310920, Note_on_c, 13, 48, 92
14, 311155, Note_off_c, 13, 48, 64
14, 311155, Note_off_c, 13, 41, 64
14, 311160, Note_on_c, 13, 41, 92
14, 311160, Note_on_c, 13, 48, 92
14, 311395, Note_off_c, 13, 48, 64
14, 311395, Note_off_c, 13, 41, 64
14, 311400, Note_on_c, 13, 41, 92
14, 311400, Note_on_c, 13, 48, 92
14, 311635, Note_off_c, 13, 48, 64
14, 311635, Note_off_c, 13, 41, 64
14, 311640, Note_on_c, 13, 41, 92
14, 311640, Note_on_c, 13, 48, 92
14, 311875, Note_off_c, 13, 48, 64
14, 311875, Note_off_c, 13, 41, 64
14, 311880, Note_on_c, 13, 41, 92
14, 311880, Note_on_c, 13, 48, 92
14, 312115, Note_off_c, 13, 48, 64
14, 312115, Note_off_c, 13, 41, 64
14, 312120, Note_on_c, 13, 41, 92
14, 312120, Note_on_c, 13, 48, 92
14, 312355, Note_off_c, 13, 48, 64
14, 312355, Note_off_c, 13, 41, 64
14, 312360, Note_on_c, 13, 41, 92
14, 312360, Note_on_c, 13, 48, 92
14, 312595, Note_off_c, 13, 48, 64
14, 312595, Note_off_c, 13, 41, 64
14, 312600, Note_on_c, 13, 41, 92
14, 312600, Note_on_c, 13, 48, 92
14, 312835, Note_off_c, 13, 48, 64
14, 312835, Note_off_c, 13, 41, 64
14, 312840, Note_on_c, 13, 41, 92
14, 312840, Note_on_c, 13, 48, 92
14, 313075, Note_off_c, 13, 48, 64
14, 313075, Note_off_c, 13, 41, 64
14, 313080, Note_on_c, 13, 41, 92
14, 313080, Note_on_c, 13, 48, 92
14, 313315, Note_off_c, 13, 48, 64
14, 313315, Note_off_c, 13, 41, 64
14, 313320, Note_on_c, 13, 41, 92
14, 313320, Note_on_c, 13, 48, 92
14, 313555, Note_off_c, 13, 48, 64
14, 313555, Note_off_c, 13, 41, 64
14, 313560, Note_on_c, 13, 41, 92
14, 313560, Note_on_c, 13, 48, 92
14, 313795, Note_off_c, 13, 48, 64
14, 313795, Note_off_c, 13, 41, 64
14, 313800, Note_on_c, 13, 41, 92
14, 313800, Note_on_c, 13, 48, 92
14, 314035, Note_off_c, 13, 48, 64
14, 314035, Note_off_c, 13, 41, 64
14, 314040, Note_on_c, 13, 41, 92
14, 314040, Note_on_c, 13, 48, 92
14, 314275, Note_off_c, 13, 48, 64
14, 314275, Note_off_c, 13, 41, 64
14, 314280, Note_on_c, 13, 41, 92
14, 314280, Note_on_c, 13, 48, 92
14, 314515, Note_off_c, 13, 48, 64
14, 314515, Note_off_c, 13, 41, 64
14, 314520, Note_on_c, 13, 41, 75
14, 314755, Note_off_c, 13, 41, 64
14, 318360, Program_c, 13, 45
14, 318360, Note_on_c, 13, 50, 30
14, 318760, Note_off_c, 13, 50, 64
14, 322200, Note_on_c, 13, 48, 30
14, 322600, Note_off_c, 13, 48, 64
14, 324120, Note_on_c, 13, 47, 30
14, 324520, Note_off_c, 13, 47, 64
14, 326040, Note_on_c, 13, 46, 30
14, 326440, Note_off_c, 13, 46, 64
14, 330840, Program_c, 13, 48
14, 331080, Note_on_c, 13, 50, 60
14, 331320, Note_off_c, 13, 50, 64
14, 331320, Note_on_c, 13, 48, 60
14, 331400, Note_off_c, 13, 48, 64
14, 331560, Note_on_c, 13, 47, 60
14, 331640, Note_off_c, 13, 47, 64
14, 331800, Note_on_c, 13, 48, 60
14, 333600, Note_off_c, 13, 48, 64
14, 333720, Note_on_c, 13, 53, 60
14, 335520, Note_off_c, 13, 53, 64
14, 335640, Note_on_c, 13, 52, 60
14, 336120, Note_off_c, 13, 52, 64
14, 336120, Note_on_c, 13, 52, 60
14, 336600, Note_off_c, 13, 52, 64
14, 336600, Note_on_c, 13, 52, 60
14, 337080, Note_off_c, 13, 52, 64
14, 337080, Note_on_c, 13, 55, 60
14, 337320, Note_off_c, 13, 55, 64
14, 337320, Note_on_c, 13, 52, 60
14, 337555, Note_off_c, 13, 52, 64
14, 337560, Note_on_c, 13, 53, 60
14, 338040, Note_off_c, 13, 53, 64
14, 338040, Note_on_c, 13, 53, 60
14, 338520, Note_off_c, 13, 53, 64
14, 338520, Note_on_c, 13, 53, 60
14, 339000, Note_off_c, 13, 53, 64
14, 339000, Note_on_c, 13, 57, 60
14, 339240, Note_off_c, 13, 57, 64
14, 339240, Note_on_c, 13, 53, 60
14, 339475, Note_off_c, 13, 53, 64
14, 339480, Note_on_c, 13, 60, 60
14, 339720, Note_off_c, 13, 60, 64
14, 339720, Note_on_c, 13, 58, 60
14, 339960, Note_off_c, 13, 58, 64
14, 339960, Note_on_c, 13, 55, 60
14, 340200, Note_off_c, 13, 55, 64
14, 340200, Note_on_c, 13, 52, 60
14, 340440, Note_off_c, 13, 52, 64
14, 340440, Note_on_c, 13, 48, 60
14, 340680, Note_off_c, 13, 48, 64
14, 340680, Note_on_c, 13, 58, 60
14, 340920, Note_off_c, 13, 58, 64
14, 340920, Note_on_c, 13, 55, 60
14, 341160, Note_off_c, 13, 55, 64
14, 341160, Note_on_c, 13, 48, 60
14, 341395, Note_off_c, 13, 48, 64
14, 341400, Note_on_c, 13, 62, 60
14, 341640, Note_off_c, 13, 62, 64
14, 341640, Note_on_c, 13, 60, 60
14, 341880, Note_off_c, 13, 60, 64
14, 341880, Note_on_c, 13, 57, 60
14, 342120, Note_off_c, 13, 57, 64
14, 342120, Note_on_c, 13, 53, 60
14, 342360, Note_off_c, 13, 53, 64
14, 342360, Note_on_c, 13, 48, 60
14, 342600, Note_off_c, 13, 48, 64
14, 342600, Note_on_c, 13, 57, 60
14, 342840, Note_off_c, 13, 57, 64
14, 342840, Note_on_c, 13, 53, 60
14, 343080, Note_off_c, 13, 53, 64
14, 343080, Note_on_c, 13, 48, 60
14, 343315, Note_off_c, 13, 48, 64
14, 343320, Note_on_c, 13, 60, 60
14, 343560, Note_off_c, 13, 60, 64
14, 343560, Note_on_c, 13, 58, 60
14, 343800, Note_off_c, 13, 58, 64
14, 343800, Note_on_c, 13, 55, 60
14, 344040, Note_off_c, 13, 55, 64
14, 344040, Note_on_c, 13, 52, 60
14, 344280, Note_off_c, 13, 52, 64
14, 344280, Note_on_c, 13, 48, 60
14, 344520, Note_off_c, 13, 48, 64
14, 344520, Note_on_c, 13, 58, 60
14, 344760, Note_off_c, 13, 58, 64
14, 344760, Note_on_c, 13, 55, 60
14, 345000, Note_off_c, 13, 55, 64
14, 345000, Note_on_c, 13, 48, 60
14, 345235, Note_off_c, 13, 48, 64
14, 345240, Note_on_c, 13, 62, 60
14, 345480, Note_off_c, 13, 62, 64
14, 345480, Note_on_c, 13, 60, 60
14, 345720, Note_off_c, 13, 60, 64
14, 345720, Note_on_c, 13, 57, 60
14, 345960, Note_off_c, 13, 57, 64
14, 345960, Note_on_c, 13, 53, 60
14, 346200, Note_off_c, 13, 53, 64
14, 346200, Note_on_c, 13, 48, 60
14, 346440, Note_off_c, 13, 48, 64
14, 346440, Note_on_c, 13, 57, 60
14, 346680, Note_off_c, 13, 57, 64
14, 346680, Note_on_c, 13, 53, 60
14, 346920, Note_off_c, 13, 53, 64
14, 346920, Note_on_c, 13, 48, 60
14, 347155, Note_off_c, 13, 48, 64
14, 347160, Note_on_c, 13, 48, 60
14, 348960, Note_off_c, 13, 48, 64
14, 349080, Note_on_c, 13, 53, 66
14, 350880, Note_off_c, 13, 53, 64
14, 351000, Note_on_c, 13, 52, 72
14, 351480, Note_off_c, 13, 52, 64
14, 351480, Note_on_c, 13, 52, 73
14, 351960, Note_off_c, 13, 52, 64
14, 351960, Note_on_c, 13, 52, 74
14, 352440, Note_off_c, 13, 52, 64
14, 352440, Note_on_c, 13, 55, 75
14, 352680, Note_off_c, 13, 55, 64
14, 352680, Note_on_c, 13, 52, 75
14, 352915, Note_off_c, 13, 52, 64
14, 352920, Note_on_c, 13, 41, 76
14, 353400, Note_off_c, 13, 41, 64
14, 353400, Note_on_c, 13, 41, 78
14, 353880, Note_off_c, 13, 41, 64
14, 353880, Note_on_c, 13, 41, 80
14, 354360, Note_off_c, 13, 41, 64
14, 354360, Note_on_c, 13, 45, 82
14, 354600, Note_off_c, 13, 45, 64
14, 354600, Note_on_c, 13, 41, 83
14, 354835, Note_off_c, 13, 41, 64
14, 354840, Note_on_c, 13, 43, 84
14, 355320, Note_off_c, 13, 43, 64
14, 355320, Note_on_c, 13, 43, 86
14, 355800, Note_off_c, 13, 43, 64
14, 355800, Note_on_c, 13, 43, 88
14, 356280, Note_off_c, 13, 43, 64
14, 356280, Note_on_c, 13, 46, 90
14, 356520, Note_off_c, 13, 46, 64
14, 356520, Note_on_c, 13, 43, 91
14, 356755, Note_off_c, 13, 43, 64
14, 356760, Note_on_c, 13, 53, 92
14, 359520, Note_off_c, 13, 53, 64
14, 359640, Note_on_c, 13, 46, 92
14, 359875, Note_off_c, 13, 46, 64
14, 360720, Note_on_c, 13, 46, 45
14, 361680, Note_off_c, 13, 46, 64
14, 361680, Note_on_c, 13, 53, 45
14, 362640, Note_off_c, 13, 53, 64
14, 362640, Note_on_c, 13, 48, 45
14, 363480, Note_off_c, 13, 48, 64
14, 363600, Note_on_c, 13, 53, 92
14, 366360, Note_off_c, 13, 53, 64
14, 366480, Note_on_c, 13, 46, 92
14, 366715, Note_off_c, 13, 46, 64
14, 367560, Note_on_c, 13, 46, 45
14, 368520, Note_off_c, 13, 46, 64
14, 368520, Note_on_c, 13, 53, 45
14, 369480, Note_off_c, 13, 53, 64
14, 369480, Note_on_c, 13, 48, 45
14, 370320, Note_off_c, 13, 48, 64
14, 370440, Note_on_c, 13, 53, 45
14, 370840, Note_off_c, 13, 53, 64
14, 370920, Note_on_c, 13, 53, 45
14, 371400, Note_off_c, 13, 53, 64
14, 371400, Note_on_c, 13, 46, 51
14, 371800, Note_off_c, 13, 46, 64
14, 371880, Note_on_c, 13, 46, 57
14, 372360, Note_off_c, 13, 46, 64
14, 372360, Note_on_c, 13, 41, 64
14, 372760, Note_off_c, 13, 41, 64
14, 372840, Note_on_c, 13, 41, 71
14, 373320, Note_off_c, 13, 41, 64
14, 373320, Note_on_c, 13, 48, 78
14, 373720, Note_off_c, 13, 48, 64
14, 373800, Note_on_c, 13, 48, 85
14, 374200, Note_off_c, 13, 48, 64
14, 374280, Note_on_c, 13, 41, 92
14, 374435, Note_off_c, 13, 41, 64
14, 374440, Note_on_c, 13, 41, 92
14, 374595, Note_off_c, 13, 41, 64
14, 374600, Note_on_c, 13, 41, 92
14, 374755, Note_off_c, 13, 41, 64
14, 374760, Note_on_c, 13, 41, 92
14, 374915, Note_off_c, 13, 41, 64
14, 374920, Note_on_c, 13, 43, 92
14, 375075, Note_off_c, 13, 43, 64
14, 375080, Note_on_c, 13, 45, 92
14, 375235, Note_off_c, 13, 45, 64
14, 375240, Note_on_c, 13, 46, 92
14, 375395, Note_off_c, 13, 46, 64
14, 375400, Note_on_c, 13, 46, 92
14, 375555, Note_off_c, 13, 46, 64
14, 375560, Note_on_c, 13, 46, 92
14, 375715, Note_off_c, 13, 46, 64
14, 375720, Note_on_c, 13, 50, 92
14, 375875, Note_off_c, 13, 50, 64
14, 375880, Note_on_c, 13, 50, 92
14, 376035, Note_off_c, 13, 50, 64
14, 376040, Note_on_c, 13, 50, 92
14, 376195, Note_off_c, 13, 50, 64
14, 376200, Note_on_c, 13, 53, 92
14, 376355, Note_off_c, 13, 53, 64
14, 376360, Note_on_c, 13, 53, 92
14, 376515, Note_off_c, 13, 53, 64
14, 376520, Note_on_c, 13, 53, 92
14, 376675, Note_off_c, 13, 53, 64
14, 376680, Note_on_c, 13, 57, 92
14, 376835, Note_off_c, 13, 57, 64
14, 376840, Note_on_c, 13, 57, 92
14, 376995, Note_off_c, 13, 57, 64
14, 377000, Note_on_c, 13, 57, 92
14, 377155, Note_off_c, 13, 57, 64
14, 377160, Note_on_c, 13, 60, 92
14, 377315, Note_off_c, 13, 60, 64
14, 377320, Note_on_c, 13, 60, 92
14, 377475, Note_off_c, 13, 60, 64
14, 377480, Note_on_c, 13, 60, 92
14, 377635, Note_off_c, 13, 60, 64
14, 377640, Note_on_c, 13, 48, 92
14, 377795, Note_off_c, 13, 48, 64
14, 377800, Note_on_c, 13, 48, 92
14, 377955, Note_off_c, 13, 48, 64
14, 377960, Note_on_c, 13, 48, 92
14, 378115, Note_off_c, 13, 48, 64
14, 378120, Note_on_c, 13, 53, 92
14, 378275, Note_off_c, 13, 53, 64
14, 378280, Note_on_c, 13, 41, 92
14, 378435, Note_off_c, 13, 41, 64
14, 378440, Note_on_c, 13, 41, 92
14, 378595, Note_off_c, 13, 41, 64
14, 378600, Note_on_c, 13, 41, 92
14, 379235, Note_off_c, 13, 41, 64
14, 379240, Note_on_c, 13, 41, 92
14, 379395, Note_off_c, 13, 41, 64
14, 379400, Note_on_c, 13, 41, 92
14, 379555, Note_off_c, 13, 41, 64
14, 379560, Note_on_c, 13, 41, 92
14, 381155, Note_off_c, 13, 41, 64
14, 381160, Note_on_c, 13, 41, 92
14, 381315, Note_off_c, 13, 41, 64
14, 381320, Note_on_c, 13, 41, 92
14, 381475, Note_off_c, 13, 41, 64
14, 381480, Note_on_c, 13, 41, 92
14, 383075, Note_off_c, 13, 41, 64
14, 383080, Note_on_c, 13, 41, 92
14, 383235, Note_off_c, 13, 41, 64
14, 383240, Note_on_c, 13, 41, 92
14, 383395, Note_off_c, 13, 41, 64
14, 383400, Note_on_c, 13, 41, 92
14, 384995, Note_off_c, 13, 41, 64
14, 385000, Note_on_c, 13, 41, 92
14, 385155, Note_off_c, 13, 41, 64
14, 385160, Note_on_c, 13, 41, 92
14, 385315, Note_off_c, 13, 41, 64
14, 385320, Note_on_c, 13, 41, 92
14, 385955, Note_off_c, 13, 41, 64
14, 385960, Note_on_c, 13, 41, 92
14, 386115, Note_off_c, 13, 41, 64
14, 386120, Note_on_c, 13, 41, 92
14, 386275, Note_off_c, 13, 41, 64
14, 386280, Note_on_c, 13, 41, 75
14, 386915, Note_off_c, 13, 41, 64
14, 386920, Note_on_c, 13, 41, 75
14, 387075, Note_off_c, 13, 41, 64
14, 387080, Note_on_c, 13, 41, 75
14, 387235, Note_off_c, 13, 41, 64
14, 387240, Note_on_c, 13, 41, 75
14, 387875, Note_off_c, 13, 41, 64
14, 387880, Note_on_c, 13, 41, 66
14, 388035, Note_off_c, 13, 41, 64
14, 388040, Note_on_c, 13, 41, 63
14, 388195, Note_off_c, 13, 41, 64
14, 388200, Note_on_c, 13, 41, 60
14, 388835, Note_off_c, 13, 41, 64
14, 388840, Note_on_c, 13, 41, 60
14, 388995, Note_off_c, 13, 41, 64
14, 389000, Note_on_c, 13, 41, 60
14, 389155, Note_off_c, 13, 41, 64
14, 389160, Note_on_c, 13, 41, 60
14, 389795, Note_off_c, 13, 41, 64
14, 389800, Note_on_c, 13, 41, 60
14, 389955, Note_off_c, 13, 41, 64
14, 389960, Note_on_c, 13, 41, 60
14, 390115, Note_off_c, 13, 41, 64
14, 390120, Note_on_c, 13, 41, 45
14, 390755, Note_off_c, 13, 41, 64
14, 390760, Note_on_c, 13, 41, 45
14, 390915, Note_off_c, 13, 41, 64
14, 390920, Note_on_c, 13, 41, 45
14, 391075, Note_off_c, 13, 41, 64
14, 391080, Note_on_c, 13, 41, 45
14, 391715, Note_off_c, 13, 41, 64
14, 391720, Note_on_c, 13, 41, 36
14, 391875, Note_off_c, 13, 41, 64
14, 391880, Note_on_c, 13, 41, 33
14, 392035, Note_off_c, 13, 41, 64
14, 392040, Note_on_c, 13, 41, 30
14, 392675, Note_off_c, 13, 41, 64
14, 392680, Note_on_c, 13, 41, 30
14, 392835, Note_off_c, 13, 41, 64
14, 392840, Note_on_c, 13, 41, 30
14, 392995, Note_off_c, 13, 41, 64
14, 393000, Note_on_c, 13, 41, 30
14, 393560, Note_off_c, 13, 41, 64
14, 393720, Note_on_c, 13, 48, 45
14, 393840, Note_off_c, 13, 48, 64
14, 393840, Note_on_c, 13, 45, 45
14, 393960, Note_off_c, 13, 45, 64
14, 393960, Note_on_c, 13, 41, 45
14, 394040, Note_off_c, 13, 41, 64
14, 394200, Note_on_c, 13, 48, 45
14, 394320, Note_off_c, 13, 48, 64
14, 394320, Note_on_c, 13, 45, 45
14, 394440, Note_off_c, 13, 45, 64
14, 394440, Note_on_c, 13, 41, 45
14, 394520, Note_off_c, 13, 41, 64
14, 394680, Note_on_c, 13, 48, 45
14, 394800, Note_off_c, 13, 48, 64
14, 394800, Note_on_c, 13, 45, 45
14, 394920, Note_off_c, 13, 45, 64
14, 394920, Note_on_c, 13, 41, 45
14, 395000, Note_off_c, 13, 41, 64
14, 395160, Note_on_c, 13, 48, 45
14, 395275, Note_off_c, 13, 48, 64
14, 395280, Note_on_c, 13, 45, 45
14, 395400, Note_off_c, 13, 45, 64
14, 395400, Note_on_c, 13, 41, 45
14, 395480, Note_off_c, 13, 41, 64
14, 395640, Note_on_c, 13, 48, 45
14, 395760, Note_off_c, 13, 48, 64
14, 395760, Note_on_c, 13, 45, 45
14, 395880, Note_off_c, 13, 45, 64
14, 395880, Note_on_c, 13, 41, 45
14, 395960, Note_off_c, 13, 41, 64
14, 396120, Note_on_c, 13, 48, 45
14, 396235, Note_off_c, 13, 48, 64
14, 396240, Note_on_c, 13, 45, 45
14, 396360, Note_off_c, 13, 45, 64
14, 396360, Note_on_c, 13, 41, 45
14, 396440, Note_off_c, 13, 41, 64
14, 396600, Note_on_c, 13, 48, 45
14, 396720, Note_off_c, 13, 48, 64
14, 396720, Note_on_c, 13, 45, 45
14, 396840, Note_off_c, 13, 45, 64
14, 396840, Note_on_c, 13, 41, 45
14, 396920, Note_off_c, 13, 41, 64
14, 397080, Note_on_c, 13, 48, 45
14, 397200, Note_off_c, 13, 48, 64
14, 397200, Note_on_c, 13, 45, 45
14, 397320, Note_off_c, 13, 45, 64
14, 397320, Note_on_c, 13, 41, 30
14, 397400, Note_off_c, 13, 41, 64
14, 405360, Note_on_c, 13, 58, 108
14, 405440, Note_off_c, 13, 58, 64
14, 405600, Note_on_c, 13, 55, 108
14, 405680, Note_off_c, 13, 55, 64
14, 405840, Note_on_c, 13, 51, 108
14, 405920, Note_off_c, 13, 51, 64
14, 406080, Note_on_c, 13, 50, 108
14, 406160, Note_off_c, 13, 50, 64
14, 406320, Note_on_c, 13, 51, 108
14, 406400, Note_off_c, 13, 51, 64
14, 406560, Note_on_c, 13, 53, 108
14, 406640, Note_off_c, 13, 53, 64
14, 406800, Note_on_c, 13, 51, 108
14, 406880, Note_off_c, 13, 51, 64
14, 407040, Note_on_c, 13, 50, 108
14, 407120, Note_off_c, 13, 50, 64
14, 407280, Note_on_c, 13, 48, 108
14, 407360, Note_off_c, 13, 48, 64
14, 407520, Note_on_c, 13, 46, 108
14, 407600, Note_off_c, 13, 46, 64
14, 407760, Note_on_c, 13, 48, 108
14, 407840, Note_off_c, 13, 48, 64
14, 408000, Note_on_c, 13, 45, 108
14, 408080, Note_off_c, 13, 45, 64
14, 408240, Note_on_c, 13, 43, 108
14, 408320, Note_off_c, 13, 43, 64
14, 408480, Note_on_c, 13, 41, 108
14, 408560, Note_off_c, 13, 41, 64
14, 408720, Note_on_c, 13, 53, 108
14, 408800, Note_off_c, 13, 53, 64
14, 408960, Note_on_c, 13, 46, 60
14, 409800, Note_off_c, 13, 46, 64
14, 409920, Note_on_c, 13, 41, 60
14, 410760, Note_off_c, 13, 41, 64
14, 410880, Note_on_c, 13, 46, 60
14, 411035, Note_off_c, 13, 46, 64
14, 411040, Note_on_c, 13, 46, 60
14, 411195, Note_off_c, 13, 46, 64
14, 411200, Note_on_c, 13, 46, 60
14, 411355, Note_off_c, 13, 46, 64
14, 411360, Note_on_c, 13, 46, 60
14, 412955, Note_off_c, 13, 46, 64
14, 412960, Note_on_c, 13, 46, 60
14, 413115, Note_off_c, 13, 46, 64
14, 413120, Note_on_c, 13, 46, 60
14, 413275, Note_off_c, 13, 46, 64
14, 413280, Note_on_c, 13, 46, 60
14, 414875, Note_off_c, 13, 46, 64
14, 414880, Note_on_c, 13, 46, 60
14, 415035, Note_off_c, 13, 46, 64
14, 415040, Note_on_c, 13, 46, 60
14, 415195, Note_off_c, 13, 46, 64
14, 415200, Note_on_c, 13, 46, 60
14, 416795, Note_off_c, 13, 46, 64
14, 416800, Note_on_c, 13, 46, 60
14, 416955, Note_off_c, 13, 46, 64
14, 416960, Note_on_c, 13, 46, 60
14, 417115, Note_off_c, 13, 46, 64
14, 417120, Note_on_c, 13, 46, 60
14, 418715, Note_off_c, 13, 46, 64
14, 418720, Note_on_c, 13, 58, 60
14, 418875, Note_off_c, 13, 58, 64
14, 418880, Note_on_c, 13, 58, 60
14, 419035, Note_off_c, 13, 58, 64
14, 419040, Note_on_c, 13, 58, 60
14, 419675, Note_off_c, 13, 58, 64
14, 419680, Note_on_c, 13, 55, 60
14, 419835, Note_off_c, 13, 55, 64
14, 419840, Note_on_c, 13, 55, 60
14, 419995, Note_off_c, 13, 55, 64
14, 420000, Note_on_c, 13, 55, 60
14, 420635, Note_off_c, 13, 55, 64
14, 420640, Note_on_c, 13, 52, 72
14, 420795, Note_off_c, 13, 52, 64
14, 420800, Note_on_c, 13, 52, 75
14, 420955, Note_off_c, 13, 52, 64
14, 420960, Note_on_c, 13, 52, 78
14, 421595, Note_off_c, 13, 52, 64
14, 421600, Note_on_c, 13, 48, 91
14, 421755, Note_off_c, 13, 48, 64
14, 421760, Note_on_c, 13, 48, 94
14, 421915, Note_off_c, 13, 48, 64
14, 421920, Note_on_c, 13, 48, 97
14, 422320, Note_off_c, 13, 48, 64
14, 422400, Note_on_c, 13, 41, 108
14, 422555, Note_off_c, 13, 41, 64
14, 422560, Note_on_c, 13, 41, 108
14, 422715, Note_off_c, 13, 41, 64
14, 422720, Note_on_c, 13, 41, 108
14, 422875, Note_off_c, 13, 41, 64
14, 422880, Note_on_c, 13, 41, 108
14, 424475, Note_off_c, 13, 41, 64
14, 424480, Note_on_c, 13, 41, 108
14, 424635, Note_off_c, 13, 41, 64
14, 424640, Note_on_c, 13, 41, 108
14, 424795, Note_off_c, 13, 41, 64
14, 424800, Note_on_c, 13, 41, 108
14, 426395, Note_off_c, 13, 41, 64
14, 426400, Note_on_c, 13, 41, 108
14, 426555, Note_off_c, 13, 41, 64
14, 426560, Note_on_c, 13, 41, 108
14, 426715, Note_off_c, 13, 41, 64
14, 426720, Note_on_c, 13, 41, 108
14, 428315, Note_off_c, 13, 41, 64
14, 428320, Note_on_c, 13, 41, 108
14, 428475, Note_off_c, 13, 41, 64
14, 428480, Note_on_c, 13, 41, 108
14, 428635, Note_off_c, 13, 41, 64
14, 428640, Note_on_c, 13, 41, 108
14, 430235, Note_off_c, 13, 41, 64
14, 430240, Note_on_c, 13, 41, 108
14, 430395, Note_off_c, 13, 41, 64
14, 430400, Note_on_c, 13, 41, 108
14, 430555, Note_off_c, 13, 41, 64
14, 430560, Note_on_c, 13, 41, 108
14, 431195, Note_off_c, 13, 41, 64
14, 431200, Note_on_c, 13, 50, 108
14, 431355, Note_off_c, 13, 50, 64
14, 431360, Note_on_c, 13, 50, 108
14, 431515, Note_off_c, 13, 50, 64
14, 431520, Note_on_c, 13, 50, 108
14, 432155, Note_off_c, 13, 50, 64
14, 432160, Note_on_c, 13, 48, 108
14, 432315, Note_off_c, 13, 48, 64
14, 432320, Note_on_c, 13, 48, 108
14, 432475, Note_off_c, 13, 48, 64
14, 432480, Note_on_c, 13, 48, 108
14, 433115, Note_off_c, 13, 48, 64
14, 433120, Note_on_c, 13, 48, 108
14, 433275, Note_off_c, 13, 48, 64
14, 433280, Note_on_c, 13, 48, 108
14, 433435, Note_off_c, 13, 48, 64
14, 433440, Note_on_c, 13, 48, 108
14, 434075, Note_off_c, 13, 48, 64
14, 434080, Note_on_c, 13, 41, 108
14, 434235, Note_off_c, 13, 41, 64
14, 434240, Note_on_c, 13, 41, 108
14, 434395, Note_off_c, 13, 41, 64
14, 434400, Note_on_c, 13, 41, 108
14, 435035, Note_off_c, 13, 41, 64
14, 435040, Note_on_c, 13, 50, 108
14, 435195, Note_off_c, 13, 50, 64
14, 435200, Note_on_c, 13, 50, 108
14, 435355, Note_off_c, 13, 50, 64
14, 435360, Note_on_c, 13, 50, 108
14, 435995, Note_off_c, 13, 50, 64
14, 436000, Note_on_c, 13, 48, 108
14, 436155, Note_off_c, 13, 48, 64
14, 436160, Note_on_c, 13, 48, 108
14, 436315, Note_off_c, 13, 48, 64
14, 436320, Note_on_c, 13, 48, 108
14, 436955, Note_off_c, 13, 48, 64
14, 436960, Note_on_c, 13, 48, 108
14, 437115, Note_off_c, 13, 48, 64
14, 437120, Note_on_c, 13, 48, 108
14, 437275, Note_off_c, 13, 48, 64
14, 437280, Note_on_c, 13, 48, 108
14, 437915, Note_off_c, 13, 48, 64
14, 437920, Note_on_c, 13, 41, 108
14, 438075, Note_off_c, 13, 41, 64
14, 438080, Note_on_c, 13, 41, 108
14, 438235, Note_off_c, 13, 41, 64
14, 438240, Note_on_c, 13, 41, 108
14, 438875, Note_off_c, 13, 41, 64
14, 438880, Note_on_c, 13, 50, 108
14, 439035, Note_off_c, 13, 50, 64
14, 439040, Note_on_c, 13, 50, 108
14, 439195, Note_off_c, 13, 50, 64
14, 439200, Note_on_c, 13, 50, 108
14, 439835, Note_off_c, 13, 50, 64
14, 439840, Note_on_c, 13, 48, 108
14, 439995, Note_off_c, 13, 48, 64
14, 440000, Note_on_c, 13, 48, 108
14, 440155, Note_off_c, 13, 48, 64
14, 440160, Note_on_c, 13, 48, 108
14, 440795, Note_off_c, 13, 48, 64
14, 440800, Note_on_c, 13, 48, 108
14, 440955, Note_off_c, 13, 48, 64
14, 440960, Note_on_c, 13, 48, 108
14, 441115, Note_off_c, 13, 48, 64
14, 441120, Note_on_c, 13, 48, 108
14, 441755, Note_off_c, 13, 48, 64
14, 441760, Note_on_c, 13, 48, 98
14, 441915, Note_off_c, 13, 48, 64
14, 441920, Note_on_c, 13, 48, 95
14, 442075, Note_off_c, 13, 48, 64
14, 442080, Note_on_c, 13, 48, 92
14, 442715, Note_off_c, 13, 48, 64
14, 442720, Note_on_c, 13, 48, 92
14, 442875, Note_off_c, 13, 48, 64
14, 442880, Note_on_c, 13, 48, 92
14, 443035, Note_off_c, 13, 48, 64
14, 443040, Note_on_c, 13, 48, 92
14, 443675, Note_off_c, 13, 48, 64
14, 443680, Note_on_c, 13, 48, 81
14, 443835, Note_off_c, 13, 48, 64
14, 443840, Note_on_c, 13, 48, 78
14, 443995, Note_off_c, 13, 48, 64
14, 444000, Note_on_c, 13, 48, 75
14, 444635, Note_off_c, 13, 48, 64
14, 444640, Note_on_c, 13, 48, 75
14, 444795, Note_off_c, 13, 48, 64
14, 444800, Note_on_c, 13, 48, 75
14, 444955, Note_off_c, 13, 48, 64
14, 444960, Note_on_c, 13, 48, 75
14, 445595, Note_off_c, 13, 48, 64
14, 445600, Note_on_c, 13, 48, 66
14, 445755, Note_off_c, 13, 48, 64
14, 445760, Note_on_c, 13, 48, 63
14, 445915, Note_off_c, 13, 48, 64
14, 445920, Note_on_c, 13, 48, 60
14, 446555, Note_off_c, 13, 48, 64
14, 446560, Note_on_c, 13, 48, 60
14, 446715, Note_off_c, 13, 48, 64
14, 446720, Note_on_c, 13, 48, 60
14, 446875, Note_off_c, 13, 48, 64
14, 446880, Note_on_c, 13, 48, 60
14, 447515, Note_off_c, 13, 48, 64
14, 447520, Note_on_c, 13, 48, 51
14, 447675, Note_off_c, 13, 48, 64
14, 447680, Note_on_c, 13, 48, 48
14, 447835, Note_off_c, 13, 48, 64
14, 447840, Note_on_c, 13, 48, 45
14, 448475, Note_off_c, 13, 48, 64
14, 448480, Note_on_c, 13, 48, 45
14, 448635, Note_off_c, 13, 48, 64
14, 448640, Note_on_c, 13, 48, 45
14, 448795, Note_off_c, 13, 48, 64
14, 448800, Note_on_c, 13, 48, 45
14, 449200, Note_off_c, 13, 48, 64
14, 449280, Note_on_c, 13, 48, 45
14, 450120, Note_off_c, 13, 48, 64
14, 450240, Note_on_c, 13, 50, 45
14, 451080, Note_off_c, 13, 50, 64
14, 451200, Note_on_c, 13, 52, 92
14, 452040, Note_off_c, 13, 52, 64
14, 452160, Note_on_c, 13, 53, 92
14, 452395, Note_off_c, 13, 53, 64
14, 452640, Note_on_c, 13, 48, 92
14, 452875, Note_off_c, 13, 48, 64
14, 453120, Note_on_c, 13, 48, 45
14, 453960, Note_off_c, 13, 48, 64
14, 454080, Note_on_c, 13, 50, 45
14, 454920, Note_off_c, 13, 50, 64
14, 455040, Note_on_c, 13, 52, 92
14, 455880, Note_off_c, 13, 52, 64
14, 456000, Note_on_c, 13, 53, 92
14, 456235, Note_off_c, 13, 53, 64
14, 456480, Note_on_c, 13, 48, 92
14, 456715, Note_off_c, 13, 48, 64
14, 456960, Note_on_c, 13, 41, 92
14, 457195, Note_off_c, 13, 41, 64
14, 459840, Note_on_c, 13, 48, 92
14, 460480, Note_off_c, 13, 48, 64
14, 460560, Note_on_c, 13, 48, 92
14, 460795, Note_off_c, 13, 48, 64
14, 460800, Note_on_c, 13, 41, 92
14, 461035, Note_off_c, 13, 41, 64
14, 463680, Note_on_c, 13, 48, 92
14, 464320, Note_off_c, 13, 48, 64
14, 464400, Note_on_c, 13, 48, 92
14, 464635, Note_off_c, 13, 48, 64
14, 464640, Note_on_c, 13, 41, 92
14, 464875, Note_off_c, 13, 41, 64
14, 465600, Note_on_c, 13, 48, 92
14, 466240, Note_off_c, 13, 48, 64
14, 466320, Note_on_c, 13, 48, 92
14, 466555, Note_off_c, 13, 48, 64
14, 466560, Note_on_c, 13, 41, 92
14, 466795, Note_off_c, 13, 41, 64
14, 467520, Note_on_c, 13, 48, 92
14, 468160, Note_off_c, 13, 48, 64
14, 468240, Note_on_c, 13, 48, 92
14, 468475, Note_off_c, 13, 48, 64
14, 468480, Note_on_c, 13, 41, 92
14, 468715, Note_off_c, 13, 41, 64
14, 469440, Note_on_c, 13, 41, 92
14, 469675, Note_off_c, 13, 41, 64
14, 470400, Note_on_c, 13, 41, 75
14, 470635, Note_off_c, 13, 41, 64
14, 471360, Note_on_c, 13, 41, 45
14, 471595, Note_off_c, 13, 41, 64
14, 472320, Note_on_c, 13, 41, 45
14, 478315, Note_off_c, 13, 41, 64
14, 485040, Note_on_c, 13, 46, 92
14, 485120, Note_off_c, 13, 46, 64
14, 485280, Note_on_c, 13, 48, 92
14, 485360, Note_off_c, 13, 48, 64
14, 485520, Note_on_c, 13, 50, 92
14, 485600, Note_off_c, 13, 50, 64
14, 485760, Note_on_c, 13, 52, 92
14, 485840, Note_off_c, 13, 52, 64
14, 486000, Note_on_c, 13, 53, 92
14, 486840, Note_off_c, 13, 53, 64
14, 486960, Note_on_c, 13, 48, 92
14, 487800, Note_off_c, 13, 48, 64
14, 487920, Note_on_c, 13, 41, 92
14, 488760, Note_off_c, 13, 41, 64
14, 488880, Note_on_c, 13, 41, 75
14, 489360, Note_off_c, 13, 41, 64
14, 489360, Note_on_c, 13, 41, 75
14, 489840, Note_off_c, 13, 41, 64
14, 489840, Note_on_c, 13, 41, 75
14, 490680, Note_off_c, 13, 41, 64
14, 490800, Note_on_c, 13, 41, 60
14, 491640, Note_off_c, 13, 41, 64
14, 491760, Note_on_c, 13, 41, 60
14, 492600, Note_off_c, 13, 41, 64
14, 501360, Program_c, 13, 50
14, 501840, Note_on_c, 13, 55, 60
14, 501960, Note_off_c, 13, 55, 64
14, 502320, Note_on_c, 13, 57, 60
14, 502440, Note_off_c, 13, 57, 64
14, 502800, Note_on_c, 13, 53, 60
14, 502920, Note_off_c, 13, 53, 64
14, 503280, Note_on_c, 13, 55, 60
14, 503400, Note_off_c, 13, 55, 64
14, 503760, Note_on_c, 13, 53, 60
14, 503880, Note_off_c, 13, 53, 64
14, 504240, Note_on_c, 13, 50, 60
14, 504360, Note_off_c, 13, 50, 64
14, 504720, Note_on_c, 13, 52, 60
14, 504840, Note_off_c, 13, 52, 64
14, 505200, Note_on_c, 13, 50, 60
14, 505320, Note_off_c, 13, 50, 64
14, 505680, Note_on_c, 13, 45, 60
14, 505800, Note_off_c, 13, 45, 64
14, 506160, Note_on_c, 13, 45, 60
14, 506280, Note_off_c, 13, 45, 64
14, 506640, Note_on_c, 13, 45, 60
14, 506760, Note_off_c, 13, 45, 64
14, 507600, Note_on_c, 13, 45, 60
14, 508000, Note_off_c, 13, 45, 64
14, 508080, Program_c, 13, 48
14, 508080, Note_on_c, 13, 50, 60
14, 508480, Note_off_c, 13, 50, 64
14, 509520, Note_on_c, 13, 50, 60
14, 509920, Note_off_c, 13, 50, 64
14, 510960, Note_on_c, 13, 50, 60
14, 511360, Note_off_c, 13, 50, 64
14, 512400, Note_on_c, 13, 50, 60
14, 512800, Note_off_c, 13, 50, 64
14, 513840, Note_on_c, 13, 50, 60
14, 514240, Note_off_c, 13, 50, 64
14, 515280, Note_on_c, 13, 50, 60
14, 515680, Note_off_c, 13, 50, 64
14, 516720, Note_on_c, 13, 50, 60
14, 517120, Note_off_c, 13, 50, 64
14, 517680, Note_on_c, 13, 45, 60
14, 518080, Note_off_c, 13, 45, 64
14, 518160, Note_on_c, 13, 50, 60
14, 518560, Note_off_c, 13, 50, 64
14, 524880, Program_c, 13, 50
14, 524880, Note_on_c, 13, 55, 60
14, 525000, Note_off_c, 13, 55, 64
14, 525360, Note_on_c, 13, 57, 60
14, 525480, Note_off_c, 13, 57, 64
14, 525840, Note_on_c, 13, 53, 60
14, 525960, Note_off_c, 13, 53, 64
14, 526320, Note_on_c, 13, 55, 60
14, 526440, Note_off_c, 13, 55, 64
14, 526800, Note_on_c, 13, 53, 60
14, 526920, Note_off_c, 13, 53, 64
14, 527280, Note_on_c, 13, 50, 60
14, 527400, Note_off_c, 13, 50, 64
14, 527760, Note_on_c, 13, 52, 60
14, 527880, Note_off_c, 13, 52, 64
14, 528240, Note_on_c, 13, 50, 60
14, 528360, Note_off_c, 13, 50, 64
14, 528720, Note_on_c, 13, 45, 60
14, 528840, Note_off_c, 13, 45, 64
14, 529200, Note_on_c, 13, 45, 60
14, 529320, Note_off_c, 13, 45, 64
14, 529680, Note_on_c, 13, 45, 60
14, 529800, Note_off_c, 13, 45, 64
14, 530640, Note_on_c, 13, 45, 60
14, 531040, Note_off_c, 13, 45, 64
14, 531120, Program_c, 13, 48
14, 531120, Note_on_c, 13, 50, 60
14, 531520, Note_off_c, 13, 50, 64
14, 532560, Note_on_c, 13, 50, 60
14, 532960, Note_off_c, 13, 50, 64
14, 534000, Note_on_c, 13, 50, 60
14, 534400, Note_off_c, 13, 50, 64
14, 535440, Note_on_c, 13, 50, 60
14, 535840, Note_off_c, 13, 50, 64
14, 536880, Note_on_c, 13, 50, 60
14, 537280, Note_off_c, 13, 50, 64
14, 538320, Note_on_c, 13, 50, 60
14, 538720, Note_off_c, 13, 50, 64
14, 539760, Note_on_c, 13, 50, 60
14, 540160, Note_off_c, 13, 50, 64
14, 540720, Note_on_c, 13, 45, 60
14, 541120, Note_off_c, 13, 45, 64
14, 541200, Note_on_c, 13, 50, 60
14, 541600, Note_off_c, 13, 50, 64
14, 551760, Note_on_c, 13, 43, 60
14, 551880, Note_off_c, 13, 43, 64
14, 552240, Note_on_c, 13, 45, 60
14, 552360, Note_off_c, 13, 45, 64
14, 552720, Note_on_c, 13, 47, 60
14, 552840, Note_off_c, 13, 47, 64
14, 553200, Note_on_c, 13, 43, 60
14, 553320, Note_off_c, 13, 43, 64
14, 553680, Note_on_c, 13, 43, 60
14, 554080, Note_off_c, 13, 43, 64
14, 554160, Note_on_c, 13, 48, 60
14, 554560, Note_off_c, 13, 48, 64
14, 555600, Note_on_c, 13, 48, 60
14, 556000, Note_off_c, 13, 48, 64
14, 557040, Note_on_c, 13, 48, 60
14, 557440, Note_off_c, 13, 48, 64
14, 558480, Note_on_c, 13, 48, 60
14, 558880, Note_off_c, 13, 48, 64
14, 559920, Note_on_c, 13, 48, 60
14, 560320, Note_off_c, 13, 48, 64
14, 561360, Note_on_c, 13, 48, 60
14, 561760, Note_off_c, 13, 48, 64
14, 562800, Note_on_c, 13, 48, 60
14, 563200, Note_off_c, 13, 48, 64
14, 563760, Note_on_c, 13, 43, 60
14, 564160, Note_off_c, 13, 43, 64
14, 564240, Note_on_c, 13, 48, 60
14, 564640, Note_off_c, 13, 48, 64
14, 565200, Note_on_c, 13, 48, 66
14, 565680, Note_off_c, 13, 48, 64
14, 565680, Note_on_c, 13, 60, 69
14, 566160, Note_off_c, 13, 60, 64
14, 566160, Note_on_c, 13, 57, 72
14, 566640, Note_off_c, 13, 57, 64
14, 566640, Note_on_c, 13, 58, 75
14, 567120, Note_off_c, 13, 58, 64
14, 567120, Note_on_c, 13, 57, 78
14, 567600, Note_off_c, 13, 57, 64
14, 567600, Note_on_c, 13, 53, 81
14, 568080, Note_off_c, 13, 53, 64
14, 568080, Note_on_c, 13, 55, 84
14, 568560, Note_off_c, 13, 55, 64
14, 568560, Note_on_c, 13, 53, 88
14, 569040, Note_off_c, 13, 53, 64
14, 569040, Note_on_c, 13, 48, 92
14, 569520, Note_off_c, 13, 48, 64
14, 569520, Note_on_c, 13, 55, 96
14, 570000, Note_off_c, 13, 55, 64
14, 570000, Note_on_c, 13, 57, 100
14, 570480, Note_off_c, 13, 57, 64
14, 570480, Note_on_c, 13, 53, 104
14, 570880, Note_off_c, 13, 53, 64
14, 570960, Note_on_c, 13, 48, 127
14, 571080, Note_off_c, 13, 48, 64
14, 571440, Note_on_c, 13, 53, 127
14, 571560, Note_off_c, 13, 53, 64
14, 571920, Note_on_c, 13, 48, 108
14, 572040, Note_off_c, 13, 48, 64
14, 572400, Note_on_c, 13, 50, 108
14, 572520, Note_off_c, 13, 50, 64
14, 572880, Note_on_c, 13, 48, 108
14, 573000, Note_off_c, 13, 48, 64
14, 573360, Note_on_c, 13, 45, 108
14, 573480, Note_off_c, 13, 45, 64
14, 573840, Note_on_c, 13, 46, 108
14, 573960, Note_off_c, 13, 46, 64
14, 574320, Note_on_c, 13, 45, 108
14, 574440, Note_off_c, 13, 45, 64
14, 574800, Note_on_c, 13, 41, 108
14, 574920, Note_off_c, 13, 41, 64
14, 575280, Note_on_c, 13, 43, 108
14, 575400, Note_off_c, 13, 43, 64
14, 575760, Note_on_c, 13, 45, 108
14, 575880, Note_off_c, 13, 45, 64
14, 576240, Note_on_c, 13, 41, 108
14, 576360, Note_off_c, 13, 41, 64
14, 576720, Note_on_c, 13, 43, 108
14, 576840, Note_off_c, 13, 43, 64
14, 577200, Note_on_c, 13, 45, 108
14, 577320, Note_off_c, 13, 45, 64
14, 577680, Note_on_c, 13, 41, 108
14, 577800, Note_off_c, 13, 41, 64
14, 578160, Note_on_c, 13, 43, 108
14, 578280, Note_off_c, 13, 43, 64
14, 578640, Note_on_c, 13, 45, 108
14, 578760, Note_off_c, 13, 45, 64
14, 579120, Note_on_c, 13, 41, 108
14, 579240, Note_off_c, 13, 41, 64
14, 579600, Note_on_c, 13, 43, 108
14, 579720, Note_off_c, 13, 43, 64
14, 580080, Note_on_c, 13, 45, 108
14, 581400, Note_off_c, 13, 45, 64
14, 581520, Note_on_c, 13, 43, 108
14, 582360, Note_off_c, 13, 43, 64
14, 582480, Note_on_c, 13, 41, 108
14, 582880, Note_off_c, 13, 41, 64
14, 582960, Note_on_c, 13, 40, 108
14, 583800, Note_off_c, 13, 40, 64
14, 583920, Note_on_c, 13, 38, 108
14, 584320, Note_off_c, 13, 38, 64
14, 584400, Note_on_c, 13, 48, 108
14, 585240, Note_off_c, 13, 48, 64
14, 585360, Note_on_c, 13, 46, 108
14, 585760, Note_off_c, 13, 46, 64
14, 585840, Note_on_c, 13, 45, 108
14, 587160, Note_off_c, 13, 45, 64
14, 587280, Note_on_c, 13, 46, 108
14, 588600, Note_off_c, 13, 46, 64
14, 588720, Note_on_c, 13, 48, 108
14, 590040, Note_off_c, 13, 48, 64
14, 590160, Note_on_c, 13, 48, 108
14, 591480, Note_off_c, 13, 48, 64
14, 591600, Note_on_c, 13, 53, 108
14, 592000, Note_off_c, 13, 53, 64
14, 592560, Note_on_c, 13, 57, 108
14, 592960, Note_off_c, 13, 57, 64
14, 593040, Note_on_c, 13, 55, 108
14, 593880, Note_off_c, 13, 55, 64
14, 594000, Note_on_c, 13, 53, 108
14, 594400, Note_off_c, 13, 53, 64
14, 594480, Note_on_c, 13, 52, 108
14, 595320, Note_off_c, 13, 52, 64
14, 595440, Note_on_c, 13, 50, 108
14, 595840, Note_off_c, 13, 50, 64
14, 595920, Note_on_c, 13, 48, 108
14, 596760, Note_off_c, 13, 48, 64
14, 596880, Note_on_c, 13, 46, 108
14, 597280, Note_off_c, 13, 46, 64
14, 597360, Note_on_c, 13, 45, 108
14, 598680, Note_off_c, 13, 45, 64
14, 598800, Note_on_c, 13, 46, 108
14, 600120, Note_off_c, 13, 46, 64
14, 600240, Note_on_c, 13, 48, 108
14, 601560, Note_off_c, 13, 48, 64
14, 601680, Note_on_c, 13, 48, 108
14, 603000, Note_off_c, 13, 48, 64
14, 603120, Note_on_c, 13, 53, 92
14, 603520, Note_off_c, 13, 53, 64
14, 607440, Note_on_c, 13, 48, 92
14, 607840, Note_off_c, 13, 48, 64
14, 607920, Note_on_c, 13, 48, 92
14, 608320, Note_off_c, 13, 48, 64
14, 608400, Note_on_c, 13, 48, 92
14, 608800, Note_off_c, 13, 48, 64
14, 608880, Note_on_c, 13, 41, 92
14, 609280, Note_off_c, 13, 41, 64
14, 613200, Note_on_c, 13, 48, 92
14, 613600, Note_off_c, 13, 48, 64
14, 613680, Note_on_c, 13, 48, 92
14, 614080, Note_off_c, 13, 48, 64
14, 614160, Note_on_c, 13, 48, 92
14, 614560, Note_off_c, 13, 48, 64
14, 614640, Note_on_c, 13, 41, 92
14, 615040, Note_off_c, 13, 41, 64
14, 617520, Note_on_c, 13, 41, 92
14, 617920, Note_off_c, 13, 41, 64
14, 678000, Note_on_c, 13, 60, 45
14, 679320, Note_off_c, 13, 60, 64
14, 679440, Note_on_c, 13, 55, 52
14, 680760, Note_off_c, 13, 55, 64
14, 680880, Note_on_c, 13, 48, 59
14, 682200, Note_off_c, 13, 48, 64
14, 682320, Note_on_c, 13, 43, 67
14, 683640, Note_off_c, 13, 43, 64
14, 683760, Note_on_c, 13, 36, 75
14, 685080, Note_off_c, 13, 36, 64
14, 685200, Note_on_c, 13, 48, 75
14, 686520, Note_off_c, 13, 48, 64
14, 686640, Note_on_c, 13, 41, 75
14, 687040, Note_off_c, 13, 41, 64
14, 709680, Program_c, 13, 48
14, 709680, Note_on_c, 13, 41, 45
14, 715320, Note_off_c, 13, 41, 64
14, 715440, Note_on_c, 13, 53, 75
14, 716400, Note_off_c, 13, 53, 64
14, 716400, Note_on_c, 13, 58, 75
14, 716880, Note_off_c, 13, 58, 64
14, 716880, Note_on_c, 13, 60, 75
14, 717360, Note_off_c, 13, 60, 64
14, 717360, Note_on_c, 13, 57, 75
14, 717840, Note_off_c, 13, 57, 64
14, 717840, Note_on_c, 13, 58, 75
14, 718240, Note_off_c, 13, 58, 64
14, 718320, Note_on_c, 13, 55, 75
14, 719280, Note_off_c, 13, 55, 64
14, 719280, Note_on_c, 13, 57, 75
14, 719760, Note_off_c, 13, 57, 64
14, 719760, Note_on_c, 13, 58, 75
14, 720240, Note_off_c, 13, 58, 64
14, 720240, Note_on_c, 13, 55, 75
14, 720720, Note_off_c, 13, 55, 64
14, 720720, Note_on_c, 13, 57, 75
14, 721120, Note_off_c, 13, 57, 64
14, 721200, Note_on_c, 13, 53, 75
14, 722160, Note_off_c, 13, 53, 64
14, 722160, Note_on_c, 13, 46, 80
14, 722640, Note_off_c, 13, 46, 64
14, 722640, Note_on_c, 13, 48, 82
14, 723120, Note_off_c, 13, 48, 64
14, 723120, Note_on_c, 13, 45, 84
14, 723600, Note_off_c, 13, 45, 64
14, 723600, Note_on_c, 13, 46, 87
14, 724000, Note_off_c, 13, 46, 64
14, 724080, Note_on_c, 13, 43, 90
14, 725040, Note_off_c, 13, 43, 64
14, 725040, Note_on_c, 13, 45, 96
14, 725520, Note_off_c, 13, 45, 64
14, 725520, Note_on_c, 13, 46, 99
14, 726000, Note_off_c, 13, 46, 64
14, 726000, Note_on_c, 13, 43, 102
14, 726480, Note_off_c, 13, 43, 64
14, 726480, Note_on_c, 13, 45, 105
14, 726880, Note_off_c, 13, 45, 64
14, 726960, Note_on_c, 13, 41, 108
14, 727080, Note_off_c, 13, 41, 64
14, 727920, Note_on_c, 13, 46, 108
14, 728040, Note_off_c, 13, 46, 64
14, 728400, Note_on_c, 13, 48, 108
14, 728520, Note_off_c, 13, 48, 64
14, 728880, Note_on_c, 13, 45, 108
14, 729000, Note_off_c, 13, 45, 64
14, 729360, Note_on_c, 13, 46, 108
14, 729480, Note_off_c, 13, 46, 64
14, 729840, Note_on_c, 13, 46, 108
14, 729960, Note_off_c, 13, 46, 64
14, 730320, Note_on_c, 13, 43, 108
14, 730440, Note_off_c, 13, 43, 64
14, 730800, Note_on_c, 13, 45, 108
14, 730920, Note_off_c, 13, 45, 64
14, 731280, Note_on_c, 13, 45, 108
14, 731400, Note_off_c, 13, 45, 64
14, 731760, Note_on_c, 13, 41, 108
14, 731880, Note_off_c, 13, 41, 64
14, 732240, Note_on_c, 13, 43, 108
14, 732360, Note_off_c, 13, 43, 64
14, 732720, Note_on_c, 13, 41, 108
14, 733560, Note_off_c, 13, 41, 64
14, 733680, Note_on_c, 13, 41, 108
14, 734520, Note_off_c, 13, 41, 64
14, 734640, Note_on_c, 13, 46, 108
14, 735480, Note_off_c, 13, 46, 64
14, 735600, Note_on_c, 13, 41, 108
14, 736080, Note_off_c, 13, 41, 64
14, 736080, Note_on_c, 13, 46, 108
14, 736480, Note_off_c, 13, 46, 64
14, 736560, Note_on_c, 13, 41, 108
14, 737400, Note_off_c, 13, 41, 64
14, 737520, Note_on_c, 13, 41, 108
14, 738360, Note_off_c, 13, 41, 64
14, 738480, Note_on_c, 13, 46, 108
14, 739320, Note_off_c, 13, 46, 64
14, 739440, Note_on_c, 13, 41, 108
14, 739920, Note_off_c, 13, 41, 64
14, 739920, Note_on_c, 13, 46, 108
14, 740320, Note_off_c, 13, 46, 64
14, 740400, Note_on_c, 13, 41, 108
14, 741240, Note_off_c, 13, 41, 64
14, 741360, Note_on_c, 13, 41, 108
14, 742200, Note_off_c, 13, 41, 64
14, 742320, Note_on_c, 13, 46, 108
14, 743160, Note_off_c, 13, 46, 64
14, 743280, Note_on_c, 13, 41, 108
14, 743760, Note_off_c, 13, 41, 64
14, 743760, Note_on_c, 13, 46, 108
14, 744160, Note_off_c, 13, 46, 64
14, 744240, Note_on_c, 13, 41, 108
14, 745080, Note_off_c, 13, 41, 64
14, 745200, Note_on_c, 13, 41, 108
14, 746040, Note_off_c, 13, 41, 64
14, 746160, Note_on_c, 13, 46, 108
14, 747000, Note_off_c, 13, 46, 64
14, 747120, Note_on_c, 13, 41, 108
14, 747600, Note_off_c, 13, 41, 64
14, 747600, Note_on_c, 13, 46, 108
14, 748000, Note_off_c, 13, 46, 64
14, 750000, Note_on_c, 13, 53, 108
14, 750840, Note_off_c, 13, 53, 64
14, 750960, Note_on_c, 13, 48, 108
14, 751440, Note_off_c, 13, 48, 64
14, 751440, Note_on_c, 13, 41, 108
14, 751840, Note_off_c, 13, 41, 64
14, 753840, Note_on_c, 13, 53, 108
14, 754680, Note_off_c, 13, 53, 64
14, 754800, Note_on_c, 13, 48, 108
14, 755280, Note_off_c, 13, 48, 64
14, 755280, Note_on_c, 13, 41, 108
14, 755680, Note_off_c, 13, 41, 64
14, 755760, Program_c, 13, 48
14, 755760, Note_on_c, 13, 48, 108
14, 756000, Note_off_c, 13, 48, 64
14, 756000, Note_on_c, 13, 50, 108
14, 756120, Note_off_c, 13, 50, 64
14, 756120, Note_on_c, 13, 48, 108
14, 756240, Note_off_c, 13, 48, 64
14, 756240, Note_on_c, 13, 43, 108
14, 756480, Note_off_c, 13, 43, 64
14, 756480, Note_on_c, 13, 45, 108
14, 756600, Note_off_c, 13, 45, 64
14, 756600, Note_on_c, 13, 47, 108
14, 756715, Note_off_c, 13, 47, 64
14, 756720, Note_on_c, 13, 48, 108
14, 756960, Note_off_c, 13, 48, 64
14, 756960, Note_on_c, 13, 50, 108
14, 757080, Note_off_c, 13, 50, 64
14, 757080, Note_on_c, 13, 48, 108
14, 757200, Note_off_c, 13, 48, 64
14, 757200, Note_on_c, 13, 47, 108
14, 757440, Note_off_c, 13, 47, 64
14, 757440, Note_on_c, 13, 48, 108
14, 757560, Note_off_c, 13, 48, 64
14, 757560, Note_on_c, 13, 50, 108
14, 757675, Note_off_c, 13, 50, 64
14, 757680, Note_on_c, 13, 52, 108
14, 757920, Note_off_c, 13, 52, 64
14, 757920, Note_on_c, 13, 50, 108
14, 758040, Note_off_c, 13, 50, 64
14, 758040, Note_on_c, 13, 52, 108
14, 758155, Note_off_c, 13, 52, 64
14, 758160, Note_on_c, 13, 53, 108
14, 758400, Note_off_c, 13, 53, 64
14, 758400, Note_on_c, 13, 55, 108
14, 758520, Note_off_c, 13, 55, 64
14, 758520, Note_on_c, 13, 57, 108
14, 758635, Note_off_c, 13, 57, 64
14, 758640, Note_on_c, 13, 55, 108
14, 758880, Note_off_c, 13, 55, 64
14, 758880, Note_on_c, 13, 57, 108
14, 759000, Note_off_c, 13, 57, 64
14, 759000, Note_on_c, 13, 54, 108
14, 759115, Note_off_c, 13, 54, 64
14, 759120, Note_on_c, 13, 55, 108
14, 759355, Note_off_c, 13, 55, 64
14, 759360, Note_on_c, 13, 43, 108
14, 759595, Note_off_c, 13, 43, 64
14, 759600, Note_on_c, 13, 48, 108
14, 759840, Note_off_c, 13, 48, 64
14, 759840, Note_on_c, 13, 50, 108
14, 759960, Note_off_c, 13, 50, 64
14, 759960, Note_on_c, 13, 48, 108
14, 760075, Note_off_c, 13, 48, 64
14, 760080, Note_on_c, 13, 43, 108
14, 760320, Note_off_c, 13, 43, 64
14, 760320, Note_on_c, 13, 45, 108
14, 760440, Note_off_c, 13, 45, 64
14, 760440, Note_on_c, 13, 46, 108
14, 760555, Note_off_c, 13, 46, 64
14, 760560, Note_on_c, 13, 48, 108
14, 760800, Note_off_c, 13, 48, 64
14, 760800, Note_on_c, 13, 50, 108
14, 760920, Note_off_c, 13, 50, 64
14, 760920, Note_on_c, 13, 48, 108
14, 761035, Note_off_c, 13, 48, 64
14, 761040, Note_on_c, 13, 47, 108
14, 761280, Note_off_c, 13, 47, 64
14, 761280, Note_on_c, 13, 48, 108
14, 761400, Note_off_c, 13, 48, 64
14, 761400, Note_on_c, 13, 50, 108
14, 761515, Note_off_c, 13, 50, 64
14, 761520, Note_on_c, 13, 52, 108
14, 761760, Note_off_c, 13, 52, 64
14, 761760, Note_on_c, 13, 50, 108
14, 761880, Note_off_c, 13, 50, 64
14, 761880, Note_on_c, 13, 52, 108
14, 761995, Note_off_c, 13, 52, 64
14, 762000, Note_on_c, 13, 53, 108
14, 762240, Note_off_c, 13, 53, 64
14, 762240, Note_on_c, 13, 55, 108
14, 762360, Note_off_c, 13, 55, 64
14, 762360, Note_on_c, 13, 57, 108
14, 762475, Note_off_c, 13, 57, 64
14, 762480, Note_on_c, 13, 55, 108
14, 762720, Note_off_c, 13, 55, 64
14, 762720, Note_on_c, 13, 57, 108
14, 762840, Note_off_c, 13, 57, 64
14, 762840, Note_on_c, 13, 54, 108
14, 762955, Note_off_c, 13, 54, 64
14, 762960, Note_on_c, 13, 55, 108
14, 763195, Note_off_c, 13, 55, 64
14, 763200, Note_on_c, 13, 43, 108
14, 763435, Note_off_c, 13, 43, 64
14, 763440, Note_on_c, 13, 48, 108
14, 763520, Note_off_c, 13, 48, 64
14, 763680, Note_on_c, 13, 50, 108
14, 763795, Note_off_c, 13, 50, 64
14, 763800, Note_on_c, 13, 48, 108
14, 763915, Note_off_c, 13, 48, 64
14, 763920, Note_on_c, 13, 43, 108
14, 764155, Note_off_c, 13, 43, 64
14, 764160, Note_on_c, 13, 45, 108
14, 764275, Note_off_c, 13, 45, 64
14, 764280, Note_on_c, 13, 47, 108
14, 764395, Note_off_c, 13, 47, 64
14, 764400, Note_on_c, 13, 48, 108
14, 764480, Note_off_c, 13, 48, 64
14, 764640, Note_on_c, 13, 50, 108
14, 764755, Note_off_c, 13, 50, 64
14, 764760, Note_on_c, 13, 48, 108
14, 764875, Note_off_c, 13, 48, 64
14, 764880, Note_on_c, 13, 47, 108
14, 765115, Note_off_c, 13, 47, 64
14, 765120, Note_on_c, 13, 48, 108
14, 765235, Note_off_c, 13, 48, 64
14, 765240, Note_on_c, 13, 50, 108
14, 765355, Note_off_c, 13, 50, 64
14, 765360, Note_on_c, 13, 52, 108
14, 765440, Note_off_c, 13, 52, 64
14, 765600, Note_on_c, 13, 53, 108
14, 765715, Note_off_c, 13, 53, 64
14, 765720, Note_on_c, 13, 52, 108
14, 765835, Note_off_c, 13, 52, 64
14, 765840, Note_on_c, 13, 50, 108
14, 766075, Note_off_c, 13, 50, 64
14, 766080, Note_on_c, 13, 52, 108
14, 766195, Note_off_c, 13, 52, 64
14, 766200, Note_on_c, 13, 53, 108
14, 766315, Note_off_c, 13, 53, 64
14, 766320, Note_on_c, 13, 55, 108
14, 766400, Note_off_c, 13, 55, 64
14, 766560, Note_on_c, 13, 57, 108
14, 766675, Note_off_c, 13, 57, 64
14, 766680, Note_on_c, 13, 53, 108
14, 766795, Note_off_c, 13, 53, 64
14, 766800, Note_on_c, 13, 55, 108
14, 767035, Note_off_c, 13, 55, 64
14, 767040, Note_on_c, 13, 57, 108
14, 767155, Note_off_c, 13, 57, 64
14, 767160, Note_on_c, 13, 59, 108
14, 767275, Note_off_c, 13, 59, 64
14, 767280, Note_on_c, 13, 60, 108
14, 767360, Note_off_c, 13, 60, 64
14, 767520, Note_on_c, 13, 62, 108
14, 767635, Note_off_c, 13, 62, 64
14, 767640, Note_on_c, 13, 59, 108
14, 767755, Note_off_c, 13, 59, 64
14, 767760, Note_on_c, 13, 60, 108
14, 767995, Note_off_c, 13, 60, 64
14, 768000, Note_on_c, 13, 62, 108
14, 768115, Note_off_c, 13, 62, 64
14, 768120, Note_on_c, 13, 59, 108
14, 768235, Note_off_c, 13, 59, 64
14, 768240, Note_on_c, 13, 60, 108
14, 768320, Note_off_c, 13, 60, 64
14, 768480, Note_on_c, 13, 62, 108
14, 768595, Note_off_c, 13, 62, 64
14, 768600, Note_on_c, 13, 59, 108
14, 768715, Note_off_c, 13, 59, 64
14, 768720, Note_on_c, 13, 60, 108
14, 768955, Note_off_c, 13, 60, 64
14, 768960, Note_on_c, 13, 62, 108
14, 769075, Note_off_c, 13, 62, 64
14, 769080, Note_on_c, 13, 59, 108
14, 769195, Note_off_c, 13, 59, 64
14, 769200, Note_on_c, 13, 60, 108
14, 769435, Note_off_c, 13, 60, 64
14, 770160, Note_on_c, 13, 48, 108
14, 770395, Note_off_c, 13, 48, 64
14, 777840, Program_c, 13, 50
14, 778320, Note_on_c, 13, 55, 60
14, 778440, Note_off_c, 13, 55, 64
14, 778800, Note_on_c, 13, 57, 60
14, 778920, Note_off_c, 13, 57, 64
14, 779280, Note_on_c, 13, 53, 60
14, 779400, Note_off_c, 13, 53, 64
14, 779760, Note_on_c, 13, 55, 60
14, 779880, Note_off_c, 13, 55, 64
14, 780240, Note_on_c, 13, 53, 60
14, 780360, Note_off_c, 13, 53, 64
14, 780720, Note_on_c, 13, 50, 60
14, 780840, Note_off_c, 13, 50, 64
14, 781200, Note_on_c, 13, 52, 60
14, 781320, Note_off_c, 13, 52, 64
14, 781680, Note_on_c, 13, 50, 60
14, 781800, Note_off_c, 13, 50, 64
14, 782160, Note_on_c, 13, 45, 60
14, 782280, Note_off_c, 13, 45, 64
14, 782640, Note_on_c, 13, 45, 60
14, 782760, Note_off_c, 13, 45, 64
14, 783120, Note_on_c, 13, 45, 60
14, 783240, Note_off_c, 13, 45, 64
14, 784080, Note_on_c, 13, 45, 60
14, 784480, Note_off_c, 13, 45, 64
14, 784560, Program_c, 13, 48
14, 784560, Note_on_c, 13, 50, 60
14, 784960, Note_off_c, 13, 50, 64
14, 786000, Note_on_c, 13, 50, 60
14, 786400, Note_off_c, 13, 50, 64
14, 787440, Note_on_c, 13, 50, 60
14, 787840, Note_off_c, 13, 50, 64
14, 788880, Note_on_c, 13, 50, 60
14, 789280, Note_off_c, 13, 50, 64
14, 790320, Note_on_c, 13, 50, 60
14, 790720, Note_off_c, 13, 50, 64
14, 791760, Note_on_c, 13, 50, 60
14, 792160, Note_off_c, 13, 50, 64
14, 793200, Note_on_c, 13, 50, 60
14, 793600, Note_off_c, 13, 50, 64
14, 794160, Note_on_c, 13, 45, 60
14, 794560, Note_off_c, 13, 45, 64
14, 794640, Note_on_c, 13, 50, 60
14, 795040, Note_off_c, 13, 50, 64
14, 801360, Program_c, 13, 50
14, 801360, Note_on_c, 13, 55, 60
14, 801480, Note_off_c, 13, 55, 64
14, 801840, Note_on_c, 13, 57, 60
14, 801960, Note_off_c, 13, 57, 64
14, 802320, Note_on_c, 13, 53, 60
14, 802440, Note_off_c, 13, 53, 64
14, 802800, Note_on_c, 13, 55, 60
14, 802920, Note_off_c, 13, 55, 64
14, 803280, Note_on_c, 13, 53, 60
14, 803400, Note_off_c, 13, 53, 64
14, 803760, Note_on_c, 13, 50, 60
14, 803880, Note_off_c, 13, 50, 64
14, 804240, Note_on_c, 13, 52, 60
14, 804360, Note_off_c, 13, 52, 64
14, 804720, Note_on_c, 13, 50, 60
14, 804840, Note_off_c, 13, 50, 64
14, 805200, Note_on_c, 13, 45, 60
14, 805320, Note_off_c, 13, 45, 64
14, 805680, Note_on_c, 13, 45, 60
14, 805800, Note_off_c, 13, 45, 64
14, 806160, Note_on_c, 13, 45, 60
14, 806280, Note_off_c, 13, 45, 64
14, 807120, Note_on_c, 13, 45, 60
14, 807520, Note_off_c, 13, 45, 64
14, 807600, Program_c, 13, 48
14, 807600, Note_on_c, 13, 50, 60
14, 808000, Note_off_c, 13, 50, 64
14, 809040, Note_on_c, 13, 50, 60
14, 809440, Note_off_c, 13, 50, 64
14, 810480, Note_on_c, 13, 50, 60
14, 810880, Note_off_c, 13, 50, 64
14, 811920, Note_on_c, 13, 50, 60
14, 812320, Note_off_c, 13, 50, 64
14, 813360, Note_on_c, 13, 50, 60
14, 813760, Note_off_c, 13, 50, 64
14, 814800, Note_on_c, 13, 50, 60
14, 815200, Note_off_c, 13, 50, 64
14, 816240, Note_on_c, 13, 50, 60
14, 816640, Note_off_c, 13, 50, 64
14, 817200, Note_on_c, 13, 45, 60
14, 817600, Note_off_c, 13, 45, 64
14, 817680, Note_on_c, 13, 50, 60
14, 818080, Note_off_c, 13, 50, 64
14, 828240, Note_on_c, 13, 43, 60
14, 828360, Note_off_c, 13, 43, 64
14, 828720, Note_on_c, 13, 45, 60
14, 828840, Note_off_c, 13, 45, 64
14, 829200, Note_on_c, 13, 47, 60
14, 829320, Note_off_c, 13, 47, 64
14, 829680, Note_on_c, 13, 43, 60
14, 829800, Note_off_c, 13, 43, 64
14, 830160, Note_on_c, 13, 43, 60
14, 830560, Note_off_c, 13, 43, 64
14, 830640, Note_on_c, 13, 48, 60
14, 831040, Note_off_c, 13, 48, 64
14, 832080, Note_on_c, 13, 48, 60
14, 832480, Note_off_c, 13, 48, 64
14, 833520, Note_on_c, 13, 48, 60
14, 833920, Note_off_c, 13, 48, 64
14, 834960, Note_on_c, 13, 48, 60
14, 835360, Note_off_c, 13, 48, 64
14, 836400, Note_on_c, 13, 48, 60
14, 836800, Note_off_c, 13, 48, 64
14, 837840, Note_on_c, 13, 48, 60
14, 838240, Note_off_c, 13, 48, 64
14, 839280, Note_on_c, 13, 48, 60
14, 839680, Note_off_c, 13, 48, 64
14, 840240, Note_on_c, 13, 43, 60
14, 840640, Note_off_c, 13, 43, 64
14, 840720, Note_on_c, 13, 48, 60
14, 841120, Note_off_c, 13, 48, 64
14, 841680, Note_on_c, 13, 48, 66
14, 842160, Note_off_c, 13, 48, 64
14, 842160, Note_on_c, 13, 60, 69
14, 842640, Note_off_c, 13, 60, 64
14, 842640, Note_on_c, 13, 57, 72
14, 843120, Note_off_c, 13, 57, 64
14, 843120, Note_on_c, 13, 58, 75
14, 843600, Note_off_c, 13, 58, 64
14, 843600, Note_on_c, 13, 57, 78
14, 844080, Note_off_c, 13, 57, 64
14, 844080, Note_on_c, 13, 53, 81
14, 844560, Note_off_c, 13, 53, 64
14, 844560, Note_on_c, 13, 55, 84
14, 845040, Note_off_c, 13, 55, 64
14, 845040, Note_on_c, 13, 53, 88
14, 845520, Note_off_c, 13, 53, 64
14, 845520, Note_on_c, 13, 48, 92
14, 846000, Note_off_c, 13, 48, 64
14, 846000, Note_on_c, 13, 55, 96
14, 846480, Note_off_c, 13, 55, 64
14, 846480, Note_on_c, 13, 57, 100
14, 846960, Note_off_c, 13, 57, 64
14, 846960, Note_on_c, 13, 53, 104
14, 847360, Note_off_c, 13, 53, 64
14, 847440, Note_on_c, 13, 48, 127
14, 847560, Note_off_c, 13, 48, 64
14, 847920, Note_on_c, 13, 53, 127
14, 848040, Note_off_c, 13, 53, 64
14, 848400, Note_on_c, 13, 48, 108
14, 848520, Note_off_c, 13, 48, 64
14, 848880, Note_on_c, 13, 50, 108
14, 849000, Note_off_c, 13, 50, 64
14, 849360, Note_on_c, 13, 48, 108
14, 849480, Note_off_c, 13, 48, 64
14, 849840, Note_on_c, 13, 45, 108
14, 849960, Note_off_c, 13, 45, 64
14, 850320, Note_on_c, 13, 46, 108
14, 850440, Note_off_c, 13, 46, 64
14, 850800, Note_on_c, 13, 45, 108
14, 850920, Note_off_c, 13, 45, 64
14, 851280, Note_on_c, 13, 41, 108
14, 851400, Note_off_c, 13, 41, 64
14, 851760, Note_on_c, 13, 43, 108
14, 851880, Note_off_c, 13, 43, 64
14, 852240, Note_on_c, 13, 45, 108
14, 852360, Note_off_c, 13, 45, 64
14, 852720, Note_on_c, 13, 41, 108
14, 852840, Note_off_c, 13, 41, 64
14, 853200, Note_on_c, 13, 43, 108
14, 853320, Note_off_c, 13, 43, 64
14, 853680, Note_on_c, 13, 45, 108
14, 853800, Note_off_c, 13, 45, 64
14, 854160, Note_on_c, 13, 41, 108
14, 854280, Note_off_c, 13, 41, 64
14, 854640, Note_on_c, 13, 43, 108
14, 854760, Note_off_c, 13, 43, 64
14, 855120, Note_on_c, 13, 45, 108
14, 855240, Note_off_c, 13, 45, 64
14, 855600, Note_on_c, 13, 41, 108
14, 855720, Note_off_c, 13, 41, 64
14, 856080, Note_on_c, 13, 43, 108
14, 856200, Note_off_c, 13, 43, 64
14, 856560, Note_on_c, 13, 45, 108
14, 857880, Note_off_c, 13, 45, 64
14, 858000, Note_on_c, 13, 43, 108
14, 858840, Note_off_c, 13, 43, 64
14, 858960, Note_on_c, 13, 41, 108
14, 859360, Note_off_c, 13, 41, 64
14, 859440, Note_on_c, 13, 40, 108
14, 860280, Note_off_c, 13, 40, 64
14, 860400, Note_on_c, 13, 38, 108
14, 860800, Note_off_c, 13, 38, 64
14, 860880, Note_on_c, 13, 48, 108
14, 861720, Note_off_c, 13, 48, 64
14, 861840, Note_on_c, 13, 46, 108
14, 862240, Note_off_c, 13, 46, 64
14, 862320, Note_on_c, 13, 45, 108
14, 863640, Note_off_c, 13, 45, 64
14, 863760, Note_on_c, 13, 46, 108
14, 865080, Note_off_c, 13, 46, 64
14, 865200, Note_on_c, 13, 48, 108
14, 866520, Note_off_c, 13, 48, 64
14, 866640, Note_on_c, 13, 48, 108
14, 867960, Note_off_c, 13, 48, 64
14, 868080, Note_on_c, 13, 53, 108
14, 868480, Note_off_c, 13, 53, 64
14, 869040, Note_on_c, 13, 57, 108
14, 869440, Note_off_c, 13, 57, 64
14, 869520, Note_on_c, 13, 55, 108
14, 870360, Note_off_c, 13, 55, 64
14, 870480, Note_on_c, 13, 53, 108
14, 870880, Note_off_c, 13, 53, 64
14, 870960, Note_on_c, 13, 52, 108
14, 871800, Note_off_c, 13, 52, 64
14, 871920, Note_on_c, 13, 50, 108
14, 872320, Note_off_c, 13, 50, 64
14, 872400, Note_on_c, 13, 48, 108
14, 873240, Note_off_c, 13, 48, 64
14, 873360, Note_on_c, 13, 46, 108
14, 873760, Note_off_c, 13, 46, 64
14, 873840, Note_on_c, 13, 45, 108
14, 875160, Note_off_c, 13, 45, 64
14, 875280, Note_on_c, 13, 46, 108
14, 876600, Note_off_c, 13, 46, 64
14, 876720, Note_on_c, 13, 48, 108
14, 878040, Note_off_c, 13, 48, 64
14, 878160, Note_on_c, 13, 48, 108
14, 879480, Note_off_c, 13, 48, 64
14, 879600, Note_on_c, 13, 53, 92
14, 880000, Note_off_c, 13, 53, 64
14, 883920, Note_on_c, 13, 48, 92
14, 884320, Note_off_c, 13, 48, 64
14, 884400, Note_on_c, 13, 48, 92
14, 884800, Note_off_c, 13, 48, 64
14, 884880, Note_on_c, 13, 48, 92
14, 885280, Note_off_c, 13, 48, 64
14, 885360, Note_on_c, 13, 41, 92
14, 885760, Note_off_c, 13, 41, 64
14, 889680, Note_on_c, 13, 48, 92
14, 890080, Note_off_c, 13, 48, 64
14, 890160, Note_on_c, 13, 48, 92
14, 890560, Note_off_c, 13, 48, 64
14, 890640, Note_on_c, 13, 48, 92
14, 891040, Note_off_c, 13, 48, 64
14, 891120, Note_on_c, 13, 41, 92
14, 891520, Note_off_c, 13, 41, 64
14, 894000, Note_on_c, 13, 41, 92
14, 894400, Note_off_c, 13, 41, 64
14, 954480, Note_on_c, 13, 60, 45
14, 955800, Note_off_c, 13, 60, 64
14, 955920, Note_on_c, 13, 55, 52
14, 957240, Note_off_c, 13, 55, 64
14, 957360, Note_on_c, 13, 48, 59
14, 958680, Note_off_c, 13, 48, 64
14, 958800, Note_on_c, 13, 43, 67
14, 960120, Note_off_c, 13, 43, 64
14, 960240, Note_on_c, 13, 36, 75
14, 961560, Note_off_c, 13, 36, 64
14, 961680, Note_on_c, 13, 48, 75
14, 963000, Note_off_c, 13, 48, 64
14, 963120, Note_on_c, 13, 41, 75
14, 963520, Note_off_c, 13, 41, 64
14, 986160, Program_c, 13, 48
14, 986160, Note_on_c, 13, 41, 45
14, 991800, Note_off_c, 13, 41, 64
14, 991920, Note_on_c, 13, 53, 75
14, 992880, Note_off_c, 13, 53, 64
14, 992880, Note_on_c, 13, 58, 75
14, 993360, Note_off_c, 13, 58, 64
14, 993360, Note_on_c, 13, 60, 75
14, 993840, Note_off_c, 13, 60, 64
14, 993840, Note_on_c, 13, 57, 75
14, 994320, Note_off_c, 13, 57, 64
14, 994320, Note_on_c, 13, 58, 75
14, 994720, Note_off_c, 13, 58, 64
14, 994800, Note_on_c, 13, 55, 75
14, 995760, Note_off_c, 13, 55, 64
14, 995760, Note_on_c, 13, 57, 75
14, 996240, Note_off_c, 13, 57, 64
14, 996240, Note_on_c, 13, 58, 75
14, 996720, Note_off_c, 13, 58, 64
14, 996720, Note_on_c, 13, 55, 75
14, 997200, Note_off_c, 13, 55, 64
14, 997200, Note_on_c, 13, 57, 75
14, 997600, Note_off_c, 13, 57, 64
14, 997680, Note_on_c, 13, 53, 75
14, 998640, Note_off_c, 13, 53, 64
14, 998640, Note_on_c, 13, 46, 80
14, 999120, Note_off_c, 13, 46, 64
14, 999120, Note_on_c, 13, 48, 82
14, 999600, Note_off_c, 13, 48, 64
14, 999600, Note_on_c, 13, 45, 84
14, 1000080, Note_off_c, 13, 45, 64
14, 1000080, Note_on_c, 13, 46, 87
14, 1000480, Note_off_c, 13, 46, 64
14, 1000560, Note_on_c, 13, 43, 90
14, 1001520, Note_off_c, 13, 43, 64
14, 1001520, Note_on_c, 13, 45, 96
14, 1002000, Note_off_c, 13, 45, 64
14, 1002000, Note_on_c, 13, 46, 99
14, 1002480, Note_off_c, 13, 46, 64
14, 1002480, Note_on_c, 13, 43, 102
14, 1002960, Note_off_c, 13, 43, 64
14, 1002960, Note_on_c, 13, 45, 105
14, 1003360, Note_off_c, 13, 45, 64
14, 1003440, Note_on_c, 13, 41, 108
14, 1003560, Note_off_c, 13, 41, 64
14, 1004400, Note_on_c, 13, 46, 108
14, 1004520, Note_off_c, 13, 46, 64
14, 1004880, Note_on_c, 13, 48, 108
14, 1005000, Note_off_c, 13, 48, 64
14, 1005360, Note_on_c, 13, 45, 108
14, 1005480, Note_off_c, 13, 45, 64
14, 1005840, Note_on_c, 13, 46, 108
14, 1005960, Note_off_c, 13, 46, 64
14, 1006320, Note_on_c, 13, 46, 108
14, 1006440, Note_off_c, 13, 46, 64
14, 1006800, Note_on_c, 13, 43, 108
14, 1006920, Note_off_c, 13, 43, 64
14, 1007280, Note_on_c, 13, 45, 108
14, 1007400, Note_off_c, 13, 45, 64
14, 1007760, Note_on_c, 13, 45, 108
14, 1007880, Note_off_c, 13, 45, 64
14, 1008240, Note_on_c, 13, 41, 108
14, 1008360, Note_off_c, 13, 41, 64
14, 1008720, Note_on_c, 13, 43, 108
14, 1008840, Note_off_c, 13, 43, 64
14, 1009200, Note_on_c, 13, 41, 108
14, 1010040, Note_off_c, 13, 41, 64
14, 1010160, Note_on_c, 13, 41, 108
14, 1011000, Note_off_c, 13, 41, 64
14, 1011120, Note_on_c, 13, 46, 108
14, 1011960, Note_off_c, 13, 46, 64
14, 1012080, Note_on_c, 13, 41, 108
14, 1012560, Note_off_c, 13, 41, 64
14, 1012560, Note_on_c, 13, 46, 108
14, 1012960, Note_off_c, 13, 46, 64
14, 1013040, Note_on_c, 13, 41, 108
14, 1013880, Note_off_c, 13, 41, 64
14, 1014000, Note_on_c, 13, 41, 108
14, 1014840, Note_off_c, 13, 41, 64
14, 1014960, Note_on_c, 13, 46, 108
14, 1015800, Note_off_c, 13, 46, 64
14, 1015920, Note_on_c, 13, 41, 108
14, 1016400, Note_off_c, 13, 41, 64
14, 1016400, Note_on_c, 13, 46, 108
14, 1016800, Note_off_c, 13, 46, 64
14, 1016880, Note_on_c, 13, 41, 108
14, 1017720, Note_off_c, 13, 41, 64
14, 1017840, Note_on_c, 13, 41, 108
14, 1018680, Note_off_c, 13, 41, 64
14, 1018800, Note_on_c, 13, 46, 108
14, 1019640, Note_off_c, 13, 46, 64
14, 1019760, Note_on_c, 13, 41, 108
14, 1020240, Note_off_c, 13, 41, 64
14, 1020240, Note_on_c, 13, 46, 108
14, 1020640, Note_off_c, 13, 46, 64
14, 1020720, Note_on_c, 13, 41, 108
14, 1021560, Note_off_c, 13, 41, 64
14, 1021680, Note_on_c, 13, 41, 108
14, 1022520, Note_off_c, 13, 41, 64
14, 1022640, Note_on_c, 13, 46, 108
14, 1023480, Note_off_c, 13, 46, 64
14, 1023600, Note_on_c, 13, 41, 108
14, 1024080, Note_off_c, 13, 41, 64
14, 1024080, Note_on_c, 13, 46, 108
14, 1024480, Note_off_c, 13, 46, 64
14, 1026480, Note_on_c, 13, 53, 108
14, 1027320, Note_off_c, 13, 53, 64
14, 1027440, Note_on_c, 13, 48, 108
14, 1027920, Note_off_c, 13, 48, 64
14, 1027920, Note_on_c, 13, 41, 108
14, 1028320, Note_off_c, 13, 41, 64
14, 1030320, Note_on_c, 13, 53, 108
14, 1031160, Note_off_c, 13, 53, 64
14, 1031280, Note_on_c, 13, 48, 108
14, 1031760, Note_off_c, 13, 48, 64
14, 1031760, Note_on_c, 13, 41, 108
14, 1032160, Note_off_c, 13, 41, 64
14, 1032240, Program_c, 13, 48
14, 1032240, Note_on_c, 13, 48, 108
14, 1032480, Note_off_c, 13, 48, 64
14, 1032480, Note_on_c, 13, 50, 108
14, 1032600, Note_off_c, 13, 50, 64
14, 1032600, Note_on_c, 13, 48, 108
14, 1032720, Note_off_c, 13, 48, 64
14, 1032720, Note_on_c, 13, 43, 108
14, 1032960, Note_off_c, 13, 43, 64
14, 1032960, Note_on_c, 13, 45, 108
14, 1033080, Note_off_c, 13, 45, 64
14, 1033080, Note_on_c, 13, 47, 108
14, 1033195, Note_off_c, 13, 47, 64
14, 1033200, Note_on_c, 13, 48, 108
14, 1033440, Note_off_c, 13, 48, 64
14, 1033440, Note_on_c, 13, 50, 108
14, 1033560, Note_off_c, 13, 50, 64
14, 1033560, Note_on_c, 13, 48, 108
14, 1033680, Note_off_c, 13, 48, 64
14, 1033680, Note_on_c, 13, 47, 108
14, 1033920, Note_off_c, 13, 47, 64
14, 1033920, Note_on_c, 13, 48, 108
14, 1034040, Note_off_c, 13, 48, 64
14, 1034040, Note_on_c, 13, 50, 108
14, 1034155, Note_off_c, 13, 50, 64
14, 1034160, Note_on_c, 13, 52, 108
14, 1034400, Note_off_c, 13, 52, 64
14, 1034400, Note_on_c, 13, 50, 108
14, 1034520, Note_off_c, 13, 50, 64
14, 1034520, Note_on_c, 13, 52, 108
14, 1034635, Note_off_c, 13, 52, 64
14, 1034640, Note_on_c, 13, 53, 108
14, 1034880, Note_off_c, 13, 53, 64
14, 1034880, Note_on_c, 13, 55, 108
14, 1035000, Note_off_c, 13, 55, 64
14, 1035000, Note_on_c, 13, 57, 108
14, 1035115, Note_off_c, 13, 57, 64
14, 1035120, Note_on_c, 13, 55, 108
14, 1035360, Note_off_c, 13, 55, 64
14, 1035360, Note_on_c, 13, 57, 108
14, 1035480, Note_off_c, 13, 57, 64
14, 1035480, Note_on_c, 13, 54, 108
14, 1035595, Note_off_c, 13, 54, 64
14, 1035600, Note_on_c, 13, 55, 108
14, 1035835, Note_off_c, 13, 55, 64
14, 1035840, Note_on_c, 13, 43, 108
14, 1036075, Note_off_c, 13, 43, 64
14, 1036080, Note_on_c, 13, 48, 108
14, 1036320, Note_off_c, 13, 48, 64
14, 1036320, Note_on_c, 13, 50, 108
14, 1036440, Note_off_c, 13, 50, 64
14, 1036440, Note_on_c, 13, 48, 108
14, 1036555, Note_off_c, 13, 48, 64
14, 1036560, Note_on_c, 13, 43, 108
14, 1036800, Note_off_c, 13, 43, 64
14, 1036800, Note_on_c, 13, 45, 108
14, 1036920, Note_off_c, 13, 45, 64
14, 1036920, Note_on_c, 13, 46, 108
14, 1037035, Note_off_c, 13, 46, 64
14, 1037040, Note_on_c, 13, 48, 108
14, 1037280, Note_off_c, 13, 48, 64
14, 1037280, Note_on_c, 13, 50, 108
14, 1037400, Note_off_c, 13, 50, 64
14, 1037400, Note_on_c, 13, 48, 108
14, 1037515, Note_off_c, 13, 48, 64
14, 1037520, Note_on_c, 13, 47, 108
14, 1037760, Note_off_c, 13, 47, 64
14, 1037760, Note_on_c, 13, 48, 108
14, 1037880, Note_off_c, 13, 48, 64
14, 1037880, Note_on_c, 13, 50, 108
14, 1037995, Note_off_c, 13, 50, 64
14, 1038000, Note_on_c, 13, 52, 108
14, 1038240, Note_off_c, 13, 52, 64
14, 1038240, Note_on_c, 13, 50, 108
14, 1038360, Note_off_c, 13, 50, 64
14, 1038360, Note_on_c, 13, 52, 108
14, 1038475, Note_off_c, 13, 52, 64
14, 1038480, Note_on_c, 13, 53, 108
14, 1038720, Note_off_c, 13, 53, 64
14, 1038720, Note_on_c, 13, 55, 108
14, 1038840, Note_off_c, 13, 55, 64
14, 1038840, Note_on_c, 13, 57, 108
14, 1038955, Note_off_c, 13, 57, 64
14, 1038960, Note_on_c, 13, 55, 108
14, 1039200, Note_off_c, 13, 55, 64
14, 1039200, Note_on_c, 13, 57, 108
14, 1039320, Note_off_c, 13, 57, 64
14, 1039320, Note_on_c, 13, 54, 108
14, 1039435, Note_off_c, 13, 54, 64
14, 1039440, Note_on_c, 13, 55, 108
14, 1039675, Note_off_c, 13, 55, 64
14, 1039680, Note_on_c, 13, 43, 108
14, 1039915, Note_off_c, 13, 43, 64
14, 1039920, Note_on_c, 13, 48, 108
14, 1040000, Note_off_c, 13, 48, 64
14, 1040160, Note_on_c, 13, 50, 108
14, 1040275, Note_off_c, 13, 50, 64
14, 1040280, Note_on_c, 13, 48, 108
14, 1040395, Note_off_c, 13, 48, 64
14, 1040400, Note_on_c, 13, 43, 108
14, 1040635, Note_off_c, 13, 43, 64
14, 1040640, Note_on_c, 13, 45, 108
14, 1040755, Note_off_c, 13, 45, 64
14, 1040760, Note_on_c, 13, 47, 108
14, 1040875, Note_off_c, 13, 47, 64
14, 1040880, Note_on_c, 13, 48, 108
14, 1040960, Note_off_c, 13, 48, 64
14, 1041120, Note_on_c, 13, 50, 108
14, 1041235, Note_off_c, 13, 50, 64
14, 1041240, Note_on_c, 13, 48, 108
14, 1041355, Note_off_c, 13, 48, 64
14, 1041360, Note_on_c, 13, 47, 108
14, 1041595, Note_off_c, 13, 47, 64
14, 1041600, Note_on_c, 13, 48, 108
14, 1041715, Note_off_c, 13, 48, 64
14, 1041720, Note_on_c, 13, 50, 108
14, 1041835, Note_off_c, 13, 50, 64
14, 1041840, Note_on_c, 13, 52, 108
14, 1041920, Note_off_c, 13, 52, 64
14, 1042080, Note_on_c, 13, 53, 108
14, 1042195, Note_off_c, 13, 53, 64
14, 1042200, Note_on_c, 13, 52, 108
14, 1042315, Note_off_c, 13, 52, 64
14, 1042320, Note_on_c, 13, 50, 108
14, 1042555, Note_off_c, 13, 50, 64
14, 1042560, Note_on_c, 13, 52, 108
14, 1042675, Note_off_c, 13, 52, 64
14, 1042680, Note_on_c, 13, 53, 108
14, 1042795, Note_off_c, 13, 53, 64
14, 1042800, Note_on_c, 13, 55, 108
14, 1042880, Note_off_c, 13, 55, 64
14, 1043040, Note_on_c, 13, 57, 108
14, 1043155, Note_off_c, 13, 57, 64
14, 1043160, Note_on_c, 13, 53, 108
14, 1043275, Note_off_c, 13, 53, 64
14, 1043280, Note_on_c, 13, 55, 108
14, 1043515, Note_off_c, 13, 55, 64
14, 1043520, Note_on_c, 13, 57, 108
14, 1043635, Note_off_c, 13, 57, 64
14, 1043640, Note_on_c, 13, 59, 108
14, 1043755, Note_off_c, 13, 59, 64
14, 1043760, Note_on_c, 13, 60, 108
14, 1043840, Note_off_c, 13, 60, 64
14, 1044000, Note_on_c, 13, 62, 108
14, 1044115, Note_off_c, 13, 62, 64
14, 1044120, Note_on_c, 13, 59, 108
14, 1044235, Note_off_c, 13, 59, 64
14, 1044240, Note_on_c, 13, 60, 108
14, 1044475, Note_off_c, 13, 60, 64
14, 1044480, Note_on_c, 13, 62, 108
14, 1044595, Note_off_c, 13, 62, 64
14, 1044600, Note_on_c, 13, 59, 108
14, 1044715, Note_off_c, 13, 59, 64
14, 1044720, Note_on_c, 13, 60, 108
14, 1044800, Note_off_c, 13, 60, 64
14, 1044960, Note_on_c, 13, 62, 108
14, 1045075, Note_off_c, 13, 62, 64
14, 1045080, Note_on_c, 13, 59, 108
14, 1045195, Note_off_c, 13, 59, 64
14, 1045200, Note_on_c, 13, 60, 108
14, 1045435, Note_off_c, 13, 60, 64
14, 1045440, Note_on_c, 13, 62, 108
14, 1045555, Note_off_c, 13, 62, 64
14, 1045560, Note_on_c, 13, 59, 108
14, 1045675, Note_off_c, 13, 59, 64
14, 1045680, Note_on_c, 13, 60, 108
14, 1045915, Note_off_c, 13, 60, 64
14, 1046640, Note_on_c, 13, 48, 108
14, 1046875, Note_off_c, 13, 48, 64
14, 1054800, Note_on_c, 13, 55, 45
14, 1054920, Note_off_c, 13, 55, 64
14, 1055280, Note_on_c, 13, 57, 45
14, 1055400, Note_off_c, 13, 57, 64
14, 1055760, Note_on_c, 13, 53, 45
14, 1055880, Note_off_c, 13, 53, 64
14, 1056240, Note_on_c, 13, 55, 45
14, 1056360, Note_off_c, 13, 55, 64
14, 1056720, Note_on_c, 13, 53, 45
14, 1056840, Note_off_c, 13, 53, 64
14, 1057200, Note_on_c, 13, 50, 45
14, 1057320, Note_off_c, 13, 50, 64
14, 1057680, Note_on_c, 13, 52, 45
14, 1057800, Note_off_c, 13, 52, 64
14, 1058160, Note_on_c, 13, 50, 45
14, 1058280, Note_off_c, 13, 50, 64
14, 1058640, Note_on_c, 13, 45, 45
14, 1058760, Note_off_c, 13, 45, 64
14, 1059120, Note_on_c, 13, 45, 45
14, 1059240, Note_off_c, 13, 45, 64
14, 1059600, Note_on_c, 13, 45, 45
14, 1059720, Note_off_c, 13, 45, 64
14, 1060560, Note_on_c, 13, 45, 45
14, 1060960, Note_off_c, 13, 45, 64
14, 1061040, Note_on_c, 13, 50, 45
14, 1061440, Note_off_c, 13, 50, 64
14, 1062480, Note_on_c, 13, 50, 45
14, 1062880, Note_off_c, 13, 50, 64
14, 1069200, Note_on_c, 13, 46, 92
14, 1069680, Note_off_c, 13, 46, 64
14, 1069680, Note_on_c, 13, 48, 92
14, 1070080, Note_off_c, 13, 48, 64
14, 1073040, Note_on_c, 13, 48, 45
14, 1073760, Note_off_c, 13, 48, 64
14, 1076880, Program_c, 13, 45
14, 1076880, Note_on_c, 13, 41, 30
14, 1077280, Note_off_c, 13, 41, 64
14, 1078320, Note_on_c, 13, 41, 30
14, 1078720, Note_off_c, 13, 41, 64
14, 1079760, Note_on_c, 13, 41, 30
14, 1080160, Note_off_c, 13, 41, 64
14, 1081200, Note_on_c, 13, 41, 30
14, 1081600, Note_off_c, 13, 41, 64
14, 1082640, Note_on_c, 13, 41, 30
14, 1083040, Note_off_c, 13, 41, 64
14, 1084080, Note_on_c, 13, 41, 30
14, 1084480, Note_off_c, 13, 41, 64
14, 1085520, Note_on_c, 13, 41, 30
14, 1085920, Note_off_c, 13, 41, 64
14, 1086960, Note_on_c, 13, 41, 30
14, 1087360, Note_off_c, 13, 41, 64
14, 1087920, Program_c, 13, 48
14, 1087920, Note_on_c, 13, 48, 60
14, 1088400, Note_off_c, 13, 48, 64
14, 1088400, Note_on_c, 13, 53, 60
14, 1088880, Note_off_c, 13, 53, 64
14, 1088880, Note_on_c, 13, 48, 62
14, 1089360, Note_off_c, 13, 48, 64
14, 1089360, Note_on_c, 13, 50, 65
14, 1089840, Note_off_c, 13, 50, 64
14, 1089840, Note_on_c, 13, 48, 68
14, 1090320, Note_off_c, 13, 48, 64
14, 1090320, Note_on_c, 13, 45, 71
14, 1090800, Note_off_c, 13, 45, 64
14, 1090800, Note_on_c, 13, 46, 74
14, 1091280, Note_off_c, 13, 46, 64
14, 1091280, Note_on_c, 13, 45, 77
14, 1091760, Note_off_c, 13, 45, 64
14, 1091760, Note_on_c, 13, 41, 80
14, 1092240, Note_off_c, 13, 41, 64
14, 1092240, Note_on_c, 13, 43, 83
14, 1092720, Note_off_c, 13, 43, 64
14, 1092720, Note_on_c, 13, 45, 86
14, 1093200, Note_off_c, 13, 45, 64
14, 1093200, Note_on_c, 13, 41, 89
14, 1093600, Note_off_c, 13, 41, 64
14, 1093680, Note_on_c, 13, 48, 92
14, 1093800, Note_off_c, 13, 48, 64
14, 1094160, Note_on_c, 13, 53, 92
14, 1094280, Note_off_c, 13, 53, 64
14, 1094640, Note_on_c, 13, 48, 92
14, 1094760, Note_off_c, 13, 48, 64
14, 1095120, Note_on_c, 13, 50, 92
14, 1095240, Note_off_c, 13, 50, 64
14, 1095600, Note_on_c, 13, 48, 92
14, 1095720, Note_off_c, 13, 48, 64
14, 1096080, Note_on_c, 13, 45, 92
14, 1096200, Note_off_c, 13, 45, 64
14, 1096560, Note_on_c, 13, 46, 92
14, 1096680, Note_off_c, 13, 46, 64
14, 1097040, Note_on_c, 13, 45, 92
14, 1097160, Note_off_c, 13, 45, 64
14, 1097520, Note_on_c, 13, 41, 92
14, 1097640, Note_off_c, 13, 41, 64
14, 1098000, Note_on_c, 13, 43, 92
14, 1098120, Note_off_c, 13, 43, 64
14, 1098480, Note_on_c, 13, 45, 92
14, 1098880, Note_off_c, 13, 45, 64
14, 1098960, Note_on_c, 13, 41, 92
14, 1099360, Note_off_c, 13, 41, 64
14, 1099440, Note_on_c, 13, 43, 92
14, 1099840, Note_off_c, 13, 43, 64
14, 1099920, Note_on_c, 13, 45, 92
14, 1100320, Note_off_c, 13, 45, 64
14, 1100400, Note_on_c, 13, 41, 92
14, 1100800, Note_off_c, 13, 41, 64
14, 1100880, Note_on_c, 13, 43, 92
14, 1101280, Note_off_c, 13, 43, 64
14, 1101360, Note_on_c, 13, 45, 92
14, 1101760, Note_off_c, 13, 45, 64
14, 1101840, Note_on_c, 13, 41, 92
14, 1102240, Note_off_c, 13, 41, 64
14, 1102320, Note_on_c, 13, 43, 92
14, 1102720, Note_off_c, 13, 43, 64
14, 1102800, Note_on_c, 13, 45, 92
14, 1104120, Note_off_c, 13, 45, 64
14, 1104240, Note_on_c, 13, 43, 92
14, 1105080, Note_off_c, 13, 43, 64
14, 1105200, Note_on_c, 13, 41, 92
14, 1105600, Note_off_c, 13, 41, 64
14, 1105680, Note_on_c, 13, 40, 92
14, 1106520, Note_off_c, 13, 40, 64
14, 1106640, Note_on_c, 13, 38, 92
14, 1107040, Note_off_c, 13, 38, 64
14, 1107120, Note_on_c, 13, 36, 92
14, 1107960, Note_off_c, 13, 36, 64
14, 1108080, Note_on_c, 13, 46, 92
14, 1108480, Note_off_c, 13, 46, 64
14, 1108560, Note_on_c, 13, 45, 92
14, 1109880, Note_off_c, 13, 45, 64
14, 1110000, Note_on_c, 13, 46, 92
14, 1111320, Note_off_c, 13, 46, 64
14, 1111440, Note_on_c, 13, 48, 92
14, 1112760, Note_off_c, 13, 48, 64
14, 1112880, Note_on_c, 13, 36, 92
14, 1114200, Note_off_c, 13, 36, 64
14, 1114320, Note_on_c, 13, 41, 92
14, 1114720, Note_off_c, 13, 41, 64
14, 1115280, Note_on_c, 13, 57, 92
14, 1115680, Note_off_c, 13, 57, 64
14, 1115760, Note_on_c, 13, 55, 92
14, 1116600, Note_off_c, 13, 55, 64
14, 1116720, Note_on_c, 13, 53, 92
14, 1117120, Note_off_c, 13, 53, 64
14, 1117200, Note_on_c, 13, 52, 92
14, 1118040, Note_off_c, 13, 52, 64
14, 1118160, Note_on_c, 13, 50, 92
14, 1118560, Note_off_c, 13, 50, 64
14, 1118640, Note_on_c, 13, 48, 92
14, 1119480, Note_off_c, 13, 48, 64
14, 1119600, Note_on_c, 13, 46, 92
14, 1120000, Note_off_c, 13, 46, 64
14, 1120080, Note_on_c, 13, 45, 92
14, 1121400, Note_off_c, 13, 45, 64
14, 1121520, Note_on_c, 13, 46, 92
14, 1122840, Note_off_c, 13, 46, 64
14, 1122960, Note_on_c, 13, 48, 92
14, 1124280, Note_off_c, 13, 48, 64
14, 1124400, Note_on_c, 13, 36, 92
14, 1125720, Note_off_c, 13, 36, 64
14, 1125840, Note_on_c, 13, 41, 92
14, 1126240, Note_off_c, 13, 41, 64
14, 1130160, Note_on_c, 13, 48, 108
14, 1130560, Note_off_c, 13, 48, 64
14, 1130640, Note_on_c, 13, 48, 108
14, 1131040, Note_off_c, 13, 48, 64
14, 1131120, Note_on_c, 13, 48, 108
14, 1131520, Note_off_c, 13, 48, 64
14, 1131600, Note_on_c, 13, 41, 108
14, 1132000, Note_off_c, 13, 41, 64
14, 1135920, Note_on_c, 13, 48, 108
14, 1136320, Note_off_c, 13, 48, 64
14, 1136400, Note_on_c, 13, 48, 108
14, 1136800, Note_off_c, 13, 48, 64
14, 1136880, Note_on_c, 13, 48, 108
14, 1137280, Note_off_c, 13, 48, 64
14, 1137360, Note_on_c, 13, 49, 30
14, 1137475, Note_off_c, 13, 49, 64
14, 1137480, Note_on_c, 13, 49, 30
14, 1137595, Note_off_c, 13, 49, 64
14, 1137600, Note_on_c, 13, 49, 30
14, 1137715, Note_off_c, 13, 49, 64
14, 1137720, Note_on_c, 13, 49, 30
14, 1137835, Note_off_c, 13, 49, 64
14, 1137840, Note_on_c, 13, 49, 30
14, 1137955, Note_off_c, 13, 49, 64
14, 1137960, Note_on_c, 13, 49, 30
14, 1138075, Note_off_c, 13, 49, 64
14, 1138080, Note_on_c, 13, 49, 30
14, 1138195, Note_off_c, 13, 49, 64
14, 1138200, Note_on_c, 13, 49, 30
14, 1138315, Note_off_c, 13, 49, 64
14, 1138320, Note_on_c, 13, 49, 30
14, 1138435, Note_off_c, 13, 49, 64
14, 1138440, Note_on_c, 13, 49, 30
14, 1138555, Note_off_c, 13, 49, 64
14, 1138560, Note_on_c, 13, 49, 30
14, 1138675, Note_off_c, 13, 49, 64
14, 1138680, Note_on_c, 13, 49, 30
14, 1138795, Note_off_c, 13, 49, 64
14, 1138800, Note_on_c, 13, 49, 30
14, 1138915, Note_off_c, 13, 49, 64
14, 1138920, Note_on_c, 13, 49, 30
14, 1139035, Note_off_c, 13, 49, 64
14, 1139040, Note_on_c, 13, 49, 30
14, 1139155, Note_off_c, 13, 49, 64
14, 1139160, Note_on_c, 13, 49, 30
14, 1139275, Note_off_c, 13, 49, 64
14, 1139280, Note_on_c, 13, 49, 30
14, 1139395, Note_off_c, 13, 49, 64
14, 1139400, Note_on_c, 13, 49, 30
14, 1139515, Note_off_c, 13, 49, 64
14, 1139520, Note_on_c, 13, 49, 30
14, 1139635, Note_off_c, 13, 49, 64
14, 1139640, Note_on_c, 13, 49, 30
14, 1139755, Note_off_c, 13, 49, 64
14, 1139760, Note_on_c, 13, 49, 30
14, 1139875, Note_off_c, 13, 49, 64
14, 1139880, Note_on_c, 13, 49, 30
14, 1139995, Note_off_c, 13, 49, 64
14, 1140000, Note_on_c, 13, 49, 30
14, 1140115, Note_off_c, 13, 49, 64
14, 1140120, Note_on_c, 13, 49, 30
14, 1140235, Note_off_c, 13, 49, 64
14, 1140240, Note_on_c, 13, 49, 30
14, 1140355, Note_off_c, 13, 49, 64
14, 1140360, Note_on_c, 13, 49, 30
14, 1140475, Note_off_c, 13, 49, 64
14, 1140480, Note_on_c, 13, 49, 30
14, 1140595, Note_off_c, 13, 49, 64
14, 1140600, Note_on_c, 13, 49, 30
14, 1140715, Note_off_c, 13, 49, 64
14, 1140720, Note_on_c, 13, 49, 30
14, 1140835, Note_off_c, 13, 49, 64
14, 1140840, Note_on_c, 13, 49, 30
14, 1140955, Note_off_c, 13, 49, 64
14, 1140960, Note_on_c, 13, 49, 30
14, 1141075, Note_off_c, 13, 49, 64
14, 1141080, Note_on_c, 13, 49, 30
14, 1141195, Note_off_c, 13, 49, 64
14, 1141200, Note_on_c, 13, 49, 30
14, 1141600, Note_off_c, 13, 49, 64
14, 1150800, Note_on_c, 13, 50, 30
14, 1150915, Note_off_c, 13, 50, 64
14, 1150920, Note_on_c, 13, 50, 30
14, 1151035, Note_off_c, 13, 50, 64
14, 1151040, Note_on_c, 13, 50, 30
14, 1151155, Note_off_c, 13, 50, 64
14, 1151160, Note_on_c, 13, 50, 30
14, 1151275, Note_off_c, 13, 50, 64
14, 1151280, Note_on_c, 13, 50, 30
14, 1151395, Note_off_c, 13, 50, 64
14, 1151400, Note_on_c, 13, 50, 30
14, 1151515, Note_off_c, 13, 50, 64
14, 1151520, Note_on_c, 13, 50, 30
14, 1151635, Note_off_c, 13, 50, 64
14, 1151640, Note_on_c, 13, 50, 30
14, 1151755, Note_off_c, 13, 50, 64
14, 1151760, Note_on_c, 13, 50, 30
14, 1151875, Note_off_c, 13, 50, 64
14, 1151880, Note_on_c, 13, 50, 30
14, 1151995, Note_off_c, 13, 50, 64
14, 1152000, Note_on_c, 13, 50, 30
14, 1152115, Note_off_c, 13, 50, 64
14, 1152120, Note_on_c, 13, 50, 30
14, 1152235, Note_off_c, 13, 50, 64
14, 1152240, Note_on_c, 13, 50, 30
14, 1152355, Note_off_c, 13, 50, 64
14, 1152360, Note_on_c, 13, 50, 30
14, 1152475, Note_off_c, 13, 50, 64
14, 1152480, Note_on_c, 13, 50, 30
14, 1152595, Note_off_c, 13, 50, 64
14, 1152600, Note_on_c, 13, 50, 30
14, 1152715, Note_off_c, 13, 50, 64
14, 1152720, Note_on_c, 13, 50, 30
14, 1152835, Note_off_c, 13, 50, 64
14, 1152840, Note_on_c, 13, 50, 30
14, 1152955, Note_off_c, 13, 50, 64
14, 1152960, Note_on_c, 13, 50, 30
14, 1153075, Note_off_c, 13, 50, 64
14, 1153080, Note_on_c, 13, 50, 30
14, 1153195, Note_off_c, 13, 50, 64
14, 1153200, Note_on_c, 13, 50, 30
14, 1153315, Note_off_c, 13, 50, 64
14, 1153320, Note_on_c, 13, 50, 30
14, 1153435, Note_off_c, 13, 50, 64
14, 1153440, Note_on_c, 13, 50, 30
14, 1153555, Note_off_c, 13, 50, 64
14, 1153560, Note_on_c, 13, 50, 30
14, 1153675, Note_off_c, 13, 50, 64
14, 1153680, Note_on_c, 13, 50, 30
14, 1153795, Note_off_c, 13, 50, 64
14, 1153800, Note_on_c, 13, 50, 30
14, 1153915, Note_off_c, 13, 50, 64
14, 1153920, Note_on_c, 13, 50, 30
14, 1154035, Note_off_c, 13, 50, 64
14, 1154040, Note_on_c, 13, 50, 30
14, 1154155, Note_off_c, 13, 50, 64
14, 1154160, Note_on_c, 13, 50, 30
14, 1154275, Note_off_c, 13, 50, 64
14, 1154280, Note_on_c, 13, 50, 30
14, 1154395, Note_off_c, 13, 50, 64
14, 1154400, Note_on_c, 13, 50, 30
14, 1154515, Note_off_c, 13, 50, 64
14, 1154520, Note_on_c, 13, 50, 30
14, 1154635, Note_off_c, 13, 50, 64
14, 1154640, Note_on_c, 13, 50, 30
14, 1154755, Note_off_c, 13, 50, 64
14, 1154760, Note_on_c, 13, 50, 30
14, 1154875, Note_off_c, 13, 50, 64
14, 1154880, Note_on_c, 13, 50, 30
14, 1154995, Note_off_c, 13, 50, 64
14, 1155000, Note_on_c, 13, 50, 30
14, 1155115, Note_off_c, 13, 50, 64
14, 1155120, Note_on_c, 13, 50, 30
14, 1155235, Note_off_c, 13, 50, 64
14, 1155240, Note_on_c, 13, 50, 30
14, 1155355, Note_off_c, 13, 50, 64
14, 1155360, Note_on_c, 13, 50, 30
14, 1155475, Note_off_c, 13, 50, 64
14, 1155480, Note_on_c, 13, 50, 30
14, 1155595, Note_off_c, 13, 50, 64
14, 1155600, Note_on_c, 13, 50, 30
14, 1155715, Note_off_c, 13, 50, 64
14, 1155720, Note_on_c, 13, 50, 30
14, 1155835, Note_off_c, 13, 50, 64
14, 1155840, Note_on_c, 13, 50, 30
14, 1155955, Note_off_c, 13, 50, 64
14, 1155960, Note_on_c, 13, 50, 30
14, 1156075, Note_off_c, 13, 50, 64
14, 1156080, Note_on_c, 13, 50, 30
14, 1156195, Note_off_c, 13, 50, 64
14, 1156200, Note_on_c, 13, 50, 30
14, 1156315, Note_off_c, 13, 50, 64
14, 1156320, Note_on_c, 13, 50, 30
14, 1156435, Note_off_c, 13, 50, 64
14, 1156440, Note_on_c, 13, 50, 30
14, 1156555, Note_off_c, 13, 50, 64
14, 1156560, Note_on_c, 13, 50, 30
14, 1156675, Note_off_c, 13, 50, 64
14, 1156680, Note_on_c, 13, 50, 30
14, 1156795, Note_off_c, 13, 50, 64
14, 1156800, Note_on_c, 13, 50, 30
14, 1156915, Note_off_c, 13, 50, 64
14, 1156920, Note_on_c, 13, 50, 30
14, 1157035, Note_off_c, 13, 50, 64
14, 1157040, Note_on_c, 13, 50, 30
14, 1157155, Note_off_c, 13, 50, 64
14, 1157160, Note_on_c, 13, 50, 30
14, 1157275, Note_off_c, 13, 50, 64
14, 1157280, Note_on_c, 13, 50, 30
14, 1157395, Note_off_c, 13, 50, 64
14, 1157400, Note_on_c, 13, 50, 30
14, 1157515, Note_off_c, 13, 50, 64
14, 1157520, Note_on_c, 13, 50, 30
14, 1157635, Note_off_c, 13, 50, 64
14, 1157640, Note_on_c, 13, 50, 30
14, 1157755, Note_off_c, 13, 50, 64
14, 1157760, Note_on_c, 13, 50, 30
14, 1157875, Note_off_c, 13, 50, 64
14, 1157880, Note_on_c, 13, 50, 30
14, 1157995, Note_off_c, 13, 50, 64
14, 1158000, Note_on_c, 13, 50, 30
14, 1158115, Note_off_c, 13, 50, 64
14, 1158120, Note_on_c, 13, 50, 30
14, 1158235, Note_off_c, 13, 50, 64
14, 1158240, Note_on_c, 13, 50, 30
14, 1158355, Note_off_c, 13, 50, 64
14, 1158360, Note_on_c, 13, 50, 30
14, 1158475, Note_off_c, 13, 50, 64
14, 1158480, Note_on_c, 13, 51, 30
14, 1158595, Note_off_c, 13, 51, 64
14, 1158600, Note_on_c, 13, 51, 30
14, 1158715, Note_off_c, 13, 51, 64
14, 1158720, Note_on_c, 13, 51, 30
14, 1158835, Note_off_c, 13, 51, 64
14, 1158840, Note_on_c, 13, 51, 30
14, 1158955, Note_off_c, 13, 51, 64
14, 1158960, Note_on_c, 13, 51, 30
14, 1159075, Note_off_c, 13, 51, 64
14, 1159080, Note_on_c, 13, 51, 30
14, 1159195, Note_off_c, 13, 51, 64
14, 1159200, Note_on_c, 13, 51, 30
14, 1159315, Note_off_c, 13, 51, 64
14, 1159320, Note_on_c, 13, 51, 30
14, 1159435, Note_off_c, 13, 51, 64
14, 1159440, Note_on_c, 13, 51, 30
14, 1159555, Note_off_c, 13, 51, 64
14, 1159560, Note_on_c, 13, 51, 30
14, 1159675, Note_off_c, 13, 51, 64
14, 1159680, Note_on_c, 13, 51, 30
14, 1159795, Note_off_c, 13, 51, 64
14, 1159800, Note_on_c, 13, 51, 30
14, 1159915, Note_off_c, 13, 51, 64
14, 1159920, Note_on_c, 13, 51, 30
14, 1160035, Note_off_c, 13, 51, 64
14, 1160040, Note_on_c, 13, 51, 30
14, 1160155, Note_off_c, 13, 51, 64
14, 1160160, Note_on_c, 13, 51, 30
14, 1160275, Note_off_c, 13, 51, 64
14, 1160280, Note_on_c, 13, 51, 30
14, 1160395, Note_off_c, 13, 51, 64
14, 1160400, Note_on_c, 13, 51, 30
14, 1160515, Note_off_c, 13, 51, 64
14, 1160520, Note_on_c, 13, 51, 30
14, 1160635, Note_off_c, 13, 51, 64
14, 1160640, Note_on_c, 13, 51, 31
14, 1160755, Note_off_c, 13, 51, 64
14, 1160760, Note_on_c, 13, 51, 32
14, 1160875, Note_off_c, 13, 51, 64
14, 1160880, Note_on_c, 13, 51, 33
14, 1160995, Note_off_c, 13, 51, 64
14, 1161000, Note_on_c, 13, 51, 34
14, 1161115, Note_off_c, 13, 51, 64
14, 1161120, Note_on_c, 13, 51, 35
14, 1161235, Note_off_c, 13, 51, 64
14, 1161240, Note_on_c, 13, 51, 36
14, 1161355, Note_off_c, 13, 51, 64
14, 1161360, Note_on_c, 13, 51, 37
14, 1161475, Note_off_c, 13, 51, 64
14, 1161480, Note_on_c, 13, 51, 38
14, 1161595, Note_off_c, 13, 51, 64
14, 1161600, Note_on_c, 13, 51, 39
14, 1161715, Note_off_c, 13, 51, 64
14, 1161720, Note_on_c, 13, 51, 40
14, 1161835, Note_off_c, 13, 51, 64
14, 1161840, Note_on_c, 13, 51, 41
14, 1161955, Note_off_c, 13, 51, 64
14, 1161960, Note_on_c, 13, 51, 42
14, 1162075, Note_off_c, 13, 51, 64
14, 1162080, Note_on_c, 13, 51, 43
14, 1162195, Note_off_c, 13, 51, 64
14, 1162200, Note_on_c, 13, 51, 44
14, 1162315, Note_off_c, 13, 51, 64
14, 1162320, Note_on_c, 13, 51, 45
14, 1162720, Note_off_c, 13, 51, 64
14, 1170000, Note_on_c, 13, 52, 45
14, 1170115, Note_off_c, 13, 52, 64
14, 1170120, Note_on_c, 13, 52, 45
14, 1170235, Note_off_c, 13, 52, 64
14, 1170240, Note_on_c, 13, 52, 45
14, 1170355, Note_off_c, 13, 52, 64
14, 1170360, Note_on_c, 13, 52, 45
14, 1170475, Note_off_c, 13, 52, 64
14, 1170480, Note_on_c, 13, 52, 45
14, 1170595, Note_off_c, 13, 52, 64
14, 1170600, Note_on_c, 13, 52, 45
14, 1170715, Note_off_c, 13, 52, 64
14, 1170720, Note_on_c, 13, 52, 45
14, 1170835, Note_off_c, 13, 52, 64
14, 1170840, Note_on_c, 13, 52, 45
14, 1170955, Note_off_c, 13, 52, 64
14, 1170960, Note_on_c, 13, 52, 45
14, 1171075, Note_off_c, 13, 52, 64
14, 1171080, Note_on_c, 13, 52, 45
14, 1171195, Note_off_c, 13, 52, 64
14, 1171200, Note_on_c, 13, 52, 45
14, 1171315, Note_off_c, 13, 52, 64
14, 1171320, Note_on_c, 13, 52, 45
14, 1171435, Note_off_c, 13, 52, 64
14, 1171440, Note_on_c, 13, 52, 45
14, 1171555, Note_off_c, 13, 52, 64
14, 1171560, Note_on_c, 13, 52, 45
14, 1171675, Note_off_c, 13, 52, 64
14, 1171680, Note_on_c, 13, 52, 45
14, 1171795, Note_off_c, 13, 52, 64
14, 1171800, Note_on_c, 13, 52, 45
14, 1171915, Note_off_c, 13, 52, 64
14, 1171920, Note_on_c, 13, 52, 45
14, 1172035, Note_off_c, 13, 52, 64
14, 1172040, Note_on_c, 13, 52, 45
14, 1172155, Note_off_c, 13, 52, 64
14, 1172160, Note_on_c, 13, 52, 45
14, 1172275, Note_off_c, 13, 52, 64
14, 1172280, Note_on_c, 13, 52, 45
14, 1172395, Note_off_c, 13, 52, 64
14, 1172400, Note_on_c, 13, 52, 45
14, 1172515, Note_off_c, 13, 52, 64
14, 1172520, Note_on_c, 13, 52, 45
14, 1172635, Note_off_c, 13, 52, 64
14, 1172640, Note_on_c, 13, 52, 45
14, 1172755, Note_off_c, 13, 52, 64
14, 1172760, Note_on_c, 13, 52, 45
14, 1172875, Note_off_c, 13, 52, 64
14, 1172880, Note_on_c, 13, 52, 45
14, 1172995, Note_off_c, 13, 52, 64
14, 1173000, Note_on_c, 13, 52, 45
14, 1173115, Note_off_c, 13, 52, 64
14, 1173120, Note_on_c, 13, 52, 45
14, 1173235, Note_off_c, 13, 52, 64
14, 1173240, Note_on_c, 13, 52, 45
14, 1173355, Note_off_c, 13, 52, 64
14, 1173360, Note_on_c, 13, 52, 45
14, 1173475, Note_off_c, 13, 52, 64
14, 1173480, Note_on_c, 13, 52, 45
14, 1173595, Note_off_c, 13, 52, 64
14, 1173600, Note_on_c, 13, 52, 45
14, 1173715, Note_off_c, 13, 52, 64
14, 1173720, Note_on_c, 13, 52, 45
14, 1173835, Note_off_c, 13, 52, 64
14, 1173840, Note_on_c, 13, 43, 45
14, 1173995, Note_off_c, 13, 43, 64
14, 1174000, Note_on_c, 13, 44, 47
14, 1174155, Note_off_c, 13, 44, 64
14, 1174160, Note_on_c, 13, 46, 49
14, 1174315, Note_off_c, 13, 46, 64
14, 1174320, Note_on_c, 13, 43, 51
14, 1174475, Note_off_c, 13, 43, 64
14, 1174480, Note_on_c, 13, 44, 53
14, 1174635, Note_off_c, 13, 44, 64
14, 1174640, Note_on_c, 13, 46, 55
14, 1174795, Note_off_c, 13, 46, 64
14, 1174800, Note_on_c, 13, 43, 57
14, 1174955, Note_off_c, 13, 43, 64
14, 1174960, Note_on_c, 13, 44, 59
14, 1175115, Note_off_c, 13, 44, 64
14, 1175120, Note_on_c, 13, 46, 61
14, 1175275, Note_off_c, 13, 46, 64
14, 1175280, Note_on_c, 13, 43, 63
14, 1175435, Note_off_c, 13, 43, 64
14, 1175440, Note_on_c, 13, 44, 66
14, 1175595, Note_off_c, 13, 44, 64
14, 1175600, Note_on_c, 13, 46, 69
14, 1175755, Note_off_c, 13, 46, 64
14, 1175760, Note_on_c, 13, 43, 72
14, 1175915, Note_off_c, 13, 43, 64
14, 1175920, Note_on_c, 13, 44, 75
14, 1176075, Note_off_c, 13, 44, 64
14, 1176080, Note_on_c, 13, 46, 78
14, 1176235, Note_off_c, 13, 46, 64
14, 1176240, Note_on_c, 13, 43, 81
14, 1176395, Note_off_c, 13, 43, 64
14, 1176400, Note_on_c, 13, 44, 84
14, 1176555, Note_off_c, 13, 44, 64
14, 1176560, Note_on_c, 13, 46, 87
14, 1176715, Note_off_c, 13, 46, 64
14, 1176720, Note_on_c, 13, 43, 90
14, 1176875, Note_off_c, 13, 43, 64
14, 1176880, Note_on_c, 13, 44, 93
14, 1177035, Note_off_c, 13, 44, 64
14, 1177040, Note_on_c, 13, 46, 96
14, 1177195, Note_off_c, 13, 46, 64
14, 1177200, Note_on_c, 13, 43, 99
14, 1177355, Note_off_c, 13, 43, 64
14, 1177360, Note_on_c, 13, 44, 102
14, 1177515, Note_off_c, 13, 44, 64
14, 1177520, Note_on_c, 13, 46, 105
14, 1177675, Note_off_c, 13, 46, 64
14, 1177680, Note_on_c, 13, 41, 108
14, 1177800, Note_off_c, 13, 41, 64
14, 1177800, Note_on_c, 13, 43, 108
14, 1177920, Note_off_c, 13, 43, 64
14, 1177920, Note_on_c, 13, 44, 108
14, 1178040, Note_off_c, 13, 44, 64
14, 1178040, Note_on_c, 13, 46, 108
14, 1178155, Note_off_c, 13, 46, 64
14, 1178160, Note_on_c, 13, 41, 108
14, 1178280, Note_off_c, 13, 41, 64
14, 1178280, Note_on_c, 13, 43, 108
14, 1178400, Note_off_c, 13, 43, 64
14, 1178400, Note_on_c, 13, 44, 108
14, 1178520, Note_off_c, 13, 44, 64
14, 1178520, Note_on_c, 13, 46, 108
14, 1178635, Note_off_c, 13, 46, 64
14, 1178640, Note_on_c, 13, 41, 108
14, 1178760, Note_off_c, 13, 41, 64
14, 1178760, Note_on_c, 13, 43, 108
14, 1178880, Note_off_c, 13, 43, 64
14, 1178880, Note_on_c, 13, 44, 108
14, 1179000, Note_off_c, 13, 44, 64
14, 1179000, Note_on_c, 13, 46, 108
14, 1179115, Note_off_c, 13, 46, 64
14, 1179120, Note_on_c, 13, 41, 108
14, 1179240, Note_off_c, 13, 41, 64
14, 1179240, Note_on_c, 13, 43, 108
14, 1179360, Note_off_c, 13, 43, 64
14, 1179360, Note_on_c, 13, 44, 108
14, 1179480, Note_off_c, 13, 44, 64
14, 1179480, Note_on_c, 13, 46, 108
14, 1179595, Note_off_c, 13, 46, 64
14, 1179600, Note_on_c, 13, 41, 108
14, 1179720, Note_off_c, 13, 41, 64
14, 1179720, Note_on_c, 13, 43, 108
14, 1179840, Note_off_c, 13, 43, 64
14, 1179840, Note_on_c, 13, 44, 108
14, 1179960, Note_off_c, 13, 44, 64
14, 1179960, Note_on_c, 13, 46, 108
14, 1180075, Note_off_c, 13, 46, 64
14, 1180080, Note_on_c, 13, 41, 108
14, 1180200, Note_off_c, 13, 41, 64
14, 1180200, Note_on_c, 13, 43, 108
14, 1180320, Note_off_c, 13, 43, 64
14, 1180320, Note_on_c, 13, 44, 108
14, 1180440, Note_off_c, 13, 44, 64
14, 1180440, Note_on_c, 13, 46, 108
14, 1180555, Note_off_c, 13, 46, 64
14, 1180560, Note_on_c, 13, 41, 108
14, 1180680, Note_off_c, 13, 41, 64
14, 1180680, Note_on_c, 13, 43, 108
14, 1180800, Note_off_c, 13, 43, 64
14, 1180800, Note_on_c, 13, 44, 108
14, 1180920, Note_off_c, 13, 44, 64
14, 1180920, Note_on_c, 13, 46, 108
14, 1181035, Note_off_c, 13, 46, 64
14, 1181040, Note_on_c, 13, 41, 108
14, 1181160, Note_off_c, 13, 41, 64
14, 1181160, Note_on_c, 13, 43, 108
14, 1181280, Note_off_c, 13, 43, 64
14, 1181280, Note_on_c, 13, 44, 108
14, 1181400, Note_off_c, 13, 44, 64
14, 1181400, Note_on_c, 13, 46, 108
14, 1181515, Note_off_c, 13, 46, 64
14, 1181520, Note_on_c, 13, 41, 108
14, 1181640, Note_off_c, 13, 41, 64
14, 1181640, Note_on_c, 13, 43, 108
14, 1181760, Note_off_c, 13, 43, 64
14, 1181760, Note_on_c, 13, 44, 108
14, 1181880, Note_off_c, 13, 44, 64
14, 1181880, Note_on_c, 13, 46, 108
14, 1181995, Note_off_c, 13, 46, 64
14, 1182000, Note_on_c, 13, 41, 108
14, 1182120, Note_off_c, 13, 41, 64
14, 1182120, Note_on_c, 13, 43, 108
14, 1182240, Note_off_c, 13, 43, 64
14, 1182240, Note_on_c, 13, 44, 108
14, 1182360, Note_off_c, 13, 44, 64
14, 1182360, Note_on_c, 13, 46, 108
14, 1182475, Note_off_c, 13, 46, 64
14, 1182480, Note_on_c, 13, 41, 108
14, 1182600, Note_off_c, 13, 41, 64
14, 1182600, Note_on_c, 13, 43, 108
14, 1182720, Note_off_c, 13, 43, 64
14, 1182720, Note_on_c, 13, 44, 108
14, 1182840, Note_off_c, 13, 44, 64
14, 1182840, Note_on_c, 13, 46, 108
14, 1182955, Note_off_c, 13, 46, 64
14, 1182960, Note_on_c, 13, 41, 108
14, 1183080, Note_off_c, 13, 41, 64
14, 1183080, Note_on_c, 13, 43, 108
14, 1183200, Note_off_c, 13, 43, 64
14, 1183200, Note_on_c, 13, 44, 108
14, 1183320, Note_off_c, 13, 44, 64
14, 1183320, Note_on_c, 13, 46, 108
14, 1183435, Note_off_c, 13, 46, 64
14, 1183440, Note_on_c, 13, 41, 108
14, 1183560, Note_off_c, 13, 41, 64
14, 1183560, Note_on_c, 13, 43, 108
14, 1183680, Note_off_c, 13, 43, 64
14, 1183680, Note_on_c, 13, 44, 108
14, 1183800, Note_off_c, 13, 44, 64
14, 1183800, Note_on_c, 13, 46, 108
14, 1183915, Note_off_c, 13, 46, 64
14, 1183920, Note_on_c, 13, 41, 108
14, 1184040, Note_off_c, 13, 41, 64
14, 1184040, Note_on_c, 13, 43, 108
14, 1184160, Note_off_c, 13, 43, 64
14, 1184160, Note_on_c, 13, 44, 108
14, 1184280, Note_off_c, 13, 44, 64
14, 1184280, Note_on_c, 13, 46, 108
14, 1184395, Note_off_c, 13, 46, 64
14, 1184400, Note_on_c, 13, 41, 108
14, 1184520, Note_off_c, 13, 41, 64
14, 1184520, Note_on_c, 13, 43, 108
14, 1184640, Note_off_c, 13, 43, 64
14, 1184640, Note_on_c, 13, 44, 108
14, 1184760, Note_off_c, 13, 44, 64
14, 1184760, Note_on_c, 13, 46, 108
14, 1184875, Note_off_c, 13, 46, 64
14, 1184880, Note_on_c, 13, 41, 108
14, 1185000, Note_off_c, 13, 41, 64
14, 1185000, Note_on_c, 13, 43, 108
14, 1185120, Note_off_c, 13, 43, 64
14, 1185120, Note_on_c, 13, 44, 108
14, 1185240, Note_off_c, 13, 44, 64
14, 1185240, Note_on_c, 13, 46, 108
14, 1185355, Note_off_c, 13, 46, 64
14, 1185360, Note_on_c, 13, 43, 108
14, 1185480, Note_off_c, 13, 43, 64
14, 1185480, Note_on_c, 13, 44, 108
14, 1185600, Note_off_c, 13, 44, 64
14, 1185600, Note_on_c, 13, 46, 108
14, 1185720, Note_off_c, 13, 46, 64
14, 1185720, Note_on_c, 13, 48, 108
14, 1185835, Note_off_c, 13, 48, 64
14, 1185840, Note_on_c, 13, 43, 108
14, 1185960, Note_off_c, 13, 43, 64
14, 1185960, Note_on_c, 13, 44, 108
14, 1186080, Note_off_c, 13, 44, 64
14, 1186080, Note_on_c, 13, 46, 108
14, 1186200, Note_off_c, 13, 46, 64
14, 1186200, Note_on_c, 13, 48, 108
14, 1186315, Note_off_c, 13, 48, 64
14, 1186320, Note_on_c, 13, 43, 108
14, 1186440, Note_off_c, 13, 43, 64
14, 1186440, Note_on_c, 13, 44, 108
14, 1186560, Note_off_c, 13, 44, 64
14, 1186560, Note_on_c, 13, 46, 108
14, 1186680, Note_off_c, 13, 46, 64
14, 1186680, Note_on_c, 13, 48, 108
14, 1186795, Note_off_c, 13, 48, 64
14, 1186800, Note_on_c, 13, 43, 108
14, 1186920, Note_off_c, 13, 43, 64
14, 1186920, Note_on_c, 13, 44, 108
14, 1187040, Note_off_c, 13, 44, 64
14, 1187040, Note_on_c, 13, 46, 108
14, 1187160, Note_off_c, 13, 46, 64
14, 1187160, Note_on_c, 13, 48, 108
14, 1187275, Note_off_c, 13, 48, 64
14, 1187280, Note_on_c, 13, 43, 108
14, 1187400, Note_off_c, 13, 43, 64
14, 1187400, Note_on_c, 13, 44, 108
14, 1187520, Note_off_c, 13, 44, 64
14, 1187520, Note_on_c, 13, 46, 108
14, 1187640, Note_off_c, 13, 46, 64
14, 1187640, Note_on_c, 13, 48, 108
14, 1187755, Note_off_c, 13, 48, 64
14, 1187760, Note_on_c, 13, 43, 108
14, 1187880, Note_off_c, 13, 43, 64
14, 1187880, Note_on_c, 13, 44, 108
14, 1188000, Note_off_c, 13, 44, 64
14, 1188000, Note_on_c, 13, 46, 108
14, 1188120, Note_off_c, 13, 46, 64
14, 1188120, Note_on_c, 13, 48, 108
14, 1188235, Note_off_c, 13, 48, 64
14, 1188240, Note_on_c, 13, 43, 108
14, 1188360, Note_off_c, 13, 43, 64
14, 1188360, Note_on_c, 13, 44, 108
14, 1188480, Note_off_c, 13, 44, 64
14, 1188480, Note_on_c, 13, 46, 108
14, 1188600, Note_off_c, 13, 46, 64
14, 1188600, Note_on_c, 13, 48, 108
14, 1188715, Note_off_c, 13, 48, 64
14, 1188720, Note_on_c, 13, 43, 108
14, 1188840, Note_off_c, 13, 43, 64
14, 1188840, Note_on_c, 13, 44, 108
14, 1188960, Note_off_c, 13, 44, 64
14, 1188960, Note_on_c, 13, 46, 108
14, 1189080, Note_off_c, 13, 46, 64
14, 1189080, Note_on_c, 13, 48, 108
14, 1189195, Note_off_c, 13, 48, 64
14, 1189200, Note_on_c, 13, 43, 108
14, 1189320, Note_off_c, 13, 43, 64
14, 1189320, Note_on_c, 13, 44, 108
14, 1189440, Note_off_c, 13, 44, 64
14, 1189440, Note_on_c, 13, 46, 108
14, 1189560, Note_off_c, 13, 46, 64
14, 1189560, Note_on_c, 13, 48, 108
14, 1189675, Note_off_c, 13, 48, 64
14, 1189680, Note_on_c, 13, 43, 108
14, 1189800, Note_off_c, 13, 43, 64
14, 1189800, Note_on_c, 13, 44, 108
14, 1189920, Note_off_c, 13, 44, 64
14, 1189920, Note_on_c, 13, 46, 108
14, 1190040, Note_off_c, 13, 46, 64
14, 1190040, Note_on_c, 13, 48, 108
14, 1190155, Note_off_c, 13, 48, 64
14, 1190160, Note_on_c, 13, 43, 108
14, 1190280, Note_off_c, 13, 43, 64
14, 1190280, Note_on_c, 13, 44, 108
14, 1190400, Note_off_c, 13, 44, 64
14, 1190400, Note_on_c, 13, 46, 108
14, 1190520, Note_off_c, 13, 46, 64
14, 1190520, Note_on_c, 13, 48, 108
14, 1190635, Note_off_c, 13, 48, 64
14, 1190640, Note_on_c, 13, 43, 108
14, 1190760, Note_off_c, 13, 43, 64
14, 1190760, Note_on_c, 13, 44, 108
14, 1190880, Note_off_c, 13, 44, 64
14, 1190880, Note_on_c, 13, 46, 108
14, 1191000, Note_off_c, 13, 46, 64
14, 1191000, Note_on_c, 13, 48, 108
14, 1191115, Note_off_c, 13, 48, 64
14, 1191120, Note_on_c, 13, 43, 108
14, 1191240, Note_off_c, 13, 43, 64
14, 1191240, Note_on_c, 13, 44, 108
14, 1191360, Note_off_c, 13, 44, 64
14, 1191360, Note_on_c, 13, 46, 108
14, 1191480, Note_off_c, 13, 46, 64
14, 1191480, Note_on_c, 13, 48, 108
14, 1191595, Note_off_c, 13, 48, 64
14, 1191600, Note_on_c, 13, 43, 108
14, 1191720, Note_off_c, 13, 43, 64
14, 1191720, Note_on_c, 13, 44, 108
14, 1191840, Note_off_c, 13, 44, 64
14, 1191840, Note_on_c, 13, 46, 108
14, 1191960, Note_off_c, 13, 46, 64
14, 1191960, Note_on_c, 13, 48, 108
14, 1192075, Note_off_c, 13, 48, 64
14, 1192080, Note_on_c, 13, 43, 108
14, 1192200, Note_off_c, 13, 43, 64
14, 1192200, Note_on_c, 13, 44, 108
14, 1192320, Note_off_c, 13, 44, 64
14, 1192320, Note_on_c, 13, 46, 108
14, 1192440, Note_off_c, 13, 46, 64
14, 1192440, Note_on_c, 13, 48, 108
14, 1192555, Note_off_c, 13, 48, 64
14, 1192560, Note_on_c, 13, 43, 108
14, 1192680, Note_off_c, 13, 43, 64
14, 1192680, Note_on_c, 13, 44, 108
14, 1192800, Note_off_c, 13, 44, 64
14, 1192800, Note_on_c, 13, 46, 108
14, 1192920, Note_off_c, 13, 46, 64
14, 1192920, Note_on_c, 13, 48, 108
14, 1193035, Note_off_c, 13, 48, 64
14, 1193040, Note_on_c, 13, 45, 108
14, 1193160, Note_off_c, 13, 45, 64
14, 1193160, Note_on_c, 13, 46, 108
14, 1193280, Note_off_c, 13, 46, 64
14, 1193280, Note_on_c, 13, 48, 108
14, 1193400, Note_off_c, 13, 48, 64
14, 1193400, Note_on_c, 13, 49, 108
14, 1193515, Note_off_c, 13, 49, 64
14, 1193520, Note_on_c, 13, 45, 108
14, 1193640, Note_off_c, 13, 45, 64
14, 1193640, Note_on_c, 13, 46, 108
14, 1193760, Note_off_c, 13, 46, 64
14, 1193760, Note_on_c, 13, 48, 108
14, 1193880, Note_off_c, 13, 48, 64
14, 1193880, Note_on_c, 13, 49, 108
14, 1193995, Note_off_c, 13, 49, 64
14, 1194000, Note_on_c, 13, 45, 108
14, 1194120, Note_off_c, 13, 45, 64
14, 1194120, Note_on_c, 13, 46, 108
14, 1194240, Note_off_c, 13, 46, 64
14, 1194240, Note_on_c, 13, 48, 108
14, 1194360, Note_off_c, 13, 48, 64
14, 1194360, Note_on_c, 13, 49, 108
14, 1194475, Note_off_c, 13, 49, 64
14, 1194480, Note_on_c, 13, 45, 108
14, 1194600, Note_off_c, 13, 45, 64
14, 1194600, Note_on_c, 13, 46, 108
14, 1194720, Note_off_c, 13, 46, 64
14, 1194720, Note_on_c, 13, 48, 108
14, 1194840, Note_off_c, 13, 48, 64
14, 1194840, Note_on_c, 13, 49, 108
14, 1194955, Note_off_c, 13, 49, 64
14, 1194960, Note_on_c, 13, 45, 108
14, 1195080, Note_off_c, 13, 45, 64
14, 1195080, Note_on_c, 13, 46, 108
14, 1195200, Note_off_c, 13, 46, 64
14, 1195200, Note_on_c, 13, 48, 108
14, 1195320, Note_off_c, 13, 48, 64
14, 1195320, Note_on_c, 13, 49, 108
14, 1195435, Note_off_c, 13, 49, 64
14, 1195440, Note_on_c, 13, 45, 108
14, 1195560, Note_off_c, 13, 45, 64
14, 1195560, Note_on_c, 13, 46, 108
14, 1195680, Note_off_c, 13, 46, 64
14, 1195680, Note_on_c, 13, 48, 108
14, 1195800, Note_off_c, 13, 48, 64
14, 1195800, Note_on_c, 13, 49, 108
14, 1195915, Note_off_c, 13, 49, 64
14, 1195920, Note_on_c, 13, 45, 108
14, 1196040, Note_off_c, 13, 45, 64
14, 1196040, Note_on_c, 13, 46, 108
14, 1196160, Note_off_c, 13, 46, 64
14, 1196160, Note_on_c, 13, 48, 108
14, 1196280, Note_off_c, 13, 48, 64
14, 1196280, Note_on_c, 13, 49, 108
14, 1196395, Note_off_c, 13, 49, 64
14, 1196400, Note_on_c, 13, 45, 108
14, 1196520, Note_off_c, 13, 45, 64
14, 1196520, Note_on_c, 13, 46, 108
14, 1196640, Note_off_c, 13, 46, 64
14, 1196640, Note_on_c, 13, 48, 108
14, 1196760, Note_off_c, 13, 48, 64
14, 1196760, Note_on_c, 13, 49, 108
14, 1196875, Note_off_c, 13, 49, 64
14, 1196880, Note_on_c, 13, 45, 108
14, 1197000, Note_off_c, 13, 45, 64
14, 1197000, Note_on_c, 13, 46, 108
14, 1197120, Note_off_c, 13, 46, 64
14, 1197120, Note_on_c, 13, 48, 108
14, 1197240, Note_off_c, 13, 48, 64
14, 1197240, Note_on_c, 13, 49, 108
14, 1197355, Note_off_c, 13, 49, 64
14, 1197360, Note_on_c, 13, 45, 108
14, 1197480, Note_off_c, 13, 45, 64
14, 1197480, Note_on_c, 13, 46, 108
14, 1197600, Note_off_c, 13, 46, 64
14, 1197600, Note_on_c, 13, 48, 108
14, 1197720, Note_off_c, 13, 48, 64
14, 1197720, Note_on_c, 13, 49, 108
14, 1197835, Note_off_c, 13, 49, 64
14, 1197840, Note_on_c, 13, 45, 108
14, 1197960, Note_off_c, 13, 45, 64
14, 1197960, Note_on_c, 13, 46, 108
14, 1198080, Note_off_c, 13, 46, 64
14, 1198080, Note_on_c, 13, 48, 108
14, 1198200, Note_off_c, 13, 48, 64
14, 1198200, Note_on_c, 13, 49, 108
14, 1198315, Note_off_c, 13, 49, 64
14, 1198320, Note_on_c, 13, 45, 108
14, 1198440, Note_off_c, 13, 45, 64
14, 1198440, Note_on_c, 13, 46, 108
14, 1198560, Note_off_c, 13, 46, 64
14, 1198560, Note_on_c, 13, 48, 108
14, 1198680, Note_off_c, 13, 48, 64
14, 1198680, Note_on_c, 13, 49, 108
14, 1198795, Note_off_c, 13, 49, 64
14, 1198800, Note_on_c, 13, 45, 108
14, 1198920, Note_off_c, 13, 45, 64
14, 1198920, Note_on_c, 13, 46, 108
14, 1199040, Note_off_c, 13, 46, 64
14, 1199040, Note_on_c, 13, 48, 108
14, 1199160, Note_off_c, 13, 48, 64
14, 1199160, Note_on_c, 13, 49, 108
14, 1199275, Note_off_c, 13, 49, 64
14, 1199280, Note_on_c, 13, 45, 108
14, 1199400, Note_off_c, 13, 45, 64
14, 1199400, Note_on_c, 13, 46, 108
14, 1199520, Note_off_c, 13, 46, 64
14, 1199520, Note_on_c, 13, 48, 108
14, 1199640, Note_off_c, 13, 48, 64
14, 1199640, Note_on_c, 13, 49, 108
14, 1199755, Note_off_c, 13, 49, 64
14, 1199760, Note_on_c, 13, 45, 108
14, 1199880, Note_off_c, 13, 45, 64
14, 1199880, Note_on_c, 13, 46, 108
14, 1200000, Note_off_c, 13, 46, 64
14, 1200000, Note_on_c, 13, 48, 108
14, 1200120, Note_off_c, 13, 48, 64
14, 1200120, Note_on_c, 13, 49, 108
14, 1200235, Note_off_c, 13, 49, 64
14, 1200240, Note_on_c, 13, 45, 108
14, 1200360, Note_off_c, 13, 45, 64
14, 1200360, Note_on_c, 13, 46, 108
14, 1200480, Note_off_c, 13, 46, 64
14, 1200480, Note_on_c, 13, 48, 108
14, 1200600, Note_off_c, 13, 48, 64
14, 1200600, Note_on_c, 13, 49, 108
14, 1200715, Note_off_c, 13, 49, 64
14, 1200720, Note_on_c, 13, 46, 127
14, 1200835, Note_off_c, 13, 46, 64
14, 1200840, Note_on_c, 13, 46, 92
14, 1200955, Note_off_c, 13, 46, 64
14, 1200960, Note_on_c, 13, 46, 92
14, 1201075, Note_off_c, 13, 46, 64
14, 1201080, Note_on_c, 13, 46, 92
14, 1201195, Note_off_c, 13, 46, 64
14, 1201200, Note_on_c, 13, 46, 92
14, 1201315, Note_off_c, 13, 46, 64
14, 1201320, Note_on_c, 13, 46, 92
14, 1201435, Note_off_c, 13, 46, 64
14, 1201440, Note_on_c, 13, 46, 92
14, 1201555, Note_off_c, 13, 46, 64
14, 1201560, Note_on_c, 13, 46, 92
14, 1201675, Note_off_c, 13, 46, 64
14, 1201680, Note_on_c, 13, 46, 92
14, 1201795, Note_off_c, 13, 46, 64
14, 1201800, Note_on_c, 13, 46, 92
14, 1201915, Note_off_c, 13, 46, 64
14, 1201920, Note_on_c, 13, 46, 92
14, 1202035, Note_off_c, 13, 46, 64
14, 1202040, Note_on_c, 13, 46, 92
14, 1202155, Note_off_c, 13, 46, 64
14, 1202160, Note_on_c, 13, 46, 92
14, 1202275, Note_off_c, 13, 46, 64
14, 1202280, Note_on_c, 13, 46, 92
14, 1202395, Note_off_c, 13, 46, 64
14, 1202400, Note_on_c, 13, 46, 92
14, 1202515, Note_off_c, 13, 46, 64
14, 1202520, Note_on_c, 13, 46, 92
14, 1202635, Note_off_c, 13, 46, 64
14, 1202640, Note_on_c, 13, 47, 92
14, 1202755, Note_off_c, 13, 47, 64
14, 1202760, Note_on_c, 13, 47, 92
14, 1202875, Note_off_c, 13, 47, 64
14, 1202880, Note_on_c, 13, 47, 92
14, 1202995, Note_off_c, 13, 47, 64
14, 1203000, Note_on_c, 13, 47, 92
14, 1203115, Note_off_c, 13, 47, 64
14, 1203120, Note_on_c, 13, 47, 92
14, 1203235, Note_off_c, 13, 47, 64
14, 1203240, Note_on_c, 13, 47, 92
14, 1203355, Note_off_c, 13, 47, 64
14, 1203360, Note_on_c, 13, 47, 92
14, 1203475, Note_off_c, 13, 47, 64
14, 1203480, Note_on_c, 13, 47, 92
14, 1203595, Note_off_c, 13, 47, 64
14, 1203600, Note_on_c, 13, 47, 92
14, 1203715, Note_off_c, 13, 47, 64
14, 1203720, Note_on_c, 13, 47, 92
14, 1203835, Note_off_c, 13, 47, 64
14, 1203840, Note_on_c, 13, 47, 92
14, 1203955, Note_off_c, 13, 47, 64
14, 1203960, Note_on_c, 13, 47, 92
14, 1204075, Note_off_c, 13, 47, 64
14, 1204080, Note_on_c, 13, 47, 92
14, 1204195, Note_off_c, 13, 47, 64
14, 1204200, Note_on_c, 13, 47, 92
14, 1204315, Note_off_c, 13, 47, 64
14, 1204320, Note_on_c, 13, 47, 92
14, 1204435, Note_off_c, 13, 47, 64
14, 1204440, Note_on_c, 13, 47, 92
14, 1204555, Note_off_c, 13, 47, 64
14, 1204560, Note_on_c, 13, 48, 92
14, 1204960, Note_off_c, 13, 48, 64
14, 1205520, Note_on_c, 13, 60, 108
14, 1206160, Note_off_c, 13, 60, 64
14, 1206240, Note_on_c, 13, 55, 108
14, 1206320, Note_off_c, 13, 55, 64
14, 1206480, Note_on_c, 13, 56, 108
14, 1206560, Note_off_c, 13, 56, 64
14, 1206720, Note_on_c, 13, 52, 108
14, 1206800, Note_off_c, 13, 52, 64
14, 1206960, Note_on_c, 13, 53, 108
14, 1207040, Note_off_c, 13, 53, 64
14, 1207200, Note_on_c, 13, 48, 108
14, 1207280, Note_off_c, 13, 48, 64
14, 1207440, Note_on_c, 13, 49, 108
14, 1207520, Note_off_c, 13, 49, 64
14, 1207680, Note_on_c, 13, 48, 108
14, 1207760, Note_off_c, 13, 48, 64
14, 1207920, Note_on_c, 13, 48, 108
14, 1208000, Note_off_c, 13, 48, 64
14, 1208160, Note_on_c, 13, 46, 108
14, 1208240, Note_off_c, 13, 46, 64
14, 1208400, Note_on_c, 13, 44, 108
14, 1208800, Note_off_c, 13, 44, 64
14, 1209360, Note_on_c, 13, 56, 108
14, 1210000, Note_off_c, 13, 56, 64
14, 1210080, Note_on_c, 13, 52, 108
14, 1210160, Note_off_c, 13, 52, 64
14, 1210320, Note_on_c, 13, 53, 108
14, 1210400, Note_off_c, 13, 53, 64
14, 1210560, Note_on_c, 13, 48, 108
14, 1210640, Note_off_c, 13, 48, 64
14, 1210800, Note_on_c, 13, 49, 108
14, 1210880, Note_off_c, 13, 49, 64
14, 1211040, Note_on_c, 13, 44, 108
14, 1211120, Note_off_c, 13, 44, 64
14, 1211280, Note_on_c, 13, 46, 108
14, 1211360, Note_off_c, 13, 46, 64
14, 1211520, Note_on_c, 13, 44, 108
14, 1211600, Note_off_c, 13, 44, 64
14, 1211760, Note_on_c, 13, 44, 108
14, 1211840, Note_off_c, 13, 44, 64
14, 1212000, Note_on_c, 13, 43, 108
14, 1212080, Note_off_c, 13, 43, 64
14, 1212240, Note_on_c, 13, 41, 108
14, 1212640, Note_off_c, 13, 41, 64
14, 1213200, Note_on_c, 13, 53, 108
14, 1213840, Note_off_c, 13, 53, 64
14, 1213920, Note_on_c, 13, 48, 108
14, 1214000, Note_off_c, 13, 48, 64
14, 1214160, Note_on_c, 13, 49, 108
14, 1214240, Note_off_c, 13, 49, 64
14, 1214400, Note_on_c, 13, 44, 108
14, 1214480, Note_off_c, 13, 44, 64
14, 1214640, Note_on_c, 13, 46, 108
14, 1214720, Note_off_c, 13, 46, 64
14, 1214880, Note_on_c, 13, 41, 108
14, 1214960, Note_off_c, 13, 41, 64
14, 1215120, Note_on_c, 13, 42, 108
14, 1215200, Note_off_c, 13, 42, 64
14, 1215360, Note_on_c, 13, 41, 108
14, 1215440, Note_off_c, 13, 41, 64
14, 1215600, Note_on_c, 13, 41, 108
14, 1215680, Note_off_c, 13, 41, 64
14, 1215840, Note_on_c, 13, 39, 108
14, 1215920, Note_off_c, 13, 39, 64
14, 1216080, Note_on_c, 13, 37, 30
14, 1216195, Note_off_c, 13, 37, 64
14, 1216200, Note_on_c, 13, 36, 30
14, 1216315, Note_off_c, 13, 36, 64
14, 1216320, Note_on_c, 13, 37, 30
14, 1216435, Note_off_c, 13, 37, 64
14, 1216440, Note_on_c, 13, 39, 30
14, 1216555, Note_off_c, 13, 39, 64
14, 1216560, Note_on_c, 13, 41, 30
14, 1216675, Note_off_c, 13, 41, 64
14, 1216680, Note_on_c, 13, 39, 30
14, 1216795, Note_off_c, 13, 39, 64
14, 1216800, Note_on_c, 13, 41, 30
14, 1216915, Note_off_c, 13, 41, 64
14, 1216920, Note_on_c, 13, 42, 30
14, 1217035, Note_off_c, 13, 42, 64
14, 1217040, Note_on_c, 13, 44, 30
14, 1217155, Note_off_c, 13, 44, 64
14, 1217160, Note_on_c, 13, 46, 30
14, 1217275, Note_off_c, 13, 46, 64
14, 1217280, Note_on_c, 13, 44, 30
14, 1217395, Note_off_c, 13, 44, 64
14, 1217400, Note_on_c, 13, 42, 30
14, 1217515, Note_off_c, 13, 42, 64
14, 1217520, Note_on_c, 13, 41, 30
14, 1217635, Note_off_c, 13, 41, 64
14, 1217640, Note_on_c, 13, 39, 30
14, 1217755, Note_off_c, 13, 39, 64
14, 1217760, Note_on_c, 13, 41, 30
14, 1217875, Note_off_c, 13, 41, 64
14, 1217880, Note_on_c, 13, 42, 30
14, 1217995, Note_off_c, 13, 42, 64
14, 1218000, Note_on_c, 13, 44, 30
14, 1218115, Note_off_c, 13, 44, 64
14, 1218120, Note_on_c, 13, 46, 30
14, 1218235, Note_off_c, 13, 46, 64
14, 1218240, Note_on_c, 13, 44, 30
14, 1218355, Note_off_c, 13, 44, 64
14, 1218360, Note_on_c, 13, 42, 30
14, 1218475, Note_off_c, 13, 42, 64
14, 1218480, Note_on_c, 13, 41, 30
14, 1218595, Note_off_c, 13, 41, 64
14, 1218600, Note_on_c, 13, 42, 30
14, 1218715, Note_off_c, 13, 42, 64
14, 1218720, Note_on_c, 13, 41, 30
14, 1218835, Note_off_c, 13, 41, 64
14, 1218840, Note_on_c, 13, 39, 30
14, 1218955, Note_off_c, 13, 39, 64
14, 1218960, Note_on_c, 13, 37, 30
14, 1219075, Note_off_c, 13, 37, 64
14, 1219080, Note_on_c, 13, 36, 30
14, 1219195, Note_off_c, 13, 36, 64
14, 1219200, Note_on_c, 13, 37, 30
14, 1219315, Note_off_c, 13, 37, 64
14, 1219320, Note_on_c, 13, 39, 30
14, 1219435, Note_off_c, 13, 39, 64
14, 1219440, Note_on_c, 13, 41, 30
14, 1219555, Note_off_c, 13, 41, 64
14, 1219560, Note_on_c, 13, 42, 30
14, 1219675, Note_off_c, 13, 42, 64
14, 1219680, Note_on_c, 13, 41, 30
14, 1219795, Note_off_c, 13, 41, 64
14, 1219800, Note_on_c, 13, 39, 30
14, 1219915, Note_off_c, 13, 39, 64
14, 1219920, Note_on_c, 13, 37, 92
14, 1220320, Note_off_c, 13, 37, 64
14, 1223760, Note_on_c, 13, 47, 45
14, 1223875, Note_off_c, 13, 47, 64
14, 1223880, Note_on_c, 13, 48, 45
14, 1223995, Note_off_c, 13, 48, 64
14, 1224000, Note_on_c, 13, 50, 45
14, 1224115, Note_off_c, 13, 50, 64
14, 1224120, Note_on_c, 13, 48, 45
14, 1224235, Note_off_c, 13, 48, 64
14, 1224240, Note_on_c, 13, 47, 45
14, 1224355, Note_off_c, 13, 47, 64
14, 1224360, Note_on_c, 13, 48, 45
14, 1224475, Note_off_c, 13, 48, 64
14, 1224480, Note_on_c, 13, 50, 45
14, 1224595, Note_off_c, 13, 50, 64
14, 1224600, Note_on_c, 13, 51, 45
14, 1224715, Note_off_c, 13, 51, 64
14, 1224720, Note_on_c, 13, 53, 45
14, 1224835, Note_off_c, 13, 53, 64
14, 1224840, Note_on_c, 13, 55, 45
14, 1224955, Note_off_c, 13, 55, 64
14, 1224960, Note_on_c, 13, 53, 45
14, 1225075, Note_off_c, 13, 53, 64
14, 1225080, Note_on_c, 13, 51, 45
14, 1225195, Note_off_c, 13, 51, 64
14, 1225200, Note_on_c, 13, 50, 45
14, 1225315, Note_off_c, 13, 50, 64
14, 1225320, Note_on_c, 13, 51, 45
14, 1225435, Note_off_c, 13, 51, 64
14, 1225440, Note_on_c, 13, 50, 45
14, 1225555, Note_off_c, 13, 50, 64
14, 1225560, Note_on_c, 13, 48, 45
14, 1225675, Note_off_c, 13, 48, 64
14, 1225680, Note_on_c, 13, 47, 45
14, 1225795, Note_off_c, 13, 47, 64
14, 1225800, Note_on_c, 13, 48, 45
14, 1225915, Note_off_c, 13, 48, 64
14, 1225920, Note_on_c, 13, 50, 45
14, 1226035, Note_off_c, 13, 50, 64
14, 1226040, Note_on_c, 13, 51, 45
14, 1226155, Note_off_c, 13, 51, 64
14, 1226160, Note_on_c, 13, 53, 45
14, 1226275, Note_off_c, 13, 53, 64
14, 1226280, Note_on_c, 13, 51, 45
14, 1226395, Note_off_c, 13, 51, 64
14, 1226400, Note_on_c, 13, 50, 45
14, 1226515, Note_off_c, 13, 50, 64
14, 1226520, Note_on_c, 13, 48, 45
14, 1226635, Note_off_c, 13, 48, 64
14, 1226640, Note_on_c, 13, 47, 45
14, 1226755, Note_off_c, 13, 47, 64
14, 1226760, Note_on_c, 13, 48, 45
14, 1226875, Note_off_c, 13, 48, 64
14, 1226880, Note_on_c, 13, 50, 45
14, 1226995, Note_off_c, 13, 50, 64
14, 1227000, Note_on_c, 13, 48, 45
14, 1227115, Note_off_c, 13, 48, 64
14, 1227120, Note_on_c, 13, 47, 45
14, 1227235, Note_off_c, 13, 47, 64
14, 1227240, Note_on_c, 13, 48, 45
14, 1227355, Note_off_c, 13, 48, 64
14, 1227360, Note_on_c, 13, 50, 45
14, 1227475, Note_off_c, 13, 50, 64
14, 1227480, Note_on_c, 13, 48, 45
14, 1227595, Note_off_c, 13, 48, 64
14, 1227600, Note_on_c, 13, 47, 92
14, 1228000, Note_off_c, 13, 47, 64
14, 1231440, Note_on_c, 13, 48, 45
14, 1231555, Note_off_c, 13, 48, 64
14, 1231560, Note_on_c, 13, 50, 45
14, 1231675, Note_off_c, 13, 50, 64
14, 1231680, Note_on_c, 13, 48, 45
14, 1231795, Note_off_c, 13, 48, 64
14, 1231800, Note_on_c, 13, 50, 45
14, 1231915, Note_off_c, 13, 50, 64
14, 1231920, Note_on_c, 13, 51, 45
14, 1232035, Note_off_c, 13, 51, 64
14, 1232040, Note_on_c, 13, 53, 46
14, 1232155, Note_off_c, 13, 53, 64
14, 1232160, Note_on_c, 13, 51, 47
14, 1232275, Note_off_c, 13, 51, 64
14, 1232280, Note_on_c, 13, 53, 48
14, 1232395, Note_off_c, 13, 53, 64
14, 1232400, Note_on_c, 13, 55, 49
14, 1232515, Note_off_c, 13, 55, 64
14, 1232520, Note_on_c, 13, 56, 50
14, 1232635, Note_off_c, 13, 56, 64
14, 1232640, Note_on_c, 13, 55, 51
14, 1232755, Note_off_c, 13, 55, 64
14, 1232760, Note_on_c, 13, 53, 52
14, 1232875, Note_off_c, 13, 53, 64
14, 1232880, Note_on_c, 13, 51, 53
14, 1232995, Note_off_c, 13, 51, 64
14, 1233000, Note_on_c, 13, 53, 54
14, 1233115, Note_off_c, 13, 53, 64
14, 1233120, Note_on_c, 13, 51, 56
14, 1233235, Note_off_c, 13, 51, 64
14, 1233240, Note_on_c, 13, 50, 58
14, 1233355, Note_off_c, 13, 50, 64
14, 1233360, Note_on_c, 13, 48, 60
14, 1233475, Note_off_c, 13, 48, 64
14, 1233480, Note_on_c, 13, 50, 62
14, 1233595, Note_off_c, 13, 50, 64
14, 1233600, Note_on_c, 13, 51, 64
14, 1233715, Note_off_c, 13, 51, 64
14, 1233720, Note_on_c, 13, 53, 66
14, 1233835, Note_off_c, 13, 53, 64
14, 1233840, Note_on_c, 13, 55, 68
14, 1233955, Note_off_c, 13, 55, 64
14, 1233960, Note_on_c, 13, 56, 70
14, 1234075, Note_off_c, 13, 56, 64
14, 1234080, Note_on_c, 13, 55, 72
14, 1234195, Note_off_c, 13, 55, 64
14, 1234200, Note_on_c, 13, 53, 74
14, 1234315, Note_off_c, 13, 53, 64
14, 1234320, Note_on_c, 13, 51, 76
14, 1234435, Note_off_c, 13, 51, 64
14, 1234440, Note_on_c, 13, 53, 78
14, 1234555, Note_off_c, 13, 53, 64
14, 1234560, Note_on_c, 13, 51, 80
14, 1234675, Note_off_c, 13, 51, 64
14, 1234680, Note_on_c, 13, 50, 82
14, 1234795, Note_off_c, 13, 50, 64
14, 1234800, Note_on_c, 13, 48, 84
14, 1234915, Note_off_c, 13, 48, 64
14, 1234920, Note_on_c, 13, 46, 86
14, 1235035, Note_off_c, 13, 46, 64
14, 1235040, Note_on_c, 13, 44, 88
14, 1235155, Note_off_c, 13, 44, 64
14, 1235160, Note_on_c, 13, 43, 90
14, 1235275, Note_off_c, 13, 43, 64
14, 1235280, Note_on_c, 13, 42, 92
14, 1235680, Note_off_c, 13, 42, 64
14, 1237200, Note_on_c, 13, 41, 92
14, 1237600, Note_off_c, 13, 41, 64
14, 1239120, Note_on_c, 13, 46, 92
14, 1239520, Note_off_c, 13, 46, 64
14, 1241040, Note_on_c, 13, 43, 92
14, 1241440, Note_off_c, 13, 43, 64
14, 1242960, Note_on_c, 13, 48, 92
14, 1243360, Note_off_c, 13, 48, 64
14, 1243920, Note_on_c, 13, 46, 92
14, 1244320, Note_off_c, 13, 46, 64
14, 1244880, Note_on_c, 13, 45, 92
14, 1245280, Note_off_c, 13, 45, 64
14, 1260240, Note_on_c, 13, 38, 45
14, 1260355, Note_off_c, 13, 38, 64
14, 1260360, Note_on_c, 13, 38, 45
14, 1260475, Note_off_c, 13, 38, 64
14, 1260480, Note_on_c, 13, 38, 45
14, 1260595, Note_off_c, 13, 38, 64
14, 1260600, Note_on_c, 13, 38, 45
14, 1260715, Note_off_c, 13, 38, 64
14, 1260720, Note_on_c, 13, 38, 45
14, 1260835, Note_off_c, 13, 38, 64
14, 1260840, Note_on_c, 13, 38, 45
14, 1260955, Note_off_c, 13, 38, 64
14, 1260960, Note_on_c, 13, 38, 45
14, 1261075, Note_off_c, 13, 38, 64
14, 1261080, Note_on_c, 13, 38, 45
14, 1261195, Note_off_c, 13, 38, 64
14, 1261200, Note_on_c, 13, 38, 45
14, 1261315, Note_off_c, 13, 38, 64
14, 1261320, Note_on_c, 13, 38, 45
14, 1261435, Note_off_c, 13, 38, 64
14, 1261440, Note_on_c, 13, 38, 45
14, 1261555, Note_off_c, 13, 38, 64
14, 1261560, Note_on_c, 13, 38, 45
14, 1261675, Note_off_c, 13, 38, 64
14, 1261680, Note_on_c, 13, 38, 45
14, 1261795, Note_off_c, 13, 38, 64
14, 1261800, Note_on_c, 13, 38, 45
14, 1261915, Note_off_c, 13, 38, 64
14, 1261920, Note_on_c, 13, 38, 45
14, 1262035, Note_off_c, 13, 38, 64
14, 1262040, Note_on_c, 13, 38, 45
14, 1262155, Note_off_c, 13, 38, 64
14, 1262160, Note_on_c, 13, 38, 45
14, 1262275, Note_off_c, 13, 38, 64
14, 1262280, Note_on_c, 13, 38, 45
14, 1262395, Note_off_c, 13, 38, 64
14, 1262400, Note_on_c, 13, 38, 45
14, 1262515, Note_off_c, 13, 38, 64
14, 1262520, Note_on_c, 13, 38, 45
14, 1262635, Note_off_c, 13, 38, 64
14, 1262640, Note_on_c, 13, 38, 45
14, 1262755, Note_off_c, 13, 38, 64
14, 1262760, Note_on_c, 13, 38, 45
14, 1262875, Note_off_c, 13, 38, 64
14, 1262880, Note_on_c, 13, 38, 45
14, 1262995, Note_off_c, 13, 38, 64
14, 1263000, Note_on_c, 13, 38, 45
14, 1263115, Note_off_c, 13, 38, 64
14, 1263120, Note_on_c, 13, 38, 45
14, 1263235, Note_off_c, 13, 38, 64
14, 1263240, Note_on_c, 13, 38, 45
14, 1263355, Note_off_c, 13, 38, 64
14, 1263360, Note_on_c, 13, 38, 45
14, 1263475, Note_off_c, 13, 38, 64
14, 1263480, Note_on_c, 13, 38, 45
14, 1263595, Note_off_c, 13, 38, 64
14, 1263600, Note_on_c, 13, 38, 45
14, 1263715, Note_off_c, 13, 38, 64
14, 1263720, Note_on_c, 13, 38, 45
14, 1263835, Note_off_c, 13, 38, 64
14, 1263840, Note_on_c, 13, 38, 45
14, 1263955, Note_off_c, 13, 38, 64
14, 1263960, Note_on_c, 13, 38, 45
14, 1264075, Note_off_c, 13, 38, 64
14, 1264080, Note_on_c, 13, 38, 45
14, 1264480, Note_off_c, 13, 38, 64
14, 1267920, Note_on_c, 13, 42, 45
14, 1268040, Note_off_c, 13, 42, 64
14, 1268040, Note_on_c, 13, 43, 45
14, 1268160, Note_off_c, 13, 43, 64
14, 1268160, Note_on_c, 13, 45, 45
14, 1268240, Note_off_c, 13, 45, 64
14, 1268240, Note_on_c, 13, 46, 45
14, 1268320, Note_off_c, 13, 46, 64
14, 1268320, Note_on_c, 13, 48, 45
14, 1268395, Note_off_c, 13, 48, 64
14, 1268400, Note_on_c, 13, 42, 45
14, 1268520, Note_off_c, 13, 42, 64
14, 1268520, Note_on_c, 13, 43, 45
14, 1268640, Note_off_c, 13, 43, 64
14, 1268640, Note_on_c, 13, 45, 45
14, 1268720, Note_off_c, 13, 45, 64
14, 1268720, Note_on_c, 13, 46, 45
14, 1268800, Note_off_c, 13, 46, 64
14, 1268800, Note_on_c, 13, 48, 45
14, 1268875, Note_off_c, 13, 48, 64
14, 1268880, Note_on_c, 13, 42, 45
14, 1269000, Note_off_c, 13, 42, 64
14, 1269000, Note_on_c, 13, 43, 45
14, 1269120, Note_off_c, 13, 43, 64
14, 1269120, Note_on_c, 13, 45, 45
14, 1269200, Note_off_c, 13, 45, 64
14, 1269200, Note_on_c, 13, 46, 45
14, 1269280, Note_off_c, 13, 46, 64
14, 1269280, Note_on_c, 13, 48, 45
14, 1269355, Note_off_c, 13, 48, 64
14, 1269360, Note_on_c, 13, 42, 45
14, 1269480, Note_off_c, 13, 42, 64
14, 1269480, Note_on_c, 13, 43, 45
14, 1269600, Note_off_c, 13, 43, 64
14, 1269600, Note_on_c, 13, 45, 45
14, 1269680, Note_off_c, 13, 45, 64
14, 1269680, Note_on_c, 13, 46, 45
14, 1269760, Note_off_c, 13, 46, 64
14, 1269760, Note_on_c, 13, 48, 45
14, 1269835, Note_off_c, 13, 48, 64
14, 1269840, Note_on_c, 13, 42, 45
14, 1269960, Note_off_c, 13, 42, 64
14, 1269960, Note_on_c, 13, 43, 45
14, 1270080, Note_off_c, 13, 43, 64
14, 1270080, Note_on_c, 13, 45, 45
14, 1270160, Note_off_c, 13, 45, 64
14, 1270160, Note_on_c, 13, 46, 45
14, 1270240, Note_off_c, 13, 46, 64
14, 1270240, Note_on_c, 13, 48, 45
14, 1270315, Note_off_c, 13, 48, 64
14, 1270320, Note_on_c, 13, 42, 45
14, 1270440, Note_off_c, 13, 42, 64
14, 1270440, Note_on_c, 13, 43, 45
14, 1270560, Note_off_c, 13, 43, 64
14, 1270560, Note_on_c, 13, 45, 45
14, 1270640, Note_off_c, 13, 45, 64
14, 1270640, Note_on_c, 13, 46, 45
14, 1270720, Note_off_c, 13, 46, 64
14, 1270720, Note_on_c, 13, 48, 45
14, 1270795, Note_off_c, 13, 48, 64
14, 1270800, Note_on_c, 13, 42, 45
14, 1270920, Note_off_c, 13, 42, 64
14, 1270920, Note_on_c, 13, 43, 45
14, 1271040, Note_off_c, 13, 43, 64
14, 1271040, Note_on_c, 13, 45, 45
14, 1271120, Note_off_c, 13, 45, 64
14, 1271120, Note_on_c, 13, 46, 45
14, 1271200, Note_off_c, 13, 46, 64
14, 1271200, Note_on_c, 13, 48, 45
14, 1271275, Note_off_c, 13, 48, 64
14, 1271280, Note_on_c, 13, 42, 45
14, 1271400, Note_off_c, 13, 42, 64
14, 1271400, Note_on_c, 13, 43, 45
14, 1271520, Note_off_c, 13, 43, 64
14, 1271520, Note_on_c, 13, 45, 45
14, 1271600, Note_off_c, 13, 45, 64
14, 1271600, Note_on_c, 13, 46, 45
14, 1271680, Note_off_c, 13, 46, 64
14, 1271680, Note_on_c, 13, 48, 45
14, 1271755, Note_off_c, 13, 48, 64
14, 1271760, Note_on_c, 13, 42, 45
14, 1272160, Note_off_c, 13, 42, 64
14, 1275600, Note_on_c, 13, 41, 45
14, 1275720, Note_off_c, 13, 41, 64
14, 1275720, Note_on_c, 13, 43, 45
14, 1275840, Note_off_c, 13, 43, 64
14, 1275840, Note_on_c, 13, 45, 45
14, 1275960, Note_off_c, 13, 45, 64
14, 1275960, Note_on_c, 13, 46, 45
14, 1276075, Note_off_c, 13, 46, 64
14, 1276080, Note_on_c, 13, 41, 45
14, 1276200, Note_off_c, 13, 41, 64
14, 1276200, Note_on_c, 13, 43, 45
14, 1276320, Note_off_c, 13, 43, 64
14, 1276320, Note_on_c, 13, 45, 45
14, 1276440, Note_off_c, 13, 45, 64
14, 1276440, Note_on_c, 13, 46, 45
14, 1276555, Note_off_c, 13, 46, 64
14, 1276560, Note_on_c, 13, 41, 45
14, 1276680, Note_off_c, 13, 41, 64
14, 1276680, Note_on_c, 13, 43, 45
14, 1276800, Note_off_c, 13, 43, 64
14, 1276800, Note_on_c, 13, 45, 45
14, 1276920, Note_off_c, 13, 45, 64
14, 1276920, Note_on_c, 13, 46, 45
14, 1277035, Note_off_c, 13, 46, 64
14, 1277040, Note_on_c, 13, 41, 45
14, 1277160, Note_off_c, 13, 41, 64
14, 1277160, Note_on_c, 13, 43, 45
14, 1277280, Note_off_c, 13, 43, 64
14, 1277280, Note_on_c, 13, 45, 45
14, 1277400, Note_off_c, 13, 45, 64
14, 1277400, Note_on_c, 13, 46, 45
14, 1277515, Note_off_c, 13, 46, 64
14, 1277520, Note_on_c, 13, 41, 46
14, 1277640, Note_off_c, 13, 41, 64
14, 1277640, Note_on_c, 13, 43, 47
14, 1277760, Note_off_c, 13, 43, 64
14, 1277760, Note_on_c, 13, 45, 48
14, 1277880, Note_off_c, 13, 45, 64
14, 1277880, Note_on_c, 13, 46, 49
14, 1277995, Note_off_c, 13, 46, 64
14, 1278000, Note_on_c, 13, 41, 50
14, 1278120, Note_off_c, 13, 41, 64
14, 1278120, Note_on_c, 13, 43, 51
14, 1278240, Note_off_c, 13, 43, 64
14, 1278240, Note_on_c, 13, 45, 52
14, 1278360, Note_off_c, 13, 45, 64
14, 1278360, Note_on_c, 13, 46, 53
14, 1278475, Note_off_c, 13, 46, 64
14, 1278480, Note_on_c, 13, 41, 54
14, 1278600, Note_off_c, 13, 41, 64
14, 1278600, Note_on_c, 13, 43, 55
14, 1278720, Note_off_c, 13, 43, 64
14, 1278720, Note_on_c, 13, 45, 56
14, 1278840, Note_off_c, 13, 45, 64
14, 1278840, Note_on_c, 13, 46, 57
14, 1278955, Note_off_c, 13, 46, 64
14, 1278960, Note_on_c, 13, 41, 58
14, 1279080, Note_off_c, 13, 41, 64
14, 1279080, Note_on_c, 13, 43, 59
14, 1279200, Note_off_c, 13, 43, 64
14, 1279200, Note_on_c, 13, 45, 60
14, 1279320, Note_off_c, 13, 45, 64
14, 1279320, Note_on_c, 13, 46, 61
14, 1279435, Note_off_c, 13, 46, 64
14, 1279440, Note_on_c, 13, 46, 62
14, 1279560, Note_off_c, 13, 46, 64
14, 1279560, Note_on_c, 13, 48, 63
14, 1279680, Note_off_c, 13, 48, 64
14, 1279680, Note_on_c, 13, 49, 64
14, 1279800, Note_off_c, 13, 49, 64
14, 1279800, Note_on_c, 13, 51, 65
14, 1279915, Note_off_c, 13, 51, 64
14, 1279920, Note_on_c, 13, 46, 66
14, 1280040, Note_off_c, 13, 46, 64
14, 1280040, Note_on_c, 13, 48, 67
14, 1280160, Note_off_c, 13, 48, 64
14, 1280160, Note_on_c, 13, 49, 68
14, 1280280, Note_off_c, 13, 49, 64
14, 1280280, Note_on_c, 13, 51, 69
14, 1280395, Note_off_c, 13, 51, 64
14, 1280400, Note_on_c, 13, 46, 70
14, 1280520, Note_off_c, 13, 46, 64
14, 1280520, Note_on_c, 13, 48, 71
14, 1280640, Note_off_c, 13, 48, 64
14, 1280640, Note_on_c, 13, 49, 72
14, 1280760, Note_off_c, 13, 49, 64
14, 1280760, Note_on_c, 13, 51, 73
14, 1280875, Note_off_c, 13, 51, 64
14, 1280880, Note_on_c, 13, 46, 74
14, 1281000, Note_off_c, 13, 46, 64
14, 1281000, Note_on_c, 13, 48, 75
14, 1281120, Note_off_c, 13, 48, 64
14, 1281120, Note_on_c, 13, 49, 76
14, 1281240, Note_off_c, 13, 49, 64
14, 1281240, Note_on_c, 13, 51, 77
14, 1281355, Note_off_c, 13, 51, 64
14, 1281360, Note_on_c, 13, 46, 78
14, 1281480, Note_off_c, 13, 46, 64
14, 1281480, Note_on_c, 13, 48, 79
14, 1281600, Note_off_c, 13, 48, 64
14, 1281600, Note_on_c, 13, 49, 80
14, 1281720, Note_off_c, 13, 49, 64
14, 1281720, Note_on_c, 13, 51, 81
14, 1281835, Note_off_c, 13, 51, 64
14, 1281840, Note_on_c, 13, 46, 82
14, 1281960, Note_off_c, 13, 46, 64
14, 1281960, Note_on_c, 13, 48, 83
14, 1282080, Note_off_c, 13, 48, 64
14, 1282080, Note_on_c, 13, 49, 84
14, 1282200, Note_off_c, 13, 49, 64
14, 1282200, Note_on_c, 13, 51, 85
14, 1282315, Note_off_c, 13, 51, 64
14, 1282320, Note_on_c, 13, 46, 86
14, 1282440, Note_off_c, 13, 46, 64
14, 1282440, Note_on_c, 13, 48, 87
14, 1282560, Note_off_c, 13, 48, 64
14, 1282560, Note_on_c, 13, 49, 88
14, 1282680, Note_off_c, 13, 49, 64
14, 1282680, Note_on_c, 13, 51, 89
14, 1282795, Note_off_c, 13, 51, 64
14, 1282800, Note_on_c, 13, 46, 90
14, 1282920, Note_off_c, 13, 46, 64
14, 1282920, Note_on_c, 13, 48, 91
14, 1283040, Note_off_c, 13, 48, 64
14, 1283040, Note_on_c, 13, 49, 92
14, 1283160, Note_off_c, 13, 49, 64
14, 1283160, Note_on_c, 13, 51, 93
14, 1283275, Note_off_c, 13, 51, 64
14, 1283280, Note_on_c, 13, 43, 94
14, 1283400, Note_off_c, 13, 43, 64
14, 1283400, Note_on_c, 13, 45, 95
14, 1283520, Note_off_c, 13, 45, 64
14, 1283520, Note_on_c, 13, 47, 96
14, 1283640, Note_off_c, 13, 47, 64
14, 1283640, Note_on_c, 13, 48, 97
14, 1283755, Note_off_c, 13, 48, 64
14, 1283760, Note_on_c, 13, 43, 98
14, 1283880, Note_off_c, 13, 43, 64
14, 1283880, Note_on_c, 13, 45, 99
14, 1284000, Note_off_c, 13, 45, 64
14, 1284000, Note_on_c, 13, 47, 100
14, 1284120, Note_off_c, 13, 47, 64
14, 1284120, Note_on_c, 13, 48, 101
14, 1284235, Note_off_c, 13, 48, 64
14, 1284240, Note_on_c, 13, 43, 102
14, 1284360, Note_off_c, 13, 43, 64
14, 1284360, Note_on_c, 13, 45, 103
14, 1284480, Note_off_c, 13, 45, 64
14, 1284480, Note_on_c, 13, 47, 104
14, 1284600, Note_off_c, 13, 47, 64
14, 1284600, Note_on_c, 13, 48, 105
14, 1284715, Note_off_c, 13, 48, 64
14, 1284720, Note_on_c, 13, 43, 106
14, 1284840, Note_off_c, 13, 43, 64
14, 1284840, Note_on_c, 13, 45, 107
14, 1284960, Note_off_c, 13, 45, 64
14, 1284960, Note_on_c, 13, 47, 108
14, 1285080, Note_off_c, 13, 47, 64
14, 1285080, Note_on_c, 13, 48, 109
14, 1285195, Note_off_c, 13, 48, 64
14, 1285200, Note_on_c, 13, 43, 110
14, 1285320, Note_off_c, 13, 43, 64
14, 1285320, Note_on_c, 13, 45, 111
14, 1285440, Note_off_c, 13, 45, 64
14, 1285440, Note_on_c, 13, 47, 112
14, 1285560, Note_off_c, 13, 47, 64
14, 1285560, Note_on_c, 13, 48, 113
14, 1285675, Note_off_c, 13, 48, 64
14, 1285680, Note_on_c, 13, 43, 114
14, 1285800, Note_off_c, 13, 43, 64
14, 1285800, Note_on_c, 13, 45, 115
14, 1285920, Note_off_c, 13, 45, 64
14, 1285920, Note_on_c, 13, 47, 116
14, 1286040, Note_off_c, 13, 47, 64
14, 1286040, Note_on_c, 13, 48, 117
14, 1286155, Note_off_c, 13, 48, 64
14, 1286160, Note_on_c, 13, 43, 118
14, 1286280, Note_off_c, 13, 43, 64
14, 1286280, Note_on_c, 13, 45, 119
14, 1286400, Note_off_c, 13, 45, 64
14, 1286400, Note_on_c, 13, 47, 120
14, 1286520, Note_off_c, 13, 47, 64
14, 1286520, Note_on_c, 13, 48, 121
14, 1286635, Note_off_c, 13, 48, 64
14, 1286640, Note_on_c, 13, 43, 122
14, 1286760, Note_off_c, 13, 43, 64
14, 1286760, Note_on_c, 13, 45, 123
14, 1286880, Note_off_c, 13, 45, 64
14, 1286880, Note_on_c, 13, 47, 124
14, 1287000, Note_off_c, 13, 47, 64
14, 1287000, Note_on_c, 13, 48, 125
14, 1287115, Note_off_c, 13, 48, 64
14, 1287120, Note_on_c, 13, 55, 127
14, 1288440, Note_off_c, 13, 55, 64
14, 1288560, Note_on_c, 13, 53, 127
14, 1289040, Note_off_c, 13, 53, 64
14, 1289040, Note_on_c, 13, 51, 127
14, 1290360, Note_off_c, 13, 51, 64
14, 1290480, Note_on_c, 13, 50, 127
14, 1290960, Note_off_c, 13, 50, 64
14, 1290960, Note_on_c, 13, 48, 127
14, 1292280, Note_off_c, 13, 48, 64
14, 1292400, Note_on_c, 13, 46, 127
14, 1292880, Note_off_c, 13, 46, 64
14, 1292880, Note_on_c, 13, 44, 127
14, 1294200, Note_off_c, 13, 44, 64
14, 1294320, Note_on_c, 13, 44, 127
14, 1294720, Note_off_c, 13, 44, 64
14, 1294800, Note_on_c, 13, 56, 127
14, 1296120, Note_off_c, 13, 56, 64
14, 1296240, Note_on_c, 13, 54, 127
14, 1296720, Note_off_c, 13, 54, 64
14, 1296720, Note_on_c, 13, 53, 127
14, 1298040, Note_off_c, 13, 53, 64
14, 1298160, Note_on_c, 13, 51, 127
14, 1298640, Note_off_c, 13, 51, 64
14, 1298640, Note_on_c, 13, 49, 127
14, 1299960, Note_off_c, 13, 49, 64
14, 1300080, Note_on_c, 13, 47, 127
14, 1300560, Note_off_c, 13, 47, 64
14, 1300560, Note_on_c, 13, 46, 127
14, 1301880, Note_off_c, 13, 46, 64
14, 1302000, Note_on_c, 13, 58, 127
14, 1302400, Note_off_c, 13, 58, 64
14, 1302480, Note_on_c, 13, 58, 127
14, 1303800, Note_off_c, 13, 58, 64
14, 1303920, Note_on_c, 13, 56, 127
14, 1304400, Note_off_c, 13, 56, 64
14, 1304400, Note_on_c, 13, 54, 127
14, 1305720, Note_off_c, 13, 54, 64
14, 1305840, Note_on_c, 13, 53, 127
14, 1306320, Note_off_c, 13, 53, 64
14, 1306320, Note_on_c, 13, 51, 127
14, 1307640, Note_off_c, 13, 51, 64
14, 1307760, Note_on_c, 13, 44, 127
14, 1308160, Note_off_c, 13, 44, 64
14, 1308240, Note_on_c, 13, 49, 127
14, 1308640, Note_off_c, 13, 49, 64
14, 1309200, Note_on_c, 13, 61, 127
14, 1309840, Note_off_c, 13, 61, 64
14, 1309920, Note_on_c, 13, 56, 127
14, 1310000, Note_off_c, 13, 56, 64
14, 1310160, Note_on_c, 13, 58, 127
14, 1310240, Note_off_c, 13, 58, 64
14, 1310400, Note_on_c, 13, 53, 127
14, 1310480, Note_off_c, 13, 53, 64
14, 1310640, Note_on_c, 13, 54, 127
14, 1310720, Note_off_c, 13, 54, 64
14, 1310880, Note_on_c, 13, 53, 127
14, 1310960, Note_off_c, 13, 53, 64
14, 1311120, Note_on_c, 13, 51, 127
14, 1311200, Note_off_c, 13, 51, 64
14, 1311360, Note_on_c, 13, 49, 127
14, 1311440, Note_off_c, 13, 49, 64
14, 1311600, Note_on_c, 13, 49, 127
14, 1311680, Note_off_c, 13, 49, 64
14, 1311840, Note_on_c, 13, 48, 127
14, 1311920, Note_off_c, 13, 48, 64
14, 1312080, Note_on_c, 13, 46, 127
14, 1312480, Note_off_c, 13, 46, 64
14, 1313040, Note_on_c, 13, 58, 127
14, 1313680, Note_off_c, 13, 58, 64
14, 1313760, Note_on_c, 13, 53, 127
14, 1313840, Note_off_c, 13, 53, 64
14, 1314000, Note_on_c, 13, 54, 127
14, 1314080, Note_off_c, 13, 54, 64
14, 1314240, Note_on_c, 13, 49, 127
14, 1314320, Note_off_c, 13, 49, 64
14, 1314480, Note_on_c, 13, 51, 127
14, 1314560, Note_off_c, 13, 51, 64
14, 1314720, Note_on_c, 13, 49, 127
14, 1314800, Note_off_c, 13, 49, 64
14, 1314960, Note_on_c, 13, 47, 127
14, 1315040, Note_off_c, 13, 47, 64
14, 1315200, Note_on_c, 13, 46, 127
14, 1315280, Note_off_c, 13, 46, 64
14, 1315440, Note_on_c, 13, 46, 127
14, 1315520, Note_off_c, 13, 46, 64
14, 1315680, Note_on_c, 13, 44, 127
14, 1315760, Note_off_c, 13, 44, 64
14, 1315920, Note_on_c, 13, 42, 127
14, 1316320, Note_off_c, 13, 42, 64
14, 1316880, Note_on_c, 13, 54, 127
14, 1317520, Note_off_c, 13, 54, 64
14, 1317600, Note_on_c, 13, 49, 127
14, 1317680, Note_off_c, 13, 49, 64
14, 1317840, Note_on_c, 13, 51, 127
14, 1317920, Note_off_c, 13, 51, 64
14, 1318080, Note_on_c, 13, 46, 127
14, 1318160, Note_off_c, 13, 46, 64
14, 1318320, Note_on_c, 13, 47, 127
14, 1318400, Note_off_c, 13, 47, 64
14, 1318560, Note_on_c, 13, 46, 127
14, 1318640, Note_off_c, 13, 46, 64
14, 1318800, Note_on_c, 13, 44, 127
14, 1318880, Note_off_c, 13, 44, 64
14, 1319040, Note_on_c, 13, 42, 127
14, 1319120, Note_off_c, 13, 42, 64
14, 1319280, Note_on_c, 13, 42, 127
14, 1319360, Note_off_c, 13, 42, 64
14, 1319520, Note_on_c, 13, 43, 127
14, 1319600, Note_off_c, 13, 43, 64
14, 1319760, Note_on_c, 13, 52, 127
14, 1320160, Note_off_c, 13, 52, 64
14, 1322640, Note_on_c, 13, 58, 75
14, 1322880, Note_off_c, 13, 58, 64
14, 1322880, Note_on_c, 13, 57, 75
14, 1323120, Note_off_c, 13, 57, 64
14, 1323120, Note_on_c, 13, 56, 75
14, 1323360, Note_off_c, 13, 56, 64
14, 1323360, Note_on_c, 13, 55, 75
14, 1323595, Note_off_c, 13, 55, 64
14, 1323600, Note_on_c, 13, 54, 75
14, 1323840, Note_off_c, 13, 54, 64
14, 1323840, Note_on_c, 13, 53, 76
14, 1324080, Note_off_c, 13, 53, 64
14, 1324080, Note_on_c, 13, 52, 77
14, 1324320, Note_off_c, 13, 52, 64
14, 1324320, Note_on_c, 13, 51, 78
14, 1324560, Note_off_c, 13, 51, 64
14, 1324560, Note_on_c, 13, 50, 79
14, 1324800, Note_off_c, 13, 50, 64
14, 1324800, Note_on_c, 13, 49, 80
14, 1325040, Note_off_c, 13, 49, 64
14, 1325040, Note_on_c, 13, 48, 81
14, 1325280, Note_off_c, 13, 48, 64
14, 1325280, Note_on_c, 13, 47, 82
14, 1325515, Note_off_c, 13, 47, 64
14, 1325520, Note_on_c, 13, 46, 83
14, 1325760, Note_off_c, 13, 46, 64
14, 1325760, Note_on_c, 13, 47, 84
14, 1326000, Note_off_c, 13, 47, 64
14, 1326000, Note_on_c, 13, 48, 85
14, 1326240, Note_off_c, 13, 48, 64
14, 1326240, Note_on_c, 13, 49, 86
14, 1326480, Note_off_c, 13, 49, 64
14, 1326480, Note_on_c, 13, 50, 87
14, 1326720, Note_off_c, 13, 50, 64
14, 1326720, Note_on_c, 13, 51, 88
14, 1326960, Note_off_c, 13, 51, 64
14, 1326960, Note_on_c, 13, 52, 89
14, 1327200, Note_off_c, 13, 52, 64
14, 1327200, Note_on_c, 13, 51, 90
14, 1327440, Note_off_c, 13, 51, 64
14, 1327440, Note_on_c, 13, 52, 92
14, 1327840, Note_off_c, 13, 52, 64
14, 1330320, Note_on_c, 13, 58, 75
14, 1330560, Note_off_c, 13, 58, 64
14, 1330560, Note_on_c, 13, 57, 75
14, 1330800, Note_off_c, 13, 57, 64
14, 1330800, Note_on_c, 13, 56, 75
14, 1331040, Note_off_c, 13, 56, 64
14, 1331040, Note_on_c, 13, 55, 75
14, 1331275, Note_off_c, 13, 55, 64
14, 1331280, Note_on_c, 13, 54, 75
14, 1331520, Note_off_c, 13, 54, 64
14, 1331520, Note_on_c, 13, 53, 76
14, 1331760, Note_off_c, 13, 53, 64
14, 1331760, Note_on_c, 13, 52, 77
14, 1332000, Note_off_c, 13, 52, 64
14, 1332000, Note_on_c, 13, 51, 78
14, 1332240, Note_off_c, 13, 51, 64
14, 1332240, Note_on_c, 13, 50, 79
14, 1332480, Note_off_c, 13, 50, 64
14, 1332480, Note_on_c, 13, 49, 80
14, 1332720, Note_off_c, 13, 49, 64
14, 1332720, Note_on_c, 13, 48, 81
14, 1332960, Note_off_c, 13, 48, 64
14, 1332960, Note_on_c, 13, 47, 82
14, 1333195, Note_off_c, 13, 47, 64
14, 1333200, Note_on_c, 13, 46, 83
14, 1333440, Note_off_c, 13, 46, 64
14, 1333440, Note_on_c, 13, 47, 84
14, 1333680, Note_off_c, 13, 47, 64
14, 1333680, Note_on_c, 13, 48, 85
14, 1333920, Note_off_c, 13, 48, 64
14, 1333920, Note_on_c, 13, 49, 86
14, 1334160, Note_off_c, 13, 49, 64
14, 1334160, Note_on_c, 13, 50, 87
14, 1334400, Note_off_c, 13, 50, 64
14, 1334400, Note_on_c, 13, 51, 88
14, 1334640, Note_off_c, 13, 51, 64
14, 1334640, Note_on_c, 13, 52, 89
14, 1334880, Note_off_c, 13, 52, 64
14, 1334880, Note_on_c, 13, 51, 90
14, 1335120, Note_off_c, 13, 51, 64
14, 1335120, Note_on_c, 13, 52, 92
14, 1335520, Note_off_c, 13, 52, 64
14, 1337040, Note_on_c, 13, 51, 92
14, 1337440, Note_off_c, 13, 51, 64
14, 1338960, Note_on_c, 13, 50, 92
14, 1339360, Note_off_c, 13, 50, 64
14, 1340880, Note_on_c, 13, 49, 92
14, 1341280, Note_off_c, 13, 49, 64
14, 1341840, Note_on_c, 13, 48, 92
14, 1342240, Note_off_c, 13, 48, 64
14, 1342320, Note_on_c, 13, 42, 127
14, 1342440, Note_off_c, 13, 42, 64
14, 1342440, Note_on_c, 13, 43, 127
14, 1342560, Note_off_c, 13, 43, 64
14, 1342560, Note_on_c, 13, 45, 127
14, 1342680, Note_off_c, 13, 45, 64
14, 1342680, Note_on_c, 13, 46, 127
14, 1342795, Note_off_c, 13, 46, 64
14, 1342800, Note_on_c, 13, 42, 127
14, 1342920, Note_off_c, 13, 42, 64
14, 1342920, Note_on_c, 13, 43, 127
14, 1343040, Note_off_c, 13, 43, 64
14, 1343040, Note_on_c, 13, 45, 127
14, 1343160, Note_off_c, 13, 45, 64
14, 1343160, Note_on_c, 13, 46, 127
14, 1343275, Note_off_c, 13, 46, 64
14, 1343280, Note_on_c, 13, 42, 127
14, 1343400, Note_off_c, 13, 42, 64
14, 1343400, Note_on_c, 13, 43, 127
14, 1343520, Note_off_c, 13, 43, 64
14, 1343520, Note_on_c, 13, 45, 127
14, 1343640, Note_off_c, 13, 45, 64
14, 1343640, Note_on_c, 13, 46, 127
14, 1343755, Note_off_c, 13, 46, 64
14, 1343760, Note_on_c, 13, 42, 127
14, 1343880, Note_off_c, 13, 42, 64
14, 1343880, Note_on_c, 13, 43, 127
14, 1344000, Note_off_c, 13, 43, 64
14, 1344000, Note_on_c, 13, 45, 127
14, 1344120, Note_off_c, 13, 45, 64
14, 1344120, Note_on_c, 13, 46, 127
14, 1344235, Note_off_c, 13, 46, 64
14, 1344240, Note_on_c, 13, 42, 127
14, 1344360, Note_off_c, 13, 42, 64
14, 1344360, Note_on_c, 13, 43, 127
14, 1344480, Note_off_c, 13, 43, 64
14, 1344480, Note_on_c, 13, 45, 127
14, 1344600, Note_off_c, 13, 45, 64
14, 1344600, Note_on_c, 13, 46, 127
14, 1344715, Note_off_c, 13, 46, 64
14, 1344720, Note_on_c, 13, 42, 127
14, 1344840, Note_off_c, 13, 42, 64
14, 1344840, Note_on_c, 13, 43, 127
14, 1344960, Note_off_c, 13, 43, 64
14, 1344960, Note_on_c, 13, 45, 127
14, 1345080, Note_off_c, 13, 45, 64
14, 1345080, Note_on_c, 13, 46, 127
14, 1345195, Note_off_c, 13, 46, 64
14, 1345200, Note_on_c, 13, 42, 127
14, 1345320, Note_off_c, 13, 42, 64
14, 1345320, Note_on_c, 13, 43, 127
14, 1345440, Note_off_c, 13, 43, 64
14, 1345440, Note_on_c, 13, 45, 127
14, 1345560, Note_off_c, 13, 45, 64
14, 1345560, Note_on_c, 13, 46, 127
14, 1345675, Note_off_c, 13, 46, 64
14, 1345680, Note_on_c, 13, 42, 127
14, 1345800, Note_off_c, 13, 42, 64
14, 1345800, Note_on_c, 13, 43, 127
14, 1345920, Note_off_c, 13, 43, 64
14, 1345920, Note_on_c, 13, 45, 127
14, 1346040, Note_off_c, 13, 45, 64
14, 1346040, Note_on_c, 13, 46, 127
14, 1346155, Note_off_c, 13, 46, 64
14, 1346160, Note_on_c, 13, 42, 127
14, 1346280, Note_off_c, 13, 42, 64
14, 1346280, Note_on_c, 13, 43, 127
14, 1346400, Note_off_c, 13, 43, 64
14, 1346400, Note_on_c, 13, 45, 127
14, 1346520, Note_off_c, 13, 45, 64
14, 1346520, Note_on_c, 13, 46, 127
14, 1346635, Note_off_c, 13, 46, 64
14, 1346640, Note_on_c, 13, 42, 127
14, 1346760, Note_off_c, 13, 42, 64
14, 1346760, Note_on_c, 13, 43, 127
14, 1346880, Note_off_c, 13, 43, 64
14, 1346880, Note_on_c, 13, 45, 127
14, 1347000, Note_off_c, 13, 45, 64
14, 1347000, Note_on_c, 13, 46, 127
14, 1347115, Note_off_c, 13, 46, 64
14, 1347120, Note_on_c, 13, 42, 127
14, 1347240, Note_off_c, 13, 42, 64
14, 1347240, Note_on_c, 13, 43, 127
14, 1347360, Note_off_c, 13, 43, 64
14, 1347360, Note_on_c, 13, 45, 127
14, 1347480, Note_off_c, 13, 45, 64
14, 1347480, Note_on_c, 13, 46, 127
14, 1347595, Note_off_c, 13, 46, 64
14, 1347600, Note_on_c, 13, 42, 127
14, 1347720, Note_off_c, 13, 42, 64
14, 1347720, Note_on_c, 13, 43, 127
14, 1347840, Note_off_c, 13, 43, 64
14, 1347840, Note_on_c, 13, 45, 127
14, 1347960, Note_off_c, 13, 45, 64
14, 1347960, Note_on_c, 13, 46, 127
14, 1348075, Note_off_c, 13, 46, 64
14, 1348080, Note_on_c, 13, 42, 127
14, 1348200, Note_off_c, 13, 42, 64
14, 1348200, Note_on_c, 13, 43, 127
14, 1348320, Note_off_c, 13, 43, 64
14, 1348320, Note_on_c, 13, 45, 127
14, 1348440, Note_off_c, 13, 45, 64
14, 1348440, Note_on_c, 13, 46, 127
14, 1348555, Note_off_c, 13, 46, 64
14, 1348560, Note_on_c, 13, 42, 127
14, 1348680, Note_off_c, 13, 42, 64
14, 1348680, Note_on_c, 13, 43, 127
14, 1348800, Note_off_c, 13, 43, 64
14, 1348800, Note_on_c, 13, 45, 127
14, 1348920, Note_off_c, 13, 45, 64
14, 1348920, Note_on_c, 13, 46, 127
14, 1349035, Note_off_c, 13, 46, 64
14, 1349040, Note_on_c, 13, 42, 127
14, 1349160, Note_off_c, 13, 42, 64
14, 1349160, Note_on_c, 13, 43, 127
14, 1349280, Note_off_c, 13, 43, 64
14, 1349280, Note_on_c, 13, 45, 127
14, 1349400, Note_off_c, 13, 45, 64
14, 1349400, Note_on_c, 13, 46, 127
14, 1349515, Note_off_c, 13, 46, 64
14, 1349520, Note_on_c, 13, 42, 127
14, 1349640, Note_off_c, 13, 42, 64
14, 1349640, Note_on_c, 13, 43, 127
14, 1349760, Note_off_c, 13, 43, 64
14, 1349760, Note_on_c, 13, 45, 127
14, 1349880, Note_off_c, 13, 45, 64
14, 1349880, Note_on_c, 13, 46, 127
14, 1349995, Note_off_c, 13, 46, 64
14, 1350000, Note_on_c, 13, 42, 127
14, 1350120, Note_off_c, 13, 42, 64
14, 1350120, Note_on_c, 13, 43, 127
14, 1350240, Note_off_c, 13, 43, 64
14, 1350240, Note_on_c, 13, 45, 127
14, 1350360, Note_off_c, 13, 45, 64
14, 1350360, Note_on_c, 13, 46, 127
14, 1350475, Note_off_c, 13, 46, 64
14, 1350480, Note_on_c, 13, 42, 127
14, 1350600, Note_off_c, 13, 42, 64
14, 1350600, Note_on_c, 13, 43, 127
14, 1350720, Note_off_c, 13, 43, 64
14, 1350720, Note_on_c, 13, 45, 127
14, 1350840, Note_off_c, 13, 45, 64
14, 1350840, Note_on_c, 13, 46, 127
14, 1350955, Note_off_c, 13, 46, 64
14, 1350960, Note_on_c, 13, 42, 127
14, 1351080, Note_off_c, 13, 42, 64
14, 1351080, Note_on_c, 13, 43, 127
14, 1351200, Note_off_c, 13, 43, 64
14, 1351200, Note_on_c, 13, 45, 127
14, 1351320, Note_off_c, 13, 45, 64
14, 1351320, Note_on_c, 13, 46, 127
14, 1351435, Note_off_c, 13, 46, 64
14, 1351440, Note_on_c, 13, 42, 127
14, 1351560, Note_off_c, 13, 42, 64
14, 1351560, Note_on_c, 13, 43, 127
14, 1351680, Note_off_c, 13, 43, 64
14, 1351680, Note_on_c, 13, 45, 127
14, 1351800, Note_off_c, 13, 45, 64
14, 1351800, Note_on_c, 13, 46, 127
14, 1351915, Note_off_c, 13, 46, 64
14, 1351920, Note_on_c, 13, 42, 127
14, 1352040, Note_off_c, 13, 42, 64
14, 1352040, Note_on_c, 13, 43, 127
14, 1352160, Note_off_c, 13, 43, 64
14, 1352160, Note_on_c, 13, 45, 127
14, 1352280, Note_off_c, 13, 45, 64
14, 1352280, Note_on_c, 13, 46, 127
14, 1352395, Note_off_c, 13, 46, 64
14, 1352400, Note_on_c, 13, 41, 127
14, 1354200, Note_off_c, 13, 41, 64
14, 1354320, Note_on_c, 13, 41, 127
14, 1354440, Note_off_c, 13, 41, 64
14, 1354440, Note_on_c, 13, 46, 127
14, 1354560, Note_off_c, 13, 46, 64
14, 1354560, Note_on_c, 13, 48, 127
14, 1354680, Note_off_c, 13, 48, 64
14, 1354680, Note_on_c, 13, 49, 127
14, 1354795, Note_off_c, 13, 49, 64
14, 1354800, Note_on_c, 13, 41, 127
14, 1354920, Note_off_c, 13, 41, 64
14, 1354920, Note_on_c, 13, 46, 127
14, 1355040, Note_off_c, 13, 46, 64
14, 1355040, Note_on_c, 13, 48, 127
14, 1355160, Note_off_c, 13, 48, 64
14, 1355160, Note_on_c, 13, 49, 127
14, 1355275, Note_off_c, 13, 49, 64
14, 1355280, Note_on_c, 13, 41, 127
14, 1355400, Note_off_c, 13, 41, 64
14, 1355400, Note_on_c, 13, 46, 127
14, 1355520, Note_off_c, 13, 46, 64
14, 1355520, Note_on_c, 13, 48, 127
14, 1355640, Note_off_c, 13, 48, 64
14, 1355640, Note_on_c, 13, 49, 127
14, 1355755, Note_off_c, 13, 49, 64
14, 1355760, Note_on_c, 13, 41, 127
14, 1355880, Note_off_c, 13, 41, 64
14, 1355880, Note_on_c, 13, 46, 127
14, 1356000, Note_off_c, 13, 46, 64
14, 1356000, Note_on_c, 13, 48, 127
14, 1356120, Note_off_c, 13, 48, 64
14, 1356120, Note_on_c, 13, 49, 127
14, 1356235, Note_off_c, 13, 49, 64
14, 1356240, Note_on_c, 13, 41, 127
14, 1358040, Note_off_c, 13, 41, 64
14, 1358160, Note_on_c, 13, 41, 127
14, 1358280, Note_off_c, 13, 41, 64
14, 1358280, Note_on_c, 13, 45, 127
14, 1358400, Note_off_c, 13, 45, 64
14, 1358400, Note_on_c, 13, 46, 127
14, 1358520, Note_off_c, 13, 46, 64
14, 1358520, Note_on_c, 13, 48, 127
14, 1358635, Note_off_c, 13, 48, 64
14, 1358640, Note_on_c, 13, 41, 127
14, 1358760, Note_off_c, 13, 41, 64
14, 1358760, Note_on_c, 13, 45, 127
14, 1358880, Note_off_c, 13, 45, 64
14, 1358880, Note_on_c, 13, 46, 127
14, 1359000, Note_off_c, 13, 46, 64
14, 1359000, Note_on_c, 13, 48, 127
14, 1359115, Note_off_c, 13, 48, 64
14, 1359120, Note_on_c, 13, 41, 127
14, 1359240, Note_off_c, 13, 41, 64
14, 1359240, Note_on_c, 13, 45, 127
14, 1359360, Note_off_c, 13, 45, 64
14, 1359360, Note_on_c, 13, 46, 127
14, 1359480, Note_off_c, 13, 46, 64
14, 1359480, Note_on_c, 13, 48, 127
14, 1359595, Note_off_c, 13, 48, 64
14, 1359600, Note_on_c, 13, 41, 127
14, 1359720, Note_off_c, 13, 41, 64
14, 1359720, Note_on_c, 13, 45, 127
14, 1359840, Note_off_c, 13, 45, 64
14, 1359840, Note_on_c, 13, 46, 127
14, 1359960, Note_off_c, 13, 46, 64
14, 1359960, Note_on_c, 13, 48, 127
14, 1360075, Note_off_c, 13, 48, 64
14, 1360080, Note_on_c, 13, 41, 127
14, 1361880, Note_off_c, 13, 41, 64
14, 1362000, Note_on_c, 13, 41, 127
14, 1362120, Note_off_c, 13, 41, 64
14, 1362120, Note_on_c, 13, 46, 127
14, 1362240, Note_off_c, 13, 46, 64
14, 1362240, Note_on_c, 13, 48, 127
14, 1362360, Note_off_c, 13, 48, 64
14, 1362360, Note_on_c, 13, 49, 127
14, 1362475, Note_off_c, 13, 49, 64
14, 1362480, Note_on_c, 13, 41, 127
14, 1362600, Note_off_c, 13, 41, 64
14, 1362600, Note_on_c, 13, 46, 127
14, 1362720, Note_off_c, 13, 46, 64
14, 1362720, Note_on_c, 13, 48, 127
14, 1362840, Note_off_c, 13, 48, 64
14, 1362840, Note_on_c, 13, 49, 127
14, 1362955, Note_off_c, 13, 49, 64
14, 1362960, Note_on_c, 13, 41, 127
14, 1363080, Note_off_c, 13, 41, 64
14, 1363080, Note_on_c, 13, 46, 127
14, 1363200, Note_off_c, 13, 46, 64
14, 1363200, Note_on_c, 13, 48, 127
14, 1363320, Note_off_c, 13, 48, 64
14, 1363320, Note_on_c, 13, 49, 127
14, 1363435, Note_off_c, 13, 49, 64
14, 1363440, Note_on_c, 13, 41, 127
14, 1363560, Note_off_c, 13, 41, 64
14, 1363560, Note_on_c, 13, 46, 127
14, 1363680, Note_off_c, 13, 46, 64
14, 1363680, Note_on_c, 13, 48, 127
14, 1363800, Note_off_c, 13, 48, 64
14, 1363800, Note_on_c, 13, 49, 127
14, 1363915, Note_off_c, 13, 49, 64
14, 1363920, Note_on_c, 13, 41, 127
14, 1365720, Note_off_c, 13, 41, 64
14, 1365840, Note_on_c, 13, 53, 108
14, 1367160, Note_off_c, 13, 53, 64
14, 1367280, Note_on_c, 13, 51, 108
14, 1367760, Note_off_c, 13, 51, 64
14, 1367760, Note_on_c, 13, 49, 108
14, 1369080, Note_off_c, 13, 49, 64
14, 1369200, Note_on_c, 13, 48, 108
14, 1369680, Note_off_c, 13, 48, 64
14, 1369680, Note_on_c, 13, 46, 104
14, 1371000, Note_off_c, 13, 46, 64
14, 1371120, Note_on_c, 13, 44, 92
14, 1371600, Note_off_c, 13, 44, 64
14, 1371600, Note_on_c, 13, 43, 92
14, 1372920, Note_off_c, 13, 43, 64
14, 1373040, Note_on_c, 13, 55, 92
14, 1373440, Note_off_c, 13, 55, 64
14, 1373520, Note_on_c, 13, 55, 75
14, 1374840, Note_off_c, 13, 55, 64
14, 1374960, Note_on_c, 13, 53, 75
14, 1375440, Note_off_c, 13, 53, 64
14, 1375440, Note_on_c, 13, 51, 75
14, 1376760, Note_off_c, 13, 51, 64
14, 1376880, Note_on_c, 13, 50, 75
14, 1377360, Note_off_c, 13, 50, 64
14, 1377360, Note_on_c, 13, 48, 72
14, 1378680, Note_off_c, 13, 48, 64
14, 1378800, Note_on_c, 13, 46, 60
14, 1379280, Note_off_c, 13, 46, 64
14, 1379280, Note_on_c, 13, 44, 60
14, 1380600, Note_off_c, 13, 44, 64
14, 1380720, Note_on_c, 13, 56, 60
14, 1381120, Note_off_c, 13, 56, 64
14, 1381200, Note_on_c, 13, 56, 60
14, 1382520, Note_off_c, 13, 56, 64
14, 1382640, Note_on_c, 13, 54, 60
14, 1383120, Note_off_c, 13, 54, 64
14, 1383120, Note_on_c, 13, 53, 60
14, 1384440, Note_off_c, 13, 53, 64
14, 1384560, Note_on_c, 13, 51, 60
14, 1385040, Note_off_c, 13, 51, 64
14, 1385040, Note_on_c, 13, 49, 57
14, 1386360, Note_off_c, 13, 49, 64
14, 1386480, Note_on_c, 13, 48, 45
14, 1386880, Note_off_c, 13, 48, 64
14, 1386960, Note_on_c, 13, 47, 60
14, 1387075, Note_off_c, 13, 47, 64
14, 1387080, Note_on_c, 13, 47, 60
14, 1387195, Note_off_c, 13, 47, 64
14, 1387200, Note_on_c, 13, 48, 60
14, 1387315, Note_off_c, 13, 48, 64
14, 1387320, Note_on_c, 13, 48, 60
14, 1387435, Note_off_c, 13, 48, 64
14, 1387440, Note_on_c, 13, 47, 60
14, 1387555, Note_off_c, 13, 47, 64
14, 1387560, Note_on_c, 13, 47, 60
14, 1387675, Note_off_c, 13, 47, 64
14, 1387680, Note_on_c, 13, 48, 60
14, 1387795, Note_off_c, 13, 48, 64
14, 1387800, Note_on_c, 13, 48, 60
14, 1387915, Note_off_c, 13, 48, 64
14, 1387920, Note_on_c, 13, 47, 60
14, 1388035, Note_off_c, 13, 47, 64
14, 1388040, Note_on_c, 13, 47, 60
14, 1388155, Note_off_c, 13, 47, 64
14, 1388160, Note_on_c, 13, 48, 60
14, 1388275, Note_off_c, 13, 48, 64
14, 1388280, Note_on_c, 13, 48, 60
14, 1388395, Note_off_c, 13, 48, 64
14, 1388400, Note_on_c, 13, 47, 60
14, 1388515, Note_off_c, 13, 47, 64
14, 1388520, Note_on_c, 13, 47, 60
14, 1388635, Note_off_c, 13, 47, 64
14, 1388640, Note_on_c, 13, 48, 60
14, 1388755, Note_off_c, 13, 48, 64
14, 1388760, Note_on_c, 13, 48, 60
14, 1388875, Note_off_c, 13, 48, 64
14, 1388880, Note_on_c, 13, 50, 60
14, 1388995, Note_off_c, 13, 50, 64
14, 1389000, Note_on_c, 13, 50, 60
14, 1389115, Note_off_c, 13, 50, 64
14, 1389120, Note_on_c, 13, 48, 60
14, 1389235, Note_off_c, 13, 48, 64
14, 1389240, Note_on_c, 13, 48, 60
14, 1389355, Note_off_c, 13, 48, 64
14, 1389360, Note_on_c, 13, 50, 60
14, 1389475, Note_off_c, 13, 50, 64
14, 1389480, Note_on_c, 13, 50, 60
14, 1389595, Note_off_c, 13, 50, 64
14, 1389600, Note_on_c, 13, 48, 60
14, 1389715, Note_off_c, 13, 48, 64
14, 1389720, Note_on_c, 13, 48, 60
14, 1389835, Note_off_c, 13, 48, 64
14, 1389840, Note_on_c, 13, 50, 60
14, 1389955, Note_off_c, 13, 50, 64
14, 1389960, Note_on_c, 13, 50, 60
14, 1390075, Note_off_c, 13, 50, 64
14, 1390080, Note_on_c, 13, 48, 60
14, 1390195, Note_off_c, 13, 48, 64
14, 1390200, Note_on_c, 13, 48, 60
14, 1390315, Note_off_c, 13, 48, 64
14, 1390320, Note_on_c, 13, 50, 60
14, 1390435, Note_off_c, 13, 50, 64
14, 1390440, Note_on_c, 13, 50, 60
14, 1390555, Note_off_c, 13, 50, 64
14, 1390560, Note_on_c, 13, 48, 60
14, 1390675, Note_off_c, 13, 48, 64
14, 1390680, Note_on_c, 13, 48, 60
14, 1390795, Note_off_c, 13, 48, 64
14, 1390800, Note_on_c, 13, 47, 60
14, 1390915, Note_off_c, 13, 47, 64
14, 1390920, Note_on_c, 13, 47, 60
14, 1391035, Note_off_c, 13, 47, 64
14, 1391040, Note_on_c, 13, 47, 60
14, 1391155, Note_off_c, 13, 47, 64
14, 1391160, Note_on_c, 13, 47, 60
14, 1391275, Note_off_c, 13, 47, 64
14, 1391280, Note_on_c, 13, 48, 60
14, 1391395, Note_off_c, 13, 48, 64
14, 1391400, Note_on_c, 13, 48, 60
14, 1391515, Note_off_c, 13, 48, 64
14, 1391520, Note_on_c, 13, 48, 60
14, 1391635, Note_off_c, 13, 48, 64
14, 1391640, Note_on_c, 13, 48, 60
14, 1391755, Note_off_c, 13, 48, 64
14, 1391760, Note_on_c, 13, 50, 60
14, 1391875, Note_off_c, 13, 50, 64
14, 1391880, Note_on_c, 13, 50, 60
14, 1391995, Note_off_c, 13, 50, 64
14, 1392000, Note_on_c, 13, 50, 60
14, 1392115, Note_off_c, 13, 50, 64
14, 1392120, Note_on_c, 13, 50, 60
14, 1392235, Note_off_c, 13, 50, 64
14, 1392240, Note_on_c, 13, 48, 60
14, 1392355, Note_off_c, 13, 48, 64
14, 1392360, Note_on_c, 13, 48, 60
14, 1392475, Note_off_c, 13, 48, 64
14, 1392480, Note_on_c, 13, 48, 60
14, 1392595, Note_off_c, 13, 48, 64
14, 1392600, Note_on_c, 13, 48, 60
14, 1392715, Note_off_c, 13, 48, 64
14, 1392720, Note_on_c, 13, 47, 60
14, 1392835, Note_off_c, 13, 47, 64
14, 1392840, Note_on_c, 13, 47, 60
14, 1392955, Note_off_c, 13, 47, 64
14, 1392960, Note_on_c, 13, 47, 60
14, 1393075, Note_off_c, 13, 47, 64
14, 1393080, Note_on_c, 13, 47, 60
14, 1393195, Note_off_c, 13, 47, 64
14, 1393200, Note_on_c, 13, 48, 60
14, 1393315, Note_off_c, 13, 48, 64
14, 1393320, Note_on_c, 13, 48, 60
14, 1393435, Note_off_c, 13, 48, 64
14, 1393440, Note_on_c, 13, 48, 60
14, 1393555, Note_off_c, 13, 48, 64
14, 1393560, Note_on_c, 13, 48, 60
14, 1393675, Note_off_c, 13, 48, 64
14, 1393680, Note_on_c, 13, 47, 60
14, 1393795, Note_off_c, 13, 47, 64
14, 1393800, Note_on_c, 13, 47, 60
14, 1393915, Note_off_c, 13, 47, 64
14, 1393920, Note_on_c, 13, 47, 60
14, 1394035, Note_off_c, 13, 47, 64
14, 1394040, Note_on_c, 13, 47, 60
14, 1394155, Note_off_c, 13, 47, 64
14, 1394160, Note_on_c, 13, 45, 60
14, 1394275, Note_off_c, 13, 45, 64
14, 1394280, Note_on_c, 13, 45, 60
14, 1394395, Note_off_c, 13, 45, 64
14, 1394400, Note_on_c, 13, 45, 60
14, 1394515, Note_off_c, 13, 45, 64
14, 1394520, Note_on_c, 13, 45, 60
14, 1394635, Note_off_c, 13, 45, 64
14, 1394640, Note_on_c, 13, 43, 60
14, 1394755, Note_off_c, 13, 43, 64
14, 1394760, Note_on_c, 13, 43, 60
14, 1394875, Note_off_c, 13, 43, 64
14, 1394880, Note_on_c, 13, 43, 60
14, 1394995, Note_off_c, 13, 43, 64
14, 1395000, Note_on_c, 13, 43, 60
14, 1395115, Note_off_c, 13, 43, 64
14, 1395120, Note_on_c, 13, 45, 60
14, 1395235, Note_off_c, 13, 45, 64
14, 1395240, Note_on_c, 13, 45, 60
14, 1395355, Note_off_c, 13, 45, 64
14, 1395360, Note_on_c, 13, 45, 60
14, 1395475, Note_off_c, 13, 45, 64
14, 1395480, Note_on_c, 13, 45, 60
14, 1395595, Note_off_c, 13, 45, 64
14, 1395600, Note_on_c, 13, 43, 60
14, 1395715, Note_off_c, 13, 43, 64
14, 1395720, Note_on_c, 13, 43, 60
14, 1395835, Note_off_c, 13, 43, 64
14, 1395840, Note_on_c, 13, 43, 60
14, 1395955, Note_off_c, 13, 43, 64
14, 1395960, Note_on_c, 13, 43, 60
14, 1396075, Note_off_c, 13, 43, 64
14, 1396080, Note_on_c, 13, 41, 60
14, 1396195, Note_off_c, 13, 41, 64
14, 1396200, Note_on_c, 13, 41, 60
14, 1396315, Note_off_c, 13, 41, 64
14, 1396320, Note_on_c, 13, 41, 60
14, 1396435, Note_off_c, 13, 41, 64
14, 1396440, Note_on_c, 13, 41, 60
14, 1396555, Note_off_c, 13, 41, 64
14, 1396560, Note_on_c, 13, 40, 60
14, 1396675, Note_off_c, 13, 40, 64
14, 1396680, Note_on_c, 13, 40, 60
14, 1396795, Note_off_c, 13, 40, 64
14, 1396800, Note_on_c, 13, 40, 59
14, 1396915, Note_off_c, 13, 40, 64
14, 1396920, Note_on_c, 13, 40, 58
14, 1397035, Note_off_c, 13, 40, 64
14, 1397040, Note_on_c, 13, 41, 57
14, 1397155, Note_off_c, 13, 41, 64
14, 1397160, Note_on_c, 13, 41, 56
14, 1397275, Note_off_c, 13, 41, 64
14, 1397280, Note_on_c, 13, 41, 55
14, 1397395, Note_off_c, 13, 41, 64
14, 1397400, Note_on_c, 13, 41, 54
14, 1397515, Note_off_c, 13, 41, 64
14, 1397520, Note_on_c, 13, 40, 53
14, 1397635, Note_off_c, 13, 40, 64
14, 1397640, Note_on_c, 13, 40, 52
14, 1397755, Note_off_c, 13, 40, 64
14, 1397760, Note_on_c, 13, 40, 51
14, 1397875, Note_off_c, 13, 40, 64
14, 1397880, Note_on_c, 13, 40, 50
14, 1397995, Note_off_c, 13, 40, 64
14, 1398000, Note_on_c, 13, 38, 49
14, 1398115, Note_off_c, 13, 38, 64
14, 1398120, Note_on_c, 13, 38, 48
14, 1398235, Note_off_c, 13, 38, 64
14, 1398240, Note_on_c, 13, 38, 47
14, 1398355, Note_off_c, 13, 38, 64
14, 1398360, Note_on_c, 13, 38, 46
14, 1398475, Note_off_c, 13, 38, 64
14, 1398480, Note_on_c, 13, 36, 45
14, 1398880, Note_off_c, 13, 36, 64
14, 1400400, Note_on_c, 13, 36, 92
14, 1400515, Note_off_c, 13, 36, 64
14, 1400520, Note_on_c, 13, 36, 92
14, 1400635, Note_off_c, 13, 36, 64
14, 1400640, Note_on_c, 13, 36, 92
14, 1400755, Note_off_c, 13, 36, 64
14, 1400760, Note_on_c, 13, 36, 92
14, 1400875, Note_off_c, 13, 36, 64
14, 1400880, Note_on_c, 13, 36, 92
14, 1400995, Note_off_c, 13, 36, 64
14, 1401000, Note_on_c, 13, 36, 92
14, 1401115, Note_off_c, 13, 36, 64
14, 1401120, Note_on_c, 13, 36, 92
14, 1401235, Note_off_c, 13, 36, 64
14, 1401240, Note_on_c, 13, 36, 92
14, 1401355, Note_off_c, 13, 36, 64
14, 1401360, Note_on_c, 13, 36, 92
14, 1401475, Note_off_c, 13, 36, 64
14, 1401480, Note_on_c, 13, 36, 92
14, 1401595, Note_off_c, 13, 36, 64
14, 1401600, Note_on_c, 13, 36, 92
14, 1401715, Note_off_c, 13, 36, 64
14, 1401720, Note_on_c, 13, 36, 92
14, 1401835, Note_off_c, 13, 36, 64
14, 1401840, Note_on_c, 13, 36, 92
14, 1401955, Note_off_c, 13, 36, 64
14, 1401960, Note_on_c, 13, 36, 92
14, 1402075, Note_off_c, 13, 36, 64
14, 1402080, Note_on_c, 13, 36, 92
14, 1402195, Note_off_c, 13, 36, 64
14, 1402200, Note_on_c, 13, 36, 92
14, 1402315, Note_off_c, 13, 36, 64
14, 1402320, Note_on_c, 13, 36, 45
14, 1402435, Note_off_c, 13, 36, 64
14, 1402440, Note_on_c, 13, 36, 45
14, 1402555, Note_off_c, 13, 36, 64
14, 1402560, Note_on_c, 13, 36, 45
14, 1402675, Note_off_c, 13, 36, 64
14, 1402680, Note_on_c, 13, 36, 45
14, 1402795, Note_off_c, 13, 36, 64
14, 1402800, Note_on_c, 13, 36, 45
14, 1402915, Note_off_c, 13, 36, 64
14, 1402920, Note_on_c, 13, 36, 45
14, 1403035, Note_off_c, 13, 36, 64
14, 1403040, Note_on_c, 13, 36, 45
14, 1403155, Note_off_c, 13, 36, 64
14, 1403160, Note_on_c, 13, 36, 45
14, 1403275, Note_off_c, 13, 36, 64
14, 1403280, Note_on_c, 13, 36, 45
14, 1403395, Note_off_c, 13, 36, 64
14, 1403400, Note_on_c, 13, 36, 45
14, 1403515, Note_off_c, 13, 36, 64
14, 1403520, Note_on_c, 13, 36, 45
14, 1403635, Note_off_c, 13, 36, 64
14, 1403640, Note_on_c, 13, 36, 45
14, 1403755, Note_off_c, 13, 36, 64
14, 1403760, Note_on_c, 13, 36, 45
14, 1403875, Note_off_c, 13, 36, 64
14, 1403880, Note_on_c, 13, 36, 45
14, 1403995, Note_off_c, 13, 36, 64
14, 1404000, Note_on_c, 13, 36, 45
14, 1404115, Note_off_c, 13, 36, 64
14, 1404120, Note_on_c, 13, 36, 45
14, 1404235, Note_off_c, 13, 36, 64
14, 1404240, Note_on_c, 13, 36, 92
14, 1404355, Note_off_c, 13, 36, 64
14, 1404360, Note_on_c, 13, 36, 92
14, 1404475, Note_off_c, 13, 36, 64
14, 1404480, Note_on_c, 13, 36, 92
14, 1404595, Note_off_c, 13, 36, 64
14, 1404600, Note_on_c, 13, 36, 92
14, 1404715, Note_off_c, 13, 36, 64
14, 1404720, Note_on_c, 13, 36, 92
14, 1404835, Note_off_c, 13, 36, 64
14, 1404840, Note_on_c, 13, 36, 92
14, 1404955, Note_off_c, 13, 36, 64
14, 1404960, Note_on_c, 13, 36, 92
14, 1405075, Note_off_c, 13, 36, 64
14, 1405080, Note_on_c, 13, 36, 92
14, 1405195, Note_off_c, 13, 36, 64
14, 1405200, Note_on_c, 13, 36, 92
14, 1405315, Note_off_c, 13, 36, 64
14, 1405320, Note_on_c, 13, 36, 92
14, 1405435, Note_off_c, 13, 36, 64
14, 1405440, Note_on_c, 13, 36, 92
14, 1405555, Note_off_c, 13, 36, 64
14, 1405560, Note_on_c, 13, 36, 92
14, 1405675, Note_off_c, 13, 36, 64
14, 1405680, Note_on_c, 13, 36, 92
14, 1405795, Note_off_c, 13, 36, 64
14, 1405800, Note_on_c, 13, 36, 92
14, 1405915, Note_off_c, 13, 36, 64
14, 1405920, Note_on_c, 13, 36, 92
14, 1406035, Note_off_c, 13, 36, 64
14, 1406040, Note_on_c, 13, 36, 92
14, 1406155, Note_off_c, 13, 36, 64
14, 1406160, Note_on_c, 13, 36, 45
14, 1406275, Note_off_c, 13, 36, 64
14, 1406280, Note_on_c, 13, 36, 45
14, 1406395, Note_off_c, 13, 36, 64
14, 1406400, Note_on_c, 13, 36, 45
14, 1406515, Note_off_c, 13, 36, 64
14, 1406520, Note_on_c, 13, 36, 45
14, 1406635, Note_off_c, 13, 36, 64
14, 1406640, Note_on_c, 13, 36, 45
14, 1406755, Note_off_c, 13, 36, 64
14, 1406760, Note_on_c, 13, 36, 45
14, 1406875, Note_off_c, 13, 36, 64
14, 1406880, Note_on_c, 13, 36, 45
14, 1406995, Note_off_c, 13, 36, 64
14, 1407000, Note_on_c, 13, 36, 45
14, 1407115, Note_off_c, 13, 36, 64
14, 1407120, Note_on_c, 13, 36, 45
14, 1407235, Note_off_c, 13, 36, 64
14, 1407240, Note_on_c, 13, 36, 45
14, 1407355, Note_off_c, 13, 36, 64
14, 1407360, Note_on_c, 13, 36, 45
14, 1407475, Note_off_c, 13, 36, 64
14, 1407480, Note_on_c, 13, 36, 45
14, 1407595, Note_off_c, 13, 36, 64
14, 1407600, Note_on_c, 13, 36, 45
14, 1407715, Note_off_c, 13, 36, 64
14, 1407720, Note_on_c, 13, 36, 45
14, 1407835, Note_off_c, 13, 36, 64
14, 1407840, Note_on_c, 13, 36, 45
14, 1407955, Note_off_c, 13, 36, 64
14, 1407960, Note_on_c, 13, 36, 45
14, 1408075, Note_off_c, 13, 36, 64
14, 1408080, Note_on_c, 13, 36, 45
14, 1408195, Note_off_c, 13, 36, 64
14, 1408200, Note_on_c, 13, 36, 45
14, 1408315, Note_off_c, 13, 36, 64
14, 1408320, Note_on_c, 13, 36, 45
14, 1408435, Note_off_c, 13, 36, 64
14, 1408440, Note_on_c, 13, 36, 45
14, 1408555, Note_off_c, 13, 36, 64
14, 1408560, Note_on_c, 13, 36, 45
14, 1408675, Note_off_c, 13, 36, 64
14, 1408680, Note_on_c, 13, 36, 45
14, 1408795, Note_off_c, 13, 36, 64
14, 1408800, Note_on_c, 13, 36, 45
14, 1408915, Note_off_c, 13, 36, 64
14, 1408920, Note_on_c, 13, 36, 45
14, 1409035, Note_off_c, 13, 36, 64
14, 1409040, Note_on_c, 13, 36, 45
14, 1409155, Note_off_c, 13, 36, 64
14, 1409160, Note_on_c, 13, 36, 45
14, 1409275, Note_off_c, 13, 36, 64
14, 1409280, Note_on_c, 13, 36, 45
14, 1409395, Note_off_c, 13, 36, 64
14, 1409400, Note_on_c, 13, 36, 45
14, 1409515, Note_off_c, 13, 36, 64
14, 1409520, Note_on_c, 13, 36, 45
14, 1409635, Note_off_c, 13, 36, 64
14, 1409640, Note_on_c, 13, 36, 45
14, 1409755, Note_off_c, 13, 36, 64
14, 1409760, Note_on_c, 13, 36, 45
14, 1409875, Note_off_c, 13, 36, 64
14, 1409880, Note_on_c, 13, 36, 45
14, 1409995, Note_off_c, 13, 36, 64
14, 1410000, Note_on_c, 13, 36, 45
14, 1410115, Note_off_c, 13, 36, 64
14, 1410120, Note_on_c, 13, 36, 45
14, 1410235, Note_off_c, 13, 36, 64
14, 1410240, Note_on_c, 13, 36, 45
14, 1410355, Note_off_c, 13, 36, 64
14, 1410360, Note_on_c, 13, 36, 45
14, 1410475, Note_off_c, 13, 36, 64
14, 1410480, Note_on_c, 13, 36, 45
14, 1410595, Note_off_c, 13, 36, 64
14, 1410600, Note_on_c, 13, 36, 45
14, 1410715, Note_off_c, 13, 36, 64
14, 1410720, Note_on_c, 13, 36, 45
14, 1410835, Note_off_c, 13, 36, 64
14, 1410840, Note_on_c, 13, 36, 45
14, 1410955, Note_off_c, 13, 36, 64
14, 1410960, Note_on_c, 13, 36, 45
14, 1411075, Note_off_c, 13, 36, 64
14, 1411080, Note_on_c, 13, 36, 45
14, 1411195, Note_off_c, 13, 36, 64
14, 1411200, Note_on_c, 13, 36, 45
14, 1411315, Note_off_c, 13, 36, 64
14, 1411320, Note_on_c, 13, 36, 45
14, 1411435, Note_off_c, 13, 36, 64
14, 1411440, Note_on_c, 13, 36, 45
14, 1411555, Note_off_c, 13, 36, 64
14, 1411560, Note_on_c, 13, 36, 45
14, 1411675, Note_off_c, 13, 36, 64
14, 1411680, Note_on_c, 13, 36, 45
14, 1411795, Note_off_c, 13, 36, 64
14, 1411800, Note_on_c, 13, 36, 45
14, 1411915, Note_off_c, 13, 36, 64
14, 1411920, Note_on_c, 13, 36, 45
14, 1412035, Note_off_c, 13, 36, 64
14, 1412040, Note_on_c, 13, 36, 45
14, 1412155, Note_off_c, 13, 36, 64
14, 1412160, Note_on_c, 13, 36, 45
14, 1412275, Note_off_c, 13, 36, 64
14, 1412280, Note_on_c, 13, 36, 45
14, 1412395, Note_off_c, 13, 36, 64
14, 1412400, Note_on_c, 13, 36, 45
14, 1412515, Note_off_c, 13, 36, 64
14, 1412520, Note_on_c, 13, 36, 45
14, 1412635, Note_off_c, 13, 36, 64
14, 1412640, Note_on_c, 13, 36, 45
14, 1412755, Note_off_c, 13, 36, 64
14, 1412760, Note_on_c, 13, 36, 45
14, 1412875, Note_off_c, 13, 36, 64
14, 1412880, Note_on_c, 13, 36, 45
14, 1412995, Note_off_c, 13, 36, 64
14, 1413000, Note_on_c, 13, 36, 45
14, 1413115, Note_off_c, 13, 36, 64
14, 1413120, Note_on_c, 13, 36, 45
14, 1413235, Note_off_c, 13, 36, 64
14, 1413240, Note_on_c, 13, 36, 45
14, 1413355, Note_off_c, 13, 36, 64
14, 1413360, Note_on_c, 13, 36, 45
14, 1413475, Note_off_c, 13, 36, 64
14, 1413480, Note_on_c, 13, 36, 45
14, 1413595, Note_off_c, 13, 36, 64
14, 1413600, Note_on_c, 13, 36, 45
14, 1413715, Note_off_c, 13, 36, 64
14, 1413720, Note_on_c, 13, 36, 45
14, 1413835, Note_off_c, 13, 36, 64
14, 1413840, Note_on_c, 13, 36, 45
14, 1418080, Note_off_c, 13, 36, 64
14, 1423560, Note_on_c, 13, 36, 45
14, 1423675, Note_off_c, 13, 36, 64
14, 1423680, Note_on_c, 13, 36, 45
14, 1423795, Note_off_c, 13, 36, 64
14, 1423800, Note_on_c, 13, 36, 45
14, 1423915, Note_off_c, 13, 36, 64
14, 1423920, Note_on_c, 13, 36, 45
14, 1424035, Note_off_c, 13, 36, 64
14, 1424040, Note_on_c, 13, 36, 45
14, 1424155, Note_off_c, 13, 36, 64
14, 1424160, Note_on_c, 13, 36, 45
14, 1424275, Note_off_c, 13, 36, 64
14, 1424280, Note_on_c, 13, 36, 45
14, 1424395, Note_off_c, 13, 36, 64
14, 1424400, Note_on_c, 13, 36, 45
14, 1424515, Note_off_c, 13, 36, 64
14, 1424520, Note_on_c, 13, 36, 45
14, 1424635, Note_off_c, 13, 36, 64
14, 1424640, Note_on_c, 13, 36, 45
14, 1424755, Note_off_c, 13, 36, 64
14, 1424760, Note_on_c, 13, 36, 45
14, 1424875, Note_off_c, 13, 36, 64
14, 1424880, Note_on_c, 13, 36, 45
14, 1424995, Note_off_c, 13, 36, 64
14, 1425000, Note_on_c, 13, 36, 45
14, 1425115, Note_off_c, 13, 36, 64
14, 1425120, Note_on_c, 13, 36, 45
14, 1425235, Note_off_c, 13, 36, 64
14, 1425240, Note_on_c, 13, 36, 45
14, 1425355, Note_off_c, 13, 36, 64
14, 1425360, Note_on_c, 13, 36, 45
14, 1425760, Note_off_c, 13, 36, 64
14, 1426440, Note_on_c, 13, 36, 45
14, 1426555, Note_off_c, 13, 36, 64
14, 1426560, Note_on_c, 13, 36, 45
14, 1426675, Note_off_c, 13, 36, 64
14, 1426680, Note_on_c, 13, 36, 45
14, 1426795, Note_off_c, 13, 36, 64
14, 1426800, Note_on_c, 13, 36, 45
14, 1426915, Note_off_c, 13, 36, 64
14, 1426920, Note_on_c, 13, 36, 45
14, 1427035, Note_off_c, 13, 36, 64
14, 1427040, Note_on_c, 13, 36, 45
14, 1427155, Note_off_c, 13, 36, 64
14, 1427160, Note_on_c, 13, 36, 45
14, 1427275, Note_off_c, 13, 36, 64
14, 1427280, Note_on_c, 13, 36, 45
14, 1427680, Note_off_c, 13, 36, 64
14, 1431600, Note_on_c, 13, 36, 45
14, 1431715, Note_off_c, 13, 36, 64
14, 1431720, Note_on_c, 13, 36, 45
14, 1431835, Note_off_c, 13, 36, 64
14, 1431840, Note_on_c, 13, 36, 45
14, 1431915, Note_off_c, 13, 36, 64
14, 1431920, Note_on_c, 13, 36, 45
14, 1431995, Note_off_c, 13, 36, 64
14, 1432000, Note_on_c, 13, 36, 45
14, 1432075, Note_off_c, 13, 36, 64
14, 1432080, Note_on_c, 13, 36, 45
14, 1432480, Note_off_c, 13, 36, 64
14, 1442640, Note_on_c, 13, 41, 45
14, 1442640, Note_on_c, 13, 48, 45
14, 1444080, Note_off_c, 13, 48, 64
14, 1444080, Note_off_c, 13, 41, 64
14, 1444080, Note_on_c, 13, 41, 45
14, 1444080, Note_on_c, 13, 48, 45
14, 1445520, Note_off_c, 13, 48, 64
14, 1445520, Note_off_c, 13, 41, 64
14, 1445520, Note_on_c, 13, 41, 57
14, 1445520, Note_on_c, 13, 48, 57
14, 1447600, Note_off_c, 13, 48, 64
14, 1447600, Note_off_c, 13, 41, 64
14, 1447680, Note_on_c, 13, 41, 75
14, 1447680, Note_on_c, 13, 48, 75
14, 1448455, Note_off_c, 13, 48, 64
14, 1448455, Note_off_c, 13, 41, 64
14, 1448460, Note_on_c, 13, 41, 45
14, 1448460, Note_on_c, 13, 48, 45
14, 1448695, Note_off_c, 13, 48, 64
14, 1448695, Note_off_c, 13, 41, 64
14, 1449660, Program_c, 13, 45
14, 1449660, Note_on_c, 13, 53, 45
14, 1449900, Note_off_c, 13, 53, 64
14, 1449900, Note_on_c, 13, 53, 45
14, 1450380, Note_off_c, 13, 53, 64
14, 1451100, Note_on_c, 13, 53, 45
14, 1451340, Note_off_c, 13, 53, 64
14, 1451340, Note_on_c, 13, 53, 45
14, 1451820, Note_off_c, 13, 53, 64
14, 1452540, Note_on_c, 13, 53, 45
14, 1452780, Note_off_c, 13, 53, 64
14, 1452780, Note_on_c, 13, 50, 45
14, 1453260, Note_off_c, 13, 50, 64
14, 1453980, Note_on_c, 13, 52, 45
14, 1454220, Note_off_c, 13, 52, 64
14, 1454220, Note_on_c, 13, 52, 45
14, 1454700, Note_off_c, 13, 52, 64
14, 1455420, Note_on_c, 13, 48, 45
14, 1455660, Note_off_c, 13, 48, 64
14, 1455660, Note_on_c, 13, 53, 45
14, 1456140, Note_off_c, 13, 53, 64
14, 1456380, Note_on_c, 13, 50, 45
14, 1456860, Note_off_c, 13, 50, 64
14, 1456860, Note_on_c, 13, 45, 45
14, 1457100, Note_off_c, 13, 45, 64
14, 1457100, Note_on_c, 13, 46, 45
14, 1457580, Note_off_c, 13, 46, 64
14, 1457820, Note_on_c, 13, 48, 45
14, 1458300, Note_off_c, 13, 48, 64
14, 1458300, Note_on_c, 13, 36, 45
14, 1458540, Note_off_c, 13, 36, 64
14, 1458540, Note_on_c, 13, 41, 45
14, 1459020, Note_off_c, 13, 41, 64
14, 1459980, Note_on_c, 13, 53, 45
14, 1460380, Note_off_c, 13, 53, 64
14, 1461180, Note_on_c, 13, 53, 45
14, 1461415, Note_off_c, 13, 53, 64
14, 1461420, Note_on_c, 13, 53, 45
14, 1461820, Note_off_c, 13, 53, 64
14, 1462620, Note_on_c, 13, 53, 45
14, 1462855, Note_off_c, 13, 53, 64
14, 1462860, Note_on_c, 13, 53, 45
14, 1463260, Note_off_c, 13, 53, 64
14, 1464060, Note_on_c, 13, 53, 45
14, 1464295, Note_off_c, 13, 53, 64
14, 1464300, Note_on_c, 13, 50, 45
14, 1464700, Note_off_c, 13, 50, 64
14, 1465500, Note_on_c, 13, 52, 45
14, 1465735, Note_off_c, 13, 52, 64
14, 1465740, Note_on_c, 13, 52, 45
14, 1466140, Note_off_c, 13, 52, 64
14, 1466940, Note_on_c, 13, 48, 45
14, 1467175, Note_off_c, 13, 48, 64
14, 1467180, Note_on_c, 13, 53, 45
14, 1467580, Note_off_c, 13, 53, 64
14, 1467900, Note_on_c, 13, 50, 55
14, 1468300, Note_off_c, 13, 50, 64
14, 1468380, Note_on_c, 13, 45, 62
14, 1468615, Note_off_c, 13, 45, 64
14, 1468620, Note_on_c, 13, 46, 65
14, 1469020, Note_off_c, 13, 46, 64
14, 1469340, Note_on_c, 13, 48, 75
14, 1469740, Note_off_c, 13, 48, 64
14, 1469820, Note_on_c, 13, 36, 82
14, 1470055, Note_off_c, 13, 36, 64
14, 1470060, Note_on_c, 13, 41, 85
14, 1470460, Note_off_c, 13, 41, 64
14, 1471500, Program_c, 13, 50
14, 1471500, Note_on_c, 13, 57, 108
14, 1472220, Note_off_c, 13, 57, 64
14, 1472220, Note_on_c, 13, 53, 108
14, 1472700, Note_off_c, 13, 53, 64
14, 1472700, Note_on_c, 13, 60, 108
14, 1472935, Note_off_c, 13, 60, 64
14, 1472940, Note_on_c, 13, 57, 108
14, 1473660, Note_off_c, 13, 57, 64
14, 1473660, Note_on_c, 13, 53, 108
14, 1474060, Note_off_c, 13, 53, 64
14, 1474140, Note_on_c, 13, 48, 108
14, 1474220, Note_off_c, 13, 48, 64
14, 1474380, Note_on_c, 13, 53, 108
14, 1474860, Note_off_c, 13, 53, 64
14, 1474860, Note_on_c, 13, 57, 108
14, 1475100, Note_off_c, 13, 57, 64
14, 1475100, Note_on_c, 13, 60, 108
14, 1475580, Note_off_c, 13, 60, 64
14, 1475580, Note_on_c, 13, 57, 108
14, 1475815, Note_off_c, 13, 57, 64
14, 1475820, Note_on_c, 13, 58, 108
14, 1476940, Note_off_c, 13, 58, 64
14, 1477020, Note_on_c, 13, 55, 108
14, 1477100, Note_off_c, 13, 55, 64
14, 1477260, Note_on_c, 13, 58, 108
14, 1477980, Note_off_c, 13, 58, 64
14, 1477980, Note_on_c, 13, 55, 108
14, 1478380, Note_off_c, 13, 55, 64
14, 1478460, Note_on_c, 13, 60, 108
14, 1478540, Note_off_c, 13, 60, 64
14, 1478700, Note_on_c, 13, 57, 108
14, 1479420, Note_off_c, 13, 57, 64
14, 1479420, Note_on_c, 13, 53, 108
14, 1479820, Note_off_c, 13, 53, 64
14, 1479900, Note_on_c, 13, 57, 108
14, 1479980, Note_off_c, 13, 57, 64
14, 1480140, Note_on_c, 13, 55, 108
14, 1480620, Note_off_c, 13, 55, 64
14, 1480620, Note_on_c, 13, 50, 108
14, 1480860, Note_off_c, 13, 50, 64
14, 1480860, Note_on_c, 13, 52, 108
14, 1481340, Note_off_c, 13, 52, 64
14, 1481340, Note_on_c, 13, 48, 108
14, 1481575, Note_off_c, 13, 48, 64
14, 1481580, Note_on_c, 13, 48, 92
14, 1481820, Note_off_c, 13, 48, 64
14, 1481820, Note_on_c, 13, 53, 92
14, 1482220, Note_off_c, 13, 53, 64
14, 1482300, Note_on_c, 13, 48, 92
14, 1482540, Note_off_c, 13, 48, 64
14, 1482540, Note_on_c, 13, 55, 92
14, 1482940, Note_off_c, 13, 55, 64
14, 1483020, Note_on_c, 13, 48, 92
14, 1483260, Note_off_c, 13, 48, 64
14, 1483260, Note_on_c, 13, 57, 92
14, 1483660, Note_off_c, 13, 57, 64
14, 1483740, Note_on_c, 13, 60, 92
14, 1483980, Note_off_c, 13, 60, 64
14, 1483980, Note_on_c, 13, 58, 92
14, 1484215, Note_off_c, 13, 58, 64
14, 1484220, Note_on_c, 13, 55, 92
14, 1484300, Note_off_c, 13, 55, 64
14, 1484340, Note_on_c, 13, 52, 92
14, 1484420, Note_off_c, 13, 52, 64
14, 1484460, Note_on_c, 13, 48, 75
14, 1484580, Note_off_c, 13, 48, 64
14, 1484580, Note_on_c, 13, 53, 75
14, 1484700, Note_off_c, 13, 53, 64
14, 1484700, Note_on_c, 13, 57, 75
14, 1484820, Note_off_c, 13, 57, 64
14, 1484820, Note_on_c, 13, 60, 75
14, 1484940, Note_off_c, 13, 60, 64
14, 1484940, Note_on_c, 13, 57, 75
14, 1485060, Note_off_c, 13, 57, 64
14, 1485060, Note_on_c, 13, 53, 75
14, 1485180, Note_off_c, 13, 53, 64
14, 1485180, Note_on_c, 13, 48, 75
14, 1485300, Note_off_c, 13, 48, 64
14, 1485300, Note_on_c, 13, 55, 75
14, 1485420, Note_off_c, 13, 55, 64
14, 1485420, Note_on_c, 13, 58, 75
14, 1485540, Note_off_c, 13, 58, 64
14, 1485540, Note_on_c, 13, 60, 75
14, 1485660, Note_off_c, 13, 60, 64
14, 1485660, Note_on_c, 13, 58, 75
14, 1485780, Note_off_c, 13, 58, 64
14, 1485780, Note_on_c, 13, 55, 75
14, 1485900, Note_off_c, 13, 55, 64
14, 1485900, Note_on_c, 13, 48, 75
14, 1486020, Note_off_c, 13, 48, 64
14, 1486020, Note_on_c, 13, 53, 75
14, 1486140, Note_off_c, 13, 53, 64
14, 1486140, Note_on_c, 13, 57, 75
14, 1486260, Note_off_c, 13, 57, 64
14, 1486260, Note_on_c, 13, 60, 75
14, 1486380, Note_off_c, 13, 60, 64
14, 1486380, Note_on_c, 13, 57, 75
14, 1486500, Note_off_c, 13, 57, 64
14, 1486500, Note_on_c, 13, 53, 75
14, 1486620, Note_off_c, 13, 53, 64
14, 1486620, Note_on_c, 13, 48, 75
14, 1486740, Note_off_c, 13, 48, 64
14, 1486740, Note_on_c, 13, 55, 75
14, 1486860, Note_off_c, 13, 55, 64
14, 1486860, Note_on_c, 13, 58, 75
14, 1486980, Note_off_c, 13, 58, 64
14, 1486980, Note_on_c, 13, 60, 75
14, 1487095, Note_off_c, 13, 60, 64
14, 1487100, Note_on_c, 13, 48, 92
14, 1487340, Note_off_c, 13, 48, 64
14, 1487340, Note_on_c, 13, 48, 92
14, 1487580, Note_off_c, 13, 48, 64
14, 1487580, Note_on_c, 13, 53, 92
14, 1487815, Note_off_c, 13, 53, 64
14, 1487820, Note_on_c, 13, 53, 92
14, 1487880, Note_off_c, 13, 53, 64
14, 1487880, Note_on_c, 13, 55, 92
14, 1487940, Note_off_c, 13, 55, 64
14, 1487940, Note_on_c, 13, 53, 92
14, 1488000, Note_off_c, 13, 53, 64
14, 1488000, Note_on_c, 13, 55, 92
14, 1488055, Note_off_c, 13, 55, 64
14, 1488060, Note_on_c, 13, 48, 92
14, 1488300, Note_off_c, 13, 48, 64
14, 1488300, Note_on_c, 13, 55, 92
14, 1488535, Note_off_c, 13, 55, 64
14, 1488540, Note_on_c, 13, 55, 92
14, 1488600, Note_off_c, 13, 55, 64
14, 1488600, Note_on_c, 13, 57, 92
14, 1488660, Note_off_c, 13, 57, 64
14, 1488660, Note_on_c, 13, 55, 92
14, 1488720, Note_off_c, 13, 55, 64
14, 1488720, Note_on_c, 13, 57, 92
14, 1488775, Note_off_c, 13, 57, 64
14, 1488780, Note_on_c, 13, 48, 92
14, 1489020, Note_off_c, 13, 48, 64
14, 1489020, Note_on_c, 13, 57, 92
14, 1489255, Note_off_c, 13, 57, 64
14, 1489260, Note_on_c, 13, 57, 92
14, 1489320, Note_off_c, 13, 57, 64
14, 1489320, Note_on_c, 13, 58, 92
14, 1489380, Note_off_c, 13, 58, 64
14, 1489380, Note_on_c, 13, 57, 92
14, 1489440, Note_off_c, 13, 57, 64
14, 1489440, Note_on_c, 13, 58, 92
14, 1489495, Note_off_c, 13, 58, 64
14, 1489500, Note_on_c, 13, 60, 92
14, 1489740, Note_off_c, 13, 60, 64
14, 1489740, Note_on_c, 13, 58, 92
14, 1489975, Note_off_c, 13, 58, 64
14, 1489980, Note_on_c, 13, 55, 92
14, 1490060, Note_off_c, 13, 55, 64
14, 1490100, Note_on_c, 13, 52, 92
14, 1490180, Note_off_c, 13, 52, 64
14, 1490220, Note_on_c, 13, 48, 75
14, 1490340, Note_off_c, 13, 48, 64
14, 1490340, Note_on_c, 13, 53, 75
14, 1490460, Note_off_c, 13, 53, 64
14, 1490460, Note_on_c, 13, 57, 75
14, 1490580, Note_off_c, 13, 57, 64
14, 1490580, Note_on_c, 13, 60, 75
14, 1490700, Note_off_c, 13, 60, 64
14, 1490700, Note_on_c, 13, 57, 75
14, 1490820, Note_off_c, 13, 57, 64
14, 1490820, Note_on_c, 13, 53, 75
14, 1490940, Note_off_c, 13, 53, 64
14, 1490940, Note_on_c, 13, 48, 75
14, 1491060, Note_off_c, 13, 48, 64
14, 1491060, Note_on_c, 13, 55, 75
14, 1491180, Note_off_c, 13, 55, 64
14, 1491180, Note_on_c, 13, 58, 75
14, 1491300, Note_off_c, 13, 58, 64
14, 1491300, Note_on_c, 13, 60, 75
14, 1491420, Note_off_c, 13, 60, 64
14, 1491420, Note_on_c, 13, 58, 75
14, 1491540, Note_off_c, 13, 58, 64
14, 1491540, Note_on_c, 13, 55, 75
14, 1491660, Note_off_c, 13, 55, 64
14, 1491660, Note_on_c, 13, 48, 75
14, 1491780, Note_off_c, 13, 48, 64
14, 1491780, Note_on_c, 13, 53, 75
14, 1491900, Note_off_c, 13, 53, 64
14, 1491900, Note_on_c, 13, 57, 75
14, 1492020, Note_off_c, 13, 57, 64
14, 1492020, Note_on_c, 13, 60, 75
14, 1492140, Note_off_c, 13, 60, 64
14, 1492140, Note_on_c, 13, 57, 75
14, 1492260, Note_off_c, 13, 57, 64
14, 1492260, Note_on_c, 13, 53, 75
14, 1492380, Note_off_c, 13, 53, 64
14, 1492380, Note_on_c, 13, 48, 75
14, 1492500, Note_off_c, 13, 48, 64
14, 1492500, Note_on_c, 13, 52, 75
14, 1492620, Note_off_c, 13, 52, 64
14, 1492620, Note_on_c, 13, 58, 75
14, 1492740, Note_off_c, 13, 58, 64
14, 1492740, Note_on_c, 13, 60, 75
14, 1492855, Note_off_c, 13, 60, 64
14, 1493100, Note_on_c, 13, 62, 108
14, 1493340, Note_off_c, 13, 62, 64
14, 1493340, Note_on_c, 13, 60, 108
14, 1493575, Note_off_c, 13, 60, 64
14, 1493580, Note_on_c, 13, 57, 108
14, 1493660, Note_off_c, 13, 57, 64
14, 1493700, Note_on_c, 13, 53, 108
14, 1493780, Note_off_c, 13, 53, 64
14, 1494540, Note_on_c, 13, 65, 108
14, 1494780, Note_off_c, 13, 65, 64
14, 1494780, Note_on_c, 13, 64, 108
14, 1495015, Note_off_c, 13, 64, 64
14, 1495020, Note_on_c, 13, 60, 108
14, 1495100, Note_off_c, 13, 60, 64
14, 1495140, Note_on_c, 13, 55, 108
14, 1495220, Note_off_c, 13, 55, 64
14, 1495740, Note_on_c, 13, 50, 108
14, 1495980, Note_off_c, 13, 50, 64
14, 1495980, Note_on_c, 13, 52, 108
14, 1496380, Note_off_c, 13, 52, 64
14, 1497420, Program_c, 13, 48
14, 1497420, Note_on_c, 13, 57, 108
14, 1497660, Note_off_c, 13, 57, 64
14, 1497660, Note_on_c, 13, 55, 108
14, 1497895, Note_off_c, 13, 55, 64
14, 1497900, Note_on_c, 13, 52, 108
14, 1497980, Note_off_c, 13, 52, 64
14, 1498020, Note_on_c, 13, 48, 108
14, 1498100, Note_off_c, 13, 48, 64
14, 1498140, Note_on_c, 13, 45, 108
14, 1498380, Note_off_c, 13, 45, 64
14, 1498380, Note_on_c, 13, 43, 108
14, 1498615, Note_off_c, 13, 43, 64
14, 1498620, Note_on_c, 13, 40, 108
14, 1498700, Note_off_c, 13, 40, 64
14, 1498740, Note_on_c, 13, 36, 108
14, 1498820, Note_off_c, 13, 36, 64
14, 1498860, Note_on_c, 13, 43, 108
14, 1500180, Note_off_c, 13, 43, 64
14, 1500300, Note_on_c, 13, 55, 108
14, 1500540, Note_off_c, 13, 55, 64
14, 1500540, Note_on_c, 13, 53, 108
14, 1500775, Note_off_c, 13, 53, 64
14, 1500780, Note_on_c, 13, 50, 108
14, 1500860, Note_off_c, 13, 50, 64
14, 1500900, Note_on_c, 13, 47, 108
14, 1500980, Note_off_c, 13, 47, 64
14, 1501020, Note_on_c, 13, 43, 108
14, 1501260, Note_off_c, 13, 43, 64
14, 1501260, Note_on_c, 13, 41, 108
14, 1501495, Note_off_c, 13, 41, 64
14, 1501500, Note_on_c, 13, 38, 108
14, 1501580, Note_off_c, 13, 38, 64
14, 1501620, Note_on_c, 13, 35, 108
14, 1501700, Note_off_c, 13, 35, 64
14, 1501740, Note_on_c, 13, 43, 108
14, 1503060, Note_off_c, 13, 43, 64
14, 1503180, Note_on_c, 13, 57, 108
14, 1503300, Note_off_c, 13, 57, 64
14, 1503300, Note_on_c, 13, 55, 108
14, 1503380, Note_off_c, 13, 55, 64
14, 1503420, Note_on_c, 13, 54, 108
14, 1503500, Note_off_c, 13, 54, 64
14, 1503540, Note_on_c, 13, 55, 108
14, 1503620, Note_off_c, 13, 55, 64
14, 1503660, Note_on_c, 13, 52, 108
14, 1503740, Note_off_c, 13, 52, 64
14, 1503780, Note_on_c, 13, 48, 108
14, 1503860, Note_off_c, 13, 48, 64
14, 1503900, Note_on_c, 13, 45, 108
14, 1504020, Note_off_c, 13, 45, 64
14, 1504020, Note_on_c, 13, 43, 108
14, 1504135, Note_off_c, 13, 43, 64
14, 1504140, Note_on_c, 13, 42, 108
14, 1504220, Note_off_c, 13, 42, 64
14, 1504260, Note_on_c, 13, 43, 108
14, 1504340, Note_off_c, 13, 43, 64
14, 1504380, Note_on_c, 13, 40, 108
14, 1504460, Note_off_c, 13, 40, 64
14, 1504500, Note_on_c, 13, 36, 108
14, 1504580, Note_off_c, 13, 36, 64
14, 1504620, Note_on_c, 13, 43, 108
14, 1505940, Note_off_c, 13, 43, 64
14, 1506060, Note_on_c, 13, 57, 108
14, 1506180, Note_off_c, 13, 57, 64
14, 1506180, Note_on_c, 13, 55, 108
14, 1506260, Note_off_c, 13, 55, 64
14, 1506300, Note_on_c, 13, 54, 108
14, 1506380, Note_off_c, 13, 54, 64
14, 1506420, Note_on_c, 13, 55, 108
14, 1506500, Note_off_c, 13, 55, 64
14, 1506540, Note_on_c, 13, 53, 108
14, 1506620, Note_off_c, 13, 53, 64
14, 1506660, Note_on_c, 13, 50, 108
14, 1506740, Note_off_c, 13, 50, 64
14, 1506780, Note_on_c, 13, 45, 108
14, 1506900, Note_off_c, 13, 45, 64
14, 1506900, Note_on_c, 13, 43, 108
14, 1507015, Note_off_c, 13, 43, 64
14, 1507020, Note_on_c, 13, 42, 108
14, 1507135, Note_off_c, 13, 42, 64
14, 1507140, Note_on_c, 13, 38, 108
14, 1507220, Note_off_c, 13, 38, 64
14, 1507260, Note_on_c, 13, 43, 108
14, 1507340, Note_off_c, 13, 43, 64
14, 1507380, Note_on_c, 13, 43, 108
14, 1507460, Note_off_c, 13, 43, 64
14, 1507500, Note_on_c, 13, 48, 108
14, 1507615, Note_off_c, 13, 48, 64
14, 1507620, Note_on_c, 13, 60, 45
14, 1507740, Note_off_c, 13, 60, 64
14, 1507740, Note_on_c, 13, 59, 47
14, 1507860, Note_off_c, 13, 59, 64
14, 1507860, Note_on_c, 13, 60, 49
14, 1507980, Note_off_c, 13, 60, 64
14, 1507980, Note_on_c, 13, 62, 51
14, 1508100, Note_off_c, 13, 62, 64
14, 1508100, Note_on_c, 13, 60, 53
14, 1508220, Note_off_c, 13, 60, 64
14, 1508220, Note_on_c, 13, 57, 56
14, 1508340, Note_off_c, 13, 57, 64
14, 1508340, Note_on_c, 13, 60, 59
14, 1508460, Note_off_c, 13, 60, 64
14, 1508460, Note_on_c, 13, 55, 62
14, 1508580, Note_off_c, 13, 55, 64
14, 1508580, Note_on_c, 13, 60, 65
14, 1508700, Note_off_c, 13, 60, 64
14, 1508700, Note_on_c, 13, 53, 68
14, 1508820, Note_off_c, 13, 53, 64
14, 1508820, Note_on_c, 13, 60, 71
14, 1508935, Note_off_c, 13, 60, 64
14, 1508940, Note_on_c, 13, 52, 74
14, 1509060, Note_off_c, 13, 52, 64
14, 1509060, Note_on_c, 13, 55, 77
14, 1509180, Note_off_c, 13, 55, 64
14, 1509180, Note_on_c, 13, 50, 80
14, 1509300, Note_off_c, 13, 50, 64
14, 1509300, Note_on_c, 13, 55, 83
14, 1509420, Note_off_c, 13, 55, 64
14, 1509420, Note_on_c, 13, 48, 86
14, 1509540, Note_off_c, 13, 48, 64
14, 1509540, Note_on_c, 13, 55, 89
14, 1509655, Note_off_c, 13, 55, 64
14, 1509660, Note_on_c, 13, 47, 92
14, 1509780, Note_off_c, 13, 47, 64
14, 1509780, Note_on_c, 13, 43, 92
14, 1509900, Note_off_c, 13, 43, 64
14, 1509900, Note_on_c, 13, 47, 92
14, 1510020, Note_off_c, 13, 47, 64
14, 1510020, Note_on_c, 13, 50, 92
14, 1510140, Note_off_c, 13, 50, 64
14, 1510140, Note_on_c, 13, 55, 92
14, 1510260, Note_off_c, 13, 55, 64
14, 1510260, Note_on_c, 13, 59, 92
14, 1510375, Note_off_c, 13, 59, 64
14, 1510380, Note_on_c, 13, 60, 92
14, 1510495, Note_off_c, 13, 60, 64
14, 1510500, Note_on_c, 13, 60, 45
14, 1510620, Note_off_c, 13, 60, 64
14, 1510620, Note_on_c, 13, 59, 45
14, 1510740, Note_off_c, 13, 59, 64
14, 1510740, Note_on_c, 13, 60, 45
14, 1510860, Note_off_c, 13, 60, 64
14, 1510860, Note_on_c, 13, 62, 45
14, 1510980, Note_off_c, 13, 62, 64
14, 1510980, Note_on_c, 13, 60, 45
14, 1511100, Note_off_c, 13, 60, 64
14, 1511100, Note_on_c, 13, 57, 45
14, 1511220, Note_off_c, 13, 57, 64
14, 1511220, Note_on_c, 13, 60, 48
14, 1511340, Note_off_c, 13, 60, 64
14, 1511340, Note_on_c, 13, 55, 51
14, 1511460, Note_off_c, 13, 55, 64
14, 1511460, Note_on_c, 13, 60, 54
14, 1511580, Note_off_c, 13, 60, 64
14, 1511580, Note_on_c, 13, 53, 57
14, 1511700, Note_off_c, 13, 53, 64
14, 1511700, Note_on_c, 13, 60, 60
14, 1511815, Note_off_c, 13, 60, 64
14, 1511820, Note_on_c, 13, 52, 63
14, 1511940, Note_off_c, 13, 52, 64
14, 1511940, Note_on_c, 13, 55, 66
14, 1512060, Note_off_c, 13, 55, 64
14, 1512060, Note_on_c, 13, 50, 69
14, 1512180, Note_off_c, 13, 50, 64
14, 1512180, Note_on_c, 13, 55, 72
14, 1512300, Note_off_c, 13, 55, 64
14, 1512300, Note_on_c, 13, 48, 76
14, 1512420, Note_off_c, 13, 48, 64
14, 1512420, Note_on_c, 13, 55, 80
14, 1512540, Note_off_c, 13, 55, 64
14, 1512540, Note_on_c, 13, 47, 84
14, 1512660, Note_off_c, 13, 47, 64
14, 1512660, Note_on_c, 13, 43, 88
14, 1512780, Note_off_c, 13, 43, 64
14, 1512780, Note_on_c, 13, 47, 92
14, 1512900, Note_off_c, 13, 47, 64
14, 1512900, Note_on_c, 13, 50, 96
14, 1513020, Note_off_c, 13, 50, 64
14, 1513020, Note_on_c, 13, 55, 100
14, 1513140, Note_off_c, 13, 55, 64
14, 1513140, Note_on_c, 13, 59, 104
14, 1513255, Note_off_c, 13, 59, 64
14, 1513260, Note_on_c, 13, 48, 108
14, 1514215, Note_off_c, 13, 48, 64
14, 1514460, Note_on_c, 13, 48, 108
14, 1514695, Note_off_c, 13, 48, 64
14, 1514700, Note_on_c, 13, 41, 108
14, 1515655, Note_off_c, 13, 41, 64
14, 1515900, Note_on_c, 13, 41, 108
14, 1516135, Note_off_c, 13, 41, 64
14, 1516140, Note_on_c, 13, 43, 45
14, 1516540, Note_off_c, 13, 43, 64
14, 1523820, Program_c, 13, 50
14, 1524060, Note_on_c, 13, 41, 45
14, 1524060, Note_on_c, 13, 48, 45
14, 1527540, Note_off_c, 13, 48, 64
14, 1527540, Note_off_c, 13, 41, 64
14, 1527660, Note_on_c, 13, 41, 60
14, 1527660, Note_on_c, 13, 48, 60
14, 1528060, Note_off_c, 13, 48, 64
14, 1528060, Note_off_c, 13, 41, 64
14, 1528860, Program_c, 13, 45
14, 1528860, Note_on_c, 13, 53, 45
14, 1529095, Note_off_c, 13, 53, 64
14, 1529100, Note_on_c, 13, 53, 45
14, 1529500, Note_off_c, 13, 53, 64
14, 1530300, Note_on_c, 13, 53, 45
14, 1530535, Note_off_c, 13, 53, 64
14, 1530540, Note_on_c, 13, 53, 45
14, 1530940, Note_off_c, 13, 53, 64
14, 1531740, Note_on_c, 13, 53, 45
14, 1531975, Note_off_c, 13, 53, 64
14, 1531980, Note_on_c, 13, 50, 45
14, 1532380, Note_off_c, 13, 50, 64
14, 1533180, Note_on_c, 13, 52, 45
14, 1533415, Note_off_c, 13, 52, 64
14, 1533420, Note_on_c, 13, 52, 45
14, 1533820, Note_off_c, 13, 52, 64
14, 1534620, Note_on_c, 13, 48, 45
14, 1534855, Note_off_c, 13, 48, 64
14, 1534860, Note_on_c, 13, 53, 45
14, 1535260, Note_off_c, 13, 53, 64
14, 1535580, Note_on_c, 13, 50, 45
14, 1535980, Note_off_c, 13, 50, 64
14, 1536060, Note_on_c, 13, 45, 45
14, 1536295, Note_off_c, 13, 45, 64
14, 1536300, Note_on_c, 13, 46, 45
14, 1536700, Note_off_c, 13, 46, 64
14, 1537020, Note_on_c, 13, 48, 45
14, 1537420, Note_off_c, 13, 48, 64
14, 1537500, Note_on_c, 13, 36, 45
14, 1537735, Note_off_c, 13, 36, 64
14, 1537740, Note_on_c, 13, 41, 45
14, 1538140, Note_off_c, 13, 41, 64
14, 1539180, Note_on_c, 13, 53, 45
14, 1539580, Note_off_c, 13, 53, 64
14, 1540380, Note_on_c, 13, 53, 45
14, 1540615, Note_off_c, 13, 53, 64
14, 1540620, Note_on_c, 13, 53, 45
14, 1541020, Note_off_c, 13, 53, 64
14, 1541820, Note_on_c, 13, 53, 45
14, 1542055, Note_off_c, 13, 53, 64
14, 1542060, Note_on_c, 13, 53, 45
14, 1542460, Note_off_c, 13, 53, 64
14, 1543260, Note_on_c, 13, 53, 45
14, 1543495, Note_off_c, 13, 53, 64
14, 1543500, Note_on_c, 13, 53, 45
14, 1543900, Note_off_c, 13, 53, 64
14, 1544700, Program_c, 13, 48
14, 1544700, Note_on_c, 13, 53, 45
14, 1545340, Note_off_c, 13, 53, 64
14, 1546140, Note_on_c, 13, 53, 75
14, 1546375, Note_off_c, 13, 53, 64
14, 1546380, Note_on_c, 13, 57, 80
14, 1546860, Note_off_c, 13, 57, 64
14, 1546860, Note_on_c, 13, 60, 91
14, 1547100, Note_off_c, 13, 60, 64
14, 1547100, Note_on_c, 13, 63, 96
14, 1547500, Note_off_c, 13, 63, 64
14, 1547580, Note_on_c, 13, 60, 108
14, 1547815, Note_off_c, 13, 60, 64
14, 1547820, Note_on_c, 13, 63, 108
14, 1548220, Note_off_c, 13, 63, 64
14, 1548300, Note_on_c, 13, 60, 108
14, 1548535, Note_off_c, 13, 60, 64
14, 1548540, Note_on_c, 13, 57, 108
14, 1548940, Note_off_c, 13, 57, 64
14, 1549020, Note_on_c, 13, 53, 108
14, 1549255, Note_off_c, 13, 53, 64
14, 1549260, Note_on_c, 13, 51, 108
14, 1549660, Note_off_c, 13, 51, 64
14, 1549740, Note_on_c, 13, 48, 108
14, 1549975, Note_off_c, 13, 48, 64
14, 1549980, Note_on_c, 13, 45, 108
14, 1550380, Note_off_c, 13, 45, 64
14, 1550460, Note_on_c, 13, 41, 108
14, 1550695, Note_off_c, 13, 41, 64
14, 1550700, Note_on_c, 13, 46, 108
14, 1551100, Note_off_c, 13, 46, 64
14, 1553340, Note_on_c, 13, 41, 108
14, 1553580, Note_off_c, 13, 41, 64
14, 1553580, Note_on_c, 13, 48, 108
14, 1553980, Note_off_c, 13, 48, 64
14, 1556220, Note_on_c, 13, 41, 108
14, 1556460, Note_off_c, 13, 41, 64
14, 1556460, Note_on_c, 13, 53, 108
14, 1556860, Note_off_c, 13, 53, 64
14, 1559100, Note_on_c, 13, 41, 108
14, 1559340, Note_off_c, 13, 41, 64
14, 1559340, Note_on_c, 13, 46, 108
14, 1559740, Note_off_c, 13, 46, 64
14, 1560540, Note_on_c, 13, 46, 108
14, 1560780, Note_off_c, 13, 46, 64
14, 1560780, Note_on_c, 13, 51, 108
14, 1561180, Note_off_c, 13, 51, 64
14, 1561980, Note_on_c, 13, 51, 108
14, 1562220, Note_off_c, 13, 51, 64
14, 1562220, Note_on_c, 13, 46, 108
14, 1562620, Note_off_c, 13, 46, 64
14, 1563420, Note_on_c, 13, 46, 108
14, 1563660, Note_off_c, 13, 46, 64
14, 1563660, Note_on_c, 13, 41, 108
14, 1564060, Note_off_c, 13, 41, 64
14, 1564860, Note_on_c, 13, 41, 108
14, 1565100, Note_off_c, 13, 41, 64
14, 1565100, Note_on_c, 13, 46, 108
14, 1565500, Note_off_c, 13, 46, 64
14, 1566300, Note_on_c, 13, 46, 108
14, 1566540, Note_off_c, 13, 46, 64
14, 1566540, Note_on_c, 13, 51, 108
14, 1566940, Note_off_c, 13, 51, 64
14, 1567740, Note_on_c, 13, 51, 108
14, 1567980, Note_off_c, 13, 51, 64
14, 1567980, Note_on_c, 13, 53, 108
14, 1568380, Note_off_c, 13, 53, 64
14, 1569180, Note_on_c, 13, 53, 75
14, 1569420, Note_off_c, 13, 53, 64
14, 1569420, Note_on_c, 13, 54, 75
14, 1570540, Note_off_c, 13, 54, 64
14, 1570620, Note_on_c, 13, 55, 75
14, 1570855, Note_off_c, 13, 55, 64
14, 1570860, Note_on_c, 13, 56, 60
14, 1572300, Note_off_c, 13, 56, 64
14, 1572300, Note_on_c, 13, 56, 45
14, 1572700, Note_off_c, 13, 56, 64
14, 1573500, Program_c, 13, 45
14, 1573500, Note_on_c, 13, 44, 45
14, 1573735, Note_off_c, 13, 44, 64
14, 1573740, Note_on_c, 13, 45, 45
14, 1574140, Note_off_c, 13, 45, 64
14, 1574940, Note_on_c, 13, 45, 45
14, 1575175, Note_off_c, 13, 45, 64
14, 1575180, Note_on_c, 13, 46, 45
14, 1575580, Note_off_c, 13, 46, 64
14, 1576380, Note_on_c, 13, 46, 45
14, 1576615, Note_off_c, 13, 46, 64
14, 1576620, Note_on_c, 13, 47, 45
14, 1577020, Note_off_c, 13, 47, 64
14, 1577820, Program_c, 13, 48
14, 1577820, Note_on_c, 13, 43, 45
14, 1578055, Note_off_c, 13, 43, 64
14, 1578060, Note_on_c, 13, 48, 45
14, 1578780, Note_off_c, 13, 48, 64
14, 1578780, Note_on_c, 13, 43, 45
14, 1579260, Note_off_c, 13, 43, 64
14, 1579260, Note_on_c, 13, 52, 45
14, 1579495, Note_off_c, 13, 52, 64
14, 1579500, Note_on_c, 13, 50, 45
14, 1580220, Note_off_c, 13, 50, 64
14, 1580220, Note_on_c, 13, 43, 45
14, 1580620, Note_off_c, 13, 43, 64
14, 1580700, Note_on_c, 13, 53, 92
14, 1580780, Note_off_c, 13, 53, 64
14, 1580940, Note_on_c, 13, 47, 92
14, 1581660, Note_off_c, 13, 47, 64
14, 1581660, Note_on_c, 13, 43, 92
14, 1581895, Note_off_c, 13, 43, 64
14, 1582140, Note_on_c, 13, 50, 92
14, 1582220, Note_off_c, 13, 50, 64
14, 1582380, Note_on_c, 13, 48, 92
14, 1583100, Note_off_c, 13, 48, 64
14, 1583100, Note_on_c, 13, 43, 92
14, 1583335, Note_off_c, 13, 43, 64
14, 1583580, Note_on_c, 13, 52, 92
14, 1583660, Note_off_c, 13, 52, 64
14, 1583820, Note_on_c, 13, 48, 45
14, 1584540, Note_off_c, 13, 48, 64
14, 1584540, Note_on_c, 13, 43, 45
14, 1585020, Note_off_c, 13, 43, 64
14, 1585020, Note_on_c, 13, 52, 45
14, 1585255, Note_off_c, 13, 52, 64
14, 1585260, Note_on_c, 13, 50, 45
14, 1585980, Note_off_c, 13, 50, 64
14, 1585980, Note_on_c, 13, 43, 45
14, 1586380, Note_off_c, 13, 43, 64
14, 1586460, Note_on_c, 13, 53, 92
14, 1586540, Note_off_c, 13, 53, 64
14, 1586700, Note_on_c, 13, 47, 92
14, 1587420, Note_off_c, 13, 47, 64
14, 1587420, Note_on_c, 13, 43, 96
14, 1587655, Note_off_c, 13, 43, 64
14, 1587900, Note_on_c, 13, 50, 98
14, 1587980, Note_off_c, 13, 50, 64
14, 1588140, Note_on_c, 13, 48, 99
14, 1588860, Note_off_c, 13, 48, 64
14, 1588860, Note_on_c, 13, 43, 103
14, 1589095, Note_off_c, 13, 43, 64
14, 1589340, Note_on_c, 13, 52, 106
14, 1589420, Note_off_c, 13, 52, 64
14, 1589580, Note_on_c, 13, 48, 108
14, 1590300, Note_off_c, 13, 48, 64
14, 1590300, Note_on_c, 13, 43, 108
14, 1590535, Note_off_c, 13, 43, 64
14, 1590780, Note_on_c, 13, 52, 108
14, 1590860, Note_off_c, 13, 52, 64
14, 1591020, Note_on_c, 13, 48, 108
14, 1591740, Note_off_c, 13, 48, 64
14, 1591740, Note_on_c, 13, 43, 108
14, 1591975, Note_off_c, 13, 43, 64
14, 1592220, Note_on_c, 13, 52, 108
14, 1592300, Note_off_c, 13, 52, 64
14, 1592460, Note_on_c, 13, 48, 45
14, 1598100, Note_off_c, 13, 48, 64
14, 1598220, Note_on_c, 13, 48, 45
14, 1600300, Note_off_c, 13, 48, 64
14, 1600380, Note_on_c, 13, 41, 45
14, 1603860, Note_off_c, 13, 41, 64
14, 1603980, Note_on_c, 13, 41, 45
14, 1603980, Note_on_c, 13, 48, 45
14, 1604380, Note_off_c, 13, 48, 64
14, 1604380, Note_off_c, 13, 41, 64
14, 1605180, Program_c, 13, 45
14, 1605180, Note_on_c, 13, 53, 30
14, 1605415, Note_off_c, 13, 53, 64
14, 1605420, Note_on_c, 13, 53, 30
14, 1605820, Note_off_c, 13, 53, 64
14, 1606620, Note_on_c, 13, 53, 30
14, 1606855, Note_off_c, 13, 53, 64
14, 1606860, Note_on_c, 13, 53, 30
14, 1607260, Note_off_c, 13, 53, 64
14, 1608060, Note_on_c, 13, 53, 30
14, 1608295, Note_off_c, 13, 53, 64
14, 1608300, Note_on_c, 13, 50, 30
14, 1608700, Note_off_c, 13, 50, 64
14, 1609500, Note_on_c, 13, 52, 30
14, 1609735, Note_off_c, 13, 52, 64
14, 1609740, Note_on_c, 13, 52, 30
14, 1610140, Note_off_c, 13, 52, 64
14, 1610940, Note_on_c, 13, 48, 35
14, 1611175, Note_off_c, 13, 48, 64
14, 1611180, Note_on_c, 13, 53, 36
14, 1611580, Note_off_c, 13, 53, 64
14, 1611900, Note_on_c, 13, 50, 39
14, 1612300, Note_off_c, 13, 50, 64
14, 1612380, Note_on_c, 13, 45, 41
14, 1612615, Note_off_c, 13, 45, 64
14, 1612620, Note_on_c, 13, 46, 42
14, 1613020, Note_off_c, 13, 46, 64
14, 1613340, Note_on_c, 13, 48, 46
14, 1613740, Note_off_c, 13, 48, 64
14, 1613820, Note_on_c, 13, 36, 49
14, 1614055, Note_off_c, 13, 36, 64
14, 1614060, Note_on_c, 13, 41, 50
14, 1614460, Note_off_c, 13, 41, 64
14, 1615260, Note_on_c, 13, 53, 58
14, 1615495, Note_off_c, 13, 53, 64
14, 1615500, Note_on_c, 13, 53, 60
14, 1615900, Note_off_c, 13, 53, 64
14, 1616700, Note_on_c, 13, 53, 60
14, 1616935, Note_off_c, 13, 53, 64
14, 1616940, Note_on_c, 13, 53, 60
14, 1617340, Note_off_c, 13, 53, 64
14, 1618140, Note_on_c, 13, 53, 60
14, 1618375, Note_off_c, 13, 53, 64
14, 1618380, Note_on_c, 13, 53, 60
14, 1618780, Note_off_c, 13, 53, 64
14, 1619580, Note_on_c, 13, 53, 60
14, 1619815, Note_off_c, 13, 53, 64
14, 1619820, Note_on_c, 13, 50, 60
14, 1620220, Note_off_c, 13, 50, 64
14, 1621020, Note_on_c, 13, 52, 60
14, 1621255, Note_off_c, 13, 52, 64
14, 1621260, Note_on_c, 13, 52, 60
14, 1621660, Note_off_c, 13, 52, 64
14, 1622460, Note_on_c, 13, 48, 60
14, 1622695, Note_off_c, 13, 48, 64
14, 1622700, Note_on_c, 13, 53, 60
14, 1623100, Note_off_c, 13, 53, 64
14, 1623420, Note_on_c, 13, 50, 67
14, 1623820, Note_off_c, 13, 50, 64
14, 1623900, Note_on_c, 13, 45, 72
14, 1624135, Note_off_c, 13, 45, 64
14, 1624140, Note_on_c, 13, 46, 74
14, 1624540, Note_off_c, 13, 46, 64
14, 1624860, Note_on_c, 13, 48, 81
14, 1625260, Note_off_c, 13, 48, 64
14, 1625340, Note_on_c, 13, 48, 87
14, 1625575, Note_off_c, 13, 48, 64
14, 1625580, Note_on_c, 13, 53, 90
14, 1625980, Note_off_c, 13, 53, 64
14, 1627020, Program_c, 13, 50
14, 1627020, Note_on_c, 13, 57, 108
14, 1627140, Note_off_c, 13, 57, 64
14, 1627140, Note_on_c, 13, 58, 108
14, 1627260, Note_off_c, 13, 58, 64
14, 1627260, Note_on_c, 13, 57, 108
14, 1627380, Note_off_c, 13, 57, 64
14, 1627380, Note_on_c, 13, 55, 108
14, 1627500, Note_off_c, 13, 55, 64
14, 1627500, Note_on_c, 13, 53, 108
14, 1627620, Note_off_c, 13, 53, 64
14, 1627620, Note_on_c, 13, 52, 108
14, 1627740, Note_off_c, 13, 52, 64
14, 1627740, Note_on_c, 13, 53, 108
14, 1627860, Note_off_c, 13, 53, 64
14, 1627860, Note_on_c, 13, 55, 108
14, 1627980, Note_off_c, 13, 55, 64
14, 1627980, Note_on_c, 13, 57, 108
14, 1628100, Note_off_c, 13, 57, 64
14, 1628100, Note_on_c, 13, 58, 108
14, 1628220, Note_off_c, 13, 58, 64
14, 1628220, Note_on_c, 13, 60, 108
14, 1628340, Note_off_c, 13, 60, 64
14, 1628340, Note_on_c, 13, 58, 108
14, 1628460, Note_off_c, 13, 58, 64
14, 1628460, Note_on_c, 13, 57, 108
14, 1628580, Note_off_c, 13, 57, 64
14, 1628580, Note_on_c, 13, 58, 108
14, 1628700, Note_off_c, 13, 58, 64
14, 1628700, Note_on_c, 13, 57, 108
14, 1628820, Note_off_c, 13, 57, 64
14, 1628820, Note_on_c, 13, 55, 108
14, 1628940, Note_off_c, 13, 55, 64
14, 1628940, Note_on_c, 13, 53, 108
14, 1629060, Note_off_c, 13, 53, 64
14, 1629060, Note_on_c, 13, 52, 108
14, 1629180, Note_off_c, 13, 52, 64
14, 1629180, Note_on_c, 13, 53, 108
14, 1629300, Note_off_c, 13, 53, 64
14, 1629300, Note_on_c, 13, 52, 108
14, 1629420, Note_off_c, 13, 52, 64
14, 1629420, Note_on_c, 13, 53, 108
14, 1629540, Note_off_c, 13, 53, 64
14, 1629540, Note_on_c, 13, 48, 108
14, 1629660, Note_off_c, 13, 48, 64
14, 1629660, Note_on_c, 13, 50, 108
14, 1629780, Note_off_c, 13, 50, 64
14, 1629780, Note_on_c, 13, 52, 108
14, 1629900, Note_off_c, 13, 52, 64
14, 1629900, Note_on_c, 13, 53, 108
14, 1630020, Note_off_c, 13, 53, 64
14, 1630020, Note_on_c, 13, 55, 108
14, 1630140, Note_off_c, 13, 55, 64
14, 1630140, Note_on_c, 13, 53, 108
14, 1630260, Note_off_c, 13, 53, 64
14, 1630260, Note_on_c, 13, 52, 108
14, 1630380, Note_off_c, 13, 52, 64
14, 1630380, Note_on_c, 13, 53, 108
14, 1630500, Note_off_c, 13, 53, 64
14, 1630500, Note_on_c, 13, 55, 108
14, 1630620, Note_off_c, 13, 55, 64
14, 1630620, Note_on_c, 13, 57, 108
14, 1630740, Note_off_c, 13, 57, 64
14, 1630740, Note_on_c, 13, 58, 108
14, 1630860, Note_off_c, 13, 58, 64
14, 1630860, Note_on_c, 13, 60, 108
14, 1630980, Note_off_c, 13, 60, 64
14, 1630980, Note_on_c, 13, 59, 108
14, 1631100, Note_off_c, 13, 59, 64
14, 1631100, Note_on_c, 13, 60, 108
14, 1631220, Note_off_c, 13, 60, 64
14, 1631220, Note_on_c, 13, 57, 108
14, 1631340, Note_off_c, 13, 57, 64
14, 1631340, Note_on_c, 13, 58, 108
14, 1631460, Note_off_c, 13, 58, 64
14, 1631460, Note_on_c, 13, 60, 108
14, 1631580, Note_off_c, 13, 60, 64
14, 1631580, Note_on_c, 13, 62, 108
14, 1631700, Note_off_c, 13, 62, 64
14, 1631700, Note_on_c, 13, 60, 108
14, 1631820, Note_off_c, 13, 60, 64
14, 1631820, Note_on_c, 13, 58, 108
14, 1631940, Note_off_c, 13, 58, 64
14, 1631940, Note_on_c, 13, 60, 108
14, 1632060, Note_off_c, 13, 60, 64
14, 1632060, Note_on_c, 13, 58, 108
14, 1632180, Note_off_c, 13, 58, 64
14, 1632180, Note_on_c, 13, 60, 108
14, 1632300, Note_off_c, 13, 60, 64
14, 1632300, Note_on_c, 13, 58, 108
14, 1632420, Note_off_c, 13, 58, 64
14, 1632420, Note_on_c, 13, 57, 108
14, 1632540, Note_off_c, 13, 57, 64
14, 1632540, Note_on_c, 13, 55, 108
14, 1632660, Note_off_c, 13, 55, 64
14, 1632660, Note_on_c, 13, 57, 108
14, 1632780, Note_off_c, 13, 57, 64
14, 1632780, Note_on_c, 13, 58, 108
14, 1632900, Note_off_c, 13, 58, 64
14, 1632900, Note_on_c, 13, 60, 108
14, 1633020, Note_off_c, 13, 60, 64
14, 1633020, Note_on_c, 13, 58, 108
14, 1633140, Note_off_c, 13, 58, 64
14, 1633140, Note_on_c, 13, 57, 108
14, 1633260, Note_off_c, 13, 57, 64
14, 1633260, Note_on_c, 13, 55, 108
14, 1633380, Note_off_c, 13, 55, 64
14, 1633380, Note_on_c, 13, 54, 108
14, 1633500, Note_off_c, 13, 54, 64
14, 1633500, Note_on_c, 13, 55, 108
14, 1633620, Note_off_c, 13, 55, 64
14, 1633620, Note_on_c, 13, 57, 108
14, 1633740, Note_off_c, 13, 57, 64
14, 1633740, Note_on_c, 13, 58, 108
14, 1633860, Note_off_c, 13, 58, 64
14, 1633860, Note_on_c, 13, 59, 108
14, 1633980, Note_off_c, 13, 59, 64
14, 1633980, Note_on_c, 13, 60, 108
14, 1634100, Note_off_c, 13, 60, 64
14, 1634100, Note_on_c, 13, 58, 108
14, 1634220, Note_off_c, 13, 58, 64
14, 1634220, Note_on_c, 13, 57, 108
14, 1634340, Note_off_c, 13, 57, 64
14, 1634340, Note_on_c, 13, 58, 108
14, 1634460, Note_off_c, 13, 58, 64
14, 1634460, Note_on_c, 13, 57, 108
14, 1634580, Note_off_c, 13, 57, 64
14, 1634580, Note_on_c, 13, 55, 108
14, 1634700, Note_off_c, 13, 55, 64
14, 1634700, Note_on_c, 13, 57, 108
14, 1634820, Note_off_c, 13, 57, 64
14, 1634820, Note_on_c, 13, 55, 108
14, 1634940, Note_off_c, 13, 55, 64
14, 1634940, Note_on_c, 13, 53, 108
14, 1635060, Note_off_c, 13, 53, 64
14, 1635060, Note_on_c, 13, 55, 108
14, 1635180, Note_off_c, 13, 55, 64
14, 1635180, Note_on_c, 13, 53, 108
14, 1635300, Note_off_c, 13, 53, 64
14, 1635300, Note_on_c, 13, 52, 108
14, 1635420, Note_off_c, 13, 52, 64
14, 1635420, Note_on_c, 13, 53, 108
14, 1635540, Note_off_c, 13, 53, 64
14, 1635540, Note_on_c, 13, 57, 108
14, 1635660, Note_off_c, 13, 57, 64
14, 1635660, Note_on_c, 13, 57, 108
14, 1635780, Note_off_c, 13, 57, 64
14, 1635780, Note_on_c, 13, 55, 108
14, 1635900, Note_off_c, 13, 55, 64
14, 1635900, Note_on_c, 13, 53, 108
14, 1636020, Note_off_c, 13, 53, 64
14, 1636020, Note_on_c, 13, 55, 108
14, 1636140, Note_off_c, 13, 55, 64
14, 1636140, Note_on_c, 13, 50, 108
14, 1636260, Note_off_c, 13, 50, 64
14, 1636260, Note_on_c, 13, 55, 108
14, 1636380, Note_off_c, 13, 55, 64
14, 1636380, Note_on_c, 13, 53, 108
14, 1636500, Note_off_c, 13, 53, 64
14, 1636500, Note_on_c, 13, 52, 108
14, 1636620, Note_off_c, 13, 52, 64
14, 1636620, Note_on_c, 13, 50, 108
14, 1636740, Note_off_c, 13, 50, 64
14, 1636740, Note_on_c, 13, 52, 108
14, 1636860, Note_off_c, 13, 52, 64
14, 1636860, Note_on_c, 13, 48, 108
14, 1636980, Note_off_c, 13, 48, 64
14, 1636980, Note_on_c, 13, 52, 108
14, 1637095, Note_off_c, 13, 52, 64
14, 1637100, Program_c, 13, 48
14, 1637100, Note_on_c, 13, 48, 92
14, 1637340, Note_off_c, 13, 48, 64
14, 1637340, Note_on_c, 13, 53, 92
14, 1637740, Note_off_c, 13, 53, 64
14, 1637820, Note_on_c, 13, 48, 92
14, 1638060, Note_off_c, 13, 48, 64
14, 1638060, Note_on_c, 13, 55, 92
14, 1638460, Note_off_c, 13, 55, 64
14, 1638540, Note_on_c, 13, 48, 92
14, 1638780, Note_off_c, 13, 48, 64
14, 1638780, Note_on_c, 13, 57, 92
14, 1639180, Note_off_c, 13, 57, 64
14, 1639260, Note_on_c, 13, 60, 92
14, 1639500, Note_off_c, 13, 60, 64
14, 1639500, Note_on_c, 13, 58, 92
14, 1639735, Note_off_c, 13, 58, 64
14, 1639740, Note_on_c, 13, 55, 92
14, 1639820, Note_off_c, 13, 55, 64
14, 1639860, Note_on_c, 13, 52, 92
14, 1639940, Note_off_c, 13, 52, 64
14, 1639980, Note_on_c, 13, 48, 92
14, 1640100, Note_off_c, 13, 48, 64
14, 1640100, Note_on_c, 13, 53, 92
14, 1640220, Note_off_c, 13, 53, 64
14, 1640220, Note_on_c, 13, 57, 92
14, 1640340, Note_off_c, 13, 57, 64
14, 1640340, Note_on_c, 13, 60, 92
14, 1640460, Note_off_c, 13, 60, 64
14, 1640460, Note_on_c, 13, 57, 92
14, 1640580, Note_off_c, 13, 57, 64
14, 1640580, Note_on_c, 13, 53, 92
14, 1640695, Note_off_c, 13, 53, 64
14, 1640700, Note_on_c, 13, 48, 92
14, 1640820, Note_off_c, 13, 48, 64
14, 1640820, Note_on_c, 13, 55, 92
14, 1640940, Note_off_c, 13, 55, 64
14, 1640940, Note_on_c, 13, 58, 92
14, 1641060, Note_off_c, 13, 58, 64
14, 1641060, Note_on_c, 13, 60, 92
14, 1641180, Note_off_c, 13, 60, 64
14, 1641180, Note_on_c, 13, 58, 92
14, 1641300, Note_off_c, 13, 58, 64
14, 1641300, Note_on_c, 13, 55, 92
14, 1641415, Note_off_c, 13, 55, 64
14, 1641420, Note_on_c, 13, 48, 92
14, 1641540, Note_off_c, 13, 48, 64
14, 1641540, Note_on_c, 13, 53, 92
14, 1641660, Note_off_c, 13, 53, 64
14, 1641660, Note_on_c, 13, 57, 92
14, 1641780, Note_off_c, 13, 57, 64
14, 1641780, Note_on_c, 13, 60, 92
14, 1641900, Note_off_c, 13, 60, 64
14, 1641900, Note_on_c, 13, 57, 92
14, 1642020, Note_off_c, 13, 57, 64
14, 1642020, Note_on_c, 13, 53, 92
14, 1642135, Note_off_c, 13, 53, 64
14, 1642140, Note_on_c, 13, 48, 92
14, 1642260, Note_off_c, 13, 48, 64
14, 1642260, Note_on_c, 13, 55, 92
14, 1642380, Note_off_c, 13, 55, 64
14, 1642380, Note_on_c, 13, 58, 92
14, 1642500, Note_off_c, 13, 58, 64
14, 1642500, Note_on_c, 13, 60, 92
14, 1642615, Note_off_c, 13, 60, 64
14, 1642620, Note_on_c, 13, 48, 92
14, 1642855, Note_off_c, 13, 48, 64
14, 1642860, Note_on_c, 13, 48, 108
14, 1643100, Note_off_c, 13, 48, 64
14, 1643100, Note_on_c, 13, 53, 108
14, 1643335, Note_off_c, 13, 53, 64
14, 1643340, Note_on_c, 13, 53, 108
14, 1643400, Note_off_c, 13, 53, 64
14, 1643400, Note_on_c, 13, 55, 108
14, 1643460, Note_off_c, 13, 55, 64
14, 1643460, Note_on_c, 13, 53, 108
14, 1643520, Note_off_c, 13, 53, 64
14, 1643520, Note_on_c, 13, 55, 108
14, 1643575, Note_off_c, 13, 55, 64
14, 1643580, Note_on_c, 13, 48, 108
14, 1643820, Note_off_c, 13, 48, 64
14, 1643820, Note_on_c, 13, 55, 108
14, 1644055, Note_off_c, 13, 55, 64
14, 1644060, Note_on_c, 13, 55, 108
14, 1644120, Note_off_c, 13, 55, 64
14, 1644120, Note_on_c, 13, 57, 108
14, 1644180, Note_off_c, 13, 57, 64
14, 1644180, Note_on_c, 13, 55, 108
14, 1644240, Note_off_c, 13, 55, 64
14, 1644240, Note_on_c, 13, 57, 108
14, 1644295, Note_off_c, 13, 57, 64
14, 1644300, Note_on_c, 13, 48, 108
14, 1644540, Note_off_c, 13, 48, 64
14, 1644540, Note_on_c, 13, 53, 108
14, 1644775, Note_off_c, 13, 53, 64
14, 1644780, Note_on_c, 13, 57, 108
14, 1644840, Note_off_c, 13, 57, 64
14, 1644840, Note_on_c, 13, 58, 108
14, 1644900, Note_off_c, 13, 58, 64
14, 1644900, Note_on_c, 13, 57, 108
14, 1644960, Note_off_c, 13, 57, 64
14, 1644960, Note_on_c, 13, 58, 108
14, 1645015, Note_off_c, 13, 58, 64
14, 1645020, Note_on_c, 13, 60, 108
14, 1645260, Note_off_c, 13, 60, 64
14, 1645260, Note_on_c, 13, 59, 108
14, 1645495, Note_off_c, 13, 59, 64
14, 1645500, Note_on_c, 13, 53, 108
14, 1645580, Note_off_c, 13, 53, 64
14, 1645620, Note_on_c, 13, 50, 108
14, 1645700, Note_off_c, 13, 50, 64
14, 1646460, Note_on_c, 13, 64, 108
14, 1646700, Note_off_c, 13, 64, 64
14, 1646700, Note_on_c, 13, 62, 108
14, 1646935, Note_off_c, 13, 62, 64
14, 1646940, Note_on_c, 13, 59, 108
14, 1647020, Note_off_c, 13, 59, 64
14, 1647060, Note_on_c, 13, 55, 108
14, 1647140, Note_off_c, 13, 55, 64
14, 1647900, Note_on_c, 13, 67, 108
14, 1648140, Note_off_c, 13, 67, 64
14, 1648140, Note_on_c, 13, 65, 108
14, 1648375, Note_off_c, 13, 65, 64
14, 1648380, Note_on_c, 13, 62, 108
14, 1648460, Note_off_c, 13, 62, 64
14, 1648500, Note_on_c, 13, 59, 108
14, 1648580, Note_off_c, 13, 59, 64
14, 1648620, Note_on_c, 13, 52, 108
14, 1649020, Note_off_c, 13, 52, 64
14, 1649820, Note_on_c, 13, 53, 108
14, 1650055, Note_off_c, 13, 53, 64
14, 1650060, Note_on_c, 13, 55, 108
14, 1650460, Note_off_c, 13, 55, 64
14, 1650540, Note_on_c, 13, 48, 108
14, 1650775, Note_off_c, 13, 48, 64
14, 1650780, Note_on_c, 13, 48, 108
14, 1651180, Note_off_c, 13, 48, 64
14, 1651260, Note_on_c, 13, 48, 108
14, 1651495, Note_off_c, 13, 48, 64
14, 1651500, Note_on_c, 13, 48, 92
14, 1652820, Note_off_c, 13, 48, 64
14, 1652940, Note_on_c, 13, 62, 92
14, 1653180, Note_off_c, 13, 62, 64
14, 1653180, Note_on_c, 13, 60, 92
14, 1653415, Note_off_c, 13, 60, 64
14, 1653420, Note_on_c, 13, 57, 92
14, 1653500, Note_off_c, 13, 57, 64
14, 1653540, Note_on_c, 13, 53, 92
14, 1653620, Note_off_c, 13, 53, 64
14, 1653660, Note_on_c, 13, 50, 92
14, 1653900, Note_off_c, 13, 50, 64
14, 1653900, Note_on_c, 13, 48, 92
14, 1654135, Note_off_c, 13, 48, 64
14, 1654140, Note_on_c, 13, 45, 92
14, 1654220, Note_off_c, 13, 45, 64
14, 1654260, Note_on_c, 13, 41, 92
14, 1654340, Note_off_c, 13, 41, 64
14, 1654380, Note_on_c, 13, 36, 92
14, 1655700, Note_off_c, 13, 36, 64
14, 1655820, Note_on_c, 13, 60, 92
14, 1656060, Note_off_c, 13, 60, 64
14, 1656060, Note_on_c, 13, 58, 92
14, 1656295, Note_off_c, 13, 58, 64
14, 1656300, Note_on_c, 13, 55, 92
14, 1656380, Note_off_c, 13, 55, 64
14, 1656420, Note_on_c, 13, 52, 92
14, 1656500, Note_off_c, 13, 52, 64
14, 1656540, Note_on_c, 13, 48, 92
14, 1656780, Note_off_c, 13, 48, 64
14, 1656780, Note_on_c, 13, 46, 92
14, 1657015, Note_off_c, 13, 46, 64
14, 1657020, Note_on_c, 13, 43, 92
14, 1657100, Note_off_c, 13, 43, 64
14, 1657140, Note_on_c, 13, 40, 92
14, 1657220, Note_off_c, 13, 40, 64
14, 1657260, Note_on_c, 13, 36, 92
14, 1658580, Note_off_c, 13, 36, 64
14, 1658700, Note_on_c, 13, 62, 92
14, 1658820, Note_off_c, 13, 62, 64
14, 1658820, Note_on_c, 13, 60, 92
14, 1658900, Note_off_c, 13, 60, 64
14, 1658940, Note_on_c, 13, 59, 92
14, 1659020, Note_off_c, 13, 59, 64
14, 1659060, Note_on_c, 13, 60, 92
14, 1659140, Note_off_c, 13, 60, 64
14, 1659180, Note_on_c, 13, 57, 92
14, 1659260, Note_off_c, 13, 57, 64
14, 1659300, Note_on_c, 13, 53, 92
14, 1659380, Note_off_c, 13, 53, 64
14, 1659420, Note_on_c, 13, 50, 92
14, 1659540, Note_off_c, 13, 50, 64
14, 1659540, Note_on_c, 13, 48, 92
14, 1659620, Note_off_c, 13, 48, 64
14, 1659660, Note_on_c, 13, 47, 92
14, 1659740, Note_off_c, 13, 47, 64
14, 1659780, Note_on_c, 13, 48, 92
14, 1659860, Note_off_c, 13, 48, 64
14, 1659900, Note_on_c, 13, 45, 92
14, 1659980, Note_off_c, 13, 45, 64
14, 1660020, Note_on_c, 13, 41, 92
14, 1660100, Note_off_c, 13, 41, 64
14, 1660140, Note_on_c, 13, 36, 92
14, 1661460, Note_off_c, 13, 36, 64
14, 1661580, Note_on_c, 13, 60, 92
14, 1661700, Note_off_c, 13, 60, 64
14, 1661700, Note_on_c, 13, 58, 92
14, 1661780, Note_off_c, 13, 58, 64
14, 1661820, Note_on_c, 13, 57, 92
14, 1661900, Note_off_c, 13, 57, 64
14, 1661940, Note_on_c, 13, 58, 92
14, 1662020, Note_off_c, 13, 58, 64
14, 1662060, Note_on_c, 13, 55, 92
14, 1662140, Note_off_c, 13, 55, 64
14, 1662180, Note_on_c, 13, 52, 92
14, 1662260, Note_off_c, 13, 52, 64
14, 1662300, Note_on_c, 13, 48, 92
14, 1662420, Note_off_c, 13, 48, 64
14, 1662420, Note_on_c, 13, 46, 92
14, 1662500, Note_off_c, 13, 46, 64
14, 1662540, Note_on_c, 13, 43, 92
14, 1662620, Note_off_c, 13, 43, 64
14, 1662660, Note_on_c, 13, 40, 92
14, 1662740, Note_off_c, 13, 40, 64
14, 1662780, Note_on_c, 13, 48, 92
14, 1662860, Note_off_c, 13, 48, 64
14, 1662900, Note_on_c, 13, 48, 92
14, 1662980, Note_off_c, 13, 48, 64
14, 1663020, Note_on_c, 13, 41, 92
14, 1663100, Note_off_c, 13, 41, 64
14, 1663140, Note_on_c, 13, 65, 45
14, 1663260, Note_off_c, 13, 65, 64
14, 1663260, Note_on_c, 13, 64, 45
14, 1663380, Note_off_c, 13, 64, 64
14, 1663380, Note_on_c, 13, 65, 45
14, 1663500, Note_off_c, 13, 65, 64
14, 1663500, Note_on_c, 13, 67, 45
14, 1663620, Note_off_c, 13, 67, 64
14, 1663620, Note_on_c, 13, 65, 45
14, 1663735, Note_off_c, 13, 65, 64
14, 1663740, Note_on_c, 13, 62, 45
14, 1663860, Note_off_c, 13, 62, 64
14, 1663860, Note_on_c, 13, 65, 48
14, 1663980, Note_off_c, 13, 65, 64
14, 1663980, Note_on_c, 13, 60, 52
14, 1664100, Note_off_c, 13, 60, 64
14, 1664100, Note_on_c, 13, 65, 56
14, 1664220, Note_off_c, 13, 65, 64
14, 1664220, Note_on_c, 13, 58, 60
14, 1664340, Note_off_c, 13, 58, 64
14, 1664340, Note_on_c, 13, 65, 64
14, 1664455, Note_off_c, 13, 65, 64
14, 1664460, Note_on_c, 13, 57, 68
14, 1664580, Note_off_c, 13, 57, 64
14, 1664580, Note_on_c, 13, 60, 72
14, 1664700, Note_off_c, 13, 60, 64
14, 1664700, Note_on_c, 13, 55, 76
14, 1664820, Note_off_c, 13, 55, 64
14, 1664820, Note_on_c, 13, 60, 80
14, 1664940, Note_off_c, 13, 60, 64
14, 1664940, Note_on_c, 13, 53, 84
14, 1665060, Note_off_c, 13, 53, 64
14, 1665060, Note_on_c, 13, 60, 88
14, 1665175, Note_off_c, 13, 60, 64
14, 1665180, Note_on_c, 13, 48, 92
14, 1665300, Note_off_c, 13, 48, 64
14, 1665300, Note_on_c, 13, 52, 92
14, 1665420, Note_off_c, 13, 52, 64
14, 1665420, Note_on_c, 13, 55, 92
14, 1665540, Note_off_c, 13, 55, 64
14, 1665540, Note_on_c, 13, 60, 92
14, 1665660, Note_off_c, 13, 60, 64
14, 1665660, Note_on_c, 13, 48, 92
14, 1665780, Note_off_c, 13, 48, 64
14, 1665780, Note_on_c, 13, 60, 92
14, 1665895, Note_off_c, 13, 60, 64
14, 1665900, Note_on_c, 13, 41, 92
14, 1665980, Note_off_c, 13, 41, 64
14, 1666020, Note_on_c, 13, 53, 45
14, 1666140, Note_off_c, 13, 53, 64
14, 1666140, Note_on_c, 13, 52, 45
14, 1666260, Note_off_c, 13, 52, 64
14, 1666260, Note_on_c, 13, 53, 45
14, 1666380, Note_off_c, 13, 53, 64
14, 1666380, Note_on_c, 13, 55, 45
14, 1666500, Note_off_c, 13, 55, 64
14, 1666500, Note_on_c, 13, 53, 45
14, 1666615, Note_off_c, 13, 53, 64
14, 1666620, Note_on_c, 13, 50, 45
14, 1666740, Note_off_c, 13, 50, 64
14, 1666740, Note_on_c, 13, 53, 45
14, 1666860, Note_off_c, 13, 53, 64
14, 1666860, Note_on_c, 13, 48, 45
14, 1666980, Note_off_c, 13, 48, 64
14, 1666980, Note_on_c, 13, 53, 45
14, 1667100, Note_off_c, 13, 53, 64
14, 1667100, Note_on_c, 13, 46, 45
14, 1667220, Note_off_c, 13, 46, 64
14, 1667220, Note_on_c, 13, 53, 45
14, 1667335, Note_off_c, 13, 53, 64
14, 1667340, Note_on_c, 13, 45, 45
14, 1667460, Note_off_c, 13, 45, 64
14, 1667460, Note_on_c, 13, 48, 50
14, 1667580, Note_off_c, 13, 48, 64
14, 1667580, Note_on_c, 13, 43, 55
14, 1667700, Note_off_c, 13, 43, 64
14, 1667700, Note_on_c, 13, 48, 60
14, 1667820, Note_off_c, 13, 48, 64
14, 1667820, Note_on_c, 13, 41, 65
14, 1667940, Note_off_c, 13, 41, 64
14, 1667940, Note_on_c, 13, 48, 70
14, 1668055, Note_off_c, 13, 48, 64
14, 1668060, Note_on_c, 13, 36, 75
14, 1668180, Note_off_c, 13, 36, 64
14, 1668180, Note_on_c, 13, 40, 80
14, 1668300, Note_off_c, 13, 40, 64
14, 1668300, Note_on_c, 13, 43, 85
14, 1668420, Note_off_c, 13, 43, 64
14, 1668420, Note_on_c, 13, 48, 90
14, 1668540, Note_off_c, 13, 48, 64
14, 1668540, Note_on_c, 13, 36, 96
14, 1668660, Note_off_c, 13, 36, 64
14, 1668660, Note_on_c, 13, 48, 102
14, 1668775, Note_off_c, 13, 48, 64
14, 1668780, Note_on_c, 13, 41, 108
14, 1669735, Note_off_c, 13, 41, 64
14, 1669980, Note_on_c, 13, 41, 108
14, 1670060, Note_off_c, 13, 41, 64
14, 1670220, Note_on_c, 13, 46, 108
14, 1671175, Note_off_c, 13, 46, 64
14, 1671420, Note_on_c, 13, 46, 108
14, 1671500, Note_off_c, 13, 46, 64
14, 1671660, Note_on_c, 13, 48, 45
14, 1675260, Note_off_c, 13, 48, 64
14, 1675260, Note_on_c, 13, 50, 45
14, 1676700, Note_off_c, 13, 50, 64
14, 1676700, Note_on_c, 13, 43, 45
14, 1679260, Note_off_c, 13, 43, 64
14, 1687260, Note_on_c, 13, 55, 108
14, 1687495, Note_off_c, 13, 55, 64
14, 1687500, Note_on_c, 13, 52, 108
14, 1687740, Note_off_c, 13, 52, 64
14, 1687740, Note_on_c, 13, 48, 108
14, 1687980, Note_off_c, 13, 48, 64
14, 1687980, Note_on_c, 13, 55, 108
14, 1688215, Note_off_c, 13, 55, 64
14, 1688220, Note_on_c, 13, 52, 108
14, 1688460, Note_off_c, 13, 52, 64
14, 1688460, Note_on_c, 13, 64, 108
14, 1688700, Note_off_c, 13, 64, 64
14, 1688700, Note_on_c, 13, 52, 108
14, 1688935, Note_off_c, 13, 52, 64
14, 1688940, Note_on_c, 13, 55, 108
14, 1689180, Note_off_c, 13, 55, 64
14, 1689180, Note_on_c, 13, 48, 108
14, 1689420, Note_off_c, 13, 48, 64
14, 1689420, Note_on_c, 13, 60, 108
14, 1689655, Note_off_c, 13, 60, 64
14, 1689660, Note_on_c, 13, 36, 108
14, 1689900, Note_off_c, 13, 36, 64
14, 1689900, Note_on_c, 13, 48, 108
14, 1690140, Note_off_c, 13, 48, 64
14, 1690140, Note_on_c, 13, 36, 108
14, 1690375, Note_off_c, 13, 36, 64
14, 1690380, Program_c, 13, 48
14, 1690380, Note_on_c, 13, 57, 92
14, 1691100, Note_off_c, 13, 57, 64
14, 1691100, Note_on_c, 13, 53, 92
14, 1691335, Note_off_c, 13, 53, 64
14, 1691580, Note_on_c, 13, 60, 92
14, 1691660, Note_off_c, 13, 60, 64
14, 1691820, Note_on_c, 13, 57, 92
14, 1692940, Note_off_c, 13, 57, 64
14, 1693140, Note_on_c, 13, 48, 45
14, 1693380, Note_off_c, 13, 48, 64
14, 1693380, Note_on_c, 13, 53, 45
14, 1693860, Note_off_c, 13, 53, 64
14, 1693860, Note_on_c, 13, 57, 45
14, 1694100, Note_off_c, 13, 57, 64
14, 1694100, Note_on_c, 13, 60, 45
14, 1694580, Note_off_c, 13, 60, 64
14, 1694580, Note_on_c, 13, 57, 45
14, 1694815, Note_off_c, 13, 57, 64
14, 1694820, Note_on_c, 13, 58, 45
14, 1695940, Note_off_c, 13, 58, 64
14, 1696140, Note_on_c, 13, 48, 45
14, 1696380, Note_off_c, 13, 48, 64
14, 1696380, Note_on_c, 13, 52, 45
14, 1696860, Note_off_c, 13, 52, 64
14, 1696860, Note_on_c, 13, 55, 45
14, 1697100, Note_off_c, 13, 55, 64
14, 1697100, Note_on_c, 13, 58, 45
14, 1697580, Note_off_c, 13, 58, 64
14, 1697580, Note_on_c, 13, 55, 45
14, 1697815, Note_off_c, 13, 55, 64
14, 1697820, Note_on_c, 13, 57, 45
14, 1698060, Note_off_c, 13, 57, 64
14, 1698060, Note_on_c, 13, 60, 45
14, 1698140, Note_off_c, 13, 60, 64
14, 1698300, Note_on_c, 13, 60, 45
14, 1698380, Note_off_c, 13, 60, 64
14, 1698540, Note_on_c, 13, 60, 45
14, 1698780, Note_off_c, 13, 60, 64
14, 1698780, Note_on_c, 13, 57, 45
14, 1698860, Note_off_c, 13, 57, 64
14, 1699020, Note_on_c, 13, 57, 45
14, 1699100, Note_off_c, 13, 57, 64
14, 1699260, Note_on_c, 13, 57, 45
14, 1699500, Note_off_c, 13, 57, 64
14, 1699500, Note_on_c, 13, 54, 45
14, 1699580, Note_off_c, 13, 54, 64
14, 1699740, Note_on_c, 13, 54, 45
14, 1699820, Note_off_c, 13, 54, 64
14, 1699980, Note_on_c, 13, 54, 45
14, 1700220, Note_off_c, 13, 54, 64
14, 1700220, Note_on_c, 13, 50, 45
14, 1700300, Note_off_c, 13, 50, 64
14, 1700460, Note_on_c, 13, 50, 45
14, 1700540, Note_off_c, 13, 50, 64
14, 1700700, Note_on_c, 13, 50, 45
14, 1700940, Note_off_c, 13, 50, 64
14, 1700940, Note_on_c, 13, 58, 45
14, 1701020, Note_off_c, 13, 58, 64
14, 1701180, Note_on_c, 13, 58, 45
14, 1701260, Note_off_c, 13, 58, 64
14, 1701420, Note_on_c, 13, 58, 45
14, 1701660, Note_off_c, 13, 58, 64
14, 1701660, Note_on_c, 13, 55, 45
14, 1701740, Note_off_c, 13, 55, 64
14, 1701900, Note_on_c, 13, 55, 45
14, 1701980, Note_off_c, 13, 55, 64
14, 1702140, Note_on_c, 13, 55, 45
14, 1702380, Note_off_c, 13, 55, 64
14, 1702380, Note_on_c, 13, 52, 45
14, 1702460, Note_off_c, 13, 52, 64
14, 1702620, Note_on_c, 13, 52, 45
14, 1702700, Note_off_c, 13, 52, 64
14, 1702860, Note_on_c, 13, 52, 45
14, 1703100, Note_off_c, 13, 52, 64
14, 1703100, Note_on_c, 13, 48, 45
14, 1703180, Note_off_c, 13, 48, 64
14, 1703340, Note_on_c, 13, 48, 45
14, 1703420, Note_off_c, 13, 48, 64
14, 1703580, Note_on_c, 13, 53, 45
14, 1703980, Note_off_c, 13, 53, 64
14, 1704060, Note_on_c, 13, 48, 45
14, 1704300, Note_off_c, 13, 48, 64
14, 1704300, Note_on_c, 13, 53, 45
14, 1704780, Note_off_c, 13, 53, 64
14, 1704780, Note_on_c, 13, 57, 45
14, 1705015, Note_off_c, 13, 57, 64
14, 1705020, Note_on_c, 13, 60, 45
14, 1706340, Note_off_c, 13, 60, 64
14, 1706460, Note_on_c, 13, 58, 66
14, 1706860, Note_off_c, 13, 58, 64
14, 1706940, Note_on_c, 13, 46, 73
14, 1707180, Note_off_c, 13, 46, 64
14, 1707180, Note_on_c, 13, 52, 76
14, 1707660, Note_off_c, 13, 52, 64
14, 1707660, Note_on_c, 13, 55, 83
14, 1707895, Note_off_c, 13, 55, 64
14, 1707900, Note_on_c, 13, 58, 86
14, 1709020, Note_off_c, 13, 58, 64
14, 1709100, Note_on_c, 13, 48, 104
14, 1709335, Note_off_c, 13, 48, 64
14, 1709340, Note_on_c, 13, 41, 108
14, 1710460, Note_off_c, 13, 41, 64
14, 1710540, Note_on_c, 13, 53, 108
14, 1710780, Note_off_c, 13, 53, 64
14, 1710780, Note_on_c, 13, 57, 108
14, 1711260, Note_off_c, 13, 57, 64
14, 1711260, Note_on_c, 13, 60, 108
14, 1711500, Note_off_c, 13, 60, 64
14, 1711500, Note_on_c, 13, 65, 108
14, 1711900, Note_off_c, 13, 65, 64
14, 1711980, Note_on_c, 13, 41, 108
14, 1712060, Note_off_c, 13, 41, 64
14, 1712220, Note_on_c, 13, 38, 108
14, 1713340, Note_off_c, 13, 38, 64
14, 1713420, Note_on_c, 13, 50, 108
14, 1713660, Note_off_c, 13, 50, 64
14, 1713660, Note_on_c, 13, 53, 108
14, 1714140, Note_off_c, 13, 53, 64
14, 1714140, Note_on_c, 13, 57, 108
14, 1714380, Note_off_c, 13, 57, 64
14, 1714380, Note_on_c, 13, 62, 108
14, 1714780, Note_off_c, 13, 62, 64
14, 1714860, Note_on_c, 13, 50, 108
14, 1714940, Note_off_c, 13, 50, 64
14, 1715100, Note_on_c, 13, 43, 108
14, 1716220, Note_off_c, 13, 43, 64
14, 1716300, Note_on_c, 13, 55, 108
14, 1716540, Note_off_c, 13, 55, 64
14, 1716540, Note_on_c, 13, 59, 108
14, 1717020, Note_off_c, 13, 59, 64
14, 1717020, Note_on_c, 13, 62, 108
14, 1717260, Note_off_c, 13, 62, 64
14, 1717260, Note_on_c, 13, 67, 108
14, 1717660, Note_off_c, 13, 67, 64
14, 1717740, Note_on_c, 13, 55, 108
14, 1717820, Note_off_c, 13, 55, 64
14, 1717980, Note_on_c, 13, 43, 45
14, 1720740, Note_off_c, 13, 43, 64
14, 1720860, Note_on_c, 13, 43, 45
14, 1723620, Note_off_c, 13, 43, 64
14, 1723740, Note_on_c, 13, 36, 52
14, 1726300, Note_off_c, 13, 36, 64
14, 1726380, Program_c, 13, 48
14, 1726380, Note_on_c, 13, 64, 60
14, 1726620, Note_off_c, 13, 64, 64
14, 1726620, Note_on_c, 13, 60, 64
14, 1726860, Note_off_c, 13, 60, 64
14, 1726860, Note_on_c, 13, 58, 68
14, 1727100, Note_off_c, 13, 58, 64
14, 1727100, Note_on_c, 13, 60, 72
14, 1727340, Note_off_c, 13, 60, 64
14, 1727340, Note_on_c, 13, 58, 76
14, 1727580, Note_off_c, 13, 58, 64
14, 1727580, Note_on_c, 13, 55, 80
14, 1727820, Note_off_c, 13, 55, 64
14, 1727820, Note_on_c, 13, 58, 84
14, 1728060, Note_off_c, 13, 58, 64
14, 1728060, Note_on_c, 13, 55, 88
14, 1728300, Note_off_c, 13, 55, 64
14, 1728300, Note_on_c, 13, 52, 92
14, 1728540, Note_off_c, 13, 52, 64
14, 1728540, Note_on_c, 13, 55, 96
14, 1728780, Note_off_c, 13, 55, 64
14, 1728780, Note_on_c, 13, 52, 100
14, 1729020, Note_off_c, 13, 52, 64
14, 1729020, Note_on_c, 13, 48, 104
14, 1729260, Note_off_c, 13, 48, 64
14, 1729260, Note_on_c, 13, 52, 108
14, 1729495, Note_off_c, 13, 52, 64
14, 1729500, Note_on_c, 13, 48, 108
14, 1729740, Note_off_c, 13, 48, 64
14, 1729740, Note_on_c, 13, 46, 108
14, 1729980, Note_off_c, 13, 46, 64
14, 1729980, Note_on_c, 13, 48, 108
14, 1730220, Note_off_c, 13, 48, 64
14, 1730220, Note_on_c, 13, 46, 108
14, 1730460, Note_off_c, 13, 46, 64
14, 1730460, Note_on_c, 13, 43, 108
14, 1730695, Note_off_c, 13, 43, 64
14, 1730700, Note_on_c, 13, 58, 108
14, 1730780, Note_off_c, 13, 58, 64
14, 1730940, Note_on_c, 13, 55, 108
14, 1731020, Note_off_c, 13, 55, 64
14, 1731180, Note_on_c, 13, 52, 108
14, 1731260, Note_off_c, 13, 52, 64
14, 1731420, Note_on_c, 13, 48, 108
14, 1731500, Note_off_c, 13, 48, 64
14, 1731660, Note_on_c, 13, 43, 108
14, 1731740, Note_off_c, 13, 43, 64
14, 1731900, Note_on_c, 13, 36, 108
14, 1731980, Note_off_c, 13, 36, 64
14, 1732140, Note_on_c, 13, 48, 108
14, 1732220, Note_off_c, 13, 48, 64
14, 1732380, Program_c, 13, 48
14, 1732380, Note_on_c, 13, 57, 92
14, 1732500, Note_off_c, 13, 57, 64
14, 1732500, Note_on_c, 13, 58, 92
14, 1732620, Note_off_c, 13, 58, 64
14, 1732620, Note_on_c, 13, 57, 92
14, 1732740, Note_off_c, 13, 57, 64
14, 1732740, Note_on_c, 13, 55, 92
14, 1732860, Note_off_c, 13, 55, 64
14, 1732860, Note_on_c, 13, 53, 92
14, 1732980, Note_off_c, 13, 53, 64
14, 1732980, Note_on_c, 13, 52, 92
14, 1733100, Note_off_c, 13, 52, 64
14, 1733100, Note_on_c, 13, 53, 92
14, 1733220, Note_off_c, 13, 53, 64
14, 1733220, Note_on_c, 13, 55, 92
14, 1733340, Note_off_c, 13, 55, 64
14, 1733340, Note_on_c, 13, 57, 92
14, 1733460, Note_off_c, 13, 57, 64
14, 1733460, Note_on_c, 13, 58, 92
14, 1733580, Note_off_c, 13, 58, 64
14, 1733580, Note_on_c, 13, 60, 92
14, 1733700, Note_off_c, 13, 60, 64
14, 1733700, Note_on_c, 13, 58, 92
14, 1733820, Note_off_c, 13, 58, 64
14, 1733820, Note_on_c, 13, 57, 92
14, 1733940, Note_off_c, 13, 57, 64
14, 1733940, Note_on_c, 13, 58, 92
14, 1734060, Note_off_c, 13, 58, 64
14, 1734060, Note_on_c, 13, 57, 92
14, 1734180, Note_off_c, 13, 57, 64
14, 1734180, Note_on_c, 13, 55, 92
14, 1734300, Note_off_c, 13, 55, 64
14, 1734300, Note_on_c, 13, 53, 92
14, 1734420, Note_off_c, 13, 53, 64
14, 1734420, Note_on_c, 13, 52, 92
14, 1734540, Note_off_c, 13, 52, 64
14, 1734540, Note_on_c, 13, 53, 92
14, 1734660, Note_off_c, 13, 53, 64
14, 1734660, Note_on_c, 13, 52, 92
14, 1734780, Note_off_c, 13, 52, 64
14, 1734780, Note_on_c, 13, 53, 92
14, 1734900, Note_off_c, 13, 53, 64
14, 1734900, Note_on_c, 13, 48, 45
14, 1735020, Note_off_c, 13, 48, 64
14, 1735020, Note_on_c, 13, 50, 45
14, 1735140, Note_off_c, 13, 50, 64
14, 1735140, Note_on_c, 13, 52, 45
14, 1735260, Note_off_c, 13, 52, 64
14, 1735260, Note_on_c, 13, 53, 45
14, 1735380, Note_off_c, 13, 53, 64
14, 1735380, Note_on_c, 13, 55, 45
14, 1735500, Note_off_c, 13, 55, 64
14, 1735500, Note_on_c, 13, 53, 45
14, 1735620, Note_off_c, 13, 53, 64
14, 1735620, Note_on_c, 13, 52, 45
14, 1735740, Note_off_c, 13, 52, 64
14, 1735740, Note_on_c, 13, 53, 45
14, 1735860, Note_off_c, 13, 53, 64
14, 1735860, Note_on_c, 13, 55, 45
14, 1735980, Note_off_c, 13, 55, 64
14, 1735980, Note_on_c, 13, 57, 45
14, 1736100, Note_off_c, 13, 57, 64
14, 1736100, Note_on_c, 13, 58, 45
14, 1736220, Note_off_c, 13, 58, 64
14, 1736220, Note_on_c, 13, 60, 45
14, 1736340, Note_off_c, 13, 60, 64
14, 1736340, Note_on_c, 13, 59, 45
14, 1736460, Note_off_c, 13, 59, 64
14, 1736460, Note_on_c, 13, 60, 45
14, 1736580, Note_off_c, 13, 60, 64
14, 1736580, Note_on_c, 13, 57, 45
14, 1736700, Note_off_c, 13, 57, 64
14, 1736700, Note_on_c, 13, 58, 45
14, 1736820, Note_off_c, 13, 58, 64
14, 1736820, Note_on_c, 13, 60, 45
14, 1736940, Note_off_c, 13, 60, 64
14, 1736940, Note_on_c, 13, 62, 45
14, 1737060, Note_off_c, 13, 62, 64
14, 1737060, Note_on_c, 13, 60, 45
14, 1737180, Note_off_c, 13, 60, 64
14, 1737180, Note_on_c, 13, 58, 45
14, 1737300, Note_off_c, 13, 58, 64
14, 1737300, Note_on_c, 13, 60, 45
14, 1737420, Note_off_c, 13, 60, 64
14, 1737420, Note_on_c, 13, 58, 45
14, 1737540, Note_off_c, 13, 58, 64
14, 1737540, Note_on_c, 13, 60, 45
14, 1737660, Note_off_c, 13, 60, 64
14, 1737660, Note_on_c, 13, 58, 45
14, 1737780, Note_off_c, 13, 58, 64
14, 1737780, Note_on_c, 13, 57, 45
14, 1737900, Note_off_c, 13, 57, 64
14, 1737900, Note_on_c, 13, 55, 45
14, 1738020, Note_off_c, 13, 55, 64
14, 1738020, Note_on_c, 13, 53, 45
14, 1738140, Note_off_c, 13, 53, 64
14, 1738140, Note_on_c, 13, 52, 45
14, 1738260, Note_off_c, 13, 52, 64
14, 1738260, Note_on_c, 13, 53, 45
14, 1738380, Note_off_c, 13, 53, 64
14, 1738380, Note_on_c, 13, 52, 45
14, 1738500, Note_off_c, 13, 52, 64
14, 1738500, Note_on_c, 13, 50, 45
14, 1738620, Note_off_c, 13, 50, 64
14, 1738620, Note_on_c, 13, 52, 45
14, 1738740, Note_off_c, 13, 52, 64
14, 1738740, Note_on_c, 13, 53, 45
14, 1738860, Note_off_c, 13, 53, 64
14, 1738860, Note_on_c, 13, 55, 45
14, 1738980, Note_off_c, 13, 55, 64
14, 1738980, Note_on_c, 13, 57, 45
14, 1739100, Note_off_c, 13, 57, 64
14, 1739100, Note_on_c, 13, 58, 45
14, 1739220, Note_off_c, 13, 58, 64
14, 1739220, Note_on_c, 13, 57, 45
14, 1739340, Note_off_c, 13, 57, 64
14, 1739340, Note_on_c, 13, 58, 45
14, 1739460, Note_off_c, 13, 58, 64
14, 1739460, Note_on_c, 13, 55, 45
14, 1739575, Note_off_c, 13, 55, 64
14, 1739580, Note_on_c, 13, 57, 45
14, 1739695, Note_off_c, 13, 57, 64
14, 1739700, Note_on_c, 13, 60, 45
14, 1739815, Note_off_c, 13, 60, 64
14, 1739820, Note_on_c, 13, 60, 45
14, 1739935, Note_off_c, 13, 60, 64
14, 1739940, Note_on_c, 13, 60, 45
14, 1740055, Note_off_c, 13, 60, 64
14, 1740060, Note_on_c, 13, 60, 45
14, 1740175, Note_off_c, 13, 60, 64
14, 1740180, Note_on_c, 13, 60, 45
14, 1740295, Note_off_c, 13, 60, 64
14, 1740300, Note_on_c, 13, 60, 45
14, 1740415, Note_off_c, 13, 60, 64
14, 1740420, Note_on_c, 13, 57, 45
14, 1740535, Note_off_c, 13, 57, 64
14, 1740540, Note_on_c, 13, 57, 45
14, 1740655, Note_off_c, 13, 57, 64
14, 1740660, Note_on_c, 13, 57, 45
14, 1740775, Note_off_c, 13, 57, 64
14, 1740780, Note_on_c, 13, 57, 45
14, 1740895, Note_off_c, 13, 57, 64
14, 1740900, Note_on_c, 13, 57, 45
14, 1741015, Note_off_c, 13, 57, 64
14, 1741020, Note_on_c, 13, 57, 45
14, 1741135, Note_off_c, 13, 57, 64
14, 1741140, Note_on_c, 13, 54, 45
14, 1741255, Note_off_c, 13, 54, 64
14, 1741260, Note_on_c, 13, 54, 45
14, 1741375, Note_off_c, 13, 54, 64
14, 1741380, Note_on_c, 13, 54, 45
14, 1741495, Note_off_c, 13, 54, 64
14, 1741500, Note_on_c, 13, 54, 45
14, 1741615, Note_off_c, 13, 54, 64
14, 1741620, Note_on_c, 13, 54, 45
14, 1741735, Note_off_c, 13, 54, 64
14, 1741740, Note_on_c, 13, 54, 45
14, 1741855, Note_off_c, 13, 54, 64
14, 1741860, Note_on_c, 13, 50, 45
14, 1741975, Note_off_c, 13, 50, 64
14, 1741980, Note_on_c, 13, 50, 45
14, 1742095, Note_off_c, 13, 50, 64
14, 1742100, Note_on_c, 13, 50, 45
14, 1742215, Note_off_c, 13, 50, 64
14, 1742220, Note_on_c, 13, 50, 45
14, 1742335, Note_off_c, 13, 50, 64
14, 1742340, Note_on_c, 13, 50, 45
14, 1742455, Note_off_c, 13, 50, 64
14, 1742460, Note_on_c, 13, 50, 45
14, 1742575, Note_off_c, 13, 50, 64
14, 1742580, Note_on_c, 13, 58, 45
14, 1742695, Note_off_c, 13, 58, 64
14, 1742700, Note_on_c, 13, 58, 45
14, 1742815, Note_off_c, 13, 58, 64
14, 1742820, Note_on_c, 13, 58, 45
14, 1742935, Note_off_c, 13, 58, 64
14, 1742940, Note_on_c, 13, 58, 45
14, 1743055, Note_off_c, 13, 58, 64
14, 1743060, Note_on_c, 13, 58, 45
14, 1743175, Note_off_c, 13, 58, 64
14, 1743180, Note_on_c, 13, 58, 45
14, 1743295, Note_off_c, 13, 58, 64
14, 1743300, Note_on_c, 13, 55, 45
14, 1743415, Note_off_c, 13, 55, 64
14, 1743420, Note_on_c, 13, 55, 45
14, 1743535, Note_off_c, 13, 55, 64
14, 1743540, Note_on_c, 13, 55, 45
14, 1743655, Note_off_c, 13, 55, 64
14, 1743660, Note_on_c, 13, 55, 45
14, 1743775, Note_off_c, 13, 55, 64
14, 1743780, Note_on_c, 13, 55, 45
14, 1743895, Note_off_c, 13, 55, 64
14, 1743900, Note_on_c, 13, 55, 45
14, 1744015, Note_off_c, 13, 55, 64
14, 1744020, Note_on_c, 13, 52, 45
14, 1744135, Note_off_c, 13, 52, 64
14, 1744140, Note_on_c, 13, 52, 45
14, 1744255, Note_off_c, 13, 52, 64
14, 1744260, Note_on_c, 13, 52, 45
14, 1744375, Note_off_c, 13, 52, 64
14, 1744380, Note_on_c, 13, 52, 45
14, 1744495, Note_off_c, 13, 52, 64
14, 1744500, Note_on_c, 13, 52, 45
14, 1744615, Note_off_c, 13, 52, 64
14, 1744620, Note_on_c, 13, 52, 45
14, 1744735, Note_off_c, 13, 52, 64
14, 1744740, Note_on_c, 13, 48, 45
14, 1744855, Note_off_c, 13, 48, 64
14, 1744860, Note_on_c, 13, 48, 45
14, 1744975, Note_off_c, 13, 48, 64
14, 1744980, Note_on_c, 13, 48, 45
14, 1745095, Note_off_c, 13, 48, 64
14, 1745100, Note_on_c, 13, 48, 45
14, 1745215, Note_off_c, 13, 48, 64
14, 1745220, Note_on_c, 13, 48, 45
14, 1745335, Note_off_c, 13, 48, 64
14, 1745340, Note_on_c, 13, 41, 45
14, 1745455, Note_off_c, 13, 41, 64
14, 1745460, Note_on_c, 13, 53, 45
14, 1745575, Note_off_c, 13, 53, 64
14, 1745580, Note_on_c, 13, 53, 45
14, 1745695, Note_off_c, 13, 53, 64
14, 1745700, Note_on_c, 13, 53, 45
14, 1745815, Note_off_c, 13, 53, 64
14, 1745820, Note_on_c, 13, 51, 45
14, 1745935, Note_off_c, 13, 51, 64
14, 1745940, Note_on_c, 13, 51, 45
14, 1746055, Note_off_c, 13, 51, 64
14, 1746060, Note_on_c, 13, 50, 45
14, 1746175, Note_off_c, 13, 50, 64
14, 1746180, Note_on_c, 13, 50, 45
14, 1746295, Note_off_c, 13, 50, 64
14, 1746300, Note_on_c, 13, 50, 45
14, 1746415, Note_off_c, 13, 50, 64
14, 1746420, Note_on_c, 13, 50, 45
14, 1746535, Note_off_c, 13, 50, 64
14, 1746540, Note_on_c, 13, 50, 45
14, 1746655, Note_off_c, 13, 50, 64
14, 1746660, Note_on_c, 13, 50, 45
14, 1746775, Note_off_c, 13, 50, 64
14, 1746780, Note_on_c, 13, 50, 45
14, 1746895, Note_off_c, 13, 50, 64
14, 1746900, Note_on_c, 13, 62, 46
14, 1747015, Note_off_c, 13, 62, 64
14, 1747020, Note_on_c, 13, 62, 47
14, 1747135, Note_off_c, 13, 62, 64
14, 1747140, Note_on_c, 13, 62, 48
14, 1747255, Note_off_c, 13, 62, 64
14, 1747260, Note_on_c, 13, 62, 49
14, 1747375, Note_off_c, 13, 62, 64
14, 1747380, Note_on_c, 13, 62, 50
14, 1747495, Note_off_c, 13, 62, 64
14, 1747500, Note_on_c, 13, 62, 51
14, 1747615, Note_off_c, 13, 62, 64
14, 1747620, Note_on_c, 13, 50, 52
14, 1747735, Note_off_c, 13, 50, 64
14, 1747740, Note_on_c, 13, 50, 53
14, 1747855, Note_off_c, 13, 50, 64
14, 1747860, Note_on_c, 13, 50, 54
14, 1747975, Note_off_c, 13, 50, 64
14, 1747980, Note_on_c, 13, 50, 56
14, 1748095, Note_off_c, 13, 50, 64
14, 1748100, Note_on_c, 13, 50, 58
14, 1748215, Note_off_c, 13, 50, 64
14, 1748220, Note_on_c, 13, 43, 59
14, 1748335, Note_off_c, 13, 43, 64
14, 1748340, Note_on_c, 13, 55, 61
14, 1748455, Note_off_c, 13, 55, 64
14, 1748460, Note_on_c, 13, 55, 63
14, 1748575, Note_off_c, 13, 55, 64
14, 1748580, Note_on_c, 13, 55, 65
14, 1748695, Note_off_c, 13, 55, 64
14, 1748700, Note_on_c, 13, 55, 67
14, 1748815, Note_off_c, 13, 55, 64
14, 1748820, Note_on_c, 13, 55, 69
14, 1748935, Note_off_c, 13, 55, 64
14, 1748940, Note_on_c, 13, 55, 71
14, 1749055, Note_off_c, 13, 55, 64
14, 1749060, Note_on_c, 13, 43, 73
14, 1749175, Note_off_c, 13, 43, 64
14, 1749180, Note_on_c, 13, 43, 75
14, 1749295, Note_off_c, 13, 43, 64
14, 1749300, Note_on_c, 13, 43, 77
14, 1749415, Note_off_c, 13, 43, 64
14, 1749420, Note_on_c, 13, 43, 79
14, 1749535, Note_off_c, 13, 43, 64
14, 1749540, Note_on_c, 13, 43, 81
14, 1749655, Note_off_c, 13, 43, 64
14, 1749660, Note_on_c, 13, 48, 83
14, 1749775, Note_off_c, 13, 48, 64
14, 1749780, Note_on_c, 13, 60, 85
14, 1749895, Note_off_c, 13, 60, 64
14, 1749900, Note_on_c, 13, 60, 87
14, 1750015, Note_off_c, 13, 60, 64
14, 1750020, Note_on_c, 13, 60, 89
14, 1750135, Note_off_c, 13, 60, 64
14, 1750140, Note_on_c, 13, 60, 91
14, 1750255, Note_off_c, 13, 60, 64
14, 1750260, Note_on_c, 13, 60, 93
14, 1750375, Note_off_c, 13, 60, 64
14, 1750380, Note_on_c, 13, 60, 95
14, 1750495, Note_off_c, 13, 60, 64
14, 1750500, Note_on_c, 13, 48, 97
14, 1750615, Note_off_c, 13, 48, 64
14, 1750620, Note_on_c, 13, 48, 99
14, 1750735, Note_off_c, 13, 48, 64
14, 1750740, Note_on_c, 13, 46, 101
14, 1750855, Note_off_c, 13, 46, 64
14, 1750860, Note_on_c, 13, 45, 103
14, 1750975, Note_off_c, 13, 45, 64
14, 1750980, Note_on_c, 13, 43, 105
14, 1751095, Note_off_c, 13, 43, 64
14, 1751100, Note_on_c, 13, 41, 108
14, 1751580, Note_off_c, 13, 41, 64
14, 1751580, Note_on_c, 13, 45, 108
14, 1751820, Note_off_c, 13, 45, 64
14, 1751820, Note_on_c, 13, 48, 108
14, 1752300, Note_off_c, 13, 48, 64
14, 1752300, Note_on_c, 13, 53, 108
14, 1752540, Note_off_c, 13, 53, 64
14, 1752540, Note_on_c, 13, 57, 108
14, 1753020, Note_off_c, 13, 57, 64
14, 1753020, Note_on_c, 13, 60, 108
14, 1753260, Note_off_c, 13, 60, 64
14, 1753260, Note_on_c, 13, 65, 108
14, 1753495, Note_off_c, 13, 65, 64
14, 1753740, Note_on_c, 13, 41, 108
14, 1753820, Note_off_c, 13, 41, 64
14, 1753980, Note_on_c, 13, 38, 108
14, 1754460, Note_off_c, 13, 38, 64
14, 1754460, Note_on_c, 13, 41, 108
14, 1754700, Note_off_c, 13, 41, 64
14, 1754700, Note_on_c, 13, 45, 108
14, 1755180, Note_off_c, 13, 45, 64
14, 1755180, Note_on_c, 13, 50, 108
14, 1755420, Note_off_c, 13, 50, 64
14, 1755420, Note_on_c, 13, 53, 108
14, 1755900, Note_off_c, 13, 53, 64
14, 1755900, Note_on_c, 13, 57, 108
14, 1756140, Note_off_c, 13, 57, 64
14, 1756140, Note_on_c, 13, 62, 108
14, 1756375, Note_off_c, 13, 62, 64
14, 1756620, Note_on_c, 13, 50, 108
14, 1756700, Note_off_c, 13, 50, 64
14, 1756860, Note_on_c, 13, 43, 108
14, 1757340, Note_off_c, 13, 43, 64
14, 1757340, Note_on_c, 13, 47, 108
14, 1757580, Note_off_c, 13, 47, 64
14, 1757580, Note_on_c, 13, 50, 108
14, 1758060, Note_off_c, 13, 50, 64
14, 1758060, Note_on_c, 13, 55, 108
14, 1758300, Note_off_c, 13, 55, 64
14, 1758300, Note_on_c, 13, 59, 108
14, 1758780, Note_off_c, 13, 59, 64
14, 1758780, Note_on_c, 13, 62, 108
14, 1759020, Note_off_c, 13, 62, 64
14, 1759020, Note_on_c, 13, 67, 108
14, 1759255, Note_off_c, 13, 67, 64
14, 1759500, Note_on_c, 13, 43, 108
14, 1759580, Note_off_c, 13, 43, 64
14, 1759740, Note_on_c, 13, 36, 108
14, 1760220, Note_off_c, 13, 36, 64
14, 1760220, Note_on_c, 13, 43, 108
14, 1760460, Note_off_c, 13, 43, 64
14, 1760460, Note_on_c, 13, 48, 108
14, 1760940, Note_off_c, 13, 48, 64
14, 1760940, Note_on_c, 13, 55, 108
14, 1761180, Note_off_c, 13, 55, 64
14, 1761180, Note_on_c, 13, 60, 108
14, 1761660, Note_off_c, 13, 60, 64
14, 1761660, Note_on_c, 13, 64, 108
14, 1761900, Note_off_c, 13, 64, 64
14, 1761900, Note_on_c, 13, 67, 108
14, 1762135, Note_off_c, 13, 67, 64
14, 1762380, Note_on_c, 13, 48, 108
14, 1762460, Note_off_c, 13, 48, 64
14, 1762620, Note_on_c, 13, 41, 108
14, 1763100, Note_off_c, 13, 41, 64
14, 1763100, Note_on_c, 13, 45, 108
14, 1763340, Note_off_c, 13, 45, 64
14, 1763340, Note_on_c, 13, 48, 108
14, 1763820, Note_off_c, 13, 48, 64
14, 1763820, Note_on_c, 13, 53, 108
14, 1764060, Note_off_c, 13, 53, 64
14, 1764060, Note_on_c, 13, 57, 108
14, 1764540, Note_off_c, 13, 57, 64
14, 1764540, Note_on_c, 13, 60, 108
14, 1764780, Note_off_c, 13, 60, 64
14, 1764780, Note_on_c, 13, 65, 108
14, 1765015, Note_off_c, 13, 65, 64
14, 1765260, Note_on_c, 13, 41, 108
14, 1765340, Note_off_c, 13, 41, 64
14, 1765500, Note_on_c, 13, 41, 108
14, 1765980, Note_off_c, 13, 41, 64
14, 1765980, Note_on_c, 13, 46, 108
14, 1766220, Note_off_c, 13, 46, 64
14, 1766220, Note_on_c, 13, 50, 108
14, 1766700, Note_off_c, 13, 50, 64
14, 1766700, Note_on_c, 13, 53, 108
14, 1766940, Note_off_c, 13, 53, 64
14, 1766940, Note_on_c, 13, 58, 108
14, 1767420, Note_off_c, 13, 58, 64
14, 1767420, Note_on_c, 13, 62, 108
14, 1767660, Note_off_c, 13, 62, 64
14, 1767660, Note_on_c, 13, 65, 108
14, 1767895, Note_off_c, 13, 65, 64
14, 1768140, Note_on_c, 13, 41, 108
14, 1768220, Note_off_c, 13, 41, 64
14, 1768380, Note_on_c, 13, 41, 92
14, 1768860, Note_off_c, 13, 41, 64
14, 1768860, Note_on_c, 13, 46, 92
14, 1769100, Note_off_c, 13, 46, 64
14, 1769100, Note_on_c, 13, 48, 92
14, 1769580, Note_off_c, 13, 48, 64
14, 1769580, Note_on_c, 13, 52, 92
14, 1769820, Note_off_c, 13, 52, 64
14, 1769820, Note_on_c, 13, 58, 75
14, 1770300, Note_off_c, 13, 58, 64
14, 1770300, Note_on_c, 13, 60, 75
14, 1770540, Note_off_c, 13, 60, 64
14, 1770540, Note_on_c, 13, 64, 75
14, 1770940, Note_off_c, 13, 64, 64
14, 1771020, Note_on_c, 13, 53, 60
14, 1771260, Note_off_c, 13, 53, 64
14, 1771260, Note_on_c, 13, 58, 60
14, 1771740, Note_off_c, 13, 58, 64
14, 1771740, Note_on_c, 13, 60, 60
14, 1771980, Note_off_c, 13, 60, 64
14, 1771980, Note_on_c, 13, 64, 60
14, 1772380, Note_off_c, 13, 64, 64
14, 1772460, Note_on_c, 13, 41, 60
14, 1772700, Note_off_c, 13, 41, 64
14, 1772700, Note_on_c, 13, 46, 60
14, 1773180, Note_off_c, 13, 46, 64
14, 1773180, Note_on_c, 13, 48, 60
14, 1773420, Note_off_c, 13, 48, 64
14, 1773420, Note_on_c, 13, 52, 60
14, 1773655, Note_off_c, 13, 52, 64
14, 1773660, Note_on_c, 13, 41, 60
14, 1773900, Note_off_c, 13, 41, 64
14, 1773900, Note_on_c, 13, 46, 60
14, 1774140, Note_off_c, 13, 46, 64
14, 1774140, Note_on_c, 13, 48, 60
14, 1774380, Note_off_c, 13, 48, 64
14, 1774380, Note_on_c, 13, 52, 60
14, 1774615, Note_off_c, 13, 52, 64
14, 1774620, Note_on_c, 13, 41, 60
14, 1774860, Note_off_c, 13, 41, 64
14, 1774860, Note_on_c, 13, 46, 45
14, 1775100, Note_off_c, 13, 46, 64
14, 1775100, Note_on_c, 13, 48, 45
14, 1775340, Note_off_c, 13, 48, 64
14, 1775340, Note_on_c, 13, 52, 45
14, 1775575, Note_off_c, 13, 52, 64
14, 1775580, Note_on_c, 13, 41, 45
14, 1775820, Note_off_c, 13, 41, 64
14, 1775820, Note_on_c, 13, 46, 45
14, 1776060, Note_off_c, 13, 46, 64
14, 1776060, Note_on_c, 13, 48, 45
14, 1776300, Note_off_c, 13, 48, 64
14, 1776300, Note_on_c, 13, 52, 45
14, 1776535, Note_off_c, 13, 52, 64
14, 1776540, Note_on_c, 13, 46, 45
14, 1776780, Note_off_c, 13, 46, 64
14, 1776780, Note_on_c, 13, 48, 45
14, 1777015, Note_off_c, 13, 48, 64
14, 1777020, Note_on_c, 13, 53, 45
14, 1778460, Note_off_c, 13, 53, 64
14, 1778460, Note_on_c, 13, 48, 45
14, 1780020, Note_off_c, 13, 48, 64
14, 1780260, Note_on_c, 13, 48, 45
14, 1781700, Note_off_c, 13, 48, 64
14, 1781700, Note_on_c, 13, 53, 45
14, 1783260, Note_off_c, 13, 53, 64
14, 1783500, Note_on_c, 13, 53, 45
14, 1784220, Note_off_c, 13, 53, 64
14, 1784220, Note_on_c, 13, 50, 45
14, 1784700, Note_off_c, 13, 50, 64
14, 1784700, Note_on_c, 13, 45, 45
14, 1784940, Note_off_c, 13, 45, 64
14, 1784940, Note_on_c, 13, 46, 45
14, 1786435, Note_off_c, 13, 46, 64
14, 1786440, Note_on_c, 13, 48, 45
14, 1787880, Note_off_c, 13, 48, 64
14, 1787880, Note_on_c, 13, 41, 45
14, 1788595, Note_off_c, 13, 41, 64
14, 1789320, Note_on_c, 13, 53, 92
14, 1789960, Note_off_c, 13, 53, 64
14, 1790040, Note_on_c, 13, 50, 92
14, 1790275, Note_off_c, 13, 50, 64
14, 1790520, Note_on_c, 13, 45, 92
14, 1790755, Note_off_c, 13, 45, 64
14, 1790760, Note_on_c, 13, 46, 92
14, 1791880, Note_off_c, 13, 46, 64
14, 1795080, Note_on_c, 13, 53, 45
14, 1795320, Note_off_c, 13, 53, 64
14, 1795320, Note_on_c, 13, 48, 45
14, 1796440, Note_off_c, 13, 48, 64
14, 1796520, Note_on_c, 13, 48, 45
14, 1796760, Note_off_c, 13, 48, 64
14, 1796760, Note_on_c, 13, 53, 45
14, 1797400, Note_off_c, 13, 53, 64
14, 1801080, Note_on_c, 13, 53, 45
14, 1801320, Note_off_c, 13, 53, 64
14, 1801320, Note_on_c, 13, 48, 51
14, 1802520, Note_off_c, 13, 48, 64
14, 1802520, Note_on_c, 13, 48, 85
14, 1802755, Note_off_c, 13, 48, 64
14, 1802760, Note_on_c, 13, 48, 92
14, 1803240, Note_off_c, 13, 48, 64
14, 1803240, Note_on_c, 13, 36, 92
14, 1803480, Note_off_c, 13, 36, 64
14, 1803480, Note_on_c, 13, 40, 92
14, 1803960, Note_off_c, 13, 40, 64
14, 1803960, Note_on_c, 13, 43, 92
14, 1804200, Note_off_c, 13, 43, 64
14, 1804200, Note_on_c, 13, 46, 92
14, 1804680, Note_off_c, 13, 46, 64
14, 1804680, Note_on_c, 13, 48, 92
14, 1804920, Note_off_c, 13, 48, 64
14, 1804920, Note_on_c, 13, 52, 92
14, 1805400, Note_off_c, 13, 52, 64
14, 1805400, Note_on_c, 13, 55, 92
14, 1805640, Note_off_c, 13, 55, 64
14, 1805640, Note_on_c, 13, 58, 75
14, 1806120, Note_off_c, 13, 58, 64
14, 1806120, Note_on_c, 13, 55, 75
14, 1806360, Note_off_c, 13, 55, 64
14, 1806360, Note_on_c, 13, 52, 75
14, 1806840, Note_off_c, 13, 52, 64
14, 1806840, Note_on_c, 13, 48, 75
14, 1807080, Note_off_c, 13, 48, 64
14, 1807080, Note_on_c, 13, 46, 75
14, 1807560, Note_off_c, 13, 46, 64
14, 1807560, Note_on_c, 13, 43, 71
14, 1807800, Note_off_c, 13, 43, 64
14, 1807800, Note_on_c, 13, 40, 69
14, 1808280, Note_off_c, 13, 40, 64
14, 1808280, Note_on_c, 13, 36, 64
14, 1808520, Note_off_c, 13, 36, 64
14, 1808520, Note_on_c, 13, 41, 62
14, 1809840, Note_off_c, 13, 41, 64
14, 1810020, Note_on_c, 13, 41, 45
14, 1811340, Note_off_c, 13, 41, 64
14, 1811520, Note_on_c, 13, 41, 45
14, 1811920, Note_off_c, 13, 41, 64
14, 1815840, Note_on_c, 13, 41, 75
14, 1815960, Note_off_c, 13, 41, 64
14, 1815960, Note_on_c, 13, 43, 75
14, 1816080, Note_off_c, 13, 43, 64
14, 1816080, Note_on_c, 13, 45, 78
14, 1816200, Note_off_c, 13, 45, 64
14, 1816200, Note_on_c, 13, 46, 81
14, 1816320, Note_off_c, 13, 46, 64
14, 1816320, Note_on_c, 13, 48, 84
14, 1816440, Note_off_c, 13, 48, 64
14, 1816440, Note_on_c, 13, 47, 88
14, 1816555, Note_off_c, 13, 47, 64
14, 1816560, Note_on_c, 13, 50, 92
14, 1816680, Note_off_c, 13, 50, 64
14, 1816680, Note_on_c, 13, 48, 96
14, 1816800, Note_off_c, 13, 48, 64
14, 1816800, Note_on_c, 13, 46, 100
14, 1816920, Note_off_c, 13, 46, 64
14, 1816920, Note_on_c, 13, 45, 104
14, 1817040, Note_off_c, 13, 45, 64
14, 1817040, Note_on_c, 13, 43, 108
14, 1817160, Note_off_c, 13, 43, 64
14, 1817160, Note_on_c, 13, 41, 108
14, 1817275, Note_off_c, 13, 41, 64
14, 1817280, Note_on_c, 13, 41, 108
14, 1818040, Note_off_c, 13, 41, 64
14, 1818040, End_track
15, 0, Start_track
15, 0, MIDI_port, 0
15, 0, Channel_prefix, 14
15, 0, Control_c, 14, 7, 127
15, 0, Control_c, 14, 10, 127
15, 0, Control_c, 14, 91, 127
15, 0, Program_c, 14, 48
15, 11880, Note_on_c, 14, 29, 92
15, 12360, Note_off_c, 14, 29, 64
15, 12360, Note_on_c, 14, 33, 92
15, 12840, Note_off_c, 14, 33, 64
15, 12840, Note_on_c, 14, 31, 92
15, 13560, Note_off_c, 14, 31, 64
15, 13560, Note_on_c, 14, 29, 92
15, 13795, Note_off_c, 14, 29, 64
15, 13800, Note_on_c, 14, 34, 45
15, 14280, Note_off_c, 14, 34, 64
15, 14280, Note_on_c, 14, 29, 48
15, 14680, Note_off_c, 14, 29, 64
15, 14760, Note_on_c, 14, 36, 52
15, 15400, Note_off_c, 14, 36, 64
15, 15480, Note_on_c, 14, 36, 58
15, 15715, Note_off_c, 14, 36, 64
15, 15720, Note_on_c, 14, 36, 60
15, 16360, Note_off_c, 14, 36, 64
15, 16440, Note_on_c, 14, 36, 66
15, 16675, Note_off_c, 14, 36, 64
15, 16680, Note_on_c, 14, 36, 68
15, 17320, Note_off_c, 14, 36, 64
15, 17400, Note_on_c, 14, 36, 74
15, 17635, Note_off_c, 14, 36, 64
15, 17640, Note_on_c, 14, 36, 76
15, 18280, Note_off_c, 14, 36, 64
15, 18360, Note_on_c, 14, 36, 82
15, 18595, Note_off_c, 14, 36, 64
15, 18600, Note_on_c, 14, 36, 84
15, 19240, Note_off_c, 14, 36, 64
15, 19320, Note_on_c, 14, 36, 90
15, 19555, Note_off_c, 14, 36, 64
15, 19560, Note_on_c, 14, 36, 92
15, 20200, Note_off_c, 14, 36, 64
15, 20280, Note_on_c, 14, 36, 92
15, 20515, Note_off_c, 14, 36, 64
15, 20520, Note_on_c, 14, 36, 92
15, 21160, Note_off_c, 14, 36, 64
15, 21240, Note_on_c, 14, 36, 68
15, 21475, Note_off_c, 14, 36, 64
15, 21480, Note_on_c, 14, 36, 60
15, 22120, Note_off_c, 14, 36, 64
15, 22200, Note_on_c, 14, 36, 60
15, 22435, Note_off_c, 14, 36, 64
15, 22440, Note_on_c, 14, 36, 60
15, 23080, Note_off_c, 14, 36, 64
15, 23160, Note_on_c, 14, 36, 38
15, 23395, Note_off_c, 14, 36, 64
15, 23400, Note_on_c, 14, 36, 30
15, 23635, Note_off_c, 14, 36, 64
15, 31080, Note_on_c, 14, 29, 45
15, 31080, Note_on_c, 14, 36, 45
15, 31315, Note_off_c, 14, 36, 64
15, 31315, Note_off_c, 14, 29, 64
15, 31320, Note_on_c, 14, 29, 47
15, 31320, Note_on_c, 14, 36, 47
15, 31555, Note_off_c, 14, 36, 64
15, 31555, Note_off_c, 14, 29, 64
15, 31560, Note_on_c, 14, 29, 50
15, 31560, Note_on_c, 14, 36, 50
15, 31795, Note_off_c, 14, 36, 64
15, 31795, Note_off_c, 14, 29, 64
15, 31800, Note_on_c, 14, 29, 53
15, 31800, Note_on_c, 14, 36, 53
15, 32035, Note_off_c, 14, 36, 64
15, 32035, Note_off_c, 14, 29, 64
15, 32040, Note_on_c, 14, 29, 56
15, 32040, Note_on_c, 14, 36, 56
15, 32275, Note_off_c, 14, 36, 64
15, 32275, Note_off_c, 14, 29, 64
15, 32280, Note_on_c, 14, 29, 59
15, 32280, Note_on_c, 14, 36, 59
15, 32515, Note_off_c, 14, 36, 64
15, 32515, Note_off_c, 14, 29, 64
15, 32520, Note_on_c, 14, 29, 62
15, 32520, Note_on_c, 14, 36, 62
15, 32755, Note_off_c, 14, 36, 64
15, 32755, Note_off_c, 14, 29, 64
15, 32760, Note_on_c, 14, 29, 65
15, 32760, Note_on_c, 14, 36, 65
15, 32995, Note_off_c, 14, 36, 64
15, 32995, Note_off_c, 14, 29, 64
15, 33000, Note_on_c, 14, 29, 68
15, 33000, Note_on_c, 14, 36, 68
15, 33235, Note_off_c, 14, 36, 64
15, 33235, Note_off_c, 14, 29, 64
15, 33240, Note_on_c, 14, 29, 71
15, 33240, Note_on_c, 14, 36, 71
15, 33475, Note_off_c, 14, 36, 64
15, 33475, Note_off_c, 14, 29, 64
15, 33480, Note_on_c, 14, 29, 74
15, 33480, Note_on_c, 14, 36, 74
15, 33715, Note_off_c, 14, 36, 64
15, 33715, Note_off_c, 14, 29, 64
15, 33720, Note_on_c, 14, 29, 77
15, 33720, Note_on_c, 14, 36, 77
15, 33955, Note_off_c, 14, 36, 64
15, 33955, Note_off_c, 14, 29, 64
15, 33960, Note_on_c, 14, 29, 80
15, 33960, Note_on_c, 14, 36, 80
15, 34195, Note_off_c, 14, 36, 64
15, 34195, Note_off_c, 14, 29, 64
15, 34200, Note_on_c, 14, 29, 83
15, 34200, Note_on_c, 14, 36, 83
15, 34435, Note_off_c, 14, 36, 64
15, 34435, Note_off_c, 14, 29, 64
15, 34440, Note_on_c, 14, 29, 86
15, 34440, Note_on_c, 14, 36, 86
15, 34675, Note_off_c, 14, 36, 64
15, 34675, Note_off_c, 14, 29, 64
15, 34680, Note_on_c, 14, 29, 89
15, 34680, Note_on_c, 14, 36, 89
15, 34915, Note_off_c, 14, 36, 64
15, 34915, Note_off_c, 14, 29, 64
15, 34920, Note_on_c, 14, 29, 92
15, 35155, Note_off_c, 14, 29, 64
15, 35160, Note_on_c, 14, 29, 92
15, 35395, Note_off_c, 14, 29, 64
15, 35400, Note_on_c, 14, 29, 92
15, 35635, Note_off_c, 14, 29, 64
15, 35640, Note_on_c, 14, 29, 92
15, 35875, Note_off_c, 14, 29, 64
15, 35880, Note_on_c, 14, 29, 92
15, 36115, Note_off_c, 14, 29, 64
15, 36120, Note_on_c, 14, 29, 92
15, 36355, Note_off_c, 14, 29, 64
15, 36360, Note_on_c, 14, 29, 92
15, 36595, Note_off_c, 14, 29, 64
15, 36600, Note_on_c, 14, 29, 92
15, 36835, Note_off_c, 14, 29, 64
15, 36840, Note_on_c, 14, 29, 92
15, 37075, Note_off_c, 14, 29, 64
15, 37080, Note_on_c, 14, 29, 92
15, 37315, Note_off_c, 14, 29, 64
15, 37320, Note_on_c, 14, 29, 92
15, 37555, Note_off_c, 14, 29, 64
15, 37560, Note_on_c, 14, 29, 92
15, 37795, Note_off_c, 14, 29, 64
15, 37800, Note_on_c, 14, 29, 92
15, 38035, Note_off_c, 14, 29, 64
15, 38040, Note_on_c, 14, 29, 92
15, 38275, Note_off_c, 14, 29, 64
15, 38280, Note_on_c, 14, 29, 92
15, 38515, Note_off_c, 14, 29, 64
15, 38520, Note_on_c, 14, 29, 92
15, 38755, Note_off_c, 14, 29, 64
15, 38760, Note_on_c, 14, 29, 92
15, 38995, Note_off_c, 14, 29, 64
15, 39000, Note_on_c, 14, 29, 92
15, 39235, Note_off_c, 14, 29, 64
15, 39240, Note_on_c, 14, 29, 92
15, 39475, Note_off_c, 14, 29, 64
15, 39480, Note_on_c, 14, 29, 92
15, 39715, Note_off_c, 14, 29, 64
15, 39720, Note_on_c, 14, 29, 92
15, 39955, Note_off_c, 14, 29, 64
15, 39960, Note_on_c, 14, 29, 92
15, 40195, Note_off_c, 14, 29, 64
15, 40200, Note_on_c, 14, 29, 92
15, 40435, Note_off_c, 14, 29, 64
15, 40440, Note_on_c, 14, 29, 92
15, 40675, Note_off_c, 14, 29, 64
15, 40680, Note_on_c, 14, 36, 92
15, 40915, Note_off_c, 14, 36, 64
15, 40920, Note_on_c, 14, 36, 92
15, 41155, Note_off_c, 14, 36, 64
15, 41160, Note_on_c, 14, 36, 92
15, 41395, Note_off_c, 14, 36, 64
15, 41400, Note_on_c, 14, 36, 92
15, 41635, Note_off_c, 14, 36, 64
15, 41640, Note_on_c, 14, 36, 92
15, 41875, Note_off_c, 14, 36, 64
15, 41880, Note_on_c, 14, 36, 92
15, 42115, Note_off_c, 14, 36, 64
15, 42120, Note_on_c, 14, 36, 92
15, 42355, Note_off_c, 14, 36, 64
15, 42360, Note_on_c, 14, 36, 92
15, 42595, Note_off_c, 14, 36, 64
15, 42600, Note_on_c, 14, 36, 92
15, 42835, Note_off_c, 14, 36, 64
15, 42840, Note_on_c, 14, 36, 92
15, 43075, Note_off_c, 14, 36, 64
15, 43080, Note_on_c, 14, 36, 92
15, 43315, Note_off_c, 14, 36, 64
15, 43320, Note_on_c, 14, 36, 92
15, 43555, Note_off_c, 14, 36, 64
15, 43560, Note_on_c, 14, 36, 92
15, 43795, Note_off_c, 14, 36, 64
15, 43800, Note_on_c, 14, 36, 92
15, 44035, Note_off_c, 14, 36, 64
15, 44040, Note_on_c, 14, 36, 92
15, 44275, Note_off_c, 14, 36, 64
15, 44280, Note_on_c, 14, 36, 92
15, 44515, Note_off_c, 14, 36, 64
15, 44520, Note_on_c, 14, 29, 92
15, 45715, Note_off_c, 14, 29, 64
15, 45720, Note_on_c, 14, 29, 92
15, 45955, Note_off_c, 14, 29, 64
15, 45960, Note_on_c, 14, 29, 92
15, 46195, Note_off_c, 14, 29, 64
15, 46200, Note_on_c, 14, 29, 92
15, 46435, Note_off_c, 14, 29, 64
15, 46440, Note_on_c, 14, 29, 92
15, 47635, Note_off_c, 14, 29, 64
15, 47640, Note_on_c, 14, 29, 92
15, 47875, Note_off_c, 14, 29, 64
15, 47880, Note_on_c, 14, 29, 92
15, 48115, Note_off_c, 14, 29, 64
15, 48120, Note_on_c, 14, 29, 92
15, 48355, Note_off_c, 14, 29, 64
15, 48360, Note_on_c, 14, 29, 92
15, 49000, Note_off_c, 14, 29, 64
15, 49080, Note_on_c, 14, 29, 92
15, 49315, Note_off_c, 14, 29, 64
15, 49320, Note_on_c, 14, 29, 92
15, 49960, Note_off_c, 14, 29, 64
15, 50040, Note_on_c, 14, 29, 80
15, 50275, Note_off_c, 14, 29, 64
15, 50280, Note_on_c, 14, 29, 75
15, 50515, Note_off_c, 14, 29, 64
15, 54120, Program_c, 14, 45
15, 54120, Note_on_c, 14, 38, 30
15, 54355, Note_off_c, 14, 38, 64
15, 57960, Note_on_c, 14, 36, 30
15, 58360, Note_off_c, 14, 36, 64
15, 59880, Note_on_c, 14, 35, 30
15, 60280, Note_off_c, 14, 35, 64
15, 75240, Program_c, 14, 48
15, 75240, Note_on_c, 14, 45, 60
15, 75480, Note_off_c, 14, 45, 64
15, 75480, Note_on_c, 14, 43, 60
15, 75720, Note_off_c, 14, 43, 64
15, 75720, Note_on_c, 14, 41, 61
15, 75960, Note_off_c, 14, 41, 64
15, 75960, Note_on_c, 14, 38, 62
15, 76200, Note_off_c, 14, 38, 64
15, 76200, Note_on_c, 14, 31, 63
15, 76440, Note_off_c, 14, 31, 64
15, 76440, Note_on_c, 14, 41, 64
15, 76680, Note_off_c, 14, 41, 64
15, 76680, Note_on_c, 14, 38, 65
15, 76920, Note_off_c, 14, 38, 64
15, 76920, Note_on_c, 14, 31, 66
15, 77155, Note_off_c, 14, 31, 64
15, 77160, Note_on_c, 14, 45, 67
15, 77400, Note_off_c, 14, 45, 64
15, 77400, Note_on_c, 14, 43, 68
15, 77640, Note_off_c, 14, 43, 64
15, 77640, Note_on_c, 14, 40, 69
15, 77880, Note_off_c, 14, 40, 64
15, 77880, Note_on_c, 14, 36, 70
15, 78120, Note_off_c, 14, 36, 64
15, 78120, Note_on_c, 14, 31, 71
15, 78360, Note_off_c, 14, 31, 64
15, 78360, Note_on_c, 14, 40, 72
15, 78600, Note_off_c, 14, 40, 64
15, 78600, Note_on_c, 14, 36, 73
15, 78840, Note_off_c, 14, 36, 64
15, 78840, Note_on_c, 14, 31, 74
15, 79075, Note_off_c, 14, 31, 64
15, 79080, Note_on_c, 14, 31, 75
15, 80880, Note_off_c, 14, 31, 64
15, 81000, Note_on_c, 14, 36, 75
15, 82800, Note_off_c, 14, 36, 64
15, 82920, Note_on_c, 14, 35, 75
15, 83400, Note_off_c, 14, 35, 64
15, 83400, Note_on_c, 14, 35, 75
15, 83880, Note_off_c, 14, 35, 64
15, 83880, Note_on_c, 14, 35, 75
15, 84360, Note_off_c, 14, 35, 64
15, 84360, Note_on_c, 14, 38, 76
15, 84600, Note_off_c, 14, 38, 64
15, 84600, Note_on_c, 14, 35, 76
15, 84835, Note_off_c, 14, 35, 64
15, 84840, Note_on_c, 14, 36, 76
15, 85320, Note_off_c, 14, 36, 64
15, 85320, Note_on_c, 14, 36, 78
15, 85800, Note_off_c, 14, 36, 64
15, 85800, Note_on_c, 14, 36, 80
15, 86280, Note_off_c, 14, 36, 64
15, 86280, Note_on_c, 14, 40, 82
15, 86520, Note_off_c, 14, 40, 64
15, 86520, Note_on_c, 14, 36, 83
15, 86755, Note_off_c, 14, 36, 64
15, 86760, Note_on_c, 14, 38, 84
15, 87240, Note_off_c, 14, 38, 64
15, 87240, Note_on_c, 14, 38, 86
15, 87720, Note_off_c, 14, 38, 64
15, 87720, Note_on_c, 14, 38, 88
15, 88200, Note_off_c, 14, 38, 64
15, 88200, Note_on_c, 14, 41, 90
15, 88440, Note_off_c, 14, 41, 64
15, 88440, Note_on_c, 14, 38, 91
15, 88675, Note_off_c, 14, 38, 64
15, 88680, Note_on_c, 14, 36, 92
15, 91440, Note_off_c, 14, 36, 64
15, 91560, Note_on_c, 14, 29, 92
15, 91795, Note_off_c, 14, 29, 64
15, 92520, Note_on_c, 14, 29, 45
15, 93480, Note_off_c, 14, 29, 64
15, 93480, Note_on_c, 14, 36, 45
15, 94440, Note_off_c, 14, 36, 64
15, 94440, Note_on_c, 14, 31, 45
15, 95280, Note_off_c, 14, 31, 64
15, 95400, Note_on_c, 14, 36, 92
15, 98160, Note_off_c, 14, 36, 64
15, 98280, Note_on_c, 14, 29, 92
15, 98515, Note_off_c, 14, 29, 64
15, 99240, Note_on_c, 14, 29, 45
15, 100200, Note_off_c, 14, 29, 64
15, 100200, Note_on_c, 14, 36, 45
15, 101160, Note_off_c, 14, 36, 64
15, 101160, Note_on_c, 14, 31, 45
15, 102000, Note_off_c, 14, 31, 64
15, 102120, Note_on_c, 14, 36, 45
15, 102520, Note_off_c, 14, 36, 64
15, 102600, Note_on_c, 14, 36, 45
15, 103080, Note_off_c, 14, 36, 64
15, 103080, Note_on_c, 14, 29, 51
15, 103480, Note_off_c, 14, 29, 64
15, 103560, Note_on_c, 14, 29, 57
15, 104040, Note_off_c, 14, 29, 64
15, 104040, Note_on_c, 14, 36, 64
15, 104440, Note_off_c, 14, 36, 64
15, 104520, Note_on_c, 14, 36, 71
15, 105000, Note_off_c, 14, 36, 64
15, 105000, Note_on_c, 14, 31, 78
15, 105400, Note_off_c, 14, 31, 64
15, 105480, Note_on_c, 14, 31, 85
15, 105880, Note_off_c, 14, 31, 64
15, 105960, Note_on_c, 14, 36, 92
15, 106115, Note_off_c, 14, 36, 64
15, 106120, Note_on_c, 14, 36, 92
15, 106275, Note_off_c, 14, 36, 64
15, 106280, Note_on_c, 14, 36, 92
15, 106435, Note_off_c, 14, 36, 64
15, 106440, Note_on_c, 14, 36, 92
15, 106595, Note_off_c, 14, 36, 64
15, 106600, Note_on_c, 14, 38, 92
15, 106755, Note_off_c, 14, 38, 64
15, 106760, Note_on_c, 14, 40, 92
15, 106915, Note_off_c, 14, 40, 64
15, 106920, Note_on_c, 14, 41, 92
15, 107075, Note_off_c, 14, 41, 64
15, 107080, Note_on_c, 14, 41, 92
15, 107235, Note_off_c, 14, 41, 64
15, 107240, Note_on_c, 14, 41, 92
15, 107395, Note_off_c, 14, 41, 64
15, 107400, Note_on_c, 14, 45, 92
15, 107555, Note_off_c, 14, 45, 64
15, 107560, Note_on_c, 14, 45, 92
15, 107715, Note_off_c, 14, 45, 64
15, 107720, Note_on_c, 14, 45, 92
15, 107875, Note_off_c, 14, 45, 64
15, 107880, Note_on_c, 14, 48, 92
15, 108035, Note_off_c, 14, 48, 64
15, 108040, Note_on_c, 14, 48, 92
15, 108195, Note_off_c, 14, 48, 64
15, 108200, Note_on_c, 14, 48, 92
15, 108355, Note_off_c, 14, 48, 64
15, 108360, Note_on_c, 14, 52, 92
15, 108515, Note_off_c, 14, 52, 64
15, 108520, Note_on_c, 14, 52, 92
15, 108675, Note_off_c, 14, 52, 64
15, 108680, Note_on_c, 14, 52, 92
15, 108835, Note_off_c, 14, 52, 64
15, 108840, Note_on_c, 14, 55, 92
15, 108995, Note_off_c, 14, 55, 64
15, 109000, Note_on_c, 14, 31, 92
15, 109155, Note_off_c, 14, 31, 64
15, 109160, Note_on_c, 14, 31, 92
15, 109315, Note_off_c, 14, 31, 64
15, 109320, Note_on_c, 14, 31, 92
15, 109475, Note_off_c, 14, 31, 64
15, 109480, Note_on_c, 14, 31, 92
15, 109635, Note_off_c, 14, 31, 64
15, 109640, Note_on_c, 14, 31, 92
15, 109795, Note_off_c, 14, 31, 64
15, 109800, Note_on_c, 14, 36, 92
15, 109955, Note_off_c, 14, 36, 64
15, 109960, Note_on_c, 14, 36, 92
15, 110115, Note_off_c, 14, 36, 64
15, 110120, Note_on_c, 14, 36, 92
15, 110275, Note_off_c, 14, 36, 64
15, 110280, Note_on_c, 14, 36, 92
15, 111875, Note_off_c, 14, 36, 64
15, 111880, Note_on_c, 14, 36, 92
15, 112035, Note_off_c, 14, 36, 64
15, 112040, Note_on_c, 14, 36, 92
15, 112195, Note_off_c, 14, 36, 64
15, 112200, Note_on_c, 14, 36, 92
15, 113795, Note_off_c, 14, 36, 64
15, 113800, Note_on_c, 14, 36, 92
15, 113955, Note_off_c, 14, 36, 64
15, 113960, Note_on_c, 14, 36, 92
15, 114115, Note_off_c, 14, 36, 64
15, 114120, Note_on_c, 14, 36, 92
15, 115715, Note_off_c, 14, 36, 64
15, 115720, Note_on_c, 14, 36, 92
15, 115875, Note_off_c, 14, 36, 64
15, 115880, Note_on_c, 14, 36, 92
15, 116035, Note_off_c, 14, 36, 64
15, 116040, Note_on_c, 14, 36, 75
15, 117635, Note_off_c, 14, 36, 64
15, 117640, Note_on_c, 14, 36, 63
15, 117795, Note_off_c, 14, 36, 64
15, 117800, Note_on_c, 14, 36, 62
15, 117955, Note_off_c, 14, 36, 64
15, 117960, Note_on_c, 14, 36, 60
15, 119555, Note_off_c, 14, 36, 64
15, 119560, Note_on_c, 14, 36, 60
15, 119715, Note_off_c, 14, 36, 64
15, 119720, Note_on_c, 14, 36, 60
15, 119875, Note_off_c, 14, 36, 64
15, 119880, Note_on_c, 14, 36, 60
15, 121555, Note_off_c, 14, 36, 64
15, 144360, Note_on_c, 14, 41, 60
15, 144595, Note_off_c, 14, 41, 64
15, 144600, Note_on_c, 14, 34, 60
15, 145000, Note_off_c, 14, 34, 64
15, 145560, Note_on_c, 14, 34, 60
15, 145960, Note_off_c, 14, 34, 64
15, 146520, Note_on_c, 14, 34, 60
15, 146920, Note_off_c, 14, 34, 64
15, 147480, Note_on_c, 14, 34, 60
15, 147880, Note_off_c, 14, 34, 64
15, 148440, Note_on_c, 14, 34, 60
15, 148840, Note_off_c, 14, 34, 64
15, 149400, Note_on_c, 14, 34, 60
15, 149800, Note_off_c, 14, 34, 64
15, 150360, Note_on_c, 14, 34, 60
15, 150760, Note_off_c, 14, 34, 64
15, 151320, Note_on_c, 14, 34, 60
15, 151720, Note_off_c, 14, 34, 64
15, 152280, Note_on_c, 14, 34, 60
15, 152680, Note_off_c, 14, 34, 64
15, 153240, Note_on_c, 14, 34, 61
15, 153640, Note_off_c, 14, 34, 64
15, 154200, Note_on_c, 14, 34, 63
15, 154600, Note_off_c, 14, 34, 64
15, 155160, Note_on_c, 14, 34, 65
15, 155560, Note_off_c, 14, 34, 64
15, 156120, Note_on_c, 14, 38, 67
15, 156520, Note_off_c, 14, 38, 64
15, 157080, Note_on_c, 14, 38, 69
15, 157480, Note_off_c, 14, 38, 64
15, 158040, Note_on_c, 14, 38, 71
15, 158440, Note_off_c, 14, 38, 64
15, 159000, Note_on_c, 14, 38, 73
15, 159400, Note_off_c, 14, 38, 64
15, 159960, Note_on_c, 14, 38, 75
15, 160360, Note_off_c, 14, 38, 64
15, 160920, Note_on_c, 14, 38, 77
15, 161320, Note_off_c, 14, 38, 64
15, 161880, Note_on_c, 14, 38, 79
15, 162280, Note_off_c, 14, 38, 64
15, 162840, Note_on_c, 14, 38, 81
15, 163240, Note_off_c, 14, 38, 64
15, 163800, Note_on_c, 14, 38, 83
15, 164200, Note_off_c, 14, 38, 64
15, 164760, Note_on_c, 14, 38, 85
15, 165160, Note_off_c, 14, 38, 64
15, 165720, Note_on_c, 14, 38, 87
15, 166120, Note_off_c, 14, 38, 64
15, 166680, Note_on_c, 14, 38, 89
15, 167080, Note_off_c, 14, 38, 64
15, 167640, Note_on_c, 14, 38, 92
15, 167720, Note_off_c, 14, 38, 64
15, 167880, Note_on_c, 14, 33, 92
15, 168000, Note_off_c, 14, 33, 64
15, 168000, Note_on_c, 14, 31, 92
15, 168120, Note_off_c, 14, 31, 64
15, 168120, Note_on_c, 14, 30, 92
15, 168200, Note_off_c, 14, 30, 64
15, 168360, Note_on_c, 14, 26, 92
15, 168440, Note_off_c, 14, 26, 64
15, 168600, Note_on_c, 14, 38, 92
15, 168680, Note_off_c, 14, 38, 64
15, 168840, Note_on_c, 14, 33, 92
15, 168960, Note_off_c, 14, 33, 64
15, 168960, Note_on_c, 14, 31, 92
15, 169080, Note_off_c, 14, 31, 64
15, 169080, Note_on_c, 14, 30, 92
15, 169160, Note_off_c, 14, 30, 64
15, 169320, Note_on_c, 14, 26, 92
15, 169400, Note_off_c, 14, 26, 64
15, 169560, Note_on_c, 14, 38, 92
15, 169640, Note_off_c, 14, 38, 64
15, 169800, Note_on_c, 14, 33, 92
15, 169920, Note_off_c, 14, 33, 64
15, 169920, Note_on_c, 14, 31, 92
15, 170040, Note_off_c, 14, 31, 64
15, 170040, Note_on_c, 14, 30, 92
15, 170120, Note_off_c, 14, 30, 64
15, 170280, Note_on_c, 14, 26, 92
15, 170360, Note_off_c, 14, 26, 64
15, 170520, Note_on_c, 14, 38, 92
15, 170600, Note_off_c, 14, 38, 64
15, 170760, Note_on_c, 14, 33, 92
15, 170880, Note_off_c, 14, 33, 64
15, 170880, Note_on_c, 14, 31, 92
15, 171000, Note_off_c, 14, 31, 64
15, 171000, Note_on_c, 14, 30, 92
15, 171080, Note_off_c, 14, 30, 64
15, 171240, Note_on_c, 14, 26, 92
15, 171320, Note_off_c, 14, 26, 64
15, 171480, Note_on_c, 14, 38, 92
15, 171560, Note_off_c, 14, 38, 64
15, 171720, Note_on_c, 14, 33, 92
15, 171840, Note_off_c, 14, 33, 64
15, 171840, Note_on_c, 14, 31, 92
15, 171960, Note_off_c, 14, 31, 64
15, 171960, Note_on_c, 14, 30, 92
15, 172040, Note_off_c, 14, 30, 64
15, 172200, Note_on_c, 14, 26, 92
15, 172280, Note_off_c, 14, 26, 64
15, 173400, Note_on_c, 14, 38, 92
15, 173480, Note_off_c, 14, 38, 64
15, 173640, Note_on_c, 14, 33, 92
15, 173760, Note_off_c, 14, 33, 64
15, 173760, Note_on_c, 14, 31, 92
15, 173880, Note_off_c, 14, 31, 64
15, 173880, Note_on_c, 14, 30, 92
15, 173960, Note_off_c, 14, 30, 64
15, 174120, Note_on_c, 14, 26, 92
15, 174200, Note_off_c, 14, 26, 64
15, 175320, Note_on_c, 14, 38, 60
15, 175400, Note_off_c, 14, 38, 64
15, 175560, Note_on_c, 14, 33, 60
15, 175680, Note_off_c, 14, 33, 64
15, 175680, Note_on_c, 14, 31, 60
15, 175800, Note_off_c, 14, 31, 64
15, 175800, Note_on_c, 14, 30, 60
15, 175880, Note_off_c, 14, 30, 64
15, 176040, Note_on_c, 14, 26, 60
15, 176120, Note_off_c, 14, 26, 64
15, 186840, Note_on_c, 14, 43, 60
15, 187920, Note_off_c, 14, 43, 64
15, 187920, Note_on_c, 14, 42, 60
15, 188040, Note_off_c, 14, 42, 64
15, 188040, Note_on_c, 14, 40, 60
15, 188160, Note_off_c, 14, 40, 64
15, 188160, Note_on_c, 14, 38, 60
15, 188275, Note_off_c, 14, 38, 64
15, 188280, Note_on_c, 14, 38, 60
15, 188360, Note_off_c, 14, 38, 64
15, 188520, Note_on_c, 14, 38, 60
15, 188600, Note_off_c, 14, 38, 64
15, 188760, Note_on_c, 14, 31, 60
15, 189160, Note_off_c, 14, 31, 64
15, 189720, Note_on_c, 14, 31, 60
15, 190120, Note_off_c, 14, 31, 64
15, 190680, Note_on_c, 14, 31, 60
15, 191080, Note_off_c, 14, 31, 64
15, 191640, Note_on_c, 14, 31, 60
15, 192040, Note_off_c, 14, 31, 64
15, 192600, Note_on_c, 14, 31, 60
15, 193000, Note_off_c, 14, 31, 64
15, 193560, Note_on_c, 14, 31, 61
15, 193960, Note_off_c, 14, 31, 64
15, 194520, Note_on_c, 14, 31, 63
15, 194920, Note_off_c, 14, 31, 64
15, 195480, Note_on_c, 14, 31, 65
15, 195880, Note_off_c, 14, 31, 64
15, 196440, Note_on_c, 14, 31, 67
15, 196840, Note_off_c, 14, 31, 64
15, 197400, Note_on_c, 14, 31, 69
15, 197800, Note_off_c, 14, 31, 64
15, 198360, Note_on_c, 14, 31, 71
15, 198760, Note_off_c, 14, 31, 64
15, 199320, Note_on_c, 14, 31, 73
15, 199720, Note_off_c, 14, 31, 64
15, 200280, Note_on_c, 14, 28, 75
15, 200680, Note_off_c, 14, 28, 64
15, 201240, Note_on_c, 14, 28, 75
15, 201640, Note_off_c, 14, 28, 64
15, 202200, Note_on_c, 14, 28, 75
15, 202600, Note_off_c, 14, 28, 64
15, 203160, Note_on_c, 14, 28, 75
15, 203560, Note_off_c, 14, 28, 64
15, 204120, Note_on_c, 14, 28, 76
15, 204520, Note_off_c, 14, 28, 64
15, 205080, Note_on_c, 14, 28, 78
15, 205480, Note_off_c, 14, 28, 64
15, 206040, Note_on_c, 14, 28, 80
15, 206440, Note_off_c, 14, 28, 64
15, 207000, Note_on_c, 14, 28, 82
15, 207400, Note_off_c, 14, 28, 64
15, 207960, Note_on_c, 14, 28, 84
15, 208360, Note_off_c, 14, 28, 64
15, 208920, Note_on_c, 14, 28, 86
15, 209320, Note_off_c, 14, 28, 64
15, 209880, Note_on_c, 14, 28, 88
15, 210280, Note_off_c, 14, 28, 64
15, 210840, Note_on_c, 14, 28, 90
15, 211240, Note_off_c, 14, 28, 64
15, 211800, Note_on_c, 14, 40, 92
15, 211880, Note_off_c, 14, 40, 64
15, 212040, Note_on_c, 14, 35, 92
15, 212160, Note_off_c, 14, 35, 64
15, 212160, Note_on_c, 14, 33, 92
15, 212280, Note_off_c, 14, 33, 64
15, 212280, Note_on_c, 14, 32, 92
15, 212360, Note_off_c, 14, 32, 64
15, 212520, Note_on_c, 14, 28, 92
15, 212600, Note_off_c, 14, 28, 64
15, 212760, Note_on_c, 14, 40, 92
15, 212840, Note_off_c, 14, 40, 64
15, 213000, Note_on_c, 14, 35, 92
15, 213120, Note_off_c, 14, 35, 64
15, 213120, Note_on_c, 14, 33, 92
15, 213240, Note_off_c, 14, 33, 64
15, 213240, Note_on_c, 14, 32, 92
15, 213320, Note_off_c, 14, 32, 64
15, 213480, Note_on_c, 14, 28, 92
15, 213560, Note_off_c, 14, 28, 64
15, 213720, Note_on_c, 14, 40, 92
15, 213800, Note_off_c, 14, 40, 64
15, 213960, Note_on_c, 14, 35, 92
15, 214080, Note_off_c, 14, 35, 64
15, 214080, Note_on_c, 14, 33, 92
15, 214200, Note_off_c, 14, 33, 64
15, 214200, Note_on_c, 14, 32, 92
15, 214280, Note_off_c, 14, 32, 64
15, 214440, Note_on_c, 14, 28, 92
15, 214520, Note_off_c, 14, 28, 64
15, 214680, Note_on_c, 14, 40, 92
15, 214760, Note_off_c, 14, 40, 64
15, 214920, Note_on_c, 14, 35, 92
15, 215040, Note_off_c, 14, 35, 64
15, 215040, Note_on_c, 14, 33, 92
15, 215160, Note_off_c, 14, 33, 64
15, 215160, Note_on_c, 14, 32, 92
15, 215240, Note_off_c, 14, 32, 64
15, 215400, Note_on_c, 14, 28, 92
15, 215480, Note_off_c, 14, 28, 64
15, 215640, Note_on_c, 14, 40, 92
15, 215720, Note_off_c, 14, 40, 64
15, 215880, Note_on_c, 14, 35, 92
15, 216000, Note_off_c, 14, 35, 64
15, 216000, Note_on_c, 14, 33, 92
15, 216120, Note_off_c, 14, 33, 64
15, 216120, Note_on_c, 14, 32, 92
15, 216200, Note_off_c, 14, 32, 64
15, 216360, Note_on_c, 14, 28, 92
15, 216440, Note_off_c, 14, 28, 64
15, 217560, Note_on_c, 14, 40, 92
15, 217640, Note_off_c, 14, 40, 64
15, 217800, Note_on_c, 14, 35, 92
15, 217920, Note_off_c, 14, 35, 64
15, 217920, Note_on_c, 14, 33, 92
15, 218040, Note_off_c, 14, 33, 64
15, 218040, Note_on_c, 14, 32, 92
15, 218120, Note_off_c, 14, 32, 64
15, 218280, Note_on_c, 14, 28, 92
15, 218360, Note_off_c, 14, 28, 64
15, 236760, Program_c, 14, 32
15, 236760, Note_on_c, 14, 33, 45
15, 236995, Note_off_c, 14, 33, 64
15, 240600, Note_on_c, 14, 33, 45
15, 240835, Note_off_c, 14, 33, 64
15, 244440, Note_on_c, 14, 38, 45
15, 244675, Note_off_c, 14, 38, 64
15, 246360, Note_on_c, 14, 31, 45
15, 246595, Note_off_c, 14, 31, 64
15, 248280, Note_on_c, 14, 38, 45
15, 248515, Note_off_c, 14, 38, 64
15, 250200, Note_on_c, 14, 31, 68
15, 250435, Note_off_c, 14, 31, 64
15, 251160, Note_on_c, 14, 31, 80
15, 251395, Note_off_c, 14, 31, 64
15, 252120, Program_c, 14, 48
15, 252120, Note_on_c, 14, 36, 92
15, 252600, Note_off_c, 14, 36, 64
15, 252600, Note_on_c, 14, 40, 92
15, 253000, Note_off_c, 14, 40, 64
15, 253080, Note_on_c, 14, 38, 92
15, 253800, Note_off_c, 14, 38, 64
15, 253800, Note_on_c, 14, 36, 92
15, 254035, Note_off_c, 14, 36, 64
15, 254040, Note_on_c, 14, 41, 92
15, 254520, Note_off_c, 14, 41, 64
15, 254520, Note_on_c, 14, 40, 92
15, 255000, Note_off_c, 14, 40, 64
15, 255000, Note_on_c, 14, 38, 92
15, 255080, Note_off_c, 14, 38, 64
15, 255240, Note_on_c, 14, 38, 92
15, 255360, Note_off_c, 14, 38, 64
15, 255360, Note_on_c, 14, 40, 92
15, 255480, Note_off_c, 14, 40, 64
15, 255480, Note_on_c, 14, 41, 92
15, 255560, Note_off_c, 14, 41, 64
15, 255720, Note_on_c, 14, 38, 92
15, 255800, Note_off_c, 14, 38, 64
15, 255960, Note_on_c, 14, 40, 92
15, 256440, Note_off_c, 14, 40, 64
15, 256440, Note_on_c, 14, 43, 92
15, 256840, Note_off_c, 14, 43, 64
15, 256920, Note_on_c, 14, 41, 92
15, 257640, Note_off_c, 14, 41, 64
15, 257640, Note_on_c, 14, 40, 92
15, 257875, Note_off_c, 14, 40, 64
15, 257880, Note_on_c, 14, 45, 92
15, 258360, Note_off_c, 14, 45, 64
15, 258360, Note_on_c, 14, 43, 92
15, 258840, Note_off_c, 14, 43, 64
15, 258840, Note_on_c, 14, 41, 92
15, 258920, Note_off_c, 14, 41, 64
15, 259080, Note_on_c, 14, 41, 92
15, 259200, Note_off_c, 14, 41, 64
15, 259200, Note_on_c, 14, 43, 92
15, 259320, Note_off_c, 14, 43, 64
15, 259320, Note_on_c, 14, 45, 92
15, 259400, Note_off_c, 14, 45, 64
15, 259560, Note_on_c, 14, 41, 92
15, 259640, Note_off_c, 14, 41, 64
15, 259800, Note_on_c, 14, 46, 92
15, 260280, Note_off_c, 14, 46, 64
15, 260280, Note_on_c, 14, 45, 92
15, 260760, Note_off_c, 14, 45, 64
15, 260760, Note_on_c, 14, 43, 92
15, 260840, Note_off_c, 14, 43, 64
15, 261000, Note_on_c, 14, 40, 92
15, 261120, Note_off_c, 14, 40, 64
15, 261120, Note_on_c, 14, 41, 92
15, 261240, Note_off_c, 14, 41, 64
15, 261240, Note_on_c, 14, 43, 92
15, 261320, Note_off_c, 14, 43, 64
15, 261480, Note_on_c, 14, 45, 92
15, 261560, Note_off_c, 14, 45, 64
15, 261720, Note_on_c, 14, 46, 92
15, 262200, Note_off_c, 14, 46, 64
15, 262200, Note_on_c, 14, 45, 92
15, 262680, Note_off_c, 14, 45, 64
15, 262680, Note_on_c, 14, 43, 92
15, 262760, Note_off_c, 14, 43, 64
15, 262920, Note_on_c, 14, 40, 92
15, 263040, Note_off_c, 14, 40, 64
15, 263040, Note_on_c, 14, 41, 92
15, 263160, Note_off_c, 14, 41, 64
15, 263160, Note_on_c, 14, 43, 92
15, 263240, Note_off_c, 14, 43, 64
15, 263400, Note_on_c, 14, 45, 92
15, 263480, Note_off_c, 14, 45, 64
15, 263640, Note_on_c, 14, 34, 75
15, 267360, Note_off_c, 14, 34, 64
15, 267480, Note_on_c, 14, 29, 45
15, 270240, Note_off_c, 14, 29, 64
15, 270360, Note_on_c, 14, 36, 45
15, 271200, Note_off_c, 14, 36, 64
15, 277080, Program_c, 14, 32
15, 277080, Note_on_c, 14, 29, 60
15, 277315, Note_off_c, 14, 29, 64
15, 279000, Note_on_c, 14, 29, 60
15, 279400, Note_off_c, 14, 29, 64
15, 280920, Note_on_c, 14, 29, 60
15, 281320, Note_off_c, 14, 29, 64
15, 282840, Note_on_c, 14, 34, 60
15, 283240, Note_off_c, 14, 34, 64
15, 283320, Note_on_c, 14, 41, 60
15, 283720, Note_off_c, 14, 41, 64
15, 283800, Note_on_c, 14, 36, 60
15, 284200, Note_off_c, 14, 36, 64
15, 284760, Note_on_c, 14, 41, 60
15, 285160, Note_off_c, 14, 41, 64
15, 286680, Note_on_c, 14, 34, 60
15, 287080, Note_off_c, 14, 34, 64
15, 287160, Note_on_c, 14, 41, 60
15, 287560, Note_off_c, 14, 41, 64
15, 287640, Note_on_c, 14, 36, 60
15, 288040, Note_off_c, 14, 36, 64
15, 291480, Program_c, 14, 48
15, 291480, Note_on_c, 14, 36, 45
15, 292120, Note_off_c, 14, 36, 64
15, 292200, Note_on_c, 14, 36, 45
15, 292435, Note_off_c, 14, 36, 64
15, 292440, Note_on_c, 14, 36, 45
15, 293080, Note_off_c, 14, 36, 64
15, 293160, Note_on_c, 14, 36, 45
15, 293395, Note_off_c, 14, 36, 64
15, 293400, Note_on_c, 14, 36, 45
15, 294040, Note_off_c, 14, 36, 64
15, 294120, Note_on_c, 14, 36, 45
15, 294355, Note_off_c, 14, 36, 64
15, 294360, Note_on_c, 14, 36, 45
15, 295000, Note_off_c, 14, 36, 64
15, 295080, Note_on_c, 14, 36, 45
15, 295315, Note_off_c, 14, 36, 64
15, 295320, Note_on_c, 14, 36, 45
15, 295425, Note_off_c, 14, 36, 64
15, 295480, Note_on_c, 14, 48, 46
15, 295585, Note_off_c, 14, 48, 64
15, 295640, Note_on_c, 14, 46, 48
15, 295745, Note_off_c, 14, 46, 64
15, 295800, Note_on_c, 14, 45, 50
15, 295905, Note_off_c, 14, 45, 64
15, 295960, Note_on_c, 14, 43, 52
15, 296065, Note_off_c, 14, 43, 64
15, 296120, Note_on_c, 14, 41, 54
15, 296225, Note_off_c, 14, 41, 64
15, 296280, Note_on_c, 14, 40, 56
15, 296385, Note_off_c, 14, 40, 64
15, 296440, Note_on_c, 14, 45, 58
15, 296545, Note_off_c, 14, 45, 64
15, 296600, Note_on_c, 14, 43, 60
15, 296705, Note_off_c, 14, 43, 64
15, 296760, Note_on_c, 14, 41, 62
15, 296865, Note_off_c, 14, 41, 64
15, 296920, Note_on_c, 14, 40, 64
15, 297025, Note_off_c, 14, 40, 64
15, 297080, Note_on_c, 14, 38, 66
15, 297185, Note_off_c, 14, 38, 64
15, 297240, Note_on_c, 14, 36, 68
15, 297345, Note_off_c, 14, 36, 64
15, 297400, Note_on_c, 14, 53, 70
15, 297505, Note_off_c, 14, 53, 64
15, 297560, Note_on_c, 14, 52, 72
15, 297665, Note_off_c, 14, 52, 64
15, 297720, Note_on_c, 14, 50, 74
15, 297825, Note_off_c, 14, 50, 64
15, 297880, Note_on_c, 14, 48, 76
15, 297985, Note_off_c, 14, 48, 64
15, 298040, Note_on_c, 14, 46, 78
15, 298145, Note_off_c, 14, 46, 64
15, 298200, Note_on_c, 14, 45, 80
15, 298305, Note_off_c, 14, 45, 64
15, 298360, Note_on_c, 14, 50, 82
15, 298465, Note_off_c, 14, 50, 64
15, 298520, Note_on_c, 14, 48, 84
15, 298625, Note_off_c, 14, 48, 64
15, 298680, Note_on_c, 14, 46, 86
15, 298785, Note_off_c, 14, 46, 64
15, 298840, Note_on_c, 14, 45, 88
15, 298945, Note_off_c, 14, 45, 64
15, 299000, Note_on_c, 14, 43, 90
15, 299105, Note_off_c, 14, 43, 64
15, 299160, Note_on_c, 14, 29, 92
15, 299395, Note_off_c, 14, 29, 64
15, 299400, Note_on_c, 14, 29, 92
15, 299635, Note_off_c, 14, 29, 64
15, 299640, Note_on_c, 14, 29, 92
15, 299875, Note_off_c, 14, 29, 64
15, 299880, Note_on_c, 14, 29, 92
15, 300115, Note_off_c, 14, 29, 64
15, 300120, Note_on_c, 14, 29, 92
15, 300355, Note_off_c, 14, 29, 64
15, 300360, Note_on_c, 14, 29, 92
15, 300595, Note_off_c, 14, 29, 64
15, 300600, Note_on_c, 14, 29, 92
15, 300835, Note_off_c, 14, 29, 64
15, 300840, Note_on_c, 14, 29, 92
15, 301075, Note_off_c, 14, 29, 64
15, 301080, Note_on_c, 14, 29, 92
15, 301315, Note_off_c, 14, 29, 64
15, 301320, Note_on_c, 14, 29, 92
15, 301555, Note_off_c, 14, 29, 64
15, 301560, Note_on_c, 14, 29, 92
15, 301795, Note_off_c, 14, 29, 64
15, 301800, Note_on_c, 14, 29, 92
15, 302035, Note_off_c, 14, 29, 64
15, 302040, Note_on_c, 14, 29, 92
15, 302275, Note_off_c, 14, 29, 64
15, 302280, Note_on_c, 14, 29, 92
15, 302515, Note_off_c, 14, 29, 64
15, 302520, Note_on_c, 14, 29, 92
15, 302755, Note_off_c, 14, 29, 64
15, 302760, Note_on_c, 14, 29, 92
15, 302995, Note_off_c, 14, 29, 64
15, 303000, Note_on_c, 14, 29, 92
15, 303235, Note_off_c, 14, 29, 64
15, 303240, Note_on_c, 14, 29, 92
15, 303475, Note_off_c, 14, 29, 64
15, 303480, Note_on_c, 14, 29, 92
15, 303715, Note_off_c, 14, 29, 64
15, 303720, Note_on_c, 14, 29, 92
15, 303955, Note_off_c, 14, 29, 64
15, 303960, Note_on_c, 14, 29, 92
15, 304195, Note_off_c, 14, 29, 64
15, 304200, Note_on_c, 14, 29, 92
15, 304435, Note_off_c, 14, 29, 64
15, 304440, Note_on_c, 14, 29, 92
15, 304675, Note_off_c, 14, 29, 64
15, 304680, Note_on_c, 14, 29, 92
15, 304915, Note_off_c, 14, 29, 64
15, 304920, Note_on_c, 14, 36, 92
15, 305760, Note_off_c, 14, 36, 64
15, 305880, Note_on_c, 14, 36, 92
15, 306720, Note_off_c, 14, 36, 64
15, 306840, Note_on_c, 14, 36, 92
15, 307680, Note_off_c, 14, 36, 64
15, 307800, Note_on_c, 14, 36, 92
15, 308640, Note_off_c, 14, 36, 64
15, 308760, Note_on_c, 14, 29, 92
15, 309955, Note_off_c, 14, 29, 64
15, 309960, Note_on_c, 14, 29, 92
15, 310195, Note_off_c, 14, 29, 64
15, 310200, Note_on_c, 14, 29, 92
15, 310435, Note_off_c, 14, 29, 64
15, 310440, Note_on_c, 14, 29, 92
15, 310675, Note_off_c, 14, 29, 64
15, 310680, Note_on_c, 14, 29, 92
15, 311875, Note_off_c, 14, 29, 64
15, 311880, Note_on_c, 14, 29, 92
15, 312115, Note_off_c, 14, 29, 64
15, 312120, Note_on_c, 14, 29, 92
15, 312355, Note_off_c, 14, 29, 64
15, 312360, Note_on_c, 14, 29, 92
15, 312595, Note_off_c, 14, 29, 64
15, 312600, Note_on_c, 14, 29, 92
15, 313240, Note_off_c, 14, 29, 64
15, 313320, Note_on_c, 14, 29, 92
15, 313555, Note_off_c, 14, 29, 64
15, 313560, Note_on_c, 14, 29, 92
15, 314200, Note_off_c, 14, 29, 64
15, 314280, Note_on_c, 14, 29, 92
15, 314515, Note_off_c, 14, 29, 64
15, 314520, Note_on_c, 14, 29, 60
15, 314755, Note_off_c, 14, 29, 64
15, 318360, Program_c, 14, 32
15, 318360, Note_on_c, 14, 38, 45
15, 318760, Note_off_c, 14, 38, 64
15, 322200, Note_on_c, 14, 36, 45
15, 322600, Note_off_c, 14, 36, 64
15, 324120, Note_on_c, 14, 35, 45
15, 324520, Note_off_c, 14, 35, 64
15, 326040, Note_on_c, 14, 34, 45
15, 326440, Note_off_c, 14, 34, 64
15, 343320, Program_c, 14, 48
15, 343320, Note_on_c, 14, 48, 60
15, 343560, Note_off_c, 14, 48, 64
15, 343560, Note_on_c, 14, 46, 60
15, 343800, Note_off_c, 14, 46, 64
15, 343800, Note_on_c, 14, 43, 60
15, 344040, Note_off_c, 14, 43, 64
15, 344040, Note_on_c, 14, 40, 60
15, 344280, Note_off_c, 14, 40, 64
15, 344280, Note_on_c, 14, 36, 60
15, 344520, Note_off_c, 14, 36, 64
15, 344520, Note_on_c, 14, 46, 60
15, 344760, Note_off_c, 14, 46, 64
15, 344760, Note_on_c, 14, 43, 60
15, 345000, Note_off_c, 14, 43, 64
15, 345000, Note_on_c, 14, 36, 60
15, 345235, Note_off_c, 14, 36, 64
15, 345240, Note_on_c, 14, 50, 60
15, 345480, Note_off_c, 14, 50, 64
15, 345480, Note_on_c, 14, 48, 60
15, 345720, Note_off_c, 14, 48, 64
15, 345720, Note_on_c, 14, 45, 60
15, 345960, Note_off_c, 14, 45, 64
15, 345960, Note_on_c, 14, 41, 60
15, 346200, Note_off_c, 14, 41, 64
15, 346200, Note_on_c, 14, 36, 60
15, 346440, Note_off_c, 14, 36, 64
15, 346440, Note_on_c, 14, 45, 60
15, 346680, Note_off_c, 14, 45, 64
15, 346680, Note_on_c, 14, 41, 60
15, 346920, Note_off_c, 14, 41, 64
15, 346920, Note_on_c, 14, 36, 60
15, 347155, Note_off_c, 14, 36, 64
15, 347160, Note_on_c, 14, 36, 60
15, 348960, Note_off_c, 14, 36, 64
15, 349080, Note_on_c, 14, 41, 66
15, 350880, Note_off_c, 14, 41, 64
15, 351000, Note_on_c, 14, 40, 72
15, 351480, Note_off_c, 14, 40, 64
15, 351480, Note_on_c, 14, 40, 73
15, 351960, Note_off_c, 14, 40, 64
15, 351960, Note_on_c, 14, 40, 74
15, 352440, Note_off_c, 14, 40, 64
15, 352440, Note_on_c, 14, 43, 75
15, 352680, Note_off_c, 14, 43, 64
15, 352680, Note_on_c, 14, 40, 75
15, 352915, Note_off_c, 14, 40, 64
15, 352920, Note_on_c, 14, 41, 76
15, 353400, Note_off_c, 14, 41, 64
15, 353400, Note_on_c, 14, 41, 78
15, 353880, Note_off_c, 14, 41, 64
15, 353880, Note_on_c, 14, 41, 80
15, 354360, Note_off_c, 14, 41, 64
15, 354360, Note_on_c, 14, 45, 82
15, 354600, Note_off_c, 14, 45, 64
15, 354600, Note_on_c, 14, 41, 83
15, 354835, Note_off_c, 14, 41, 64
15, 354840, Note_on_c, 14, 43, 84
15, 355320, Note_off_c, 14, 43, 64
15, 355320, Note_on_c, 14, 43, 86
15, 355800, Note_off_c, 14, 43, 64
15, 355800, Note_on_c, 14, 43, 88
15, 356280, Note_off_c, 14, 43, 64
15, 356280, Note_on_c, 14, 46, 90
15, 356520, Note_off_c, 14, 46, 64
15, 356520, Note_on_c, 14, 43, 91
15, 356755, Note_off_c, 14, 43, 64
15, 356760, Note_on_c, 14, 41, 92
15, 359520, Note_off_c, 14, 41, 64
15, 359640, Note_on_c, 14, 34, 92
15, 359875, Note_off_c, 14, 34, 64
15, 360720, Note_on_c, 14, 34, 45
15, 361680, Note_off_c, 14, 34, 64
15, 361680, Note_on_c, 14, 41, 45
15, 362640, Note_off_c, 14, 41, 64
15, 362640, Note_on_c, 14, 36, 45
15, 363480, Note_off_c, 14, 36, 64
15, 363600, Note_on_c, 14, 41, 92
15, 366360, Note_off_c, 14, 41, 64
15, 366480, Note_on_c, 14, 34, 92
15, 366715, Note_off_c, 14, 34, 64
15, 367560, Note_on_c, 14, 34, 45
15, 368520, Note_off_c, 14, 34, 64
15, 368520, Note_on_c, 14, 41, 45
15, 369480, Note_off_c, 14, 41, 64
15, 369480, Note_on_c, 14, 36, 45
15, 370320, Note_off_c, 14, 36, 64
15, 370440, Note_on_c, 14, 41, 45
15, 370840, Note_off_c, 14, 41, 64
15, 370920, Note_on_c, 14, 41, 45
15, 371400, Note_off_c, 14, 41, 64
15, 371400, Note_on_c, 14, 34, 51
15, 371800, Note_off_c, 14, 34, 64
15, 371880, Note_on_c, 14, 34, 57
15, 372360, Note_off_c, 14, 34, 64
15, 372360, Note_on_c, 14, 29, 64
15, 372760, Note_off_c, 14, 29, 64
15, 372840, Note_on_c, 14, 29, 71
15, 373320, Note_off_c, 14, 29, 64
15, 373320, Note_on_c, 14, 36, 78
15, 373720, Note_off_c, 14, 36, 64
15, 373800, Note_on_c, 14, 36, 85
15, 374200, Note_off_c, 14, 36, 64
15, 374280, Note_on_c, 14, 29, 92
15, 374435, Note_off_c, 14, 29, 64
15, 374440, Note_on_c, 14, 29, 92
15, 374595, Note_off_c, 14, 29, 64
15, 374600, Note_on_c, 14, 29, 92
15, 374755, Note_off_c, 14, 29, 64
15, 374760, Note_on_c, 14, 29, 92
15, 374915, Note_off_c, 14, 29, 64
15, 374920, Note_on_c, 14, 31, 92
15, 375075, Note_off_c, 14, 31, 64
15, 375080, Note_on_c, 14, 33, 92
15, 375235, Note_off_c, 14, 33, 64
15, 375240, Note_on_c, 14, 34, 92
15, 375395, Note_off_c, 14, 34, 64
15, 375400, Note_on_c, 14, 34, 92
15, 375555, Note_off_c, 14, 34, 64
15, 375560, Note_on_c, 14, 34, 92
15, 375715, Note_off_c, 14, 34, 64
15, 375720, Note_on_c, 14, 38, 92
15, 375875, Note_off_c, 14, 38, 64
15, 375880, Note_on_c, 14, 38, 92
15, 376035, Note_off_c, 14, 38, 64
15, 376040, Note_on_c, 14, 38, 92
15, 376195, Note_off_c, 14, 38, 64
15, 376200, Note_on_c, 14, 41, 92
15, 376355, Note_off_c, 14, 41, 64
15, 376360, Note_on_c, 14, 41, 92
15, 376515, Note_off_c, 14, 41, 64
15, 376520, Note_on_c, 14, 41, 92
15, 376675, Note_off_c, 14, 41, 64
15, 376680, Note_on_c, 14, 45, 92
15, 376835, Note_off_c, 14, 45, 64
15, 376840, Note_on_c, 14, 45, 92
15, 376995, Note_off_c, 14, 45, 64
15, 377000, Note_on_c, 14, 45, 92
15, 377155, Note_off_c, 14, 45, 64
15, 377160, Note_on_c, 14, 48, 92
15, 377315, Note_off_c, 14, 48, 64
15, 377320, Note_on_c, 14, 48, 92
15, 377475, Note_off_c, 14, 48, 64
15, 377480, Note_on_c, 14, 48, 92
15, 377635, Note_off_c, 14, 48, 64
15, 377640, Note_on_c, 14, 36, 92
15, 377795, Note_off_c, 14, 36, 64
15, 377800, Note_on_c, 14, 36, 92
15, 377955, Note_off_c, 14, 36, 64
15, 377960, Note_on_c, 14, 36, 92
15, 378115, Note_off_c, 14, 36, 64
15, 378120, Note_on_c, 14, 41, 92
15, 378275, Note_off_c, 14, 41, 64
15, 378280, Note_on_c, 14, 29, 92
15, 378435, Note_off_c, 14, 29, 64
15, 378440, Note_on_c, 14, 29, 92
15, 378595, Note_off_c, 14, 29, 64
15, 378600, Note_on_c, 14, 29, 92
15, 379235, Note_off_c, 14, 29, 64
15, 379240, Note_on_c, 14, 29, 92
15, 379395, Note_off_c, 14, 29, 64
15, 379400, Note_on_c, 14, 29, 92
15, 379555, Note_off_c, 14, 29, 64
15, 379560, Note_on_c, 14, 29, 92
15, 381155, Note_off_c, 14, 29, 64
15, 381160, Note_on_c, 14, 29, 92
15, 381315, Note_off_c, 14, 29, 64
15, 381320, Note_on_c, 14, 29, 92
15, 381475, Note_off_c, 14, 29, 64
15, 381480, Note_on_c, 14, 29, 92
15, 383075, Note_off_c, 14, 29, 64
15, 383080, Note_on_c, 14, 29, 92
15, 383235, Note_off_c, 14, 29, 64
15, 383240, Note_on_c, 14, 29, 92
15, 383395, Note_off_c, 14, 29, 64
15, 383400, Note_on_c, 14, 29, 92
15, 384995, Note_off_c, 14, 29, 64
15, 385000, Note_on_c, 14, 29, 92
15, 385155, Note_off_c, 14, 29, 64
15, 385160, Note_on_c, 14, 29, 92
15, 385315, Note_off_c, 14, 29, 64
15, 385320, Note_on_c, 14, 29, 92
15, 385955, Note_off_c, 14, 29, 64
15, 385960, Note_on_c, 14, 29, 92
15, 386115, Note_off_c, 14, 29, 64
15, 386120, Note_on_c, 14, 29, 92
15, 386275, Note_off_c, 14, 29, 64
15, 386280, Note_on_c, 14, 29, 75
15, 386915, Note_off_c, 14, 29, 64
15, 386920, Note_on_c, 14, 29, 75
15, 387075, Note_off_c, 14, 29, 64
15, 387080, Note_on_c, 14, 29, 75
15, 387235, Note_off_c, 14, 29, 64
15, 387240, Note_on_c, 14, 29, 75
15, 387875, Note_off_c, 14, 29, 64
15, 387880, Note_on_c, 14, 29, 66
15, 388035, Note_off_c, 14, 29, 64
15, 388040, Note_on_c, 14, 29, 63
15, 388195, Note_off_c, 14, 29, 64
15, 388200, Note_on_c, 14, 29, 60
15, 388835, Note_off_c, 14, 29, 64
15, 388840, Note_on_c, 14, 29, 60
15, 388995, Note_off_c, 14, 29, 64
15, 389000, Note_on_c, 14, 29, 60
15, 389155, Note_off_c, 14, 29, 64
15, 389160, Note_on_c, 14, 29, 60
15, 389795, Note_off_c, 14, 29, 64
15, 389800, Note_on_c, 14, 29, 60
15, 389955, Note_off_c, 14, 29, 64
15, 389960, Note_on_c, 14, 29, 60
15, 390115, Note_off_c, 14, 29, 64
15, 390120, Note_on_c, 14, 29, 45
15, 390755, Note_off_c, 14, 29, 64
15, 390760, Note_on_c, 14, 29, 45
15, 390915, Note_off_c, 14, 29, 64
15, 390920, Note_on_c, 14, 29, 45
15, 391075, Note_off_c, 14, 29, 64
15, 391080, Note_on_c, 14, 29, 45
15, 391715, Note_off_c, 14, 29, 64
15, 391720, Note_on_c, 14, 29, 36
15, 391875, Note_off_c, 14, 29, 64
15, 391880, Note_on_c, 14, 29, 33
15, 392035, Note_off_c, 14, 29, 64
15, 392040, Note_on_c, 14, 29, 30
15, 392675, Note_off_c, 14, 29, 64
15, 392680, Note_on_c, 14, 29, 30
15, 392835, Note_off_c, 14, 29, 64
15, 392840, Note_on_c, 14, 29, 30
15, 392995, Note_off_c, 14, 29, 64
15, 393000, Note_on_c, 14, 29, 30
15, 393560, Note_off_c, 14, 29, 64
15, 405360, Note_on_c, 14, 46, 108
15, 405440, Note_off_c, 14, 46, 64
15, 405600, Note_on_c, 14, 43, 108
15, 405680, Note_off_c, 14, 43, 64
15, 405840, Note_on_c, 14, 39, 108
15, 405920, Note_off_c, 14, 39, 64
15, 406080, Note_on_c, 14, 38, 108
15, 406160, Note_off_c, 14, 38, 64
15, 406320, Note_on_c, 14, 39, 108
15, 406400, Note_off_c, 14, 39, 64
15, 406560, Note_on_c, 14, 41, 108
15, 406640, Note_off_c, 14, 41, 64
15, 406800, Note_on_c, 14, 39, 108
15, 406880, Note_off_c, 14, 39, 64
15, 407040, Note_on_c, 14, 38, 108
15, 407120, Note_off_c, 14, 38, 64
15, 407280, Note_on_c, 14, 36, 108
15, 407360, Note_off_c, 14, 36, 64
15, 407520, Note_on_c, 14, 34, 108
15, 407600, Note_off_c, 14, 34, 64
15, 407760, Note_on_c, 14, 36, 108
15, 407840, Note_off_c, 14, 36, 64
15, 408000, Note_on_c, 14, 33, 108
15, 408080, Note_off_c, 14, 33, 64
15, 408240, Note_on_c, 14, 31, 108
15, 408320, Note_off_c, 14, 31, 64
15, 408480, Note_on_c, 14, 29, 108
15, 408560, Note_off_c, 14, 29, 64
15, 408720, Note_on_c, 14, 41, 108
15, 408800, Note_off_c, 14, 41, 64
15, 408960, Note_on_c, 14, 34, 60
15, 409195, Note_off_c, 14, 34, 64
15, 409920, Note_on_c, 14, 29, 60
15, 410155, Note_off_c, 14, 29, 64
15, 410880, Note_on_c, 14, 34, 60
15, 411035, Note_off_c, 14, 34, 64
15, 411040, Note_on_c, 14, 34, 60
15, 411195, Note_off_c, 14, 34, 64
15, 411200, Note_on_c, 14, 34, 60
15, 411355, Note_off_c, 14, 34, 64
15, 411360, Note_on_c, 14, 34, 60
15, 412955, Note_off_c, 14, 34, 64
15, 412960, Note_on_c, 14, 34, 60
15, 413115, Note_off_c, 14, 34, 64
15, 413120, Note_on_c, 14, 34, 60
15, 413275, Note_off_c, 14, 34, 64
15, 413280, Note_on_c, 14, 34, 60
15, 414875, Note_off_c, 14, 34, 64
15, 414880, Note_on_c, 14, 34, 60
15, 415035, Note_off_c, 14, 34, 64
15, 415040, Note_on_c, 14, 34, 60
15, 415195, Note_off_c, 14, 34, 64
15, 415200, Note_on_c, 14, 34, 60
15, 416795, Note_off_c, 14, 34, 64
15, 416800, Note_on_c, 14, 34, 60
15, 416955, Note_off_c, 14, 34, 64
15, 416960, Note_on_c, 14, 34, 60
15, 417115, Note_off_c, 14, 34, 64
15, 417120, Note_on_c, 14, 34, 60
15, 418715, Note_off_c, 14, 34, 64
15, 418720, Note_on_c, 14, 46, 60
15, 418875, Note_off_c, 14, 46, 64
15, 418880, Note_on_c, 14, 46, 60
15, 419035, Note_off_c, 14, 46, 64
15, 419040, Note_on_c, 14, 46, 60
15, 419675, Note_off_c, 14, 46, 64
15, 419680, Note_on_c, 14, 43, 60
15, 419835, Note_off_c, 14, 43, 64
15, 419840, Note_on_c, 14, 43, 60
15, 419995, Note_off_c, 14, 43, 64
15, 420000, Note_on_c, 14, 43, 60
15, 420635, Note_off_c, 14, 43, 64
15, 420640, Note_on_c, 14, 40, 72
15, 420795, Note_off_c, 14, 40, 64
15, 420800, Note_on_c, 14, 40, 75
15, 420955, Note_off_c, 14, 40, 64
15, 420960, Note_on_c, 14, 40, 78
15, 421595, Note_off_c, 14, 40, 64
15, 421600, Note_on_c, 14, 36, 91
15, 421755, Note_off_c, 14, 36, 64
15, 421760, Note_on_c, 14, 36, 94
15, 421915, Note_off_c, 14, 36, 64
15, 421920, Note_on_c, 14, 36, 97
15, 422320, Note_off_c, 14, 36, 64
15, 422400, Note_on_c, 14, 29, 108
15, 422555, Note_off_c, 14, 29, 64
15, 422560, Note_on_c, 14, 29, 108
15, 422715, Note_off_c, 14, 29, 64
15, 422720, Note_on_c, 14, 29, 108
15, 422875, Note_off_c, 14, 29, 64
15, 422880, Note_on_c, 14, 29, 108
15, 424475, Note_off_c, 14, 29, 64
15, 424480, Note_on_c, 14, 29, 108
15, 424635, Note_off_c, 14, 29, 64
15, 424640, Note_on_c, 14, 29, 108
15, 424795, Note_off_c, 14, 29, 64
15, 424800, Note_on_c, 14, 29, 108
15, 426395, Note_off_c, 14, 29, 64
15, 426400, Note_on_c, 14, 29, 108
15, 426555, Note_off_c, 14, 29, 64
15, 426560, Note_on_c, 14, 29, 108
15, 426715, Note_off_c, 14, 29, 64
15, 426720, Note_on_c, 14, 29, 108
15, 428315, Note_off_c, 14, 29, 64
15, 428320, Note_on_c, 14, 29, 108
15, 428475, Note_off_c, 14, 29, 64
15, 428480, Note_on_c, 14, 29, 108
15, 428635, Note_off_c, 14, 29, 64
15, 428640, Note_on_c, 14, 29, 108
15, 430235, Note_off_c, 14, 29, 64
15, 430240, Note_on_c, 14, 29, 108
15, 430395, Note_off_c, 14, 29, 64
15, 430400, Note_on_c, 14, 29, 108
15, 430555, Note_off_c, 14, 29, 64
15, 430560, Note_on_c, 14, 29, 108
15, 431195, Note_off_c, 14, 29, 64
15, 431200, Note_on_c, 14, 38, 108
15, 431355, Note_off_c, 14, 38, 64
15, 431360, Note_on_c, 14, 38, 108
15, 431515, Note_off_c, 14, 38, 64
15, 431520, Note_on_c, 14, 38, 108
15, 432155, Note_off_c, 14, 38, 64
15, 432160, Note_on_c, 14, 36, 108
15, 432315, Note_off_c, 14, 36, 64
15, 432320, Note_on_c, 14, 36, 108
15, 432475, Note_off_c, 14, 36, 64
15, 432480, Note_on_c, 14, 36, 108
15, 433115, Note_off_c, 14, 36, 64
15, 433120, Note_on_c, 14, 36, 108
15, 433275, Note_off_c, 14, 36, 64
15, 433280, Note_on_c, 14, 36, 108
15, 433435, Note_off_c, 14, 36, 64
15, 433440, Note_on_c, 14, 36, 108
15, 434075, Note_off_c, 14, 36, 64
15, 434080, Note_on_c, 14, 29, 108
15, 434235, Note_off_c, 14, 29, 64
15, 434240, Note_on_c, 14, 29, 108
15, 434395, Note_off_c, 14, 29, 64
15, 434400, Note_on_c, 14, 29, 108
15, 435035, Note_off_c, 14, 29, 64
15, 435040, Note_on_c, 14, 38, 108
15, 435195, Note_off_c, 14, 38, 64
15, 435200, Note_on_c, 14, 38, 108
15, 435355, Note_off_c, 14, 38, 64
15, 435360, Note_on_c, 14, 38, 108
15, 435995, Note_off_c, 14, 38, 64
15, 436000, Note_on_c, 14, 36, 108
15, 436155, Note_off_c, 14, 36, 64
15, 436160, Note_on_c, 14, 36, 108
15, 436315, Note_off_c, 14, 36, 64
15, 436320, Note_on_c, 14, 36, 108
15, 436955, Note_off_c, 14, 36, 64
15, 436960, Note_on_c, 14, 36, 108
15, 437115, Note_off_c, 14, 36, 64
15, 437120, Note_on_c, 14, 36, 108
15, 437275, Note_off_c, 14, 36, 64
15, 437280, Note_on_c, 14, 36, 108
15, 437915, Note_off_c, 14, 36, 64
15, 437920, Note_on_c, 14, 29, 108
15, 438075, Note_off_c, 14, 29, 64
15, 438080, Note_on_c, 14, 29, 108
15, 438235, Note_off_c, 14, 29, 64
15, 438240, Note_on_c, 14, 29, 108
15, 438875, Note_off_c, 14, 29, 64
15, 438880, Note_on_c, 14, 38, 108
15, 439035, Note_off_c, 14, 38, 64
15, 439040, Note_on_c, 14, 38, 108
15, 439195, Note_off_c, 14, 38, 64
15, 439200, Note_on_c, 14, 38, 108
15, 439835, Note_off_c, 14, 38, 64
15, 439840, Note_on_c, 14, 36, 108
15, 439995, Note_off_c, 14, 36, 64
15, 440000, Note_on_c, 14, 36, 108
15, 440155, Note_off_c, 14, 36, 64
15, 440160, Note_on_c, 14, 36, 108
15, 440795, Note_off_c, 14, 36, 64
15, 440800, Note_on_c, 14, 36, 108
15, 440955, Note_off_c, 14, 36, 64
15, 440960, Note_on_c, 14, 36, 108
15, 441115, Note_off_c, 14, 36, 64
15, 441120, Note_on_c, 14, 36, 108
15, 441755, Note_off_c, 14, 36, 64
15, 441760, Note_on_c, 14, 36, 98
15, 441915, Note_off_c, 14, 36, 64
15, 441920, Note_on_c, 14, 36, 95
15, 442075, Note_off_c, 14, 36, 64
15, 442080, Note_on_c, 14, 36, 92
15, 442715, Note_off_c, 14, 36, 64
15, 442720, Note_on_c, 14, 36, 92
15, 442875, Note_off_c, 14, 36, 64
15, 442880, Note_on_c, 14, 36, 92
15, 443035, Note_off_c, 14, 36, 64
15, 443040, Note_on_c, 14, 36, 92
15, 443675, Note_off_c, 14, 36, 64
15, 443680, Note_on_c, 14, 36, 81
15, 443835, Note_off_c, 14, 36, 64
15, 443840, Note_on_c, 14, 36, 78
15, 443995, Note_off_c, 14, 36, 64
15, 444000, Note_on_c, 14, 36, 75
15, 444635, Note_off_c, 14, 36, 64
15, 444640, Note_on_c, 14, 36, 75
15, 444795, Note_off_c, 14, 36, 64
15, 444800, Note_on_c, 14, 36, 75
15, 444955, Note_off_c, 14, 36, 64
15, 444960, Note_on_c, 14, 36, 75
15, 445595, Note_off_c, 14, 36, 64
15, 445600, Note_on_c, 14, 36, 66
15, 445755, Note_off_c, 14, 36, 64
15, 445760, Note_on_c, 14, 36, 63
15, 445915, Note_off_c, 14, 36, 64
15, 445920, Note_on_c, 14, 36, 60
15, 446555, Note_off_c, 14, 36, 64
15, 446560, Note_on_c, 14, 36, 60
15, 446715, Note_off_c, 14, 36, 64
15, 446720, Note_on_c, 14, 36, 60
15, 446875, Note_off_c, 14, 36, 64
15, 446880, Note_on_c, 14, 36, 60
15, 447515, Note_off_c, 14, 36, 64
15, 447520, Note_on_c, 14, 36, 51
15, 447675, Note_off_c, 14, 36, 64
15, 447680, Note_on_c, 14, 36, 48
15, 447835, Note_off_c, 14, 36, 64
15, 447840, Note_on_c, 14, 36, 45
15, 448475, Note_off_c, 14, 36, 64
15, 448480, Note_on_c, 14, 36, 45
15, 448635, Note_off_c, 14, 36, 64
15, 448640, Note_on_c, 14, 36, 45
15, 448795, Note_off_c, 14, 36, 64
15, 448800, Note_on_c, 14, 36, 45
15, 449200, Note_off_c, 14, 36, 64
15, 449280, Note_on_c, 14, 36, 45
15, 450120, Note_off_c, 14, 36, 64
15, 450240, Note_on_c, 14, 38, 45
15, 451080, Note_off_c, 14, 38, 64
15, 451200, Note_on_c, 14, 40, 92
15, 452040, Note_off_c, 14, 40, 64
15, 452160, Note_on_c, 14, 41, 92
15, 452395, Note_off_c, 14, 41, 64
15, 452640, Note_on_c, 14, 36, 92
15, 452875, Note_off_c, 14, 36, 64
15, 453120, Note_on_c, 14, 36, 45
15, 453960, Note_off_c, 14, 36, 64
15, 454080, Note_on_c, 14, 38, 45
15, 454920, Note_off_c, 14, 38, 64
15, 455040, Note_on_c, 14, 40, 92
15, 455880, Note_off_c, 14, 40, 64
15, 456000, Note_on_c, 14, 41, 92
15, 456235, Note_off_c, 14, 41, 64
15, 456480, Note_on_c, 14, 36, 92
15, 456715, Note_off_c, 14, 36, 64
15, 456960, Note_on_c, 14, 29, 92
15, 457195, Note_off_c, 14, 29, 64
15, 459840, Note_on_c, 14, 36, 92
15, 460480, Note_off_c, 14, 36, 64
15, 460560, Note_on_c, 14, 36, 92
15, 460795, Note_off_c, 14, 36, 64
15, 460800, Note_on_c, 14, 29, 92
15, 461035, Note_off_c, 14, 29, 64
15, 463680, Note_on_c, 14, 36, 92
15, 464320, Note_off_c, 14, 36, 64
15, 464400, Note_on_c, 14, 36, 92
15, 464635, Note_off_c, 14, 36, 64
15, 464640, Note_on_c, 14, 29, 92
15, 464875, Note_off_c, 14, 29, 64
15, 465600, Note_on_c, 14, 36, 92
15, 466240, Note_off_c, 14, 36, 64
15, 466320, Note_on_c, 14, 36, 92
15, 466555, Note_off_c, 14, 36, 64
15, 466560, Note_on_c, 14, 29, 92
15, 466795, Note_off_c, 14, 29, 64
15, 467520, Note_on_c, 14, 36, 92
15, 468160, Note_off_c, 14, 36, 64
15, 468240, Note_on_c, 14, 36, 92
15, 468475, Note_off_c, 14, 36, 64
15, 468480, Note_on_c, 14, 29, 92
15, 468715, Note_off_c, 14, 29, 64
15, 469440, Note_on_c, 14, 29, 92
15, 469675, Note_off_c, 14, 29, 64
15, 470400, Note_on_c, 14, 29, 75
15, 470635, Note_off_c, 14, 29, 64
15, 471360, Note_on_c, 14, 29, 45
15, 471595, Note_off_c, 14, 29, 64
15, 472320, Note_on_c, 14, 29, 45
15, 478315, Note_off_c, 14, 29, 64
15, 485040, Note_on_c, 14, 34, 92
15, 485120, Note_off_c, 14, 34, 64
15, 485280, Note_on_c, 14, 36, 92
15, 485360, Note_off_c, 14, 36, 64
15, 485520, Note_on_c, 14, 38, 92
15, 485600, Note_off_c, 14, 38, 64
15, 485760, Note_on_c, 14, 40, 92
15, 485840, Note_off_c, 14, 40, 64
15, 486000, Note_on_c, 14, 41, 92
15, 486840, Note_off_c, 14, 41, 64
15, 486960, Note_on_c, 14, 36, 92
15, 487800, Note_off_c, 14, 36, 64
15, 487920, Note_on_c, 14, 29, 92
15, 488760, Note_off_c, 14, 29, 64
15, 488880, Note_on_c, 14, 29, 75
15, 489360, Note_off_c, 14, 29, 64
15, 489360, Note_on_c, 14, 29, 75
15, 489840, Note_off_c, 14, 29, 64
15, 489840, Note_on_c, 14, 29, 75
15, 490680, Note_off_c, 14, 29, 64
15, 490800, Note_on_c, 14, 29, 60
15, 491640, Note_off_c, 14, 29, 64
15, 491760, Note_on_c, 14, 29, 60
15, 492600, Note_off_c, 14, 29, 64
15, 501840, Note_on_c, 14, 43, 60
15, 501960, Note_off_c, 14, 43, 64
15, 502320, Note_on_c, 14, 45, 60
15, 502440, Note_off_c, 14, 45, 64
15, 502800, Note_on_c, 14, 41, 60
15, 502920, Note_off_c, 14, 41, 64
15, 503280, Note_on_c, 14, 43, 60
15, 503400, Note_off_c, 14, 43, 64
15, 503760, Note_on_c, 14, 41, 60
15, 503880, Note_off_c, 14, 41, 64
15, 504240, Note_on_c, 14, 38, 60
15, 504360, Note_off_c, 14, 38, 64
15, 504720, Note_on_c, 14, 40, 60
15, 504840, Note_off_c, 14, 40, 64
15, 505200, Note_on_c, 14, 38, 60
15, 505320, Note_off_c, 14, 38, 64
15, 505680, Note_on_c, 14, 33, 60
15, 505800, Note_off_c, 14, 33, 64
15, 506160, Note_on_c, 14, 33, 60
15, 506280, Note_off_c, 14, 33, 64
15, 506640, Note_on_c, 14, 33, 60
15, 506760, Note_off_c, 14, 33, 64
15, 507600, Note_on_c, 14, 33, 60
15, 508000, Note_off_c, 14, 33, 64
15, 508080, Note_on_c, 14, 38, 60
15, 508480, Note_off_c, 14, 38, 64
15, 509520, Note_on_c, 14, 38, 60
15, 509920, Note_off_c, 14, 38, 64
15, 510960, Note_on_c, 14, 38, 60
15, 511360, Note_off_c, 14, 38, 64
15, 512400, Note_on_c, 14, 38, 60
15, 512800, Note_off_c, 14, 38, 64
15, 513840, Note_on_c, 14, 38, 60
15, 514240, Note_off_c, 14, 38, 64
15, 515280, Note_on_c, 14, 38, 60
15, 515680, Note_off_c, 14, 38, 64
15, 516720, Note_on_c, 14, 38, 60
15, 517120, Note_off_c, 14, 38, 64
15, 517680, Note_on_c, 14, 33, 60
15, 518080, Note_off_c, 14, 33, 64
15, 518160, Note_on_c, 14, 38, 60
15, 518560, Note_off_c, 14, 38, 64
15, 524880, Note_on_c, 14, 43, 60
15, 525000, Note_off_c, 14, 43, 64
15, 525360, Note_on_c, 14, 45, 60
15, 525480, Note_off_c, 14, 45, 64
15, 525840, Note_on_c, 14, 41, 60
15, 525960, Note_off_c, 14, 41, 64
15, 526320, Note_on_c, 14, 43, 60
15, 526440, Note_off_c, 14, 43, 64
15, 526800, Note_on_c, 14, 41, 60
15, 526920, Note_off_c, 14, 41, 64
15, 527280, Note_on_c, 14, 38, 60
15, 527400, Note_off_c, 14, 38, 64
15, 527760, Note_on_c, 14, 40, 60
15, 527880, Note_off_c, 14, 40, 64
15, 528240, Note_on_c, 14, 38, 60
15, 528360, Note_off_c, 14, 38, 64
15, 528720, Note_on_c, 14, 33, 60
15, 528840, Note_off_c, 14, 33, 64
15, 529200, Note_on_c, 14, 33, 60
15, 529320, Note_off_c, 14, 33, 64
15, 529680, Note_on_c, 14, 33, 60
15, 529800, Note_off_c, 14, 33, 64
15, 530640, Note_on_c, 14, 33, 60
15, 531040, Note_off_c, 14, 33, 64
15, 531120, Note_on_c, 14, 38, 60
15, 531520, Note_off_c, 14, 38, 64
15, 532560, Note_on_c, 14, 38, 60
15, 532960, Note_off_c, 14, 38, 64
15, 534000, Note_on_c, 14, 38, 60
15, 534400, Note_off_c, 14, 38, 64
15, 535440, Note_on_c, 14, 38, 60
15, 535840, Note_off_c, 14, 38, 64
15, 536880, Note_on_c, 14, 38, 60
15, 537280, Note_off_c, 14, 38, 64
15, 538320, Note_on_c, 14, 38, 60
15, 538720, Note_off_c, 14, 38, 64
15, 539760, Note_on_c, 14, 38, 60
15, 540160, Note_off_c, 14, 38, 64
15, 540720, Note_on_c, 14, 33, 60
15, 541120, Note_off_c, 14, 33, 64
15, 541200, Note_on_c, 14, 38, 60
15, 541600, Note_off_c, 14, 38, 64
15, 551760, Note_on_c, 14, 31, 60
15, 551880, Note_off_c, 14, 31, 64
15, 552240, Note_on_c, 14, 33, 60
15, 552360, Note_off_c, 14, 33, 64
15, 552720, Note_on_c, 14, 35, 60
15, 552840, Note_off_c, 14, 35, 64
15, 553200, Note_on_c, 14, 31, 60
15, 553320, Note_off_c, 14, 31, 64
15, 553680, Note_on_c, 14, 31, 60
15, 554080, Note_off_c, 14, 31, 64
15, 554160, Note_on_c, 14, 36, 60
15, 554560, Note_off_c, 14, 36, 64
15, 555600, Note_on_c, 14, 36, 60
15, 556000, Note_off_c, 14, 36, 64
15, 557040, Note_on_c, 14, 36, 60
15, 557440, Note_off_c, 14, 36, 64
15, 558480, Note_on_c, 14, 36, 60
15, 558880, Note_off_c, 14, 36, 64
15, 559920, Note_on_c, 14, 36, 60
15, 560320, Note_off_c, 14, 36, 64
15, 561360, Note_on_c, 14, 36, 60
15, 561760, Note_off_c, 14, 36, 64
15, 562800, Note_on_c, 14, 36, 60
15, 563200, Note_off_c, 14, 36, 64
15, 563760, Note_on_c, 14, 31, 60
15, 564160, Note_off_c, 14, 31, 64
15, 564240, Note_on_c, 14, 36, 60
15, 564640, Note_off_c, 14, 36, 64
15, 565200, Note_on_c, 14, 36, 66
15, 565680, Note_off_c, 14, 36, 64
15, 565680, Note_on_c, 14, 48, 69
15, 566160, Note_off_c, 14, 48, 64
15, 566160, Note_on_c, 14, 45, 72
15, 566640, Note_off_c, 14, 45, 64
15, 566640, Note_on_c, 14, 46, 75
15, 567120, Note_off_c, 14, 46, 64
15, 567120, Note_on_c, 14, 45, 78
15, 567600, Note_off_c, 14, 45, 64
15, 567600, Note_on_c, 14, 41, 81
15, 568080, Note_off_c, 14, 41, 64
15, 568080, Note_on_c, 14, 43, 84
15, 568560, Note_off_c, 14, 43, 64
15, 568560, Note_on_c, 14, 41, 88
15, 569040, Note_off_c, 14, 41, 64
15, 569040, Note_on_c, 14, 36, 92
15, 569520, Note_off_c, 14, 36, 64
15, 569520, Note_on_c, 14, 43, 96
15, 570000, Note_off_c, 14, 43, 64
15, 570000, Note_on_c, 14, 45, 100
15, 570480, Note_off_c, 14, 45, 64
15, 570480, Note_on_c, 14, 41, 104
15, 570880, Note_off_c, 14, 41, 64
15, 570960, Note_on_c, 14, 36, 127
15, 571080, Note_off_c, 14, 36, 64
15, 571440, Note_on_c, 14, 41, 127
15, 571560, Note_off_c, 14, 41, 64
15, 571920, Note_on_c, 14, 36, 108
15, 572040, Note_off_c, 14, 36, 64
15, 572400, Note_on_c, 14, 38, 108
15, 572520, Note_off_c, 14, 38, 64
15, 572880, Note_on_c, 14, 36, 108
15, 573000, Note_off_c, 14, 36, 64
15, 573360, Note_on_c, 14, 33, 108
15, 573480, Note_off_c, 14, 33, 64
15, 573840, Note_on_c, 14, 34, 108
15, 573960, Note_off_c, 14, 34, 64
15, 574320, Note_on_c, 14, 33, 108
15, 574440, Note_off_c, 14, 33, 64
15, 574800, Note_on_c, 14, 29, 108
15, 574920, Note_off_c, 14, 29, 64
15, 575280, Note_on_c, 14, 31, 108
15, 575400, Note_off_c, 14, 31, 64
15, 575760, Note_on_c, 14, 33, 108
15, 575880, Note_off_c, 14, 33, 64
15, 576240, Note_on_c, 14, 29, 108
15, 576360, Note_off_c, 14, 29, 64
15, 576720, Note_on_c, 14, 31, 108
15, 576840, Note_off_c, 14, 31, 64
15, 577200, Note_on_c, 14, 33, 108
15, 577320, Note_off_c, 14, 33, 64
15, 577680, Note_on_c, 14, 29, 108
15, 577800, Note_off_c, 14, 29, 64
15, 578160, Note_on_c, 14, 31, 108
15, 578280, Note_off_c, 14, 31, 64
15, 578640, Note_on_c, 14, 33, 108
15, 578760, Note_off_c, 14, 33, 64
15, 579120, Note_on_c, 14, 29, 108
15, 579240, Note_off_c, 14, 29, 64
15, 579600, Note_on_c, 14, 31, 108
15, 579720, Note_off_c, 14, 31, 64
15, 580080, Note_on_c, 14, 33, 108
15, 581400, Note_off_c, 14, 33, 64
15, 581520, Note_on_c, 14, 31, 108
15, 582360, Note_off_c, 14, 31, 64
15, 582480, Note_on_c, 14, 41, 108
15, 582880, Note_off_c, 14, 41, 64
15, 582960, Note_on_c, 14, 40, 108
15, 583800, Note_off_c, 14, 40, 64
15, 583920, Note_on_c, 14, 38, 108
15, 584320, Note_off_c, 14, 38, 64
15, 584400, Note_on_c, 14, 36, 108
15, 585240, Note_off_c, 14, 36, 64
15, 585360, Note_on_c, 14, 34, 108
15, 585760, Note_off_c, 14, 34, 64
15, 585840, Note_on_c, 14, 33, 108
15, 587160, Note_off_c, 14, 33, 64
15, 587280, Note_on_c, 14, 34, 108
15, 588600, Note_off_c, 14, 34, 64
15, 588720, Note_on_c, 14, 36, 108
15, 590040, Note_off_c, 14, 36, 64
15, 590160, Note_on_c, 14, 36, 108
15, 591480, Note_off_c, 14, 36, 64
15, 591600, Note_on_c, 14, 41, 108
15, 592000, Note_off_c, 14, 41, 64
15, 592560, Note_on_c, 14, 45, 108
15, 592960, Note_off_c, 14, 45, 64
15, 593040, Note_on_c, 14, 43, 108
15, 593880, Note_off_c, 14, 43, 64
15, 594000, Note_on_c, 14, 41, 108
15, 594400, Note_off_c, 14, 41, 64
15, 594480, Note_on_c, 14, 40, 108
15, 595320, Note_off_c, 14, 40, 64
15, 595440, Note_on_c, 14, 38, 108
15, 595840, Note_off_c, 14, 38, 64
15, 595920, Note_on_c, 14, 36, 108
15, 596760, Note_off_c, 14, 36, 64
15, 596880, Note_on_c, 14, 34, 108
15, 597280, Note_off_c, 14, 34, 64
15, 597360, Note_on_c, 14, 33, 108
15, 598680, Note_off_c, 14, 33, 64
15, 598800, Note_on_c, 14, 34, 108
15, 600120, Note_off_c, 14, 34, 64
15, 600240, Note_on_c, 14, 36, 108
15, 601560, Note_off_c, 14, 36, 64
15, 601680, Note_on_c, 14, 36, 108
15, 603000, Note_off_c, 14, 36, 64
15, 603120, Note_on_c, 14, 41, 92
15, 603520, Note_off_c, 14, 41, 64
15, 607440, Note_on_c, 14, 36, 92
15, 607840, Note_off_c, 14, 36, 64
15, 607920, Note_on_c, 14, 36, 92
15, 608320, Note_off_c, 14, 36, 64
15, 608400, Note_on_c, 14, 36, 92
15, 608800, Note_off_c, 14, 36, 64
15, 608880, Note_on_c, 14, 29, 92
15, 609280, Note_off_c, 14, 29, 64
15, 613200, Note_on_c, 14, 36, 92
15, 613600, Note_off_c, 14, 36, 64
15, 613680, Note_on_c, 14, 36, 92
15, 614080, Note_off_c, 14, 36, 64
15, 614160, Note_on_c, 14, 36, 92
15, 614560, Note_off_c, 14, 36, 64
15, 614640, Note_on_c, 14, 29, 92
15, 615040, Note_off_c, 14, 29, 64
15, 617520, Note_on_c, 14, 29, 92
15, 617920, Note_off_c, 14, 29, 64
15, 679440, Program_c, 14, 43
15, 679440, Note_on_c, 14, 43, 45
15, 680760, Note_off_c, 14, 43, 64
15, 680880, Note_on_c, 14, 36, 55
15, 682200, Note_off_c, 14, 36, 64
15, 682320, Note_on_c, 14, 31, 65
15, 683640, Note_off_c, 14, 31, 64
15, 683760, Note_on_c, 14, 36, 75
15, 685080, Note_off_c, 14, 36, 64
15, 685200, Note_on_c, 14, 36, 75
15, 686520, Note_off_c, 14, 36, 64
15, 686640, Note_on_c, 14, 29, 75
15, 687040, Note_off_c, 14, 29, 64
15, 709680, Program_c, 14, 48
15, 709680, Note_on_c, 14, 29, 45
15, 715320, Note_off_c, 14, 29, 64
15, 715440, Note_on_c, 14, 41, 75
15, 716400, Note_off_c, 14, 41, 64
15, 716400, Note_on_c, 14, 46, 75
15, 716880, Note_off_c, 14, 46, 64
15, 716880, Note_on_c, 14, 48, 75
15, 717360, Note_off_c, 14, 48, 64
15, 717360, Note_on_c, 14, 45, 75
15, 717840, Note_off_c, 14, 45, 64
15, 717840, Note_on_c, 14, 46, 75
15, 718240, Note_off_c, 14, 46, 64
15, 718320, Note_on_c, 14, 43, 75
15, 719280, Note_off_c, 14, 43, 64
15, 719280, Note_on_c, 14, 45, 75
15, 719760, Note_off_c, 14, 45, 64
15, 719760, Note_on_c, 14, 46, 75
15, 720240, Note_off_c, 14, 46, 64
15, 720240, Note_on_c, 14, 43, 75
15, 720720, Note_off_c, 14, 43, 64
15, 720720, Note_on_c, 14, 45, 75
15, 721120, Note_off_c, 14, 45, 64
15, 721200, Note_on_c, 14, 41, 75
15, 722160, Note_off_c, 14, 41, 64
15, 722160, Note_on_c, 14, 34, 77
15, 722640, Note_off_c, 14, 34, 64
15, 722640, Note_on_c, 14, 36, 78
15, 723120, Note_off_c, 14, 36, 64
15, 723120, Note_on_c, 14, 33, 79
15, 723600, Note_off_c, 14, 33, 64
15, 723600, Note_on_c, 14, 34, 80
15, 724000, Note_off_c, 14, 34, 64
15, 724080, Note_on_c, 14, 31, 81
15, 725040, Note_off_c, 14, 31, 64
15, 725040, Note_on_c, 14, 33, 84
15, 725520, Note_off_c, 14, 33, 64
15, 725520, Note_on_c, 14, 34, 86
15, 726000, Note_off_c, 14, 34, 64
15, 726000, Note_on_c, 14, 31, 88
15, 726480, Note_off_c, 14, 31, 64
15, 726480, Note_on_c, 14, 33, 90
15, 726880, Note_off_c, 14, 33, 64
15, 726960, Note_on_c, 14, 29, 92
15, 727080, Note_off_c, 14, 29, 64
15, 727920, Note_on_c, 14, 34, 92
15, 728040, Note_off_c, 14, 34, 64
15, 728400, Note_on_c, 14, 36, 92
15, 728520, Note_off_c, 14, 36, 64
15, 728880, Note_on_c, 14, 33, 92
15, 729000, Note_off_c, 14, 33, 64
15, 729360, Note_on_c, 14, 34, 92
15, 729480, Note_off_c, 14, 34, 64
15, 729840, Note_on_c, 14, 34, 92
15, 729960, Note_off_c, 14, 34, 64
15, 730320, Note_on_c, 14, 31, 92
15, 730440, Note_off_c, 14, 31, 64
15, 730800, Note_on_c, 14, 33, 92
15, 730920, Note_off_c, 14, 33, 64
15, 731280, Note_on_c, 14, 33, 92
15, 731400, Note_off_c, 14, 33, 64
15, 731760, Note_on_c, 14, 29, 92
15, 731880, Note_off_c, 14, 29, 64
15, 732240, Note_on_c, 14, 31, 92
15, 732360, Note_off_c, 14, 31, 64
15, 732720, Note_on_c, 14, 29, 108
15, 733560, Note_off_c, 14, 29, 64
15, 733680, Note_on_c, 14, 29, 108
15, 734520, Note_off_c, 14, 29, 64
15, 734640, Note_on_c, 14, 34, 108
15, 735480, Note_off_c, 14, 34, 64
15, 735600, Note_on_c, 14, 29, 108
15, 736080, Note_off_c, 14, 29, 64
15, 736080, Note_on_c, 14, 34, 108
15, 736480, Note_off_c, 14, 34, 64
15, 736560, Note_on_c, 14, 29, 108
15, 737400, Note_off_c, 14, 29, 64
15, 737520, Note_on_c, 14, 29, 108
15, 738360, Note_off_c, 14, 29, 64
15, 738480, Note_on_c, 14, 34, 108
15, 739320, Note_off_c, 14, 34, 64
15, 739440, Note_on_c, 14, 29, 108
15, 739920, Note_off_c, 14, 29, 64
15, 739920, Note_on_c, 14, 34, 108
15, 740320, Note_off_c, 14, 34, 64
15, 740400, Note_on_c, 14, 29, 108
15, 741240, Note_off_c, 14, 29, 64
15, 741360, Note_on_c, 14, 29, 108
15, 742200, Note_off_c, 14, 29, 64
15, 742320, Note_on_c, 14, 34, 108
15, 743160, Note_off_c, 14, 34, 64
15, 743280, Note_on_c, 14, 29, 108
15, 743760, Note_off_c, 14, 29, 64
15, 743760, Note_on_c, 14, 34, 108
15, 744160, Note_off_c, 14, 34, 64
15, 744240, Note_on_c, 14, 29, 108
15, 745080, Note_off_c, 14, 29, 64
15, 745200, Note_on_c, 14, 29, 108
15, 746040, Note_off_c, 14, 29, 64
15, 746160, Note_on_c, 14, 34, 108
15, 747000, Note_off_c, 14, 34, 64
15, 747120, Note_on_c, 14, 29, 108
15, 747600, Note_off_c, 14, 29, 64
15, 747600, Note_on_c, 14, 34, 108
15, 748000, Note_off_c, 14, 34, 64
15, 750000, Note_on_c, 14, 41, 92
15, 750840, Note_off_c, 14, 41, 64
15, 750960, Note_on_c, 14, 36, 92
15, 751440, Note_off_c, 14, 36, 64
15, 751440, Note_on_c, 14, 29, 92
15, 751840, Note_off_c, 14, 29, 64
15, 753840, Note_on_c, 14, 41, 92
15, 754680, Note_off_c, 14, 41, 64
15, 754800, Note_on_c, 14, 36, 92
15, 755280, Note_off_c, 14, 36, 64
15, 755280, Note_on_c, 14, 29, 92
15, 755680, Note_off_c, 14, 29, 64
15, 755760, Note_on_c, 14, 36, 92
15, 756000, Note_off_c, 14, 36, 64
15, 756000, Note_on_c, 14, 38, 92
15, 756120, Note_off_c, 14, 38, 64
15, 756120, Note_on_c, 14, 36, 92
15, 756240, Note_off_c, 14, 36, 64
15, 756240, Note_on_c, 14, 31, 92
15, 756480, Note_off_c, 14, 31, 64
15, 756480, Note_on_c, 14, 33, 92
15, 756600, Note_off_c, 14, 33, 64
15, 756600, Note_on_c, 14, 35, 92
15, 756715, Note_off_c, 14, 35, 64
15, 756720, Note_on_c, 14, 36, 92
15, 756960, Note_off_c, 14, 36, 64
15, 756960, Note_on_c, 14, 38, 92
15, 757080, Note_off_c, 14, 38, 64
15, 757080, Note_on_c, 14, 36, 92
15, 757200, Note_off_c, 14, 36, 64
15, 757200, Note_on_c, 14, 35, 92
15, 757440, Note_off_c, 14, 35, 64
15, 757440, Note_on_c, 14, 36, 92
15, 757560, Note_off_c, 14, 36, 64
15, 757560, Note_on_c, 14, 38, 92
15, 757675, Note_off_c, 14, 38, 64
15, 757680, Note_on_c, 14, 40, 92
15, 757920, Note_off_c, 14, 40, 64
15, 757920, Note_on_c, 14, 38, 92
15, 758040, Note_off_c, 14, 38, 64
15, 758040, Note_on_c, 14, 40, 92
15, 758155, Note_off_c, 14, 40, 64
15, 758160, Note_on_c, 14, 41, 92
15, 758400, Note_off_c, 14, 41, 64
15, 758400, Note_on_c, 14, 43, 92
15, 758520, Note_off_c, 14, 43, 64
15, 758520, Note_on_c, 14, 45, 92
15, 758635, Note_off_c, 14, 45, 64
15, 758640, Note_on_c, 14, 43, 92
15, 758880, Note_off_c, 14, 43, 64
15, 758880, Note_on_c, 14, 45, 92
15, 759000, Note_off_c, 14, 45, 64
15, 759000, Note_on_c, 14, 42, 92
15, 759115, Note_off_c, 14, 42, 64
15, 759120, Note_on_c, 14, 43, 92
15, 759355, Note_off_c, 14, 43, 64
15, 759360, Note_on_c, 14, 31, 92
15, 759595, Note_off_c, 14, 31, 64
15, 759600, Note_on_c, 14, 36, 92
15, 759840, Note_off_c, 14, 36, 64
15, 759840, Note_on_c, 14, 38, 92
15, 759960, Note_off_c, 14, 38, 64
15, 759960, Note_on_c, 14, 36, 92
15, 760075, Note_off_c, 14, 36, 64
15, 760080, Note_on_c, 14, 31, 92
15, 760320, Note_off_c, 14, 31, 64
15, 760320, Note_on_c, 14, 33, 92
15, 760440, Note_off_c, 14, 33, 64
15, 760440, Note_on_c, 14, 34, 92
15, 760555, Note_off_c, 14, 34, 64
15, 760560, Note_on_c, 14, 36, 92
15, 760800, Note_off_c, 14, 36, 64
15, 760800, Note_on_c, 14, 38, 92
15, 760920, Note_off_c, 14, 38, 64
15, 760920, Note_on_c, 14, 36, 92
15, 761035, Note_off_c, 14, 36, 64
15, 761040, Note_on_c, 14, 35, 92
15, 761280, Note_off_c, 14, 35, 64
15, 761280, Note_on_c, 14, 36, 92
15, 761400, Note_off_c, 14, 36, 64
15, 761400, Note_on_c, 14, 38, 92
15, 761515, Note_off_c, 14, 38, 64
15, 761520, Note_on_c, 14, 40, 92
15, 761760, Note_off_c, 14, 40, 64
15, 761760, Note_on_c, 14, 38, 92
15, 761880, Note_off_c, 14, 38, 64
15, 761880, Note_on_c, 14, 40, 92
15, 761995, Note_off_c, 14, 40, 64
15, 762000, Note_on_c, 14, 41, 92
15, 762240, Note_off_c, 14, 41, 64
15, 762240, Note_on_c, 14, 43, 92
15, 762360, Note_off_c, 14, 43, 64
15, 762360, Note_on_c, 14, 45, 92
15, 762475, Note_off_c, 14, 45, 64
15, 762480, Note_on_c, 14, 43, 92
15, 762720, Note_off_c, 14, 43, 64
15, 762720, Note_on_c, 14, 45, 92
15, 762840, Note_off_c, 14, 45, 64
15, 762840, Note_on_c, 14, 42, 92
15, 762955, Note_off_c, 14, 42, 64
15, 762960, Note_on_c, 14, 43, 92
15, 763195, Note_off_c, 14, 43, 64
15, 763200, Note_on_c, 14, 31, 92
15, 763435, Note_off_c, 14, 31, 64
15, 763440, Note_on_c, 14, 36, 92
15, 763520, Note_off_c, 14, 36, 64
15, 763680, Note_on_c, 14, 38, 92
15, 763795, Note_off_c, 14, 38, 64
15, 763800, Note_on_c, 14, 36, 92
15, 763915, Note_off_c, 14, 36, 64
15, 763920, Note_on_c, 14, 31, 92
15, 764155, Note_off_c, 14, 31, 64
15, 764160, Note_on_c, 14, 33, 92
15, 764275, Note_off_c, 14, 33, 64
15, 764280, Note_on_c, 14, 35, 92
15, 764395, Note_off_c, 14, 35, 64
15, 764400, Note_on_c, 14, 36, 92
15, 764480, Note_off_c, 14, 36, 64
15, 764640, Note_on_c, 14, 38, 92
15, 764755, Note_off_c, 14, 38, 64
15, 764760, Note_on_c, 14, 36, 92
15, 764875, Note_off_c, 14, 36, 64
15, 764880, Note_on_c, 14, 35, 92
15, 765115, Note_off_c, 14, 35, 64
15, 765120, Note_on_c, 14, 36, 92
15, 765235, Note_off_c, 14, 36, 64
15, 765240, Note_on_c, 14, 38, 92
15, 765355, Note_off_c, 14, 38, 64
15, 765360, Note_on_c, 14, 40, 92
15, 765440, Note_off_c, 14, 40, 64
15, 765600, Note_on_c, 14, 41, 92
15, 765715, Note_off_c, 14, 41, 64
15, 765720, Note_on_c, 14, 40, 92
15, 765835, Note_off_c, 14, 40, 64
15, 765840, Note_on_c, 14, 38, 92
15, 766075, Note_off_c, 14, 38, 64
15, 766080, Note_on_c, 14, 40, 92
15, 766195, Note_off_c, 14, 40, 64
15, 766200, Note_on_c, 14, 41, 92
15, 766315, Note_off_c, 14, 41, 64
15, 766320, Note_on_c, 14, 43, 92
15, 766400, Note_off_c, 14, 43, 64
15, 766560, Note_on_c, 14, 45, 92
15, 766675, Note_off_c, 14, 45, 64
15, 766680, Note_on_c, 14, 41, 92
15, 766795, Note_off_c, 14, 41, 64
15, 766800, Note_on_c, 14, 43, 92
15, 767035, Note_off_c, 14, 43, 64
15, 767040, Note_on_c, 14, 45, 92
15, 767155, Note_off_c, 14, 45, 64
15, 767160, Note_on_c, 14, 47, 92
15, 767275, Note_off_c, 14, 47, 64
15, 767280, Note_on_c, 14, 48, 92
15, 767360, Note_off_c, 14, 48, 64
15, 767520, Note_on_c, 14, 50, 92
15, 767635, Note_off_c, 14, 50, 64
15, 767640, Note_on_c, 14, 47, 92
15, 767755, Note_off_c, 14, 47, 64
15, 767760, Note_on_c, 14, 48, 92
15, 767995, Note_off_c, 14, 48, 64
15, 768000, Note_on_c, 14, 50, 92
15, 768115, Note_off_c, 14, 50, 64
15, 768120, Note_on_c, 14, 47, 92
15, 768235, Note_off_c, 14, 47, 64
15, 768240, Note_on_c, 14, 48, 92
15, 768320, Note_off_c, 14, 48, 64
15, 768480, Note_on_c, 14, 50, 92
15, 768595, Note_off_c, 14, 50, 64
15, 768600, Note_on_c, 14, 47, 92
15, 768715, Note_off_c, 14, 47, 64
15, 768720, Note_on_c, 14, 48, 92
15, 768955, Note_off_c, 14, 48, 64
15, 768960, Note_on_c, 14, 50, 92
15, 769075, Note_off_c, 14, 50, 64
15, 769080, Note_on_c, 14, 47, 92
15, 769195, Note_off_c, 14, 47, 64
15, 769200, Note_on_c, 14, 48, 92
15, 769435, Note_off_c, 14, 48, 64
15, 770160, Note_on_c, 14, 36, 92
15, 770395, Note_off_c, 14, 36, 64
15, 778320, Note_on_c, 14, 43, 60
15, 778440, Note_off_c, 14, 43, 64
15, 778800, Note_on_c, 14, 45, 60
15, 778920, Note_off_c, 14, 45, 64
15, 779280, Note_on_c, 14, 41, 60
15, 779400, Note_off_c, 14, 41, 64
15, 779760, Note_on_c, 14, 43, 60
15, 779880, Note_off_c, 14, 43, 64
15, 780240, Note_on_c, 14, 41, 60
15, 780360, Note_off_c, 14, 41, 64
15, 780720, Note_on_c, 14, 38, 60
15, 780840, Note_off_c, 14, 38, 64
15, 781200, Note_on_c, 14, 40, 60
15, 781320, Note_off_c, 14, 40, 64
15, 781680, Note_on_c, 14, 38, 60
15, 781800, Note_off_c, 14, 38, 64
15, 782160, Note_on_c, 14, 33, 60
15, 782280, Note_off_c, 14, 33, 64
15, 782640, Note_on_c, 14, 33, 60
15, 782760, Note_off_c, 14, 33, 64
15, 783120, Note_on_c, 14, 33, 60
15, 783240, Note_off_c, 14, 33, 64
15, 784080, Note_on_c, 14, 33, 60
15, 784480, Note_off_c, 14, 33, 64
15, 784560, Note_on_c, 14, 38, 60
15, 784960, Note_off_c, 14, 38, 64
15, 786000, Note_on_c, 14, 38, 60
15, 786400, Note_off_c, 14, 38, 64
15, 787440, Note_on_c, 14, 38, 60
15, 787840, Note_off_c, 14, 38, 64
15, 788880, Note_on_c, 14, 38, 60
15, 789280, Note_off_c, 14, 38, 64
15, 790320, Note_on_c, 14, 38, 60
15, 790720, Note_off_c, 14, 38, 64
15, 791760, Note_on_c, 14, 38, 60
15, 792160, Note_off_c, 14, 38, 64
15, 793200, Note_on_c, 14, 38, 60
15, 793600, Note_off_c, 14, 38, 64
15, 794160, Note_on_c, 14, 33, 60
15, 794560, Note_off_c, 14, 33, 64
15, 794640, Note_on_c, 14, 38, 60
15, 795040, Note_off_c, 14, 38, 64
15, 801360, Note_on_c, 14, 43, 60
15, 801480, Note_off_c, 14, 43, 64
15, 801840, Note_on_c, 14, 45, 60
15, 801960, Note_off_c, 14, 45, 64
15, 802320, Note_on_c, 14, 41, 60
15, 802440, Note_off_c, 14, 41, 64
15, 802800, Note_on_c, 14, 43, 60
15, 802920, Note_off_c, 14, 43, 64
15, 803280, Note_on_c, 14, 41, 60
15, 803400, Note_off_c, 14, 41, 64
15, 803760, Note_on_c, 14, 38, 60
15, 803880, Note_off_c, 14, 38, 64
15, 804240, Note_on_c, 14, 40, 60
15, 804360, Note_off_c, 14, 40, 64
15, 804720, Note_on_c, 14, 38, 60
15, 804840, Note_off_c, 14, 38, 64
15, 805200, Note_on_c, 14, 33, 60
15, 805320, Note_off_c, 14, 33, 64
15, 805680, Note_on_c, 14, 33, 60
15, 805800, Note_off_c, 14, 33, 64
15, 806160, Note_on_c, 14, 33, 60
15, 806280, Note_off_c, 14, 33, 64
15, 807120, Note_on_c, 14, 33, 60
15, 807520, Note_off_c, 14, 33, 64
15, 807600, Note_on_c, 14, 38, 60
15, 808000, Note_off_c, 14, 38, 64
15, 809040, Note_on_c, 14, 38, 60
15, 809440, Note_off_c, 14, 38, 64
15, 810480, Note_on_c, 14, 38, 60
15, 810880, Note_off_c, 14, 38, 64
15, 811920, Note_on_c, 14, 38, 60
15, 812320, Note_off_c, 14, 38, 64
15, 813360, Note_on_c, 14, 38, 60
15, 813760, Note_off_c, 14, 38, 64
15, 814800, Note_on_c, 14, 38, 60
15, 815200, Note_off_c, 14, 38, 64
15, 816240, Note_on_c, 14, 38, 60
15, 816640, Note_off_c, 14, 38, 64
15, 817200, Note_on_c, 14, 33, 60
15, 817600, Note_off_c, 14, 33, 64
15, 817680, Note_on_c, 14, 38, 60
15, 818080, Note_off_c, 14, 38, 64
15, 828240, Note_on_c, 14, 31, 60
15, 828360, Note_off_c, 14, 31, 64
15, 828720, Note_on_c, 14, 33, 60
15, 828840, Note_off_c, 14, 33, 64
15, 829200, Note_on_c, 14, 35, 60
15, 829320, Note_off_c, 14, 35, 64
15, 829680, Note_on_c, 14, 31, 60
15, 829800, Note_off_c, 14, 31, 64
15, 830160, Note_on_c, 14, 31, 60
15, 830560, Note_off_c, 14, 31, 64
15, 830640, Note_on_c, 14, 36, 60
15, 831040, Note_off_c, 14, 36, 64
15, 832080, Note_on_c, 14, 36, 60
15, 832480, Note_off_c, 14, 36, 64
15, 833520, Note_on_c, 14, 36, 60
15, 833920, Note_off_c, 14, 36, 64
15, 834960, Note_on_c, 14, 36, 60
15, 835360, Note_off_c, 14, 36, 64
15, 836400, Note_on_c, 14, 36, 60
15, 836800, Note_off_c, 14, 36, 64
15, 837840, Note_on_c, 14, 36, 60
15, 838240, Note_off_c, 14, 36, 64
15, 839280, Note_on_c, 14, 36, 60
15, 839680, Note_off_c, 14, 36, 64
15, 840240, Note_on_c, 14, 31, 60
15, 840640, Note_off_c, 14, 31, 64
15, 840720, Note_on_c, 14, 36, 60
15, 841120, Note_off_c, 14, 36, 64
15, 841680, Note_on_c, 14, 36, 66
15, 842160, Note_off_c, 14, 36, 64
15, 842160, Note_on_c, 14, 48, 69
15, 842640, Note_off_c, 14, 48, 64
15, 842640, Note_on_c, 14, 45, 72
15, 843120, Note_off_c, 14, 45, 64
15, 843120, Note_on_c, 14, 46, 75
15, 843600, Note_off_c, 14, 46, 64
15, 843600, Note_on_c, 14, 45, 78
15, 844080, Note_off_c, 14, 45, 64
15, 844080, Note_on_c, 14, 41, 81
15, 844560, Note_off_c, 14, 41, 64
15, 844560, Note_on_c, 14, 43, 84
15, 845040, Note_off_c, 14, 43, 64
15, 845040, Note_on_c, 14, 41, 88
15, 845520, Note_off_c, 14, 41, 64
15, 845520, Note_on_c, 14, 36, 92
15, 846000, Note_off_c, 14, 36, 64
15, 846000, Note_on_c, 14, 43, 96
15, 846480, Note_off_c, 14, 43, 64
15, 846480, Note_on_c, 14, 45, 100
15, 846960, Note_off_c, 14, 45, 64
15, 846960, Note_on_c, 14, 41, 104
15, 847360, Note_off_c, 14, 41, 64
15, 847440, Note_on_c, 14, 36, 127
15, 847560, Note_off_c, 14, 36, 64
15, 847920, Note_on_c, 14, 41, 127
15, 848040, Note_off_c, 14, 41, 64
15, 848400, Note_on_c, 14, 36, 108
15, 848520, Note_off_c, 14, 36, 64
15, 848880, Note_on_c, 14, 38, 108
15, 849000, Note_off_c, 14, 38, 64
15, 849360, Note_on_c, 14, 36, 108
15, 849480, Note_off_c, 14, 36, 64
15, 849840, Note_on_c, 14, 33, 108
15, 849960, Note_off_c, 14, 33, 64
15, 850320, Note_on_c, 14, 34, 108
15, 850440, Note_off_c, 14, 34, 64
15, 850800, Note_on_c, 14, 33, 108
15, 850920, Note_off_c, 14, 33, 64
15, 851280, Note_on_c, 14, 29, 108
15, 851400, Note_off_c, 14, 29, 64
15, 851760, Note_on_c, 14, 31, 108
15, 851880, Note_off_c, 14, 31, 64
15, 852240, Note_on_c, 14, 33, 108
15, 852360, Note_off_c, 14, 33, 64
15, 852720, Note_on_c, 14, 29, 108
15, 852840, Note_off_c, 14, 29, 64
15, 853200, Note_on_c, 14, 31, 108
15, 853320, Note_off_c, 14, 31, 64
15, 853680, Note_on_c, 14, 33, 108
15, 853800, Note_off_c, 14, 33, 64
15, 854160, Note_on_c, 14, 29, 108
15, 854280, Note_off_c, 14, 29, 64
15, 854640, Note_on_c, 14, 31, 108
15, 854760, Note_off_c, 14, 31, 64
15, 855120, Note_on_c, 14, 33, 108
15, 855240, Note_off_c, 14, 33, 64
15, 855600, Note_on_c, 14, 29, 108
15, 855720, Note_off_c, 14, 29, 64
15, 856080, Note_on_c, 14, 31, 108
15, 856200, Note_off_c, 14, 31, 64
15, 856560, Note_on_c, 14, 33, 108
15, 857880, Note_off_c, 14, 33, 64
15, 858000, Note_on_c, 14, 31, 108
15, 858840, Note_off_c, 14, 31, 64
15, 858960, Note_on_c, 14, 41, 108
15, 859360, Note_off_c, 14, 41, 64
15, 859440, Note_on_c, 14, 40, 108
15, 860280, Note_off_c, 14, 40, 64
15, 860400, Note_on_c, 14, 38, 108
15, 860800, Note_off_c, 14, 38, 64
15, 860880, Note_on_c, 14, 36, 108
15, 861720, Note_off_c, 14, 36, 64
15, 861840, Note_on_c, 14, 34, 108
15, 862240, Note_off_c, 14, 34, 64
15, 862320, Note_on_c, 14, 33, 108
15, 863640, Note_off_c, 14, 33, 64
15, 863760, Note_on_c, 14, 34, 108
15, 865080, Note_off_c, 14, 34, 64
15, 865200, Note_on_c, 14, 36, 108
15, 866520, Note_off_c, 14, 36, 64
15, 866640, Note_on_c, 14, 36, 108
15, 867960, Note_off_c, 14, 36, 64
15, 868080, Note_on_c, 14, 41, 108
15, 868480, Note_off_c, 14, 41, 64
15, 869040, Note_on_c, 14, 45, 108
15, 869440, Note_off_c, 14, 45, 64
15, 869520, Note_on_c, 14, 43, 108
15, 870360, Note_off_c, 14, 43, 64
15, 870480, Note_on_c, 14, 41, 108
15, 870880, Note_off_c, 14, 41, 64
15, 870960, Note_on_c, 14, 40, 108
15, 871800, Note_off_c, 14, 40, 64
15, 871920, Note_on_c, 14, 38, 108
15, 872320, Note_off_c, 14, 38, 64
15, 872400, Note_on_c, 14, 36, 108
15, 873240, Note_off_c, 14, 36, 64
15, 873360, Note_on_c, 14, 34, 108
15, 873760, Note_off_c, 14, 34, 64
15, 873840, Note_on_c, 14, 33, 108
15, 875160, Note_off_c, 14, 33, 64
15, 875280, Note_on_c, 14, 34, 108
15, 876600, Note_off_c, 14, 34, 64
15, 876720, Note_on_c, 14, 36, 108
15, 878040, Note_off_c, 14, 36, 64
15, 878160, Note_on_c, 14, 36, 108
15, 879480, Note_off_c, 14, 36, 64
15, 879600, Note_on_c, 14, 41, 92
15, 880000, Note_off_c, 14, 41, 64
15, 883920, Note_on_c, 14, 36, 92
15, 884320, Note_off_c, 14, 36, 64
15, 884400, Note_on_c, 14, 36, 92
15, 884800, Note_off_c, 14, 36, 64
15, 884880, Note_on_c, 14, 36, 92
15, 885280, Note_off_c, 14, 36, 64
15, 885360, Note_on_c, 14, 29, 92
15, 885760, Note_off_c, 14, 29, 64
15, 889680, Note_on_c, 14, 36, 92
15, 890080, Note_off_c, 14, 36, 64
15, 890160, Note_on_c, 14, 36, 92
15, 890560, Note_off_c, 14, 36, 64
15, 890640, Note_on_c, 14, 36, 92
15, 891040, Note_off_c, 14, 36, 64
15, 891120, Note_on_c, 14, 29, 92
15, 891520, Note_off_c, 14, 29, 64
15, 894000, Note_on_c, 14, 29, 92
15, 894400, Note_off_c, 14, 29, 64
15, 955920, Program_c, 14, 43
15, 955920, Note_on_c, 14, 43, 45
15, 957240, Note_off_c, 14, 43, 64
15, 957360, Note_on_c, 14, 36, 55
15, 958680, Note_off_c, 14, 36, 64
15, 958800, Note_on_c, 14, 31, 65
15, 960120, Note_off_c, 14, 31, 64
15, 960240, Note_on_c, 14, 36, 75
15, 961560, Note_off_c, 14, 36, 64
15, 961680, Note_on_c, 14, 36, 75
15, 963000, Note_off_c, 14, 36, 64
15, 963120, Note_on_c, 14, 29, 75
15, 963520, Note_off_c, 14, 29, 64
15, 986160, Program_c, 14, 48
15, 986160, Note_on_c, 14, 29, 45
15, 991800, Note_off_c, 14, 29, 64
15, 991920, Note_on_c, 14, 41, 75
15, 992880, Note_off_c, 14, 41, 64
15, 992880, Note_on_c, 14, 46, 75
15, 993360, Note_off_c, 14, 46, 64
15, 993360, Note_on_c, 14, 48, 75
15, 993840, Note_off_c, 14, 48, 64
15, 993840, Note_on_c, 14, 45, 75
15, 994320, Note_off_c, 14, 45, 64
15, 994320, Note_on_c, 14, 46, 75
15, 994720, Note_off_c, 14, 46, 64
15, 994800, Note_on_c, 14, 43, 75
15, 995760, Note_off_c, 14, 43, 64
15, 995760, Note_on_c, 14, 45, 75
15, 996240, Note_off_c, 14, 45, 64
15, 996240, Note_on_c, 14, 46, 75
15, 996720, Note_off_c, 14, 46, 64
15, 996720, Note_on_c, 14, 43, 75
15, 997200, Note_off_c, 14, 43, 64
15, 997200, Note_on_c, 14, 45, 75
15, 997600, Note_off_c, 14, 45, 64
15, 997680, Note_on_c, 14, 41, 75
15, 998640, Note_off_c, 14, 41, 64
15, 998640, Note_on_c, 14, 34, 77
15, 999120, Note_off_c, 14, 34, 64
15, 999120, Note_on_c, 14, 36, 78
15, 999600, Note_off_c, 14, 36, 64
15, 999600, Note_on_c, 14, 33, 79
15, 1000080, Note_off_c, 14, 33, 64
15, 1000080, Note_on_c, 14, 34, 80
15, 1000480, Note_off_c, 14, 34, 64
15, 1000560, Note_on_c, 14, 31, 81
15, 1001520, Note_off_c, 14, 31, 64
15, 1001520, Note_on_c, 14, 33, 84
15, 1002000, Note_off_c, 14, 33, 64
15, 1002000, Note_on_c, 14, 34, 86
15, 1002480, Note_off_c, 14, 34, 64
15, 1002480, Note_on_c, 14, 31, 88
15, 1002960, Note_off_c, 14, 31, 64
15, 1002960, Note_on_c, 14, 33, 90
15, 1003360, Note_off_c, 14, 33, 64
15, 1003440, Note_on_c, 14, 29, 92
15, 1003560, Note_off_c, 14, 29, 64
15, 1004400, Note_on_c, 14, 34, 92
15, 1004520, Note_off_c, 14, 34, 64
15, 1004880, Note_on_c, 14, 36, 92
15, 1005000, Note_off_c, 14, 36, 64
15, 1005360, Note_on_c, 14, 33, 92
15, 1005480, Note_off_c, 14, 33, 64
15, 1005840, Note_on_c, 14, 34, 92
15, 1005960, Note_off_c, 14, 34, 64
15, 1006320, Note_on_c, 14, 34, 92
15, 1006440, Note_off_c, 14, 34, 64
15, 1006800, Note_on_c, 14, 31, 92
15, 1006920, Note_off_c, 14, 31, 64
15, 1007280, Note_on_c, 14, 33, 92
15, 1007400, Note_off_c, 14, 33, 64
15, 1007760, Note_on_c, 14, 33, 92
15, 1007880, Note_off_c, 14, 33, 64
15, 1008240, Note_on_c, 14, 29, 92
15, 1008360, Note_off_c, 14, 29, 64
15, 1008720, Note_on_c, 14, 31, 92
15, 1008840, Note_off_c, 14, 31, 64
15, 1009200, Note_on_c, 14, 29, 108
15, 1010040, Note_off_c, 14, 29, 64
15, 1010160, Note_on_c, 14, 29, 108
15, 1011000, Note_off_c, 14, 29, 64
15, 1011120, Note_on_c, 14, 34, 108
15, 1011960, Note_off_c, 14, 34, 64
15, 1012080, Note_on_c, 14, 29, 108
15, 1012560, Note_off_c, 14, 29, 64
15, 1012560, Note_on_c, 14, 34, 108
15, 1012960, Note_off_c, 14, 34, 64
15, 1013040, Note_on_c, 14, 29, 108
15, 1013880, Note_off_c, 14, 29, 64
15, 1014000, Note_on_c, 14, 29, 108
15, 1014840, Note_off_c, 14, 29, 64
15, 1014960, Note_on_c, 14, 34, 108
15, 1015800, Note_off_c, 14, 34, 64
15, 1015920, Note_on_c, 14, 29, 108
15, 1016400, Note_off_c, 14, 29, 64
15, 1016400, Note_on_c, 14, 34, 108
15, 1016800, Note_off_c, 14, 34, 64
15, 1016880, Note_on_c, 14, 29, 108
15, 1017720, Note_off_c, 14, 29, 64
15, 1017840, Note_on_c, 14, 29, 108
15, 1018680, Note_off_c, 14, 29, 64
15, 1018800, Note_on_c, 14, 34, 108
15, 1019640, Note_off_c, 14, 34, 64
15, 1019760, Note_on_c, 14, 29, 108
15, 1020240, Note_off_c, 14, 29, 64
15, 1020240, Note_on_c, 14, 34, 108
15, 1020640, Note_off_c, 14, 34, 64
15, 1020720, Note_on_c, 14, 29, 108
15, 1021560, Note_off_c, 14, 29, 64
15, 1021680, Note_on_c, 14, 29, 108
15, 1022520, Note_off_c, 14, 29, 64
15, 1022640, Note_on_c, 14, 34, 108
15, 1023480, Note_off_c, 14, 34, 64
15, 1023600, Note_on_c, 14, 29, 108
15, 1024080, Note_off_c, 14, 29, 64
15, 1024080, Note_on_c, 14, 34, 108
15, 1024480, Note_off_c, 14, 34, 64
15, 1026480, Note_on_c, 14, 41, 92
15, 1027320, Note_off_c, 14, 41, 64
15, 1027440, Note_on_c, 14, 36, 92
15, 1027920, Note_off_c, 14, 36, 64
15, 1027920, Note_on_c, 14, 29, 92
15, 1028320, Note_off_c, 14, 29, 64
15, 1030320, Note_on_c, 14, 41, 92
15, 1031160, Note_off_c, 14, 41, 64
15, 1031280, Note_on_c, 14, 36, 92
15, 1031760, Note_off_c, 14, 36, 64
15, 1031760, Note_on_c, 14, 29, 92
15, 1032160, Note_off_c, 14, 29, 64
15, 1032240, Note_on_c, 14, 36, 92
15, 1032480, Note_off_c, 14, 36, 64
15, 1032480, Note_on_c, 14, 38, 92
15, 1032600, Note_off_c, 14, 38, 64
15, 1032600, Note_on_c, 14, 36, 92
15, 1032720, Note_off_c, 14, 36, 64
15, 1032720, Note_on_c, 14, 31, 92
15, 1032960, Note_off_c, 14, 31, 64
15, 1032960, Note_on_c, 14, 33, 92
15, 1033080, Note_off_c, 14, 33, 64
15, 1033080, Note_on_c, 14, 35, 92
15, 1033195, Note_off_c, 14, 35, 64
15, 1033200, Note_on_c, 14, 36, 92
15, 1033440, Note_off_c, 14, 36, 64
15, 1033440, Note_on_c, 14, 38, 92
15, 1033560, Note_off_c, 14, 38, 64
15, 1033560, Note_on_c, 14, 36, 92
15, 1033680, Note_off_c, 14, 36, 64
15, 1033680, Note_on_c, 14, 35, 92
15, 1033920, Note_off_c, 14, 35, 64
15, 1033920, Note_on_c, 14, 36, 92
15, 1034040, Note_off_c, 14, 36, 64
15, 1034040, Note_on_c, 14, 38, 92
15, 1034155, Note_off_c, 14, 38, 64
15, 1034160, Note_on_c, 14, 40, 92
15, 1034400, Note_off_c, 14, 40, 64
15, 1034400, Note_on_c, 14, 38, 92
15, 1034520, Note_off_c, 14, 38, 64
15, 1034520, Note_on_c, 14, 40, 92
15, 1034635, Note_off_c, 14, 40, 64
15, 1034640, Note_on_c, 14, 41, 92
15, 1034880, Note_off_c, 14, 41, 64
15, 1034880, Note_on_c, 14, 43, 92
15, 1035000, Note_off_c, 14, 43, 64
15, 1035000, Note_on_c, 14, 45, 92
15, 1035115, Note_off_c, 14, 45, 64
15, 1035120, Note_on_c, 14, 43, 92
15, 1035360, Note_off_c, 14, 43, 64
15, 1035360, Note_on_c, 14, 45, 92
15, 1035480, Note_off_c, 14, 45, 64
15, 1035480, Note_on_c, 14, 42, 92
15, 1035595, Note_off_c, 14, 42, 64
15, 1035600, Note_on_c, 14, 43, 92
15, 1035835, Note_off_c, 14, 43, 64
15, 1035840, Note_on_c, 14, 31, 92
15, 1036075, Note_off_c, 14, 31, 64
15, 1036080, Note_on_c, 14, 36, 92
15, 1036320, Note_off_c, 14, 36, 64
15, 1036320, Note_on_c, 14, 38, 92
15, 1036440, Note_off_c, 14, 38, 64
15, 1036440, Note_on_c, 14, 36, 92
15, 1036555, Note_off_c, 14, 36, 64
15, 1036560, Note_on_c, 14, 31, 92
15, 1036800, Note_off_c, 14, 31, 64
15, 1036800, Note_on_c, 14, 33, 92
15, 1036920, Note_off_c, 14, 33, 64
15, 1036920, Note_on_c, 14, 34, 92
15, 1037035, Note_off_c, 14, 34, 64
15, 1037040, Note_on_c, 14, 36, 92
15, 1037280, Note_off_c, 14, 36, 64
15, 1037280, Note_on_c, 14, 38, 92
15, 1037400, Note_off_c, 14, 38, 64
15, 1037400, Note_on_c, 14, 36, 92
15, 1037515, Note_off_c, 14, 36, 64
15, 1037520, Note_on_c, 14, 35, 92
15, 1037760, Note_off_c, 14, 35, 64
15, 1037760, Note_on_c, 14, 36, 92
15, 1037880, Note_off_c, 14, 36, 64
15, 1037880, Note_on_c, 14, 38, 92
15, 1037995, Note_off_c, 14, 38, 64
15, 1038000, Note_on_c, 14, 40, 92
15, 1038240, Note_off_c, 14, 40, 64
15, 1038240, Note_on_c, 14, 38, 92
15, 1038360, Note_off_c, 14, 38, 64
15, 1038360, Note_on_c, 14, 40, 92
15, 1038475, Note_off_c, 14, 40, 64
15, 1038480, Note_on_c, 14, 41, 92
15, 1038720, Note_off_c, 14, 41, 64
15, 1038720, Note_on_c, 14, 43, 92
15, 1038840, Note_off_c, 14, 43, 64
15, 1038840, Note_on_c, 14, 45, 92
15, 1038955, Note_off_c, 14, 45, 64
15, 1038960, Note_on_c, 14, 43, 92
15, 1039200, Note_off_c, 14, 43, 64
15, 1039200, Note_on_c, 14, 45, 92
15, 1039320, Note_off_c, 14, 45, 64
15, 1039320, Note_on_c, 14, 42, 92
15, 1039435, Note_off_c, 14, 42, 64
15, 1039440, Note_on_c, 14, 43, 92
15, 1039675, Note_off_c, 14, 43, 64
15, 1039680, Note_on_c, 14, 31, 92
15, 1039915, Note_off_c, 14, 31, 64
15, 1039920, Note_on_c, 14, 36, 92
15, 1040000, Note_off_c, 14, 36, 64
15, 1040160, Note_on_c, 14, 38, 92
15, 1040275, Note_off_c, 14, 38, 64
15, 1040280, Note_on_c, 14, 36, 92
15, 1040395, Note_off_c, 14, 36, 64
15, 1040400, Note_on_c, 14, 31, 92
15, 1040635, Note_off_c, 14, 31, 64
15, 1040640, Note_on_c, 14, 33, 92
15, 1040755, Note_off_c, 14, 33, 64
15, 1040760, Note_on_c, 14, 35, 92
15, 1040875, Note_off_c, 14, 35, 64
15, 1040880, Note_on_c, 14, 36, 92
15, 1040960, Note_off_c, 14, 36, 64
15, 1041120, Note_on_c, 14, 38, 92
15, 1041235, Note_off_c, 14, 38, 64
15, 1041240, Note_on_c, 14, 36, 92
15, 1041355, Note_off_c, 14, 36, 64
15, 1041360, Note_on_c, 14, 35, 92
15, 1041595, Note_off_c, 14, 35, 64
15, 1041600, Note_on_c, 14, 36, 92
15, 1041715, Note_off_c, 14, 36, 64
15, 1041720, Note_on_c, 14, 38, 92
15, 1041835, Note_off_c, 14, 38, 64
15, 1041840, Note_on_c, 14, 40, 92
15, 1041920, Note_off_c, 14, 40, 64
15, 1042080, Note_on_c, 14, 41, 92
15, 1042195, Note_off_c, 14, 41, 64
15, 1042200, Note_on_c, 14, 40, 92
15, 1042315, Note_off_c, 14, 40, 64
15, 1042320, Note_on_c, 14, 38, 92
15, 1042555, Note_off_c, 14, 38, 64
15, 1042560, Note_on_c, 14, 40, 92
15, 1042675, Note_off_c, 14, 40, 64
15, 1042680, Note_on_c, 14, 41, 92
15, 1042795, Note_off_c, 14, 41, 64
15, 1042800, Note_on_c, 14, 43, 92
15, 1042880, Note_off_c, 14, 43, 64
15, 1043040, Note_on_c, 14, 45, 92
15, 1043155, Note_off_c, 14, 45, 64
15, 1043160, Note_on_c, 14, 41, 92
15, 1043275, Note_off_c, 14, 41, 64
15, 1043280, Note_on_c, 14, 43, 92
15, 1043515, Note_off_c, 14, 43, 64
15, 1043520, Note_on_c, 14, 45, 92
15, 1043635, Note_off_c, 14, 45, 64
15, 1043640, Note_on_c, 14, 47, 92
15, 1043755, Note_off_c, 14, 47, 64
15, 1043760, Note_on_c, 14, 48, 92
15, 1043840, Note_off_c, 14, 48, 64
15, 1044000, Note_on_c, 14, 50, 92
15, 1044115, Note_off_c, 14, 50, 64
15, 1044120, Note_on_c, 14, 47, 92
15, 1044235, Note_off_c, 14, 47, 64
15, 1044240, Note_on_c, 14, 48, 92
15, 1044475, Note_off_c, 14, 48, 64
15, 1044480, Note_on_c, 14, 50, 92
15, 1044595, Note_off_c, 14, 50, 64
15, 1044600, Note_on_c, 14, 47, 92
15, 1044715, Note_off_c, 14, 47, 64
15, 1044720, Note_on_c, 14, 48, 92
15, 1044800, Note_off_c, 14, 48, 64
15, 1044960, Note_on_c, 14, 50, 92
15, 1045075, Note_off_c, 14, 50, 64
15, 1045080, Note_on_c, 14, 47, 92
15, 1045195, Note_off_c, 14, 47, 64
15, 1045200, Note_on_c, 14, 48, 92
15, 1045435, Note_off_c, 14, 48, 64
15, 1045440, Note_on_c, 14, 50, 92
15, 1045555, Note_off_c, 14, 50, 64
15, 1045560, Note_on_c, 14, 47, 92
15, 1045675, Note_off_c, 14, 47, 64
15, 1045680, Note_on_c, 14, 48, 92
15, 1045915, Note_off_c, 14, 48, 64
15, 1046640, Note_on_c, 14, 36, 92
15, 1046875, Note_off_c, 14, 36, 64
15, 1054800, Note_on_c, 14, 43, 45
15, 1054920, Note_off_c, 14, 43, 64
15, 1055280, Note_on_c, 14, 45, 45
15, 1055400, Note_off_c, 14, 45, 64
15, 1055760, Note_on_c, 14, 41, 45
15, 1055880, Note_off_c, 14, 41, 64
15, 1056240, Note_on_c, 14, 43, 45
15, 1056360, Note_off_c, 14, 43, 64
15, 1056720, Note_on_c, 14, 41, 45
15, 1056840, Note_off_c, 14, 41, 64
15, 1057200, Note_on_c, 14, 38, 45
15, 1057320, Note_off_c, 14, 38, 64
15, 1057680, Note_on_c, 14, 40, 45
15, 1057800, Note_off_c, 14, 40, 64
15, 1058160, Note_on_c, 14, 38, 45
15, 1058280, Note_off_c, 14, 38, 64
15, 1058640, Note_on_c, 14, 33, 45
15, 1058760, Note_off_c, 14, 33, 64
15, 1059120, Note_on_c, 14, 33, 45
15, 1059240, Note_off_c, 14, 33, 64
15, 1059600, Note_on_c, 14, 33, 45
15, 1059720, Note_off_c, 14, 33, 64
15, 1060560, Note_on_c, 14, 33, 45
15, 1060960, Note_off_c, 14, 33, 64
15, 1061040, Note_on_c, 14, 38, 45
15, 1061440, Note_off_c, 14, 38, 64
15, 1062480, Note_on_c, 14, 38, 45
15, 1062880, Note_off_c, 14, 38, 64
15, 1069200, Note_on_c, 14, 34, 92
15, 1069680, Note_off_c, 14, 34, 64
15, 1069680, Note_on_c, 14, 36, 92
15, 1070080, Note_off_c, 14, 36, 64
15, 1073040, Note_on_c, 14, 36, 45
15, 1073760, Note_off_c, 14, 36, 64
15, 1076880, Program_c, 14, 32
15, 1076880, Note_on_c, 14, 29, 30
15, 1077280, Note_off_c, 14, 29, 64
15, 1078320, Note_on_c, 14, 29, 30
15, 1078720, Note_off_c, 14, 29, 64
15, 1079760, Note_on_c, 14, 29, 30
15, 1080160, Note_off_c, 14, 29, 64
15, 1081200, Note_on_c, 14, 29, 30
15, 1081600, Note_off_c, 14, 29, 64
15, 1082640, Note_on_c, 14, 29, 30
15, 1083040, Note_off_c, 14, 29, 64
15, 1084080, Note_on_c, 14, 29, 30
15, 1084480, Note_off_c, 14, 29, 64
15, 1085520, Note_on_c, 14, 29, 30
15, 1085920, Note_off_c, 14, 29, 64
15, 1086960, Note_on_c, 14, 29, 30
15, 1087360, Note_off_c, 14, 29, 64
15, 1087920, Program_c, 14, 48
15, 1087920, Note_on_c, 14, 36, 60
15, 1088400, Note_off_c, 14, 36, 64
15, 1088400, Note_on_c, 14, 41, 60
15, 1088880, Note_off_c, 14, 41, 64
15, 1088880, Note_on_c, 14, 36, 62
15, 1089360, Note_off_c, 14, 36, 64
15, 1089360, Note_on_c, 14, 38, 65
15, 1089840, Note_off_c, 14, 38, 64
15, 1089840, Note_on_c, 14, 36, 68
15, 1090320, Note_off_c, 14, 36, 64
15, 1090320, Note_on_c, 14, 33, 71
15, 1090800, Note_off_c, 14, 33, 64
15, 1090800, Note_on_c, 14, 34, 74
15, 1091280, Note_off_c, 14, 34, 64
15, 1091280, Note_on_c, 14, 33, 77
15, 1091760, Note_off_c, 14, 33, 64
15, 1091760, Note_on_c, 14, 41, 80
15, 1092240, Note_off_c, 14, 41, 64
15, 1092240, Note_on_c, 14, 43, 83
15, 1092720, Note_off_c, 14, 43, 64
15, 1092720, Note_on_c, 14, 45, 86
15, 1093200, Note_off_c, 14, 45, 64
15, 1093200, Note_on_c, 14, 41, 89
15, 1093600, Note_off_c, 14, 41, 64
15, 1093680, Note_on_c, 14, 36, 92
15, 1093800, Note_off_c, 14, 36, 64
15, 1094160, Note_on_c, 14, 41, 92
15, 1094280, Note_off_c, 14, 41, 64
15, 1094640, Note_on_c, 14, 36, 92
15, 1094760, Note_off_c, 14, 36, 64
15, 1095120, Note_on_c, 14, 38, 92
15, 1095240, Note_off_c, 14, 38, 64
15, 1095600, Note_on_c, 14, 36, 92
15, 1095720, Note_off_c, 14, 36, 64
15, 1096080, Note_on_c, 14, 33, 92
15, 1096200, Note_off_c, 14, 33, 64
15, 1096560, Note_on_c, 14, 34, 92
15, 1096680, Note_off_c, 14, 34, 64
15, 1097040, Note_on_c, 14, 33, 92
15, 1097160, Note_off_c, 14, 33, 64
15, 1097520, Note_on_c, 14, 29, 92
15, 1097640, Note_off_c, 14, 29, 64
15, 1098000, Note_on_c, 14, 31, 92
15, 1098120, Note_off_c, 14, 31, 64
15, 1098480, Note_on_c, 14, 33, 92
15, 1098880, Note_off_c, 14, 33, 64
15, 1098960, Note_on_c, 14, 29, 92
15, 1099360, Note_off_c, 14, 29, 64
15, 1099440, Note_on_c, 14, 31, 92
15, 1099840, Note_off_c, 14, 31, 64
15, 1099920, Note_on_c, 14, 33, 92
15, 1100320, Note_off_c, 14, 33, 64
15, 1100400, Note_on_c, 14, 29, 92
15, 1100800, Note_off_c, 14, 29, 64
15, 1100880, Note_on_c, 14, 31, 92
15, 1101280, Note_off_c, 14, 31, 64
15, 1101360, Note_on_c, 14, 33, 92
15, 1101760, Note_off_c, 14, 33, 64
15, 1101840, Note_on_c, 14, 29, 92
15, 1102240, Note_off_c, 14, 29, 64
15, 1102320, Note_on_c, 14, 31, 92
15, 1102720, Note_off_c, 14, 31, 64
15, 1102800, Note_on_c, 14, 33, 92
15, 1104120, Note_off_c, 14, 33, 64
15, 1104240, Note_on_c, 14, 43, 92
15, 1105080, Note_off_c, 14, 43, 64
15, 1105200, Note_on_c, 14, 41, 92
15, 1105600, Note_off_c, 14, 41, 64
15, 1105680, Note_on_c, 14, 40, 92
15, 1106520, Note_off_c, 14, 40, 64
15, 1106640, Note_on_c, 14, 38, 92
15, 1107040, Note_off_c, 14, 38, 64
15, 1107120, Note_on_c, 14, 36, 92
15, 1107960, Note_off_c, 14, 36, 64
15, 1108080, Note_on_c, 14, 34, 92
15, 1108480, Note_off_c, 14, 34, 64
15, 1108560, Note_on_c, 14, 33, 92
15, 1109880, Note_off_c, 14, 33, 64
15, 1110000, Note_on_c, 14, 34, 92
15, 1111320, Note_off_c, 14, 34, 64
15, 1111440, Note_on_c, 14, 36, 92
15, 1112760, Note_off_c, 14, 36, 64
15, 1112880, Note_on_c, 14, 36, 92
15, 1114200, Note_off_c, 14, 36, 64
15, 1114320, Note_on_c, 14, 41, 92
15, 1114720, Note_off_c, 14, 41, 64
15, 1115280, Note_on_c, 14, 45, 92
15, 1115680, Note_off_c, 14, 45, 64
15, 1115760, Note_on_c, 14, 43, 92
15, 1116600, Note_off_c, 14, 43, 64
15, 1116720, Note_on_c, 14, 41, 92
15, 1117120, Note_off_c, 14, 41, 64
15, 1117200, Note_on_c, 14, 40, 92
15, 1118040, Note_off_c, 14, 40, 64
15, 1118160, Note_on_c, 14, 38, 92
15, 1118560, Note_off_c, 14, 38, 64
15, 1118640, Note_on_c, 14, 36, 92
15, 1119480, Note_off_c, 14, 36, 64
15, 1119600, Note_on_c, 14, 34, 92
15, 1120000, Note_off_c, 14, 34, 64
15, 1120080, Note_on_c, 14, 33, 92
15, 1121400, Note_off_c, 14, 33, 64
15, 1121520, Note_on_c, 14, 34, 92
15, 1122840, Note_off_c, 14, 34, 64
15, 1122960, Note_on_c, 14, 36, 92
15, 1124280, Note_off_c, 14, 36, 64
15, 1124400, Note_on_c, 14, 36, 92
15, 1125720, Note_off_c, 14, 36, 64
15, 1125840, Note_on_c, 14, 41, 108
15, 1126240, Note_off_c, 14, 41, 64
15, 1130160, Note_on_c, 14, 36, 108
15, 1130560, Note_off_c, 14, 36, 64
15, 1130640, Note_on_c, 14, 36, 108
15, 1131040, Note_off_c, 14, 36, 64
15, 1131120, Note_on_c, 14, 36, 108
15, 1131520, Note_off_c, 14, 36, 64
15, 1131600, Note_on_c, 14, 41, 108
15, 1132000, Note_off_c, 14, 41, 64
15, 1135920, Note_on_c, 14, 36, 108
15, 1136320, Note_off_c, 14, 36, 64
15, 1136400, Note_on_c, 14, 36, 108
15, 1136800, Note_off_c, 14, 36, 64
15, 1136880, Note_on_c, 14, 36, 108
15, 1137280, Note_off_c, 14, 36, 64
15, 1137360, Note_on_c, 14, 37, 30
15, 1137475, Note_off_c, 14, 37, 64
15, 1137480, Note_on_c, 14, 37, 30
15, 1137595, Note_off_c, 14, 37, 64
15, 1137600, Note_on_c, 14, 37, 30
15, 1137715, Note_off_c, 14, 37, 64
15, 1137720, Note_on_c, 14, 37, 30
15, 1137835, Note_off_c, 14, 37, 64
15, 1137840, Note_on_c, 14, 37, 30
15, 1137955, Note_off_c, 14, 37, 64
15, 1137960, Note_on_c, 14, 37, 30
15, 1138075, Note_off_c, 14, 37, 64
15, 1138080, Note_on_c, 14, 37, 30
15, 1138195, Note_off_c, 14, 37, 64
15, 1138200, Note_on_c, 14, 37, 30
15, 1138315, Note_off_c, 14, 37, 64
15, 1138320, Note_on_c, 14, 37, 30
15, 1138435, Note_off_c, 14, 37, 64
15, 1138440, Note_on_c, 14, 37, 30
15, 1138555, Note_off_c, 14, 37, 64
15, 1138560, Note_on_c, 14, 37, 30
15, 1138675, Note_off_c, 14, 37, 64
15, 1138680, Note_on_c, 14, 37, 30
15, 1138795, Note_off_c, 14, 37, 64
15, 1138800, Note_on_c, 14, 37, 30
15, 1138915, Note_off_c, 14, 37, 64
15, 1138920, Note_on_c, 14, 37, 30
15, 1139035, Note_off_c, 14, 37, 64
15, 1139040, Note_on_c, 14, 37, 30
15, 1139155, Note_off_c, 14, 37, 64
15, 1139160, Note_on_c, 14, 37, 30
15, 1139275, Note_off_c, 14, 37, 64
15, 1139280, Note_on_c, 14, 37, 30
15, 1139395, Note_off_c, 14, 37, 64
15, 1139400, Note_on_c, 14, 37, 30
15, 1139515, Note_off_c, 14, 37, 64
15, 1139520, Note_on_c, 14, 37, 30
15, 1139635, Note_off_c, 14, 37, 64
15, 1139640, Note_on_c, 14, 37, 30
15, 1139755, Note_off_c, 14, 37, 64
15, 1139760, Note_on_c, 14, 37, 30
15, 1139875, Note_off_c, 14, 37, 64
15, 1139880, Note_on_c, 14, 37, 30
15, 1139995, Note_off_c, 14, 37, 64
15, 1140000, Note_on_c, 14, 37, 30
15, 1140115, Note_off_c, 14, 37, 64
15, 1140120, Note_on_c, 14, 37, 30
15, 1140235, Note_off_c, 14, 37, 64
15, 1140240, Note_on_c, 14, 37, 30
15, 1140355, Note_off_c, 14, 37, 64
15, 1140360, Note_on_c, 14, 37, 30
15, 1140475, Note_off_c, 14, 37, 64
15, 1140480, Note_on_c, 14, 37, 30
15, 1140595, Note_off_c, 14, 37, 64
15, 1140600, Note_on_c, 14, 37, 30
15, 1140715, Note_off_c, 14, 37, 64
15, 1140720, Note_on_c, 14, 37, 30
15, 1140835, Note_off_c, 14, 37, 64
15, 1140840, Note_on_c, 14, 37, 30
15, 1140955, Note_off_c, 14, 37, 64
15, 1140960, Note_on_c, 14, 37, 30
15, 1141075, Note_off_c, 14, 37, 64
15, 1141080, Note_on_c, 14, 37, 30
15, 1141195, Note_off_c, 14, 37, 64
15, 1141200, Note_on_c, 14, 37, 30
15, 1141600, Note_off_c, 14, 37, 64
15, 1150800, Note_on_c, 14, 38, 30
15, 1150915, Note_off_c, 14, 38, 64
15, 1150920, Note_on_c, 14, 38, 30
15, 1151035, Note_off_c, 14, 38, 64
15, 1151040, Note_on_c, 14, 38, 30
15, 1151155, Note_off_c, 14, 38, 64
15, 1151160, Note_on_c, 14, 38, 30
15, 1151275, Note_off_c, 14, 38, 64
15, 1151280, Note_on_c, 14, 38, 30
15, 1151395, Note_off_c, 14, 38, 64
15, 1151400, Note_on_c, 14, 38, 30
15, 1151515, Note_off_c, 14, 38, 64
15, 1151520, Note_on_c, 14, 38, 30
15, 1151635, Note_off_c, 14, 38, 64
15, 1151640, Note_on_c, 14, 38, 30
15, 1151755, Note_off_c, 14, 38, 64
15, 1151760, Note_on_c, 14, 38, 30
15, 1151875, Note_off_c, 14, 38, 64
15, 1151880, Note_on_c, 14, 38, 30
15, 1151995, Note_off_c, 14, 38, 64
15, 1152000, Note_on_c, 14, 38, 30
15, 1152115, Note_off_c, 14, 38, 64
15, 1152120, Note_on_c, 14, 38, 30
15, 1152235, Note_off_c, 14, 38, 64
15, 1152240, Note_on_c, 14, 38, 30
15, 1152355, Note_off_c, 14, 38, 64
15, 1152360, Note_on_c, 14, 38, 30
15, 1152475, Note_off_c, 14, 38, 64
15, 1152480, Note_on_c, 14, 38, 30
15, 1152595, Note_off_c, 14, 38, 64
15, 1152600, Note_on_c, 14, 38, 30
15, 1152715, Note_off_c, 14, 38, 64
15, 1152720, Note_on_c, 14, 38, 30
15, 1152835, Note_off_c, 14, 38, 64
15, 1152840, Note_on_c, 14, 38, 30
15, 1152955, Note_off_c, 14, 38, 64
15, 1152960, Note_on_c, 14, 38, 30
15, 1153075, Note_off_c, 14, 38, 64
15, 1153080, Note_on_c, 14, 38, 30
15, 1153195, Note_off_c, 14, 38, 64
15, 1153200, Note_on_c, 14, 38, 30
15, 1153315, Note_off_c, 14, 38, 64
15, 1153320, Note_on_c, 14, 38, 30
15, 1153435, Note_off_c, 14, 38, 64
15, 1153440, Note_on_c, 14, 38, 30
15, 1153555, Note_off_c, 14, 38, 64
15, 1153560, Note_on_c, 14, 38, 30
15, 1153675, Note_off_c, 14, 38, 64
15, 1153680, Note_on_c, 14, 38, 30
15, 1153795, Note_off_c, 14, 38, 64
15, 1153800, Note_on_c, 14, 38, 30
15, 1153915, Note_off_c, 14, 38, 64
15, 1153920, Note_on_c, 14, 38, 30
15, 1154035, Note_off_c, 14, 38, 64
15, 1154040, Note_on_c, 14, 38, 30
15, 1154155, Note_off_c, 14, 38, 64
15, 1154160, Note_on_c, 14, 38, 30
15, 1154275, Note_off_c, 14, 38, 64
15, 1154280, Note_on_c, 14, 38, 30
15, 1154395, Note_off_c, 14, 38, 64
15, 1154400, Note_on_c, 14, 38, 30
15, 1154515, Note_off_c, 14, 38, 64
15, 1154520, Note_on_c, 14, 38, 30
15, 1154635, Note_off_c, 14, 38, 64
15, 1154640, Note_on_c, 14, 38, 30
15, 1154755, Note_off_c, 14, 38, 64
15, 1154760, Note_on_c, 14, 38, 30
15, 1154875, Note_off_c, 14, 38, 64
15, 1154880, Note_on_c, 14, 38, 30
15, 1154995, Note_off_c, 14, 38, 64
15, 1155000, Note_on_c, 14, 38, 30
15, 1155115, Note_off_c, 14, 38, 64
15, 1155120, Note_on_c, 14, 38, 30
15, 1155235, Note_off_c, 14, 38, 64
15, 1155240, Note_on_c, 14, 38, 30
15, 1155355, Note_off_c, 14, 38, 64
15, 1155360, Note_on_c, 14, 38, 30
15, 1155475, Note_off_c, 14, 38, 64
15, 1155480, Note_on_c, 14, 38, 30
15, 1155595, Note_off_c, 14, 38, 64
15, 1155600, Note_on_c, 14, 38, 30
15, 1155715, Note_off_c, 14, 38, 64
15, 1155720, Note_on_c, 14, 38, 30
15, 1155835, Note_off_c, 14, 38, 64
15, 1155840, Note_on_c, 14, 38, 30
15, 1155955, Note_off_c, 14, 38, 64
15, 1155960, Note_on_c, 14, 38, 30
15, 1156075, Note_off_c, 14, 38, 64
15, 1156080, Note_on_c, 14, 38, 30
15, 1156195, Note_off_c, 14, 38, 64
15, 1156200, Note_on_c, 14, 38, 30
15, 1156315, Note_off_c, 14, 38, 64
15, 1156320, Note_on_c, 14, 38, 30
15, 1156435, Note_off_c, 14, 38, 64
15, 1156440, Note_on_c, 14, 38, 30
15, 1156555, Note_off_c, 14, 38, 64
15, 1156560, Note_on_c, 14, 38, 30
15, 1156675, Note_off_c, 14, 38, 64
15, 1156680, Note_on_c, 14, 38, 30
15, 1156795, Note_off_c, 14, 38, 64
15, 1156800, Note_on_c, 14, 38, 30
15, 1156915, Note_off_c, 14, 38, 64
15, 1156920, Note_on_c, 14, 38, 30
15, 1157035, Note_off_c, 14, 38, 64
15, 1157040, Note_on_c, 14, 38, 30
15, 1157155, Note_off_c, 14, 38, 64
15, 1157160, Note_on_c, 14, 38, 30
15, 1157275, Note_off_c, 14, 38, 64
15, 1157280, Note_on_c, 14, 38, 30
15, 1157395, Note_off_c, 14, 38, 64
15, 1157400, Note_on_c, 14, 38, 30
15, 1157515, Note_off_c, 14, 38, 64
15, 1157520, Note_on_c, 14, 38, 30
15, 1157635, Note_off_c, 14, 38, 64
15, 1157640, Note_on_c, 14, 38, 30
15, 1157755, Note_off_c, 14, 38, 64
15, 1157760, Note_on_c, 14, 38, 30
15, 1157875, Note_off_c, 14, 38, 64
15, 1157880, Note_on_c, 14, 38, 30
15, 1157995, Note_off_c, 14, 38, 64
15, 1158000, Note_on_c, 14, 38, 30
15, 1158115, Note_off_c, 14, 38, 64
15, 1158120, Note_on_c, 14, 38, 30
15, 1158235, Note_off_c, 14, 38, 64
15, 1158240, Note_on_c, 14, 38, 30
15, 1158355, Note_off_c, 14, 38, 64
15, 1158360, Note_on_c, 14, 38, 30
15, 1158475, Note_off_c, 14, 38, 64
15, 1158480, Note_on_c, 14, 39, 30
15, 1158595, Note_off_c, 14, 39, 64
15, 1158600, Note_on_c, 14, 39, 30
15, 1158715, Note_off_c, 14, 39, 64
15, 1158720, Note_on_c, 14, 39, 30
15, 1158835, Note_off_c, 14, 39, 64
15, 1158840, Note_on_c, 14, 39, 30
15, 1158955, Note_off_c, 14, 39, 64
15, 1158960, Note_on_c, 14, 39, 30
15, 1159075, Note_off_c, 14, 39, 64
15, 1159080, Note_on_c, 14, 39, 30
15, 1159195, Note_off_c, 14, 39, 64
15, 1159200, Note_on_c, 14, 39, 30
15, 1159315, Note_off_c, 14, 39, 64
15, 1159320, Note_on_c, 14, 39, 30
15, 1159435, Note_off_c, 14, 39, 64
15, 1159440, Note_on_c, 14, 39, 30
15, 1159555, Note_off_c, 14, 39, 64
15, 1159560, Note_on_c, 14, 39, 30
15, 1159675, Note_off_c, 14, 39, 64
15, 1159680, Note_on_c, 14, 39, 30
15, 1159795, Note_off_c, 14, 39, 64
15, 1159800, Note_on_c, 14, 39, 30
15, 1159915, Note_off_c, 14, 39, 64
15, 1159920, Note_on_c, 14, 39, 30
15, 1160035, Note_off_c, 14, 39, 64
15, 1160040, Note_on_c, 14, 39, 30
15, 1160155, Note_off_c, 14, 39, 64
15, 1160160, Note_on_c, 14, 39, 30
15, 1160275, Note_off_c, 14, 39, 64
15, 1160280, Note_on_c, 14, 39, 30
15, 1160395, Note_off_c, 14, 39, 64
15, 1160400, Note_on_c, 14, 39, 30
15, 1160515, Note_off_c, 14, 39, 64
15, 1160520, Note_on_c, 14, 39, 30
15, 1160635, Note_off_c, 14, 39, 64
15, 1160640, Note_on_c, 14, 39, 31
15, 1160755, Note_off_c, 14, 39, 64
15, 1160760, Note_on_c, 14, 39, 32
15, 1160875, Note_off_c, 14, 39, 64
15, 1160880, Note_on_c, 14, 39, 33
15, 1160995, Note_off_c, 14, 39, 64
15, 1161000, Note_on_c, 14, 39, 34
15, 1161115, Note_off_c, 14, 39, 64
15, 1161120, Note_on_c, 14, 39, 35
15, 1161235, Note_off_c, 14, 39, 64
15, 1161240, Note_on_c, 14, 39, 36
15, 1161355, Note_off_c, 14, 39, 64
15, 1161360, Note_on_c, 14, 39, 37
15, 1161475, Note_off_c, 14, 39, 64
15, 1161480, Note_on_c, 14, 39, 38
15, 1161595, Note_off_c, 14, 39, 64
15, 1161600, Note_on_c, 14, 39, 39
15, 1161715, Note_off_c, 14, 39, 64
15, 1161720, Note_on_c, 14, 39, 40
15, 1161835, Note_off_c, 14, 39, 64
15, 1161840, Note_on_c, 14, 39, 41
15, 1161955, Note_off_c, 14, 39, 64
15, 1161960, Note_on_c, 14, 39, 42
15, 1162075, Note_off_c, 14, 39, 64
15, 1162080, Note_on_c, 14, 39, 43
15, 1162195, Note_off_c, 14, 39, 64
15, 1162200, Note_on_c, 14, 39, 44
15, 1162315, Note_off_c, 14, 39, 64
15, 1162320, Note_on_c, 14, 39, 45
15, 1162720, Note_off_c, 14, 39, 64
15, 1170000, Note_on_c, 14, 40, 45
15, 1170115, Note_off_c, 14, 40, 64
15, 1170120, Note_on_c, 14, 40, 45
15, 1170235, Note_off_c, 14, 40, 64
15, 1170240, Note_on_c, 14, 40, 45
15, 1170355, Note_off_c, 14, 40, 64
15, 1170360, Note_on_c, 14, 40, 45
15, 1170475, Note_off_c, 14, 40, 64
15, 1170480, Note_on_c, 14, 40, 45
15, 1170595, Note_off_c, 14, 40, 64
15, 1170600, Note_on_c, 14, 40, 45
15, 1170715, Note_off_c, 14, 40, 64
15, 1170720, Note_on_c, 14, 40, 45
15, 1170835, Note_off_c, 14, 40, 64
15, 1170840, Note_on_c, 14, 40, 45
15, 1170955, Note_off_c, 14, 40, 64
15, 1170960, Note_on_c, 14, 40, 45
15, 1171075, Note_off_c, 14, 40, 64
15, 1171080, Note_on_c, 14, 40, 45
15, 1171195, Note_off_c, 14, 40, 64
15, 1171200, Note_on_c, 14, 40, 45
15, 1171315, Note_off_c, 14, 40, 64
15, 1171320, Note_on_c, 14, 40, 45
15, 1171435, Note_off_c, 14, 40, 64
15, 1171440, Note_on_c, 14, 40, 45
15, 1171555, Note_off_c, 14, 40, 64
15, 1171560, Note_on_c, 14, 40, 45
15, 1171675, Note_off_c, 14, 40, 64
15, 1171680, Note_on_c, 14, 40, 45
15, 1171795, Note_off_c, 14, 40, 64
15, 1171800, Note_on_c, 14, 40, 45
15, 1171915, Note_off_c, 14, 40, 64
15, 1171920, Note_on_c, 14, 40, 45
15, 1172035, Note_off_c, 14, 40, 64
15, 1172040, Note_on_c, 14, 40, 45
15, 1172155, Note_off_c, 14, 40, 64
15, 1172160, Note_on_c, 14, 40, 45
15, 1172275, Note_off_c, 14, 40, 64
15, 1172280, Note_on_c, 14, 40, 45
15, 1172395, Note_off_c, 14, 40, 64
15, 1172400, Note_on_c, 14, 40, 45
15, 1172515, Note_off_c, 14, 40, 64
15, 1172520, Note_on_c, 14, 40, 45
15, 1172635, Note_off_c, 14, 40, 64
15, 1172640, Note_on_c, 14, 40, 45
15, 1172755, Note_off_c, 14, 40, 64
15, 1172760, Note_on_c, 14, 40, 45
15, 1172875, Note_off_c, 14, 40, 64
15, 1172880, Note_on_c, 14, 40, 45
15, 1172995, Note_off_c, 14, 40, 64
15, 1173000, Note_on_c, 14, 40, 45
15, 1173115, Note_off_c, 14, 40, 64
15, 1173120, Note_on_c, 14, 40, 45
15, 1173235, Note_off_c, 14, 40, 64
15, 1173240, Note_on_c, 14, 40, 45
15, 1173355, Note_off_c, 14, 40, 64
15, 1173360, Note_on_c, 14, 40, 45
15, 1173475, Note_off_c, 14, 40, 64
15, 1173480, Note_on_c, 14, 40, 45
15, 1173595, Note_off_c, 14, 40, 64
15, 1173600, Note_on_c, 14, 40, 45
15, 1173715, Note_off_c, 14, 40, 64
15, 1173720, Note_on_c, 14, 40, 45
15, 1173835, Note_off_c, 14, 40, 64
15, 1173840, Note_on_c, 14, 31, 45
15, 1173995, Note_off_c, 14, 31, 64
15, 1174000, Note_on_c, 14, 32, 47
15, 1174155, Note_off_c, 14, 32, 64
15, 1174160, Note_on_c, 14, 34, 49
15, 1174315, Note_off_c, 14, 34, 64
15, 1174320, Note_on_c, 14, 31, 51
15, 1174475, Note_off_c, 14, 31, 64
15, 1174480, Note_on_c, 14, 32, 53
15, 1174635, Note_off_c, 14, 32, 64
15, 1174640, Note_on_c, 14, 34, 55
15, 1174795, Note_off_c, 14, 34, 64
15, 1174800, Note_on_c, 14, 31, 57
15, 1174955, Note_off_c, 14, 31, 64
15, 1174960, Note_on_c, 14, 32, 59
15, 1175115, Note_off_c, 14, 32, 64
15, 1175120, Note_on_c, 14, 34, 61
15, 1175275, Note_off_c, 14, 34, 64
15, 1175280, Note_on_c, 14, 31, 63
15, 1175435, Note_off_c, 14, 31, 64
15, 1175440, Note_on_c, 14, 32, 66
15, 1175595, Note_off_c, 14, 32, 64
15, 1175600, Note_on_c, 14, 34, 69
15, 1175755, Note_off_c, 14, 34, 64
15, 1175760, Note_on_c, 14, 31, 72
15, 1175915, Note_off_c, 14, 31, 64
15, 1175920, Note_on_c, 14, 32, 75
15, 1176075, Note_off_c, 14, 32, 64
15, 1176080, Note_on_c, 14, 34, 78
15, 1176235, Note_off_c, 14, 34, 64
15, 1176240, Note_on_c, 14, 31, 81
15, 1176395, Note_off_c, 14, 31, 64
15, 1176400, Note_on_c, 14, 32, 84
15, 1176555, Note_off_c, 14, 32, 64
15, 1176560, Note_on_c, 14, 34, 87
15, 1176715, Note_off_c, 14, 34, 64
15, 1176720, Note_on_c, 14, 31, 90
15, 1176875, Note_off_c, 14, 31, 64
15, 1176880, Note_on_c, 14, 32, 93
15, 1177035, Note_off_c, 14, 32, 64
15, 1177040, Note_on_c, 14, 34, 96
15, 1177195, Note_off_c, 14, 34, 64
15, 1177200, Note_on_c, 14, 31, 99
15, 1177355, Note_off_c, 14, 31, 64
15, 1177360, Note_on_c, 14, 32, 102
15, 1177515, Note_off_c, 14, 32, 64
15, 1177520, Note_on_c, 14, 34, 105
15, 1177675, Note_off_c, 14, 34, 64
15, 1177680, Note_on_c, 14, 29, 108
15, 1177800, Note_off_c, 14, 29, 64
15, 1177800, Note_on_c, 14, 31, 108
15, 1177920, Note_off_c, 14, 31, 64
15, 1177920, Note_on_c, 14, 32, 108
15, 1178040, Note_off_c, 14, 32, 64
15, 1178040, Note_on_c, 14, 34, 108
15, 1178155, Note_off_c, 14, 34, 64
15, 1178160, Note_on_c, 14, 29, 108
15, 1178280, Note_off_c, 14, 29, 64
15, 1178280, Note_on_c, 14, 31, 108
15, 1178400, Note_off_c, 14, 31, 64
15, 1178400, Note_on_c, 14, 32, 108
15, 1178520, Note_off_c, 14, 32, 64
15, 1178520, Note_on_c, 14, 34, 108
15, 1178635, Note_off_c, 14, 34, 64
15, 1178640, Note_on_c, 14, 29, 108
15, 1178760, Note_off_c, 14, 29, 64
15, 1178760, Note_on_c, 14, 31, 108
15, 1178880, Note_off_c, 14, 31, 64
15, 1178880, Note_on_c, 14, 32, 108
15, 1179000, Note_off_c, 14, 32, 64
15, 1179000, Note_on_c, 14, 34, 108
15, 1179115, Note_off_c, 14, 34, 64
15, 1179120, Note_on_c, 14, 29, 108
15, 1179240, Note_off_c, 14, 29, 64
15, 1179240, Note_on_c, 14, 31, 108
15, 1179360, Note_off_c, 14, 31, 64
15, 1179360, Note_on_c, 14, 32, 108
15, 1179480, Note_off_c, 14, 32, 64
15, 1179480, Note_on_c, 14, 34, 108
15, 1179595, Note_off_c, 14, 34, 64
15, 1179600, Note_on_c, 14, 29, 108
15, 1179720, Note_off_c, 14, 29, 64
15, 1179720, Note_on_c, 14, 31, 108
15, 1179840, Note_off_c, 14, 31, 64
15, 1179840, Note_on_c, 14, 32, 108
15, 1179960, Note_off_c, 14, 32, 64
15, 1179960, Note_on_c, 14, 34, 108
15, 1180075, Note_off_c, 14, 34, 64
15, 1180080, Note_on_c, 14, 29, 108
15, 1180200, Note_off_c, 14, 29, 64
15, 1180200, Note_on_c, 14, 31, 108
15, 1180320, Note_off_c, 14, 31, 64
15, 1180320, Note_on_c, 14, 32, 108
15, 1180440, Note_off_c, 14, 32, 64
15, 1180440, Note_on_c, 14, 34, 108
15, 1180555, Note_off_c, 14, 34, 64
15, 1180560, Note_on_c, 14, 29, 108
15, 1180680, Note_off_c, 14, 29, 64
15, 1180680, Note_on_c, 14, 31, 108
15, 1180800, Note_off_c, 14, 31, 64
15, 1180800, Note_on_c, 14, 32, 108
15, 1180920, Note_off_c, 14, 32, 64
15, 1180920, Note_on_c, 14, 34, 108
15, 1181035, Note_off_c, 14, 34, 64
15, 1181040, Note_on_c, 14, 29, 108
15, 1181160, Note_off_c, 14, 29, 64
15, 1181160, Note_on_c, 14, 31, 108
15, 1181280, Note_off_c, 14, 31, 64
15, 1181280, Note_on_c, 14, 32, 108
15, 1181400, Note_off_c, 14, 32, 64
15, 1181400, Note_on_c, 14, 34, 108
15, 1181515, Note_off_c, 14, 34, 64
15, 1181520, Note_on_c, 14, 29, 108
15, 1181640, Note_off_c, 14, 29, 64
15, 1181640, Note_on_c, 14, 31, 108
15, 1181760, Note_off_c, 14, 31, 64
15, 1181760, Note_on_c, 14, 32, 108
15, 1181880, Note_off_c, 14, 32, 64
15, 1181880, Note_on_c, 14, 34, 108
15, 1181995, Note_off_c, 14, 34, 64
15, 1182000, Note_on_c, 14, 29, 108
15, 1182120, Note_off_c, 14, 29, 64
15, 1182120, Note_on_c, 14, 31, 108
15, 1182240, Note_off_c, 14, 31, 64
15, 1182240, Note_on_c, 14, 32, 108
15, 1182360, Note_off_c, 14, 32, 64
15, 1182360, Note_on_c, 14, 34, 108
15, 1182475, Note_off_c, 14, 34, 64
15, 1182480, Note_on_c, 14, 29, 108
15, 1182600, Note_off_c, 14, 29, 64
15, 1182600, Note_on_c, 14, 31, 108
15, 1182720, Note_off_c, 14, 31, 64
15, 1182720, Note_on_c, 14, 32, 108
15, 1182840, Note_off_c, 14, 32, 64
15, 1182840, Note_on_c, 14, 34, 108
15, 1182955, Note_off_c, 14, 34, 64
15, 1182960, Note_on_c, 14, 29, 108
15, 1183080, Note_off_c, 14, 29, 64
15, 1183080, Note_on_c, 14, 31, 108
15, 1183200, Note_off_c, 14, 31, 64
15, 1183200, Note_on_c, 14, 32, 108
15, 1183320, Note_off_c, 14, 32, 64
15, 1183320, Note_on_c, 14, 34, 108
15, 1183435, Note_off_c, 14, 34, 64
15, 1183440, Note_on_c, 14, 29, 108
15, 1183560, Note_off_c, 14, 29, 64
15, 1183560, Note_on_c, 14, 31, 108
15, 1183680, Note_off_c, 14, 31, 64
15, 1183680, Note_on_c, 14, 32, 108
15, 1183800, Note_off_c, 14, 32, 64
15, 1183800, Note_on_c, 14, 34, 108
15, 1183915, Note_off_c, 14, 34, 64
15, 1183920, Note_on_c, 14, 29, 108
15, 1184040, Note_off_c, 14, 29, 64
15, 1184040, Note_on_c, 14, 31, 108
15, 1184160, Note_off_c, 14, 31, 64
15, 1184160, Note_on_c, 14, 32, 108
15, 1184280, Note_off_c, 14, 32, 64
15, 1184280, Note_on_c, 14, 34, 108
15, 1184395, Note_off_c, 14, 34, 64
15, 1184400, Note_on_c, 14, 29, 108
15, 1184520, Note_off_c, 14, 29, 64
15, 1184520, Note_on_c, 14, 31, 108
15, 1184640, Note_off_c, 14, 31, 64
15, 1184640, Note_on_c, 14, 32, 108
15, 1184760, Note_off_c, 14, 32, 64
15, 1184760, Note_on_c, 14, 34, 108
15, 1184875, Note_off_c, 14, 34, 64
15, 1184880, Note_on_c, 14, 29, 108
15, 1185000, Note_off_c, 14, 29, 64
15, 1185000, Note_on_c, 14, 31, 108
15, 1185120, Note_off_c, 14, 31, 64
15, 1185120, Note_on_c, 14, 32, 108
15, 1185240, Note_off_c, 14, 32, 64
15, 1185240, Note_on_c, 14, 34, 108
15, 1185355, Note_off_c, 14, 34, 64
15, 1185360, Note_on_c, 14, 31, 108
15, 1185480, Note_off_c, 14, 31, 64
15, 1185480, Note_on_c, 14, 32, 108
15, 1185600, Note_off_c, 14, 32, 64
15, 1185600, Note_on_c, 14, 34, 108
15, 1185720, Note_off_c, 14, 34, 64
15, 1185720, Note_on_c, 14, 36, 108
15, 1185835, Note_off_c, 14, 36, 64
15, 1185840, Note_on_c, 14, 31, 108
15, 1185960, Note_off_c, 14, 31, 64
15, 1185960, Note_on_c, 14, 32, 108
15, 1186080, Note_off_c, 14, 32, 64
15, 1186080, Note_on_c, 14, 34, 108
15, 1186200, Note_off_c, 14, 34, 64
15, 1186200, Note_on_c, 14, 36, 108
15, 1186315, Note_off_c, 14, 36, 64
15, 1186320, Note_on_c, 14, 31, 108
15, 1186440, Note_off_c, 14, 31, 64
15, 1186440, Note_on_c, 14, 32, 108
15, 1186560, Note_off_c, 14, 32, 64
15, 1186560, Note_on_c, 14, 34, 108
15, 1186680, Note_off_c, 14, 34, 64
15, 1186680, Note_on_c, 14, 36, 108
15, 1186795, Note_off_c, 14, 36, 64
15, 1186800, Note_on_c, 14, 31, 108
15, 1186920, Note_off_c, 14, 31, 64
15, 1186920, Note_on_c, 14, 32, 108
15, 1187040, Note_off_c, 14, 32, 64
15, 1187040, Note_on_c, 14, 34, 108
15, 1187160, Note_off_c, 14, 34, 64
15, 1187160, Note_on_c, 14, 36, 108
15, 1187275, Note_off_c, 14, 36, 64
15, 1187280, Note_on_c, 14, 31, 108
15, 1187400, Note_off_c, 14, 31, 64
15, 1187400, Note_on_c, 14, 32, 108
15, 1187520, Note_off_c, 14, 32, 64
15, 1187520, Note_on_c, 14, 34, 108
15, 1187640, Note_off_c, 14, 34, 64
15, 1187640, Note_on_c, 14, 36, 108
15, 1187755, Note_off_c, 14, 36, 64
15, 1187760, Note_on_c, 14, 31, 108
15, 1187880, Note_off_c, 14, 31, 64
15, 1187880, Note_on_c, 14, 32, 108
15, 1188000, Note_off_c, 14, 32, 64
15, 1188000, Note_on_c, 14, 34, 108
15, 1188120, Note_off_c, 14, 34, 64
15, 1188120, Note_on_c, 14, 36, 108
15, 1188235, Note_off_c, 14, 36, 64
15, 1188240, Note_on_c, 14, 31, 108
15, 1188360, Note_off_c, 14, 31, 64
15, 1188360, Note_on_c, 14, 32, 108
15, 1188480, Note_off_c, 14, 32, 64
15, 1188480, Note_on_c, 14, 34, 108
15, 1188600, Note_off_c, 14, 34, 64
15, 1188600, Note_on_c, 14, 36, 108
15, 1188715, Note_off_c, 14, 36, 64
15, 1188720, Note_on_c, 14, 31, 108
15, 1188840, Note_off_c, 14, 31, 64
15, 1188840, Note_on_c, 14, 32, 108
15, 1188960, Note_off_c, 14, 32, 64
15, 1188960, Note_on_c, 14, 34, 108
15, 1189080, Note_off_c, 14, 34, 64
15, 1189080, Note_on_c, 14, 36, 108
15, 1189195, Note_off_c, 14, 36, 64
15, 1189200, Note_on_c, 14, 31, 108
15, 1189320, Note_off_c, 14, 31, 64
15, 1189320, Note_on_c, 14, 32, 108
15, 1189440, Note_off_c, 14, 32, 64
15, 1189440, Note_on_c, 14, 34, 108
15, 1189560, Note_off_c, 14, 34, 64
15, 1189560, Note_on_c, 14, 36, 108
15, 1189675, Note_off_c, 14, 36, 64
15, 1189680, Note_on_c, 14, 31, 108
15, 1189800, Note_off_c, 14, 31, 64
15, 1189800, Note_on_c, 14, 32, 108
15, 1189920, Note_off_c, 14, 32, 64
15, 1189920, Note_on_c, 14, 34, 108
15, 1190040, Note_off_c, 14, 34, 64
15, 1190040, Note_on_c, 14, 36, 108
15, 1190155, Note_off_c, 14, 36, 64
15, 1190160, Note_on_c, 14, 31, 108
15, 1190280, Note_off_c, 14, 31, 64
15, 1190280, Note_on_c, 14, 32, 108
15, 1190400, Note_off_c, 14, 32, 64
15, 1190400, Note_on_c, 14, 34, 108
15, 1190520, Note_off_c, 14, 34, 64
15, 1190520, Note_on_c, 14, 36, 108
15, 1190635, Note_off_c, 14, 36, 64
15, 1190640, Note_on_c, 14, 31, 108
15, 1190760, Note_off_c, 14, 31, 64
15, 1190760, Note_on_c, 14, 32, 108
15, 1190880, Note_off_c, 14, 32, 64
15, 1190880, Note_on_c, 14, 34, 108
15, 1191000, Note_off_c, 14, 34, 64
15, 1191000, Note_on_c, 14, 36, 108
15, 1191115, Note_off_c, 14, 36, 64
15, 1191120, Note_on_c, 14, 31, 108
15, 1191240, Note_off_c, 14, 31, 64
15, 1191240, Note_on_c, 14, 32, 108
15, 1191360, Note_off_c, 14, 32, 64
15, 1191360, Note_on_c, 14, 34, 108
15, 1191480, Note_off_c, 14, 34, 64
15, 1191480, Note_on_c, 14, 36, 108
15, 1191595, Note_off_c, 14, 36, 64
15, 1191600, Note_on_c, 14, 31, 108
15, 1191720, Note_off_c, 14, 31, 64
15, 1191720, Note_on_c, 14, 32, 108
15, 1191840, Note_off_c, 14, 32, 64
15, 1191840, Note_on_c, 14, 34, 108
15, 1191960, Note_off_c, 14, 34, 64
15, 1191960, Note_on_c, 14, 36, 108
15, 1192075, Note_off_c, 14, 36, 64
15, 1192080, Note_on_c, 14, 31, 108
15, 1192200, Note_off_c, 14, 31, 64
15, 1192200, Note_on_c, 14, 32, 108
15, 1192320, Note_off_c, 14, 32, 64
15, 1192320, Note_on_c, 14, 34, 108
15, 1192440, Note_off_c, 14, 34, 64
15, 1192440, Note_on_c, 14, 36, 108
15, 1192555, Note_off_c, 14, 36, 64
15, 1192560, Note_on_c, 14, 31, 108
15, 1192680, Note_off_c, 14, 31, 64
15, 1192680, Note_on_c, 14, 32, 108
15, 1192800, Note_off_c, 14, 32, 64
15, 1192800, Note_on_c, 14, 34, 108
15, 1192920, Note_off_c, 14, 34, 64
15, 1192920, Note_on_c, 14, 36, 108
15, 1193035, Note_off_c, 14, 36, 64
15, 1193040, Note_on_c, 14, 33, 108
15, 1193160, Note_off_c, 14, 33, 64
15, 1193160, Note_on_c, 14, 34, 108
15, 1193280, Note_off_c, 14, 34, 64
15, 1193280, Note_on_c, 14, 36, 108
15, 1193400, Note_off_c, 14, 36, 64
15, 1193400, Note_on_c, 14, 37, 108
15, 1193515, Note_off_c, 14, 37, 64
15, 1193520, Note_on_c, 14, 33, 108
15, 1193640, Note_off_c, 14, 33, 64
15, 1193640, Note_on_c, 14, 34, 108
15, 1193760, Note_off_c, 14, 34, 64
15, 1193760, Note_on_c, 14, 36, 108
15, 1193880, Note_off_c, 14, 36, 64
15, 1193880, Note_on_c, 14, 37, 108
15, 1193995, Note_off_c, 14, 37, 64
15, 1194000, Note_on_c, 14, 33, 108
15, 1194120, Note_off_c, 14, 33, 64
15, 1194120, Note_on_c, 14, 34, 108
15, 1194240, Note_off_c, 14, 34, 64
15, 1194240, Note_on_c, 14, 36, 108
15, 1194360, Note_off_c, 14, 36, 64
15, 1194360, Note_on_c, 14, 37, 108
15, 1194475, Note_off_c, 14, 37, 64
15, 1194480, Note_on_c, 14, 33, 108
15, 1194600, Note_off_c, 14, 33, 64
15, 1194600, Note_on_c, 14, 34, 108
15, 1194720, Note_off_c, 14, 34, 64
15, 1194720, Note_on_c, 14, 36, 108
15, 1194840, Note_off_c, 14, 36, 64
15, 1194840, Note_on_c, 14, 37, 108
15, 1194955, Note_off_c, 14, 37, 64
15, 1194960, Note_on_c, 14, 33, 108
15, 1195080, Note_off_c, 14, 33, 64
15, 1195080, Note_on_c, 14, 34, 108
15, 1195200, Note_off_c, 14, 34, 64
15, 1195200, Note_on_c, 14, 36, 108
15, 1195320, Note_off_c, 14, 36, 64
15, 1195320, Note_on_c, 14, 37, 108
15, 1195435, Note_off_c, 14, 37, 64
15, 1195440, Note_on_c, 14, 33, 108
15, 1195560, Note_off_c, 14, 33, 64
15, 1195560, Note_on_c, 14, 34, 108
15, 1195680, Note_off_c, 14, 34, 64
15, 1195680, Note_on_c, 14, 36, 108
15, 1195800, Note_off_c, 14, 36, 64
15, 1195800, Note_on_c, 14, 37, 108
15, 1195915, Note_off_c, 14, 37, 64
15, 1195920, Note_on_c, 14, 33, 108
15, 1196040, Note_off_c, 14, 33, 64
15, 1196040, Note_on_c, 14, 34, 108
15, 1196160, Note_off_c, 14, 34, 64
15, 1196160, Note_on_c, 14, 36, 108
15, 1196280, Note_off_c, 14, 36, 64
15, 1196280, Note_on_c, 14, 37, 108
15, 1196395, Note_off_c, 14, 37, 64
15, 1196400, Note_on_c, 14, 33, 108
15, 1196520, Note_off_c, 14, 33, 64
15, 1196520, Note_on_c, 14, 34, 108
15, 1196640, Note_off_c, 14, 34, 64
15, 1196640, Note_on_c, 14, 36, 108
15, 1196760, Note_off_c, 14, 36, 64
15, 1196760, Note_on_c, 14, 37, 108
15, 1196875, Note_off_c, 14, 37, 64
15, 1196880, Note_on_c, 14, 33, 108
15, 1197000, Note_off_c, 14, 33, 64
15, 1197000, Note_on_c, 14, 34, 108
15, 1197120, Note_off_c, 14, 34, 64
15, 1197120, Note_on_c, 14, 36, 108
15, 1197240, Note_off_c, 14, 36, 64
15, 1197240, Note_on_c, 14, 37, 108
15, 1197355, Note_off_c, 14, 37, 64
15, 1197360, Note_on_c, 14, 33, 108
15, 1197480, Note_off_c, 14, 33, 64
15, 1197480, Note_on_c, 14, 34, 108
15, 1197600, Note_off_c, 14, 34, 64
15, 1197600, Note_on_c, 14, 36, 108
15, 1197720, Note_off_c, 14, 36, 64
15, 1197720, Note_on_c, 14, 37, 108
15, 1197835, Note_off_c, 14, 37, 64
15, 1197840, Note_on_c, 14, 33, 108
15, 1197960, Note_off_c, 14, 33, 64
15, 1197960, Note_on_c, 14, 34, 108
15, 1198080, Note_off_c, 14, 34, 64
15, 1198080, Note_on_c, 14, 36, 108
15, 1198200, Note_off_c, 14, 36, 64
15, 1198200, Note_on_c, 14, 37, 108
15, 1198315, Note_off_c, 14, 37, 64
15, 1198320, Note_on_c, 14, 33, 108
15, 1198440, Note_off_c, 14, 33, 64
15, 1198440, Note_on_c, 14, 34, 108
15, 1198560, Note_off_c, 14, 34, 64
15, 1198560, Note_on_c, 14, 36, 108
15, 1198680, Note_off_c, 14, 36, 64
15, 1198680, Note_on_c, 14, 37, 108
15, 1198795, Note_off_c, 14, 37, 64
15, 1198800, Note_on_c, 14, 33, 108
15, 1198920, Note_off_c, 14, 33, 64
15, 1198920, Note_on_c, 14, 34, 108
15, 1199040, Note_off_c, 14, 34, 64
15, 1199040, Note_on_c, 14, 36, 108
15, 1199160, Note_off_c, 14, 36, 64
15, 1199160, Note_on_c, 14, 37, 108
15, 1199275, Note_off_c, 14, 37, 64
15, 1199280, Note_on_c, 14, 33, 108
15, 1199400, Note_off_c, 14, 33, 64
15, 1199400, Note_on_c, 14, 34, 108
15, 1199520, Note_off_c, 14, 34, 64
15, 1199520, Note_on_c, 14, 36, 108
15, 1199640, Note_off_c, 14, 36, 64
15, 1199640, Note_on_c, 14, 37, 108
15, 1199755, Note_off_c, 14, 37, 64
15, 1199760, Note_on_c, 14, 33, 108
15, 1199880, Note_off_c, 14, 33, 64
15, 1199880, Note_on_c, 14, 34, 108
15, 1200000, Note_off_c, 14, 34, 64
15, 1200000, Note_on_c, 14, 36, 108
15, 1200120, Note_off_c, 14, 36, 64
15, 1200120, Note_on_c, 14, 37, 108
15, 1200235, Note_off_c, 14, 37, 64
15, 1200240, Note_on_c, 14, 33, 108
15, 1200360, Note_off_c, 14, 33, 64
15, 1200360, Note_on_c, 14, 34, 108
15, 1200480, Note_off_c, 14, 34, 64
15, 1200480, Note_on_c, 14, 36, 108
15, 1200600, Note_off_c, 14, 36, 64
15, 1200600, Note_on_c, 14, 37, 108
15, 1200715, Note_off_c, 14, 37, 64
15, 1200720, Note_on_c, 14, 34, 127
15, 1200835, Note_off_c, 14, 34, 64
15, 1200840, Note_on_c, 14, 34, 108
15, 1200955, Note_off_c, 14, 34, 64
15, 1200960, Note_on_c, 14, 34, 108
15, 1201075, Note_off_c, 14, 34, 64
15, 1201080, Note_on_c, 14, 34, 108
15, 1201195, Note_off_c, 14, 34, 64
15, 1201200, Note_on_c, 14, 34, 108
15, 1201315, Note_off_c, 14, 34, 64
15, 1201320, Note_on_c, 14, 34, 108
15, 1201435, Note_off_c, 14, 34, 64
15, 1201440, Note_on_c, 14, 34, 108
15, 1201555, Note_off_c, 14, 34, 64
15, 1201560, Note_on_c, 14, 34, 108
15, 1201675, Note_off_c, 14, 34, 64
15, 1201680, Note_on_c, 14, 34, 108
15, 1201795, Note_off_c, 14, 34, 64
15, 1201800, Note_on_c, 14, 34, 108
15, 1201915, Note_off_c, 14, 34, 64
15, 1201920, Note_on_c, 14, 34, 108
15, 1202035, Note_off_c, 14, 34, 64
15, 1202040, Note_on_c, 14, 34, 108
15, 1202155, Note_off_c, 14, 34, 64
15, 1202160, Note_on_c, 14, 34, 108
15, 1202275, Note_off_c, 14, 34, 64
15, 1202280, Note_on_c, 14, 34, 108
15, 1202395, Note_off_c, 14, 34, 64
15, 1202400, Note_on_c, 14, 34, 108
15, 1202515, Note_off_c, 14, 34, 64
15, 1202520, Note_on_c, 14, 34, 108
15, 1202635, Note_off_c, 14, 34, 64
15, 1202640, Note_on_c, 14, 35, 108
15, 1202755, Note_off_c, 14, 35, 64
15, 1202760, Note_on_c, 14, 35, 108
15, 1202875, Note_off_c, 14, 35, 64
15, 1202880, Note_on_c, 14, 35, 108
15, 1202995, Note_off_c, 14, 35, 64
15, 1203000, Note_on_c, 14, 35, 108
15, 1203115, Note_off_c, 14, 35, 64
15, 1203120, Note_on_c, 14, 35, 108
15, 1203235, Note_off_c, 14, 35, 64
15, 1203240, Note_on_c, 14, 35, 108
15, 1203355, Note_off_c, 14, 35, 64
15, 1203360, Note_on_c, 14, 35, 108
15, 1203475, Note_off_c, 14, 35, 64
15, 1203480, Note_on_c, 14, 35, 108
15, 1203595, Note_off_c, 14, 35, 64
15, 1203600, Note_on_c, 14, 35, 108
15, 1203715, Note_off_c, 14, 35, 64
15, 1203720, Note_on_c, 14, 35, 108
15, 1203835, Note_off_c, 14, 35, 64
15, 1203840, Note_on_c, 14, 35, 108
15, 1203955, Note_off_c, 14, 35, 64
15, 1203960, Note_on_c, 14, 35, 108
15, 1204075, Note_off_c, 14, 35, 64
15, 1204080, Note_on_c, 14, 35, 108
15, 1204195, Note_off_c, 14, 35, 64
15, 1204200, Note_on_c, 14, 35, 108
15, 1204315, Note_off_c, 14, 35, 64
15, 1204320, Note_on_c, 14, 35, 108
15, 1204435, Note_off_c, 14, 35, 64
15, 1204440, Note_on_c, 14, 35, 108
15, 1204555, Note_off_c, 14, 35, 64
15, 1204560, Note_on_c, 14, 36, 108
15, 1204960, Note_off_c, 14, 36, 64
15, 1205520, Note_on_c, 14, 48, 108
15, 1206160, Note_off_c, 14, 48, 64
15, 1206240, Note_on_c, 14, 43, 108
15, 1206320, Note_off_c, 14, 43, 64
15, 1206480, Note_on_c, 14, 44, 108
15, 1206560, Note_off_c, 14, 44, 64
15, 1206720, Note_on_c, 14, 40, 108
15, 1206800, Note_off_c, 14, 40, 64
15, 1206960, Note_on_c, 14, 41, 108
15, 1207040, Note_off_c, 14, 41, 64
15, 1207200, Note_on_c, 14, 36, 108
15, 1207280, Note_off_c, 14, 36, 64
15, 1207440, Note_on_c, 14, 37, 108
15, 1207520, Note_off_c, 14, 37, 64
15, 1207680, Note_on_c, 14, 36, 108
15, 1207760, Note_off_c, 14, 36, 64
15, 1207920, Note_on_c, 14, 36, 108
15, 1208000, Note_off_c, 14, 36, 64
15, 1208160, Note_on_c, 14, 34, 108
15, 1208240, Note_off_c, 14, 34, 64
15, 1208400, Note_on_c, 14, 32, 108
15, 1208800, Note_off_c, 14, 32, 64
15, 1209360, Note_on_c, 14, 44, 108
15, 1210000, Note_off_c, 14, 44, 64
15, 1210080, Note_on_c, 14, 40, 108
15, 1210160, Note_off_c, 14, 40, 64
15, 1210320, Note_on_c, 14, 41, 108
15, 1210400, Note_off_c, 14, 41, 64
15, 1210560, Note_on_c, 14, 36, 108
15, 1210640, Note_off_c, 14, 36, 64
15, 1210800, Note_on_c, 14, 37, 108
15, 1210880, Note_off_c, 14, 37, 64
15, 1211040, Note_on_c, 14, 32, 108
15, 1211120, Note_off_c, 14, 32, 64
15, 1211280, Note_on_c, 14, 34, 108
15, 1211360, Note_off_c, 14, 34, 64
15, 1211520, Note_on_c, 14, 32, 108
15, 1211600, Note_off_c, 14, 32, 64
15, 1211760, Note_on_c, 14, 32, 108
15, 1211840, Note_off_c, 14, 32, 64
15, 1212000, Note_on_c, 14, 31, 108
15, 1212080, Note_off_c, 14, 31, 64
15, 1212240, Note_on_c, 14, 29, 108
15, 1212640, Note_off_c, 14, 29, 64
15, 1213200, Note_on_c, 14, 53, 108
15, 1213840, Note_off_c, 14, 53, 64
15, 1213920, Note_on_c, 14, 48, 108
15, 1214000, Note_off_c, 14, 48, 64
15, 1214160, Note_on_c, 14, 49, 108
15, 1214240, Note_off_c, 14, 49, 64
15, 1214400, Note_on_c, 14, 44, 108
15, 1214480, Note_off_c, 14, 44, 64
15, 1214640, Note_on_c, 14, 46, 108
15, 1214720, Note_off_c, 14, 46, 64
15, 1214880, Note_on_c, 14, 41, 108
15, 1214960, Note_off_c, 14, 41, 64
15, 1215120, Note_on_c, 14, 42, 108
15, 1215200, Note_off_c, 14, 42, 64
15, 1215360, Note_on_c, 14, 41, 108
15, 1215440, Note_off_c, 14, 41, 64
15, 1215600, Note_on_c, 14, 41, 108
15, 1215680, Note_off_c, 14, 41, 64
15, 1215840, Note_on_c, 14, 39, 108
15, 1215920, Note_off_c, 14, 39, 64
15, 1216080, Note_on_c, 14, 37, 30
15, 1216195, Note_off_c, 14, 37, 64
15, 1216200, Note_on_c, 14, 36, 30
15, 1216315, Note_off_c, 14, 36, 64
15, 1216320, Note_on_c, 14, 37, 30
15, 1216435, Note_off_c, 14, 37, 64
15, 1216440, Note_on_c, 14, 39, 30
15, 1216555, Note_off_c, 14, 39, 64
15, 1216560, Note_on_c, 14, 41, 30
15, 1216675, Note_off_c, 14, 41, 64
15, 1216680, Note_on_c, 14, 39, 30
15, 1216795, Note_off_c, 14, 39, 64
15, 1216800, Note_on_c, 14, 41, 30
15, 1216915, Note_off_c, 14, 41, 64
15, 1216920, Note_on_c, 14, 42, 30
15, 1217035, Note_off_c, 14, 42, 64
15, 1217040, Note_on_c, 14, 44, 30
15, 1217155, Note_off_c, 14, 44, 64
15, 1217160, Note_on_c, 14, 46, 30
15, 1217275, Note_off_c, 14, 46, 64
15, 1217280, Note_on_c, 14, 44, 30
15, 1217395, Note_off_c, 14, 44, 64
15, 1217400, Note_on_c, 14, 42, 30
15, 1217515, Note_off_c, 14, 42, 64
15, 1217520, Note_on_c, 14, 41, 30
15, 1217635, Note_off_c, 14, 41, 64
15, 1217640, Note_on_c, 14, 39, 30
15, 1217755, Note_off_c, 14, 39, 64
15, 1217760, Note_on_c, 14, 41, 30
15, 1217875, Note_off_c, 14, 41, 64
15, 1217880, Note_on_c, 14, 42, 30
15, 1217995, Note_off_c, 14, 42, 64
15, 1218000, Note_on_c, 14, 44, 30
15, 1218115, Note_off_c, 14, 44, 64
15, 1218120, Note_on_c, 14, 46, 30
15, 1218235, Note_off_c, 14, 46, 64
15, 1218240, Note_on_c, 14, 44, 30
15, 1218355, Note_off_c, 14, 44, 64
15, 1218360, Note_on_c, 14, 42, 30
15, 1218475, Note_off_c, 14, 42, 64
15, 1218480, Note_on_c, 14, 41, 30
15, 1218595, Note_off_c, 14, 41, 64
15, 1218600, Note_on_c, 14, 42, 30
15, 1218715, Note_off_c, 14, 42, 64
15, 1218720, Note_on_c, 14, 41, 30
15, 1218835, Note_off_c, 14, 41, 64
15, 1218840, Note_on_c, 14, 39, 30
15, 1218955, Note_off_c, 14, 39, 64
15, 1218960, Note_on_c, 14, 37, 30
15, 1219075, Note_off_c, 14, 37, 64
15, 1219080, Note_on_c, 14, 36, 30
15, 1219195, Note_off_c, 14, 36, 64
15, 1219200, Note_on_c, 14, 37, 30
15, 1219315, Note_off_c, 14, 37, 64
15, 1219320, Note_on_c, 14, 39, 30
15, 1219435, Note_off_c, 14, 39, 64
15, 1219440, Note_on_c, 14, 41, 30
15, 1219555, Note_off_c, 14, 41, 64
15, 1219560, Note_on_c, 14, 42, 30
15, 1219675, Note_off_c, 14, 42, 64
15, 1219680, Note_on_c, 14, 41, 30
15, 1219795, Note_off_c, 14, 41, 64
15, 1219800, Note_on_c, 14, 39, 30
15, 1219915, Note_off_c, 14, 39, 64
15, 1219920, Note_on_c, 14, 37, 92
15, 1220320, Note_off_c, 14, 37, 64
15, 1223760, Note_on_c, 14, 35, 45
15, 1223875, Note_off_c, 14, 35, 64
15, 1223880, Note_on_c, 14, 36, 45
15, 1223995, Note_off_c, 14, 36, 64
15, 1224000, Note_on_c, 14, 38, 45
15, 1224115, Note_off_c, 14, 38, 64
15, 1224120, Note_on_c, 14, 36, 45
15, 1224235, Note_off_c, 14, 36, 64
15, 1224240, Note_on_c, 14, 35, 45
15, 1224355, Note_off_c, 14, 35, 64
15, 1224360, Note_on_c, 14, 36, 45
15, 1224475, Note_off_c, 14, 36, 64
15, 1224480, Note_on_c, 14, 38, 45
15, 1224595, Note_off_c, 14, 38, 64
15, 1224600, Note_on_c, 14, 39, 45
15, 1224715, Note_off_c, 14, 39, 64
15, 1224720, Note_on_c, 14, 41, 45
15, 1224835, Note_off_c, 14, 41, 64
15, 1224840, Note_on_c, 14, 43, 45
15, 1224955, Note_off_c, 14, 43, 64
15, 1224960, Note_on_c, 14, 41, 45
15, 1225075, Note_off_c, 14, 41, 64
15, 1225080, Note_on_c, 14, 39, 45
15, 1225195, Note_off_c, 14, 39, 64
15, 1225200, Note_on_c, 14, 38, 45
15, 1225315, Note_off_c, 14, 38, 64
15, 1225320, Note_on_c, 14, 39, 45
15, 1225435, Note_off_c, 14, 39, 64
15, 1225440, Note_on_c, 14, 38, 45
15, 1225555, Note_off_c, 14, 38, 64
15, 1225560, Note_on_c, 14, 36, 45
15, 1225675, Note_off_c, 14, 36, 64
15, 1225680, Note_on_c, 14, 35, 45
15, 1225795, Note_off_c, 14, 35, 64
15, 1225800, Note_on_c, 14, 36, 45
15, 1225915, Note_off_c, 14, 36, 64
15, 1225920, Note_on_c, 14, 38, 45
15, 1226035, Note_off_c, 14, 38, 64
15, 1226040, Note_on_c, 14, 39, 45
15, 1226155, Note_off_c, 14, 39, 64
15, 1226160, Note_on_c, 14, 41, 45
15, 1226275, Note_off_c, 14, 41, 64
15, 1226280, Note_on_c, 14, 39, 45
15, 1226395, Note_off_c, 14, 39, 64
15, 1226400, Note_on_c, 14, 38, 45
15, 1226515, Note_off_c, 14, 38, 64
15, 1226520, Note_on_c, 14, 36, 45
15, 1226635, Note_off_c, 14, 36, 64
15, 1226640, Note_on_c, 14, 35, 45
15, 1226755, Note_off_c, 14, 35, 64
15, 1226760, Note_on_c, 14, 36, 45
15, 1226875, Note_off_c, 14, 36, 64
15, 1226880, Note_on_c, 14, 38, 45
15, 1226995, Note_off_c, 14, 38, 64
15, 1227000, Note_on_c, 14, 36, 45
15, 1227115, Note_off_c, 14, 36, 64
15, 1227120, Note_on_c, 14, 35, 45
15, 1227235, Note_off_c, 14, 35, 64
15, 1227240, Note_on_c, 14, 36, 45
15, 1227355, Note_off_c, 14, 36, 64
15, 1227360, Note_on_c, 14, 38, 45
15, 1227475, Note_off_c, 14, 38, 64
15, 1227480, Note_on_c, 14, 36, 45
15, 1227595, Note_off_c, 14, 36, 64
15, 1227600, Note_on_c, 14, 35, 92
15, 1228000, Note_off_c, 14, 35, 64
15, 1231440, Note_on_c, 14, 36, 45
15, 1231555, Note_off_c, 14, 36, 64
15, 1231560, Note_on_c, 14, 38, 45
15, 1231675, Note_off_c, 14, 38, 64
15, 1231680, Note_on_c, 14, 36, 45
15, 1231795, Note_off_c, 14, 36, 64
15, 1231800, Note_on_c, 14, 38, 45
15, 1231915, Note_off_c, 14, 38, 64
15, 1231920, Note_on_c, 14, 39, 45
15, 1232035, Note_off_c, 14, 39, 64
15, 1232040, Note_on_c, 14, 41, 46
15, 1232155, Note_off_c, 14, 41, 64
15, 1232160, Note_on_c, 14, 39, 47
15, 1232275, Note_off_c, 14, 39, 64
15, 1232280, Note_on_c, 14, 41, 48
15, 1232395, Note_off_c, 14, 41, 64
15, 1232400, Note_on_c, 14, 43, 49
15, 1232515, Note_off_c, 14, 43, 64
15, 1232520, Note_on_c, 14, 44, 50
15, 1232635, Note_off_c, 14, 44, 64
15, 1232640, Note_on_c, 14, 43, 51
15, 1232755, Note_off_c, 14, 43, 64
15, 1232760, Note_on_c, 14, 41, 52
15, 1232875, Note_off_c, 14, 41, 64
15, 1232880, Note_on_c, 14, 39, 53
15, 1232995, Note_off_c, 14, 39, 64
15, 1233000, Note_on_c, 14, 41, 54
15, 1233115, Note_off_c, 14, 41, 64
15, 1233120, Note_on_c, 14, 39, 56
15, 1233235, Note_off_c, 14, 39, 64
15, 1233240, Note_on_c, 14, 38, 58
15, 1233355, Note_off_c, 14, 38, 64
15, 1233360, Note_on_c, 14, 36, 60
15, 1233475, Note_off_c, 14, 36, 64
15, 1233480, Note_on_c, 14, 38, 62
15, 1233595, Note_off_c, 14, 38, 64
15, 1233600, Note_on_c, 14, 39, 64
15, 1233715, Note_off_c, 14, 39, 64
15, 1233720, Note_on_c, 14, 41, 66
15, 1233835, Note_off_c, 14, 41, 64
15, 1233840, Note_on_c, 14, 43, 68
15, 1233955, Note_off_c, 14, 43, 64
15, 1233960, Note_on_c, 14, 44, 70
15, 1234075, Note_off_c, 14, 44, 64
15, 1234080, Note_on_c, 14, 43, 72
15, 1234195, Note_off_c, 14, 43, 64
15, 1234200, Note_on_c, 14, 41, 74
15, 1234315, Note_off_c, 14, 41, 64
15, 1234320, Note_on_c, 14, 39, 76
15, 1234435, Note_off_c, 14, 39, 64
15, 1234440, Note_on_c, 14, 41, 78
15, 1234555, Note_off_c, 14, 41, 64
15, 1234560, Note_on_c, 14, 39, 80
15, 1234675, Note_off_c, 14, 39, 64
15, 1234680, Note_on_c, 14, 38, 82
15, 1234795, Note_off_c, 14, 38, 64
15, 1234800, Note_on_c, 14, 36, 84
15, 1234915, Note_off_c, 14, 36, 64
15, 1234920, Note_on_c, 14, 34, 86
15, 1235035, Note_off_c, 14, 34, 64
15, 1235040, Note_on_c, 14, 32, 88
15, 1235155, Note_off_c, 14, 32, 64
15, 1235160, Note_on_c, 14, 31, 90
15, 1235275, Note_off_c, 14, 31, 64
15, 1235280, Note_on_c, 14, 30, 92
15, 1235680, Note_off_c, 14, 30, 64
15, 1237200, Note_on_c, 14, 29, 92
15, 1237600, Note_off_c, 14, 29, 64
15, 1239120, Note_on_c, 14, 34, 92
15, 1239520, Note_off_c, 14, 34, 64
15, 1241040, Note_on_c, 14, 31, 92
15, 1241440, Note_off_c, 14, 31, 64
15, 1242960, Note_on_c, 14, 36, 92
15, 1243360, Note_off_c, 14, 36, 64
15, 1243920, Note_on_c, 14, 34, 92
15, 1244320, Note_off_c, 14, 34, 64
15, 1244880, Note_on_c, 14, 33, 92
15, 1245280, Note_off_c, 14, 33, 64
15, 1260240, Note_on_c, 14, 38, 45
15, 1260355, Note_off_c, 14, 38, 64
15, 1260360, Note_on_c, 14, 33, 45
15, 1260475, Note_off_c, 14, 33, 64
15, 1260480, Note_on_c, 14, 35, 45
15, 1260595, Note_off_c, 14, 35, 64
15, 1260600, Note_on_c, 14, 37, 45
15, 1260715, Note_off_c, 14, 37, 64
15, 1260720, Note_on_c, 14, 38, 45
15, 1260835, Note_off_c, 14, 38, 64
15, 1260840, Note_on_c, 14, 33, 45
15, 1260955, Note_off_c, 14, 33, 64
15, 1260960, Note_on_c, 14, 35, 45
15, 1261075, Note_off_c, 14, 35, 64
15, 1261080, Note_on_c, 14, 37, 45
15, 1261195, Note_off_c, 14, 37, 64
15, 1261200, Note_on_c, 14, 38, 45
15, 1261315, Note_off_c, 14, 38, 64
15, 1261320, Note_on_c, 14, 33, 45
15, 1261435, Note_off_c, 14, 33, 64
15, 1261440, Note_on_c, 14, 35, 45
15, 1261555, Note_off_c, 14, 35, 64
15, 1261560, Note_on_c, 14, 37, 45
15, 1261675, Note_off_c, 14, 37, 64
15, 1261680, Note_on_c, 14, 38, 45
15, 1261795, Note_off_c, 14, 38, 64
15, 1261800, Note_on_c, 14, 33, 45
15, 1261915, Note_off_c, 14, 33, 64
15, 1261920, Note_on_c, 14, 35, 45
15, 1262035, Note_off_c, 14, 35, 64
15, 1262040, Note_on_c, 14, 37, 45
15, 1262155, Note_off_c, 14, 37, 64
15, 1262160, Note_on_c, 14, 38, 45
15, 1262275, Note_off_c, 14, 38, 64
15, 1262280, Note_on_c, 14, 33, 45
15, 1262395, Note_off_c, 14, 33, 64
15, 1262400, Note_on_c, 14, 35, 45
15, 1262515, Note_off_c, 14, 35, 64
15, 1262520, Note_on_c, 14, 37, 45
15, 1262635, Note_off_c, 14, 37, 64
15, 1262640, Note_on_c, 14, 38, 45
15, 1262755, Note_off_c, 14, 38, 64
15, 1262760, Note_on_c, 14, 33, 45
15, 1262875, Note_off_c, 14, 33, 64
15, 1262880, Note_on_c, 14, 35, 45
15, 1262995, Note_off_c, 14, 35, 64
15, 1263000, Note_on_c, 14, 37, 45
15, 1263115, Note_off_c, 14, 37, 64
15, 1263120, Note_on_c, 14, 38, 45
15, 1263235, Note_off_c, 14, 38, 64
15, 1263240, Note_on_c, 14, 33, 45
15, 1263355, Note_off_c, 14, 33, 64
15, 1263360, Note_on_c, 14, 35, 45
15, 1263475, Note_off_c, 14, 35, 64
15, 1263480, Note_on_c, 14, 37, 45
15, 1263595, Note_off_c, 14, 37, 64
15, 1263600, Note_on_c, 14, 38, 45
15, 1263715, Note_off_c, 14, 38, 64
15, 1263720, Note_on_c, 14, 33, 45
15, 1263835, Note_off_c, 14, 33, 64
15, 1263840, Note_on_c, 14, 35, 45
15, 1263955, Note_off_c, 14, 35, 64
15, 1263960, Note_on_c, 14, 37, 45
15, 1264075, Note_off_c, 14, 37, 64
15, 1264080, Note_on_c, 14, 38, 45
15, 1264480, Note_off_c, 14, 38, 64
15, 1267920, Note_on_c, 14, 30, 45
15, 1268040, Note_off_c, 14, 30, 64
15, 1268040, Note_on_c, 14, 31, 45
15, 1268160, Note_off_c, 14, 31, 64
15, 1268160, Note_on_c, 14, 33, 45
15, 1268240, Note_off_c, 14, 33, 64
15, 1268240, Note_on_c, 14, 34, 45
15, 1268320, Note_off_c, 14, 34, 64
15, 1268320, Note_on_c, 14, 36, 45
15, 1268395, Note_off_c, 14, 36, 64
15, 1268400, Note_on_c, 14, 30, 45
15, 1268520, Note_off_c, 14, 30, 64
15, 1268520, Note_on_c, 14, 31, 45
15, 1268640, Note_off_c, 14, 31, 64
15, 1268640, Note_on_c, 14, 33, 45
15, 1268720, Note_off_c, 14, 33, 64
15, 1268720, Note_on_c, 14, 34, 45
15, 1268800, Note_off_c, 14, 34, 64
15, 1268800, Note_on_c, 14, 36, 45
15, 1268875, Note_off_c, 14, 36, 64
15, 1268880, Note_on_c, 14, 30, 45
15, 1269000, Note_off_c, 14, 30, 64
15, 1269000, Note_on_c, 14, 31, 45
15, 1269120, Note_off_c, 14, 31, 64
15, 1269120, Note_on_c, 14, 33, 45
15, 1269200, Note_off_c, 14, 33, 64
15, 1269200, Note_on_c, 14, 34, 45
15, 1269280, Note_off_c, 14, 34, 64
15, 1269280, Note_on_c, 14, 36, 45
15, 1269355, Note_off_c, 14, 36, 64
15, 1269360, Note_on_c, 14, 30, 45
15, 1269480, Note_off_c, 14, 30, 64
15, 1269480, Note_on_c, 14, 31, 45
15, 1269600, Note_off_c, 14, 31, 64
15, 1269600, Note_on_c, 14, 33, 45
15, 1269680, Note_off_c, 14, 33, 64
15, 1269680, Note_on_c, 14, 34, 45
15, 1269760, Note_off_c, 14, 34, 64
15, 1269760, Note_on_c, 14, 36, 45
15, 1269835, Note_off_c, 14, 36, 64
15, 1269840, Note_on_c, 14, 30, 45
15, 1269960, Note_off_c, 14, 30, 64
15, 1269960, Note_on_c, 14, 31, 45
15, 1270080, Note_off_c, 14, 31, 64
15, 1270080, Note_on_c, 14, 33, 45
15, 1270160, Note_off_c, 14, 33, 64
15, 1270160, Note_on_c, 14, 34, 45
15, 1270240, Note_off_c, 14, 34, 64
15, 1270240, Note_on_c, 14, 36, 45
15, 1270315, Note_off_c, 14, 36, 64
15, 1270320, Note_on_c, 14, 30, 45
15, 1270440, Note_off_c, 14, 30, 64
15, 1270440, Note_on_c, 14, 31, 45
15, 1270560, Note_off_c, 14, 31, 64
15, 1270560, Note_on_c, 14, 33, 45
15, 1270640, Note_off_c, 14, 33, 64
15, 1270640, Note_on_c, 14, 34, 45
15, 1270720, Note_off_c, 14, 34, 64
15, 1270720, Note_on_c, 14, 36, 45
15, 1270795, Note_off_c, 14, 36, 64
15, 1270800, Note_on_c, 14, 30, 45
15, 1270920, Note_off_c, 14, 30, 64
15, 1270920, Note_on_c, 14, 31, 45
15, 1271040, Note_off_c, 14, 31, 64
15, 1271040, Note_on_c, 14, 33, 45
15, 1271120, Note_off_c, 14, 33, 64
15, 1271120, Note_on_c, 14, 34, 45
15, 1271200, Note_off_c, 14, 34, 64
15, 1271200, Note_on_c, 14, 36, 45
15, 1271275, Note_off_c, 14, 36, 64
15, 1271280, Note_on_c, 14, 30, 45
15, 1271400, Note_off_c, 14, 30, 64
15, 1271400, Note_on_c, 14, 31, 45
15, 1271520, Note_off_c, 14, 31, 64
15, 1271520, Note_on_c, 14, 33, 45
15, 1271600, Note_off_c, 14, 33, 64
15, 1271600, Note_on_c, 14, 34, 45
15, 1271680, Note_off_c, 14, 34, 64
15, 1271680, Note_on_c, 14, 36, 45
15, 1271755, Note_off_c, 14, 36, 64
15, 1271760, Note_on_c, 14, 30, 45
15, 1272160, Note_off_c, 14, 30, 64
15, 1275600, Note_on_c, 14, 29, 45
15, 1275720, Note_off_c, 14, 29, 64
15, 1275720, Note_on_c, 14, 31, 45
15, 1275840, Note_off_c, 14, 31, 64
15, 1275840, Note_on_c, 14, 33, 45
15, 1275960, Note_off_c, 14, 33, 64
15, 1275960, Note_on_c, 14, 34, 45
15, 1276075, Note_off_c, 14, 34, 64
15, 1276080, Note_on_c, 14, 29, 45
15, 1276200, Note_off_c, 14, 29, 64
15, 1276200, Note_on_c, 14, 31, 45
15, 1276320, Note_off_c, 14, 31, 64
15, 1276320, Note_on_c, 14, 33, 45
15, 1276440, Note_off_c, 14, 33, 64
15, 1276440, Note_on_c, 14, 34, 45
15, 1276555, Note_off_c, 14, 34, 64
15, 1276560, Note_on_c, 14, 29, 45
15, 1276680, Note_off_c, 14, 29, 64
15, 1276680, Note_on_c, 14, 31, 45
15, 1276800, Note_off_c, 14, 31, 64
15, 1276800, Note_on_c, 14, 33, 45
15, 1276920, Note_off_c, 14, 33, 64
15, 1276920, Note_on_c, 14, 34, 45
15, 1277035, Note_off_c, 14, 34, 64
15, 1277040, Note_on_c, 14, 29, 45
15, 1277160, Note_off_c, 14, 29, 64
15, 1277160, Note_on_c, 14, 31, 45
15, 1277280, Note_off_c, 14, 31, 64
15, 1277280, Note_on_c, 14, 33, 45
15, 1277400, Note_off_c, 14, 33, 64
15, 1277400, Note_on_c, 14, 34, 45
15, 1277515, Note_off_c, 14, 34, 64
15, 1277520, Note_on_c, 14, 29, 46
15, 1277640, Note_off_c, 14, 29, 64
15, 1277640, Note_on_c, 14, 31, 47
15, 1277760, Note_off_c, 14, 31, 64
15, 1277760, Note_on_c, 14, 33, 48
15, 1277880, Note_off_c, 14, 33, 64
15, 1277880, Note_on_c, 14, 34, 49
15, 1277995, Note_off_c, 14, 34, 64
15, 1278000, Note_on_c, 14, 29, 50
15, 1278120, Note_off_c, 14, 29, 64
15, 1278120, Note_on_c, 14, 31, 51
15, 1278240, Note_off_c, 14, 31, 64
15, 1278240, Note_on_c, 14, 33, 52
15, 1278360, Note_off_c, 14, 33, 64
15, 1278360, Note_on_c, 14, 34, 53
15, 1278475, Note_off_c, 14, 34, 64
15, 1278480, Note_on_c, 14, 29, 54
15, 1278600, Note_off_c, 14, 29, 64
15, 1278600, Note_on_c, 14, 31, 55
15, 1278720, Note_off_c, 14, 31, 64
15, 1278720, Note_on_c, 14, 33, 56
15, 1278840, Note_off_c, 14, 33, 64
15, 1278840, Note_on_c, 14, 34, 57
15, 1278955, Note_off_c, 14, 34, 64
15, 1278960, Note_on_c, 14, 29, 58
15, 1279080, Note_off_c, 14, 29, 64
15, 1279080, Note_on_c, 14, 31, 59
15, 1279200, Note_off_c, 14, 31, 64
15, 1279200, Note_on_c, 14, 33, 60
15, 1279320, Note_off_c, 14, 33, 64
15, 1279320, Note_on_c, 14, 34, 61
15, 1279435, Note_off_c, 14, 34, 64
15, 1279440, Note_on_c, 14, 34, 62
15, 1279560, Note_off_c, 14, 34, 64
15, 1279560, Note_on_c, 14, 36, 63
15, 1279680, Note_off_c, 14, 36, 64
15, 1279680, Note_on_c, 14, 37, 64
15, 1279800, Note_off_c, 14, 37, 64
15, 1279800, Note_on_c, 14, 39, 65
15, 1279915, Note_off_c, 14, 39, 64
15, 1279920, Note_on_c, 14, 34, 66
15, 1280040, Note_off_c, 14, 34, 64
15, 1280040, Note_on_c, 14, 36, 67
15, 1280160, Note_off_c, 14, 36, 64
15, 1280160, Note_on_c, 14, 37, 68
15, 1280280, Note_off_c, 14, 37, 64
15, 1280280, Note_on_c, 14, 39, 69
15, 1280395, Note_off_c, 14, 39, 64
15, 1280400, Note_on_c, 14, 34, 70
15, 1280520, Note_off_c, 14, 34, 64
15, 1280520, Note_on_c, 14, 36, 71
15, 1280640, Note_off_c, 14, 36, 64
15, 1280640, Note_on_c, 14, 37, 72
15, 1280760, Note_off_c, 14, 37, 64
15, 1280760, Note_on_c, 14, 39, 73
15, 1280875, Note_off_c, 14, 39, 64
15, 1280880, Note_on_c, 14, 34, 74
15, 1281000, Note_off_c, 14, 34, 64
15, 1281000, Note_on_c, 14, 36, 75
15, 1281120, Note_off_c, 14, 36, 64
15, 1281120, Note_on_c, 14, 37, 76
15, 1281240, Note_off_c, 14, 37, 64
15, 1281240, Note_on_c, 14, 39, 77
15, 1281355, Note_off_c, 14, 39, 64
15, 1281360, Note_on_c, 14, 34, 78
15, 1281480, Note_off_c, 14, 34, 64
15, 1281480, Note_on_c, 14, 36, 79
15, 1281600, Note_off_c, 14, 36, 64
15, 1281600, Note_on_c, 14, 37, 80
15, 1281720, Note_off_c, 14, 37, 64
15, 1281720, Note_on_c, 14, 39, 81
15, 1281835, Note_off_c, 14, 39, 64
15, 1281840, Note_on_c, 14, 34, 82
15, 1281960, Note_off_c, 14, 34, 64
15, 1281960, Note_on_c, 14, 36, 83
15, 1282080, Note_off_c, 14, 36, 64
15, 1282080, Note_on_c, 14, 37, 84
15, 1282200, Note_off_c, 14, 37, 64
15, 1282200, Note_on_c, 14, 39, 85
15, 1282315, Note_off_c, 14, 39, 64
15, 1282320, Note_on_c, 14, 34, 86
15, 1282440, Note_off_c, 14, 34, 64
15, 1282440, Note_on_c, 14, 36, 87
15, 1282560, Note_off_c, 14, 36, 64
15, 1282560, Note_on_c, 14, 37, 88
15, 1282680, Note_off_c, 14, 37, 64
15, 1282680, Note_on_c, 14, 39, 89
15, 1282795, Note_off_c, 14, 39, 64
15, 1282800, Note_on_c, 14, 34, 90
15, 1282920, Note_off_c, 14, 34, 64
15, 1282920, Note_on_c, 14, 36, 91
15, 1283040, Note_off_c, 14, 36, 64
15, 1283040, Note_on_c, 14, 37, 92
15, 1283160, Note_off_c, 14, 37, 64
15, 1283160, Note_on_c, 14, 39, 93
15, 1283275, Note_off_c, 14, 39, 64
15, 1283280, Note_on_c, 14, 31, 94
15, 1283400, Note_off_c, 14, 31, 64
15, 1283400, Note_on_c, 14, 33, 95
15, 1283520, Note_off_c, 14, 33, 64
15, 1283520, Note_on_c, 14, 35, 96
15, 1283640, Note_off_c, 14, 35, 64
15, 1283640, Note_on_c, 14, 36, 97
15, 1283755, Note_off_c, 14, 36, 64
15, 1283760, Note_on_c, 14, 31, 98
15, 1283880, Note_off_c, 14, 31, 64
15, 1283880, Note_on_c, 14, 33, 99
15, 1284000, Note_off_c, 14, 33, 64
15, 1284000, Note_on_c, 14, 35, 100
15, 1284120, Note_off_c, 14, 35, 64
15, 1284120, Note_on_c, 14, 36, 101
15, 1284235, Note_off_c, 14, 36, 64
15, 1284240, Note_on_c, 14, 31, 102
15, 1284360, Note_off_c, 14, 31, 64
15, 1284360, Note_on_c, 14, 33, 103
15, 1284480, Note_off_c, 14, 33, 64
15, 1284480, Note_on_c, 14, 35, 104
15, 1284600, Note_off_c, 14, 35, 64
15, 1284600, Note_on_c, 14, 36, 105
15, 1284715, Note_off_c, 14, 36, 64
15, 1284720, Note_on_c, 14, 31, 106
15, 1284840, Note_off_c, 14, 31, 64
15, 1284840, Note_on_c, 14, 33, 107
15, 1284960, Note_off_c, 14, 33, 64
15, 1284960, Note_on_c, 14, 35, 108
15, 1285080, Note_off_c, 14, 35, 64
15, 1285080, Note_on_c, 14, 36, 109
15, 1285195, Note_off_c, 14, 36, 64
15, 1285200, Note_on_c, 14, 31, 110
15, 1285320, Note_off_c, 14, 31, 64
15, 1285320, Note_on_c, 14, 33, 111
15, 1285440, Note_off_c, 14, 33, 64
15, 1285440, Note_on_c, 14, 35, 112
15, 1285560, Note_off_c, 14, 35, 64
15, 1285560, Note_on_c, 14, 36, 113
15, 1285675, Note_off_c, 14, 36, 64
15, 1285680, Note_on_c, 14, 31, 114
15, 1285800, Note_off_c, 14, 31, 64
15, 1285800, Note_on_c, 14, 33, 115
15, 1285920, Note_off_c, 14, 33, 64
15, 1285920, Note_on_c, 14, 35, 116
15, 1286040, Note_off_c, 14, 35, 64
15, 1286040, Note_on_c, 14, 36, 117
15, 1286155, Note_off_c, 14, 36, 64
15, 1286160, Note_on_c, 14, 31, 118
15, 1286280, Note_off_c, 14, 31, 64
15, 1286280, Note_on_c, 14, 33, 119
15, 1286400, Note_off_c, 14, 33, 64
15, 1286400, Note_on_c, 14, 35, 120
15, 1286520, Note_off_c, 14, 35, 64
15, 1286520, Note_on_c, 14, 36, 121
15, 1286635, Note_off_c, 14, 36, 64
15, 1286640, Note_on_c, 14, 31, 122
15, 1286760, Note_off_c, 14, 31, 64
15, 1286760, Note_on_c, 14, 33, 123
15, 1286880, Note_off_c, 14, 33, 64
15, 1286880, Note_on_c, 14, 35, 124
15, 1287000, Note_off_c, 14, 35, 64
15, 1287000, Note_on_c, 14, 36, 125
15, 1287115, Note_off_c, 14, 36, 64
15, 1287120, Note_on_c, 14, 43, 127
15, 1288440, Note_off_c, 14, 43, 64
15, 1288560, Note_on_c, 14, 41, 127
15, 1289040, Note_off_c, 14, 41, 64
15, 1289040, Note_on_c, 14, 39, 127
15, 1290360, Note_off_c, 14, 39, 64
15, 1290480, Note_on_c, 14, 38, 127
15, 1290960, Note_off_c, 14, 38, 64
15, 1290960, Note_on_c, 14, 36, 127
15, 1292280, Note_off_c, 14, 36, 64
15, 1292400, Note_on_c, 14, 34, 127
15, 1292880, Note_off_c, 14, 34, 64
15, 1292880, Note_on_c, 14, 32, 127
15, 1294200, Note_off_c, 14, 32, 64
15, 1294320, Note_on_c, 14, 32, 127
15, 1294720, Note_off_c, 14, 32, 64
15, 1294800, Note_on_c, 14, 44, 127
15, 1296120, Note_off_c, 14, 44, 64
15, 1296240, Note_on_c, 14, 42, 127
15, 1296720, Note_off_c, 14, 42, 64
15, 1296720, Note_on_c, 14, 41, 127
15, 1298040, Note_off_c, 14, 41, 64
15, 1298160, Note_on_c, 14, 39, 127
15, 1298640, Note_off_c, 14, 39, 64
15, 1298640, Note_on_c, 14, 37, 127
15, 1299960, Note_off_c, 14, 37, 64
15, 1300080, Note_on_c, 14, 35, 127
15, 1300560, Note_off_c, 14, 35, 64
15, 1300560, Note_on_c, 14, 34, 127
15, 1301880, Note_off_c, 14, 34, 64
15, 1302000, Note_on_c, 14, 46, 127
15, 1302400, Note_off_c, 14, 46, 64
15, 1302480, Note_on_c, 14, 46, 127
15, 1303800, Note_off_c, 14, 46, 64
15, 1303920, Note_on_c, 14, 44, 127
15, 1304400, Note_off_c, 14, 44, 64
15, 1304400, Note_on_c, 14, 42, 127
15, 1305720, Note_off_c, 14, 42, 64
15, 1305840, Note_on_c, 14, 41, 127
15, 1306320, Note_off_c, 14, 41, 64
15, 1306320, Note_on_c, 14, 39, 127
15, 1307640, Note_off_c, 14, 39, 64
15, 1307760, Note_on_c, 14, 32, 127
15, 1308160, Note_off_c, 14, 32, 64
15, 1308240, Note_on_c, 14, 37, 127
15, 1308640, Note_off_c, 14, 37, 64
15, 1309200, Note_on_c, 14, 49, 127
15, 1309840, Note_off_c, 14, 49, 64
15, 1309920, Note_on_c, 14, 44, 127
15, 1310000, Note_off_c, 14, 44, 64
15, 1310160, Note_on_c, 14, 46, 127
15, 1310240, Note_off_c, 14, 46, 64
15, 1310400, Note_on_c, 14, 41, 127
15, 1310480, Note_off_c, 14, 41, 64
15, 1310640, Note_on_c, 14, 42, 127
15, 1310720, Note_off_c, 14, 42, 64
15, 1310880, Note_on_c, 14, 41, 127
15, 1310960, Note_off_c, 14, 41, 64
15, 1311120, Note_on_c, 14, 39, 127
15, 1311200, Note_off_c, 14, 39, 64
15, 1311360, Note_on_c, 14, 37, 127
15, 1311440, Note_off_c, 14, 37, 64
15, 1311600, Note_on_c, 14, 37, 127
15, 1311680, Note_off_c, 14, 37, 64
15, 1311840, Note_on_c, 14, 36, 127
15, 1311920, Note_off_c, 14, 36, 64
15, 1312080, Note_on_c, 14, 34, 127
15, 1312480, Note_off_c, 14, 34, 64
15, 1313040, Note_on_c, 14, 46, 127
15, 1313680, Note_off_c, 14, 46, 64
15, 1313760, Note_on_c, 14, 41, 127
15, 1313840, Note_off_c, 14, 41, 64
15, 1314000, Note_on_c, 14, 42, 127
15, 1314080, Note_off_c, 14, 42, 64
15, 1314240, Note_on_c, 14, 37, 127
15, 1314320, Note_off_c, 14, 37, 64
15, 1314480, Note_on_c, 14, 39, 127
15, 1314560, Note_off_c, 14, 39, 64
15, 1314720, Note_on_c, 14, 37, 127
15, 1314800, Note_off_c, 14, 37, 64
15, 1314960, Note_on_c, 14, 35, 127
15, 1315040, Note_off_c, 14, 35, 64
15, 1315200, Note_on_c, 14, 34, 127
15, 1315280, Note_off_c, 14, 34, 64
15, 1315440, Note_on_c, 14, 34, 127
15, 1315520, Note_off_c, 14, 34, 64
15, 1315680, Note_on_c, 14, 32, 127
15, 1315760, Note_off_c, 14, 32, 64
15, 1315920, Note_on_c, 14, 30, 127
15, 1316320, Note_off_c, 14, 30, 64
15, 1316880, Note_on_c, 14, 42, 127
15, 1317520, Note_off_c, 14, 42, 64
15, 1317600, Note_on_c, 14, 37, 127
15, 1317680, Note_off_c, 14, 37, 64
15, 1317840, Note_on_c, 14, 39, 127
15, 1317920, Note_off_c, 14, 39, 64
15, 1318080, Note_on_c, 14, 34, 127
15, 1318160, Note_off_c, 14, 34, 64
15, 1318320, Note_on_c, 14, 35, 127
15, 1318400, Note_off_c, 14, 35, 64
15, 1318560, Note_on_c, 14, 34, 127
15, 1318640, Note_off_c, 14, 34, 64
15, 1318800, Note_on_c, 14, 32, 127
15, 1318880, Note_off_c, 14, 32, 64
15, 1319040, Note_on_c, 14, 30, 127
15, 1319120, Note_off_c, 14, 30, 64
15, 1319280, Note_on_c, 14, 30, 127
15, 1319360, Note_off_c, 14, 30, 64
15, 1319520, Note_on_c, 14, 31, 127
15, 1319600, Note_off_c, 14, 31, 64
15, 1319760, Note_on_c, 14, 40, 127
15, 1320160, Note_off_c, 14, 40, 64
15, 1327440, Note_on_c, 14, 40, 92
15, 1327840, Note_off_c, 14, 40, 64
15, 1335120, Note_on_c, 14, 40, 92
15, 1335520, Note_off_c, 14, 40, 64
15, 1337040, Note_on_c, 14, 39, 92
15, 1337440, Note_off_c, 14, 39, 64
15, 1338960, Note_on_c, 14, 38, 92
15, 1339360, Note_off_c, 14, 38, 64
15, 1340880, Note_on_c, 14, 37, 92
15, 1341280, Note_off_c, 14, 37, 64
15, 1341840, Note_on_c, 14, 36, 92
15, 1342240, Note_off_c, 14, 36, 64
15, 1342320, Note_on_c, 14, 30, 127
15, 1342440, Note_off_c, 14, 30, 64
15, 1342440, Note_on_c, 14, 31, 127
15, 1342560, Note_off_c, 14, 31, 64
15, 1342560, Note_on_c, 14, 33, 127
15, 1342680, Note_off_c, 14, 33, 64
15, 1342680, Note_on_c, 14, 34, 127
15, 1342795, Note_off_c, 14, 34, 64
15, 1342800, Note_on_c, 14, 30, 127
15, 1342920, Note_off_c, 14, 30, 64
15, 1342920, Note_on_c, 14, 31, 127
15, 1343040, Note_off_c, 14, 31, 64
15, 1343040, Note_on_c, 14, 33, 127
15, 1343160, Note_off_c, 14, 33, 64
15, 1343160, Note_on_c, 14, 34, 127
15, 1343275, Note_off_c, 14, 34, 64
15, 1343280, Note_on_c, 14, 30, 127
15, 1343400, Note_off_c, 14, 30, 64
15, 1343400, Note_on_c, 14, 31, 127
15, 1343520, Note_off_c, 14, 31, 64
15, 1343520, Note_on_c, 14, 33, 127
15, 1343640, Note_off_c, 14, 33, 64
15, 1343640, Note_on_c, 14, 34, 127
15, 1343755, Note_off_c, 14, 34, 64
15, 1343760, Note_on_c, 14, 30, 127
15, 1343880, Note_off_c, 14, 30, 64
15, 1343880, Note_on_c, 14, 31, 127
15, 1344000, Note_off_c, 14, 31, 64
15, 1344000, Note_on_c, 14, 33, 127
15, 1344120, Note_off_c, 14, 33, 64
15, 1344120, Note_on_c, 14, 34, 127
15, 1344235, Note_off_c, 14, 34, 64
15, 1344240, Note_on_c, 14, 30, 127
15, 1344360, Note_off_c, 14, 30, 64
15, 1344360, Note_on_c, 14, 31, 127
15, 1344480, Note_off_c, 14, 31, 64
15, 1344480, Note_on_c, 14, 33, 127
15, 1344600, Note_off_c, 14, 33, 64
15, 1344600, Note_on_c, 14, 34, 127
15, 1344715, Note_off_c, 14, 34, 64
15, 1344720, Note_on_c, 14, 30, 127
15, 1344840, Note_off_c, 14, 30, 64
15, 1344840, Note_on_c, 14, 31, 127
15, 1344960, Note_off_c, 14, 31, 64
15, 1344960, Note_on_c, 14, 33, 127
15, 1345080, Note_off_c, 14, 33, 64
15, 1345080, Note_on_c, 14, 34, 127
15, 1345195, Note_off_c, 14, 34, 64
15, 1345200, Note_on_c, 14, 30, 127
15, 1345320, Note_off_c, 14, 30, 64
15, 1345320, Note_on_c, 14, 31, 127
15, 1345440, Note_off_c, 14, 31, 64
15, 1345440, Note_on_c, 14, 33, 127
15, 1345560, Note_off_c, 14, 33, 64
15, 1345560, Note_on_c, 14, 34, 127
15, 1345675, Note_off_c, 14, 34, 64
15, 1345680, Note_on_c, 14, 30, 127
15, 1345800, Note_off_c, 14, 30, 64
15, 1345800, Note_on_c, 14, 31, 127
15, 1345920, Note_off_c, 14, 31, 64
15, 1345920, Note_on_c, 14, 33, 127
15, 1346040, Note_off_c, 14, 33, 64
15, 1346040, Note_on_c, 14, 34, 127
15, 1346155, Note_off_c, 14, 34, 64
15, 1346160, Note_on_c, 14, 30, 127
15, 1346280, Note_off_c, 14, 30, 64
15, 1346280, Note_on_c, 14, 31, 127
15, 1346400, Note_off_c, 14, 31, 64
15, 1346400, Note_on_c, 14, 33, 127
15, 1346520, Note_off_c, 14, 33, 64
15, 1346520, Note_on_c, 14, 34, 127
15, 1346635, Note_off_c, 14, 34, 64
15, 1346640, Note_on_c, 14, 30, 127
15, 1346760, Note_off_c, 14, 30, 64
15, 1346760, Note_on_c, 14, 31, 127
15, 1346880, Note_off_c, 14, 31, 64
15, 1346880, Note_on_c, 14, 33, 127
15, 1347000, Note_off_c, 14, 33, 64
15, 1347000, Note_on_c, 14, 34, 127
15, 1347115, Note_off_c, 14, 34, 64
15, 1347120, Note_on_c, 14, 30, 127
15, 1347240, Note_off_c, 14, 30, 64
15, 1347240, Note_on_c, 14, 31, 127
15, 1347360, Note_off_c, 14, 31, 64
15, 1347360, Note_on_c, 14, 33, 127
15, 1347480, Note_off_c, 14, 33, 64
15, 1347480, Note_on_c, 14, 34, 127
15, 1347595, Note_off_c, 14, 34, 64
15, 1347600, Note_on_c, 14, 30, 127
15, 1347720, Note_off_c, 14, 30, 64
15, 1347720, Note_on_c, 14, 31, 127
15, 1347840, Note_off_c, 14, 31, 64
15, 1347840, Note_on_c, 14, 33, 127
15, 1347960, Note_off_c, 14, 33, 64
15, 1347960, Note_on_c, 14, 34, 127
15, 1348075, Note_off_c, 14, 34, 64
15, 1348080, Note_on_c, 14, 30, 127
15, 1348200, Note_off_c, 14, 30, 64
15, 1348200, Note_on_c, 14, 31, 127
15, 1348320, Note_off_c, 14, 31, 64
15, 1348320, Note_on_c, 14, 33, 127
15, 1348440, Note_off_c, 14, 33, 64
15, 1348440, Note_on_c, 14, 34, 127
15, 1348555, Note_off_c, 14, 34, 64
15, 1348560, Note_on_c, 14, 30, 127
15, 1348680, Note_off_c, 14, 30, 64
15, 1348680, Note_on_c, 14, 31, 127
15, 1348800, Note_off_c, 14, 31, 64
15, 1348800, Note_on_c, 14, 33, 127
15, 1348920, Note_off_c, 14, 33, 64
15, 1348920, Note_on_c, 14, 34, 127
15, 1349035, Note_off_c, 14, 34, 64
15, 1349040, Note_on_c, 14, 30, 127
15, 1349160, Note_off_c, 14, 30, 64
15, 1349160, Note_on_c, 14, 31, 127
15, 1349280, Note_off_c, 14, 31, 64
15, 1349280, Note_on_c, 14, 33, 127
15, 1349400, Note_off_c, 14, 33, 64
15, 1349400, Note_on_c, 14, 34, 127
15, 1349515, Note_off_c, 14, 34, 64
15, 1349520, Note_on_c, 14, 30, 127
15, 1349640, Note_off_c, 14, 30, 64
15, 1349640, Note_on_c, 14, 31, 127
15, 1349760, Note_off_c, 14, 31, 64
15, 1349760, Note_on_c, 14, 33, 127
15, 1349880, Note_off_c, 14, 33, 64
15, 1349880, Note_on_c, 14, 34, 127
15, 1349995, Note_off_c, 14, 34, 64
15, 1350000, Note_on_c, 14, 30, 127
15, 1350120, Note_off_c, 14, 30, 64
15, 1350120, Note_on_c, 14, 31, 127
15, 1350240, Note_off_c, 14, 31, 64
15, 1350240, Note_on_c, 14, 33, 127
15, 1350360, Note_off_c, 14, 33, 64
15, 1350360, Note_on_c, 14, 34, 127
15, 1350475, Note_off_c, 14, 34, 64
15, 1350480, Note_on_c, 14, 30, 127
15, 1350600, Note_off_c, 14, 30, 64
15, 1350600, Note_on_c, 14, 31, 127
15, 1350720, Note_off_c, 14, 31, 64
15, 1350720, Note_on_c, 14, 33, 127
15, 1350840, Note_off_c, 14, 33, 64
15, 1350840, Note_on_c, 14, 34, 127
15, 1350955, Note_off_c, 14, 34, 64
15, 1350960, Note_on_c, 14, 30, 127
15, 1351080, Note_off_c, 14, 30, 64
15, 1351080, Note_on_c, 14, 31, 127
15, 1351200, Note_off_c, 14, 31, 64
15, 1351200, Note_on_c, 14, 33, 127
15, 1351320, Note_off_c, 14, 33, 64
15, 1351320, Note_on_c, 14, 34, 127
15, 1351435, Note_off_c, 14, 34, 64
15, 1351440, Note_on_c, 14, 30, 127
15, 1351560, Note_off_c, 14, 30, 64
15, 1351560, Note_on_c, 14, 31, 127
15, 1351680, Note_off_c, 14, 31, 64
15, 1351680, Note_on_c, 14, 33, 127
15, 1351800, Note_off_c, 14, 33, 64
15, 1351800, Note_on_c, 14, 34, 127
15, 1351915, Note_off_c, 14, 34, 64
15, 1351920, Note_on_c, 14, 30, 127
15, 1352040, Note_off_c, 14, 30, 64
15, 1352040, Note_on_c, 14, 31, 127
15, 1352160, Note_off_c, 14, 31, 64
15, 1352160, Note_on_c, 14, 33, 127
15, 1352280, Note_off_c, 14, 33, 64
15, 1352280, Note_on_c, 14, 34, 127
15, 1352395, Note_off_c, 14, 34, 64
15, 1352400, Note_on_c, 14, 29, 127
15, 1354200, Note_off_c, 14, 29, 64
15, 1354320, Note_on_c, 14, 29, 127
15, 1354440, Note_off_c, 14, 29, 64
15, 1354440, Note_on_c, 14, 34, 127
15, 1354560, Note_off_c, 14, 34, 64
15, 1354560, Note_on_c, 14, 36, 127
15, 1354680, Note_off_c, 14, 36, 64
15, 1354680, Note_on_c, 14, 37, 127
15, 1354795, Note_off_c, 14, 37, 64
15, 1354800, Note_on_c, 14, 29, 127
15, 1354920, Note_off_c, 14, 29, 64
15, 1354920, Note_on_c, 14, 34, 127
15, 1355040, Note_off_c, 14, 34, 64
15, 1355040, Note_on_c, 14, 36, 127
15, 1355160, Note_off_c, 14, 36, 64
15, 1355160, Note_on_c, 14, 37, 127
15, 1355275, Note_off_c, 14, 37, 64
15, 1355280, Note_on_c, 14, 29, 127
15, 1355400, Note_off_c, 14, 29, 64
15, 1355400, Note_on_c, 14, 34, 127
15, 1355520, Note_off_c, 14, 34, 64
15, 1355520, Note_on_c, 14, 36, 127
15, 1355640, Note_off_c, 14, 36, 64
15, 1355640, Note_on_c, 14, 37, 127
15, 1355755, Note_off_c, 14, 37, 64
15, 1355760, Note_on_c, 14, 29, 127
15, 1355880, Note_off_c, 14, 29, 64
15, 1355880, Note_on_c, 14, 34, 127
15, 1356000, Note_off_c, 14, 34, 64
15, 1356000, Note_on_c, 14, 36, 127
15, 1356120, Note_off_c, 14, 36, 64
15, 1356120, Note_on_c, 14, 37, 127
15, 1356235, Note_off_c, 14, 37, 64
15, 1356240, Note_on_c, 14, 29, 127
15, 1358040, Note_off_c, 14, 29, 64
15, 1358160, Note_on_c, 14, 29, 127
15, 1358280, Note_off_c, 14, 29, 64
15, 1358280, Note_on_c, 14, 33, 127
15, 1358400, Note_off_c, 14, 33, 64
15, 1358400, Note_on_c, 14, 34, 127
15, 1358520, Note_off_c, 14, 34, 64
15, 1358520, Note_on_c, 14, 36, 127
15, 1358635, Note_off_c, 14, 36, 64
15, 1358640, Note_on_c, 14, 29, 127
15, 1358760, Note_off_c, 14, 29, 64
15, 1358760, Note_on_c, 14, 33, 127
15, 1358880, Note_off_c, 14, 33, 64
15, 1358880, Note_on_c, 14, 34, 127
15, 1359000, Note_off_c, 14, 34, 64
15, 1359000, Note_on_c, 14, 36, 127
15, 1359115, Note_off_c, 14, 36, 64
15, 1359120, Note_on_c, 14, 29, 127
15, 1359240, Note_off_c, 14, 29, 64
15, 1359240, Note_on_c, 14, 33, 127
15, 1359360, Note_off_c, 14, 33, 64
15, 1359360, Note_on_c, 14, 34, 127
15, 1359480, Note_off_c, 14, 34, 64
15, 1359480, Note_on_c, 14, 36, 127
15, 1359595, Note_off_c, 14, 36, 64
15, 1359600, Note_on_c, 14, 29, 127
15, 1359720, Note_off_c, 14, 29, 64
15, 1359720, Note_on_c, 14, 33, 127
15, 1359840, Note_off_c, 14, 33, 64
15, 1359840, Note_on_c, 14, 34, 127
15, 1359960, Note_off_c, 14, 34, 64
15, 1359960, Note_on_c, 14, 36, 127
15, 1360075, Note_off_c, 14, 36, 64
15, 1360080, Note_on_c, 14, 29, 127
15, 1361880, Note_off_c, 14, 29, 64
15, 1362000, Note_on_c, 14, 29, 127
15, 1362120, Note_off_c, 14, 29, 64
15, 1362120, Note_on_c, 14, 34, 127
15, 1362240, Note_off_c, 14, 34, 64
15, 1362240, Note_on_c, 14, 36, 127
15, 1362360, Note_off_c, 14, 36, 64
15, 1362360, Note_on_c, 14, 37, 127
15, 1362475, Note_off_c, 14, 37, 64
15, 1362480, Note_on_c, 14, 29, 127
15, 1362600, Note_off_c, 14, 29, 64
15, 1362600, Note_on_c, 14, 34, 127
15, 1362720, Note_off_c, 14, 34, 64
15, 1362720, Note_on_c, 14, 36, 127
15, 1362840, Note_off_c, 14, 36, 64
15, 1362840, Note_on_c, 14, 37, 127
15, 1362955, Note_off_c, 14, 37, 64
15, 1362960, Note_on_c, 14, 29, 127
15, 1363080, Note_off_c, 14, 29, 64
15, 1363080, Note_on_c, 14, 34, 127
15, 1363200, Note_off_c, 14, 34, 64
15, 1363200, Note_on_c, 14, 36, 127
15, 1363320, Note_off_c, 14, 36, 64
15, 1363320, Note_on_c, 14, 37, 127
15, 1363435, Note_off_c, 14, 37, 64
15, 1363440, Note_on_c, 14, 29, 127
15, 1363560, Note_off_c, 14, 29, 64
15, 1363560, Note_on_c, 14, 34, 127
15, 1363680, Note_off_c, 14, 34, 64
15, 1363680, Note_on_c, 14, 36, 127
15, 1363800, Note_off_c, 14, 36, 64
15, 1363800, Note_on_c, 14, 37, 127
15, 1363915, Note_off_c, 14, 37, 64
15, 1363920, Note_on_c, 14, 29, 127
15, 1365720, Note_off_c, 14, 29, 64
15, 1365840, Note_on_c, 14, 41, 108
15, 1367160, Note_off_c, 14, 41, 64
15, 1367280, Note_on_c, 14, 39, 108
15, 1367760, Note_off_c, 14, 39, 64
15, 1367760, Note_on_c, 14, 37, 108
15, 1369080, Note_off_c, 14, 37, 64
15, 1369200, Note_on_c, 14, 36, 108
15, 1369680, Note_off_c, 14, 36, 64
15, 1369680, Note_on_c, 14, 34, 104
15, 1371000, Note_off_c, 14, 34, 64
15, 1371120, Note_on_c, 14, 32, 92
15, 1371600, Note_off_c, 14, 32, 64
15, 1371600, Note_on_c, 14, 31, 92
15, 1372920, Note_off_c, 14, 31, 64
15, 1373040, Note_on_c, 14, 43, 92
15, 1373440, Note_off_c, 14, 43, 64
15, 1373520, Note_on_c, 14, 43, 75
15, 1374840, Note_off_c, 14, 43, 64
15, 1374960, Note_on_c, 14, 41, 75
15, 1375440, Note_off_c, 14, 41, 64
15, 1375440, Note_on_c, 14, 39, 75
15, 1376760, Note_off_c, 14, 39, 64
15, 1376880, Note_on_c, 14, 38, 75
15, 1377360, Note_off_c, 14, 38, 64
15, 1377360, Note_on_c, 14, 36, 72
15, 1378680, Note_off_c, 14, 36, 64
15, 1378800, Note_on_c, 14, 34, 60
15, 1379280, Note_off_c, 14, 34, 64
15, 1379280, Note_on_c, 14, 32, 60
15, 1380600, Note_off_c, 14, 32, 64
15, 1380720, Note_on_c, 14, 44, 60
15, 1381120, Note_off_c, 14, 44, 64
15, 1381200, Note_on_c, 14, 44, 60
15, 1382520, Note_off_c, 14, 44, 64
15, 1382640, Note_on_c, 14, 42, 60
15, 1383120, Note_off_c, 14, 42, 64
15, 1383120, Note_on_c, 14, 41, 60
15, 1384440, Note_off_c, 14, 41, 64
15, 1384560, Note_on_c, 14, 39, 60
15, 1385040, Note_off_c, 14, 39, 64
15, 1385040, Note_on_c, 14, 37, 57
15, 1386360, Note_off_c, 14, 37, 64
15, 1386480, Note_on_c, 14, 36, 45
15, 1386880, Note_off_c, 14, 36, 64
15, 1386960, Note_on_c, 14, 35, 60
15, 1387075, Note_off_c, 14, 35, 64
15, 1387080, Note_on_c, 14, 35, 60
15, 1387195, Note_off_c, 14, 35, 64
15, 1387200, Note_on_c, 14, 36, 60
15, 1387315, Note_off_c, 14, 36, 64
15, 1387320, Note_on_c, 14, 36, 60
15, 1387435, Note_off_c, 14, 36, 64
15, 1387440, Note_on_c, 14, 35, 60
15, 1387555, Note_off_c, 14, 35, 64
15, 1387560, Note_on_c, 14, 35, 60
15, 1387675, Note_off_c, 14, 35, 64
15, 1387680, Note_on_c, 14, 36, 60
15, 1387795, Note_off_c, 14, 36, 64
15, 1387800, Note_on_c, 14, 36, 60
15, 1387915, Note_off_c, 14, 36, 64
15, 1387920, Note_on_c, 14, 35, 60
15, 1388035, Note_off_c, 14, 35, 64
15, 1388040, Note_on_c, 14, 35, 60
15, 1388155, Note_off_c, 14, 35, 64
15, 1388160, Note_on_c, 14, 36, 60
15, 1388275, Note_off_c, 14, 36, 64
15, 1388280, Note_on_c, 14, 36, 60
15, 1388395, Note_off_c, 14, 36, 64
15, 1388400, Note_on_c, 14, 35, 60
15, 1388515, Note_off_c, 14, 35, 64
15, 1388520, Note_on_c, 14, 35, 60
15, 1388635, Note_off_c, 14, 35, 64
15, 1388640, Note_on_c, 14, 36, 60
15, 1388755, Note_off_c, 14, 36, 64
15, 1388760, Note_on_c, 14, 36, 60
15, 1388875, Note_off_c, 14, 36, 64
15, 1388880, Note_on_c, 14, 38, 60
15, 1388995, Note_off_c, 14, 38, 64
15, 1389000, Note_on_c, 14, 38, 60
15, 1389115, Note_off_c, 14, 38, 64
15, 1389120, Note_on_c, 14, 36, 60
15, 1389235, Note_off_c, 14, 36, 64
15, 1389240, Note_on_c, 14, 36, 60
15, 1389355, Note_off_c, 14, 36, 64
15, 1389360, Note_on_c, 14, 38, 60
15, 1389475, Note_off_c, 14, 38, 64
15, 1389480, Note_on_c, 14, 38, 60
15, 1389595, Note_off_c, 14, 38, 64
15, 1389600, Note_on_c, 14, 36, 60
15, 1389715, Note_off_c, 14, 36, 64
15, 1389720, Note_on_c, 14, 36, 60
15, 1389835, Note_off_c, 14, 36, 64
15, 1389840, Note_on_c, 14, 38, 60
15, 1389955, Note_off_c, 14, 38, 64
15, 1389960, Note_on_c, 14, 38, 60
15, 1390075, Note_off_c, 14, 38, 64
15, 1390080, Note_on_c, 14, 36, 60
15, 1390195, Note_off_c, 14, 36, 64
15, 1390200, Note_on_c, 14, 36, 60
15, 1390315, Note_off_c, 14, 36, 64
15, 1390320, Note_on_c, 14, 38, 60
15, 1390435, Note_off_c, 14, 38, 64
15, 1390440, Note_on_c, 14, 38, 60
15, 1390555, Note_off_c, 14, 38, 64
15, 1390560, Note_on_c, 14, 36, 60
15, 1390675, Note_off_c, 14, 36, 64
15, 1390680, Note_on_c, 14, 36, 60
15, 1390795, Note_off_c, 14, 36, 64
15, 1390800, Note_on_c, 14, 35, 60
15, 1390915, Note_off_c, 14, 35, 64
15, 1390920, Note_on_c, 14, 35, 60
15, 1391035, Note_off_c, 14, 35, 64
15, 1391040, Note_on_c, 14, 35, 60
15, 1391155, Note_off_c, 14, 35, 64
15, 1391160, Note_on_c, 14, 35, 60
15, 1391275, Note_off_c, 14, 35, 64
15, 1391280, Note_on_c, 14, 36, 60
15, 1391395, Note_off_c, 14, 36, 64
15, 1391400, Note_on_c, 14, 36, 60
15, 1391515, Note_off_c, 14, 36, 64
15, 1391520, Note_on_c, 14, 36, 60
15, 1391635, Note_off_c, 14, 36, 64
15, 1391640, Note_on_c, 14, 36, 60
15, 1391755, Note_off_c, 14, 36, 64
15, 1391760, Note_on_c, 14, 38, 60
15, 1391875, Note_off_c, 14, 38, 64
15, 1391880, Note_on_c, 14, 38, 60
15, 1391995, Note_off_c, 14, 38, 64
15, 1392000, Note_on_c, 14, 38, 60
15, 1392115, Note_off_c, 14, 38, 64
15, 1392120, Note_on_c, 14, 38, 60
15, 1392235, Note_off_c, 14, 38, 64
15, 1392240, Note_on_c, 14, 36, 60
15, 1392355, Note_off_c, 14, 36, 64
15, 1392360, Note_on_c, 14, 36, 60
15, 1392475, Note_off_c, 14, 36, 64
15, 1392480, Note_on_c, 14, 36, 60
15, 1392595, Note_off_c, 14, 36, 64
15, 1392600, Note_on_c, 14, 36, 60
15, 1392715, Note_off_c, 14, 36, 64
15, 1392720, Note_on_c, 14, 35, 60
15, 1392835, Note_off_c, 14, 35, 64
15, 1392840, Note_on_c, 14, 35, 60
15, 1392955, Note_off_c, 14, 35, 64
15, 1392960, Note_on_c, 14, 35, 60
15, 1393075, Note_off_c, 14, 35, 64
15, 1393080, Note_on_c, 14, 35, 60
15, 1393195, Note_off_c, 14, 35, 64
15, 1393200, Note_on_c, 14, 36, 60
15, 1393315, Note_off_c, 14, 36, 64
15, 1393320, Note_on_c, 14, 36, 60
15, 1393435, Note_off_c, 14, 36, 64
15, 1393440, Note_on_c, 14, 36, 60
15, 1393555, Note_off_c, 14, 36, 64
15, 1393560, Note_on_c, 14, 36, 60
15, 1393675, Note_off_c, 14, 36, 64
15, 1393680, Note_on_c, 14, 35, 60
15, 1393795, Note_off_c, 14, 35, 64
15, 1393800, Note_on_c, 14, 35, 60
15, 1393915, Note_off_c, 14, 35, 64
15, 1393920, Note_on_c, 14, 35, 60
15, 1394035, Note_off_c, 14, 35, 64
15, 1394040, Note_on_c, 14, 35, 60
15, 1394155, Note_off_c, 14, 35, 64
15, 1394160, Note_on_c, 14, 33, 60
15, 1394275, Note_off_c, 14, 33, 64
15, 1394280, Note_on_c, 14, 33, 60
15, 1394395, Note_off_c, 14, 33, 64
15, 1394400, Note_on_c, 14, 33, 60
15, 1394515, Note_off_c, 14, 33, 64
15, 1394520, Note_on_c, 14, 33, 60
15, 1394635, Note_off_c, 14, 33, 64
15, 1394640, Note_on_c, 14, 31, 60
15, 1394755, Note_off_c, 14, 31, 64
15, 1394760, Note_on_c, 14, 31, 60
15, 1394875, Note_off_c, 14, 31, 64
15, 1394880, Note_on_c, 14, 31, 60
15, 1394995, Note_off_c, 14, 31, 64
15, 1395000, Note_on_c, 14, 31, 60
15, 1395115, Note_off_c, 14, 31, 64
15, 1395120, Note_on_c, 14, 33, 60
15, 1395235, Note_off_c, 14, 33, 64
15, 1395240, Note_on_c, 14, 33, 60
15, 1395355, Note_off_c, 14, 33, 64
15, 1395360, Note_on_c, 14, 33, 60
15, 1395475, Note_off_c, 14, 33, 64
15, 1395480, Note_on_c, 14, 33, 60
15, 1395595, Note_off_c, 14, 33, 64
15, 1395600, Note_on_c, 14, 31, 60
15, 1395715, Note_off_c, 14, 31, 64
15, 1395720, Note_on_c, 14, 31, 60
15, 1395835, Note_off_c, 14, 31, 64
15, 1395840, Note_on_c, 14, 31, 60
15, 1395955, Note_off_c, 14, 31, 64
15, 1395960, Note_on_c, 14, 31, 60
15, 1396075, Note_off_c, 14, 31, 64
15, 1396080, Note_on_c, 14, 29, 60
15, 1396195, Note_off_c, 14, 29, 64
15, 1396200, Note_on_c, 14, 29, 60
15, 1396315, Note_off_c, 14, 29, 64
15, 1396320, Note_on_c, 14, 29, 60
15, 1396435, Note_off_c, 14, 29, 64
15, 1396440, Note_on_c, 14, 29, 60
15, 1396555, Note_off_c, 14, 29, 64
15, 1396560, Note_on_c, 14, 40, 60
15, 1396675, Note_off_c, 14, 40, 64
15, 1396680, Note_on_c, 14, 40, 60
15, 1396795, Note_off_c, 14, 40, 64
15, 1396800, Note_on_c, 14, 40, 59
15, 1396915, Note_off_c, 14, 40, 64
15, 1396920, Note_on_c, 14, 40, 58
15, 1397035, Note_off_c, 14, 40, 64
15, 1397040, Note_on_c, 14, 41, 57
15, 1397155, Note_off_c, 14, 41, 64
15, 1397160, Note_on_c, 14, 41, 56
15, 1397275, Note_off_c, 14, 41, 64
15, 1397280, Note_on_c, 14, 41, 55
15, 1397395, Note_off_c, 14, 41, 64
15, 1397400, Note_on_c, 14, 41, 54
15, 1397515, Note_off_c, 14, 41, 64
15, 1397520, Note_on_c, 14, 40, 53
15, 1397635, Note_off_c, 14, 40, 64
15, 1397640, Note_on_c, 14, 40, 52
15, 1397755, Note_off_c, 14, 40, 64
15, 1397760, Note_on_c, 14, 40, 51
15, 1397875, Note_off_c, 14, 40, 64
15, 1397880, Note_on_c, 14, 40, 50
15, 1397995, Note_off_c, 14, 40, 64
15, 1398000, Note_on_c, 14, 38, 49
15, 1398115, Note_off_c, 14, 38, 64
15, 1398120, Note_on_c, 14, 38, 48
15, 1398235, Note_off_c, 14, 38, 64
15, 1398240, Note_on_c, 14, 38, 47
15, 1398355, Note_off_c, 14, 38, 64
15, 1398360, Note_on_c, 14, 38, 46
15, 1398475, Note_off_c, 14, 38, 64
15, 1398480, Note_on_c, 14, 36, 45
15, 1398880, Note_off_c, 14, 36, 64
15, 1400400, Note_on_c, 14, 30, 92
15, 1400520, Note_off_c, 14, 30, 64
15, 1400520, Note_on_c, 14, 31, 92
15, 1400640, Note_off_c, 14, 31, 64
15, 1400640, Note_on_c, 14, 30, 92
15, 1400760, Note_off_c, 14, 30, 64
15, 1400760, Note_on_c, 14, 31, 92
15, 1400880, Note_off_c, 14, 31, 64
15, 1400880, Note_on_c, 14, 30, 92
15, 1401000, Note_off_c, 14, 30, 64
15, 1401000, Note_on_c, 14, 31, 92
15, 1401120, Note_off_c, 14, 31, 64
15, 1401120, Note_on_c, 14, 30, 92
15, 1401240, Note_off_c, 14, 30, 64
15, 1401240, Note_on_c, 14, 31, 92
15, 1401360, Note_off_c, 14, 31, 64
15, 1401360, Note_on_c, 14, 32, 92
15, 1401480, Note_off_c, 14, 32, 64
15, 1401480, Note_on_c, 14, 31, 92
15, 1401600, Note_off_c, 14, 31, 64
15, 1401600, Note_on_c, 14, 32, 92
15, 1401720, Note_off_c, 14, 32, 64
15, 1401720, Note_on_c, 14, 31, 92
15, 1401840, Note_off_c, 14, 31, 64
15, 1401840, Note_on_c, 14, 32, 92
15, 1401960, Note_off_c, 14, 32, 64
15, 1401960, Note_on_c, 14, 31, 92
15, 1402080, Note_off_c, 14, 31, 64
15, 1402080, Note_on_c, 14, 32, 92
15, 1402200, Note_off_c, 14, 32, 64
15, 1402200, Note_on_c, 14, 31, 92
15, 1402315, Note_off_c, 14, 31, 64
15, 1404240, Note_on_c, 14, 29, 92
15, 1404360, Note_off_c, 14, 29, 64
15, 1404360, Note_on_c, 14, 31, 92
15, 1404480, Note_off_c, 14, 31, 64
15, 1404480, Note_on_c, 14, 29, 92
15, 1404600, Note_off_c, 14, 29, 64
15, 1404600, Note_on_c, 14, 31, 92
15, 1404720, Note_off_c, 14, 31, 64
15, 1404720, Note_on_c, 14, 29, 92
15, 1404840, Note_off_c, 14, 29, 64
15, 1404840, Note_on_c, 14, 31, 92
15, 1404960, Note_off_c, 14, 31, 64
15, 1404960, Note_on_c, 14, 29, 92
15, 1405080, Note_off_c, 14, 29, 64
15, 1405080, Note_on_c, 14, 31, 92
15, 1405200, Note_off_c, 14, 31, 64
15, 1405200, Note_on_c, 14, 29, 92
15, 1405320, Note_off_c, 14, 29, 64
15, 1405320, Note_on_c, 14, 31, 92
15, 1405440, Note_off_c, 14, 31, 64
15, 1405440, Note_on_c, 14, 29, 92
15, 1405560, Note_off_c, 14, 29, 64
15, 1405560, Note_on_c, 14, 31, 92
15, 1405680, Note_off_c, 14, 31, 64
15, 1405680, Note_on_c, 14, 29, 92
15, 1405800, Note_off_c, 14, 29, 64
15, 1405800, Note_on_c, 14, 31, 92
15, 1405920, Note_off_c, 14, 31, 64
15, 1405920, Note_on_c, 14, 29, 92
15, 1406040, Note_off_c, 14, 29, 64
15, 1406040, Note_on_c, 14, 31, 92
15, 1406155, Note_off_c, 14, 31, 64
15, 1408080, Note_on_c, 14, 30, 45
15, 1408200, Note_off_c, 14, 30, 64
15, 1408200, Note_on_c, 14, 31, 45
15, 1408320, Note_off_c, 14, 31, 64
15, 1408320, Note_on_c, 14, 30, 45
15, 1408440, Note_off_c, 14, 30, 64
15, 1408440, Note_on_c, 14, 31, 45
15, 1408560, Note_off_c, 14, 31, 64
15, 1408560, Note_on_c, 14, 30, 45
15, 1408680, Note_off_c, 14, 30, 64
15, 1408680, Note_on_c, 14, 31, 45
15, 1408800, Note_off_c, 14, 31, 64
15, 1408800, Note_on_c, 14, 30, 45
15, 1408920, Note_off_c, 14, 30, 64
15, 1408920, Note_on_c, 14, 31, 45
15, 1409040, Note_off_c, 14, 31, 64
15, 1409040, Note_on_c, 14, 30, 45
15, 1409160, Note_off_c, 14, 30, 64
15, 1409160, Note_on_c, 14, 31, 45
15, 1409280, Note_off_c, 14, 31, 64
15, 1409280, Note_on_c, 14, 30, 45
15, 1409400, Note_off_c, 14, 30, 64
15, 1409400, Note_on_c, 14, 31, 45
15, 1409520, Note_off_c, 14, 31, 64
15, 1409520, Note_on_c, 14, 30, 45
15, 1409640, Note_off_c, 14, 30, 64
15, 1409640, Note_on_c, 14, 31, 45
15, 1409760, Note_off_c, 14, 31, 64
15, 1409760, Note_on_c, 14, 30, 45
15, 1409880, Note_off_c, 14, 30, 64
15, 1409880, Note_on_c, 14, 31, 45
15, 1409995, Note_off_c, 14, 31, 64
15, 1411920, Note_on_c, 14, 29, 45
15, 1412040, Note_off_c, 14, 29, 64
15, 1412040, Note_on_c, 14, 31, 45
15, 1412160, Note_off_c, 14, 31, 64
15, 1412160, Note_on_c, 14, 29, 45
15, 1412280, Note_off_c, 14, 29, 64
15, 1412280, Note_on_c, 14, 31, 45
15, 1412400, Note_off_c, 14, 31, 64
15, 1412400, Note_on_c, 14, 29, 45
15, 1412520, Note_off_c, 14, 29, 64
15, 1412520, Note_on_c, 14, 31, 45
15, 1412640, Note_off_c, 14, 31, 64
15, 1412640, Note_on_c, 14, 29, 45
15, 1412760, Note_off_c, 14, 29, 64
15, 1412760, Note_on_c, 14, 31, 45
15, 1412880, Note_off_c, 14, 31, 64
15, 1412880, Note_on_c, 14, 29, 45
15, 1413000, Note_off_c, 14, 29, 64
15, 1413000, Note_on_c, 14, 31, 45
15, 1413120, Note_off_c, 14, 31, 64
15, 1413120, Note_on_c, 14, 29, 45
15, 1413240, Note_off_c, 14, 29, 64
15, 1413240, Note_on_c, 14, 31, 45
15, 1413360, Note_off_c, 14, 31, 64
15, 1413360, Note_on_c, 14, 29, 45
15, 1413480, Note_off_c, 14, 29, 64
15, 1413480, Note_on_c, 14, 31, 45
15, 1413600, Note_off_c, 14, 31, 64
15, 1413600, Note_on_c, 14, 29, 45
15, 1413720, Note_off_c, 14, 29, 64
15, 1413720, Note_on_c, 14, 31, 45
15, 1413835, Note_off_c, 14, 31, 64
15, 1413840, Note_on_c, 14, 36, 45
15, 1413955, Note_off_c, 14, 36, 64
15, 1413960, Note_on_c, 14, 31, 45
15, 1414075, Note_off_c, 14, 31, 64
15, 1414080, Note_on_c, 14, 33, 45
15, 1414195, Note_off_c, 14, 33, 64
15, 1414200, Note_on_c, 14, 35, 45
15, 1414315, Note_off_c, 14, 35, 64
15, 1414320, Note_on_c, 14, 36, 45
15, 1414435, Note_off_c, 14, 36, 64
15, 1414440, Note_on_c, 14, 31, 45
15, 1414555, Note_off_c, 14, 31, 64
15, 1414560, Note_on_c, 14, 33, 45
15, 1414675, Note_off_c, 14, 33, 64
15, 1414680, Note_on_c, 14, 35, 45
15, 1414795, Note_off_c, 14, 35, 64
15, 1414800, Note_on_c, 14, 36, 45
15, 1414915, Note_off_c, 14, 36, 64
15, 1414920, Note_on_c, 14, 31, 45
15, 1415035, Note_off_c, 14, 31, 64
15, 1415040, Note_on_c, 14, 33, 45
15, 1415155, Note_off_c, 14, 33, 64
15, 1415160, Note_on_c, 14, 35, 45
15, 1415275, Note_off_c, 14, 35, 64
15, 1415280, Note_on_c, 14, 36, 45
15, 1415395, Note_off_c, 14, 36, 64
15, 1415400, Note_on_c, 14, 31, 45
15, 1415515, Note_off_c, 14, 31, 64
15, 1415520, Note_on_c, 14, 33, 45
15, 1415635, Note_off_c, 14, 33, 64
15, 1415640, Note_on_c, 14, 35, 45
15, 1415755, Note_off_c, 14, 35, 64
15, 1415760, Note_on_c, 14, 36, 45
15, 1415875, Note_off_c, 14, 36, 64
15, 1415880, Note_on_c, 14, 31, 45
15, 1415995, Note_off_c, 14, 31, 64
15, 1416000, Note_on_c, 14, 33, 45
15, 1416115, Note_off_c, 14, 33, 64
15, 1416120, Note_on_c, 14, 35, 45
15, 1416235, Note_off_c, 14, 35, 64
15, 1416240, Note_on_c, 14, 36, 45
15, 1416355, Note_off_c, 14, 36, 64
15, 1416360, Note_on_c, 14, 31, 45
15, 1416475, Note_off_c, 14, 31, 64
15, 1416480, Note_on_c, 14, 33, 45
15, 1416595, Note_off_c, 14, 33, 64
15, 1416600, Note_on_c, 14, 35, 45
15, 1416715, Note_off_c, 14, 35, 64
15, 1416720, Note_on_c, 14, 36, 45
15, 1416835, Note_off_c, 14, 36, 64
15, 1416840, Note_on_c, 14, 31, 45
15, 1416955, Note_off_c, 14, 31, 64
15, 1416960, Note_on_c, 14, 33, 45
15, 1417075, Note_off_c, 14, 33, 64
15, 1417080, Note_on_c, 14, 35, 45
15, 1417195, Note_off_c, 14, 35, 64
15, 1417200, Note_on_c, 14, 36, 45
15, 1417315, Note_off_c, 14, 36, 64
15, 1417320, Note_on_c, 14, 31, 45
15, 1417435, Note_off_c, 14, 31, 64
15, 1417440, Note_on_c, 14, 33, 45
15, 1417555, Note_off_c, 14, 33, 64
15, 1417560, Note_on_c, 14, 35, 45
15, 1417675, Note_off_c, 14, 35, 64
15, 1417680, Note_on_c, 14, 36, 45
15, 1418080, Note_off_c, 14, 36, 64
15, 1423560, Note_on_c, 14, 31, 45
15, 1423675, Note_off_c, 14, 31, 64
15, 1423680, Note_on_c, 14, 33, 45
15, 1423795, Note_off_c, 14, 33, 64
15, 1423800, Note_on_c, 14, 35, 45
15, 1423915, Note_off_c, 14, 35, 64
15, 1423920, Note_on_c, 14, 36, 45
15, 1424035, Note_off_c, 14, 36, 64
15, 1424040, Note_on_c, 14, 31, 45
15, 1424155, Note_off_c, 14, 31, 64
15, 1424160, Note_on_c, 14, 33, 45
15, 1424275, Note_off_c, 14, 33, 64
15, 1424280, Note_on_c, 14, 35, 45
15, 1424395, Note_off_c, 14, 35, 64
15, 1424400, Note_on_c, 14, 36, 45
15, 1424515, Note_off_c, 14, 36, 64
15, 1424520, Note_on_c, 14, 31, 45
15, 1424635, Note_off_c, 14, 31, 64
15, 1424640, Note_on_c, 14, 33, 45
15, 1424755, Note_off_c, 14, 33, 64
15, 1424760, Note_on_c, 14, 35, 45
15, 1424875, Note_off_c, 14, 35, 64
15, 1424880, Note_on_c, 14, 36, 45
15, 1424995, Note_off_c, 14, 36, 64
15, 1425000, Note_on_c, 14, 31, 45
15, 1425115, Note_off_c, 14, 31, 64
15, 1425120, Note_on_c, 14, 33, 45
15, 1425235, Note_off_c, 14, 33, 64
15, 1425240, Note_on_c, 14, 35, 45
15, 1425355, Note_off_c, 14, 35, 64
15, 1425360, Note_on_c, 14, 36, 45
15, 1425760, Note_off_c, 14, 36, 64
15, 1426440, Note_on_c, 14, 31, 45
15, 1426555, Note_off_c, 14, 31, 64
15, 1426560, Note_on_c, 14, 33, 45
15, 1426675, Note_off_c, 14, 33, 64
15, 1426680, Note_on_c, 14, 35, 45
15, 1426795, Note_off_c, 14, 35, 64
15, 1426800, Note_on_c, 14, 36, 45
15, 1426915, Note_off_c, 14, 36, 64
15, 1426920, Note_on_c, 14, 31, 45
15, 1427035, Note_off_c, 14, 31, 64
15, 1427040, Note_on_c, 14, 33, 45
15, 1427155, Note_off_c, 14, 33, 64
15, 1427160, Note_on_c, 14, 35, 45
15, 1427275, Note_off_c, 14, 35, 64
15, 1427280, Note_on_c, 14, 36, 45
15, 1427680, Note_off_c, 14, 36, 64
15, 1431600, Note_on_c, 14, 36, 45
15, 1431715, Note_off_c, 14, 36, 64
15, 1431720, Note_on_c, 14, 36, 45
15, 1431835, Note_off_c, 14, 36, 64
15, 1431840, Note_on_c, 14, 36, 45
15, 1431915, Note_off_c, 14, 36, 64
15, 1431920, Note_on_c, 14, 36, 45
15, 1431995, Note_off_c, 14, 36, 64
15, 1432000, Note_on_c, 14, 36, 45
15, 1432075, Note_off_c, 14, 36, 64
15, 1432080, Note_on_c, 14, 36, 45
15, 1432480, Note_off_c, 14, 36, 64
15, 1459980, Program_c, 14, 32
15, 1459980, Note_on_c, 14, 41, 45
15, 1460380, Note_off_c, 14, 41, 64
15, 1461180, Note_on_c, 14, 41, 45
15, 1461415, Note_off_c, 14, 41, 64
15, 1461420, Note_on_c, 14, 41, 45
15, 1461820, Note_off_c, 14, 41, 64
15, 1462620, Note_on_c, 14, 41, 45
15, 1462855, Note_off_c, 14, 41, 64
15, 1462860, Note_on_c, 14, 41, 45
15, 1463260, Note_off_c, 14, 41, 64
15, 1464060, Note_on_c, 14, 41, 45
15, 1464295, Note_off_c, 14, 41, 64
15, 1464300, Note_on_c, 14, 38, 45
15, 1464700, Note_off_c, 14, 38, 64
15, 1465500, Note_on_c, 14, 40, 45
15, 1465735, Note_off_c, 14, 40, 64
15, 1465740, Note_on_c, 14, 40, 45
15, 1466140, Note_off_c, 14, 40, 64
15, 1466940, Note_on_c, 14, 36, 45
15, 1467175, Note_off_c, 14, 36, 64
15, 1467180, Note_on_c, 14, 41, 45
15, 1467580, Note_off_c, 14, 41, 64
15, 1467900, Note_on_c, 14, 38, 52
15, 1468300, Note_off_c, 14, 38, 64
15, 1468380, Note_on_c, 14, 33, 57
15, 1468615, Note_off_c, 14, 33, 64
15, 1468620, Note_on_c, 14, 34, 59
15, 1469020, Note_off_c, 14, 34, 64
15, 1469340, Note_on_c, 14, 36, 66
15, 1469740, Note_off_c, 14, 36, 64
15, 1469820, Note_on_c, 14, 36, 71
15, 1470055, Note_off_c, 14, 36, 64
15, 1470060, Note_on_c, 14, 29, 74
15, 1470460, Note_off_c, 14, 29, 64
15, 1471500, Program_c, 14, 48
15, 1471500, Note_on_c, 14, 29, 92
15, 1471735, Note_off_c, 14, 29, 64
15, 1471740, Note_on_c, 14, 41, 92
15, 1471975, Note_off_c, 14, 41, 64
15, 1471980, Note_on_c, 14, 41, 92
15, 1472215, Note_off_c, 14, 41, 64
15, 1472220, Note_on_c, 14, 41, 92
15, 1472455, Note_off_c, 14, 41, 64
15, 1472460, Note_on_c, 14, 29, 92
15, 1472695, Note_off_c, 14, 29, 64
15, 1472700, Note_on_c, 14, 29, 92
15, 1472935, Note_off_c, 14, 29, 64
15, 1472940, Note_on_c, 14, 29, 92
15, 1473175, Note_off_c, 14, 29, 64
15, 1473180, Note_on_c, 14, 41, 92
15, 1473415, Note_off_c, 14, 41, 64
15, 1473420, Note_on_c, 14, 41, 92
15, 1473655, Note_off_c, 14, 41, 64
15, 1473660, Note_on_c, 14, 41, 92
15, 1473895, Note_off_c, 14, 41, 64
15, 1473900, Note_on_c, 14, 29, 92
15, 1474135, Note_off_c, 14, 29, 64
15, 1474140, Note_on_c, 14, 29, 92
15, 1474375, Note_off_c, 14, 29, 64
15, 1474380, Note_on_c, 14, 29, 92
15, 1474615, Note_off_c, 14, 29, 64
15, 1474620, Note_on_c, 14, 41, 92
15, 1474855, Note_off_c, 14, 41, 64
15, 1474860, Note_on_c, 14, 41, 92
15, 1475095, Note_off_c, 14, 41, 64
15, 1475100, Note_on_c, 14, 41, 92
15, 1475335, Note_off_c, 14, 41, 64
15, 1475340, Note_on_c, 14, 29, 92
15, 1475575, Note_off_c, 14, 29, 64
15, 1475580, Note_on_c, 14, 29, 92
15, 1475815, Note_off_c, 14, 29, 64
15, 1475820, Note_on_c, 14, 38, 92
15, 1476055, Note_off_c, 14, 38, 64
15, 1476060, Note_on_c, 14, 50, 92
15, 1476295, Note_off_c, 14, 50, 64
15, 1476300, Note_on_c, 14, 50, 92
15, 1476535, Note_off_c, 14, 50, 64
15, 1476540, Note_on_c, 14, 50, 92
15, 1476775, Note_off_c, 14, 50, 64
15, 1476780, Note_on_c, 14, 38, 92
15, 1477015, Note_off_c, 14, 38, 64
15, 1477020, Note_on_c, 14, 40, 92
15, 1477255, Note_off_c, 14, 40, 64
15, 1477260, Note_on_c, 14, 40, 92
15, 1477495, Note_off_c, 14, 40, 64
15, 1477500, Note_on_c, 14, 52, 92
15, 1477735, Note_off_c, 14, 52, 64
15, 1477740, Note_on_c, 14, 40, 92
15, 1477975, Note_off_c, 14, 40, 64
15, 1477980, Note_on_c, 14, 40, 92
15, 1478215, Note_off_c, 14, 40, 64
15, 1478220, Note_on_c, 14, 40, 92
15, 1478455, Note_off_c, 14, 40, 64
15, 1478460, Note_on_c, 14, 36, 92
15, 1478695, Note_off_c, 14, 36, 64
15, 1478700, Note_on_c, 14, 29, 92
15, 1478935, Note_off_c, 14, 29, 64
15, 1478940, Note_on_c, 14, 41, 92
15, 1479175, Note_off_c, 14, 41, 64
15, 1479180, Note_on_c, 14, 41, 92
15, 1479415, Note_off_c, 14, 41, 64
15, 1479420, Note_on_c, 14, 38, 92
15, 1479655, Note_off_c, 14, 38, 64
15, 1479660, Note_on_c, 14, 38, 92
15, 1479895, Note_off_c, 14, 38, 64
15, 1479900, Note_on_c, 14, 33, 92
15, 1480135, Note_off_c, 14, 33, 64
15, 1480140, Note_on_c, 14, 34, 92
15, 1480375, Note_off_c, 14, 34, 64
15, 1480380, Note_on_c, 14, 46, 92
15, 1480615, Note_off_c, 14, 46, 64
15, 1480620, Note_on_c, 14, 34, 92
15, 1480855, Note_off_c, 14, 34, 64
15, 1480860, Note_on_c, 14, 36, 92
15, 1481095, Note_off_c, 14, 36, 64
15, 1481100, Note_on_c, 14, 36, 92
15, 1481335, Note_off_c, 14, 36, 64
15, 1481340, Note_on_c, 14, 36, 92
15, 1481575, Note_off_c, 14, 36, 64
15, 1481580, Note_on_c, 14, 29, 75
15, 1481815, Note_off_c, 14, 29, 64
15, 1484220, Note_on_c, 14, 34, 92
15, 1484455, Note_off_c, 14, 34, 64
15, 1484460, Note_on_c, 14, 33, 92
15, 1485100, Note_off_c, 14, 33, 64
15, 1485180, Note_on_c, 14, 40, 92
15, 1485820, Note_off_c, 14, 40, 64
15, 1485900, Note_on_c, 14, 41, 92
15, 1486540, Note_off_c, 14, 41, 64
15, 1486620, Note_on_c, 14, 36, 92
15, 1487020, Note_off_c, 14, 36, 64
15, 1487100, Note_on_c, 14, 36, 92
15, 1487335, Note_off_c, 14, 36, 64
15, 1489980, Note_on_c, 14, 34, 92
15, 1490215, Note_off_c, 14, 34, 64
15, 1490220, Note_on_c, 14, 33, 92
15, 1490860, Note_off_c, 14, 33, 64
15, 1490940, Note_on_c, 14, 40, 92
15, 1491580, Note_off_c, 14, 40, 64
15, 1491660, Note_on_c, 14, 41, 92
15, 1492300, Note_off_c, 14, 41, 64
15, 1492380, Note_on_c, 14, 43, 92
15, 1492780, Note_off_c, 14, 43, 64
15, 1492860, Note_on_c, 14, 31, 108
15, 1493100, Note_off_c, 14, 31, 64
15, 1493100, Note_on_c, 14, 33, 108
15, 1493500, Note_off_c, 14, 33, 64
15, 1494300, Note_on_c, 14, 35, 108
15, 1494540, Note_off_c, 14, 35, 64
15, 1494540, Note_on_c, 14, 36, 108
15, 1494940, Note_off_c, 14, 36, 64
15, 1495740, Note_on_c, 14, 38, 108
15, 1495980, Note_off_c, 14, 38, 64
15, 1495980, Note_on_c, 14, 40, 108
15, 1496380, Note_off_c, 14, 40, 64
15, 1498140, Note_on_c, 14, 45, 108
15, 1498380, Note_off_c, 14, 45, 64
15, 1498380, Note_on_c, 14, 43, 108
15, 1498615, Note_off_c, 14, 43, 64
15, 1498620, Note_on_c, 14, 40, 108
15, 1498700, Note_off_c, 14, 40, 64
15, 1498740, Note_on_c, 14, 36, 108
15, 1498820, Note_off_c, 14, 36, 64
15, 1498860, Note_on_c, 14, 31, 108
15, 1500180, Note_off_c, 14, 31, 64
15, 1501020, Note_on_c, 14, 43, 108
15, 1501260, Note_off_c, 14, 43, 64
15, 1501260, Note_on_c, 14, 41, 108
15, 1501495, Note_off_c, 14, 41, 64
15, 1501500, Note_on_c, 14, 38, 108
15, 1501580, Note_off_c, 14, 38, 64
15, 1501620, Note_on_c, 14, 34, 108
15, 1501700, Note_off_c, 14, 34, 64
15, 1501740, Note_on_c, 14, 31, 108
15, 1503060, Note_off_c, 14, 31, 64
15, 1503900, Note_on_c, 14, 45, 108
15, 1504020, Note_off_c, 14, 45, 64
15, 1504020, Note_on_c, 14, 43, 108
15, 1504135, Note_off_c, 14, 43, 64
15, 1504140, Note_on_c, 14, 42, 108
15, 1504220, Note_off_c, 14, 42, 64
15, 1504260, Note_on_c, 14, 43, 108
15, 1504340, Note_off_c, 14, 43, 64
15, 1504380, Note_on_c, 14, 40, 108
15, 1504460, Note_off_c, 14, 40, 64
15, 1504500, Note_on_c, 14, 36, 108
15, 1504580, Note_off_c, 14, 36, 64
15, 1504620, Note_on_c, 14, 31, 108
15, 1505940, Note_off_c, 14, 31, 64
15, 1506780, Note_on_c, 14, 45, 108
15, 1506900, Note_off_c, 14, 45, 64
15, 1506900, Note_on_c, 14, 43, 108
15, 1507015, Note_off_c, 14, 43, 64
15, 1507020, Note_on_c, 14, 42, 108
15, 1507135, Note_off_c, 14, 42, 64
15, 1507140, Note_on_c, 14, 38, 108
15, 1507220, Note_off_c, 14, 38, 64
15, 1507260, Note_on_c, 14, 43, 108
15, 1507340, Note_off_c, 14, 43, 64
15, 1507380, Note_on_c, 14, 43, 108
15, 1507460, Note_off_c, 14, 43, 64
15, 1507500, Note_on_c, 14, 36, 108
15, 1507900, Note_off_c, 14, 36, 64
15, 1509420, Note_on_c, 14, 36, 92
15, 1509660, Note_off_c, 14, 36, 64
15, 1509660, Note_on_c, 14, 31, 92
15, 1510060, Note_off_c, 14, 31, 64
15, 1510140, Note_on_c, 14, 31, 92
15, 1510375, Note_off_c, 14, 31, 64
15, 1510380, Note_on_c, 14, 36, 92
15, 1510780, Note_off_c, 14, 36, 64
15, 1512300, Note_on_c, 14, 36, 92
15, 1512540, Note_off_c, 14, 36, 64
15, 1512540, Note_on_c, 14, 31, 92
15, 1512940, Note_off_c, 14, 31, 64
15, 1513020, Note_on_c, 14, 31, 92
15, 1513255, Note_off_c, 14, 31, 64
15, 1513260, Note_on_c, 14, 36, 108
15, 1514215, Note_off_c, 14, 36, 64
15, 1514460, Note_on_c, 14, 36, 108
15, 1514695, Note_off_c, 14, 36, 64
15, 1514700, Note_on_c, 14, 29, 108
15, 1515655, Note_off_c, 14, 29, 64
15, 1515900, Note_on_c, 14, 29, 108
15, 1516135, Note_off_c, 14, 29, 64
15, 1516140, Note_on_c, 14, 31, 45
15, 1516540, Note_off_c, 14, 31, 64
15, 1527660, Program_c, 14, 32
15, 1527660, Note_on_c, 14, 29, 60
15, 1528060, Note_off_c, 14, 29, 64
15, 1528860, Note_on_c, 14, 41, 45
15, 1529095, Note_off_c, 14, 41, 64
15, 1529100, Note_on_c, 14, 41, 45
15, 1529500, Note_off_c, 14, 41, 64
15, 1530300, Note_on_c, 14, 41, 45
15, 1530535, Note_off_c, 14, 41, 64
15, 1530540, Note_on_c, 14, 41, 45
15, 1530940, Note_off_c, 14, 41, 64
15, 1531740, Note_on_c, 14, 41, 45
15, 1531975, Note_off_c, 14, 41, 64
15, 1531980, Note_on_c, 14, 38, 45
15, 1532380, Note_off_c, 14, 38, 64
15, 1533180, Note_on_c, 14, 40, 45
15, 1533415, Note_off_c, 14, 40, 64
15, 1533420, Note_on_c, 14, 40, 45
15, 1533820, Note_off_c, 14, 40, 64
15, 1534620, Note_on_c, 14, 36, 45
15, 1534855, Note_off_c, 14, 36, 64
15, 1534860, Note_on_c, 14, 41, 45
15, 1535260, Note_off_c, 14, 41, 64
15, 1535580, Note_on_c, 14, 38, 45
15, 1535980, Note_off_c, 14, 38, 64
15, 1536060, Note_on_c, 14, 33, 45
15, 1536295, Note_off_c, 14, 33, 64
15, 1536300, Note_on_c, 14, 34, 45
15, 1536700, Note_off_c, 14, 34, 64
15, 1537020, Note_on_c, 14, 36, 45
15, 1537420, Note_off_c, 14, 36, 64
15, 1537500, Note_on_c, 14, 24, 45
15, 1537735, Note_off_c, 14, 24, 64
15, 1537740, Note_on_c, 14, 29, 45
15, 1538140, Note_off_c, 14, 29, 64
15, 1539180, Program_c, 14, 32
15, 1539180, Note_on_c, 14, 41, 45
15, 1539580, Note_off_c, 14, 41, 64
15, 1540380, Note_on_c, 14, 41, 45
15, 1540615, Note_off_c, 14, 41, 64
15, 1540620, Note_on_c, 14, 41, 45
15, 1541020, Note_off_c, 14, 41, 64
15, 1541820, Note_on_c, 14, 41, 45
15, 1542055, Note_off_c, 14, 41, 64
15, 1542060, Note_on_c, 14, 41, 45
15, 1542460, Note_off_c, 14, 41, 64
15, 1543260, Note_on_c, 14, 41, 45
15, 1543495, Note_off_c, 14, 41, 64
15, 1543500, Note_on_c, 14, 41, 45
15, 1543900, Note_off_c, 14, 41, 64
15, 1544700, Program_c, 14, 48
15, 1544700, Note_on_c, 14, 41, 45
15, 1545340, Note_off_c, 14, 41, 64
15, 1546140, Note_on_c, 14, 41, 75
15, 1546375, Note_off_c, 14, 41, 64
15, 1546380, Note_on_c, 14, 45, 80
15, 1546860, Note_off_c, 14, 45, 64
15, 1546860, Note_on_c, 14, 48, 91
15, 1547100, Note_off_c, 14, 48, 64
15, 1547100, Note_on_c, 14, 51, 96
15, 1547500, Note_off_c, 14, 51, 64
15, 1547580, Note_on_c, 14, 48, 108
15, 1547815, Note_off_c, 14, 48, 64
15, 1547820, Note_on_c, 14, 51, 108
15, 1548220, Note_off_c, 14, 51, 64
15, 1548300, Note_on_c, 14, 48, 108
15, 1548535, Note_off_c, 14, 48, 64
15, 1548540, Note_on_c, 14, 45, 108
15, 1548940, Note_off_c, 14, 45, 64
15, 1549020, Note_on_c, 14, 41, 108
15, 1549255, Note_off_c, 14, 41, 64
15, 1549260, Note_on_c, 14, 39, 108
15, 1549660, Note_off_c, 14, 39, 64
15, 1549740, Note_on_c, 14, 36, 108
15, 1549975, Note_off_c, 14, 36, 64
15, 1549980, Note_on_c, 14, 33, 108
15, 1550380, Note_off_c, 14, 33, 64
15, 1550460, Note_on_c, 14, 29, 108
15, 1550695, Note_off_c, 14, 29, 64
15, 1550700, Note_on_c, 14, 34, 108
15, 1551100, Note_off_c, 14, 34, 64
15, 1553340, Note_on_c, 14, 29, 108
15, 1553580, Note_off_c, 14, 29, 64
15, 1553580, Note_on_c, 14, 36, 108
15, 1553980, Note_off_c, 14, 36, 64
15, 1556220, Note_on_c, 14, 29, 108
15, 1556460, Note_off_c, 14, 29, 64
15, 1556460, Note_on_c, 14, 41, 108
15, 1556860, Note_off_c, 14, 41, 64
15, 1559100, Note_on_c, 14, 29, 108
15, 1559340, Note_off_c, 14, 29, 64
15, 1559340, Note_on_c, 14, 34, 108
15, 1559740, Note_off_c, 14, 34, 64
15, 1560540, Note_on_c, 14, 34, 108
15, 1560780, Note_off_c, 14, 34, 64
15, 1560780, Note_on_c, 14, 39, 108
15, 1561180, Note_off_c, 14, 39, 64
15, 1561980, Note_on_c, 14, 39, 108
15, 1562220, Note_off_c, 14, 39, 64
15, 1562220, Note_on_c, 14, 34, 108
15, 1562620, Note_off_c, 14, 34, 64
15, 1563420, Note_on_c, 14, 34, 108
15, 1563660, Note_off_c, 14, 34, 64
15, 1563660, Note_on_c, 14, 29, 108
15, 1564060, Note_off_c, 14, 29, 64
15, 1564860, Note_on_c, 14, 29, 108
15, 1565100, Note_off_c, 14, 29, 64
15, 1565100, Note_on_c, 14, 34, 108
15, 1565500, Note_off_c, 14, 34, 64
15, 1566300, Note_on_c, 14, 34, 108
15, 1566540, Note_off_c, 14, 34, 64
15, 1566540, Note_on_c, 14, 39, 108
15, 1566940, Note_off_c, 14, 39, 64
15, 1567740, Note_on_c, 14, 39, 108
15, 1567980, Note_off_c, 14, 39, 64
15, 1567980, Note_on_c, 14, 41, 108
15, 1568380, Note_off_c, 14, 41, 64
15, 1569180, Note_on_c, 14, 41, 75
15, 1569420, Note_off_c, 14, 41, 64
15, 1569420, Note_on_c, 14, 42, 75
15, 1570540, Note_off_c, 14, 42, 64
15, 1570620, Note_on_c, 14, 43, 75
15, 1570855, Note_off_c, 14, 43, 64
15, 1570860, Note_on_c, 14, 44, 60
15, 1572300, Note_off_c, 14, 44, 64
15, 1572300, Note_on_c, 14, 44, 45
15, 1572700, Note_off_c, 14, 44, 64
15, 1573500, Program_c, 14, 32
15, 1573500, Note_on_c, 14, 32, 45
15, 1573735, Note_off_c, 14, 32, 64
15, 1573740, Note_on_c, 14, 33, 45
15, 1574140, Note_off_c, 14, 33, 64
15, 1574940, Note_on_c, 14, 33, 45
15, 1575175, Note_off_c, 14, 33, 64
15, 1575180, Note_on_c, 14, 34, 45
15, 1575580, Note_off_c, 14, 34, 64
15, 1576380, Note_on_c, 14, 34, 45
15, 1576615, Note_off_c, 14, 34, 64
15, 1576620, Note_on_c, 14, 35, 45
15, 1577020, Note_off_c, 14, 35, 64
15, 1577820, Program_c, 14, 43
15, 1577820, Note_on_c, 14, 31, 45
15, 1578055, Note_off_c, 14, 31, 64
15, 1578060, Note_on_c, 14, 36, 45
15, 1579180, Note_off_c, 14, 36, 64
15, 1579260, Note_on_c, 14, 36, 45
15, 1579495, Note_off_c, 14, 36, 64
15, 1579500, Note_on_c, 14, 36, 45
15, 1580620, Note_off_c, 14, 36, 64
15, 1580700, Note_on_c, 14, 36, 92
15, 1580935, Note_off_c, 14, 36, 64
15, 1580940, Note_on_c, 14, 36, 92
15, 1581895, Note_off_c, 14, 36, 64
15, 1582140, Note_on_c, 14, 36, 92
15, 1582375, Note_off_c, 14, 36, 64
15, 1582380, Note_on_c, 14, 36, 92
15, 1583335, Note_off_c, 14, 36, 64
15, 1583580, Note_on_c, 14, 36, 92
15, 1583815, Note_off_c, 14, 36, 64
15, 1583820, Note_on_c, 14, 36, 45
15, 1584940, Note_off_c, 14, 36, 64
15, 1585020, Note_on_c, 14, 36, 45
15, 1585255, Note_off_c, 14, 36, 64
15, 1585260, Note_on_c, 14, 36, 45
15, 1586380, Note_off_c, 14, 36, 64
15, 1586460, Note_on_c, 14, 36, 92
15, 1586695, Note_off_c, 14, 36, 64
15, 1586700, Note_on_c, 14, 36, 92
15, 1587655, Note_off_c, 14, 36, 64
15, 1587900, Note_on_c, 14, 36, 98
15, 1588135, Note_off_c, 14, 36, 64
15, 1588140, Note_on_c, 14, 36, 99
15, 1589095, Note_off_c, 14, 36, 64
15, 1589340, Note_on_c, 14, 36, 106
15, 1589575, Note_off_c, 14, 36, 64
15, 1589580, Note_on_c, 14, 36, 108
15, 1590535, Note_off_c, 14, 36, 64
15, 1590780, Note_on_c, 14, 36, 108
15, 1591015, Note_off_c, 14, 36, 64
15, 1591020, Note_on_c, 14, 36, 108
15, 1591975, Note_off_c, 14, 36, 64
15, 1592220, Note_on_c, 14, 36, 108
15, 1592455, Note_off_c, 14, 36, 64
15, 1592460, Note_on_c, 14, 36, 45
15, 1598100, Note_off_c, 14, 36, 64
15, 1598220, Note_on_c, 14, 36, 45
15, 1600300, Note_off_c, 14, 36, 64
15, 1600380, Note_on_c, 14, 29, 45
15, 1603860, Note_off_c, 14, 29, 64
15, 1603980, Note_on_c, 14, 29, 45
15, 1604380, Note_off_c, 14, 29, 64
15, 1615260, Program_c, 14, 32
15, 1615260, Note_on_c, 14, 41, 45
15, 1615495, Note_off_c, 14, 41, 64
15, 1615500, Note_on_c, 14, 41, 60
15, 1615900, Note_off_c, 14, 41, 64
15, 1616700, Note_on_c, 14, 41, 60
15, 1616935, Note_off_c, 14, 41, 64
15, 1616940, Note_on_c, 14, 41, 60
15, 1617340, Note_off_c, 14, 41, 64
15, 1618140, Note_on_c, 14, 41, 60
15, 1618375, Note_off_c, 14, 41, 64
15, 1618380, Note_on_c, 14, 41, 60
15, 1618780, Note_off_c, 14, 41, 64
15, 1619580, Note_on_c, 14, 41, 60
15, 1619815, Note_off_c, 14, 41, 64
15, 1619820, Note_on_c, 14, 38, 60
15, 1620220, Note_off_c, 14, 38, 64
15, 1621020, Note_on_c, 14, 40, 60
15, 1621255, Note_off_c, 14, 40, 64
15, 1621260, Note_on_c, 14, 40, 60
15, 1621660, Note_off_c, 14, 40, 64
15, 1622460, Note_on_c, 14, 36, 60
15, 1622695, Note_off_c, 14, 36, 64
15, 1622700, Note_on_c, 14, 41, 60
15, 1623100, Note_off_c, 14, 41, 64
15, 1623420, Note_on_c, 14, 38, 67
15, 1623820, Note_off_c, 14, 38, 64
15, 1623900, Note_on_c, 14, 33, 72
15, 1624135, Note_off_c, 14, 33, 64
15, 1624140, Note_on_c, 14, 34, 74
15, 1624540, Note_off_c, 14, 34, 64
15, 1624860, Note_on_c, 14, 36, 81
15, 1625260, Note_off_c, 14, 36, 64
15, 1625340, Note_on_c, 14, 36, 87
15, 1625575, Note_off_c, 14, 36, 64
15, 1625580, Note_on_c, 14, 41, 90
15, 1625980, Note_off_c, 14, 41, 64
15, 1627020, Program_c, 14, 48
15, 1627020, Note_on_c, 14, 29, 108
15, 1627255, Note_off_c, 14, 29, 64
15, 1627260, Note_on_c, 14, 41, 108
15, 1627495, Note_off_c, 14, 41, 64
15, 1627500, Note_on_c, 14, 41, 108
15, 1627735, Note_off_c, 14, 41, 64
15, 1627740, Note_on_c, 14, 41, 108
15, 1627975, Note_off_c, 14, 41, 64
15, 1627980, Note_on_c, 14, 29, 108
15, 1628215, Note_off_c, 14, 29, 64
15, 1628220, Note_on_c, 14, 29, 108
15, 1628455, Note_off_c, 14, 29, 64
15, 1628460, Note_on_c, 14, 29, 108
15, 1628695, Note_off_c, 14, 29, 64
15, 1628700, Note_on_c, 14, 41, 108
15, 1628935, Note_off_c, 14, 41, 64
15, 1628940, Note_on_c, 14, 41, 108
15, 1629175, Note_off_c, 14, 41, 64
15, 1629180, Note_on_c, 14, 41, 108
15, 1629415, Note_off_c, 14, 41, 64
15, 1629420, Note_on_c, 14, 29, 108
15, 1629655, Note_off_c, 14, 29, 64
15, 1629660, Note_on_c, 14, 29, 108
15, 1629895, Note_off_c, 14, 29, 64
15, 1629900, Note_on_c, 14, 29, 108
15, 1630135, Note_off_c, 14, 29, 64
15, 1630140, Note_on_c, 14, 41, 108
15, 1630375, Note_off_c, 14, 41, 64
15, 1630380, Note_on_c, 14, 41, 108
15, 1630615, Note_off_c, 14, 41, 64
15, 1630620, Note_on_c, 14, 41, 108
15, 1630855, Note_off_c, 14, 41, 64
15, 1630860, Note_on_c, 14, 29, 108
15, 1631095, Note_off_c, 14, 29, 64
15, 1631100, Note_on_c, 14, 29, 108
15, 1631335, Note_off_c, 14, 29, 64
15, 1631340, Note_on_c, 14, 38, 108
15, 1631575, Note_off_c, 14, 38, 64
15, 1631580, Note_on_c, 14, 50, 108
15, 1631815, Note_off_c, 14, 50, 64
15, 1631820, Note_on_c, 14, 50, 108
15, 1632055, Note_off_c, 14, 50, 64
15, 1632060, Note_on_c, 14, 50, 108
15, 1632295, Note_off_c, 14, 50, 64
15, 1632300, Note_on_c, 14, 38, 108
15, 1632535, Note_off_c, 14, 38, 64
15, 1632540, Note_on_c, 14, 40, 108
15, 1632775, Note_off_c, 14, 40, 64
15, 1632780, Note_on_c, 14, 40, 108
15, 1633015, Note_off_c, 14, 40, 64
15, 1633020, Note_on_c, 14, 52, 108
15, 1633255, Note_off_c, 14, 52, 64
15, 1633260, Note_on_c, 14, 40, 108
15, 1633495, Note_off_c, 14, 40, 64
15, 1633500, Note_on_c, 14, 40, 108
15, 1633735, Note_off_c, 14, 40, 64
15, 1633740, Note_on_c, 14, 40, 108
15, 1633975, Note_off_c, 14, 40, 64
15, 1633980, Note_on_c, 14, 36, 108
15, 1634215, Note_off_c, 14, 36, 64
15, 1634220, Note_on_c, 14, 29, 108
15, 1634455, Note_off_c, 14, 29, 64
15, 1634460, Note_on_c, 14, 41, 108
15, 1634695, Note_off_c, 14, 41, 64
15, 1634700, Note_on_c, 14, 41, 108
15, 1634935, Note_off_c, 14, 41, 64
15, 1634940, Note_on_c, 14, 38, 108
15, 1635175, Note_off_c, 14, 38, 64
15, 1635180, Note_on_c, 14, 38, 108
15, 1635415, Note_off_c, 14, 38, 64
15, 1635420, Note_on_c, 14, 33, 108
15, 1635655, Note_off_c, 14, 33, 64
15, 1635660, Note_on_c, 14, 34, 108
15, 1635895, Note_off_c, 14, 34, 64
15, 1635900, Note_on_c, 14, 46, 108
15, 1636135, Note_off_c, 14, 46, 64
15, 1636140, Note_on_c, 14, 34, 108
15, 1636375, Note_off_c, 14, 34, 64
15, 1636380, Note_on_c, 14, 36, 108
15, 1636615, Note_off_c, 14, 36, 64
15, 1636620, Note_on_c, 14, 36, 108
15, 1636855, Note_off_c, 14, 36, 64
15, 1636860, Note_on_c, 14, 36, 108
15, 1637095, Note_off_c, 14, 36, 64
15, 1637100, Note_on_c, 14, 29, 92
15, 1637500, Note_off_c, 14, 29, 64
15, 1639740, Note_on_c, 14, 34, 92
15, 1639975, Note_off_c, 14, 34, 64
15, 1639980, Note_on_c, 14, 33, 92
15, 1640620, Note_off_c, 14, 33, 64
15, 1640700, Note_on_c, 14, 40, 92
15, 1641340, Note_off_c, 14, 40, 64
15, 1641420, Note_on_c, 14, 41, 92
15, 1642060, Note_off_c, 14, 41, 64
15, 1642140, Note_on_c, 14, 36, 92
15, 1642540, Note_off_c, 14, 36, 64
15, 1642620, Note_on_c, 14, 36, 92
15, 1642855, Note_off_c, 14, 36, 64
15, 1644060, Note_on_c, 14, 36, 92
15, 1644295, Note_off_c, 14, 36, 64
15, 1644300, Note_on_c, 14, 41, 92
15, 1644940, Note_off_c, 14, 41, 64
15, 1645020, Note_on_c, 14, 43, 92
15, 1645420, Note_off_c, 14, 43, 64
15, 1645500, Note_on_c, 14, 31, 92
15, 1645735, Note_off_c, 14, 31, 64
15, 1645740, Note_on_c, 14, 33, 92
15, 1646140, Note_off_c, 14, 33, 64
15, 1646940, Note_on_c, 14, 35, 92
15, 1647175, Note_off_c, 14, 35, 64
15, 1647180, Note_on_c, 14, 36, 92
15, 1647580, Note_off_c, 14, 36, 64
15, 1648380, Note_on_c, 14, 38, 92
15, 1648615, Note_off_c, 14, 38, 64
15, 1648620, Note_on_c, 14, 40, 92
15, 1649020, Note_off_c, 14, 40, 64
15, 1649820, Note_on_c, 14, 41, 92
15, 1650055, Note_off_c, 14, 41, 64
15, 1650060, Note_on_c, 14, 43, 92
15, 1650460, Note_off_c, 14, 43, 64
15, 1650540, Note_on_c, 14, 36, 92
15, 1650775, Note_off_c, 14, 36, 64
15, 1650780, Note_on_c, 14, 36, 92
15, 1651180, Note_off_c, 14, 36, 64
15, 1651260, Note_on_c, 14, 36, 92
15, 1651495, Note_off_c, 14, 36, 64
15, 1651500, Note_on_c, 14, 36, 92
15, 1652820, Note_off_c, 14, 36, 64
15, 1653660, Note_on_c, 14, 38, 92
15, 1653900, Note_off_c, 14, 38, 64
15, 1653900, Note_on_c, 14, 36, 92
15, 1654135, Note_off_c, 14, 36, 64
15, 1654140, Note_on_c, 14, 33, 92
15, 1654220, Note_off_c, 14, 33, 64
15, 1654260, Note_on_c, 14, 29, 92
15, 1654340, Note_off_c, 14, 29, 64
15, 1654380, Note_on_c, 14, 24, 92
15, 1655700, Note_off_c, 14, 24, 64
15, 1656540, Note_on_c, 14, 36, 92
15, 1656780, Note_off_c, 14, 36, 64
15, 1656780, Note_on_c, 14, 34, 92
15, 1657015, Note_off_c, 14, 34, 64
15, 1657020, Note_on_c, 14, 31, 92
15, 1657100, Note_off_c, 14, 31, 64
15, 1657140, Note_on_c, 14, 28, 92
15, 1657220, Note_off_c, 14, 28, 64
15, 1657260, Note_on_c, 14, 24, 92
15, 1658580, Note_off_c, 14, 24, 64
15, 1659420, Note_on_c, 14, 38, 92
15, 1659540, Note_off_c, 14, 38, 64
15, 1659540, Note_on_c, 14, 36, 92
15, 1659620, Note_off_c, 14, 36, 64
15, 1659660, Note_on_c, 14, 35, 92
15, 1659740, Note_off_c, 14, 35, 64
15, 1659780, Note_on_c, 14, 36, 92
15, 1659860, Note_off_c, 14, 36, 64
15, 1659900, Note_on_c, 14, 33, 92
15, 1659980, Note_off_c, 14, 33, 64
15, 1660020, Note_on_c, 14, 29, 92
15, 1660100, Note_off_c, 14, 29, 64
15, 1660140, Note_on_c, 14, 24, 92
15, 1661460, Note_off_c, 14, 24, 64
15, 1662300, Note_on_c, 14, 36, 92
15, 1662420, Note_off_c, 14, 36, 64
15, 1662420, Note_on_c, 14, 34, 92
15, 1662500, Note_off_c, 14, 34, 64
15, 1662540, Note_on_c, 14, 33, 92
15, 1662620, Note_off_c, 14, 33, 64
15, 1662660, Note_on_c, 14, 34, 92
15, 1662740, Note_off_c, 14, 34, 64
15, 1662780, Note_on_c, 14, 36, 92
15, 1662860, Note_off_c, 14, 36, 64
15, 1662900, Note_on_c, 14, 36, 92
15, 1662980, Note_off_c, 14, 36, 64
15, 1663020, Note_on_c, 14, 29, 92
15, 1663420, Note_off_c, 14, 29, 64
15, 1664940, Note_on_c, 14, 41, 92
15, 1665180, Note_off_c, 14, 41, 64
15, 1665180, Note_on_c, 14, 36, 92
15, 1665580, Note_off_c, 14, 36, 64
15, 1665660, Note_on_c, 14, 36, 92
15, 1665895, Note_off_c, 14, 36, 64
15, 1665900, Note_on_c, 14, 41, 92
15, 1666300, Note_off_c, 14, 41, 64
15, 1667820, Note_on_c, 14, 29, 97
15, 1668060, Note_off_c, 14, 29, 64
15, 1668060, Note_on_c, 14, 36, 99
15, 1668460, Note_off_c, 14, 36, 64
15, 1668540, Note_on_c, 14, 36, 105
15, 1668620, Note_off_c, 14, 36, 64
15, 1668780, Note_on_c, 14, 29, 108
15, 1669735, Note_off_c, 14, 29, 64
15, 1669980, Note_on_c, 14, 29, 108
15, 1670060, Note_off_c, 14, 29, 64
15, 1670220, Note_on_c, 14, 34, 108
15, 1671175, Note_off_c, 14, 34, 64
15, 1671420, Note_on_c, 14, 34, 108
15, 1671500, Note_off_c, 14, 34, 64
15, 1671660, Note_on_c, 14, 36, 75
15, 1672060, Note_off_c, 14, 36, 64
15, 1687260, Note_on_c, 14, 43, 108
15, 1687495, Note_off_c, 14, 43, 64
15, 1687500, Note_on_c, 14, 40, 108
15, 1687740, Note_off_c, 14, 40, 64
15, 1687740, Note_on_c, 14, 36, 108
15, 1687980, Note_off_c, 14, 36, 64
15, 1687980, Note_on_c, 14, 43, 108
15, 1688215, Note_off_c, 14, 43, 64
15, 1688220, Note_on_c, 14, 40, 108
15, 1688460, Note_off_c, 14, 40, 64
15, 1688460, Note_on_c, 14, 52, 108
15, 1688700, Note_off_c, 14, 52, 64
15, 1688700, Note_on_c, 14, 40, 108
15, 1688935, Note_off_c, 14, 40, 64
15, 1688940, Note_on_c, 14, 43, 108
15, 1689180, Note_off_c, 14, 43, 64
15, 1689180, Note_on_c, 14, 36, 108
15, 1689420, Note_off_c, 14, 36, 64
15, 1689420, Note_on_c, 14, 48, 108
15, 1689655, Note_off_c, 14, 48, 64
15, 1689660, Note_on_c, 14, 36, 108
15, 1689900, Note_off_c, 14, 36, 64
15, 1689900, Note_on_c, 14, 48, 108
15, 1690140, Note_off_c, 14, 48, 64
15, 1690140, Note_on_c, 14, 36, 108
15, 1690375, Note_off_c, 14, 36, 64
15, 1690380, Note_on_c, 14, 45, 92
15, 1690780, Note_off_c, 14, 45, 64
15, 1697580, Program_c, 14, 32
15, 1697580, Note_on_c, 14, 36, 45
15, 1697815, Note_off_c, 14, 36, 64
15, 1697820, Note_on_c, 14, 41, 45
15, 1698220, Note_off_c, 14, 41, 64
15, 1699020, Note_on_c, 14, 41, 45
15, 1699255, Note_off_c, 14, 41, 64
15, 1699260, Note_on_c, 14, 38, 45
15, 1699660, Note_off_c, 14, 38, 64
15, 1700460, Note_on_c, 14, 38, 45
15, 1700695, Note_off_c, 14, 38, 64
15, 1700700, Note_on_c, 14, 31, 45
15, 1701100, Note_off_c, 14, 31, 64
15, 1701900, Note_on_c, 14, 31, 45
15, 1702135, Note_off_c, 14, 31, 64
15, 1702140, Note_on_c, 14, 36, 45
15, 1702540, Note_off_c, 14, 36, 64
15, 1703340, Program_c, 14, 43
15, 1703340, Note_on_c, 14, 36, 45
15, 1703575, Note_off_c, 14, 36, 64
15, 1703580, Note_on_c, 14, 29, 45
15, 1703815, Note_off_c, 14, 29, 64
15, 1703820, Note_on_c, 14, 41, 45
15, 1704055, Note_off_c, 14, 41, 64
15, 1704060, Note_on_c, 14, 41, 45
15, 1704295, Note_off_c, 14, 41, 64
15, 1704300, Note_on_c, 14, 41, 45
15, 1704535, Note_off_c, 14, 41, 64
15, 1704540, Note_on_c, 14, 41, 45
15, 1704775, Note_off_c, 14, 41, 64
15, 1704780, Note_on_c, 14, 41, 45
15, 1705015, Note_off_c, 14, 41, 64
15, 1705020, Note_on_c, 14, 38, 45
15, 1705255, Note_off_c, 14, 38, 64
15, 1705260, Note_on_c, 14, 38, 48
15, 1705495, Note_off_c, 14, 38, 64
15, 1705500, Note_on_c, 14, 38, 51
15, 1705735, Note_off_c, 14, 38, 64
15, 1705740, Note_on_c, 14, 38, 54
15, 1705975, Note_off_c, 14, 38, 64
15, 1705980, Note_on_c, 14, 38, 57
15, 1706215, Note_off_c, 14, 38, 64
15, 1706220, Note_on_c, 14, 38, 60
15, 1706455, Note_off_c, 14, 38, 64
15, 1706460, Note_on_c, 14, 31, 63
15, 1706695, Note_off_c, 14, 31, 64
15, 1706700, Note_on_c, 14, 43, 66
15, 1706935, Note_off_c, 14, 43, 64
15, 1706940, Note_on_c, 14, 43, 69
15, 1707175, Note_off_c, 14, 43, 64
15, 1707180, Note_on_c, 14, 43, 72
15, 1707415, Note_off_c, 14, 43, 64
15, 1707420, Note_on_c, 14, 43, 76
15, 1707655, Note_off_c, 14, 43, 64
15, 1707660, Note_on_c, 14, 43, 80
15, 1707895, Note_off_c, 14, 43, 64
15, 1707900, Note_on_c, 14, 36, 84
15, 1708135, Note_off_c, 14, 36, 64
15, 1708140, Note_on_c, 14, 36, 88
15, 1708375, Note_off_c, 14, 36, 64
15, 1708380, Note_on_c, 14, 36, 92
15, 1708615, Note_off_c, 14, 36, 64
15, 1708620, Note_on_c, 14, 36, 96
15, 1708855, Note_off_c, 14, 36, 64
15, 1708860, Note_on_c, 14, 36, 100
15, 1709095, Note_off_c, 14, 36, 64
15, 1709100, Note_on_c, 14, 36, 104
15, 1709335, Note_off_c, 14, 36, 64
15, 1709340, Note_on_c, 14, 29, 108
15, 1710460, Note_off_c, 14, 29, 64
15, 1710540, Note_on_c, 14, 41, 108
15, 1710780, Note_off_c, 14, 41, 64
15, 1710780, Note_on_c, 14, 45, 108
15, 1711260, Note_off_c, 14, 45, 64
15, 1711260, Note_on_c, 14, 48, 108
15, 1711500, Note_off_c, 14, 48, 64
15, 1711500, Note_on_c, 14, 53, 108
15, 1711900, Note_off_c, 14, 53, 64
15, 1711980, Note_on_c, 14, 29, 108
15, 1712060, Note_off_c, 14, 29, 64
15, 1712220, Note_on_c, 14, 26, 108
15, 1713340, Note_off_c, 14, 26, 64
15, 1713420, Note_on_c, 14, 38, 108
15, 1713660, Note_off_c, 14, 38, 64
15, 1713660, Note_on_c, 14, 41, 108
15, 1714140, Note_off_c, 14, 41, 64
15, 1714140, Note_on_c, 14, 45, 108
15, 1714380, Note_off_c, 14, 45, 64
15, 1714380, Note_on_c, 14, 50, 108
15, 1714780, Note_off_c, 14, 50, 64
15, 1714860, Note_on_c, 14, 38, 108
15, 1714940, Note_off_c, 14, 38, 64
15, 1715100, Note_on_c, 14, 31, 108
15, 1716220, Note_off_c, 14, 31, 64
15, 1716300, Note_on_c, 14, 43, 108
15, 1716540, Note_off_c, 14, 43, 64
15, 1716540, Note_on_c, 14, 47, 108
15, 1717020, Note_off_c, 14, 47, 64
15, 1717020, Note_on_c, 14, 50, 108
15, 1717260, Note_off_c, 14, 50, 64
15, 1717260, Note_on_c, 14, 55, 108
15, 1717660, Note_off_c, 14, 55, 64
15, 1717740, Note_on_c, 14, 43, 108
15, 1717820, Note_off_c, 14, 43, 64
15, 1726380, Program_c, 14, 48
15, 1726380, Note_on_c, 14, 52, 60
15, 1726620, Note_off_c, 14, 52, 64
15, 1726620, Note_on_c, 14, 48, 64
15, 1726860, Note_off_c, 14, 48, 64
15, 1726860, Note_on_c, 14, 46, 68
15, 1727100, Note_off_c, 14, 46, 64
15, 1727100, Note_on_c, 14, 48, 72
15, 1727340, Note_off_c, 14, 48, 64
15, 1727340, Note_on_c, 14, 46, 76
15, 1727580, Note_off_c, 14, 46, 64
15, 1727580, Note_on_c, 14, 43, 80
15, 1727820, Note_off_c, 14, 43, 64
15, 1727820, Note_on_c, 14, 46, 84
15, 1728060, Note_off_c, 14, 46, 64
15, 1728060, Note_on_c, 14, 43, 88
15, 1728300, Note_off_c, 14, 43, 64
15, 1728300, Note_on_c, 14, 40, 92
15, 1728540, Note_off_c, 14, 40, 64
15, 1728540, Note_on_c, 14, 43, 96
15, 1728780, Note_off_c, 14, 43, 64
15, 1728780, Note_on_c, 14, 40, 100
15, 1729020, Note_off_c, 14, 40, 64
15, 1729020, Note_on_c, 14, 36, 104
15, 1729260, Note_off_c, 14, 36, 64
15, 1729260, Note_on_c, 14, 40, 108
15, 1729495, Note_off_c, 14, 40, 64
15, 1729500, Note_on_c, 14, 36, 108
15, 1729740, Note_off_c, 14, 36, 64
15, 1729740, Note_on_c, 14, 34, 108
15, 1729980, Note_off_c, 14, 34, 64
15, 1729980, Note_on_c, 14, 36, 108
15, 1730220, Note_off_c, 14, 36, 64
15, 1730220, Note_on_c, 14, 34, 108
15, 1730460, Note_off_c, 14, 34, 64
15, 1730460, Note_on_c, 14, 31, 108
15, 1730695, Note_off_c, 14, 31, 64
15, 1730700, Note_on_c, 14, 46, 108
15, 1730780, Note_off_c, 14, 46, 64
15, 1730940, Note_on_c, 14, 43, 108
15, 1731020, Note_off_c, 14, 43, 64
15, 1731180, Note_on_c, 14, 40, 108
15, 1731260, Note_off_c, 14, 40, 64
15, 1731420, Note_on_c, 14, 36, 108
15, 1731500, Note_off_c, 14, 36, 64
15, 1731660, Note_on_c, 14, 31, 108
15, 1731740, Note_off_c, 14, 31, 64
15, 1731900, Note_on_c, 14, 24, 108
15, 1731980, Note_off_c, 14, 24, 64
15, 1732140, Note_on_c, 14, 36, 108
15, 1732220, Note_off_c, 14, 36, 64
15, 1732380, Note_on_c, 14, 41, 75
15, 1732780, Note_off_c, 14, 41, 64
15, 1739340, Program_c, 14, 32
15, 1739340, Note_on_c, 14, 36, 45
15, 1739575, Note_off_c, 14, 36, 64
15, 1739580, Note_on_c, 14, 41, 45
15, 1739980, Note_off_c, 14, 41, 64
15, 1740780, Note_on_c, 14, 38, 45
15, 1741015, Note_off_c, 14, 38, 64
15, 1741020, Note_on_c, 14, 38, 45
15, 1741420, Note_off_c, 14, 38, 64
15, 1742220, Note_on_c, 14, 38, 45
15, 1742455, Note_off_c, 14, 38, 64
15, 1742460, Note_on_c, 14, 43, 45
15, 1742860, Note_off_c, 14, 43, 64
15, 1743660, Note_on_c, 14, 43, 45
15, 1743895, Note_off_c, 14, 43, 64
15, 1743900, Note_on_c, 14, 36, 45
15, 1744300, Note_off_c, 14, 36, 64
15, 1745100, Note_on_c, 14, 36, 45
15, 1745335, Note_off_c, 14, 36, 64
15, 1745340, Program_c, 14, 48
15, 1745340, Note_on_c, 14, 29, 45
15, 1745455, Note_off_c, 14, 29, 64
15, 1745460, Note_on_c, 14, 41, 45
15, 1745575, Note_off_c, 14, 41, 64
15, 1745580, Note_on_c, 14, 41, 45
15, 1745695, Note_off_c, 14, 41, 64
15, 1745700, Note_on_c, 14, 41, 45
15, 1745815, Note_off_c, 14, 41, 64
15, 1745820, Note_on_c, 14, 39, 45
15, 1745935, Note_off_c, 14, 39, 64
15, 1745940, Note_on_c, 14, 39, 45
15, 1746055, Note_off_c, 14, 39, 64
15, 1746060, Note_on_c, 14, 38, 45
15, 1746175, Note_off_c, 14, 38, 64
15, 1746180, Note_on_c, 14, 38, 45
15, 1746295, Note_off_c, 14, 38, 64
15, 1746300, Note_on_c, 14, 38, 45
15, 1746415, Note_off_c, 14, 38, 64
15, 1746420, Note_on_c, 14, 38, 45
15, 1746535, Note_off_c, 14, 38, 64
15, 1746540, Note_on_c, 14, 38, 45
15, 1746655, Note_off_c, 14, 38, 64
15, 1746660, Note_on_c, 14, 38, 45
15, 1746775, Note_off_c, 14, 38, 64
15, 1746780, Note_on_c, 14, 38, 45
15, 1746895, Note_off_c, 14, 38, 64
15, 1746900, Note_on_c, 14, 50, 46
15, 1747015, Note_off_c, 14, 50, 64
15, 1747020, Note_on_c, 14, 50, 47
15, 1747135, Note_off_c, 14, 50, 64
15, 1747140, Note_on_c, 14, 50, 48
15, 1747255, Note_off_c, 14, 50, 64
15, 1747260, Note_on_c, 14, 50, 49
15, 1747375, Note_off_c, 14, 50, 64
15, 1747380, Note_on_c, 14, 50, 50
15, 1747495, Note_off_c, 14, 50, 64
15, 1747500, Note_on_c, 14, 50, 51
15, 1747615, Note_off_c, 14, 50, 64
15, 1747620, Note_on_c, 14, 38, 52
15, 1747735, Note_off_c, 14, 38, 64
15, 1747740, Note_on_c, 14, 38, 53
15, 1747855, Note_off_c, 14, 38, 64
15, 1747860, Note_on_c, 14, 38, 54
15, 1747975, Note_off_c, 14, 38, 64
15, 1747980, Note_on_c, 14, 38, 56
15, 1748095, Note_off_c, 14, 38, 64
15, 1748100, Note_on_c, 14, 38, 58
15, 1748215, Note_off_c, 14, 38, 64
15, 1748220, Note_on_c, 14, 31, 59
15, 1748335, Note_off_c, 14, 31, 64
15, 1748340, Note_on_c, 14, 43, 61
15, 1748455, Note_off_c, 14, 43, 64
15, 1748460, Note_on_c, 14, 43, 63
15, 1748575, Note_off_c, 14, 43, 64
15, 1748580, Note_on_c, 14, 43, 65
15, 1748695, Note_off_c, 14, 43, 64
15, 1748700, Note_on_c, 14, 43, 67
15, 1748815, Note_off_c, 14, 43, 64
15, 1748820, Note_on_c, 14, 43, 69
15, 1748935, Note_off_c, 14, 43, 64
15, 1748940, Note_on_c, 14, 43, 71
15, 1749055, Note_off_c, 14, 43, 64
15, 1749060, Note_on_c, 14, 31, 73
15, 1749175, Note_off_c, 14, 31, 64
15, 1749180, Note_on_c, 14, 31, 75
15, 1749295, Note_off_c, 14, 31, 64
15, 1749300, Note_on_c, 14, 31, 77
15, 1749415, Note_off_c, 14, 31, 64
15, 1749420, Note_on_c, 14, 31, 79
15, 1749535, Note_off_c, 14, 31, 64
15, 1749540, Note_on_c, 14, 31, 81
15, 1749655, Note_off_c, 14, 31, 64
15, 1749660, Note_on_c, 14, 36, 83
15, 1749775, Note_off_c, 14, 36, 64
15, 1749780, Note_on_c, 14, 48, 85
15, 1749895, Note_off_c, 14, 48, 64
15, 1749900, Note_on_c, 14, 48, 87
15, 1750015, Note_off_c, 14, 48, 64
15, 1750020, Note_on_c, 14, 48, 89
15, 1750135, Note_off_c, 14, 48, 64
15, 1750140, Note_on_c, 14, 48, 91
15, 1750255, Note_off_c, 14, 48, 64
15, 1750260, Note_on_c, 14, 48, 93
15, 1750375, Note_off_c, 14, 48, 64
15, 1750380, Note_on_c, 14, 48, 95
15, 1750495, Note_off_c, 14, 48, 64
15, 1750500, Note_on_c, 14, 36, 97
15, 1750615, Note_off_c, 14, 36, 64
15, 1750620, Note_on_c, 14, 36, 99
15, 1750735, Note_off_c, 14, 36, 64
15, 1750740, Note_on_c, 14, 34, 101
15, 1750855, Note_off_c, 14, 34, 64
15, 1750860, Note_on_c, 14, 33, 103
15, 1750975, Note_off_c, 14, 33, 64
15, 1750980, Note_on_c, 14, 31, 105
15, 1751095, Note_off_c, 14, 31, 64
15, 1751100, Note_on_c, 14, 29, 108
15, 1751580, Note_off_c, 14, 29, 64
15, 1751580, Note_on_c, 14, 33, 108
15, 1751820, Note_off_c, 14, 33, 64
15, 1751820, Note_on_c, 14, 36, 108
15, 1752300, Note_off_c, 14, 36, 64
15, 1752300, Note_on_c, 14, 41, 108
15, 1752540, Note_off_c, 14, 41, 64
15, 1752540, Note_on_c, 14, 45, 108
15, 1753020, Note_off_c, 14, 45, 64
15, 1753020, Note_on_c, 14, 48, 108
15, 1753260, Note_off_c, 14, 48, 64
15, 1753260, Note_on_c, 14, 53, 108
15, 1753495, Note_off_c, 14, 53, 64
15, 1753740, Note_on_c, 14, 29, 108
15, 1753820, Note_off_c, 14, 29, 64
15, 1753980, Note_on_c, 14, 26, 108
15, 1754460, Note_off_c, 14, 26, 64
15, 1754460, Note_on_c, 14, 29, 108
15, 1754700, Note_off_c, 14, 29, 64
15, 1754700, Note_on_c, 14, 33, 108
15, 1755180, Note_off_c, 14, 33, 64
15, 1755180, Note_on_c, 14, 38, 108
15, 1755420, Note_off_c, 14, 38, 64
15, 1755420, Note_on_c, 14, 41, 108
15, 1755900, Note_off_c, 14, 41, 64
15, 1755900, Note_on_c, 14, 45, 108
15, 1756140, Note_off_c, 14, 45, 64
15, 1756140, Note_on_c, 14, 50, 108
15, 1756375, Note_off_c, 14, 50, 64
15, 1756620, Note_on_c, 14, 38, 108
15, 1756700, Note_off_c, 14, 38, 64
15, 1756860, Note_on_c, 14, 31, 108
15, 1757340, Note_off_c, 14, 31, 64
15, 1757340, Note_on_c, 14, 35, 108
15, 1757580, Note_off_c, 14, 35, 64
15, 1757580, Note_on_c, 14, 38, 108
15, 1758060, Note_off_c, 14, 38, 64
15, 1758060, Note_on_c, 14, 43, 108
15, 1758300, Note_off_c, 14, 43, 64
15, 1758300, Note_on_c, 14, 47, 108
15, 1758780, Note_off_c, 14, 47, 64
15, 1758780, Note_on_c, 14, 50, 108
15, 1759020, Note_off_c, 14, 50, 64
15, 1759020, Note_on_c, 14, 55, 108
15, 1759255, Note_off_c, 14, 55, 64
15, 1759500, Note_on_c, 14, 31, 108
15, 1759580, Note_off_c, 14, 31, 64
15, 1759740, Note_on_c, 14, 24, 108
15, 1760220, Note_off_c, 14, 24, 64
15, 1760220, Note_on_c, 14, 31, 108
15, 1760460, Note_off_c, 14, 31, 64
15, 1760460, Note_on_c, 14, 36, 108
15, 1760940, Note_off_c, 14, 36, 64
15, 1760940, Note_on_c, 14, 43, 108
15, 1761180, Note_off_c, 14, 43, 64
15, 1761180, Note_on_c, 14, 48, 108
15, 1761660, Note_off_c, 14, 48, 64
15, 1761660, Note_on_c, 14, 52, 108
15, 1761900, Note_off_c, 14, 52, 64
15, 1761900, Note_on_c, 14, 55, 108
15, 1762135, Note_off_c, 14, 55, 64
15, 1762380, Note_on_c, 14, 36, 108
15, 1762460, Note_off_c, 14, 36, 64
15, 1762620, Note_on_c, 14, 29, 108
15, 1763100, Note_off_c, 14, 29, 64
15, 1763100, Note_on_c, 14, 33, 108
15, 1763340, Note_off_c, 14, 33, 64
15, 1763340, Note_on_c, 14, 36, 108
15, 1763820, Note_off_c, 14, 36, 64
15, 1763820, Note_on_c, 14, 41, 108
15, 1764060, Note_off_c, 14, 41, 64
15, 1764060, Note_on_c, 14, 45, 108
15, 1764540, Note_off_c, 14, 45, 64
15, 1764540, Note_on_c, 14, 48, 108
15, 1764780, Note_off_c, 14, 48, 64
15, 1764780, Note_on_c, 14, 53, 108
15, 1765015, Note_off_c, 14, 53, 64
15, 1765260, Note_on_c, 14, 29, 108
15, 1765340, Note_off_c, 14, 29, 64
15, 1765500, Note_on_c, 14, 29, 108
15, 1765980, Note_off_c, 14, 29, 64
15, 1765980, Note_on_c, 14, 34, 108
15, 1766220, Note_off_c, 14, 34, 64
15, 1766220, Note_on_c, 14, 38, 108
15, 1766700, Note_off_c, 14, 38, 64
15, 1766700, Note_on_c, 14, 41, 108
15, 1766940, Note_off_c, 14, 41, 64
15, 1766940, Note_on_c, 14, 46, 108
15, 1767420, Note_off_c, 14, 46, 64
15, 1767420, Note_on_c, 14, 50, 108
15, 1767660, Note_off_c, 14, 50, 64
15, 1767660, Note_on_c, 14, 53, 108
15, 1767895, Note_off_c, 14, 53, 64
15, 1768140, Note_on_c, 14, 29, 108
15, 1768220, Note_off_c, 14, 29, 64
15, 1768380, Note_on_c, 14, 29, 92
15, 1768860, Note_off_c, 14, 29, 64
15, 1768860, Note_on_c, 14, 34, 92
15, 1769100, Note_off_c, 14, 34, 64
15, 1769100, Note_on_c, 14, 36, 92
15, 1769580, Note_off_c, 14, 36, 64
15, 1769580, Note_on_c, 14, 40, 92
15, 1769820, Note_off_c, 14, 40, 64
15, 1769820, Note_on_c, 14, 46, 75
15, 1770300, Note_off_c, 14, 46, 64
15, 1770300, Note_on_c, 14, 48, 75
15, 1770540, Note_off_c, 14, 48, 64
15, 1770540, Note_on_c, 14, 52, 75
15, 1770940, Note_off_c, 14, 52, 64
15, 1771020, Note_on_c, 14, 41, 60
15, 1771260, Note_off_c, 14, 41, 64
15, 1771260, Note_on_c, 14, 46, 60
15, 1771740, Note_off_c, 14, 46, 64
15, 1771740, Note_on_c, 14, 48, 60
15, 1771980, Note_off_c, 14, 48, 64
15, 1771980, Note_on_c, 14, 52, 60
15, 1772380, Note_off_c, 14, 52, 64
15, 1772460, Note_on_c, 14, 29, 60
15, 1772700, Note_off_c, 14, 29, 64
15, 1772700, Note_on_c, 14, 34, 60
15, 1773180, Note_off_c, 14, 34, 64
15, 1773180, Note_on_c, 14, 36, 60
15, 1773420, Note_off_c, 14, 36, 64
15, 1773420, Note_on_c, 14, 40, 60
15, 1773655, Note_off_c, 14, 40, 64
15, 1773660, Note_on_c, 14, 29, 60
15, 1773900, Note_off_c, 14, 29, 64
15, 1773900, Note_on_c, 14, 34, 60
15, 1774140, Note_off_c, 14, 34, 64
15, 1774140, Note_on_c, 14, 36, 60
15, 1774380, Note_off_c, 14, 36, 64
15, 1774380, Note_on_c, 14, 40, 60
15, 1774615, Note_off_c, 14, 40, 64
15, 1774620, Note_on_c, 14, 29, 60
15, 1774860, Note_off_c, 14, 29, 64
15, 1774860, Note_on_c, 14, 34, 45
15, 1775100, Note_off_c, 14, 34, 64
15, 1775100, Note_on_c, 14, 36, 45
15, 1775340, Note_off_c, 14, 36, 64
15, 1775340, Note_on_c, 14, 40, 45
15, 1775575, Note_off_c, 14, 40, 64
15, 1775580, Note_on_c, 14, 29, 45
15, 1775820, Note_off_c, 14, 29, 64
15, 1775820, Note_on_c, 14, 34, 45
15, 1776060, Note_off_c, 14, 34, 64
15, 1776060, Note_on_c, 14, 36, 45
15, 1776300, Note_off_c, 14, 36, 64
15, 1776300, Note_on_c, 14, 40, 45
15, 1776535, Note_off_c, 14, 40, 64
15, 1776540, Note_on_c, 14, 34, 45
15, 1776780, Note_off_c, 14, 34, 64
15, 1776780, Note_on_c, 14, 36, 45
15, 1777020, Note_off_c, 14, 36, 64
15, 1777020, Note_on_c, 14, 29, 45
15, 1777420, Note_off_c, 14, 29, 64
15, 1789320, Note_on_c, 14, 41, 92
15, 1789960, Note_off_c, 14, 41, 64
15, 1790040, Note_on_c, 14, 38, 92
15, 1790275, Note_off_c, 14, 38, 64
15, 1790520, Note_on_c, 14, 33, 92
15, 1790755, Note_off_c, 14, 33, 64
15, 1790760, Note_on_c, 14, 34, 92
15, 1791880, Note_off_c, 14, 34, 64
15, 1795080, Note_on_c, 14, 41, 45
15, 1795320, Note_off_c, 14, 41, 64
15, 1795320, Note_on_c, 14, 36, 45
15, 1796440, Note_off_c, 14, 36, 64
15, 1796520, Note_on_c, 14, 36, 45
15, 1796760, Note_off_c, 14, 36, 64
15, 1796760, Note_on_c, 14, 41, 45
15, 1797400, Note_off_c, 14, 41, 64
15, 1801080, Note_on_c, 14, 41, 45
15, 1801320, Note_off_c, 14, 41, 64
15, 1801320, Note_on_c, 14, 36, 51
15, 1802520, Note_off_c, 14, 36, 64
15, 1802520, Note_on_c, 14, 36, 85
15, 1802755, Note_off_c, 14, 36, 64
15, 1802760, Note_on_c, 14, 48, 92
15, 1803160, Note_off_c, 14, 48, 64
15, 1803240, Note_on_c, 14, 36, 92
15, 1803475, Note_off_c, 14, 36, 64
15, 1803480, Note_on_c, 14, 40, 92
15, 1803880, Note_off_c, 14, 40, 64
15, 1803960, Note_on_c, 14, 43, 92
15, 1804195, Note_off_c, 14, 43, 64
15, 1804200, Note_on_c, 14, 46, 92
15, 1804600, Note_off_c, 14, 46, 64
15, 1804680, Note_on_c, 14, 48, 92
15, 1804915, Note_off_c, 14, 48, 64
15, 1804920, Note_on_c, 14, 52, 92
15, 1805320, Note_off_c, 14, 52, 64
15, 1805400, Note_on_c, 14, 55, 92
15, 1805635, Note_off_c, 14, 55, 64
15, 1805640, Note_on_c, 14, 58, 75
15, 1806040, Note_off_c, 14, 58, 64
15, 1806120, Note_on_c, 14, 55, 75
15, 1806355, Note_off_c, 14, 55, 64
15, 1806360, Note_on_c, 14, 52, 75
15, 1806760, Note_off_c, 14, 52, 64
15, 1806840, Note_on_c, 14, 48, 75
15, 1807075, Note_off_c, 14, 48, 64
15, 1807080, Note_on_c, 14, 46, 75
15, 1807480, Note_off_c, 14, 46, 64
15, 1807560, Note_on_c, 14, 43, 71
15, 1807795, Note_off_c, 14, 43, 64
15, 1807800, Note_on_c, 14, 40, 69
15, 1808200, Note_off_c, 14, 40, 64
15, 1808280, Note_on_c, 14, 36, 64
15, 1808515, Note_off_c, 14, 36, 64
15, 1808520, Note_on_c, 14, 29, 62
15, 1809840, Note_off_c, 14, 29, 64
15, 1810020, Note_on_c, 14, 29, 45
15, 1811340, Note_off_c, 14, 29, 64
15, 1811520, Note_on_c, 14, 29, 45
15, 1811920, Note_off_c, 14, 29, 64
15, 1815840, Note_on_c, 14, 29, 75
15, 1815960, Note_off_c, 14, 29, 64
15, 1815960, Note_on_c, 14, 31, 75
15, 1816080, Note_off_c, 14, 31, 64
15, 1816080, Note_on_c, 14, 33, 78
15, 1816200, Note_off_c, 14, 33, 64
15, 1816200, Note_on_c, 14, 34, 81
15, 1816320, Note_off_c, 14, 34, 64
15, 1816320, Note_on_c, 14, 36, 84
15, 1816440, Note_off_c, 14, 36, 64
15, 1816440, Note_on_c, 14, 35, 88
15, 1816555, Note_off_c, 14, 35, 64
15, 1816560, Note_on_c, 14, 38, 92
15, 1816680, Note_off_c, 14, 38, 64
15, 1816680, Note_on_c, 14, 36, 96
15, 1816800, Note_off_c, 14, 36, 64
15, 1816800, Note_on_c, 14, 34, 100
15, 1816920, Note_off_c, 14, 34, 64
15, 1816920, Note_on_c, 14, 33, 104
15, 1817040, Note_off_c, 14, 33, 64
15, 1817040, Note_on_c, 14, 31, 108
15, 1817160, Note_off_c, 14, 31, 64
15, 1817160, Note_on_c, 14, 29, 108
15, 1817275, Note_off_c, 14, 29, 64
15, 1817280, Note_on_c, 14, 29, 108
15, 1818040, Note_off_c, 14, 29, 64
15, 1818040, End_track
0, 0, End_of_file