0, 0, Header, 1, 17, 384
1, 0, Start_track
1, 0, Time_signature, 3, 2, 96, 8
1, 0, Sequencer_specific, 03, 00, 00, 41
1, 0, Tempo, 300000
1, 433152, Time_signature, 9, 3, 96, 8
1, 433152, Tempo, 800000
1, 495360, Time_signature, 2, 2, 96, 8
1, 495360, Tempo, 600000
1, 495360, End_track
2, 0, Start_track
2, 0, Title_t, "Sonatina in G (Opus 79)"
2, 0, Control_c, 0, 0, 0
2, 0, Program_c, 0, 0
2, 0, Key_signature, 1, "major"
2, 0, Note_on_c, 0, 67, 109
2, 0, Note_on_c, 0, 79, 107
2, 0, Note_on_c, 0, 55, 84
2, 0, Note_on_c, 0, 59, 78
2, 124, Note_off_c, 0, 67, 0
2, 124, Note_off_c, 0, 79, 0
2, 188, Note_off_c, 0, 55, 0
2, 188, Note_off_c, 0, 59, 0
2, 192, Note_on_c, 0, 62, 63
2, 380, Note_off_c, 0, 62, 0
2, 384, Note_on_c, 0, 71, 100
2, 384, Note_on_c, 0, 83, 116
2, 384, Note_on_c, 0, 59, 82
2, 384, Note_on_c, 0, 55, 82
2, 508, Note_off_c, 0, 71, 0
2, 508, Note_off_c, 0, 83, 0
2, 572, Note_off_c, 0, 59, 0
2, 572, Note_off_c, 0, 55, 0
2, 576, Note_on_c, 0, 62, 76
2, 764, Note_off_c, 0, 62, 0
2, 768, Note_on_c, 0, 67, 110
2, 768, Note_on_c, 0, 79, 107
2, 768, Note_on_c, 0, 59, 87
2, 768, Note_on_c, 0, 55, 93
2, 892, Note_off_c, 0, 67, 0
2, 892, Note_off_c, 0, 79, 0
2, 956, Note_off_c, 0, 59, 0
2, 956, Note_off_c, 0, 55, 0
2, 960, Note_on_c, 0, 62, 87
2, 1148, Note_off_c, 0, 62, 0
2, 1152, Note_on_c, 0, 74, 110
2, 1152, Note_on_c, 0, 86, 86
2, 1344, Note_on_c, 0, 62, 66
2, 1532, Note_off_c, 0, 62, 0
2, 1728, Note_on_c, 0, 62, 63
2, 1916, Note_off_c, 0, 74, 0
2, 1916, Note_off_c, 0, 86, 0
2, 1916, Note_off_c, 0, 62, 0
2, 1920, Note_on_c, 0, 59, 82
2, 1920, Note_on_c, 0, 55, 82
2, 1920, Note_on_c, 0, 84, 86
2, 2108, Note_off_c, 0, 59, 0
2, 2108, Note_off_c, 0, 55, 0
2, 2108, Note_off_c, 0, 84, 0
2, 2112, Note_on_c, 0, 62, 81
2, 2112, Note_on_c, 0, 83, 99
2, 2300, Note_off_c, 0, 62, 0
2, 2300, Note_off_c, 0, 83, 0
2, 2304, Note_on_c, 0, 81, 85
2, 2492, Note_off_c, 0, 81, 0
2, 2496, Note_on_c, 0, 62, 79
2, 2496, Note_on_c, 0, 79, 92
2, 2684, Note_off_c, 0, 62, 0
2, 2684, Note_off_c, 0, 79, 0
2, 2688, Note_on_c, 0, 55, 92
2, 2688, Note_on_c, 0, 59, 85
2, 2688, Note_on_c, 0, 78, 87
2, 2876, Note_off_c, 0, 55, 0
2, 2876, Note_off_c, 0, 59, 0
2, 2876, Note_off_c, 0, 78, 0
2, 2880, Note_on_c, 0, 62, 86
2, 2880, Note_on_c, 0, 79, 88
2, 3068, Note_off_c, 0, 62, 0
2, 3068, Note_off_c, 0, 79, 0
2, 3072, Note_on_c, 0, 83, 93
2, 3260, Note_off_c, 0, 83, 0
2, 3264, Note_on_c, 0, 62, 86
2, 3264, Note_on_c, 0, 79, 99
2, 3452, Note_off_c, 0, 62, 0
2, 3452, Note_off_c, 0, 79, 0
2, 3456, Note_on_c, 0, 55, 87
2, 3456, Note_on_c, 0, 60, 90
2, 3456, Note_on_c, 0, 78, 93
2, 3644, Note_off_c, 0, 55, 0
2, 3644, Note_off_c, 0, 60, 0
2, 3648, Note_on_c, 0, 64, 68
2, 3836, Note_off_c, 0, 78, 0
2, 3836, Note_off_c, 0, 64, 0
2, 3840, Note_on_c, 0, 55, 87
2, 3840, Note_on_c, 0, 60, 79
2, 3840, Note_on_c, 0, 76, 107
2, 4028, Note_off_c, 0, 55, 0
2, 4028, Note_off_c, 0, 60, 0
2, 4032, Note_on_c, 0, 64, 81
2, 4220, Note_off_c, 0, 76, 0
2, 4220, Note_off_c, 0, 64, 0
2, 4224, Note_on_c, 0, 55, 90
2, 4224, Note_on_c, 0, 60, 88
2, 4224, Note_on_c, 0, 74, 90
2, 4412, Note_off_c, 0, 55, 0
2, 4412, Note_off_c, 0, 60, 0
2, 4412, Note_off_c, 0, 74, 0
2, 4416, Note_on_c, 0, 64, 82
2, 4416, Note_on_c, 0, 72, 89
2, 4604, Note_off_c, 0, 64, 0
2, 4604, Note_off_c, 0, 72, 0
2, 4608, Note_on_c, 0, 55, 88
2, 4608, Note_on_c, 0, 60, 88
2, 4608, Note_on_c, 0, 71, 92
2, 4796, Note_off_c, 0, 55, 0
2, 4796, Note_off_c, 0, 60, 0
2, 4796, Note_off_c, 0, 71, 0
2, 4800, Note_on_c, 0, 64, 80
2, 4800, Note_on_c, 0, 69, 90
2, 4988, Note_off_c, 0, 64, 0
2, 4988, Note_off_c, 0, 69, 0
2, 4992, Note_on_c, 0, 55, 88
2, 4992, Note_on_c, 0, 60, 85
2, 4992, Note_on_c, 0, 68, 89
2, 5180, Note_off_c, 0, 55, 0
2, 5180, Note_off_c, 0, 60, 0
2, 5180, Note_off_c, 0, 68, 0
2, 5184, Note_on_c, 0, 64, 82
2, 5184, Note_on_c, 0, 69, 92
2, 5372, Note_off_c, 0, 64, 0
2, 5372, Note_off_c, 0, 69, 0
2, 5376, Note_on_c, 0, 60, 93
2, 5376, Note_on_c, 0, 55, 94
2, 5376, Note_on_c, 0, 72, 82
2, 5564, Note_off_c, 0, 60, 0
2, 5564, Note_off_c, 0, 55, 0
2, 5564, Note_off_c, 0, 72, 0
2, 5568, Note_on_c, 0, 64, 86
2, 5568, Note_on_c, 0, 69, 97
2, 5756, Note_off_c, 0, 64, 0
2, 5756, Note_off_c, 0, 69, 0
2, 5760, Note_on_c, 0, 55, 81
2, 5760, Note_on_c, 0, 60, 86
2, 5760, Note_on_c, 0, 57, 83
2, 5760, Note_on_c, 0, 66, 93
2, 5948, Note_off_c, 0, 55, 0
2, 5948, Note_off_c, 0, 60, 0
2, 5948, Note_off_c, 0, 57, 0
2, 5952, Note_on_c, 0, 62, 40
2, 6140, Note_off_c, 0, 62, 0
2, 6144, Note_on_c, 0, 55, 83
2, 6144, Note_on_c, 0, 60, 73
2, 6144, Note_on_c, 0, 57, 80
2, 6332, Note_off_c, 0, 55, 0
2, 6332, Note_off_c, 0, 60, 0
2, 6332, Note_off_c, 0, 57, 0
2, 6336, Note_on_c, 0, 62, 85
2, 6524, Note_off_c, 0, 66, 0
2, 6524, Note_off_c, 0, 62, 0
2, 6528, Note_on_c, 0, 60, 81
2, 6528, Note_on_c, 0, 55, 78
2, 6528, Note_on_c, 0, 57, 80
2, 6528, Note_on_c, 0, 69, 84
2, 6652, Note_off_c, 0, 69, 0
2, 6716, Note_off_c, 0, 60, 0
2, 6716, Note_off_c, 0, 55, 0
2, 6716, Note_off_c, 0, 57, 0
2, 6720, Note_on_c, 0, 62, 90
2, 6908, Note_off_c, 0, 62, 0
2, 6912, Note_on_c, 0, 55, 80
2, 6912, Note_on_c, 0, 60, 88
2, 6912, Note_on_c, 0, 57, 82
2, 6912, Note_on_c, 0, 72, 92
2, 7036, Note_off_c, 0, 72, 0
2, 7100, Note_off_c, 0, 55, 0
2, 7100, Note_off_c, 0, 60, 0
2, 7100, Note_off_c, 0, 57, 0
2, 7104, Note_on_c, 0, 62, 79
2, 7292, Note_off_c, 0, 62, 0
2, 7296, Note_on_c, 0, 60, 89
2, 7296, Note_on_c, 0, 55, 71
2, 7296, Note_on_c, 0, 57, 79
2, 7296, Note_on_c, 0, 69, 88
2, 7420, Note_off_c, 0, 69, 0
2, 7484, Note_off_c, 0, 60, 0
2, 7484, Note_off_c, 0, 55, 0
2, 7484, Note_off_c, 0, 57, 0
2, 7488, Note_on_c, 0, 62, 96
2, 7676, Note_off_c, 0, 62, 0
2, 7680, Note_on_c, 0, 60, 87
2, 7680, Note_on_c, 0, 55, 82
2, 7680, Note_on_c, 0, 57, 86
2, 7680, Note_on_c, 0, 66, 93
2, 7804, Note_off_c, 0, 66, 0
2, 7868, Note_off_c, 0, 60, 0
2, 7868, Note_off_c, 0, 55, 0
2, 7868, Note_off_c, 0, 57, 0
2, 7872, Note_on_c, 0, 62, 76
2, 8060, Note_off_c, 0, 62, 0
2, 8064, Note_on_c, 0, 59, 64
2, 8064, Note_on_c, 0, 55, 69
2, 8064, Note_on_c, 0, 67, 74
2, 8252, Note_off_c, 0, 67, 0
2, 8256, Note_on_c, 0, 62, 74
2, 8444, Note_off_c, 0, 62, 0
2, 8448, Note_on_c, 0, 61, 74
2, 8636, Note_off_c, 0, 61, 0
2, 8640, Note_on_c, 0, 62, 80
2, 8828, Note_off_c, 0, 62, 0
2, 8832, Note_on_c, 0, 66, 81
2, 9020, Note_off_c, 0, 66, 0
2, 9024, Note_on_c, 0, 67, 84
2, 9212, Note_off_c, 0, 59, 0
2, 9212, Note_off_c, 0, 55, 0
2, 9212, Note_off_c, 0, 67, 0
2, 9216, Note_on_c, 0, 69, 81
2, 9404, Note_off_c, 0, 69, 0
2, 9408, Note_on_c, 0, 62, 78
2, 9596, Note_off_c, 0, 62, 0
2, 9600, Note_on_c, 0, 61, 78
2, 9788, Note_off_c, 0, 61, 0
2, 9792, Note_on_c, 0, 62, 76
2, 9980, Note_off_c, 0, 62, 0
2, 9984, Note_on_c, 0, 67, 93
2, 10172, Note_off_c, 0, 67, 0
2, 10176, Note_on_c, 0, 69, 77
2, 10364, Note_off_c, 0, 69, 0
2, 10368, Note_on_c, 0, 71, 79
2, 10556, Note_off_c, 0, 71, 0
2, 10560, Note_on_c, 0, 67, 82
2, 10748, Note_off_c, 0, 67, 0
2, 10752, Note_on_c, 0, 66, 76
2, 10940, Note_off_c, 0, 66, 0
2, 10944, Note_on_c, 0, 67, 80
2, 11132, Note_off_c, 0, 67, 0
2, 11136, Note_on_c, 0, 45, 70
2, 11136, Note_on_c, 0, 57, 61
2, 11136, Note_on_c, 0, 72, 79
2, 11324, Note_off_c, 0, 45, 0
2, 11324, Note_off_c, 0, 57, 0
2, 11324, Note_off_c, 0, 72, 0
2, 11328, Note_on_c, 0, 47, 76
2, 11328, Note_on_c, 0, 59, 72
2, 11328, Note_on_c, 0, 74, 84
2, 11516, Note_off_c, 0, 47, 0
2, 11516, Note_off_c, 0, 59, 0
2, 11516, Note_off_c, 0, 74, 0
2, 11520, Note_on_c, 0, 48, 76
2, 11520, Note_on_c, 0, 60, 64
2, 11520, Note_on_c, 0, 76, 82
2, 11644, Note_off_c, 0, 48, 0
2, 11644, Note_off_c, 0, 60, 0
2, 11708, Note_off_c, 0, 76, 0
2, 11712, Note_on_c, 0, 74, 73
2, 11900, Note_off_c, 0, 74, 0
2, 11904, Note_on_c, 0, 72, 76
2, 12092, Note_off_c, 0, 72, 0
2, 12096, Note_on_c, 0, 71, 75
2, 12284, Note_off_c, 0, 71, 0
2, 12288, Note_on_c, 0, 69, 74
2, 12476, Note_off_c, 0, 69, 0
2, 12480, Note_on_c, 0, 67, 82
2, 12668, Note_off_c, 0, 67, 0
2, 12672, Note_on_c, 0, 62, 42
2, 12672, Note_on_c, 0, 50, 53
2, 12672, Note_on_c, 0, 66, 59
2, 12860, Note_off_c, 0, 62, 0
2, 12860, Note_off_c, 0, 50, 0
2, 13052, Note_off_c, 0, 66, 0
2, 13248, Note_on_c, 0, 57, 54
2, 13248, Note_on_c, 0, 62, 53
2, 13436, Note_off_c, 0, 57, 0
2, 13436, Note_off_c, 0, 62, 0
2, 13440, Note_on_c, 0, 66, 56
2, 13628, Note_off_c, 0, 66, 0
2, 13632, Note_on_c, 0, 69, 55
2, 13820, Note_off_c, 0, 69, 0
2, 13824, Note_on_c, 0, 74, 63
2, 14012, Note_off_c, 0, 74, 0
2, 14016, Note_on_c, 0, 66, 58
2, 14204, Note_off_c, 0, 66, 0
2, 14208, Note_on_c, 0, 69, 56
2, 14396, Note_off_c, 0, 69, 0
2, 14400, Note_on_c, 0, 74, 63
2, 14588, Note_off_c, 0, 74, 0
2, 14592, Note_on_c, 0, 78, 64
2, 14780, Note_off_c, 0, 78, 0
2, 14784, Note_on_c, 0, 69, 43
2, 14972, Note_off_c, 0, 69, 0
2, 14976, Note_on_c, 0, 74, 58
2, 15164, Note_off_c, 0, 74, 0
2, 15168, Note_on_c, 0, 78, 47
2, 15356, Note_off_c, 0, 78, 0
2, 15360, Note_on_c, 0, 81, 57
2, 15548, Note_off_c, 0, 81, 0
2, 15552, Note_on_c, 0, 74, 24
2, 15740, Note_off_c, 0, 74, 0
2, 15744, Note_on_c, 0, 78, 46
2, 15932, Note_off_c, 0, 78, 0
2, 15936, Note_on_c, 0, 81, 55
2, 16124, Note_off_c, 0, 81, 0
2, 16128, Note_on_c, 0, 86, 56
2, 16316, Note_off_c, 0, 86, 0
2, 16320, Note_on_c, 0, 78, 42
2, 16508, Note_off_c, 0, 78, 0
2, 16512, Note_on_c, 0, 81, 52
2, 16700, Note_off_c, 0, 81, 0
2, 16704, Note_on_c, 0, 86, 58
2, 16892, Note_off_c, 0, 86, 0
2, 16896, Note_on_c, 0, 90, 55
2, 17084, Note_off_c, 0, 90, 0
2, 17088, Note_on_c, 0, 88, 56
2, 17276, Note_off_c, 0, 88, 0
2, 17280, Note_on_c, 0, 86, 71
2, 17660, Note_off_c, 0, 86, 0
2, 17856, Note_on_c, 0, 62, 58
2, 17856, Note_on_c, 0, 59, 44
2, 18044, Note_off_c, 0, 62, 0
2, 18044, Note_off_c, 0, 59, 0
2, 18048, Note_on_c, 0, 66, 58
2, 18236, Note_off_c, 0, 66, 0
2, 18240, Note_on_c, 0, 71, 49
2, 18428, Note_off_c, 0, 71, 0
2, 18432, Note_on_c, 0, 74, 66
2, 18620, Note_off_c, 0, 74, 0
2, 18624, Note_on_c, 0, 66, 55
2, 18812, Note_off_c, 0, 66, 0
2, 18816, Note_on_c, 0, 71, 57
2, 19004, Note_off_c, 0, 71, 0
2, 19008, Note_on_c, 0, 74, 63
2, 19196, Note_off_c, 0, 74, 0
2, 19200, Note_on_c, 0, 78, 61
2, 19388, Note_off_c, 0, 78, 0
2, 19392, Note_on_c, 0, 71, 51
2, 19580, Note_off_c, 0, 71, 0
2, 19584, Note_on_c, 0, 74, 43
2, 19772, Note_off_c, 0, 74, 0
2, 19776, Note_on_c, 0, 78, 38
2, 19964, Note_off_c, 0, 78, 0
2, 19968, Note_on_c, 0, 83, 59
2, 20156, Note_off_c, 0, 83, 0
2, 20160, Note_on_c, 0, 74, 57
2, 20348, Note_off_c, 0, 74, 0
2, 20352, Note_on_c, 0, 78, 49
2, 20540, Note_off_c, 0, 78, 0
2, 20544, Note_on_c, 0, 83, 36
2, 20732, Note_off_c, 0, 83, 0
2, 20736, Note_on_c, 0, 86, 54
2, 20924, Note_off_c, 0, 86, 0
2, 20928, Note_on_c, 0, 78, 48
2, 21116, Note_off_c, 0, 78, 0
2, 21120, Note_on_c, 0, 83, 60
2, 21308, Note_off_c, 0, 83, 0
2, 21312, Note_on_c, 0, 86, 62
2, 21500, Note_off_c, 0, 86, 0
2, 21504, Note_on_c, 0, 90, 60
2, 21692, Note_off_c, 0, 90, 0
2, 21696, Note_on_c, 0, 88, 66
2, 21884, Note_off_c, 0, 88, 0
2, 21888, Note_on_c, 0, 86, 69
2, 22268, Note_off_c, 0, 86, 0
2, 22464, Note_on_c, 0, 62, 48
2, 22464, Note_on_c, 0, 52, 51
2, 22652, Note_off_c, 0, 62, 0
2, 22652, Note_off_c, 0, 52, 0
2, 22656, Note_on_c, 0, 64, 63
2, 22656, Note_on_c, 0, 56, 38
2, 22844, Note_off_c, 0, 64, 0
2, 22844, Note_off_c, 0, 56, 0
2, 22848, Note_on_c, 0, 68, 55
2, 23036, Note_off_c, 0, 68, 0
2, 23040, Note_on_c, 0, 71, 60
2, 23228, Note_off_c, 0, 71, 0
2, 23232, Note_on_c, 0, 64, 64
2, 23420, Note_off_c, 0, 64, 0
2, 23424, Note_on_c, 0, 68, 58
2, 23612, Note_off_c, 0, 68, 0
2, 23616, Note_on_c, 0, 71, 47
2, 23804, Note_off_c, 0, 71, 0
2, 23808, Note_on_c, 0, 74, 68
2, 23996, Note_off_c, 0, 74, 0
2, 24000, Note_on_c, 0, 68, 48
2, 24188, Note_off_c, 0, 68, 0
2, 24192, Note_on_c, 0, 71, 53
2, 24380, Note_off_c, 0, 71, 0
2, 24384, Note_on_c, 0, 74, 57
2, 24572, Note_off_c, 0, 74, 0
2, 24576, Note_on_c, 0, 80, 69
2, 24764, Note_off_c, 0, 80, 0
2, 24768, Note_on_c, 0, 71, 51
2, 24956, Note_off_c, 0, 71, 0
2, 24960, Note_on_c, 0, 74, 55
2, 25148, Note_off_c, 0, 74, 0
2, 25152, Note_on_c, 0, 80, 64
2, 25340, Note_off_c, 0, 80, 0
2, 25344, Note_on_c, 0, 83, 60
2, 25532, Note_off_c, 0, 83, 0
2, 25536, Note_on_c, 0, 80, 60
2, 25724, Note_off_c, 0, 80, 0
2, 25728, Note_on_c, 0, 76, 66
2, 25728, Note_on_c, 0, 59, 55
2, 25728, Note_on_c, 0, 56, 64
2, 25916, Note_off_c, 0, 76, 0
2, 25920, Note_on_c, 0, 78, 60
2, 26108, Note_off_c, 0, 59, 0
2, 26108, Note_off_c, 0, 56, 0
2, 26108, Note_off_c, 0, 78, 0
2, 26112, Note_on_c, 0, 76, 62
2, 26112, Note_on_c, 0, 62, 49
2, 26112, Note_on_c, 0, 59, 42
2, 26300, Note_off_c, 0, 76, 0
2, 26304, Note_on_c, 0, 78, 54
2, 26492, Note_off_c, 0, 62, 0
2, 26492, Note_off_c, 0, 59, 0
2, 26492, Note_off_c, 0, 78, 0
2, 26496, Note_on_c, 0, 73, 67
2, 26496, Note_on_c, 0, 76, 74
2, 26496, Note_on_c, 0, 57, 52
2, 26496, Note_on_c, 0, 61, 57
2, 26684, Note_off_c, 0, 61, 0
2, 26688, Note_on_c, 0, 62, 66
2, 26876, Note_off_c, 0, 57, 0
2, 26876, Note_off_c, 0, 62, 0
2, 26880, Note_on_c, 0, 64, 69
2, 27068, Note_off_c, 0, 64, 0
2, 27072, Note_on_c, 0, 66, 68
2, 27260, Note_off_c, 0, 66, 0
2, 27264, Note_on_c, 0, 68, 68
2, 27452, Note_off_c, 0, 68, 0
2, 27456, Note_on_c, 0, 69, 76
2, 27644, Note_off_c, 0, 73, 0
2, 27644, Note_off_c, 0, 76, 0
2, 27644, Note_off_c, 0, 69, 0
2, 27648, Note_on_c, 0, 74, 71
2, 27648, Note_on_c, 0, 76, 71
2, 27648, Note_on_c, 0, 68, 73
2, 27836, Note_off_c, 0, 68, 0
2, 27840, Note_on_c, 0, 66, 69
2, 28028, Note_off_c, 0, 66, 0
2, 28032, Note_on_c, 0, 64, 59
2, 28220, Note_off_c, 0, 64, 0
2, 28224, Note_on_c, 0, 62, 68
2, 28412, Note_off_c, 0, 62, 0
2, 28416, Note_on_c, 0, 61, 73
2, 28604, Note_off_c, 0, 61, 0
2, 28608, Note_on_c, 0, 59, 71
2, 28796, Note_off_c, 0, 74, 0
2, 28796, Note_off_c, 0, 76, 0
2, 28796, Note_off_c, 0, 59, 0
2, 28800, Note_on_c, 0, 79, 75
2, 28800, Note_on_c, 0, 76, 83
2, 28800, Note_on_c, 0, 57, 77
2, 28988, Note_off_c, 0, 57, 0
2, 29948, Note_off_c, 0, 79, 0
2, 29948, Note_off_c, 0, 76, 0
2, 29952, Note_on_c, 0, 78, 40
2, 29952, Note_on_c, 0, 74, 35
2, 30332, Note_off_c, 0, 78, 0
2, 30332, Note_off_c, 0, 74, 0
2, 30336, Note_on_c, 0, 78, 48
2, 30336, Note_on_c, 0, 74, 44
2, 30716, Note_off_c, 0, 78, 0
2, 30716, Note_off_c, 0, 74, 0
2, 30720, Note_on_c, 0, 78, 44
2, 30720, Note_on_c, 0, 74, 43
2, 30720, Note_on_c, 0, 57, 61
2, 30908, Note_off_c, 0, 57, 0
2, 30912, Note_on_c, 0, 59, 60
2, 31100, Note_off_c, 0, 78, 0
2, 31100, Note_off_c, 0, 74, 0
2, 31100, Note_off_c, 0, 59, 0
2, 31104, Note_on_c, 0, 76, 71
2, 31104, Note_on_c, 0, 73, 58
2, 31104, Note_on_c, 0, 57, 58
2, 31104, Note_on_c, 0, 61, 60
2, 31292, Note_off_c, 0, 61, 0
2, 31296, Note_on_c, 0, 62, 65
2, 31484, Note_off_c, 0, 57, 0
2, 31484, Note_off_c, 0, 62, 0
2, 31488, Note_on_c, 0, 64, 68
2, 31676, Note_off_c, 0, 64, 0
2, 31680, Note_on_c, 0, 66, 70
2, 31868, Note_off_c, 0, 66, 0
2, 31872, Note_on_c, 0, 68, 73
2, 32060, Note_off_c, 0, 68, 0
2, 32064, Note_on_c, 0, 69, 72
2, 32252, Note_off_c, 0, 76, 0
2, 32252, Note_off_c, 0, 73, 0
2, 32252, Note_off_c, 0, 69, 0
2, 32256, Note_on_c, 0, 76, 68
2, 32256, Note_on_c, 0, 74, 69
2, 32256, Note_on_c, 0, 68, 60
2, 32444, Note_off_c, 0, 68, 0
2, 32448, Note_on_c, 0, 66, 67
2, 32636, Note_off_c, 0, 66, 0
2, 32640, Note_on_c, 0, 64, 58
2, 32828, Note_off_c, 0, 64, 0
2, 32832, Note_on_c, 0, 62, 68
2, 33020, Note_off_c, 0, 62, 0
2, 33024, Note_on_c, 0, 61, 69
2, 33212, Note_off_c, 0, 61, 0
2, 33216, Note_on_c, 0, 59, 70
2, 33404, Note_off_c, 0, 76, 0
2, 33404, Note_off_c, 0, 74, 0
2, 33404, Note_off_c, 0, 59, 0
2, 33408, Note_on_c, 0, 76, 85
2, 33408, Note_on_c, 0, 79, 80
2, 33408, Note_on_c, 0, 57, 81
2, 33596, Note_off_c, 0, 57, 0
2, 34556, Note_off_c, 0, 76, 0
2, 34556, Note_off_c, 0, 79, 0
2, 34560, Note_on_c, 0, 74, 40
2, 34560, Note_on_c, 0, 78, 50
2, 34940, Note_off_c, 0, 74, 0
2, 34940, Note_off_c, 0, 78, 0
2, 34944, Note_on_c, 0, 78, 45
2, 34944, Note_on_c, 0, 74, 52
2, 35324, Note_off_c, 0, 78, 0
2, 35324, Note_off_c, 0, 74, 0
2, 35328, Note_on_c, 0, 78, 42
2, 35328, Note_on_c, 0, 74, 41
2, 35328, Note_on_c, 0, 57, 63
2, 35516, Note_off_c, 0, 57, 0
2, 35520, Note_on_c, 0, 59, 58
2, 35708, Note_off_c, 0, 78, 0
2, 35708, Note_off_c, 0, 74, 0
2, 35708, Note_off_c, 0, 59, 0
2, 35712, Note_on_c, 0, 76, 60
2, 35712, Note_on_c, 0, 73, 50
2, 35712, Note_on_c, 0, 64, 55
2, 35712, Note_on_c, 0, 61, 55
2, 35712, Note_on_c, 0, 57, 61
2, 35900, Note_off_c, 0, 76, 0
2, 35900, Note_off_c, 0, 73, 0
2, 35904, Note_on_c, 0, 74, 68
2, 36092, Note_off_c, 0, 74, 0
2, 36096, Note_on_c, 0, 76, 68
2, 36284, Note_off_c, 0, 76, 0
2, 36288, Note_on_c, 0, 78, 60
2, 36476, Note_off_c, 0, 78, 0
2, 36480, Note_on_c, 0, 80, 70
2, 36668, Note_off_c, 0, 80, 0
2, 36672, Note_on_c, 0, 81, 67
2, 36860, Note_off_c, 0, 64, 0
2, 36860, Note_off_c, 0, 61, 0
2, 36860, Note_off_c, 0, 81, 0
2, 36864, Note_on_c, 0, 80, 67
2, 36864, Note_on_c, 0, 59, 45
2, 36864, Note_on_c, 0, 62, 42
2, 37052, Note_off_c, 0, 80, 0
2, 37056, Note_on_c, 0, 78, 60
2, 37244, Note_off_c, 0, 78, 0
2, 37248, Note_on_c, 0, 76, 56
2, 37436, Note_off_c, 0, 76, 0
2, 37440, Note_on_c, 0, 74, 43
2, 37628, Note_off_c, 0, 74, 0
2, 37632, Note_on_c, 0, 73, 57
2, 37820, Note_off_c, 0, 73, 0
2, 37824, Note_on_c, 0, 71, 46
2, 38012, Note_off_c, 0, 57, 0
2, 38012, Note_off_c, 0, 59, 0
2, 38012, Note_off_c, 0, 62, 0
2, 38012, Note_off_c, 0, 71, 0
2, 38016, Note_on_c, 0, 74, 48
2, 38016, Note_on_c, 0, 57, 54
2, 38016, Note_on_c, 0, 62, 64
2, 38016, Note_on_c, 0, 68, 54
2, 38204, Note_off_c, 0, 74, 0
2, 38208, Note_on_c, 0, 76, 65
2, 38396, Note_off_c, 0, 76, 0
2, 38400, Note_on_c, 0, 78, 62
2, 38588, Note_off_c, 0, 78, 0
2, 38592, Note_on_c, 0, 80, 53
2, 38780, Note_off_c, 0, 80, 0
2, 38784, Note_on_c, 0, 81, 49
2, 38972, Note_off_c, 0, 81, 0
2, 38976, Note_on_c, 0, 83, 61
2, 39164, Note_off_c, 0, 62, 0
2, 39164, Note_off_c, 0, 68, 0
2, 39164, Note_off_c, 0, 83, 0
2, 39168, Note_on_c, 0, 81, 52
2, 39168, Note_on_c, 0, 61, 62
2, 39168, Note_on_c, 0, 64, 55
2, 39356, Note_off_c, 0, 81, 0
2, 39360, Note_on_c, 0, 79, 62
2, 39548, Note_off_c, 0, 79, 0
2, 39552, Note_on_c, 0, 78, 60
2, 39740, Note_off_c, 0, 78, 0
2, 39744, Note_on_c, 0, 76, 48
2, 39932, Note_off_c, 0, 76, 0
2, 39936, Note_on_c, 0, 74, 54
2, 40124, Note_off_c, 0, 74, 0
2, 40128, Note_on_c, 0, 73, 49
2, 40316, Note_off_c, 0, 57, 0
2, 40316, Note_off_c, 0, 61, 0
2, 40316, Note_off_c, 0, 64, 0
2, 40316, Note_off_c, 0, 73, 0
2, 40320, Note_on_c, 0, 61, 53
2, 40320, Note_on_c, 0, 64, 49
2, 40320, Note_on_c, 0, 67, 63
2, 40320, Note_on_c, 0, 57, 47
2, 40320, Note_on_c, 0, 76, 70
2, 40508, Note_off_c, 0, 76, 0
2, 40512, Note_on_c, 0, 79, 69
2, 40700, Note_off_c, 0, 79, 0
2, 40704, Note_on_c, 0, 85, 84
2, 40892, Note_off_c, 0, 85, 0
2, 40896, Note_on_c, 0, 79, 71
2, 41084, Note_off_c, 0, 79, 0
2, 41088, Note_on_c, 0, 88, 81
2, 41276, Note_off_c, 0, 88, 0
2, 41280, Note_on_c, 0, 85, 73
2, 41468, Note_off_c, 0, 61, 0
2, 41468, Note_off_c, 0, 64, 0
2, 41468, Note_off_c, 0, 67, 0
2, 41468, Note_off_c, 0, 57, 0
2, 41468, Note_off_c, 0, 85, 0
2, 41472, Note_on_c, 0, 58, 69
2, 41472, Note_on_c, 0, 67, 79
2, 41472, Note_on_c, 0, 61, 68
2, 41472, Note_on_c, 0, 64, 67
2, 41472, Note_on_c, 0, 88, 76
2, 41660, Note_off_c, 0, 88, 0
2, 41664, Note_on_c, 0, 85, 65
2, 41852, Note_off_c, 0, 85, 0
2, 41856, Note_on_c, 0, 88, 85
2, 42044, Note_off_c, 0, 88, 0
2, 42048, Note_on_c, 0, 85, 77
2, 42236, Note_off_c, 0, 85, 0
2, 42240, Note_on_c, 0, 88, 78
2, 42428, Note_off_c, 0, 88, 0
2, 42432, Note_on_c, 0, 85, 74
2, 42620, Note_off_c, 0, 58, 0
2, 42620, Note_off_c, 0, 67, 0
2, 42620, Note_off_c, 0, 61, 0
2, 42620, Note_off_c, 0, 64, 0
2, 42620, Note_off_c, 0, 85, 0
2, 42624, Note_on_c, 0, 61, 67
2, 42624, Note_on_c, 0, 57, 70
2, 42624, Note_on_c, 0, 64, 66
2, 42624, Note_on_c, 0, 67, 76
2, 42624, Note_on_c, 0, 88, 83
2, 42812, Note_off_c, 0, 88, 0
2, 42816, Note_on_c, 0, 85, 71
2, 43004, Note_off_c, 0, 85, 0
2, 43008, Note_on_c, 0, 81, 71
2, 43196, Note_off_c, 0, 81, 0
2, 43200, Note_on_c, 0, 83, 82
2, 43388, Note_off_c, 0, 61, 0
2, 43388, Note_off_c, 0, 57, 0
2, 43388, Note_off_c, 0, 64, 0
2, 43388, Note_off_c, 0, 67, 0
2, 43388, Note_off_c, 0, 83, 0
2, 43392, Note_on_c, 0, 55, 62
2, 43392, Note_on_c, 0, 61, 62
2, 43392, Note_on_c, 0, 64, 63
2, 43392, Note_on_c, 0, 85, 83
2, 43580, Note_off_c, 0, 85, 0
2, 43584, Note_on_c, 0, 81, 72
2, 43772, Note_off_c, 0, 55, 0
2, 43772, Note_off_c, 0, 61, 0
2, 43772, Note_off_c, 0, 64, 0
2, 43772, Note_off_c, 0, 81, 0
2, 43776, Note_on_c, 0, 62, 42
2, 43776, Note_on_c, 0, 54, 43
2, 43776, Note_on_c, 0, 57, 44
2, 43776, Note_on_c, 0, 86, 82
2, 43964, Note_off_c, 0, 86, 0
2, 43968, Note_on_c, 0, 81, 73
2, 44156, Note_off_c, 0, 81, 0
2, 44160, Note_on_c, 0, 86, 82
2, 44348, Note_off_c, 0, 86, 0
2, 44352, Note_on_c, 0, 81, 78
2, 44540, Note_off_c, 0, 62, 0
2, 44540, Note_off_c, 0, 54, 0
2, 44540, Note_off_c, 0, 57, 0
2, 44540, Note_off_c, 0, 81, 0
2, 44544, Note_on_c, 0, 62, 43
2, 44544, Note_on_c, 0, 57, 44
2, 44544, Note_on_c, 0, 50, 41
2, 44544, Note_on_c, 0, 78, 63
2, 44732, Note_off_c, 0, 78, 0
2, 44736, Note_on_c, 0, 74, 59
2, 44924, Note_off_c, 0, 62, 0
2, 44924, Note_off_c, 0, 57, 0
2, 44924, Note_off_c, 0, 50, 0
2, 44924, Note_off_c, 0, 74, 0
2, 44928, Note_on_c, 0, 67, 64
2, 44928, Note_on_c, 0, 57, 51
2, 44928, Note_on_c, 0, 61, 49
2, 44928, Note_on_c, 0, 64, 45
2, 44928, Note_on_c, 0, 76, 70
2, 45116, Note_off_c, 0, 76, 0
2, 45120, Note_on_c, 0, 79, 72
2, 45308, Note_off_c, 0, 79, 0
2, 45312, Note_on_c, 0, 85, 74
2, 45500, Note_off_c, 0, 85, 0
2, 45504, Note_on_c, 0, 79, 70
2, 45692, Note_off_c, 0, 79, 0
2, 45696, Note_on_c, 0, 88, 68
2, 45884, Note_off_c, 0, 88, 0
2, 45888, Note_on_c, 0, 85, 70
2, 46076, Note_off_c, 0, 67, 0
2, 46076, Note_off_c, 0, 57, 0
2, 46076, Note_off_c, 0, 61, 0
2, 46076, Note_off_c, 0, 64, 0
2, 46076, Note_off_c, 0, 85, 0
2, 46080, Note_on_c, 0, 58, 73
2, 46080, Note_on_c, 0, 67, 80
2, 46080, Note_on_c, 0, 64, 70
2, 46080, Note_on_c, 0, 61, 67
2, 46080, Note_on_c, 0, 88, 85
2, 46268, Note_off_c, 0, 88, 0
2, 46272, Note_on_c, 0, 85, 80
2, 46460, Note_off_c, 0, 85, 0
2, 46464, Note_on_c, 0, 88, 88
2, 46652, Note_off_c, 0, 88, 0
2, 46656, Note_on_c, 0, 85, 84
2, 46844, Note_off_c, 0, 85, 0
2, 46848, Note_on_c, 0, 88, 82
2, 47036, Note_off_c, 0, 88, 0
2, 47040, Note_on_c, 0, 85, 80
2, 47228, Note_off_c, 0, 58, 0
2, 47228, Note_off_c, 0, 67, 0
2, 47228, Note_off_c, 0, 64, 0
2, 47228, Note_off_c, 0, 61, 0
2, 47228, Note_off_c, 0, 85, 0
2, 47232, Note_on_c, 0, 57, 74
2, 47232, Note_on_c, 0, 61, 69
2, 47232, Note_on_c, 0, 67, 80
2, 47232, Note_on_c, 0, 64, 67
2, 47232, Note_on_c, 0, 88, 79
2, 47420, Note_off_c, 0, 88, 0
2, 47424, Note_on_c, 0, 85, 76
2, 47612, Note_off_c, 0, 85, 0
2, 47616, Note_on_c, 0, 81, 74
2, 47804, Note_off_c, 0, 81, 0
2, 47808, Note_on_c, 0, 83, 83
2, 47996, Note_off_c, 0, 57, 0
2, 47996, Note_off_c, 0, 61, 0
2, 47996, Note_off_c, 0, 67, 0
2, 47996, Note_off_c, 0, 64, 0
2, 47996, Note_off_c, 0, 83, 0
2, 48000, Note_on_c, 0, 64, 59
2, 48000, Note_on_c, 0, 61, 61
2, 48000, Note_on_c, 0, 55, 63
2, 48000, Note_on_c, 0, 85, 82
2, 48188, Note_off_c, 0, 85, 0
2, 48192, Note_on_c, 0, 81, 73
2, 48380, Note_off_c, 0, 64, 0
2, 48380, Note_off_c, 0, 61, 0
2, 48380, Note_off_c, 0, 55, 0
2, 48380, Note_off_c, 0, 81, 0
2, 48384, Note_on_c, 0, 57, 56
2, 48384, Note_on_c, 0, 54, 56
2, 48384, Note_on_c, 0, 62, 67
2, 48384, Note_on_c, 0, 86, 74
2, 48572, Note_off_c, 0, 86, 0
2, 48576, Note_on_c, 0, 81, 66
2, 48764, Note_off_c, 0, 81, 0
2, 48768, Note_on_c, 0, 86, 83
2, 48956, Note_off_c, 0, 86, 0
2, 48960, Note_on_c, 0, 81, 69
2, 49148, Note_off_c, 0, 57, 0
2, 49148, Note_off_c, 0, 54, 0
2, 49148, Note_off_c, 0, 62, 0
2, 49148, Note_off_c, 0, 81, 0
2, 49152, Note_on_c, 0, 57, 59
2, 49152, Note_on_c, 0, 62, 60
2, 49152, Note_on_c, 0, 50, 52
2, 49152, Note_on_c, 0, 78, 67
2, 49340, Note_off_c, 0, 78, 0
2, 49344, Note_on_c, 0, 74, 71
2, 49532, Note_off_c, 0, 57, 0
2, 49532, Note_off_c, 0, 62, 0
2, 49532, Note_off_c, 0, 50, 0
2, 49532, Note_off_c, 0, 74, 0
2, 49536, Note_on_c, 0, 62, 46
2, 49536, Note_on_c, 0, 59, 60
2, 49536, Note_on_c, 0, 55, 55
2, 49536, Note_on_c, 0, 83, 66
2, 49724, Note_off_c, 0, 83, 0
2, 49728, Note_on_c, 0, 79, 58
2, 49916, Note_off_c, 0, 62, 0
2, 49916, Note_off_c, 0, 59, 0
2, 49916, Note_off_c, 0, 55, 0
2, 49916, Note_off_c, 0, 79, 0
2, 49920, Note_on_c, 0, 83, 62
2, 50108, Note_off_c, 0, 83, 0
2, 50112, Note_on_c, 0, 79, 61
2, 50300, Note_off_c, 0, 79, 0
2, 50304, Note_on_c, 0, 64, 47
2, 50304, Note_on_c, 0, 59, 57
2, 50304, Note_on_c, 0, 55, 44
2, 50304, Note_on_c, 0, 74, 62
2, 50492, Note_off_c, 0, 74, 0
2, 50496, Note_on_c, 0, 71, 44
2, 50684, Note_off_c, 0, 64, 0
2, 50684, Note_off_c, 0, 59, 0
2, 50684, Note_off_c, 0, 55, 0
2, 50684, Note_off_c, 0, 71, 0
2, 50688, Note_on_c, 0, 66, 56
2, 50688, Note_on_c, 0, 62, 60
2, 50688, Note_on_c, 0, 57, 52
2, 50688, Note_on_c, 0, 69, 63
2, 51068, Note_off_c, 0, 66, 0
2, 51068, Note_off_c, 0, 62, 0
2, 51068, Note_off_c, 0, 57, 0
2, 51452, Note_off_c, 0, 69, 0
2, 51456, Note_on_c, 0, 67, 65
2, 51456, Note_on_c, 0, 61, 60
2, 51456, Note_on_c, 0, 57, 51
2, 51456, Note_on_c, 0, 76, 84
2, 51548, Note_off_c, 0, 76, 0
2, 51552, Note_on_c, 0, 74, 63
2, 51644, Note_off_c, 0, 74, 0
2, 51648, Note_on_c, 0, 76, 82
2, 51740, Note_off_c, 0, 76, 0
2, 51744, Note_on_c, 0, 74, 78
2, 51788, Note_off_c, 0, 74, 0
2, 51792, Note_on_c, 0, 76, 80
2, 51836, Note_off_c, 0, 67, 0
2, 51836, Note_off_c, 0, 61, 0
2, 51836, Note_off_c, 0, 57, 0
2, 51836, Note_off_c, 0, 76, 0
2, 51840, Note_on_c, 0, 74, 96
2, 51964, Note_off_c, 0, 74, 0
2, 52032, Note_on_c, 0, 57, 74
2, 52220, Note_off_c, 0, 57, 0
2, 52224, Note_on_c, 0, 81, 81
2, 52224, Note_on_c, 0, 69, 75
2, 52348, Note_off_c, 0, 81, 0
2, 52348, Note_off_c, 0, 69, 0
2, 52416, Note_on_c, 0, 57, 65
2, 52604, Note_off_c, 0, 57, 0
2, 52608, Note_on_c, 0, 74, 85
2, 52608, Note_on_c, 0, 62, 76
2, 52732, Note_off_c, 0, 74, 0
2, 52732, Note_off_c, 0, 62, 0
2, 52800, Note_on_c, 0, 57, 75
2, 52988, Note_off_c, 0, 57, 0
2, 53184, Note_on_c, 0, 57, 74
2, 53372, Note_off_c, 0, 57, 0
2, 53376, Note_on_c, 0, 67, 82
2, 53376, Note_on_c, 0, 79, 78
2, 53500, Note_off_c, 0, 67, 0
2, 53500, Note_off_c, 0, 79, 0
2, 53568, Note_on_c, 0, 57, 81
2, 53756, Note_off_c, 0, 57, 0
2, 53760, Note_on_c, 0, 73, 86
2, 53760, Note_on_c, 0, 61, 79
2, 53884, Note_off_c, 0, 73, 0
2, 53884, Note_off_c, 0, 61, 0
2, 53952, Note_on_c, 0, 57, 82
2, 54140, Note_off_c, 0, 57, 0
2, 54528, Note_on_c, 0, 74, 80
2, 54528, Note_on_c, 0, 50, 65
2, 54528, Note_on_c, 0, 62, 64
2, 54652, Note_off_c, 0, 74, 0
2, 54652, Note_off_c, 0, 50, 0
2, 54652, Note_off_c, 0, 62, 0
2, 54912, Note_on_c, 0, 47, 54
2, 54912, Note_on_c, 0, 71, 60
2, 54912, Note_on_c, 0, 59, 41
2, 55036, Note_off_c, 0, 47, 0
2, 55036, Note_off_c, 0, 71, 0
2, 55036, Note_off_c, 0, 59, 0
2, 55680, Note_on_c, 0, 72, 65
2, 55680, Note_on_c, 0, 48, 54
2, 55680, Note_on_c, 0, 60, 58
2, 55804, Note_off_c, 0, 72, 0
2, 55804, Note_off_c, 0, 48, 0
2, 55804, Note_off_c, 0, 60, 0
2, 56064, Note_on_c, 0, 69, 64
2, 56064, Note_on_c, 0, 45, 59
2, 56064, Note_on_c, 0, 57, 43
2, 56188, Note_off_c, 0, 69, 0
2, 56188, Note_off_c, 0, 45, 0
2, 56188, Note_off_c, 0, 57, 0
2, 56448, Note_on_c, 0, 43, 76
2, 56448, Note_on_c, 0, 67, 90
2, 56448, Note_on_c, 0, 79, 92
2, 56572, Note_off_c, 0, 43, 0
2, 56572, Note_off_c, 0, 67, 0
2, 56572, Note_off_c, 0, 79, 0
2, 56832, Note_on_c, 0, 71, 85
2, 56832, Note_on_c, 0, 83, 90
2, 56832, Note_on_c, 0, 55, 75
2, 56832, Note_on_c, 0, 59, 68
2, 56956, Note_off_c, 0, 71, 0
2, 56956, Note_off_c, 0, 83, 0
2, 57020, Note_off_c, 0, 55, 0
2, 57020, Note_off_c, 0, 59, 0
2, 57024, Note_on_c, 0, 62, 82
2, 57212, Note_off_c, 0, 62, 0
2, 57216, Note_on_c, 0, 79, 92
2, 57216, Note_on_c, 0, 67, 92
2, 57216, Note_on_c, 0, 59, 79
2, 57216, Note_on_c, 0, 55, 75
2, 57340, Note_off_c, 0, 79, 0
2, 57340, Note_off_c, 0, 67, 0
2, 57404, Note_off_c, 0, 59, 0
2, 57404, Note_off_c, 0, 55, 0
2, 57408, Note_on_c, 0, 62, 88
2, 57596, Note_off_c, 0, 62, 0
2, 57600, Note_on_c, 0, 74, 110
2, 57600, Note_on_c, 0, 86, 86
2, 57792, Note_on_c, 0, 62, 66
2, 57980, Note_off_c, 0, 62, 0
2, 58176, Note_on_c, 0, 62, 63
2, 58364, Note_off_c, 0, 74, 0
2, 58364, Note_off_c, 0, 86, 0
2, 58364, Note_off_c, 0, 62, 0
2, 58368, Note_on_c, 0, 59, 82
2, 58368, Note_on_c, 0, 55, 82
2, 58368, Note_on_c, 0, 84, 86
2, 58556, Note_off_c, 0, 59, 0
2, 58556, Note_off_c, 0, 55, 0
2, 58556, Note_off_c, 0, 84, 0
2, 58560, Note_on_c, 0, 62, 81
2, 58560, Note_on_c, 0, 83, 99
2, 58748, Note_off_c, 0, 62, 0
2, 58748, Note_off_c, 0, 83, 0
2, 58752, Note_on_c, 0, 81, 85
2, 58940, Note_off_c, 0, 81, 0
2, 58944, Note_on_c, 0, 62, 79
2, 58944, Note_on_c, 0, 79, 92
2, 59132, Note_off_c, 0, 62, 0
2, 59132, Note_off_c, 0, 79, 0
2, 59136, Note_on_c, 0, 55, 92
2, 59136, Note_on_c, 0, 59, 85
2, 59136, Note_on_c, 0, 78, 87
2, 59324, Note_off_c, 0, 55, 0
2, 59324, Note_off_c, 0, 59, 0
2, 59324, Note_off_c, 0, 78, 0
2, 59328, Note_on_c, 0, 62, 86
2, 59328, Note_on_c, 0, 79, 88
2, 59516, Note_off_c, 0, 62, 0
2, 59516, Note_off_c, 0, 79, 0
2, 59520, Note_on_c, 0, 83, 93
2, 59708, Note_off_c, 0, 83, 0
2, 59712, Note_on_c, 0, 62, 86
2, 59712, Note_on_c, 0, 79, 99
2, 59900, Note_off_c, 0, 62, 0
2, 59900, Note_off_c, 0, 79, 0
2, 59904, Note_on_c, 0, 55, 87
2, 59904, Note_on_c, 0, 60, 90
2, 59904, Note_on_c, 0, 78, 93
2, 60092, Note_off_c, 0, 55, 0
2, 60092, Note_off_c, 0, 60, 0
2, 60096, Note_on_c, 0, 64, 68
2, 60284, Note_off_c, 0, 78, 0
2, 60284, Note_off_c, 0, 64, 0
2, 60288, Note_on_c, 0, 55, 87
2, 60288, Note_on_c, 0, 60, 79
2, 60288, Note_on_c, 0, 76, 107
2, 60476, Note_off_c, 0, 55, 0
2, 60476, Note_off_c, 0, 60, 0
2, 60480, Note_on_c, 0, 64, 81
2, 60668, Note_off_c, 0, 76, 0
2, 60668, Note_off_c, 0, 64, 0
2, 60672, Note_on_c, 0, 55, 90
2, 60672, Note_on_c, 0, 60, 88
2, 60672, Note_on_c, 0, 74, 90
2, 60860, Note_off_c, 0, 55, 0
2, 60860, Note_off_c, 0, 60, 0
2, 60860, Note_off_c, 0, 74, 0
2, 60864, Note_on_c, 0, 64, 82
2, 60864, Note_on_c, 0, 72, 89
2, 61052, Note_off_c, 0, 64, 0
2, 61052, Note_off_c, 0, 72, 0
2, 61056, Note_on_c, 0, 55, 88
2, 61056, Note_on_c, 0, 60, 88
2, 61056, Note_on_c, 0, 71, 92
2, 61244, Note_off_c, 0, 55, 0
2, 61244, Note_off_c, 0, 60, 0
2, 61244, Note_off_c, 0, 71, 0
2, 61248, Note_on_c, 0, 64, 80
2, 61248, Note_on_c, 0, 69, 90
2, 61436, Note_off_c, 0, 64, 0
2, 61436, Note_off_c, 0, 69, 0
2, 61440, Note_on_c, 0, 55, 88
2, 61440, Note_on_c, 0, 60, 85
2, 61440, Note_on_c, 0, 68, 89
2, 61628, Note_off_c, 0, 55, 0
2, 61628, Note_off_c, 0, 60, 0
2, 61628, Note_off_c, 0, 68, 0
2, 61632, Note_on_c, 0, 64, 82
2, 61632, Note_on_c, 0, 69, 92
2, 61820, Note_off_c, 0, 64, 0
2, 61820, Note_off_c, 0, 69, 0
2, 61824, Note_on_c, 0, 60, 93
2, 61824, Note_on_c, 0, 55, 94
2, 61824, Note_on_c, 0, 72, 82
2, 62012, Note_off_c, 0, 60, 0
2, 62012, Note_off_c, 0, 55, 0
2, 62012, Note_off_c, 0, 72, 0
2, 62016, Note_on_c, 0, 64, 86
2, 62016, Note_on_c, 0, 69, 97
2, 62204, Note_off_c, 0, 64, 0
2, 62204, Note_off_c, 0, 69, 0
2, 62208, Note_on_c, 0, 55, 81
2, 62208, Note_on_c, 0, 60, 86
2, 62208, Note_on_c, 0, 57, 83
2, 62208, Note_on_c, 0, 66, 93
2, 62396, Note_off_c, 0, 55, 0
2, 62396, Note_off_c, 0, 60, 0
2, 62396, Note_off_c, 0, 57, 0
2, 62400, Note_on_c, 0, 62, 40
2, 62588, Note_off_c, 0, 62, 0
2, 62592, Note_on_c, 0, 55, 83
2, 62592, Note_on_c, 0, 60, 73
2, 62592, Note_on_c, 0, 57, 80
2, 62780, Note_off_c, 0, 55, 0
2, 62780, Note_off_c, 0, 60, 0
2, 62780, Note_off_c, 0, 57, 0
2, 62784, Note_on_c, 0, 62, 85
2, 62972, Note_off_c, 0, 66, 0
2, 62972, Note_off_c, 0, 62, 0
2, 62976, Note_on_c, 0, 60, 81
2, 62976, Note_on_c, 0, 55, 78
2, 62976, Note_on_c, 0, 57, 80
2, 62976, Note_on_c, 0, 69, 84
2, 63100, Note_off_c, 0, 69, 0
2, 63164, Note_off_c, 0, 60, 0
2, 63164, Note_off_c, 0, 55, 0
2, 63164, Note_off_c, 0, 57, 0
2, 63168, Note_on_c, 0, 62, 90
2, 63356, Note_off_c, 0, 62, 0
2, 63360, Note_on_c, 0, 55, 80
2, 63360, Note_on_c, 0, 60, 88
2, 63360, Note_on_c, 0, 57, 82
2, 63360, Note_on_c, 0, 72, 92
2, 63484, Note_off_c, 0, 72, 0
2, 63548, Note_off_c, 0, 55, 0
2, 63548, Note_off_c, 0, 60, 0
2, 63548, Note_off_c, 0, 57, 0
2, 63552, Note_on_c, 0, 62, 79
2, 63740, Note_off_c, 0, 62, 0
2, 63744, Note_on_c, 0, 60, 89
2, 63744, Note_on_c, 0, 55, 71
2, 63744, Note_on_c, 0, 57, 79
2, 63744, Note_on_c, 0, 69, 88
2, 63868, Note_off_c, 0, 69, 0
2, 63932, Note_off_c, 0, 60, 0
2, 63932, Note_off_c, 0, 55, 0
2, 63932, Note_off_c, 0, 57, 0
2, 63936, Note_on_c, 0, 62, 96
2, 64124, Note_off_c, 0, 62, 0
2, 64128, Note_on_c, 0, 60, 87
2, 64128, Note_on_c, 0, 55, 82
2, 64128, Note_on_c, 0, 57, 86
2, 64128, Note_on_c, 0, 66, 93
2, 64252, Note_off_c, 0, 66, 0
2, 64316, Note_off_c, 0, 60, 0
2, 64316, Note_off_c, 0, 55, 0
2, 64316, Note_off_c, 0, 57, 0
2, 64320, Note_on_c, 0, 62, 76
2, 64508, Note_off_c, 0, 62, 0
2, 64512, Note_on_c, 0, 59, 64
2, 64512, Note_on_c, 0, 55, 69
2, 64512, Note_on_c, 0, 67, 74
2, 64700, Note_off_c, 0, 67, 0
2, 64704, Note_on_c, 0, 62, 74
2, 64892, Note_off_c, 0, 62, 0
2, 64896, Note_on_c, 0, 61, 74
2, 65084, Note_off_c, 0, 61, 0
2, 65088, Note_on_c, 0, 62, 80
2, 65276, Note_off_c, 0, 62, 0
2, 65280, Note_on_c, 0, 66, 81
2, 65468, Note_off_c, 0, 66, 0
2, 65472, Note_on_c, 0, 67, 84
2, 65660, Note_off_c, 0, 59, 0
2, 65660, Note_off_c, 0, 55, 0
2, 65660, Note_off_c, 0, 67, 0
2, 65664, Note_on_c, 0, 69, 81
2, 65852, Note_off_c, 0, 69, 0
2, 65856, Note_on_c, 0, 62, 78
2, 66044, Note_off_c, 0, 62, 0
2, 66048, Note_on_c, 0, 61, 78
2, 66236, Note_off_c, 0, 61, 0
2, 66240, Note_on_c, 0, 62, 76
2, 66428, Note_off_c, 0, 62, 0
2, 66432, Note_on_c, 0, 67, 93
2, 66620, Note_off_c, 0, 67, 0
2, 66624, Note_on_c, 0, 69, 77
2, 66812, Note_off_c, 0, 69, 0
2, 66816, Note_on_c, 0, 71, 79
2, 67004, Note_off_c, 0, 71, 0
2, 67008, Note_on_c, 0, 67, 82
2, 67196, Note_off_c, 0, 67, 0
2, 67200, Note_on_c, 0, 66, 76
2, 67388, Note_off_c, 0, 66, 0
2, 67392, Note_on_c, 0, 67, 80
2, 67580, Note_off_c, 0, 67, 0
2, 67584, Note_on_c, 0, 45, 70
2, 67584, Note_on_c, 0, 57, 61
2, 67584, Note_on_c, 0, 72, 79
2, 67772, Note_off_c, 0, 45, 0
2, 67772, Note_off_c, 0, 57, 0
2, 67772, Note_off_c, 0, 72, 0
2, 67776, Note_on_c, 0, 47, 76
2, 67776, Note_on_c, 0, 59, 72
2, 67776, Note_on_c, 0, 74, 84
2, 67964, Note_off_c, 0, 47, 0
2, 67964, Note_off_c, 0, 59, 0
2, 67964, Note_off_c, 0, 74, 0
2, 67968, Note_on_c, 0, 48, 76
2, 67968, Note_on_c, 0, 60, 64
2, 67968, Note_on_c, 0, 76, 82
2, 68092, Note_off_c, 0, 48, 0
2, 68092, Note_off_c, 0, 60, 0
2, 68156, Note_off_c, 0, 76, 0
2, 68160, Note_on_c, 0, 74, 73
2, 68348, Note_off_c, 0, 74, 0
2, 68352, Note_on_c, 0, 72, 76
2, 68540, Note_off_c, 0, 72, 0
2, 68544, Note_on_c, 0, 71, 75
2, 68732, Note_off_c, 0, 71, 0
2, 68736, Note_on_c, 0, 69, 74
2, 68924, Note_off_c, 0, 69, 0
2, 68928, Note_on_c, 0, 67, 82
2, 69116, Note_off_c, 0, 67, 0
2, 69120, Note_on_c, 0, 62, 42
2, 69120, Note_on_c, 0, 50, 53
2, 69120, Note_on_c, 0, 66, 59
2, 69308, Note_off_c, 0, 62, 0
2, 69308, Note_off_c, 0, 50, 0
2, 69500, Note_off_c, 0, 66, 0
2, 69696, Note_on_c, 0, 57, 54
2, 69696, Note_on_c, 0, 62, 53
2, 69884, Note_off_c, 0, 57, 0
2, 69884, Note_off_c, 0, 62, 0
2, 69888, Note_on_c, 0, 66, 56
2, 70076, Note_off_c, 0, 66, 0
2, 70080, Note_on_c, 0, 69, 55
2, 70268, Note_off_c, 0, 69, 0
2, 70272, Note_on_c, 0, 74, 63
2, 70460, Note_off_c, 0, 74, 0
2, 70464, Note_on_c, 0, 66, 58
2, 70652, Note_off_c, 0, 66, 0
2, 70656, Note_on_c, 0, 69, 56
2, 70844, Note_off_c, 0, 69, 0
2, 70848, Note_on_c, 0, 74, 63
2, 71036, Note_off_c, 0, 74, 0
2, 71040, Note_on_c, 0, 78, 64
2, 71228, Note_off_c, 0, 78, 0
2, 71232, Note_on_c, 0, 69, 43
2, 71420, Note_off_c, 0, 69, 0
2, 71424, Note_on_c, 0, 74, 58
2, 71612, Note_off_c, 0, 74, 0
2, 71616, Note_on_c, 0, 78, 47
2, 71804, Note_off_c, 0, 78, 0
2, 71808, Note_on_c, 0, 81, 57
2, 71996, Note_off_c, 0, 81, 0
2, 72000, Note_on_c, 0, 74, 24
2, 72188, Note_off_c, 0, 74, 0
2, 72192, Note_on_c, 0, 78, 46
2, 72380, Note_off_c, 0, 78, 0
2, 72384, Note_on_c, 0, 81, 55
2, 72572, Note_off_c, 0, 81, 0
2, 72576, Note_on_c, 0, 86, 56
2, 72764, Note_off_c, 0, 86, 0
2, 72768, Note_on_c, 0, 78, 42
2, 72956, Note_off_c, 0, 78, 0
2, 72960, Note_on_c, 0, 81, 52
2, 73148, Note_off_c, 0, 81, 0
2, 73152, Note_on_c, 0, 86, 58
2, 73340, Note_off_c, 0, 86, 0
2, 73344, Note_on_c, 0, 90, 55
2, 73532, Note_off_c, 0, 90, 0
2, 73536, Note_on_c, 0, 88, 56
2, 73724, Note_off_c, 0, 88, 0
2, 73728, Note_on_c, 0, 86, 71
2, 74108, Note_off_c, 0, 86, 0
2, 74304, Note_on_c, 0, 62, 58
2, 74304, Note_on_c, 0, 59, 44
2, 74492, Note_off_c, 0, 62, 0
2, 74492, Note_off_c, 0, 59, 0
2, 74496, Note_on_c, 0, 66, 58
2, 74684, Note_off_c, 0, 66, 0
2, 74688, Note_on_c, 0, 71, 49
2, 74876, Note_off_c, 0, 71, 0
2, 74880, Note_on_c, 0, 74, 66
2, 75068, Note_off_c, 0, 74, 0
2, 75072, Note_on_c, 0, 66, 55
2, 75260, Note_off_c, 0, 66, 0
2, 75264, Note_on_c, 0, 71, 57
2, 75452, Note_off_c, 0, 71, 0
2, 75456, Note_on_c, 0, 74, 63
2, 75644, Note_off_c, 0, 74, 0
2, 75648, Note_on_c, 0, 78, 61
2, 75836, Note_off_c, 0, 78, 0
2, 75840, Note_on_c, 0, 71, 51
2, 76028, Note_off_c, 0, 71, 0
2, 76032, Note_on_c, 0, 74, 43
2, 76220, Note_off_c, 0, 74, 0
2, 76224, Note_on_c, 0, 78, 38
2, 76412, Note_off_c, 0, 78, 0
2, 76416, Note_on_c, 0, 83, 59
2, 76604, Note_off_c, 0, 83, 0
2, 76608, Note_on_c, 0, 74, 57
2, 76796, Note_off_c, 0, 74, 0
2, 76800, Note_on_c, 0, 78, 49
2, 76988, Note_off_c, 0, 78, 0
2, 76992, Note_on_c, 0, 83, 36
2, 77180, Note_off_c, 0, 83, 0
2, 77184, Note_on_c, 0, 86, 54
2, 77372, Note_off_c, 0, 86, 0
2, 77376, Note_on_c, 0, 78, 48
2, 77564, Note_off_c, 0, 78, 0
2, 77568, Note_on_c, 0, 83, 60
2, 77756, Note_off_c, 0, 83, 0
2, 77760, Note_on_c, 0, 86, 62
2, 77948, Note_off_c, 0, 86, 0
2, 77952, Note_on_c, 0, 90, 60
2, 78140, Note_off_c, 0, 90, 0
2, 78144, Note_on_c, 0, 88, 66
2, 78332, Note_off_c, 0, 88, 0
2, 78336, Note_on_c, 0, 86, 69
2, 78716, Note_off_c, 0, 86, 0
2, 78912, Note_on_c, 0, 62, 48
2, 78912, Note_on_c, 0, 52, 51
2, 79100, Note_off_c, 0, 62, 0
2, 79100, Note_off_c, 0, 52, 0
2, 79104, Note_on_c, 0, 64, 63
2, 79104, Note_on_c, 0, 56, 38
2, 79292, Note_off_c, 0, 64, 0
2, 79292, Note_off_c, 0, 56, 0
2, 79296, Note_on_c, 0, 68, 55
2, 79484, Note_off_c, 0, 68, 0
2, 79488, Note_on_c, 0, 71, 60
2, 79676, Note_off_c, 0, 71, 0
2, 79680, Note_on_c, 0, 64, 64
2, 79868, Note_off_c, 0, 64, 0
2, 79872, Note_on_c, 0, 68, 58
2, 80060, Note_off_c, 0, 68, 0
2, 80064, Note_on_c, 0, 71, 47
2, 80252, Note_off_c, 0, 71, 0
2, 80256, Note_on_c, 0, 74, 68
2, 80444, Note_off_c, 0, 74, 0
2, 80448, Note_on_c, 0, 68, 48
2, 80636, Note_off_c, 0, 68, 0
2, 80640, Note_on_c, 0, 71, 53
2, 80828, Note_off_c, 0, 71, 0
2, 80832, Note_on_c, 0, 74, 57
2, 81020, Note_off_c, 0, 74, 0
2, 81024, Note_on_c, 0, 80, 69
2, 81212, Note_off_c, 0, 80, 0
2, 81216, Note_on_c, 0, 71, 51
2, 81404, Note_off_c, 0, 71, 0
2, 81408, Note_on_c, 0, 74, 55
2, 81596, Note_off_c, 0, 74, 0
2, 81600, Note_on_c, 0, 80, 64
2, 81788, Note_off_c, 0, 80, 0
2, 81792, Note_on_c, 0, 83, 60
2, 81980, Note_off_c, 0, 83, 0
2, 81984, Note_on_c, 0, 80, 60
2, 82172, Note_off_c, 0, 80, 0
2, 82176, Note_on_c, 0, 76, 66
2, 82176, Note_on_c, 0, 59, 55
2, 82176, Note_on_c, 0, 56, 64
2, 82364, Note_off_c, 0, 76, 0
2, 82368, Note_on_c, 0, 78, 60
2, 82556, Note_off_c, 0, 59, 0
2, 82556, Note_off_c, 0, 56, 0
2, 82556, Note_off_c, 0, 78, 0
2, 82560, Note_on_c, 0, 76, 62
2, 82560, Note_on_c, 0, 62, 49
2, 82560, Note_on_c, 0, 59, 42
2, 82748, Note_off_c, 0, 76, 0
2, 82752, Note_on_c, 0, 78, 54
2, 82940, Note_off_c, 0, 62, 0
2, 82940, Note_off_c, 0, 59, 0
2, 82940, Note_off_c, 0, 78, 0
2, 82944, Note_on_c, 0, 73, 67
2, 82944, Note_on_c, 0, 76, 74
2, 82944, Note_on_c, 0, 57, 52
2, 82944, Note_on_c, 0, 61, 57
2, 83132, Note_off_c, 0, 61, 0
2, 83136, Note_on_c, 0, 62, 66
2, 83324, Note_off_c, 0, 57, 0
2, 83324, Note_off_c, 0, 62, 0
2, 83328, Note_on_c, 0, 64, 69
2, 83516, Note_off_c, 0, 64, 0
2, 83520, Note_on_c, 0, 66, 68
2, 83708, Note_off_c, 0, 66, 0
2, 83712, Note_on_c, 0, 68, 68
2, 83900, Note_off_c, 0, 68, 0
2, 83904, Note_on_c, 0, 69, 76
2, 84092, Note_off_c, 0, 73, 0
2, 84092, Note_off_c, 0, 76, 0
2, 84092, Note_off_c, 0, 69, 0
2, 84096, Note_on_c, 0, 74, 71
2, 84096, Note_on_c, 0, 76, 71
2, 84096, Note_on_c, 0, 68, 73
2, 84284, Note_off_c, 0, 68, 0
2, 84288, Note_on_c, 0, 66, 69
2, 84476, Note_off_c, 0, 66, 0
2, 84480, Note_on_c, 0, 64, 59
2, 84668, Note_off_c, 0, 64, 0
2, 84672, Note_on_c, 0, 62, 68
2, 84860, Note_off_c, 0, 62, 0
2, 84864, Note_on_c, 0, 61, 73
2, 85052, Note_off_c, 0, 61, 0
2, 85056, Note_on_c, 0, 59, 71
2, 85244, Note_off_c, 0, 74, 0
2, 85244, Note_off_c, 0, 76, 0
2, 85244, Note_off_c, 0, 59, 0
2, 85248, Note_on_c, 0, 79, 75
2, 85248, Note_on_c, 0, 76, 83
2, 85248, Note_on_c, 0, 57, 77
2, 85436, Note_off_c, 0, 57, 0
2, 86396, Note_off_c, 0, 79, 0
2, 86396, Note_off_c, 0, 76, 0
2, 86400, Note_on_c, 0, 78, 40
2, 86400, Note_on_c, 0, 74, 35
2, 86780, Note_off_c, 0, 78, 0
2, 86780, Note_off_c, 0, 74, 0
2, 86784, Note_on_c, 0, 78, 48
2, 86784, Note_on_c, 0, 74, 44
2, 87164, Note_off_c, 0, 78, 0
2, 87164, Note_off_c, 0, 74, 0
2, 87168, Note_on_c, 0, 78, 44
2, 87168, Note_on_c, 0, 74, 43
2, 87168, Note_on_c, 0, 57, 61
2, 87356, Note_off_c, 0, 57, 0
2, 87360, Note_on_c, 0, 59, 60
2, 87548, Note_off_c, 0, 78, 0
2, 87548, Note_off_c, 0, 74, 0
2, 87548, Note_off_c, 0, 59, 0
2, 87552, Note_on_c, 0, 76, 71
2, 87552, Note_on_c, 0, 73, 58
2, 87552, Note_on_c, 0, 57, 58
2, 87552, Note_on_c, 0, 61, 60
2, 87740, Note_off_c, 0, 61, 0
2, 87744, Note_on_c, 0, 62, 65
2, 87932, Note_off_c, 0, 57, 0
2, 87932, Note_off_c, 0, 62, 0
2, 87936, Note_on_c, 0, 64, 68
2, 88124, Note_off_c, 0, 64, 0
2, 88128, Note_on_c, 0, 66, 70
2, 88316, Note_off_c, 0, 66, 0
2, 88320, Note_on_c, 0, 68, 73
2, 88508, Note_off_c, 0, 68, 0
2, 88512, Note_on_c, 0, 69, 72
2, 88700, Note_off_c, 0, 76, 0
2, 88700, Note_off_c, 0, 73, 0
2, 88700, Note_off_c, 0, 69, 0
2, 88704, Note_on_c, 0, 76, 68
2, 88704, Note_on_c, 0, 74, 69
2, 88704, Note_on_c, 0, 68, 60
2, 88892, Note_off_c, 0, 68, 0
2, 88896, Note_on_c, 0, 66, 67
2, 89084, Note_off_c, 0, 66, 0
2, 89088, Note_on_c, 0, 64, 58
2, 89276, Note_off_c, 0, 64, 0
2, 89280, Note_on_c, 0, 62, 68
2, 89468, Note_off_c, 0, 62, 0
2, 89472, Note_on_c, 0, 61, 69
2, 89660, Note_off_c, 0, 61, 0
2, 89664, Note_on_c, 0, 59, 70
2, 89852, Note_off_c, 0, 76, 0
2, 89852, Note_off_c, 0, 74, 0
2, 89852, Note_off_c, 0, 59, 0
2, 89856, Note_on_c, 0, 76, 85
2, 89856, Note_on_c, 0, 79, 80
2, 89856, Note_on_c, 0, 57, 81
2, 90044, Note_off_c, 0, 57, 0
2, 91004, Note_off_c, 0, 76, 0
2, 91004, Note_off_c, 0, 79, 0
2, 91008, Note_on_c, 0, 74, 40
2, 91008, Note_on_c, 0, 78, 50
2, 91388, Note_off_c, 0, 74, 0
2, 91388, Note_off_c, 0, 78, 0
2, 91392, Note_on_c, 0, 78, 45
2, 91392, Note_on_c, 0, 74, 52
2, 91772, Note_off_c, 0, 78, 0
2, 91772, Note_off_c, 0, 74, 0
2, 91776, Note_on_c, 0, 78, 42
2, 91776, Note_on_c, 0, 74, 41
2, 91776, Note_on_c, 0, 57, 63
2, 91964, Note_off_c, 0, 57, 0
2, 91968, Note_on_c, 0, 59, 58
2, 92156, Note_off_c, 0, 78, 0
2, 92156, Note_off_c, 0, 74, 0
2, 92156, Note_off_c, 0, 59, 0
2, 92160, Note_on_c, 0, 76, 60
2, 92160, Note_on_c, 0, 73, 50
2, 92160, Note_on_c, 0, 64, 55
2, 92160, Note_on_c, 0, 61, 55
2, 92160, Note_on_c, 0, 57, 61
2, 92348, Note_off_c, 0, 76, 0
2, 92348, Note_off_c, 0, 73, 0
2, 92352, Note_on_c, 0, 74, 68
2, 92540, Note_off_c, 0, 74, 0
2, 92544, Note_on_c, 0, 76, 68
2, 92732, Note_off_c, 0, 76, 0
2, 92736, Note_on_c, 0, 78, 60
2, 92924, Note_off_c, 0, 78, 0
2, 92928, Note_on_c, 0, 80, 70
2, 93116, Note_off_c, 0, 80, 0
2, 93120, Note_on_c, 0, 81, 67
2, 93308, Note_off_c, 0, 64, 0
2, 93308, Note_off_c, 0, 61, 0
2, 93308, Note_off_c, 0, 81, 0
2, 93312, Note_on_c, 0, 80, 67
2, 93312, Note_on_c, 0, 59, 45
2, 93312, Note_on_c, 0, 62, 42
2, 93500, Note_off_c, 0, 80, 0
2, 93504, Note_on_c, 0, 78, 60
2, 93692, Note_off_c, 0, 78, 0
2, 93696, Note_on_c, 0, 76, 56
2, 93884, Note_off_c, 0, 76, 0
2, 93888, Note_on_c, 0, 74, 43
2, 94076, Note_off_c, 0, 74, 0
2, 94080, Note_on_c, 0, 73, 57
2, 94268, Note_off_c, 0, 73, 0
2, 94272, Note_on_c, 0, 71, 46
2, 94460, Note_off_c, 0, 57, 0
2, 94460, Note_off_c, 0, 59, 0
2, 94460, Note_off_c, 0, 62, 0
2, 94460, Note_off_c, 0, 71, 0
2, 94464, Note_on_c, 0, 74, 48
2, 94464, Note_on_c, 0, 57, 54
2, 94464, Note_on_c, 0, 62, 64
2, 94464, Note_on_c, 0, 68, 54
2, 94652, Note_off_c, 0, 74, 0
2, 94656, Note_on_c, 0, 76, 65
2, 94844, Note_off_c, 0, 76, 0
2, 94848, Note_on_c, 0, 78, 62
2, 95036, Note_off_c, 0, 78, 0
2, 95040, Note_on_c, 0, 80, 53
2, 95228, Note_off_c, 0, 80, 0
2, 95232, Note_on_c, 0, 81, 49
2, 95420, Note_off_c, 0, 81, 0
2, 95424, Note_on_c, 0, 83, 61
2, 95612, Note_off_c, 0, 62, 0
2, 95612, Note_off_c, 0, 68, 0
2, 95612, Note_off_c, 0, 83, 0
2, 95616, Note_on_c, 0, 81, 52
2, 95616, Note_on_c, 0, 61, 62
2, 95616, Note_on_c, 0, 64, 55
2, 95804, Note_off_c, 0, 81, 0
2, 95808, Note_on_c, 0, 79, 62
2, 95996, Note_off_c, 0, 79, 0
2, 96000, Note_on_c, 0, 78, 60
2, 96188, Note_off_c, 0, 78, 0
2, 96192, Note_on_c, 0, 76, 48
2, 96380, Note_off_c, 0, 76, 0
2, 96384, Note_on_c, 0, 74, 54
2, 96572, Note_off_c, 0, 74, 0
2, 96576, Note_on_c, 0, 73, 49
2, 96764, Note_off_c, 0, 57, 0
2, 96764, Note_off_c, 0, 61, 0
2, 96764, Note_off_c, 0, 64, 0
2, 96764, Note_off_c, 0, 73, 0
2, 96768, Note_on_c, 0, 61, 53
2, 96768, Note_on_c, 0, 64, 49
2, 96768, Note_on_c, 0, 67, 63
2, 96768, Note_on_c, 0, 57, 47
2, 96768, Note_on_c, 0, 76, 70
2, 96956, Note_off_c, 0, 76, 0
2, 96960, Note_on_c, 0, 79, 69
2, 97148, Note_off_c, 0, 79, 0
2, 97152, Note_on_c, 0, 85, 84
2, 97340, Note_off_c, 0, 85, 0
2, 97344, Note_on_c, 0, 79, 71
2, 97532, Note_off_c, 0, 79, 0
2, 97536, Note_on_c, 0, 88, 81
2, 97724, Note_off_c, 0, 88, 0
2, 97728, Note_on_c, 0, 85, 73
2, 97916, Note_off_c, 0, 61, 0
2, 97916, Note_off_c, 0, 64, 0
2, 97916, Note_off_c, 0, 67, 0
2, 97916, Note_off_c, 0, 57, 0
2, 97916, Note_off_c, 0, 85, 0
2, 97920, Note_on_c, 0, 58, 69
2, 97920, Note_on_c, 0, 67, 79
2, 97920, Note_on_c, 0, 61, 68
2, 97920, Note_on_c, 0, 64, 67
2, 97920, Note_on_c, 0, 88, 76
2, 98108, Note_off_c, 0, 88, 0
2, 98112, Note_on_c, 0, 85, 65
2, 98300, Note_off_c, 0, 85, 0
2, 98304, Note_on_c, 0, 88, 85
2, 98492, Note_off_c, 0, 88, 0
2, 98496, Note_on_c, 0, 85, 77
2, 98684, Note_off_c, 0, 85, 0
2, 98688, Note_on_c, 0, 88, 78
2, 98876, Note_off_c, 0, 88, 0
2, 98880, Note_on_c, 0, 85, 74
2, 99068, Note_off_c, 0, 58, 0
2, 99068, Note_off_c, 0, 67, 0
2, 99068, Note_off_c, 0, 61, 0
2, 99068, Note_off_c, 0, 64, 0
2, 99068, Note_off_c, 0, 85, 0
2, 99072, Note_on_c, 0, 61, 67
2, 99072, Note_on_c, 0, 57, 70
2, 99072, Note_on_c, 0, 64, 66
2, 99072, Note_on_c, 0, 67, 76
2, 99072, Note_on_c, 0, 88, 83
2, 99260, Note_off_c, 0, 88, 0
2, 99264, Note_on_c, 0, 85, 71
2, 99452, Note_off_c, 0, 85, 0
2, 99456, Note_on_c, 0, 81, 71
2, 99644, Note_off_c, 0, 81, 0
2, 99648, Note_on_c, 0, 83, 82
2, 99836, Note_off_c, 0, 61, 0
2, 99836, Note_off_c, 0, 57, 0
2, 99836, Note_off_c, 0, 64, 0
2, 99836, Note_off_c, 0, 67, 0
2, 99836, Note_off_c, 0, 83, 0
2, 99840, Note_on_c, 0, 55, 62
2, 99840, Note_on_c, 0, 61, 62
2, 99840, Note_on_c, 0, 64, 63
2, 99840, Note_on_c, 0, 85, 83
2, 100028, Note_off_c, 0, 85, 0
2, 100032, Note_on_c, 0, 81, 72
2, 100220, Note_off_c, 0, 55, 0
2, 100220, Note_off_c, 0, 61, 0
2, 100220, Note_off_c, 0, 64, 0
2, 100220, Note_off_c, 0, 81, 0
2, 100224, Note_on_c, 0, 62, 42
2, 100224, Note_on_c, 0, 54, 43
2, 100224, Note_on_c, 0, 57, 44
2, 100224, Note_on_c, 0, 86, 82
2, 100412, Note_off_c, 0, 86, 0
2, 100416, Note_on_c, 0, 81, 73
2, 100604, Note_off_c, 0, 81, 0
2, 100608, Note_on_c, 0, 86, 82
2, 100796, Note_off_c, 0, 86, 0
2, 100800, Note_on_c, 0, 81, 78
2, 100988, Note_off_c, 0, 62, 0
2, 100988, Note_off_c, 0, 54, 0
2, 100988, Note_off_c, 0, 57, 0
2, 100988, Note_off_c, 0, 81, 0
2, 100992, Note_on_c, 0, 62, 43
2, 100992, Note_on_c, 0, 57, 44
2, 100992, Note_on_c, 0, 50, 41
2, 100992, Note_on_c, 0, 78, 63
2, 101180, Note_off_c, 0, 78, 0
2, 101184, Note_on_c, 0, 74, 59
2, 101372, Note_off_c, 0, 62, 0
2, 101372, Note_off_c, 0, 57, 0
2, 101372, Note_off_c, 0, 50, 0
2, 101372, Note_off_c, 0, 74, 0
2, 101376, Note_on_c, 0, 67, 64
2, 101376, Note_on_c, 0, 57, 51
2, 101376, Note_on_c, 0, 61, 49
2, 101376, Note_on_c, 0, 64, 45
2, 101376, Note_on_c, 0, 76, 70
2, 101564, Note_off_c, 0, 76, 0
2, 101568, Note_on_c, 0, 79, 72
2, 101756, Note_off_c, 0, 79, 0
2, 101760, Note_on_c, 0, 85, 74
2, 101948, Note_off_c, 0, 85, 0
2, 101952, Note_on_c, 0, 79, 70
2, 102140, Note_off_c, 0, 79, 0
2, 102144, Note_on_c, 0, 88, 68
2, 102332, Note_off_c, 0, 88, 0
2, 102336, Note_on_c, 0, 85, 70
2, 102524, Note_off_c, 0, 67, 0
2, 102524, Note_off_c, 0, 57, 0
2, 102524, Note_off_c, 0, 61, 0
2, 102524, Note_off_c, 0, 64, 0
2, 102524, Note_off_c, 0, 85, 0
2, 102528, Note_on_c, 0, 58, 73
2, 102528, Note_on_c, 0, 67, 80
2, 102528, Note_on_c, 0, 64, 70
2, 102528, Note_on_c, 0, 61, 67
2, 102528, Note_on_c, 0, 88, 85
2, 102716, Note_off_c, 0, 88, 0
2, 102720, Note_on_c, 0, 85, 80
2, 102908, Note_off_c, 0, 85, 0
2, 102912, Note_on_c, 0, 88, 88
2, 103100, Note_off_c, 0, 88, 0
2, 103104, Note_on_c, 0, 85, 84
2, 103292, Note_off_c, 0, 85, 0
2, 103296, Note_on_c, 0, 88, 82
2, 103484, Note_off_c, 0, 88, 0
2, 103488, Note_on_c, 0, 85, 80
2, 103676, Note_off_c, 0, 58, 0
2, 103676, Note_off_c, 0, 67, 0
2, 103676, Note_off_c, 0, 64, 0
2, 103676, Note_off_c, 0, 61, 0
2, 103676, Note_off_c, 0, 85, 0
2, 103680, Note_on_c, 0, 57, 74
2, 103680, Note_on_c, 0, 61, 69
2, 103680, Note_on_c, 0, 67, 80
2, 103680, Note_on_c, 0, 64, 67
2, 103680, Note_on_c, 0, 88, 79
2, 103868, Note_off_c, 0, 88, 0
2, 103872, Note_on_c, 0, 85, 76
2, 104060, Note_off_c, 0, 85, 0
2, 104064, Note_on_c, 0, 81, 74
2, 104252, Note_off_c, 0, 81, 0
2, 104256, Note_on_c, 0, 83, 83
2, 104444, Note_off_c, 0, 57, 0
2, 104444, Note_off_c, 0, 61, 0
2, 104444, Note_off_c, 0, 67, 0
2, 104444, Note_off_c, 0, 64, 0
2, 104444, Note_off_c, 0, 83, 0
2, 104448, Note_on_c, 0, 64, 59
2, 104448, Note_on_c, 0, 61, 61
2, 104448, Note_on_c, 0, 55, 63
2, 104448, Note_on_c, 0, 85, 82
2, 104636, Note_off_c, 0, 85, 0
2, 104640, Note_on_c, 0, 81, 73
2, 104828, Note_off_c, 0, 64, 0
2, 104828, Note_off_c, 0, 61, 0
2, 104828, Note_off_c, 0, 55, 0
2, 104828, Note_off_c, 0, 81, 0
2, 104832, Note_on_c, 0, 57, 56
2, 104832, Note_on_c, 0, 54, 56
2, 104832, Note_on_c, 0, 62, 67
2, 104832, Note_on_c, 0, 86, 74
2, 105020, Note_off_c, 0, 86, 0
2, 105024, Note_on_c, 0, 81, 66
2, 105212, Note_off_c, 0, 81, 0
2, 105216, Note_on_c, 0, 86, 83
2, 105404, Note_off_c, 0, 86, 0
2, 105408, Note_on_c, 0, 81, 69
2, 105596, Note_off_c, 0, 57, 0
2, 105596, Note_off_c, 0, 54, 0
2, 105596, Note_off_c, 0, 62, 0
2, 105596, Note_off_c, 0, 81, 0
2, 105600, Note_on_c, 0, 57, 59
2, 105600, Note_on_c, 0, 62, 60
2, 105600, Note_on_c, 0, 50, 52
2, 105600, Note_on_c, 0, 78, 67
2, 105788, Note_off_c, 0, 78, 0
2, 105792, Note_on_c, 0, 74, 71
2, 105980, Note_off_c, 0, 57, 0
2, 105980, Note_off_c, 0, 62, 0
2, 105980, Note_off_c, 0, 50, 0
2, 105980, Note_off_c, 0, 74, 0
2, 105984, Note_on_c, 0, 62, 46
2, 105984, Note_on_c, 0, 59, 60
2, 105984, Note_on_c, 0, 55, 55
2, 105984, Note_on_c, 0, 83, 66
2, 106172, Note_off_c, 0, 83, 0
2, 106176, Note_on_c, 0, 79, 58
2, 106364, Note_off_c, 0, 62, 0
2, 106364, Note_off_c, 0, 59, 0
2, 106364, Note_off_c, 0, 55, 0
2, 106364, Note_off_c, 0, 79, 0
2, 106368, Note_on_c, 0, 83, 62
2, 106556, Note_off_c, 0, 83, 0
2, 106560, Note_on_c, 0, 79, 61
2, 106748, Note_off_c, 0, 79, 0
2, 106752, Note_on_c, 0, 64, 47
2, 106752, Note_on_c, 0, 59, 57
2, 106752, Note_on_c, 0, 55, 44
2, 106752, Note_on_c, 0, 74, 62
2, 106940, Note_off_c, 0, 74, 0
2, 106944, Note_on_c, 0, 71, 44
2, 107132, Note_off_c, 0, 64, 0
2, 107132, Note_off_c, 0, 59, 0
2, 107132, Note_off_c, 0, 55, 0
2, 107132, Note_off_c, 0, 71, 0
2, 107136, Note_on_c, 0, 66, 56
2, 107136, Note_on_c, 0, 62, 60
2, 107136, Note_on_c, 0, 57, 52
2, 107136, Note_on_c, 0, 69, 63
2, 107516, Note_off_c, 0, 66, 0
2, 107516, Note_off_c, 0, 62, 0
2, 107516, Note_off_c, 0, 57, 0
2, 107900, Note_off_c, 0, 69, 0
2, 107904, Note_on_c, 0, 67, 65
2, 107904, Note_on_c, 0, 61, 60
2, 107904, Note_on_c, 0, 57, 51
2, 107904, Note_on_c, 0, 76, 84
2, 107996, Note_off_c, 0, 76, 0
2, 108000, Note_on_c, 0, 74, 63
2, 108092, Note_off_c, 0, 74, 0
2, 108096, Note_on_c, 0, 76, 82
2, 108188, Note_off_c, 0, 76, 0
2, 108192, Note_on_c, 0, 74, 78
2, 108236, Note_off_c, 0, 74, 0
2, 108240, Note_on_c, 0, 76, 80
2, 108284, Note_off_c, 0, 67, 0
2, 108284, Note_off_c, 0, 61, 0
2, 108284, Note_off_c, 0, 57, 0
2, 108284, Note_off_c, 0, 76, 0
2, 108288, Note_on_c, 0, 74, 96
2, 108412, Note_off_c, 0, 74, 0
2, 108480, Note_on_c, 0, 57, 74
2, 108668, Note_off_c, 0, 57, 0
2, 108672, Note_on_c, 0, 81, 81
2, 108672, Note_on_c, 0, 69, 75
2, 108796, Note_off_c, 0, 81, 0
2, 108796, Note_off_c, 0, 69, 0
2, 108864, Note_on_c, 0, 57, 65
2, 109052, Note_off_c, 0, 57, 0
2, 109056, Note_on_c, 0, 74, 85
2, 109056, Note_on_c, 0, 62, 76
2, 109180, Note_off_c, 0, 74, 0
2, 109180, Note_off_c, 0, 62, 0
2, 109248, Note_on_c, 0, 57, 75
2, 109436, Note_off_c, 0, 57, 0
2, 109632, Note_on_c, 0, 57, 74
2, 109820, Note_off_c, 0, 57, 0
2, 109824, Note_on_c, 0, 67, 82
2, 109824, Note_on_c, 0, 79, 78
2, 109948, Note_off_c, 0, 67, 0
2, 109948, Note_off_c, 0, 79, 0
2, 110016, Note_on_c, 0, 57, 81
2, 110204, Note_off_c, 0, 57, 0
2, 110208, Note_on_c, 0, 73, 86
2, 110208, Note_on_c, 0, 61, 79
2, 110332, Note_off_c, 0, 73, 0
2, 110332, Note_off_c, 0, 61, 0
2, 110400, Note_on_c, 0, 57, 82
2, 110588, Note_off_c, 0, 57, 0
2, 110976, Note_on_c, 0, 74, 80
2, 110976, Note_on_c, 0, 50, 65
2, 110976, Note_on_c, 0, 62, 64
2, 111100, Note_off_c, 0, 74, 0
2, 111100, Note_off_c, 0, 50, 0
2, 111100, Note_off_c, 0, 62, 0
2, 111360, Note_on_c, 0, 47, 54
2, 111360, Note_on_c, 0, 71, 60
2, 111360, Note_on_c, 0, 59, 41
2, 111484, Note_off_c, 0, 47, 0
2, 111484, Note_off_c, 0, 71, 0
2, 111484, Note_off_c, 0, 59, 0
2, 112128, Note_on_c, 0, 72, 65
2, 112128, Note_on_c, 0, 48, 54
2, 112128, Note_on_c, 0, 60, 58
2, 112252, Note_off_c, 0, 72, 0
2, 112252, Note_off_c, 0, 48, 0
2, 112252, Note_off_c, 0, 60, 0
2, 112512, Note_on_c, 0, 69, 64
2, 112512, Note_on_c, 0, 45, 59
2, 112512, Note_on_c, 0, 57, 43
2, 112636, Note_off_c, 0, 69, 0
2, 112636, Note_off_c, 0, 45, 0
2, 112636, Note_off_c, 0, 57, 0
2, 113280, Note_on_c, 0, 83, 87
2, 113280, Note_on_c, 0, 71, 75
2, 113280, Note_on_c, 0, 47, 85
2, 113280, Note_on_c, 0, 59, 85
2, 113404, Note_off_c, 0, 83, 0
2, 113404, Note_off_c, 0, 71, 0
2, 113404, Note_off_c, 0, 47, 0
2, 113404, Note_off_c, 0, 59, 0
2, 113664, Note_on_c, 0, 80, 93
2, 113664, Note_on_c, 0, 68, 89
2, 113664, Note_on_c, 0, 56, 83
2, 113664, Note_on_c, 0, 44, 85
2, 113788, Note_off_c, 0, 80, 0
2, 113788, Note_off_c, 0, 68, 0
2, 113788, Note_off_c, 0, 56, 0
2, 113788, Note_off_c, 0, 44, 0
2, 114432, Note_on_c, 0, 45, 85
2, 114432, Note_on_c, 0, 57, 81
2, 114432, Note_on_c, 0, 81, 85
2, 114432, Note_on_c, 0, 69, 82
2, 114556, Note_off_c, 0, 45, 0
2, 114556, Note_off_c, 0, 57, 0
2, 114556, Note_off_c, 0, 81, 0
2, 114556, Note_off_c, 0, 69, 0
2, 115200, Note_on_c, 0, 76, 87
2, 115200, Note_on_c, 0, 64, 80
2, 115324, Note_off_c, 0, 76, 0
2, 115324, Note_off_c, 0, 64, 0
2, 115392, Note_on_c, 0, 59, 70
2, 115580, Note_off_c, 0, 59, 0
2, 115584, Note_on_c, 0, 68, 87
2, 115584, Note_on_c, 0, 80, 95
2, 115708, Note_off_c, 0, 68, 0
2, 115708, Note_off_c, 0, 80, 0
2, 115776, Note_on_c, 0, 59, 77
2, 115964, Note_off_c, 0, 59, 0
2, 115968, Note_on_c, 0, 64, 83
2, 115968, Note_on_c, 0, 76, 92
2, 116092, Note_off_c, 0, 64, 0
2, 116092, Note_off_c, 0, 76, 0
2, 116160, Note_on_c, 0, 59, 64
2, 116348, Note_off_c, 0, 59, 0
2, 116352, Note_on_c, 0, 83, 100
2, 116352, Note_on_c, 0, 71, 93
2, 116544, Note_on_c, 0, 59, 63
2, 116732, Note_off_c, 0, 59, 0
2, 116928, Note_on_c, 0, 59, 65
2, 117116, Note_off_c, 0, 83, 0
2, 117116, Note_off_c, 0, 71, 0
2, 117116, Note_off_c, 0, 59, 0
2, 117120, Note_on_c, 0, 81, 62
2, 117308, Note_off_c, 0, 81, 0
2, 117312, Note_on_c, 0, 80, 53
2, 117312, Note_on_c, 0, 59, 64
2, 117500, Note_off_c, 0, 80, 0
2, 117500, Note_off_c, 0, 59, 0
2, 117504, Note_on_c, 0, 78, 62
2, 117692, Note_off_c, 0, 78, 0
2, 117696, Note_on_c, 0, 76, 52
2, 117696, Note_on_c, 0, 59, 56
2, 117884, Note_off_c, 0, 76, 0
2, 117884, Note_off_c, 0, 59, 0
2, 117888, Note_on_c, 0, 75, 58
2, 118076, Note_off_c, 0, 75, 0
2, 118080, Note_on_c, 0, 76, 55
2, 118080, Note_on_c, 0, 59, 62
2, 118268, Note_off_c, 0, 76, 0
2, 118268, Note_off_c, 0, 59, 0
2, 118272, Note_on_c, 0, 80, 69
2, 118460, Note_off_c, 0, 80, 0
2, 118464, Note_on_c, 0, 76, 76
2, 118464, Note_on_c, 0, 59, 51
2, 118652, Note_off_c, 0, 76, 0
2, 118652, Note_off_c, 0, 59, 0
2, 118656, Note_on_c, 0, 75, 73
2, 118656, Note_on_c, 0, 57, 64
2, 118656, Note_on_c, 0, 52, 53
2, 118844, Note_off_c, 0, 57, 0
2, 118844, Note_off_c, 0, 52, 0
2, 118848, Note_on_c, 0, 61, 57
2, 119036, Note_off_c, 0, 75, 0
2, 119036, Note_off_c, 0, 61, 0
2, 119040, Note_on_c, 0, 73, 62
2, 119040, Note_on_c, 0, 57, 60
2, 119040, Note_on_c, 0, 52, 60
2, 119228, Note_off_c, 0, 57, 0
2, 119228, Note_off_c, 0, 52, 0
2, 119232, Note_on_c, 0, 61, 55
2, 119420, Note_off_c, 0, 73, 0
2, 119420, Note_off_c, 0, 61, 0
2, 119424, Note_on_c, 0, 71, 41
2, 119424, Note_on_c, 0, 57, 61
2, 119424, Note_on_c, 0, 52, 62
2, 119612, Note_off_c, 0, 71, 0
2, 119612, Note_off_c, 0, 57, 0
2, 119612, Note_off_c, 0, 52, 0
2, 119616, Note_on_c, 0, 69, 55
2, 119616, Note_on_c, 0, 61, 62
2, 119804, Note_off_c, 0, 69, 0
2, 119804, Note_off_c, 0, 61, 0
2, 119808, Note_on_c, 0, 68, 58
2, 119996, Note_off_c, 0, 68, 0
2, 120000, Note_on_c, 0, 66, 57
2, 120000, Note_on_c, 0, 61, 51
2, 120188, Note_off_c, 0, 66, 0
2, 120188, Note_off_c, 0, 61, 0
2, 120192, Note_on_c, 0, 65, 53
2, 120380, Note_off_c, 0, 65, 0
2, 120384, Note_on_c, 0, 66, 57
2, 120384, Note_on_c, 0, 61, 50
2, 120572, Note_off_c, 0, 66, 0
2, 120572, Note_off_c, 0, 61, 0
2, 120576, Note_on_c, 0, 69, 64
2, 120576, Note_on_c, 0, 57, 51
2, 120576, Note_on_c, 0, 52, 49
2, 120764, Note_off_c, 0, 69, 0
2, 120764, Note_off_c, 0, 57, 0
2, 120764, Note_off_c, 0, 52, 0
2, 120768, Note_on_c, 0, 66, 63
2, 120768, Note_on_c, 0, 61, 58
2, 120956, Note_off_c, 0, 66, 0
2, 120956, Note_off_c, 0, 61, 0
2, 120960, Note_on_c, 0, 63, 56
2, 121152, Note_on_c, 0, 59, 39
2, 121340, Note_off_c, 0, 59, 0
2, 121536, Note_on_c, 0, 59, 35
2, 121724, Note_off_c, 0, 63, 0
2, 121724, Note_off_c, 0, 59, 0
2, 121728, Note_on_c, 0, 66, 64
2, 121852, Note_off_c, 0, 66, 0
2, 121920, Note_on_c, 0, 59, 52
2, 122108, Note_off_c, 0, 59, 0
2, 122112, Note_on_c, 0, 69, 70
2, 122236, Note_off_c, 0, 69, 0
2, 122304, Note_on_c, 0, 59, 48
2, 122492, Note_off_c, 0, 59, 0
2, 122496, Note_on_c, 0, 66, 65
2, 122620, Note_off_c, 0, 66, 0
2, 122688, Note_on_c, 0, 59, 54
2, 122876, Note_off_c, 0, 59, 0
2, 122880, Note_on_c, 0, 63, 64
2, 123004, Note_off_c, 0, 63, 0
2, 123072, Note_on_c, 0, 59, 52
2, 123260, Note_off_c, 0, 59, 0
2, 123264, Note_on_c, 0, 64, 61
2, 123452, Note_off_c, 0, 64, 0
2, 123456, Note_on_c, 0, 59, 51
2, 123644, Note_off_c, 0, 59, 0
2, 123648, Note_on_c, 0, 68, 51
2, 123648, Note_on_c, 0, 71, 96
2, 123772, Note_off_c, 0, 71, 0
2, 123836, Note_off_c, 0, 68, 0
2, 123840, Note_on_c, 0, 59, 49
2, 124028, Note_off_c, 0, 59, 0
2, 124032, Note_on_c, 0, 64, 59
2, 124032, Note_on_c, 0, 68, 57
2, 124156, Note_off_c, 0, 68, 0
2, 124220, Note_off_c, 0, 64, 0
2, 124224, Note_on_c, 0, 59, 53
2, 124412, Note_off_c, 0, 59, 0
2, 124416, Note_on_c, 0, 64, 61
2, 124604, Note_off_c, 0, 64, 0
2, 124608, Note_on_c, 0, 59, 45
2, 124796, Note_off_c, 0, 59, 0
2, 124800, Note_on_c, 0, 68, 59
2, 124800, Note_on_c, 0, 71, 92
2, 124924, Note_off_c, 0, 71, 0
2, 124988, Note_off_c, 0, 68, 0
2, 124992, Note_on_c, 0, 59, 46
2, 125180, Note_off_c, 0, 59, 0
2, 125184, Note_on_c, 0, 64, 70
2, 125184, Note_on_c, 0, 68, 67
2, 125308, Note_off_c, 0, 68, 0
2, 125372, Note_off_c, 0, 64, 0
2, 125376, Note_on_c, 0, 59, 42
2, 125564, Note_off_c, 0, 59, 0
2, 125568, Note_on_c, 0, 64, 66
2, 125756, Note_off_c, 0, 64, 0
2, 125760, Note_on_c, 0, 59, 57
2, 125948, Note_off_c, 0, 59, 0
2, 125952, Note_on_c, 0, 68, 65
2, 125952, Note_on_c, 0, 71, 78
2, 126076, Note_off_c, 0, 71, 0
2, 126140, Note_off_c, 0, 68, 0
2, 126144, Note_on_c, 0, 59, 44
2, 126332, Note_off_c, 0, 59, 0
2, 126336, Note_on_c, 0, 64, 69
2, 126336, Note_on_c, 0, 68, 45
2, 126460, Note_off_c, 0, 68, 0
2, 126524, Note_off_c, 0, 64, 0
2, 126528, Note_on_c, 0, 59, 44
2, 126716, Note_off_c, 0, 59, 0
2, 126720, Note_on_c, 0, 63, 71
2, 126908, Note_off_c, 0, 63, 0
2, 126912, Note_on_c, 0, 59, 50
2, 127100, Note_off_c, 0, 59, 0
2, 127104, Note_on_c, 0, 66, 69
2, 127104, Note_on_c, 0, 69, 82
2, 127228, Note_off_c, 0, 69, 0
2, 127292, Note_off_c, 0, 66, 0
2, 127296, Note_on_c, 0, 59, 47
2, 127484, Note_off_c, 0, 59, 0
2, 127488, Note_on_c, 0, 63, 56
2, 127488, Note_on_c, 0, 66, 53
2, 127612, Note_off_c, 0, 66, 0
2, 127676, Note_off_c, 0, 63, 0
2, 127680, Note_on_c, 0, 59, 43
2, 127868, Note_off_c, 0, 59, 0
2, 127872, Note_on_c, 0, 63, 58
2, 128060, Note_off_c, 0, 63, 0
2, 128064, Note_on_c, 0, 59, 38
2, 128252, Note_off_c, 0, 59, 0
2, 128256, Note_on_c, 0, 66, 75
2, 128256, Note_on_c, 0, 69, 84
2, 128444, Note_off_c, 0, 66, 0
2, 128448, Note_on_c, 0, 59, 49
2, 128636, Note_off_c, 0, 69, 0
2, 128636, Note_off_c, 0, 59, 0
2, 128640, Note_on_c, 0, 63, 62
2, 128640, Note_on_c, 0, 66, 83
2, 128828, Note_off_c, 0, 63, 0
2, 128832, Note_on_c, 0, 59, 49
2, 129020, Note_off_c, 0, 66, 0
2, 129020, Note_off_c, 0, 59, 0
2, 129024, Note_on_c, 0, 63, 56
2, 129212, Note_off_c, 0, 63, 0
2, 129216, Note_on_c, 0, 59, 55
2, 129404, Note_off_c, 0, 59, 0
2, 129408, Note_on_c, 0, 66, 67
2, 129408, Note_on_c, 0, 69, 83
2, 129596, Note_off_c, 0, 66, 0
2, 129600, Note_on_c, 0, 59, 38
2, 129788, Note_off_c, 0, 69, 0
2, 129788, Note_off_c, 0, 59, 0
2, 129792, Note_on_c, 0, 63, 56
2, 129792, Note_on_c, 0, 66, 58
2, 129980, Note_off_c, 0, 63, 0
2, 129984, Note_on_c, 0, 59, 34
2, 130172, Note_off_c, 0, 66, 0
2, 130172, Note_off_c, 0, 59, 0
2, 130176, Note_on_c, 0, 63, 61
2, 130364, Note_off_c, 0, 63, 0
2, 130368, Note_on_c, 0, 59, 53
2, 130556, Note_off_c, 0, 59, 0
2, 130560, Note_on_c, 0, 66, 70
2, 130560, Note_on_c, 0, 69, 84
2, 130748, Note_off_c, 0, 66, 0
2, 130752, Note_on_c, 0, 59, 46
2, 130940, Note_off_c, 0, 69, 0
2, 130940, Note_off_c, 0, 59, 0
2, 130944, Note_on_c, 0, 63, 60
2, 130944, Note_on_c, 0, 66, 56
2, 131132, Note_off_c, 0, 63, 0
2, 131136, Note_on_c, 0, 59, 38
2, 131324, Note_off_c, 0, 66, 0
2, 131324, Note_off_c, 0, 59, 0
2, 131328, Note_on_c, 0, 64, 54
2, 131516, Note_off_c, 0, 64, 0
2, 131520, Note_on_c, 0, 59, 30
2, 131708, Note_off_c, 0, 59, 0
2, 131712, Note_on_c, 0, 64, 44
2, 131712, Note_on_c, 0, 67, 73
2, 131900, Note_off_c, 0, 64, 0
2, 131904, Note_on_c, 0, 59, 31
2, 132092, Note_off_c, 0, 67, 0
2, 132092, Note_off_c, 0, 59, 0
2, 132096, Note_on_c, 0, 64, 53
2, 132096, Note_on_c, 0, 64, 51
2, 132096, Note_on_c, 0, 67, 73
2, 132220, Note_off_c, 0, 64, 0
2, 132284, Note_off_c, 0, 64, 0
2, 132288, Note_on_c, 0, 59, 41
2, 132476, Note_off_c, 0, 67, 0
2, 132476, Note_off_c, 0, 59, 0
2, 132480, Note_on_c, 0, 60, 49
2, 132480, Control_c, 0, 64, 127
2, 132668, Note_off_c, 0, 60, 0
2, 132864, Note_on_c, 0, 64, 66
2, 132864, Note_on_c, 0, 67, 66
2, 132988, Note_off_c, 0, 67, 0
2, 133052, Note_off_c, 0, 64, 0
2, 133248, Note_on_c, 0, 60, 64
2, 133248, Note_on_c, 0, 64, 61
2, 133372, Note_off_c, 0, 64, 0
2, 133436, Note_off_c, 0, 60, 0
2, 133632, Note_on_c, 0, 60, 60
2, 133820, Note_off_c, 0, 60, 0
2, 134016, Note_on_c, 0, 64, 64
2, 134016, Note_on_c, 0, 67, 42
2, 134204, Note_off_c, 0, 64, 0
2, 134396, Note_off_c, 0, 67, 0
2, 134400, Note_on_c, 0, 60, 63
2, 134400, Note_on_c, 0, 64, 52
2, 134588, Note_off_c, 0, 60, 0
2, 134780, Note_off_c, 0, 64, 0
2, 134784, Note_on_c, 0, 60, 71
2, 134972, Note_off_c, 0, 60, 0
2, 135168, Note_on_c, 0, 64, 68
2, 135168, Note_on_c, 0, 67, 63
2, 135356, Note_off_c, 0, 64, 0
2, 135548, Note_off_c, 0, 67, 0
2, 135552, Note_on_c, 0, 60, 61
2, 135552, Note_on_c, 0, 64, 57
2, 135740, Note_off_c, 0, 60, 0
2, 135744, Control_c, 0, 64, 0
2, 135932, Note_off_c, 0, 64, 0
2, 135936, Note_on_c, 0, 59, 58
2, 135936, Control_c, 0, 64, 127
2, 136124, Note_off_c, 0, 59, 0
2, 136320, Note_on_c, 0, 62, 69
2, 136320, Note_on_c, 0, 65, 63
2, 136508, Note_off_c, 0, 62, 0
2, 136700, Note_off_c, 0, 65, 0
2, 136704, Note_on_c, 0, 59, 63
2, 136704, Note_on_c, 0, 62, 52
2, 136892, Note_off_c, 0, 59, 0
2, 137084, Note_off_c, 0, 62, 0
2, 137088, Note_on_c, 0, 59, 62
2, 137276, Note_off_c, 0, 59, 0
2, 137472, Note_on_c, 0, 62, 64
2, 137472, Note_on_c, 0, 65, 60
2, 137660, Note_off_c, 0, 62, 0
2, 137852, Note_off_c, 0, 65, 0
2, 137856, Note_on_c, 0, 59, 63
2, 137856, Note_on_c, 0, 62, 53
2, 138044, Note_off_c, 0, 59, 0
2, 138236, Note_off_c, 0, 62, 0
2, 138240, Note_on_c, 0, 59, 64
2, 138428, Note_off_c, 0, 59, 0
2, 138624, Note_on_c, 0, 62, 69
2, 138624, Note_on_c, 0, 65, 56
2, 138812, Note_off_c, 0, 62, 0
2, 139004, Note_off_c, 0, 65, 0
2, 139008, Note_on_c, 0, 59, 64
2, 139008, Note_on_c, 0, 62, 60
2, 139196, Note_off_c, 0, 59, 0
2, 139388, Note_off_c, 0, 62, 0
2, 139392, Note_on_c, 0, 59, 63
2, 139580, Note_off_c, 0, 59, 0
2, 139776, Note_on_c, 0, 62, 72
2, 139776, Note_on_c, 0, 65, 59
2, 139964, Note_off_c, 0, 62, 0
2, 140156, Note_off_c, 0, 65, 0
2, 140160, Note_on_c, 0, 59, 62
2, 140160, Note_on_c, 0, 62, 51
2, 140348, Note_off_c, 0, 59, 0
2, 140352, Control_c, 0, 64, 0
2, 140540, Note_off_c, 0, 62, 0
2, 140544, Note_on_c, 0, 60, 67
2, 140544, Control_c, 0, 64, 127
2, 140732, Note_off_c, 0, 60, 0
2, 140928, Note_on_c, 0, 60, 70
2, 140928, Note_on_c, 0, 64, 53
2, 141116, Note_off_c, 0, 60, 0
2, 141308, Note_off_c, 0, 64, 0
2, 141312, Note_on_c, 0, 60, 72
2, 141312, Note_on_c, 0, 64, 59
2, 141500, Note_off_c, 0, 60, 0
2, 141504, Control_c, 0, 64, 0
2, 141692, Note_off_c, 0, 64, 0
2, 141696, Note_on_c, 0, 60, 89
2, 141884, Note_off_c, 0, 60, 0
2, 142464, Note_on_c, 0, 59, 85
2, 142652, Note_off_c, 0, 59, 0
2, 142656, Note_on_c, 0, 60, 87
2, 142844, Note_off_c, 0, 60, 0
2, 142848, Note_on_c, 0, 62, 88
2, 143036, Note_off_c, 0, 62, 0
2, 143616, Note_on_c, 0, 60, 90
2, 143804, Note_off_c, 0, 60, 0
2, 143808, Note_on_c, 0, 62, 87
2, 143996, Note_off_c, 0, 62, 0
2, 144000, Note_on_c, 0, 64, 86
2, 144188, Note_off_c, 0, 64, 0
2, 144192, Note_on_c, 0, 60, 78
2, 144380, Note_off_c, 0, 60, 0
2, 144384, Note_on_c, 0, 59, 78
2, 144572, Note_off_c, 0, 59, 0
2, 144576, Note_on_c, 0, 60, 84
2, 144764, Note_off_c, 0, 60, 0
2, 144768, Note_on_c, 0, 65, 82
2, 144956, Note_off_c, 0, 65, 0
2, 144960, Note_on_c, 0, 67, 83
2, 145148, Note_off_c, 0, 67, 0
2, 145152, Note_on_c, 0, 69, 84
2, 145340, Note_off_c, 0, 69, 0
2, 145344, Note_on_c, 0, 67, 85
2, 145532, Note_off_c, 0, 67, 0
2, 145536, Note_on_c, 0, 65, 77
2, 145724, Note_off_c, 0, 65, 0
2, 145728, Note_on_c, 0, 64, 81
2, 145916, Note_off_c, 0, 64, 0
2, 145920, Note_on_c, 0, 62, 73
2, 146108, Note_off_c, 0, 62, 0
2, 146112, Note_on_c, 0, 60, 82
2, 146300, Note_off_c, 0, 60, 0
2, 146304, Note_on_c, 0, 43, 71
2, 146304, Note_on_c, 0, 59, 68
2, 146684, Note_off_c, 0, 43, 0
2, 146684, Note_off_c, 0, 59, 0
2, 147072, Note_on_c, 0, 62, 34
2, 147072, Note_on_c, 0, 77, 53
2, 147260, Note_off_c, 0, 62, 0
2, 147260, Note_off_c, 0, 77, 0
2, 147264, Note_on_c, 0, 79, 54
2, 147264, Note_on_c, 0, 64, 54
2, 147452, Note_off_c, 0, 79, 0
2, 147452, Note_off_c, 0, 64, 0
2, 147456, Note_on_c, 0, 65, 55
2, 147456, Note_on_c, 0, 81, 40
2, 147580, Note_off_c, 0, 65, 0
2, 147644, Note_off_c, 0, 81, 0
2, 147648, Note_on_c, 0, 79, 57
2, 147836, Note_off_c, 0, 79, 0
2, 147840, Note_on_c, 0, 65, 58
2, 147840, Note_on_c, 0, 77, 55
2, 147964, Note_off_c, 0, 65, 0
2, 148028, Note_off_c, 0, 77, 0
2, 148032, Note_on_c, 0, 76, 58
2, 148220, Note_off_c, 0, 76, 0
2, 148224, Note_on_c, 0, 66, 56
2, 148224, Note_on_c, 0, 74, 53
2, 148348, Note_off_c, 0, 66, 0
2, 148412, Note_off_c, 0, 74, 0
2, 148416, Note_on_c, 0, 72, 40
2, 148604, Note_off_c, 0, 72, 0
2, 148608, Note_on_c, 0, 67, 68
2, 148608, Note_on_c, 0, 71, 58
2, 148988, Note_off_c, 0, 67, 0
2, 148988, Note_off_c, 0, 71, 0
2, 149376, Note_on_c, 0, 65, 44
2, 149376, Note_on_c, 0, 53, 48
2, 149564, Note_off_c, 0, 65, 0
2, 149564, Note_off_c, 0, 53, 0
2, 149760, Note_on_c, 0, 68, 55
2, 149760, Note_on_c, 0, 56, 46
2, 149948, Note_off_c, 0, 68, 0
2, 149948, Note_off_c, 0, 56, 0
2, 150144, Note_on_c, 0, 53, 41
2, 150144, Note_on_c, 0, 65, 53
2, 150332, Note_off_c, 0, 53, 0
2, 150332, Note_off_c, 0, 65, 0
2, 150528, Note_on_c, 0, 62, 66
2, 150528, Note_on_c, 0, 50, 47
2, 150716, Note_off_c, 0, 62, 0
2, 150716, Note_off_c, 0, 50, 0
2, 150720, Note_on_c, 0, 67, 79
2, 150720, Note_on_c, 0, 55, 67
2, 150908, Note_off_c, 0, 67, 0
2, 150908, Note_off_c, 0, 55, 0
2, 150912, Note_on_c, 0, 60, 76
2, 151100, Note_off_c, 0, 60, 0
2, 151296, Note_on_c, 0, 63, 87
2, 151296, Note_on_c, 0, 67, 109
2, 151420, Note_off_c, 0, 67, 0
2, 151484, Note_off_c, 0, 63, 0
2, 151680, Note_on_c, 0, 60, 83
2, 151680, Note_on_c, 0, 63, 82
2, 151804, Note_off_c, 0, 63, 0
2, 151868, Note_off_c, 0, 60, 0
2, 152064, Note_on_c, 0, 60, 80
2, 152252, Note_off_c, 0, 60, 0
2, 152448, Note_on_c, 0, 63, 87
2, 152448, Note_on_c, 0, 67, 100
2, 152572, Note_off_c, 0, 67, 0
2, 152636, Note_off_c, 0, 63, 0
2, 152832, Note_on_c, 0, 60, 81
2, 152832, Note_on_c, 0, 63, 77
2, 152956, Note_off_c, 0, 63, 0
2, 153020, Note_off_c, 0, 60, 0
2, 153216, Note_on_c, 0, 60, 84
2, 153404, Note_off_c, 0, 60, 0
2, 153600, Note_on_c, 0, 63, 76
2, 153600, Note_on_c, 0, 67, 88
2, 153788, Note_off_c, 0, 63, 0
2, 153980, Note_off_c, 0, 67, 0
2, 153984, Note_on_c, 0, 60, 81
2, 153984, Note_on_c, 0, 63, 78
2, 154172, Note_off_c, 0, 60, 0
2, 154364, Note_off_c, 0, 63, 0
2, 154368, Note_on_c, 0, 59, 75
2, 154556, Note_off_c, 0, 59, 0
2, 154752, Note_on_c, 0, 62, 80
2, 154752, Note_on_c, 0, 65, 75
2, 154940, Note_off_c, 0, 62, 0
2, 155132, Note_off_c, 0, 65, 0
2, 155136, Note_on_c, 0, 59, 74
2, 155136, Note_on_c, 0, 62, 76
2, 155324, Note_off_c, 0, 59, 0
2, 155516, Note_off_c, 0, 62, 0
2, 155520, Note_on_c, 0, 59, 79
2, 155708, Note_off_c, 0, 59, 0
2, 155904, Note_on_c, 0, 62, 81
2, 155904, Note_on_c, 0, 65, 76
2, 156092, Note_off_c, 0, 62, 0
2, 156284, Note_off_c, 0, 65, 0
2, 156288, Note_on_c, 0, 59, 74
2, 156288, Note_on_c, 0, 62, 67
2, 156476, Note_off_c, 0, 59, 0
2, 156668, Note_off_c, 0, 62, 0
2, 156672, Note_on_c, 0, 59, 80
2, 156860, Note_off_c, 0, 59, 0
2, 157056, Note_on_c, 0, 62, 74
2, 157056, Note_on_c, 0, 65, 85
2, 157244, Note_off_c, 0, 62, 0
2, 157436, Note_off_c, 0, 65, 0
2, 157440, Note_on_c, 0, 59, 70
2, 157440, Note_on_c, 0, 62, 78
2, 157628, Note_off_c, 0, 59, 0
2, 157820, Note_off_c, 0, 62, 0
2, 157824, Note_on_c, 0, 59, 82
2, 158012, Note_off_c, 0, 59, 0
2, 158208, Note_on_c, 0, 62, 88
2, 158208, Note_on_c, 0, 65, 96
2, 158396, Note_off_c, 0, 62, 0
2, 158588, Note_off_c, 0, 65, 0
2, 158592, Note_on_c, 0, 59, 75
2, 158592, Note_on_c, 0, 62, 64
2, 158780, Note_off_c, 0, 59, 0
2, 158972, Note_off_c, 0, 62, 0
2, 158976, Note_on_c, 0, 60, 52
2, 159164, Note_off_c, 0, 60, 0
2, 159360, Note_on_c, 0, 60, 55
2, 159360, Note_on_c, 0, 63, 65
2, 159548, Note_off_c, 0, 60, 0
2, 159740, Note_off_c, 0, 63, 0
2, 159744, Note_on_c, 0, 62, 55
2, 159744, Note_on_c, 0, 65, 63
2, 159932, Note_off_c, 0, 62, 0
2, 159936, Note_on_c, 0, 58, 61
2, 160124, Note_off_c, 0, 65, 0
2, 160124, Note_off_c, 0, 58, 0
2, 160128, Note_on_c, 0, 63, 62
2, 160128, Control_c, 0, 64, 127
2, 160316, Note_off_c, 0, 63, 0
2, 160320, Note_on_c, 0, 58, 53
2, 160508, Note_off_c, 0, 58, 0
2, 160512, Note_on_c, 0, 67, 71
2, 160512, Note_on_c, 0, 70, 64
2, 160636, Note_off_c, 0, 70, 0
2, 160700, Note_off_c, 0, 67, 0
2, 160704, Note_on_c, 0, 58, 47
2, 160892, Note_off_c, 0, 58, 0
2, 160896, Note_on_c, 0, 63, 61
2, 160896, Note_on_c, 0, 67, 69
2, 161020, Note_off_c, 0, 67, 0
2, 161084, Note_off_c, 0, 63, 0
2, 161088, Note_on_c, 0, 58, 29
2, 161276, Note_off_c, 0, 58, 0
2, 161280, Note_on_c, 0, 63, 64
2, 161468, Note_off_c, 0, 63, 0
2, 161472, Note_on_c, 0, 58, 38
2, 161660, Note_off_c, 0, 58, 0
2, 161664, Note_on_c, 0, 67, 68
2, 161664, Note_on_c, 0, 70, 58
2, 161788, Note_off_c, 0, 70, 0
2, 161852, Note_off_c, 0, 67, 0
2, 161856, Note_on_c, 0, 58, 61
2, 162044, Note_off_c, 0, 58, 0
2, 162048, Note_on_c, 0, 63, 62
2, 162048, Note_on_c, 0, 67, 58
2, 162172, Note_off_c, 0, 67, 0
2, 162236, Note_off_c, 0, 63, 0
2, 162240, Note_on_c, 0, 58, 48
2, 162428, Note_off_c, 0, 58, 0
2, 162432, Note_on_c, 0, 63, 61
2, 162620, Note_off_c, 0, 63, 0
2, 162624, Note_on_c, 0, 58, 57
2, 162812, Note_off_c, 0, 58, 0
2, 162816, Note_on_c, 0, 67, 67
2, 162816, Note_on_c, 0, 70, 49
2, 163004, Note_off_c, 0, 67, 0
2, 163008, Note_on_c, 0, 58, 49
2, 163196, Note_off_c, 0, 70, 0
2, 163196, Note_off_c, 0, 58, 0
2, 163200, Note_on_c, 0, 63, 65
2, 163200, Note_on_c, 0, 67, 53
2, 163388, Note_off_c, 0, 63, 0
2, 163392, Note_on_c, 0, 58, 48
2, 163392, Control_c, 0, 64, 0
2, 163580, Note_off_c, 0, 67, 0
2, 163580, Note_off_c, 0, 58, 0
2, 163584, Note_on_c, 0, 62, 51
2, 163584, Control_c, 0, 64, 127
2, 163772, Note_off_c, 0, 62, 0
2, 163776, Note_on_c, 0, 58, 56
2, 163964, Note_off_c, 0, 58, 0
2, 163968, Note_on_c, 0, 65, 60
2, 163968, Note_on_c, 0, 68, 62
2, 164156, Note_off_c, 0, 65, 0
2, 164160, Note_on_c, 0, 58, 53
2, 164348, Note_off_c, 0, 68, 0
2, 164348, Note_off_c, 0, 58, 0
2, 164352, Note_on_c, 0, 62, 60
2, 164352, Note_on_c, 0, 65, 58
2, 164540, Note_off_c, 0, 62, 0
2, 164544, Note_on_c, 0, 58, 52
2, 164732, Note_off_c, 0, 65, 0
2, 164732, Note_off_c, 0, 58, 0
2, 164736, Note_on_c, 0, 62, 64
2, 164924, Note_off_c, 0, 62, 0
2, 164928, Note_on_c, 0, 58, 51
2, 165116, Note_off_c, 0, 58, 0
2, 165120, Note_on_c, 0, 65, 68
2, 165120, Note_on_c, 0, 68, 54
2, 165308, Note_off_c, 0, 65, 0
2, 165312, Note_on_c, 0, 58, 46
2, 165500, Note_off_c, 0, 68, 0
2, 165500, Note_off_c, 0, 58, 0
2, 165504, Note_on_c, 0, 62, 66
2, 165504, Note_on_c, 0, 65, 60
2, 165692, Note_off_c, 0, 62, 0
2, 165696, Note_on_c, 0, 58, 48
2, 165884, Note_off_c, 0, 65, 0
2, 165884, Note_off_c, 0, 58, 0
2, 165888, Note_on_c, 0, 62, 54
2, 166076, Note_off_c, 0, 62, 0
2, 166080, Note_on_c, 0, 58, 45
2, 166268, Note_off_c, 0, 58, 0
2, 166272, Note_on_c, 0, 65, 68
2, 166272, Note_on_c, 0, 68, 54
2, 166460, Note_off_c, 0, 65, 0
2, 166464, Note_on_c, 0, 58, 46
2, 166652, Note_off_c, 0, 68, 0
2, 166652, Note_off_c, 0, 58, 0
2, 166656, Note_on_c, 0, 62, 55
2, 166656, Note_on_c, 0, 65, 66
2, 166844, Note_off_c, 0, 62, 0
2, 166848, Note_on_c, 0, 58, 32
2, 167036, Note_off_c, 0, 65, 0
2, 167036, Note_off_c, 0, 58, 0
2, 167040, Note_on_c, 0, 62, 58
2, 167228, Note_off_c, 0, 62, 0
2, 167232, Note_on_c, 0, 58, 38
2, 167420, Note_off_c, 0, 58, 0
2, 167424, Note_on_c, 0, 65, 60
2, 167424, Note_on_c, 0, 68, 61
2, 167612, Note_off_c, 0, 65, 0
2, 167616, Note_on_c, 0, 58, 42
2, 167804, Note_off_c, 0, 68, 0
2, 167804, Note_off_c, 0, 58, 0
2, 167808, Note_on_c, 0, 62, 60
2, 167808, Note_on_c, 0, 65, 55
2, 167996, Note_off_c, 0, 62, 0
2, 168000, Note_on_c, 0, 58, 43
2, 168000, Control_c, 0, 64, 0
2, 168188, Note_off_c, 0, 65, 0
2, 168188, Note_off_c, 0, 58, 0
2, 168192, Note_on_c, 0, 63, 61
2, 168192, Control_c, 0, 64, 127
2, 168380, Note_off_c, 0, 63, 0
2, 168384, Note_on_c, 0, 58, 55
2, 168572, Note_off_c, 0, 58, 0
2, 168576, Note_on_c, 0, 63, 61
2, 168576, Note_on_c, 0, 67, 58
2, 168764, Note_off_c, 0, 63, 0
2, 168768, Note_on_c, 0, 58, 55
2, 168956, Note_off_c, 0, 67, 0
2, 168956, Note_off_c, 0, 58, 0
2, 168960, Note_on_c, 0, 63, 56
2, 168960, Note_on_c, 0, 67, 68
2, 169148, Note_off_c, 0, 63, 0
2, 169152, Note_on_c, 0, 58, 61
2, 169152, Control_c, 0, 64, 0
2, 169340, Note_off_c, 0, 67, 0
2, 169340, Note_off_c, 0, 58, 0
2, 169344, Note_on_c, 0, 63, 90
2, 169532, Note_off_c, 0, 63, 0
2, 169536, Note_on_c, 0, 58, 77
2, 169724, Note_off_c, 0, 58, 0
2, 169728, Note_on_c, 0, 57, 84
2, 169916, Note_off_c, 0, 57, 0
2, 169920, Note_on_c, 0, 58, 81
2, 170108, Note_off_c, 0, 58, 0
2, 170112, Note_on_c, 0, 62, 80
2, 170300, Note_off_c, 0, 62, 0
2, 170304, Note_on_c, 0, 63, 85
2, 170492, Note_off_c, 0, 63, 0
2, 170496, Note_on_c, 0, 65, 86
2, 170684, Note_off_c, 0, 65, 0
2, 170688, Note_on_c, 0, 58, 80
2, 170876, Note_off_c, 0, 58, 0
2, 170880, Note_on_c, 0, 57, 81
2, 171068, Note_off_c, 0, 57, 0
2, 171072, Note_on_c, 0, 58, 64
2, 171260, Note_off_c, 0, 58, 0
2, 171264, Note_on_c, 0, 63, 85
2, 171452, Note_off_c, 0, 63, 0
2, 171456, Note_on_c, 0, 65, 90
2, 171644, Note_off_c, 0, 65, 0
2, 171648, Note_on_c, 0, 67, 88
2, 171836, Note_off_c, 0, 67, 0
2, 171840, Note_on_c, 0, 63, 80
2, 172028, Note_off_c, 0, 63, 0
2, 172032, Note_on_c, 0, 62, 68
2, 172220, Note_off_c, 0, 62, 0
2, 172224, Note_on_c, 0, 63, 69
2, 172412, Note_off_c, 0, 63, 0
2, 172416, Note_on_c, 0, 68, 77
2, 172604, Note_off_c, 0, 68, 0
2, 172608, Note_on_c, 0, 70, 72
2, 172796, Note_off_c, 0, 70, 0
2, 172800, Note_on_c, 0, 72, 81
2, 172988, Note_off_c, 0, 72, 0
2, 172992, Note_on_c, 0, 70, 76
2, 173180, Note_off_c, 0, 70, 0
2, 173184, Note_on_c, 0, 68, 81
2, 173372, Note_off_c, 0, 68, 0
2, 173376, Note_on_c, 0, 67, 59
2, 173564, Note_off_c, 0, 67, 0
2, 173568, Note_on_c, 0, 65, 74
2, 173756, Note_off_c, 0, 65, 0
2, 173760, Note_on_c, 0, 63, 71
2, 173948, Note_off_c, 0, 63, 0
2, 174720, Note_on_c, 0, 80, 68
2, 174720, Note_on_c, 0, 72, 46
2, 174908, Note_off_c, 0, 80, 0
2, 174908, Note_off_c, 0, 72, 0
2, 174912, Note_on_c, 0, 70, 61
2, 174912, Note_on_c, 0, 82, 59
2, 175100, Note_off_c, 0, 70, 0
2, 175100, Note_off_c, 0, 82, 0
2, 175104, Note_on_c, 0, 84, 68
2, 175104, Note_on_c, 0, 68, 54
2, 175228, Note_off_c, 0, 68, 0
2, 175292, Note_off_c, 0, 84, 0
2, 175296, Note_on_c, 0, 82, 61
2, 175484, Note_off_c, 0, 82, 0
2, 175488, Note_on_c, 0, 80, 64
2, 175488, Note_on_c, 0, 68, 62
2, 175612, Note_off_c, 0, 68, 0
2, 175676, Note_off_c, 0, 80, 0
2, 175680, Note_on_c, 0, 79, 59
2, 175868, Note_off_c, 0, 79, 0
2, 175872, Note_on_c, 0, 77, 65
2, 175872, Note_on_c, 0, 69, 59
2, 175996, Note_off_c, 0, 69, 0
2, 176060, Note_off_c, 0, 77, 0
2, 176064, Note_on_c, 0, 75, 56
2, 176252, Note_off_c, 0, 75, 0
2, 176256, Note_on_c, 0, 70, 55
2, 176256, Note_on_c, 0, 74, 65
2, 176636, Note_off_c, 0, 70, 0
2, 176636, Note_off_c, 0, 74, 0
2, 177408, Note_on_c, 0, 63, 85
2, 177408, Note_on_c, 0, 51, 79
2, 177596, Note_off_c, 0, 63, 0
2, 177596, Note_off_c, 0, 51, 0
2, 177600, Note_on_c, 0, 62, 86
2, 177600, Note_on_c, 0, 50, 74
2, 177788, Note_off_c, 0, 62, 0
2, 177788, Note_off_c, 0, 50, 0
2, 177792, Note_on_c, 0, 48, 78
2, 177792, Note_on_c, 0, 60, 85
2, 177980, Note_off_c, 0, 48, 0
2, 177980, Note_off_c, 0, 60, 0
2, 177984, Note_on_c, 0, 58, 74
2, 177984, Note_on_c, 0, 46, 77
2, 178172, Note_off_c, 0, 58, 0
2, 178172, Note_off_c, 0, 46, 0
2, 178176, Note_on_c, 0, 57, 84
2, 178176, Note_on_c, 0, 45, 66
2, 178364, Note_off_c, 0, 57, 0
2, 178364, Note_off_c, 0, 45, 0
2, 179328, Note_on_c, 0, 84, 68
2, 179328, Note_on_c, 0, 72, 58
2, 179516, Note_off_c, 0, 84, 0
2, 179516, Note_off_c, 0, 72, 0
2, 179520, Note_on_c, 0, 74, 58
2, 179520, Note_on_c, 0, 86, 61
2, 179708, Note_off_c, 0, 74, 0
2, 179708, Note_off_c, 0, 86, 0
2, 179712, Note_on_c, 0, 75, 53
2, 179712, Note_on_c, 0, 87, 57
2, 179900, Note_off_c, 0, 75, 0
2, 179900, Note_off_c, 0, 87, 0
2, 179904, Note_on_c, 0, 74, 56
2, 179904, Note_on_c, 0, 86, 60
2, 180092, Note_off_c, 0, 74, 0
2, 180092, Note_off_c, 0, 86, 0
2, 180096, Note_on_c, 0, 72, 62
2, 180096, Note_on_c, 0, 84, 63
2, 180284, Note_off_c, 0, 72, 0
2, 180284, Note_off_c, 0, 84, 0
2, 180288, Note_on_c, 0, 82, 60
2, 180288, Note_on_c, 0, 70, 55
2, 180476, Note_off_c, 0, 82, 0
2, 180476, Note_off_c, 0, 70, 0
2, 180480, Note_on_c, 0, 81, 60
2, 180480, Note_on_c, 0, 69, 49
2, 180668, Note_off_c, 0, 81, 0
2, 180668, Note_off_c, 0, 69, 0
2, 180672, Note_on_c, 0, 79, 65
2, 180672, Note_on_c, 0, 67, 53
2, 180860, Note_off_c, 0, 79, 0
2, 180860, Note_off_c, 0, 67, 0
2, 180864, Note_on_c, 0, 78, 73
2, 180864, Note_on_c, 0, 66, 42
2, 181052, Note_off_c, 0, 78, 0
2, 181052, Note_off_c, 0, 66, 0
2, 181056, Note_on_c, 0, 75, 63
2, 181056, Note_on_c, 0, 63, 54
2, 181244, Note_off_c, 0, 75, 0
2, 181244, Note_off_c, 0, 63, 0
2, 181248, Note_on_c, 0, 74, 62
2, 181248, Note_on_c, 0, 62, 52
2, 181436, Note_off_c, 0, 74, 0
2, 181436, Note_off_c, 0, 62, 0
2, 181440, Note_on_c, 0, 72, 56
2, 181440, Note_on_c, 0, 60, 53
2, 181628, Note_off_c, 0, 72, 0
2, 181628, Note_off_c, 0, 60, 0
2, 181632, Note_on_c, 0, 58, 57
2, 181632, Note_on_c, 0, 70, 58
2, 181820, Note_off_c, 0, 58, 0
2, 181820, Note_off_c, 0, 70, 0
2, 181824, Note_on_c, 0, 69, 59
2, 181824, Note_on_c, 0, 57, 38
2, 182012, Note_off_c, 0, 69, 0
2, 182012, Note_off_c, 0, 57, 0
2, 182016, Note_on_c, 0, 67, 64
2, 182204, Note_off_c, 0, 67, 0
2, 182208, Note_on_c, 0, 66, 46
2, 182396, Note_off_c, 0, 66, 0
2, 182400, Note_on_c, 0, 67, 63
2, 182588, Note_off_c, 0, 67, 0
2, 182592, Note_on_c, 0, 69, 62
2, 182780, Note_off_c, 0, 69, 0
2, 182784, Note_on_c, 0, 70, 60
2, 182972, Note_off_c, 0, 70, 0
2, 182976, Note_on_c, 0, 67, 68
2, 183164, Note_off_c, 0, 67, 0
2, 183168, Note_on_c, 0, 65, 55
2, 183168, Note_on_c, 0, 50, 52
2, 183168, Control_c, 0, 64, 127
2, 183548, Note_off_c, 0, 65, 0
2, 183548, Note_off_c, 0, 50, 0
2, 183552, Note_on_c, 0, 69, 68
2, 183552, Note_on_c, 0, 66, 62
2, 183676, Note_off_c, 0, 69, 0
2, 183740, Note_off_c, 0, 66, 0
2, 183744, Note_on_c, 0, 57, 59
2, 183932, Note_off_c, 0, 57, 0
2, 183936, Note_on_c, 0, 66, 70
2, 183936, Note_on_c, 0, 62, 63
2, 184060, Note_off_c, 0, 66, 0
2, 184124, Note_off_c, 0, 62, 0
2, 184128, Note_on_c, 0, 57, 61
2, 184316, Note_off_c, 0, 57, 0
2, 184320, Note_on_c, 0, 62, 67
2, 184508, Note_off_c, 0, 62, 0
2, 184512, Note_on_c, 0, 57, 58
2, 184700, Note_off_c, 0, 57, 0
2, 184704, Note_on_c, 0, 66, 69
2, 184704, Note_on_c, 0, 69, 54
2, 184828, Note_off_c, 0, 69, 0
2, 184892, Note_off_c, 0, 66, 0
2, 184896, Note_on_c, 0, 57, 49
2, 185084, Note_off_c, 0, 57, 0
2, 185088, Note_on_c, 0, 62, 59
2, 185088, Note_on_c, 0, 66, 54
2, 185212, Note_off_c, 0, 66, 0
2, 185276, Note_off_c, 0, 62, 0
2, 185280, Note_on_c, 0, 57, 47
2, 185468, Note_off_c, 0, 57, 0
2, 185472, Note_on_c, 0, 62, 52
2, 185660, Note_off_c, 0, 62, 0
2, 185664, Note_on_c, 0, 57, 42
2, 185852, Note_off_c, 0, 57, 0
2, 185856, Note_on_c, 0, 66, 61
2, 185856, Note_on_c, 0, 69, 48
2, 185980, Note_off_c, 0, 69, 0
2, 186044, Note_off_c, 0, 66, 0
2, 186048, Note_on_c, 0, 57, 43
2, 186236, Note_off_c, 0, 57, 0
2, 186240, Note_on_c, 0, 62, 54
2, 186240, Note_on_c, 0, 66, 45
2, 186364, Note_off_c, 0, 66, 0
2, 186428, Note_off_c, 0, 62, 0
2, 186432, Note_on_c, 0, 57, 55
2, 186432, Control_c, 0, 64, 0
2, 186620, Note_off_c, 0, 57, 0
2, 186624, Note_on_c, 0, 61, 63
2, 186624, Control_c, 0, 64, 127
2, 186812, Note_off_c, 0, 61, 0
2, 186816, Note_on_c, 0, 57, 40
2, 187004, Note_off_c, 0, 57, 0
2, 187008, Note_on_c, 0, 66, 56
2, 187008, Note_on_c, 0, 67, 55
2, 187196, Note_off_c, 0, 66, 0
2, 187200, Note_on_c, 0, 57, 55
2, 187388, Note_off_c, 0, 67, 0
2, 187388, Note_off_c, 0, 57, 0
2, 187392, Note_on_c, 0, 61, 58
2, 187392, Note_on_c, 0, 64, 55
2, 187580, Note_off_c, 0, 61, 0
2, 187584, Note_on_c, 0, 57, 42
2, 187772, Note_off_c, 0, 64, 0
2, 187772, Note_off_c, 0, 57, 0
2, 187776, Note_on_c, 0, 61, 62
2, 187964, Note_off_c, 0, 61, 0
2, 187968, Note_on_c, 0, 57, 37
2, 188156, Note_off_c, 0, 57, 0
2, 188160, Note_on_c, 0, 66, 57
2, 188160, Note_on_c, 0, 67, 64
2, 188348, Note_off_c, 0, 66, 0
2, 188352, Note_on_c, 0, 57, 52
2, 188540, Note_off_c, 0, 67, 0
2, 188540, Note_off_c, 0, 57, 0
2, 188544, Note_on_c, 0, 61, 63
2, 188544, Note_on_c, 0, 64, 57
2, 188732, Note_off_c, 0, 61, 0
2, 188736, Note_on_c, 0, 57, 44
2, 188924, Note_off_c, 0, 64, 0
2, 188924, Note_off_c, 0, 57, 0
2, 188928, Note_on_c, 0, 61, 68
2, 189116, Note_off_c, 0, 61, 0
2, 189120, Note_on_c, 0, 57, 52
2, 189308, Note_off_c, 0, 57, 0
2, 189312, Note_on_c, 0, 66, 57
2, 189312, Note_on_c, 0, 67, 54
2, 189500, Note_off_c, 0, 66, 0
2, 189504, Note_on_c, 0, 57, 48
2, 189692, Note_off_c, 0, 67, 0
2, 189692, Note_off_c, 0, 57, 0
2, 189696, Note_on_c, 0, 61, 50
2, 189696, Note_on_c, 0, 64, 52
2, 189884, Note_off_c, 0, 61, 0
2, 189888, Note_on_c, 0, 57, 41
2, 190076, Note_off_c, 0, 64, 0
2, 190076, Note_off_c, 0, 57, 0
2, 190080, Note_on_c, 0, 61, 65
2, 190268, Note_off_c, 0, 61, 0
2, 190272, Note_on_c, 0, 57, 48
2, 190460, Note_off_c, 0, 57, 0
2, 190464, Note_on_c, 0, 66, 60
2, 190464, Note_on_c, 0, 67, 61
2, 190652, Note_off_c, 0, 66, 0
2, 190656, Note_on_c, 0, 57, 54
2, 190844, Note_off_c, 0, 67, 0
2, 190844, Note_off_c, 0, 57, 0
2, 190848, Note_on_c, 0, 61, 58
2, 190848, Note_on_c, 0, 64, 53
2, 191036, Note_off_c, 0, 61, 0
2, 191040, Note_on_c, 0, 57, 52
2, 191040, Control_c, 0, 64, 0
2, 191228, Note_off_c, 0, 64, 0
2, 191228, Note_off_c, 0, 57, 0
2, 191232, Note_on_c, 0, 62, 66
2, 191232, Control_c, 0, 64, 127
2, 191420, Note_off_c, 0, 62, 0
2, 191424, Note_on_c, 0, 57, 61
2, 191612, Note_off_c, 0, 57, 0
2, 191616, Note_on_c, 0, 69, 51
2, 191616, Note_on_c, 0, 66, 43
2, 191804, Note_off_c, 0, 69, 0
2, 191808, Note_on_c, 0, 62, 27
2, 191996, Note_off_c, 0, 66, 0
2, 191996, Note_off_c, 0, 62, 0
2, 192000, Note_on_c, 0, 69, 53
2, 192000, Note_on_c, 0, 62, 48
2, 192188, Note_off_c, 0, 69, 0
2, 192192, Note_on_c, 0, 66, 49
2, 192380, Note_off_c, 0, 62, 0
2, 192380, Note_off_c, 0, 66, 0
2, 192384, Note_on_c, 0, 69, 52
2, 192384, Note_on_c, 0, 74, 64
2, 192572, Note_off_c, 0, 69, 0
2, 192572, Note_off_c, 0, 74, 0
2, 192576, Note_on_c, 0, 62, 47
2, 192576, Control_c, 0, 64, 0
2, 192764, Note_off_c, 0, 62, 0
2, 192768, Note_on_c, 0, 69, 55
2, 192768, Note_on_c, 0, 74, 64
2, 192956, Note_off_c, 0, 69, 0
2, 192956, Note_off_c, 0, 74, 0
2, 192960, Note_on_c, 0, 62, 47
2, 193148, Note_off_c, 0, 62, 0
2, 193152, Note_on_c, 0, 69, 55
2, 193152, Note_on_c, 0, 74, 57
2, 193340, Note_off_c, 0, 69, 0
2, 193340, Note_off_c, 0, 74, 0
2, 193344, Note_on_c, 0, 62, 58
2, 193532, Note_off_c, 0, 62, 0
2, 193536, Note_on_c, 0, 69, 50
2, 193536, Note_on_c, 0, 74, 71
2, 193724, Note_off_c, 0, 69, 0
2, 193724, Note_off_c, 0, 74, 0
2, 193728, Note_on_c, 0, 62, 50
2, 193916, Note_off_c, 0, 62, 0
2, 193920, Note_on_c, 0, 69, 59
2, 193920, Note_on_c, 0, 74, 71
2, 194108, Note_off_c, 0, 69, 0
2, 194108, Note_off_c, 0, 74, 0
2, 194112, Note_on_c, 0, 62, 53
2, 194300, Note_off_c, 0, 62, 0
2, 194304, Note_on_c, 0, 69, 58
2, 194304, Note_on_c, 0, 74, 67
2, 194492, Note_off_c, 0, 69, 0
2, 194492, Note_off_c, 0, 74, 0
2, 194496, Note_on_c, 0, 62, 59
2, 194684, Note_off_c, 0, 62, 0
2, 194688, Note_on_c, 0, 69, 64
2, 194688, Note_on_c, 0, 72, 63
2, 194876, Note_off_c, 0, 69, 0
2, 194876, Note_off_c, 0, 72, 0
2, 194880, Note_on_c, 0, 62, 62
2, 195068, Note_off_c, 0, 62, 0
2, 195072, Note_on_c, 0, 72, 62
2, 195072, Note_on_c, 0, 69, 61
2, 195260, Note_off_c, 0, 72, 0
2, 195260, Note_off_c, 0, 69, 0
2, 195264, Note_on_c, 0, 62, 62
2, 195452, Note_off_c, 0, 62, 0
2, 195456, Note_on_c, 0, 69, 66
2, 195456, Note_on_c, 0, 72, 63
2, 195644, Note_off_c, 0, 69, 0
2, 195644, Note_off_c, 0, 72, 0
2, 195648, Note_on_c, 0, 62, 67
2, 195836, Note_off_c, 0, 62, 0
2, 195840, Note_on_c, 0, 72, 67
2, 195840, Note_on_c, 0, 69, 72
2, 196028, Note_off_c, 0, 72, 0
2, 196028, Note_off_c, 0, 69, 0
2, 196032, Note_on_c, 0, 62, 74
2, 196220, Note_off_c, 0, 62, 0
2, 196224, Note_on_c, 0, 72, 76
2, 196224, Note_on_c, 0, 69, 75
2, 196412, Note_off_c, 0, 72, 0
2, 196412, Note_off_c, 0, 69, 0
2, 196416, Note_on_c, 0, 62, 79
2, 196604, Note_off_c, 0, 62, 0
2, 196608, Note_on_c, 0, 72, 81
2, 196608, Note_on_c, 0, 69, 80
2, 196796, Note_off_c, 0, 72, 0
2, 196796, Note_off_c, 0, 69, 0
2, 196800, Note_on_c, 0, 62, 82
2, 196988, Note_off_c, 0, 62, 0
2, 196992, Note_on_c, 0, 79, 88
2, 196992, Note_on_c, 0, 67, 88
2, 196992, Control_c, 0, 64, 127
2, 197116, Note_off_c, 0, 79, 0
2, 197116, Note_off_c, 0, 67, 0
2, 197376, Note_on_c, 0, 71, 92
2, 197376, Note_on_c, 0, 83, 102
2, 197376, Note_on_c, 0, 59, 62
2, 197376, Note_on_c, 0, 55, 74
2, 197500, Note_off_c, 0, 71, 0
2, 197500, Note_off_c, 0, 83, 0
2, 197564, Note_off_c, 0, 59, 0
2, 197564, Note_off_c, 0, 55, 0
2, 197568, Note_on_c, 0, 62, 88
2, 197756, Note_off_c, 0, 62, 0
2, 197760, Note_on_c, 0, 79, 97
2, 197760, Note_on_c, 0, 67, 97
2, 197760, Note_on_c, 0, 59, 80
2, 197760, Note_on_c, 0, 55, 82
2, 197884, Note_off_c, 0, 79, 0
2, 197884, Note_off_c, 0, 67, 0
2, 197948, Note_off_c, 0, 59, 0
2, 197948, Note_off_c, 0, 55, 0
2, 197952, Note_on_c, 0, 62, 86
2, 198140, Note_off_c, 0, 62, 0
2, 198144, Note_on_c, 0, 59, 74
2, 198144, Note_on_c, 0, 55, 81
2, 198144, Note_on_c, 0, 86, 96
2, 198144, Note_on_c, 0, 74, 94
2, 198332, Note_off_c, 0, 59, 0
2, 198332, Note_off_c, 0, 55, 0
2, 198336, Note_on_c, 0, 62, 75
2, 198524, Note_off_c, 0, 62, 0
2, 198528, Note_on_c, 0, 55, 77
2, 198528, Note_on_c, 0, 59, 70
2, 198716, Note_off_c, 0, 55, 0
2, 198716, Note_off_c, 0, 59, 0
2, 198720, Note_on_c, 0, 62, 60
2, 198908, Note_off_c, 0, 86, 0
2, 198908, Note_off_c, 0, 74, 0
2, 198908, Note_off_c, 0, 62, 0
2, 198912, Note_on_c, 0, 59, 75
2, 198912, Note_on_c, 0, 55, 78
2, 198912, Note_on_c, 0, 84, 88
2, 199100, Note_off_c, 0, 59, 0
2, 199100, Note_off_c, 0, 55, 0
2, 199100, Note_off_c, 0, 84, 0
2, 199104, Note_on_c, 0, 62, 79
2, 199104, Note_on_c, 0, 83, 86
2, 199104, Control_c, 0, 64, 0
2, 199292, Note_off_c, 0, 62, 0
2, 199292, Note_off_c, 0, 83, 0
2, 199296, Note_on_c, 0, 81, 82
2, 199484, Note_off_c, 0, 81, 0
2, 199488, Note_on_c, 0, 62, 76
2, 199488, Note_on_c, 0, 79, 82
2, 199676, Note_off_c, 0, 62, 0
2, 199676, Note_off_c, 0, 79, 0
2, 199680, Note_on_c, 0, 78, 82
2, 199868, Note_off_c, 0, 78, 0
2, 199872, Note_on_c, 0, 62, 75
2, 199872, Note_on_c, 0, 79, 86
2, 200060, Note_off_c, 0, 62, 0
2, 200060, Note_off_c, 0, 79, 0
2, 200064, Note_on_c, 0, 59, 78
2, 200064, Note_on_c, 0, 55, 77
2, 200064, Note_on_c, 0, 83, 86
2, 200252, Note_off_c, 0, 59, 0
2, 200252, Note_off_c, 0, 55, 0
2, 200252, Note_off_c, 0, 83, 0
2, 200256, Note_on_c, 0, 62, 74
2, 200256, Note_on_c, 0, 79, 88
2, 200444, Note_off_c, 0, 62, 0
2, 200444, Note_off_c, 0, 79, 0
2, 200448, Note_on_c, 0, 55, 77
2, 200448, Note_on_c, 0, 60, 77
2, 200448, Note_on_c, 0, 78, 77
2, 200636, Note_off_c, 0, 55, 0
2, 200636, Note_off_c, 0, 60, 0
2, 200640, Note_on_c, 0, 64, 72
2, 200828, Note_off_c, 0, 78, 0
2, 200828, Note_off_c, 0, 64, 0
2, 200832, Note_on_c, 0, 76, 88
2, 201024, Note_on_c, 0, 64, 68
2, 201212, Note_off_c, 0, 76, 0
2, 201212, Note_off_c, 0, 64, 0
2, 201216, Note_on_c, 0, 60, 81
2, 201216, Note_on_c, 0, 55, 80
2, 201216, Note_on_c, 0, 74, 87
2, 201404, Note_off_c, 0, 60, 0
2, 201404, Note_off_c, 0, 55, 0
2, 201404, Note_off_c, 0, 74, 0
2, 201408, Note_on_c, 0, 64, 63
2, 201408, Note_on_c, 0, 72, 72
2, 201596, Note_off_c, 0, 64, 0
2, 201596, Note_off_c, 0, 72, 0
2, 201600, Note_on_c, 0, 71, 82
2, 201788, Note_off_c, 0, 71, 0
2, 201792, Note_on_c, 0, 64, 72
2, 201792, Note_on_c, 0, 69, 78
2, 201980, Note_off_c, 0, 64, 0
2, 201980, Note_off_c, 0, 69, 0
2, 201984, Note_on_c, 0, 55, 82
2, 201984, Note_on_c, 0, 60, 78
2, 201984, Note_on_c, 0, 68, 84
2, 202172, Note_off_c, 0, 55, 0
2, 202172, Note_off_c, 0, 60, 0
2, 202172, Note_off_c, 0, 68, 0
2, 202176, Note_on_c, 0, 64, 68
2, 202176, Note_on_c, 0, 69, 82
2, 202364, Note_off_c, 0, 64, 0
2, 202364, Note_off_c, 0, 69, 0
2, 202368, Note_on_c, 0, 55, 80
2, 202368, Note_on_c, 0, 60, 78
2, 202368, Note_on_c, 0, 72, 79
2, 202556, Note_off_c, 0, 55, 0
2, 202556, Note_off_c, 0, 60, 0
2, 202556, Note_off_c, 0, 72, 0
2, 202560, Note_on_c, 0, 64, 66
2, 202560, Note_on_c, 0, 69, 87
2, 202748, Note_off_c, 0, 64, 0
2, 202748, Note_off_c, 0, 69, 0
2, 202752, Note_on_c, 0, 55, 70
2, 202752, Note_on_c, 0, 57, 74
2, 202752, Note_on_c, 0, 60, 70
2, 202752, Note_on_c, 0, 66, 81
2, 202940, Note_off_c, 0, 55, 0
2, 202940, Note_off_c, 0, 57, 0
2, 202940, Note_off_c, 0, 60, 0
2, 202944, Note_on_c, 0, 62, 35
2, 203132, Note_off_c, 0, 62, 0
2, 203136, Note_on_c, 0, 55, 81
2, 203136, Note_on_c, 0, 60, 85
2, 203136, Note_on_c, 0, 57, 78
2, 203324, Note_off_c, 0, 55, 0
2, 203324, Note_off_c, 0, 60, 0
2, 203324, Note_off_c, 0, 57, 0
2, 203328, Note_on_c, 0, 62, 76
2, 203376, Note_on_c, 0, 70, 77
2, 203420, Note_off_c, 0, 70, 0
2, 203424, Note_on_c, 0, 69, 74
2, 203468, Note_off_c, 0, 69, 0
2, 203472, Note_on_c, 0, 68, 74
2, 203516, Note_off_c, 0, 66, 0
2, 203516, Note_off_c, 0, 62, 0
2, 203516, Note_off_c, 0, 68, 0
2, 203520, Note_on_c, 0, 55, 77
2, 203520, Note_on_c, 0, 57, 72
2, 203520, Note_on_c, 0, 60, 75
2, 203520, Note_on_c, 0, 69, 74
2, 203708, Note_off_c, 0, 55, 0
2, 203708, Note_off_c, 0, 57, 0
2, 203708, Note_off_c, 0, 60, 0
2, 203712, Note_on_c, 0, 62, 78
2, 203900, Note_off_c, 0, 69, 0
2, 203900, Note_off_c, 0, 62, 0
2, 203904, Note_on_c, 0, 60, 73
2, 203904, Note_on_c, 0, 57, 68
2, 203904, Note_on_c, 0, 55, 78
2, 203904, Note_on_c, 0, 72, 73
2, 204028, Note_off_c, 0, 72, 0
2, 204092, Note_off_c, 0, 60, 0
2, 204092, Note_off_c, 0, 57, 0
2, 204092, Note_off_c, 0, 55, 0
2, 204096, Note_on_c, 0, 62, 79
2, 204284, Note_off_c, 0, 62, 0
2, 204288, Note_on_c, 0, 60, 74
2, 204288, Note_on_c, 0, 57, 68
2, 204288, Note_on_c, 0, 55, 72
2, 204288, Note_on_c, 0, 69, 78
2, 204412, Note_off_c, 0, 69, 0
2, 204476, Note_off_c, 0, 60, 0
2, 204476, Note_off_c, 0, 57, 0
2, 204476, Note_off_c, 0, 55, 0
2, 204480, Note_on_c, 0, 62, 80
2, 204668, Note_off_c, 0, 62, 0
2, 204672, Note_on_c, 0, 60, 75
2, 204672, Note_on_c, 0, 57, 74
2, 204672, Note_on_c, 0, 55, 67
2, 204672, Note_on_c, 0, 66, 84
2, 204796, Note_off_c, 0, 66, 0
2, 204860, Note_off_c, 0, 60, 0
2, 204860, Note_off_c, 0, 57, 0
2, 204860, Note_off_c, 0, 55, 0
2, 204864, Note_on_c, 0, 62, 68
2, 205052, Note_off_c, 0, 62, 0
2, 205056, Note_on_c, 0, 59, 76
2, 205056, Note_on_c, 0, 55, 83
2, 205056, Note_on_c, 0, 67, 94
2, 205244, Note_off_c, 0, 67, 0
2, 205248, Note_on_c, 0, 62, 90
2, 205436, Note_off_c, 0, 62, 0
2, 205440, Note_on_c, 0, 61, 92
2, 205628, Note_off_c, 0, 61, 0
2, 205632, Note_on_c, 0, 62, 84
2, 205820, Note_off_c, 0, 62, 0
2, 205824, Note_on_c, 0, 66, 89
2, 206012, Note_off_c, 0, 66, 0
2, 206016, Note_on_c, 0, 67, 97
2, 206204, Note_off_c, 0, 59, 0
2, 206204, Note_off_c, 0, 55, 0
2, 206204, Note_off_c, 0, 67, 0
2, 206208, Note_on_c, 0, 54, 85
2, 206208, Note_on_c, 0, 57, 82
2, 206208, Note_on_c, 0, 69, 87
2, 206396, Note_off_c, 0, 69, 0
2, 206400, Note_on_c, 0, 62, 83
2, 206588, Note_off_c, 0, 62, 0
2, 206592, Note_on_c, 0, 61, 88
2, 206780, Note_off_c, 0, 61, 0
2, 206784, Note_on_c, 0, 62, 84
2, 206972, Note_off_c, 0, 62, 0
2, 206976, Note_on_c, 0, 67, 92
2, 207164, Note_off_c, 0, 67, 0
2, 207168, Note_on_c, 0, 69, 80
2, 207356, Note_off_c, 0, 54, 0
2, 207356, Note_off_c, 0, 57, 0
2, 207356, Note_off_c, 0, 69, 0
2, 207360, Note_on_c, 0, 55, 93
2, 207360, Note_on_c, 0, 59, 76
2, 207360, Note_on_c, 0, 71, 82
2, 207548, Note_off_c, 0, 71, 0
2, 207552, Note_on_c, 0, 67, 79
2, 207740, Note_off_c, 0, 67, 0
2, 207744, Note_on_c, 0, 66, 84
2, 207932, Note_off_c, 0, 66, 0
2, 207936, Note_on_c, 0, 67, 86
2, 208124, Note_off_c, 0, 67, 0
2, 208128, Note_on_c, 0, 69, 86
2, 208316, Note_off_c, 0, 69, 0
2, 208320, Note_on_c, 0, 71, 84
2, 208508, Note_off_c, 0, 55, 0
2, 208508, Note_off_c, 0, 59, 0
2, 208508, Note_off_c, 0, 71, 0
2, 208512, Note_on_c, 0, 57, 86
2, 208512, Note_on_c, 0, 60, 80
2, 208512, Note_on_c, 0, 72, 81
2, 208700, Note_off_c, 0, 72, 0
2, 208704, Note_on_c, 0, 67, 88
2, 208892, Note_off_c, 0, 67, 0
2, 208896, Note_on_c, 0, 66, 82
2, 209084, Note_off_c, 0, 66, 0
2, 209088, Note_on_c, 0, 67, 86
2, 209276, Note_off_c, 0, 67, 0
2, 209280, Note_on_c, 0, 71, 82
2, 209468, Note_off_c, 0, 71, 0
2, 209472, Note_on_c, 0, 72, 80
2, 209660, Note_off_c, 0, 57, 0
2, 209660, Note_off_c, 0, 60, 0
2, 209660, Note_off_c, 0, 72, 0
2, 209664, Note_on_c, 0, 74, 70
2, 210044, Note_off_c, 0, 74, 0
2, 210240, Note_on_c, 0, 59, 29
2, 210240, Note_on_c, 0, 62, 43
2, 210428, Note_off_c, 0, 59, 0
2, 210428, Note_off_c, 0, 62, 0
2, 210432, Note_on_c, 0, 67, 65
2, 210620, Note_off_c, 0, 67, 0
2, 210624, Note_on_c, 0, 71, 55
2, 210812, Note_off_c, 0, 71, 0
2, 210816, Note_on_c, 0, 74, 42
2, 211004, Note_off_c, 0, 74, 0
2, 211008, Note_on_c, 0, 67, 56
2, 211196, Note_off_c, 0, 67, 0
2, 211200, Note_on_c, 0, 71, 64
2, 211388, Note_off_c, 0, 71, 0
2, 211392, Note_on_c, 0, 74, 75
2, 211580, Note_off_c, 0, 74, 0
2, 211584, Note_on_c, 0, 79, 66
2, 211772, Note_off_c, 0, 79, 0
2, 211776, Note_on_c, 0, 71, 63
2, 211964, Note_off_c, 0, 71, 0
2, 211968, Note_on_c, 0, 74, 62
2, 212156, Note_off_c, 0, 74, 0
2, 212160, Note_on_c, 0, 79, 65
2, 212348, Note_off_c, 0, 79, 0
2, 212352, Note_on_c, 0, 83, 77
2, 212540, Note_off_c, 0, 83, 0
2, 212544, Note_on_c, 0, 74, 63
2, 212732, Note_off_c, 0, 74, 0
2, 212736, Note_on_c, 0, 79, 70
2, 212924, Note_off_c, 0, 79, 0
2, 212928, Note_on_c, 0, 83, 68
2, 213116, Note_off_c, 0, 83, 0
2, 213120, Note_on_c, 0, 86, 74
2, 213308, Note_off_c, 0, 86, 0
2, 213312, Note_on_c, 0, 84, 74
2, 213500, Note_off_c, 0, 84, 0
2, 213504, Note_on_c, 0, 83, 68
2, 213692, Note_off_c, 0, 83, 0
2, 213696, Note_on_c, 0, 81, 55
2, 213884, Note_off_c, 0, 81, 0
2, 213888, Note_on_c, 0, 79, 68
2, 214076, Note_off_c, 0, 79, 0
2, 214080, Note_on_c, 0, 77, 70
2, 214268, Note_off_c, 0, 77, 0
2, 214272, Note_on_c, 0, 76, 66
2, 214652, Note_off_c, 0, 76, 0
2, 214848, Note_on_c, 0, 64, 59
2, 214848, Note_on_c, 0, 60, 53
2, 215036, Note_off_c, 0, 64, 0
2, 215036, Note_off_c, 0, 60, 0
2, 215040, Note_on_c, 0, 67, 70
2, 215228, Note_off_c, 0, 67, 0
2, 215232, Note_on_c, 0, 72, 62
2, 215420, Note_off_c, 0, 72, 0
2, 215424, Note_on_c, 0, 76, 79
2, 215612, Note_off_c, 0, 76, 0
2, 215616, Note_on_c, 0, 64, 41
2, 215804, Note_off_c, 0, 64, 0
2, 215808, Note_on_c, 0, 67, 65
2, 215996, Note_off_c, 0, 67, 0
2, 216000, Note_on_c, 0, 72, 64
2, 216188, Note_off_c, 0, 72, 0
2, 216192, Note_on_c, 0, 76, 73
2, 216380, Note_off_c, 0, 76, 0
2, 216384, Note_on_c, 0, 67, 65
2, 216572, Note_off_c, 0, 67, 0
2, 216576, Note_on_c, 0, 72, 60
2, 216764, Note_off_c, 0, 72, 0
2, 216768, Note_on_c, 0, 76, 71
2, 216956, Note_off_c, 0, 76, 0
2, 216960, Note_on_c, 0, 79, 69
2, 217148, Note_off_c, 0, 79, 0
2, 217152, Note_on_c, 0, 72, 63
2, 217340, Note_off_c, 0, 72, 0
2, 217344, Note_on_c, 0, 76, 75
2, 217532, Note_off_c, 0, 76, 0
2, 217536, Note_on_c, 0, 79, 70
2, 217724, Note_off_c, 0, 79, 0
2, 217728, Note_on_c, 0, 84, 70
2, 217916, Note_off_c, 0, 84, 0
2, 217920, Note_on_c, 0, 76, 68
2, 218108, Note_off_c, 0, 76, 0
2, 218112, Note_on_c, 0, 79, 65
2, 218300, Note_off_c, 0, 79, 0
2, 218304, Note_on_c, 0, 84, 66
2, 218492, Note_off_c, 0, 84, 0
2, 218496, Note_on_c, 0, 88, 68
2, 218684, Note_off_c, 0, 88, 0
2, 218688, Note_on_c, 0, 86, 74
2, 218876, Note_off_c, 0, 86, 0
2, 218880, Note_on_c, 0, 85, 69
2, 219260, Note_off_c, 0, 85, 0
2, 219456, Note_on_c, 0, 61, 75
2, 219456, Note_on_c, 0, 55, 71
2, 219644, Note_off_c, 0, 61, 0
2, 219644, Note_off_c, 0, 55, 0
2, 219648, Note_on_c, 0, 64, 69
2, 219836, Note_off_c, 0, 64, 0
2, 219840, Note_on_c, 0, 67, 78
2, 220028, Note_off_c, 0, 67, 0
2, 220032, Note_on_c, 0, 73, 79
2, 220220, Note_off_c, 0, 73, 0
2, 220224, Note_on_c, 0, 64, 62
2, 220412, Note_off_c, 0, 64, 0
2, 220416, Note_on_c, 0, 67, 73
2, 220604, Note_off_c, 0, 67, 0
2, 220608, Note_on_c, 0, 73, 75
2, 220796, Note_off_c, 0, 73, 0
2, 220800, Note_on_c, 0, 76, 72
2, 220988, Note_off_c, 0, 76, 0
2, 220992, Note_on_c, 0, 67, 70
2, 221180, Note_off_c, 0, 67, 0
2, 221184, Note_on_c, 0, 73, 71
2, 221372, Note_off_c, 0, 73, 0
2, 221376, Note_on_c, 0, 76, 77
2, 221564, Note_off_c, 0, 76, 0
2, 221568, Note_on_c, 0, 79, 75
2, 221756, Note_off_c, 0, 79, 0
2, 221760, Note_on_c, 0, 73, 62
2, 221948, Note_off_c, 0, 73, 0
2, 221952, Note_on_c, 0, 76, 74
2, 222140, Note_off_c, 0, 76, 0
2, 222144, Note_on_c, 0, 79, 78
2, 222332, Note_off_c, 0, 79, 0
2, 222336, Note_on_c, 0, 85, 78
2, 222524, Note_off_c, 0, 85, 0
2, 222528, Note_on_c, 0, 88, 72
2, 222716, Note_off_c, 0, 88, 0
2, 222720, Note_on_c, 0, 81, 62
2, 222720, Note_on_c, 0, 61, 68
2, 222720, Note_on_c, 0, 64, 68
2, 222908, Note_off_c, 0, 81, 0
2, 222912, Note_on_c, 0, 83, 58
2, 223100, Note_off_c, 0, 61, 0
2, 223100, Note_off_c, 0, 64, 0
2, 223100, Note_off_c, 0, 83, 0
2, 223104, Note_on_c, 0, 81, 63
2, 223104, Note_on_c, 0, 64, 62
2, 223104, Note_on_c, 0, 67, 52
2, 223292, Note_off_c, 0, 81, 0
2, 223296, Note_on_c, 0, 83, 66
2, 223484, Note_off_c, 0, 64, 0
2, 223484, Note_off_c, 0, 67, 0
2, 223484, Note_off_c, 0, 83, 0
2, 223488, Note_on_c, 0, 62, 60
2, 223488, Note_on_c, 0, 66, 64
2, 223488, Note_on_c, 0, 81, 63
2, 223488, Note_on_c, 0, 78, 62
2, 223676, Note_off_c, 0, 66, 0
2, 223680, Note_on_c, 0, 67, 53
2, 223868, Note_off_c, 0, 62, 0
2, 223868, Note_off_c, 0, 67, 0
2, 223872, Note_on_c, 0, 69, 60
2, 224060, Note_off_c, 0, 69, 0
2, 224064, Note_on_c, 0, 71, 63
2, 224252, Note_off_c, 0, 71, 0
2, 224256, Note_on_c, 0, 73, 65
2, 224444, Note_off_c, 0, 73, 0
2, 224448, Note_on_c, 0, 74, 77
2, 224636, Note_off_c, 0, 81, 0
2, 224636, Note_off_c, 0, 78, 0
2, 224636, Note_off_c, 0, 74, 0
2, 224640, Note_on_c, 0, 73, 69
2, 224640, Note_on_c, 0, 81, 69
2, 224640, Note_on_c, 0, 79, 74
2, 224828, Note_off_c, 0, 73, 0
2, 224832, Note_on_c, 0, 71, 54
2, 225020, Note_off_c, 0, 71, 0
2, 225024, Note_on_c, 0, 69, 59
2, 225212, Note_off_c, 0, 69, 0
2, 225216, Note_on_c, 0, 67, 70
2, 225404, Note_off_c, 0, 67, 0
2, 225408, Note_on_c, 0, 66, 64
2, 225596, Note_off_c, 0, 66, 0
2, 225600, Note_on_c, 0, 64, 59
2, 225788, Note_off_c, 0, 81, 0
2, 225788, Note_off_c, 0, 79, 0
2, 225788, Note_off_c, 0, 64, 0
2, 225792, Note_on_c, 0, 62, 66
2, 225792, Note_on_c, 0, 81, 88
2, 225792, Note_on_c, 0, 84, 100
2, 225980, Note_off_c, 0, 62, 0
2, 225984, Note_on_c, 0, 60, 76
2, 226172, Note_off_c, 0, 60, 0
2, 226176, Note_on_c, 0, 59, 83
2, 226364, Note_off_c, 0, 59, 0
2, 226368, Note_on_c, 0, 57, 85
2, 226556, Note_off_c, 0, 57, 0
2, 226940, Note_off_c, 0, 81, 0
2, 226940, Note_off_c, 0, 84, 0
2, 226944, Note_on_c, 0, 83, 59
2, 226944, Note_on_c, 0, 79, 60
2, 227136, Note_on_c, 0, 57, 51
2, 227324, Note_off_c, 0, 83, 0
2, 227324, Note_off_c, 0, 79, 0
2, 227324, Note_off_c, 0, 57, 0
2, 227328, Note_on_c, 0, 59, 52
2, 227328, Note_on_c, 0, 79, 51
2, 227328, Note_on_c, 0, 83, 62
2, 227516, Note_off_c, 0, 59, 0
2, 227520, Note_on_c, 0, 61, 61
2, 227708, Note_off_c, 0, 79, 0
2, 227708, Note_off_c, 0, 83, 0
2, 227708, Note_off_c, 0, 61, 0
2, 227712, Note_on_c, 0, 62, 60
2, 227712, Note_on_c, 0, 83, 56
2, 227712, Note_on_c, 0, 79, 51
2, 227900, Note_off_c, 0, 62, 0
2, 227904, Note_on_c, 0, 64, 61
2, 228092, Note_off_c, 0, 83, 0
2, 228092, Note_off_c, 0, 79, 0
2, 228092, Note_off_c, 0, 64, 0
2, 228096, Note_on_c, 0, 62, 60
2, 228096, Note_on_c, 0, 66, 69
2, 228096, Note_on_c, 0, 81, 46
2, 228096, Note_on_c, 0, 78, 56
2, 228284, Note_off_c, 0, 66, 0
2, 228288, Note_on_c, 0, 67, 60
2, 228476, Note_off_c, 0, 62, 0
2, 228476, Note_off_c, 0, 67, 0
2, 228480, Note_on_c, 0, 69, 55
2, 228668, Note_off_c, 0, 69, 0
2, 228672, Note_on_c, 0, 71, 59
2, 228860, Note_off_c, 0, 71, 0
2, 228864, Note_on_c, 0, 73, 70
2, 229052, Note_off_c, 0, 73, 0
2, 229056, Note_on_c, 0, 74, 69
2, 229244, Note_off_c, 0, 81, 0
2, 229244, Note_off_c, 0, 78, 0
2, 229244, Note_off_c, 0, 74, 0
2, 229248, Note_on_c, 0, 73, 56
2, 229248, Note_on_c, 0, 81, 61
2, 229248, Note_on_c, 0, 79, 66
2, 229436, Note_off_c, 0, 73, 0
2, 229440, Note_on_c, 0, 71, 62
2, 229628, Note_off_c, 0, 71, 0
2, 229632, Note_on_c, 0, 69, 59
2, 229820, Note_off_c, 0, 69, 0
2, 229824, Note_on_c, 0, 67, 72
2, 230012, Note_off_c, 0, 67, 0
2, 230016, Note_on_c, 0, 66, 67
2, 230204, Note_off_c, 0, 66, 0
2, 230208, Note_on_c, 0, 64, 78
2, 230396, Note_off_c, 0, 81, 0
2, 230396, Note_off_c, 0, 79, 0
2, 230396, Note_off_c, 0, 64, 0
2, 230400, Note_on_c, 0, 62, 88
2, 230400, Note_on_c, 0, 84, 96
2, 230400, Note_on_c, 0, 81, 81
2, 230588, Note_off_c, 0, 62, 0
2, 230592, Note_on_c, 0, 60, 80
2, 230780, Note_off_c, 0, 60, 0
2, 230784, Note_on_c, 0, 59, 70
2, 230972, Note_off_c, 0, 59, 0
2, 230976, Note_on_c, 0, 57, 78
2, 231164, Note_off_c, 0, 57, 0
2, 231548, Note_off_c, 0, 84, 0
2, 231548, Note_off_c, 0, 81, 0
2, 231552, Note_on_c, 0, 83, 58
2, 231552, Note_on_c, 0, 79, 54
2, 231744, Note_on_c, 0, 57, 59
2, 231932, Note_off_c, 0, 83, 0
2, 231932, Note_off_c, 0, 79, 0
2, 231932, Note_off_c, 0, 57, 0
2, 231936, Note_on_c, 0, 59, 64
2, 231936, Note_on_c, 0, 83, 62
2, 231936, Note_on_c, 0, 79, 60
2, 232124, Note_off_c, 0, 59, 0
2, 232128, Note_on_c, 0, 61, 51
2, 232316, Note_off_c, 0, 83, 0
2, 232316, Note_off_c, 0, 79, 0
2, 232316, Note_off_c, 0, 61, 0
2, 232320, Note_on_c, 0, 62, 52
2, 232320, Note_on_c, 0, 83, 66
2, 232320, Note_on_c, 0, 79, 59
2, 232508, Note_off_c, 0, 62, 0
2, 232512, Note_on_c, 0, 64, 68
2, 232700, Note_off_c, 0, 83, 0
2, 232700, Note_off_c, 0, 79, 0
2, 232700, Note_off_c, 0, 64, 0
2, 232704, Note_on_c, 0, 78, 61
2, 232704, Note_on_c, 0, 81, 60
2, 232704, Note_on_c, 0, 69, 60
2, 232704, Note_on_c, 0, 66, 47
2, 232704, Note_on_c, 0, 62, 62
2, 232892, Note_off_c, 0, 78, 0
2, 232892, Note_off_c, 0, 81, 0
2, 232896, Note_on_c, 0, 79, 59
2, 233084, Note_off_c, 0, 79, 0
2, 233088, Note_on_c, 0, 81, 59
2, 233276, Note_off_c, 0, 81, 0
2, 233280, Note_on_c, 0, 83, 66
2, 233468, Note_off_c, 0, 83, 0
2, 233472, Note_on_c, 0, 85, 67
2, 233660, Note_off_c, 0, 85, 0
2, 233664, Note_on_c, 0, 86, 64
2, 233852, Note_off_c, 0, 69, 0
2, 233852, Note_off_c, 0, 66, 0
2, 233852, Note_off_c, 0, 86, 0
2, 233856, Note_on_c, 0, 85, 62
2, 233856, Note_on_c, 0, 67, 66
2, 233856, Note_on_c, 0, 64, 62
2, 234044, Note_off_c, 0, 85, 0
2, 234048, Note_on_c, 0, 83, 54
2, 234236, Note_off_c, 0, 83, 0
2, 234240, Note_on_c, 0, 81, 48
2, 234428, Note_off_c, 0, 81, 0
2, 234432, Note_on_c, 0, 79, 54
2, 234620, Note_off_c, 0, 79, 0
2, 234624, Note_on_c, 0, 78, 57
2, 234812, Note_off_c, 0, 78, 0
2, 234816, Note_on_c, 0, 76, 66
2, 235004, Note_off_c, 0, 62, 0
2, 235004, Note_off_c, 0, 67, 0
2, 235004, Note_off_c, 0, 64, 0
2, 235004, Note_off_c, 0, 76, 0
2, 235008, Note_on_c, 0, 79, 55
2, 235008, Note_on_c, 0, 73, 65
2, 235008, Note_on_c, 0, 67, 69
2, 235008, Note_on_c, 0, 62, 68
2, 235196, Note_off_c, 0, 79, 0
2, 235200, Note_on_c, 0, 81, 60
2, 235388, Note_off_c, 0, 81, 0
2, 235392, Note_on_c, 0, 83, 63
2, 235580, Note_off_c, 0, 83, 0
2, 235584, Note_on_c, 0, 85, 69
2, 235772, Note_off_c, 0, 85, 0
2, 235776, Note_on_c, 0, 86, 70
2, 235964, Note_off_c, 0, 86, 0
2, 235968, Note_on_c, 0, 88, 70
2, 236156, Note_off_c, 0, 73, 0
2, 236156, Note_off_c, 0, 67, 0
2, 236156, Note_off_c, 0, 88, 0
2, 236160, Note_on_c, 0, 86, 74
2, 236160, Note_on_c, 0, 66, 58
2, 236160, Note_on_c, 0, 69, 55
2, 236348, Note_off_c, 0, 86, 0
2, 236352, Note_on_c, 0, 84, 80
2, 236540, Note_off_c, 0, 84, 0
2, 236544, Note_on_c, 0, 83, 75
2, 236732, Note_off_c, 0, 83, 0
2, 236736, Note_on_c, 0, 81, 66
2, 236924, Note_off_c, 0, 81, 0
2, 236928, Note_on_c, 0, 79, 59
2, 237116, Note_off_c, 0, 79, 0
2, 237120, Note_on_c, 0, 78, 54
2, 237308, Note_off_c, 0, 62, 0
2, 237308, Note_off_c, 0, 66, 0
2, 237308, Note_off_c, 0, 69, 0
2, 237308, Note_off_c, 0, 78, 0
2, 237312, Note_on_c, 0, 81, 60
2, 237312, Note_on_c, 0, 66, 59
2, 237312, Note_on_c, 0, 62, 53
2, 237312, Note_on_c, 0, 69, 60
2, 237312, Note_on_c, 0, 72, 60
2, 237500, Note_off_c, 0, 81, 0
2, 237504, Note_on_c, 0, 84, 72
2, 237692, Note_off_c, 0, 84, 0
2, 237696, Note_on_c, 0, 90, 65
2, 237884, Note_off_c, 0, 90, 0
2, 237888, Note_on_c, 0, 84, 78
2, 238076, Note_off_c, 0, 84, 0
2, 238080, Note_on_c, 0, 93, 92
2, 238268, Note_off_c, 0, 93, 0
2, 238272, Note_on_c, 0, 90, 83
2, 238460, Note_off_c, 0, 66, 0
2, 238460, Note_off_c, 0, 62, 0
2, 238460, Note_off_c, 0, 69, 0
2, 238460, Note_off_c, 0, 72, 0
2, 238460, Note_off_c, 0, 90, 0
2, 238464, Note_on_c, 0, 93, 86
2, 238464, Note_on_c, 0, 63, 87
2, 238464, Note_on_c, 0, 72, 84
2, 238464, Note_on_c, 0, 69, 84
2, 238464, Note_on_c, 0, 66, 83
2, 238652, Note_off_c, 0, 93, 0
2, 238656, Note_on_c, 0, 90, 84
2, 238844, Note_off_c, 0, 90, 0
2, 238848, Note_on_c, 0, 93, 99
2, 239036, Note_off_c, 0, 93, 0
2, 239040, Note_on_c, 0, 90, 88
2, 239228, Note_off_c, 0, 90, 0
2, 239232, Note_on_c, 0, 93, 97
2, 239420, Note_off_c, 0, 93, 0
2, 239424, Note_on_c, 0, 90, 84
2, 239612, Note_off_c, 0, 63, 0
2, 239612, Note_off_c, 0, 72, 0
2, 239612, Note_off_c, 0, 69, 0
2, 239612, Note_off_c, 0, 66, 0
2, 239612, Note_off_c, 0, 90, 0
2, 239616, Note_on_c, 0, 93, 92
2, 239616, Note_on_c, 0, 72, 82
2, 239616, Note_on_c, 0, 66, 80
2, 239616, Note_on_c, 0, 62, 88
2, 239616, Note_on_c, 0, 69, 82
2, 239804, Note_off_c, 0, 93, 0
2, 239808, Note_on_c, 0, 90, 84
2, 239996, Note_off_c, 0, 90, 0
2, 240000, Note_on_c, 0, 86, 85
2, 240188, Note_off_c, 0, 86, 0
2, 240192, Note_on_c, 0, 88, 88
2, 240380, Note_off_c, 0, 72, 0
2, 240380, Note_off_c, 0, 66, 0
2, 240380, Note_off_c, 0, 62, 0
2, 240380, Note_off_c, 0, 69, 0
2, 240380, Note_off_c, 0, 88, 0
2, 240384, Note_on_c, 0, 90, 85
2, 240384, Note_on_c, 0, 60, 76
2, 240384, Note_on_c, 0, 69, 72
2, 240384, Note_on_c, 0, 66, 55
2, 240572, Note_off_c, 0, 90, 0
2, 240576, Note_on_c, 0, 86, 83
2, 240764, Note_off_c, 0, 60, 0
2, 240764, Note_off_c, 0, 69, 0
2, 240764, Note_off_c, 0, 66, 0
2, 240764, Note_off_c, 0, 86, 0
2, 240768, Note_on_c, 0, 91, 85
2, 240768, Note_on_c, 0, 67, 73
2, 240768, Note_on_c, 0, 62, 68
2, 240768, Note_on_c, 0, 59, 56
2, 240956, Note_off_c, 0, 91, 0
2, 240960, Note_on_c, 0, 86, 79
2, 241148, Note_off_c, 0, 86, 0
2, 241152, Note_on_c, 0, 91, 77
2, 241340, Note_off_c, 0, 91, 0
2, 241344, Note_on_c, 0, 86, 69
2, 241532, Note_off_c, 0, 67, 0
2, 241532, Note_off_c, 0, 62, 0
2, 241532, Note_off_c, 0, 59, 0
2, 241532, Note_off_c, 0, 86, 0
2, 241536, Note_on_c, 0, 83, 63
2, 241724, Note_off_c, 0, 83, 0
2, 241728, Note_on_c, 0, 79, 62
2, 241916, Note_off_c, 0, 79, 0
2, 241920, Note_on_c, 0, 81, 62
2, 241920, Note_on_c, 0, 72, 58
2, 241920, Note_on_c, 0, 62, 39
2, 241920, Note_on_c, 0, 66, 43
2, 241920, Note_on_c, 0, 69, 51
2, 242108, Note_off_c, 0, 81, 0
2, 242112, Note_on_c, 0, 84, 73
2, 242300, Note_off_c, 0, 84, 0
2, 242304, Note_on_c, 0, 90, 74
2, 242492, Note_off_c, 0, 90, 0
2, 242496, Note_on_c, 0, 84, 81
2, 242684, Note_off_c, 0, 84, 0
2, 242688, Note_on_c, 0, 93, 86
2, 242876, Note_off_c, 0, 93, 0
2, 242880, Note_on_c, 0, 90, 85
2, 243068, Note_off_c, 0, 72, 0
2, 243068, Note_off_c, 0, 62, 0
2, 243068, Note_off_c, 0, 66, 0
2, 243068, Note_off_c, 0, 69, 0
2, 243068, Note_off_c, 0, 90, 0
2, 243072, Note_on_c, 0, 93, 89
2, 243072, Note_on_c, 0, 63, 86
2, 243072, Note_on_c, 0, 66, 77
2, 243072, Note_on_c, 0, 72, 80
2, 243072, Note_on_c, 0, 69, 75
2, 243260, Note_off_c, 0, 93, 0
2, 243264, Note_on_c, 0, 90, 93
2, 243452, Note_off_c, 0, 90, 0
2, 243456, Note_on_c, 0, 93, 103
2, 243644, Note_off_c, 0, 93, 0
2, 243648, Note_on_c, 0, 90, 91
2, 243836, Note_off_c, 0, 90, 0
2, 243840, Note_on_c, 0, 93, 99
2, 244028, Note_off_c, 0, 93, 0
2, 244032, Note_on_c, 0, 90, 89
2, 244220, Note_off_c, 0, 63, 0
2, 244220, Note_off_c, 0, 66, 0
2, 244220, Note_off_c, 0, 72, 0
2, 244220, Note_off_c, 0, 69, 0
2, 244220, Note_off_c, 0, 90, 0
2, 244224, Note_on_c, 0, 93, 99
2, 244224, Note_on_c, 0, 72, 89
2, 244224, Note_on_c, 0, 66, 87
2, 244224, Note_on_c, 0, 62, 96
2, 244224, Note_on_c, 0, 69, 85
2, 244412, Note_off_c, 0, 93, 0
2, 244416, Note_on_c, 0, 90, 85
2, 244416, Note_on_c, 0, 92, 44
2, 244604, Note_off_c, 0, 90, 0
2, 244604, Note_off_c, 0, 92, 0
2, 244608, Note_on_c, 0, 86, 89
2, 244796, Note_off_c, 0, 86, 0
2, 244800, Note_on_c, 0, 88, 93
2, 244988, Note_off_c, 0, 72, 0
2, 244988, Note_off_c, 0, 66, 0
2, 244988, Note_off_c, 0, 62, 0
2, 244988, Note_off_c, 0, 69, 0
2, 244988, Note_off_c, 0, 88, 0
2, 244992, Note_on_c, 0, 90, 88
2, 244992, Note_on_c, 0, 69, 66
2, 244992, Note_on_c, 0, 60, 72
2, 244992, Note_on_c, 0, 66, 63
2, 245180, Note_off_c, 0, 90, 0
2, 245184, Note_on_c, 0, 86, 85
2, 245372, Note_off_c, 0, 69, 0
2, 245372, Note_off_c, 0, 60, 0
2, 245372, Note_off_c, 0, 66, 0
2, 245372, Note_off_c, 0, 86, 0
2, 245376, Note_on_c, 0, 91, 87
2, 245376, Note_on_c, 0, 62, 63
2, 245376, Note_on_c, 0, 67, 64
2, 245376, Note_on_c, 0, 59, 55
2, 245564, Note_off_c, 0, 91, 0
2, 245568, Note_on_c, 0, 86, 80
2, 245756, Note_off_c, 0, 86, 0
2, 245760, Note_on_c, 0, 91, 72
2, 245948, Note_off_c, 0, 91, 0
2, 245952, Note_on_c, 0, 86, 61
2, 246140, Note_off_c, 0, 62, 0
2, 246140, Note_off_c, 0, 67, 0
2, 246140, Note_off_c, 0, 59, 0
2, 246140, Note_off_c, 0, 86, 0
2, 246144, Note_on_c, 0, 83, 48
2, 246144, Note_on_c, 0, 67, 62
2, 246144, Note_on_c, 0, 62, 67
2, 246144, Note_on_c, 0, 55, 58
2, 246332, Note_off_c, 0, 83, 0
2, 246336, Note_on_c, 0, 79, 49
2, 246524, Note_off_c, 0, 67, 0
2, 246524, Note_off_c, 0, 62, 0
2, 246524, Note_off_c, 0, 55, 0
2, 246524, Note_off_c, 0, 79, 0
2, 246528, Note_on_c, 0, 88, 63
2, 246528, Note_on_c, 0, 64, 58
2, 246528, Note_on_c, 0, 60, 54
2, 246528, Note_on_c, 0, 67, 58
2, 246716, Note_off_c, 0, 88, 0
2, 246720, Note_on_c, 0, 84, 71
2, 246908, Note_off_c, 0, 64, 0
2, 246908, Note_off_c, 0, 60, 0
2, 246908, Note_off_c, 0, 67, 0
2, 246908, Note_off_c, 0, 84, 0
2, 246912, Note_on_c, 0, 88, 62
2, 247100, Note_off_c, 0, 88, 0
2, 247104, Note_on_c, 0, 84, 62
2, 247292, Note_off_c, 0, 84, 0
2, 247296, Note_on_c, 0, 79, 68
2, 247296, Note_on_c, 0, 64, 51
2, 247296, Note_on_c, 0, 69, 53
2, 247296, Note_on_c, 0, 60, 51
2, 247484, Note_off_c, 0, 79, 0
2, 247488, Note_on_c, 0, 76, 64
2, 247676, Note_off_c, 0, 64, 0
2, 247676, Note_off_c, 0, 69, 0
2, 247676, Note_off_c, 0, 60, 0
2, 247676, Note_off_c, 0, 76, 0
2, 247680, Note_on_c, 0, 71, 58
2, 247680, Note_on_c, 0, 62, 42
2, 247680, Note_on_c, 0, 67, 64
2, 247680, Note_on_c, 0, 74, 55
2, 248060, Note_off_c, 0, 71, 0
2, 248060, Note_off_c, 0, 62, 0
2, 248060, Note_off_c, 0, 67, 0
2, 248444, Note_off_c, 0, 74, 0
2, 248448, Note_on_c, 0, 66, 49
2, 248448, Note_on_c, 0, 72, 49
2, 248448, Note_on_c, 0, 62, 34
2, 248448, Note_on_c, 0, 81, 55
2, 248520, Note_off_c, 0, 81, 0
2, 248520, Note_on_c, 0, 83, 58
2, 248592, Note_off_c, 0, 83, 0
2, 248592, Note_on_c, 0, 81, 55
2, 248660, Note_on_c, 0, 83, 58
2, 248664, Note_off_c, 0, 81, 0
2, 248732, Note_off_c, 0, 83, 0
2, 248736, Note_on_c, 0, 79, 55
2, 248780, Note_off_c, 0, 79, 0
2, 248784, Note_on_c, 0, 81, 56
2, 248828, Note_off_c, 0, 66, 0
2, 248828, Note_off_c, 0, 72, 0
2, 248828, Note_off_c, 0, 62, 0
2, 248828, Note_off_c, 0, 81, 0
2, 248832, Note_on_c, 0, 79, 93
2, 248832, Note_on_c, 0, 59, 70
2, 248832, Note_on_c, 0, 55, 82
2, 248956, Note_off_c, 0, 79, 0
2, 249020, Note_off_c, 0, 59, 0
2, 249020, Note_off_c, 0, 55, 0
2, 249024, Note_on_c, 0, 62, 79
2, 249212, Note_off_c, 0, 62, 0
2, 249216, Note_on_c, 0, 74, 90
2, 249216, Note_on_c, 0, 86, 90
2, 249216, Note_on_c, 0, 55, 79
2, 249216, Note_on_c, 0, 59, 73
2, 249340, Note_off_c, 0, 74, 0
2, 249340, Note_off_c, 0, 86, 0
2, 249404, Note_off_c, 0, 55, 0
2, 249404, Note_off_c, 0, 59, 0
2, 249408, Note_on_c, 0, 62, 82
2, 249596, Note_off_c, 0, 62, 0
2, 249600, Note_on_c, 0, 79, 81
2, 249600, Note_on_c, 0, 67, 86
2, 249724, Note_off_c, 0, 79, 0
2, 249724, Note_off_c, 0, 67, 0
2, 249792, Note_on_c, 0, 62, 79
2, 249980, Note_off_c, 0, 62, 0
2, 249984, Note_on_c, 0, 60, 80
2, 249984, Note_on_c, 0, 55, 81
2, 249984, Note_on_c, 0, 57, 77
2, 250172, Note_off_c, 0, 60, 0
2, 250172, Note_off_c, 0, 55, 0
2, 250172, Note_off_c, 0, 57, 0
2, 250176, Note_on_c, 0, 62, 78
2, 250364, Note_off_c, 0, 62, 0
2, 250368, Note_on_c, 0, 84, 90
2, 250368, Note_on_c, 0, 72, 82
2, 250368, Note_on_c, 0, 60, 78
2, 250368, Note_on_c, 0, 55, 77
2, 250368, Note_on_c, 0, 57, 70
2, 250492, Note_off_c, 0, 84, 0
2, 250492, Note_off_c, 0, 72, 0
2, 250556, Note_off_c, 0, 60, 0
2, 250556, Note_off_c, 0, 55, 0
2, 250556, Note_off_c, 0, 57, 0
2, 250560, Note_on_c, 0, 62, 71
2, 250748, Note_off_c, 0, 62, 0
2, 250752, Note_on_c, 0, 66, 89
2, 250752, Note_on_c, 0, 78, 89
2, 250752, Note_on_c, 0, 60, 74
2, 250752, Note_on_c, 0, 57, 68
2, 250752, Note_on_c, 0, 55, 66
2, 250876, Note_off_c, 0, 66, 0
2, 250876, Note_off_c, 0, 78, 0
2, 250940, Note_off_c, 0, 60, 0
2, 250940, Note_off_c, 0, 57, 0
2, 250940, Note_off_c, 0, 55, 0
2, 250944, Note_on_c, 0, 62, 77
2, 251132, Note_off_c, 0, 62, 0
2, 251520, Note_on_c, 0, 74, 64
2, 251520, Note_on_c, 0, 62, 46
2, 251644, Note_off_c, 0, 74, 0
2, 251644, Note_off_c, 0, 62, 0
2, 251904, Note_on_c, 0, 71, 59
2, 251904, Note_on_c, 0, 59, 55
2, 252028, Note_off_c, 0, 71, 0
2, 252028, Note_off_c, 0, 59, 0
2, 252672, Note_on_c, 0, 72, 64
2, 252672, Note_on_c, 0, 60, 58
2, 252796, Note_off_c, 0, 72, 0
2, 252796, Note_off_c, 0, 60, 0
2, 253056, Note_on_c, 0, 69, 68
2, 253056, Note_on_c, 0, 57, 62
2, 253180, Note_off_c, 0, 69, 0
2, 253180, Note_off_c, 0, 57, 0
2, 253824, Note_on_c, 0, 59, 84
2, 253824, Note_on_c, 0, 83, 94
2, 253824, Note_on_c, 0, 47, 83
2, 253824, Note_on_c, 0, 71, 81
2, 253948, Note_off_c, 0, 59, 0
2, 253948, Note_off_c, 0, 83, 0
2, 253948, Note_off_c, 0, 47, 0
2, 253948, Note_off_c, 0, 71, 0
2, 254208, Note_on_c, 0, 56, 88
2, 254208, Note_on_c, 0, 44, 88
2, 254208, Note_on_c, 0, 80, 95
2, 254208, Note_on_c, 0, 68, 95
2, 254332, Note_off_c, 0, 56, 0
2, 254332, Note_off_c, 0, 44, 0
2, 254332, Note_off_c, 0, 80, 0
2, 254332, Note_off_c, 0, 68, 0
2, 254976, Note_on_c, 0, 57, 93
2, 254976, Note_on_c, 0, 81, 97
2, 254976, Note_on_c, 0, 45, 94
2, 254976, Note_on_c, 0, 69, 90
2, 255100, Note_off_c, 0, 57, 0
2, 255100, Note_off_c, 0, 81, 0
2, 255100, Note_off_c, 0, 45, 0
2, 255100, Note_off_c, 0, 69, 0
2, 255360, Note_on_c, 0, 78, 90
2, 255360, Note_on_c, 0, 66, 95
2, 255360, Note_on_c, 0, 42, 89
2, 255360, Note_on_c, 0, 54, 85
2, 255484, Note_off_c, 0, 78, 0
2, 255484, Note_off_c, 0, 66, 0
2, 255484, Note_off_c, 0, 42, 0
2, 255484, Note_off_c, 0, 54, 0
2, 255744, Note_on_c, 0, 76, 87
2, 255744, Note_on_c, 0, 64, 80
2, 255868, Note_off_c, 0, 76, 0
2, 255868, Note_off_c, 0, 64, 0
2, 255936, Note_on_c, 0, 59, 70
2, 256124, Note_off_c, 0, 59, 0
2, 256128, Note_on_c, 0, 68, 87
2, 256128, Note_on_c, 0, 80, 95
2, 256252, Note_off_c, 0, 68, 0
2, 256252, Note_off_c, 0, 80, 0
2, 256320, Note_on_c, 0, 59, 77
2, 256508, Note_off_c, 0, 59, 0
2, 256512, Note_on_c, 0, 64, 83
2, 256512, Note_on_c, 0, 76, 92
2, 256636, Note_off_c, 0, 64, 0
2, 256636, Note_off_c, 0, 76, 0
2, 256704, Note_on_c, 0, 59, 64
2, 256892, Note_off_c, 0, 59, 0
2, 256896, Note_on_c, 0, 83, 100
2, 256896, Note_on_c, 0, 71, 93
2, 257088, Note_on_c, 0, 59, 63
2, 257276, Note_off_c, 0, 59, 0
2, 257472, Note_on_c, 0, 59, 65
2, 257660, Note_off_c, 0, 83, 0
2, 257660, Note_off_c, 0, 71, 0
2, 257660, Note_off_c, 0, 59, 0
2, 257664, Note_on_c, 0, 81, 62
2, 257852, Note_off_c, 0, 81, 0
2, 257856, Note_on_c, 0, 80, 53
2, 257856, Note_on_c, 0, 59, 64
2, 258044, Note_off_c, 0, 80, 0
2, 258044, Note_off_c, 0, 59, 0
2, 258048, Note_on_c, 0, 78, 62
2, 258236, Note_off_c, 0, 78, 0
2, 258240, Note_on_c, 0, 76, 52
2, 258240, Note_on_c, 0, 59, 56
2, 258428, Note_off_c, 0, 76, 0
2, 258428, Note_off_c, 0, 59, 0
2, 258432, Note_on_c, 0, 75, 58
2, 258620, Note_off_c, 0, 75, 0
2, 258624, Note_on_c, 0, 76, 55
2, 258624, Note_on_c, 0, 59, 62
2, 258812, Note_off_c, 0, 76, 0
2, 258812, Note_off_c, 0, 59, 0
2, 258816, Note_on_c, 0, 80, 69
2, 259004, Note_off_c, 0, 80, 0
2, 259008, Note_on_c, 0, 76, 76
2, 259008, Note_on_c, 0, 59, 51
2, 259196, Note_off_c, 0, 76, 0
2, 259196, Note_off_c, 0, 59, 0
2, 259200, Note_on_c, 0, 75, 73
2, 259200, Note_on_c, 0, 57, 64
2, 259200, Note_on_c, 0, 52, 53
2, 259388, Note_off_c, 0, 57, 0
2, 259388, Note_off_c, 0, 52, 0
2, 259392, Note_on_c, 0, 61, 57
2, 259580, Note_off_c, 0, 75, 0
2, 259580, Note_off_c, 0, 61, 0
2, 259584, Note_on_c, 0, 73, 62
2, 259584, Note_on_c, 0, 57, 60
2, 259584, Note_on_c, 0, 52, 60
2, 259772, Note_off_c, 0, 57, 0
2, 259772, Note_off_c, 0, 52, 0
2, 259776, Note_on_c, 0, 61, 55
2, 259964, Note_off_c, 0, 73, 0
2, 259964, Note_off_c, 0, 61, 0
2, 259968, Note_on_c, 0, 71, 41
2, 259968, Note_on_c, 0, 57, 61
2, 259968, Note_on_c, 0, 52, 62
2, 260156, Note_off_c, 0, 71, 0
2, 260156, Note_off_c, 0, 57, 0
2, 260156, Note_off_c, 0, 52, 0
2, 260160, Note_on_c, 0, 69, 55
2, 260160, Note_on_c, 0, 61, 62
2, 260348, Note_off_c, 0, 69, 0
2, 260348, Note_off_c, 0, 61, 0
2, 260352, Note_on_c, 0, 68, 58
2, 260540, Note_off_c, 0, 68, 0
2, 260544, Note_on_c, 0, 66, 57
2, 260544, Note_on_c, 0, 61, 51
2, 260732, Note_off_c, 0, 66, 0
2, 260732, Note_off_c, 0, 61, 0
2, 260736, Note_on_c, 0, 65, 53
2, 260924, Note_off_c, 0, 65, 0
2, 260928, Note_on_c, 0, 66, 57
2, 260928, Note_on_c, 0, 61, 50
2, 261116, Note_off_c, 0, 66, 0
2, 261116, Note_off_c, 0, 61, 0
2, 261120, Note_on_c, 0, 69, 64
2, 261120, Note_on_c, 0, 57, 51
2, 261120, Note_on_c, 0, 52, 49
2, 261308, Note_off_c, 0, 69, 0
2, 261308, Note_off_c, 0, 57, 0
2, 261308, Note_off_c, 0, 52, 0
2, 261312, Note_on_c, 0, 66, 63
2, 261312, Note_on_c, 0, 61, 58
2, 261500, Note_off_c, 0, 66, 0
2, 261500, Note_off_c, 0, 61, 0
2, 261504, Note_on_c, 0, 63, 56
2, 261696, Note_on_c, 0, 59, 39
2, 261884, Note_off_c, 0, 59, 0
2, 262080, Note_on_c, 0, 59, 35
2, 262268, Note_off_c, 0, 63, 0
2, 262268, Note_off_c, 0, 59, 0
2, 262272, Note_on_c, 0, 66, 64
2, 262396, Note_off_c, 0, 66, 0
2, 262464, Note_on_c, 0, 59, 52
2, 262652, Note_off_c, 0, 59, 0
2, 262656, Note_on_c, 0, 69, 70
2, 262780, Note_off_c, 0, 69, 0
2, 262848, Note_on_c, 0, 59, 48
2, 263036, Note_off_c, 0, 59, 0
2, 263040, Note_on_c, 0, 66, 65
2, 263164, Note_off_c, 0, 66, 0
2, 263232, Note_on_c, 0, 59, 54
2, 263420, Note_off_c, 0, 59, 0
2, 263424, Note_on_c, 0, 63, 64
2, 263548, Note_off_c, 0, 63, 0
2, 263616, Note_on_c, 0, 59, 52
2, 263804, Note_off_c, 0, 59, 0
2, 263808, Note_on_c, 0, 64, 61
2, 263996, Note_off_c, 0, 64, 0
2, 264000, Note_on_c, 0, 59, 51
2, 264188, Note_off_c, 0, 59, 0
2, 264192, Note_on_c, 0, 68, 51
2, 264192, Note_on_c, 0, 71, 96
2, 264316, Note_off_c, 0, 71, 0
2, 264380, Note_off_c, 0, 68, 0
2, 264384, Note_on_c, 0, 59, 49
2, 264572, Note_off_c, 0, 59, 0
2, 264576, Note_on_c, 0, 64, 59
2, 264576, Note_on_c, 0, 68, 57
2, 264700, Note_off_c, 0, 68, 0
2, 264764, Note_off_c, 0, 64, 0
2, 264768, Note_on_c, 0, 59, 53
2, 264956, Note_off_c, 0, 59, 0
2, 264960, Note_on_c, 0, 64, 61
2, 265148, Note_off_c, 0, 64, 0
2, 265152, Note_on_c, 0, 59, 45
2, 265340, Note_off_c, 0, 59, 0
2, 265344, Note_on_c, 0, 68, 59
2, 265344, Note_on_c, 0, 71, 92
2, 265468, Note_off_c, 0, 71, 0
2, 265532, Note_off_c, 0, 68, 0
2, 265536, Note_on_c, 0, 59, 46
2, 265724, Note_off_c, 0, 59, 0
2, 265728, Note_on_c, 0, 64, 70
2, 265728, Note_on_c, 0, 68, 67
2, 265852, Note_off_c, 0, 68, 0
2, 265916, Note_off_c, 0, 64, 0
2, 265920, Note_on_c, 0, 59, 42
2, 266108, Note_off_c, 0, 59, 0
2, 266112, Note_on_c, 0, 64, 66
2, 266300, Note_off_c, 0, 64, 0
2, 266304, Note_on_c, 0, 59, 57
2, 266492, Note_off_c, 0, 59, 0
2, 266496, Note_on_c, 0, 68, 65
2, 266496, Note_on_c, 0, 71, 78
2, 266620, Note_off_c, 0, 71, 0
2, 266684, Note_off_c, 0, 68, 0
2, 266688, Note_on_c, 0, 59, 44
2, 266876, Note_off_c, 0, 59, 0
2, 266880, Note_on_c, 0, 64, 69
2, 266880, Note_on_c, 0, 68, 45
2, 267004, Note_off_c, 0, 68, 0
2, 267068, Note_off_c, 0, 64, 0
2, 267072, Note_on_c, 0, 59, 44
2, 267260, Note_off_c, 0, 59, 0
2, 267264, Note_on_c, 0, 63, 71
2, 267452, Note_off_c, 0, 63, 0
2, 267456, Note_on_c, 0, 59, 50
2, 267644, Note_off_c, 0, 59, 0
2, 267648, Note_on_c, 0, 66, 69
2, 267648, Note_on_c, 0, 69, 82
2, 267772, Note_off_c, 0, 69, 0
2, 267836, Note_off_c, 0, 66, 0
2, 267840, Note_on_c, 0, 59, 47
2, 268028, Note_off_c, 0, 59, 0
2, 268032, Note_on_c, 0, 63, 56
2, 268032, Note_on_c, 0, 66, 53
2, 268156, Note_off_c, 0, 66, 0
2, 268220, Note_off_c, 0, 63, 0
2, 268224, Note_on_c, 0, 59, 43
2, 268412, Note_off_c, 0, 59, 0
2, 268416, Note_on_c, 0, 63, 58
2, 268604, Note_off_c, 0, 63, 0
2, 268608, Note_on_c, 0, 59, 38
2, 268796, Note_off_c, 0, 59, 0
2, 268800, Note_on_c, 0, 66, 75
2, 268800, Note_on_c, 0, 69, 84
2, 268988, Note_off_c, 0, 66, 0
2, 268992, Note_on_c, 0, 59, 49
2, 269180, Note_off_c, 0, 69, 0
2, 269180, Note_off_c, 0, 59, 0
2, 269184, Note_on_c, 0, 63, 62
2, 269184, Note_on_c, 0, 66, 83
2, 269372, Note_off_c, 0, 63, 0
2, 269376, Note_on_c, 0, 59, 49
2, 269564, Note_off_c, 0, 66, 0
2, 269564, Note_off_c, 0, 59, 0
2, 269568, Note_on_c, 0, 63, 56
2, 269756, Note_off_c, 0, 63, 0
2, 269760, Note_on_c, 0, 59, 55
2, 269948, Note_off_c, 0, 59, 0
2, 269952, Note_on_c, 0, 66, 67
2, 269952, Note_on_c, 0, 69, 83
2, 270140, Note_off_c, 0, 66, 0
2, 270144, Note_on_c, 0, 59, 38
2, 270332, Note_off_c, 0, 69, 0
2, 270332, Note_off_c, 0, 59, 0
2, 270336, Note_on_c, 0, 63, 56
2, 270336, Note_on_c, 0, 66, 58
2, 270524, Note_off_c, 0, 63, 0
2, 270528, Note_on_c, 0, 59, 34
2, 270716, Note_off_c, 0, 66, 0
2, 270716, Note_off_c, 0, 59, 0
2, 270720, Note_on_c, 0, 63, 61
2, 270908, Note_off_c, 0, 63, 0
2, 270912, Note_on_c, 0, 59, 53
2, 271100, Note_off_c, 0, 59, 0
2, 271104, Note_on_c, 0, 66, 70
2, 271104, Note_on_c, 0, 69, 84
2, 271292, Note_off_c, 0, 66, 0
2, 271296, Note_on_c, 0, 59, 46
2, 271484, Note_off_c, 0, 69, 0
2, 271484, Note_off_c, 0, 59, 0
2, 271488, Note_on_c, 0, 63, 60
2, 271488, Note_on_c, 0, 66, 56
2, 271676, Note_off_c, 0, 63, 0
2, 271680, Note_on_c, 0, 59, 38
2, 271868, Note_off_c, 0, 66, 0
2, 271868, Note_off_c, 0, 59, 0
2, 271872, Note_on_c, 0, 64, 54
2, 272060, Note_off_c, 0, 64, 0
2, 272064, Note_on_c, 0, 59, 30
2, 272252, Note_off_c, 0, 59, 0
2, 272256, Note_on_c, 0, 64, 44
2, 272256, Note_on_c, 0, 67, 73
2, 272444, Note_off_c, 0, 64, 0
2, 272448, Note_on_c, 0, 59, 31
2, 272636, Note_off_c, 0, 67, 0
2, 272636, Note_off_c, 0, 59, 0
2, 272640, Note_on_c, 0, 64, 53
2, 272640, Note_on_c, 0, 64, 51
2, 272640, Note_on_c, 0, 67, 73
2, 272764, Note_off_c, 0, 64, 0
2, 272828, Note_off_c, 0, 64, 0
2, 272832, Note_on_c, 0, 59, 41
2, 273020, Note_off_c, 0, 67, 0
2, 273020, Note_off_c, 0, 59, 0
2, 273024, Note_on_c, 0, 60, 49
2, 273024, Control_c, 0, 64, 127
2, 273212, Note_off_c, 0, 60, 0
2, 273408, Note_on_c, 0, 64, 66
2, 273408, Note_on_c, 0, 67, 66
2, 273532, Note_off_c, 0, 67, 0
2, 273596, Note_off_c, 0, 64, 0
2, 273792, Note_on_c, 0, 60, 64
2, 273792, Note_on_c, 0, 64, 61
2, 273916, Note_off_c, 0, 64, 0
2, 273980, Note_off_c, 0, 60, 0
2, 274176, Note_on_c, 0, 60, 60
2, 274364, Note_off_c, 0, 60, 0
2, 274560, Note_on_c, 0, 64, 64
2, 274560, Note_on_c, 0, 67, 42
2, 274748, Note_off_c, 0, 64, 0
2, 274940, Note_off_c, 0, 67, 0
2, 274944, Note_on_c, 0, 60, 63
2, 274944, Note_on_c, 0, 64, 52
2, 275132, Note_off_c, 0, 60, 0
2, 275324, Note_off_c, 0, 64, 0
2, 275328, Note_on_c, 0, 60, 71
2, 275516, Note_off_c, 0, 60, 0
2, 275712, Note_on_c, 0, 64, 68
2, 275712, Note_on_c, 0, 67, 63
2, 275900, Note_off_c, 0, 64, 0
2, 276092, Note_off_c, 0, 67, 0
2, 276096, Note_on_c, 0, 60, 61
2, 276096, Note_on_c, 0, 64, 57
2, 276284, Note_off_c, 0, 60, 0
2, 276288, Control_c, 0, 64, 0
2, 276476, Note_off_c, 0, 64, 0
2, 276480, Note_on_c, 0, 59, 58
2, 276480, Control_c, 0, 64, 127
2, 276668, Note_off_c, 0, 59, 0
2, 276864, Note_on_c, 0, 62, 69
2, 276864, Note_on_c, 0, 65, 63
2, 277052, Note_off_c, 0, 62, 0
2, 277244, Note_off_c, 0, 65, 0
2, 277248, Note_on_c, 0, 59, 63
2, 277248, Note_on_c, 0, 62, 52
2, 277436, Note_off_c, 0, 59, 0
2, 277628, Note_off_c, 0, 62, 0
2, 277632, Note_on_c, 0, 59, 62
2, 277820, Note_off_c, 0, 59, 0
2, 278016, Note_on_c, 0, 62, 64
2, 278016, Note_on_c, 0, 65, 60
2, 278204, Note_off_c, 0, 62, 0
2, 278396, Note_off_c, 0, 65, 0
2, 278400, Note_on_c, 0, 59, 63
2, 278400, Note_on_c, 0, 62, 53
2, 278588, Note_off_c, 0, 59, 0
2, 278780, Note_off_c, 0, 62, 0
2, 278784, Note_on_c, 0, 59, 64
2, 278972, Note_off_c, 0, 59, 0
2, 279168, Note_on_c, 0, 62, 69
2, 279168, Note_on_c, 0, 65, 56
2, 279356, Note_off_c, 0, 62, 0
2, 279548, Note_off_c, 0, 65, 0
2, 279552, Note_on_c, 0, 59, 64
2, 279552, Note_on_c, 0, 62, 60
2, 279740, Note_off_c, 0, 59, 0
2, 279932, Note_off_c, 0, 62, 0
2, 279936, Note_on_c, 0, 59, 63
2, 280124, Note_off_c, 0, 59, 0
2, 280320, Note_on_c, 0, 62, 72
2, 280320, Note_on_c, 0, 65, 59
2, 280508, Note_off_c, 0, 62, 0
2, 280700, Note_off_c, 0, 65, 0
2, 280704, Note_on_c, 0, 59, 62
2, 280704, Note_on_c, 0, 62, 51
2, 280892, Note_off_c, 0, 59, 0
2, 280896, Control_c, 0, 64, 0
2, 281084, Note_off_c, 0, 62, 0
2, 281088, Note_on_c, 0, 60, 67
2, 281088, Control_c, 0, 64, 127
2, 281276, Note_off_c, 0, 60, 0
2, 281472, Note_on_c, 0, 60, 70
2, 281472, Note_on_c, 0, 64, 53
2, 281660, Note_off_c, 0, 60, 0
2, 281852, Note_off_c, 0, 64, 0
2, 281856, Note_on_c, 0, 60, 72
2, 281856, Note_on_c, 0, 64, 59
2, 282044, Note_off_c, 0, 60, 0
2, 282048, Control_c, 0, 64, 0
2, 282236, Note_off_c, 0, 64, 0
2, 282240, Note_on_c, 0, 60, 89
2, 282428, Note_off_c, 0, 60, 0
2, 283008, Note_on_c, 0, 59, 85
2, 283196, Note_off_c, 0, 59, 0
2, 283200, Note_on_c, 0, 60, 87
2, 283388, Note_off_c, 0, 60, 0
2, 283392, Note_on_c, 0, 62, 88
2, 283580, Note_off_c, 0, 62, 0
2, 284160, Note_on_c, 0, 60, 90
2, 284348, Note_off_c, 0, 60, 0
2, 284352, Note_on_c, 0, 62, 87
2, 284540, Note_off_c, 0, 62, 0
2, 284544, Note_on_c, 0, 64, 86
2, 284732, Note_off_c, 0, 64, 0
2, 284736, Note_on_c, 0, 60, 78
2, 284924, Note_off_c, 0, 60, 0
2, 284928, Note_on_c, 0, 59, 78
2, 285116, Note_off_c, 0, 59, 0
2, 285120, Note_on_c, 0, 60, 84
2, 285308, Note_off_c, 0, 60, 0
2, 285312, Note_on_c, 0, 65, 82
2, 285500, Note_off_c, 0, 65, 0
2, 285504, Note_on_c, 0, 67, 83
2, 285692, Note_off_c, 0, 67, 0
2, 285696, Note_on_c, 0, 69, 84
2, 285884, Note_off_c, 0, 69, 0
2, 285888, Note_on_c, 0, 67, 85
2, 286076, Note_off_c, 0, 67, 0
2, 286080, Note_on_c, 0, 65, 77
2, 286268, Note_off_c, 0, 65, 0
2, 286272, Note_on_c, 0, 64, 81
2, 286460, Note_off_c, 0, 64, 0
2, 286464, Note_on_c, 0, 62, 73
2, 286652, Note_off_c, 0, 62, 0
2, 286656, Note_on_c, 0, 60, 82
2, 286844, Note_off_c, 0, 60, 0
2, 286848, Note_on_c, 0, 43, 71
2, 286848, Note_on_c, 0, 59, 68
2, 287228, Note_off_c, 0, 43, 0
2, 287228, Note_off_c, 0, 59, 0
2, 287616, Note_on_c, 0, 62, 34
2, 287616, Note_on_c, 0, 77, 53
2, 287804, Note_off_c, 0, 62, 0
2, 287804, Note_off_c, 0, 77, 0
2, 287808, Note_on_c, 0, 79, 54
2, 287808, Note_on_c, 0, 64, 54
2, 287996, Note_off_c, 0, 79, 0
2, 287996, Note_off_c, 0, 64, 0
2, 288000, Note_on_c, 0, 65, 55
2, 288000, Note_on_c, 0, 81, 40
2, 288124, Note_off_c, 0, 65, 0
2, 288188, Note_off_c, 0, 81, 0
2, 288192, Note_on_c, 0, 79, 57
2, 288380, Note_off_c, 0, 79, 0
2, 288384, Note_on_c, 0, 65, 58
2, 288384, Note_on_c, 0, 77, 55
2, 288508, Note_off_c, 0, 65, 0
2, 288572, Note_off_c, 0, 77, 0
2, 288576, Note_on_c, 0, 76, 58
2, 288764, Note_off_c, 0, 76, 0
2, 288768, Note_on_c, 0, 66, 56
2, 288768, Note_on_c, 0, 74, 53
2, 288892, Note_off_c, 0, 66, 0
2, 288956, Note_off_c, 0, 74, 0
2, 288960, Note_on_c, 0, 72, 40
2, 289148, Note_off_c, 0, 72, 0
2, 289152, Note_on_c, 0, 67, 68
2, 289152, Note_on_c, 0, 71, 58
2, 289532, Note_off_c, 0, 67, 0
2, 289532, Note_off_c, 0, 71, 0
2, 289920, Note_on_c, 0, 65, 44
2, 289920, Note_on_c, 0, 53, 48
2, 290108, Note_off_c, 0, 65, 0
2, 290108, Note_off_c, 0, 53, 0
2, 290304, Note_on_c, 0, 68, 55
2, 290304, Note_on_c, 0, 56, 46
2, 290492, Note_off_c, 0, 68, 0
2, 290492, Note_off_c, 0, 56, 0
2, 290688, Note_on_c, 0, 53, 41
2, 290688, Note_on_c, 0, 65, 53
2, 290876, Note_off_c, 0, 53, 0
2, 290876, Note_off_c, 0, 65, 0
2, 291072, Note_on_c, 0, 62, 66
2, 291072, Note_on_c, 0, 50, 47
2, 291260, Note_off_c, 0, 62, 0
2, 291260, Note_off_c, 0, 50, 0
2, 291264, Note_on_c, 0, 67, 79
2, 291264, Note_on_c, 0, 55, 67
2, 291452, Note_off_c, 0, 67, 0
2, 291452, Note_off_c, 0, 55, 0
2, 291456, Note_on_c, 0, 60, 76
2, 291644, Note_off_c, 0, 60, 0
2, 291840, Note_on_c, 0, 63, 87
2, 291840, Note_on_c, 0, 67, 109
2, 291964, Note_off_c, 0, 67, 0
2, 292028, Note_off_c, 0, 63, 0
2, 292224, Note_on_c, 0, 60, 83
2, 292224, Note_on_c, 0, 63, 82
2, 292348, Note_off_c, 0, 63, 0
2, 292412, Note_off_c, 0, 60, 0
2, 292608, Note_on_c, 0, 60, 80
2, 292796, Note_off_c, 0, 60, 0
2, 292992, Note_on_c, 0, 63, 87
2, 292992, Note_on_c, 0, 67, 100
2, 293116, Note_off_c, 0, 67, 0
2, 293180, Note_off_c, 0, 63, 0
2, 293376, Note_on_c, 0, 60, 81
2, 293376, Note_on_c, 0, 63, 77
2, 293500, Note_off_c, 0, 63, 0
2, 293564, Note_off_c, 0, 60, 0
2, 293760, Note_on_c, 0, 60, 84
2, 293948, Note_off_c, 0, 60, 0
2, 294144, Note_on_c, 0, 63, 76
2, 294144, Note_on_c, 0, 67, 88
2, 294332, Note_off_c, 0, 63, 0
2, 294524, Note_off_c, 0, 67, 0
2, 294528, Note_on_c, 0, 60, 81
2, 294528, Note_on_c, 0, 63, 78
2, 294716, Note_off_c, 0, 60, 0
2, 294908, Note_off_c, 0, 63, 0
2, 294912, Note_on_c, 0, 59, 75
2, 295100, Note_off_c, 0, 59, 0
2, 295296, Note_on_c, 0, 62, 80
2, 295296, Note_on_c, 0, 65, 75
2, 295484, Note_off_c, 0, 62, 0
2, 295676, Note_off_c, 0, 65, 0
2, 295680, Note_on_c, 0, 59, 74
2, 295680, Note_on_c, 0, 62, 76
2, 295868, Note_off_c, 0, 59, 0
2, 296060, Note_off_c, 0, 62, 0
2, 296064, Note_on_c, 0, 59, 79
2, 296252, Note_off_c, 0, 59, 0
2, 296448, Note_on_c, 0, 62, 81
2, 296448, Note_on_c, 0, 65, 76
2, 296636, Note_off_c, 0, 62, 0
2, 296828, Note_off_c, 0, 65, 0
2, 296832, Note_on_c, 0, 59, 74
2, 296832, Note_on_c, 0, 62, 67
2, 297020, Note_off_c, 0, 59, 0
2, 297212, Note_off_c, 0, 62, 0
2, 297216, Note_on_c, 0, 59, 80
2, 297404, Note_off_c, 0, 59, 0
2, 297600, Note_on_c, 0, 62, 74
2, 297600, Note_on_c, 0, 65, 85
2, 297788, Note_off_c, 0, 62, 0
2, 297980, Note_off_c, 0, 65, 0
2, 297984, Note_on_c, 0, 59, 70
2, 297984, Note_on_c, 0, 62, 78
2, 298172, Note_off_c, 0, 59, 0
2, 298364, Note_off_c, 0, 62, 0
2, 298368, Note_on_c, 0, 59, 82
2, 298556, Note_off_c, 0, 59, 0
2, 298752, Note_on_c, 0, 62, 88
2, 298752, Note_on_c, 0, 65, 96
2, 298940, Note_off_c, 0, 62, 0
2, 299132, Note_off_c, 0, 65, 0
2, 299136, Note_on_c, 0, 59, 75
2, 299136, Note_on_c, 0, 62, 64
2, 299324, Note_off_c, 0, 59, 0
2, 299516, Note_off_c, 0, 62, 0
2, 299520, Note_on_c, 0, 60, 52
2, 299708, Note_off_c, 0, 60, 0
2, 299904, Note_on_c, 0, 60, 55
2, 299904, Note_on_c, 0, 63, 65
2, 300092, Note_off_c, 0, 60, 0
2, 300284, Note_off_c, 0, 63, 0
2, 300288, Note_on_c, 0, 62, 55
2, 300288, Note_on_c, 0, 65, 63
2, 300476, Note_off_c, 0, 62, 0
2, 300480, Note_on_c, 0, 58, 61
2, 300668, Note_off_c, 0, 65, 0
2, 300668, Note_off_c, 0, 58, 0
2, 300672, Note_on_c, 0, 63, 62
2, 300672, Control_c, 0, 64, 127
2, 300860, Note_off_c, 0, 63, 0
2, 300864, Note_on_c, 0, 58, 53
2, 301052, Note_off_c, 0, 58, 0
2, 301056, Note_on_c, 0, 67, 71
2, 301056, Note_on_c, 0, 70, 64
2, 301180, Note_off_c, 0, 70, 0
2, 301244, Note_off_c, 0, 67, 0
2, 301248, Note_on_c, 0, 58, 47
2, 301436, Note_off_c, 0, 58, 0
2, 301440, Note_on_c, 0, 63, 61
2, 301440, Note_on_c, 0, 67, 69
2, 301564, Note_off_c, 0, 67, 0
2, 301628, Note_off_c, 0, 63, 0
2, 301632, Note_on_c, 0, 58, 29
2, 301820, Note_off_c, 0, 58, 0
2, 301824, Note_on_c, 0, 63, 64
2, 302012, Note_off_c, 0, 63, 0
2, 302016, Note_on_c, 0, 58, 38
2, 302204, Note_off_c, 0, 58, 0
2, 302208, Note_on_c, 0, 67, 68
2, 302208, Note_on_c, 0, 70, 58
2, 302332, Note_off_c, 0, 70, 0
2, 302396, Note_off_c, 0, 67, 0
2, 302400, Note_on_c, 0, 58, 61
2, 302588, Note_off_c, 0, 58, 0
2, 302592, Note_on_c, 0, 63, 62
2, 302592, Note_on_c, 0, 67, 58
2, 302716, Note_off_c, 0, 67, 0
2, 302780, Note_off_c, 0, 63, 0
2, 302784, Note_on_c, 0, 58, 48
2, 302972, Note_off_c, 0, 58, 0
2, 302976, Note_on_c, 0, 63, 61
2, 303164, Note_off_c, 0, 63, 0
2, 303168, Note_on_c, 0, 58, 57
2, 303356, Note_off_c, 0, 58, 0
2, 303360, Note_on_c, 0, 67, 67
2, 303360, Note_on_c, 0, 70, 49
2, 303548, Note_off_c, 0, 67, 0
2, 303552, Note_on_c, 0, 58, 49
2, 303740, Note_off_c, 0, 70, 0
2, 303740, Note_off_c, 0, 58, 0
2, 303744, Note_on_c, 0, 63, 65
2, 303744, Note_on_c, 0, 67, 53
2, 303932, Note_off_c, 0, 63, 0
2, 303936, Note_on_c, 0, 58, 48
2, 303936, Control_c, 0, 64, 0
2, 304124, Note_off_c, 0, 67, 0
2, 304124, Note_off_c, 0, 58, 0
2, 304128, Note_on_c, 0, 62, 51
2, 304128, Control_c, 0, 64, 127
2, 304316, Note_off_c, 0, 62, 0
2, 304320, Note_on_c, 0, 58, 56
2, 304508, Note_off_c, 0, 58, 0
2, 304512, Note_on_c, 0, 65, 60
2, 304512, Note_on_c, 0, 68, 62
2, 304700, Note_off_c, 0, 65, 0
2, 304704, Note_on_c, 0, 58, 53
2, 304892, Note_off_c, 0, 68, 0
2, 304892, Note_off_c, 0, 58, 0
2, 304896, Note_on_c, 0, 62, 60
2, 304896, Note_on_c, 0, 65, 58
2, 305084, Note_off_c, 0, 62, 0
2, 305088, Note_on_c, 0, 58, 52
2, 305276, Note_off_c, 0, 65, 0
2, 305276, Note_off_c, 0, 58, 0
2, 305280, Note_on_c, 0, 62, 64
2, 305468, Note_off_c, 0, 62, 0
2, 305472, Note_on_c, 0, 58, 51
2, 305660, Note_off_c, 0, 58, 0
2, 305664, Note_on_c, 0, 65, 68
2, 305664, Note_on_c, 0, 68, 54
2, 305852, Note_off_c, 0, 65, 0
2, 305856, Note_on_c, 0, 58, 46
2, 306044, Note_off_c, 0, 68, 0
2, 306044, Note_off_c, 0, 58, 0
2, 306048, Note_on_c, 0, 62, 66
2, 306048, Note_on_c, 0, 65, 60
2, 306236, Note_off_c, 0, 62, 0
2, 306240, Note_on_c, 0, 58, 48
2, 306428, Note_off_c, 0, 65, 0
2, 306428, Note_off_c, 0, 58, 0
2, 306432, Note_on_c, 0, 62, 54
2, 306620, Note_off_c, 0, 62, 0
2, 306624, Note_on_c, 0, 58, 45
2, 306812, Note_off_c, 0, 58, 0
2, 306816, Note_on_c, 0, 65, 68
2, 306816, Note_on_c, 0, 68, 54
2, 307004, Note_off_c, 0, 65, 0
2, 307008, Note_on_c, 0, 58, 46
2, 307196, Note_off_c, 0, 68, 0
2, 307196, Note_off_c, 0, 58, 0
2, 307200, Note_on_c, 0, 62, 55
2, 307200, Note_on_c, 0, 65, 66
2, 307388, Note_off_c, 0, 62, 0
2, 307392, Note_on_c, 0, 58, 32
2, 307580, Note_off_c, 0, 65, 0
2, 307580, Note_off_c, 0, 58, 0
2, 307584, Note_on_c, 0, 62, 58
2, 307772, Note_off_c, 0, 62, 0
2, 307776, Note_on_c, 0, 58, 38
2, 307964, Note_off_c, 0, 58, 0
2, 307968, Note_on_c, 0, 65, 60
2, 307968, Note_on_c, 0, 68, 61
2, 308156, Note_off_c, 0, 65, 0
2, 308160, Note_on_c, 0, 58, 42
2, 308348, Note_off_c, 0, 68, 0
2, 308348, Note_off_c, 0, 58, 0
2, 308352, Note_on_c, 0, 62, 60
2, 308352, Note_on_c, 0, 65, 55
2, 308540, Note_off_c, 0, 62, 0
2, 308544, Note_on_c, 0, 58, 43
2, 308544, Control_c, 0, 64, 0
2, 308732, Note_off_c, 0, 65, 0
2, 308732, Note_off_c, 0, 58, 0
2, 308736, Note_on_c, 0, 63, 61
2, 308736, Control_c, 0, 64, 127
2, 308924, Note_off_c, 0, 63, 0
2, 308928, Note_on_c, 0, 58, 55
2, 309116, Note_off_c, 0, 58, 0
2, 309120, Note_on_c, 0, 63, 61
2, 309120, Note_on_c, 0, 67, 58
2, 309308, Note_off_c, 0, 63, 0
2, 309312, Note_on_c, 0, 58, 55
2, 309500, Note_off_c, 0, 67, 0
2, 309500, Note_off_c, 0, 58, 0
2, 309504, Note_on_c, 0, 63, 56
2, 309504, Note_on_c, 0, 67, 68
2, 309692, Note_off_c, 0, 63, 0
2, 309696, Note_on_c, 0, 58, 61
2, 309696, Control_c, 0, 64, 0
2, 309884, Note_off_c, 0, 67, 0
2, 309884, Note_off_c, 0, 58, 0
2, 309888, Note_on_c, 0, 63, 90
2, 310076, Note_off_c, 0, 63, 0
2, 310080, Note_on_c, 0, 58, 77
2, 310268, Note_off_c, 0, 58, 0
2, 310272, Note_on_c, 0, 57, 84
2, 310460, Note_off_c, 0, 57, 0
2, 310464, Note_on_c, 0, 58, 81
2, 310652, Note_off_c, 0, 58, 0
2, 310656, Note_on_c, 0, 62, 80
2, 310844, Note_off_c, 0, 62, 0
2, 310848, Note_on_c, 0, 63, 85
2, 311036, Note_off_c, 0, 63, 0
2, 311040, Note_on_c, 0, 65, 86
2, 311228, Note_off_c, 0, 65, 0
2, 311232, Note_on_c, 0, 58, 80
2, 311420, Note_off_c, 0, 58, 0
2, 311424, Note_on_c, 0, 57, 81
2, 311612, Note_off_c, 0, 57, 0
2, 311616, Note_on_c, 0, 58, 64
2, 311804, Note_off_c, 0, 58, 0
2, 311808, Note_on_c, 0, 63, 85
2, 311996, Note_off_c, 0, 63, 0
2, 312000, Note_on_c, 0, 65, 90
2, 312188, Note_off_c, 0, 65, 0
2, 312192, Note_on_c, 0, 67, 88
2, 312380, Note_off_c, 0, 67, 0
2, 312384, Note_on_c, 0, 63, 80
2, 312572, Note_off_c, 0, 63, 0
2, 312576, Note_on_c, 0, 62, 68
2, 312764, Note_off_c, 0, 62, 0
2, 312768, Note_on_c, 0, 63, 69
2, 312956, Note_off_c, 0, 63, 0
2, 312960, Note_on_c, 0, 68, 77
2, 313148, Note_off_c, 0, 68, 0
2, 313152, Note_on_c, 0, 70, 72
2, 313340, Note_off_c, 0, 70, 0
2, 313344, Note_on_c, 0, 72, 81
2, 313532, Note_off_c, 0, 72, 0
2, 313536, Note_on_c, 0, 70, 76
2, 313724, Note_off_c, 0, 70, 0
2, 313728, Note_on_c, 0, 68, 81
2, 313916, Note_off_c, 0, 68, 0
2, 313920, Note_on_c, 0, 67, 59
2, 314108, Note_off_c, 0, 67, 0
2, 314112, Note_on_c, 0, 65, 74
2, 314300, Note_off_c, 0, 65, 0
2, 314304, Note_on_c, 0, 63, 71
2, 314492, Note_off_c, 0, 63, 0
2, 315264, Note_on_c, 0, 80, 68
2, 315264, Note_on_c, 0, 72, 46
2, 315452, Note_off_c, 0, 80, 0
2, 315452, Note_off_c, 0, 72, 0
2, 315456, Note_on_c, 0, 70, 61
2, 315456, Note_on_c, 0, 82, 59
2, 315644, Note_off_c, 0, 70, 0
2, 315644, Note_off_c, 0, 82, 0
2, 315648, Note_on_c, 0, 84, 68
2, 315648, Note_on_c, 0, 68, 54
2, 315772, Note_off_c, 0, 68, 0
2, 315836, Note_off_c, 0, 84, 0
2, 315840, Note_on_c, 0, 82, 61
2, 316028, Note_off_c, 0, 82, 0
2, 316032, Note_on_c, 0, 80, 64
2, 316032, Note_on_c, 0, 68, 62
2, 316156, Note_off_c, 0, 68, 0
2, 316220, Note_off_c, 0, 80, 0
2, 316224, Note_on_c, 0, 79, 59
2, 316412, Note_off_c, 0, 79, 0
2, 316416, Note_on_c, 0, 77, 65
2, 316416, Note_on_c, 0, 69, 59
2, 316540, Note_off_c, 0, 69, 0
2, 316604, Note_off_c, 0, 77, 0
2, 316608, Note_on_c, 0, 75, 56
2, 316796, Note_off_c, 0, 75, 0
2, 316800, Note_on_c, 0, 70, 55
2, 316800, Note_on_c, 0, 74, 68
2, 317180, Note_off_c, 0, 70, 0
2, 317180, Note_off_c, 0, 74, 0
2, 317952, Note_on_c, 0, 63, 85
2, 317952, Note_on_c, 0, 51, 79
2, 318140, Note_off_c, 0, 63, 0
2, 318140, Note_off_c, 0, 51, 0
2, 318144, Note_on_c, 0, 62, 86
2, 318144, Note_on_c, 0, 50, 74
2, 318332, Note_off_c, 0, 62, 0
2, 318332, Note_off_c, 0, 50, 0
2, 318336, Note_on_c, 0, 48, 78
2, 318336, Note_on_c, 0, 60, 85
2, 318524, Note_off_c, 0, 48, 0
2, 318524, Note_off_c, 0, 60, 0
2, 318528, Note_on_c, 0, 58, 74
2, 318528, Note_on_c, 0, 46, 77
2, 318716, Note_off_c, 0, 58, 0
2, 318716, Note_off_c, 0, 46, 0
2, 318720, Note_on_c, 0, 57, 84
2, 318720, Note_on_c, 0, 45, 66
2, 318908, Note_off_c, 0, 57, 0
2, 318908, Note_off_c, 0, 45, 0
2, 319872, Note_on_c, 0, 84, 68
2, 319872, Note_on_c, 0, 72, 58
2, 320060, Note_off_c, 0, 84, 0
2, 320060, Note_off_c, 0, 72, 0
2, 320064, Note_on_c, 0, 74, 58
2, 320064, Note_on_c, 0, 86, 61
2, 320252, Note_off_c, 0, 74, 0
2, 320252, Note_off_c, 0, 86, 0
2, 320256, Note_on_c, 0, 75, 53
2, 320256, Note_on_c, 0, 87, 57
2, 320444, Note_off_c, 0, 75, 0
2, 320444, Note_off_c, 0, 87, 0
2, 320448, Note_on_c, 0, 74, 56
2, 320448, Note_on_c, 0, 86, 60
2, 320636, Note_off_c, 0, 74, 0
2, 320636, Note_off_c, 0, 86, 0
2, 320640, Note_on_c, 0, 72, 62
2, 320640, Note_on_c, 0, 84, 63
2, 320828, Note_off_c, 0, 72, 0
2, 320828, Note_off_c, 0, 84, 0
2, 320832, Note_on_c, 0, 82, 60
2, 320832, Note_on_c, 0, 70, 55
2, 321020, Note_off_c, 0, 82, 0
2, 321020, Note_off_c, 0, 70, 0
2, 321024, Note_on_c, 0, 81, 60
2, 321024, Note_on_c, 0, 69, 49
2, 321212, Note_off_c, 0, 81, 0
2, 321212, Note_off_c, 0, 69, 0
2, 321216, Note_on_c, 0, 79, 65
2, 321216, Note_on_c, 0, 67, 53
2, 321404, Note_off_c, 0, 79, 0
2, 321404, Note_off_c, 0, 67, 0
2, 321408, Note_on_c, 0, 78, 73
2, 321408, Note_on_c, 0, 66, 42
2, 321596, Note_off_c, 0, 78, 0
2, 321596, Note_off_c, 0, 66, 0
2, 321600, Note_on_c, 0, 75, 63
2, 321600, Note_on_c, 0, 63, 54
2, 321788, Note_off_c, 0, 75, 0
2, 321788, Note_off_c, 0, 63, 0
2, 321792, Note_on_c, 0, 74, 62
2, 321792, Note_on_c, 0, 62, 52
2, 321980, Note_off_c, 0, 74, 0
2, 321980, Note_off_c, 0, 62, 0
2, 321984, Note_on_c, 0, 72, 56
2, 321984, Note_on_c, 0, 60, 53
2, 322172, Note_off_c, 0, 72, 0
2, 322172, Note_off_c, 0, 60, 0
2, 322176, Note_on_c, 0, 58, 57
2, 322176, Note_on_c, 0, 70, 58
2, 322364, Note_off_c, 0, 58, 0
2, 322364, Note_off_c, 0, 70, 0
2, 322368, Note_on_c, 0, 69, 59
2, 322368, Note_on_c, 0, 57, 38
2, 322556, Note_off_c, 0, 69, 0
2, 322556, Note_off_c, 0, 57, 0
2, 322560, Note_on_c, 0, 67, 64
2, 322748, Note_off_c, 0, 67, 0
2, 322752, Note_on_c, 0, 66, 46
2, 322940, Note_off_c, 0, 66, 0
2, 322944, Note_on_c, 0, 67, 63
2, 323132, Note_off_c, 0, 67, 0
2, 323136, Note_on_c, 0, 69, 62
2, 323324, Note_off_c, 0, 69, 0
2, 323328, Note_on_c, 0, 70, 60
2, 323516, Note_off_c, 0, 70, 0
2, 323520, Note_on_c, 0, 67, 68
2, 323708, Note_off_c, 0, 67, 0
2, 323712, Note_on_c, 0, 65, 55
2, 323712, Note_on_c, 0, 50, 52
2, 323712, Control_c, 0, 64, 127
2, 324092, Note_off_c, 0, 65, 0
2, 324092, Note_off_c, 0, 50, 0
2, 324096, Note_on_c, 0, 69, 68
2, 324096, Note_on_c, 0, 66, 62
2, 324220, Note_off_c, 0, 69, 0
2, 324284, Note_off_c, 0, 66, 0
2, 324288, Note_on_c, 0, 57, 59
2, 324476, Note_off_c, 0, 57, 0
2, 324480, Note_on_c, 0, 66, 70
2, 324480, Note_on_c, 0, 62, 63
2, 324604, Note_off_c, 0, 66, 0
2, 324668, Note_off_c, 0, 62, 0
2, 324672, Note_on_c, 0, 57, 61
2, 324860, Note_off_c, 0, 57, 0
2, 324864, Note_on_c, 0, 62, 67
2, 325052, Note_off_c, 0, 62, 0
2, 325056, Note_on_c, 0, 57, 58
2, 325244, Note_off_c, 0, 57, 0
2, 325248, Note_on_c, 0, 66, 69
2, 325248, Note_on_c, 0, 69, 54
2, 325372, Note_off_c, 0, 69, 0
2, 325436, Note_off_c, 0, 66, 0
2, 325440, Note_on_c, 0, 57, 49
2, 325628, Note_off_c, 0, 57, 0
2, 325632, Note_on_c, 0, 62, 59
2, 325632, Note_on_c, 0, 66, 54
2, 325756, Note_off_c, 0, 66, 0
2, 325820, Note_off_c, 0, 62, 0
2, 325824, Note_on_c, 0, 57, 47
2, 326012, Note_off_c, 0, 57, 0
2, 326016, Note_on_c, 0, 62, 52
2, 326204, Note_off_c, 0, 62, 0
2, 326208, Note_on_c, 0, 57, 42
2, 326396, Note_off_c, 0, 57, 0
2, 326400, Note_on_c, 0, 66, 61
2, 326400, Note_on_c, 0, 69, 48
2, 326524, Note_off_c, 0, 69, 0
2, 326588, Note_off_c, 0, 66, 0
2, 326592, Note_on_c, 0, 57, 43
2, 326780, Note_off_c, 0, 57, 0
2, 326784, Note_on_c, 0, 62, 54
2, 326784, Note_on_c, 0, 66, 45
2, 326908, Note_off_c, 0, 66, 0
2, 326972, Note_off_c, 0, 62, 0
2, 326976, Note_on_c, 0, 57, 55
2, 326976, Control_c, 0, 64, 0
2, 327164, Note_off_c, 0, 57, 0
2, 327168, Note_on_c, 0, 61, 63
2, 327168, Control_c, 0, 64, 127
2, 327356, Note_off_c, 0, 61, 0
2, 327360, Note_on_c, 0, 57, 40
2, 327548, Note_off_c, 0, 57, 0
2, 327552, Note_on_c, 0, 66, 56
2, 327552, Note_on_c, 0, 67, 55
2, 327740, Note_off_c, 0, 66, 0
2, 327744, Note_on_c, 0, 57, 55
2, 327932, Note_off_c, 0, 67, 0
2, 327932, Note_off_c, 0, 57, 0
2, 327936, Note_on_c, 0, 61, 58
2, 327936, Note_on_c, 0, 64, 55
2, 328124, Note_off_c, 0, 61, 0
2, 328128, Note_on_c, 0, 57, 42
2, 328316, Note_off_c, 0, 64, 0
2, 328316, Note_off_c, 0, 57, 0
2, 328320, Note_on_c, 0, 61, 62
2, 328508, Note_off_c, 0, 61, 0
2, 328512, Note_on_c, 0, 57, 37
2, 328700, Note_off_c, 0, 57, 0
2, 328704, Note_on_c, 0, 66, 57
2, 328704, Note_on_c, 0, 67, 64
2, 328892, Note_off_c, 0, 66, 0
2, 328896, Note_on_c, 0, 57, 52
2, 329084, Note_off_c, 0, 67, 0
2, 329084, Note_off_c, 0, 57, 0
2, 329088, Note_on_c, 0, 61, 63
2, 329088, Note_on_c, 0, 64, 57
2, 329276, Note_off_c, 0, 61, 0
2, 329280, Note_on_c, 0, 57, 44
2, 329468, Note_off_c, 0, 64, 0
2, 329468, Note_off_c, 0, 57, 0
2, 329472, Note_on_c, 0, 61, 68
2, 329660, Note_off_c, 0, 61, 0
2, 329664, Note_on_c, 0, 57, 52
2, 329852, Note_off_c, 0, 57, 0
2, 329856, Note_on_c, 0, 66, 57
2, 329856, Note_on_c, 0, 67, 54
2, 330044, Note_off_c, 0, 66, 0
2, 330048, Note_on_c, 0, 57, 48
2, 330236, Note_off_c, 0, 67, 0
2, 330236, Note_off_c, 0, 57, 0
2, 330240, Note_on_c, 0, 61, 50
2, 330240, Note_on_c, 0, 64, 52
2, 330428, Note_off_c, 0, 61, 0
2, 330432, Note_on_c, 0, 57, 41
2, 330620, Note_off_c, 0, 64, 0
2, 330620, Note_off_c, 0, 57, 0
2, 330624, Note_on_c, 0, 61, 65
2, 330812, Note_off_c, 0, 61, 0
2, 330816, Note_on_c, 0, 57, 48
2, 331004, Note_off_c, 0, 57, 0
2, 331008, Note_on_c, 0, 66, 60
2, 331008, Note_on_c, 0, 67, 61
2, 331196, Note_off_c, 0, 66, 0
2, 331200, Note_on_c, 0, 57, 54
2, 331388, Note_off_c, 0, 67, 0
2, 331388, Note_off_c, 0, 57, 0
2, 331392, Note_on_c, 0, 61, 58
2, 331392, Note_on_c, 0, 64, 53
2, 331580, Note_off_c, 0, 61, 0
2, 331584, Note_on_c, 0, 57, 52
2, 331584, Control_c, 0, 64, 0
2, 331772, Note_off_c, 0, 64, 0
2, 331772, Note_off_c, 0, 57, 0
2, 331776, Note_on_c, 0, 62, 66
2, 331776, Control_c, 0, 64, 127
2, 331964, Note_off_c, 0, 62, 0
2, 331968, Note_on_c, 0, 57, 61
2, 332156, Note_off_c, 0, 57, 0
2, 332160, Note_on_c, 0, 69, 51
2, 332160, Note_on_c, 0, 66, 43
2, 332348, Note_off_c, 0, 69, 0
2, 332352, Note_on_c, 0, 62, 27
2, 332540, Note_off_c, 0, 66, 0
2, 332540, Note_off_c, 0, 62, 0
2, 332544, Note_on_c, 0, 69, 53
2, 332544, Note_on_c, 0, 62, 48
2, 332732, Note_off_c, 0, 69, 0
2, 332736, Note_on_c, 0, 66, 49
2, 332924, Note_off_c, 0, 62, 0
2, 332924, Note_off_c, 0, 66, 0
2, 332928, Note_on_c, 0, 69, 52
2, 332928, Note_on_c, 0, 74, 64
2, 333116, Note_off_c, 0, 69, 0
2, 333116, Note_off_c, 0, 74, 0
2, 333120, Note_on_c, 0, 62, 47
2, 333120, Control_c, 0, 64, 0
2, 333308, Note_off_c, 0, 62, 0
2, 333312, Note_on_c, 0, 69, 55
2, 333312, Note_on_c, 0, 74, 64
2, 333500, Note_off_c, 0, 69, 0
2, 333500, Note_off_c, 0, 74, 0
2, 333504, Note_on_c, 0, 62, 47
2, 333692, Note_off_c, 0, 62, 0
2, 333696, Note_on_c, 0, 69, 55
2, 333696, Note_on_c, 0, 74, 57
2, 333884, Note_off_c, 0, 69, 0
2, 333884, Note_off_c, 0, 74, 0
2, 333888, Note_on_c, 0, 62, 58
2, 334076, Note_off_c, 0, 62, 0
2, 334080, Note_on_c, 0, 69, 50
2, 334080, Note_on_c, 0, 74, 71
2, 334268, Note_off_c, 0, 69, 0
2, 334268, Note_off_c, 0, 74, 0
2, 334272, Note_on_c, 0, 62, 50
2, 334460, Note_off_c, 0, 62, 0
2, 334464, Note_on_c, 0, 69, 59
2, 334464, Note_on_c, 0, 74, 71
2, 334652, Note_off_c, 0, 69, 0
2, 334652, Note_off_c, 0, 74, 0
2, 334656, Note_on_c, 0, 62, 53
2, 334844, Note_off_c, 0, 62, 0
2, 334848, Note_on_c, 0, 69, 58
2, 334848, Note_on_c, 0, 74, 67
2, 335036, Note_off_c, 0, 69, 0
2, 335036, Note_off_c, 0, 74, 0
2, 335040, Note_on_c, 0, 62, 59
2, 335228, Note_off_c, 0, 62, 0
2, 335232, Note_on_c, 0, 69, 64
2, 335232, Note_on_c, 0, 72, 63
2, 335420, Note_off_c, 0, 69, 0
2, 335420, Note_off_c, 0, 72, 0
2, 335424, Note_on_c, 0, 62, 62
2, 335612, Note_off_c, 0, 62, 0
2, 335616, Note_on_c, 0, 72, 62
2, 335616, Note_on_c, 0, 69, 61
2, 335804, Note_off_c, 0, 72, 0
2, 335804, Note_off_c, 0, 69, 0
2, 335808, Note_on_c, 0, 62, 62
2, 335996, Note_off_c, 0, 62, 0
2, 336000, Note_on_c, 0, 69, 66
2, 336000, Note_on_c, 0, 72, 63
2, 336188, Note_off_c, 0, 69, 0
2, 336188, Note_off_c, 0, 72, 0
2, 336192, Note_on_c, 0, 62, 67
2, 336380, Note_off_c, 0, 62, 0
2, 336384, Note_on_c, 0, 72, 67
2, 336384, Note_on_c, 0, 69, 72
2, 336572, Note_off_c, 0, 72, 0
2, 336572, Note_off_c, 0, 69, 0
2, 336576, Note_on_c, 0, 62, 74
2, 336764, Note_off_c, 0, 62, 0
2, 336768, Note_on_c, 0, 72, 76
2, 336768, Note_on_c, 0, 69, 75
2, 336956, Note_off_c, 0, 72, 0
2, 336956, Note_off_c, 0, 69, 0
2, 336960, Note_on_c, 0, 62, 79
2, 337148, Note_off_c, 0, 62, 0
2, 337152, Note_on_c, 0, 72, 81
2, 337152, Note_on_c, 0, 69, 80
2, 337340, Note_off_c, 0, 72, 0
2, 337340, Note_off_c, 0, 69, 0
2, 337344, Note_on_c, 0, 62, 82
2, 337532, Note_off_c, 0, 62, 0
2, 337536, Note_on_c, 0, 79, 88
2, 337536, Note_on_c, 0, 67, 88
2, 337536, Control_c, 0, 64, 127
2, 337660, Note_off_c, 0, 79, 0
2, 337660, Note_off_c, 0, 67, 0
2, 337920, Note_on_c, 0, 71, 92
2, 337920, Note_on_c, 0, 83, 102
2, 337920, Note_on_c, 0, 59, 62
2, 337920, Note_on_c, 0, 55, 74
2, 338044, Note_off_c, 0, 71, 0
2, 338044, Note_off_c, 0, 83, 0
2, 338108, Note_off_c, 0, 59, 0
2, 338108, Note_off_c, 0, 55, 0
2, 338112, Note_on_c, 0, 62, 88
2, 338300, Note_off_c, 0, 62, 0
2, 338304, Note_on_c, 0, 79, 97
2, 338304, Note_on_c, 0, 67, 97
2, 338304, Note_on_c, 0, 59, 80
2, 338304, Note_on_c, 0, 55, 82
2, 338428, Note_off_c, 0, 79, 0
2, 338428, Note_off_c, 0, 67, 0
2, 338492, Note_off_c, 0, 59, 0
2, 338492, Note_off_c, 0, 55, 0
2, 338496, Note_on_c, 0, 62, 86
2, 338684, Note_off_c, 0, 62, 0
2, 338688, Note_on_c, 0, 59, 74
2, 338688, Note_on_c, 0, 55, 81
2, 338688, Note_on_c, 0, 86, 96
2, 338688, Note_on_c, 0, 74, 94
2, 338876, Note_off_c, 0, 59, 0
2, 338876, Note_off_c, 0, 55, 0
2, 338880, Note_on_c, 0, 62, 75
2, 339068, Note_off_c, 0, 62, 0
2, 339072, Note_on_c, 0, 55, 77
2, 339072, Note_on_c, 0, 59, 70
2, 339260, Note_off_c, 0, 55, 0
2, 339260, Note_off_c, 0, 59, 0
2, 339264, Note_on_c, 0, 62, 60
2, 339452, Note_off_c, 0, 86, 0
2, 339452, Note_off_c, 0, 74, 0
2, 339452, Note_off_c, 0, 62, 0
2, 339456, Note_on_c, 0, 59, 75
2, 339456, Note_on_c, 0, 55, 78
2, 339456, Note_on_c, 0, 84, 88
2, 339644, Note_off_c, 0, 59, 0
2, 339644, Note_off_c, 0, 55, 0
2, 339644, Note_off_c, 0, 84, 0
2, 339648, Note_on_c, 0, 62, 79
2, 339648, Note_on_c, 0, 83, 86
2, 339648, Control_c, 0, 64, 0
2, 339836, Note_off_c, 0, 62, 0
2, 339836, Note_off_c, 0, 83, 0
2, 339840, Note_on_c, 0, 81, 82
2, 340028, Note_off_c, 0, 81, 0
2, 340032, Note_on_c, 0, 62, 76
2, 340032, Note_on_c, 0, 79, 82
2, 340220, Note_off_c, 0, 62, 0
2, 340220, Note_off_c, 0, 79, 0
2, 340224, Note_on_c, 0, 78, 82
2, 340412, Note_off_c, 0, 78, 0
2, 340416, Note_on_c, 0, 62, 75
2, 340416, Note_on_c, 0, 79, 86
2, 340604, Note_off_c, 0, 62, 0
2, 340604, Note_off_c, 0, 79, 0
2, 340608, Note_on_c, 0, 59, 78
2, 340608, Note_on_c, 0, 55, 77
2, 340608, Note_on_c, 0, 83, 86
2, 340796, Note_off_c, 0, 59, 0
2, 340796, Note_off_c, 0, 55, 0
2, 340796, Note_off_c, 0, 83, 0
2, 340800, Note_on_c, 0, 62, 74
2, 340800, Note_on_c, 0, 79, 88
2, 340988, Note_off_c, 0, 62, 0
2, 340988, Note_off_c, 0, 79, 0
2, 340992, Note_on_c, 0, 55, 77
2, 340992, Note_on_c, 0, 60, 77
2, 340992, Note_on_c, 0, 78, 77
2, 341180, Note_off_c, 0, 55, 0
2, 341180, Note_off_c, 0, 60, 0
2, 341184, Note_on_c, 0, 64, 72
2, 341372, Note_off_c, 0, 78, 0
2, 341372, Note_off_c, 0, 64, 0
2, 341376, Note_on_c, 0, 76, 88
2, 341568, Note_on_c, 0, 64, 68
2, 341756, Note_off_c, 0, 76, 0
2, 341756, Note_off_c, 0, 64, 0
2, 341760, Note_on_c, 0, 60, 81
2, 341760, Note_on_c, 0, 55, 80
2, 341760, Note_on_c, 0, 74, 87
2, 341948, Note_off_c, 0, 60, 0
2, 341948, Note_off_c, 0, 55, 0
2, 341948, Note_off_c, 0, 74, 0
2, 341952, Note_on_c, 0, 64, 63
2, 341952, Note_on_c, 0, 72, 72
2, 342140, Note_off_c, 0, 64, 0
2, 342140, Note_off_c, 0, 72, 0
2, 342144, Note_on_c, 0, 71, 82
2, 342332, Note_off_c, 0, 71, 0
2, 342336, Note_on_c, 0, 64, 72
2, 342336, Note_on_c, 0, 69, 78
2, 342524, Note_off_c, 0, 64, 0
2, 342524, Note_off_c, 0, 69, 0
2, 342528, Note_on_c, 0, 55, 82
2, 342528, Note_on_c, 0, 60, 78
2, 342528, Note_on_c, 0, 68, 84
2, 342716, Note_off_c, 0, 55, 0
2, 342716, Note_off_c, 0, 60, 0
2, 342716, Note_off_c, 0, 68, 0
2, 342720, Note_on_c, 0, 64, 68
2, 342720, Note_on_c, 0, 69, 82
2, 342908, Note_off_c, 0, 64, 0
2, 342908, Note_off_c, 0, 69, 0
2, 342912, Note_on_c, 0, 55, 80
2, 342912, Note_on_c, 0, 60, 78
2, 342912, Note_on_c, 0, 72, 79
2, 343100, Note_off_c, 0, 55, 0
2, 343100, Note_off_c, 0, 60, 0
2, 343100, Note_off_c, 0, 72, 0
2, 343104, Note_on_c, 0, 64, 66
2, 343104, Note_on_c, 0, 69, 87
2, 343292, Note_off_c, 0, 64, 0
2, 343292, Note_off_c, 0, 69, 0
2, 343296, Note_on_c, 0, 55, 70
2, 343296, Note_on_c, 0, 57, 74
2, 343296, Note_on_c, 0, 60, 70
2, 343296, Note_on_c, 0, 66, 81
2, 343484, Note_off_c, 0, 55, 0
2, 343484, Note_off_c, 0, 57, 0
2, 343484, Note_off_c, 0, 60, 0
2, 343488, Note_on_c, 0, 62, 35
2, 343676, Note_off_c, 0, 62, 0
2, 343680, Note_on_c, 0, 55, 81
2, 343680, Note_on_c, 0, 60, 85
2, 343680, Note_on_c, 0, 57, 78
2, 343868, Note_off_c, 0, 55, 0
2, 343868, Note_off_c, 0, 60, 0
2, 343868, Note_off_c, 0, 57, 0
2, 343872, Note_on_c, 0, 62, 75
2, 343920, Note_on_c, 0, 70, 74
2, 343964, Note_off_c, 0, 70, 0
2, 343968, Note_on_c, 0, 69, 76
2, 344012, Note_off_c, 0, 69, 0
2, 344016, Note_on_c, 0, 68, 73
2, 344060, Note_off_c, 0, 66, 0
2, 344060, Note_off_c, 0, 62, 0
2, 344060, Note_off_c, 0, 68, 0
2, 344064, Note_on_c, 0, 55, 77
2, 344064, Note_on_c, 0, 57, 72
2, 344064, Note_on_c, 0, 60, 75
2, 344064, Note_on_c, 0, 69, 74
2, 344252, Note_off_c, 0, 55, 0
2, 344252, Note_off_c, 0, 57, 0
2, 344252, Note_off_c, 0, 60, 0
2, 344256, Note_on_c, 0, 62, 78
2, 344444, Note_off_c, 0, 69, 0
2, 344444, Note_off_c, 0, 62, 0
2, 344448, Note_on_c, 0, 60, 73
2, 344448, Note_on_c, 0, 57, 68
2, 344448, Note_on_c, 0, 55, 78
2, 344448, Note_on_c, 0, 72, 73
2, 344572, Note_off_c, 0, 72, 0
2, 344636, Note_off_c, 0, 60, 0
2, 344636, Note_off_c, 0, 57, 0
2, 344636, Note_off_c, 0, 55, 0
2, 344640, Note_on_c, 0, 62, 79
2, 344828, Note_off_c, 0, 62, 0
2, 344832, Note_on_c, 0, 60, 74
2, 344832, Note_on_c, 0, 57, 68
2, 344832, Note_on_c, 0, 55, 72
2, 344832, Note_on_c, 0, 69, 78
2, 344956, Note_off_c, 0, 69, 0
2, 345020, Note_off_c, 0, 60, 0
2, 345020, Note_off_c, 0, 57, 0
2, 345020, Note_off_c, 0, 55, 0
2, 345024, Note_on_c, 0, 62, 80
2, 345212, Note_off_c, 0, 62, 0
2, 345216, Note_on_c, 0, 60, 75
2, 345216, Note_on_c, 0, 57, 74
2, 345216, Note_on_c, 0, 55, 67
2, 345216, Note_on_c, 0, 66, 84
2, 345340, Note_off_c, 0, 66, 0
2, 345404, Note_off_c, 0, 60, 0
2, 345404, Note_off_c, 0, 57, 0
2, 345404, Note_off_c, 0, 55, 0
2, 345408, Note_on_c, 0, 62, 68
2, 345596, Note_off_c, 0, 62, 0
2, 345600, Note_on_c, 0, 59, 76
2, 345600, Note_on_c, 0, 55, 83
2, 345600, Note_on_c, 0, 67, 94
2, 345788, Note_off_c, 0, 67, 0
2, 345792, Note_on_c, 0, 62, 90
2, 345980, Note_off_c, 0, 62, 0
2, 345984, Note_on_c, 0, 61, 92
2, 346172, Note_off_c, 0, 61, 0
2, 346176, Note_on_c, 0, 62, 84
2, 346364, Note_off_c, 0, 62, 0
2, 346368, Note_on_c, 0, 66, 89
2, 346556, Note_off_c, 0, 66, 0
2, 346560, Note_on_c, 0, 67, 97
2, 346748, Note_off_c, 0, 59, 0
2, 346748, Note_off_c, 0, 55, 0
2, 346748, Note_off_c, 0, 67, 0
2, 346752, Note_on_c, 0, 54, 85
2, 346752, Note_on_c, 0, 57, 82
2, 346752, Note_on_c, 0, 69, 87
2, 346940, Note_off_c, 0, 69, 0
2, 346944, Note_on_c, 0, 62, 83
2, 347132, Note_off_c, 0, 62, 0
2, 347136, Note_on_c, 0, 61, 88
2, 347324, Note_off_c, 0, 61, 0
2, 347328, Note_on_c, 0, 62, 84
2, 347516, Note_off_c, 0, 62, 0
2, 347520, Note_on_c, 0, 67, 92
2, 347708, Note_off_c, 0, 67, 0
2, 347712, Note_on_c, 0, 69, 80
2, 347900, Note_off_c, 0, 54, 0
2, 347900, Note_off_c, 0, 57, 0
2, 347900, Note_off_c, 0, 69, 0
2, 347904, Note_on_c, 0, 55, 93
2, 347904, Note_on_c, 0, 59, 76
2, 347904, Note_on_c, 0, 71, 82
2, 348092, Note_off_c, 0, 71, 0
2, 348096, Note_on_c, 0, 67, 79
2, 348284, Note_off_c, 0, 67, 0
2, 348288, Note_on_c, 0, 66, 84
2, 348476, Note_off_c, 0, 66, 0
2, 348480, Note_on_c, 0, 67, 86
2, 348668, Note_off_c, 0, 67, 0
2, 348672, Note_on_c, 0, 69, 86
2, 348860, Note_off_c, 0, 69, 0
2, 348864, Note_on_c, 0, 71, 84
2, 349052, Note_off_c, 0, 55, 0
2, 349052, Note_off_c, 0, 59, 0
2, 349052, Note_off_c, 0, 71, 0
2, 349056, Note_on_c, 0, 57, 86
2, 349056, Note_on_c, 0, 60, 80
2, 349056, Note_on_c, 0, 72, 81
2, 349244, Note_off_c, 0, 72, 0
2, 349248, Note_on_c, 0, 67, 88
2, 349436, Note_off_c, 0, 67, 0
2, 349440, Note_on_c, 0, 66, 82
2, 349628, Note_off_c, 0, 66, 0
2, 349632, Note_on_c, 0, 67, 86
2, 349820, Note_off_c, 0, 67, 0
2, 349824, Note_on_c, 0, 71, 82
2, 350012, Note_off_c, 0, 71, 0
2, 350016, Note_on_c, 0, 72, 80
2, 350204, Note_off_c, 0, 57, 0
2, 350204, Note_off_c, 0, 60, 0
2, 350204, Note_off_c, 0, 72, 0
2, 350208, Note_on_c, 0, 74, 70
2, 350588, Note_off_c, 0, 74, 0
2, 350784, Note_on_c, 0, 59, 29
2, 350784, Note_on_c, 0, 62, 43
2, 350972, Note_off_c, 0, 59, 0
2, 350972, Note_off_c, 0, 62, 0
2, 350976, Note_on_c, 0, 67, 65
2, 351164, Note_off_c, 0, 67, 0
2, 351168, Note_on_c, 0, 71, 55
2, 351356, Note_off_c, 0, 71, 0
2, 351360, Note_on_c, 0, 74, 42
2, 351548, Note_off_c, 0, 74, 0
2, 351552, Note_on_c, 0, 67, 56
2, 351740, Note_off_c, 0, 67, 0
2, 351744, Note_on_c, 0, 71, 64
2, 351932, Note_off_c, 0, 71, 0
2, 351936, Note_on_c, 0, 74, 75
2, 352124, Note_off_c, 0, 74, 0
2, 352128, Note_on_c, 0, 79, 66
2, 352316, Note_off_c, 0, 79, 0
2, 352320, Note_on_c, 0, 71, 63
2, 352508, Note_off_c, 0, 71, 0
2, 352512, Note_on_c, 0, 74, 62
2, 352700, Note_off_c, 0, 74, 0
2, 352704, Note_on_c, 0, 79, 65
2, 352892, Note_off_c, 0, 79, 0
2, 352896, Note_on_c, 0, 83, 77
2, 353084, Note_off_c, 0, 83, 0
2, 353088, Note_on_c, 0, 74, 63
2, 353276, Note_off_c, 0, 74, 0
2, 353280, Note_on_c, 0, 79, 70
2, 353468, Note_off_c, 0, 79, 0
2, 353472, Note_on_c, 0, 83, 68
2, 353660, Note_off_c, 0, 83, 0
2, 353664, Note_on_c, 0, 86, 74
2, 353852, Note_off_c, 0, 86, 0
2, 353856, Note_on_c, 0, 84, 74
2, 354044, Note_off_c, 0, 84, 0
2, 354048, Note_on_c, 0, 83, 68
2, 354236, Note_off_c, 0, 83, 0
2, 354240, Note_on_c, 0, 81, 55
2, 354428, Note_off_c, 0, 81, 0
2, 354432, Note_on_c, 0, 79, 68
2, 354620, Note_off_c, 0, 79, 0
2, 354624, Note_on_c, 0, 77, 70
2, 354812, Note_off_c, 0, 77, 0
2, 354816, Note_on_c, 0, 76, 66
2, 355196, Note_off_c, 0, 76, 0
2, 355392, Note_on_c, 0, 64, 59
2, 355392, Note_on_c, 0, 60, 53
2, 355580, Note_off_c, 0, 64, 0
2, 355580, Note_off_c, 0, 60, 0
2, 355584, Note_on_c, 0, 67, 70
2, 355772, Note_off_c, 0, 67, 0
2, 355776, Note_on_c, 0, 72, 62
2, 355964, Note_off_c, 0, 72, 0
2, 355968, Note_on_c, 0, 76, 79
2, 356156, Note_off_c, 0, 76, 0
2, 356160, Note_on_c, 0, 64, 41
2, 356348, Note_off_c, 0, 64, 0
2, 356352, Note_on_c, 0, 67, 65
2, 356540, Note_off_c, 0, 67, 0
2, 356544, Note_on_c, 0, 72, 64
2, 356732, Note_off_c, 0, 72, 0
2, 356736, Note_on_c, 0, 76, 73
2, 356924, Note_off_c, 0, 76, 0
2, 356928, Note_on_c, 0, 67, 65
2, 357116, Note_off_c, 0, 67, 0
2, 357120, Note_on_c, 0, 72, 60
2, 357308, Note_off_c, 0, 72, 0
2, 357312, Note_on_c, 0, 76, 71
2, 357500, Note_off_c, 0, 76, 0
2, 357504, Note_on_c, 0, 79, 69
2, 357692, Note_off_c, 0, 79, 0
2, 357696, Note_on_c, 0, 72, 63
2, 357884, Note_off_c, 0, 72, 0
2, 357888, Note_on_c, 0, 76, 75
2, 358076, Note_off_c, 0, 76, 0
2, 358080, Note_on_c, 0, 79, 70
2, 358268, Note_off_c, 0, 79, 0
2, 358272, Note_on_c, 0, 84, 70
2, 358460, Note_off_c, 0, 84, 0
2, 358464, Note_on_c, 0, 76, 68
2, 358652, Note_off_c, 0, 76, 0
2, 358656, Note_on_c, 0, 79, 65
2, 358844, Note_off_c, 0, 79, 0
2, 358848, Note_on_c, 0, 84, 66
2, 359036, Note_off_c, 0, 84, 0
2, 359040, Note_on_c, 0, 88, 68
2, 359228, Note_off_c, 0, 88, 0
2, 359232, Note_on_c, 0, 86, 74
2, 359420, Note_off_c, 0, 86, 0
2, 359424, Note_on_c, 0, 85, 69
2, 359804, Note_off_c, 0, 85, 0
2, 360000, Note_on_c, 0, 61, 75
2, 360000, Note_on_c, 0, 55, 71
2, 360188, Note_off_c, 0, 61, 0
2, 360188, Note_off_c, 0, 55, 0
2, 360192, Note_on_c, 0, 64, 69
2, 360380, Note_off_c, 0, 64, 0
2, 360384, Note_on_c, 0, 67, 78
2, 360572, Note_off_c, 0, 67, 0
2, 360576, Note_on_c, 0, 73, 79
2, 360764, Note_off_c, 0, 73, 0
2, 360768, Note_on_c, 0, 64, 62
2, 360956, Note_off_c, 0, 64, 0
2, 360960, Note_on_c, 0, 67, 73
2, 361148, Note_off_c, 0, 67, 0
2, 361152, Note_on_c, 0, 73, 75
2, 361340, Note_off_c, 0, 73, 0
2, 361344, Note_on_c, 0, 76, 72
2, 361532, Note_off_c, 0, 76, 0
2, 361536, Note_on_c, 0, 67, 70
2, 361724, Note_off_c, 0, 67, 0
2, 361728, Note_on_c, 0, 73, 71
2, 361916, Note_off_c, 0, 73, 0
2, 361920, Note_on_c, 0, 76, 77
2, 362108, Note_off_c, 0, 76, 0
2, 362112, Note_on_c, 0, 79, 75
2, 362300, Note_off_c, 0, 79, 0
2, 362304, Note_on_c, 0, 73, 62
2, 362492, Note_off_c, 0, 73, 0
2, 362496, Note_on_c, 0, 76, 74
2, 362684, Note_off_c, 0, 76, 0
2, 362688, Note_on_c, 0, 79, 78
2, 362876, Note_off_c, 0, 79, 0
2, 362880, Note_on_c, 0, 85, 78
2, 363068, Note_off_c, 0, 85, 0
2, 363072, Note_on_c, 0, 88, 72
2, 363260, Note_off_c, 0, 88, 0
2, 363264, Note_on_c, 0, 81, 62
2, 363264, Note_on_c, 0, 61, 68
2, 363264, Note_on_c, 0, 64, 68
2, 363452, Note_off_c, 0, 81, 0
2, 363456, Note_on_c, 0, 83, 58
2, 363644, Note_off_c, 0, 61, 0
2, 363644, Note_off_c, 0, 64, 0
2, 363644, Note_off_c, 0, 83, 0
2, 363648, Note_on_c, 0, 81, 63
2, 363648, Note_on_c, 0, 64, 62
2, 363648, Note_on_c, 0, 67, 52
2, 363836, Note_off_c, 0, 81, 0
2, 363840, Note_on_c, 0, 83, 66
2, 364028, Note_off_c, 0, 64, 0
2, 364028, Note_off_c, 0, 67, 0
2, 364028, Note_off_c, 0, 83, 0
2, 364032, Note_on_c, 0, 62, 60
2, 364032, Note_on_c, 0, 66, 64
2, 364032, Note_on_c, 0, 81, 63
2, 364032, Note_on_c, 0, 78, 62
2, 364220, Note_off_c, 0, 66, 0
2, 364224, Note_on_c, 0, 67, 53
2, 364412, Note_off_c, 0, 62, 0
2, 364412, Note_off_c, 0, 67, 0
2, 364416, Note_on_c, 0, 69, 60
2, 364604, Note_off_c, 0, 69, 0
2, 364608, Note_on_c, 0, 71, 63
2, 364796, Note_off_c, 0, 71, 0
2, 364800, Note_on_c, 0, 73, 65
2, 364988, Note_off_c, 0, 73, 0
2, 364992, Note_on_c, 0, 74, 77
2, 365180, Note_off_c, 0, 81, 0
2, 365180, Note_off_c, 0, 78, 0
2, 365180, Note_off_c, 0, 74, 0
2, 365184, Note_on_c, 0, 73, 69
2, 365184, Note_on_c, 0, 81, 69
2, 365184, Note_on_c, 0, 79, 74
2, 365372, Note_off_c, 0, 73, 0
2, 365376, Note_on_c, 0, 71, 54
2, 365564, Note_off_c, 0, 71, 0
2, 365568, Note_on_c, 0, 69, 59
2, 365756, Note_off_c, 0, 69, 0
2, 365760, Note_on_c, 0, 67, 70
2, 365948, Note_off_c, 0, 67, 0
2, 365952, Note_on_c, 0, 66, 64
2, 366140, Note_off_c, 0, 66, 0
2, 366144, Note_on_c, 0, 64, 59
2, 366332, Note_off_c, 0, 81, 0
2, 366332, Note_off_c, 0, 79, 0
2, 366332, Note_off_c, 0, 64, 0
2, 366336, Note_on_c, 0, 62, 66
2, 366336, Note_on_c, 0, 81, 88
2, 366336, Note_on_c, 0, 84, 100
2, 366524, Note_off_c, 0, 62, 0
2, 366528, Note_on_c, 0, 60, 76
2, 366716, Note_off_c, 0, 60, 0
2, 366720, Note_on_c, 0, 59, 83
2, 366908, Note_off_c, 0, 59, 0
2, 366912, Note_on_c, 0, 57, 85
2, 367100, Note_off_c, 0, 57, 0
2, 367484, Note_off_c, 0, 81, 0
2, 367484, Note_off_c, 0, 84, 0
2, 367488, Note_on_c, 0, 83, 59
2, 367488, Note_on_c, 0, 79, 60
2, 367680, Note_on_c, 0, 57, 51
2, 367868, Note_off_c, 0, 83, 0
2, 367868, Note_off_c, 0, 79, 0
2, 367868, Note_off_c, 0, 57, 0
2, 367872, Note_on_c, 0, 59, 52
2, 367872, Note_on_c, 0, 79, 51
2, 367872, Note_on_c, 0, 83, 62
2, 368060, Note_off_c, 0, 59, 0
2, 368064, Note_on_c, 0, 61, 61
2, 368252, Note_off_c, 0, 79, 0
2, 368252, Note_off_c, 0, 83, 0
2, 368252, Note_off_c, 0, 61, 0
2, 368256, Note_on_c, 0, 62, 60
2, 368256, Note_on_c, 0, 83, 56
2, 368256, Note_on_c, 0, 79, 51
2, 368444, Note_off_c, 0, 62, 0
2, 368448, Note_on_c, 0, 64, 61
2, 368636, Note_off_c, 0, 83, 0
2, 368636, Note_off_c, 0, 79, 0
2, 368636, Note_off_c, 0, 64, 0
2, 368640, Note_on_c, 0, 62, 60
2, 368640, Note_on_c, 0, 66, 69
2, 368640, Note_on_c, 0, 81, 46
2, 368640, Note_on_c, 0, 78, 56
2, 368828, Note_off_c, 0, 66, 0
2, 368832, Note_on_c, 0, 67, 60
2, 369020, Note_off_c, 0, 62, 0
2, 369020, Note_off_c, 0, 67, 0
2, 369024, Note_on_c, 0, 69, 55
2, 369212, Note_off_c, 0, 69, 0
2, 369216, Note_on_c, 0, 71, 59
2, 369404, Note_off_c, 0, 71, 0
2, 369408, Note_on_c, 0, 73, 70
2, 369596, Note_off_c, 0, 73, 0
2, 369600, Note_on_c, 0, 74, 69
2, 369788, Note_off_c, 0, 81, 0
2, 369788, Note_off_c, 0, 78, 0
2, 369788, Note_off_c, 0, 74, 0
2, 369792, Note_on_c, 0, 73, 56
2, 369792, Note_on_c, 0, 81, 61
2, 369792, Note_on_c, 0, 79, 66
2, 369980, Note_off_c, 0, 73, 0
2, 369984, Note_on_c, 0, 71, 62
2, 370172, Note_off_c, 0, 71, 0
2, 370176, Note_on_c, 0, 69, 59
2, 370364, Note_off_c, 0, 69, 0
2, 370368, Note_on_c, 0, 67, 72
2, 370556, Note_off_c, 0, 67, 0
2, 370560, Note_on_c, 0, 66, 67
2, 370748, Note_off_c, 0, 66, 0
2, 370752, Note_on_c, 0, 64, 78
2, 370940, Note_off_c, 0, 81, 0
2, 370940, Note_off_c, 0, 79, 0
2, 370940, Note_off_c, 0, 64, 0
2, 370944, Note_on_c, 0, 62, 88
2, 370944, Note_on_c, 0, 84, 96
2, 370944, Note_on_c, 0, 81, 81
2, 371132, Note_off_c, 0, 62, 0
2, 371136, Note_on_c, 0, 60, 80
2, 371324, Note_off_c, 0, 60, 0
2, 371328, Note_on_c, 0, 59, 70
2, 371516, Note_off_c, 0, 59, 0
2, 371520, Note_on_c, 0, 57, 78
2, 371708, Note_off_c, 0, 57, 0
2, 372092, Note_off_c, 0, 84, 0
2, 372092, Note_off_c, 0, 81, 0
2, 372096, Note_on_c, 0, 83, 58
2, 372096, Note_on_c, 0, 79, 54
2, 372288, Note_on_c, 0, 57, 59
2, 372476, Note_off_c, 0, 83, 0
2, 372476, Note_off_c, 0, 79, 0
2, 372476, Note_off_c, 0, 57, 0
2, 372480, Note_on_c, 0, 59, 64
2, 372480, Note_on_c, 0, 83, 62
2, 372480, Note_on_c, 0, 79, 60
2, 372668, Note_off_c, 0, 59, 0
2, 372672, Note_on_c, 0, 61, 51
2, 372860, Note_off_c, 0, 83, 0
2, 372860, Note_off_c, 0, 79, 0
2, 372860, Note_off_c, 0, 61, 0
2, 372864, Note_on_c, 0, 62, 52
2, 372864, Note_on_c, 0, 83, 66
2, 372864, Note_on_c, 0, 79, 59
2, 373052, Note_off_c, 0, 62, 0
2, 373056, Note_on_c, 0, 64, 68
2, 373244, Note_off_c, 0, 83, 0
2, 373244, Note_off_c, 0, 79, 0
2, 373244, Note_off_c, 0, 64, 0
2, 373248, Note_on_c, 0, 78, 61
2, 373248, Note_on_c, 0, 81, 60
2, 373248, Note_on_c, 0, 69, 60
2, 373248, Note_on_c, 0, 66, 47
2, 373248, Note_on_c, 0, 62, 62
2, 373436, Note_off_c, 0, 78, 0
2, 373436, Note_off_c, 0, 81, 0
2, 373440, Note_on_c, 0, 79, 59
2, 373628, Note_off_c, 0, 79, 0
2, 373632, Note_on_c, 0, 81, 59
2, 373820, Note_off_c, 0, 81, 0
2, 373824, Note_on_c, 0, 83, 66
2, 374012, Note_off_c, 0, 83, 0
2, 374016, Note_on_c, 0, 85, 67
2, 374204, Note_off_c, 0, 85, 0
2, 374208, Note_on_c, 0, 86, 64
2, 374396, Note_off_c, 0, 69, 0
2, 374396, Note_off_c, 0, 66, 0
2, 374396, Note_off_c, 0, 86, 0
2, 374400, Note_on_c, 0, 85, 62
2, 374400, Note_on_c, 0, 67, 66
2, 374400, Note_on_c, 0, 64, 62
2, 374588, Note_off_c, 0, 85, 0
2, 374592, Note_on_c, 0, 83, 54
2, 374780, Note_off_c, 0, 83, 0
2, 374784, Note_on_c, 0, 81, 48
2, 374972, Note_off_c, 0, 81, 0
2, 374976, Note_on_c, 0, 79, 54
2, 375164, Note_off_c, 0, 79, 0
2, 375168, Note_on_c, 0, 78, 57
2, 375356, Note_off_c, 0, 78, 0
2, 375360, Note_on_c, 0, 76, 66
2, 375548, Note_off_c, 0, 62, 0
2, 375548, Note_off_c, 0, 67, 0
2, 375548, Note_off_c, 0, 64, 0
2, 375548, Note_off_c, 0, 76, 0
2, 375552, Note_on_c, 0, 79, 55
2, 375552, Note_on_c, 0, 73, 65
2, 375552, Note_on_c, 0, 67, 69
2, 375552, Note_on_c, 0, 62, 68
2, 375740, Note_off_c, 0, 79, 0
2, 375744, Note_on_c, 0, 81, 60
2, 375932, Note_off_c, 0, 81, 0
2, 375936, Note_on_c, 0, 83, 63
2, 376124, Note_off_c, 0, 83, 0
2, 376128, Note_on_c, 0, 85, 69
2, 376316, Note_off_c, 0, 85, 0
2, 376320, Note_on_c, 0, 86, 70
2, 376508, Note_off_c, 0, 86, 0
2, 376512, Note_on_c, 0, 88, 70
2, 376700, Note_off_c, 0, 73, 0
2, 376700, Note_off_c, 0, 67, 0
2, 376700, Note_off_c, 0, 88, 0
2, 376704, Note_on_c, 0, 86, 74
2, 376704, Note_on_c, 0, 66, 58
2, 376704, Note_on_c, 0, 69, 55
2, 376892, Note_off_c, 0, 86, 0
2, 376896, Note_on_c, 0, 84, 80
2, 377084, Note_off_c, 0, 84, 0
2, 377088, Note_on_c, 0, 83, 75
2, 377276, Note_off_c, 0, 83, 0
2, 377280, Note_on_c, 0, 81, 66
2, 377468, Note_off_c, 0, 81, 0
2, 377472, Note_on_c, 0, 79, 59
2, 377660, Note_off_c, 0, 79, 0
2, 377664, Note_on_c, 0, 78, 54
2, 377852, Note_off_c, 0, 62, 0
2, 377852, Note_off_c, 0, 66, 0
2, 377852, Note_off_c, 0, 69, 0
2, 377852, Note_off_c, 0, 78, 0
2, 377856, Note_on_c, 0, 81, 60
2, 377856, Note_on_c, 0, 66, 59
2, 377856, Note_on_c, 0, 62, 53
2, 377856, Note_on_c, 0, 69, 60
2, 377856, Note_on_c, 0, 72, 60
2, 378044, Note_off_c, 0, 81, 0
2, 378048, Note_on_c, 0, 84, 72
2, 378236, Note_off_c, 0, 84, 0
2, 378240, Note_on_c, 0, 90, 65
2, 378428, Note_off_c, 0, 90, 0
2, 378432, Note_on_c, 0, 84, 78
2, 378620, Note_off_c, 0, 84, 0
2, 378624, Note_on_c, 0, 93, 92
2, 378812, Note_off_c, 0, 93, 0
2, 378816, Note_on_c, 0, 90, 83
2, 379004, Note_off_c, 0, 66, 0
2, 379004, Note_off_c, 0, 62, 0
2, 379004, Note_off_c, 0, 69, 0
2, 379004, Note_off_c, 0, 72, 0
2, 379004, Note_off_c, 0, 90, 0
2, 379008, Note_on_c, 0, 93, 86
2, 379008, Note_on_c, 0, 63, 87
2, 379008, Note_on_c, 0, 72, 84
2, 379008, Note_on_c, 0, 69, 84
2, 379008, Note_on_c, 0, 66, 83
2, 379196, Note_off_c, 0, 93, 0
2, 379200, Note_on_c, 0, 90, 84
2, 379388, Note_off_c, 0, 90, 0
2, 379392, Note_on_c, 0, 93, 99
2, 379580, Note_off_c, 0, 93, 0
2, 379584, Note_on_c, 0, 90, 88
2, 379772, Note_off_c, 0, 90, 0
2, 379776, Note_on_c, 0, 93, 97
2, 379964, Note_off_c, 0, 93, 0
2, 379968, Note_on_c, 0, 90, 84
2, 380156, Note_off_c, 0, 63, 0
2, 380156, Note_off_c, 0, 72, 0
2, 380156, Note_off_c, 0, 69, 0
2, 380156, Note_off_c, 0, 66, 0
2, 380156, Note_off_c, 0, 90, 0
2, 380160, Note_on_c, 0, 93, 92
2, 380160, Note_on_c, 0, 72, 82
2, 380160, Note_on_c, 0, 66, 80
2, 380160, Note_on_c, 0, 62, 88
2, 380160, Note_on_c, 0, 69, 82
2, 380348, Note_off_c, 0, 93, 0
2, 380352, Note_on_c, 0, 90, 84
2, 380540, Note_off_c, 0, 90, 0
2, 380544, Note_on_c, 0, 86, 85
2, 380732, Note_off_c, 0, 86, 0
2, 380736, Note_on_c, 0, 88, 88
2, 380924, Note_off_c, 0, 72, 0
2, 380924, Note_off_c, 0, 66, 0
2, 380924, Note_off_c, 0, 62, 0
2, 380924, Note_off_c, 0, 69, 0
2, 380924, Note_off_c, 0, 88, 0
2, 380928, Note_on_c, 0, 90, 85
2, 380928, Note_on_c, 0, 60, 76
2, 380928, Note_on_c, 0, 69, 72
2, 380928, Note_on_c, 0, 66, 55
2, 381116, Note_off_c, 0, 90, 0
2, 381120, Note_on_c, 0, 86, 83
2, 381308, Note_off_c, 0, 60, 0
2, 381308, Note_off_c, 0, 69, 0
2, 381308, Note_off_c, 0, 66, 0
2, 381308, Note_off_c, 0, 86, 0
2, 381312, Note_on_c, 0, 91, 85
2, 381312, Note_on_c, 0, 67, 73
2, 381312, Note_on_c, 0, 62, 68
2, 381312, Note_on_c, 0, 59, 56
2, 381500, Note_off_c, 0, 91, 0
2, 381504, Note_on_c, 0, 86, 79
2, 381692, Note_off_c, 0, 86, 0
2, 381696, Note_on_c, 0, 91, 77
2, 381884, Note_off_c, 0, 91, 0
2, 381888, Note_on_c, 0, 86, 69
2, 382076, Note_off_c, 0, 67, 0
2, 382076, Note_off_c, 0, 62, 0
2, 382076, Note_off_c, 0, 59, 0
2, 382076, Note_off_c, 0, 86, 0
2, 382080, Note_on_c, 0, 83, 63
2, 382268, Note_off_c, 0, 83, 0
2, 382272, Note_on_c, 0, 79, 62
2, 382460, Note_off_c, 0, 79, 0
2, 382464, Note_on_c, 0, 81, 62
2, 382464, Note_on_c, 0, 72, 58
2, 382464, Note_on_c, 0, 62, 39
2, 382464, Note_on_c, 0, 66, 43
2, 382464, Note_on_c, 0, 69, 51
2, 382652, Note_off_c, 0, 81, 0
2, 382656, Note_on_c, 0, 84, 73
2, 382844, Note_off_c, 0, 84, 0
2, 382848, Note_on_c, 0, 90, 74
2, 383036, Note_off_c, 0, 90, 0
2, 383040, Note_on_c, 0, 84, 81
2, 383228, Note_off_c, 0, 84, 0
2, 383232, Note_on_c, 0, 93, 86
2, 383420, Note_off_c, 0, 93, 0
2, 383424, Note_on_c, 0, 90, 85
2, 383612, Note_off_c, 0, 72, 0
2, 383612, Note_off_c, 0, 62, 0
2, 383612, Note_off_c, 0, 66, 0
2, 383612, Note_off_c, 0, 69, 0
2, 383612, Note_off_c, 0, 90, 0
2, 383616, Note_on_c, 0, 93, 89
2, 383616, Note_on_c, 0, 63, 86
2, 383616, Note_on_c, 0, 66, 77
2, 383616, Note_on_c, 0, 72, 80
2, 383616, Note_on_c, 0, 69, 75
2, 383804, Note_off_c, 0, 93, 0
2, 383808, Note_on_c, 0, 90, 93
2, 383996, Note_off_c, 0, 90, 0
2, 384000, Note_on_c, 0, 93, 103
2, 384188, Note_off_c, 0, 93, 0
2, 384192, Note_on_c, 0, 90, 91
2, 384380, Note_off_c, 0, 90, 0
2, 384384, Note_on_c, 0, 93, 99
2, 384572, Note_off_c, 0, 93, 0
2, 384576, Note_on_c, 0, 90, 89
2, 384764, Note_off_c, 0, 63, 0
2, 384764, Note_off_c, 0, 66, 0
2, 384764, Note_off_c, 0, 72, 0
2, 384764, Note_off_c, 0, 69, 0
2, 384764, Note_off_c, 0, 90, 0
2, 384768, Note_on_c, 0, 93, 99
2, 384768, Note_on_c, 0, 72, 89
2, 384768, Note_on_c, 0, 66, 87
2, 384768, Note_on_c, 0, 62, 96
2, 384768, Note_on_c, 0, 69, 85
2, 384956, Note_off_c, 0, 93, 0
2, 384960, Note_on_c, 0, 90, 85
2, 384960, Note_on_c, 0, 92, 44
2, 385148, Note_off_c, 0, 90, 0
2, 385148, Note_off_c, 0, 92, 0
2, 385152, Note_on_c, 0, 86, 89
2, 385340, Note_off_c, 0, 86, 0
2, 385344, Note_on_c, 0, 88, 93
2, 385532, Note_off_c, 0, 72, 0
2, 385532, Note_off_c, 0, 66, 0
2, 385532, Note_off_c, 0, 62, 0
2, 385532, Note_off_c, 0, 69, 0
2, 385532, Note_off_c, 0, 88, 0
2, 385536, Note_on_c, 0, 90, 88
2, 385536, Note_on_c, 0, 69, 66
2, 385536, Note_on_c, 0, 60, 72
2, 385536, Note_on_c, 0, 66, 63
2, 385724, Note_off_c, 0, 90, 0
2, 385728, Note_on_c, 0, 86, 85
2, 385916, Note_off_c, 0, 69, 0
2, 385916, Note_off_c, 0, 60, 0
2, 385916, Note_off_c, 0, 66, 0
2, 385916, Note_off_c, 0, 86, 0
2, 385920, Note_on_c, 0, 91, 87
2, 385920, Note_on_c, 0, 62, 63
2, 385920, Note_on_c, 0, 67, 64
2, 385920, Note_on_c, 0, 59, 55
2, 386108, Note_off_c, 0, 91, 0
2, 386112, Note_on_c, 0, 86, 80
2, 386300, Note_off_c, 0, 86, 0
2, 386304, Note_on_c, 0, 91, 72
2, 386492, Note_off_c, 0, 91, 0
2, 386496, Note_on_c, 0, 86, 61
2, 386684, Note_off_c, 0, 62, 0
2, 386684, Note_off_c, 0, 67, 0
2, 386684, Note_off_c, 0, 59, 0
2, 386684, Note_off_c, 0, 86, 0
2, 386688, Note_on_c, 0, 83, 48
2, 386688, Note_on_c, 0, 67, 62
2, 386688, Note_on_c, 0, 62, 67
2, 386688, Note_on_c, 0, 55, 58
2, 386876, Note_off_c, 0, 83, 0
2, 386880, Note_on_c, 0, 79, 49
2, 387068, Note_off_c, 0, 67, 0
2, 387068, Note_off_c, 0, 62, 0
2, 387068, Note_off_c, 0, 55, 0
2, 387068, Note_off_c, 0, 79, 0
2, 387072, Note_on_c, 0, 88, 63
2, 387072, Note_on_c, 0, 64, 58
2, 387072, Note_on_c, 0, 60, 54
2, 387072, Note_on_c, 0, 67, 58
2, 387260, Note_off_c, 0, 88, 0
2, 387264, Note_on_c, 0, 84, 71
2, 387452, Note_off_c, 0, 64, 0
2, 387452, Note_off_c, 0, 60, 0
2, 387452, Note_off_c, 0, 67, 0
2, 387452, Note_off_c, 0, 84, 0
2, 387456, Note_on_c, 0, 88, 62
2, 387644, Note_off_c, 0, 88, 0
2, 387648, Note_on_c, 0, 84, 62
2, 387836, Note_off_c, 0, 84, 0
2, 387840, Note_on_c, 0, 79, 68
2, 387840, Note_on_c, 0, 64, 51
2, 387840, Note_on_c, 0, 69, 53
2, 387840, Note_on_c, 0, 60, 51
2, 388028, Note_off_c, 0, 79, 0
2, 388032, Note_on_c, 0, 76, 64
2, 388220, Note_off_c, 0, 64, 0
2, 388220, Note_off_c, 0, 69, 0
2, 388220, Note_off_c, 0, 60, 0
2, 388220, Note_off_c, 0, 76, 0
2, 388224, Note_on_c, 0, 71, 58
2, 388224, Note_on_c, 0, 62, 42
2, 388224, Note_on_c, 0, 67, 64
2, 388224, Note_on_c, 0, 74, 55
2, 388604, Note_off_c, 0, 71, 0
2, 388604, Note_off_c, 0, 62, 0
2, 388604, Note_off_c, 0, 67, 0
2, 388988, Note_off_c, 0, 74, 0
2, 388992, Note_on_c, 0, 66, 49
2, 388992, Note_on_c, 0, 72, 49
2, 388992, Note_on_c, 0, 62, 34
2, 388992, Note_on_c, 0, 81, 55
2, 389064, Note_off_c, 0, 81, 0
2, 389064, Note_on_c, 0, 83, 58
2, 389136, Note_off_c, 0, 83, 0
2, 389136, Note_on_c, 0, 81, 55
2, 389204, Note_on_c, 0, 83, 58
2, 389208, Note_off_c, 0, 81, 0
2, 389276, Note_off_c, 0, 83, 0
2, 389280, Note_on_c, 0, 79, 55
2, 389324, Note_off_c, 0, 79, 0
2, 389328, Note_on_c, 0, 81, 56
2, 389372, Note_off_c, 0, 66, 0
2, 389372, Note_off_c, 0, 72, 0
2, 389372, Note_off_c, 0, 62, 0
2, 389372, Note_off_c, 0, 81, 0
2, 389376, Note_on_c, 0, 79, 93
2, 389376, Note_on_c, 0, 59, 70
2, 389376, Note_on_c, 0, 55, 82
2, 389500, Note_off_c, 0, 79, 0
2, 389564, Note_off_c, 0, 59, 0
2, 389564, Note_off_c, 0, 55, 0
2, 389568, Note_on_c, 0, 62, 79
2, 389756, Note_off_c, 0, 62, 0
2, 389760, Note_on_c, 0, 74, 90
2, 389760, Note_on_c, 0, 86, 90
2, 389760, Note_on_c, 0, 55, 79
2, 389760, Note_on_c, 0, 59, 73
2, 389884, Note_off_c, 0, 74, 0
2, 389884, Note_off_c, 0, 86, 0
2, 389948, Note_off_c, 0, 55, 0
2, 389948, Note_off_c, 0, 59, 0
2, 389952, Note_on_c, 0, 62, 82
2, 390140, Note_off_c, 0, 62, 0
2, 390144, Note_on_c, 0, 79, 81
2, 390144, Note_on_c, 0, 67, 86
2, 390268, Note_off_c, 0, 79, 0
2, 390268, Note_off_c, 0, 67, 0
2, 390336, Note_on_c, 0, 62, 79
2, 390524, Note_off_c, 0, 62, 0
2, 390528, Note_on_c, 0, 60, 80
2, 390528, Note_on_c, 0, 55, 81
2, 390528, Note_on_c, 0, 57, 77
2, 390716, Note_off_c, 0, 60, 0
2, 390716, Note_off_c, 0, 55, 0
2, 390716, Note_off_c, 0, 57, 0
2, 390720, Note_on_c, 0, 62, 78
2, 390908, Note_off_c, 0, 62, 0
2, 390912, Note_on_c, 0, 84, 90
2, 390912, Note_on_c, 0, 72, 82
2, 390912, Note_on_c, 0, 60, 78
2, 390912, Note_on_c, 0, 55, 77
2, 390912, Note_on_c, 0, 57, 70
2, 391036, Note_off_c, 0, 84, 0
2, 391036, Note_off_c, 0, 72, 0
2, 391100, Note_off_c, 0, 60, 0
2, 391100, Note_off_c, 0, 55, 0
2, 391100, Note_off_c, 0, 57, 0
2, 391104, Note_on_c, 0, 62, 71
2, 391292, Note_off_c, 0, 62, 0
2, 391296, Note_on_c, 0, 66, 89
2, 391296, Note_on_c, 0, 78, 89
2, 391296, Note_on_c, 0, 60, 74
2, 391296, Note_on_c, 0, 57, 68
2, 391296, Note_on_c, 0, 55, 66
2, 391420, Note_off_c, 0, 66, 0
2, 391420, Note_off_c, 0, 78, 0
2, 391484, Note_off_c, 0, 60, 0
2, 391484, Note_off_c, 0, 57, 0
2, 391484, Note_off_c, 0, 55, 0
2, 391488, Note_on_c, 0, 62, 77
2, 391676, Note_off_c, 0, 62, 0
2, 392064, Note_on_c, 0, 74, 58
2, 392064, Note_on_c, 0, 62, 57
2, 392188, Note_off_c, 0, 74, 0
2, 392188, Note_off_c, 0, 62, 0
2, 392448, Note_on_c, 0, 67, 62
2, 392448, Note_on_c, 0, 55, 55
2, 392572, Note_off_c, 0, 67, 0
2, 392572, Note_off_c, 0, 55, 0
2, 393216, Note_on_c, 0, 72, 60
2, 393216, Note_on_c, 0, 60, 57
2, 393340, Note_off_c, 0, 72, 0
2, 393340, Note_off_c, 0, 60, 0
2, 393600, Note_on_c, 0, 66, 67
2, 393600, Note_on_c, 0, 54, 56
2, 393724, Note_off_c, 0, 66, 0
2, 393724, Note_off_c, 0, 54, 0
2, 393984, Note_on_c, 0, 55, 64
2, 393984, Note_on_c, 0, 59, 65
2, 394172, Note_off_c, 0, 55, 0
2, 394172, Note_off_c, 0, 59, 0
2, 394176, Note_on_c, 0, 62, 68
2, 394364, Note_off_c, 0, 62, 0
2, 394368, Note_on_c, 0, 86, 89
2, 394368, Note_on_c, 0, 74, 90
2, 394492, Note_off_c, 0, 86, 0
2, 394492, Note_off_c, 0, 74, 0
2, 394560, Note_on_c, 0, 62, 74
2, 394748, Note_off_c, 0, 62, 0
2, 394752, Note_on_c, 0, 59, 66
2, 394752, Note_on_c, 0, 55, 70
2, 394752, Note_on_c, 0, 79, 88
2, 394752, Note_on_c, 0, 67, 88
2, 394876, Note_off_c, 0, 79, 0
2, 394876, Note_off_c, 0, 67, 0
2, 394940, Note_off_c, 0, 59, 0
2, 394940, Note_off_c, 0, 55, 0
2, 394944, Note_on_c, 0, 62, 65
2, 395132, Note_off_c, 0, 62, 0
2, 395136, Note_on_c, 0, 57, 68
2, 395136, Note_on_c, 0, 60, 67
2, 395136, Note_on_c, 0, 55, 70
2, 395324, Note_off_c, 0, 57, 0
2, 395324, Note_off_c, 0, 60, 0
2, 395324, Note_off_c, 0, 55, 0
2, 395328, Note_on_c, 0, 62, 64
2, 395516, Note_off_c, 0, 62, 0
2, 395520, Note_on_c, 0, 57, 63
2, 395520, Note_on_c, 0, 60, 72
2, 395520, Note_on_c, 0, 55, 68
2, 395520, Note_on_c, 0, 72, 86
2, 395520, Note_on_c, 0, 84, 90
2, 395644, Note_off_c, 0, 72, 0
2, 395644, Note_off_c, 0, 84, 0
2, 395708, Note_off_c, 0, 57, 0
2, 395708, Note_off_c, 0, 60, 0
2, 395708, Note_off_c, 0, 55, 0
2, 395712, Note_on_c, 0, 62, 68
2, 395900, Note_off_c, 0, 62, 0
2, 395904, Note_on_c, 0, 60, 62
2, 395904, Note_on_c, 0, 55, 66
2, 395904, Note_on_c, 0, 57, 69
2, 395904, Note_on_c, 0, 66, 83
2, 395904, Note_on_c, 0, 78, 85
2, 396028, Note_off_c, 0, 66, 0
2, 396028, Note_off_c, 0, 78, 0
2, 396092, Note_off_c, 0, 60, 0
2, 396092, Note_off_c, 0, 55, 0
2, 396092, Note_off_c, 0, 57, 0
2, 396096, Note_on_c, 0, 62, 68
2, 396284, Note_off_c, 0, 62, 0
2, 396672, Note_on_c, 0, 74, 64
2, 396672, Note_on_c, 0, 62, 45
2, 396796, Note_off_c, 0, 74, 0
2, 396796, Note_off_c, 0, 62, 0
2, 397056, Note_on_c, 0, 55, 55
2, 397056, Note_on_c, 0, 67, 45
2, 397180, Note_off_c, 0, 55, 0
2, 397180, Note_off_c, 0, 67, 0
2, 397824, Note_on_c, 0, 72, 63
2, 397824, Note_on_c, 0, 60, 53
2, 397948, Note_off_c, 0, 72, 0
2, 397948, Note_off_c, 0, 60, 0
2, 398208, Note_on_c, 0, 66, 55
2, 398208, Note_on_c, 0, 54, 46
2, 398332, Note_off_c, 0, 66, 0
2, 398332, Note_off_c, 0, 54, 0
2, 398592, Note_on_c, 0, 71, 83
2, 398592, Note_on_c, 0, 67, 87
2, 398780, Note_off_c, 0, 71, 0
2, 398780, Note_off_c, 0, 67, 0
2, 398784, Note_on_c, 0, 62, 77
2, 398972, Note_off_c, 0, 62, 0
2, 398976, Note_on_c, 0, 71, 87
2, 398976, Note_on_c, 0, 67, 88
2, 399164, Note_off_c, 0, 71, 0
2, 399164, Note_off_c, 0, 67, 0
2, 399168, Note_on_c, 0, 62, 81
2, 399356, Note_off_c, 0, 62, 0
2, 399360, Note_on_c, 0, 71, 88
2, 399360, Note_on_c, 0, 67, 87
2, 399548, Note_off_c, 0, 71, 0
2, 399548, Note_off_c, 0, 67, 0
2, 399552, Note_on_c, 0, 62, 81
2, 399740, Note_off_c, 0, 62, 0
2, 399744, Note_on_c, 0, 67, 87
2, 399744, Note_on_c, 0, 71, 79
2, 399932, Note_off_c, 0, 67, 0
2, 399932, Note_off_c, 0, 71, 0
2, 399936, Note_on_c, 0, 62, 74
2, 400124, Note_off_c, 0, 62, 0
2, 400128, Note_on_c, 0, 71, 74
2, 400128, Note_on_c, 0, 67, 81
2, 400316, Note_off_c, 0, 71, 0
2, 400316, Note_off_c, 0, 67, 0
2, 400320, Note_on_c, 0, 62, 66
2, 400508, Note_off_c, 0, 62, 0
2, 400512, Note_on_c, 0, 71, 74
2, 400512, Note_on_c, 0, 67, 81
2, 400700, Note_off_c, 0, 71, 0
2, 400700, Note_off_c, 0, 67, 0
2, 400704, Note_on_c, 0, 62, 74
2, 400892, Note_off_c, 0, 62, 0
2, 400896, Note_on_c, 0, 71, 81
2, 400896, Note_on_c, 0, 67, 84
2, 401084, Note_off_c, 0, 71, 0
2, 401084, Note_off_c, 0, 67, 0
2, 401088, Note_on_c, 0, 62, 72
2, 401276, Note_off_c, 0, 62, 0
2, 401280, Note_on_c, 0, 71, 79
2, 401280, Note_on_c, 0, 67, 82
2, 401468, Note_off_c, 0, 71, 0
2, 401468, Note_off_c, 0, 67, 0
2, 401472, Note_on_c, 0, 62, 63
2, 401660, Note_off_c, 0, 62, 0
2, 401664, Note_on_c, 0, 67, 85
2, 401664, Note_on_c, 0, 71, 80
2, 401852, Note_off_c, 0, 67, 0
2, 401852, Note_off_c, 0, 71, 0
2, 401856, Note_on_c, 0, 62, 76
2, 402044, Note_off_c, 0, 62, 0
2, 402048, Note_on_c, 0, 67, 87
2, 402048, Note_on_c, 0, 72, 80
2, 402236, Note_off_c, 0, 67, 0
2, 402236, Note_off_c, 0, 72, 0
2, 402240, Note_on_c, 0, 60, 63
2, 402428, Note_off_c, 0, 60, 0
2, 402432, Note_on_c, 0, 72, 77
2, 402432, Note_on_c, 0, 67, 87
2, 402620, Note_off_c, 0, 72, 0
2, 402620, Note_off_c, 0, 67, 0
2, 402624, Note_on_c, 0, 60, 72
2, 402812, Note_off_c, 0, 60, 0
2, 402816, Note_on_c, 0, 72, 74
2, 402816, Note_on_c, 0, 67, 82
2, 403004, Note_off_c, 0, 72, 0
2, 403004, Note_off_c, 0, 67, 0
2, 403008, Note_on_c, 0, 60, 72
2, 403196, Note_off_c, 0, 60, 0
2, 403200, Note_on_c, 0, 69, 78
2, 403324, Note_off_c, 0, 69, 0
2, 403392, Note_on_c, 0, 57, 76
2, 403580, Note_off_c, 0, 57, 0
2, 403584, Note_on_c, 0, 72, 83
2, 403708, Note_off_c, 0, 72, 0
2, 403776, Note_on_c, 0, 57, 79
2, 403964, Note_off_c, 0, 57, 0
2, 403968, Note_on_c, 0, 69, 87
2, 404092, Note_off_c, 0, 69, 0
2, 404160, Note_on_c, 0, 57, 84
2, 404348, Note_off_c, 0, 57, 0
2, 404352, Note_on_c, 0, 76, 105
2, 404544, Note_on_c, 0, 57, 74
2, 404732, Note_off_c, 0, 57, 0
2, 404928, Note_on_c, 0, 57, 70
2, 405116, Note_off_c, 0, 76, 0
2, 405116, Note_off_c, 0, 57, 0
2, 405120, Note_on_c, 0, 74, 79
2, 405308, Note_off_c, 0, 74, 0
2, 405312, Note_on_c, 0, 57, 70
2, 405312, Note_on_c, 0, 72, 73
2, 405500, Note_off_c, 0, 57, 0
2, 405500, Note_off_c, 0, 72, 0
2, 405504, Note_on_c, 0, 50, 71
2, 405504, Note_on_c, 0, 57, 75
2, 405504, Note_on_c, 0, 71, 75
2, 405692, Note_off_c, 0, 50, 0
2, 405692, Note_off_c, 0, 57, 0
2, 405692, Note_off_c, 0, 71, 0
2, 405696, Note_on_c, 0, 60, 68
2, 405696, Note_on_c, 0, 69, 74
2, 405884, Note_off_c, 0, 60, 0
2, 405884, Note_off_c, 0, 69, 0
2, 405888, Note_on_c, 0, 57, 82
2, 405888, Note_on_c, 0, 50, 73
2, 405888, Note_on_c, 0, 72, 80
2, 406076, Note_off_c, 0, 57, 0
2, 406076, Note_off_c, 0, 50, 0
2, 406076, Note_off_c, 0, 72, 0
2, 406080, Note_on_c, 0, 60, 84
2, 406080, Note_on_c, 0, 69, 74
2, 406268, Note_off_c, 0, 60, 0
2, 406268, Note_off_c, 0, 69, 0
2, 406272, Note_on_c, 0, 57, 74
2, 406272, Note_on_c, 0, 50, 72
2, 406272, Note_on_c, 0, 66, 73
2, 406460, Note_off_c, 0, 57, 0
2, 406460, Note_off_c, 0, 50, 0
2, 406460, Note_off_c, 0, 66, 0
2, 406464, Note_on_c, 0, 60, 79
2, 406464, Note_on_c, 0, 69, 72
2, 406652, Note_off_c, 0, 60, 0
2, 406652, Note_off_c, 0, 69, 0
2, 406656, Note_on_c, 0, 59, 70
2, 406656, Note_on_c, 0, 55, 78
2, 406656, Note_on_c, 0, 69, 73
2, 406844, Note_off_c, 0, 59, 0
2, 406844, Note_off_c, 0, 55, 0
2, 406848, Note_on_c, 0, 62, 70
2, 407036, Note_off_c, 0, 69, 0
2, 407036, Note_off_c, 0, 62, 0
2, 407040, Note_on_c, 0, 59, 78
2, 407040, Note_on_c, 0, 55, 81
2, 407040, Note_on_c, 0, 67, 73
2, 407164, Note_off_c, 0, 67, 0
2, 407228, Note_off_c, 0, 59, 0
2, 407228, Note_off_c, 0, 55, 0
2, 407232, Note_on_c, 0, 62, 80
2, 407420, Note_off_c, 0, 62, 0
2, 407424, Note_on_c, 0, 55, 81
2, 407424, Note_on_c, 0, 59, 77
2, 407424, Note_on_c, 0, 67, 78
2, 407548, Note_off_c, 0, 67, 0
2, 407612, Note_off_c, 0, 55, 0
2, 407612, Note_off_c, 0, 59, 0
2, 407616, Note_on_c, 0, 62, 74
2, 407804, Note_off_c, 0, 62, 0
2, 407808, Note_on_c, 0, 71, 82
2, 407808, Note_on_c, 0, 74, 85
2, 407996, Note_off_c, 0, 71, 0
2, 407996, Note_off_c, 0, 74, 0
2, 408000, Note_on_c, 0, 67, 83
2, 408144, Note_on_c, 0, 57, 64
2, 408188, Note_off_c, 0, 67, 0
2, 408188, Note_off_c, 0, 57, 0
2, 408192, Note_on_c, 0, 59, 77
2, 408192, Note_on_c, 0, 74, 89
2, 408192, Note_on_c, 0, 71, 85
2, 408316, Note_off_c, 0, 59, 0
2, 408380, Note_off_c, 0, 74, 0
2, 408380, Note_off_c, 0, 71, 0
2, 408384, Note_on_c, 0, 67, 86
2, 408572, Note_off_c, 0, 67, 0
2, 408576, Note_on_c, 0, 71, 85
2, 408576, Note_on_c, 0, 74, 87
2, 408764, Note_off_c, 0, 71, 0
2, 408764, Note_off_c, 0, 74, 0
2, 408768, Note_on_c, 0, 67, 87
2, 408912, Note_on_c, 0, 61, 70
2, 408956, Note_off_c, 0, 67, 0
2, 408956, Note_off_c, 0, 61, 0
2, 408960, Note_on_c, 0, 62, 85
2, 408960, Note_on_c, 0, 74, 82
2, 408960, Note_on_c, 0, 71, 82
2, 409148, Note_off_c, 0, 74, 0
2, 409148, Note_off_c, 0, 71, 0
2, 409152, Note_on_c, 0, 67, 81
2, 409340, Note_off_c, 0, 67, 0
2, 409344, Note_on_c, 0, 71, 84
2, 409344, Note_on_c, 0, 74, 82
2, 409532, Note_off_c, 0, 71, 0
2, 409532, Note_off_c, 0, 74, 0
2, 409536, Note_on_c, 0, 67, 87
2, 409724, Note_off_c, 0, 62, 0
2, 409724, Note_off_c, 0, 67, 0
2, 409728, Note_on_c, 0, 60, 68
2, 409728, Note_on_c, 0, 71, 83
2, 409728, Note_on_c, 0, 74, 84
2, 409916, Note_off_c, 0, 60, 0
2, 409916, Note_off_c, 0, 71, 0
2, 409916, Note_off_c, 0, 74, 0
2, 409920, Note_on_c, 0, 59, 71
2, 409920, Note_on_c, 0, 67, 86
2, 410108, Note_off_c, 0, 59, 0
2, 410108, Note_off_c, 0, 67, 0
2, 410112, Note_on_c, 0, 57, 74
2, 410112, Note_on_c, 0, 71, 79
2, 410112, Note_on_c, 0, 74, 77
2, 410300, Note_off_c, 0, 57, 0
2, 410300, Note_off_c, 0, 71, 0
2, 410300, Note_off_c, 0, 74, 0
2, 410304, Note_on_c, 0, 67, 79
2, 410492, Note_off_c, 0, 67, 0
2, 410496, Note_on_c, 0, 71, 75
2, 410496, Note_on_c, 0, 74, 75
2, 410684, Note_off_c, 0, 71, 0
2, 410684, Note_off_c, 0, 74, 0
2, 410688, Note_on_c, 0, 67, 82
2, 410876, Note_off_c, 0, 67, 0
2, 410880, Note_on_c, 0, 59, 68
2, 410880, Note_on_c, 0, 71, 74
2, 410880, Note_on_c, 0, 74, 78
2, 411068, Note_off_c, 0, 59, 0
2, 411068, Note_off_c, 0, 71, 0
2, 411068, Note_off_c, 0, 74, 0
2, 411072, Note_on_c, 0, 67, 77
2, 411260, Note_off_c, 0, 67, 0
2, 411264, Note_on_c, 0, 79, 75
2, 411264, Note_on_c, 0, 72, 73
2, 411452, Note_off_c, 0, 79, 0
2, 411452, Note_off_c, 0, 72, 0
2, 411456, Note_on_c, 0, 67, 72
2, 411644, Note_off_c, 0, 67, 0
2, 411648, Note_on_c, 0, 79, 78
2, 411648, Note_on_c, 0, 72, 74
2, 411836, Note_off_c, 0, 79, 0
2, 411836, Note_off_c, 0, 72, 0
2, 411840, Note_on_c, 0, 67, 62
2, 412028, Note_off_c, 0, 67, 0
2, 412032, Note_on_c, 0, 79, 74
2, 412032, Note_on_c, 0, 72, 72
2, 412220, Note_off_c, 0, 79, 0
2, 412220, Note_off_c, 0, 72, 0
2, 412224, Note_on_c, 0, 67, 79
2, 412368, Note_on_c, 0, 80, 78
2, 412412, Note_off_c, 0, 67, 0
2, 412412, Note_off_c, 0, 80, 0
2, 412416, Note_on_c, 0, 81, 93
2, 412540, Note_off_c, 0, 81, 0
2, 412608, Note_on_c, 0, 57, 92
2, 412752, Note_on_c, 0, 83, 74
2, 412796, Note_off_c, 0, 57, 0
2, 412796, Note_off_c, 0, 83, 0
2, 412800, Note_on_c, 0, 84, 102
2, 412924, Note_off_c, 0, 84, 0
2, 412992, Note_on_c, 0, 57, 85
2, 413136, Note_on_c, 0, 80, 73
2, 413180, Note_off_c, 0, 57, 0
2, 413180, Note_off_c, 0, 80, 0
2, 413184, Note_on_c, 0, 81, 94
2, 413308, Note_off_c, 0, 81, 0
2, 413376, Note_on_c, 0, 57, 81
2, 413520, Note_on_c, 0, 87, 70
2, 413564, Note_off_c, 0, 57, 0
2, 413564, Note_off_c, 0, 87, 0
2, 413568, Note_on_c, 0, 88, 100
2, 413760, Note_on_c, 0, 57, 86
2, 413948, Note_off_c, 0, 57, 0
2, 414144, Note_on_c, 0, 57, 80
2, 414332, Note_off_c, 0, 88, 0
2, 414332, Note_off_c, 0, 57, 0
2, 414336, Note_on_c, 0, 86, 76
2, 414524, Note_off_c, 0, 86, 0
2, 414528, Note_on_c, 0, 57, 82
2, 414528, Note_on_c, 0, 84, 89
2, 414716, Note_off_c, 0, 57, 0
2, 414716, Note_off_c, 0, 84, 0
2, 414720, Note_on_c, 0, 50, 82
2, 414720, Note_on_c, 0, 57, 84
2, 414720, Note_on_c, 0, 83, 82
2, 414908, Note_off_c, 0, 50, 0
2, 414908, Note_off_c, 0, 57, 0
2, 414908, Note_off_c, 0, 83, 0
2, 414912, Note_on_c, 0, 60, 85
2, 414912, Note_on_c, 0, 81, 72
2, 415100, Note_off_c, 0, 60, 0
2, 415100, Note_off_c, 0, 81, 0
2, 415104, Note_on_c, 0, 50, 83
2, 415104, Note_on_c, 0, 57, 80
2, 415104, Note_on_c, 0, 84, 86
2, 415292, Note_off_c, 0, 50, 0
2, 415292, Note_off_c, 0, 57, 0
2, 415292, Note_off_c, 0, 84, 0
2, 415296, Note_on_c, 0, 60, 83
2, 415296, Note_on_c, 0, 81, 74
2, 415484, Note_off_c, 0, 60, 0
2, 415484, Note_off_c, 0, 81, 0
2, 415488, Note_on_c, 0, 57, 82
2, 415488, Note_on_c, 0, 50, 82
2, 415488, Note_on_c, 0, 78, 81
2, 415676, Note_off_c, 0, 57, 0
2, 415676, Note_off_c, 0, 50, 0
2, 415676, Note_off_c, 0, 78, 0
2, 415680, Note_on_c, 0, 60, 87
2, 415680, Note_on_c, 0, 81, 70
2, 415868, Note_off_c, 0, 60, 0
2, 415868, Note_off_c, 0, 81, 0
2, 415872, Note_on_c, 0, 79, 61
2, 416060, Note_off_c, 0, 79, 0
2, 416064, Note_on_c, 0, 74, 60
2, 416252, Note_off_c, 0, 74, 0
2, 416256, Note_on_c, 0, 83, 63
2, 416256, Note_on_c, 0, 59, 48
2, 416256, Note_on_c, 0, 62, 45
2, 416444, Note_off_c, 0, 83, 0
2, 416448, Note_on_c, 0, 79, 59
2, 416636, Note_off_c, 0, 59, 0
2, 416636, Note_off_c, 0, 62, 0
2, 416636, Note_off_c, 0, 79, 0
2, 416640, Note_on_c, 0, 74, 63
2, 416828, Note_off_c, 0, 74, 0
2, 416832, Note_on_c, 0, 71, 61
2, 417020, Note_off_c, 0, 71, 0
2, 417024, Note_on_c, 0, 79, 66
2, 417212, Note_off_c, 0, 79, 0
2, 417216, Note_on_c, 0, 74, 57
2, 417404, Note_off_c, 0, 74, 0
2, 417408, Note_on_c, 0, 83, 64
2, 417408, Note_on_c, 0, 62, 48
2, 417408, Note_on_c, 0, 59, 46
2, 417596, Note_off_c, 0, 83, 0
2, 417600, Note_on_c, 0, 79, 59
2, 417788, Note_off_c, 0, 62, 0
2, 417788, Note_off_c, 0, 59, 0
2, 417788, Note_off_c, 0, 79, 0
2, 417792, Note_on_c, 0, 74, 65
2, 417980, Note_off_c, 0, 74, 0
2, 417984, Note_on_c, 0, 71, 54
2, 418172, Note_off_c, 0, 71, 0
2, 418176, Note_on_c, 0, 79, 63
2, 418364, Note_off_c, 0, 79, 0
2, 418368, Note_on_c, 0, 74, 58
2, 418556, Note_off_c, 0, 74, 0
2, 418560, Note_on_c, 0, 83, 70
2, 418560, Note_on_c, 0, 62, 21
2, 418560, Note_on_c, 0, 59, 53
2, 418748, Note_off_c, 0, 83, 0
2, 418752, Note_on_c, 0, 79, 62
2, 418940, Note_off_c, 0, 62, 0
2, 418940, Note_off_c, 0, 59, 0
2, 418940, Note_off_c, 0, 79, 0
2, 418944, Note_on_c, 0, 74, 57
2, 419132, Note_off_c, 0, 74, 0
2, 419136, Note_on_c, 0, 71, 55
2, 419324, Note_off_c, 0, 71, 0
2, 419328, Note_on_c, 0, 78, 58
2, 419516, Note_off_c, 0, 78, 0
2, 419520, Note_on_c, 0, 74, 64
2, 419708, Note_off_c, 0, 74, 0
2, 419712, Note_on_c, 0, 81, 62
2, 419712, Note_on_c, 0, 60, 38
2, 419712, Note_on_c, 0, 57, 49
2, 419900, Note_off_c, 0, 81, 0
2, 419904, Note_on_c, 0, 78, 59
2, 420092, Note_off_c, 0, 60, 0
2, 420092, Note_off_c, 0, 57, 0
2, 420092, Note_off_c, 0, 78, 0
2, 420096, Note_on_c, 0, 74, 66
2, 420096, Note_on_c, 0, 57, 52
2, 420096, Note_on_c, 0, 54, 39
2, 420284, Note_off_c, 0, 74, 0
2, 420288, Note_on_c, 0, 72, 61
2, 420476, Note_off_c, 0, 57, 0
2, 420476, Note_off_c, 0, 54, 0
2, 420476, Note_off_c, 0, 72, 0
2, 420480, Note_on_c, 0, 74, 70
2, 420668, Note_off_c, 0, 74, 0
2, 420672, Note_on_c, 0, 71, 58
2, 420860, Note_off_c, 0, 71, 0
2, 420864, Note_on_c, 0, 79, 65
2, 420864, Note_on_c, 0, 59, 55
2, 420864, Note_on_c, 0, 62, 25
2, 421052, Note_off_c, 0, 79, 0
2, 421056, Note_on_c, 0, 74, 58
2, 421244, Note_off_c, 0, 59, 0
2, 421244, Note_off_c, 0, 62, 0
2, 421244, Note_off_c, 0, 74, 0
2, 421248, Note_on_c, 0, 71, 53
2, 421248, Note_on_c, 0, 59, 42
2, 421248, Note_on_c, 0, 55, 43
2, 421436, Note_off_c, 0, 71, 0
2, 421440, Note_on_c, 0, 67, 55
2, 421628, Note_off_c, 0, 59, 0
2, 421628, Note_off_c, 0, 55, 0
2, 421628, Note_off_c, 0, 67, 0
2, 421632, Note_on_c, 0, 74, 66
2, 421820, Note_off_c, 0, 74, 0
2, 421824, Note_on_c, 0, 71, 42
2, 422012, Note_off_c, 0, 71, 0
2, 422016, Note_on_c, 0, 79, 59
2, 422016, Note_on_c, 0, 62, 48
2, 422016, Note_on_c, 0, 59, 42
2, 422204, Note_off_c, 0, 79, 0
2, 422208, Note_on_c, 0, 74, 63
2, 422396, Note_off_c, 0, 62, 0
2, 422396, Note_off_c, 0, 59, 0
2, 422396, Note_off_c, 0, 74, 0
2, 422400, Note_on_c, 0, 71, 44
2, 422588, Note_off_c, 0, 71, 0
2, 422592, Note_on_c, 0, 67, 61
2, 422780, Note_off_c, 0, 67, 0
2, 422784, Note_on_c, 0, 74, 62
2, 422972, Note_off_c, 0, 74, 0
2, 422976, Note_on_c, 0, 71, 48
2, 423164, Note_off_c, 0, 71, 0
2, 423168, Note_on_c, 0, 79, 60
2, 423168, Note_on_c, 0, 62, 50
2, 423168, Note_on_c, 0, 59, 51
2, 423356, Note_off_c, 0, 79, 0
2, 423360, Note_on_c, 0, 74, 59
2, 423548, Note_off_c, 0, 62, 0
2, 423548, Note_off_c, 0, 59, 0
2, 423548, Note_off_c, 0, 74, 0
2, 423552, Note_on_c, 0, 71, 48
2, 423740, Note_off_c, 0, 71, 0
2, 423744, Note_on_c, 0, 67, 51
2, 423932, Note_off_c, 0, 67, 0
2, 423936, Note_on_c, 0, 72, 56
2, 424124, Note_off_c, 0, 72, 0
2, 424128, Note_on_c, 0, 69, 61
2, 424316, Note_off_c, 0, 69, 0
2, 424320, Note_on_c, 0, 74, 60
2, 424320, Note_on_c, 0, 60, 52
2, 424320, Note_on_c, 0, 57, 45
2, 424508, Note_off_c, 0, 74, 0
2, 424512, Note_on_c, 0, 72, 48
2, 424700, Note_off_c, 0, 60, 0
2, 424700, Note_off_c, 0, 57, 0
2, 424700, Note_off_c, 0, 72, 0
2, 424704, Note_on_c, 0, 69, 47
2, 424704, Note_on_c, 0, 57, 52
2, 424704, Note_on_c, 0, 50, 46
2, 424892, Note_off_c, 0, 69, 0
2, 424896, Note_on_c, 0, 66, 51
2, 425084, Note_off_c, 0, 57, 0
2, 425084, Note_off_c, 0, 50, 0
2, 425084, Note_off_c, 0, 66, 0
2, 425088, Note_on_c, 0, 67, 69
2, 425468, Note_off_c, 0, 67, 0
2, 426048, Note_on_c, 0, 62, 54
2, 426048, Note_on_c, 0, 50, 32
2, 426236, Note_off_c, 0, 62, 0
2, 426236, Note_off_c, 0, 50, 0
2, 426240, Note_on_c, 0, 67, 52
2, 426428, Note_off_c, 0, 67, 0
2, 426432, Note_on_c, 0, 71, 39
2, 426620, Note_off_c, 0, 71, 0
2, 426624, Note_on_c, 0, 74, 44
2, 426812, Note_off_c, 0, 74, 0
2, 426816, Note_on_c, 0, 79, 48
2, 427004, Note_off_c, 0, 79, 0
2, 427008, Note_on_c, 0, 83, 62
2, 427196, Note_off_c, 0, 83, 0
2, 427200, Note_on_c, 0, 86, 60
2, 427388, Note_off_c, 0, 86, 0
2, 427392, Note_on_c, 0, 91, 77
2, 427772, Note_off_c, 0, 91, 0
2, 433152, Key_signature, -2, "minor"
2, 433152, Note_on_c, 0, 67, 68
2, 433152, Note_on_c, 0, 58, 33
2, 433280, Control_c, 0, 64, 40
2, 433290, Control_c, 0, 64, 88
2, 433298, Control_c, 0, 64, 127
2, 433724, Note_off_c, 0, 67, 0
2, 433724, Note_off_c, 0, 58, 0
2, 433728, Note_on_c, 0, 70, 50
2, 433728, Note_on_c, 0, 67, 57
2, 433734, Control_c, 0, 64, 24
2, 433746, Control_c, 0, 64, 0
2, 433822, Control_c, 0, 64, 56
2, 433832, Control_c, 0, 64, 127
2, 434108, Note_off_c, 0, 70, 0
2, 434108, Note_off_c, 0, 67, 0
2, 434112, Note_on_c, 0, 72, 59
2, 434112, Note_on_c, 0, 69, 46
2, 434298, Control_c, 0, 64, 56
2, 434300, Note_off_c, 0, 72, 0
2, 434300, Note_off_c, 0, 69, 0
2, 434304, Note_on_c, 0, 70, 61
2, 434304, Note_on_c, 0, 74, 74
2, 434306, Control_c, 0, 64, 0
2, 434384, Control_c, 0, 64, 40
2, 434394, Control_c, 0, 64, 104
2, 434404, Control_c, 0, 64, 127
2, 434684, Note_off_c, 0, 70, 0
2, 434684, Note_off_c, 0, 74, 0
2, 434688, Note_on_c, 0, 74, 84
2, 434688, Note_on_c, 0, 70, 73
2, 434858, Control_c, 0, 64, 72
2, 434868, Control_c, 0, 64, 127
2, 434876, Note_off_c, 0, 74, 0
2, 434876, Note_off_c, 0, 70, 0
2, 434880, Note_on_c, 0, 70, 84
2, 434880, Note_on_c, 0, 74, 92
2, 434898, Control_c, 0, 64, 24
2, 434908, Control_c, 0, 64, 0
2, 434994, Control_c, 0, 64, 72
2, 435004, Control_c, 0, 64, 127
2, 435260, Note_off_c, 0, 70, 0
2, 435260, Note_off_c, 0, 74, 0
2, 435264, Note_on_c, 0, 70, 69
2, 435264, Note_on_c, 0, 67, 71
2, 435436, Control_c, 0, 64, 72
2, 435450, Control_c, 0, 64, 0
2, 435452, Note_off_c, 0, 70, 0
2, 435452, Note_off_c, 0, 67, 0
2, 435456, Note_on_c, 0, 58, 62
2, 435456, Note_on_c, 0, 67, 82
2, 435536, Control_c, 0, 64, 56
2, 435546, Control_c, 0, 64, 104
2, 435556, Control_c, 0, 64, 127
2, 435836, Note_off_c, 0, 58, 0
2, 435836, Note_off_c, 0, 67, 0
2, 435840, Note_on_c, 0, 67, 58
2, 435840, Note_on_c, 0, 70, 53
2, 436020, Control_c, 0, 64, 56
2, 436028, Note_off_c, 0, 67, 0
2, 436028, Note_off_c, 0, 70, 0
2, 436030, Control_c, 0, 64, 0
2, 436032, Note_on_c, 0, 69, 68
2, 436032, Note_on_c, 0, 66, 53
2, 436128, Control_c, 0, 64, 88
2, 436136, Control_c, 0, 64, 127
2, 436572, Control_c, 0, 64, 104
2, 436582, Control_c, 0, 64, 0
2, 436604, Note_off_c, 0, 69, 0
2, 436604, Note_off_c, 0, 66, 0
2, 436608, Note_on_c, 0, 67, 61
2, 436608, Note_on_c, 0, 58, 35
2, 436670, Control_c, 0, 64, 24
2, 436680, Control_c, 0, 64, 72
2, 436690, Control_c, 0, 64, 127
2, 437174, Control_c, 0, 64, 24
2, 437180, Note_off_c, 0, 67, 0
2, 437180, Note_off_c, 0, 58, 0
2, 437182, Control_c, 0, 64, 0
2, 437184, Note_on_c, 0, 70, 59
2, 437184, Note_on_c, 0, 67, 66
2, 437270, Control_c, 0, 64, 56
2, 437280, Control_c, 0, 64, 127
2, 437564, Note_off_c, 0, 70, 0
2, 437564, Note_off_c, 0, 67, 0
2, 437568, Note_on_c, 0, 69, 59
2, 437568, Note_on_c, 0, 72, 70
2, 437746, Control_c, 0, 64, 40
2, 437754, Control_c, 0, 64, 0
2, 437756, Note_off_c, 0, 69, 0
2, 437756, Note_off_c, 0, 72, 0
2, 437760, Note_on_c, 0, 74, 77
2, 437760, Note_on_c, 0, 70, 65
2, 437852, Control_c, 0, 64, 72
2, 437862, Control_c, 0, 64, 127
2, 438140, Note_off_c, 0, 74, 0
2, 438140, Note_off_c, 0, 70, 0
2, 438144, Note_on_c, 0, 74, 83
2, 438144, Note_on_c, 0, 70, 73
2, 438332, Note_off_c, 0, 74, 0
2, 438332, Note_off_c, 0, 70, 0
2, 438336, Note_on_c, 0, 74, 90
2, 438336, Note_on_c, 0, 70, 82
2, 438336, Control_c, 0, 64, 24
2, 438346, Control_c, 0, 64, 0
2, 438432, Control_c, 0, 64, 56
2, 438442, Control_c, 0, 64, 127
2, 438716, Note_off_c, 0, 74, 0
2, 438716, Note_off_c, 0, 70, 0
2, 438720, Note_on_c, 0, 70, 77
2, 438720, Note_on_c, 0, 62, 74
2, 438906, Control_c, 0, 64, 72
2, 438908, Note_off_c, 0, 70, 0
2, 438908, Note_off_c, 0, 62, 0
2, 438912, Note_on_c, 0, 72, 76
2, 438912, Note_on_c, 0, 63, 60
2, 438916, Control_c, 0, 64, 0
2, 439014, Control_c, 0, 64, 72
2, 439024, Control_c, 0, 64, 127
2, 439100, Note_off_c, 0, 72, 0
2, 439100, Note_off_c, 0, 63, 0
2, 439104, Note_on_c, 0, 75, 69
2, 439104, Note_on_c, 0, 67, 64
2, 439292, Note_off_c, 0, 75, 0
2, 439292, Note_off_c, 0, 67, 0
2, 439296, Note_on_c, 0, 69, 56
2, 439296, Note_on_c, 0, 60, 55
2, 439468, Control_c, 0, 64, 104
2, 439478, Control_c, 0, 64, 0
2, 439484, Note_off_c, 0, 69, 0
2, 439484, Note_off_c, 0, 60, 0
2, 439488, Note_on_c, 0, 70, 60
2, 439488, Note_on_c, 0, 62, 57
2, 439576, Control_c, 0, 64, 24
2, 439586, Control_c, 0, 64, 72
2, 439596, Control_c, 0, 64, 127
2, 440050, Control_c, 0, 64, 24
2, 440058, Control_c, 0, 64, 0
2, 440060, Note_off_c, 0, 70, 0
2, 440060, Note_off_c, 0, 62, 0
2, 440064, Note_on_c, 0, 70, 46
2, 440064, Note_on_c, 0, 74, 56
2, 440138, Control_c, 0, 64, 40
2, 440148, Control_c, 0, 64, 104
2, 440156, Control_c, 0, 64, 127
2, 440444, Note_off_c, 0, 70, 0
2, 440444, Note_off_c, 0, 74, 0
2, 440448, Note_on_c, 0, 70, 63
2, 440448, Note_on_c, 0, 62, 58
2, 440636, Note_off_c, 0, 70, 0
2, 440636, Note_off_c, 0, 62, 0
2, 440640, Note_on_c, 0, 72, 63
2, 440640, Note_on_c, 0, 69, 55
2, 440650, Control_c, 0, 64, 24
2, 440662, Control_c, 0, 64, 0
2, 440758, Control_c, 0, 64, 56
2, 440766, Control_c, 0, 64, 127
2, 441020, Note_off_c, 0, 72, 0
2, 441020, Note_off_c, 0, 69, 0
2, 441024, Note_on_c, 0, 74, 79
2, 441024, Note_on_c, 0, 71, 64
2, 441194, Control_c, 0, 64, 24
2, 441202, Control_c, 0, 64, 0
2, 441212, Note_off_c, 0, 74, 0
2, 441212, Note_off_c, 0, 71, 0
2, 441216, Note_on_c, 0, 72, 70
2, 441216, Note_on_c, 0, 75, 74
2, 441300, Control_c, 0, 64, 72
2, 441310, Control_c, 0, 64, 127
2, 441596, Note_off_c, 0, 72, 0
2, 441596, Note_off_c, 0, 75, 0
2, 441600, Note_on_c, 0, 72, 70
2, 441600, Note_on_c, 0, 75, 82
2, 441764, Control_c, 0, 64, 104
2, 441774, Control_c, 0, 64, 0
2, 441788, Note_off_c, 0, 72, 0
2, 441788, Note_off_c, 0, 75, 0
2, 441792, Note_on_c, 0, 75, 85
2, 441792, Note_on_c, 0, 72, 77
2, 441882, Control_c, 0, 64, 56
2, 441890, Control_c, 0, 64, 127
2, 442172, Note_off_c, 0, 75, 0
2, 442172, Note_off_c, 0, 72, 0
2, 442176, Note_on_c, 0, 72, 70
2, 442176, Note_on_c, 0, 69, 62
2, 442364, Note_off_c, 0, 72, 0
2, 442364, Note_off_c, 0, 69, 0
2, 442366, Control_c, 0, 64, 0
2, 442368, Note_on_c, 0, 66, 55
2, 442368, Note_on_c, 0, 69, 68
2, 442462, Control_c, 0, 64, 24
2, 442472, Control_c, 0, 64, 88
2, 442482, Control_c, 0, 64, 127
2, 442556, Note_off_c, 0, 66, 0
2, 442556, Note_off_c, 0, 69, 0
2, 442560, Note_on_c, 0, 72, 65
2, 442560, Note_on_c, 0, 69, 61
2, 442748, Note_off_c, 0, 72, 0
2, 442748, Note_off_c, 0, 69, 0
2, 442752, Note_on_c, 0, 69, 59
2, 442752, Note_on_c, 0, 66, 54
2, 442940, Note_off_c, 0, 69, 0
2, 442940, Note_off_c, 0, 66, 0
2, 442944, Note_on_c, 0, 70, 44
2, 442944, Note_on_c, 0, 67, 44
2, 442944, Control_c, 0, 64, 24
2, 442956, Control_c, 0, 64, 0
2, 443052, Control_c, 0, 64, 72
2, 443062, Control_c, 0, 64, 127
2, 443132, Note_off_c, 0, 70, 0
2, 443132, Note_off_c, 0, 67, 0
2, 443136, Note_on_c, 0, 67, 55
2, 443136, Note_on_c, 0, 70, 51
2, 443324, Note_off_c, 0, 67, 0
2, 443324, Note_off_c, 0, 70, 0
2, 443328, Note_on_c, 0, 72, 54
2, 443328, Note_on_c, 0, 69, 44
2, 443498, Control_c, 0, 64, 56
2, 443508, Control_c, 0, 64, 0
2, 443516, Note_off_c, 0, 72, 0
2, 443516, Note_off_c, 0, 69, 0
2, 443520, Note_on_c, 0, 74, 60
2, 443520, Note_on_c, 0, 70, 38
2, 443596, Control_c, 0, 64, 24
2, 443606, Control_c, 0, 64, 88
2, 443614, Control_c, 0, 64, 127
2, 443900, Note_off_c, 0, 74, 0
2, 443900, Note_off_c, 0, 70, 0
2, 443904, Note_on_c, 0, 70, 45
2, 443904, Note_on_c, 0, 62, 51
2, 444070, Control_c, 0, 64, 40
2, 444080, Control_c, 0, 64, 0
2, 444092, Note_off_c, 0, 70, 0
2, 444092, Note_off_c, 0, 62, 0
2, 444096, Note_on_c, 0, 72, 62
2, 444096, Note_on_c, 0, 69, 52
2, 444176, Control_c, 0, 64, 40
2, 444186, Control_c, 0, 64, 104
2, 444196, Control_c, 0, 64, 127
2, 444476, Note_off_c, 0, 72, 0
2, 444476, Note_off_c, 0, 69, 0
2, 444480, Note_on_c, 0, 71, 65
2, 444480, Note_on_c, 0, 74, 80
2, 444632, Control_c, 0, 64, 88
2, 444640, Control_c, 0, 64, 0
2, 444668, Note_off_c, 0, 71, 0
2, 444668, Note_off_c, 0, 74, 0
2, 444672, Note_on_c, 0, 75, 74
2, 444672, Note_on_c, 0, 72, 58
2, 444748, Control_c, 0, 64, 24
2, 444756, Control_c, 0, 64, 88
2, 444768, Control_c, 0, 64, 127
2, 445052, Note_off_c, 0, 75, 0
2, 445052, Note_off_c, 0, 72, 0
2, 445056, Note_on_c, 0, 75, 83
2, 445056, Note_on_c, 0, 72, 74
2, 445232, Control_c, 0, 64, 88
2, 445242, Control_c, 0, 64, 0
2, 445244, Note_off_c, 0, 75, 0
2, 445244, Note_off_c, 0, 72, 0
2, 445248, Note_on_c, 0, 75, 65
2, 445248, Note_on_c, 0, 72, 76
2, 445332, Control_c, 0, 64, 56
2, 445342, Control_c, 0, 64, 104
2, 445352, Control_c, 0, 64, 127
2, 445628, Note_off_c, 0, 75, 0
2, 445628, Note_off_c, 0, 72, 0
2, 445632, Note_on_c, 0, 72, 42
2, 445632, Note_on_c, 0, 69, 45
2, 445820, Note_off_c, 0, 72, 0
2, 445820, Note_off_c, 0, 69, 0
2, 445824, Note_on_c, 0, 69, 53
2, 445824, Note_on_c, 0, 66, 55
2, 445824, Control_c, 0, 64, 40
2, 445836, Control_c, 0, 64, 0
2, 445942, Control_c, 0, 64, 56
2, 445952, Control_c, 0, 64, 104
2, 445962, Control_c, 0, 64, 127
2, 446012, Note_off_c, 0, 69, 0
2, 446012, Note_off_c, 0, 66, 0
2, 446016, Note_on_c, 0, 69, 60
2, 446016, Note_on_c, 0, 72, 47
2, 446204, Note_off_c, 0, 69, 0
2, 446204, Note_off_c, 0, 72, 0
2, 446208, Note_on_c, 0, 66, 46
2, 446208, Note_on_c, 0, 69, 40
2, 446358, Control_c, 0, 64, 104
2, 446368, Control_c, 0, 64, 40
2, 446378, Control_c, 0, 64, 0
2, 446396, Note_off_c, 0, 66, 0
2, 446396, Note_off_c, 0, 69, 0
2, 446400, Note_on_c, 0, 58, 40
2, 446400, Note_on_c, 0, 67, 44
2, 446426, Control_c, 0, 64, 40
2, 446436, Control_c, 0, 64, 104
2, 446446, Control_c, 0, 64, 127
2, 446630, Control_c, 0, 64, 104
2, 446638, Control_c, 0, 64, 72
2, 446650, Control_c, 0, 64, 56
2, 446658, Control_c, 0, 64, 72
2, 446668, Control_c, 0, 64, 88
2, 446678, Control_c, 0, 64, 127
2, 446774, Control_c, 0, 64, 88
2, 446782, Control_c, 0, 64, 56
2, 446794, Control_c, 0, 64, 24
2, 446804, Control_c, 0, 64, 0
2, 446862, Control_c, 0, 64, 24
2, 446872, Control_c, 0, 64, 56
2, 446882, Control_c, 0, 64, 104
2, 446892, Control_c, 0, 64, 127
2, 446966, Control_c, 0, 64, 56
2, 446972, Note_off_c, 0, 58, 0
2, 446972, Note_off_c, 0, 67, 0
2, 446986, Control_c, 0, 64, 88
2, 446996, Control_c, 0, 64, 40
2, 447006, Control_c, 0, 64, 0
2, 447112, Control_c, 0, 64, 56
2, 447122, Control_c, 0, 64, 104
2, 447132, Control_c, 0, 64, 127
2, 447208, Control_c, 0, 64, 104
2, 447218, Control_c, 0, 64, 56
2, 447228, Control_c, 0, 64, 0
2, 447552, Note_on_c, 0, 55, 42
2, 447552, Note_on_c, 0, 58, 44
2, 448124, Note_off_c, 0, 55, 0
2, 448124, Note_off_c, 0, 58, 0
2, 448128, Note_on_c, 0, 53, 43
2, 448128, Note_on_c, 0, 62, 55
2, 448128, Note_on_c, 0, 58, 46
2, 448128, Note_on_c, 0, 46, 42
2, 448128, Note_on_c, 0, 56, 23
2, 448690, Control_c, 0, 64, 24
2, 448698, Control_c, 0, 64, 72
2, 448700, Note_off_c, 0, 53, 0
2, 448700, Note_off_c, 0, 62, 0
2, 448700, Note_off_c, 0, 58, 0
2, 448700, Note_off_c, 0, 46, 0
2, 448700, Note_off_c, 0, 56, 0
2, 448704, Key_signature, -3, "major"
2, 448704, Note_on_c, 0, 58, 43
2, 448704, Note_on_c, 0, 63, 49
2, 448704, Note_on_c, 0, 55, 43
2, 448708, Control_c, 0, 64, 127
2, 448892, Note_off_c, 0, 58, 0
2, 448892, Note_off_c, 0, 63, 0
2, 448892, Note_off_c, 0, 55, 0
2, 448896, Note_on_c, 0, 58, 42
2, 448988, Note_off_c, 0, 58, 0
2, 449242, Control_c, 0, 64, 104
2, 449252, Control_c, 0, 64, 24
2, 449262, Control_c, 0, 64, 0
2, 449348, Control_c, 0, 64, 72
2, 449358, Control_c, 0, 64, 127
2, 449472, Note_on_c, 0, 58, 33
2, 449472, Note_on_c, 0, 67, 62
2, 449564, Note_off_c, 0, 58, 0
2, 449660, Note_off_c, 0, 67, 0
2, 449664, Note_on_c, 0, 67, 56
2, 449852, Note_off_c, 0, 67, 0
2, 449856, Note_on_c, 0, 67, 56
2, 449872, Control_c, 0, 64, 88
2, 449882, Control_c, 0, 64, 0
2, 449940, Control_c, 0, 64, 24
2, 449950, Control_c, 0, 64, 72
2, 449960, Control_c, 0, 64, 127
2, 450044, Note_off_c, 0, 67, 0
2, 450048, Note_on_c, 0, 58, 38
2, 450048, Note_on_c, 0, 70, 50
2, 450140, Note_off_c, 0, 58, 0
2, 450236, Note_off_c, 0, 70, 0
2, 450240, Note_on_c, 0, 70, 60
2, 450406, Control_c, 0, 64, 104
2, 450408, Note_on_c, 0, 70, 39
2, 450414, Control_c, 0, 64, 0
2, 450428, Note_off_c, 0, 70, 0
2, 450428, Note_off_c, 0, 70, 0
2, 450432, Note_on_c, 0, 75, 46
2, 450492, Control_c, 0, 64, 56
2, 450502, Control_c, 0, 64, 127
2, 450620, Note_off_c, 0, 75, 0
2, 450624, Note_on_c, 0, 58, 31
2, 450624, Note_on_c, 0, 74, 59
2, 450716, Note_off_c, 0, 58, 0
2, 450812, Note_off_c, 0, 74, 0
2, 450816, Note_on_c, 0, 72, 58
2, 450996, Control_c, 0, 64, 40
2, 451004, Note_off_c, 0, 72, 0
2, 451004, Control_c, 0, 64, 0
2, 451008, Note_on_c, 0, 70, 56
2, 451054, Control_c, 0, 64, 56
2, 451064, Control_c, 0, 64, 104
2, 451074, Control_c, 0, 64, 127
2, 451196, Note_off_c, 0, 70, 0
2, 451200, Note_on_c, 0, 58, 30
2, 451200, Note_on_c, 0, 68, 55
2, 451292, Note_off_c, 0, 58, 0
2, 451388, Note_off_c, 0, 68, 0
2, 451392, Note_on_c, 0, 67, 60
2, 451548, Control_c, 0, 64, 88
2, 451558, Control_c, 0, 64, 0
2, 451580, Note_off_c, 0, 67, 0
2, 451584, Note_on_c, 0, 70, 42
2, 451636, Control_c, 0, 64, 24
2, 451644, Control_c, 0, 64, 88
2, 451654, Control_c, 0, 64, 127
2, 451776, Note_on_c, 0, 58, 32
2, 451868, Note_off_c, 0, 58, 0
2, 451964, Note_off_c, 0, 70, 0
2, 451968, Note_on_c, 0, 68, 39
2, 452128, Control_c, 0, 64, 0
2, 452136, Note_on_c, 0, 65, 53
2, 452156, Note_off_c, 0, 68, 0
2, 452156, Note_off_c, 0, 65, 0
2, 452160, Note_on_c, 0, 77, 77
2, 452206, Control_c, 0, 64, 88
2, 452216, Control_c, 0, 64, 127
2, 452348, Note_off_c, 0, 77, 0
2, 452352, Note_on_c, 0, 58, 37
2, 452352, Note_on_c, 0, 75, 67
2, 452444, Note_off_c, 0, 58, 0
2, 452540, Note_off_c, 0, 75, 0
2, 452544, Note_on_c, 0, 74, 61
2, 452692, Control_c, 0, 64, 24
2, 452702, Control_c, 0, 64, 0
2, 452732, Note_off_c, 0, 74, 0
2, 452736, Note_on_c, 0, 72, 66
2, 452768, Control_c, 0, 64, 40
2, 452778, Control_c, 0, 64, 104
2, 452788, Control_c, 0, 64, 127
2, 452924, Note_off_c, 0, 72, 0
2, 452928, Note_on_c, 0, 58, 37
2, 452928, Note_on_c, 0, 70, 53
2, 453020, Note_off_c, 0, 58, 0
2, 453116, Note_off_c, 0, 70, 0
2, 453120, Note_on_c, 0, 68, 56
2, 453292, Control_c, 0, 64, 40
2, 453302, Control_c, 0, 64, 0
2, 453308, Note_off_c, 0, 68, 0
2, 453312, Note_on_c, 0, 66, 54
2, 453370, Control_c, 0, 64, 56
2, 453378, Control_c, 0, 64, 104
2, 453388, Control_c, 0, 64, 127
2, 453504, Note_on_c, 0, 58, 29
2, 453596, Note_off_c, 0, 58, 0
2, 453692, Note_off_c, 0, 66, 0
2, 453696, Note_on_c, 0, 67, 46
2, 453874, Control_c, 0, 64, 56
2, 453884, Note_off_c, 0, 67, 0
2, 453884, Control_c, 0, 64, 0
2, 453888, Note_on_c, 0, 65, 53
2, 453970, Control_c, 0, 64, 88
2, 453980, Control_c, 0, 64, 127
2, 454268, Note_off_c, 0, 65, 0
2, 454272, Note_on_c, 0, 68, 42
2, 454364, Note_off_c, 0, 68, 0
2, 454368, Note_on_c, 0, 67, 60
2, 454426, Control_c, 0, 64, 40
2, 454436, Control_c, 0, 64, 0
2, 454460, Note_off_c, 0, 67, 0
2, 454464, Note_on_c, 0, 65, 55
2, 454512, Control_c, 0, 64, 88
2, 454522, Control_c, 0, 64, 127
2, 454556, Note_off_c, 0, 65, 0
2, 454560, Note_on_c, 0, 67, 68
2, 454652, Note_off_c, 0, 67, 0
2, 454656, Note_on_c, 0, 68, 60
2, 454748, Note_off_c, 0, 68, 0
2, 454752, Note_on_c, 0, 70, 53
2, 454844, Note_off_c, 0, 70, 0
2, 454848, Note_on_c, 0, 72, 68
2, 454940, Note_off_c, 0, 72, 0
2, 454944, Note_on_c, 0, 70, 63
2, 455016, Control_c, 0, 64, 40
2, 455026, Control_c, 0, 64, 0
2, 455036, Note_off_c, 0, 70, 0
2, 455040, Note_on_c, 0, 70, 38
2, 455060, Note_off_c, 0, 70, 0
2, 455064, Note_on_c, 0, 72, 43
2, 455084, Note_off_c, 0, 72, 0
2, 455088, Note_on_c, 0, 70, 38
2, 455104, Control_c, 0, 64, 24
2, 455108, Note_off_c, 0, 70, 0
2, 455112, Note_on_c, 0, 72, 42
2, 455114, Control_c, 0, 64, 88
2, 455122, Control_c, 0, 64, 127
2, 455132, Note_off_c, 0, 72, 0
2, 455136, Note_on_c, 0, 70, 42
2, 455156, Note_off_c, 0, 70, 0
2, 455160, Note_on_c, 0, 72, 49
2, 455180, Note_off_c, 0, 72, 0
2, 455184, Note_on_c, 0, 69, 35
2, 455204, Note_off_c, 0, 69, 0
2, 455208, Note_on_c, 0, 70, 44
2, 455228, Note_off_c, 0, 70, 0
2, 455232, Note_on_c, 0, 75, 77
2, 455420, Note_off_c, 0, 75, 0
2, 455424, Note_on_c, 0, 58, 27
2, 455424, Note_on_c, 0, 67, 62
2, 455516, Note_off_c, 0, 58, 0
2, 455578, Control_c, 0, 64, 0
2, 455612, Note_off_c, 0, 67, 0
2, 455616, Note_on_c, 0, 77, 48
2, 455676, Control_c, 0, 64, 56
2, 455684, Control_c, 0, 64, 127
2, 455712, Note_on_c, 0, 58, 53
2, 455804, Note_off_c, 0, 58, 0
2, 455808, Note_on_c, 0, 62, 40
2, 455900, Note_off_c, 0, 62, 0
2, 455904, Note_on_c, 0, 65, 41
2, 455996, Note_off_c, 0, 77, 0
2, 455996, Note_off_c, 0, 65, 0
2, 456000, Note_on_c, 0, 62, 34
2, 456000, Note_on_c, 0, 80, 55
2, 456092, Note_off_c, 0, 62, 0
2, 456092, Note_off_c, 0, 80, 0
2, 456096, Note_on_c, 0, 58, 30
2, 456096, Note_on_c, 0, 79, 53
2, 456140, Control_c, 0, 64, 40
2, 456150, Control_c, 0, 64, 0
2, 456188, Note_off_c, 0, 58, 0
2, 456188, Note_off_c, 0, 79, 0
2, 456192, Note_on_c, 0, 77, 59
2, 456238, Control_c, 0, 64, 72
2, 456248, Control_c, 0, 64, 127
2, 456284, Note_off_c, 0, 77, 0
2, 456288, Note_on_c, 0, 58, 26
2, 456288, Note_on_c, 0, 79, 58
2, 456380, Note_off_c, 0, 58, 0
2, 456380, Note_off_c, 0, 79, 0
2, 456384, Note_on_c, 0, 62, 26
2, 456384, Note_on_c, 0, 80, 62
2, 456476, Note_off_c, 0, 62, 0
2, 456476, Note_off_c, 0, 80, 0
2, 456480, Note_on_c, 0, 65, 30
2, 456480, Note_on_c, 0, 82, 60
2, 456572, Note_off_c, 0, 65, 0
2, 456572, Note_off_c, 0, 82, 0
2, 456576, Note_on_c, 0, 62, 36
2, 456576, Note_on_c, 0, 84, 63
2, 456668, Note_off_c, 0, 62, 0
2, 456668, Note_off_c, 0, 84, 0
2, 456672, Note_on_c, 0, 58, 30
2, 456672, Note_on_c, 0, 82, 65
2, 456752, Control_c, 0, 64, 40
2, 456760, Control_c, 0, 64, 0
2, 456764, Note_off_c, 0, 58, 0
2, 456764, Note_off_c, 0, 82, 0
2, 456768, Note_on_c, 0, 82, 61
2, 456788, Note_off_c, 0, 82, 0
2, 456792, Note_on_c, 0, 84, 53
2, 456812, Note_off_c, 0, 84, 0
2, 456816, Note_on_c, 0, 82, 53
2, 456836, Note_off_c, 0, 82, 0
2, 456838, Control_c, 0, 64, 24
2, 456840, Note_on_c, 0, 84, 58
2, 456846, Control_c, 0, 64, 88
2, 456858, Control_c, 0, 64, 127
2, 456860, Note_off_c, 0, 84, 0
2, 456864, Note_on_c, 0, 58, 32
2, 456864, Note_on_c, 0, 82, 60
2, 456884, Note_off_c, 0, 82, 0
2, 456888, Note_on_c, 0, 84, 66
2, 456908, Note_off_c, 0, 84, 0
2, 456912, Note_on_c, 0, 81, 49
2, 456932, Note_off_c, 0, 81, 0
2, 456936, Note_on_c, 0, 82, 54
2, 456956, Note_off_c, 0, 58, 0
2, 456956, Note_off_c, 0, 82, 0
2, 456960, Note_on_c, 0, 63, 34
2, 456960, Note_on_c, 0, 87, 56
2, 457052, Note_off_c, 0, 63, 0
2, 457056, Note_on_c, 0, 67, 38
2, 457148, Note_off_c, 0, 87, 0
2, 457148, Note_off_c, 0, 67, 0
2, 457152, Note_on_c, 0, 63, 37
2, 457152, Note_on_c, 0, 79, 53
2, 457244, Note_off_c, 0, 63, 0
2, 457248, Note_on_c, 0, 58, 33
2, 457332, Control_c, 0, 64, 40
2, 457340, Note_off_c, 0, 79, 0
2, 457340, Note_off_c, 0, 58, 0
2, 457342, Control_c, 0, 64, 0
2, 457344, Note_on_c, 0, 77, 43
2, 457438, Control_c, 0, 64, 40
2, 457440, Note_on_c, 0, 60, 44
2, 457448, Control_c, 0, 64, 88
2, 457458, Control_c, 0, 64, 127
2, 457532, Note_off_c, 0, 77, 0
2, 457532, Note_off_c, 0, 60, 0
2, 457536, Note_on_c, 0, 65, 40
2, 457536, Note_on_c, 0, 80, 62
2, 457628, Note_off_c, 0, 65, 0
2, 457632, Note_on_c, 0, 68, 37
2, 457724, Note_off_c, 0, 80, 0
2, 457724, Note_off_c, 0, 68, 0
2, 457728, Note_on_c, 0, 65, 43
2, 457728, Note_on_c, 0, 84, 66
2, 457820, Note_off_c, 0, 65, 0
2, 457824, Note_on_c, 0, 60, 47
2, 457874, Control_c, 0, 64, 72
2, 457884, Control_c, 0, 64, 0
2, 457916, Note_off_c, 0, 84, 0
2, 457916, Note_off_c, 0, 60, 0
2, 457920, Note_on_c, 0, 58, 46
2, 457920, Note_on_c, 0, 74, 57
2, 457972, Control_c, 0, 64, 56
2, 457982, Control_c, 0, 64, 127
2, 458012, Note_off_c, 0, 58, 0
2, 458016, Note_on_c, 0, 62, 52
2, 458108, Note_off_c, 0, 74, 0
2, 458108, Note_off_c, 0, 62, 0
2, 458112, Note_on_c, 0, 65, 51
2, 458112, Note_on_c, 0, 77, 72
2, 458204, Note_off_c, 0, 65, 0
2, 458208, Note_on_c, 0, 68, 57
2, 458300, Note_off_c, 0, 77, 0
2, 458300, Note_off_c, 0, 68, 0
2, 458304, Note_on_c, 0, 65, 54
2, 458304, Note_on_c, 0, 82, 68
2, 458396, Note_off_c, 0, 65, 0
2, 458400, Note_on_c, 0, 62, 60
2, 458464, Control_c, 0, 64, 40
2, 458476, Control_c, 0, 64, 0
2, 458492, Note_off_c, 0, 82, 0
2, 458492, Note_off_c, 0, 62, 0
2, 458496, Note_on_c, 0, 60, 53
2, 458496, Note_on_c, 0, 80, 65
2, 458554, Control_c, 0, 64, 40
2, 458562, Control_c, 0, 64, 104
2, 458572, Control_c, 0, 64, 127
2, 458588, Note_off_c, 0, 60, 0
2, 458592, Note_on_c, 0, 59, 53
2, 458684, Note_off_c, 0, 59, 0
2, 458688, Note_on_c, 0, 60, 59
2, 458780, Note_off_c, 0, 60, 0
2, 458784, Note_on_c, 0, 62, 55
2, 458876, Note_off_c, 0, 80, 0
2, 458876, Note_off_c, 0, 62, 0
2, 458880, Note_on_c, 0, 63, 53
2, 458880, Note_on_c, 0, 79, 63
2, 458972, Note_off_c, 0, 63, 0
2, 458976, Note_on_c, 0, 60, 48
2, 459036, Control_c, 0, 64, 40
2, 459046, Control_c, 0, 64, 0
2, 459068, Note_off_c, 0, 79, 0
2, 459068, Note_off_c, 0, 60, 0
2, 459072, Note_on_c, 0, 65, 51
2, 459134, Control_c, 0, 64, 40
2, 459140, Control_c, 0, 64, 88
2, 459154, Control_c, 0, 64, 127
2, 459260, Note_off_c, 0, 65, 0
2, 459264, Note_on_c, 0, 68, 44
2, 459452, Note_off_c, 0, 68, 0
2, 459456, Note_on_c, 0, 60, 24
2, 459456, Note_on_c, 0, 72, 52
2, 459548, Note_off_c, 0, 60, 0
2, 459600, Control_c, 0, 64, 88
2, 459610, Control_c, 0, 64, 0
2, 459644, Note_off_c, 0, 72, 0
2, 459648, Note_on_c, 0, 63, 49
2, 459696, Control_c, 0, 64, 56
2, 459706, Control_c, 0, 64, 104
2, 459716, Control_c, 0, 64, 127
2, 459836, Note_off_c, 0, 63, 0
2, 459840, Note_on_c, 0, 67, 55
2, 459936, Note_on_c, 0, 58, 31
2, 460028, Note_off_c, 0, 67, 0
2, 460028, Note_off_c, 0, 58, 0
2, 460032, Note_on_c, 0, 70, 54
2, 460180, Control_c, 0, 64, 56
2, 460190, Control_c, 0, 64, 0
2, 460220, Note_off_c, 0, 70, 0
2, 460266, Control_c, 0, 64, 40
2, 460276, Control_c, 0, 64, 104
2, 460286, Control_c, 0, 64, 127
2, 460416, Note_on_c, 0, 58, 57
2, 460604, Note_off_c, 0, 58, 0
2, 460608, Note_on_c, 0, 62, 46
2, 460772, Control_c, 0, 64, 24
2, 460782, Control_c, 0, 64, 0
2, 460796, Note_off_c, 0, 62, 0
2, 460858, Control_c, 0, 64, 56
2, 460868, Control_c, 0, 64, 127
2, 461354, Control_c, 0, 64, 56
2, 461362, Control_c, 0, 64, 0
2, 461440, Control_c, 0, 64, 24
2, 461450, Control_c, 0, 64, 88
2, 461460, Control_c, 0, 64, 127
2, 461568, Note_on_c, 0, 75, 51
2, 461568, Note_on_c, 0, 63, 37
2, 461568, Note_on_c, 0, 72, 57
2, 461756, Note_off_c, 0, 75, 0
2, 461756, Note_off_c, 0, 63, 0
2, 461756, Note_off_c, 0, 72, 0
2, 461760, Note_on_c, 0, 75, 61
2, 461760, Note_on_c, 0, 72, 68
2, 461760, Note_on_c, 0, 63, 54
2, 461924, Control_c, 0, 64, 88
2, 461934, Control_c, 0, 64, 0
2, 461948, Note_off_c, 0, 75, 0
2, 461948, Note_off_c, 0, 72, 0
2, 461948, Note_off_c, 0, 63, 0
2, 461952, Note_on_c, 0, 75, 72
2, 461952, Note_on_c, 0, 72, 79
2, 461952, Note_on_c, 0, 63, 57
2, 462022, Control_c, 0, 64, 24
2, 462030, Control_c, 0, 64, 88
2, 462040, Control_c, 0, 64, 127
2, 462332, Note_off_c, 0, 75, 0
2, 462332, Note_off_c, 0, 72, 0
2, 462336, Note_on_c, 0, 69, 55
2, 462336, Note_on_c, 0, 72, 52
2, 462524, Note_off_c, 0, 63, 0
2, 462524, Note_off_c, 0, 69, 0
2, 462524, Note_off_c, 0, 72, 0
2, 462528, Note_on_c, 0, 70, 37
2, 462528, Note_on_c, 0, 63, 54
2, 462534, Control_c, 0, 64, 24
2, 462544, Control_c, 0, 64, 0
2, 462612, Control_c, 0, 64, 24
2, 462622, Control_c, 0, 64, 72
2, 462632, Control_c, 0, 64, 127
2, 463096, Control_c, 0, 64, 72
2, 463100, Note_off_c, 0, 70, 0
2, 463100, Note_off_c, 0, 63, 0
2, 463104, Note_on_c, 0, 63, 50
2, 463104, Note_on_c, 0, 58, 49
2, 463104, Note_on_c, 0, 67, 53
2, 463106, Control_c, 0, 64, 0
2, 463192, Control_c, 0, 64, 56
2, 463202, Control_c, 0, 64, 127
2, 463484, Note_off_c, 0, 67, 0
2, 463488, Note_on_c, 0, 70, 40
2, 463676, Note_off_c, 0, 63, 0
2, 463676, Note_off_c, 0, 58, 0
2, 463676, Note_off_c, 0, 70, 0
2, 463680, Note_on_c, 0, 70, 44
2, 463680, Note_on_c, 0, 62, 48
2, 463698, Control_c, 0, 64, 24
2, 463708, Control_c, 0, 64, 0
2, 463784, Control_c, 0, 64, 72
2, 463794, Control_c, 0, 64, 127
2, 463868, Note_off_c, 0, 70, 0
2, 463872, Note_on_c, 0, 68, 44
2, 464060, Note_off_c, 0, 68, 0
2, 464064, Note_on_c, 0, 67, 54
2, 464128, Note_off_c, 0, 67, 0
2, 464128, Note_on_c, 0, 70, 45
2, 464192, Note_off_c, 0, 70, 0
2, 464192, Note_on_c, 0, 68, 43
2, 464230, Control_c, 0, 64, 40
2, 464240, Control_c, 0, 64, 0
2, 464252, Note_off_c, 0, 62, 0
2, 464256, Note_off_c, 0, 68, 0
2, 464256, Note_on_c, 0, 58, 40
2, 464256, Note_on_c, 0, 67, 49
2, 464256, Note_on_c, 0, 63, 61
2, 464316, Control_c, 0, 64, 24
2, 464326, Control_c, 0, 64, 104
2, 464336, Control_c, 0, 64, 127
2, 464810, Control_c, 0, 64, 40
2, 464820, Control_c, 0, 64, 0
2, 464828, Note_off_c, 0, 58, 0
2, 464828, Note_off_c, 0, 67, 0
2, 464828, Note_off_c, 0, 63, 0
2, 464832, Note_on_c, 0, 63, 53
2, 464896, Note_off_c, 0, 63, 0
2, 464896, Note_on_c, 0, 65, 62
2, 464908, Control_c, 0, 64, 24
2, 464918, Control_c, 0, 64, 104
2, 464928, Control_c, 0, 64, 127
2, 464960, Note_off_c, 0, 65, 0
2, 464960, Note_on_c, 0, 63, 64
2, 465024, Note_off_c, 0, 63, 0
2, 465024, Note_on_c, 0, 62, 61
2, 465068, Note_off_c, 0, 62, 0
2, 465072, Note_on_c, 0, 63, 62
2, 465116, Note_off_c, 0, 63, 0
2, 465120, Note_on_c, 0, 65, 72
2, 465164, Note_off_c, 0, 65, 0
2, 465168, Note_on_c, 0, 67, 82
2, 465212, Note_off_c, 0, 67, 0
2, 465216, Note_on_c, 0, 68, 64
2, 465252, Note_on_c, 0, 70, 60
2, 465254, Note_off_c, 0, 68, 0
2, 465290, Note_off_c, 0, 70, 0
2, 465290, Note_on_c, 0, 72, 68
2, 465296, Control_c, 0, 64, 24
2, 465306, Control_c, 0, 64, 0
2, 465328, Note_off_c, 0, 72, 0
2, 465328, Note_on_c, 0, 74, 74
2, 465366, Note_off_c, 0, 74, 0
2, 465366, Note_on_c, 0, 75, 77
2, 465404, Note_off_c, 0, 75, 0
2, 465408, Note_on_c, 0, 77, 72
2, 465450, Control_c, 0, 64, 40
2, 465460, Control_c, 0, 64, 88
2, 465470, Control_c, 0, 64, 127
2, 465500, Note_off_c, 0, 77, 0
2, 465504, Note_on_c, 0, 75, 76
2, 465596, Note_off_c, 0, 75, 0
2, 465600, Note_on_c, 0, 74, 82
2, 465692, Note_off_c, 0, 74, 0
2, 465696, Note_on_c, 0, 72, 74
2, 465788, Note_off_c, 0, 72, 0
2, 465792, Note_on_c, 0, 75, 81
2, 465858, Control_c, 0, 64, 104
2, 465868, Control_c, 0, 64, 0
2, 465884, Note_off_c, 0, 75, 0
2, 465888, Note_on_c, 0, 72, 66
2, 465980, Note_off_c, 0, 72, 0
2, 465984, Note_on_c, 0, 70, 40
2, 466072, Control_c, 0, 64, 56
2, 466080, Control_c, 0, 64, 104
2, 466090, Control_c, 0, 64, 127
2, 466526, Control_c, 0, 64, 104
2, 466536, Control_c, 0, 64, 0
2, 466556, Note_off_c, 0, 70, 0
2, 466560, Note_on_c, 0, 58, 53
2, 466560, Note_on_c, 0, 67, 47
2, 466634, Control_c, 0, 64, 40
2, 466642, Control_c, 0, 64, 104
2, 466652, Control_c, 0, 64, 127
2, 466940, Note_off_c, 0, 58, 0
2, 466940, Note_off_c, 0, 67, 0
2, 466944, Note_on_c, 0, 70, 44
2, 466944, Note_on_c, 0, 61, 54
2, 467132, Note_off_c, 0, 70, 0
2, 467132, Note_off_c, 0, 61, 0
2, 467136, Note_on_c, 0, 60, 53
2, 467136, Note_on_c, 0, 67, 56
2, 467136, Control_c, 0, 64, 56
2, 467146, Control_c, 0, 64, 0
2, 467252, Control_c, 0, 64, 56
2, 467262, Control_c, 0, 64, 127
2, 467420, Note_off_c, 0, 67, 0
2, 467424, Note_on_c, 0, 70, 43
2, 467516, Note_off_c, 0, 60, 0
2, 467516, Note_off_c, 0, 70, 0
2, 467520, Note_on_c, 0, 60, 42
2, 467520, Note_on_c, 0, 69, 46
2, 467612, Note_off_c, 0, 69, 0
2, 467616, Note_on_c, 0, 67, 47
2, 467708, Note_off_c, 0, 60, 0
2, 467708, Note_off_c, 0, 67, 0
2, 467708, Control_c, 0, 64, 24
2, 467712, Key_signature, -2, "minor"
2, 467712, Note_on_c, 0, 66, 48
2, 467712, Note_on_c, 0, 63, 40
2, 467718, Control_c, 0, 64, 0
2, 467796, Control_c, 0, 64, 56
2, 467806, Control_c, 0, 64, 127
2, 468284, Note_off_c, 0, 66, 0
2, 468284, Note_off_c, 0, 63, 0
2, 468288, Note_on_c, 0, 66, 58
2, 468288, Note_on_c, 0, 69, 41
2, 468290, Control_c, 0, 64, 72
2, 468298, Control_c, 0, 64, 0
2, 468394, Control_c, 0, 64, 40
2, 468406, Control_c, 0, 64, 104
2, 468414, Control_c, 0, 64, 127
2, 468480, Note_on_c, 0, 62, 38
2, 468668, Note_off_c, 0, 66, 0
2, 468668, Note_off_c, 0, 69, 0
2, 468668, Note_off_c, 0, 62, 0
2, 468672, Note_on_c, 0, 62, 34
2, 468672, Note_on_c, 0, 70, 57
2, 468672, Note_on_c, 0, 67, 58
2, 468842, Control_c, 0, 64, 40
2, 468850, Control_c, 0, 64, 0
2, 468860, Note_off_c, 0, 62, 0
2, 468860, Note_off_c, 0, 70, 0
2, 468860, Note_off_c, 0, 67, 0
2, 468864, Note_on_c, 0, 69, 72
2, 468864, Note_on_c, 0, 72, 74
2, 468956, Note_off_c, 0, 69, 0
2, 468956, Note_off_c, 0, 72, 0
2, 468958, Control_c, 0, 64, 56
2, 468960, Note_on_c, 0, 75, 81
2, 468968, Control_c, 0, 64, 127
2, 469052, Note_off_c, 0, 75, 0
2, 469056, Note_on_c, 0, 74, 59
2, 469148, Note_off_c, 0, 74, 0
2, 469152, Note_on_c, 0, 72, 54
2, 469244, Note_off_c, 0, 72, 0
2, 469248, Note_on_c, 0, 70, 44
2, 469340, Note_off_c, 0, 70, 0
2, 469344, Note_on_c, 0, 69, 44
2, 469432, Control_c, 0, 64, 0
2, 469436, Note_off_c, 0, 69, 0
2, 469440, Note_on_c, 0, 67, 68
2, 469440, Note_on_c, 0, 58, 33
2, 469568, Control_c, 0, 64, 40
2, 469578, Control_c, 0, 64, 88
2, 469586, Control_c, 0, 64, 127
2, 470012, Note_off_c, 0, 67, 0
2, 470012, Note_off_c, 0, 58, 0
2, 470016, Note_on_c, 0, 70, 50
2, 470016, Note_on_c, 0, 67, 57
2, 470022, Control_c, 0, 64, 24
2, 470034, Control_c, 0, 64, 0
2, 470110, Control_c, 0, 64, 56
2, 470120, Control_c, 0, 64, 127
2, 470396, Note_off_c, 0, 70, 0
2, 470396, Note_off_c, 0, 67, 0
2, 470400, Note_on_c, 0, 72, 59
2, 470400, Note_on_c, 0, 69, 46
2, 470586, Control_c, 0, 64, 56
2, 470588, Note_off_c, 0, 72, 0
2, 470588, Note_off_c, 0, 69, 0
2, 470592, Note_on_c, 0, 70, 61
2, 470592, Note_on_c, 0, 74, 74
2, 470594, Control_c, 0, 64, 0
2, 470672, Control_c, 0, 64, 40
2, 470682, Control_c, 0, 64, 104
2, 470692, Control_c, 0, 64, 127
2, 470972, Note_off_c, 0, 70, 0
2, 470972, Note_off_c, 0, 74, 0
2, 470976, Note_on_c, 0, 74, 84
2, 470976, Note_on_c, 0, 70, 73
2, 471164, Note_off_c, 0, 74, 0
2, 471164, Note_off_c, 0, 70, 0
2, 471168, Note_on_c, 0, 70, 84
2, 471168, Note_on_c, 0, 74, 92
2, 471186, Control_c, 0, 64, 24
2, 471196, Control_c, 0, 64, 0
2, 471282, Control_c, 0, 64, 72
2, 471292, Control_c, 0, 64, 127
2, 471548, Note_off_c, 0, 70, 0
2, 471548, Note_off_c, 0, 74, 0
2, 471552, Note_on_c, 0, 70, 69
2, 471552, Note_on_c, 0, 67, 71
2, 471724, Control_c, 0, 64, 72
2, 471738, Control_c, 0, 64, 0
2, 471740, Note_off_c, 0, 70, 0
2, 471740, Note_off_c, 0, 67, 0
2, 471744, Note_on_c, 0, 58, 62
2, 471744, Note_on_c, 0, 67, 82
2, 471824, Control_c, 0, 64, 56
2, 471834, Control_c, 0, 64, 104
2, 471844, Control_c, 0, 64, 127
2, 472124, Note_off_c, 0, 58, 0
2, 472124, Note_off_c, 0, 67, 0
2, 472128, Note_on_c, 0, 67, 58
2, 472128, Note_on_c, 0, 70, 53
2, 472308, Control_c, 0, 64, 56
2, 472316, Note_off_c, 0, 67, 0
2, 472316, Note_off_c, 0, 70, 0
2, 472318, Control_c, 0, 64, 0
2, 472320, Note_on_c, 0, 69, 68
2, 472320, Note_on_c, 0, 66, 53
2, 472416, Control_c, 0, 64, 88
2, 472424, Control_c, 0, 64, 127
2, 472860, Control_c, 0, 64, 104
2, 472870, Control_c, 0, 64, 0
2, 472892, Note_off_c, 0, 69, 0
2, 472892, Note_off_c, 0, 66, 0
2, 472896, Note_on_c, 0, 67, 61
2, 472896, Note_on_c, 0, 58, 35
2, 472958, Control_c, 0, 64, 24
2, 472968, Control_c, 0, 64, 72
2, 472978, Control_c, 0, 64, 127
2, 473462, Control_c, 0, 64, 24
2, 473468, Note_off_c, 0, 67, 0
2, 473468, Note_off_c, 0, 58, 0
2, 473470, Control_c, 0, 64, 0
2, 473472, Note_on_c, 0, 70, 59
2, 473472, Note_on_c, 0, 67, 66
2, 473558, Control_c, 0, 64, 56
2, 473568, Control_c, 0, 64, 127
2, 473852, Note_off_c, 0, 70, 0
2, 473852, Note_off_c, 0, 67, 0
2, 473856, Note_on_c, 0, 69, 59
2, 473856, Note_on_c, 0, 72, 70
2, 474034, Control_c, 0, 64, 40
2, 474042, Control_c, 0, 64, 0
2, 474044, Note_off_c, 0, 69, 0
2, 474044, Note_off_c, 0, 72, 0
2, 474048, Note_on_c, 0, 74, 77
2, 474048, Note_on_c, 0, 70, 65
2, 474140, Control_c, 0, 64, 72
2, 474150, Control_c, 0, 64, 127
2, 474428, Note_off_c, 0, 74, 0
2, 474428, Note_off_c, 0, 70, 0
2, 474432, Note_on_c, 0, 74, 83
2, 474432, Note_on_c, 0, 70, 73
2, 474620, Note_off_c, 0, 74, 0
2, 474620, Note_off_c, 0, 70, 0
2, 474624, Note_on_c, 0, 74, 90
2, 474624, Note_on_c, 0, 70, 82
2, 474624, Control_c, 0, 64, 24
2, 474634, Control_c, 0, 64, 0
2, 474720, Control_c, 0, 64, 56
2, 474730, Control_c, 0, 64, 127
2, 475004, Note_off_c, 0, 74, 0
2, 475004, Note_off_c, 0, 70, 0
2, 475008, Note_on_c, 0, 70, 77
2, 475008, Note_on_c, 0, 62, 74
2, 475194, Control_c, 0, 64, 72
2, 475196, Note_off_c, 0, 70, 0
2, 475196, Note_off_c, 0, 62, 0
2, 475200, Note_on_c, 0, 72, 76
2, 475200, Note_on_c, 0, 63, 60
2, 475204, Control_c, 0, 64, 0
2, 475302, Control_c, 0, 64, 72
2, 475312, Control_c, 0, 64, 127
2, 475388, Note_off_c, 0, 72, 0
2, 475388, Note_off_c, 0, 63, 0
2, 475392, Note_on_c, 0, 75, 69
2, 475392, Note_on_c, 0, 67, 64
2, 475580, Note_off_c, 0, 75, 0
2, 475580, Note_off_c, 0, 67, 0
2, 475584, Note_on_c, 0, 69, 56
2, 475584, Note_on_c, 0, 60, 55
2, 475756, Control_c, 0, 64, 104
2, 475766, Control_c, 0, 64, 0
2, 475772, Note_off_c, 0, 69, 0
2, 475772, Note_off_c, 0, 60, 0
2, 475776, Note_on_c, 0, 70, 60
2, 475776, Note_on_c, 0, 62, 57
2, 475864, Control_c, 0, 64, 24
2, 475874, Control_c, 0, 64, 72
2, 475884, Control_c, 0, 64, 127
2, 476338, Control_c, 0, 64, 24
2, 476346, Control_c, 0, 64, 0
2, 476348, Note_off_c, 0, 70, 0
2, 476348, Note_off_c, 0, 62, 0
2, 476352, Note_on_c, 0, 70, 46
2, 476352, Note_on_c, 0, 74, 56
2, 476426, Control_c, 0, 64, 40
2, 476436, Control_c, 0, 64, 104
2, 476444, Control_c, 0, 64, 127
2, 476732, Note_off_c, 0, 70, 0
2, 476732, Note_off_c, 0, 74, 0
2, 476736, Note_on_c, 0, 70, 63
2, 476736, Note_on_c, 0, 62, 58
2, 476924, Note_off_c, 0, 70, 0
2, 476924, Note_off_c, 0, 62, 0
2, 476928, Note_on_c, 0, 72, 63
2, 476928, Note_on_c, 0, 69, 55
2, 476938, Control_c, 0, 64, 24
2, 476950, Control_c, 0, 64, 0
2, 477046, Control_c, 0, 64, 56
2, 477054, Control_c, 0, 64, 127
2, 477308, Note_off_c, 0, 72, 0
2, 477308, Note_off_c, 0, 69, 0
2, 477312, Note_on_c, 0, 74, 79
2, 477312, Note_on_c, 0, 71, 64
2, 477482, Control_c, 0, 64, 24
2, 477490, Control_c, 0, 64, 0
2, 477500, Note_off_c, 0, 74, 0
2, 477500, Note_off_c, 0, 71, 0
2, 477504, Note_on_c, 0, 72, 70
2, 477504, Note_on_c, 0, 75, 74
2, 477588, Control_c, 0, 64, 72
2, 477598, Control_c, 0, 64, 127
2, 477884, Note_off_c, 0, 72, 0
2, 477884, Note_off_c, 0, 75, 0
2, 477888, Note_on_c, 0, 72, 70
2, 477888, Note_on_c, 0, 75, 82
2, 478052, Control_c, 0, 64, 104
2, 478062, Control_c, 0, 64, 0
2, 478076, Note_off_c, 0, 72, 0
2, 478076, Note_off_c, 0, 75, 0
2, 478080, Note_on_c, 0, 75, 85
2, 478080, Note_on_c, 0, 72, 77
2, 478170, Control_c, 0, 64, 56
2, 478178, Control_c, 0, 64, 127
2, 478460, Note_off_c, 0, 75, 0
2, 478460, Note_off_c, 0, 72, 0
2, 478464, Note_on_c, 0, 72, 70
2, 478464, Note_on_c, 0, 69, 62
2, 478652, Note_off_c, 0, 72, 0
2, 478652, Note_off_c, 0, 69, 0
2, 478654, Control_c, 0, 64, 0
2, 478656, Note_on_c, 0, 66, 55
2, 478656, Note_on_c, 0, 69, 68
2, 478750, Control_c, 0, 64, 24
2, 478760, Control_c, 0, 64, 88
2, 478770, Control_c, 0, 64, 127
2, 478844, Note_off_c, 0, 66, 0
2, 478844, Note_off_c, 0, 69, 0
2, 478848, Note_on_c, 0, 72, 65
2, 478848, Note_on_c, 0, 69, 61
2, 479036, Note_off_c, 0, 72, 0
2, 479036, Note_off_c, 0, 69, 0
2, 479040, Note_on_c, 0, 69, 59
2, 479040, Note_on_c, 0, 66, 54
2, 479228, Note_off_c, 0, 69, 0
2, 479228, Note_off_c, 0, 66, 0
2, 479232, Control_c, 0, 64, 24
2, 479232, Note_on_c, 0, 70, 44
2, 479232, Note_on_c, 0, 67, 44
2, 479244, Control_c, 0, 64, 0
2, 479340, Control_c, 0, 64, 72
2, 479350, Control_c, 0, 64, 127
2, 479420, Note_off_c, 0, 70, 0
2, 479420, Note_off_c, 0, 67, 0
2, 479424, Note_on_c, 0, 67, 55
2, 479424, Note_on_c, 0, 70, 51
2, 479612, Note_off_c, 0, 67, 0
2, 479612, Note_off_c, 0, 70, 0
2, 479616, Note_on_c, 0, 72, 54
2, 479616, Note_on_c, 0, 69, 44
2, 479786, Control_c, 0, 64, 56
2, 479796, Control_c, 0, 64, 0
2, 479804, Note_off_c, 0, 72, 0
2, 479804, Note_off_c, 0, 69, 0
2, 479808, Note_on_c, 0, 74, 60
2, 479808, Note_on_c, 0, 70, 38
2, 479884, Control_c, 0, 64, 24
2, 479894, Control_c, 0, 64, 88
2, 479902, Control_c, 0, 64, 127
2, 480188, Note_off_c, 0, 74, 0
2, 480188, Note_off_c, 0, 70, 0
2, 480192, Note_on_c, 0, 70, 45
2, 480192, Note_on_c, 0, 62, 51
2, 480358, Control_c, 0, 64, 40
2, 480368, Control_c, 0, 64, 0
2, 480380, Note_off_c, 0, 70, 0
2, 480380, Note_off_c, 0, 62, 0
2, 480384, Note_on_c, 0, 72, 62
2, 480384, Note_on_c, 0, 69, 52
2, 480464, Control_c, 0, 64, 40
2, 480474, Control_c, 0, 64, 104
2, 480484, Control_c, 0, 64, 127
2, 480764, Note_off_c, 0, 72, 0
2, 480764, Note_off_c, 0, 69, 0
2, 480768, Note_on_c, 0, 71, 65
2, 480768, Note_on_c, 0, 74, 80
2, 480920, Control_c, 0, 64, 88
2, 480928, Control_c, 0, 64, 0
2, 480956, Note_off_c, 0, 71, 0
2, 480956, Note_off_c, 0, 74, 0
2, 480960, Note_on_c, 0, 75, 74
2, 480960, Note_on_c, 0, 72, 58
2, 481036, Control_c, 0, 64, 24
2, 481044, Control_c, 0, 64, 88
2, 481056, Control_c, 0, 64, 127
2, 481340, Note_off_c, 0, 75, 0
2, 481340, Note_off_c, 0, 72, 0
2, 481344, Note_on_c, 0, 75, 83
2, 481344, Note_on_c, 0, 72, 74
2, 481520, Control_c, 0, 64, 88
2, 481530, Control_c, 0, 64, 0
2, 481532, Note_off_c, 0, 75, 0
2, 481532, Note_off_c, 0, 72, 0
2, 481536, Note_on_c, 0, 75, 85
2, 481536, Note_on_c, 0, 72, 77
2, 481626, Control_c, 0, 64, 56
2, 481636, Control_c, 0, 64, 127
2, 481916, Note_off_c, 0, 75, 0
2, 481916, Note_off_c, 0, 72, 0
2, 481920, Note_on_c, 0, 69, 66
2, 481920, Note_on_c, 0, 72, 74
2, 482108, Note_off_c, 0, 69, 0
2, 482108, Note_off_c, 0, 72, 0
2, 482112, Note_on_c, 0, 69, 77
2, 482112, Note_on_c, 0, 66, 64
2, 482112, Control_c, 0, 64, 24
2, 482120, Control_c, 0, 64, 0
2, 482198, Control_c, 0, 64, 40
2, 482208, Control_c, 0, 64, 104
2, 482218, Control_c, 0, 64, 127
2, 482300, Note_off_c, 0, 69, 0
2, 482300, Note_off_c, 0, 66, 0
2, 482304, Note_on_c, 0, 72, 66
2, 482304, Note_on_c, 0, 69, 59
2, 482492, Note_off_c, 0, 72, 0
2, 482492, Note_off_c, 0, 69, 0
2, 482496, Note_on_c, 0, 69, 64
2, 482496, Note_on_c, 0, 66, 49
2, 482654, Control_c, 0, 64, 24
2, 482664, Control_c, 0, 64, 0
2, 482684, Note_off_c, 0, 69, 0
2, 482684, Note_off_c, 0, 66, 0
2, 482688, Note_on_c, 0, 67, 58
2, 482688, Note_on_c, 0, 58, 30
2, 482750, Control_c, 0, 64, 24
2, 482760, Control_c, 0, 64, 88
2, 482770, Control_c, 0, 64, 127
2, 483254, Control_c, 0, 64, 56
2, 483260, Note_off_c, 0, 67, 0
2, 483260, Note_off_c, 0, 58, 0
2, 483264, Note_on_c, 0, 67, 69
2, 483264, Note_on_c, 0, 79, 69
2, 483264, Control_c, 0, 64, 0
2, 483352, Control_c, 0, 64, 72
2, 483360, Note_on_c, 0, 58, 58
2, 483362, Control_c, 0, 64, 127
2, 483452, Note_off_c, 0, 58, 0
2, 483456, Note_on_c, 0, 62, 66
2, 483548, Note_off_c, 0, 62, 0
2, 483552, Note_on_c, 0, 58, 60
2, 483644, Note_off_c, 0, 58, 0
2, 483836, Note_off_c, 0, 67, 0
2, 483836, Note_off_c, 0, 79, 0
2, 483836, Control_c, 0, 64, 56
2, 483840, Note_on_c, 0, 70, 65
2, 483840, Note_on_c, 0, 82, 73
2, 483846, Control_c, 0, 64, 0
2, 483922, Control_c, 0, 64, 24
2, 483930, Control_c, 0, 64, 72
2, 483936, Note_on_c, 0, 58, 57
2, 483942, Control_c, 0, 64, 127
2, 484028, Note_off_c, 0, 58, 0
2, 484032, Note_on_c, 0, 62, 70
2, 484124, Note_off_c, 0, 62, 0
2, 484128, Note_on_c, 0, 58, 67
2, 484220, Note_off_c, 0, 70, 0
2, 484220, Note_off_c, 0, 82, 0
2, 484220, Note_off_c, 0, 58, 0
2, 484224, Note_on_c, 0, 84, 76
2, 484224, Note_on_c, 0, 72, 63
2, 484408, Control_c, 0, 64, 0
2, 484412, Note_off_c, 0, 84, 0
2, 484412, Note_off_c, 0, 72, 0
2, 484416, Note_on_c, 0, 86, 84
2, 484416, Note_on_c, 0, 74, 79
2, 484494, Control_c, 0, 64, 56
2, 484504, Control_c, 0, 64, 127
2, 484512, Note_on_c, 0, 58, 77
2, 484604, Note_off_c, 0, 58, 0
2, 484608, Note_on_c, 0, 62, 73
2, 484700, Note_off_c, 0, 62, 0
2, 484704, Note_on_c, 0, 58, 69
2, 484796, Note_off_c, 0, 86, 0
2, 484796, Note_off_c, 0, 74, 0
2, 484796, Note_off_c, 0, 58, 0
2, 484800, Note_on_c, 0, 86, 82
2, 484800, Note_on_c, 0, 74, 82
2, 484970, Control_c, 0, 64, 72
2, 484978, Control_c, 0, 64, 0
2, 484988, Note_off_c, 0, 86, 0
2, 484988, Note_off_c, 0, 74, 0
2, 484992, Note_on_c, 0, 86, 86
2, 484992, Note_on_c, 0, 74, 82
2, 485066, Control_c, 0, 64, 56
2, 485076, Control_c, 0, 64, 127
2, 485088, Note_on_c, 0, 58, 73
2, 485180, Note_off_c, 0, 58, 0
2, 485184, Note_on_c, 0, 62, 70
2, 485276, Note_off_c, 0, 62, 0
2, 485280, Note_on_c, 0, 58, 70
2, 485372, Note_off_c, 0, 86, 0
2, 485372, Note_off_c, 0, 74, 0
2, 485372, Note_off_c, 0, 58, 0
2, 485376, Note_on_c, 0, 70, 77
2, 485376, Note_on_c, 0, 82, 86
2, 485550, Control_c, 0, 64, 0
2, 485564, Note_off_c, 0, 70, 0
2, 485564, Note_off_c, 0, 82, 0
2, 485568, Note_on_c, 0, 67, 99
2, 485568, Note_on_c, 0, 79, 94
2, 485638, Control_c, 0, 64, 56
2, 485648, Control_c, 0, 64, 127
2, 485664, Note_on_c, 0, 58, 78
2, 485756, Note_off_c, 0, 58, 0
2, 485760, Note_on_c, 0, 62, 79
2, 485852, Note_off_c, 0, 62, 0
2, 485856, Note_on_c, 0, 58, 74
2, 485948, Note_off_c, 0, 67, 0
2, 485948, Note_off_c, 0, 79, 0
2, 485948, Note_off_c, 0, 58, 0
2, 485952, Note_on_c, 0, 82, 84
2, 485952, Note_on_c, 0, 70, 78
2, 486094, Control_c, 0, 64, 56
2, 486102, Control_c, 0, 64, 0
2, 486140, Note_off_c, 0, 82, 0
2, 486140, Note_off_c, 0, 70, 0
2, 486144, Note_on_c, 0, 81, 88
2, 486144, Note_on_c, 0, 69, 86
2, 486200, Control_c, 0, 64, 72
2, 486208, Control_c, 0, 64, 127
2, 486240, Note_on_c, 0, 57, 84
2, 486332, Note_off_c, 0, 57, 0
2, 486336, Note_on_c, 0, 62, 74
2, 486428, Note_off_c, 0, 62, 0
2, 486432, Note_on_c, 0, 57, 80
2, 486524, Note_off_c, 0, 57, 0
2, 486692, Control_c, 0, 64, 72
2, 486704, Control_c, 0, 64, 0
2, 486716, Note_off_c, 0, 81, 0
2, 486716, Note_off_c, 0, 69, 0
2, 486720, Note_on_c, 0, 84, 92
2, 486720, Note_on_c, 0, 72, 88
2, 486780, Control_c, 0, 64, 40
2, 486790, Control_c, 0, 64, 88
2, 486800, Control_c, 0, 64, 127
2, 486816, Note_on_c, 0, 57, 81
2, 486908, Note_off_c, 0, 57, 0
2, 486912, Note_on_c, 0, 62, 77
2, 487004, Note_off_c, 0, 62, 0
2, 487008, Note_on_c, 0, 57, 75
2, 487100, Note_off_c, 0, 84, 0
2, 487100, Note_off_c, 0, 72, 0
2, 487100, Note_off_c, 0, 57, 0
2, 487104, Note_on_c, 0, 69, 79
2, 487104, Note_on_c, 0, 81, 67
2, 487274, Control_c, 0, 64, 72
2, 487284, Control_c, 0, 64, 0
2, 487292, Note_off_c, 0, 69, 0
2, 487292, Note_off_c, 0, 81, 0
2, 487296, Note_on_c, 0, 78, 93
2, 487296, Note_on_c, 0, 66, 99
2, 487370, Control_c, 0, 64, 88
2, 487380, Control_c, 0, 64, 127
2, 487392, Note_on_c, 0, 57, 82
2, 487484, Note_off_c, 0, 57, 0
2, 487488, Note_on_c, 0, 62, 74
2, 487580, Note_off_c, 0, 62, 0
2, 487584, Note_on_c, 0, 57, 74
2, 487676, Note_off_c, 0, 78, 0
2, 487676, Note_off_c, 0, 66, 0
2, 487676, Note_off_c, 0, 57, 0
2, 487680, Note_on_c, 0, 81, 99
2, 487680, Note_on_c, 0, 69, 99
2, 487846, Control_c, 0, 64, 56
2, 487856, Control_c, 0, 64, 0
2, 487868, Note_off_c, 0, 81, 0
2, 487868, Note_off_c, 0, 69, 0
2, 487872, Note_on_c, 0, 79, 83
2, 487872, Note_on_c, 0, 67, 84
2, 487944, Control_c, 0, 64, 40
2, 487952, Control_c, 0, 64, 127
2, 488064, Note_on_c, 0, 58, 65
2, 488156, Note_off_c, 0, 58, 0
2, 488418, Control_c, 0, 64, 88
2, 488428, Control_c, 0, 64, 0
2, 488444, Note_off_c, 0, 79, 0
2, 488444, Note_off_c, 0, 67, 0
2, 488448, Note_on_c, 0, 48, 56
2, 488448, Note_on_c, 0, 57, 40
2, 488448, Note_on_c, 0, 72, 63
2, 488448, Note_on_c, 0, 63, 50
2, 488524, Control_c, 0, 64, 40
2, 488532, Control_c, 0, 64, 127
2, 488572, Note_off_c, 0, 48, 0
2, 488572, Note_off_c, 0, 57, 0
2, 488572, Note_off_c, 0, 72, 0
2, 488572, Note_off_c, 0, 63, 0
2, 488832, Note_on_c, 0, 48, 55
2, 488832, Note_on_c, 0, 60, 42
2, 488832, Note_on_c, 0, 69, 61
2, 488832, Note_on_c, 0, 63, 49
2, 488892, Note_off_c, 0, 48, 0
2, 488892, Note_off_c, 0, 60, 0
2, 488892, Note_off_c, 0, 69, 0
2, 488892, Note_off_c, 0, 63, 0
2, 488970, Control_c, 0, 64, 56
2, 488980, Control_c, 0, 64, 0
2, 489600, Note_on_c, 0, 57, 55
2, 489600, Note_on_c, 0, 50, 66
2, 489600, Note_on_c, 0, 66, 52
2, 489600, Note_on_c, 0, 60, 62
2, 489724, Note_off_c, 0, 57, 0
2, 489724, Note_off_c, 0, 50, 0
2, 489724, Note_off_c, 0, 66, 0
2, 489724, Note_off_c, 0, 60, 0
2, 489984, Note_on_c, 0, 60, 55
2, 489984, Note_on_c, 0, 50, 59
2, 489984, Note_on_c, 0, 69, 39
2, 489984, Note_on_c, 0, 66, 44
2, 490044, Note_off_c, 0, 60, 0
2, 490044, Note_off_c, 0, 50, 0
2, 490044, Note_off_c, 0, 69, 0
2, 490044, Note_off_c, 0, 66, 0
2, 490176, Note_on_c, 0, 50, 54
2, 490176, Note_on_c, 0, 62, 49
2, 490176, Note_on_c, 0, 66, 55
2, 490176, Note_on_c, 0, 60, 39
2, 490176, Note_on_c, 0, 57, 36
2, 490556, Note_off_c, 0, 50, 0
2, 490556, Note_off_c, 0, 62, 0
2, 490556, Note_off_c, 0, 66, 0
2, 490556, Note_off_c, 0, 60, 0
2, 490556, Note_off_c, 0, 57, 0
2, 490752, Note_on_c, 0, 62, 37
2, 490752, Note_on_c, 0, 67, 64
2, 490752, Note_on_c, 0, 58, 38
2, 491132, Note_off_c, 0, 62, 0
2, 491132, Note_off_c, 0, 67, 0
2, 491132, Note_off_c, 0, 58, 0
2, 495360, Key_signature, 1, "major"
2, 495360, Note_on_c, 0, 59, 29
2, 495360, Note_on_c, 0, 55, 51
2, 495360, Note_on_c, 0, 71, 39
2, 495548, Note_off_c, 0, 71, 0
2, 495552, Note_on_c, 0, 72, 38
2, 495644, Note_off_c, 0, 72, 0
2, 495648, Note_on_c, 0, 71, 44
2, 495740, Note_off_c, 0, 59, 0
2, 495740, Note_off_c, 0, 55, 0
2, 495740, Note_off_c, 0, 71, 0
2, 495744, Note_on_c, 0, 54, 44
2, 495744, Note_on_c, 0, 57, 39
2, 495744, Note_on_c, 0, 74, 48
2, 495932, Note_off_c, 0, 74, 0
2, 495936, Note_on_c, 0, 76, 43
2, 496028, Note_off_c, 0, 76, 0
2, 496032, Note_on_c, 0, 74, 55
2, 496124, Note_off_c, 0, 54, 0
2, 496124, Note_off_c, 0, 57, 0
2, 496124, Note_off_c, 0, 74, 0
2, 496128, Note_on_c, 0, 67, 55
2, 496316, Note_off_c, 0, 67, 0
2, 496320, Note_on_c, 0, 69, 63
2, 496412, Note_off_c, 0, 69, 0
2, 496416, Note_on_c, 0, 67, 51
2, 496508, Note_off_c, 0, 67, 0
2, 496512, Note_on_c, 0, 71, 58
2, 496892, Note_off_c, 0, 71, 0
2, 496896, Note_on_c, 0, 64, 59
2, 497084, Note_off_c, 0, 64, 0
2, 497088, Note_on_c, 0, 66, 38
2, 497180, Note_off_c, 0, 66, 0
2, 497184, Note_on_c, 0, 64, 37
2, 497276, Note_off_c, 0, 64, 0
2, 497280, Note_on_c, 0, 67, 53
2, 497468, Note_off_c, 0, 67, 0
2, 497472, Note_on_c, 0, 69, 48
2, 497564, Note_off_c, 0, 69, 0
2, 497568, Note_on_c, 0, 67, 48
2, 497660, Note_off_c, 0, 67, 0
2, 497664, Note_on_c, 0, 69, 45
2, 497852, Note_off_c, 0, 69, 0
2, 497856, Note_on_c, 0, 71, 32
2, 497948, Note_off_c, 0, 71, 0
2, 497952, Note_on_c, 0, 69, 41
2, 498044, Note_off_c, 0, 69, 0
2, 498048, Note_on_c, 0, 71, 35
2, 498428, Note_off_c, 0, 71, 0
2, 498432, Note_on_c, 0, 59, 41
2, 498432, Note_on_c, 0, 55, 54
2, 498432, Note_on_c, 0, 71, 45
2, 498620, Note_off_c, 0, 71, 0
2, 498624, Note_on_c, 0, 72, 44
2, 498716, Note_off_c, 0, 72, 0
2, 498720, Note_on_c, 0, 71, 45
2, 498812, Note_off_c, 0, 59, 0
2, 498812, Note_off_c, 0, 55, 0
2, 498812, Note_off_c, 0, 71, 0
2, 498816, Note_on_c, 0, 57, 41
2, 498816, Note_on_c, 0, 54, 44
2, 498816, Note_on_c, 0, 74, 45
2, 499004, Note_off_c, 0, 74, 0
2, 499008, Note_on_c, 0, 76, 56
2, 499100, Note_off_c, 0, 76, 0
2, 499104, Note_on_c, 0, 74, 53
2, 499196, Note_off_c, 0, 57, 0
2, 499196, Note_off_c, 0, 54, 0
2, 499196, Note_off_c, 0, 74, 0
2, 499200, Note_on_c, 0, 61, 43
2, 499200, Note_on_c, 0, 52, 49
2, 499200, Note_on_c, 0, 79, 53
2, 499388, Note_off_c, 0, 79, 0
2, 499392, Note_on_c, 0, 81, 51
2, 499484, Note_off_c, 0, 81, 0
2, 499488, Note_on_c, 0, 79, 42
2, 499580, Note_off_c, 0, 61, 0
2, 499580, Note_off_c, 0, 52, 0
2, 499580, Note_off_c, 0, 79, 0
2, 499584, Note_on_c, 0, 62, 36
2, 499584, Note_on_c, 0, 50, 49
2, 499584, Note_on_c, 0, 78, 54
2, 499964, Note_off_c, 0, 62, 0
2, 499964, Note_off_c, 0, 50, 0
2, 499964, Note_off_c, 0, 78, 0
2, 499968, Note_on_c, 0, 59, 24
2, 499968, Note_on_c, 0, 55, 57
2, 499968, Note_on_c, 0, 76, 58
2, 500156, Note_off_c, 0, 76, 0
2, 500160, Note_on_c, 0, 78, 39
2, 500252, Note_off_c, 0, 78, 0
2, 500256, Note_on_c, 0, 76, 61
2, 500348, Note_off_c, 0, 59, 0
2, 500348, Note_off_c, 0, 55, 0
2, 500348, Note_off_c, 0, 76, 0
2, 500352, Note_on_c, 0, 57, 41
2, 500352, Note_on_c, 0, 64, 32
2, 500352, Note_on_c, 0, 73, 40
2, 500396, Note_off_c, 0, 73, 0
2, 500400, Note_on_c, 0, 74, 35
2, 500444, Note_off_c, 0, 74, 0
2, 500448, Note_on_c, 0, 73, 47
2, 500492, Note_off_c, 0, 73, 0
2, 500496, Note_on_c, 0, 74, 33
2, 500540, Note_off_c, 0, 74, 0
2, 500544, Note_on_c, 0, 71, 24
2, 500636, Note_off_c, 0, 71, 0
2, 500640, Note_on_c, 0, 73, 19
2, 500732, Note_off_c, 0, 57, 0
2, 500732, Note_off_c, 0, 64, 0
2, 500732, Note_off_c, 0, 73, 0
2, 500736, Note_on_c, 0, 62, 41
2, 500736, Note_on_c, 0, 50, 41
2, 500736, Note_on_c, 0, 74, 42
2, 500924, Note_off_c, 0, 62, 0
2, 500924, Note_off_c, 0, 50, 0
2, 500924, Note_off_c, 0, 74, 0
2, 501504, Note_on_c, 0, 59, 29
2, 501504, Note_on_c, 0, 55, 51
2, 501504, Note_on_c, 0, 71, 39
2, 501692, Note_off_c, 0, 71, 0
2, 501696, Note_on_c, 0, 72, 38
2, 501788, Note_off_c, 0, 72, 0
2, 501792, Note_on_c, 0, 71, 44
2, 501884, Note_off_c, 0, 59, 0
2, 501884, Note_off_c, 0, 55, 0
2, 501884, Note_off_c, 0, 71, 0
2, 501888, Note_on_c, 0, 54, 44
2, 501888, Note_on_c, 0, 57, 39
2, 501888, Note_on_c, 0, 74, 48
2, 502076, Note_off_c, 0, 74, 0
2, 502080, Note_on_c, 0, 76, 43
2, 502172, Note_off_c, 0, 76, 0
2, 502176, Note_on_c, 0, 74, 55
2, 502268, Note_off_c, 0, 54, 0
2, 502268, Note_off_c, 0, 57, 0
2, 502268, Note_off_c, 0, 74, 0
2, 502272, Note_on_c, 0, 67, 55
2, 502460, Note_off_c, 0, 67, 0
2, 502464, Note_on_c, 0, 69, 63
2, 502556, Note_off_c, 0, 69, 0
2, 502560, Note_on_c, 0, 67, 51
2, 502652, Note_off_c, 0, 67, 0
2, 502656, Note_on_c, 0, 71, 58
2, 503036, Note_off_c, 0, 71, 0
2, 503040, Note_on_c, 0, 64, 59
2, 503228, Note_off_c, 0, 64, 0
2, 503232, Note_on_c, 0, 66, 38
2, 503324, Note_off_c, 0, 66, 0
2, 503328, Note_on_c, 0, 64, 37
2, 503420, Note_off_c, 0, 64, 0
2, 503424, Note_on_c, 0, 67, 53
2, 503612, Note_off_c, 0, 67, 0
2, 503616, Note_on_c, 0, 69, 48
2, 503708, Note_off_c, 0, 69, 0
2, 503712, Note_on_c, 0, 67, 48
2, 503804, Note_off_c, 0, 67, 0
2, 503808, Note_on_c, 0, 69, 45
2, 503996, Note_off_c, 0, 69, 0
2, 504000, Note_on_c, 0, 71, 32
2, 504092, Note_off_c, 0, 71, 0
2, 504096, Note_on_c, 0, 69, 41
2, 504188, Note_off_c, 0, 69, 0
2, 504192, Note_on_c, 0, 71, 35
2, 504572, Note_off_c, 0, 71, 0
2, 504576, Note_on_c, 0, 59, 41
2, 504576, Note_on_c, 0, 55, 54
2, 504576, Note_on_c, 0, 71, 45
2, 504764, Note_off_c, 0, 71, 0
2, 504768, Note_on_c, 0, 72, 44
2, 504860, Note_off_c, 0, 72, 0
2, 504864, Note_on_c, 0, 71, 45
2, 504956, Note_off_c, 0, 59, 0
2, 504956, Note_off_c, 0, 55, 0
2, 504956, Note_off_c, 0, 71, 0
2, 504960, Note_on_c, 0, 57, 41
2, 504960, Note_on_c, 0, 54, 44
2, 504960, Note_on_c, 0, 74, 45
2, 505148, Note_off_c, 0, 74, 0
2, 505152, Note_on_c, 0, 76, 56
2, 505244, Note_off_c, 0, 76, 0
2, 505248, Note_on_c, 0, 74, 53
2, 505340, Note_off_c, 0, 57, 0
2, 505340, Note_off_c, 0, 54, 0
2, 505340, Note_off_c, 0, 74, 0
2, 505344, Note_on_c, 0, 61, 43
2, 505344, Note_on_c, 0, 52, 49
2, 505344, Note_on_c, 0, 79, 53
2, 505532, Note_off_c, 0, 79, 0
2, 505536, Note_on_c, 0, 81, 51
2, 505628, Note_off_c, 0, 81, 0
2, 505632, Note_on_c, 0, 79, 42
2, 505724, Note_off_c, 0, 61, 0
2, 505724, Note_off_c, 0, 52, 0
2, 505724, Note_off_c, 0, 79, 0
2, 505728, Note_on_c, 0, 62, 36
2, 505728, Note_on_c, 0, 50, 49
2, 505728, Note_on_c, 0, 78, 54
2, 506108, Note_off_c, 0, 62, 0
2, 506108, Note_off_c, 0, 50, 0
2, 506108, Note_off_c, 0, 78, 0
2, 506112, Note_on_c, 0, 59, 24
2, 506112, Note_on_c, 0, 55, 57
2, 506112, Note_on_c, 0, 76, 58
2, 506300, Note_off_c, 0, 76, 0
2, 506304, Note_on_c, 0, 78, 39
2, 506396, Note_off_c, 0, 78, 0
2, 506400, Note_on_c, 0, 76, 61
2, 506492, Note_off_c, 0, 59, 0
2, 506492, Note_off_c, 0, 55, 0
2, 506492, Note_off_c, 0, 76, 0
2, 506496, Note_on_c, 0, 57, 41
2, 506496, Note_on_c, 0, 64, 32
2, 506496, Note_on_c, 0, 73, 40
2, 506540, Note_off_c, 0, 73, 0
2, 506544, Note_on_c, 0, 74, 35
2, 506588, Note_off_c, 0, 74, 0
2, 506592, Note_on_c, 0, 73, 47
2, 506636, Note_off_c, 0, 73, 0
2, 506640, Note_on_c, 0, 74, 33
2, 506684, Note_off_c, 0, 74, 0
2, 506688, Note_on_c, 0, 71, 24
2, 506780, Note_off_c, 0, 71, 0
2, 506784, Note_on_c, 0, 73, 19
2, 506876, Note_off_c, 0, 57, 0
2, 506876, Note_off_c, 0, 64, 0
2, 506876, Note_off_c, 0, 73, 0
2, 506880, Note_on_c, 0, 62, 41
2, 506880, Note_on_c, 0, 50, 41
2, 506880, Note_on_c, 0, 74, 42
2, 507068, Note_off_c, 0, 62, 0
2, 507068, Note_off_c, 0, 50, 0
2, 507068, Note_off_c, 0, 74, 0
2, 507936, Note_on_c, 0, 74, 85
2, 507936, Note_on_c, 0, 50, 79
2, 508028, Note_off_c, 0, 74, 0
2, 508028, Note_off_c, 0, 50, 0
2, 508032, Note_on_c, 0, 47, 69
2, 508032, Note_on_c, 0, 71, 71
2, 508092, Note_off_c, 0, 47, 0
2, 508092, Note_off_c, 0, 71, 0
2, 508800, Note_on_c, 0, 62, 75
2, 508800, Note_on_c, 0, 38, 80
2, 509180, Note_off_c, 0, 62, 0
2, 509180, Note_off_c, 0, 38, 0
2, 509376, Note_on_c, 0, 38, 79
2, 509376, Note_on_c, 0, 62, 90
2, 509436, Note_off_c, 0, 38, 0
2, 509436, Note_off_c, 0, 62, 0
2, 510720, Note_on_c, 0, 74, 61
2, 510908, Note_off_c, 0, 74, 0
2, 510912, Note_on_c, 0, 76, 66
2, 511004, Note_off_c, 0, 76, 0
2, 511008, Note_on_c, 0, 74, 65
2, 511100, Note_off_c, 0, 74, 0
2, 511104, Note_on_c, 0, 71, 64
2, 511104, Note_on_c, 0, 67, 65
2, 511292, Note_off_c, 0, 71, 0
2, 511296, Note_on_c, 0, 73, 69
2, 511484, Note_off_c, 0, 67, 0
2, 511484, Note_off_c, 0, 73, 0
2, 511488, Note_on_c, 0, 74, 66
2, 511488, Note_on_c, 0, 66, 42
2, 511868, Note_off_c, 0, 74, 0
2, 511868, Note_off_c, 0, 66, 0
2, 511872, Note_on_c, 0, 71, 49
2, 511872, Note_on_c, 0, 65, 33
2, 512252, Note_off_c, 0, 71, 0
2, 512252, Note_off_c, 0, 65, 0
2, 512256, Note_on_c, 0, 64, 37
2, 512256, Note_on_c, 0, 74, 63
2, 512444, Note_off_c, 0, 74, 0
2, 512448, Note_on_c, 0, 72, 56
2, 512636, Note_off_c, 0, 64, 0
2, 512636, Note_off_c, 0, 72, 0
2, 512640, Note_on_c, 0, 60, 43
2, 512640, Note_on_c, 0, 69, 53
2, 512700, Note_off_c, 0, 69, 0
2, 512832, Note_on_c, 0, 66, 39
2, 512892, Note_off_c, 0, 66, 0
2, 513020, Note_off_c, 0, 60, 0
2, 513024, Note_on_c, 0, 67, 56
2, 513024, Note_on_c, 0, 59, 35
2, 513212, Note_off_c, 0, 67, 0
2, 513212, Note_off_c, 0, 59, 0
2, 514080, Note_on_c, 0, 74, 85
2, 514080, Note_on_c, 0, 50, 79
2, 514172, Note_off_c, 0, 74, 0
2, 514172, Note_off_c, 0, 50, 0
2, 514176, Note_on_c, 0, 47, 69
2, 514176, Note_on_c, 0, 71, 71
2, 514236, Note_off_c, 0, 47, 0
2, 514236, Note_off_c, 0, 71, 0
2, 514944, Note_on_c, 0, 62, 75
2, 514944, Note_on_c, 0, 38, 80
2, 515324, Note_off_c, 0, 62, 0
2, 515324, Note_off_c, 0, 38, 0
2, 515520, Note_on_c, 0, 38, 79
2, 515520, Note_on_c, 0, 62, 90
2, 515580, Note_off_c, 0, 38, 0
2, 515580, Note_off_c, 0, 62, 0
2, 516864, Note_on_c, 0, 74, 61
2, 517052, Note_off_c, 0, 74, 0
2, 517056, Note_on_c, 0, 76, 66
2, 517148, Note_off_c, 0, 76, 0
2, 517152, Note_on_c, 0, 74, 65
2, 517244, Note_off_c, 0, 74, 0
2, 517248, Note_on_c, 0, 71, 64
2, 517248, Note_on_c, 0, 67, 65
2, 517436, Note_off_c, 0, 71, 0
2, 517440, Note_on_c, 0, 73, 69
2, 517628, Note_off_c, 0, 67, 0
2, 517628, Note_off_c, 0, 73, 0
2, 517632, Note_on_c, 0, 74, 66
2, 517632, Note_on_c, 0, 66, 42
2, 518012, Note_off_c, 0, 74, 0
2, 518012, Note_off_c, 0, 66, 0
2, 518016, Note_on_c, 0, 71, 49
2, 518016, Note_on_c, 0, 65, 33
2, 518396, Note_off_c, 0, 71, 0
2, 518396, Note_off_c, 0, 65, 0
2, 518400, Note_on_c, 0, 64, 37
2, 518400, Note_on_c, 0, 74, 63
2, 518588, Note_off_c, 0, 74, 0
2, 518592, Note_on_c, 0, 72, 56
2, 518780, Note_off_c, 0, 64, 0
2, 518780, Note_off_c, 0, 72, 0
2, 518784, Note_on_c, 0, 60, 43
2, 518784, Note_on_c, 0, 69, 53
2, 518844, Note_off_c, 0, 69, 0
2, 518976, Note_on_c, 0, 66, 39
2, 519036, Note_off_c, 0, 66, 0
2, 519164, Note_off_c, 0, 60, 0
2, 519168, Note_on_c, 0, 67, 56
2, 519168, Note_on_c, 0, 43, 42
2, 519168, Note_on_c, 0, 59, 36
2, 519356, Note_off_c, 0, 67, 0
2, 519356, Note_off_c, 0, 43, 0
2, 519356, Note_off_c, 0, 59, 0
2, 519744, Note_on_c, 0, 57, 92
2, 519836, Note_off_c, 0, 57, 0
2, 519936, Note_on_c, 0, 59, 90
2, 520032, Note_on_c, 0, 59, 68
2, 520124, Note_off_c, 0, 59, 0
2, 520124, Note_off_c, 0, 59, 0
2, 520128, Note_on_c, 0, 60, 87
2, 520220, Note_off_c, 0, 60, 0
2, 520224, Note_on_c, 0, 59, 82
2, 520224, Note_on_c, 0, 59, 64
2, 520316, Note_off_c, 0, 59, 0
2, 520316, Note_off_c, 0, 59, 0
2, 520320, Note_on_c, 0, 71, 88
2, 520416, Note_on_c, 0, 59, 72
2, 520508, Note_off_c, 0, 71, 0
2, 520508, Note_off_c, 0, 59, 0
2, 520512, Note_on_c, 0, 72, 84
2, 520604, Note_off_c, 0, 72, 0
2, 520608, Note_on_c, 0, 71, 81
2, 520608, Note_on_c, 0, 59, 66
2, 520700, Note_off_c, 0, 71, 0
2, 520700, Note_off_c, 0, 59, 0
2, 520704, Note_on_c, 0, 64, 90
2, 520800, Note_on_c, 0, 59, 74
2, 520892, Note_off_c, 0, 64, 0
2, 520892, Note_off_c, 0, 59, 0
2, 520896, Note_on_c, 0, 66, 83
2, 520988, Note_off_c, 0, 66, 0
2, 520992, Note_on_c, 0, 64, 81
2, 520992, Note_on_c, 0, 59, 74
2, 521084, Note_off_c, 0, 64, 0
2, 521084, Note_off_c, 0, 59, 0
2, 521088, Note_on_c, 0, 79, 99
2, 521184, Note_on_c, 0, 59, 74
2, 521276, Note_off_c, 0, 59, 0
2, 521280, Note_on_c, 0, 54, 73
2, 521280, Note_on_c, 0, 57, 75
2, 521280, Note_on_c, 0, 52, 76
2, 521372, Note_off_c, 0, 54, 0
2, 521372, Note_off_c, 0, 57, 0
2, 521372, Note_off_c, 0, 52, 0
2, 521376, Note_on_c, 0, 59, 70
2, 521468, Note_off_c, 0, 79, 0
2, 521468, Note_off_c, 0, 59, 0
2, 521472, Note_on_c, 0, 78, 87
2, 521568, Note_on_c, 0, 59, 76
2, 521660, Note_off_c, 0, 78, 0
2, 521660, Note_off_c, 0, 59, 0
2, 521664, Note_on_c, 0, 81, 78
2, 521760, Note_on_c, 0, 59, 84
2, 521852, Note_off_c, 0, 81, 0
2, 521852, Note_off_c, 0, 59, 0
2, 521856, Note_on_c, 0, 78, 88
2, 521952, Note_on_c, 0, 59, 74
2, 522044, Note_off_c, 0, 78, 0
2, 522044, Note_off_c, 0, 59, 0
2, 522048, Note_on_c, 0, 75, 85
2, 522144, Note_on_c, 0, 59, 79
2, 522236, Note_off_c, 0, 75, 0
2, 522236, Note_off_c, 0, 59, 0
2, 522240, Note_on_c, 0, 76, 99
2, 522240, Note_on_c, 0, 72, 82
2, 522240, Note_on_c, 0, 60, 68
2, 522332, Note_off_c, 0, 72, 0
2, 522332, Note_off_c, 0, 60, 0
2, 522336, Note_on_c, 0, 71, 79
2, 522336, Note_on_c, 0, 59, 64
2, 522428, Note_off_c, 0, 71, 0
2, 522428, Note_off_c, 0, 59, 0
2, 522432, Note_on_c, 0, 69, 79
2, 522432, Note_on_c, 0, 57, 66
2, 522524, Note_off_c, 0, 69, 0
2, 522524, Note_off_c, 0, 57, 0
2, 522528, Note_on_c, 0, 55, 64
2, 522528, Note_on_c, 0, 67, 67
2, 522620, Note_off_c, 0, 76, 0
2, 522620, Note_off_c, 0, 55, 0
2, 522620, Note_off_c, 0, 67, 0
2, 522624, Note_on_c, 0, 71, 88
2, 522624, Note_on_c, 0, 66, 77
2, 522624, Note_on_c, 0, 54, 58
2, 522716, Note_off_c, 0, 66, 0
2, 522716, Note_off_c, 0, 54, 0
2, 522812, Note_off_c, 0, 71, 0
2, 522816, Note_on_c, 0, 71, 82
2, 522912, Note_on_c, 0, 52, 62
2, 522912, Note_on_c, 0, 64, 58
2, 523004, Note_off_c, 0, 71, 0
2, 523004, Note_off_c, 0, 52, 0
2, 523004, Note_off_c, 0, 64, 0
2, 523008, Note_on_c, 0, 51, 55
2, 523008, Note_on_c, 0, 63, 60
2, 523100, Note_off_c, 0, 51, 0
2, 523100, Note_off_c, 0, 63, 0
2, 523104, Note_on_c, 0, 52, 73
2, 523104, Note_on_c, 0, 64, 64
2, 523196, Note_off_c, 0, 52, 0
2, 523196, Note_off_c, 0, 64, 0
2, 523296, Note_on_c, 0, 62, 78
2, 523296, Note_on_c, 0, 50, 77
2, 523388, Note_off_c, 0, 62, 0
2, 523388, Note_off_c, 0, 50, 0
2, 523584, Note_on_c, 0, 66, 81
2, 523584, Note_on_c, 0, 47, 79
2, 523584, Note_on_c, 0, 62, 87
2, 523584, Note_on_c, 0, 59, 78
2, 523644, Note_off_c, 0, 66, 0
2, 523644, Note_off_c, 0, 47, 0
2, 523644, Note_off_c, 0, 62, 0
2, 523644, Note_off_c, 0, 59, 0
2, 523776, Note_on_c, 0, 47, 76
2, 523776, Note_on_c, 0, 67, 78
2, 523776, Note_on_c, 0, 64, 75
2, 523776, Note_on_c, 0, 59, 67
2, 523836, Note_off_c, 0, 47, 0
2, 523836, Note_off_c, 0, 67, 0
2, 523836, Note_off_c, 0, 64, 0
2, 523836, Note_off_c, 0, 59, 0
2, 524160, Note_on_c, 0, 47, 74
2, 524160, Note_on_c, 0, 67, 82
2, 524160, Note_on_c, 0, 64, 82
2, 524160, Note_on_c, 0, 59, 68
2, 524220, Note_off_c, 0, 47, 0
2, 524220, Note_off_c, 0, 67, 0
2, 524220, Note_off_c, 0, 64, 0
2, 524220, Note_off_c, 0, 59, 0
2, 524352, Note_on_c, 0, 67, 76
2, 524352, Note_on_c, 0, 64, 68
2, 524352, Note_on_c, 0, 47, 74
2, 524352, Note_on_c, 0, 59, 61
2, 524412, Note_off_c, 0, 67, 0
2, 524412, Note_off_c, 0, 64, 0
2, 524412, Note_off_c, 0, 47, 0
2, 524412, Note_off_c, 0, 59, 0
2, 524544, Note_on_c, 0, 63, 65
2, 524544, Note_on_c, 0, 66, 56
2, 524544, Note_on_c, 0, 59, 57
2, 524544, Note_on_c, 0, 47, 62
2, 524732, Note_off_c, 0, 63, 0
2, 524732, Note_off_c, 0, 66, 0
2, 524732, Note_off_c, 0, 59, 0
2, 524732, Note_off_c, 0, 47, 0
2, 524928, Note_on_c, 0, 59, 92
2, 525116, Note_off_c, 0, 59, 0
2, 525120, Note_on_c, 0, 60, 81
2, 525212, Note_off_c, 0, 60, 0
2, 525216, Note_on_c, 0, 59, 78
2, 525308, Note_off_c, 0, 59, 0
2, 525312, Note_on_c, 0, 71, 79
2, 525500, Note_off_c, 0, 71, 0
2, 525504, Note_on_c, 0, 72, 74
2, 525596, Note_off_c, 0, 72, 0
2, 525600, Note_on_c, 0, 71, 78
2, 525692, Note_off_c, 0, 71, 0
2, 525696, Note_on_c, 0, 83, 97
2, 526076, Note_off_c, 0, 83, 0
2, 526464, Note_on_c, 0, 57, 88
2, 526652, Note_off_c, 0, 57, 0
2, 526656, Note_on_c, 0, 59, 67
2, 526748, Note_off_c, 0, 59, 0
2, 526752, Note_on_c, 0, 57, 77
2, 526844, Note_off_c, 0, 57, 0
2, 526848, Note_on_c, 0, 72, 82
2, 527036, Note_off_c, 0, 72, 0
2, 527040, Note_on_c, 0, 74, 82
2, 527132, Note_off_c, 0, 74, 0
2, 527136, Note_on_c, 0, 72, 74
2, 527228, Note_off_c, 0, 72, 0
2, 527232, Note_on_c, 0, 84, 99
2, 527612, Note_off_c, 0, 84, 0
2, 528384, Note_on_c, 0, 72, 84
2, 528572, Note_off_c, 0, 72, 0
2, 528576, Note_on_c, 0, 74, 74
2, 528668, Note_off_c, 0, 74, 0
2, 528672, Note_on_c, 0, 72, 67
2, 528764, Note_off_c, 0, 72, 0
2, 528768, Note_on_c, 0, 81, 67
2, 528956, Note_off_c, 0, 81, 0
2, 528960, Note_on_c, 0, 83, 69
2, 529052, Note_off_c, 0, 83, 0
2, 529056, Note_on_c, 0, 81, 66
2, 529148, Note_off_c, 0, 81, 0
2, 529152, Note_on_c, 0, 72, 57
2, 529340, Note_off_c, 0, 72, 0
2, 529344, Note_on_c, 0, 74, 56
2, 529436, Note_off_c, 0, 74, 0
2, 529440, Note_on_c, 0, 72, 49
2, 529532, Note_off_c, 0, 72, 0
2, 529536, Note_on_c, 0, 81, 62
2, 529724, Note_off_c, 0, 81, 0
2, 529728, Note_on_c, 0, 83, 46
2, 529820, Note_off_c, 0, 83, 0
2, 529824, Note_on_c, 0, 81, 51
2, 529916, Note_off_c, 0, 81, 0
2, 529920, Note_on_c, 0, 72, 48
2, 530108, Note_off_c, 0, 72, 0
2, 530112, Note_on_c, 0, 74, 56
2, 530204, Note_off_c, 0, 74, 0
2, 530208, Note_on_c, 0, 72, 49
2, 530300, Note_off_c, 0, 72, 0
2, 530304, Note_on_c, 0, 78, 55
2, 530492, Note_off_c, 0, 78, 0
2, 530496, Note_on_c, 0, 79, 57
2, 530588, Note_off_c, 0, 79, 0
2, 530592, Note_on_c, 0, 78, 53
2, 530684, Note_off_c, 0, 78, 0
2, 530688, Note_on_c, 0, 72, 53
2, 530876, Note_off_c, 0, 72, 0
2, 530880, Note_on_c, 0, 74, 44
2, 530972, Note_off_c, 0, 74, 0
2, 530976, Note_on_c, 0, 72, 36
2, 531068, Note_off_c, 0, 72, 0
2, 531072, Note_on_c, 0, 74, 62
2, 531260, Note_off_c, 0, 74, 0
2, 531264, Note_on_c, 0, 76, 58
2, 531356, Note_off_c, 0, 76, 0
2, 531360, Note_on_c, 0, 74, 52
2, 531452, Note_off_c, 0, 74, 0
2, 531456, Note_on_c, 0, 73, 53
2, 531644, Note_off_c, 0, 73, 0
2, 531648, Note_on_c, 0, 74, 63
2, 531740, Note_off_c, 0, 74, 0
2, 531744, Note_on_c, 0, 73, 55
2, 531836, Note_off_c, 0, 73, 0
2, 531840, Note_on_c, 0, 74, 93
2, 532028, Note_off_c, 0, 74, 0
2, 532032, Note_on_c, 0, 76, 85
2, 532124, Note_off_c, 0, 76, 0
2, 532128, Note_on_c, 0, 74, 79
2, 532220, Note_off_c, 0, 74, 0
2, 532224, Note_on_c, 0, 72, 85
2, 532412, Note_off_c, 0, 72, 0
2, 532416, Note_on_c, 0, 74, 77
2, 532508, Note_off_c, 0, 74, 0
2, 532512, Note_on_c, 0, 72, 70
2, 532604, Note_off_c, 0, 72, 0
2, 532608, Note_on_c, 0, 74, 60
2, 532796, Note_off_c, 0, 74, 0
2, 532800, Note_on_c, 0, 76, 62
2, 532892, Note_off_c, 0, 76, 0
2, 532896, Note_on_c, 0, 74, 62
2, 532988, Note_off_c, 0, 74, 0
2, 532992, Note_on_c, 0, 71, 43
2, 533120, Note_on_c, 0, 59, 42
2, 533180, Note_off_c, 0, 71, 0
2, 533184, Note_on_c, 0, 72, 45
2, 533244, Note_off_c, 0, 59, 0
2, 533248, Note_on_c, 0, 62, 38
2, 533276, Note_off_c, 0, 72, 0
2, 533280, Note_on_c, 0, 71, 49
2, 533372, Note_off_c, 0, 62, 0
2, 533372, Note_off_c, 0, 71, 0
2, 533376, Note_on_c, 0, 74, 55
2, 533504, Note_on_c, 0, 57, 41
2, 533564, Note_off_c, 0, 74, 0
2, 533568, Note_on_c, 0, 76, 61
2, 533628, Note_off_c, 0, 57, 0
2, 533632, Note_on_c, 0, 62, 41
2, 533660, Note_off_c, 0, 76, 0
2, 533664, Note_on_c, 0, 74, 62
2, 533756, Note_off_c, 0, 62, 0
2, 533756, Note_off_c, 0, 74, 0
2, 533760, Note_on_c, 0, 67, 71
2, 533948, Note_off_c, 0, 67, 0
2, 533952, Note_on_c, 0, 69, 54
2, 534016, Note_on_c, 0, 59, 43
2, 534044, Note_off_c, 0, 69, 0
2, 534048, Note_on_c, 0, 67, 62
2, 534140, Note_off_c, 0, 59, 0
2, 534140, Note_off_c, 0, 67, 0
2, 534144, Note_on_c, 0, 71, 62
2, 534400, Note_on_c, 0, 59, 51
2, 534524, Note_off_c, 0, 71, 0
2, 534524, Note_off_c, 0, 59, 0
2, 534528, Note_on_c, 0, 64, 65
2, 534716, Note_off_c, 0, 64, 0
2, 534720, Note_on_c, 0, 66, 53
2, 534812, Note_off_c, 0, 66, 0
2, 534816, Note_on_c, 0, 64, 45
2, 534908, Note_off_c, 0, 64, 0
2, 534912, Note_on_c, 0, 67, 63
2, 535100, Note_off_c, 0, 67, 0
2, 535104, Note_on_c, 0, 69, 58
2, 535196, Note_off_c, 0, 69, 0
2, 535200, Note_on_c, 0, 67, 62
2, 535292, Note_off_c, 0, 67, 0
2, 535296, Note_on_c, 0, 69, 58
2, 535484, Note_off_c, 0, 69, 0
2, 535488, Note_on_c, 0, 71, 51
2, 535580, Note_off_c, 0, 71, 0
2, 535584, Note_on_c, 0, 69, 54
2, 535676, Note_off_c, 0, 69, 0
2, 535680, Note_on_c, 0, 71, 51
2, 536060, Note_off_c, 0, 71, 0
2, 536064, Note_on_c, 0, 71, 60
2, 536192, Note_on_c, 0, 59, 52
2, 536252, Note_off_c, 0, 71, 0
2, 536256, Note_on_c, 0, 72, 47
2, 536316, Note_off_c, 0, 59, 0
2, 536320, Note_on_c, 0, 62, 55
2, 536348, Note_off_c, 0, 72, 0
2, 536352, Note_on_c, 0, 71, 55
2, 536444, Note_off_c, 0, 62, 0
2, 536444, Note_off_c, 0, 71, 0
2, 536448, Note_on_c, 0, 74, 67
2, 536576, Note_on_c, 0, 57, 42
2, 536636, Note_off_c, 0, 74, 0
2, 536640, Note_on_c, 0, 76, 58
2, 536700, Note_off_c, 0, 57, 0
2, 536704, Note_on_c, 0, 62, 46
2, 536732, Note_off_c, 0, 76, 0
2, 536736, Note_on_c, 0, 74, 54
2, 536828, Note_off_c, 0, 62, 0
2, 536828, Note_off_c, 0, 74, 0
2, 536832, Note_on_c, 0, 79, 74
2, 536960, Note_on_c, 0, 57, 40
2, 537020, Note_off_c, 0, 79, 0
2, 537024, Note_on_c, 0, 81, 62
2, 537084, Note_off_c, 0, 57, 0
2, 537088, Note_on_c, 0, 61, 61
2, 537116, Note_off_c, 0, 81, 0
2, 537120, Note_on_c, 0, 79, 62
2, 537212, Note_off_c, 0, 61, 0
2, 537212, Note_off_c, 0, 79, 0
2, 537216, Note_on_c, 0, 78, 71
2, 537344, Note_on_c, 0, 57, 54
2, 537468, Note_off_c, 0, 57, 0
2, 537472, Note_on_c, 0, 62, 59
2, 537596, Note_off_c, 0, 78, 0
2, 537596, Note_off_c, 0, 62, 0
2, 537600, Note_on_c, 0, 76, 74
2, 537728, Note_on_c, 0, 59, 55
2, 537788, Note_off_c, 0, 76, 0
2, 537792, Note_on_c, 0, 78, 61
2, 537852, Note_off_c, 0, 59, 0
2, 537856, Note_on_c, 0, 64, 54
2, 537884, Note_off_c, 0, 78, 0
2, 537888, Note_on_c, 0, 76, 64
2, 537980, Note_off_c, 0, 64, 0
2, 537980, Note_off_c, 0, 76, 0
2, 537984, Note_on_c, 0, 73, 68
2, 537984, Note_on_c, 0, 57, 54
2, 538028, Note_off_c, 0, 73, 0
2, 538032, Note_on_c, 0, 74, 69
2, 538076, Note_off_c, 0, 74, 0
2, 538080, Note_on_c, 0, 73, 60
2, 538108, Note_off_c, 0, 57, 0
2, 538112, Note_on_c, 0, 64, 50
2, 538124, Note_off_c, 0, 73, 0
2, 538128, Note_on_c, 0, 74, 62
2, 538172, Note_off_c, 0, 74, 0
2, 538176, Note_on_c, 0, 71, 55
2, 538236, Note_off_c, 0, 64, 0
2, 538240, Note_on_c, 0, 67, 53
2, 538268, Note_off_c, 0, 71, 0
2, 538272, Note_on_c, 0, 73, 52
2, 538364, Note_off_c, 0, 67, 0
2, 538364, Note_off_c, 0, 73, 0
2, 538368, Note_on_c, 0, 74, 56
2, 538368, Note_on_c, 0, 62, 60
2, 538492, Note_off_c, 0, 62, 0
2, 538496, Note_on_c, 0, 69, 59
2, 538556, Note_off_c, 0, 74, 0
2, 538620, Note_off_c, 0, 69, 0
2, 538624, Note_on_c, 0, 66, 50
2, 538748, Note_off_c, 0, 66, 0
2, 538752, Note_on_c, 0, 62, 52
2, 538876, Note_off_c, 0, 62, 0
2, 538880, Note_on_c, 0, 57, 52
2, 539004, Note_off_c, 0, 57, 0
2, 539424, Note_on_c, 0, 74, 85
2, 539424, Note_on_c, 0, 50, 79
2, 539516, Note_off_c, 0, 74, 0
2, 539516, Note_off_c, 0, 50, 0
2, 539520, Note_on_c, 0, 47, 69
2, 539520, Note_on_c, 0, 71, 71
2, 539580, Note_off_c, 0, 47, 0
2, 539580, Note_off_c, 0, 71, 0
2, 540288, Note_on_c, 0, 62, 75
2, 540288, Note_on_c, 0, 38, 80
2, 540668, Note_off_c, 0, 62, 0
2, 540668, Note_off_c, 0, 38, 0
2, 540864, Note_on_c, 0, 38, 79
2, 540864, Note_on_c, 0, 62, 90
2, 540924, Note_off_c, 0, 38, 0
2, 540924, Note_off_c, 0, 62, 0
2, 542208, Note_on_c, 0, 74, 51
2, 542396, Note_off_c, 0, 74, 0
2, 542400, Note_on_c, 0, 76, 56
2, 542464, Note_on_c, 0, 57, 44
2, 542492, Note_off_c, 0, 76, 0
2, 542496, Note_on_c, 0, 74, 49
2, 542588, Note_off_c, 0, 57, 0
2, 542588, Note_off_c, 0, 74, 0
2, 542592, Note_on_c, 0, 71, 51
2, 542652, Note_off_c, 0, 71, 0
2, 542784, Note_on_c, 0, 73, 56
2, 542844, Note_off_c, 0, 73, 0
2, 542848, Note_on_c, 0, 57, 51
2, 542972, Note_off_c, 0, 57, 0
2, 542976, Note_on_c, 0, 74, 63
2, 543232, Note_on_c, 0, 57, 46
2, 543356, Note_off_c, 0, 74, 0
2, 543356, Note_off_c, 0, 57, 0
2, 543360, Note_on_c, 0, 71, 52
2, 543740, Note_off_c, 0, 71, 0
2, 543744, Note_on_c, 0, 74, 46
2, 543932, Note_off_c, 0, 74, 0
2, 543936, Note_on_c, 0, 72, 43
2, 544124, Note_off_c, 0, 72, 0
2, 544128, Note_on_c, 0, 69, 61
2, 544188, Note_off_c, 0, 69, 0
2, 544320, Note_on_c, 0, 66, 55
2, 544380, Note_off_c, 0, 66, 0
2, 544384, Note_on_c, 0, 57, 44
2, 544508, Note_off_c, 0, 57, 0
2, 544512, Note_on_c, 0, 67, 68
2, 544892, Note_off_c, 0, 67, 0
2, 545280, Key_signature, 0, "major"
2, 545952, Note_on_c, 0, 65, 82
2, 545952, Note_on_c, 0, 53, 73
2, 546044, Note_off_c, 0, 65, 0
2, 546044, Note_off_c, 0, 53, 0
2, 546048, Note_on_c, 0, 67, 89
2, 546108, Note_off_c, 0, 67, 0
2, 546240, Note_on_c, 0, 64, 68
2, 546300, Note_off_c, 0, 64, 0
2, 546432, Note_on_c, 0, 72, 80
2, 546492, Note_off_c, 0, 72, 0
2, 546624, Note_on_c, 0, 67, 83
2, 546684, Note_off_c, 0, 67, 0
2, 546816, Note_on_c, 0, 76, 82
2, 546876, Note_off_c, 0, 76, 0
2, 547008, Note_on_c, 0, 72, 66
2, 547068, Note_off_c, 0, 72, 0
2, 547200, Note_on_c, 0, 79, 83
2, 547260, Note_off_c, 0, 79, 0
2, 547392, Note_on_c, 0, 52, 66
2, 547392, Note_on_c, 0, 48, 64
2, 547392, Note_on_c, 0, 55, 67
2, 547392, Note_on_c, 0, 60, 59
2, 547392, Note_on_c, 0, 76, 85
2, 547452, Note_off_c, 0, 76, 0
2, 547580, Note_off_c, 0, 52, 0
2, 547580, Note_off_c, 0, 48, 0
2, 547580, Note_off_c, 0, 55, 0
2, 547580, Note_off_c, 0, 60, 0
2, 547584, Note_on_c, 0, 81, 71
2, 547584, Note_on_c, 0, 69, 63
2, 547584, Note_on_c, 0, 57, 64
2, 547584, Note_on_c, 0, 53, 61
2, 547584, Note_on_c, 0, 60, 48
2, 548060, Note_off_c, 0, 81, 0
2, 548060, Note_off_c, 0, 69, 0
2, 548060, Note_off_c, 0, 57, 0
2, 548060, Note_off_c, 0, 53, 0
2, 548060, Note_off_c, 0, 60, 0
2, 548064, Note_on_c, 0, 60, 70
2, 548064, Note_on_c, 0, 48, 74
2, 548156, Note_off_c, 0, 60, 0
2, 548156, Note_off_c, 0, 48, 0
2, 548160, Note_on_c, 0, 62, 76
2, 548160, Note_on_c, 0, 50, 59
2, 548252, Note_off_c, 0, 62, 0
2, 548252, Note_off_c, 0, 50, 0
2, 548448, Note_on_c, 0, 60, 68
2, 548448, Note_on_c, 0, 48, 74
2, 548540, Note_off_c, 0, 60, 0
2, 548540, Note_off_c, 0, 48, 0
2, 548544, Note_on_c, 0, 50, 64
2, 548544, Note_on_c, 0, 62, 79
2, 548636, Note_off_c, 0, 50, 0
2, 548636, Note_off_c, 0, 62, 0
2, 548640, Note_on_c, 0, 52, 64
2, 548640, Note_on_c, 0, 64, 75
2, 548732, Note_off_c, 0, 52, 0
2, 548732, Note_off_c, 0, 64, 0
2, 548928, Note_on_c, 0, 69, 81
2, 548928, Note_on_c, 0, 57, 58
2, 549020, Note_off_c, 0, 69, 0
2, 549020, Note_off_c, 0, 57, 0
2, 549024, Note_on_c, 0, 70, 73
2, 549024, Note_on_c, 0, 58, 62
2, 549116, Note_off_c, 0, 70, 0
2, 549116, Note_off_c, 0, 58, 0
2, 549120, Note_on_c, 0, 57, 74
2, 549120, Note_on_c, 0, 60, 71
2, 549120, Note_on_c, 0, 53, 74
2, 549120, Note_on_c, 0, 72, 83
2, 549180, Note_off_c, 0, 72, 0
2, 549308, Note_off_c, 0, 57, 0
2, 549308, Note_off_c, 0, 60, 0
2, 549308, Note_off_c, 0, 53, 0
2, 549312, Note_on_c, 0, 60, 81
2, 549312, Note_on_c, 0, 65, 82
2, 549312, Note_on_c, 0, 57, 81
2, 549312, Note_on_c, 0, 53, 74
2, 549312, Note_on_c, 0, 69, 81
2, 549372, Note_off_c, 0, 69, 0
2, 549500, Note_off_c, 0, 60, 0
2, 549500, Note_off_c, 0, 65, 0
2, 549500, Note_off_c, 0, 57, 0
2, 549500, Note_off_c, 0, 53, 0
2, 549504, Note_on_c, 0, 57, 78
2, 549504, Note_on_c, 0, 60, 72
2, 549504, Note_on_c, 0, 65, 72
2, 549504, Note_on_c, 0, 53, 70
2, 549504, Note_on_c, 0, 77, 84
2, 549564, Note_off_c, 0, 77, 0
2, 549692, Note_off_c, 0, 57, 0
2, 549692, Note_off_c, 0, 60, 0
2, 549692, Note_off_c, 0, 65, 0
2, 549692, Note_off_c, 0, 53, 0
2, 549696, Note_on_c, 0, 65, 70
2, 549696, Note_on_c, 0, 57, 77
2, 549696, Note_on_c, 0, 60, 74
2, 549696, Note_on_c, 0, 53, 72
2, 549696, Note_on_c, 0, 72, 81
2, 549756, Note_off_c, 0, 72, 0
2, 549884, Note_off_c, 0, 65, 0
2, 549884, Note_off_c, 0, 57, 0
2, 549884, Note_off_c, 0, 60, 0
2, 549884, Note_off_c, 0, 53, 0
2, 549888, Note_on_c, 0, 57, 76
2, 549888, Note_on_c, 0, 60, 74
2, 549888, Note_on_c, 0, 65, 68
2, 549888, Note_on_c, 0, 53, 68
2, 549888, Note_on_c, 0, 81, 74
2, 549948, Note_off_c, 0, 81, 0
2, 550076, Note_off_c, 0, 57, 0
2, 550076, Note_off_c, 0, 60, 0
2, 550076, Note_off_c, 0, 65, 0
2, 550076, Note_off_c, 0, 53, 0
2, 550080, Note_on_c, 0, 60, 74
2, 550080, Note_on_c, 0, 65, 70
2, 550080, Note_on_c, 0, 57, 77
2, 550080, Note_on_c, 0, 53, 74
2, 550080, Note_on_c, 0, 77, 79
2, 550140, Note_off_c, 0, 77, 0
2, 550268, Note_off_c, 0, 60, 0
2, 550268, Note_off_c, 0, 65, 0
2, 550268, Note_off_c, 0, 57, 0
2, 550268, Note_off_c, 0, 53, 0
2, 550272, Note_on_c, 0, 62, 79
2, 550272, Note_on_c, 0, 59, 80
2, 550272, Note_on_c, 0, 55, 75
2, 550272, Note_on_c, 0, 89, 83
2, 550332, Note_off_c, 0, 89, 0
2, 550460, Note_off_c, 0, 62, 0
2, 550460, Note_off_c, 0, 59, 0
2, 550460, Note_off_c, 0, 55, 0
2, 550464, Note_on_c, 0, 59, 80
2, 550464, Note_on_c, 0, 62, 74
2, 550464, Note_on_c, 0, 55, 79
2, 550464, Note_on_c, 0, 83, 87
2, 550524, Note_off_c, 0, 83, 0
2, 550652, Note_off_c, 0, 59, 0
2, 550652, Note_off_c, 0, 62, 0
2, 550652, Note_off_c, 0, 55, 0
2, 550656, Note_on_c, 0, 84, 85
2, 550656, Note_on_c, 0, 72, 78
2, 550656, Note_on_c, 0, 48, 84
2, 550656, Note_on_c, 0, 60, 79
2, 551132, Note_off_c, 0, 84, 0
2, 551132, Note_off_c, 0, 72, 0
2, 551132, Note_off_c, 0, 48, 0
2, 551132, Note_off_c, 0, 60, 0
2, 551328, Note_on_c, 0, 47, 67
2, 551328, Note_on_c, 0, 59, 78
2, 551420, Note_off_c, 0, 47, 0
2, 551420, Note_off_c, 0, 59, 0
2, 551424, Note_on_c, 0, 60, 77
2, 551424, Note_on_c, 0, 48, 71
2, 551516, Note_off_c, 0, 60, 0
2, 551516, Note_off_c, 0, 48, 0
2, 551616, Note_on_c, 0, 45, 63
2, 551616, Note_on_c, 0, 57, 82
2, 551708, Note_off_c, 0, 45, 0
2, 551708, Note_off_c, 0, 57, 0
2, 551712, Note_on_c, 0, 47, 71
2, 551712, Note_on_c, 0, 59, 77
2, 551804, Note_off_c, 0, 47, 0
2, 551804, Note_off_c, 0, 59, 0
2, 551904, Note_on_c, 0, 62, 75
2, 551904, Note_on_c, 0, 50, 67
2, 551996, Note_off_c, 0, 62, 0
2, 551996, Note_off_c, 0, 50, 0
2, 552000, Note_on_c, 0, 52, 70
2, 552000, Note_on_c, 0, 64, 78
2, 552092, Note_off_c, 0, 52, 0
2, 552092, Note_off_c, 0, 64, 0
2, 552096, Note_on_c, 0, 65, 83
2, 552096, Note_on_c, 0, 53, 69
2, 552188, Note_off_c, 0, 65, 0
2, 552188, Note_off_c, 0, 53, 0
2, 552192, Note_on_c, 0, 67, 93
2, 552284, Note_off_c, 0, 67, 0
2, 552288, Note_on_c, 0, 64, 79
2, 552380, Note_off_c, 0, 64, 0
2, 552384, Note_on_c, 0, 60, 87
2, 552476, Note_off_c, 0, 60, 0
2, 552480, Note_on_c, 0, 67, 96
2, 552572, Note_off_c, 0, 67, 0
2, 552576, Note_on_c, 0, 72, 86
2, 552668, Note_off_c, 0, 72, 0
2, 552672, Note_on_c, 0, 67, 89
2, 552764, Note_off_c, 0, 67, 0
2, 552768, Note_on_c, 0, 64, 84
2, 552860, Note_off_c, 0, 64, 0
2, 552864, Note_on_c, 0, 72, 87
2, 552956, Note_off_c, 0, 72, 0
2, 552960, Note_on_c, 0, 76, 80
2, 553052, Note_off_c, 0, 76, 0
2, 553056, Note_on_c, 0, 72, 84
2, 553148, Note_off_c, 0, 72, 0
2, 553152, Note_on_c, 0, 67, 82
2, 553152, Note_on_c, 0, 60, 70
2, 553152, Note_on_c, 0, 55, 70
2, 553152, Note_on_c, 0, 52, 74
2, 553152, Note_on_c, 0, 48, 64
2, 553244, Note_off_c, 0, 67, 0
2, 553248, Note_on_c, 0, 76, 78
2, 553340, Note_off_c, 0, 60, 0
2, 553340, Note_off_c, 0, 55, 0
2, 553340, Note_off_c, 0, 52, 0
2, 553340, Note_off_c, 0, 48, 0
2, 553340, Note_off_c, 0, 76, 0
2, 553344, Note_on_c, 0, 79, 90
2, 553436, Note_off_c, 0, 79, 0
2, 553440, Note_on_c, 0, 76, 88
2, 553532, Note_off_c, 0, 76, 0
2, 553536, Note_on_c, 0, 72, 82
2, 553628, Note_off_c, 0, 72, 0
2, 553632, Note_on_c, 0, 79, 94
2, 553724, Note_off_c, 0, 79, 0
2, 553728, Note_on_c, 0, 69, 88
2, 553728, Note_on_c, 0, 53, 81
2, 553728, Note_on_c, 0, 72, 87
2, 553728, Note_on_c, 0, 77, 92
2, 553728, Note_on_c, 0, 81, 78
2, 553728, Note_on_c, 0, 57, 75
2, 553728, Note_on_c, 0, 60, 82
2, 554204, Note_off_c, 0, 69, 0
2, 554204, Note_off_c, 0, 53, 0
2, 554204, Note_off_c, 0, 72, 0
2, 554204, Note_off_c, 0, 77, 0
2, 554204, Note_off_c, 0, 81, 0
2, 554204, Note_off_c, 0, 57, 0
2, 554204, Note_off_c, 0, 60, 0
2, 554208, Note_on_c, 0, 60, 75
2, 554208, Note_on_c, 0, 48, 73
2, 554300, Note_off_c, 0, 60, 0
2, 554300, Note_off_c, 0, 48, 0
2, 554496, Note_on_c, 0, 65, 77
2, 554496, Note_on_c, 0, 53, 64
2, 554588, Note_off_c, 0, 65, 0
2, 554588, Note_off_c, 0, 53, 0
2, 554592, Note_on_c, 0, 48, 71
2, 554592, Note_on_c, 0, 60, 69
2, 554684, Note_off_c, 0, 48, 0
2, 554684, Note_off_c, 0, 60, 0
2, 554688, Note_on_c, 0, 62, 77
2, 554688, Note_on_c, 0, 50, 69
2, 554780, Note_off_c, 0, 62, 0
2, 554780, Note_off_c, 0, 50, 0
2, 554784, Note_on_c, 0, 52, 70
2, 554784, Note_on_c, 0, 64, 81
2, 554876, Note_off_c, 0, 52, 0
2, 554876, Note_off_c, 0, 64, 0
2, 554880, Note_on_c, 0, 65, 77
2, 554880, Note_on_c, 0, 53, 70
2, 554972, Note_off_c, 0, 65, 0
2, 554972, Note_off_c, 0, 53, 0
2, 555072, Note_on_c, 0, 69, 78
2, 555072, Note_on_c, 0, 57, 68
2, 555164, Note_off_c, 0, 69, 0
2, 555164, Note_off_c, 0, 57, 0
2, 555168, Note_on_c, 0, 70, 77
2, 555168, Note_on_c, 0, 58, 73
2, 555260, Note_off_c, 0, 70, 0
2, 555260, Note_off_c, 0, 58, 0
2, 555264, Note_on_c, 0, 72, 82
2, 555264, Note_on_c, 0, 57, 86
2, 555264, Note_on_c, 0, 60, 80
2, 555264, Note_on_c, 0, 53, 82
2, 555356, Note_off_c, 0, 72, 0
2, 555360, Note_on_c, 0, 69, 84
2, 555452, Note_off_c, 0, 57, 0
2, 555452, Note_off_c, 0, 60, 0
2, 555452, Note_off_c, 0, 53, 0
2, 555452, Note_off_c, 0, 69, 0
2, 555456, Note_on_c, 0, 65, 88
2, 555456, Note_on_c, 0, 53, 87
2, 555456, Note_on_c, 0, 60, 88
2, 555456, Note_on_c, 0, 57, 84
2, 555548, Note_off_c, 0, 65, 0
2, 555552, Note_on_c, 0, 72, 86
2, 555644, Note_off_c, 0, 53, 0
2, 555644, Note_off_c, 0, 60, 0
2, 555644, Note_off_c, 0, 57, 0
2, 555644, Note_off_c, 0, 72, 0
2, 555648, Note_on_c, 0, 77, 96
2, 555648, Note_on_c, 0, 60, 77
2, 555648, Note_on_c, 0, 53, 84
2, 555648, Note_on_c, 0, 57, 78
2, 555740, Note_off_c, 0, 77, 0
2, 555744, Note_on_c, 0, 72, 90
2, 555836, Note_off_c, 0, 60, 0
2, 555836, Note_off_c, 0, 53, 0
2, 555836, Note_off_c, 0, 57, 0
2, 555836, Note_off_c, 0, 72, 0
2, 555840, Note_on_c, 0, 69, 87
2, 555840, Note_on_c, 0, 57, 83
2, 555840, Note_on_c, 0, 60, 79
2, 555840, Note_on_c, 0, 53, 77
2, 555932, Note_off_c, 0, 69, 0
2, 555936, Note_on_c, 0, 77, 92
2, 556028, Note_off_c, 0, 57, 0
2, 556028, Note_off_c, 0, 60, 0
2, 556028, Note_off_c, 0, 53, 0
2, 556028, Note_off_c, 0, 77, 0
2, 556032, Note_on_c, 0, 81, 76
2, 556032, Note_on_c, 0, 57, 78
2, 556032, Note_on_c, 0, 65, 81
2, 556032, Note_on_c, 0, 60, 73
2, 556032, Note_on_c, 0, 53, 77
2, 556124, Note_off_c, 0, 81, 0
2, 556128, Note_on_c, 0, 77, 89
2, 556220, Note_off_c, 0, 57, 0
2, 556220, Note_off_c, 0, 65, 0
2, 556220, Note_off_c, 0, 60, 0
2, 556220, Note_off_c, 0, 53, 0
2, 556220, Note_off_c, 0, 77, 0
2, 556224, Note_on_c, 0, 72, 76
2, 556316, Note_off_c, 0, 72, 0
2, 556320, Note_on_c, 0, 81, 92
2, 556412, Note_off_c, 0, 81, 0
2, 556416, Note_on_c, 0, 77, 90
2, 556416, Note_on_c, 0, 55, 72
2, 556416, Note_on_c, 0, 62, 62
2, 556416, Note_on_c, 0, 59, 60
2, 556508, Note_off_c, 0, 77, 0
2, 556512, Note_on_c, 0, 89, 92
2, 556604, Note_off_c, 0, 55, 0
2, 556604, Note_off_c, 0, 62, 0
2, 556604, Note_off_c, 0, 59, 0
2, 556604, Note_off_c, 0, 89, 0
2, 556608, Note_on_c, 0, 86, 89
2, 556608, Note_on_c, 0, 62, 83
2, 556608, Note_on_c, 0, 59, 74
2, 556608, Note_on_c, 0, 55, 82
2, 556700, Note_off_c, 0, 86, 0
2, 556704, Note_on_c, 0, 83, 86
2, 556796, Note_off_c, 0, 62, 0
2, 556796, Note_off_c, 0, 59, 0
2, 556796, Note_off_c, 0, 55, 0
2, 556796, Note_off_c, 0, 83, 0
2, 556800, Note_on_c, 0, 84, 99
2, 556800, Note_on_c, 0, 48, 87
2, 556800, Note_on_c, 0, 60, 86
2, 556988, Note_off_c, 0, 84, 0
2, 556988, Note_off_c, 0, 48, 0
2, 556988, Note_off_c, 0, 60, 0
2, 557568, Note_on_c, 0, 76, 63
2, 557568, Note_on_c, 0, 60, 43
2, 557692, Note_off_c, 0, 60, 0
2, 557696, Note_on_c, 0, 64, 42
2, 557756, Note_off_c, 0, 76, 0
2, 557760, Note_on_c, 0, 77, 56
2, 557820, Note_off_c, 0, 64, 0
2, 557824, Note_on_c, 0, 67, 56
2, 557852, Note_off_c, 0, 77, 0
2, 557856, Note_on_c, 0, 76, 63
2, 557948, Note_off_c, 0, 67, 0
2, 557948, Note_off_c, 0, 76, 0
2, 557952, Note_on_c, 0, 79, 56
2, 557952, Note_on_c, 0, 59, 60
2, 558076, Note_off_c, 0, 59, 0
2, 558080, Note_on_c, 0, 62, 51
2, 558140, Note_off_c, 0, 79, 0
2, 558144, Note_on_c, 0, 81, 43
2, 558204, Note_off_c, 0, 62, 0
2, 558208, Note_on_c, 0, 67, 44
2, 558236, Note_off_c, 0, 81, 0
2, 558240, Note_on_c, 0, 79, 55
2, 558332, Note_off_c, 0, 67, 0
2, 558332, Note_off_c, 0, 79, 0
2, 558336, Note_on_c, 0, 76, 56
2, 558336, Note_on_c, 0, 60, 42
2, 558460, Note_off_c, 0, 60, 0
2, 558464, Note_on_c, 0, 64, 30
2, 558524, Note_off_c, 0, 76, 0
2, 558528, Note_on_c, 0, 77, 52
2, 558588, Note_off_c, 0, 64, 0
2, 558592, Note_on_c, 0, 67, 44
2, 558620, Note_off_c, 0, 77, 0
2, 558624, Note_on_c, 0, 76, 52
2, 558716, Note_off_c, 0, 67, 0
2, 558716, Note_off_c, 0, 76, 0
2, 558720, Note_on_c, 0, 79, 62
2, 558720, Note_on_c, 0, 59, 42
2, 558844, Note_off_c, 0, 59, 0
2, 558848, Note_on_c, 0, 62, 43
2, 558908, Note_off_c, 0, 79, 0
2, 558912, Note_on_c, 0, 81, 39
2, 558972, Note_off_c, 0, 62, 0
2, 558976, Note_on_c, 0, 67, 47
2, 559004, Note_off_c, 0, 81, 0
2, 559008, Note_on_c, 0, 79, 56
2, 559100, Note_off_c, 0, 67, 0
2, 559100, Note_off_c, 0, 79, 0
2, 559104, Note_on_c, 0, 72, 39
2, 559104, Note_on_c, 0, 57, 45
2, 559228, Note_off_c, 0, 57, 0
2, 559232, Note_on_c, 0, 60, 47
2, 559292, Note_off_c, 0, 72, 0
2, 559296, Note_on_c, 0, 74, 52
2, 559356, Note_off_c, 0, 60, 0
2, 559360, Note_on_c, 0, 64, 32
2, 559388, Note_off_c, 0, 74, 0
2, 559392, Note_on_c, 0, 72, 48
2, 559484, Note_off_c, 0, 64, 0
2, 559484, Note_off_c, 0, 72, 0
2, 559488, Note_on_c, 0, 76, 48
2, 559616, Note_on_c, 0, 59, 34
2, 559676, Note_off_c, 0, 76, 0
2, 559680, Note_on_c, 0, 77, 52
2, 559740, Note_off_c, 0, 59, 0
2, 559744, Note_on_c, 0, 64, 42
2, 559772, Note_off_c, 0, 77, 0
2, 559776, Note_on_c, 0, 76, 49
2, 559868, Note_off_c, 0, 64, 0
2, 559868, Note_off_c, 0, 76, 0
2, 559872, Note_on_c, 0, 72, 44
2, 559872, Note_on_c, 0, 57, 54
2, 559996, Note_off_c, 0, 57, 0
2, 560000, Note_on_c, 0, 60, 42
2, 560060, Note_off_c, 0, 72, 0
2, 560064, Note_on_c, 0, 74, 56
2, 560124, Note_off_c, 0, 60, 0
2, 560128, Note_on_c, 0, 64, 42
2, 560156, Note_off_c, 0, 74, 0
2, 560160, Note_on_c, 0, 72, 53
2, 560252, Note_off_c, 0, 64, 0
2, 560252, Note_off_c, 0, 72, 0
2, 560256, Note_on_c, 0, 76, 67
2, 560384, Note_on_c, 0, 59, 29
2, 560444, Note_off_c, 0, 76, 0
2, 560448, Note_on_c, 0, 77, 54
2, 560508, Note_off_c, 0, 59, 0
2, 560512, Note_on_c, 0, 64, 34
2, 560540, Note_off_c, 0, 77, 0
2, 560544, Note_on_c, 0, 76, 63
2, 560636, Note_off_c, 0, 64, 0
2, 560636, Note_off_c, 0, 76, 0
2, 560640, Note_on_c, 0, 57, 42
2, 560640, Note_on_c, 0, 72, 44
2, 560764, Note_off_c, 0, 57, 0
2, 560768, Note_on_c, 0, 60, 42
2, 560828, Note_off_c, 0, 72, 0
2, 560832, Note_on_c, 0, 74, 53
2, 560892, Note_off_c, 0, 60, 0
2, 560896, Note_on_c, 0, 64, 33
2, 560924, Note_off_c, 0, 74, 0
2, 560928, Note_on_c, 0, 72, 54
2, 561020, Note_off_c, 0, 64, 0
2, 561020, Note_off_c, 0, 72, 0
2, 561024, Note_on_c, 0, 74, 54
2, 561152, Note_on_c, 0, 57, 26
2, 561212, Note_off_c, 0, 74, 0
2, 561216, Note_on_c, 0, 76, 56
2, 561276, Note_off_c, 0, 57, 0
2, 561280, Note_on_c, 0, 62, 40
2, 561308, Note_off_c, 0, 76, 0
2, 561312, Note_on_c, 0, 74, 61
2, 561404, Note_off_c, 0, 62, 0
2, 561404, Note_off_c, 0, 74, 0
2, 561408, Key_signature, 1, "major"
2, 561408, Note_on_c, 0, 71, 46
2, 561504, Note_on_c, 0, 59, 52
2, 561596, Note_off_c, 0, 71, 0
2, 561596, Note_off_c, 0, 59, 0
2, 561600, Note_on_c, 0, 72, 56
2, 561600, Note_on_c, 0, 62, 46
2, 561692, Note_off_c, 0, 72, 0
2, 561692, Note_off_c, 0, 62, 0
2, 561696, Note_on_c, 0, 71, 37
2, 561696, Note_on_c, 0, 59, 48
2, 561788, Note_off_c, 0, 71, 0
2, 561788, Note_off_c, 0, 59, 0
2, 561792, Note_on_c, 0, 74, 67
2, 561888, Note_on_c, 0, 57, 54
2, 561980, Note_off_c, 0, 74, 0
2, 561980, Note_off_c, 0, 57, 0
2, 561984, Note_on_c, 0, 76, 70
2, 561984, Note_on_c, 0, 62, 55
2, 562076, Note_off_c, 0, 76, 0
2, 562076, Note_off_c, 0, 62, 0
2, 562080, Note_on_c, 0, 74, 71
2, 562080, Note_on_c, 0, 57, 66
2, 562172, Note_off_c, 0, 74, 0
2, 562172, Note_off_c, 0, 57, 0
2, 562176, Note_on_c, 0, 67, 66
2, 562364, Note_off_c, 0, 67, 0
2, 562368, Note_on_c, 0, 69, 61
2, 562368, Note_on_c, 0, 59, 55
2, 562460, Note_off_c, 0, 69, 0
2, 562460, Note_off_c, 0, 59, 0
2, 562464, Note_on_c, 0, 67, 63
2, 562556, Note_off_c, 0, 67, 0
2, 562560, Note_on_c, 0, 71, 55
2, 562752, Note_on_c, 0, 59, 44
2, 562844, Note_off_c, 0, 59, 0
2, 562940, Note_off_c, 0, 71, 0
2, 562944, Note_on_c, 0, 64, 60
2, 563132, Note_off_c, 0, 64, 0
2, 563136, Note_on_c, 0, 66, 62
2, 563228, Note_off_c, 0, 66, 0
2, 563232, Note_on_c, 0, 64, 66
2, 563324, Note_off_c, 0, 64, 0
2, 563328, Note_on_c, 0, 67, 68
2, 563516, Note_off_c, 0, 67, 0
2, 563520, Note_on_c, 0, 69, 58
2, 563612, Note_off_c, 0, 69, 0
2, 563616, Note_on_c, 0, 67, 62
2, 563708, Note_off_c, 0, 67, 0
2, 563712, Note_on_c, 0, 69, 63
2, 563900, Note_off_c, 0, 69, 0
2, 563904, Note_on_c, 0, 71, 65
2, 563996, Note_off_c, 0, 71, 0
2, 564000, Note_on_c, 0, 69, 62
2, 564092, Note_off_c, 0, 69, 0
2, 564096, Note_on_c, 0, 71, 62
2, 564476, Note_off_c, 0, 71, 0
2, 564480, Note_on_c, 0, 71, 60
2, 564576, Note_on_c, 0, 62, 52
2, 564668, Note_off_c, 0, 71, 0
2, 564668, Note_off_c, 0, 62, 0
2, 564672, Note_on_c, 0, 59, 55
2, 564672, Note_on_c, 0, 72, 56
2, 564764, Note_off_c, 0, 59, 0
2, 564764, Note_off_c, 0, 72, 0
2, 564768, Note_on_c, 0, 62, 56
2, 564768, Note_on_c, 0, 71, 63
2, 564860, Note_off_c, 0, 62, 0
2, 564860, Note_off_c, 0, 71, 0
2, 564864, Note_on_c, 0, 74, 79
2, 564960, Note_on_c, 0, 62, 49
2, 565052, Note_off_c, 0, 74, 0
2, 565052, Note_off_c, 0, 62, 0
2, 565056, Note_on_c, 0, 57, 41
2, 565056, Note_on_c, 0, 76, 74
2, 565148, Note_off_c, 0, 57, 0
2, 565148, Note_off_c, 0, 76, 0
2, 565152, Note_on_c, 0, 62, 43
2, 565152, Note_on_c, 0, 74, 66
2, 565244, Note_off_c, 0, 62, 0
2, 565244, Note_off_c, 0, 74, 0
2, 565248, Note_on_c, 0, 79, 76
2, 565344, Note_on_c, 0, 61, 48
2, 565436, Note_off_c, 0, 79, 0
2, 565436, Note_off_c, 0, 61, 0
2, 565440, Note_on_c, 0, 57, 38
2, 565440, Note_on_c, 0, 81, 57
2, 565532, Note_off_c, 0, 57, 0
2, 565532, Note_off_c, 0, 81, 0
2, 565536, Note_on_c, 0, 61, 50
2, 565536, Note_on_c, 0, 79, 66
2, 565628, Note_off_c, 0, 61, 0
2, 565628, Note_off_c, 0, 79, 0
2, 565632, Note_on_c, 0, 78, 67
2, 565728, Note_on_c, 0, 62, 46
2, 565820, Note_off_c, 0, 62, 0
2, 565824, Note_on_c, 0, 57, 49
2, 565916, Note_off_c, 0, 57, 0
2, 565920, Note_on_c, 0, 62, 54
2, 566012, Note_off_c, 0, 78, 0
2, 566012, Note_off_c, 0, 62, 0
2, 566016, Note_on_c, 0, 76, 62
2, 566112, Note_on_c, 0, 64, 54
2, 566204, Note_off_c, 0, 76, 0
2, 566204, Note_off_c, 0, 64, 0
2, 566208, Note_on_c, 0, 59, 51
2, 566208, Note_on_c, 0, 78, 65
2, 566300, Note_off_c, 0, 59, 0
2, 566300, Note_off_c, 0, 78, 0
2, 566304, Note_on_c, 0, 64, 54
2, 566304, Note_on_c, 0, 76, 70
2, 566352, Note_on_c, 0, 74, 54
2, 566396, Note_off_c, 0, 64, 0
2, 566396, Note_off_c, 0, 76, 0
2, 566396, Note_off_c, 0, 74, 0
2, 566400, Note_on_c, 0, 57, 41
2, 566400, Note_on_c, 0, 73, 60
2, 566492, Note_off_c, 0, 57, 0
2, 566496, Note_on_c, 0, 67, 56
2, 566588, Note_off_c, 0, 73, 0
2, 566588, Note_off_c, 0, 67, 0
2, 566592, Note_on_c, 0, 64, 50
2, 566592, Note_on_c, 0, 71, 62
2, 566684, Note_off_c, 0, 64, 0
2, 566684, Note_off_c, 0, 71, 0
2, 566688, Note_on_c, 0, 67, 56
2, 566688, Note_on_c, 0, 73, 64
2, 566780, Note_off_c, 0, 67, 0
2, 566780, Note_off_c, 0, 73, 0
2, 566784, Note_on_c, 0, 74, 63
2, 566972, Note_off_c, 0, 74, 0
2, 566976, Note_on_c, 0, 57, 53
2, 567068, Note_off_c, 0, 57, 0
2, 567072, Note_on_c, 0, 62, 60
2, 567164, Note_off_c, 0, 62, 0
2, 567168, Note_on_c, 0, 61, 31
2, 567260, Note_off_c, 0, 61, 0
2, 567264, Note_on_c, 0, 62, 51
2, 567356, Note_off_c, 0, 62, 0
2, 567360, Note_on_c, 0, 60, 48
2, 567452, Note_off_c, 0, 60, 0
2, 567456, Note_on_c, 0, 57, 51
2, 567548, Note_off_c, 0, 57, 0
2, 567648, Note_on_c, 0, 62, 40
2, 567680, Note_on_c, 0, 71, 63
2, 567740, Note_off_c, 0, 62, 0
2, 567744, Note_on_c, 0, 59, 42
2, 567804, Note_off_c, 0, 71, 0
2, 567808, Note_on_c, 0, 83, 71
2, 567836, Note_off_c, 0, 59, 0
2, 567840, Note_on_c, 0, 62, 53
2, 567932, Note_off_c, 0, 83, 0
2, 567932, Note_off_c, 0, 62, 0
2, 568032, Note_on_c, 0, 62, 62
2, 568064, Note_on_c, 0, 74, 71
2, 568124, Note_off_c, 0, 62, 0
2, 568128, Note_on_c, 0, 57, 56
2, 568188, Note_off_c, 0, 74, 0
2, 568192, Note_on_c, 0, 86, 64
2, 568220, Note_off_c, 0, 57, 0
2, 568224, Note_on_c, 0, 62, 45
2, 568316, Note_off_c, 0, 86, 0
2, 568316, Note_off_c, 0, 62, 0
2, 568416, Note_on_c, 0, 59, 44
2, 568448, Note_on_c, 0, 67, 70
2, 568508, Note_off_c, 0, 59, 0
2, 568572, Note_off_c, 0, 67, 0
2, 568576, Note_on_c, 0, 79, 64
2, 568608, Note_on_c, 0, 59, 41
2, 568700, Note_off_c, 0, 79, 0
2, 568700, Note_off_c, 0, 59, 0
2, 568800, Note_on_c, 0, 59, 47
2, 568832, Note_on_c, 0, 71, 58
2, 568892, Note_off_c, 0, 59, 0
2, 568956, Note_off_c, 0, 71, 0
2, 568960, Note_on_c, 0, 83, 71
2, 568992, Note_on_c, 0, 59, 44
2, 569084, Note_off_c, 0, 83, 0
2, 569084, Note_off_c, 0, 59, 0
2, 569216, Note_on_c, 0, 64, 65
2, 569340, Note_off_c, 0, 64, 0
2, 569344, Note_on_c, 0, 76, 66
2, 569468, Note_off_c, 0, 76, 0
2, 569600, Note_on_c, 0, 67, 70
2, 569724, Note_off_c, 0, 67, 0
2, 569728, Note_on_c, 0, 79, 67
2, 569852, Note_off_c, 0, 79, 0
2, 569984, Note_on_c, 0, 69, 63
2, 570108, Note_off_c, 0, 69, 0
2, 570112, Note_on_c, 0, 81, 64
2, 570236, Note_off_c, 0, 81, 0
2, 570368, Note_on_c, 0, 71, 64
2, 570492, Note_off_c, 0, 71, 0
2, 570496, Note_on_c, 0, 83, 70
2, 570620, Note_off_c, 0, 83, 0
2, 570720, Note_on_c, 0, 62, 36
2, 570752, Note_on_c, 0, 71, 64
2, 570812, Note_off_c, 0, 62, 0
2, 570816, Note_on_c, 0, 59, 56
2, 570876, Note_off_c, 0, 71, 0
2, 570880, Note_on_c, 0, 83, 68
2, 570908, Note_off_c, 0, 59, 0
2, 570912, Note_on_c, 0, 62, 43
2, 571004, Note_off_c, 0, 83, 0
2, 571004, Note_off_c, 0, 62, 0
2, 571104, Note_on_c, 0, 62, 51
2, 571136, Note_on_c, 0, 74, 70
2, 571196, Note_off_c, 0, 62, 0
2, 571200, Note_on_c, 0, 57, 47
2, 571260, Note_off_c, 0, 74, 0
2, 571264, Note_on_c, 0, 86, 67
2, 571292, Note_off_c, 0, 57, 0
2, 571296, Note_on_c, 0, 62, 45
2, 571388, Note_off_c, 0, 86, 0
2, 571388, Note_off_c, 0, 62, 0
2, 571488, Note_on_c, 0, 61, 47
2, 571520, Note_on_c, 0, 79, 64
2, 571580, Note_off_c, 0, 61, 0
2, 571584, Note_on_c, 0, 57, 45
2, 571644, Note_off_c, 0, 79, 0
2, 571648, Note_on_c, 0, 91, 67
2, 571676, Note_off_c, 0, 57, 0
2, 571680, Note_on_c, 0, 61, 43
2, 571772, Note_off_c, 0, 91, 0
2, 571772, Note_off_c, 0, 61, 0
2, 571872, Note_on_c, 0, 62, 44
2, 571904, Note_on_c, 0, 78, 67
2, 571964, Note_off_c, 0, 62, 0
2, 571968, Note_on_c, 0, 57, 57
2, 572028, Note_off_c, 0, 78, 0
2, 572032, Note_on_c, 0, 90, 71
2, 572060, Note_off_c, 0, 57, 0
2, 572064, Note_on_c, 0, 62, 54
2, 572156, Note_off_c, 0, 90, 0
2, 572156, Note_off_c, 0, 62, 0
2, 572256, Note_on_c, 0, 64, 44
2, 572288, Note_on_c, 0, 76, 66
2, 572348, Note_off_c, 0, 64, 0
2, 572352, Note_on_c, 0, 59, 53
2, 572412, Note_off_c, 0, 76, 0
2, 572416, Note_on_c, 0, 88, 66
2, 572444, Note_off_c, 0, 59, 0
2, 572448, Note_on_c, 0, 64, 48
2, 572540, Note_off_c, 0, 88, 0
2, 572540, Note_off_c, 0, 64, 0
2, 572544, Note_on_c, 0, 57, 54
2, 572636, Note_off_c, 0, 57, 0
2, 572640, Note_on_c, 0, 69, 25
2, 572672, Note_on_c, 0, 73, 58
2, 572732, Note_off_c, 0, 69, 0
2, 572736, Note_on_c, 0, 66, 44
2, 572796, Note_off_c, 0, 73, 0
2, 572800, Note_on_c, 0, 85, 71
2, 572828, Note_off_c, 0, 66, 0
2, 572832, Note_on_c, 0, 69, 40
2, 572924, Note_off_c, 0, 85, 0
2, 572924, Note_off_c, 0, 69, 0
2, 573056, Note_on_c, 0, 74, 63
2, 573120, Note_on_c, 0, 57, 53
2, 573180, Note_off_c, 0, 74, 0
2, 573184, Note_on_c, 0, 86, 65
2, 573212, Note_off_c, 0, 57, 0
2, 573216, Note_on_c, 0, 62, 54
2, 573308, Note_off_c, 0, 86, 0
2, 573308, Note_off_c, 0, 62, 0
2, 573312, Note_on_c, 0, 61, 61
2, 573404, Note_off_c, 0, 61, 0
2, 573408, Note_on_c, 0, 62, 53
2, 573500, Note_off_c, 0, 62, 0
2, 573504, Note_on_c, 0, 57, 47
2, 573596, Note_off_c, 0, 57, 0
2, 573696, Note_on_c, 0, 74, 99
2, 573696, Note_on_c, 0, 50, 88
2, 573884, Note_off_c, 0, 74, 0
2, 573884, Note_off_c, 0, 50, 0
2, 573888, Note_on_c, 0, 76, 100
2, 573888, Note_on_c, 0, 52, 85
2, 573980, Note_off_c, 0, 76, 0
2, 573980, Note_off_c, 0, 52, 0
2, 574080, Note_on_c, 0, 71, 79
2, 574080, Note_on_c, 0, 47, 79
2, 574140, Note_off_c, 0, 71, 0
2, 574140, Note_off_c, 0, 47, 0
2, 574272, Note_on_c, 0, 73, 90
2, 574272, Note_on_c, 0, 49, 81
2, 574332, Note_off_c, 0, 73, 0
2, 574332, Note_off_c, 0, 49, 0
2, 574848, Note_on_c, 0, 62, 84
2, 574848, Note_on_c, 0, 38, 83
2, 575228, Note_off_c, 0, 62, 0
2, 575228, Note_off_c, 0, 38, 0
2, 576864, Note_on_c, 0, 57, 55
2, 576896, Note_on_c, 0, 74, 59
2, 576956, Note_off_c, 0, 57, 0
2, 577020, Note_off_c, 0, 74, 0
2, 577024, Note_on_c, 0, 86, 68
2, 577056, Note_on_c, 0, 57, 37
2, 577148, Note_off_c, 0, 86, 0
2, 577148, Note_off_c, 0, 57, 0
2, 577248, Note_on_c, 0, 57, 48
2, 577280, Note_on_c, 0, 73, 60
2, 577340, Note_off_c, 0, 57, 0
2, 577404, Note_off_c, 0, 73, 0
2, 577408, Note_on_c, 0, 85, 70
2, 577440, Note_on_c, 0, 57, 52
2, 577532, Note_off_c, 0, 85, 0
2, 577532, Note_off_c, 0, 57, 0
2, 577632, Note_on_c, 0, 57, 36
2, 577664, Note_on_c, 0, 74, 68
2, 577724, Note_off_c, 0, 57, 0
2, 577788, Note_off_c, 0, 74, 0
2, 577792, Note_on_c, 0, 86, 74
2, 577824, Note_on_c, 0, 57, 61
2, 577916, Note_off_c, 0, 86, 0
2, 577916, Note_off_c, 0, 57, 0
2, 578016, Note_on_c, 0, 57, 62
2, 578048, Note_on_c, 0, 71, 63
2, 578108, Note_off_c, 0, 57, 0
2, 578172, Note_off_c, 0, 71, 0
2, 578176, Note_on_c, 0, 83, 70
2, 578208, Note_on_c, 0, 57, 59
2, 578300, Note_off_c, 0, 83, 0
2, 578300, Note_off_c, 0, 57, 0
2, 578400, Note_on_c, 0, 57, 43
2, 578432, Note_on_c, 0, 72, 59
2, 578492, Note_off_c, 0, 57, 0
2, 578556, Note_off_c, 0, 72, 0
2, 578560, Note_on_c, 0, 84, 70
2, 578592, Note_on_c, 0, 57, 46
2, 578684, Note_off_c, 0, 84, 0
2, 578684, Note_off_c, 0, 57, 0
2, 578784, Note_on_c, 0, 60, 57
2, 578816, Note_on_c, 0, 66, 65
2, 578876, Note_off_c, 0, 60, 0
2, 578880, Note_on_c, 0, 57, 53
2, 578940, Note_off_c, 0, 66, 0
2, 578944, Note_on_c, 0, 78, 67
2, 578972, Note_off_c, 0, 57, 0
2, 578976, Note_on_c, 0, 60, 52
2, 579068, Note_off_c, 0, 78, 0
2, 579068, Note_off_c, 0, 60, 0
2, 579072, Note_on_c, 0, 55, 55
2, 579072, Note_on_c, 0, 59, 45
2, 579072, Note_on_c, 0, 79, 70
2, 579072, Note_on_c, 0, 67, 58
2, 579164, Note_off_c, 0, 55, 0
2, 579164, Note_off_c, 0, 59, 0
2, 579168, Note_on_c, 0, 62, 42
2, 579260, Note_off_c, 0, 62, 0
2, 579264, Note_on_c, 0, 60, 55
2, 579356, Note_off_c, 0, 60, 0
2, 579360, Note_on_c, 0, 59, 58
2, 579452, Note_off_c, 0, 79, 0
2, 579452, Note_off_c, 0, 67, 0
2, 579452, Note_off_c, 0, 59, 0
2, 579456, Note_on_c, 0, 57, 52
2, 579548, Note_off_c, 0, 57, 0
2, 579840, Note_on_c, 0, 74, 96
2, 579840, Note_on_c, 0, 50, 90
2, 580028, Note_off_c, 0, 74, 0
2, 580028, Note_off_c, 0, 50, 0
2, 580128, Note_on_c, 0, 74, 97
2, 580128, Note_on_c, 0, 50, 87
2, 580220, Note_off_c, 0, 74, 0
2, 580220, Note_off_c, 0, 50, 0
2, 580416, Note_on_c, 0, 73, 97
2, 580416, Note_on_c, 0, 49, 89
2, 580476, Note_off_c, 0, 73, 0
2, 580476, Note_off_c, 0, 49, 0
2, 580608, Note_on_c, 0, 74, 96
2, 580608, Note_on_c, 0, 50, 94
2, 580988, Note_off_c, 0, 74, 0
2, 580988, Note_off_c, 0, 50, 0
2, 580992, Note_on_c, 0, 38, 82
2, 580992, Note_on_c, 0, 62, 83
2, 581372, Note_off_c, 0, 38, 0
2, 581372, Note_off_c, 0, 62, 0
2, 581376, Note_on_c, 0, 74, 41
2, 581376, Note_on_c, 0, 86, 55
2, 581468, Note_off_c, 0, 74, 0
2, 581472, Note_on_c, 0, 78, 53
2, 581564, Note_off_c, 0, 86, 0
2, 581564, Note_off_c, 0, 78, 0
2, 581568, Note_on_c, 0, 74, 46
2, 581568, Note_on_c, 0, 88, 54
2, 581660, Note_off_c, 0, 74, 0
2, 581660, Note_off_c, 0, 88, 0
2, 581664, Note_on_c, 0, 78, 38
2, 581664, Note_on_c, 0, 86, 60
2, 581756, Note_off_c, 0, 78, 0
2, 581756, Note_off_c, 0, 86, 0
2, 581760, Note_on_c, 0, 76, 53
2, 581760, Note_on_c, 0, 83, 63
2, 581820, Note_off_c, 0, 83, 0
2, 581852, Note_off_c, 0, 76, 0
2, 581856, Note_on_c, 0, 79, 43
2, 581948, Note_off_c, 0, 79, 0
2, 581952, Note_on_c, 0, 76, 62
2, 581952, Note_on_c, 0, 85, 65
2, 582012, Note_off_c, 0, 85, 0
2, 582044, Note_off_c, 0, 76, 0
2, 582048, Note_on_c, 0, 79, 55
2, 582140, Note_off_c, 0, 79, 0
2, 582144, Note_on_c, 0, 74, 63
2, 582144, Note_on_c, 0, 78, 39
2, 582144, Note_on_c, 0, 86, 65
2, 582332, Note_off_c, 0, 74, 0
2, 582332, Note_off_c, 0, 78, 0
2, 582332, Note_off_c, 0, 86, 0
2, 583104, Note_on_c, 0, 62, 87
2, 583104, Note_on_c, 0, 38, 85
2, 583164, Note_off_c, 0, 62, 0
2, 583164, Note_off_c, 0, 38, 0
2, 583296, Note_on_c, 0, 40, 80
2, 583296, Note_on_c, 0, 64, 90
2, 583356, Note_off_c, 0, 40, 0
2, 583356, Note_off_c, 0, 64, 0
2, 584400, Note_on_c, 0, 90, 54
2, 584444, Note_off_c, 0, 90, 0
2, 584448, Note_on_c, 0, 88, 59
2, 584448, Note_on_c, 0, 72, 33
2, 584508, Note_off_c, 0, 88, 0
2, 584540, Note_off_c, 0, 72, 0
2, 584544, Note_on_c, 0, 76, 55
2, 584636, Note_off_c, 0, 76, 0
2, 584640, Note_on_c, 0, 86, 64
2, 584640, Note_on_c, 0, 71, 36
2, 584700, Note_off_c, 0, 86, 0
2, 584732, Note_off_c, 0, 71, 0
2, 584736, Note_on_c, 0, 74, 54
2, 584828, Note_off_c, 0, 74, 0
2, 584832, Note_on_c, 0, 88, 64
2, 584832, Note_on_c, 0, 72, 54
2, 584892, Note_off_c, 0, 88, 0
2, 584924, Note_off_c, 0, 72, 0
2, 584928, Note_on_c, 0, 76, 52
2, 585020, Note_off_c, 0, 76, 0
2, 585024, Note_on_c, 0, 90, 56
2, 585024, Note_on_c, 0, 69, 43
2, 585084, Note_off_c, 0, 90, 0
2, 585116, Note_off_c, 0, 69, 0
2, 585120, Note_on_c, 0, 72, 44
2, 585212, Note_off_c, 0, 72, 0
2, 585216, Note_on_c, 0, 71, 56
2, 585216, Note_on_c, 0, 91, 72
2, 585216, Note_on_c, 0, 74, 44
2, 585404, Note_off_c, 0, 71, 0
2, 585404, Note_off_c, 0, 91, 0
2, 585404, Note_off_c, 0, 74, 0
2, 585936, Note_on_c, 0, 78, 62
2, 585980, Note_off_c, 0, 78, 0
2, 585984, Note_on_c, 0, 60, 57
2, 585984, Note_on_c, 0, 76, 53
2, 586044, Note_off_c, 0, 76, 0
2, 586076, Note_off_c, 0, 60, 0
2, 586080, Note_on_c, 0, 64, 55
2, 586172, Note_off_c, 0, 64, 0
2, 586176, Note_on_c, 0, 59, 49
2, 586176, Note_on_c, 0, 74, 51
2, 586236, Note_off_c, 0, 74, 0
2, 586268, Note_off_c, 0, 59, 0
2, 586272, Note_on_c, 0, 62, 37
2, 586364, Note_off_c, 0, 62, 0
2, 586368, Note_on_c, 0, 60, 56
2, 586368, Note_on_c, 0, 76, 51
2, 586428, Note_off_c, 0, 76, 0
2, 586460, Note_off_c, 0, 60, 0
2, 586464, Note_on_c, 0, 64, 53
2, 586556, Note_off_c, 0, 64, 0
2, 586560, Note_on_c, 0, 57, 62
2, 586560, Note_on_c, 0, 78, 54
2, 586620, Note_off_c, 0, 78, 0
2, 586652, Note_off_c, 0, 57, 0
2, 586656, Note_on_c, 0, 60, 48
2, 586748, Note_off_c, 0, 60, 0
2, 586752, Note_on_c, 0, 59, 42
2, 586752, Note_on_c, 0, 79, 59
2, 586844, Note_off_c, 0, 59, 0
2, 586848, Note_on_c, 0, 62, 58
2, 586940, Note_off_c, 0, 79, 0
2, 586940, Note_off_c, 0, 62, 0
2, 586944, Note_on_c, 0, 59, 51
2, 587036, Note_off_c, 0, 59, 0
2, 587040, Note_on_c, 0, 62, 60
2, 587132, Note_off_c, 0, 62, 0
2, 587136, Note_on_c, 0, 74, 60
2, 587232, Note_on_c, 0, 65, 45
2, 587324, Note_off_c, 0, 74, 0
2, 587324, Note_off_c, 0, 65, 0
2, 587328, Note_on_c, 0, 76, 59
2, 587420, Note_off_c, 0, 76, 0
2, 587424, Note_on_c, 0, 65, 50
2, 587424, Note_on_c, 0, 74, 56
2, 587516, Note_off_c, 0, 65, 0
2, 587516, Note_off_c, 0, 74, 0
2, 587520, Note_on_c, 0, 60, 54
2, 587520, Note_on_c, 0, 72, 53
2, 587612, Note_off_c, 0, 60, 0
2, 587616, Note_on_c, 0, 64, 48
2, 587708, Note_off_c, 0, 72, 0
2, 587708, Note_off_c, 0, 64, 0
2, 587712, Note_on_c, 0, 60, 45
2, 587712, Note_on_c, 0, 74, 57
2, 587804, Note_off_c, 0, 60, 0
2, 587804, Note_off_c, 0, 74, 0
2, 587808, Note_on_c, 0, 64, 53
2, 587808, Note_on_c, 0, 72, 58
2, 587900, Note_off_c, 0, 64, 0
2, 587900, Note_off_c, 0, 72, 0
2, 587904, Note_on_c, 0, 62, 46
2, 587904, Note_on_c, 0, 69, 58
2, 587996, Note_off_c, 0, 62, 0
2, 588000, Note_on_c, 0, 66, 44
2, 588092, Note_off_c, 0, 69, 0
2, 588092, Note_off_c, 0, 66, 0
2, 588096, Note_on_c, 0, 62, 45
2, 588096, Note_on_c, 0, 71, 40
2, 588188, Note_off_c, 0, 62, 0
2, 588188, Note_off_c, 0, 71, 0
2, 588192, Note_on_c, 0, 66, 47
2, 588192, Note_on_c, 0, 69, 51
2, 588284, Note_off_c, 0, 66, 0
2, 588284, Note_off_c, 0, 69, 0
2, 588288, Note_on_c, 0, 71, 59
2, 588384, Note_on_c, 0, 67, 33
2, 588476, Note_off_c, 0, 71, 0
2, 588476, Note_off_c, 0, 67, 0
2, 588480, Note_on_c, 0, 72, 59
2, 588572, Note_off_c, 0, 72, 0
2, 588576, Note_on_c, 0, 67, 41
2, 588576, Note_on_c, 0, 71, 55
2, 588668, Note_off_c, 0, 67, 0
2, 588668, Note_off_c, 0, 71, 0
2, 588672, Note_on_c, 0, 59, 41
2, 588672, Note_on_c, 0, 74, 68
2, 588764, Note_off_c, 0, 59, 0
2, 588768, Note_on_c, 0, 65, 28
2, 588860, Note_off_c, 0, 74, 0
2, 588860, Note_off_c, 0, 65, 0
2, 588864, Note_on_c, 0, 59, 51
2, 588864, Note_on_c, 0, 76, 67
2, 588956, Note_off_c, 0, 59, 0
2, 588956, Note_off_c, 0, 76, 0
2, 588960, Note_on_c, 0, 65, 56
2, 588960, Note_on_c, 0, 74, 62
2, 589052, Note_off_c, 0, 65, 0
2, 589052, Note_off_c, 0, 74, 0
2, 589056, Note_on_c, 0, 60, 53
2, 589056, Note_on_c, 0, 72, 51
2, 589148, Note_off_c, 0, 60, 0
2, 589152, Note_on_c, 0, 64, 38
2, 589244, Note_off_c, 0, 72, 0
2, 589244, Note_off_c, 0, 64, 0
2, 589248, Note_on_c, 0, 60, 48
2, 589248, Note_on_c, 0, 74, 44
2, 589340, Note_off_c, 0, 60, 0
2, 589340, Note_off_c, 0, 74, 0
2, 589344, Note_on_c, 0, 64, 38
2, 589344, Note_on_c, 0, 72, 44
2, 589436, Note_off_c, 0, 64, 0
2, 589436, Note_off_c, 0, 72, 0
2, 589440, Note_on_c, 0, 62, 53
2, 589440, Note_on_c, 0, 69, 54
2, 589532, Note_off_c, 0, 62, 0
2, 589536, Note_on_c, 0, 66, 53
2, 589628, Note_off_c, 0, 69, 0
2, 589628, Note_off_c, 0, 66, 0
2, 589632, Note_on_c, 0, 62, 57
2, 589632, Note_on_c, 0, 71, 50
2, 589724, Note_off_c, 0, 62, 0
2, 589724, Note_off_c, 0, 71, 0
2, 589728, Note_on_c, 0, 66, 51
2, 589728, Note_on_c, 0, 69, 44
2, 589820, Note_off_c, 0, 66, 0
2, 589820, Note_off_c, 0, 69, 0
2, 589824, Note_on_c, 0, 71, 43
2, 589920, Note_on_c, 0, 67, 62
2, 590012, Note_off_c, 0, 71, 0
2, 590012, Note_off_c, 0, 67, 0
2, 590112, Note_on_c, 0, 67, 60
2, 590204, Note_off_c, 0, 67, 0
2, 590208, Note_on_c, 0, 59, 47
2, 590300, Note_off_c, 0, 59, 0
2, 590304, Note_on_c, 0, 65, 46
2, 590336, Note_on_c, 0, 74, 60
2, 590396, Note_off_c, 0, 65, 0
2, 590400, Note_on_c, 0, 59, 51
2, 590460, Note_off_c, 0, 74, 0
2, 590464, Note_on_c, 0, 86, 60
2, 590492, Note_off_c, 0, 59, 0
2, 590496, Note_on_c, 0, 65, 38
2, 590588, Note_off_c, 0, 86, 0
2, 590588, Note_off_c, 0, 65, 0
2, 590592, Note_on_c, 0, 60, 42
2, 590684, Note_off_c, 0, 60, 0
2, 590688, Note_on_c, 0, 64, 40
2, 590720, Note_on_c, 0, 72, 52
2, 590780, Note_off_c, 0, 64, 0
2, 590784, Note_on_c, 0, 60, 48
2, 590844, Note_off_c, 0, 72, 0
2, 590848, Note_on_c, 0, 84, 66
2, 590876, Note_off_c, 0, 60, 0
2, 590880, Note_on_c, 0, 64, 42
2, 590972, Note_off_c, 0, 84, 0
2, 590972, Note_off_c, 0, 64, 0
2, 590976, Note_on_c, 0, 62, 60
2, 591068, Note_off_c, 0, 62, 0
2, 591072, Note_on_c, 0, 66, 54
2, 591104, Note_on_c, 0, 69, 51
2, 591164, Note_off_c, 0, 66, 0
2, 591168, Note_on_c, 0, 62, 51
2, 591228, Note_off_c, 0, 69, 0
2, 591232, Note_on_c, 0, 81, 59
2, 591260, Note_off_c, 0, 62, 0
2, 591264, Note_on_c, 0, 66, 48
2, 591356, Note_off_c, 0, 81, 0
2, 591356, Note_off_c, 0, 66, 0
2, 591456, Note_on_c, 0, 67, 56
2, 591488, Note_on_c, 0, 71, 45
2, 591548, Note_off_c, 0, 67, 0
2, 591612, Note_off_c, 0, 71, 0
2, 591616, Note_on_c, 0, 83, 58
2, 591648, Note_on_c, 0, 67, 51
2, 591740, Note_off_c, 0, 83, 0
2, 591740, Note_off_c, 0, 67, 0
2, 591744, Note_on_c, 0, 59, 39
2, 591836, Note_off_c, 0, 59, 0
2, 591840, Note_on_c, 0, 65, 36
2, 591872, Note_on_c, 0, 74, 48
2, 591932, Note_off_c, 0, 65, 0
2, 591936, Note_on_c, 0, 59, 36
2, 591996, Note_off_c, 0, 74, 0
2, 592000, Note_on_c, 0, 86, 58
2, 592028, Note_off_c, 0, 59, 0
2, 592032, Note_on_c, 0, 65, 42
2, 592124, Note_off_c, 0, 86, 0
2, 592124, Note_off_c, 0, 65, 0
2, 592128, Note_on_c, 0, 60, 42
2, 592220, Note_off_c, 0, 60, 0
2, 592224, Note_on_c, 0, 64, 36
2, 592256, Note_on_c, 0, 72, 41
2, 592316, Note_off_c, 0, 64, 0
2, 592320, Note_on_c, 0, 60, 47
2, 592380, Note_off_c, 0, 72, 0
2, 592384, Note_on_c, 0, 84, 63
2, 592412, Note_off_c, 0, 60, 0
2, 592416, Note_on_c, 0, 64, 40
2, 592508, Note_off_c, 0, 84, 0
2, 592508, Note_off_c, 0, 64, 0
2, 592512, Note_on_c, 0, 62, 43
2, 592604, Note_off_c, 0, 62, 0
2, 592608, Note_on_c, 0, 66, 49
2, 592640, Note_on_c, 0, 69, 49
2, 592700, Note_off_c, 0, 66, 0
2, 592704, Note_on_c, 0, 62, 47
2, 592764, Note_off_c, 0, 69, 0
2, 592768, Note_on_c, 0, 81, 49
2, 592796, Note_off_c, 0, 62, 0
2, 592800, Note_on_c, 0, 66, 38
2, 592892, Note_off_c, 0, 81, 0
2, 592892, Note_off_c, 0, 66, 0
2, 592896, Note_on_c, 0, 71, 49
2, 592992, Note_on_c, 0, 59, 40
2, 593084, Note_off_c, 0, 71, 0
2, 593084, Note_off_c, 0, 59, 0
2, 593088, Note_on_c, 0, 62, 47
2, 593088, Note_on_c, 0, 72, 52
2, 593180, Note_off_c, 0, 62, 0
2, 593180, Note_off_c, 0, 72, 0
2, 593184, Note_on_c, 0, 67, 35
2, 593184, Note_on_c, 0, 71, 62
2, 593276, Note_off_c, 0, 67, 0
2, 593276, Note_off_c, 0, 71, 0
2, 593280, Note_on_c, 0, 74, 67
2, 593376, Note_on_c, 0, 59, 43
2, 593468, Note_off_c, 0, 74, 0
2, 593468, Note_off_c, 0, 59, 0
2, 593472, Note_on_c, 0, 62, 62
2, 593472, Note_on_c, 0, 76, 65
2, 593564, Note_off_c, 0, 62, 0
2, 593564, Note_off_c, 0, 76, 0
2, 593568, Note_on_c, 0, 67, 69
2, 593568, Note_on_c, 0, 74, 59
2, 593660, Note_off_c, 0, 67, 0
2, 593660, Note_off_c, 0, 74, 0
2, 593664, Note_on_c, 0, 71, 62
2, 593760, Note_on_c, 0, 59, 55
2, 593852, Note_off_c, 0, 71, 0
2, 593852, Note_off_c, 0, 59, 0
2, 593856, Note_on_c, 0, 62, 68
2, 593856, Note_on_c, 0, 72, 53
2, 593948, Note_off_c, 0, 62, 0
2, 593948, Note_off_c, 0, 72, 0
2, 593952, Note_on_c, 0, 67, 67
2, 593952, Note_on_c, 0, 71, 59
2, 594044, Note_off_c, 0, 67, 0
2, 594044, Note_off_c, 0, 71, 0
2, 594048, Note_on_c, 0, 79, 82
2, 594144, Note_on_c, 0, 59, 81
2, 594236, Note_off_c, 0, 79, 0
2, 594236, Note_off_c, 0, 59, 0
2, 594240, Note_on_c, 0, 62, 75
2, 594240, Note_on_c, 0, 81, 73
2, 594332, Note_off_c, 0, 62, 0
2, 594332, Note_off_c, 0, 81, 0
2, 594336, Note_on_c, 0, 67, 79
2, 594336, Note_on_c, 0, 79, 86
2, 594428, Note_off_c, 0, 67, 0
2, 594428, Note_off_c, 0, 79, 0
2, 594432, Note_on_c, 0, 74, 103
2, 594528, Note_on_c, 0, 59, 79
2, 594620, Note_off_c, 0, 74, 0
2, 594620, Note_off_c, 0, 59, 0
2, 594624, Note_on_c, 0, 62, 80
2, 594624, Note_on_c, 0, 76, 93
2, 594716, Note_off_c, 0, 62, 0
2, 594716, Note_off_c, 0, 76, 0
2, 594720, Note_on_c, 0, 67, 84
2, 594720, Note_on_c, 0, 74, 94
2, 594812, Note_off_c, 0, 67, 0
2, 594812, Note_off_c, 0, 74, 0
2, 594816, Note_on_c, 0, 83, 100
2, 594912, Note_on_c, 0, 59, 85
2, 595004, Note_off_c, 0, 83, 0
2, 595004, Note_off_c, 0, 59, 0
2, 595008, Note_on_c, 0, 62, 94
2, 595008, Note_on_c, 0, 84, 100
2, 595100, Note_off_c, 0, 62, 0
2, 595100, Note_off_c, 0, 84, 0
2, 595104, Note_on_c, 0, 67, 96
2, 595104, Note_on_c, 0, 83, 112
2, 595196, Note_off_c, 0, 67, 0
2, 595196, Note_off_c, 0, 83, 0
2, 595200, Note_on_c, 0, 79, 109
2, 595296, Note_on_c, 0, 59, 87
2, 595388, Note_off_c, 0, 79, 0
2, 595388, Note_off_c, 0, 59, 0
2, 595392, Note_on_c, 0, 62, 88
2, 595484, Note_off_c, 0, 62, 0
2, 595488, Note_on_c, 0, 67, 85
2, 595580, Note_off_c, 0, 67, 0
2, 595584, Note_on_c, 0, 79, 43
2, 595584, Note_on_c, 0, 67, 38
2, 595584, Note_on_c, 0, 74, 50
2, 595584, Note_on_c, 0, 71, 34
2, 595772, Note_off_c, 0, 79, 0
2, 595772, Note_off_c, 0, 67, 0
2, 595772, Note_off_c, 0, 74, 0
2, 595772, Note_off_c, 0, 71, 0
2, 595872, Note_on_c, 0, 59, 38
2, 595964, Note_off_c, 0, 59, 0
2, 595968, Note_on_c, 0, 43, 42
2, 595968, Note_on_c, 0, 83, 54
2, 595968, Note_on_c, 0, 79, 51
2, 595968, Note_on_c, 0, 71, 44
2, 596156, Note_off_c, 0, 43, 0
2, 596156, Note_off_c, 0, 83, 0
2, 596156, Note_off_c, 0, 79, 0
2, 596156, Note_off_c, 0, 71, 0
2, 596156, End_track
3, 0, Start_track
3, 0, Title_t, "Ludwig van Beethoven"
3, 0, Control_c, 0, 0, 0
3, 0, Program_c, 0, 0
3, 0, Key_signature, 1, "major"
3, 1152, Note_on_c, 0, 55, 88
3, 1152, Note_on_c, 0, 59, 77
3, 1340, Note_off_c, 0, 55, 0
3, 1340, Note_off_c, 0, 59, 0
3, 1536, Note_on_c, 0, 59, 76
3, 1536, Note_on_c, 0, 55, 74
3, 1724, Note_off_c, 0, 59, 0
3, 1724, Note_off_c, 0, 55, 0
3, 2304, Note_on_c, 0, 55, 89
3, 2304, Note_on_c, 0, 59, 77
3, 2492, Note_off_c, 0, 55, 0
3, 2492, Note_off_c, 0, 59, 0
3, 3072, Note_on_c, 0, 55, 89
3, 3072, Note_on_c, 0, 59, 82
3, 3260, Note_off_c, 0, 55, 0
3, 3260, Note_off_c, 0, 59, 0
3, 9216, Note_on_c, 0, 54, 49
3, 9216, Note_on_c, 0, 42, 52
3, 9216, Note_on_c, 0, 50, 60
3, 10364, Note_off_c, 0, 54, 0
3, 10364, Note_off_c, 0, 42, 0
3, 10364, Note_off_c, 0, 50, 0
3, 10368, Note_on_c, 0, 50, 75
3, 10368, Note_on_c, 0, 55, 59
3, 10368, Note_on_c, 0, 43, 62
3, 11132, Note_off_c, 0, 50, 0
3, 11132, Note_off_c, 0, 55, 0
3, 11132, Note_off_c, 0, 43, 0
3, 11904, Note_on_c, 0, 48, 86
3, 11904, Note_on_c, 0, 60, 82
3, 12028, Note_off_c, 0, 48, 0
3, 12028, Note_off_c, 0, 60, 0
3, 12288, Note_on_c, 0, 61, 70
3, 12288, Note_on_c, 0, 49, 79
3, 12412, Note_off_c, 0, 61, 0
3, 12412, Note_off_c, 0, 49, 0
3, 12864, Note_on_c, 0, 50, 55
3, 13052, Note_off_c, 0, 50, 0
3, 13056, Note_on_c, 0, 54, 50
3, 13244, Note_off_c, 0, 54, 0
3, 17280, Note_on_c, 0, 47, 46
3, 17468, Note_off_c, 0, 47, 0
3, 17472, Note_on_c, 0, 50, 59
3, 17660, Note_off_c, 0, 50, 0
3, 17664, Note_on_c, 0, 54, 50
3, 17852, Note_off_c, 0, 54, 0
3, 21888, Note_on_c, 0, 44, 55
3, 22076, Note_off_c, 0, 44, 0
3, 22080, Note_on_c, 0, 47, 56
3, 22268, Note_off_c, 0, 47, 0
3, 22272, Note_on_c, 0, 50, 60
3, 22460, Note_off_c, 0, 50, 0
3, 28992, Note_on_c, 0, 55, 75
3, 29180, Note_off_c, 0, 55, 0
3, 29184, Note_on_c, 0, 54, 65
3, 29372, Note_off_c, 0, 54, 0
3, 29376, Note_on_c, 0, 52, 67
3, 29564, Note_off_c, 0, 52, 0
3, 29568, Note_on_c, 0, 50, 80
3, 29756, Note_off_c, 0, 50, 0
3, 29760, Note_on_c, 0, 49, 72
3, 29948, Note_off_c, 0, 49, 0
3, 29952, Note_on_c, 0, 50, 58
3, 30140, Note_off_c, 0, 50, 0
3, 30144, Note_on_c, 0, 52, 49
3, 30332, Note_off_c, 0, 52, 0
3, 30336, Note_on_c, 0, 54, 71
3, 30524, Note_off_c, 0, 54, 0
3, 30528, Note_on_c, 0, 56, 56
3, 30716, Note_off_c, 0, 56, 0
3, 33600, Note_on_c, 0, 55, 81
3, 33788, Note_off_c, 0, 55, 0
3, 33792, Note_on_c, 0, 54, 75
3, 33980, Note_off_c, 0, 54, 0
3, 33984, Note_on_c, 0, 52, 81
3, 34172, Note_off_c, 0, 52, 0
3, 34176, Note_on_c, 0, 50, 84
3, 34364, Note_off_c, 0, 50, 0
3, 34368, Note_on_c, 0, 49, 77
3, 34556, Note_off_c, 0, 49, 0
3, 34560, Note_on_c, 0, 50, 48
3, 34748, Note_off_c, 0, 50, 0
3, 34752, Note_on_c, 0, 52, 54
3, 34940, Note_off_c, 0, 52, 0
3, 34944, Note_on_c, 0, 54, 63
3, 35132, Note_off_c, 0, 54, 0
3, 35136, Note_on_c, 0, 56, 56
3, 35324, Note_off_c, 0, 56, 0
3, 51840, Note_on_c, 0, 54, 78
3, 51840, Note_on_c, 0, 50, 80
3, 52028, Note_off_c, 0, 54, 0
3, 52028, Note_off_c, 0, 50, 0
3, 52224, Note_on_c, 0, 54, 75
3, 52224, Note_on_c, 0, 50, 77
3, 52412, Note_off_c, 0, 54, 0
3, 52412, Note_off_c, 0, 50, 0
3, 52608, Note_on_c, 0, 54, 80
3, 52608, Note_on_c, 0, 50, 75
3, 52796, Note_off_c, 0, 54, 0
3, 52796, Note_off_c, 0, 50, 0
3, 52992, Note_on_c, 0, 50, 74
3, 52992, Note_on_c, 0, 52, 70
3, 52992, Note_on_c, 0, 55, 69
3, 53180, Note_off_c, 0, 50, 0
3, 53180, Note_off_c, 0, 52, 0
3, 53180, Note_off_c, 0, 55, 0
3, 53376, Note_on_c, 0, 55, 75
3, 53376, Note_on_c, 0, 50, 70
3, 53376, Note_on_c, 0, 52, 70
3, 53564, Note_off_c, 0, 55, 0
3, 53564, Note_off_c, 0, 50, 0
3, 53564, Note_off_c, 0, 52, 0
3, 53760, Note_on_c, 0, 52, 66
3, 53760, Note_on_c, 0, 50, 70
3, 53760, Note_on_c, 0, 55, 71
3, 53948, Note_off_c, 0, 52, 0
3, 53948, Note_off_c, 0, 50, 0
3, 53948, Note_off_c, 0, 55, 0
3, 57600, Note_on_c, 0, 55, 88
3, 57600, Note_on_c, 0, 59, 77
3, 57788, Note_off_c, 0, 55, 0
3, 57788, Note_off_c, 0, 59, 0
3, 57984, Note_on_c, 0, 59, 76
3, 57984, Note_on_c, 0, 55, 74
3, 58172, Note_off_c, 0, 59, 0
3, 58172, Note_off_c, 0, 55, 0
3, 58752, Note_on_c, 0, 55, 89
3, 58752, Note_on_c, 0, 59, 77
3, 58940, Note_off_c, 0, 55, 0
3, 58940, Note_off_c, 0, 59, 0
3, 59520, Note_on_c, 0, 55, 89
3, 59520, Note_on_c, 0, 59, 82
3, 59708, Note_off_c, 0, 55, 0
3, 59708, Note_off_c, 0, 59, 0
3, 65664, Note_on_c, 0, 54, 49
3, 65664, Note_on_c, 0, 42, 52
3, 65664, Note_on_c, 0, 50, 60
3, 66812, Note_off_c, 0, 54, 0
3, 66812, Note_off_c, 0, 42, 0
3, 66812, Note_off_c, 0, 50, 0
3, 66816, Note_on_c, 0, 50, 75
3, 66816, Note_on_c, 0, 55, 59
3, 66816, Note_on_c, 0, 43, 62
3, 67580, Note_off_c, 0, 50, 0
3, 67580, Note_off_c, 0, 55, 0
3, 67580, Note_off_c, 0, 43, 0
3, 68352, Note_on_c, 0, 48, 86
3, 68352, Note_on_c, 0, 60, 82
3, 68476, Note_off_c, 0, 48, 0
3, 68476, Note_off_c, 0, 60, 0
3, 68736, Note_on_c, 0, 61, 70
3, 68736, Note_on_c, 0, 49, 79
3, 68860, Note_off_c, 0, 61, 0
3, 68860, Note_off_c, 0, 49, 0
3, 69312, Note_on_c, 0, 50, 55
3, 69500, Note_off_c, 0, 50, 0
3, 69504, Note_on_c, 0, 54, 50
3, 69692, Note_off_c, 0, 54, 0
3, 73728, Note_on_c, 0, 47, 46
3, 73916, Note_off_c, 0, 47, 0
3, 73920, Note_on_c, 0, 50, 59
3, 74108, Note_off_c, 0, 50, 0
3, 74112, Note_on_c, 0, 54, 50
3, 74300, Note_off_c, 0, 54, 0
3, 78336, Note_on_c, 0, 44, 55
3, 78524, Note_off_c, 0, 44, 0
3, 78528, Note_on_c, 0, 47, 56
3, 78716, Note_off_c, 0, 47, 0
3, 78720, Note_on_c, 0, 50, 60
3, 78908, Note_off_c, 0, 50, 0
3, 85440, Note_on_c, 0, 55, 75
3, 85628, Note_off_c, 0, 55, 0
3, 85632, Note_on_c, 0, 54, 65
3, 85820, Note_off_c, 0, 54, 0
3, 85824, Note_on_c, 0, 52, 67
3, 86012, Note_off_c, 0, 52, 0
3, 86016, Note_on_c, 0, 50, 80
3, 86204, Note_off_c, 0, 50, 0
3, 86208, Note_on_c, 0, 49, 72
3, 86396, Note_off_c, 0, 49, 0
3, 86400, Note_on_c, 0, 50, 58
3, 86588, Note_off_c, 0, 50, 0
3, 86592, Note_on_c, 0, 52, 49
3, 86780, Note_off_c, 0, 52, 0
3, 86784, Note_on_c, 0, 54, 71
3, 86972, Note_off_c, 0, 54, 0
3, 86976, Note_on_c, 0, 56, 56
3, 87164, Note_off_c, 0, 56, 0
3, 90048, Note_on_c, 0, 55, 81
3, 90236, Note_off_c, 0, 55, 0
3, 90240, Note_on_c, 0, 54, 75
3, 90428, Note_off_c, 0, 54, 0
3, 90432, Note_on_c, 0, 52, 81
3, 90620, Note_off_c, 0, 52, 0
3, 90624, Note_on_c, 0, 50, 84
3, 90812, Note_off_c, 0, 50, 0
3, 90816, Note_on_c, 0, 49, 77
3, 91004, Note_off_c, 0, 49, 0
3, 91008, Note_on_c, 0, 50, 48
3, 91196, Note_off_c, 0, 50, 0
3, 91200, Note_on_c, 0, 52, 54
3, 91388, Note_off_c, 0, 52, 0
3, 91392, Note_on_c, 0, 54, 63
3, 91580, Note_off_c, 0, 54, 0
3, 91584, Note_on_c, 0, 56, 56
3, 91772, Note_off_c, 0, 56, 0
3, 108288, Note_on_c, 0, 54, 78
3, 108288, Note_on_c, 0, 50, 80
3, 108476, Note_off_c, 0, 54, 0
3, 108476, Note_off_c, 0, 50, 0
3, 108672, Note_on_c, 0, 54, 75
3, 108672, Note_on_c, 0, 50, 77
3, 108860, Note_off_c, 0, 54, 0
3, 108860, Note_off_c, 0, 50, 0
3, 109056, Note_on_c, 0, 54, 80
3, 109056, Note_on_c, 0, 50, 75
3, 109244, Note_off_c, 0, 54, 0
3, 109244, Note_off_c, 0, 50, 0
3, 109440, Note_on_c, 0, 50, 74
3, 109440, Note_on_c, 0, 52, 70
3, 109440, Note_on_c, 0, 55, 69
3, 109628, Note_off_c, 0, 50, 0
3, 109628, Note_off_c, 0, 52, 0
3, 109628, Note_off_c, 0, 55, 0
3, 109824, Note_on_c, 0, 55, 75
3, 109824, Note_on_c, 0, 50, 70
3, 109824, Note_on_c, 0, 52, 70
3, 110012, Note_off_c, 0, 55, 0
3, 110012, Note_off_c, 0, 50, 0
3, 110012, Note_off_c, 0, 52, 0
3, 110208, Note_on_c, 0, 52, 66
3, 110208, Note_on_c, 0, 50, 70
3, 110208, Note_on_c, 0, 55, 71
3, 110396, Note_off_c, 0, 52, 0
3, 110396, Note_off_c, 0, 50, 0
3, 110396, Note_off_c, 0, 55, 0
3, 114816, Note_on_c, 0, 78, 90
3, 114816, Note_on_c, 0, 66, 92
3, 114816, Note_on_c, 0, 54, 80
3, 114816, Note_on_c, 0, 42, 84
3, 114940, Note_off_c, 0, 78, 0
3, 114940, Note_off_c, 0, 66, 0
3, 114940, Note_off_c, 0, 54, 0
3, 114940, Note_off_c, 0, 42, 0
3, 115200, Note_on_c, 0, 52, 78
3, 115200, Note_on_c, 0, 56, 83
3, 115388, Note_off_c, 0, 52, 0
3, 115388, Note_off_c, 0, 56, 0
3, 115584, Note_on_c, 0, 56, 81
3, 115584, Note_on_c, 0, 52, 76
3, 115772, Note_off_c, 0, 56, 0
3, 115772, Note_off_c, 0, 52, 0
3, 115968, Note_on_c, 0, 52, 82
3, 115968, Note_on_c, 0, 56, 76
3, 116156, Note_off_c, 0, 52, 0
3, 116156, Note_off_c, 0, 56, 0
3, 116352, Note_on_c, 0, 52, 74
3, 116352, Note_on_c, 0, 56, 71
3, 116540, Note_off_c, 0, 52, 0
3, 116540, Note_off_c, 0, 56, 0
3, 116736, Note_on_c, 0, 52, 64
3, 116736, Note_on_c, 0, 56, 65
3, 116924, Note_off_c, 0, 52, 0
3, 116924, Note_off_c, 0, 56, 0
3, 117120, Note_on_c, 0, 56, 75
3, 117120, Note_on_c, 0, 52, 64
3, 117308, Note_off_c, 0, 56, 0
3, 117308, Note_off_c, 0, 52, 0
3, 117504, Note_on_c, 0, 52, 59
3, 117504, Note_on_c, 0, 56, 60
3, 117692, Note_off_c, 0, 52, 0
3, 117692, Note_off_c, 0, 56, 0
3, 117888, Note_on_c, 0, 52, 42
3, 117888, Note_on_c, 0, 56, 51
3, 118076, Note_off_c, 0, 52, 0
3, 118076, Note_off_c, 0, 56, 0
3, 118272, Note_on_c, 0, 56, 50
3, 118272, Note_on_c, 0, 52, 51
3, 118460, Note_off_c, 0, 56, 0
3, 118460, Note_off_c, 0, 52, 0
3, 119808, Note_on_c, 0, 52, 60
3, 119808, Note_on_c, 0, 57, 54
3, 119996, Note_off_c, 0, 52, 0
3, 119996, Note_off_c, 0, 57, 0
3, 120192, Note_on_c, 0, 52, 54
3, 120192, Note_on_c, 0, 57, 64
3, 120380, Note_off_c, 0, 52, 0
3, 120380, Note_off_c, 0, 57, 0
3, 120960, Note_on_c, 0, 54, 58
3, 120960, Note_on_c, 0, 52, 58
3, 120960, Note_on_c, 0, 57, 58
3, 121148, Note_off_c, 0, 54, 0
3, 121148, Note_off_c, 0, 52, 0
3, 121148, Note_off_c, 0, 57, 0
3, 121344, Note_on_c, 0, 54, 58
3, 121344, Note_on_c, 0, 57, 63
3, 121344, Note_on_c, 0, 52, 58
3, 121532, Note_off_c, 0, 54, 0
3, 121532, Note_off_c, 0, 57, 0
3, 121532, Note_off_c, 0, 52, 0
3, 121728, Note_on_c, 0, 54, 44
3, 121728, Note_on_c, 0, 52, 55
3, 121728, Note_on_c, 0, 57, 46
3, 121916, Note_off_c, 0, 54, 0
3, 121916, Note_off_c, 0, 52, 0
3, 121916, Note_off_c, 0, 57, 0
3, 122112, Note_on_c, 0, 57, 51
3, 122112, Note_on_c, 0, 54, 58
3, 122112, Note_on_c, 0, 52, 66
3, 122300, Note_off_c, 0, 57, 0
3, 122300, Note_off_c, 0, 54, 0
3, 122300, Note_off_c, 0, 52, 0
3, 122496, Note_on_c, 0, 57, 63
3, 122496, Note_on_c, 0, 54, 64
3, 122496, Note_on_c, 0, 52, 60
3, 122684, Note_off_c, 0, 57, 0
3, 122684, Note_off_c, 0, 54, 0
3, 122684, Note_off_c, 0, 52, 0
3, 122880, Note_on_c, 0, 54, 56
3, 122880, Note_on_c, 0, 57, 56
3, 122880, Note_on_c, 0, 52, 52
3, 123068, Note_off_c, 0, 54, 0
3, 123068, Note_off_c, 0, 57, 0
3, 123068, Note_off_c, 0, 52, 0
3, 123264, Note_on_c, 0, 52, 44
3, 123644, Note_off_c, 0, 52, 0
3, 124416, Note_on_c, 0, 52, 64
3, 124796, Note_off_c, 0, 52, 0
3, 125568, Note_on_c, 0, 52, 56
3, 125948, Note_off_c, 0, 52, 0
3, 126720, Note_on_c, 0, 47, 61
3, 127100, Note_off_c, 0, 47, 0
3, 127872, Note_on_c, 0, 47, 68
3, 128252, Note_off_c, 0, 47, 0
3, 129024, Note_on_c, 0, 47, 73
3, 129404, Note_off_c, 0, 47, 0
3, 130176, Note_on_c, 0, 47, 62
3, 130556, Note_off_c, 0, 47, 0
3, 131328, Note_on_c, 0, 52, 56
3, 131708, Note_off_c, 0, 52, 0
3, 132480, Note_on_c, 0, 48, 66
3, 132672, Note_on_c, 0, 55, 54
3, 132860, Note_off_c, 0, 48, 0
3, 132860, Note_off_c, 0, 55, 0
3, 133056, Note_on_c, 0, 55, 48
3, 133244, Note_off_c, 0, 55, 0
3, 133440, Note_on_c, 0, 55, 53
3, 133628, Note_off_c, 0, 55, 0
3, 133632, Note_on_c, 0, 48, 51
3, 133824, Note_on_c, 0, 55, 52
3, 134012, Note_off_c, 0, 48, 0
3, 134012, Note_off_c, 0, 55, 0
3, 134208, Note_on_c, 0, 55, 46
3, 134396, Note_off_c, 0, 55, 0
3, 134592, Note_on_c, 0, 55, 54
3, 134780, Note_off_c, 0, 55, 0
3, 134784, Note_on_c, 0, 48, 68
3, 134976, Note_on_c, 0, 55, 62
3, 135164, Note_off_c, 0, 48, 0
3, 135164, Note_off_c, 0, 55, 0
3, 135360, Note_on_c, 0, 55, 51
3, 135548, Note_off_c, 0, 55, 0
3, 135744, Note_on_c, 0, 55, 56
3, 135932, Note_off_c, 0, 55, 0
3, 135936, Note_on_c, 0, 43, 66
3, 136128, Note_on_c, 0, 55, 54
3, 136316, Note_off_c, 0, 43, 0
3, 136316, Note_off_c, 0, 55, 0
3, 136512, Note_on_c, 0, 55, 50
3, 136700, Note_off_c, 0, 55, 0
3, 136896, Note_on_c, 0, 55, 53
3, 137084, Note_off_c, 0, 55, 0
3, 137088, Note_on_c, 0, 43, 53
3, 137280, Note_on_c, 0, 55, 55
3, 137468, Note_off_c, 0, 43, 0
3, 137468, Note_off_c, 0, 55, 0
3, 137664, Note_on_c, 0, 55, 59
3, 137852, Note_off_c, 0, 55, 0
3, 138048, Note_on_c, 0, 55, 54
3, 138236, Note_off_c, 0, 55, 0
3, 138240, Note_on_c, 0, 43, 59
3, 138432, Note_on_c, 0, 55, 62
3, 138620, Note_off_c, 0, 43, 0
3, 138620, Note_off_c, 0, 55, 0
3, 138816, Note_on_c, 0, 55, 63
3, 139004, Note_off_c, 0, 55, 0
3, 139200, Note_on_c, 0, 55, 52
3, 139388, Note_off_c, 0, 55, 0
3, 139392, Note_on_c, 0, 43, 58
3, 139584, Note_on_c, 0, 55, 46
3, 139772, Note_off_c, 0, 43, 0
3, 139772, Note_off_c, 0, 55, 0
3, 139968, Note_on_c, 0, 55, 63
3, 140156, Note_off_c, 0, 55, 0
3, 140352, Note_on_c, 0, 55, 61
3, 140540, Note_off_c, 0, 55, 0
3, 140544, Note_on_c, 0, 48, 71
3, 140736, Note_on_c, 0, 55, 58
3, 140924, Note_off_c, 0, 48, 0
3, 140924, Note_off_c, 0, 55, 0
3, 141120, Note_on_c, 0, 55, 61
3, 141308, Note_off_c, 0, 55, 0
3, 141504, Note_on_c, 0, 55, 65
3, 141692, Note_off_c, 0, 55, 0
3, 141696, Note_on_c, 0, 48, 85
3, 141696, Note_on_c, 0, 36, 82
3, 141696, Note_on_c, 0, 43, 79
3, 141888, Note_on_c, 0, 55, 82
3, 142076, Note_off_c, 0, 55, 0
3, 142080, Note_on_c, 0, 54, 85
3, 142268, Note_off_c, 0, 54, 0
3, 142272, Note_on_c, 0, 55, 78
3, 142460, Note_off_c, 0, 55, 0
3, 142844, Note_off_c, 0, 48, 0
3, 142844, Note_off_c, 0, 36, 0
3, 142844, Note_off_c, 0, 43, 0
3, 142848, Note_on_c, 0, 35, 80
3, 142848, Note_on_c, 0, 43, 70
3, 142848, Note_on_c, 0, 47, 74
3, 143040, Note_on_c, 0, 55, 83
3, 143228, Note_off_c, 0, 55, 0
3, 143232, Note_on_c, 0, 54, 81
3, 143420, Note_off_c, 0, 54, 0
3, 143424, Note_on_c, 0, 55, 80
3, 143612, Note_off_c, 0, 55, 0
3, 143996, Note_off_c, 0, 35, 0
3, 143996, Note_off_c, 0, 43, 0
3, 143996, Note_off_c, 0, 47, 0
3, 144000, Note_on_c, 0, 43, 70
3, 144000, Note_on_c, 0, 48, 72
3, 144000, Note_on_c, 0, 36, 62
3, 144764, Note_off_c, 0, 43, 0
3, 144764, Note_off_c, 0, 48, 0
3, 144764, Note_off_c, 0, 36, 0
3, 144768, Note_on_c, 0, 45, 64
3, 144956, Note_off_c, 0, 45, 0
3, 144960, Note_on_c, 0, 40, 59
3, 145148, Note_off_c, 0, 40, 0
3, 145152, Note_on_c, 0, 41, 68
3, 145276, Note_off_c, 0, 41, 0
3, 145536, Note_on_c, 0, 41, 77
3, 145660, Note_off_c, 0, 41, 0
3, 145920, Note_on_c, 0, 42, 67
3, 146044, Note_off_c, 0, 42, 0
3, 149568, Note_on_c, 0, 67, 56
3, 149568, Note_on_c, 0, 55, 39
3, 149756, Note_off_c, 0, 67, 0
3, 149756, Note_off_c, 0, 55, 0
3, 149952, Note_on_c, 0, 55, 56
3, 149952, Note_on_c, 0, 67, 57
3, 150140, Note_off_c, 0, 55, 0
3, 150140, Note_off_c, 0, 67, 0
3, 150336, Note_on_c, 0, 63, 64
3, 150336, Note_on_c, 0, 51, 54
3, 150524, Note_off_c, 0, 63, 0
3, 150524, Note_off_c, 0, 51, 0
3, 150912, Note_on_c, 0, 48, 89
3, 151104, Note_on_c, 0, 55, 70
3, 151292, Note_off_c, 0, 48, 0
3, 151292, Note_off_c, 0, 55, 0
3, 151488, Note_on_c, 0, 55, 71
3, 151676, Note_off_c, 0, 55, 0
3, 151872, Note_on_c, 0, 55, 78
3, 152060, Note_off_c, 0, 55, 0
3, 152064, Note_on_c, 0, 48, 66
3, 152256, Note_on_c, 0, 55, 73
3, 152444, Note_off_c, 0, 48, 0
3, 152444, Note_off_c, 0, 55, 0
3, 152640, Note_on_c, 0, 55, 72
3, 152828, Note_off_c, 0, 55, 0
3, 153024, Note_on_c, 0, 55, 66
3, 153212, Note_off_c, 0, 55, 0
3, 153216, Note_on_c, 0, 48, 82
3, 153408, Note_on_c, 0, 55, 69
3, 153596, Note_off_c, 0, 48, 0
3, 153596, Note_off_c, 0, 55, 0
3, 153792, Note_on_c, 0, 55, 65
3, 153980, Note_off_c, 0, 55, 0
3, 154176, Note_on_c, 0, 55, 64
3, 154364, Note_off_c, 0, 55, 0
3, 154368, Note_on_c, 0, 43, 62
3, 154560, Note_on_c, 0, 55, 70
3, 154748, Note_off_c, 0, 43, 0
3, 154748, Note_off_c, 0, 55, 0
3, 154944, Note_on_c, 0, 55, 66
3, 155132, Note_off_c, 0, 55, 0
3, 155328, Note_on_c, 0, 55, 71
3, 155516, Note_off_c, 0, 55, 0
3, 155520, Note_on_c, 0, 43, 77
3, 155712, Note_on_c, 0, 55, 73
3, 155900, Note_off_c, 0, 43, 0
3, 155900, Note_off_c, 0, 55, 0
3, 156096, Note_on_c, 0, 55, 67
3, 156284, Note_off_c, 0, 55, 0
3, 156480, Note_on_c, 0, 55, 66
3, 156668, Note_off_c, 0, 55, 0
3, 156672, Note_on_c, 0, 43, 81
3, 156864, Note_on_c, 0, 55, 62
3, 157052, Note_off_c, 0, 43, 0
3, 157052, Note_off_c, 0, 55, 0
3, 157248, Note_on_c, 0, 55, 69
3, 157436, Note_off_c, 0, 55, 0
3, 157632, Note_on_c, 0, 55, 68
3, 157820, Note_off_c, 0, 55, 0
3, 157824, Note_on_c, 0, 43, 67
3, 158016, Note_on_c, 0, 55, 76
3, 158204, Note_off_c, 0, 43, 0
3, 158204, Note_off_c, 0, 55, 0
3, 158400, Note_on_c, 0, 55, 71
3, 158588, Note_off_c, 0, 55, 0
3, 158784, Note_on_c, 0, 55, 83
3, 158972, Note_off_c, 0, 55, 0
3, 158976, Note_on_c, 0, 48, 69
3, 159168, Note_on_c, 0, 55, 37
3, 159356, Note_off_c, 0, 48, 0
3, 159356, Note_off_c, 0, 55, 0
3, 159552, Note_on_c, 0, 55, 51
3, 159740, Note_off_c, 0, 55, 0
3, 160128, Note_on_c, 0, 51, 67
3, 160508, Note_off_c, 0, 51, 0
3, 161280, Note_on_c, 0, 51, 56
3, 161660, Note_off_c, 0, 51, 0
3, 162432, Note_on_c, 0, 51, 55
3, 162812, Note_off_c, 0, 51, 0
3, 163584, Note_on_c, 0, 46, 62
3, 163964, Note_off_c, 0, 46, 0
3, 164736, Note_on_c, 0, 46, 57
3, 165116, Note_off_c, 0, 46, 0
3, 165888, Note_on_c, 0, 46, 61
3, 166268, Note_off_c, 0, 46, 0
3, 167040, Note_on_c, 0, 46, 60
3, 167420, Note_off_c, 0, 46, 0
3, 168192, Note_on_c, 0, 51, 56
3, 168572, Note_off_c, 0, 51, 0
3, 169344, Note_on_c, 0, 46, 83
3, 169344, Note_on_c, 0, 51, 76
3, 169344, Note_on_c, 0, 39, 83
3, 170492, Note_off_c, 0, 46, 0
3, 170492, Note_off_c, 0, 51, 0
3, 170492, Note_off_c, 0, 39, 0
3, 170496, Note_on_c, 0, 46, 76
3, 170496, Note_on_c, 0, 50, 86
3, 170496, Note_on_c, 0, 38, 83
3, 171644, Note_off_c, 0, 46, 0
3, 171644, Note_off_c, 0, 50, 0
3, 171644, Note_off_c, 0, 38, 0
3, 171648, Note_on_c, 0, 51, 85
3, 171648, Note_on_c, 0, 39, 85
3, 171648, Note_on_c, 0, 46, 75
3, 172412, Note_off_c, 0, 51, 0
3, 172412, Note_off_c, 0, 39, 0
3, 172412, Note_off_c, 0, 46, 0
3, 172416, Note_on_c, 0, 48, 76
3, 172604, Note_off_c, 0, 48, 0
3, 172608, Note_on_c, 0, 43, 71
3, 172796, Note_off_c, 0, 43, 0
3, 172800, Note_on_c, 0, 44, 77
3, 172924, Note_off_c, 0, 44, 0
3, 173184, Note_on_c, 0, 44, 80
3, 173308, Note_off_c, 0, 44, 0
3, 173568, Note_on_c, 0, 45, 88
3, 173692, Note_off_c, 0, 45, 0
3, 173952, Note_on_c, 0, 62, 68
3, 173952, Note_on_c, 0, 46, 46
3, 174332, Note_off_c, 0, 62, 0
3, 174332, Note_off_c, 0, 46, 0
3, 177024, Note_on_c, 0, 60, 84
3, 177024, Note_on_c, 0, 48, 86
3, 177212, Note_off_c, 0, 60, 0
3, 177212, Note_off_c, 0, 48, 0
3, 177216, Note_on_c, 0, 62, 88
3, 177216, Note_on_c, 0, 50, 68
3, 177404, Note_off_c, 0, 62, 0
3, 177404, Note_off_c, 0, 50, 0
3, 178368, Note_on_c, 0, 55, 86
3, 178368, Note_on_c, 0, 43, 66
3, 178556, Note_off_c, 0, 55, 0
3, 178556, Note_off_c, 0, 43, 0
3, 178560, Note_on_c, 0, 54, 82
3, 178560, Note_on_c, 0, 42, 74
3, 178940, Note_off_c, 0, 54, 0
3, 178940, Note_off_c, 0, 42, 0
3, 182016, Note_on_c, 0, 55, 60
3, 182140, Note_off_c, 0, 55, 0
3, 182400, Note_on_c, 0, 51, 64
3, 182524, Note_off_c, 0, 51, 0
3, 182784, Note_on_c, 0, 49, 62
3, 182908, Note_off_c, 0, 49, 0
3, 184320, Note_on_c, 0, 50, 62
3, 184700, Note_off_c, 0, 50, 0
3, 185472, Note_on_c, 0, 50, 63
3, 185852, Note_off_c, 0, 50, 0
3, 186624, Note_on_c, 0, 45, 44
3, 187004, Note_off_c, 0, 45, 0
3, 187776, Note_on_c, 0, 45, 64
3, 188156, Note_off_c, 0, 45, 0
3, 188928, Note_on_c, 0, 45, 58
3, 189308, Note_off_c, 0, 45, 0
3, 190080, Note_on_c, 0, 45, 56
3, 190460, Note_off_c, 0, 45, 0
3, 191232, Note_on_c, 0, 50, 57
3, 191612, Note_off_c, 0, 50, 0
3, 192384, Note_on_c, 0, 54, 51
3, 192508, Note_off_c, 0, 54, 0
3, 192768, Note_on_c, 0, 50, 55
3, 192892, Note_off_c, 0, 50, 0
3, 193152, Note_on_c, 0, 42, 48
3, 193276, Note_off_c, 0, 42, 0
3, 193536, Note_on_c, 0, 38, 45
3, 193660, Note_off_c, 0, 38, 0
3, 193920, Note_on_c, 0, 54, 38
3, 194044, Note_off_c, 0, 54, 0
3, 194304, Note_on_c, 0, 50, 45
3, 194428, Note_off_c, 0, 50, 0
3, 194688, Note_on_c, 0, 42, 44
3, 194812, Note_off_c, 0, 42, 0
3, 195072, Note_on_c, 0, 38, 60
3, 195196, Note_off_c, 0, 38, 0
3, 195456, Note_on_c, 0, 54, 75
3, 195580, Note_off_c, 0, 54, 0
3, 195840, Note_on_c, 0, 50, 66
3, 195964, Note_off_c, 0, 50, 0
3, 196224, Note_on_c, 0, 42, 71
3, 196348, Note_off_c, 0, 42, 0
3, 196608, Note_on_c, 0, 38, 72
3, 196732, Note_off_c, 0, 38, 0
3, 196992, Note_on_c, 0, 43, 88
3, 197372, Note_off_c, 0, 43, 0
3, 199296, Note_on_c, 0, 55, 80
3, 199296, Note_on_c, 0, 59, 76
3, 199484, Note_off_c, 0, 55, 0
3, 199484, Note_off_c, 0, 59, 0
3, 199680, Note_on_c, 0, 55, 81
3, 199680, Note_on_c, 0, 59, 77
3, 199868, Note_off_c, 0, 55, 0
3, 199868, Note_off_c, 0, 59, 0
3, 200832, Note_on_c, 0, 60, 74
3, 200832, Note_on_c, 0, 55, 75
3, 201020, Note_off_c, 0, 60, 0
3, 201020, Note_off_c, 0, 55, 0
3, 201600, Note_on_c, 0, 55, 84
3, 201600, Note_on_c, 0, 60, 80
3, 201788, Note_off_c, 0, 55, 0
3, 201788, Note_off_c, 0, 60, 0
3, 209664, Note_on_c, 0, 47, 66
3, 209852, Note_off_c, 0, 47, 0
3, 209856, Note_on_c, 0, 50, 59
3, 210044, Note_off_c, 0, 50, 0
3, 210048, Note_on_c, 0, 55, 56
3, 210236, Note_off_c, 0, 55, 0
3, 214272, Note_on_c, 0, 48, 55
3, 214460, Note_off_c, 0, 48, 0
3, 214464, Note_on_c, 0, 52, 59
3, 214652, Note_off_c, 0, 52, 0
3, 214656, Note_on_c, 0, 55, 59
3, 214844, Note_off_c, 0, 55, 0
3, 218880, Note_on_c, 0, 45, 70
3, 219068, Note_off_c, 0, 45, 0
3, 219072, Note_on_c, 0, 49, 64
3, 219260, Note_off_c, 0, 49, 0
3, 219264, Note_on_c, 0, 52, 64
3, 219452, Note_off_c, 0, 52, 0
3, 226560, Note_on_c, 0, 55, 85
3, 226748, Note_off_c, 0, 55, 0
3, 226752, Note_on_c, 0, 54, 85
3, 226940, Note_off_c, 0, 54, 0
3, 226944, Note_on_c, 0, 55, 60
3, 227132, Note_off_c, 0, 55, 0
3, 231168, Note_on_c, 0, 55, 82
3, 231356, Note_off_c, 0, 55, 0
3, 231360, Note_on_c, 0, 54, 75
3, 231548, Note_off_c, 0, 54, 0
3, 231552, Note_on_c, 0, 55, 63
3, 231740, Note_off_c, 0, 55, 0
3, 241536, Note_on_c, 0, 62, 66
3, 241536, Note_on_c, 0, 67, 70
3, 241536, Note_on_c, 0, 55, 66
3, 241916, Note_off_c, 0, 62, 0
3, 241916, Note_off_c, 0, 67, 0
3, 241916, Note_off_c, 0, 55, 0
3, 249600, Note_on_c, 0, 55, 82
3, 249600, Note_on_c, 0, 59, 73
3, 249788, Note_off_c, 0, 55, 0
3, 249788, Note_off_c, 0, 59, 0
3, 251520, Note_on_c, 0, 50, 66
3, 251644, Note_off_c, 0, 50, 0
3, 251904, Note_on_c, 0, 47, 62
3, 252028, Note_off_c, 0, 47, 0
3, 252672, Note_on_c, 0, 48, 62
3, 252796, Note_off_c, 0, 48, 0
3, 253056, Note_on_c, 0, 45, 63
3, 253180, Note_off_c, 0, 45, 0
3, 255744, Note_on_c, 0, 52, 78
3, 255744, Note_on_c, 0, 56, 83
3, 255932, Note_off_c, 0, 52, 0
3, 255932, Note_off_c, 0, 56, 0
3, 256128, Note_on_c, 0, 56, 81
3, 256128, Note_on_c, 0, 52, 76
3, 256316, Note_off_c, 0, 56, 0
3, 256316, Note_off_c, 0, 52, 0
3, 256512, Note_on_c, 0, 52, 82
3, 256512, Note_on_c, 0, 56, 76
3, 256700, Note_off_c, 0, 52, 0
3, 256700, Note_off_c, 0, 56, 0
3, 256896, Note_on_c, 0, 52, 74
3, 256896, Note_on_c, 0, 56, 71
3, 257084, Note_off_c, 0, 52, 0
3, 257084, Note_off_c, 0, 56, 0
3, 257280, Note_on_c, 0, 52, 64
3, 257280, Note_on_c, 0, 56, 65
3, 257468, Note_off_c, 0, 52, 0
3, 257468, Note_off_c, 0, 56, 0
3, 257664, Note_on_c, 0, 56, 75
3, 257664, Note_on_c, 0, 52, 64
3, 257852, Note_off_c, 0, 56, 0
3, 257852, Note_off_c, 0, 52, 0
3, 258048, Note_on_c, 0, 52, 59
3, 258048, Note_on_c, 0, 56, 60
3, 258236, Note_off_c, 0, 52, 0
3, 258236, Note_off_c, 0, 56, 0
3, 258432, Note_on_c, 0, 52, 42
3, 258432, Note_on_c, 0, 56, 51
3, 258620, Note_off_c, 0, 52, 0
3, 258620, Note_off_c, 0, 56, 0
3, 258816, Note_on_c, 0, 56, 50
3, 258816, Note_on_c, 0, 52, 51
3, 259004, Note_off_c, 0, 56, 0
3, 259004, Note_off_c, 0, 52, 0
3, 260352, Note_on_c, 0, 52, 60
3, 260352, Note_on_c, 0, 57, 54
3, 260540, Note_off_c, 0, 52, 0
3, 260540, Note_off_c, 0, 57, 0
3, 260736, Note_on_c, 0, 52, 54
3, 260736, Note_on_c, 0, 57, 64
3, 260924, Note_off_c, 0, 52, 0
3, 260924, Note_off_c, 0, 57, 0
3, 261504, Note_on_c, 0, 54, 58
3, 261504, Note_on_c, 0, 52, 58
3, 261504, Note_on_c, 0, 57, 58
3, 261692, Note_off_c, 0, 54, 0
3, 261692, Note_off_c, 0, 52, 0
3, 261692, Note_off_c, 0, 57, 0
3, 261888, Note_on_c, 0, 54, 58
3, 261888, Note_on_c, 0, 57, 63
3, 261888, Note_on_c, 0, 52, 58
3, 262076, Note_off_c, 0, 54, 0
3, 262076, Note_off_c, 0, 57, 0
3, 262076, Note_off_c, 0, 52, 0
3, 262272, Note_on_c, 0, 54, 44
3, 262272, Note_on_c, 0, 52, 55
3, 262272, Note_on_c, 0, 57, 46
3, 262460, Note_off_c, 0, 54, 0
3, 262460, Note_off_c, 0, 52, 0
3, 262460, Note_off_c, 0, 57, 0
3, 262656, Note_on_c, 0, 57, 51
3, 262656, Note_on_c, 0, 54, 58
3, 262656, Note_on_c, 0, 52, 66
3, 262844, Note_off_c, 0, 57, 0
3, 262844, Note_off_c, 0, 54, 0
3, 262844, Note_off_c, 0, 52, 0
3, 263040, Note_on_c, 0, 57, 63
3, 263040, Note_on_c, 0, 54, 64
3, 263040, Note_on_c, 0, 52, 60
3, 263228, Note_off_c, 0, 57, 0
3, 263228, Note_off_c, 0, 54, 0
3, 263228, Note_off_c, 0, 52, 0
3, 263424, Note_on_c, 0, 54, 56
3, 263424, Note_on_c, 0, 57, 56
3, 263424, Note_on_c, 0, 52, 52
3, 263612, Note_off_c, 0, 54, 0
3, 263612, Note_off_c, 0, 57, 0
3, 263612, Note_off_c, 0, 52, 0
3, 263808, Note_on_c, 0, 52, 44
3, 264188, Note_off_c, 0, 52, 0
3, 264960, Note_on_c, 0, 52, 64
3, 265340, Note_off_c, 0, 52, 0
3, 266112, Note_on_c, 0, 52, 56
3, 266492, Note_off_c, 0, 52, 0
3, 267264, Note_on_c, 0, 47, 61
3, 267644, Note_off_c, 0, 47, 0
3, 268416, Note_on_c, 0, 47, 68
3, 268796, Note_off_c, 0, 47, 0
3, 269568, Note_on_c, 0, 47, 73
3, 269948, Note_off_c, 0, 47, 0
3, 270720, Note_on_c, 0, 47, 62
3, 271100, Note_off_c, 0, 47, 0
3, 271872, Note_on_c, 0, 52, 56
3, 272252, Note_off_c, 0, 52, 0
3, 273024, Note_on_c, 0, 48, 66
3, 273216, Note_on_c, 0, 55, 54
3, 273404, Note_off_c, 0, 48, 0
3, 273404, Note_off_c, 0, 55, 0
3, 273600, Note_on_c, 0, 55, 48
3, 273788, Note_off_c, 0, 55, 0
3, 273984, Note_on_c, 0, 55, 53
3, 274172, Note_off_c, 0, 55, 0
3, 274176, Note_on_c, 0, 48, 51
3, 274368, Note_on_c, 0, 55, 52
3, 274556, Note_off_c, 0, 48, 0
3, 274556, Note_off_c, 0, 55, 0
3, 274752, Note_on_c, 0, 55, 46
3, 274940, Note_off_c, 0, 55, 0
3, 275136, Note_on_c, 0, 55, 54
3, 275324, Note_off_c, 0, 55, 0
3, 275328, Note_on_c, 0, 48, 68
3, 275520, Note_on_c, 0, 55, 62
3, 275708, Note_off_c, 0, 48, 0
3, 275708, Note_off_c, 0, 55, 0
3, 275904, Note_on_c, 0, 55, 51
3, 276092, Note_off_c, 0, 55, 0
3, 276288, Note_on_c, 0, 55, 56
3, 276476, Note_off_c, 0, 55, 0
3, 276480, Note_on_c, 0, 43, 66
3, 276672, Note_on_c, 0, 55, 54
3, 276860, Note_off_c, 0, 43, 0
3, 276860, Note_off_c, 0, 55, 0
3, 277056, Note_on_c, 0, 55, 50
3, 277244, Note_off_c, 0, 55, 0
3, 277440, Note_on_c, 0, 55, 53
3, 277628, Note_off_c, 0, 55, 0
3, 277632, Note_on_c, 0, 43, 53
3, 277824, Note_on_c, 0, 55, 55
3, 278012, Note_off_c, 0, 43, 0
3, 278012, Note_off_c, 0, 55, 0
3, 278208, Note_on_c, 0, 55, 59
3, 278396, Note_off_c, 0, 55, 0
3, 278592, Note_on_c, 0, 55, 54
3, 278780, Note_off_c, 0, 55, 0
3, 278784, Note_on_c, 0, 43, 59
3, 278976, Note_on_c, 0, 55, 62
3, 279164, Note_off_c, 0, 43, 0
3, 279164, Note_off_c, 0, 55, 0
3, 279360, Note_on_c, 0, 55, 63
3, 279548, Note_off_c, 0, 55, 0
3, 279744, Note_on_c, 0, 55, 52
3, 279932, Note_off_c, 0, 55, 0
3, 279936, Note_on_c, 0, 43, 58
3, 280128, Note_on_c, 0, 55, 46
3, 280316, Note_off_c, 0, 43, 0
3, 280316, Note_off_c, 0, 55, 0
3, 280512, Note_on_c, 0, 55, 63
3, 280700, Note_off_c, 0, 55, 0
3, 280896, Note_on_c, 0, 55, 61
3, 281084, Note_off_c, 0, 55, 0
3, 281088, Note_on_c, 0, 48, 71
3, 281280, Note_on_c, 0, 55, 58
3, 281468, Note_off_c, 0, 48, 0
3, 281468, Note_off_c, 0, 55, 0
3, 281664, Note_on_c, 0, 55, 61
3, 281852, Note_off_c, 0, 55, 0
3, 282048, Note_on_c, 0, 55, 65
3, 282236, Note_off_c, 0, 55, 0
3, 282240, Note_on_c, 0, 48, 85
3, 282240, Note_on_c, 0, 36, 82
3, 282240, Note_on_c, 0, 43, 79
3, 282432, Note_on_c, 0, 55, 82
3, 282620, Note_off_c, 0, 55, 0
3, 282624, Note_on_c, 0, 54, 85
3, 282812, Note_off_c, 0, 54, 0
3, 282816, Note_on_c, 0, 55, 78
3, 283004, Note_off_c, 0, 55, 0
3, 283388, Note_off_c, 0, 48, 0
3, 283388, Note_off_c, 0, 36, 0
3, 283388, Note_off_c, 0, 43, 0
3, 283392, Note_on_c, 0, 35, 80
3, 283392, Note_on_c, 0, 43, 70
3, 283392, Note_on_c, 0, 47, 74
3, 283584, Note_on_c, 0, 55, 83
3, 283772, Note_off_c, 0, 55, 0
3, 283776, Note_on_c, 0, 54, 81
3, 283964, Note_off_c, 0, 54, 0
3, 283968, Note_on_c, 0, 55, 80
3, 284156, Note_off_c, 0, 55, 0
3, 284540, Note_off_c, 0, 35, 0
3, 284540, Note_off_c, 0, 43, 0
3, 284540, Note_off_c, 0, 47, 0
3, 284544, Note_on_c, 0, 43, 70
3, 284544, Note_on_c, 0, 48, 72
3, 284544, Note_on_c, 0, 36, 62
3, 285308, Note_off_c, 0, 43, 0
3, 285308, Note_off_c, 0, 48, 0
3, 285308, Note_off_c, 0, 36, 0
3, 285312, Note_on_c, 0, 45, 64
3, 285500, Note_off_c, 0, 45, 0
3, 285504, Note_on_c, 0, 40, 59
3, 285692, Note_off_c, 0, 40, 0
3, 285696, Note_on_c, 0, 41, 68
3, 285820, Note_off_c, 0, 41, 0
3, 286080, Note_on_c, 0, 41, 77
3, 286204, Note_off_c, 0, 41, 0
3, 286464, Note_on_c, 0, 42, 67
3, 286588, Note_off_c, 0, 42, 0
3, 290112, Note_on_c, 0, 67, 56
3, 290112, Note_on_c, 0, 55, 39
3, 290300, Note_off_c, 0, 67, 0
3, 290300, Note_off_c, 0, 55, 0
3, 290496, Note_on_c, 0, 55, 56
3, 290496, Note_on_c, 0, 67, 57
3, 290684, Note_off_c, 0, 55, 0
3, 290684, Note_off_c, 0, 67, 0
3, 290880, Note_on_c, 0, 63, 64
3, 290880, Note_on_c, 0, 51, 54
3, 291068, Note_off_c, 0, 63, 0
3, 291068, Note_off_c, 0, 51, 0
3, 291456, Note_on_c, 0, 48, 89
3, 291648, Note_on_c, 0, 55, 70
3, 291836, Note_off_c, 0, 48, 0
3, 291836, Note_off_c, 0, 55, 0
3, 292032, Note_on_c, 0, 55, 71
3, 292220, Note_off_c, 0, 55, 0
3, 292416, Note_on_c, 0, 55, 78
3, 292604, Note_off_c, 0, 55, 0
3, 292608, Note_on_c, 0, 48, 66
3, 292800, Note_on_c, 0, 55, 73
3, 292988, Note_off_c, 0, 48, 0
3, 292988, Note_off_c, 0, 55, 0
3, 293184, Note_on_c, 0, 55, 72
3, 293372, Note_off_c, 0, 55, 0
3, 293568, Note_on_c, 0, 55, 66
3, 293756, Note_off_c, 0, 55, 0
3, 293760, Note_on_c, 0, 48, 82
3, 293952, Note_on_c, 0, 55, 69
3, 294140, Note_off_c, 0, 48, 0
3, 294140, Note_off_c, 0, 55, 0
3, 294336, Note_on_c, 0, 55, 65
3, 294524, Note_off_c, 0, 55, 0
3, 294720, Note_on_c, 0, 55, 64
3, 294908, Note_off_c, 0, 55, 0
3, 294912, Note_on_c, 0, 43, 62
3, 295104, Note_on_c, 0, 55, 70
3, 295292, Note_off_c, 0, 43, 0
3, 295292, Note_off_c, 0, 55, 0
3, 295488, Note_on_c, 0, 55, 66
3, 295676, Note_off_c, 0, 55, 0
3, 295872, Note_on_c, 0, 55, 71
3, 296060, Note_off_c, 0, 55, 0
3, 296064, Note_on_c, 0, 43, 77
3, 296256, Note_on_c, 0, 55, 73
3, 296444, Note_off_c, 0, 43, 0
3, 296444, Note_off_c, 0, 55, 0
3, 296640, Note_on_c, 0, 55, 67
3, 296828, Note_off_c, 0, 55, 0
3, 297024, Note_on_c, 0, 55, 66
3, 297212, Note_off_c, 0, 55, 0
3, 297216, Note_on_c, 0, 43, 81
3, 297408, Note_on_c, 0, 55, 62
3, 297596, Note_off_c, 0, 43, 0
3, 297596, Note_off_c, 0, 55, 0
3, 297792, Note_on_c, 0, 55, 69
3, 297980, Note_off_c, 0, 55, 0
3, 298176, Note_on_c, 0, 55, 68
3, 298364, Note_off_c, 0, 55, 0
3, 298368, Note_on_c, 0, 43, 67
3, 298560, Note_on_c, 0, 55, 76
3, 298748, Note_off_c, 0, 43, 0
3, 298748, Note_off_c, 0, 55, 0
3, 298944, Note_on_c, 0, 55, 71
3, 299132, Note_off_c, 0, 55, 0
3, 299328, Note_on_c, 0, 55, 83
3, 299516, Note_off_c, 0, 55, 0
3, 299520, Note_on_c, 0, 48, 69
3, 299712, Note_on_c, 0, 55, 37
3, 299900, Note_off_c, 0, 48, 0
3, 299900, Note_off_c, 0, 55, 0
3, 300096, Note_on_c, 0, 55, 51
3, 300284, Note_off_c, 0, 55, 0
3, 300672, Note_on_c, 0, 51, 67
3, 301052, Note_off_c, 0, 51, 0
3, 301824, Note_on_c, 0, 51, 56
3, 302204, Note_off_c, 0, 51, 0
3, 302976, Note_on_c, 0, 51, 55
3, 303356, Note_off_c, 0, 51, 0
3, 304128, Note_on_c, 0, 46, 62
3, 304508, Note_off_c, 0, 46, 0
3, 305280, Note_on_c, 0, 46, 57
3, 305660, Note_off_c, 0, 46, 0
3, 306432, Note_on_c, 0, 46, 61
3, 306812, Note_off_c, 0, 46, 0
3, 307584, Note_on_c, 0, 46, 60
3, 307964, Note_off_c, 0, 46, 0
3, 308736, Note_on_c, 0, 51, 56
3, 309116, Note_off_c, 0, 51, 0
3, 309888, Note_on_c, 0, 46, 83
3, 309888, Note_on_c, 0, 51, 76
3, 309888, Note_on_c, 0, 39, 83
3, 311036, Note_off_c, 0, 46, 0
3, 311036, Note_off_c, 0, 51, 0
3, 311036, Note_off_c, 0, 39, 0
3, 311040, Note_on_c, 0, 46, 76
3, 311040, Note_on_c, 0, 50, 86
3, 311040, Note_on_c, 0, 38, 83
3, 312188, Note_off_c, 0, 46, 0
3, 312188, Note_off_c, 0, 50, 0
3, 312188, Note_off_c, 0, 38, 0
3, 312192, Note_on_c, 0, 51, 85
3, 312192, Note_on_c, 0, 39, 85
3, 312192, Note_on_c, 0, 46, 75
3, 312956, Note_off_c, 0, 51, 0
3, 312956, Note_off_c, 0, 39, 0
3, 312956, Note_off_c, 0, 46, 0
3, 312960, Note_on_c, 0, 48, 76
3, 313148, Note_off_c, 0, 48, 0
3, 313152, Note_on_c, 0, 43, 71
3, 313340, Note_off_c, 0, 43, 0
3, 313344, Note_on_c, 0, 44, 77
3, 313468, Note_off_c, 0, 44, 0
3, 313728, Note_on_c, 0, 44, 80
3, 313852, Note_off_c, 0, 44, 0
3, 314112, Note_on_c, 0, 45, 88
3, 314236, Note_off_c, 0, 45, 0
3, 314496, Note_on_c, 0, 62, 68
3, 314496, Note_on_c, 0, 46, 46
3, 314876, Note_off_c, 0, 62, 0
3, 314876, Note_off_c, 0, 46, 0
3, 317568, Note_on_c, 0, 60, 84
3, 317568, Note_on_c, 0, 48, 86
3, 317756, Note_off_c, 0, 60, 0
3, 317756, Note_off_c, 0, 48, 0
3, 317760, Note_on_c, 0, 62, 88
3, 317760, Note_on_c, 0, 50, 68
3, 317948, Note_off_c, 0, 62, 0
3, 317948, Note_off_c, 0, 50, 0
3, 318912, Note_on_c, 0, 55, 86
3, 318912, Note_on_c, 0, 43, 66
3, 319100, Note_off_c, 0, 55, 0
3, 319100, Note_off_c, 0, 43, 0
3, 319104, Note_on_c, 0, 54, 82
3, 319104, Note_on_c, 0, 42, 74
3, 319484, Note_off_c, 0, 54, 0
3, 319484, Note_off_c, 0, 42, 0
3, 322560, Note_on_c, 0, 55, 60
3, 322684, Note_off_c, 0, 55, 0
3, 322944, Note_on_c, 0, 51, 64
3, 323068, Note_off_c, 0, 51, 0
3, 323328, Note_on_c, 0, 49, 62
3, 323452, Note_off_c, 0, 49, 0
3, 324864, Note_on_c, 0, 50, 62
3, 325244, Note_off_c, 0, 50, 0
3, 326016, Note_on_c, 0, 50, 63
3, 326396, Note_off_c, 0, 50, 0
3, 327168, Note_on_c, 0, 45, 44
3, 327548, Note_off_c, 0, 45, 0
3, 328320, Note_on_c, 0, 45, 64
3, 328700, Note_off_c, 0, 45, 0
3, 329472, Note_on_c, 0, 45, 58
3, 329852, Note_off_c, 0, 45, 0
3, 330624, Note_on_c, 0, 45, 56
3, 331004, Note_off_c, 0, 45, 0
3, 331776, Note_on_c, 0, 50, 57
3, 332156, Note_off_c, 0, 50, 0
3, 332928, Note_on_c, 0, 54, 51
3, 333052, Note_off_c, 0, 54, 0
3, 333312, Note_on_c, 0, 50, 55
3, 333436, Note_off_c, 0, 50, 0
3, 333696, Note_on_c, 0, 42, 48
3, 333820, Note_off_c, 0, 42, 0
3, 334080, Note_on_c, 0, 38, 45
3, 334204, Note_off_c, 0, 38, 0
3, 334464, Note_on_c, 0, 54, 38
3, 334588, Note_off_c, 0, 54, 0
3, 334848, Note_on_c, 0, 50, 45
3, 334972, Note_off_c, 0, 50, 0
3, 335232, Note_on_c, 0, 42, 44
3, 335356, Note_off_c, 0, 42, 0
3, 335616, Note_on_c, 0, 38, 60
3, 335740, Note_off_c, 0, 38, 0
3, 336000, Note_on_c, 0, 54, 75
3, 336124, Note_off_c, 0, 54, 0
3, 336384, Note_on_c, 0, 50, 66
3, 336508, Note_off_c, 0, 50, 0
3, 336768, Note_on_c, 0, 42, 71
3, 336892, Note_off_c, 0, 42, 0
3, 337152, Note_on_c, 0, 38, 72
3, 337276, Note_off_c, 0, 38, 0
3, 337536, Note_on_c, 0, 43, 88
3, 337916, Note_off_c, 0, 43, 0
3, 339840, Note_on_c, 0, 55, 80
3, 339840, Note_on_c, 0, 59, 76
3, 340028, Note_off_c, 0, 55, 0
3, 340028, Note_off_c, 0, 59, 0
3, 340224, Note_on_c, 0, 55, 81
3, 340224, Note_on_c, 0, 59, 77
3, 340412, Note_off_c, 0, 55, 0
3, 340412, Note_off_c, 0, 59, 0
3, 341376, Note_on_c, 0, 60, 74
3, 341376, Note_on_c, 0, 55, 75
3, 341564, Note_off_c, 0, 60, 0
3, 341564, Note_off_c, 0, 55, 0
3, 342144, Note_on_c, 0, 55, 84
3, 342144, Note_on_c, 0, 60, 80
3, 342332, Note_off_c, 0, 55, 0
3, 342332, Note_off_c, 0, 60, 0
3, 350208, Note_on_c, 0, 47, 66
3, 350396, Note_off_c, 0, 47, 0
3, 350400, Note_on_c, 0, 50, 59
3, 350588, Note_off_c, 0, 50, 0
3, 350592, Note_on_c, 0, 55, 56
3, 350780, Note_off_c, 0, 55, 0
3, 354816, Note_on_c, 0, 48, 55
3, 355004, Note_off_c, 0, 48, 0
3, 355008, Note_on_c, 0, 52, 59
3, 355196, Note_off_c, 0, 52, 0
3, 355200, Note_on_c, 0, 55, 59
3, 355388, Note_off_c, 0, 55, 0
3, 359424, Note_on_c, 0, 45, 70
3, 359612, Note_off_c, 0, 45, 0
3, 359616, Note_on_c, 0, 49, 64
3, 359804, Note_off_c, 0, 49, 0
3, 359808, Note_on_c, 0, 52, 64
3, 359996, Note_off_c, 0, 52, 0
3, 367104, Note_on_c, 0, 55, 85
3, 367292, Note_off_c, 0, 55, 0
3, 367296, Note_on_c, 0, 54, 85
3, 367484, Note_off_c, 0, 54, 0
3, 367488, Note_on_c, 0, 55, 60
3, 367676, Note_off_c, 0, 55, 0
3, 371712, Note_on_c, 0, 55, 82
3, 371900, Note_off_c, 0, 55, 0
3, 371904, Note_on_c, 0, 54, 75
3, 372092, Note_off_c, 0, 54, 0
3, 372096, Note_on_c, 0, 55, 63
3, 372284, Note_off_c, 0, 55, 0
3, 382080, Note_on_c, 0, 62, 66
3, 382080, Note_on_c, 0, 67, 70
3, 382080, Note_on_c, 0, 55, 66
3, 382460, Note_off_c, 0, 62, 0
3, 382460, Note_off_c, 0, 67, 0
3, 382460, Note_off_c, 0, 55, 0
3, 390144, Note_on_c, 0, 55, 82
3, 390144, Note_on_c, 0, 59, 73
3, 390332, Note_off_c, 0, 55, 0
3, 390332, Note_off_c, 0, 59, 0
3, 391680, Note_on_c, 0, 50, 53
3, 391868, Note_off_c, 0, 50, 0
3, 391872, Note_on_c, 0, 47, 60
3, 392060, Note_off_c, 0, 47, 0
3, 392064, Note_on_c, 0, 50, 45
3, 392252, Note_off_c, 0, 50, 0
3, 392256, Note_on_c, 0, 47, 55
3, 392444, Note_off_c, 0, 47, 0
3, 392448, Note_on_c, 0, 50, 53
3, 392636, Note_off_c, 0, 50, 0
3, 392640, Note_on_c, 0, 47, 41
3, 392828, Note_off_c, 0, 47, 0
3, 392832, Note_on_c, 0, 50, 51
3, 393020, Note_off_c, 0, 50, 0
3, 393024, Note_on_c, 0, 45, 64
3, 393212, Note_off_c, 0, 45, 0
3, 393216, Note_on_c, 0, 50, 34
3, 393404, Note_off_c, 0, 50, 0
3, 393408, Note_on_c, 0, 45, 45
3, 393596, Note_off_c, 0, 45, 0
3, 393600, Note_on_c, 0, 50, 55
3, 393788, Note_off_c, 0, 50, 0
3, 393792, Note_on_c, 0, 38, 28
3, 393980, Note_off_c, 0, 38, 0
3, 394368, Note_on_c, 0, 55, 74
3, 394368, Note_on_c, 0, 59, 63
3, 394556, Note_off_c, 0, 55, 0
3, 394556, Note_off_c, 0, 59, 0
3, 396288, Note_on_c, 0, 47, 52
3, 396476, Note_off_c, 0, 47, 0
3, 396480, Note_on_c, 0, 50, 39
3, 396668, Note_off_c, 0, 50, 0
3, 396672, Note_on_c, 0, 47, 28
3, 396860, Note_off_c, 0, 47, 0
3, 396864, Note_on_c, 0, 50, 33
3, 397052, Note_off_c, 0, 50, 0
3, 397056, Note_on_c, 0, 47, 56
3, 397244, Note_off_c, 0, 47, 0
3, 397248, Note_on_c, 0, 50, 58
3, 397436, Note_off_c, 0, 50, 0
3, 397440, Note_on_c, 0, 45, 55
3, 397628, Note_off_c, 0, 45, 0
3, 397632, Note_on_c, 0, 50, 52
3, 397820, Note_off_c, 0, 50, 0
3, 397824, Note_on_c, 0, 45, 65
3, 398012, Note_off_c, 0, 45, 0
3, 398016, Note_on_c, 0, 50, 55
3, 398204, Note_off_c, 0, 50, 0
3, 398208, Note_on_c, 0, 38, 53
3, 398396, Note_off_c, 0, 38, 0
3, 398400, Note_on_c, 0, 50, 55
3, 398588, Note_off_c, 0, 50, 0
3, 398592, Note_on_c, 0, 43, 90
3, 398716, Note_off_c, 0, 43, 0
3, 398976, Note_on_c, 0, 47, 96
3, 399100, Note_off_c, 0, 47, 0
3, 399360, Note_on_c, 0, 43, 94
3, 399484, Note_off_c, 0, 43, 0
3, 399744, Note_on_c, 0, 50, 92
3, 400508, Note_off_c, 0, 50, 0
3, 400512, Note_on_c, 0, 48, 68
3, 400700, Note_off_c, 0, 48, 0
3, 400704, Note_on_c, 0, 47, 70
3, 400892, Note_off_c, 0, 47, 0
3, 400896, Note_on_c, 0, 45, 74
3, 401084, Note_off_c, 0, 45, 0
3, 401088, Note_on_c, 0, 43, 67
3, 401276, Note_off_c, 0, 43, 0
3, 401280, Note_on_c, 0, 42, 69
3, 401468, Note_off_c, 0, 42, 0
3, 401472, Note_on_c, 0, 43, 72
3, 401660, Note_off_c, 0, 43, 0
3, 401664, Note_on_c, 0, 47, 70
3, 401852, Note_off_c, 0, 47, 0
3, 401856, Note_on_c, 0, 43, 74
3, 402044, Note_off_c, 0, 43, 0
3, 402048, Note_on_c, 0, 42, 73
3, 402428, Note_off_c, 0, 42, 0
3, 402432, Note_on_c, 0, 40, 76
3, 402556, Note_off_c, 0, 40, 0
3, 402816, Note_on_c, 0, 40, 74
3, 402940, Note_off_c, 0, 40, 0
3, 403200, Note_on_c, 0, 48, 80
3, 403200, Note_on_c, 0, 52, 78
3, 403388, Note_off_c, 0, 48, 0
3, 403388, Note_off_c, 0, 52, 0
3, 403584, Note_on_c, 0, 52, 83
3, 403584, Note_on_c, 0, 48, 85
3, 403772, Note_off_c, 0, 52, 0
3, 403772, Note_off_c, 0, 48, 0
3, 403968, Note_on_c, 0, 52, 82
3, 403968, Note_on_c, 0, 48, 76
3, 404156, Note_off_c, 0, 52, 0
3, 404156, Note_off_c, 0, 48, 0
3, 404352, Note_on_c, 0, 48, 85
3, 404352, Note_on_c, 0, 52, 78
3, 404540, Note_off_c, 0, 48, 0
3, 404540, Note_off_c, 0, 52, 0
3, 404736, Note_on_c, 0, 52, 82
3, 404736, Note_on_c, 0, 48, 78
3, 404924, Note_off_c, 0, 52, 0
3, 404924, Note_off_c, 0, 48, 0
3, 405120, Note_on_c, 0, 52, 83
3, 405120, Note_on_c, 0, 48, 79
3, 405308, Note_off_c, 0, 52, 0
3, 405308, Note_off_c, 0, 48, 0
3, 407760, Note_on_c, 0, 54, 64
3, 407804, Note_off_c, 0, 54, 0
3, 407808, Note_on_c, 0, 55, 77
3, 407932, Note_off_c, 0, 55, 0
3, 408528, Note_on_c, 0, 54, 69
3, 408572, Note_off_c, 0, 54, 0
3, 408576, Note_on_c, 0, 55, 79
3, 408700, Note_off_c, 0, 55, 0
3, 410304, Note_on_c, 0, 55, 68
3, 410492, Note_off_c, 0, 55, 0
3, 410496, Note_on_c, 0, 54, 69
3, 410684, Note_off_c, 0, 54, 0
3, 410688, Note_on_c, 0, 55, 70
3, 410876, Note_off_c, 0, 55, 0
3, 411072, Note_on_c, 0, 55, 85
3, 411260, Note_off_c, 0, 55, 0
3, 411264, Note_on_c, 0, 54, 74
3, 411644, Note_off_c, 0, 54, 0
3, 411648, Note_on_c, 0, 52, 82
3, 411772, Note_off_c, 0, 52, 0
3, 412032, Note_on_c, 0, 52, 82
3, 412156, Note_off_c, 0, 52, 0
3, 412416, Note_on_c, 0, 52, 88
3, 412416, Note_on_c, 0, 48, 90
3, 412604, Note_off_c, 0, 52, 0
3, 412604, Note_off_c, 0, 48, 0
3, 412800, Note_on_c, 0, 48, 88
3, 412800, Note_on_c, 0, 52, 85
3, 412988, Note_off_c, 0, 48, 0
3, 412988, Note_off_c, 0, 52, 0
3, 413184, Note_on_c, 0, 52, 86
3, 413184, Note_on_c, 0, 48, 84
3, 413372, Note_off_c, 0, 52, 0
3, 413372, Note_off_c, 0, 48, 0
3, 413568, Note_on_c, 0, 52, 83
3, 413568, Note_on_c, 0, 48, 84
3, 413756, Note_off_c, 0, 52, 0
3, 413756, Note_off_c, 0, 48, 0
3, 413952, Note_on_c, 0, 52, 83
3, 413952, Note_on_c, 0, 48, 82
3, 414140, Note_off_c, 0, 52, 0
3, 414140, Note_off_c, 0, 48, 0
3, 414336, Note_on_c, 0, 48, 84
3, 414336, Note_on_c, 0, 52, 85
3, 414524, Note_off_c, 0, 48, 0
3, 414524, Note_off_c, 0, 52, 0
3, 415872, Note_on_c, 0, 43, 55
3, 416252, Note_off_c, 0, 43, 0
3, 416640, Note_on_c, 0, 59, 47
3, 416640, Note_on_c, 0, 55, 41
3, 417020, Note_off_c, 0, 59, 0
3, 417020, Note_off_c, 0, 55, 0
3, 417024, Note_on_c, 0, 43, 46
3, 417404, Note_off_c, 0, 43, 0
3, 417792, Note_on_c, 0, 59, 48
3, 417792, Note_on_c, 0, 55, 31
3, 418172, Note_off_c, 0, 59, 0
3, 418172, Note_off_c, 0, 55, 0
3, 418176, Note_on_c, 0, 43, 44
3, 418556, Note_off_c, 0, 43, 0
3, 418944, Note_on_c, 0, 59, 48
3, 418944, Note_on_c, 0, 55, 45
3, 419324, Note_off_c, 0, 59, 0
3, 419324, Note_off_c, 0, 55, 0
3, 419328, Note_on_c, 0, 50, 62
3, 419708, Note_off_c, 0, 50, 0
3, 420480, Note_on_c, 0, 43, 44
3, 420860, Note_off_c, 0, 43, 0
3, 421632, Note_on_c, 0, 43, 34
3, 422012, Note_off_c, 0, 43, 0
3, 422400, Note_on_c, 0, 59, 43
3, 422400, Note_on_c, 0, 55, 43
3, 422780, Note_off_c, 0, 59, 0
3, 422780, Note_off_c, 0, 55, 0
3, 422784, Note_on_c, 0, 43, 37
3, 423164, Note_off_c, 0, 43, 0
3, 423552, Note_on_c, 0, 59, 43
3, 423552, Note_on_c, 0, 55, 48
3, 423932, Note_off_c, 0, 59, 0
3, 423932, Note_off_c, 0, 55, 0
3, 423936, Note_on_c, 0, 50, 44
3, 424316, Note_off_c, 0, 50, 0
3, 425088, Note_on_c, 0, 31, 48
3, 425276, Note_off_c, 0, 31, 0
3, 425280, Note_on_c, 0, 35, 47
3, 425468, Note_off_c, 0, 35, 0
3, 425472, Note_on_c, 0, 38, 52
3, 425660, Note_off_c, 0, 38, 0
3, 425664, Note_on_c, 0, 55, 57
3, 425664, Note_on_c, 0, 43, 44
3, 425852, Note_off_c, 0, 55, 0
3, 425852, Note_off_c, 0, 43, 0
3, 425856, Note_on_c, 0, 47, 38
3, 425856, Note_on_c, 0, 59, 53
3, 426044, Note_off_c, 0, 47, 0
3, 426044, Note_off_c, 0, 59, 0
3, 426240, Note_on_c, 0, 43, 55
3, 426620, Note_off_c, 0, 43, 0
3, 433152, Key_signature, -2, "minor"
3, 433152, Note_on_c, 0, 43, 48
3, 433340, Note_off_c, 0, 43, 0
3, 433344, Note_on_c, 0, 50, 55
3, 433532, Note_off_c, 0, 50, 0
3, 433536, Note_on_c, 0, 50, 55
3, 433724, Note_off_c, 0, 50, 0
3, 433728, Note_on_c, 0, 43, 52
3, 433916, Note_off_c, 0, 43, 0
3, 433920, Note_on_c, 0, 50, 42
3, 434108, Note_off_c, 0, 50, 0
3, 434112, Note_on_c, 0, 50, 46
3, 434300, Note_off_c, 0, 50, 0
3, 434304, Note_on_c, 0, 43, 58
3, 434492, Note_off_c, 0, 43, 0
3, 434496, Note_on_c, 0, 50, 64
3, 434684, Note_off_c, 0, 50, 0
3, 434688, Note_on_c, 0, 50, 69
3, 434876, Note_off_c, 0, 50, 0
3, 434880, Note_on_c, 0, 43, 66
3, 435068, Note_off_c, 0, 43, 0
3, 435072, Note_on_c, 0, 50, 69
3, 435260, Note_off_c, 0, 50, 0
3, 435264, Note_on_c, 0, 50, 64
3, 435452, Note_off_c, 0, 50, 0
3, 435456, Note_on_c, 0, 43, 52
3, 435644, Note_off_c, 0, 43, 0
3, 435648, Note_on_c, 0, 50, 51
3, 435836, Note_off_c, 0, 50, 0
3, 435840, Note_on_c, 0, 50, 47
3, 436028, Note_off_c, 0, 50, 0
3, 436032, Note_on_c, 0, 38, 29
3, 436220, Note_off_c, 0, 38, 0
3, 436224, Note_on_c, 0, 50, 42
3, 436412, Note_off_c, 0, 50, 0
3, 436416, Note_on_c, 0, 50, 42
3, 436604, Note_off_c, 0, 50, 0
3, 436608, Note_on_c, 0, 43, 47
3, 436796, Note_off_c, 0, 43, 0
3, 436800, Note_on_c, 0, 50, 31
3, 436988, Note_off_c, 0, 50, 0
3, 436992, Note_on_c, 0, 50, 43
3, 437180, Note_off_c, 0, 50, 0
3, 437184, Note_on_c, 0, 43, 56
3, 437372, Note_off_c, 0, 43, 0
3, 437376, Note_on_c, 0, 50, 52
3, 437564, Note_off_c, 0, 50, 0
3, 437568, Note_on_c, 0, 50, 65
3, 437756, Note_off_c, 0, 50, 0
3, 437760, Note_on_c, 0, 43, 66
3, 437948, Note_off_c, 0, 43, 0
3, 437952, Note_on_c, 0, 50, 74
3, 438140, Note_off_c, 0, 50, 0
3, 438144, Note_on_c, 0, 50, 70
3, 438332, Note_off_c, 0, 50, 0
3, 438336, Note_on_c, 0, 41, 66
3, 438524, Note_off_c, 0, 41, 0
3, 438528, Note_on_c, 0, 53, 74
3, 438716, Note_off_c, 0, 53, 0
3, 438720, Note_on_c, 0, 53, 74
3, 438908, Note_off_c, 0, 53, 0
3, 438912, Note_on_c, 0, 41, 70
3, 439100, Note_off_c, 0, 41, 0
3, 439104, Note_on_c, 0, 53, 66
3, 439292, Note_off_c, 0, 53, 0
3, 439296, Note_on_c, 0, 53, 51
3, 439484, Note_off_c, 0, 53, 0
3, 439488, Note_on_c, 0, 46, 42
3, 439676, Note_off_c, 0, 46, 0
3, 439680, Note_on_c, 0, 53, 48
3, 439868, Note_off_c, 0, 53, 0
3, 439872, Note_on_c, 0, 53, 45
3, 440060, Note_off_c, 0, 53, 0
3, 440064, Note_on_c, 0, 46, 40
3, 440252, Note_off_c, 0, 46, 0
3, 440256, Note_on_c, 0, 53, 37
3, 440444, Note_off_c, 0, 53, 0
3, 440448, Note_on_c, 0, 53, 36
3, 440636, Note_off_c, 0, 53, 0
3, 440640, Note_on_c, 0, 41, 59
3, 440828, Note_off_c, 0, 41, 0
3, 440832, Note_on_c, 0, 53, 55
3, 441020, Note_off_c, 0, 53, 0
3, 441024, Note_on_c, 0, 53, 65
3, 441212, Note_off_c, 0, 53, 0
3, 441216, Note_on_c, 0, 36, 74
3, 441404, Note_off_c, 0, 36, 0
3, 441408, Note_on_c, 0, 48, 80
3, 441596, Note_off_c, 0, 48, 0
3, 441600, Note_on_c, 0, 48, 75
3, 441788, Note_off_c, 0, 48, 0
3, 441792, Note_on_c, 0, 36, 62
3, 441980, Note_off_c, 0, 36, 0
3, 441984, Note_on_c, 0, 48, 64
3, 442172, Note_off_c, 0, 48, 0
3, 442176, Note_on_c, 0, 48, 70
3, 442364, Note_off_c, 0, 48, 0
3, 442368, Note_on_c, 0, 38, 65
3, 442556, Note_off_c, 0, 38, 0
3, 442560, Note_on_c, 0, 50, 60
3, 442748, Note_off_c, 0, 50, 0
3, 442752, Note_on_c, 0, 38, 48
3, 442940, Note_off_c, 0, 38, 0
3, 442944, Note_on_c, 0, 43, 52
3, 443132, Note_off_c, 0, 43, 0
3, 443136, Note_on_c, 0, 43, 48
3, 443136, Note_on_c, 0, 55, 39
3, 443324, Note_off_c, 0, 43, 0
3, 443324, Note_off_c, 0, 55, 0
3, 443328, Note_on_c, 0, 41, 46
3, 443328, Note_on_c, 0, 53, 26
3, 443516, Note_off_c, 0, 41, 0
3, 443516, Note_off_c, 0, 53, 0
3, 443520, Note_on_c, 0, 46, 35
3, 443708, Note_off_c, 0, 46, 0
3, 443712, Note_on_c, 0, 53, 40
3, 443900, Note_off_c, 0, 53, 0
3, 443904, Note_on_c, 0, 53, 54
3, 444092, Note_off_c, 0, 53, 0
3, 444096, Note_on_c, 0, 41, 57
3, 444284, Note_off_c, 0, 41, 0
3, 444288, Note_on_c, 0, 53, 48
3, 444476, Note_off_c, 0, 53, 0
3, 444480, Note_on_c, 0, 53, 64
3, 444668, Note_off_c, 0, 53, 0
3, 444672, Note_on_c, 0, 36, 65
3, 444860, Note_off_c, 0, 36, 0
3, 444864, Note_on_c, 0, 48, 74
3, 445052, Note_off_c, 0, 48, 0
3, 445056, Note_on_c, 0, 48, 79
3, 445244, Note_off_c, 0, 48, 0
3, 445248, Note_on_c, 0, 36, 44
3, 445436, Note_off_c, 0, 36, 0
3, 445440, Note_on_c, 0, 48, 63
3, 445628, Note_off_c, 0, 48, 0
3, 445632, Note_on_c, 0, 48, 59
3, 445820, Note_off_c, 0, 48, 0
3, 445824, Note_on_c, 0, 38, 36
3, 446012, Note_off_c, 0, 38, 0
3, 446016, Note_on_c, 0, 50, 44
3, 446204, Note_off_c, 0, 50, 0
3, 446208, Note_on_c, 0, 50, 48
3, 446396, Note_off_c, 0, 50, 0
3, 446400, Note_on_c, 0, 43, 33
3, 446588, Note_off_c, 0, 43, 0
3, 446592, Note_on_c, 0, 55, 52
3, 446780, Note_off_c, 0, 55, 0
3, 446784, Note_on_c, 0, 55, 44
3, 446972, Note_off_c, 0, 55, 0
3, 446976, Note_on_c, 0, 55, 49
3, 447548, Note_off_c, 0, 55, 0
3, 448704, Key_signature, -3, "major"
3, 448704, Note_on_c, 0, 51, 34
3, 448796, Note_off_c, 0, 51, 0
3, 448800, Note_on_c, 0, 55, 29
3, 448892, Note_off_c, 0, 55, 0
3, 448992, Note_on_c, 0, 55, 39
3, 449084, Note_off_c, 0, 55, 0
3, 449088, Note_on_c, 0, 51, 40
3, 449180, Note_off_c, 0, 51, 0
3, 449184, Note_on_c, 0, 46, 32
3, 449276, Note_off_c, 0, 46, 0
3, 449280, Note_on_c, 0, 51, 34
3, 449372, Note_off_c, 0, 51, 0
3, 449376, Note_on_c, 0, 55, 43
3, 449468, Note_off_c, 0, 55, 0
3, 449568, Note_on_c, 0, 55, 10
3, 449660, Note_off_c, 0, 55, 0
3, 449664, Note_on_c, 0, 51, 26
3, 449756, Note_off_c, 0, 51, 0
3, 449760, Note_on_c, 0, 46, 32
3, 449852, Note_off_c, 0, 46, 0
3, 449856, Note_on_c, 0, 51, 40
3, 449948, Note_off_c, 0, 51, 0
3, 449952, Note_on_c, 0, 55, 36
3, 450044, Note_off_c, 0, 55, 0
3, 450144, Note_on_c, 0, 55, 46
3, 450236, Note_off_c, 0, 55, 0
3, 450240, Note_on_c, 0, 51, 37
3, 450332, Note_off_c, 0, 51, 0
3, 450336, Note_on_c, 0, 46, 42
3, 450428, Note_off_c, 0, 46, 0
3, 450432, Note_on_c, 0, 51, 34
3, 450524, Note_off_c, 0, 51, 0
3, 450528, Note_on_c, 0, 55, 36
3, 450620, Note_off_c, 0, 55, 0
3, 450720, Note_on_c, 0, 55, 32
3, 450812, Note_off_c, 0, 55, 0
3, 450816, Note_on_c, 0, 51, 33
3, 450908, Note_off_c, 0, 51, 0
3, 450912, Note_on_c, 0, 46, 32
3, 451004, Note_off_c, 0, 46, 0
3, 451008, Note_on_c, 0, 51, 30
3, 451100, Note_off_c, 0, 51, 0
3, 451104, Note_on_c, 0, 55, 50
3, 451196, Note_off_c, 0, 55, 0
3, 451296, Note_on_c, 0, 55, 34
3, 451388, Note_off_c, 0, 55, 0
3, 451392, Note_on_c, 0, 51, 43
3, 451484, Note_off_c, 0, 51, 0
3, 451488, Note_on_c, 0, 46, 39
3, 451580, Note_off_c, 0, 46, 0
3, 451584, Note_on_c, 0, 53, 28
3, 451676, Note_off_c, 0, 53, 0
3, 451680, Note_on_c, 0, 56, 39
3, 451772, Note_off_c, 0, 56, 0
3, 451872, Note_on_c, 0, 56, 34
3, 451964, Note_off_c, 0, 56, 0
3, 451968, Note_on_c, 0, 53, 33
3, 452060, Note_off_c, 0, 53, 0
3, 452064, Note_on_c, 0, 46, 31
3, 452156, Note_off_c, 0, 46, 0
3, 452160, Note_on_c, 0, 50, 6
3, 452252, Note_off_c, 0, 50, 0
3, 452256, Note_on_c, 0, 53, 35
3, 452348, Note_off_c, 0, 53, 0
3, 452448, Note_on_c, 0, 53, 44
3, 452540, Note_off_c, 0, 53, 0
3, 452544, Note_on_c, 0, 50, 50
3, 452636, Note_off_c, 0, 50, 0
3, 452640, Note_on_c, 0, 46, 33
3, 452732, Note_off_c, 0, 46, 0
3, 452736, Note_on_c, 0, 50, 44
3, 452828, Note_off_c, 0, 50, 0
3, 452832, Note_on_c, 0, 53, 28
3, 452924, Note_off_c, 0, 53, 0
3, 453024, Note_on_c, 0, 53, 51
3, 453116, Note_off_c, 0, 53, 0
3, 453120, Note_on_c, 0, 50, 43
3, 453212, Note_off_c, 0, 50, 0
3, 453216, Note_on_c, 0, 46, 38
3, 453308, Note_off_c, 0, 46, 0
3, 453312, Note_on_c, 0, 51, 33
3, 453404, Note_off_c, 0, 51, 0
3, 453408, Note_on_c, 0, 55, 37
3, 453500, Note_off_c, 0, 55, 0
3, 453600, Note_on_c, 0, 55, 15
3, 453692, Note_off_c, 0, 55, 0
3, 453696, Note_on_c, 0, 51, 27
3, 453788, Note_off_c, 0, 51, 0
3, 453792, Note_on_c, 0, 46, 22
3, 453884, Note_off_c, 0, 46, 0
3, 453888, Note_on_c, 0, 44, 35
3, 453980, Note_off_c, 0, 44, 0
3, 453984, Note_on_c, 0, 46, 33
3, 454076, Note_off_c, 0, 46, 0
3, 454080, Note_on_c, 0, 50, 42
3, 454172, Note_off_c, 0, 50, 0
3, 454176, Note_on_c, 0, 53, 36
3, 454268, Note_off_c, 0, 53, 0
3, 454272, Note_on_c, 0, 50, 40
3, 454364, Note_off_c, 0, 50, 0
3, 454368, Note_on_c, 0, 46, 35
3, 454460, Note_off_c, 0, 46, 0
3, 454464, Note_on_c, 0, 44, 37
3, 454556, Note_off_c, 0, 44, 0
3, 454560, Note_on_c, 0, 46, 27
3, 454652, Note_off_c, 0, 46, 0
3, 454656, Note_on_c, 0, 50, 34
3, 454748, Note_off_c, 0, 50, 0
3, 454752, Note_on_c, 0, 53, 42
3, 454844, Note_off_c, 0, 53, 0
3, 454848, Note_on_c, 0, 50, 35
3, 454940, Note_off_c, 0, 50, 0
3, 454944, Note_on_c, 0, 46, 27
3, 455036, Note_off_c, 0, 46, 0
3, 455040, Note_on_c, 0, 43, 12
3, 455132, Note_off_c, 0, 43, 0
3, 455136, Note_on_c, 0, 46, 22
3, 455228, Note_off_c, 0, 46, 0
3, 455232, Note_on_c, 0, 51, 30
3, 455324, Note_off_c, 0, 51, 0
3, 455328, Note_on_c, 0, 55, 44
3, 455420, Note_off_c, 0, 55, 0
3, 455520, Note_on_c, 0, 55, 42
3, 455612, Note_off_c, 0, 55, 0
3, 455616, Note_on_c, 0, 56, 38
3, 455708, Note_off_c, 0, 56, 0
3, 456192, Note_on_c, 0, 56, 38
3, 456284, Note_off_c, 0, 56, 0
3, 456768, Note_on_c, 0, 55, 45
3, 456860, Note_off_c, 0, 55, 0
3, 457344, Note_on_c, 0, 56, 35
3, 457436, Note_off_c, 0, 56, 0
3, 459072, Note_on_c, 0, 44, 35
3, 459164, Note_off_c, 0, 44, 0
3, 459168, Note_on_c, 0, 48, 54
3, 459260, Note_off_c, 0, 48, 0
3, 459264, Note_on_c, 0, 53, 46
3, 459356, Note_off_c, 0, 53, 0
3, 459360, Note_on_c, 0, 56, 40
3, 459452, Note_off_c, 0, 56, 0
3, 459552, Note_on_c, 0, 56, 36
3, 459644, Note_off_c, 0, 56, 0
3, 459648, Note_on_c, 0, 46, 32
3, 459740, Note_off_c, 0, 46, 0
3, 459744, Note_on_c, 0, 51, 32
3, 459836, Note_off_c, 0, 51, 0
3, 459840, Note_on_c, 0, 55, 29
3, 459932, Note_off_c, 0, 55, 0
3, 460032, Note_on_c, 0, 55, 37
3, 460124, Note_off_c, 0, 55, 0
3, 460128, Note_on_c, 0, 51, 37
3, 460220, Note_off_c, 0, 51, 0
3, 460224, Note_on_c, 0, 46, 34
3, 460224, Note_on_c, 0, 56, 51
3, 460316, Note_off_c, 0, 46, 0
3, 460320, Note_on_c, 0, 50, 42
3, 460412, Note_off_c, 0, 56, 0
3, 460412, Note_off_c, 0, 50, 0
3, 460416, Note_on_c, 0, 53, 36
3, 460508, Note_off_c, 0, 53, 0
3, 460512, Note_on_c, 0, 56, 44
3, 460604, Note_off_c, 0, 56, 0
3, 460608, Note_on_c, 0, 53, 41
3, 460700, Note_off_c, 0, 53, 0
3, 460704, Note_on_c, 0, 56, 42
3, 460796, Note_off_c, 0, 56, 0
3, 460800, Note_on_c, 0, 43, 44
3, 460800, Note_on_c, 0, 58, 43
3, 460800, Note_on_c, 0, 63, 35
3, 460800, Note_on_c, 0, 55, 34
3, 460892, Note_off_c, 0, 43, 0
3, 460896, Note_on_c, 0, 46, 46
3, 460988, Note_off_c, 0, 46, 0
3, 460992, Note_on_c, 0, 51, 47
3, 461084, Note_off_c, 0, 51, 0
3, 461088, Note_on_c, 0, 46, 46
3, 461180, Note_off_c, 0, 46, 0
3, 461184, Note_on_c, 0, 43, 40
3, 461276, Note_off_c, 0, 43, 0
3, 461280, Note_on_c, 0, 39, 42
3, 461372, Note_off_c, 0, 58, 0
3, 461372, Note_off_c, 0, 63, 0
3, 461372, Note_off_c, 0, 55, 0
3, 461372, Note_off_c, 0, 39, 0
3, 461376, Note_on_c, 0, 44, 42
3, 461468, Note_off_c, 0, 44, 0
3, 461472, Note_on_c, 0, 48, 52
3, 461564, Note_off_c, 0, 48, 0
3, 461568, Note_on_c, 0, 51, 62
3, 461660, Note_off_c, 0, 51, 0
3, 461664, Note_on_c, 0, 48, 52
3, 461756, Note_off_c, 0, 48, 0
3, 461760, Note_on_c, 0, 44, 44
3, 461852, Note_off_c, 0, 44, 0
3, 461856, Note_on_c, 0, 39, 43
3, 461948, Note_off_c, 0, 39, 0
3, 461952, Note_on_c, 0, 44, 53
3, 462044, Note_off_c, 0, 44, 0
3, 462048, Note_on_c, 0, 48, 57
3, 462140, Note_off_c, 0, 48, 0
3, 462144, Note_on_c, 0, 51, 62
3, 462236, Note_off_c, 0, 51, 0
3, 462240, Note_on_c, 0, 48, 62
3, 462332, Note_off_c, 0, 48, 0
3, 462336, Note_on_c, 0, 44, 53
3, 462428, Note_off_c, 0, 44, 0
3, 462432, Note_on_c, 0, 39, 42
3, 462524, Note_off_c, 0, 39, 0
3, 462528, Note_on_c, 0, 43, 49
3, 462620, Note_off_c, 0, 43, 0
3, 462624, Note_on_c, 0, 46, 54
3, 462716, Note_off_c, 0, 46, 0
3, 462720, Note_on_c, 0, 51, 57
3, 462812, Note_off_c, 0, 51, 0
3, 462816, Note_on_c, 0, 46, 47
3, 462908, Note_off_c, 0, 46, 0
3, 462912, Note_on_c, 0, 43, 54
3, 463004, Note_off_c, 0, 43, 0
3, 463008, Note_on_c, 0, 39, 51
3, 463100, Note_off_c, 0, 39, 0
3, 463104, Note_on_c, 0, 43, 51
3, 463196, Note_off_c, 0, 43, 0
3, 463200, Note_on_c, 0, 46, 34
3, 463292, Note_off_c, 0, 46, 0
3, 463296, Note_on_c, 0, 51, 35
3, 463388, Note_off_c, 0, 51, 0
3, 463392, Note_on_c, 0, 46, 38
3, 463484, Note_off_c, 0, 46, 0
3, 463488, Note_on_c, 0, 43, 33
3, 463580, Note_off_c, 0, 43, 0
3, 463584, Note_on_c, 0, 39, 43
3, 463676, Note_off_c, 0, 39, 0
3, 463680, Note_on_c, 0, 41, 31
3, 463772, Note_off_c, 0, 41, 0
3, 463776, Note_on_c, 0, 44, 40
3, 463868, Note_off_c, 0, 44, 0
3, 463872, Note_on_c, 0, 50, 41
3, 463964, Note_off_c, 0, 50, 0
3, 463968, Note_on_c, 0, 44, 38
3, 464060, Note_off_c, 0, 44, 0
3, 464064, Note_on_c, 0, 41, 45
3, 464156, Note_off_c, 0, 41, 0
3, 464160, Note_on_c, 0, 39, 26
3, 464252, Note_off_c, 0, 39, 0
3, 464256, Note_on_c, 0, 43, 44
3, 464348, Note_off_c, 0, 43, 0
3, 464352, Note_on_c, 0, 46, 47
3, 464444, Note_off_c, 0, 46, 0
3, 464448, Note_on_c, 0, 51, 50
3, 464540, Note_off_c, 0, 51, 0
3, 464544, Note_on_c, 0, 46, 42
3, 464636, Note_off_c, 0, 46, 0
3, 464640, Note_on_c, 0, 43, 44
3, 464732, Note_off_c, 0, 43, 0
3, 464736, Note_on_c, 0, 39, 37
3, 464828, Note_off_c, 0, 39, 0
3, 464832, Note_on_c, 0, 44, 42
3, 464924, Note_off_c, 0, 44, 0
3, 464928, Note_on_c, 0, 48, 52
3, 465020, Note_off_c, 0, 48, 0
3, 465024, Note_on_c, 0, 51, 55
3, 465116, Note_off_c, 0, 51, 0
3, 465120, Note_on_c, 0, 48, 45
3, 465212, Note_off_c, 0, 48, 0
3, 465216, Note_on_c, 0, 44, 42
3, 465308, Note_off_c, 0, 44, 0
3, 465312, Note_on_c, 0, 39, 39
3, 465404, Note_off_c, 0, 39, 0
3, 465408, Note_on_c, 0, 44, 39
3, 465500, Note_off_c, 0, 44, 0
3, 465504, Note_on_c, 0, 48, 54
3, 465596, Note_off_c, 0, 48, 0
3, 465600, Note_on_c, 0, 51, 52
3, 465692, Note_off_c, 0, 51, 0
3, 465696, Note_on_c, 0, 48, 52
3, 465788, Note_off_c, 0, 48, 0
3, 465792, Note_on_c, 0, 44, 53
3, 465884, Note_off_c, 0, 44, 0
3, 465888, Note_on_c, 0, 39, 57
3, 465980, Note_off_c, 0, 39, 0
3, 465984, Note_on_c, 0, 43, 31
3, 466076, Note_off_c, 0, 43, 0
3, 466080, Note_on_c, 0, 46, 31
3, 466172, Note_off_c, 0, 46, 0
3, 466176, Note_on_c, 0, 51, 34
3, 466268, Note_off_c, 0, 51, 0
3, 466272, Note_on_c, 0, 46, 31
3, 466364, Note_off_c, 0, 46, 0
3, 466368, Note_on_c, 0, 43, 29
3, 466460, Note_off_c, 0, 43, 0
3, 466464, Note_on_c, 0, 39, 43
3, 466556, Note_off_c, 0, 39, 0
3, 466560, Note_on_c, 0, 43, 33
3, 466652, Note_off_c, 0, 43, 0
3, 466656, Note_on_c, 0, 46, 32
3, 466748, Note_off_c, 0, 46, 0
3, 466752, Note_on_c, 0, 51, 46
3, 466844, Note_off_c, 0, 51, 0
3, 466848, Note_on_c, 0, 46, 25
3, 466940, Note_off_c, 0, 46, 0
3, 466944, Note_on_c, 0, 43, 32
3, 467036, Note_off_c, 0, 43, 0
3, 467040, Note_on_c, 0, 39, 29
3, 467132, Note_off_c, 0, 39, 0
3, 467136, Note_on_c, 0, 43, 31
3, 467228, Note_off_c, 0, 43, 0
3, 467232, Note_on_c, 0, 46, 26
3, 467324, Note_off_c, 0, 46, 0
3, 467328, Note_on_c, 0, 51, 31
3, 467420, Note_off_c, 0, 51, 0
3, 467424, Note_on_c, 0, 39, 32
3, 467516, Note_off_c, 0, 39, 0
3, 467520, Note_on_c, 0, 51, 26
3, 467612, Note_off_c, 0, 51, 0
3, 467616, Note_on_c, 0, 39, 32
3, 467708, Note_off_c, 0, 39, 0
3, 467712, Key_signature, -2, "minor"
3, 467712, Note_on_c, 0, 38, 39
3, 467900, Note_off_c, 0, 38, 0
3, 467904, Note_on_c, 0, 50, 42
3, 468092, Note_off_c, 0, 50, 0
3, 468096, Note_on_c, 0, 50, 39
3, 468284, Note_off_c, 0, 50, 0
3, 468288, Note_on_c, 0, 50, 39
3, 468476, Note_off_c, 0, 50, 0
3, 469248, Note_on_c, 0, 50, 44
3, 469436, Note_off_c, 0, 50, 0
3, 469440, Note_on_c, 0, 43, 48
3, 469628, Note_off_c, 0, 43, 0
3, 469632, Note_on_c, 0, 50, 55
3, 469820, Note_off_c, 0, 50, 0
3, 469824, Note_on_c, 0, 50, 55
3, 470012, Note_off_c, 0, 50, 0
3, 470016, Note_on_c, 0, 43, 52
3, 470204, Note_off_c, 0, 43, 0
3, 470208, Note_on_c, 0, 50, 42
3, 470396, Note_off_c, 0, 50, 0
3, 470400, Note_on_c, 0, 50, 46
3, 470588, Note_off_c, 0, 50, 0
3, 470592, Note_on_c, 0, 43, 58
3, 470780, Note_off_c, 0, 43, 0
3, 470784, Note_on_c, 0, 50, 64
3, 470972, Note_off_c, 0, 50, 0
3, 470976, Note_on_c, 0, 50, 69
3, 471164, Note_off_c, 0, 50, 0
3, 471168, Note_on_c, 0, 43, 66
3, 471356, Note_off_c, 0, 43, 0
3, 471360, Note_on_c, 0, 50, 69
3, 471548, Note_off_c, 0, 50, 0
3, 471552, Note_on_c, 0, 50, 64
3, 471740, Note_off_c, 0, 50, 0
3, 471744, Note_on_c, 0, 43, 52
3, 471932, Note_off_c, 0, 43, 0
3, 471936, Note_on_c, 0, 50, 51
3, 472124, Note_off_c, 0, 50, 0
3, 472128, Note_on_c, 0, 50, 47
3, 472316, Note_off_c, 0, 50, 0
3, 472320, Note_on_c, 0, 38, 29
3, 472508, Note_off_c, 0, 38, 0
3, 472512, Note_on_c, 0, 50, 42
3, 472700, Note_off_c, 0, 50, 0
3, 472704, Note_on_c, 0, 50, 42
3, 472892, Note_off_c, 0, 50, 0
3, 472896, Note_on_c, 0, 43, 47
3, 473084, Note_off_c, 0, 43, 0
3, 473088, Note_on_c, 0, 50, 31
3, 473276, Note_off_c, 0, 50, 0
3, 473280, Note_on_c, 0, 50, 43
3, 473468, Note_off_c, 0, 50, 0
3, 473472, Note_on_c, 0, 43, 56
3, 473660, Note_off_c, 0, 43, 0
3, 473664, Note_on_c, 0, 50, 52
3, 473852, Note_off_c, 0, 50, 0
3, 473856, Note_on_c, 0, 50, 65
3, 474044, Note_off_c, 0, 50, 0
3, 474048, Note_on_c, 0, 43, 66
3, 474236, Note_off_c, 0, 43, 0
3, 474240, Note_on_c, 0, 50, 74
3, 474428, Note_off_c, 0, 50, 0
3, 474432, Note_on_c, 0, 50, 70
3, 474620, Note_off_c, 0, 50, 0
3, 474624, Note_on_c, 0, 41, 66
3, 474812, Note_off_c, 0, 41, 0
3, 474816, Note_on_c, 0, 53, 74
3, 475004, Note_off_c, 0, 53, 0
3, 475008, Note_on_c, 0, 53, 74
3, 475196, Note_off_c, 0, 53, 0
3, 475200, Note_on_c, 0, 41, 70
3, 475388, Note_off_c, 0, 41, 0
3, 475392, Note_on_c, 0, 53, 66
3, 475580, Note_off_c, 0, 53, 0
3, 475584, Note_on_c, 0, 53, 51
3, 475772, Note_off_c, 0, 53, 0
3, 475776, Note_on_c, 0, 46, 42
3, 475964, Note_off_c, 0, 46, 0
3, 475968, Note_on_c, 0, 53, 48
3, 476156, Note_off_c, 0, 53, 0
3, 476160, Note_on_c, 0, 53, 45
3, 476348, Note_off_c, 0, 53, 0
3, 476352, Note_on_c, 0, 46, 40
3, 476540, Note_off_c, 0, 46, 0
3, 476544, Note_on_c, 0, 53, 37
3, 476732, Note_off_c, 0, 53, 0
3, 476736, Note_on_c, 0, 53, 36
3, 476924, Note_off_c, 0, 53, 0
3, 476928, Note_on_c, 0, 41, 59
3, 477116, Note_off_c, 0, 41, 0
3, 477120, Note_on_c, 0, 53, 55
3, 477308, Note_off_c, 0, 53, 0
3, 477312, Note_on_c, 0, 53, 65
3, 477500, Note_off_c, 0, 53, 0
3, 477504, Note_on_c, 0, 36, 74
3, 477692, Note_off_c, 0, 36, 0
3, 477696, Note_on_c, 0, 48, 80
3, 477884, Note_off_c, 0, 48, 0
3, 477888, Note_on_c, 0, 48, 75
3, 478076, Note_off_c, 0, 48, 0
3, 478080, Note_on_c, 0, 36, 62
3, 478268, Note_off_c, 0, 36, 0
3, 478272, Note_on_c, 0, 48, 64
3, 478460, Note_off_c, 0, 48, 0
3, 478464, Note_on_c, 0, 48, 70
3, 478652, Note_off_c, 0, 48, 0
3, 478656, Note_on_c, 0, 38, 65
3, 478844, Note_off_c, 0, 38, 0
3, 478848, Note_on_c, 0, 50, 60
3, 479036, Note_off_c, 0, 50, 0
3, 479040, Note_on_c, 0, 38, 48
3, 479228, Note_off_c, 0, 38, 0
3, 479232, Note_on_c, 0, 43, 52
3, 479420, Note_off_c, 0, 43, 0
3, 479424, Note_on_c, 0, 43, 48
3, 479424, Note_on_c, 0, 55, 39
3, 479612, Note_off_c, 0, 43, 0
3, 479612, Note_off_c, 0, 55, 0
3, 479616, Note_on_c, 0, 41, 46
3, 479616, Note_on_c, 0, 53, 26
3, 479804, Note_off_c, 0, 41, 0
3, 479804, Note_off_c, 0, 53, 0
3, 479808, Note_on_c, 0, 46, 35
3, 479996, Note_off_c, 0, 46, 0
3, 480000, Note_on_c, 0, 53, 40
3, 480188, Note_off_c, 0, 53, 0
3, 480192, Note_on_c, 0, 53, 54
3, 480380, Note_off_c, 0, 53, 0
3, 480384, Note_on_c, 0, 41, 57
3, 480572, Note_off_c, 0, 41, 0
3, 480576, Note_on_c, 0, 53, 48
3, 480764, Note_off_c, 0, 53, 0
3, 480768, Note_on_c, 0, 53, 64
3, 480956, Note_off_c, 0, 53, 0
3, 480960, Note_on_c, 0, 36, 65
3, 481148, Note_off_c, 0, 36, 0
3, 481152, Note_on_c, 0, 48, 74
3, 481340, Note_off_c, 0, 48, 0
3, 481344, Note_on_c, 0, 48, 79
3, 481532, Note_off_c, 0, 48, 0
3, 481536, Note_on_c, 0, 36, 79
3, 481724, Note_off_c, 0, 36, 0
3, 481728, Note_on_c, 0, 48, 79
3, 481916, Note_off_c, 0, 48, 0
3, 481920, Note_on_c, 0, 48, 72
3, 482108, Note_off_c, 0, 48, 0
3, 482112, Note_on_c, 0, 38, 46
3, 482300, Note_off_c, 0, 38, 0
3, 482304, Note_on_c, 0, 50, 54
3, 482492, Note_off_c, 0, 50, 0
3, 482496, Note_on_c, 0, 50, 47
3, 482684, Note_off_c, 0, 50, 0
3, 482688, Note_on_c, 0, 43, 46
3, 482780, Note_off_c, 0, 43, 0
3, 482784, Note_on_c, 0, 46, 39
3, 482876, Note_off_c, 0, 46, 0
3, 482880, Note_on_c, 0, 50, 52
3, 482972, Note_off_c, 0, 50, 0
3, 482976, Note_on_c, 0, 43, 51
3, 483068, Note_off_c, 0, 43, 0
3, 483072, Note_on_c, 0, 46, 44
3, 483164, Note_off_c, 0, 46, 0
3, 483168, Note_on_c, 0, 50, 53
3, 483260, Note_off_c, 0, 50, 0
3, 483264, Note_on_c, 0, 55, 63
3, 483356, Note_off_c, 0, 55, 0
3, 483648, Note_on_c, 0, 55, 55
3, 483740, Note_off_c, 0, 55, 0
3, 483744, Note_on_c, 0, 50, 43
3, 483836, Note_off_c, 0, 50, 0
3, 483840, Note_on_c, 0, 55, 62
3, 483932, Note_off_c, 0, 55, 0
3, 484224, Note_on_c, 0, 55, 67
3, 484316, Note_off_c, 0, 55, 0
3, 484320, Note_on_c, 0, 50, 70
3, 484412, Note_off_c, 0, 50, 0
3, 484416, Note_on_c, 0, 55, 83
3, 484508, Note_off_c, 0, 55, 0
3, 484800, Note_on_c, 0, 55, 81
3, 484892, Note_off_c, 0, 55, 0
3, 484896, Note_on_c, 0, 50, 74
3, 484988, Note_off_c, 0, 50, 0
3, 484992, Note_on_c, 0, 55, 78
3, 485084, Note_off_c, 0, 55, 0
3, 485376, Note_on_c, 0, 55, 66
3, 485468, Note_off_c, 0, 55, 0
3, 485472, Note_on_c, 0, 50, 80
3, 485564, Note_off_c, 0, 50, 0
3, 485568, Note_on_c, 0, 55, 79
3, 485660, Note_off_c, 0, 55, 0
3, 485952, Note_on_c, 0, 55, 87
3, 486044, Note_off_c, 0, 55, 0
3, 486048, Note_on_c, 0, 50, 81
3, 486140, Note_off_c, 0, 50, 0
3, 486144, Note_on_c, 0, 54, 81
3, 486236, Note_off_c, 0, 54, 0
3, 486528, Note_on_c, 0, 54, 84
3, 486620, Note_off_c, 0, 54, 0
3, 486624, Note_on_c, 0, 50, 83
3, 486716, Note_off_c, 0, 50, 0
3, 486720, Note_on_c, 0, 54, 76
3, 486812, Note_off_c, 0, 54, 0
3, 487104, Note_on_c, 0, 54, 77
3, 487196, Note_off_c, 0, 54, 0
3, 487200, Note_on_c, 0, 50, 75
3, 487292, Note_off_c, 0, 50, 0
3, 487296, Note_on_c, 0, 54, 85
3, 487388, Note_off_c, 0, 54, 0
3, 487680, Note_on_c, 0, 54, 77
3, 487772, Note_off_c, 0, 54, 0
3, 487776, Note_on_c, 0, 50, 79
3, 487868, Note_off_c, 0, 50, 0
3, 487872, Note_on_c, 0, 51, 74
3, 487964, Note_off_c, 0, 51, 0
3, 487968, Note_on_c, 0, 55, 56
3, 488060, Note_off_c, 0, 55, 0
3, 488160, Note_on_c, 0, 55, 62
3, 488252, Note_off_c, 0, 55, 0
3, 488256, Note_on_c, 0, 51, 61
3, 488348, Note_off_c, 0, 51, 0
3, 488352, Note_on_c, 0, 50, 54
3, 488444, Note_off_c, 0, 50, 0
3, 490752, Note_on_c, 0, 55, 46
3, 490752, Note_on_c, 0, 43, 48
3, 491132, Note_off_c, 0, 55, 0
3, 491132, Note_off_c, 0, 43, 0
3, 495360, Key_signature, 1, "major"
3, 496128, Note_on_c, 0, 55, 34
3, 496128, Note_on_c, 0, 52, 46
3, 496508, Note_off_c, 0, 55, 0
3, 496508, Note_off_c, 0, 52, 0
3, 496512, Note_on_c, 0, 54, 34
3, 496512, Note_on_c, 0, 50, 43
3, 496892, Note_off_c, 0, 54, 0
3, 496892, Note_off_c, 0, 50, 0
3, 496896, Note_on_c, 0, 48, 59
3, 496896, Note_on_c, 0, 52, 30
3, 497276, Note_off_c, 0, 48, 0
3, 497276, Note_off_c, 0, 52, 0
3, 497280, Note_on_c, 0, 50, 42
3, 497280, Note_on_c, 0, 47, 50
3, 497660, Note_off_c, 0, 50, 0
3, 497660, Note_off_c, 0, 47, 0
3, 497664, Note_on_c, 0, 50, 49
3, 497664, Note_on_c, 0, 54, 35
3, 498044, Note_off_c, 0, 50, 0
3, 498044, Note_off_c, 0, 54, 0
3, 498048, Note_on_c, 0, 55, 42
3, 498048, Note_on_c, 0, 43, 41
3, 498428, Note_off_c, 0, 55, 0
3, 498428, Note_off_c, 0, 43, 0
3, 502272, Note_on_c, 0, 55, 34
3, 502272, Note_on_c, 0, 52, 46
3, 502652, Note_off_c, 0, 55, 0
3, 502652, Note_off_c, 0, 52, 0
3, 502656, Note_on_c, 0, 54, 34
3, 502656, Note_on_c, 0, 50, 43
3, 503036, Note_off_c, 0, 54, 0
3, 503036, Note_off_c, 0, 50, 0
3, 503040, Note_on_c, 0, 48, 59
3, 503040, Note_on_c, 0, 52, 30
3, 503420, Note_off_c, 0, 48, 0
3, 503420, Note_off_c, 0, 52, 0
3, 503424, Note_on_c, 0, 50, 42
3, 503424, Note_on_c, 0, 47, 50
3, 503804, Note_off_c, 0, 50, 0
3, 503804, Note_off_c, 0, 47, 0
3, 503808, Note_on_c, 0, 50, 49
3, 503808, Note_on_c, 0, 54, 35
3, 504188, Note_off_c, 0, 50, 0
3, 504188, Note_off_c, 0, 54, 0
3, 504192, Note_on_c, 0, 55, 42
3, 504192, Note_on_c, 0, 43, 41
3, 504572, Note_off_c, 0, 55, 0
3, 504572, Note_off_c, 0, 43, 0
3, 507648, Note_on_c, 0, 50, 74
3, 507648, Note_on_c, 0, 74, 85
3, 507836, Note_off_c, 0, 50, 0
3, 507836, Note_off_c, 0, 74, 0
3, 507840, Note_on_c, 0, 76, 84
3, 507840, Note_on_c, 0, 52, 66
3, 507932, Note_off_c, 0, 76, 0
3, 507932, Note_off_c, 0, 52, 0
3, 508224, Note_on_c, 0, 73, 84
3, 508224, Note_on_c, 0, 49, 72
3, 508284, Note_off_c, 0, 73, 0
3, 508284, Note_off_c, 0, 49, 0
3, 508416, Note_on_c, 0, 74, 87
3, 508416, Note_on_c, 0, 50, 77
3, 508796, Note_off_c, 0, 74, 0
3, 508796, Note_off_c, 0, 50, 0
3, 509136, Note_on_c, 0, 66, 73
3, 509136, Note_on_c, 0, 42, 58
3, 509180, Note_off_c, 0, 66, 0
3, 509180, Note_off_c, 0, 42, 0
3, 509184, Note_on_c, 0, 64, 84
3, 509184, Note_on_c, 0, 40, 64
3, 509244, Note_off_c, 0, 64, 0
3, 509244, Note_off_c, 0, 40, 0
3, 509568, Note_on_c, 0, 40, 73
3, 509568, Note_on_c, 0, 64, 92
3, 509628, Note_off_c, 0, 40, 0
3, 509628, Note_off_c, 0, 64, 0
3, 509760, Note_on_c, 0, 66, 92
3, 509760, Note_on_c, 0, 42, 65
3, 509820, Note_off_c, 0, 66, 0
3, 509820, Note_off_c, 0, 42, 0
3, 509952, Note_on_c, 0, 67, 97
3, 509952, Note_on_c, 0, 43, 83
3, 510332, Note_off_c, 0, 67, 0
3, 510332, Note_off_c, 0, 43, 0
3, 510336, Note_on_c, 0, 55, 86
3, 510336, Note_on_c, 0, 31, 85
3, 510716, Note_off_c, 0, 55, 0
3, 510716, Note_off_c, 0, 31, 0
3, 510720, Note_on_c, 0, 50, 55
3, 511100, Note_off_c, 0, 50, 0
3, 511104, Note_on_c, 0, 52, 38
3, 511104, Note_on_c, 0, 45, 62
3, 511484, Note_off_c, 0, 52, 0
3, 511484, Note_off_c, 0, 45, 0
3, 511488, Note_on_c, 0, 50, 60
3, 511868, Note_off_c, 0, 50, 0
3, 511872, Note_on_c, 0, 43, 51
3, 511872, Note_on_c, 0, 50, 49
3, 512252, Note_off_c, 0, 43, 0
3, 512252, Note_off_c, 0, 50, 0
3, 512256, Note_on_c, 0, 36, 53
3, 512256, Note_on_c, 0, 48, 42
3, 512636, Note_off_c, 0, 36, 0
3, 512636, Note_off_c, 0, 48, 0
3, 512640, Note_on_c, 0, 50, 40
3, 512640, Note_on_c, 0, 38, 52
3, 513020, Note_off_c, 0, 50, 0
3, 513020, Note_off_c, 0, 38, 0
3, 513024, Note_on_c, 0, 43, 45
3, 513212, Note_off_c, 0, 43, 0
3, 513216, Note_on_c, 0, 55, 56
3, 513404, Note_off_c, 0, 55, 0
3, 513408, Note_on_c, 0, 54, 46
3, 513596, Note_off_c, 0, 54, 0
3, 513600, Note_on_c, 0, 52, 44
3, 513788, Note_off_c, 0, 52, 0
3, 513792, Note_on_c, 0, 50, 74
3, 513792, Note_on_c, 0, 74, 85
3, 513980, Note_off_c, 0, 50, 0
3, 513980, Note_off_c, 0, 74, 0
3, 513984, Note_on_c, 0, 76, 84
3, 513984, Note_on_c, 0, 52, 66
3, 514076, Note_off_c, 0, 76, 0
3, 514076, Note_off_c, 0, 52, 0
3, 514368, Note_on_c, 0, 73, 84
3, 514368, Note_on_c, 0, 49, 72
3, 514428, Note_off_c, 0, 73, 0
3, 514428, Note_off_c, 0, 49, 0
3, 514560, Note_on_c, 0, 74, 87
3, 514560, Note_on_c, 0, 50, 77
3, 514940, Note_off_c, 0, 74, 0
3, 514940, Note_off_c, 0, 50, 0
3, 515280, Note_on_c, 0, 66, 73
3, 515280, Note_on_c, 0, 42, 58
3, 515324, Note_off_c, 0, 66, 0
3, 515324, Note_off_c, 0, 42, 0
3, 515328, Note_on_c, 0, 64, 84
3, 515328, Note_on_c, 0, 40, 64
3, 515388, Note_off_c, 0, 64, 0
3, 515388, Note_off_c, 0, 40, 0
3, 515712, Note_on_c, 0, 40, 73
3, 515712, Note_on_c, 0, 64, 92
3, 515772, Note_off_c, 0, 40, 0
3, 515772, Note_off_c, 0, 64, 0
3, 515904, Note_on_c, 0, 66, 92
3, 515904, Note_on_c, 0, 42, 65
3, 515964, Note_off_c, 0, 66, 0
3, 515964, Note_off_c, 0, 42, 0
3, 516096, Note_on_c, 0, 67, 97
3, 516096, Note_on_c, 0, 43, 83
3, 516476, Note_off_c, 0, 67, 0
3, 516476, Note_off_c, 0, 43, 0
3, 516480, Note_on_c, 0, 55, 86
3, 516480, Note_on_c, 0, 31, 85
3, 516860, Note_off_c, 0, 55, 0
3, 516860, Note_off_c, 0, 31, 0
3, 516864, Note_on_c, 0, 50, 55
3, 517244, Note_off_c, 0, 50, 0
3, 517248, Note_on_c, 0, 52, 38
3, 517248, Note_on_c, 0, 45, 62
3, 517628, Note_off_c, 0, 52, 0
3, 517628, Note_off_c, 0, 45, 0
3, 517632, Note_on_c, 0, 50, 60
3, 518012, Note_off_c, 0, 50, 0
3, 518016, Note_on_c, 0, 43, 51
3, 518016, Note_on_c, 0, 50, 49
3, 518396, Note_off_c, 0, 43, 0
3, 518396, Note_off_c, 0, 50, 0
3, 518400, Note_on_c, 0, 36, 53
3, 518400, Note_on_c, 0, 48, 42
3, 518780, Note_off_c, 0, 36, 0
3, 518780, Note_off_c, 0, 48, 0
3, 518784, Note_on_c, 0, 50, 40
3, 518784, Note_on_c, 0, 38, 52
3, 519164, Note_off_c, 0, 50, 0
3, 519164, Note_off_c, 0, 38, 0
3, 519552, Note_on_c, 0, 55, 103
3, 519740, Note_off_c, 0, 55, 0
3, 519840, Note_on_c, 0, 55, 97
3, 519932, Note_off_c, 0, 55, 0
3, 519936, Note_on_c, 0, 55, 67
3, 519936, Note_on_c, 0, 52, 71
3, 520028, Note_off_c, 0, 55, 0
3, 520028, Note_off_c, 0, 52, 0
3, 520128, Note_on_c, 0, 52, 70
3, 520128, Note_on_c, 0, 55, 78
3, 520220, Note_off_c, 0, 52, 0
3, 520220, Note_off_c, 0, 55, 0
3, 520320, Note_on_c, 0, 55, 80
3, 520320, Note_on_c, 0, 52, 70
3, 520412, Note_off_c, 0, 55, 0
3, 520412, Note_off_c, 0, 52, 0
3, 520512, Note_on_c, 0, 55, 76
3, 520512, Note_on_c, 0, 52, 68
3, 520604, Note_off_c, 0, 55, 0
3, 520604, Note_off_c, 0, 52, 0
3, 520704, Note_on_c, 0, 54, 65
3, 520704, Note_on_c, 0, 57, 74
3, 520704, Note_on_c, 0, 52, 75
3, 520796, Note_off_c, 0, 54, 0
3, 520796, Note_off_c, 0, 57, 0
3, 520796, Note_off_c, 0, 52, 0
3, 520896, Note_on_c, 0, 54, 69
3, 520896, Note_on_c, 0, 52, 72
3, 520896, Note_on_c, 0, 57, 71
3, 520988, Note_off_c, 0, 54, 0
3, 520988, Note_off_c, 0, 52, 0
3, 520988, Note_off_c, 0, 57, 0
3, 521088, Note_on_c, 0, 54, 67
3, 521088, Note_on_c, 0, 57, 74
3, 521088, Note_on_c, 0, 52, 72
3, 521180, Note_off_c, 0, 54, 0
3, 521180, Note_off_c, 0, 57, 0
3, 521180, Note_off_c, 0, 52, 0
3, 521472, Note_on_c, 0, 55, 81
3, 521472, Note_on_c, 0, 52, 70
3, 521564, Note_off_c, 0, 55, 0
3, 521564, Note_off_c, 0, 52, 0
3, 521664, Note_on_c, 0, 55, 82
3, 521664, Note_on_c, 0, 52, 73
3, 521756, Note_off_c, 0, 55, 0
3, 521756, Note_off_c, 0, 52, 0
3, 521856, Note_on_c, 0, 55, 86
3, 521856, Note_on_c, 0, 52, 76
3, 521948, Note_off_c, 0, 55, 0
3, 521948, Note_off_c, 0, 52, 0
3, 522048, Note_on_c, 0, 55, 80
3, 522048, Note_on_c, 0, 52, 73
3, 522140, Note_off_c, 0, 55, 0
3, 522140, Note_off_c, 0, 52, 0
3, 522720, Note_on_c, 0, 55, 71
3, 522720, Note_on_c, 0, 67, 81
3, 522812, Note_off_c, 0, 55, 0
3, 522812, Note_off_c, 0, 67, 0
3, 522816, Note_on_c, 0, 66, 63
3, 522816, Note_on_c, 0, 54, 58
3, 522908, Note_off_c, 0, 66, 0
3, 522908, Note_off_c, 0, 54, 0
3, 523200, Note_on_c, 0, 54, 73
3, 523200, Note_on_c, 0, 66, 82
3, 523292, Note_off_c, 0, 54, 0
3, 523292, Note_off_c, 0, 66, 0
3, 523392, Note_on_c, 0, 59, 79
3, 523392, Note_on_c, 0, 47, 77
3, 523452, Note_off_c, 0, 59, 0
3, 523452, Note_off_c, 0, 47, 0
3, 523968, Note_on_c, 0, 47, 73
3, 523968, Note_on_c, 0, 67, 80
3, 523968, Note_on_c, 0, 59, 80
3, 523968, Note_on_c, 0, 64, 77
3, 524028, Note_off_c, 0, 47, 0
3, 524028, Note_off_c, 0, 67, 0
3, 524028, Note_off_c, 0, 59, 0
3, 524028, Note_off_c, 0, 64, 0
3, 528000, Note_on_c, 0, 54, 86
3, 528188, Note_off_c, 0, 54, 0
3, 528192, Note_on_c, 0, 55, 88
3, 528284, Note_off_c, 0, 55, 0
3, 528288, Note_on_c, 0, 54, 88
3, 528380, Note_off_c, 0, 54, 0
3, 532992, Note_on_c, 0, 55, 52
3, 533116, Note_off_c, 0, 55, 0
3, 533376, Note_on_c, 0, 54, 48
3, 533500, Note_off_c, 0, 54, 0
3, 533760, Note_on_c, 0, 52, 44
3, 533884, Note_off_c, 0, 52, 0
3, 533888, Note_on_c, 0, 55, 46
3, 534012, Note_off_c, 0, 55, 0
3, 534144, Note_on_c, 0, 50, 58
3, 534268, Note_off_c, 0, 50, 0
3, 534272, Note_on_c, 0, 54, 57
3, 534396, Note_off_c, 0, 54, 0
3, 534528, Note_on_c, 0, 48, 59
3, 534652, Note_off_c, 0, 48, 0
3, 534656, Note_on_c, 0, 52, 47
3, 534780, Note_off_c, 0, 52, 0
3, 534784, Note_on_c, 0, 55, 65
3, 534908, Note_off_c, 0, 55, 0
3, 534912, Note_on_c, 0, 47, 49
3, 535036, Note_off_c, 0, 47, 0
3, 535040, Note_on_c, 0, 50, 58
3, 535164, Note_off_c, 0, 50, 0
3, 535168, Note_on_c, 0, 55, 62
3, 535292, Note_off_c, 0, 55, 0
3, 535296, Note_on_c, 0, 45, 68
3, 535420, Note_off_c, 0, 45, 0
3, 535424, Note_on_c, 0, 50, 44
3, 535548, Note_off_c, 0, 50, 0
3, 535552, Note_on_c, 0, 54, 40
3, 535676, Note_off_c, 0, 54, 0
3, 535680, Note_on_c, 0, 43, 50
3, 535804, Note_off_c, 0, 43, 0
3, 535808, Note_on_c, 0, 50, 55
3, 535932, Note_off_c, 0, 50, 0
3, 535936, Note_on_c, 0, 55, 44
3, 536060, Note_off_c, 0, 55, 0
3, 536064, Note_on_c, 0, 55, 46
3, 536188, Note_off_c, 0, 55, 0
3, 536448, Note_on_c, 0, 54, 56
3, 536572, Note_off_c, 0, 54, 0
3, 536832, Note_on_c, 0, 52, 52
3, 536956, Note_off_c, 0, 52, 0
3, 537216, Note_on_c, 0, 50, 63
3, 537340, Note_off_c, 0, 50, 0
3, 537600, Note_on_c, 0, 55, 68
3, 537724, Note_off_c, 0, 55, 0
3, 539008, Note_on_c, 0, 54, 65
3, 539132, Note_off_c, 0, 54, 0
3, 539136, Note_on_c, 0, 50, 74
3, 539136, Note_on_c, 0, 74, 85
3, 539324, Note_off_c, 0, 50, 0
3, 539324, Note_off_c, 0, 74, 0
3, 539328, Note_on_c, 0, 76, 84
3, 539328, Note_on_c, 0, 52, 66
3, 539420, Note_off_c, 0, 76, 0
3, 539420, Note_off_c, 0, 52, 0
3, 539712, Note_on_c, 0, 73, 84
3, 539712, Note_on_c, 0, 49, 72
3, 539772, Note_off_c, 0, 73, 0
3, 539772, Note_off_c, 0, 49, 0
3, 539904, Note_on_c, 0, 74, 87
3, 539904, Note_on_c, 0, 50, 77
3, 540284, Note_off_c, 0, 74, 0
3, 540284, Note_off_c, 0, 50, 0
3, 540624, Note_on_c, 0, 66, 73
3, 540624, Note_on_c, 0, 42, 58
3, 540668, Note_off_c, 0, 66, 0
3, 540668, Note_off_c, 0, 42, 0
3, 540672, Note_on_c, 0, 64, 84
3, 540672, Note_on_c, 0, 40, 64
3, 540732, Note_off_c, 0, 64, 0
3, 540732, Note_off_c, 0, 40, 0
3, 541056, Note_on_c, 0, 40, 73
3, 541056, Note_on_c, 0, 64, 92
3, 541116, Note_off_c, 0, 40, 0
3, 541116, Note_off_c, 0, 64, 0
3, 541248, Note_on_c, 0, 66, 92
3, 541248, Note_on_c, 0, 42, 65
3, 541308, Note_off_c, 0, 66, 0
3, 541308, Note_off_c, 0, 42, 0
3, 541440, Note_on_c, 0, 67, 97
3, 541440, Note_on_c, 0, 43, 83
3, 541820, Note_off_c, 0, 67, 0
3, 541820, Note_off_c, 0, 43, 0
3, 541824, Note_on_c, 0, 55, 86
3, 541824, Note_on_c, 0, 31, 85
3, 542204, Note_off_c, 0, 55, 0
3, 542204, Note_off_c, 0, 31, 0
3, 542208, Note_on_c, 0, 50, 44
3, 542332, Note_off_c, 0, 50, 0
3, 542336, Note_on_c, 0, 54, 47
3, 542460, Note_off_c, 0, 54, 0
3, 542592, Note_on_c, 0, 52, 48
3, 542716, Note_off_c, 0, 52, 0
3, 542720, Note_on_c, 0, 55, 58
3, 542844, Note_off_c, 0, 55, 0
3, 542976, Note_on_c, 0, 50, 53
3, 543100, Note_off_c, 0, 50, 0
3, 543104, Note_on_c, 0, 54, 50
3, 543228, Note_off_c, 0, 54, 0
3, 543360, Note_on_c, 0, 43, 41
3, 543484, Note_off_c, 0, 43, 0
3, 543488, Note_on_c, 0, 53, 49
3, 543612, Note_off_c, 0, 53, 0
3, 543616, Note_on_c, 0, 55, 43
3, 543740, Note_off_c, 0, 55, 0
3, 543744, Note_on_c, 0, 48, 40
3, 543868, Note_off_c, 0, 48, 0
3, 543872, Note_on_c, 0, 52, 34
3, 543996, Note_off_c, 0, 52, 0
3, 544000, Note_on_c, 0, 55, 45
3, 544124, Note_off_c, 0, 55, 0
3, 544128, Note_on_c, 0, 50, 49
3, 544252, Note_off_c, 0, 50, 0
3, 544256, Note_on_c, 0, 54, 38
3, 544380, Note_off_c, 0, 54, 0
3, 544512, Note_on_c, 0, 43, 47
3, 544636, Note_off_c, 0, 43, 0
3, 544640, Note_on_c, 0, 50, 43
3, 544764, Note_off_c, 0, 50, 0
3, 544768, Note_on_c, 0, 55, 45
3, 544892, Note_off_c, 0, 55, 0
3, 544992, Note_on_c, 0, 43, 82
3, 544992, Note_on_c, 0, 55, 90
3, 545084, Note_off_c, 0, 43, 0
3, 545084, Note_off_c, 0, 55, 0
3, 545088, Note_on_c, 0, 57, 88
3, 545088, Note_on_c, 0, 45, 90
3, 545180, Note_off_c, 0, 57, 0
3, 545180, Note_off_c, 0, 45, 0
3, 545184, Note_on_c, 0, 47, 84
3, 545184, Note_on_c, 0, 59, 87
3, 545276, Note_off_c, 0, 47, 0
3, 545276, Note_off_c, 0, 59, 0
3, 545280, Key_signature, 0, "major"
3, 545280, Note_on_c, 0, 60, 82
3, 545280, Note_on_c, 0, 48, 74
3, 545372, Note_off_c, 0, 60, 0
3, 545372, Note_off_c, 0, 48, 0
3, 545376, Note_on_c, 0, 43, 62
3, 545376, Note_on_c, 0, 55, 84
3, 545468, Note_off_c, 0, 43, 0
3, 545468, Note_off_c, 0, 55, 0
3, 545472, Note_on_c, 0, 57, 75
3, 545472, Note_on_c, 0, 45, 59
3, 545564, Note_off_c, 0, 57, 0
3, 545564, Note_off_c, 0, 45, 0
3, 545568, Note_on_c, 0, 59, 67
3, 545568, Note_on_c, 0, 47, 54
3, 545660, Note_off_c, 0, 59, 0
3, 545660, Note_off_c, 0, 47, 0
3, 545664, Note_on_c, 0, 60, 79
3, 545664, Note_on_c, 0, 48, 70
3, 545756, Note_off_c, 0, 60, 0
3, 545756, Note_off_c, 0, 48, 0
3, 545760, Note_on_c, 0, 62, 84
3, 545760, Note_on_c, 0, 50, 77
3, 545852, Note_off_c, 0, 62, 0
3, 545852, Note_off_c, 0, 50, 0
3, 545856, Note_on_c, 0, 64, 85
3, 545856, Note_on_c, 0, 52, 69
3, 545948, Note_off_c, 0, 64, 0
3, 545948, Note_off_c, 0, 52, 0
3, 546048, Note_on_c, 0, 52, 65
3, 546048, Note_on_c, 0, 55, 60
3, 546048, Note_on_c, 0, 48, 63
3, 546236, Note_off_c, 0, 52, 0
3, 546236, Note_off_c, 0, 55, 0
3, 546236, Note_off_c, 0, 48, 0
3, 546240, Note_on_c, 0, 55, 71
3, 546240, Note_on_c, 0, 52, 68
3, 546240, Note_on_c, 0, 48, 68
3, 546428, Note_off_c, 0, 55, 0
3, 546428, Note_off_c, 0, 52, 0
3, 546428, Note_off_c, 0, 48, 0
3, 546432, Note_on_c, 0, 52, 63
3, 546432, Note_on_c, 0, 48, 69
3, 546432, Note_on_c, 0, 55, 67
3, 546620, Note_off_c, 0, 52, 0
3, 546620, Note_off_c, 0, 48, 0
3, 546620, Note_off_c, 0, 55, 0
3, 546624, Note_on_c, 0, 52, 58
3, 546624, Note_on_c, 0, 55, 68
3, 546624, Note_on_c, 0, 48, 70
3, 546812, Note_off_c, 0, 52, 0
3, 546812, Note_off_c, 0, 55, 0
3, 546812, Note_off_c, 0, 48, 0
3, 546816, Note_on_c, 0, 52, 68
3, 546816, Note_on_c, 0, 60, 64
3, 546816, Note_on_c, 0, 55, 68
3, 546816, Note_on_c, 0, 48, 61
3, 547004, Note_off_c, 0, 52, 0
3, 547004, Note_off_c, 0, 60, 0
3, 547004, Note_off_c, 0, 55, 0
3, 547004, Note_off_c, 0, 48, 0
3, 547008, Note_on_c, 0, 52, 73
3, 547008, Note_on_c, 0, 55, 74
3, 547008, Note_on_c, 0, 60, 59
3, 547008, Note_on_c, 0, 48, 64
3, 547196, Note_off_c, 0, 52, 0
3, 547196, Note_off_c, 0, 55, 0
3, 547196, Note_off_c, 0, 60, 0
3, 547196, Note_off_c, 0, 48, 0
3, 547200, Note_on_c, 0, 52, 68
3, 547200, Note_on_c, 0, 55, 68
3, 547200, Note_on_c, 0, 60, 57
3, 547200, Note_on_c, 0, 48, 58
3, 547388, Note_off_c, 0, 52, 0
3, 547388, Note_off_c, 0, 55, 0
3, 547388, Note_off_c, 0, 60, 0
3, 547388, Note_off_c, 0, 48, 0
3, 548256, Note_on_c, 0, 52, 62
3, 548256, Note_on_c, 0, 64, 83
3, 548348, Note_off_c, 0, 52, 0
3, 548348, Note_off_c, 0, 64, 0
3, 548352, Note_on_c, 0, 65, 75
3, 548352, Note_on_c, 0, 53, 58
3, 548444, Note_off_c, 0, 65, 0
3, 548444, Note_off_c, 0, 53, 0
3, 548736, Note_on_c, 0, 65, 75
3, 548736, Note_on_c, 0, 53, 63
3, 548828, Note_off_c, 0, 65, 0
3, 548828, Note_off_c, 0, 53, 0
3, 548832, Note_on_c, 0, 67, 74
3, 548832, Note_on_c, 0, 55, 68
3, 548924, Note_off_c, 0, 67, 0
3, 548924, Note_off_c, 0, 55, 0
3, 551136, Note_on_c, 0, 55, 82
3, 551136, Note_on_c, 0, 43, 62
3, 551228, Note_off_c, 0, 55, 0
3, 551228, Note_off_c, 0, 43, 0
3, 551232, Note_on_c, 0, 45, 70
3, 551232, Note_on_c, 0, 57, 79
3, 551324, Note_off_c, 0, 45, 0
3, 551324, Note_off_c, 0, 57, 0
3, 551520, Note_on_c, 0, 55, 85
3, 551520, Note_on_c, 0, 43, 74
3, 551612, Note_off_c, 0, 55, 0
3, 551612, Note_off_c, 0, 43, 0
3, 551808, Note_on_c, 0, 60, 79
3, 551808, Note_on_c, 0, 48, 75
3, 551900, Note_off_c, 0, 60, 0
3, 551900, Note_off_c, 0, 48, 0
3, 552192, Note_on_c, 0, 55, 85
3, 552192, Note_on_c, 0, 48, 82
3, 552192, Note_on_c, 0, 52, 82
3, 552380, Note_off_c, 0, 55, 0
3, 552380, Note_off_c, 0, 48, 0
3, 552380, Note_off_c, 0, 52, 0
3, 552384, Note_on_c, 0, 48, 84
3, 552384, Note_on_c, 0, 55, 82
3, 552384, Note_on_c, 0, 52, 78
3, 552572, Note_off_c, 0, 48, 0
3, 552572, Note_off_c, 0, 55, 0
3, 552572, Note_off_c, 0, 52, 0
3, 552576, Note_on_c, 0, 48, 81
3, 552576, Note_on_c, 0, 52, 68
3, 552576, Note_on_c, 0, 55, 85
3, 552764, Note_off_c, 0, 48, 0
3, 552764, Note_off_c, 0, 52, 0
3, 552764, Note_off_c, 0, 55, 0
3, 552768, Note_on_c, 0, 48, 80
3, 552768, Note_on_c, 0, 55, 82
3, 552768, Note_on_c, 0, 52, 74
3, 552956, Note_off_c, 0, 48, 0
3, 552956, Note_off_c, 0, 55, 0
3, 552956, Note_off_c, 0, 52, 0
3, 552960, Note_on_c, 0, 52, 82
3, 552960, Note_on_c, 0, 60, 81
3, 552960, Note_on_c, 0, 48, 80
3, 552960, Note_on_c, 0, 55, 83
3, 553148, Note_off_c, 0, 52, 0
3, 553148, Note_off_c, 0, 60, 0
3, 553148, Note_off_c, 0, 48, 0
3, 553148, Note_off_c, 0, 55, 0
3, 553344, Note_on_c, 0, 60, 79
3, 553344, Note_on_c, 0, 48, 76
3, 553344, Note_on_c, 0, 55, 75
3, 553344, Note_on_c, 0, 52, 82
3, 553532, Note_off_c, 0, 60, 0
3, 553532, Note_off_c, 0, 48, 0
3, 553532, Note_off_c, 0, 55, 0
3, 553532, Note_off_c, 0, 52, 0
3, 553536, Note_on_c, 0, 55, 74
3, 553536, Note_on_c, 0, 60, 77
3, 553536, Note_on_c, 0, 48, 74
3, 553536, Note_on_c, 0, 52, 78
3, 553724, Note_off_c, 0, 55, 0
3, 553724, Note_off_c, 0, 60, 0
3, 553724, Note_off_c, 0, 48, 0
3, 553724, Note_off_c, 0, 52, 0
3, 554304, Note_on_c, 0, 62, 79
3, 554304, Note_on_c, 0, 50, 68
3, 554396, Note_off_c, 0, 62, 0
3, 554396, Note_off_c, 0, 50, 0
3, 554400, Note_on_c, 0, 52, 73
3, 554400, Note_on_c, 0, 64, 78
3, 554492, Note_off_c, 0, 52, 0
3, 554492, Note_off_c, 0, 64, 0
3, 554976, Note_on_c, 0, 67, 83
3, 554976, Note_on_c, 0, 55, 76
3, 555068, Note_off_c, 0, 67, 0
3, 555068, Note_off_c, 0, 55, 0
3, 556224, Note_on_c, 0, 65, 70
3, 556224, Note_on_c, 0, 57, 72
3, 556224, Note_on_c, 0, 60, 70
3, 556224, Note_on_c, 0, 53, 56
3, 556412, Note_off_c, 0, 65, 0
3, 556412, Note_off_c, 0, 57, 0
3, 556412, Note_off_c, 0, 60, 0
3, 556412, Note_off_c, 0, 53, 0
3, 559488, Note_on_c, 0, 56, 47
3, 559612, Note_off_c, 0, 56, 0
3, 560256, Note_on_c, 0, 56, 46
3, 560380, Note_off_c, 0, 56, 0
3, 561024, Note_on_c, 0, 54, 40
3, 561148, Note_off_c, 0, 54, 0
3, 561408, Key_signature, 1, "major"
3, 561408, Note_on_c, 0, 55, 54
3, 561500, Note_off_c, 0, 55, 0
3, 561792, Note_on_c, 0, 54, 61
3, 561884, Note_off_c, 0, 54, 0
3, 562176, Note_on_c, 0, 52, 60
3, 562268, Note_off_c, 0, 52, 0
3, 562272, Note_on_c, 0, 55, 55
3, 562364, Note_off_c, 0, 55, 0
3, 562464, Note_on_c, 0, 55, 66
3, 562556, Note_off_c, 0, 55, 0
3, 562560, Note_on_c, 0, 50, 49
3, 562652, Note_off_c, 0, 50, 0
3, 562656, Note_on_c, 0, 54, 50
3, 562748, Note_off_c, 0, 54, 0
3, 562848, Note_on_c, 0, 54, 39
3, 562940, Note_off_c, 0, 54, 0
3, 562944, Note_on_c, 0, 48, 58
3, 563036, Note_off_c, 0, 48, 0
3, 563040, Note_on_c, 0, 52, 42
3, 563132, Note_off_c, 0, 52, 0
3, 563136, Note_on_c, 0, 55, 48
3, 563228, Note_off_c, 0, 55, 0
3, 563232, Note_on_c, 0, 52, 37
3, 563324, Note_off_c, 0, 52, 0
3, 563328, Note_on_c, 0, 47, 39
3, 563420, Note_off_c, 0, 47, 0
3, 563424, Note_on_c, 0, 50, 30
3, 563516, Note_off_c, 0, 50, 0
3, 563520, Note_on_c, 0, 55, 49
3, 563612, Note_off_c, 0, 55, 0
3, 563616, Note_on_c, 0, 50, 45
3, 563708, Note_off_c, 0, 50, 0
3, 563712, Note_on_c, 0, 45, 61
3, 563804, Note_off_c, 0, 45, 0
3, 563808, Note_on_c, 0, 50, 46
3, 563900, Note_off_c, 0, 50, 0
3, 563904, Note_on_c, 0, 54, 53
3, 563996, Note_off_c, 0, 54, 0
3, 564000, Note_on_c, 0, 50, 59
3, 564092, Note_off_c, 0, 50, 0
3, 564096, Note_on_c, 0, 43, 42
3, 564188, Note_off_c, 0, 43, 0
3, 564192, Note_on_c, 0, 50, 43
3, 564284, Note_off_c, 0, 50, 0
3, 564288, Note_on_c, 0, 55, 50
3, 564380, Note_off_c, 0, 55, 0
3, 564384, Note_on_c, 0, 50, 45
3, 564476, Note_off_c, 0, 50, 0
3, 564480, Note_on_c, 0, 55, 54
3, 564572, Note_off_c, 0, 55, 0
3, 564864, Note_on_c, 0, 54, 61
3, 564956, Note_off_c, 0, 54, 0
3, 565248, Note_on_c, 0, 52, 45
3, 565340, Note_off_c, 0, 52, 0
3, 565632, Note_on_c, 0, 50, 49
3, 565724, Note_off_c, 0, 50, 0
3, 566016, Note_on_c, 0, 55, 68
3, 566108, Note_off_c, 0, 55, 0
3, 566784, Note_on_c, 0, 50, 50
3, 566876, Note_off_c, 0, 50, 0
3, 566880, Note_on_c, 0, 54, 50
3, 566972, Note_off_c, 0, 54, 0
3, 567552, Note_on_c, 0, 55, 46
3, 567644, Note_off_c, 0, 55, 0
3, 567936, Note_on_c, 0, 54, 56
3, 568028, Note_off_c, 0, 54, 0
3, 568320, Note_on_c, 0, 52, 44
3, 568412, Note_off_c, 0, 52, 0
3, 568512, Note_on_c, 0, 55, 52
3, 568604, Note_off_c, 0, 55, 0
3, 568704, Note_on_c, 0, 50, 49
3, 568796, Note_off_c, 0, 50, 0
3, 568896, Note_on_c, 0, 55, 45
3, 568988, Note_off_c, 0, 55, 0
3, 569088, Note_on_c, 0, 48, 57
3, 569180, Note_off_c, 0, 48, 0
3, 569184, Note_on_c, 0, 55, 48
3, 569276, Note_off_c, 0, 55, 0
3, 569280, Note_on_c, 0, 52, 48
3, 569372, Note_off_c, 0, 52, 0
3, 569376, Note_on_c, 0, 55, 44
3, 569468, Note_off_c, 0, 55, 0
3, 569472, Note_on_c, 0, 47, 57
3, 569564, Note_off_c, 0, 47, 0
3, 569568, Note_on_c, 0, 55, 57
3, 569660, Note_off_c, 0, 55, 0
3, 569664, Note_on_c, 0, 50, 58
3, 569756, Note_off_c, 0, 50, 0
3, 569760, Note_on_c, 0, 55, 41
3, 569852, Note_off_c, 0, 55, 0
3, 569856, Note_on_c, 0, 45, 58
3, 569948, Note_off_c, 0, 45, 0
3, 569952, Note_on_c, 0, 54, 42
3, 570044, Note_off_c, 0, 54, 0
3, 570048, Note_on_c, 0, 50, 53
3, 570140, Note_off_c, 0, 50, 0
3, 570144, Note_on_c, 0, 54, 55
3, 570236, Note_off_c, 0, 54, 0
3, 570240, Note_on_c, 0, 43, 54
3, 570332, Note_off_c, 0, 43, 0
3, 570336, Note_on_c, 0, 55, 60
3, 570428, Note_off_c, 0, 55, 0
3, 570432, Note_on_c, 0, 50, 56
3, 570524, Note_off_c, 0, 50, 0
3, 570528, Note_on_c, 0, 55, 61
3, 570620, Note_off_c, 0, 55, 0
3, 570624, Note_on_c, 0, 55, 51
3, 570716, Note_off_c, 0, 55, 0
3, 571008, Note_on_c, 0, 54, 46
3, 571100, Note_off_c, 0, 54, 0
3, 571392, Note_on_c, 0, 52, 55
3, 571484, Note_off_c, 0, 52, 0
3, 571776, Note_on_c, 0, 50, 56
3, 571868, Note_off_c, 0, 50, 0
3, 572160, Note_on_c, 0, 55, 53
3, 572252, Note_off_c, 0, 55, 0
3, 572928, Note_on_c, 0, 50, 55
3, 573020, Note_off_c, 0, 50, 0
3, 573024, Note_on_c, 0, 54, 54
3, 573116, Note_off_c, 0, 54, 0
3, 573600, Note_on_c, 0, 54, 45
3, 573692, Note_off_c, 0, 54, 0
3, 573984, Note_on_c, 0, 74, 99
3, 573984, Note_on_c, 0, 50, 86
3, 574076, Note_off_c, 0, 74, 0
3, 574076, Note_off_c, 0, 50, 0
3, 574464, Note_on_c, 0, 74, 90
3, 574464, Note_on_c, 0, 50, 96
3, 574844, Note_off_c, 0, 74, 0
3, 574844, Note_off_c, 0, 50, 0
3, 575184, Note_on_c, 0, 66, 88
3, 575184, Note_on_c, 0, 42, 77
3, 575228, Note_off_c, 0, 66, 0
3, 575228, Note_off_c, 0, 42, 0
3, 575232, Note_on_c, 0, 64, 92
3, 575232, Note_on_c, 0, 40, 77
3, 575292, Note_off_c, 0, 64, 0
3, 575292, Note_off_c, 0, 40, 0
3, 575424, Note_on_c, 0, 38, 81
3, 575424, Note_on_c, 0, 62, 90
3, 575484, Note_off_c, 0, 38, 0
3, 575484, Note_off_c, 0, 62, 0
3, 575616, Note_on_c, 0, 64, 89
3, 575616, Note_on_c, 0, 40, 73
3, 575676, Note_off_c, 0, 64, 0
3, 575676, Note_off_c, 0, 40, 0
3, 575808, Note_on_c, 0, 42, 75
3, 575808, Note_on_c, 0, 66, 88
3, 575868, Note_off_c, 0, 42, 0
3, 575868, Note_off_c, 0, 66, 0
3, 576000, Note_on_c, 0, 67, 99
3, 576000, Note_on_c, 0, 43, 86
3, 576380, Note_off_c, 0, 67, 0
3, 576380, Note_off_c, 0, 43, 0
3, 576384, Note_on_c, 0, 55, 94
3, 576384, Note_on_c, 0, 31, 84
3, 576764, Note_off_c, 0, 55, 0
3, 576764, Note_off_c, 0, 31, 0
3, 576768, Note_on_c, 0, 50, 67
3, 576860, Note_off_c, 0, 50, 0
3, 576960, Note_on_c, 0, 54, 60
3, 577052, Note_off_c, 0, 54, 0
3, 577152, Note_on_c, 0, 52, 47
3, 577244, Note_off_c, 0, 52, 0
3, 577344, Note_on_c, 0, 55, 71
3, 577436, Note_off_c, 0, 55, 0
3, 577536, Note_on_c, 0, 50, 55
3, 577628, Note_off_c, 0, 50, 0
3, 577728, Note_on_c, 0, 54, 54
3, 577820, Note_off_c, 0, 54, 0
3, 577920, Note_on_c, 0, 45, 58
3, 578012, Note_off_c, 0, 45, 0
3, 578112, Note_on_c, 0, 55, 61
3, 578204, Note_off_c, 0, 55, 0
3, 578304, Note_on_c, 0, 48, 62
3, 578396, Note_off_c, 0, 48, 0
3, 578496, Note_on_c, 0, 52, 55
3, 578588, Note_off_c, 0, 52, 0
3, 578688, Note_on_c, 0, 50, 56
3, 578780, Note_off_c, 0, 50, 0
3, 579552, Note_on_c, 0, 55, 60
3, 579644, Note_off_c, 0, 55, 0
3, 579648, Note_on_c, 0, 54, 53
3, 579740, Note_off_c, 0, 54, 0
3, 579744, Note_on_c, 0, 52, 62
3, 579836, Note_off_c, 0, 52, 0
3, 580032, Note_on_c, 0, 76, 99
3, 580032, Note_on_c, 0, 52, 85
3, 580124, Note_off_c, 0, 76, 0
3, 580124, Note_off_c, 0, 52, 0
3, 580224, Note_on_c, 0, 71, 84
3, 580224, Note_on_c, 0, 47, 87
3, 580284, Note_off_c, 0, 71, 0
3, 580284, Note_off_c, 0, 47, 0
3, 582864, Note_on_c, 0, 42, 62
3, 582864, Note_on_c, 0, 66, 71
3, 582908, Note_off_c, 0, 42, 0
3, 582908, Note_off_c, 0, 66, 0
3, 582912, Note_on_c, 0, 64, 93
3, 582912, Note_on_c, 0, 40, 80
3, 582972, Note_off_c, 0, 64, 0
3, 582972, Note_off_c, 0, 40, 0
3, 583488, Note_on_c, 0, 66, 87
3, 583488, Note_on_c, 0, 42, 65
3, 583548, Note_off_c, 0, 66, 0
3, 583548, Note_off_c, 0, 42, 0
3, 583680, Note_on_c, 0, 67, 93
3, 583680, Note_on_c, 0, 43, 85
3, 584060, Note_off_c, 0, 67, 0
3, 584060, Note_off_c, 0, 43, 0
3, 584064, Note_on_c, 0, 55, 84
3, 584064, Note_on_c, 0, 31, 83
3, 584444, Note_off_c, 0, 55, 0
3, 584444, Note_off_c, 0, 31, 0
3, 587136, Note_on_c, 0, 55, 59
3, 587228, Note_off_c, 0, 55, 0
3, 587328, Note_on_c, 0, 55, 43
3, 587420, Note_off_c, 0, 55, 0
3, 588288, Note_on_c, 0, 55, 61
3, 588380, Note_off_c, 0, 55, 0
3, 588480, Note_on_c, 0, 55, 39
3, 588572, Note_off_c, 0, 55, 0
3, 589824, Note_on_c, 0, 55, 54
3, 589916, Note_off_c, 0, 55, 0
3, 590016, Note_on_c, 0, 55, 46
3, 590108, Note_off_c, 0, 55, 0
3, 591360, Note_on_c, 0, 55, 54
3, 591452, Note_off_c, 0, 55, 0
3, 591552, Note_on_c, 0, 55, 47
3, 591644, Note_off_c, 0, 55, 0
3, 592896, Note_on_c, 0, 55, 51
3, 592988, Note_off_c, 0, 55, 0
3, 593280, Note_on_c, 0, 55, 43
3, 593372, Note_off_c, 0, 55, 0
3, 593664, Note_on_c, 0, 55, 64
3, 593756, Note_off_c, 0, 55, 0
3, 594048, Note_on_c, 0, 55, 72
3, 594140, Note_off_c, 0, 55, 0
3, 594432, Note_on_c, 0, 55, 82
3, 594524, Note_off_c, 0, 55, 0
3, 594816, Note_on_c, 0, 55, 88
3, 594908, Note_off_c, 0, 55, 0
3, 595200, Note_on_c, 0, 55, 93
3, 595292, Note_off_c, 0, 55, 0
3, 595584, Note_on_c, 0, 47, 45
3, 595676, Note_off_c, 0, 47, 0
3, 595680, Note_on_c, 0, 50, 48
3, 595772, Note_off_c, 0, 50, 0
3, 595776, Note_on_c, 0, 55, 16
3, 595868, Note_off_c, 0, 55, 0
3, 595868, End_track
4, 0, Start_track
4, 0, Title_t, "Performed by:  Wesley Venable"
4, 0, Key_signature, 0, "major"
4, 0, End_track
5, 0, Start_track
5, 0, Title_t, "Instrument:  Yamaha Clavinova CLP - 123"
5, 0, Key_signature, 0, "major"
5, 0, End_track
6, 0, Start_track
6, 0, Title_t, "E-mail:  Wesley_Venable@Prodigy.com or Wesley_Venable@msn.com"
6, 0, Key_signature, 0, "major"
6, 0, End_track
7, 0, Start_track
7, 0, Key_signature, 0, "major"
7, 0, End_track
8, 0, Start_track
8, 0, Key_signature, 0, "major"
8, 0, End_track
9, 0, Start_track
9, 0, Key_signature, 0, "major"
9, 0, End_track
10, 0, Start_track
10, 0, Key_signature, 0, "major"
10, 0, End_track
11, 0, Start_track
11, 0, Key_signature, 0, "major"
11, 0, End_track
12, 0, Start_track
12, 0, Key_signature, 0, "major"
12, 0, End_track
13, 0, Start_track
13, 0, Key_signature, 0, "major"
13, 0, End_track
14, 0, Start_track
14, 0, Key_signature, 0, "major"
14, 0, End_track
15, 0, Start_track
15, 0, Key_signature, 0, "major"
15, 0, End_track
16, 0, Start_track
16, 0, Key_signature, 0, "major"
16, 0, End_track
17, 0, Start_track
17, 0, Key_signature, 0, "major"
17, 0, End_track
0, 0, End_of_file