0, 0, Header, 1, 16, 240
1, 0, Start_track
1, 0, Time_signature, 4, 2, 24, 8
1, 0, Tempo, 1000000
1, 0, Marker_t, "Beethoven's Piano Concerto No.1 in C Major, Op.15, Mov't. 2 (Largo)"
1, 0, Marker_t, "Beethoven's Piano Concerto No.1, Op.15, Mov't. 2 (Largo)\012"
1, 0, Marker_t, "Largo"
1, 0, Marker_t, "Largo"
1, 0, Marker_t, "Largo\012"
1, 0, Marker_t, "Ludwig van Beethoven"
1, 0, Marker_t, "Ludwig van Beethoven"
1, 0, Marker_t, "Mov't. 2"
1, 0, Marker_t, "Mov't. 2"
1, 0, Marker_t, "Mov't. 2  Largo"
1, 0, Marker_t, "Piano Concerto No.1 in C Major, Op. 15"
1, 0, Marker_t, "Piano Concerto No.1 in C, Op.15"
1, 0, Marker_t, "Piano Concerto No.1 in C, Op.15"
1, 0, Marker_t, "untitled"
1, 48240, Tempo, 1016949
1, 48480, Tempo, 1052632
1, 48720, Tempo, 1090909
1, 48960, Tempo, 1132075
1, 49200, Tempo, 1176471
1, 49440, Tempo, 1224490
1, 49680, Tempo, 1276596
1, 49920, Tempo, 1000000
1, 91680, Tempo, 1016949
1, 92160, Tempo, 1034483
1, 92640, Tempo, 1052632
1, 93120, Tempo, 1071429
1, 94080, Tempo, 1000000
1, 113280, Tempo, 1500000
1, 113280, End_track
2, 0, Start_track
2, 0, Title_t, "Clarinets"
2, 0, Program_c, 0, 71
2, 0, Control_c, 0, 7, 100
2, 0, Control_c, 0, 10, 42
2, 0, Control_c, 0, 93, 0
2, 0, Control_c, 0, 91, 66
2, 7200, Note_on_c, 0, 63, 33
2, 7200, Note_on_c, 0, 70, 44
2, 7680, Note_off_c, 0, 70, 64
2, 7680, Note_off_c, 0, 63, 64
2, 7680, Note_on_c, 0, 72, 31
2, 7680, Note_on_c, 0, 63, 38
2, 8160, Note_off_c, 0, 63, 64
2, 8160, Note_off_c, 0, 72, 64
2, 8160, Note_on_c, 0, 73, 38
2, 8160, Note_on_c, 0, 63, 38
2, 8400, Note_off_c, 0, 63, 64
2, 8400, Note_off_c, 0, 73, 64
2, 8400, Note_on_c, 0, 63, 38
2, 8400, Note_on_c, 0, 70, 40
2, 8640, Note_off_c, 0, 70, 64
2, 8640, Note_off_c, 0, 63, 64
2, 8640, Note_on_c, 0, 75, 31
2, 8640, Note_on_c, 0, 63, 37
2, 9000, Note_off_c, 0, 63, 64
2, 9000, Note_off_c, 0, 75, 64
2, 9000, Note_on_c, 0, 72, 29
2, 9000, Note_on_c, 0, 68, 44
2, 9120, Note_off_c, 0, 68, 64
2, 9120, Note_off_c, 0, 72, 64
2, 9120, Note_on_c, 0, 70, 59
2, 9120, Note_on_c, 0, 67, 40
2, 9300, Note_off_c, 0, 67, 64
2, 9300, Note_off_c, 0, 70, 64
2, 9300, Note_on_c, 0, 72, 55
2, 9300, Note_on_c, 0, 68, 86
2, 9360, Note_off_c, 0, 68, 64
2, 9360, Note_off_c, 0, 72, 64
2, 9360, Note_on_c, 0, 73, 82
2, 9360, Note_on_c, 0, 70, 77
2, 9420, Note_off_c, 0, 70, 64
2, 9420, Note_off_c, 0, 73, 64
2, 9480, Note_on_c, 0, 73, 85
2, 9480, Note_on_c, 0, 70, 89
2, 9540, Note_off_c, 0, 70, 64
2, 9540, Note_off_c, 0, 73, 64
2, 9600, Note_on_c, 0, 71, 90
2, 9600, Note_on_c, 0, 67, 72
2, 9720, Note_off_c, 0, 67, 64
2, 9720, Note_off_c, 0, 71, 64
2, 9720, Note_on_c, 0, 72, 71
2, 9720, Note_on_c, 0, 68, 89
2, 9960, Note_off_c, 0, 68, 64
2, 9960, Note_off_c, 0, 72, 64
2, 9960, Note_on_c, 0, 72, 80
2, 9960, Note_on_c, 0, 68, 95
2, 10080, Note_off_c, 0, 68, 64
2, 10080, Note_off_c, 0, 72, 64
2, 10080, Note_on_c, 0, 74, 93
2, 10080, Note_on_c, 0, 68, 90
2, 10260, Note_off_c, 0, 68, 64
2, 10260, Note_off_c, 0, 74, 64
2, 10290, Note_on_c, 0, 74, 99
2, 10290, Note_on_c, 0, 68, 98
2, 10320, Note_off_c, 0, 68, 64
2, 10320, Note_off_c, 0, 74, 64
2, 10320, Note_on_c, 0, 74, 95
2, 10320, Note_on_c, 0, 68, 94
2, 10500, Note_off_c, 0, 68, 64
2, 10500, Note_off_c, 0, 74, 64
2, 10530, Note_on_c, 0, 68, 95
2, 10530, Note_on_c, 0, 74, 98
2, 10560, Note_off_c, 0, 74, 64
2, 10560, Note_off_c, 0, 68, 64
2, 10560, Note_on_c, 0, 75, 90
2, 10560, Note_on_c, 0, 67, 99
2, 10800, Note_off_c, 0, 67, 64
2, 10800, Note_off_c, 0, 75, 64
2, 10920, Note_on_c, 0, 79, 45
2, 10920, Note_on_c, 0, 67, 45
2, 11040, Note_off_c, 0, 67, 64
2, 11040, Note_off_c, 0, 79, 64
2, 11040, Note_on_c, 0, 80, 36
2, 11040, Note_on_c, 0, 68, 40
2, 11220, Note_off_c, 0, 68, 64
2, 11220, Note_off_c, 0, 80, 64
2, 11250, Note_on_c, 0, 79, 43
2, 11250, Note_on_c, 0, 68, 57
2, 11280, Note_off_c, 0, 68, 64
2, 11280, Note_off_c, 0, 79, 64
2, 11280, Note_on_c, 0, 80, 41
2, 11280, Note_on_c, 0, 68, 46
2, 11460, Note_off_c, 0, 68, 64
2, 11460, Note_off_c, 0, 80, 64
2, 11490, Note_on_c, 0, 68, 45
2, 11490, Note_on_c, 0, 82, 57
2, 11520, Note_off_c, 0, 82, 64
2, 11520, Note_off_c, 0, 68, 64
2, 11520, Note_on_c, 0, 75, 38
2, 11520, Note_on_c, 0, 67, 41
2, 11640, Note_off_c, 0, 67, 64
2, 11640, Note_off_c, 0, 75, 64
2, 12210, Note_on_c, 0, 79, 42
2, 12210, Note_on_c, 0, 67, 43
2, 12240, Note_off_c, 0, 67, 64
2, 12240, Note_off_c, 0, 79, 64
2, 12240, Note_on_c, 0, 80, 41
2, 12240, Note_on_c, 0, 68, 49
2, 12420, Note_off_c, 0, 68, 64
2, 12420, Note_off_c, 0, 80, 64
2, 12450, Note_on_c, 0, 68, 49
2, 12450, Note_on_c, 0, 82, 44
2, 12480, Note_off_c, 0, 82, 64
2, 12480, Note_off_c, 0, 68, 64
2, 12480, Note_on_c, 0, 75, 44
2, 12480, Note_on_c, 0, 67, 50
2, 12720, Note_off_c, 0, 67, 64
2, 12720, Note_on_c, 0, 67, 65
2, 12960, Note_off_c, 0, 67, 64
2, 12960, Note_off_c, 0, 75, 64
2, 12960, Note_on_c, 0, 74, 76
2, 12960, Note_on_c, 0, 68, 76
2, 13200, Note_off_c, 0, 68, 64
2, 13200, Note_off_c, 0, 74, 64
2, 13200, Note_on_c, 0, 70, 84
2, 13200, Note_on_c, 0, 73, 76
2, 13440, Note_off_c, 0, 73, 64
2, 13440, Note_off_c, 0, 70, 64
2, 13440, Note_on_c, 0, 72, 58
2, 13440, Note_on_c, 0, 63, 38
2, 13800, Note_off_c, 0, 72, 64
2, 13800, Note_on_c, 0, 70, 49
2, 13860, Note_off_c, 0, 70, 64
2, 13860, Note_on_c, 0, 72, 29
2, 13920, Note_off_c, 0, 72, 64
2, 13920, Note_on_c, 0, 73, 61
2, 14040, Note_off_c, 0, 73, 64
2, 14040, Note_on_c, 0, 72, 29
2, 14160, Note_off_c, 0, 72, 64
2, 14160, Note_off_c, 0, 63, 64
2, 14160, Note_on_c, 0, 63, 40
2, 14160, Note_on_c, 0, 70, 74
2, 14280, Note_off_c, 0, 70, 64
2, 14280, Note_on_c, 0, 68, 63
2, 14400, Note_off_c, 0, 68, 64
2, 14400, Note_off_c, 0, 63, 64
2, 14400, Note_on_c, 0, 73, 70
2, 14400, Note_on_c, 0, 67, 67
2, 14640, Note_off_c, 0, 67, 64
2, 14640, Note_on_c, 0, 63, 81
2, 14760, Note_off_c, 0, 73, 64
2, 14820, Note_on_c, 0, 70, 89
2, 14880, Note_off_c, 0, 70, 64
2, 14880, Note_on_c, 0, 67, 93
2, 15120, Note_off_c, 0, 67, 64
2, 15120, Note_off_c, 0, 63, 64
2, 15120, Note_on_c, 0, 66, 89
2, 15120, Note_on_c, 0, 69, 85
2, 15360, Note_off_c, 0, 69, 64
2, 15360, Note_off_c, 0, 66, 64
2, 15360, Note_on_c, 0, 70, 65
2, 15360, Note_on_c, 0, 65, 44
2, 15600, Note_off_c, 0, 65, 64
2, 15720, Note_off_c, 0, 70, 64
2, 15720, Note_on_c, 0, 73, 45
2, 15780, Note_off_c, 0, 73, 64
2, 15780, Note_on_c, 0, 77, 66
2, 15840, Note_off_c, 0, 77, 64
2, 15840, Note_on_c, 0, 68, 40
2, 15840, Note_on_c, 0, 63, 58
2, 16080, Note_off_c, 0, 63, 64
2, 16080, Note_off_c, 0, 68, 64
2, 16080, Note_on_c, 0, 67, 45
2, 16080, Note_on_c, 0, 72, 56
2, 16260, Note_off_c, 0, 72, 64
2, 16260, Note_on_c, 0, 70, 55
2, 16320, Note_off_c, 0, 70, 64
2, 16320, Note_off_c, 0, 67, 64
2, 16320, Note_on_c, 0, 70, 67
2, 16320, Note_on_c, 0, 67, 45
2, 16800, Note_off_c, 0, 67, 64
2, 16800, Note_off_c, 0, 70, 64
2, 16800, Note_on_c, 0, 68, 57
2, 16920, Note_off_c, 0, 68, 64
2, 17400, Note_on_c, 0, 70, 29
2, 17400, Note_on_c, 0, 67, 29
2, 17460, Note_off_c, 0, 67, 64
2, 17460, Note_off_c, 0, 70, 64
2, 17520, Note_on_c, 0, 70, 38
2, 17520, Note_on_c, 0, 67, 35
2, 17580, Note_off_c, 0, 67, 64
2, 17580, Note_off_c, 0, 70, 64
2, 17640, Note_on_c, 0, 70, 29
2, 17640, Note_on_c, 0, 67, 36
2, 17700, Note_off_c, 0, 67, 64
2, 17700, Note_off_c, 0, 70, 64
2, 17880, Note_on_c, 0, 73, 33
2, 17880, Note_on_c, 0, 67, 33
2, 17940, Note_off_c, 0, 67, 64
2, 17940, Note_off_c, 0, 73, 64
2, 18000, Note_on_c, 0, 73, 29
2, 18000, Note_on_c, 0, 67, 29
2, 18060, Note_off_c, 0, 67, 64
2, 18060, Note_off_c, 0, 73, 64
2, 18120, Note_on_c, 0, 73, 29
2, 18120, Note_on_c, 0, 67, 29
2, 18180, Note_off_c, 0, 67, 64
2, 18180, Note_off_c, 0, 73, 64
2, 18240, Note_on_c, 0, 72, 31
2, 18240, Note_on_c, 0, 68, 43
2, 18480, Note_off_c, 0, 68, 64
2, 18480, Note_off_c, 0, 72, 64
2, 19320, Note_on_c, 0, 67, 32
2, 19320, Note_on_c, 0, 60, 33
2, 19380, Note_off_c, 0, 60, 64
2, 19380, Note_off_c, 0, 67, 64
2, 19440, Note_on_c, 0, 67, 31
2, 19440, Note_on_c, 0, 60, 36
2, 19500, Note_off_c, 0, 60, 64
2, 19500, Note_off_c, 0, 67, 64
2, 19560, Note_on_c, 0, 67, 38
2, 19560, Note_on_c, 0, 60, 40
2, 19620, Note_off_c, 0, 60, 64
2, 19620, Note_off_c, 0, 67, 64
2, 19800, Note_on_c, 0, 70, 32
2, 19800, Note_on_c, 0, 60, 38
2, 19860, Note_off_c, 0, 60, 64
2, 19860, Note_off_c, 0, 70, 64
2, 19920, Note_on_c, 0, 70, 32
2, 19920, Note_on_c, 0, 60, 41
2, 19980, Note_off_c, 0, 60, 64
2, 19980, Note_off_c, 0, 70, 64
2, 20040, Note_on_c, 0, 70, 34
2, 20040, Note_on_c, 0, 60, 42
2, 20100, Note_off_c, 0, 60, 64
2, 20100, Note_off_c, 0, 70, 64
2, 20160, Note_on_c, 0, 68, 29
2, 20160, Note_on_c, 0, 60, 43
2, 20400, Note_off_c, 0, 60, 64
2, 20400, Note_off_c, 0, 68, 64
2, 21240, Note_on_c, 0, 68, 40
2, 21240, Note_on_c, 0, 65, 29
2, 21300, Note_off_c, 0, 65, 64
2, 21300, Note_off_c, 0, 68, 64
2, 21360, Note_on_c, 0, 68, 29
2, 21360, Note_on_c, 0, 65, 37
2, 21420, Note_off_c, 0, 65, 64
2, 21420, Note_off_c, 0, 68, 64
2, 21480, Note_on_c, 0, 68, 36
2, 21480, Note_on_c, 0, 65, 35
2, 21540, Note_off_c, 0, 65, 64
2, 21540, Note_off_c, 0, 68, 64
2, 21720, Note_on_c, 0, 74, 43
2, 21720, Note_on_c, 0, 68, 44
2, 21780, Note_off_c, 0, 68, 64
2, 21780, Note_off_c, 0, 74, 64
2, 21840, Note_on_c, 0, 74, 37
2, 21840, Note_on_c, 0, 68, 40
2, 21900, Note_off_c, 0, 68, 64
2, 21900, Note_off_c, 0, 74, 64
2, 21960, Note_on_c, 0, 74, 40
2, 21960, Note_on_c, 0, 68, 42
2, 22020, Note_off_c, 0, 68, 64
2, 22020, Note_off_c, 0, 74, 64
2, 22200, Note_on_c, 0, 75, 40
2, 22200, Note_on_c, 0, 67, 43
2, 22260, Note_off_c, 0, 67, 64
2, 22260, Note_off_c, 0, 75, 64
2, 22320, Note_on_c, 0, 75, 38
2, 22320, Note_on_c, 0, 67, 44
2, 22380, Note_off_c, 0, 67, 64
2, 22380, Note_off_c, 0, 75, 64
2, 22440, Note_on_c, 0, 75, 40
2, 22440, Note_on_c, 0, 67, 50
2, 22500, Note_off_c, 0, 67, 64
2, 22500, Note_off_c, 0, 75, 64
2, 22560, Note_on_c, 0, 69, 43
2, 22560, Note_on_c, 0, 75, 29
2, 23040, Note_off_c, 0, 75, 64
2, 23040, Note_off_c, 0, 69, 64
2, 23040, Note_on_c, 0, 74, 38
2, 23040, Note_on_c, 0, 70, 42
2, 23160, Note_off_c, 0, 70, 64
2, 23160, Note_off_c, 0, 74, 64
2, 23520, Note_on_c, 0, 70, 67
2, 23880, Note_off_c, 0, 70, 64
2, 23880, Note_on_c, 0, 69, 72
2, 24000, Note_off_c, 0, 69, 64
2, 24000, Note_on_c, 0, 70, 61
2, 24120, Note_off_c, 0, 70, 64
2, 25080, Note_on_c, 0, 82, 73
2, 25080, Note_on_c, 0, 70, 94
2, 25140, Note_off_c, 0, 70, 64
2, 25140, Note_off_c, 0, 82, 64
2, 25200, Note_on_c, 0, 82, 76
2, 25200, Note_on_c, 0, 70, 90
2, 25260, Note_off_c, 0, 70, 64
2, 25260, Note_off_c, 0, 82, 64
2, 25320, Note_on_c, 0, 82, 73
2, 25320, Note_on_c, 0, 70, 90
2, 25380, Note_off_c, 0, 70, 64
2, 25380, Note_off_c, 0, 82, 64
2, 25440, Note_on_c, 0, 82, 86
2, 25440, Note_on_c, 0, 70, 98
2, 25500, Note_off_c, 0, 70, 64
2, 25500, Note_off_c, 0, 82, 64
2, 25560, Note_on_c, 0, 74, 107
2, 25560, Note_on_c, 0, 68, 119
2, 25680, Note_off_c, 0, 68, 64
2, 25680, Note_off_c, 0, 74, 64
2, 25680, Note_on_c, 0, 75, 112
2, 25680, Note_on_c, 0, 66, 112
2, 25800, Note_off_c, 0, 66, 64
2, 25800, Note_off_c, 0, 75, 64
2, 25800, Note_on_c, 0, 75, 123
2, 25800, Note_on_c, 0, 78, 119
2, 25920, Note_off_c, 0, 78, 64
2, 25920, Note_off_c, 0, 75, 64
2, 25920, Note_on_c, 0, 77, 112
2, 25920, Note_on_c, 0, 74, 117
2, 26040, Note_off_c, 0, 74, 64
2, 26040, Note_off_c, 0, 77, 64
2, 26040, Note_on_c, 0, 74, 105
2, 26040, Note_on_c, 0, 68, 98
2, 26160, Note_off_c, 0, 68, 64
2, 26160, Note_off_c, 0, 74, 64
2, 26160, Note_on_c, 0, 75, 101
2, 26160, Note_on_c, 0, 66, 105
2, 26280, Note_off_c, 0, 66, 64
2, 26280, Note_off_c, 0, 75, 64
2, 26280, Note_on_c, 0, 78, 119
2, 26280, Note_on_c, 0, 75, 125
2, 26400, Note_off_c, 0, 75, 64
2, 26400, Note_off_c, 0, 78, 64
2, 26400, Note_on_c, 0, 77, 105
2, 26400, Note_on_c, 0, 74, 104
2, 26520, Note_off_c, 0, 74, 64
2, 26520, Note_off_c, 0, 77, 64
2, 26520, Note_on_c, 0, 74, 110
2, 26520, Note_on_c, 0, 68, 105
2, 26640, Note_off_c, 0, 68, 64
2, 26640, Note_off_c, 0, 74, 64
2, 26640, Note_on_c, 0, 75, 99
2, 26640, Note_on_c, 0, 66, 105
2, 26760, Note_off_c, 0, 66, 64
2, 26760, Note_off_c, 0, 75, 64
2, 26760, Note_on_c, 0, 75, 125
2, 26760, Note_on_c, 0, 78, 125
2, 26880, Note_off_c, 0, 78, 64
2, 26880, Note_off_c, 0, 75, 64
2, 26880, Note_on_c, 0, 77, 43
2, 26880, Note_on_c, 0, 74, 43
2, 27000, Note_off_c, 0, 74, 64
2, 27000, Note_off_c, 0, 77, 64
2, 27000, Note_on_c, 0, 79, 56
2, 27000, Note_on_c, 0, 75, 56
2, 27120, Note_off_c, 0, 75, 64
2, 27120, Note_off_c, 0, 79, 64
2, 27120, Note_on_c, 0, 77, 44
2, 27120, Note_on_c, 0, 74, 54
2, 27240, Note_off_c, 0, 74, 64
2, 27240, Note_off_c, 0, 77, 64
2, 27240, Note_on_c, 0, 75, 57
2, 27240, Note_on_c, 0, 72, 43
2, 27360, Note_off_c, 0, 72, 64
2, 27360, Note_off_c, 0, 75, 64
2, 27360, Note_on_c, 0, 74, 66
2, 27360, Note_on_c, 0, 70, 44
2, 27480, Note_off_c, 0, 70, 64
2, 27480, Note_off_c, 0, 74, 64
2, 27480, Note_on_c, 0, 72, 43
2, 27480, Note_on_c, 0, 68, 43
2, 27600, Note_off_c, 0, 68, 64
2, 27600, Note_off_c, 0, 72, 64
2, 27600, Note_on_c, 0, 70, 74
2, 27600, Note_on_c, 0, 67, 50
2, 27720, Note_off_c, 0, 67, 64
2, 27720, Note_off_c, 0, 70, 64
2, 27720, Note_on_c, 0, 65, 53
2, 27720, Note_on_c, 0, 68, 64
2, 27840, Note_off_c, 0, 68, 64
2, 27840, Note_off_c, 0, 65, 64
2, 27840, Note_on_c, 0, 67, 41
2, 27840, Note_on_c, 0, 63, 44
2, 28080, Note_off_c, 0, 63, 64
2, 28080, Note_off_c, 0, 67, 64
2, 28440, Note_on_c, 0, 75, 35
2, 28440, Note_on_c, 0, 67, 43
2, 28530, Note_off_c, 0, 67, 64
2, 28530, Note_off_c, 0, 75, 64
2, 28560, Note_on_c, 0, 75, 43
2, 28560, Note_on_c, 0, 67, 61
2, 28650, Note_off_c, 0, 67, 64
2, 28650, Note_off_c, 0, 75, 64
2, 28680, Note_on_c, 0, 76, 43
2, 28680, Note_on_c, 0, 67, 44
2, 28770, Note_off_c, 0, 67, 64
2, 28770, Note_off_c, 0, 76, 64
2, 28800, Note_on_c, 0, 77, 53
2, 28800, Note_on_c, 0, 68, 62
2, 29040, Note_off_c, 0, 68, 64
2, 29040, Note_off_c, 0, 77, 64
2, 29400, Note_on_c, 0, 77, 43
2, 29400, Note_on_c, 0, 68, 58
2, 29490, Note_off_c, 0, 68, 64
2, 29490, Note_off_c, 0, 77, 64
2, 29520, Note_on_c, 0, 77, 45
2, 29520, Note_on_c, 0, 68, 56
2, 29610, Note_off_c, 0, 68, 64
2, 29610, Note_off_c, 0, 77, 64
2, 29640, Note_on_c, 0, 78, 41
2, 29640, Note_on_c, 0, 68, 59
2, 29730, Note_off_c, 0, 68, 64
2, 29730, Note_off_c, 0, 78, 64
2, 29760, Note_on_c, 0, 79, 46
2, 29760, Note_on_c, 0, 67, 45
2, 30000, Note_off_c, 0, 67, 64
2, 30000, Note_off_c, 0, 79, 64
2, 30240, Note_on_c, 0, 75, 46
2, 30240, Note_on_c, 0, 67, 54
2, 30300, Note_off_c, 0, 75, 64
2, 30300, Note_on_c, 0, 73, 38
2, 30330, Note_off_c, 0, 67, 64
2, 30360, Note_off_c, 0, 73, 64
2, 30360, Note_on_c, 0, 75, 53
2, 30360, Note_on_c, 0, 67, 51
2, 30420, Note_off_c, 0, 75, 64
2, 30420, Note_on_c, 0, 73, 36
2, 30450, Note_off_c, 0, 67, 64
2, 30480, Note_off_c, 0, 73, 64
2, 30480, Note_on_c, 0, 75, 54
2, 30480, Note_on_c, 0, 67, 44
2, 30540, Note_off_c, 0, 75, 64
2, 30540, Note_on_c, 0, 73, 43
2, 30570, Note_off_c, 0, 67, 64
2, 30600, Note_off_c, 0, 73, 64
2, 30600, Note_on_c, 0, 75, 53
2, 30600, Note_on_c, 0, 67, 44
2, 30660, Note_off_c, 0, 75, 64
2, 30660, Note_on_c, 0, 76, 64
2, 30690, Note_off_c, 0, 67, 64
2, 30720, Note_off_c, 0, 76, 64
2, 30720, Note_on_c, 0, 77, 45
2, 30720, Note_on_c, 0, 68, 71
2, 30960, Note_off_c, 0, 68, 64
2, 30960, Note_off_c, 0, 77, 64
2, 31200, Note_on_c, 0, 77, 45
2, 31200, Note_on_c, 0, 68, 56
2, 31260, Note_off_c, 0, 77, 64
2, 31260, Note_on_c, 0, 76, 48
2, 31290, Note_off_c, 0, 68, 64
2, 31320, Note_off_c, 0, 76, 64
2, 31320, Note_on_c, 0, 77, 44
2, 31320, Note_on_c, 0, 68, 56
2, 31380, Note_off_c, 0, 77, 64
2, 31380, Note_on_c, 0, 76, 52
2, 31410, Note_off_c, 0, 68, 64
2, 31440, Note_off_c, 0, 76, 64
2, 31440, Note_on_c, 0, 77, 58
2, 31440, Note_on_c, 0, 68, 60
2, 31500, Note_off_c, 0, 77, 64
2, 31500, Note_on_c, 0, 76, 57
2, 31530, Note_off_c, 0, 68, 64
2, 31560, Note_off_c, 0, 76, 64
2, 31560, Note_on_c, 0, 77, 46
2, 31560, Note_on_c, 0, 68, 68
2, 31620, Note_off_c, 0, 77, 64
2, 31620, Note_on_c, 0, 78, 58
2, 31650, Note_off_c, 0, 68, 64
2, 31680, Note_off_c, 0, 78, 64
2, 31680, Note_on_c, 0, 79, 61
2, 31680, Note_on_c, 0, 67, 47
2, 31920, Note_off_c, 0, 67, 64
2, 31920, Note_off_c, 0, 79, 64
2, 31920, Note_on_c, 0, 75, 30
2, 31920, Note_on_c, 0, 67, 40
2, 32160, Note_off_c, 0, 67, 64
2, 32160, Note_off_c, 0, 75, 64
2, 32400, Note_on_c, 0, 67, 41
2, 32400, Note_on_c, 0, 75, 35
2, 32640, Note_off_c, 0, 75, 64
2, 32640, Note_off_c, 0, 67, 64
2, 32880, Note_on_c, 0, 75, 33
2, 32880, Note_on_c, 0, 65, 39
2, 33120, Note_off_c, 0, 65, 64
2, 33120, Note_off_c, 0, 75, 64
2, 33360, Note_on_c, 0, 65, 35
2, 33360, Note_on_c, 0, 75, 29
2, 33600, Note_off_c, 0, 75, 64
2, 33600, Note_off_c, 0, 65, 64
2, 33840, Note_on_c, 0, 75, 46
2, 33840, Note_on_c, 0, 67, 37
2, 34080, Note_off_c, 0, 67, 64
2, 34080, Note_off_c, 0, 75, 64
2, 34320, Note_on_c, 0, 68, 56
2, 34320, Note_on_c, 0, 74, 59
2, 34560, Note_off_c, 0, 74, 64
2, 34560, Note_off_c, 0, 68, 64
2, 34680, Note_on_c, 0, 75, 43
2, 34680, Note_on_c, 0, 67, 72
2, 34740, Note_off_c, 0, 67, 64
2, 34740, Note_off_c, 0, 75, 64
2, 34800, Note_on_c, 0, 79, 85
2, 34800, Note_on_c, 0, 75, 98
2, 35280, Note_off_c, 0, 75, 64
2, 35280, Note_off_c, 0, 79, 64
2, 35280, Note_on_c, 0, 74, 119
2, 35280, Note_on_c, 0, 77, 112
2, 35520, Note_off_c, 0, 77, 64
2, 35520, Note_off_c, 0, 74, 64
2, 35520, Note_on_c, 0, 67, 29
2, 35520, Note_on_c, 0, 75, 29
2, 36480, Note_off_c, 0, 75, 64
2, 36480, Note_off_c, 0, 67, 64
2, 36480, Note_on_c, 0, 65, 41
2, 36480, Note_on_c, 0, 75, 38
2, 37440, Note_off_c, 0, 75, 64
2, 37440, Note_off_c, 0, 65, 64
2, 37440, Note_on_c, 0, 75, 40
2, 37440, Note_on_c, 0, 67, 43
2, 37920, Note_off_c, 0, 67, 64
2, 37920, Note_off_c, 0, 75, 64
2, 37920, Note_on_c, 0, 68, 48
2, 37920, Note_on_c, 0, 74, 43
2, 38400, Note_off_c, 0, 74, 64
2, 38400, Note_off_c, 0, 68, 64
2, 38400, Note_on_c, 0, 75, 35
2, 38400, Note_on_c, 0, 67, 45
2, 38520, Note_off_c, 0, 67, 64
2, 38520, Note_off_c, 0, 75, 64
2, 38880, Note_on_c, 0, 80, 71
2, 38880, Note_on_c, 0, 74, 104
2, 39060, Note_off_c, 0, 74, 64
2, 39060, Note_off_c, 0, 80, 64
2, 39090, Note_on_c, 0, 79, 90
2, 39090, Note_on_c, 0, 74, 104
2, 39120, Note_off_c, 0, 74, 64
2, 39120, Note_off_c, 0, 79, 64
2, 39120, Note_on_c, 0, 80, 84
2, 39120, Note_on_c, 0, 74, 105
2, 39300, Note_off_c, 0, 74, 64
2, 39300, Note_off_c, 0, 80, 64
2, 39330, Note_on_c, 0, 74, 104
2, 39330, Note_on_c, 0, 82, 78
2, 39360, Note_off_c, 0, 82, 64
2, 39360, Note_off_c, 0, 74, 64
2, 39360, Note_on_c, 0, 79, 73
2, 39360, Note_on_c, 0, 75, 84
2, 39480, Note_off_c, 0, 75, 64
2, 39480, Note_off_c, 0, 79, 64
2, 39840, Note_on_c, 0, 77, 73
2, 39840, Note_on_c, 0, 68, 94
2, 40020, Note_off_c, 0, 68, 64
2, 40020, Note_off_c, 0, 77, 64
2, 40050, Note_on_c, 0, 75, 94
2, 40050, Note_on_c, 0, 68, 84
2, 40080, Note_off_c, 0, 68, 64
2, 40080, Note_off_c, 0, 75, 64
2, 40080, Note_on_c, 0, 77, 82
2, 40080, Note_on_c, 0, 68, 90
2, 40260, Note_off_c, 0, 68, 64
2, 40260, Note_off_c, 0, 77, 64
2, 40290, Note_on_c, 0, 68, 89
2, 40290, Note_on_c, 0, 79, 80
2, 40320, Note_off_c, 0, 79, 64
2, 40320, Note_off_c, 0, 68, 64
2, 40320, Note_on_c, 0, 75, 74
2, 40320, Note_on_c, 0, 67, 93
2, 40440, Note_off_c, 0, 67, 64
2, 40440, Note_off_c, 0, 75, 64
2, 42240, Note_on_c, 0, 67, 42
2, 42240, Note_on_c, 0, 70, 43
2, 43200, Note_off_c, 0, 70, 64
2, 43200, Note_off_c, 0, 67, 64
2, 43200, Note_on_c, 0, 71, 35
2, 43200, Note_on_c, 0, 68, 30
2, 43680, Note_off_c, 0, 68, 64
2, 43680, Note_off_c, 0, 71, 64
2, 43680, Note_on_c, 0, 73, 29
2, 43680, Note_on_c, 0, 70, 40
2, 43920, Note_off_c, 0, 70, 64
2, 43920, Note_off_c, 0, 73, 64
2, 43920, Note_on_c, 0, 68, 34
2, 43920, Note_on_c, 0, 71, 33
2, 44160, Note_off_c, 0, 71, 64
2, 44160, Note_off_c, 0, 68, 64
2, 44160, Note_on_c, 0, 70, 44
2, 44160, Note_on_c, 0, 67, 43
2, 44280, Note_off_c, 0, 67, 64
2, 44280, Note_off_c, 0, 70, 64
2, 57120, Note_on_c, 0, 63, 45
2, 57120, Note_on_c, 0, 70, 42
2, 57600, Note_off_c, 0, 70, 64
2, 57600, Note_off_c, 0, 63, 64
2, 57600, Note_on_c, 0, 72, 40
2, 57600, Note_on_c, 0, 63, 46
2, 58080, Note_off_c, 0, 63, 64
2, 58080, Note_off_c, 0, 72, 64
2, 58080, Note_on_c, 0, 73, 50
2, 58080, Note_on_c, 0, 63, 62
2, 58320, Note_off_c, 0, 63, 64
2, 58320, Note_off_c, 0, 73, 64
2, 58320, Note_on_c, 0, 63, 49
2, 58320, Note_on_c, 0, 70, 63
2, 58560, Note_off_c, 0, 70, 64
2, 58560, Note_off_c, 0, 63, 64
2, 58560, Note_on_c, 0, 75, 44
2, 58560, Note_on_c, 0, 63, 40
2, 58920, Note_off_c, 0, 63, 64
2, 58920, Note_off_c, 0, 75, 64
2, 58920, Note_on_c, 0, 72, 29
2, 58920, Note_on_c, 0, 68, 40
2, 59040, Note_off_c, 0, 68, 64
2, 59040, Note_off_c, 0, 72, 64
2, 59040, Note_on_c, 0, 70, 71
2, 59040, Note_on_c, 0, 67, 50
2, 59220, Note_off_c, 0, 67, 64
2, 59220, Note_off_c, 0, 70, 64
2, 59220, Note_on_c, 0, 72, 53
2, 59220, Note_on_c, 0, 68, 81
2, 59280, Note_off_c, 0, 68, 64
2, 59280, Note_off_c, 0, 72, 64
2, 59280, Note_on_c, 0, 73, 84
2, 59280, Note_on_c, 0, 70, 56
2, 59340, Note_off_c, 0, 70, 64
2, 59340, Note_off_c, 0, 73, 64
2, 59400, Note_on_c, 0, 73, 85
2, 59400, Note_on_c, 0, 70, 81
2, 59460, Note_off_c, 0, 70, 64
2, 59460, Note_off_c, 0, 73, 64
2, 59520, Note_on_c, 0, 71, 86
2, 59520, Note_on_c, 0, 67, 80
2, 59640, Note_off_c, 0, 67, 64
2, 59640, Note_off_c, 0, 71, 64
2, 59640, Note_on_c, 0, 72, 72
2, 59640, Note_on_c, 0, 68, 90
2, 59880, Note_off_c, 0, 68, 64
2, 59880, Note_off_c, 0, 72, 64
2, 59880, Note_on_c, 0, 72, 77
2, 59880, Note_on_c, 0, 68, 86
2, 60000, Note_off_c, 0, 68, 64
2, 60000, Note_off_c, 0, 72, 64
2, 60000, Note_on_c, 0, 74, 105
2, 60000, Note_on_c, 0, 68, 101
2, 60180, Note_off_c, 0, 68, 64
2, 60180, Note_off_c, 0, 74, 64
2, 60210, Note_on_c, 0, 74, 105
2, 60210, Note_on_c, 0, 68, 94
2, 60240, Note_off_c, 0, 68, 64
2, 60240, Note_off_c, 0, 74, 64
2, 60240, Note_on_c, 0, 74, 110
2, 60240, Note_on_c, 0, 68, 101
2, 60420, Note_off_c, 0, 68, 64
2, 60420, Note_off_c, 0, 74, 64
2, 60450, Note_on_c, 0, 68, 99
2, 60450, Note_on_c, 0, 74, 107
2, 60480, Note_off_c, 0, 74, 64
2, 60480, Note_off_c, 0, 68, 64
2, 60480, Note_on_c, 0, 75, 94
2, 60480, Note_on_c, 0, 67, 104
2, 60720, Note_off_c, 0, 67, 64
2, 60720, Note_off_c, 0, 75, 64
2, 60840, Note_on_c, 0, 79, 40
2, 60840, Note_on_c, 0, 67, 45
2, 60960, Note_off_c, 0, 67, 64
2, 60960, Note_off_c, 0, 79, 64
2, 60960, Note_on_c, 0, 80, 38
2, 60960, Note_on_c, 0, 68, 42
2, 61140, Note_off_c, 0, 68, 64
2, 61140, Note_off_c, 0, 80, 64
2, 61170, Note_on_c, 0, 79, 32
2, 61170, Note_on_c, 0, 68, 44
2, 61200, Note_off_c, 0, 68, 64
2, 61200, Note_off_c, 0, 79, 64
2, 61200, Note_on_c, 0, 80, 46
2, 61200, Note_on_c, 0, 68, 44
2, 61380, Note_off_c, 0, 68, 64
2, 61380, Note_off_c, 0, 80, 64
2, 61410, Note_on_c, 0, 68, 45
2, 61410, Note_on_c, 0, 82, 44
2, 61440, Note_off_c, 0, 82, 64
2, 61440, Note_off_c, 0, 68, 64
2, 61440, Note_on_c, 0, 75, 44
2, 61440, Note_on_c, 0, 67, 62
2, 61560, Note_off_c, 0, 67, 64
2, 61560, Note_off_c, 0, 75, 64
2, 70560, Note_on_c, 0, 70, 45
2, 70560, Note_on_c, 0, 75, 42
2, 70740, Note_off_c, 0, 75, 64
2, 70800, Note_on_c, 0, 75, 44
2, 70980, Note_off_c, 0, 75, 64
2, 71040, Note_off_c, 0, 70, 64
2, 71040, Note_on_c, 0, 75, 41
2, 71040, Note_on_c, 0, 72, 58
2, 71400, Note_off_c, 0, 75, 64
2, 71400, Note_on_c, 0, 80, 42
2, 71520, Note_off_c, 0, 80, 64
2, 71520, Note_off_c, 0, 72, 64
2, 71520, Note_on_c, 0, 73, 55
2, 71520, Note_on_c, 0, 80, 52
2, 71640, Note_off_c, 0, 80, 64
2, 71640, Note_on_c, 0, 79, 41
2, 71760, Note_off_c, 0, 79, 64
2, 71760, Note_on_c, 0, 77, 54
2, 71880, Note_off_c, 0, 77, 64
2, 71880, Note_on_c, 0, 79, 43
2, 72000, Note_off_c, 0, 79, 64
2, 72000, Note_off_c, 0, 73, 64
2, 72000, Note_on_c, 0, 80, 53
2, 72000, Note_on_c, 0, 72, 30
2, 72120, Note_off_c, 0, 72, 64
2, 72120, Note_off_c, 0, 80, 64
2, 72720, Note_on_c, 0, 67, 37
2, 72720, Note_on_c, 0, 70, 35
2, 72960, Note_off_c, 0, 70, 64
2, 72960, Note_off_c, 0, 67, 64
2, 73200, Note_on_c, 0, 68, 44
2, 73440, Note_off_c, 0, 68, 64
2, 73680, Note_on_c, 0, 68, 40
2, 73680, Note_on_c, 0, 74, 36
2, 73920, Note_off_c, 0, 74, 64
2, 73920, Note_off_c, 0, 68, 64
2, 74160, Note_on_c, 0, 75, 35
2, 74160, Note_on_c, 0, 67, 57
2, 74400, Note_off_c, 0, 67, 64
2, 74400, Note_off_c, 0, 75, 64
2, 74400, Note_on_c, 0, 74, 45
2, 74400, Note_on_c, 0, 68, 45
2, 74520, Note_off_c, 0, 68, 64
2, 74520, Note_off_c, 0, 74, 64
2, 74880, Note_on_c, 0, 75, 41
2, 74880, Note_on_c, 0, 67, 52
2, 75120, Note_off_c, 0, 67, 64
2, 75120, Note_off_c, 0, 75, 64
2, 75120, Note_on_c, 0, 74, 53
2, 75120, Note_on_c, 0, 68, 50
2, 75240, Note_off_c, 0, 68, 64
2, 75240, Note_off_c, 0, 74, 64
2, 75360, Note_on_c, 0, 75, 53
2, 75360, Note_on_c, 0, 67, 68
2, 75600, Note_off_c, 0, 67, 64
2, 75600, Note_off_c, 0, 75, 64
2, 75600, Note_on_c, 0, 74, 58
2, 75600, Note_on_c, 0, 68, 58
2, 75720, Note_off_c, 0, 68, 64
2, 75720, Note_off_c, 0, 74, 64
2, 75840, Note_on_c, 0, 75, 72
2, 75840, Note_on_c, 0, 67, 77
2, 76320, Note_off_c, 0, 67, 64
2, 76320, Note_off_c, 0, 75, 64
2, 76320, Note_on_c, 0, 74, 72
2, 76320, Note_on_c, 0, 68, 89
2, 76560, Note_off_c, 0, 68, 64
2, 76560, Note_off_c, 0, 74, 64
2, 76560, Note_on_c, 0, 70, 72
2, 76560, Note_on_c, 0, 73, 85
2, 76800, Note_off_c, 0, 73, 64
2, 76800, Note_off_c, 0, 70, 64
2, 76800, Note_on_c, 0, 72, 29
2, 76800, Note_on_c, 0, 63, 50
2, 77040, Note_off_c, 0, 63, 64
2, 77160, Note_off_c, 0, 72, 64
2, 77160, Note_on_c, 0, 70, 53
2, 77220, Note_off_c, 0, 70, 64
2, 77220, Note_on_c, 0, 72, 43
2, 77280, Note_off_c, 0, 72, 64
2, 77280, Note_on_c, 0, 73, 67
2, 77400, Note_off_c, 0, 73, 64
2, 77400, Note_on_c, 0, 72, 46
2, 77520, Note_off_c, 0, 72, 64
2, 77520, Note_on_c, 0, 70, 54
2, 77640, Note_off_c, 0, 70, 64
2, 77640, Note_on_c, 0, 68, 73
2, 77760, Note_off_c, 0, 68, 64
2, 77760, Note_on_c, 0, 76, 53
2, 78000, Note_off_c, 0, 76, 64
2, 78000, Note_on_c, 0, 77, 73
2, 78240, Note_off_c, 0, 77, 64
2, 78240, Note_on_c, 0, 77, 35
2, 78320, Note_off_c, 0, 77, 64
2, 78320, Note_on_c, 0, 80, 70
2, 78400, Note_off_c, 0, 80, 64
2, 78400, Note_on_c, 0, 79, 71
2, 78440, Note_off_c, 0, 79, 64
2, 78440, Note_on_c, 0, 82, 80
2, 78480, Note_off_c, 0, 82, 64
2, 78480, Note_on_c, 0, 80, 84
2, 78560, Note_off_c, 0, 80, 64
2, 78560, Note_on_c, 0, 79, 81
2, 78640, Note_off_c, 0, 79, 64
2, 78640, Note_on_c, 0, 77, 62
2, 78720, Note_off_c, 0, 77, 64
2, 78720, Note_on_c, 0, 75, 80
2, 79200, Note_off_c, 0, 75, 64
2, 79200, Note_on_c, 0, 75, 50
2, 79280, Note_off_c, 0, 75, 64
2, 79280, Note_on_c, 0, 77, 74
2, 79360, Note_off_c, 0, 77, 64
2, 79360, Note_on_c, 0, 75, 86
2, 79440, Note_off_c, 0, 75, 64
2, 79440, Note_on_c, 0, 73, 80
2, 79520, Note_off_c, 0, 73, 64
2, 79520, Note_on_c, 0, 72, 78
2, 79600, Note_off_c, 0, 72, 64
2, 79600, Note_on_c, 0, 70, 86
2, 79680, Note_off_c, 0, 70, 64
2, 79680, Note_on_c, 0, 68, 78
2, 79920, Note_off_c, 0, 68, 64
2, 82560, Note_on_c, 0, 75, 54
2, 82560, Note_on_c, 0, 63, 58
2, 82600, Note_off_c, 0, 63, 64
2, 82600, Note_off_c, 0, 75, 64
2, 82640, Note_on_c, 0, 75, 65
2, 82640, Note_on_c, 0, 63, 73
2, 82680, Note_off_c, 0, 63, 64
2, 82680, Note_off_c, 0, 75, 64
2, 82720, Note_on_c, 0, 75, 57
2, 82720, Note_on_c, 0, 63, 64
2, 82760, Note_off_c, 0, 63, 64
2, 82760, Note_off_c, 0, 75, 64
2, 82800, Note_on_c, 0, 75, 62
2, 82800, Note_on_c, 0, 63, 64
2, 82880, Note_off_c, 0, 63, 64
2, 82880, Note_off_c, 0, 75, 64
2, 82880, Note_on_c, 0, 74, 69
2, 82880, Note_on_c, 0, 63, 64
2, 82960, Note_off_c, 0, 63, 64
2, 82960, Note_off_c, 0, 74, 64
2, 82960, Note_on_c, 0, 73, 59
2, 82960, Note_on_c, 0, 63, 61
2, 83040, Note_off_c, 0, 63, 64
2, 83040, Note_off_c, 0, 73, 64
2, 83040, Note_on_c, 0, 72, 43
2, 83040, Note_on_c, 0, 63, 51
2, 83200, Note_off_c, 0, 63, 64
2, 83280, Note_off_c, 0, 72, 64
2, 83520, Note_on_c, 0, 75, 38
2, 83520, Note_on_c, 0, 67, 58
2, 83560, Note_off_c, 0, 67, 64
2, 83560, Note_off_c, 0, 75, 64
2, 83600, Note_on_c, 0, 75, 40
2, 83600, Note_on_c, 0, 67, 61
2, 83640, Note_off_c, 0, 67, 64
2, 83640, Note_off_c, 0, 75, 64
2, 83680, Note_on_c, 0, 75, 43
2, 83680, Note_on_c, 0, 67, 59
2, 83720, Note_off_c, 0, 67, 64
2, 83720, Note_off_c, 0, 75, 64
2, 83760, Note_on_c, 0, 75, 52
2, 83760, Note_on_c, 0, 67, 72
2, 83840, Note_off_c, 0, 67, 64
2, 83840, Note_off_c, 0, 75, 64
2, 83840, Note_on_c, 0, 74, 44
2, 83840, Note_on_c, 0, 68, 43
2, 83920, Note_off_c, 0, 68, 64
2, 83920, Note_off_c, 0, 74, 64
2, 83920, Note_on_c, 0, 73, 52
2, 83920, Note_on_c, 0, 70, 46
2, 84000, Note_off_c, 0, 70, 64
2, 84000, Note_off_c, 0, 73, 64
2, 84000, Note_on_c, 0, 72, 99
2, 84040, Note_off_c, 0, 72, 64
2, 84080, Note_on_c, 0, 68, 94
2, 84120, Note_off_c, 0, 68, 64
2, 84160, Note_on_c, 0, 68, 101
2, 84200, Note_off_c, 0, 68, 64
2, 84240, Note_on_c, 0, 68, 99
2, 84320, Note_off_c, 0, 68, 64
2, 84320, Note_on_c, 0, 70, 101
2, 84400, Note_off_c, 0, 70, 64
2, 84400, Note_on_c, 0, 72, 89
2, 84480, Note_off_c, 0, 72, 64
2, 84480, Note_on_c, 0, 72, 86
2, 84720, Note_off_c, 0, 72, 64
2, 84720, Note_on_c, 0, 82, 112
2, 84720, Note_on_c, 0, 72, 112
2, 84960, Note_off_c, 0, 72, 64
2, 84960, Note_off_c, 0, 82, 64
2, 85200, Note_on_c, 0, 72, 117
2, 85200, Note_on_c, 0, 80, 123
2, 85440, Note_off_c, 0, 80, 64
2, 85440, Note_off_c, 0, 72, 64
2, 85440, Note_on_c, 0, 80, 125
2, 85440, Note_on_c, 0, 71, 127
2, 85920, Note_off_c, 0, 71, 64
2, 85920, Note_on_c, 0, 72, 99
2, 86160, Note_off_c, 0, 72, 64
2, 86160, Note_off_c, 0, 80, 64
2, 86160, Note_on_c, 0, 70, 105
2, 86160, Note_on_c, 0, 79, 107
2, 86400, Note_off_c, 0, 79, 64
2, 86400, Note_off_c, 0, 70, 64
2, 86400, Note_on_c, 0, 80, 104
2, 86400, Note_on_c, 0, 72, 98
2, 86640, Note_off_c, 0, 72, 64
2, 86640, Note_off_c, 0, 80, 64
2, 88400, Note_on_c, 0, 75, 43
2, 88440, Note_off_c, 0, 75, 64
2, 88480, Note_on_c, 0, 75, 38
2, 88520, Note_off_c, 0, 75, 64
2, 88560, Note_on_c, 0, 75, 38
2, 88600, Note_off_c, 0, 75, 64
2, 88640, Note_on_c, 0, 75, 43
2, 88680, Note_off_c, 0, 75, 64
2, 88720, Note_on_c, 0, 75, 40
2, 88760, Note_off_c, 0, 75, 64
2, 88800, Note_on_c, 0, 75, 62
2, 89280, Note_off_c, 0, 75, 64
2, 89280, Note_on_c, 0, 75, 50
2, 89280, Note_on_c, 0, 63, 42
2, 89320, Note_off_c, 0, 63, 64
2, 89320, Note_off_c, 0, 75, 64
2, 89360, Note_on_c, 0, 75, 43
2, 89360, Note_on_c, 0, 63, 43
2, 89400, Note_off_c, 0, 63, 64
2, 89400, Note_off_c, 0, 75, 64
2, 89440, Note_on_c, 0, 75, 42
2, 89440, Note_on_c, 0, 63, 41
2, 89480, Note_off_c, 0, 63, 64
2, 89480, Note_off_c, 0, 75, 64
2, 89520, Note_on_c, 0, 75, 45
2, 89520, Note_on_c, 0, 63, 43
2, 89560, Note_off_c, 0, 63, 64
2, 89560, Note_off_c, 0, 75, 64
2, 89600, Note_on_c, 0, 74, 46
2, 89600, Note_on_c, 0, 63, 43
2, 89640, Note_off_c, 0, 63, 64
2, 89640, Note_off_c, 0, 74, 64
2, 89680, Note_on_c, 0, 73, 38
2, 89680, Note_on_c, 0, 63, 39
2, 89720, Note_off_c, 0, 63, 64
2, 89720, Note_off_c, 0, 73, 64
2, 89760, Note_on_c, 0, 72, 41
2, 89760, Note_on_c, 0, 63, 38
2, 89920, Note_off_c, 0, 63, 64
2, 89920, Note_off_c, 0, 72, 64
2, 90240, Note_on_c, 0, 75, 44
2, 90240, Note_on_c, 0, 67, 43
2, 90280, Note_off_c, 0, 67, 64
2, 90280, Note_off_c, 0, 75, 64
2, 90320, Note_on_c, 0, 75, 39
2, 90320, Note_on_c, 0, 67, 38
2, 90360, Note_off_c, 0, 67, 64
2, 90360, Note_off_c, 0, 75, 64
2, 90400, Note_on_c, 0, 75, 43
2, 90400, Note_on_c, 0, 67, 57
2, 90440, Note_off_c, 0, 67, 64
2, 90440, Note_off_c, 0, 75, 64
2, 90480, Note_on_c, 0, 75, 43
2, 90480, Note_on_c, 0, 67, 61
2, 90520, Note_off_c, 0, 67, 64
2, 90520, Note_off_c, 0, 75, 64
2, 90560, Note_on_c, 0, 77, 42
2, 90560, Note_on_c, 0, 68, 65
2, 90600, Note_off_c, 0, 68, 64
2, 90600, Note_off_c, 0, 77, 64
2, 90640, Note_on_c, 0, 79, 38
2, 90640, Note_on_c, 0, 70, 42
2, 90680, Note_off_c, 0, 70, 64
2, 90680, Note_off_c, 0, 79, 64
2, 90720, Note_on_c, 0, 80, 37
2, 90720, Note_on_c, 0, 72, 29
2, 90960, Note_off_c, 0, 72, 64
2, 90960, Note_off_c, 0, 80, 64
2, 95760, Note_on_c, 0, 80, 50
2, 95940, Note_off_c, 0, 80, 64
2, 95970, Note_on_c, 0, 80, 61
2, 96000, Note_off_c, 0, 80, 64
2, 96000, Note_on_c, 0, 76, 54
2, 96240, Note_off_c, 0, 76, 64
2, 96240, Note_on_c, 0, 77, 63
2, 96360, Note_off_c, 0, 77, 64
2, 96720, Note_on_c, 0, 80, 64
2, 96900, Note_off_c, 0, 80, 64
2, 96930, Note_on_c, 0, 80, 71
2, 96960, Note_off_c, 0, 80, 64
2, 96960, Note_on_c, 0, 80, 65
2, 97200, Note_off_c, 0, 80, 64
2, 97200, Note_on_c, 0, 75, 54
2, 97320, Note_off_c, 0, 75, 64
2, 98160, Note_on_c, 0, 80, 53
2, 98340, Note_off_c, 0, 80, 64
2, 98370, Note_on_c, 0, 80, 73
2, 98400, Note_off_c, 0, 80, 64
2, 98400, Note_on_c, 0, 84, 68
2, 98640, Note_off_c, 0, 84, 64
2, 98640, Note_on_c, 0, 80, 55
2, 98760, Note_off_c, 0, 80, 64
2, 99120, Note_on_c, 0, 77, 44
2, 99300, Note_off_c, 0, 77, 64
2, 99330, Note_on_c, 0, 77, 66
2, 99360, Note_off_c, 0, 77, 64
2, 99360, Note_on_c, 0, 80, 72
2, 99680, Note_on_c, 0, 77, 82
2, 99720, Note_off_c, 0, 80, 64
2, 99760, Note_off_c, 0, 77, 64
2, 99760, Note_on_c, 0, 77, 93
2, 99840, Note_off_c, 0, 77, 64
2, 99840, Note_on_c, 0, 80, 80
2, 99840, Note_on_c, 0, 71, 104
2, 100080, Note_off_c, 0, 71, 64
2, 100080, Note_off_c, 0, 80, 64
2, 100080, Note_on_c, 0, 80, 43
2, 100080, Note_on_c, 0, 71, 81
2, 100160, Note_off_c, 0, 71, 64
2, 100160, Note_off_c, 0, 80, 64
2, 100160, Note_on_c, 0, 80, 72
2, 100160, Note_on_c, 0, 71, 95
2, 100240, Note_off_c, 0, 71, 64
2, 100240, Note_off_c, 0, 80, 64
2, 100240, Note_on_c, 0, 80, 73
2, 100240, Note_on_c, 0, 71, 94
2, 100320, Note_off_c, 0, 71, 64
2, 100320, Note_off_c, 0, 80, 64
2, 100320, Note_on_c, 0, 80, 89
2, 100320, Note_on_c, 0, 71, 112
2, 100560, Note_off_c, 0, 71, 64
2, 100560, Note_off_c, 0, 80, 64
2, 100560, Note_on_c, 0, 80, 68
2, 100560, Note_on_c, 0, 71, 85
2, 100640, Note_off_c, 0, 71, 64
2, 100640, Note_off_c, 0, 80, 64
2, 100640, Note_on_c, 0, 80, 72
2, 100640, Note_on_c, 0, 71, 94
2, 100720, Note_off_c, 0, 71, 64
2, 100720, Note_off_c, 0, 80, 64
2, 100720, Note_on_c, 0, 71, 104
2, 100720, Note_on_c, 0, 80, 76
2, 100800, Note_off_c, 0, 80, 64
2, 100800, Note_off_c, 0, 71, 64
2, 100800, Note_on_c, 0, 80, 80
2, 100800, Note_on_c, 0, 72, 84
2, 101040, Note_off_c, 0, 72, 64
2, 101040, Note_off_c, 0, 80, 64
2, 102720, Note_on_c, 0, 73, 52
2, 102720, Note_on_c, 0, 70, 45
2, 103200, Note_off_c, 0, 70, 64
2, 103200, Note_off_c, 0, 73, 64
2, 103200, Note_on_c, 0, 72, 44
2, 103200, Note_on_c, 0, 68, 76
2, 103440, Note_off_c, 0, 68, 64
2, 103440, Note_off_c, 0, 72, 64
2, 103440, Note_on_c, 0, 67, 76
2, 103440, Note_on_c, 0, 70, 90
2, 103680, Note_off_c, 0, 70, 64
2, 103680, Note_off_c, 0, 67, 64
2, 103680, Note_on_c, 0, 68, 63
2, 103680, Note_on_c, 0, 65, 46
2, 103800, Note_off_c, 0, 65, 64
2, 103800, Note_off_c, 0, 68, 64
2, 103800, Note_on_c, 0, 69, 57
2, 103920, Note_off_c, 0, 69, 64
2, 103920, Note_on_c, 0, 70, 59
2, 104040, Note_off_c, 0, 70, 64
2, 104040, Note_on_c, 0, 77, 64
2, 104160, Note_off_c, 0, 77, 64
2, 104160, Note_on_c, 0, 72, 33
2, 104400, Note_off_c, 0, 72, 64
2, 104400, Note_on_c, 0, 73, 38
2, 104640, Note_off_c, 0, 73, 64
2, 104640, Note_on_c, 0, 72, 43
2, 105120, Note_off_c, 0, 72, 64
2, 105120, Note_on_c, 0, 73, 61
2, 105240, Note_off_c, 0, 73, 64
2, 105240, Note_on_c, 0, 72, 58
2, 105360, Note_off_c, 0, 72, 64
2, 105360, Note_on_c, 0, 70, 69
2, 105480, Note_off_c, 0, 70, 64
2, 105480, Note_on_c, 0, 68, 62
2, 105600, Note_off_c, 0, 68, 64
2, 105600, Note_on_c, 0, 73, 54
2, 105960, Note_off_c, 0, 73, 64
2, 106020, Note_on_c, 0, 70, 67
2, 106080, Note_off_c, 0, 70, 64
2, 106080, Note_on_c, 0, 67, 68
2, 106320, Note_off_c, 0, 67, 64
2, 106560, Note_on_c, 0, 72, 50
2, 107040, Note_off_c, 0, 72, 64
2, 107040, Note_on_c, 0, 72, 29
2, 107100, Note_off_c, 0, 72, 64
2, 107100, Note_on_c, 0, 73, 57
2, 107160, Note_off_c, 0, 73, 64
2, 107160, Note_on_c, 0, 77, 44
2, 107220, Note_off_c, 0, 77, 64
2, 107220, Note_on_c, 0, 75, 68
2, 107280, Note_off_c, 0, 75, 64
2, 107280, Note_on_c, 0, 73, 68
2, 107340, Note_off_c, 0, 73, 64
2, 107340, Note_on_c, 0, 72, 65
2, 107400, Note_off_c, 0, 72, 64
2, 107400, Note_on_c, 0, 70, 63
2, 107460, Note_off_c, 0, 70, 64
2, 107460, Note_on_c, 0, 68, 62
2, 107520, Note_off_c, 0, 68, 64
2, 107520, Note_on_c, 0, 73, 52
2, 107760, Note_off_c, 0, 73, 64
2, 107760, Note_on_c, 0, 73, 43
2, 107820, Note_off_c, 0, 73, 64
2, 107820, Note_on_c, 0, 72, 29
2, 107880, Note_off_c, 0, 72, 64
2, 107880, Note_on_c, 0, 73, 65
2, 107940, Note_off_c, 0, 73, 64
2, 107940, Note_on_c, 0, 70, 58
2, 108000, Note_off_c, 0, 70, 64
2, 108000, Note_on_c, 0, 67, 60
2, 108240, Note_off_c, 0, 67, 64
2, 108960, Note_on_c, 0, 67, 35
2, 108960, Note_on_c, 0, 75, 55
2, 109020, Note_off_c, 0, 75, 64
2, 109080, Note_on_c, 0, 73, 53
2, 109140, Note_off_c, 0, 73, 64
2, 109200, Note_on_c, 0, 72, 43
2, 109260, Note_off_c, 0, 72, 64
2, 109320, Note_on_c, 0, 70, 62
2, 109380, Note_off_c, 0, 70, 64
2, 109440, Note_off_c, 0, 67, 64
2, 109440, Note_on_c, 0, 68, 52
2, 109560, Note_off_c, 0, 68, 64
2, 112800, Note_on_c, 0, 80, 29
2, 112800, Note_on_c, 0, 75, 29
2, 113040, Note_off_c, 0, 75, 64
2, 113040, Note_off_c, 0, 80, 64
2, 113040, Note_on_c, 0, 75, 39
2, 113040, Note_on_c, 0, 80, 29
2, 113280, Note_off_c, 0, 80, 64
2, 113280, Note_off_c, 0, 75, 64
2, 113280, Note_on_c, 0, 72, 29
2, 113280, Note_on_c, 0, 80, 31
2, 114240, Note_off_c, 0, 80, 64
2, 114240, Note_off_c, 0, 72, 64
2, 114240, End_track
3, 0, Start_track
3, 0, Title_t, "Bassoons"
3, 0, Program_c, 1, 70
3, 0, Control_c, 1, 7, 100
3, 0, Control_c, 1, 10, 94
3, 0, Control_c, 1, 93, 0
3, 0, Control_c, 1, 91, 66
3, 7200, Note_on_c, 1, 55, 43
3, 7200, Note_on_c, 1, 58, 44
3, 7680, Note_off_c, 1, 58, 64
3, 7680, Note_off_c, 1, 55, 64
3, 7680, Note_on_c, 1, 60, 41
3, 7680, Note_on_c, 1, 56, 50
3, 8160, Note_off_c, 1, 56, 64
3, 8160, Note_off_c, 1, 60, 64
3, 8160, Note_on_c, 1, 61, 41
3, 8160, Note_on_c, 1, 58, 42
3, 8400, Note_off_c, 1, 58, 64
3, 8400, Note_off_c, 1, 61, 64
3, 8400, Note_on_c, 1, 55, 29
3, 8400, Note_on_c, 1, 58, 42
3, 8640, Note_off_c, 1, 58, 64
3, 8640, Note_off_c, 1, 55, 64
3, 8640, Note_on_c, 1, 63, 45
3, 8640, Note_on_c, 1, 60, 43
3, 9000, Note_off_c, 1, 60, 64
3, 9000, Note_off_c, 1, 63, 64
3, 9000, Note_on_c, 1, 60, 43
3, 9000, Note_on_c, 1, 56, 45
3, 9120, Note_off_c, 1, 56, 64
3, 9120, Note_off_c, 1, 60, 64
3, 9120, Note_on_c, 1, 58, 71
3, 9120, Note_on_c, 1, 55, 62
3, 9300, Note_off_c, 1, 55, 64
3, 9300, Note_off_c, 1, 58, 64
3, 9300, Note_on_c, 1, 60, 66
3, 9300, Note_on_c, 1, 56, 73
3, 9360, Note_off_c, 1, 56, 64
3, 9360, Note_off_c, 1, 60, 64
3, 9360, Note_on_c, 1, 61, 81
3, 9360, Note_on_c, 1, 58, 68
3, 9420, Note_off_c, 1, 58, 64
3, 9420, Note_off_c, 1, 61, 64
3, 9480, Note_on_c, 1, 61, 85
3, 9480, Note_on_c, 1, 58, 86
3, 9540, Note_off_c, 1, 58, 64
3, 9540, Note_off_c, 1, 61, 64
3, 9600, Note_on_c, 1, 59, 85
3, 9600, Note_on_c, 1, 55, 76
3, 9720, Note_off_c, 1, 55, 64
3, 9720, Note_off_c, 1, 59, 64
3, 9720, Note_on_c, 1, 60, 82
3, 9720, Note_on_c, 1, 56, 86
3, 9960, Note_off_c, 1, 56, 64
3, 9960, Note_off_c, 1, 60, 64
3, 9960, Note_on_c, 1, 60, 89
3, 9960, Note_on_c, 1, 56, 94
3, 10080, Note_off_c, 1, 56, 64
3, 10080, Note_off_c, 1, 60, 64
3, 10080, Note_on_c, 1, 62, 94
3, 10080, Note_on_c, 1, 53, 98
3, 10260, Note_off_c, 1, 53, 64
3, 10260, Note_off_c, 1, 62, 64
3, 10290, Note_on_c, 1, 62, 98
3, 10290, Note_on_c, 1, 53, 99
3, 10320, Note_off_c, 1, 53, 64
3, 10320, Note_off_c, 1, 62, 64
3, 10320, Note_on_c, 1, 62, 98
3, 10320, Note_on_c, 1, 53, 95
3, 10500, Note_off_c, 1, 53, 64
3, 10500, Note_off_c, 1, 62, 64
3, 10530, Note_on_c, 1, 53, 99
3, 10530, Note_on_c, 1, 62, 104
3, 10560, Note_off_c, 1, 62, 64
3, 10560, Note_off_c, 1, 53, 64
3, 10560, Note_on_c, 1, 63, 93
3, 10560, Note_on_c, 1, 51, 95
3, 10800, Note_off_c, 1, 51, 64
3, 10800, Note_off_c, 1, 63, 64
3, 10920, Note_on_c, 1, 63, 33
3, 10920, Note_on_c, 1, 51, 40
3, 11040, Note_off_c, 1, 51, 64
3, 11040, Note_off_c, 1, 63, 64
3, 11040, Note_on_c, 1, 62, 36
3, 11040, Note_on_c, 1, 53, 40
3, 11220, Note_off_c, 1, 53, 64
3, 11220, Note_off_c, 1, 62, 64
3, 11250, Note_on_c, 1, 62, 41
3, 11250, Note_on_c, 1, 53, 50
3, 11280, Note_off_c, 1, 53, 64
3, 11280, Note_off_c, 1, 62, 64
3, 11280, Note_on_c, 1, 62, 43
3, 11280, Note_on_c, 1, 53, 45
3, 11460, Note_off_c, 1, 53, 64
3, 11460, Note_off_c, 1, 62, 64
3, 11490, Note_on_c, 1, 53, 43
3, 11490, Note_on_c, 1, 62, 43
3, 11520, Note_off_c, 1, 62, 64
3, 11520, Note_off_c, 1, 53, 64
3, 11520, Note_on_c, 1, 63, 57
3, 11520, Note_on_c, 1, 51, 43
3, 11640, Note_off_c, 1, 51, 64
3, 11640, Note_off_c, 1, 63, 64
3, 12210, Note_on_c, 1, 63, 40
3, 12210, Note_on_c, 1, 51, 50
3, 12240, Note_off_c, 1, 51, 64
3, 12240, Note_off_c, 1, 63, 64
3, 12240, Note_on_c, 1, 58, 40
3, 12240, Note_on_c, 1, 46, 43
3, 12420, Note_off_c, 1, 46, 64
3, 12420, Note_off_c, 1, 58, 64
3, 12450, Note_on_c, 1, 46, 57
3, 12450, Note_on_c, 1, 58, 42
3, 12480, Note_off_c, 1, 58, 64
3, 12480, Note_off_c, 1, 46, 64
3, 12480, Note_on_c, 1, 63, 40
3, 12480, Note_on_c, 1, 51, 45
3, 12720, Note_off_c, 1, 63, 64
3, 12720, Note_on_c, 1, 55, 47
3, 12960, Note_off_c, 1, 55, 64
3, 12960, Note_off_c, 1, 51, 64
3, 12960, Note_on_c, 1, 56, 72
3, 12960, Note_on_c, 1, 53, 68
3, 13200, Note_off_c, 1, 53, 64
3, 13200, Note_off_c, 1, 56, 64
3, 13200, Note_on_c, 1, 55, 82
3, 13200, Note_on_c, 1, 58, 45
3, 13440, Note_off_c, 1, 58, 64
3, 13440, Note_off_c, 1, 55, 64
3, 13440, Note_on_c, 1, 60, 38
3, 13440, Note_on_c, 1, 56, 40
3, 14160, Note_off_c, 1, 56, 64
3, 14160, Note_off_c, 1, 60, 64
3, 14160, Note_on_c, 1, 60, 38
3, 14160, Note_on_c, 1, 56, 38
3, 14400, Note_off_c, 1, 56, 64
3, 14400, Note_off_c, 1, 60, 64
3, 14400, Note_on_c, 1, 61, 58
3, 14400, Note_on_c, 1, 58, 50
3, 15120, Note_off_c, 1, 58, 64
3, 15120, Note_off_c, 1, 61, 64
3, 15120, Note_on_c, 1, 63, 84
3, 15120, Note_on_c, 1, 60, 89
3, 15360, Note_off_c, 1, 60, 64
3, 15360, Note_off_c, 1, 63, 64
3, 15360, Note_on_c, 1, 65, 40
3, 15360, Note_on_c, 1, 61, 61
3, 15720, Note_off_c, 1, 61, 64
3, 15720, Note_off_c, 1, 65, 64
3, 15720, Note_on_c, 1, 61, 43
3, 15720, Note_on_c, 1, 58, 49
3, 15840, Note_off_c, 1, 58, 64
3, 15840, Note_off_c, 1, 61, 64
3, 15840, Note_on_c, 1, 60, 40
3, 15840, Note_on_c, 1, 51, 56
3, 16080, Note_off_c, 1, 51, 64
3, 16080, Note_off_c, 1, 60, 64
3, 16080, Note_on_c, 1, 61, 40
3, 16080, Note_on_c, 1, 51, 57
3, 16320, Note_off_c, 1, 51, 64
3, 16320, Note_off_c, 1, 61, 64
3, 16320, Note_on_c, 1, 61, 42
3, 16320, Note_on_c, 1, 56, 50
3, 16560, Note_off_c, 1, 56, 64
3, 16560, Note_on_c, 1, 51, 54
3, 16800, Note_off_c, 1, 51, 64
3, 16800, Note_off_c, 1, 61, 64
3, 16800, Note_on_c, 1, 60, 32
3, 16800, Note_on_c, 1, 44, 52
3, 16920, Note_off_c, 1, 44, 64
3, 16920, Note_off_c, 1, 60, 64
3, 17400, Note_on_c, 1, 58, 29
3, 17400, Note_on_c, 1, 55, 29
3, 17460, Note_off_c, 1, 55, 64
3, 17460, Note_off_c, 1, 58, 64
3, 17520, Note_on_c, 1, 58, 29
3, 17520, Note_on_c, 1, 55, 36
3, 17580, Note_off_c, 1, 55, 64
3, 17580, Note_off_c, 1, 58, 64
3, 17640, Note_on_c, 1, 58, 29
3, 17640, Note_on_c, 1, 55, 42
3, 17700, Note_off_c, 1, 55, 64
3, 17700, Note_off_c, 1, 58, 64
3, 17880, Note_on_c, 1, 58, 29
3, 17880, Note_on_c, 1, 55, 35
3, 17940, Note_off_c, 1, 55, 64
3, 17940, Note_off_c, 1, 58, 64
3, 18000, Note_on_c, 1, 58, 29
3, 18000, Note_on_c, 1, 55, 40
3, 18060, Note_off_c, 1, 55, 64
3, 18060, Note_off_c, 1, 58, 64
3, 18120, Note_on_c, 1, 58, 30
3, 18120, Note_on_c, 1, 55, 37
3, 18180, Note_off_c, 1, 55, 64
3, 18180, Note_off_c, 1, 58, 64
3, 18240, Note_on_c, 1, 60, 33
3, 18240, Note_on_c, 1, 56, 35
3, 18480, Note_off_c, 1, 56, 64
3, 18480, Note_off_c, 1, 60, 64
3, 19320, Note_on_c, 1, 55, 29
3, 19320, Note_on_c, 1, 52, 32
3, 19380, Note_off_c, 1, 52, 64
3, 19380, Note_off_c, 1, 55, 64
3, 19440, Note_on_c, 1, 55, 32
3, 19440, Note_on_c, 1, 52, 32
3, 19500, Note_off_c, 1, 52, 64
3, 19500, Note_off_c, 1, 55, 64
3, 19560, Note_on_c, 1, 55, 35
3, 19560, Note_on_c, 1, 52, 36
3, 19620, Note_off_c, 1, 52, 64
3, 19620, Note_off_c, 1, 55, 64
3, 19800, Note_on_c, 1, 55, 37
3, 19800, Note_on_c, 1, 52, 36
3, 19860, Note_off_c, 1, 52, 64
3, 19860, Note_off_c, 1, 55, 64
3, 19920, Note_on_c, 1, 55, 31
3, 19920, Note_on_c, 1, 52, 31
3, 19980, Note_off_c, 1, 52, 64
3, 19980, Note_off_c, 1, 55, 64
3, 20040, Note_on_c, 1, 55, 32
3, 20040, Note_on_c, 1, 52, 38
3, 20100, Note_off_c, 1, 52, 64
3, 20100, Note_off_c, 1, 55, 64
3, 20160, Note_on_c, 1, 56, 29
3, 20160, Note_on_c, 1, 53, 35
3, 20400, Note_off_c, 1, 53, 64
3, 20400, Note_off_c, 1, 56, 64
3, 21240, Note_on_c, 1, 58, 40
3, 21300, Note_off_c, 1, 58, 64
3, 21360, Note_on_c, 1, 58, 31
3, 21420, Note_off_c, 1, 58, 64
3, 21480, Note_on_c, 1, 58, 43
3, 21540, Note_off_c, 1, 58, 64
3, 21720, Note_on_c, 1, 65, 38
3, 21720, Note_on_c, 1, 58, 29
3, 21780, Note_off_c, 1, 58, 64
3, 21780, Note_off_c, 1, 65, 64
3, 21840, Note_on_c, 1, 65, 35
3, 21840, Note_on_c, 1, 58, 36
3, 21900, Note_off_c, 1, 58, 64
3, 21900, Note_off_c, 1, 65, 64
3, 21960, Note_on_c, 1, 65, 38
3, 21960, Note_on_c, 1, 58, 40
3, 22020, Note_off_c, 1, 58, 64
3, 22020, Note_off_c, 1, 65, 64
3, 22200, Note_on_c, 1, 63, 36
3, 22200, Note_on_c, 1, 58, 43
3, 22260, Note_off_c, 1, 58, 64
3, 22260, Note_off_c, 1, 63, 64
3, 22320, Note_on_c, 1, 63, 33
3, 22320, Note_on_c, 1, 58, 41
3, 22380, Note_off_c, 1, 58, 64
3, 22380, Note_off_c, 1, 63, 64
3, 22440, Note_on_c, 1, 63, 36
3, 22440, Note_on_c, 1, 58, 41
3, 22500, Note_off_c, 1, 58, 64
3, 22500, Note_off_c, 1, 63, 64
3, 22560, Note_on_c, 1, 60, 43
3, 22560, Note_on_c, 1, 63, 40
3, 23040, Note_off_c, 1, 63, 64
3, 23040, Note_off_c, 1, 60, 64
3, 23040, Note_on_c, 1, 65, 43
3, 23040, Note_on_c, 1, 58, 43
3, 23160, Note_off_c, 1, 58, 64
3, 23160, Note_off_c, 1, 65, 64
3, 24480, Note_on_c, 1, 58, 71
3, 24840, Note_off_c, 1, 58, 64
3, 24840, Note_on_c, 1, 57, 43
3, 24960, Note_off_c, 1, 57, 64
3, 24960, Note_on_c, 1, 58, 125
3, 25080, Note_off_c, 1, 58, 64
3, 25080, Note_on_c, 1, 58, 101
3, 25080, Note_on_c, 1, 46, 105
3, 25140, Note_off_c, 1, 46, 64
3, 25140, Note_off_c, 1, 58, 64
3, 25200, Note_on_c, 1, 58, 107
3, 25200, Note_on_c, 1, 46, 107
3, 25260, Note_off_c, 1, 46, 64
3, 25260, Note_off_c, 1, 58, 64
3, 25320, Note_on_c, 1, 58, 112
3, 25320, Note_on_c, 1, 46, 115
3, 25380, Note_off_c, 1, 46, 64
3, 25380, Note_off_c, 1, 58, 64
3, 25440, Note_on_c, 1, 58, 104
3, 25440, Note_on_c, 1, 46, 105
3, 25560, Note_off_c, 1, 46, 64
3, 25560, Note_off_c, 1, 58, 64
3, 25560, Note_on_c, 1, 62, 99
3, 25560, Note_on_c, 1, 56, 99
3, 25680, Note_off_c, 1, 56, 64
3, 25680, Note_off_c, 1, 62, 64
3, 25680, Note_on_c, 1, 63, 99
3, 25680, Note_on_c, 1, 54, 98
3, 25800, Note_off_c, 1, 54, 64
3, 25800, Note_off_c, 1, 63, 64
3, 25800, Note_on_c, 1, 63, 125
3, 25800, Note_on_c, 1, 66, 125
3, 25920, Note_off_c, 1, 66, 64
3, 25920, Note_off_c, 1, 63, 64
3, 25920, Note_on_c, 1, 65, 105
3, 25920, Note_on_c, 1, 62, 105
3, 26040, Note_off_c, 1, 62, 64
3, 26040, Note_off_c, 1, 65, 64
3, 26040, Note_on_c, 1, 62, 104
3, 26040, Note_on_c, 1, 56, 99
3, 26160, Note_off_c, 1, 56, 64
3, 26160, Note_off_c, 1, 62, 64
3, 26160, Note_on_c, 1, 63, 95
3, 26160, Note_on_c, 1, 54, 99
3, 26280, Note_off_c, 1, 54, 64
3, 26280, Note_off_c, 1, 63, 64
3, 26280, Note_on_c, 1, 66, 119
3, 26280, Note_on_c, 1, 63, 119
3, 26400, Note_off_c, 1, 63, 64
3, 26400, Note_off_c, 1, 66, 64
3, 26400, Note_on_c, 1, 65, 98
3, 26400, Note_on_c, 1, 62, 99
3, 26520, Note_off_c, 1, 62, 64
3, 26520, Note_off_c, 1, 65, 64
3, 26520, Note_on_c, 1, 62, 104
3, 26520, Note_on_c, 1, 56, 98
3, 26640, Note_off_c, 1, 56, 64
3, 26640, Note_off_c, 1, 62, 64
3, 26640, Note_on_c, 1, 63, 94
3, 26640, Note_on_c, 1, 54, 99
3, 26760, Note_off_c, 1, 54, 64
3, 26760, Note_off_c, 1, 63, 64
3, 26760, Note_on_c, 1, 63, 119
3, 26760, Note_on_c, 1, 66, 119
3, 26880, Note_off_c, 1, 66, 64
3, 26880, Note_off_c, 1, 63, 64
3, 26880, Note_on_c, 1, 65, 54
3, 26880, Note_on_c, 1, 62, 46
3, 27000, Note_off_c, 1, 62, 64
3, 27000, Note_off_c, 1, 65, 64
3, 27000, Note_on_c, 1, 67, 52
3, 27000, Note_on_c, 1, 63, 61
3, 27120, Note_off_c, 1, 63, 64
3, 27120, Note_off_c, 1, 67, 64
3, 27120, Note_on_c, 1, 65, 47
3, 27120, Note_on_c, 1, 62, 49
3, 27240, Note_off_c, 1, 62, 64
3, 27240, Note_off_c, 1, 65, 64
3, 27240, Note_on_c, 1, 63, 61
3, 27240, Note_on_c, 1, 60, 46
3, 27360, Note_off_c, 1, 60, 64
3, 27360, Note_off_c, 1, 63, 64
3, 27360, Note_on_c, 1, 62, 62
3, 27360, Note_on_c, 1, 58, 67
3, 27480, Note_off_c, 1, 58, 64
3, 27480, Note_off_c, 1, 62, 64
3, 27480, Note_on_c, 1, 60, 57
3, 27480, Note_on_c, 1, 56, 53
3, 27600, Note_off_c, 1, 56, 64
3, 27600, Note_off_c, 1, 60, 64
3, 27600, Note_on_c, 1, 58, 47
3, 27600, Note_on_c, 1, 55, 60
3, 27720, Note_off_c, 1, 55, 64
3, 27720, Note_off_c, 1, 58, 64
3, 27720, Note_on_c, 1, 53, 69
3, 27720, Note_on_c, 1, 56, 48
3, 27840, Note_off_c, 1, 56, 64
3, 27840, Note_off_c, 1, 53, 64
3, 27840, Note_on_c, 1, 55, 50
3, 27840, Note_on_c, 1, 51, 48
3, 28080, Note_off_c, 1, 51, 64
3, 28080, Note_off_c, 1, 55, 64
3, 28440, Note_on_c, 1, 51, 50
3, 28530, Note_off_c, 1, 51, 64
3, 28560, Note_on_c, 1, 51, 61
3, 28650, Note_off_c, 1, 51, 64
3, 28680, Note_on_c, 1, 51, 66
3, 28770, Note_off_c, 1, 51, 64
3, 28800, Note_on_c, 1, 50, 63
3, 29040, Note_off_c, 1, 50, 64
3, 29400, Note_on_c, 1, 50, 63
3, 29490, Note_off_c, 1, 50, 64
3, 29520, Note_on_c, 1, 50, 46
3, 29610, Note_off_c, 1, 50, 64
3, 29640, Note_on_c, 1, 50, 72
3, 29730, Note_off_c, 1, 50, 64
3, 29760, Note_on_c, 1, 51, 60
3, 30000, Note_off_c, 1, 51, 64
3, 30240, Note_on_c, 1, 51, 56
3, 30330, Note_off_c, 1, 51, 64
3, 30360, Note_on_c, 1, 51, 58
3, 30450, Note_off_c, 1, 51, 64
3, 30480, Note_on_c, 1, 51, 58
3, 30570, Note_off_c, 1, 51, 64
3, 30600, Note_on_c, 1, 51, 74
3, 30690, Note_off_c, 1, 51, 64
3, 30720, Note_on_c, 1, 50, 62
3, 30960, Note_off_c, 1, 50, 64
3, 31200, Note_on_c, 1, 50, 61
3, 31290, Note_off_c, 1, 50, 64
3, 31320, Note_on_c, 1, 50, 63
3, 31410, Note_off_c, 1, 50, 64
3, 31440, Note_on_c, 1, 50, 72
3, 31530, Note_off_c, 1, 50, 64
3, 31560, Note_on_c, 1, 50, 66
3, 31650, Note_off_c, 1, 50, 64
3, 31680, Note_on_c, 1, 51, 61
3, 31920, Note_off_c, 1, 51, 64
3, 31920, Note_on_c, 1, 58, 29
3, 31920, Note_on_c, 1, 55, 30
3, 32160, Note_off_c, 1, 55, 64
3, 32160, Note_off_c, 1, 58, 64
3, 32400, Note_on_c, 1, 55, 35
3, 32400, Note_on_c, 1, 58, 29
3, 32640, Note_off_c, 1, 58, 64
3, 32640, Note_off_c, 1, 55, 64
3, 32880, Note_on_c, 1, 60, 29
3, 32880, Note_on_c, 1, 56, 29
3, 33120, Note_off_c, 1, 56, 64
3, 33120, Note_off_c, 1, 60, 64
3, 33360, Note_on_c, 1, 57, 36
3, 33360, Note_on_c, 1, 60, 30
3, 33600, Note_off_c, 1, 60, 64
3, 33600, Note_off_c, 1, 57, 64
3, 33840, Note_on_c, 1, 58, 46
3, 34080, Note_off_c, 1, 58, 64
3, 34320, Note_on_c, 1, 58, 38
3, 34320, Note_on_c, 1, 65, 38
3, 34560, Note_off_c, 1, 65, 64
3, 34560, Note_off_c, 1, 58, 64
3, 34680, Note_on_c, 1, 63, 43
3, 34680, Note_on_c, 1, 46, 44
3, 34740, Note_off_c, 1, 46, 64
3, 34740, Note_off_c, 1, 63, 64
3, 34800, Note_on_c, 1, 63, 86
3, 34800, Note_on_c, 1, 58, 89
3, 35280, Note_off_c, 1, 58, 64
3, 35280, Note_off_c, 1, 63, 64
3, 35280, Note_on_c, 1, 56, 115
3, 35280, Note_on_c, 1, 62, 107
3, 35520, Note_off_c, 1, 62, 64
3, 35520, Note_off_c, 1, 56, 64
3, 35520, Note_on_c, 1, 55, 40
3, 35520, Note_on_c, 1, 58, 37
3, 36240, Note_off_c, 1, 58, 64
3, 36240, Note_on_c, 1, 59, 36
3, 36480, Note_off_c, 1, 59, 64
3, 36480, Note_off_c, 1, 55, 64
3, 36480, Note_on_c, 1, 60, 53
3, 36480, Note_on_c, 1, 56, 44
3, 37200, Note_off_c, 1, 56, 64
3, 37200, Note_on_c, 1, 57, 45
3, 37440, Note_off_c, 1, 57, 64
3, 37440, Note_off_c, 1, 60, 64
3, 37440, Note_on_c, 1, 58, 67
3, 37920, Note_on_c, 1, 65, 57
3, 38400, Note_off_c, 1, 65, 64
3, 38400, Note_off_c, 1, 58, 64
3, 38400, Note_on_c, 1, 63, 43
3, 38400, Note_on_c, 1, 51, 44
3, 38520, Note_off_c, 1, 51, 64
3, 38520, Note_off_c, 1, 63, 64
3, 38880, Note_on_c, 1, 46, 89
3, 39060, Note_off_c, 1, 46, 64
3, 39090, Note_on_c, 1, 46, 89
3, 39120, Note_off_c, 1, 46, 64
3, 39120, Note_on_c, 1, 46, 89
3, 39300, Note_off_c, 1, 46, 64
3, 39330, Note_on_c, 1, 46, 86
3, 39360, Note_off_c, 1, 46, 64
3, 39360, Note_on_c, 1, 51, 89
3, 39480, Note_off_c, 1, 51, 64
3, 39840, Note_on_c, 1, 62, 77
3, 39840, Note_on_c, 1, 58, 78
3, 40020, Note_off_c, 1, 58, 64
3, 40020, Note_off_c, 1, 62, 64
3, 40050, Note_on_c, 1, 62, 89
3, 40050, Note_on_c, 1, 58, 85
3, 40080, Note_off_c, 1, 58, 64
3, 40080, Note_off_c, 1, 62, 64
3, 40080, Note_on_c, 1, 62, 78
3, 40080, Note_on_c, 1, 58, 80
3, 40260, Note_off_c, 1, 58, 64
3, 40260, Note_off_c, 1, 62, 64
3, 40290, Note_on_c, 1, 58, 89
3, 40290, Note_on_c, 1, 62, 82
3, 40320, Note_off_c, 1, 62, 64
3, 40320, Note_off_c, 1, 58, 64
3, 40320, Note_on_c, 1, 63, 82
3, 40320, Note_on_c, 1, 51, 90
3, 40440, Note_off_c, 1, 51, 64
3, 40440, Note_off_c, 1, 63, 64
3, 42240, Note_on_c, 1, 55, 54
3, 42240, Note_on_c, 1, 58, 46
3, 43200, Note_off_c, 1, 58, 64
3, 43200, Note_off_c, 1, 55, 64
3, 43200, Note_on_c, 1, 59, 40
3, 43200, Note_on_c, 1, 56, 34
3, 43680, Note_off_c, 1, 56, 64
3, 43680, Note_off_c, 1, 59, 64
3, 43680, Note_on_c, 1, 61, 38
3, 43680, Note_on_c, 1, 58, 29
3, 43920, Note_off_c, 1, 58, 64
3, 43920, Note_off_c, 1, 61, 64
3, 43920, Note_on_c, 1, 56, 33
3, 43920, Note_on_c, 1, 59, 29
3, 44160, Note_off_c, 1, 59, 64
3, 44160, Note_off_c, 1, 56, 64
3, 44160, Note_on_c, 1, 58, 42
3, 44160, Note_on_c, 1, 55, 43
3, 44280, Note_off_c, 1, 55, 64
3, 44280, Note_off_c, 1, 58, 64
3, 57120, Note_on_c, 1, 58, 44
3, 57120, Note_on_c, 1, 55, 39
3, 57600, Note_off_c, 1, 55, 64
3, 57600, Note_off_c, 1, 58, 64
3, 57600, Note_on_c, 1, 60, 43
3, 57600, Note_on_c, 1, 56, 43
3, 58080, Note_off_c, 1, 56, 64
3, 58080, Note_off_c, 1, 60, 64
3, 58080, Note_on_c, 1, 61, 43
3, 58080, Note_on_c, 1, 58, 43
3, 58320, Note_off_c, 1, 58, 64
3, 58320, Note_off_c, 1, 61, 64
3, 58320, Note_on_c, 1, 58, 35
3, 58320, Note_on_c, 1, 55, 42
3, 58560, Note_off_c, 1, 55, 64
3, 58560, Note_off_c, 1, 58, 64
3, 58560, Note_on_c, 1, 63, 43
3, 58560, Note_on_c, 1, 60, 40
3, 58920, Note_off_c, 1, 60, 64
3, 58920, Note_off_c, 1, 63, 64
3, 58920, Note_on_c, 1, 60, 51
3, 58920, Note_on_c, 1, 56, 52
3, 59040, Note_off_c, 1, 56, 64
3, 59040, Note_off_c, 1, 60, 64
3, 59040, Note_on_c, 1, 58, 65
3, 59040, Note_on_c, 1, 55, 57
3, 59220, Note_off_c, 1, 55, 64
3, 59220, Note_off_c, 1, 58, 64
3, 59220, Note_on_c, 1, 60, 76
3, 59220, Note_on_c, 1, 56, 82
3, 59280, Note_off_c, 1, 56, 64
3, 59280, Note_off_c, 1, 60, 64
3, 59280, Note_on_c, 1, 61, 81
3, 59280, Note_on_c, 1, 58, 81
3, 59340, Note_off_c, 1, 58, 64
3, 59340, Note_off_c, 1, 61, 64
3, 59400, Note_on_c, 1, 61, 85
3, 59400, Note_on_c, 1, 58, 73
3, 59460, Note_off_c, 1, 58, 64
3, 59460, Note_off_c, 1, 61, 64
3, 59520, Note_on_c, 1, 59, 94
3, 59520, Note_on_c, 1, 55, 76
3, 59640, Note_off_c, 1, 55, 64
3, 59640, Note_off_c, 1, 59, 64
3, 59640, Note_on_c, 1, 60, 86
3, 59640, Note_on_c, 1, 56, 94
3, 59880, Note_off_c, 1, 56, 64
3, 59880, Note_off_c, 1, 60, 64
3, 59880, Note_on_c, 1, 60, 84
3, 59880, Note_on_c, 1, 56, 95
3, 60000, Note_off_c, 1, 56, 64
3, 60000, Note_off_c, 1, 60, 64
3, 60000, Note_on_c, 1, 62, 93
3, 60000, Note_on_c, 1, 53, 101
3, 60180, Note_off_c, 1, 53, 64
3, 60180, Note_off_c, 1, 62, 64
3, 60210, Note_on_c, 1, 62, 93
3, 60210, Note_on_c, 1, 53, 99
3, 60240, Note_off_c, 1, 53, 64
3, 60240, Note_off_c, 1, 62, 64
3, 60240, Note_on_c, 1, 62, 99
3, 60240, Note_on_c, 1, 53, 101
3, 60420, Note_off_c, 1, 53, 64
3, 60420, Note_off_c, 1, 62, 64
3, 60450, Note_on_c, 1, 62, 99
3, 60450, Note_on_c, 1, 53, 104
3, 60480, Note_off_c, 1, 53, 64
3, 60480, Note_off_c, 1, 62, 64
3, 60480, Note_on_c, 1, 63, 94
3, 60480, Note_on_c, 1, 51, 99
3, 60720, Note_off_c, 1, 51, 64
3, 60720, Note_off_c, 1, 63, 64
3, 60840, Note_on_c, 1, 63, 38
3, 60840, Note_on_c, 1, 51, 47
3, 60960, Note_off_c, 1, 51, 64
3, 60960, Note_off_c, 1, 63, 64
3, 60960, Note_on_c, 1, 62, 46
3, 60960, Note_on_c, 1, 53, 45
3, 61140, Note_off_c, 1, 53, 64
3, 61140, Note_off_c, 1, 62, 64
3, 61170, Note_on_c, 1, 62, 52
3, 61170, Note_on_c, 1, 53, 60
3, 61200, Note_off_c, 1, 53, 64
3, 61200, Note_off_c, 1, 62, 64
3, 61200, Note_on_c, 1, 62, 47
3, 61200, Note_on_c, 1, 53, 43
3, 61380, Note_off_c, 1, 53, 64
3, 61380, Note_off_c, 1, 62, 64
3, 61410, Note_on_c, 1, 62, 64
3, 61410, Note_on_c, 1, 53, 67
3, 61440, Note_off_c, 1, 53, 64
3, 61440, Note_off_c, 1, 62, 64
3, 61440, Note_on_c, 1, 63, 42
3, 61440, Note_on_c, 1, 51, 47
3, 61560, Note_off_c, 1, 51, 64
3, 61560, Note_off_c, 1, 63, 64
3, 70560, Note_on_c, 1, 55, 43
3, 70560, Note_on_c, 1, 58, 49
3, 71040, Note_off_c, 1, 58, 64
3, 71040, Note_off_c, 1, 55, 64
3, 71040, Note_on_c, 1, 60, 41
3, 71040, Note_on_c, 1, 56, 43
3, 71520, Note_off_c, 1, 56, 64
3, 71520, Note_off_c, 1, 60, 64
3, 71520, Note_on_c, 1, 58, 42
3, 71520, Note_on_c, 1, 61, 44
3, 72000, Note_off_c, 1, 61, 64
3, 72000, Note_off_c, 1, 58, 64
3, 72000, Note_on_c, 1, 60, 43
3, 72000, Note_on_c, 1, 56, 37
3, 72120, Note_off_c, 1, 56, 64
3, 72120, Note_off_c, 1, 60, 64
3, 72720, Note_on_c, 1, 55, 40
3, 72720, Note_on_c, 1, 58, 45
3, 72960, Note_off_c, 1, 58, 64
3, 72960, Note_off_c, 1, 55, 64
3, 73200, Note_on_c, 1, 60, 43
3, 73200, Note_on_c, 1, 56, 43
3, 73440, Note_off_c, 1, 56, 64
3, 73440, Note_off_c, 1, 60, 64
3, 73680, Note_on_c, 1, 58, 45
3, 73680, Note_on_c, 1, 53, 43
3, 73920, Note_off_c, 1, 53, 64
3, 73920, Note_off_c, 1, 58, 64
3, 74160, Note_on_c, 1, 63, 66
3, 74400, Note_off_c, 1, 63, 64
3, 74400, Note_on_c, 1, 65, 33
3, 74520, Note_off_c, 1, 65, 64
3, 74880, Note_on_c, 1, 63, 50
3, 75120, Note_off_c, 1, 63, 64
3, 75120, Note_on_c, 1, 65, 57
3, 75240, Note_off_c, 1, 65, 64
3, 75360, Note_on_c, 1, 63, 65
3, 75600, Note_off_c, 1, 63, 64
3, 75600, Note_on_c, 1, 65, 65
3, 75720, Note_off_c, 1, 65, 64
3, 75840, Note_on_c, 1, 63, 65
3, 76080, Note_off_c, 1, 63, 64
3, 76080, Note_on_c, 1, 55, 64
3, 76080, Note_on_c, 1, 51, 73
3, 76320, Note_off_c, 1, 51, 64
3, 76320, Note_off_c, 1, 55, 64
3, 76320, Note_on_c, 1, 56, 71
3, 76320, Note_on_c, 1, 53, 76
3, 76560, Note_off_c, 1, 53, 64
3, 76560, Note_off_c, 1, 56, 64
3, 76560, Note_on_c, 1, 58, 80
3, 76560, Note_on_c, 1, 55, 86
3, 76800, Note_off_c, 1, 55, 64
3, 76800, Note_off_c, 1, 58, 64
3, 76800, Note_on_c, 1, 60, 33
3, 76800, Note_on_c, 1, 56, 35
3, 77040, Note_off_c, 1, 56, 64
3, 77040, Note_off_c, 1, 60, 64
3, 82560, Note_on_c, 1, 55, 43
3, 82560, Note_on_c, 1, 51, 45
3, 82600, Note_off_c, 1, 51, 64
3, 82600, Note_off_c, 1, 55, 64
3, 82640, Note_on_c, 1, 55, 45
3, 82640, Note_on_c, 1, 51, 70
3, 82680, Note_off_c, 1, 51, 64
3, 82680, Note_off_c, 1, 55, 64
3, 82720, Note_on_c, 1, 55, 45
3, 82720, Note_on_c, 1, 51, 62
3, 82760, Note_off_c, 1, 51, 64
3, 82760, Note_off_c, 1, 55, 64
3, 82800, Note_on_c, 1, 55, 44
3, 82800, Note_on_c, 1, 51, 61
3, 82880, Note_off_c, 1, 51, 64
3, 82880, Note_off_c, 1, 55, 64
3, 82880, Note_on_c, 1, 56, 45
3, 82880, Note_on_c, 1, 53, 37
3, 82960, Note_off_c, 1, 53, 64
3, 82960, Note_off_c, 1, 56, 64
3, 82960, Note_on_c, 1, 58, 61
3, 82960, Note_on_c, 1, 55, 53
3, 83040, Note_off_c, 1, 55, 64
3, 83040, Note_off_c, 1, 58, 64
3, 83040, Note_on_c, 1, 60, 44
3, 83040, Note_on_c, 1, 56, 45
3, 83280, Note_off_c, 1, 56, 64
3, 83280, Note_off_c, 1, 60, 64
3, 83520, Note_on_c, 1, 55, 57
3, 83520, Note_on_c, 1, 51, 47
3, 83560, Note_off_c, 1, 51, 64
3, 83560, Note_off_c, 1, 55, 64
3, 83600, Note_on_c, 1, 55, 55
3, 83600, Note_on_c, 1, 51, 63
3, 83640, Note_off_c, 1, 51, 64
3, 83640, Note_off_c, 1, 55, 64
3, 83680, Note_on_c, 1, 55, 50
3, 83680, Note_on_c, 1, 51, 60
3, 83720, Note_off_c, 1, 51, 64
3, 83720, Note_off_c, 1, 55, 64
3, 83760, Note_on_c, 1, 55, 53
3, 83760, Note_on_c, 1, 51, 69
3, 83840, Note_off_c, 1, 51, 64
3, 83840, Note_off_c, 1, 55, 64
3, 83840, Note_on_c, 1, 56, 64
3, 83840, Note_on_c, 1, 53, 46
3, 83920, Note_off_c, 1, 53, 64
3, 83920, Note_off_c, 1, 56, 64
3, 83920, Note_on_c, 1, 58, 65
3, 83920, Note_on_c, 1, 55, 65
3, 84000, Note_off_c, 1, 55, 64
3, 84000, Note_off_c, 1, 58, 64
3, 84000, Note_on_c, 1, 60, 89
3, 84000, Note_on_c, 1, 56, 86
3, 84040, Note_off_c, 1, 56, 64
3, 84040, Note_off_c, 1, 60, 64
3, 84080, Note_on_c, 1, 56, 84
3, 84080, Note_on_c, 1, 51, 89
3, 84120, Note_off_c, 1, 51, 64
3, 84120, Note_off_c, 1, 56, 64
3, 84160, Note_on_c, 1, 56, 89
3, 84160, Note_on_c, 1, 51, 94
3, 84200, Note_off_c, 1, 51, 64
3, 84200, Note_off_c, 1, 56, 64
3, 84240, Note_on_c, 1, 56, 94
3, 84240, Note_on_c, 1, 51, 99
3, 84320, Note_off_c, 1, 51, 64
3, 84320, Note_off_c, 1, 56, 64
3, 84320, Note_on_c, 1, 58, 86
3, 84320, Note_on_c, 1, 55, 94
3, 84400, Note_off_c, 1, 55, 64
3, 84400, Note_off_c, 1, 58, 64
3, 84400, Note_on_c, 1, 60, 77
3, 84400, Note_on_c, 1, 56, 89
3, 84480, Note_off_c, 1, 56, 64
3, 84480, Note_off_c, 1, 60, 64
3, 84480, Note_on_c, 1, 60, 104
3, 84480, Note_on_c, 1, 58, 93
3, 84720, Note_off_c, 1, 58, 64
3, 84720, Note_off_c, 1, 60, 64
3, 84720, Note_on_c, 1, 64, 112
3, 84720, Note_on_c, 1, 55, 110
3, 84960, Note_off_c, 1, 55, 64
3, 84960, Note_off_c, 1, 64, 64
3, 85200, Note_on_c, 1, 65, 110
3, 85200, Note_on_c, 1, 53, 104
3, 85440, Note_off_c, 1, 53, 64
3, 85440, Note_off_c, 1, 65, 64
3, 85440, Note_on_c, 1, 62, 119
3, 85440, Note_on_c, 1, 50, 127
3, 85920, Note_off_c, 1, 50, 64
3, 85920, Note_off_c, 1, 62, 64
3, 85920, Note_on_c, 1, 63, 94
3, 85920, Note_on_c, 1, 51, 99
3, 86160, Note_off_c, 1, 51, 64
3, 86160, Note_off_c, 1, 63, 64
3, 86160, Note_on_c, 1, 63, 105
3, 86160, Note_on_c, 1, 51, 105
3, 86400, Note_off_c, 1, 51, 64
3, 86400, Note_off_c, 1, 63, 64
3, 86400, Note_on_c, 1, 56, 94
3, 86400, Note_on_c, 1, 44, 90
3, 86640, Note_off_c, 1, 44, 64
3, 86640, Note_off_c, 1, 56, 64
3, 89280, Note_on_c, 1, 55, 43
3, 89280, Note_on_c, 1, 51, 42
3, 89320, Note_off_c, 1, 51, 64
3, 89320, Note_off_c, 1, 55, 64
3, 89360, Note_on_c, 1, 55, 43
3, 89360, Note_on_c, 1, 51, 43
3, 89400, Note_off_c, 1, 51, 64
3, 89400, Note_off_c, 1, 55, 64
3, 89440, Note_on_c, 1, 55, 43
3, 89440, Note_on_c, 1, 51, 57
3, 89480, Note_off_c, 1, 51, 64
3, 89480, Note_off_c, 1, 55, 64
3, 89520, Note_on_c, 1, 55, 39
3, 89520, Note_on_c, 1, 51, 47
3, 89560, Note_off_c, 1, 51, 64
3, 89560, Note_off_c, 1, 55, 64
3, 89600, Note_on_c, 1, 56, 39
3, 89600, Note_on_c, 1, 53, 42
3, 89640, Note_off_c, 1, 53, 64
3, 89640, Note_off_c, 1, 56, 64
3, 89680, Note_on_c, 1, 58, 43
3, 89680, Note_on_c, 1, 55, 43
3, 89720, Note_off_c, 1, 55, 64
3, 89720, Note_off_c, 1, 58, 64
3, 89760, Note_on_c, 1, 60, 43
3, 89760, Note_on_c, 1, 56, 53
3, 90000, Note_off_c, 1, 56, 64
3, 90000, Note_off_c, 1, 60, 64
3, 90240, Note_on_c, 1, 63, 44
3, 90240, Note_on_c, 1, 51, 42
3, 90280, Note_off_c, 1, 51, 64
3, 90280, Note_off_c, 1, 63, 64
3, 90320, Note_on_c, 1, 63, 42
3, 90320, Note_on_c, 1, 51, 43
3, 90360, Note_off_c, 1, 51, 64
3, 90360, Note_off_c, 1, 63, 64
3, 90400, Note_on_c, 1, 63, 42
3, 90400, Note_on_c, 1, 51, 52
3, 90440, Note_off_c, 1, 51, 64
3, 90440, Note_off_c, 1, 63, 64
3, 90480, Note_on_c, 1, 63, 48
3, 90480, Note_on_c, 1, 51, 57
3, 90520, Note_off_c, 1, 51, 64
3, 90520, Note_off_c, 1, 63, 64
3, 90560, Note_on_c, 1, 62, 49
3, 90560, Note_on_c, 1, 51, 38
3, 90600, Note_off_c, 1, 51, 64
3, 90600, Note_off_c, 1, 62, 64
3, 90640, Note_on_c, 1, 61, 45
3, 90640, Note_on_c, 1, 51, 70
3, 90680, Note_off_c, 1, 51, 64
3, 90680, Note_off_c, 1, 61, 64
3, 90720, Note_on_c, 1, 60, 51
3, 90720, Note_on_c, 1, 56, 45
3, 90960, Note_off_c, 1, 56, 64
3, 90960, Note_off_c, 1, 60, 64
3, 99840, Note_on_c, 1, 59, 76
3, 99840, Note_on_c, 1, 56, 74
3, 100080, Note_off_c, 1, 56, 64
3, 100080, Note_off_c, 1, 59, 64
3, 100080, Note_on_c, 1, 59, 46
3, 100080, Note_on_c, 1, 56, 44
3, 100160, Note_off_c, 1, 56, 64
3, 100160, Note_off_c, 1, 59, 64
3, 100160, Note_on_c, 1, 59, 69
3, 100160, Note_on_c, 1, 56, 59
3, 100240, Note_off_c, 1, 56, 64
3, 100240, Note_off_c, 1, 59, 64
3, 100240, Note_on_c, 1, 59, 68
3, 100240, Note_on_c, 1, 56, 73
3, 100320, Note_off_c, 1, 56, 64
3, 100320, Note_off_c, 1, 59, 64
3, 100320, Note_on_c, 1, 59, 99
3, 100320, Note_on_c, 1, 56, 94
3, 100560, Note_off_c, 1, 56, 64
3, 100560, Note_off_c, 1, 59, 64
3, 100560, Note_on_c, 1, 59, 68
3, 100560, Note_on_c, 1, 56, 68
3, 100640, Note_off_c, 1, 56, 64
3, 100640, Note_off_c, 1, 59, 64
3, 100640, Note_on_c, 1, 59, 74
3, 100640, Note_on_c, 1, 56, 76
3, 100720, Note_off_c, 1, 56, 64
3, 100720, Note_off_c, 1, 59, 64
3, 100720, Note_on_c, 1, 59, 82
3, 100720, Note_on_c, 1, 56, 84
3, 100800, Note_off_c, 1, 56, 64
3, 100800, Note_off_c, 1, 59, 64
3, 100800, Note_on_c, 1, 60, 86
3, 100800, Note_on_c, 1, 56, 84
3, 101040, Note_off_c, 1, 56, 64
3, 101040, Note_off_c, 1, 60, 64
3, 102720, Note_on_c, 1, 61, 61
3, 102720, Note_on_c, 1, 58, 61
3, 103200, Note_off_c, 1, 58, 64
3, 103200, Note_off_c, 1, 61, 64
3, 103200, Note_on_c, 1, 60, 90
3, 103200, Note_on_c, 1, 56, 68
3, 103440, Note_off_c, 1, 56, 64
3, 103440, Note_off_c, 1, 60, 64
3, 103440, Note_on_c, 1, 58, 90
3, 103440, Note_on_c, 1, 55, 80
3, 103680, Note_off_c, 1, 55, 64
3, 103680, Note_off_c, 1, 58, 64
3, 103680, Note_on_c, 1, 56, 57
3, 103680, Note_on_c, 1, 53, 48
3, 103800, Note_off_c, 1, 53, 64
3, 103800, Note_off_c, 1, 56, 64
3, 103800, Note_on_c, 1, 57, 64
3, 103920, Note_off_c, 1, 57, 64
3, 103920, Note_on_c, 1, 58, 54
3, 104040, Note_off_c, 1, 58, 64
3, 104040, Note_on_c, 1, 65, 61
3, 104160, Note_off_c, 1, 65, 64
3, 104160, Note_on_c, 1, 63, 40
3, 104400, Note_off_c, 1, 63, 64
3, 104400, Note_on_c, 1, 55, 60
3, 104640, Note_off_c, 1, 55, 64
3, 104640, Note_on_c, 1, 56, 46
3, 104760, Note_off_c, 1, 56, 64
3, 108960, Note_on_c, 1, 61, 42
3, 108960, Note_on_c, 1, 51, 41
3, 109440, Note_off_c, 1, 51, 64
3, 109440, Note_off_c, 1, 61, 64
3, 109440, Note_on_c, 1, 60, 53
3, 109440, Note_on_c, 1, 56, 43
3, 109560, Note_off_c, 1, 56, 64
3, 109560, Note_off_c, 1, 60, 64
3, 112800, Note_on_c, 1, 63, 29
3, 112800, Note_on_c, 1, 60, 36
3, 113040, Note_off_c, 1, 60, 64
3, 113040, Note_off_c, 1, 63, 64
3, 113040, Note_on_c, 1, 63, 29
3, 113040, Note_on_c, 1, 60, 31
3, 113280, Note_off_c, 1, 60, 64
3, 113280, Note_off_c, 1, 63, 64
3, 113280, Note_on_c, 1, 60, 34
3, 113280, Note_on_c, 1, 56, 35
3, 114240, Note_off_c, 1, 56, 64
3, 114240, Note_off_c, 1, 60, 64
3, 114240, End_track
4, 0, Start_track
4, 0, Title_t, "French Horns"
4, 0, Program_c, 2, 60
4, 0, Control_c, 2, 7, 100
4, 0, Control_c, 2, 10, 54
4, 0, Control_c, 2, 93, 0
4, 0, Control_c, 2, 91, 66
4, 7200, Note_on_c, 2, 63, 38
4, 7200, Note_on_c, 2, 51, 36
4, 8160, Note_off_c, 2, 51, 64
4, 8160, Note_off_c, 2, 63, 64
4, 8160, Note_on_c, 2, 63, 35
4, 8160, Note_on_c, 2, 51, 38
4, 8400, Note_off_c, 2, 51, 64
4, 8400, Note_off_c, 2, 63, 64
4, 8400, Note_on_c, 2, 63, 30
4, 8400, Note_on_c, 2, 51, 35
4, 8640, Note_off_c, 2, 51, 64
4, 8640, Note_off_c, 2, 63, 64
4, 8640, Note_on_c, 2, 63, 40
4, 8640, Note_on_c, 2, 51, 42
4, 9360, Note_off_c, 2, 51, 64
4, 9360, Note_off_c, 2, 63, 64
4, 9360, Note_on_c, 2, 63, 67
4, 9360, Note_on_c, 2, 51, 72
4, 9600, Note_off_c, 2, 51, 64
4, 9600, Note_off_c, 2, 63, 64
4, 9600, Note_on_c, 2, 63, 81
4, 9600, Note_on_c, 2, 51, 94
4, 9960, Note_off_c, 2, 51, 64
4, 9960, Note_off_c, 2, 63, 64
4, 9960, Note_on_c, 2, 63, 76
4, 9960, Note_on_c, 2, 51, 89
4, 10080, Note_off_c, 2, 51, 64
4, 10080, Note_off_c, 2, 63, 64
4, 10080, Note_on_c, 2, 58, 94
4, 10080, Note_on_c, 2, 46, 99
4, 10260, Note_off_c, 2, 46, 64
4, 10260, Note_off_c, 2, 58, 64
4, 10290, Note_on_c, 2, 58, 82
4, 10290, Note_on_c, 2, 46, 98
4, 10320, Note_off_c, 2, 46, 64
4, 10320, Note_off_c, 2, 58, 64
4, 10320, Note_on_c, 2, 58, 84
4, 10320, Note_on_c, 2, 46, 99
4, 10500, Note_off_c, 2, 46, 64
4, 10500, Note_off_c, 2, 58, 64
4, 10530, Note_on_c, 2, 58, 84
4, 10530, Note_on_c, 2, 46, 101
4, 10560, Note_off_c, 2, 46, 64
4, 10560, Note_off_c, 2, 58, 64
4, 10560, Note_on_c, 2, 58, 90
4, 10560, Note_on_c, 2, 46, 99
4, 10680, Note_off_c, 2, 46, 64
4, 10680, Note_off_c, 2, 58, 64
4, 10680, Note_on_c, 2, 58, 61
4, 10800, Note_off_c, 2, 58, 64
4, 10800, Note_on_c, 2, 58, 43
4, 10920, Note_off_c, 2, 58, 64
4, 10920, Note_on_c, 2, 58, 38
4, 11040, Note_off_c, 2, 58, 64
4, 11040, Note_on_c, 2, 58, 43
4, 11220, Note_off_c, 2, 58, 64
4, 11250, Note_on_c, 2, 58, 53
4, 11280, Note_off_c, 2, 58, 64
4, 11280, Note_on_c, 2, 58, 48
4, 11460, Note_off_c, 2, 58, 64
4, 11490, Note_on_c, 2, 58, 45
4, 11520, Note_off_c, 2, 58, 64
4, 11520, Note_on_c, 2, 58, 35
4, 11520, Note_on_c, 2, 58, 49
4, 11640, Note_off_c, 2, 58, 64
4, 11640, Note_off_c, 2, 58, 64
4, 12210, Note_on_c, 2, 67, 40
4, 12210, Note_on_c, 2, 63, 38
4, 12240, Note_off_c, 2, 63, 64
4, 12240, Note_off_c, 2, 67, 64
4, 12240, Note_on_c, 2, 65, 40
4, 12240, Note_on_c, 2, 58, 44
4, 12420, Note_off_c, 2, 58, 64
4, 12420, Note_off_c, 2, 65, 64
4, 12450, Note_on_c, 2, 65, 44
4, 12450, Note_on_c, 2, 58, 50
4, 12480, Note_off_c, 2, 58, 64
4, 12480, Note_off_c, 2, 65, 64
4, 12480, Note_on_c, 2, 63, 38
4, 12480, Note_on_c, 2, 55, 59
4, 12720, Note_off_c, 2, 55, 64
4, 12720, Note_off_c, 2, 63, 64
4, 12720, Note_on_c, 2, 63, 64
4, 12720, Note_on_c, 2, 51, 78
4, 13200, Note_off_c, 2, 51, 64
4, 13200, Note_off_c, 2, 63, 64
4, 13200, Note_on_c, 2, 63, 69
4, 13200, Note_on_c, 2, 51, 81
4, 13440, Note_off_c, 2, 51, 64
4, 13440, Note_off_c, 2, 63, 64
4, 13440, Note_on_c, 2, 63, 38
4, 13440, Note_on_c, 2, 51, 46
4, 14160, Note_off_c, 2, 51, 64
4, 14160, Note_off_c, 2, 63, 64
4, 14160, Note_on_c, 2, 63, 37
4, 14160, Note_on_c, 2, 51, 43
4, 14400, Note_off_c, 2, 51, 64
4, 14400, Note_off_c, 2, 63, 64
4, 14400, Note_on_c, 2, 63, 50
4, 14400, Note_on_c, 2, 51, 61
4, 15120, Note_off_c, 2, 51, 64
4, 15120, Note_off_c, 2, 63, 64
4, 15120, Note_on_c, 2, 72, 65
4, 15120, Note_on_c, 2, 60, 86
4, 15360, Note_off_c, 2, 60, 64
4, 15360, Note_off_c, 2, 72, 64
4, 15360, Note_on_c, 2, 65, 39
4, 15360, Note_on_c, 2, 58, 43
4, 15720, Note_off_c, 2, 58, 64
4, 15720, Note_off_c, 2, 65, 64
4, 15720, Note_on_c, 2, 65, 40
4, 15720, Note_on_c, 2, 58, 45
4, 15840, Note_off_c, 2, 58, 64
4, 15840, Note_off_c, 2, 65, 64
4, 15840, Note_on_c, 2, 63, 45
4, 16080, Note_off_c, 2, 63, 64
4, 16080, Note_on_c, 2, 63, 45
4, 16080, Note_on_c, 2, 51, 42
4, 16320, Note_off_c, 2, 51, 64
4, 16320, Note_off_c, 2, 63, 64
4, 16320, Note_on_c, 2, 63, 42
4, 16320, Note_on_c, 2, 51, 46
4, 16800, Note_off_c, 2, 51, 64
4, 16800, Note_off_c, 2, 63, 64
4, 16800, Note_on_c, 2, 63, 45
4, 16800, Note_on_c, 2, 51, 43
4, 16920, Note_off_c, 2, 51, 64
4, 16920, Note_off_c, 2, 63, 64
4, 17400, Note_on_c, 2, 63, 33
4, 17400, Note_on_c, 2, 51, 29
4, 17460, Note_off_c, 2, 51, 64
4, 17460, Note_off_c, 2, 63, 64
4, 17520, Note_on_c, 2, 63, 32
4, 17520, Note_on_c, 2, 51, 32
4, 17580, Note_off_c, 2, 51, 64
4, 17580, Note_off_c, 2, 63, 64
4, 17640, Note_on_c, 2, 63, 29
4, 17640, Note_on_c, 2, 51, 29
4, 17700, Note_off_c, 2, 51, 64
4, 17700, Note_off_c, 2, 63, 64
4, 17880, Note_on_c, 2, 63, 33
4, 17880, Note_on_c, 2, 51, 35
4, 17940, Note_off_c, 2, 51, 64
4, 17940, Note_off_c, 2, 63, 64
4, 18000, Note_on_c, 2, 63, 29
4, 18000, Note_on_c, 2, 51, 30
4, 18060, Note_off_c, 2, 51, 64
4, 18060, Note_off_c, 2, 63, 64
4, 18120, Note_on_c, 2, 63, 31
4, 18120, Note_on_c, 2, 51, 29
4, 18180, Note_off_c, 2, 51, 64
4, 18180, Note_off_c, 2, 63, 64
4, 18240, Note_on_c, 2, 63, 36
4, 18240, Note_on_c, 2, 51, 40
4, 18480, Note_off_c, 2, 51, 64
4, 18480, Note_off_c, 2, 63, 64
4, 22560, Note_on_c, 2, 63, 38
4, 22560, Note_on_c, 2, 51, 46
4, 23040, Note_off_c, 2, 51, 64
4, 23040, Note_off_c, 2, 63, 64
4, 23040, Note_on_c, 2, 58, 58
4, 23160, Note_off_c, 2, 58, 64
4, 25080, Note_on_c, 2, 58, 112
4, 25080, Note_on_c, 2, 46, 112
4, 25140, Note_off_c, 2, 46, 64
4, 25140, Note_off_c, 2, 58, 64
4, 25200, Note_on_c, 2, 58, 112
4, 25200, Note_on_c, 2, 46, 115
4, 25260, Note_off_c, 2, 46, 64
4, 25260, Note_off_c, 2, 58, 64
4, 25320, Note_on_c, 2, 58, 119
4, 25320, Note_on_c, 2, 46, 117
4, 25380, Note_off_c, 2, 46, 64
4, 25380, Note_off_c, 2, 58, 64
4, 25440, Note_on_c, 2, 58, 110
4, 25440, Note_on_c, 2, 46, 115
4, 25800, Note_off_c, 2, 46, 64
4, 25800, Note_off_c, 2, 58, 64
4, 25800, Note_on_c, 2, 46, 123
4, 25800, Note_on_c, 2, 58, 125
4, 25920, Note_off_c, 2, 58, 64
4, 25920, Note_off_c, 2, 46, 64
4, 25920, Note_on_c, 2, 58, 110
4, 25920, Note_on_c, 2, 46, 110
4, 26280, Note_off_c, 2, 46, 64
4, 26280, Note_off_c, 2, 58, 64
4, 26280, Note_on_c, 2, 58, 123
4, 26280, Note_on_c, 2, 46, 123
4, 26400, Note_off_c, 2, 46, 64
4, 26400, Note_off_c, 2, 58, 64
4, 26400, Note_on_c, 2, 58, 107
4, 26400, Note_on_c, 2, 46, 105
4, 26760, Note_off_c, 2, 46, 64
4, 26760, Note_off_c, 2, 58, 64
4, 26760, Note_on_c, 2, 46, 119
4, 26760, Note_on_c, 2, 58, 123
4, 26880, Note_off_c, 2, 58, 64
4, 26880, Note_off_c, 2, 46, 64
4, 26880, Note_on_c, 2, 46, 61
4, 26880, Note_on_c, 2, 58, 51
4, 27840, Note_off_c, 2, 58, 64
4, 27840, Note_off_c, 2, 46, 64
4, 27840, Note_on_c, 2, 63, 45
4, 27840, Note_on_c, 2, 51, 43
4, 28080, Note_off_c, 2, 51, 64
4, 28080, Note_off_c, 2, 63, 64
4, 28440, Note_on_c, 2, 58, 64
4, 28530, Note_off_c, 2, 58, 64
4, 28560, Note_on_c, 2, 58, 64
4, 28650, Note_off_c, 2, 58, 64
4, 28680, Note_on_c, 2, 58, 73
4, 28770, Note_off_c, 2, 58, 64
4, 28800, Note_on_c, 2, 58, 72
4, 29040, Note_off_c, 2, 58, 64
4, 29400, Note_on_c, 2, 58, 55
4, 29490, Note_off_c, 2, 58, 64
4, 29520, Note_on_c, 2, 58, 69
4, 29610, Note_off_c, 2, 58, 64
4, 29640, Note_on_c, 2, 58, 59
4, 29730, Note_off_c, 2, 58, 64
4, 29760, Note_on_c, 2, 58, 45
4, 30000, Note_off_c, 2, 58, 64
4, 30240, Note_on_c, 2, 58, 57
4, 30330, Note_off_c, 2, 58, 64
4, 30360, Note_on_c, 2, 58, 45
4, 30450, Note_off_c, 2, 58, 64
4, 30480, Note_on_c, 2, 58, 60
4, 30570, Note_off_c, 2, 58, 64
4, 30600, Note_on_c, 2, 58, 53
4, 30690, Note_off_c, 2, 58, 64
4, 30720, Note_on_c, 2, 58, 80
4, 30960, Note_off_c, 2, 58, 64
4, 31200, Note_on_c, 2, 58, 70
4, 31290, Note_off_c, 2, 58, 64
4, 31320, Note_on_c, 2, 58, 65
4, 31410, Note_off_c, 2, 58, 64
4, 31440, Note_on_c, 2, 58, 61
4, 31530, Note_off_c, 2, 58, 64
4, 31560, Note_on_c, 2, 58, 73
4, 31650, Note_off_c, 2, 58, 64
4, 31680, Note_on_c, 2, 58, 66
4, 31920, Note_off_c, 2, 58, 64
4, 34680, Note_on_c, 2, 58, 43
4, 34680, Note_on_c, 2, 46, 50
4, 34800, Note_off_c, 2, 46, 64
4, 34800, Note_off_c, 2, 58, 64
4, 34800, Note_on_c, 2, 58, 80
4, 34800, Note_on_c, 2, 46, 90
4, 34920, Note_off_c, 2, 46, 64
4, 34920, Note_off_c, 2, 58, 64
4, 34920, Note_on_c, 2, 58, 90
4, 34920, Note_on_c, 2, 46, 93
4, 35040, Note_off_c, 2, 46, 64
4, 35040, Note_off_c, 2, 58, 64
4, 35040, Note_on_c, 2, 58, 95
4, 35040, Note_on_c, 2, 46, 99
4, 35160, Note_off_c, 2, 46, 64
4, 35160, Note_off_c, 2, 58, 64
4, 35160, Note_on_c, 2, 58, 112
4, 35160, Note_on_c, 2, 46, 110
4, 35280, Note_off_c, 2, 46, 64
4, 35280, Note_off_c, 2, 58, 64
4, 35280, Note_on_c, 2, 58, 112
4, 35280, Note_on_c, 2, 46, 110
4, 35400, Note_off_c, 2, 46, 64
4, 35400, Note_off_c, 2, 58, 64
4, 35400, Note_on_c, 2, 46, 119
4, 35400, Note_on_c, 2, 58, 125
4, 35520, Note_off_c, 2, 58, 64
4, 35520, Note_off_c, 2, 46, 64
4, 35520, Note_on_c, 2, 63, 33
4, 35520, Note_on_c, 2, 51, 38
4, 35760, Note_off_c, 2, 51, 64
4, 35760, Note_off_c, 2, 63, 64
4, 35760, Note_on_c, 2, 58, 38
4, 36000, Note_off_c, 2, 58, 64
4, 36000, Note_on_c, 2, 55, 40
4, 36240, Note_off_c, 2, 55, 64
4, 36240, Note_on_c, 2, 51, 46
4, 36480, Note_off_c, 2, 51, 64
4, 38880, Note_on_c, 2, 65, 84
4, 38880, Note_on_c, 2, 58, 77
4, 39060, Note_off_c, 2, 58, 64
4, 39060, Note_off_c, 2, 65, 64
4, 39090, Note_on_c, 2, 65, 89
4, 39090, Note_on_c, 2, 58, 80
4, 39120, Note_off_c, 2, 58, 64
4, 39120, Note_off_c, 2, 65, 64
4, 39120, Note_on_c, 2, 65, 73
4, 39120, Note_on_c, 2, 58, 74
4, 39300, Note_off_c, 2, 58, 64
4, 39300, Note_off_c, 2, 65, 64
4, 39330, Note_on_c, 2, 58, 85
4, 39330, Note_on_c, 2, 65, 85
4, 39360, Note_off_c, 2, 65, 64
4, 39360, Note_off_c, 2, 58, 64
4, 39360, Note_on_c, 2, 67, 77
4, 39360, Note_on_c, 2, 63, 82
4, 39480, Note_off_c, 2, 63, 64
4, 39480, Note_off_c, 2, 67, 64
4, 39840, Note_on_c, 2, 58, 81
4, 39840, Note_on_c, 2, 46, 94
4, 40020, Note_off_c, 2, 46, 64
4, 40020, Note_off_c, 2, 58, 64
4, 40050, Note_on_c, 2, 58, 82
4, 40050, Note_on_c, 2, 46, 94
4, 40080, Note_off_c, 2, 46, 64
4, 40080, Note_off_c, 2, 58, 64
4, 40080, Note_on_c, 2, 58, 73
4, 40080, Note_on_c, 2, 46, 90
4, 40260, Note_off_c, 2, 46, 64
4, 40260, Note_off_c, 2, 58, 64
4, 40290, Note_on_c, 2, 46, 95
4, 40290, Note_on_c, 2, 58, 81
4, 40320, Note_off_c, 2, 58, 64
4, 40320, Note_off_c, 2, 46, 64
4, 40320, Note_on_c, 2, 58, 76
4, 40320, Note_on_c, 2, 51, 86
4, 40440, Note_off_c, 2, 51, 64
4, 40440, Note_off_c, 2, 58, 64
4, 42240, Note_on_c, 2, 51, 46
4, 42240, Note_on_c, 2, 63, 52
4, 43200, Note_off_c, 2, 63, 64
4, 43200, Note_off_c, 2, 51, 64
4, 43200, Note_on_c, 2, 63, 41
4, 43200, Note_on_c, 2, 51, 43
4, 43680, Note_off_c, 2, 51, 64
4, 43680, Note_off_c, 2, 63, 64
4, 43680, Note_on_c, 2, 63, 39
4, 43680, Note_on_c, 2, 51, 38
4, 43920, Note_off_c, 2, 51, 64
4, 43920, Note_off_c, 2, 63, 64
4, 43920, Note_on_c, 2, 51, 33
4, 43920, Note_on_c, 2, 63, 30
4, 44160, Note_off_c, 2, 63, 64
4, 44160, Note_off_c, 2, 51, 64
4, 44160, Note_on_c, 2, 63, 39
4, 44160, Note_on_c, 2, 51, 40
4, 44280, Note_off_c, 2, 51, 64
4, 44280, Note_off_c, 2, 63, 64
4, 57120, Note_on_c, 2, 63, 43
4, 57120, Note_on_c, 2, 51, 44
4, 58080, Note_off_c, 2, 51, 64
4, 58080, Note_off_c, 2, 63, 64
4, 58080, Note_on_c, 2, 63, 38
4, 58080, Note_on_c, 2, 51, 39
4, 58320, Note_off_c, 2, 51, 64
4, 58320, Note_off_c, 2, 63, 64
4, 58320, Note_on_c, 2, 63, 29
4, 58320, Note_on_c, 2, 51, 40
4, 58560, Note_off_c, 2, 51, 64
4, 58560, Note_off_c, 2, 63, 64
4, 58560, Note_on_c, 2, 63, 38
4, 58560, Note_on_c, 2, 51, 42
4, 59280, Note_off_c, 2, 51, 64
4, 59280, Note_off_c, 2, 63, 64
4, 59280, Note_on_c, 2, 63, 72
4, 59280, Note_on_c, 2, 51, 84
4, 59520, Note_off_c, 2, 51, 64
4, 59520, Note_off_c, 2, 63, 64
4, 59520, Note_on_c, 2, 63, 76
4, 59520, Note_on_c, 2, 51, 90
4, 59880, Note_off_c, 2, 51, 64
4, 59880, Note_off_c, 2, 63, 64
4, 59880, Note_on_c, 2, 63, 82
4, 59880, Note_on_c, 2, 51, 98
4, 60000, Note_off_c, 2, 51, 64
4, 60000, Note_off_c, 2, 63, 64
4, 60000, Note_on_c, 2, 58, 89
4, 60000, Note_on_c, 2, 46, 104
4, 60180, Note_off_c, 2, 46, 64
4, 60180, Note_off_c, 2, 58, 64
4, 60210, Note_on_c, 2, 58, 89
4, 60210, Note_on_c, 2, 46, 104
4, 60240, Note_off_c, 2, 46, 64
4, 60240, Note_off_c, 2, 58, 64
4, 60240, Note_on_c, 2, 58, 85
4, 60240, Note_on_c, 2, 46, 105
4, 60420, Note_off_c, 2, 46, 64
4, 60420, Note_off_c, 2, 58, 64
4, 60450, Note_on_c, 2, 58, 89
4, 60450, Note_on_c, 2, 46, 105
4, 60480, Note_off_c, 2, 46, 64
4, 60480, Note_off_c, 2, 58, 64
4, 60480, Note_on_c, 2, 58, 94
4, 60480, Note_on_c, 2, 46, 101
4, 60600, Note_off_c, 2, 46, 64
4, 60600, Note_off_c, 2, 58, 64
4, 60600, Note_on_c, 2, 58, 58
4, 60720, Note_off_c, 2, 58, 64
4, 60720, Note_on_c, 2, 58, 38
4, 60840, Note_off_c, 2, 58, 64
4, 60840, Note_on_c, 2, 58, 35
4, 60960, Note_off_c, 2, 58, 64
4, 60960, Note_on_c, 2, 58, 46
4, 61140, Note_off_c, 2, 58, 64
4, 61170, Note_on_c, 2, 58, 45
4, 61200, Note_off_c, 2, 58, 64
4, 61200, Note_on_c, 2, 58, 53
4, 61380, Note_off_c, 2, 58, 64
4, 61410, Note_on_c, 2, 58, 59
4, 61440, Note_off_c, 2, 58, 64
4, 61440, Note_on_c, 2, 58, 43
4, 61560, Note_off_c, 2, 58, 64
4, 70160, Note_on_c, 2, 63, 38
4, 70160, Note_on_c, 2, 51, 44
4, 70240, Note_off_c, 2, 51, 64
4, 70240, Note_off_c, 2, 63, 64
4, 70240, Note_on_c, 2, 63, 38
4, 70240, Note_on_c, 2, 51, 43
4, 70320, Note_off_c, 2, 51, 64
4, 70320, Note_off_c, 2, 63, 64
4, 70320, Note_on_c, 2, 63, 38
4, 70320, Note_on_c, 2, 51, 40
4, 70400, Note_off_c, 2, 51, 64
4, 70400, Note_off_c, 2, 63, 64
4, 70400, Note_on_c, 2, 63, 44
4, 70400, Note_on_c, 2, 51, 43
4, 70480, Note_off_c, 2, 51, 64
4, 70480, Note_off_c, 2, 63, 64
4, 70480, Note_on_c, 2, 63, 40
4, 70480, Note_on_c, 2, 51, 40
4, 70560, Note_off_c, 2, 51, 64
4, 70560, Note_off_c, 2, 63, 64
4, 70560, Note_on_c, 2, 63, 44
4, 70560, Note_on_c, 2, 51, 49
4, 71040, Note_off_c, 2, 51, 64
4, 71040, Note_off_c, 2, 63, 64
4, 71040, Note_on_c, 2, 63, 45
4, 71040, Note_on_c, 2, 51, 58
4, 71760, Note_off_c, 2, 51, 64
4, 71760, Note_off_c, 2, 63, 64
4, 71760, Note_on_c, 2, 63, 42
4, 71760, Note_on_c, 2, 51, 35
4, 72000, Note_off_c, 2, 51, 64
4, 72000, Note_off_c, 2, 63, 64
4, 72000, Note_on_c, 2, 63, 42
4, 72000, Note_on_c, 2, 51, 38
4, 72120, Note_off_c, 2, 51, 64
4, 72120, Note_off_c, 2, 63, 64
4, 72720, Note_on_c, 2, 63, 40
4, 72720, Note_on_c, 2, 51, 43
4, 72840, Note_off_c, 2, 51, 64
4, 72840, Note_off_c, 2, 63, 64
4, 73200, Note_on_c, 2, 63, 42
4, 73200, Note_on_c, 2, 51, 44
4, 73320, Note_off_c, 2, 51, 64
4, 73320, Note_off_c, 2, 63, 64
4, 73680, Note_on_c, 2, 58, 38
4, 73680, Note_on_c, 2, 46, 43
4, 73920, Note_off_c, 2, 46, 64
4, 73920, Note_off_c, 2, 58, 64
4, 73920, Note_on_c, 2, 58, 43
4, 73920, Note_on_c, 2, 46, 57
4, 73960, Note_off_c, 2, 58, 64
4, 74000, Note_off_c, 2, 46, 64
4, 74000, Note_on_c, 2, 70, 46
4, 74000, Note_on_c, 2, 58, 64
4, 74000, Note_on_c, 2, 58, 43
4, 74002, Note_off_c, 2, 58, 64
4, 74080, Note_off_c, 2, 58, 64
4, 74080, Note_off_c, 2, 70, 64
4, 74080, Note_on_c, 2, 70, 36
4, 74080, Note_on_c, 2, 58, 40
4, 74160, Note_off_c, 2, 58, 64
4, 74160, Note_off_c, 2, 70, 64
4, 74160, Note_on_c, 2, 70, 58
4, 74160, Note_on_c, 2, 58, 53
4, 74240, Note_off_c, 2, 58, 64
4, 74240, Note_off_c, 2, 70, 64
4, 74240, Note_on_c, 2, 67, 43
4, 74240, Note_on_c, 2, 55, 57
4, 74320, Note_off_c, 2, 55, 64
4, 74320, Note_off_c, 2, 67, 64
4, 74320, Note_on_c, 2, 63, 45
4, 74320, Note_on_c, 2, 51, 57
4, 74400, Note_off_c, 2, 51, 64
4, 74400, Note_off_c, 2, 63, 64
4, 74400, Note_on_c, 2, 58, 44
4, 74400, Note_on_c, 2, 46, 43
4, 74640, Note_off_c, 2, 46, 64
4, 74640, Note_off_c, 2, 58, 64
4, 74880, Note_on_c, 2, 70, 70
4, 74880, Note_on_c, 2, 58, 44
4, 74960, Note_off_c, 2, 58, 64
4, 74960, Note_off_c, 2, 70, 64
4, 74960, Note_on_c, 2, 67, 64
4, 74960, Note_on_c, 2, 55, 54
4, 75040, Note_off_c, 2, 55, 64
4, 75040, Note_off_c, 2, 67, 64
4, 75040, Note_on_c, 2, 63, 48
4, 75040, Note_on_c, 2, 51, 61
4, 75080, Note_off_c, 2, 51, 64
4, 75080, Note_off_c, 2, 63, 64
4, 75120, Note_on_c, 2, 58, 54
4, 75120, Note_on_c, 2, 46, 64
4, 75360, Note_off_c, 2, 46, 64
4, 75360, Note_off_c, 2, 58, 64
4, 75360, Note_on_c, 2, 70, 52
4, 75360, Note_on_c, 2, 58, 60
4, 75440, Note_off_c, 2, 58, 64
4, 75440, Note_off_c, 2, 70, 64
4, 75440, Note_on_c, 2, 67, 70
4, 75440, Note_on_c, 2, 55, 64
4, 75520, Note_off_c, 2, 55, 64
4, 75520, Note_off_c, 2, 67, 64
4, 75520, Note_on_c, 2, 63, 61
4, 75520, Note_on_c, 2, 51, 80
4, 75560, Note_off_c, 2, 51, 64
4, 75560, Note_off_c, 2, 63, 64
4, 75600, Note_on_c, 2, 58, 61
4, 75600, Note_on_c, 2, 46, 65
4, 75840, Note_off_c, 2, 46, 64
4, 75840, Note_off_c, 2, 58, 64
4, 75840, Note_on_c, 2, 63, 65
4, 75840, Note_on_c, 2, 51, 77
4, 76560, Note_off_c, 2, 51, 64
4, 76560, Note_off_c, 2, 63, 64
4, 76560, Note_on_c, 2, 63, 80
4, 76560, Note_on_c, 2, 51, 95
4, 76800, Note_off_c, 2, 51, 64
4, 76800, Note_off_c, 2, 63, 64
4, 76800, Note_on_c, 2, 63, 38
4, 76800, Note_on_c, 2, 51, 33
4, 77040, Note_off_c, 2, 51, 64
4, 77040, Note_off_c, 2, 63, 64
4, 81680, Note_on_c, 2, 63, 40
4, 81680, Note_on_c, 2, 51, 43
4, 81720, Note_off_c, 2, 51, 64
4, 81720, Note_off_c, 2, 63, 64
4, 81760, Note_on_c, 2, 63, 44
4, 81760, Note_on_c, 2, 51, 61
4, 81800, Note_off_c, 2, 51, 64
4, 81800, Note_off_c, 2, 63, 64
4, 81840, Note_on_c, 2, 63, 64
4, 81840, Note_on_c, 2, 51, 73
4, 81880, Note_off_c, 2, 51, 64
4, 81880, Note_off_c, 2, 63, 64
4, 81920, Note_on_c, 2, 63, 74
4, 81920, Note_on_c, 2, 51, 89
4, 81960, Note_off_c, 2, 51, 64
4, 81960, Note_off_c, 2, 63, 64
4, 82000, Note_on_c, 2, 63, 73
4, 82000, Note_on_c, 2, 51, 93
4, 82040, Note_off_c, 2, 51, 64
4, 82040, Note_off_c, 2, 63, 64
4, 82080, Note_on_c, 2, 63, 89
4, 82080, Note_on_c, 2, 51, 104
4, 82560, Note_off_c, 2, 51, 64
4, 82560, Note_off_c, 2, 63, 64
4, 82560, Note_on_c, 2, 63, 58
4, 82560, Note_on_c, 2, 51, 71
4, 82640, Note_off_c, 2, 51, 64
4, 82640, Note_off_c, 2, 63, 64
4, 82640, Note_on_c, 2, 63, 43
4, 82640, Note_on_c, 2, 51, 57
4, 82680, Note_off_c, 2, 51, 64
4, 82680, Note_off_c, 2, 63, 64
4, 82720, Note_on_c, 2, 63, 45
4, 82720, Note_on_c, 2, 51, 72
4, 82760, Note_off_c, 2, 51, 64
4, 82760, Note_off_c, 2, 63, 64
4, 82800, Note_on_c, 2, 63, 57
4, 82800, Note_on_c, 2, 51, 73
4, 82840, Note_off_c, 2, 51, 64
4, 82840, Note_off_c, 2, 63, 64
4, 82880, Note_on_c, 2, 63, 43
4, 82880, Note_on_c, 2, 51, 72
4, 82920, Note_off_c, 2, 51, 64
4, 82920, Note_off_c, 2, 63, 64
4, 82960, Note_on_c, 2, 63, 45
4, 82960, Note_on_c, 2, 51, 67
4, 83000, Note_off_c, 2, 51, 64
4, 83000, Note_off_c, 2, 63, 64
4, 83040, Note_on_c, 2, 63, 89
4, 83040, Note_on_c, 2, 51, 99
4, 83520, Note_off_c, 2, 51, 64
4, 83520, Note_off_c, 2, 63, 64
4, 83520, Note_on_c, 2, 63, 66
4, 83520, Note_on_c, 2, 51, 78
4, 83600, Note_off_c, 2, 51, 64
4, 83600, Note_off_c, 2, 63, 64
4, 83600, Note_on_c, 2, 63, 39
4, 83600, Note_on_c, 2, 51, 45
4, 83640, Note_off_c, 2, 51, 64
4, 83640, Note_off_c, 2, 63, 64
4, 83680, Note_on_c, 2, 63, 43
4, 83680, Note_on_c, 2, 51, 76
4, 83720, Note_off_c, 2, 51, 64
4, 83720, Note_off_c, 2, 63, 64
4, 83760, Note_on_c, 2, 63, 52
4, 83760, Note_on_c, 2, 51, 68
4, 83800, Note_off_c, 2, 51, 64
4, 83800, Note_off_c, 2, 63, 64
4, 83840, Note_on_c, 2, 63, 44
4, 83840, Note_on_c, 2, 51, 73
4, 83880, Note_off_c, 2, 51, 64
4, 83880, Note_off_c, 2, 63, 64
4, 83920, Note_on_c, 2, 63, 49
4, 83920, Note_on_c, 2, 51, 72
4, 83960, Note_off_c, 2, 51, 64
4, 83960, Note_off_c, 2, 63, 64
4, 84000, Note_on_c, 2, 63, 84
4, 84000, Note_on_c, 2, 51, 99
4, 84040, Note_off_c, 2, 51, 64
4, 84040, Note_off_c, 2, 63, 64
4, 84080, Note_on_c, 2, 63, 84
4, 84080, Note_on_c, 2, 51, 101
4, 84120, Note_off_c, 2, 51, 64
4, 84120, Note_off_c, 2, 63, 64
4, 84160, Note_on_c, 2, 63, 81
4, 84160, Note_on_c, 2, 51, 99
4, 84200, Note_off_c, 2, 51, 64
4, 84200, Note_off_c, 2, 63, 64
4, 84240, Note_on_c, 2, 63, 84
4, 84240, Note_on_c, 2, 51, 99
4, 84280, Note_off_c, 2, 51, 64
4, 84280, Note_off_c, 2, 63, 64
4, 84320, Note_on_c, 2, 63, 76
4, 84320, Note_on_c, 2, 51, 98
4, 84360, Note_off_c, 2, 51, 64
4, 84360, Note_off_c, 2, 63, 64
4, 84400, Note_on_c, 2, 63, 73
4, 84400, Note_on_c, 2, 51, 98
4, 84440, Note_off_c, 2, 51, 64
4, 84440, Note_off_c, 2, 63, 64
4, 84480, Note_on_c, 2, 58, 85
4, 84480, Note_on_c, 2, 46, 99
4, 84720, Note_off_c, 2, 46, 64
4, 84720, Note_off_c, 2, 58, 64
4, 84720, Note_on_c, 2, 58, 119
4, 84960, Note_off_c, 2, 58, 64
4, 85200, Note_on_c, 2, 65, 112
4, 85440, Note_off_c, 2, 65, 64
4, 85440, Note_on_c, 2, 68, 119
4, 85440, Note_on_c, 2, 65, 127
4, 85920, Note_off_c, 2, 65, 64
4, 85920, Note_off_c, 2, 68, 64
4, 85920, Note_on_c, 2, 68, 84
4, 85920, Note_on_c, 2, 63, 99
4, 86160, Note_off_c, 2, 63, 64
4, 86160, Note_off_c, 2, 68, 64
4, 86160, Note_on_c, 2, 63, 99
4, 86160, Note_on_c, 2, 51, 105
4, 86400, Note_off_c, 2, 51, 64
4, 86400, Note_off_c, 2, 63, 64
4, 86400, Note_on_c, 2, 63, 89
4, 86400, Note_on_c, 2, 51, 101
4, 86640, Note_off_c, 2, 51, 64
4, 86640, Note_off_c, 2, 63, 64
4, 90240, Note_on_c, 2, 63, 45
4, 90280, Note_off_c, 2, 63, 64
4, 90320, Note_on_c, 2, 63, 32
4, 90360, Note_off_c, 2, 63, 64
4, 90400, Note_on_c, 2, 63, 49
4, 90440, Note_off_c, 2, 63, 64
4, 90480, Note_on_c, 2, 63, 44
4, 90520, Note_off_c, 2, 63, 64
4, 90560, Note_on_c, 2, 63, 43
4, 90600, Note_off_c, 2, 63, 64
4, 90640, Note_on_c, 2, 63, 54
4, 90680, Note_off_c, 2, 63, 64
4, 90720, Note_on_c, 2, 63, 44
4, 90960, Note_off_c, 2, 63, 64
4, 108960, Note_on_c, 2, 63, 43
4, 109440, Note_off_c, 2, 63, 64
4, 109440, Note_on_c, 2, 63, 33
4, 109560, Note_off_c, 2, 63, 64
4, 112800, Note_on_c, 2, 63, 33
4, 112800, Note_on_c, 2, 51, 34
4, 113040, Note_off_c, 2, 51, 64
4, 113040, Note_off_c, 2, 63, 64
4, 113040, Note_on_c, 2, 63, 36
4, 113040, Note_on_c, 2, 51, 38
4, 113280, Note_off_c, 2, 51, 64
4, 113280, Note_off_c, 2, 63, 64
4, 113280, Note_on_c, 2, 63, 35
4, 113280, Note_on_c, 2, 51, 33
4, 114240, Note_off_c, 2, 51, 64
4, 114240, Note_off_c, 2, 63, 64
4, 114240, End_track
5, 0, Start_track
5, 0, Title_t, "Piano"
5, 0, Program_c, 3, 0
5, 0, Control_c, 3, 7, 120
5, 0, Control_c, 3, 10, 64
5, 0, Control_c, 3, 93, 0
5, 0, Control_c, 3, 91, 66
5, 0, Note_on_c, 3, 72, 29
5, 0, Note_on_c, 3, 63, 45
5, 0, Note_on_c, 3, 60, 41
5, 0, Note_on_c, 3, 56, 58
5, 0, Note_on_c, 3, 51, 71
5, 0, Note_on_c, 3, 44, 58
5, 480, Note_off_c, 3, 44, 64
5, 480, Note_off_c, 3, 51, 64
5, 480, Note_off_c, 3, 56, 64
5, 480, Note_off_c, 3, 60, 64
5, 480, Note_off_c, 3, 63, 64
5, 480, Note_off_c, 3, 72, 64
5, 480, Note_on_c, 3, 73, 48
5, 480, Note_on_c, 3, 51, 39
5, 480, Note_on_c, 3, 48, 64
5, 480, Note_on_c, 3, 44, 35
5, 600, Note_off_c, 3, 73, 64
5, 600, Note_on_c, 3, 72, 38
5, 720, Note_off_c, 3, 72, 64
5, 720, Note_off_c, 3, 44, 64
5, 720, Note_off_c, 3, 48, 64
5, 720, Note_off_c, 3, 51, 64
5, 720, Note_on_c, 3, 51, 40
5, 720, Note_on_c, 3, 48, 58
5, 720, Note_on_c, 3, 44, 43
5, 720, Note_on_c, 3, 70, 52
5, 840, Note_off_c, 3, 70, 64
5, 840, Note_on_c, 3, 68, 65
5, 960, Note_off_c, 3, 68, 64
5, 960, Note_off_c, 3, 44, 64
5, 960, Note_off_c, 3, 48, 64
5, 960, Note_off_c, 3, 51, 64
5, 960, Note_on_c, 3, 73, 61
5, 960, Note_on_c, 3, 51, 38
5, 960, Note_on_c, 3, 49, 57
5, 960, Note_on_c, 3, 46, 44
5, 1320, Note_off_c, 3, 73, 64
5, 1380, Note_on_c, 3, 70, 61
5, 1440, Note_off_c, 3, 70, 64
5, 1440, Note_on_c, 3, 67, 69
5, 1680, Note_off_c, 3, 67, 64
5, 1680, Note_off_c, 3, 46, 64
5, 1680, Note_off_c, 3, 49, 64
5, 1680, Note_off_c, 3, 51, 64
5, 1800, Note_on_c, 3, 63, 60
5, 1920, Note_off_c, 3, 63, 64
5, 1920, Note_on_c, 3, 68, 52
5, 1920, Note_on_c, 3, 63, 38
5, 1920, Note_on_c, 3, 60, 57
5, 2040, Note_off_c, 3, 68, 64
5, 2040, Note_on_c, 3, 70, 66
5, 2064, Note_off_c, 3, 70, 64
5, 2064, Note_on_c, 3, 68, 73
5, 2088, Note_off_c, 3, 68, 64
5, 2088, Note_on_c, 3, 67, 57
5, 2112, Note_off_c, 3, 67, 64
5, 2112, Note_on_c, 3, 68, 74
5, 2136, Note_off_c, 3, 68, 64
5, 2160, Note_off_c, 3, 60, 64
5, 2160, Note_off_c, 3, 63, 64
5, 2160, Note_on_c, 3, 72, 43
5, 2160, Note_on_c, 3, 63, 37
5, 2160, Note_on_c, 3, 56, 53
5, 2340, Note_off_c, 3, 72, 64
5, 2340, Note_on_c, 3, 70, 59
5, 2400, Note_off_c, 3, 70, 64
5, 2400, Note_off_c, 3, 56, 64
5, 2400, Note_off_c, 3, 63, 64
5, 2400, Note_on_c, 3, 70, 64
5, 2400, Note_on_c, 3, 63, 40
5, 2400, Note_on_c, 3, 55, 63
5, 2520, Note_off_c, 3, 70, 64
5, 2520, Note_on_c, 3, 72, 56
5, 2544, Note_off_c, 3, 72, 64
5, 2544, Note_on_c, 3, 70, 64
5, 2568, Note_off_c, 3, 70, 64
5, 2568, Note_on_c, 3, 69, 62
5, 2592, Note_off_c, 3, 69, 64
5, 2592, Note_on_c, 3, 70, 65
5, 2616, Note_off_c, 3, 70, 64
5, 2640, Note_off_c, 3, 55, 64
5, 2640, Note_off_c, 3, 63, 64
5, 2640, Note_on_c, 3, 63, 43
5, 2640, Note_on_c, 3, 51, 43
5, 2640, Note_on_c, 3, 73, 58
5, 2820, Note_off_c, 3, 73, 64
5, 2820, Note_on_c, 3, 72, 53
5, 2880, Note_off_c, 3, 72, 64
5, 2880, Note_off_c, 3, 51, 64
5, 2880, Note_off_c, 3, 63, 64
5, 2880, Note_on_c, 3, 72, 45
5, 2880, Note_on_c, 3, 68, 76
5, 2880, Note_on_c, 3, 63, 46
5, 2880, Note_on_c, 3, 56, 45
5, 3000, Note_off_c, 3, 68, 64
5, 3000, Note_off_c, 3, 72, 64
5, 3000, Note_on_c, 3, 75, 74
5, 3060, Note_off_c, 3, 75, 64
5, 3060, Note_on_c, 3, 74, 70
5, 3120, Note_off_c, 3, 74, 64
5, 3120, Note_off_c, 3, 56, 64
5, 3120, Note_off_c, 3, 63, 64
5, 3120, Note_on_c, 3, 77, 65
5, 3120, Note_on_c, 3, 68, 43
5, 3120, Note_on_c, 3, 60, 67
5, 3180, Note_off_c, 3, 77, 64
5, 3180, Note_on_c, 3, 75, 65
5, 3240, Note_off_c, 3, 75, 64
5, 3240, Note_on_c, 3, 73, 64
5, 3300, Note_off_c, 3, 73, 64
5, 3300, Note_on_c, 3, 72, 53
5, 3360, Note_off_c, 3, 72, 64
5, 3360, Note_off_c, 3, 60, 64
5, 3360, Note_off_c, 3, 68, 64
5, 3360, Note_on_c, 3, 69, 65
5, 3360, Note_on_c, 3, 67, 46
5, 3360, Note_on_c, 3, 63, 43
5, 3480, Note_off_c, 3, 69, 64
5, 3480, Note_on_c, 3, 70, 67
5, 3600, Note_off_c, 3, 70, 64
5, 3600, Note_off_c, 3, 63, 64
5, 3600, Note_off_c, 3, 67, 64
5, 3720, Note_on_c, 3, 63, 66
5, 3840, Note_off_c, 3, 63, 64
5, 3840, Note_on_c, 3, 72, 43
5, 3840, Note_on_c, 3, 63, 43
5, 3840, Note_on_c, 3, 60, 43
5, 3840, Note_on_c, 3, 56, 40
5, 3840, Note_on_c, 3, 51, 32
5, 3840, Note_on_c, 3, 44, 44
5, 4200, Note_off_c, 3, 72, 64
5, 4200, Note_on_c, 3, 70, 62
5, 4260, Note_off_c, 3, 70, 64
5, 4260, Note_on_c, 3, 72, 53
5, 4320, Note_off_c, 3, 72, 64
5, 4320, Note_on_c, 3, 73, 55
5, 4440, Note_off_c, 3, 73, 64
5, 4440, Note_on_c, 3, 72, 61
5, 4440, Note_on_c, 3, 48, 45
5, 4440, Note_on_c, 3, 44, 45
5, 4560, Note_off_c, 3, 44, 64
5, 4560, Note_off_c, 3, 48, 64
5, 4560, Note_off_c, 3, 72, 64
5, 4560, Note_off_c, 3, 44, 64
5, 4560, Note_off_c, 3, 51, 64
5, 4560, Note_off_c, 3, 56, 64
5, 4560, Note_off_c, 3, 60, 64
5, 4560, Note_off_c, 3, 63, 64
5, 4560, Note_on_c, 3, 70, 57
5, 4560, Note_on_c, 3, 49, 41
5, 4560, Note_on_c, 3, 46, 50
5, 4680, Note_off_c, 3, 46, 64
5, 4680, Note_off_c, 3, 49, 64
5, 4680, Note_off_c, 3, 70, 64
5, 4680, Note_on_c, 3, 68, 57
5, 4680, Note_on_c, 3, 51, 32
5, 4680, Note_on_c, 3, 48, 45
5, 4800, Note_off_c, 3, 48, 64
5, 4800, Note_off_c, 3, 51, 64
5, 4800, Note_off_c, 3, 68, 64
5, 4800, Note_on_c, 3, 67, 52
5, 4800, Note_on_c, 3, 53, 43
5, 4800, Note_on_c, 3, 49, 43
5, 4980, Note_off_c, 3, 67, 64
5, 5010, Note_on_c, 3, 65, 61
5, 5040, Note_off_c, 3, 65, 64
5, 5040, Note_on_c, 3, 80, 94
5, 5280, Note_off_c, 3, 49, 64
5, 5280, Note_off_c, 3, 53, 64
5, 5280, Note_on_c, 3, 56, 93
5, 5280, Note_on_c, 3, 53, 89
5, 5400, Note_off_c, 3, 80, 64
5, 5400, Note_on_c, 3, 79, 101
5, 5460, Note_off_c, 3, 79, 64
5, 5460, Note_on_c, 3, 80, 98
5, 5520, Note_off_c, 3, 80, 64
5, 5520, Note_off_c, 3, 53, 64
5, 5520, Note_off_c, 3, 56, 64
5, 5520, Note_on_c, 3, 61, 33
5, 5520, Note_on_c, 3, 49, 38
5, 5520, Note_on_c, 3, 82, 82
5, 5580, Note_off_c, 3, 82, 64
5, 5580, Note_on_c, 3, 80, 69
5, 5640, Note_off_c, 3, 80, 64
5, 5640, Note_on_c, 3, 79, 49
5, 5700, Note_off_c, 3, 79, 64
5, 5700, Note_on_c, 3, 77, 43
5, 5760, Note_off_c, 3, 77, 64
5, 5760, Note_off_c, 3, 49, 64
5, 5760, Note_off_c, 3, 61, 64
5, 5760, Note_on_c, 3, 60, 46
5, 5760, Note_on_c, 3, 56, 50
5, 5770, Note_on_c, 3, 75, 73
5, 5780, Note_off_c, 3, 75, 64
5, 5780, Note_on_c, 3, 77, 70
5, 5790, Note_off_c, 3, 77, 64
5, 5790, Note_on_c, 3, 75, 81
5, 5800, Note_off_c, 3, 75, 64
5, 5804, Note_on_c, 3, 74, 86
5, 5824, Note_off_c, 3, 74, 64
5, 5824, Note_on_c, 3, 75, 90
5, 5840, Note_on_c, 3, 80, 69
5, 5844, Note_off_c, 3, 75, 64
5, 5920, Note_off_c, 3, 80, 64
5, 5920, Note_on_c, 3, 76, 65
5, 6000, Note_off_c, 3, 76, 64
5, 6000, Note_off_c, 3, 56, 64
5, 6000, Note_off_c, 3, 60, 64
5, 6000, Note_on_c, 3, 77, 68
5, 6000, Note_on_c, 3, 58, 35
5, 6000, Note_on_c, 3, 56, 29
5, 6000, Note_on_c, 3, 49, 42
5, 6080, Note_off_c, 3, 77, 64
5, 6080, Note_on_c, 3, 73, 65
5, 6160, Note_off_c, 3, 73, 64
5, 6160, Note_on_c, 3, 70, 73
5, 6200, Note_off_c, 3, 70, 64
5, 6240, Note_off_c, 3, 49, 64
5, 6240, Note_off_c, 3, 56, 64
5, 6240, Note_off_c, 3, 58, 64
5, 6240, Note_on_c, 3, 68, 56
5, 6240, Note_on_c, 3, 60, 48
5, 6240, Note_on_c, 3, 56, 44
5, 6240, Note_on_c, 3, 51, 43
5, 6360, Note_off_c, 3, 68, 64
5, 6360, Note_on_c, 3, 70, 65
5, 6384, Note_off_c, 3, 70, 64
5, 6384, Note_on_c, 3, 68, 73
5, 6408, Note_off_c, 3, 68, 64
5, 6408, Note_on_c, 3, 67, 61
5, 6432, Note_off_c, 3, 67, 64
5, 6432, Note_on_c, 3, 68, 65
5, 6456, Note_off_c, 3, 68, 64
5, 6480, Note_off_c, 3, 51, 64
5, 6480, Note_off_c, 3, 56, 64
5, 6480, Note_off_c, 3, 60, 64
5, 6480, Note_on_c, 3, 61, 38
5, 6480, Note_on_c, 3, 55, 59
5, 6480, Note_on_c, 3, 51, 43
5, 6480, Note_on_c, 3, 72, 59
5, 6660, Note_off_c, 3, 72, 64
5, 6660, Note_on_c, 3, 70, 70
5, 6720, Note_off_c, 3, 70, 64
5, 6720, Note_off_c, 3, 51, 64
5, 6720, Note_off_c, 3, 55, 64
5, 6720, Note_off_c, 3, 61, 64
5, 6720, Note_on_c, 3, 70, 45
5, 6720, Note_on_c, 3, 61, 41
5, 6720, Note_on_c, 3, 55, 52
5, 6720, Note_on_c, 3, 51, 43
5, 6720, Note_on_c, 3, 44, 40
5, 6960, Note_off_c, 3, 55, 64
5, 6960, Note_off_c, 3, 61, 64
5, 6960, Note_off_c, 3, 70, 64
5, 6960, Note_on_c, 3, 68, 43
5, 6960, Note_on_c, 3, 60, 43
5, 6960, Note_on_c, 3, 56, 60
5, 7080, Note_off_c, 3, 56, 64
5, 7080, Note_off_c, 3, 60, 64
5, 7080, Note_off_c, 3, 68, 64
5, 7080, Note_off_c, 3, 44, 64
5, 7080, Note_off_c, 3, 51, 64
5, 16920, Note_on_c, 3, 75, 69
5, 17040, Note_off_c, 3, 75, 64
5, 17040, Note_on_c, 3, 80, 52
5, 17160, Note_off_c, 3, 80, 64
5, 17160, Note_on_c, 3, 84, 62
5, 17280, Note_off_c, 3, 84, 64
5, 17280, Note_on_c, 3, 87, 60
5, 17280, Note_on_c, 3, 55, 45
5, 17280, Note_on_c, 3, 43, 52
5, 17520, Note_off_c, 3, 43, 64
5, 17520, Note_off_c, 3, 55, 64
5, 17760, Note_off_c, 3, 87, 64
5, 17760, Note_on_c, 3, 86, 69
5, 17760, Note_on_c, 3, 51, 48
5, 17760, Note_on_c, 3, 39, 47
5, 17820, Note_off_c, 3, 86, 64
5, 17820, Note_on_c, 3, 87, 40
5, 17880, Note_off_c, 3, 87, 64
5, 17880, Note_on_c, 3, 89, 67
5, 17940, Note_off_c, 3, 89, 64
5, 17940, Note_on_c, 3, 87, 58
5, 18000, Note_off_c, 3, 87, 64
5, 18000, Note_off_c, 3, 39, 64
5, 18000, Note_off_c, 3, 51, 64
5, 18000, Note_on_c, 3, 87, 61
5, 18060, Note_off_c, 3, 87, 64
5, 18060, Note_on_c, 3, 85, 53
5, 18120, Note_off_c, 3, 85, 64
5, 18120, Note_on_c, 3, 84, 58
5, 18180, Note_off_c, 3, 84, 64
5, 18180, Note_on_c, 3, 82, 61
5, 18240, Note_off_c, 3, 82, 64
5, 18240, Note_on_c, 3, 80, 62
5, 18240, Note_on_c, 3, 56, 51
5, 18240, Note_on_c, 3, 44, 43
5, 18264, Note_off_c, 3, 80, 64
5, 18264, Note_on_c, 3, 82, 54
5, 18288, Note_off_c, 3, 82, 64
5, 18288, Note_on_c, 3, 80, 68
5, 18312, Note_off_c, 3, 80, 64
5, 18312, Note_on_c, 3, 79, 53
5, 18336, Note_off_c, 3, 79, 64
5, 18336, Note_on_c, 3, 80, 67
5, 18360, Note_off_c, 3, 80, 64
5, 18360, Note_on_c, 3, 84, 62
5, 18420, Note_off_c, 3, 84, 64
5, 18420, Note_on_c, 3, 80, 72
5, 18480, Note_off_c, 3, 80, 64
5, 18480, Note_off_c, 3, 44, 64
5, 18480, Note_off_c, 3, 56, 64
5, 18480, Note_on_c, 3, 75, 61
5, 18504, Note_off_c, 3, 75, 64
5, 18504, Note_on_c, 3, 77, 62
5, 18528, Note_off_c, 3, 77, 64
5, 18528, Note_on_c, 3, 75, 58
5, 18552, Note_off_c, 3, 75, 64
5, 18552, Note_on_c, 3, 74, 64
5, 18576, Note_off_c, 3, 74, 64
5, 18576, Note_on_c, 3, 75, 71
5, 18600, Note_off_c, 3, 75, 64
5, 18600, Note_on_c, 3, 80, 68
5, 18660, Note_off_c, 3, 80, 64
5, 18660, Note_on_c, 3, 75, 77
5, 18720, Note_off_c, 3, 75, 64
5, 18720, Note_on_c, 3, 72, 44
5, 18744, Note_off_c, 3, 72, 64
5, 18744, Note_on_c, 3, 73, 45
5, 18768, Note_off_c, 3, 73, 64
5, 18768, Note_on_c, 3, 72, 58
5, 18792, Note_off_c, 3, 72, 64
5, 18792, Note_on_c, 3, 71, 64
5, 18816, Note_off_c, 3, 71, 64
5, 18816, Note_on_c, 3, 72, 44
5, 18840, Note_off_c, 3, 72, 64
5, 18840, Note_on_c, 3, 75, 73
5, 18900, Note_off_c, 3, 75, 64
5, 18900, Note_on_c, 3, 72, 45
5, 18960, Note_off_c, 3, 72, 64
5, 18960, Note_on_c, 3, 68, 71
5, 19020, Note_off_c, 3, 68, 64
5, 19020, Note_on_c, 3, 69, 57
5, 19080, Note_off_c, 3, 69, 64
5, 19080, Note_on_c, 3, 70, 76
5, 19140, Note_off_c, 3, 70, 64
5, 19140, Note_on_c, 3, 71, 72
5, 19200, Note_off_c, 3, 71, 64
5, 19200, Note_on_c, 3, 72, 70
5, 19200, Note_on_c, 3, 52, 44
5, 19200, Note_on_c, 3, 40, 42
5, 19410, Note_on_c, 3, 72, 72
5, 19440, Note_off_c, 3, 72, 64
5, 19440, Note_off_c, 3, 40, 64
5, 19440, Note_off_c, 3, 52, 64
5, 19440, Note_off_c, 3, 72, 64
5, 19440, Note_on_c, 3, 84, 99
5, 19680, Note_off_c, 3, 84, 64
5, 19680, Note_on_c, 3, 48, 65
5, 19680, Note_on_c, 3, 36, 76
5, 19740, Note_on_c, 3, 83, 90
5, 19800, Note_off_c, 3, 83, 64
5, 19800, Note_on_c, 3, 85, 84
5, 19860, Note_off_c, 3, 85, 64
5, 19860, Note_on_c, 3, 84, 94
5, 19920, Note_off_c, 3, 84, 64
5, 19920, Note_off_c, 3, 36, 64
5, 19920, Note_off_c, 3, 48, 64
5, 19920, Note_on_c, 3, 84, 94
5, 19980, Note_off_c, 3, 84, 64
5, 19980, Note_on_c, 3, 82, 90
5, 20040, Note_off_c, 3, 82, 64
5, 20040, Note_on_c, 3, 80, 89
5, 20100, Note_off_c, 3, 80, 64
5, 20100, Note_on_c, 3, 79, 94
5, 20160, Note_off_c, 3, 79, 64
5, 20160, Note_on_c, 3, 79, 84
5, 20160, Note_on_c, 3, 53, 49
5, 20160, Note_on_c, 3, 41, 55
5, 20200, Note_off_c, 3, 79, 64
5, 20200, Note_on_c, 3, 80, 86
5, 20240, Note_off_c, 3, 80, 64
5, 20240, Note_on_c, 3, 83, 94
5, 20280, Note_off_c, 3, 83, 64
5, 20280, Note_on_c, 3, 84, 86
5, 20300, Note_off_c, 3, 84, 64
5, 20320, Note_on_c, 3, 76, 93
5, 20360, Note_off_c, 3, 76, 64
5, 20360, Note_on_c, 3, 77, 90
5, 20400, Note_off_c, 3, 77, 64
5, 20400, Note_off_c, 3, 41, 64
5, 20400, Note_off_c, 3, 53, 64
5, 20400, Note_on_c, 3, 80, 86
5, 20420, Note_off_c, 3, 80, 64
5, 20440, Note_on_c, 3, 71, 93
5, 20480, Note_off_c, 3, 71, 64
5, 20480, Note_on_c, 3, 72, 81
5, 20520, Note_off_c, 3, 72, 64
5, 20520, Note_on_c, 3, 77, 85
5, 20540, Note_off_c, 3, 77, 64
5, 20560, Note_on_c, 3, 67, 86
5, 20600, Note_off_c, 3, 67, 64
5, 20600, Note_on_c, 3, 68, 99
5, 20640, Note_off_c, 3, 68, 64
5, 20640, Note_on_c, 3, 72, 61
5, 20660, Note_off_c, 3, 72, 64
5, 20680, Note_on_c, 3, 64, 101
5, 20720, Note_off_c, 3, 64, 64
5, 20720, Note_on_c, 3, 65, 99
5, 20760, Note_off_c, 3, 65, 64
5, 20760, Note_on_c, 3, 68, 89
5, 20780, Note_off_c, 3, 68, 64
5, 20800, Note_on_c, 3, 59, 94
5, 20840, Note_off_c, 3, 59, 64
5, 20840, Note_on_c, 3, 60, 95
5, 20880, Note_off_c, 3, 60, 64
5, 20880, Note_on_c, 3, 65, 95
5, 20900, Note_off_c, 3, 65, 64
5, 20920, Note_on_c, 3, 55, 89
5, 20960, Note_off_c, 3, 55, 64
5, 20960, Note_on_c, 3, 56, 89
5, 21000, Note_off_c, 3, 56, 64
5, 21000, Note_on_c, 3, 60, 86
5, 21040, Note_off_c, 3, 60, 64
5, 21040, Note_on_c, 3, 56, 90
5, 21080, Note_off_c, 3, 56, 64
5, 21080, Note_on_c, 3, 53, 98
5, 21120, Note_off_c, 3, 53, 64
5, 21120, Note_on_c, 3, 50, 80
5, 21240, Note_off_c, 3, 50, 64
5, 21330, Note_on_c, 3, 77, 94
5, 21360, Note_off_c, 3, 77, 64
5, 21360, Note_on_c, 3, 89, 99
5, 21600, Note_off_c, 3, 89, 64
5, 21600, Note_on_c, 3, 46, 65
5, 21600, Note_on_c, 3, 34, 80
5, 21660, Note_on_c, 3, 87, 98
5, 21720, Note_off_c, 3, 87, 64
5, 21720, Note_on_c, 3, 86, 98
5, 21780, Note_off_c, 3, 86, 64
5, 21780, Note_on_c, 3, 87, 89
5, 21840, Note_off_c, 3, 87, 64
5, 21840, Note_off_c, 3, 34, 64
5, 21840, Note_off_c, 3, 46, 64
5, 21840, Note_on_c, 3, 86, 73
5, 21900, Note_off_c, 3, 86, 64
5, 21900, Note_on_c, 3, 84, 62
5, 21960, Note_off_c, 3, 84, 64
5, 21960, Note_on_c, 3, 82, 63
5, 22020, Note_off_c, 3, 82, 64
5, 22020, Note_on_c, 3, 80, 54
5, 22080, Note_off_c, 3, 80, 64
5, 22080, Note_on_c, 3, 79, 46
5, 22080, Note_on_c, 3, 51, 43
5, 22080, Note_on_c, 3, 39, 40
5, 22110, Note_off_c, 3, 79, 64
5, 22110, Note_on_c, 3, 82, 63
5, 22140, Note_off_c, 3, 82, 64
5, 22140, Note_on_c, 3, 80, 53
5, 22170, Note_off_c, 3, 80, 64
5, 22170, Note_on_c, 3, 79, 54
5, 22200, Note_off_c, 3, 79, 64
5, 22200, Note_on_c, 3, 80, 54
5, 22230, Note_off_c, 3, 80, 64
5, 22230, Note_on_c, 3, 82, 62
5, 22260, Note_off_c, 3, 82, 64
5, 22260, Note_on_c, 3, 84, 58
5, 22290, Note_off_c, 3, 84, 64
5, 22290, Note_on_c, 3, 86, 68
5, 22320, Note_off_c, 3, 86, 64
5, 22320, Note_off_c, 3, 39, 64
5, 22320, Note_off_c, 3, 51, 64
5, 22320, Note_on_c, 3, 87, 72
5, 22560, Note_off_c, 3, 87, 64
5, 22560, Note_on_c, 3, 87, 46
5, 22560, Note_on_c, 3, 48, 66
5, 22620, Note_off_c, 3, 87, 64
5, 22620, Note_on_c, 3, 87, 54
5, 22632, Note_off_c, 3, 87, 64
5, 22632, Note_on_c, 3, 89, 72
5, 22644, Note_off_c, 3, 89, 64
5, 22644, Note_on_c, 3, 87, 66
5, 22656, Note_off_c, 3, 87, 64
5, 22656, Note_on_c, 3, 86, 62
5, 22668, Note_off_c, 3, 86, 64
5, 22668, Note_on_c, 3, 87, 72
5, 22680, Note_off_c, 3, 87, 64
5, 22680, Note_off_c, 3, 48, 64
5, 22680, Note_on_c, 3, 89, 86
5, 22680, Note_on_c, 3, 51, 90
5, 22740, Note_off_c, 3, 89, 64
5, 22740, Note_on_c, 3, 87, 84
5, 22800, Note_off_c, 3, 87, 64
5, 22800, Note_off_c, 3, 51, 64
5, 22800, Note_on_c, 3, 85, 81
5, 22800, Note_on_c, 3, 57, 89
5, 22860, Note_off_c, 3, 85, 64
5, 22860, Note_on_c, 3, 84, 89
5, 22920, Note_off_c, 3, 84, 64
5, 22920, Note_off_c, 3, 57, 64
5, 22920, Note_on_c, 3, 82, 86
5, 22920, Note_on_c, 3, 51, 89
5, 22920, Note_on_c, 3, 48, 99
5, 22980, Note_off_c, 3, 82, 64
5, 22980, Note_on_c, 3, 81, 93
5, 23040, Note_off_c, 3, 81, 64
5, 23040, Note_off_c, 3, 48, 64
5, 23040, Note_off_c, 3, 51, 64
5, 23040, Note_on_c, 3, 82, 93
5, 23040, Note_on_c, 3, 53, 94
5, 23040, Note_on_c, 3, 46, 101
5, 23160, Note_off_c, 3, 46, 64
5, 23160, Note_off_c, 3, 53, 64
5, 23160, Note_off_c, 3, 82, 64
5, 27900, Note_on_c, 3, 75, 84
5, 27960, Note_off_c, 3, 75, 64
5, 27960, Note_on_c, 3, 74, 93
5, 28020, Note_off_c, 3, 74, 64
5, 28020, Note_on_c, 3, 75, 90
5, 28080, Note_off_c, 3, 75, 64
5, 28080, Note_on_c, 3, 77, 82
5, 28140, Note_off_c, 3, 77, 64
5, 28140, Note_on_c, 3, 75, 89
5, 28200, Note_off_c, 3, 75, 64
5, 28200, Note_on_c, 3, 79, 81
5, 28290, Note_off_c, 3, 79, 64
5, 28290, Note_on_c, 3, 75, 94
5, 28320, Note_off_c, 3, 75, 64
5, 28320, Note_on_c, 3, 70, 69
5, 28440, Note_off_c, 3, 70, 64
5, 28860, Note_on_c, 3, 77, 73
5, 28920, Note_off_c, 3, 77, 64
5, 28920, Note_on_c, 3, 76, 78
5, 28980, Note_off_c, 3, 76, 64
5, 28980, Note_on_c, 3, 77, 68
5, 29040, Note_off_c, 3, 77, 64
5, 29040, Note_on_c, 3, 79, 81
5, 29100, Note_off_c, 3, 79, 64
5, 29100, Note_on_c, 3, 77, 74
5, 29160, Note_off_c, 3, 77, 64
5, 29160, Note_on_c, 3, 80, 78
5, 29250, Note_off_c, 3, 80, 64
5, 29250, Note_on_c, 3, 77, 77
5, 29280, Note_off_c, 3, 77, 64
5, 29280, Note_on_c, 3, 70, 81
5, 29400, Note_off_c, 3, 70, 64
5, 29760, Note_on_c, 3, 58, 45
5, 29760, Note_on_c, 3, 55, 71
5, 29760, Note_on_c, 3, 51, 61
5, 29800, Note_on_c, 3, 87, 81
5, 29840, Note_off_c, 3, 87, 64
5, 29840, Note_on_c, 3, 87, 85
5, 29880, Note_off_c, 3, 87, 64
5, 29880, Note_on_c, 3, 87, 81
5, 29920, Note_off_c, 3, 87, 64
5, 29920, Note_on_c, 3, 82, 77
5, 29960, Note_off_c, 3, 82, 64
5, 29960, Note_on_c, 3, 82, 80
5, 29980, Note_off_c, 3, 82, 64
5, 30000, Note_off_c, 3, 51, 64
5, 30000, Note_off_c, 3, 55, 64
5, 30000, Note_off_c, 3, 58, 64
5, 30000, Note_on_c, 3, 82, 80
5, 30040, Note_off_c, 3, 82, 64
5, 30040, Note_on_c, 3, 79, 81
5, 30080, Note_off_c, 3, 79, 64
5, 30080, Note_on_c, 3, 79, 84
5, 30100, Note_off_c, 3, 79, 64
5, 30120, Note_on_c, 3, 79, 80
5, 30160, Note_off_c, 3, 79, 64
5, 30160, Note_on_c, 3, 75, 90
5, 30200, Note_off_c, 3, 75, 64
5, 30200, Note_on_c, 3, 75, 93
5, 30220, Note_off_c, 3, 75, 64
5, 30240, Note_on_c, 3, 75, 90
5, 30280, Note_off_c, 3, 75, 64
5, 30280, Note_on_c, 3, 70, 89
5, 30320, Note_off_c, 3, 70, 64
5, 30320, Note_on_c, 3, 70, 85
5, 30340, Note_off_c, 3, 70, 64
5, 30360, Note_on_c, 3, 70, 80
5, 30374, Note_on_c, 3, 72, 67
5, 30376, Note_off_c, 3, 70, 64
5, 30390, Note_off_c, 3, 72, 64
5, 30390, Note_on_c, 3, 70, 73
5, 30404, Note_on_c, 3, 72, 64
5, 30406, Note_off_c, 3, 70, 64
5, 30420, Note_off_c, 3, 72, 64
5, 30420, Note_on_c, 3, 70, 80
5, 30434, Note_on_c, 3, 72, 64
5, 30436, Note_off_c, 3, 70, 64
5, 30450, Note_off_c, 3, 72, 64
5, 30450, Note_on_c, 3, 70, 73
5, 30464, Note_on_c, 3, 72, 72
5, 30466, Note_off_c, 3, 70, 64
5, 30480, Note_off_c, 3, 72, 64
5, 30480, Note_on_c, 3, 70, 74
5, 30494, Note_on_c, 3, 72, 61
5, 30496, Note_off_c, 3, 70, 64
5, 30510, Note_off_c, 3, 72, 64
5, 30510, Note_on_c, 3, 70, 77
5, 30524, Note_on_c, 3, 72, 68
5, 30526, Note_off_c, 3, 70, 64
5, 30540, Note_off_c, 3, 72, 64
5, 30540, Note_on_c, 3, 70, 81
5, 30554, Note_on_c, 3, 72, 69
5, 30556, Note_off_c, 3, 70, 64
5, 30570, Note_off_c, 3, 72, 64
5, 30570, Note_on_c, 3, 70, 78
5, 30584, Note_on_c, 3, 72, 71
5, 30586, Note_off_c, 3, 70, 64
5, 30600, Note_off_c, 3, 72, 64
5, 30600, Note_on_c, 3, 70, 78
5, 30616, Note_off_c, 3, 70, 64
5, 30660, Note_on_c, 3, 69, 77
5, 30690, Note_off_c, 3, 69, 64
5, 30690, Note_on_c, 3, 70, 76
5, 30720, Note_off_c, 3, 70, 64
5, 30720, Note_on_c, 3, 58, 40
5, 30720, Note_on_c, 3, 56, 64
5, 30720, Note_on_c, 3, 50, 73
5, 30760, Note_on_c, 3, 89, 84
5, 30800, Note_off_c, 3, 89, 64
5, 30800, Note_on_c, 3, 89, 80
5, 30840, Note_off_c, 3, 89, 64
5, 30840, Note_on_c, 3, 89, 85
5, 30880, Note_off_c, 3, 89, 64
5, 30880, Note_on_c, 3, 82, 76
5, 30920, Note_off_c, 3, 82, 64
5, 30920, Note_on_c, 3, 82, 81
5, 30940, Note_off_c, 3, 82, 64
5, 30960, Note_off_c, 3, 50, 64
5, 30960, Note_off_c, 3, 56, 64
5, 30960, Note_off_c, 3, 58, 64
5, 30960, Note_on_c, 3, 82, 81
5, 31000, Note_off_c, 3, 82, 64
5, 31000, Note_on_c, 3, 77, 85
5, 31040, Note_off_c, 3, 77, 64
5, 31040, Note_on_c, 3, 77, 82
5, 31060, Note_off_c, 3, 77, 64
5, 31080, Note_on_c, 3, 77, 86
5, 31120, Note_off_c, 3, 77, 64
5, 31120, Note_on_c, 3, 70, 84
5, 31160, Note_off_c, 3, 70, 64
5, 31160, Note_on_c, 3, 70, 78
5, 31180, Note_off_c, 3, 70, 64
5, 31200, Note_on_c, 3, 70, 89
5, 31440, Note_off_c, 3, 70, 64
5, 31440, Note_on_c, 3, 68, 84
5, 31454, Note_on_c, 3, 70, 77
5, 31456, Note_off_c, 3, 68, 64
5, 31470, Note_off_c, 3, 70, 64
5, 31470, Note_on_c, 3, 68, 77
5, 31484, Note_on_c, 3, 70, 80
5, 31486, Note_off_c, 3, 68, 64
5, 31500, Note_off_c, 3, 70, 64
5, 31500, Note_on_c, 3, 68, 74
5, 31514, Note_on_c, 3, 70, 76
5, 31516, Note_off_c, 3, 68, 64
5, 31530, Note_off_c, 3, 70, 64
5, 31530, Note_on_c, 3, 68, 76
5, 31544, Note_on_c, 3, 70, 74
5, 31546, Note_off_c, 3, 68, 64
5, 31560, Note_off_c, 3, 70, 64
5, 31560, Note_on_c, 3, 68, 80
5, 31574, Note_on_c, 3, 70, 78
5, 31576, Note_off_c, 3, 68, 64
5, 31590, Note_off_c, 3, 70, 64
5, 31590, Note_on_c, 3, 68, 73
5, 31604, Note_on_c, 3, 70, 81
5, 31606, Note_off_c, 3, 68, 64
5, 31620, Note_off_c, 3, 70, 64
5, 31620, Note_on_c, 3, 68, 82
5, 31634, Note_on_c, 3, 70, 84
5, 31636, Note_off_c, 3, 68, 64
5, 31650, Note_off_c, 3, 70, 64
5, 31650, Note_on_c, 3, 68, 84
5, 31666, Note_off_c, 3, 68, 64
5, 31680, Note_on_c, 3, 67, 85
5, 31680, Note_on_c, 3, 51, 76
5, 31740, Note_off_c, 3, 51, 64
5, 31740, Note_on_c, 3, 58, 64
5, 31800, Note_off_c, 3, 58, 64
5, 31800, Note_off_c, 3, 67, 64
5, 31800, Note_on_c, 3, 70, 85
5, 31800, Note_on_c, 3, 63, 46
5, 31860, Note_off_c, 3, 63, 64
5, 31860, Note_on_c, 3, 58, 69
5, 31920, Note_off_c, 3, 58, 64
5, 31920, Note_on_c, 3, 63, 54
5, 31980, Note_off_c, 3, 63, 64
5, 31980, Note_on_c, 3, 58, 58
5, 32040, Note_off_c, 3, 58, 64
5, 32040, Note_off_c, 3, 70, 64
5, 32040, Note_on_c, 3, 75, 84
5, 32040, Note_on_c, 3, 55, 63
5, 32100, Note_off_c, 3, 55, 64
5, 32100, Note_on_c, 3, 58, 73
5, 32160, Note_off_c, 3, 58, 64
5, 32160, Note_on_c, 3, 55, 72
5, 32220, Note_off_c, 3, 55, 64
5, 32220, Note_on_c, 3, 58, 62
5, 32280, Note_off_c, 3, 58, 64
5, 32280, Note_off_c, 3, 75, 64
5, 32280, Note_on_c, 3, 79, 81
5, 32280, Note_on_c, 3, 63, 54
5, 32340, Note_off_c, 3, 63, 64
5, 32340, Note_on_c, 3, 58, 56
5, 32400, Note_off_c, 3, 58, 64
5, 32400, Note_off_c, 3, 79, 64
5, 32400, Note_on_c, 3, 82, 81
5, 32400, Note_on_c, 3, 63, 43
5, 32460, Note_off_c, 3, 63, 64
5, 32460, Note_on_c, 3, 58, 64
5, 32520, Note_off_c, 3, 58, 64
5, 32520, Note_off_c, 3, 82, 64
5, 32520, Note_on_c, 3, 87, 81
5, 32520, Note_on_c, 3, 55, 69
5, 32580, Note_off_c, 3, 55, 64
5, 32580, Note_on_c, 3, 58, 53
5, 32640, Note_off_c, 3, 58, 64
5, 32640, Note_off_c, 3, 87, 64
5, 32640, Note_on_c, 3, 87, 82
5, 32640, Note_on_c, 3, 56, 65
5, 32700, Note_off_c, 3, 56, 64
5, 32700, Note_on_c, 3, 60, 62
5, 32760, Note_off_c, 3, 60, 64
5, 32760, Note_on_c, 3, 63, 46
5, 32820, Note_off_c, 3, 63, 64
5, 32820, Note_off_c, 3, 87, 64
5, 32820, Note_on_c, 3, 60, 68
5, 32850, Note_on_c, 3, 77, 80
5, 32880, Note_off_c, 3, 77, 64
5, 32880, Note_off_c, 3, 60, 64
5, 32880, Note_on_c, 3, 77, 80
5, 32880, Note_on_c, 3, 63, 64
5, 32940, Note_off_c, 3, 63, 64
5, 32940, Note_on_c, 3, 60, 67
5, 33000, Note_off_c, 3, 60, 64
5, 33000, Note_on_c, 3, 56, 40
5, 33060, Note_off_c, 3, 56, 64
5, 33060, Note_on_c, 3, 60, 62
5, 33120, Note_off_c, 3, 60, 64
5, 33120, Note_on_c, 3, 57, 76
5, 33180, Note_off_c, 3, 57, 64
5, 33180, Note_on_c, 3, 60, 77
5, 33240, Note_off_c, 3, 60, 64
5, 33240, Note_off_c, 3, 77, 64
5, 33240, Note_on_c, 3, 87, 76
5, 33240, Note_on_c, 3, 63, 60
5, 33300, Note_off_c, 3, 63, 64
5, 33300, Note_off_c, 3, 87, 64
5, 33300, Note_on_c, 3, 86, 76
5, 33300, Note_on_c, 3, 60, 84
5, 33360, Note_off_c, 3, 60, 64
5, 33360, Note_off_c, 3, 86, 64
5, 33360, Note_on_c, 3, 89, 76
5, 33360, Note_on_c, 3, 57, 84
5, 33420, Note_off_c, 3, 57, 64
5, 33420, Note_off_c, 3, 89, 64
5, 33420, Note_on_c, 3, 87, 76
5, 33420, Note_on_c, 3, 63, 67
5, 33480, Note_off_c, 3, 63, 64
5, 33480, Note_off_c, 3, 87, 64
5, 33480, Note_on_c, 3, 86, 77
5, 33480, Note_on_c, 3, 65, 72
5, 33540, Note_off_c, 3, 65, 64
5, 33540, Note_off_c, 3, 86, 64
5, 33540, Note_on_c, 3, 84, 66
5, 33540, Note_on_c, 3, 63, 70
5, 33600, Note_off_c, 3, 63, 64
5, 33600, Note_off_c, 3, 84, 64
5, 33600, Note_on_c, 3, 82, 77
5, 33600, Note_on_c, 3, 58, 78
5, 33660, Note_off_c, 3, 58, 64
5, 33660, Note_on_c, 3, 84, 84
5, 33660, Note_on_c, 3, 63, 63
5, 33680, Note_off_c, 3, 84, 64
5, 33680, Note_on_c, 3, 82, 77
5, 33700, Note_off_c, 3, 82, 64
5, 33700, Note_on_c, 3, 81, 78
5, 33720, Note_off_c, 3, 81, 64
5, 33720, Note_off_c, 3, 82, 64
5, 33720, Note_off_c, 3, 63, 64
5, 33720, Note_on_c, 3, 82, 73
5, 33720, Note_on_c, 3, 67, 60
5, 33740, Note_off_c, 3, 82, 64
5, 33780, Note_off_c, 3, 67, 64
5, 33780, Note_on_c, 3, 87, 84
5, 33780, Note_on_c, 3, 63, 59
5, 33840, Note_off_c, 3, 63, 64
5, 33840, Note_off_c, 3, 87, 64
5, 33840, Note_on_c, 3, 79, 80
5, 33840, Note_on_c, 3, 67, 62
5, 33900, Note_off_c, 3, 67, 64
5, 33900, Note_on_c, 3, 63, 65
5, 33960, Note_off_c, 3, 63, 64
5, 33960, Note_on_c, 3, 58, 64
5, 34020, Note_off_c, 3, 58, 64
5, 34020, Note_on_c, 3, 67, 65
5, 34080, Note_off_c, 3, 67, 64
5, 34080, Note_on_c, 3, 58, 73
5, 34140, Note_off_c, 3, 58, 64
5, 34140, Note_on_c, 3, 62, 77
5, 34200, Note_off_c, 3, 62, 64
5, 34200, Note_off_c, 3, 79, 64
5, 34200, Note_on_c, 3, 84, 76
5, 34200, Note_on_c, 3, 68, 67
5, 34260, Note_off_c, 3, 68, 64
5, 34260, Note_off_c, 3, 84, 64
5, 34260, Note_on_c, 3, 82, 81
5, 34260, Note_on_c, 3, 62, 84
5, 34320, Note_off_c, 3, 62, 64
5, 34320, Note_off_c, 3, 82, 64
5, 34320, Note_on_c, 3, 82, 77
5, 34320, Note_on_c, 3, 68, 65
5, 34380, Note_off_c, 3, 68, 64
5, 34380, Note_off_c, 3, 82, 64
5, 34380, Note_on_c, 3, 80, 73
5, 34380, Note_on_c, 3, 62, 80
5, 34440, Note_off_c, 3, 62, 64
5, 34440, Note_off_c, 3, 80, 64
5, 34440, Note_on_c, 3, 79, 82
5, 34440, Note_on_c, 3, 58, 80
5, 34500, Note_off_c, 3, 58, 64
5, 34500, Note_off_c, 3, 79, 64
5, 34500, Note_on_c, 3, 77, 72
5, 34500, Note_on_c, 3, 62, 80
5, 34560, Note_off_c, 3, 62, 64
5, 34560, Note_off_c, 3, 77, 64
5, 34560, Note_on_c, 3, 78, 72
5, 34560, Note_on_c, 3, 51, 70
5, 34680, Note_off_c, 3, 51, 64
5, 34680, Note_off_c, 3, 78, 64
5, 34680, Note_on_c, 3, 79, 80
5, 34680, Note_on_c, 3, 58, 42
5, 34800, Note_off_c, 3, 58, 64
5, 34800, Note_off_c, 3, 79, 64
5, 35520, Note_on_c, 3, 63, 86
5, 35520, Note_on_c, 3, 43, 76
5, 35580, Note_off_c, 3, 43, 64
5, 35580, Note_on_c, 3, 51, 52
5, 35610, Note_off_c, 3, 63, 64
5, 35624, Note_on_c, 3, 63, 89
5, 35640, Note_off_c, 3, 63, 64
5, 35640, Note_off_c, 3, 51, 64
5, 35640, Note_on_c, 3, 67, 78
5, 35640, Note_on_c, 3, 46, 73
5, 35700, Note_off_c, 3, 46, 64
5, 35700, Note_on_c, 3, 51, 50
5, 35730, Note_off_c, 3, 67, 64
5, 35730, Note_on_c, 3, 63, 89
5, 35744, Note_on_c, 3, 67, 84
5, 35746, Note_off_c, 3, 63, 64
5, 35760, Note_off_c, 3, 67, 64
5, 35760, Note_off_c, 3, 51, 64
5, 35760, Note_on_c, 3, 70, 94
5, 35760, Note_on_c, 3, 43, 47
5, 35820, Note_off_c, 3, 43, 64
5, 35820, Note_on_c, 3, 51, 45
5, 35850, Note_off_c, 3, 70, 64
5, 35850, Note_on_c, 3, 67, 94
5, 35864, Note_on_c, 3, 70, 90
5, 35866, Note_off_c, 3, 67, 64
5, 35880, Note_off_c, 3, 70, 64
5, 35880, Note_off_c, 3, 51, 64
5, 35880, Note_on_c, 3, 75, 89
5, 35880, Note_on_c, 3, 46, 38
5, 35940, Note_off_c, 3, 46, 64
5, 35940, Note_on_c, 3, 51, 43
5, 35970, Note_off_c, 3, 75, 64
5, 35970, Note_on_c, 3, 70, 98
5, 35984, Note_on_c, 3, 75, 94
5, 35986, Note_off_c, 3, 70, 64
5, 36000, Note_off_c, 3, 75, 64
5, 36000, Note_off_c, 3, 51, 64
5, 36000, Note_on_c, 3, 79, 86
5, 36000, Note_on_c, 3, 43, 59
5, 36020, Note_off_c, 3, 79, 64
5, 36020, Note_on_c, 3, 75, 99
5, 36040, Note_off_c, 3, 75, 64
5, 36040, Note_on_c, 3, 79, 93
5, 36060, Note_off_c, 3, 79, 64
5, 36060, Note_off_c, 3, 43, 64
5, 36060, Note_on_c, 3, 82, 84
5, 36060, Note_on_c, 3, 51, 46
5, 36080, Note_off_c, 3, 82, 64
5, 36080, Note_on_c, 3, 79, 84
5, 36100, Note_off_c, 3, 79, 64
5, 36100, Note_on_c, 3, 82, 90
5, 36120, Note_off_c, 3, 82, 64
5, 36120, Note_off_c, 3, 51, 64
5, 36120, Note_on_c, 3, 87, 90
5, 36120, Note_on_c, 3, 46, 50
5, 36180, Note_off_c, 3, 46, 64
5, 36180, Note_off_c, 3, 87, 64
5, 36180, Note_on_c, 3, 87, 84
5, 36180, Note_on_c, 3, 51, 43
5, 36240, Note_off_c, 3, 51, 64
5, 36240, Note_off_c, 3, 87, 64
5, 36240, Note_on_c, 3, 87, 86
5, 36240, Note_on_c, 3, 43, 73
5, 36300, Note_off_c, 3, 43, 64
5, 36300, Note_off_c, 3, 87, 64
5, 36300, Note_on_c, 3, 87, 86
5, 36300, Note_on_c, 3, 51, 43
5, 36360, Note_off_c, 3, 51, 64
5, 36360, Note_off_c, 3, 87, 64
5, 36360, Note_on_c, 3, 87, 86
5, 36360, Note_on_c, 3, 47, 54
5, 36420, Note_off_c, 3, 47, 64
5, 36420, Note_off_c, 3, 87, 64
5, 36420, Note_on_c, 3, 87, 89
5, 36420, Note_on_c, 3, 51, 45
5, 36480, Note_off_c, 3, 51, 64
5, 36480, Note_off_c, 3, 87, 64
5, 36480, Note_on_c, 3, 87, 89
5, 36480, Note_on_c, 3, 44, 66
5, 36540, Note_off_c, 3, 44, 64
5, 36540, Note_on_c, 3, 51, 53
5, 36600, Note_off_c, 3, 51, 64
5, 36600, Note_on_c, 3, 48, 45
5, 36660, Note_off_c, 3, 48, 64
5, 36660, Note_off_c, 3, 87, 64
5, 36660, Note_on_c, 3, 51, 55
5, 36690, Note_on_c, 3, 65, 89
5, 36720, Note_off_c, 3, 65, 64
5, 36720, Note_off_c, 3, 51, 64
5, 36720, Note_on_c, 3, 65, 85
5, 36720, Note_on_c, 3, 44, 43
5, 36780, Note_off_c, 3, 44, 64
5, 36780, Note_on_c, 3, 51, 40
5, 36840, Note_off_c, 3, 51, 64
5, 36840, Note_on_c, 3, 48, 52
5, 36900, Note_off_c, 3, 48, 64
5, 36900, Note_on_c, 3, 51, 60
5, 36960, Note_off_c, 3, 51, 64
5, 36960, Note_off_c, 3, 65, 64
5, 36960, Note_on_c, 3, 65, 46
5, 36960, Note_on_c, 3, 44, 61
5, 36972, Note_off_c, 3, 65, 64
5, 36972, Note_on_c, 3, 67, 70
5, 36984, Note_off_c, 3, 67, 64
5, 36984, Note_on_c, 3, 65, 66
5, 36996, Note_off_c, 3, 65, 64
5, 36996, Note_on_c, 3, 64, 64
5, 37008, Note_off_c, 3, 64, 64
5, 37008, Note_on_c, 3, 65, 74
5, 37020, Note_off_c, 3, 65, 64
5, 37020, Note_off_c, 3, 44, 64
5, 37020, Note_on_c, 3, 67, 73
5, 37020, Note_on_c, 3, 53, 62
5, 37032, Note_off_c, 3, 67, 64
5, 37032, Note_on_c, 3, 68, 76
5, 37044, Note_off_c, 3, 68, 64
5, 37044, Note_on_c, 3, 70, 82
5, 37056, Note_off_c, 3, 70, 64
5, 37056, Note_on_c, 3, 72, 71
5, 37068, Note_off_c, 3, 72, 64
5, 37068, Note_on_c, 3, 74, 84
5, 37080, Note_off_c, 3, 74, 64
5, 37080, Note_off_c, 3, 53, 64
5, 37080, Note_on_c, 3, 75, 86
5, 37080, Note_on_c, 3, 51, 62
5, 37092, Note_off_c, 3, 75, 64
5, 37092, Note_on_c, 3, 77, 80
5, 37104, Note_off_c, 3, 77, 64
5, 37104, Note_on_c, 3, 79, 78
5, 37116, Note_off_c, 3, 79, 64
5, 37116, Note_on_c, 3, 80, 77
5, 37128, Note_off_c, 3, 80, 64
5, 37128, Note_on_c, 3, 82, 81
5, 37140, Note_off_c, 3, 82, 64
5, 37140, Note_off_c, 3, 51, 64
5, 37140, Note_on_c, 3, 84, 74
5, 37140, Note_on_c, 3, 53, 65
5, 37152, Note_off_c, 3, 84, 64
5, 37152, Note_on_c, 3, 86, 90
5, 37164, Note_off_c, 3, 86, 64
5, 37164, Note_on_c, 3, 87, 81
5, 37176, Note_off_c, 3, 87, 64
5, 37176, Note_on_c, 3, 86, 81
5, 37188, Note_off_c, 3, 86, 64
5, 37200, Note_off_c, 3, 53, 64
5, 37200, Note_on_c, 3, 89, 84
5, 37200, Note_on_c, 3, 45, 72
5, 37260, Note_off_c, 3, 45, 64
5, 37260, Note_off_c, 3, 89, 64
5, 37260, Note_on_c, 3, 87, 74
5, 37260, Note_on_c, 3, 53, 65
5, 37320, Note_off_c, 3, 53, 64
5, 37320, Note_off_c, 3, 87, 64
5, 37320, Note_on_c, 3, 86, 77
5, 37320, Note_on_c, 3, 51, 62
5, 37380, Note_off_c, 3, 51, 64
5, 37380, Note_off_c, 3, 86, 64
5, 37380, Note_on_c, 3, 84, 57
5, 37380, Note_on_c, 3, 53, 53
5, 37440, Note_off_c, 3, 53, 64
5, 37440, Note_off_c, 3, 84, 64
5, 37440, Note_on_c, 3, 82, 80
5, 37440, Note_on_c, 3, 46, 48
5, 37450, Note_off_c, 3, 82, 64
5, 37450, Note_on_c, 3, 84, 71
5, 37460, Note_off_c, 3, 84, 64
5, 37460, Note_on_c, 3, 82, 69
5, 37470, Note_off_c, 3, 82, 64
5, 37470, Note_on_c, 3, 81, 80
5, 37484, Note_on_c, 3, 82, 72
5, 37486, Note_off_c, 3, 81, 64
5, 37500, Note_off_c, 3, 82, 64
5, 37500, Note_off_c, 3, 46, 64
5, 37500, Note_on_c, 3, 87, 94
5, 37500, Note_on_c, 3, 55, 43
5, 37560, Note_off_c, 3, 55, 64
5, 37560, Note_on_c, 3, 51, 62
5, 37620, Note_off_c, 3, 51, 64
5, 37620, Note_on_c, 3, 55, 61
5, 37680, Note_off_c, 3, 55, 64
5, 37680, Note_off_c, 3, 87, 64
5, 37680, Note_on_c, 3, 46, 64
5, 37710, Note_on_c, 3, 86, 81
5, 37740, Note_off_c, 3, 86, 64
5, 37740, Note_off_c, 3, 46, 64
5, 37740, Note_on_c, 3, 85, 71
5, 37740, Note_on_c, 3, 55, 61
5, 37770, Note_off_c, 3, 85, 64
5, 37770, Note_on_c, 3, 84, 80
5, 37800, Note_off_c, 3, 84, 64
5, 37800, Note_off_c, 3, 55, 64
5, 37800, Note_on_c, 3, 83, 80
5, 37800, Note_on_c, 3, 51, 59
5, 37830, Note_off_c, 3, 83, 64
5, 37830, Note_on_c, 3, 82, 77
5, 37860, Note_off_c, 3, 82, 64
5, 37860, Note_off_c, 3, 51, 64
5, 37860, Note_on_c, 3, 81, 81
5, 37860, Note_on_c, 3, 55, 43
5, 37890, Note_off_c, 3, 81, 64
5, 37890, Note_on_c, 3, 80, 73
5, 37920, Note_off_c, 3, 80, 64
5, 37920, Note_off_c, 3, 55, 64
5, 37920, Note_on_c, 3, 79, 80
5, 37920, Note_on_c, 3, 46, 67
5, 37950, Note_off_c, 3, 79, 64
5, 37950, Note_on_c, 3, 78, 67
5, 37980, Note_off_c, 3, 78, 64
5, 37980, Note_off_c, 3, 46, 64
5, 37980, Note_on_c, 3, 77, 84
5, 37980, Note_on_c, 3, 56, 43
5, 38010, Note_off_c, 3, 77, 64
5, 38010, Note_on_c, 3, 76, 81
5, 38040, Note_off_c, 3, 76, 64
5, 38040, Note_off_c, 3, 56, 64
5, 38040, Note_on_c, 3, 75, 77
5, 38040, Note_on_c, 3, 53, 58
5, 38070, Note_off_c, 3, 75, 64
5, 38070, Note_on_c, 3, 74, 84
5, 38100, Note_off_c, 3, 74, 64
5, 38100, Note_off_c, 3, 53, 64
5, 38100, Note_on_c, 3, 73, 72
5, 38100, Note_on_c, 3, 56, 38
5, 38130, Note_off_c, 3, 73, 64
5, 38130, Note_on_c, 3, 72, 76
5, 38160, Note_off_c, 3, 72, 64
5, 38160, Note_off_c, 3, 56, 64
5, 38160, Note_on_c, 3, 71, 77
5, 38160, Note_on_c, 3, 46, 57
5, 38190, Note_off_c, 3, 71, 64
5, 38190, Note_on_c, 3, 70, 86
5, 38220, Note_off_c, 3, 70, 64
5, 38220, Note_off_c, 3, 46, 64
5, 38220, Note_on_c, 3, 74, 82
5, 38220, Note_on_c, 3, 56, 49
5, 38250, Note_off_c, 3, 74, 64
5, 38250, Note_on_c, 3, 72, 57
5, 38280, Note_off_c, 3, 72, 64
5, 38280, Note_off_c, 3, 56, 64
5, 38280, Note_on_c, 3, 70, 80
5, 38280, Note_on_c, 3, 46, 46
5, 38310, Note_off_c, 3, 70, 64
5, 38310, Note_on_c, 3, 68, 80
5, 38340, Note_off_c, 3, 68, 64
5, 38340, Note_off_c, 3, 46, 64
5, 38340, Note_on_c, 3, 67, 71
5, 38340, Note_on_c, 3, 56, 43
5, 38370, Note_off_c, 3, 67, 64
5, 38370, Note_on_c, 3, 65, 81
5, 38400, Note_off_c, 3, 65, 64
5, 38400, Note_off_c, 3, 56, 64
5, 38400, Note_on_c, 3, 63, 70
5, 38400, Note_on_c, 3, 55, 61
5, 38400, Note_on_c, 3, 51, 67
5, 38520, Note_off_c, 3, 51, 64
5, 38520, Note_off_c, 3, 55, 64
5, 38520, Note_off_c, 3, 63, 64
5, 41280, Note_on_c, 3, 87, 64
5, 41280, Note_on_c, 3, 75, 68
5, 41520, Note_off_c, 3, 75, 64
5, 41520, Note_off_c, 3, 87, 64
5, 41520, Note_on_c, 3, 87, 29
5, 41520, Note_on_c, 3, 75, 66
5, 41580, Note_off_c, 3, 75, 64
5, 41580, Note_off_c, 3, 87, 64
5, 41580, Note_on_c, 3, 86, 61
5, 41580, Note_on_c, 3, 74, 77
5, 41640, Note_off_c, 3, 74, 64
5, 41640, Note_off_c, 3, 86, 64
5, 41640, Note_on_c, 3, 88, 72
5, 41640, Note_on_c, 3, 76, 68
5, 41700, Note_off_c, 3, 76, 64
5, 41700, Note_off_c, 3, 88, 64
5, 41700, Note_on_c, 3, 87, 84
5, 41700, Note_on_c, 3, 75, 84
5, 41760, Note_off_c, 3, 75, 64
5, 41760, Note_off_c, 3, 87, 64
5, 41760, Note_on_c, 3, 85, 72
5, 41760, Note_on_c, 3, 73, 74
5, 41820, Note_off_c, 3, 73, 64
5, 41820, Note_off_c, 3, 85, 64
5, 41820, Note_on_c, 3, 84, 82
5, 41820, Note_on_c, 3, 72, 45
5, 41880, Note_off_c, 3, 72, 64
5, 41880, Note_off_c, 3, 84, 64
5, 41880, Note_on_c, 3, 87, 89
5, 41880, Note_on_c, 3, 75, 82
5, 41940, Note_off_c, 3, 75, 64
5, 41940, Note_off_c, 3, 87, 64
5, 41940, Note_on_c, 3, 85, 69
5, 41940, Note_on_c, 3, 73, 84
5, 42000, Note_off_c, 3, 73, 64
5, 42000, Note_off_c, 3, 85, 64
5, 42000, Note_on_c, 3, 83, 86
5, 42000, Note_on_c, 3, 71, 80
5, 42060, Note_off_c, 3, 71, 64
5, 42060, Note_off_c, 3, 83, 64
5, 42060, Note_on_c, 3, 82, 86
5, 42060, Note_on_c, 3, 70, 89
5, 42120, Note_off_c, 3, 70, 64
5, 42120, Note_off_c, 3, 82, 64
5, 42120, Note_on_c, 3, 85, 84
5, 42120, Note_on_c, 3, 73, 90
5, 42180, Note_off_c, 3, 73, 64
5, 42180, Note_off_c, 3, 85, 64
5, 42180, Note_on_c, 3, 83, 85
5, 42180, Note_on_c, 3, 71, 95
5, 42240, Note_off_c, 3, 71, 64
5, 42240, Note_off_c, 3, 83, 64
5, 42240, Note_on_c, 3, 82, 81
5, 42240, Note_on_c, 3, 70, 99
5, 42360, Note_off_c, 3, 70, 64
5, 42360, Note_off_c, 3, 82, 64
5, 43200, Note_on_c, 3, 87, 62
5, 43200, Note_on_c, 3, 75, 76
5, 43440, Note_off_c, 3, 75, 64
5, 43440, Note_off_c, 3, 87, 64
5, 43440, Note_on_c, 3, 87, 46
5, 43440, Note_on_c, 3, 75, 46
5, 43480, Note_off_c, 3, 75, 64
5, 43480, Note_off_c, 3, 87, 64
5, 43480, Note_on_c, 3, 86, 78
5, 43480, Note_on_c, 3, 74, 74
5, 43520, Note_off_c, 3, 74, 64
5, 43520, Note_off_c, 3, 86, 64
5, 43520, Note_on_c, 3, 87, 84
5, 43520, Note_on_c, 3, 75, 72
5, 43560, Note_off_c, 3, 75, 64
5, 43560, Note_off_c, 3, 87, 64
5, 43560, Note_on_c, 3, 88, 76
5, 43560, Note_on_c, 3, 76, 68
5, 43600, Note_off_c, 3, 76, 64
5, 43600, Note_off_c, 3, 88, 64
5, 43600, Note_on_c, 3, 87, 76
5, 43600, Note_on_c, 3, 75, 74
5, 43640, Note_off_c, 3, 75, 64
5, 43640, Note_off_c, 3, 87, 64
5, 43640, Note_on_c, 3, 83, 73
5, 43640, Note_on_c, 3, 71, 81
5, 43680, Note_off_c, 3, 71, 64
5, 43680, Note_off_c, 3, 83, 64
5, 43680, Note_on_c, 3, 85, 73
5, 43680, Note_on_c, 3, 73, 72
5, 43720, Note_off_c, 3, 73, 64
5, 43720, Note_off_c, 3, 85, 64
5, 43720, Note_on_c, 3, 84, 86
5, 43720, Note_on_c, 3, 72, 81
5, 43760, Note_off_c, 3, 72, 64
5, 43760, Note_off_c, 3, 84, 64
5, 43760, Note_on_c, 3, 85, 80
5, 43760, Note_on_c, 3, 73, 76
5, 43800, Note_off_c, 3, 73, 64
5, 43800, Note_off_c, 3, 85, 64
5, 43800, Note_on_c, 3, 87, 90
5, 43800, Note_on_c, 3, 75, 94
5, 43840, Note_off_c, 3, 75, 64
5, 43840, Note_off_c, 3, 87, 64
5, 43840, Note_on_c, 3, 85, 84
5, 43840, Note_on_c, 3, 73, 85
5, 43880, Note_off_c, 3, 73, 64
5, 43880, Note_off_c, 3, 85, 64
5, 43880, Note_on_c, 3, 82, 93
5, 43880, Note_on_c, 3, 70, 85
5, 43920, Note_off_c, 3, 70, 64
5, 43920, Note_off_c, 3, 82, 64
5, 43920, Note_on_c, 3, 83, 94
5, 43920, Note_on_c, 3, 71, 98
5, 43960, Note_off_c, 3, 71, 64
5, 43960, Note_off_c, 3, 83, 64
5, 43960, Note_on_c, 3, 82, 86
5, 43960, Note_on_c, 3, 70, 86
5, 44000, Note_off_c, 3, 70, 64
5, 44000, Note_off_c, 3, 82, 64
5, 44000, Note_on_c, 3, 83, 89
5, 44000, Note_on_c, 3, 71, 99
5, 44040, Note_off_c, 3, 71, 64
5, 44040, Note_off_c, 3, 83, 64
5, 44040, Note_on_c, 3, 85, 93
5, 44040, Note_on_c, 3, 73, 81
5, 44080, Note_off_c, 3, 73, 64
5, 44080, Note_off_c, 3, 85, 64
5, 44080, Note_on_c, 3, 83, 90
5, 44080, Note_on_c, 3, 71, 101
5, 44120, Note_off_c, 3, 71, 64
5, 44120, Note_off_c, 3, 83, 64
5, 44120, Note_on_c, 3, 80, 86
5, 44120, Note_on_c, 3, 68, 99
5, 44160, Note_off_c, 3, 68, 64
5, 44160, Note_off_c, 3, 80, 64
5, 44160, Note_on_c, 3, 82, 94
5, 44160, Note_on_c, 3, 70, 94
5, 44280, Note_off_c, 3, 70, 64
5, 44280, Note_off_c, 3, 82, 64
5, 44280, Note_on_c, 3, 63, 67
5, 44340, Note_off_c, 3, 63, 64
5, 44340, Note_on_c, 3, 67, 45
5, 44400, Note_off_c, 3, 67, 64
5, 44400, Note_on_c, 3, 67, 62
5, 44460, Note_off_c, 3, 67, 64
5, 44460, Note_on_c, 3, 70, 63
5, 44520, Note_off_c, 3, 70, 64
5, 44520, Note_on_c, 3, 70, 74
5, 44580, Note_off_c, 3, 70, 64
5, 44580, Note_on_c, 3, 75, 66
5, 44640, Note_off_c, 3, 75, 64
5, 44640, Note_on_c, 3, 75, 74
5, 44700, Note_off_c, 3, 75, 64
5, 44700, Note_on_c, 3, 79, 64
5, 44760, Note_off_c, 3, 79, 64
5, 44760, Note_on_c, 3, 51, 45
5, 44760, Note_on_c, 3, 39, 43
5, 44880, Note_off_c, 3, 39, 64
5, 44880, Note_off_c, 3, 51, 64
5, 44880, Note_on_c, 3, 51, 44
5, 44880, Note_on_c, 3, 39, 43
5, 45000, Note_off_c, 3, 39, 64
5, 45000, Note_off_c, 3, 51, 64
5, 45000, Note_on_c, 3, 51, 40
5, 45000, Note_on_c, 3, 39, 33
5, 45120, Note_off_c, 3, 39, 64
5, 45120, Note_off_c, 3, 51, 64
5, 45120, Note_on_c, 3, 51, 44
5, 45120, Note_on_c, 3, 39, 45
5, 45180, Note_on_c, 3, 65, 73
5, 45240, Note_off_c, 3, 65, 64
5, 45240, Note_on_c, 3, 68, 61
5, 45300, Note_off_c, 3, 68, 64
5, 45300, Note_on_c, 3, 68, 80
5, 45360, Note_off_c, 3, 68, 64
5, 45360, Note_off_c, 3, 39, 64
5, 45360, Note_off_c, 3, 51, 64
5, 45360, Note_on_c, 3, 74, 65
5, 45420, Note_off_c, 3, 74, 64
5, 45420, Note_on_c, 3, 74, 62
5, 45480, Note_off_c, 3, 74, 64
5, 45480, Note_on_c, 3, 77, 50
5, 45540, Note_off_c, 3, 77, 64
5, 45540, Note_on_c, 3, 77, 59
5, 45600, Note_off_c, 3, 77, 64
5, 45600, Note_on_c, 3, 80, 52
5, 45660, Note_off_c, 3, 80, 64
5, 45720, Note_on_c, 3, 51, 43
5, 45720, Note_on_c, 3, 39, 40
5, 45840, Note_off_c, 3, 39, 64
5, 45840, Note_off_c, 3, 51, 64
5, 45840, Note_on_c, 3, 51, 29
5, 45840, Note_on_c, 3, 39, 33
5, 45960, Note_off_c, 3, 39, 64
5, 45960, Note_off_c, 3, 51, 64
5, 45960, Note_on_c, 3, 51, 38
5, 45960, Note_on_c, 3, 39, 36
5, 46080, Note_off_c, 3, 39, 64
5, 46080, Note_off_c, 3, 51, 64
5, 46080, Note_on_c, 3, 51, 38
5, 46080, Note_on_c, 3, 39, 34
5, 46140, Note_on_c, 3, 67, 53
5, 46200, Note_off_c, 3, 67, 64
5, 46200, Note_on_c, 3, 70, 68
5, 46260, Note_off_c, 3, 70, 64
5, 46260, Note_on_c, 3, 73, 61
5, 46320, Note_off_c, 3, 73, 64
5, 46320, Note_off_c, 3, 39, 64
5, 46320, Note_off_c, 3, 51, 64
5, 46320, Note_on_c, 3, 79, 71
5, 46380, Note_off_c, 3, 79, 64
5, 46380, Note_on_c, 3, 79, 72
5, 46440, Note_off_c, 3, 79, 64
5, 46440, Note_on_c, 3, 82, 74
5, 46500, Note_off_c, 3, 82, 64
5, 46500, Note_on_c, 3, 73, 73
5, 46560, Note_off_c, 3, 73, 64
5, 46560, Note_on_c, 3, 72, 48
5, 46560, Note_on_c, 3, 51, 32
5, 46560, Note_on_c, 3, 39, 35
5, 46620, Note_off_c, 3, 72, 64
5, 46620, Note_on_c, 3, 68, 59
5, 46680, Note_off_c, 3, 68, 64
5, 46680, Note_on_c, 3, 72, 64
5, 46740, Note_off_c, 3, 72, 64
5, 46740, Note_on_c, 3, 75, 76
5, 46800, Note_off_c, 3, 75, 64
5, 46800, Note_off_c, 3, 39, 64
5, 46800, Note_off_c, 3, 51, 64
5, 46800, Note_on_c, 3, 80, 60
5, 46860, Note_off_c, 3, 80, 64
5, 46860, Note_on_c, 3, 80, 73
5, 46920, Note_off_c, 3, 80, 64
5, 46920, Note_on_c, 3, 84, 76
5, 46980, Note_off_c, 3, 84, 64
5, 46980, Note_on_c, 3, 75, 81
5, 47040, Note_off_c, 3, 75, 64
5, 47040, Note_on_c, 3, 73, 46
5, 47040, Note_on_c, 3, 51, 43
5, 47040, Note_on_c, 3, 39, 38
5, 47100, Note_off_c, 3, 73, 64
5, 47100, Note_on_c, 3, 73, 64
5, 47160, Note_off_c, 3, 73, 64
5, 47160, Note_on_c, 3, 85, 71
5, 47220, Note_off_c, 3, 85, 64
5, 47220, Note_on_c, 3, 85, 74
5, 47280, Note_off_c, 3, 85, 64
5, 47280, Note_off_c, 3, 39, 64
5, 47280, Note_off_c, 3, 51, 64
5, 47280, Note_on_c, 3, 82, 81
5, 47340, Note_off_c, 3, 82, 64
5, 47340, Note_on_c, 3, 82, 73
5, 47400, Note_off_c, 3, 82, 64
5, 47400, Note_on_c, 3, 80, 57
5, 47460, Note_off_c, 3, 80, 64
5, 47460, Note_on_c, 3, 80, 81
5, 47520, Note_off_c, 3, 80, 64
5, 47520, Note_on_c, 3, 79, 71
5, 47580, Note_off_c, 3, 79, 64
5, 47580, Note_on_c, 3, 79, 65
5, 47640, Note_off_c, 3, 79, 64
5, 47640, Note_on_c, 3, 88, 71
5, 47700, Note_off_c, 3, 88, 64
5, 47700, Note_on_c, 3, 88, 73
5, 47760, Note_off_c, 3, 88, 64
5, 47760, Note_on_c, 3, 85, 64
5, 47820, Note_off_c, 3, 85, 64
5, 47820, Note_on_c, 3, 85, 81
5, 47880, Note_off_c, 3, 85, 64
5, 47880, Note_on_c, 3, 82, 76
5, 47940, Note_off_c, 3, 82, 64
5, 47940, Note_on_c, 3, 82, 73
5, 48000, Note_off_c, 3, 82, 64
5, 48000, Note_on_c, 3, 79, 70
5, 48004, Control_c, 3, 64, 27
5, 48008, Control_c, 3, 64, 33
5, 48016, Control_c, 3, 64, 37
5, 48024, Control_c, 3, 64, 41
5, 48028, Control_c, 3, 64, 44
5, 48036, Control_c, 3, 64, 47
5, 48040, Control_c, 3, 64, 49
5, 48056, Control_c, 3, 64, 56
5, 48060, Note_off_c, 3, 79, 64
5, 48060, Control_c, 3, 64, 60
5, 48060, Note_on_c, 3, 79, 69
5, 48064, Control_c, 3, 64, 84
5, 48068, Control_c, 3, 64, 92
5, 48076, Control_c, 3, 64, 95
5, 48080, Control_c, 3, 64, 96
5, 48092, Control_c, 3, 64, 100
5, 48100, Control_c, 3, 64, 102
5, 48104, Control_c, 3, 64, 104
5, 48112, Control_c, 3, 64, 108
5, 48116, Control_c, 3, 64, 110
5, 48120, Note_off_c, 3, 79, 64
5, 48120, Note_on_c, 3, 88, 68
5, 48124, Control_c, 3, 64, 113
5, 48136, Control_c, 3, 64, 114
5, 48144, Control_c, 3, 64, 115
5, 48180, Note_off_c, 3, 88, 64
5, 48180, Note_on_c, 3, 88, 72
5, 48204, Control_c, 3, 64, 116
5, 48216, Control_c, 3, 64, 117
5, 48228, Control_c, 3, 64, 118
5, 48240, Note_off_c, 3, 88, 64
5, 48240, Control_c, 3, 64, 121
5, 48240, Note_on_c, 3, 85, 66
5, 48256, Control_c, 3, 64, 123
5, 48260, Control_c, 3, 64, 124
5, 48300, Note_off_c, 3, 85, 64
5, 48300, Note_on_c, 3, 85, 73
5, 48360, Note_off_c, 3, 85, 64
5, 48360, Note_on_c, 3, 82, 73
5, 48420, Note_off_c, 3, 82, 64
5, 48420, Note_on_c, 3, 82, 71
5, 48452, Control_c, 3, 64, 125
5, 48480, Note_off_c, 3, 82, 64
5, 48480, Control_c, 3, 64, 126
5, 48480, Note_on_c, 3, 79, 73
5, 48496, Control_c, 3, 64, 124
5, 48540, Note_off_c, 3, 79, 64
5, 48540, Note_on_c, 3, 79, 71
5, 48600, Note_off_c, 3, 79, 64
5, 48600, Note_on_c, 3, 76, 82
5, 48660, Note_off_c, 3, 76, 64
5, 48660, Note_on_c, 3, 76, 80
5, 48720, Note_off_c, 3, 76, 64
5, 48720, Note_on_c, 3, 73, 76
5, 48780, Note_off_c, 3, 73, 64
5, 48780, Note_on_c, 3, 73, 78
5, 48840, Note_off_c, 3, 73, 64
5, 48840, Note_on_c, 3, 70, 80
5, 48900, Note_off_c, 3, 70, 64
5, 48900, Note_on_c, 3, 70, 80
5, 48956, Control_c, 3, 64, 125
5, 48960, Note_off_c, 3, 70, 64
5, 48960, Note_on_c, 3, 67, 69
5, 49020, Note_off_c, 3, 67, 64
5, 49020, Note_on_c, 3, 67, 64
5, 49080, Note_off_c, 3, 67, 64
5, 49080, Note_on_c, 3, 76, 54
5, 49140, Note_off_c, 3, 76, 64
5, 49140, Note_on_c, 3, 76, 56
5, 49164, Control_c, 3, 64, 126
5, 49200, Note_off_c, 3, 76, 64
5, 49200, Note_on_c, 3, 67, 44
5, 49260, Note_off_c, 3, 67, 64
5, 49260, Note_on_c, 3, 67, 60
5, 49320, Note_off_c, 3, 67, 64
5, 49320, Note_on_c, 3, 75, 69
5, 49324, Control_c, 3, 64, 127
5, 49380, Note_off_c, 3, 75, 64
5, 49380, Note_on_c, 3, 75, 57
5, 49428, Control_c, 3, 64, 126
5, 49440, Note_off_c, 3, 75, 64
5, 49440, Note_on_c, 3, 67, 34
5, 49500, Note_off_c, 3, 67, 64
5, 49500, Note_on_c, 3, 67, 45
5, 49532, Control_c, 3, 64, 125
5, 49548, Control_c, 3, 64, 124
5, 49560, Note_off_c, 3, 67, 64
5, 49560, Note_on_c, 3, 74, 38
5, 49600, Control_c, 3, 64, 120
5, 49604, Control_c, 3, 64, 123
5, 49616, Control_c, 3, 64, 121
5, 49620, Note_off_c, 3, 74, 64
5, 49620, Note_on_c, 3, 74, 43
5, 49624, Control_c, 3, 64, 120
5, 49632, Control_c, 3, 64, 119
5, 49656, Control_c, 3, 64, 118
5, 49680, Note_off_c, 3, 74, 64
5, 49680, Note_on_c, 3, 67, 33
5, 49708, Control_c, 3, 64, 115
5, 49732, Control_c, 3, 64, 114
5, 49740, Note_off_c, 3, 67, 64
5, 49740, Note_on_c, 3, 67, 38
5, 49744, Control_c, 3, 64, 111
5, 49748, Control_c, 3, 64, 110
5, 49760, Control_c, 3, 64, 108
5, 49768, Control_c, 3, 64, 107
5, 49772, Control_c, 3, 64, 106
5, 49780, Control_c, 3, 64, 104
5, 49784, Control_c, 3, 64, 102
5, 49788, Control_c, 3, 64, 99
5, 49792, Control_c, 3, 64, 98
5, 49796, Control_c, 3, 64, 96
5, 49800, Note_off_c, 3, 67, 64
5, 49800, Note_on_c, 3, 73, 42
5, 49804, Control_c, 3, 64, 94
5, 49812, Control_c, 3, 64, 92
5, 49816, Control_c, 3, 64, 91
5, 49820, Control_c, 3, 64, 90
5, 49824, Control_c, 3, 64, 88
5, 49840, Control_c, 3, 64, 85
5, 49844, Control_c, 3, 64, 84
5, 49852, Control_c, 3, 64, 78
5, 49856, Control_c, 3, 64, 56
5, 49860, Note_off_c, 3, 73, 64
5, 49860, Note_on_c, 3, 73, 42
5, 49860, Control_c, 3, 64, 38
5, 49864, Control_c, 3, 64, 36
5, 49868, Control_c, 3, 64, 32
5, 49872, Control_c, 3, 64, 29
5, 49876, Control_c, 3, 64, 26
5, 49884, Control_c, 3, 64, 22
5, 49888, Control_c, 3, 64, 20
5, 49892, Control_c, 3, 64, 18
5, 49896, Control_c, 3, 64, 16
5, 49900, Control_c, 3, 64, 14
5, 49908, Control_c, 3, 64, 10
5, 49912, Control_c, 3, 64, 8
5, 49920, Note_off_c, 3, 73, 64
5, 49920, Control_c, 3, 64, 6
5, 49920, Note_on_c, 3, 72, 29
5, 49920, Note_on_c, 3, 63, 38
5, 49920, Note_on_c, 3, 60, 35
5, 49920, Note_on_c, 3, 56, 38
5, 49920, Note_on_c, 3, 51, 52
5, 49920, Note_on_c, 3, 44, 43
5, 50400, Note_off_c, 3, 44, 64
5, 50400, Note_off_c, 3, 51, 64
5, 50400, Note_off_c, 3, 56, 64
5, 50400, Note_off_c, 3, 60, 64
5, 50400, Note_off_c, 3, 63, 64
5, 50400, Note_off_c, 3, 72, 64
5, 50400, Note_on_c, 3, 73, 51
5, 50400, Note_on_c, 3, 51, 29
5, 50400, Note_on_c, 3, 48, 44
5, 50400, Note_on_c, 3, 44, 29
5, 50520, Note_off_c, 3, 73, 64
5, 50520, Note_on_c, 3, 72, 52
5, 50580, Note_off_c, 3, 44, 64
5, 50580, Note_off_c, 3, 48, 64
5, 50580, Note_off_c, 3, 51, 64
5, 50640, Note_off_c, 3, 72, 64
5, 50640, Note_on_c, 3, 70, 45
5, 50640, Note_on_c, 3, 51, 30
5, 50640, Note_on_c, 3, 48, 40
5, 50640, Note_on_c, 3, 44, 35
5, 50760, Note_off_c, 3, 70, 64
5, 50760, Note_on_c, 3, 68, 50
5, 50820, Note_off_c, 3, 44, 64
5, 50820, Note_off_c, 3, 48, 64
5, 50820, Note_off_c, 3, 51, 64
5, 50880, Note_off_c, 3, 68, 64
5, 50880, Note_on_c, 3, 73, 64
5, 50880, Note_on_c, 3, 51, 43
5, 50880, Note_on_c, 3, 49, 45
5, 50880, Note_on_c, 3, 46, 43
5, 51120, Note_off_c, 3, 73, 64
5, 51120, Note_on_c, 3, 73, 30
5, 51180, Note_off_c, 3, 73, 64
5, 51180, Note_on_c, 3, 72, 64
5, 51210, Note_off_c, 3, 72, 64
5, 51210, Note_on_c, 3, 73, 62
5, 51240, Note_off_c, 3, 73, 64
5, 51240, Note_on_c, 3, 75, 74
5, 51270, Note_off_c, 3, 75, 64
5, 51270, Note_on_c, 3, 73, 65
5, 51300, Note_off_c, 3, 73, 64
5, 51300, Note_on_c, 3, 72, 60
5, 51330, Note_off_c, 3, 72, 64
5, 51330, Note_on_c, 3, 70, 39
5, 51344, Note_on_c, 3, 68, 39
5, 51346, Note_off_c, 3, 70, 64
5, 51360, Note_off_c, 3, 68, 64
5, 51360, Note_on_c, 3, 67, 42
5, 51600, Note_off_c, 3, 67, 64
5, 51600, Note_off_c, 3, 46, 64
5, 51600, Note_off_c, 3, 49, 64
5, 51600, Note_off_c, 3, 51, 64
5, 51720, Note_on_c, 3, 63, 73
5, 51840, Note_off_c, 3, 63, 64
5, 51840, Note_on_c, 3, 68, 45
5, 51840, Note_on_c, 3, 63, 54
5, 51840, Note_on_c, 3, 60, 60
5, 51960, Note_off_c, 3, 68, 64
5, 51960, Note_on_c, 3, 70, 69
5, 51984, Note_off_c, 3, 70, 64
5, 51984, Note_on_c, 3, 68, 71
5, 52008, Note_off_c, 3, 68, 64
5, 52008, Note_on_c, 3, 67, 61
5, 52032, Note_off_c, 3, 67, 64
5, 52032, Note_on_c, 3, 68, 67
5, 52056, Note_off_c, 3, 68, 64
5, 52080, Note_off_c, 3, 60, 64
5, 52080, Note_off_c, 3, 63, 64
5, 52080, Note_on_c, 3, 72, 58
5, 52080, Note_on_c, 3, 63, 50
5, 52080, Note_on_c, 3, 56, 57
5, 52260, Note_off_c, 3, 72, 64
5, 52260, Note_on_c, 3, 70, 68
5, 52320, Note_off_c, 3, 56, 64
5, 52320, Note_off_c, 3, 63, 64
5, 52320, Note_on_c, 3, 63, 57
5, 52320, Note_on_c, 3, 55, 80
5, 52440, Note_off_c, 3, 70, 64
5, 52440, Note_on_c, 3, 72, 44
5, 52464, Note_off_c, 3, 72, 64
5, 52464, Note_on_c, 3, 70, 68
5, 52488, Note_off_c, 3, 70, 64
5, 52488, Note_on_c, 3, 69, 63
5, 52512, Note_off_c, 3, 69, 64
5, 52512, Note_on_c, 3, 70, 73
5, 52536, Note_off_c, 3, 70, 64
5, 52560, Note_off_c, 3, 55, 64
5, 52560, Note_off_c, 3, 63, 64
5, 52560, Note_on_c, 3, 73, 61
5, 52560, Note_on_c, 3, 67, 43
5, 52560, Note_on_c, 3, 63, 46
5, 52560, Note_on_c, 3, 51, 50
5, 52740, Note_off_c, 3, 73, 64
5, 52740, Note_on_c, 3, 72, 57
5, 52800, Note_off_c, 3, 72, 64
5, 52800, Note_off_c, 3, 51, 64
5, 52800, Note_off_c, 3, 63, 64
5, 52800, Note_off_c, 3, 67, 64
5, 52800, Note_on_c, 3, 72, 43
5, 52800, Note_on_c, 3, 68, 45
5, 52800, Note_on_c, 3, 63, 43
5, 52800, Note_on_c, 3, 56, 43
5, 52860, Note_off_c, 3, 68, 64
5, 52860, Note_off_c, 3, 72, 64
5, 52860, Note_on_c, 3, 75, 59
5, 52920, Note_off_c, 3, 75, 64
5, 52920, Note_on_c, 3, 80, 68
5, 53040, Note_off_c, 3, 80, 64
5, 53040, Note_off_c, 3, 56, 64
5, 53040, Note_off_c, 3, 63, 64
5, 53040, Note_on_c, 3, 68, 43
5, 53040, Note_on_c, 3, 60, 57
5, 53070, Note_on_c, 3, 75, 69
5, 53100, Note_off_c, 3, 75, 64
5, 53100, Note_on_c, 3, 84, 69
5, 53190, Note_off_c, 3, 84, 64
5, 53190, Note_on_c, 3, 80, 73
5, 53220, Note_off_c, 3, 80, 64
5, 53220, Note_on_c, 3, 75, 84
5, 53250, Note_off_c, 3, 75, 64
5, 53250, Note_on_c, 3, 72, 64
5, 53280, Note_off_c, 3, 72, 64
5, 53280, Note_off_c, 3, 60, 64
5, 53280, Note_off_c, 3, 68, 64
5, 53280, Note_on_c, 3, 69, 65
5, 53280, Note_on_c, 3, 67, 43
5, 53280, Note_on_c, 3, 63, 45
5, 53400, Note_off_c, 3, 69, 64
5, 53400, Note_on_c, 3, 70, 70
5, 53520, Note_off_c, 3, 63, 64
5, 53520, Note_off_c, 3, 67, 64
5, 53560, Note_on_c, 3, 63, 45
5, 53580, Note_off_c, 3, 63, 64
5, 53580, Note_off_c, 3, 70, 64
5, 53600, Note_on_c, 3, 65, 35
5, 53620, Note_off_c, 3, 65, 64
5, 53640, Note_on_c, 3, 67, 54
5, 53660, Note_off_c, 3, 67, 64
5, 53680, Note_on_c, 3, 68, 63
5, 53700, Note_off_c, 3, 68, 64
5, 53720, Note_on_c, 3, 70, 64
5, 53740, Note_off_c, 3, 70, 64
5, 53760, Note_on_c, 3, 72, 43
5, 53760, Note_on_c, 3, 63, 42
5, 53760, Note_on_c, 3, 60, 43
5, 53760, Note_on_c, 3, 56, 29
5, 53760, Note_on_c, 3, 51, 32
5, 53760, Note_on_c, 3, 44, 37
5, 54000, Note_off_c, 3, 60, 64
5, 54000, Note_off_c, 3, 63, 64
5, 54000, Note_off_c, 3, 72, 64
5, 54060, Note_on_c, 3, 73, 70
5, 54090, Note_off_c, 3, 73, 64
5, 54090, Note_on_c, 3, 72, 61
5, 54120, Note_off_c, 3, 72, 64
5, 54120, Note_on_c, 3, 70, 81
5, 54180, Note_off_c, 3, 70, 64
5, 54180, Note_on_c, 3, 72, 72
5, 54240, Note_off_c, 3, 72, 64
5, 54240, Note_off_c, 3, 44, 64
5, 54240, Note_off_c, 3, 51, 64
5, 54240, Note_off_c, 3, 56, 64
5, 54240, Note_on_c, 3, 73, 76
5, 54360, Note_off_c, 3, 73, 64
5, 54360, Note_on_c, 3, 72, 71
5, 54360, Note_on_c, 3, 48, 46
5, 54360, Note_on_c, 3, 44, 43
5, 54480, Note_off_c, 3, 44, 64
5, 54480, Note_off_c, 3, 48, 64
5, 54480, Note_off_c, 3, 72, 64
5, 54480, Note_on_c, 3, 70, 76
5, 54480, Note_on_c, 3, 49, 52
5, 54480, Note_on_c, 3, 46, 57
5, 54600, Note_off_c, 3, 46, 64
5, 54600, Note_off_c, 3, 49, 64
5, 54600, Note_off_c, 3, 70, 64
5, 54600, Note_on_c, 3, 68, 74
5, 54600, Note_on_c, 3, 51, 44
5, 54600, Note_on_c, 3, 48, 51
5, 54660, Note_off_c, 3, 68, 64
5, 54660, Note_on_c, 3, 65, 54
5, 54680, Note_off_c, 3, 65, 64
5, 54680, Note_on_c, 3, 67, 61
5, 54700, Note_off_c, 3, 67, 64
5, 54700, Note_on_c, 3, 68, 69
5, 54720, Note_off_c, 3, 68, 64
5, 54720, Note_off_c, 3, 48, 64
5, 54720, Note_off_c, 3, 51, 64
5, 54720, Note_on_c, 3, 67, 53
5, 54720, Note_on_c, 3, 53, 43
5, 54720, Note_on_c, 3, 49, 43
5, 54900, Note_off_c, 3, 67, 64
5, 54930, Note_on_c, 3, 65, 68
5, 54960, Note_off_c, 3, 65, 64
5, 54960, Note_on_c, 3, 80, 94
5, 55200, Note_off_c, 3, 80, 64
5, 55200, Note_off_c, 3, 49, 64
5, 55200, Note_off_c, 3, 53, 64
5, 55200, Note_on_c, 3, 56, 67
5, 55200, Note_on_c, 3, 53, 65
5, 55260, Note_on_c, 3, 82, 86
5, 55290, Note_off_c, 3, 82, 64
5, 55290, Note_on_c, 3, 80, 86
5, 55320, Note_off_c, 3, 80, 64
5, 55320, Note_on_c, 3, 79, 76
5, 55380, Note_off_c, 3, 79, 64
5, 55380, Note_on_c, 3, 80, 61
5, 55440, Note_off_c, 3, 80, 64
5, 55440, Note_off_c, 3, 53, 64
5, 55440, Note_off_c, 3, 56, 64
5, 55440, Note_on_c, 3, 82, 53
5, 55440, Note_on_c, 3, 61, 37
5, 55440, Note_on_c, 3, 49, 37
5, 55500, Note_off_c, 3, 82, 64
5, 55500, Note_on_c, 3, 80, 53
5, 55560, Note_off_c, 3, 80, 64
5, 55560, Note_on_c, 3, 79, 49
5, 55620, Note_off_c, 3, 79, 64
5, 55620, Note_on_c, 3, 77, 62
5, 55680, Note_off_c, 3, 77, 64
5, 55680, Note_off_c, 3, 49, 64
5, 55680, Note_off_c, 3, 61, 64
5, 55680, Note_on_c, 3, 75, 76
5, 55680, Note_on_c, 3, 60, 46
5, 55680, Note_on_c, 3, 56, 45
5, 55694, Note_on_c, 3, 77, 38
5, 55696, Note_off_c, 3, 75, 64
5, 55710, Note_off_c, 3, 77, 64
5, 55710, Note_on_c, 3, 75, 67
5, 55724, Note_on_c, 3, 74, 74
5, 55726, Note_off_c, 3, 75, 64
5, 55740, Note_off_c, 3, 74, 64
5, 55740, Note_on_c, 3, 75, 69
5, 55756, Note_off_c, 3, 75, 64
5, 55760, Note_on_c, 3, 80, 63
5, 55840, Note_off_c, 3, 80, 64
5, 55840, Note_on_c, 3, 76, 65
5, 55920, Note_off_c, 3, 76, 64
5, 55920, Note_off_c, 3, 56, 64
5, 55920, Note_off_c, 3, 60, 64
5, 55920, Note_on_c, 3, 76, 30
5, 55920, Note_on_c, 3, 58, 29
5, 55920, Note_on_c, 3, 56, 29
5, 55920, Note_on_c, 3, 49, 29
5, 55938, Note_off_c, 3, 76, 64
5, 55938, Note_on_c, 3, 77, 38
5, 55956, Note_off_c, 3, 77, 64
5, 55956, Note_on_c, 3, 76, 58
5, 55974, Note_off_c, 3, 76, 64
5, 55974, Note_on_c, 3, 79, 33
5, 55992, Note_off_c, 3, 79, 64
5, 55992, Note_on_c, 3, 77, 43
5, 56010, Note_off_c, 3, 77, 64
5, 56010, Note_on_c, 3, 75, 33
5, 56028, Note_off_c, 3, 75, 64
5, 56028, Note_on_c, 3, 73, 43
5, 56046, Note_off_c, 3, 73, 64
5, 56046, Note_on_c, 3, 72, 29
5, 56064, Note_off_c, 3, 72, 64
5, 56064, Note_on_c, 3, 75, 52
5, 56082, Note_off_c, 3, 75, 64
5, 56082, Note_on_c, 3, 73, 52
5, 56100, Note_off_c, 3, 73, 64
5, 56100, Note_on_c, 3, 72, 43
5, 56118, Note_off_c, 3, 72, 64
5, 56118, Note_on_c, 3, 73, 45
5, 56136, Note_off_c, 3, 73, 64
5, 56136, Note_on_c, 3, 70, 58
5, 56154, Note_off_c, 3, 70, 64
5, 56160, Note_off_c, 3, 49, 64
5, 56160, Note_off_c, 3, 56, 64
5, 56160, Note_off_c, 3, 58, 64
5, 56160, Note_on_c, 3, 68, 69
5, 56160, Note_on_c, 3, 60, 40
5, 56160, Note_on_c, 3, 56, 37
5, 56160, Note_on_c, 3, 51, 33
5, 56280, Note_off_c, 3, 68, 64
5, 56280, Note_on_c, 3, 70, 67
5, 56304, Note_off_c, 3, 70, 64
5, 56304, Note_on_c, 3, 68, 62
5, 56328, Note_off_c, 3, 68, 64
5, 56328, Note_on_c, 3, 67, 50
5, 56352, Note_off_c, 3, 67, 64
5, 56352, Note_on_c, 3, 68, 58
5, 56376, Note_off_c, 3, 68, 64
5, 56400, Note_off_c, 3, 51, 64
5, 56400, Note_off_c, 3, 56, 64
5, 56400, Note_off_c, 3, 60, 64
5, 56400, Note_on_c, 3, 61, 40
5, 56400, Note_on_c, 3, 72, 57
5, 56400, Note_on_c, 3, 55, 38
5, 56400, Note_on_c, 3, 51, 40
5, 56580, Note_off_c, 3, 72, 64
5, 56580, Note_on_c, 3, 70, 43
5, 56640, Note_off_c, 3, 70, 64
5, 56640, Note_off_c, 3, 51, 64
5, 56640, Note_off_c, 3, 55, 64
5, 56640, Note_off_c, 3, 61, 64
5, 56640, Note_on_c, 3, 70, 54
5, 56640, Note_on_c, 3, 61, 40
5, 56640, Note_on_c, 3, 55, 45
5, 56640, Note_on_c, 3, 51, 46
5, 56640, Note_on_c, 3, 44, 29
5, 56880, Note_off_c, 3, 44, 64
5, 56880, Note_off_c, 3, 51, 64
5, 56880, Note_off_c, 3, 55, 64
5, 56880, Note_off_c, 3, 61, 64
5, 56880, Note_off_c, 3, 70, 64
5, 56880, Note_on_c, 3, 68, 33
5, 56880, Note_on_c, 3, 60, 29
5, 56880, Note_on_c, 3, 56, 32
5, 56880, Note_on_c, 3, 51, 30
5, 56880, Note_on_c, 3, 44, 29
5, 57000, Note_off_c, 3, 44, 64
5, 57000, Note_off_c, 3, 51, 64
5, 57000, Note_off_c, 3, 56, 64
5, 57000, Note_off_c, 3, 60, 64
5, 57000, Note_off_c, 3, 68, 64
5, 62130, Note_on_c, 3, 79, 52
5, 62130, Note_on_c, 3, 75, 45
5, 62130, Note_on_c, 3, 67, 49
5, 62130, Note_on_c, 3, 63, 46
5, 62160, Note_off_c, 3, 63, 64
5, 62160, Note_off_c, 3, 67, 64
5, 62160, Note_off_c, 3, 75, 64
5, 62160, Note_off_c, 3, 79, 64
5, 62160, Note_on_c, 3, 80, 43
5, 62160, Note_on_c, 3, 74, 47
5, 62160, Note_on_c, 3, 68, 46
5, 62160, Note_on_c, 3, 65, 56
5, 62160, Note_on_c, 3, 58, 42
5, 62340, Note_off_c, 3, 58, 64
5, 62340, Note_off_c, 3, 65, 64
5, 62340, Note_off_c, 3, 68, 64
5, 62340, Note_off_c, 3, 74, 64
5, 62340, Note_off_c, 3, 80, 64
5, 62370, Note_on_c, 3, 82, 40
5, 62370, Note_on_c, 3, 74, 45
5, 62370, Note_on_c, 3, 68, 43
5, 62370, Note_on_c, 3, 65, 43
5, 62370, Note_on_c, 3, 58, 35
5, 62400, Note_off_c, 3, 58, 64
5, 62400, Note_off_c, 3, 65, 64
5, 62400, Note_off_c, 3, 68, 64
5, 62400, Note_off_c, 3, 74, 64
5, 62400, Note_off_c, 3, 82, 64
5, 62400, Note_on_c, 3, 75, 65
5, 62400, Note_on_c, 3, 67, 50
5, 62400, Note_on_c, 3, 63, 62
5, 62414, Note_on_c, 3, 77, 59
5, 62416, Note_off_c, 3, 75, 64
5, 62430, Note_off_c, 3, 77, 64
5, 62430, Note_on_c, 3, 75, 67
5, 62444, Note_on_c, 3, 77, 55
5, 62446, Note_off_c, 3, 75, 64
5, 62460, Note_off_c, 3, 77, 64
5, 62460, Note_on_c, 3, 75, 54
5, 62474, Note_on_c, 3, 77, 45
5, 62476, Note_off_c, 3, 75, 64
5, 62480, Note_off_c, 3, 63, 64
5, 62480, Note_off_c, 3, 67, 64
5, 62480, Note_on_c, 3, 51, 61
5, 62490, Note_off_c, 3, 77, 64
5, 62490, Note_on_c, 3, 75, 45
5, 62504, Note_on_c, 3, 77, 52
5, 62506, Note_off_c, 3, 75, 64
5, 62520, Note_off_c, 3, 77, 64
5, 62520, Note_on_c, 3, 75, 45
5, 62534, Note_on_c, 3, 77, 47
5, 62536, Note_off_c, 3, 75, 64
5, 62550, Note_off_c, 3, 77, 64
5, 62550, Note_on_c, 3, 75, 64
5, 62560, Note_off_c, 3, 51, 64
5, 62560, Note_on_c, 3, 55, 61
5, 62564, Note_on_c, 3, 77, 54
5, 62566, Note_off_c, 3, 75, 64
5, 62580, Note_off_c, 3, 77, 64
5, 62580, Note_on_c, 3, 75, 59
5, 62594, Note_on_c, 3, 77, 53
5, 62596, Note_off_c, 3, 75, 64
5, 62610, Note_off_c, 3, 77, 64
5, 62610, Note_on_c, 3, 75, 57
5, 62624, Note_on_c, 3, 77, 45
5, 62626, Note_off_c, 3, 75, 64
5, 62640, Note_off_c, 3, 77, 64
5, 62640, Note_off_c, 3, 55, 64
5, 62640, Note_on_c, 3, 75, 64
5, 62640, Note_on_c, 3, 39, 78
5, 62654, Note_on_c, 3, 77, 49
5, 62656, Note_off_c, 3, 75, 64
5, 62670, Note_off_c, 3, 77, 64
5, 62670, Note_on_c, 3, 75, 56
5, 62680, Note_off_c, 3, 39, 64
5, 62684, Note_on_c, 3, 77, 46
5, 62686, Note_off_c, 3, 75, 64
5, 62700, Note_off_c, 3, 77, 64
5, 62700, Note_on_c, 3, 75, 43
5, 62714, Note_on_c, 3, 77, 43
5, 62716, Note_off_c, 3, 75, 64
5, 62720, Note_on_c, 3, 51, 74
5, 62730, Note_off_c, 3, 77, 64
5, 62730, Note_on_c, 3, 75, 65
5, 62744, Note_on_c, 3, 77, 44
5, 62746, Note_off_c, 3, 75, 64
5, 62760, Note_off_c, 3, 77, 64
5, 62760, Note_on_c, 3, 75, 62
5, 62774, Note_on_c, 3, 77, 58
5, 62776, Note_off_c, 3, 75, 64
5, 62790, Note_off_c, 3, 77, 64
5, 62790, Note_on_c, 3, 75, 64
5, 62800, Note_off_c, 3, 51, 64
5, 62800, Note_on_c, 3, 55, 76
5, 62804, Note_on_c, 3, 77, 53
5, 62806, Note_off_c, 3, 75, 64
5, 62820, Note_off_c, 3, 77, 64
5, 62820, Note_on_c, 3, 75, 62
5, 62834, Note_on_c, 3, 77, 67
5, 62836, Note_off_c, 3, 75, 64
5, 62850, Note_off_c, 3, 77, 64
5, 62850, Note_on_c, 3, 75, 65
5, 62864, Note_on_c, 3, 77, 58
5, 62866, Note_off_c, 3, 75, 64
5, 62880, Note_off_c, 3, 77, 64
5, 62880, Note_off_c, 3, 55, 64
5, 62880, Note_on_c, 3, 74, 72
5, 62880, Note_on_c, 3, 41, 81
5, 62894, Note_on_c, 3, 75, 72
5, 62896, Note_off_c, 3, 74, 64
5, 62910, Note_off_c, 3, 75, 64
5, 62910, Note_on_c, 3, 74, 59
5, 62920, Note_off_c, 3, 41, 64
5, 62924, Note_on_c, 3, 75, 70
5, 62926, Note_off_c, 3, 74, 64
5, 62940, Note_off_c, 3, 75, 64
5, 62940, Note_on_c, 3, 74, 63
5, 62954, Note_on_c, 3, 75, 68
5, 62956, Note_off_c, 3, 74, 64
5, 62960, Note_on_c, 3, 51, 86
5, 62970, Note_off_c, 3, 75, 64
5, 62970, Note_on_c, 3, 74, 69
5, 62984, Note_on_c, 3, 75, 69
5, 62986, Note_off_c, 3, 74, 64
5, 63000, Note_off_c, 3, 75, 64
5, 63000, Note_on_c, 3, 74, 76
5, 63014, Note_on_c, 3, 75, 74
5, 63016, Note_off_c, 3, 74, 64
5, 63030, Note_off_c, 3, 75, 64
5, 63030, Note_on_c, 3, 74, 73
5, 63040, Note_off_c, 3, 51, 64
5, 63040, Note_on_c, 3, 56, 84
5, 63044, Note_on_c, 3, 75, 78
5, 63046, Note_off_c, 3, 74, 64
5, 63060, Note_off_c, 3, 75, 64
5, 63060, Note_on_c, 3, 74, 76
5, 63074, Note_on_c, 3, 75, 74
5, 63076, Note_off_c, 3, 74, 64
5, 63090, Note_off_c, 3, 75, 64
5, 63090, Note_on_c, 3, 74, 68
5, 63104, Note_on_c, 3, 75, 73
5, 63106, Note_off_c, 3, 74, 64
5, 63120, Note_off_c, 3, 75, 64
5, 63120, Note_off_c, 3, 56, 64
5, 63120, Note_on_c, 3, 73, 61
5, 63120, Note_on_c, 3, 43, 89
5, 63134, Note_on_c, 3, 75, 78
5, 63136, Note_off_c, 3, 73, 64
5, 63150, Note_off_c, 3, 75, 64
5, 63150, Note_on_c, 3, 73, 58
5, 63160, Note_off_c, 3, 43, 64
5, 63164, Note_on_c, 3, 75, 80
5, 63166, Note_off_c, 3, 73, 64
5, 63180, Note_off_c, 3, 75, 64
5, 63180, Note_on_c, 3, 73, 59
5, 63194, Note_on_c, 3, 75, 70
5, 63196, Note_off_c, 3, 73, 64
5, 63200, Note_on_c, 3, 51, 95
5, 63210, Note_off_c, 3, 75, 64
5, 63210, Note_on_c, 3, 73, 61
5, 63224, Note_on_c, 3, 75, 76
5, 63226, Note_off_c, 3, 73, 64
5, 63240, Note_off_c, 3, 75, 64
5, 63240, Note_on_c, 3, 73, 69
5, 63254, Note_on_c, 3, 75, 80
5, 63256, Note_off_c, 3, 73, 64
5, 63270, Note_off_c, 3, 75, 64
5, 63270, Note_on_c, 3, 73, 71
5, 63280, Note_off_c, 3, 51, 64
5, 63280, Note_on_c, 3, 58, 99
5, 63284, Note_on_c, 3, 75, 81
5, 63286, Note_off_c, 3, 73, 64
5, 63300, Note_off_c, 3, 75, 64
5, 63300, Note_on_c, 3, 73, 64
5, 63314, Note_on_c, 3, 75, 69
5, 63316, Note_off_c, 3, 73, 64
5, 63330, Note_off_c, 3, 75, 64
5, 63330, Note_on_c, 3, 73, 62
5, 63344, Note_on_c, 3, 75, 67
5, 63346, Note_off_c, 3, 73, 64
5, 63360, Note_off_c, 3, 75, 64
5, 63360, Note_off_c, 3, 58, 64
5, 63360, Note_on_c, 3, 72, 76
5, 63360, Note_on_c, 3, 32, 72
5, 63420, Note_off_c, 3, 32, 64
5, 63440, Note_on_c, 3, 63, 43
5, 63440, Note_on_c, 3, 60, 40
5, 63440, Note_on_c, 3, 56, 40
5, 63440, Note_on_c, 3, 51, 31
5, 63520, Note_off_c, 3, 51, 64
5, 63520, Note_off_c, 3, 56, 64
5, 63520, Note_off_c, 3, 60, 64
5, 63520, Note_off_c, 3, 63, 64
5, 63520, Note_on_c, 3, 63, 46
5, 63520, Note_on_c, 3, 60, 43
5, 63520, Note_on_c, 3, 56, 43
5, 63520, Note_on_c, 3, 51, 53
5, 63600, Note_off_c, 3, 51, 64
5, 63600, Note_off_c, 3, 56, 64
5, 63600, Note_off_c, 3, 60, 64
5, 63600, Note_off_c, 3, 63, 64
5, 63600, Note_on_c, 3, 36, 65
5, 63660, Note_off_c, 3, 36, 64
5, 63680, Note_on_c, 3, 63, 61
5, 63680, Note_on_c, 3, 60, 57
5, 63680, Note_on_c, 3, 56, 58
5, 63680, Note_on_c, 3, 51, 61
5, 63760, Note_off_c, 3, 51, 64
5, 63760, Note_off_c, 3, 56, 64
5, 63760, Note_off_c, 3, 60, 64
5, 63760, Note_off_c, 3, 63, 64
5, 63760, Note_on_c, 3, 63, 45
5, 63760, Note_on_c, 3, 60, 57
5, 63760, Note_on_c, 3, 56, 64
5, 63760, Note_on_c, 3, 51, 50
5, 63840, Note_off_c, 3, 51, 64
5, 63840, Note_off_c, 3, 56, 64
5, 63840, Note_off_c, 3, 60, 64
5, 63840, Note_off_c, 3, 63, 64
5, 63840, Note_off_c, 3, 72, 64
5, 63840, Note_on_c, 3, 73, 71
5, 63840, Note_on_c, 3, 39, 53
5, 63900, Note_off_c, 3, 39, 64
5, 63920, Note_on_c, 3, 63, 29
5, 63920, Note_on_c, 3, 60, 56
5, 63920, Note_on_c, 3, 56, 42
5, 63920, Note_on_c, 3, 51, 52
5, 63960, Note_off_c, 3, 73, 64
5, 63960, Note_on_c, 3, 72, 68
5, 64000, Note_off_c, 3, 51, 64
5, 64000, Note_off_c, 3, 56, 64
5, 64000, Note_off_c, 3, 60, 64
5, 64000, Note_off_c, 3, 63, 64
5, 64000, Note_on_c, 3, 63, 58
5, 64000, Note_on_c, 3, 60, 42
5, 64000, Note_on_c, 3, 56, 65
5, 64000, Note_on_c, 3, 51, 65
5, 64080, Note_off_c, 3, 51, 64
5, 64080, Note_off_c, 3, 56, 64
5, 64080, Note_off_c, 3, 60, 64
5, 64080, Note_off_c, 3, 63, 64
5, 64080, Note_off_c, 3, 72, 64
5, 64080, Note_on_c, 3, 70, 73
5, 64080, Note_on_c, 3, 44, 61
5, 64140, Note_off_c, 3, 44, 64
5, 64160, Note_on_c, 3, 63, 65
5, 64160, Note_on_c, 3, 60, 52
5, 64160, Note_on_c, 3, 56, 43
5, 64160, Note_on_c, 3, 51, 45
5, 64200, Note_off_c, 3, 70, 64
5, 64200, Note_on_c, 3, 68, 62
5, 64240, Note_off_c, 3, 51, 64
5, 64240, Note_off_c, 3, 56, 64
5, 64240, Note_off_c, 3, 60, 64
5, 64240, Note_off_c, 3, 63, 64
5, 64240, Note_on_c, 3, 63, 44
5, 64240, Note_on_c, 3, 60, 52
5, 64240, Note_on_c, 3, 56, 45
5, 64240, Note_on_c, 3, 51, 57
5, 64320, Note_off_c, 3, 51, 64
5, 64320, Note_off_c, 3, 56, 64
5, 64320, Note_off_c, 3, 60, 64
5, 64320, Note_off_c, 3, 63, 64
5, 64320, Note_off_c, 3, 68, 64
5, 64320, Note_on_c, 3, 73, 73
5, 64320, Note_on_c, 3, 39, 65
5, 64380, Note_off_c, 3, 39, 64
5, 64400, Note_on_c, 3, 63, 60
5, 64400, Note_on_c, 3, 61, 42
5, 64400, Note_on_c, 3, 58, 38
5, 64400, Note_on_c, 3, 55, 29
5, 64400, Note_on_c, 3, 51, 46
5, 64480, Note_off_c, 3, 51, 64
5, 64480, Note_off_c, 3, 55, 64
5, 64480, Note_off_c, 3, 58, 64
5, 64480, Note_off_c, 3, 61, 64
5, 64480, Note_off_c, 3, 63, 64
5, 64480, Note_on_c, 3, 63, 67
5, 64480, Note_on_c, 3, 61, 45
5, 64480, Note_on_c, 3, 58, 40
5, 64480, Note_on_c, 3, 55, 71
5, 64480, Note_on_c, 3, 51, 54
5, 64560, Note_off_c, 3, 51, 64
5, 64560, Note_off_c, 3, 55, 64
5, 64560, Note_off_c, 3, 58, 64
5, 64560, Note_off_c, 3, 61, 64
5, 64560, Note_off_c, 3, 63, 64
5, 64560, Note_on_c, 3, 43, 65
5, 64620, Note_off_c, 3, 43, 64
5, 64640, Note_on_c, 3, 63, 45
5, 64640, Note_on_c, 3, 61, 41
5, 64640, Note_on_c, 3, 58, 39
5, 64640, Note_on_c, 3, 55, 71
5, 64640, Note_on_c, 3, 51, 53
5, 64680, Note_off_c, 3, 73, 64
5, 64720, Note_off_c, 3, 51, 64
5, 64720, Note_off_c, 3, 55, 64
5, 64720, Note_off_c, 3, 58, 64
5, 64720, Note_off_c, 3, 61, 64
5, 64720, Note_off_c, 3, 63, 64
5, 64720, Note_on_c, 3, 63, 65
5, 64720, Note_on_c, 3, 61, 46
5, 64720, Note_on_c, 3, 58, 42
5, 64720, Note_on_c, 3, 55, 70
5, 64720, Note_on_c, 3, 51, 63
5, 64740, Note_on_c, 3, 70, 89
5, 64800, Note_off_c, 3, 70, 64
5, 64800, Note_off_c, 3, 51, 64
5, 64800, Note_off_c, 3, 55, 64
5, 64800, Note_off_c, 3, 58, 64
5, 64800, Note_off_c, 3, 61, 64
5, 64800, Note_off_c, 3, 63, 64
5, 64800, Note_on_c, 3, 67, 80
5, 64800, Note_on_c, 3, 46, 84
5, 64860, Note_off_c, 3, 46, 64
5, 64880, Note_on_c, 3, 63, 67
5, 64880, Note_on_c, 3, 61, 55
5, 64880, Note_on_c, 3, 58, 41
5, 64880, Note_on_c, 3, 55, 73
5, 64880, Note_on_c, 3, 51, 62
5, 64960, Note_off_c, 3, 51, 64
5, 64960, Note_off_c, 3, 55, 64
5, 64960, Note_off_c, 3, 58, 64
5, 64960, Note_off_c, 3, 61, 64
5, 64960, Note_off_c, 3, 63, 64
5, 64960, Note_on_c, 3, 63, 58
5, 64960, Note_on_c, 3, 61, 45
5, 64960, Note_on_c, 3, 58, 38
5, 64960, Note_on_c, 3, 55, 70
5, 64960, Note_on_c, 3, 51, 46
5, 65040, Note_off_c, 3, 51, 64
5, 65040, Note_off_c, 3, 55, 64
5, 65040, Note_off_c, 3, 58, 64
5, 65040, Note_off_c, 3, 61, 64
5, 65040, Note_off_c, 3, 63, 64
5, 65040, Note_off_c, 3, 67, 64
5, 65040, Note_on_c, 3, 49, 65
5, 65100, Note_off_c, 3, 49, 64
5, 65120, Note_on_c, 3, 58, 42
5, 65120, Note_on_c, 3, 55, 78
5, 65120, Note_on_c, 3, 51, 57
5, 65160, Note_on_c, 3, 63, 74
5, 65200, Note_off_c, 3, 51, 64
5, 65200, Note_off_c, 3, 55, 64
5, 65200, Note_off_c, 3, 58, 64
5, 65200, Note_on_c, 3, 58, 40
5, 65200, Note_on_c, 3, 55, 73
5, 65200, Note_on_c, 3, 51, 61
5, 65280, Note_off_c, 3, 51, 64
5, 65280, Note_off_c, 3, 55, 64
5, 65280, Note_off_c, 3, 58, 64
5, 65280, Note_off_c, 3, 63, 64
5, 65280, Note_on_c, 3, 68, 85
5, 65280, Note_on_c, 3, 48, 65
5, 65340, Note_off_c, 3, 48, 64
5, 65360, Note_on_c, 3, 63, 68
5, 65360, Note_on_c, 3, 60, 57
5, 65360, Note_on_c, 3, 56, 55
5, 65360, Note_on_c, 3, 51, 62
5, 65440, Note_off_c, 3, 51, 64
5, 65440, Note_off_c, 3, 56, 64
5, 65440, Note_off_c, 3, 60, 64
5, 65440, Note_off_c, 3, 63, 64
5, 65440, Note_on_c, 3, 63, 56
5, 65440, Note_on_c, 3, 60, 61
5, 65440, Note_on_c, 3, 56, 65
5, 65440, Note_on_c, 3, 51, 69
5, 65520, Note_off_c, 3, 51, 64
5, 65520, Note_off_c, 3, 56, 64
5, 65520, Note_off_c, 3, 60, 64
5, 65520, Note_off_c, 3, 63, 64
5, 65520, Note_off_c, 3, 68, 64
5, 65520, Note_on_c, 3, 72, 73
5, 65520, Note_on_c, 3, 44, 67
5, 65580, Note_off_c, 3, 44, 64
5, 65600, Note_on_c, 3, 63, 52
5, 65600, Note_on_c, 3, 60, 44
5, 65600, Note_on_c, 3, 56, 44
5, 65600, Note_on_c, 3, 51, 43
5, 65680, Note_off_c, 3, 51, 64
5, 65680, Note_off_c, 3, 56, 64
5, 65680, Note_off_c, 3, 60, 64
5, 65680, Note_off_c, 3, 63, 64
5, 65680, Note_on_c, 3, 63, 52
5, 65680, Note_on_c, 3, 60, 49
5, 65680, Note_on_c, 3, 56, 61
5, 65680, Note_on_c, 3, 51, 64
5, 65700, Note_off_c, 3, 72, 64
5, 65700, Note_on_c, 3, 70, 81
5, 65760, Note_off_c, 3, 70, 64
5, 65760, Note_off_c, 3, 51, 64
5, 65760, Note_off_c, 3, 56, 64
5, 65760, Note_off_c, 3, 60, 64
5, 65760, Note_off_c, 3, 63, 64
5, 65760, Note_on_c, 3, 70, 93
5, 65760, Note_on_c, 3, 43, 74
5, 65820, Note_off_c, 3, 43, 64
5, 65840, Note_on_c, 3, 63, 65
5, 65840, Note_on_c, 3, 61, 53
5, 65840, Note_on_c, 3, 58, 52
5, 65840, Note_on_c, 3, 51, 65
5, 65920, Note_off_c, 3, 51, 64
5, 65920, Note_off_c, 3, 58, 64
5, 65920, Note_off_c, 3, 61, 64
5, 65920, Note_off_c, 3, 63, 64
5, 65920, Note_on_c, 3, 63, 67
5, 65920, Note_on_c, 3, 61, 61
5, 65920, Note_on_c, 3, 58, 49
5, 65920, Note_on_c, 3, 51, 62
5, 66000, Note_off_c, 3, 51, 64
5, 66000, Note_off_c, 3, 58, 64
5, 66000, Note_off_c, 3, 61, 64
5, 66000, Note_off_c, 3, 63, 64
5, 66000, Note_off_c, 3, 70, 64
5, 66000, Note_on_c, 3, 73, 73
5, 66000, Note_on_c, 3, 39, 81
5, 66060, Note_off_c, 3, 39, 64
5, 66080, Note_on_c, 3, 67, 72
5, 66080, Note_on_c, 3, 61, 53
5, 66080, Note_on_c, 3, 58, 53
5, 66080, Note_on_c, 3, 51, 76
5, 66160, Note_off_c, 3, 51, 64
5, 66160, Note_off_c, 3, 58, 64
5, 66160, Note_off_c, 3, 61, 64
5, 66160, Note_off_c, 3, 67, 64
5, 66160, Note_on_c, 3, 67, 74
5, 66160, Note_on_c, 3, 61, 50
5, 66160, Note_on_c, 3, 58, 46
5, 66160, Note_on_c, 3, 51, 65
5, 66180, Note_off_c, 3, 73, 64
5, 66180, Note_on_c, 3, 72, 54
5, 66240, Note_off_c, 3, 72, 64
5, 66240, Note_off_c, 3, 51, 64
5, 66240, Note_off_c, 3, 58, 64
5, 66240, Note_off_c, 3, 61, 64
5, 66240, Note_off_c, 3, 67, 64
5, 66240, Note_on_c, 3, 72, 63
5, 66240, Note_on_c, 3, 44, 74
5, 66300, Note_off_c, 3, 44, 64
5, 66320, Note_off_c, 3, 72, 64
5, 66320, Note_on_c, 3, 75, 72
5, 66320, Note_on_c, 3, 68, 73
5, 66320, Note_on_c, 3, 63, 51
5, 66320, Note_on_c, 3, 60, 54
5, 66320, Note_on_c, 3, 56, 54
5, 66400, Note_off_c, 3, 56, 64
5, 66400, Note_off_c, 3, 60, 64
5, 66400, Note_off_c, 3, 63, 64
5, 66400, Note_off_c, 3, 68, 64
5, 66400, Note_off_c, 3, 75, 64
5, 66400, Note_on_c, 3, 74, 81
5, 66400, Note_on_c, 3, 68, 78
5, 66400, Note_on_c, 3, 63, 54
5, 66400, Note_on_c, 3, 60, 46
5, 66400, Note_on_c, 3, 56, 57
5, 66440, Note_off_c, 3, 74, 64
5, 66440, Note_on_c, 3, 77, 76
5, 66480, Note_off_c, 3, 77, 64
5, 66480, Note_off_c, 3, 56, 64
5, 66480, Note_off_c, 3, 60, 64
5, 66480, Note_off_c, 3, 63, 64
5, 66480, Note_off_c, 3, 68, 64
5, 66480, Note_on_c, 3, 75, 86
5, 66480, Note_on_c, 3, 48, 80
5, 66540, Note_off_c, 3, 48, 64
5, 66560, Note_off_c, 3, 75, 64
5, 66560, Note_on_c, 3, 73, 63
5, 66560, Note_on_c, 3, 68, 73
5, 66560, Note_on_c, 3, 63, 61
5, 66560, Note_on_c, 3, 60, 64
5, 66560, Note_on_c, 3, 56, 53
5, 66640, Note_off_c, 3, 56, 64
5, 66640, Note_off_c, 3, 60, 64
5, 66640, Note_off_c, 3, 63, 64
5, 66640, Note_off_c, 3, 68, 64
5, 66640, Note_off_c, 3, 73, 64
5, 66640, Note_on_c, 3, 72, 77
5, 66640, Note_on_c, 3, 68, 53
5, 66640, Note_on_c, 3, 63, 46
5, 66640, Note_on_c, 3, 60, 53
5, 66640, Note_on_c, 3, 56, 49
5, 66720, Note_off_c, 3, 56, 64
5, 66720, Note_off_c, 3, 60, 64
5, 66720, Note_off_c, 3, 63, 64
5, 66720, Note_off_c, 3, 68, 64
5, 66720, Note_off_c, 3, 72, 64
5, 66720, Note_on_c, 3, 70, 80
5, 66720, Note_on_c, 3, 58, 47
5, 66720, Note_on_c, 3, 55, 82
5, 66720, Note_on_c, 3, 51, 70
5, 66800, Note_on_c, 3, 67, 45
5, 66800, Note_on_c, 3, 63, 57
5, 66880, Note_off_c, 3, 63, 64
5, 66880, Note_off_c, 3, 67, 64
5, 66880, Note_on_c, 3, 67, 62
5, 66880, Note_on_c, 3, 63, 63
5, 66960, Note_off_c, 3, 63, 64
5, 66960, Note_off_c, 3, 67, 64
5, 66960, Note_off_c, 3, 51, 64
5, 66960, Note_off_c, 3, 55, 64
5, 66960, Note_off_c, 3, 58, 64
5, 66960, Note_on_c, 3, 67, 60
5, 66960, Note_on_c, 3, 63, 72
5, 66960, Note_on_c, 3, 61, 64
5, 67040, Note_off_c, 3, 61, 64
5, 67040, Note_off_c, 3, 63, 64
5, 67040, Note_off_c, 3, 67, 64
5, 67040, Note_on_c, 3, 67, 64
5, 67040, Note_on_c, 3, 63, 73
5, 67040, Note_on_c, 3, 61, 67
5, 67080, Note_off_c, 3, 70, 64
5, 67080, Note_on_c, 3, 71, 95
5, 67120, Note_off_c, 3, 61, 64
5, 67120, Note_off_c, 3, 63, 64
5, 67120, Note_off_c, 3, 67, 64
5, 67120, Note_on_c, 3, 67, 70
5, 67120, Note_on_c, 3, 63, 76
5, 67120, Note_on_c, 3, 61, 68
5, 67200, Note_off_c, 3, 61, 64
5, 67200, Note_off_c, 3, 63, 64
5, 67200, Note_off_c, 3, 67, 64
5, 67200, Note_off_c, 3, 71, 64
5, 67200, Note_on_c, 3, 72, 62
5, 67200, Note_on_c, 3, 32, 71
5, 67260, Note_off_c, 3, 32, 64
5, 67280, Note_on_c, 3, 63, 65
5, 67280, Note_on_c, 3, 60, 48
5, 67280, Note_on_c, 3, 56, 57
5, 67280, Note_on_c, 3, 51, 52
5, 67360, Note_off_c, 3, 51, 64
5, 67360, Note_off_c, 3, 56, 64
5, 67360, Note_off_c, 3, 60, 64
5, 67360, Note_off_c, 3, 63, 64
5, 67360, Note_on_c, 3, 63, 45
5, 67360, Note_on_c, 3, 60, 51
5, 67360, Note_on_c, 3, 56, 44
5, 67360, Note_on_c, 3, 51, 57
5, 67440, Note_off_c, 3, 51, 64
5, 67440, Note_off_c, 3, 56, 64
5, 67440, Note_off_c, 3, 60, 64
5, 67440, Note_off_c, 3, 63, 64
5, 67440, Note_on_c, 3, 36, 82
5, 67500, Note_off_c, 3, 36, 64
5, 67520, Note_on_c, 3, 63, 56
5, 67520, Note_on_c, 3, 60, 53
5, 67520, Note_on_c, 3, 56, 62
5, 67520, Note_on_c, 3, 51, 67
5, 67560, Note_off_c, 3, 72, 64
5, 67560, Note_on_c, 3, 70, 76
5, 67600, Note_off_c, 3, 51, 64
5, 67600, Note_off_c, 3, 56, 64
5, 67600, Note_off_c, 3, 60, 64
5, 67600, Note_off_c, 3, 63, 64
5, 67600, Note_on_c, 3, 63, 61
5, 67600, Note_on_c, 3, 60, 54
5, 67600, Note_on_c, 3, 56, 45
5, 67600, Note_on_c, 3, 51, 50
5, 67620, Note_off_c, 3, 70, 64
5, 67620, Note_on_c, 3, 72, 82
5, 67680, Note_off_c, 3, 72, 64
5, 67680, Note_off_c, 3, 51, 64
5, 67680, Note_off_c, 3, 56, 64
5, 67680, Note_off_c, 3, 60, 64
5, 67680, Note_off_c, 3, 63, 64
5, 67680, Note_on_c, 3, 73, 73
5, 67680, Note_on_c, 3, 39, 61
5, 67740, Note_off_c, 3, 39, 64
5, 67760, Note_on_c, 3, 66, 61
5, 67760, Note_on_c, 3, 60, 43
5, 67760, Note_on_c, 3, 56, 43
5, 67760, Note_on_c, 3, 51, 59
5, 67800, Note_off_c, 3, 73, 64
5, 67800, Note_on_c, 3, 72, 64
5, 67840, Note_off_c, 3, 51, 64
5, 67840, Note_off_c, 3, 56, 64
5, 67840, Note_off_c, 3, 60, 64
5, 67840, Note_off_c, 3, 66, 64
5, 67840, Note_on_c, 3, 66, 62
5, 67840, Note_on_c, 3, 60, 48
5, 67840, Note_on_c, 3, 56, 53
5, 67840, Note_on_c, 3, 51, 64
5, 67920, Note_off_c, 3, 51, 64
5, 67920, Note_off_c, 3, 56, 64
5, 67920, Note_off_c, 3, 60, 64
5, 67920, Note_off_c, 3, 66, 64
5, 67920, Note_off_c, 3, 72, 64
5, 67920, Note_on_c, 3, 70, 73
5, 67920, Note_on_c, 3, 44, 70
5, 67980, Note_off_c, 3, 44, 64
5, 68000, Note_on_c, 3, 66, 64
5, 68000, Note_on_c, 3, 60, 46
5, 68000, Note_on_c, 3, 56, 53
5, 68000, Note_on_c, 3, 51, 57
5, 68040, Note_off_c, 3, 70, 64
5, 68040, Note_on_c, 3, 68, 62
5, 68080, Note_off_c, 3, 51, 64
5, 68080, Note_off_c, 3, 56, 64
5, 68080, Note_off_c, 3, 60, 64
5, 68080, Note_off_c, 3, 66, 64
5, 68080, Note_on_c, 3, 66, 68
5, 68080, Note_on_c, 3, 60, 40
5, 68080, Note_on_c, 3, 56, 53
5, 68080, Note_on_c, 3, 51, 62
5, 68160, Note_off_c, 3, 51, 64
5, 68160, Note_off_c, 3, 56, 64
5, 68160, Note_off_c, 3, 60, 64
5, 68160, Note_off_c, 3, 66, 64
5, 68160, Note_off_c, 3, 68, 64
5, 68160, Note_on_c, 3, 76, 76
5, 68160, Note_on_c, 3, 37, 76
5, 68220, Note_off_c, 3, 37, 64
5, 68240, Note_on_c, 3, 68, 46
5, 68240, Note_on_c, 3, 65, 45
5, 68240, Note_on_c, 3, 61, 50
5, 68240, Note_on_c, 3, 56, 53
5, 68320, Note_off_c, 3, 56, 64
5, 68320, Note_off_c, 3, 61, 64
5, 68320, Note_off_c, 3, 65, 64
5, 68320, Note_off_c, 3, 68, 64
5, 68320, Note_on_c, 3, 68, 46
5, 68320, Note_on_c, 3, 65, 49
5, 68320, Note_on_c, 3, 61, 55
5, 68320, Note_on_c, 3, 56, 40
5, 68400, Note_off_c, 3, 56, 64
5, 68400, Note_off_c, 3, 61, 64
5, 68400, Note_off_c, 3, 65, 64
5, 68400, Note_off_c, 3, 68, 64
5, 68400, Note_off_c, 3, 76, 64
5, 68400, Note_on_c, 3, 77, 78
5, 68400, Note_on_c, 3, 49, 78
5, 68460, Note_off_c, 3, 49, 64
5, 68480, Note_on_c, 3, 68, 53
5, 68480, Note_on_c, 3, 65, 45
5, 68480, Note_on_c, 3, 61, 53
5, 68480, Note_on_c, 3, 56, 40
5, 68560, Note_off_c, 3, 56, 64
5, 68560, Note_off_c, 3, 61, 64
5, 68560, Note_off_c, 3, 65, 64
5, 68560, Note_off_c, 3, 68, 64
5, 68560, Note_on_c, 3, 68, 43
5, 68560, Note_on_c, 3, 65, 44
5, 68560, Note_on_c, 3, 61, 44
5, 68560, Note_on_c, 3, 56, 43
5, 68640, Note_off_c, 3, 56, 64
5, 68640, Note_off_c, 3, 61, 64
5, 68640, Note_off_c, 3, 65, 64
5, 68640, Note_off_c, 3, 68, 64
5, 68640, Note_on_c, 3, 53, 80
5, 68700, Note_off_c, 3, 53, 64
5, 68720, Note_on_c, 3, 80, 80
5, 68720, Note_on_c, 3, 68, 65
5, 68720, Note_on_c, 3, 61, 51
5, 68720, Note_on_c, 3, 56, 47
5, 68760, Note_off_c, 3, 77, 64
5, 68800, Note_off_c, 3, 56, 64
5, 68800, Note_off_c, 3, 61, 64
5, 68800, Note_off_c, 3, 68, 64
5, 68800, Note_off_c, 3, 80, 64
5, 68800, Note_on_c, 3, 79, 84
5, 68800, Note_on_c, 3, 68, 53
5, 68800, Note_on_c, 3, 61, 44
5, 68800, Note_on_c, 3, 56, 53
5, 68840, Note_off_c, 3, 79, 64
5, 68840, Note_on_c, 3, 82, 78
5, 68880, Note_off_c, 3, 82, 64
5, 68880, Note_off_c, 3, 56, 64
5, 68880, Note_off_c, 3, 61, 64
5, 68880, Note_off_c, 3, 68, 64
5, 68880, Note_on_c, 3, 80, 71
5, 68880, Note_on_c, 3, 49, 81
5, 68940, Note_off_c, 3, 49, 64
5, 68960, Note_off_c, 3, 80, 64
5, 68960, Note_on_c, 3, 79, 76
5, 68960, Note_on_c, 3, 68, 65
5, 68960, Note_on_c, 3, 61, 58
5, 68960, Note_on_c, 3, 56, 40
5, 69040, Note_off_c, 3, 56, 64
5, 69040, Note_off_c, 3, 61, 64
5, 69040, Note_off_c, 3, 68, 64
5, 69040, Note_off_c, 3, 79, 64
5, 69040, Note_on_c, 3, 77, 76
5, 69040, Note_on_c, 3, 68, 59
5, 69040, Note_on_c, 3, 61, 58
5, 69040, Note_on_c, 3, 56, 40
5, 69120, Note_off_c, 3, 56, 64
5, 69120, Note_off_c, 3, 61, 64
5, 69120, Note_off_c, 3, 68, 64
5, 69120, Note_off_c, 3, 77, 64
5, 69120, Note_on_c, 3, 75, 74
5, 69120, Note_on_c, 3, 48, 80
5, 69180, Note_off_c, 3, 48, 64
5, 69200, Note_off_c, 3, 75, 64
5, 69200, Note_on_c, 3, 80, 62
5, 69200, Note_on_c, 3, 68, 59
5, 69200, Note_on_c, 3, 60, 62
5, 69200, Note_on_c, 3, 56, 61
5, 69280, Note_off_c, 3, 56, 64
5, 69280, Note_off_c, 3, 60, 64
5, 69280, Note_off_c, 3, 68, 64
5, 69280, Note_off_c, 3, 80, 64
5, 69280, Note_on_c, 3, 76, 72
5, 69280, Note_on_c, 3, 68, 55
5, 69280, Note_on_c, 3, 60, 56
5, 69280, Note_on_c, 3, 56, 63
5, 69360, Note_off_c, 3, 56, 64
5, 69360, Note_off_c, 3, 60, 64
5, 69360, Note_off_c, 3, 68, 64
5, 69360, Note_off_c, 3, 76, 64
5, 69360, Note_on_c, 3, 77, 80
5, 69360, Note_on_c, 3, 49, 74
5, 69420, Note_off_c, 3, 49, 64
5, 69440, Note_off_c, 3, 77, 64
5, 69440, Note_on_c, 3, 73, 67
5, 69440, Note_on_c, 3, 65, 49
5, 69440, Note_on_c, 3, 61, 40
5, 69440, Note_on_c, 3, 58, 45
5, 69440, Note_on_c, 3, 56, 42
5, 69520, Note_off_c, 3, 56, 64
5, 69520, Note_off_c, 3, 58, 64
5, 69520, Note_off_c, 3, 61, 64
5, 69520, Note_off_c, 3, 65, 64
5, 69520, Note_off_c, 3, 73, 64
5, 69520, Note_on_c, 3, 70, 72
5, 69520, Note_on_c, 3, 65, 58
5, 69520, Note_on_c, 3, 61, 45
5, 69520, Note_on_c, 3, 58, 65
5, 69520, Note_on_c, 3, 56, 46
5, 69600, Note_off_c, 3, 56, 64
5, 69600, Note_off_c, 3, 58, 64
5, 69600, Note_off_c, 3, 61, 64
5, 69600, Note_off_c, 3, 65, 64
5, 69600, Note_off_c, 3, 70, 64
5, 69600, Note_on_c, 3, 68, 76
5, 69600, Note_on_c, 3, 51, 81
5, 69660, Note_off_c, 3, 51, 64
5, 69680, Note_on_c, 3, 63, 62
5, 69680, Note_on_c, 3, 60, 52
5, 69680, Note_on_c, 3, 56, 43
5, 69720, Note_off_c, 3, 68, 64
5, 69760, Note_off_c, 3, 56, 64
5, 69760, Note_off_c, 3, 60, 64
5, 69760, Note_off_c, 3, 63, 64
5, 69760, Note_on_c, 3, 70, 84
5, 69760, Note_on_c, 3, 63, 57
5, 69760, Note_on_c, 3, 60, 58
5, 69760, Note_on_c, 3, 56, 49
5, 69780, Note_off_c, 3, 70, 64
5, 69780, Note_on_c, 3, 68, 84
5, 69800, Note_off_c, 3, 68, 64
5, 69800, Note_on_c, 3, 67, 65
5, 69820, Note_off_c, 3, 67, 64
5, 69820, Note_on_c, 3, 68, 85
5, 69840, Note_off_c, 3, 68, 64
5, 69840, Note_off_c, 3, 56, 64
5, 69840, Note_off_c, 3, 60, 64
5, 69840, Note_off_c, 3, 63, 64
5, 69840, Note_on_c, 3, 72, 52
5, 69840, Note_on_c, 3, 39, 71
5, 69900, Note_off_c, 3, 39, 64
5, 69920, Note_on_c, 3, 61, 52
5, 69920, Note_on_c, 3, 55, 55
5, 69920, Note_on_c, 3, 51, 68
5, 70000, Note_off_c, 3, 51, 64
5, 70000, Note_off_c, 3, 55, 64
5, 70000, Note_off_c, 3, 61, 64
5, 70000, Note_on_c, 3, 61, 63
5, 70000, Note_on_c, 3, 55, 64
5, 70000, Note_on_c, 3, 51, 71
5, 70020, Note_off_c, 3, 72, 64
5, 70020, Note_on_c, 3, 70, 84
5, 70080, Note_off_c, 3, 70, 64
5, 70080, Note_off_c, 3, 51, 64
5, 70080, Note_off_c, 3, 55, 64
5, 70080, Note_off_c, 3, 61, 64
5, 70080, Note_on_c, 3, 68, 55
5, 70080, Note_on_c, 3, 60, 57
5, 70080, Note_on_c, 3, 56, 53
5, 70080, Note_on_c, 3, 51, 69
5, 70080, Note_on_c, 3, 44, 49
5, 70320, Note_off_c, 3, 44, 64
5, 70320, Note_off_c, 3, 51, 64
5, 70320, Note_off_c, 3, 56, 64
5, 70320, Note_off_c, 3, 60, 64
5, 70320, Note_off_c, 3, 68, 64
5, 70560, Note_on_c, 3, 55, 60
5, 70560, Note_on_c, 3, 43, 53
5, 70600, Note_off_c, 3, 43, 64
5, 70600, Note_off_c, 3, 55, 64
5, 70640, Note_on_c, 3, 58, 63
5, 70640, Note_on_c, 3, 46, 65
5, 70680, Note_off_c, 3, 46, 64
5, 70680, Note_off_c, 3, 58, 64
5, 70720, Note_on_c, 3, 63, 64
5, 70720, Note_on_c, 3, 51, 73
5, 70760, Note_off_c, 3, 51, 64
5, 70760, Note_off_c, 3, 63, 64
5, 70800, Note_on_c, 3, 67, 57
5, 70800, Note_on_c, 3, 55, 62
5, 70840, Note_off_c, 3, 55, 64
5, 70840, Note_off_c, 3, 67, 64
5, 70880, Note_on_c, 3, 70, 70
5, 70880, Note_on_c, 3, 58, 64
5, 70920, Note_off_c, 3, 58, 64
5, 70920, Note_off_c, 3, 70, 64
5, 70960, Note_on_c, 3, 75, 62
5, 70960, Note_on_c, 3, 63, 57
5, 71000, Note_off_c, 3, 63, 64
5, 71000, Note_off_c, 3, 75, 64
5, 71040, Note_on_c, 3, 56, 58
5, 71040, Note_on_c, 3, 44, 65
5, 71080, Note_off_c, 3, 44, 64
5, 71080, Note_off_c, 3, 56, 64
5, 71120, Note_on_c, 3, 60, 69
5, 71120, Note_on_c, 3, 48, 80
5, 71160, Note_off_c, 3, 48, 64
5, 71160, Note_off_c, 3, 60, 64
5, 71200, Note_on_c, 3, 63, 61
5, 71200, Note_on_c, 3, 51, 74
5, 71240, Note_off_c, 3, 51, 64
5, 71240, Note_off_c, 3, 63, 64
5, 71280, Note_on_c, 3, 68, 56
5, 71280, Note_on_c, 3, 56, 72
5, 71320, Note_off_c, 3, 56, 64
5, 71320, Note_off_c, 3, 68, 64
5, 71360, Note_on_c, 3, 72, 29
5, 71360, Note_on_c, 3, 60, 62
5, 71400, Note_off_c, 3, 60, 64
5, 71400, Note_off_c, 3, 72, 64
5, 71440, Note_on_c, 3, 75, 73
5, 71440, Note_on_c, 3, 63, 66
5, 71480, Note_off_c, 3, 63, 64
5, 71480, Note_off_c, 3, 75, 64
5, 71520, Note_on_c, 3, 61, 54
5, 71520, Note_on_c, 3, 49, 64
5, 71560, Note_off_c, 3, 49, 64
5, 71560, Note_off_c, 3, 61, 64
5, 71600, Note_on_c, 3, 63, 76
5, 71600, Note_on_c, 3, 51, 70
5, 71640, Note_off_c, 3, 51, 64
5, 71640, Note_off_c, 3, 63, 64
5, 71680, Note_on_c, 3, 67, 59
5, 71680, Note_on_c, 3, 55, 67
5, 71720, Note_off_c, 3, 55, 64
5, 71720, Note_off_c, 3, 67, 64
5, 71760, Note_on_c, 3, 73, 76
5, 71760, Note_on_c, 3, 61, 65
5, 71800, Note_off_c, 3, 61, 64
5, 71800, Note_off_c, 3, 73, 64
5, 71840, Note_on_c, 3, 75, 82
5, 71840, Note_on_c, 3, 63, 69
5, 71880, Note_off_c, 3, 63, 64
5, 71880, Note_off_c, 3, 75, 64
5, 71920, Note_on_c, 3, 79, 84
5, 71920, Note_on_c, 3, 67, 76
5, 71960, Note_off_c, 3, 67, 64
5, 71960, Note_off_c, 3, 79, 64
5, 72000, Note_on_c, 3, 80, 72
5, 72000, Note_on_c, 3, 68, 68
5, 72080, Note_off_c, 3, 68, 64
5, 72080, Note_off_c, 3, 80, 64
5, 72080, Note_on_c, 3, 84, 63
5, 72160, Note_off_c, 3, 84, 64
5, 72160, Note_on_c, 3, 82, 73
5, 72160, Note_on_c, 3, 70, 81
5, 72240, Note_off_c, 3, 70, 64
5, 72240, Note_off_c, 3, 82, 64
5, 72240, Note_on_c, 3, 80, 65
5, 72240, Note_on_c, 3, 68, 73
5, 72320, Note_off_c, 3, 68, 64
5, 72320, Note_off_c, 3, 80, 64
5, 72320, Note_on_c, 3, 79, 65
5, 72320, Note_on_c, 3, 67, 58
5, 72400, Note_off_c, 3, 67, 64
5, 72400, Note_off_c, 3, 79, 64
5, 72400, Note_on_c, 3, 77, 56
5, 72400, Note_on_c, 3, 65, 47
5, 72480, Note_off_c, 3, 65, 64
5, 72480, Note_off_c, 3, 77, 64
5, 72480, Note_on_c, 3, 75, 73
5, 72480, Note_on_c, 3, 70, 56
5, 72480, Note_on_c, 3, 67, 43
5, 72480, Note_on_c, 3, 63, 48
5, 72480, Note_on_c, 3, 63, 52
5, 72520, Note_off_c, 3, 63, 64
5, 72560, Note_off_c, 3, 63, 64
5, 72560, Note_off_c, 3, 67, 64
5, 72560, Note_off_c, 3, 70, 64
5, 72560, Note_on_c, 3, 70, 45
5, 72560, Note_on_c, 3, 67, 36
5, 72560, Note_on_c, 3, 63, 44
5, 72560, Note_on_c, 3, 61, 73
5, 72600, Note_off_c, 3, 61, 64
5, 72640, Note_off_c, 3, 63, 64
5, 72640, Note_off_c, 3, 67, 64
5, 72640, Note_off_c, 3, 70, 64
5, 72640, Note_on_c, 3, 70, 44
5, 72640, Note_on_c, 3, 67, 33
5, 72640, Note_on_c, 3, 63, 43
5, 72640, Note_on_c, 3, 58, 74
5, 72660, Note_off_c, 3, 75, 64
5, 72680, Note_off_c, 3, 58, 64
5, 72720, Note_off_c, 3, 63, 64
5, 72720, Note_off_c, 3, 67, 64
5, 72720, Note_off_c, 3, 70, 64
5, 72720, Note_on_c, 3, 75, 67
5, 72720, Note_on_c, 3, 70, 44
5, 72720, Note_on_c, 3, 67, 38
5, 72720, Note_on_c, 3, 63, 41
5, 72720, Note_on_c, 3, 55, 67
5, 72760, Note_off_c, 3, 55, 64
5, 72800, Note_off_c, 3, 63, 64
5, 72800, Note_off_c, 3, 67, 64
5, 72800, Note_off_c, 3, 70, 64
5, 72800, Note_on_c, 3, 70, 46
5, 72800, Note_on_c, 3, 67, 35
5, 72800, Note_on_c, 3, 63, 43
5, 72800, Note_on_c, 3, 51, 58
5, 72840, Note_off_c, 3, 51, 64
5, 72880, Note_off_c, 3, 63, 64
5, 72880, Note_off_c, 3, 67, 64
5, 72880, Note_off_c, 3, 70, 64
5, 72880, Note_on_c, 3, 70, 56
5, 72880, Note_on_c, 3, 67, 43
5, 72880, Note_on_c, 3, 63, 40
5, 72880, Note_on_c, 3, 49, 71
5, 72900, Note_off_c, 3, 75, 64
5, 72920, Note_off_c, 3, 49, 64
5, 72960, Note_off_c, 3, 63, 64
5, 72960, Note_off_c, 3, 67, 64
5, 72960, Note_off_c, 3, 70, 64
5, 72960, Note_on_c, 3, 75, 71
5, 72960, Note_on_c, 3, 72, 65
5, 72960, Note_on_c, 3, 68, 48
5, 72960, Note_on_c, 3, 48, 70
5, 73000, Note_off_c, 3, 48, 64
5, 73040, Note_off_c, 3, 68, 64
5, 73040, Note_off_c, 3, 72, 64
5, 73040, Note_on_c, 3, 72, 69
5, 73040, Note_on_c, 3, 68, 50
5, 73040, Note_on_c, 3, 51, 74
5, 73080, Note_off_c, 3, 51, 64
5, 73120, Note_off_c, 3, 68, 64
5, 73120, Note_off_c, 3, 72, 64
5, 73120, Note_on_c, 3, 72, 69
5, 73120, Note_on_c, 3, 68, 43
5, 73120, Note_on_c, 3, 48, 71
5, 73160, Note_off_c, 3, 48, 64
5, 73200, Note_off_c, 3, 68, 64
5, 73200, Note_off_c, 3, 72, 64
5, 73200, Note_on_c, 3, 72, 69
5, 73200, Note_on_c, 3, 68, 48
5, 73200, Note_on_c, 3, 44, 69
5, 73240, Note_off_c, 3, 44, 64
5, 73280, Note_off_c, 3, 68, 64
5, 73280, Note_off_c, 3, 72, 64
5, 73280, Note_on_c, 3, 72, 70
5, 73280, Note_on_c, 3, 68, 50
5, 73280, Note_on_c, 3, 48, 61
5, 73320, Note_off_c, 3, 48, 64
5, 73320, Note_off_c, 3, 75, 64
5, 73320, Note_on_c, 3, 80, 74
5, 73360, Note_off_c, 3, 68, 64
5, 73360, Note_off_c, 3, 72, 64
5, 73360, Note_on_c, 3, 72, 69
5, 73360, Note_on_c, 3, 68, 61
5, 73360, Note_on_c, 3, 44, 76
5, 73400, Note_off_c, 3, 44, 64
5, 73440, Note_off_c, 3, 68, 64
5, 73440, Note_off_c, 3, 72, 64
5, 73440, Note_off_c, 3, 80, 64
5, 73440, Note_on_c, 3, 80, 77
5, 73440, Note_on_c, 3, 74, 60
5, 73440, Note_on_c, 3, 68, 43
5, 73440, Note_on_c, 3, 41, 65
5, 73440, Note_on_c, 3, 41, 61
5, 73520, Note_off_c, 3, 41, 64
5, 73520, Note_off_c, 3, 68, 64
5, 73520, Note_off_c, 3, 74, 64
5, 73520, Note_on_c, 3, 74, 64
5, 73520, Note_on_c, 3, 68, 65
5, 73520, Note_on_c, 3, 53, 59
5, 73520, Note_on_c, 3, 46, 56
5, 73600, Note_off_c, 3, 46, 64
5, 73600, Note_off_c, 3, 53, 64
5, 73600, Note_off_c, 3, 68, 64
5, 73600, Note_off_c, 3, 74, 64
5, 73600, Note_on_c, 3, 74, 67
5, 73600, Note_on_c, 3, 68, 59
5, 73600, Note_on_c, 3, 53, 70
5, 73600, Note_on_c, 3, 46, 66
5, 73620, Note_off_c, 3, 80, 64
5, 73650, Note_on_c, 3, 79, 89
5, 73680, Note_off_c, 3, 79, 64
5, 73680, Note_off_c, 3, 46, 64
5, 73680, Note_off_c, 3, 53, 64
5, 73680, Note_off_c, 3, 68, 64
5, 73680, Note_off_c, 3, 74, 64
5, 73680, Note_off_c, 3, 41, 64
5, 73680, Note_on_c, 3, 41, 65
5, 73680, Note_on_c, 3, 80, 90
5, 73680, Note_on_c, 3, 74, 69
5, 73680, Note_on_c, 3, 68, 73
5, 73680, Note_on_c, 3, 41, 64
5, 73760, Note_off_c, 3, 41, 64
5, 73760, Note_off_c, 3, 68, 64
5, 73760, Note_off_c, 3, 74, 64
5, 73760, Note_on_c, 3, 74, 78
5, 73760, Note_on_c, 3, 68, 68
5, 73760, Note_on_c, 3, 53, 70
5, 73760, Note_on_c, 3, 46, 80
5, 73840, Note_off_c, 3, 46, 64
5, 73840, Note_off_c, 3, 53, 64
5, 73840, Note_off_c, 3, 68, 64
5, 73840, Note_off_c, 3, 74, 64
5, 73840, Note_on_c, 3, 74, 81
5, 73840, Note_on_c, 3, 68, 77
5, 73840, Note_on_c, 3, 53, 78
5, 73840, Note_on_c, 3, 46, 89
5, 73860, Note_off_c, 3, 80, 64
5, 73890, Note_on_c, 3, 82, 86
5, 73920, Note_off_c, 3, 82, 64
5, 73920, Note_off_c, 3, 46, 64
5, 73920, Note_off_c, 3, 53, 64
5, 73920, Note_off_c, 3, 68, 64
5, 73920, Note_off_c, 3, 74, 64
5, 73920, Note_off_c, 3, 41, 64
5, 73920, Note_on_c, 3, 75, 82
5, 73920, Note_on_c, 3, 67, 73
5, 73920, Note_on_c, 3, 63, 65
5, 73920, Note_on_c, 3, 58, 74
5, 73920, Note_on_c, 3, 51, 68
5, 74160, Note_off_c, 3, 51, 64
5, 74160, Note_off_c, 3, 58, 64
5, 74160, Note_off_c, 3, 63, 64
5, 74160, Note_off_c, 3, 67, 64
5, 74160, Note_off_c, 3, 75, 64
5, 74280, Note_on_c, 3, 79, 82
5, 74400, Note_off_c, 3, 79, 64
5, 74400, Note_on_c, 3, 80, 90
5, 74400, Note_on_c, 3, 74, 89
5, 74400, Note_on_c, 3, 68, 66
5, 74400, Note_on_c, 3, 34, 80
5, 74480, Note_off_c, 3, 34, 64
5, 74480, Note_off_c, 3, 68, 64
5, 74480, Note_off_c, 3, 74, 64
5, 74480, Note_on_c, 3, 74, 80
5, 74480, Note_on_c, 3, 68, 64
5, 74480, Note_on_c, 3, 46, 76
5, 74560, Note_off_c, 3, 46, 64
5, 74560, Note_off_c, 3, 68, 64
5, 74560, Note_off_c, 3, 74, 64
5, 74560, Note_on_c, 3, 74, 80
5, 74560, Note_on_c, 3, 68, 52
5, 74560, Note_on_c, 3, 46, 77
5, 74580, Note_off_c, 3, 80, 64
5, 74610, Note_on_c, 3, 79, 89
5, 74640, Note_off_c, 3, 79, 64
5, 74640, Note_off_c, 3, 46, 64
5, 74640, Note_off_c, 3, 68, 64
5, 74640, Note_off_c, 3, 74, 64
5, 74640, Note_on_c, 3, 80, 95
5, 74640, Note_on_c, 3, 74, 82
5, 74640, Note_on_c, 3, 68, 62
5, 74640, Note_on_c, 3, 46, 84
5, 74720, Note_off_c, 3, 46, 64
5, 74720, Note_off_c, 3, 68, 64
5, 74720, Note_off_c, 3, 74, 64
5, 74720, Note_on_c, 3, 74, 82
5, 74720, Note_on_c, 3, 68, 62
5, 74720, Note_on_c, 3, 44, 78
5, 74800, Note_off_c, 3, 44, 64
5, 74800, Note_off_c, 3, 68, 64
5, 74800, Note_off_c, 3, 74, 64
5, 74800, Note_on_c, 3, 74, 85
5, 74800, Note_on_c, 3, 68, 57
5, 74800, Note_on_c, 3, 41, 76
5, 74820, Note_off_c, 3, 80, 64
5, 74840, Note_off_c, 3, 41, 64
5, 74850, Note_on_c, 3, 82, 89
5, 74880, Note_off_c, 3, 82, 64
5, 74880, Note_off_c, 3, 68, 64
5, 74880, Note_off_c, 3, 74, 64
5, 74880, Note_on_c, 3, 75, 81
5, 74880, Note_on_c, 3, 67, 94
5, 74880, Note_on_c, 3, 39, 73
5, 74920, Note_off_c, 3, 39, 64
5, 74960, Note_on_c, 3, 46, 80
5, 75000, Note_off_c, 3, 46, 64
5, 75040, Note_on_c, 3, 46, 74
5, 75080, Note_off_c, 3, 46, 64
5, 75120, Note_off_c, 3, 67, 64
5, 75120, Note_off_c, 3, 75, 64
5, 75120, Note_on_c, 3, 80, 86
5, 75120, Note_on_c, 3, 46, 93
5, 75134, Note_on_c, 3, 82, 95
5, 75136, Note_off_c, 3, 80, 64
5, 75150, Note_off_c, 3, 82, 64
5, 75150, Note_on_c, 3, 80, 89
5, 75164, Note_on_c, 3, 82, 85
5, 75166, Note_off_c, 3, 80, 64
5, 75180, Note_off_c, 3, 82, 64
5, 75180, Note_on_c, 3, 80, 98
5, 75194, Note_on_c, 3, 82, 95
5, 75196, Note_off_c, 3, 80, 64
5, 75200, Note_off_c, 3, 46, 64
5, 75200, Note_on_c, 3, 44, 84
5, 75210, Note_off_c, 3, 82, 64
5, 75210, Note_on_c, 3, 80, 95
5, 75224, Note_on_c, 3, 82, 104
5, 75226, Note_off_c, 3, 80, 64
5, 75240, Note_off_c, 3, 82, 64
5, 75240, Note_on_c, 3, 80, 85
5, 75254, Note_on_c, 3, 82, 94
5, 75256, Note_off_c, 3, 80, 64
5, 75270, Note_off_c, 3, 82, 64
5, 75270, Note_on_c, 3, 80, 90
5, 75280, Note_off_c, 3, 44, 64
5, 75280, Note_on_c, 3, 41, 86
5, 75286, Note_off_c, 3, 80, 64
5, 75300, Note_on_c, 3, 82, 94
5, 75320, Note_off_c, 3, 41, 64
5, 75360, Note_off_c, 3, 82, 64
5, 75360, Note_on_c, 3, 75, 94
5, 75360, Note_on_c, 3, 39, 82
5, 75400, Note_off_c, 3, 39, 64
5, 75440, Note_on_c, 3, 46, 77
5, 75480, Note_off_c, 3, 46, 64
5, 75520, Note_on_c, 3, 46, 81
5, 75560, Note_off_c, 3, 46, 64
5, 75600, Note_off_c, 3, 75, 64
5, 75600, Note_on_c, 3, 80, 98
5, 75600, Note_on_c, 3, 46, 86
5, 75614, Note_on_c, 3, 82, 90
5, 75616, Note_off_c, 3, 80, 64
5, 75630, Note_off_c, 3, 82, 64
5, 75630, Note_on_c, 3, 80, 89
5, 75644, Note_on_c, 3, 82, 86
5, 75646, Note_off_c, 3, 80, 64
5, 75660, Note_off_c, 3, 82, 64
5, 75660, Note_on_c, 3, 80, 89
5, 75674, Note_on_c, 3, 82, 89
5, 75676, Note_off_c, 3, 80, 64
5, 75680, Note_off_c, 3, 46, 64
5, 75680, Note_on_c, 3, 44, 93
5, 75690, Note_off_c, 3, 82, 64
5, 75690, Note_on_c, 3, 80, 80
5, 75704, Note_on_c, 3, 82, 86
5, 75706, Note_off_c, 3, 80, 64
5, 75720, Note_off_c, 3, 82, 64
5, 75720, Note_on_c, 3, 80, 86
5, 75734, Note_on_c, 3, 82, 85
5, 75736, Note_off_c, 3, 80, 64
5, 75750, Note_off_c, 3, 82, 64
5, 75750, Note_on_c, 3, 80, 93
5, 75760, Note_off_c, 3, 44, 64
5, 75760, Note_on_c, 3, 41, 89
5, 75766, Note_off_c, 3, 80, 64
5, 75780, Note_on_c, 3, 82, 95
5, 75800, Note_off_c, 3, 41, 64
5, 75840, Note_off_c, 3, 82, 64
5, 75840, Note_on_c, 3, 75, 95
5, 75840, Note_on_c, 3, 39, 86
5, 75854, Note_on_c, 3, 77, 94
5, 75856, Note_off_c, 3, 75, 64
5, 75870, Note_off_c, 3, 77, 64
5, 75870, Note_on_c, 3, 75, 94
5, 75880, Note_off_c, 3, 39, 64
5, 75884, Note_on_c, 3, 77, 94
5, 75886, Note_off_c, 3, 75, 64
5, 75900, Note_off_c, 3, 77, 64
5, 75900, Note_on_c, 3, 75, 93
5, 75914, Note_on_c, 3, 77, 86
5, 75916, Note_off_c, 3, 75, 64
5, 75920, Note_on_c, 3, 51, 84
5, 75930, Note_off_c, 3, 77, 64
5, 75930, Note_on_c, 3, 75, 90
5, 75944, Note_on_c, 3, 77, 86
5, 75946, Note_off_c, 3, 75, 64
5, 75960, Note_off_c, 3, 77, 64
5, 75960, Note_off_c, 3, 51, 64
5, 75960, Note_on_c, 3, 75, 84
5, 75974, Note_on_c, 3, 77, 90
5, 75976, Note_off_c, 3, 75, 64
5, 75990, Note_off_c, 3, 77, 64
5, 75990, Note_on_c, 3, 75, 82
5, 76000, Note_on_c, 3, 39, 94
5, 76004, Note_on_c, 3, 77, 89
5, 76006, Note_off_c, 3, 75, 64
5, 76020, Note_off_c, 3, 77, 64
5, 76020, Note_on_c, 3, 75, 94
5, 76034, Note_on_c, 3, 77, 95
5, 76036, Note_off_c, 3, 75, 64
5, 76040, Note_off_c, 3, 39, 64
5, 76050, Note_off_c, 3, 77, 64
5, 76050, Note_on_c, 3, 75, 95
5, 76064, Note_on_c, 3, 77, 99
5, 76066, Note_off_c, 3, 75, 64
5, 76080, Note_off_c, 3, 77, 64
5, 76080, Note_on_c, 3, 75, 90
5, 76080, Note_on_c, 3, 51, 84
5, 76094, Note_on_c, 3, 77, 94
5, 76096, Note_off_c, 3, 75, 64
5, 76110, Note_off_c, 3, 77, 64
5, 76110, Note_on_c, 3, 75, 95
5, 76120, Note_off_c, 3, 51, 64
5, 76124, Note_on_c, 3, 77, 95
5, 76126, Note_off_c, 3, 75, 64
5, 76140, Note_off_c, 3, 77, 64
5, 76140, Note_on_c, 3, 75, 94
5, 76154, Note_on_c, 3, 77, 85
5, 76156, Note_off_c, 3, 75, 64
5, 76160, Note_on_c, 3, 39, 99
5, 76170, Note_off_c, 3, 77, 64
5, 76170, Note_on_c, 3, 75, 84
5, 76184, Note_on_c, 3, 77, 89
5, 76186, Note_off_c, 3, 75, 64
5, 76200, Note_off_c, 3, 77, 64
5, 76200, Note_off_c, 3, 39, 64
5, 76200, Note_on_c, 3, 75, 93
5, 76214, Note_on_c, 3, 77, 90
5, 76216, Note_off_c, 3, 75, 64
5, 76230, Note_off_c, 3, 77, 64
5, 76230, Note_on_c, 3, 75, 89
5, 76240, Note_on_c, 3, 51, 89
5, 76244, Note_on_c, 3, 77, 90
5, 76246, Note_off_c, 3, 75, 64
5, 76260, Note_off_c, 3, 77, 64
5, 76260, Note_on_c, 3, 75, 94
5, 76274, Note_on_c, 3, 77, 93
5, 76276, Note_off_c, 3, 75, 64
5, 76280, Note_off_c, 3, 51, 64
5, 76290, Note_off_c, 3, 77, 64
5, 76290, Note_on_c, 3, 75, 90
5, 76304, Note_on_c, 3, 77, 94
5, 76306, Note_off_c, 3, 75, 64
5, 76320, Note_off_c, 3, 77, 64
5, 76320, Note_on_c, 3, 75, 99
5, 76320, Note_on_c, 3, 41, 101
5, 76334, Note_on_c, 3, 77, 99
5, 76336, Note_off_c, 3, 75, 64
5, 76350, Note_off_c, 3, 77, 64
5, 76350, Note_on_c, 3, 75, 98
5, 76360, Note_off_c, 3, 41, 64
5, 76364, Note_on_c, 3, 77, 95
5, 76366, Note_off_c, 3, 75, 64
5, 76380, Note_off_c, 3, 77, 64
5, 76380, Note_on_c, 3, 75, 98
5, 76394, Note_on_c, 3, 77, 98
5, 76396, Note_off_c, 3, 75, 64
5, 76400, Note_on_c, 3, 53, 89
5, 76410, Note_off_c, 3, 77, 64
5, 76410, Note_on_c, 3, 75, 99
5, 76424, Note_on_c, 3, 77, 99
5, 76426, Note_off_c, 3, 75, 64
5, 76440, Note_off_c, 3, 77, 64
5, 76440, Note_off_c, 3, 53, 64
5, 76440, Note_on_c, 3, 75, 95
5, 76454, Note_on_c, 3, 77, 95
5, 76456, Note_off_c, 3, 75, 64
5, 76470, Note_off_c, 3, 77, 64
5, 76470, Note_on_c, 3, 75, 98
5, 76480, Note_on_c, 3, 41, 99
5, 76484, Note_on_c, 3, 77, 101
5, 76486, Note_off_c, 3, 75, 64
5, 76500, Note_off_c, 3, 77, 64
5, 76500, Note_on_c, 3, 75, 99
5, 76514, Note_on_c, 3, 77, 98
5, 76516, Note_off_c, 3, 75, 64
5, 76520, Note_off_c, 3, 41, 64
5, 76530, Note_off_c, 3, 77, 64
5, 76530, Note_on_c, 3, 75, 95
5, 76544, Note_on_c, 3, 77, 101
5, 76546, Note_off_c, 3, 75, 64
5, 76560, Note_off_c, 3, 77, 64
5, 76560, Note_on_c, 3, 75, 101
5, 76560, Note_on_c, 3, 55, 99
5, 76574, Note_on_c, 3, 77, 104
5, 76576, Note_off_c, 3, 75, 64
5, 76590, Note_off_c, 3, 77, 64
5, 76590, Note_on_c, 3, 75, 105
5, 76600, Note_off_c, 3, 55, 64
5, 76604, Note_on_c, 3, 77, 105
5, 76606, Note_off_c, 3, 75, 64
5, 76620, Note_off_c, 3, 77, 64
5, 76620, Note_on_c, 3, 75, 105
5, 76634, Note_on_c, 3, 77, 105
5, 76636, Note_off_c, 3, 75, 64
5, 76640, Note_on_c, 3, 43, 99
5, 76650, Note_off_c, 3, 77, 64
5, 76650, Note_on_c, 3, 75, 104
5, 76664, Note_on_c, 3, 77, 110
5, 76666, Note_off_c, 3, 75, 64
5, 76680, Note_off_c, 3, 77, 64
5, 76680, Note_off_c, 3, 43, 64
5, 76680, Note_on_c, 3, 75, 105
5, 76694, Note_on_c, 3, 77, 105
5, 76696, Note_off_c, 3, 75, 64
5, 76710, Note_off_c, 3, 77, 64
5, 76710, Note_on_c, 3, 75, 105
5, 76720, Note_on_c, 3, 55, 90
5, 76724, Note_on_c, 3, 77, 105
5, 76726, Note_off_c, 3, 75, 64
5, 76740, Note_off_c, 3, 77, 64
5, 76740, Note_on_c, 3, 75, 104
5, 76754, Note_on_c, 3, 77, 105
5, 76756, Note_off_c, 3, 75, 64
5, 76760, Note_off_c, 3, 55, 64
5, 76770, Note_off_c, 3, 77, 64
5, 76770, Note_on_c, 3, 75, 105
5, 76784, Note_on_c, 3, 77, 110
5, 76786, Note_off_c, 3, 75, 64
5, 76800, Note_off_c, 3, 77, 64
5, 76800, Note_on_c, 3, 75, 76
5, 76800, Note_on_c, 3, 44, 64
5, 76814, Note_on_c, 3, 77, 67
5, 76816, Note_off_c, 3, 75, 64
5, 76830, Note_off_c, 3, 77, 64
5, 76830, Note_on_c, 3, 75, 59
5, 76840, Note_off_c, 3, 44, 64
5, 76844, Note_on_c, 3, 77, 64
5, 76846, Note_off_c, 3, 75, 64
5, 76860, Note_off_c, 3, 77, 64
5, 76860, Note_on_c, 3, 75, 45
5, 76874, Note_on_c, 3, 77, 46
5, 76876, Note_off_c, 3, 75, 64
5, 76880, Note_on_c, 3, 48, 73
5, 76890, Note_off_c, 3, 77, 64
5, 76890, Note_on_c, 3, 75, 50
5, 76904, Note_on_c, 3, 77, 50
5, 76906, Note_off_c, 3, 75, 64
5, 76920, Note_off_c, 3, 77, 64
5, 76920, Note_off_c, 3, 48, 64
5, 76920, Note_on_c, 3, 75, 57
5, 76934, Note_on_c, 3, 77, 44
5, 76936, Note_off_c, 3, 75, 64
5, 76950, Note_off_c, 3, 77, 64
5, 76950, Note_on_c, 3, 75, 59
5, 76960, Note_on_c, 3, 51, 56
5, 76964, Note_on_c, 3, 77, 50
5, 76966, Note_off_c, 3, 75, 64
5, 76980, Note_off_c, 3, 77, 64
5, 76980, Note_on_c, 3, 75, 59
5, 76994, Note_on_c, 3, 77, 47
5, 76996, Note_off_c, 3, 75, 64
5, 77000, Note_off_c, 3, 51, 64
5, 77010, Note_off_c, 3, 77, 64
5, 77010, Note_on_c, 3, 75, 43
5, 77024, Note_on_c, 3, 77, 44
5, 77026, Note_off_c, 3, 75, 64
5, 77040, Note_off_c, 3, 77, 64
5, 77040, Note_on_c, 3, 75, 57
5, 77040, Note_on_c, 3, 56, 53
5, 77054, Note_on_c, 3, 77, 54
5, 77056, Note_off_c, 3, 75, 64
5, 77070, Note_off_c, 3, 77, 64
5, 77070, Note_on_c, 3, 75, 58
5, 77080, Note_off_c, 3, 56, 64
5, 77084, Note_on_c, 3, 77, 40
5, 77086, Note_off_c, 3, 75, 64
5, 77100, Note_off_c, 3, 77, 64
5, 77100, Note_on_c, 3, 75, 53
5, 77114, Note_on_c, 3, 77, 44
5, 77116, Note_off_c, 3, 75, 64
5, 77120, Note_on_c, 3, 60, 66
5, 77130, Note_off_c, 3, 77, 64
5, 77130, Note_on_c, 3, 75, 53
5, 77144, Note_on_c, 3, 77, 41
5, 77146, Note_off_c, 3, 75, 64
5, 77160, Note_off_c, 3, 77, 64
5, 77160, Note_off_c, 3, 60, 64
5, 77160, Note_on_c, 3, 75, 43
5, 77174, Note_on_c, 3, 77, 43
5, 77176, Note_off_c, 3, 75, 64
5, 77190, Note_off_c, 3, 77, 64
5, 77190, Note_on_c, 3, 75, 43
5, 77200, Note_on_c, 3, 63, 67
5, 77204, Note_on_c, 3, 77, 50
5, 77206, Note_off_c, 3, 75, 64
5, 77220, Note_off_c, 3, 77, 64
5, 77220, Note_on_c, 3, 75, 52
5, 77234, Note_on_c, 3, 77, 44
5, 77236, Note_off_c, 3, 75, 64
5, 77240, Note_off_c, 3, 63, 64
5, 77250, Note_off_c, 3, 77, 64
5, 77250, Note_on_c, 3, 75, 58
5, 77264, Note_on_c, 3, 77, 54
5, 77266, Note_off_c, 3, 75, 64
5, 77280, Note_off_c, 3, 77, 64
5, 77280, Note_on_c, 3, 75, 45
5, 77280, Note_on_c, 3, 68, 58
5, 77294, Note_on_c, 3, 77, 47
5, 77296, Note_off_c, 3, 75, 64
5, 77310, Note_off_c, 3, 77, 64
5, 77310, Note_on_c, 3, 75, 40
5, 77320, Note_off_c, 3, 68, 64
5, 77324, Note_on_c, 3, 77, 40
5, 77326, Note_off_c, 3, 75, 64
5, 77340, Note_off_c, 3, 77, 64
5, 77340, Note_on_c, 3, 75, 43
5, 77354, Note_on_c, 3, 77, 50
5, 77356, Note_off_c, 3, 75, 64
5, 77360, Note_on_c, 3, 63, 69
5, 77370, Note_off_c, 3, 77, 64
5, 77370, Note_on_c, 3, 75, 43
5, 77384, Note_on_c, 3, 77, 45
5, 77386, Note_off_c, 3, 75, 64
5, 77400, Note_off_c, 3, 77, 64
5, 77400, Note_off_c, 3, 63, 64
5, 77400, Note_on_c, 3, 75, 40
5, 77414, Note_on_c, 3, 77, 43
5, 77416, Note_off_c, 3, 75, 64
5, 77430, Note_off_c, 3, 77, 64
5, 77430, Note_on_c, 3, 75, 46
5, 77440, Note_on_c, 3, 60, 72
5, 77444, Note_on_c, 3, 77, 43
5, 77446, Note_off_c, 3, 75, 64
5, 77460, Note_off_c, 3, 77, 64
5, 77460, Note_on_c, 3, 75, 49
5, 77474, Note_on_c, 3, 77, 42
5, 77476, Note_off_c, 3, 75, 64
5, 77480, Note_off_c, 3, 60, 64
5, 77490, Note_off_c, 3, 77, 64
5, 77490, Note_on_c, 3, 75, 46
5, 77504, Note_on_c, 3, 77, 45
5, 77506, Note_off_c, 3, 75, 64
5, 77520, Note_off_c, 3, 77, 64
5, 77520, Note_on_c, 3, 80, 60
5, 77520, Note_on_c, 3, 56, 78
5, 77534, Note_on_c, 3, 82, 55
5, 77536, Note_off_c, 3, 80, 64
5, 77550, Note_off_c, 3, 82, 64
5, 77550, Note_on_c, 3, 80, 60
5, 77560, Note_off_c, 3, 56, 64
5, 77564, Note_on_c, 3, 82, 65
5, 77566, Note_off_c, 3, 80, 64
5, 77580, Note_off_c, 3, 82, 64
5, 77580, Note_on_c, 3, 80, 65
5, 77594, Note_on_c, 3, 82, 59
5, 77596, Note_off_c, 3, 80, 64
5, 77600, Note_on_c, 3, 51, 80
5, 77610, Note_off_c, 3, 82, 64
5, 77610, Note_on_c, 3, 80, 57
5, 77624, Note_on_c, 3, 82, 44
5, 77626, Note_off_c, 3, 80, 64
5, 77640, Note_off_c, 3, 82, 64
5, 77640, Note_off_c, 3, 51, 64
5, 77640, Note_on_c, 3, 80, 45
5, 77654, Note_on_c, 3, 82, 57
5, 77656, Note_off_c, 3, 80, 64
5, 77670, Note_off_c, 3, 82, 64
5, 77670, Note_on_c, 3, 80, 44
5, 77680, Note_on_c, 3, 48, 80
5, 77684, Note_on_c, 3, 82, 44
5, 77686, Note_off_c, 3, 80, 64
5, 77700, Note_off_c, 3, 82, 64
5, 77700, Note_on_c, 3, 80, 57
5, 77714, Note_on_c, 3, 82, 46
5, 77716, Note_off_c, 3, 80, 64
5, 77720, Note_off_c, 3, 48, 64
5, 77730, Note_off_c, 3, 82, 64
5, 77730, Note_on_c, 3, 80, 59
5, 77744, Note_on_c, 3, 82, 62
5, 77746, Note_off_c, 3, 80, 64
5, 77760, Note_off_c, 3, 82, 64
5, 77760, Note_on_c, 3, 80, 68
5, 77760, Note_on_c, 3, 37, 62
5, 77774, Note_on_c, 3, 82, 59
5, 77776, Note_off_c, 3, 80, 64
5, 77790, Note_off_c, 3, 82, 64
5, 77790, Note_on_c, 3, 80, 73
5, 77800, Note_off_c, 3, 37, 64
5, 77804, Note_on_c, 3, 82, 53
5, 77806, Note_off_c, 3, 80, 64
5, 77820, Note_off_c, 3, 82, 64
5, 77820, Note_on_c, 3, 80, 69
5, 77834, Note_on_c, 3, 82, 64
5, 77836, Note_off_c, 3, 80, 64
5, 77840, Note_on_c, 3, 41, 84
5, 77850, Note_off_c, 3, 82, 64
5, 77850, Note_on_c, 3, 80, 68
5, 77864, Note_on_c, 3, 82, 63
5, 77866, Note_off_c, 3, 80, 64
5, 77880, Note_off_c, 3, 82, 64
5, 77880, Note_off_c, 3, 41, 64
5, 77880, Note_on_c, 3, 80, 71
5, 77894, Note_on_c, 3, 82, 65
5, 77896, Note_off_c, 3, 80, 64
5, 77910, Note_off_c, 3, 82, 64
5, 77910, Note_on_c, 3, 80, 62
5, 77920, Note_on_c, 3, 44, 71
5, 77924, Note_on_c, 3, 82, 69
5, 77926, Note_off_c, 3, 80, 64
5, 77940, Note_off_c, 3, 82, 64
5, 77940, Note_on_c, 3, 80, 72
5, 77954, Note_on_c, 3, 82, 76
5, 77956, Note_off_c, 3, 80, 64
5, 77960, Note_off_c, 3, 44, 64
5, 77970, Note_off_c, 3, 82, 64
5, 77970, Note_on_c, 3, 80, 74
5, 77984, Note_on_c, 3, 82, 77
5, 77986, Note_off_c, 3, 80, 64
5, 78000, Note_off_c, 3, 82, 64
5, 78000, Note_on_c, 3, 80, 80
5, 78000, Note_on_c, 3, 49, 84
5, 78014, Note_on_c, 3, 82, 61
5, 78016, Note_off_c, 3, 80, 64
5, 78030, Note_off_c, 3, 82, 64
5, 78030, Note_on_c, 3, 80, 64
5, 78040, Note_off_c, 3, 49, 64
5, 78044, Note_on_c, 3, 82, 56
5, 78046, Note_off_c, 3, 80, 64
5, 78060, Note_off_c, 3, 82, 64
5, 78060, Note_on_c, 3, 80, 71
5, 78074, Note_on_c, 3, 82, 63
5, 78076, Note_off_c, 3, 80, 64
5, 78080, Note_on_c, 3, 53, 93
5, 78090, Note_off_c, 3, 82, 64
5, 78090, Note_on_c, 3, 80, 67
5, 78104, Note_on_c, 3, 82, 61
5, 78106, Note_off_c, 3, 80, 64
5, 78120, Note_off_c, 3, 82, 64
5, 78120, Note_off_c, 3, 53, 64
5, 78120, Note_on_c, 3, 80, 72
5, 78134, Note_on_c, 3, 82, 53
5, 78136, Note_off_c, 3, 80, 64
5, 78150, Note_off_c, 3, 82, 64
5, 78150, Note_on_c, 3, 80, 78
5, 78160, Note_on_c, 3, 56, 74
5, 78164, Note_on_c, 3, 82, 58
5, 78166, Note_off_c, 3, 80, 64
5, 78180, Note_off_c, 3, 82, 64
5, 78180, Note_on_c, 3, 80, 71
5, 78194, Note_on_c, 3, 82, 49
5, 78196, Note_off_c, 3, 80, 64
5, 78200, Note_off_c, 3, 56, 64
5, 78210, Note_off_c, 3, 82, 64
5, 78210, Note_on_c, 3, 80, 71
5, 78224, Note_on_c, 3, 82, 52
5, 78226, Note_off_c, 3, 80, 64
5, 78240, Note_off_c, 3, 82, 64
5, 78240, Note_on_c, 3, 80, 78
5, 78240, Note_on_c, 3, 61, 67
5, 78254, Note_on_c, 3, 82, 45
5, 78256, Note_off_c, 3, 80, 64
5, 78270, Note_off_c, 3, 82, 64
5, 78270, Note_on_c, 3, 80, 72
5, 78280, Note_off_c, 3, 61, 64
5, 78284, Note_on_c, 3, 82, 64
5, 78286, Note_off_c, 3, 80, 64
5, 78300, Note_off_c, 3, 82, 64
5, 78300, Note_on_c, 3, 80, 68
5, 78314, Note_on_c, 3, 82, 58
5, 78316, Note_off_c, 3, 80, 64
5, 78320, Note_on_c, 3, 49, 89
5, 78330, Note_off_c, 3, 82, 64
5, 78330, Note_on_c, 3, 80, 72
5, 78344, Note_on_c, 3, 82, 62
5, 78346, Note_off_c, 3, 80, 64
5, 78360, Note_off_c, 3, 82, 64
5, 78360, Note_off_c, 3, 49, 64
5, 78360, Note_on_c, 3, 80, 77
5, 78374, Note_on_c, 3, 82, 68
5, 78376, Note_off_c, 3, 80, 64
5, 78390, Note_off_c, 3, 82, 64
5, 78390, Note_on_c, 3, 80, 78
5, 78400, Note_on_c, 3, 61, 74
5, 78404, Note_on_c, 3, 82, 64
5, 78406, Note_off_c, 3, 80, 64
5, 78420, Note_off_c, 3, 82, 64
5, 78420, Note_on_c, 3, 80, 84
5, 78434, Note_on_c, 3, 82, 64
5, 78436, Note_off_c, 3, 80, 64
5, 78440, Note_off_c, 3, 61, 64
5, 78450, Note_off_c, 3, 82, 64
5, 78450, Note_on_c, 3, 80, 71
5, 78464, Note_on_c, 3, 82, 70
5, 78466, Note_off_c, 3, 80, 64
5, 78480, Note_off_c, 3, 82, 64
5, 78480, Note_on_c, 3, 80, 73
5, 78480, Note_on_c, 3, 50, 95
5, 78494, Note_on_c, 3, 82, 72
5, 78496, Note_off_c, 3, 80, 64
5, 78510, Note_off_c, 3, 82, 64
5, 78510, Note_on_c, 3, 80, 72
5, 78520, Note_off_c, 3, 50, 64
5, 78524, Note_on_c, 3, 82, 76
5, 78526, Note_off_c, 3, 80, 64
5, 78540, Note_off_c, 3, 82, 64
5, 78540, Note_on_c, 3, 80, 73
5, 78554, Note_on_c, 3, 82, 73
5, 78556, Note_off_c, 3, 80, 64
5, 78560, Note_on_c, 3, 62, 80
5, 78570, Note_off_c, 3, 82, 64
5, 78570, Note_on_c, 3, 80, 72
5, 78584, Note_on_c, 3, 82, 76
5, 78586, Note_off_c, 3, 80, 64
5, 78600, Note_off_c, 3, 82, 64
5, 78600, Note_off_c, 3, 62, 64
5, 78600, Note_on_c, 3, 80, 74
5, 78614, Note_on_c, 3, 82, 76
5, 78616, Note_off_c, 3, 80, 64
5, 78630, Note_off_c, 3, 82, 64
5, 78630, Note_on_c, 3, 80, 76
5, 78640, Note_on_c, 3, 50, 99
5, 78644, Note_on_c, 3, 82, 76
5, 78646, Note_off_c, 3, 80, 64
5, 78660, Note_off_c, 3, 82, 64
5, 78660, Note_on_c, 3, 80, 76
5, 78674, Note_on_c, 3, 82, 78
5, 78676, Note_off_c, 3, 80, 64
5, 78680, Note_off_c, 3, 50, 64
5, 78690, Note_off_c, 3, 82, 64
5, 78690, Note_on_c, 3, 80, 84
5, 78704, Note_on_c, 3, 82, 99
5, 78706, Note_off_c, 3, 80, 64
5, 78720, Note_off_c, 3, 82, 64
5, 78720, Note_on_c, 3, 87, 73
5, 78720, Note_on_c, 3, 51, 98
5, 78734, Note_on_c, 3, 89, 86
5, 78736, Note_off_c, 3, 87, 64
5, 78750, Note_off_c, 3, 89, 64
5, 78750, Note_on_c, 3, 87, 71
5, 78760, Note_off_c, 3, 51, 64
5, 78764, Note_on_c, 3, 89, 64
5, 78766, Note_off_c, 3, 87, 64
5, 78780, Note_off_c, 3, 89, 64
5, 78780, Note_on_c, 3, 87, 59
5, 78794, Note_on_c, 3, 89, 76
5, 78796, Note_off_c, 3, 87, 64
5, 78800, Note_on_c, 3, 60, 86
5, 78810, Note_off_c, 3, 89, 64
5, 78810, Note_on_c, 3, 87, 65
5, 78824, Note_on_c, 3, 89, 76
5, 78826, Note_off_c, 3, 87, 64
5, 78840, Note_off_c, 3, 89, 64
5, 78840, Note_off_c, 3, 60, 64
5, 78840, Note_on_c, 3, 87, 71
5, 78854, Note_on_c, 3, 89, 76
5, 78856, Note_off_c, 3, 87, 64
5, 78870, Note_off_c, 3, 89, 64
5, 78870, Note_on_c, 3, 87, 68
5, 78880, Note_on_c, 3, 56, 95
5, 78884, Note_on_c, 3, 89, 78
5, 78886, Note_off_c, 3, 87, 64
5, 78900, Note_off_c, 3, 89, 64
5, 78900, Note_on_c, 3, 87, 54
5, 78914, Note_on_c, 3, 89, 84
5, 78916, Note_off_c, 3, 87, 64
5, 78920, Note_off_c, 3, 56, 64
5, 78930, Note_off_c, 3, 89, 64
5, 78930, Note_on_c, 3, 87, 68
5, 78944, Note_on_c, 3, 89, 43
5, 78946, Note_off_c, 3, 87, 64
5, 78960, Note_off_c, 3, 89, 64
5, 78960, Note_on_c, 3, 87, 71
5, 78960, Note_on_c, 3, 51, 89
5, 78974, Note_on_c, 3, 89, 77
5, 78976, Note_off_c, 3, 87, 64
5, 78990, Note_off_c, 3, 89, 64
5, 78990, Note_on_c, 3, 87, 54
5, 79000, Note_off_c, 3, 51, 64
5, 79004, Note_on_c, 3, 89, 72
5, 79006, Note_off_c, 3, 87, 64
5, 79020, Note_off_c, 3, 89, 64
5, 79020, Note_on_c, 3, 87, 69
5, 79034, Note_on_c, 3, 89, 72
5, 79036, Note_off_c, 3, 87, 64
5, 79040, Note_on_c, 3, 48, 105
5, 79050, Note_off_c, 3, 89, 64
5, 79050, Note_on_c, 3, 87, 57
5, 79064, Note_on_c, 3, 89, 71
5, 79066, Note_off_c, 3, 87, 64
5, 79080, Note_off_c, 3, 89, 64
5, 79080, Note_off_c, 3, 48, 64
5, 79080, Note_on_c, 3, 87, 62
5, 79094, Note_on_c, 3, 89, 78
5, 79096, Note_off_c, 3, 87, 64
5, 79110, Note_off_c, 3, 89, 64
5, 79110, Note_on_c, 3, 87, 68
5, 79120, Note_on_c, 3, 44, 99
5, 79124, Note_on_c, 3, 89, 71
5, 79126, Note_off_c, 3, 87, 64
5, 79140, Note_off_c, 3, 89, 64
5, 79140, Note_on_c, 3, 87, 57
5, 79154, Note_on_c, 3, 89, 72
5, 79156, Note_off_c, 3, 87, 64
5, 79160, Note_off_c, 3, 44, 64
5, 79170, Note_off_c, 3, 89, 64
5, 79170, Note_on_c, 3, 87, 72
5, 79184, Note_on_c, 3, 89, 78
5, 79186, Note_off_c, 3, 87, 64
5, 79200, Note_off_c, 3, 89, 64
5, 79200, Note_on_c, 3, 87, 71
5, 79200, Note_on_c, 3, 39, 101
5, 79214, Note_on_c, 3, 89, 61
5, 79216, Note_off_c, 3, 87, 64
5, 79230, Note_off_c, 3, 89, 64
5, 79230, Note_on_c, 3, 87, 77
5, 79240, Note_off_c, 3, 39, 64
5, 79244, Note_on_c, 3, 89, 63
5, 79246, Note_off_c, 3, 87, 64
5, 79260, Note_off_c, 3, 89, 64
5, 79260, Note_on_c, 3, 87, 65
5, 79274, Note_on_c, 3, 89, 65
5, 79276, Note_off_c, 3, 87, 64
5, 79280, Note_on_c, 3, 43, 105
5, 79290, Note_off_c, 3, 89, 64
5, 79290, Note_on_c, 3, 87, 62
5, 79304, Note_on_c, 3, 89, 68
5, 79306, Note_off_c, 3, 87, 64
5, 79320, Note_off_c, 3, 89, 64
5, 79320, Note_off_c, 3, 43, 64
5, 79320, Note_on_c, 3, 87, 68
5, 79334, Note_on_c, 3, 89, 67
5, 79336, Note_off_c, 3, 87, 64
5, 79350, Note_off_c, 3, 89, 64
5, 79350, Note_on_c, 3, 87, 65
5, 79360, Note_on_c, 3, 46, 85
5, 79364, Note_on_c, 3, 89, 63
5, 79366, Note_off_c, 3, 87, 64
5, 79380, Note_off_c, 3, 89, 64
5, 79380, Note_on_c, 3, 87, 53
5, 79394, Note_on_c, 3, 89, 76
5, 79396, Note_off_c, 3, 87, 64
5, 79400, Note_off_c, 3, 46, 64
5, 79410, Note_off_c, 3, 89, 64
5, 79410, Note_on_c, 3, 87, 64
5, 79424, Note_on_c, 3, 89, 72
5, 79426, Note_off_c, 3, 87, 64
5, 79440, Note_off_c, 3, 89, 64
5, 79440, Note_on_c, 3, 87, 67
5, 79440, Note_on_c, 3, 51, 95
5, 79454, Note_on_c, 3, 89, 66
5, 79456, Note_off_c, 3, 87, 64
5, 79470, Note_off_c, 3, 89, 64
5, 79470, Note_on_c, 3, 87, 61
5, 79480, Note_off_c, 3, 51, 64
5, 79484, Note_on_c, 3, 89, 72
5, 79486, Note_off_c, 3, 87, 64
5, 79500, Note_off_c, 3, 89, 64
5, 79500, Note_on_c, 3, 87, 53
5, 79514, Note_on_c, 3, 89, 67
5, 79516, Note_off_c, 3, 87, 64
5, 79520, Note_on_c, 3, 53, 98
5, 79530, Note_off_c, 3, 89, 64
5, 79530, Note_on_c, 3, 87, 58
5, 79544, Note_on_c, 3, 89, 53
5, 79546, Note_off_c, 3, 87, 64
5, 79560, Note_off_c, 3, 89, 64
5, 79560, Note_off_c, 3, 53, 64
5, 79560, Note_on_c, 3, 87, 52
5, 79574, Note_on_c, 3, 89, 72
5, 79576, Note_off_c, 3, 87, 64
5, 79590, Note_off_c, 3, 89, 64
5, 79590, Note_on_c, 3, 87, 68
5, 79600, Note_on_c, 3, 55, 90
5, 79604, Note_on_c, 3, 89, 72
5, 79606, Note_off_c, 3, 87, 64
5, 79620, Note_off_c, 3, 89, 64
5, 79620, Note_on_c, 3, 86, 104
5, 79640, Note_off_c, 3, 55, 64
5, 79650, Note_off_c, 3, 86, 64
5, 79650, Note_on_c, 3, 87, 104
5, 79680, Note_off_c, 3, 87, 64
5, 79680, Note_on_c, 3, 80, 105
5, 79680, Note_on_c, 3, 56, 93
5, 79680, Note_on_c, 3, 44, 99
5, 79840, Note_off_c, 3, 44, 64
5, 79840, Note_off_c, 3, 56, 64
5, 79840, Note_off_c, 3, 80, 64
5, 86400, Note_on_c, 3, 44, 40
5, 86400, Note_on_c, 3, 32, 34
5, 86440, Note_off_c, 3, 32, 64
5, 86440, Note_off_c, 3, 44, 64
5, 86480, Note_on_c, 3, 44, 38
5, 86480, Note_on_c, 3, 32, 43
5, 86520, Note_off_c, 3, 32, 64
5, 86520, Note_off_c, 3, 44, 64
5, 86560, Note_on_c, 3, 44, 29
5, 86560, Note_on_c, 3, 32, 32
5, 86600, Note_off_c, 3, 32, 64
5, 86600, Note_off_c, 3, 44, 64
5, 86640, Note_on_c, 3, 44, 29
5, 86640, Note_on_c, 3, 32, 31
5, 86680, Note_off_c, 3, 32, 64
5, 86680, Note_off_c, 3, 44, 64
5, 86720, Note_on_c, 3, 44, 35
5, 86720, Note_on_c, 3, 32, 35
5, 86760, Note_off_c, 3, 32, 64
5, 86760, Note_off_c, 3, 44, 64
5, 86800, Note_on_c, 3, 44, 29
5, 86800, Note_on_c, 3, 32, 34
5, 86840, Note_off_c, 3, 32, 64
5, 86840, Note_off_c, 3, 44, 64
5, 86880, Note_on_c, 3, 66, 31
5, 86880, Note_on_c, 3, 63, 35
5, 86880, Note_on_c, 3, 60, 36
5, 86880, Note_on_c, 3, 57, 43
5, 86880, Note_on_c, 3, 44, 29
5, 86880, Note_on_c, 3, 32, 32
5, 86884, Control_c, 3, 64, 4
5, 86888, Control_c, 3, 64, 8
5, 86896, Control_c, 3, 64, 12
5, 86904, Control_c, 3, 64, 22
5, 86908, Control_c, 3, 64, 25
5, 86916, Control_c, 3, 64, 29
5, 86920, Note_off_c, 3, 32, 64
5, 86920, Note_off_c, 3, 44, 64
5, 86924, Control_c, 3, 64, 36
5, 86928, Control_c, 3, 64, 42
5, 86936, Control_c, 3, 64, 49
5, 86940, Control_c, 3, 64, 52
5, 86944, Control_c, 3, 64, 56
5, 86948, Control_c, 3, 64, 60
5, 86952, Control_c, 3, 64, 67
5, 86956, Control_c, 3, 64, 71
5, 86960, Note_on_c, 3, 44, 32
5, 86960, Note_on_c, 3, 32, 39
5, 86964, Control_c, 3, 64, 73
5, 86972, Control_c, 3, 64, 75
5, 86976, Control_c, 3, 64, 77
5, 86996, Control_c, 3, 64, 84
5, 87000, Note_off_c, 3, 32, 64
5, 87000, Note_off_c, 3, 44, 64
5, 87000, Control_c, 3, 64, 88
5, 87008, Control_c, 3, 64, 90
5, 87016, Control_c, 3, 64, 93
5, 87020, Control_c, 3, 64, 96
5, 87024, Control_c, 3, 64, 99
5, 87028, Control_c, 3, 64, 100
5, 87040, Control_c, 3, 64, 104
5, 87040, Note_on_c, 3, 44, 29
5, 87040, Note_on_c, 3, 32, 35
5, 87052, Control_c, 3, 64, 108
5, 87060, Control_c, 3, 64, 110
5, 87068, Control_c, 3, 64, 112
5, 87072, Control_c, 3, 64, 114
5, 87080, Note_off_c, 3, 32, 64
5, 87080, Note_off_c, 3, 44, 64
5, 87096, Control_c, 3, 64, 117
5, 87104, Control_c, 3, 64, 118
5, 87120, Note_off_c, 3, 57, 64
5, 87120, Note_off_c, 3, 60, 64
5, 87120, Note_off_c, 3, 63, 64
5, 87120, Note_off_c, 3, 66, 64
5, 87120, Note_on_c, 3, 66, 33
5, 87120, Note_on_c, 3, 63, 37
5, 87120, Note_on_c, 3, 60, 32
5, 87120, Note_on_c, 3, 57, 45
5, 87120, Note_on_c, 3, 44, 29
5, 87120, Note_on_c, 3, 32, 29
5, 87160, Note_off_c, 3, 32, 64
5, 87160, Note_off_c, 3, 44, 64
5, 87176, Control_c, 3, 64, 121
5, 87188, Control_c, 3, 64, 122
5, 87200, Note_on_c, 3, 44, 30
5, 87200, Note_on_c, 3, 32, 36
5, 87236, Control_c, 3, 64, 124
5, 87240, Note_off_c, 3, 32, 64
5, 87240, Note_off_c, 3, 44, 64
5, 87260, Control_c, 3, 64, 125
5, 87280, Note_on_c, 3, 44, 31
5, 87280, Note_on_c, 3, 32, 35
5, 87316, Control_c, 3, 64, 127
5, 87320, Note_off_c, 3, 32, 64
5, 87320, Note_off_c, 3, 44, 64
5, 87324, Control_c, 3, 64, 122
5, 87360, Note_off_c, 3, 57, 64
5, 87360, Note_off_c, 3, 60, 64
5, 87360, Note_off_c, 3, 63, 64
5, 87360, Note_off_c, 3, 66, 64
5, 87360, Note_on_c, 3, 65, 40
5, 87360, Note_on_c, 3, 61, 39
5, 87360, Note_on_c, 3, 56, 33
5, 87360, Note_on_c, 3, 44, 43
5, 87360, Note_on_c, 3, 32, 35
5, 87440, Note_off_c, 3, 32, 64
5, 87440, Note_off_c, 3, 44, 64
5, 87440, Note_on_c, 3, 44, 40
5, 87440, Note_on_c, 3, 32, 31
5, 87520, Note_off_c, 3, 32, 64
5, 87520, Note_off_c, 3, 44, 64
5, 87520, Note_on_c, 3, 44, 29
5, 87520, Note_on_c, 3, 32, 31
5, 87600, Note_off_c, 3, 32, 64
5, 87600, Note_off_c, 3, 44, 64
5, 87600, Note_off_c, 3, 56, 64
5, 87600, Note_off_c, 3, 61, 64
5, 87600, Note_off_c, 3, 65, 64
5, 87600, Note_on_c, 3, 44, 40
5, 87600, Note_on_c, 3, 32, 42
5, 87664, Control_c, 3, 64, 123
5, 87680, Note_off_c, 3, 32, 64
5, 87680, Note_off_c, 3, 44, 64
5, 87680, Note_on_c, 3, 44, 38
5, 87680, Note_on_c, 3, 32, 36
5, 87760, Note_off_c, 3, 32, 64
5, 87760, Note_off_c, 3, 44, 64
5, 87760, Note_on_c, 3, 44, 31
5, 87760, Note_on_c, 3, 32, 35
5, 87768, Control_c, 3, 64, 125
5, 87796, Control_c, 3, 64, 126
5, 87824, Control_c, 3, 64, 127
5, 87840, Note_off_c, 3, 32, 64
5, 87840, Note_off_c, 3, 44, 64
5, 87840, Note_on_c, 3, 64, 40
5, 87840, Note_on_c, 3, 61, 38
5, 87840, Note_on_c, 3, 58, 38
5, 87840, Note_on_c, 3, 55, 33
5, 87840, Note_on_c, 3, 44, 29
5, 87840, Note_on_c, 3, 32, 32
5, 87920, Note_off_c, 3, 32, 64
5, 87920, Note_off_c, 3, 44, 64
5, 87920, Note_on_c, 3, 44, 30
5, 87920, Note_on_c, 3, 32, 29
5, 88000, Note_off_c, 3, 32, 64
5, 88000, Note_off_c, 3, 44, 64
5, 88000, Note_on_c, 3, 44, 29
5, 88000, Note_on_c, 3, 32, 31
5, 88080, Note_off_c, 3, 32, 64
5, 88080, Note_off_c, 3, 44, 64
5, 88080, Note_off_c, 3, 55, 64
5, 88080, Note_off_c, 3, 58, 64
5, 88080, Note_off_c, 3, 61, 64
5, 88080, Note_off_c, 3, 64, 64
5, 88080, Note_on_c, 3, 64, 40
5, 88080, Note_on_c, 3, 61, 35
5, 88080, Note_on_c, 3, 58, 29
5, 88080, Note_on_c, 3, 55, 37
5, 88080, Note_on_c, 3, 44, 32
5, 88080, Note_on_c, 3, 32, 33
5, 88160, Note_off_c, 3, 32, 64
5, 88160, Note_off_c, 3, 44, 64
5, 88160, Note_on_c, 3, 44, 33
5, 88160, Note_on_c, 3, 32, 32
5, 88184, Control_c, 3, 64, 126
5, 88192, Control_c, 3, 64, 124
5, 88208, Control_c, 3, 64, 122
5, 88216, Control_c, 3, 64, 119
5, 88220, Control_c, 3, 64, 116
5, 88224, Control_c, 3, 64, 114
5, 88228, Control_c, 3, 64, 111
5, 88232, Control_c, 3, 64, 108
5, 88236, Control_c, 3, 64, 106
5, 88240, Note_off_c, 3, 32, 64
5, 88240, Note_off_c, 3, 44, 64
5, 88240, Note_on_c, 3, 44, 31
5, 88240, Note_on_c, 3, 32, 35
5, 88240, Control_c, 3, 64, 104
5, 88244, Control_c, 3, 64, 102
5, 88256, Control_c, 3, 64, 94
5, 88260, Control_c, 3, 64, 91
5, 88264, Control_c, 3, 64, 86
5, 88268, Control_c, 3, 64, 80
5, 88272, Control_c, 3, 64, 65
5, 88276, Control_c, 3, 64, 44
5, 88280, Control_c, 3, 64, 37
5, 88284, Control_c, 3, 64, 35
5, 88288, Control_c, 3, 64, 28
5, 88292, Control_c, 3, 64, 25
5, 88296, Control_c, 3, 64, 21
5, 88300, Control_c, 3, 64, 19
5, 88304, Control_c, 3, 64, 15
5, 88308, Control_c, 3, 64, 9
5, 88312, Control_c, 3, 64, 7
5, 88316, Control_c, 3, 64, 4
5, 88320, Note_off_c, 3, 32, 64
5, 88320, Note_off_c, 3, 44, 64
5, 88320, Note_off_c, 3, 55, 64
5, 88320, Note_off_c, 3, 58, 64
5, 88320, Note_off_c, 3, 61, 64
5, 88320, Note_off_c, 3, 64, 64
5, 88320, Control_c, 3, 64, 2
5, 88320, Note_on_c, 3, 63, 40
5, 88320, Note_on_c, 3, 60, 37
5, 88320, Note_on_c, 3, 56, 35
5, 88320, Note_on_c, 3, 44, 38
5, 88320, Note_on_c, 3, 32, 36
5, 88560, Note_off_c, 3, 32, 64
5, 88560, Note_off_c, 3, 44, 64
5, 88560, Note_off_c, 3, 56, 64
5, 88560, Note_off_c, 3, 60, 64
5, 88560, Note_off_c, 3, 63, 64
5, 88800, Note_on_c, 3, 56, 52
5, 88800, Note_on_c, 3, 51, 45
5, 88800, Note_on_c, 3, 48, 44
5, 88840, Note_off_c, 3, 48, 64
5, 88840, Note_off_c, 3, 51, 64
5, 88840, Note_off_c, 3, 56, 64
5, 88880, Note_on_c, 3, 68, 53
5, 88880, Note_on_c, 3, 63, 40
5, 88880, Note_on_c, 3, 60, 43
5, 88920, Note_off_c, 3, 60, 64
5, 88920, Note_off_c, 3, 63, 64
5, 88920, Note_off_c, 3, 68, 64
5, 88960, Note_on_c, 3, 68, 61
5, 88960, Note_on_c, 3, 63, 43
5, 88960, Note_on_c, 3, 60, 50
5, 89000, Note_off_c, 3, 60, 64
5, 89000, Note_off_c, 3, 63, 64
5, 89000, Note_off_c, 3, 68, 64
5, 89040, Note_on_c, 3, 68, 58
5, 89040, Note_on_c, 3, 63, 39
5, 89040, Note_on_c, 3, 60, 43
5, 89120, Note_off_c, 3, 60, 64
5, 89120, Note_off_c, 3, 63, 64
5, 89120, Note_off_c, 3, 68, 64
5, 89120, Note_on_c, 3, 70, 43
5, 89120, Note_on_c, 3, 67, 44
5, 89120, Note_on_c, 3, 61, 43
5, 89120, Note_on_c, 3, 58, 40
5, 89200, Note_off_c, 3, 58, 64
5, 89200, Note_off_c, 3, 61, 64
5, 89200, Note_off_c, 3, 67, 64
5, 89200, Note_off_c, 3, 70, 64
5, 89200, Note_on_c, 3, 68, 46
5, 89200, Note_on_c, 3, 60, 38
5, 89200, Note_on_c, 3, 56, 43
5, 89280, Note_off_c, 3, 56, 64
5, 89280, Note_off_c, 3, 60, 64
5, 89280, Note_off_c, 3, 68, 64
5, 89280, Note_on_c, 3, 73, 35
5, 89280, Note_on_c, 3, 70, 47
5, 89280, Note_on_c, 3, 58, 44
5, 89280, Note_on_c, 3, 55, 47
5, 89520, Note_off_c, 3, 55, 64
5, 89520, Note_off_c, 3, 58, 64
5, 89520, Note_off_c, 3, 70, 64
5, 89520, Note_off_c, 3, 73, 64
5, 89760, Note_on_c, 3, 60, 43
5, 89760, Note_on_c, 3, 48, 51
5, 89760, Note_on_c, 3, 44, 45
5, 89800, Note_off_c, 3, 44, 64
5, 89800, Note_off_c, 3, 48, 64
5, 89800, Note_off_c, 3, 60, 64
5, 89840, Note_on_c, 3, 68, 41
5, 89840, Note_on_c, 3, 63, 43
5, 89840, Note_on_c, 3, 60, 43
5, 89880, Note_off_c, 3, 60, 64
5, 89880, Note_off_c, 3, 63, 64
5, 89880, Note_off_c, 3, 68, 64
5, 89920, Note_on_c, 3, 68, 54
5, 89920, Note_on_c, 3, 63, 42
5, 89920, Note_on_c, 3, 60, 40
5, 89960, Note_off_c, 3, 60, 64
5, 89960, Note_off_c, 3, 63, 64
5, 89960, Note_off_c, 3, 68, 64
5, 90000, Note_on_c, 3, 68, 52
5, 90000, Note_on_c, 3, 63, 43
5, 90000, Note_on_c, 3, 60, 43
5, 90080, Note_off_c, 3, 60, 64
5, 90080, Note_off_c, 3, 63, 64
5, 90080, Note_off_c, 3, 68, 64
5, 90080, Note_on_c, 3, 70, 44
5, 90080, Note_on_c, 3, 67, 41
5, 90080, Note_on_c, 3, 61, 42
5, 90080, Note_on_c, 3, 58, 42
5, 90160, Note_off_c, 3, 58, 64
5, 90160, Note_off_c, 3, 61, 64
5, 90160, Note_off_c, 3, 67, 64
5, 90160, Note_off_c, 3, 70, 64
5, 90160, Note_on_c, 3, 68, 43
5, 90160, Note_on_c, 3, 60, 45
5, 90160, Note_on_c, 3, 56, 41
5, 90240, Note_off_c, 3, 56, 64
5, 90240, Note_off_c, 3, 60, 64
5, 90240, Note_off_c, 3, 68, 64
5, 90240, Note_on_c, 3, 73, 50
5, 90240, Note_on_c, 3, 70, 43
5, 90240, Note_on_c, 3, 58, 43
5, 90240, Note_on_c, 3, 55, 45
5, 90480, Note_off_c, 3, 55, 64
5, 90480, Note_off_c, 3, 58, 64
5, 90480, Note_off_c, 3, 70, 64
5, 90480, Note_off_c, 3, 73, 64
5, 90720, Note_on_c, 3, 60, 51
5, 90720, Note_on_c, 3, 48, 43
5, 90720, Note_on_c, 3, 44, 45
5, 90760, Note_off_c, 3, 44, 64
5, 90760, Note_off_c, 3, 48, 64
5, 90760, Note_off_c, 3, 60, 64
5, 90800, Note_on_c, 3, 68, 45
5, 90800, Note_on_c, 3, 63, 40
5, 90800, Note_on_c, 3, 60, 44
5, 90840, Note_off_c, 3, 60, 64
5, 90840, Note_off_c, 3, 63, 64
5, 90840, Note_off_c, 3, 68, 64
5, 90880, Note_on_c, 3, 68, 50
5, 90880, Note_on_c, 3, 63, 37
5, 90880, Note_on_c, 3, 60, 44
5, 90920, Note_off_c, 3, 60, 64
5, 90920, Note_off_c, 3, 63, 64
5, 90920, Note_off_c, 3, 68, 64
5, 90960, Note_on_c, 3, 68, 58
5, 90960, Note_on_c, 3, 63, 39
5, 90960, Note_on_c, 3, 60, 43
5, 91040, Note_off_c, 3, 60, 64
5, 91040, Note_off_c, 3, 63, 64
5, 91040, Note_off_c, 3, 68, 64
5, 91040, Note_on_c, 3, 70, 65
5, 91040, Note_on_c, 3, 67, 43
5, 91040, Note_on_c, 3, 61, 43
5, 91040, Note_on_c, 3, 58, 50
5, 91120, Note_off_c, 3, 58, 64
5, 91120, Note_off_c, 3, 61, 64
5, 91120, Note_off_c, 3, 67, 64
5, 91120, Note_off_c, 3, 70, 64
5, 91120, Note_on_c, 3, 68, 44
5, 91120, Note_on_c, 3, 60, 39
5, 91120, Note_on_c, 3, 56, 42
5, 91200, Note_off_c, 3, 56, 64
5, 91200, Note_off_c, 3, 60, 64
5, 91200, Note_off_c, 3, 68, 64
5, 91200, Note_on_c, 3, 73, 46
5, 91200, Note_on_c, 3, 70, 44
5, 91200, Note_on_c, 3, 58, 45
5, 91200, Note_on_c, 3, 55, 46
5, 91280, Note_off_c, 3, 55, 64
5, 91280, Note_off_c, 3, 58, 64
5, 91280, Note_off_c, 3, 70, 64
5, 91280, Note_off_c, 3, 73, 64
5, 91280, Note_on_c, 3, 70, 46
5, 91280, Note_on_c, 3, 67, 39
5, 91280, Note_on_c, 3, 64, 45
5, 91280, Note_on_c, 3, 61, 45
5, 91360, Note_off_c, 3, 61, 64
5, 91360, Note_off_c, 3, 64, 64
5, 91360, Note_off_c, 3, 67, 64
5, 91360, Note_off_c, 3, 70, 64
5, 91360, Note_on_c, 3, 70, 43
5, 91360, Note_on_c, 3, 67, 39
5, 91360, Note_on_c, 3, 64, 35
5, 91360, Note_on_c, 3, 61, 43
5, 91440, Note_off_c, 3, 61, 64
5, 91440, Note_off_c, 3, 64, 64
5, 91440, Note_off_c, 3, 67, 64
5, 91440, Note_off_c, 3, 70, 64
5, 91440, Note_on_c, 3, 70, 53
5, 91440, Note_on_c, 3, 67, 35
5, 91440, Note_on_c, 3, 64, 42
5, 91440, Note_on_c, 3, 61, 45
5, 91520, Note_off_c, 3, 61, 64
5, 91520, Note_off_c, 3, 64, 64
5, 91520, Note_off_c, 3, 67, 64
5, 91520, Note_off_c, 3, 70, 64
5, 91520, Note_on_c, 3, 72, 29
5, 91520, Note_on_c, 3, 69, 44
5, 91520, Note_on_c, 3, 63, 40
5, 91520, Note_on_c, 3, 60, 40
5, 91600, Note_off_c, 3, 60, 64
5, 91600, Note_off_c, 3, 63, 64
5, 91600, Note_off_c, 3, 69, 64
5, 91600, Note_off_c, 3, 72, 64
5, 91600, Note_on_c, 3, 73, 44
5, 91600, Note_on_c, 3, 70, 46
5, 91600, Note_on_c, 3, 61, 43
5, 91600, Note_on_c, 3, 58, 43
5, 91680, Note_off_c, 3, 58, 64
5, 91680, Note_off_c, 3, 61, 64
5, 91680, Note_off_c, 3, 70, 64
5, 91680, Note_off_c, 3, 73, 64
5, 91680, Note_on_c, 3, 75, 46
5, 91680, Note_on_c, 3, 72, 29
5, 91680, Note_on_c, 3, 60, 45
5, 91680, Note_on_c, 3, 57, 45
5, 91760, Note_off_c, 3, 57, 64
5, 91760, Note_off_c, 3, 60, 64
5, 91760, Note_off_c, 3, 72, 64
5, 91760, Note_off_c, 3, 75, 64
5, 91760, Note_on_c, 3, 72, 29
5, 91760, Note_on_c, 3, 68, 44
5, 91760, Note_on_c, 3, 66, 41
5, 91760, Note_on_c, 3, 63, 35
5, 91840, Note_off_c, 3, 63, 64
5, 91840, Note_off_c, 3, 66, 64
5, 91840, Note_off_c, 3, 68, 64
5, 91840, Note_off_c, 3, 72, 64
5, 91840, Note_on_c, 3, 72, 29
5, 91840, Note_on_c, 3, 68, 38
5, 91840, Note_on_c, 3, 66, 33
5, 91840, Note_on_c, 3, 63, 32
5, 91920, Note_off_c, 3, 63, 64
5, 91920, Note_off_c, 3, 66, 64
5, 91920, Note_off_c, 3, 68, 64
5, 91920, Note_off_c, 3, 72, 64
5, 91920, Note_on_c, 3, 72, 29
5, 91920, Note_on_c, 3, 68, 37
5, 91920, Note_on_c, 3, 66, 29
5, 91920, Note_on_c, 3, 63, 29
5, 92000, Note_off_c, 3, 63, 64
5, 92000, Note_off_c, 3, 66, 64
5, 92000, Note_off_c, 3, 68, 64
5, 92000, Note_off_c, 3, 72, 64
5, 92000, Note_on_c, 3, 73, 43
5, 92000, Note_on_c, 3, 70, 42
5, 92000, Note_on_c, 3, 65, 39
5, 92000, Note_on_c, 3, 61, 38
5, 92080, Note_off_c, 3, 61, 64
5, 92080, Note_off_c, 3, 65, 64
5, 92080, Note_off_c, 3, 70, 64
5, 92080, Note_off_c, 3, 73, 64
5, 92080, Note_on_c, 3, 75, 43
5, 92080, Note_on_c, 3, 63, 45
5, 92080, Note_on_c, 3, 60, 43
5, 92160, Note_off_c, 3, 60, 64
5, 92160, Note_off_c, 3, 63, 64
5, 92160, Note_off_c, 3, 75, 64
5, 92160, Note_on_c, 3, 77, 43
5, 92160, Note_on_c, 3, 70, 40
5, 92160, Note_on_c, 3, 65, 39
5, 92160, Note_on_c, 3, 61, 34
5, 92240, Note_off_c, 3, 61, 64
5, 92240, Note_off_c, 3, 65, 64
5, 92240, Note_off_c, 3, 70, 64
5, 92240, Note_off_c, 3, 77, 64
5, 92240, Note_on_c, 3, 80, 37
5, 92240, Note_on_c, 3, 71, 29
5, 92240, Note_on_c, 3, 65, 39
5, 92240, Note_on_c, 3, 61, 43
5, 92320, Note_off_c, 3, 61, 64
5, 92320, Note_off_c, 3, 65, 64
5, 92320, Note_off_c, 3, 71, 64
5, 92320, Note_off_c, 3, 80, 64
5, 92320, Note_on_c, 3, 80, 32
5, 92320, Note_on_c, 3, 71, 36
5, 92320, Note_on_c, 3, 65, 40
5, 92320, Note_on_c, 3, 61, 39
5, 92400, Note_off_c, 3, 61, 64
5, 92400, Note_off_c, 3, 65, 64
5, 92400, Note_off_c, 3, 71, 64
5, 92400, Note_off_c, 3, 80, 64
5, 92400, Note_on_c, 3, 80, 38
5, 92400, Note_on_c, 3, 71, 38
5, 92400, Note_on_c, 3, 65, 39
5, 92400, Note_on_c, 3, 61, 40
5, 92480, Note_off_c, 3, 61, 64
5, 92480, Note_off_c, 3, 65, 64
5, 92480, Note_off_c, 3, 71, 64
5, 92480, Note_off_c, 3, 80, 64
5, 92480, Note_on_c, 3, 79, 43
5, 92480, Note_on_c, 3, 71, 44
5, 92480, Note_on_c, 3, 67, 46
5, 92480, Note_on_c, 3, 61, 50
5, 92560, Note_off_c, 3, 61, 64
5, 92560, Note_off_c, 3, 67, 64
5, 92560, Note_off_c, 3, 71, 64
5, 92560, Note_off_c, 3, 79, 64
5, 92560, Note_on_c, 3, 77, 36
5, 92560, Note_on_c, 3, 71, 38
5, 92560, Note_on_c, 3, 68, 38
5, 92560, Note_on_c, 3, 61, 33
5, 92640, Note_off_c, 3, 61, 64
5, 92640, Note_off_c, 3, 68, 64
5, 92640, Note_off_c, 3, 71, 64
5, 92640, Note_off_c, 3, 77, 64
5, 92640, Note_on_c, 3, 77, 57
5, 92640, Note_on_c, 3, 68, 52
5, 92640, Note_on_c, 3, 60, 76
5, 92720, Note_off_c, 3, 60, 64
5, 92720, Note_off_c, 3, 68, 64
5, 92720, Note_off_c, 3, 77, 64
5, 92720, Note_on_c, 3, 80, 60
5, 92720, Note_on_c, 3, 72, 29
5, 92720, Note_on_c, 3, 65, 57
5, 92720, Note_on_c, 3, 60, 43
5, 92800, Note_off_c, 3, 60, 64
5, 92800, Note_off_c, 3, 65, 64
5, 92800, Note_off_c, 3, 72, 64
5, 92800, Note_off_c, 3, 80, 64
5, 92800, Note_on_c, 3, 80, 45
5, 92800, Note_on_c, 3, 72, 29
5, 92800, Note_on_c, 3, 65, 63
5, 92800, Note_on_c, 3, 60, 40
5, 92880, Note_off_c, 3, 60, 64
5, 92880, Note_off_c, 3, 65, 64
5, 92880, Note_off_c, 3, 72, 64
5, 92880, Note_off_c, 3, 80, 64
5, 92880, Note_on_c, 3, 80, 69
5, 92880, Note_on_c, 3, 71, 45
5, 92880, Note_on_c, 3, 65, 61
5, 92880, Note_on_c, 3, 61, 65
5, 92960, Note_off_c, 3, 61, 64
5, 92960, Note_off_c, 3, 65, 64
5, 92960, Note_off_c, 3, 71, 64
5, 92960, Note_off_c, 3, 80, 64
5, 92960, Note_on_c, 3, 79, 65
5, 92960, Note_on_c, 3, 71, 61
5, 92960, Note_on_c, 3, 67, 57
5, 92960, Note_on_c, 3, 61, 68
5, 93040, Note_off_c, 3, 61, 64
5, 93040, Note_off_c, 3, 67, 64
5, 93040, Note_off_c, 3, 71, 64
5, 93040, Note_off_c, 3, 79, 64
5, 93040, Note_on_c, 3, 77, 73
5, 93040, Note_on_c, 3, 71, 65
5, 93040, Note_on_c, 3, 68, 66
5, 93040, Note_on_c, 3, 61, 74
5, 93120, Note_off_c, 3, 61, 64
5, 93120, Note_off_c, 3, 68, 64
5, 93120, Note_off_c, 3, 71, 64
5, 93120, Note_off_c, 3, 77, 64
5, 93120, Note_on_c, 3, 79, 68
5, 93120, Note_on_c, 3, 72, 29
5, 93120, Note_on_c, 3, 68, 57
5, 93120, Note_on_c, 3, 60, 68
5, 93200, Note_off_c, 3, 60, 64
5, 93200, Note_off_c, 3, 68, 64
5, 93200, Note_off_c, 3, 72, 64
5, 93200, Note_off_c, 3, 79, 64
5, 93200, Note_on_c, 3, 80, 68
5, 93200, Note_on_c, 3, 72, 34
5, 93200, Note_on_c, 3, 65, 71
5, 93200, Note_on_c, 3, 60, 46
5, 93280, Note_off_c, 3, 60, 64
5, 93280, Note_off_c, 3, 65, 64
5, 93280, Note_off_c, 3, 72, 64
5, 93280, Note_off_c, 3, 80, 64
5, 93280, Note_on_c, 3, 80, 68
5, 93280, Note_on_c, 3, 72, 46
5, 93280, Note_on_c, 3, 65, 68
5, 93280, Note_on_c, 3, 60, 64
5, 93360, Note_off_c, 3, 60, 64
5, 93360, Note_off_c, 3, 65, 64
5, 93360, Note_off_c, 3, 72, 64
5, 93360, Note_off_c, 3, 80, 64
5, 93360, Note_on_c, 3, 80, 72
5, 93360, Note_on_c, 3, 70, 70
5, 93360, Note_on_c, 3, 65, 53
5, 93360, Note_on_c, 3, 61, 57
5, 93440, Note_off_c, 3, 61, 64
5, 93440, Note_off_c, 3, 65, 64
5, 93440, Note_off_c, 3, 70, 64
5, 93440, Note_off_c, 3, 80, 64
5, 93440, Note_on_c, 3, 79, 73
5, 93440, Note_on_c, 3, 70, 64
5, 93440, Note_on_c, 3, 67, 51
5, 93440, Note_on_c, 3, 61, 65
5, 93520, Note_off_c, 3, 61, 64
5, 93520, Note_off_c, 3, 67, 64
5, 93520, Note_off_c, 3, 70, 64
5, 93520, Note_off_c, 3, 79, 64
5, 93520, Note_on_c, 3, 79, 70
5, 93520, Note_on_c, 3, 70, 60
5, 93520, Note_on_c, 3, 67, 61
5, 93520, Note_on_c, 3, 61, 68
5, 93600, Note_off_c, 3, 61, 64
5, 93600, Note_off_c, 3, 67, 64
5, 93600, Note_off_c, 3, 70, 64
5, 93600, Note_off_c, 3, 79, 64
5, 93600, Note_on_c, 3, 79, 73
5, 93600, Note_on_c, 3, 70, 70
5, 93600, Note_on_c, 3, 67, 51
5, 93600, Note_on_c, 3, 61, 63
5, 93680, Note_off_c, 3, 61, 64
5, 93680, Note_off_c, 3, 67, 64
5, 93680, Note_off_c, 3, 70, 64
5, 93680, Note_off_c, 3, 79, 64
5, 93680, Note_on_c, 3, 77, 76
5, 93680, Note_on_c, 3, 71, 43
5, 93680, Note_on_c, 3, 68, 67
5, 93680, Note_on_c, 3, 61, 70
5, 93760, Note_off_c, 3, 61, 64
5, 93760, Note_off_c, 3, 68, 64
5, 93760, Note_off_c, 3, 71, 64
5, 93760, Note_off_c, 3, 77, 64
5, 93760, Note_on_c, 3, 77, 73
5, 93760, Note_on_c, 3, 71, 54
5, 93760, Note_on_c, 3, 68, 72
5, 93760, Note_on_c, 3, 61, 77
5, 93840, Note_off_c, 3, 61, 64
5, 93840, Note_off_c, 3, 68, 64
5, 93840, Note_off_c, 3, 71, 64
5, 93840, Note_off_c, 3, 77, 64
5, 93840, Note_on_c, 3, 77, 67
5, 93840, Note_on_c, 3, 71, 68
5, 93840, Note_on_c, 3, 68, 62
5, 93840, Note_on_c, 3, 62, 93
5, 93920, Note_off_c, 3, 62, 64
5, 93920, Note_off_c, 3, 68, 64
5, 93920, Note_off_c, 3, 71, 64
5, 93920, Note_off_c, 3, 77, 64
5, 93920, Note_on_c, 3, 75, 73
5, 93920, Note_on_c, 3, 71, 64
5, 93920, Note_on_c, 3, 68, 60
5, 93920, Note_on_c, 3, 63, 84
5, 94000, Note_off_c, 3, 63, 64
5, 94000, Note_off_c, 3, 68, 64
5, 94000, Note_off_c, 3, 71, 64
5, 94000, Note_off_c, 3, 75, 64
5, 94000, Note_on_c, 3, 74, 68
5, 94000, Note_on_c, 3, 71, 57
5, 94000, Note_on_c, 3, 68, 61
5, 94000, Note_on_c, 3, 65, 78
5, 94080, Note_off_c, 3, 65, 64
5, 94080, Note_off_c, 3, 68, 64
5, 94080, Note_off_c, 3, 71, 64
5, 94080, Note_off_c, 3, 74, 64
5, 94080, Note_on_c, 3, 75, 69
5, 94080, Note_on_c, 3, 68, 42
5, 94080, Note_on_c, 3, 63, 57
5, 94120, Note_off_c, 3, 75, 64
5, 94120, Note_on_c, 3, 76, 70
5, 94120, Note_on_c, 3, 73, 53
5, 94160, Note_off_c, 3, 73, 64
5, 94160, Note_off_c, 3, 76, 64
5, 94160, Note_on_c, 3, 77, 53
5, 94160, Note_on_c, 3, 74, 68
5, 94200, Note_off_c, 3, 74, 64
5, 94200, Note_off_c, 3, 77, 64
5, 94200, Note_on_c, 3, 78, 64
5, 94200, Note_on_c, 3, 75, 65
5, 94240, Note_off_c, 3, 75, 64
5, 94240, Note_off_c, 3, 78, 64
5, 94240, Note_on_c, 3, 79, 57
5, 94240, Note_on_c, 3, 76, 65
5, 94280, Note_off_c, 3, 76, 64
5, 94280, Note_off_c, 3, 79, 64
5, 94280, Note_on_c, 3, 80, 58
5, 94280, Note_on_c, 3, 77, 61
5, 94320, Note_off_c, 3, 77, 64
5, 94320, Note_off_c, 3, 80, 64
5, 94320, Note_off_c, 3, 63, 64
5, 94320, Note_off_c, 3, 68, 64
5, 94320, Note_on_c, 3, 81, 53
5, 94320, Note_on_c, 3, 78, 52
5, 94360, Note_off_c, 3, 78, 64
5, 94360, Note_off_c, 3, 81, 64
5, 94360, Note_on_c, 3, 82, 59
5, 94360, Note_on_c, 3, 79, 63
5, 94400, Note_off_c, 3, 79, 64
5, 94400, Note_off_c, 3, 82, 64
5, 94400, Note_on_c, 3, 83, 61
5, 94400, Note_on_c, 3, 80, 60
5, 94440, Note_off_c, 3, 80, 64
5, 94440, Note_off_c, 3, 83, 64
5, 94440, Note_on_c, 3, 84, 66
5, 94440, Note_on_c, 3, 81, 64
5, 94480, Note_off_c, 3, 81, 64
5, 94480, Note_off_c, 3, 84, 64
5, 94480, Note_on_c, 3, 85, 61
5, 94480, Note_on_c, 3, 82, 61
5, 94520, Note_off_c, 3, 82, 64
5, 94520, Note_off_c, 3, 85, 64
5, 94520, Note_on_c, 3, 86, 59
5, 94520, Note_on_c, 3, 83, 67
5, 94560, Note_off_c, 3, 83, 64
5, 94560, Note_off_c, 3, 86, 64
5, 94560, Note_on_c, 3, 87, 46
5, 94560, Note_on_c, 3, 84, 44
5, 94560, Note_on_c, 3, 51, 43
5, 94560, Note_on_c, 3, 39, 41
5, 94600, Note_off_c, 3, 84, 64
5, 94600, Note_off_c, 3, 87, 64
5, 94640, Note_on_c, 3, 89, 43
5, 94640, Note_on_c, 3, 85, 63
5, 94680, Note_off_c, 3, 85, 64
5, 94680, Note_off_c, 3, 89, 64
5, 94720, Note_on_c, 3, 87, 60
5, 94720, Note_on_c, 3, 84, 60
5, 94760, Note_off_c, 3, 84, 64
5, 94760, Note_off_c, 3, 87, 64
5, 94800, Note_off_c, 3, 39, 64
5, 94800, Note_off_c, 3, 51, 64
5, 94800, Note_on_c, 3, 85, 47
5, 94800, Note_on_c, 3, 82, 33
5, 94840, Note_off_c, 3, 82, 64
5, 94840, Note_off_c, 3, 85, 64
5, 94880, Note_on_c, 3, 84, 57
5, 94880, Note_on_c, 3, 80, 58
5, 94920, Note_off_c, 3, 80, 64
5, 94920, Note_off_c, 3, 84, 64
5, 94960, Note_on_c, 3, 82, 70
5, 94960, Note_on_c, 3, 79, 55
5, 95000, Note_off_c, 3, 79, 64
5, 95000, Note_off_c, 3, 82, 64
5, 95040, Note_on_c, 3, 80, 67
5, 95040, Note_on_c, 3, 44, 29
5, 95080, Note_off_c, 3, 44, 64
5, 95120, Note_on_c, 3, 48, 57
5, 95160, Note_off_c, 3, 48, 64
5, 95200, Note_on_c, 3, 51, 42
5, 95240, Note_off_c, 3, 51, 64
5, 95280, Note_off_c, 3, 80, 64
5, 95280, Note_on_c, 3, 80, 68
5, 95280, Note_on_c, 3, 56, 29
5, 95320, Note_off_c, 3, 56, 64
5, 95360, Note_on_c, 3, 60, 54
5, 95400, Note_off_c, 3, 60, 64
5, 95440, Note_on_c, 3, 63, 43
5, 95460, Note_off_c, 3, 80, 64
5, 95480, Note_off_c, 3, 63, 64
5, 95490, Note_on_c, 3, 80, 64
5, 95520, Note_off_c, 3, 80, 64
5, 95520, Note_on_c, 3, 84, 51
5, 95520, Note_on_c, 3, 68, 43
5, 95560, Note_off_c, 3, 68, 64
5, 95600, Note_on_c, 3, 63, 47
5, 95640, Note_off_c, 3, 63, 64
5, 95680, Note_on_c, 3, 60, 67
5, 95720, Note_off_c, 3, 60, 64
5, 95760, Note_off_c, 3, 84, 64
5, 95760, Note_on_c, 3, 80, 52
5, 95760, Note_on_c, 3, 63, 39
5, 95800, Note_off_c, 3, 63, 64
5, 95840, Note_on_c, 3, 60, 62
5, 95880, Note_off_c, 3, 60, 64
5, 95880, Note_off_c, 3, 80, 64
5, 95920, Note_on_c, 3, 56, 39
5, 95960, Note_off_c, 3, 56, 64
5, 96000, Note_on_c, 3, 37, 52
5, 96040, Note_off_c, 3, 37, 64
5, 96080, Note_on_c, 3, 41, 61
5, 96120, Note_off_c, 3, 41, 64
5, 96160, Note_on_c, 3, 44, 48
5, 96200, Note_off_c, 3, 44, 64
5, 96240, Note_on_c, 3, 77, 64
5, 96240, Note_on_c, 3, 49, 42
5, 96280, Note_off_c, 3, 49, 64
5, 96320, Note_on_c, 3, 53, 60
5, 96360, Note_off_c, 3, 53, 64
5, 96400, Note_on_c, 3, 56, 43
5, 96420, Note_off_c, 3, 77, 64
5, 96440, Note_off_c, 3, 56, 64
5, 96450, Note_on_c, 3, 77, 68
5, 96480, Note_off_c, 3, 77, 64
5, 96480, Note_on_c, 3, 80, 57
5, 96480, Note_on_c, 3, 61, 50
5, 96520, Note_off_c, 3, 61, 64
5, 96560, Note_on_c, 3, 56, 44
5, 96600, Note_off_c, 3, 56, 64
5, 96640, Note_on_c, 3, 53, 43
5, 96680, Note_off_c, 3, 53, 64
5, 96720, Note_off_c, 3, 80, 64
5, 96720, Note_on_c, 3, 77, 41
5, 96720, Note_on_c, 3, 56, 32
5, 96760, Note_off_c, 3, 56, 64
5, 96800, Note_on_c, 3, 53, 50
5, 96840, Note_off_c, 3, 53, 64
5, 96840, Note_off_c, 3, 77, 64
5, 96880, Note_on_c, 3, 49, 38
5, 96920, Note_off_c, 3, 49, 64
5, 96960, Note_on_c, 3, 39, 55
5, 97000, Note_off_c, 3, 39, 64
5, 97040, Note_on_c, 3, 75, 61
5, 97040, Note_on_c, 3, 44, 52
5, 97054, Note_on_c, 3, 77, 62
5, 97056, Note_off_c, 3, 75, 64
5, 97070, Note_off_c, 3, 77, 64
5, 97070, Note_on_c, 3, 75, 74
5, 97080, Note_off_c, 3, 44, 64
5, 97084, Note_on_c, 3, 74, 74
5, 97086, Note_off_c, 3, 75, 64
5, 97100, Note_off_c, 3, 74, 64
5, 97100, Note_on_c, 3, 75, 82
5, 97116, Note_off_c, 3, 75, 64
5, 97120, Note_on_c, 3, 80, 62
5, 97120, Note_on_c, 3, 48, 49
5, 97160, Note_off_c, 3, 48, 64
5, 97200, Note_off_c, 3, 80, 64
5, 97200, Note_on_c, 3, 72, 58
5, 97200, Note_on_c, 3, 51, 44
5, 97240, Note_off_c, 3, 51, 64
5, 97280, Note_on_c, 3, 56, 68
5, 97320, Note_off_c, 3, 56, 64
5, 97360, Note_on_c, 3, 60, 45
5, 97400, Note_off_c, 3, 60, 64
5, 97440, Note_on_c, 3, 63, 43
5, 97520, Note_off_c, 3, 63, 64
5, 97520, Note_on_c, 3, 77, 42
5, 97520, Note_on_c, 3, 61, 43
5, 97560, Note_off_c, 3, 72, 64
5, 97600, Note_off_c, 3, 61, 64
5, 97600, Note_off_c, 3, 77, 64
5, 97600, Note_on_c, 3, 75, 54
5, 97600, Note_on_c, 3, 60, 46
5, 97640, Note_off_c, 3, 60, 64
5, 97640, Note_off_c, 3, 75, 64
5, 97680, Note_on_c, 3, 73, 43
5, 97680, Note_on_c, 3, 58, 43
5, 97720, Note_off_c, 3, 58, 64
5, 97720, Note_off_c, 3, 73, 64
5, 97760, Note_on_c, 3, 72, 40
5, 97760, Note_on_c, 3, 56, 57
5, 97800, Note_off_c, 3, 56, 64
5, 97800, Note_off_c, 3, 72, 64
5, 97840, Note_on_c, 3, 70, 65
5, 97840, Note_on_c, 3, 55, 44
5, 97880, Note_off_c, 3, 55, 64
5, 97880, Note_off_c, 3, 70, 64
5, 97920, Note_on_c, 3, 68, 44
5, 97920, Note_on_c, 3, 56, 52
5, 98160, Note_off_c, 3, 56, 64
5, 98160, Note_off_c, 3, 68, 64
5, 98400, Note_on_c, 3, 44, 54
5, 98416, Note_off_c, 3, 44, 64
5, 98416, Note_on_c, 3, 46, 40
5, 98432, Note_off_c, 3, 46, 64
5, 98432, Note_on_c, 3, 44, 52
5, 98448, Note_off_c, 3, 44, 64
5, 98448, Note_on_c, 3, 43, 57
5, 98464, Note_off_c, 3, 43, 64
5, 98464, Note_on_c, 3, 44, 43
5, 98480, Note_off_c, 3, 44, 64
5, 98480, Note_on_c, 3, 46, 42
5, 98496, Note_off_c, 3, 46, 64
5, 98496, Note_on_c, 3, 48, 45
5, 98512, Note_off_c, 3, 48, 64
5, 98512, Note_on_c, 3, 49, 58
5, 98528, Note_off_c, 3, 49, 64
5, 98528, Note_on_c, 3, 51, 43
5, 98544, Note_off_c, 3, 51, 64
5, 98544, Note_on_c, 3, 53, 35
5, 98560, Note_off_c, 3, 53, 64
5, 98560, Note_on_c, 3, 54, 35
5, 98576, Note_off_c, 3, 54, 64
5, 98576, Note_on_c, 3, 56, 47
5, 98592, Note_off_c, 3, 56, 64
5, 98592, Note_on_c, 3, 58, 43
5, 98608, Note_off_c, 3, 58, 64
5, 98608, Note_on_c, 3, 60, 45
5, 98624, Note_off_c, 3, 60, 64
5, 98624, Note_on_c, 3, 61, 61
5, 98640, Note_off_c, 3, 61, 64
5, 98640, Note_on_c, 3, 63, 42
5, 98656, Note_off_c, 3, 63, 64
5, 98656, Note_on_c, 3, 65, 59
5, 98672, Note_off_c, 3, 65, 64
5, 98672, Note_on_c, 3, 67, 53
5, 98688, Note_off_c, 3, 67, 64
5, 98688, Note_on_c, 3, 68, 64
5, 98704, Note_off_c, 3, 68, 64
5, 98704, Note_on_c, 3, 70, 59
5, 98720, Note_off_c, 3, 70, 64
5, 98720, Note_on_c, 3, 72, 45
5, 98736, Note_off_c, 3, 72, 64
5, 98736, Note_on_c, 3, 73, 49
5, 98752, Note_off_c, 3, 73, 64
5, 98752, Note_on_c, 3, 75, 64
5, 98768, Note_off_c, 3, 75, 64
5, 98768, Note_on_c, 3, 77, 42
5, 98784, Note_off_c, 3, 77, 64
5, 98784, Note_on_c, 3, 79, 44
5, 98800, Note_off_c, 3, 79, 64
5, 98800, Note_on_c, 3, 80, 69
5, 98816, Note_off_c, 3, 80, 64
5, 98816, Note_on_c, 3, 82, 58
5, 98832, Note_off_c, 3, 82, 64
5, 98832, Note_on_c, 3, 84, 57
5, 98848, Note_off_c, 3, 84, 64
5, 98848, Note_on_c, 3, 85, 57
5, 98864, Note_off_c, 3, 85, 64
5, 98864, Note_on_c, 3, 87, 64
5, 98880, Note_off_c, 3, 87, 64
5, 98880, Note_on_c, 3, 89, 68
5, 99120, Note_off_c, 3, 89, 64
5, 99360, Note_on_c, 3, 44, 62
5, 99376, Note_on_c, 3, 46, 51
5, 99378, Note_off_c, 3, 44, 64
5, 99394, Note_off_c, 3, 46, 64
5, 99394, Note_on_c, 3, 44, 69
5, 99410, Note_on_c, 3, 43, 57
5, 99412, Note_off_c, 3, 44, 64
5, 99428, Note_off_c, 3, 43, 64
5, 99428, Note_on_c, 3, 44, 60
5, 99444, Note_on_c, 3, 46, 46
5, 99446, Note_off_c, 3, 44, 64
5, 99462, Note_off_c, 3, 46, 64
5, 99462, Note_on_c, 3, 48, 68
5, 99478, Note_on_c, 3, 50, 62
5, 99480, Note_off_c, 3, 48, 64
5, 99496, Note_off_c, 3, 50, 64
5, 99496, Note_on_c, 3, 51, 72
5, 99512, Note_on_c, 3, 53, 47
5, 99514, Note_off_c, 3, 51, 64
5, 99530, Note_off_c, 3, 53, 64
5, 99530, Note_on_c, 3, 55, 63
5, 99546, Note_on_c, 3, 56, 71
5, 99548, Note_off_c, 3, 55, 64
5, 99564, Note_off_c, 3, 56, 64
5, 99564, Note_on_c, 3, 58, 62
5, 99580, Note_on_c, 3, 60, 54
5, 99582, Note_off_c, 3, 58, 64
5, 99598, Note_off_c, 3, 60, 64
5, 99598, Note_on_c, 3, 62, 73
5, 99614, Note_on_c, 3, 63, 61
5, 99616, Note_off_c, 3, 62, 64
5, 99632, Note_off_c, 3, 63, 64
5, 99632, Note_on_c, 3, 65, 61
5, 99648, Note_on_c, 3, 67, 67
5, 99650, Note_off_c, 3, 65, 64
5, 99666, Note_off_c, 3, 67, 64
5, 99666, Note_on_c, 3, 68, 73
5, 99682, Note_on_c, 3, 70, 74
5, 99684, Note_off_c, 3, 68, 64
5, 99700, Note_off_c, 3, 70, 64
5, 99700, Note_on_c, 3, 72, 41
5, 99716, Note_on_c, 3, 74, 72
5, 99718, Note_off_c, 3, 72, 64
5, 99734, Note_off_c, 3, 74, 64
5, 99734, Note_on_c, 3, 75, 80
5, 99750, Note_on_c, 3, 77, 43
5, 99752, Note_off_c, 3, 75, 64
5, 99768, Note_off_c, 3, 77, 64
5, 99768, Note_on_c, 3, 79, 68
5, 99784, Note_on_c, 3, 80, 67
5, 99786, Note_off_c, 3, 79, 64
5, 99802, Note_off_c, 3, 80, 64
5, 99802, Note_on_c, 3, 79, 62
5, 99820, Note_off_c, 3, 79, 64
5, 99840, Note_on_c, 3, 80, 98
5, 100080, Note_off_c, 3, 80, 64
5, 100880, Note_on_c, 3, 87, 57
5, 100920, Note_off_c, 3, 87, 64
5, 100960, Note_on_c, 3, 87, 61
5, 101000, Note_off_c, 3, 87, 64
5, 101040, Note_on_c, 3, 87, 72
5, 101080, Note_off_c, 3, 87, 64
5, 101120, Note_on_c, 3, 87, 63
5, 101160, Note_off_c, 3, 87, 64
5, 101200, Note_on_c, 3, 87, 65
5, 101240, Note_off_c, 3, 87, 64
5, 101280, Note_on_c, 3, 87, 58
5, 101320, Note_off_c, 3, 87, 64
5, 101360, Note_on_c, 3, 87, 68
5, 101400, Note_off_c, 3, 87, 64
5, 101440, Note_on_c, 3, 87, 65
5, 101480, Note_off_c, 3, 87, 64
5, 101520, Note_on_c, 3, 87, 39
5, 101560, Note_off_c, 3, 87, 64
5, 101600, Note_on_c, 3, 87, 57
5, 101640, Note_off_c, 3, 87, 64
5, 101680, Note_on_c, 3, 87, 64
5, 101720, Note_off_c, 3, 87, 64
5, 101760, Note_on_c, 3, 87, 50
5, 101790, Note_off_c, 3, 87, 64
5, 101790, Note_on_c, 3, 89, 52
5, 101820, Note_off_c, 3, 89, 64
5, 101820, Note_on_c, 3, 87, 43
5, 101850, Note_off_c, 3, 87, 64
5, 101850, Note_on_c, 3, 89, 57
5, 101880, Note_off_c, 3, 89, 64
5, 101880, Note_on_c, 3, 87, 46
5, 101894, Note_on_c, 3, 89, 56
5, 101896, Note_off_c, 3, 87, 64
5, 101910, Note_off_c, 3, 89, 64
5, 101910, Note_on_c, 3, 87, 59
5, 101924, Note_on_c, 3, 89, 39
5, 101926, Note_off_c, 3, 87, 64
5, 101940, Note_off_c, 3, 89, 64
5, 101940, Note_on_c, 3, 87, 65
5, 101954, Note_on_c, 3, 89, 64
5, 101956, Note_off_c, 3, 87, 64
5, 101970, Note_off_c, 3, 89, 64
5, 101970, Note_on_c, 3, 87, 67
5, 101984, Note_on_c, 3, 89, 74
5, 101986, Note_off_c, 3, 87, 64
5, 102000, Note_off_c, 3, 89, 64
5, 102000, Note_on_c, 3, 87, 69
5, 102014, Note_on_c, 3, 89, 62
5, 102016, Note_off_c, 3, 87, 64
5, 102030, Note_off_c, 3, 89, 64
5, 102030, Note_on_c, 3, 87, 62
5, 102044, Note_on_c, 3, 89, 56
5, 102046, Note_off_c, 3, 87, 64
5, 102060, Note_off_c, 3, 89, 64
5, 102060, Note_on_c, 3, 87, 68
5, 102074, Note_on_c, 3, 89, 65
5, 102076, Note_off_c, 3, 87, 64
5, 102090, Note_off_c, 3, 89, 64
5, 102090, Note_on_c, 3, 87, 62
5, 102104, Note_on_c, 3, 89, 68
5, 102106, Note_off_c, 3, 87, 64
5, 102120, Note_off_c, 3, 89, 64
5, 102120, Note_on_c, 3, 87, 65
5, 102134, Note_on_c, 3, 89, 62
5, 102136, Note_off_c, 3, 87, 64
5, 102150, Note_off_c, 3, 89, 64
5, 102150, Note_on_c, 3, 87, 71
5, 102164, Note_on_c, 3, 89, 72
5, 102166, Note_off_c, 3, 87, 64
5, 102180, Note_off_c, 3, 89, 64
5, 102180, Note_on_c, 3, 87, 67
5, 102194, Note_on_c, 3, 89, 67
5, 102196, Note_off_c, 3, 87, 64
5, 102210, Note_off_c, 3, 89, 64
5, 102210, Note_on_c, 3, 87, 46
5, 102224, Note_on_c, 3, 89, 74
5, 102226, Note_off_c, 3, 87, 64
5, 102240, Note_off_c, 3, 89, 64
5, 102240, Note_on_c, 3, 87, 62
5, 102254, Note_on_c, 3, 89, 65
5, 102256, Note_off_c, 3, 87, 64
5, 102270, Note_off_c, 3, 89, 64
5, 102270, Note_on_c, 3, 87, 68
5, 102284, Note_on_c, 3, 89, 70
5, 102286, Note_off_c, 3, 87, 64
5, 102300, Note_off_c, 3, 89, 64
5, 102300, Note_on_c, 3, 87, 65
5, 102314, Note_on_c, 3, 89, 74
5, 102316, Note_off_c, 3, 87, 64
5, 102330, Note_off_c, 3, 89, 64
5, 102330, Note_on_c, 3, 87, 68
5, 102344, Note_on_c, 3, 89, 76
5, 102346, Note_off_c, 3, 87, 64
5, 102360, Note_off_c, 3, 89, 64
5, 102360, Note_on_c, 3, 87, 71
5, 102374, Note_on_c, 3, 89, 74
5, 102376, Note_off_c, 3, 87, 64
5, 102390, Note_off_c, 3, 89, 64
5, 102390, Note_on_c, 3, 87, 73
5, 102404, Note_on_c, 3, 89, 76
5, 102406, Note_off_c, 3, 87, 64
5, 102420, Note_off_c, 3, 89, 64
5, 102420, Note_on_c, 3, 87, 77
5, 102434, Note_on_c, 3, 89, 76
5, 102436, Note_off_c, 3, 87, 64
5, 102450, Note_off_c, 3, 89, 64
5, 102450, Note_on_c, 3, 87, 78
5, 102464, Note_on_c, 3, 89, 73
5, 102466, Note_off_c, 3, 87, 64
5, 102480, Note_off_c, 3, 89, 64
5, 102480, Note_on_c, 3, 87, 68
5, 102494, Note_on_c, 3, 89, 84
5, 102496, Note_off_c, 3, 87, 64
5, 102510, Note_off_c, 3, 89, 64
5, 102510, Note_on_c, 3, 87, 76
5, 102524, Note_on_c, 3, 89, 80
5, 102526, Note_off_c, 3, 87, 64
5, 102540, Note_off_c, 3, 89, 64
5, 102540, Note_on_c, 3, 87, 86
5, 102554, Note_on_c, 3, 89, 73
5, 102556, Note_off_c, 3, 87, 64
5, 102570, Note_off_c, 3, 89, 64
5, 102570, Note_on_c, 3, 87, 76
5, 102584, Note_on_c, 3, 89, 86
5, 102586, Note_off_c, 3, 87, 64
5, 102600, Note_off_c, 3, 89, 64
5, 102600, Note_on_c, 3, 87, 84
5, 102614, Note_on_c, 3, 89, 84
5, 102616, Note_off_c, 3, 87, 64
5, 102630, Note_off_c, 3, 89, 64
5, 102630, Note_on_c, 3, 87, 81
5, 102644, Note_on_c, 3, 89, 77
5, 102646, Note_off_c, 3, 87, 64
5, 102660, Note_off_c, 3, 89, 64
5, 102660, Note_on_c, 3, 87, 81
5, 102674, Note_on_c, 3, 89, 94
5, 102676, Note_off_c, 3, 87, 64
5, 102690, Note_off_c, 3, 89, 64
5, 102690, Note_on_c, 3, 87, 84
5, 102704, Note_on_c, 3, 89, 89
5, 102706, Note_off_c, 3, 87, 64
5, 102720, Note_off_c, 3, 89, 64
5, 102720, Note_on_c, 3, 88, 89
5, 102720, Note_on_c, 3, 48, 73
5, 102720, Note_on_c, 3, 36, 78
5, 102734, Note_on_c, 3, 89, 93
5, 102736, Note_off_c, 3, 88, 64
5, 102750, Note_off_c, 3, 89, 64
5, 102750, Note_on_c, 3, 88, 93
5, 102764, Note_on_c, 3, 89, 95
5, 102766, Note_off_c, 3, 88, 64
5, 102780, Note_off_c, 3, 89, 64
5, 102780, Note_on_c, 3, 88, 95
5, 102794, Note_on_c, 3, 89, 95
5, 102796, Note_off_c, 3, 88, 64
5, 102810, Note_off_c, 3, 89, 64
5, 102810, Note_on_c, 3, 88, 95
5, 102824, Note_on_c, 3, 89, 94
5, 102826, Note_off_c, 3, 88, 64
5, 102840, Note_off_c, 3, 89, 64
5, 102840, Note_on_c, 3, 88, 93
5, 102854, Note_on_c, 3, 89, 95
5, 102856, Note_off_c, 3, 88, 64
5, 102870, Note_off_c, 3, 89, 64
5, 102870, Note_on_c, 3, 88, 93
5, 102884, Note_on_c, 3, 89, 95
5, 102886, Note_off_c, 3, 88, 64
5, 102900, Note_off_c, 3, 89, 64
5, 102900, Note_on_c, 3, 88, 99
5, 102914, Note_on_c, 3, 89, 99
5, 102916, Note_off_c, 3, 88, 64
5, 102930, Note_off_c, 3, 89, 64
5, 102930, Note_on_c, 3, 88, 95
5, 102944, Note_on_c, 3, 89, 101
5, 102946, Note_off_c, 3, 88, 64
5, 102960, Note_off_c, 3, 89, 64
5, 102960, Note_on_c, 3, 88, 95
5, 102974, Note_on_c, 3, 89, 99
5, 102976, Note_off_c, 3, 88, 64
5, 102990, Note_off_c, 3, 89, 64
5, 102990, Note_on_c, 3, 88, 95
5, 103004, Note_on_c, 3, 89, 98
5, 103006, Note_off_c, 3, 88, 64
5, 103020, Note_off_c, 3, 89, 64
5, 103020, Note_on_c, 3, 88, 98
5, 103034, Note_on_c, 3, 89, 95
5, 103036, Note_off_c, 3, 88, 64
5, 103050, Note_off_c, 3, 89, 64
5, 103050, Note_on_c, 3, 88, 95
5, 103064, Note_on_c, 3, 89, 99
5, 103066, Note_off_c, 3, 88, 64
5, 103080, Note_off_c, 3, 89, 64
5, 103080, Note_on_c, 3, 88, 99
5, 103094, Note_on_c, 3, 89, 98
5, 103096, Note_off_c, 3, 88, 64
5, 103110, Note_off_c, 3, 89, 64
5, 103110, Note_on_c, 3, 88, 99
5, 103124, Note_on_c, 3, 89, 99
5, 103126, Note_off_c, 3, 88, 64
5, 103140, Note_off_c, 3, 89, 64
5, 103140, Note_on_c, 3, 88, 95
5, 103154, Note_on_c, 3, 89, 99
5, 103156, Note_off_c, 3, 88, 64
5, 103170, Note_off_c, 3, 89, 64
5, 103170, Note_on_c, 3, 88, 95
5, 103184, Note_on_c, 3, 89, 99
5, 103186, Note_off_c, 3, 88, 64
5, 103200, Note_off_c, 3, 89, 64
5, 103200, Note_on_c, 3, 88, 94
5, 103214, Note_on_c, 3, 89, 99
5, 103216, Note_off_c, 3, 88, 64
5, 103230, Note_off_c, 3, 89, 64
5, 103230, Note_on_c, 3, 88, 98
5, 103244, Note_on_c, 3, 89, 98
5, 103246, Note_off_c, 3, 88, 64
5, 103260, Note_off_c, 3, 89, 64
5, 103260, Note_on_c, 3, 88, 95
5, 103274, Note_on_c, 3, 89, 99
5, 103276, Note_off_c, 3, 88, 64
5, 103290, Note_off_c, 3, 89, 64
5, 103290, Note_on_c, 3, 88, 104
5, 103304, Note_on_c, 3, 89, 99
5, 103306, Note_off_c, 3, 88, 64
5, 103320, Note_off_c, 3, 89, 64
5, 103320, Note_on_c, 3, 88, 101
5, 103334, Note_on_c, 3, 89, 95
5, 103336, Note_off_c, 3, 88, 64
5, 103350, Note_off_c, 3, 89, 64
5, 103350, Note_on_c, 3, 88, 99
5, 103364, Note_on_c, 3, 89, 95
5, 103366, Note_off_c, 3, 88, 64
5, 103380, Note_off_c, 3, 89, 64
5, 103380, Note_on_c, 3, 88, 99
5, 103394, Note_on_c, 3, 89, 95
5, 103396, Note_off_c, 3, 88, 64
5, 103410, Note_off_c, 3, 89, 64
5, 103410, Note_on_c, 3, 88, 93
5, 103424, Note_on_c, 3, 89, 98
5, 103426, Note_off_c, 3, 88, 64
5, 103440, Note_off_c, 3, 89, 64
5, 103440, Note_on_c, 3, 88, 93
5, 103454, Note_on_c, 3, 89, 95
5, 103456, Note_off_c, 3, 88, 64
5, 103470, Note_off_c, 3, 89, 64
5, 103470, Note_on_c, 3, 88, 99
5, 103484, Note_on_c, 3, 89, 94
5, 103486, Note_off_c, 3, 88, 64
5, 103500, Note_off_c, 3, 89, 64
5, 103500, Note_on_c, 3, 88, 95
5, 103514, Note_on_c, 3, 89, 95
5, 103516, Note_off_c, 3, 88, 64
5, 103530, Note_off_c, 3, 89, 64
5, 103530, Note_on_c, 3, 88, 99
5, 103544, Note_on_c, 3, 89, 93
5, 103546, Note_off_c, 3, 88, 64
5, 103560, Note_off_c, 3, 89, 64
5, 103560, Note_on_c, 3, 88, 95
5, 103574, Note_on_c, 3, 89, 95
5, 103576, Note_off_c, 3, 88, 64
5, 103590, Note_off_c, 3, 89, 64
5, 103590, Note_on_c, 3, 88, 99
5, 103604, Note_on_c, 3, 89, 99
5, 103606, Note_off_c, 3, 88, 64
5, 103620, Note_off_c, 3, 89, 64
5, 103620, Note_on_c, 3, 86, 76
5, 103650, Note_off_c, 3, 86, 64
5, 103650, Note_on_c, 3, 88, 90
5, 103680, Note_off_c, 3, 88, 64
5, 103680, Note_off_c, 3, 36, 64
5, 103680, Note_off_c, 3, 48, 64
5, 103680, Note_on_c, 3, 89, 104
5, 103680, Note_on_c, 3, 49, 64
5, 103680, Note_on_c, 3, 37, 76
5, 103800, Note_off_c, 3, 89, 64
5, 103800, Note_on_c, 3, 89, 67
5, 103820, Note_off_c, 3, 89, 64
5, 103820, Note_on_c, 3, 84, 61
5, 103840, Note_off_c, 3, 84, 64
5, 103840, Note_on_c, 3, 85, 73
5, 103860, Note_off_c, 3, 85, 64
5, 103860, Note_on_c, 3, 81, 59
5, 103880, Note_off_c, 3, 81, 64
5, 103880, Note_on_c, 3, 82, 65
5, 103900, Note_off_c, 3, 82, 64
5, 103900, Note_on_c, 3, 76, 64
5, 103920, Note_off_c, 3, 76, 64
5, 103920, Note_off_c, 3, 37, 64
5, 103920, Note_off_c, 3, 49, 64
5, 103920, Note_on_c, 3, 77, 61
5, 103920, Note_on_c, 3, 49, 46
5, 103920, Note_on_c, 3, 37, 46
5, 103940, Note_off_c, 3, 77, 64
5, 103940, Note_on_c, 3, 72, 29
5, 103960, Note_off_c, 3, 72, 64
5, 103960, Note_on_c, 3, 73, 71
5, 103980, Note_off_c, 3, 73, 64
5, 103980, Note_on_c, 3, 69, 66
5, 104000, Note_off_c, 3, 69, 64
5, 104000, Note_on_c, 3, 70, 77
5, 104020, Note_off_c, 3, 70, 64
5, 104020, Note_on_c, 3, 73, 50
5, 104040, Note_off_c, 3, 73, 64
5, 104040, Note_on_c, 3, 77, 70
5, 104060, Note_off_c, 3, 77, 64
5, 104060, Note_on_c, 3, 82, 65
5, 104080, Note_off_c, 3, 82, 64
5, 104080, Note_on_c, 3, 85, 58
5, 104100, Note_off_c, 3, 85, 64
5, 104100, Note_on_c, 3, 89, 45
5, 104120, Note_off_c, 3, 89, 64
5, 104120, Note_on_c, 3, 85, 60
5, 104140, Note_off_c, 3, 85, 64
5, 104140, Note_on_c, 3, 82, 46
5, 104160, Note_off_c, 3, 82, 64
5, 104160, Note_off_c, 3, 37, 64
5, 104160, Note_off_c, 3, 49, 64
5, 104160, Note_on_c, 3, 80, 65
5, 104160, Note_on_c, 3, 51, 43
5, 104160, Note_on_c, 3, 39, 42
5, 104280, Note_off_c, 3, 80, 64
5, 104280, Note_on_c, 3, 82, 76
5, 104310, Note_off_c, 3, 82, 64
5, 104310, Note_on_c, 3, 80, 68
5, 104340, Note_off_c, 3, 80, 64
5, 104340, Note_on_c, 3, 79, 72
5, 104370, Note_off_c, 3, 79, 64
5, 104370, Note_on_c, 3, 80, 68
5, 104400, Note_off_c, 3, 80, 64
5, 104400, Note_off_c, 3, 39, 64
5, 104400, Note_off_c, 3, 51, 64
5, 104400, Note_on_c, 3, 51, 39
5, 104400, Note_on_c, 3, 84, 52
5, 104400, Note_on_c, 3, 39, 40
5, 104580, Note_off_c, 3, 84, 64
5, 104580, Note_on_c, 3, 82, 72
5, 104640, Note_off_c, 3, 82, 64
5, 104640, Note_off_c, 3, 39, 64
5, 104640, Note_off_c, 3, 51, 64
5, 104640, Note_on_c, 3, 80, 72
5, 104640, Note_on_c, 3, 44, 61
5, 104720, Note_off_c, 3, 44, 64
5, 104720, Note_on_c, 3, 48, 43
5, 104800, Note_off_c, 3, 48, 64
5, 104800, Note_on_c, 3, 51, 58
5, 104880, Note_off_c, 3, 51, 64
5, 104880, Note_off_c, 3, 80, 64
5, 104880, Note_on_c, 3, 56, 57
5, 104960, Note_off_c, 3, 56, 64
5, 104960, Note_on_c, 3, 51, 36
5, 105040, Note_off_c, 3, 51, 64
5, 105040, Note_on_c, 3, 48, 45
5, 105120, Note_off_c, 3, 48, 64
5, 105120, Note_on_c, 3, 44, 61
5, 105200, Note_off_c, 3, 44, 64
5, 105200, Note_on_c, 3, 51, 67
5, 105280, Note_off_c, 3, 51, 64
5, 105280, Note_on_c, 3, 54, 55
5, 105360, Note_off_c, 3, 54, 64
5, 105360, Note_on_c, 3, 56, 59
5, 105440, Note_off_c, 3, 56, 64
5, 105440, Note_on_c, 3, 54, 50
5, 105520, Note_off_c, 3, 54, 64
5, 105520, Note_on_c, 3, 51, 65
5, 105600, Note_off_c, 3, 51, 64
5, 105600, Note_on_c, 3, 85, 64
5, 105600, Note_on_c, 3, 44, 61
5, 105680, Note_off_c, 3, 44, 64
5, 105680, Note_on_c, 3, 49, 53
5, 105760, Note_off_c, 3, 49, 64
5, 105760, Note_on_c, 3, 53, 52
5, 105840, Note_off_c, 3, 53, 64
5, 105840, Note_off_c, 3, 85, 64
5, 105840, Note_on_c, 3, 87, 61
5, 105840, Note_on_c, 3, 56, 53
5, 105900, Note_off_c, 3, 87, 64
5, 105900, Note_on_c, 3, 85, 72
5, 105920, Note_off_c, 3, 56, 64
5, 105920, Note_on_c, 3, 53, 66
5, 105960, Note_off_c, 3, 85, 64
5, 105960, Note_on_c, 3, 84, 67
5, 106000, Note_off_c, 3, 53, 64
5, 106000, Note_on_c, 3, 49, 58
5, 106020, Note_off_c, 3, 84, 64
5, 106020, Note_on_c, 3, 85, 63
5, 106080, Note_off_c, 3, 85, 64
5, 106080, Note_off_c, 3, 49, 64
5, 106080, Note_on_c, 3, 87, 62
5, 106080, Note_on_c, 3, 44, 60
5, 106160, Note_off_c, 3, 44, 64
5, 106160, Note_on_c, 3, 49, 59
5, 106200, Note_off_c, 3, 87, 64
5, 106200, Note_on_c, 3, 85, 70
5, 106240, Note_off_c, 3, 49, 64
5, 106240, Note_on_c, 3, 51, 68
5, 106320, Note_off_c, 3, 51, 64
5, 106320, Note_off_c, 3, 85, 64
5, 106320, Note_on_c, 3, 84, 57
5, 106320, Note_on_c, 3, 55, 60
5, 106400, Note_off_c, 3, 55, 64
5, 106400, Note_on_c, 3, 51, 72
5, 106440, Note_off_c, 3, 84, 64
5, 106440, Note_on_c, 3, 82, 61
5, 106480, Note_off_c, 3, 51, 64
5, 106480, Note_on_c, 3, 49, 48
5, 106560, Note_off_c, 3, 49, 64
5, 106560, Note_off_c, 3, 82, 64
5, 106560, Note_on_c, 3, 87, 65
5, 106560, Note_on_c, 3, 44, 57
5, 106640, Note_off_c, 3, 44, 64
5, 106640, Note_on_c, 3, 48, 56
5, 106720, Note_off_c, 3, 48, 64
5, 106720, Note_on_c, 3, 51, 73
5, 106800, Note_off_c, 3, 51, 64
5, 106800, Note_on_c, 3, 56, 53
5, 106860, Note_on_c, 3, 86, 61
5, 106880, Note_off_c, 3, 56, 64
5, 106880, Note_on_c, 3, 51, 61
5, 106890, Note_off_c, 3, 86, 64
5, 106890, Note_on_c, 3, 87, 57
5, 106920, Note_off_c, 3, 87, 64
5, 106920, Note_off_c, 3, 87, 64
5, 106920, Note_on_c, 3, 89, 72
5, 106950, Note_off_c, 3, 89, 64
5, 106950, Note_on_c, 3, 87, 63
5, 106960, Note_off_c, 3, 51, 64
5, 106960, Note_on_c, 3, 48, 59
5, 106980, Note_off_c, 3, 87, 64
5, 106980, Note_on_c, 3, 85, 54
5, 107010, Note_off_c, 3, 85, 64
5, 107010, Note_on_c, 3, 84, 52
5, 107040, Note_off_c, 3, 84, 64
5, 107040, Note_off_c, 3, 48, 64
5, 107040, Note_on_c, 3, 82, 50
5, 107040, Note_on_c, 3, 44, 56
5, 107120, Note_off_c, 3, 44, 64
5, 107120, Note_on_c, 3, 51, 69
5, 107160, Note_off_c, 3, 82, 64
5, 107160, Note_on_c, 3, 80, 64
5, 107200, Note_off_c, 3, 51, 64
5, 107200, Note_on_c, 3, 54, 46
5, 107280, Note_off_c, 3, 54, 64
5, 107280, Note_off_c, 3, 80, 64
5, 107280, Note_on_c, 3, 56, 52
5, 107360, Note_off_c, 3, 56, 64
5, 107360, Note_on_c, 3, 54, 32
5, 107440, Note_off_c, 3, 54, 64
5, 107440, Note_on_c, 3, 51, 43
5, 107520, Note_off_c, 3, 51, 64
5, 107520, Note_on_c, 3, 85, 67
5, 107520, Note_on_c, 3, 44, 64
5, 107600, Note_off_c, 3, 44, 64
5, 107600, Note_on_c, 3, 49, 54
5, 107680, Note_off_c, 3, 49, 64
5, 107680, Note_on_c, 3, 53, 44
5, 107760, Note_off_c, 3, 53, 64
5, 107760, Note_on_c, 3, 56, 46
5, 107840, Note_off_c, 3, 56, 64
5, 107840, Note_on_c, 3, 53, 42
5, 107920, Note_off_c, 3, 53, 64
5, 107920, Note_on_c, 3, 49, 48
5, 108000, Note_off_c, 3, 49, 64
5, 108000, Note_off_c, 3, 85, 64
5, 108000, Note_on_c, 3, 85, 66
5, 108000, Note_on_c, 3, 44, 37
5, 108012, Note_off_c, 3, 85, 64
5, 108012, Note_on_c, 3, 87, 76
5, 108024, Note_off_c, 3, 87, 64
5, 108024, Note_on_c, 3, 85, 70
5, 108036, Note_off_c, 3, 85, 64
5, 108036, Note_on_c, 3, 84, 71
5, 108048, Note_off_c, 3, 84, 64
5, 108048, Note_on_c, 3, 85, 69
5, 108060, Note_off_c, 3, 85, 64
5, 108060, Note_on_c, 3, 87, 57
5, 108080, Note_off_c, 3, 44, 64
5, 108080, Note_on_c, 3, 49, 48
5, 108120, Note_off_c, 3, 87, 64
5, 108120, Note_on_c, 3, 88, 73
5, 108160, Note_off_c, 3, 49, 64
5, 108160, Note_on_c, 3, 51, 39
5, 108180, Note_off_c, 3, 88, 64
5, 108180, Note_on_c, 3, 89, 78
5, 108240, Note_off_c, 3, 89, 64
5, 108240, Note_off_c, 3, 51, 64
5, 108240, Note_on_c, 3, 87, 72
5, 108240, Note_on_c, 3, 55, 45
5, 108300, Note_off_c, 3, 87, 64
5, 108300, Note_on_c, 3, 85, 63
5, 108320, Note_off_c, 3, 55, 64
5, 108320, Note_on_c, 3, 51, 49
5, 108360, Note_off_c, 3, 85, 64
5, 108360, Note_on_c, 3, 84, 59
5, 108400, Note_off_c, 3, 51, 64
5, 108400, Note_on_c, 3, 49, 56
5, 108420, Note_off_c, 3, 84, 64
5, 108420, Note_on_c, 3, 82, 57
5, 108480, Note_off_c, 3, 82, 64
5, 108480, Note_off_c, 3, 49, 64
5, 108480, Note_on_c, 3, 80, 50
5, 108480, Note_on_c, 3, 48, 50
5, 108480, Note_on_c, 3, 44, 50
5, 108600, Note_off_c, 3, 44, 64
5, 108600, Note_off_c, 3, 48, 64
5, 108600, Note_off_c, 3, 80, 64
5, 109920, Note_on_c, 3, 87, 48
5, 109920, Note_on_c, 3, 75, 68
5, 109980, Note_off_c, 3, 75, 64
5, 109980, Note_off_c, 3, 87, 64
5, 109980, Note_on_c, 3, 86, 65
5, 109980, Note_on_c, 3, 74, 76
5, 110040, Note_off_c, 3, 74, 64
5, 110040, Note_off_c, 3, 86, 64
5, 110040, Note_on_c, 3, 89, 67
5, 110040, Note_on_c, 3, 77, 65
5, 110100, Note_off_c, 3, 77, 64
5, 110100, Note_off_c, 3, 89, 64
5, 110100, Note_on_c, 3, 87, 54
5, 110100, Note_on_c, 3, 75, 72
5, 110160, Note_off_c, 3, 75, 64
5, 110160, Note_off_c, 3, 87, 64
5, 110160, Note_on_c, 3, 87, 65
5, 110160, Note_on_c, 3, 75, 70
5, 110220, Note_off_c, 3, 75, 64
5, 110220, Note_off_c, 3, 87, 64
5, 110220, Note_on_c, 3, 85, 62
5, 110220, Note_on_c, 3, 73, 57
5, 110280, Note_off_c, 3, 73, 64
5, 110280, Note_off_c, 3, 85, 64
5, 110280, Note_on_c, 3, 84, 46
5, 110280, Note_on_c, 3, 72, 64
5, 110340, Note_off_c, 3, 72, 64
5, 110340, Note_off_c, 3, 84, 64
5, 110340, Note_on_c, 3, 82, 62
5, 110340, Note_on_c, 3, 70, 72
5, 110400, Note_off_c, 3, 70, 64
5, 110400, Note_off_c, 3, 82, 64
5, 110400, Control_c, 3, 64, 1
5, 110400, Note_on_c, 3, 80, 55
5, 110400, Note_on_c, 3, 68, 61
5, 110404, Control_c, 3, 64, 3
5, 110408, Control_c, 3, 64, 5
5, 110412, Control_c, 3, 64, 7
5, 110416, Control_c, 3, 64, 13
5, 110420, Control_c, 3, 64, 23
5, 110424, Control_c, 3, 64, 27
5, 110428, Control_c, 3, 64, 31
5, 110436, Control_c, 3, 64, 34
5, 110440, Note_off_c, 3, 68, 64
5, 110440, Note_off_c, 3, 80, 64
5, 110440, Control_c, 3, 64, 37
5, 110444, Control_c, 3, 64, 41
5, 110452, Control_c, 3, 64, 49
5, 110464, Control_c, 3, 64, 55
5, 110468, Control_c, 3, 64, 58
5, 110472, Control_c, 3, 64, 62
5, 110476, Control_c, 3, 64, 65
5, 110480, Control_c, 3, 64, 68
5, 110480, Note_on_c, 3, 87, 43
5, 110480, Note_on_c, 3, 75, 57
5, 110488, Control_c, 3, 64, 72
5, 110496, Control_c, 3, 64, 76
5, 110500, Control_c, 3, 64, 81
5, 110504, Control_c, 3, 64, 84
5, 110512, Control_c, 3, 64, 90
5, 110516, Control_c, 3, 64, 93
5, 110520, Note_off_c, 3, 75, 64
5, 110520, Note_off_c, 3, 87, 64
5, 110520, Control_c, 3, 64, 95
5, 110524, Control_c, 3, 64, 97
5, 110528, Control_c, 3, 64, 99
5, 110532, Control_c, 3, 64, 101
5, 110536, Control_c, 3, 64, 103
5, 110544, Control_c, 3, 64, 106
5, 110548, Control_c, 3, 64, 108
5, 110552, Control_c, 3, 64, 111
5, 110560, Control_c, 3, 64, 114
5, 110560, Note_on_c, 3, 84, 55
5, 110560, Note_on_c, 3, 72, 29
5, 110568, Control_c, 3, 64, 115
5, 110576, Control_c, 3, 64, 117
5, 110588, Control_c, 3, 64, 119
5, 110596, Control_c, 3, 64, 120
5, 110600, Note_off_c, 3, 72, 64
5, 110600, Note_off_c, 3, 84, 64
5, 110604, Control_c, 3, 64, 122
5, 110620, Control_c, 3, 64, 123
5, 110640, Note_on_c, 3, 80, 40
5, 110640, Note_on_c, 3, 68, 46
5, 110680, Note_off_c, 3, 68, 64
5, 110680, Note_off_c, 3, 80, 64
5, 110720, Note_on_c, 3, 75, 46
5, 110720, Note_on_c, 3, 63, 40
5, 110724, Control_c, 3, 64, 124
5, 110760, Note_off_c, 3, 63, 64
5, 110760, Note_off_c, 3, 75, 64
5, 110800, Note_on_c, 3, 72, 30
5, 110800, Note_on_c, 3, 60, 65
5, 110812, Control_c, 3, 64, 125
5, 110836, Control_c, 3, 64, 126
5, 110840, Note_off_c, 3, 60, 64
5, 110840, Note_off_c, 3, 72, 64
5, 110880, Note_on_c, 3, 68, 43
5, 110880, Note_on_c, 3, 56, 53
5, 110896, Control_c, 3, 64, 127
5, 111120, Note_off_c, 3, 56, 64
5, 111120, Note_off_c, 3, 68, 64
5, 111360, Note_on_c, 3, 68, 46
5, 111360, Note_on_c, 3, 56, 52
5, 111400, Note_off_c, 3, 56, 64
5, 111400, Note_off_c, 3, 68, 64
5, 111440, Note_on_c, 3, 75, 53
5, 111440, Note_on_c, 3, 63, 43
5, 111480, Note_off_c, 3, 63, 64
5, 111480, Note_off_c, 3, 75, 64
5, 111520, Note_on_c, 3, 72, 29
5, 111520, Note_on_c, 3, 60, 68
5, 111536, Control_c, 3, 64, 123
5, 111560, Note_off_c, 3, 60, 64
5, 111560, Note_off_c, 3, 72, 64
5, 111600, Note_on_c, 3, 68, 45
5, 111600, Note_on_c, 3, 56, 58
5, 111640, Note_off_c, 3, 56, 64
5, 111640, Note_off_c, 3, 68, 64
5, 111680, Note_on_c, 3, 63, 47
5, 111680, Note_on_c, 3, 51, 57
5, 111720, Note_off_c, 3, 51, 64
5, 111720, Note_off_c, 3, 63, 64
5, 111728, Control_c, 3, 64, 124
5, 111760, Note_on_c, 3, 60, 35
5, 111760, Note_on_c, 3, 48, 47
5, 111800, Note_off_c, 3, 48, 64
5, 111800, Note_off_c, 3, 60, 64
5, 111840, Note_on_c, 3, 56, 40
5, 111840, Note_on_c, 3, 44, 39
5, 112044, Control_c, 3, 64, 126
5, 112080, Note_off_c, 3, 44, 64
5, 112080, Note_off_c, 3, 56, 64
5, 112084, Control_c, 3, 64, 127
5, 112320, Note_on_c, 3, 56, 41
5, 112320, Note_on_c, 3, 44, 43
5, 112360, Note_off_c, 3, 44, 64
5, 112360, Note_off_c, 3, 56, 64
5, 112400, Note_on_c, 3, 63, 43
5, 112400, Note_on_c, 3, 51, 40
5, 112440, Note_off_c, 3, 51, 64
5, 112440, Note_off_c, 3, 63, 64
5, 112480, Note_on_c, 3, 60, 29
5, 112480, Note_on_c, 3, 48, 40
5, 112520, Note_off_c, 3, 48, 64
5, 112520, Note_off_c, 3, 60, 64
5, 112560, Note_on_c, 3, 56, 46
5, 112560, Note_on_c, 3, 44, 40
5, 112600, Note_off_c, 3, 44, 64
5, 112600, Note_off_c, 3, 56, 64
5, 112640, Note_on_c, 3, 51, 29
5, 112640, Note_on_c, 3, 39, 33
5, 112680, Note_off_c, 3, 39, 64
5, 112680, Note_off_c, 3, 51, 64
5, 112720, Note_on_c, 3, 48, 42
5, 112720, Note_on_c, 3, 36, 42
5, 112760, Note_off_c, 3, 36, 64
5, 112760, Note_off_c, 3, 48, 64
5, 112800, Note_on_c, 3, 44, 29
5, 112800, Note_on_c, 3, 32, 31
5, 113040, Note_off_c, 3, 32, 64
5, 113040, Note_off_c, 3, 44, 64
5, 113040, Note_on_c, 3, 44, 35
5, 113040, Note_on_c, 3, 32, 35
5, 113116, Control_c, 3, 64, 125
5, 113180, Control_c, 3, 64, 124
5, 113192, Control_c, 3, 64, 123
5, 113280, Note_off_c, 3, 32, 64
5, 113280, Note_off_c, 3, 44, 64
5, 113280, Note_on_c, 3, 44, 32
5, 113280, Note_on_c, 3, 32, 38
5, 113292, Control_c, 3, 64, 120
5, 113296, Control_c, 3, 64, 121
5, 113304, Control_c, 3, 64, 120
5, 113316, Control_c, 3, 64, 119
5, 113508, Control_c, 3, 64, 120
5, 113572, Control_c, 3, 64, 121
5, 113756, Control_c, 3, 64, 122
5, 113772, Control_c, 3, 64, 123
5, 113816, Control_c, 3, 64, 124
5, 113840, Control_c, 3, 64, 125
5, 113848, Control_c, 3, 64, 126
5, 113888, Control_c, 3, 64, 127
5, 114072, Control_c, 3, 64, 126
5, 114084, Control_c, 3, 64, 124
5, 114088, Control_c, 3, 64, 120
5, 114092, Control_c, 3, 64, 117
5, 114096, Control_c, 3, 64, 115
5, 114100, Control_c, 3, 64, 113
5, 114104, Control_c, 3, 64, 108
5, 114108, Control_c, 3, 64, 104
5, 114112, Control_c, 3, 64, 101
5, 114116, Control_c, 3, 64, 99
5, 114120, Control_c, 3, 64, 98
5, 114124, Control_c, 3, 64, 95
5, 114128, Control_c, 3, 64, 92
5, 114132, Control_c, 3, 64, 89
5, 114136, Control_c, 3, 64, 85
5, 114140, Control_c, 3, 64, 82
5, 114144, Control_c, 3, 64, 79
5, 114148, Control_c, 3, 64, 76
5, 114156, Control_c, 3, 64, 74
5, 114164, Control_c, 3, 64, 70
5, 114176, Control_c, 3, 64, 64
5, 114180, Control_c, 3, 64, 62
5, 114184, Control_c, 3, 64, 58
5, 114192, Control_c, 3, 64, 52
5, 114196, Control_c, 3, 64, 50
5, 114204, Control_c, 3, 64, 48
5, 114208, Control_c, 3, 64, 42
5, 114212, Control_c, 3, 64, 37
5, 114216, Control_c, 3, 64, 30
5, 114220, Control_c, 3, 64, 25
5, 114224, Control_c, 3, 64, 18
5, 114228, Control_c, 3, 64, 14
5, 114232, Control_c, 3, 64, 10
5, 114236, Control_c, 3, 64, 0
5, 114240, Note_off_c, 3, 32, 64
5, 114240, Note_off_c, 3, 44, 64
5, 114724, Control_c, 3, 64, 0
5, 114724, End_track
6, 0, Start_track
6, 0, Title_t, "1st Violins"
6, 0, Program_c, 4, 48
6, 0, Control_c, 4, 7, 100
6, 0, Control_c, 4, 10, 29
6, 0, Control_c, 4, 93, 0
6, 0, Control_c, 4, 91, 66
6, 0, Note_on_c, 4, 60, 37
6, 480, Note_off_c, 4, 60, 64
6, 480, Note_on_c, 4, 60, 32
6, 720, Note_off_c, 4, 60, 64
6, 720, Note_on_c, 4, 60, 40
6, 960, Note_off_c, 4, 60, 64
6, 960, Note_on_c, 4, 61, 43
6, 1440, Note_off_c, 4, 61, 64
6, 3840, Note_on_c, 4, 60, 29
6, 4320, Note_off_c, 4, 60, 64
6, 4320, Note_on_c, 4, 60, 33
6, 4440, Note_off_c, 4, 60, 64
6, 4440, Note_on_c, 4, 63, 32
6, 4680, Note_off_c, 4, 63, 64
6, 4680, Note_on_c, 4, 63, 43
6, 4800, Note_off_c, 4, 63, 64
6, 4800, Note_on_c, 4, 65, 33
6, 5280, Note_off_c, 4, 65, 64
6, 7200, Note_on_c, 4, 75, 42
6, 7440, Note_off_c, 4, 75, 64
6, 7440, Note_on_c, 4, 75, 46
6, 7680, Note_off_c, 4, 75, 64
6, 7680, Note_on_c, 4, 75, 46
6, 8040, Note_off_c, 4, 75, 64
6, 8040, Note_on_c, 4, 80, 32
6, 8160, Note_off_c, 4, 80, 64
6, 8160, Note_on_c, 4, 80, 48
6, 8280, Note_off_c, 4, 80, 64
6, 8280, Note_on_c, 4, 79, 42
6, 8400, Note_off_c, 4, 79, 64
6, 8400, Note_on_c, 4, 77, 40
6, 8520, Note_off_c, 4, 77, 64
6, 8520, Note_on_c, 4, 79, 43
6, 8640, Note_off_c, 4, 79, 64
6, 8640, Note_on_c, 4, 80, 33
6, 8820, Note_off_c, 4, 80, 64
6, 8820, Note_on_c, 4, 82, 44
6, 8880, Note_off_c, 4, 82, 64
6, 8880, Note_on_c, 4, 84, 48
6, 8940, Note_off_c, 4, 84, 64
6, 8940, Note_on_c, 4, 79, 43
6, 9000, Note_off_c, 4, 79, 64
6, 9000, Note_on_c, 4, 80, 65
6, 9060, Note_off_c, 4, 80, 64
6, 9060, Note_on_c, 4, 77, 64
6, 9120, Note_off_c, 4, 77, 64
6, 9120, Note_on_c, 4, 75, 62
6, 9360, Note_off_c, 4, 75, 64
6, 9360, Note_on_c, 4, 75, 84
6, 9600, Note_off_c, 4, 75, 64
6, 9600, Note_on_c, 4, 75, 94
6, 9960, Note_off_c, 4, 75, 64
6, 9960, Note_on_c, 4, 80, 98
6, 10080, Note_off_c, 4, 80, 64
6, 10080, Note_on_c, 4, 80, 99
6, 10260, Note_off_c, 4, 80, 64
6, 10290, Note_on_c, 4, 79, 104
6, 10320, Note_off_c, 4, 79, 64
6, 10320, Note_on_c, 4, 80, 105
6, 10500, Note_off_c, 4, 80, 64
6, 10530, Note_on_c, 4, 82, 104
6, 10560, Note_off_c, 4, 82, 64
6, 10560, Note_on_c, 4, 75, 110
6, 10800, Note_off_c, 4, 75, 64
6, 11730, Note_on_c, 4, 67, 94
6, 11760, Note_off_c, 4, 67, 64
6, 11760, Note_on_c, 4, 68, 94
6, 11940, Note_off_c, 4, 68, 64
6, 11970, Note_on_c, 4, 70, 99
6, 12000, Note_off_c, 4, 70, 64
6, 12000, Note_on_c, 4, 63, 99
6, 12120, Note_off_c, 4, 63, 64
6, 13440, Note_on_c, 4, 60, 39
6, 13500, Note_off_c, 4, 60, 64
6, 13500, Note_on_c, 4, 63, 43
6, 13560, Note_off_c, 4, 63, 64
6, 13560, Note_on_c, 4, 68, 46
6, 13620, Note_off_c, 4, 68, 64
6, 13620, Note_on_c, 4, 63, 43
6, 13680, Note_off_c, 4, 63, 64
6, 13680, Note_on_c, 4, 60, 41
6, 13740, Note_off_c, 4, 60, 64
6, 13740, Note_on_c, 4, 63, 41
6, 13800, Note_off_c, 4, 63, 64
6, 13800, Note_on_c, 4, 68, 44
6, 13860, Note_off_c, 4, 68, 64
6, 13860, Note_on_c, 4, 63, 43
6, 13920, Note_off_c, 4, 63, 64
6, 13920, Note_on_c, 4, 60, 40
6, 13980, Note_off_c, 4, 60, 64
6, 13980, Note_on_c, 4, 63, 48
6, 14040, Note_off_c, 4, 63, 64
6, 14040, Note_on_c, 4, 68, 45
6, 14100, Note_off_c, 4, 68, 64
6, 14100, Note_on_c, 4, 63, 42
6, 14160, Note_off_c, 4, 63, 64
6, 14160, Note_on_c, 4, 60, 40
6, 14220, Note_off_c, 4, 60, 64
6, 14220, Note_on_c, 4, 63, 43
6, 14280, Note_off_c, 4, 63, 64
6, 14280, Note_on_c, 4, 56, 66
6, 14340, Note_off_c, 4, 56, 64
6, 14340, Note_on_c, 4, 63, 40
6, 14400, Note_off_c, 4, 63, 64
6, 14400, Note_on_c, 4, 55, 43
6, 14460, Note_off_c, 4, 55, 64
6, 14460, Note_on_c, 4, 61, 46
6, 14520, Note_off_c, 4, 61, 64
6, 14520, Note_on_c, 4, 63, 69
6, 14580, Note_off_c, 4, 63, 64
6, 14580, Note_on_c, 4, 61, 64
6, 14640, Note_off_c, 4, 61, 64
6, 14640, Note_on_c, 4, 55, 65
6, 14700, Note_off_c, 4, 55, 64
6, 14700, Note_on_c, 4, 61, 76
6, 14760, Note_off_c, 4, 61, 64
6, 14760, Note_on_c, 4, 63, 81
6, 14820, Note_off_c, 4, 63, 64
6, 14820, Note_on_c, 4, 61, 76
6, 14880, Note_off_c, 4, 61, 64
6, 14880, Note_on_c, 4, 55, 72
6, 14940, Note_off_c, 4, 55, 64
6, 14940, Note_on_c, 4, 63, 81
6, 15000, Note_off_c, 4, 63, 64
6, 15000, Note_on_c, 4, 55, 66
6, 15060, Note_off_c, 4, 55, 64
6, 15060, Note_on_c, 4, 63, 94
6, 15120, Note_off_c, 4, 63, 64
6, 15120, Note_on_c, 4, 57, 107
6, 15180, Note_off_c, 4, 57, 64
6, 15180, Note_on_c, 4, 66, 95
6, 15240, Note_off_c, 4, 66, 64
6, 15240, Note_on_c, 4, 57, 99
6, 15300, Note_off_c, 4, 57, 64
6, 15300, Note_on_c, 4, 66, 90
6, 15360, Note_off_c, 4, 66, 64
6, 15360, Note_on_c, 4, 58, 42
6, 15420, Note_off_c, 4, 58, 64
6, 15420, Note_on_c, 4, 65, 36
6, 15480, Note_off_c, 4, 65, 64
6, 15480, Note_on_c, 4, 61, 42
6, 15540, Note_off_c, 4, 61, 64
6, 15540, Note_on_c, 4, 65, 34
6, 15600, Note_off_c, 4, 65, 64
6, 15600, Note_on_c, 4, 58, 45
6, 15660, Note_off_c, 4, 58, 64
6, 15660, Note_on_c, 4, 65, 35
6, 15720, Note_off_c, 4, 65, 64
6, 15720, Note_on_c, 4, 61, 45
6, 15780, Note_off_c, 4, 61, 64
6, 15780, Note_on_c, 4, 65, 54
6, 15840, Note_off_c, 4, 65, 64
6, 15840, Note_on_c, 4, 60, 35
6, 15900, Note_off_c, 4, 60, 64
6, 15900, Note_on_c, 4, 63, 40
6, 15960, Note_off_c, 4, 63, 64
6, 15960, Note_on_c, 4, 60, 43
6, 16020, Note_off_c, 4, 60, 64
6, 16020, Note_on_c, 4, 63, 40
6, 16080, Note_off_c, 4, 63, 64
6, 16080, Note_on_c, 4, 61, 45
6, 16140, Note_off_c, 4, 61, 64
6, 16140, Note_on_c, 4, 63, 40
6, 16200, Note_off_c, 4, 63, 64
6, 16200, Note_on_c, 4, 61, 38
6, 16260, Note_off_c, 4, 61, 64
6, 16260, Note_on_c, 4, 63, 42
6, 16320, Note_off_c, 4, 63, 64
6, 16320, Note_on_c, 4, 61, 44
6, 16380, Note_off_c, 4, 61, 64
6, 16380, Note_on_c, 4, 63, 40
6, 16440, Note_off_c, 4, 63, 64
6, 16440, Note_on_c, 4, 67, 40
6, 16500, Note_off_c, 4, 67, 64
6, 16500, Note_on_c, 4, 63, 29
6, 16560, Note_off_c, 4, 63, 64
6, 16560, Note_on_c, 4, 61, 41
6, 16620, Note_off_c, 4, 61, 64
6, 16620, Note_on_c, 4, 67, 43
6, 16680, Note_off_c, 4, 67, 64
6, 16680, Note_on_c, 4, 63, 29
6, 16740, Note_off_c, 4, 63, 64
6, 16740, Note_on_c, 4, 61, 43
6, 16800, Note_off_c, 4, 61, 64
6, 16800, Note_on_c, 4, 60, 43
6, 16920, Note_off_c, 4, 60, 64
6, 22560, Note_on_c, 4, 63, 44
6, 22800, Note_off_c, 4, 63, 64
6, 22800, Note_on_c, 4, 63, 29
6, 22860, Note_off_c, 4, 63, 64
6, 22860, Note_on_c, 4, 69, 67
6, 22920, Note_off_c, 4, 69, 64
6, 22920, Note_on_c, 4, 73, 48
6, 22980, Note_off_c, 4, 73, 64
6, 22980, Note_on_c, 4, 75, 46
6, 23040, Note_off_c, 4, 75, 64
6, 23040, Note_on_c, 4, 74, 77
6, 23160, Note_off_c, 4, 74, 64
6, 23160, Note_on_c, 4, 82, 65
6, 23250, Note_off_c, 4, 82, 64
6, 23280, Note_on_c, 4, 82, 73
6, 23370, Note_off_c, 4, 82, 64
6, 23400, Note_on_c, 4, 82, 73
6, 23490, Note_off_c, 4, 82, 64
6, 23520, Note_on_c, 4, 82, 51
6, 23640, Note_off_c, 4, 82, 64
6, 23640, Note_on_c, 4, 77, 67
6, 23760, Note_off_c, 4, 77, 64
6, 23760, Note_on_c, 4, 78, 81
6, 23880, Note_off_c, 4, 78, 64
6, 23880, Note_on_c, 4, 75, 43
6, 24000, Note_off_c, 4, 75, 64
6, 24000, Note_on_c, 4, 74, 70
6, 24120, Note_off_c, 4, 74, 64
6, 24600, Note_on_c, 4, 74, 42
6, 24720, Note_off_c, 4, 74, 64
6, 24720, Note_on_c, 4, 75, 71
6, 24840, Note_off_c, 4, 75, 64
6, 24840, Note_on_c, 4, 78, 41
6, 24960, Note_off_c, 4, 78, 64
6, 24960, Note_on_c, 4, 77, 123
6, 25080, Note_off_c, 4, 77, 64
6, 25080, Note_on_c, 4, 82, 95
6, 25140, Note_off_c, 4, 82, 64
6, 25200, Note_on_c, 4, 82, 89
6, 25260, Note_off_c, 4, 82, 64
6, 25320, Note_on_c, 4, 82, 93
6, 25380, Note_off_c, 4, 82, 64
6, 25440, Note_on_c, 4, 82, 85
6, 25800, Note_off_c, 4, 82, 64
6, 25800, Note_on_c, 4, 81, 125
6, 25920, Note_off_c, 4, 81, 64
6, 25920, Note_on_c, 4, 82, 123
6, 26280, Note_off_c, 4, 82, 64
6, 26280, Note_on_c, 4, 81, 127
6, 26400, Note_off_c, 4, 81, 64
6, 26400, Note_on_c, 4, 82, 125
6, 26760, Note_off_c, 4, 82, 64
6, 26760, Note_on_c, 4, 81, 127
6, 26880, Note_off_c, 4, 81, 64
6, 26880, Note_on_c, 4, 82, 125
6, 27000, Note_off_c, 4, 82, 64
6, 27120, Note_on_c, 4, 58, 53
6, 27240, Note_off_c, 4, 58, 64
6, 29880, Note_on_c, 4, 58, 38
6, 30000, Note_off_c, 4, 58, 64
6, 30000, Note_on_c, 4, 63, 42
6, 30120, Note_off_c, 4, 63, 64
6, 30120, Note_on_c, 4, 67, 37
6, 30240, Note_off_c, 4, 67, 64
6, 30240, Note_on_c, 4, 70, 45
6, 30360, Note_off_c, 4, 70, 64
6, 30840, Note_on_c, 4, 58, 35
6, 30960, Note_off_c, 4, 58, 64
6, 30960, Note_on_c, 4, 65, 44
6, 31080, Note_off_c, 4, 65, 64
6, 31080, Note_on_c, 4, 68, 43
6, 31200, Note_off_c, 4, 68, 64
6, 31200, Note_on_c, 4, 70, 35
6, 31320, Note_off_c, 4, 70, 64
6, 31680, Note_on_c, 4, 58, 39
6, 31920, Note_off_c, 4, 58, 64
6, 32160, Note_on_c, 4, 63, 29
6, 32400, Note_off_c, 4, 63, 64
6, 32640, Note_on_c, 4, 65, 36
6, 32880, Note_off_c, 4, 65, 64
6, 33120, Note_on_c, 4, 65, 40
6, 33360, Note_off_c, 4, 65, 64
6, 33600, Note_on_c, 4, 67, 40
6, 33840, Note_off_c, 4, 67, 64
6, 34080, Note_on_c, 4, 68, 45
6, 34320, Note_off_c, 4, 68, 64
6, 34680, Note_on_c, 4, 67, 43
6, 34740, Note_off_c, 4, 67, 64
6, 34800, Note_on_c, 4, 79, 86
6, 35160, Note_off_c, 4, 79, 64
6, 35160, Note_on_c, 4, 80, 90
6, 35220, Note_off_c, 4, 80, 64
6, 35220, Note_on_c, 4, 79, 86
6, 35280, Note_off_c, 4, 79, 64
6, 35280, Note_on_c, 4, 82, 99
6, 35340, Note_off_c, 4, 82, 64
6, 35340, Note_on_c, 4, 80, 104
6, 35400, Note_off_c, 4, 80, 64
6, 35400, Note_on_c, 4, 77, 115
6, 35460, Note_off_c, 4, 77, 64
6, 35460, Note_on_c, 4, 74, 119
6, 35520, Note_off_c, 4, 74, 64
6, 35520, Note_on_c, 4, 75, 46
6, 35760, Note_off_c, 4, 75, 64
6, 38880, Note_on_c, 4, 68, 73
6, 38880, Note_on_c, 4, 58, 89
6, 39060, Note_off_c, 4, 58, 64
6, 39060, Note_off_c, 4, 68, 64
6, 39090, Note_on_c, 4, 68, 77
6, 39090, Note_on_c, 4, 58, 89
6, 39120, Note_off_c, 4, 58, 64
6, 39120, Note_off_c, 4, 68, 64
6, 39120, Note_on_c, 4, 68, 73
6, 39120, Note_on_c, 4, 58, 84
6, 39300, Note_off_c, 4, 58, 64
6, 39300, Note_off_c, 4, 68, 64
6, 39330, Note_on_c, 4, 58, 85
6, 39330, Note_on_c, 4, 68, 76
6, 39360, Note_off_c, 4, 68, 64
6, 39360, Note_off_c, 4, 58, 64
6, 39360, Note_on_c, 4, 67, 78
6, 39360, Note_on_c, 4, 58, 86
6, 39480, Note_off_c, 4, 58, 64
6, 39480, Note_off_c, 4, 67, 64
6, 39840, Note_on_c, 4, 65, 76
6, 39840, Note_on_c, 4, 56, 89
6, 40020, Note_off_c, 4, 56, 64
6, 40020, Note_off_c, 4, 65, 64
6, 40050, Note_on_c, 4, 65, 80
6, 40050, Note_on_c, 4, 56, 89
6, 40080, Note_off_c, 4, 56, 64
6, 40080, Note_off_c, 4, 65, 64
6, 40080, Note_on_c, 4, 65, 71
6, 40080, Note_on_c, 4, 56, 93
6, 40260, Note_off_c, 4, 56, 64
6, 40260, Note_off_c, 4, 65, 64
6, 40290, Note_on_c, 4, 56, 90
6, 40290, Note_on_c, 4, 65, 78
6, 40320, Note_off_c, 4, 65, 64
6, 40320, Note_off_c, 4, 56, 64
6, 40320, Note_on_c, 4, 63, 85
6, 40320, Note_on_c, 4, 55, 99
6, 40440, Note_off_c, 4, 55, 64
6, 40440, Note_off_c, 4, 63, 64
6, 40440, Note_on_c, 4, 63, 58
6, 40560, Note_off_c, 4, 63, 64
6, 40560, Note_on_c, 4, 63, 44
6, 40680, Note_off_c, 4, 63, 64
6, 40680, Note_on_c, 4, 63, 43
6, 40800, Note_off_c, 4, 63, 64
6, 40800, Note_on_c, 4, 63, 38
6, 40920, Note_off_c, 4, 63, 64
6, 40920, Note_on_c, 4, 63, 40
6, 41040, Note_off_c, 4, 63, 64
6, 41040, Note_on_c, 4, 63, 38
6, 41160, Note_off_c, 4, 63, 64
6, 41160, Note_on_c, 4, 63, 43
6, 41280, Note_off_c, 4, 63, 64
6, 41280, Note_on_c, 4, 63, 35
6, 41400, Note_off_c, 4, 63, 64
6, 41400, Note_on_c, 4, 63, 33
6, 41520, Note_off_c, 4, 63, 64
6, 41520, Note_on_c, 4, 63, 42
6, 41640, Note_off_c, 4, 63, 64
6, 41640, Note_on_c, 4, 63, 43
6, 41760, Note_off_c, 4, 63, 64
6, 41760, Note_on_c, 4, 63, 35
6, 41880, Note_off_c, 4, 63, 64
6, 41880, Note_on_c, 4, 63, 43
6, 42000, Note_off_c, 4, 63, 64
6, 42000, Note_on_c, 4, 63, 40
6, 42120, Note_off_c, 4, 63, 64
6, 42120, Note_on_c, 4, 63, 42
6, 42240, Note_off_c, 4, 63, 64
6, 42240, Note_on_c, 4, 63, 34
6, 42360, Note_off_c, 4, 63, 64
6, 42360, Note_on_c, 4, 63, 45
6, 42480, Note_off_c, 4, 63, 64
6, 42480, Note_on_c, 4, 63, 73
6, 42600, Note_off_c, 4, 63, 64
6, 42600, Note_on_c, 4, 63, 86
6, 42720, Note_off_c, 4, 63, 64
6, 42720, Note_on_c, 4, 63, 74
6, 42840, Note_off_c, 4, 63, 64
6, 42840, Note_on_c, 4, 63, 44
6, 42960, Note_off_c, 4, 63, 64
6, 42960, Note_on_c, 4, 63, 38
6, 43080, Note_off_c, 4, 63, 64
6, 43080, Note_on_c, 4, 63, 32
6, 43200, Note_off_c, 4, 63, 64
6, 43200, Note_on_c, 4, 63, 29
6, 43320, Note_off_c, 4, 63, 64
6, 43320, Note_on_c, 4, 63, 31
6, 43440, Note_off_c, 4, 63, 64
6, 43440, Note_on_c, 4, 63, 29
6, 43560, Note_off_c, 4, 63, 64
6, 43560, Note_on_c, 4, 63, 31
6, 43680, Note_off_c, 4, 63, 64
6, 43680, Note_on_c, 4, 63, 29
6, 43800, Note_off_c, 4, 63, 64
6, 43800, Note_on_c, 4, 63, 30
6, 43920, Note_off_c, 4, 63, 64
6, 43920, Note_on_c, 4, 63, 29
6, 44040, Note_off_c, 4, 63, 64
6, 44040, Note_on_c, 4, 63, 33
6, 44160, Note_off_c, 4, 63, 64
6, 44160, Note_on_c, 4, 63, 59
6, 44280, Note_off_c, 4, 63, 64
6, 44760, Note_on_c, 4, 67, 42
6, 44880, Note_off_c, 4, 67, 64
6, 44880, Note_on_c, 4, 67, 40
6, 45000, Note_off_c, 4, 67, 64
6, 45000, Note_on_c, 4, 67, 43
6, 45120, Note_off_c, 4, 67, 64
6, 45120, Note_on_c, 4, 68, 43
6, 45360, Note_off_c, 4, 68, 64
6, 45720, Note_on_c, 4, 68, 32
6, 45840, Note_off_c, 4, 68, 64
6, 45840, Note_on_c, 4, 68, 32
6, 45960, Note_off_c, 4, 68, 64
6, 45960, Note_on_c, 4, 68, 30
6, 46080, Note_off_c, 4, 68, 64
6, 46080, Note_on_c, 4, 70, 39
6, 46320, Note_off_c, 4, 70, 64
6, 46560, Note_on_c, 4, 72, 40
6, 46800, Note_off_c, 4, 72, 64
6, 47040, Note_on_c, 4, 73, 45
6, 47280, Note_off_c, 4, 73, 64
6, 49920, Note_on_c, 4, 60, 33
6, 50400, Note_off_c, 4, 60, 64
6, 50400, Note_on_c, 4, 60, 36
6, 50580, Note_off_c, 4, 60, 64
6, 50640, Note_on_c, 4, 60, 40
6, 50820, Note_off_c, 4, 60, 64
6, 50880, Note_on_c, 4, 61, 40
6, 51360, Note_off_c, 4, 61, 64
6, 53760, Note_on_c, 4, 60, 33
6, 54240, Note_off_c, 4, 60, 64
6, 54240, Note_on_c, 4, 60, 29
6, 54360, Note_off_c, 4, 60, 64
6, 54360, Note_on_c, 4, 63, 51
6, 54600, Note_off_c, 4, 63, 64
6, 54600, Note_on_c, 4, 63, 52
6, 54720, Note_off_c, 4, 63, 64
6, 54720, Note_on_c, 4, 65, 32
6, 55200, Note_off_c, 4, 65, 64
6, 57120, Note_on_c, 4, 75, 39
6, 57300, Note_off_c, 4, 75, 64
6, 57360, Note_on_c, 4, 75, 43
6, 57540, Note_off_c, 4, 75, 64
6, 57600, Note_on_c, 4, 75, 40
6, 57960, Note_off_c, 4, 75, 64
6, 57960, Note_on_c, 4, 80, 29
6, 58080, Note_off_c, 4, 80, 64
6, 58080, Note_on_c, 4, 80, 39
6, 58200, Note_off_c, 4, 80, 64
6, 58200, Note_on_c, 4, 79, 43
6, 58320, Note_off_c, 4, 79, 64
6, 58320, Note_on_c, 4, 77, 43
6, 58440, Note_off_c, 4, 77, 64
6, 58440, Note_on_c, 4, 79, 45
6, 58560, Note_off_c, 4, 79, 64
6, 58560, Note_on_c, 4, 80, 38
6, 58740, Note_off_c, 4, 80, 64
6, 58740, Note_on_c, 4, 82, 43
6, 58800, Note_off_c, 4, 82, 64
6, 58800, Note_on_c, 4, 84, 34
6, 58860, Note_off_c, 4, 84, 64
6, 58860, Note_on_c, 4, 79, 50
6, 58920, Note_off_c, 4, 79, 64
6, 58920, Note_on_c, 4, 80, 43
6, 58980, Note_off_c, 4, 80, 64
6, 58980, Note_on_c, 4, 77, 43
6, 59040, Note_off_c, 4, 77, 64
6, 59040, Note_on_c, 4, 75, 54
6, 59220, Note_off_c, 4, 75, 64
6, 59280, Note_on_c, 4, 75, 90
6, 59460, Note_off_c, 4, 75, 64
6, 59520, Note_on_c, 4, 75, 86
6, 59880, Note_off_c, 4, 75, 64
6, 59880, Note_on_c, 4, 80, 99
6, 60000, Note_off_c, 4, 80, 64
6, 60000, Note_on_c, 4, 80, 104
6, 60180, Note_off_c, 4, 80, 64
6, 60210, Note_on_c, 4, 79, 104
6, 60240, Note_off_c, 4, 79, 64
6, 60240, Note_on_c, 4, 80, 104
6, 60420, Note_off_c, 4, 80, 64
6, 60450, Note_on_c, 4, 82, 99
6, 60480, Note_off_c, 4, 82, 64
6, 60480, Note_on_c, 4, 75, 110
6, 60720, Note_off_c, 4, 75, 64
6, 61650, Note_on_c, 4, 67, 105
6, 61680, Note_off_c, 4, 67, 64
6, 61680, Note_on_c, 4, 68, 99
6, 61860, Note_off_c, 4, 68, 64
6, 61890, Note_on_c, 4, 70, 105
6, 61920, Note_off_c, 4, 70, 64
6, 61920, Note_on_c, 4, 63, 99
6, 62040, Note_off_c, 4, 63, 64
6, 63360, Program_c, 4, 45
6, 63600, Note_on_c, 4, 63, 90
6, 63840, Note_off_c, 4, 63, 64
6, 64560, Note_on_c, 4, 63, 89
6, 64800, Note_off_c, 4, 63, 64
6, 65520, Note_on_c, 4, 75, 95
6, 65760, Note_off_c, 4, 75, 64
6, 66000, Note_on_c, 4, 75, 99
6, 66240, Note_off_c, 4, 75, 64
6, 66480, Note_on_c, 4, 75, 90
6, 66720, Note_off_c, 4, 75, 64
6, 66720, Note_on_c, 4, 75, 90
6, 66960, Note_off_c, 4, 75, 64
6, 67440, Note_on_c, 4, 63, 90
6, 67680, Note_off_c, 4, 63, 64
6, 68400, Note_on_c, 4, 65, 94
6, 68640, Note_off_c, 4, 65, 64
6, 69360, Note_on_c, 4, 80, 95
6, 69600, Note_off_c, 4, 80, 64
6, 69840, Note_on_c, 4, 75, 104
6, 70080, Note_off_c, 4, 75, 64
6, 70080, Note_on_c, 4, 75, 89
6, 70320, Note_off_c, 4, 75, 64
6, 70320, Program_c, 4, 48
6, 70640, Note_on_c, 4, 63, 43
6, 70720, Note_off_c, 4, 63, 64
6, 70720, Note_on_c, 4, 63, 36
6, 70800, Note_off_c, 4, 63, 64
6, 70880, Note_on_c, 4, 63, 50
6, 70960, Note_off_c, 4, 63, 64
6, 70960, Note_on_c, 4, 63, 43
6, 71040, Note_off_c, 4, 63, 64
6, 71120, Note_on_c, 4, 63, 54
6, 71200, Note_off_c, 4, 63, 64
6, 71200, Note_on_c, 4, 63, 67
6, 71280, Note_off_c, 4, 63, 64
6, 71360, Note_on_c, 4, 63, 60
6, 71440, Note_off_c, 4, 63, 64
6, 71440, Note_on_c, 4, 63, 60
6, 71520, Note_off_c, 4, 63, 64
6, 71600, Note_on_c, 4, 63, 52
6, 71680, Note_off_c, 4, 63, 64
6, 71680, Note_on_c, 4, 63, 44
6, 71760, Note_off_c, 4, 63, 64
6, 71840, Note_on_c, 4, 63, 45
6, 71920, Note_off_c, 4, 63, 64
6, 71920, Note_on_c, 4, 63, 57
6, 72000, Note_off_c, 4, 63, 64
6, 72000, Note_on_c, 4, 63, 59
6, 72120, Note_off_c, 4, 63, 64
6, 72240, Program_c, 4, 45
6, 72480, Note_on_c, 4, 63, 72
6, 72720, Note_off_c, 4, 63, 64
6, 72960, Note_on_c, 4, 63, 74
6, 73200, Note_off_c, 4, 63, 64
6, 73440, Note_on_c, 4, 62, 80
6, 73680, Note_off_c, 4, 62, 64
6, 73920, Note_on_c, 4, 63, 81
6, 74160, Note_off_c, 4, 63, 64
6, 74640, Note_on_c, 4, 62, 78
6, 74880, Note_off_c, 4, 62, 64
6, 74880, Note_on_c, 4, 63, 89
6, 75120, Note_off_c, 4, 63, 64
6, 75120, Note_on_c, 4, 62, 89
6, 75360, Note_off_c, 4, 62, 64
6, 75360, Note_on_c, 4, 63, 86
6, 75600, Note_off_c, 4, 63, 64
6, 75600, Note_on_c, 4, 62, 86
6, 75840, Note_off_c, 4, 62, 64
6, 75840, Note_on_c, 4, 63, 89
6, 75960, Note_off_c, 4, 63, 64
6, 76320, Program_c, 4, 48
6, 76800, Note_on_c, 4, 63, 68
6, 77760, Note_off_c, 4, 63, 64
6, 77760, Note_on_c, 4, 65, 68
6, 78480, Note_off_c, 4, 65, 64
6, 78480, Note_on_c, 4, 65, 76
6, 78720, Note_off_c, 4, 65, 64
6, 78720, Note_on_c, 4, 63, 70
6, 79200, Note_off_c, 4, 63, 64
6, 79200, Note_on_c, 4, 63, 68
6, 79680, Note_off_c, 4, 63, 64
6, 79680, Note_on_c, 4, 63, 59
6, 79920, Note_off_c, 4, 63, 64
6, 80160, Note_on_c, 4, 66, 33
6, 80400, Note_off_c, 4, 66, 64
6, 80400, Note_on_c, 4, 66, 40
6, 80640, Note_off_c, 4, 66, 64
6, 80640, Note_on_c, 4, 65, 54
6, 80880, Note_off_c, 4, 65, 64
6, 81120, Note_on_c, 4, 64, 45
6, 81360, Note_off_c, 4, 64, 64
6, 81360, Note_on_c, 4, 64, 57
6, 81600, Note_off_c, 4, 64, 64
6, 81600, Note_on_c, 4, 63, 43
6, 81840, Note_off_c, 4, 63, 64
6, 82080, Note_on_c, 4, 56, 99
6, 82120, Note_off_c, 4, 56, 64
6, 82160, Note_on_c, 4, 68, 99
6, 82200, Note_off_c, 4, 68, 64
6, 82240, Note_on_c, 4, 68, 99
6, 82280, Note_off_c, 4, 68, 64
6, 82320, Note_on_c, 4, 68, 99
6, 82400, Note_off_c, 4, 68, 64
6, 82400, Note_on_c, 4, 70, 99
6, 82480, Note_off_c, 4, 70, 64
6, 82480, Note_on_c, 4, 72, 95
6, 82560, Note_off_c, 4, 72, 64
6, 82560, Note_on_c, 4, 73, 61
6, 82800, Note_off_c, 4, 73, 64
6, 83040, Note_on_c, 4, 60, 94
6, 83080, Note_off_c, 4, 60, 64
6, 83120, Note_on_c, 4, 68, 95
6, 83160, Note_off_c, 4, 68, 64
6, 83200, Note_on_c, 4, 68, 99
6, 83240, Note_off_c, 4, 68, 64
6, 83280, Note_on_c, 4, 68, 99
6, 83360, Note_off_c, 4, 68, 64
6, 83360, Note_on_c, 4, 70, 101
6, 83440, Note_off_c, 4, 70, 64
6, 83440, Note_on_c, 4, 72, 94
6, 83520, Note_off_c, 4, 72, 64
6, 83520, Note_on_c, 4, 73, 44
6, 83760, Note_off_c, 4, 73, 64
6, 84000, Note_on_c, 4, 60, 101
6, 84040, Note_off_c, 4, 60, 64
6, 84080, Note_on_c, 4, 75, 101
6, 84120, Note_off_c, 4, 75, 64
6, 84160, Note_on_c, 4, 75, 104
6, 84200, Note_off_c, 4, 75, 64
6, 84240, Note_on_c, 4, 75, 101
6, 84280, Note_off_c, 4, 75, 64
6, 84320, Note_on_c, 4, 75, 99
6, 84360, Note_off_c, 4, 75, 64
6, 84400, Note_on_c, 4, 75, 105
6, 84440, Note_off_c, 4, 75, 64
6, 84480, Note_on_c, 4, 76, 95
6, 84480, Note_on_c, 4, 72, 84
6, 84480, Note_on_c, 4, 64, 105
6, 84720, Note_off_c, 4, 64, 64
6, 84720, Note_off_c, 4, 72, 64
6, 84720, Note_off_c, 4, 76, 64
6, 84960, Note_on_c, 4, 77, 90
6, 84960, Note_on_c, 4, 72, 82
6, 84960, Note_on_c, 4, 65, 105
6, 85200, Note_off_c, 4, 65, 64
6, 85200, Note_off_c, 4, 72, 64
6, 85200, Note_off_c, 4, 77, 64
6, 85440, Note_on_c, 4, 80, 127
6, 85680, Note_off_c, 4, 80, 64
6, 85680, Note_on_c, 4, 80, 98
6, 85760, Note_off_c, 4, 80, 64
6, 85760, Note_on_c, 4, 79, 105
6, 85840, Note_off_c, 4, 79, 64
6, 85840, Note_on_c, 4, 77, 105
6, 85920, Note_off_c, 4, 77, 64
6, 85920, Note_on_c, 4, 75, 117
6, 86000, Note_off_c, 4, 75, 64
6, 86000, Note_on_c, 4, 74, 119
6, 86080, Note_off_c, 4, 74, 64
6, 86080, Note_on_c, 4, 77, 117
6, 86160, Note_off_c, 4, 77, 64
6, 86160, Note_on_c, 4, 75, 119
6, 86240, Note_off_c, 4, 75, 64
6, 86240, Note_on_c, 4, 73, 119
6, 86320, Note_off_c, 4, 73, 64
6, 86320, Note_on_c, 4, 70, 125
6, 86400, Note_off_c, 4, 70, 64
6, 86400, Note_on_c, 4, 68, 125
6, 86640, Note_off_c, 4, 68, 64
6, 93680, Note_on_c, 4, 68, 53
6, 93760, Note_off_c, 4, 68, 64
6, 93760, Note_on_c, 4, 68, 45
6, 93840, Note_off_c, 4, 68, 64
6, 93840, Note_on_c, 4, 68, 40
6, 93920, Note_off_c, 4, 68, 64
6, 93920, Note_on_c, 4, 68, 43
6, 94000, Note_off_c, 4, 68, 64
6, 94000, Note_on_c, 4, 68, 45
6, 94080, Note_off_c, 4, 68, 64
6, 94080, Note_on_c, 4, 68, 48
6, 94320, Note_off_c, 4, 68, 64
6, 94560, Note_on_c, 4, 63, 45
6, 94800, Note_off_c, 4, 63, 64
6, 95040, Note_on_c, 4, 63, 44
6, 95280, Note_off_c, 4, 63, 64
6, 95760, Note_on_c, 4, 68, 53
6, 96000, Note_off_c, 4, 68, 64
6, 96000, Note_on_c, 4, 65, 44
6, 96240, Note_off_c, 4, 65, 64
6, 96720, Note_on_c, 4, 65, 48
6, 96960, Note_off_c, 4, 65, 64
6, 96960, Note_on_c, 4, 63, 64
6, 97200, Note_off_c, 4, 63, 64
6, 97680, Note_on_c, 4, 63, 43
6, 97920, Note_off_c, 4, 63, 64
6, 97920, Note_on_c, 4, 63, 38
6, 98000, Note_off_c, 4, 63, 64
6, 98000, Note_on_c, 4, 63, 43
6, 98080, Note_off_c, 4, 63, 64
6, 98080, Note_on_c, 4, 63, 43
6, 98160, Note_off_c, 4, 63, 64
6, 98160, Note_on_c, 4, 63, 44
6, 98240, Note_off_c, 4, 63, 64
6, 98240, Note_on_c, 4, 63, 32
6, 98320, Note_off_c, 4, 63, 64
6, 98320, Note_on_c, 4, 63, 40
6, 98400, Note_off_c, 4, 63, 64
6, 98400, Note_on_c, 4, 63, 38
6, 98480, Note_off_c, 4, 63, 64
6, 98480, Note_on_c, 4, 63, 35
6, 98560, Note_off_c, 4, 63, 64
6, 98560, Note_on_c, 4, 63, 40
6, 98640, Note_off_c, 4, 63, 64
6, 98640, Note_on_c, 4, 63, 41
6, 98720, Note_off_c, 4, 63, 64
6, 98720, Note_on_c, 4, 63, 35
6, 98800, Note_off_c, 4, 63, 64
6, 98800, Note_on_c, 4, 63, 35
6, 98880, Note_off_c, 4, 63, 64
6, 98880, Note_on_c, 4, 65, 42
6, 98960, Note_off_c, 4, 65, 64
6, 98960, Note_on_c, 4, 65, 52
6, 99040, Note_off_c, 4, 65, 64
6, 99040, Note_on_c, 4, 65, 43
6, 99120, Note_off_c, 4, 65, 64
6, 99120, Note_on_c, 4, 65, 43
6, 99200, Note_off_c, 4, 65, 64
6, 99200, Note_on_c, 4, 65, 42
6, 99280, Note_off_c, 4, 65, 64
6, 99280, Note_on_c, 4, 65, 43
6, 99360, Note_off_c, 4, 65, 64
6, 99360, Note_on_c, 4, 65, 40
6, 99440, Note_off_c, 4, 65, 64
6, 99440, Note_on_c, 4, 65, 40
6, 99520, Note_off_c, 4, 65, 64
6, 99520, Note_on_c, 4, 65, 43
6, 99600, Note_off_c, 4, 65, 64
6, 99600, Note_on_c, 4, 65, 43
6, 99680, Note_off_c, 4, 65, 64
6, 99680, Note_on_c, 4, 65, 43
6, 99760, Note_off_c, 4, 65, 64
6, 99760, Note_on_c, 4, 65, 46
6, 99840, Note_off_c, 4, 65, 64
6, 99840, Note_on_c, 4, 80, 90
6, 100080, Note_off_c, 4, 80, 64
6, 100080, Note_on_c, 4, 80, 69
6, 100160, Note_off_c, 4, 80, 64
6, 100160, Note_on_c, 4, 75, 95
6, 100240, Note_off_c, 4, 75, 64
6, 100240, Note_on_c, 4, 75, 99
6, 100320, Note_off_c, 4, 75, 64
6, 100320, Note_on_c, 4, 80, 105
6, 100560, Note_off_c, 4, 80, 64
6, 100560, Note_on_c, 4, 80, 89
6, 100640, Note_off_c, 4, 80, 64
6, 100640, Note_on_c, 4, 74, 99
6, 100720, Note_off_c, 4, 74, 64
6, 100720, Note_on_c, 4, 74, 104
6, 100800, Note_off_c, 4, 74, 64
6, 100800, Note_on_c, 4, 75, 80
6, 100800, Note_on_c, 4, 63, 84
6, 101040, Note_off_c, 4, 63, 64
6, 101040, Note_off_c, 4, 75, 64
6, 102720, Note_on_c, 4, 64, 78
6, 103680, Note_off_c, 4, 64, 64
6, 103680, Note_on_c, 4, 65, 43
6, 103800, Note_off_c, 4, 65, 64
6, 104640, Note_on_c, 4, 63, 43
6, 105120, Note_off_c, 4, 63, 64
6, 105120, Note_on_c, 4, 66, 45
6, 105600, Note_off_c, 4, 66, 64
6, 105600, Note_on_c, 4, 65, 61
6, 106080, Note_off_c, 4, 65, 64
6, 106080, Note_on_c, 4, 67, 60
6, 106560, Note_off_c, 4, 67, 64
6, 106560, Note_on_c, 4, 68, 43
6, 107040, Note_off_c, 4, 68, 64
6, 107040, Note_on_c, 4, 66, 43
6, 107520, Note_off_c, 4, 66, 64
6, 107520, Note_on_c, 4, 65, 44
6, 108000, Note_off_c, 4, 65, 64
6, 108000, Note_on_c, 4, 67, 40
6, 108480, Note_off_c, 4, 67, 64
6, 108480, Note_on_c, 4, 68, 40
6, 108600, Note_off_c, 4, 68, 64
6, 109920, Note_on_c, 4, 67, 39
6, 110400, Note_off_c, 4, 67, 64
6, 110400, Note_on_c, 4, 68, 38
6, 110520, Note_off_c, 4, 68, 64
6, 110640, Program_c, 4, 45
6, 110880, Note_on_c, 4, 75, 48
6, 111120, Note_off_c, 4, 75, 64
6, 111120, Note_on_c, 4, 75, 35
6, 111360, Note_off_c, 4, 75, 64
6, 111360, Note_on_c, 4, 75, 44
6, 111600, Note_off_c, 4, 75, 64
6, 111840, Note_on_c, 4, 72, 29
6, 112080, Note_off_c, 4, 72, 64
6, 112080, Note_on_c, 4, 72, 32
6, 112320, Note_off_c, 4, 72, 64
6, 112320, Note_on_c, 4, 72, 32
6, 112560, Note_off_c, 4, 72, 64
6, 112560, End_track
7, 0, Start_track
7, 0, Title_t, "2nd Violins"
7, 0, Program_c, 5, 48
7, 0, Control_c, 5, 7, 100
7, 0, Control_c, 5, 10, 16
7, 0, Control_c, 5, 93, 0
7, 0, Control_c, 5, 91, 66
7, 0, Note_on_c, 5, 56, 29
7, 480, Note_off_c, 5, 56, 64
7, 480, Note_on_c, 5, 56, 29
7, 720, Note_off_c, 5, 56, 64
7, 720, Note_on_c, 5, 56, 29
7, 960, Note_off_c, 5, 56, 64
7, 960, Note_on_c, 5, 55, 34
7, 1440, Note_off_c, 5, 55, 64
7, 3840, Note_on_c, 5, 56, 45
7, 4320, Note_off_c, 5, 56, 64
7, 4320, Note_on_c, 5, 56, 29
7, 4440, Note_off_c, 5, 56, 64
7, 4440, Note_on_c, 5, 63, 29
7, 4560, Note_off_c, 5, 63, 64
7, 4560, Note_on_c, 5, 61, 38
7, 4680, Note_off_c, 5, 61, 64
7, 4680, Note_on_c, 5, 60, 45
7, 4800, Note_off_c, 5, 60, 64
7, 4800, Note_on_c, 5, 56, 44
7, 5280, Note_off_c, 5, 56, 64
7, 7200, Note_on_c, 5, 63, 39
7, 7440, Note_off_c, 5, 63, 64
7, 7440, Note_on_c, 5, 63, 29
7, 7680, Note_off_c, 5, 63, 64
7, 7680, Note_on_c, 5, 63, 29
7, 8040, Note_off_c, 5, 63, 64
7, 8040, Note_on_c, 5, 68, 52
7, 8160, Note_off_c, 5, 68, 64
7, 8160, Note_on_c, 5, 68, 42
7, 8280, Note_off_c, 5, 68, 64
7, 8280, Note_on_c, 5, 67, 39
7, 8400, Note_off_c, 5, 67, 64
7, 8400, Note_on_c, 5, 65, 38
7, 8520, Note_off_c, 5, 65, 64
7, 8520, Note_on_c, 5, 67, 33
7, 8640, Note_off_c, 5, 67, 64
7, 8640, Note_on_c, 5, 68, 58
7, 8820, Note_off_c, 5, 68, 64
7, 8820, Note_on_c, 5, 70, 46
7, 8880, Note_off_c, 5, 70, 64
7, 8880, Note_on_c, 5, 72, 43
7, 8940, Note_off_c, 5, 72, 64
7, 8940, Note_on_c, 5, 67, 29
7, 9000, Note_off_c, 5, 67, 64
7, 9000, Note_on_c, 5, 68, 62
7, 9060, Note_off_c, 5, 68, 64
7, 9060, Note_on_c, 5, 65, 45
7, 9120, Note_off_c, 5, 65, 64
7, 9120, Note_on_c, 5, 63, 68
7, 9360, Note_off_c, 5, 63, 64
7, 9360, Note_on_c, 5, 63, 77
7, 9600, Note_off_c, 5, 63, 64
7, 9600, Note_on_c, 5, 63, 80
7, 9960, Note_off_c, 5, 63, 64
7, 9960, Note_on_c, 5, 63, 93
7, 9960, Note_on_c, 5, 60, 89
7, 10080, Note_off_c, 5, 60, 64
7, 10080, Note_off_c, 5, 63, 64
7, 10080, Note_on_c, 5, 62, 101
7, 10260, Note_off_c, 5, 62, 64
7, 10290, Note_on_c, 5, 68, 90
7, 10290, Note_on_c, 5, 58, 99
7, 10320, Note_off_c, 5, 58, 64
7, 10320, Note_off_c, 5, 68, 64
7, 10320, Note_on_c, 5, 68, 94
7, 10320, Note_on_c, 5, 58, 99
7, 10500, Note_off_c, 5, 58, 64
7, 10500, Note_off_c, 5, 68, 64
7, 10530, Note_on_c, 5, 68, 94
7, 10530, Note_on_c, 5, 58, 101
7, 10560, Note_off_c, 5, 58, 64
7, 10560, Note_off_c, 5, 68, 64
7, 10560, Note_on_c, 5, 67, 101
7, 10560, Note_on_c, 5, 58, 98
7, 10800, Note_off_c, 5, 58, 64
7, 10800, Note_off_c, 5, 67, 64
7, 11730, Note_on_c, 5, 63, 77
7, 11730, Note_on_c, 5, 55, 99
7, 11760, Note_off_c, 5, 55, 64
7, 11760, Note_off_c, 5, 63, 64
7, 11760, Note_on_c, 5, 62, 86
7, 11760, Note_on_c, 5, 56, 89
7, 11940, Note_off_c, 5, 56, 64
7, 11940, Note_off_c, 5, 62, 64
7, 11970, Note_on_c, 5, 62, 89
7, 11970, Note_on_c, 5, 56, 93
7, 12000, Note_off_c, 5, 56, 64
7, 12000, Note_off_c, 5, 62, 64
7, 12000, Note_on_c, 5, 63, 76
7, 12000, Note_on_c, 5, 55, 98
7, 12120, Note_off_c, 5, 55, 64
7, 12120, Note_off_c, 5, 63, 64
7, 13440, Note_on_c, 5, 60, 39
7, 13500, Note_off_c, 5, 60, 64
7, 13500, Note_on_c, 5, 63, 43
7, 13560, Note_off_c, 5, 63, 64
7, 13560, Note_on_c, 5, 68, 46
7, 13620, Note_off_c, 5, 68, 64
7, 13620, Note_on_c, 5, 63, 43
7, 13680, Note_off_c, 5, 63, 64
7, 13680, Note_on_c, 5, 60, 41
7, 13740, Note_off_c, 5, 60, 64
7, 13740, Note_on_c, 5, 63, 41
7, 13800, Note_off_c, 5, 63, 64
7, 13800, Note_on_c, 5, 68, 44
7, 13860, Note_off_c, 5, 68, 64
7, 13860, Note_on_c, 5, 63, 43
7, 13920, Note_off_c, 5, 63, 64
7, 13920, Note_on_c, 5, 60, 40
7, 13980, Note_off_c, 5, 60, 64
7, 13980, Note_on_c, 5, 63, 48
7, 14040, Note_off_c, 5, 63, 64
7, 14040, Note_on_c, 5, 68, 45
7, 14100, Note_off_c, 5, 68, 64
7, 14100, Note_on_c, 5, 63, 42
7, 14160, Note_off_c, 5, 63, 64
7, 14160, Note_on_c, 5, 60, 40
7, 14220, Note_off_c, 5, 60, 64
7, 14220, Note_on_c, 5, 63, 43
7, 14280, Note_off_c, 5, 63, 64
7, 14280, Note_on_c, 5, 56, 66
7, 14340, Note_off_c, 5, 56, 64
7, 14340, Note_on_c, 5, 63, 40
7, 14400, Note_off_c, 5, 63, 64
7, 14400, Note_on_c, 5, 55, 43
7, 14460, Note_off_c, 5, 55, 64
7, 14460, Note_on_c, 5, 61, 46
7, 14520, Note_off_c, 5, 61, 64
7, 14520, Note_on_c, 5, 63, 69
7, 14580, Note_off_c, 5, 63, 64
7, 14580, Note_on_c, 5, 61, 64
7, 14640, Note_off_c, 5, 61, 64
7, 14640, Note_on_c, 5, 55, 65
7, 14700, Note_off_c, 5, 55, 64
7, 14700, Note_on_c, 5, 61, 76
7, 14760, Note_off_c, 5, 61, 64
7, 14760, Note_on_c, 5, 63, 81
7, 14820, Note_off_c, 5, 63, 64
7, 14820, Note_on_c, 5, 61, 76
7, 14880, Note_off_c, 5, 61, 64
7, 14880, Note_on_c, 5, 55, 72
7, 14940, Note_off_c, 5, 55, 64
7, 14940, Note_on_c, 5, 63, 81
7, 15000, Note_off_c, 5, 63, 64
7, 15000, Note_on_c, 5, 55, 66
7, 15060, Note_off_c, 5, 55, 64
7, 15060, Note_on_c, 5, 63, 94
7, 15120, Note_off_c, 5, 63, 64
7, 15120, Note_on_c, 5, 57, 107
7, 15180, Note_off_c, 5, 57, 64
7, 15180, Note_on_c, 5, 66, 95
7, 15240, Note_off_c, 5, 66, 64
7, 15240, Note_on_c, 5, 57, 99
7, 15300, Note_off_c, 5, 57, 64
7, 15300, Note_on_c, 5, 66, 90
7, 15360, Note_off_c, 5, 66, 64
7, 15360, Note_on_c, 5, 58, 42
7, 15420, Note_off_c, 5, 58, 64
7, 15420, Note_on_c, 5, 65, 36
7, 15480, Note_off_c, 5, 65, 64
7, 15480, Note_on_c, 5, 61, 42
7, 15540, Note_off_c, 5, 61, 64
7, 15540, Note_on_c, 5, 65, 34
7, 15600, Note_off_c, 5, 65, 64
7, 15600, Note_on_c, 5, 58, 45
7, 15660, Note_off_c, 5, 58, 64
7, 15660, Note_on_c, 5, 65, 35
7, 15720, Note_off_c, 5, 65, 64
7, 15720, Note_on_c, 5, 61, 45
7, 15780, Note_off_c, 5, 61, 64
7, 15780, Note_on_c, 5, 65, 54
7, 15840, Note_off_c, 5, 65, 64
7, 15840, Note_on_c, 5, 60, 35
7, 15900, Note_off_c, 5, 60, 64
7, 15900, Note_on_c, 5, 63, 40
7, 15960, Note_off_c, 5, 63, 64
7, 15960, Note_on_c, 5, 60, 43
7, 16020, Note_off_c, 5, 60, 64
7, 16020, Note_on_c, 5, 63, 40
7, 16080, Note_off_c, 5, 63, 64
7, 16080, Note_on_c, 5, 61, 45
7, 16140, Note_off_c, 5, 61, 64
7, 16140, Note_on_c, 5, 63, 40
7, 16200, Note_off_c, 5, 63, 64
7, 16200, Note_on_c, 5, 61, 38
7, 16260, Note_off_c, 5, 61, 64
7, 16260, Note_on_c, 5, 63, 42
7, 16320, Note_off_c, 5, 63, 64
7, 16320, Note_on_c, 5, 61, 44
7, 16380, Note_off_c, 5, 61, 64
7, 16380, Note_on_c, 5, 63, 40
7, 16440, Note_off_c, 5, 63, 64
7, 16440, Note_on_c, 5, 67, 40
7, 16500, Note_off_c, 5, 67, 64
7, 16500, Note_on_c, 5, 63, 29
7, 16560, Note_off_c, 5, 63, 64
7, 16560, Note_on_c, 5, 61, 41
7, 16620, Note_off_c, 5, 61, 64
7, 16620, Note_on_c, 5, 67, 43
7, 16680, Note_off_c, 5, 67, 64
7, 16680, Note_on_c, 5, 63, 29
7, 16740, Note_off_c, 5, 63, 64
7, 16740, Note_on_c, 5, 61, 43
7, 16800, Note_off_c, 5, 61, 64
7, 16800, Note_on_c, 5, 60, 43
7, 16920, Note_off_c, 5, 60, 64
7, 22560, Note_on_c, 5, 63, 54
7, 22800, Note_off_c, 5, 63, 64
7, 22800, Note_on_c, 5, 63, 39
7, 22860, Note_off_c, 5, 63, 64
7, 22860, Note_on_c, 5, 57, 65
7, 22920, Note_off_c, 5, 57, 64
7, 22920, Note_on_c, 5, 60, 53
7, 22980, Note_off_c, 5, 60, 64
7, 22980, Note_on_c, 5, 63, 65
7, 23040, Note_off_c, 5, 63, 64
7, 23040, Note_on_c, 5, 62, 57
7, 23160, Note_off_c, 5, 62, 64
7, 23640, Note_on_c, 5, 62, 50
7, 23760, Note_off_c, 5, 62, 64
7, 23760, Note_on_c, 5, 63, 89
7, 23880, Note_off_c, 5, 63, 64
7, 23880, Note_on_c, 5, 66, 53
7, 24000, Note_off_c, 5, 66, 64
7, 24000, Note_on_c, 5, 65, 71
7, 24120, Note_off_c, 5, 65, 64
7, 24120, Note_on_c, 5, 70, 78
7, 24240, Note_off_c, 5, 70, 64
7, 24240, Note_on_c, 5, 70, 69
7, 24300, Note_off_c, 5, 70, 64
7, 24360, Note_on_c, 5, 70, 74
7, 24420, Note_off_c, 5, 70, 64
7, 24480, Note_on_c, 5, 70, 78
7, 24600, Note_off_c, 5, 70, 64
7, 24600, Note_on_c, 5, 65, 65
7, 24720, Note_off_c, 5, 65, 64
7, 24720, Note_on_c, 5, 66, 68
7, 24840, Note_off_c, 5, 66, 64
7, 24840, Note_on_c, 5, 63, 64
7, 24960, Note_off_c, 5, 63, 64
7, 24960, Note_on_c, 5, 62, 117
7, 25080, Note_off_c, 5, 62, 64
7, 25080, Note_on_c, 5, 70, 125
7, 25140, Note_off_c, 5, 70, 64
7, 25200, Note_on_c, 5, 70, 117
7, 25260, Note_off_c, 5, 70, 64
7, 25320, Note_on_c, 5, 70, 119
7, 25380, Note_off_c, 5, 70, 64
7, 25440, Note_on_c, 5, 70, 127
7, 25800, Note_off_c, 5, 70, 64
7, 25800, Note_on_c, 5, 69, 125
7, 25920, Note_off_c, 5, 69, 64
7, 25920, Note_on_c, 5, 70, 127
7, 26280, Note_off_c, 5, 70, 64
7, 26280, Note_on_c, 5, 69, 127
7, 26400, Note_off_c, 5, 69, 64
7, 26400, Note_on_c, 5, 70, 119
7, 26760, Note_off_c, 5, 70, 64
7, 26760, Note_on_c, 5, 69, 127
7, 26880, Note_off_c, 5, 69, 64
7, 26880, Note_on_c, 5, 70, 119
7, 27000, Note_off_c, 5, 70, 64
7, 27120, Note_on_c, 5, 58, 43
7, 27240, Note_off_c, 5, 58, 64
7, 29760, Note_on_c, 5, 58, 46
7, 30000, Note_off_c, 5, 58, 64
7, 30720, Note_on_c, 5, 58, 40
7, 30960, Note_off_c, 5, 58, 64
7, 31680, Note_on_c, 5, 58, 39
7, 31920, Note_off_c, 5, 58, 64
7, 32160, Note_on_c, 5, 58, 29
7, 32400, Note_off_c, 5, 58, 64
7, 32640, Note_on_c, 5, 63, 38
7, 32880, Note_off_c, 5, 63, 64
7, 33120, Note_on_c, 5, 63, 29
7, 33360, Note_off_c, 5, 63, 64
7, 33600, Note_on_c, 5, 63, 35
7, 33840, Note_off_c, 5, 63, 64
7, 34080, Note_on_c, 5, 62, 38
7, 34320, Note_off_c, 5, 62, 64
7, 34680, Note_on_c, 5, 55, 43
7, 34740, Note_off_c, 5, 55, 64
7, 34800, Note_on_c, 5, 67, 86
7, 35160, Note_off_c, 5, 67, 64
7, 35160, Note_on_c, 5, 68, 90
7, 35220, Note_off_c, 5, 68, 64
7, 35220, Note_on_c, 5, 67, 86
7, 35280, Note_off_c, 5, 67, 64
7, 35280, Note_on_c, 5, 70, 99
7, 35340, Note_off_c, 5, 70, 64
7, 35340, Note_on_c, 5, 68, 104
7, 35400, Note_off_c, 5, 68, 64
7, 35400, Note_on_c, 5, 65, 115
7, 35460, Note_off_c, 5, 65, 64
7, 35460, Note_on_c, 5, 62, 119
7, 35520, Note_off_c, 5, 62, 64
7, 35520, Note_on_c, 5, 63, 46
7, 35760, Note_off_c, 5, 63, 64
7, 38880, Note_on_c, 5, 62, 90
7, 39060, Note_off_c, 5, 62, 64
7, 39090, Note_on_c, 5, 62, 94
7, 39120, Note_off_c, 5, 62, 64
7, 39120, Note_on_c, 5, 62, 94
7, 39300, Note_off_c, 5, 62, 64
7, 39330, Note_on_c, 5, 62, 93
7, 39360, Note_off_c, 5, 62, 64
7, 39360, Note_on_c, 5, 63, 99
7, 39480, Note_off_c, 5, 63, 64
7, 39840, Note_on_c, 5, 62, 82
7, 39840, Note_on_c, 5, 56, 86
7, 40020, Note_off_c, 5, 56, 64
7, 40020, Note_off_c, 5, 62, 64
7, 40050, Note_on_c, 5, 62, 77
7, 40050, Note_on_c, 5, 56, 89
7, 40080, Note_off_c, 5, 56, 64
7, 40080, Note_off_c, 5, 62, 64
7, 40080, Note_on_c, 5, 62, 84
7, 40080, Note_on_c, 5, 56, 85
7, 40260, Note_off_c, 5, 56, 64
7, 40260, Note_off_c, 5, 62, 64
7, 40290, Note_on_c, 5, 56, 85
7, 40290, Note_on_c, 5, 62, 81
7, 40320, Note_off_c, 5, 62, 64
7, 40320, Note_off_c, 5, 56, 64
7, 40320, Note_on_c, 5, 63, 74
7, 40320, Note_on_c, 5, 55, 99
7, 40440, Note_off_c, 5, 55, 64
7, 40440, Note_off_c, 5, 63, 64
7, 40800, Note_on_c, 5, 58, 44
7, 40920, Note_off_c, 5, 58, 64
7, 40920, Note_on_c, 5, 58, 50
7, 41040, Note_off_c, 5, 58, 64
7, 41040, Note_on_c, 5, 58, 40
7, 41160, Note_off_c, 5, 58, 64
7, 41160, Note_on_c, 5, 58, 49
7, 41280, Note_off_c, 5, 58, 64
7, 41280, Note_on_c, 5, 59, 35
7, 41400, Note_off_c, 5, 59, 64
7, 41400, Note_on_c, 5, 59, 44
7, 41520, Note_off_c, 5, 59, 64
7, 41520, Note_on_c, 5, 59, 44
7, 41640, Note_off_c, 5, 59, 64
7, 41640, Note_on_c, 5, 59, 40
7, 41760, Note_off_c, 5, 59, 64
7, 41760, Note_on_c, 5, 61, 43
7, 41880, Note_off_c, 5, 61, 64
7, 41880, Note_on_c, 5, 61, 40
7, 42000, Note_off_c, 5, 61, 64
7, 42000, Note_on_c, 5, 59, 55
7, 42120, Note_off_c, 5, 59, 64
7, 42120, Note_on_c, 5, 59, 52
7, 42240, Note_off_c, 5, 59, 64
7, 42240, Note_on_c, 5, 58, 43
7, 42360, Note_off_c, 5, 58, 64
7, 42360, Note_on_c, 5, 58, 73
7, 42480, Note_off_c, 5, 58, 64
7, 42480, Note_on_c, 5, 58, 84
7, 42600, Note_off_c, 5, 58, 64
7, 42600, Note_on_c, 5, 58, 86
7, 42720, Note_off_c, 5, 58, 64
7, 42720, Note_on_c, 5, 58, 86
7, 42840, Note_off_c, 5, 58, 64
7, 42840, Note_on_c, 5, 58, 61
7, 42960, Note_off_c, 5, 58, 64
7, 42960, Note_on_c, 5, 58, 31
7, 43080, Note_off_c, 5, 58, 64
7, 43080, Note_on_c, 5, 58, 29
7, 43200, Note_off_c, 5, 58, 64
7, 43200, Note_on_c, 5, 59, 48
7, 43320, Note_off_c, 5, 59, 64
7, 43320, Note_on_c, 5, 59, 45
7, 43440, Note_off_c, 5, 59, 64
7, 43440, Note_on_c, 5, 59, 37
7, 43560, Note_off_c, 5, 59, 64
7, 43560, Note_on_c, 5, 59, 40
7, 43680, Note_off_c, 5, 59, 64
7, 43680, Note_on_c, 5, 61, 44
7, 43800, Note_off_c, 5, 61, 64
7, 43800, Note_on_c, 5, 61, 38
7, 43920, Note_off_c, 5, 61, 64
7, 43920, Note_on_c, 5, 59, 42
7, 44040, Note_off_c, 5, 59, 64
7, 44040, Note_on_c, 5, 59, 40
7, 44160, Note_off_c, 5, 59, 64
7, 44160, Note_on_c, 5, 58, 43
7, 44280, Note_off_c, 5, 58, 64
7, 44760, Note_on_c, 5, 63, 31
7, 44880, Note_off_c, 5, 63, 64
7, 44880, Note_on_c, 5, 63, 29
7, 45000, Note_off_c, 5, 63, 64
7, 45000, Note_on_c, 5, 63, 38
7, 45120, Note_off_c, 5, 63, 64
7, 45120, Note_on_c, 5, 65, 43
7, 45360, Note_off_c, 5, 65, 64
7, 45720, Note_on_c, 5, 65, 43
7, 45840, Note_off_c, 5, 65, 64
7, 45840, Note_on_c, 5, 65, 41
7, 45960, Note_off_c, 5, 65, 64
7, 45960, Note_on_c, 5, 65, 46
7, 46080, Note_off_c, 5, 65, 64
7, 46080, Note_on_c, 5, 67, 38
7, 46320, Note_off_c, 5, 67, 64
7, 46560, Note_on_c, 5, 68, 43
7, 46800, Note_off_c, 5, 68, 64
7, 47040, Note_on_c, 5, 70, 44
7, 47280, Note_off_c, 5, 70, 64
7, 49920, Note_on_c, 5, 56, 29
7, 50400, Note_off_c, 5, 56, 64
7, 50400, Note_on_c, 5, 56, 29
7, 50580, Note_off_c, 5, 56, 64
7, 50640, Note_on_c, 5, 56, 29
7, 50820, Note_off_c, 5, 56, 64
7, 50880, Note_on_c, 5, 55, 40
7, 51360, Note_off_c, 5, 55, 64
7, 53760, Note_on_c, 5, 56, 29
7, 54240, Note_off_c, 5, 56, 64
7, 54240, Note_on_c, 5, 56, 29
7, 54360, Note_off_c, 5, 56, 64
7, 54360, Note_on_c, 5, 63, 30
7, 54480, Note_off_c, 5, 63, 64
7, 54480, Note_on_c, 5, 61, 40
7, 54600, Note_off_c, 5, 61, 64
7, 54600, Note_on_c, 5, 60, 43
7, 54720, Note_off_c, 5, 60, 64
7, 54720, Note_on_c, 5, 56, 32
7, 55200, Note_off_c, 5, 56, 64
7, 57120, Note_on_c, 5, 63, 39
7, 57300, Note_off_c, 5, 63, 64
7, 57360, Note_on_c, 5, 63, 43
7, 57540, Note_off_c, 5, 63, 64
7, 57600, Note_on_c, 5, 63, 40
7, 57960, Note_off_c, 5, 63, 64
7, 57960, Note_on_c, 5, 68, 29
7, 58080, Note_off_c, 5, 68, 64
7, 58080, Note_on_c, 5, 68, 39
7, 58200, Note_off_c, 5, 68, 64
7, 58200, Note_on_c, 5, 67, 43
7, 58320, Note_off_c, 5, 67, 64
7, 58320, Note_on_c, 5, 65, 43
7, 58440, Note_off_c, 5, 65, 64
7, 58440, Note_on_c, 5, 67, 45
7, 58560, Note_off_c, 5, 67, 64
7, 58560, Note_on_c, 5, 68, 38
7, 58740, Note_off_c, 5, 68, 64
7, 58740, Note_on_c, 5, 70, 43
7, 58800, Note_off_c, 5, 70, 64
7, 58800, Note_on_c, 5, 72, 34
7, 58860, Note_off_c, 5, 72, 64
7, 58860, Note_on_c, 5, 67, 50
7, 58920, Note_off_c, 5, 67, 64
7, 58920, Note_on_c, 5, 68, 43
7, 58980, Note_off_c, 5, 68, 64
7, 58980, Note_on_c, 5, 65, 43
7, 59040, Note_off_c, 5, 65, 64
7, 59040, Note_on_c, 5, 63, 54
7, 59220, Note_off_c, 5, 63, 64
7, 59280, Note_on_c, 5, 63, 90
7, 59460, Note_off_c, 5, 63, 64
7, 59520, Note_on_c, 5, 63, 86
7, 59880, Note_off_c, 5, 63, 64
7, 59880, Note_on_c, 5, 63, 82
7, 59880, Note_on_c, 5, 60, 84
7, 60000, Note_off_c, 5, 60, 64
7, 60000, Note_off_c, 5, 63, 64
7, 60000, Note_on_c, 5, 62, 104
7, 60180, Note_off_c, 5, 62, 64
7, 60210, Note_on_c, 5, 68, 89
7, 60210, Note_on_c, 5, 56, 98
7, 60240, Note_off_c, 5, 56, 64
7, 60240, Note_off_c, 5, 68, 64
7, 60240, Note_on_c, 5, 68, 89
7, 60240, Note_on_c, 5, 56, 95
7, 60420, Note_off_c, 5, 56, 64
7, 60420, Note_off_c, 5, 68, 64
7, 60450, Note_on_c, 5, 68, 89
7, 60450, Note_on_c, 5, 56, 95
7, 60480, Note_off_c, 5, 56, 64
7, 60480, Note_off_c, 5, 68, 64
7, 60480, Note_on_c, 5, 67, 89
7, 60480, Note_on_c, 5, 58, 98
7, 60720, Note_off_c, 5, 58, 64
7, 60720, Note_off_c, 5, 67, 64
7, 61650, Note_on_c, 5, 63, 94
7, 61650, Note_on_c, 5, 55, 105
7, 61680, Note_off_c, 5, 55, 64
7, 61680, Note_off_c, 5, 63, 64
7, 61680, Note_on_c, 5, 62, 104
7, 61680, Note_on_c, 5, 56, 99
7, 61860, Note_off_c, 5, 56, 64
7, 61860, Note_off_c, 5, 62, 64
7, 61890, Note_on_c, 5, 62, 99
7, 61890, Note_on_c, 5, 56, 95
7, 61920, Note_off_c, 5, 56, 64
7, 61920, Note_off_c, 5, 62, 64
7, 61920, Note_on_c, 5, 63, 94
7, 61920, Note_on_c, 5, 55, 107
7, 62040, Note_off_c, 5, 55, 64
7, 62040, Note_off_c, 5, 63, 64
7, 63360, Program_c, 5, 45
7, 63600, Note_on_c, 5, 60, 94
7, 63840, Note_off_c, 5, 60, 64
7, 64560, Note_on_c, 5, 61, 86
7, 64800, Note_off_c, 5, 61, 64
7, 65520, Note_on_c, 5, 63, 93
7, 65760, Note_off_c, 5, 63, 64
7, 66000, Note_on_c, 5, 63, 93
7, 66240, Note_off_c, 5, 63, 64
7, 66480, Note_on_c, 5, 63, 86
7, 66720, Note_off_c, 5, 63, 64
7, 66720, Note_on_c, 5, 63, 89
7, 66960, Note_off_c, 5, 63, 64
7, 67440, Note_on_c, 5, 60, 90
7, 67680, Note_off_c, 5, 60, 64
7, 68400, Note_on_c, 5, 61, 89
7, 68640, Note_off_c, 5, 61, 64
7, 69360, Note_on_c, 5, 68, 95
7, 69600, Note_off_c, 5, 68, 64
7, 69840, Note_on_c, 5, 63, 94
7, 70080, Note_off_c, 5, 63, 64
7, 70080, Note_on_c, 5, 63, 94
7, 70320, Note_off_c, 5, 63, 64
7, 70320, Program_c, 5, 48
7, 70640, Note_on_c, 5, 58, 40
7, 70720, Note_off_c, 5, 58, 64
7, 70720, Note_on_c, 5, 58, 43
7, 70800, Note_off_c, 5, 58, 64
7, 70880, Note_on_c, 5, 58, 40
7, 70960, Note_off_c, 5, 58, 64
7, 70960, Note_on_c, 5, 58, 43
7, 71040, Note_off_c, 5, 58, 64
7, 71120, Note_on_c, 5, 60, 41
7, 71200, Note_off_c, 5, 60, 64
7, 71200, Note_on_c, 5, 60, 64
7, 71280, Note_off_c, 5, 60, 64
7, 71360, Note_on_c, 5, 60, 45
7, 71440, Note_off_c, 5, 60, 64
7, 71440, Note_on_c, 5, 60, 64
7, 71520, Note_off_c, 5, 60, 64
7, 71600, Note_on_c, 5, 61, 61
7, 71680, Note_off_c, 5, 61, 64
7, 71680, Note_on_c, 5, 61, 56
7, 71760, Note_off_c, 5, 61, 64
7, 71840, Note_on_c, 5, 61, 58
7, 71920, Note_off_c, 5, 61, 64
7, 71920, Note_on_c, 5, 61, 43
7, 72000, Note_off_c, 5, 61, 64
7, 72000, Note_on_c, 5, 60, 53
7, 72120, Note_off_c, 5, 60, 64
7, 72240, Program_c, 5, 45
7, 72480, Note_on_c, 5, 58, 67
7, 72720, Note_off_c, 5, 58, 64
7, 72960, Note_on_c, 5, 60, 59
7, 73200, Note_off_c, 5, 60, 64
7, 73440, Note_on_c, 5, 56, 62
7, 73680, Note_off_c, 5, 56, 64
7, 73920, Note_on_c, 5, 55, 61
7, 74160, Note_off_c, 5, 55, 64
7, 74640, Note_on_c, 5, 58, 64
7, 74880, Note_off_c, 5, 58, 64
7, 74880, Note_on_c, 5, 58, 82
7, 75120, Note_off_c, 5, 58, 64
7, 75120, Note_on_c, 5, 58, 93
7, 75360, Note_off_c, 5, 58, 64
7, 75360, Note_on_c, 5, 58, 89
7, 75600, Note_off_c, 5, 58, 64
7, 75600, Note_on_c, 5, 58, 86
7, 75840, Note_off_c, 5, 58, 64
7, 75840, Note_on_c, 5, 58, 95
7, 75960, Note_off_c, 5, 58, 64
7, 76320, Program_c, 5, 48
7, 76800, Note_on_c, 5, 60, 58
7, 77520, Note_off_c, 5, 60, 64
7, 77520, Note_on_c, 5, 56, 60
7, 77760, Note_off_c, 5, 56, 64
7, 77760, Note_on_c, 5, 56, 63
7, 78480, Note_off_c, 5, 56, 64
7, 78480, Note_on_c, 5, 58, 66
7, 78720, Note_off_c, 5, 58, 64
7, 78720, Note_on_c, 5, 60, 54
7, 79200, Note_off_c, 5, 60, 64
7, 79200, Note_on_c, 5, 61, 61
7, 79680, Note_off_c, 5, 61, 64
7, 79680, Note_on_c, 5, 60, 61
7, 79920, Note_off_c, 5, 60, 64
7, 80160, Note_on_c, 5, 63, 29
7, 80400, Note_off_c, 5, 63, 64
7, 80400, Note_on_c, 5, 63, 35
7, 80640, Note_off_c, 5, 63, 64
7, 80640, Note_on_c, 5, 61, 51
7, 80880, Note_off_c, 5, 61, 64
7, 81120, Note_on_c, 5, 58, 29
7, 81360, Note_off_c, 5, 58, 64
7, 81360, Note_on_c, 5, 58, 42
7, 81600, Note_off_c, 5, 58, 64
7, 81600, Note_on_c, 5, 60, 43
7, 81840, Note_off_c, 5, 60, 64
7, 82080, Note_on_c, 5, 56, 99
7, 82120, Note_off_c, 5, 56, 64
7, 82160, Note_on_c, 5, 56, 99
7, 82200, Note_off_c, 5, 56, 64
7, 82240, Note_on_c, 5, 56, 99
7, 82280, Note_off_c, 5, 56, 64
7, 82320, Note_on_c, 5, 56, 99
7, 82400, Note_off_c, 5, 56, 64
7, 82400, Note_on_c, 5, 58, 99
7, 82480, Note_off_c, 5, 58, 64
7, 82480, Note_on_c, 5, 60, 101
7, 82560, Note_off_c, 5, 60, 64
7, 82560, Note_on_c, 5, 61, 57
7, 82800, Note_off_c, 5, 61, 64
7, 83040, Note_on_c, 5, 60, 99
7, 83080, Note_off_c, 5, 60, 64
7, 83120, Note_on_c, 5, 56, 98
7, 83160, Note_off_c, 5, 56, 64
7, 83200, Note_on_c, 5, 56, 95
7, 83240, Note_off_c, 5, 56, 64
7, 83280, Note_on_c, 5, 56, 98
7, 83360, Note_off_c, 5, 56, 64
7, 83360, Note_on_c, 5, 58, 98
7, 83440, Note_off_c, 5, 58, 64
7, 83440, Note_on_c, 5, 60, 99
7, 83520, Note_off_c, 5, 60, 64
7, 83520, Note_on_c, 5, 61, 65
7, 83760, Note_off_c, 5, 61, 64
7, 84000, Note_on_c, 5, 60, 104
7, 84040, Note_off_c, 5, 60, 64
7, 84080, Note_on_c, 5, 63, 95
7, 84120, Note_off_c, 5, 63, 64
7, 84160, Note_on_c, 5, 63, 95
7, 84200, Note_off_c, 5, 63, 64
7, 84240, Note_on_c, 5, 63, 94
7, 84280, Note_off_c, 5, 63, 64
7, 84320, Note_on_c, 5, 63, 94
7, 84360, Note_off_c, 5, 63, 64
7, 84400, Note_on_c, 5, 63, 98
7, 84440, Note_off_c, 5, 63, 64
7, 84480, Note_on_c, 5, 72, 112
7, 84480, Note_on_c, 5, 64, 115
7, 84480, Note_on_c, 5, 55, 115
7, 84720, Note_off_c, 5, 55, 64
7, 84720, Note_off_c, 5, 64, 64
7, 84720, Note_off_c, 5, 72, 64
7, 84960, Note_on_c, 5, 72, 112
7, 84960, Note_on_c, 5, 65, 112
7, 84960, Note_on_c, 5, 56, 119
7, 85200, Note_off_c, 5, 56, 64
7, 85200, Note_off_c, 5, 65, 64
7, 85200, Note_off_c, 5, 72, 64
7, 85440, Note_on_c, 5, 68, 127
7, 85680, Note_off_c, 5, 68, 64
7, 85680, Note_on_c, 5, 68, 105
7, 85760, Note_off_c, 5, 68, 64
7, 85760, Note_on_c, 5, 67, 104
7, 85840, Note_off_c, 5, 67, 64
7, 85840, Note_on_c, 5, 65, 110
7, 85920, Note_off_c, 5, 65, 64
7, 85920, Note_on_c, 5, 63, 101
7, 86000, Note_off_c, 5, 63, 64
7, 86000, Note_on_c, 5, 62, 110
7, 86080, Note_off_c, 5, 62, 64
7, 86080, Note_on_c, 5, 65, 107
7, 86160, Note_off_c, 5, 65, 64
7, 86160, Note_on_c, 5, 63, 105
7, 86240, Note_off_c, 5, 63, 64
7, 86240, Note_on_c, 5, 61, 104
7, 86320, Note_off_c, 5, 61, 64
7, 86320, Note_on_c, 5, 58, 105
7, 86400, Note_off_c, 5, 58, 64
7, 86400, Note_on_c, 5, 56, 110
7, 86640, Note_off_c, 5, 56, 64
7, 93680, Note_on_c, 5, 59, 40
7, 93760, Note_off_c, 5, 59, 64
7, 93760, Note_on_c, 5, 59, 51
7, 93840, Note_off_c, 5, 59, 64
7, 93840, Note_on_c, 5, 59, 62
7, 93920, Note_off_c, 5, 59, 64
7, 93920, Note_on_c, 5, 59, 53
7, 94000, Note_off_c, 5, 59, 64
7, 94000, Note_on_c, 5, 59, 50
7, 94080, Note_off_c, 5, 59, 64
7, 94080, Note_on_c, 5, 60, 43
7, 94320, Note_off_c, 5, 60, 64
7, 94560, Note_on_c, 5, 63, 45
7, 94800, Note_off_c, 5, 63, 64
7, 95040, Note_on_c, 5, 60, 41
7, 95280, Note_off_c, 5, 60, 64
7, 95760, Note_on_c, 5, 63, 43
7, 96000, Note_off_c, 5, 63, 64
7, 96000, Note_on_c, 5, 61, 46
7, 96240, Note_off_c, 5, 61, 64
7, 96720, Note_on_c, 5, 61, 53
7, 96960, Note_off_c, 5, 61, 64
7, 96960, Note_on_c, 5, 60, 52
7, 97200, Note_off_c, 5, 60, 64
7, 97680, Note_on_c, 5, 61, 50
7, 97920, Note_off_c, 5, 61, 64
7, 97920, Note_on_c, 5, 60, 44
7, 98000, Note_off_c, 5, 60, 64
7, 98000, Note_on_c, 5, 60, 40
7, 98080, Note_off_c, 5, 60, 64
7, 98080, Note_on_c, 5, 60, 40
7, 98160, Note_off_c, 5, 60, 64
7, 98160, Note_on_c, 5, 60, 43
7, 98240, Note_off_c, 5, 60, 64
7, 98240, Note_on_c, 5, 60, 43
7, 98320, Note_off_c, 5, 60, 64
7, 98320, Note_on_c, 5, 60, 43
7, 98400, Note_off_c, 5, 60, 64
7, 98400, Note_on_c, 5, 60, 42
7, 98480, Note_off_c, 5, 60, 64
7, 98480, Note_on_c, 5, 60, 38
7, 98560, Note_off_c, 5, 60, 64
7, 98560, Note_on_c, 5, 60, 46
7, 98640, Note_off_c, 5, 60, 64
7, 98640, Note_on_c, 5, 60, 44
7, 98720, Note_off_c, 5, 60, 64
7, 98720, Note_on_c, 5, 60, 50
7, 98800, Note_off_c, 5, 60, 64
7, 98800, Note_on_c, 5, 60, 58
7, 98880, Note_off_c, 5, 60, 64
7, 98880, Note_on_c, 5, 58, 43
7, 98960, Note_off_c, 5, 58, 64
7, 98960, Note_on_c, 5, 58, 38
7, 99040, Note_off_c, 5, 58, 64
7, 99040, Note_on_c, 5, 58, 38
7, 99120, Note_off_c, 5, 58, 64
7, 99120, Note_on_c, 5, 58, 40
7, 99200, Note_off_c, 5, 58, 64
7, 99200, Note_on_c, 5, 58, 40
7, 99280, Note_off_c, 5, 58, 64
7, 99280, Note_on_c, 5, 58, 37
7, 99360, Note_off_c, 5, 58, 64
7, 99360, Note_on_c, 5, 58, 43
7, 99440, Note_off_c, 5, 58, 64
7, 99440, Note_on_c, 5, 58, 38
7, 99520, Note_off_c, 5, 58, 64
7, 99520, Note_on_c, 5, 58, 32
7, 99600, Note_off_c, 5, 58, 64
7, 99600, Note_on_c, 5, 58, 32
7, 99680, Note_off_c, 5, 58, 64
7, 99680, Note_on_c, 5, 58, 33
7, 99760, Note_off_c, 5, 58, 64
7, 99760, Note_on_c, 5, 58, 40
7, 99840, Note_off_c, 5, 58, 64
7, 99840, Note_on_c, 5, 68, 94
7, 100080, Note_off_c, 5, 68, 64
7, 100080, Note_on_c, 5, 68, 84
7, 100160, Note_off_c, 5, 68, 64
7, 100160, Note_on_c, 5, 63, 98
7, 100240, Note_off_c, 5, 63, 64
7, 100240, Note_on_c, 5, 63, 95
7, 100320, Note_off_c, 5, 63, 64
7, 100320, Note_on_c, 5, 68, 105
7, 100560, Note_off_c, 5, 68, 64
7, 100560, Note_on_c, 5, 68, 93
7, 100640, Note_off_c, 5, 68, 64
7, 100640, Note_on_c, 5, 62, 104
7, 100720, Note_off_c, 5, 62, 64
7, 100720, Note_on_c, 5, 62, 98
7, 100800, Note_off_c, 5, 62, 64
7, 100800, Note_on_c, 5, 60, 99
7, 101040, Note_off_c, 5, 60, 64
7, 102720, Note_on_c, 5, 55, 72
7, 103200, Note_off_c, 5, 55, 64
7, 103200, Note_on_c, 5, 56, 82
7, 103440, Note_off_c, 5, 56, 64
7, 103440, Note_on_c, 5, 58, 89
7, 103680, Note_off_c, 5, 58, 64
7, 103680, Note_on_c, 5, 56, 55
7, 103800, Note_off_c, 5, 56, 64
7, 104640, Note_on_c, 5, 60, 40
7, 105120, Note_off_c, 5, 60, 64
7, 105120, Note_on_c, 5, 63, 43
7, 105600, Note_off_c, 5, 63, 64
7, 105600, Note_on_c, 5, 61, 43
7, 106080, Note_off_c, 5, 61, 64
7, 106080, Note_on_c, 5, 58, 40
7, 106560, Note_off_c, 5, 58, 64
7, 106560, Note_on_c, 5, 60, 43
7, 107040, Note_off_c, 5, 60, 64
7, 107040, Note_on_c, 5, 63, 52
7, 107520, Note_off_c, 5, 63, 64
7, 107520, Note_on_c, 5, 61, 44
7, 108000, Note_off_c, 5, 61, 64
7, 108000, Note_on_c, 5, 58, 32
7, 108480, Note_off_c, 5, 58, 64
7, 108480, Note_on_c, 5, 60, 57
7, 108600, Note_off_c, 5, 60, 64
7, 109920, Note_on_c, 5, 61, 32
7, 110400, Note_off_c, 5, 61, 64
7, 110400, Note_on_c, 5, 60, 36
7, 110520, Note_off_c, 5, 60, 64
7, 110640, Program_c, 5, 45
7, 110880, Note_on_c, 5, 72, 46
7, 111120, Note_off_c, 5, 72, 64
7, 111120, Note_on_c, 5, 72, 40
7, 111360, Note_off_c, 5, 72, 64
7, 111360, Note_on_c, 5, 72, 29
7, 111600, Note_off_c, 5, 72, 64
7, 111840, Note_on_c, 5, 63, 45
7, 112080, Note_off_c, 5, 63, 64
7, 112080, Note_on_c, 5, 63, 48
7, 112320, Note_off_c, 5, 63, 64
7, 112320, Note_on_c, 5, 63, 41
7, 112560, Note_off_c, 5, 63, 64
7, 112560, End_track
8, 0, Start_track
8, 0, Title_t, "Violas"
8, 0, Program_c, 6, 48
8, 0, Control_c, 6, 7, 100
8, 0, Control_c, 6, 10, 64
8, 0, Control_c, 6, 93, 0
8, 0, Control_c, 6, 91, 66
8, 0, Note_on_c, 6, 51, 43
8, 480, Note_off_c, 6, 51, 64
8, 480, Note_on_c, 6, 51, 29
8, 720, Note_off_c, 6, 51, 64
8, 720, Note_on_c, 6, 51, 29
8, 960, Note_off_c, 6, 51, 64
8, 960, Note_on_c, 6, 51, 29
8, 1440, Note_off_c, 6, 51, 64
8, 3840, Note_on_c, 6, 51, 41
8, 4320, Note_off_c, 6, 51, 64
8, 4320, Note_on_c, 6, 51, 29
8, 4440, Note_off_c, 6, 51, 64
8, 4440, Note_on_c, 6, 51, 33
8, 4560, Note_off_c, 6, 51, 64
8, 4560, Note_on_c, 6, 55, 40
8, 4680, Note_off_c, 6, 55, 64
8, 4680, Note_on_c, 6, 56, 43
8, 4800, Note_off_c, 6, 56, 64
8, 4800, Note_on_c, 6, 56, 29
8, 5280, Note_off_c, 6, 56, 64
8, 7200, Note_on_c, 6, 55, 45
8, 7260, Note_off_c, 6, 55, 64
8, 7320, Note_on_c, 6, 51, 57
8, 7380, Note_off_c, 6, 51, 64
8, 7440, Note_on_c, 6, 55, 43
8, 7500, Note_off_c, 6, 55, 64
8, 7560, Note_on_c, 6, 51, 46
8, 7620, Note_off_c, 6, 51, 64
8, 7680, Note_on_c, 6, 56, 39
8, 7740, Note_off_c, 6, 56, 64
8, 7800, Note_on_c, 6, 51, 48
8, 7860, Note_off_c, 6, 51, 64
8, 7920, Note_on_c, 6, 56, 42
8, 7980, Note_off_c, 6, 56, 64
8, 8040, Note_on_c, 6, 51, 58
8, 8100, Note_off_c, 6, 51, 64
8, 8160, Note_on_c, 6, 58, 43
8, 8220, Note_off_c, 6, 58, 64
8, 8280, Note_on_c, 6, 51, 43
8, 8340, Note_off_c, 6, 51, 64
8, 8400, Note_on_c, 6, 61, 54
8, 8460, Note_off_c, 6, 61, 64
8, 8520, Note_on_c, 6, 51, 50
8, 8580, Note_off_c, 6, 51, 64
8, 8640, Note_on_c, 6, 60, 53
8, 8700, Note_off_c, 6, 60, 64
8, 8760, Note_on_c, 6, 51, 65
8, 8820, Note_off_c, 6, 51, 64
8, 8880, Note_on_c, 6, 56, 69
8, 8940, Note_off_c, 6, 56, 64
8, 9000, Note_on_c, 6, 60, 68
8, 9060, Note_off_c, 6, 60, 64
8, 9120, Note_on_c, 6, 61, 61
8, 9180, Note_off_c, 6, 61, 64
8, 9240, Note_on_c, 6, 70, 86
8, 9300, Note_off_c, 6, 70, 64
8, 9360, Note_on_c, 6, 67, 84
8, 9420, Note_off_c, 6, 67, 64
8, 9480, Note_on_c, 6, 63, 99
8, 9540, Note_off_c, 6, 63, 64
8, 9600, Note_on_c, 6, 68, 95
8, 9660, Note_off_c, 6, 68, 64
8, 9720, Note_on_c, 6, 63, 93
8, 9780, Note_off_c, 6, 63, 64
8, 9840, Note_on_c, 6, 60, 99
8, 9900, Note_off_c, 6, 60, 64
8, 9960, Note_on_c, 6, 56, 99
8, 10020, Note_off_c, 6, 56, 64
8, 10080, Note_on_c, 6, 53, 99
8, 10260, Note_off_c, 6, 53, 64
8, 10290, Note_on_c, 6, 62, 104
8, 10320, Note_off_c, 6, 62, 64
8, 10320, Note_on_c, 6, 62, 105
8, 10500, Note_off_c, 6, 62, 64
8, 10530, Note_on_c, 6, 62, 105
8, 10560, Note_off_c, 6, 62, 64
8, 10560, Note_on_c, 6, 63, 104
8, 10800, Note_off_c, 6, 63, 64
8, 11730, Note_on_c, 6, 51, 94
8, 11760, Note_off_c, 6, 51, 64
8, 11760, Note_on_c, 6, 53, 93
8, 11940, Note_off_c, 6, 53, 64
8, 11970, Note_on_c, 6, 53, 95
8, 12000, Note_off_c, 6, 53, 64
8, 12000, Note_on_c, 6, 51, 99
8, 12120, Note_off_c, 6, 51, 64
8, 13440, Note_on_c, 6, 56, 43
8, 13560, Note_off_c, 6, 56, 64
8, 13560, Note_on_c, 6, 60, 42
8, 13680, Note_off_c, 6, 60, 64
8, 13680, Note_on_c, 6, 56, 33
8, 13800, Note_off_c, 6, 56, 64
8, 13800, Note_on_c, 6, 60, 44
8, 13920, Note_off_c, 6, 60, 64
8, 13920, Note_on_c, 6, 56, 45
8, 14040, Note_off_c, 6, 56, 64
8, 14040, Note_on_c, 6, 60, 47
8, 14160, Note_off_c, 6, 60, 64
8, 14160, Note_on_c, 6, 56, 35
8, 14280, Note_off_c, 6, 56, 64
8, 14280, Note_on_c, 6, 60, 48
8, 14400, Note_off_c, 6, 60, 64
8, 14400, Note_on_c, 6, 58, 56
8, 14520, Note_off_c, 6, 58, 64
8, 14520, Note_on_c, 6, 61, 63
8, 14640, Note_off_c, 6, 61, 64
8, 14640, Note_on_c, 6, 58, 77
8, 14760, Note_off_c, 6, 58, 64
8, 14760, Note_on_c, 6, 61, 73
8, 14880, Note_off_c, 6, 61, 64
8, 14880, Note_on_c, 6, 58, 82
8, 15000, Note_off_c, 6, 58, 64
8, 15000, Note_on_c, 6, 61, 90
8, 15120, Note_off_c, 6, 61, 64
8, 15120, Note_on_c, 6, 60, 104
8, 15240, Note_off_c, 6, 60, 64
8, 15240, Note_on_c, 6, 63, 99
8, 15360, Note_off_c, 6, 63, 64
8, 15360, Note_on_c, 6, 61, 43
8, 15480, Note_off_c, 6, 61, 64
8, 15480, Note_on_c, 6, 65, 45
8, 15600, Note_off_c, 6, 65, 64
8, 15600, Note_on_c, 6, 61, 52
8, 15720, Note_off_c, 6, 61, 64
8, 15720, Note_on_c, 6, 58, 64
8, 15840, Note_off_c, 6, 58, 64
8, 15840, Note_on_c, 6, 63, 54
8, 16080, Note_off_c, 6, 63, 64
8, 16080, Note_on_c, 6, 55, 53
8, 16320, Note_off_c, 6, 55, 64
8, 16320, Note_on_c, 6, 56, 38
8, 16560, Note_off_c, 6, 56, 64
8, 16560, Note_on_c, 6, 51, 58
8, 16800, Note_off_c, 6, 51, 64
8, 16800, Note_on_c, 6, 56, 57
8, 16920, Note_off_c, 6, 56, 64
8, 17280, Note_on_c, 6, 55, 29
8, 17520, Note_off_c, 6, 55, 64
8, 17760, Note_on_c, 6, 51, 30
8, 18000, Note_off_c, 6, 51, 64
8, 18240, Note_on_c, 6, 56, 36
8, 18480, Note_off_c, 6, 56, 64
8, 19200, Note_on_c, 6, 64, 35
8, 19440, Note_off_c, 6, 64, 64
8, 19680, Note_on_c, 6, 60, 29
8, 19920, Note_off_c, 6, 60, 64
8, 20160, Note_on_c, 6, 65, 33
8, 20400, Note_off_c, 6, 65, 64
8, 21120, Note_on_c, 6, 62, 43
8, 21360, Note_off_c, 6, 62, 64
8, 21600, Note_on_c, 6, 58, 39
8, 21840, Note_off_c, 6, 58, 64
8, 22080, Note_on_c, 6, 63, 29
8, 22320, Note_off_c, 6, 63, 64
8, 22560, Note_on_c, 6, 60, 62
8, 22680, Note_off_c, 6, 60, 64
8, 22680, Note_on_c, 6, 60, 64
8, 22800, Note_off_c, 6, 60, 64
8, 22800, Note_on_c, 6, 60, 73
8, 22920, Note_off_c, 6, 60, 64
8, 22920, Note_on_c, 6, 60, 68
8, 23040, Note_off_c, 6, 60, 64
8, 23040, Note_on_c, 6, 58, 46
8, 23160, Note_off_c, 6, 58, 64
8, 24000, Note_on_c, 6, 58, 43
8, 24120, Note_off_c, 6, 58, 64
8, 24960, Note_on_c, 6, 58, 125
8, 25080, Note_off_c, 6, 58, 64
8, 25080, Note_on_c, 6, 70, 119
8, 25140, Note_off_c, 6, 70, 64
8, 25200, Note_on_c, 6, 70, 125
8, 25260, Note_off_c, 6, 70, 64
8, 25320, Note_on_c, 6, 70, 125
8, 25380, Note_off_c, 6, 70, 64
8, 25440, Note_on_c, 6, 70, 119
8, 25560, Note_off_c, 6, 70, 64
8, 25560, Note_on_c, 6, 65, 107
8, 25680, Note_off_c, 6, 65, 64
8, 25680, Note_on_c, 6, 66, 105
8, 25800, Note_off_c, 6, 66, 64
8, 25800, Note_on_c, 6, 63, 119
8, 25920, Note_off_c, 6, 63, 64
8, 25920, Note_on_c, 6, 58, 123
8, 26040, Note_off_c, 6, 58, 64
8, 26040, Note_on_c, 6, 65, 110
8, 26160, Note_off_c, 6, 65, 64
8, 26160, Note_on_c, 6, 66, 99
8, 26280, Note_off_c, 6, 66, 64
8, 26280, Note_on_c, 6, 63, 127
8, 26400, Note_off_c, 6, 63, 64
8, 26400, Note_on_c, 6, 58, 95
8, 26520, Note_off_c, 6, 58, 64
8, 26520, Note_on_c, 6, 65, 110
8, 26640, Note_off_c, 6, 65, 64
8, 26640, Note_on_c, 6, 66, 104
8, 26760, Note_off_c, 6, 66, 64
8, 26760, Note_on_c, 6, 63, 119
8, 26880, Note_off_c, 6, 63, 64
8, 26880, Note_on_c, 6, 58, 123
8, 27000, Note_off_c, 6, 58, 64
8, 27120, Note_on_c, 6, 58, 65
8, 27240, Note_off_c, 6, 58, 64
8, 29760, Note_on_c, 6, 55, 57
8, 30000, Note_off_c, 6, 55, 64
8, 30720, Note_on_c, 6, 56, 52
8, 30960, Note_off_c, 6, 56, 64
8, 31680, Note_on_c, 6, 55, 38
8, 31920, Note_off_c, 6, 55, 64
8, 32160, Note_on_c, 6, 55, 42
8, 32400, Note_off_c, 6, 55, 64
8, 32640, Note_on_c, 6, 60, 36
8, 32880, Note_off_c, 6, 60, 64
8, 33120, Note_on_c, 6, 60, 43
8, 33360, Note_off_c, 6, 60, 64
8, 33600, Note_on_c, 6, 58, 39
8, 33840, Note_off_c, 6, 58, 64
8, 34080, Note_on_c, 6, 58, 29
8, 34320, Note_off_c, 6, 58, 64
8, 34560, Note_on_c, 6, 51, 40
8, 34680, Note_off_c, 6, 51, 64
8, 34680, Note_on_c, 6, 70, 45
8, 34740, Note_off_c, 6, 70, 64
8, 34800, Note_on_c, 6, 70, 89
8, 34860, Note_off_c, 6, 70, 64
8, 34920, Note_on_c, 6, 70, 89
8, 34980, Note_off_c, 6, 70, 64
8, 35040, Note_on_c, 6, 70, 110
8, 35160, Note_off_c, 6, 70, 64
8, 35160, Note_on_c, 6, 70, 105
8, 35280, Note_off_c, 6, 70, 64
8, 35280, Note_on_c, 6, 68, 105
8, 35400, Note_off_c, 6, 68, 64
8, 35400, Note_on_c, 6, 68, 105
8, 35520, Note_off_c, 6, 68, 64
8, 35520, Note_on_c, 6, 67, 48
8, 35760, Note_off_c, 6, 67, 64
8, 38880, Note_on_c, 6, 58, 86
8, 39060, Note_off_c, 6, 58, 64
8, 39090, Note_on_c, 6, 58, 84
8, 39120, Note_off_c, 6, 58, 64
8, 39120, Note_on_c, 6, 58, 81
8, 39300, Note_off_c, 6, 58, 64
8, 39330, Note_on_c, 6, 58, 84
8, 39360, Note_off_c, 6, 58, 64
8, 39360, Note_on_c, 6, 58, 89
8, 39480, Note_off_c, 6, 58, 64
8, 39840, Note_on_c, 6, 58, 90
8, 40020, Note_off_c, 6, 58, 64
8, 40050, Note_on_c, 6, 58, 86
8, 40080, Note_off_c, 6, 58, 64
8, 40080, Note_on_c, 6, 58, 86
8, 40260, Note_off_c, 6, 58, 64
8, 40290, Note_on_c, 6, 58, 89
8, 40320, Note_off_c, 6, 58, 64
8, 40320, Note_on_c, 6, 51, 94
8, 40440, Note_off_c, 6, 51, 64
8, 40800, Note_on_c, 6, 55, 43
8, 40920, Note_off_c, 6, 55, 64
8, 40920, Note_on_c, 6, 55, 46
8, 41040, Note_off_c, 6, 55, 64
8, 41040, Note_on_c, 6, 55, 43
8, 41160, Note_off_c, 6, 55, 64
8, 41160, Note_on_c, 6, 55, 42
8, 41280, Note_off_c, 6, 55, 64
8, 41280, Note_on_c, 6, 56, 43
8, 41400, Note_off_c, 6, 56, 64
8, 41400, Note_on_c, 6, 56, 43
8, 41520, Note_off_c, 6, 56, 64
8, 41520, Note_on_c, 6, 56, 32
8, 41640, Note_off_c, 6, 56, 64
8, 41640, Note_on_c, 6, 56, 38
8, 41760, Note_off_c, 6, 56, 64
8, 41760, Note_on_c, 6, 58, 37
8, 41880, Note_off_c, 6, 58, 64
8, 41880, Note_on_c, 6, 58, 37
8, 42000, Note_off_c, 6, 58, 64
8, 42000, Note_on_c, 6, 56, 33
8, 42120, Note_off_c, 6, 56, 64
8, 42120, Note_on_c, 6, 56, 35
8, 42240, Note_off_c, 6, 56, 64
8, 42240, Note_on_c, 6, 55, 48
8, 42360, Note_off_c, 6, 55, 64
8, 42360, Note_on_c, 6, 55, 65
8, 42480, Note_off_c, 6, 55, 64
8, 42480, Note_on_c, 6, 55, 89
8, 42600, Note_off_c, 6, 55, 64
8, 42600, Note_on_c, 6, 55, 93
8, 42720, Note_off_c, 6, 55, 64
8, 42720, Note_on_c, 6, 55, 76
8, 42840, Note_off_c, 6, 55, 64
8, 42840, Note_on_c, 6, 55, 52
8, 42960, Note_off_c, 6, 55, 64
8, 42960, Note_on_c, 6, 55, 43
8, 43080, Note_off_c, 6, 55, 64
8, 43080, Note_on_c, 6, 55, 39
8, 43200, Note_off_c, 6, 55, 64
8, 43200, Note_on_c, 6, 56, 29
8, 43320, Note_off_c, 6, 56, 64
8, 43320, Note_on_c, 6, 56, 33
8, 43440, Note_off_c, 6, 56, 64
8, 43440, Note_on_c, 6, 56, 31
8, 43560, Note_off_c, 6, 56, 64
8, 43560, Note_on_c, 6, 56, 31
8, 43680, Note_off_c, 6, 56, 64
8, 43680, Note_on_c, 6, 58, 29
8, 43800, Note_off_c, 6, 58, 64
8, 43800, Note_on_c, 6, 58, 33
8, 43920, Note_off_c, 6, 58, 64
8, 43920, Note_on_c, 6, 56, 30
8, 44040, Note_off_c, 6, 56, 64
8, 44040, Note_on_c, 6, 56, 35
8, 44160, Note_off_c, 6, 56, 64
8, 44160, Note_on_c, 6, 55, 49
8, 44280, Note_off_c, 6, 55, 64
8, 44760, Note_on_c, 6, 58, 38
8, 44880, Note_off_c, 6, 58, 64
8, 44880, Note_on_c, 6, 58, 43
8, 45000, Note_off_c, 6, 58, 64
8, 45000, Note_on_c, 6, 58, 43
8, 45120, Note_off_c, 6, 58, 64
8, 45120, Note_on_c, 6, 62, 40
8, 45360, Note_off_c, 6, 62, 64
8, 45720, Note_on_c, 6, 62, 52
8, 45840, Note_off_c, 6, 62, 64
8, 45840, Note_on_c, 6, 62, 45
8, 45960, Note_off_c, 6, 62, 64
8, 45960, Note_on_c, 6, 62, 40
8, 46080, Note_off_c, 6, 62, 64
8, 46080, Note_on_c, 6, 61, 42
8, 46320, Note_off_c, 6, 61, 64
8, 46560, Note_on_c, 6, 60, 44
8, 46800, Note_off_c, 6, 60, 64
8, 47040, Note_on_c, 6, 55, 41
8, 47280, Note_off_c, 6, 55, 64
8, 49920, Note_on_c, 6, 51, 42
8, 50400, Note_off_c, 6, 51, 64
8, 50400, Note_on_c, 6, 51, 32
8, 50580, Note_off_c, 6, 51, 64
8, 50640, Note_on_c, 6, 51, 44
8, 50820, Note_off_c, 6, 51, 64
8, 50880, Note_on_c, 6, 51, 29
8, 51360, Note_off_c, 6, 51, 64
8, 53760, Note_on_c, 6, 51, 40
8, 54240, Note_off_c, 6, 51, 64
8, 54240, Note_on_c, 6, 51, 29
8, 54360, Note_off_c, 6, 51, 64
8, 54360, Note_on_c, 6, 51, 44
8, 54480, Note_off_c, 6, 51, 64
8, 54480, Note_on_c, 6, 55, 44
8, 54600, Note_off_c, 6, 55, 64
8, 54600, Note_on_c, 6, 56, 40
8, 54720, Note_off_c, 6, 56, 64
8, 54720, Note_on_c, 6, 56, 44
8, 55200, Note_off_c, 6, 56, 64
8, 57120, Note_on_c, 6, 55, 43
8, 57180, Note_off_c, 6, 55, 64
8, 57240, Note_on_c, 6, 51, 52
8, 57300, Note_off_c, 6, 51, 64
8, 57360, Note_on_c, 6, 55, 44
8, 57420, Note_off_c, 6, 55, 64
8, 57480, Note_on_c, 6, 51, 44
8, 57540, Note_off_c, 6, 51, 64
8, 57600, Note_on_c, 6, 56, 54
8, 57660, Note_off_c, 6, 56, 64
8, 57720, Note_on_c, 6, 51, 54
8, 57780, Note_off_c, 6, 51, 64
8, 57840, Note_on_c, 6, 56, 46
8, 57900, Note_off_c, 6, 56, 64
8, 57960, Note_on_c, 6, 51, 66
8, 58020, Note_off_c, 6, 51, 64
8, 58080, Note_on_c, 6, 58, 45
8, 58140, Note_off_c, 6, 58, 64
8, 58200, Note_on_c, 6, 51, 58
8, 58260, Note_off_c, 6, 51, 64
8, 58320, Note_on_c, 6, 61, 43
8, 58380, Note_off_c, 6, 61, 64
8, 58440, Note_on_c, 6, 51, 61
8, 58500, Note_off_c, 6, 51, 64
8, 58560, Note_on_c, 6, 60, 67
8, 58620, Note_off_c, 6, 60, 64
8, 58680, Note_on_c, 6, 51, 66
8, 58740, Note_off_c, 6, 51, 64
8, 58800, Note_on_c, 6, 56, 62
8, 58860, Note_off_c, 6, 56, 64
8, 58920, Note_on_c, 6, 60, 62
8, 58980, Note_off_c, 6, 60, 64
8, 59040, Note_on_c, 6, 61, 62
8, 59100, Note_off_c, 6, 61, 64
8, 59160, Note_on_c, 6, 70, 76
8, 59220, Note_off_c, 6, 70, 64
8, 59280, Note_on_c, 6, 67, 95
8, 59340, Note_off_c, 6, 67, 64
8, 59400, Note_on_c, 6, 63, 93
8, 59460, Note_off_c, 6, 63, 64
8, 59520, Note_on_c, 6, 68, 89
8, 59580, Note_off_c, 6, 68, 64
8, 59640, Note_on_c, 6, 63, 98
8, 59700, Note_off_c, 6, 63, 64
8, 59760, Note_on_c, 6, 60, 99
8, 59820, Note_off_c, 6, 60, 64
8, 59880, Note_on_c, 6, 56, 101
8, 59940, Note_off_c, 6, 56, 64
8, 60000, Note_on_c, 6, 53, 95
8, 60180, Note_off_c, 6, 53, 64
8, 60210, Note_on_c, 6, 62, 93
8, 60240, Note_off_c, 6, 62, 64
8, 60240, Note_on_c, 6, 62, 86
8, 60420, Note_off_c, 6, 62, 64
8, 60450, Note_on_c, 6, 62, 94
8, 60480, Note_off_c, 6, 62, 64
8, 60480, Note_on_c, 6, 63, 101
8, 60720, Note_off_c, 6, 63, 64
8, 61650, Note_on_c, 6, 51, 99
8, 61680, Note_off_c, 6, 51, 64
8, 61680, Note_on_c, 6, 53, 99
8, 61860, Note_off_c, 6, 53, 64
8, 61890, Note_on_c, 6, 53, 104
8, 61920, Note_off_c, 6, 53, 64
8, 61920, Note_on_c, 6, 51, 101
8, 62040, Note_off_c, 6, 51, 64
8, 63360, Program_c, 6, 45
8, 63600, Note_on_c, 6, 56, 90
8, 63840, Note_off_c, 6, 56, 64
8, 64560, Note_on_c, 6, 58, 93
8, 64800, Note_off_c, 6, 58, 64
8, 65040, Note_on_c, 6, 61, 90
8, 65280, Note_off_c, 6, 61, 64
8, 65280, Note_on_c, 6, 60, 84
8, 65520, Note_off_c, 6, 60, 64
8, 65520, Note_on_c, 6, 56, 85
8, 65760, Note_off_c, 6, 56, 64
8, 65760, Note_on_c, 6, 55, 94
8, 66000, Note_off_c, 6, 55, 64
8, 66000, Note_on_c, 6, 51, 94
8, 66240, Note_off_c, 6, 51, 64
8, 66240, Note_on_c, 6, 56, 94
8, 66480, Note_off_c, 6, 56, 64
8, 66480, Note_on_c, 6, 60, 93
8, 66720, Note_off_c, 6, 60, 64
8, 66720, Note_on_c, 6, 63, 93
8, 66960, Note_off_c, 6, 63, 64
8, 67440, Note_on_c, 6, 56, 89
8, 67680, Note_off_c, 6, 56, 64
8, 68400, Note_on_c, 6, 56, 94
8, 68640, Note_off_c, 6, 56, 64
8, 68880, Note_on_c, 6, 61, 90
8, 69120, Note_off_c, 6, 61, 64
8, 69120, Note_on_c, 6, 60, 94
8, 69360, Note_off_c, 6, 60, 64
8, 69360, Note_on_c, 6, 61, 86
8, 69600, Note_off_c, 6, 61, 64
8, 69600, Note_on_c, 6, 63, 90
8, 69840, Note_off_c, 6, 63, 64
8, 69840, Note_on_c, 6, 51, 99
8, 70080, Note_off_c, 6, 51, 64
8, 70080, Note_on_c, 6, 56, 104
8, 70320, Note_off_c, 6, 56, 64
8, 70320, Program_c, 6, 48
8, 70640, Note_on_c, 6, 55, 41
8, 70720, Note_off_c, 6, 55, 64
8, 70720, Note_on_c, 6, 55, 62
8, 70800, Note_off_c, 6, 55, 64
8, 70880, Note_on_c, 6, 55, 56
8, 70960, Note_off_c, 6, 55, 64
8, 70960, Note_on_c, 6, 55, 50
8, 71040, Note_off_c, 6, 55, 64
8, 71120, Note_on_c, 6, 56, 46
8, 71200, Note_off_c, 6, 56, 64
8, 71200, Note_on_c, 6, 56, 65
8, 71280, Note_off_c, 6, 56, 64
8, 71360, Note_on_c, 6, 56, 56
8, 71440, Note_off_c, 6, 56, 64
8, 71440, Note_on_c, 6, 56, 43
8, 71520, Note_off_c, 6, 56, 64
8, 71600, Note_on_c, 6, 58, 64
8, 71680, Note_off_c, 6, 58, 64
8, 71680, Note_on_c, 6, 58, 44
8, 71760, Note_off_c, 6, 58, 64
8, 71840, Note_on_c, 6, 58, 69
8, 71920, Note_off_c, 6, 58, 64
8, 71920, Note_on_c, 6, 58, 58
8, 72000, Note_off_c, 6, 58, 64
8, 72000, Note_on_c, 6, 56, 46
8, 72120, Note_off_c, 6, 56, 64
8, 72240, Program_c, 6, 45
8, 72480, Note_on_c, 6, 55, 56
8, 72720, Note_off_c, 6, 55, 64
8, 72960, Note_on_c, 6, 56, 65
8, 73200, Note_off_c, 6, 56, 64
8, 73440, Note_on_c, 6, 58, 74
8, 73680, Note_off_c, 6, 58, 64
8, 73920, Note_on_c, 6, 58, 72
8, 74160, Note_off_c, 6, 58, 64
8, 74640, Note_on_c, 6, 53, 53
8, 74880, Note_off_c, 6, 53, 64
8, 74880, Note_on_c, 6, 55, 94
8, 75120, Note_off_c, 6, 55, 64
8, 75120, Note_on_c, 6, 53, 93
8, 75360, Note_off_c, 6, 53, 64
8, 75360, Note_on_c, 6, 55, 94
8, 75600, Note_off_c, 6, 55, 64
8, 75600, Note_on_c, 6, 53, 94
8, 75840, Note_off_c, 6, 53, 64
8, 75840, Note_on_c, 6, 55, 98
8, 75960, Note_off_c, 6, 55, 64
8, 76320, Program_c, 6, 48
8, 76800, Note_on_c, 6, 56, 47
8, 77520, Note_off_c, 6, 56, 64
8, 77520, Note_on_c, 6, 60, 84
8, 77760, Note_off_c, 6, 60, 64
8, 77760, Note_on_c, 6, 61, 67
8, 78480, Note_off_c, 6, 61, 64
8, 78480, Note_on_c, 6, 56, 64
8, 78720, Note_off_c, 6, 56, 64
8, 78720, Note_on_c, 6, 56, 69
8, 79200, Note_off_c, 6, 56, 64
8, 79200, Note_on_c, 6, 55, 69
8, 79680, Note_off_c, 6, 55, 64
8, 79680, Note_on_c, 6, 56, 52
8, 79920, Note_off_c, 6, 56, 64
8, 80160, Note_on_c, 6, 57, 40
8, 80400, Note_off_c, 6, 57, 64
8, 80400, Note_on_c, 6, 57, 42
8, 80640, Note_off_c, 6, 57, 64
8, 80640, Note_on_c, 6, 56, 46
8, 80880, Note_off_c, 6, 56, 64
8, 81120, Note_on_c, 6, 55, 45
8, 81360, Note_off_c, 6, 55, 64
8, 81360, Note_on_c, 6, 55, 43
8, 81600, Note_off_c, 6, 55, 64
8, 81600, Note_on_c, 6, 56, 30
8, 81840, Note_off_c, 6, 56, 64
8, 82080, Note_on_c, 6, 51, 99
8, 82120, Note_off_c, 6, 51, 64
8, 82160, Note_on_c, 6, 51, 99
8, 82200, Note_off_c, 6, 51, 64
8, 82240, Note_on_c, 6, 51, 104
8, 82280, Note_off_c, 6, 51, 64
8, 82320, Note_on_c, 6, 51, 104
8, 82400, Note_off_c, 6, 51, 64
8, 82400, Note_on_c, 6, 55, 104
8, 82480, Note_off_c, 6, 55, 64
8, 82480, Note_on_c, 6, 56, 98
8, 82560, Note_off_c, 6, 56, 64
8, 82560, Note_on_c, 6, 58, 54
8, 82800, Note_off_c, 6, 58, 64
8, 83040, Note_on_c, 6, 51, 99
8, 83080, Note_off_c, 6, 51, 64
8, 83120, Note_on_c, 6, 51, 94
8, 83160, Note_off_c, 6, 51, 64
8, 83200, Note_on_c, 6, 51, 99
8, 83240, Note_off_c, 6, 51, 64
8, 83280, Note_on_c, 6, 51, 99
8, 83360, Note_off_c, 6, 51, 64
8, 83360, Note_on_c, 6, 55, 99
8, 83440, Note_off_c, 6, 55, 64
8, 83440, Note_on_c, 6, 56, 99
8, 83520, Note_off_c, 6, 56, 64
8, 83520, Note_on_c, 6, 58, 54
8, 83760, Note_off_c, 6, 58, 64
8, 84000, Note_on_c, 6, 56, 99
8, 84040, Note_off_c, 6, 56, 64
8, 84080, Note_on_c, 6, 60, 104
8, 84120, Note_off_c, 6, 60, 64
8, 84160, Note_on_c, 6, 60, 101
8, 84200, Note_off_c, 6, 60, 64
8, 84240, Note_on_c, 6, 60, 105
8, 84320, Note_off_c, 6, 60, 64
8, 84320, Note_on_c, 6, 58, 101
8, 84400, Note_off_c, 6, 58, 64
8, 84400, Note_on_c, 6, 56, 104
8, 84480, Note_off_c, 6, 56, 64
8, 84480, Note_on_c, 6, 55, 119
8, 84720, Note_off_c, 6, 55, 64
8, 84960, Note_on_c, 6, 53, 107
8, 85200, Note_off_c, 6, 53, 64
8, 85440, Note_on_c, 6, 59, 127
8, 85520, Note_off_c, 6, 59, 64
8, 85520, Note_on_c, 6, 59, 119
8, 85600, Note_off_c, 6, 59, 64
8, 85600, Note_on_c, 6, 59, 117
8, 85680, Note_off_c, 6, 59, 64
8, 85680, Note_on_c, 6, 59, 123
8, 85760, Note_off_c, 6, 59, 64
8, 85760, Note_on_c, 6, 59, 123
8, 85840, Note_off_c, 6, 59, 64
8, 85840, Note_on_c, 6, 59, 119
8, 85920, Note_off_c, 6, 59, 64
8, 85920, Note_on_c, 6, 60, 119
8, 86000, Note_off_c, 6, 60, 64
8, 86000, Note_on_c, 6, 60, 119
8, 86080, Note_off_c, 6, 60, 64
8, 86080, Note_on_c, 6, 60, 119
8, 86160, Note_off_c, 6, 60, 64
8, 86160, Note_on_c, 6, 55, 112
8, 86240, Note_off_c, 6, 55, 64
8, 86240, Note_on_c, 6, 55, 115
8, 86320, Note_off_c, 6, 55, 64
8, 86320, Note_on_c, 6, 55, 117
8, 86400, Note_off_c, 6, 55, 64
8, 86400, Note_on_c, 6, 56, 105
8, 86640, Note_off_c, 6, 56, 64
8, 92160, Note_on_c, 6, 61, 52
8, 92640, Note_off_c, 6, 61, 64
8, 92640, Note_on_c, 6, 60, 43
8, 92880, Note_off_c, 6, 60, 64
8, 92880, Note_on_c, 6, 61, 49
8, 93120, Note_off_c, 6, 61, 64
8, 93120, Note_on_c, 6, 60, 56
8, 93360, Note_off_c, 6, 60, 64
8, 93360, Note_on_c, 6, 61, 43
8, 93840, Note_off_c, 6, 61, 64
8, 93840, Note_on_c, 6, 62, 58
8, 93920, Note_off_c, 6, 62, 64
8, 93920, Note_on_c, 6, 63, 46
8, 94000, Note_off_c, 6, 63, 64
8, 94000, Note_on_c, 6, 65, 44
8, 94080, Note_off_c, 6, 65, 64
8, 94080, Note_on_c, 6, 63, 43
8, 94320, Note_off_c, 6, 63, 64
8, 94560, Note_on_c, 6, 51, 43
8, 94800, Note_off_c, 6, 51, 64
8, 95040, Note_on_c, 6, 56, 57
8, 95280, Note_off_c, 6, 56, 64
8, 95760, Note_on_c, 6, 56, 46
8, 96240, Note_off_c, 6, 56, 64
8, 96720, Note_on_c, 6, 56, 43
8, 97200, Note_off_c, 6, 56, 64
8, 97680, Note_on_c, 6, 55, 43
8, 97920, Note_off_c, 6, 55, 64
8, 97920, Note_on_c, 6, 56, 43
8, 98000, Note_off_c, 6, 56, 64
8, 98000, Note_on_c, 6, 56, 34
8, 98080, Note_off_c, 6, 56, 64
8, 98080, Note_on_c, 6, 56, 40
8, 98160, Note_off_c, 6, 56, 64
8, 98160, Note_on_c, 6, 56, 35
8, 98240, Note_off_c, 6, 56, 64
8, 98240, Note_on_c, 6, 56, 43
8, 98320, Note_off_c, 6, 56, 64
8, 98320, Note_on_c, 6, 56, 41
8, 98400, Note_off_c, 6, 56, 64
8, 98400, Note_on_c, 6, 56, 41
8, 98480, Note_off_c, 6, 56, 64
8, 98480, Note_on_c, 6, 56, 45
8, 98560, Note_off_c, 6, 56, 64
8, 98560, Note_on_c, 6, 56, 38
8, 98640, Note_off_c, 6, 56, 64
8, 98640, Note_on_c, 6, 56, 42
8, 98720, Note_off_c, 6, 56, 64
8, 98720, Note_on_c, 6, 56, 36
8, 98800, Note_off_c, 6, 56, 64
8, 98800, Note_on_c, 6, 56, 32
8, 98880, Note_off_c, 6, 56, 64
8, 98880, Note_on_c, 6, 56, 43
8, 98960, Note_off_c, 6, 56, 64
8, 98960, Note_on_c, 6, 56, 30
8, 99040, Note_off_c, 6, 56, 64
8, 99040, Note_on_c, 6, 56, 32
8, 99120, Note_off_c, 6, 56, 64
8, 99120, Note_on_c, 6, 56, 40
8, 99200, Note_off_c, 6, 56, 64
8, 99200, Note_on_c, 6, 56, 36
8, 99280, Note_off_c, 6, 56, 64
8, 99280, Note_on_c, 6, 56, 43
8, 99360, Note_off_c, 6, 56, 64
8, 99360, Note_on_c, 6, 56, 46
8, 99440, Note_off_c, 6, 56, 64
8, 99440, Note_on_c, 6, 56, 40
8, 99520, Note_off_c, 6, 56, 64
8, 99520, Note_on_c, 6, 56, 35
8, 99600, Note_off_c, 6, 56, 64
8, 99600, Note_on_c, 6, 56, 38
8, 99680, Note_off_c, 6, 56, 64
8, 99680, Note_on_c, 6, 56, 42
8, 99760, Note_off_c, 6, 56, 64
8, 99760, Note_on_c, 6, 56, 44
8, 99840, Note_off_c, 6, 56, 64
8, 99840, Note_on_c, 6, 59, 86
8, 99840, Note_on_c, 6, 56, 84
8, 99920, Note_off_c, 6, 56, 64
8, 99920, Note_off_c, 6, 59, 64
8, 99920, Note_on_c, 6, 59, 84
8, 99920, Note_on_c, 6, 56, 89
8, 100000, Note_off_c, 6, 56, 64
8, 100000, Note_off_c, 6, 59, 64
8, 100000, Note_on_c, 6, 59, 81
8, 100000, Note_on_c, 6, 56, 84
8, 100080, Note_off_c, 6, 56, 64
8, 100080, Note_off_c, 6, 59, 64
8, 100080, Note_on_c, 6, 59, 81
8, 100080, Note_on_c, 6, 56, 86
8, 100160, Note_off_c, 6, 56, 64
8, 100160, Note_off_c, 6, 59, 64
8, 100160, Note_on_c, 6, 59, 89
8, 100160, Note_on_c, 6, 56, 82
8, 100240, Note_off_c, 6, 56, 64
8, 100240, Note_off_c, 6, 59, 64
8, 100240, Note_on_c, 6, 59, 82
8, 100240, Note_on_c, 6, 56, 89
8, 100320, Note_off_c, 6, 56, 64
8, 100320, Note_off_c, 6, 59, 64
8, 100320, Note_on_c, 6, 59, 112
8, 100320, Note_on_c, 6, 56, 119
8, 100400, Note_off_c, 6, 56, 64
8, 100400, Note_off_c, 6, 59, 64
8, 100400, Note_on_c, 6, 59, 95
8, 100400, Note_on_c, 6, 56, 101
8, 100480, Note_off_c, 6, 56, 64
8, 100480, Note_off_c, 6, 59, 64
8, 100480, Note_on_c, 6, 59, 86
8, 100480, Note_on_c, 6, 56, 95
8, 100560, Note_off_c, 6, 56, 64
8, 100560, Note_off_c, 6, 59, 64
8, 100560, Note_on_c, 6, 59, 93
8, 100560, Note_on_c, 6, 56, 104
8, 100640, Note_off_c, 6, 56, 64
8, 100640, Note_off_c, 6, 59, 64
8, 100640, Note_on_c, 6, 59, 84
8, 100640, Note_on_c, 6, 56, 99
8, 100720, Note_off_c, 6, 56, 64
8, 100720, Note_off_c, 6, 59, 64
8, 100720, Note_on_c, 6, 59, 94
8, 100720, Note_on_c, 6, 56, 105
8, 100800, Note_off_c, 6, 56, 64
8, 100800, Note_off_c, 6, 59, 64
8, 100800, Note_on_c, 6, 56, 90
8, 101040, Note_off_c, 6, 56, 64
8, 102720, Note_on_c, 6, 48, 65
8, 103680, Note_off_c, 6, 48, 64
8, 103680, Note_on_c, 6, 49, 45
8, 103800, Note_off_c, 6, 49, 64
8, 104640, Note_on_c, 6, 56, 38
8, 105600, Note_off_c, 6, 56, 64
8, 105600, Note_on_c, 6, 56, 35
8, 106560, Note_off_c, 6, 56, 64
8, 106560, Note_on_c, 6, 56, 35
8, 107520, Note_off_c, 6, 56, 64
8, 107520, Note_on_c, 6, 56, 40
8, 108480, Note_off_c, 6, 56, 64
8, 108480, Note_on_c, 6, 56, 53
8, 108600, Note_off_c, 6, 56, 64
8, 109920, Note_on_c, 6, 63, 43
8, 110400, Note_off_c, 6, 63, 64
8, 110400, Note_on_c, 6, 63, 43
8, 110520, Note_off_c, 6, 63, 64
8, 110520, End_track
9, 0, Start_track
9, 0, Title_t, "Cellos"
9, 0, Program_c, 7, 48
9, 0, Control_c, 7, 7, 100
9, 0, Control_c, 7, 10, 103
9, 0, Control_c, 7, 93, 0
9, 0, Control_c, 7, 91, 66
9, 0, Note_on_c, 7, 44, 29
9, 480, Note_off_c, 7, 44, 64
9, 480, Note_on_c, 7, 44, 29
9, 720, Note_off_c, 7, 44, 64
9, 720, Note_on_c, 7, 44, 29
9, 960, Note_off_c, 7, 44, 64
9, 960, Note_on_c, 7, 46, 29
9, 1440, Note_off_c, 7, 46, 64
9, 3840, Note_on_c, 7, 44, 37
9, 4320, Note_off_c, 7, 44, 64
9, 4320, Note_on_c, 7, 44, 29
9, 4440, Note_off_c, 7, 44, 64
9, 4440, Note_on_c, 7, 44, 38
9, 4560, Note_off_c, 7, 44, 64
9, 4560, Note_on_c, 7, 46, 43
9, 4680, Note_off_c, 7, 46, 64
9, 4680, Note_on_c, 7, 48, 40
9, 4800, Note_off_c, 7, 48, 64
9, 4800, Note_on_c, 7, 49, 32
9, 5280, Note_off_c, 7, 49, 64
9, 7200, Note_on_c, 7, 55, 61
9, 7260, Note_off_c, 7, 55, 64
9, 7320, Note_on_c, 7, 51, 33
9, 7380, Note_off_c, 7, 51, 64
9, 7440, Note_on_c, 7, 55, 44
9, 7500, Note_off_c, 7, 55, 64
9, 7560, Note_on_c, 7, 51, 56
9, 7620, Note_off_c, 7, 51, 64
9, 7680, Note_on_c, 7, 56, 35
9, 7740, Note_off_c, 7, 56, 64
9, 7800, Note_on_c, 7, 51, 35
9, 7860, Note_off_c, 7, 51, 64
9, 7920, Note_on_c, 7, 56, 40
9, 7980, Note_off_c, 7, 56, 64
9, 8040, Note_on_c, 7, 51, 52
9, 8100, Note_off_c, 7, 51, 64
9, 8160, Note_on_c, 7, 58, 35
9, 8220, Note_off_c, 7, 58, 64
9, 8280, Note_on_c, 7, 51, 30
9, 8340, Note_off_c, 7, 51, 64
9, 8400, Note_on_c, 7, 61, 43
9, 8460, Note_off_c, 7, 61, 64
9, 8520, Note_on_c, 7, 51, 43
9, 8580, Note_off_c, 7, 51, 64
9, 8640, Note_on_c, 7, 60, 53
9, 8700, Note_off_c, 7, 60, 64
9, 8760, Note_on_c, 7, 51, 40
9, 8820, Note_off_c, 7, 51, 64
9, 8880, Note_on_c, 7, 56, 62
9, 8940, Note_off_c, 7, 56, 64
9, 9000, Note_on_c, 7, 60, 44
9, 9060, Note_off_c, 7, 60, 64
9, 9120, Note_on_c, 7, 61, 45
9, 9180, Note_off_c, 7, 61, 64
9, 9240, Note_on_c, 7, 58, 72
9, 9300, Note_off_c, 7, 58, 64
9, 9360, Note_on_c, 7, 55, 86
9, 9420, Note_off_c, 7, 55, 64
9, 9480, Note_on_c, 7, 51, 85
9, 9540, Note_off_c, 7, 51, 64
9, 9600, Note_on_c, 7, 56, 74
9, 9660, Note_off_c, 7, 56, 64
9, 9720, Note_on_c, 7, 51, 94
9, 9780, Note_off_c, 7, 51, 64
9, 9840, Note_on_c, 7, 48, 101
9, 9900, Note_off_c, 7, 48, 64
9, 9960, Note_on_c, 7, 44, 99
9, 10020, Note_off_c, 7, 44, 64
9, 10080, Note_on_c, 7, 41, 105
9, 10260, Note_off_c, 7, 41, 64
9, 10290, Note_on_c, 7, 53, 101
9, 10320, Note_off_c, 7, 53, 64
9, 10320, Note_on_c, 7, 53, 105
9, 10500, Note_off_c, 7, 53, 64
9, 10530, Note_on_c, 7, 53, 99
9, 10560, Note_off_c, 7, 53, 64
9, 10560, Note_on_c, 7, 51, 99
9, 10800, Note_off_c, 7, 51, 64
9, 11730, Note_on_c, 7, 51, 99
9, 11760, Note_off_c, 7, 51, 64
9, 11760, Note_on_c, 7, 46, 98
9, 11940, Note_off_c, 7, 46, 64
9, 11970, Note_on_c, 7, 46, 94
9, 12000, Note_off_c, 7, 46, 64
9, 12000, Note_on_c, 7, 51, 99
9, 12120, Note_off_c, 7, 51, 64
9, 13440, Note_on_c, 7, 44, 40
9, 13560, Note_off_c, 7, 44, 64
9, 13560, Note_on_c, 7, 48, 41
9, 13680, Note_off_c, 7, 48, 64
9, 13680, Note_on_c, 7, 44, 52
9, 13800, Note_off_c, 7, 44, 64
9, 13800, Note_on_c, 7, 48, 43
9, 13920, Note_off_c, 7, 48, 64
9, 13920, Note_on_c, 7, 44, 58
9, 14040, Note_off_c, 7, 44, 64
9, 14040, Note_on_c, 7, 48, 48
9, 14160, Note_off_c, 7, 48, 64
9, 14160, Note_on_c, 7, 44, 50
9, 14280, Note_off_c, 7, 44, 64
9, 14280, Note_on_c, 7, 48, 63
9, 14400, Note_off_c, 7, 48, 64
9, 14400, Note_on_c, 7, 46, 65
9, 14520, Note_off_c, 7, 46, 64
9, 14520, Note_on_c, 7, 49, 80
9, 14640, Note_off_c, 7, 49, 64
9, 14640, Note_on_c, 7, 46, 82
9, 14760, Note_off_c, 7, 46, 64
9, 14760, Note_on_c, 7, 49, 93
9, 14880, Note_off_c, 7, 49, 64
9, 14880, Note_on_c, 7, 46, 95
9, 15000, Note_off_c, 7, 46, 64
9, 15000, Note_on_c, 7, 49, 99
9, 15120, Note_off_c, 7, 49, 64
9, 15120, Note_on_c, 7, 48, 107
9, 15240, Note_off_c, 7, 48, 64
9, 15240, Note_on_c, 7, 51, 105
9, 15360, Note_off_c, 7, 51, 64
9, 15360, Note_on_c, 7, 49, 52
9, 15480, Note_off_c, 7, 49, 64
9, 15480, Note_on_c, 7, 53, 60
9, 15600, Note_off_c, 7, 53, 64
9, 15600, Note_on_c, 7, 49, 74
9, 15720, Note_off_c, 7, 49, 64
9, 15720, Note_on_c, 7, 46, 73
9, 15840, Note_off_c, 7, 46, 64
9, 15840, Note_on_c, 7, 51, 68
9, 16080, Note_off_c, 7, 51, 64
9, 16080, Note_on_c, 7, 51, 43
9, 16320, Note_off_c, 7, 51, 64
9, 16320, Note_on_c, 7, 56, 59
9, 16560, Note_off_c, 7, 56, 64
9, 16560, Note_on_c, 7, 51, 61
9, 16800, Note_off_c, 7, 51, 64
9, 16800, Note_on_c, 7, 44, 43
9, 16920, Note_off_c, 7, 44, 64
9, 17280, Note_on_c, 7, 55, 32
9, 17520, Note_off_c, 7, 55, 64
9, 17760, Note_on_c, 7, 51, 29
9, 18000, Note_off_c, 7, 51, 64
9, 18240, Note_on_c, 7, 56, 42
9, 18480, Note_off_c, 7, 56, 64
9, 19200, Note_on_c, 7, 52, 47
9, 19440, Note_off_c, 7, 52, 64
9, 19680, Note_on_c, 7, 48, 39
9, 19920, Note_off_c, 7, 48, 64
9, 20160, Note_on_c, 7, 53, 32
9, 20400, Note_off_c, 7, 53, 64
9, 21120, Note_on_c, 7, 50, 43
9, 21360, Note_off_c, 7, 50, 64
9, 21600, Note_on_c, 7, 46, 42
9, 21840, Note_off_c, 7, 46, 64
9, 22080, Note_on_c, 7, 51, 34
9, 22320, Note_off_c, 7, 51, 64
9, 22560, Note_on_c, 7, 48, 62
9, 22680, Note_off_c, 7, 48, 64
9, 22680, Note_on_c, 7, 60, 46
9, 22800, Note_off_c, 7, 60, 64
9, 22800, Note_on_c, 7, 60, 57
9, 22920, Note_off_c, 7, 60, 64
9, 22920, Note_on_c, 7, 60, 58
9, 23040, Note_off_c, 7, 60, 64
9, 23040, Note_on_c, 7, 58, 59
9, 23160, Note_off_c, 7, 58, 64
9, 24000, Note_on_c, 7, 58, 61
9, 24120, Note_off_c, 7, 58, 64
9, 24960, Note_on_c, 7, 46, 127
9, 25080, Note_off_c, 7, 46, 64
9, 25080, Note_on_c, 7, 58, 125
9, 25140, Note_off_c, 7, 58, 64
9, 25200, Note_on_c, 7, 58, 123
9, 25260, Note_off_c, 7, 58, 64
9, 25320, Note_on_c, 7, 58, 119
9, 25380, Note_off_c, 7, 58, 64
9, 25440, Note_on_c, 7, 58, 119
9, 25560, Note_off_c, 7, 58, 64
9, 25560, Note_on_c, 7, 53, 115
9, 25680, Note_off_c, 7, 53, 64
9, 25680, Note_on_c, 7, 54, 112
9, 25800, Note_off_c, 7, 54, 64
9, 25800, Note_on_c, 7, 51, 127
9, 25920, Note_off_c, 7, 51, 64
9, 25920, Note_on_c, 7, 46, 104
9, 26040, Note_off_c, 7, 46, 64
9, 26040, Note_on_c, 7, 53, 99
9, 26160, Note_off_c, 7, 53, 64
9, 26160, Note_on_c, 7, 54, 95
9, 26280, Note_off_c, 7, 54, 64
9, 26280, Note_on_c, 7, 51, 127
9, 26400, Note_off_c, 7, 51, 64
9, 26400, Note_on_c, 7, 46, 104
9, 26520, Note_off_c, 7, 46, 64
9, 26520, Note_on_c, 7, 53, 98
9, 26640, Note_off_c, 7, 53, 64
9, 26640, Note_on_c, 7, 54, 101
9, 26760, Note_off_c, 7, 54, 64
9, 26760, Note_on_c, 7, 51, 127
9, 26880, Note_off_c, 7, 51, 64
9, 26880, Note_on_c, 7, 46, 125
9, 27000, Note_off_c, 7, 46, 64
9, 27120, Note_on_c, 7, 46, 42
9, 27240, Note_off_c, 7, 46, 64
9, 29760, Note_on_c, 7, 51, 44
9, 30000, Note_off_c, 7, 51, 64
9, 30720, Note_on_c, 7, 50, 46
9, 30960, Note_off_c, 7, 50, 64
9, 31680, Note_on_c, 7, 51, 32
9, 31920, Note_off_c, 7, 51, 64
9, 32160, Note_on_c, 7, 55, 36
9, 32400, Note_off_c, 7, 55, 64
9, 32640, Note_on_c, 7, 56, 29
9, 32880, Note_off_c, 7, 56, 64
9, 33120, Note_on_c, 7, 57, 39
9, 33360, Note_off_c, 7, 57, 64
9, 33600, Note_on_c, 7, 58, 60
9, 33840, Note_off_c, 7, 58, 64
9, 34080, Note_on_c, 7, 46, 56
9, 34320, Note_off_c, 7, 46, 64
9, 34560, Note_on_c, 7, 51, 64
9, 34680, Note_off_c, 7, 51, 64
9, 34680, Note_on_c, 7, 58, 50
9, 34740, Note_off_c, 7, 58, 64
9, 34800, Note_on_c, 7, 58, 80
9, 34860, Note_off_c, 7, 58, 64
9, 34920, Note_on_c, 7, 58, 86
9, 34980, Note_off_c, 7, 58, 64
9, 35040, Note_on_c, 7, 58, 94
9, 35100, Note_off_c, 7, 58, 64
9, 35160, Note_on_c, 7, 58, 104
9, 35220, Note_off_c, 7, 58, 64
9, 35280, Note_on_c, 7, 58, 125
9, 35340, Note_off_c, 7, 58, 64
9, 35400, Note_on_c, 7, 58, 125
9, 35460, Note_off_c, 7, 58, 64
9, 35520, Note_on_c, 7, 55, 65
9, 35760, Note_off_c, 7, 55, 64
9, 38880, Note_on_c, 7, 46, 86
9, 39060, Note_off_c, 7, 46, 64
9, 39090, Note_on_c, 7, 46, 90
9, 39120, Note_off_c, 7, 46, 64
9, 39120, Note_on_c, 7, 46, 90
9, 39300, Note_off_c, 7, 46, 64
9, 39330, Note_on_c, 7, 46, 94
9, 39360, Note_off_c, 7, 46, 64
9, 39360, Note_on_c, 7, 51, 95
9, 39480, Note_off_c, 7, 51, 64
9, 39840, Note_on_c, 7, 46, 89
9, 40020, Note_off_c, 7, 46, 64
9, 40050, Note_on_c, 7, 46, 93
9, 40080, Note_off_c, 7, 46, 64
9, 40080, Note_on_c, 7, 46, 94
9, 40260, Note_off_c, 7, 46, 64
9, 40290, Note_on_c, 7, 46, 94
9, 40320, Note_off_c, 7, 46, 64
9, 40320, Note_on_c, 7, 51, 94
9, 40440, Note_off_c, 7, 51, 64
9, 40440, Note_on_c, 7, 51, 44
9, 40800, Note_off_c, 7, 51, 64
9, 40800, Note_on_c, 7, 49, 41
9, 41280, Note_off_c, 7, 49, 64
9, 41280, Note_on_c, 7, 47, 45
9, 41760, Note_off_c, 7, 47, 64
9, 41760, Note_on_c, 7, 43, 43
9, 42000, Note_off_c, 7, 43, 64
9, 42000, Note_on_c, 7, 44, 44
9, 42240, Note_off_c, 7, 44, 64
9, 42240, Note_on_c, 7, 51, 57
9, 42720, Note_off_c, 7, 51, 64
9, 42720, Note_on_c, 7, 51, 34
9, 42780, Note_off_c, 7, 51, 64
9, 42780, Note_on_c, 7, 49, 76
9, 42840, Note_off_c, 7, 49, 64
9, 42840, Note_on_c, 7, 48, 85
9, 42900, Note_off_c, 7, 48, 64
9, 42900, Note_on_c, 7, 49, 81
9, 42960, Note_off_c, 7, 49, 64
9, 42960, Note_on_c, 7, 48, 78
9, 43020, Note_off_c, 7, 48, 64
9, 43020, Note_on_c, 7, 49, 69
9, 43080, Note_off_c, 7, 49, 64
9, 43080, Note_on_c, 7, 51, 44
9, 43140, Note_off_c, 7, 51, 64
9, 43140, Note_on_c, 7, 49, 43
9, 43200, Note_off_c, 7, 49, 64
9, 43200, Note_on_c, 7, 47, 43
9, 43680, Note_off_c, 7, 47, 64
9, 43680, Note_on_c, 7, 43, 43
9, 43920, Note_off_c, 7, 43, 64
9, 43920, Note_on_c, 7, 44, 48
9, 44160, Note_off_c, 7, 44, 64
9, 44160, Note_on_c, 7, 51, 54
9, 44280, Note_off_c, 7, 51, 64
9, 44760, Note_on_c, 7, 51, 40
9, 44880, Note_off_c, 7, 51, 64
9, 44880, Note_on_c, 7, 51, 41
9, 45000, Note_off_c, 7, 51, 64
9, 45000, Note_on_c, 7, 51, 43
9, 45120, Note_off_c, 7, 51, 64
9, 45120, Note_on_c, 7, 51, 41
9, 45360, Note_off_c, 7, 51, 64
9, 45720, Note_on_c, 7, 51, 44
9, 45840, Note_off_c, 7, 51, 64
9, 45840, Note_on_c, 7, 51, 34
9, 45960, Note_off_c, 7, 51, 64
9, 45960, Note_on_c, 7, 51, 50
9, 46080, Note_off_c, 7, 51, 64
9, 46080, Note_on_c, 7, 51, 35
9, 46320, Note_off_c, 7, 51, 64
9, 46560, Note_on_c, 7, 51, 38
9, 46800, Note_off_c, 7, 51, 64
9, 47040, Note_on_c, 7, 51, 40
9, 47280, Note_off_c, 7, 51, 64
9, 49920, Note_on_c, 7, 44, 45
9, 50400, Note_off_c, 7, 44, 64
9, 50400, Note_on_c, 7, 44, 43
9, 50580, Note_off_c, 7, 44, 64
9, 50640, Note_on_c, 7, 44, 39
9, 50820, Note_off_c, 7, 44, 64
9, 50880, Note_on_c, 7, 46, 42
9, 51360, Note_off_c, 7, 46, 64
9, 53760, Note_on_c, 7, 44, 40
9, 54240, Note_off_c, 7, 44, 64
9, 54240, Note_on_c, 7, 44, 29
9, 54360, Note_off_c, 7, 44, 64
9, 54360, Note_on_c, 7, 44, 36
9, 54480, Note_off_c, 7, 44, 64
9, 54480, Note_on_c, 7, 46, 40
9, 54600, Note_off_c, 7, 46, 64
9, 54600, Note_on_c, 7, 48, 43
9, 54720, Note_off_c, 7, 48, 64
9, 54720, Note_on_c, 7, 49, 40
9, 55200, Note_off_c, 7, 49, 64
9, 57120, Note_on_c, 7, 55, 43
9, 57180, Note_off_c, 7, 55, 64
9, 57240, Note_on_c, 7, 51, 52
9, 57300, Note_off_c, 7, 51, 64
9, 57360, Note_on_c, 7, 55, 44
9, 57420, Note_off_c, 7, 55, 64
9, 57480, Note_on_c, 7, 51, 44
9, 57540, Note_off_c, 7, 51, 64
9, 57600, Note_on_c, 7, 56, 54
9, 57660, Note_off_c, 7, 56, 64
9, 57720, Note_on_c, 7, 51, 54
9, 57780, Note_off_c, 7, 51, 64
9, 57840, Note_on_c, 7, 56, 46
9, 57900, Note_off_c, 7, 56, 64
9, 57960, Note_on_c, 7, 51, 66
9, 58020, Note_off_c, 7, 51, 64
9, 58080, Note_on_c, 7, 58, 45
9, 58140, Note_off_c, 7, 58, 64
9, 58200, Note_on_c, 7, 51, 58
9, 58260, Note_off_c, 7, 51, 64
9, 58320, Note_on_c, 7, 61, 43
9, 58380, Note_off_c, 7, 61, 64
9, 58440, Note_on_c, 7, 51, 61
9, 58500, Note_off_c, 7, 51, 64
9, 58560, Note_on_c, 7, 60, 67
9, 58620, Note_off_c, 7, 60, 64
9, 58680, Note_on_c, 7, 51, 66
9, 58740, Note_off_c, 7, 51, 64
9, 58800, Note_on_c, 7, 56, 62
9, 58860, Note_off_c, 7, 56, 64
9, 58920, Note_on_c, 7, 60, 62
9, 58980, Note_off_c, 7, 60, 64
9, 59040, Note_on_c, 7, 61, 62
9, 59100, Note_off_c, 7, 61, 64
9, 59160, Note_on_c, 7, 58, 72
9, 59220, Note_off_c, 7, 58, 64
9, 59280, Note_on_c, 7, 55, 101
9, 59340, Note_off_c, 7, 55, 64
9, 59400, Note_on_c, 7, 51, 95
9, 59460, Note_off_c, 7, 51, 64
9, 59520, Note_on_c, 7, 56, 84
9, 59580, Note_off_c, 7, 56, 64
9, 59640, Note_on_c, 7, 51, 98
9, 59700, Note_off_c, 7, 51, 64
9, 59760, Note_on_c, 7, 48, 110
9, 59820, Note_off_c, 7, 48, 64
9, 59880, Note_on_c, 7, 44, 99
9, 59940, Note_off_c, 7, 44, 64
9, 60000, Note_on_c, 7, 41, 99
9, 60180, Note_off_c, 7, 41, 64
9, 60210, Note_on_c, 7, 53, 99
9, 60240, Note_off_c, 7, 53, 64
9, 60240, Note_on_c, 7, 53, 101
9, 60420, Note_off_c, 7, 53, 64
9, 60450, Note_on_c, 7, 53, 99
9, 60480, Note_off_c, 7, 53, 64
9, 60480, Note_on_c, 7, 51, 104
9, 60720, Note_off_c, 7, 51, 64
9, 61650, Note_on_c, 7, 51, 99
9, 61680, Note_off_c, 7, 51, 64
9, 61680, Note_on_c, 7, 46, 101
9, 61860, Note_off_c, 7, 46, 64
9, 61890, Note_on_c, 7, 46, 99
9, 61920, Note_off_c, 7, 46, 64
9, 61920, Note_on_c, 7, 51, 105
9, 62040, Note_off_c, 7, 51, 64
9, 63360, Program_c, 7, 45
9, 63360, Note_on_c, 7, 56, 94
9, 63600, Note_off_c, 7, 56, 64
9, 64320, Note_on_c, 7, 51, 95
9, 64560, Note_off_c, 7, 51, 64
9, 67200, Note_on_c, 7, 56, 89
9, 67440, Note_off_c, 7, 56, 64
9, 68160, Note_on_c, 7, 49, 95
9, 68400, Note_off_c, 7, 49, 64
9, 70320, Program_c, 7, 48
9, 70560, Note_on_c, 7, 61, 61
9, 70680, Note_off_c, 7, 61, 64
9, 70800, Note_on_c, 7, 58, 57
9, 70920, Note_off_c, 7, 58, 64
9, 71040, Note_on_c, 7, 60, 50
9, 71160, Note_off_c, 7, 60, 64
9, 71280, Note_on_c, 7, 56, 46
9, 71400, Note_off_c, 7, 56, 64
9, 71520, Note_on_c, 7, 58, 62
9, 71640, Note_off_c, 7, 58, 64
9, 71760, Note_on_c, 7, 51, 43
9, 71880, Note_off_c, 7, 51, 64
9, 72000, Note_on_c, 7, 56, 45
9, 72120, Note_off_c, 7, 56, 64
9, 72240, Program_c, 7, 45
9, 72480, Note_on_c, 7, 61, 68
9, 72720, Note_off_c, 7, 61, 64
9, 72960, Note_on_c, 7, 60, 72
9, 73200, Note_off_c, 7, 60, 64
9, 73440, Note_on_c, 7, 53, 59
9, 73680, Note_off_c, 7, 53, 64
9, 73920, Note_on_c, 7, 51, 77
9, 74160, Note_off_c, 7, 51, 64
9, 74640, Note_on_c, 7, 46, 58
9, 74880, Note_off_c, 7, 46, 64
9, 74880, Note_on_c, 7, 51, 94
9, 75120, Note_off_c, 7, 51, 64
9, 75120, Note_on_c, 7, 46, 95
9, 75360, Note_off_c, 7, 46, 64
9, 75360, Note_on_c, 7, 51, 95
9, 75600, Note_off_c, 7, 51, 64
9, 75600, Note_on_c, 7, 46, 95
9, 75840, Note_off_c, 7, 46, 64
9, 75840, Note_on_c, 7, 51, 94
9, 75960, Note_off_c, 7, 51, 64
9, 76560, Note_on_c, 7, 51, 81
9, 76680, Note_off_c, 7, 51, 64
9, 76800, Note_on_c, 7, 56, 86
9, 77040, Note_off_c, 7, 56, 64
9, 77520, Note_on_c, 7, 48, 94
9, 77760, Note_off_c, 7, 48, 64
9, 77760, Note_on_c, 7, 49, 84
9, 78000, Note_off_c, 7, 49, 64
9, 78480, Note_on_c, 7, 50, 95
9, 78720, Note_off_c, 7, 50, 64
9, 78720, Note_on_c, 7, 51, 89
9, 78960, Note_off_c, 7, 51, 64
9, 78960, Note_on_c, 7, 51, 94
9, 79200, Note_off_c, 7, 51, 64
9, 79200, Program_c, 7, 48
9, 79440, Note_on_c, 7, 51, 74
9, 79680, Note_off_c, 7, 51, 64
9, 79680, Note_on_c, 7, 56, 73
9, 79760, Note_off_c, 7, 56, 64
9, 79760, Note_on_c, 7, 44, 61
9, 79800, Note_off_c, 7, 44, 64
9, 79840, Note_on_c, 7, 44, 58
9, 79880, Note_off_c, 7, 44, 64
9, 79920, Note_on_c, 7, 44, 56
9, 79960, Note_off_c, 7, 44, 64
9, 80000, Note_on_c, 7, 44, 50
9, 80040, Note_off_c, 7, 44, 64
9, 80080, Note_on_c, 7, 44, 49
9, 80120, Note_off_c, 7, 44, 64
9, 80160, Note_on_c, 7, 48, 43
9, 80160, Note_on_c, 7, 44, 46
9, 80240, Note_off_c, 7, 44, 64
9, 80240, Note_on_c, 7, 44, 40
9, 80320, Note_off_c, 7, 44, 64
9, 80320, Note_on_c, 7, 44, 43
9, 80400, Note_off_c, 7, 44, 64
9, 80400, Note_off_c, 7, 48, 64
9, 80400, Note_on_c, 7, 48, 43
9, 80400, Note_on_c, 7, 44, 43
9, 80480, Note_off_c, 7, 44, 64
9, 80480, Note_on_c, 7, 44, 42
9, 80560, Note_off_c, 7, 44, 64
9, 80560, Note_on_c, 7, 44, 43
9, 80640, Note_off_c, 7, 44, 64
9, 80640, Note_off_c, 7, 48, 64
9, 80640, Note_on_c, 7, 49, 60
9, 80640, Note_on_c, 7, 44, 42
9, 80720, Note_off_c, 7, 44, 64
9, 80720, Note_on_c, 7, 44, 43
9, 80800, Note_off_c, 7, 44, 64
9, 80800, Note_on_c, 7, 44, 43
9, 80880, Note_off_c, 7, 44, 64
9, 80880, Note_off_c, 7, 49, 64
9, 80880, Note_on_c, 7, 44, 43
9, 80960, Note_off_c, 7, 44, 64
9, 80960, Note_on_c, 7, 44, 41
9, 81040, Note_off_c, 7, 44, 64
9, 81040, Note_on_c, 7, 44, 42
9, 81120, Note_off_c, 7, 44, 64
9, 81120, Note_on_c, 7, 49, 45
9, 81120, Note_on_c, 7, 44, 43
9, 81200, Note_off_c, 7, 44, 64
9, 81200, Note_on_c, 7, 44, 39
9, 81280, Note_off_c, 7, 44, 64
9, 81280, Note_on_c, 7, 44, 43
9, 81360, Note_off_c, 7, 44, 64
9, 81360, Note_off_c, 7, 49, 64
9, 81360, Note_on_c, 7, 49, 60
9, 81360, Note_on_c, 7, 44, 38
9, 81440, Note_off_c, 7, 44, 64
9, 81440, Note_on_c, 7, 44, 41
9, 81520, Note_off_c, 7, 44, 64
9, 81520, Note_on_c, 7, 44, 43
9, 81600, Note_off_c, 7, 44, 64
9, 81600, Note_off_c, 7, 49, 64
9, 81600, Note_on_c, 7, 48, 43
9, 81600, Note_on_c, 7, 44, 44
9, 81840, Note_off_c, 7, 44, 64
9, 81840, Note_off_c, 7, 48, 64
9, 82080, Note_on_c, 7, 48, 99
9, 82120, Note_off_c, 7, 48, 64
9, 82160, Note_on_c, 7, 48, 105
9, 82200, Note_off_c, 7, 48, 64
9, 82240, Note_on_c, 7, 48, 105
9, 82280, Note_off_c, 7, 48, 64
9, 82320, Note_on_c, 7, 48, 104
9, 82400, Note_off_c, 7, 48, 64
9, 82400, Note_on_c, 7, 46, 99
9, 82480, Note_off_c, 7, 46, 64
9, 82480, Note_on_c, 7, 44, 99
9, 82560, Note_off_c, 7, 44, 64
9, 82560, Note_on_c, 7, 43, 62
9, 82800, Note_off_c, 7, 43, 64
9, 83040, Note_on_c, 7, 44, 98
9, 83080, Note_off_c, 7, 44, 64
9, 83120, Note_on_c, 7, 48, 101
9, 83160, Note_off_c, 7, 48, 64
9, 83200, Note_on_c, 7, 48, 101
9, 83240, Note_off_c, 7, 48, 64
9, 83280, Note_on_c, 7, 48, 104
9, 83360, Note_off_c, 7, 48, 64
9, 83360, Note_on_c, 7, 46, 99
9, 83440, Note_off_c, 7, 46, 64
9, 83440, Note_on_c, 7, 44, 99
9, 83520, Note_off_c, 7, 44, 64
9, 83520, Note_on_c, 7, 43, 65
9, 83760, Note_off_c, 7, 43, 64
9, 84000, Note_on_c, 7, 44, 95
9, 84040, Note_off_c, 7, 44, 64
9, 84080, Note_on_c, 7, 48, 99
9, 84120, Note_off_c, 7, 48, 64
9, 84160, Note_on_c, 7, 48, 99
9, 84200, Note_off_c, 7, 48, 64
9, 84240, Note_on_c, 7, 48, 104
9, 84320, Note_off_c, 7, 48, 64
9, 84320, Note_on_c, 7, 46, 99
9, 84400, Note_off_c, 7, 46, 64
9, 84400, Note_on_c, 7, 44, 99
9, 84480, Note_off_c, 7, 44, 64
9, 84480, Note_on_c, 7, 43, 107
9, 84720, Note_off_c, 7, 43, 64
9, 84960, Note_on_c, 7, 41, 105
9, 85200, Note_off_c, 7, 41, 64
9, 85440, Note_on_c, 7, 50, 127
9, 85520, Note_off_c, 7, 50, 64
9, 85520, Note_on_c, 7, 50, 123
9, 85600, Note_off_c, 7, 50, 64
9, 85600, Note_on_c, 7, 50, 119
9, 85680, Note_off_c, 7, 50, 64
9, 85680, Note_on_c, 7, 50, 119
9, 85760, Note_off_c, 7, 50, 64
9, 85760, Note_on_c, 7, 50, 119
9, 85840, Note_off_c, 7, 50, 64
9, 85840, Note_on_c, 7, 50, 119
9, 85920, Note_off_c, 7, 50, 64
9, 85920, Note_on_c, 7, 51, 123
9, 86000, Note_off_c, 7, 51, 64
9, 86000, Note_on_c, 7, 51, 119
9, 86080, Note_off_c, 7, 51, 64
9, 86080, Note_on_c, 7, 51, 125
9, 86160, Note_off_c, 7, 51, 64
9, 86160, Note_on_c, 7, 51, 123
9, 86240, Note_off_c, 7, 51, 64
9, 86240, Note_on_c, 7, 51, 125
9, 86320, Note_off_c, 7, 51, 64
9, 86320, Note_on_c, 7, 51, 125
9, 86400, Note_off_c, 7, 51, 64
9, 86400, Note_on_c, 7, 44, 105
9, 86640, Note_off_c, 7, 44, 64
9, 92160, Note_on_c, 7, 49, 42
9, 92640, Note_off_c, 7, 49, 64
9, 92640, Note_on_c, 7, 48, 43
9, 92880, Note_off_c, 7, 48, 64
9, 92880, Note_on_c, 7, 49, 43
9, 93120, Note_off_c, 7, 49, 64
9, 93120, Note_on_c, 7, 48, 38
9, 93360, Note_off_c, 7, 48, 64
9, 93360, Note_on_c, 7, 49, 53
9, 93840, Note_off_c, 7, 49, 64
9, 93840, Note_on_c, 7, 50, 57
9, 93920, Note_off_c, 7, 50, 64
9, 93920, Note_on_c, 7, 51, 59
9, 94000, Note_off_c, 7, 51, 64
9, 94000, Note_on_c, 7, 53, 57
9, 94080, Note_off_c, 7, 53, 64
9, 94080, Note_on_c, 7, 51, 58
9, 94320, Note_off_c, 7, 51, 64
9, 94560, Note_on_c, 7, 51, 53
9, 94800, Note_off_c, 7, 51, 64
9, 95040, Note_on_c, 7, 44, 43
9, 95280, Note_off_c, 7, 44, 64
9, 95760, Note_on_c, 7, 48, 42
9, 96000, Note_off_c, 7, 48, 64
9, 96000, Note_on_c, 7, 49, 50
9, 96240, Note_off_c, 7, 49, 64
9, 96720, Note_on_c, 7, 49, 45
9, 96960, Note_off_c, 7, 49, 64
9, 96960, Note_on_c, 7, 51, 44
9, 97200, Note_off_c, 7, 51, 64
9, 97680, Note_on_c, 7, 51, 45
9, 97920, Note_off_c, 7, 51, 64
9, 97920, Note_on_c, 7, 44, 43
9, 98160, Note_off_c, 7, 44, 64
9, 98400, Note_on_c, 7, 48, 45
9, 98640, Note_off_c, 7, 48, 64
9, 98880, Note_on_c, 7, 49, 44
9, 99120, Note_off_c, 7, 49, 64
9, 99360, Note_on_c, 7, 50, 43
9, 99600, Note_off_c, 7, 50, 64
9, 99840, Note_on_c, 7, 51, 93
9, 99920, Note_off_c, 7, 51, 64
9, 99920, Note_on_c, 7, 51, 89
9, 100000, Note_off_c, 7, 51, 64
9, 100000, Note_on_c, 7, 51, 89
9, 100080, Note_off_c, 7, 51, 64
9, 100080, Note_on_c, 7, 51, 89
9, 100160, Note_off_c, 7, 51, 64
9, 100160, Note_on_c, 7, 51, 86
9, 100240, Note_off_c, 7, 51, 64
9, 100240, Note_on_c, 7, 51, 94
9, 100320, Note_off_c, 7, 51, 64
9, 100320, Note_on_c, 7, 52, 123
9, 100400, Note_off_c, 7, 52, 64
9, 100400, Note_on_c, 7, 52, 112
9, 100480, Note_off_c, 7, 52, 64
9, 100480, Note_on_c, 7, 52, 112
9, 100560, Note_off_c, 7, 52, 64
9, 100560, Note_on_c, 7, 52, 95
9, 100640, Note_off_c, 7, 52, 64
9, 100640, Note_on_c, 7, 52, 101
9, 100720, Note_off_c, 7, 52, 64
9, 100720, Note_on_c, 7, 52, 101
9, 100800, Note_off_c, 7, 52, 64
9, 100800, Note_on_c, 7, 51, 99
9, 101040, Note_off_c, 7, 51, 64
9, 102720, Note_on_c, 7, 48, 67
9, 103680, Note_off_c, 7, 48, 64
9, 103680, Note_on_c, 7, 49, 44
9, 103800, Note_off_c, 7, 49, 64
9, 104640, Note_on_c, 7, 44, 42
9, 105600, Note_off_c, 7, 44, 64
9, 105600, Note_on_c, 7, 44, 42
9, 106560, Note_off_c, 7, 44, 64
9, 106560, Note_on_c, 7, 44, 52
9, 107520, Note_off_c, 7, 44, 64
9, 107520, Note_on_c, 7, 44, 43
9, 108480, Note_off_c, 7, 44, 64
9, 108480, Note_on_c, 7, 44, 46
9, 108600, Note_off_c, 7, 44, 64
9, 109920, Note_on_c, 7, 51, 42
9, 110400, Note_off_c, 7, 51, 64
9, 110400, Note_on_c, 7, 56, 39
9, 110520, Note_off_c, 7, 56, 64
9, 110520, End_track
10, 0, Start_track
10, 0, Title_t, "Contrabasses"
10, 0, Program_c, 8, 48
10, 0, Control_c, 8, 7, 100
10, 0, Control_c, 8, 10, 119
10, 0, Control_c, 8, 93, 0
10, 0, Control_c, 8, 91, 66
10, 0, Note_on_c, 8, 32, 29
10, 480, Note_off_c, 8, 32, 64
10, 480, Note_on_c, 8, 32, 29
10, 720, Note_off_c, 8, 32, 64
10, 720, Note_on_c, 8, 32, 29
10, 960, Note_off_c, 8, 32, 64
10, 960, Note_on_c, 8, 34, 29
10, 1440, Note_off_c, 8, 34, 64
10, 3840, Note_on_c, 8, 32, 37
10, 4320, Note_off_c, 8, 32, 64
10, 4320, Note_on_c, 8, 32, 29
10, 4440, Note_off_c, 8, 32, 64
10, 4440, Note_on_c, 8, 32, 38
10, 4560, Note_off_c, 8, 32, 64
10, 4560, Note_on_c, 8, 34, 43
10, 4680, Note_off_c, 8, 34, 64
10, 4680, Note_on_c, 8, 36, 40
10, 4800, Note_off_c, 8, 36, 64
10, 4800, Note_on_c, 8, 37, 32
10, 5280, Note_off_c, 8, 37, 64
10, 7200, Note_on_c, 8, 43, 61
10, 7260, Note_off_c, 8, 43, 64
10, 7320, Note_on_c, 8, 39, 33
10, 7380, Note_off_c, 8, 39, 64
10, 7440, Note_on_c, 8, 43, 44
10, 7500, Note_off_c, 8, 43, 64
10, 7560, Note_on_c, 8, 39, 56
10, 7620, Note_off_c, 8, 39, 64
10, 7680, Note_on_c, 8, 44, 35
10, 7740, Note_off_c, 8, 44, 64
10, 7800, Note_on_c, 8, 39, 35
10, 7860, Note_off_c, 8, 39, 64
10, 7920, Note_on_c, 8, 44, 40
10, 7980, Note_off_c, 8, 44, 64
10, 8040, Note_on_c, 8, 39, 52
10, 8100, Note_off_c, 8, 39, 64
10, 8160, Note_on_c, 8, 46, 35
10, 8220, Note_off_c, 8, 46, 64
10, 8280, Note_on_c, 8, 39, 30
10, 8340, Note_off_c, 8, 39, 64
10, 8400, Note_on_c, 8, 49, 43
10, 8460, Note_off_c, 8, 49, 64
10, 8520, Note_on_c, 8, 39, 43
10, 8580, Note_off_c, 8, 39, 64
10, 8640, Note_on_c, 8, 48, 53
10, 8700, Note_off_c, 8, 48, 64
10, 8760, Note_on_c, 8, 39, 40
10, 8820, Note_off_c, 8, 39, 64
10, 8880, Note_on_c, 8, 44, 62
10, 8940, Note_off_c, 8, 44, 64
10, 9000, Note_on_c, 8, 48, 44
10, 9060, Note_off_c, 8, 48, 64
10, 9120, Note_on_c, 8, 49, 45
10, 9180, Note_off_c, 8, 49, 64
10, 9240, Note_on_c, 8, 46, 72
10, 9300, Note_off_c, 8, 46, 64
10, 9360, Note_on_c, 8, 43, 86
10, 9420, Note_off_c, 8, 43, 64
10, 9480, Note_on_c, 8, 39, 85
10, 9540, Note_off_c, 8, 39, 64
10, 9600, Note_on_c, 8, 44, 74
10, 9660, Note_off_c, 8, 44, 64
10, 9720, Note_on_c, 8, 39, 94
10, 9780, Note_off_c, 8, 39, 64
10, 9840, Note_on_c, 8, 36, 101
10, 9900, Note_off_c, 8, 36, 64
10, 9960, Note_on_c, 8, 32, 99
10, 10020, Note_off_c, 8, 32, 64
10, 10080, Note_on_c, 8, 29, 105
10, 10260, Note_off_c, 8, 29, 64
10, 10290, Note_on_c, 8, 41, 101
10, 10320, Note_off_c, 8, 41, 64
10, 10320, Note_on_c, 8, 41, 105
10, 10500, Note_off_c, 8, 41, 64
10, 10530, Note_on_c, 8, 41, 99
10, 10560, Note_off_c, 8, 41, 64
10, 10560, Note_on_c, 8, 39, 99
10, 10800, Note_off_c, 8, 39, 64
10, 11730, Note_on_c, 8, 39, 99
10, 11760, Note_off_c, 8, 39, 64
10, 11760, Note_on_c, 8, 34, 98
10, 11940, Note_off_c, 8, 34, 64
10, 11970, Note_on_c, 8, 34, 94
10, 12000, Note_off_c, 8, 34, 64
10, 12000, Note_on_c, 8, 39, 99
10, 12120, Note_off_c, 8, 39, 64
10, 13440, Note_on_c, 8, 32, 40
10, 13560, Note_off_c, 8, 32, 64
10, 13560, Note_on_c, 8, 36, 41
10, 13680, Note_off_c, 8, 36, 64
10, 13680, Note_on_c, 8, 32, 52
10, 13800, Note_off_c, 8, 32, 64
10, 13800, Note_on_c, 8, 36, 43
10, 13920, Note_off_c, 8, 36, 64
10, 13920, Note_on_c, 8, 32, 58
10, 14040, Note_off_c, 8, 32, 64
10, 14040, Note_on_c, 8, 36, 48
10, 14160, Note_off_c, 8, 36, 64
10, 14160, Note_on_c, 8, 32, 50
10, 14280, Note_off_c, 8, 32, 64
10, 14280, Note_on_c, 8, 36, 63
10, 14400, Note_off_c, 8, 36, 64
10, 14400, Note_on_c, 8, 34, 65
10, 14520, Note_off_c, 8, 34, 64
10, 14520, Note_on_c, 8, 37, 80
10, 14640, Note_off_c, 8, 37, 64
10, 14640, Note_on_c, 8, 34, 82
10, 14760, Note_off_c, 8, 34, 64
10, 14760, Note_on_c, 8, 37, 93
10, 14880, Note_off_c, 8, 37, 64
10, 14880, Note_on_c, 8, 34, 95
10, 15000, Note_off_c, 8, 34, 64
10, 15000, Note_on_c, 8, 37, 99
10, 15120, Note_off_c, 8, 37, 64
10, 15120, Note_on_c, 8, 36, 107
10, 15240, Note_off_c, 8, 36, 64
10, 15240, Note_on_c, 8, 39, 105
10, 15360, Note_off_c, 8, 39, 64
10, 15360, Note_on_c, 8, 37, 52
10, 15480, Note_off_c, 8, 37, 64
10, 15480, Note_on_c, 8, 41, 60
10, 15600, Note_off_c, 8, 41, 64
10, 15600, Note_on_c, 8, 37, 74
10, 15720, Note_off_c, 8, 37, 64
10, 15720, Note_on_c, 8, 34, 73
10, 15840, Note_off_c, 8, 34, 64
10, 15840, Note_on_c, 8, 39, 68
10, 16080, Note_off_c, 8, 39, 64
10, 16080, Note_on_c, 8, 39, 43
10, 16320, Note_off_c, 8, 39, 64
10, 16320, Note_on_c, 8, 44, 59
10, 16560, Note_off_c, 8, 44, 64
10, 16560, Note_on_c, 8, 39, 61
10, 16800, Note_off_c, 8, 39, 64
10, 16800, Note_on_c, 8, 32, 43
10, 16920, Note_off_c, 8, 32, 64
10, 17280, Note_on_c, 8, 43, 32
10, 17520, Note_off_c, 8, 43, 64
10, 17760, Note_on_c, 8, 39, 29
10, 18000, Note_off_c, 8, 39, 64
10, 18240, Note_on_c, 8, 44, 43
10, 18480, Note_off_c, 8, 44, 64
10, 19200, Note_on_c, 8, 40, 44
10, 19440, Note_off_c, 8, 40, 64
10, 19680, Note_on_c, 8, 36, 44
10, 19920, Note_off_c, 8, 36, 64
10, 20160, Note_on_c, 8, 41, 39
10, 20400, Note_off_c, 8, 41, 64
10, 21120, Note_on_c, 8, 38, 43
10, 21360, Note_off_c, 8, 38, 64
10, 21600, Note_on_c, 8, 34, 42
10, 21840, Note_off_c, 8, 34, 64
10, 22080, Note_on_c, 8, 39, 34
10, 22320, Note_off_c, 8, 39, 64
10, 22560, Note_on_c, 8, 36, 71
10, 22680, Note_off_c, 8, 36, 64
10, 22680, Note_on_c, 8, 48, 45
10, 22800, Note_off_c, 8, 48, 64
10, 22800, Note_on_c, 8, 48, 61
10, 22920, Note_off_c, 8, 48, 64
10, 22920, Note_on_c, 8, 48, 63
10, 23040, Note_off_c, 8, 48, 64
10, 23040, Note_on_c, 8, 46, 61
10, 23160, Note_off_c, 8, 46, 64
10, 24000, Note_on_c, 8, 46, 62
10, 24120, Note_off_c, 8, 46, 64
10, 24960, Note_on_c, 8, 34, 127
10, 25080, Note_off_c, 8, 34, 64
10, 25080, Note_on_c, 8, 46, 125
10, 25140, Note_off_c, 8, 46, 64
10, 25200, Note_on_c, 8, 46, 123
10, 25260, Note_off_c, 8, 46, 64
10, 25320, Note_on_c, 8, 46, 119
10, 25380, Note_off_c, 8, 46, 64
10, 25440, Note_on_c, 8, 46, 119
10, 25560, Note_off_c, 8, 46, 64
10, 25560, Note_on_c, 8, 41, 115
10, 25680, Note_off_c, 8, 41, 64
10, 25680, Note_on_c, 8, 42, 112
10, 25800, Note_off_c, 8, 42, 64
10, 25800, Note_on_c, 8, 39, 127
10, 25920, Note_off_c, 8, 39, 64
10, 25920, Note_on_c, 8, 34, 104
10, 26040, Note_off_c, 8, 34, 64
10, 26040, Note_on_c, 8, 41, 99
10, 26160, Note_off_c, 8, 41, 64
10, 26160, Note_on_c, 8, 42, 95
10, 26280, Note_off_c, 8, 42, 64
10, 26280, Note_on_c, 8, 39, 127
10, 26400, Note_off_c, 8, 39, 64
10, 26400, Note_on_c, 8, 34, 104
10, 26520, Note_off_c, 8, 34, 64
10, 26520, Note_on_c, 8, 41, 98
10, 26640, Note_off_c, 8, 41, 64
10, 26640, Note_on_c, 8, 42, 101
10, 26760, Note_off_c, 8, 42, 64
10, 26760, Note_on_c, 8, 39, 127
10, 26880, Note_off_c, 8, 39, 64
10, 26880, Note_on_c, 8, 34, 125
10, 27000, Note_off_c, 8, 34, 64
10, 27120, Note_on_c, 8, 34, 42
10, 27240, Note_off_c, 8, 34, 64
10, 29760, Note_on_c, 8, 39, 57
10, 30000, Note_off_c, 8, 39, 64
10, 30720, Note_on_c, 8, 38, 57
10, 30960, Note_off_c, 8, 38, 64
10, 31680, Note_on_c, 8, 39, 31
10, 31920, Note_off_c, 8, 39, 64
10, 32160, Note_on_c, 8, 43, 38
10, 32400, Note_off_c, 8, 43, 64
10, 32640, Note_on_c, 8, 44, 53
10, 32880, Note_off_c, 8, 44, 64
10, 33120, Note_on_c, 8, 45, 45
10, 33360, Note_off_c, 8, 45, 64
10, 33600, Note_on_c, 8, 46, 60
10, 33840, Note_off_c, 8, 46, 64
10, 34080, Note_on_c, 8, 34, 56
10, 34320, Note_off_c, 8, 34, 64
10, 34560, Note_on_c, 8, 39, 64
10, 34680, Note_off_c, 8, 39, 64
10, 34680, Note_on_c, 8, 46, 50
10, 34740, Note_off_c, 8, 46, 64
10, 34800, Note_on_c, 8, 46, 80
10, 34860, Note_off_c, 8, 46, 64
10, 34920, Note_on_c, 8, 46, 86
10, 34980, Note_off_c, 8, 46, 64
10, 35040, Note_on_c, 8, 46, 94
10, 35100, Note_off_c, 8, 46, 64
10, 35160, Note_on_c, 8, 46, 104
10, 35220, Note_off_c, 8, 46, 64
10, 35280, Note_on_c, 8, 46, 125
10, 35340, Note_off_c, 8, 46, 64
10, 35400, Note_on_c, 8, 46, 125
10, 35460, Note_off_c, 8, 46, 64
10, 35520, Note_on_c, 8, 43, 65
10, 35760, Note_off_c, 8, 43, 64
10, 38880, Note_on_c, 8, 34, 86
10, 39060, Note_off_c, 8, 34, 64
10, 39090, Note_on_c, 8, 34, 90
10, 39120, Note_off_c, 8, 34, 64
10, 39120, Note_on_c, 8, 34, 90
10, 39300, Note_off_c, 8, 34, 64
10, 39330, Note_on_c, 8, 34, 94
10, 39360, Note_off_c, 8, 34, 64
10, 39360, Note_on_c, 8, 39, 95
10, 39480, Note_off_c, 8, 39, 64
10, 39840, Note_on_c, 8, 34, 89
10, 40020, Note_off_c, 8, 34, 64
10, 40050, Note_on_c, 8, 34, 93
10, 40080, Note_off_c, 8, 34, 64
10, 40080, Note_on_c, 8, 34, 94
10, 40260, Note_off_c, 8, 34, 64
10, 40290, Note_on_c, 8, 34, 94
10, 40320, Note_off_c, 8, 34, 64
10, 40320, Note_on_c, 8, 39, 94
10, 40440, Note_off_c, 8, 39, 64
10, 40440, Note_on_c, 8, 39, 44
10, 40800, Note_off_c, 8, 39, 64
10, 40800, Note_on_c, 8, 37, 41
10, 41280, Note_off_c, 8, 37, 64
10, 41280, Note_on_c, 8, 35, 45
10, 41760, Note_off_c, 8, 35, 64
10, 41760, Note_on_c, 8, 31, 43
10, 42000, Note_off_c, 8, 31, 64
10, 42000, Note_on_c, 8, 32, 44
10, 42240, Note_off_c, 8, 32, 64
10, 42240, Note_on_c, 8, 39, 57
10, 42720, Note_off_c, 8, 39, 64
10, 42720, Note_on_c, 8, 39, 34
10, 42780, Note_off_c, 8, 39, 64
10, 42780, Note_on_c, 8, 37, 76
10, 42840, Note_off_c, 8, 37, 64
10, 42840, Note_on_c, 8, 36, 85
10, 42900, Note_off_c, 8, 36, 64
10, 42900, Note_on_c, 8, 37, 81
10, 42960, Note_off_c, 8, 37, 64
10, 42960, Note_on_c, 8, 36, 78
10, 43020, Note_off_c, 8, 36, 64
10, 43020, Note_on_c, 8, 37, 69
10, 43080, Note_off_c, 8, 37, 64
10, 43080, Note_on_c, 8, 39, 44
10, 43140, Note_off_c, 8, 39, 64
10, 43140, Note_on_c, 8, 37, 43
10, 43200, Note_off_c, 8, 37, 64
10, 43200, Note_on_c, 8, 35, 43
10, 43680, Note_off_c, 8, 35, 64
10, 43680, Note_on_c, 8, 31, 43
10, 43920, Note_off_c, 8, 31, 64
10, 43920, Note_on_c, 8, 32, 48
10, 44160, Note_off_c, 8, 32, 64
10, 44160, Note_on_c, 8, 39, 53
10, 44280, Note_off_c, 8, 39, 64
10, 44760, Note_on_c, 8, 39, 35
10, 44880, Note_off_c, 8, 39, 64
10, 44880, Note_on_c, 8, 39, 33
10, 45000, Note_off_c, 8, 39, 64
10, 45000, Note_on_c, 8, 39, 38
10, 45120, Note_off_c, 8, 39, 64
10, 45120, Note_on_c, 8, 39, 38
10, 45360, Note_off_c, 8, 39, 64
10, 45720, Note_on_c, 8, 39, 35
10, 45840, Note_off_c, 8, 39, 64
10, 45840, Note_on_c, 8, 39, 38
10, 45960, Note_off_c, 8, 39, 64
10, 45960, Note_on_c, 8, 39, 35
10, 46080, Note_off_c, 8, 39, 64
10, 46080, Note_on_c, 8, 39, 43
10, 46320, Note_off_c, 8, 39, 64
10, 46560, Note_on_c, 8, 39, 33
10, 46800, Note_off_c, 8, 39, 64
10, 47040, Note_on_c, 8, 39, 38
10, 47280, Note_off_c, 8, 39, 64
10, 49920, Note_on_c, 8, 32, 45
10, 50400, Note_off_c, 8, 32, 64
10, 50400, Note_on_c, 8, 32, 43
10, 50580, Note_off_c, 8, 32, 64
10, 50640, Note_on_c, 8, 32, 39
10, 50820, Note_off_c, 8, 32, 64
10, 50880, Note_on_c, 8, 34, 42
10, 51360, Note_off_c, 8, 34, 64
10, 53760, Note_on_c, 8, 32, 40
10, 54240, Note_off_c, 8, 32, 64
10, 54240, Note_on_c, 8, 32, 29
10, 54360, Note_off_c, 8, 32, 64
10, 54360, Note_on_c, 8, 32, 36
10, 54480, Note_off_c, 8, 32, 64
10, 54480, Note_on_c, 8, 34, 40
10, 54600, Note_off_c, 8, 34, 64
10, 54600, Note_on_c, 8, 36, 43
10, 54720, Note_off_c, 8, 36, 64
10, 54720, Note_on_c, 8, 37, 40
10, 55200, Note_off_c, 8, 37, 64
10, 57120, Note_on_c, 8, 43, 43
10, 57180, Note_off_c, 8, 43, 64
10, 57240, Note_on_c, 8, 39, 52
10, 57300, Note_off_c, 8, 39, 64
10, 57360, Note_on_c, 8, 43, 44
10, 57420, Note_off_c, 8, 43, 64
10, 57480, Note_on_c, 8, 39, 44
10, 57540, Note_off_c, 8, 39, 64
10, 57600, Note_on_c, 8, 44, 54
10, 57660, Note_off_c, 8, 44, 64
10, 57720, Note_on_c, 8, 39, 54
10, 57780, Note_off_c, 8, 39, 64
10, 57840, Note_on_c, 8, 44, 46
10, 57900, Note_off_c, 8, 44, 64
10, 57960, Note_on_c, 8, 39, 66
10, 58020, Note_off_c, 8, 39, 64
10, 58080, Note_on_c, 8, 46, 45
10, 58140, Note_off_c, 8, 46, 64
10, 58200, Note_on_c, 8, 39, 58
10, 58260, Note_off_c, 8, 39, 64
10, 58320, Note_on_c, 8, 49, 43
10, 58380, Note_off_c, 8, 49, 64
10, 58440, Note_on_c, 8, 39, 61
10, 58500, Note_off_c, 8, 39, 64
10, 58560, Note_on_c, 8, 48, 67
10, 58620, Note_off_c, 8, 48, 64
10, 58680, Note_on_c, 8, 39, 66
10, 58740, Note_off_c, 8, 39, 64
10, 58800, Note_on_c, 8, 44, 62
10, 58860, Note_off_c, 8, 44, 64
10, 58920, Note_on_c, 8, 48, 62
10, 58980, Note_off_c, 8, 48, 64
10, 59040, Note_on_c, 8, 49, 62
10, 59100, Note_off_c, 8, 49, 64
10, 59160, Note_on_c, 8, 46, 72
10, 59220, Note_off_c, 8, 46, 64
10, 59280, Note_on_c, 8, 43, 101
10, 59340, Note_off_c, 8, 43, 64
10, 59400, Note_on_c, 8, 39, 95
10, 59460, Note_off_c, 8, 39, 64
10, 59520, Note_on_c, 8, 44, 84
10, 59580, Note_off_c, 8, 44, 64
10, 59640, Note_on_c, 8, 39, 98
10, 59700, Note_off_c, 8, 39, 64
10, 59760, Note_on_c, 8, 36, 110
10, 59820, Note_off_c, 8, 36, 64
10, 59880, Note_on_c, 8, 32, 99
10, 59940, Note_off_c, 8, 32, 64
10, 60000, Note_on_c, 8, 29, 99
10, 60180, Note_off_c, 8, 29, 64
10, 60210, Note_on_c, 8, 41, 99
10, 60240, Note_off_c, 8, 41, 64
10, 60240, Note_on_c, 8, 41, 101
10, 60420, Note_off_c, 8, 41, 64
10, 60450, Note_on_c, 8, 41, 99
10, 60480, Note_off_c, 8, 41, 64
10, 60480, Note_on_c, 8, 39, 104
10, 60720, Note_off_c, 8, 39, 64
10, 61650, Note_on_c, 8, 39, 99
10, 61680, Note_off_c, 8, 39, 64
10, 61680, Note_on_c, 8, 34, 101
10, 61860, Note_off_c, 8, 34, 64
10, 61890, Note_on_c, 8, 34, 99
10, 61920, Note_off_c, 8, 34, 64
10, 61920, Note_on_c, 8, 39, 105
10, 62040, Note_off_c, 8, 39, 64
10, 63360, Program_c, 8, 45
10, 63360, Note_on_c, 8, 44, 86
10, 63600, Note_off_c, 8, 44, 64
10, 64320, Note_on_c, 8, 39, 98
10, 64560, Note_off_c, 8, 39, 64
10, 67200, Note_on_c, 8, 44, 89
10, 67440, Note_off_c, 8, 44, 64
10, 68160, Note_on_c, 8, 37, 89
10, 68400, Note_off_c, 8, 37, 64
10, 70320, Program_c, 8, 48
10, 70560, Note_on_c, 8, 49, 61
10, 70680, Note_off_c, 8, 49, 64
10, 70800, Note_on_c, 8, 46, 57
10, 70920, Note_off_c, 8, 46, 64
10, 71040, Note_on_c, 8, 48, 50
10, 71160, Note_off_c, 8, 48, 64
10, 71280, Note_on_c, 8, 44, 46
10, 71400, Note_off_c, 8, 44, 64
10, 71520, Note_on_c, 8, 46, 62
10, 71640, Note_off_c, 8, 46, 64
10, 71760, Note_on_c, 8, 39, 43
10, 71880, Note_off_c, 8, 39, 64
10, 72000, Note_on_c, 8, 44, 45
10, 72120, Note_off_c, 8, 44, 64
10, 72240, Program_c, 8, 45
10, 72480, Note_on_c, 8, 49, 50
10, 72720, Note_off_c, 8, 49, 64
10, 72960, Note_on_c, 8, 48, 72
10, 73200, Note_off_c, 8, 48, 64
10, 73440, Note_on_c, 8, 41, 59
10, 73680, Note_off_c, 8, 41, 64
10, 73920, Note_on_c, 8, 39, 77
10, 74160, Note_off_c, 8, 39, 64
10, 74640, Note_on_c, 8, 34, 58
10, 74880, Note_off_c, 8, 34, 64
10, 74880, Note_on_c, 8, 39, 94
10, 75120, Note_off_c, 8, 39, 64
10, 75120, Note_on_c, 8, 34, 95
10, 75360, Note_off_c, 8, 34, 64
10, 75360, Note_on_c, 8, 39, 95
10, 75600, Note_off_c, 8, 39, 64
10, 75600, Note_on_c, 8, 34, 95
10, 75840, Note_off_c, 8, 34, 64
10, 75840, Note_on_c, 8, 39, 94
10, 75960, Note_off_c, 8, 39, 64
10, 76560, Note_on_c, 8, 39, 81
10, 76680, Note_off_c, 8, 39, 64
10, 76800, Note_on_c, 8, 44, 86
10, 77040, Note_off_c, 8, 44, 64
10, 77520, Note_on_c, 8, 36, 94
10, 77760, Note_off_c, 8, 36, 64
10, 77760, Note_on_c, 8, 37, 84
10, 78000, Note_off_c, 8, 37, 64
10, 78480, Note_on_c, 8, 38, 95
10, 78720, Note_off_c, 8, 38, 64
10, 78720, Note_on_c, 8, 39, 89
10, 78960, Note_off_c, 8, 39, 64
10, 78960, Note_on_c, 8, 39, 94
10, 79200, Note_off_c, 8, 39, 64
10, 79200, Program_c, 8, 48
10, 79440, Note_on_c, 8, 39, 74
10, 79680, Note_off_c, 8, 39, 64
10, 79680, Note_on_c, 8, 44, 73
10, 79760, Note_off_c, 8, 44, 64
10, 79760, Note_on_c, 8, 32, 61
10, 79800, Note_off_c, 8, 32, 64
10, 79840, Note_on_c, 8, 32, 58
10, 79880, Note_off_c, 8, 32, 64
10, 79920, Note_on_c, 8, 32, 56
10, 79960, Note_off_c, 8, 32, 64
10, 80000, Note_on_c, 8, 32, 50
10, 80040, Note_off_c, 8, 32, 64
10, 80080, Note_on_c, 8, 32, 49
10, 80120, Note_off_c, 8, 32, 64
10, 80160, Note_on_c, 8, 32, 46
10, 80240, Note_off_c, 8, 32, 64
10, 80240, Note_on_c, 8, 32, 40
10, 80320, Note_off_c, 8, 32, 64
10, 80320, Note_on_c, 8, 32, 43
10, 80400, Note_off_c, 8, 32, 64
10, 80400, Note_on_c, 8, 32, 43
10, 80480, Note_off_c, 8, 32, 64
10, 80480, Note_on_c, 8, 32, 42
10, 80560, Note_off_c, 8, 32, 64
10, 80560, Note_on_c, 8, 32, 43
10, 80640, Note_off_c, 8, 32, 64
10, 80640, Note_on_c, 8, 32, 42
10, 80720, Note_off_c, 8, 32, 64
10, 80720, Note_on_c, 8, 32, 43
10, 80800, Note_off_c, 8, 32, 64
10, 80800, Note_on_c, 8, 32, 43
10, 80880, Note_off_c, 8, 32, 64
10, 80880, Note_on_c, 8, 32, 43
10, 80960, Note_off_c, 8, 32, 64
10, 80960, Note_on_c, 8, 32, 41
10, 81040, Note_off_c, 8, 32, 64
10, 81040, Note_on_c, 8, 32, 42
10, 81120, Note_off_c, 8, 32, 64
10, 81120, Note_on_c, 8, 32, 43
10, 81200, Note_off_c, 8, 32, 64
10, 81200, Note_on_c, 8, 32, 39
10, 81280, Note_off_c, 8, 32, 64
10, 81280, Note_on_c, 8, 32, 43
10, 81360, Note_off_c, 8, 32, 64
10, 81360, Note_on_c, 8, 32, 38
10, 81440, Note_off_c, 8, 32, 64
10, 81440, Note_on_c, 8, 32, 41
10, 81520, Note_off_c, 8, 32, 64
10, 81520, Note_on_c, 8, 32, 43
10, 81600, Note_off_c, 8, 32, 64
10, 81600, Note_on_c, 8, 32, 44
10, 81840, Note_off_c, 8, 32, 64
10, 82080, Note_on_c, 8, 36, 99
10, 82120, Note_off_c, 8, 36, 64
10, 82160, Note_on_c, 8, 36, 105
10, 82200, Note_off_c, 8, 36, 64
10, 82240, Note_on_c, 8, 36, 105
10, 82280, Note_off_c, 8, 36, 64
10, 82320, Note_on_c, 8, 36, 104
10, 82400, Note_off_c, 8, 36, 64
10, 82400, Note_on_c, 8, 34, 99
10, 82480, Note_off_c, 8, 34, 64
10, 82480, Note_on_c, 8, 32, 99
10, 82560, Note_off_c, 8, 32, 64
10, 82560, Note_on_c, 8, 31, 62
10, 82800, Note_off_c, 8, 31, 64
10, 83040, Note_on_c, 8, 32, 98
10, 83080, Note_off_c, 8, 32, 64
10, 83120, Note_on_c, 8, 36, 101
10, 83160, Note_off_c, 8, 36, 64
10, 83200, Note_on_c, 8, 36, 101
10, 83240, Note_off_c, 8, 36, 64
10, 83280, Note_on_c, 8, 36, 104
10, 83360, Note_off_c, 8, 36, 64
10, 83360, Note_on_c, 8, 34, 99
10, 83440, Note_off_c, 8, 34, 64
10, 83440, Note_on_c, 8, 32, 99
10, 83520, Note_off_c, 8, 32, 64
10, 83520, Note_on_c, 8, 31, 65
10, 83760, Note_off_c, 8, 31, 64
10, 84000, Note_on_c, 8, 32, 95
10, 84040, Note_off_c, 8, 32, 64
10, 84080, Note_on_c, 8, 36, 99
10, 84120, Note_off_c, 8, 36, 64
10, 84160, Note_on_c, 8, 36, 99
10, 84200, Note_off_c, 8, 36, 64
10, 84240, Note_on_c, 8, 36, 104
10, 84320, Note_off_c, 8, 36, 64
10, 84320, Note_on_c, 8, 34, 99
10, 84400, Note_off_c, 8, 34, 64
10, 84400, Note_on_c, 8, 32, 99
10, 84480, Note_off_c, 8, 32, 64
10, 84480, Note_on_c, 8, 31, 107
10, 84720, Note_off_c, 8, 31, 64
10, 84960, Note_on_c, 8, 29, 105
10, 85200, Note_off_c, 8, 29, 64
10, 85440, Note_on_c, 8, 38, 127
10, 85520, Note_off_c, 8, 38, 64
10, 85520, Note_on_c, 8, 38, 123
10, 85600, Note_off_c, 8, 38, 64
10, 85600, Note_on_c, 8, 38, 119
10, 85680, Note_off_c, 8, 38, 64
10, 85680, Note_on_c, 8, 38, 119
10, 85760, Note_off_c, 8, 38, 64
10, 85760, Note_on_c, 8, 38, 119
10, 85840, Note_off_c, 8, 38, 64
10, 85840, Note_on_c, 8, 38, 119
10, 85920, Note_off_c, 8, 38, 64
10, 85920, Note_on_c, 8, 39, 123
10, 86000, Note_off_c, 8, 39, 64
10, 86000, Note_on_c, 8, 39, 119
10, 86080, Note_off_c, 8, 39, 64
10, 86080, Note_on_c, 8, 39, 125
10, 86160, Note_off_c, 8, 39, 64
10, 86160, Note_on_c, 8, 39, 123
10, 86240, Note_off_c, 8, 39, 64
10, 86240, Note_on_c, 8, 39, 125
10, 86320, Note_off_c, 8, 39, 64
10, 86320, Note_on_c, 8, 39, 125
10, 86400, Note_off_c, 8, 39, 64
10, 86400, Note_on_c, 8, 32, 105
10, 86640, Note_off_c, 8, 32, 64
10, 92160, Note_on_c, 8, 37, 42
10, 92640, Note_off_c, 8, 37, 64
10, 92640, Note_on_c, 8, 36, 43
10, 92880, Note_off_c, 8, 36, 64
10, 92880, Note_on_c, 8, 37, 43
10, 93120, Note_off_c, 8, 37, 64
10, 93120, Note_on_c, 8, 36, 38
10, 93360, Note_off_c, 8, 36, 64
10, 93360, Note_on_c, 8, 37, 53
10, 93840, Note_off_c, 8, 37, 64
10, 93840, Note_on_c, 8, 38, 57
10, 93920, Note_off_c, 8, 38, 64
10, 93920, Note_on_c, 8, 39, 59
10, 94000, Note_off_c, 8, 39, 64
10, 94000, Note_on_c, 8, 41, 57
10, 94080, Note_off_c, 8, 41, 64
10, 94080, Note_on_c, 8, 39, 58
10, 94320, Note_off_c, 8, 39, 64
10, 94560, Note_on_c, 8, 39, 53
10, 94800, Note_off_c, 8, 39, 64
10, 95040, Note_on_c, 8, 32, 43
10, 95280, Note_off_c, 8, 32, 64
10, 95760, Note_on_c, 8, 36, 42
10, 96000, Note_off_c, 8, 36, 64
10, 96000, Note_on_c, 8, 37, 50
10, 96240, Note_off_c, 8, 37, 64
10, 96720, Note_on_c, 8, 37, 45
10, 96960, Note_off_c, 8, 37, 64
10, 96960, Note_on_c, 8, 39, 44
10, 97200, Note_off_c, 8, 39, 64
10, 97680, Note_on_c, 8, 39, 45
10, 97920, Note_off_c, 8, 39, 64
10, 97920, Note_on_c, 8, 32, 43
10, 98160, Note_off_c, 8, 32, 64
10, 98400, Note_on_c, 8, 36, 45
10, 98640, Note_off_c, 8, 36, 64
10, 98880, Note_on_c, 8, 37, 44
10, 99120, Note_off_c, 8, 37, 64
10, 99360, Note_on_c, 8, 38, 43
10, 99600, Note_off_c, 8, 38, 64
10, 99840, Note_on_c, 8, 39, 93
10, 99920, Note_off_c, 8, 39, 64
10, 99920, Note_on_c, 8, 39, 89
10, 100000, Note_off_c, 8, 39, 64
10, 100000, Note_on_c, 8, 39, 89
10, 100080, Note_off_c, 8, 39, 64
10, 100080, Note_on_c, 8, 39, 89
10, 100160, Note_off_c, 8, 39, 64
10, 100160, Note_on_c, 8, 39, 86
10, 100240, Note_off_c, 8, 39, 64
10, 100240, Note_on_c, 8, 39, 94
10, 100320, Note_off_c, 8, 39, 64
10, 100320, Note_on_c, 8, 40, 123
10, 100400, Note_off_c, 8, 40, 64
10, 100400, Note_on_c, 8, 40, 112
10, 100480, Note_off_c, 8, 40, 64
10, 100480, Note_on_c, 8, 40, 112
10, 100560, Note_off_c, 8, 40, 64
10, 100560, Note_on_c, 8, 40, 95
10, 100640, Note_off_c, 8, 40, 64
10, 100640, Note_on_c, 8, 40, 101
10, 100720, Note_off_c, 8, 40, 64
10, 100720, Note_on_c, 8, 40, 101
10, 100800, Note_off_c, 8, 40, 64
10, 100800, Note_on_c, 8, 39, 99
10, 101040, Note_off_c, 8, 39, 64
10, 102720, Note_on_c, 8, 36, 81
10, 103680, Note_off_c, 8, 36, 64
10, 103680, Note_on_c, 8, 37, 52
10, 103800, Note_off_c, 8, 37, 64
10, 104640, Note_on_c, 8, 32, 42
10, 105600, Note_off_c, 8, 32, 64
10, 105600, Note_on_c, 8, 32, 42
10, 106560, Note_off_c, 8, 32, 64
10, 106560, Note_on_c, 8, 32, 52
10, 107520, Note_off_c, 8, 32, 64
10, 107520, Note_on_c, 8, 32, 43
10, 108480, Note_off_c, 8, 32, 64
10, 108480, Note_on_c, 8, 32, 46
10, 108600, Note_off_c, 8, 32, 64
10, 109920, Note_on_c, 8, 39, 42
10, 110400, Note_off_c, 8, 39, 64
10, 110400, Note_on_c, 8, 44, 39
10, 110520, Note_off_c, 8, 44, 64
10, 110520, End_track
11, 0, Start_track
11, 0, Title_t, "Ludwig van Beethoven"
11, 0, End_track
12, 0, Start_track
12, 0, Title_t, "Piano Concerto No.1 "
12, 0, End_track
13, 0, Start_track
13, 0, Title_t, "   in C Major, Op. 15"
13, 0, End_track
14, 0, Start_track
14, 0, Title_t, "    Mov't. 2 (Largo)"
14, 0, End_track
15, 0, Start_track
15, 0, Title_t, "Sequenced by Bill Nemitz"
15, 0, End_track
16, 0, Start_track
16, 0, Title_t, "Email at billnem@ix.netcom.com"
16, 0, End_track
0, 0, End_of_file