0, 0, Header, 1, 4, 192
1, 0, Start_track
1, 0, Title_t, "Sieben Bagatellen Opus.33, No.5"
1, 0, Copyright_t, "Copyright \251April 2001 by Reginald Steven Ritchie Reginald Steven Ritchie"
1, 0, Text_t, "By Ludwig Van Beethoven\012"
1, 0, Text_t, "Generated by NoteWorthy Composer\012"
1, 0, Time_signature, 3, 2, 24, 8
1, 0, Key_signature, 0, "major"
1, 0, Tempo, 500000
1, 4608, Tempo, 500000
1, 27072, Key_signature, -3, "major"
1, 35712, Key_signature, 0, "major"
1, 35712, End_track
2, 0, Start_track
2, 0, Title_t, "Copyright 2001 Reg"
2, 0, Program_c, 0, 0
2, 0, Control_c, 0, 7, 127
2, 0, Control_c, 0, 10, 82
2, 0, Program_c, 0, 0
2, 0, Control_c, 0, 7, 127
2, 0, Control_c, 0, 10, 110
2, 0, Control_c, 0, 91, 84
2, 0, Control_c, 0, 93, 84
2, 192, Note_on_c, 0, 60, 45
2, 222, Note_on_c, 0, 60, 0
2, 224, Note_on_c, 0, 64, 45
2, 254, Note_on_c, 0, 64, 0
2, 256, Note_on_c, 0, 67, 45
2, 286, Note_on_c, 0, 67, 0
2, 288, Note_on_c, 0, 72, 45
2, 318, Note_on_c, 0, 72, 0
2, 320, Note_on_c, 0, 76, 50
2, 350, Note_on_c, 0, 76, 0
2, 352, Note_on_c, 0, 79, 55
2, 382, Note_on_c, 0, 79, 0
2, 384, Note_on_c, 0, 84, 60
2, 416, Note_on_c, 0, 84, 0
2, 576, Note_on_c, 0, 81, 92
2, 608, Note_on_c, 0, 81, 0
2, 864, Note_on_c, 0, 89, 127
2, 958, Note_on_c, 0, 89, 0
2, 960, Note_on_c, 0, 89, 92
2, 990, Note_on_c, 0, 89, 0
2, 992, Note_on_c, 0, 88, 92
2, 1022, Note_on_c, 0, 88, 0
2, 1024, Note_on_c, 0, 86, 92
2, 1054, Note_on_c, 0, 86, 0
2, 1056, Note_on_c, 0, 88, 92
2, 1086, Note_on_c, 0, 88, 0
2, 1088, Note_on_c, 0, 86, 92
2, 1118, Note_on_c, 0, 86, 0
2, 1120, Note_on_c, 0, 84, 92
2, 1150, Note_on_c, 0, 84, 0
2, 1152, Note_on_c, 0, 86, 92
2, 1182, Note_on_c, 0, 86, 0
2, 1184, Note_on_c, 0, 84, 92
2, 1214, Note_on_c, 0, 84, 0
2, 1216, Note_on_c, 0, 83, 92
2, 1246, Note_on_c, 0, 83, 0
2, 1248, Note_on_c, 0, 84, 92
2, 1278, Note_on_c, 0, 84, 0
2, 1280, Note_on_c, 0, 83, 92
2, 1310, Note_on_c, 0, 83, 0
2, 1312, Note_on_c, 0, 81, 92
2, 1342, Note_on_c, 0, 81, 0
2, 1344, Note_on_c, 0, 83, 92
2, 1374, Note_on_c, 0, 83, 0
2, 1376, Note_on_c, 0, 81, 92
2, 1406, Note_on_c, 0, 81, 0
2, 1408, Note_on_c, 0, 79, 92
2, 1438, Note_on_c, 0, 79, 0
2, 1440, Note_on_c, 0, 81, 92
2, 1470, Note_on_c, 0, 81, 0
2, 1472, Note_on_c, 0, 79, 92
2, 1502, Note_on_c, 0, 79, 0
2, 1504, Note_on_c, 0, 78, 92
2, 1534, Note_on_c, 0, 78, 0
2, 1536, Note_on_c, 0, 79, 92
2, 1566, Note_on_c, 0, 79, 0
2, 1568, Note_on_c, 0, 83, 85
2, 1598, Note_on_c, 0, 83, 0
2, 1600, Note_on_c, 0, 81, 77
2, 1630, Note_on_c, 0, 81, 0
2, 1632, Note_on_c, 0, 79, 69
2, 1662, Note_on_c, 0, 79, 0
2, 1664, Note_on_c, 0, 81, 61
2, 1694, Note_on_c, 0, 81, 0
2, 1696, Note_on_c, 0, 83, 53
2, 1726, Note_on_c, 0, 83, 0
2, 1728, Note_on_c, 0, 84, 45
2, 1760, Note_on_c, 0, 84, 0
2, 1824, Note_on_c, 0, 84, 45
2, 1846, Note_on_c, 0, 84, 0
2, 1848, Note_on_c, 0, 86, 45
2, 1870, Note_on_c, 0, 86, 0
2, 1872, Note_on_c, 0, 88, 45
2, 1894, Note_on_c, 0, 88, 0
2, 1896, Note_on_c, 0, 86, 45
2, 1918, Note_on_c, 0, 86, 0
2, 1920, Note_on_c, 0, 86, 45
2, 1952, Note_on_c, 0, 86, 0
2, 2016, Note_on_c, 0, 86, 45
2, 2038, Note_on_c, 0, 86, 0
2, 2040, Note_on_c, 0, 88, 45
2, 2062, Note_on_c, 0, 88, 0
2, 2064, Note_on_c, 0, 89, 45
2, 2086, Note_on_c, 0, 89, 0
2, 2088, Note_on_c, 0, 88, 45
2, 2110, Note_on_c, 0, 88, 0
2, 2112, Note_on_c, 0, 88, 45
2, 2206, Note_on_c, 0, 88, 0
2, 2208, Note_on_c, 0, 84, 45
2, 2240, Note_on_c, 0, 84, 0
2, 2496, Note_on_c, 0, 60, 45
2, 2526, Note_on_c, 0, 60, 0
2, 2528, Note_on_c, 0, 64, 45
2, 2558, Note_on_c, 0, 64, 0
2, 2560, Note_on_c, 0, 67, 45
2, 2590, Note_on_c, 0, 67, 0
2, 2592, Note_on_c, 0, 72, 45
2, 2622, Note_on_c, 0, 72, 0
2, 2624, Note_on_c, 0, 76, 45
2, 2654, Note_on_c, 0, 76, 0
2, 2656, Note_on_c, 0, 79, 45
2, 2686, Note_on_c, 0, 79, 0
2, 2688, Note_on_c, 0, 84, 45
2, 2720, Note_on_c, 0, 84, 0
2, 2880, Note_on_c, 0, 81, 92
2, 2912, Note_on_c, 0, 81, 0
2, 3168, Note_on_c, 0, 89, 127
2, 3262, Note_on_c, 0, 89, 0
2, 3264, Note_on_c, 0, 89, 92
2, 3294, Note_on_c, 0, 89, 0
2, 3296, Note_on_c, 0, 88, 92
2, 3326, Note_on_c, 0, 88, 0
2, 3328, Note_on_c, 0, 86, 92
2, 3358, Note_on_c, 0, 86, 0
2, 3360, Note_on_c, 0, 88, 92
2, 3390, Note_on_c, 0, 88, 0
2, 3392, Note_on_c, 0, 86, 92
2, 3422, Note_on_c, 0, 86, 0
2, 3424, Note_on_c, 0, 84, 92
2, 3454, Note_on_c, 0, 84, 0
2, 3456, Note_on_c, 0, 86, 92
2, 3486, Note_on_c, 0, 86, 0
2, 3488, Note_on_c, 0, 84, 92
2, 3518, Note_on_c, 0, 84, 0
2, 3520, Note_on_c, 0, 83, 92
2, 3550, Note_on_c, 0, 83, 0
2, 3552, Note_on_c, 0, 84, 92
2, 3582, Note_on_c, 0, 84, 0
2, 3584, Note_on_c, 0, 83, 92
2, 3614, Note_on_c, 0, 83, 0
2, 3616, Note_on_c, 0, 81, 92
2, 3646, Note_on_c, 0, 81, 0
2, 3648, Note_on_c, 0, 83, 92
2, 3678, Note_on_c, 0, 83, 0
2, 3680, Note_on_c, 0, 81, 92
2, 3710, Note_on_c, 0, 81, 0
2, 3712, Note_on_c, 0, 79, 92
2, 3742, Note_on_c, 0, 79, 0
2, 3744, Note_on_c, 0, 81, 92
2, 3774, Note_on_c, 0, 81, 0
2, 3776, Note_on_c, 0, 79, 92
2, 3806, Note_on_c, 0, 79, 0
2, 3808, Note_on_c, 0, 78, 92
2, 3838, Note_on_c, 0, 78, 0
2, 3840, Note_on_c, 0, 79, 92
2, 3870, Note_on_c, 0, 79, 0
2, 3872, Note_on_c, 0, 83, 85
2, 3902, Note_on_c, 0, 83, 0
2, 3904, Note_on_c, 0, 81, 77
2, 3934, Note_on_c, 0, 81, 0
2, 3936, Note_on_c, 0, 79, 69
2, 3966, Note_on_c, 0, 79, 0
2, 3968, Note_on_c, 0, 81, 61
2, 3998, Note_on_c, 0, 81, 0
2, 4000, Note_on_c, 0, 83, 53
2, 4030, Note_on_c, 0, 83, 0
2, 4032, Note_on_c, 0, 84, 45
2, 4064, Note_on_c, 0, 84, 0
2, 4128, Note_on_c, 0, 84, 45
2, 4150, Note_on_c, 0, 84, 0
2, 4152, Note_on_c, 0, 86, 45
2, 4174, Note_on_c, 0, 86, 0
2, 4176, Note_on_c, 0, 88, 45
2, 4198, Note_on_c, 0, 88, 0
2, 4200, Note_on_c, 0, 86, 45
2, 4222, Note_on_c, 0, 86, 0
2, 4224, Note_on_c, 0, 86, 45
2, 4256, Note_on_c, 0, 86, 0
2, 4320, Note_on_c, 0, 86, 45
2, 4342, Note_on_c, 0, 86, 0
2, 4344, Note_on_c, 0, 88, 45
2, 4366, Note_on_c, 0, 88, 0
2, 4368, Note_on_c, 0, 89, 45
2, 4390, Note_on_c, 0, 89, 0
2, 4392, Note_on_c, 0, 88, 45
2, 4414, Note_on_c, 0, 88, 0
2, 4416, Note_on_c, 0, 84, 45
2, 4510, Note_on_c, 0, 84, 0
2, 4608, Control_c, 0, 91, 84
2, 4608, Control_c, 0, 93, 84
2, 4800, Note_on_c, 0, 60, 45
2, 4830, Note_on_c, 0, 60, 0
2, 4832, Note_on_c, 0, 64, 45
2, 4862, Note_on_c, 0, 64, 0
2, 4864, Note_on_c, 0, 67, 45
2, 4894, Note_on_c, 0, 67, 0
2, 4896, Note_on_c, 0, 72, 45
2, 4926, Note_on_c, 0, 72, 0
2, 4928, Note_on_c, 0, 76, 50
2, 4958, Note_on_c, 0, 76, 0
2, 4960, Note_on_c, 0, 79, 55
2, 4990, Note_on_c, 0, 79, 0
2, 4992, Note_on_c, 0, 84, 60
2, 5024, Note_on_c, 0, 84, 0
2, 5184, Note_on_c, 0, 81, 92
2, 5216, Note_on_c, 0, 81, 0
2, 5472, Note_on_c, 0, 89, 127
2, 5566, Note_on_c, 0, 89, 0
2, 5568, Note_on_c, 0, 89, 92
2, 5598, Note_on_c, 0, 89, 0
2, 5600, Note_on_c, 0, 88, 92
2, 5630, Note_on_c, 0, 88, 0
2, 5632, Note_on_c, 0, 86, 92
2, 5662, Note_on_c, 0, 86, 0
2, 5664, Note_on_c, 0, 88, 92
2, 5694, Note_on_c, 0, 88, 0
2, 5696, Note_on_c, 0, 86, 92
2, 5726, Note_on_c, 0, 86, 0
2, 5728, Note_on_c, 0, 84, 92
2, 5758, Note_on_c, 0, 84, 0
2, 5760, Note_on_c, 0, 86, 92
2, 5790, Note_on_c, 0, 86, 0
2, 5792, Note_on_c, 0, 84, 92
2, 5822, Note_on_c, 0, 84, 0
2, 5824, Note_on_c, 0, 83, 92
2, 5854, Note_on_c, 0, 83, 0
2, 5856, Note_on_c, 0, 84, 92
2, 5886, Note_on_c, 0, 84, 0
2, 5888, Note_on_c, 0, 83, 92
2, 5918, Note_on_c, 0, 83, 0
2, 5920, Note_on_c, 0, 81, 92
2, 5950, Note_on_c, 0, 81, 0
2, 5952, Note_on_c, 0, 83, 92
2, 5982, Note_on_c, 0, 83, 0
2, 5984, Note_on_c, 0, 81, 92
2, 6014, Note_on_c, 0, 81, 0
2, 6016, Note_on_c, 0, 79, 92
2, 6046, Note_on_c, 0, 79, 0
2, 6048, Note_on_c, 0, 81, 92
2, 6078, Note_on_c, 0, 81, 0
2, 6080, Note_on_c, 0, 79, 92
2, 6110, Note_on_c, 0, 79, 0
2, 6112, Note_on_c, 0, 78, 92
2, 6142, Note_on_c, 0, 78, 0
2, 6144, Note_on_c, 0, 79, 92
2, 6174, Note_on_c, 0, 79, 0
2, 6176, Note_on_c, 0, 83, 85
2, 6206, Note_on_c, 0, 83, 0
2, 6208, Note_on_c, 0, 81, 77
2, 6238, Note_on_c, 0, 81, 0
2, 6240, Note_on_c, 0, 79, 69
2, 6270, Note_on_c, 0, 79, 0
2, 6272, Note_on_c, 0, 81, 61
2, 6302, Note_on_c, 0, 81, 0
2, 6304, Note_on_c, 0, 83, 53
2, 6334, Note_on_c, 0, 83, 0
2, 6336, Note_on_c, 0, 84, 45
2, 6368, Note_on_c, 0, 84, 0
2, 6432, Note_on_c, 0, 84, 45
2, 6454, Note_on_c, 0, 84, 0
2, 6456, Note_on_c, 0, 86, 45
2, 6478, Note_on_c, 0, 86, 0
2, 6480, Note_on_c, 0, 88, 45
2, 6502, Note_on_c, 0, 88, 0
2, 6504, Note_on_c, 0, 86, 45
2, 6526, Note_on_c, 0, 86, 0
2, 6528, Note_on_c, 0, 86, 45
2, 6560, Note_on_c, 0, 86, 0
2, 6624, Note_on_c, 0, 86, 45
2, 6646, Note_on_c, 0, 86, 0
2, 6648, Note_on_c, 0, 88, 45
2, 6670, Note_on_c, 0, 88, 0
2, 6672, Note_on_c, 0, 89, 45
2, 6694, Note_on_c, 0, 89, 0
2, 6696, Note_on_c, 0, 88, 45
2, 6718, Note_on_c, 0, 88, 0
2, 6720, Note_on_c, 0, 88, 45
2, 6814, Note_on_c, 0, 88, 0
2, 6816, Note_on_c, 0, 84, 45
2, 6848, Note_on_c, 0, 84, 0
2, 7104, Note_on_c, 0, 60, 45
2, 7134, Note_on_c, 0, 60, 0
2, 7136, Note_on_c, 0, 64, 45
2, 7166, Note_on_c, 0, 64, 0
2, 7168, Note_on_c, 0, 67, 45
2, 7198, Note_on_c, 0, 67, 0
2, 7200, Note_on_c, 0, 72, 45
2, 7230, Note_on_c, 0, 72, 0
2, 7232, Note_on_c, 0, 76, 45
2, 7262, Note_on_c, 0, 76, 0
2, 7264, Note_on_c, 0, 79, 45
2, 7294, Note_on_c, 0, 79, 0
2, 7296, Note_on_c, 0, 84, 45
2, 7328, Note_on_c, 0, 84, 0
2, 7488, Note_on_c, 0, 81, 92
2, 7520, Note_on_c, 0, 81, 0
2, 7776, Note_on_c, 0, 89, 127
2, 7870, Note_on_c, 0, 89, 0
2, 7872, Note_on_c, 0, 89, 92
2, 7902, Note_on_c, 0, 89, 0
2, 7904, Note_on_c, 0, 88, 92
2, 7934, Note_on_c, 0, 88, 0
2, 7936, Note_on_c, 0, 86, 92
2, 7966, Note_on_c, 0, 86, 0
2, 7968, Note_on_c, 0, 88, 92
2, 7998, Note_on_c, 0, 88, 0
2, 8000, Note_on_c, 0, 86, 92
2, 8030, Note_on_c, 0, 86, 0
2, 8032, Note_on_c, 0, 84, 92
2, 8062, Note_on_c, 0, 84, 0
2, 8064, Note_on_c, 0, 86, 92
2, 8094, Note_on_c, 0, 86, 0
2, 8096, Note_on_c, 0, 84, 92
2, 8126, Note_on_c, 0, 84, 0
2, 8128, Note_on_c, 0, 83, 92
2, 8158, Note_on_c, 0, 83, 0
2, 8160, Note_on_c, 0, 84, 92
2, 8190, Note_on_c, 0, 84, 0
2, 8192, Note_on_c, 0, 83, 92
2, 8222, Note_on_c, 0, 83, 0
2, 8224, Note_on_c, 0, 81, 92
2, 8254, Note_on_c, 0, 81, 0
2, 8256, Note_on_c, 0, 83, 92
2, 8286, Note_on_c, 0, 83, 0
2, 8288, Note_on_c, 0, 81, 92
2, 8318, Note_on_c, 0, 81, 0
2, 8320, Note_on_c, 0, 79, 92
2, 8350, Note_on_c, 0, 79, 0
2, 8352, Note_on_c, 0, 81, 92
2, 8382, Note_on_c, 0, 81, 0
2, 8384, Note_on_c, 0, 79, 92
2, 8414, Note_on_c, 0, 79, 0
2, 8416, Note_on_c, 0, 78, 92
2, 8446, Note_on_c, 0, 78, 0
2, 8448, Note_on_c, 0, 79, 92
2, 8478, Note_on_c, 0, 79, 0
2, 8480, Note_on_c, 0, 83, 85
2, 8510, Note_on_c, 0, 83, 0
2, 8512, Note_on_c, 0, 81, 77
2, 8542, Note_on_c, 0, 81, 0
2, 8544, Note_on_c, 0, 79, 69
2, 8574, Note_on_c, 0, 79, 0
2, 8576, Note_on_c, 0, 81, 61
2, 8606, Note_on_c, 0, 81, 0
2, 8608, Note_on_c, 0, 83, 53
2, 8638, Note_on_c, 0, 83, 0
2, 8640, Note_on_c, 0, 84, 45
2, 8672, Note_on_c, 0, 84, 0
2, 8736, Note_on_c, 0, 84, 45
2, 8758, Note_on_c, 0, 84, 0
2, 8760, Note_on_c, 0, 86, 45
2, 8782, Note_on_c, 0, 86, 0
2, 8784, Note_on_c, 0, 88, 45
2, 8806, Note_on_c, 0, 88, 0
2, 8808, Note_on_c, 0, 86, 45
2, 8830, Note_on_c, 0, 86, 0
2, 8832, Note_on_c, 0, 86, 45
2, 8864, Note_on_c, 0, 86, 0
2, 8928, Note_on_c, 0, 86, 45
2, 8950, Note_on_c, 0, 86, 0
2, 8952, Note_on_c, 0, 88, 45
2, 8974, Note_on_c, 0, 88, 0
2, 8976, Note_on_c, 0, 89, 45
2, 8998, Note_on_c, 0, 89, 0
2, 9000, Note_on_c, 0, 88, 45
2, 9022, Note_on_c, 0, 88, 0
2, 9024, Note_on_c, 0, 84, 45
2, 9118, Note_on_c, 0, 84, 0
2, 9216, Note_on_c, 0, 71, 45
2, 9246, Note_on_c, 0, 71, 0
2, 9248, Note_on_c, 0, 72, 45
2, 9278, Note_on_c, 0, 72, 0
2, 9280, Note_on_c, 0, 74, 45
2, 9310, Note_on_c, 0, 74, 0
2, 9312, Note_on_c, 0, 71, 63
2, 9312, Note_on_c, 0, 79, 45
2, 9342, Note_on_c, 0, 71, 0
2, 9344, Note_on_c, 0, 72, 45
2, 9374, Note_on_c, 0, 72, 0
2, 9376, Note_on_c, 0, 74, 45
2, 9406, Note_on_c, 0, 74, 0
2, 9408, Note_on_c, 0, 71, 45
2, 9438, Note_on_c, 0, 71, 0
2, 9440, Note_on_c, 0, 72, 45
2, 9470, Note_on_c, 0, 72, 0
2, 9472, Note_on_c, 0, 79, 0
2, 9472, Note_on_c, 0, 74, 45
2, 9502, Note_on_c, 0, 74, 0
2, 9504, Note_on_c, 0, 71, 45
2, 9504, Note_on_c, 0, 79, 45
2, 9534, Note_on_c, 0, 71, 0
2, 9536, Note_on_c, 0, 72, 45
2, 9566, Note_on_c, 0, 72, 0
2, 9568, Note_on_c, 0, 74, 45
2, 9598, Note_on_c, 0, 74, 0
2, 9598, Note_on_c, 0, 79, 0
2, 9600, Note_on_c, 0, 72, 45
2, 9600, Note_on_c, 0, 79, 45
2, 9630, Note_on_c, 0, 72, 0
2, 9632, Note_on_c, 0, 74, 45
2, 9662, Note_on_c, 0, 74, 0
2, 9664, Note_on_c, 0, 76, 45
2, 9694, Note_on_c, 0, 76, 0
2, 9694, Note_on_c, 0, 79, 0
2, 9696, Note_on_c, 0, 72, 45
2, 9696, Note_on_c, 0, 79, 45
2, 9726, Note_on_c, 0, 72, 0
2, 9728, Note_on_c, 0, 74, 45
2, 9758, Note_on_c, 0, 74, 0
2, 9760, Note_on_c, 0, 76, 45
2, 9790, Note_on_c, 0, 76, 0
2, 9790, Note_on_c, 0, 79, 0
2, 9792, Note_on_c, 0, 77, 45
2, 9822, Note_on_c, 0, 77, 0
2, 9824, Note_on_c, 0, 76, 45
2, 9854, Note_on_c, 0, 76, 0
2, 9856, Note_on_c, 0, 74, 45
2, 9886, Note_on_c, 0, 74, 0
2, 9888, Note_on_c, 0, 77, 63
2, 9888, Note_on_c, 0, 79, 45
2, 9918, Note_on_c, 0, 77, 0
2, 9920, Note_on_c, 0, 76, 45
2, 9950, Note_on_c, 0, 76, 0
2, 9952, Note_on_c, 0, 74, 45
2, 9982, Note_on_c, 0, 74, 0
2, 9984, Note_on_c, 0, 77, 45
2, 10014, Note_on_c, 0, 77, 0
2, 10016, Note_on_c, 0, 76, 45
2, 10046, Note_on_c, 0, 76, 0
2, 10048, Note_on_c, 0, 79, 0
2, 10048, Note_on_c, 0, 74, 45
2, 10078, Note_on_c, 0, 74, 0
2, 10080, Note_on_c, 0, 77, 45
2, 10080, Note_on_c, 0, 79, 45
2, 10110, Note_on_c, 0, 77, 0
2, 10112, Note_on_c, 0, 76, 45
2, 10142, Note_on_c, 0, 76, 0
2, 10144, Note_on_c, 0, 74, 45
2, 10174, Note_on_c, 0, 74, 0
2, 10174, Note_on_c, 0, 79, 0
2, 10176, Note_on_c, 0, 76, 45
2, 10176, Note_on_c, 0, 79, 45
2, 10206, Note_on_c, 0, 76, 0
2, 10208, Note_on_c, 0, 74, 45
2, 10238, Note_on_c, 0, 74, 0
2, 10240, Note_on_c, 0, 72, 45
2, 10270, Note_on_c, 0, 72, 0
2, 10270, Note_on_c, 0, 79, 0
2, 10272, Note_on_c, 0, 76, 45
2, 10272, Note_on_c, 0, 79, 45
2, 10302, Note_on_c, 0, 76, 0
2, 10304, Note_on_c, 0, 74, 45
2, 10334, Note_on_c, 0, 74, 0
2, 10336, Note_on_c, 0, 72, 45
2, 10366, Note_on_c, 0, 72, 0
2, 10366, Note_on_c, 0, 79, 0
2, 10368, Note_on_c, 0, 71, 45
2, 10398, Note_on_c, 0, 71, 0
2, 10400, Note_on_c, 0, 72, 45
2, 10430, Note_on_c, 0, 72, 0
2, 10432, Note_on_c, 0, 74, 45
2, 10462, Note_on_c, 0, 74, 0
2, 10464, Note_on_c, 0, 71, 63
2, 10464, Note_on_c, 0, 79, 45
2, 10494, Note_on_c, 0, 71, 0
2, 10496, Note_on_c, 0, 72, 45
2, 10526, Note_on_c, 0, 72, 0
2, 10528, Note_on_c, 0, 74, 45
2, 10558, Note_on_c, 0, 74, 0
2, 10560, Note_on_c, 0, 71, 45
2, 10590, Note_on_c, 0, 71, 0
2, 10592, Note_on_c, 0, 72, 45
2, 10622, Note_on_c, 0, 72, 0
2, 10624, Note_on_c, 0, 79, 0
2, 10624, Note_on_c, 0, 74, 45
2, 10654, Note_on_c, 0, 74, 0
2, 10656, Note_on_c, 0, 71, 63
2, 10656, Note_on_c, 0, 79, 45
2, 10686, Note_on_c, 0, 71, 0
2, 10688, Note_on_c, 0, 72, 45
2, 10718, Note_on_c, 0, 72, 0
2, 10720, Note_on_c, 0, 74, 45
2, 10750, Note_on_c, 0, 74, 0
2, 10750, Note_on_c, 0, 79, 0
2, 10752, Note_on_c, 0, 72, 63
2, 10752, Note_on_c, 0, 79, 45
2, 10782, Note_on_c, 0, 72, 0
2, 10784, Note_on_c, 0, 74, 45
2, 10814, Note_on_c, 0, 74, 0
2, 10816, Note_on_c, 0, 76, 45
2, 10846, Note_on_c, 0, 76, 0
2, 10846, Note_on_c, 0, 79, 0
2, 10848, Note_on_c, 0, 72, 63
2, 10848, Note_on_c, 0, 79, 45
2, 10878, Note_on_c, 0, 72, 0
2, 10880, Note_on_c, 0, 74, 45
2, 10910, Note_on_c, 0, 74, 0
2, 10912, Note_on_c, 0, 76, 45
2, 10942, Note_on_c, 0, 76, 0
2, 10942, Note_on_c, 0, 79, 0
2, 10944, Note_on_c, 0, 71, 63
2, 10944, Note_on_c, 0, 79, 45
2, 10965, Note_on_c, 0, 71, 0
2, 10976, Note_on_c, 0, 72, 45
2, 11006, Note_on_c, 0, 72, 0
2, 11008, Note_on_c, 0, 74, 45
2, 11038, Note_on_c, 0, 74, 0
2, 11038, Note_on_c, 0, 79, 0
2, 11040, Note_on_c, 0, 69, 63
2, 11040, Note_on_c, 0, 78, 45
2, 11061, Note_on_c, 0, 69, 0
2, 11072, Note_on_c, 0, 71, 45
2, 11102, Note_on_c, 0, 71, 0
2, 11104, Note_on_c, 0, 72, 45
2, 11134, Note_on_c, 0, 72, 0
2, 11134, Note_on_c, 0, 78, 0
2, 11136, Note_on_c, 0, 71, 63
2, 11136, Note_on_c, 0, 79, 45
2, 11157, Note_on_c, 0, 71, 0
2, 11168, Note_on_c, 0, 72, 45
2, 11198, Note_on_c, 0, 72, 0
2, 11200, Note_on_c, 0, 74, 45
2, 11230, Note_on_c, 0, 74, 0
2, 11230, Note_on_c, 0, 79, 0
2, 11232, Note_on_c, 0, 69, 63
2, 11232, Note_on_c, 0, 78, 45
2, 11253, Note_on_c, 0, 69, 0
2, 11264, Note_on_c, 0, 71, 45
2, 11294, Note_on_c, 0, 71, 0
2, 11296, Note_on_c, 0, 72, 45
2, 11326, Note_on_c, 0, 72, 0
2, 11326, Note_on_c, 0, 78, 0
2, 11328, Note_on_c, 0, 71, 63
2, 11328, Note_on_c, 0, 79, 45
2, 11349, Note_on_c, 0, 71, 0
2, 11360, Note_on_c, 0, 72, 45
2, 11390, Note_on_c, 0, 72, 0
2, 11392, Note_on_c, 0, 74, 45
2, 11422, Note_on_c, 0, 74, 0
2, 11422, Note_on_c, 0, 79, 0
2, 11424, Note_on_c, 0, 69, 63
2, 11424, Note_on_c, 0, 78, 45
2, 11445, Note_on_c, 0, 69, 0
2, 11456, Note_on_c, 0, 71, 45
2, 11486, Note_on_c, 0, 71, 0
2, 11488, Note_on_c, 0, 72, 45
2, 11518, Note_on_c, 0, 72, 0
2, 11518, Note_on_c, 0, 78, 0
2, 11520, Note_on_c, 0, 71, 45
2, 11520, Note_on_c, 0, 79, 45
2, 11550, Note_on_c, 0, 79, 0
2, 11552, Note_on_c, 0, 81, 45
2, 11582, Note_on_c, 0, 81, 0
2, 11584, Note_on_c, 0, 79, 45
2, 11614, Note_on_c, 0, 79, 0
2, 11614, Note_on_c, 0, 71, 0
2, 11616, Note_on_c, 0, 78, 45
2, 11646, Note_on_c, 0, 78, 0
2, 11648, Note_on_c, 0, 79, 45
2, 11678, Note_on_c, 0, 79, 0
2, 11680, Note_on_c, 0, 78, 45
2, 11710, Note_on_c, 0, 78, 0
2, 11712, Note_on_c, 0, 79, 45
2, 11742, Note_on_c, 0, 79, 0
2, 11744, Note_on_c, 0, 81, 45
2, 11774, Note_on_c, 0, 81, 0
2, 11776, Note_on_c, 0, 79, 45
2, 11806, Note_on_c, 0, 79, 0
2, 11808, Note_on_c, 0, 78, 45
2, 11838, Note_on_c, 0, 78, 0
2, 11840, Note_on_c, 0, 79, 45
2, 11870, Note_on_c, 0, 79, 0
2, 11872, Note_on_c, 0, 78, 45
2, 11902, Note_on_c, 0, 78, 0
2, 11904, Note_on_c, 0, 79, 45
2, 11934, Note_on_c, 0, 79, 0
2, 11936, Note_on_c, 0, 81, 45
2, 11966, Note_on_c, 0, 81, 0
2, 11968, Note_on_c, 0, 79, 45
2, 11998, Note_on_c, 0, 79, 0
2, 12000, Note_on_c, 0, 78, 45
2, 12030, Note_on_c, 0, 78, 0
2, 12032, Note_on_c, 0, 79, 45
2, 12062, Note_on_c, 0, 79, 0
2, 12064, Note_on_c, 0, 78, 45
2, 12094, Note_on_c, 0, 78, 0
2, 12096, Note_on_c, 0, 71, 63
2, 12096, Note_on_c, 0, 79, 45
2, 12117, Note_on_c, 0, 71, 0
2, 12128, Note_on_c, 0, 72, 45
2, 12158, Note_on_c, 0, 72, 0
2, 12160, Note_on_c, 0, 74, 45
2, 12190, Note_on_c, 0, 74, 0
2, 12190, Note_on_c, 0, 79, 0
2, 12192, Note_on_c, 0, 69, 63
2, 12192, Note_on_c, 0, 78, 45
2, 12213, Note_on_c, 0, 69, 0
2, 12224, Note_on_c, 0, 71, 45
2, 12254, Note_on_c, 0, 71, 0
2, 12256, Note_on_c, 0, 72, 45
2, 12286, Note_on_c, 0, 72, 0
2, 12286, Note_on_c, 0, 78, 0
2, 12288, Note_on_c, 0, 71, 63
2, 12288, Note_on_c, 0, 79, 45
2, 12309, Note_on_c, 0, 71, 0
2, 12320, Note_on_c, 0, 72, 45
2, 12350, Note_on_c, 0, 72, 0
2, 12352, Note_on_c, 0, 74, 45
2, 12382, Note_on_c, 0, 74, 0
2, 12382, Note_on_c, 0, 79, 0
2, 12384, Note_on_c, 0, 69, 63
2, 12384, Note_on_c, 0, 78, 45
2, 12405, Note_on_c, 0, 69, 0
2, 12416, Note_on_c, 0, 71, 45
2, 12446, Note_on_c, 0, 71, 0
2, 12448, Note_on_c, 0, 72, 45
2, 12478, Note_on_c, 0, 72, 0
2, 12478, Note_on_c, 0, 78, 0
2, 12480, Note_on_c, 0, 71, 63
2, 12480, Note_on_c, 0, 79, 45
2, 12501, Note_on_c, 0, 71, 0
2, 12512, Note_on_c, 0, 72, 45
2, 12542, Note_on_c, 0, 72, 0
2, 12544, Note_on_c, 0, 74, 45
2, 12574, Note_on_c, 0, 74, 0
2, 12574, Note_on_c, 0, 79, 0
2, 12576, Note_on_c, 0, 69, 63
2, 12576, Note_on_c, 0, 78, 45
2, 12597, Note_on_c, 0, 69, 0
2, 12608, Note_on_c, 0, 71, 45
2, 12638, Note_on_c, 0, 71, 0
2, 12640, Note_on_c, 0, 72, 45
2, 12670, Note_on_c, 0, 72, 0
2, 12670, Note_on_c, 0, 78, 0
2, 12672, Note_on_c, 0, 71, 45
2, 12672, Note_on_c, 0, 79, 45
2, 12702, Note_on_c, 0, 79, 0
2, 12704, Note_on_c, 0, 81, 45
2, 12734, Note_on_c, 0, 81, 0
2, 12736, Note_on_c, 0, 79, 45
2, 12766, Note_on_c, 0, 79, 0
2, 12766, Note_on_c, 0, 71, 0
2, 12768, Note_on_c, 0, 78, 45
2, 12798, Note_on_c, 0, 78, 0
2, 12800, Note_on_c, 0, 79, 45
2, 12830, Note_on_c, 0, 79, 0
2, 12832, Note_on_c, 0, 78, 45
2, 12862, Note_on_c, 0, 78, 0
2, 12864, Note_on_c, 0, 79, 45
2, 12894, Note_on_c, 0, 79, 0
2, 12896, Note_on_c, 0, 81, 45
2, 12926, Note_on_c, 0, 81, 0
2, 12928, Note_on_c, 0, 79, 45
2, 12958, Note_on_c, 0, 79, 0
2, 12960, Note_on_c, 0, 78, 45
2, 12990, Note_on_c, 0, 78, 0
2, 12992, Note_on_c, 0, 79, 45
2, 13022, Note_on_c, 0, 79, 0
2, 13024, Note_on_c, 0, 78, 45
2, 13054, Note_on_c, 0, 78, 0
2, 13056, Note_on_c, 0, 79, 45
2, 13086, Note_on_c, 0, 79, 0
2, 13088, Note_on_c, 0, 81, 45
2, 13118, Note_on_c, 0, 81, 0
2, 13120, Note_on_c, 0, 79, 45
2, 13150, Note_on_c, 0, 79, 0
2, 13152, Note_on_c, 0, 77, 45
2, 13182, Note_on_c, 0, 77, 0
2, 13184, Note_on_c, 0, 79, 45
2, 13214, Note_on_c, 0, 79, 0
2, 13216, Note_on_c, 0, 77, 45
2, 13246, Note_on_c, 0, 77, 0
2, 13248, Note_on_c, 0, 76, 45
2, 13342, Note_on_c, 0, 76, 0
2, 13440, Note_on_c, 0, 60, 45
2, 13470, Note_on_c, 0, 60, 0
2, 13472, Note_on_c, 0, 64, 48
2, 13502, Note_on_c, 0, 64, 0
2, 13504, Note_on_c, 0, 67, 52
2, 13534, Note_on_c, 0, 67, 0
2, 13536, Note_on_c, 0, 72, 56
2, 13566, Note_on_c, 0, 72, 0
2, 13568, Note_on_c, 0, 76, 60
2, 13598, Note_on_c, 0, 76, 0
2, 13600, Note_on_c, 0, 79, 64
2, 13630, Note_on_c, 0, 79, 0
2, 13632, Note_on_c, 0, 84, 68
2, 13664, Note_on_c, 0, 84, 0
2, 13824, Note_on_c, 0, 81, 92
2, 13918, Note_on_c, 0, 81, 0
2, 14112, Note_on_c, 0, 89, 127
2, 14206, Note_on_c, 0, 89, 0
2, 14208, Note_on_c, 0, 89, 92
2, 14238, Note_on_c, 0, 89, 0
2, 14240, Note_on_c, 0, 88, 92
2, 14270, Note_on_c, 0, 88, 0
2, 14272, Note_on_c, 0, 86, 92
2, 14302, Note_on_c, 0, 86, 0
2, 14304, Note_on_c, 0, 88, 92
2, 14334, Note_on_c, 0, 88, 0
2, 14336, Note_on_c, 0, 86, 92
2, 14366, Note_on_c, 0, 86, 0
2, 14368, Note_on_c, 0, 84, 92
2, 14398, Note_on_c, 0, 84, 0
2, 14400, Note_on_c, 0, 86, 92
2, 14430, Note_on_c, 0, 86, 0
2, 14432, Note_on_c, 0, 84, 92
2, 14462, Note_on_c, 0, 84, 0
2, 14464, Note_on_c, 0, 83, 92
2, 14494, Note_on_c, 0, 83, 0
2, 14496, Note_on_c, 0, 84, 92
2, 14526, Note_on_c, 0, 84, 0
2, 14528, Note_on_c, 0, 83, 92
2, 14558, Note_on_c, 0, 83, 0
2, 14560, Note_on_c, 0, 81, 92
2, 14590, Note_on_c, 0, 81, 0
2, 14592, Note_on_c, 0, 83, 92
2, 14622, Note_on_c, 0, 83, 0
2, 14624, Note_on_c, 0, 81, 92
2, 14654, Note_on_c, 0, 81, 0
2, 14656, Note_on_c, 0, 79, 92
2, 14686, Note_on_c, 0, 79, 0
2, 14688, Note_on_c, 0, 81, 92
2, 14718, Note_on_c, 0, 81, 0
2, 14720, Note_on_c, 0, 79, 92
2, 14750, Note_on_c, 0, 79, 0
2, 14752, Note_on_c, 0, 78, 92
2, 14782, Note_on_c, 0, 78, 0
2, 14784, Note_on_c, 0, 79, 92
2, 14814, Note_on_c, 0, 79, 0
2, 14816, Note_on_c, 0, 83, 85
2, 14846, Note_on_c, 0, 83, 0
2, 14848, Note_on_c, 0, 81, 77
2, 14878, Note_on_c, 0, 81, 0
2, 14880, Note_on_c, 0, 79, 69
2, 14910, Note_on_c, 0, 79, 0
2, 14912, Note_on_c, 0, 81, 61
2, 14942, Note_on_c, 0, 81, 0
2, 14944, Note_on_c, 0, 83, 53
2, 14974, Note_on_c, 0, 83, 0
2, 14976, Note_on_c, 0, 84, 45
2, 15008, Note_on_c, 0, 84, 0
2, 15072, Note_on_c, 0, 84, 45
2, 15094, Note_on_c, 0, 84, 0
2, 15096, Note_on_c, 0, 86, 45
2, 15118, Note_on_c, 0, 86, 0
2, 15120, Note_on_c, 0, 88, 45
2, 15142, Note_on_c, 0, 88, 0
2, 15144, Note_on_c, 0, 86, 45
2, 15166, Note_on_c, 0, 86, 0
2, 15168, Note_on_c, 0, 86, 45
2, 15200, Note_on_c, 0, 86, 0
2, 15264, Note_on_c, 0, 86, 45
2, 15286, Note_on_c, 0, 86, 0
2, 15288, Note_on_c, 0, 88, 45
2, 15310, Note_on_c, 0, 88, 0
2, 15312, Note_on_c, 0, 89, 45
2, 15334, Note_on_c, 0, 89, 0
2, 15336, Note_on_c, 0, 88, 45
2, 15358, Note_on_c, 0, 88, 0
2, 15360, Note_on_c, 0, 88, 45
2, 15454, Note_on_c, 0, 88, 0
2, 15456, Note_on_c, 0, 84, 45
2, 15488, Note_on_c, 0, 84, 0
2, 15744, Note_on_c, 0, 60, 60
2, 15774, Note_on_c, 0, 60, 0
2, 15776, Note_on_c, 0, 64, 62
2, 15806, Note_on_c, 0, 64, 0
2, 15808, Note_on_c, 0, 67, 64
2, 15838, Note_on_c, 0, 67, 0
2, 15840, Note_on_c, 0, 72, 66
2, 15870, Note_on_c, 0, 72, 0
2, 15872, Note_on_c, 0, 76, 68
2, 15902, Note_on_c, 0, 76, 0
2, 15904, Note_on_c, 0, 79, 71
2, 15934, Note_on_c, 0, 79, 0
2, 15936, Note_on_c, 0, 84, 74
2, 15968, Note_on_c, 0, 84, 0
2, 16128, Note_on_c, 0, 81, 92
2, 16160, Note_on_c, 0, 81, 0
2, 16416, Note_on_c, 0, 89, 127
2, 16510, Note_on_c, 0, 89, 0
2, 16512, Note_on_c, 0, 89, 92
2, 16542, Note_on_c, 0, 89, 0
2, 16544, Note_on_c, 0, 88, 92
2, 16574, Note_on_c, 0, 88, 0
2, 16576, Note_on_c, 0, 86, 92
2, 16606, Note_on_c, 0, 86, 0
2, 16608, Note_on_c, 0, 88, 92
2, 16638, Note_on_c, 0, 88, 0
2, 16640, Note_on_c, 0, 86, 92
2, 16670, Note_on_c, 0, 86, 0
2, 16672, Note_on_c, 0, 84, 92
2, 16702, Note_on_c, 0, 84, 0
2, 16704, Note_on_c, 0, 86, 92
2, 16734, Note_on_c, 0, 86, 0
2, 16736, Note_on_c, 0, 84, 92
2, 16766, Note_on_c, 0, 84, 0
2, 16768, Note_on_c, 0, 83, 92
2, 16798, Note_on_c, 0, 83, 0
2, 16800, Note_on_c, 0, 84, 92
2, 16830, Note_on_c, 0, 84, 0
2, 16832, Note_on_c, 0, 83, 92
2, 16862, Note_on_c, 0, 83, 0
2, 16864, Note_on_c, 0, 81, 92
2, 16894, Note_on_c, 0, 81, 0
2, 16896, Note_on_c, 0, 83, 92
2, 16926, Note_on_c, 0, 83, 0
2, 16928, Note_on_c, 0, 81, 92
2, 16958, Note_on_c, 0, 81, 0
2, 16960, Note_on_c, 0, 79, 92
2, 16990, Note_on_c, 0, 79, 0
2, 16992, Note_on_c, 0, 81, 92
2, 17022, Note_on_c, 0, 81, 0
2, 17024, Note_on_c, 0, 79, 92
2, 17054, Note_on_c, 0, 79, 0
2, 17056, Note_on_c, 0, 78, 92
2, 17086, Note_on_c, 0, 78, 0
2, 17088, Note_on_c, 0, 79, 92
2, 17118, Note_on_c, 0, 79, 0
2, 17120, Note_on_c, 0, 83, 85
2, 17150, Note_on_c, 0, 83, 0
2, 17152, Note_on_c, 0, 81, 77
2, 17182, Note_on_c, 0, 81, 0
2, 17184, Note_on_c, 0, 79, 69
2, 17214, Note_on_c, 0, 79, 0
2, 17216, Note_on_c, 0, 81, 61
2, 17246, Note_on_c, 0, 81, 0
2, 17248, Note_on_c, 0, 83, 53
2, 17278, Note_on_c, 0, 83, 0
2, 17280, Note_on_c, 0, 84, 45
2, 17312, Note_on_c, 0, 84, 0
2, 17376, Note_on_c, 0, 84, 45
2, 17398, Note_on_c, 0, 84, 0
2, 17400, Note_on_c, 0, 86, 45
2, 17422, Note_on_c, 0, 86, 0
2, 17424, Note_on_c, 0, 88, 45
2, 17446, Note_on_c, 0, 88, 0
2, 17448, Note_on_c, 0, 86, 45
2, 17470, Note_on_c, 0, 86, 0
2, 17472, Note_on_c, 0, 86, 45
2, 17504, Note_on_c, 0, 86, 0
2, 17568, Note_on_c, 0, 86, 45
2, 17590, Note_on_c, 0, 86, 0
2, 17592, Note_on_c, 0, 88, 45
2, 17614, Note_on_c, 0, 88, 0
2, 17616, Note_on_c, 0, 89, 45
2, 17638, Note_on_c, 0, 89, 0
2, 17640, Note_on_c, 0, 88, 45
2, 17662, Note_on_c, 0, 88, 0
2, 17664, Note_on_c, 0, 84, 45
2, 17758, Note_on_c, 0, 84, 0
2, 17856, Note_on_c, 0, 71, 45
2, 17886, Note_on_c, 0, 71, 0
2, 17888, Note_on_c, 0, 72, 45
2, 17918, Note_on_c, 0, 72, 0
2, 17920, Note_on_c, 0, 74, 45
2, 17950, Note_on_c, 0, 74, 0
2, 17952, Note_on_c, 0, 71, 63
2, 17952, Note_on_c, 0, 79, 45
2, 17982, Note_on_c, 0, 71, 0
2, 17984, Note_on_c, 0, 72, 45
2, 18014, Note_on_c, 0, 72, 0
2, 18016, Note_on_c, 0, 74, 45
2, 18046, Note_on_c, 0, 74, 0
2, 18048, Note_on_c, 0, 71, 45
2, 18078, Note_on_c, 0, 71, 0
2, 18080, Note_on_c, 0, 72, 45
2, 18110, Note_on_c, 0, 72, 0
2, 18112, Note_on_c, 0, 79, 0
2, 18112, Note_on_c, 0, 74, 45
2, 18142, Note_on_c, 0, 74, 0
2, 18144, Note_on_c, 0, 71, 45
2, 18144, Note_on_c, 0, 79, 45
2, 18174, Note_on_c, 0, 71, 0
2, 18176, Note_on_c, 0, 72, 45
2, 18206, Note_on_c, 0, 72, 0
2, 18208, Note_on_c, 0, 74, 45
2, 18238, Note_on_c, 0, 74, 0
2, 18238, Note_on_c, 0, 79, 0
2, 18240, Note_on_c, 0, 72, 45
2, 18240, Note_on_c, 0, 79, 45
2, 18270, Note_on_c, 0, 72, 0
2, 18272, Note_on_c, 0, 74, 45
2, 18302, Note_on_c, 0, 74, 0
2, 18304, Note_on_c, 0, 76, 45
2, 18334, Note_on_c, 0, 76, 0
2, 18334, Note_on_c, 0, 79, 0
2, 18336, Note_on_c, 0, 72, 45
2, 18336, Note_on_c, 0, 79, 45
2, 18366, Note_on_c, 0, 72, 0
2, 18368, Note_on_c, 0, 74, 45
2, 18398, Note_on_c, 0, 74, 0
2, 18400, Note_on_c, 0, 76, 45
2, 18430, Note_on_c, 0, 76, 0
2, 18430, Note_on_c, 0, 79, 0
2, 18432, Note_on_c, 0, 77, 45
2, 18462, Note_on_c, 0, 77, 0
2, 18464, Note_on_c, 0, 76, 45
2, 18494, Note_on_c, 0, 76, 0
2, 18496, Note_on_c, 0, 74, 45
2, 18526, Note_on_c, 0, 74, 0
2, 18528, Note_on_c, 0, 77, 63
2, 18528, Note_on_c, 0, 79, 45
2, 18558, Note_on_c, 0, 77, 0
2, 18560, Note_on_c, 0, 76, 45
2, 18590, Note_on_c, 0, 76, 0
2, 18592, Note_on_c, 0, 74, 45
2, 18622, Note_on_c, 0, 74, 0
2, 18624, Note_on_c, 0, 77, 45
2, 18654, Note_on_c, 0, 77, 0
2, 18656, Note_on_c, 0, 76, 45
2, 18686, Note_on_c, 0, 76, 0
2, 18688, Note_on_c, 0, 79, 0
2, 18688, Note_on_c, 0, 74, 45
2, 18718, Note_on_c, 0, 74, 0
2, 18720, Note_on_c, 0, 77, 45
2, 18720, Note_on_c, 0, 79, 45
2, 18750, Note_on_c, 0, 77, 0
2, 18752, Note_on_c, 0, 76, 45
2, 18782, Note_on_c, 0, 76, 0
2, 18784, Note_on_c, 0, 74, 45
2, 18814, Note_on_c, 0, 74, 0
2, 18814, Note_on_c, 0, 79, 0
2, 18816, Note_on_c, 0, 76, 45
2, 18816, Note_on_c, 0, 79, 45
2, 18846, Note_on_c, 0, 76, 0
2, 18848, Note_on_c, 0, 74, 45
2, 18878, Note_on_c, 0, 74, 0
2, 18880, Note_on_c, 0, 72, 45
2, 18910, Note_on_c, 0, 72, 0
2, 18910, Note_on_c, 0, 79, 0
2, 18912, Note_on_c, 0, 76, 45
2, 18912, Note_on_c, 0, 79, 45
2, 18942, Note_on_c, 0, 76, 0
2, 18944, Note_on_c, 0, 74, 45
2, 18974, Note_on_c, 0, 74, 0
2, 18976, Note_on_c, 0, 72, 45
2, 19006, Note_on_c, 0, 72, 0
2, 19006, Note_on_c, 0, 79, 0
2, 19008, Note_on_c, 0, 71, 45
2, 19038, Note_on_c, 0, 71, 0
2, 19040, Note_on_c, 0, 72, 45
2, 19070, Note_on_c, 0, 72, 0
2, 19072, Note_on_c, 0, 74, 45
2, 19102, Note_on_c, 0, 74, 0
2, 19104, Note_on_c, 0, 71, 63
2, 19104, Note_on_c, 0, 79, 45
2, 19134, Note_on_c, 0, 71, 0
2, 19136, Note_on_c, 0, 72, 45
2, 19166, Note_on_c, 0, 72, 0
2, 19168, Note_on_c, 0, 74, 45
2, 19198, Note_on_c, 0, 74, 0
2, 19200, Note_on_c, 0, 71, 45
2, 19230, Note_on_c, 0, 71, 0
2, 19232, Note_on_c, 0, 72, 45
2, 19262, Note_on_c, 0, 72, 0
2, 19264, Note_on_c, 0, 79, 0
2, 19264, Note_on_c, 0, 74, 45
2, 19294, Note_on_c, 0, 74, 0
2, 19296, Note_on_c, 0, 71, 63
2, 19296, Note_on_c, 0, 79, 45
2, 19326, Note_on_c, 0, 71, 0
2, 19328, Note_on_c, 0, 72, 45
2, 19358, Note_on_c, 0, 72, 0
2, 19360, Note_on_c, 0, 74, 45
2, 19390, Note_on_c, 0, 74, 0
2, 19390, Note_on_c, 0, 79, 0
2, 19392, Note_on_c, 0, 72, 63
2, 19392, Note_on_c, 0, 79, 45
2, 19422, Note_on_c, 0, 72, 0
2, 19424, Note_on_c, 0, 74, 45
2, 19454, Note_on_c, 0, 74, 0
2, 19456, Note_on_c, 0, 76, 45
2, 19486, Note_on_c, 0, 76, 0
2, 19486, Note_on_c, 0, 79, 0
2, 19488, Note_on_c, 0, 72, 63
2, 19488, Note_on_c, 0, 79, 45
2, 19518, Note_on_c, 0, 72, 0
2, 19520, Note_on_c, 0, 74, 45
2, 19550, Note_on_c, 0, 74, 0
2, 19552, Note_on_c, 0, 76, 45
2, 19582, Note_on_c, 0, 76, 0
2, 19582, Note_on_c, 0, 79, 0
2, 19584, Note_on_c, 0, 71, 63
2, 19584, Note_on_c, 0, 79, 45
2, 19605, Note_on_c, 0, 71, 0
2, 19616, Note_on_c, 0, 72, 45
2, 19646, Note_on_c, 0, 72, 0
2, 19648, Note_on_c, 0, 74, 45
2, 19678, Note_on_c, 0, 74, 0
2, 19678, Note_on_c, 0, 79, 0
2, 19680, Note_on_c, 0, 69, 63
2, 19680, Note_on_c, 0, 78, 45
2, 19701, Note_on_c, 0, 69, 0
2, 19712, Note_on_c, 0, 71, 45
2, 19742, Note_on_c, 0, 71, 0
2, 19744, Note_on_c, 0, 72, 45
2, 19774, Note_on_c, 0, 72, 0
2, 19774, Note_on_c, 0, 78, 0
2, 19776, Note_on_c, 0, 71, 63
2, 19776, Note_on_c, 0, 79, 45
2, 19797, Note_on_c, 0, 71, 0
2, 19808, Note_on_c, 0, 72, 45
2, 19838, Note_on_c, 0, 72, 0
2, 19840, Note_on_c, 0, 74, 45
2, 19870, Note_on_c, 0, 74, 0
2, 19870, Note_on_c, 0, 79, 0
2, 19872, Note_on_c, 0, 69, 63
2, 19872, Note_on_c, 0, 78, 45
2, 19893, Note_on_c, 0, 69, 0
2, 19904, Note_on_c, 0, 71, 45
2, 19934, Note_on_c, 0, 71, 0
2, 19936, Note_on_c, 0, 72, 45
2, 19966, Note_on_c, 0, 72, 0
2, 19966, Note_on_c, 0, 78, 0
2, 19968, Note_on_c, 0, 71, 63
2, 19968, Note_on_c, 0, 79, 45
2, 19989, Note_on_c, 0, 71, 0
2, 20000, Note_on_c, 0, 72, 45
2, 20030, Note_on_c, 0, 72, 0
2, 20032, Note_on_c, 0, 74, 45
2, 20062, Note_on_c, 0, 74, 0
2, 20062, Note_on_c, 0, 79, 0
2, 20064, Note_on_c, 0, 69, 63
2, 20064, Note_on_c, 0, 78, 45
2, 20085, Note_on_c, 0, 69, 0
2, 20096, Note_on_c, 0, 71, 45
2, 20126, Note_on_c, 0, 71, 0
2, 20128, Note_on_c, 0, 72, 45
2, 20158, Note_on_c, 0, 72, 0
2, 20158, Note_on_c, 0, 78, 0
2, 20160, Note_on_c, 0, 71, 45
2, 20160, Note_on_c, 0, 79, 45
2, 20190, Note_on_c, 0, 79, 0
2, 20192, Note_on_c, 0, 81, 45
2, 20222, Note_on_c, 0, 81, 0
2, 20224, Note_on_c, 0, 79, 45
2, 20254, Note_on_c, 0, 79, 0
2, 20254, Note_on_c, 0, 71, 0
2, 20256, Note_on_c, 0, 78, 45
2, 20286, Note_on_c, 0, 78, 0
2, 20288, Note_on_c, 0, 79, 45
2, 20318, Note_on_c, 0, 79, 0
2, 20320, Note_on_c, 0, 78, 45
2, 20350, Note_on_c, 0, 78, 0
2, 20352, Note_on_c, 0, 79, 45
2, 20382, Note_on_c, 0, 79, 0
2, 20384, Note_on_c, 0, 81, 45
2, 20414, Note_on_c, 0, 81, 0
2, 20416, Note_on_c, 0, 79, 45
2, 20446, Note_on_c, 0, 79, 0
2, 20448, Note_on_c, 0, 78, 45
2, 20478, Note_on_c, 0, 78, 0
2, 20480, Note_on_c, 0, 79, 45
2, 20510, Note_on_c, 0, 79, 0
2, 20512, Note_on_c, 0, 78, 45
2, 20542, Note_on_c, 0, 78, 0
2, 20544, Note_on_c, 0, 79, 45
2, 20574, Note_on_c, 0, 79, 0
2, 20576, Note_on_c, 0, 81, 45
2, 20606, Note_on_c, 0, 81, 0
2, 20608, Note_on_c, 0, 79, 45
2, 20638, Note_on_c, 0, 79, 0
2, 20640, Note_on_c, 0, 78, 45
2, 20670, Note_on_c, 0, 78, 0
2, 20672, Note_on_c, 0, 79, 45
2, 20702, Note_on_c, 0, 79, 0
2, 20704, Note_on_c, 0, 78, 45
2, 20734, Note_on_c, 0, 78, 0
2, 20736, Note_on_c, 0, 71, 63
2, 20736, Note_on_c, 0, 79, 45
2, 20757, Note_on_c, 0, 71, 0
2, 20768, Note_on_c, 0, 72, 45
2, 20798, Note_on_c, 0, 72, 0
2, 20800, Note_on_c, 0, 74, 45
2, 20830, Note_on_c, 0, 74, 0
2, 20830, Note_on_c, 0, 79, 0
2, 20832, Note_on_c, 0, 69, 63
2, 20832, Note_on_c, 0, 78, 45
2, 20853, Note_on_c, 0, 69, 0
2, 20864, Note_on_c, 0, 71, 45
2, 20894, Note_on_c, 0, 71, 0
2, 20896, Note_on_c, 0, 72, 45
2, 20926, Note_on_c, 0, 72, 0
2, 20926, Note_on_c, 0, 78, 0
2, 20928, Note_on_c, 0, 71, 63
2, 20928, Note_on_c, 0, 79, 45
2, 20949, Note_on_c, 0, 71, 0
2, 20960, Note_on_c, 0, 72, 45
2, 20990, Note_on_c, 0, 72, 0
2, 20992, Note_on_c, 0, 74, 45
2, 21022, Note_on_c, 0, 74, 0
2, 21022, Note_on_c, 0, 79, 0
2, 21024, Note_on_c, 0, 69, 63
2, 21024, Note_on_c, 0, 78, 45
2, 21045, Note_on_c, 0, 69, 0
2, 21056, Note_on_c, 0, 71, 45
2, 21086, Note_on_c, 0, 71, 0
2, 21088, Note_on_c, 0, 72, 45
2, 21118, Note_on_c, 0, 72, 0
2, 21118, Note_on_c, 0, 78, 0
2, 21120, Note_on_c, 0, 71, 63
2, 21120, Note_on_c, 0, 79, 45
2, 21141, Note_on_c, 0, 71, 0
2, 21152, Note_on_c, 0, 72, 45
2, 21182, Note_on_c, 0, 72, 0
2, 21184, Note_on_c, 0, 74, 45
2, 21214, Note_on_c, 0, 74, 0
2, 21214, Note_on_c, 0, 79, 0
2, 21216, Note_on_c, 0, 69, 63
2, 21216, Note_on_c, 0, 78, 45
2, 21237, Note_on_c, 0, 69, 0
2, 21248, Note_on_c, 0, 71, 45
2, 21278, Note_on_c, 0, 71, 0
2, 21280, Note_on_c, 0, 72, 45
2, 21310, Note_on_c, 0, 72, 0
2, 21310, Note_on_c, 0, 78, 0
2, 21312, Note_on_c, 0, 71, 45
2, 21312, Note_on_c, 0, 79, 45
2, 21342, Note_on_c, 0, 79, 0
2, 21344, Note_on_c, 0, 81, 45
2, 21374, Note_on_c, 0, 81, 0
2, 21376, Note_on_c, 0, 79, 45
2, 21406, Note_on_c, 0, 79, 0
2, 21406, Note_on_c, 0, 71, 0
2, 21408, Note_on_c, 0, 78, 45
2, 21438, Note_on_c, 0, 78, 0
2, 21440, Note_on_c, 0, 79, 45
2, 21470, Note_on_c, 0, 79, 0
2, 21472, Note_on_c, 0, 78, 45
2, 21502, Note_on_c, 0, 78, 0
2, 21504, Note_on_c, 0, 79, 45
2, 21534, Note_on_c, 0, 79, 0
2, 21536, Note_on_c, 0, 81, 45
2, 21566, Note_on_c, 0, 81, 0
2, 21568, Note_on_c, 0, 79, 45
2, 21598, Note_on_c, 0, 79, 0
2, 21600, Note_on_c, 0, 78, 45
2, 21630, Note_on_c, 0, 78, 0
2, 21632, Note_on_c, 0, 79, 45
2, 21662, Note_on_c, 0, 79, 0
2, 21664, Note_on_c, 0, 78, 45
2, 21694, Note_on_c, 0, 78, 0
2, 21696, Note_on_c, 0, 79, 45
2, 21726, Note_on_c, 0, 79, 0
2, 21728, Note_on_c, 0, 81, 45
2, 21758, Note_on_c, 0, 81, 0
2, 21760, Note_on_c, 0, 79, 45
2, 21790, Note_on_c, 0, 79, 0
2, 21792, Note_on_c, 0, 77, 45
2, 21822, Note_on_c, 0, 77, 0
2, 21824, Note_on_c, 0, 79, 45
2, 21854, Note_on_c, 0, 79, 0
2, 21856, Note_on_c, 0, 77, 45
2, 21886, Note_on_c, 0, 77, 0
2, 21888, Note_on_c, 0, 76, 45
2, 21982, Note_on_c, 0, 76, 0
2, 22080, Note_on_c, 0, 60, 45
2, 22110, Note_on_c, 0, 60, 0
2, 22112, Note_on_c, 0, 64, 48
2, 22142, Note_on_c, 0, 64, 0
2, 22144, Note_on_c, 0, 67, 52
2, 22174, Note_on_c, 0, 67, 0
2, 22176, Note_on_c, 0, 72, 56
2, 22206, Note_on_c, 0, 72, 0
2, 22208, Note_on_c, 0, 76, 60
2, 22238, Note_on_c, 0, 76, 0
2, 22240, Note_on_c, 0, 79, 64
2, 22270, Note_on_c, 0, 79, 0
2, 22272, Note_on_c, 0, 84, 68
2, 22304, Note_on_c, 0, 84, 0
2, 22464, Note_on_c, 0, 81, 92
2, 22558, Note_on_c, 0, 81, 0
2, 22752, Note_on_c, 0, 89, 127
2, 22846, Note_on_c, 0, 89, 0
2, 22848, Note_on_c, 0, 89, 92
2, 22878, Note_on_c, 0, 89, 0
2, 22880, Note_on_c, 0, 88, 92
2, 22910, Note_on_c, 0, 88, 0
2, 22912, Note_on_c, 0, 86, 92
2, 22942, Note_on_c, 0, 86, 0
2, 22944, Note_on_c, 0, 88, 92
2, 22974, Note_on_c, 0, 88, 0
2, 22976, Note_on_c, 0, 86, 92
2, 23006, Note_on_c, 0, 86, 0
2, 23008, Note_on_c, 0, 84, 92
2, 23038, Note_on_c, 0, 84, 0
2, 23040, Note_on_c, 0, 86, 92
2, 23070, Note_on_c, 0, 86, 0
2, 23072, Note_on_c, 0, 84, 92
2, 23102, Note_on_c, 0, 84, 0
2, 23104, Note_on_c, 0, 83, 92
2, 23134, Note_on_c, 0, 83, 0
2, 23136, Note_on_c, 0, 84, 92
2, 23166, Note_on_c, 0, 84, 0
2, 23168, Note_on_c, 0, 83, 92
2, 23198, Note_on_c, 0, 83, 0
2, 23200, Note_on_c, 0, 81, 92
2, 23230, Note_on_c, 0, 81, 0
2, 23232, Note_on_c, 0, 83, 92
2, 23262, Note_on_c, 0, 83, 0
2, 23264, Note_on_c, 0, 81, 92
2, 23294, Note_on_c, 0, 81, 0
2, 23296, Note_on_c, 0, 79, 92
2, 23326, Note_on_c, 0, 79, 0
2, 23328, Note_on_c, 0, 81, 92
2, 23358, Note_on_c, 0, 81, 0
2, 23360, Note_on_c, 0, 79, 92
2, 23390, Note_on_c, 0, 79, 0
2, 23392, Note_on_c, 0, 78, 92
2, 23422, Note_on_c, 0, 78, 0
2, 23424, Note_on_c, 0, 79, 92
2, 23454, Note_on_c, 0, 79, 0
2, 23456, Note_on_c, 0, 83, 85
2, 23486, Note_on_c, 0, 83, 0
2, 23488, Note_on_c, 0, 81, 77
2, 23518, Note_on_c, 0, 81, 0
2, 23520, Note_on_c, 0, 79, 69
2, 23550, Note_on_c, 0, 79, 0
2, 23552, Note_on_c, 0, 81, 61
2, 23582, Note_on_c, 0, 81, 0
2, 23584, Note_on_c, 0, 83, 53
2, 23614, Note_on_c, 0, 83, 0
2, 23616, Note_on_c, 0, 84, 45
2, 23648, Note_on_c, 0, 84, 0
2, 23712, Note_on_c, 0, 84, 45
2, 23734, Note_on_c, 0, 84, 0
2, 23736, Note_on_c, 0, 86, 45
2, 23758, Note_on_c, 0, 86, 0
2, 23760, Note_on_c, 0, 88, 45
2, 23782, Note_on_c, 0, 88, 0
2, 23784, Note_on_c, 0, 86, 45
2, 23806, Note_on_c, 0, 86, 0
2, 23808, Note_on_c, 0, 86, 45
2, 23840, Note_on_c, 0, 86, 0
2, 23904, Note_on_c, 0, 86, 45
2, 23926, Note_on_c, 0, 86, 0
2, 23928, Note_on_c, 0, 88, 45
2, 23950, Note_on_c, 0, 88, 0
2, 23952, Note_on_c, 0, 89, 45
2, 23974, Note_on_c, 0, 89, 0
2, 23976, Note_on_c, 0, 88, 45
2, 23998, Note_on_c, 0, 88, 0
2, 24000, Note_on_c, 0, 88, 45
2, 24094, Note_on_c, 0, 88, 0
2, 24096, Note_on_c, 0, 84, 45
2, 24128, Note_on_c, 0, 84, 0
2, 24384, Note_on_c, 0, 60, 60
2, 24414, Note_on_c, 0, 60, 0
2, 24416, Note_on_c, 0, 64, 62
2, 24446, Note_on_c, 0, 64, 0
2, 24448, Note_on_c, 0, 67, 64
2, 24478, Note_on_c, 0, 67, 0
2, 24480, Note_on_c, 0, 72, 66
2, 24510, Note_on_c, 0, 72, 0
2, 24512, Note_on_c, 0, 76, 68
2, 24542, Note_on_c, 0, 76, 0
2, 24544, Note_on_c, 0, 79, 71
2, 24574, Note_on_c, 0, 79, 0
2, 24576, Note_on_c, 0, 84, 74
2, 24608, Note_on_c, 0, 84, 0
2, 24768, Note_on_c, 0, 81, 92
2, 24800, Note_on_c, 0, 81, 0
2, 25056, Note_on_c, 0, 89, 127
2, 25150, Note_on_c, 0, 89, 0
2, 25152, Note_on_c, 0, 89, 92
2, 25182, Note_on_c, 0, 89, 0
2, 25184, Note_on_c, 0, 88, 92
2, 25214, Note_on_c, 0, 88, 0
2, 25216, Note_on_c, 0, 86, 92
2, 25246, Note_on_c, 0, 86, 0
2, 25248, Note_on_c, 0, 88, 92
2, 25278, Note_on_c, 0, 88, 0
2, 25280, Note_on_c, 0, 86, 92
2, 25310, Note_on_c, 0, 86, 0
2, 25312, Note_on_c, 0, 84, 92
2, 25342, Note_on_c, 0, 84, 0
2, 25344, Note_on_c, 0, 86, 92
2, 25374, Note_on_c, 0, 86, 0
2, 25376, Note_on_c, 0, 84, 92
2, 25406, Note_on_c, 0, 84, 0
2, 25408, Note_on_c, 0, 83, 92
2, 25438, Note_on_c, 0, 83, 0
2, 25440, Note_on_c, 0, 84, 92
2, 25470, Note_on_c, 0, 84, 0
2, 25472, Note_on_c, 0, 83, 92
2, 25502, Note_on_c, 0, 83, 0
2, 25504, Note_on_c, 0, 81, 92
2, 25534, Note_on_c, 0, 81, 0
2, 25536, Note_on_c, 0, 83, 92
2, 25566, Note_on_c, 0, 83, 0
2, 25568, Note_on_c, 0, 81, 92
2, 25598, Note_on_c, 0, 81, 0
2, 25600, Note_on_c, 0, 79, 92
2, 25630, Note_on_c, 0, 79, 0
2, 25632, Note_on_c, 0, 81, 92
2, 25662, Note_on_c, 0, 81, 0
2, 25664, Note_on_c, 0, 79, 92
2, 25694, Note_on_c, 0, 79, 0
2, 25696, Note_on_c, 0, 78, 92
2, 25726, Note_on_c, 0, 78, 0
2, 25728, Note_on_c, 0, 79, 92
2, 25758, Note_on_c, 0, 79, 0
2, 25760, Note_on_c, 0, 83, 85
2, 25790, Note_on_c, 0, 83, 0
2, 25792, Note_on_c, 0, 81, 77
2, 25822, Note_on_c, 0, 81, 0
2, 25824, Note_on_c, 0, 79, 69
2, 25854, Note_on_c, 0, 79, 0
2, 25856, Note_on_c, 0, 81, 61
2, 25886, Note_on_c, 0, 81, 0
2, 25888, Note_on_c, 0, 83, 53
2, 25918, Note_on_c, 0, 83, 0
2, 25920, Note_on_c, 0, 84, 45
2, 25952, Note_on_c, 0, 84, 0
2, 26016, Note_on_c, 0, 84, 45
2, 26038, Note_on_c, 0, 84, 0
2, 26040, Note_on_c, 0, 86, 45
2, 26062, Note_on_c, 0, 86, 0
2, 26064, Note_on_c, 0, 88, 45
2, 26086, Note_on_c, 0, 88, 0
2, 26088, Note_on_c, 0, 86, 45
2, 26110, Note_on_c, 0, 86, 0
2, 26112, Note_on_c, 0, 86, 45
2, 26144, Note_on_c, 0, 86, 0
2, 26208, Note_on_c, 0, 86, 45
2, 26230, Note_on_c, 0, 86, 0
2, 26232, Note_on_c, 0, 88, 45
2, 26254, Note_on_c, 0, 88, 0
2, 26256, Note_on_c, 0, 89, 45
2, 26278, Note_on_c, 0, 89, 0
2, 26280, Note_on_c, 0, 88, 45
2, 26302, Note_on_c, 0, 88, 0
2, 26304, Note_on_c, 0, 84, 45
2, 26398, Note_on_c, 0, 84, 0
2, 26496, Note_on_c, 0, 84, 45
2, 26528, Note_on_c, 0, 84, 0
2, 26592, Note_on_c, 0, 84, 45
2, 26614, Note_on_c, 0, 84, 0
2, 26616, Note_on_c, 0, 86, 45
2, 26638, Note_on_c, 0, 86, 0
2, 26640, Note_on_c, 0, 88, 45
2, 26662, Note_on_c, 0, 88, 0
2, 26664, Note_on_c, 0, 86, 45
2, 26686, Note_on_c, 0, 86, 0
2, 26688, Note_on_c, 0, 86, 45
2, 26720, Note_on_c, 0, 86, 0
2, 26784, Note_on_c, 0, 86, 45
2, 26806, Note_on_c, 0, 86, 0
2, 26808, Note_on_c, 0, 88, 45
2, 26830, Note_on_c, 0, 88, 0
2, 26832, Note_on_c, 0, 89, 45
2, 26854, Note_on_c, 0, 89, 0
2, 26856, Note_on_c, 0, 88, 45
2, 26878, Note_on_c, 0, 88, 0
2, 26880, Note_on_c, 0, 84, 45
2, 26974, Note_on_c, 0, 84, 0
2, 27072, Note_on_c, 0, 51, 45
2, 27072, Note_on_c, 0, 63, 45
2, 27328, Note_on_c, 0, 63, 0
2, 27328, Note_on_c, 0, 51, 0
2, 27360, Note_on_c, 0, 50, 45
2, 27360, Note_on_c, 0, 62, 45
2, 27454, Note_on_c, 0, 62, 0
2, 27454, Note_on_c, 0, 50, 0
2, 27456, Note_on_c, 0, 51, 45
2, 27456, Note_on_c, 0, 63, 45
2, 27488, Note_on_c, 0, 63, 0
2, 27488, Note_on_c, 0, 51, 0
2, 27552, Note_on_c, 0, 48, 45
2, 27552, Note_on_c, 0, 60, 45
2, 27584, Note_on_c, 0, 60, 0
2, 27584, Note_on_c, 0, 48, 0
2, 27648, Note_on_c, 0, 56, 45
2, 27648, Note_on_c, 0, 68, 45
2, 27904, Note_on_c, 0, 68, 0
2, 27904, Note_on_c, 0, 56, 0
2, 27936, Note_on_c, 0, 55, 45
2, 27936, Note_on_c, 0, 67, 45
2, 28030, Note_on_c, 0, 67, 0
2, 28030, Note_on_c, 0, 55, 0
2, 28032, Note_on_c, 0, 53, 45
2, 28032, Note_on_c, 0, 65, 45
2, 28064, Note_on_c, 0, 65, 0
2, 28064, Note_on_c, 0, 53, 0
2, 28128, Note_on_c, 0, 51, 45
2, 28128, Note_on_c, 0, 63, 45
2, 28160, Note_on_c, 0, 63, 0
2, 28160, Note_on_c, 0, 51, 0
2, 28224, Note_on_c, 0, 50, 45
2, 28224, Note_on_c, 0, 62, 45
2, 28480, Note_on_c, 0, 62, 0
2, 28480, Note_on_c, 0, 50, 0
2, 28512, Note_on_c, 0, 49, 45
2, 28512, Note_on_c, 0, 61, 45
2, 28606, Note_on_c, 0, 61, 0
2, 28606, Note_on_c, 0, 49, 0
2, 28608, Note_on_c, 0, 50, 45
2, 28608, Note_on_c, 0, 62, 45
2, 28640, Note_on_c, 0, 62, 0
2, 28640, Note_on_c, 0, 50, 0
2, 28704, Note_on_c, 0, 46, 45
2, 28704, Note_on_c, 0, 58, 45
2, 28736, Note_on_c, 0, 58, 0
2, 28736, Note_on_c, 0, 46, 0
2, 28800, Note_on_c, 0, 58, 45
2, 28800, Note_on_c, 0, 70, 45
2, 29056, Note_on_c, 0, 70, 0
2, 29056, Note_on_c, 0, 58, 0
2, 29088, Note_on_c, 0, 56, 45
2, 29088, Note_on_c, 0, 68, 45
2, 29182, Note_on_c, 0, 68, 0
2, 29182, Note_on_c, 0, 56, 0
2, 29184, Note_on_c, 0, 55, 45
2, 29184, Note_on_c, 0, 67, 45
2, 29216, Note_on_c, 0, 67, 0
2, 29216, Note_on_c, 0, 55, 0
2, 29280, Note_on_c, 0, 53, 45
2, 29280, Note_on_c, 0, 65, 45
2, 29312, Note_on_c, 0, 65, 0
2, 29312, Note_on_c, 0, 53, 0
2, 29376, Note_on_c, 0, 52, 45
2, 29376, Note_on_c, 0, 64, 45
2, 29632, Note_on_c, 0, 64, 0
2, 29632, Note_on_c, 0, 52, 0
2, 29664, Note_on_c, 0, 51, 45
2, 29664, Note_on_c, 0, 63, 45
2, 29758, Note_on_c, 0, 63, 0
2, 29758, Note_on_c, 0, 51, 0
2, 29760, Note_on_c, 0, 52, 45
2, 29760, Note_on_c, 0, 64, 45
2, 29792, Note_on_c, 0, 64, 0
2, 29792, Note_on_c, 0, 52, 0
2, 29856, Note_on_c, 0, 48, 45
2, 29856, Note_on_c, 0, 60, 45
2, 29888, Note_on_c, 0, 60, 0
2, 29888, Note_on_c, 0, 48, 0
2, 29952, Note_on_c, 0, 60, 45
2, 29952, Note_on_c, 0, 72, 45
2, 30208, Note_on_c, 0, 72, 0
2, 30208, Note_on_c, 0, 60, 0
2, 30240, Note_on_c, 0, 58, 45
2, 30240, Note_on_c, 0, 70, 45
2, 30334, Note_on_c, 0, 70, 0
2, 30334, Note_on_c, 0, 58, 0
2, 30336, Note_on_c, 0, 56, 45
2, 30336, Note_on_c, 0, 68, 45
2, 30368, Note_on_c, 0, 68, 0
2, 30368, Note_on_c, 0, 56, 0
2, 30432, Note_on_c, 0, 55, 45
2, 30432, Note_on_c, 0, 67, 45
2, 30464, Note_on_c, 0, 67, 0
2, 30464, Note_on_c, 0, 55, 0
2, 30528, Note_on_c, 0, 54, 45
2, 30528, Note_on_c, 0, 66, 45
2, 30688, Note_on_c, 0, 66, 0
2, 30688, Note_on_c, 0, 54, 0
2, 30720, Note_on_c, 0, 54, 50
2, 30720, Note_on_c, 0, 66, 50
2, 30880, Note_on_c, 0, 66, 0
2, 30880, Note_on_c, 0, 54, 0
2, 30912, Note_on_c, 0, 54, 55
2, 30912, Note_on_c, 0, 66, 55
2, 31072, Note_on_c, 0, 66, 0
2, 31072, Note_on_c, 0, 54, 0
2, 31104, Note_on_c, 0, 55, 60
2, 31104, Note_on_c, 0, 67, 60
2, 31360, Note_on_c, 0, 67, 0
2, 31360, Note_on_c, 0, 55, 0
2, 31392, Note_on_c, 0, 54, 60
2, 31392, Note_on_c, 0, 66, 60
2, 31486, Note_on_c, 0, 66, 0
2, 31486, Note_on_c, 0, 54, 0
2, 31488, Note_on_c, 0, 55, 60
2, 31488, Note_on_c, 0, 67, 60
2, 31520, Note_on_c, 0, 67, 0
2, 31520, Note_on_c, 0, 55, 0
2, 31584, Note_on_c, 0, 65, 60
2, 31584, Note_on_c, 0, 77, 60
2, 31616, Note_on_c, 0, 77, 0
2, 31616, Note_on_c, 0, 65, 0
2, 31680, Note_on_c, 0, 63, 60
2, 31680, Note_on_c, 0, 75, 60
2, 31936, Note_on_c, 0, 75, 0
2, 31936, Note_on_c, 0, 63, 0
2, 31968, Note_on_c, 0, 59, 60
2, 31968, Note_on_c, 0, 71, 60
2, 32062, Note_on_c, 0, 71, 0
2, 32062, Note_on_c, 0, 59, 0
2, 32064, Note_on_c, 0, 60, 60
2, 32064, Note_on_c, 0, 72, 60
2, 32096, Note_on_c, 0, 72, 0
2, 32096, Note_on_c, 0, 60, 0
2, 32160, Note_on_c, 0, 56, 60
2, 32160, Note_on_c, 0, 68, 60
2, 32192, Note_on_c, 0, 68, 0
2, 32192, Note_on_c, 0, 56, 0
2, 32256, Note_on_c, 0, 55, 60
2, 32256, Note_on_c, 0, 67, 60
2, 32512, Note_on_c, 0, 67, 0
2, 32512, Note_on_c, 0, 55, 0
2, 32544, Note_on_c, 0, 54, 60
2, 32544, Note_on_c, 0, 66, 60
2, 32638, Note_on_c, 0, 66, 0
2, 32638, Note_on_c, 0, 54, 0
2, 32640, Note_on_c, 0, 55, 60
2, 32640, Note_on_c, 0, 67, 60
2, 32672, Note_on_c, 0, 67, 0
2, 32672, Note_on_c, 0, 55, 0
2, 32736, Note_on_c, 0, 65, 60
2, 32736, Note_on_c, 0, 77, 60
2, 32768, Note_on_c, 0, 77, 0
2, 32768, Note_on_c, 0, 65, 0
2, 32832, Note_on_c, 0, 63, 60
2, 32832, Note_on_c, 0, 75, 60
2, 33088, Note_on_c, 0, 75, 0
2, 33088, Note_on_c, 0, 63, 0
2, 33120, Note_on_c, 0, 59, 60
2, 33120, Note_on_c, 0, 71, 60
2, 33214, Note_on_c, 0, 71, 0
2, 33214, Note_on_c, 0, 59, 0
2, 33216, Note_on_c, 0, 60, 60
2, 33216, Note_on_c, 0, 72, 60
2, 33248, Note_on_c, 0, 72, 0
2, 33248, Note_on_c, 0, 60, 0
2, 33312, Note_on_c, 0, 56, 60
2, 33312, Note_on_c, 0, 68, 60
2, 33344, Note_on_c, 0, 68, 0
2, 33344, Note_on_c, 0, 56, 0
2, 33408, Note_on_c, 0, 55, 60
2, 33408, Note_on_c, 0, 67, 60
2, 33744, Note_on_c, 0, 67, 0
2, 33744, Note_on_c, 0, 55, 0
2, 33792, Note_on_c, 0, 79, 76
2, 33822, Note_on_c, 0, 79, 0
2, 33824, Note_on_c, 0, 74, 77
2, 33854, Note_on_c, 0, 74, 0
2, 33856, Note_on_c, 0, 71, 78
2, 33886, Note_on_c, 0, 71, 0
2, 33888, Note_on_c, 0, 67, 79
2, 33918, Note_on_c, 0, 67, 0
2, 33920, Note_on_c, 0, 71, 80
2, 33950, Note_on_c, 0, 71, 0
2, 33952, Note_on_c, 0, 74, 81
2, 33982, Note_on_c, 0, 74, 0
2, 33984, Note_on_c, 0, 79, 114
2, 34005, Note_on_c, 0, 79, 0
2, 34016, Note_on_c, 0, 74, 116
2, 34046, Note_on_c, 0, 74, 0
2, 34048, Note_on_c, 0, 71, 84
2, 34078, Note_on_c, 0, 71, 0
2, 34080, Note_on_c, 0, 67, 85
2, 34110, Note_on_c, 0, 67, 0
2, 34112, Note_on_c, 0, 71, 86
2, 34142, Note_on_c, 0, 71, 0
2, 34144, Note_on_c, 0, 74, 87
2, 34174, Note_on_c, 0, 74, 0
2, 34176, Note_on_c, 0, 79, 123
2, 34197, Note_on_c, 0, 79, 0
2, 34208, Note_on_c, 0, 74, 124
2, 34238, Note_on_c, 0, 74, 0
2, 34240, Note_on_c, 0, 71, 90
2, 34270, Note_on_c, 0, 71, 0
2, 34272, Note_on_c, 0, 67, 91
2, 34302, Note_on_c, 0, 67, 0
2, 34304, Note_on_c, 0, 71, 92
2, 34334, Note_on_c, 0, 71, 0
2, 34336, Note_on_c, 0, 74, 94
2, 34366, Note_on_c, 0, 74, 0
2, 34368, Note_on_c, 0, 79, 127
2, 34389, Note_on_c, 0, 79, 0
2, 34400, Note_on_c, 0, 74, 127
2, 34430, Note_on_c, 0, 74, 0
2, 34432, Note_on_c, 0, 71, 100
2, 34462, Note_on_c, 0, 71, 0
2, 34464, Note_on_c, 0, 67, 102
2, 34494, Note_on_c, 0, 67, 0
2, 34496, Note_on_c, 0, 71, 104
2, 34526, Note_on_c, 0, 71, 0
2, 34528, Note_on_c, 0, 74, 106
2, 34558, Note_on_c, 0, 74, 0
2, 34560, Note_on_c, 0, 67, 108
2, 34560, Note_on_c, 0, 79, 108
2, 35088, Note_on_c, 0, 79, 0
2, 35088, Note_on_c, 0, 67, 0
2, 35136, Note_on_c, 0, 64, 45
2, 35296, Note_on_c, 0, 64, 0
2, 35328, Note_on_c, 0, 64, 45
2, 35358, Note_on_c, 0, 64, 0
2, 35360, Note_on_c, 0, 67, 45
2, 35390, Note_on_c, 0, 67, 0
2, 35392, Note_on_c, 0, 65, 45
2, 35422, Note_on_c, 0, 65, 0
2, 35424, Note_on_c, 0, 64, 45
2, 35454, Note_on_c, 0, 64, 0
2, 35456, Note_on_c, 0, 62, 45
2, 35486, Note_on_c, 0, 62, 0
2, 35488, Note_on_c, 0, 60, 45
2, 35518, Note_on_c, 0, 60, 0
2, 35520, Note_on_c, 0, 59, 45
2, 35550, Note_on_c, 0, 59, 0
2, 35552, Note_on_c, 0, 57, 45
2, 35582, Note_on_c, 0, 57, 0
2, 35584, Note_on_c, 0, 55, 45
2, 35614, Note_on_c, 0, 55, 0
2, 35616, Note_on_c, 0, 53, 45
2, 35646, Note_on_c, 0, 53, 0
2, 35648, Note_on_c, 0, 52, 45
2, 35678, Note_on_c, 0, 52, 0
2, 35680, Note_on_c, 0, 50, 45
2, 35710, Note_on_c, 0, 50, 0
2, 35712, Note_on_c, 0, 48, 45
2, 35742, Note_on_c, 0, 48, 0
2, 35744, Note_on_c, 0, 52, 47
2, 35774, Note_on_c, 0, 52, 0
2, 35776, Note_on_c, 0, 55, 49
2, 35806, Note_on_c, 0, 55, 0
2, 35808, Note_on_c, 0, 60, 51
2, 35838, Note_on_c, 0, 60, 0
2, 35840, Note_on_c, 0, 64, 53
2, 35870, Note_on_c, 0, 64, 0
2, 35872, Note_on_c, 0, 67, 55
2, 35902, Note_on_c, 0, 67, 0
2, 35904, Note_on_c, 0, 72, 57
2, 35934, Note_on_c, 0, 72, 0
2, 35936, Note_on_c, 0, 76, 59
2, 35966, Note_on_c, 0, 76, 0
2, 35968, Note_on_c, 0, 79, 62
2, 35998, Note_on_c, 0, 79, 0
2, 36000, Note_on_c, 0, 72, 65
2, 36030, Note_on_c, 0, 72, 0
2, 36032, Note_on_c, 0, 76, 68
2, 36062, Note_on_c, 0, 76, 0
2, 36064, Note_on_c, 0, 79, 71
2, 36094, Note_on_c, 0, 79, 0
2, 36096, Note_on_c, 0, 84, 74
2, 36128, Note_on_c, 0, 84, 0
2, 36288, Note_on_c, 0, 81, 92
2, 36320, Note_on_c, 0, 81, 0
2, 36576, Note_on_c, 0, 89, 127
2, 36670, Note_on_c, 0, 89, 0
2, 36672, Note_on_c, 0, 89, 92
2, 36702, Note_on_c, 0, 89, 0
2, 36704, Note_on_c, 0, 88, 92
2, 36734, Note_on_c, 0, 88, 0
2, 36736, Note_on_c, 0, 86, 92
2, 36766, Note_on_c, 0, 86, 0
2, 36768, Note_on_c, 0, 88, 92
2, 36798, Note_on_c, 0, 88, 0
2, 36800, Note_on_c, 0, 86, 92
2, 36830, Note_on_c, 0, 86, 0
2, 36832, Note_on_c, 0, 84, 92
2, 36862, Note_on_c, 0, 84, 0
2, 36864, Note_on_c, 0, 86, 92
2, 36894, Note_on_c, 0, 86, 0
2, 36896, Note_on_c, 0, 84, 92
2, 36926, Note_on_c, 0, 84, 0
2, 36928, Note_on_c, 0, 83, 92
2, 36958, Note_on_c, 0, 83, 0
2, 36960, Note_on_c, 0, 84, 92
2, 36990, Note_on_c, 0, 84, 0
2, 36992, Note_on_c, 0, 83, 92
2, 37022, Note_on_c, 0, 83, 0
2, 37024, Note_on_c, 0, 81, 92
2, 37054, Note_on_c, 0, 81, 0
2, 37056, Note_on_c, 0, 83, 92
2, 37086, Note_on_c, 0, 83, 0
2, 37088, Note_on_c, 0, 81, 92
2, 37118, Note_on_c, 0, 81, 0
2, 37120, Note_on_c, 0, 79, 92
2, 37150, Note_on_c, 0, 79, 0
2, 37152, Note_on_c, 0, 81, 92
2, 37182, Note_on_c, 0, 81, 0
2, 37184, Note_on_c, 0, 79, 92
2, 37214, Note_on_c, 0, 79, 0
2, 37216, Note_on_c, 0, 78, 92
2, 37246, Note_on_c, 0, 78, 0
2, 37248, Note_on_c, 0, 79, 92
2, 37278, Note_on_c, 0, 79, 0
2, 37280, Note_on_c, 0, 83, 85
2, 37310, Note_on_c, 0, 83, 0
2, 37312, Note_on_c, 0, 81, 77
2, 37342, Note_on_c, 0, 81, 0
2, 37344, Note_on_c, 0, 79, 69
2, 37374, Note_on_c, 0, 79, 0
2, 37376, Note_on_c, 0, 81, 61
2, 37406, Note_on_c, 0, 81, 0
2, 37408, Note_on_c, 0, 83, 53
2, 37438, Note_on_c, 0, 83, 0
2, 37440, Note_on_c, 0, 84, 45
2, 37472, Note_on_c, 0, 84, 0
2, 37536, Note_on_c, 0, 84, 45
2, 37558, Note_on_c, 0, 84, 0
2, 37560, Note_on_c, 0, 86, 45
2, 37582, Note_on_c, 0, 86, 0
2, 37584, Note_on_c, 0, 88, 45
2, 37606, Note_on_c, 0, 88, 0
2, 37608, Note_on_c, 0, 86, 45
2, 37630, Note_on_c, 0, 86, 0
2, 37632, Note_on_c, 0, 86, 45
2, 37664, Note_on_c, 0, 86, 0
2, 37728, Note_on_c, 0, 86, 45
2, 37750, Note_on_c, 0, 86, 0
2, 37752, Note_on_c, 0, 88, 45
2, 37774, Note_on_c, 0, 88, 0
2, 37776, Note_on_c, 0, 89, 45
2, 37798, Note_on_c, 0, 89, 0
2, 37800, Note_on_c, 0, 88, 45
2, 37822, Note_on_c, 0, 88, 0
2, 37824, Note_on_c, 0, 88, 45
2, 37918, Note_on_c, 0, 88, 0
2, 37920, Note_on_c, 0, 84, 45
2, 37952, Note_on_c, 0, 84, 0
2, 38208, Note_on_c, 0, 60, 45
2, 38238, Note_on_c, 0, 60, 0
2, 38240, Note_on_c, 0, 64, 45
2, 38270, Note_on_c, 0, 64, 0
2, 38272, Note_on_c, 0, 67, 45
2, 38302, Note_on_c, 0, 67, 0
2, 38304, Note_on_c, 0, 72, 45
2, 38334, Note_on_c, 0, 72, 0
2, 38336, Note_on_c, 0, 76, 45
2, 38366, Note_on_c, 0, 76, 0
2, 38368, Note_on_c, 0, 79, 45
2, 38398, Note_on_c, 0, 79, 0
2, 38400, Note_on_c, 0, 84, 45
2, 38432, Note_on_c, 0, 84, 0
2, 38592, Note_on_c, 0, 81, 92
2, 38624, Note_on_c, 0, 81, 0
2, 38880, Note_on_c, 0, 89, 127
2, 38974, Note_on_c, 0, 89, 0
2, 38976, Note_on_c, 0, 89, 92
2, 39006, Note_on_c, 0, 89, 0
2, 39008, Note_on_c, 0, 88, 92
2, 39038, Note_on_c, 0, 88, 0
2, 39040, Note_on_c, 0, 86, 92
2, 39070, Note_on_c, 0, 86, 0
2, 39072, Note_on_c, 0, 88, 92
2, 39102, Note_on_c, 0, 88, 0
2, 39104, Note_on_c, 0, 86, 92
2, 39134, Note_on_c, 0, 86, 0
2, 39136, Note_on_c, 0, 84, 92
2, 39166, Note_on_c, 0, 84, 0
2, 39168, Note_on_c, 0, 86, 92
2, 39198, Note_on_c, 0, 86, 0
2, 39200, Note_on_c, 0, 84, 92
2, 39230, Note_on_c, 0, 84, 0
2, 39232, Note_on_c, 0, 83, 92
2, 39262, Note_on_c, 0, 83, 0
2, 39264, Note_on_c, 0, 84, 92
2, 39294, Note_on_c, 0, 84, 0
2, 39296, Note_on_c, 0, 83, 92
2, 39326, Note_on_c, 0, 83, 0
2, 39328, Note_on_c, 0, 81, 92
2, 39358, Note_on_c, 0, 81, 0
2, 39360, Note_on_c, 0, 83, 92
2, 39390, Note_on_c, 0, 83, 0
2, 39392, Note_on_c, 0, 81, 92
2, 39422, Note_on_c, 0, 81, 0
2, 39424, Note_on_c, 0, 79, 92
2, 39454, Note_on_c, 0, 79, 0
2, 39456, Note_on_c, 0, 81, 92
2, 39486, Note_on_c, 0, 81, 0
2, 39488, Note_on_c, 0, 79, 92
2, 39518, Note_on_c, 0, 79, 0
2, 39520, Note_on_c, 0, 78, 92
2, 39550, Note_on_c, 0, 78, 0
2, 39552, Note_on_c, 0, 79, 92
2, 39582, Note_on_c, 0, 79, 0
2, 39584, Note_on_c, 0, 83, 85
2, 39614, Note_on_c, 0, 83, 0
2, 39616, Note_on_c, 0, 81, 77
2, 39646, Note_on_c, 0, 81, 0
2, 39648, Note_on_c, 0, 79, 69
2, 39678, Note_on_c, 0, 79, 0
2, 39680, Note_on_c, 0, 81, 61
2, 39710, Note_on_c, 0, 81, 0
2, 39712, Note_on_c, 0, 83, 53
2, 39742, Note_on_c, 0, 83, 0
2, 39744, Note_on_c, 0, 84, 45
2, 39776, Note_on_c, 0, 84, 0
2, 39840, Note_on_c, 0, 84, 45
2, 39862, Note_on_c, 0, 84, 0
2, 39864, Note_on_c, 0, 86, 45
2, 39886, Note_on_c, 0, 86, 0
2, 39888, Note_on_c, 0, 88, 45
2, 39910, Note_on_c, 0, 88, 0
2, 39912, Note_on_c, 0, 86, 45
2, 39934, Note_on_c, 0, 86, 0
2, 39936, Note_on_c, 0, 86, 45
2, 39968, Note_on_c, 0, 86, 0
2, 40032, Note_on_c, 0, 86, 45
2, 40054, Note_on_c, 0, 86, 0
2, 40056, Note_on_c, 0, 88, 45
2, 40078, Note_on_c, 0, 88, 0
2, 40080, Note_on_c, 0, 89, 45
2, 40102, Note_on_c, 0, 89, 0
2, 40104, Note_on_c, 0, 88, 45
2, 40126, Note_on_c, 0, 88, 0
2, 40128, Note_on_c, 0, 84, 45
2, 40222, Note_on_c, 0, 84, 0
2, 40320, Note_on_c, 0, 71, 45
2, 40350, Note_on_c, 0, 71, 0
2, 40352, Note_on_c, 0, 72, 45
2, 40382, Note_on_c, 0, 72, 0
2, 40384, Note_on_c, 0, 74, 45
2, 40414, Note_on_c, 0, 74, 0
2, 40416, Note_on_c, 0, 71, 63
2, 40416, Note_on_c, 0, 79, 45
2, 40446, Note_on_c, 0, 71, 0
2, 40448, Note_on_c, 0, 72, 45
2, 40478, Note_on_c, 0, 72, 0
2, 40480, Note_on_c, 0, 74, 45
2, 40510, Note_on_c, 0, 74, 0
2, 40512, Note_on_c, 0, 71, 45
2, 40542, Note_on_c, 0, 71, 0
2, 40544, Note_on_c, 0, 72, 45
2, 40574, Note_on_c, 0, 72, 0
2, 40576, Note_on_c, 0, 79, 0
2, 40576, Note_on_c, 0, 74, 45
2, 40606, Note_on_c, 0, 74, 0
2, 40608, Note_on_c, 0, 71, 45
2, 40608, Note_on_c, 0, 79, 45
2, 40638, Note_on_c, 0, 71, 0
2, 40640, Note_on_c, 0, 72, 45
2, 40670, Note_on_c, 0, 72, 0
2, 40672, Note_on_c, 0, 74, 45
2, 40702, Note_on_c, 0, 74, 0
2, 40702, Note_on_c, 0, 79, 0
2, 40704, Note_on_c, 0, 72, 45
2, 40704, Note_on_c, 0, 79, 45
2, 40734, Note_on_c, 0, 72, 0
2, 40736, Note_on_c, 0, 74, 45
2, 40766, Note_on_c, 0, 74, 0
2, 40768, Note_on_c, 0, 76, 45
2, 40798, Note_on_c, 0, 76, 0
2, 40798, Note_on_c, 0, 79, 0
2, 40800, Note_on_c, 0, 72, 45
2, 40800, Note_on_c, 0, 79, 45
2, 40830, Note_on_c, 0, 72, 0
2, 40832, Note_on_c, 0, 74, 45
2, 40862, Note_on_c, 0, 74, 0
2, 40864, Note_on_c, 0, 76, 45
2, 40894, Note_on_c, 0, 76, 0
2, 40894, Note_on_c, 0, 79, 0
2, 40896, Note_on_c, 0, 77, 45
2, 40926, Note_on_c, 0, 77, 0
2, 40928, Note_on_c, 0, 76, 45
2, 40958, Note_on_c, 0, 76, 0
2, 40960, Note_on_c, 0, 74, 45
2, 40990, Note_on_c, 0, 74, 0
2, 40992, Note_on_c, 0, 77, 63
2, 40992, Note_on_c, 0, 79, 45
2, 41022, Note_on_c, 0, 77, 0
2, 41024, Note_on_c, 0, 76, 45
2, 41054, Note_on_c, 0, 76, 0
2, 41056, Note_on_c, 0, 74, 45
2, 41086, Note_on_c, 0, 74, 0
2, 41088, Note_on_c, 0, 77, 45
2, 41118, Note_on_c, 0, 77, 0
2, 41120, Note_on_c, 0, 76, 45
2, 41150, Note_on_c, 0, 76, 0
2, 41152, Note_on_c, 0, 79, 0
2, 41152, Note_on_c, 0, 74, 45
2, 41182, Note_on_c, 0, 74, 0
2, 41184, Note_on_c, 0, 77, 45
2, 41184, Note_on_c, 0, 79, 45
2, 41214, Note_on_c, 0, 77, 0
2, 41216, Note_on_c, 0, 76, 45
2, 41246, Note_on_c, 0, 76, 0
2, 41248, Note_on_c, 0, 74, 45
2, 41278, Note_on_c, 0, 74, 0
2, 41278, Note_on_c, 0, 79, 0
2, 41280, Note_on_c, 0, 76, 45
2, 41280, Note_on_c, 0, 79, 45
2, 41310, Note_on_c, 0, 76, 0
2, 41312, Note_on_c, 0, 74, 45
2, 41342, Note_on_c, 0, 74, 0
2, 41344, Note_on_c, 0, 72, 45
2, 41374, Note_on_c, 0, 72, 0
2, 41374, Note_on_c, 0, 79, 0
2, 41376, Note_on_c, 0, 76, 45
2, 41376, Note_on_c, 0, 79, 45
2, 41406, Note_on_c, 0, 76, 0
2, 41408, Note_on_c, 0, 74, 45
2, 41438, Note_on_c, 0, 74, 0
2, 41440, Note_on_c, 0, 72, 45
2, 41470, Note_on_c, 0, 72, 0
2, 41470, Note_on_c, 0, 79, 0
2, 41472, Note_on_c, 0, 71, 45
2, 41502, Note_on_c, 0, 71, 0
2, 41504, Note_on_c, 0, 72, 45
2, 41534, Note_on_c, 0, 72, 0
2, 41536, Note_on_c, 0, 74, 45
2, 41566, Note_on_c, 0, 74, 0
2, 41568, Note_on_c, 0, 71, 63
2, 41568, Note_on_c, 0, 79, 45
2, 41598, Note_on_c, 0, 71, 0
2, 41600, Note_on_c, 0, 72, 45
2, 41630, Note_on_c, 0, 72, 0
2, 41632, Note_on_c, 0, 74, 45
2, 41662, Note_on_c, 0, 74, 0
2, 41664, Note_on_c, 0, 71, 45
2, 41694, Note_on_c, 0, 71, 0
2, 41696, Note_on_c, 0, 72, 45
2, 41726, Note_on_c, 0, 72, 0
2, 41728, Note_on_c, 0, 79, 0
2, 41728, Note_on_c, 0, 74, 45
2, 41758, Note_on_c, 0, 74, 0
2, 41760, Note_on_c, 0, 71, 63
2, 41760, Note_on_c, 0, 79, 45
2, 41790, Note_on_c, 0, 71, 0
2, 41792, Note_on_c, 0, 72, 45
2, 41822, Note_on_c, 0, 72, 0
2, 41824, Note_on_c, 0, 74, 45
2, 41854, Note_on_c, 0, 74, 0
2, 41854, Note_on_c, 0, 79, 0
2, 41856, Note_on_c, 0, 72, 63
2, 41856, Note_on_c, 0, 79, 45
2, 41886, Note_on_c, 0, 72, 0
2, 41888, Note_on_c, 0, 74, 45
2, 41918, Note_on_c, 0, 74, 0
2, 41920, Note_on_c, 0, 76, 45
2, 41950, Note_on_c, 0, 76, 0
2, 41950, Note_on_c, 0, 79, 0
2, 41952, Note_on_c, 0, 72, 63
2, 41952, Note_on_c, 0, 79, 45
2, 41982, Note_on_c, 0, 72, 0
2, 41984, Note_on_c, 0, 74, 45
2, 42014, Note_on_c, 0, 74, 0
2, 42016, Note_on_c, 0, 76, 45
2, 42046, Note_on_c, 0, 76, 0
2, 42046, Note_on_c, 0, 79, 0
2, 42048, Note_on_c, 0, 71, 63
2, 42048, Note_on_c, 0, 79, 45
2, 42069, Note_on_c, 0, 71, 0
2, 42080, Note_on_c, 0, 72, 45
2, 42110, Note_on_c, 0, 72, 0
2, 42112, Note_on_c, 0, 74, 45
2, 42142, Note_on_c, 0, 74, 0
2, 42142, Note_on_c, 0, 79, 0
2, 42144, Note_on_c, 0, 69, 63
2, 42144, Note_on_c, 0, 78, 45
2, 42165, Note_on_c, 0, 69, 0
2, 42176, Note_on_c, 0, 71, 45
2, 42206, Note_on_c, 0, 71, 0
2, 42208, Note_on_c, 0, 72, 45
2, 42238, Note_on_c, 0, 72, 0
2, 42238, Note_on_c, 0, 78, 0
2, 42240, Note_on_c, 0, 71, 63
2, 42240, Note_on_c, 0, 79, 45
2, 42261, Note_on_c, 0, 71, 0
2, 42272, Note_on_c, 0, 72, 45
2, 42302, Note_on_c, 0, 72, 0
2, 42304, Note_on_c, 0, 74, 45
2, 42334, Note_on_c, 0, 74, 0
2, 42334, Note_on_c, 0, 79, 0
2, 42336, Note_on_c, 0, 69, 63
2, 42336, Note_on_c, 0, 78, 45
2, 42357, Note_on_c, 0, 69, 0
2, 42368, Note_on_c, 0, 71, 45
2, 42398, Note_on_c, 0, 71, 0
2, 42400, Note_on_c, 0, 72, 45
2, 42430, Note_on_c, 0, 72, 0
2, 42430, Note_on_c, 0, 78, 0
2, 42432, Note_on_c, 0, 71, 63
2, 42432, Note_on_c, 0, 79, 45
2, 42453, Note_on_c, 0, 71, 0
2, 42464, Note_on_c, 0, 72, 45
2, 42494, Note_on_c, 0, 72, 0
2, 42496, Note_on_c, 0, 74, 45
2, 42526, Note_on_c, 0, 74, 0
2, 42526, Note_on_c, 0, 79, 0
2, 42528, Note_on_c, 0, 69, 63
2, 42528, Note_on_c, 0, 78, 45
2, 42549, Note_on_c, 0, 69, 0
2, 42560, Note_on_c, 0, 71, 45
2, 42590, Note_on_c, 0, 71, 0
2, 42592, Note_on_c, 0, 72, 45
2, 42622, Note_on_c, 0, 72, 0
2, 42622, Note_on_c, 0, 78, 0
2, 42624, Note_on_c, 0, 71, 45
2, 42624, Note_on_c, 0, 79, 45
2, 42654, Note_on_c, 0, 79, 0
2, 42656, Note_on_c, 0, 81, 45
2, 42686, Note_on_c, 0, 81, 0
2, 42688, Note_on_c, 0, 79, 45
2, 42718, Note_on_c, 0, 79, 0
2, 42718, Note_on_c, 0, 71, 0
2, 42720, Note_on_c, 0, 78, 45
2, 42750, Note_on_c, 0, 78, 0
2, 42752, Note_on_c, 0, 79, 45
2, 42782, Note_on_c, 0, 79, 0
2, 42784, Note_on_c, 0, 78, 45
2, 42814, Note_on_c, 0, 78, 0
2, 42816, Note_on_c, 0, 79, 45
2, 42846, Note_on_c, 0, 79, 0
2, 42848, Note_on_c, 0, 81, 45
2, 42878, Note_on_c, 0, 81, 0
2, 42880, Note_on_c, 0, 79, 45
2, 42910, Note_on_c, 0, 79, 0
2, 42912, Note_on_c, 0, 78, 45
2, 42942, Note_on_c, 0, 78, 0
2, 42944, Note_on_c, 0, 79, 45
2, 42974, Note_on_c, 0, 79, 0
2, 42976, Note_on_c, 0, 78, 45
2, 43006, Note_on_c, 0, 78, 0
2, 43008, Note_on_c, 0, 79, 45
2, 43038, Note_on_c, 0, 79, 0
2, 43040, Note_on_c, 0, 81, 45
2, 43070, Note_on_c, 0, 81, 0
2, 43072, Note_on_c, 0, 79, 45
2, 43102, Note_on_c, 0, 79, 0
2, 43104, Note_on_c, 0, 78, 45
2, 43134, Note_on_c, 0, 78, 0
2, 43136, Note_on_c, 0, 79, 45
2, 43166, Note_on_c, 0, 79, 0
2, 43168, Note_on_c, 0, 78, 45
2, 43198, Note_on_c, 0, 78, 0
2, 43200, Note_on_c, 0, 71, 63
2, 43200, Note_on_c, 0, 79, 45
2, 43221, Note_on_c, 0, 71, 0
2, 43232, Note_on_c, 0, 72, 45
2, 43262, Note_on_c, 0, 72, 0
2, 43264, Note_on_c, 0, 74, 45
2, 43294, Note_on_c, 0, 74, 0
2, 43294, Note_on_c, 0, 79, 0
2, 43296, Note_on_c, 0, 69, 63
2, 43296, Note_on_c, 0, 78, 45
2, 43317, Note_on_c, 0, 69, 0
2, 43328, Note_on_c, 0, 71, 45
2, 43358, Note_on_c, 0, 71, 0
2, 43360, Note_on_c, 0, 72, 45
2, 43390, Note_on_c, 0, 72, 0
2, 43390, Note_on_c, 0, 78, 0
2, 43392, Note_on_c, 0, 71, 63
2, 43392, Note_on_c, 0, 79, 45
2, 43413, Note_on_c, 0, 71, 0
2, 43424, Note_on_c, 0, 72, 45
2, 43454, Note_on_c, 0, 72, 0
2, 43456, Note_on_c, 0, 74, 45
2, 43486, Note_on_c, 0, 74, 0
2, 43486, Note_on_c, 0, 79, 0
2, 43488, Note_on_c, 0, 69, 63
2, 43488, Note_on_c, 0, 78, 45
2, 43509, Note_on_c, 0, 69, 0
2, 43520, Note_on_c, 0, 71, 45
2, 43550, Note_on_c, 0, 71, 0
2, 43552, Note_on_c, 0, 72, 45
2, 43582, Note_on_c, 0, 72, 0
2, 43582, Note_on_c, 0, 78, 0
2, 43584, Note_on_c, 0, 71, 63
2, 43584, Note_on_c, 0, 79, 45
2, 43605, Note_on_c, 0, 71, 0
2, 43616, Note_on_c, 0, 72, 45
2, 43646, Note_on_c, 0, 72, 0
2, 43648, Note_on_c, 0, 74, 45
2, 43678, Note_on_c, 0, 74, 0
2, 43678, Note_on_c, 0, 79, 0
2, 43680, Note_on_c, 0, 69, 63
2, 43680, Note_on_c, 0, 78, 45
2, 43701, Note_on_c, 0, 69, 0
2, 43712, Note_on_c, 0, 71, 45
2, 43742, Note_on_c, 0, 71, 0
2, 43744, Note_on_c, 0, 72, 45
2, 43774, Note_on_c, 0, 72, 0
2, 43774, Note_on_c, 0, 78, 0
2, 43776, Note_on_c, 0, 71, 45
2, 43776, Note_on_c, 0, 79, 45
2, 43806, Note_on_c, 0, 79, 0
2, 43808, Note_on_c, 0, 81, 45
2, 43838, Note_on_c, 0, 81, 0
2, 43840, Note_on_c, 0, 79, 45
2, 43870, Note_on_c, 0, 79, 0
2, 43870, Note_on_c, 0, 71, 0
2, 43872, Note_on_c, 0, 78, 45
2, 43902, Note_on_c, 0, 78, 0
2, 43904, Note_on_c, 0, 79, 45
2, 43934, Note_on_c, 0, 79, 0
2, 43936, Note_on_c, 0, 78, 45
2, 43966, Note_on_c, 0, 78, 0
2, 43968, Note_on_c, 0, 79, 45
2, 43998, Note_on_c, 0, 79, 0
2, 44000, Note_on_c, 0, 81, 45
2, 44030, Note_on_c, 0, 81, 0
2, 44032, Note_on_c, 0, 79, 45
2, 44062, Note_on_c, 0, 79, 0
2, 44064, Note_on_c, 0, 78, 45
2, 44094, Note_on_c, 0, 78, 0
2, 44096, Note_on_c, 0, 79, 45
2, 44126, Note_on_c, 0, 79, 0
2, 44128, Note_on_c, 0, 78, 45
2, 44158, Note_on_c, 0, 78, 0
2, 44160, Note_on_c, 0, 79, 45
2, 44190, Note_on_c, 0, 79, 0
2, 44192, Note_on_c, 0, 81, 45
2, 44222, Note_on_c, 0, 81, 0
2, 44224, Note_on_c, 0, 79, 45
2, 44254, Note_on_c, 0, 79, 0
2, 44256, Note_on_c, 0, 77, 45
2, 44286, Note_on_c, 0, 77, 0
2, 44288, Note_on_c, 0, 79, 45
2, 44318, Note_on_c, 0, 79, 0
2, 44320, Note_on_c, 0, 77, 45
2, 44350, Note_on_c, 0, 77, 0
2, 44352, Note_on_c, 0, 76, 45
2, 44446, Note_on_c, 0, 76, 0
2, 44544, Note_on_c, 0, 60, 45
2, 44574, Note_on_c, 0, 60, 0
2, 44576, Note_on_c, 0, 64, 48
2, 44606, Note_on_c, 0, 64, 0
2, 44608, Note_on_c, 0, 67, 52
2, 44638, Note_on_c, 0, 67, 0
2, 44640, Note_on_c, 0, 72, 56
2, 44670, Note_on_c, 0, 72, 0
2, 44672, Note_on_c, 0, 76, 60
2, 44702, Note_on_c, 0, 76, 0
2, 44704, Note_on_c, 0, 79, 64
2, 44734, Note_on_c, 0, 79, 0
2, 44736, Note_on_c, 0, 84, 68
2, 44768, Note_on_c, 0, 84, 0
2, 44928, Note_on_c, 0, 81, 92
2, 45022, Note_on_c, 0, 81, 0
2, 45216, Note_on_c, 0, 89, 127
2, 45310, Note_on_c, 0, 89, 0
2, 45312, Note_on_c, 0, 89, 92
2, 45342, Note_on_c, 0, 89, 0
2, 45344, Note_on_c, 0, 88, 92
2, 45374, Note_on_c, 0, 88, 0
2, 45376, Note_on_c, 0, 86, 92
2, 45406, Note_on_c, 0, 86, 0
2, 45408, Note_on_c, 0, 88, 92
2, 45438, Note_on_c, 0, 88, 0
2, 45440, Note_on_c, 0, 86, 92
2, 45470, Note_on_c, 0, 86, 0
2, 45472, Note_on_c, 0, 84, 92
2, 45502, Note_on_c, 0, 84, 0
2, 45504, Note_on_c, 0, 86, 92
2, 45534, Note_on_c, 0, 86, 0
2, 45536, Note_on_c, 0, 84, 92
2, 45566, Note_on_c, 0, 84, 0
2, 45568, Note_on_c, 0, 83, 92
2, 45598, Note_on_c, 0, 83, 0
2, 45600, Note_on_c, 0, 84, 92
2, 45630, Note_on_c, 0, 84, 0
2, 45632, Note_on_c, 0, 83, 92
2, 45662, Note_on_c, 0, 83, 0
2, 45664, Note_on_c, 0, 81, 92
2, 45694, Note_on_c, 0, 81, 0
2, 45696, Note_on_c, 0, 83, 92
2, 45726, Note_on_c, 0, 83, 0
2, 45728, Note_on_c, 0, 81, 92
2, 45758, Note_on_c, 0, 81, 0
2, 45760, Note_on_c, 0, 79, 92
2, 45790, Note_on_c, 0, 79, 0
2, 45792, Note_on_c, 0, 81, 92
2, 45822, Note_on_c, 0, 81, 0
2, 45824, Note_on_c, 0, 79, 92
2, 45854, Note_on_c, 0, 79, 0
2, 45856, Note_on_c, 0, 78, 92
2, 45886, Note_on_c, 0, 78, 0
2, 45888, Note_on_c, 0, 79, 92
2, 45918, Note_on_c, 0, 79, 0
2, 45920, Note_on_c, 0, 83, 85
2, 45950, Note_on_c, 0, 83, 0
2, 45952, Note_on_c, 0, 81, 77
2, 45982, Note_on_c, 0, 81, 0
2, 45984, Note_on_c, 0, 79, 69
2, 46014, Note_on_c, 0, 79, 0
2, 46016, Note_on_c, 0, 81, 61
2, 46046, Note_on_c, 0, 81, 0
2, 46048, Note_on_c, 0, 83, 53
2, 46078, Note_on_c, 0, 83, 0
2, 46080, Note_on_c, 0, 84, 45
2, 46112, Note_on_c, 0, 84, 0
2, 46176, Note_on_c, 0, 84, 45
2, 46198, Note_on_c, 0, 84, 0
2, 46200, Note_on_c, 0, 86, 45
2, 46222, Note_on_c, 0, 86, 0
2, 46224, Note_on_c, 0, 88, 45
2, 46246, Note_on_c, 0, 88, 0
2, 46248, Note_on_c, 0, 86, 45
2, 46270, Note_on_c, 0, 86, 0
2, 46272, Note_on_c, 0, 86, 45
2, 46304, Note_on_c, 0, 86, 0
2, 46368, Note_on_c, 0, 86, 45
2, 46390, Note_on_c, 0, 86, 0
2, 46392, Note_on_c, 0, 88, 45
2, 46414, Note_on_c, 0, 88, 0
2, 46416, Note_on_c, 0, 89, 45
2, 46438, Note_on_c, 0, 89, 0
2, 46440, Note_on_c, 0, 88, 45
2, 46462, Note_on_c, 0, 88, 0
2, 46464, Note_on_c, 0, 88, 45
2, 46558, Note_on_c, 0, 88, 0
2, 46560, Note_on_c, 0, 84, 45
2, 46592, Note_on_c, 0, 84, 0
2, 46848, Note_on_c, 0, 60, 60
2, 46878, Note_on_c, 0, 60, 0
2, 46880, Note_on_c, 0, 64, 62
2, 46910, Note_on_c, 0, 64, 0
2, 46912, Note_on_c, 0, 67, 64
2, 46942, Note_on_c, 0, 67, 0
2, 46944, Note_on_c, 0, 72, 66
2, 46974, Note_on_c, 0, 72, 0
2, 46976, Note_on_c, 0, 76, 68
2, 47006, Note_on_c, 0, 76, 0
2, 47008, Note_on_c, 0, 79, 71
2, 47038, Note_on_c, 0, 79, 0
2, 47040, Note_on_c, 0, 84, 74
2, 47072, Note_on_c, 0, 84, 0
2, 47232, Note_on_c, 0, 81, 92
2, 47264, Note_on_c, 0, 81, 0
2, 47424, Note_on_c, 0, 81, 127
2, 47680, Note_on_c, 0, 81, 0
2, 47808, Note_on_c, 0, 81, 92
2, 47840, Note_on_c, 0, 81, 0
2, 48000, Note_on_c, 0, 81, 127
2, 48256, Note_on_c, 0, 81, 0
2, 48384, Note_on_c, 0, 81, 45
2, 48416, Note_on_c, 0, 81, 0
2, 48576, Note_on_c, 0, 81, 45
2, 48608, Note_on_c, 0, 81, 0
2, 48768, Note_on_c, 0, 81, 45
2, 48800, Note_on_c, 0, 81, 0
2, 48960, Note_on_c, 0, 81, 45
2, 48992, Note_on_c, 0, 81, 0
2, 49152, Note_on_c, 0, 81, 45
2, 49184, Note_on_c, 0, 81, 0
2, 49344, Note_on_c, 0, 81, 45
2, 49376, Note_on_c, 0, 81, 0
2, 49536, Note_on_c, 0, 72, 45
2, 49536, Note_on_c, 0, 81, 45
2, 49568, Note_on_c, 0, 81, 0
2, 49568, Note_on_c, 0, 72, 0
2, 49632, Note_on_c, 0, 72, 49
2, 49632, Note_on_c, 0, 81, 49
2, 49664, Note_on_c, 0, 81, 0
2, 49664, Note_on_c, 0, 72, 0
2, 49728, Note_on_c, 0, 72, 53
2, 49728, Note_on_c, 0, 81, 53
2, 49760, Note_on_c, 0, 81, 0
2, 49760, Note_on_c, 0, 72, 0
2, 49824, Note_on_c, 0, 72, 57
2, 49824, Note_on_c, 0, 81, 57
2, 49856, Note_on_c, 0, 81, 0
2, 49856, Note_on_c, 0, 72, 0
2, 49920, Note_on_c, 0, 72, 61
2, 49920, Note_on_c, 0, 81, 61
2, 49952, Note_on_c, 0, 81, 0
2, 49952, Note_on_c, 0, 72, 0
2, 50016, Note_on_c, 0, 72, 66
2, 50016, Note_on_c, 0, 81, 66
2, 50048, Note_on_c, 0, 81, 0
2, 50048, Note_on_c, 0, 72, 0
2, 50112, Note_on_c, 0, 73, 72
2, 50112, Note_on_c, 0, 81, 72
2, 50144, Note_on_c, 0, 81, 0
2, 50144, Note_on_c, 0, 73, 0
2, 50208, Note_on_c, 0, 73, 78
2, 50208, Note_on_c, 0, 81, 78
2, 50240, Note_on_c, 0, 81, 0
2, 50240, Note_on_c, 0, 73, 0
2, 50304, Note_on_c, 0, 73, 84
2, 50304, Note_on_c, 0, 81, 84
2, 50336, Note_on_c, 0, 81, 0
2, 50336, Note_on_c, 0, 73, 0
2, 50400, Note_on_c, 0, 73, 90
2, 50400, Note_on_c, 0, 81, 90
2, 50432, Note_on_c, 0, 81, 0
2, 50432, Note_on_c, 0, 73, 0
2, 50496, Note_on_c, 0, 73, 96
2, 50496, Note_on_c, 0, 81, 96
2, 50528, Note_on_c, 0, 81, 0
2, 50528, Note_on_c, 0, 73, 0
2, 50592, Note_on_c, 0, 73, 102
2, 50592, Note_on_c, 0, 81, 102
2, 50624, Note_on_c, 0, 81, 0
2, 50624, Note_on_c, 0, 73, 0
2, 50688, Note_on_c, 0, 69, 108
2, 50688, Note_on_c, 0, 74, 108
2, 50688, Note_on_c, 0, 77, 108
2, 50688, Note_on_c, 0, 81, 108
2, 50720, Note_on_c, 0, 81, 0
2, 50720, Note_on_c, 0, 69, 0
2, 50720, Note_on_c, 0, 74, 0
2, 50720, Note_on_c, 0, 77, 0
2, 50880, Note_on_c, 0, 89, 127
2, 51040, Note_on_c, 0, 89, 0
2, 51072, Note_on_c, 0, 89, 108
2, 51102, Note_on_c, 0, 89, 0
2, 51104, Note_on_c, 0, 88, 108
2, 51134, Note_on_c, 0, 88, 0
2, 51136, Note_on_c, 0, 86, 108
2, 51166, Note_on_c, 0, 86, 0
2, 51168, Note_on_c, 0, 88, 108
2, 51198, Note_on_c, 0, 88, 0
2, 51200, Note_on_c, 0, 86, 108
2, 51230, Note_on_c, 0, 86, 0
2, 51232, Note_on_c, 0, 84, 108
2, 51262, Note_on_c, 0, 84, 0
2, 51264, Note_on_c, 0, 83, 108
2, 51294, Note_on_c, 0, 83, 0
2, 51296, Note_on_c, 0, 84, 108
2, 51326, Note_on_c, 0, 84, 0
2, 51328, Note_on_c, 0, 86, 108
2, 51358, Note_on_c, 0, 86, 0
2, 51360, Note_on_c, 0, 84, 108
2, 51390, Note_on_c, 0, 84, 0
2, 51392, Note_on_c, 0, 83, 108
2, 51422, Note_on_c, 0, 83, 0
2, 51424, Note_on_c, 0, 81, 108
2, 51454, Note_on_c, 0, 81, 0
2, 51456, Note_on_c, 0, 79, 108
2, 51486, Note_on_c, 0, 79, 0
2, 51488, Note_on_c, 0, 81, 108
2, 51518, Note_on_c, 0, 81, 0
2, 51520, Note_on_c, 0, 79, 108
2, 51550, Note_on_c, 0, 79, 0
2, 51552, Note_on_c, 0, 77, 108
2, 51582, Note_on_c, 0, 77, 0
2, 51584, Note_on_c, 0, 79, 108
2, 51614, Note_on_c, 0, 79, 0
2, 51616, Note_on_c, 0, 77, 108
2, 51646, Note_on_c, 0, 77, 0
2, 51648, Note_on_c, 0, 76, 108
2, 51678, Note_on_c, 0, 76, 0
2, 51680, Note_on_c, 0, 77, 100
2, 51710, Note_on_c, 0, 77, 0
2, 51712, Note_on_c, 0, 76, 92
2, 51742, Note_on_c, 0, 76, 0
2, 51744, Note_on_c, 0, 74, 84
2, 51774, Note_on_c, 0, 74, 0
2, 51776, Note_on_c, 0, 76, 76
2, 51806, Note_on_c, 0, 76, 0
2, 51808, Note_on_c, 0, 74, 68
2, 51838, Note_on_c, 0, 74, 0
2, 51840, Note_on_c, 0, 72, 60
2, 51870, Note_on_c, 0, 72, 0
2, 51872, Note_on_c, 0, 74, 60
2, 51902, Note_on_c, 0, 74, 0
2, 51904, Note_on_c, 0, 76, 60
2, 51934, Note_on_c, 0, 76, 0
2, 51936, Note_on_c, 0, 74, 84
2, 51936, Note_on_c, 0, 83, 60
2, 51957, Note_on_c, 0, 74, 0
2, 51968, Note_on_c, 0, 76, 60
2, 51998, Note_on_c, 0, 76, 0
2, 52000, Note_on_c, 0, 77, 60
2, 52030, Note_on_c, 0, 77, 0
2, 52030, Note_on_c, 0, 83, 0
2, 52032, Note_on_c, 0, 76, 84
2, 52032, Note_on_c, 0, 84, 60
2, 52053, Note_on_c, 0, 76, 0
2, 52064, Note_on_c, 0, 77, 60
2, 52094, Note_on_c, 0, 77, 0
2, 52096, Note_on_c, 0, 79, 60
2, 52126, Note_on_c, 0, 79, 0
2, 52126, Note_on_c, 0, 84, 0
2, 52128, Note_on_c, 0, 74, 84
2, 52128, Note_on_c, 0, 83, 60
2, 52149, Note_on_c, 0, 74, 0
2, 52160, Note_on_c, 0, 76, 60
2, 52190, Note_on_c, 0, 76, 0
2, 52192, Note_on_c, 0, 77, 60
2, 52222, Note_on_c, 0, 77, 0
2, 52222, Note_on_c, 0, 83, 0
2, 52224, Note_on_c, 0, 76, 84
2, 52224, Note_on_c, 0, 84, 60
2, 52245, Note_on_c, 0, 76, 0
2, 52256, Note_on_c, 0, 77, 60
2, 52286, Note_on_c, 0, 77, 0
2, 52288, Note_on_c, 0, 79, 60
2, 52318, Note_on_c, 0, 79, 0
2, 52318, Note_on_c, 0, 84, 0
2, 52320, Note_on_c, 0, 74, 84
2, 52320, Note_on_c, 0, 83, 60
2, 52341, Note_on_c, 0, 74, 0
2, 52352, Note_on_c, 0, 76, 60
2, 52382, Note_on_c, 0, 76, 0
2, 52384, Note_on_c, 0, 77, 60
2, 52414, Note_on_c, 0, 77, 0
2, 52414, Note_on_c, 0, 83, 0
2, 52416, Note_on_c, 0, 76, 60
2, 52416, Note_on_c, 0, 84, 60
2, 52446, Note_on_c, 0, 84, 0
2, 52448, Note_on_c, 0, 86, 60
2, 52478, Note_on_c, 0, 86, 0
2, 52480, Note_on_c, 0, 84, 60
2, 52510, Note_on_c, 0, 84, 0
2, 52510, Note_on_c, 0, 76, 0
2, 52512, Note_on_c, 0, 83, 60
2, 52542, Note_on_c, 0, 83, 0
2, 52544, Note_on_c, 0, 84, 60
2, 52574, Note_on_c, 0, 84, 0
2, 52576, Note_on_c, 0, 83, 60
2, 52606, Note_on_c, 0, 83, 0
2, 52608, Note_on_c, 0, 84, 60
2, 52638, Note_on_c, 0, 84, 0
2, 52640, Note_on_c, 0, 86, 60
2, 52670, Note_on_c, 0, 86, 0
2, 52672, Note_on_c, 0, 84, 60
2, 52702, Note_on_c, 0, 84, 0
2, 52704, Note_on_c, 0, 83, 60
2, 52734, Note_on_c, 0, 83, 0
2, 52736, Note_on_c, 0, 84, 60
2, 52766, Note_on_c, 0, 84, 0
2, 52768, Note_on_c, 0, 83, 60
2, 52798, Note_on_c, 0, 83, 0
2, 52800, Note_on_c, 0, 84, 60
2, 52830, Note_on_c, 0, 84, 0
2, 52832, Note_on_c, 0, 86, 60
2, 52862, Note_on_c, 0, 86, 0
2, 52864, Note_on_c, 0, 84, 60
2, 52894, Note_on_c, 0, 84, 0
2, 52896, Note_on_c, 0, 83, 60
2, 52926, Note_on_c, 0, 83, 0
2, 52928, Note_on_c, 0, 84, 60
2, 52958, Note_on_c, 0, 84, 0
2, 52960, Note_on_c, 0, 83, 60
2, 52990, Note_on_c, 0, 83, 0
2, 52992, Note_on_c, 0, 84, 60
2, 53024, Note_on_c, 0, 84, 0
2, 53088, Note_on_c, 0, 62, 84
2, 53088, Note_on_c, 0, 71, 60
2, 53109, Note_on_c, 0, 62, 0
2, 53120, Note_on_c, 0, 64, 60
2, 53150, Note_on_c, 0, 64, 0
2, 53152, Note_on_c, 0, 65, 60
2, 53182, Note_on_c, 0, 65, 0
2, 53182, Note_on_c, 0, 71, 0
2, 53184, Note_on_c, 0, 64, 84
2, 53184, Note_on_c, 0, 72, 60
2, 53205, Note_on_c, 0, 64, 0
2, 53216, Note_on_c, 0, 65, 60
2, 53246, Note_on_c, 0, 65, 0
2, 53248, Note_on_c, 0, 67, 60
2, 53278, Note_on_c, 0, 67, 0
2, 53278, Note_on_c, 0, 72, 0
2, 53280, Note_on_c, 0, 62, 84
2, 53280, Note_on_c, 0, 71, 60
2, 53301, Note_on_c, 0, 62, 0
2, 53312, Note_on_c, 0, 64, 60
2, 53342, Note_on_c, 0, 64, 0
2, 53344, Note_on_c, 0, 65, 60
2, 53374, Note_on_c, 0, 65, 0
2, 53374, Note_on_c, 0, 71, 0
2, 53376, Note_on_c, 0, 64, 84
2, 53376, Note_on_c, 0, 72, 60
2, 53397, Note_on_c, 0, 64, 0
2, 53408, Note_on_c, 0, 65, 60
2, 53438, Note_on_c, 0, 65, 0
2, 53440, Note_on_c, 0, 67, 60
2, 53470, Note_on_c, 0, 67, 0
2, 53470, Note_on_c, 0, 72, 0
2, 53472, Note_on_c, 0, 62, 84
2, 53472, Note_on_c, 0, 71, 60
2, 53493, Note_on_c, 0, 62, 0
2, 53504, Note_on_c, 0, 64, 60
2, 53534, Note_on_c, 0, 64, 0
2, 53536, Note_on_c, 0, 65, 60
2, 53566, Note_on_c, 0, 65, 0
2, 53566, Note_on_c, 0, 71, 0
2, 53568, Note_on_c, 0, 64, 60
2, 53568, Note_on_c, 0, 72, 60
2, 53598, Note_on_c, 0, 72, 0
2, 53600, Note_on_c, 0, 74, 60
2, 53630, Note_on_c, 0, 74, 0
2, 53632, Note_on_c, 0, 72, 60
2, 53662, Note_on_c, 0, 72, 0
2, 53662, Note_on_c, 0, 64, 0
2, 53664, Note_on_c, 0, 71, 60
2, 53694, Note_on_c, 0, 71, 0
2, 53696, Note_on_c, 0, 72, 60
2, 53726, Note_on_c, 0, 72, 0
2, 53728, Note_on_c, 0, 71, 60
2, 53758, Note_on_c, 0, 71, 0
2, 53760, Note_on_c, 0, 72, 60
2, 53790, Note_on_c, 0, 72, 0
2, 53792, Note_on_c, 0, 74, 60
2, 53822, Note_on_c, 0, 74, 0
2, 53824, Note_on_c, 0, 72, 60
2, 53854, Note_on_c, 0, 72, 0
2, 53856, Note_on_c, 0, 71, 60
2, 53886, Note_on_c, 0, 71, 0
2, 53888, Note_on_c, 0, 72, 60
2, 53918, Note_on_c, 0, 72, 0
2, 53920, Note_on_c, 0, 71, 60
2, 53950, Note_on_c, 0, 71, 0
2, 53952, Note_on_c, 0, 72, 60
2, 53982, Note_on_c, 0, 72, 0
2, 53984, Note_on_c, 0, 74, 60
2, 54014, Note_on_c, 0, 74, 0
2, 54016, Note_on_c, 0, 72, 60
2, 54046, Note_on_c, 0, 72, 0
2, 54048, Note_on_c, 0, 71, 60
2, 54078, Note_on_c, 0, 71, 0
2, 54080, Note_on_c, 0, 72, 60
2, 54110, Note_on_c, 0, 72, 0
2, 54112, Note_on_c, 0, 71, 60
2, 54142, Note_on_c, 0, 71, 0
2, 54144, Note_on_c, 0, 72, 60
2, 54165, Note_on_c, 0, 72, 0
2, 54176, Note_on_c, 0, 64, 61
2, 54206, Note_on_c, 0, 64, 0
2, 54208, Note_on_c, 0, 65, 62
2, 54238, Note_on_c, 0, 65, 0
2, 54240, Note_on_c, 0, 67, 63
2, 54270, Note_on_c, 0, 67, 0
2, 54272, Note_on_c, 0, 65, 64
2, 54302, Note_on_c, 0, 65, 0
2, 54304, Note_on_c, 0, 64, 66
2, 54334, Note_on_c, 0, 64, 0
2, 54336, Note_on_c, 0, 76, 68
2, 54357, Note_on_c, 0, 76, 0
2, 54368, Note_on_c, 0, 64, 70
2, 54398, Note_on_c, 0, 64, 0
2, 54400, Note_on_c, 0, 65, 72
2, 54430, Note_on_c, 0, 65, 0
2, 54432, Note_on_c, 0, 67, 74
2, 54462, Note_on_c, 0, 67, 0
2, 54464, Note_on_c, 0, 65, 76
2, 54494, Note_on_c, 0, 65, 0
2, 54496, Note_on_c, 0, 64, 78
2, 54526, Note_on_c, 0, 64, 0
2, 54528, Note_on_c, 0, 79, 80
2, 54549, Note_on_c, 0, 79, 0
2, 54560, Note_on_c, 0, 64, 82
2, 54590, Note_on_c, 0, 64, 0
2, 54592, Note_on_c, 0, 65, 84
2, 54622, Note_on_c, 0, 65, 0
2, 54624, Note_on_c, 0, 67, 86
2, 54654, Note_on_c, 0, 67, 0
2, 54656, Note_on_c, 0, 65, 88
2, 54686, Note_on_c, 0, 65, 0
2, 54688, Note_on_c, 0, 64, 90
2, 54718, Note_on_c, 0, 64, 0
2, 54720, Note_on_c, 0, 84, 92
2, 54752, Note_on_c, 0, 84, 0
2, 54912, Note_on_c, 0, 52, 92
2, 54912, Note_on_c, 0, 55, 92
2, 54912, Note_on_c, 0, 60, 92
2, 54944, Note_on_c, 0, 60, 0
2, 54944, Note_on_c, 0, 55, 0
2, 54944, Note_on_c, 0, 52, 0
2, 54944, End_track
3, 0, Start_track
3, 0, Title_t, "Reginald Steven Ritchie"
3, 0, Program_c, 1, 0
3, 0, Control_c, 1, 7, 127
3, 0, Control_c, 1, 10, 44
3, 0, Program_c, 1, 0
3, 0, Control_c, 1, 7, 127
3, 0, Control_c, 1, 10, 9
3, 0, Control_c, 1, 91, 84
3, 0, Control_c, 1, 93, 84
3, 0, Note_on_c, 1, 36, 45
3, 30, Note_on_c, 1, 36, 0
3, 32, Note_on_c, 1, 40, 45
3, 62, Note_on_c, 1, 40, 0
3, 64, Note_on_c, 1, 43, 45
3, 94, Note_on_c, 1, 43, 0
3, 96, Note_on_c, 1, 48, 45
3, 126, Note_on_c, 1, 48, 0
3, 128, Note_on_c, 1, 52, 45
3, 158, Note_on_c, 1, 52, 0
3, 160, Note_on_c, 1, 55, 45
3, 190, Note_on_c, 1, 55, 0
3, 480, Note_on_c, 1, 48, 60
3, 512, Note_on_c, 1, 48, 0
3, 672, Note_on_c, 1, 41, 75
3, 704, Note_on_c, 1, 41, 0
3, 768, Note_on_c, 1, 81, 105
3, 928, Note_on_c, 1, 81, 0
3, 960, Note_on_c, 1, 81, 75
3, 990, Note_on_c, 1, 81, 0
3, 992, Note_on_c, 1, 79, 75
3, 1022, Note_on_c, 1, 79, 0
3, 1024, Note_on_c, 1, 77, 75
3, 1054, Note_on_c, 1, 77, 0
3, 1056, Note_on_c, 1, 79, 75
3, 1086, Note_on_c, 1, 79, 0
3, 1088, Note_on_c, 1, 77, 75
3, 1118, Note_on_c, 1, 77, 0
3, 1120, Note_on_c, 1, 76, 75
3, 1150, Note_on_c, 1, 76, 0
3, 1152, Note_on_c, 1, 67, 75
3, 1152, Note_on_c, 1, 77, 75
3, 1182, Note_on_c, 1, 77, 0
3, 1184, Note_on_c, 1, 76, 75
3, 1214, Note_on_c, 1, 76, 0
3, 1216, Note_on_c, 1, 74, 75
3, 1246, Note_on_c, 1, 74, 0
3, 1248, Note_on_c, 1, 76, 75
3, 1278, Note_on_c, 1, 76, 0
3, 1280, Note_on_c, 1, 74, 75
3, 1310, Note_on_c, 1, 74, 0
3, 1312, Note_on_c, 1, 72, 75
3, 1342, Note_on_c, 1, 72, 0
3, 1344, Note_on_c, 1, 74, 75
3, 1374, Note_on_c, 1, 74, 0
3, 1376, Note_on_c, 1, 72, 75
3, 1406, Note_on_c, 1, 72, 0
3, 1408, Note_on_c, 1, 71, 75
3, 1438, Note_on_c, 1, 71, 0
3, 1440, Note_on_c, 1, 72, 75
3, 1470, Note_on_c, 1, 72, 0
3, 1472, Note_on_c, 1, 71, 75
3, 1488, Note_on_c, 1, 67, 0
3, 1502, Note_on_c, 1, 71, 0
3, 1504, Note_on_c, 1, 69, 75
3, 1534, Note_on_c, 1, 69, 0
3, 1536, Note_on_c, 1, 67, 75
3, 1536, Note_on_c, 1, 71, 75
3, 1566, Note_on_c, 1, 67, 0
3, 1568, Note_on_c, 1, 69, 70
3, 1598, Note_on_c, 1, 69, 0
3, 1600, Note_on_c, 1, 67, 65
3, 1630, Note_on_c, 1, 67, 0
3, 1630, Note_on_c, 1, 71, 0
3, 1632, Note_on_c, 1, 65, 60
3, 1662, Note_on_c, 1, 65, 0
3, 1664, Note_on_c, 1, 64, 55
3, 1694, Note_on_c, 1, 64, 0
3, 1696, Note_on_c, 1, 62, 50
3, 1726, Note_on_c, 1, 62, 0
3, 1728, Note_on_c, 1, 60, 45
3, 1760, Note_on_c, 1, 60, 0
3, 1824, Note_on_c, 1, 64, 45
3, 1824, Note_on_c, 1, 67, 45
3, 1824, Note_on_c, 1, 72, 45
3, 1856, Note_on_c, 1, 72, 0
3, 1856, Note_on_c, 1, 67, 0
3, 1856, Note_on_c, 1, 64, 0
3, 1920, Note_on_c, 1, 55, 45
3, 1952, Note_on_c, 1, 55, 0
3, 2016, Note_on_c, 1, 65, 45
3, 2016, Note_on_c, 1, 67, 45
3, 2016, Note_on_c, 1, 71, 45
3, 2048, Note_on_c, 1, 71, 0
3, 2048, Note_on_c, 1, 67, 0
3, 2048, Note_on_c, 1, 65, 0
3, 2112, Note_on_c, 1, 48, 45
3, 2144, Note_on_c, 1, 48, 0
3, 2208, Note_on_c, 1, 64, 45
3, 2208, Note_on_c, 1, 67, 45
3, 2208, Note_on_c, 1, 72, 45
3, 2240, Note_on_c, 1, 72, 0
3, 2240, Note_on_c, 1, 67, 0
3, 2240, Note_on_c, 1, 64, 0
3, 2304, Note_on_c, 1, 36, 45
3, 2334, Note_on_c, 1, 36, 0
3, 2336, Note_on_c, 1, 40, 45
3, 2366, Note_on_c, 1, 40, 0
3, 2368, Note_on_c, 1, 43, 45
3, 2398, Note_on_c, 1, 43, 0
3, 2400, Note_on_c, 1, 48, 45
3, 2430, Note_on_c, 1, 48, 0
3, 2432, Note_on_c, 1, 52, 45
3, 2462, Note_on_c, 1, 52, 0
3, 2464, Note_on_c, 1, 55, 45
3, 2494, Note_on_c, 1, 55, 0
3, 2784, Note_on_c, 1, 48, 45
3, 2816, Note_on_c, 1, 48, 0
3, 2976, Note_on_c, 1, 41, 92
3, 3008, Note_on_c, 1, 41, 0
3, 3072, Note_on_c, 1, 81, 127
3, 3232, Note_on_c, 1, 81, 0
3, 3264, Note_on_c, 1, 81, 92
3, 3294, Note_on_c, 1, 81, 0
3, 3296, Note_on_c, 1, 79, 92
3, 3326, Note_on_c, 1, 79, 0
3, 3328, Note_on_c, 1, 77, 92
3, 3358, Note_on_c, 1, 77, 0
3, 3360, Note_on_c, 1, 79, 92
3, 3390, Note_on_c, 1, 79, 0
3, 3392, Note_on_c, 1, 77, 92
3, 3422, Note_on_c, 1, 77, 0
3, 3424, Note_on_c, 1, 76, 92
3, 3454, Note_on_c, 1, 76, 0
3, 3456, Note_on_c, 1, 67, 92
3, 3456, Note_on_c, 1, 77, 92
3, 3486, Note_on_c, 1, 77, 0
3, 3488, Note_on_c, 1, 76, 92
3, 3518, Note_on_c, 1, 76, 0
3, 3520, Note_on_c, 1, 74, 92
3, 3550, Note_on_c, 1, 74, 0
3, 3552, Note_on_c, 1, 76, 92
3, 3582, Note_on_c, 1, 76, 0
3, 3584, Note_on_c, 1, 74, 92
3, 3614, Note_on_c, 1, 74, 0
3, 3616, Note_on_c, 1, 72, 92
3, 3646, Note_on_c, 1, 72, 0
3, 3648, Note_on_c, 1, 74, 92
3, 3678, Note_on_c, 1, 74, 0
3, 3680, Note_on_c, 1, 72, 92
3, 3710, Note_on_c, 1, 72, 0
3, 3712, Note_on_c, 1, 71, 92
3, 3742, Note_on_c, 1, 71, 0
3, 3744, Note_on_c, 1, 72, 92
3, 3774, Note_on_c, 1, 72, 0
3, 3776, Note_on_c, 1, 71, 92
3, 3792, Note_on_c, 1, 67, 0
3, 3806, Note_on_c, 1, 71, 0
3, 3808, Note_on_c, 1, 69, 92
3, 3838, Note_on_c, 1, 69, 0
3, 3840, Note_on_c, 1, 67, 92
3, 3840, Note_on_c, 1, 71, 92
3, 3870, Note_on_c, 1, 67, 0
3, 3872, Note_on_c, 1, 69, 85
3, 3902, Note_on_c, 1, 69, 0
3, 3904, Note_on_c, 1, 67, 77
3, 3934, Note_on_c, 1, 67, 0
3, 3934, Note_on_c, 1, 71, 0
3, 3936, Note_on_c, 1, 65, 69
3, 3966, Note_on_c, 1, 65, 0
3, 3968, Note_on_c, 1, 64, 61
3, 3998, Note_on_c, 1, 64, 0
3, 4000, Note_on_c, 1, 62, 53
3, 4030, Note_on_c, 1, 62, 0
3, 4032, Note_on_c, 1, 60, 45
3, 4064, Note_on_c, 1, 60, 0
3, 4128, Note_on_c, 1, 64, 45
3, 4128, Note_on_c, 1, 67, 45
3, 4128, Note_on_c, 1, 72, 45
3, 4160, Note_on_c, 1, 72, 0
3, 4160, Note_on_c, 1, 67, 0
3, 4160, Note_on_c, 1, 64, 0
3, 4224, Note_on_c, 1, 55, 45
3, 4256, Note_on_c, 1, 55, 0
3, 4320, Note_on_c, 1, 65, 45
3, 4320, Note_on_c, 1, 67, 45
3, 4320, Note_on_c, 1, 71, 45
3, 4352, Note_on_c, 1, 71, 0
3, 4352, Note_on_c, 1, 67, 0
3, 4352, Note_on_c, 1, 65, 0
3, 4416, Note_on_c, 1, 48, 45
3, 4448, Note_on_c, 1, 48, 0
3, 4512, Note_on_c, 1, 64, 45
3, 4512, Note_on_c, 1, 67, 45
3, 4512, Note_on_c, 1, 72, 45
3, 4544, Note_on_c, 1, 72, 0
3, 4544, Note_on_c, 1, 67, 0
3, 4544, Note_on_c, 1, 64, 0
3, 4608, Control_c, 1, 91, 84
3, 4608, Control_c, 1, 93, 84
3, 4608, Note_on_c, 1, 36, 45
3, 4638, Note_on_c, 1, 36, 0
3, 4640, Note_on_c, 1, 40, 45
3, 4670, Note_on_c, 1, 40, 0
3, 4672, Note_on_c, 1, 43, 45
3, 4702, Note_on_c, 1, 43, 0
3, 4704, Note_on_c, 1, 48, 45
3, 4734, Note_on_c, 1, 48, 0
3, 4736, Note_on_c, 1, 52, 45
3, 4766, Note_on_c, 1, 52, 0
3, 4768, Note_on_c, 1, 55, 45
3, 4798, Note_on_c, 1, 55, 0
3, 5088, Note_on_c, 1, 48, 60
3, 5120, Note_on_c, 1, 48, 0
3, 5280, Note_on_c, 1, 41, 75
3, 5312, Note_on_c, 1, 41, 0
3, 5376, Note_on_c, 1, 81, 105
3, 5536, Note_on_c, 1, 81, 0
3, 5568, Note_on_c, 1, 81, 75
3, 5598, Note_on_c, 1, 81, 0
3, 5600, Note_on_c, 1, 79, 75
3, 5630, Note_on_c, 1, 79, 0
3, 5632, Note_on_c, 1, 77, 75
3, 5662, Note_on_c, 1, 77, 0
3, 5664, Note_on_c, 1, 79, 75
3, 5694, Note_on_c, 1, 79, 0
3, 5696, Note_on_c, 1, 77, 75
3, 5726, Note_on_c, 1, 77, 0
3, 5728, Note_on_c, 1, 76, 75
3, 5758, Note_on_c, 1, 76, 0
3, 5760, Note_on_c, 1, 67, 75
3, 5760, Note_on_c, 1, 77, 75
3, 5790, Note_on_c, 1, 77, 0
3, 5792, Note_on_c, 1, 76, 75
3, 5822, Note_on_c, 1, 76, 0
3, 5824, Note_on_c, 1, 74, 75
3, 5854, Note_on_c, 1, 74, 0
3, 5856, Note_on_c, 1, 76, 75
3, 5886, Note_on_c, 1, 76, 0
3, 5888, Note_on_c, 1, 74, 75
3, 5918, Note_on_c, 1, 74, 0
3, 5920, Note_on_c, 1, 72, 75
3, 5950, Note_on_c, 1, 72, 0
3, 5952, Note_on_c, 1, 74, 75
3, 5982, Note_on_c, 1, 74, 0
3, 5984, Note_on_c, 1, 72, 75
3, 6014, Note_on_c, 1, 72, 0
3, 6016, Note_on_c, 1, 71, 75
3, 6046, Note_on_c, 1, 71, 0
3, 6048, Note_on_c, 1, 72, 75
3, 6078, Note_on_c, 1, 72, 0
3, 6080, Note_on_c, 1, 71, 75
3, 6096, Note_on_c, 1, 67, 0
3, 6110, Note_on_c, 1, 71, 0
3, 6112, Note_on_c, 1, 69, 75
3, 6142, Note_on_c, 1, 69, 0
3, 6144, Note_on_c, 1, 67, 75
3, 6144, Note_on_c, 1, 71, 75
3, 6174, Note_on_c, 1, 67, 0
3, 6176, Note_on_c, 1, 69, 70
3, 6206, Note_on_c, 1, 69, 0
3, 6208, Note_on_c, 1, 67, 65
3, 6238, Note_on_c, 1, 67, 0
3, 6238, Note_on_c, 1, 71, 0
3, 6240, Note_on_c, 1, 65, 60
3, 6270, Note_on_c, 1, 65, 0
3, 6272, Note_on_c, 1, 64, 55
3, 6302, Note_on_c, 1, 64, 0
3, 6304, Note_on_c, 1, 62, 50
3, 6334, Note_on_c, 1, 62, 0
3, 6336, Note_on_c, 1, 60, 45
3, 6368, Note_on_c, 1, 60, 0
3, 6432, Note_on_c, 1, 64, 45
3, 6432, Note_on_c, 1, 67, 45
3, 6432, Note_on_c, 1, 72, 45
3, 6464, Note_on_c, 1, 72, 0
3, 6464, Note_on_c, 1, 67, 0
3, 6464, Note_on_c, 1, 64, 0
3, 6528, Note_on_c, 1, 55, 45
3, 6560, Note_on_c, 1, 55, 0
3, 6624, Note_on_c, 1, 65, 45
3, 6624, Note_on_c, 1, 67, 45
3, 6624, Note_on_c, 1, 71, 45
3, 6656, Note_on_c, 1, 71, 0
3, 6656, Note_on_c, 1, 67, 0
3, 6656, Note_on_c, 1, 65, 0
3, 6720, Note_on_c, 1, 48, 45
3, 6752, Note_on_c, 1, 48, 0
3, 6816, Note_on_c, 1, 64, 45
3, 6816, Note_on_c, 1, 67, 45
3, 6816, Note_on_c, 1, 72, 45
3, 6848, Note_on_c, 1, 72, 0
3, 6848, Note_on_c, 1, 67, 0
3, 6848, Note_on_c, 1, 64, 0
3, 6912, Note_on_c, 1, 36, 45
3, 6942, Note_on_c, 1, 36, 0
3, 6944, Note_on_c, 1, 40, 45
3, 6974, Note_on_c, 1, 40, 0
3, 6976, Note_on_c, 1, 43, 45
3, 7006, Note_on_c, 1, 43, 0
3, 7008, Note_on_c, 1, 48, 45
3, 7038, Note_on_c, 1, 48, 0
3, 7040, Note_on_c, 1, 52, 45
3, 7070, Note_on_c, 1, 52, 0
3, 7072, Note_on_c, 1, 55, 45
3, 7102, Note_on_c, 1, 55, 0
3, 7392, Note_on_c, 1, 48, 45
3, 7424, Note_on_c, 1, 48, 0
3, 7584, Note_on_c, 1, 41, 92
3, 7616, Note_on_c, 1, 41, 0
3, 7680, Note_on_c, 1, 81, 127
3, 7840, Note_on_c, 1, 81, 0
3, 7872, Note_on_c, 1, 81, 92
3, 7902, Note_on_c, 1, 81, 0
3, 7904, Note_on_c, 1, 79, 92
3, 7934, Note_on_c, 1, 79, 0
3, 7936, Note_on_c, 1, 77, 92
3, 7966, Note_on_c, 1, 77, 0
3, 7968, Note_on_c, 1, 79, 92
3, 7998, Note_on_c, 1, 79, 0
3, 8000, Note_on_c, 1, 77, 92
3, 8030, Note_on_c, 1, 77, 0
3, 8032, Note_on_c, 1, 76, 92
3, 8062, Note_on_c, 1, 76, 0
3, 8064, Note_on_c, 1, 67, 92
3, 8064, Note_on_c, 1, 77, 92
3, 8094, Note_on_c, 1, 77, 0
3, 8096, Note_on_c, 1, 76, 92
3, 8126, Note_on_c, 1, 76, 0
3, 8128, Note_on_c, 1, 74, 92
3, 8158, Note_on_c, 1, 74, 0
3, 8160, Note_on_c, 1, 76, 92
3, 8190, Note_on_c, 1, 76, 0
3, 8192, Note_on_c, 1, 74, 92
3, 8222, Note_on_c, 1, 74, 0
3, 8224, Note_on_c, 1, 72, 92
3, 8254, Note_on_c, 1, 72, 0
3, 8256, Note_on_c, 1, 74, 92
3, 8286, Note_on_c, 1, 74, 0
3, 8288, Note_on_c, 1, 72, 92
3, 8318, Note_on_c, 1, 72, 0
3, 8320, Note_on_c, 1, 71, 92
3, 8350, Note_on_c, 1, 71, 0
3, 8352, Note_on_c, 1, 72, 92
3, 8382, Note_on_c, 1, 72, 0
3, 8384, Note_on_c, 1, 71, 92
3, 8400, Note_on_c, 1, 67, 0
3, 8414, Note_on_c, 1, 71, 0
3, 8416, Note_on_c, 1, 69, 92
3, 8446, Note_on_c, 1, 69, 0
3, 8448, Note_on_c, 1, 67, 92
3, 8448, Note_on_c, 1, 71, 92
3, 8478, Note_on_c, 1, 67, 0
3, 8480, Note_on_c, 1, 69, 85
3, 8510, Note_on_c, 1, 69, 0
3, 8512, Note_on_c, 1, 67, 77
3, 8542, Note_on_c, 1, 67, 0
3, 8542, Note_on_c, 1, 71, 0
3, 8544, Note_on_c, 1, 65, 69
3, 8574, Note_on_c, 1, 65, 0
3, 8576, Note_on_c, 1, 64, 61
3, 8606, Note_on_c, 1, 64, 0
3, 8608, Note_on_c, 1, 62, 53
3, 8638, Note_on_c, 1, 62, 0
3, 8640, Note_on_c, 1, 60, 45
3, 8672, Note_on_c, 1, 60, 0
3, 8736, Note_on_c, 1, 64, 45
3, 8736, Note_on_c, 1, 67, 45
3, 8736, Note_on_c, 1, 72, 45
3, 8768, Note_on_c, 1, 72, 0
3, 8768, Note_on_c, 1, 67, 0
3, 8768, Note_on_c, 1, 64, 0
3, 8832, Note_on_c, 1, 55, 45
3, 8864, Note_on_c, 1, 55, 0
3, 8928, Note_on_c, 1, 65, 45
3, 8928, Note_on_c, 1, 67, 45
3, 8928, Note_on_c, 1, 71, 45
3, 8960, Note_on_c, 1, 71, 0
3, 8960, Note_on_c, 1, 67, 0
3, 8960, Note_on_c, 1, 65, 0
3, 9024, Note_on_c, 1, 48, 45
3, 9056, Note_on_c, 1, 48, 0
3, 9120, Note_on_c, 1, 64, 45
3, 9120, Note_on_c, 1, 67, 45
3, 9120, Note_on_c, 1, 72, 45
3, 9152, Note_on_c, 1, 72, 0
3, 9152, Note_on_c, 1, 67, 0
3, 9152, Note_on_c, 1, 64, 0
3, 9216, Note_on_c, 1, 55, 45
3, 9216, Note_on_c, 1, 65, 45
3, 9246, Note_on_c, 1, 65, 0
3, 9248, Note_on_c, 1, 64, 45
3, 9278, Note_on_c, 1, 64, 0
3, 9280, Note_on_c, 1, 62, 45
3, 9310, Note_on_c, 1, 62, 0
3, 9312, Note_on_c, 1, 65, 45
3, 9342, Note_on_c, 1, 65, 0
3, 9344, Note_on_c, 1, 64, 45
3, 9374, Note_on_c, 1, 64, 0
3, 9376, Note_on_c, 1, 62, 45
3, 9406, Note_on_c, 1, 62, 0
3, 9408, Note_on_c, 1, 65, 45
3, 9438, Note_on_c, 1, 65, 0
3, 9440, Note_on_c, 1, 64, 45
3, 9470, Note_on_c, 1, 64, 0
3, 9472, Note_on_c, 1, 62, 45
3, 9502, Note_on_c, 1, 62, 0
3, 9504, Note_on_c, 1, 65, 45
3, 9534, Note_on_c, 1, 65, 0
3, 9536, Note_on_c, 1, 64, 45
3, 9566, Note_on_c, 1, 64, 0
3, 9568, Note_on_c, 1, 62, 45
3, 9598, Note_on_c, 1, 62, 0
3, 9600, Note_on_c, 1, 64, 45
3, 9630, Note_on_c, 1, 64, 0
3, 9632, Note_on_c, 1, 62, 45
3, 9662, Note_on_c, 1, 62, 0
3, 9664, Note_on_c, 1, 60, 45
3, 9694, Note_on_c, 1, 60, 0
3, 9696, Note_on_c, 1, 64, 45
3, 9726, Note_on_c, 1, 64, 0
3, 9728, Note_on_c, 1, 62, 45
3, 9744, Note_on_c, 1, 55, 0
3, 9758, Note_on_c, 1, 62, 0
3, 9760, Note_on_c, 1, 60, 45
3, 9790, Note_on_c, 1, 60, 0
3, 9792, Note_on_c, 1, 55, 45
3, 9792, Note_on_c, 1, 59, 45
3, 9822, Note_on_c, 1, 59, 0
3, 9824, Note_on_c, 1, 60, 45
3, 9854, Note_on_c, 1, 60, 0
3, 9856, Note_on_c, 1, 62, 45
3, 9886, Note_on_c, 1, 62, 0
3, 9888, Note_on_c, 1, 59, 45
3, 9918, Note_on_c, 1, 59, 0
3, 9920, Note_on_c, 1, 60, 45
3, 9950, Note_on_c, 1, 60, 0
3, 9952, Note_on_c, 1, 62, 45
3, 9982, Note_on_c, 1, 62, 0
3, 9984, Note_on_c, 1, 59, 45
3, 10014, Note_on_c, 1, 59, 0
3, 10016, Note_on_c, 1, 60, 45
3, 10046, Note_on_c, 1, 60, 0
3, 10048, Note_on_c, 1, 62, 45
3, 10078, Note_on_c, 1, 62, 0
3, 10080, Note_on_c, 1, 59, 45
3, 10110, Note_on_c, 1, 59, 0
3, 10112, Note_on_c, 1, 60, 45
3, 10142, Note_on_c, 1, 60, 0
3, 10144, Note_on_c, 1, 62, 45
3, 10174, Note_on_c, 1, 62, 0
3, 10176, Note_on_c, 1, 60, 45
3, 10206, Note_on_c, 1, 60, 0
3, 10208, Note_on_c, 1, 62, 45
3, 10238, Note_on_c, 1, 62, 0
3, 10240, Note_on_c, 1, 64, 45
3, 10270, Note_on_c, 1, 64, 0
3, 10272, Note_on_c, 1, 60, 45
3, 10302, Note_on_c, 1, 60, 0
3, 10304, Note_on_c, 1, 62, 45
3, 10320, Note_on_c, 1, 55, 0
3, 10334, Note_on_c, 1, 62, 0
3, 10336, Note_on_c, 1, 64, 45
3, 10366, Note_on_c, 1, 64, 0
3, 10368, Note_on_c, 1, 55, 45
3, 10368, Note_on_c, 1, 65, 45
3, 10398, Note_on_c, 1, 65, 0
3, 10400, Note_on_c, 1, 64, 45
3, 10430, Note_on_c, 1, 64, 0
3, 10432, Note_on_c, 1, 62, 45
3, 10462, Note_on_c, 1, 62, 0
3, 10464, Note_on_c, 1, 65, 45
3, 10494, Note_on_c, 1, 65, 0
3, 10496, Note_on_c, 1, 64, 45
3, 10526, Note_on_c, 1, 64, 0
3, 10528, Note_on_c, 1, 62, 45
3, 10558, Note_on_c, 1, 62, 0
3, 10560, Note_on_c, 1, 65, 45
3, 10590, Note_on_c, 1, 65, 0
3, 10592, Note_on_c, 1, 64, 45
3, 10622, Note_on_c, 1, 64, 0
3, 10624, Note_on_c, 1, 62, 45
3, 10654, Note_on_c, 1, 62, 0
3, 10656, Note_on_c, 1, 65, 45
3, 10686, Note_on_c, 1, 65, 0
3, 10688, Note_on_c, 1, 64, 45
3, 10718, Note_on_c, 1, 64, 0
3, 10720, Note_on_c, 1, 62, 45
3, 10750, Note_on_c, 1, 62, 0
3, 10752, Note_on_c, 1, 64, 45
3, 10782, Note_on_c, 1, 64, 0
3, 10784, Note_on_c, 1, 62, 45
3, 10814, Note_on_c, 1, 62, 0
3, 10816, Note_on_c, 1, 60, 45
3, 10846, Note_on_c, 1, 60, 0
3, 10848, Note_on_c, 1, 64, 45
3, 10878, Note_on_c, 1, 64, 0
3, 10880, Note_on_c, 1, 62, 45
3, 10896, Note_on_c, 1, 55, 0
3, 10910, Note_on_c, 1, 62, 0
3, 10912, Note_on_c, 1, 60, 45
3, 10942, Note_on_c, 1, 60, 0
3, 10944, Note_on_c, 1, 55, 45
3, 10944, Note_on_c, 1, 62, 63
3, 10965, Note_on_c, 1, 62, 0
3, 10976, Note_on_c, 1, 60, 45
3, 11006, Note_on_c, 1, 60, 0
3, 11008, Note_on_c, 1, 59, 45
3, 11038, Note_on_c, 1, 59, 0
3, 11038, Note_on_c, 1, 55, 0
3, 11040, Note_on_c, 1, 50, 45
3, 11040, Note_on_c, 1, 60, 63
3, 11061, Note_on_c, 1, 60, 0
3, 11072, Note_on_c, 1, 59, 45
3, 11102, Note_on_c, 1, 59, 0
3, 11104, Note_on_c, 1, 57, 45
3, 11134, Note_on_c, 1, 57, 0
3, 11134, Note_on_c, 1, 50, 0
3, 11136, Note_on_c, 1, 55, 45
3, 11136, Note_on_c, 1, 62, 45
3, 11157, Note_on_c, 1, 62, 0
3, 11168, Note_on_c, 1, 60, 45
3, 11198, Note_on_c, 1, 60, 0
3, 11200, Note_on_c, 1, 59, 45
3, 11230, Note_on_c, 1, 59, 0
3, 11230, Note_on_c, 1, 55, 0
3, 11232, Note_on_c, 1, 50, 45
3, 11232, Note_on_c, 1, 60, 63
3, 11253, Note_on_c, 1, 60, 0
3, 11264, Note_on_c, 1, 59, 45
3, 11294, Note_on_c, 1, 59, 0
3, 11296, Note_on_c, 1, 57, 45
3, 11326, Note_on_c, 1, 57, 0
3, 11326, Note_on_c, 1, 50, 0
3, 11328, Note_on_c, 1, 55, 45
3, 11328, Note_on_c, 1, 62, 63
3, 11349, Note_on_c, 1, 62, 0
3, 11360, Note_on_c, 1, 60, 45
3, 11390, Note_on_c, 1, 60, 0
3, 11392, Note_on_c, 1, 59, 45
3, 11422, Note_on_c, 1, 59, 0
3, 11422, Note_on_c, 1, 55, 0
3, 11424, Note_on_c, 1, 50, 45
3, 11424, Note_on_c, 1, 60, 63
3, 11445, Note_on_c, 1, 60, 0
3, 11456, Note_on_c, 1, 59, 45
3, 11486, Note_on_c, 1, 59, 0
3, 11488, Note_on_c, 1, 57, 45
3, 11518, Note_on_c, 1, 57, 0
3, 11518, Note_on_c, 1, 50, 0
3, 11520, Note_on_c, 1, 55, 45
3, 11520, Note_on_c, 1, 59, 45
3, 11614, Note_on_c, 1, 59, 0
3, 11614, Note_on_c, 1, 55, 0
3, 12096, Note_on_c, 1, 55, 45
3, 12096, Note_on_c, 1, 62, 63
3, 12117, Note_on_c, 1, 62, 0
3, 12128, Note_on_c, 1, 60, 45
3, 12158, Note_on_c, 1, 60, 0
3, 12160, Note_on_c, 1, 59, 45
3, 12190, Note_on_c, 1, 59, 0
3, 12190, Note_on_c, 1, 55, 0
3, 12192, Note_on_c, 1, 50, 45
3, 12192, Note_on_c, 1, 60, 63
3, 12213, Note_on_c, 1, 60, 0
3, 12224, Note_on_c, 1, 59, 45
3, 12254, Note_on_c, 1, 59, 0
3, 12256, Note_on_c, 1, 57, 45
3, 12286, Note_on_c, 1, 57, 0
3, 12286, Note_on_c, 1, 50, 0
3, 12288, Note_on_c, 1, 55, 45
3, 12288, Note_on_c, 1, 62, 63
3, 12309, Note_on_c, 1, 62, 0
3, 12320, Note_on_c, 1, 60, 45
3, 12350, Note_on_c, 1, 60, 0
3, 12352, Note_on_c, 1, 59, 45
3, 12382, Note_on_c, 1, 59, 0
3, 12382, Note_on_c, 1, 55, 0
3, 12384, Note_on_c, 1, 50, 45
3, 12384, Note_on_c, 1, 60, 63
3, 12405, Note_on_c, 1, 60, 0
3, 12416, Note_on_c, 1, 59, 45
3, 12446, Note_on_c, 1, 59, 0
3, 12448, Note_on_c, 1, 57, 45
3, 12478, Note_on_c, 1, 57, 0
3, 12478, Note_on_c, 1, 50, 0
3, 12480, Note_on_c, 1, 55, 45
3, 12480, Note_on_c, 1, 62, 63
3, 12501, Note_on_c, 1, 62, 0
3, 12512, Note_on_c, 1, 60, 45
3, 12542, Note_on_c, 1, 60, 0
3, 12544, Note_on_c, 1, 59, 45
3, 12574, Note_on_c, 1, 59, 0
3, 12574, Note_on_c, 1, 55, 0
3, 12576, Note_on_c, 1, 50, 45
3, 12576, Note_on_c, 1, 60, 63
3, 12597, Note_on_c, 1, 60, 0
3, 12608, Note_on_c, 1, 59, 45
3, 12638, Note_on_c, 1, 59, 0
3, 12640, Note_on_c, 1, 57, 45
3, 12670, Note_on_c, 1, 57, 0
3, 12670, Note_on_c, 1, 50, 0
3, 12672, Note_on_c, 1, 55, 45
3, 12672, Note_on_c, 1, 59, 45
3, 12766, Note_on_c, 1, 59, 0
3, 12766, Note_on_c, 1, 55, 0
3, 13248, Note_on_c, 1, 36, 45
3, 13278, Note_on_c, 1, 36, 0
3, 13280, Note_on_c, 1, 40, 45
3, 13310, Note_on_c, 1, 40, 0
3, 13312, Note_on_c, 1, 43, 45
3, 13342, Note_on_c, 1, 43, 0
3, 13344, Note_on_c, 1, 48, 45
3, 13374, Note_on_c, 1, 48, 0
3, 13376, Note_on_c, 1, 52, 45
3, 13406, Note_on_c, 1, 52, 0
3, 13408, Note_on_c, 1, 55, 45
3, 13438, Note_on_c, 1, 55, 0
3, 13728, Note_on_c, 1, 48, 60
3, 13760, Note_on_c, 1, 48, 0
3, 13920, Note_on_c, 1, 41, 75
3, 13952, Note_on_c, 1, 41, 0
3, 14016, Note_on_c, 1, 81, 105
3, 14176, Note_on_c, 1, 81, 0
3, 14208, Note_on_c, 1, 81, 75
3, 14238, Note_on_c, 1, 81, 0
3, 14240, Note_on_c, 1, 79, 75
3, 14270, Note_on_c, 1, 79, 0
3, 14272, Note_on_c, 1, 77, 75
3, 14302, Note_on_c, 1, 77, 0
3, 14304, Note_on_c, 1, 79, 75
3, 14334, Note_on_c, 1, 79, 0
3, 14336, Note_on_c, 1, 77, 75
3, 14366, Note_on_c, 1, 77, 0
3, 14368, Note_on_c, 1, 76, 75
3, 14398, Note_on_c, 1, 76, 0
3, 14400, Note_on_c, 1, 67, 75
3, 14400, Note_on_c, 1, 77, 75
3, 14430, Note_on_c, 1, 77, 0
3, 14432, Note_on_c, 1, 76, 75
3, 14462, Note_on_c, 1, 76, 0
3, 14464, Note_on_c, 1, 74, 75
3, 14494, Note_on_c, 1, 74, 0
3, 14496, Note_on_c, 1, 76, 75
3, 14526, Note_on_c, 1, 76, 0
3, 14528, Note_on_c, 1, 74, 75
3, 14558, Note_on_c, 1, 74, 0
3, 14560, Note_on_c, 1, 72, 75
3, 14590, Note_on_c, 1, 72, 0
3, 14592, Note_on_c, 1, 74, 75
3, 14622, Note_on_c, 1, 74, 0
3, 14624, Note_on_c, 1, 72, 75
3, 14654, Note_on_c, 1, 72, 0
3, 14656, Note_on_c, 1, 71, 75
3, 14686, Note_on_c, 1, 71, 0
3, 14688, Note_on_c, 1, 72, 75
3, 14718, Note_on_c, 1, 72, 0
3, 14720, Note_on_c, 1, 71, 75
3, 14736, Note_on_c, 1, 67, 0
3, 14750, Note_on_c, 1, 71, 0
3, 14752, Note_on_c, 1, 69, 75
3, 14782, Note_on_c, 1, 69, 0
3, 14784, Note_on_c, 1, 67, 75
3, 14784, Note_on_c, 1, 71, 75
3, 14814, Note_on_c, 1, 67, 0
3, 14816, Note_on_c, 1, 69, 70
3, 14846, Note_on_c, 1, 69, 0
3, 14848, Note_on_c, 1, 67, 65
3, 14878, Note_on_c, 1, 67, 0
3, 14878, Note_on_c, 1, 71, 0
3, 14880, Note_on_c, 1, 65, 60
3, 14910, Note_on_c, 1, 65, 0
3, 14912, Note_on_c, 1, 64, 55
3, 14942, Note_on_c, 1, 64, 0
3, 14944, Note_on_c, 1, 62, 50
3, 14974, Note_on_c, 1, 62, 0
3, 14976, Note_on_c, 1, 60, 45
3, 15008, Note_on_c, 1, 60, 0
3, 15072, Note_on_c, 1, 64, 45
3, 15072, Note_on_c, 1, 67, 45
3, 15072, Note_on_c, 1, 72, 45
3, 15104, Note_on_c, 1, 72, 0
3, 15104, Note_on_c, 1, 67, 0
3, 15104, Note_on_c, 1, 64, 0
3, 15168, Note_on_c, 1, 55, 45
3, 15200, Note_on_c, 1, 55, 0
3, 15264, Note_on_c, 1, 65, 45
3, 15264, Note_on_c, 1, 67, 45
3, 15264, Note_on_c, 1, 71, 45
3, 15296, Note_on_c, 1, 71, 0
3, 15296, Note_on_c, 1, 67, 0
3, 15296, Note_on_c, 1, 65, 0
3, 15360, Note_on_c, 1, 48, 45
3, 15392, Note_on_c, 1, 48, 0
3, 15456, Note_on_c, 1, 64, 45
3, 15456, Note_on_c, 1, 67, 45
3, 15456, Note_on_c, 1, 72, 45
3, 15488, Note_on_c, 1, 72, 0
3, 15488, Note_on_c, 1, 67, 0
3, 15488, Note_on_c, 1, 64, 0
3, 15552, Note_on_c, 1, 36, 45
3, 15582, Note_on_c, 1, 36, 0
3, 15584, Note_on_c, 1, 40, 47
3, 15614, Note_on_c, 1, 40, 0
3, 15616, Note_on_c, 1, 43, 49
3, 15646, Note_on_c, 1, 43, 0
3, 15648, Note_on_c, 1, 48, 51
3, 15678, Note_on_c, 1, 48, 0
3, 15680, Note_on_c, 1, 52, 53
3, 15710, Note_on_c, 1, 52, 0
3, 15712, Note_on_c, 1, 55, 55
3, 15742, Note_on_c, 1, 55, 0
3, 16032, Note_on_c, 1, 48, 83
3, 16064, Note_on_c, 1, 48, 0
3, 16224, Note_on_c, 1, 41, 92
3, 16256, Note_on_c, 1, 41, 0
3, 16320, Note_on_c, 1, 81, 127
3, 16480, Note_on_c, 1, 81, 0
3, 16512, Note_on_c, 1, 81, 92
3, 16542, Note_on_c, 1, 81, 0
3, 16544, Note_on_c, 1, 79, 92
3, 16574, Note_on_c, 1, 79, 0
3, 16576, Note_on_c, 1, 77, 92
3, 16606, Note_on_c, 1, 77, 0
3, 16608, Note_on_c, 1, 79, 92
3, 16638, Note_on_c, 1, 79, 0
3, 16640, Note_on_c, 1, 77, 92
3, 16670, Note_on_c, 1, 77, 0
3, 16672, Note_on_c, 1, 76, 92
3, 16702, Note_on_c, 1, 76, 0
3, 16704, Note_on_c, 1, 67, 92
3, 16704, Note_on_c, 1, 77, 92
3, 16734, Note_on_c, 1, 77, 0
3, 16736, Note_on_c, 1, 76, 92
3, 16766, Note_on_c, 1, 76, 0
3, 16768, Note_on_c, 1, 74, 92
3, 16798, Note_on_c, 1, 74, 0
3, 16800, Note_on_c, 1, 76, 92
3, 16830, Note_on_c, 1, 76, 0
3, 16832, Note_on_c, 1, 74, 92
3, 16862, Note_on_c, 1, 74, 0
3, 16864, Note_on_c, 1, 72, 92
3, 16894, Note_on_c, 1, 72, 0
3, 16896, Note_on_c, 1, 74, 92
3, 16926, Note_on_c, 1, 74, 0
3, 16928, Note_on_c, 1, 72, 92
3, 16958, Note_on_c, 1, 72, 0
3, 16960, Note_on_c, 1, 71, 92
3, 16990, Note_on_c, 1, 71, 0
3, 16992, Note_on_c, 1, 72, 92
3, 17022, Note_on_c, 1, 72, 0
3, 17024, Note_on_c, 1, 71, 92
3, 17040, Note_on_c, 1, 67, 0
3, 17054, Note_on_c, 1, 71, 0
3, 17056, Note_on_c, 1, 69, 92
3, 17086, Note_on_c, 1, 69, 0
3, 17088, Note_on_c, 1, 67, 92
3, 17088, Note_on_c, 1, 71, 92
3, 17118, Note_on_c, 1, 67, 0
3, 17120, Note_on_c, 1, 69, 85
3, 17150, Note_on_c, 1, 69, 0
3, 17152, Note_on_c, 1, 67, 77
3, 17182, Note_on_c, 1, 67, 0
3, 17182, Note_on_c, 1, 71, 0
3, 17184, Note_on_c, 1, 65, 69
3, 17214, Note_on_c, 1, 65, 0
3, 17216, Note_on_c, 1, 64, 61
3, 17246, Note_on_c, 1, 64, 0
3, 17248, Note_on_c, 1, 62, 53
3, 17278, Note_on_c, 1, 62, 0
3, 17280, Note_on_c, 1, 60, 45
3, 17312, Note_on_c, 1, 60, 0
3, 17376, Note_on_c, 1, 64, 45
3, 17376, Note_on_c, 1, 67, 45
3, 17376, Note_on_c, 1, 72, 45
3, 17408, Note_on_c, 1, 72, 0
3, 17408, Note_on_c, 1, 67, 0
3, 17408, Note_on_c, 1, 64, 0
3, 17472, Note_on_c, 1, 55, 45
3, 17504, Note_on_c, 1, 55, 0
3, 17568, Note_on_c, 1, 65, 45
3, 17568, Note_on_c, 1, 67, 45
3, 17568, Note_on_c, 1, 71, 45
3, 17600, Note_on_c, 1, 71, 0
3, 17600, Note_on_c, 1, 67, 0
3, 17600, Note_on_c, 1, 65, 0
3, 17664, Note_on_c, 1, 48, 45
3, 17696, Note_on_c, 1, 48, 0
3, 17760, Note_on_c, 1, 64, 45
3, 17760, Note_on_c, 1, 67, 45
3, 17760, Note_on_c, 1, 72, 45
3, 17792, Note_on_c, 1, 72, 0
3, 17792, Note_on_c, 1, 67, 0
3, 17792, Note_on_c, 1, 64, 0
3, 17856, Note_on_c, 1, 55, 45
3, 17856, Note_on_c, 1, 65, 45
3, 17886, Note_on_c, 1, 65, 0
3, 17888, Note_on_c, 1, 64, 45
3, 17918, Note_on_c, 1, 64, 0
3, 17920, Note_on_c, 1, 62, 45
3, 17950, Note_on_c, 1, 62, 0
3, 17952, Note_on_c, 1, 65, 45
3, 17982, Note_on_c, 1, 65, 0
3, 17984, Note_on_c, 1, 64, 45
3, 18014, Note_on_c, 1, 64, 0
3, 18016, Note_on_c, 1, 62, 45
3, 18046, Note_on_c, 1, 62, 0
3, 18048, Note_on_c, 1, 65, 45
3, 18078, Note_on_c, 1, 65, 0
3, 18080, Note_on_c, 1, 64, 45
3, 18110, Note_on_c, 1, 64, 0
3, 18112, Note_on_c, 1, 62, 45
3, 18142, Note_on_c, 1, 62, 0
3, 18144, Note_on_c, 1, 65, 45
3, 18174, Note_on_c, 1, 65, 0
3, 18176, Note_on_c, 1, 64, 45
3, 18206, Note_on_c, 1, 64, 0
3, 18208, Note_on_c, 1, 62, 45
3, 18238, Note_on_c, 1, 62, 0
3, 18240, Note_on_c, 1, 64, 45
3, 18270, Note_on_c, 1, 64, 0
3, 18272, Note_on_c, 1, 62, 45
3, 18302, Note_on_c, 1, 62, 0
3, 18304, Note_on_c, 1, 60, 45
3, 18334, Note_on_c, 1, 60, 0
3, 18336, Note_on_c, 1, 64, 45
3, 18366, Note_on_c, 1, 64, 0
3, 18368, Note_on_c, 1, 62, 45
3, 18384, Note_on_c, 1, 55, 0
3, 18398, Note_on_c, 1, 62, 0
3, 18400, Note_on_c, 1, 60, 45
3, 18430, Note_on_c, 1, 60, 0
3, 18432, Note_on_c, 1, 55, 45
3, 18432, Note_on_c, 1, 59, 45
3, 18462, Note_on_c, 1, 59, 0
3, 18464, Note_on_c, 1, 60, 45
3, 18494, Note_on_c, 1, 60, 0
3, 18496, Note_on_c, 1, 62, 45
3, 18526, Note_on_c, 1, 62, 0
3, 18528, Note_on_c, 1, 59, 45
3, 18558, Note_on_c, 1, 59, 0
3, 18560, Note_on_c, 1, 60, 45
3, 18590, Note_on_c, 1, 60, 0
3, 18592, Note_on_c, 1, 62, 45
3, 18622, Note_on_c, 1, 62, 0
3, 18624, Note_on_c, 1, 59, 45
3, 18654, Note_on_c, 1, 59, 0
3, 18656, Note_on_c, 1, 60, 45
3, 18686, Note_on_c, 1, 60, 0
3, 18688, Note_on_c, 1, 62, 45
3, 18718, Note_on_c, 1, 62, 0
3, 18720, Note_on_c, 1, 59, 45
3, 18750, Note_on_c, 1, 59, 0
3, 18752, Note_on_c, 1, 60, 45
3, 18782, Note_on_c, 1, 60, 0
3, 18784, Note_on_c, 1, 62, 45
3, 18814, Note_on_c, 1, 62, 0
3, 18816, Note_on_c, 1, 60, 45
3, 18846, Note_on_c, 1, 60, 0
3, 18848, Note_on_c, 1, 62, 45
3, 18878, Note_on_c, 1, 62, 0
3, 18880, Note_on_c, 1, 64, 45
3, 18910, Note_on_c, 1, 64, 0
3, 18912, Note_on_c, 1, 60, 45
3, 18942, Note_on_c, 1, 60, 0
3, 18944, Note_on_c, 1, 62, 45
3, 18960, Note_on_c, 1, 55, 0
3, 18974, Note_on_c, 1, 62, 0
3, 18976, Note_on_c, 1, 64, 45
3, 19006, Note_on_c, 1, 64, 0
3, 19008, Note_on_c, 1, 55, 45
3, 19008, Note_on_c, 1, 65, 45
3, 19038, Note_on_c, 1, 65, 0
3, 19040, Note_on_c, 1, 64, 45
3, 19070, Note_on_c, 1, 64, 0
3, 19072, Note_on_c, 1, 62, 45
3, 19102, Note_on_c, 1, 62, 0
3, 19104, Note_on_c, 1, 65, 45
3, 19134, Note_on_c, 1, 65, 0
3, 19136, Note_on_c, 1, 64, 45
3, 19166, Note_on_c, 1, 64, 0
3, 19168, Note_on_c, 1, 62, 45
3, 19198, Note_on_c, 1, 62, 0
3, 19200, Note_on_c, 1, 65, 45
3, 19230, Note_on_c, 1, 65, 0
3, 19232, Note_on_c, 1, 64, 45
3, 19262, Note_on_c, 1, 64, 0
3, 19264, Note_on_c, 1, 62, 45
3, 19294, Note_on_c, 1, 62, 0
3, 19296, Note_on_c, 1, 65, 45
3, 19326, Note_on_c, 1, 65, 0
3, 19328, Note_on_c, 1, 64, 45
3, 19358, Note_on_c, 1, 64, 0
3, 19360, Note_on_c, 1, 62, 45
3, 19390, Note_on_c, 1, 62, 0
3, 19392, Note_on_c, 1, 64, 45
3, 19422, Note_on_c, 1, 64, 0
3, 19424, Note_on_c, 1, 62, 45
3, 19454, Note_on_c, 1, 62, 0
3, 19456, Note_on_c, 1, 60, 45
3, 19486, Note_on_c, 1, 60, 0
3, 19488, Note_on_c, 1, 64, 45
3, 19518, Note_on_c, 1, 64, 0
3, 19520, Note_on_c, 1, 62, 45
3, 19536, Note_on_c, 1, 55, 0
3, 19550, Note_on_c, 1, 62, 0
3, 19552, Note_on_c, 1, 60, 45
3, 19582, Note_on_c, 1, 60, 0
3, 19584, Note_on_c, 1, 55, 45
3, 19584, Note_on_c, 1, 62, 63
3, 19605, Note_on_c, 1, 62, 0
3, 19616, Note_on_c, 1, 60, 45
3, 19646, Note_on_c, 1, 60, 0
3, 19648, Note_on_c, 1, 59, 45
3, 19678, Note_on_c, 1, 59, 0
3, 19678, Note_on_c, 1, 55, 0
3, 19680, Note_on_c, 1, 50, 45
3, 19680, Note_on_c, 1, 60, 63
3, 19701, Note_on_c, 1, 60, 0
3, 19712, Note_on_c, 1, 59, 45
3, 19742, Note_on_c, 1, 59, 0
3, 19744, Note_on_c, 1, 57, 45
3, 19774, Note_on_c, 1, 57, 0
3, 19774, Note_on_c, 1, 50, 0
3, 19776, Note_on_c, 1, 55, 45
3, 19776, Note_on_c, 1, 62, 45
3, 19797, Note_on_c, 1, 62, 0
3, 19808, Note_on_c, 1, 60, 45
3, 19838, Note_on_c, 1, 60, 0
3, 19840, Note_on_c, 1, 59, 45
3, 19870, Note_on_c, 1, 59, 0
3, 19870, Note_on_c, 1, 55, 0
3, 19872, Note_on_c, 1, 50, 45
3, 19872, Note_on_c, 1, 60, 63
3, 19893, Note_on_c, 1, 60, 0
3, 19904, Note_on_c, 1, 59, 45
3, 19934, Note_on_c, 1, 59, 0
3, 19936, Note_on_c, 1, 57, 45
3, 19966, Note_on_c, 1, 57, 0
3, 19966, Note_on_c, 1, 50, 0
3, 19968, Note_on_c, 1, 55, 45
3, 19968, Note_on_c, 1, 62, 63
3, 19989, Note_on_c, 1, 62, 0
3, 20000, Note_on_c, 1, 60, 45
3, 20030, Note_on_c, 1, 60, 0
3, 20032, Note_on_c, 1, 59, 45
3, 20062, Note_on_c, 1, 59, 0
3, 20062, Note_on_c, 1, 55, 0
3, 20064, Note_on_c, 1, 50, 45
3, 20064, Note_on_c, 1, 60, 63
3, 20085, Note_on_c, 1, 60, 0
3, 20096, Note_on_c, 1, 59, 45
3, 20126, Note_on_c, 1, 59, 0
3, 20128, Note_on_c, 1, 57, 45
3, 20158, Note_on_c, 1, 57, 0
3, 20158, Note_on_c, 1, 50, 0
3, 20160, Note_on_c, 1, 55, 45
3, 20160, Note_on_c, 1, 59, 45
3, 20254, Note_on_c, 1, 59, 0
3, 20254, Note_on_c, 1, 55, 0
3, 20736, Note_on_c, 1, 55, 45
3, 20736, Note_on_c, 1, 62, 63
3, 20757, Note_on_c, 1, 62, 0
3, 20768, Note_on_c, 1, 60, 45
3, 20798, Note_on_c, 1, 60, 0
3, 20800, Note_on_c, 1, 59, 45
3, 20830, Note_on_c, 1, 59, 0
3, 20830, Note_on_c, 1, 55, 0
3, 20832, Note_on_c, 1, 50, 45
3, 20832, Note_on_c, 1, 60, 63
3, 20853, Note_on_c, 1, 60, 0
3, 20864, Note_on_c, 1, 59, 45
3, 20894, Note_on_c, 1, 59, 0
3, 20896, Note_on_c, 1, 57, 45
3, 20926, Note_on_c, 1, 57, 0
3, 20926, Note_on_c, 1, 50, 0
3, 20928, Note_on_c, 1, 55, 45
3, 20928, Note_on_c, 1, 62, 63
3, 20949, Note_on_c, 1, 62, 0
3, 20960, Note_on_c, 1, 60, 45
3, 20990, Note_on_c, 1, 60, 0
3, 20992, Note_on_c, 1, 59, 45
3, 21022, Note_on_c, 1, 59, 0
3, 21022, Note_on_c, 1, 55, 0
3, 21024, Note_on_c, 1, 50, 45
3, 21024, Note_on_c, 1, 60, 63
3, 21045, Note_on_c, 1, 60, 0
3, 21056, Note_on_c, 1, 59, 45
3, 21086, Note_on_c, 1, 59, 0
3, 21088, Note_on_c, 1, 57, 45
3, 21118, Note_on_c, 1, 57, 0
3, 21118, Note_on_c, 1, 50, 0
3, 21120, Note_on_c, 1, 55, 45
3, 21120, Note_on_c, 1, 62, 63
3, 21141, Note_on_c, 1, 62, 0
3, 21152, Note_on_c, 1, 60, 45
3, 21182, Note_on_c, 1, 60, 0
3, 21184, Note_on_c, 1, 59, 45
3, 21214, Note_on_c, 1, 59, 0
3, 21214, Note_on_c, 1, 55, 0
3, 21216, Note_on_c, 1, 50, 45
3, 21216, Note_on_c, 1, 60, 63
3, 21237, Note_on_c, 1, 60, 0
3, 21248, Note_on_c, 1, 59, 45
3, 21278, Note_on_c, 1, 59, 0
3, 21280, Note_on_c, 1, 57, 45
3, 21310, Note_on_c, 1, 57, 0
3, 21310, Note_on_c, 1, 50, 0
3, 21312, Note_on_c, 1, 55, 45
3, 21312, Note_on_c, 1, 59, 45
3, 21406, Note_on_c, 1, 59, 0
3, 21406, Note_on_c, 1, 55, 0
3, 21888, Note_on_c, 1, 36, 45
3, 21918, Note_on_c, 1, 36, 0
3, 21920, Note_on_c, 1, 40, 45
3, 21950, Note_on_c, 1, 40, 0
3, 21952, Note_on_c, 1, 43, 45
3, 21982, Note_on_c, 1, 43, 0
3, 21984, Note_on_c, 1, 48, 45
3, 22014, Note_on_c, 1, 48, 0
3, 22016, Note_on_c, 1, 52, 45
3, 22046, Note_on_c, 1, 52, 0
3, 22048, Note_on_c, 1, 55, 45
3, 22078, Note_on_c, 1, 55, 0
3, 22368, Note_on_c, 1, 48, 60
3, 22400, Note_on_c, 1, 48, 0
3, 22560, Note_on_c, 1, 41, 75
3, 22592, Note_on_c, 1, 41, 0
3, 22656, Note_on_c, 1, 81, 105
3, 22816, Note_on_c, 1, 81, 0
3, 22848, Note_on_c, 1, 81, 75
3, 22878, Note_on_c, 1, 81, 0
3, 22880, Note_on_c, 1, 79, 75
3, 22910, Note_on_c, 1, 79, 0
3, 22912, Note_on_c, 1, 77, 75
3, 22942, Note_on_c, 1, 77, 0
3, 22944, Note_on_c, 1, 79, 75
3, 22974, Note_on_c, 1, 79, 0
3, 22976, Note_on_c, 1, 77, 75
3, 23006, Note_on_c, 1, 77, 0
3, 23008, Note_on_c, 1, 76, 75
3, 23038, Note_on_c, 1, 76, 0
3, 23040, Note_on_c, 1, 67, 75
3, 23040, Note_on_c, 1, 77, 75
3, 23070, Note_on_c, 1, 77, 0
3, 23072, Note_on_c, 1, 76, 75
3, 23102, Note_on_c, 1, 76, 0
3, 23104, Note_on_c, 1, 74, 75
3, 23134, Note_on_c, 1, 74, 0
3, 23136, Note_on_c, 1, 76, 75
3, 23166, Note_on_c, 1, 76, 0
3, 23168, Note_on_c, 1, 74, 75
3, 23198, Note_on_c, 1, 74, 0
3, 23200, Note_on_c, 1, 72, 75
3, 23230, Note_on_c, 1, 72, 0
3, 23232, Note_on_c, 1, 74, 75
3, 23262, Note_on_c, 1, 74, 0
3, 23264, Note_on_c, 1, 72, 75
3, 23294, Note_on_c, 1, 72, 0
3, 23296, Note_on_c, 1, 71, 75
3, 23326, Note_on_c, 1, 71, 0
3, 23328, Note_on_c, 1, 72, 75
3, 23358, Note_on_c, 1, 72, 0
3, 23360, Note_on_c, 1, 71, 75
3, 23376, Note_on_c, 1, 67, 0
3, 23390, Note_on_c, 1, 71, 0
3, 23392, Note_on_c, 1, 69, 75
3, 23422, Note_on_c, 1, 69, 0
3, 23424, Note_on_c, 1, 67, 75
3, 23424, Note_on_c, 1, 71, 75
3, 23454, Note_on_c, 1, 67, 0
3, 23456, Note_on_c, 1, 69, 70
3, 23486, Note_on_c, 1, 69, 0
3, 23488, Note_on_c, 1, 67, 65
3, 23518, Note_on_c, 1, 67, 0
3, 23518, Note_on_c, 1, 71, 0
3, 23520, Note_on_c, 1, 65, 60
3, 23550, Note_on_c, 1, 65, 0
3, 23552, Note_on_c, 1, 64, 55
3, 23582, Note_on_c, 1, 64, 0
3, 23584, Note_on_c, 1, 62, 50
3, 23614, Note_on_c, 1, 62, 0
3, 23616, Note_on_c, 1, 60, 45
3, 23648, Note_on_c, 1, 60, 0
3, 23712, Note_on_c, 1, 64, 45
3, 23712, Note_on_c, 1, 67, 45
3, 23712, Note_on_c, 1, 72, 45
3, 23744, Note_on_c, 1, 72, 0
3, 23744, Note_on_c, 1, 67, 0
3, 23744, Note_on_c, 1, 64, 0
3, 23808, Note_on_c, 1, 55, 45
3, 23840, Note_on_c, 1, 55, 0
3, 23904, Note_on_c, 1, 65, 45
3, 23904, Note_on_c, 1, 67, 45
3, 23904, Note_on_c, 1, 71, 45
3, 23936, Note_on_c, 1, 71, 0
3, 23936, Note_on_c, 1, 67, 0
3, 23936, Note_on_c, 1, 65, 0
3, 24000, Note_on_c, 1, 48, 45
3, 24032, Note_on_c, 1, 48, 0
3, 24096, Note_on_c, 1, 64, 45
3, 24096, Note_on_c, 1, 67, 45
3, 24096, Note_on_c, 1, 72, 45
3, 24128, Note_on_c, 1, 72, 0
3, 24128, Note_on_c, 1, 67, 0
3, 24128, Note_on_c, 1, 64, 0
3, 24192, Note_on_c, 1, 36, 45
3, 24222, Note_on_c, 1, 36, 0
3, 24224, Note_on_c, 1, 40, 47
3, 24254, Note_on_c, 1, 40, 0
3, 24256, Note_on_c, 1, 43, 49
3, 24286, Note_on_c, 1, 43, 0
3, 24288, Note_on_c, 1, 48, 51
3, 24318, Note_on_c, 1, 48, 0
3, 24320, Note_on_c, 1, 52, 53
3, 24350, Note_on_c, 1, 52, 0
3, 24352, Note_on_c, 1, 55, 55
3, 24382, Note_on_c, 1, 55, 0
3, 24672, Note_on_c, 1, 48, 83
3, 24704, Note_on_c, 1, 48, 0
3, 24864, Note_on_c, 1, 41, 92
3, 24896, Note_on_c, 1, 41, 0
3, 24960, Note_on_c, 1, 81, 127
3, 25120, Note_on_c, 1, 81, 0
3, 25152, Note_on_c, 1, 81, 92
3, 25182, Note_on_c, 1, 81, 0
3, 25184, Note_on_c, 1, 79, 92
3, 25214, Note_on_c, 1, 79, 0
3, 25216, Note_on_c, 1, 77, 92
3, 25246, Note_on_c, 1, 77, 0
3, 25248, Note_on_c, 1, 79, 92
3, 25278, Note_on_c, 1, 79, 0
3, 25280, Note_on_c, 1, 77, 92
3, 25310, Note_on_c, 1, 77, 0
3, 25312, Note_on_c, 1, 76, 92
3, 25342, Note_on_c, 1, 76, 0
3, 25344, Note_on_c, 1, 67, 92
3, 25344, Note_on_c, 1, 77, 92
3, 25374, Note_on_c, 1, 77, 0
3, 25376, Note_on_c, 1, 76, 92
3, 25406, Note_on_c, 1, 76, 0
3, 25408, Note_on_c, 1, 74, 92
3, 25438, Note_on_c, 1, 74, 0
3, 25440, Note_on_c, 1, 76, 92
3, 25470, Note_on_c, 1, 76, 0
3, 25472, Note_on_c, 1, 74, 92
3, 25502, Note_on_c, 1, 74, 0
3, 25504, Note_on_c, 1, 72, 92
3, 25534, Note_on_c, 1, 72, 0
3, 25536, Note_on_c, 1, 74, 92
3, 25566, Note_on_c, 1, 74, 0
3, 25568, Note_on_c, 1, 72, 92
3, 25598, Note_on_c, 1, 72, 0
3, 25600, Note_on_c, 1, 71, 92
3, 25630, Note_on_c, 1, 71, 0
3, 25632, Note_on_c, 1, 72, 92
3, 25662, Note_on_c, 1, 72, 0
3, 25664, Note_on_c, 1, 71, 92
3, 25680, Note_on_c, 1, 67, 0
3, 25694, Note_on_c, 1, 71, 0
3, 25696, Note_on_c, 1, 69, 92
3, 25726, Note_on_c, 1, 69, 0
3, 25728, Note_on_c, 1, 67, 92
3, 25728, Note_on_c, 1, 71, 92
3, 25758, Note_on_c, 1, 67, 0
3, 25760, Note_on_c, 1, 69, 85
3, 25790, Note_on_c, 1, 69, 0
3, 25792, Note_on_c, 1, 67, 77
3, 25822, Note_on_c, 1, 67, 0
3, 25822, Note_on_c, 1, 71, 0
3, 25824, Note_on_c, 1, 65, 69
3, 25854, Note_on_c, 1, 65, 0
3, 25856, Note_on_c, 1, 64, 61
3, 25886, Note_on_c, 1, 64, 0
3, 25888, Note_on_c, 1, 62, 53
3, 25918, Note_on_c, 1, 62, 0
3, 25920, Note_on_c, 1, 60, 45
3, 25952, Note_on_c, 1, 60, 0
3, 26016, Note_on_c, 1, 64, 45
3, 26016, Note_on_c, 1, 67, 45
3, 26016, Note_on_c, 1, 72, 45
3, 26048, Note_on_c, 1, 72, 0
3, 26048, Note_on_c, 1, 67, 0
3, 26048, Note_on_c, 1, 64, 0
3, 26112, Note_on_c, 1, 55, 45
3, 26144, Note_on_c, 1, 55, 0
3, 26208, Note_on_c, 1, 65, 45
3, 26208, Note_on_c, 1, 67, 45
3, 26208, Note_on_c, 1, 71, 45
3, 26240, Note_on_c, 1, 71, 0
3, 26240, Note_on_c, 1, 67, 0
3, 26240, Note_on_c, 1, 65, 0
3, 26304, Note_on_c, 1, 48, 45
3, 26336, Note_on_c, 1, 48, 0
3, 26400, Note_on_c, 1, 64, 45
3, 26400, Note_on_c, 1, 67, 45
3, 26400, Note_on_c, 1, 72, 45
3, 26432, Note_on_c, 1, 72, 0
3, 26432, Note_on_c, 1, 67, 0
3, 26432, Note_on_c, 1, 64, 0
3, 26496, Note_on_c, 1, 40, 45
3, 26528, Note_on_c, 1, 40, 0
3, 26592, Note_on_c, 1, 43, 45
3, 26592, Note_on_c, 1, 47, 45
3, 26592, Note_on_c, 1, 52, 45
3, 26624, Note_on_c, 1, 52, 0
3, 26624, Note_on_c, 1, 47, 0
3, 26624, Note_on_c, 1, 43, 0
3, 26688, Note_on_c, 1, 35, 45
3, 26720, Note_on_c, 1, 35, 0
3, 26784, Note_on_c, 1, 45, 45
3, 26784, Note_on_c, 1, 47, 45
3, 26784, Note_on_c, 1, 50, 45
3, 26816, Note_on_c, 1, 50, 0
3, 26816, Note_on_c, 1, 47, 0
3, 26816, Note_on_c, 1, 45, 0
3, 26880, Note_on_c, 1, 48, 45
3, 26912, Note_on_c, 1, 48, 0
3, 27072, Note_on_c, 1, 36, 45
3, 27102, Note_on_c, 1, 36, 0
3, 27104, Note_on_c, 1, 39, 45
3, 27134, Note_on_c, 1, 39, 0
3, 27136, Note_on_c, 1, 43, 45
3, 27166, Note_on_c, 1, 43, 0
3, 27168, Note_on_c, 1, 48, 45
3, 27198, Note_on_c, 1, 48, 0
3, 27200, Note_on_c, 1, 43, 45
3, 27230, Note_on_c, 1, 43, 0
3, 27232, Note_on_c, 1, 39, 45
3, 27262, Note_on_c, 1, 39, 0
3, 27264, Note_on_c, 1, 36, 45
3, 27296, Note_on_c, 1, 36, 0
3, 27648, Note_on_c, 1, 29, 45
3, 27678, Note_on_c, 1, 29, 0
3, 27680, Note_on_c, 1, 32, 45
3, 27710, Note_on_c, 1, 32, 0
3, 27712, Note_on_c, 1, 36, 45
3, 27742, Note_on_c, 1, 36, 0
3, 27744, Note_on_c, 1, 41, 45
3, 27774, Note_on_c, 1, 41, 0
3, 27776, Note_on_c, 1, 36, 45
3, 27806, Note_on_c, 1, 36, 0
3, 27808, Note_on_c, 1, 32, 45
3, 27838, Note_on_c, 1, 32, 0
3, 27840, Note_on_c, 1, 29, 45
3, 27872, Note_on_c, 1, 29, 0
3, 28224, Note_on_c, 1, 34, 45
3, 28254, Note_on_c, 1, 34, 0
3, 28256, Note_on_c, 1, 38, 45
3, 28286, Note_on_c, 1, 38, 0
3, 28288, Note_on_c, 1, 41, 45
3, 28318, Note_on_c, 1, 41, 0
3, 28320, Note_on_c, 1, 46, 45
3, 28350, Note_on_c, 1, 46, 0
3, 28352, Note_on_c, 1, 41, 45
3, 28382, Note_on_c, 1, 41, 0
3, 28384, Note_on_c, 1, 38, 45
3, 28414, Note_on_c, 1, 38, 0
3, 28416, Note_on_c, 1, 34, 45
3, 28448, Note_on_c, 1, 34, 0
3, 28800, Note_on_c, 1, 31, 45
3, 28830, Note_on_c, 1, 31, 0
3, 28832, Note_on_c, 1, 34, 45
3, 28862, Note_on_c, 1, 34, 0
3, 28864, Note_on_c, 1, 39, 45
3, 28894, Note_on_c, 1, 39, 0
3, 28896, Note_on_c, 1, 43, 45
3, 28926, Note_on_c, 1, 43, 0
3, 28928, Note_on_c, 1, 39, 45
3, 28958, Note_on_c, 1, 39, 0
3, 28960, Note_on_c, 1, 34, 45
3, 28990, Note_on_c, 1, 34, 0
3, 28992, Note_on_c, 1, 31, 45
3, 29024, Note_on_c, 1, 31, 0
3, 29376, Note_on_c, 1, 36, 45
3, 29406, Note_on_c, 1, 36, 0
3, 29408, Note_on_c, 1, 40, 45
3, 29438, Note_on_c, 1, 40, 0
3, 29440, Note_on_c, 1, 43, 45
3, 29470, Note_on_c, 1, 43, 0
3, 29472, Note_on_c, 1, 48, 45
3, 29502, Note_on_c, 1, 48, 0
3, 29504, Note_on_c, 1, 43, 45
3, 29534, Note_on_c, 1, 43, 0
3, 29536, Note_on_c, 1, 40, 45
3, 29566, Note_on_c, 1, 40, 0
3, 29568, Note_on_c, 1, 36, 45
3, 29600, Note_on_c, 1, 36, 0
3, 29952, Note_on_c, 1, 32, 45
3, 29982, Note_on_c, 1, 32, 0
3, 29984, Note_on_c, 1, 36, 45
3, 30014, Note_on_c, 1, 36, 0
3, 30016, Note_on_c, 1, 41, 45
3, 30046, Note_on_c, 1, 41, 0
3, 30048, Note_on_c, 1, 44, 45
3, 30078, Note_on_c, 1, 44, 0
3, 30080, Note_on_c, 1, 41, 45
3, 30110, Note_on_c, 1, 41, 0
3, 30112, Note_on_c, 1, 36, 45
3, 30142, Note_on_c, 1, 36, 0
3, 30144, Note_on_c, 1, 32, 45
3, 30176, Note_on_c, 1, 32, 0
3, 30560, Note_on_c, 1, 44, 45
3, 30590, Note_on_c, 1, 44, 0
3, 30592, Note_on_c, 1, 48, 45
3, 30622, Note_on_c, 1, 48, 0
3, 30624, Note_on_c, 1, 51, 45
3, 30654, Note_on_c, 1, 51, 0
3, 30656, Note_on_c, 1, 48, 45
3, 30686, Note_on_c, 1, 48, 0
3, 30688, Note_on_c, 1, 44, 45
3, 30709, Note_on_c, 1, 44, 0
3, 30752, Note_on_c, 1, 44, 45
3, 30782, Note_on_c, 1, 44, 0
3, 30784, Note_on_c, 1, 48, 45
3, 30814, Note_on_c, 1, 48, 0
3, 30816, Note_on_c, 1, 51, 45
3, 30846, Note_on_c, 1, 51, 0
3, 30848, Note_on_c, 1, 48, 45
3, 30878, Note_on_c, 1, 48, 0
3, 30880, Note_on_c, 1, 44, 45
3, 30901, Note_on_c, 1, 44, 0
3, 30944, Note_on_c, 1, 44, 45
3, 30974, Note_on_c, 1, 44, 0
3, 30976, Note_on_c, 1, 48, 45
3, 31006, Note_on_c, 1, 48, 0
3, 31008, Note_on_c, 1, 51, 45
3, 31038, Note_on_c, 1, 51, 0
3, 31040, Note_on_c, 1, 48, 45
3, 31070, Note_on_c, 1, 48, 0
3, 31072, Note_on_c, 1, 44, 45
3, 31093, Note_on_c, 1, 44, 0
3, 31104, Note_on_c, 1, 31, 45
3, 31134, Note_on_c, 1, 31, 0
3, 31136, Note_on_c, 1, 35, 45
3, 31166, Note_on_c, 1, 35, 0
3, 31168, Note_on_c, 1, 38, 45
3, 31198, Note_on_c, 1, 38, 0
3, 31200, Note_on_c, 1, 43, 45
3, 31230, Note_on_c, 1, 43, 0
3, 31232, Note_on_c, 1, 38, 45
3, 31262, Note_on_c, 1, 38, 0
3, 31264, Note_on_c, 1, 35, 45
3, 31294, Note_on_c, 1, 35, 0
3, 31296, Note_on_c, 1, 31, 45
3, 31328, Note_on_c, 1, 31, 0
3, 31680, Note_on_c, 1, 43, 45
3, 31710, Note_on_c, 1, 43, 0
3, 31712, Note_on_c, 1, 48, 45
3, 31742, Note_on_c, 1, 48, 0
3, 31744, Note_on_c, 1, 51, 45
3, 31774, Note_on_c, 1, 51, 0
3, 31776, Note_on_c, 1, 55, 45
3, 31806, Note_on_c, 1, 55, 0
3, 31808, Note_on_c, 1, 51, 45
3, 31838, Note_on_c, 1, 51, 0
3, 31840, Note_on_c, 1, 48, 45
3, 31870, Note_on_c, 1, 48, 0
3, 31872, Note_on_c, 1, 43, 45
3, 31904, Note_on_c, 1, 43, 0
3, 32256, Note_on_c, 1, 31, 45
3, 32286, Note_on_c, 1, 31, 0
3, 32288, Note_on_c, 1, 35, 45
3, 32318, Note_on_c, 1, 35, 0
3, 32320, Note_on_c, 1, 38, 45
3, 32350, Note_on_c, 1, 38, 0
3, 32352, Note_on_c, 1, 43, 45
3, 32382, Note_on_c, 1, 43, 0
3, 32384, Note_on_c, 1, 38, 45
3, 32414, Note_on_c, 1, 38, 0
3, 32416, Note_on_c, 1, 35, 45
3, 32446, Note_on_c, 1, 35, 0
3, 32448, Note_on_c, 1, 31, 45
3, 32480, Note_on_c, 1, 31, 0
3, 32832, Note_on_c, 1, 43, 45
3, 32862, Note_on_c, 1, 43, 0
3, 32864, Note_on_c, 1, 48, 45
3, 32894, Note_on_c, 1, 48, 0
3, 32896, Note_on_c, 1, 51, 45
3, 32926, Note_on_c, 1, 51, 0
3, 32928, Note_on_c, 1, 55, 45
3, 32958, Note_on_c, 1, 55, 0
3, 32960, Note_on_c, 1, 51, 45
3, 32990, Note_on_c, 1, 51, 0
3, 32992, Note_on_c, 1, 48, 45
3, 33022, Note_on_c, 1, 48, 0
3, 33024, Note_on_c, 1, 43, 45
3, 33056, Note_on_c, 1, 43, 0
3, 33408, Note_on_c, 1, 31, 45
3, 33438, Note_on_c, 1, 31, 0
3, 33440, Note_on_c, 1, 35, 46
3, 33470, Note_on_c, 1, 35, 0
3, 33472, Note_on_c, 1, 38, 47
3, 33502, Note_on_c, 1, 38, 0
3, 33504, Note_on_c, 1, 43, 48
3, 33534, Note_on_c, 1, 43, 0
3, 33536, Note_on_c, 1, 38, 49
3, 33566, Note_on_c, 1, 38, 0
3, 33568, Note_on_c, 1, 35, 50
3, 33598, Note_on_c, 1, 35, 0
3, 33600, Note_on_c, 1, 31, 51
3, 33630, Note_on_c, 1, 31, 0
3, 33632, Note_on_c, 1, 35, 52
3, 33662, Note_on_c, 1, 35, 0
3, 33664, Note_on_c, 1, 38, 53
3, 33694, Note_on_c, 1, 38, 0
3, 33696, Note_on_c, 1, 43, 54
3, 33726, Note_on_c, 1, 43, 0
3, 33728, Note_on_c, 1, 38, 56
3, 33758, Note_on_c, 1, 38, 0
3, 33760, Note_on_c, 1, 35, 58
3, 33790, Note_on_c, 1, 35, 0
3, 33792, Note_on_c, 1, 31, 59
3, 33822, Note_on_c, 1, 31, 0
3, 33824, Note_on_c, 1, 35, 61
3, 33854, Note_on_c, 1, 35, 0
3, 33856, Note_on_c, 1, 38, 63
3, 33886, Note_on_c, 1, 38, 0
3, 33888, Note_on_c, 1, 43, 65
3, 33918, Note_on_c, 1, 43, 0
3, 33920, Note_on_c, 1, 38, 67
3, 33950, Note_on_c, 1, 38, 0
3, 33952, Note_on_c, 1, 35, 69
3, 33982, Note_on_c, 1, 35, 0
3, 33984, Note_on_c, 1, 31, 99
3, 34014, Note_on_c, 1, 31, 0
3, 34016, Note_on_c, 1, 35, 102
3, 34046, Note_on_c, 1, 35, 0
3, 34048, Note_on_c, 1, 38, 75
3, 34078, Note_on_c, 1, 38, 0
3, 34080, Note_on_c, 1, 43, 77
3, 34110, Note_on_c, 1, 43, 0
3, 34112, Note_on_c, 1, 38, 79
3, 34142, Note_on_c, 1, 38, 0
3, 34144, Note_on_c, 1, 35, 81
3, 34174, Note_on_c, 1, 35, 0
3, 34176, Note_on_c, 1, 31, 116
3, 34206, Note_on_c, 1, 31, 0
3, 34208, Note_on_c, 1, 35, 119
3, 34238, Note_on_c, 1, 35, 0
3, 34240, Note_on_c, 1, 38, 87
3, 34270, Note_on_c, 1, 38, 0
3, 34272, Note_on_c, 1, 43, 89
3, 34302, Note_on_c, 1, 43, 0
3, 34304, Note_on_c, 1, 38, 91
3, 34334, Note_on_c, 1, 38, 0
3, 34336, Note_on_c, 1, 35, 93
3, 34366, Note_on_c, 1, 35, 0
3, 34368, Note_on_c, 1, 31, 127
3, 34398, Note_on_c, 1, 31, 0
3, 34400, Note_on_c, 1, 35, 127
3, 34430, Note_on_c, 1, 35, 0
3, 34432, Note_on_c, 1, 38, 99
3, 34462, Note_on_c, 1, 38, 0
3, 34464, Note_on_c, 1, 43, 101
3, 34494, Note_on_c, 1, 43, 0
3, 34496, Note_on_c, 1, 38, 103
3, 34526, Note_on_c, 1, 38, 0
3, 34528, Note_on_c, 1, 35, 105
3, 34558, Note_on_c, 1, 35, 0
3, 34560, Note_on_c, 1, 31, 108
3, 34560, Note_on_c, 1, 43, 108
3, 35088, Note_on_c, 1, 43, 0
3, 35088, Note_on_c, 1, 31, 0
3, 35136, Note_on_c, 1, 52, 45
3, 35296, Note_on_c, 1, 52, 0
3, 35328, Note_on_c, 1, 52, 45
3, 35358, Note_on_c, 1, 52, 0
3, 35360, Note_on_c, 1, 55, 45
3, 35390, Note_on_c, 1, 55, 0
3, 35392, Note_on_c, 1, 53, 45
3, 35422, Note_on_c, 1, 53, 0
3, 35424, Note_on_c, 1, 52, 45
3, 35454, Note_on_c, 1, 52, 0
3, 35456, Note_on_c, 1, 50, 45
3, 35486, Note_on_c, 1, 50, 0
3, 35488, Note_on_c, 1, 48, 45
3, 35518, Note_on_c, 1, 48, 0
3, 35520, Note_on_c, 1, 47, 45
3, 35550, Note_on_c, 1, 47, 0
3, 35552, Note_on_c, 1, 45, 45
3, 35582, Note_on_c, 1, 45, 0
3, 35584, Note_on_c, 1, 43, 45
3, 35614, Note_on_c, 1, 43, 0
3, 35616, Note_on_c, 1, 41, 45
3, 35646, Note_on_c, 1, 41, 0
3, 35648, Note_on_c, 1, 40, 45
3, 35678, Note_on_c, 1, 40, 0
3, 35680, Note_on_c, 1, 38, 45
3, 35710, Note_on_c, 1, 38, 0
3, 35712, Note_on_c, 1, 36, 45
3, 35742, Note_on_c, 1, 36, 0
3, 35744, Note_on_c, 1, 40, 47
3, 35774, Note_on_c, 1, 40, 0
3, 35776, Note_on_c, 1, 43, 49
3, 35806, Note_on_c, 1, 43, 0
3, 35808, Note_on_c, 1, 48, 51
3, 35838, Note_on_c, 1, 48, 0
3, 35840, Note_on_c, 1, 52, 53
3, 35870, Note_on_c, 1, 52, 0
3, 35872, Note_on_c, 1, 55, 55
3, 35902, Note_on_c, 1, 55, 0
3, 35904, Note_on_c, 1, 60, 57
3, 35934, Note_on_c, 1, 60, 0
3, 35936, Note_on_c, 1, 64, 59
3, 35966, Note_on_c, 1, 64, 0
3, 35968, Note_on_c, 1, 67, 62
3, 35998, Note_on_c, 1, 67, 0
3, 36192, Note_on_c, 1, 48, 83
3, 36224, Note_on_c, 1, 48, 0
3, 36384, Note_on_c, 1, 41, 92
3, 36416, Note_on_c, 1, 41, 0
3, 36480, Note_on_c, 1, 81, 127
3, 36640, Note_on_c, 1, 81, 0
3, 36672, Note_on_c, 1, 81, 92
3, 36702, Note_on_c, 1, 81, 0
3, 36704, Note_on_c, 1, 79, 92
3, 36734, Note_on_c, 1, 79, 0
3, 36736, Note_on_c, 1, 77, 92
3, 36766, Note_on_c, 1, 77, 0
3, 36768, Note_on_c, 1, 79, 92
3, 36798, Note_on_c, 1, 79, 0
3, 36800, Note_on_c, 1, 77, 92
3, 36830, Note_on_c, 1, 77, 0
3, 36832, Note_on_c, 1, 76, 92
3, 36862, Note_on_c, 1, 76, 0
3, 36864, Note_on_c, 1, 67, 92
3, 36864, Note_on_c, 1, 77, 92
3, 36894, Note_on_c, 1, 77, 0
3, 36896, Note_on_c, 1, 76, 92
3, 36926, Note_on_c, 1, 76, 0
3, 36928, Note_on_c, 1, 74, 92
3, 36958, Note_on_c, 1, 74, 0
3, 36960, Note_on_c, 1, 76, 92
3, 36990, Note_on_c, 1, 76, 0
3, 36992, Note_on_c, 1, 74, 92
3, 37022, Note_on_c, 1, 74, 0
3, 37024, Note_on_c, 1, 72, 92
3, 37054, Note_on_c, 1, 72, 0
3, 37056, Note_on_c, 1, 74, 92
3, 37086, Note_on_c, 1, 74, 0
3, 37088, Note_on_c, 1, 72, 92
3, 37118, Note_on_c, 1, 72, 0
3, 37120, Note_on_c, 1, 71, 92
3, 37150, Note_on_c, 1, 71, 0
3, 37152, Note_on_c, 1, 72, 92
3, 37182, Note_on_c, 1, 72, 0
3, 37184, Note_on_c, 1, 71, 92
3, 37200, Note_on_c, 1, 67, 0
3, 37214, Note_on_c, 1, 71, 0
3, 37216, Note_on_c, 1, 69, 92
3, 37246, Note_on_c, 1, 69, 0
3, 37248, Note_on_c, 1, 67, 92
3, 37248, Note_on_c, 1, 71, 92
3, 37278, Note_on_c, 1, 67, 0
3, 37280, Note_on_c, 1, 69, 85
3, 37310, Note_on_c, 1, 69, 0
3, 37312, Note_on_c, 1, 67, 77
3, 37342, Note_on_c, 1, 67, 0
3, 37342, Note_on_c, 1, 71, 0
3, 37344, Note_on_c, 1, 65, 69
3, 37374, Note_on_c, 1, 65, 0
3, 37376, Note_on_c, 1, 64, 61
3, 37406, Note_on_c, 1, 64, 0
3, 37408, Note_on_c, 1, 62, 53
3, 37438, Note_on_c, 1, 62, 0
3, 37440, Note_on_c, 1, 60, 45
3, 37472, Note_on_c, 1, 60, 0
3, 37536, Note_on_c, 1, 64, 45
3, 37536, Note_on_c, 1, 67, 45
3, 37536, Note_on_c, 1, 72, 45
3, 37568, Note_on_c, 1, 72, 0
3, 37568, Note_on_c, 1, 67, 0
3, 37568, Note_on_c, 1, 64, 0
3, 37632, Note_on_c, 1, 55, 45
3, 37664, Note_on_c, 1, 55, 0
3, 37728, Note_on_c, 1, 65, 45
3, 37728, Note_on_c, 1, 67, 45
3, 37728, Note_on_c, 1, 71, 45
3, 37760, Note_on_c, 1, 71, 0
3, 37760, Note_on_c, 1, 67, 0
3, 37760, Note_on_c, 1, 65, 0
3, 37824, Note_on_c, 1, 48, 45
3, 37856, Note_on_c, 1, 48, 0
3, 37920, Note_on_c, 1, 64, 45
3, 37920, Note_on_c, 1, 67, 45
3, 37920, Note_on_c, 1, 72, 45
3, 37952, Note_on_c, 1, 72, 0
3, 37952, Note_on_c, 1, 67, 0
3, 37952, Note_on_c, 1, 64, 0
3, 38016, Note_on_c, 1, 36, 45
3, 38046, Note_on_c, 1, 36, 0
3, 38048, Note_on_c, 1, 40, 45
3, 38078, Note_on_c, 1, 40, 0
3, 38080, Note_on_c, 1, 43, 45
3, 38110, Note_on_c, 1, 43, 0
3, 38112, Note_on_c, 1, 48, 45
3, 38142, Note_on_c, 1, 48, 0
3, 38144, Note_on_c, 1, 52, 45
3, 38174, Note_on_c, 1, 52, 0
3, 38176, Note_on_c, 1, 55, 45
3, 38206, Note_on_c, 1, 55, 0
3, 38496, Note_on_c, 1, 48, 45
3, 38528, Note_on_c, 1, 48, 0
3, 38688, Note_on_c, 1, 41, 92
3, 38720, Note_on_c, 1, 41, 0
3, 38784, Note_on_c, 1, 81, 127
3, 38944, Note_on_c, 1, 81, 0
3, 38976, Note_on_c, 1, 81, 92
3, 39006, Note_on_c, 1, 81, 0
3, 39008, Note_on_c, 1, 79, 92
3, 39038, Note_on_c, 1, 79, 0
3, 39040, Note_on_c, 1, 77, 92
3, 39070, Note_on_c, 1, 77, 0
3, 39072, Note_on_c, 1, 79, 92
3, 39102, Note_on_c, 1, 79, 0
3, 39104, Note_on_c, 1, 77, 92
3, 39134, Note_on_c, 1, 77, 0
3, 39136, Note_on_c, 1, 76, 92
3, 39166, Note_on_c, 1, 76, 0
3, 39168, Note_on_c, 1, 67, 92
3, 39168, Note_on_c, 1, 77, 92
3, 39198, Note_on_c, 1, 77, 0
3, 39200, Note_on_c, 1, 76, 92
3, 39230, Note_on_c, 1, 76, 0
3, 39232, Note_on_c, 1, 74, 92
3, 39262, Note_on_c, 1, 74, 0
3, 39264, Note_on_c, 1, 76, 92
3, 39294, Note_on_c, 1, 76, 0
3, 39296, Note_on_c, 1, 74, 92
3, 39326, Note_on_c, 1, 74, 0
3, 39328, Note_on_c, 1, 72, 92
3, 39358, Note_on_c, 1, 72, 0
3, 39360, Note_on_c, 1, 74, 92
3, 39390, Note_on_c, 1, 74, 0
3, 39392, Note_on_c, 1, 72, 92
3, 39422, Note_on_c, 1, 72, 0
3, 39424, Note_on_c, 1, 71, 92
3, 39454, Note_on_c, 1, 71, 0
3, 39456, Note_on_c, 1, 72, 92
3, 39486, Note_on_c, 1, 72, 0
3, 39488, Note_on_c, 1, 71, 92
3, 39504, Note_on_c, 1, 67, 0
3, 39518, Note_on_c, 1, 71, 0
3, 39520, Note_on_c, 1, 69, 92
3, 39550, Note_on_c, 1, 69, 0
3, 39552, Note_on_c, 1, 67, 92
3, 39552, Note_on_c, 1, 71, 92
3, 39582, Note_on_c, 1, 67, 0
3, 39584, Note_on_c, 1, 69, 85
3, 39614, Note_on_c, 1, 69, 0
3, 39616, Note_on_c, 1, 67, 77
3, 39646, Note_on_c, 1, 67, 0
3, 39646, Note_on_c, 1, 71, 0
3, 39648, Note_on_c, 1, 65, 69
3, 39678, Note_on_c, 1, 65, 0
3, 39680, Note_on_c, 1, 64, 61
3, 39710, Note_on_c, 1, 64, 0
3, 39712, Note_on_c, 1, 62, 53
3, 39742, Note_on_c, 1, 62, 0
3, 39744, Note_on_c, 1, 60, 45
3, 39776, Note_on_c, 1, 60, 0
3, 39840, Note_on_c, 1, 64, 45
3, 39840, Note_on_c, 1, 67, 45
3, 39840, Note_on_c, 1, 72, 45
3, 39872, Note_on_c, 1, 72, 0
3, 39872, Note_on_c, 1, 67, 0
3, 39872, Note_on_c, 1, 64, 0
3, 39936, Note_on_c, 1, 55, 45
3, 39968, Note_on_c, 1, 55, 0
3, 40032, Note_on_c, 1, 65, 45
3, 40032, Note_on_c, 1, 67, 45
3, 40032, Note_on_c, 1, 71, 45
3, 40064, Note_on_c, 1, 71, 0
3, 40064, Note_on_c, 1, 67, 0
3, 40064, Note_on_c, 1, 65, 0
3, 40128, Note_on_c, 1, 48, 45
3, 40160, Note_on_c, 1, 48, 0
3, 40224, Note_on_c, 1, 64, 45
3, 40224, Note_on_c, 1, 67, 45
3, 40224, Note_on_c, 1, 72, 45
3, 40256, Note_on_c, 1, 72, 0
3, 40256, Note_on_c, 1, 67, 0
3, 40256, Note_on_c, 1, 64, 0
3, 40320, Note_on_c, 1, 55, 45
3, 40320, Note_on_c, 1, 65, 45
3, 40350, Note_on_c, 1, 65, 0
3, 40352, Note_on_c, 1, 64, 45
3, 40382, Note_on_c, 1, 64, 0
3, 40384, Note_on_c, 1, 62, 45
3, 40414, Note_on_c, 1, 62, 0
3, 40416, Note_on_c, 1, 65, 45
3, 40446, Note_on_c, 1, 65, 0
3, 40448, Note_on_c, 1, 64, 45
3, 40478, Note_on_c, 1, 64, 0
3, 40480, Note_on_c, 1, 62, 45
3, 40510, Note_on_c, 1, 62, 0
3, 40512, Note_on_c, 1, 65, 45
3, 40542, Note_on_c, 1, 65, 0
3, 40544, Note_on_c, 1, 64, 45
3, 40574, Note_on_c, 1, 64, 0
3, 40576, Note_on_c, 1, 62, 45
3, 40606, Note_on_c, 1, 62, 0
3, 40608, Note_on_c, 1, 65, 45
3, 40638, Note_on_c, 1, 65, 0
3, 40640, Note_on_c, 1, 64, 45
3, 40670, Note_on_c, 1, 64, 0
3, 40672, Note_on_c, 1, 62, 45
3, 40702, Note_on_c, 1, 62, 0
3, 40704, Note_on_c, 1, 64, 45
3, 40734, Note_on_c, 1, 64, 0
3, 40736, Note_on_c, 1, 62, 45
3, 40766, Note_on_c, 1, 62, 0
3, 40768, Note_on_c, 1, 60, 45
3, 40798, Note_on_c, 1, 60, 0
3, 40800, Note_on_c, 1, 64, 45
3, 40830, Note_on_c, 1, 64, 0
3, 40832, Note_on_c, 1, 62, 45
3, 40848, Note_on_c, 1, 55, 0
3, 40862, Note_on_c, 1, 62, 0
3, 40864, Note_on_c, 1, 60, 45
3, 40894, Note_on_c, 1, 60, 0
3, 40896, Note_on_c, 1, 55, 45
3, 40896, Note_on_c, 1, 59, 45
3, 40926, Note_on_c, 1, 59, 0
3, 40928, Note_on_c, 1, 60, 45
3, 40958, Note_on_c, 1, 60, 0
3, 40960, Note_on_c, 1, 62, 45
3, 40990, Note_on_c, 1, 62, 0
3, 40992, Note_on_c, 1, 59, 45
3, 41022, Note_on_c, 1, 59, 0
3, 41024, Note_on_c, 1, 60, 45
3, 41054, Note_on_c, 1, 60, 0
3, 41056, Note_on_c, 1, 62, 45
3, 41086, Note_on_c, 1, 62, 0
3, 41088, Note_on_c, 1, 59, 45
3, 41118, Note_on_c, 1, 59, 0
3, 41120, Note_on_c, 1, 60, 45
3, 41150, Note_on_c, 1, 60, 0
3, 41152, Note_on_c, 1, 62, 45
3, 41182, Note_on_c, 1, 62, 0
3, 41184, Note_on_c, 1, 59, 45
3, 41214, Note_on_c, 1, 59, 0
3, 41216, Note_on_c, 1, 60, 45
3, 41246, Note_on_c, 1, 60, 0
3, 41248, Note_on_c, 1, 62, 45
3, 41278, Note_on_c, 1, 62, 0
3, 41280, Note_on_c, 1, 60, 45
3, 41310, Note_on_c, 1, 60, 0
3, 41312, Note_on_c, 1, 62, 45
3, 41342, Note_on_c, 1, 62, 0
3, 41344, Note_on_c, 1, 64, 45
3, 41374, Note_on_c, 1, 64, 0
3, 41376, Note_on_c, 1, 60, 45
3, 41406, Note_on_c, 1, 60, 0
3, 41408, Note_on_c, 1, 62, 45
3, 41424, Note_on_c, 1, 55, 0
3, 41438, Note_on_c, 1, 62, 0
3, 41440, Note_on_c, 1, 64, 45
3, 41470, Note_on_c, 1, 64, 0
3, 41472, Note_on_c, 1, 55, 45
3, 41472, Note_on_c, 1, 65, 45
3, 41502, Note_on_c, 1, 65, 0
3, 41504, Note_on_c, 1, 64, 45
3, 41534, Note_on_c, 1, 64, 0
3, 41536, Note_on_c, 1, 62, 45
3, 41566, Note_on_c, 1, 62, 0
3, 41568, Note_on_c, 1, 65, 45
3, 41598, Note_on_c, 1, 65, 0
3, 41600, Note_on_c, 1, 64, 45
3, 41630, Note_on_c, 1, 64, 0
3, 41632, Note_on_c, 1, 62, 45
3, 41662, Note_on_c, 1, 62, 0
3, 41664, Note_on_c, 1, 65, 45
3, 41694, Note_on_c, 1, 65, 0
3, 41696, Note_on_c, 1, 64, 45
3, 41726, Note_on_c, 1, 64, 0
3, 41728, Note_on_c, 1, 62, 45
3, 41758, Note_on_c, 1, 62, 0
3, 41760, Note_on_c, 1, 65, 45
3, 41790, Note_on_c, 1, 65, 0
3, 41792, Note_on_c, 1, 64, 45
3, 41822, Note_on_c, 1, 64, 0
3, 41824, Note_on_c, 1, 62, 45
3, 41854, Note_on_c, 1, 62, 0
3, 41856, Note_on_c, 1, 64, 45
3, 41886, Note_on_c, 1, 64, 0
3, 41888, Note_on_c, 1, 62, 45
3, 41918, Note_on_c, 1, 62, 0
3, 41920, Note_on_c, 1, 60, 45
3, 41950, Note_on_c, 1, 60, 0
3, 41952, Note_on_c, 1, 64, 45
3, 41982, Note_on_c, 1, 64, 0
3, 41984, Note_on_c, 1, 62, 45
3, 42000, Note_on_c, 1, 55, 0
3, 42014, Note_on_c, 1, 62, 0
3, 42016, Note_on_c, 1, 60, 45
3, 42046, Note_on_c, 1, 60, 0
3, 42048, Note_on_c, 1, 55, 45
3, 42048, Note_on_c, 1, 62, 63
3, 42069, Note_on_c, 1, 62, 0
3, 42080, Note_on_c, 1, 60, 45
3, 42110, Note_on_c, 1, 60, 0
3, 42112, Note_on_c, 1, 59, 45
3, 42142, Note_on_c, 1, 59, 0
3, 42142, Note_on_c, 1, 55, 0
3, 42144, Note_on_c, 1, 50, 45
3, 42144, Note_on_c, 1, 60, 63
3, 42165, Note_on_c, 1, 60, 0
3, 42176, Note_on_c, 1, 59, 45
3, 42206, Note_on_c, 1, 59, 0
3, 42208, Note_on_c, 1, 57, 45
3, 42238, Note_on_c, 1, 57, 0
3, 42238, Note_on_c, 1, 50, 0
3, 42240, Note_on_c, 1, 55, 45
3, 42240, Note_on_c, 1, 62, 45
3, 42261, Note_on_c, 1, 62, 0
3, 42272, Note_on_c, 1, 60, 45
3, 42302, Note_on_c, 1, 60, 0
3, 42304, Note_on_c, 1, 59, 45
3, 42334, Note_on_c, 1, 59, 0
3, 42334, Note_on_c, 1, 55, 0
3, 42336, Note_on_c, 1, 50, 45
3, 42336, Note_on_c, 1, 60, 63
3, 42357, Note_on_c, 1, 60, 0
3, 42368, Note_on_c, 1, 59, 45
3, 42398, Note_on_c, 1, 59, 0
3, 42400, Note_on_c, 1, 57, 45
3, 42430, Note_on_c, 1, 57, 0
3, 42430, Note_on_c, 1, 50, 0
3, 42432, Note_on_c, 1, 55, 45
3, 42432, Note_on_c, 1, 62, 63
3, 42453, Note_on_c, 1, 62, 0
3, 42464, Note_on_c, 1, 60, 45
3, 42494, Note_on_c, 1, 60, 0
3, 42496, Note_on_c, 1, 59, 45
3, 42526, Note_on_c, 1, 59, 0
3, 42526, Note_on_c, 1, 55, 0
3, 42528, Note_on_c, 1, 50, 45
3, 42528, Note_on_c, 1, 60, 63
3, 42549, Note_on_c, 1, 60, 0
3, 42560, Note_on_c, 1, 59, 45
3, 42590, Note_on_c, 1, 59, 0
3, 42592, Note_on_c, 1, 57, 45
3, 42622, Note_on_c, 1, 57, 0
3, 42622, Note_on_c, 1, 50, 0
3, 42624, Note_on_c, 1, 55, 45
3, 42624, Note_on_c, 1, 59, 45
3, 42718, Note_on_c, 1, 59, 0
3, 42718, Note_on_c, 1, 55, 0
3, 43200, Note_on_c, 1, 55, 45
3, 43200, Note_on_c, 1, 62, 63
3, 43221, Note_on_c, 1, 62, 0
3, 43232, Note_on_c, 1, 60, 45
3, 43262, Note_on_c, 1, 60, 0
3, 43264, Note_on_c, 1, 59, 45
3, 43294, Note_on_c, 1, 59, 0
3, 43294, Note_on_c, 1, 55, 0
3, 43296, Note_on_c, 1, 50, 45
3, 43296, Note_on_c, 1, 60, 63
3, 43317, Note_on_c, 1, 60, 0
3, 43328, Note_on_c, 1, 59, 45
3, 43358, Note_on_c, 1, 59, 0
3, 43360, Note_on_c, 1, 57, 45
3, 43390, Note_on_c, 1, 57, 0
3, 43390, Note_on_c, 1, 50, 0
3, 43392, Note_on_c, 1, 55, 45
3, 43392, Note_on_c, 1, 62, 63
3, 43413, Note_on_c, 1, 62, 0
3, 43424, Note_on_c, 1, 60, 45
3, 43454, Note_on_c, 1, 60, 0
3, 43456, Note_on_c, 1, 59, 45
3, 43486, Note_on_c, 1, 59, 0
3, 43486, Note_on_c, 1, 55, 0
3, 43488, Note_on_c, 1, 50, 45
3, 43488, Note_on_c, 1, 60, 63
3, 43509, Note_on_c, 1, 60, 0
3, 43520, Note_on_c, 1, 59, 45
3, 43550, Note_on_c, 1, 59, 0
3, 43552, Note_on_c, 1, 57, 45
3, 43582, Note_on_c, 1, 57, 0
3, 43582, Note_on_c, 1, 50, 0
3, 43584, Note_on_c, 1, 55, 45
3, 43584, Note_on_c, 1, 62, 63
3, 43605, Note_on_c, 1, 62, 0
3, 43616, Note_on_c, 1, 60, 45
3, 43646, Note_on_c, 1, 60, 0
3, 43648, Note_on_c, 1, 59, 45
3, 43678, Note_on_c, 1, 59, 0
3, 43678, Note_on_c, 1, 55, 0
3, 43680, Note_on_c, 1, 50, 45
3, 43680, Note_on_c, 1, 60, 63
3, 43701, Note_on_c, 1, 60, 0
3, 43712, Note_on_c, 1, 59, 45
3, 43742, Note_on_c, 1, 59, 0
3, 43744, Note_on_c, 1, 57, 45
3, 43774, Note_on_c, 1, 57, 0
3, 43774, Note_on_c, 1, 50, 0
3, 43776, Note_on_c, 1, 55, 45
3, 43776, Note_on_c, 1, 59, 45
3, 43870, Note_on_c, 1, 59, 0
3, 43870, Note_on_c, 1, 55, 0
3, 44352, Note_on_c, 1, 36, 45
3, 44382, Note_on_c, 1, 36, 0
3, 44384, Note_on_c, 1, 40, 45
3, 44414, Note_on_c, 1, 40, 0
3, 44416, Note_on_c, 1, 43, 45
3, 44446, Note_on_c, 1, 43, 0
3, 44448, Note_on_c, 1, 48, 45
3, 44478, Note_on_c, 1, 48, 0
3, 44480, Note_on_c, 1, 52, 45
3, 44510, Note_on_c, 1, 52, 0
3, 44512, Note_on_c, 1, 55, 45
3, 44542, Note_on_c, 1, 55, 0
3, 44832, Note_on_c, 1, 48, 60
3, 44864, Note_on_c, 1, 48, 0
3, 45024, Note_on_c, 1, 41, 75
3, 45056, Note_on_c, 1, 41, 0
3, 45120, Note_on_c, 1, 81, 105
3, 45280, Note_on_c, 1, 81, 0
3, 45312, Note_on_c, 1, 81, 75
3, 45342, Note_on_c, 1, 81, 0
3, 45344, Note_on_c, 1, 79, 75
3, 45374, Note_on_c, 1, 79, 0
3, 45376, Note_on_c, 1, 77, 75
3, 45406, Note_on_c, 1, 77, 0
3, 45408, Note_on_c, 1, 79, 75
3, 45438, Note_on_c, 1, 79, 0
3, 45440, Note_on_c, 1, 77, 75
3, 45470, Note_on_c, 1, 77, 0
3, 45472, Note_on_c, 1, 76, 75
3, 45502, Note_on_c, 1, 76, 0
3, 45504, Note_on_c, 1, 67, 75
3, 45504, Note_on_c, 1, 77, 75
3, 45534, Note_on_c, 1, 77, 0
3, 45536, Note_on_c, 1, 76, 75
3, 45566, Note_on_c, 1, 76, 0
3, 45568, Note_on_c, 1, 74, 75
3, 45598, Note_on_c, 1, 74, 0
3, 45600, Note_on_c, 1, 76, 75
3, 45630, Note_on_c, 1, 76, 0
3, 45632, Note_on_c, 1, 74, 75
3, 45662, Note_on_c, 1, 74, 0
3, 45664, Note_on_c, 1, 72, 75
3, 45694, Note_on_c, 1, 72, 0
3, 45696, Note_on_c, 1, 74, 75
3, 45726, Note_on_c, 1, 74, 0
3, 45728, Note_on_c, 1, 72, 75
3, 45758, Note_on_c, 1, 72, 0
3, 45760, Note_on_c, 1, 71, 75
3, 45790, Note_on_c, 1, 71, 0
3, 45792, Note_on_c, 1, 72, 75
3, 45822, Note_on_c, 1, 72, 0
3, 45824, Note_on_c, 1, 71, 75
3, 45840, Note_on_c, 1, 67, 0
3, 45854, Note_on_c, 1, 71, 0
3, 45856, Note_on_c, 1, 69, 75
3, 45886, Note_on_c, 1, 69, 0
3, 45888, Note_on_c, 1, 67, 75
3, 45888, Note_on_c, 1, 71, 75
3, 45918, Note_on_c, 1, 67, 0
3, 45920, Note_on_c, 1, 69, 70
3, 45950, Note_on_c, 1, 69, 0
3, 45952, Note_on_c, 1, 67, 65
3, 45982, Note_on_c, 1, 67, 0
3, 45982, Note_on_c, 1, 71, 0
3, 45984, Note_on_c, 1, 65, 60
3, 46014, Note_on_c, 1, 65, 0
3, 46016, Note_on_c, 1, 64, 55
3, 46046, Note_on_c, 1, 64, 0
3, 46048, Note_on_c, 1, 62, 50
3, 46078, Note_on_c, 1, 62, 0
3, 46080, Note_on_c, 1, 60, 45
3, 46112, Note_on_c, 1, 60, 0
3, 46176, Note_on_c, 1, 64, 45
3, 46176, Note_on_c, 1, 67, 45
3, 46176, Note_on_c, 1, 72, 45
3, 46208, Note_on_c, 1, 72, 0
3, 46208, Note_on_c, 1, 67, 0
3, 46208, Note_on_c, 1, 64, 0
3, 46272, Note_on_c, 1, 55, 45
3, 46304, Note_on_c, 1, 55, 0
3, 46368, Note_on_c, 1, 65, 45
3, 46368, Note_on_c, 1, 67, 45
3, 46368, Note_on_c, 1, 71, 45
3, 46400, Note_on_c, 1, 71, 0
3, 46400, Note_on_c, 1, 67, 0
3, 46400, Note_on_c, 1, 65, 0
3, 46464, Note_on_c, 1, 48, 45
3, 46496, Note_on_c, 1, 48, 0
3, 46560, Note_on_c, 1, 64, 45
3, 46560, Note_on_c, 1, 67, 45
3, 46560, Note_on_c, 1, 72, 45
3, 46592, Note_on_c, 1, 72, 0
3, 46592, Note_on_c, 1, 67, 0
3, 46592, Note_on_c, 1, 64, 0
3, 46656, Note_on_c, 1, 36, 45
3, 46686, Note_on_c, 1, 36, 0
3, 46688, Note_on_c, 1, 40, 47
3, 46718, Note_on_c, 1, 40, 0
3, 46720, Note_on_c, 1, 43, 49
3, 46750, Note_on_c, 1, 43, 0
3, 46752, Note_on_c, 1, 48, 51
3, 46782, Note_on_c, 1, 48, 0
3, 46784, Note_on_c, 1, 52, 53
3, 46814, Note_on_c, 1, 52, 0
3, 46816, Note_on_c, 1, 55, 55
3, 46846, Note_on_c, 1, 55, 0
3, 47136, Note_on_c, 1, 48, 83
3, 47168, Note_on_c, 1, 48, 0
3, 47328, Note_on_c, 1, 41, 92
3, 47360, Note_on_c, 1, 41, 0
3, 47712, Note_on_c, 1, 41, 127
3, 47744, Note_on_c, 1, 41, 0
3, 47904, Note_on_c, 1, 41, 92
3, 47936, Note_on_c, 1, 41, 0
3, 48288, Note_on_c, 1, 41, 127
3, 48320, Note_on_c, 1, 41, 0
3, 48480, Note_on_c, 1, 41, 45
3, 48512, Note_on_c, 1, 41, 0
3, 48672, Note_on_c, 1, 41, 45
3, 48704, Note_on_c, 1, 41, 0
3, 48864, Note_on_c, 1, 41, 45
3, 48896, Note_on_c, 1, 41, 0
3, 49056, Note_on_c, 1, 41, 45
3, 49088, Note_on_c, 1, 41, 0
3, 49248, Note_on_c, 1, 41, 45
3, 49280, Note_on_c, 1, 41, 0
3, 49440, Note_on_c, 1, 41, 45
3, 49472, Note_on_c, 1, 41, 0
3, 49584, Note_on_c, 1, 41, 47
3, 49616, Note_on_c, 1, 41, 0
3, 49680, Note_on_c, 1, 41, 51
3, 49712, Note_on_c, 1, 41, 0
3, 49776, Note_on_c, 1, 41, 55
3, 49808, Note_on_c, 1, 41, 0
3, 49872, Note_on_c, 1, 41, 59
3, 49904, Note_on_c, 1, 41, 0
3, 49968, Note_on_c, 1, 41, 63
3, 50000, Note_on_c, 1, 41, 0
3, 50064, Note_on_c, 1, 41, 69
3, 50096, Note_on_c, 1, 41, 0
3, 50160, Note_on_c, 1, 41, 75
3, 50192, Note_on_c, 1, 41, 0
3, 50256, Note_on_c, 1, 41, 81
3, 50288, Note_on_c, 1, 41, 0
3, 50352, Note_on_c, 1, 41, 87
3, 50384, Note_on_c, 1, 41, 0
3, 50448, Note_on_c, 1, 41, 93
3, 50480, Note_on_c, 1, 41, 0
3, 50544, Note_on_c, 1, 41, 99
3, 50576, Note_on_c, 1, 41, 0
3, 50640, Note_on_c, 1, 41, 105
3, 50686, Note_on_c, 1, 41, 0
3, 50784, Note_on_c, 1, 29, 108
3, 50784, Note_on_c, 1, 41, 108
3, 50878, Note_on_c, 1, 41, 0
3, 50878, Note_on_c, 1, 29, 0
3, 50976, Note_on_c, 1, 81, 108
3, 51070, Note_on_c, 1, 81, 0
3, 51072, Note_on_c, 1, 81, 108
3, 51102, Note_on_c, 1, 81, 0
3, 51104, Note_on_c, 1, 79, 108
3, 51134, Note_on_c, 1, 79, 0
3, 51136, Note_on_c, 1, 77, 108
3, 51166, Note_on_c, 1, 77, 0
3, 51168, Note_on_c, 1, 79, 108
3, 51198, Note_on_c, 1, 79, 0
3, 51200, Note_on_c, 1, 77, 108
3, 51230, Note_on_c, 1, 77, 0
3, 51232, Note_on_c, 1, 76, 108
3, 51262, Note_on_c, 1, 76, 0
3, 51264, Note_on_c, 1, 67, 108
3, 51264, Note_on_c, 1, 74, 108
3, 51294, Note_on_c, 1, 74, 0
3, 51296, Note_on_c, 1, 76, 108
3, 51326, Note_on_c, 1, 76, 0
3, 51328, Note_on_c, 1, 77, 108
3, 51358, Note_on_c, 1, 77, 0
3, 51360, Note_on_c, 1, 76, 108
3, 51390, Note_on_c, 1, 76, 0
3, 51392, Note_on_c, 1, 74, 108
3, 51422, Note_on_c, 1, 74, 0
3, 51424, Note_on_c, 1, 67, 0
3, 51424, Note_on_c, 1, 72, 108
3, 51454, Note_on_c, 1, 72, 0
3, 51456, Note_on_c, 1, 67, 108
3, 51456, Note_on_c, 1, 71, 108
3, 51486, Note_on_c, 1, 71, 0
3, 51486, Note_on_c, 1, 67, 0
3, 51488, Note_on_c, 1, 72, 108
3, 51518, Note_on_c, 1, 72, 0
3, 51520, Note_on_c, 1, 71, 108
3, 51550, Note_on_c, 1, 71, 0
3, 51552, Note_on_c, 1, 69, 108
3, 51582, Note_on_c, 1, 69, 0
3, 51584, Note_on_c, 1, 71, 108
3, 51614, Note_on_c, 1, 71, 0
3, 51616, Note_on_c, 1, 69, 108
3, 51646, Note_on_c, 1, 69, 0
3, 51648, Note_on_c, 1, 67, 108
3, 51678, Note_on_c, 1, 67, 0
3, 51680, Note_on_c, 1, 69, 100
3, 51710, Note_on_c, 1, 69, 0
3, 51712, Note_on_c, 1, 67, 92
3, 51742, Note_on_c, 1, 67, 0
3, 51744, Note_on_c, 1, 55, 84
3, 51744, Note_on_c, 1, 65, 84
3, 51774, Note_on_c, 1, 65, 0
3, 51776, Note_on_c, 1, 67, 76
3, 51806, Note_on_c, 1, 67, 0
3, 51808, Note_on_c, 1, 65, 68
3, 51838, Note_on_c, 1, 65, 0
3, 51838, Note_on_c, 1, 55, 0
3, 51840, Note_on_c, 1, 60, 60
3, 51840, Note_on_c, 1, 64, 84
3, 51870, Note_on_c, 1, 64, 0
3, 51872, Note_on_c, 1, 65, 60
3, 51902, Note_on_c, 1, 65, 0
3, 51904, Note_on_c, 1, 67, 60
3, 51934, Note_on_c, 1, 67, 0
3, 51934, Note_on_c, 1, 60, 0
3, 51936, Note_on_c, 1, 60, 60
3, 51936, Note_on_c, 1, 68, 84
3, 51966, Note_on_c, 1, 68, 0
3, 51968, Note_on_c, 1, 67, 60
3, 51998, Note_on_c, 1, 67, 0
3, 52000, Note_on_c, 1, 65, 60
3, 52030, Note_on_c, 1, 65, 0
3, 52030, Note_on_c, 1, 60, 0
3, 52032, Note_on_c, 1, 60, 60
3, 52032, Note_on_c, 1, 67, 84
3, 52062, Note_on_c, 1, 67, 0
3, 52064, Note_on_c, 1, 65, 60
3, 52094, Note_on_c, 1, 65, 0
3, 52096, Note_on_c, 1, 64, 60
3, 52126, Note_on_c, 1, 64, 0
3, 52126, Note_on_c, 1, 60, 0
3, 52128, Note_on_c, 1, 60, 60
3, 52128, Note_on_c, 1, 68, 84
3, 52158, Note_on_c, 1, 68, 0
3, 52160, Note_on_c, 1, 67, 60
3, 52190, Note_on_c, 1, 67, 0
3, 52192, Note_on_c, 1, 65, 60
3, 52222, Note_on_c, 1, 65, 0
3, 52222, Note_on_c, 1, 60, 0
3, 52224, Note_on_c, 1, 60, 60
3, 52224, Note_on_c, 1, 67, 84
3, 52254, Note_on_c, 1, 67, 0
3, 52256, Note_on_c, 1, 65, 60
3, 52286, Note_on_c, 1, 65, 0
3, 52288, Note_on_c, 1, 64, 60
3, 52318, Note_on_c, 1, 64, 0
3, 52318, Note_on_c, 1, 60, 0
3, 52320, Note_on_c, 1, 60, 60
3, 52320, Note_on_c, 1, 68, 84
3, 52350, Note_on_c, 1, 68, 0
3, 52352, Note_on_c, 1, 67, 60
3, 52382, Note_on_c, 1, 67, 0
3, 52384, Note_on_c, 1, 65, 60
3, 52414, Note_on_c, 1, 65, 0
3, 52414, Note_on_c, 1, 60, 0
3, 52416, Note_on_c, 1, 60, 60
3, 52416, Note_on_c, 1, 67, 60
3, 52510, Note_on_c, 1, 67, 0
3, 52510, Note_on_c, 1, 60, 0
3, 52992, Note_on_c, 1, 48, 60
3, 52992, Note_on_c, 1, 52, 84
3, 53013, Note_on_c, 1, 52, 0
3, 53024, Note_on_c, 1, 53, 60
3, 53054, Note_on_c, 1, 53, 0
3, 53056, Note_on_c, 1, 55, 60
3, 53086, Note_on_c, 1, 55, 0
3, 53086, Note_on_c, 1, 48, 0
3, 53088, Note_on_c, 1, 48, 60
3, 53088, Note_on_c, 1, 56, 84
3, 53109, Note_on_c, 1, 56, 0
3, 53120, Note_on_c, 1, 55, 60
3, 53150, Note_on_c, 1, 55, 0
3, 53152, Note_on_c, 1, 53, 60
3, 53182, Note_on_c, 1, 53, 0
3, 53182, Note_on_c, 1, 48, 0
3, 53184, Note_on_c, 1, 48, 60
3, 53184, Note_on_c, 1, 55, 84
3, 53205, Note_on_c, 1, 55, 0
3, 53216, Note_on_c, 1, 53, 60
3, 53246, Note_on_c, 1, 53, 0
3, 53248, Note_on_c, 1, 52, 60
3, 53278, Note_on_c, 1, 52, 0
3, 53278, Note_on_c, 1, 48, 0
3, 53280, Note_on_c, 1, 48, 60
3, 53280, Note_on_c, 1, 56, 84
3, 53301, Note_on_c, 1, 56, 0
3, 53312, Note_on_c, 1, 55, 60
3, 53342, Note_on_c, 1, 55, 0
3, 53344, Note_on_c, 1, 53, 60
3, 53374, Note_on_c, 1, 53, 0
3, 53374, Note_on_c, 1, 48, 0
3, 53376, Note_on_c, 1, 48, 60
3, 53376, Note_on_c, 1, 55, 84
3, 53397, Note_on_c, 1, 55, 0
3, 53408, Note_on_c, 1, 53, 60
3, 53438, Note_on_c, 1, 53, 0
3, 53440, Note_on_c, 1, 52, 60
3, 53470, Note_on_c, 1, 52, 0
3, 53470, Note_on_c, 1, 48, 0
3, 53472, Note_on_c, 1, 48, 60
3, 53472, Note_on_c, 1, 56, 84
3, 53493, Note_on_c, 1, 56, 0
3, 53504, Note_on_c, 1, 55, 60
3, 53534, Note_on_c, 1, 55, 0
3, 53536, Note_on_c, 1, 53, 60
3, 53566, Note_on_c, 1, 53, 0
3, 53566, Note_on_c, 1, 48, 0
3, 53568, Note_on_c, 1, 48, 60
3, 53568, Note_on_c, 1, 55, 60
3, 53600, Note_on_c, 1, 55, 0
3, 53600, Note_on_c, 1, 48, 0
3, 54144, Note_on_c, 1, 48, 60
3, 54165, Note_on_c, 1, 48, 0
3, 54176, Note_on_c, 1, 52, 61
3, 54206, Note_on_c, 1, 52, 0
3, 54208, Note_on_c, 1, 53, 62
3, 54238, Note_on_c, 1, 53, 0
3, 54240, Note_on_c, 1, 55, 63
3, 54270, Note_on_c, 1, 55, 0
3, 54272, Note_on_c, 1, 53, 64
3, 54302, Note_on_c, 1, 53, 0
3, 54304, Note_on_c, 1, 52, 66
3, 54334, Note_on_c, 1, 52, 0
3, 54336, Note_on_c, 1, 43, 68
3, 54357, Note_on_c, 1, 43, 0
3, 54368, Note_on_c, 1, 52, 70
3, 54398, Note_on_c, 1, 52, 0
3, 54400, Note_on_c, 1, 53, 72
3, 54430, Note_on_c, 1, 53, 0
3, 54432, Note_on_c, 1, 55, 74
3, 54462, Note_on_c, 1, 55, 0
3, 54464, Note_on_c, 1, 53, 76
3, 54494, Note_on_c, 1, 53, 0
3, 54496, Note_on_c, 1, 52, 78
3, 54526, Note_on_c, 1, 52, 0
3, 54528, Note_on_c, 1, 40, 80
3, 54549, Note_on_c, 1, 40, 0
3, 54560, Note_on_c, 1, 52, 82
3, 54590, Note_on_c, 1, 52, 0
3, 54592, Note_on_c, 1, 53, 84
3, 54622, Note_on_c, 1, 53, 0
3, 54624, Note_on_c, 1, 55, 86
3, 54654, Note_on_c, 1, 55, 0
3, 54656, Note_on_c, 1, 53, 88
3, 54686, Note_on_c, 1, 53, 0
3, 54688, Note_on_c, 1, 52, 90
3, 54718, Note_on_c, 1, 52, 0
3, 54720, Note_on_c, 1, 36, 92
3, 54752, Note_on_c, 1, 36, 0
3, 54912, Note_on_c, 1, 36, 92
3, 54912, Note_on_c, 1, 40, 92
3, 54912, Note_on_c, 1, 43, 92
3, 54912, Note_on_c, 1, 48, 92
3, 54944, Note_on_c, 1, 48, 0
3, 54944, Note_on_c, 1, 36, 0
3, 54944, Note_on_c, 1, 40, 0
3, 54944, Note_on_c, 1, 43, 0
3, 54944, End_track
4, 0, Start_track
4, 0, End_track
0, 0, End_of_file