0, 0, Header, 1, 4, 120
1, 0, Start_track
1, 0, Title_t, " Anhang 6 Rond\362 per pianoforte"
1, 0, Copyright_t, "fiorellaearmando@panet.it"
1, 0, Text_t, "Ludwig van Beethoven\012"
1, 0, Time_signature, 6, 3, 12, 8
1, 0, Key_signature, -2, "major"
1, 0, Tempo, 416667
1, 53640, Key_signature, 1, "major"
1, 57240, Key_signature, -2, "major"
1, 57240, End_track
2, 0, Start_track
2, 0, Title_t, "PianoR"
2, 0, Program_c, 0, 0
2, 0, Control_c, 0, 7, 127
2, 0, Control_c, 0, 10, 44
2, 0, Control_c, 0, 91, 23
2, 0, Control_c, 0, 93, 19
2, 300, Note_on_c, 0, 65, 75
2, 360, Note_on_c, 0, 65, 0
2, 360, Note_on_c, 0, 65, 81
2, 420, Note_on_c, 0, 65, 0
2, 420, Note_on_c, 0, 62, 84
2, 480, Note_on_c, 0, 62, 0
2, 480, Note_on_c, 0, 70, 87
2, 540, Note_on_c, 0, 70, 0
2, 540, Note_on_c, 0, 70, 89
2, 600, Note_on_c, 0, 70, 0
2, 600, Note_on_c, 0, 65, 91
2, 660, Note_on_c, 0, 65, 0
2, 660, Note_on_c, 0, 74, 90
2, 720, Note_on_c, 0, 74, 0
2, 720, Note_on_c, 0, 74, 88
2, 780, Note_on_c, 0, 74, 0
2, 780, Note_on_c, 0, 70, 85
2, 840, Note_on_c, 0, 70, 0
2, 840, Note_on_c, 0, 77, 81
2, 900, Note_on_c, 0, 77, 0
2, 900, Note_on_c, 0, 77, 77
2, 1020, Note_on_c, 0, 77, 0
2, 1020, Note_on_c, 0, 72, 80
2, 1020, Note_on_c, 0, 75, 80
2, 1080, Note_on_c, 0, 75, 0
2, 1080, Note_on_c, 0, 72, 0
2, 1080, Note_on_c, 0, 70, 83
2, 1080, Note_on_c, 0, 74, 83
2, 1140, Note_on_c, 0, 74, 0
2, 1140, Note_on_c, 0, 70, 0
2, 1140, Note_on_c, 0, 75, 83
2, 1140, Note_on_c, 0, 72, 83
2, 1200, Note_on_c, 0, 72, 0
2, 1200, Note_on_c, 0, 75, 0
2, 1200, Note_on_c, 0, 74, 84
2, 1200, Note_on_c, 0, 77, 84
2, 1260, Note_on_c, 0, 77, 0
2, 1260, Note_on_c, 0, 74, 0
2, 1260, Note_on_c, 0, 75, 83
2, 1260, Note_on_c, 0, 79, 83
2, 1320, Note_on_c, 0, 79, 0
2, 1320, Note_on_c, 0, 75, 0
2, 1320, Note_on_c, 0, 72, 82
2, 1320, Note_on_c, 0, 75, 82
2, 1380, Note_on_c, 0, 75, 0
2, 1380, Note_on_c, 0, 72, 0
2, 1380, Note_on_c, 0, 70, 80
2, 1380, Note_on_c, 0, 74, 80
2, 1440, Note_on_c, 0, 74, 0
2, 1440, Note_on_c, 0, 70, 0
2, 1440, Note_on_c, 0, 69, 78
2, 1440, Note_on_c, 0, 72, 78
2, 1500, Note_on_c, 0, 72, 0
2, 1500, Note_on_c, 0, 69, 0
2, 1500, Note_on_c, 0, 69, 76
2, 1500, Note_on_c, 0, 72, 76
2, 1560, Note_on_c, 0, 72, 0
2, 1560, Note_on_c, 0, 69, 0
2, 1560, Note_on_c, 0, 72, 82
2, 1560, Note_on_c, 0, 75, 82
2, 1590, Note_on_c, 0, 75, 0
2, 1590, Note_on_c, 0, 72, 0
2, 1590, Note_on_c, 0, 70, 87
2, 1590, Note_on_c, 0, 74, 87
2, 1620, Note_on_c, 0, 74, 0
2, 1620, Note_on_c, 0, 70, 0
2, 1620, Note_on_c, 0, 72, 92
2, 1620, Note_on_c, 0, 69, 92
2, 1740, Note_on_c, 0, 69, 0
2, 1740, Note_on_c, 0, 72, 0
2, 1740, Note_on_c, 0, 65, 81
2, 1800, Note_on_c, 0, 65, 0
2, 1800, Note_on_c, 0, 65, 84
2, 1860, Note_on_c, 0, 65, 0
2, 1860, Note_on_c, 0, 62, 84
2, 1920, Note_on_c, 0, 62, 0
2, 1920, Note_on_c, 0, 70, 84
2, 1980, Note_on_c, 0, 70, 0
2, 1980, Note_on_c, 0, 70, 83
2, 2040, Note_on_c, 0, 70, 0
2, 2040, Note_on_c, 0, 65, 81
2, 2100, Note_on_c, 0, 65, 0
2, 2100, Note_on_c, 0, 74, 80
2, 2160, Note_on_c, 0, 74, 0
2, 2160, Note_on_c, 0, 74, 78
2, 2220, Note_on_c, 0, 74, 0
2, 2220, Note_on_c, 0, 70, 77
2, 2280, Note_on_c, 0, 70, 0
2, 2280, Note_on_c, 0, 77, 74
2, 2340, Note_on_c, 0, 77, 0
2, 2340, Note_on_c, 0, 77, 75
2, 2460, Note_on_c, 0, 77, 0
2, 2460, Note_on_c, 0, 76, 76
2, 2460, Note_on_c, 0, 79, 76
2, 2520, Note_on_c, 0, 79, 0
2, 2520, Note_on_c, 0, 76, 0
2, 2520, Note_on_c, 0, 77, 80
2, 2520, Note_on_c, 0, 81, 80
2, 2580, Note_on_c, 0, 81, 0
2, 2580, Note_on_c, 0, 77, 0
2, 2580, Note_on_c, 0, 82, 80
2, 2580, Note_on_c, 0, 79, 80
2, 2640, Note_on_c, 0, 79, 0
2, 2640, Note_on_c, 0, 82, 0
2, 2640, Note_on_c, 0, 81, 79
2, 2640, Note_on_c, 0, 84, 79
2, 2700, Note_on_c, 0, 84, 0
2, 2700, Note_on_c, 0, 81, 0
2, 2700, Note_on_c, 0, 82, 79
2, 2700, Note_on_c, 0, 79, 79
2, 2760, Note_on_c, 0, 79, 0
2, 2760, Note_on_c, 0, 82, 0
2, 2760, Note_on_c, 0, 77, 79
2, 2760, Note_on_c, 0, 81, 79
2, 2820, Note_on_c, 0, 81, 0
2, 2820, Note_on_c, 0, 77, 0
2, 2820, Note_on_c, 0, 76, 79
2, 2820, Note_on_c, 0, 79, 79
2, 2880, Note_on_c, 0, 79, 0
2, 2880, Note_on_c, 0, 76, 0
2, 2880, Note_on_c, 0, 69, 78
2, 2880, Note_on_c, 0, 77, 78
2, 2940, Note_on_c, 0, 77, 0
2, 2940, Note_on_c, 0, 69, 0
2, 2940, Note_on_c, 0, 69, 77
2, 2940, Note_on_c, 0, 77, 77
2, 3000, Note_on_c, 0, 77, 0
2, 3000, Note_on_c, 0, 69, 0
2, 3000, Note_on_c, 0, 69, 75
2, 3000, Note_on_c, 0, 77, 75
2, 3060, Note_on_c, 0, 77, 0
2, 3060, Note_on_c, 0, 69, 0
2, 3060, Note_on_c, 0, 77, 74
2, 3060, Note_on_c, 0, 69, 74
2, 3120, Note_on_c, 0, 69, 0
2, 3120, Note_on_c, 0, 77, 0
2, 3135, Note_on_c, 0, 72, 79
2, 3150, Note_on_c, 0, 72, 0
2, 3150, Note_on_c, 0, 74, 81
2, 3165, Note_on_c, 0, 74, 0
2, 3165, Note_on_c, 0, 75, 82
2, 3180, Note_on_c, 0, 75, 0
2, 3180, Note_on_c, 0, 77, 85
2, 3195, Note_on_c, 0, 77, 0
2, 3195, Note_on_c, 0, 79, 86
2, 3210, Note_on_c, 0, 79, 0
2, 3210, Note_on_c, 0, 81, 88
2, 3225, Note_on_c, 0, 81, 0
2, 3225, Note_on_c, 0, 82, 90
2, 3240, Note_on_c, 0, 82, 0
2, 3240, Note_on_c, 0, 84, 90
2, 3360, Note_on_c, 0, 84, 0
2, 3360, Note_on_c, 0, 82, 90
2, 3390, Note_on_c, 0, 82, 0
2, 3405, Note_on_c, 0, 82, 90
2, 3420, Note_on_c, 0, 82, 0
2, 3420, Note_on_c, 0, 81, 90
2, 3480, Note_on_c, 0, 81, 0
2, 3480, Note_on_c, 0, 79, 90
2, 3540, Note_on_c, 0, 79, 0
2, 3540, Note_on_c, 0, 81, 90
2, 3600, Note_on_c, 0, 81, 0
2, 3600, Note_on_c, 0, 82, 90
2, 3720, Note_on_c, 0, 82, 0
2, 3720, Note_on_c, 0, 77, 90
2, 3780, Note_on_c, 0, 77, 0
2, 3780, Note_on_c, 0, 74, 90
2, 3900, Note_on_c, 0, 74, 0
2, 3900, Note_on_c, 0, 82, 90
2, 3930, Note_on_c, 0, 82, 0
2, 3945, Note_on_c, 0, 86, 80
2, 3960, Note_on_c, 0, 86, 0
2, 3960, Note_on_c, 0, 84, 90
2, 4080, Note_on_c, 0, 84, 0
2, 4080, Note_on_c, 0, 82, 90
2, 4110, Note_on_c, 0, 82, 0
2, 4125, Note_on_c, 0, 82, 80
2, 4140, Note_on_c, 0, 82, 0
2, 4140, Note_on_c, 0, 81, 90
2, 4200, Note_on_c, 0, 81, 0
2, 4200, Note_on_c, 0, 79, 90
2, 4260, Note_on_c, 0, 79, 0
2, 4260, Note_on_c, 0, 81, 90
2, 4320, Note_on_c, 0, 81, 0
2, 4320, Note_on_c, 0, 82, 90
2, 4440, Note_on_c, 0, 82, 0
2, 4440, Note_on_c, 0, 77, 90
2, 4500, Note_on_c, 0, 77, 0
2, 4500, Note_on_c, 0, 82, 90
2, 4620, Note_on_c, 0, 82, 0
2, 4620, Note_on_c, 0, 86, 90
2, 4650, Note_on_c, 0, 86, 0
2, 4665, Note_on_c, 0, 86, 80
2, 4680, Note_on_c, 0, 86, 0
2, 4680, Note_on_c, 0, 84, 90
2, 4800, Note_on_c, 0, 84, 0
2, 4800, Note_on_c, 0, 82, 90
2, 4830, Note_on_c, 0, 82, 0
2, 4845, Note_on_c, 0, 82, 80
2, 4860, Note_on_c, 0, 82, 0
2, 4860, Note_on_c, 0, 81, 90
2, 4920, Note_on_c, 0, 81, 0
2, 4920, Note_on_c, 0, 79, 90
2, 4980, Note_on_c, 0, 79, 0
2, 4980, Note_on_c, 0, 81, 90
2, 5040, Note_on_c, 0, 81, 0
2, 5040, Note_on_c, 0, 82, 90
2, 5220, Note_on_c, 0, 82, 0
2, 5220, Note_on_c, 0, 77, 90
2, 5340, Note_on_c, 0, 77, 0
2, 5340, Note_on_c, 0, 78, 90
2, 5400, Note_on_c, 0, 78, 0
2, 5400, Note_on_c, 0, 79, 90
2, 5520, Note_on_c, 0, 79, 0
2, 5520, Note_on_c, 0, 79, 90
2, 5550, Note_on_c, 0, 79, 0
2, 5565, Note_on_c, 0, 81, 90
2, 5580, Note_on_c, 0, 81, 0
2, 5580, Note_on_c, 0, 79, 90
2, 5640, Note_on_c, 0, 79, 0
2, 5640, Note_on_c, 0, 78, 90
2, 5700, Note_on_c, 0, 78, 0
2, 5700, Note_on_c, 0, 79, 90
2, 5760, Note_on_c, 0, 79, 0
2, 5760, Note_on_c, 0, 81, 90
2, 5880, Note_on_c, 0, 81, 0
2, 5880, Note_on_c, 0, 78, 90
2, 5940, Note_on_c, 0, 78, 0
2, 5940, Note_on_c, 0, 74, 90
2, 6060, Note_on_c, 0, 74, 0
2, 6060, Note_on_c, 0, 78, 90
2, 6120, Note_on_c, 0, 78, 0
2, 6120, Note_on_c, 0, 79, 87
2, 6135, Note_on_c, 0, 79, 0
2, 6135, Note_on_c, 0, 81, 88
2, 6150, Note_on_c, 0, 81, 0
2, 6150, Note_on_c, 0, 79, 88
2, 6165, Note_on_c, 0, 79, 0
2, 6165, Note_on_c, 0, 81, 88
2, 6180, Note_on_c, 0, 81, 0
2, 6180, Note_on_c, 0, 79, 89
2, 6195, Note_on_c, 0, 79, 0
2, 6195, Note_on_c, 0, 81, 89
2, 6210, Note_on_c, 0, 81, 0
2, 6210, Note_on_c, 0, 79, 89
2, 6225, Note_on_c, 0, 79, 0
2, 6225, Note_on_c, 0, 81, 89
2, 6240, Note_on_c, 0, 81, 0
2, 6240, Note_on_c, 0, 82, 88
2, 6300, Note_on_c, 0, 82, 0
2, 6300, Note_on_c, 0, 79, 88
2, 6315, Note_on_c, 0, 79, 0
2, 6315, Note_on_c, 0, 81, 89
2, 6330, Note_on_c, 0, 81, 0
2, 6330, Note_on_c, 0, 79, 90
2, 6345, Note_on_c, 0, 79, 0
2, 6345, Note_on_c, 0, 81, 90
2, 6360, Note_on_c, 0, 81, 0
2, 6360, Note_on_c, 0, 79, 90
2, 6375, Note_on_c, 0, 79, 0
2, 6375, Note_on_c, 0, 81, 90
2, 6390, Note_on_c, 0, 81, 0
2, 6390, Note_on_c, 0, 79, 90
2, 6405, Note_on_c, 0, 79, 0
2, 6405, Note_on_c, 0, 81, 90
2, 6420, Note_on_c, 0, 81, 0
2, 6420, Note_on_c, 0, 82, 89
2, 6480, Note_on_c, 0, 82, 0
2, 6480, Note_on_c, 0, 79, 89
2, 6495, Note_on_c, 0, 79, 0
2, 6495, Note_on_c, 0, 81, 90
2, 6510, Note_on_c, 0, 81, 0
2, 6510, Note_on_c, 0, 79, 91
2, 6525, Note_on_c, 0, 79, 0
2, 6525, Note_on_c, 0, 81, 91
2, 6540, Note_on_c, 0, 81, 0
2, 6540, Note_on_c, 0, 79, 92
2, 6555, Note_on_c, 0, 79, 0
2, 6555, Note_on_c, 0, 81, 92
2, 6570, Note_on_c, 0, 81, 0
2, 6570, Note_on_c, 0, 79, 92
2, 6585, Note_on_c, 0, 79, 0
2, 6585, Note_on_c, 0, 81, 92
2, 6600, Note_on_c, 0, 81, 0
2, 6600, Note_on_c, 0, 82, 92
2, 6660, Note_on_c, 0, 82, 0
2, 6660, Note_on_c, 0, 72, 89
2, 6720, Note_on_c, 0, 72, 0
2, 6720, Note_on_c, 0, 74, 90
2, 6780, Note_on_c, 0, 74, 0
2, 6780, Note_on_c, 0, 76, 90
2, 6840, Note_on_c, 0, 76, 0
2, 6840, Note_on_c, 0, 79, 85
2, 6855, Note_on_c, 0, 79, 0
2, 6855, Note_on_c, 0, 81, 86
2, 6870, Note_on_c, 0, 81, 0
2, 6870, Note_on_c, 0, 79, 88
2, 6885, Note_on_c, 0, 79, 0
2, 6885, Note_on_c, 0, 81, 89
2, 6900, Note_on_c, 0, 81, 0
2, 6900, Note_on_c, 0, 79, 89
2, 6915, Note_on_c, 0, 79, 0
2, 6915, Note_on_c, 0, 81, 89
2, 6930, Note_on_c, 0, 81, 0
2, 6930, Note_on_c, 0, 79, 89
2, 6945, Note_on_c, 0, 79, 0
2, 6945, Note_on_c, 0, 81, 89
2, 6960, Note_on_c, 0, 81, 0
2, 6960, Note_on_c, 0, 81, 89
2, 7020, Note_on_c, 0, 81, 0
2, 7020, Note_on_c, 0, 72, 87
2, 7080, Note_on_c, 0, 72, 0
2, 7080, Note_on_c, 0, 74, 94
2, 7140, Note_on_c, 0, 74, 0
2, 7140, Note_on_c, 0, 76, 100
2, 7200, Note_on_c, 0, 76, 0
2, 7200, Note_on_c, 0, 79, 90
2, 7215, Note_on_c, 0, 79, 0
2, 7215, Note_on_c, 0, 77, 87
2, 7230, Note_on_c, 0, 77, 0
2, 7230, Note_on_c, 0, 79, 89
2, 7245, Note_on_c, 0, 79, 0
2, 7245, Note_on_c, 0, 77, 90
2, 7260, Note_on_c, 0, 77, 0
2, 7260, Note_on_c, 0, 79, 91
2, 7275, Note_on_c, 0, 79, 0
2, 7275, Note_on_c, 0, 77, 91
2, 7290, Note_on_c, 0, 77, 0
2, 7290, Note_on_c, 0, 79, 91
2, 7305, Note_on_c, 0, 79, 0
2, 7305, Note_on_c, 0, 77, 90
2, 7320, Note_on_c, 0, 77, 0
2, 7320, Note_on_c, 0, 81, 90
2, 7380, Note_on_c, 0, 81, 0
2, 7380, Note_on_c, 0, 72, 87
2, 7440, Note_on_c, 0, 72, 0
2, 7440, Note_on_c, 0, 74, 91
2, 7500, Note_on_c, 0, 74, 0
2, 7500, Note_on_c, 0, 76, 93
2, 7560, Note_on_c, 0, 76, 0
2, 7560, Note_on_c, 0, 77, 93
2, 7575, Note_on_c, 0, 77, 0
2, 7575, Note_on_c, 0, 79, 93
2, 7590, Note_on_c, 0, 79, 0
2, 7590, Note_on_c, 0, 77, 92
2, 7605, Note_on_c, 0, 77, 0
2, 7605, Note_on_c, 0, 79, 92
2, 7620, Note_on_c, 0, 79, 0
2, 7620, Note_on_c, 0, 77, 91
2, 7635, Note_on_c, 0, 77, 0
2, 7635, Note_on_c, 0, 79, 91
2, 7650, Note_on_c, 0, 79, 0
2, 7650, Note_on_c, 0, 77, 91
2, 7665, Note_on_c, 0, 77, 0
2, 7665, Note_on_c, 0, 79, 91
2, 7680, Note_on_c, 0, 79, 0
2, 7680, Note_on_c, 0, 81, 91
2, 7740, Note_on_c, 0, 81, 0
2, 7740, Note_on_c, 0, 77, 90
2, 7755, Note_on_c, 0, 77, 0
2, 7755, Note_on_c, 0, 79, 90
2, 7770, Note_on_c, 0, 79, 0
2, 7770, Note_on_c, 0, 77, 90
2, 7785, Note_on_c, 0, 77, 0
2, 7785, Note_on_c, 0, 79, 90
2, 7800, Note_on_c, 0, 79, 0
2, 7800, Note_on_c, 0, 77, 90
2, 7815, Note_on_c, 0, 77, 0
2, 7815, Note_on_c, 0, 79, 90
2, 7830, Note_on_c, 0, 79, 0
2, 7830, Note_on_c, 0, 77, 90
2, 7845, Note_on_c, 0, 77, 0
2, 7845, Note_on_c, 0, 79, 89
2, 7860, Note_on_c, 0, 79, 0
2, 7860, Note_on_c, 0, 84, 88
2, 7920, Note_on_c, 0, 84, 0
2, 7920, Note_on_c, 0, 79, 85
2, 7935, Note_on_c, 0, 79, 0
2, 7935, Note_on_c, 0, 77, 85
2, 7950, Note_on_c, 0, 77, 0
2, 7950, Note_on_c, 0, 79, 85
2, 7965, Note_on_c, 0, 79, 0
2, 7965, Note_on_c, 0, 77, 85
2, 7980, Note_on_c, 0, 77, 0
2, 7980, Note_on_c, 0, 79, 85
2, 7995, Note_on_c, 0, 79, 0
2, 7995, Note_on_c, 0, 77, 85
2, 8010, Note_on_c, 0, 77, 0
2, 8010, Note_on_c, 0, 79, 85
2, 8025, Note_on_c, 0, 79, 0
2, 8025, Note_on_c, 0, 77, 86
2, 8040, Note_on_c, 0, 77, 0
2, 8040, Note_on_c, 0, 81, 87
2, 8100, Note_on_c, 0, 81, 0
2, 8100, Note_on_c, 0, 79, 87
2, 8115, Note_on_c, 0, 79, 0
2, 8115, Note_on_c, 0, 77, 87
2, 8130, Note_on_c, 0, 77, 0
2, 8130, Note_on_c, 0, 79, 88
2, 8145, Note_on_c, 0, 79, 0
2, 8145, Note_on_c, 0, 77, 88
2, 8160, Note_on_c, 0, 77, 0
2, 8160, Note_on_c, 0, 79, 88
2, 8175, Note_on_c, 0, 79, 0
2, 8175, Note_on_c, 0, 77, 88
2, 8190, Note_on_c, 0, 77, 0
2, 8190, Note_on_c, 0, 79, 88
2, 8205, Note_on_c, 0, 79, 0
2, 8205, Note_on_c, 0, 77, 89
2, 8220, Note_on_c, 0, 77, 0
2, 8220, Note_on_c, 0, 84, 89
2, 8280, Note_on_c, 0, 84, 0
2, 8280, Note_on_c, 0, 81, 91
2, 8340, Note_on_c, 0, 81, 0
2, 8340, Note_on_c, 0, 87, 92
2, 8400, Note_on_c, 0, 87, 0
2, 8400, Note_on_c, 0, 84, 91
2, 8460, Note_on_c, 0, 84, 0
2, 8460, Note_on_c, 0, 81, 90
2, 8520, Note_on_c, 0, 81, 0
2, 8520, Note_on_c, 0, 77, 91
2, 8580, Note_on_c, 0, 77, 0
2, 8580, Note_on_c, 0, 76, 91
2, 8640, Note_on_c, 0, 76, 0
2, 8640, Note_on_c, 0, 75, 87
2, 8700, Note_on_c, 0, 75, 0
2, 8700, Note_on_c, 0, 72, 89
2, 8760, Note_on_c, 0, 72, 0
2, 8760, Note_on_c, 0, 69, 94
2, 8820, Note_on_c, 0, 69, 0
2, 8820, Note_on_c, 0, 65, 95
2, 8880, Note_on_c, 0, 65, 0
2, 8880, Note_on_c, 0, 64, 96
2, 8940, Note_on_c, 0, 64, 0
2, 8940, Note_on_c, 0, 63, 94
2, 9000, Note_on_c, 0, 63, 0
2, 9000, Note_on_c, 0, 62, 94
2, 9060, Note_on_c, 0, 62, 0
2, 9060, Note_on_c, 0, 58, 93
2, 9120, Note_on_c, 0, 58, 0
2, 9120, Note_on_c, 0, 65, 96
2, 9180, Note_on_c, 0, 65, 0
2, 9180, Note_on_c, 0, 65, 98
2, 9240, Note_on_c, 0, 65, 0
2, 9240, Note_on_c, 0, 62, 98
2, 9300, Note_on_c, 0, 62, 0
2, 9300, Note_on_c, 0, 70, 97
2, 9360, Note_on_c, 0, 70, 0
2, 9360, Note_on_c, 0, 70, 96
2, 9420, Note_on_c, 0, 70, 0
2, 9420, Note_on_c, 0, 65, 95
2, 9480, Note_on_c, 0, 65, 0
2, 9480, Note_on_c, 0, 74, 95
2, 9540, Note_on_c, 0, 74, 0
2, 9540, Note_on_c, 0, 77, 95
2, 9660, Note_on_c, 0, 77, 0
2, 9660, Note_on_c, 0, 72, 98
2, 9660, Note_on_c, 0, 75, 98
2, 9720, Note_on_c, 0, 75, 0
2, 9720, Note_on_c, 0, 72, 0
2, 9720, Note_on_c, 0, 70, 101
2, 9720, Note_on_c, 0, 74, 101
2, 9780, Note_on_c, 0, 74, 0
2, 9780, Note_on_c, 0, 70, 0
2, 9780, Note_on_c, 0, 75, 102
2, 9780, Note_on_c, 0, 72, 102
2, 9840, Note_on_c, 0, 72, 0
2, 9840, Note_on_c, 0, 75, 0
2, 9840, Note_on_c, 0, 77, 102
2, 9840, Note_on_c, 0, 74, 102
2, 9900, Note_on_c, 0, 74, 0
2, 9900, Note_on_c, 0, 77, 0
2, 9900, Note_on_c, 0, 79, 102
2, 9900, Note_on_c, 0, 75, 102
2, 9960, Note_on_c, 0, 75, 0
2, 9960, Note_on_c, 0, 79, 0
2, 9960, Note_on_c, 0, 72, 101
2, 9960, Note_on_c, 0, 75, 101
2, 10020, Note_on_c, 0, 75, 0
2, 10020, Note_on_c, 0, 72, 0
2, 10020, Note_on_c, 0, 70, 99
2, 10020, Note_on_c, 0, 74, 99
2, 10080, Note_on_c, 0, 74, 0
2, 10080, Note_on_c, 0, 70, 0
2, 10080, Note_on_c, 0, 72, 98
2, 10080, Note_on_c, 0, 69, 98
2, 10140, Note_on_c, 0, 69, 0
2, 10140, Note_on_c, 0, 72, 0
2, 10140, Note_on_c, 0, 69, 99
2, 10140, Note_on_c, 0, 72, 99
2, 10200, Note_on_c, 0, 72, 0
2, 10200, Note_on_c, 0, 69, 0
2, 10200, Note_on_c, 0, 72, 99
2, 10200, Note_on_c, 0, 75, 99
2, 10230, Note_on_c, 0, 75, 0
2, 10230, Note_on_c, 0, 72, 0
2, 10230, Note_on_c, 0, 70, 99
2, 10230, Note_on_c, 0, 74, 99
2, 10260, Note_on_c, 0, 74, 0
2, 10260, Note_on_c, 0, 70, 0
2, 10260, Note_on_c, 0, 69, 98
2, 10260, Note_on_c, 0, 72, 98
2, 10380, Note_on_c, 0, 72, 0
2, 10380, Note_on_c, 0, 69, 0
2, 10380, Note_on_c, 0, 65, 93
2, 10410, Note_on_c, 0, 65, 0
2, 10425, Note_on_c, 0, 67, 95
2, 10440, Note_on_c, 0, 67, 0
2, 10440, Note_on_c, 0, 65, 95
2, 10500, Note_on_c, 0, 65, 0
2, 10500, Note_on_c, 0, 62, 96
2, 10560, Note_on_c, 0, 62, 0
2, 10560, Note_on_c, 0, 70, 97
2, 10590, Note_on_c, 0, 70, 0
2, 10605, Note_on_c, 0, 72, 97
2, 10620, Note_on_c, 0, 72, 0
2, 10620, Note_on_c, 0, 70, 96
2, 10680, Note_on_c, 0, 70, 0
2, 10680, Note_on_c, 0, 65, 91
2, 10740, Note_on_c, 0, 65, 0
2, 10740, Note_on_c, 0, 74, 91
2, 10770, Note_on_c, 0, 74, 0
2, 10785, Note_on_c, 0, 75, 91
2, 10800, Note_on_c, 0, 75, 0
2, 10800, Note_on_c, 0, 74, 91
2, 10860, Note_on_c, 0, 74, 0
2, 10860, Note_on_c, 0, 70, 94
2, 10920, Note_on_c, 0, 70, 0
2, 10920, Note_on_c, 0, 77, 95
2, 10980, Note_on_c, 0, 77, 0
2, 10980, Note_on_c, 0, 74, 92
2, 10980, Note_on_c, 0, 77, 92
2, 11100, Note_on_c, 0, 77, 0
2, 11100, Note_on_c, 0, 74, 0
2, 11100, Note_on_c, 0, 79, 96
2, 11100, Note_on_c, 0, 75, 96
2, 11160, Note_on_c, 0, 75, 0
2, 11160, Note_on_c, 0, 79, 0
2, 11160, Note_on_c, 0, 74, 98
2, 11160, Note_on_c, 0, 77, 98
2, 11220, Note_on_c, 0, 77, 0
2, 11220, Note_on_c, 0, 74, 0
2, 11220, Note_on_c, 0, 72, 99
2, 11220, Note_on_c, 0, 75, 99
2, 11280, Note_on_c, 0, 75, 0
2, 11280, Note_on_c, 0, 72, 0
2, 11280, Note_on_c, 0, 70, 96
2, 11280, Note_on_c, 0, 74, 96
2, 11340, Note_on_c, 0, 74, 0
2, 11340, Note_on_c, 0, 70, 0
2, 11340, Note_on_c, 0, 63, 95
2, 11340, Note_on_c, 0, 72, 95
2, 11400, Note_on_c, 0, 72, 0
2, 11400, Note_on_c, 0, 63, 0
2, 11400, Note_on_c, 0, 62, 95
2, 11400, Note_on_c, 0, 70, 95
2, 11460, Note_on_c, 0, 70, 0
2, 11460, Note_on_c, 0, 62, 0
2, 11460, Note_on_c, 0, 60, 99
2, 11460, Note_on_c, 0, 69, 99
2, 11520, Note_on_c, 0, 69, 0
2, 11520, Note_on_c, 0, 60, 0
2, 11520, Note_on_c, 0, 62, 103
2, 11520, Note_on_c, 0, 70, 103
2, 11640, Note_on_c, 0, 70, 0
2, 11640, Note_on_c, 0, 62, 0
2, 11820, Note_on_c, 0, 77, 96
2, 11880, Note_on_c, 0, 77, 0
2, 11880, Note_on_c, 0, 77, 96
2, 11940, Note_on_c, 0, 77, 0
2, 11940, Note_on_c, 0, 69, 95
2, 12000, Note_on_c, 0, 69, 0
2, 12000, Note_on_c, 0, 69, 92
2, 12030, Note_on_c, 0, 69, 0
2, 12045, Note_on_c, 0, 72, 91
2, 12060, Note_on_c, 0, 72, 0
2, 12060, Note_on_c, 0, 70, 90
2, 12120, Note_on_c, 0, 70, 0
2, 12120, Note_on_c, 0, 69, 92
2, 12180, Note_on_c, 0, 69, 0
2, 12180, Note_on_c, 0, 70, 95
2, 12240, Note_on_c, 0, 70, 0
2, 12240, Note_on_c, 0, 71, 98
2, 12420, Note_on_c, 0, 71, 0
2, 12420, Note_on_c, 0, 72, 92
2, 12540, Note_on_c, 0, 72, 0
2, 12540, Note_on_c, 0, 77, 92
2, 12600, Note_on_c, 0, 77, 0
2, 12600, Note_on_c, 0, 77, 95
2, 12660, Note_on_c, 0, 77, 0
2, 12660, Note_on_c, 0, 70, 96
2, 12720, Note_on_c, 0, 70, 0
2, 12720, Note_on_c, 0, 70, 97
2, 12750, Note_on_c, 0, 70, 0
2, 12765, Note_on_c, 0, 74, 95
2, 12780, Note_on_c, 0, 74, 0
2, 12780, Note_on_c, 0, 72, 93
2, 12840, Note_on_c, 0, 72, 0
2, 12840, Note_on_c, 0, 70, 93
2, 12900, Note_on_c, 0, 70, 0
2, 12900, Note_on_c, 0, 72, 95
2, 12960, Note_on_c, 0, 72, 0
2, 12960, Note_on_c, 0, 73, 98
2, 13080, Note_on_c, 0, 73, 0
2, 13140, Note_on_c, 0, 74, 92
2, 13260, Note_on_c, 0, 74, 0
2, 13260, Note_on_c, 0, 77, 92
2, 13320, Note_on_c, 0, 77, 0
2, 13320, Note_on_c, 0, 82, 94
2, 13380, Note_on_c, 0, 82, 0
2, 13380, Note_on_c, 0, 81, 94
2, 13440, Note_on_c, 0, 81, 0
2, 13440, Note_on_c, 0, 79, 94
2, 13500, Note_on_c, 0, 79, 0
2, 13500, Note_on_c, 0, 77, 94
2, 13560, Note_on_c, 0, 77, 0
2, 13560, Note_on_c, 0, 75, 91
2, 13620, Note_on_c, 0, 75, 0
2, 13620, Note_on_c, 0, 74, 91
2, 13680, Note_on_c, 0, 74, 0
2, 13680, Note_on_c, 0, 74, 92
2, 13740, Note_on_c, 0, 74, 0
2, 13740, Note_on_c, 0, 72, 96
2, 13800, Note_on_c, 0, 72, 0
2, 13800, Note_on_c, 0, 71, 96
2, 13860, Note_on_c, 0, 71, 0
2, 13860, Note_on_c, 0, 72, 96
2, 13920, Note_on_c, 0, 72, 0
2, 13920, Note_on_c, 0, 75, 92
2, 13980, Note_on_c, 0, 75, 0
2, 13980, Note_on_c, 0, 79, 90
2, 14040, Note_on_c, 0, 79, 0
2, 14040, Note_on_c, 0, 77, 93
2, 14100, Note_on_c, 0, 77, 0
2, 14100, Note_on_c, 0, 74, 95
2, 14160, Note_on_c, 0, 74, 0
2, 14160, Note_on_c, 0, 70, 96
2, 14220, Note_on_c, 0, 70, 0
2, 14220, Note_on_c, 0, 65, 97
2, 14280, Note_on_c, 0, 65, 0
2, 14280, Note_on_c, 0, 67, 97
2, 14340, Note_on_c, 0, 67, 0
2, 14340, Note_on_c, 0, 69, 96
2, 14400, Note_on_c, 0, 69, 0
2, 14400, Note_on_c, 0, 70, 96
2, 14520, Note_on_c, 0, 70, 0
2, 14580, Note_on_c, 0, 70, 110
2, 14610, Note_on_c, 0, 70, 0
2, 14610, Note_on_c, 0, 72, 107
2, 14640, Note_on_c, 0, 72, 0
2, 14640, Note_on_c, 0, 74, 104
2, 14670, Note_on_c, 0, 74, 0
2, 14670, Note_on_c, 0, 75, 102
2, 14700, Note_on_c, 0, 75, 0
2, 14700, Note_on_c, 0, 77, 98
2, 14715, Note_on_c, 0, 77, 0
2, 14715, Note_on_c, 0, 79, 97
2, 14730, Note_on_c, 0, 79, 0
2, 14730, Note_on_c, 0, 81, 97
2, 14745, Note_on_c, 0, 81, 0
2, 14745, Note_on_c, 0, 82, 96
2, 14760, Note_on_c, 0, 82, 0
2, 14760, Note_on_c, 0, 84, 95
2, 14880, Note_on_c, 0, 84, 0
2, 14880, Note_on_c, 0, 82, 92
2, 14910, Note_on_c, 0, 82, 0
2, 14925, Note_on_c, 0, 82, 92
2, 14940, Note_on_c, 0, 82, 0
2, 14940, Note_on_c, 0, 81, 92
2, 15000, Note_on_c, 0, 81, 0
2, 15000, Note_on_c, 0, 79, 92
2, 15060, Note_on_c, 0, 79, 0
2, 15060, Note_on_c, 0, 81, 89
2, 15120, Note_on_c, 0, 81, 0
2, 15120, Note_on_c, 0, 82, 86
2, 15300, Note_on_c, 0, 82, 0
2, 15300, Note_on_c, 0, 77, 91
2, 15420, Note_on_c, 0, 77, 0
2, 15420, Note_on_c, 0, 86, 94
2, 15480, Note_on_c, 0, 86, 0
2, 15480, Note_on_c, 0, 86, 92
2, 15540, Note_on_c, 0, 86, 0
2, 15540, Note_on_c, 0, 84, 89
2, 15600, Note_on_c, 0, 84, 0
2, 15600, Note_on_c, 0, 83, 88
2, 15660, Note_on_c, 0, 83, 0
2, 15660, Note_on_c, 0, 84, 87
2, 15720, Note_on_c, 0, 84, 0
2, 15720, Note_on_c, 0, 86, 91
2, 15780, Note_on_c, 0, 86, 0
2, 15780, Note_on_c, 0, 82, 94
2, 15840, Note_on_c, 0, 82, 0
2, 15840, Note_on_c, 0, 81, 93
2, 15960, Note_on_c, 0, 81, 0
2, 16020, Note_on_c, 0, 81, 108
2, 16050, Note_on_c, 0, 81, 0
2, 16050, Note_on_c, 0, 79, 104
2, 16080, Note_on_c, 0, 79, 0
2, 16080, Note_on_c, 0, 77, 103
2, 16110, Note_on_c, 0, 77, 0
2, 16110, Note_on_c, 0, 79, 101
2, 16140, Note_on_c, 0, 79, 0
2, 16140, Note_on_c, 0, 81, 100
2, 16155, Note_on_c, 0, 81, 0
2, 16155, Note_on_c, 0, 82, 99
2, 16170, Note_on_c, 0, 82, 0
2, 16170, Note_on_c, 0, 84, 98
2, 16185, Note_on_c, 0, 84, 0
2, 16185, Note_on_c, 0, 86, 98
2, 16200, Note_on_c, 0, 86, 0
2, 16200, Note_on_c, 0, 87, 96
2, 16320, Note_on_c, 0, 87, 0
2, 16320, Note_on_c, 0, 84, 90
2, 16350, Note_on_c, 0, 84, 0
2, 16365, Note_on_c, 0, 82, 92
2, 16380, Note_on_c, 0, 82, 0
2, 16380, Note_on_c, 0, 81, 93
2, 16440, Note_on_c, 0, 81, 0
2, 16440, Note_on_c, 0, 79, 95
2, 16500, Note_on_c, 0, 79, 0
2, 16500, Note_on_c, 0, 81, 93
2, 16560, Note_on_c, 0, 81, 0
2, 16560, Note_on_c, 0, 82, 89
2, 16680, Note_on_c, 0, 82, 0
2, 16740, Note_on_c, 0, 82, 106
2, 16770, Note_on_c, 0, 82, 0
2, 16770, Note_on_c, 0, 81, 104
2, 16800, Note_on_c, 0, 81, 0
2, 16800, Note_on_c, 0, 79, 103
2, 16830, Note_on_c, 0, 79, 0
2, 16830, Note_on_c, 0, 77, 102
2, 16860, Note_on_c, 0, 77, 0
2, 16860, Note_on_c, 0, 75, 101
2, 16890, Note_on_c, 0, 75, 0
2, 16890, Note_on_c, 0, 74, 100
2, 16920, Note_on_c, 0, 74, 0
2, 16920, Note_on_c, 0, 79, 99
2, 16950, Note_on_c, 0, 79, 0
2, 16950, Note_on_c, 0, 77, 98
2, 16980, Note_on_c, 0, 77, 0
2, 16980, Note_on_c, 0, 75, 96
2, 17010, Note_on_c, 0, 75, 0
2, 17010, Note_on_c, 0, 74, 95
2, 17040, Note_on_c, 0, 74, 0
2, 17040, Note_on_c, 0, 72, 94
2, 17070, Note_on_c, 0, 72, 0
2, 17070, Note_on_c, 0, 70, 93
2, 17100, Note_on_c, 0, 70, 0
2, 17100, Note_on_c, 0, 69, 93
2, 17130, Note_on_c, 0, 69, 0
2, 17130, Note_on_c, 0, 67, 92
2, 17160, Note_on_c, 0, 67, 0
2, 17160, Note_on_c, 0, 65, 91
2, 17190, Note_on_c, 0, 65, 0
2, 17190, Note_on_c, 0, 63, 91
2, 17220, Note_on_c, 0, 63, 0
2, 17220, Note_on_c, 0, 62, 89
2, 17250, Note_on_c, 0, 62, 0
2, 17250, Note_on_c, 0, 60, 88
2, 17280, Note_on_c, 0, 60, 0
2, 18720, Note_on_c, 0, 62, 88
2, 18720, Note_on_c, 0, 65, 88
2, 18840, Note_on_c, 0, 65, 0
2, 18840, Note_on_c, 0, 62, 0
2, 18840, Note_on_c, 0, 62, 88
2, 18840, Note_on_c, 0, 65, 88
2, 18900, Note_on_c, 0, 65, 0
2, 18900, Note_on_c, 0, 62, 0
2, 18900, Note_on_c, 0, 70, 88
2, 18900, Note_on_c, 0, 65, 88
2, 19020, Note_on_c, 0, 65, 0
2, 19020, Note_on_c, 0, 70, 0
2, 19020, Note_on_c, 0, 70, 88
2, 19020, Note_on_c, 0, 74, 88
2, 19080, Note_on_c, 0, 74, 0
2, 19080, Note_on_c, 0, 70, 0
2, 19080, Note_on_c, 0, 65, 88
2, 19080, Note_on_c, 0, 75, 88
2, 19200, Note_on_c, 0, 75, 0
2, 19200, Note_on_c, 0, 65, 0
2, 19200, Note_on_c, 0, 75, 88
2, 19200, Note_on_c, 0, 66, 88
2, 19230, Note_on_c, 0, 75, 0
2, 19245, Note_on_c, 0, 77, 88
2, 19260, Note_on_c, 0, 77, 0
2, 19260, Note_on_c, 0, 66, 0
2, 19260, Note_on_c, 0, 66, 88
2, 19260, Note_on_c, 0, 75, 88
2, 19320, Note_on_c, 0, 75, 0
2, 19320, Note_on_c, 0, 66, 0
2, 19320, Note_on_c, 0, 74, 88
2, 19380, Note_on_c, 0, 74, 0
2, 19380, Note_on_c, 0, 69, 88
2, 19380, Note_on_c, 0, 75, 88
2, 19440, Note_on_c, 0, 75, 0
2, 19440, Note_on_c, 0, 69, 0
2, 19440, Note_on_c, 0, 70, 88
2, 19440, Note_on_c, 0, 74, 88
2, 19560, Note_on_c, 0, 74, 0
2, 19560, Note_on_c, 0, 70, 0
2, 19560, Note_on_c, 0, 74, 88
2, 19560, Note_on_c, 0, 77, 88
2, 19620, Note_on_c, 0, 77, 0
2, 19620, Note_on_c, 0, 74, 0
2, 19620, Note_on_c, 0, 82, 88
2, 19620, Note_on_c, 0, 74, 88
2, 19740, Note_on_c, 0, 74, 0
2, 19740, Note_on_c, 0, 82, 0
2, 19740, Note_on_c, 0, 77, 88
2, 19740, Note_on_c, 0, 81, 88
2, 19800, Note_on_c, 0, 81, 0
2, 19800, Note_on_c, 0, 77, 0
2, 19800, Note_on_c, 0, 79, 88
2, 19800, Note_on_c, 0, 75, 88
2, 19920, Note_on_c, 0, 75, 0
2, 19920, Note_on_c, 0, 79, 0
2, 19920, Note_on_c, 0, 84, 88
2, 19920, Note_on_c, 0, 72, 88
2, 19950, Note_on_c, 0, 84, 0
2, 19965, Note_on_c, 0, 82, 88
2, 19980, Note_on_c, 0, 82, 0
2, 19980, Note_on_c, 0, 72, 0
2, 19980, Note_on_c, 0, 81, 88
2, 19980, Note_on_c, 0, 75, 88
2, 20040, Note_on_c, 0, 75, 0
2, 20040, Note_on_c, 0, 81, 0
2, 20040, Note_on_c, 0, 79, 88
2, 20100, Note_on_c, 0, 79, 0
2, 20100, Note_on_c, 0, 81, 88
2, 20160, Note_on_c, 0, 81, 0
2, 20160, Note_on_c, 0, 82, 88
2, 20160, Note_on_c, 0, 74, 88
2, 20280, Note_on_c, 0, 74, 0
2, 20280, Note_on_c, 0, 82, 0
2, 20280, Note_on_c, 0, 77, 88
2, 20340, Note_on_c, 0, 77, 0
2, 20340, Note_on_c, 0, 82, 88
2, 20460, Note_on_c, 0, 82, 0
2, 20460, Note_on_c, 0, 86, 88
2, 20520, Note_on_c, 0, 86, 0
2, 20520, Note_on_c, 0, 79, 88
2, 20520, Note_on_c, 0, 75, 88
2, 20640, Note_on_c, 0, 75, 0
2, 20640, Note_on_c, 0, 79, 0
2, 20640, Note_on_c, 0, 84, 88
2, 20640, Note_on_c, 0, 72, 88
2, 20670, Note_on_c, 0, 84, 0
2, 20685, Note_on_c, 0, 82, 88
2, 20700, Note_on_c, 0, 82, 0
2, 20700, Note_on_c, 0, 72, 0
2, 20700, Note_on_c, 0, 81, 88
2, 20700, Note_on_c, 0, 75, 88
2, 20760, Note_on_c, 0, 75, 0
2, 20760, Note_on_c, 0, 81, 0
2, 20760, Note_on_c, 0, 79, 88
2, 20820, Note_on_c, 0, 79, 0
2, 20820, Note_on_c, 0, 81, 88
2, 20880, Note_on_c, 0, 81, 0
2, 20880, Note_on_c, 0, 67, 63
2, 20910, Note_on_c, 0, 67, 0
2, 20910, Note_on_c, 0, 82, 56
2, 20940, Note_on_c, 0, 82, 0
2, 20940, Note_on_c, 0, 67, 56
2, 20970, Note_on_c, 0, 67, 0
2, 20970, Note_on_c, 0, 82, 56
2, 21000, Note_on_c, 0, 82, 0
2, 21000, Note_on_c, 0, 67, 57
2, 21030, Note_on_c, 0, 67, 0
2, 21030, Note_on_c, 0, 82, 57
2, 21060, Note_on_c, 0, 82, 0
2, 21060, Note_on_c, 0, 67, 57
2, 21090, Note_on_c, 0, 67, 0
2, 21090, Note_on_c, 0, 82, 56
2, 21120, Note_on_c, 0, 82, 0
2, 21120, Note_on_c, 0, 67, 56
2, 21150, Note_on_c, 0, 67, 0
2, 21150, Note_on_c, 0, 82, 55
2, 21180, Note_on_c, 0, 82, 0
2, 21180, Note_on_c, 0, 67, 55
2, 21210, Note_on_c, 0, 67, 0
2, 21210, Note_on_c, 0, 82, 55
2, 21240, Note_on_c, 0, 82, 0
2, 21240, Note_on_c, 0, 67, 55
2, 21270, Note_on_c, 0, 67, 0
2, 21270, Note_on_c, 0, 82, 55
2, 21300, Note_on_c, 0, 82, 0
2, 21300, Note_on_c, 0, 67, 54
2, 21330, Note_on_c, 0, 67, 0
2, 21330, Note_on_c, 0, 82, 54
2, 21360, Note_on_c, 0, 82, 0
2, 21360, Note_on_c, 0, 67, 54
2, 21390, Note_on_c, 0, 67, 0
2, 21390, Note_on_c, 0, 82, 54
2, 21420, Note_on_c, 0, 82, 0
2, 21420, Note_on_c, 0, 67, 54
2, 21450, Note_on_c, 0, 67, 0
2, 21450, Note_on_c, 0, 82, 55
2, 21480, Note_on_c, 0, 82, 0
2, 21480, Note_on_c, 0, 67, 55
2, 21510, Note_on_c, 0, 67, 0
2, 21510, Note_on_c, 0, 82, 56
2, 21540, Note_on_c, 0, 82, 0
2, 21540, Note_on_c, 0, 67, 56
2, 21570, Note_on_c, 0, 67, 0
2, 21570, Note_on_c, 0, 82, 56
2, 21600, Note_on_c, 0, 82, 0
2, 21600, Note_on_c, 0, 67, 56
2, 21630, Note_on_c, 0, 67, 0
2, 21630, Note_on_c, 0, 82, 56
2, 21660, Note_on_c, 0, 82, 0
2, 21660, Note_on_c, 0, 67, 56
2, 21690, Note_on_c, 0, 67, 0
2, 21690, Note_on_c, 0, 82, 56
2, 21720, Note_on_c, 0, 82, 0
2, 21720, Note_on_c, 0, 67, 56
2, 21750, Note_on_c, 0, 67, 0
2, 21750, Note_on_c, 0, 82, 56
2, 21780, Note_on_c, 0, 82, 0
2, 21780, Note_on_c, 0, 67, 55
2, 21810, Note_on_c, 0, 67, 0
2, 21810, Note_on_c, 0, 82, 55
2, 21840, Note_on_c, 0, 82, 0
2, 21840, Note_on_c, 0, 67, 56
2, 21870, Note_on_c, 0, 67, 0
2, 21870, Note_on_c, 0, 82, 56
2, 21900, Note_on_c, 0, 82, 0
2, 21900, Note_on_c, 0, 67, 57
2, 21930, Note_on_c, 0, 67, 0
2, 21930, Note_on_c, 0, 82, 57
2, 21960, Note_on_c, 0, 82, 0
2, 21960, Note_on_c, 0, 67, 58
2, 21990, Note_on_c, 0, 67, 0
2, 21990, Note_on_c, 0, 82, 58
2, 22020, Note_on_c, 0, 82, 0
2, 22020, Note_on_c, 0, 67, 58
2, 22050, Note_on_c, 0, 67, 0
2, 22050, Note_on_c, 0, 82, 59
2, 22080, Note_on_c, 0, 82, 0
2, 22080, Note_on_c, 0, 67, 59
2, 22110, Note_on_c, 0, 67, 0
2, 22110, Note_on_c, 0, 82, 59
2, 22140, Note_on_c, 0, 82, 0
2, 22140, Note_on_c, 0, 67, 59
2, 22170, Note_on_c, 0, 67, 0
2, 22170, Note_on_c, 0, 82, 59
2, 22200, Note_on_c, 0, 82, 0
2, 22200, Note_on_c, 0, 67, 60
2, 22230, Note_on_c, 0, 67, 0
2, 22230, Note_on_c, 0, 82, 60
2, 22260, Note_on_c, 0, 82, 0
2, 22260, Note_on_c, 0, 67, 60
2, 22290, Note_on_c, 0, 67, 0
2, 22290, Note_on_c, 0, 82, 59
2, 22320, Note_on_c, 0, 82, 0
2, 22320, Note_on_c, 0, 67, 59
2, 22350, Note_on_c, 0, 67, 0
2, 22350, Note_on_c, 0, 82, 58
2, 22380, Note_on_c, 0, 82, 0
2, 22380, Note_on_c, 0, 67, 58
2, 22410, Note_on_c, 0, 67, 0
2, 22410, Note_on_c, 0, 82, 58
2, 22440, Note_on_c, 0, 82, 0
2, 22440, Note_on_c, 0, 67, 57
2, 22470, Note_on_c, 0, 67, 0
2, 22470, Note_on_c, 0, 82, 57
2, 22500, Note_on_c, 0, 82, 0
2, 22500, Note_on_c, 0, 67, 56
2, 22530, Note_on_c, 0, 67, 0
2, 22530, Note_on_c, 0, 82, 56
2, 22560, Note_on_c, 0, 82, 0
2, 22560, Note_on_c, 0, 67, 55
2, 22590, Note_on_c, 0, 67, 0
2, 22590, Note_on_c, 0, 82, 55
2, 22620, Note_on_c, 0, 82, 0
2, 22620, Note_on_c, 0, 67, 55
2, 22650, Note_on_c, 0, 67, 0
2, 22650, Note_on_c, 0, 82, 54
2, 22680, Note_on_c, 0, 82, 0
2, 22680, Note_on_c, 0, 67, 54
2, 22710, Note_on_c, 0, 67, 0
2, 22710, Note_on_c, 0, 82, 54
2, 22740, Note_on_c, 0, 82, 0
2, 22740, Note_on_c, 0, 67, 54
2, 22770, Note_on_c, 0, 67, 0
2, 22770, Note_on_c, 0, 82, 54
2, 22800, Note_on_c, 0, 82, 0
2, 22800, Note_on_c, 0, 67, 53
2, 22830, Note_on_c, 0, 67, 0
2, 22830, Note_on_c, 0, 82, 53
2, 22860, Note_on_c, 0, 82, 0
2, 22860, Note_on_c, 0, 67, 53
2, 22890, Note_on_c, 0, 67, 0
2, 22890, Note_on_c, 0, 82, 53
2, 22920, Note_on_c, 0, 82, 0
2, 22920, Note_on_c, 0, 67, 54
2, 22950, Note_on_c, 0, 67, 0
2, 22950, Note_on_c, 0, 82, 55
2, 22980, Note_on_c, 0, 82, 0
2, 22980, Note_on_c, 0, 67, 55
2, 23010, Note_on_c, 0, 67, 0
2, 23010, Note_on_c, 0, 82, 55
2, 23040, Note_on_c, 0, 82, 0
2, 23040, Note_on_c, 0, 67, 54
2, 23070, Note_on_c, 0, 67, 0
2, 23070, Note_on_c, 0, 82, 54
2, 23100, Note_on_c, 0, 82, 0
2, 23100, Note_on_c, 0, 67, 54
2, 23130, Note_on_c, 0, 67, 0
2, 23130, Note_on_c, 0, 82, 54
2, 23160, Note_on_c, 0, 82, 0
2, 23160, Note_on_c, 0, 67, 53
2, 23190, Note_on_c, 0, 67, 0
2, 23190, Note_on_c, 0, 82, 53
2, 23220, Note_on_c, 0, 82, 0
2, 23220, Note_on_c, 0, 67, 53
2, 23250, Note_on_c, 0, 67, 0
2, 23250, Note_on_c, 0, 82, 53
2, 23280, Note_on_c, 0, 82, 0
2, 23280, Note_on_c, 0, 67, 54
2, 23310, Note_on_c, 0, 67, 0
2, 23310, Note_on_c, 0, 82, 55
2, 23340, Note_on_c, 0, 82, 0
2, 23340, Note_on_c, 0, 67, 55
2, 23370, Note_on_c, 0, 67, 0
2, 23370, Note_on_c, 0, 82, 55
2, 23400, Note_on_c, 0, 82, 0
2, 23400, Note_on_c, 0, 67, 55
2, 23430, Note_on_c, 0, 67, 0
2, 23430, Note_on_c, 0, 82, 55
2, 23460, Note_on_c, 0, 82, 0
2, 23460, Note_on_c, 0, 67, 55
2, 23490, Note_on_c, 0, 67, 0
2, 23490, Note_on_c, 0, 82, 55
2, 23520, Note_on_c, 0, 82, 0
2, 23520, Note_on_c, 0, 67, 55
2, 23550, Note_on_c, 0, 67, 0
2, 23550, Note_on_c, 0, 82, 55
2, 23580, Note_on_c, 0, 82, 0
2, 23580, Note_on_c, 0, 82, 55
2, 23580, Note_on_c, 0, 79, 55
2, 23640, Note_on_c, 0, 79, 0
2, 23640, Note_on_c, 0, 82, 0
2, 23640, Note_on_c, 0, 77, 55
2, 23640, Note_on_c, 0, 80, 55
2, 23700, Note_on_c, 0, 80, 0
2, 23700, Note_on_c, 0, 77, 0
2, 23700, Note_on_c, 0, 75, 55
2, 23700, Note_on_c, 0, 79, 55
2, 23760, Note_on_c, 0, 79, 0
2, 23760, Note_on_c, 0, 75, 0
2, 23760, Note_on_c, 0, 74, 56
2, 23760, Note_on_c, 0, 77, 56
2, 23820, Note_on_c, 0, 77, 0
2, 23820, Note_on_c, 0, 74, 0
2, 23820, Note_on_c, 0, 74, 56
2, 23820, Note_on_c, 0, 77, 56
2, 23880, Note_on_c, 0, 77, 0
2, 23880, Note_on_c, 0, 74, 0
2, 23880, Note_on_c, 0, 80, 56
2, 23880, Note_on_c, 0, 77, 56
2, 23910, Note_on_c, 0, 77, 0
2, 23910, Note_on_c, 0, 80, 0
2, 23910, Note_on_c, 0, 75, 56
2, 23910, Note_on_c, 0, 79, 56
2, 23940, Note_on_c, 0, 79, 0
2, 23940, Note_on_c, 0, 75, 0
2, 23940, Note_on_c, 0, 74, 56
2, 23940, Note_on_c, 0, 77, 56
2, 24000, Note_on_c, 0, 77, 0
2, 24000, Note_on_c, 0, 74, 0
2, 24000, Note_on_c, 0, 74, 56
2, 24000, Note_on_c, 0, 77, 56
2, 24060, Note_on_c, 0, 77, 0
2, 24060, Note_on_c, 0, 74, 0
2, 24060, Note_on_c, 0, 77, 60
2, 24060, Note_on_c, 0, 80, 60
2, 24090, Note_on_c, 0, 80, 0
2, 24090, Note_on_c, 0, 77, 0
2, 24090, Note_on_c, 0, 75, 59
2, 24090, Note_on_c, 0, 79, 59
2, 24120, Note_on_c, 0, 79, 0
2, 24120, Note_on_c, 0, 75, 0
2, 24120, Note_on_c, 0, 74, 59
2, 24120, Note_on_c, 0, 77, 59
2, 24180, Note_on_c, 0, 77, 0
2, 24180, Note_on_c, 0, 74, 0
2, 24180, Note_on_c, 0, 74, 58
2, 24180, Note_on_c, 0, 77, 58
2, 24240, Note_on_c, 0, 77, 0
2, 24240, Note_on_c, 0, 74, 0
2, 24240, Note_on_c, 0, 80, 58
2, 24240, Note_on_c, 0, 77, 58
2, 24270, Note_on_c, 0, 77, 0
2, 24270, Note_on_c, 0, 80, 0
2, 24270, Note_on_c, 0, 75, 58
2, 24270, Note_on_c, 0, 79, 58
2, 24300, Note_on_c, 0, 79, 0
2, 24300, Note_on_c, 0, 75, 0
2, 24300, Note_on_c, 0, 74, 58
2, 24300, Note_on_c, 0, 77, 58
2, 24420, Note_on_c, 0, 77, 0
2, 24420, Note_on_c, 0, 74, 0
2, 24420, Note_on_c, 0, 70, 60
2, 24480, Note_on_c, 0, 70, 0
2, 24480, Note_on_c, 0, 70, 61
2, 24540, Note_on_c, 0, 70, 0
2, 24540, Note_on_c, 0, 67, 62
2, 24600, Note_on_c, 0, 67, 0
2, 24600, Note_on_c, 0, 75, 63
2, 24660, Note_on_c, 0, 75, 0
2, 24660, Note_on_c, 0, 75, 63
2, 24720, Note_on_c, 0, 75, 0
2, 24720, Note_on_c, 0, 70, 61
2, 24780, Note_on_c, 0, 70, 0
2, 24780, Note_on_c, 0, 79, 61
2, 24840, Note_on_c, 0, 79, 0
2, 24840, Note_on_c, 0, 79, 61
2, 24900, Note_on_c, 0, 79, 0
2, 24900, Note_on_c, 0, 75, 60
2, 24960, Note_on_c, 0, 75, 0
2, 24960, Note_on_c, 0, 82, 60
2, 25020, Note_on_c, 0, 82, 0
2, 25020, Note_on_c, 0, 82, 60
2, 25140, Note_on_c, 0, 82, 0
2, 25140, Note_on_c, 0, 80, 60
2, 25140, Note_on_c, 0, 77, 60
2, 25200, Note_on_c, 0, 77, 0
2, 25200, Note_on_c, 0, 80, 0
2, 25200, Note_on_c, 0, 75, 61
2, 25200, Note_on_c, 0, 79, 61
2, 25260, Note_on_c, 0, 79, 0
2, 25260, Note_on_c, 0, 75, 0
2, 25260, Note_on_c, 0, 80, 62
2, 25260, Note_on_c, 0, 77, 62
2, 25320, Note_on_c, 0, 77, 0
2, 25320, Note_on_c, 0, 80, 0
2, 25320, Note_on_c, 0, 82, 63
2, 25320, Note_on_c, 0, 79, 63
2, 25380, Note_on_c, 0, 79, 0
2, 25380, Note_on_c, 0, 82, 0
2, 25380, Note_on_c, 0, 80, 63
2, 25380, Note_on_c, 0, 84, 63
2, 25440, Note_on_c, 0, 84, 0
2, 25440, Note_on_c, 0, 80, 0
2, 25440, Note_on_c, 0, 77, 62
2, 25440, Note_on_c, 0, 80, 62
2, 25500, Note_on_c, 0, 80, 0
2, 25500, Note_on_c, 0, 77, 0
2, 25500, Note_on_c, 0, 75, 61
2, 25500, Note_on_c, 0, 79, 61
2, 25560, Note_on_c, 0, 79, 0
2, 25560, Note_on_c, 0, 75, 0
2, 25560, Note_on_c, 0, 74, 59
2, 25560, Note_on_c, 0, 77, 59
2, 25620, Note_on_c, 0, 77, 0
2, 25620, Note_on_c, 0, 74, 0
2, 25620, Note_on_c, 0, 74, 58
2, 25620, Note_on_c, 0, 77, 58
2, 25680, Note_on_c, 0, 77, 0
2, 25680, Note_on_c, 0, 74, 0
2, 25680, Note_on_c, 0, 77, 57
2, 25680, Note_on_c, 0, 80, 57
2, 25710, Note_on_c, 0, 80, 0
2, 25710, Note_on_c, 0, 77, 0
2, 25710, Note_on_c, 0, 75, 55
2, 25710, Note_on_c, 0, 79, 55
2, 25740, Note_on_c, 0, 79, 0
2, 25740, Note_on_c, 0, 75, 0
2, 25740, Note_on_c, 0, 74, 55
2, 25740, Note_on_c, 0, 77, 55
2, 25860, Note_on_c, 0, 77, 0
2, 25860, Note_on_c, 0, 74, 0
2, 25860, Note_on_c, 0, 70, 58
2, 25920, Note_on_c, 0, 70, 0
2, 25920, Note_on_c, 0, 70, 59
2, 25980, Note_on_c, 0, 70, 0
2, 25980, Note_on_c, 0, 67, 60
2, 26040, Note_on_c, 0, 67, 0
2, 26040, Note_on_c, 0, 75, 61
2, 26100, Note_on_c, 0, 75, 0
2, 26100, Note_on_c, 0, 75, 61
2, 26160, Note_on_c, 0, 75, 0
2, 26160, Note_on_c, 0, 70, 60
2, 26220, Note_on_c, 0, 70, 0
2, 26220, Note_on_c, 0, 79, 60
2, 26280, Note_on_c, 0, 79, 0
2, 26280, Note_on_c, 0, 79, 59
2, 26340, Note_on_c, 0, 79, 0
2, 26340, Note_on_c, 0, 75, 61
2, 26400, Note_on_c, 0, 75, 0
2, 26400, Note_on_c, 0, 82, 64
2, 26460, Note_on_c, 0, 82, 0
2, 26460, Note_on_c, 0, 82, 65
2, 26520, Note_on_c, 0, 82, 0
2, 26520, Note_on_c, 0, 79, 65
2, 26580, Note_on_c, 0, 79, 0
2, 26580, Note_on_c, 0, 87, 64
2, 26640, Note_on_c, 0, 87, 0
2, 26640, Note_on_c, 0, 80, 65
2, 26640, Note_on_c, 0, 72, 65
2, 26640, Note_on_c, 0, 75, 65
2, 26670, Note_on_c, 0, 75, 0
2, 26670, Note_on_c, 0, 72, 0
2, 26670, Note_on_c, 0, 80, 0
2, 26670, Note_on_c, 0, 84, 65
2, 26700, Note_on_c, 0, 84, 0
2, 26700, Note_on_c, 0, 80, 66
2, 26700, Note_on_c, 0, 72, 66
2, 26700, Note_on_c, 0, 75, 66
2, 26730, Note_on_c, 0, 75, 0
2, 26730, Note_on_c, 0, 72, 0
2, 26730, Note_on_c, 0, 80, 0
2, 26730, Note_on_c, 0, 84, 66
2, 26760, Note_on_c, 0, 84, 0
2, 26760, Note_on_c, 0, 80, 66
2, 26760, Note_on_c, 0, 72, 66
2, 26760, Note_on_c, 0, 75, 66
2, 26790, Note_on_c, 0, 75, 0
2, 26790, Note_on_c, 0, 72, 0
2, 26790, Note_on_c, 0, 80, 0
2, 26790, Note_on_c, 0, 84, 66
2, 26820, Note_on_c, 0, 84, 0
2, 26820, Note_on_c, 0, 80, 66
2, 26820, Note_on_c, 0, 72, 66
2, 26820, Note_on_c, 0, 75, 66
2, 26850, Note_on_c, 0, 75, 0
2, 26850, Note_on_c, 0, 72, 0
2, 26850, Note_on_c, 0, 80, 0
2, 26850, Note_on_c, 0, 84, 66
2, 26880, Note_on_c, 0, 84, 0
2, 26880, Note_on_c, 0, 80, 66
2, 26880, Note_on_c, 0, 72, 66
2, 26880, Note_on_c, 0, 75, 66
2, 26910, Note_on_c, 0, 75, 0
2, 26910, Note_on_c, 0, 72, 0
2, 26910, Note_on_c, 0, 80, 0
2, 26910, Note_on_c, 0, 84, 66
2, 26940, Note_on_c, 0, 84, 0
2, 26940, Note_on_c, 0, 80, 66
2, 26940, Note_on_c, 0, 72, 66
2, 26940, Note_on_c, 0, 75, 66
2, 26970, Note_on_c, 0, 75, 0
2, 26970, Note_on_c, 0, 72, 0
2, 26970, Note_on_c, 0, 80, 0
2, 26970, Note_on_c, 0, 84, 66
2, 27000, Note_on_c, 0, 84, 0
2, 27000, Note_on_c, 0, 70, 67
2, 27000, Note_on_c, 0, 68, 67
2, 27000, Note_on_c, 0, 65, 67
2, 27030, Note_on_c, 0, 65, 0
2, 27030, Note_on_c, 0, 68, 0
2, 27030, Note_on_c, 0, 70, 0
2, 27030, Note_on_c, 0, 74, 67
2, 27060, Note_on_c, 0, 74, 0
2, 27060, Note_on_c, 0, 70, 68
2, 27060, Note_on_c, 0, 68, 68
2, 27060, Note_on_c, 0, 65, 68
2, 27090, Note_on_c, 0, 65, 0
2, 27090, Note_on_c, 0, 68, 0
2, 27090, Note_on_c, 0, 70, 0
2, 27090, Note_on_c, 0, 74, 70
2, 27120, Note_on_c, 0, 74, 0
2, 27120, Note_on_c, 0, 70, 71
2, 27120, Note_on_c, 0, 68, 71
2, 27120, Note_on_c, 0, 65, 71
2, 27150, Note_on_c, 0, 65, 0
2, 27150, Note_on_c, 0, 68, 0
2, 27150, Note_on_c, 0, 70, 0
2, 27150, Note_on_c, 0, 74, 72
2, 27180, Note_on_c, 0, 74, 0
2, 27180, Note_on_c, 0, 70, 72
2, 27180, Note_on_c, 0, 68, 72
2, 27180, Note_on_c, 0, 65, 72
2, 27210, Note_on_c, 0, 65, 0
2, 27210, Note_on_c, 0, 68, 0
2, 27210, Note_on_c, 0, 70, 0
2, 27210, Note_on_c, 0, 74, 73
2, 27240, Note_on_c, 0, 74, 0
2, 27240, Note_on_c, 0, 70, 76
2, 27240, Note_on_c, 0, 68, 76
2, 27240, Note_on_c, 0, 65, 76
2, 27270, Note_on_c, 0, 65, 0
2, 27270, Note_on_c, 0, 68, 0
2, 27270, Note_on_c, 0, 70, 0
2, 27270, Note_on_c, 0, 74, 82
2, 27300, Note_on_c, 0, 74, 0
2, 27300, Note_on_c, 0, 70, 83
2, 27300, Note_on_c, 0, 68, 83
2, 27300, Note_on_c, 0, 65, 83
2, 27330, Note_on_c, 0, 65, 0
2, 27330, Note_on_c, 0, 68, 0
2, 27330, Note_on_c, 0, 70, 0
2, 27330, Note_on_c, 0, 74, 94
2, 27360, Note_on_c, 0, 74, 0
2, 27360, Note_on_c, 0, 67, 97
2, 27360, Note_on_c, 0, 75, 97
2, 27480, Note_on_c, 0, 75, 0
2, 27480, Note_on_c, 0, 67, 0
2, 27480, Note_on_c, 0, 70, 72
2, 27540, Note_on_c, 0, 70, 0
2, 27540, Note_on_c, 0, 75, 72
2, 27660, Note_on_c, 0, 75, 0
2, 27660, Note_on_c, 0, 79, 72
2, 27720, Note_on_c, 0, 79, 0
2, 27720, Note_on_c, 0, 68, 72
2, 27720, Note_on_c, 0, 77, 72
2, 27840, Note_on_c, 0, 77, 0
2, 27840, Note_on_c, 0, 68, 0
2, 27840, Note_on_c, 0, 75, 72
2, 27870, Note_on_c, 0, 75, 0
2, 27885, Note_on_c, 0, 75, 72
2, 27900, Note_on_c, 0, 75, 0
2, 27900, Note_on_c, 0, 65, 72
2, 27900, Note_on_c, 0, 74, 72
2, 27960, Note_on_c, 0, 74, 0
2, 27960, Note_on_c, 0, 65, 0
2, 27960, Note_on_c, 0, 72, 72
2, 28020, Note_on_c, 0, 72, 0
2, 28020, Note_on_c, 0, 74, 72
2, 28080, Note_on_c, 0, 74, 0
2, 28080, Note_on_c, 0, 67, 97
2, 28080, Note_on_c, 0, 75, 97
2, 28200, Note_on_c, 0, 75, 0
2, 28200, Note_on_c, 0, 67, 0
2, 28200, Note_on_c, 0, 70, 66
2, 28260, Note_on_c, 0, 70, 0
2, 28260, Note_on_c, 0, 75, 69
2, 28380, Note_on_c, 0, 75, 0
2, 28380, Note_on_c, 0, 79, 70
2, 28440, Note_on_c, 0, 79, 0
2, 28440, Note_on_c, 0, 72, 68
2, 28440, Note_on_c, 0, 80, 68
2, 28500, Note_on_c, 0, 80, 0
2, 28500, Note_on_c, 0, 72, 0
2, 28500, Note_on_c, 0, 74, 67
2, 28500, Note_on_c, 0, 80, 67
2, 28560, Note_on_c, 0, 80, 0
2, 28560, Note_on_c, 0, 74, 0
2, 28560, Note_on_c, 0, 75, 65
2, 28560, Note_on_c, 0, 80, 65
2, 28591, Note_on_c, 0, 80, 0
2, 28605, Note_on_c, 0, 82, 65
2, 28620, Note_on_c, 0, 82, 0
2, 28620, Note_on_c, 0, 75, 0
2, 28620, Note_on_c, 0, 76, 65
2, 28620, Note_on_c, 0, 80, 65
2, 28680, Note_on_c, 0, 80, 0
2, 28680, Note_on_c, 0, 79, 65
2, 28740, Note_on_c, 0, 79, 0
2, 28740, Note_on_c, 0, 76, 0
2, 28740, Note_on_c, 0, 77, 65
2, 28740, Note_on_c, 0, 80, 65
2, 28800, Note_on_c, 0, 80, 0
2, 28800, Note_on_c, 0, 77, 0
2, 28800, Note_on_c, 0, 75, 65
2, 28800, Note_on_c, 0, 79, 65
2, 28920, Note_on_c, 0, 79, 0
2, 28920, Note_on_c, 0, 75, 0
2, 28920, Note_on_c, 0, 70, 66
2, 28980, Note_on_c, 0, 70, 0
2, 28980, Note_on_c, 0, 67, 67
2, 29100, Note_on_c, 0, 67, 0
2, 29100, Note_on_c, 0, 79, 68
2, 29160, Note_on_c, 0, 79, 0
2, 29160, Note_on_c, 0, 68, 68
2, 29160, Note_on_c, 0, 78, 68
2, 29220, Note_on_c, 0, 78, 0
2, 29220, Note_on_c, 0, 77, 68
2, 29280, Note_on_c, 0, 77, 0
2, 29280, Note_on_c, 0, 76, 68
2, 29307, Note_on_c, 0, 76, 0
2, 29325, Note_on_c, 0, 75, 68
2, 29340, Note_on_c, 0, 75, 0
2, 29340, Note_on_c, 0, 68, 0
2, 29340, Note_on_c, 0, 65, 68
2, 29340, Note_on_c, 0, 68, 68
2, 29340, Note_on_c, 0, 74, 68
2, 29400, Note_on_c, 0, 74, 0
2, 29400, Note_on_c, 0, 72, 67
2, 29460, Note_on_c, 0, 72, 0
2, 29460, Note_on_c, 0, 74, 66
2, 29520, Note_on_c, 0, 74, 0
2, 29520, Note_on_c, 0, 68, 0
2, 29520, Note_on_c, 0, 65, 0
2, 29520, Note_on_c, 0, 67, 66
2, 29520, Note_on_c, 0, 75, 66
2, 29640, Note_on_c, 0, 75, 0
2, 29640, Note_on_c, 0, 67, 0
2, 29640, Note_on_c, 0, 70, 67
2, 29700, Note_on_c, 0, 70, 0
2, 29700, Note_on_c, 0, 75, 69
2, 29820, Note_on_c, 0, 75, 0
2, 29820, Note_on_c, 0, 79, 71
2, 29880, Note_on_c, 0, 79, 0
2, 29880, Note_on_c, 0, 68, 72
2, 29880, Note_on_c, 0, 78, 72
2, 29940, Note_on_c, 0, 78, 0
2, 29940, Note_on_c, 0, 77, 73
2, 30000, Note_on_c, 0, 77, 0
2, 30000, Note_on_c, 0, 76, 74
2, 30027, Note_on_c, 0, 76, 0
2, 30045, Note_on_c, 0, 75, 76
2, 30060, Note_on_c, 0, 75, 0
2, 30060, Note_on_c, 0, 68, 0
2, 30060, Note_on_c, 0, 65, 77
2, 30060, Note_on_c, 0, 68, 77
2, 30060, Note_on_c, 0, 74, 77
2, 30120, Note_on_c, 0, 74, 0
2, 30120, Note_on_c, 0, 72, 85
2, 30180, Note_on_c, 0, 72, 0
2, 30180, Note_on_c, 0, 74, 96
2, 30240, Note_on_c, 0, 74, 0
2, 30240, Note_on_c, 0, 68, 0
2, 30240, Note_on_c, 0, 65, 0
2, 30240, Note_on_c, 0, 75, 103
2, 30240, Note_on_c, 0, 70, 103
2, 30240, Note_on_c, 0, 67, 103
2, 30300, Note_on_c, 0, 67, 0
2, 30300, Note_on_c, 0, 70, 0
2, 30300, Note_on_c, 0, 75, 0
2, 30300, Note_on_c, 0, 82, 72
2, 30360, Note_on_c, 0, 82, 0
2, 30360, Note_on_c, 0, 79, 72
2, 30420, Note_on_c, 0, 79, 0
2, 30420, Note_on_c, 0, 75, 72
2, 30480, Note_on_c, 0, 75, 0
2, 30480, Note_on_c, 0, 70, 72
2, 30540, Note_on_c, 0, 70, 0
2, 30540, Note_on_c, 0, 67, 72
2, 30600, Note_on_c, 0, 67, 0
2, 30600, Note_on_c, 0, 65, 72
2, 30660, Note_on_c, 0, 65, 0
2, 30660, Note_on_c, 0, 84, 72
2, 30720, Note_on_c, 0, 84, 0
2, 30720, Note_on_c, 0, 80, 72
2, 30780, Note_on_c, 0, 80, 0
2, 30780, Note_on_c, 0, 77, 72
2, 30840, Note_on_c, 0, 77, 0
2, 30840, Note_on_c, 0, 72, 72
2, 30900, Note_on_c, 0, 72, 0
2, 30900, Note_on_c, 0, 69, 72
2, 30960, Note_on_c, 0, 69, 0
2, 30960, Note_on_c, 0, 67, 72
2, 31020, Note_on_c, 0, 67, 0
2, 31020, Note_on_c, 0, 82, 72
2, 31080, Note_on_c, 0, 82, 0
2, 31080, Note_on_c, 0, 79, 72
2, 31140, Note_on_c, 0, 79, 0
2, 31140, Note_on_c, 0, 75, 72
2, 31200, Note_on_c, 0, 75, 0
2, 31200, Note_on_c, 0, 70, 72
2, 31260, Note_on_c, 0, 70, 0
2, 31260, Note_on_c, 0, 67, 72
2, 31320, Note_on_c, 0, 67, 0
2, 31320, Note_on_c, 0, 65, 72
2, 31380, Note_on_c, 0, 65, 0
2, 31380, Note_on_c, 0, 80, 72
2, 31440, Note_on_c, 0, 80, 0
2, 31440, Note_on_c, 0, 77, 72
2, 31500, Note_on_c, 0, 77, 0
2, 31500, Note_on_c, 0, 74, 72
2, 31560, Note_on_c, 0, 74, 0
2, 31560, Note_on_c, 0, 68, 72
2, 31620, Note_on_c, 0, 68, 0
2, 31620, Note_on_c, 0, 65, 72
2, 31680, Note_on_c, 0, 65, 0
2, 31680, Note_on_c, 0, 63, 72
2, 31740, Note_on_c, 0, 63, 0
2, 31740, Note_on_c, 0, 79, 72
2, 31800, Note_on_c, 0, 79, 0
2, 31800, Note_on_c, 0, 75, 72
2, 31860, Note_on_c, 0, 75, 0
2, 31860, Note_on_c, 0, 72, 72
2, 31920, Note_on_c, 0, 72, 0
2, 31920, Note_on_c, 0, 67, 72
2, 31980, Note_on_c, 0, 67, 0
2, 31980, Note_on_c, 0, 63, 72
2, 32040, Note_on_c, 0, 63, 0
2, 32040, Note_on_c, 0, 60, 72
2, 32100, Note_on_c, 0, 60, 0
2, 32100, Note_on_c, 0, 72, 72
2, 32160, Note_on_c, 0, 72, 0
2, 32160, Note_on_c, 0, 70, 72
2, 32220, Note_on_c, 0, 70, 0
2, 32220, Note_on_c, 0, 68, 72
2, 32280, Note_on_c, 0, 68, 0
2, 32280, Note_on_c, 0, 67, 72
2, 32340, Note_on_c, 0, 67, 0
2, 32340, Note_on_c, 0, 65, 72
2, 32400, Note_on_c, 0, 65, 0
2, 32400, Note_on_c, 0, 63, 72
2, 32460, Note_on_c, 0, 63, 0
2, 32460, Note_on_c, 0, 70, 72
2, 32520, Note_on_c, 0, 70, 0
2, 32520, Note_on_c, 0, 68, 72
2, 32580, Note_on_c, 0, 68, 0
2, 32580, Note_on_c, 0, 67, 72
2, 32640, Note_on_c, 0, 67, 0
2, 32640, Note_on_c, 0, 65, 72
2, 32700, Note_on_c, 0, 65, 0
2, 32700, Note_on_c, 0, 63, 72
2, 32760, Note_on_c, 0, 63, 0
2, 32760, Note_on_c, 0, 62, 72
2, 32820, Note_on_c, 0, 62, 0
2, 32820, Note_on_c, 0, 68, 72
2, 32880, Note_on_c, 0, 68, 0
2, 32880, Note_on_c, 0, 67, 72
2, 32940, Note_on_c, 0, 67, 0
2, 32940, Note_on_c, 0, 65, 72
2, 33000, Note_on_c, 0, 65, 0
2, 33000, Note_on_c, 0, 63, 72
2, 33060, Note_on_c, 0, 63, 0
2, 33060, Note_on_c, 0, 62, 72
2, 33120, Note_on_c, 0, 62, 0
2, 33120, Note_on_c, 0, 63, 72
2, 33180, Note_on_c, 0, 63, 0
2, 33180, Note_on_c, 0, 67, 72
2, 33240, Note_on_c, 0, 67, 0
2, 33240, Note_on_c, 0, 72, 72
2, 33300, Note_on_c, 0, 72, 0
2, 33300, Note_on_c, 0, 75, 72
2, 33360, Note_on_c, 0, 75, 0
2, 33360, Note_on_c, 0, 79, 72
2, 33420, Note_on_c, 0, 79, 0
2, 33420, Note_on_c, 0, 84, 72
2, 33480, Note_on_c, 0, 84, 0
2, 33480, Note_on_c, 0, 81, 72
2, 33540, Note_on_c, 0, 81, 0
2, 33540, Note_on_c, 0, 87, 72
2, 33600, Note_on_c, 0, 87, 0
2, 33600, Note_on_c, 0, 86, 72
2, 33660, Note_on_c, 0, 86, 0
2, 33660, Note_on_c, 0, 84, 72
2, 33720, Note_on_c, 0, 84, 0
2, 33720, Note_on_c, 0, 82, 72
2, 33780, Note_on_c, 0, 82, 0
2, 33780, Note_on_c, 0, 81, 72
2, 33840, Note_on_c, 0, 81, 0
2, 33840, Note_on_c, 0, 79, 72
2, 33900, Note_on_c, 0, 79, 0
2, 33900, Note_on_c, 0, 77, 72
2, 33960, Note_on_c, 0, 77, 0
2, 33960, Note_on_c, 0, 75, 72
2, 34020, Note_on_c, 0, 75, 0
2, 34020, Note_on_c, 0, 74, 72
2, 34080, Note_on_c, 0, 74, 0
2, 34080, Note_on_c, 0, 72, 72
2, 34140, Note_on_c, 0, 72, 0
2, 34140, Note_on_c, 0, 70, 72
2, 34200, Note_on_c, 0, 70, 0
2, 34200, Note_on_c, 0, 69, 72
2, 34260, Note_on_c, 0, 69, 0
2, 34260, Note_on_c, 0, 67, 72
2, 34320, Note_on_c, 0, 67, 0
2, 34320, Note_on_c, 0, 65, 72
2, 34380, Note_on_c, 0, 65, 0
2, 34380, Note_on_c, 0, 63, 72
2, 34440, Note_on_c, 0, 63, 0
2, 34440, Note_on_c, 0, 62, 72
2, 34500, Note_on_c, 0, 62, 0
2, 34500, Note_on_c, 0, 60, 72
2, 34560, Note_on_c, 0, 60, 0
2, 34560, Note_on_c, 0, 58, 72
2, 34620, Note_on_c, 0, 58, 0
2, 34620, Note_on_c, 0, 57, 72
2, 34680, Note_on_c, 0, 57, 0
2, 34680, Note_on_c, 0, 55, 72
2, 34740, Note_on_c, 0, 55, 0
2, 34740, Note_on_c, 0, 53, 72
2, 34800, Note_on_c, 0, 53, 0
2, 34800, Note_on_c, 0, 55, 72
2, 34860, Note_on_c, 0, 55, 0
2, 34860, Note_on_c, 0, 57, 72
2, 34920, Note_on_c, 0, 57, 0
2, 34920, Note_on_c, 0, 58, 72
2, 34980, Note_on_c, 0, 58, 0
2, 34980, Note_on_c, 0, 53, 72
2, 35040, Note_on_c, 0, 53, 0
2, 35040, Note_on_c, 0, 62, 72
2, 35100, Note_on_c, 0, 62, 0
2, 35100, Note_on_c, 0, 62, 72
2, 35160, Note_on_c, 0, 62, 0
2, 35160, Note_on_c, 0, 58, 72
2, 35220, Note_on_c, 0, 58, 0
2, 35220, Note_on_c, 0, 65, 72
2, 35280, Note_on_c, 0, 65, 0
2, 35280, Note_on_c, 0, 65, 72
2, 35340, Note_on_c, 0, 65, 0
2, 35340, Note_on_c, 0, 62, 72
2, 35400, Note_on_c, 0, 62, 0
2, 35400, Note_on_c, 0, 70, 72
2, 35460, Note_on_c, 0, 70, 0
2, 35460, Note_on_c, 0, 70, 72
2, 35520, Note_on_c, 0, 70, 0
2, 35520, Note_on_c, 0, 65, 72
2, 35580, Note_on_c, 0, 65, 0
2, 35580, Note_on_c, 0, 74, 72
2, 35640, Note_on_c, 0, 74, 0
2, 35640, Note_on_c, 0, 74, 72
2, 35700, Note_on_c, 0, 74, 0
2, 35700, Note_on_c, 0, 70, 72
2, 35760, Note_on_c, 0, 70, 0
2, 35760, Note_on_c, 0, 77, 72
2, 35820, Note_on_c, 0, 77, 0
2, 35820, Note_on_c, 0, 77, 72
2, 35940, Note_on_c, 0, 77, 0
2, 35940, Note_on_c, 0, 72, 72
2, 35940, Note_on_c, 0, 75, 72
2, 36000, Note_on_c, 0, 75, 0
2, 36000, Note_on_c, 0, 72, 0
2, 36000, Note_on_c, 0, 70, 72
2, 36000, Note_on_c, 0, 74, 72
2, 36060, Note_on_c, 0, 74, 0
2, 36060, Note_on_c, 0, 70, 0
2, 36060, Note_on_c, 0, 72, 72
2, 36060, Note_on_c, 0, 75, 72
2, 36120, Note_on_c, 0, 75, 0
2, 36120, Note_on_c, 0, 72, 0
2, 36120, Note_on_c, 0, 74, 72
2, 36120, Note_on_c, 0, 77, 72
2, 36180, Note_on_c, 0, 77, 0
2, 36180, Note_on_c, 0, 74, 0
2, 36180, Note_on_c, 0, 75, 72
2, 36180, Note_on_c, 0, 79, 72
2, 36240, Note_on_c, 0, 79, 0
2, 36240, Note_on_c, 0, 75, 0
2, 36240, Note_on_c, 0, 72, 72
2, 36240, Note_on_c, 0, 75, 72
2, 36300, Note_on_c, 0, 75, 0
2, 36300, Note_on_c, 0, 72, 0
2, 36300, Note_on_c, 0, 70, 72
2, 36300, Note_on_c, 0, 74, 72
2, 36360, Note_on_c, 0, 74, 0
2, 36360, Note_on_c, 0, 70, 0
2, 36360, Note_on_c, 0, 69, 72
2, 36360, Note_on_c, 0, 72, 72
2, 36420, Note_on_c, 0, 72, 0
2, 36420, Note_on_c, 0, 69, 0
2, 36420, Note_on_c, 0, 69, 72
2, 36420, Note_on_c, 0, 72, 72
2, 36480, Note_on_c, 0, 72, 0
2, 36480, Note_on_c, 0, 69, 0
2, 36480, Note_on_c, 0, 72, 72
2, 36480, Note_on_c, 0, 75, 72
2, 36510, Note_on_c, 0, 75, 0
2, 36510, Note_on_c, 0, 72, 0
2, 36510, Note_on_c, 0, 70, 72
2, 36510, Note_on_c, 0, 74, 72
2, 36540, Note_on_c, 0, 74, 0
2, 36540, Note_on_c, 0, 70, 0
2, 36540, Note_on_c, 0, 69, 72
2, 36540, Note_on_c, 0, 72, 72
2, 36660, Note_on_c, 0, 72, 0
2, 36660, Note_on_c, 0, 69, 0
2, 36660, Note_on_c, 0, 65, 72
2, 36690, Note_on_c, 0, 65, 0
2, 36705, Note_on_c, 0, 67, 72
2, 36720, Note_on_c, 0, 67, 0
2, 36720, Note_on_c, 0, 65, 72
2, 36780, Note_on_c, 0, 65, 0
2, 36780, Note_on_c, 0, 62, 72
2, 36840, Note_on_c, 0, 62, 0
2, 36840, Note_on_c, 0, 70, 72
2, 36870, Note_on_c, 0, 70, 0
2, 36885, Note_on_c, 0, 72, 72
2, 36900, Note_on_c, 0, 72, 0
2, 36900, Note_on_c, 0, 70, 72
2, 36960, Note_on_c, 0, 70, 0
2, 36960, Note_on_c, 0, 65, 72
2, 37020, Note_on_c, 0, 65, 0
2, 37020, Note_on_c, 0, 74, 72
2, 37050, Note_on_c, 0, 74, 0
2, 37065, Note_on_c, 0, 75, 72
2, 37080, Note_on_c, 0, 75, 0
2, 37080, Note_on_c, 0, 74, 72
2, 37140, Note_on_c, 0, 74, 0
2, 37140, Note_on_c, 0, 70, 72
2, 37200, Note_on_c, 0, 70, 0
2, 37200, Note_on_c, 0, 77, 72
2, 37260, Note_on_c, 0, 77, 0
2, 37260, Note_on_c, 0, 77, 72
2, 37380, Note_on_c, 0, 77, 0
2, 37380, Note_on_c, 0, 79, 72
2, 37380, Note_on_c, 0, 76, 72
2, 37440, Note_on_c, 0, 76, 0
2, 37440, Note_on_c, 0, 79, 0
2, 37440, Note_on_c, 0, 81, 72
2, 37440, Note_on_c, 0, 77, 72
2, 37500, Note_on_c, 0, 77, 0
2, 37500, Note_on_c, 0, 81, 0
2, 37500, Note_on_c, 0, 82, 72
2, 37500, Note_on_c, 0, 79, 72
2, 37560, Note_on_c, 0, 79, 0
2, 37560, Note_on_c, 0, 82, 0
2, 37560, Note_on_c, 0, 84, 72
2, 37560, Note_on_c, 0, 81, 72
2, 37620, Note_on_c, 0, 81, 0
2, 37620, Note_on_c, 0, 84, 0
2, 37620, Note_on_c, 0, 82, 72
2, 37620, Note_on_c, 0, 79, 72
2, 37680, Note_on_c, 0, 79, 0
2, 37680, Note_on_c, 0, 82, 0
2, 37680, Note_on_c, 0, 81, 72
2, 37680, Note_on_c, 0, 77, 72
2, 37740, Note_on_c, 0, 77, 0
2, 37740, Note_on_c, 0, 81, 0
2, 37740, Note_on_c, 0, 76, 72
2, 37740, Note_on_c, 0, 79, 72
2, 37800, Note_on_c, 0, 79, 0
2, 37800, Note_on_c, 0, 76, 0
2, 37800, Note_on_c, 0, 69, 72
2, 37800, Note_on_c, 0, 77, 72
2, 37860, Note_on_c, 0, 77, 0
2, 37860, Note_on_c, 0, 69, 0
2, 37860, Note_on_c, 0, 69, 72
2, 37860, Note_on_c, 0, 77, 72
2, 37920, Note_on_c, 0, 77, 0
2, 37920, Note_on_c, 0, 69, 0
2, 37920, Note_on_c, 0, 69, 72
2, 37920, Note_on_c, 0, 77, 72
2, 37980, Note_on_c, 0, 77, 0
2, 37980, Note_on_c, 0, 69, 0
2, 37980, Note_on_c, 0, 69, 72
2, 37980, Note_on_c, 0, 77, 72
2, 38040, Note_on_c, 0, 77, 0
2, 38040, Note_on_c, 0, 69, 0
2, 38055, Note_on_c, 0, 72, 72
2, 38070, Note_on_c, 0, 72, 0
2, 38070, Note_on_c, 0, 74, 72
2, 38085, Note_on_c, 0, 74, 0
2, 38085, Note_on_c, 0, 75, 72
2, 38100, Note_on_c, 0, 75, 0
2, 38100, Note_on_c, 0, 77, 72
2, 38115, Note_on_c, 0, 77, 0
2, 38115, Note_on_c, 0, 79, 72
2, 38130, Note_on_c, 0, 79, 0
2, 38130, Note_on_c, 0, 81, 72
2, 38145, Note_on_c, 0, 81, 0
2, 38145, Note_on_c, 0, 82, 72
2, 38160, Note_on_c, 0, 82, 0
2, 38160, Note_on_c, 0, 84, 90
2, 38280, Note_on_c, 0, 84, 0
2, 38280, Note_on_c, 0, 82, 90
2, 38310, Note_on_c, 0, 82, 0
2, 38325, Note_on_c, 0, 82, 90
2, 38340, Note_on_c, 0, 82, 0
2, 38340, Note_on_c, 0, 81, 90
2, 38400, Note_on_c, 0, 81, 0
2, 38400, Note_on_c, 0, 79, 90
2, 38460, Note_on_c, 0, 79, 0
2, 38460, Note_on_c, 0, 81, 90
2, 38520, Note_on_c, 0, 81, 0
2, 38520, Note_on_c, 0, 82, 90
2, 38640, Note_on_c, 0, 82, 0
2, 38640, Note_on_c, 0, 77, 90
2, 38700, Note_on_c, 0, 77, 0
2, 38700, Note_on_c, 0, 74, 90
2, 38820, Note_on_c, 0, 74, 0
2, 38820, Note_on_c, 0, 82, 90
2, 38850, Note_on_c, 0, 82, 0
2, 38865, Note_on_c, 0, 86, 80
2, 38880, Note_on_c, 0, 86, 0
2, 38880, Note_on_c, 0, 84, 90
2, 39000, Note_on_c, 0, 84, 0
2, 39000, Note_on_c, 0, 82, 90
2, 39030, Note_on_c, 0, 82, 0
2, 39045, Note_on_c, 0, 82, 80
2, 39060, Note_on_c, 0, 82, 0
2, 39060, Note_on_c, 0, 81, 90
2, 39120, Note_on_c, 0, 81, 0
2, 39120, Note_on_c, 0, 79, 90
2, 39180, Note_on_c, 0, 79, 0
2, 39180, Note_on_c, 0, 81, 90
2, 39240, Note_on_c, 0, 81, 0
2, 39240, Note_on_c, 0, 82, 90
2, 39360, Note_on_c, 0, 82, 0
2, 39360, Note_on_c, 0, 77, 90
2, 39420, Note_on_c, 0, 77, 0
2, 39420, Note_on_c, 0, 82, 90
2, 39540, Note_on_c, 0, 82, 0
2, 39540, Note_on_c, 0, 86, 90
2, 39570, Note_on_c, 0, 86, 0
2, 39585, Note_on_c, 0, 86, 80
2, 39600, Note_on_c, 0, 86, 0
2, 39600, Note_on_c, 0, 84, 90
2, 39720, Note_on_c, 0, 84, 0
2, 39720, Note_on_c, 0, 82, 90
2, 39750, Note_on_c, 0, 82, 0
2, 39765, Note_on_c, 0, 82, 80
2, 39780, Note_on_c, 0, 82, 0
2, 39780, Note_on_c, 0, 81, 90
2, 39840, Note_on_c, 0, 81, 0
2, 39840, Note_on_c, 0, 79, 90
2, 39900, Note_on_c, 0, 79, 0
2, 39900, Note_on_c, 0, 81, 90
2, 39960, Note_on_c, 0, 81, 0
2, 39960, Note_on_c, 0, 82, 90
2, 40140, Note_on_c, 0, 82, 0
2, 40140, Note_on_c, 0, 77, 90
2, 40260, Note_on_c, 0, 77, 0
2, 40260, Note_on_c, 0, 78, 90
2, 40320, Note_on_c, 0, 78, 0
2, 40320, Note_on_c, 0, 79, 90
2, 40440, Note_on_c, 0, 79, 0
2, 40440, Note_on_c, 0, 79, 90
2, 40470, Note_on_c, 0, 79, 0
2, 40485, Note_on_c, 0, 81, 90
2, 40500, Note_on_c, 0, 81, 0
2, 40500, Note_on_c, 0, 79, 90
2, 40560, Note_on_c, 0, 79, 0
2, 40560, Note_on_c, 0, 78, 90
2, 40620, Note_on_c, 0, 78, 0
2, 40620, Note_on_c, 0, 79, 90
2, 40680, Note_on_c, 0, 79, 0
2, 40680, Note_on_c, 0, 81, 90
2, 40800, Note_on_c, 0, 81, 0
2, 40800, Note_on_c, 0, 78, 90
2, 40860, Note_on_c, 0, 78, 0
2, 40860, Note_on_c, 0, 74, 90
2, 40980, Note_on_c, 0, 74, 0
2, 40980, Note_on_c, 0, 78, 90
2, 41040, Note_on_c, 0, 78, 0
2, 41040, Note_on_c, 0, 79, 87
2, 41055, Note_on_c, 0, 79, 0
2, 41055, Note_on_c, 0, 81, 88
2, 41070, Note_on_c, 0, 81, 0
2, 41070, Note_on_c, 0, 79, 88
2, 41085, Note_on_c, 0, 79, 0
2, 41085, Note_on_c, 0, 81, 88
2, 41100, Note_on_c, 0, 81, 0
2, 41100, Note_on_c, 0, 79, 89
2, 41115, Note_on_c, 0, 79, 0
2, 41115, Note_on_c, 0, 81, 89
2, 41130, Note_on_c, 0, 81, 0
2, 41130, Note_on_c, 0, 79, 89
2, 41145, Note_on_c, 0, 79, 0
2, 41145, Note_on_c, 0, 81, 89
2, 41160, Note_on_c, 0, 81, 0
2, 41160, Note_on_c, 0, 82, 88
2, 41220, Note_on_c, 0, 82, 0
2, 41220, Note_on_c, 0, 79, 88
2, 41235, Note_on_c, 0, 79, 0
2, 41235, Note_on_c, 0, 81, 89
2, 41250, Note_on_c, 0, 81, 0
2, 41250, Note_on_c, 0, 79, 90
2, 41265, Note_on_c, 0, 79, 0
2, 41265, Note_on_c, 0, 81, 90
2, 41280, Note_on_c, 0, 81, 0
2, 41280, Note_on_c, 0, 79, 90
2, 41295, Note_on_c, 0, 79, 0
2, 41295, Note_on_c, 0, 81, 90
2, 41310, Note_on_c, 0, 81, 0
2, 41310, Note_on_c, 0, 79, 90
2, 41325, Note_on_c, 0, 79, 0
2, 41325, Note_on_c, 0, 81, 90
2, 41340, Note_on_c, 0, 81, 0
2, 41340, Note_on_c, 0, 82, 89
2, 41400, Note_on_c, 0, 82, 0
2, 41400, Note_on_c, 0, 79, 89
2, 41415, Note_on_c, 0, 79, 0
2, 41415, Note_on_c, 0, 81, 90
2, 41430, Note_on_c, 0, 81, 0
2, 41430, Note_on_c, 0, 79, 91
2, 41445, Note_on_c, 0, 79, 0
2, 41445, Note_on_c, 0, 81, 91
2, 41460, Note_on_c, 0, 81, 0
2, 41460, Note_on_c, 0, 79, 92
2, 41475, Note_on_c, 0, 79, 0
2, 41475, Note_on_c, 0, 81, 92
2, 41490, Note_on_c, 0, 81, 0
2, 41490, Note_on_c, 0, 79, 92
2, 41505, Note_on_c, 0, 79, 0
2, 41505, Note_on_c, 0, 81, 92
2, 41520, Note_on_c, 0, 81, 0
2, 41520, Note_on_c, 0, 82, 92
2, 41580, Note_on_c, 0, 82, 0
2, 41580, Note_on_c, 0, 72, 89
2, 41640, Note_on_c, 0, 72, 0
2, 41640, Note_on_c, 0, 74, 90
2, 41700, Note_on_c, 0, 74, 0
2, 41700, Note_on_c, 0, 76, 90
2, 41760, Note_on_c, 0, 76, 0
2, 41760, Note_on_c, 0, 79, 85
2, 41775, Note_on_c, 0, 79, 0
2, 41775, Note_on_c, 0, 81, 86
2, 41790, Note_on_c, 0, 81, 0
2, 41790, Note_on_c, 0, 79, 88
2, 41805, Note_on_c, 0, 79, 0
2, 41805, Note_on_c, 0, 81, 89
2, 41820, Note_on_c, 0, 81, 0
2, 41820, Note_on_c, 0, 79, 89
2, 41835, Note_on_c, 0, 79, 0
2, 41835, Note_on_c, 0, 81, 89
2, 41850, Note_on_c, 0, 81, 0
2, 41850, Note_on_c, 0, 79, 89
2, 41865, Note_on_c, 0, 79, 0
2, 41865, Note_on_c, 0, 81, 89
2, 41880, Note_on_c, 0, 81, 0
2, 41880, Note_on_c, 0, 81, 89
2, 41940, Note_on_c, 0, 81, 0
2, 41940, Note_on_c, 0, 72, 87
2, 42000, Note_on_c, 0, 72, 0
2, 42000, Note_on_c, 0, 74, 94
2, 42060, Note_on_c, 0, 74, 0
2, 42060, Note_on_c, 0, 76, 100
2, 42120, Note_on_c, 0, 76, 0
2, 42120, Note_on_c, 0, 79, 90
2, 42135, Note_on_c, 0, 79, 0
2, 42135, Note_on_c, 0, 77, 87
2, 42150, Note_on_c, 0, 77, 0
2, 42150, Note_on_c, 0, 79, 89
2, 42165, Note_on_c, 0, 79, 0
2, 42165, Note_on_c, 0, 77, 90
2, 42180, Note_on_c, 0, 77, 0
2, 42180, Note_on_c, 0, 79, 91
2, 42195, Note_on_c, 0, 79, 0
2, 42195, Note_on_c, 0, 77, 91
2, 42210, Note_on_c, 0, 77, 0
2, 42210, Note_on_c, 0, 79, 91
2, 42225, Note_on_c, 0, 79, 0
2, 42225, Note_on_c, 0, 77, 90
2, 42240, Note_on_c, 0, 77, 0
2, 42240, Note_on_c, 0, 81, 90
2, 42300, Note_on_c, 0, 81, 0
2, 42300, Note_on_c, 0, 72, 87
2, 42360, Note_on_c, 0, 72, 0
2, 42360, Note_on_c, 0, 74, 91
2, 42420, Note_on_c, 0, 74, 0
2, 42420, Note_on_c, 0, 76, 93
2, 42480, Note_on_c, 0, 76, 0
2, 42480, Note_on_c, 0, 77, 93
2, 42495, Note_on_c, 0, 77, 0
2, 42495, Note_on_c, 0, 79, 93
2, 42510, Note_on_c, 0, 79, 0
2, 42510, Note_on_c, 0, 77, 92
2, 42525, Note_on_c, 0, 77, 0
2, 42525, Note_on_c, 0, 79, 92
2, 42540, Note_on_c, 0, 79, 0
2, 42540, Note_on_c, 0, 77, 91
2, 42555, Note_on_c, 0, 77, 0
2, 42555, Note_on_c, 0, 79, 91
2, 42570, Note_on_c, 0, 79, 0
2, 42570, Note_on_c, 0, 77, 91
2, 42585, Note_on_c, 0, 77, 0
2, 42585, Note_on_c, 0, 79, 91
2, 42600, Note_on_c, 0, 79, 0
2, 42600, Note_on_c, 0, 81, 91
2, 42660, Note_on_c, 0, 81, 0
2, 42660, Note_on_c, 0, 77, 90
2, 42675, Note_on_c, 0, 77, 0
2, 42675, Note_on_c, 0, 79, 90
2, 42690, Note_on_c, 0, 79, 0
2, 42690, Note_on_c, 0, 77, 90
2, 42705, Note_on_c, 0, 77, 0
2, 42705, Note_on_c, 0, 79, 90
2, 42720, Note_on_c, 0, 79, 0
2, 42720, Note_on_c, 0, 77, 90
2, 42735, Note_on_c, 0, 77, 0
2, 42735, Note_on_c, 0, 79, 90
2, 42750, Note_on_c, 0, 79, 0
2, 42750, Note_on_c, 0, 77, 90
2, 42765, Note_on_c, 0, 77, 0
2, 42765, Note_on_c, 0, 79, 89
2, 42780, Note_on_c, 0, 79, 0
2, 42780, Note_on_c, 0, 84, 88
2, 42840, Note_on_c, 0, 84, 0
2, 42840, Note_on_c, 0, 79, 85
2, 42855, Note_on_c, 0, 79, 0
2, 42855, Note_on_c, 0, 77, 85
2, 42870, Note_on_c, 0, 77, 0
2, 42870, Note_on_c, 0, 79, 85
2, 42885, Note_on_c, 0, 79, 0
2, 42885, Note_on_c, 0, 77, 85
2, 42900, Note_on_c, 0, 77, 0
2, 42900, Note_on_c, 0, 79, 85
2, 42915, Note_on_c, 0, 79, 0
2, 42915, Note_on_c, 0, 77, 85
2, 42930, Note_on_c, 0, 77, 0
2, 42930, Note_on_c, 0, 79, 85
2, 42945, Note_on_c, 0, 79, 0
2, 42945, Note_on_c, 0, 77, 86
2, 42960, Note_on_c, 0, 77, 0
2, 42960, Note_on_c, 0, 81, 87
2, 43020, Note_on_c, 0, 81, 0
2, 43020, Note_on_c, 0, 79, 87
2, 43035, Note_on_c, 0, 79, 0
2, 43035, Note_on_c, 0, 77, 87
2, 43050, Note_on_c, 0, 77, 0
2, 43050, Note_on_c, 0, 79, 88
2, 43065, Note_on_c, 0, 79, 0
2, 43065, Note_on_c, 0, 77, 88
2, 43080, Note_on_c, 0, 77, 0
2, 43080, Note_on_c, 0, 79, 88
2, 43095, Note_on_c, 0, 79, 0
2, 43095, Note_on_c, 0, 77, 88
2, 43110, Note_on_c, 0, 77, 0
2, 43110, Note_on_c, 0, 79, 88
2, 43125, Note_on_c, 0, 79, 0
2, 43125, Note_on_c, 0, 77, 89
2, 43140, Note_on_c, 0, 77, 0
2, 43140, Note_on_c, 0, 84, 89
2, 43200, Note_on_c, 0, 84, 0
2, 43200, Note_on_c, 0, 81, 91
2, 43260, Note_on_c, 0, 81, 0
2, 43260, Note_on_c, 0, 87, 92
2, 43320, Note_on_c, 0, 87, 0
2, 43320, Note_on_c, 0, 84, 91
2, 43380, Note_on_c, 0, 84, 0
2, 43380, Note_on_c, 0, 81, 90
2, 43440, Note_on_c, 0, 81, 0
2, 43440, Note_on_c, 0, 77, 91
2, 43500, Note_on_c, 0, 77, 0
2, 43500, Note_on_c, 0, 76, 91
2, 43560, Note_on_c, 0, 76, 0
2, 43560, Note_on_c, 0, 75, 87
2, 43620, Note_on_c, 0, 75, 0
2, 43620, Note_on_c, 0, 72, 89
2, 43680, Note_on_c, 0, 72, 0
2, 43680, Note_on_c, 0, 69, 94
2, 43740, Note_on_c, 0, 69, 0
2, 43740, Note_on_c, 0, 65, 95
2, 43800, Note_on_c, 0, 65, 0
2, 43800, Note_on_c, 0, 64, 96
2, 43860, Note_on_c, 0, 64, 0
2, 43860, Note_on_c, 0, 63, 94
2, 43920, Note_on_c, 0, 63, 0
2, 43920, Note_on_c, 0, 62, 94
2, 43980, Note_on_c, 0, 62, 0
2, 43980, Note_on_c, 0, 58, 93
2, 44040, Note_on_c, 0, 58, 0
2, 44040, Note_on_c, 0, 65, 96
2, 44100, Note_on_c, 0, 65, 0
2, 44100, Note_on_c, 0, 65, 98
2, 44160, Note_on_c, 0, 65, 0
2, 44160, Note_on_c, 0, 62, 98
2, 44220, Note_on_c, 0, 62, 0
2, 44220, Note_on_c, 0, 70, 97
2, 44280, Note_on_c, 0, 70, 0
2, 44280, Note_on_c, 0, 70, 96
2, 44340, Note_on_c, 0, 70, 0
2, 44340, Note_on_c, 0, 65, 95
2, 44400, Note_on_c, 0, 65, 0
2, 44400, Note_on_c, 0, 74, 95
2, 44460, Note_on_c, 0, 74, 0
2, 44460, Note_on_c, 0, 77, 95
2, 44580, Note_on_c, 0, 77, 0
2, 44580, Note_on_c, 0, 72, 98
2, 44580, Note_on_c, 0, 75, 98
2, 44640, Note_on_c, 0, 75, 0
2, 44640, Note_on_c, 0, 72, 0
2, 44640, Note_on_c, 0, 70, 101
2, 44640, Note_on_c, 0, 74, 101
2, 44700, Note_on_c, 0, 74, 0
2, 44700, Note_on_c, 0, 70, 0
2, 44700, Note_on_c, 0, 75, 102
2, 44700, Note_on_c, 0, 72, 102
2, 44760, Note_on_c, 0, 72, 0
2, 44760, Note_on_c, 0, 75, 0
2, 44760, Note_on_c, 0, 77, 102
2, 44760, Note_on_c, 0, 74, 102
2, 44820, Note_on_c, 0, 74, 0
2, 44820, Note_on_c, 0, 77, 0
2, 44820, Note_on_c, 0, 79, 102
2, 44820, Note_on_c, 0, 75, 102
2, 44880, Note_on_c, 0, 75, 0
2, 44880, Note_on_c, 0, 79, 0
2, 44880, Note_on_c, 0, 72, 101
2, 44880, Note_on_c, 0, 75, 101
2, 44940, Note_on_c, 0, 75, 0
2, 44940, Note_on_c, 0, 72, 0
2, 44940, Note_on_c, 0, 70, 99
2, 44940, Note_on_c, 0, 74, 99
2, 45000, Note_on_c, 0, 74, 0
2, 45000, Note_on_c, 0, 70, 0
2, 45000, Note_on_c, 0, 72, 98
2, 45000, Note_on_c, 0, 69, 98
2, 45060, Note_on_c, 0, 69, 0
2, 45060, Note_on_c, 0, 72, 0
2, 45060, Note_on_c, 0, 69, 99
2, 45060, Note_on_c, 0, 72, 99
2, 45120, Note_on_c, 0, 72, 0
2, 45120, Note_on_c, 0, 69, 0
2, 45120, Note_on_c, 0, 72, 99
2, 45120, Note_on_c, 0, 75, 99
2, 45150, Note_on_c, 0, 75, 0
2, 45150, Note_on_c, 0, 72, 0
2, 45150, Note_on_c, 0, 70, 99
2, 45150, Note_on_c, 0, 74, 99
2, 45180, Note_on_c, 0, 74, 0
2, 45180, Note_on_c, 0, 70, 0
2, 45180, Note_on_c, 0, 69, 98
2, 45180, Note_on_c, 0, 72, 98
2, 45300, Note_on_c, 0, 72, 0
2, 45300, Note_on_c, 0, 69, 0
2, 45300, Note_on_c, 0, 65, 93
2, 45330, Note_on_c, 0, 65, 0
2, 45345, Note_on_c, 0, 67, 95
2, 45360, Note_on_c, 0, 67, 0
2, 45360, Note_on_c, 0, 65, 95
2, 45420, Note_on_c, 0, 65, 0
2, 45420, Note_on_c, 0, 62, 96
2, 45480, Note_on_c, 0, 62, 0
2, 45480, Note_on_c, 0, 70, 97
2, 45510, Note_on_c, 0, 70, 0
2, 45525, Note_on_c, 0, 72, 97
2, 45540, Note_on_c, 0, 72, 0
2, 45540, Note_on_c, 0, 70, 96
2, 45600, Note_on_c, 0, 70, 0
2, 45600, Note_on_c, 0, 65, 91
2, 45660, Note_on_c, 0, 65, 0
2, 45660, Note_on_c, 0, 74, 91
2, 45690, Note_on_c, 0, 74, 0
2, 45705, Note_on_c, 0, 75, 91
2, 45720, Note_on_c, 0, 75, 0
2, 45720, Note_on_c, 0, 74, 91
2, 45780, Note_on_c, 0, 74, 0
2, 45780, Note_on_c, 0, 70, 94
2, 45840, Note_on_c, 0, 70, 0
2, 45840, Note_on_c, 0, 77, 95
2, 45900, Note_on_c, 0, 77, 0
2, 45900, Note_on_c, 0, 70, 95
2, 45900, Note_on_c, 0, 74, 95
2, 45900, Note_on_c, 0, 77, 95
2, 45960, Note_on_c, 0, 77, 0
2, 45960, Note_on_c, 0, 74, 0
2, 45960, Note_on_c, 0, 70, 0
2, 46020, Note_on_c, 0, 79, 96
2, 46020, Note_on_c, 0, 75, 96
2, 46080, Note_on_c, 0, 75, 0
2, 46080, Note_on_c, 0, 79, 0
2, 46080, Note_on_c, 0, 74, 98
2, 46080, Note_on_c, 0, 77, 98
2, 46140, Note_on_c, 0, 77, 0
2, 46140, Note_on_c, 0, 74, 0
2, 46140, Note_on_c, 0, 72, 99
2, 46140, Note_on_c, 0, 75, 99
2, 46200, Note_on_c, 0, 75, 0
2, 46200, Note_on_c, 0, 72, 0
2, 46200, Note_on_c, 0, 70, 96
2, 46200, Note_on_c, 0, 74, 96
2, 46260, Note_on_c, 0, 74, 0
2, 46260, Note_on_c, 0, 70, 0
2, 46260, Note_on_c, 0, 63, 95
2, 46260, Note_on_c, 0, 72, 95
2, 46320, Note_on_c, 0, 72, 0
2, 46320, Note_on_c, 0, 63, 0
2, 46320, Note_on_c, 0, 62, 95
2, 46320, Note_on_c, 0, 70, 95
2, 46380, Note_on_c, 0, 70, 0
2, 46380, Note_on_c, 0, 62, 0
2, 46380, Note_on_c, 0, 60, 99
2, 46380, Note_on_c, 0, 69, 99
2, 46440, Note_on_c, 0, 69, 0
2, 46440, Note_on_c, 0, 60, 0
2, 46440, Note_on_c, 0, 62, 103
2, 46440, Note_on_c, 0, 70, 103
2, 46560, Note_on_c, 0, 70, 0
2, 46560, Note_on_c, 0, 62, 0
2, 46740, Note_on_c, 0, 82, 96
2, 46768, Note_on_c, 0, 82, 0
2, 46770, Note_on_c, 0, 82, 74
2, 46785, Note_on_c, 0, 82, 0
2, 46785, Note_on_c, 0, 84, 74
2, 46800, Note_on_c, 0, 84, 0
2, 46800, Note_on_c, 0, 86, 96
2, 46860, Note_on_c, 0, 86, 0
2, 46860, Note_on_c, 0, 84, 96
2, 46920, Note_on_c, 0, 84, 0
2, 46920, Note_on_c, 0, 82, 96
2, 46949, Note_on_c, 0, 82, 0
2, 46965, Note_on_c, 0, 84, 74
2, 46980, Note_on_c, 0, 84, 0
2, 46980, Note_on_c, 0, 82, 96
2, 47040, Note_on_c, 0, 82, 0
2, 47040, Note_on_c, 0, 81, 96
2, 47100, Note_on_c, 0, 81, 0
2, 47100, Note_on_c, 0, 79, 96
2, 47160, Note_on_c, 0, 79, 0
2, 47160, Note_on_c, 0, 78, 74
2, 47190, Note_on_c, 0, 78, 0
2, 47190, Note_on_c, 0, 76, 74
2, 47220, Note_on_c, 0, 76, 0
2, 47220, Note_on_c, 0, 74, 74
2, 47250, Note_on_c, 0, 74, 0
2, 47250, Note_on_c, 0, 76, 74
2, 47280, Note_on_c, 0, 76, 0
2, 47280, Note_on_c, 0, 78, 74
2, 47295, Note_on_c, 0, 78, 0
2, 47295, Note_on_c, 0, 79, 74
2, 47310, Note_on_c, 0, 79, 0
2, 47310, Note_on_c, 0, 81, 74
2, 47325, Note_on_c, 0, 81, 0
2, 47325, Note_on_c, 0, 82, 74
2, 47340, Note_on_c, 0, 82, 0
2, 47340, Note_on_c, 0, 84, 75
2, 47370, Note_on_c, 0, 84, 0
2, 47370, Note_on_c, 0, 82, 75
2, 47400, Note_on_c, 0, 82, 0
2, 47400, Note_on_c, 0, 81, 75
2, 47430, Note_on_c, 0, 81, 0
2, 47430, Note_on_c, 0, 82, 75
2, 47460, Note_on_c, 0, 82, 0
2, 47460, Note_on_c, 0, 84, 75
2, 47490, Note_on_c, 0, 84, 0
2, 47490, Note_on_c, 0, 86, 75
2, 47505, Note_on_c, 0, 86, 0
2, 47505, Note_on_c, 0, 84, 75
2, 47510, Note_on_c, 0, 84, 0
2, 47510, Note_on_c, 0, 86, 75
2, 47515, Note_on_c, 0, 86, 0
2, 47520, Note_on_c, 0, 87, 75
2, 47580, Note_on_c, 0, 87, 0
2, 47580, Note_on_c, 0, 86, 76
2, 47640, Note_on_c, 0, 86, 0
2, 47640, Note_on_c, 0, 84, 76
2, 47669, Note_on_c, 0, 84, 0
2, 47685, Note_on_c, 0, 86, 75
2, 47700, Note_on_c, 0, 86, 0
2, 47700, Note_on_c, 0, 84, 75
2, 47760, Note_on_c, 0, 84, 0
2, 47760, Note_on_c, 0, 82, 75
2, 47820, Note_on_c, 0, 82, 0
2, 47820, Note_on_c, 0, 81, 74
2, 47880, Note_on_c, 0, 81, 0
2, 47880, Note_on_c, 0, 82, 73
2, 48060, Note_on_c, 0, 82, 0
2, 48060, Note_on_c, 0, 86, 67
2, 48180, Note_on_c, 0, 86, 0
2, 48180, Note_on_c, 0, 82, 71
2, 48209, Note_on_c, 0, 82, 0
2, 48210, Note_on_c, 0, 82, 71
2, 48225, Note_on_c, 0, 82, 0
2, 48225, Note_on_c, 0, 84, 71
2, 48240, Note_on_c, 0, 84, 0
2, 48240, Note_on_c, 0, 86, 72
2, 48300, Note_on_c, 0, 86, 0
2, 48300, Note_on_c, 0, 84, 73
2, 48360, Note_on_c, 0, 84, 0
2, 48360, Note_on_c, 0, 82, 73
2, 48390, Note_on_c, 0, 82, 0
2, 48405, Note_on_c, 0, 84, 73
2, 48420, Note_on_c, 0, 84, 0
2, 48420, Note_on_c, 0, 82, 74
2, 48480, Note_on_c, 0, 82, 0
2, 48480, Note_on_c, 0, 81, 74
2, 48540, Note_on_c, 0, 81, 0
2, 48540, Note_on_c, 0, 79, 74
2, 48600, Note_on_c, 0, 79, 0
2, 48600, Note_on_c, 0, 77, 74
2, 48660, Note_on_c, 0, 77, 0
2, 48660, Note_on_c, 0, 75, 74
2, 48720, Note_on_c, 0, 75, 0
2, 48720, Note_on_c, 0, 74, 74
2, 48780, Note_on_c, 0, 74, 0
2, 48780, Note_on_c, 0, 72, 74
2, 48840, Note_on_c, 0, 72, 0
2, 48840, Note_on_c, 0, 70, 74
2, 48900, Note_on_c, 0, 70, 0
2, 48900, Note_on_c, 0, 69, 74
2, 48960, Note_on_c, 0, 69, 0
2, 48960, Note_on_c, 0, 67, 74
2, 49020, Note_on_c, 0, 67, 0
2, 49020, Note_on_c, 0, 69, 74
2, 49080, Note_on_c, 0, 69, 0
2, 49080, Note_on_c, 0, 70, 74
2, 49109, Note_on_c, 0, 70, 0
2, 49125, Note_on_c, 0, 70, 74
2, 49140, Note_on_c, 0, 70, 0
2, 49140, Note_on_c, 0, 69, 74
2, 49200, Note_on_c, 0, 69, 0
2, 49200, Note_on_c, 0, 67, 74
2, 49260, Note_on_c, 0, 67, 0
2, 49260, Note_on_c, 0, 66, 73
2, 49320, Note_on_c, 0, 66, 0
2, 49320, Note_on_c, 0, 67, 73
2, 49500, Note_on_c, 0, 67, 0
2, 49620, Note_on_c, 0, 86, 71
2, 49680, Note_on_c, 0, 86, 0
2, 49680, Note_on_c, 0, 86, 71
2, 49740, Note_on_c, 0, 86, 0
2, 49740, Note_on_c, 0, 78, 71
2, 49800, Note_on_c, 0, 78, 0
2, 49800, Note_on_c, 0, 78, 71
2, 49830, Note_on_c, 0, 78, 0
2, 49845, Note_on_c, 0, 81, 71
2, 49860, Note_on_c, 0, 81, 0
2, 49860, Note_on_c, 0, 79, 71
2, 49920, Note_on_c, 0, 79, 0
2, 49920, Note_on_c, 0, 78, 72
2, 49980, Note_on_c, 0, 78, 0
2, 49980, Note_on_c, 0, 79, 73
2, 50040, Note_on_c, 0, 79, 0
2, 50040, Note_on_c, 0, 80, 73
2, 50220, Note_on_c, 0, 80, 0
2, 50220, Note_on_c, 0, 81, 74
2, 50340, Note_on_c, 0, 81, 0
2, 50340, Note_on_c, 0, 86, 74
2, 50400, Note_on_c, 0, 86, 0
2, 50400, Note_on_c, 0, 86, 75
2, 50460, Note_on_c, 0, 86, 0
2, 50460, Note_on_c, 0, 79, 75
2, 50520, Note_on_c, 0, 79, 0
2, 50520, Note_on_c, 0, 79, 75
2, 50550, Note_on_c, 0, 79, 0
2, 50565, Note_on_c, 0, 82, 75
2, 50580, Note_on_c, 0, 82, 0
2, 50580, Note_on_c, 0, 81, 75
2, 50640, Note_on_c, 0, 81, 0
2, 50640, Note_on_c, 0, 79, 75
2, 50700, Note_on_c, 0, 79, 0
2, 50700, Note_on_c, 0, 81, 75
2, 50760, Note_on_c, 0, 81, 0
2, 50760, Note_on_c, 0, 81, 75
2, 50940, Note_on_c, 0, 81, 0
2, 50940, Note_on_c, 0, 82, 75
2, 51060, Note_on_c, 0, 82, 0
2, 51060, Note_on_c, 0, 86, 74
2, 51120, Note_on_c, 0, 86, 0
2, 51120, Note_on_c, 0, 87, 74
2, 51180, Note_on_c, 0, 87, 0
2, 51180, Note_on_c, 0, 78, 74
2, 51240, Note_on_c, 0, 78, 0
2, 51240, Note_on_c, 0, 78, 73
2, 51300, Note_on_c, 0, 78, 0
2, 51300, Note_on_c, 0, 78, 73
2, 51420, Note_on_c, 0, 78, 0
2, 51420, Note_on_c, 0, 87, 73
2, 51480, Note_on_c, 0, 87, 0
2, 51480, Note_on_c, 0, 86, 73
2, 51540, Note_on_c, 0, 86, 0
2, 51540, Note_on_c, 0, 79, 72
2, 51600, Note_on_c, 0, 79, 0
2, 51600, Note_on_c, 0, 79, 72
2, 51660, Note_on_c, 0, 79, 0
2, 51660, Note_on_c, 0, 79, 72
2, 51780, Note_on_c, 0, 79, 0
2, 51780, Note_on_c, 0, 86, 72
2, 51840, Note_on_c, 0, 86, 0
2, 51840, Note_on_c, 0, 86, 72
2, 51900, Note_on_c, 0, 86, 0
2, 51900, Note_on_c, 0, 84, 73
2, 51960, Note_on_c, 0, 84, 0
2, 51960, Note_on_c, 0, 82, 73
2, 51990, Note_on_c, 0, 82, 0
2, 52005, Note_on_c, 0, 82, 73
2, 52020, Note_on_c, 0, 82, 0
2, 52020, Note_on_c, 0, 81, 73
2, 52080, Note_on_c, 0, 81, 0
2, 52080, Note_on_c, 0, 79, 73
2, 52140, Note_on_c, 0, 79, 0
2, 52140, Note_on_c, 0, 78, 73
2, 52200, Note_on_c, 0, 78, 0
2, 52200, Note_on_c, 0, 79, 72
2, 52260, Note_on_c, 0, 79, 0
2, 52260, Note_on_c, 0, 73, 72
2, 52320, Note_on_c, 0, 73, 0
2, 52320, Note_on_c, 0, 73, 71
2, 52380, Note_on_c, 0, 73, 0
2, 52380, Note_on_c, 0, 73, 71
2, 52740, Note_on_c, 0, 73, 0
2, 52740, Note_on_c, 0, 73, 72
2, 52800, Note_on_c, 0, 73, 0
2, 52800, Note_on_c, 0, 73, 72
2, 52860, Note_on_c, 0, 73, 0
2, 52860, Note_on_c, 0, 73, 73
2, 52920, Note_on_c, 0, 73, 0
2, 52920, Note_on_c, 0, 74, 73
2, 53100, Note_on_c, 0, 74, 0
2, 53100, Note_on_c, 0, 79, 73
2, 53160, Note_on_c, 0, 79, 0
2, 53160, Note_on_c, 0, 83, 73
2, 53220, Note_on_c, 0, 83, 0
2, 53220, Note_on_c, 0, 85, 73
2, 53280, Note_on_c, 0, 85, 0
2, 53280, Note_on_c, 0, 86, 73
2, 53340, Note_on_c, 0, 86, 0
2, 53340, Note_on_c, 0, 88, 72
2, 53400, Note_on_c, 0, 88, 0
2, 53400, Note_on_c, 0, 86, 72
2, 53460, Note_on_c, 0, 86, 0
2, 53460, Note_on_c, 0, 84, 71
2, 53520, Note_on_c, 0, 84, 0
2, 53520, Note_on_c, 0, 83, 71
2, 53580, Note_on_c, 0, 83, 0
2, 53580, Note_on_c, 0, 81, 71
2, 53640, Note_on_c, 0, 81, 0
2, 53640, Note_on_c, 0, 83, 99
2, 53670, Note_on_c, 0, 83, 0
2, 53670, Note_on_c, 0, 86, 99
2, 53700, Note_on_c, 0, 86, 0
2, 53700, Note_on_c, 0, 84, 99
2, 53730, Note_on_c, 0, 84, 0
2, 53730, Note_on_c, 0, 83, 99
2, 53760, Note_on_c, 0, 83, 0
2, 53760, Note_on_c, 0, 81, 101
2, 53790, Note_on_c, 0, 81, 0
2, 53790, Note_on_c, 0, 79, 101
2, 53820, Note_on_c, 0, 79, 0
2, 53820, Note_on_c, 0, 78, 101
2, 53850, Note_on_c, 0, 78, 0
2, 53850, Note_on_c, 0, 76, 101
2, 53880, Note_on_c, 0, 76, 0
2, 53880, Note_on_c, 0, 74, 101
2, 53910, Note_on_c, 0, 74, 0
2, 53910, Note_on_c, 0, 72, 101
2, 53940, Note_on_c, 0, 72, 0
2, 53940, Note_on_c, 0, 71, 101
2, 53970, Note_on_c, 0, 71, 0
2, 53970, Note_on_c, 0, 69, 101
2, 54000, Note_on_c, 0, 69, 0
2, 54000, Note_on_c, 0, 67, 101
2, 54030, Note_on_c, 0, 67, 0
2, 54030, Note_on_c, 0, 66, 101
2, 54060, Note_on_c, 0, 66, 0
2, 54060, Note_on_c, 0, 67, 101
2, 54090, Note_on_c, 0, 67, 0
2, 54090, Note_on_c, 0, 69, 101
2, 54120, Note_on_c, 0, 69, 0
2, 54120, Note_on_c, 0, 71, 101
2, 54150, Note_on_c, 0, 71, 0
2, 54150, Note_on_c, 0, 72, 101
2, 54180, Note_on_c, 0, 72, 0
2, 54180, Note_on_c, 0, 74, 101
2, 54210, Note_on_c, 0, 74, 0
2, 54210, Note_on_c, 0, 76, 101
2, 54240, Note_on_c, 0, 76, 0
2, 54240, Note_on_c, 0, 78, 101
2, 54270, Note_on_c, 0, 78, 0
2, 54270, Note_on_c, 0, 79, 101
2, 54300, Note_on_c, 0, 79, 0
2, 54300, Note_on_c, 0, 81, 101
2, 54330, Note_on_c, 0, 81, 0
2, 54330, Note_on_c, 0, 83, 101
2, 54360, Note_on_c, 0, 83, 0
2, 54360, Note_on_c, 0, 84, 101
2, 54390, Note_on_c, 0, 84, 0
2, 54390, Note_on_c, 0, 86, 101
2, 54420, Note_on_c, 0, 86, 0
2, 54420, Note_on_c, 0, 84, 101
2, 54450, Note_on_c, 0, 84, 0
2, 54450, Note_on_c, 0, 83, 101
2, 54480, Note_on_c, 0, 83, 0
2, 54480, Note_on_c, 0, 84, 101
2, 54510, Note_on_c, 0, 84, 0
2, 54510, Note_on_c, 0, 81, 101
2, 54540, Note_on_c, 0, 81, 0
2, 54540, Note_on_c, 0, 83, 101
2, 54570, Note_on_c, 0, 83, 0
2, 54570, Note_on_c, 0, 84, 101
2, 54600, Note_on_c, 0, 84, 0
2, 54600, Note_on_c, 0, 83, 101
2, 54630, Note_on_c, 0, 83, 0
2, 54630, Note_on_c, 0, 81, 101
2, 54660, Note_on_c, 0, 81, 0
2, 54660, Note_on_c, 0, 83, 101
2, 54690, Note_on_c, 0, 83, 0
2, 54690, Note_on_c, 0, 79, 101
2, 54720, Note_on_c, 0, 79, 0
2, 54720, Note_on_c, 0, 86, 101
2, 54750, Note_on_c, 0, 86, 0
2, 54750, Note_on_c, 0, 81, 101
2, 54780, Note_on_c, 0, 81, 0
2, 54780, Note_on_c, 0, 78, 101
2, 54810, Note_on_c, 0, 78, 0
2, 54810, Note_on_c, 0, 74, 101
2, 54840, Note_on_c, 0, 74, 0
2, 54840, Note_on_c, 0, 69, 101
2, 54870, Note_on_c, 0, 69, 0
2, 54870, Note_on_c, 0, 66, 101
2, 54900, Note_on_c, 0, 66, 0
2, 54900, Control_c, 0, 64, 127
2, 54900, Note_on_c, 0, 62, 101
2, 55020, Note_on_c, 0, 62, 0
2, 55020, Control_c, 0, 64, 0
2, 55080, Note_on_c, 0, 83, 101
2, 55110, Note_on_c, 0, 83, 0
2, 55110, Note_on_c, 0, 86, 101
2, 55140, Note_on_c, 0, 86, 0
2, 55140, Note_on_c, 0, 84, 101
2, 55170, Note_on_c, 0, 84, 0
2, 55170, Note_on_c, 0, 83, 101
2, 55200, Note_on_c, 0, 83, 0
2, 55200, Note_on_c, 0, 81, 101
2, 55230, Note_on_c, 0, 81, 0
2, 55230, Note_on_c, 0, 79, 101
2, 55260, Note_on_c, 0, 79, 0
2, 55260, Note_on_c, 0, 78, 101
2, 55290, Note_on_c, 0, 78, 0
2, 55290, Note_on_c, 0, 76, 101
2, 55320, Note_on_c, 0, 76, 0
2, 55320, Note_on_c, 0, 74, 101
2, 55350, Note_on_c, 0, 74, 0
2, 55350, Note_on_c, 0, 72, 101
2, 55380, Note_on_c, 0, 72, 0
2, 55380, Note_on_c, 0, 71, 101
2, 55410, Note_on_c, 0, 71, 0
2, 55410, Note_on_c, 0, 69, 101
2, 55440, Note_on_c, 0, 69, 0
2, 55440, Note_on_c, 0, 71, 101
2, 55470, Note_on_c, 0, 71, 0
2, 55470, Note_on_c, 0, 74, 101
2, 55500, Note_on_c, 0, 74, 0
2, 55500, Note_on_c, 0, 72, 101
2, 55530, Note_on_c, 0, 72, 0
2, 55530, Note_on_c, 0, 71, 101
2, 55560, Note_on_c, 0, 71, 0
2, 55560, Note_on_c, 0, 69, 100
2, 55590, Note_on_c, 0, 69, 0
2, 55590, Note_on_c, 0, 67, 100
2, 55620, Note_on_c, 0, 67, 0
2, 55620, Note_on_c, 0, 66, 100
2, 55650, Note_on_c, 0, 66, 0
2, 55650, Note_on_c, 0, 64, 100
2, 55680, Note_on_c, 0, 64, 0
2, 55680, Note_on_c, 0, 62, 100
2, 55710, Note_on_c, 0, 62, 0
2, 55710, Note_on_c, 0, 60, 100
2, 55740, Note_on_c, 0, 60, 0
2, 55740, Note_on_c, 0, 59, 100
2, 55770, Note_on_c, 0, 59, 0
2, 55770, Note_on_c, 0, 57, 100
2, 55800, Note_on_c, 0, 57, 0
2, 55800, Note_on_c, 0, 55, 100
2, 55860, Note_on_c, 0, 55, 0
2, 55860, Note_on_c, 0, 59, 100
2, 55920, Note_on_c, 0, 59, 0
2, 55920, Note_on_c, 0, 62, 99
2, 55980, Note_on_c, 0, 62, 0
2, 55980, Note_on_c, 0, 59, 99
2, 55980, Note_on_c, 0, 67, 99
2, 56040, Note_on_c, 0, 67, 0
2, 56040, Note_on_c, 0, 59, 0
2, 56040, Note_on_c, 0, 60, 99
2, 56040, Note_on_c, 0, 69, 99
2, 56100, Note_on_c, 0, 69, 0
2, 56100, Note_on_c, 0, 60, 0
2, 56100, Note_on_c, 0, 57, 99
2, 56100, Note_on_c, 0, 66, 99
2, 56160, Note_on_c, 0, 66, 0
2, 56160, Note_on_c, 0, 57, 0
2, 56160, Note_on_c, 0, 59, 99
2, 56160, Note_on_c, 0, 67, 99
2, 56340, Note_on_c, 0, 67, 0
2, 56340, Note_on_c, 0, 59, 0
2, 56460, Note_on_c, 0, 75, 98
2, 56520, Note_on_c, 0, 75, 0
2, 56520, Note_on_c, 0, 69, 98
2, 56520, Note_on_c, 0, 66, 98
2, 56520, Note_on_c, 0, 75, 98
2, 56580, Note_on_c, 0, 75, 0
2, 56580, Note_on_c, 0, 74, 98
2, 56640, Note_on_c, 0, 74, 0
2, 56640, Note_on_c, 0, 72, 98
2, 56700, Note_on_c, 0, 72, 0
2, 56700, Note_on_c, 0, 66, 0
2, 56700, Note_on_c, 0, 69, 0
2, 56700, Note_on_c, 0, 69, 98
2, 56700, Note_on_c, 0, 66, 98
2, 56700, Note_on_c, 0, 72, 98
2, 56760, Note_on_c, 0, 72, 0
2, 56760, Note_on_c, 0, 74, 97
2, 56820, Note_on_c, 0, 74, 0
2, 56820, Note_on_c, 0, 75, 97
2, 56880, Note_on_c, 0, 75, 0
2, 56880, Note_on_c, 0, 66, 0
2, 56880, Note_on_c, 0, 69, 0
2, 56880, Note_on_c, 0, 69, 97
2, 56880, Note_on_c, 0, 66, 97
2, 56880, Note_on_c, 0, 75, 97
2, 56940, Note_on_c, 0, 75, 0
2, 56940, Note_on_c, 0, 74, 97
2, 57000, Note_on_c, 0, 74, 0
2, 57000, Note_on_c, 0, 72, 95
2, 57060, Note_on_c, 0, 72, 0
2, 57060, Note_on_c, 0, 66, 0
2, 57060, Note_on_c, 0, 69, 0
2, 57060, Control_c, 0, 64, 127
2, 57060, Note_on_c, 0, 66, 95
2, 57060, Note_on_c, 0, 69, 95
2, 57060, Note_on_c, 0, 72, 95
2, 57180, Control_c, 0, 64, 0
2, 57240, Note_on_c, 0, 72, 0
2, 57240, Note_on_c, 0, 69, 0
2, 57240, Note_on_c, 0, 66, 0
2, 57240, Note_on_c, 0, 61, 94
2, 57240, Note_on_c, 0, 64, 94
2, 57240, Note_on_c, 0, 67, 94
2, 57240, Note_on_c, 0, 70, 94
2, 57270, Note_on_c, 0, 70, 0
2, 57270, Note_on_c, 0, 69, 94
2, 57300, Note_on_c, 0, 69, 0
2, 57300, Note_on_c, 0, 67, 0
2, 57300, Note_on_c, 0, 64, 0
2, 57300, Note_on_c, 0, 61, 0
2, 57300, Note_on_c, 0, 61, 94
2, 57300, Note_on_c, 0, 64, 94
2, 57300, Note_on_c, 0, 67, 94
2, 57300, Note_on_c, 0, 70, 94
2, 57330, Note_on_c, 0, 70, 0
2, 57330, Note_on_c, 0, 69, 94
2, 57360, Note_on_c, 0, 69, 0
2, 57360, Note_on_c, 0, 67, 0
2, 57360, Note_on_c, 0, 64, 0
2, 57360, Note_on_c, 0, 61, 0
2, 57360, Note_on_c, 0, 61, 68
2, 57360, Note_on_c, 0, 64, 68
2, 57360, Note_on_c, 0, 67, 68
2, 57360, Note_on_c, 0, 70, 58
2, 57390, Note_on_c, 0, 70, 0
2, 57390, Note_on_c, 0, 69, 58
2, 57420, Note_on_c, 0, 69, 0
2, 57420, Note_on_c, 0, 67, 0
2, 57420, Note_on_c, 0, 64, 0
2, 57420, Note_on_c, 0, 61, 0
2, 57420, Note_on_c, 0, 61, 68
2, 57420, Note_on_c, 0, 64, 68
2, 57420, Note_on_c, 0, 67, 68
2, 57420, Note_on_c, 0, 70, 58
2, 57540, Note_on_c, 0, 70, 0
2, 57540, Note_on_c, 0, 61, 0
2, 57540, Note_on_c, 0, 64, 0
2, 57540, Note_on_c, 0, 67, 0
2, 57600, Note_on_c, 0, 62, 68
2, 57600, Note_on_c, 0, 70, 68
2, 57600, Note_on_c, 0, 67, 68
2, 57600, Note_on_c, 0, 74, 68
2, 57630, Note_on_c, 0, 74, 0
2, 57630, Note_on_c, 0, 73, 68
2, 57660, Note_on_c, 0, 73, 0
2, 57660, Note_on_c, 0, 67, 0
2, 57660, Note_on_c, 0, 70, 0
2, 57660, Note_on_c, 0, 62, 0
2, 57660, Note_on_c, 0, 62, 68
2, 57660, Note_on_c, 0, 70, 68
2, 57660, Note_on_c, 0, 67, 68
2, 57660, Note_on_c, 0, 74, 68
2, 57690, Note_on_c, 0, 74, 0
2, 57690, Note_on_c, 0, 73, 68
2, 57720, Note_on_c, 0, 73, 0
2, 57720, Note_on_c, 0, 67, 0
2, 57720, Note_on_c, 0, 70, 0
2, 57720, Note_on_c, 0, 62, 0
2, 57720, Note_on_c, 0, 62, 68
2, 57720, Note_on_c, 0, 70, 68
2, 57720, Note_on_c, 0, 67, 68
2, 57720, Note_on_c, 0, 74, 68
2, 57750, Note_on_c, 0, 74, 0
2, 57750, Note_on_c, 0, 73, 68
2, 57780, Note_on_c, 0, 73, 0
2, 57780, Note_on_c, 0, 67, 0
2, 57780, Note_on_c, 0, 70, 0
2, 57780, Note_on_c, 0, 62, 0
2, 57780, Note_on_c, 0, 62, 68
2, 57780, Note_on_c, 0, 67, 68
2, 57780, Note_on_c, 0, 70, 68
2, 57780, Note_on_c, 0, 74, 68
2, 57900, Note_on_c, 0, 74, 0
2, 57900, Note_on_c, 0, 62, 0
2, 57900, Note_on_c, 0, 67, 0
2, 57900, Note_on_c, 0, 70, 0
2, 57960, Note_on_c, 0, 86, 69
2, 57990, Note_on_c, 0, 86, 0
2, 57990, Note_on_c, 0, 85, 69
2, 58020, Note_on_c, 0, 85, 0
2, 58020, Note_on_c, 0, 86, 69
2, 58050, Note_on_c, 0, 86, 0
2, 58050, Note_on_c, 0, 85, 69
2, 58080, Note_on_c, 0, 85, 0
2, 58080, Note_on_c, 0, 86, 69
2, 58110, Note_on_c, 0, 86, 0
2, 58110, Note_on_c, 0, 85, 69
2, 58140, Note_on_c, 0, 85, 0
2, 58140, Note_on_c, 0, 86, 69
2, 58170, Note_on_c, 0, 86, 0
2, 58170, Note_on_c, 0, 85, 69
2, 58200, Note_on_c, 0, 85, 0
2, 58200, Note_on_c, 0, 86, 69
2, 58230, Note_on_c, 0, 86, 0
2, 58230, Note_on_c, 0, 85, 69
2, 58260, Note_on_c, 0, 85, 0
2, 58260, Note_on_c, 0, 86, 69
2, 58290, Note_on_c, 0, 86, 0
2, 58290, Note_on_c, 0, 84, 69
2, 58320, Note_on_c, 0, 84, 0
2, 58320, Note_on_c, 0, 83, 69
2, 58350, Note_on_c, 0, 83, 0
2, 58350, Note_on_c, 0, 86, 69
2, 58380, Note_on_c, 0, 86, 0
2, 58380, Note_on_c, 0, 84, 69
2, 58410, Note_on_c, 0, 84, 0
2, 58410, Note_on_c, 0, 83, 69
2, 58440, Note_on_c, 0, 83, 0
2, 58440, Note_on_c, 0, 81, 69
2, 58470, Note_on_c, 0, 81, 0
2, 58470, Note_on_c, 0, 79, 69
2, 58500, Note_on_c, 0, 79, 0
2, 58500, Note_on_c, 0, 78, 69
2, 58530, Note_on_c, 0, 78, 0
2, 58530, Note_on_c, 0, 76, 69
2, 58560, Note_on_c, 0, 76, 0
2, 58560, Note_on_c, 0, 74, 69
2, 58590, Note_on_c, 0, 74, 0
2, 58590, Note_on_c, 0, 72, 69
2, 58620, Note_on_c, 0, 72, 0
2, 58620, Note_on_c, 0, 71, 69
2, 58650, Note_on_c, 0, 71, 0
2, 58650, Note_on_c, 0, 69, 69
2, 58680, Note_on_c, 0, 69, 0
2, 58680, Note_on_c, 0, 67, 69
2, 58710, Note_on_c, 0, 67, 0
2, 58710, Note_on_c, 0, 66, 69
2, 58740, Note_on_c, 0, 66, 0
2, 58740, Note_on_c, 0, 63, 69
2, 58770, Note_on_c, 0, 63, 0
2, 58770, Note_on_c, 0, 62, 69
2, 58800, Note_on_c, 0, 62, 0
2, 58800, Note_on_c, 0, 60, 69
2, 58830, Note_on_c, 0, 60, 0
2, 58830, Note_on_c, 0, 58, 69
2, 58860, Note_on_c, 0, 58, 0
2, 58860, Note_on_c, 0, 57, 69
2, 58890, Note_on_c, 0, 57, 0
2, 58890, Note_on_c, 0, 55, 69
2, 58920, Note_on_c, 0, 55, 0
2, 59760, Note_on_c, 0, 71, 69
2, 59760, Note_on_c, 0, 74, 69
2, 59760, Note_on_c, 0, 77, 69
2, 59820, Note_on_c, 0, 77, 0
2, 59820, Note_on_c, 0, 74, 0
2, 59820, Note_on_c, 0, 71, 0
2, 59820, Note_on_c, 0, 80, 69
2, 59850, Note_on_c, 0, 80, 0
2, 59850, Note_on_c, 0, 79, 69
2, 59880, Note_on_c, 0, 79, 0
2, 59880, Note_on_c, 0, 77, 69
2, 59910, Note_on_c, 0, 77, 0
2, 59910, Note_on_c, 0, 75, 69
2, 59940, Note_on_c, 0, 75, 0
2, 59940, Note_on_c, 0, 74, 69
2, 60060, Note_on_c, 0, 74, 0
2, 60120, Note_on_c, 0, 72, 69
2, 60120, Note_on_c, 0, 75, 69
2, 60120, Note_on_c, 0, 67, 69
2, 60180, Note_on_c, 0, 67, 0
2, 60180, Note_on_c, 0, 75, 0
2, 60180, Note_on_c, 0, 72, 0
2, 60180, Note_on_c, 0, 79, 69
2, 60210, Note_on_c, 0, 79, 0
2, 60210, Note_on_c, 0, 77, 69
2, 60240, Note_on_c, 0, 77, 0
2, 60240, Note_on_c, 0, 75, 69
2, 60270, Note_on_c, 0, 75, 0
2, 60270, Note_on_c, 0, 74, 69
2, 60300, Note_on_c, 0, 74, 0
2, 60300, Note_on_c, 0, 72, 69
2, 60420, Note_on_c, 0, 72, 0
2, 60480, Note_on_c, 0, 75, 69
2, 60480, Note_on_c, 0, 84, 69
2, 60540, Note_on_c, 0, 84, 0
2, 60540, Note_on_c, 0, 75, 0
2, 60540, Note_on_c, 0, 84, 69
2, 60570, Note_on_c, 0, 84, 0
2, 60570, Note_on_c, 0, 83, 69
2, 60600, Note_on_c, 0, 83, 0
2, 60600, Note_on_c, 0, 84, 69
2, 60630, Note_on_c, 0, 84, 0
2, 60630, Note_on_c, 0, 86, 69
2, 60660, Note_on_c, 0, 86, 0
2, 60660, Note_on_c, 0, 87, 69
2, 60660, Note_on_c, 0, 78, 69
2, 60780, Note_on_c, 0, 78, 0
2, 60780, Note_on_c, 0, 87, 0
2, 60780, Note_on_c, 0, 84, 69
2, 60840, Note_on_c, 0, 84, 0
2, 60840, Note_on_c, 0, 83, 69
2, 60840, Note_on_c, 0, 79, 69
2, 60840, Note_on_c, 0, 55, 69
2, 60900, Note_on_c, 0, 79, 0
2, 60900, Note_on_c, 0, 83, 0
2, 60900, Note_on_c, 0, 86, 69
2, 60900, Note_on_c, 0, 67, 69
2, 60930, Note_on_c, 0, 86, 0
2, 60930, Note_on_c, 0, 84, 69
2, 60960, Note_on_c, 0, 84, 0
2, 60960, Note_on_c, 0, 67, 0
2, 60960, Note_on_c, 0, 83, 69
2, 60960, Note_on_c, 0, 67, 69
2, 60990, Note_on_c, 0, 83, 0
2, 60990, Note_on_c, 0, 81, 69
2, 61020, Note_on_c, 0, 81, 0
2, 61020, Note_on_c, 0, 67, 0
2, 61020, Note_on_c, 0, 79, 69
2, 61020, Note_on_c, 0, 67, 69
2, 61080, Note_on_c, 0, 67, 0
2, 61080, Note_on_c, 0, 67, 69
2, 61140, Note_on_c, 0, 67, 0
2, 61140, Note_on_c, 0, 79, 0
2, 61140, Note_on_c, 0, 67, 69
2, 61200, Note_on_c, 0, 67, 0
2, 61200, Note_on_c, 0, 55, 0
2, 61200, Note_on_c, 0, 77, 69
2, 61200, Note_on_c, 0, 55, 69
2, 61200, Note_on_c, 0, 86, 69
2, 61200, Note_on_c, 0, 83, 69
2, 61260, Note_on_c, 0, 83, 0
2, 61260, Note_on_c, 0, 86, 0
2, 61260, Note_on_c, 0, 77, 0
2, 61260, Note_on_c, 0, 89, 69
2, 61260, Note_on_c, 0, 67, 69
2, 61290, Note_on_c, 0, 89, 0
2, 61290, Note_on_c, 0, 87, 69
2, 61320, Note_on_c, 0, 87, 0
2, 61320, Note_on_c, 0, 67, 0
2, 61320, Note_on_c, 0, 86, 69
2, 61320, Note_on_c, 0, 67, 69
2, 61350, Note_on_c, 0, 86, 0
2, 61350, Note_on_c, 0, 84, 69
2, 61380, Note_on_c, 0, 84, 0
2, 61380, Note_on_c, 0, 67, 0
2, 61380, Note_on_c, 0, 82, 69
2, 61380, Note_on_c, 0, 67, 69
2, 61440, Note_on_c, 0, 67, 0
2, 61440, Note_on_c, 0, 67, 69
2, 61500, Note_on_c, 0, 67, 0
2, 61500, Note_on_c, 0, 82, 0
2, 61500, Note_on_c, 0, 67, 69
2, 61560, Note_on_c, 0, 67, 0
2, 61560, Note_on_c, 0, 55, 0
2, 61560, Note_on_c, 0, 55, 69
2, 61560, Note_on_c, 0, 84, 69
2, 61560, Note_on_c, 0, 75, 69
2, 61560, Note_on_c, 0, 79, 69
2, 61620, Note_on_c, 0, 79, 0
2, 61620, Note_on_c, 0, 75, 0
2, 61620, Note_on_c, 0, 84, 0
2, 61620, Note_on_c, 0, 79, 69
2, 61620, Note_on_c, 0, 67, 69
2, 61650, Note_on_c, 0, 79, 0
2, 61650, Note_on_c, 0, 77, 69
2, 61680, Note_on_c, 0, 77, 0
2, 61680, Note_on_c, 0, 67, 0
2, 61680, Note_on_c, 0, 75, 68
2, 61680, Note_on_c, 0, 67, 68
2, 61710, Note_on_c, 0, 75, 0
2, 61710, Note_on_c, 0, 74, 68
2, 61740, Note_on_c, 0, 74, 0
2, 61740, Note_on_c, 0, 67, 0
2, 61740, Note_on_c, 0, 67, 68
2, 61740, Note_on_c, 0, 72, 68
2, 61800, Note_on_c, 0, 67, 0
2, 61800, Note_on_c, 0, 67, 68
2, 61860, Note_on_c, 0, 67, 0
2, 61860, Note_on_c, 0, 72, 0
2, 61860, Note_on_c, 0, 67, 68
2, 61920, Note_on_c, 0, 67, 0
2, 61920, Note_on_c, 0, 55, 0
2, 61920, Note_on_c, 0, 84, 68
2, 61920, Note_on_c, 0, 78, 68
2, 61920, Note_on_c, 0, 75, 68
2, 61920, Note_on_c, 0, 55, 68
2, 61980, Note_on_c, 0, 75, 0
2, 61980, Note_on_c, 0, 84, 0
2, 61980, Note_on_c, 0, 78, 0
2, 61980, Note_on_c, 0, 87, 68
2, 61980, Note_on_c, 0, 67, 68
2, 62010, Note_on_c, 0, 87, 0
2, 62010, Note_on_c, 0, 84, 68
2, 62040, Note_on_c, 0, 84, 0
2, 62040, Note_on_c, 0, 67, 0
2, 62040, Note_on_c, 0, 82, 68
2, 62040, Note_on_c, 0, 67, 68
2, 62070, Note_on_c, 0, 82, 0
2, 62070, Note_on_c, 0, 80, 68
2, 62100, Note_on_c, 0, 80, 0
2, 62100, Note_on_c, 0, 67, 0
2, 62100, Note_on_c, 0, 79, 68
2, 62100, Note_on_c, 0, 67, 68
2, 62130, Note_on_c, 0, 79, 0
2, 62130, Note_on_c, 0, 78, 68
2, 62160, Note_on_c, 0, 78, 0
2, 62160, Note_on_c, 0, 67, 0
2, 62160, Note_on_c, 0, 77, 68
2, 62160, Note_on_c, 0, 67, 68
2, 62190, Note_on_c, 0, 77, 0
2, 62190, Note_on_c, 0, 78, 68
2, 62220, Note_on_c, 0, 78, 0
2, 62220, Note_on_c, 0, 67, 0
2, 62220, Note_on_c, 0, 84, 68
2, 62220, Note_on_c, 0, 67, 68
2, 62250, Note_on_c, 0, 84, 0
2, 62250, Note_on_c, 0, 78, 68
2, 62280, Note_on_c, 0, 78, 0
2, 62280, Note_on_c, 0, 67, 0
2, 62280, Note_on_c, 0, 55, 0
2, 62280, Note_on_c, 0, 79, 68
2, 62280, Note_on_c, 0, 55, 68
2, 62340, Note_on_c, 0, 67, 68
2, 62400, Note_on_c, 0, 67, 0
2, 62400, Note_on_c, 0, 79, 0
2, 62400, Note_on_c, 0, 67, 68
2, 62460, Note_on_c, 0, 67, 0
2, 62460, Note_on_c, 0, 67, 68
2, 62520, Note_on_c, 0, 67, 0
2, 62520, Note_on_c, 0, 67, 68
2, 62580, Note_on_c, 0, 67, 0
2, 62580, Note_on_c, 0, 67, 68
2, 62640, Note_on_c, 0, 67, 0
2, 62640, Note_on_c, 0, 55, 0
2, 62640, Note_on_c, 0, 62, 68
2, 62640, Note_on_c, 0, 79, 68
2, 62640, Note_on_c, 0, 77, 68
2, 62700, Note_on_c, 0, 77, 0
2, 62700, Note_on_c, 0, 79, 0
2, 62700, Note_on_c, 0, 62, 0
2, 62700, Note_on_c, 0, 65, 68
2, 62700, Note_on_c, 0, 77, 68
2, 62700, Note_on_c, 0, 79, 68
2, 62730, Note_on_c, 0, 65, 0
2, 62730, Note_on_c, 0, 63, 68
2, 62760, Note_on_c, 0, 63, 0
2, 62760, Note_on_c, 0, 79, 0
2, 62760, Note_on_c, 0, 77, 0
2, 62760, Note_on_c, 0, 62, 68
2, 62760, Note_on_c, 0, 77, 68
2, 62760, Note_on_c, 0, 79, 68
2, 62790, Note_on_c, 0, 62, 0
2, 62790, Note_on_c, 0, 60, 68
2, 62820, Note_on_c, 0, 60, 0
2, 62820, Note_on_c, 0, 79, 0
2, 62820, Note_on_c, 0, 77, 0
2, 62820, Note_on_c, 0, 59, 68
2, 62820, Note_on_c, 0, 74, 68
2, 62820, Note_on_c, 0, 77, 68
2, 62820, Note_on_c, 0, 79, 68
2, 62880, Note_on_c, 0, 79, 0
2, 62880, Note_on_c, 0, 77, 0
2, 62880, Note_on_c, 0, 74, 0
2, 62880, Note_on_c, 0, 74, 68
2, 62880, Note_on_c, 0, 77, 68
2, 62880, Note_on_c, 0, 79, 68
2, 62940, Note_on_c, 0, 79, 0
2, 62940, Note_on_c, 0, 59, 0
2, 62940, Note_on_c, 0, 74, 0
2, 62940, Note_on_c, 0, 77, 0
2, 62940, Note_on_c, 0, 74, 68
2, 62940, Note_on_c, 0, 77, 68
2, 62940, Note_on_c, 0, 79, 68
2, 63000, Note_on_c, 0, 79, 0
2, 63000, Note_on_c, 0, 77, 0
2, 63000, Note_on_c, 0, 74, 0
2, 63000, Note_on_c, 0, 72, 68
2, 63000, Note_on_c, 0, 75, 68
2, 63000, Note_on_c, 0, 79, 68
2, 63000, Note_on_c, 0, 60, 68
2, 63060, Note_on_c, 0, 60, 0
2, 63060, Note_on_c, 0, 72, 0
2, 63060, Note_on_c, 0, 75, 0
2, 63060, Note_on_c, 0, 79, 0
2, 63060, Note_on_c, 0, 75, 68
2, 63060, Note_on_c, 0, 79, 68
2, 63060, Note_on_c, 0, 72, 68
2, 63060, Note_on_c, 0, 67, 68
2, 63090, Note_on_c, 0, 67, 0
2, 63090, Note_on_c, 0, 65, 68
2, 63120, Note_on_c, 0, 65, 0
2, 63120, Note_on_c, 0, 72, 0
2, 63120, Note_on_c, 0, 79, 0
2, 63120, Note_on_c, 0, 75, 0
2, 63120, Note_on_c, 0, 72, 68
2, 63120, Note_on_c, 0, 75, 68
2, 63120, Note_on_c, 0, 79, 68
2, 63120, Note_on_c, 0, 63, 68
2, 63150, Note_on_c, 0, 63, 0
2, 63150, Note_on_c, 0, 62, 68
2, 63180, Note_on_c, 0, 62, 0
2, 63180, Note_on_c, 0, 79, 0
2, 63180, Note_on_c, 0, 75, 0
2, 63180, Note_on_c, 0, 72, 0
2, 63180, Note_on_c, 0, 60, 68
2, 63180, Note_on_c, 0, 72, 68
2, 63180, Note_on_c, 0, 75, 68
2, 63180, Note_on_c, 0, 79, 68
2, 63240, Note_on_c, 0, 79, 0
2, 63240, Note_on_c, 0, 75, 0
2, 63240, Note_on_c, 0, 72, 0
2, 63240, Note_on_c, 0, 72, 67
2, 63240, Note_on_c, 0, 75, 67
2, 63240, Note_on_c, 0, 79, 67
2, 63300, Note_on_c, 0, 79, 0
2, 63300, Note_on_c, 0, 60, 0
2, 63300, Note_on_c, 0, 72, 0
2, 63300, Note_on_c, 0, 75, 0
2, 63300, Note_on_c, 0, 72, 67
2, 63300, Note_on_c, 0, 75, 67
2, 63300, Note_on_c, 0, 79, 67
2, 63360, Note_on_c, 0, 79, 0
2, 63360, Note_on_c, 0, 75, 0
2, 63360, Note_on_c, 0, 72, 0
2, 63360, Note_on_c, 0, 84, 67
2, 63360, Note_on_c, 0, 78, 67
2, 63360, Note_on_c, 0, 72, 67
2, 63420, Note_on_c, 0, 72, 0
2, 63420, Note_on_c, 0, 78, 0
2, 63420, Note_on_c, 0, 84, 0
2, 63420, Note_on_c, 0, 78, 67
2, 63420, Note_on_c, 0, 84, 67
2, 63420, Note_on_c, 0, 72, 67
2, 63480, Note_on_c, 0, 72, 0
2, 63480, Note_on_c, 0, 84, 0
2, 63480, Note_on_c, 0, 78, 0
2, 63480, Note_on_c, 0, 72, 67
2, 63480, Note_on_c, 0, 78, 67
2, 63480, Note_on_c, 0, 84, 67
2, 63540, Note_on_c, 0, 84, 0
2, 63540, Note_on_c, 0, 78, 0
2, 63540, Note_on_c, 0, 72, 0
2, 63540, Note_on_c, 0, 81, 67
2, 63540, Note_on_c, 0, 78, 67
2, 63540, Note_on_c, 0, 72, 67
2, 63540, Note_on_c, 0, 84, 67
2, 63600, Note_on_c, 0, 84, 0
2, 63600, Note_on_c, 0, 81, 0
2, 63600, Note_on_c, 0, 78, 0
2, 63600, Note_on_c, 0, 72, 0
2, 63600, Note_on_c, 0, 81, 67
2, 63600, Note_on_c, 0, 84, 67
2, 63600, Note_on_c, 0, 78, 67
2, 63600, Note_on_c, 0, 72, 67
2, 63660, Note_on_c, 0, 72, 0
2, 63660, Note_on_c, 0, 81, 0
2, 63660, Note_on_c, 0, 84, 0
2, 63660, Note_on_c, 0, 78, 0
2, 63660, Note_on_c, 0, 81, 67
2, 63660, Note_on_c, 0, 84, 67
2, 63660, Note_on_c, 0, 78, 67
2, 63660, Note_on_c, 0, 72, 67
2, 63720, Note_on_c, 0, 72, 0
2, 63720, Note_on_c, 0, 81, 0
2, 63720, Note_on_c, 0, 84, 0
2, 63720, Note_on_c, 0, 78, 0
2, 63720, Note_on_c, 0, 83, 67
2, 63720, Note_on_c, 0, 79, 67
2, 63720, Note_on_c, 0, 74, 67
2, 63780, Note_on_c, 0, 74, 0
2, 63780, Note_on_c, 0, 79, 0
2, 63780, Note_on_c, 0, 83, 0
2, 63780, Note_on_c, 0, 79, 67
2, 63780, Note_on_c, 0, 83, 67
2, 63780, Note_on_c, 0, 74, 67
2, 63840, Note_on_c, 0, 74, 0
2, 63840, Note_on_c, 0, 83, 0
2, 63840, Note_on_c, 0, 79, 0
2, 63840, Note_on_c, 0, 74, 67
2, 63840, Note_on_c, 0, 79, 67
2, 63840, Note_on_c, 0, 83, 67
2, 63900, Note_on_c, 0, 83, 0
2, 63900, Note_on_c, 0, 79, 0
2, 63900, Note_on_c, 0, 74, 0
2, 63900, Note_on_c, 0, 79, 67
2, 63900, Note_on_c, 0, 74, 67
2, 63900, Note_on_c, 0, 83, 67
2, 63960, Note_on_c, 0, 83, 0
2, 63960, Note_on_c, 0, 74, 0
2, 63960, Note_on_c, 0, 79, 0
2, 63960, Note_on_c, 0, 83, 67
2, 63960, Note_on_c, 0, 79, 67
2, 63960, Note_on_c, 0, 74, 67
2, 64020, Note_on_c, 0, 74, 0
2, 64020, Note_on_c, 0, 79, 0
2, 64020, Note_on_c, 0, 83, 0
2, 64020, Note_on_c, 0, 83, 67
2, 64020, Note_on_c, 0, 79, 67
2, 64020, Note_on_c, 0, 74, 67
2, 64080, Note_on_c, 0, 74, 0
2, 64080, Note_on_c, 0, 79, 0
2, 64080, Note_on_c, 0, 83, 0
2, 64080, Note_on_c, 0, 84, 67
2, 64080, Note_on_c, 0, 75, 67
2, 64080, Note_on_c, 0, 79, 67
2, 64140, Note_on_c, 0, 79, 0
2, 64140, Note_on_c, 0, 75, 0
2, 64140, Note_on_c, 0, 84, 0
2, 64140, Note_on_c, 0, 67, 67
2, 64140, Note_on_c, 0, 75, 67
2, 64140, Note_on_c, 0, 79, 67
2, 64140, Note_on_c, 0, 72, 67
2, 64200, Note_on_c, 0, 72, 0
2, 64200, Note_on_c, 0, 67, 0
2, 64200, Note_on_c, 0, 75, 0
2, 64200, Note_on_c, 0, 79, 0
2, 64200, Note_on_c, 0, 67, 67
2, 64200, Note_on_c, 0, 75, 67
2, 64200, Note_on_c, 0, 79, 67
2, 64200, Note_on_c, 0, 72, 67
2, 64260, Note_on_c, 0, 72, 0
2, 64260, Note_on_c, 0, 67, 0
2, 64260, Note_on_c, 0, 75, 0
2, 64260, Note_on_c, 0, 79, 0
2, 64260, Note_on_c, 0, 67, 67
2, 64260, Note_on_c, 0, 72, 67
2, 64260, Note_on_c, 0, 75, 67
2, 64260, Note_on_c, 0, 79, 67
2, 64320, Note_on_c, 0, 79, 0
2, 64320, Note_on_c, 0, 67, 0
2, 64320, Note_on_c, 0, 72, 0
2, 64320, Note_on_c, 0, 75, 0
2, 64320, Note_on_c, 0, 67, 67
2, 64320, Note_on_c, 0, 72, 67
2, 64320, Note_on_c, 0, 75, 67
2, 64320, Note_on_c, 0, 79, 67
2, 64380, Note_on_c, 0, 79, 0
2, 64380, Note_on_c, 0, 67, 0
2, 64380, Note_on_c, 0, 72, 0
2, 64380, Note_on_c, 0, 75, 0
2, 64380, Note_on_c, 0, 67, 67
2, 64380, Note_on_c, 0, 72, 67
2, 64380, Note_on_c, 0, 75, 67
2, 64380, Note_on_c, 0, 79, 67
2, 64440, Note_on_c, 0, 79, 0
2, 64440, Note_on_c, 0, 67, 0
2, 64440, Note_on_c, 0, 72, 0
2, 64440, Note_on_c, 0, 75, 0
2, 64440, Note_on_c, 0, 80, 67
2, 64440, Note_on_c, 0, 75, 67
2, 64440, Note_on_c, 0, 72, 67
2, 64440, Note_on_c, 0, 84, 67
2, 64500, Note_on_c, 0, 84, 0
2, 64500, Note_on_c, 0, 80, 0
2, 64500, Note_on_c, 0, 75, 0
2, 64500, Note_on_c, 0, 72, 0
2, 64500, Note_on_c, 0, 80, 67
2, 64500, Note_on_c, 0, 75, 67
2, 64500, Note_on_c, 0, 72, 67
2, 64500, Note_on_c, 0, 84, 67
2, 64560, Note_on_c, 0, 84, 0
2, 64560, Note_on_c, 0, 80, 0
2, 64560, Note_on_c, 0, 75, 0
2, 64560, Note_on_c, 0, 72, 0
2, 64560, Note_on_c, 0, 80, 67
2, 64560, Note_on_c, 0, 72, 67
2, 64560, Note_on_c, 0, 84, 67
2, 64560, Note_on_c, 0, 75, 67
2, 64620, Note_on_c, 0, 75, 0
2, 64620, Note_on_c, 0, 80, 0
2, 64620, Note_on_c, 0, 72, 0
2, 64620, Note_on_c, 0, 84, 0
2, 64620, Note_on_c, 0, 81, 67
2, 64620, Note_on_c, 0, 75, 67
2, 64620, Note_on_c, 0, 72, 67
2, 64620, Note_on_c, 0, 84, 67
2, 64680, Note_on_c, 0, 84, 0
2, 64680, Note_on_c, 0, 81, 0
2, 64680, Note_on_c, 0, 75, 0
2, 64680, Note_on_c, 0, 72, 0
2, 64680, Note_on_c, 0, 81, 67
2, 64680, Note_on_c, 0, 84, 67
2, 64680, Note_on_c, 0, 75, 67
2, 64680, Note_on_c, 0, 72, 67
2, 64740, Note_on_c, 0, 72, 0
2, 64740, Note_on_c, 0, 81, 0
2, 64740, Note_on_c, 0, 84, 0
2, 64740, Note_on_c, 0, 75, 0
2, 64740, Note_on_c, 0, 81, 67
2, 64740, Note_on_c, 0, 84, 67
2, 64740, Note_on_c, 0, 72, 67
2, 64740, Note_on_c, 0, 75, 67
2, 64800, Note_on_c, 0, 75, 0
2, 64800, Note_on_c, 0, 81, 0
2, 64800, Note_on_c, 0, 84, 0
2, 64800, Note_on_c, 0, 72, 0
2, 64800, Note_on_c, 0, 74, 67
2, 64800, Note_on_c, 0, 83, 67
2, 64800, Note_on_c, 0, 79, 67
2, 64860, Note_on_c, 0, 79, 0
2, 64860, Note_on_c, 0, 83, 0
2, 64860, Note_on_c, 0, 74, 0
2, 64860, Note_on_c, 0, 74, 67
2, 64860, Note_on_c, 0, 79, 67
2, 64860, Note_on_c, 0, 83, 67
2, 64920, Note_on_c, 0, 83, 0
2, 64920, Note_on_c, 0, 79, 0
2, 64920, Note_on_c, 0, 74, 0
2, 64920, Note_on_c, 0, 74, 67
2, 64920, Note_on_c, 0, 79, 67
2, 64920, Note_on_c, 0, 83, 67
2, 64980, Note_on_c, 0, 83, 0
2, 64980, Note_on_c, 0, 79, 0
2, 64980, Note_on_c, 0, 74, 0
2, 64980, Note_on_c, 0, 79, 67
2, 65010, Note_on_c, 0, 79, 0
2, 65010, Note_on_c, 0, 78, 67
2, 65040, Note_on_c, 0, 78, 0
2, 65040, Note_on_c, 0, 79, 67
2, 65070, Note_on_c, 0, 79, 0
2, 65070, Note_on_c, 0, 74, 67
2, 65100, Note_on_c, 0, 74, 0
2, 65100, Note_on_c, 0, 71, 67
2, 65130, Note_on_c, 0, 71, 0
2, 65130, Note_on_c, 0, 67, 67
2, 65160, Note_on_c, 0, 67, 0
2, 65160, Note_on_c, 0, 75, 67
2, 65160, Note_on_c, 0, 79, 67
2, 65160, Note_on_c, 0, 84, 67
2, 65220, Note_on_c, 0, 84, 0
2, 65220, Note_on_c, 0, 79, 0
2, 65220, Note_on_c, 0, 75, 0
2, 65220, Note_on_c, 0, 75, 67
2, 65220, Note_on_c, 0, 79, 67
2, 65220, Note_on_c, 0, 84, 67
2, 65280, Note_on_c, 0, 84, 0
2, 65280, Note_on_c, 0, 79, 0
2, 65280, Note_on_c, 0, 75, 0
2, 65280, Note_on_c, 0, 75, 67
2, 65280, Note_on_c, 0, 79, 67
2, 65280, Note_on_c, 0, 84, 67
2, 65340, Note_on_c, 0, 84, 0
2, 65340, Note_on_c, 0, 79, 0
2, 65340, Note_on_c, 0, 75, 0
2, 65340, Note_on_c, 0, 79, 67
2, 65370, Note_on_c, 0, 79, 0
2, 65370, Note_on_c, 0, 78, 67
2, 65400, Note_on_c, 0, 78, 0
2, 65400, Note_on_c, 0, 79, 67
2, 65430, Note_on_c, 0, 79, 0
2, 65430, Note_on_c, 0, 75, 67
2, 65460, Note_on_c, 0, 75, 0
2, 65460, Note_on_c, 0, 72, 67
2, 65490, Note_on_c, 0, 72, 0
2, 65490, Note_on_c, 0, 67, 67
2, 65520, Note_on_c, 0, 67, 0
2, 65520, Note_on_c, 0, 71, 67
2, 65520, Note_on_c, 0, 74, 67
2, 65520, Note_on_c, 0, 79, 67
2, 65580, Note_on_c, 0, 79, 0
2, 65580, Note_on_c, 0, 74, 0
2, 65580, Note_on_c, 0, 71, 0
2, 65580, Note_on_c, 0, 74, 67
2, 65580, Note_on_c, 0, 79, 67
2, 65580, Note_on_c, 0, 71, 67
2, 65640, Note_on_c, 0, 71, 0
2, 65640, Note_on_c, 0, 79, 0
2, 65640, Note_on_c, 0, 74, 0
2, 65640, Note_on_c, 0, 74, 66
2, 65640, Note_on_c, 0, 79, 66
2, 65640, Note_on_c, 0, 71, 66
2, 65700, Note_on_c, 0, 71, 0
2, 65700, Note_on_c, 0, 79, 0
2, 65700, Note_on_c, 0, 74, 0
2, 65700, Note_on_c, 0, 79, 66
2, 65730, Note_on_c, 0, 79, 0
2, 65730, Note_on_c, 0, 78, 66
2, 65760, Note_on_c, 0, 78, 0
2, 65760, Note_on_c, 0, 79, 66
2, 65790, Note_on_c, 0, 79, 0
2, 65790, Note_on_c, 0, 74, 66
2, 65820, Note_on_c, 0, 74, 0
2, 65820, Note_on_c, 0, 71, 66
2, 65850, Note_on_c, 0, 71, 0
2, 65850, Note_on_c, 0, 67, 66
2, 65880, Note_on_c, 0, 67, 0
2, 65880, Note_on_c, 0, 84, 66
2, 65880, Note_on_c, 0, 79, 66
2, 65880, Note_on_c, 0, 75, 66
2, 65940, Note_on_c, 0, 75, 0
2, 65940, Note_on_c, 0, 79, 0
2, 65940, Note_on_c, 0, 84, 0
2, 65940, Note_on_c, 0, 84, 66
2, 65940, Note_on_c, 0, 79, 66
2, 65940, Note_on_c, 0, 75, 66
2, 66000, Note_on_c, 0, 75, 0
2, 66000, Note_on_c, 0, 79, 0
2, 66000, Note_on_c, 0, 84, 0
2, 66000, Note_on_c, 0, 79, 66
2, 66000, Note_on_c, 0, 75, 66
2, 66000, Note_on_c, 0, 84, 66
2, 66060, Note_on_c, 0, 84, 0
2, 66060, Note_on_c, 0, 75, 0
2, 66060, Note_on_c, 0, 79, 0
2, 66060, Note_on_c, 0, 79, 66
2, 66090, Note_on_c, 0, 79, 0
2, 66090, Note_on_c, 0, 78, 66
2, 66120, Note_on_c, 0, 78, 0
2, 66120, Note_on_c, 0, 79, 66
2, 66150, Note_on_c, 0, 79, 0
2, 66150, Note_on_c, 0, 74, 66
2, 66180, Note_on_c, 0, 74, 0
2, 66180, Note_on_c, 0, 71, 66
2, 66210, Note_on_c, 0, 71, 0
2, 66210, Note_on_c, 0, 67, 66
2, 66240, Note_on_c, 0, 67, 0
2, 66240, Note_on_c, 0, 67, 66
2, 66270, Note_on_c, 0, 67, 0
2, 66270, Note_on_c, 0, 79, 66
2, 66300, Note_on_c, 0, 79, 0
2, 66300, Note_on_c, 0, 67, 66
2, 66330, Note_on_c, 0, 67, 0
2, 66330, Note_on_c, 0, 79, 66
2, 66360, Note_on_c, 0, 79, 0
2, 66360, Note_on_c, 0, 66, 66
2, 66390, Note_on_c, 0, 66, 0
2, 66390, Note_on_c, 0, 78, 66
2, 66420, Note_on_c, 0, 78, 0
2, 66420, Note_on_c, 0, 67, 66
2, 66450, Note_on_c, 0, 67, 0
2, 66450, Note_on_c, 0, 79, 66
2, 66480, Note_on_c, 0, 79, 0
2, 66480, Note_on_c, 0, 67, 66
2, 66510, Note_on_c, 0, 67, 0
2, 66510, Note_on_c, 0, 79, 66
2, 66540, Note_on_c, 0, 79, 0
2, 66540, Note_on_c, 0, 66, 66
2, 66570, Note_on_c, 0, 66, 0
2, 66570, Note_on_c, 0, 78, 66
2, 66600, Note_on_c, 0, 78, 0
2, 66600, Note_on_c, 0, 67, 66
2, 66630, Note_on_c, 0, 67, 0
2, 66630, Note_on_c, 0, 79, 66
2, 66660, Note_on_c, 0, 79, 0
2, 66660, Note_on_c, 0, 67, 66
2, 66690, Note_on_c, 0, 67, 0
2, 66690, Note_on_c, 0, 79, 66
2, 66720, Note_on_c, 0, 79, 0
2, 66720, Note_on_c, 0, 66, 66
2, 66750, Note_on_c, 0, 66, 0
2, 66750, Note_on_c, 0, 78, 66
2, 66780, Note_on_c, 0, 78, 0
2, 66780, Note_on_c, 0, 67, 66
2, 66810, Note_on_c, 0, 67, 0
2, 66810, Note_on_c, 0, 79, 66
2, 66840, Note_on_c, 0, 79, 0
2, 66840, Note_on_c, 0, 67, 66
2, 66870, Note_on_c, 0, 67, 0
2, 66870, Note_on_c, 0, 79, 66
2, 66900, Note_on_c, 0, 79, 0
2, 66900, Note_on_c, 0, 66, 66
2, 66930, Note_on_c, 0, 66, 0
2, 66930, Note_on_c, 0, 78, 66
2, 66960, Note_on_c, 0, 78, 0
2, 66960, Note_on_c, 0, 67, 66
2, 66990, Note_on_c, 0, 67, 0
2, 66990, Note_on_c, 0, 79, 66
2, 67020, Note_on_c, 0, 79, 0
2, 67020, Note_on_c, 0, 67, 66
2, 67050, Note_on_c, 0, 67, 0
2, 67050, Note_on_c, 0, 79, 66
2, 67080, Note_on_c, 0, 79, 0
2, 67080, Note_on_c, 0, 67, 66
2, 67110, Note_on_c, 0, 67, 0
2, 67110, Note_on_c, 0, 79, 66
2, 67140, Note_on_c, 0, 79, 0
2, 67140, Note_on_c, 0, 67, 66
2, 67170, Note_on_c, 0, 67, 0
2, 67170, Note_on_c, 0, 79, 66
2, 67200, Note_on_c, 0, 79, 0
2, 67200, Note_on_c, 0, 67, 66
2, 67230, Note_on_c, 0, 67, 0
2, 67230, Note_on_c, 0, 79, 66
2, 67260, Note_on_c, 0, 79, 0
2, 67260, Note_on_c, 0, 67, 66
2, 67290, Note_on_c, 0, 67, 0
2, 67290, Note_on_c, 0, 79, 66
2, 67320, Note_on_c, 0, 79, 0
2, 67320, Note_on_c, 0, 67, 66
2, 67380, Note_on_c, 0, 67, 0
2, 67380, Note_on_c, 0, 82, 66
2, 67440, Note_on_c, 0, 82, 0
2, 67440, Note_on_c, 0, 79, 66
2, 67500, Note_on_c, 0, 79, 0
2, 67500, Note_on_c, 0, 76, 66
2, 67560, Note_on_c, 0, 76, 0
2, 67560, Note_on_c, 0, 72, 66
2, 67620, Note_on_c, 0, 72, 0
2, 67620, Note_on_c, 0, 70, 66
2, 67680, Note_on_c, 0, 70, 0
2, 67680, Note_on_c, 0, 67, 66
2, 67740, Note_on_c, 0, 67, 0
2, 67740, Note_on_c, 0, 82, 66
2, 67800, Note_on_c, 0, 82, 0
2, 67800, Note_on_c, 0, 79, 66
2, 67860, Note_on_c, 0, 79, 0
2, 67860, Note_on_c, 0, 76, 66
2, 67920, Note_on_c, 0, 76, 0
2, 67920, Note_on_c, 0, 72, 66
2, 67980, Note_on_c, 0, 72, 0
2, 67980, Note_on_c, 0, 70, 66
2, 68040, Note_on_c, 0, 70, 0
2, 68040, Note_on_c, 0, 64, 66
2, 68100, Note_on_c, 0, 64, 0
2, 68100, Note_on_c, 0, 76, 66
2, 68160, Note_on_c, 0, 76, 0
2, 68160, Note_on_c, 0, 72, 66
2, 68220, Note_on_c, 0, 72, 0
2, 68220, Note_on_c, 0, 70, 66
2, 68280, Note_on_c, 0, 70, 0
2, 68280, Note_on_c, 0, 67, 66
2, 68340, Note_on_c, 0, 67, 0
2, 68340, Note_on_c, 0, 64, 66
2, 68400, Note_on_c, 0, 64, 0
2, 68400, Note_on_c, 0, 60, 66
2, 68460, Note_on_c, 0, 60, 0
2, 68460, Note_on_c, 0, 70, 66
2, 68520, Note_on_c, 0, 70, 0
2, 68520, Note_on_c, 0, 67, 66
2, 68580, Note_on_c, 0, 67, 0
2, 68580, Note_on_c, 0, 64, 66
2, 68640, Note_on_c, 0, 64, 0
2, 68640, Note_on_c, 0, 60, 66
2, 68700, Note_on_c, 0, 60, 0
2, 68700, Note_on_c, 0, 58, 66
2, 68760, Note_on_c, 0, 58, 0
2, 68760, Note_on_c, 0, 55, 66
2, 68820, Note_on_c, 0, 55, 0
2, 68820, Note_on_c, 0, 67, 66
2, 68880, Note_on_c, 0, 67, 0
2, 68880, Note_on_c, 0, 64, 66
2, 68940, Note_on_c, 0, 64, 0
2, 68940, Note_on_c, 0, 60, 66
2, 69000, Note_on_c, 0, 60, 0
2, 69000, Note_on_c, 0, 58, 66
2, 69060, Note_on_c, 0, 58, 0
2, 69060, Note_on_c, 0, 55, 66
2, 69120, Note_on_c, 0, 55, 0
2, 70680, Note_on_c, 0, 65, 68
2, 70740, Note_on_c, 0, 65, 0
2, 70740, Note_on_c, 0, 65, 68
2, 70800, Note_on_c, 0, 65, 0
2, 70800, Note_on_c, 0, 60, 68
2, 70860, Note_on_c, 0, 60, 0
2, 70860, Note_on_c, 0, 69, 68
2, 70920, Note_on_c, 0, 69, 0
2, 70920, Note_on_c, 0, 69, 68
2, 70980, Note_on_c, 0, 69, 0
2, 70980, Note_on_c, 0, 65, 68
2, 71040, Note_on_c, 0, 65, 0
2, 71040, Note_on_c, 0, 72, 68
2, 71100, Note_on_c, 0, 72, 0
2, 71100, Note_on_c, 0, 72, 68
2, 71220, Note_on_c, 0, 72, 0
2, 71220, Note_on_c, 0, 67, 68
2, 71220, Note_on_c, 0, 70, 68
2, 71280, Note_on_c, 0, 70, 0
2, 71280, Note_on_c, 0, 67, 0
2, 71280, Note_on_c, 0, 65, 68
2, 71280, Note_on_c, 0, 69, 68
2, 71400, Note_on_c, 0, 69, 0
2, 71400, Note_on_c, 0, 65, 0
2, 71400, Note_on_c, 0, 72, 68
2, 71460, Note_on_c, 0, 72, 0
2, 71460, Note_on_c, 0, 72, 68
2, 71580, Note_on_c, 0, 72, 0
2, 71580, Note_on_c, 0, 67, 68
2, 71580, Note_on_c, 0, 70, 68
2, 71640, Note_on_c, 0, 70, 0
2, 71640, Note_on_c, 0, 67, 0
2, 71640, Note_on_c, 0, 65, 68
2, 71640, Note_on_c, 0, 69, 68
2, 71760, Note_on_c, 0, 69, 0
2, 71760, Note_on_c, 0, 65, 0
2, 71760, Note_on_c, 0, 74, 68
2, 71820, Note_on_c, 0, 74, 0
2, 71820, Note_on_c, 0, 72, 68
2, 71940, Note_on_c, 0, 72, 0
2, 71940, Note_on_c, 0, 67, 68
2, 71940, Note_on_c, 0, 70, 68
2, 72000, Note_on_c, 0, 70, 0
2, 72000, Note_on_c, 0, 67, 0
2, 72000, Note_on_c, 0, 65, 68
2, 72000, Note_on_c, 0, 69, 68
2, 72120, Note_on_c, 0, 69, 0
2, 72120, Note_on_c, 0, 65, 0
2, 72120, Note_on_c, 0, 75, 68
2, 72180, Note_on_c, 0, 75, 0
2, 72180, Note_on_c, 0, 74, 68
2, 72300, Note_on_c, 0, 74, 0
2, 72300, Note_on_c, 0, 72, 68
2, 72300, Note_on_c, 0, 69, 68
2, 72360, Note_on_c, 0, 69, 0
2, 72360, Note_on_c, 0, 72, 0
2, 72360, Note_on_c, 0, 70, 67
2, 72360, Note_on_c, 0, 67, 67
2, 72480, Note_on_c, 0, 67, 0
2, 72480, Note_on_c, 0, 70, 0
2, 72480, Note_on_c, 0, 75, 67
2, 72540, Note_on_c, 0, 75, 0
2, 72540, Note_on_c, 0, 74, 67
2, 72660, Note_on_c, 0, 74, 0
2, 72660, Note_on_c, 0, 69, 67
2, 72660, Note_on_c, 0, 72, 67
2, 72720, Note_on_c, 0, 72, 0
2, 72720, Note_on_c, 0, 69, 0
2, 72720, Note_on_c, 0, 70, 67
2, 72720, Note_on_c, 0, 67, 67
2, 72840, Note_on_c, 0, 67, 0
2, 72840, Note_on_c, 0, 70, 0
2, 72840, Note_on_c, 0, 79, 67
2, 72900, Note_on_c, 0, 79, 0
2, 72900, Note_on_c, 0, 77, 67
2, 73020, Note_on_c, 0, 77, 0
2, 73020, Note_on_c, 0, 72, 67
2, 73020, Note_on_c, 0, 75, 67
2, 73080, Note_on_c, 0, 75, 0
2, 73080, Note_on_c, 0, 72, 0
2, 73080, Note_on_c, 0, 70, 67
2, 73080, Note_on_c, 0, 74, 67
2, 73200, Note_on_c, 0, 74, 0
2, 73200, Note_on_c, 0, 70, 0
2, 73200, Note_on_c, 0, 79, 67
2, 73260, Note_on_c, 0, 79, 0
2, 73260, Note_on_c, 0, 79, 67
2, 73320, Note_on_c, 0, 79, 0
2, 73320, Note_on_c, 0, 77, 67
2, 73380, Note_on_c, 0, 77, 0
2, 73380, Note_on_c, 0, 72, 67
2, 73380, Note_on_c, 0, 75, 67
2, 73440, Note_on_c, 0, 75, 0
2, 73440, Note_on_c, 0, 72, 0
2, 73440, Note_on_c, 0, 70, 67
2, 73440, Note_on_c, 0, 74, 67
2, 73500, Note_on_c, 0, 74, 0
2, 73500, Note_on_c, 0, 70, 0
2, 73500, Note_on_c, 0, 72, 67
2, 73500, Note_on_c, 0, 75, 67
2, 73560, Note_on_c, 0, 75, 0
2, 73560, Note_on_c, 0, 72, 0
2, 73560, Note_on_c, 0, 74, 67
2, 73560, Note_on_c, 0, 77, 67
2, 73620, Note_on_c, 0, 77, 0
2, 73620, Note_on_c, 0, 74, 0
2, 73620, Note_on_c, 0, 75, 67
2, 73620, Note_on_c, 0, 79, 67
2, 73680, Note_on_c, 0, 79, 0
2, 73680, Note_on_c, 0, 75, 0
2, 73680, Note_on_c, 0, 72, 67
2, 73680, Note_on_c, 0, 75, 67
2, 73740, Note_on_c, 0, 75, 0
2, 73740, Note_on_c, 0, 72, 0
2, 73740, Note_on_c, 0, 70, 67
2, 73740, Note_on_c, 0, 74, 67
2, 73800, Note_on_c, 0, 74, 0
2, 73800, Note_on_c, 0, 70, 0
2, 73800, Note_on_c, 0, 69, 67
2, 73800, Note_on_c, 0, 72, 67
2, 73830, Note_on_c, 0, 72, 0
2, 73830, Note_on_c, 0, 69, 0
2, 73830, Note_on_c, 0, 70, 67
2, 73830, Note_on_c, 0, 74, 67
2, 73860, Note_on_c, 0, 74, 0
2, 73860, Note_on_c, 0, 70, 0
2, 73860, Note_on_c, 0, 69, 67
2, 73860, Note_on_c, 0, 72, 67
2, 73890, Note_on_c, 0, 72, 0
2, 73890, Note_on_c, 0, 69, 0
2, 73890, Note_on_c, 0, 70, 67
2, 73890, Note_on_c, 0, 74, 67
2, 73920, Note_on_c, 0, 74, 0
2, 73920, Note_on_c, 0, 70, 0
2, 73920, Note_on_c, 0, 69, 67
2, 73920, Note_on_c, 0, 72, 67
2, 73950, Note_on_c, 0, 72, 0
2, 73950, Note_on_c, 0, 69, 0
2, 73950, Note_on_c, 0, 70, 67
2, 73950, Note_on_c, 0, 74, 67
2, 73980, Note_on_c, 0, 74, 0
2, 73980, Note_on_c, 0, 70, 0
2, 73980, Note_on_c, 0, 69, 67
2, 73980, Note_on_c, 0, 72, 67
2, 74100, Note_on_c, 0, 72, 0
2, 74100, Note_on_c, 0, 69, 0
2, 74100, Note_on_c, 0, 65, 67
2, 74160, Note_on_c, 0, 65, 0
2, 74160, Note_on_c, 0, 65, 67
2, 74190, Note_on_c, 0, 65, 0
2, 74190, Note_on_c, 0, 62, 67
2, 74220, Note_on_c, 0, 62, 0
2, 74220, Note_on_c, 0, 63, 67
2, 74250, Note_on_c, 0, 63, 0
2, 74250, Note_on_c, 0, 65, 67
2, 74280, Note_on_c, 0, 65, 0
2, 74280, Note_on_c, 0, 67, 67
2, 74310, Note_on_c, 0, 67, 0
2, 74310, Note_on_c, 0, 69, 67
2, 74340, Note_on_c, 0, 69, 0
2, 74340, Note_on_c, 0, 70, 67
2, 74370, Note_on_c, 0, 70, 0
2, 74370, Note_on_c, 0, 65, 67
2, 74400, Note_on_c, 0, 65, 0
2, 74400, Note_on_c, 0, 67, 67
2, 74430, Note_on_c, 0, 67, 0
2, 74430, Note_on_c, 0, 69, 67
2, 74460, Note_on_c, 0, 69, 0
2, 74460, Note_on_c, 0, 70, 67
2, 74490, Note_on_c, 0, 70, 0
2, 74490, Note_on_c, 0, 72, 67
2, 74520, Note_on_c, 0, 72, 0
2, 74520, Note_on_c, 0, 74, 67
2, 74550, Note_on_c, 0, 74, 0
2, 74550, Note_on_c, 0, 69, 67
2, 74580, Note_on_c, 0, 69, 0
2, 74580, Note_on_c, 0, 70, 67
2, 74610, Note_on_c, 0, 70, 0
2, 74610, Note_on_c, 0, 72, 67
2, 74640, Note_on_c, 0, 72, 0
2, 74640, Note_on_c, 0, 74, 67
2, 74670, Note_on_c, 0, 74, 0
2, 74670, Note_on_c, 0, 75, 67
2, 74700, Note_on_c, 0, 75, 0
2, 74700, Note_on_c, 0, 77, 67
2, 74730, Note_on_c, 0, 77, 0
2, 74730, Note_on_c, 0, 74, 67
2, 74760, Note_on_c, 0, 74, 0
2, 74760, Note_on_c, 0, 75, 67
2, 74790, Note_on_c, 0, 75, 0
2, 74790, Note_on_c, 0, 77, 67
2, 74820, Note_on_c, 0, 77, 0
2, 74820, Note_on_c, 0, 79, 67
2, 74850, Note_on_c, 0, 79, 0
2, 74850, Note_on_c, 0, 81, 67
2, 74880, Note_on_c, 0, 81, 0
2, 74880, Note_on_c, 0, 82, 67
2, 74910, Note_on_c, 0, 82, 0
2, 74910, Note_on_c, 0, 81, 67
2, 74940, Note_on_c, 0, 81, 0
2, 74940, Note_on_c, 0, 79, 67
2, 74970, Note_on_c, 0, 79, 0
2, 74970, Note_on_c, 0, 77, 67
2, 75000, Note_on_c, 0, 77, 0
2, 75000, Note_on_c, 0, 75, 67
2, 75030, Note_on_c, 0, 75, 0
2, 75030, Note_on_c, 0, 74, 67
2, 75060, Note_on_c, 0, 74, 0
2, 75060, Note_on_c, 0, 72, 67
2, 75090, Note_on_c, 0, 72, 0
2, 75090, Note_on_c, 0, 70, 67
2, 75120, Note_on_c, 0, 70, 0
2, 75120, Note_on_c, 0, 69, 67
2, 75150, Note_on_c, 0, 69, 0
2, 75150, Note_on_c, 0, 70, 67
2, 75180, Note_on_c, 0, 70, 0
2, 75180, Note_on_c, 0, 74, 67
2, 75210, Note_on_c, 0, 74, 0
2, 75210, Note_on_c, 0, 70, 67
2, 75240, Note_on_c, 0, 70, 0
2, 75240, Note_on_c, 0, 79, 67
2, 75270, Note_on_c, 0, 79, 0
2, 75270, Note_on_c, 0, 77, 67
2, 75300, Note_on_c, 0, 77, 0
2, 75300, Note_on_c, 0, 75, 67
2, 75330, Note_on_c, 0, 75, 0
2, 75330, Note_on_c, 0, 74, 67
2, 75360, Note_on_c, 0, 74, 0
2, 75360, Note_on_c, 0, 72, 68
2, 75390, Note_on_c, 0, 72, 0
2, 75390, Note_on_c, 0, 70, 68
2, 75420, Note_on_c, 0, 70, 0
2, 75420, Note_on_c, 0, 69, 68
2, 75450, Note_on_c, 0, 69, 0
2, 75450, Note_on_c, 0, 67, 68
2, 75480, Note_on_c, 0, 67, 0
2, 75480, Note_on_c, 0, 65, 68
2, 75510, Note_on_c, 0, 65, 0
2, 75510, Note_on_c, 0, 63, 68
2, 75540, Note_on_c, 0, 63, 0
2, 75540, Note_on_c, 0, 62, 68
2, 75570, Note_on_c, 0, 62, 0
2, 75570, Note_on_c, 0, 60, 68
2, 75600, Note_on_c, 0, 60, 0
2, 75600, Note_on_c, 0, 58, 68
2, 75630, Note_on_c, 0, 58, 0
2, 75630, Note_on_c, 0, 62, 68
2, 75660, Note_on_c, 0, 62, 0
2, 75660, Note_on_c, 0, 63, 68
2, 75690, Note_on_c, 0, 63, 0
2, 75690, Note_on_c, 0, 65, 68
2, 75720, Note_on_c, 0, 65, 0
2, 75720, Note_on_c, 0, 67, 68
2, 75750, Note_on_c, 0, 67, 0
2, 75750, Note_on_c, 0, 69, 68
2, 75780, Note_on_c, 0, 69, 0
2, 75780, Note_on_c, 0, 70, 68
2, 75810, Note_on_c, 0, 70, 0
2, 75810, Note_on_c, 0, 65, 68
2, 75840, Note_on_c, 0, 65, 0
2, 75840, Note_on_c, 0, 67, 68
2, 75870, Note_on_c, 0, 67, 0
2, 75870, Note_on_c, 0, 69, 68
2, 75900, Note_on_c, 0, 69, 0
2, 75900, Note_on_c, 0, 70, 68
2, 75930, Note_on_c, 0, 70, 0
2, 75930, Note_on_c, 0, 72, 68
2, 75960, Note_on_c, 0, 72, 0
2, 75960, Note_on_c, 0, 74, 68
2, 75990, Note_on_c, 0, 74, 0
2, 75990, Note_on_c, 0, 69, 68
2, 76020, Note_on_c, 0, 69, 0
2, 76020, Note_on_c, 0, 70, 68
2, 76050, Note_on_c, 0, 70, 0
2, 76050, Note_on_c, 0, 72, 68
2, 76080, Note_on_c, 0, 72, 0
2, 76080, Note_on_c, 0, 74, 68
2, 76110, Note_on_c, 0, 74, 0
2, 76110, Note_on_c, 0, 75, 68
2, 76140, Note_on_c, 0, 75, 0
2, 76140, Note_on_c, 0, 77, 68
2, 76170, Note_on_c, 0, 77, 0
2, 76170, Note_on_c, 0, 74, 68
2, 76200, Note_on_c, 0, 74, 0
2, 76200, Note_on_c, 0, 75, 68
2, 76230, Note_on_c, 0, 75, 0
2, 76230, Note_on_c, 0, 77, 68
2, 76260, Note_on_c, 0, 77, 0
2, 76260, Note_on_c, 0, 79, 68
2, 76290, Note_on_c, 0, 79, 0
2, 76290, Note_on_c, 0, 81, 68
2, 76320, Note_on_c, 0, 81, 0
2, 76320, Note_on_c, 0, 82, 68
2, 76350, Note_on_c, 0, 82, 0
2, 76350, Note_on_c, 0, 81, 68
2, 76380, Note_on_c, 0, 81, 0
2, 76380, Note_on_c, 0, 79, 68
2, 76410, Note_on_c, 0, 79, 0
2, 76410, Note_on_c, 0, 77, 68
2, 76440, Note_on_c, 0, 77, 0
2, 76440, Note_on_c, 0, 75, 68
2, 76470, Note_on_c, 0, 75, 0
2, 76470, Note_on_c, 0, 74, 68
2, 76500, Note_on_c, 0, 74, 0
2, 76500, Note_on_c, 0, 72, 68
2, 76530, Note_on_c, 0, 72, 0
2, 76530, Note_on_c, 0, 70, 68
2, 76560, Note_on_c, 0, 70, 0
2, 76560, Note_on_c, 0, 69, 68
2, 76590, Note_on_c, 0, 69, 0
2, 76590, Note_on_c, 0, 67, 68
2, 76620, Note_on_c, 0, 67, 0
2, 76620, Note_on_c, 0, 65, 68
2, 76650, Note_on_c, 0, 65, 0
2, 76650, Note_on_c, 0, 63, 68
2, 76680, Note_on_c, 0, 63, 0
2, 77280, Note_on_c, 0, 62, 69
2, 77340, Note_on_c, 0, 62, 0
2, 77340, Note_on_c, 0, 65, 69
2, 77400, Note_on_c, 0, 65, 0
2, 77400, Note_on_c, 0, 60, 69
2, 77400, Note_on_c, 0, 65, 69
2, 77400, Note_on_c, 0, 69, 69
2, 77520, Note_on_c, 0, 69, 0
2, 77520, Note_on_c, 0, 65, 0
2, 77520, Note_on_c, 0, 60, 0
2, 77520, Note_on_c, 0, 60, 69
2, 77520, Note_on_c, 0, 65, 69
2, 77520, Note_on_c, 0, 69, 69
2, 77580, Note_on_c, 0, 69, 0
2, 77580, Note_on_c, 0, 65, 0
2, 77580, Note_on_c, 0, 60, 0
2, 77580, Note_on_c, 0, 62, 69
2, 77580, Note_on_c, 0, 65, 69
2, 77580, Note_on_c, 0, 70, 69
2, 77700, Note_on_c, 0, 70, 0
2, 77700, Note_on_c, 0, 65, 0
2, 77700, Note_on_c, 0, 62, 0
2, 77700, Note_on_c, 0, 70, 69
2, 77700, Note_on_c, 0, 62, 69
2, 77700, Note_on_c, 0, 65, 69
2, 77760, Note_on_c, 0, 65, 0
2, 77760, Note_on_c, 0, 62, 0
2, 77760, Note_on_c, 0, 70, 0
2, 77760, Note_on_c, 0, 60, 69
2, 77760, Note_on_c, 0, 65, 69
2, 77760, Note_on_c, 0, 69, 69
2, 77880, Note_on_c, 0, 69, 0
2, 77880, Note_on_c, 0, 65, 0
2, 77880, Note_on_c, 0, 60, 0
2, 77880, Note_on_c, 0, 65, 69
2, 77880, Note_on_c, 0, 69, 69
2, 77880, Note_on_c, 0, 60, 69
2, 77940, Note_on_c, 0, 60, 0
2, 77940, Note_on_c, 0, 69, 0
2, 77940, Note_on_c, 0, 65, 0
2, 77940, Note_on_c, 0, 62, 69
2, 77940, Note_on_c, 0, 65, 69
2, 77940, Note_on_c, 0, 70, 69
2, 78060, Note_on_c, 0, 70, 0
2, 78060, Note_on_c, 0, 65, 0
2, 78060, Note_on_c, 0, 62, 0
2, 78060, Note_on_c, 0, 70, 69
2, 78060, Note_on_c, 0, 65, 69
2, 78060, Note_on_c, 0, 62, 69
2, 78120, Note_on_c, 0, 62, 0
2, 78120, Note_on_c, 0, 65, 0
2, 78120, Note_on_c, 0, 70, 0
2, 78120, Note_on_c, 0, 60, 69
2, 78120, Note_on_c, 0, 65, 69
2, 78120, Note_on_c, 0, 69, 69
2, 78240, Note_on_c, 0, 69, 0
2, 78240, Note_on_c, 0, 65, 0
2, 78240, Note_on_c, 0, 60, 0
2, 78240, Note_on_c, 0, 69, 69
2, 78240, Note_on_c, 0, 60, 69
2, 78240, Note_on_c, 0, 65, 69
2, 78300, Note_on_c, 0, 65, 0
2, 78300, Note_on_c, 0, 60, 0
2, 78300, Note_on_c, 0, 69, 0
2, 78300, Note_on_c, 0, 62, 69
2, 78300, Note_on_c, 0, 65, 69
2, 78300, Note_on_c, 0, 70, 69
2, 78420, Note_on_c, 0, 70, 0
2, 78420, Note_on_c, 0, 65, 0
2, 78420, Note_on_c, 0, 62, 0
2, 78420, Note_on_c, 0, 70, 69
2, 78420, Note_on_c, 0, 62, 69
2, 78420, Note_on_c, 0, 65, 69
2, 78480, Note_on_c, 0, 65, 0
2, 78480, Note_on_c, 0, 62, 0
2, 78480, Note_on_c, 0, 70, 0
2, 78480, Note_on_c, 0, 70, 69
2, 78480, Note_on_c, 0, 65, 69
2, 78480, Note_on_c, 0, 62, 69
2, 78660, Note_on_c, 0, 62, 0
2, 78660, Note_on_c, 0, 65, 0
2, 78660, Note_on_c, 0, 70, 0
2, 78840, Note_on_c, 0, 67, 68
2, 78840, Note_on_c, 0, 63, 68
2, 78840, Note_on_c, 0, 58, 68
2, 78900, Note_on_c, 0, 58, 0
2, 78900, Note_on_c, 0, 63, 0
2, 78900, Note_on_c, 0, 67, 0
2, 78900, Note_on_c, 0, 67, 68
2, 78960, Note_on_c, 0, 67, 0
2, 78960, Note_on_c, 0, 63, 68
2, 79020, Note_on_c, 0, 63, 0
2, 79020, Note_on_c, 0, 70, 68
2, 79020, Note_on_c, 0, 58, 68
2, 79080, Note_on_c, 0, 58, 0
2, 79080, Note_on_c, 0, 70, 0
2, 79080, Note_on_c, 0, 70, 68
2, 79140, Note_on_c, 0, 70, 0
2, 79140, Note_on_c, 0, 67, 68
2, 79200, Note_on_c, 0, 67, 0
2, 79200, Note_on_c, 0, 67, 68
2, 79200, Note_on_c, 0, 75, 68
2, 79260, Note_on_c, 0, 75, 0
2, 79260, Note_on_c, 0, 67, 0
2, 79260, Note_on_c, 0, 75, 68
2, 79320, Note_on_c, 0, 75, 0
2, 79320, Note_on_c, 0, 70, 68
2, 79380, Note_on_c, 0, 70, 0
2, 79380, Note_on_c, 0, 79, 68
2, 79380, Note_on_c, 0, 70, 68
2, 79440, Note_on_c, 0, 70, 0
2, 79440, Note_on_c, 0, 79, 0
2, 79440, Note_on_c, 0, 79, 68
2, 79500, Note_on_c, 0, 79, 0
2, 79500, Note_on_c, 0, 75, 68
2, 79560, Note_on_c, 0, 75, 0
2, 79560, Note_on_c, 0, 77, 68
2, 79620, Note_on_c, 0, 77, 0
2, 79620, Note_on_c, 0, 65, 68
2, 79620, Note_on_c, 0, 70, 68
2, 79620, Note_on_c, 0, 74, 68
2, 79680, Note_on_c, 0, 74, 0
2, 79680, Note_on_c, 0, 70, 0
2, 79680, Note_on_c, 0, 65, 0
2, 79680, Note_on_c, 0, 65, 68
2, 79680, Note_on_c, 0, 70, 68
2, 79680, Note_on_c, 0, 74, 68
2, 79740, Note_on_c, 0, 74, 0
2, 79740, Note_on_c, 0, 70, 0
2, 79740, Note_on_c, 0, 65, 0
2, 79740, Note_on_c, 0, 76, 68
2, 79800, Note_on_c, 0, 76, 0
2, 79800, Note_on_c, 0, 64, 68
2, 79800, Note_on_c, 0, 70, 68
2, 79800, Note_on_c, 0, 73, 68
2, 79860, Note_on_c, 0, 73, 0
2, 79860, Note_on_c, 0, 70, 0
2, 79860, Note_on_c, 0, 64, 0
2, 79860, Note_on_c, 0, 64, 68
2, 79860, Note_on_c, 0, 70, 68
2, 79860, Note_on_c, 0, 73, 68
2, 79920, Note_on_c, 0, 73, 0
2, 79920, Note_on_c, 0, 70, 0
2, 79920, Note_on_c, 0, 64, 0
2, 79920, Note_on_c, 0, 77, 68
2, 79980, Note_on_c, 0, 77, 0
2, 79980, Note_on_c, 0, 65, 68
2, 79980, Note_on_c, 0, 70, 68
2, 79980, Note_on_c, 0, 74, 68
2, 80040, Note_on_c, 0, 74, 0
2, 80040, Note_on_c, 0, 70, 0
2, 80040, Note_on_c, 0, 65, 0
2, 80040, Note_on_c, 0, 70, 68
2, 80040, Note_on_c, 0, 74, 68
2, 80040, Note_on_c, 0, 65, 68
2, 80100, Note_on_c, 0, 65, 0
2, 80100, Note_on_c, 0, 74, 0
2, 80100, Note_on_c, 0, 70, 0
2, 80100, Note_on_c, 0, 76, 68
2, 80160, Note_on_c, 0, 76, 0
2, 80160, Note_on_c, 0, 64, 67
2, 80160, Note_on_c, 0, 70, 67
2, 80160, Note_on_c, 0, 73, 67
2, 80220, Note_on_c, 0, 73, 0
2, 80220, Note_on_c, 0, 70, 0
2, 80220, Note_on_c, 0, 64, 0
2, 80220, Note_on_c, 0, 73, 67
2, 80220, Note_on_c, 0, 70, 67
2, 80220, Note_on_c, 0, 64, 67
2, 80280, Note_on_c, 0, 64, 0
2, 80280, Note_on_c, 0, 70, 0
2, 80280, Note_on_c, 0, 73, 0
2, 80280, Note_on_c, 0, 77, 67
2, 80340, Note_on_c, 0, 77, 0
2, 80340, Note_on_c, 0, 65, 67
2, 80340, Note_on_c, 0, 70, 67
2, 80340, Note_on_c, 0, 74, 67
2, 80400, Note_on_c, 0, 74, 0
2, 80400, Note_on_c, 0, 70, 0
2, 80400, Note_on_c, 0, 65, 0
2, 80400, Note_on_c, 0, 65, 67
2, 80400, Note_on_c, 0, 70, 67
2, 80400, Note_on_c, 0, 74, 67
2, 80460, Note_on_c, 0, 74, 0
2, 80460, Note_on_c, 0, 70, 0
2, 80460, Note_on_c, 0, 65, 0
2, 80460, Note_on_c, 0, 82, 67
2, 80520, Note_on_c, 0, 82, 0
2, 80520, Note_on_c, 0, 74, 67
2, 80520, Note_on_c, 0, 70, 67
2, 80520, Note_on_c, 0, 77, 67
2, 80580, Note_on_c, 0, 77, 0
2, 80580, Note_on_c, 0, 70, 0
2, 80580, Note_on_c, 0, 74, 0
2, 80580, Note_on_c, 0, 70, 67
2, 80580, Note_on_c, 0, 74, 67
2, 80580, Note_on_c, 0, 77, 67
2, 80640, Note_on_c, 0, 77, 0
2, 80640, Note_on_c, 0, 74, 0
2, 80640, Note_on_c, 0, 70, 0
2, 80640, Note_on_c, 0, 86, 67
2, 80700, Note_on_c, 0, 86, 0
2, 80700, Note_on_c, 0, 82, 67
2, 80700, Note_on_c, 0, 74, 67
2, 80700, Note_on_c, 0, 77, 67
2, 80760, Note_on_c, 0, 77, 0
2, 80760, Note_on_c, 0, 74, 0
2, 80760, Note_on_c, 0, 82, 0
2, 80760, Note_on_c, 0, 82, 66
2, 80760, Note_on_c, 0, 74, 66
2, 80760, Note_on_c, 0, 77, 66
2, 80820, Note_on_c, 0, 77, 0
2, 80820, Note_on_c, 0, 74, 0
2, 80820, Note_on_c, 0, 82, 0
2, 80820, Note_on_c, 0, 89, 66
2, 80880, Note_on_c, 0, 89, 0
2, 80880, Note_on_c, 0, 77, 66
2, 80880, Note_on_c, 0, 82, 66
2, 80880, Note_on_c, 0, 86, 66
2, 80940, Note_on_c, 0, 86, 0
2, 80940, Note_on_c, 0, 82, 0
2, 80940, Note_on_c, 0, 77, 0
2, 80940, Note_on_c, 0, 77, 66
2, 80940, Note_on_c, 0, 82, 66
2, 80940, Note_on_c, 0, 86, 66
2, 81000, Note_on_c, 0, 86, 0
2, 81000, Note_on_c, 0, 82, 0
2, 81000, Note_on_c, 0, 77, 0
2, 81000, Note_on_c, 0, 74, 66
2, 81060, Note_on_c, 0, 74, 0
2, 81060, Note_on_c, 0, 89, 66
2, 81120, Note_on_c, 0, 89, 0
2, 81120, Note_on_c, 0, 86, 66
2, 81180, Note_on_c, 0, 86, 0
2, 81180, Note_on_c, 0, 82, 66
2, 81240, Note_on_c, 0, 82, 0
2, 81240, Note_on_c, 0, 77, 66
2, 81300, Note_on_c, 0, 77, 0
2, 81300, Note_on_c, 0, 74, 66
2, 81360, Note_on_c, 0, 74, 0
2, 81360, Note_on_c, 0, 69, 66
2, 81420, Note_on_c, 0, 69, 0
2, 81420, Note_on_c, 0, 87, 66
2, 81480, Note_on_c, 0, 87, 0
2, 81480, Note_on_c, 0, 84, 66
2, 81540, Note_on_c, 0, 84, 0
2, 81540, Note_on_c, 0, 81, 66
2, 81600, Note_on_c, 0, 81, 0
2, 81600, Note_on_c, 0, 77, 66
2, 81660, Note_on_c, 0, 77, 0
2, 81660, Note_on_c, 0, 75, 66
2, 81720, Note_on_c, 0, 75, 0
2, 81720, Note_on_c, 0, 74, 83
2, 81780, Note_on_c, 0, 74, 0
2, 81780, Note_on_c, 0, 89, 85
2, 81810, Note_on_c, 0, 89, 0
2, 81810, Note_on_c, 0, 87, 85
2, 81840, Note_on_c, 0, 87, 0
2, 81840, Note_on_c, 0, 86, 85
2, 81870, Note_on_c, 0, 86, 0
2, 81870, Note_on_c, 0, 84, 85
2, 81900, Note_on_c, 0, 84, 0
2, 81900, Note_on_c, 0, 82, 86
2, 81930, Note_on_c, 0, 82, 0
2, 81930, Note_on_c, 0, 81, 86
2, 81960, Note_on_c, 0, 81, 0
2, 81960, Note_on_c, 0, 79, 86
2, 81990, Note_on_c, 0, 79, 0
2, 81990, Note_on_c, 0, 77, 86
2, 82020, Note_on_c, 0, 77, 0
2, 82020, Note_on_c, 0, 75, 86
2, 82050, Note_on_c, 0, 75, 0
2, 82050, Note_on_c, 0, 74, 87
2, 82080, Note_on_c, 0, 74, 0
2, 82080, Note_on_c, 0, 72, 87
2, 82140, Note_on_c, 0, 72, 0
2, 82140, Note_on_c, 0, 79, 87
2, 82170, Note_on_c, 0, 79, 0
2, 82170, Note_on_c, 0, 77, 87
2, 82200, Note_on_c, 0, 77, 0
2, 82200, Note_on_c, 0, 75, 87
2, 82230, Note_on_c, 0, 75, 0
2, 82230, Note_on_c, 0, 74, 88
2, 82260, Note_on_c, 0, 74, 0
2, 82260, Note_on_c, 0, 72, 88
2, 82290, Note_on_c, 0, 72, 0
2, 82290, Note_on_c, 0, 70, 88
2, 82320, Note_on_c, 0, 70, 0
2, 82320, Note_on_c, 0, 69, 88
2, 82350, Note_on_c, 0, 69, 0
2, 82350, Note_on_c, 0, 67, 88
2, 82380, Note_on_c, 0, 67, 0
2, 82380, Note_on_c, 0, 65, 88
2, 82410, Note_on_c, 0, 65, 0
2, 82410, Note_on_c, 0, 63, 88
2, 82440, Note_on_c, 0, 63, 0
2, 82440, Note_on_c, 0, 62, 88
2, 82500, Note_on_c, 0, 62, 0
2, 82500, Note_on_c, 0, 65, 88
2, 82560, Note_on_c, 0, 65, 0
2, 82560, Note_on_c, 0, 70, 88
2, 82620, Note_on_c, 0, 70, 0
2, 82620, Note_on_c, 0, 74, 88
2, 82680, Note_on_c, 0, 74, 0
2, 82680, Note_on_c, 0, 77, 88
2, 82740, Note_on_c, 0, 77, 0
2, 82740, Note_on_c, 0, 82, 90
2, 82800, Note_on_c, 0, 82, 0
2, 82800, Note_on_c, 0, 70, 90
2, 82800, Note_on_c, 0, 74, 90
2, 82800, Note_on_c, 0, 77, 90
2, 82860, Note_on_c, 0, 77, 0
2, 82860, Note_on_c, 0, 74, 0
2, 82860, Note_on_c, 0, 70, 0
2, 82860, Note_on_c, 0, 82, 90
2, 82920, Note_on_c, 0, 82, 0
2, 82920, Note_on_c, 0, 70, 90
2, 82920, Note_on_c, 0, 74, 90
2, 82920, Note_on_c, 0, 77, 90
2, 82980, Note_on_c, 0, 77, 0
2, 82980, Note_on_c, 0, 74, 0
2, 82980, Note_on_c, 0, 70, 0
2, 82980, Note_on_c, 0, 82, 90
2, 83040, Note_on_c, 0, 82, 0
2, 83040, Note_on_c, 0, 70, 90
2, 83040, Note_on_c, 0, 74, 90
2, 83040, Note_on_c, 0, 77, 90
2, 83100, Note_on_c, 0, 77, 0
2, 83100, Note_on_c, 0, 74, 0
2, 83100, Note_on_c, 0, 70, 0
2, 83100, Note_on_c, 0, 82, 90
2, 83160, Note_on_c, 0, 82, 0
2, 83160, Note_on_c, 0, 72, 90
2, 83160, Note_on_c, 0, 75, 90
2, 83160, Note_on_c, 0, 77, 90
2, 83220, Note_on_c, 0, 77, 0
2, 83220, Note_on_c, 0, 75, 0
2, 83220, Note_on_c, 0, 72, 0
2, 83220, Note_on_c, 0, 81, 90
2, 83280, Note_on_c, 0, 81, 0
2, 83280, Note_on_c, 0, 75, 91
2, 83280, Note_on_c, 0, 77, 91
2, 83280, Note_on_c, 0, 72, 91
2, 83340, Note_on_c, 0, 72, 0
2, 83340, Note_on_c, 0, 77, 0
2, 83340, Note_on_c, 0, 75, 0
2, 83340, Note_on_c, 0, 81, 91
2, 83400, Note_on_c, 0, 81, 0
2, 83400, Note_on_c, 0, 77, 91
2, 83400, Note_on_c, 0, 72, 91
2, 83400, Note_on_c, 0, 75, 91
2, 83460, Note_on_c, 0, 75, 0
2, 83460, Note_on_c, 0, 72, 0
2, 83460, Note_on_c, 0, 77, 0
2, 83460, Note_on_c, 0, 81, 91
2, 83520, Note_on_c, 0, 81, 0
2, 83520, Note_on_c, 0, 74, 91
2, 83520, Note_on_c, 0, 77, 91
2, 83520, Note_on_c, 0, 82, 91
2, 83640, Note_on_c, 0, 82, 0
2, 83640, Note_on_c, 0, 77, 0
2, 83640, Note_on_c, 0, 74, 0
2, 83640, Note_on_c, 0, 74, 91
2, 83640, Note_on_c, 0, 77, 91
2, 83640, Note_on_c, 0, 82, 91
2, 83700, Note_on_c, 0, 82, 0
2, 83700, Note_on_c, 0, 77, 0
2, 83700, Note_on_c, 0, 74, 0
2, 83700, Note_on_c, 0, 72, 91
2, 83700, Note_on_c, 0, 77, 91
2, 83700, Note_on_c, 0, 81, 91
2, 83820, Note_on_c, 0, 81, 0
2, 83820, Note_on_c, 0, 77, 0
2, 83820, Note_on_c, 0, 72, 0
2, 83820, Note_on_c, 0, 72, 91
2, 83820, Note_on_c, 0, 77, 91
2, 83820, Note_on_c, 0, 81, 91
2, 83880, Note_on_c, 0, 81, 0
2, 83880, Note_on_c, 0, 77, 0
2, 83880, Note_on_c, 0, 72, 0
2, 83880, Note_on_c, 0, 77, 90
2, 83880, Note_on_c, 0, 82, 90
2, 83880, Note_on_c, 0, 74, 90
2, 84000, Note_on_c, 0, 74, 0
2, 84000, Note_on_c, 0, 82, 0
2, 84000, Note_on_c, 0, 77, 0
2, 84000, Note_on_c, 0, 74, 90
2, 84000, Note_on_c, 0, 82, 90
2, 84000, Note_on_c, 0, 77, 90
2, 84060, Note_on_c, 0, 77, 0
2, 84060, Note_on_c, 0, 82, 0
2, 84060, Note_on_c, 0, 74, 0
2, 84060, Note_on_c, 0, 77, 90
2, 84060, Note_on_c, 0, 72, 90
2, 84060, Note_on_c, 0, 81, 90
2, 84180, Note_on_c, 0, 81, 0
2, 84180, Note_on_c, 0, 72, 0
2, 84180, Note_on_c, 0, 77, 0
2, 84180, Note_on_c, 0, 72, 88
2, 84180, Note_on_c, 0, 81, 88
2, 84180, Note_on_c, 0, 77, 88
2, 84240, Note_on_c, 0, 77, 0
2, 84240, Note_on_c, 0, 81, 0
2, 84240, Note_on_c, 0, 72, 0
2, 84240, Note_on_c, 0, 70, 88
2, 84270, Note_on_c, 0, 70, 0
2, 84270, Note_on_c, 0, 82, 88
2, 84300, Note_on_c, 0, 82, 0
2, 84300, Note_on_c, 0, 70, 88
2, 84330, Note_on_c, 0, 70, 0
2, 84330, Note_on_c, 0, 82, 88
2, 84360, Note_on_c, 0, 82, 0
2, 84360, Note_on_c, 0, 70, 88
2, 84390, Note_on_c, 0, 70, 0
2, 84390, Note_on_c, 0, 82, 88
2, 84420, Note_on_c, 0, 82, 0
2, 84420, Note_on_c, 0, 70, 88
2, 84450, Note_on_c, 0, 70, 0
2, 84450, Note_on_c, 0, 82, 88
2, 84480, Note_on_c, 0, 82, 0
2, 84480, Note_on_c, 0, 70, 88
2, 84510, Note_on_c, 0, 70, 0
2, 84510, Note_on_c, 0, 82, 88
2, 84540, Note_on_c, 0, 82, 0
2, 84540, Note_on_c, 0, 70, 88
2, 84570, Note_on_c, 0, 70, 0
2, 84570, Note_on_c, 0, 82, 88
2, 84600, Note_on_c, 0, 82, 0
2, 84600, Note_on_c, 0, 70, 88
2, 84630, Note_on_c, 0, 70, 0
2, 84630, Note_on_c, 0, 82, 88
2, 84660, Note_on_c, 0, 82, 0
2, 84660, Note_on_c, 0, 70, 88
2, 84690, Note_on_c, 0, 70, 0
2, 84690, Note_on_c, 0, 82, 88
2, 84720, Note_on_c, 0, 82, 0
2, 84720, Note_on_c, 0, 70, 88
2, 84750, Note_on_c, 0, 70, 0
2, 84750, Note_on_c, 0, 82, 88
2, 84780, Note_on_c, 0, 82, 0
2, 84780, Note_on_c, 0, 70, 88
2, 84810, Note_on_c, 0, 70, 0
2, 84810, Note_on_c, 0, 82, 88
2, 84840, Note_on_c, 0, 82, 0
2, 84840, Note_on_c, 0, 70, 85
2, 84870, Note_on_c, 0, 70, 0
2, 84870, Note_on_c, 0, 82, 85
2, 84900, Note_on_c, 0, 82, 0
2, 84900, Note_on_c, 0, 70, 85
2, 84930, Note_on_c, 0, 70, 0
2, 84930, Note_on_c, 0, 82, 85
2, 84960, Note_on_c, 0, 82, 0
2, 84960, Note_on_c, 0, 70, 85
2, 84990, Note_on_c, 0, 70, 0
2, 84990, Note_on_c, 0, 82, 85
2, 85020, Note_on_c, 0, 82, 0
2, 85020, Note_on_c, 0, 70, 85
2, 85050, Note_on_c, 0, 70, 0
2, 85050, Note_on_c, 0, 82, 85
2, 85080, Note_on_c, 0, 82, 0
2, 85080, Note_on_c, 0, 70, 85
2, 85110, Note_on_c, 0, 70, 0
2, 85110, Note_on_c, 0, 82, 84
2, 85140, Note_on_c, 0, 82, 0
2, 85140, Note_on_c, 0, 70, 84
2, 85170, Note_on_c, 0, 70, 0
2, 85170, Note_on_c, 0, 82, 84
2, 85200, Note_on_c, 0, 82, 0
2, 85200, Note_on_c, 0, 70, 84
2, 85230, Note_on_c, 0, 70, 0
2, 85230, Note_on_c, 0, 82, 84
2, 85260, Note_on_c, 0, 82, 0
2, 85260, Note_on_c, 0, 70, 84
2, 85290, Note_on_c, 0, 70, 0
2, 85290, Note_on_c, 0, 82, 84
2, 85320, Note_on_c, 0, 82, 0
2, 85320, Note_on_c, 0, 70, 84
2, 85350, Note_on_c, 0, 70, 0
2, 85350, Note_on_c, 0, 82, 84
2, 85380, Note_on_c, 0, 82, 0
2, 85380, Note_on_c, 0, 70, 84
2, 85410, Note_on_c, 0, 70, 0
2, 85410, Note_on_c, 0, 82, 84
2, 85440, Note_on_c, 0, 82, 0
2, 85440, Note_on_c, 0, 70, 84
2, 85470, Note_on_c, 0, 70, 0
2, 85470, Note_on_c, 0, 82, 82
2, 85500, Note_on_c, 0, 82, 0
2, 85500, Note_on_c, 0, 70, 82
2, 85530, Note_on_c, 0, 70, 0
2, 85530, Note_on_c, 0, 82, 82
2, 85560, Note_on_c, 0, 82, 0
2, 85560, Note_on_c, 0, 70, 82
2, 85590, Note_on_c, 0, 70, 0
2, 85590, Note_on_c, 0, 82, 82
2, 85620, Note_on_c, 0, 82, 0
2, 85620, Note_on_c, 0, 70, 82
2, 85650, Note_on_c, 0, 70, 0
2, 85650, Note_on_c, 0, 82, 82
2, 85680, Note_on_c, 0, 82, 0
2, 85680, Note_on_c, 0, 70, 82
2, 85710, Note_on_c, 0, 70, 0
2, 85710, Note_on_c, 0, 82, 82
2, 85740, Note_on_c, 0, 82, 0
2, 85740, Note_on_c, 0, 70, 82
2, 85770, Note_on_c, 0, 70, 0
2, 85770, Note_on_c, 0, 82, 81
2, 85800, Note_on_c, 0, 82, 0
2, 85800, Note_on_c, 0, 70, 81
2, 85830, Note_on_c, 0, 70, 0
2, 85830, Note_on_c, 0, 82, 81
2, 85860, Note_on_c, 0, 82, 0
2, 85860, Note_on_c, 0, 70, 81
2, 85890, Note_on_c, 0, 70, 0
2, 85890, Note_on_c, 0, 82, 81
2, 85920, Note_on_c, 0, 82, 0
2, 85920, Note_on_c, 0, 70, 81
2, 85950, Note_on_c, 0, 70, 0
2, 85950, Note_on_c, 0, 82, 81
2, 85980, Note_on_c, 0, 82, 0
2, 85980, Note_on_c, 0, 70, 81
2, 86010, Note_on_c, 0, 70, 0
2, 86010, Note_on_c, 0, 82, 81
2, 86040, Note_on_c, 0, 82, 0
2, 86040, Note_on_c, 0, 70, 80
2, 86070, Note_on_c, 0, 70, 0
2, 86070, Note_on_c, 0, 82, 80
2, 86100, Note_on_c, 0, 82, 0
2, 86100, Note_on_c, 0, 70, 80
2, 86130, Note_on_c, 0, 70, 0
2, 86130, Note_on_c, 0, 82, 80
2, 86160, Note_on_c, 0, 82, 0
2, 86160, Note_on_c, 0, 70, 80
2, 86190, Note_on_c, 0, 70, 0
2, 86190, Note_on_c, 0, 82, 80
2, 86220, Note_on_c, 0, 82, 0
2, 86220, Note_on_c, 0, 70, 80
2, 86250, Note_on_c, 0, 70, 0
2, 86250, Note_on_c, 0, 82, 80
2, 86280, Note_on_c, 0, 82, 0
2, 86280, Note_on_c, 0, 70, 80
2, 86310, Note_on_c, 0, 70, 0
2, 86310, Note_on_c, 0, 82, 80
2, 86340, Note_on_c, 0, 82, 0
2, 86340, Note_on_c, 0, 70, 80
2, 86370, Note_on_c, 0, 70, 0
2, 86370, Note_on_c, 0, 82, 80
2, 86400, Note_on_c, 0, 82, 0
2, 86400, Note_on_c, 0, 70, 80
2, 86430, Note_on_c, 0, 70, 0
2, 86430, Note_on_c, 0, 82, 79
2, 86460, Note_on_c, 0, 82, 0
2, 86460, Note_on_c, 0, 70, 79
2, 86490, Note_on_c, 0, 70, 0
2, 86490, Note_on_c, 0, 82, 79
2, 86520, Note_on_c, 0, 82, 0
2, 86520, Note_on_c, 0, 70, 79
2, 86550, Note_on_c, 0, 70, 0
2, 86550, Note_on_c, 0, 82, 79
2, 86580, Note_on_c, 0, 82, 0
2, 86580, Note_on_c, 0, 70, 79
2, 86610, Note_on_c, 0, 70, 0
2, 86610, Note_on_c, 0, 82, 79
2, 86640, Note_on_c, 0, 82, 0
2, 86640, Note_on_c, 0, 70, 79
2, 86670, Note_on_c, 0, 70, 0
2, 86670, Note_on_c, 0, 82, 79
2, 86700, Note_on_c, 0, 82, 0
2, 86700, Note_on_c, 0, 70, 79
2, 86730, Note_on_c, 0, 70, 0
2, 86730, Note_on_c, 0, 82, 79
2, 86760, Note_on_c, 0, 82, 0
2, 86760, Note_on_c, 0, 70, 79
2, 86790, Note_on_c, 0, 70, 0
2, 86790, Note_on_c, 0, 82, 79
2, 86820, Note_on_c, 0, 82, 0
2, 86820, Note_on_c, 0, 70, 79
2, 86850, Note_on_c, 0, 70, 0
2, 86850, Note_on_c, 0, 82, 79
2, 86880, Note_on_c, 0, 82, 0
2, 86880, Note_on_c, 0, 70, 79
2, 86910, Note_on_c, 0, 70, 0
2, 86910, Note_on_c, 0, 82, 79
2, 86940, Note_on_c, 0, 82, 0
2, 86940, Note_on_c, 0, 70, 79
2, 86970, Note_on_c, 0, 70, 0
2, 86970, Note_on_c, 0, 82, 79
2, 87000, Note_on_c, 0, 82, 0
2, 87000, Note_on_c, 0, 70, 80
2, 87030, Note_on_c, 0, 70, 0
2, 87030, Note_on_c, 0, 82, 80
2, 87060, Note_on_c, 0, 82, 0
2, 87060, Note_on_c, 0, 70, 80
2, 87090, Note_on_c, 0, 70, 0
2, 87090, Note_on_c, 0, 82, 80
2, 87120, Note_on_c, 0, 82, 0
2, 87120, Note_on_c, 0, 70, 81
2, 87150, Note_on_c, 0, 70, 0
2, 87150, Note_on_c, 0, 82, 81
2, 87180, Note_on_c, 0, 82, 0
2, 87180, Note_on_c, 0, 70, 81
2, 87210, Note_on_c, 0, 70, 0
2, 87210, Note_on_c, 0, 82, 81
2, 87240, Note_on_c, 0, 82, 0
2, 87240, Note_on_c, 0, 70, 81
2, 87270, Note_on_c, 0, 70, 0
2, 87270, Note_on_c, 0, 82, 81
2, 87300, Note_on_c, 0, 82, 0
2, 87300, Note_on_c, 0, 70, 82
2, 87330, Note_on_c, 0, 70, 0
2, 87330, Note_on_c, 0, 82, 82
2, 87360, Note_on_c, 0, 82, 0
2, 87360, Note_on_c, 0, 70, 82
2, 87390, Note_on_c, 0, 70, 0
2, 87390, Note_on_c, 0, 82, 83
2, 87420, Note_on_c, 0, 82, 0
2, 87420, Note_on_c, 0, 68, 83
2, 87450, Note_on_c, 0, 68, 0
2, 87450, Note_on_c, 0, 80, 83
2, 87480, Note_on_c, 0, 80, 0
2, 87480, Note_on_c, 0, 68, 83
2, 87510, Note_on_c, 0, 68, 0
2, 87510, Note_on_c, 0, 80, 83
2, 87540, Note_on_c, 0, 80, 0
2, 87540, Note_on_c, 0, 67, 83
2, 87570, Note_on_c, 0, 67, 0
2, 87570, Note_on_c, 0, 79, 83
2, 87600, Note_on_c, 0, 79, 0
2, 87600, Note_on_c, 0, 67, 83
2, 87630, Note_on_c, 0, 67, 0
2, 87630, Note_on_c, 0, 79, 83
2, 87660, Note_on_c, 0, 79, 0
2, 87660, Note_on_c, 0, 67, 83
2, 87690, Note_on_c, 0, 67, 0
2, 87690, Note_on_c, 0, 79, 84
2, 87720, Note_on_c, 0, 79, 0
2, 87720, Note_on_c, 0, 67, 85
2, 87750, Note_on_c, 0, 67, 0
2, 87750, Note_on_c, 0, 79, 85
2, 87780, Note_on_c, 0, 79, 0
2, 87780, Note_on_c, 0, 67, 85
2, 87810, Note_on_c, 0, 67, 0
2, 87810, Note_on_c, 0, 79, 86
2, 87840, Note_on_c, 0, 79, 0
2, 87840, Note_on_c, 0, 67, 86
2, 87870, Note_on_c, 0, 67, 0
2, 87870, Note_on_c, 0, 79, 86
2, 87900, Note_on_c, 0, 79, 0
2, 87900, Note_on_c, 0, 67, 87
2, 87930, Note_on_c, 0, 67, 0
2, 87930, Note_on_c, 0, 79, 87
2, 87960, Note_on_c, 0, 79, 0
2, 87960, Note_on_c, 0, 67, 87
2, 87990, Note_on_c, 0, 67, 0
2, 87990, Note_on_c, 0, 79, 87
2, 88020, Note_on_c, 0, 79, 0
2, 88020, Note_on_c, 0, 67, 87
2, 88050, Note_on_c, 0, 67, 0
2, 88050, Note_on_c, 0, 79, 87
2, 88080, Note_on_c, 0, 79, 0
2, 88080, Note_on_c, 0, 67, 87
2, 88110, Note_on_c, 0, 67, 0
2, 88110, Note_on_c, 0, 79, 88
2, 88140, Note_on_c, 0, 79, 0
2, 88140, Note_on_c, 0, 67, 88
2, 88170, Note_on_c, 0, 67, 0
2, 88170, Note_on_c, 0, 79, 88
2, 88200, Note_on_c, 0, 79, 0
2, 88200, Note_on_c, 0, 67, 88
2, 88230, Note_on_c, 0, 67, 0
2, 88230, Note_on_c, 0, 79, 88
2, 88260, Note_on_c, 0, 79, 0
2, 88260, Note_on_c, 0, 67, 88
2, 88290, Note_on_c, 0, 67, 0
2, 88290, Note_on_c, 0, 79, 88
2, 88320, Note_on_c, 0, 79, 0
2, 88320, Note_on_c, 0, 67, 87
2, 88350, Note_on_c, 0, 67, 0
2, 88350, Note_on_c, 0, 79, 87
2, 88380, Note_on_c, 0, 79, 0
2, 88380, Note_on_c, 0, 67, 87
2, 88410, Note_on_c, 0, 67, 0
2, 88410, Note_on_c, 0, 79, 87
2, 88440, Note_on_c, 0, 79, 0
2, 88440, Note_on_c, 0, 67, 87
2, 88470, Note_on_c, 0, 67, 0
2, 88470, Note_on_c, 0, 79, 86
2, 88500, Note_on_c, 0, 79, 0
2, 88500, Note_on_c, 0, 67, 86
2, 88530, Note_on_c, 0, 67, 0
2, 88530, Note_on_c, 0, 79, 86
2, 88560, Note_on_c, 0, 79, 0
2, 88560, Note_on_c, 0, 67, 85
2, 88590, Note_on_c, 0, 67, 0
2, 88590, Note_on_c, 0, 79, 85
2, 88620, Note_on_c, 0, 79, 0
2, 88620, Note_on_c, 0, 67, 85
2, 88650, Note_on_c, 0, 67, 0
2, 88650, Note_on_c, 0, 79, 85
2, 88680, Note_on_c, 0, 79, 0
2, 88680, Note_on_c, 0, 67, 84
2, 88710, Note_on_c, 0, 67, 0
2, 88710, Note_on_c, 0, 79, 84
2, 88740, Note_on_c, 0, 79, 0
2, 88740, Note_on_c, 0, 67, 83
2, 88770, Note_on_c, 0, 67, 0
2, 88770, Note_on_c, 0, 79, 83
2, 88800, Note_on_c, 0, 79, 0
2, 88800, Note_on_c, 0, 67, 82
2, 88830, Note_on_c, 0, 67, 0
2, 88830, Note_on_c, 0, 79, 82
2, 88860, Note_on_c, 0, 79, 0
2, 88860, Note_on_c, 0, 67, 82
2, 88890, Note_on_c, 0, 67, 0
2, 88890, Note_on_c, 0, 79, 82
2, 88920, Note_on_c, 0, 79, 0
2, 88920, Note_on_c, 0, 67, 81
2, 88950, Note_on_c, 0, 67, 0
2, 88950, Note_on_c, 0, 79, 81
2, 88980, Note_on_c, 0, 79, 0
2, 88980, Note_on_c, 0, 67, 80
2, 89010, Note_on_c, 0, 67, 0
2, 89010, Note_on_c, 0, 79, 80
2, 89040, Note_on_c, 0, 79, 0
2, 89040, Note_on_c, 0, 67, 80
2, 89070, Note_on_c, 0, 67, 0
2, 89070, Note_on_c, 0, 79, 80
2, 89100, Note_on_c, 0, 79, 0
2, 89100, Note_on_c, 0, 67, 80
2, 89130, Note_on_c, 0, 67, 0
2, 89130, Note_on_c, 0, 79, 80
2, 89160, Note_on_c, 0, 79, 0
2, 89160, Note_on_c, 0, 67, 80
2, 89190, Note_on_c, 0, 67, 0
2, 89190, Note_on_c, 0, 79, 80
2, 89220, Note_on_c, 0, 79, 0
2, 89220, Note_on_c, 0, 66, 80
2, 89250, Note_on_c, 0, 66, 0
2, 89250, Note_on_c, 0, 78, 79
2, 89280, Note_on_c, 0, 78, 0
2, 89280, Note_on_c, 0, 65, 81
2, 89310, Note_on_c, 0, 65, 0
2, 89310, Note_on_c, 0, 77, 81
2, 89340, Note_on_c, 0, 77, 0
2, 89340, Note_on_c, 0, 65, 80
2, 89370, Note_on_c, 0, 65, 0
2, 89370, Note_on_c, 0, 77, 80
2, 89400, Note_on_c, 0, 77, 0
2, 89400, Note_on_c, 0, 65, 80
2, 89430, Note_on_c, 0, 65, 0
2, 89430, Note_on_c, 0, 77, 80
2, 89460, Note_on_c, 0, 77, 0
2, 89460, Note_on_c, 0, 65, 80
2, 89490, Note_on_c, 0, 65, 0
2, 89490, Note_on_c, 0, 77, 80
2, 89520, Note_on_c, 0, 77, 0
2, 89520, Note_on_c, 0, 65, 80
2, 89550, Note_on_c, 0, 65, 0
2, 89550, Note_on_c, 0, 77, 80
2, 89580, Note_on_c, 0, 77, 0
2, 89580, Note_on_c, 0, 65, 80
2, 89610, Note_on_c, 0, 65, 0
2, 89610, Note_on_c, 0, 77, 79
2, 89640, Note_on_c, 0, 77, 0
2, 89640, Note_on_c, 0, 65, 81
2, 89670, Note_on_c, 0, 65, 0
2, 89670, Note_on_c, 0, 77, 81
2, 89700, Note_on_c, 0, 77, 0
2, 89700, Note_on_c, 0, 65, 80
2, 89730, Note_on_c, 0, 65, 0
2, 89730, Note_on_c, 0, 77, 80
2, 89760, Note_on_c, 0, 77, 0
2, 89760, Note_on_c, 0, 65, 80
2, 89790, Note_on_c, 0, 65, 0
2, 89790, Note_on_c, 0, 77, 80
2, 89820, Note_on_c, 0, 77, 0
2, 89820, Note_on_c, 0, 65, 80
2, 89850, Note_on_c, 0, 65, 0
2, 89850, Note_on_c, 0, 77, 80
2, 89880, Note_on_c, 0, 77, 0
2, 89880, Note_on_c, 0, 65, 80
2, 89910, Note_on_c, 0, 65, 0
2, 89910, Note_on_c, 0, 77, 80
2, 89940, Note_on_c, 0, 77, 0
2, 89940, Note_on_c, 0, 65, 80
2, 89970, Note_on_c, 0, 65, 0
2, 89970, Note_on_c, 0, 77, 79
2, 90000, Note_on_c, 0, 77, 0
2, 90000, Note_on_c, 0, 65, 81
2, 90030, Note_on_c, 0, 65, 0
2, 90030, Note_on_c, 0, 77, 81
2, 90060, Note_on_c, 0, 77, 0
2, 90060, Note_on_c, 0, 65, 80
2, 90090, Note_on_c, 0, 65, 0
2, 90090, Note_on_c, 0, 77, 80
2, 90120, Note_on_c, 0, 77, 0
2, 90120, Note_on_c, 0, 65, 80
2, 90150, Note_on_c, 0, 65, 0
2, 90150, Note_on_c, 0, 77, 80
2, 90180, Note_on_c, 0, 77, 0
2, 90180, Note_on_c, 0, 65, 80
2, 90210, Note_on_c, 0, 65, 0
2, 90210, Note_on_c, 0, 77, 80
2, 90240, Note_on_c, 0, 77, 0
2, 90240, Note_on_c, 0, 65, 80
2, 90270, Note_on_c, 0, 65, 0
2, 90270, Note_on_c, 0, 77, 80
2, 90300, Note_on_c, 0, 77, 0
2, 90300, Note_on_c, 0, 65, 80
2, 90330, Note_on_c, 0, 65, 0
2, 90330, Note_on_c, 0, 77, 79
2, 90360, Note_on_c, 0, 77, 0
2, 90360, Note_on_c, 0, 65, 80
2, 90390, Note_on_c, 0, 65, 0
2, 90390, Note_on_c, 0, 77, 80
2, 90420, Note_on_c, 0, 77, 0
2, 90420, Note_on_c, 0, 65, 80
2, 90450, Note_on_c, 0, 65, 0
2, 90450, Note_on_c, 0, 77, 80
2, 90480, Note_on_c, 0, 77, 0
2, 90480, Note_on_c, 0, 65, 80
2, 90510, Note_on_c, 0, 65, 0
2, 90510, Note_on_c, 0, 77, 79
2, 90540, Note_on_c, 0, 77, 0
2, 90540, Note_on_c, 0, 69, 79
2, 90570, Note_on_c, 0, 69, 0
2, 90570, Note_on_c, 0, 72, 79
2, 90600, Note_on_c, 0, 72, 0
2, 90600, Note_on_c, 0, 75, 79
2, 90630, Note_on_c, 0, 75, 0
2, 90630, Note_on_c, 0, 77, 79
2, 90660, Note_on_c, 0, 77, 0
2, 90660, Note_on_c, 0, 79, 79
2, 90690, Note_on_c, 0, 79, 0
2, 90690, Note_on_c, 0, 81, 79
2, 90720, Note_on_c, 0, 81, 0
2, 90720, Note_on_c, 0, 82, 79
2, 90750, Note_on_c, 0, 82, 0
2, 90750, Note_on_c, 0, 84, 79
2, 90780, Note_on_c, 0, 84, 0
2, 90780, Note_on_c, 0, 86, 79
2, 90810, Note_on_c, 0, 86, 0
2, 90810, Note_on_c, 0, 87, 79
2, 90840, Note_on_c, 0, 87, 0
2, 90840, Note_on_c, 0, 89, 79
2, 90870, Note_on_c, 0, 89, 0
2, 90870, Note_on_c, 0, 87, 79
2, 90900, Note_on_c, 0, 87, 0
2, 90900, Note_on_c, 0, 86, 79
2, 90930, Note_on_c, 0, 86, 0
2, 90930, Note_on_c, 0, 84, 79
2, 90960, Note_on_c, 0, 84, 0
2, 90960, Note_on_c, 0, 82, 79
2, 90990, Note_on_c, 0, 82, 0
2, 90990, Note_on_c, 0, 81, 79
2, 91020, Note_on_c, 0, 81, 0
2, 91020, Note_on_c, 0, 79, 79
2, 91050, Note_on_c, 0, 79, 0
2, 91050, Note_on_c, 0, 77, 79
2, 91080, Note_on_c, 0, 77, 0
2, 91080, Note_on_c, 0, 75, 79
2, 91110, Note_on_c, 0, 75, 0
2, 91110, Note_on_c, 0, 74, 79
2, 91140, Note_on_c, 0, 74, 0
2, 91140, Note_on_c, 0, 72, 79
2, 91170, Note_on_c, 0, 72, 0
2, 91170, Note_on_c, 0, 70, 79
2, 91200, Note_on_c, 0, 70, 0
2, 91200, Note_on_c, 0, 69, 79
2, 91230, Note_on_c, 0, 69, 0
2, 91230, Note_on_c, 0, 67, 79
2, 91260, Note_on_c, 0, 67, 0
2, 91260, Note_on_c, 0, 65, 79
2, 91290, Note_on_c, 0, 65, 0
2, 91290, Note_on_c, 0, 63, 79
2, 91320, Note_on_c, 0, 63, 0
2, 91320, Note_on_c, 0, 62, 79
2, 91350, Note_on_c, 0, 62, 0
2, 91350, Note_on_c, 0, 60, 79
2, 91380, Note_on_c, 0, 60, 0
2, 91380, Note_on_c, 0, 58, 79
2, 91410, Note_on_c, 0, 58, 0
2, 91410, Note_on_c, 0, 57, 79
2, 91440, Note_on_c, 0, 57, 0
2, 91800, Note_on_c, 0, 60, 79
2, 91920, Note_on_c, 0, 60, 0
2, 91920, Note_on_c, 0, 58, 78
2, 91980, Note_on_c, 0, 58, 0
2, 91980, Note_on_c, 0, 58, 78
2, 92010, Note_on_c, 0, 58, 0
2, 92010, Note_on_c, 0, 57, 78
2, 92025, Note_on_c, 0, 57, 0
2, 92030, Note_on_c, 0, 58, 78
2, 92035, Note_on_c, 0, 58, 0
2, 92040, Note_on_c, 0, 57, 78
2, 92070, Note_on_c, 0, 57, 0
2, 92070, Note_on_c, 0, 56, 78
2, 92100, Note_on_c, 0, 56, 0
2, 92100, Note_on_c, 0, 57, 79
2, 92130, Note_on_c, 0, 57, 0
2, 92130, Note_on_c, 0, 60, 79
2, 92160, Note_on_c, 0, 60, 0
2, 92340, Note_on_c, 0, 62, 80
2, 92370, Note_on_c, 0, 62, 0
2, 92460, Note_on_c, 0, 62, 81
2, 92490, Note_on_c, 0, 62, 0
2, 92490, Note_on_c, 0, 65, 81
2, 92505, Note_on_c, 0, 65, 0
2, 92515, Note_on_c, 0, 65, 81
2, 92520, Note_on_c, 0, 65, 0
2, 92520, Note_on_c, 0, 63, 81
2, 92535, Note_on_c, 0, 63, 0
2, 92550, Note_on_c, 0, 62, 81
2, 92565, Note_on_c, 0, 62, 0
2, 92575, Note_on_c, 0, 65, 81
2, 92580, Note_on_c, 0, 65, 0
2, 92580, Note_on_c, 0, 63, 81
2, 92595, Note_on_c, 0, 63, 0
2, 92610, Note_on_c, 0, 62, 81
2, 92625, Note_on_c, 0, 62, 0
2, 92635, Note_on_c, 0, 65, 81
2, 92640, Note_on_c, 0, 65, 0
2, 92640, Note_on_c, 0, 63, 81
2, 92655, Note_on_c, 0, 63, 0
2, 92670, Note_on_c, 0, 62, 81
2, 92685, Note_on_c, 0, 62, 0
2, 92695, Note_on_c, 0, 65, 82
2, 92700, Note_on_c, 0, 65, 0
2, 92700, Note_on_c, 0, 63, 82
2, 92730, Note_on_c, 0, 63, 0
2, 92730, Note_on_c, 0, 62, 82
2, 92760, Note_on_c, 0, 62, 0
2, 92760, Note_on_c, 0, 63, 82
2, 92790, Note_on_c, 0, 63, 0
2, 92790, Note_on_c, 0, 67, 82
2, 92820, Note_on_c, 0, 67, 0
2, 92820, Note_on_c, 0, 65, 82
2, 92850, Note_on_c, 0, 65, 0
2, 92850, Note_on_c, 0, 63, 82
2, 92880, Note_on_c, 0, 63, 0
2, 92880, Note_on_c, 0, 62, 83
2, 92910, Note_on_c, 0, 62, 0
2, 92910, Note_on_c, 0, 65, 83
2, 92940, Note_on_c, 0, 65, 0
2, 92940, Note_on_c, 0, 67, 84
2, 92970, Note_on_c, 0, 67, 0
2, 92970, Note_on_c, 0, 69, 84
2, 93000, Note_on_c, 0, 69, 0
2, 93000, Note_on_c, 0, 70, 84
2, 93030, Note_on_c, 0, 70, 0
2, 93030, Note_on_c, 0, 72, 84
2, 93060, Note_on_c, 0, 72, 0
2, 93060, Note_on_c, 0, 74, 84
2, 93180, Note_on_c, 0, 74, 0
2, 93180, Note_on_c, 0, 77, 84
2, 93210, Note_on_c, 0, 77, 0
2, 93235, Note_on_c, 0, 77, 84
2, 93240, Note_on_c, 0, 77, 0
2, 93240, Note_on_c, 0, 75, 84
2, 93240, Note_on_c, 0, 67, 84
2, 93270, Note_on_c, 0, 75, 0
2, 93270, Note_on_c, 0, 74, 84
2, 93285, Note_on_c, 0, 74, 0
2, 93295, Note_on_c, 0, 77, 84
2, 93300, Note_on_c, 0, 77, 0
2, 93300, Note_on_c, 0, 75, 84
2, 93330, Note_on_c, 0, 75, 0
2, 93330, Note_on_c, 0, 74, 84
2, 93345, Note_on_c, 0, 74, 0
2, 93355, Note_on_c, 0, 77, 84
2, 93360, Note_on_c, 0, 77, 0
2, 93360, Note_on_c, 0, 75, 84
2, 93390, Note_on_c, 0, 75, 0
2, 93390, Note_on_c, 0, 74, 84
2, 93415, Note_on_c, 0, 77, 84
2, 93420, Note_on_c, 0, 77, 0
2, 93420, Note_on_c, 0, 74, 0
2, 93420, Note_on_c, 0, 67, 0
2, 93420, Note_on_c, 0, 75, 84
2, 93420, Note_on_c, 0, 69, 84
2, 93450, Note_on_c, 0, 75, 0
2, 93450, Note_on_c, 0, 74, 84
2, 93480, Note_on_c, 0, 74, 0
2, 93480, Note_on_c, 0, 75, 84
2, 93510, Note_on_c, 0, 75, 0
2, 93510, Note_on_c, 0, 79, 84
2, 93540, Note_on_c, 0, 79, 0
2, 93540, Note_on_c, 0, 77, 84
2, 93570, Note_on_c, 0, 77, 0
2, 93570, Note_on_c, 0, 75, 84
2, 93600, Note_on_c, 0, 75, 0
2, 93600, Note_on_c, 0, 69, 0
2, 93600, Note_on_c, 0, 74, 84
2, 93630, Note_on_c, 0, 74, 0
2, 93630, Note_on_c, 0, 77, 84
2, 93660, Note_on_c, 0, 77, 0
2, 93660, Note_on_c, 0, 79, 84
2, 93690, Note_on_c, 0, 79, 0
2, 93690, Note_on_c, 0, 81, 84
2, 93720, Note_on_c, 0, 81, 0
2, 93720, Note_on_c, 0, 82, 83
2, 93750, Note_on_c, 0, 82, 0
2, 93750, Note_on_c, 0, 84, 83
2, 93780, Note_on_c, 0, 84, 0
2, 93780, Note_on_c, 0, 86, 83
2, 93900, Note_on_c, 0, 86, 0
2, 93900, Note_on_c, 0, 89, 82
2, 93960, Note_on_c, 0, 89, 0
2, 93960, Note_on_c, 0, 81, 83
2, 93960, Note_on_c, 0, 87, 83
2, 93975, Note_on_c, 0, 87, 0
2, 93975, Note_on_c, 0, 81, 0
2, 93975, Note_on_c, 0, 86, 84
2, 93975, Note_on_c, 0, 79, 84
2, 93990, Note_on_c, 0, 79, 0
2, 93990, Note_on_c, 0, 86, 0
2, 93990, Note_on_c, 0, 84, 84
2, 93990, Note_on_c, 0, 77, 84
2, 94005, Note_on_c, 0, 77, 0
2, 94005, Note_on_c, 0, 84, 0
2, 94005, Note_on_c, 0, 86, 84
2, 94005, Note_on_c, 0, 79, 84
2, 94020, Note_on_c, 0, 79, 0
2, 94020, Note_on_c, 0, 86, 0
2, 94020, Note_on_c, 0, 87, 84
2, 94020, Note_on_c, 0, 81, 84
2, 94035, Note_on_c, 0, 81, 0
2, 94035, Note_on_c, 0, 87, 0
2, 94035, Note_on_c, 0, 86, 84
2, 94035, Note_on_c, 0, 79, 84
2, 94050, Note_on_c, 0, 79, 0
2, 94050, Note_on_c, 0, 86, 0
2, 94050, Note_on_c, 0, 87, 85
2, 94050, Note_on_c, 0, 81, 85
2, 94065, Note_on_c, 0, 81, 0
2, 94065, Note_on_c, 0, 87, 0
2, 94065, Note_on_c, 0, 86, 85
2, 94065, Note_on_c, 0, 79, 85
2, 94080, Note_on_c, 0, 79, 0
2, 94080, Note_on_c, 0, 86, 0
2, 94080, Note_on_c, 0, 87, 85
2, 94080, Note_on_c, 0, 81, 85
2, 94095, Note_on_c, 0, 81, 0
2, 94095, Note_on_c, 0, 87, 0
2, 94095, Note_on_c, 0, 79, 85
2, 94095, Note_on_c, 0, 86, 85
2, 94110, Note_on_c, 0, 86, 0
2, 94110, Note_on_c, 0, 79, 0
2, 94110, Note_on_c, 0, 87, 86
2, 94110, Note_on_c, 0, 81, 86
2, 94125, Note_on_c, 0, 81, 0
2, 94125, Note_on_c, 0, 87, 0
2, 94125, Note_on_c, 0, 82, 86
2, 94125, Note_on_c, 0, 89, 86
2, 94140, Note_on_c, 0, 89, 0
2, 94140, Note_on_c, 0, 82, 0
2, 94140, Note_on_c, 0, 87, 86
2, 94140, Note_on_c, 0, 81, 86
2, 94155, Note_on_c, 0, 81, 0
2, 94155, Note_on_c, 0, 87, 0
2, 94155, Note_on_c, 0, 82, 86
2, 94155, Note_on_c, 0, 89, 86
2, 94170, Note_on_c, 0, 89, 0
2, 94170, Note_on_c, 0, 82, 0
2, 94170, Note_on_c, 0, 87, 86
2, 94170, Note_on_c, 0, 81, 86
2, 94185, Note_on_c, 0, 81, 0
2, 94185, Note_on_c, 0, 87, 0
2, 94185, Note_on_c, 0, 82, 86
2, 94185, Note_on_c, 0, 89, 86
2, 94200, Note_on_c, 0, 89, 0
2, 94200, Note_on_c, 0, 82, 0
2, 94200, Note_on_c, 0, 87, 87
2, 94200, Note_on_c, 0, 81, 87
2, 94215, Note_on_c, 0, 81, 0
2, 94215, Note_on_c, 0, 87, 0
2, 94215, Note_on_c, 0, 82, 87
2, 94215, Note_on_c, 0, 89, 87
2, 94230, Note_on_c, 0, 89, 0
2, 94230, Note_on_c, 0, 82, 0
2, 94230, Note_on_c, 0, 87, 87
2, 94230, Note_on_c, 0, 81, 87
2, 94245, Note_on_c, 0, 81, 0
2, 94245, Note_on_c, 0, 87, 0
2, 94245, Note_on_c, 0, 82, 88
2, 94245, Note_on_c, 0, 89, 88
2, 94260, Note_on_c, 0, 89, 0
2, 94260, Note_on_c, 0, 82, 0
2, 94260, Note_on_c, 0, 86, 88
2, 94290, Note_on_c, 0, 86, 0
2, 94290, Note_on_c, 0, 87, 88
2, 94320, Note_on_c, 0, 87, 0
2, 94320, Note_on_c, 0, 86, 88
2, 94350, Note_on_c, 0, 86, 0
2, 94350, Note_on_c, 0, 89, 89
2, 94380, Note_on_c, 0, 89, 0
2, 94380, Note_on_c, 0, 87, 89
2, 94410, Note_on_c, 0, 87, 0
2, 94410, Note_on_c, 0, 86, 90
2, 94440, Note_on_c, 0, 86, 0
2, 94440, Note_on_c, 0, 84, 91
2, 94470, Note_on_c, 0, 84, 0
2, 94470, Note_on_c, 0, 82, 92
2, 94500, Note_on_c, 0, 82, 0
2, 94500, Note_on_c, 0, 81, 92
2, 94530, Note_on_c, 0, 81, 0
2, 94530, Note_on_c, 0, 79, 93
2, 94560, Note_on_c, 0, 79, 0
2, 94560, Note_on_c, 0, 77, 94
2, 94590, Note_on_c, 0, 77, 0
2, 94590, Note_on_c, 0, 75, 94
2, 94620, Note_on_c, 0, 75, 0
2, 94620, Note_on_c, 0, 74, 94
2, 94650, Note_on_c, 0, 74, 0
2, 94650, Note_on_c, 0, 72, 95
2, 94680, Note_on_c, 0, 72, 0
2, 94680, Note_on_c, 0, 70, 95
2, 94710, Note_on_c, 0, 70, 0
2, 94710, Note_on_c, 0, 77, 96
2, 94740, Note_on_c, 0, 77, 0
2, 94740, Note_on_c, 0, 75, 97
2, 94770, Note_on_c, 0, 75, 0
2, 94770, Note_on_c, 0, 74, 97
2, 94800, Note_on_c, 0, 74, 0
2, 94800, Note_on_c, 0, 72, 98
2, 94830, Note_on_c, 0, 72, 0
2, 94830, Note_on_c, 0, 70, 98
2, 94860, Note_on_c, 0, 70, 0
2, 94860, Note_on_c, 0, 69, 99
2, 94890, Note_on_c, 0, 69, 0
2, 94890, Note_on_c, 0, 67, 100
2, 94920, Note_on_c, 0, 67, 0
2, 94920, Note_on_c, 0, 65, 102
2, 94950, Note_on_c, 0, 65, 0
2, 94950, Note_on_c, 0, 63, 104
2, 94980, Note_on_c, 0, 63, 0
2, 94980, Note_on_c, 0, 62, 105
2, 95010, Note_on_c, 0, 62, 0
2, 95010, Note_on_c, 0, 60, 106
2, 95040, Note_on_c, 0, 60, 0
2, 95040, Note_on_c, 0, 58, 107
2, 95070, Note_on_c, 0, 58, 0
2, 95070, Note_on_c, 0, 65, 108
2, 95100, Note_on_c, 0, 65, 0
2, 95100, Note_on_c, 0, 63, 109
2, 95130, Note_on_c, 0, 63, 0
2, 95130, Note_on_c, 0, 62, 111
2, 95160, Note_on_c, 0, 62, 0
2, 95160, Note_on_c, 0, 60, 114
2, 95190, Note_on_c, 0, 60, 0
2, 95190, Note_on_c, 0, 58, 115
2, 95220, Note_on_c, 0, 58, 0
2, 95640, Note_on_c, 0, 62, 127
2, 95640, Note_on_c, 0, 58, 127
2, 95700, Note_on_c, 0, 58, 0
2, 95700, Note_on_c, 0, 62, 0
2, 95700, Note_on_c, 0, 65, 127
2, 95700, Note_on_c, 0, 62, 127
2, 95760, Note_on_c, 0, 62, 0
2, 95760, Note_on_c, 0, 65, 0
2, 95760, Note_on_c, 0, 70, 123
2, 95760, Note_on_c, 0, 65, 123
2, 95760, Note_on_c, 0, 62, 123
2, 95880, Note_on_c, 0, 62, 0
2, 95880, Note_on_c, 0, 65, 0
2, 95880, Note_on_c, 0, 70, 0
2, 95940, Note_on_c, 0, 70, 126
2, 95940, Note_on_c, 0, 74, 126
2, 95940, Note_on_c, 0, 65, 126
2, 96060, Note_on_c, 0, 65, 0
2, 96060, Note_on_c, 0, 74, 0
2, 96060, Note_on_c, 0, 70, 0
2, 96120, Control_c, 0, 64, 127
2, 96120, Note_on_c, 0, 62, 127
2, 96120, Note_on_c, 0, 70, 127
2, 96120, Note_on_c, 0, 65, 127
2, 96300, Note_on_c, 0, 65, 0
2, 96300, Note_on_c, 0, 70, 0
2, 96300, Note_on_c, 0, 62, 0
2, 97020, Control_c, 0, 64, 0
2, 97020, End_track
3, 0, Start_track
3, 0, Title_t, "PianoL"
3, 0, Program_c, 1, 0
3, 0, Control_c, 1, 7, 127
3, 0, Control_c, 1, 10, 82
3, 0, Control_c, 1, 91, 17
3, 0, Control_c, 1, 93, 22
3, 360, Note_on_c, 1, 46, 73
3, 360, Note_on_c, 1, 58, 73
3, 480, Note_on_c, 1, 58, 0
3, 480, Note_on_c, 1, 46, 0
3, 1020, Note_on_c, 1, 65, 71
3, 1020, Note_on_c, 1, 57, 71
3, 1080, Note_on_c, 1, 57, 0
3, 1080, Note_on_c, 1, 58, 72
3, 1200, Note_on_c, 1, 58, 0
3, 1200, Note_on_c, 1, 65, 0
3, 1260, Note_on_c, 1, 63, 77
3, 1380, Note_on_c, 1, 63, 0
3, 1380, Note_on_c, 1, 64, 80
3, 1440, Note_on_c, 1, 64, 0
3, 1440, Note_on_c, 1, 65, 80
3, 1500, Note_on_c, 1, 65, 0
3, 1500, Note_on_c, 1, 65, 80
3, 1560, Note_on_c, 1, 65, 0
3, 1560, Note_on_c, 1, 64, 78
3, 1620, Note_on_c, 1, 64, 0
3, 1620, Note_on_c, 1, 65, 80
3, 1740, Note_on_c, 1, 65, 0
3, 1800, Note_on_c, 1, 46, 73
3, 1800, Note_on_c, 1, 58, 73
3, 1920, Note_on_c, 1, 58, 0
3, 1920, Note_on_c, 1, 46, 0
3, 2460, Note_on_c, 1, 60, 76
3, 2460, Note_on_c, 1, 58, 76
3, 2520, Note_on_c, 1, 58, 0
3, 2520, Note_on_c, 1, 60, 0
3, 2520, Note_on_c, 1, 60, 78
3, 2520, Note_on_c, 1, 57, 78
3, 2580, Note_on_c, 1, 57, 0
3, 2580, Note_on_c, 1, 60, 0
3, 2580, Note_on_c, 1, 55, 79
3, 2640, Note_on_c, 1, 55, 0
3, 2640, Note_on_c, 1, 53, 80
3, 2700, Note_on_c, 1, 53, 0
3, 2700, Note_on_c, 1, 58, 80
3, 2820, Note_on_c, 1, 58, 0
3, 2820, Note_on_c, 1, 60, 80
3, 2880, Note_on_c, 1, 60, 0
3, 2880, Note_on_c, 1, 53, 79
3, 2940, Note_on_c, 1, 53, 0
3, 2940, Note_on_c, 1, 48, 79
3, 3000, Note_on_c, 1, 48, 0
3, 3000, Note_on_c, 1, 45, 77
3, 3060, Note_on_c, 1, 45, 0
3, 3060, Note_on_c, 1, 41, 76
3, 3180, Note_on_c, 1, 41, 0
3, 3240, Note_on_c, 1, 63, 66
3, 3240, Note_on_c, 1, 53, 66
3, 3270, Note_on_c, 1, 63, 0
3, 3270, Note_on_c, 1, 65, 69
3, 3300, Note_on_c, 1, 65, 0
3, 3300, Note_on_c, 1, 63, 72
3, 3330, Note_on_c, 1, 63, 0
3, 3330, Note_on_c, 1, 65, 73
3, 3360, Note_on_c, 1, 65, 0
3, 3360, Note_on_c, 1, 63, 73
3, 3390, Note_on_c, 1, 63, 0
3, 3390, Note_on_c, 1, 65, 73
3, 3420, Note_on_c, 1, 65, 0
3, 3420, Note_on_c, 1, 53, 0
3, 3420, Note_on_c, 1, 63, 73
3, 3420, Note_on_c, 1, 53, 73
3, 3450, Note_on_c, 1, 63, 0
3, 3450, Note_on_c, 1, 65, 72
3, 3480, Note_on_c, 1, 65, 0
3, 3480, Note_on_c, 1, 63, 71
3, 3510, Note_on_c, 1, 63, 0
3, 3510, Note_on_c, 1, 65, 71
3, 3540, Note_on_c, 1, 65, 0
3, 3540, Note_on_c, 1, 63, 70
3, 3570, Note_on_c, 1, 63, 0
3, 3570, Note_on_c, 1, 65, 69
3, 3600, Note_on_c, 1, 65, 0
3, 3600, Note_on_c, 1, 53, 0
3, 3600, Note_on_c, 1, 62, 69
3, 3600, Note_on_c, 1, 53, 69
3, 3630, Note_on_c, 1, 62, 0
3, 3630, Note_on_c, 1, 65, 69
3, 3660, Note_on_c, 1, 65, 0
3, 3660, Note_on_c, 1, 62, 70
3, 3690, Note_on_c, 1, 62, 0
3, 3690, Note_on_c, 1, 65, 71
3, 3720, Note_on_c, 1, 65, 0
3, 3720, Note_on_c, 1, 62, 72
3, 3750, Note_on_c, 1, 62, 0
3, 3750, Note_on_c, 1, 65, 72
3, 3780, Note_on_c, 1, 65, 0
3, 3780, Note_on_c, 1, 53, 0
3, 3780, Note_on_c, 1, 62, 72
3, 3780, Note_on_c, 1, 53, 72
3, 3810, Note_on_c, 1, 62, 0
3, 3810, Note_on_c, 1, 65, 72
3, 3840, Note_on_c, 1, 65, 0
3, 3840, Note_on_c, 1, 62, 73
3, 3870, Note_on_c, 1, 62, 0
3, 3870, Note_on_c, 1, 65, 73
3, 3900, Note_on_c, 1, 65, 0
3, 3900, Note_on_c, 1, 62, 73
3, 3930, Note_on_c, 1, 62, 0
3, 3930, Note_on_c, 1, 65, 72
3, 3960, Note_on_c, 1, 65, 0
3, 3960, Note_on_c, 1, 53, 0
3, 3960, Note_on_c, 1, 53, 72
3, 3960, Note_on_c, 1, 63, 72
3, 3990, Note_on_c, 1, 63, 0
3, 3990, Note_on_c, 1, 65, 72
3, 4020, Note_on_c, 1, 65, 0
3, 4020, Note_on_c, 1, 63, 73
3, 4050, Note_on_c, 1, 63, 0
3, 4050, Note_on_c, 1, 65, 74
3, 4080, Note_on_c, 1, 65, 0
3, 4080, Note_on_c, 1, 63, 75
3, 4110, Note_on_c, 1, 63, 0
3, 4110, Note_on_c, 1, 65, 75
3, 4140, Note_on_c, 1, 65, 0
3, 4140, Note_on_c, 1, 53, 0
3, 4140, Note_on_c, 1, 53, 75
3, 4140, Note_on_c, 1, 63, 75
3, 4170, Note_on_c, 1, 63, 0
3, 4170, Note_on_c, 1, 65, 74
3, 4200, Note_on_c, 1, 65, 0
3, 4200, Note_on_c, 1, 63, 73
3, 4230, Note_on_c, 1, 63, 0
3, 4230, Note_on_c, 1, 65, 75
3, 4260, Note_on_c, 1, 65, 0
3, 4260, Note_on_c, 1, 63, 76
3, 4290, Note_on_c, 1, 63, 0
3, 4290, Note_on_c, 1, 65, 76
3, 4320, Note_on_c, 1, 65, 0
3, 4320, Note_on_c, 1, 53, 0
3, 4320, Note_on_c, 1, 53, 77
3, 4320, Note_on_c, 1, 62, 77
3, 4350, Note_on_c, 1, 62, 0
3, 4350, Note_on_c, 1, 65, 77
3, 4380, Note_on_c, 1, 65, 0
3, 4380, Note_on_c, 1, 62, 77
3, 4410, Note_on_c, 1, 62, 0
3, 4410, Note_on_c, 1, 65, 78
3, 4440, Note_on_c, 1, 65, 0
3, 4440, Note_on_c, 1, 62, 78
3, 4470, Note_on_c, 1, 62, 0
3, 4470, Note_on_c, 1, 65, 78
3, 4500, Note_on_c, 1, 65, 0
3, 4500, Note_on_c, 1, 53, 0
3, 4500, Note_on_c, 1, 53, 78
3, 4500, Note_on_c, 1, 62, 78
3, 4530, Note_on_c, 1, 62, 0
3, 4530, Note_on_c, 1, 65, 77
3, 4560, Note_on_c, 1, 65, 0
3, 4560, Note_on_c, 1, 62, 75
3, 4590, Note_on_c, 1, 62, 0
3, 4590, Note_on_c, 1, 65, 74
3, 4620, Note_on_c, 1, 65, 0
3, 4620, Note_on_c, 1, 62, 72
3, 4650, Note_on_c, 1, 62, 0
3, 4650, Note_on_c, 1, 65, 69
3, 4680, Note_on_c, 1, 65, 0
3, 4680, Note_on_c, 1, 53, 0
3, 4680, Note_on_c, 1, 62, 67
3, 4710, Note_on_c, 1, 62, 0
3, 4710, Note_on_c, 1, 65, 67
3, 4740, Note_on_c, 1, 65, 0
3, 4740, Note_on_c, 1, 62, 67
3, 4770, Note_on_c, 1, 62, 0
3, 4770, Note_on_c, 1, 65, 68
3, 4800, Note_on_c, 1, 65, 0
3, 4800, Note_on_c, 1, 62, 70
3, 4830, Note_on_c, 1, 62, 0
3, 4830, Note_on_c, 1, 65, 71
3, 4860, Note_on_c, 1, 65, 0
3, 4860, Note_on_c, 1, 60, 73
3, 4890, Note_on_c, 1, 60, 0
3, 4890, Note_on_c, 1, 63, 74
3, 4920, Note_on_c, 1, 63, 0
3, 4920, Note_on_c, 1, 60, 75
3, 4950, Note_on_c, 1, 60, 0
3, 4950, Note_on_c, 1, 63, 75
3, 4980, Note_on_c, 1, 63, 0
3, 4980, Note_on_c, 1, 60, 75
3, 5010, Note_on_c, 1, 60, 0
3, 5010, Note_on_c, 1, 63, 76
3, 5040, Note_on_c, 1, 63, 0
3, 5040, Note_on_c, 1, 58, 77
3, 5070, Note_on_c, 1, 58, 0
3, 5070, Note_on_c, 1, 62, 77
3, 5100, Note_on_c, 1, 62, 0
3, 5100, Note_on_c, 1, 58, 77
3, 5130, Note_on_c, 1, 58, 0
3, 5130, Note_on_c, 1, 62, 75
3, 5160, Note_on_c, 1, 62, 0
3, 5160, Note_on_c, 1, 58, 72
3, 5190, Note_on_c, 1, 58, 0
3, 5190, Note_on_c, 1, 62, 71
3, 5220, Note_on_c, 1, 62, 0
3, 5220, Note_on_c, 1, 53, 70
3, 5220, Note_on_c, 1, 57, 70
3, 5250, Note_on_c, 1, 57, 0
3, 5250, Note_on_c, 1, 53, 0
3, 5250, Note_on_c, 1, 62, 69
3, 5280, Note_on_c, 1, 62, 0
3, 5280, Note_on_c, 1, 53, 69
3, 5280, Note_on_c, 1, 57, 69
3, 5310, Note_on_c, 1, 57, 0
3, 5310, Note_on_c, 1, 53, 0
3, 5310, Note_on_c, 1, 62, 69
3, 5340, Note_on_c, 1, 62, 0
3, 5340, Note_on_c, 1, 53, 71
3, 5340, Note_on_c, 1, 57, 71
3, 5370, Note_on_c, 1, 57, 0
3, 5370, Note_on_c, 1, 53, 0
3, 5370, Note_on_c, 1, 63, 72
3, 5400, Note_on_c, 1, 63, 0
3, 5400, Note_on_c, 1, 55, 74
3, 5400, Note_on_c, 1, 58, 74
3, 5430, Note_on_c, 1, 58, 0
3, 5430, Note_on_c, 1, 62, 74
3, 5460, Note_on_c, 1, 62, 0
3, 5460, Note_on_c, 1, 58, 74
3, 5490, Note_on_c, 1, 58, 0
3, 5490, Note_on_c, 1, 62, 74
3, 5520, Note_on_c, 1, 62, 0
3, 5520, Note_on_c, 1, 58, 74
3, 5550, Note_on_c, 1, 58, 0
3, 5550, Note_on_c, 1, 62, 74
3, 5580, Note_on_c, 1, 62, 0
3, 5580, Note_on_c, 1, 55, 0
3, 5580, Note_on_c, 1, 55, 73
3, 5580, Note_on_c, 1, 58, 73
3, 5610, Note_on_c, 1, 58, 0
3, 5610, Note_on_c, 1, 62, 71
3, 5640, Note_on_c, 1, 62, 0
3, 5640, Note_on_c, 1, 58, 69
3, 5670, Note_on_c, 1, 58, 0
3, 5670, Note_on_c, 1, 62, 68
3, 5700, Note_on_c, 1, 62, 0
3, 5700, Note_on_c, 1, 58, 69
3, 5730, Note_on_c, 1, 58, 0
3, 5730, Note_on_c, 1, 62, 71
3, 5760, Note_on_c, 1, 62, 0
3, 5760, Note_on_c, 1, 55, 0
3, 5760, Note_on_c, 1, 50, 73
3, 5760, Note_on_c, 1, 60, 73
3, 5790, Note_on_c, 1, 60, 0
3, 5790, Note_on_c, 1, 62, 75
3, 5820, Note_on_c, 1, 62, 0
3, 5820, Note_on_c, 1, 60, 76
3, 5850, Note_on_c, 1, 60, 0
3, 5850, Note_on_c, 1, 62, 76
3, 5880, Note_on_c, 1, 62, 0
3, 5880, Note_on_c, 1, 60, 76
3, 5910, Note_on_c, 1, 60, 0
3, 5910, Note_on_c, 1, 62, 75
3, 5940, Note_on_c, 1, 62, 0
3, 5940, Note_on_c, 1, 50, 0
3, 5940, Note_on_c, 1, 50, 75
3, 5940, Note_on_c, 1, 60, 75
3, 5970, Note_on_c, 1, 60, 0
3, 5970, Note_on_c, 1, 62, 76
3, 6000, Note_on_c, 1, 62, 0
3, 6000, Note_on_c, 1, 60, 76
3, 6030, Note_on_c, 1, 60, 0
3, 6030, Note_on_c, 1, 62, 76
3, 6060, Note_on_c, 1, 62, 0
3, 6060, Note_on_c, 1, 60, 74
3, 6090, Note_on_c, 1, 60, 0
3, 6090, Note_on_c, 1, 62, 73
3, 6120, Note_on_c, 1, 62, 0
3, 6120, Note_on_c, 1, 50, 0
3, 6120, Note_on_c, 1, 55, 73
3, 6120, Note_on_c, 1, 58, 73
3, 6150, Note_on_c, 1, 58, 0
3, 6150, Note_on_c, 1, 62, 73
3, 6180, Note_on_c, 1, 62, 0
3, 6180, Note_on_c, 1, 58, 73
3, 6210, Note_on_c, 1, 58, 0
3, 6210, Note_on_c, 1, 62, 74
3, 6240, Note_on_c, 1, 62, 0
3, 6240, Note_on_c, 1, 58, 77
3, 6270, Note_on_c, 1, 58, 0
3, 6270, Note_on_c, 1, 62, 78
3, 6300, Note_on_c, 1, 62, 0
3, 6300, Note_on_c, 1, 55, 0
3, 6300, Note_on_c, 1, 55, 79
3, 6300, Note_on_c, 1, 58, 79
3, 6330, Note_on_c, 1, 58, 0
3, 6330, Note_on_c, 1, 62, 80
3, 6360, Note_on_c, 1, 62, 0
3, 6360, Note_on_c, 1, 58, 81
3, 6390, Note_on_c, 1, 58, 0
3, 6390, Note_on_c, 1, 62, 81
3, 6420, Note_on_c, 1, 62, 0
3, 6420, Note_on_c, 1, 58, 80
3, 6450, Note_on_c, 1, 58, 0
3, 6450, Note_on_c, 1, 62, 79
3, 6480, Note_on_c, 1, 62, 0
3, 6480, Note_on_c, 1, 55, 0
3, 6480, Note_on_c, 1, 55, 77
3, 6480, Note_on_c, 1, 58, 77
3, 6510, Note_on_c, 1, 58, 0
3, 6510, Note_on_c, 1, 60, 77
3, 6540, Note_on_c, 1, 60, 0
3, 6540, Note_on_c, 1, 58, 75
3, 6570, Note_on_c, 1, 58, 0
3, 6570, Note_on_c, 1, 60, 75
3, 6600, Note_on_c, 1, 60, 0
3, 6600, Note_on_c, 1, 58, 75
3, 6630, Note_on_c, 1, 58, 0
3, 6630, Note_on_c, 1, 60, 74
3, 6660, Note_on_c, 1, 60, 0
3, 6660, Note_on_c, 1, 55, 0
3, 6660, Note_on_c, 1, 55, 73
3, 6660, Note_on_c, 1, 58, 73
3, 6690, Note_on_c, 1, 58, 0
3, 6690, Note_on_c, 1, 60, 73
3, 6720, Note_on_c, 1, 60, 0
3, 6720, Note_on_c, 1, 58, 73
3, 6750, Note_on_c, 1, 58, 0
3, 6750, Note_on_c, 1, 60, 72
3, 6780, Note_on_c, 1, 60, 0
3, 6780, Note_on_c, 1, 58, 72
3, 6810, Note_on_c, 1, 58, 0
3, 6810, Note_on_c, 1, 60, 73
3, 6840, Note_on_c, 1, 60, 0
3, 6840, Note_on_c, 1, 55, 0
3, 6840, Note_on_c, 1, 53, 73
3, 6840, Note_on_c, 1, 57, 73
3, 6870, Note_on_c, 1, 57, 0
3, 6870, Note_on_c, 1, 60, 74
3, 6900, Note_on_c, 1, 60, 0
3, 6900, Note_on_c, 1, 57, 76
3, 6930, Note_on_c, 1, 57, 0
3, 6930, Note_on_c, 1, 60, 78
3, 6960, Note_on_c, 1, 60, 0
3, 6960, Note_on_c, 1, 57, 79
3, 6990, Note_on_c, 1, 57, 0
3, 6990, Note_on_c, 1, 60, 80
3, 7020, Note_on_c, 1, 60, 0
3, 7020, Note_on_c, 1, 53, 0
3, 7020, Note_on_c, 1, 48, 81
3, 7020, Note_on_c, 1, 58, 81
3, 7050, Note_on_c, 1, 58, 0
3, 7050, Note_on_c, 1, 60, 81
3, 7080, Note_on_c, 1, 60, 0
3, 7080, Note_on_c, 1, 58, 80
3, 7110, Note_on_c, 1, 58, 0
3, 7110, Note_on_c, 1, 60, 80
3, 7140, Note_on_c, 1, 60, 0
3, 7140, Note_on_c, 1, 58, 79
3, 7170, Note_on_c, 1, 58, 0
3, 7170, Note_on_c, 1, 60, 78
3, 7200, Note_on_c, 1, 60, 0
3, 7200, Note_on_c, 1, 48, 0
3, 7200, Note_on_c, 1, 53, 78
3, 7200, Note_on_c, 1, 57, 78
3, 7230, Note_on_c, 1, 57, 0
3, 7230, Note_on_c, 1, 60, 78
3, 7260, Note_on_c, 1, 60, 0
3, 7260, Note_on_c, 1, 57, 78
3, 7290, Note_on_c, 1, 57, 0
3, 7290, Note_on_c, 1, 60, 78
3, 7320, Note_on_c, 1, 60, 0
3, 7320, Note_on_c, 1, 57, 78
3, 7350, Note_on_c, 1, 57, 0
3, 7350, Note_on_c, 1, 60, 78
3, 7380, Note_on_c, 1, 60, 0
3, 7380, Note_on_c, 1, 53, 0
3, 7380, Note_on_c, 1, 48, 76
3, 7380, Note_on_c, 1, 58, 76
3, 7410, Note_on_c, 1, 58, 0
3, 7410, Note_on_c, 1, 60, 75
3, 7440, Note_on_c, 1, 60, 0
3, 7440, Note_on_c, 1, 58, 74
3, 7470, Note_on_c, 1, 58, 0
3, 7470, Note_on_c, 1, 60, 74
3, 7500, Note_on_c, 1, 60, 0
3, 7500, Note_on_c, 1, 58, 73
3, 7530, Note_on_c, 1, 58, 0
3, 7530, Note_on_c, 1, 60, 73
3, 7560, Note_on_c, 1, 60, 0
3, 7560, Note_on_c, 1, 48, 0
3, 7560, Note_on_c, 1, 53, 73
3, 7560, Note_on_c, 1, 57, 73
3, 7680, Note_on_c, 1, 57, 0
3, 7680, Note_on_c, 1, 53, 0
3, 8280, Note_on_c, 1, 63, 82
3, 8280, Note_on_c, 1, 60, 82
3, 8280, Note_on_c, 1, 57, 82
3, 8280, Note_on_c, 1, 53, 82
3, 8460, Note_on_c, 1, 53, 0
3, 8460, Note_on_c, 1, 63, 0
3, 8460, Note_on_c, 1, 60, 0
3, 8460, Note_on_c, 1, 57, 0
3, 8640, Note_on_c, 1, 41, 82
3, 8640, Note_on_c, 1, 45, 82
3, 8640, Note_on_c, 1, 48, 82
3, 8640, Note_on_c, 1, 51, 82
3, 8820, Note_on_c, 1, 51, 0
3, 8820, Note_on_c, 1, 41, 0
3, 8820, Note_on_c, 1, 45, 0
3, 8820, Note_on_c, 1, 48, 0
3, 9000, Note_on_c, 1, 46, 79
3, 9120, Note_on_c, 1, 46, 0
3, 9660, Note_on_c, 1, 65, 80
3, 9660, Note_on_c, 1, 57, 80
3, 9720, Note_on_c, 1, 57, 0
3, 9720, Note_on_c, 1, 58, 79
3, 9839, Note_on_c, 1, 65, 0
3, 9840, Note_on_c, 1, 58, 0
3, 9900, Note_on_c, 1, 63, 82
3, 10020, Note_on_c, 1, 63, 0
3, 10020, Note_on_c, 1, 64, 83
3, 10080, Note_on_c, 1, 64, 0
3, 10080, Note_on_c, 1, 65, 83
3, 10140, Note_on_c, 1, 65, 0
3, 10140, Note_on_c, 1, 65, 83
3, 10200, Note_on_c, 1, 65, 0
3, 10200, Note_on_c, 1, 64, 83
3, 10260, Note_on_c, 1, 64, 0
3, 10260, Note_on_c, 1, 65, 83
3, 10380, Note_on_c, 1, 65, 0
3, 10440, Note_on_c, 1, 46, 81
3, 10440, Note_on_c, 1, 58, 81
3, 10560, Note_on_c, 1, 58, 0
3, 10560, Note_on_c, 1, 46, 0
3, 11100, Note_on_c, 1, 51, 79
3, 11160, Note_on_c, 1, 51, 0
3, 11160, Note_on_c, 1, 53, 80
3, 11280, Note_on_c, 1, 53, 0
3, 11340, Note_on_c, 1, 41, 80
3, 11460, Note_on_c, 1, 41, 0
3, 11520, Note_on_c, 1, 58, 78
3, 11580, Note_on_c, 1, 58, 0
3, 11580, Note_on_c, 1, 53, 77
3, 11640, Note_on_c, 1, 53, 0
3, 11640, Note_on_c, 1, 50, 77
3, 11700, Note_on_c, 1, 50, 0
3, 11700, Note_on_c, 1, 46, 77
3, 11820, Note_on_c, 1, 46, 0
3, 11880, Note_on_c, 1, 60, 77
3, 11940, Note_on_c, 1, 60, 0
3, 11940, Note_on_c, 1, 63, 78
3, 12000, Note_on_c, 1, 63, 0
3, 12000, Note_on_c, 1, 65, 79
3, 12060, Note_on_c, 1, 65, 0
3, 12060, Note_on_c, 1, 58, 79
3, 12120, Note_on_c, 1, 58, 0
3, 12120, Note_on_c, 1, 62, 78
3, 12180, Note_on_c, 1, 62, 0
3, 12180, Note_on_c, 1, 65, 78
3, 12240, Note_on_c, 1, 65, 0
3, 12240, Note_on_c, 1, 57, 76
3, 12300, Note_on_c, 1, 57, 0
3, 12300, Note_on_c, 1, 60, 76
3, 12360, Note_on_c, 1, 60, 0
3, 12360, Note_on_c, 1, 65, 78
3, 12420, Note_on_c, 1, 65, 0
3, 12420, Note_on_c, 1, 51, 79
3, 12480, Note_on_c, 1, 51, 0
3, 12480, Note_on_c, 1, 57, 79
3, 12540, Note_on_c, 1, 57, 0
3, 12540, Note_on_c, 1, 60, 78
3, 12600, Note_on_c, 1, 60, 0
3, 12600, Note_on_c, 1, 50, 77
3, 12660, Note_on_c, 1, 50, 0
3, 12660, Note_on_c, 1, 53, 77
3, 12720, Note_on_c, 1, 53, 0
3, 12720, Note_on_c, 1, 58, 76
3, 12780, Note_on_c, 1, 58, 0
3, 12780, Note_on_c, 1, 48, 76
3, 12840, Note_on_c, 1, 48, 0
3, 12840, Note_on_c, 1, 53, 75
3, 12900, Note_on_c, 1, 53, 0
3, 12900, Note_on_c, 1, 57, 75
3, 12960, Note_on_c, 1, 57, 0
3, 12960, Note_on_c, 1, 46, 76
3, 13020, Note_on_c, 1, 46, 0
3, 13020, Note_on_c, 1, 53, 76
3, 13080, Note_on_c, 1, 53, 0
3, 13080, Note_on_c, 1, 58, 76
3, 13140, Note_on_c, 1, 58, 0
3, 13140, Note_on_c, 1, 46, 76
3, 13200, Note_on_c, 1, 46, 0
3, 13200, Note_on_c, 1, 53, 76
3, 13260, Note_on_c, 1, 53, 0
3, 13260, Note_on_c, 1, 58, 76
3, 13320, Note_on_c, 1, 58, 0
3, 13320, Note_on_c, 1, 50, 76
3, 13380, Note_on_c, 1, 50, 0
3, 13380, Note_on_c, 1, 53, 76
3, 13440, Note_on_c, 1, 53, 0
3, 13440, Note_on_c, 1, 58, 76
3, 13500, Note_on_c, 1, 58, 0
3, 13500, Note_on_c, 1, 50, 76
3, 13560, Note_on_c, 1, 50, 0
3, 13560, Note_on_c, 1, 53, 76
3, 13620, Note_on_c, 1, 53, 0
3, 13620, Note_on_c, 1, 58, 76
3, 13680, Note_on_c, 1, 58, 0
3, 13680, Note_on_c, 1, 51, 76
3, 13740, Note_on_c, 1, 51, 0
3, 13740, Note_on_c, 1, 55, 76
3, 13800, Note_on_c, 1, 55, 0
3, 13800, Note_on_c, 1, 59, 75
3, 13860, Note_on_c, 1, 59, 0
3, 13860, Note_on_c, 1, 51, 75
3, 13920, Note_on_c, 1, 51, 0
3, 13920, Note_on_c, 1, 55, 75
3, 13980, Note_on_c, 1, 55, 0
3, 13980, Note_on_c, 1, 60, 76
3, 14040, Note_on_c, 1, 60, 0
3, 14040, Note_on_c, 1, 53, 77
3, 14100, Note_on_c, 1, 53, 0
3, 14100, Note_on_c, 1, 58, 77
3, 14160, Note_on_c, 1, 58, 0
3, 14160, Note_on_c, 1, 62, 77
3, 14220, Note_on_c, 1, 62, 0
3, 14220, Note_on_c, 1, 53, 77
3, 14280, Note_on_c, 1, 53, 0
3, 14280, Note_on_c, 1, 60, 77
3, 14340, Note_on_c, 1, 60, 0
3, 14340, Note_on_c, 1, 63, 77
3, 14400, Note_on_c, 1, 63, 0
3, 14400, Note_on_c, 1, 46, 77
3, 14460, Note_on_c, 1, 46, 0
3, 14460, Note_on_c, 1, 50, 77
3, 14520, Note_on_c, 1, 50, 0
3, 14520, Note_on_c, 1, 53, 76
3, 14580, Note_on_c, 1, 53, 0
3, 14580, Note_on_c, 1, 58, 76
3, 14700, Note_on_c, 1, 58, 0
3, 14760, Note_on_c, 1, 51, 77
3, 14820, Note_on_c, 1, 51, 0
3, 14820, Note_on_c, 1, 57, 77
3, 14880, Note_on_c, 1, 57, 0
3, 14880, Note_on_c, 1, 60, 77
3, 14940, Note_on_c, 1, 60, 0
3, 14940, Note_on_c, 1, 51, 77
3, 15000, Note_on_c, 1, 51, 0
3, 15000, Note_on_c, 1, 57, 76
3, 15060, Note_on_c, 1, 57, 0
3, 15060, Note_on_c, 1, 60, 77
3, 15120, Note_on_c, 1, 60, 0
3, 15120, Note_on_c, 1, 53, 78
3, 15180, Note_on_c, 1, 53, 0
3, 15180, Note_on_c, 1, 57, 78
3, 15240, Note_on_c, 1, 57, 0
3, 15240, Note_on_c, 1, 58, 78
3, 15300, Note_on_c, 1, 58, 0
3, 15300, Note_on_c, 1, 50, 78
3, 15360, Note_on_c, 1, 50, 0
3, 15360, Note_on_c, 1, 53, 77
3, 15420, Note_on_c, 1, 53, 0
3, 15420, Note_on_c, 1, 58, 77
3, 15480, Note_on_c, 1, 58, 0
3, 15480, Note_on_c, 1, 51, 76
3, 15540, Note_on_c, 1, 51, 0
3, 15540, Note_on_c, 1, 55, 76
3, 15600, Note_on_c, 1, 55, 0
3, 15600, Note_on_c, 1, 59, 76
3, 15660, Note_on_c, 1, 59, 0
3, 15660, Note_on_c, 1, 52, 76
3, 15720, Note_on_c, 1, 52, 0
3, 15720, Note_on_c, 1, 55, 77
3, 15780, Note_on_c, 1, 55, 0
3, 15780, Note_on_c, 1, 60, 77
3, 15840, Note_on_c, 1, 60, 0
3, 15840, Note_on_c, 1, 53, 77
3, 15900, Note_on_c, 1, 53, 0
3, 15900, Note_on_c, 1, 57, 77
3, 15960, Note_on_c, 1, 57, 0
3, 15960, Note_on_c, 1, 60, 77
3, 16020, Note_on_c, 1, 60, 0
3, 16020, Note_on_c, 1, 53, 77
3, 16080, Note_on_c, 1, 53, 0
3, 16080, Note_on_c, 1, 57, 77
3, 16140, Note_on_c, 1, 57, 0
3, 16140, Note_on_c, 1, 60, 77
3, 16200, Note_on_c, 1, 60, 0
3, 16200, Note_on_c, 1, 51, 77
3, 16260, Note_on_c, 1, 51, 0
3, 16260, Note_on_c, 1, 57, 77
3, 16320, Note_on_c, 1, 57, 0
3, 16320, Note_on_c, 1, 60, 77
3, 16380, Note_on_c, 1, 60, 0
3, 16380, Note_on_c, 1, 51, 78
3, 16440, Note_on_c, 1, 51, 0
3, 16440, Note_on_c, 1, 57, 79
3, 16500, Note_on_c, 1, 57, 0
3, 16500, Note_on_c, 1, 60, 79
3, 16560, Note_on_c, 1, 60, 0
3, 16560, Note_on_c, 1, 50, 78
3, 16620, Note_on_c, 1, 50, 0
3, 16620, Note_on_c, 1, 53, 77
3, 16680, Note_on_c, 1, 53, 0
3, 16680, Note_on_c, 1, 58, 77
3, 16740, Note_on_c, 1, 58, 0
3, 16740, Note_on_c, 1, 50, 77
3, 16800, Note_on_c, 1, 50, 0
3, 16800, Note_on_c, 1, 53, 77
3, 16860, Note_on_c, 1, 53, 0
3, 16860, Note_on_c, 1, 53, 77
3, 16920, Note_on_c, 1, 53, 0
3, 16920, Note_on_c, 1, 39, 77
3, 16980, Note_on_c, 1, 39, 0
3, 16980, Note_on_c, 1, 51, 77
3, 17040, Note_on_c, 1, 51, 0
3, 17040, Note_on_c, 1, 51, 77
3, 17100, Note_on_c, 1, 51, 0
3, 17100, Note_on_c, 1, 41, 77
3, 17160, Note_on_c, 1, 41, 0
3, 17160, Note_on_c, 1, 53, 77
3, 17220, Note_on_c, 1, 53, 0
3, 17220, Note_on_c, 1, 53, 77
3, 17280, Note_on_c, 1, 53, 0
3, 17280, Note_on_c, 1, 58, 87
3, 17280, Note_on_c, 1, 34, 77
3, 17310, Note_on_c, 1, 34, 0
3, 17310, Note_on_c, 1, 46, 77
3, 17340, Note_on_c, 1, 46, 0
3, 17340, Note_on_c, 1, 34, 77
3, 17370, Note_on_c, 1, 34, 0
3, 17370, Note_on_c, 1, 46, 77
3, 17400, Note_on_c, 1, 46, 0
3, 17400, Note_on_c, 1, 58, 0
3, 17400, Note_on_c, 1, 53, 87
3, 17400, Note_on_c, 1, 34, 77
3, 17430, Note_on_c, 1, 34, 0
3, 17430, Note_on_c, 1, 46, 77
3, 17460, Note_on_c, 1, 46, 0
3, 17460, Note_on_c, 1, 53, 0
3, 17460, Note_on_c, 1, 50, 87
3, 17460, Note_on_c, 1, 34, 77
3, 17490, Note_on_c, 1, 34, 0
3, 17490, Note_on_c, 1, 46, 77
3, 17520, Note_on_c, 1, 46, 0
3, 17520, Note_on_c, 1, 34, 77
3, 17550, Note_on_c, 1, 34, 0
3, 17550, Note_on_c, 1, 46, 77
3, 17580, Note_on_c, 1, 46, 0
3, 17580, Note_on_c, 1, 50, 0
3, 17580, Note_on_c, 1, 58, 87
3, 17580, Note_on_c, 1, 34, 77
3, 17610, Note_on_c, 1, 34, 0
3, 17610, Note_on_c, 1, 46, 77
3, 17640, Note_on_c, 1, 46, 0
3, 17640, Note_on_c, 1, 58, 0
3, 17640, Note_on_c, 1, 51, 87
3, 17640, Note_on_c, 1, 60, 87
3, 17640, Note_on_c, 1, 34, 77
3, 17670, Note_on_c, 1, 34, 0
3, 17670, Note_on_c, 1, 46, 77
3, 17700, Note_on_c, 1, 46, 0
3, 17700, Note_on_c, 1, 34, 77
3, 17730, Note_on_c, 1, 34, 0
3, 17730, Note_on_c, 1, 46, 77
3, 17760, Note_on_c, 1, 46, 0
3, 17760, Note_on_c, 1, 60, 0
3, 17760, Note_on_c, 1, 51, 0
3, 17760, Note_on_c, 1, 58, 87
3, 17760, Note_on_c, 1, 34, 77
3, 17790, Note_on_c, 1, 34, 0
3, 17790, Note_on_c, 1, 58, 0
3, 17790, Note_on_c, 1, 46, 77
3, 17805, Note_on_c, 1, 58, 118
3, 17820, Note_on_c, 1, 58, 0
3, 17820, Note_on_c, 1, 46, 0
3, 17820, Note_on_c, 1, 51, 87
3, 17820, Note_on_c, 1, 57, 87
3, 17820, Note_on_c, 1, 34, 77
3, 17850, Note_on_c, 1, 34, 0
3, 17850, Note_on_c, 1, 46, 77
3, 17880, Note_on_c, 1, 46, 0
3, 17880, Note_on_c, 1, 57, 0
3, 17880, Note_on_c, 1, 51, 0
3, 17880, Note_on_c, 1, 55, 87
3, 17880, Note_on_c, 1, 34, 77
3, 17910, Note_on_c, 1, 34, 0
3, 17910, Note_on_c, 1, 46, 77
3, 17940, Note_on_c, 1, 46, 0
3, 17940, Note_on_c, 1, 55, 0
3, 17940, Note_on_c, 1, 57, 87
3, 17940, Note_on_c, 1, 34, 77
3, 17970, Note_on_c, 1, 34, 0
3, 17970, Note_on_c, 1, 46, 77
3, 18000, Note_on_c, 1, 46, 0
3, 18000, Note_on_c, 1, 57, 0
3, 18000, Note_on_c, 1, 50, 87
3, 18000, Note_on_c, 1, 58, 87
3, 18000, Note_on_c, 1, 34, 77
3, 18030, Note_on_c, 1, 34, 0
3, 18030, Note_on_c, 1, 46, 77
3, 18060, Note_on_c, 1, 46, 0
3, 18060, Note_on_c, 1, 34, 77
3, 18090, Note_on_c, 1, 34, 0
3, 18090, Note_on_c, 1, 46, 77
3, 18120, Note_on_c, 1, 46, 0
3, 18120, Note_on_c, 1, 58, 0
3, 18120, Note_on_c, 1, 50, 0
3, 18120, Note_on_c, 1, 53, 87
3, 18120, Note_on_c, 1, 34, 77
3, 18150, Note_on_c, 1, 34, 0
3, 18150, Note_on_c, 1, 46, 77
3, 18180, Note_on_c, 1, 46, 0
3, 18180, Note_on_c, 1, 53, 0
3, 18180, Note_on_c, 1, 58, 87
3, 18180, Note_on_c, 1, 34, 77
3, 18210, Note_on_c, 1, 34, 0
3, 18210, Note_on_c, 1, 46, 77
3, 18240, Note_on_c, 1, 46, 0
3, 18240, Note_on_c, 1, 34, 77
3, 18270, Note_on_c, 1, 34, 0
3, 18270, Note_on_c, 1, 46, 77
3, 18300, Note_on_c, 1, 46, 0
3, 18300, Note_on_c, 1, 58, 0
3, 18300, Note_on_c, 1, 62, 87
3, 18300, Note_on_c, 1, 34, 77
3, 18330, Note_on_c, 1, 34, 0
3, 18330, Note_on_c, 1, 46, 77
3, 18360, Note_on_c, 1, 46, 0
3, 18360, Note_on_c, 1, 62, 0
3, 18360, Note_on_c, 1, 53, 87
3, 18360, Note_on_c, 1, 63, 87
3, 18360, Note_on_c, 1, 34, 77
3, 18390, Note_on_c, 1, 34, 0
3, 18390, Note_on_c, 1, 46, 77
3, 18420, Note_on_c, 1, 46, 0
3, 18420, Note_on_c, 1, 34, 77
3, 18450, Note_on_c, 1, 34, 0
3, 18450, Note_on_c, 1, 46, 77
3, 18480, Note_on_c, 1, 46, 0
3, 18480, Note_on_c, 1, 63, 0
3, 18480, Note_on_c, 1, 53, 0
3, 18480, Note_on_c, 1, 54, 87
3, 18480, Note_on_c, 1, 63, 87
3, 18480, Note_on_c, 1, 34, 77
3, 18510, Note_on_c, 1, 34, 0
3, 18510, Note_on_c, 1, 63, 0
3, 18510, Note_on_c, 1, 46, 77
3, 18525, Note_on_c, 1, 65, 121
3, 18540, Note_on_c, 1, 65, 0
3, 18540, Note_on_c, 1, 46, 0
3, 18540, Note_on_c, 1, 54, 0
3, 18540, Note_on_c, 1, 55, 87
3, 18540, Note_on_c, 1, 63, 87
3, 18540, Note_on_c, 1, 34, 77
3, 18570, Note_on_c, 1, 34, 0
3, 18570, Note_on_c, 1, 46, 77
3, 18600, Note_on_c, 1, 46, 0
3, 18600, Note_on_c, 1, 63, 0
3, 18600, Note_on_c, 1, 55, 0
3, 18600, Note_on_c, 1, 62, 87
3, 18600, Note_on_c, 1, 34, 77
3, 18630, Note_on_c, 1, 34, 0
3, 18630, Note_on_c, 1, 46, 77
3, 18660, Note_on_c, 1, 46, 0
3, 18660, Note_on_c, 1, 62, 0
3, 18660, Note_on_c, 1, 57, 87
3, 18660, Note_on_c, 1, 63, 87
3, 18660, Note_on_c, 1, 34, 77
3, 18690, Note_on_c, 1, 34, 0
3, 18690, Note_on_c, 1, 46, 77
3, 18720, Note_on_c, 1, 46, 0
3, 18720, Note_on_c, 1, 63, 0
3, 18720, Note_on_c, 1, 57, 0
3, 18720, Note_on_c, 1, 34, 77
3, 18750, Note_on_c, 1, 34, 0
3, 18750, Note_on_c, 1, 46, 77
3, 18780, Note_on_c, 1, 46, 0
3, 18780, Note_on_c, 1, 34, 77
3, 18810, Note_on_c, 1, 34, 0
3, 18810, Note_on_c, 1, 46, 77
3, 18840, Note_on_c, 1, 46, 0
3, 18840, Note_on_c, 1, 34, 77
3, 18870, Note_on_c, 1, 34, 0
3, 18870, Note_on_c, 1, 46, 77
3, 18900, Note_on_c, 1, 46, 0
3, 18900, Note_on_c, 1, 34, 78
3, 18930, Note_on_c, 1, 34, 0
3, 18930, Note_on_c, 1, 46, 79
3, 18960, Note_on_c, 1, 46, 0
3, 18960, Note_on_c, 1, 34, 79
3, 18990, Note_on_c, 1, 34, 0
3, 18990, Note_on_c, 1, 46, 79
3, 19020, Note_on_c, 1, 46, 0
3, 19020, Note_on_c, 1, 34, 79
3, 19050, Note_on_c, 1, 34, 0
3, 19050, Note_on_c, 1, 46, 79
3, 19080, Note_on_c, 1, 46, 0
3, 19080, Note_on_c, 1, 34, 79
3, 19110, Note_on_c, 1, 34, 0
3, 19110, Note_on_c, 1, 46, 78
3, 19140, Note_on_c, 1, 46, 0
3, 19140, Note_on_c, 1, 34, 77
3, 19170, Note_on_c, 1, 34, 0
3, 19170, Note_on_c, 1, 46, 76
3, 19200, Note_on_c, 1, 46, 0
3, 19200, Note_on_c, 1, 34, 75
3, 19230, Note_on_c, 1, 34, 0
3, 19230, Note_on_c, 1, 46, 75
3, 19260, Note_on_c, 1, 46, 0
3, 19260, Note_on_c, 1, 34, 74
3, 19290, Note_on_c, 1, 34, 0
3, 19290, Note_on_c, 1, 46, 73
3, 19320, Note_on_c, 1, 46, 0
3, 19320, Note_on_c, 1, 34, 73
3, 19350, Note_on_c, 1, 34, 0
3, 19350, Note_on_c, 1, 46, 73
3, 19380, Note_on_c, 1, 46, 0
3, 19380, Note_on_c, 1, 34, 73
3, 19410, Note_on_c, 1, 34, 0
3, 19410, Note_on_c, 1, 46, 72
3, 19440, Note_on_c, 1, 46, 0
3, 19440, Note_on_c, 1, 34, 72
3, 19470, Note_on_c, 1, 34, 0
3, 19470, Note_on_c, 1, 46, 72
3, 19500, Note_on_c, 1, 46, 0
3, 19500, Note_on_c, 1, 34, 72
3, 19530, Note_on_c, 1, 34, 0
3, 19530, Note_on_c, 1, 46, 72
3, 19560, Note_on_c, 1, 46, 0
3, 19560, Note_on_c, 1, 34, 72
3, 19590, Note_on_c, 1, 34, 0
3, 19590, Note_on_c, 1, 46, 72
3, 19620, Note_on_c, 1, 46, 0
3, 19620, Note_on_c, 1, 34, 72
3, 19650, Note_on_c, 1, 34, 0
3, 19650, Note_on_c, 1, 46, 72
3, 19680, Note_on_c, 1, 46, 0
3, 19680, Note_on_c, 1, 34, 72
3, 19710, Note_on_c, 1, 34, 0
3, 19710, Note_on_c, 1, 46, 72
3, 19740, Note_on_c, 1, 46, 0
3, 19740, Note_on_c, 1, 34, 72
3, 19770, Note_on_c, 1, 34, 0
3, 19770, Note_on_c, 1, 46, 72
3, 19800, Note_on_c, 1, 46, 0
3, 19800, Note_on_c, 1, 34, 72
3, 19830, Note_on_c, 1, 34, 0
3, 19830, Note_on_c, 1, 46, 73
3, 19860, Note_on_c, 1, 46, 0
3, 19860, Note_on_c, 1, 34, 74
3, 19890, Note_on_c, 1, 34, 0
3, 19890, Note_on_c, 1, 46, 74
3, 19920, Note_on_c, 1, 46, 0
3, 19920, Note_on_c, 1, 34, 73
3, 19950, Note_on_c, 1, 34, 0
3, 19950, Note_on_c, 1, 46, 76
3, 19980, Note_on_c, 1, 46, 0
3, 19980, Note_on_c, 1, 34, 75
3, 20010, Note_on_c, 1, 34, 0
3, 20010, Note_on_c, 1, 46, 75
3, 20040, Note_on_c, 1, 46, 0
3, 20040, Note_on_c, 1, 34, 75
3, 20070, Note_on_c, 1, 34, 0
3, 20070, Note_on_c, 1, 46, 75
3, 20100, Note_on_c, 1, 46, 0
3, 20100, Note_on_c, 1, 34, 75
3, 20130, Note_on_c, 1, 34, 0
3, 20130, Note_on_c, 1, 46, 76
3, 20160, Note_on_c, 1, 46, 0
3, 20160, Note_on_c, 1, 34, 76
3, 20190, Note_on_c, 1, 34, 0
3, 20190, Note_on_c, 1, 46, 76
3, 20220, Note_on_c, 1, 46, 0
3, 20220, Note_on_c, 1, 34, 76
3, 20250, Note_on_c, 1, 34, 0
3, 20250, Note_on_c, 1, 46, 77
3, 20280, Note_on_c, 1, 46, 0
3, 20280, Note_on_c, 1, 34, 77
3, 20310, Note_on_c, 1, 34, 0
3, 20310, Note_on_c, 1, 46, 77
3, 20340, Note_on_c, 1, 46, 0
3, 20340, Note_on_c, 1, 34, 76
3, 20370, Note_on_c, 1, 34, 0
3, 20370, Note_on_c, 1, 46, 76
3, 20400, Note_on_c, 1, 46, 0
3, 20400, Note_on_c, 1, 34, 75
3, 20430, Note_on_c, 1, 34, 0
3, 20430, Note_on_c, 1, 46, 75
3, 20460, Note_on_c, 1, 46, 0
3, 20460, Note_on_c, 1, 34, 74
3, 20490, Note_on_c, 1, 34, 0
3, 20490, Note_on_c, 1, 46, 74
3, 20520, Note_on_c, 1, 46, 0
3, 20520, Note_on_c, 1, 34, 74
3, 20550, Note_on_c, 1, 34, 0
3, 20550, Note_on_c, 1, 46, 74
3, 20580, Note_on_c, 1, 46, 0
3, 20580, Note_on_c, 1, 34, 74
3, 20610, Note_on_c, 1, 34, 0
3, 20610, Note_on_c, 1, 46, 74
3, 20640, Note_on_c, 1, 46, 0
3, 20640, Note_on_c, 1, 34, 74
3, 20670, Note_on_c, 1, 34, 0
3, 20670, Note_on_c, 1, 46, 74
3, 20700, Note_on_c, 1, 46, 0
3, 20700, Note_on_c, 1, 34, 73
3, 20730, Note_on_c, 1, 34, 0
3, 20730, Note_on_c, 1, 46, 73
3, 20760, Note_on_c, 1, 46, 0
3, 20760, Note_on_c, 1, 34, 72
3, 20790, Note_on_c, 1, 34, 0
3, 20790, Note_on_c, 1, 46, 72
3, 20820, Note_on_c, 1, 46, 0
3, 20820, Note_on_c, 1, 34, 72
3, 20850, Note_on_c, 1, 34, 0
3, 20850, Note_on_c, 1, 46, 71
3, 20880, Note_on_c, 1, 46, 0
3, 21240, Note_on_c, 1, 65, 72
3, 21240, Note_on_c, 1, 68, 72
3, 21300, Note_on_c, 1, 68, 0
3, 21300, Note_on_c, 1, 65, 0
3, 21300, Note_on_c, 1, 63, 72
3, 21300, Note_on_c, 1, 67, 72
3, 21360, Note_on_c, 1, 67, 0
3, 21360, Note_on_c, 1, 63, 0
3, 21360, Note_on_c, 1, 62, 72
3, 21360, Note_on_c, 1, 65, 72
3, 21420, Note_on_c, 1, 65, 0
3, 21420, Note_on_c, 1, 62, 0
3, 21420, Note_on_c, 1, 62, 72
3, 21420, Note_on_c, 1, 65, 72
3, 21540, Note_on_c, 1, 65, 0
3, 21540, Note_on_c, 1, 62, 0
3, 21600, Note_on_c, 1, 63, 72
3, 21600, Note_on_c, 1, 67, 72
3, 21660, Note_on_c, 1, 67, 0
3, 21660, Note_on_c, 1, 63, 0
3, 21660, Note_on_c, 1, 58, 72
3, 21660, Note_on_c, 1, 65, 72
3, 21720, Note_on_c, 1, 65, 0
3, 21720, Note_on_c, 1, 58, 0
3, 21720, Note_on_c, 1, 55, 72
3, 21720, Note_on_c, 1, 63, 72
3, 21780, Note_on_c, 1, 63, 0
3, 21780, Note_on_c, 1, 55, 0
3, 21780, Note_on_c, 1, 55, 72
3, 21780, Note_on_c, 1, 63, 72
3, 21900, Note_on_c, 1, 63, 0
3, 21900, Note_on_c, 1, 55, 0
3, 21900, Note_on_c, 1, 58, 72
3, 21900, Note_on_c, 1, 65, 72
3, 21960, Note_on_c, 1, 65, 0
3, 21960, Note_on_c, 1, 58, 0
3, 21960, Note_on_c, 1, 63, 72
3, 21960, Note_on_c, 1, 67, 72
3, 22080, Note_on_c, 1, 67, 0
3, 22080, Note_on_c, 1, 63, 0
3, 22080, Note_on_c, 1, 58, 72
3, 22080, Note_on_c, 1, 65, 72
3, 22140, Note_on_c, 1, 65, 0
3, 22140, Note_on_c, 1, 58, 0
3, 22140, Note_on_c, 1, 63, 72
3, 22140, Note_on_c, 1, 67, 72
3, 22260, Note_on_c, 1, 67, 0
3, 22260, Note_on_c, 1, 63, 0
3, 22260, Note_on_c, 1, 65, 72
3, 22260, Note_on_c, 1, 68, 72
3, 22320, Note_on_c, 1, 68, 0
3, 22320, Note_on_c, 1, 65, 0
3, 22320, Note_on_c, 1, 58, 72
3, 22320, Note_on_c, 1, 65, 72
3, 22440, Note_on_c, 1, 65, 0
3, 22440, Note_on_c, 1, 58, 0
3, 22680, Note_on_c, 1, 65, 69
3, 22680, Note_on_c, 1, 68, 69
3, 22740, Note_on_c, 1, 68, 0
3, 22740, Note_on_c, 1, 65, 0
3, 22740, Note_on_c, 1, 63, 76
3, 22740, Note_on_c, 1, 67, 76
3, 22800, Note_on_c, 1, 67, 0
3, 22800, Note_on_c, 1, 63, 0
3, 22800, Note_on_c, 1, 62, 80
3, 22800, Note_on_c, 1, 65, 80
3, 22860, Note_on_c, 1, 65, 0
3, 22860, Note_on_c, 1, 62, 0
3, 22860, Note_on_c, 1, 62, 82
3, 22860, Note_on_c, 1, 65, 82
3, 22980, Note_on_c, 1, 65, 0
3, 22980, Note_on_c, 1, 62, 0
3, 23040, Note_on_c, 1, 63, 71
3, 23040, Note_on_c, 1, 67, 71
3, 23100, Note_on_c, 1, 67, 0
3, 23100, Note_on_c, 1, 63, 0
3, 23100, Note_on_c, 1, 58, 79
3, 23100, Note_on_c, 1, 65, 79
3, 23160, Note_on_c, 1, 65, 0
3, 23160, Note_on_c, 1, 58, 0
3, 23160, Note_on_c, 1, 55, 84
3, 23160, Note_on_c, 1, 63, 84
3, 23220, Note_on_c, 1, 63, 0
3, 23220, Note_on_c, 1, 55, 0
3, 23220, Note_on_c, 1, 55, 87
3, 23220, Note_on_c, 1, 63, 87
3, 23340, Note_on_c, 1, 63, 0
3, 23340, Note_on_c, 1, 55, 0
3, 23340, Note_on_c, 1, 58, 82
3, 23340, Note_on_c, 1, 65, 82
3, 23400, Note_on_c, 1, 65, 0
3, 23400, Note_on_c, 1, 58, 0
3, 23400, Note_on_c, 1, 63, 76
3, 23400, Note_on_c, 1, 67, 76
3, 23520, Note_on_c, 1, 67, 0
3, 23520, Note_on_c, 1, 63, 0
3, 23520, Note_on_c, 1, 63, 77
3, 23520, Note_on_c, 1, 67, 77
3, 23580, Note_on_c, 1, 67, 0
3, 23580, Note_on_c, 1, 63, 0
3, 23580, Note_on_c, 1, 62, 71
3, 23580, Note_on_c, 1, 65, 71
3, 23700, Note_on_c, 1, 65, 0
3, 23700, Note_on_c, 1, 62, 0
3, 23700, Note_on_c, 1, 63, 69
3, 23700, Note_on_c, 1, 67, 69
3, 23760, Note_on_c, 1, 67, 0
3, 23760, Note_on_c, 1, 63, 0
3, 23760, Note_on_c, 1, 70, 75
3, 23820, Note_on_c, 1, 70, 0
3, 23820, Note_on_c, 1, 70, 78
3, 23880, Note_on_c, 1, 70, 0
3, 23880, Note_on_c, 1, 69, 79
3, 23940, Note_on_c, 1, 69, 0
3, 23940, Note_on_c, 1, 70, 79
3, 24000, Note_on_c, 1, 70, 0
3, 24000, Note_on_c, 1, 70, 78
3, 24060, Note_on_c, 1, 70, 0
3, 24060, Note_on_c, 1, 69, 76
3, 24120, Note_on_c, 1, 69, 0
3, 24120, Note_on_c, 1, 70, 75
3, 24180, Note_on_c, 1, 70, 0
3, 24180, Note_on_c, 1, 70, 77
3, 24240, Note_on_c, 1, 70, 0
3, 24240, Note_on_c, 1, 69, 81
3, 24300, Note_on_c, 1, 69, 0
3, 24300, Note_on_c, 1, 70, 86
3, 24420, Note_on_c, 1, 70, 0
3, 24480, Note_on_c, 1, 67, 72
3, 24480, Note_on_c, 1, 63, 72
3, 24600, Note_on_c, 1, 63, 0
3, 24600, Note_on_c, 1, 67, 0
3, 24660, Note_on_c, 1, 67, 72
3, 24660, Note_on_c, 1, 63, 72
3, 24780, Note_on_c, 1, 63, 0
3, 24780, Note_on_c, 1, 67, 0
3, 24840, Note_on_c, 1, 67, 72
3, 24840, Note_on_c, 1, 63, 72
3, 24960, Note_on_c, 1, 63, 0
3, 24960, Note_on_c, 1, 67, 0
3, 25140, Note_on_c, 1, 70, 72
3, 25140, Note_on_c, 1, 62, 72
3, 25200, Note_on_c, 1, 62, 0
3, 25200, Note_on_c, 1, 63, 72
3, 25317, Note_on_c, 1, 70, 0
3, 25320, Note_on_c, 1, 63, 0
3, 25380, Note_on_c, 1, 56, 72
3, 25380, Note_on_c, 1, 68, 72
3, 25500, Note_on_c, 1, 68, 0
3, 25500, Note_on_c, 1, 56, 0
3, 25500, Note_on_c, 1, 69, 78
3, 25500, Note_on_c, 1, 57, 78
3, 25560, Note_on_c, 1, 57, 0
3, 25560, Note_on_c, 1, 69, 0
3, 25560, Note_on_c, 1, 58, 77
3, 25560, Note_on_c, 1, 70, 77
3, 25620, Note_on_c, 1, 70, 0
3, 25620, Note_on_c, 1, 58, 0
3, 25620, Note_on_c, 1, 58, 74
3, 25620, Note_on_c, 1, 70, 74
3, 25680, Note_on_c, 1, 70, 0
3, 25680, Note_on_c, 1, 58, 0
3, 25680, Note_on_c, 1, 57, 71
3, 25680, Note_on_c, 1, 69, 71
3, 25740, Note_on_c, 1, 69, 0
3, 25740, Note_on_c, 1, 57, 0
3, 25740, Note_on_c, 1, 58, 69
3, 25740, Note_on_c, 1, 70, 69
3, 25860, Note_on_c, 1, 70, 0
3, 25860, Note_on_c, 1, 58, 0
3, 25860, Note_on_c, 1, 67, 60
3, 25920, Note_on_c, 1, 67, 0
3, 25920, Note_on_c, 1, 67, 61
3, 25980, Note_on_c, 1, 67, 0
3, 25980, Note_on_c, 1, 63, 63
3, 26040, Note_on_c, 1, 63, 0
3, 26040, Note_on_c, 1, 63, 64
3, 26100, Note_on_c, 1, 63, 0
3, 26100, Note_on_c, 1, 63, 64
3, 26160, Note_on_c, 1, 63, 0
3, 26160, Note_on_c, 1, 58, 63
3, 26220, Note_on_c, 1, 58, 0
3, 26220, Note_on_c, 1, 58, 64
3, 26280, Note_on_c, 1, 58, 0
3, 26280, Note_on_c, 1, 58, 65
3, 26340, Note_on_c, 1, 58, 0
3, 26340, Note_on_c, 1, 55, 66
3, 26400, Note_on_c, 1, 55, 0
3, 26400, Note_on_c, 1, 55, 66
3, 26460, Note_on_c, 1, 55, 0
3, 26460, Note_on_c, 1, 55, 67
3, 26520, Note_on_c, 1, 55, 0
3, 26520, Note_on_c, 1, 51, 68
3, 26580, Note_on_c, 1, 51, 0
3, 26580, Note_on_c, 1, 51, 69
3, 26640, Note_on_c, 1, 51, 0
3, 26640, Note_on_c, 1, 56, 71
3, 26640, Note_on_c, 1, 44, 71
3, 26700, Note_on_c, 1, 44, 0
3, 26700, Note_on_c, 1, 56, 0
3, 26700, Note_on_c, 1, 56, 71
3, 26700, Note_on_c, 1, 44, 71
3, 26760, Note_on_c, 1, 44, 0
3, 26760, Note_on_c, 1, 56, 0
3, 26760, Note_on_c, 1, 44, 71
3, 26760, Note_on_c, 1, 56, 71
3, 26820, Note_on_c, 1, 56, 0
3, 26820, Note_on_c, 1, 44, 0
3, 26820, Note_on_c, 1, 44, 71
3, 26820, Note_on_c, 1, 56, 71
3, 26880, Note_on_c, 1, 56, 0
3, 26880, Note_on_c, 1, 44, 0
3, 26880, Note_on_c, 1, 56, 71
3, 26880, Note_on_c, 1, 44, 71
3, 26940, Note_on_c, 1, 44, 0
3, 26940, Note_on_c, 1, 56, 0
3, 26940, Note_on_c, 1, 56, 71
3, 26940, Note_on_c, 1, 44, 71
3, 27000, Note_on_c, 1, 44, 0
3, 27000, Note_on_c, 1, 56, 0
3, 27000, Note_on_c, 1, 58, 71
3, 27000, Note_on_c, 1, 46, 71
3, 27060, Note_on_c, 1, 46, 0
3, 27060, Note_on_c, 1, 58, 0
3, 27060, Note_on_c, 1, 58, 70
3, 27060, Note_on_c, 1, 46, 70
3, 27120, Note_on_c, 1, 46, 0
3, 27120, Note_on_c, 1, 58, 0
3, 27120, Note_on_c, 1, 46, 69
3, 27120, Note_on_c, 1, 58, 69
3, 27180, Note_on_c, 1, 58, 0
3, 27180, Note_on_c, 1, 46, 0
3, 27180, Note_on_c, 1, 46, 68
3, 27180, Note_on_c, 1, 58, 68
3, 27240, Note_on_c, 1, 58, 0
3, 27240, Note_on_c, 1, 46, 0
3, 27240, Note_on_c, 1, 58, 67
3, 27240, Note_on_c, 1, 46, 67
3, 27300, Note_on_c, 1, 46, 0
3, 27300, Note_on_c, 1, 58, 0
3, 27300, Note_on_c, 1, 58, 66
3, 27300, Note_on_c, 1, 46, 66
3, 27360, Note_on_c, 1, 46, 0
3, 27360, Note_on_c, 1, 58, 0
3, 27360, Note_on_c, 1, 39, 65
3, 27390, Note_on_c, 1, 39, 0
3, 27390, Note_on_c, 1, 51, 65
3, 27420, Note_on_c, 1, 51, 0
3, 27420, Note_on_c, 1, 39, 65
3, 27450, Note_on_c, 1, 39, 0
3, 27450, Note_on_c, 1, 51, 65
3, 27480, Note_on_c, 1, 51, 0
3, 27480, Note_on_c, 1, 39, 65
3, 27510, Note_on_c, 1, 39, 0
3, 27510, Note_on_c, 1, 51, 65
3, 27540, Note_on_c, 1, 51, 0
3, 27540, Note_on_c, 1, 39, 65
3, 27570, Note_on_c, 1, 39, 0
3, 27570, Note_on_c, 1, 51, 64
3, 27600, Note_on_c, 1, 51, 0
3, 27600, Note_on_c, 1, 39, 65
3, 27630, Note_on_c, 1, 39, 0
3, 27630, Note_on_c, 1, 51, 65
3, 27660, Note_on_c, 1, 51, 0
3, 27660, Note_on_c, 1, 39, 64
3, 27690, Note_on_c, 1, 39, 0
3, 27690, Note_on_c, 1, 51, 64
3, 27720, Note_on_c, 1, 51, 0
3, 27720, Note_on_c, 1, 39, 64
3, 27750, Note_on_c, 1, 39, 0
3, 27750, Note_on_c, 1, 51, 64
3, 27780, Note_on_c, 1, 51, 0
3, 27780, Note_on_c, 1, 39, 64
3, 27810, Note_on_c, 1, 39, 0
3, 27810, Note_on_c, 1, 51, 64
3, 27840, Note_on_c, 1, 51, 0
3, 27840, Note_on_c, 1, 39, 64
3, 27870, Note_on_c, 1, 39, 0
3, 27870, Note_on_c, 1, 51, 64
3, 27900, Note_on_c, 1, 51, 0
3, 27900, Note_on_c, 1, 39, 64
3, 27930, Note_on_c, 1, 39, 0
3, 27930, Note_on_c, 1, 51, 64
3, 27960, Note_on_c, 1, 51, 0
3, 27960, Note_on_c, 1, 39, 65
3, 27990, Note_on_c, 1, 39, 0
3, 27990, Note_on_c, 1, 51, 67
3, 28020, Note_on_c, 1, 51, 0
3, 28020, Note_on_c, 1, 39, 68
3, 28050, Note_on_c, 1, 39, 0
3, 28050, Note_on_c, 1, 51, 69
3, 28080, Note_on_c, 1, 51, 0
3, 28080, Note_on_c, 1, 39, 69
3, 28110, Note_on_c, 1, 39, 0
3, 28110, Note_on_c, 1, 51, 70
3, 28140, Note_on_c, 1, 51, 0
3, 28140, Note_on_c, 1, 39, 70
3, 28170, Note_on_c, 1, 39, 0
3, 28170, Note_on_c, 1, 51, 70
3, 28200, Note_on_c, 1, 51, 0
3, 28200, Note_on_c, 1, 39, 70
3, 28230, Note_on_c, 1, 39, 0
3, 28230, Note_on_c, 1, 51, 70
3, 28260, Note_on_c, 1, 51, 0
3, 28260, Note_on_c, 1, 39, 69
3, 28290, Note_on_c, 1, 39, 0
3, 28290, Note_on_c, 1, 51, 68
3, 28320, Note_on_c, 1, 51, 0
3, 28320, Note_on_c, 1, 39, 68
3, 28350, Note_on_c, 1, 39, 0
3, 28350, Note_on_c, 1, 51, 67
3, 28380, Note_on_c, 1, 51, 0
3, 28380, Note_on_c, 1, 39, 67
3, 28410, Note_on_c, 1, 39, 0
3, 28410, Note_on_c, 1, 51, 66
3, 28440, Note_on_c, 1, 51, 0
3, 28440, Note_on_c, 1, 39, 66
3, 28470, Note_on_c, 1, 39, 0
3, 28470, Note_on_c, 1, 51, 68
3, 28500, Note_on_c, 1, 51, 0
3, 28500, Note_on_c, 1, 39, 66
3, 28530, Note_on_c, 1, 39, 0
3, 28530, Note_on_c, 1, 51, 66
3, 28560, Note_on_c, 1, 51, 0
3, 28560, Note_on_c, 1, 39, 65
3, 28590, Note_on_c, 1, 39, 0
3, 28590, Note_on_c, 1, 51, 65
3, 28620, Note_on_c, 1, 51, 0
3, 28620, Note_on_c, 1, 39, 65
3, 28650, Note_on_c, 1, 39, 0
3, 28650, Note_on_c, 1, 51, 64
3, 28680, Note_on_c, 1, 51, 0
3, 28680, Note_on_c, 1, 39, 65
3, 28710, Note_on_c, 1, 39, 0
3, 28710, Note_on_c, 1, 51, 65
3, 28740, Note_on_c, 1, 51, 0
3, 28740, Note_on_c, 1, 39, 66
3, 28770, Note_on_c, 1, 39, 0
3, 28770, Note_on_c, 1, 51, 67
3, 28800, Note_on_c, 1, 51, 0
3, 28800, Note_on_c, 1, 39, 67
3, 28830, Note_on_c, 1, 39, 0
3, 28830, Note_on_c, 1, 51, 68
3, 28860, Note_on_c, 1, 51, 0
3, 28860, Note_on_c, 1, 39, 69
3, 28890, Note_on_c, 1, 39, 0
3, 28890, Note_on_c, 1, 51, 70
3, 28920, Note_on_c, 1, 51, 0
3, 28920, Note_on_c, 1, 39, 71
3, 28950, Note_on_c, 1, 39, 0
3, 28950, Note_on_c, 1, 51, 72
3, 28980, Note_on_c, 1, 51, 0
3, 28980, Note_on_c, 1, 39, 72
3, 29010, Note_on_c, 1, 39, 0
3, 29010, Note_on_c, 1, 51, 71
3, 29040, Note_on_c, 1, 51, 0
3, 29040, Note_on_c, 1, 39, 70
3, 29070, Note_on_c, 1, 39, 0
3, 29070, Note_on_c, 1, 51, 70
3, 29100, Note_on_c, 1, 51, 0
3, 29100, Note_on_c, 1, 39, 69
3, 29130, Note_on_c, 1, 39, 0
3, 29130, Note_on_c, 1, 51, 68
3, 29160, Note_on_c, 1, 51, 0
3, 29160, Note_on_c, 1, 39, 67
3, 29190, Note_on_c, 1, 39, 0
3, 29190, Note_on_c, 1, 51, 66
3, 29220, Note_on_c, 1, 51, 0
3, 29220, Note_on_c, 1, 39, 66
3, 29250, Note_on_c, 1, 39, 0
3, 29250, Note_on_c, 1, 51, 65
3, 29280, Note_on_c, 1, 51, 0
3, 29280, Note_on_c, 1, 39, 65
3, 29310, Note_on_c, 1, 39, 0
3, 29310, Note_on_c, 1, 51, 65
3, 29340, Note_on_c, 1, 51, 0
3, 29340, Note_on_c, 1, 39, 65
3, 29370, Note_on_c, 1, 39, 0
3, 29370, Note_on_c, 1, 51, 65
3, 29400, Note_on_c, 1, 51, 0
3, 29400, Note_on_c, 1, 39, 65
3, 29430, Note_on_c, 1, 39, 0
3, 29430, Note_on_c, 1, 51, 64
3, 29460, Note_on_c, 1, 51, 0
3, 29460, Note_on_c, 1, 39, 63
3, 29490, Note_on_c, 1, 39, 0
3, 29490, Note_on_c, 1, 51, 64
3, 29520, Note_on_c, 1, 51, 0
3, 29520, Note_on_c, 1, 39, 64
3, 29550, Note_on_c, 1, 39, 0
3, 29550, Note_on_c, 1, 51, 65
3, 29580, Note_on_c, 1, 51, 0
3, 29580, Note_on_c, 1, 39, 64
3, 29610, Note_on_c, 1, 39, 0
3, 29610, Note_on_c, 1, 51, 64
3, 29640, Note_on_c, 1, 51, 0
3, 29640, Note_on_c, 1, 39, 64
3, 29670, Note_on_c, 1, 39, 0
3, 29670, Note_on_c, 1, 51, 64
3, 29700, Note_on_c, 1, 51, 0
3, 29700, Note_on_c, 1, 39, 64
3, 29730, Note_on_c, 1, 39, 0
3, 29730, Note_on_c, 1, 51, 64
3, 29760, Note_on_c, 1, 51, 0
3, 29760, Note_on_c, 1, 39, 64
3, 29790, Note_on_c, 1, 39, 0
3, 29790, Note_on_c, 1, 51, 66
3, 29820, Note_on_c, 1, 51, 0
3, 29820, Note_on_c, 1, 39, 67
3, 29850, Note_on_c, 1, 39, 0
3, 29850, Note_on_c, 1, 51, 68
3, 29880, Note_on_c, 1, 51, 0
3, 29880, Note_on_c, 1, 39, 69
3, 29910, Note_on_c, 1, 39, 0
3, 29910, Note_on_c, 1, 51, 72
3, 29940, Note_on_c, 1, 51, 0
3, 29940, Note_on_c, 1, 39, 73
3, 29970, Note_on_c, 1, 39, 0
3, 29970, Note_on_c, 1, 51, 73
3, 30000, Note_on_c, 1, 51, 0
3, 30000, Note_on_c, 1, 39, 74
3, 30030, Note_on_c, 1, 39, 0
3, 30030, Note_on_c, 1, 51, 74
3, 30060, Note_on_c, 1, 51, 0
3, 30060, Note_on_c, 1, 39, 76
3, 30090, Note_on_c, 1, 39, 0
3, 30090, Note_on_c, 1, 51, 78
3, 30120, Note_on_c, 1, 51, 0
3, 30120, Note_on_c, 1, 39, 79
3, 30150, Note_on_c, 1, 39, 0
3, 30150, Note_on_c, 1, 51, 80
3, 30180, Note_on_c, 1, 51, 0
3, 30180, Note_on_c, 1, 39, 82
3, 30210, Note_on_c, 1, 39, 0
3, 30210, Note_on_c, 1, 51, 86
3, 30240, Note_on_c, 1, 51, 0
3, 30240, Note_on_c, 1, 39, 90
3, 30240, Note_on_c, 1, 51, 90
3, 30360, Note_on_c, 1, 51, 0
3, 30360, Note_on_c, 1, 39, 0
3, 30600, Note_on_c, 1, 44, 72
3, 30600, Note_on_c, 1, 48, 72
3, 30600, Note_on_c, 1, 53, 72
3, 30600, Note_on_c, 1, 56, 72
3, 30960, Note_on_c, 1, 56, 0
3, 30960, Note_on_c, 1, 44, 0
3, 30960, Note_on_c, 1, 48, 0
3, 30960, Note_on_c, 1, 53, 0
3, 30960, Note_on_c, 1, 46, 72
3, 30960, Note_on_c, 1, 51, 72
3, 30960, Note_on_c, 1, 55, 72
3, 31320, Note_on_c, 1, 55, 0
3, 31320, Note_on_c, 1, 51, 0
3, 31320, Note_on_c, 1, 46, 0
3, 31320, Note_on_c, 1, 47, 72
3, 31320, Note_on_c, 1, 53, 72
3, 31320, Note_on_c, 1, 56, 72
3, 31680, Note_on_c, 1, 56, 0
3, 31680, Note_on_c, 1, 53, 0
3, 31680, Note_on_c, 1, 47, 0
3, 31680, Note_on_c, 1, 48, 72
3, 31680, Note_on_c, 1, 51, 72
3, 31680, Note_on_c, 1, 55, 72
3, 32040, Note_on_c, 1, 55, 0
3, 32040, Note_on_c, 1, 51, 0
3, 32040, Note_on_c, 1, 48, 0
3, 32040, Note_on_c, 1, 44, 72
3, 32040, Note_on_c, 1, 53, 72
3, 32040, Note_on_c, 1, 56, 72
3, 32400, Note_on_c, 1, 56, 0
3, 32400, Note_on_c, 1, 53, 0
3, 32400, Note_on_c, 1, 44, 0
3, 32400, Note_on_c, 1, 46, 72
3, 32400, Note_on_c, 1, 51, 72
3, 32400, Note_on_c, 1, 55, 72
3, 32760, Note_on_c, 1, 55, 0
3, 32760, Note_on_c, 1, 51, 0
3, 32760, Note_on_c, 1, 46, 0
3, 32760, Note_on_c, 1, 46, 72
3, 32760, Note_on_c, 1, 53, 72
3, 32760, Note_on_c, 1, 56, 72
3, 32940, Note_on_c, 1, 46, 0
3, 32940, Note_on_c, 1, 47, 72
3, 33120, Note_on_c, 1, 47, 0
3, 33120, Note_on_c, 1, 56, 0
3, 33120, Note_on_c, 1, 53, 0
3, 33120, Note_on_c, 1, 48, 72
3, 33120, Note_on_c, 1, 51, 72
3, 33120, Note_on_c, 1, 55, 72
3, 33360, Note_on_c, 1, 55, 0
3, 33360, Note_on_c, 1, 51, 0
3, 33360, Note_on_c, 1, 48, 0
3, 33480, Note_on_c, 1, 53, 72
3, 33480, Note_on_c, 1, 51, 72
3, 33480, Note_on_c, 1, 48, 72
3, 33480, Note_on_c, 1, 45, 72
3, 33480, Note_on_c, 1, 41, 72
3, 34200, Note_on_c, 1, 41, 0
3, 34200, Note_on_c, 1, 48, 0
3, 34200, Note_on_c, 1, 53, 0
3, 34200, Note_on_c, 1, 51, 0
3, 34200, Note_on_c, 1, 45, 0
3, 34200, Note_on_c, 1, 51, 72
3, 34200, Note_on_c, 1, 48, 72
3, 34200, Note_on_c, 1, 45, 72
3, 34200, Note_on_c, 1, 41, 72
3, 34920, Note_on_c, 1, 41, 0
3, 34920, Note_on_c, 1, 51, 0
3, 34920, Note_on_c, 1, 48, 0
3, 34920, Note_on_c, 1, 45, 0
3, 34920, Note_on_c, 1, 46, 72
3, 34980, Note_on_c, 1, 46, 0
3, 34980, Note_on_c, 1, 41, 72
3, 35040, Note_on_c, 1, 41, 0
3, 35040, Note_on_c, 1, 50, 72
3, 35100, Note_on_c, 1, 50, 0
3, 35100, Note_on_c, 1, 50, 72
3, 35160, Note_on_c, 1, 50, 0
3, 35160, Note_on_c, 1, 46, 72
3, 35220, Note_on_c, 1, 46, 0
3, 35220, Note_on_c, 1, 53, 72
3, 35280, Note_on_c, 1, 53, 0
3, 35280, Note_on_c, 1, 53, 72
3, 35340, Note_on_c, 1, 53, 0
3, 35340, Note_on_c, 1, 50, 72
3, 35400, Note_on_c, 1, 50, 0
3, 35400, Note_on_c, 1, 58, 72
3, 35460, Note_on_c, 1, 58, 0
3, 35460, Note_on_c, 1, 58, 72
3, 35520, Note_on_c, 1, 58, 0
3, 35520, Note_on_c, 1, 53, 72
3, 35580, Note_on_c, 1, 53, 0
3, 35580, Note_on_c, 1, 62, 72
3, 35640, Note_on_c, 1, 62, 0
3, 35640, Note_on_c, 1, 62, 72
3, 35700, Note_on_c, 1, 62, 0
3, 35700, Note_on_c, 1, 58, 72
3, 35760, Note_on_c, 1, 58, 0
3, 35760, Note_on_c, 1, 65, 72
3, 35820, Note_on_c, 1, 65, 0
3, 35940, Note_on_c, 1, 65, 72
3, 35940, Note_on_c, 1, 57, 72
3, 36000, Note_on_c, 1, 57, 0
3, 36000, Note_on_c, 1, 65, 0
3, 36000, Note_on_c, 1, 58, 72
3, 36000, Note_on_c, 1, 65, 72
3, 36120, Note_on_c, 1, 65, 0
3, 36120, Note_on_c, 1, 58, 0
3, 36180, Note_on_c, 1, 51, 72
3, 36180, Note_on_c, 1, 63, 72
3, 36300, Note_on_c, 1, 63, 0
3, 36300, Note_on_c, 1, 51, 0
3, 36300, Note_on_c, 1, 52, 72
3, 36300, Note_on_c, 1, 64, 72
3, 36360, Note_on_c, 1, 64, 0
3, 36360, Note_on_c, 1, 52, 0
3, 36360, Note_on_c, 1, 53, 72
3, 36360, Note_on_c, 1, 65, 72
3, 36420, Note_on_c, 1, 65, 0
3, 36420, Note_on_c, 1, 53, 0
3, 36420, Note_on_c, 1, 53, 72
3, 36420, Note_on_c, 1, 65, 72
3, 36480, Note_on_c, 1, 65, 0
3, 36480, Note_on_c, 1, 53, 0
3, 36480, Note_on_c, 1, 64, 72
3, 36480, Note_on_c, 1, 52, 72
3, 36540, Note_on_c, 1, 52, 0
3, 36540, Note_on_c, 1, 64, 0
3, 36540, Note_on_c, 1, 53, 72
3, 36540, Note_on_c, 1, 65, 72
3, 36660, Note_on_c, 1, 65, 0
3, 36660, Note_on_c, 1, 53, 0
3, 36720, Note_on_c, 1, 58, 72
3, 36840, Note_on_c, 1, 58, 0
3, 37380, Note_on_c, 1, 58, 72
3, 37380, Note_on_c, 1, 60, 72
3, 37440, Note_on_c, 1, 60, 0
3, 37440, Note_on_c, 1, 58, 0
3, 37440, Note_on_c, 1, 57, 72
3, 37440, Note_on_c, 1, 60, 72
3, 37500, Note_on_c, 1, 60, 0
3, 37500, Note_on_c, 1, 57, 0
3, 37500, Note_on_c, 1, 55, 72
3, 37560, Note_on_c, 1, 55, 0
3, 37560, Note_on_c, 1, 53, 72
3, 37620, Note_on_c, 1, 53, 0
3, 37620, Note_on_c, 1, 58, 72
3, 37740, Note_on_c, 1, 58, 0
3, 37740, Note_on_c, 1, 60, 72
3, 37800, Note_on_c, 1, 60, 0
3, 37800, Note_on_c, 1, 53, 72
3, 37860, Note_on_c, 1, 53, 0
3, 37860, Note_on_c, 1, 48, 72
3, 37920, Note_on_c, 1, 48, 0
3, 37920, Note_on_c, 1, 45, 72
3, 37980, Note_on_c, 1, 45, 0
3, 37980, Note_on_c, 1, 41, 72
3, 38100, Note_on_c, 1, 41, 0
3, 38160, Note_on_c, 1, 63, 66
3, 38160, Note_on_c, 1, 53, 66
3, 38190, Note_on_c, 1, 63, 0
3, 38190, Note_on_c, 1, 65, 69
3, 38220, Note_on_c, 1, 65, 0
3, 38220, Note_on_c, 1, 63, 72
3, 38250, Note_on_c, 1, 63, 0
3, 38250, Note_on_c, 1, 65, 73
3, 38280, Note_on_c, 1, 65, 0
3, 38280, Note_on_c, 1, 63, 73
3, 38310, Note_on_c, 1, 63, 0
3, 38310, Note_on_c, 1, 65, 73
3, 38340, Note_on_c, 1, 65, 0
3, 38340, Note_on_c, 1, 53, 0
3, 38340, Note_on_c, 1, 63, 73
3, 38340, Note_on_c, 1, 53, 73
3, 38370, Note_on_c, 1, 63, 0
3, 38370, Note_on_c, 1, 65, 72
3, 38400, Note_on_c, 1, 65, 0
3, 38400, Note_on_c, 1, 63, 71
3, 38430, Note_on_c, 1, 63, 0
3, 38430, Note_on_c, 1, 65, 71
3, 38460, Note_on_c, 1, 65, 0
3, 38460, Note_on_c, 1, 63, 70
3, 38490, Note_on_c, 1, 63, 0
3, 38490, Note_on_c, 1, 65, 69
3, 38520, Note_on_c, 1, 65, 0
3, 38520, Note_on_c, 1, 53, 0
3, 38520, Note_on_c, 1, 62, 69
3, 38520, Note_on_c, 1, 53, 69
3, 38550, Note_on_c, 1, 62, 0
3, 38550, Note_on_c, 1, 65, 69
3, 38580, Note_on_c, 1, 65, 0
3, 38580, Note_on_c, 1, 62, 70
3, 38610, Note_on_c, 1, 62, 0
3, 38610, Note_on_c, 1, 65, 71
3, 38640, Note_on_c, 1, 65, 0
3, 38640, Note_on_c, 1, 62, 72
3, 38670, Note_on_c, 1, 62, 0
3, 38670, Note_on_c, 1, 65, 72
3, 38700, Note_on_c, 1, 65, 0
3, 38700, Note_on_c, 1, 53, 0
3, 38700, Note_on_c, 1, 62, 72
3, 38700, Note_on_c, 1, 53, 72
3, 38730, Note_on_c, 1, 62, 0
3, 38730, Note_on_c, 1, 65, 72
3, 38760, Note_on_c, 1, 65, 0
3, 38760, Note_on_c, 1, 62, 73
3, 38790, Note_on_c, 1, 62, 0
3, 38790, Note_on_c, 1, 65, 73
3, 38820, Note_on_c, 1, 65, 0
3, 38820, Note_on_c, 1, 62, 73
3, 38850, Note_on_c, 1, 62, 0
3, 38850, Note_on_c, 1, 65, 72
3, 38880, Note_on_c, 1, 65, 0
3, 38880, Note_on_c, 1, 53, 0
3, 38880, Note_on_c, 1, 53, 72
3, 38880, Note_on_c, 1, 63, 72
3, 38910, Note_on_c, 1, 63, 0
3, 38910, Note_on_c, 1, 65, 72
3, 38940, Note_on_c, 1, 65, 0
3, 38940, Note_on_c, 1, 63, 73
3, 38970, Note_on_c, 1, 63, 0
3, 38970, Note_on_c, 1, 65, 74
3, 39000, Note_on_c, 1, 65, 0
3, 39000, Note_on_c, 1, 63, 75
3, 39030, Note_on_c, 1, 63, 0
3, 39030, Note_on_c, 1, 65, 75
3, 39060, Note_on_c, 1, 65, 0
3, 39060, Note_on_c, 1, 53, 0
3, 39060, Note_on_c, 1, 53, 75
3, 39060, Note_on_c, 1, 63, 75
3, 39090, Note_on_c, 1, 63, 0
3, 39090, Note_on_c, 1, 65, 74
3, 39120, Note_on_c, 1, 65, 0
3, 39120, Note_on_c, 1, 63, 73
3, 39150, Note_on_c, 1, 63, 0
3, 39150, Note_on_c, 1, 65, 75
3, 39180, Note_on_c, 1, 65, 0
3, 39180, Note_on_c, 1, 63, 76
3, 39210, Note_on_c, 1, 63, 0
3, 39210, Note_on_c, 1, 65, 76
3, 39240, Note_on_c, 1, 65, 0
3, 39240, Note_on_c, 1, 53, 0
3, 39240, Note_on_c, 1, 53, 77
3, 39240, Note_on_c, 1, 62, 77
3, 39270, Note_on_c, 1, 62, 0
3, 39270, Note_on_c, 1, 65, 77
3, 39300, Note_on_c, 1, 65, 0
3, 39300, Note_on_c, 1, 62, 77
3, 39330, Note_on_c, 1, 62, 0
3, 39330, Note_on_c, 1, 65, 78
3, 39360, Note_on_c, 1, 65, 0
3, 39360, Note_on_c, 1, 62, 78
3, 39390, Note_on_c, 1, 62, 0
3, 39390, Note_on_c, 1, 65, 78
3, 39420, Note_on_c, 1, 65, 0
3, 39420, Note_on_c, 1, 53, 0
3, 39420, Note_on_c, 1, 53, 78
3, 39420, Note_on_c, 1, 62, 78
3, 39450, Note_on_c, 1, 62, 0
3, 39450, Note_on_c, 1, 65, 77
3, 39480, Note_on_c, 1, 65, 0
3, 39480, Note_on_c, 1, 62, 75
3, 39510, Note_on_c, 1, 62, 0
3, 39510, Note_on_c, 1, 65, 74
3, 39540, Note_on_c, 1, 65, 0
3, 39540, Note_on_c, 1, 62, 72
3, 39570, Note_on_c, 1, 62, 0
3, 39570, Note_on_c, 1, 65, 69
3, 39600, Note_on_c, 1, 65, 0
3, 39600, Note_on_c, 1, 53, 0
3, 39600, Note_on_c, 1, 62, 67
3, 39630, Note_on_c, 1, 62, 0
3, 39630, Note_on_c, 1, 65, 67
3, 39660, Note_on_c, 1, 65, 0
3, 39660, Note_on_c, 1, 62, 67
3, 39690, Note_on_c, 1, 62, 0
3, 39690, Note_on_c, 1, 65, 68
3, 39720, Note_on_c, 1, 65, 0
3, 39720, Note_on_c, 1, 62, 70
3, 39750, Note_on_c, 1, 62, 0
3, 39750, Note_on_c, 1, 65, 71
3, 39780, Note_on_c, 1, 65, 0
3, 39780, Note_on_c, 1, 60, 73
3, 39810, Note_on_c, 1, 60, 0
3, 39810, Note_on_c, 1, 63, 74
3, 39840, Note_on_c, 1, 63, 0
3, 39840, Note_on_c, 1, 60, 75
3, 39870, Note_on_c, 1, 60, 0
3, 39870, Note_on_c, 1, 63, 75
3, 39900, Note_on_c, 1, 63, 0
3, 39900, Note_on_c, 1, 60, 75
3, 39930, Note_on_c, 1, 60, 0
3, 39930, Note_on_c, 1, 63, 76
3, 39960, Note_on_c, 1, 63, 0
3, 39960, Note_on_c, 1, 58, 77
3, 39990, Note_on_c, 1, 58, 0
3, 39990, Note_on_c, 1, 62, 77
3, 40020, Note_on_c, 1, 62, 0
3, 40020, Note_on_c, 1, 58, 77
3, 40050, Note_on_c, 1, 58, 0
3, 40050, Note_on_c, 1, 62, 75
3, 40080, Note_on_c, 1, 62, 0
3, 40080, Note_on_c, 1, 58, 72
3, 40110, Note_on_c, 1, 58, 0
3, 40110, Note_on_c, 1, 62, 71
3, 40140, Note_on_c, 1, 62, 0
3, 40140, Note_on_c, 1, 53, 70
3, 40140, Note_on_c, 1, 57, 70
3, 40170, Note_on_c, 1, 57, 0
3, 40170, Note_on_c, 1, 53, 0
3, 40170, Note_on_c, 1, 62, 69
3, 40200, Note_on_c, 1, 62, 0
3, 40200, Note_on_c, 1, 53, 69
3, 40200, Note_on_c, 1, 57, 69
3, 40230, Note_on_c, 1, 57, 0
3, 40230, Note_on_c, 1, 53, 0
3, 40230, Note_on_c, 1, 62, 69
3, 40260, Note_on_c, 1, 62, 0
3, 40260, Note_on_c, 1, 53, 71
3, 40260, Note_on_c, 1, 57, 71
3, 40290, Note_on_c, 1, 57, 0
3, 40290, Note_on_c, 1, 53, 0
3, 40290, Note_on_c, 1, 63, 72
3, 40320, Note_on_c, 1, 63, 0
3, 40320, Note_on_c, 1, 55, 74
3, 40320, Note_on_c, 1, 58, 74
3, 40350, Note_on_c, 1, 58, 0
3, 40350, Note_on_c, 1, 62, 74
3, 40380, Note_on_c, 1, 62, 0
3, 40380, Note_on_c, 1, 58, 74
3, 40410, Note_on_c, 1, 58, 0
3, 40410, Note_on_c, 1, 62, 74
3, 40440, Note_on_c, 1, 62, 0
3, 40440, Note_on_c, 1, 58, 74
3, 40470, Note_on_c, 1, 58, 0
3, 40470, Note_on_c, 1, 62, 74
3, 40500, Note_on_c, 1, 62, 0
3, 40500, Note_on_c, 1, 55, 0
3, 40500, Note_on_c, 1, 55, 73
3, 40500, Note_on_c, 1, 58, 73
3, 40530, Note_on_c, 1, 58, 0
3, 40530, Note_on_c, 1, 62, 71
3, 40560, Note_on_c, 1, 62, 0
3, 40560, Note_on_c, 1, 58, 69
3, 40590, Note_on_c, 1, 58, 0
3, 40590, Note_on_c, 1, 62, 68
3, 40620, Note_on_c, 1, 62, 0
3, 40620, Note_on_c, 1, 58, 69
3, 40650, Note_on_c, 1, 58, 0
3, 40650, Note_on_c, 1, 62, 71
3, 40680, Note_on_c, 1, 62, 0
3, 40680, Note_on_c, 1, 55, 0
3, 40680, Note_on_c, 1, 50, 73
3, 40680, Note_on_c, 1, 60, 73
3, 40710, Note_on_c, 1, 60, 0
3, 40710, Note_on_c, 1, 62, 75
3, 40740, Note_on_c, 1, 62, 0
3, 40740, Note_on_c, 1, 60, 76
3, 40770, Note_on_c, 1, 60, 0
3, 40770, Note_on_c, 1, 62, 76
3, 40800, Note_on_c, 1, 62, 0
3, 40800, Note_on_c, 1, 60, 76
3, 40830, Note_on_c, 1, 60, 0
3, 40830, Note_on_c, 1, 62, 75
3, 40860, Note_on_c, 1, 62, 0
3, 40860, Note_on_c, 1, 50, 0
3, 40860, Note_on_c, 1, 50, 75
3, 40860, Note_on_c, 1, 60, 75
3, 40890, Note_on_c, 1, 60, 0
3, 40890, Note_on_c, 1, 62, 76
3, 40920, Note_on_c, 1, 62, 0
3, 40920, Note_on_c, 1, 60, 76
3, 40950, Note_on_c, 1, 60, 0
3, 40950, Note_on_c, 1, 62, 76
3, 40980, Note_on_c, 1, 62, 0
3, 40980, Note_on_c, 1, 60, 74
3, 41010, Note_on_c, 1, 60, 0
3, 41010, Note_on_c, 1, 62, 73
3, 41040, Note_on_c, 1, 62, 0
3, 41040, Note_on_c, 1, 50, 0
3, 41040, Note_on_c, 1, 55, 73
3, 41040, Note_on_c, 1, 58, 73
3, 41070, Note_on_c, 1, 58, 0
3, 41070, Note_on_c, 1, 62, 73
3, 41100, Note_on_c, 1, 62, 0
3, 41100, Note_on_c, 1, 58, 73
3, 41130, Note_on_c, 1, 58, 0
3, 41130, Note_on_c, 1, 62, 74
3, 41160, Note_on_c, 1, 62, 0
3, 41160, Note_on_c, 1, 58, 77
3, 41190, Note_on_c, 1, 58, 0
3, 41190, Note_on_c, 1, 62, 78
3, 41220, Note_on_c, 1, 62, 0
3, 41220, Note_on_c, 1, 55, 0
3, 41220, Note_on_c, 1, 55, 79
3, 41220, Note_on_c, 1, 58, 79
3, 41250, Note_on_c, 1, 58, 0
3, 41250, Note_on_c, 1, 62, 80
3, 41280, Note_on_c, 1, 62, 0
3, 41280, Note_on_c, 1, 58, 81
3, 41310, Note_on_c, 1, 58, 0
3, 41310, Note_on_c, 1, 62, 81
3, 41340, Note_on_c, 1, 62, 0
3, 41340, Note_on_c, 1, 58, 80
3, 41370, Note_on_c, 1, 58, 0
3, 41370, Note_on_c, 1, 62, 79
3, 41400, Note_on_c, 1, 62, 0
3, 41400, Note_on_c, 1, 55, 0
3, 41400, Note_on_c, 1, 55, 77
3, 41400, Note_on_c, 1, 58, 77
3, 41430, Note_on_c, 1, 58, 0
3, 41430, Note_on_c, 1, 60, 77
3, 41460, Note_on_c, 1, 60, 0
3, 41460, Note_on_c, 1, 58, 75
3, 41490, Note_on_c, 1, 58, 0
3, 41490, Note_on_c, 1, 60, 75
3, 41520, Note_on_c, 1, 60, 0
3, 41520, Note_on_c, 1, 58, 75
3, 41550, Note_on_c, 1, 58, 0
3, 41550, Note_on_c, 1, 60, 74
3, 41580, Note_on_c, 1, 60, 0
3, 41580, Note_on_c, 1, 55, 0
3, 41580, Note_on_c, 1, 55, 73
3, 41580, Note_on_c, 1, 58, 73
3, 41610, Note_on_c, 1, 58, 0
3, 41610, Note_on_c, 1, 60, 73
3, 41640, Note_on_c, 1, 60, 0
3, 41640, Note_on_c, 1, 58, 73
3, 41670, Note_on_c, 1, 58, 0
3, 41670, Note_on_c, 1, 60, 72
3, 41700, Note_on_c, 1, 60, 0
3, 41700, Note_on_c, 1, 58, 72
3, 41730, Note_on_c, 1, 58, 0
3, 41730, Note_on_c, 1, 60, 73
3, 41760, Note_on_c, 1, 60, 0
3, 41760, Note_on_c, 1, 55, 0
3, 41760, Note_on_c, 1, 53, 73
3, 41760, Note_on_c, 1, 57, 73
3, 41790, Note_on_c, 1, 57, 0
3, 41790, Note_on_c, 1, 60, 74
3, 41820, Note_on_c, 1, 60, 0
3, 41820, Note_on_c, 1, 57, 76
3, 41850, Note_on_c, 1, 57, 0
3, 41850, Note_on_c, 1, 60, 78
3, 41880, Note_on_c, 1, 60, 0
3, 41880, Note_on_c, 1, 57, 79
3, 41910, Note_on_c, 1, 57, 0
3, 41910, Note_on_c, 1, 60, 80
3, 41940, Note_on_c, 1, 60, 0
3, 41940, Note_on_c, 1, 53, 0
3, 41940, Note_on_c, 1, 48, 81
3, 41940, Note_on_c, 1, 58, 81
3, 41970, Note_on_c, 1, 58, 0
3, 41970, Note_on_c, 1, 60, 81
3, 42000, Note_on_c, 1, 60, 0
3, 42000, Note_on_c, 1, 58, 80
3, 42030, Note_on_c, 1, 58, 0
3, 42030, Note_on_c, 1, 60, 80
3, 42060, Note_on_c, 1, 60, 0
3, 42060, Note_on_c, 1, 58, 79
3, 42090, Note_on_c, 1, 58, 0
3, 42090, Note_on_c, 1, 60, 78
3, 42120, Note_on_c, 1, 60, 0
3, 42120, Note_on_c, 1, 48, 0
3, 42120, Note_on_c, 1, 53, 78
3, 42120, Note_on_c, 1, 57, 78
3, 42150, Note_on_c, 1, 57, 0
3, 42150, Note_on_c, 1, 60, 78
3, 42180, Note_on_c, 1, 60, 0
3, 42180, Note_on_c, 1, 57, 78
3, 42210, Note_on_c, 1, 57, 0
3, 42210, Note_on_c, 1, 60, 78
3, 42240, Note_on_c, 1, 60, 0
3, 42240, Note_on_c, 1, 57, 78
3, 42270, Note_on_c, 1, 57, 0
3, 42270, Note_on_c, 1, 60, 78
3, 42300, Note_on_c, 1, 60, 0
3, 42300, Note_on_c, 1, 53, 0
3, 42300, Note_on_c, 1, 48, 76
3, 42300, Note_on_c, 1, 58, 76
3, 42330, Note_on_c, 1, 58, 0
3, 42330, Note_on_c, 1, 60, 75
3, 42360, Note_on_c, 1, 60, 0
3, 42360, Note_on_c, 1, 58, 74
3, 42390, Note_on_c, 1, 58, 0
3, 42390, Note_on_c, 1, 60, 74
3, 42420, Note_on_c, 1, 60, 0
3, 42420, Note_on_c, 1, 58, 73
3, 42450, Note_on_c, 1, 58, 0
3, 42450, Note_on_c, 1, 60, 73
3, 42480, Note_on_c, 1, 60, 0
3, 42480, Note_on_c, 1, 48, 0
3, 42480, Note_on_c, 1, 53, 73
3, 42480, Note_on_c, 1, 57, 73
3, 42600, Note_on_c, 1, 57, 0
3, 42600, Note_on_c, 1, 53, 0
3, 43200, Note_on_c, 1, 63, 82
3, 43200, Note_on_c, 1, 60, 82
3, 43200, Note_on_c, 1, 57, 82
3, 43200, Note_on_c, 1, 53, 82
3, 43380, Note_on_c, 1, 53, 0
3, 43380, Note_on_c, 1, 63, 0
3, 43380, Note_on_c, 1, 60, 0
3, 43380, Note_on_c, 1, 57, 0
3, 43560, Note_on_c, 1, 41, 82
3, 43560, Note_on_c, 1, 45, 82
3, 43560, Note_on_c, 1, 48, 82
3, 43560, Note_on_c, 1, 51, 82
3, 43740, Note_on_c, 1, 51, 0
3, 43740, Note_on_c, 1, 41, 0
3, 43740, Note_on_c, 1, 45, 0
3, 43740, Note_on_c, 1, 48, 0
3, 43920, Note_on_c, 1, 50, 76
3, 43980, Note_on_c, 1, 50, 0
3, 43980, Note_on_c, 1, 46, 80
3, 44040, Note_on_c, 1, 46, 0
3, 44040, Note_on_c, 1, 53, 81
3, 44100, Note_on_c, 1, 53, 0
3, 44100, Note_on_c, 1, 53, 81
3, 44160, Note_on_c, 1, 53, 0
3, 44160, Note_on_c, 1, 50, 81
3, 44220, Note_on_c, 1, 50, 0
3, 44220, Note_on_c, 1, 58, 80
3, 44280, Note_on_c, 1, 58, 0
3, 44280, Note_on_c, 1, 58, 80
3, 44340, Note_on_c, 1, 58, 0
3, 44340, Note_on_c, 1, 53, 79
3, 44400, Note_on_c, 1, 53, 0
3, 44400, Note_on_c, 1, 62, 78
3, 44460, Note_on_c, 1, 62, 0
3, 44580, Note_on_c, 1, 45, 72
3, 44580, Note_on_c, 1, 57, 72
3, 44640, Note_on_c, 1, 57, 0
3, 44640, Note_on_c, 1, 45, 0
3, 44640, Note_on_c, 1, 46, 72
3, 44670, Note_on_c, 1, 46, 0
3, 44670, Note_on_c, 1, 58, 72
3, 44700, Note_on_c, 1, 58, 0
3, 44700, Note_on_c, 1, 46, 72
3, 44730, Note_on_c, 1, 46, 0
3, 44730, Note_on_c, 1, 58, 72
3, 44760, Note_on_c, 1, 58, 0
3, 44760, Note_on_c, 1, 46, 73
3, 44790, Note_on_c, 1, 46, 0
3, 44790, Note_on_c, 1, 58, 74
3, 44820, Note_on_c, 1, 58, 0
3, 44820, Note_on_c, 1, 39, 74
3, 44850, Note_on_c, 1, 39, 0
3, 44850, Note_on_c, 1, 51, 76
3, 44880, Note_on_c, 1, 51, 0
3, 44880, Note_on_c, 1, 39, 76
3, 44910, Note_on_c, 1, 39, 0
3, 44910, Note_on_c, 1, 51, 77
3, 44940, Note_on_c, 1, 51, 0
3, 44940, Note_on_c, 1, 40, 77
3, 44970, Note_on_c, 1, 40, 0
3, 44970, Note_on_c, 1, 52, 77
3, 45000, Note_on_c, 1, 52, 0
3, 45000, Note_on_c, 1, 41, 77
3, 45030, Note_on_c, 1, 41, 0
3, 45030, Note_on_c, 1, 53, 76
3, 45060, Note_on_c, 1, 53, 0
3, 45060, Note_on_c, 1, 41, 75
3, 45090, Note_on_c, 1, 41, 0
3, 45090, Note_on_c, 1, 53, 74
3, 45120, Note_on_c, 1, 53, 0
3, 45120, Note_on_c, 1, 40, 73
3, 45150, Note_on_c, 1, 40, 0
3, 45150, Note_on_c, 1, 52, 73
3, 45180, Note_on_c, 1, 52, 0
3, 45180, Note_on_c, 1, 41, 72
3, 45180, Note_on_c, 1, 53, 72
3, 45300, Note_on_c, 1, 53, 0
3, 45300, Note_on_c, 1, 41, 0
3, 45360, Note_on_c, 1, 46, 72
3, 45370, Note_on_c, 1, 50, 72
3, 45380, Note_on_c, 1, 53, 72
3, 45390, Note_on_c, 1, 58, 72
3, 45480, Note_on_c, 1, 46, 0
3, 45490, Note_on_c, 1, 50, 0
3, 45500, Note_on_c, 1, 53, 0
3, 45510, Note_on_c, 1, 58, 0
3, 45541, Note_on_c, 1, 46, 73
3, 45551, Note_on_c, 1, 50, 73
3, 45561, Note_on_c, 1, 53, 73
3, 45571, Note_on_c, 1, 58, 74
3, 45661, Note_on_c, 1, 46, 0
3, 45671, Note_on_c, 1, 50, 0
3, 45681, Note_on_c, 1, 53, 0
3, 45691, Note_on_c, 1, 58, 0
3, 45720, Note_on_c, 1, 46, 74
3, 45730, Note_on_c, 1, 50, 74
3, 45740, Note_on_c, 1, 53, 73
3, 45750, Note_on_c, 1, 58, 73
3, 45840, Note_on_c, 1, 46, 0
3, 45850, Note_on_c, 1, 50, 0
3, 45860, Note_on_c, 1, 53, 0
3, 45870, Note_on_c, 1, 58, 0
3, 45901, Note_on_c, 1, 46, 72
3, 45911, Note_on_c, 1, 50, 72
3, 45921, Note_on_c, 1, 53, 72
3, 45931, Note_on_c, 1, 58, 73
3, 46020, Note_on_c, 1, 41, 73
3, 46021, Note_on_c, 1, 46, 0
3, 46031, Note_on_c, 1, 50, 0
3, 46041, Note_on_c, 1, 53, 0
3, 46050, Note_on_c, 1, 41, 0
3, 46050, Note_on_c, 1, 53, 72
3, 46051, Note_on_c, 1, 58, 0
3, 46080, Note_on_c, 1, 53, 0
3, 46080, Note_on_c, 1, 41, 72
3, 46110, Note_on_c, 1, 41, 0
3, 46110, Note_on_c, 1, 53, 72
3, 46140, Note_on_c, 1, 53, 0
3, 46140, Note_on_c, 1, 41, 71
3, 46170, Note_on_c, 1, 41, 0
3, 46170, Note_on_c, 1, 53, 71
3, 46200, Note_on_c, 1, 53, 0
3, 46200, Note_on_c, 1, 41, 70
3, 46230, Note_on_c, 1, 41, 0
3, 46230, Note_on_c, 1, 53, 70
3, 46260, Note_on_c, 1, 53, 0
3, 46260, Note_on_c, 1, 41, 70
3, 46290, Note_on_c, 1, 41, 0
3, 46290, Note_on_c, 1, 53, 70
3, 46320, Note_on_c, 1, 53, 0
3, 46320, Note_on_c, 1, 41, 70
3, 46350, Note_on_c, 1, 41, 0
3, 46350, Note_on_c, 1, 53, 70
3, 46380, Note_on_c, 1, 53, 0
3, 46380, Note_on_c, 1, 41, 70
3, 46410, Note_on_c, 1, 41, 0
3, 46410, Note_on_c, 1, 53, 71
3, 46440, Note_on_c, 1, 53, 0
3, 46440, Note_on_c, 1, 58, 71
3, 46500, Note_on_c, 1, 58, 0
3, 46500, Note_on_c, 1, 53, 73
3, 46560, Note_on_c, 1, 53, 0
3, 46560, Note_on_c, 1, 50, 73
3, 46620, Note_on_c, 1, 50, 0
3, 46620, Note_on_c, 1, 46, 73
3, 46740, Note_on_c, 1, 46, 0
3, 46800, Note_on_c, 1, 55, 67
3, 46860, Note_on_c, 1, 55, 0
3, 46860, Note_on_c, 1, 58, 68
3, 46920, Note_on_c, 1, 58, 0
3, 46920, Note_on_c, 1, 62, 69
3, 46980, Note_on_c, 1, 62, 0
3, 46980, Note_on_c, 1, 55, 69
3, 47040, Note_on_c, 1, 55, 0
3, 47040, Note_on_c, 1, 58, 69
3, 47100, Note_on_c, 1, 58, 0
3, 47100, Note_on_c, 1, 62, 69
3, 47160, Note_on_c, 1, 62, 0
3, 47160, Note_on_c, 1, 57, 69
3, 47220, Note_on_c, 1, 57, 0
3, 47220, Note_on_c, 1, 60, 69
3, 47280, Note_on_c, 1, 60, 0
3, 47280, Note_on_c, 1, 62, 69
3, 47340, Note_on_c, 1, 62, 0
3, 47340, Note_on_c, 1, 57, 69
3, 47400, Note_on_c, 1, 57, 0
3, 47400, Note_on_c, 1, 60, 69
3, 47460, Note_on_c, 1, 60, 0
3, 47460, Note_on_c, 1, 62, 69
3, 47520, Note_on_c, 1, 62, 0
3, 47520, Note_on_c, 1, 54, 69
3, 47580, Note_on_c, 1, 54, 0
3, 47580, Note_on_c, 1, 57, 69
3, 47640, Note_on_c, 1, 57, 0
3, 47640, Note_on_c, 1, 62, 69
3, 47700, Note_on_c, 1, 62, 0
3, 47700, Note_on_c, 1, 54, 69
3, 47760, Note_on_c, 1, 54, 0
3, 47760, Note_on_c, 1, 57, 69
3, 47820, Note_on_c, 1, 57, 0
3, 47820, Note_on_c, 1, 62, 69
3, 47880, Note_on_c, 1, 62, 0
3, 47880, Note_on_c, 1, 55, 69
3, 47940, Note_on_c, 1, 55, 0
3, 47940, Note_on_c, 1, 58, 69
3, 48000, Note_on_c, 1, 58, 0
3, 48000, Note_on_c, 1, 62, 69
3, 48060, Note_on_c, 1, 62, 0
3, 48060, Note_on_c, 1, 55, 69
3, 48120, Note_on_c, 1, 55, 0
3, 48120, Note_on_c, 1, 58, 69
3, 48180, Note_on_c, 1, 58, 0
3, 48180, Note_on_c, 1, 62, 69
3, 48240, Note_on_c, 1, 62, 0
3, 48240, Note_on_c, 1, 46, 69
3, 48300, Note_on_c, 1, 46, 0
3, 48300, Note_on_c, 1, 50, 69
3, 48360, Note_on_c, 1, 50, 0
3, 48360, Note_on_c, 1, 55, 69
3, 48420, Note_on_c, 1, 55, 0
3, 48420, Note_on_c, 1, 46, 69
3, 48480, Note_on_c, 1, 46, 0
3, 48480, Note_on_c, 1, 50, 69
3, 48540, Note_on_c, 1, 50, 0
3, 48540, Note_on_c, 1, 55, 69
3, 48600, Note_on_c, 1, 55, 0
3, 48600, Note_on_c, 1, 48, 69
3, 48660, Note_on_c, 1, 48, 0
3, 48660, Note_on_c, 1, 51, 69
3, 48720, Note_on_c, 1, 51, 0
3, 48720, Note_on_c, 1, 57, 69
3, 48780, Note_on_c, 1, 57, 0
3, 48780, Note_on_c, 1, 48, 69
3, 48840, Note_on_c, 1, 48, 0
3, 48840, Note_on_c, 1, 51, 69
3, 48900, Note_on_c, 1, 51, 0
3, 48900, Note_on_c, 1, 57, 69
3, 48960, Note_on_c, 1, 57, 0
3, 48960, Note_on_c, 1, 50, 69
3, 49020, Note_on_c, 1, 50, 0
3, 49020, Note_on_c, 1, 55, 69
3, 49080, Note_on_c, 1, 55, 0
3, 49080, Note_on_c, 1, 58, 68
3, 49140, Note_on_c, 1, 58, 0
3, 49140, Note_on_c, 1, 50, 68
3, 49200, Note_on_c, 1, 50, 0
3, 49200, Note_on_c, 1, 57, 68
3, 49260, Note_on_c, 1, 57, 0
3, 49260, Note_on_c, 1, 60, 68
3, 49320, Note_on_c, 1, 60, 0
3, 49320, Note_on_c, 1, 55, 67
3, 49380, Note_on_c, 1, 55, 0
3, 49380, Note_on_c, 1, 58, 67
3, 49440, Note_on_c, 1, 58, 0
3, 49440, Note_on_c, 1, 62, 67
3, 49500, Note_on_c, 1, 62, 0
3, 49500, Note_on_c, 1, 67, 67
3, 49620, Note_on_c, 1, 67, 0
3, 49680, Note_on_c, 1, 57, 65
3, 49740, Note_on_c, 1, 57, 0
3, 49740, Note_on_c, 1, 60, 66
3, 49800, Note_on_c, 1, 60, 0
3, 49800, Note_on_c, 1, 62, 66
3, 49860, Note_on_c, 1, 62, 0
3, 49860, Note_on_c, 1, 55, 67
3, 49920, Note_on_c, 1, 55, 0
3, 49920, Note_on_c, 1, 58, 67
3, 49980, Note_on_c, 1, 58, 0
3, 49980, Note_on_c, 1, 62, 67
3, 50040, Note_on_c, 1, 62, 0
3, 50040, Note_on_c, 1, 54, 67
3, 50100, Note_on_c, 1, 54, 0
3, 50100, Note_on_c, 1, 57, 67
3, 50160, Note_on_c, 1, 57, 0
3, 50160, Note_on_c, 1, 62, 67
3, 50220, Note_on_c, 1, 62, 0
3, 50220, Note_on_c, 1, 50, 67
3, 50280, Note_on_c, 1, 50, 0
3, 50280, Note_on_c, 1, 54, 67
3, 50340, Note_on_c, 1, 54, 0
3, 50340, Note_on_c, 1, 62, 67
3, 50400, Note_on_c, 1, 62, 0
3, 50400, Note_on_c, 1, 46, 68
3, 50460, Note_on_c, 1, 46, 0
3, 50460, Note_on_c, 1, 50, 68
3, 50520, Note_on_c, 1, 50, 0
3, 50520, Note_on_c, 1, 55, 68
3, 50580, Note_on_c, 1, 55, 0
3, 50580, Note_on_c, 1, 45, 68
3, 50640, Note_on_c, 1, 45, 0
3, 50640, Note_on_c, 1, 48, 68
3, 50700, Note_on_c, 1, 48, 0
3, 50700, Note_on_c, 1, 54, 68
3, 50760, Note_on_c, 1, 54, 0
3, 50760, Note_on_c, 1, 43, 68
3, 50820, Note_on_c, 1, 43, 0
3, 50820, Note_on_c, 1, 46, 68
3, 50880, Note_on_c, 1, 46, 0
3, 50880, Note_on_c, 1, 50, 68
3, 50940, Note_on_c, 1, 50, 0
3, 50940, Note_on_c, 1, 43, 69
3, 51000, Note_on_c, 1, 43, 0
3, 51000, Note_on_c, 1, 46, 69
3, 51060, Note_on_c, 1, 46, 0
3, 51060, Note_on_c, 1, 50, 69
3, 51120, Note_on_c, 1, 50, 0
3, 51120, Note_on_c, 1, 48, 70
3, 51180, Note_on_c, 1, 48, 0
3, 51180, Note_on_c, 1, 57, 70
3, 51240, Note_on_c, 1, 57, 0
3, 51240, Note_on_c, 1, 60, 70
3, 51300, Note_on_c, 1, 60, 0
3, 51300, Note_on_c, 1, 48, 70
3, 51360, Note_on_c, 1, 48, 0
3, 51360, Note_on_c, 1, 51, 70
3, 51420, Note_on_c, 1, 51, 0
3, 51420, Note_on_c, 1, 57, 70
3, 51480, Note_on_c, 1, 57, 0
3, 51480, Note_on_c, 1, 46, 70
3, 51540, Note_on_c, 1, 46, 0
3, 51540, Note_on_c, 1, 55, 70
3, 51600, Note_on_c, 1, 55, 0
3, 51600, Note_on_c, 1, 58, 70
3, 51660, Note_on_c, 1, 58, 0
3, 51660, Note_on_c, 1, 46, 70
3, 51720, Note_on_c, 1, 46, 0
3, 51720, Note_on_c, 1, 50, 70
3, 51780, Note_on_c, 1, 50, 0
3, 51780, Note_on_c, 1, 55, 70
3, 51840, Note_on_c, 1, 55, 0
3, 51840, Note_on_c, 1, 48, 70
3, 51900, Note_on_c, 1, 48, 0
3, 51900, Note_on_c, 1, 51, 70
3, 51960, Note_on_c, 1, 51, 0
3, 51960, Note_on_c, 1, 57, 70
3, 52020, Note_on_c, 1, 57, 0
3, 52020, Note_on_c, 1, 50, 70
3, 52080, Note_on_c, 1, 50, 0
3, 52080, Note_on_c, 1, 57, 70
3, 52140, Note_on_c, 1, 57, 0
3, 52140, Note_on_c, 1, 60, 70
3, 52200, Note_on_c, 1, 60, 0
3, 52200, Note_on_c, 1, 51, 70
3, 52260, Note_on_c, 1, 51, 0
3, 52260, Note_on_c, 1, 55, 70
3, 52320, Note_on_c, 1, 55, 0
3, 52320, Note_on_c, 1, 58, 70
3, 52380, Note_on_c, 1, 58, 0
3, 52380, Note_on_c, 1, 51, 69
3, 52440, Note_on_c, 1, 51, 0
3, 52440, Note_on_c, 1, 55, 69
3, 52500, Note_on_c, 1, 55, 0
3, 52500, Note_on_c, 1, 58, 69
3, 52560, Note_on_c, 1, 58, 0
3, 52560, Note_on_c, 1, 51, 68
3, 52620, Note_on_c, 1, 51, 0
3, 52620, Note_on_c, 1, 55, 68
3, 52680, Note_on_c, 1, 55, 0
3, 52680, Note_on_c, 1, 58, 68
3, 52740, Note_on_c, 1, 58, 0
3, 52740, Note_on_c, 1, 51, 68
3, 52800, Note_on_c, 1, 51, 0
3, 52800, Note_on_c, 1, 55, 68
3, 52860, Note_on_c, 1, 55, 0
3, 52860, Note_on_c, 1, 58, 68
3, 52920, Note_on_c, 1, 58, 0
3, 52920, Note_on_c, 1, 50, 67
3, 52980, Note_on_c, 1, 50, 0
3, 52980, Note_on_c, 1, 55, 67
3, 53040, Note_on_c, 1, 55, 0
3, 53040, Note_on_c, 1, 59, 67
3, 53100, Note_on_c, 1, 59, 0
3, 53100, Note_on_c, 1, 50, 67
3, 53160, Note_on_c, 1, 50, 0
3, 53160, Note_on_c, 1, 55, 67
3, 53220, Note_on_c, 1, 55, 0
3, 53220, Note_on_c, 1, 59, 67
3, 53280, Note_on_c, 1, 59, 0
3, 53280, Note_on_c, 1, 50, 67
3, 53340, Note_on_c, 1, 50, 0
3, 53340, Note_on_c, 1, 54, 67
3, 53400, Note_on_c, 1, 54, 0
3, 53400, Note_on_c, 1, 60, 67
3, 53460, Note_on_c, 1, 60, 0
3, 53460, Note_on_c, 1, 50, 66
3, 53520, Note_on_c, 1, 50, 0
3, 53520, Note_on_c, 1, 54, 66
3, 53580, Note_on_c, 1, 54, 0
3, 53580, Note_on_c, 1, 60, 66
3, 53640, Note_on_c, 1, 60, 0
3, 53640, Note_on_c, 1, 43, 68
3, 53640, Note_on_c, 1, 47, 68
3, 53640, Note_on_c, 1, 50, 68
3, 53640, Note_on_c, 1, 55, 68
3, 53760, Note_on_c, 1, 55, 0
3, 53760, Note_on_c, 1, 43, 0
3, 53760, Note_on_c, 1, 47, 0
3, 53760, Note_on_c, 1, 50, 0
3, 53820, Note_on_c, 1, 45, 71
3, 53820, Note_on_c, 1, 48, 71
3, 53820, Note_on_c, 1, 50, 71
3, 53820, Note_on_c, 1, 54, 71
3, 53940, Note_on_c, 1, 54, 0
3, 53940, Note_on_c, 1, 45, 0
3, 53940, Note_on_c, 1, 48, 0
3, 53940, Note_on_c, 1, 50, 0
3, 54000, Note_on_c, 1, 47, 71
3, 54000, Note_on_c, 1, 50, 71
3, 54000, Note_on_c, 1, 55, 71
3, 54120, Note_on_c, 1, 55, 0
3, 54120, Note_on_c, 1, 50, 0
3, 54120, Note_on_c, 1, 47, 0
3, 54360, Note_on_c, 1, 54, 73
3, 54360, Note_on_c, 1, 57, 73
3, 54360, Note_on_c, 1, 62, 73
3, 54480, Note_on_c, 1, 62, 0
3, 54480, Note_on_c, 1, 57, 0
3, 54480, Note_on_c, 1, 54, 0
3, 54540, Note_on_c, 1, 62, 75
3, 54540, Note_on_c, 1, 55, 75
3, 54540, Note_on_c, 1, 59, 75
3, 54660, Note_on_c, 1, 59, 0
3, 54660, Note_on_c, 1, 55, 0
3, 54660, Note_on_c, 1, 62, 0
3, 54720, Note_on_c, 1, 50, 75
3, 54720, Note_on_c, 1, 54, 75
3, 54720, Note_on_c, 1, 57, 75
3, 54720, Note_on_c, 1, 62, 75
3, 54840, Note_on_c, 1, 62, 0
3, 54840, Note_on_c, 1, 50, 0
3, 54840, Note_on_c, 1, 54, 0
3, 54840, Note_on_c, 1, 57, 0
3, 55080, Note_on_c, 1, 50, 76
3, 55080, Note_on_c, 1, 55, 76
3, 55080, Note_on_c, 1, 43, 76
3, 55080, Note_on_c, 1, 47, 76
3, 55200, Note_on_c, 1, 47, 0
3, 55200, Note_on_c, 1, 50, 0
3, 55200, Note_on_c, 1, 55, 0
3, 55200, Note_on_c, 1, 43, 0
3, 55260, Note_on_c, 1, 50, 76
3, 55260, Note_on_c, 1, 54, 76
3, 55260, Note_on_c, 1, 45, 76
3, 55260, Note_on_c, 1, 48, 76
3, 55380, Note_on_c, 1, 48, 0
3, 55380, Note_on_c, 1, 50, 0
3, 55380, Note_on_c, 1, 54, 0
3, 55380, Note_on_c, 1, 45, 0
3, 55440, Note_on_c, 1, 47, 76
3, 55440, Note_on_c, 1, 50, 76
3, 55440, Note_on_c, 1, 55, 76
3, 55560, Note_on_c, 1, 55, 0
3, 55560, Note_on_c, 1, 50, 0
3, 55560, Note_on_c, 1, 47, 0
3, 55620, Note_on_c, 1, 48, 76
3, 55620, Note_on_c, 1, 52, 76
3, 55740, Note_on_c, 1, 52, 0
3, 55740, Note_on_c, 1, 48, 0
3, 55800, Note_on_c, 1, 50, 75
3, 55920, Note_on_c, 1, 50, 0
3, 55980, Note_on_c, 1, 38, 75
3, 56100, Note_on_c, 1, 38, 0
3, 56160, Note_on_c, 1, 43, 76
3, 56220, Note_on_c, 1, 43, 0
3, 56220, Note_on_c, 1, 55, 76
3, 56280, Note_on_c, 1, 55, 0
3, 56280, Note_on_c, 1, 55, 76
3, 56340, Note_on_c, 1, 55, 0
3, 56340, Note_on_c, 1, 55, 76
3, 56460, Note_on_c, 1, 55, 0
3, 56520, Note_on_c, 1, 60, 76
3, 56580, Note_on_c, 1, 60, 0
3, 56580, Note_on_c, 1, 62, 76
3, 56640, Note_on_c, 1, 62, 0
3, 56640, Note_on_c, 1, 63, 76
3, 56700, Note_on_c, 1, 63, 0
3, 56700, Note_on_c, 1, 63, 76
3, 56760, Note_on_c, 1, 63, 0
3, 56760, Note_on_c, 1, 62, 75
3, 56820, Note_on_c, 1, 62, 0
3, 56820, Note_on_c, 1, 60, 75
3, 56880, Note_on_c, 1, 60, 0
3, 56880, Note_on_c, 1, 60, 74
3, 56940, Note_on_c, 1, 60, 0
3, 56940, Note_on_c, 1, 62, 74
3, 57000, Note_on_c, 1, 62, 0
3, 57000, Note_on_c, 1, 63, 73
3, 57060, Note_on_c, 1, 63, 0
3, 57060, Control_c, 1, 64, 127
3, 57060, Note_on_c, 1, 63, 72
3, 57180, Control_c, 1, 64, 0
3, 57240, Note_on_c, 1, 63, 0
3, 57960, Note_on_c, 1, 50, 74
3, 57960, Note_on_c, 1, 38, 74
3, 58020, Note_on_c, 1, 38, 0
3, 58020, Note_on_c, 1, 50, 0
3, 58020, Note_on_c, 1, 50, 74
3, 58020, Note_on_c, 1, 38, 74
3, 58080, Note_on_c, 1, 38, 0
3, 58080, Note_on_c, 1, 50, 0
3, 58080, Note_on_c, 1, 50, 74
3, 58080, Note_on_c, 1, 38, 74
3, 58140, Note_on_c, 1, 38, 0
3, 58140, Note_on_c, 1, 50, 0
3, 58140, Note_on_c, 1, 50, 75
3, 58140, Note_on_c, 1, 38, 75
3, 58200, Note_on_c, 1, 38, 0
3, 58200, Note_on_c, 1, 50, 0
3, 58200, Note_on_c, 1, 50, 75
3, 58200, Note_on_c, 1, 38, 75
3, 58260, Note_on_c, 1, 38, 0
3, 58260, Note_on_c, 1, 50, 0
3, 58260, Note_on_c, 1, 50, 76
3, 58260, Note_on_c, 1, 38, 76
3, 58320, Note_on_c, 1, 38, 0
3, 58320, Note_on_c, 1, 50, 0
3, 58320, Note_on_c, 1, 43, 76
3, 58320, Note_on_c, 1, 31, 76
3, 58380, Note_on_c, 1, 31, 0
3, 58380, Note_on_c, 1, 43, 0
3, 58380, Note_on_c, 1, 43, 76
3, 58380, Note_on_c, 1, 31, 76
3, 58440, Note_on_c, 1, 31, 0
3, 58440, Note_on_c, 1, 43, 0
3, 58440, Note_on_c, 1, 43, 76
3, 58440, Note_on_c, 1, 31, 76
3, 58500, Note_on_c, 1, 31, 0
3, 58500, Note_on_c, 1, 43, 0
3, 58500, Note_on_c, 1, 31, 76
3, 58500, Note_on_c, 1, 43, 76
3, 58560, Note_on_c, 1, 43, 0
3, 58560, Note_on_c, 1, 31, 0
3, 58560, Note_on_c, 1, 43, 76
3, 58560, Note_on_c, 1, 31, 76
3, 58620, Note_on_c, 1, 31, 0
3, 58620, Note_on_c, 1, 43, 0
3, 58620, Note_on_c, 1, 43, 76
3, 58620, Note_on_c, 1, 31, 76
3, 58680, Note_on_c, 1, 31, 0
3, 58680, Note_on_c, 1, 43, 0
3, 58680, Note_on_c, 1, 34, 76
3, 58680, Note_on_c, 1, 46, 76
3, 58740, Note_on_c, 1, 46, 0
3, 58740, Note_on_c, 1, 34, 0
3, 58740, Note_on_c, 1, 46, 76
3, 58740, Note_on_c, 1, 34, 76
3, 58800, Note_on_c, 1, 34, 0
3, 58800, Note_on_c, 1, 46, 0
3, 58800, Note_on_c, 1, 46, 76
3, 58800, Note_on_c, 1, 34, 76
3, 58860, Note_on_c, 1, 34, 0
3, 58860, Note_on_c, 1, 46, 0
3, 58860, Note_on_c, 1, 36, 76
3, 58860, Note_on_c, 1, 48, 76
3, 58920, Note_on_c, 1, 48, 0
3, 58920, Note_on_c, 1, 36, 0
3, 58920, Note_on_c, 1, 54, 76
3, 58920, Note_on_c, 1, 36, 76
3, 58950, Note_on_c, 1, 54, 0
3, 58950, Note_on_c, 1, 51, 76
3, 58980, Note_on_c, 1, 51, 0
3, 58980, Note_on_c, 1, 36, 0
3, 58980, Note_on_c, 1, 50, 76
3, 58980, Note_on_c, 1, 36, 76
3, 59010, Note_on_c, 1, 50, 0
3, 59010, Note_on_c, 1, 48, 76
3, 59040, Note_on_c, 1, 48, 0
3, 59040, Note_on_c, 1, 36, 0
3, 59040, Note_on_c, 1, 38, 76
3, 59040, Note_on_c, 1, 46, 76
3, 59070, Note_on_c, 1, 46, 0
3, 59070, Note_on_c, 1, 50, 76
3, 59100, Note_on_c, 1, 50, 0
3, 59100, Note_on_c, 1, 38, 0
3, 59100, Note_on_c, 1, 38, 76
3, 59100, Note_on_c, 1, 55, 76
3, 59130, Note_on_c, 1, 55, 0
3, 59130, Note_on_c, 1, 50, 76
3, 59160, Note_on_c, 1, 50, 0
3, 59160, Note_on_c, 1, 38, 0
3, 59160, Note_on_c, 1, 38, 76
3, 59160, Note_on_c, 1, 55, 76
3, 59190, Note_on_c, 1, 55, 0
3, 59190, Note_on_c, 1, 50, 76
3, 59220, Note_on_c, 1, 50, 0
3, 59220, Note_on_c, 1, 38, 0
3, 59220, Note_on_c, 1, 38, 76
3, 59220, Note_on_c, 1, 45, 76
3, 59250, Note_on_c, 1, 45, 0
3, 59250, Note_on_c, 1, 50, 76
3, 59280, Note_on_c, 1, 50, 0
3, 59280, Note_on_c, 1, 38, 0
3, 59280, Note_on_c, 1, 38, 76
3, 59280, Note_on_c, 1, 54, 76
3, 59310, Note_on_c, 1, 54, 0
3, 59310, Note_on_c, 1, 50, 76
3, 59340, Note_on_c, 1, 50, 0
3, 59340, Note_on_c, 1, 38, 0
3, 59340, Note_on_c, 1, 38, 76
3, 59340, Note_on_c, 1, 54, 76
3, 59370, Note_on_c, 1, 54, 0
3, 59370, Note_on_c, 1, 50, 76
3, 59400, Note_on_c, 1, 50, 0
3, 59400, Note_on_c, 1, 38, 0
3, 59400, Note_on_c, 1, 31, 76
3, 59400, Note_on_c, 1, 55, 76
3, 59460, Note_on_c, 1, 43, 75
3, 59520, Note_on_c, 1, 43, 0
3, 59520, Note_on_c, 1, 43, 75
3, 59580, Note_on_c, 1, 43, 0
3, 59580, Note_on_c, 1, 55, 0
3, 59580, Note_on_c, 1, 43, 75
3, 59640, Note_on_c, 1, 43, 0
3, 59640, Note_on_c, 1, 43, 74
3, 59700, Note_on_c, 1, 43, 0
3, 59700, Note_on_c, 1, 43, 74
3, 59760, Note_on_c, 1, 43, 0
3, 59760, Note_on_c, 1, 31, 0
3, 59760, Note_on_c, 1, 43, 74
3, 59820, Note_on_c, 1, 55, 74
3, 59880, Note_on_c, 1, 55, 0
3, 59880, Note_on_c, 1, 55, 74
3, 59940, Note_on_c, 1, 55, 0
3, 59940, Note_on_c, 1, 55, 74
3, 60000, Note_on_c, 1, 55, 0
3, 60000, Note_on_c, 1, 55, 75
3, 60060, Note_on_c, 1, 55, 0
3, 60060, Note_on_c, 1, 55, 76
3, 60120, Note_on_c, 1, 55, 0
3, 60120, Note_on_c, 1, 43, 0
3, 60120, Note_on_c, 1, 43, 76
3, 60180, Note_on_c, 1, 55, 76
3, 60240, Note_on_c, 1, 55, 0
3, 60240, Note_on_c, 1, 55, 76
3, 60300, Note_on_c, 1, 55, 0
3, 60300, Note_on_c, 1, 55, 76
3, 60360, Note_on_c, 1, 55, 0
3, 60360, Note_on_c, 1, 55, 76
3, 60420, Note_on_c, 1, 55, 0
3, 60420, Note_on_c, 1, 55, 76
3, 60480, Note_on_c, 1, 55, 0
3, 60480, Note_on_c, 1, 43, 0
3, 60480, Note_on_c, 1, 43, 76
3, 60540, Note_on_c, 1, 55, 76
3, 60600, Note_on_c, 1, 55, 0
3, 60600, Note_on_c, 1, 55, 76
3, 60660, Note_on_c, 1, 55, 0
3, 60660, Note_on_c, 1, 55, 76
3, 60720, Note_on_c, 1, 55, 0
3, 60720, Note_on_c, 1, 55, 76
3, 60780, Note_on_c, 1, 55, 0
3, 60780, Note_on_c, 1, 55, 76
3, 60840, Note_on_c, 1, 55, 0
3, 60840, Note_on_c, 1, 43, 0
3, 63360, Note_on_c, 1, 56, 68
3, 63420, Note_on_c, 1, 56, 0
3, 63420, Note_on_c, 1, 60, 68
3, 63450, Note_on_c, 1, 60, 0
3, 63450, Note_on_c, 1, 58, 68
3, 63480, Note_on_c, 1, 58, 0
3, 63480, Note_on_c, 1, 56, 68
3, 63510, Note_on_c, 1, 56, 0
3, 63510, Note_on_c, 1, 55, 68
3, 63540, Note_on_c, 1, 55, 0
3, 63540, Note_on_c, 1, 54, 68
3, 63660, Note_on_c, 1, 54, 0
3, 63720, Note_on_c, 1, 55, 69
3, 63780, Note_on_c, 1, 55, 0
3, 63780, Note_on_c, 1, 50, 69
3, 63810, Note_on_c, 1, 50, 0
3, 63810, Note_on_c, 1, 48, 69
3, 63840, Note_on_c, 1, 48, 0
3, 63840, Note_on_c, 1, 47, 69
3, 63870, Note_on_c, 1, 47, 0
3, 63870, Note_on_c, 1, 45, 69
3, 63900, Note_on_c, 1, 45, 0
3, 63900, Note_on_c, 1, 43, 69
3, 64020, Note_on_c, 1, 43, 0
3, 64080, Note_on_c, 1, 48, 70
3, 64140, Note_on_c, 1, 48, 0
3, 64140, Note_on_c, 1, 55, 70
3, 64170, Note_on_c, 1, 55, 0
3, 64170, Note_on_c, 1, 53, 71
3, 64200, Note_on_c, 1, 53, 0
3, 64200, Note_on_c, 1, 51, 71
3, 64230, Note_on_c, 1, 51, 0
3, 64230, Note_on_c, 1, 50, 71
3, 64260, Note_on_c, 1, 50, 0
3, 64260, Note_on_c, 1, 48, 71
3, 64380, Note_on_c, 1, 48, 0
3, 64440, Note_on_c, 1, 44, 72
3, 64500, Note_on_c, 1, 44, 0
3, 64500, Note_on_c, 1, 48, 72
3, 64530, Note_on_c, 1, 48, 0
3, 64530, Note_on_c, 1, 46, 72
3, 64560, Note_on_c, 1, 46, 0
3, 64560, Note_on_c, 1, 44, 72
3, 64590, Note_on_c, 1, 44, 0
3, 64590, Note_on_c, 1, 43, 72
3, 64620, Note_on_c, 1, 43, 0
3, 64620, Note_on_c, 1, 42, 73
3, 64740, Note_on_c, 1, 42, 0
3, 64800, Note_on_c, 1, 43, 73
3, 64830, Note_on_c, 1, 43, 0
3, 64830, Note_on_c, 1, 47, 74
3, 64860, Note_on_c, 1, 47, 0
3, 64860, Note_on_c, 1, 48, 74
3, 64890, Note_on_c, 1, 48, 0
3, 64890, Note_on_c, 1, 50, 74
3, 64920, Note_on_c, 1, 50, 0
3, 64920, Note_on_c, 1, 52, 74
3, 64950, Note_on_c, 1, 52, 0
3, 64950, Note_on_c, 1, 54, 74
3, 64980, Note_on_c, 1, 54, 0
3, 64980, Note_on_c, 1, 55, 74
3, 65100, Note_on_c, 1, 55, 0
3, 65160, Note_on_c, 1, 55, 75
3, 65190, Note_on_c, 1, 55, 0
3, 65190, Note_on_c, 1, 59, 75
3, 65220, Note_on_c, 1, 59, 0
3, 65220, Note_on_c, 1, 60, 75
3, 65250, Note_on_c, 1, 60, 0
3, 65250, Note_on_c, 1, 62, 75
3, 65280, Note_on_c, 1, 62, 0
3, 65280, Note_on_c, 1, 63, 75
3, 65310, Note_on_c, 1, 63, 0
3, 65310, Note_on_c, 1, 66, 75
3, 65340, Note_on_c, 1, 66, 0
3, 65340, Note_on_c, 1, 67, 75
3, 65460, Note_on_c, 1, 67, 0
3, 65520, Note_on_c, 1, 43, 75
3, 65550, Note_on_c, 1, 43, 0
3, 65550, Note_on_c, 1, 47, 75
3, 65580, Note_on_c, 1, 47, 0
3, 65580, Note_on_c, 1, 48, 75
3, 65610, Note_on_c, 1, 48, 0
3, 65610, Note_on_c, 1, 50, 75
3, 65640, Note_on_c, 1, 50, 0
3, 65640, Note_on_c, 1, 52, 75
3, 65670, Note_on_c, 1, 52, 0
3, 65670, Note_on_c, 1, 54, 75
3, 65700, Note_on_c, 1, 54, 0
3, 65700, Note_on_c, 1, 55, 75
3, 65820, Note_on_c, 1, 55, 0
3, 65880, Note_on_c, 1, 55, 75
3, 65910, Note_on_c, 1, 55, 0
3, 65910, Note_on_c, 1, 59, 75
3, 65940, Note_on_c, 1, 59, 0
3, 65940, Note_on_c, 1, 60, 75
3, 65970, Note_on_c, 1, 60, 0
3, 65970, Note_on_c, 1, 62, 75
3, 66000, Note_on_c, 1, 62, 0
3, 66000, Note_on_c, 1, 63, 75
3, 66030, Note_on_c, 1, 63, 0
3, 66030, Note_on_c, 1, 66, 75
3, 66060, Note_on_c, 1, 66, 0
3, 66060, Note_on_c, 1, 67, 75
3, 66180, Note_on_c, 1, 67, 0
3, 66240, Note_on_c, 1, 43, 75
3, 66270, Note_on_c, 1, 43, 0
3, 66270, Note_on_c, 1, 55, 75
3, 66300, Note_on_c, 1, 55, 0
3, 66300, Note_on_c, 1, 43, 75
3, 66330, Note_on_c, 1, 43, 0
3, 66330, Note_on_c, 1, 55, 75
3, 66360, Note_on_c, 1, 55, 0
3, 66360, Note_on_c, 1, 44, 75
3, 66390, Note_on_c, 1, 44, 0
3, 66390, Note_on_c, 1, 56, 75
3, 66420, Note_on_c, 1, 56, 0
3, 66420, Note_on_c, 1, 43, 75
3, 66450, Note_on_c, 1, 43, 0
3, 66450, Note_on_c, 1, 55, 75
3, 66480, Note_on_c, 1, 55, 0
3, 66480, Note_on_c, 1, 43, 75
3, 66510, Note_on_c, 1, 43, 0
3, 66510, Note_on_c, 1, 55, 75
3, 66540, Note_on_c, 1, 55, 0
3, 66540, Note_on_c, 1, 44, 75
3, 66570, Note_on_c, 1, 44, 0
3, 66570, Note_on_c, 1, 56, 75
3, 66600, Note_on_c, 1, 56, 0
3, 66600, Note_on_c, 1, 43, 75
3, 66630, Note_on_c, 1, 43, 0
3, 66630, Note_on_c, 1, 55, 75
3, 66660, Note_on_c, 1, 55, 0
3, 66660, Note_on_c, 1, 43, 74
3, 66690, Note_on_c, 1, 43, 0
3, 66690, Note_on_c, 1, 55, 74
3, 66720, Note_on_c, 1, 55, 0
3, 66720, Note_on_c, 1, 44, 74
3, 66750, Note_on_c, 1, 44, 0
3, 66750, Note_on_c, 1, 56, 74
3, 66780, Note_on_c, 1, 56, 0
3, 66780, Note_on_c, 1, 43, 74
3, 66810, Note_on_c, 1, 43, 0
3, 66810, Note_on_c, 1, 55, 74
3, 66840, Note_on_c, 1, 55, 0
3, 66840, Note_on_c, 1, 43, 74
3, 66870, Note_on_c, 1, 43, 0
3, 66870, Note_on_c, 1, 55, 74
3, 66900, Note_on_c, 1, 55, 0
3, 66900, Note_on_c, 1, 44, 74
3, 66930, Note_on_c, 1, 44, 0
3, 66930, Note_on_c, 1, 56, 74
3, 66960, Note_on_c, 1, 56, 0
3, 66960, Note_on_c, 1, 43, 74
3, 66960, Note_on_c, 1, 55, 74
3, 67080, Note_on_c, 1, 55, 0
3, 67080, Note_on_c, 1, 43, 0
3, 67320, Note_on_c, 1, 58, 74
3, 67320, Note_on_c, 1, 55, 74
3, 67320, Note_on_c, 1, 52, 74
3, 67320, Note_on_c, 1, 48, 74
3, 68040, Note_on_c, 1, 48, 0
3, 68040, Note_on_c, 1, 58, 0
3, 68040, Note_on_c, 1, 55, 0
3, 68040, Note_on_c, 1, 52, 0
3, 68040, Note_on_c, 1, 36, 74
3, 68040, Note_on_c, 1, 43, 74
3, 68040, Note_on_c, 1, 46, 74
3, 68040, Note_on_c, 1, 40, 74
3, 68040, Note_on_c, 1, 48, 74
3, 68760, Note_on_c, 1, 48, 0
3, 68760, Note_on_c, 1, 46, 0
3, 68760, Note_on_c, 1, 36, 0
3, 68760, Note_on_c, 1, 43, 0
3, 68760, Note_on_c, 1, 40, 0
3, 68760, Note_on_c, 1, 36, 73
3, 68760, Note_on_c, 1, 40, 73
3, 68760, Note_on_c, 1, 43, 73
3, 68760, Note_on_c, 1, 48, 73
3, 68760, Note_on_c, 1, 46, 73
3, 69000, Note_on_c, 1, 46, 0
3, 69000, Note_on_c, 1, 43, 0
3, 69000, Note_on_c, 1, 36, 0
3, 69000, Note_on_c, 1, 40, 0
3, 69000, Note_on_c, 1, 48, 0
3, 69120, Note_on_c, 1, 36, 73
3, 69120, Note_on_c, 1, 48, 73
3, 69120, Note_on_c, 1, 52, 73
3, 69180, Note_on_c, 1, 52, 0
3, 69180, Note_on_c, 1, 58, 73
3, 69240, Note_on_c, 1, 58, 0
3, 69240, Note_on_c, 1, 48, 0
3, 69240, Note_on_c, 1, 36, 0
3, 69240, Note_on_c, 1, 55, 73
3, 69300, Note_on_c, 1, 55, 0
3, 69300, Note_on_c, 1, 36, 76
3, 69300, Note_on_c, 1, 48, 76
3, 69300, Note_on_c, 1, 52, 76
3, 69360, Note_on_c, 1, 52, 0
3, 69360, Note_on_c, 1, 58, 76
3, 69420, Note_on_c, 1, 58, 0
3, 69420, Note_on_c, 1, 48, 0
3, 69420, Note_on_c, 1, 36, 0
3, 69420, Note_on_c, 1, 55, 76
3, 69480, Note_on_c, 1, 55, 0
3, 69480, Note_on_c, 1, 36, 76
3, 69480, Note_on_c, 1, 48, 76
3, 69480, Note_on_c, 1, 52, 76
3, 69540, Note_on_c, 1, 52, 0
3, 69540, Note_on_c, 1, 58, 76
3, 69600, Note_on_c, 1, 58, 0
3, 69600, Note_on_c, 1, 48, 0
3, 69600, Note_on_c, 1, 36, 0
3, 69600, Note_on_c, 1, 55, 76
3, 69660, Note_on_c, 1, 55, 0
3, 69660, Note_on_c, 1, 36, 75
3, 69660, Note_on_c, 1, 48, 75
3, 69660, Note_on_c, 1, 52, 75
3, 69720, Note_on_c, 1, 52, 0
3, 69720, Note_on_c, 1, 58, 75
3, 69780, Note_on_c, 1, 58, 0
3, 69780, Note_on_c, 1, 48, 0
3, 69780, Note_on_c, 1, 36, 0
3, 69780, Note_on_c, 1, 55, 74
3, 69840, Note_on_c, 1, 55, 0
3, 69840, Note_on_c, 1, 36, 74
3, 69840, Note_on_c, 1, 48, 74
3, 69840, Note_on_c, 1, 52, 74
3, 70020, Note_on_c, 1, 52, 0
3, 70020, Note_on_c, 1, 48, 0
3, 70020, Note_on_c, 1, 36, 0
3, 70140, Note_on_c, 1, 53, 74
3, 70200, Note_on_c, 1, 53, 0
3, 70200, Note_on_c, 1, 41, 74
3, 70200, Note_on_c, 1, 53, 74
3, 70260, Note_on_c, 1, 53, 0
3, 70260, Note_on_c, 1, 41, 0
3, 70260, Note_on_c, 1, 36, 74
3, 70260, Note_on_c, 1, 48, 74
3, 70320, Note_on_c, 1, 48, 0
3, 70320, Note_on_c, 1, 36, 0
3, 70320, Note_on_c, 1, 45, 74
3, 70320, Note_on_c, 1, 57, 74
3, 70380, Note_on_c, 1, 57, 0
3, 70380, Note_on_c, 1, 45, 0
3, 70380, Note_on_c, 1, 45, 74
3, 70380, Note_on_c, 1, 57, 74
3, 70440, Note_on_c, 1, 57, 0
3, 70440, Note_on_c, 1, 45, 0
3, 70440, Note_on_c, 1, 41, 74
3, 70440, Note_on_c, 1, 53, 74
3, 70500, Note_on_c, 1, 53, 0
3, 70500, Note_on_c, 1, 41, 0
3, 70500, Note_on_c, 1, 48, 74
3, 70500, Note_on_c, 1, 60, 74
3, 70560, Note_on_c, 1, 60, 0
3, 70560, Note_on_c, 1, 48, 0
3, 70560, Note_on_c, 1, 48, 74
3, 70560, Note_on_c, 1, 60, 74
3, 70620, Note_on_c, 1, 60, 0
3, 70620, Note_on_c, 1, 48, 0
3, 70620, Note_on_c, 1, 45, 74
3, 70620, Note_on_c, 1, 57, 74
3, 70680, Note_on_c, 1, 57, 0
3, 70680, Note_on_c, 1, 45, 0
3, 70680, Note_on_c, 1, 53, 74
3, 70740, Note_on_c, 1, 53, 0
3, 70740, Note_on_c, 1, 53, 74
3, 70800, Note_on_c, 1, 53, 0
3, 70800, Note_on_c, 1, 48, 74
3, 70860, Note_on_c, 1, 48, 0
3, 70860, Note_on_c, 1, 57, 74
3, 70920, Note_on_c, 1, 57, 0
3, 70920, Note_on_c, 1, 57, 74
3, 70980, Note_on_c, 1, 57, 0
3, 70980, Note_on_c, 1, 53, 74
3, 71040, Note_on_c, 1, 53, 0
3, 71040, Note_on_c, 1, 60, 74
3, 71100, Note_on_c, 1, 60, 0
3, 71220, Note_on_c, 1, 52, 74
3, 71220, Note_on_c, 1, 60, 74
3, 71280, Note_on_c, 1, 60, 0
3, 71280, Note_on_c, 1, 52, 0
3, 71280, Note_on_c, 1, 53, 74
3, 71280, Note_on_c, 1, 60, 74
3, 71400, Note_on_c, 1, 60, 0
3, 71400, Note_on_c, 1, 53, 0
3, 71580, Note_on_c, 1, 52, 74
3, 71580, Note_on_c, 1, 60, 74
3, 71640, Note_on_c, 1, 60, 0
3, 71640, Note_on_c, 1, 52, 0
3, 71640, Note_on_c, 1, 60, 74
3, 71640, Note_on_c, 1, 53, 74
3, 71760, Note_on_c, 1, 53, 0
3, 71760, Note_on_c, 1, 60, 0
3, 71940, Note_on_c, 1, 52, 73
3, 71940, Note_on_c, 1, 60, 73
3, 72000, Note_on_c, 1, 60, 0
3, 72000, Note_on_c, 1, 52, 0
3, 72000, Note_on_c, 1, 53, 73
3, 72000, Note_on_c, 1, 60, 73
3, 72120, Note_on_c, 1, 60, 0
3, 72120, Note_on_c, 1, 53, 0
3, 72300, Note_on_c, 1, 54, 73
3, 72300, Note_on_c, 1, 62, 73
3, 72360, Note_on_c, 1, 62, 0
3, 72360, Note_on_c, 1, 54, 0
3, 72360, Note_on_c, 1, 55, 74
3, 72360, Note_on_c, 1, 62, 74
3, 72480, Note_on_c, 1, 62, 0
3, 72480, Note_on_c, 1, 55, 0
3, 72660, Note_on_c, 1, 54, 75
3, 72660, Note_on_c, 1, 62, 75
3, 72720, Note_on_c, 1, 62, 0
3, 72720, Note_on_c, 1, 54, 0
3, 72720, Note_on_c, 1, 62, 75
3, 72720, Note_on_c, 1, 55, 75
3, 72840, Note_on_c, 1, 55, 0
3, 72840, Note_on_c, 1, 62, 0
3, 73020, Note_on_c, 1, 57, 75
3, 73020, Note_on_c, 1, 65, 75
3, 73080, Note_on_c, 1, 65, 0
3, 73080, Note_on_c, 1, 57, 0
3, 73080, Note_on_c, 1, 65, 75
3, 73080, Note_on_c, 1, 58, 75
3, 73200, Note_on_c, 1, 58, 0
3, 73200, Note_on_c, 1, 65, 0
3, 73380, Note_on_c, 1, 57, 77
3, 73380, Note_on_c, 1, 65, 77
3, 73440, Note_on_c, 1, 65, 0
3, 73440, Note_on_c, 1, 57, 0
3, 73440, Note_on_c, 1, 65, 77
3, 73440, Note_on_c, 1, 58, 77
3, 73560, Note_on_c, 1, 58, 0
3, 73560, Note_on_c, 1, 65, 0
3, 73620, Note_on_c, 1, 63, 78
3, 73740, Note_on_c, 1, 63, 0
3, 73740, Note_on_c, 1, 64, 78
3, 73800, Note_on_c, 1, 64, 0
3, 73800, Note_on_c, 1, 65, 78
3, 73830, Note_on_c, 1, 65, 0
3, 73830, Note_on_c, 1, 64, 78
3, 73860, Note_on_c, 1, 64, 0
3, 73860, Note_on_c, 1, 65, 78
3, 73890, Note_on_c, 1, 65, 0
3, 73890, Note_on_c, 1, 64, 78
3, 73920, Note_on_c, 1, 64, 0
3, 73920, Note_on_c, 1, 65, 78
3, 73950, Note_on_c, 1, 65, 0
3, 73950, Note_on_c, 1, 64, 78
3, 73980, Note_on_c, 1, 64, 0
3, 73980, Note_on_c, 1, 65, 78
3, 74100, Note_on_c, 1, 65, 0
3, 74160, Note_on_c, 1, 46, 78
3, 74220, Note_on_c, 1, 46, 0
3, 74220, Note_on_c, 1, 41, 78
3, 74280, Note_on_c, 1, 41, 0
3, 74280, Note_on_c, 1, 41, 78
3, 74340, Note_on_c, 1, 41, 0
3, 74340, Note_on_c, 1, 50, 78
3, 74400, Note_on_c, 1, 50, 0
3, 74400, Note_on_c, 1, 46, 78
3, 74460, Note_on_c, 1, 46, 0
3, 74460, Note_on_c, 1, 46, 78
3, 74520, Note_on_c, 1, 46, 0
3, 74520, Note_on_c, 1, 53, 78
3, 74580, Note_on_c, 1, 53, 0
3, 74580, Note_on_c, 1, 50, 77
3, 74640, Note_on_c, 1, 50, 0
3, 74640, Note_on_c, 1, 50, 77
3, 74700, Note_on_c, 1, 50, 0
3, 74700, Note_on_c, 1, 58, 77
3, 74760, Note_on_c, 1, 58, 0
3, 74760, Note_on_c, 1, 53, 77
3, 74820, Note_on_c, 1, 53, 0
3, 74820, Note_on_c, 1, 53, 77
3, 74880, Note_on_c, 1, 53, 0
3, 74880, Note_on_c, 1, 58, 77
3, 74880, Note_on_c, 1, 53, 77
3, 74880, Note_on_c, 1, 50, 77
3, 74940, Note_on_c, 1, 50, 0
3, 74940, Note_on_c, 1, 53, 0
3, 74940, Note_on_c, 1, 58, 0
3, 74940, Note_on_c, 1, 53, 77
3, 74940, Note_on_c, 1, 58, 77
3, 74940, Note_on_c, 1, 50, 77
3, 75000, Note_on_c, 1, 50, 0
3, 75000, Note_on_c, 1, 58, 0
3, 75000, Note_on_c, 1, 53, 0
3, 75000, Note_on_c, 1, 50, 77
3, 75000, Note_on_c, 1, 53, 77
3, 75000, Note_on_c, 1, 58, 77
3, 75060, Note_on_c, 1, 58, 0
3, 75060, Note_on_c, 1, 53, 0
3, 75060, Note_on_c, 1, 50, 0
3, 75060, Note_on_c, 1, 53, 77
3, 75060, Note_on_c, 1, 50, 77
3, 75060, Note_on_c, 1, 58, 77
3, 75120, Note_on_c, 1, 58, 0
3, 75120, Note_on_c, 1, 50, 0
3, 75120, Note_on_c, 1, 53, 0
3, 75120, Note_on_c, 1, 58, 77
3, 75120, Note_on_c, 1, 53, 77
3, 75120, Note_on_c, 1, 50, 77
3, 75180, Note_on_c, 1, 50, 0
3, 75180, Note_on_c, 1, 53, 0
3, 75180, Note_on_c, 1, 58, 0
3, 75180, Note_on_c, 1, 58, 76
3, 75180, Note_on_c, 1, 53, 76
3, 75180, Note_on_c, 1, 50, 76
3, 75240, Note_on_c, 1, 50, 0
3, 75240, Note_on_c, 1, 53, 0
3, 75240, Note_on_c, 1, 58, 0
3, 75240, Note_on_c, 1, 55, 76
3, 75240, Note_on_c, 1, 51, 76
3, 75300, Note_on_c, 1, 51, 0
3, 75300, Note_on_c, 1, 55, 0
3, 75300, Note_on_c, 1, 51, 76
3, 75300, Note_on_c, 1, 55, 76
3, 75360, Note_on_c, 1, 55, 0
3, 75360, Note_on_c, 1, 51, 0
3, 75360, Note_on_c, 1, 51, 76
3, 75360, Note_on_c, 1, 55, 76
3, 75420, Note_on_c, 1, 55, 0
3, 75420, Note_on_c, 1, 51, 0
3, 75420, Note_on_c, 1, 53, 75
3, 75480, Note_on_c, 1, 53, 0
3, 75480, Note_on_c, 1, 53, 75
3, 75540, Note_on_c, 1, 53, 0
3, 75540, Note_on_c, 1, 53, 75
3, 75600, Note_on_c, 1, 53, 0
3, 75600, Note_on_c, 1, 46, 75
3, 75660, Note_on_c, 1, 46, 0
3, 75660, Note_on_c, 1, 41, 75
3, 75720, Note_on_c, 1, 41, 0
3, 75720, Note_on_c, 1, 41, 75
3, 75780, Note_on_c, 1, 41, 0
3, 75780, Note_on_c, 1, 50, 75
3, 75840, Note_on_c, 1, 50, 0
3, 75840, Note_on_c, 1, 46, 75
3, 75900, Note_on_c, 1, 46, 0
3, 75900, Note_on_c, 1, 46, 75
3, 75960, Note_on_c, 1, 46, 0
3, 75960, Note_on_c, 1, 53, 75
3, 76020, Note_on_c, 1, 53, 0
3, 76020, Note_on_c, 1, 50, 76
3, 76080, Note_on_c, 1, 50, 0
3, 76080, Note_on_c, 1, 50, 76
3, 76140, Note_on_c, 1, 50, 0
3, 76140, Note_on_c, 1, 58, 76
3, 76200, Note_on_c, 1, 58, 0
3, 76200, Note_on_c, 1, 53, 76
3, 76260, Note_on_c, 1, 53, 0
3, 76260, Note_on_c, 1, 53, 76
3, 76320, Note_on_c, 1, 53, 0
3, 76320, Note_on_c, 1, 58, 76
3, 76320, Note_on_c, 1, 53, 76
3, 76320, Note_on_c, 1, 50, 76
3, 76380, Note_on_c, 1, 50, 0
3, 76380, Note_on_c, 1, 53, 0
3, 76380, Note_on_c, 1, 58, 0
3, 76380, Note_on_c, 1, 58, 76
3, 76380, Note_on_c, 1, 50, 76
3, 76380, Note_on_c, 1, 53, 76
3, 76440, Note_on_c, 1, 53, 0
3, 76440, Note_on_c, 1, 50, 0
3, 76440, Note_on_c, 1, 58, 0
3, 76440, Note_on_c, 1, 50, 77
3, 76440, Note_on_c, 1, 58, 77
3, 76440, Note_on_c, 1, 53, 77
3, 76500, Note_on_c, 1, 53, 0
3, 76500, Note_on_c, 1, 58, 0
3, 76500, Note_on_c, 1, 50, 0
3, 76500, Note_on_c, 1, 53, 77
3, 76500, Note_on_c, 1, 50, 77
3, 76500, Note_on_c, 1, 58, 77
3, 76560, Note_on_c, 1, 58, 0
3, 76560, Note_on_c, 1, 50, 0
3, 76560, Note_on_c, 1, 53, 0
3, 76560, Note_on_c, 1, 58, 77
3, 76560, Note_on_c, 1, 53, 77
3, 76560, Note_on_c, 1, 50, 77
3, 76620, Note_on_c, 1, 50, 0
3, 76620, Note_on_c, 1, 53, 0
3, 76620, Note_on_c, 1, 58, 0
3, 76620, Note_on_c, 1, 58, 77
3, 76620, Note_on_c, 1, 53, 77
3, 76620, Note_on_c, 1, 50, 77
3, 76680, Note_on_c, 1, 50, 0
3, 76680, Note_on_c, 1, 53, 0
3, 76680, Note_on_c, 1, 58, 0
3, 76680, Note_on_c, 1, 51, 77
3, 76680, Note_on_c, 1, 39, 77
3, 76680, Note_on_c, 1, 62, 77
3, 76710, Note_on_c, 1, 62, 0
3, 76710, Note_on_c, 1, 60, 77
3, 76740, Note_on_c, 1, 60, 0
3, 76740, Note_on_c, 1, 39, 0
3, 76740, Note_on_c, 1, 51, 0
3, 76740, Note_on_c, 1, 51, 77
3, 76740, Note_on_c, 1, 39, 77
3, 76740, Note_on_c, 1, 58, 77
3, 76770, Note_on_c, 1, 58, 0
3, 76770, Note_on_c, 1, 57, 77
3, 76800, Note_on_c, 1, 57, 0
3, 76800, Note_on_c, 1, 39, 0
3, 76800, Note_on_c, 1, 51, 0
3, 76800, Note_on_c, 1, 51, 77
3, 76800, Note_on_c, 1, 39, 77
3, 76800, Note_on_c, 1, 55, 77
3, 76830, Note_on_c, 1, 55, 0
3, 76830, Note_on_c, 1, 53, 77
3, 76860, Note_on_c, 1, 53, 0
3, 76860, Note_on_c, 1, 39, 0
3, 76860, Note_on_c, 1, 51, 0
3, 76860, Note_on_c, 1, 41, 77
3, 76860, Note_on_c, 1, 51, 77
3, 76890, Note_on_c, 1, 51, 0
3, 76890, Note_on_c, 1, 50, 77
3, 76920, Note_on_c, 1, 50, 0
3, 76920, Note_on_c, 1, 41, 0
3, 76920, Note_on_c, 1, 41, 77
3, 76920, Note_on_c, 1, 48, 77
3, 76950, Note_on_c, 1, 48, 0
3, 76950, Note_on_c, 1, 46, 77
3, 76980, Note_on_c, 1, 46, 0
3, 76980, Note_on_c, 1, 41, 0
3, 76980, Note_on_c, 1, 41, 77
3, 76980, Note_on_c, 1, 45, 77
3, 77010, Note_on_c, 1, 45, 0
3, 77010, Note_on_c, 1, 48, 77
3, 77040, Note_on_c, 1, 48, 0
3, 77040, Note_on_c, 1, 41, 0
3, 77040, Note_on_c, 1, 46, 77
3, 77040, Note_on_c, 1, 34, 77
3, 77100, Note_on_c, 1, 46, 0
3, 77100, Note_on_c, 1, 50, 77
3, 77160, Note_on_c, 1, 50, 0
3, 77160, Note_on_c, 1, 34, 0
3, 77160, Note_on_c, 1, 53, 77
3, 77220, Note_on_c, 1, 53, 0
3, 77220, Note_on_c, 1, 58, 76
3, 77280, Note_on_c, 1, 58, 0
3, 77400, Note_on_c, 1, 53, 75
3, 77430, Note_on_c, 1, 53, 0
3, 77430, Note_on_c, 1, 55, 74
3, 77460, Note_on_c, 1, 55, 0
3, 77460, Note_on_c, 1, 53, 74
3, 77490, Note_on_c, 1, 53, 0
3, 77490, Note_on_c, 1, 51, 74
3, 77520, Note_on_c, 1, 51, 0
3, 77520, Note_on_c, 1, 50, 74
3, 77550, Note_on_c, 1, 50, 0
3, 77550, Note_on_c, 1, 48, 74
3, 77580, Note_on_c, 1, 48, 0
3, 77580, Note_on_c, 1, 46, 74
3, 77610, Note_on_c, 1, 46, 0
3, 77610, Note_on_c, 1, 45, 74
3, 77640, Note_on_c, 1, 45, 0
3, 77640, Note_on_c, 1, 46, 74
3, 77670, Note_on_c, 1, 46, 0
3, 77670, Note_on_c, 1, 48, 74
3, 77700, Note_on_c, 1, 48, 0
3, 77700, Note_on_c, 1, 50, 74
3, 77730, Note_on_c, 1, 50, 0
3, 77730, Note_on_c, 1, 51, 74
3, 77760, Note_on_c, 1, 51, 0
3, 77760, Note_on_c, 1, 53, 74
3, 77790, Note_on_c, 1, 53, 0
3, 77790, Note_on_c, 1, 55, 74
3, 77820, Note_on_c, 1, 55, 0
3, 77820, Note_on_c, 1, 53, 74
3, 77850, Note_on_c, 1, 53, 0
3, 77850, Note_on_c, 1, 51, 74
3, 77880, Note_on_c, 1, 51, 0
3, 77880, Note_on_c, 1, 50, 74
3, 77910, Note_on_c, 1, 50, 0
3, 77910, Note_on_c, 1, 48, 74
3, 77940, Note_on_c, 1, 48, 0
3, 77940, Note_on_c, 1, 46, 74
3, 77970, Note_on_c, 1, 46, 0
3, 77970, Note_on_c, 1, 45, 74
3, 78000, Note_on_c, 1, 45, 0
3, 78000, Note_on_c, 1, 46, 74
3, 78030, Note_on_c, 1, 46, 0
3, 78030, Note_on_c, 1, 48, 74
3, 78060, Note_on_c, 1, 48, 0
3, 78060, Note_on_c, 1, 50, 74
3, 78090, Note_on_c, 1, 50, 0
3, 78090, Note_on_c, 1, 51, 74
3, 78120, Note_on_c, 1, 51, 0
3, 78120, Note_on_c, 1, 53, 75
3, 78150, Note_on_c, 1, 53, 0
3, 78150, Note_on_c, 1, 55, 75
3, 78180, Note_on_c, 1, 55, 0
3, 78180, Note_on_c, 1, 53, 75
3, 78210, Note_on_c, 1, 53, 0
3, 78210, Note_on_c, 1, 51, 75
3, 78240, Note_on_c, 1, 51, 0
3, 78240, Note_on_c, 1, 50, 75
3, 78270, Note_on_c, 1, 50, 0
3, 78270, Note_on_c, 1, 48, 75
3, 78300, Note_on_c, 1, 48, 0
3, 78300, Note_on_c, 1, 46, 75
3, 78330, Note_on_c, 1, 46, 0
3, 78330, Note_on_c, 1, 45, 75
3, 78360, Note_on_c, 1, 45, 0
3, 78360, Note_on_c, 1, 46, 75
3, 78390, Note_on_c, 1, 46, 0
3, 78390, Note_on_c, 1, 48, 75
3, 78420, Note_on_c, 1, 48, 0
3, 78420, Note_on_c, 1, 50, 75
3, 78450, Note_on_c, 1, 50, 0
3, 78450, Note_on_c, 1, 51, 75
3, 78480, Note_on_c, 1, 51, 0
3, 78480, Note_on_c, 1, 53, 75
3, 78510, Note_on_c, 1, 53, 0
3, 78510, Note_on_c, 1, 55, 75
3, 78540, Note_on_c, 1, 55, 0
3, 78540, Note_on_c, 1, 56, 75
3, 78570, Note_on_c, 1, 56, 0
3, 78570, Note_on_c, 1, 55, 75
3, 78600, Note_on_c, 1, 55, 0
3, 78600, Note_on_c, 1, 53, 75
3, 78630, Note_on_c, 1, 53, 0
3, 78630, Note_on_c, 1, 51, 75
3, 78660, Note_on_c, 1, 51, 0
3, 78660, Note_on_c, 1, 50, 75
3, 78690, Note_on_c, 1, 50, 0
3, 78690, Note_on_c, 1, 48, 75
3, 78720, Note_on_c, 1, 48, 0
3, 78720, Note_on_c, 1, 46, 75
3, 78750, Note_on_c, 1, 46, 0
3, 78750, Note_on_c, 1, 44, 75
3, 78780, Note_on_c, 1, 44, 0
3, 78780, Note_on_c, 1, 43, 75
3, 78810, Note_on_c, 1, 43, 0
3, 78810, Note_on_c, 1, 41, 75
3, 78840, Note_on_c, 1, 41, 0
3, 78840, Note_on_c, 1, 55, 75
3, 78840, Note_on_c, 1, 39, 75
3, 78900, Note_on_c, 1, 39, 0
3, 78900, Note_on_c, 1, 55, 0
3, 78900, Note_on_c, 1, 51, 75
3, 78900, Note_on_c, 1, 55, 75
3, 78960, Note_on_c, 1, 55, 0
3, 78960, Note_on_c, 1, 51, 0
3, 78960, Note_on_c, 1, 51, 75
3, 78960, Note_on_c, 1, 55, 75
3, 79020, Note_on_c, 1, 55, 0
3, 79020, Note_on_c, 1, 51, 0
3, 79020, Note_on_c, 1, 39, 76
3, 79080, Note_on_c, 1, 39, 0
3, 79080, Note_on_c, 1, 51, 76
3, 79080, Note_on_c, 1, 55, 76
3, 79140, Note_on_c, 1, 55, 0
3, 79140, Note_on_c, 1, 51, 0
3, 79140, Note_on_c, 1, 55, 76
3, 79140, Note_on_c, 1, 51, 76
3, 79200, Note_on_c, 1, 51, 0
3, 79200, Note_on_c, 1, 55, 0
3, 79200, Note_on_c, 1, 39, 76
3, 79260, Note_on_c, 1, 39, 0
3, 79260, Note_on_c, 1, 51, 76
3, 79260, Note_on_c, 1, 55, 76
3, 79320, Note_on_c, 1, 55, 0
3, 79320, Note_on_c, 1, 51, 0
3, 79320, Note_on_c, 1, 55, 76
3, 79320, Note_on_c, 1, 51, 76
3, 79380, Note_on_c, 1, 51, 0
3, 79380, Note_on_c, 1, 55, 0
3, 79380, Note_on_c, 1, 39, 76
3, 79440, Note_on_c, 1, 39, 0
3, 79440, Note_on_c, 1, 55, 76
3, 79440, Note_on_c, 1, 51, 76
3, 79500, Note_on_c, 1, 51, 0
3, 79500, Note_on_c, 1, 55, 0
3, 79500, Note_on_c, 1, 55, 76
3, 79500, Note_on_c, 1, 51, 76
3, 79560, Note_on_c, 1, 51, 0
3, 79560, Note_on_c, 1, 55, 0
3, 79560, Note_on_c, 1, 41, 76
3, 79620, Note_on_c, 1, 41, 0
3, 79620, Note_on_c, 1, 62, 76
3, 79620, Note_on_c, 1, 53, 76
3, 79620, Note_on_c, 1, 58, 76
3, 79680, Note_on_c, 1, 58, 0
3, 79680, Note_on_c, 1, 53, 0
3, 79680, Note_on_c, 1, 62, 0
3, 79680, Note_on_c, 1, 62, 76
3, 79680, Note_on_c, 1, 53, 76
3, 79680, Note_on_c, 1, 58, 76
3, 79740, Note_on_c, 1, 58, 0
3, 79740, Note_on_c, 1, 53, 0
3, 79740, Note_on_c, 1, 62, 0
3, 79740, Note_on_c, 1, 42, 76
3, 79800, Note_on_c, 1, 42, 0
3, 79800, Note_on_c, 1, 61, 76
3, 79800, Note_on_c, 1, 54, 76
3, 79800, Note_on_c, 1, 58, 76
3, 79860, Note_on_c, 1, 58, 0
3, 79860, Note_on_c, 1, 54, 0
3, 79860, Note_on_c, 1, 61, 0
3, 79860, Note_on_c, 1, 61, 75
3, 79860, Note_on_c, 1, 58, 75
3, 79860, Note_on_c, 1, 54, 75
3, 79920, Note_on_c, 1, 54, 0
3, 79920, Note_on_c, 1, 58, 0
3, 79920, Note_on_c, 1, 61, 0
3, 79920, Note_on_c, 1, 41, 75
3, 79980, Note_on_c, 1, 41, 0
3, 79980, Note_on_c, 1, 62, 75
3, 79980, Note_on_c, 1, 53, 75
3, 79980, Note_on_c, 1, 58, 75
3, 80040, Note_on_c, 1, 58, 0
3, 80040, Note_on_c, 1, 53, 0
3, 80040, Note_on_c, 1, 62, 0
3, 80040, Note_on_c, 1, 62, 75
3, 80040, Note_on_c, 1, 53, 75
3, 80040, Note_on_c, 1, 58, 75
3, 80100, Note_on_c, 1, 58, 0
3, 80100, Note_on_c, 1, 53, 0
3, 80100, Note_on_c, 1, 62, 0
3, 80100, Note_on_c, 1, 42, 75
3, 80160, Note_on_c, 1, 42, 0
3, 80160, Note_on_c, 1, 61, 75
3, 80160, Note_on_c, 1, 58, 75
3, 80160, Note_on_c, 1, 54, 75
3, 80220, Note_on_c, 1, 54, 0
3, 80220, Note_on_c, 1, 58, 0
3, 80220, Note_on_c, 1, 61, 0
3, 80220, Note_on_c, 1, 61, 75
3, 80220, Note_on_c, 1, 54, 75
3, 80220, Note_on_c, 1, 58, 75
3, 80280, Note_on_c, 1, 58, 0
3, 80280, Note_on_c, 1, 54, 0
3, 80280, Note_on_c, 1, 61, 0
3, 80280, Note_on_c, 1, 41, 75
3, 80340, Note_on_c, 1, 41, 0
3, 80340, Note_on_c, 1, 53, 75
3, 80340, Note_on_c, 1, 62, 75
3, 80340, Note_on_c, 1, 58, 75
3, 80400, Note_on_c, 1, 58, 0
3, 80400, Note_on_c, 1, 62, 0
3, 80400, Note_on_c, 1, 53, 0
3, 80400, Note_on_c, 1, 53, 75
3, 80400, Note_on_c, 1, 62, 75
3, 80400, Note_on_c, 1, 58, 75
3, 80460, Note_on_c, 1, 58, 0
3, 80460, Note_on_c, 1, 62, 0
3, 80460, Note_on_c, 1, 53, 0
3, 80460, Note_on_c, 1, 41, 75
3, 80520, Note_on_c, 1, 41, 0
3, 80520, Note_on_c, 1, 62, 73
3, 80520, Note_on_c, 1, 58, 73
3, 80520, Note_on_c, 1, 53, 73
3, 80580, Note_on_c, 1, 53, 0
3, 80580, Note_on_c, 1, 58, 0
3, 80580, Note_on_c, 1, 62, 0
3, 80580, Note_on_c, 1, 62, 72
3, 80580, Note_on_c, 1, 58, 72
3, 80580, Note_on_c, 1, 53, 72
3, 80640, Note_on_c, 1, 53, 0
3, 80640, Note_on_c, 1, 58, 0
3, 80640, Note_on_c, 1, 62, 0
3, 80640, Note_on_c, 1, 53, 72
3, 80700, Note_on_c, 1, 53, 0
3, 80700, Note_on_c, 1, 65, 72
3, 80700, Note_on_c, 1, 62, 72
3, 80700, Note_on_c, 1, 58, 72
3, 80760, Note_on_c, 1, 58, 0
3, 80760, Note_on_c, 1, 62, 0
3, 80760, Note_on_c, 1, 65, 0
3, 80760, Note_on_c, 1, 65, 72
3, 80760, Note_on_c, 1, 62, 72
3, 80760, Note_on_c, 1, 58, 72
3, 80820, Note_on_c, 1, 58, 0
3, 80820, Note_on_c, 1, 62, 0
3, 80820, Note_on_c, 1, 65, 0
3, 80820, Note_on_c, 1, 53, 72
3, 80880, Note_on_c, 1, 53, 0
3, 80880, Note_on_c, 1, 65, 72
3, 80880, Note_on_c, 1, 62, 72
3, 80880, Note_on_c, 1, 58, 72
3, 80940, Note_on_c, 1, 58, 0
3, 80940, Note_on_c, 1, 62, 0
3, 80940, Note_on_c, 1, 65, 0
3, 80940, Note_on_c, 1, 65, 72
3, 80940, Note_on_c, 1, 62, 72
3, 80940, Note_on_c, 1, 58, 72
3, 81000, Note_on_c, 1, 58, 0
3, 81000, Note_on_c, 1, 62, 0
3, 81000, Note_on_c, 1, 65, 0
3, 81000, Note_on_c, 1, 65, 72
3, 81000, Note_on_c, 1, 62, 72
3, 81000, Note_on_c, 1, 58, 72
3, 81000, Note_on_c, 1, 53, 72
3, 81360, Note_on_c, 1, 53, 0
3, 81360, Note_on_c, 1, 65, 0
3, 81360, Note_on_c, 1, 62, 0
3, 81360, Note_on_c, 1, 58, 0
3, 81360, Note_on_c, 1, 65, 73
3, 81360, Note_on_c, 1, 62, 73
3, 81360, Note_on_c, 1, 60, 73
3, 81360, Note_on_c, 1, 57, 73
3, 81360, Note_on_c, 1, 53, 73
3, 81720, Note_on_c, 1, 53, 0
3, 81720, Note_on_c, 1, 60, 0
3, 81720, Note_on_c, 1, 65, 0
3, 81720, Note_on_c, 1, 62, 0
3, 81720, Note_on_c, 1, 57, 0
3, 81720, Note_on_c, 1, 50, 95
3, 81720, Note_on_c, 1, 53, 95
3, 81720, Note_on_c, 1, 62, 95
3, 81720, Note_on_c, 1, 58, 95
3, 81840, Note_on_c, 1, 58, 0
3, 81840, Note_on_c, 1, 50, 0
3, 81840, Note_on_c, 1, 53, 0
3, 81840, Note_on_c, 1, 62, 0
3, 82080, Note_on_c, 1, 51, 95
3, 82080, Note_on_c, 1, 55, 95
3, 82080, Note_on_c, 1, 60, 95
3, 82200, Note_on_c, 1, 60, 0
3, 82200, Note_on_c, 1, 55, 0
3, 82200, Note_on_c, 1, 51, 0
3, 82440, Note_on_c, 1, 58, 95
3, 82440, Note_on_c, 1, 53, 95
3, 82560, Note_on_c, 1, 53, 0
3, 82560, Note_on_c, 1, 58, 0
3, 82800, Note_on_c, 1, 53, 95
3, 82800, Note_on_c, 1, 65, 95
3, 82860, Note_on_c, 1, 65, 0
3, 82860, Note_on_c, 1, 53, 0
3, 82860, Note_on_c, 1, 53, 95
3, 82860, Note_on_c, 1, 65, 95
3, 82920, Note_on_c, 1, 65, 0
3, 82920, Note_on_c, 1, 53, 0
3, 82920, Note_on_c, 1, 65, 95
3, 82920, Note_on_c, 1, 53, 95
3, 82980, Note_on_c, 1, 53, 0
3, 82980, Note_on_c, 1, 65, 0
3, 82980, Note_on_c, 1, 53, 95
3, 82980, Note_on_c, 1, 65, 95
3, 83040, Note_on_c, 1, 65, 0
3, 83040, Note_on_c, 1, 53, 0
3, 83040, Note_on_c, 1, 53, 95
3, 83040, Note_on_c, 1, 65, 95
3, 83100, Note_on_c, 1, 65, 0
3, 83100, Note_on_c, 1, 53, 0
3, 83100, Note_on_c, 1, 65, 95
3, 83100, Note_on_c, 1, 53, 95
3, 83160, Note_on_c, 1, 53, 0
3, 83160, Note_on_c, 1, 65, 0
3, 83160, Note_on_c, 1, 65, 95
3, 83160, Note_on_c, 1, 53, 95
3, 83220, Note_on_c, 1, 53, 0
3, 83220, Note_on_c, 1, 65, 0
3, 83220, Note_on_c, 1, 53, 95
3, 83220, Note_on_c, 1, 65, 95
3, 83280, Note_on_c, 1, 65, 0
3, 83280, Note_on_c, 1, 53, 0
3, 83280, Note_on_c, 1, 65, 95
3, 83280, Note_on_c, 1, 53, 95
3, 83340, Note_on_c, 1, 53, 0
3, 83340, Note_on_c, 1, 65, 0
3, 83340, Note_on_c, 1, 65, 95
3, 83340, Note_on_c, 1, 53, 95
3, 83400, Note_on_c, 1, 53, 0
3, 83400, Note_on_c, 1, 65, 0
3, 83400, Note_on_c, 1, 53, 95
3, 83400, Note_on_c, 1, 65, 95
3, 83460, Note_on_c, 1, 65, 0
3, 83460, Note_on_c, 1, 53, 0
3, 83460, Note_on_c, 1, 53, 95
3, 83460, Note_on_c, 1, 65, 95
3, 83520, Note_on_c, 1, 65, 0
3, 83520, Note_on_c, 1, 53, 0
3, 83520, Note_on_c, 1, 58, 95
3, 83550, Note_on_c, 1, 58, 0
3, 83550, Note_on_c, 1, 57, 95
3, 83580, Note_on_c, 1, 57, 0
3, 83580, Note_on_c, 1, 58, 95
3, 83610, Note_on_c, 1, 58, 0
3, 83610, Note_on_c, 1, 60, 95
3, 83640, Note_on_c, 1, 60, 0
3, 83640, Note_on_c, 1, 62, 95
3, 83670, Note_on_c, 1, 62, 0
3, 83670, Note_on_c, 1, 63, 95
3, 83700, Note_on_c, 1, 63, 0
3, 83700, Note_on_c, 1, 65, 95
3, 83730, Note_on_c, 1, 65, 0
3, 83730, Note_on_c, 1, 67, 95
3, 83760, Note_on_c, 1, 67, 0
3, 83760, Note_on_c, 1, 65, 95
3, 83790, Note_on_c, 1, 65, 0
3, 83790, Note_on_c, 1, 63, 95
3, 83820, Note_on_c, 1, 63, 0
3, 83820, Note_on_c, 1, 62, 95
3, 83850, Note_on_c, 1, 62, 0
3, 83850, Note_on_c, 1, 60, 95
3, 83880, Note_on_c, 1, 60, 0
3, 83880, Note_on_c, 1, 58, 95
3, 83910, Note_on_c, 1, 58, 0
3, 83910, Note_on_c, 1, 57, 95
3, 83940, Note_on_c, 1, 57, 0
3, 83940, Note_on_c, 1, 58, 95
3, 83970, Note_on_c, 1, 58, 0
3, 83970, Note_on_c, 1, 60, 95
3, 84000, Note_on_c, 1, 60, 0
3, 84000, Note_on_c, 1, 62, 95
3, 84030, Note_on_c, 1, 62, 0
3, 84030, Note_on_c, 1, 63, 95
3, 84060, Note_on_c, 1, 63, 0
3, 84060, Note_on_c, 1, 65, 95
3, 84090, Note_on_c, 1, 65, 0
3, 84090, Note_on_c, 1, 67, 95
3, 84120, Note_on_c, 1, 67, 0
3, 84120, Note_on_c, 1, 65, 95
3, 84150, Note_on_c, 1, 65, 0
3, 84150, Note_on_c, 1, 63, 95
3, 84180, Note_on_c, 1, 63, 0
3, 84180, Note_on_c, 1, 62, 95
3, 84210, Note_on_c, 1, 62, 0
3, 84210, Note_on_c, 1, 60, 95
3, 84240, Note_on_c, 1, 60, 0
3, 84240, Note_on_c, 1, 58, 110
3, 84360, Note_on_c, 1, 58, 0
3, 84600, Note_on_c, 1, 65, 101
3, 84600, Note_on_c, 1, 68, 101
3, 84660, Note_on_c, 1, 68, 0
3, 84660, Note_on_c, 1, 65, 0
3, 84660, Note_on_c, 1, 63, 101
3, 84660, Note_on_c, 1, 67, 101
3, 84720, Note_on_c, 1, 67, 0
3, 84720, Note_on_c, 1, 63, 0
3, 84720, Note_on_c, 1, 58, 101
3, 84720, Note_on_c, 1, 65, 101
3, 84780, Note_on_c, 1, 65, 0
3, 84780, Note_on_c, 1, 58, 0
3, 84780, Note_on_c, 1, 58, 101
3, 84780, Note_on_c, 1, 65, 101
3, 84900, Note_on_c, 1, 65, 0
3, 84900, Note_on_c, 1, 58, 0
3, 84960, Note_on_c, 1, 63, 101
3, 84960, Note_on_c, 1, 67, 101
3, 85020, Note_on_c, 1, 67, 0
3, 85020, Note_on_c, 1, 63, 0
3, 85020, Note_on_c, 1, 58, 101
3, 85020, Note_on_c, 1, 65, 101
3, 85080, Note_on_c, 1, 65, 0
3, 85080, Note_on_c, 1, 58, 0
3, 85080, Note_on_c, 1, 55, 101
3, 85080, Note_on_c, 1, 63, 101
3, 85140, Note_on_c, 1, 63, 0
3, 85140, Note_on_c, 1, 55, 0
3, 85140, Note_on_c, 1, 55, 101
3, 85140, Note_on_c, 1, 63, 101
3, 85260, Note_on_c, 1, 63, 0
3, 85260, Note_on_c, 1, 55, 0
3, 85260, Note_on_c, 1, 58, 100
3, 85260, Note_on_c, 1, 65, 100
3, 85320, Note_on_c, 1, 65, 0
3, 85320, Note_on_c, 1, 58, 0
3, 85320, Note_on_c, 1, 63, 100
3, 85320, Note_on_c, 1, 67, 100
3, 85440, Note_on_c, 1, 67, 0
3, 85440, Note_on_c, 1, 63, 0
3, 85440, Note_on_c, 1, 58, 99
3, 85440, Note_on_c, 1, 65, 99
3, 85500, Note_on_c, 1, 65, 0
3, 85500, Note_on_c, 1, 58, 0
3, 85500, Note_on_c, 1, 63, 99
3, 85500, Note_on_c, 1, 67, 99
3, 85620, Note_on_c, 1, 67, 0
3, 85620, Note_on_c, 1, 63, 0
3, 85620, Note_on_c, 1, 65, 98
3, 85620, Note_on_c, 1, 68, 98
3, 85680, Note_on_c, 1, 68, 0
3, 85680, Note_on_c, 1, 65, 0
3, 85680, Note_on_c, 1, 58, 98
3, 85680, Note_on_c, 1, 65, 98
3, 85860, Note_on_c, 1, 65, 0
3, 85860, Note_on_c, 1, 58, 0
3, 86040, Note_on_c, 1, 65, 97
3, 86040, Note_on_c, 1, 68, 97
3, 86100, Note_on_c, 1, 68, 0
3, 86100, Note_on_c, 1, 65, 0
3, 86100, Note_on_c, 1, 63, 97
3, 86100, Note_on_c, 1, 67, 97
3, 86160, Note_on_c, 1, 67, 0
3, 86160, Note_on_c, 1, 63, 0
3, 86160, Note_on_c, 1, 58, 97
3, 86160, Note_on_c, 1, 65, 97
3, 86220, Note_on_c, 1, 65, 0
3, 86220, Note_on_c, 1, 58, 0
3, 86220, Note_on_c, 1, 58, 97
3, 86220, Note_on_c, 1, 65, 97
3, 86340, Note_on_c, 1, 65, 0
3, 86340, Note_on_c, 1, 58, 0
3, 86400, Note_on_c, 1, 63, 98
3, 86400, Note_on_c, 1, 67, 98
3, 86460, Note_on_c, 1, 67, 0
3, 86460, Note_on_c, 1, 63, 0
3, 86460, Note_on_c, 1, 58, 98
3, 86460, Note_on_c, 1, 65, 98
3, 86520, Note_on_c, 1, 65, 0
3, 86520, Note_on_c, 1, 58, 0
3, 86520, Note_on_c, 1, 55, 98
3, 86520, Note_on_c, 1, 63, 98
3, 86580, Note_on_c, 1, 63, 0
3, 86580, Note_on_c, 1, 55, 0
3, 86580, Note_on_c, 1, 55, 99
3, 86580, Note_on_c, 1, 63, 99
3, 86700, Note_on_c, 1, 63, 0
3, 86700, Note_on_c, 1, 55, 0
3, 86700, Note_on_c, 1, 58, 99
3, 86700, Note_on_c, 1, 65, 99
3, 86760, Note_on_c, 1, 65, 0
3, 86760, Note_on_c, 1, 58, 0
3, 86760, Note_on_c, 1, 63, 99
3, 86760, Note_on_c, 1, 67, 99
3, 86880, Note_on_c, 1, 67, 0
3, 86880, Note_on_c, 1, 63, 0
3, 86880, Note_on_c, 1, 63, 99
3, 86880, Note_on_c, 1, 67, 99
3, 86940, Note_on_c, 1, 67, 0
3, 86940, Note_on_c, 1, 63, 0
3, 86940, Note_on_c, 1, 65, 100
3, 86940, Note_on_c, 1, 68, 100
3, 87060, Note_on_c, 1, 68, 0
3, 87060, Note_on_c, 1, 65, 0
3, 87060, Note_on_c, 1, 63, 100
3, 87060, Note_on_c, 1, 67, 100
3, 87120, Note_on_c, 1, 67, 0
3, 87120, Note_on_c, 1, 63, 0
3, 87120, Note_on_c, 1, 58, 101
3, 87120, Note_on_c, 1, 65, 101
3, 87300, Note_on_c, 1, 65, 0
3, 87300, Note_on_c, 1, 58, 0
3, 87480, Note_on_c, 1, 62, 103
3, 87480, Note_on_c, 1, 59, 103
3, 87480, Note_on_c, 1, 65, 103
3, 87780, Note_on_c, 1, 65, 0
3, 87780, Note_on_c, 1, 59, 0
3, 87780, Note_on_c, 1, 62, 0
3, 87780, Note_on_c, 1, 62, 104
3, 87780, Note_on_c, 1, 65, 104
3, 87840, Note_on_c, 1, 65, 0
3, 87840, Note_on_c, 1, 62, 0
3, 87840, Note_on_c, 1, 62, 105
3, 87840, Note_on_c, 1, 65, 105
3, 87900, Note_on_c, 1, 65, 0
3, 87900, Note_on_c, 1, 62, 0
3, 87900, Note_on_c, 1, 60, 105
3, 87900, Note_on_c, 1, 63, 105
3, 87960, Note_on_c, 1, 63, 0
3, 87960, Note_on_c, 1, 60, 0
3, 87960, Note_on_c, 1, 55, 106
3, 87960, Note_on_c, 1, 62, 106
3, 88020, Note_on_c, 1, 62, 0
3, 88020, Note_on_c, 1, 55, 0
3, 88020, Note_on_c, 1, 55, 106
3, 88020, Note_on_c, 1, 62, 106
3, 88140, Note_on_c, 1, 62, 0
3, 88140, Note_on_c, 1, 55, 0
3, 88200, Note_on_c, 1, 63, 106
3, 88200, Note_on_c, 1, 60, 106
3, 88260, Note_on_c, 1, 60, 0
3, 88260, Note_on_c, 1, 63, 0
3, 88260, Note_on_c, 1, 62, 106
3, 88260, Note_on_c, 1, 55, 106
3, 88320, Note_on_c, 1, 55, 0
3, 88320, Note_on_c, 1, 62, 0
3, 88320, Note_on_c, 1, 51, 106
3, 88320, Note_on_c, 1, 60, 106
3, 88380, Note_on_c, 1, 60, 0
3, 88380, Note_on_c, 1, 51, 0
3, 88380, Note_on_c, 1, 51, 106
3, 88380, Note_on_c, 1, 60, 106
3, 88500, Note_on_c, 1, 60, 0
3, 88500, Note_on_c, 1, 51, 0
3, 88500, Note_on_c, 1, 62, 107
3, 88500, Note_on_c, 1, 51, 107
3, 88560, Note_on_c, 1, 51, 0
3, 88560, Note_on_c, 1, 62, 0
3, 88560, Note_on_c, 1, 63, 107
3, 88560, Note_on_c, 1, 60, 107
3, 88680, Note_on_c, 1, 60, 0
3, 88680, Note_on_c, 1, 63, 0
3, 88680, Note_on_c, 1, 62, 108
3, 88680, Note_on_c, 1, 55, 108
3, 88740, Note_on_c, 1, 55, 0
3, 88740, Note_on_c, 1, 62, 0
3, 88740, Note_on_c, 1, 63, 108
3, 88740, Note_on_c, 1, 60, 108
3, 88860, Note_on_c, 1, 60, 0
3, 88860, Note_on_c, 1, 63, 0
3, 88860, Note_on_c, 1, 65, 108
3, 88860, Note_on_c, 1, 62, 108
3, 88920, Note_on_c, 1, 62, 0
3, 88920, Note_on_c, 1, 65, 0
3, 88920, Note_on_c, 1, 62, 108
3, 88920, Note_on_c, 1, 55, 108
3, 89100, Note_on_c, 1, 55, 0
3, 89100, Note_on_c, 1, 62, 0
3, 89280, Note_on_c, 1, 63, 108
3, 89280, Note_on_c, 1, 60, 108
3, 89340, Note_on_c, 1, 60, 0
3, 89340, Note_on_c, 1, 63, 0
3, 89340, Note_on_c, 1, 62, 108
3, 89340, Note_on_c, 1, 58, 108
3, 89400, Note_on_c, 1, 58, 0
3, 89400, Note_on_c, 1, 62, 0
3, 89400, Note_on_c, 1, 53, 108
3, 89400, Note_on_c, 1, 60, 108
3, 89460, Note_on_c, 1, 60, 0
3, 89460, Note_on_c, 1, 53, 0
3, 89460, Note_on_c, 1, 60, 108
3, 89460, Note_on_c, 1, 53, 108
3, 89640, Note_on_c, 1, 53, 0
3, 89640, Note_on_c, 1, 60, 0
3, 89640, Note_on_c, 1, 62, 108
3, 89640, Note_on_c, 1, 58, 108
3, 89700, Note_on_c, 1, 58, 0
3, 89700, Note_on_c, 1, 62, 0
3, 89700, Note_on_c, 1, 53, 108
3, 89700, Note_on_c, 1, 60, 108
3, 89760, Note_on_c, 1, 60, 0
3, 89760, Note_on_c, 1, 53, 0
3, 89760, Note_on_c, 1, 50, 108
3, 89760, Note_on_c, 1, 58, 108
3, 89820, Note_on_c, 1, 58, 0
3, 89820, Note_on_c, 1, 50, 0
3, 89820, Note_on_c, 1, 50, 108
3, 89820, Note_on_c, 1, 58, 108
3, 89940, Note_on_c, 1, 58, 0
3, 89940, Note_on_c, 1, 50, 0
3, 89940, Note_on_c, 1, 53, 108
3, 89940, Note_on_c, 1, 60, 108
3, 90000, Note_on_c, 1, 60, 0
3, 90000, Note_on_c, 1, 53, 0
3, 90000, Note_on_c, 1, 62, 108
3, 90000, Note_on_c, 1, 58, 108
3, 90120, Note_on_c, 1, 58, 0
3, 90120, Note_on_c, 1, 62, 0
3, 90120, Note_on_c, 1, 53, 108
3, 90120, Note_on_c, 1, 60, 108
3, 90180, Note_on_c, 1, 60, 0
3, 90180, Note_on_c, 1, 53, 0
3, 90180, Note_on_c, 1, 62, 108
3, 90180, Note_on_c, 1, 58, 108
3, 90300, Note_on_c, 1, 58, 0
3, 90300, Note_on_c, 1, 62, 0
3, 90300, Note_on_c, 1, 63, 108
3, 90300, Note_on_c, 1, 60, 108
3, 90360, Note_on_c, 1, 60, 0
3, 90360, Note_on_c, 1, 63, 0
3, 90360, Note_on_c, 1, 53, 106
3, 90360, Note_on_c, 1, 60, 106
3, 90540, Note_on_c, 1, 60, 0
3, 90540, Note_on_c, 1, 53, 0
3, 90540, Note_on_c, 1, 51, 106
3, 90540, Note_on_c, 1, 53, 106
3, 90540, Note_on_c, 1, 57, 106
3, 90540, Note_on_c, 1, 60, 106
3, 90720, Note_on_c, 1, 60, 0
3, 90720, Note_on_c, 1, 51, 0
3, 90720, Note_on_c, 1, 53, 0
3, 90720, Note_on_c, 1, 57, 0
3, 90720, Note_on_c, 1, 50, 107
3, 90720, Note_on_c, 1, 53, 107
3, 90720, Note_on_c, 1, 62, 107
3, 90720, Note_on_c, 1, 58, 107
3, 91080, Note_on_c, 1, 58, 0
3, 91080, Note_on_c, 1, 50, 0
3, 91080, Note_on_c, 1, 53, 0
3, 91080, Note_on_c, 1, 62, 0
3, 91080, Note_on_c, 1, 39, 105
3, 91140, Note_on_c, 1, 39, 0
3, 91140, Note_on_c, 1, 51, 104
3, 91200, Note_on_c, 1, 51, 0
3, 91200, Note_on_c, 1, 50, 104
3, 91260, Note_on_c, 1, 50, 0
3, 91260, Note_on_c, 1, 41, 104
3, 91320, Note_on_c, 1, 41, 0
3, 91320, Note_on_c, 1, 53, 104
3, 91380, Note_on_c, 1, 53, 0
3, 91380, Note_on_c, 1, 53, 104
3, 91440, Note_on_c, 1, 53, 0
3, 91440, Note_on_c, 1, 58, 79
3, 91440, Note_on_c, 1, 34, 79
3, 91470, Note_on_c, 1, 34, 0
3, 91470, Note_on_c, 1, 58, 0
3, 91470, Note_on_c, 1, 46, 79
3, 91470, Note_on_c, 1, 53, 79
3, 91500, Note_on_c, 1, 53, 0
3, 91500, Note_on_c, 1, 46, 0
3, 91500, Note_on_c, 1, 58, 79
3, 91500, Note_on_c, 1, 34, 79
3, 91530, Note_on_c, 1, 34, 0
3, 91530, Note_on_c, 1, 58, 0
3, 91530, Note_on_c, 1, 46, 79
3, 91530, Note_on_c, 1, 53, 79
3, 91560, Note_on_c, 1, 53, 0
3, 91560, Note_on_c, 1, 46, 0
3, 91560, Note_on_c, 1, 34, 79
3, 91560, Note_on_c, 1, 50, 79
3, 91590, Note_on_c, 1, 50, 0
3, 91590, Note_on_c, 1, 34, 0
3, 91590, Note_on_c, 1, 53, 79
3, 91590, Note_on_c, 1, 46, 79
3, 91620, Note_on_c, 1, 46, 0
3, 91620, Note_on_c, 1, 53, 0
3, 91620, Note_on_c, 1, 34, 79
3, 91620, Note_on_c, 1, 58, 79
3, 91650, Note_on_c, 1, 58, 0
3, 91650, Note_on_c, 1, 34, 0
3, 91650, Note_on_c, 1, 46, 79
3, 91650, Note_on_c, 1, 53, 79
3, 91680, Note_on_c, 1, 53, 0
3, 91680, Note_on_c, 1, 46, 0
3, 91680, Note_on_c, 1, 34, 79
3, 91680, Note_on_c, 1, 58, 79
3, 91710, Note_on_c, 1, 58, 0
3, 91710, Note_on_c, 1, 34, 0
3, 91710, Note_on_c, 1, 46, 79
3, 91710, Note_on_c, 1, 50, 79
3, 91740, Note_on_c, 1, 50, 0
3, 91740, Note_on_c, 1, 46, 0
3, 91740, Note_on_c, 1, 58, 79
3, 91740, Note_on_c, 1, 34, 79
3, 91770, Note_on_c, 1, 34, 0
3, 91770, Note_on_c, 1, 58, 0
3, 91770, Note_on_c, 1, 62, 79
3, 91770, Note_on_c, 1, 46, 79
3, 91800, Note_on_c, 1, 46, 0
3, 91800, Note_on_c, 1, 62, 0
3, 91800, Note_on_c, 1, 34, 79
3, 91830, Note_on_c, 1, 34, 0
3, 91830, Note_on_c, 1, 46, 79
3, 91860, Note_on_c, 1, 46, 0
3, 91860, Note_on_c, 1, 34, 79
3, 91890, Note_on_c, 1, 34, 0
3, 91890, Note_on_c, 1, 46, 79
3, 91920, Note_on_c, 1, 46, 0
3, 91920, Note_on_c, 1, 34, 79
3, 91950, Note_on_c, 1, 34, 0
3, 91950, Note_on_c, 1, 46, 79
3, 91980, Note_on_c, 1, 46, 0
3, 91980, Note_on_c, 1, 34, 79
3, 92010, Note_on_c, 1, 34, 0
3, 92010, Note_on_c, 1, 46, 79
3, 92040, Note_on_c, 1, 46, 0
3, 92040, Note_on_c, 1, 34, 79
3, 92070, Note_on_c, 1, 34, 0
3, 92070, Note_on_c, 1, 46, 79
3, 92100, Note_on_c, 1, 46, 0
3, 92100, Note_on_c, 1, 34, 79
3, 92130, Note_on_c, 1, 34, 0
3, 92130, Note_on_c, 1, 46, 79
3, 92160, Note_on_c, 1, 46, 0
3, 92160, Note_on_c, 1, 58, 81
3, 92160, Note_on_c, 1, 34, 81
3, 92190, Note_on_c, 1, 34, 0
3, 92190, Note_on_c, 1, 58, 0
3, 92190, Note_on_c, 1, 53, 81
3, 92190, Note_on_c, 1, 46, 81
3, 92220, Note_on_c, 1, 46, 0
3, 92220, Note_on_c, 1, 53, 0
3, 92220, Note_on_c, 1, 50, 81
3, 92220, Note_on_c, 1, 34, 81
3, 92250, Note_on_c, 1, 34, 0
3, 92250, Note_on_c, 1, 50, 0
3, 92250, Note_on_c, 1, 53, 81
3, 92250, Note_on_c, 1, 46, 81
3, 92280, Note_on_c, 1, 46, 0
3, 92280, Note_on_c, 1, 53, 0
3, 92280, Note_on_c, 1, 58, 81
3, 92280, Note_on_c, 1, 34, 81
3, 92310, Note_on_c, 1, 34, 0
3, 92310, Note_on_c, 1, 58, 0
3, 92310, Note_on_c, 1, 62, 81
3, 92310, Note_on_c, 1, 46, 81
3, 92340, Note_on_c, 1, 46, 0
3, 92340, Note_on_c, 1, 62, 0
3, 92340, Note_on_c, 1, 34, 81
3, 92370, Note_on_c, 1, 34, 0
3, 92370, Note_on_c, 1, 58, 81
3, 92370, Note_on_c, 1, 46, 81
3, 92400, Note_on_c, 1, 46, 0
3, 92400, Note_on_c, 1, 58, 0
3, 92400, Note_on_c, 1, 53, 81
3, 92400, Note_on_c, 1, 34, 81
3, 92430, Note_on_c, 1, 34, 0
3, 92430, Note_on_c, 1, 53, 0
3, 92430, Note_on_c, 1, 58, 81
3, 92430, Note_on_c, 1, 46, 81
3, 92460, Note_on_c, 1, 46, 0
3, 92460, Note_on_c, 1, 58, 0
3, 92460, Note_on_c, 1, 34, 81
3, 92490, Note_on_c, 1, 34, 0
3, 92490, Note_on_c, 1, 46, 81
3, 92520, Note_on_c, 1, 46, 0
3, 92520, Note_on_c, 1, 34, 81
3, 92550, Note_on_c, 1, 34, 0
3, 92550, Note_on_c, 1, 46, 81
3, 92580, Note_on_c, 1, 46, 0
3, 92580, Note_on_c, 1, 34, 81
3, 92610, Note_on_c, 1, 34, 0
3, 92610, Note_on_c, 1, 46, 79
3, 92640, Note_on_c, 1, 46, 0
3, 92640, Note_on_c, 1, 34, 79
3, 92670, Note_on_c, 1, 34, 0
3, 92670, Note_on_c, 1, 46, 79
3, 92700, Note_on_c, 1, 46, 0
3, 92700, Note_on_c, 1, 34, 79
3, 92730, Note_on_c, 1, 34, 0
3, 92730, Note_on_c, 1, 46, 79
3, 92760, Note_on_c, 1, 46, 0
3, 92760, Note_on_c, 1, 34, 79
3, 92790, Note_on_c, 1, 34, 0
3, 92790, Note_on_c, 1, 46, 79
3, 92820, Note_on_c, 1, 46, 0
3, 92820, Note_on_c, 1, 34, 79
3, 92850, Note_on_c, 1, 34, 0
3, 92850, Note_on_c, 1, 46, 79
3, 92880, Note_on_c, 1, 46, 0
3, 92880, Note_on_c, 1, 34, 79
3, 92910, Note_on_c, 1, 34, 0
3, 92910, Note_on_c, 1, 46, 79
3, 92940, Note_on_c, 1, 46, 0
3, 92940, Note_on_c, 1, 34, 79
3, 92970, Note_on_c, 1, 34, 0
3, 92970, Note_on_c, 1, 46, 79
3, 93000, Note_on_c, 1, 46, 0
3, 93000, Note_on_c, 1, 34, 79
3, 93030, Note_on_c, 1, 34, 0
3, 93030, Note_on_c, 1, 46, 79
3, 93060, Note_on_c, 1, 46, 0
3, 93060, Note_on_c, 1, 34, 79
3, 93090, Note_on_c, 1, 34, 0
3, 93090, Note_on_c, 1, 46, 79
3, 93120, Note_on_c, 1, 46, 0
3, 93120, Note_on_c, 1, 34, 79
3, 93150, Note_on_c, 1, 34, 0
3, 93150, Note_on_c, 1, 46, 79
3, 93180, Note_on_c, 1, 46, 0
3, 93180, Note_on_c, 1, 34, 79
3, 93210, Note_on_c, 1, 34, 0
3, 93210, Note_on_c, 1, 46, 79
3, 93240, Note_on_c, 1, 46, 0
3, 93240, Note_on_c, 1, 34, 79
3, 93270, Note_on_c, 1, 34, 0
3, 93270, Note_on_c, 1, 46, 79
3, 93300, Note_on_c, 1, 46, 0
3, 93300, Note_on_c, 1, 34, 79
3, 93330, Note_on_c, 1, 34, 0
3, 93330, Note_on_c, 1, 46, 79
3, 93360, Note_on_c, 1, 46, 0
3, 93360, Note_on_c, 1, 34, 79
3, 93390, Note_on_c, 1, 34, 0
3, 93390, Note_on_c, 1, 46, 79
3, 93420, Note_on_c, 1, 46, 0
3, 93420, Note_on_c, 1, 34, 79
3, 93450, Note_on_c, 1, 34, 0
3, 93450, Note_on_c, 1, 46, 79
3, 93480, Note_on_c, 1, 46, 0
3, 93480, Note_on_c, 1, 34, 79
3, 93510, Note_on_c, 1, 34, 0
3, 93510, Note_on_c, 1, 46, 79
3, 93540, Note_on_c, 1, 46, 0
3, 93540, Note_on_c, 1, 34, 79
3, 93570, Note_on_c, 1, 34, 0
3, 93570, Note_on_c, 1, 46, 79
3, 93600, Note_on_c, 1, 46, 0
3, 93600, Note_on_c, 1, 34, 79
3, 93630, Note_on_c, 1, 34, 0
3, 93630, Note_on_c, 1, 46, 79
3, 93660, Note_on_c, 1, 46, 0
3, 93660, Note_on_c, 1, 34, 79
3, 93690, Note_on_c, 1, 34, 0
3, 93690, Note_on_c, 1, 46, 79
3, 93720, Note_on_c, 1, 46, 0
3, 93720, Note_on_c, 1, 34, 79
3, 93750, Note_on_c, 1, 34, 0
3, 93750, Note_on_c, 1, 46, 79
3, 93780, Note_on_c, 1, 46, 0
3, 93780, Note_on_c, 1, 34, 79
3, 93810, Note_on_c, 1, 34, 0
3, 93810, Note_on_c, 1, 46, 79
3, 93840, Note_on_c, 1, 46, 0
3, 93840, Note_on_c, 1, 34, 79
3, 93870, Note_on_c, 1, 34, 0
3, 93870, Note_on_c, 1, 46, 79
3, 93900, Note_on_c, 1, 46, 0
3, 93900, Note_on_c, 1, 34, 79
3, 93930, Note_on_c, 1, 34, 0
3, 93930, Note_on_c, 1, 46, 79
3, 93960, Note_on_c, 1, 46, 0
3, 93960, Note_on_c, 1, 34, 79
3, 93990, Note_on_c, 1, 34, 0
3, 93990, Note_on_c, 1, 46, 79
3, 94020, Note_on_c, 1, 46, 0
3, 94020, Note_on_c, 1, 34, 79
3, 94050, Note_on_c, 1, 34, 0
3, 94050, Note_on_c, 1, 46, 79
3, 94080, Note_on_c, 1, 46, 0
3, 94080, Note_on_c, 1, 34, 79
3, 94110, Note_on_c, 1, 34, 0
3, 94110, Note_on_c, 1, 46, 79
3, 94140, Note_on_c, 1, 46, 0
3, 94140, Note_on_c, 1, 34, 79
3, 94170, Note_on_c, 1, 34, 0
3, 94170, Note_on_c, 1, 46, 79
3, 94200, Note_on_c, 1, 46, 0
3, 94200, Note_on_c, 1, 34, 79
3, 94230, Note_on_c, 1, 34, 0
3, 94230, Note_on_c, 1, 46, 79
3, 94260, Note_on_c, 1, 46, 0
3, 94260, Note_on_c, 1, 34, 79
3, 94290, Note_on_c, 1, 34, 0
3, 94290, Note_on_c, 1, 46, 79
3, 94320, Note_on_c, 1, 46, 0
3, 94320, Note_on_c, 1, 34, 79
3, 94320, Note_on_c, 1, 46, 79
3, 94440, Note_on_c, 1, 46, 0
3, 94440, Note_on_c, 1, 34, 0
3, 94620, Note_on_c, 1, 53, 79
3, 94620, Note_on_c, 1, 63, 79
3, 94680, Note_on_c, 1, 63, 0
3, 94680, Note_on_c, 1, 53, 0
3, 94680, Note_on_c, 1, 62, 79
3, 94680, Note_on_c, 1, 58, 79
3, 94800, Note_on_c, 1, 58, 0
3, 94800, Note_on_c, 1, 62, 0
3, 94980, Note_on_c, 1, 41, 79
3, 94980, Note_on_c, 1, 51, 79
3, 95040, Note_on_c, 1, 51, 0
3, 95040, Note_on_c, 1, 41, 0
3, 95040, Note_on_c, 1, 50, 79
3, 95040, Note_on_c, 1, 46, 79
3, 95160, Note_on_c, 1, 46, 0
3, 95160, Note_on_c, 1, 50, 0
3, 95220, Note_on_c, 1, 57, 84
3, 95250, Note_on_c, 1, 57, 0
3, 95250, Note_on_c, 1, 55, 86
3, 95280, Note_on_c, 1, 55, 0
3, 95280, Note_on_c, 1, 53, 88
3, 95310, Note_on_c, 1, 53, 0
3, 95310, Note_on_c, 1, 51, 88
3, 95340, Note_on_c, 1, 51, 0
3, 95340, Note_on_c, 1, 50, 90
3, 95370, Note_on_c, 1, 50, 0
3, 95370, Note_on_c, 1, 48, 92
3, 95400, Note_on_c, 1, 48, 0
3, 95400, Note_on_c, 1, 46, 94
3, 95400, Note_on_c, 1, 34, 94
3, 95460, Note_on_c, 1, 34, 0
3, 95460, Note_on_c, 1, 46, 0
3, 95460, Note_on_c, 1, 50, 97
3, 95460, Note_on_c, 1, 38, 97
3, 95520, Note_on_c, 1, 38, 0
3, 95520, Note_on_c, 1, 50, 0
3, 95520, Note_on_c, 1, 53, 102
3, 95520, Note_on_c, 1, 41, 102
3, 95580, Note_on_c, 1, 41, 0
3, 95580, Note_on_c, 1, 53, 0
3, 95580, Note_on_c, 1, 58, 106
3, 95580, Note_on_c, 1, 46, 106
3, 95640, Note_on_c, 1, 46, 0
3, 95640, Note_on_c, 1, 58, 0
3, 95640, Note_on_c, 1, 41, 109
3, 95700, Note_on_c, 1, 41, 0
3, 95700, Note_on_c, 1, 38, 112
3, 95760, Note_on_c, 1, 38, 0
3, 95760, Note_on_c, 1, 34, 116
3, 95880, Note_on_c, 1, 34, 0
3, 95940, Note_on_c, 1, 34, 121
3, 95940, Note_on_c, 1, 46, 121
3, 96060, Note_on_c, 1, 46, 0
3, 96060, Note_on_c, 1, 34, 0
3, 96120, Control_c, 1, 64, 127
3, 96120, Note_on_c, 1, 46, 124
3, 96120, Note_on_c, 1, 34, 124
3, 96300, Note_on_c, 1, 34, 0
3, 96300, Note_on_c, 1, 46, 0
3, 97020, Control_c, 1, 64, 0
3, 97020, End_track
4, 0, Start_track
4, 0, End_track
0, 0, End_of_file