0, 0, Header, 1, 2, 480
1, 0, Start_track
1, 0, Time_signature, 4, 2, 24, 8
1, 0, Key_signature, 0, "major"
1, 0, Tempo, 375000
1, 0, Marker_t, "3rd mvmt"
1, 15360, Tempo, 666667
1, 15600, Tempo, 375000
1, 25440, Tempo, 428571
1, 26880, Tempo, 375000
1, 138720, Tempo, 666667
1, 138960, Tempo, 375000
1, 148800, Tempo, 428571
1, 150240, Tempo, 375000
1, 313920, Tempo, 413793
1, 317760, Tempo, 375000
1, 343200, Tempo, 500000
1, 344160, Tempo, 375000
1, 424320, Tempo, 387097
1, 427680, Tempo, 375000
1, 437760, Tempo, 666667
1, 439680, Tempo, 375000
1, 442080, Tempo, 666667
1, 444000, Tempo, 375000
1, 484320, Tempo, 448934
1, 484700, Tempo, 456239
1, 484720, Tempo, 458085
1, 485060, Tempo, 462749
1, 485080, Tempo, 467435
1, 485400, Tempo, 467909
1, 485420, Tempo, 476948
1, 485740, Tempo, 480846
1, 485760, Tempo, 486657
1, 486060, Tempo, 491642
1, 486080, Tempo, 496607
1, 486360, Tempo, 499127
1, 486380, Tempo, 506714
1, 486660, Tempo, 513479
1, 486680, Tempo, 517063
1, 486940, Tempo, 523926
1, 486960, Tempo, 527612
1, 487200, Tempo, 530270
1, 487220, Tempo, 538358
1, 487460, Tempo, 542201
1, 487480, Tempo, 549300
1, 487720, Tempo, 559963
1, 487740, Tempo, 560486
1, 487940, Tempo, 561062
1, 487960, Tempo, 571919
1, 488180, Tempo, 578871
1, 488200, Tempo, 583544
1, 488400, Tempo, 590087
1, 488420, Tempo, 595415
1, 488620, Tempo, 606306
1, 488640, Tempo, 607533
1, 488820, Tempo, 615511
1, 488840, Tempo, 619835
1, 489020, Tempo, 629327
1, 489040, Tempo, 632444
1, 489200, Tempo, 634988
1, 489220, Tempo, 645300
1, 489400, Tempo, 657750
1, 489420, Tempo, 658472
1, 489580, Tempo, 665927
1, 489600, Tempo, 666667
1, 498160, Tempo, 375000
1, 498160, End_track
2, 0, Start_track
2, 0, MIDI_port, 1
2, 0, Title_t, "3rd"
2, 0, Program_c, 0, 0
2, 40, Note_on_c, 0, 37, 58
2, 137, Note_on_c, 0, 44, 58
2, 247, Note_on_c, 0, 44, 0
2, 247, Note_on_c, 0, 37, 0
2, 257, Note_on_c, 0, 44, 58
2, 280, Note_on_c, 0, 49, 58
2, 390, Note_on_c, 0, 49, 0
2, 400, Note_on_c, 0, 52, 58
2, 493, Note_on_c, 0, 52, 0
2, 493, Note_on_c, 0, 44, 0
2, 503, Note_on_c, 0, 37, 58
2, 520, Note_on_c, 0, 56, 58
2, 630, Note_on_c, 0, 56, 0
2, 640, Note_on_c, 0, 49, 58
2, 733, Note_on_c, 0, 49, 0
2, 733, Note_on_c, 0, 37, 0
2, 743, Note_on_c, 0, 44, 58
2, 760, Note_on_c, 0, 52, 58
2, 870, Note_on_c, 0, 52, 0
2, 880, Note_on_c, 0, 56, 58
2, 972, Note_on_c, 0, 56, 0
2, 972, Note_on_c, 0, 44, 0
2, 982, Note_on_c, 0, 37, 58
2, 1000, Note_on_c, 0, 61, 58
2, 1110, Note_on_c, 0, 61, 0
2, 1120, Note_on_c, 0, 52, 58
2, 1212, Note_on_c, 0, 52, 0
2, 1212, Note_on_c, 0, 37, 0
2, 1222, Note_on_c, 0, 44, 58
2, 1240, Note_on_c, 0, 56, 58
2, 1353, Note_on_c, 0, 56, 0
2, 1363, Note_on_c, 0, 61, 58
2, 1450, Note_on_c, 0, 61, 0
2, 1450, Note_on_c, 0, 44, 0
2, 1460, Note_on_c, 0, 37, 58
2, 1483, Note_on_c, 0, 64, 58
2, 1593, Note_on_c, 0, 64, 0
2, 1603, Note_on_c, 0, 56, 58
2, 1690, Note_on_c, 0, 56, 0
2, 1690, Note_on_c, 0, 37, 0
2, 1700, Note_on_c, 0, 44, 58
2, 1720, Note_on_c, 0, 61, 58
2, 1830, Note_on_c, 0, 61, 0
2, 1840, Note_on_c, 0, 64, 58
2, 1933, Note_on_c, 0, 64, 0
2, 1933, Note_on_c, 0, 44, 0
2, 1943, Note_on_c, 0, 37, 58
2, 1960, Note_on_c, 0, 68, 58
2, 2070, Note_on_c, 0, 68, 0
2, 2080, Note_on_c, 0, 61, 58
2, 2173, Note_on_c, 0, 61, 0
2, 2173, Note_on_c, 0, 37, 0
2, 2183, Note_on_c, 0, 44, 58
2, 2200, Note_on_c, 0, 64, 58
2, 2310, Note_on_c, 0, 64, 0
2, 2320, Note_on_c, 0, 68, 58
2, 2412, Note_on_c, 0, 68, 0
2, 2412, Note_on_c, 0, 44, 0
2, 2422, Note_on_c, 0, 37, 58
2, 2440, Note_on_c, 0, 73, 58
2, 2550, Note_on_c, 0, 73, 0
2, 2560, Note_on_c, 0, 64, 58
2, 2652, Note_on_c, 0, 64, 0
2, 2652, Note_on_c, 0, 37, 0
2, 2662, Note_on_c, 0, 44, 58
2, 2683, Note_on_c, 0, 68, 58
2, 2793, Note_on_c, 0, 68, 0
2, 2803, Note_on_c, 0, 73, 58
2, 2890, Note_on_c, 0, 73, 0
2, 2890, Note_on_c, 0, 44, 0
2, 2900, Note_on_c, 0, 37, 58
2, 2923, Note_on_c, 0, 76, 58
2, 3030, Note_on_c, 0, 76, 0
2, 3040, Note_on_c, 0, 68, 58
2, 3133, Note_on_c, 0, 68, 0
2, 3133, Note_on_c, 0, 37, 0
2, 3143, Note_on_c, 0, 44, 58
2, 3160, Note_on_c, 0, 73, 58
2, 3270, Note_on_c, 0, 73, 0
2, 3280, Note_on_c, 0, 76, 58
2, 3373, Note_on_c, 0, 76, 0
2, 3373, Note_on_c, 0, 44, 0
2, 3383, Control_c, 0, 64, 127
2, 3383, Note_on_c, 0, 80, 71
2, 3383, Note_on_c, 0, 37, 71
2, 3383, Note_on_c, 0, 68, 71
2, 3383, Note_on_c, 0, 73, 71
2, 3383, Note_on_c, 0, 49, 71
2, 3383, Note_on_c, 0, 76, 71
2, 3612, Note_on_c, 0, 76, 0
2, 3612, Note_on_c, 0, 37, 0
2, 3612, Note_on_c, 0, 68, 0
2, 3612, Note_on_c, 0, 80, 0
2, 3612, Note_on_c, 0, 49, 0
2, 3612, Note_on_c, 0, 73, 0
2, 3622, Note_on_c, 0, 68, 71
2, 3622, Note_on_c, 0, 73, 71
2, 3622, Note_on_c, 0, 76, 71
2, 3622, Note_on_c, 0, 80, 71
2, 3622, Note_on_c, 0, 44, 71
2, 3852, Note_on_c, 0, 44, 0
2, 3852, Note_on_c, 0, 76, 0
2, 3852, Note_on_c, 0, 68, 0
2, 3852, Note_on_c, 0, 73, 0
2, 3852, Note_on_c, 0, 80, 0
2, 3860, Control_c, 0, 64, 0
2, 3862, Note_on_c, 0, 36, 58
2, 3980, Note_on_c, 0, 44, 58
2, 4090, Note_on_c, 0, 44, 0
2, 4090, Note_on_c, 0, 36, 0
2, 4100, Note_on_c, 0, 44, 58
2, 4123, Note_on_c, 0, 48, 58
2, 4233, Note_on_c, 0, 48, 0
2, 4243, Note_on_c, 0, 51, 58
2, 4330, Note_on_c, 0, 51, 0
2, 4330, Note_on_c, 0, 44, 0
2, 4340, Note_on_c, 0, 36, 58
2, 4360, Note_on_c, 0, 56, 58
2, 4470, Note_on_c, 0, 56, 0
2, 4480, Note_on_c, 0, 48, 58
2, 4573, Note_on_c, 0, 48, 0
2, 4573, Note_on_c, 0, 36, 0
2, 4583, Note_on_c, 0, 44, 58
2, 4600, Note_on_c, 0, 51, 58
2, 4710, Note_on_c, 0, 51, 0
2, 4720, Note_on_c, 0, 56, 58
2, 4813, Note_on_c, 0, 56, 0
2, 4813, Note_on_c, 0, 44, 0
2, 4823, Note_on_c, 0, 36, 58
2, 4840, Note_on_c, 0, 60, 58
2, 4950, Note_on_c, 0, 60, 0
2, 4960, Note_on_c, 0, 51, 58
2, 5052, Note_on_c, 0, 51, 0
2, 5052, Note_on_c, 0, 36, 0
2, 5062, Note_on_c, 0, 44, 58
2, 5080, Note_on_c, 0, 56, 58
2, 5190, Note_on_c, 0, 56, 0
2, 5200, Note_on_c, 0, 60, 58
2, 5292, Note_on_c, 0, 60, 0
2, 5292, Note_on_c, 0, 44, 0
2, 5302, Note_on_c, 0, 36, 58
2, 5320, Note_on_c, 0, 63, 58
2, 5433, Note_on_c, 0, 63, 0
2, 5443, Note_on_c, 0, 56, 58
2, 5530, Note_on_c, 0, 56, 0
2, 5530, Note_on_c, 0, 36, 0
2, 5540, Note_on_c, 0, 44, 58
2, 5563, Note_on_c, 0, 60, 58
2, 5673, Note_on_c, 0, 60, 0
2, 5683, Note_on_c, 0, 63, 58
2, 5770, Note_on_c, 0, 63, 0
2, 5770, Note_on_c, 0, 44, 0
2, 5780, Note_on_c, 0, 36, 58
2, 5800, Note_on_c, 0, 68, 58
2, 5910, Note_on_c, 0, 68, 0
2, 5920, Note_on_c, 0, 60, 58
2, 6013, Note_on_c, 0, 60, 0
2, 6013, Note_on_c, 0, 36, 0
2, 6023, Note_on_c, 0, 44, 58
2, 6040, Note_on_c, 0, 63, 58
2, 6150, Note_on_c, 0, 63, 0
2, 6160, Note_on_c, 0, 68, 58
2, 6253, Note_on_c, 0, 68, 0
2, 6253, Note_on_c, 0, 44, 0
2, 6263, Note_on_c, 0, 36, 58
2, 6280, Note_on_c, 0, 72, 58
2, 6390, Note_on_c, 0, 72, 0
2, 6400, Note_on_c, 0, 63, 58
2, 6492, Note_on_c, 0, 63, 0
2, 6492, Note_on_c, 0, 36, 0
2, 6502, Note_on_c, 0, 44, 58
2, 6520, Note_on_c, 0, 68, 58
2, 6630, Note_on_c, 0, 68, 0
2, 6640, Note_on_c, 0, 72, 58
2, 6732, Note_on_c, 0, 72, 0
2, 6732, Note_on_c, 0, 44, 0
2, 6742, Note_on_c, 0, 36, 58
2, 6763, Note_on_c, 0, 75, 58
2, 6873, Note_on_c, 0, 75, 0
2, 6883, Note_on_c, 0, 68, 58
2, 6970, Note_on_c, 0, 68, 0
2, 6970, Note_on_c, 0, 36, 0
2, 6980, Note_on_c, 0, 44, 58
2, 7003, Note_on_c, 0, 72, 58
2, 7110, Note_on_c, 0, 72, 0
2, 7120, Note_on_c, 0, 75, 58
2, 7213, Note_on_c, 0, 75, 0
2, 7213, Note_on_c, 0, 44, 0
2, 7223, Control_c, 0, 64, 127
2, 7223, Note_on_c, 0, 48, 71
2, 7223, Note_on_c, 0, 68, 71
2, 7223, Note_on_c, 0, 72, 71
2, 7223, Note_on_c, 0, 75, 71
2, 7223, Note_on_c, 0, 80, 71
2, 7223, Note_on_c, 0, 36, 71
2, 7453, Note_on_c, 0, 36, 0
2, 7453, Note_on_c, 0, 68, 0
2, 7453, Note_on_c, 0, 72, 0
2, 7453, Note_on_c, 0, 48, 0
2, 7453, Note_on_c, 0, 80, 0
2, 7453, Note_on_c, 0, 75, 0
2, 7463, Note_on_c, 0, 68, 71
2, 7463, Note_on_c, 0, 72, 71
2, 7463, Note_on_c, 0, 75, 71
2, 7463, Note_on_c, 0, 80, 71
2, 7463, Note_on_c, 0, 44, 71
2, 7693, Note_on_c, 0, 44, 0
2, 7693, Note_on_c, 0, 75, 0
2, 7693, Note_on_c, 0, 68, 0
2, 7693, Note_on_c, 0, 72, 0
2, 7693, Note_on_c, 0, 80, 0
2, 7699, Control_c, 0, 64, 0
2, 7703, Note_on_c, 0, 35, 58
2, 7820, Note_on_c, 0, 49, 58
2, 7932, Note_on_c, 0, 49, 0
2, 7932, Note_on_c, 0, 35, 0
2, 7942, Note_on_c, 0, 44, 58
2, 7960, Note_on_c, 0, 53, 58
2, 8073, Note_on_c, 0, 53, 0
2, 8083, Note_on_c, 0, 56, 58
2, 8170, Note_on_c, 0, 56, 0
2, 8170, Note_on_c, 0, 44, 0
2, 8180, Note_on_c, 0, 35, 58
2, 8203, Note_on_c, 0, 61, 58
2, 8313, Note_on_c, 0, 61, 0
2, 8323, Note_on_c, 0, 53, 58
2, 8410, Note_on_c, 0, 53, 0
2, 8410, Note_on_c, 0, 35, 0
2, 8420, Note_on_c, 0, 44, 58
2, 8440, Note_on_c, 0, 56, 58
2, 8550, Note_on_c, 0, 56, 0
2, 8560, Note_on_c, 0, 61, 58
2, 8653, Note_on_c, 0, 61, 0
2, 8653, Note_on_c, 0, 44, 0
2, 8663, Note_on_c, 0, 35, 58
2, 8680, Note_on_c, 0, 65, 58
2, 8790, Note_on_c, 0, 65, 0
2, 8800, Note_on_c, 0, 56, 58
2, 8893, Note_on_c, 0, 56, 0
2, 8893, Note_on_c, 0, 35, 0
2, 8903, Note_on_c, 0, 44, 58
2, 8920, Note_on_c, 0, 61, 58
2, 9030, Note_on_c, 0, 61, 0
2, 9040, Note_on_c, 0, 65, 58
2, 9132, Note_on_c, 0, 65, 0
2, 9132, Note_on_c, 0, 44, 0
2, 9142, Note_on_c, 0, 35, 58
2, 9160, Note_on_c, 0, 68, 58
2, 9270, Note_on_c, 0, 68, 0
2, 9280, Note_on_c, 0, 61, 58
2, 9372, Note_on_c, 0, 61, 0
2, 9372, Note_on_c, 0, 35, 0
2, 9382, Note_on_c, 0, 44, 58
2, 9400, Note_on_c, 0, 65, 58
2, 9513, Note_on_c, 0, 65, 0
2, 9523, Note_on_c, 0, 68, 58
2, 9610, Note_on_c, 0, 68, 0
2, 9610, Note_on_c, 0, 44, 0
2, 9620, Note_on_c, 0, 35, 58
2, 9640, Note_on_c, 0, 73, 58
2, 9753, Note_on_c, 0, 73, 0
2, 9763, Note_on_c, 0, 65, 58
2, 9850, Note_on_c, 0, 65, 0
2, 9850, Note_on_c, 0, 35, 0
2, 9860, Note_on_c, 0, 44, 58
2, 9880, Note_on_c, 0, 68, 58
2, 9990, Note_on_c, 0, 68, 0
2, 10000, Note_on_c, 0, 73, 58
2, 10093, Note_on_c, 0, 73, 0
2, 10093, Note_on_c, 0, 44, 0
2, 10103, Note_on_c, 0, 35, 58
2, 10120, Note_on_c, 0, 77, 58
2, 10230, Note_on_c, 0, 77, 0
2, 10240, Note_on_c, 0, 68, 58
2, 10333, Note_on_c, 0, 68, 0
2, 10333, Note_on_c, 0, 35, 0
2, 10343, Note_on_c, 0, 44, 58
2, 10360, Note_on_c, 0, 73, 58
2, 10470, Note_on_c, 0, 73, 0
2, 10480, Note_on_c, 0, 77, 58
2, 10572, Note_on_c, 0, 77, 0
2, 10572, Note_on_c, 0, 44, 0
2, 10582, Note_on_c, 0, 35, 58
2, 10600, Note_on_c, 0, 80, 58
2, 10710, Note_on_c, 0, 80, 0
2, 10720, Note_on_c, 0, 73, 58
2, 10812, Note_on_c, 0, 73, 0
2, 10812, Note_on_c, 0, 35, 0
2, 10822, Note_on_c, 0, 44, 58
2, 10843, Note_on_c, 0, 77, 58
2, 10953, Note_on_c, 0, 77, 0
2, 10963, Note_on_c, 0, 80, 58
2, 11050, Note_on_c, 0, 80, 0
2, 11050, Note_on_c, 0, 44, 0
2, 11060, Note_on_c, 0, 35, 71
2, 11062, Note_on_c, 0, 80, 71
2, 11062, Note_on_c, 0, 77, 71
2, 11063, Control_c, 0, 64, 127
2, 11065, Note_on_c, 0, 73, 71
2, 11065, Note_on_c, 0, 47, 71
2, 11080, Note_on_c, 0, 85, 71
2, 11293, Note_on_c, 0, 85, 0
2, 11293, Note_on_c, 0, 35, 0
2, 11293, Note_on_c, 0, 47, 0
2, 11303, Note_on_c, 0, 44, 71
2, 11310, Note_on_c, 0, 80, 0
2, 11310, Note_on_c, 0, 77, 0
2, 11310, Note_on_c, 0, 73, 0
2, 11320, Note_on_c, 0, 85, 71
2, 11322, Note_on_c, 0, 80, 71
2, 11322, Note_on_c, 0, 77, 71
2, 11325, Note_on_c, 0, 73, 71
2, 11533, Note_on_c, 0, 80, 0
2, 11533, Note_on_c, 0, 44, 0
2, 11533, Note_on_c, 0, 85, 0
2, 11539, Control_c, 0, 64, 0
2, 11543, Note_on_c, 0, 33, 58
2, 11653, Note_on_c, 0, 77, 0
2, 11653, Note_on_c, 0, 73, 0
2, 11663, Note_on_c, 0, 49, 58
2, 11770, Note_on_c, 0, 33, 0
2, 11780, Note_on_c, 0, 54, 58
2, 11782, Note_on_c, 0, 45, 58
2, 11890, Note_on_c, 0, 49, 0
2, 11900, Note_on_c, 0, 57, 58
2, 12012, Note_on_c, 0, 57, 0
2, 12012, Note_on_c, 0, 45, 0
2, 12012, Note_on_c, 0, 54, 0
2, 12022, Note_on_c, 0, 33, 58
2, 12040, Note_on_c, 0, 61, 58
2, 12153, Note_on_c, 0, 61, 0
2, 12163, Note_on_c, 0, 61, 59
2, 12250, Note_on_c, 0, 33, 0
2, 12260, Note_on_c, 0, 66, 59
2, 12260, Note_on_c, 0, 45, 58
2, 12370, Note_on_c, 0, 61, 0
2, 12380, Note_on_c, 0, 69, 59
2, 12490, Note_on_c, 0, 69, 0
2, 12490, Note_on_c, 0, 45, 0
2, 12490, Note_on_c, 0, 66, 0
2, 12500, Note_on_c, 0, 33, 58
2, 12520, Note_on_c, 0, 73, 63
2, 12630, Note_on_c, 0, 73, 0
2, 12640, Note_on_c, 0, 73, 67
2, 12733, Note_on_c, 0, 33, 0
2, 12743, Note_on_c, 0, 78, 67
2, 12743, Note_on_c, 0, 45, 58
2, 12853, Note_on_c, 0, 73, 0
2, 12863, Note_on_c, 0, 81, 67
2, 12973, Note_on_c, 0, 81, 0
2, 12973, Note_on_c, 0, 45, 0
2, 12973, Note_on_c, 0, 78, 0
2, 12983, Control_c, 0, 64, 127
2, 12983, Note_on_c, 0, 33, 58
2, 12983, Note_on_c, 0, 78, 79
2, 12986, Note_on_c, 0, 73, 79
2, 13000, Note_on_c, 0, 85, 79
2, 13210, Note_on_c, 0, 85, 0
2, 13210, Note_on_c, 0, 33, 0
2, 13220, Note_on_c, 0, 45, 58
2, 13230, Note_on_c, 0, 73, 0
2, 13230, Note_on_c, 0, 78, 0
2, 13240, Note_on_c, 0, 85, 79
2, 13240, Note_on_c, 0, 78, 79
2, 13242, Note_on_c, 0, 73, 79
2, 13452, Note_on_c, 0, 73, 0
2, 13452, Note_on_c, 0, 45, 0
2, 13452, Note_on_c, 0, 85, 0
2, 13452, Note_on_c, 0, 78, 0
2, 13459, Control_c, 0, 64, 0
2, 13462, Note_on_c, 0, 33, 58
2, 13580, Note_on_c, 0, 49, 58
2, 13690, Note_on_c, 0, 33, 0
2, 13700, Note_on_c, 0, 52, 58
2, 13700, Note_on_c, 0, 45, 58
2, 13810, Note_on_c, 0, 49, 0
2, 13820, Note_on_c, 0, 55, 58
2, 13933, Note_on_c, 0, 55, 0
2, 13933, Note_on_c, 0, 45, 0
2, 13933, Note_on_c, 0, 52, 0
2, 13943, Note_on_c, 0, 33, 58
2, 13960, Note_on_c, 0, 61, 58
2, 14070, Note_on_c, 0, 61, 0
2, 14080, Note_on_c, 0, 61, 59
2, 14173, Note_on_c, 0, 33, 0
2, 14183, Note_on_c, 0, 64, 59
2, 14183, Note_on_c, 0, 45, 58
2, 14293, Note_on_c, 0, 61, 0
2, 14303, Note_on_c, 0, 67, 59
2, 14412, Note_on_c, 0, 67, 0
2, 14412, Note_on_c, 0, 45, 0
2, 14412, Note_on_c, 0, 64, 0
2, 14422, Note_on_c, 0, 33, 58
2, 14440, Note_on_c, 0, 73, 59
2, 14550, Note_on_c, 0, 73, 0
2, 14560, Note_on_c, 0, 73, 67
2, 14650, Note_on_c, 0, 33, 0
2, 14660, Note_on_c, 0, 76, 67
2, 14662, Note_on_c, 0, 45, 58
2, 14770, Note_on_c, 0, 73, 0
2, 14780, Note_on_c, 0, 79, 67
2, 14892, Note_on_c, 0, 79, 0
2, 14892, Note_on_c, 0, 45, 0
2, 14892, Note_on_c, 0, 76, 0
2, 14902, Note_on_c, 0, 33, 58
2, 14902, Note_on_c, 0, 79, 79
2, 14902, Note_on_c, 0, 73, 79
2, 14903, Control_c, 0, 64, 127
2, 14923, Note_on_c, 0, 85, 79
2, 15130, Note_on_c, 0, 85, 0
2, 15130, Note_on_c, 0, 33, 0
2, 15140, Note_on_c, 0, 45, 58
2, 15153, Note_on_c, 0, 73, 0
2, 15153, Note_on_c, 0, 79, 0
2, 15163, Note_on_c, 0, 85, 79
2, 15163, Note_on_c, 0, 79, 79
2, 15163, Note_on_c, 0, 73, 79
2, 15373, Note_on_c, 0, 85, 0
2, 15373, Note_on_c, 0, 45, 0
2, 15376, Note_on_c, 0, 79, 0
2, 15376, Note_on_c, 0, 73, 0
2, 15379, Control_c, 0, 64, 0
2, 15383, Note_on_c, 0, 44, 75
2, 15386, Note_on_c, 0, 32, 75
2, 15400, Note_on_c, 0, 84, 75
2, 15402, Note_on_c, 0, 80, 75
2, 15402, Note_on_c, 0, 72, 75
2, 15630, Note_on_c, 0, 72, 0
2, 15630, Note_on_c, 0, 84, 0
2, 15630, Note_on_c, 0, 44, 0
2, 15630, Note_on_c, 0, 32, 0
2, 15630, Note_on_c, 0, 80, 0
2, 15640, Note_on_c, 0, 68, 75
2, 15642, Note_on_c, 0, 60, 75
2, 15642, Note_on_c, 0, 56, 75
2, 15750, Note_on_c, 0, 68, 0
2, 15760, Note_on_c, 0, 80, 75
2, 15870, Note_on_c, 0, 80, 0
2, 15870, Note_on_c, 0, 60, 0
2, 15880, Note_on_c, 0, 68, 75
2, 15880, Note_on_c, 0, 60, 75
2, 15990, Note_on_c, 0, 68, 0
2, 16000, Note_on_c, 0, 80, 75
2, 16110, Note_on_c, 0, 80, 0
2, 16110, Note_on_c, 0, 60, 0
2, 16120, Note_on_c, 0, 70, 75
2, 16120, Note_on_c, 0, 61, 75
2, 16233, Note_on_c, 0, 70, 0
2, 16243, Note_on_c, 0, 80, 75
2, 16353, Note_on_c, 0, 80, 0
2, 16353, Note_on_c, 0, 61, 0
2, 16363, Note_on_c, 0, 72, 75
2, 16363, Note_on_c, 0, 63, 75
2, 16473, Note_on_c, 0, 72, 0
2, 16483, Note_on_c, 0, 80, 75
2, 16590, Note_on_c, 0, 80, 0
2, 16590, Note_on_c, 0, 63, 0
2, 16600, Note_on_c, 0, 73, 75
2, 16603, Note_on_c, 0, 64, 75
2, 16710, Note_on_c, 0, 73, 0
2, 16720, Note_on_c, 0, 80, 75
2, 16830, Note_on_c, 0, 80, 0
2, 16830, Note_on_c, 0, 64, 0
2, 16840, Note_on_c, 0, 75, 75
2, 16842, Note_on_c, 0, 66, 75
2, 16950, Note_on_c, 0, 75, 0
2, 16960, Note_on_c, 0, 80, 75
2, 17070, Note_on_c, 0, 80, 0
2, 17070, Note_on_c, 0, 66, 0
2, 17080, Note_on_c, 0, 72, 75
2, 17080, Note_on_c, 0, 63, 75
2, 17190, Note_on_c, 0, 72, 0
2, 17200, Note_on_c, 0, 80, 75
2, 17310, Note_on_c, 0, 80, 0
2, 17310, Note_on_c, 0, 63, 0
2, 17320, Note_on_c, 0, 75, 75
2, 17320, Note_on_c, 0, 66, 75
2, 17430, Note_on_c, 0, 75, 0
2, 17440, Note_on_c, 0, 80, 75
2, 17550, Note_on_c, 0, 80, 0
2, 17550, Note_on_c, 0, 66, 0
2, 17560, Note_on_c, 0, 73, 75
2, 17560, Note_on_c, 0, 64, 75
2, 17673, Note_on_c, 0, 73, 0
2, 17683, Note_on_c, 0, 80, 75
2, 17790, Note_on_c, 0, 80, 0
2, 17790, Note_on_c, 0, 64, 0
2, 17800, Note_on_c, 0, 78, 75
2, 17803, Note_on_c, 0, 69, 75
2, 17913, Note_on_c, 0, 78, 0
2, 17923, Note_on_c, 0, 80, 75
2, 18030, Note_on_c, 0, 80, 0
2, 18030, Note_on_c, 0, 69, 0
2, 18040, Note_on_c, 0, 76, 75
2, 18043, Note_on_c, 0, 68, 75
2, 18150, Note_on_c, 0, 76, 0
2, 18160, Note_on_c, 0, 80, 75
2, 18270, Note_on_c, 0, 80, 0
2, 18270, Note_on_c, 0, 68, 0
2, 18280, Note_on_c, 0, 75, 75
2, 18282, Note_on_c, 0, 66, 75
2, 18390, Note_on_c, 0, 75, 0
2, 18400, Note_on_c, 0, 80, 75
2, 18510, Note_on_c, 0, 80, 0
2, 18510, Note_on_c, 0, 66, 0
2, 18520, Note_on_c, 0, 73, 75
2, 18520, Note_on_c, 0, 64, 75
2, 18630, Note_on_c, 0, 73, 0
2, 18640, Note_on_c, 0, 80, 75
2, 18750, Note_on_c, 0, 80, 0
2, 18750, Note_on_c, 0, 64, 0
2, 18760, Note_on_c, 0, 72, 75
2, 18760, Note_on_c, 0, 63, 75
2, 18870, Note_on_c, 0, 72, 0
2, 18880, Note_on_c, 0, 80, 75
2, 18993, Note_on_c, 0, 80, 0
2, 18993, Note_on_c, 0, 63, 0
2, 19003, Note_on_c, 0, 69, 75
2, 19003, Note_on_c, 0, 61, 75
2, 19113, Note_on_c, 0, 69, 0
2, 19123, Note_on_c, 0, 79, 75
2, 19230, Note_on_c, 0, 79, 0
2, 19230, Note_on_c, 0, 61, 0
2, 19230, Note_on_c, 0, 56, 0
2, 19240, Note_on_c, 0, 68, 75
2, 19240, Note_on_c, 0, 60, 75
2, 19240, Note_on_c, 0, 56, 75
2, 19350, Note_on_c, 0, 68, 0
2, 19360, Note_on_c, 0, 80, 75
2, 19470, Note_on_c, 0, 80, 0
2, 19470, Note_on_c, 0, 60, 0
2, 19480, Note_on_c, 0, 68, 75
2, 19482, Note_on_c, 0, 60, 75
2, 19590, Note_on_c, 0, 68, 0
2, 19600, Note_on_c, 0, 80, 75
2, 19710, Note_on_c, 0, 80, 0
2, 19710, Note_on_c, 0, 60, 0
2, 19720, Note_on_c, 0, 68, 75
2, 19722, Note_on_c, 0, 60, 75
2, 19830, Note_on_c, 0, 68, 0
2, 19840, Note_on_c, 0, 80, 75
2, 19950, Note_on_c, 0, 80, 0
2, 19950, Note_on_c, 0, 60, 0
2, 19960, Note_on_c, 0, 70, 75
2, 19960, Note_on_c, 0, 61, 75
2, 20070, Note_on_c, 0, 70, 0
2, 20080, Note_on_c, 0, 80, 75
2, 20190, Note_on_c, 0, 80, 0
2, 20190, Note_on_c, 0, 61, 0
2, 20200, Note_on_c, 0, 72, 75
2, 20200, Note_on_c, 0, 63, 75
2, 20313, Note_on_c, 0, 72, 0
2, 20323, Note_on_c, 0, 80, 75
2, 20433, Note_on_c, 0, 80, 0
2, 20433, Note_on_c, 0, 63, 0
2, 20443, Note_on_c, 0, 73, 75
2, 20443, Note_on_c, 0, 64, 75
2, 20553, Note_on_c, 0, 73, 0
2, 20563, Note_on_c, 0, 80, 75
2, 20670, Note_on_c, 0, 80, 0
2, 20670, Note_on_c, 0, 64, 0
2, 20680, Note_on_c, 0, 75, 75
2, 20683, Note_on_c, 0, 66, 75
2, 20790, Note_on_c, 0, 75, 0
2, 20800, Note_on_c, 0, 80, 75
2, 20910, Note_on_c, 0, 80, 0
2, 20910, Note_on_c, 0, 66, 0
2, 20920, Note_on_c, 0, 72, 75
2, 20922, Note_on_c, 0, 63, 75
2, 21030, Note_on_c, 0, 72, 0
2, 21040, Note_on_c, 0, 80, 75
2, 21150, Note_on_c, 0, 80, 0
2, 21150, Note_on_c, 0, 63, 0
2, 21160, Note_on_c, 0, 75, 75
2, 21162, Note_on_c, 0, 66, 75
2, 21270, Note_on_c, 0, 75, 0
2, 21280, Note_on_c, 0, 80, 75
2, 21390, Note_on_c, 0, 80, 0
2, 21390, Note_on_c, 0, 66, 0
2, 21400, Note_on_c, 0, 73, 75
2, 21400, Note_on_c, 0, 64, 75
2, 21510, Note_on_c, 0, 73, 0
2, 21520, Note_on_c, 0, 80, 75
2, 21633, Note_on_c, 0, 80, 0
2, 21633, Note_on_c, 0, 64, 0
2, 21643, Note_on_c, 0, 78, 75
2, 21643, Note_on_c, 0, 69, 75
2, 21753, Note_on_c, 0, 78, 0
2, 21763, Note_on_c, 0, 80, 75
2, 21873, Note_on_c, 0, 80, 0
2, 21873, Note_on_c, 0, 69, 0
2, 21883, Note_on_c, 0, 76, 75
2, 21883, Note_on_c, 0, 68, 75
2, 21990, Note_on_c, 0, 76, 0
2, 22000, Note_on_c, 0, 80, 75
2, 22110, Note_on_c, 0, 80, 0
2, 22110, Note_on_c, 0, 68, 0
2, 22120, Note_on_c, 0, 75, 75
2, 22122, Note_on_c, 0, 66, 75
2, 22230, Note_on_c, 0, 75, 0
2, 22240, Note_on_c, 0, 80, 75
2, 22350, Note_on_c, 0, 80, 0
2, 22350, Note_on_c, 0, 66, 0
2, 22360, Note_on_c, 0, 73, 75
2, 22362, Note_on_c, 0, 64, 75
2, 22470, Note_on_c, 0, 73, 0
2, 22480, Note_on_c, 0, 80, 75
2, 22590, Note_on_c, 0, 80, 0
2, 22590, Note_on_c, 0, 64, 0
2, 22600, Note_on_c, 0, 72, 75
2, 22600, Note_on_c, 0, 63, 75
2, 22710, Note_on_c, 0, 72, 0
2, 22720, Note_on_c, 0, 80, 75
2, 22830, Note_on_c, 0, 80, 0
2, 22830, Note_on_c, 0, 63, 0
2, 22840, Note_on_c, 0, 69, 75
2, 22840, Note_on_c, 0, 61, 75
2, 22950, Note_on_c, 0, 69, 0
2, 22960, Note_on_c, 0, 79, 75
2, 23073, Note_on_c, 0, 79, 0
2, 23073, Note_on_c, 0, 61, 0
2, 23073, Note_on_c, 0, 56, 0
2, 23083, Note_on_c, 0, 68, 75
2, 23083, Note_on_c, 0, 60, 75
2, 23083, Note_on_c, 0, 56, 75
2, 23193, Note_on_c, 0, 68, 0
2, 23203, Note_on_c, 0, 80, 75
2, 23313, Note_on_c, 0, 80, 0
2, 23313, Note_on_c, 0, 56, 0
2, 23313, Note_on_c, 0, 60, 0
2, 23323, Note_on_c, 0, 69, 75
2, 23323, Note_on_c, 0, 61, 75
2, 23323, Note_on_c, 0, 56, 75
2, 23430, Note_on_c, 0, 69, 0
2, 23440, Note_on_c, 0, 79, 75
2, 23550, Note_on_c, 0, 79, 0
2, 23550, Note_on_c, 0, 56, 0
2, 23550, Note_on_c, 0, 61, 0
2, 23560, Note_on_c, 0, 68, 75
2, 23562, Note_on_c, 0, 60, 75
2, 23562, Note_on_c, 0, 56, 75
2, 23670, Note_on_c, 0, 68, 0
2, 23680, Note_on_c, 0, 80, 75
2, 23790, Note_on_c, 0, 80, 0
2, 23790, Note_on_c, 0, 56, 0
2, 23790, Note_on_c, 0, 60, 0
2, 23800, Note_on_c, 0, 69, 75
2, 23802, Note_on_c, 0, 61, 75
2, 23802, Note_on_c, 0, 56, 75
2, 23910, Note_on_c, 0, 69, 0
2, 23920, Note_on_c, 0, 79, 75
2, 24030, Note_on_c, 0, 79, 0
2, 24030, Note_on_c, 0, 56, 0
2, 24030, Note_on_c, 0, 61, 0
2, 24040, Note_on_c, 0, 68, 75
2, 24040, Note_on_c, 0, 60, 75
2, 24042, Note_on_c, 0, 56, 75
2, 24150, Note_on_c, 0, 68, 0
2, 24160, Note_on_c, 0, 80, 75
2, 24270, Note_on_c, 0, 80, 0
2, 24270, Note_on_c, 0, 56, 0
2, 24270, Note_on_c, 0, 60, 0
2, 24280, Note_on_c, 0, 69, 75
2, 24280, Note_on_c, 0, 61, 75
2, 24282, Note_on_c, 0, 56, 75
2, 24393, Note_on_c, 0, 69, 0
2, 24403, Note_on_c, 0, 79, 75
2, 24513, Note_on_c, 0, 79, 0
2, 24513, Note_on_c, 0, 56, 0
2, 24513, Note_on_c, 0, 61, 0
2, 24523, Note_on_c, 0, 68, 75
2, 24523, Note_on_c, 0, 60, 75
2, 24523, Note_on_c, 0, 56, 75
2, 24633, Note_on_c, 0, 68, 0
2, 24643, Note_on_c, 0, 80, 75
2, 24750, Note_on_c, 0, 80, 0
2, 24750, Note_on_c, 0, 56, 0
2, 24750, Note_on_c, 0, 60, 0
2, 24760, Note_on_c, 0, 69, 75
2, 24763, Note_on_c, 0, 61, 75
2, 24763, Note_on_c, 0, 56, 75
2, 24870, Note_on_c, 0, 69, 0
2, 24880, Note_on_c, 0, 79, 75
2, 24990, Note_on_c, 0, 79, 0
2, 24990, Note_on_c, 0, 56, 0
2, 24990, Note_on_c, 0, 61, 0
2, 25000, Note_on_c, 0, 80, 75
2, 25002, Note_on_c, 0, 60, 75
2, 25002, Note_on_c, 0, 56, 75
2, 25469, Note_on_c, 0, 56, 0
2, 25469, Note_on_c, 0, 60, 0
2, 25469, Note_on_c, 0, 80, 0
2, 25479, Note_on_c, 0, 32, 75
2, 25479, Note_on_c, 0, 44, 75
2, 25479, Note_on_c, 0, 56, 75
2, 27360, Note_on_c, 0, 37, 58
2, 27447, Note_on_c, 0, 56, 0
2, 27447, Note_on_c, 0, 32, 0
2, 27447, Note_on_c, 0, 44, 0
2, 27457, Note_on_c, 0, 44, 58
2, 27567, Note_on_c, 0, 44, 0
2, 27567, Note_on_c, 0, 37, 0
2, 27577, Note_on_c, 0, 44, 58
2, 27600, Note_on_c, 0, 49, 58
2, 27707, Note_on_c, 0, 49, 0
2, 27717, Note_on_c, 0, 52, 58
2, 27810, Note_on_c, 0, 52, 0
2, 27810, Note_on_c, 0, 44, 0
2, 27820, Note_on_c, 0, 37, 58
2, 27837, Note_on_c, 0, 56, 58
2, 27947, Note_on_c, 0, 56, 0
2, 27957, Note_on_c, 0, 49, 58
2, 28050, Note_on_c, 0, 49, 0
2, 28050, Note_on_c, 0, 37, 0
2, 28060, Note_on_c, 0, 44, 58
2, 28077, Note_on_c, 0, 52, 58
2, 28187, Note_on_c, 0, 52, 0
2, 28197, Note_on_c, 0, 56, 58
2, 28290, Note_on_c, 0, 56, 0
2, 28290, Note_on_c, 0, 44, 0
2, 28300, Note_on_c, 0, 37, 58
2, 28317, Note_on_c, 0, 61, 58
2, 28427, Note_on_c, 0, 61, 0
2, 28437, Note_on_c, 0, 52, 58
2, 28529, Note_on_c, 0, 52, 0
2, 28529, Note_on_c, 0, 37, 0
2, 28539, Note_on_c, 0, 44, 58
2, 28557, Note_on_c, 0, 56, 58
2, 28670, Note_on_c, 0, 56, 0
2, 28680, Note_on_c, 0, 64, 58
2, 28767, Note_on_c, 0, 64, 0
2, 28767, Note_on_c, 0, 44, 0
2, 28777, Note_on_c, 0, 37, 58
2, 28800, Note_on_c, 0, 68, 58
2, 28910, Note_on_c, 0, 68, 0
2, 28920, Note_on_c, 0, 56, 58
2, 29007, Note_on_c, 0, 56, 0
2, 29007, Note_on_c, 0, 37, 0
2, 29017, Note_on_c, 0, 44, 58
2, 29037, Note_on_c, 0, 61, 58
2, 29147, Note_on_c, 0, 61, 0
2, 29157, Note_on_c, 0, 64, 58
2, 29250, Note_on_c, 0, 64, 0
2, 29250, Note_on_c, 0, 44, 0
2, 29260, Note_on_c, 0, 37, 58
2, 29277, Note_on_c, 0, 68, 58
2, 29387, Note_on_c, 0, 68, 0
2, 29397, Note_on_c, 0, 61, 58
2, 29490, Note_on_c, 0, 61, 0
2, 29490, Note_on_c, 0, 37, 0
2, 29500, Note_on_c, 0, 44, 58
2, 29517, Note_on_c, 0, 64, 58
2, 29627, Note_on_c, 0, 64, 0
2, 29637, Note_on_c, 0, 68, 58
2, 29729, Note_on_c, 0, 68, 0
2, 29729, Note_on_c, 0, 44, 0
2, 29739, Note_on_c, 0, 37, 58
2, 29757, Note_on_c, 0, 73, 58
2, 29867, Note_on_c, 0, 73, 0
2, 29877, Note_on_c, 0, 64, 58
2, 29969, Note_on_c, 0, 64, 0
2, 29969, Note_on_c, 0, 37, 0
2, 29979, Note_on_c, 0, 44, 58
2, 30000, Note_on_c, 0, 68, 58
2, 30110, Note_on_c, 0, 68, 0
2, 30120, Note_on_c, 0, 73, 58
2, 30207, Note_on_c, 0, 73, 0
2, 30207, Note_on_c, 0, 44, 0
2, 30217, Note_on_c, 0, 37, 58
2, 30237, Note_on_c, 0, 76, 58
2, 30347, Note_on_c, 0, 76, 0
2, 30357, Note_on_c, 0, 76, 58
2, 30450, Note_on_c, 0, 76, 0
2, 30450, Note_on_c, 0, 37, 0
2, 30460, Note_on_c, 0, 44, 58
2, 30477, Note_on_c, 0, 80, 58
2, 30587, Note_on_c, 0, 80, 0
2, 30597, Note_on_c, 0, 85, 58
2, 30690, Note_on_c, 0, 85, 0
2, 30690, Note_on_c, 0, 44, 0
2, 30700, Control_c, 0, 64, 127
2, 30700, Note_on_c, 0, 37, 71
2, 30700, Note_on_c, 0, 49, 71
2, 30703, Note_on_c, 0, 76, 71
2, 30717, Note_on_c, 0, 88, 71
2, 30929, Note_on_c, 0, 88, 0
2, 30929, Note_on_c, 0, 37, 0
2, 30929, Note_on_c, 0, 49, 0
2, 30929, Note_on_c, 0, 76, 0
2, 30939, Note_on_c, 0, 44, 71
2, 30957, Note_on_c, 0, 88, 71
2, 30957, Note_on_c, 0, 76, 71
2, 31169, Note_on_c, 0, 76, 0
2, 31169, Note_on_c, 0, 88, 0
2, 31169, Note_on_c, 0, 44, 0
2, 31176, Control_c, 0, 64, 0
2, 31179, Note_on_c, 0, 34, 58
2, 31297, Note_on_c, 0, 52, 58
2, 31407, Note_on_c, 0, 52, 0
2, 31407, Note_on_c, 0, 34, 0
2, 31417, Note_on_c, 0, 49, 58
2, 31440, Note_on_c, 0, 55, 58
2, 31550, Note_on_c, 0, 55, 0
2, 31560, Note_on_c, 0, 61, 58
2, 31647, Note_on_c, 0, 61, 0
2, 31647, Note_on_c, 0, 49, 0
2, 31657, Note_on_c, 0, 46, 58
2, 31680, Note_on_c, 0, 64, 58
2, 31787, Note_on_c, 0, 64, 0
2, 31797, Note_on_c, 0, 55, 58
2, 31890, Note_on_c, 0, 55, 0
2, 31890, Note_on_c, 0, 46, 0
2, 31900, Note_on_c, 0, 49, 58
2, 31917, Note_on_c, 0, 61, 58
2, 32027, Note_on_c, 0, 61, 0
2, 32037, Note_on_c, 0, 64, 58
2, 32130, Note_on_c, 0, 64, 0
2, 32130, Note_on_c, 0, 49, 0
2, 32140, Note_on_c, 0, 46, 58
2, 32157, Note_on_c, 0, 67, 58
2, 32267, Note_on_c, 0, 67, 0
2, 32277, Note_on_c, 0, 61, 58
2, 32369, Note_on_c, 0, 61, 0
2, 32369, Note_on_c, 0, 46, 0
2, 32379, Note_on_c, 0, 49, 58
2, 32397, Note_on_c, 0, 64, 58
2, 32507, Note_on_c, 0, 64, 0
2, 32517, Note_on_c, 0, 67, 58
2, 32609, Note_on_c, 0, 67, 0
2, 32609, Note_on_c, 0, 49, 0
2, 32619, Note_on_c, 0, 46, 58
2, 32637, Note_on_c, 0, 73, 58
2, 32750, Note_on_c, 0, 73, 0
2, 32760, Note_on_c, 0, 64, 58
2, 32847, Note_on_c, 0, 64, 0
2, 32847, Note_on_c, 0, 46, 0
2, 32857, Note_on_c, 0, 49, 58
2, 32880, Note_on_c, 0, 67, 58
2, 32990, Note_on_c, 0, 67, 0
2, 33000, Note_on_c, 0, 73, 58
2, 33087, Note_on_c, 0, 73, 0
2, 33087, Note_on_c, 0, 49, 0
2, 33097, Note_on_c, 0, 46, 58
2, 33117, Note_on_c, 0, 76, 58
2, 33227, Note_on_c, 0, 76, 0
2, 33237, Note_on_c, 0, 67, 58
2, 33330, Note_on_c, 0, 67, 0
2, 33330, Note_on_c, 0, 46, 0
2, 33340, Note_on_c, 0, 49, 58
2, 33357, Note_on_c, 0, 73, 58
2, 33467, Note_on_c, 0, 73, 0
2, 33477, Note_on_c, 0, 76, 58
2, 33570, Note_on_c, 0, 76, 0
2, 33570, Note_on_c, 0, 49, 0
2, 33580, Note_on_c, 0, 46, 58
2, 33597, Note_on_c, 0, 79, 58
2, 33707, Note_on_c, 0, 79, 0
2, 33717, Note_on_c, 0, 73, 58
2, 33809, Note_on_c, 0, 73, 0
2, 33809, Note_on_c, 0, 46, 0
2, 33819, Note_on_c, 0, 49, 58
2, 33837, Note_on_c, 0, 76, 58
2, 33947, Note_on_c, 0, 76, 0
2, 33957, Note_on_c, 0, 79, 58
2, 34049, Note_on_c, 0, 79, 0
2, 34049, Note_on_c, 0, 49, 0
2, 34059, Note_on_c, 0, 46, 58
2, 34080, Note_on_c, 0, 85, 58
2, 34190, Note_on_c, 0, 85, 0
2, 34200, Note_on_c, 0, 76, 58
2, 34287, Note_on_c, 0, 76, 0
2, 34287, Note_on_c, 0, 46, 0
2, 34297, Note_on_c, 0, 49, 58
2, 34320, Note_on_c, 0, 79, 58
2, 34427, Note_on_c, 0, 79, 0
2, 34437, Note_on_c, 0, 85, 58
2, 34530, Note_on_c, 0, 85, 0
2, 34530, Note_on_c, 0, 49, 0
2, 34540, Control_c, 0, 64, 127
2, 34540, Note_on_c, 0, 46, 71
2, 34543, Note_on_c, 0, 34, 71
2, 34543, Note_on_c, 0, 76, 71
2, 34557, Note_on_c, 0, 88, 71
2, 34770, Note_on_c, 0, 88, 0
2, 34770, Note_on_c, 0, 46, 0
2, 34770, Note_on_c, 0, 34, 0
2, 34770, Note_on_c, 0, 76, 0
2, 34780, Note_on_c, 0, 49, 71
2, 34797, Note_on_c, 0, 88, 71
2, 34799, Note_on_c, 0, 76, 71
2, 35009, Note_on_c, 0, 88, 0
2, 35009, Note_on_c, 0, 49, 0
2, 35016, Control_c, 0, 64, 0
2, 35019, Note_on_c, 0, 31, 58
2, 35127, Note_on_c, 0, 76, 0
2, 35137, Note_on_c, 0, 51, 58
2, 35249, Note_on_c, 0, 51, 0
2, 35249, Note_on_c, 0, 31, 0
2, 35259, Note_on_c, 0, 51, 58
2, 35277, Note_on_c, 0, 58, 58
2, 35387, Note_on_c, 0, 58, 0
2, 35397, Note_on_c, 0, 61, 58
2, 35487, Note_on_c, 0, 61, 0
2, 35487, Note_on_c, 0, 51, 0
2, 35497, Note_on_c, 0, 43, 58
2, 35520, Note_on_c, 0, 63, 58
2, 35630, Note_on_c, 0, 63, 0
2, 35640, Note_on_c, 0, 58, 58
2, 35727, Note_on_c, 0, 58, 0
2, 35727, Note_on_c, 0, 43, 0
2, 35737, Note_on_c, 0, 51, 58
2, 35760, Note_on_c, 0, 61, 58
2, 35867, Note_on_c, 0, 61, 0
2, 35877, Note_on_c, 0, 63, 58
2, 35970, Note_on_c, 0, 63, 0
2, 35970, Note_on_c, 0, 51, 0
2, 35980, Note_on_c, 0, 43, 59
2, 35997, Note_on_c, 0, 70, 58
2, 36107, Note_on_c, 0, 70, 0
2, 36117, Note_on_c, 0, 61, 59
2, 36210, Note_on_c, 0, 61, 0
2, 36210, Note_on_c, 0, 43, 0
2, 36220, Note_on_c, 0, 51, 59
2, 36237, Note_on_c, 0, 63, 59
2, 36347, Note_on_c, 0, 63, 0
2, 36357, Note_on_c, 0, 70, 59
2, 36449, Note_on_c, 0, 70, 0
2, 36449, Note_on_c, 0, 51, 0
2, 36459, Note_on_c, 0, 43, 61
2, 36477, Note_on_c, 0, 73, 59
2, 36587, Note_on_c, 0, 73, 0
2, 36597, Note_on_c, 0, 63, 61
2, 36689, Note_on_c, 0, 63, 0
2, 36689, Note_on_c, 0, 43, 0
2, 36699, Note_on_c, 0, 51, 61
2, 36717, Note_on_c, 0, 70, 61
2, 36830, Note_on_c, 0, 70, 0
2, 36840, Note_on_c, 0, 73, 61
2, 36927, Note_on_c, 0, 73, 0
2, 36927, Note_on_c, 0, 51, 0
2, 36937, Note_on_c, 0, 43, 61
2, 36960, Note_on_c, 0, 75, 61
2, 37070, Note_on_c, 0, 75, 0
2, 37080, Note_on_c, 0, 70, 61
2, 37167, Note_on_c, 0, 70, 0
2, 37167, Note_on_c, 0, 43, 0
2, 37177, Note_on_c, 0, 51, 61
2, 37197, Note_on_c, 0, 73, 61
2, 37307, Note_on_c, 0, 73, 0
2, 37317, Note_on_c, 0, 75, 61
2, 37410, Note_on_c, 0, 75, 0
2, 37410, Note_on_c, 0, 51, 0
2, 37420, Note_on_c, 0, 43, 61
2, 37437, Note_on_c, 0, 82, 61
2, 37547, Note_on_c, 0, 82, 0
2, 37557, Note_on_c, 0, 73, 61
2, 37650, Note_on_c, 0, 73, 0
2, 37650, Note_on_c, 0, 43, 0
2, 37660, Note_on_c, 0, 51, 61
2, 37677, Note_on_c, 0, 75, 61
2, 37787, Note_on_c, 0, 75, 0
2, 37797, Note_on_c, 0, 82, 61
2, 37889, Note_on_c, 0, 82, 0
2, 37889, Note_on_c, 0, 51, 0
2, 37899, Note_on_c, 0, 43, 61
2, 37917, Note_on_c, 0, 85, 61
2, 38027, Note_on_c, 0, 85, 0
2, 38037, Note_on_c, 0, 82, 61
2, 38129, Note_on_c, 0, 82, 0
2, 38129, Note_on_c, 0, 43, 0
2, 38139, Note_on_c, 0, 51, 61
2, 38160, Note_on_c, 0, 75, 61
2, 38270, Note_on_c, 0, 75, 0
2, 38280, Note_on_c, 0, 73, 61
2, 38367, Note_on_c, 0, 73, 0
2, 38367, Note_on_c, 0, 51, 0
2, 38377, Note_on_c, 0, 43, 61
2, 38400, Note_on_c, 0, 82, 61
2, 38507, Note_on_c, 0, 82, 0
2, 38517, Note_on_c, 0, 75, 61
2, 38610, Note_on_c, 0, 75, 0
2, 38610, Note_on_c, 0, 43, 0
2, 38620, Note_on_c, 0, 51, 61
2, 38637, Note_on_c, 0, 73, 61
2, 38747, Note_on_c, 0, 73, 0
2, 38757, Note_on_c, 0, 70, 61
2, 38850, Note_on_c, 0, 70, 0
2, 38850, Note_on_c, 0, 51, 0
2, 38860, Note_on_c, 0, 44, 58
2, 38877, Note_on_c, 0, 71, 63
2, 38987, Note_on_c, 0, 44, 0
2, 38997, Note_on_c, 0, 51, 58
2, 39107, Note_on_c, 0, 51, 0
2, 39117, Note_on_c, 0, 47, 58
2, 39227, Note_on_c, 0, 47, 0
2, 39227, Note_on_c, 0, 71, 0
2, 39237, Note_on_c, 0, 51, 58
2, 39337, Note_on_c, 0, 75, 60
2, 39347, Note_on_c, 0, 51, 0
2, 39357, Note_on_c, 0, 44, 58
2, 39467, Note_on_c, 0, 44, 0
2, 39477, Note_on_c, 0, 51, 58
2, 39590, Note_on_c, 0, 51, 0
2, 39600, Note_on_c, 0, 47, 58
2, 39710, Note_on_c, 0, 47, 0
2, 39720, Note_on_c, 0, 51, 58
2, 39830, Note_on_c, 0, 51, 0
2, 39840, Note_on_c, 0, 44, 58
2, 39947, Note_on_c, 0, 44, 0
2, 39957, Note_on_c, 0, 51, 58
2, 40067, Note_on_c, 0, 51, 0
2, 40077, Note_on_c, 0, 47, 58
2, 40187, Note_on_c, 0, 47, 0
2, 40197, Note_on_c, 0, 51, 58
2, 40307, Note_on_c, 0, 51, 0
2, 40307, Note_on_c, 0, 75, 0
2, 40317, Note_on_c, 0, 71, 60
2, 40319, Note_on_c, 0, 44, 58
2, 40427, Note_on_c, 0, 44, 0
2, 40437, Note_on_c, 0, 51, 58
2, 40547, Note_on_c, 0, 51, 0
2, 40557, Note_on_c, 0, 47, 58
2, 40667, Note_on_c, 0, 47, 0
2, 40667, Note_on_c, 0, 71, 0
2, 40677, Note_on_c, 0, 68, 60
2, 40677, Note_on_c, 0, 51, 58
2, 40787, Note_on_c, 0, 51, 0
2, 40787, Note_on_c, 0, 68, 0
2, 40797, Note_on_c, 0, 67, 63
2, 40797, Note_on_c, 0, 46, 58
2, 40869, Note_on_c, 0, 67, 0
2, 40879, Note_on_c, 0, 68, 63
2, 40910, Note_on_c, 0, 46, 0
2, 40920, Note_on_c, 0, 51, 58
2, 40947, Note_on_c, 0, 68, 0
2, 40957, Note_on_c, 0, 70, 63
2, 41030, Note_on_c, 0, 70, 0
2, 41030, Note_on_c, 0, 51, 0
2, 41040, Note_on_c, 0, 68, 63
2, 41040, Note_on_c, 0, 49, 58
2, 41150, Note_on_c, 0, 49, 0
2, 41160, Note_on_c, 0, 51, 58
2, 41267, Note_on_c, 0, 51, 0
2, 41267, Note_on_c, 0, 68, 0
2, 41277, Note_on_c, 0, 67, 60
2, 41280, Note_on_c, 0, 46, 58
2, 41387, Note_on_c, 0, 46, 0
2, 41397, Note_on_c, 0, 51, 58
2, 41507, Note_on_c, 0, 51, 0
2, 41517, Note_on_c, 0, 49, 58
2, 41627, Note_on_c, 0, 49, 0
2, 41637, Note_on_c, 0, 51, 58
2, 41747, Note_on_c, 0, 51, 0
2, 41757, Note_on_c, 0, 46, 58
2, 41867, Note_on_c, 0, 46, 0
2, 41877, Note_on_c, 0, 51, 58
2, 41987, Note_on_c, 0, 51, 0
2, 41987, Note_on_c, 0, 67, 0
2, 41997, Note_on_c, 0, 67, 63
2, 41997, Note_on_c, 0, 49, 58
2, 42107, Note_on_c, 0, 49, 0
2, 42117, Note_on_c, 0, 51, 58
2, 42230, Note_on_c, 0, 51, 0
2, 42230, Note_on_c, 0, 67, 0
2, 42240, Note_on_c, 0, 75, 63
2, 42240, Note_on_c, 0, 46, 58
2, 42350, Note_on_c, 0, 46, 0
2, 42360, Note_on_c, 0, 51, 58
2, 42470, Note_on_c, 0, 51, 0
2, 42480, Note_on_c, 0, 49, 58
2, 42587, Note_on_c, 0, 49, 0
2, 42587, Note_on_c, 0, 75, 0
2, 42597, Note_on_c, 0, 67, 63
2, 42600, Note_on_c, 0, 51, 58
2, 42707, Note_on_c, 0, 51, 0
2, 42707, Note_on_c, 0, 67, 0
2, 42717, Note_on_c, 0, 70, 63
2, 42719, Note_on_c, 0, 47, 58
2, 42827, Note_on_c, 0, 47, 0
2, 42837, Note_on_c, 0, 51, 58
2, 42947, Note_on_c, 0, 51, 0
2, 42957, Note_on_c, 0, 47, 58
2, 43067, Note_on_c, 0, 47, 0
2, 43077, Note_on_c, 0, 51, 58
2, 43187, Note_on_c, 0, 51, 0
2, 43187, Note_on_c, 0, 70, 0
2, 43197, Note_on_c, 0, 68, 60
2, 43197, Note_on_c, 0, 47, 58
2, 43307, Note_on_c, 0, 47, 0
2, 43317, Note_on_c, 0, 51, 58
2, 43427, Note_on_c, 0, 51, 0
2, 43437, Note_on_c, 0, 47, 58
2, 43547, Note_on_c, 0, 47, 0
2, 43557, Note_on_c, 0, 51, 58
2, 43670, Note_on_c, 0, 51, 0
2, 43680, Note_on_c, 0, 47, 58
2, 43790, Note_on_c, 0, 47, 0
2, 43800, Note_on_c, 0, 51, 58
2, 43910, Note_on_c, 0, 51, 0
2, 43910, Note_on_c, 0, 68, 0
2, 43920, Note_on_c, 0, 68, 63
2, 43920, Note_on_c, 0, 47, 58
2, 44027, Note_on_c, 0, 47, 0
2, 44037, Note_on_c, 0, 51, 58
2, 44147, Note_on_c, 0, 51, 0
2, 44147, Note_on_c, 0, 68, 0
2, 44157, Note_on_c, 0, 75, 63
2, 44159, Note_on_c, 0, 47, 58
2, 44267, Note_on_c, 0, 47, 0
2, 44277, Note_on_c, 0, 51, 58
2, 44387, Note_on_c, 0, 51, 0
2, 44397, Note_on_c, 0, 47, 58
2, 44507, Note_on_c, 0, 47, 0
2, 44507, Note_on_c, 0, 75, 0
2, 44517, Note_on_c, 0, 68, 63
2, 44517, Note_on_c, 0, 51, 58
2, 44627, Note_on_c, 0, 51, 0
2, 44627, Note_on_c, 0, 68, 0
2, 44637, Note_on_c, 0, 71, 63
2, 44637, Note_on_c, 0, 43, 58
2, 44747, Note_on_c, 0, 43, 0
2, 44757, Note_on_c, 0, 51, 58
2, 44867, Note_on_c, 0, 51, 0
2, 44877, Note_on_c, 0, 43, 58
2, 44990, Note_on_c, 0, 43, 0
2, 45000, Note_on_c, 0, 51, 58
2, 45110, Note_on_c, 0, 51, 0
2, 45110, Note_on_c, 0, 71, 0
2, 45120, Note_on_c, 0, 70, 60
2, 45120, Note_on_c, 0, 43, 58
2, 45230, Note_on_c, 0, 43, 0
2, 45240, Note_on_c, 0, 51, 58
2, 45347, Note_on_c, 0, 51, 0
2, 45357, Note_on_c, 0, 43, 58
2, 45467, Note_on_c, 0, 43, 0
2, 45477, Note_on_c, 0, 51, 58
2, 45587, Note_on_c, 0, 51, 0
2, 45597, Note_on_c, 0, 43, 58
2, 45707, Note_on_c, 0, 43, 0
2, 45717, Note_on_c, 0, 51, 58
2, 45827, Note_on_c, 0, 51, 0
2, 45827, Note_on_c, 0, 70, 0
2, 45837, Note_on_c, 0, 70, 63
2, 45837, Note_on_c, 0, 43, 58
2, 45947, Note_on_c, 0, 43, 0
2, 45957, Note_on_c, 0, 51, 58
2, 46067, Note_on_c, 0, 51, 0
2, 46067, Note_on_c, 0, 70, 0
2, 46077, Note_on_c, 0, 75, 63
2, 46077, Note_on_c, 0, 43, 58
2, 46187, Note_on_c, 0, 43, 0
2, 46197, Note_on_c, 0, 51, 58
2, 46310, Note_on_c, 0, 51, 0
2, 46320, Note_on_c, 0, 43, 58
2, 46430, Note_on_c, 0, 43, 0
2, 46430, Note_on_c, 0, 75, 0
2, 46440, Note_on_c, 0, 70, 63
2, 46440, Note_on_c, 0, 51, 58
2, 46547, Note_on_c, 0, 51, 0
2, 46547, Note_on_c, 0, 70, 0
2, 46557, Note_on_c, 0, 71, 63
2, 46560, Note_on_c, 0, 44, 58
2, 46667, Note_on_c, 0, 44, 0
2, 46677, Note_on_c, 0, 51, 58
2, 46770, Note_on_c, 0, 51, 0
2, 46770, Note_on_c, 0, 71, 0
2, 46780, Note_on_c, 0, 87, 63
2, 46783, Note_on_c, 0, 75, 63
2, 46797, Note_on_c, 0, 47, 58
2, 46907, Note_on_c, 0, 47, 0
2, 46917, Note_on_c, 0, 51, 58
2, 47027, Note_on_c, 0, 51, 0
2, 47037, Note_on_c, 0, 44, 58
2, 47147, Note_on_c, 0, 44, 0
2, 47157, Note_on_c, 0, 51, 58
2, 47267, Note_on_c, 0, 51, 0
2, 47267, Note_on_c, 0, 75, 0
2, 47267, Note_on_c, 0, 87, 0
2, 47277, Note_on_c, 0, 87, 63
2, 47277, Note_on_c, 0, 47, 58
2, 47279, Note_on_c, 0, 75, 63
2, 47387, Note_on_c, 0, 47, 0
2, 47397, Note_on_c, 0, 51, 58
2, 47507, Note_on_c, 0, 51, 0
2, 47517, Note_on_c, 0, 44, 58
2, 47627, Note_on_c, 0, 44, 0
2, 47637, Note_on_c, 0, 51, 58
2, 47750, Note_on_c, 0, 51, 0
2, 47750, Note_on_c, 0, 75, 0
2, 47750, Note_on_c, 0, 87, 0
2, 47760, Note_on_c, 0, 87, 63
2, 47760, Note_on_c, 0, 47, 58
2, 47760, Note_on_c, 0, 75, 63
2, 47870, Note_on_c, 0, 47, 0
2, 47880, Note_on_c, 0, 51, 58
2, 47967, Note_on_c, 0, 51, 0
2, 47967, Note_on_c, 0, 75, 0
2, 47967, Note_on_c, 0, 87, 0
2, 47977, Note_on_c, 0, 83, 63
2, 47979, Note_on_c, 0, 71, 63
2, 48000, Note_on_c, 0, 44, 58
2, 48107, Note_on_c, 0, 44, 0
2, 48117, Note_on_c, 0, 51, 58
2, 48210, Note_on_c, 0, 51, 0
2, 48210, Note_on_c, 0, 71, 0
2, 48210, Note_on_c, 0, 83, 0
2, 48220, Note_on_c, 0, 80, 63
2, 48220, Note_on_c, 0, 68, 63
2, 48237, Note_on_c, 0, 47, 58
2, 48347, Note_on_c, 0, 47, 0
2, 48357, Note_on_c, 0, 51, 58
2, 48450, Note_on_c, 0, 51, 0
2, 48450, Note_on_c, 0, 68, 0
2, 48450, Note_on_c, 0, 80, 0
2, 48460, Note_on_c, 0, 80, 63
2, 48460, Note_on_c, 0, 68, 63
2, 48477, Note_on_c, 0, 46, 58
2, 48587, Note_on_c, 0, 46, 0
2, 48597, Note_on_c, 0, 51, 58
2, 48687, Note_on_c, 0, 68, 0
2, 48687, Note_on_c, 0, 80, 0
2, 48690, Note_on_c, 0, 51, 0
2, 48697, Note_on_c, 0, 79, 63
2, 48700, Note_on_c, 0, 67, 63
2, 48717, Note_on_c, 0, 49, 58
2, 48827, Note_on_c, 0, 49, 0
2, 48837, Note_on_c, 0, 51, 58
2, 48947, Note_on_c, 0, 51, 0
2, 48957, Note_on_c, 0, 46, 58
2, 49070, Note_on_c, 0, 46, 0
2, 49080, Note_on_c, 0, 51, 58
2, 49190, Note_on_c, 0, 51, 0
2, 49190, Note_on_c, 0, 67, 0
2, 49190, Note_on_c, 0, 79, 0
2, 49200, Note_on_c, 0, 79, 63
2, 49200, Note_on_c, 0, 49, 58
2, 49200, Note_on_c, 0, 67, 63
2, 49310, Note_on_c, 0, 49, 0
2, 49320, Note_on_c, 0, 51, 58
2, 49427, Note_on_c, 0, 51, 0
2, 49437, Note_on_c, 0, 46, 58
2, 49547, Note_on_c, 0, 46, 0
2, 49557, Note_on_c, 0, 51, 58
2, 49667, Note_on_c, 0, 51, 0
2, 49667, Note_on_c, 0, 67, 0
2, 49667, Note_on_c, 0, 79, 0
2, 49677, Note_on_c, 0, 79, 63
2, 49679, Note_on_c, 0, 49, 58
2, 49679, Note_on_c, 0, 67, 63
2, 49787, Note_on_c, 0, 49, 0
2, 49797, Note_on_c, 0, 51, 58
2, 49887, Note_on_c, 0, 67, 0
2, 49887, Note_on_c, 0, 79, 0
2, 49890, Note_on_c, 0, 51, 0
2, 49897, Note_on_c, 0, 87, 63
2, 49900, Note_on_c, 0, 75, 63
2, 49917, Note_on_c, 0, 46, 58
2, 50027, Note_on_c, 0, 46, 0
2, 50037, Note_on_c, 0, 51, 58
2, 50127, Note_on_c, 0, 75, 0
2, 50127, Note_on_c, 0, 87, 0
2, 50129, Note_on_c, 0, 51, 0
2, 50137, Note_on_c, 0, 79, 63
2, 50139, Note_on_c, 0, 67, 63
2, 50157, Note_on_c, 0, 49, 58
2, 50267, Note_on_c, 0, 49, 0
2, 50277, Note_on_c, 0, 51, 58
2, 50367, Note_on_c, 0, 67, 0
2, 50367, Note_on_c, 0, 79, 0
2, 50369, Note_on_c, 0, 51, 0
2, 50377, Note_on_c, 0, 82, 63
2, 50379, Note_on_c, 0, 70, 63
2, 50400, Note_on_c, 0, 47, 58
2, 50510, Note_on_c, 0, 47, 0
2, 50520, Note_on_c, 0, 51, 58
2, 50607, Note_on_c, 0, 51, 0
2, 50607, Note_on_c, 0, 70, 0
2, 50607, Note_on_c, 0, 82, 0
2, 50617, Note_on_c, 0, 80, 63
2, 50619, Note_on_c, 0, 68, 63
2, 50640, Note_on_c, 0, 47, 58
2, 50747, Note_on_c, 0, 47, 0
2, 50757, Note_on_c, 0, 51, 58
2, 50867, Note_on_c, 0, 51, 0
2, 50877, Note_on_c, 0, 47, 58
2, 50987, Note_on_c, 0, 47, 0
2, 50997, Note_on_c, 0, 51, 58
2, 51107, Note_on_c, 0, 51, 0
2, 51107, Note_on_c, 0, 68, 0
2, 51107, Note_on_c, 0, 80, 0
2, 51117, Note_on_c, 0, 80, 63
2, 51119, Note_on_c, 0, 47, 58
2, 51119, Note_on_c, 0, 68, 63
2, 51227, Note_on_c, 0, 47, 0
2, 51237, Note_on_c, 0, 51, 58
2, 51347, Note_on_c, 0, 51, 0
2, 51357, Note_on_c, 0, 47, 58
2, 51467, Note_on_c, 0, 47, 0
2, 51477, Note_on_c, 0, 51, 58
2, 51587, Note_on_c, 0, 51, 0
2, 51587, Note_on_c, 0, 68, 0
2, 51587, Note_on_c, 0, 80, 0
2, 51597, Note_on_c, 0, 80, 63
2, 51597, Note_on_c, 0, 47, 58
2, 51599, Note_on_c, 0, 68, 63
2, 51707, Note_on_c, 0, 47, 0
2, 51717, Note_on_c, 0, 51, 58
2, 51807, Note_on_c, 0, 51, 0
2, 51807, Note_on_c, 0, 68, 0
2, 51807, Note_on_c, 0, 80, 0
2, 51817, Note_on_c, 0, 87, 63
2, 51819, Note_on_c, 0, 75, 63
2, 51840, Note_on_c, 0, 47, 58
2, 51950, Note_on_c, 0, 47, 0
2, 51960, Note_on_c, 0, 51, 58
2, 52047, Note_on_c, 0, 51, 0
2, 52047, Note_on_c, 0, 75, 0
2, 52047, Note_on_c, 0, 87, 0
2, 52057, Note_on_c, 0, 80, 63
2, 52059, Note_on_c, 0, 68, 63
2, 52080, Note_on_c, 0, 47, 58
2, 52187, Note_on_c, 0, 47, 0
2, 52197, Note_on_c, 0, 51, 58
2, 52290, Note_on_c, 0, 51, 0
2, 52290, Note_on_c, 0, 68, 0
2, 52290, Note_on_c, 0, 80, 0
2, 52300, Note_on_c, 0, 83, 63
2, 52300, Note_on_c, 0, 71, 63
2, 52317, Note_on_c, 0, 43, 58
2, 52427, Note_on_c, 0, 43, 0
2, 52437, Note_on_c, 0, 51, 58
2, 52530, Note_on_c, 0, 51, 0
2, 52530, Note_on_c, 0, 71, 0
2, 52530, Note_on_c, 0, 83, 0
2, 52540, Note_on_c, 0, 82, 63
2, 52540, Note_on_c, 0, 70, 63
2, 52557, Note_on_c, 0, 43, 58
2, 52667, Note_on_c, 0, 43, 0
2, 52677, Note_on_c, 0, 51, 58
2, 52787, Note_on_c, 0, 51, 0
2, 52797, Note_on_c, 0, 43, 58
2, 52907, Note_on_c, 0, 43, 0
2, 52917, Note_on_c, 0, 51, 58
2, 53027, Note_on_c, 0, 51, 0
2, 53027, Note_on_c, 0, 70, 0
2, 53027, Note_on_c, 0, 82, 0
2, 53037, Note_on_c, 0, 82, 63
2, 53037, Note_on_c, 0, 43, 58
2, 53039, Note_on_c, 0, 70, 63
2, 53150, Note_on_c, 0, 43, 0
2, 53160, Note_on_c, 0, 51, 58
2, 53270, Note_on_c, 0, 51, 0
2, 53280, Note_on_c, 0, 43, 58
2, 53390, Note_on_c, 0, 43, 0
2, 53400, Note_on_c, 0, 51, 58
2, 53507, Note_on_c, 0, 51, 0
2, 53507, Note_on_c, 0, 70, 0
2, 53507, Note_on_c, 0, 82, 0
2, 53517, Note_on_c, 0, 82, 63
2, 53520, Note_on_c, 0, 43, 58
2, 53520, Note_on_c, 0, 70, 63
2, 53627, Note_on_c, 0, 43, 0
2, 53637, Note_on_c, 0, 51, 58
2, 53730, Note_on_c, 0, 51, 0
2, 53730, Note_on_c, 0, 70, 0
2, 53730, Note_on_c, 0, 82, 0
2, 53740, Note_on_c, 0, 87, 63
2, 53740, Note_on_c, 0, 75, 63
2, 53757, Note_on_c, 0, 43, 58
2, 53867, Note_on_c, 0, 43, 0
2, 53877, Note_on_c, 0, 51, 58
2, 53967, Note_on_c, 0, 75, 0
2, 53967, Note_on_c, 0, 87, 0
2, 53970, Note_on_c, 0, 51, 0
2, 53977, Note_on_c, 0, 82, 63
2, 53980, Note_on_c, 0, 70, 63
2, 53997, Note_on_c, 0, 43, 58
2, 54107, Note_on_c, 0, 43, 0
2, 54117, Note_on_c, 0, 51, 58
2, 54207, Note_on_c, 0, 70, 0
2, 54207, Note_on_c, 0, 82, 0
2, 54209, Note_on_c, 0, 51, 0
2, 54217, Note_on_c, 0, 84, 79
2, 54219, Note_on_c, 0, 72, 79
2, 54237, Note_on_c, 0, 42, 58
2, 54347, Note_on_c, 0, 42, 0
2, 54357, Note_on_c, 0, 51, 58
2, 54470, Note_on_c, 0, 51, 0
2, 54480, Note_on_c, 0, 44, 58
2, 54590, Note_on_c, 0, 44, 0
2, 54600, Note_on_c, 0, 51, 58
2, 54710, Note_on_c, 0, 51, 0
2, 54720, Note_on_c, 0, 42, 58
2, 54827, Note_on_c, 0, 42, 0
2, 54837, Note_on_c, 0, 51, 58
2, 54947, Note_on_c, 0, 51, 0
2, 54957, Note_on_c, 0, 44, 58
2, 55067, Note_on_c, 0, 44, 0
2, 55077, Note_on_c, 0, 51, 58
2, 55187, Note_on_c, 0, 51, 0
2, 55187, Note_on_c, 0, 72, 0
2, 55187, Note_on_c, 0, 84, 0
2, 55197, Note_on_c, 0, 85, 79
2, 55199, Note_on_c, 0, 40, 58
2, 55199, Note_on_c, 0, 73, 79
2, 55307, Note_on_c, 0, 40, 0
2, 55317, Note_on_c, 0, 49, 58
2, 55427, Note_on_c, 0, 49, 0
2, 55437, Note_on_c, 0, 44, 58
2, 55547, Note_on_c, 0, 44, 0
2, 55557, Note_on_c, 0, 49, 58
2, 55667, Note_on_c, 0, 49, 0
2, 55677, Note_on_c, 0, 40, 58
2, 55790, Note_on_c, 0, 40, 0
2, 55800, Note_on_c, 0, 49, 58
2, 55910, Note_on_c, 0, 49, 0
2, 55920, Note_on_c, 0, 44, 58
2, 56030, Note_on_c, 0, 44, 0
2, 56040, Note_on_c, 0, 49, 58
2, 56147, Note_on_c, 0, 49, 0
2, 56147, Note_on_c, 0, 73, 0
2, 56147, Note_on_c, 0, 85, 0
2, 56157, Note_on_c, 0, 82, 71
2, 56160, Note_on_c, 0, 40, 58
2, 56160, Note_on_c, 0, 70, 71
2, 56227, Note_on_c, 0, 82, 0
2, 56237, Note_on_c, 0, 83, 71
2, 56267, Note_on_c, 0, 40, 0
2, 56277, Note_on_c, 0, 49, 58
2, 56310, Note_on_c, 0, 83, 0
2, 56320, Note_on_c, 0, 82, 71
2, 56387, Note_on_c, 0, 82, 0
2, 56387, Note_on_c, 0, 49, 0
2, 56397, Note_on_c, 0, 80, 71
2, 56399, Note_on_c, 0, 42, 58
2, 56507, Note_on_c, 0, 42, 0
2, 56507, Note_on_c, 0, 80, 0
2, 56517, Note_on_c, 0, 82, 71
2, 56519, Note_on_c, 0, 49, 58
2, 56627, Note_on_c, 0, 49, 0
2, 56627, Note_on_c, 0, 82, 0
2, 56627, Note_on_c, 0, 70, 0
2, 56637, Note_on_c, 0, 83, 79
2, 56639, Note_on_c, 0, 39, 58
2, 56639, Note_on_c, 0, 71, 79
2, 56747, Note_on_c, 0, 39, 0
2, 56757, Note_on_c, 0, 47, 58
2, 56867, Note_on_c, 0, 47, 0
2, 56877, Note_on_c, 0, 42, 58
2, 56987, Note_on_c, 0, 42, 0
2, 56997, Note_on_c, 0, 47, 58
2, 57107, Note_on_c, 0, 47, 0
2, 57117, Note_on_c, 0, 39, 58
2, 57230, Note_on_c, 0, 39, 0
2, 57240, Note_on_c, 0, 47, 58
2, 57350, Note_on_c, 0, 47, 0
2, 57360, Note_on_c, 0, 42, 58
2, 57470, Note_on_c, 0, 42, 0
2, 57480, Note_on_c, 0, 47, 58
2, 57587, Note_on_c, 0, 47, 0
2, 57597, Note_on_c, 0, 39, 58
2, 57707, Note_on_c, 0, 39, 0
2, 57717, Note_on_c, 0, 47, 58
2, 57827, Note_on_c, 0, 47, 0
2, 57837, Note_on_c, 0, 42, 58
2, 57947, Note_on_c, 0, 42, 0
2, 57957, Note_on_c, 0, 47, 58
2, 58067, Note_on_c, 0, 47, 0
2, 58067, Note_on_c, 0, 71, 0
2, 58067, Note_on_c, 0, 83, 0
2, 58077, Note_on_c, 0, 80, 79
2, 58077, Note_on_c, 0, 38, 58
2, 58079, Note_on_c, 0, 68, 79
2, 58187, Note_on_c, 0, 38, 0
2, 58197, Note_on_c, 0, 47, 58
2, 58307, Note_on_c, 0, 47, 0
2, 58317, Note_on_c, 0, 40, 58
2, 58427, Note_on_c, 0, 40, 0
2, 58437, Note_on_c, 0, 47, 58
2, 58550, Note_on_c, 0, 47, 0
2, 58560, Note_on_c, 0, 38, 58
2, 58670, Note_on_c, 0, 38, 0
2, 58680, Note_on_c, 0, 47, 58
2, 58790, Note_on_c, 0, 47, 0
2, 58800, Note_on_c, 0, 40, 58
2, 58907, Note_on_c, 0, 40, 0
2, 58917, Note_on_c, 0, 47, 58
2, 59027, Note_on_c, 0, 47, 0
2, 59027, Note_on_c, 0, 68, 0
2, 59027, Note_on_c, 0, 80, 0
2, 59037, Note_on_c, 0, 81, 79
2, 59039, Note_on_c, 0, 37, 58
2, 59039, Note_on_c, 0, 69, 79
2, 59147, Note_on_c, 0, 37, 0
2, 59157, Note_on_c, 0, 45, 58
2, 59267, Note_on_c, 0, 45, 0
2, 59277, Note_on_c, 0, 40, 58
2, 59387, Note_on_c, 0, 40, 0
2, 59397, Note_on_c, 0, 45, 58
2, 59507, Note_on_c, 0, 45, 0
2, 59517, Note_on_c, 0, 37, 58
2, 59627, Note_on_c, 0, 37, 0
2, 59637, Note_on_c, 0, 45, 58
2, 59747, Note_on_c, 0, 45, 0
2, 59757, Note_on_c, 0, 40, 58
2, 59870, Note_on_c, 0, 40, 0
2, 59880, Note_on_c, 0, 45, 58
2, 59987, Note_on_c, 0, 45, 0
2, 59987, Note_on_c, 0, 69, 0
2, 59987, Note_on_c, 0, 81, 0
2, 59997, Note_on_c, 0, 79, 71
2, 59997, Note_on_c, 0, 37, 58
2, 59997, Note_on_c, 0, 67, 71
2, 60067, Note_on_c, 0, 79, 0
2, 60077, Note_on_c, 0, 80, 71
2, 60110, Note_on_c, 0, 37, 0
2, 60120, Note_on_c, 0, 46, 58
2, 60147, Note_on_c, 0, 80, 0
2, 60157, Note_on_c, 0, 79, 71
2, 60227, Note_on_c, 0, 79, 0
2, 60227, Note_on_c, 0, 46, 0
2, 60237, Note_on_c, 0, 77, 71
2, 60240, Note_on_c, 0, 39, 58
2, 60347, Note_on_c, 0, 39, 0
2, 60347, Note_on_c, 0, 77, 0
2, 60357, Note_on_c, 0, 79, 71
2, 60359, Note_on_c, 0, 46, 58
2, 60467, Note_on_c, 0, 46, 0
2, 60467, Note_on_c, 0, 79, 0
2, 60467, Note_on_c, 0, 67, 0
2, 60477, Note_on_c, 0, 80, 79
2, 60479, Note_on_c, 0, 35, 58
2, 60479, Note_on_c, 0, 68, 79
2, 60587, Note_on_c, 0, 35, 0
2, 60597, Note_on_c, 0, 44, 58
2, 60707, Note_on_c, 0, 44, 0
2, 60717, Note_on_c, 0, 39, 58
2, 60827, Note_on_c, 0, 39, 0
2, 60837, Note_on_c, 0, 44, 58
2, 60947, Note_on_c, 0, 44, 0
2, 60957, Note_on_c, 0, 35, 58
2, 61067, Note_on_c, 0, 35, 0
2, 61077, Note_on_c, 0, 44, 58
2, 61187, Note_on_c, 0, 44, 0
2, 61197, Note_on_c, 0, 39, 58
2, 61307, Note_on_c, 0, 39, 0
2, 61317, Note_on_c, 0, 44, 58
2, 61430, Note_on_c, 0, 44, 0
2, 61440, Note_on_c, 0, 35, 58
2, 61550, Note_on_c, 0, 35, 0
2, 61560, Note_on_c, 0, 44, 58
2, 61667, Note_on_c, 0, 44, 0
2, 61677, Note_on_c, 0, 39, 58
2, 61787, Note_on_c, 0, 39, 0
2, 61797, Note_on_c, 0, 44, 58
2, 61893, Note_on_c, 0, 44, 0
2, 61893, Note_on_c, 0, 68, 0
2, 61893, Note_on_c, 0, 80, 0
2, 61903, Note_on_c, 0, 69, 87
2, 61903, Note_on_c, 0, 49, 87
2, 61907, Note_on_c, 0, 45, 87
2, 61907, Note_on_c, 0, 40, 87
2, 61907, Note_on_c, 0, 37, 87
2, 61917, Note_on_c, 0, 81, 87
2, 61919, Note_on_c, 0, 76, 87
2, 61919, Note_on_c, 0, 73, 87
2, 62987, Note_on_c, 0, 73, 0
2, 62987, Note_on_c, 0, 76, 0
2, 62987, Note_on_c, 0, 69, 0
2, 62987, Note_on_c, 0, 81, 0
2, 62997, Note_on_c, 0, 76, 58
2, 63107, Note_on_c, 0, 76, 0
2, 63117, Note_on_c, 0, 78, 58
2, 63227, Note_on_c, 0, 78, 0
2, 63237, Note_on_c, 0, 80, 58
2, 63347, Note_on_c, 0, 80, 0
2, 63347, Note_on_c, 0, 49, 0
2, 63347, Note_on_c, 0, 37, 0
2, 63347, Note_on_c, 0, 45, 0
2, 63347, Note_on_c, 0, 40, 0
2, 63357, Note_on_c, 0, 81, 58
2, 63467, Note_on_c, 0, 81, 0
2, 63477, Note_on_c, 0, 83, 58
2, 63587, Note_on_c, 0, 83, 0
2, 63597, Note_on_c, 0, 85, 58
2, 63707, Note_on_c, 0, 85, 0
2, 63717, Note_on_c, 0, 83, 58
2, 63809, Note_on_c, 0, 83, 0
2, 63819, Note_on_c, 0, 69, 58
2, 63819, Note_on_c, 0, 64, 58
2, 63819, Note_on_c, 0, 61, 58
2, 63837, Note_on_c, 0, 81, 58
2, 63950, Note_on_c, 0, 81, 0
2, 63960, Note_on_c, 0, 76, 58
2, 64070, Note_on_c, 0, 76, 0
2, 64080, Note_on_c, 0, 78, 58
2, 64190, Note_on_c, 0, 78, 0
2, 64200, Note_on_c, 0, 80, 58
2, 64310, Note_on_c, 0, 80, 0
2, 64310, Note_on_c, 0, 61, 0
2, 64310, Note_on_c, 0, 64, 0
2, 64310, Note_on_c, 0, 69, 0
2, 64320, Note_on_c, 0, 81, 58
2, 64427, Note_on_c, 0, 81, 0
2, 64437, Note_on_c, 0, 83, 58
2, 64547, Note_on_c, 0, 83, 0
2, 64557, Note_on_c, 0, 85, 58
2, 64667, Note_on_c, 0, 85, 0
2, 64677, Note_on_c, 0, 83, 58
2, 64770, Note_on_c, 0, 83, 0
2, 64780, Note_on_c, 0, 69, 58
2, 64780, Note_on_c, 0, 64, 58
2, 64783, Note_on_c, 0, 61, 58
2, 64797, Note_on_c, 0, 81, 58
2, 64907, Note_on_c, 0, 81, 0
2, 64917, Note_on_c, 0, 76, 58
2, 65027, Note_on_c, 0, 76, 0
2, 65037, Note_on_c, 0, 78, 58
2, 65147, Note_on_c, 0, 78, 0
2, 65157, Note_on_c, 0, 80, 58
2, 65267, Note_on_c, 0, 80, 0
2, 65267, Note_on_c, 0, 61, 0
2, 65267, Note_on_c, 0, 64, 0
2, 65267, Note_on_c, 0, 69, 0
2, 65277, Note_on_c, 0, 81, 58
2, 65390, Note_on_c, 0, 81, 0
2, 65400, Note_on_c, 0, 83, 58
2, 65510, Note_on_c, 0, 83, 0
2, 65520, Note_on_c, 0, 85, 58
2, 65630, Note_on_c, 0, 85, 0
2, 65640, Note_on_c, 0, 83, 58
2, 65727, Note_on_c, 0, 83, 0
2, 65737, Note_on_c, 0, 69, 58
2, 65739, Note_on_c, 0, 64, 58
2, 65739, Note_on_c, 0, 61, 58
2, 65757, Note_on_c, 0, 81, 58
2, 65867, Note_on_c, 0, 81, 0
2, 65877, Note_on_c, 0, 76, 58
2, 65987, Note_on_c, 0, 76, 0
2, 65997, Note_on_c, 0, 78, 58
2, 66107, Note_on_c, 0, 78, 0
2, 66117, Note_on_c, 0, 80, 58
2, 66227, Note_on_c, 0, 80, 0
2, 66227, Note_on_c, 0, 61, 0
2, 66227, Note_on_c, 0, 64, 0
2, 66227, Note_on_c, 0, 69, 0
2, 66237, Note_on_c, 0, 81, 58
2, 66237, Note_on_c, 0, 69, 58
2, 66239, Note_on_c, 0, 64, 58
2, 66239, Note_on_c, 0, 61, 58
2, 66347, Note_on_c, 0, 81, 0
2, 66357, Note_on_c, 0, 83, 58
2, 66467, Note_on_c, 0, 83, 0
2, 66477, Note_on_c, 0, 85, 58
2, 66587, Note_on_c, 0, 85, 0
2, 66597, Note_on_c, 0, 86, 58
2, 66710, Note_on_c, 0, 86, 0
2, 66710, Note_on_c, 0, 61, 0
2, 66710, Note_on_c, 0, 64, 0
2, 66710, Note_on_c, 0, 69, 0
2, 66720, Note_on_c, 0, 88, 59
2, 66720, Note_on_c, 0, 69, 58
2, 66723, Note_on_c, 0, 64, 58
2, 66723, Note_on_c, 0, 61, 58
2, 66830, Note_on_c, 0, 88, 0
2, 66840, Note_on_c, 0, 87, 59
2, 66950, Note_on_c, 0, 87, 0
2, 66960, Note_on_c, 0, 88, 59
2, 67067, Note_on_c, 0, 88, 0
2, 67077, Note_on_c, 0, 87, 59
2, 67187, Note_on_c, 0, 87, 0
2, 67187, Note_on_c, 0, 61, 0
2, 67187, Note_on_c, 0, 64, 0
2, 67187, Note_on_c, 0, 69, 0
2, 67197, Note_on_c, 0, 88, 61
2, 67199, Note_on_c, 0, 69, 58
2, 67199, Note_on_c, 0, 64, 58
2, 67202, Note_on_c, 0, 61, 58
2, 67307, Note_on_c, 0, 88, 0
2, 67317, Note_on_c, 0, 85, 61
2, 67427, Note_on_c, 0, 85, 0
2, 67437, Note_on_c, 0, 83, 61
2, 67547, Note_on_c, 0, 83, 0
2, 67557, Note_on_c, 0, 81, 61
2, 67667, Note_on_c, 0, 81, 0
2, 67667, Note_on_c, 0, 61, 0
2, 67667, Note_on_c, 0, 64, 0
2, 67667, Note_on_c, 0, 69, 0
2, 67677, Note_on_c, 0, 80, 58
2, 67677, Note_on_c, 0, 63, 58
2, 67787, Note_on_c, 0, 63, 0
2, 67797, Note_on_c, 0, 71, 58
2, 67907, Note_on_c, 0, 71, 0
2, 67917, Note_on_c, 0, 68, 58
2, 68030, Note_on_c, 0, 68, 0
2, 68040, Note_on_c, 0, 71, 58
2, 68150, Note_on_c, 0, 71, 0
2, 68160, Note_on_c, 0, 63, 58
2, 68270, Note_on_c, 0, 63, 0
2, 68280, Note_on_c, 0, 71, 58
2, 68387, Note_on_c, 0, 71, 0
2, 68397, Note_on_c, 0, 68, 58
2, 68507, Note_on_c, 0, 68, 0
2, 68517, Note_on_c, 0, 71, 58
2, 68627, Note_on_c, 0, 71, 0
2, 68627, Note_on_c, 0, 80, 0
2, 68637, Note_on_c, 0, 82, 58
2, 68639, Note_on_c, 0, 63, 58
2, 68707, Note_on_c, 0, 82, 0
2, 68717, Note_on_c, 0, 83, 58
2, 68747, Note_on_c, 0, 63, 0
2, 68757, Note_on_c, 0, 73, 58
2, 68790, Note_on_c, 0, 83, 0
2, 68800, Note_on_c, 0, 82, 58
2, 68867, Note_on_c, 0, 82, 0
2, 68867, Note_on_c, 0, 73, 0
2, 68877, Note_on_c, 0, 83, 58
2, 68879, Note_on_c, 0, 67, 58
2, 68950, Note_on_c, 0, 83, 0
2, 68960, Note_on_c, 0, 82, 58
2, 68987, Note_on_c, 0, 67, 0
2, 68997, Note_on_c, 0, 73, 58
2, 69027, Note_on_c, 0, 82, 0
2, 69037, Note_on_c, 0, 83, 58
2, 69107, Note_on_c, 0, 83, 0
2, 69107, Note_on_c, 0, 73, 0
2, 69117, Note_on_c, 0, 82, 58
2, 69117, Note_on_c, 0, 63, 58
2, 69190, Note_on_c, 0, 82, 0
2, 69200, Note_on_c, 0, 83, 58
2, 69227, Note_on_c, 0, 63, 0
2, 69237, Note_on_c, 0, 73, 58
2, 69267, Note_on_c, 0, 83, 0
2, 69277, Note_on_c, 0, 82, 58
2, 69347, Note_on_c, 0, 82, 0
2, 69347, Note_on_c, 0, 73, 0
2, 69357, Note_on_c, 0, 80, 58
2, 69357, Note_on_c, 0, 67, 58
2, 69470, Note_on_c, 0, 67, 0
2, 69470, Note_on_c, 0, 80, 0
2, 69480, Note_on_c, 0, 82, 58
2, 69480, Note_on_c, 0, 73, 58
2, 69569, Note_on_c, 0, 73, 0
2, 69569, Note_on_c, 0, 82, 0
2, 69579, Note_on_c, 0, 68, 58
2, 69579, Note_on_c, 0, 64, 58
2, 69600, Note_on_c, 0, 80, 58
2, 69600, Note_on_c, 0, 71, 58
2, 70050, Note_on_c, 0, 71, 0
2, 70050, Note_on_c, 0, 68, 0
2, 70050, Note_on_c, 0, 64, 0
2, 70050, Note_on_c, 0, 80, 0
2, 70060, Note_on_c, 0, 69, 87
2, 70060, Note_on_c, 0, 64, 87
2, 70060, Note_on_c, 0, 61, 87
2, 70067, Note_on_c, 0, 57, 87
2, 70067, Note_on_c, 0, 49, 87
2, 70070, Note_on_c, 0, 45, 87
2, 70070, Note_on_c, 0, 40, 87
2, 70070, Note_on_c, 0, 37, 87
2, 70667, Note_on_c, 0, 57, 0
2, 70667, Note_on_c, 0, 61, 0
2, 70667, Note_on_c, 0, 69, 0
2, 70667, Note_on_c, 0, 64, 0
2, 70677, Note_on_c, 0, 64, 58
2, 70790, Note_on_c, 0, 64, 0
2, 70800, Note_on_c, 0, 66, 58
2, 70910, Note_on_c, 0, 66, 0
2, 70920, Note_on_c, 0, 68, 58
2, 71030, Note_on_c, 0, 68, 0
2, 71030, Note_on_c, 0, 40, 0
2, 71030, Note_on_c, 0, 37, 0
2, 71030, Note_on_c, 0, 45, 0
2, 71030, Note_on_c, 0, 49, 0
2, 71040, Note_on_c, 0, 69, 58
2, 71147, Note_on_c, 0, 69, 0
2, 71157, Note_on_c, 0, 71, 58
2, 71267, Note_on_c, 0, 71, 0
2, 71277, Note_on_c, 0, 73, 58
2, 71387, Note_on_c, 0, 73, 0
2, 71397, Note_on_c, 0, 71, 58
2, 71507, Note_on_c, 0, 71, 0
2, 71517, Note_on_c, 0, 69, 58
2, 71627, Note_on_c, 0, 69, 0
2, 71637, Note_on_c, 0, 64, 58
2, 71747, Note_on_c, 0, 64, 0
2, 71757, Note_on_c, 0, 66, 58
2, 71867, Note_on_c, 0, 66, 0
2, 71877, Note_on_c, 0, 68, 58
2, 71969, Note_on_c, 0, 68, 0
2, 71979, Note_on_c, 0, 57, 58
2, 71979, Note_on_c, 0, 52, 58
2, 71979, Note_on_c, 0, 49, 58
2, 71997, Note_on_c, 0, 69, 58
2, 72110, Note_on_c, 0, 69, 0
2, 72120, Note_on_c, 0, 71, 58
2, 72230, Note_on_c, 0, 71, 0
2, 72240, Note_on_c, 0, 73, 58
2, 72350, Note_on_c, 0, 73, 0
2, 72360, Note_on_c, 0, 71, 58
2, 72467, Note_on_c, 0, 71, 0
2, 72467, Note_on_c, 0, 49, 0
2, 72467, Note_on_c, 0, 52, 0
2, 72467, Note_on_c, 0, 57, 0
2, 72477, Note_on_c, 0, 69, 58
2, 72587, Note_on_c, 0, 69, 0
2, 72597, Note_on_c, 0, 64, 58
2, 72707, Note_on_c, 0, 64, 0
2, 72717, Note_on_c, 0, 66, 58
2, 72827, Note_on_c, 0, 66, 0
2, 72837, Note_on_c, 0, 68, 58
2, 72930, Note_on_c, 0, 68, 0
2, 72940, Note_on_c, 0, 57, 58
2, 72940, Note_on_c, 0, 52, 58
2, 72943, Note_on_c, 0, 49, 58
2, 72957, Note_on_c, 0, 69, 58
2, 73067, Note_on_c, 0, 69, 0
2, 73077, Note_on_c, 0, 71, 58
2, 73187, Note_on_c, 0, 71, 0
2, 73197, Note_on_c, 0, 73, 58
2, 73307, Note_on_c, 0, 73, 0
2, 73317, Note_on_c, 0, 71, 58
2, 73430, Note_on_c, 0, 71, 0
2, 73430, Note_on_c, 0, 49, 0
2, 73430, Note_on_c, 0, 52, 0
2, 73430, Note_on_c, 0, 57, 0
2, 73440, Note_on_c, 0, 69, 58
2, 73550, Note_on_c, 0, 69, 0
2, 73560, Note_on_c, 0, 64, 58
2, 73647, Note_on_c, 0, 64, 0
2, 73657, Note_on_c, 0, 57, 58
2, 73659, Note_on_c, 0, 52, 58
2, 73659, Note_on_c, 0, 49, 58
2, 73680, Note_on_c, 0, 66, 58
2, 73787, Note_on_c, 0, 66, 0
2, 73797, Note_on_c, 0, 68, 58
2, 73907, Note_on_c, 0, 68, 0
2, 73907, Note_on_c, 0, 49, 0
2, 73907, Note_on_c, 0, 52, 0
2, 73907, Note_on_c, 0, 57, 0
2, 73917, Note_on_c, 0, 69, 58
2, 74027, Note_on_c, 0, 69, 0
2, 74037, Note_on_c, 0, 71, 59
2, 74130, Note_on_c, 0, 71, 0
2, 74140, Note_on_c, 0, 57, 59
2, 74140, Note_on_c, 0, 52, 59
2, 74143, Note_on_c, 0, 49, 59
2, 74157, Note_on_c, 0, 73, 59
2, 74267, Note_on_c, 0, 73, 0
2, 74277, Note_on_c, 0, 71, 59
2, 74387, Note_on_c, 0, 71, 0
2, 74387, Note_on_c, 0, 49, 0
2, 74387, Note_on_c, 0, 52, 0
2, 74387, Note_on_c, 0, 57, 0
2, 74397, Note_on_c, 0, 69, 59
2, 74507, Note_on_c, 0, 69, 0
2, 74517, Note_on_c, 0, 64, 59
2, 74609, Note_on_c, 0, 64, 0
2, 74619, Note_on_c, 0, 57, 63
2, 74619, Note_on_c, 0, 52, 63
2, 74619, Note_on_c, 0, 49, 63
2, 74637, Note_on_c, 0, 66, 63
2, 74747, Note_on_c, 0, 66, 0
2, 74757, Note_on_c, 0, 68, 63
2, 74870, Note_on_c, 0, 68, 0
2, 74870, Note_on_c, 0, 49, 0
2, 74870, Note_on_c, 0, 52, 0
2, 74870, Note_on_c, 0, 57, 0
2, 74880, Note_on_c, 0, 69, 63
2, 74990, Note_on_c, 0, 69, 0
2, 75000, Note_on_c, 0, 71, 63
2, 75087, Note_on_c, 0, 71, 0
2, 75097, Note_on_c, 0, 57, 67
2, 75099, Note_on_c, 0, 52, 67
2, 75099, Note_on_c, 0, 49, 67
2, 75120, Note_on_c, 0, 73, 63
2, 75227, Note_on_c, 0, 73, 0
2, 75237, Note_on_c, 0, 71, 63
2, 75347, Note_on_c, 0, 71, 0
2, 75347, Note_on_c, 0, 49, 0
2, 75347, Note_on_c, 0, 52, 0
2, 75347, Note_on_c, 0, 57, 0
2, 75357, Note_on_c, 0, 69, 67
2, 75359, Note_on_c, 0, 57, 67
2, 75359, Note_on_c, 0, 52, 67
2, 75359, Note_on_c, 0, 49, 67
2, 75467, Note_on_c, 0, 69, 0
2, 75477, Note_on_c, 0, 64, 67
2, 75587, Note_on_c, 0, 64, 0
2, 75597, Note_on_c, 0, 66, 67
2, 75707, Note_on_c, 0, 66, 0
2, 75717, Note_on_c, 0, 68, 67
2, 75827, Note_on_c, 0, 68, 0
2, 75827, Note_on_c, 0, 49, 0
2, 75827, Note_on_c, 0, 52, 0
2, 75827, Note_on_c, 0, 57, 0
2, 75837, Note_on_c, 0, 69, 67
2, 75947, Note_on_c, 0, 69, 0
2, 75957, Note_on_c, 0, 71, 67
2, 76067, Note_on_c, 0, 71, 0
2, 76077, Note_on_c, 0, 73, 71
2, 76190, Note_on_c, 0, 73, 0
2, 76200, Note_on_c, 0, 74, 71
2, 76310, Note_on_c, 0, 74, 0
2, 76320, Note_on_c, 0, 76, 71
2, 76430, Note_on_c, 0, 76, 0
2, 76440, Note_on_c, 0, 78, 71
2, 76547, Note_on_c, 0, 78, 0
2, 76557, Note_on_c, 0, 80, 71
2, 76667, Note_on_c, 0, 80, 0
2, 76677, Note_on_c, 0, 81, 71
2, 76787, Note_on_c, 0, 81, 0
2, 76797, Note_on_c, 0, 83, 71
2, 76907, Note_on_c, 0, 83, 0
2, 76917, Note_on_c, 0, 85, 71
2, 77027, Note_on_c, 0, 85, 0
2, 77037, Note_on_c, 0, 86, 71
2, 77147, Note_on_c, 0, 86, 0
2, 77157, Note_on_c, 0, 87, 71
2, 77249, Note_on_c, 0, 87, 0
2, 77259, Note_on_c, 0, 76, 79
2, 77259, Note_on_c, 0, 49, 71
2, 77277, Note_on_c, 0, 88, 79
2, 77387, Note_on_c, 0, 49, 0
2, 77397, Note_on_c, 0, 57, 71
2, 77510, Note_on_c, 0, 57, 0
2, 77520, Note_on_c, 0, 52, 71
2, 77630, Note_on_c, 0, 52, 0
2, 77640, Note_on_c, 0, 57, 71
2, 77750, Note_on_c, 0, 57, 0
2, 77760, Note_on_c, 0, 49, 71
2, 77870, Note_on_c, 0, 49, 0
2, 77880, Note_on_c, 0, 57, 71
2, 77987, Note_on_c, 0, 57, 0
2, 77997, Note_on_c, 0, 52, 71
2, 78107, Note_on_c, 0, 52, 0
2, 78117, Note_on_c, 0, 57, 71
2, 78227, Note_on_c, 0, 57, 0
2, 78227, Note_on_c, 0, 88, 0
2, 78227, Note_on_c, 0, 76, 0
2, 78237, Note_on_c, 0, 80, 79
2, 78239, Note_on_c, 0, 68, 79
2, 78239, Note_on_c, 0, 50, 71
2, 78347, Note_on_c, 0, 50, 0
2, 78357, Note_on_c, 0, 59, 71
2, 78467, Note_on_c, 0, 59, 0
2, 78477, Note_on_c, 0, 53, 71
2, 78587, Note_on_c, 0, 53, 0
2, 78597, Note_on_c, 0, 59, 71
2, 78707, Note_on_c, 0, 59, 0
2, 78717, Note_on_c, 0, 50, 71
2, 78827, Note_on_c, 0, 50, 0
2, 78837, Note_on_c, 0, 59, 71
2, 78950, Note_on_c, 0, 59, 0
2, 78960, Note_on_c, 0, 53, 71
2, 79070, Note_on_c, 0, 53, 0
2, 79080, Note_on_c, 0, 59, 71
2, 79190, Note_on_c, 0, 59, 0
2, 79190, Note_on_c, 0, 68, 0
2, 79190, Note_on_c, 0, 80, 0
2, 79200, Note_on_c, 0, 83, 79
2, 79200, Note_on_c, 0, 71, 79
2, 79200, Note_on_c, 0, 51, 71
2, 79310, Note_on_c, 0, 51, 0
2, 79320, Note_on_c, 0, 59, 71
2, 79427, Note_on_c, 0, 59, 0
2, 79437, Note_on_c, 0, 56, 71
2, 79547, Note_on_c, 0, 56, 0
2, 79557, Note_on_c, 0, 59, 71
2, 79667, Note_on_c, 0, 59, 0
2, 79677, Note_on_c, 0, 51, 71
2, 79787, Note_on_c, 0, 51, 0
2, 79797, Note_on_c, 0, 59, 71
2, 79907, Note_on_c, 0, 59, 0
2, 79917, Note_on_c, 0, 56, 71
2, 80027, Note_on_c, 0, 56, 0
2, 80037, Note_on_c, 0, 59, 71
2, 80129, Note_on_c, 0, 59, 0
2, 80129, Note_on_c, 0, 71, 0
2, 80129, Note_on_c, 0, 83, 0
2, 80139, Note_on_c, 0, 61, 67
2, 80157, Note_on_c, 0, 67, 79
2, 80157, Note_on_c, 0, 55, 79
2, 80159, Note_on_c, 0, 39, 71
2, 80270, Note_on_c, 0, 39, 0
2, 80280, Note_on_c, 0, 51, 71
2, 80390, Note_on_c, 0, 51, 0
2, 80400, Note_on_c, 0, 50, 71
2, 80510, Note_on_c, 0, 50, 0
2, 80520, Note_on_c, 0, 51, 71
2, 80630, Note_on_c, 0, 51, 0
2, 80640, Note_on_c, 0, 50, 71
2, 80747, Note_on_c, 0, 50, 0
2, 80757, Note_on_c, 0, 51, 71
2, 80867, Note_on_c, 0, 51, 0
2, 80877, Note_on_c, 0, 50, 71
2, 80987, Note_on_c, 0, 50, 0
2, 80997, Note_on_c, 0, 51, 71
2, 81107, Note_on_c, 0, 51, 0
2, 81107, Note_on_c, 0, 55, 0
2, 81107, Note_on_c, 0, 67, 0
2, 81107, Note_on_c, 0, 61, 0
2, 81117, Note_on_c, 0, 68, 79
2, 81117, Note_on_c, 0, 59, 79
2, 81119, Note_on_c, 0, 56, 67
2, 81119, Note_on_c, 0, 44, 71
2, 81347, Note_on_c, 0, 44, 0
2, 81347, Note_on_c, 0, 68, 0
2, 81347, Note_on_c, 0, 59, 0
2, 81347, Note_on_c, 0, 56, 0
2, 81357, Note_on_c, 0, 71, 58
2, 81357, Note_on_c, 0, 63, 58
2, 81359, Note_on_c, 0, 56, 58
2, 81567, Note_on_c, 0, 56, 0
2, 81567, Note_on_c, 0, 63, 0
2, 81567, Note_on_c, 0, 71, 0
2, 81577, Note_on_c, 0, 71, 58
2, 81579, Note_on_c, 0, 63, 58
2, 81579, Note_on_c, 0, 56, 58
2, 81807, Note_on_c, 0, 56, 0
2, 81807, Note_on_c, 0, 63, 0
2, 81807, Note_on_c, 0, 71, 0
2, 81817, Note_on_c, 0, 71, 58
2, 81817, Note_on_c, 0, 63, 58
2, 81819, Note_on_c, 0, 56, 58
2, 82050, Note_on_c, 0, 56, 0
2, 82050, Note_on_c, 0, 63, 0
2, 82050, Note_on_c, 0, 71, 0
2, 82060, Note_on_c, 0, 71, 58
2, 82060, Note_on_c, 0, 63, 58
2, 82063, Note_on_c, 0, 56, 58
2, 82290, Note_on_c, 0, 56, 0
2, 82290, Note_on_c, 0, 63, 0
2, 82290, Note_on_c, 0, 71, 0
2, 82300, Note_on_c, 0, 71, 58
2, 82300, Note_on_c, 0, 63, 58
2, 82300, Note_on_c, 0, 56, 58
2, 82527, Note_on_c, 0, 56, 0
2, 82527, Note_on_c, 0, 63, 0
2, 82527, Note_on_c, 0, 71, 0
2, 82537, Note_on_c, 0, 70, 58
2, 82539, Note_on_c, 0, 63, 58
2, 82539, Note_on_c, 0, 58, 58
2, 82767, Note_on_c, 0, 58, 0
2, 82767, Note_on_c, 0, 63, 0
2, 82767, Note_on_c, 0, 70, 0
2, 82777, Note_on_c, 0, 68, 58
2, 82779, Note_on_c, 0, 63, 58
2, 82779, Note_on_c, 0, 59, 58
2, 83007, Note_on_c, 0, 59, 0
2, 83007, Note_on_c, 0, 63, 0
2, 83007, Note_on_c, 0, 68, 0
2, 83017, Note_on_c, 0, 67, 58
2, 83017, Note_on_c, 0, 63, 58
2, 83019, Note_on_c, 0, 61, 58
2, 83019, Note_on_c, 0, 51, 58
2, 83270, Note_on_c, 0, 51, 0
2, 83270, Note_on_c, 0, 67, 0
2, 83270, Note_on_c, 0, 63, 0
2, 83270, Note_on_c, 0, 61, 0
2, 83280, Note_on_c, 0, 75, 58
2, 83280, Note_on_c, 0, 67, 58
2, 83280, Note_on_c, 0, 61, 58
2, 83283, Note_on_c, 0, 63, 58
2, 83507, Note_on_c, 0, 63, 0
2, 83507, Note_on_c, 0, 75, 0
2, 83507, Note_on_c, 0, 67, 0
2, 83507, Note_on_c, 0, 61, 0
2, 83517, Note_on_c, 0, 75, 58
2, 83519, Note_on_c, 0, 67, 58
2, 83519, Note_on_c, 0, 61, 58
2, 83519, Note_on_c, 0, 63, 58
2, 83747, Note_on_c, 0, 63, 0
2, 83747, Note_on_c, 0, 75, 0
2, 83747, Note_on_c, 0, 67, 0
2, 83747, Note_on_c, 0, 61, 0
2, 83757, Note_on_c, 0, 75, 58
2, 83759, Note_on_c, 0, 67, 58
2, 83759, Note_on_c, 0, 61, 58
2, 83759, Note_on_c, 0, 63, 58
2, 83987, Note_on_c, 0, 63, 0
2, 83987, Note_on_c, 0, 75, 0
2, 83987, Note_on_c, 0, 67, 0
2, 83987, Note_on_c, 0, 61, 0
2, 83997, Note_on_c, 0, 75, 58
2, 83997, Note_on_c, 0, 67, 58
2, 83999, Note_on_c, 0, 61, 58
2, 83999, Note_on_c, 0, 63, 58
2, 84227, Note_on_c, 0, 63, 0
2, 84227, Note_on_c, 0, 75, 0
2, 84227, Note_on_c, 0, 67, 0
2, 84227, Note_on_c, 0, 61, 0
2, 84237, Note_on_c, 0, 75, 58
2, 84237, Note_on_c, 0, 67, 58
2, 84239, Note_on_c, 0, 61, 58
2, 84239, Note_on_c, 0, 63, 58
2, 84470, Note_on_c, 0, 63, 0
2, 84470, Note_on_c, 0, 75, 0
2, 84470, Note_on_c, 0, 67, 0
2, 84470, Note_on_c, 0, 61, 0
2, 84480, Note_on_c, 0, 75, 58
2, 84480, Note_on_c, 0, 68, 58
2, 84480, Note_on_c, 0, 59, 58
2, 84483, Note_on_c, 0, 63, 58
2, 84707, Note_on_c, 0, 63, 0
2, 84707, Note_on_c, 0, 75, 0
2, 84707, Note_on_c, 0, 68, 0
2, 84707, Note_on_c, 0, 59, 0
2, 84717, Note_on_c, 0, 75, 58
2, 84720, Note_on_c, 0, 70, 58
2, 84720, Note_on_c, 0, 58, 58
2, 84723, Note_on_c, 0, 63, 58
2, 84947, Note_on_c, 0, 63, 0
2, 84947, Note_on_c, 0, 75, 0
2, 84947, Note_on_c, 0, 70, 0
2, 84947, Note_on_c, 0, 58, 0
2, 84957, Note_on_c, 0, 75, 58
2, 84959, Note_on_c, 0, 71, 58
2, 84959, Note_on_c, 0, 56, 58
2, 84959, Note_on_c, 0, 44, 58
2, 85187, Note_on_c, 0, 44, 0
2, 85187, Note_on_c, 0, 75, 0
2, 85187, Note_on_c, 0, 71, 0
2, 85187, Note_on_c, 0, 56, 0
2, 85197, Note_on_c, 0, 71, 58
2, 85197, Note_on_c, 0, 63, 58
2, 85199, Note_on_c, 0, 56, 58
2, 85427, Note_on_c, 0, 56, 0
2, 85427, Note_on_c, 0, 63, 0
2, 85427, Note_on_c, 0, 71, 0
2, 85437, Note_on_c, 0, 71, 58
2, 85437, Note_on_c, 0, 63, 58
2, 85439, Note_on_c, 0, 56, 58
2, 85670, Note_on_c, 0, 56, 0
2, 85670, Note_on_c, 0, 63, 0
2, 85670, Note_on_c, 0, 71, 0
2, 85680, Note_on_c, 0, 71, 58
2, 85680, Note_on_c, 0, 63, 58
2, 85683, Note_on_c, 0, 56, 58
2, 85907, Note_on_c, 0, 56, 0
2, 85907, Note_on_c, 0, 63, 0
2, 85907, Note_on_c, 0, 71, 0
2, 85917, Note_on_c, 0, 71, 58
2, 85920, Note_on_c, 0, 63, 58
2, 85920, Note_on_c, 0, 56, 58
2, 86147, Note_on_c, 0, 56, 0
2, 86147, Note_on_c, 0, 63, 0
2, 86147, Note_on_c, 0, 71, 0
2, 86157, Note_on_c, 0, 71, 58
2, 86159, Note_on_c, 0, 63, 58
2, 86159, Note_on_c, 0, 56, 58
2, 86387, Note_on_c, 0, 56, 0
2, 86387, Note_on_c, 0, 63, 0
2, 86387, Note_on_c, 0, 71, 0
2, 86397, Note_on_c, 0, 70, 58
2, 86399, Note_on_c, 0, 63, 58
2, 86399, Note_on_c, 0, 58, 58
2, 86627, Note_on_c, 0, 58, 0
2, 86627, Note_on_c, 0, 63, 0
2, 86627, Note_on_c, 0, 70, 0
2, 86637, Note_on_c, 0, 68, 58
2, 86637, Note_on_c, 0, 63, 58
2, 86639, Note_on_c, 0, 59, 58
2, 86849, Note_on_c, 0, 59, 0
2, 86849, Note_on_c, 0, 63, 0
2, 86849, Note_on_c, 0, 68, 0
2, 86859, Note_on_c, 0, 51, 58
2, 86877, Note_on_c, 0, 67, 58
2, 86877, Note_on_c, 0, 63, 58
2, 86879, Note_on_c, 0, 61, 58
2, 87110, Note_on_c, 0, 61, 0
2, 87110, Note_on_c, 0, 51, 0
2, 87110, Note_on_c, 0, 67, 0
2, 87110, Note_on_c, 0, 63, 0
2, 87120, Note_on_c, 0, 75, 58
2, 87120, Note_on_c, 0, 67, 58
2, 87120, Note_on_c, 0, 61, 58
2, 87123, Note_on_c, 0, 63, 58
2, 87350, Note_on_c, 0, 63, 0
2, 87350, Note_on_c, 0, 75, 0
2, 87350, Note_on_c, 0, 67, 0
2, 87350, Note_on_c, 0, 61, 0
2, 87360, Note_on_c, 0, 75, 58
2, 87360, Note_on_c, 0, 67, 58
2, 87360, Note_on_c, 0, 61, 58
2, 87363, Note_on_c, 0, 63, 58
2, 87587, Note_on_c, 0, 63, 0
2, 87587, Note_on_c, 0, 75, 0
2, 87587, Note_on_c, 0, 67, 0
2, 87587, Note_on_c, 0, 61, 0
2, 87597, Note_on_c, 0, 75, 58
2, 87599, Note_on_c, 0, 67, 58
2, 87599, Note_on_c, 0, 61, 58
2, 87599, Note_on_c, 0, 63, 58
2, 87827, Note_on_c, 0, 63, 0
2, 87827, Note_on_c, 0, 75, 0
2, 87827, Note_on_c, 0, 67, 0
2, 87827, Note_on_c, 0, 61, 0
2, 87837, Note_on_c, 0, 75, 58
2, 87839, Note_on_c, 0, 67, 58
2, 87839, Note_on_c, 0, 61, 58
2, 87839, Note_on_c, 0, 63, 58
2, 88067, Note_on_c, 0, 63, 0
2, 88067, Note_on_c, 0, 75, 0
2, 88067, Note_on_c, 0, 67, 0
2, 88067, Note_on_c, 0, 61, 0
2, 88077, Note_on_c, 0, 75, 58
2, 88077, Note_on_c, 0, 67, 58
2, 88079, Note_on_c, 0, 61, 58
2, 88079, Note_on_c, 0, 63, 58
2, 88307, Note_on_c, 0, 63, 0
2, 88307, Note_on_c, 0, 75, 0
2, 88307, Note_on_c, 0, 67, 0
2, 88307, Note_on_c, 0, 61, 0
2, 88317, Note_on_c, 0, 75, 58
2, 88317, Note_on_c, 0, 68, 58
2, 88319, Note_on_c, 0, 59, 58
2, 88319, Note_on_c, 0, 63, 58
2, 88550, Note_on_c, 0, 63, 0
2, 88550, Note_on_c, 0, 75, 0
2, 88550, Note_on_c, 0, 68, 0
2, 88550, Note_on_c, 0, 59, 0
2, 88560, Note_on_c, 0, 75, 58
2, 88560, Note_on_c, 0, 70, 58
2, 88560, Note_on_c, 0, 58, 58
2, 88563, Note_on_c, 0, 63, 58
2, 88787, Note_on_c, 0, 63, 0
2, 88787, Note_on_c, 0, 75, 0
2, 88787, Note_on_c, 0, 70, 0
2, 88787, Note_on_c, 0, 58, 0
2, 88797, Note_on_c, 0, 75, 58
2, 88800, Note_on_c, 0, 71, 58
2, 88800, Note_on_c, 0, 44, 58
2, 89010, Note_on_c, 0, 44, 0
2, 89010, Note_on_c, 0, 71, 0
2, 89010, Note_on_c, 0, 75, 0
2, 89020, Note_on_c, 0, 75, 58
2, 89020, Note_on_c, 0, 71, 58
2, 89020, Note_on_c, 0, 59, 58
2, 89023, Note_on_c, 0, 56, 58
2, 89247, Note_on_c, 0, 56, 0
2, 89247, Note_on_c, 0, 75, 0
2, 89247, Note_on_c, 0, 71, 0
2, 89247, Note_on_c, 0, 59, 0
2, 89257, Note_on_c, 0, 75, 58
2, 89260, Note_on_c, 0, 71, 58
2, 89260, Note_on_c, 0, 59, 58
2, 89263, Note_on_c, 0, 56, 58
2, 89507, Note_on_c, 0, 56, 0
2, 89507, Note_on_c, 0, 75, 0
2, 89507, Note_on_c, 0, 71, 0
2, 89507, Note_on_c, 0, 59, 0
2, 89517, Note_on_c, 0, 71, 58
2, 89517, Note_on_c, 0, 68, 58
2, 89519, Note_on_c, 0, 63, 58
2, 89519, Note_on_c, 0, 59, 58
2, 89750, Note_on_c, 0, 59, 0
2, 89750, Note_on_c, 0, 71, 0
2, 89750, Note_on_c, 0, 68, 0
2, 89750, Note_on_c, 0, 63, 0
2, 89760, Note_on_c, 0, 49, 58
2, 89967, Note_on_c, 0, 49, 0
2, 89977, Note_on_c, 0, 76, 58
2, 89977, Note_on_c, 0, 73, 58
2, 89979, Note_on_c, 0, 61, 58
2, 89979, Note_on_c, 0, 56, 58
2, 90210, Note_on_c, 0, 56, 0
2, 90210, Note_on_c, 0, 76, 0
2, 90210, Note_on_c, 0, 73, 0
2, 90210, Note_on_c, 0, 61, 0
2, 90220, Note_on_c, 0, 76, 58
2, 90220, Note_on_c, 0, 73, 58
2, 90223, Note_on_c, 0, 61, 58
2, 90223, Note_on_c, 0, 56, 58
2, 90467, Note_on_c, 0, 56, 0
2, 90467, Note_on_c, 0, 76, 0
2, 90467, Note_on_c, 0, 73, 0
2, 90467, Note_on_c, 0, 61, 0
2, 90477, Note_on_c, 0, 73, 58
2, 90479, Note_on_c, 0, 68, 58
2, 90479, Note_on_c, 0, 64, 58
2, 90479, Note_on_c, 0, 61, 58
2, 90707, Note_on_c, 0, 61, 0
2, 90707, Note_on_c, 0, 73, 0
2, 90707, Note_on_c, 0, 68, 0
2, 90707, Note_on_c, 0, 64, 0
2, 90717, Note_on_c, 0, 51, 58
2, 90927, Note_on_c, 0, 51, 0
2, 90937, Note_on_c, 0, 75, 58
2, 90939, Note_on_c, 0, 71, 58
2, 90939, Note_on_c, 0, 59, 58
2, 90939, Note_on_c, 0, 56, 58
2, 91167, Note_on_c, 0, 56, 0
2, 91167, Note_on_c, 0, 75, 0
2, 91167, Note_on_c, 0, 71, 0
2, 91167, Note_on_c, 0, 59, 0
2, 91177, Note_on_c, 0, 75, 58
2, 91177, Note_on_c, 0, 71, 58
2, 91179, Note_on_c, 0, 59, 58
2, 91179, Note_on_c, 0, 56, 58
2, 91430, Note_on_c, 0, 56, 0
2, 91430, Note_on_c, 0, 75, 0
2, 91430, Note_on_c, 0, 71, 0
2, 91430, Note_on_c, 0, 59, 0
2, 91440, Note_on_c, 0, 71, 58
2, 91440, Note_on_c, 0, 68, 58
2, 91440, Note_on_c, 0, 63, 58
2, 91443, Note_on_c, 0, 59, 58
2, 91667, Note_on_c, 0, 59, 0
2, 91667, Note_on_c, 0, 71, 0
2, 91667, Note_on_c, 0, 68, 0
2, 91667, Note_on_c, 0, 63, 0
2, 91677, Note_on_c, 0, 51, 58
2, 91890, Note_on_c, 0, 51, 0
2, 91900, Note_on_c, 0, 75, 58
2, 91900, Note_on_c, 0, 70, 58
2, 91900, Note_on_c, 0, 58, 58
2, 91903, Note_on_c, 0, 55, 58
2, 92127, Note_on_c, 0, 55, 0
2, 92127, Note_on_c, 0, 75, 0
2, 92127, Note_on_c, 0, 70, 0
2, 92127, Note_on_c, 0, 58, 0
2, 92137, Note_on_c, 0, 75, 58
2, 92139, Note_on_c, 0, 70, 58
2, 92139, Note_on_c, 0, 58, 58
2, 92142, Note_on_c, 0, 55, 58
2, 92387, Note_on_c, 0, 55, 0
2, 92387, Note_on_c, 0, 75, 0
2, 92387, Note_on_c, 0, 70, 0
2, 92387, Note_on_c, 0, 58, 0
2, 92397, Note_on_c, 0, 70, 58
2, 92397, Note_on_c, 0, 67, 58
2, 92399, Note_on_c, 0, 63, 58
2, 92399, Note_on_c, 0, 58, 58
2, 92612, Note_on_c, 0, 58, 0
2, 92612, Note_on_c, 0, 70, 0
2, 92612, Note_on_c, 0, 67, 0
2, 92612, Note_on_c, 0, 63, 0
2, 92622, Note_on_c, 0, 32, 58
2, 92640, Note_on_c, 0, 71, 58
2, 92640, Note_on_c, 0, 68, 58
2, 92640, Note_on_c, 0, 44, 58
2, 92849, Note_on_c, 0, 44, 0
2, 92849, Note_on_c, 0, 32, 0
2, 92849, Note_on_c, 0, 71, 0
2, 92849, Note_on_c, 0, 68, 0
2, 92859, Note_on_c, 0, 71, 58
2, 92877, Note_on_c, 0, 83, 58
2, 92880, Note_on_c, 0, 75, 58
2, 92880, Note_on_c, 0, 44, 58
2, 92883, Note_on_c, 0, 51, 58
2, 93107, Note_on_c, 0, 51, 0
2, 93107, Note_on_c, 0, 75, 0
2, 93107, Note_on_c, 0, 71, 0
2, 93107, Note_on_c, 0, 83, 0
2, 93107, Note_on_c, 0, 44, 0
2, 93117, Note_on_c, 0, 83, 61
2, 93119, Note_on_c, 0, 75, 61
2, 93119, Note_on_c, 0, 71, 61
2, 93119, Note_on_c, 0, 44, 61
2, 93122, Note_on_c, 0, 51, 61
2, 93347, Note_on_c, 0, 51, 0
2, 93347, Note_on_c, 0, 71, 0
2, 93347, Note_on_c, 0, 83, 0
2, 93347, Note_on_c, 0, 75, 0
2, 93347, Note_on_c, 0, 44, 0
2, 93357, Note_on_c, 0, 83, 64
2, 93357, Note_on_c, 0, 75, 64
2, 93359, Note_on_c, 0, 71, 64
2, 93359, Note_on_c, 0, 44, 64
2, 93362, Note_on_c, 0, 51, 64
2, 93587, Note_on_c, 0, 51, 0
2, 93587, Note_on_c, 0, 71, 0
2, 93587, Note_on_c, 0, 83, 0
2, 93587, Note_on_c, 0, 75, 0
2, 93587, Note_on_c, 0, 44, 0
2, 93597, Note_on_c, 0, 83, 67
2, 93597, Note_on_c, 0, 75, 67
2, 93599, Note_on_c, 0, 71, 67
2, 93599, Note_on_c, 0, 44, 67
2, 93599, Note_on_c, 0, 51, 67
2, 93830, Note_on_c, 0, 51, 0
2, 93830, Note_on_c, 0, 71, 0
2, 93830, Note_on_c, 0, 83, 0
2, 93830, Note_on_c, 0, 75, 0
2, 93830, Note_on_c, 0, 44, 0
2, 93840, Note_on_c, 0, 83, 70
2, 93840, Note_on_c, 0, 75, 70
2, 93843, Note_on_c, 0, 71, 70
2, 93843, Note_on_c, 0, 44, 70
2, 93843, Note_on_c, 0, 51, 70
2, 94070, Note_on_c, 0, 51, 0
2, 94070, Note_on_c, 0, 71, 0
2, 94070, Note_on_c, 0, 83, 0
2, 94070, Note_on_c, 0, 75, 0
2, 94070, Note_on_c, 0, 44, 0
2, 94080, Note_on_c, 0, 82, 73
2, 94080, Note_on_c, 0, 73, 73
2, 94080, Note_on_c, 0, 70, 73
2, 94083, Note_on_c, 0, 46, 73
2, 94083, Note_on_c, 0, 51, 73
2, 94307, Note_on_c, 0, 51, 0
2, 94307, Note_on_c, 0, 70, 0
2, 94307, Note_on_c, 0, 82, 0
2, 94307, Note_on_c, 0, 73, 0
2, 94307, Note_on_c, 0, 46, 0
2, 94317, Note_on_c, 0, 80, 75
2, 94319, Note_on_c, 0, 71, 75
2, 94319, Note_on_c, 0, 68, 75
2, 94322, Note_on_c, 0, 47, 75
2, 94322, Note_on_c, 0, 51, 75
2, 94537, Note_on_c, 0, 51, 0
2, 94537, Note_on_c, 0, 68, 0
2, 94537, Note_on_c, 0, 80, 0
2, 94537, Note_on_c, 0, 71, 0
2, 94537, Note_on_c, 0, 47, 0
2, 94547, Note_on_c, 0, 39, 75
2, 94557, Note_on_c, 0, 79, 77
2, 94559, Note_on_c, 0, 70, 77
2, 94559, Note_on_c, 0, 67, 77
2, 94559, Note_on_c, 0, 51, 77
2, 94562, Note_on_c, 0, 49, 77
2, 94787, Note_on_c, 0, 49, 0
2, 94787, Note_on_c, 0, 79, 0
2, 94787, Note_on_c, 0, 70, 0
2, 94787, Note_on_c, 0, 39, 0
2, 94787, Note_on_c, 0, 51, 0
2, 94787, Note_on_c, 0, 67, 0
2, 94797, Note_on_c, 0, 88, 79
2, 94797, Note_on_c, 0, 79, 79
2, 94799, Note_on_c, 0, 76, 79
2, 94799, Note_on_c, 0, 51, 79
2, 94802, Note_on_c, 0, 61, 79
2, 95027, Note_on_c, 0, 61, 0
2, 95027, Note_on_c, 0, 76, 0
2, 95027, Note_on_c, 0, 88, 0
2, 95027, Note_on_c, 0, 79, 0
2, 95027, Note_on_c, 0, 51, 0
2, 95037, Note_on_c, 0, 88, 79
2, 95037, Note_on_c, 0, 79, 79
2, 95039, Note_on_c, 0, 76, 79
2, 95039, Note_on_c, 0, 51, 79
2, 95039, Note_on_c, 0, 61, 79
2, 95270, Note_on_c, 0, 61, 0
2, 95270, Note_on_c, 0, 76, 0
2, 95270, Note_on_c, 0, 88, 0
2, 95270, Note_on_c, 0, 79, 0
2, 95270, Note_on_c, 0, 51, 0
2, 95280, Note_on_c, 0, 88, 79
2, 95280, Note_on_c, 0, 79, 79
2, 95280, Note_on_c, 0, 76, 79
2, 95283, Note_on_c, 0, 51, 79
2, 95283, Note_on_c, 0, 61, 79
2, 95507, Note_on_c, 0, 61, 0
2, 95507, Note_on_c, 0, 76, 0
2, 95507, Note_on_c, 0, 88, 0
2, 95507, Note_on_c, 0, 79, 0
2, 95507, Note_on_c, 0, 51, 0
2, 95517, Note_on_c, 0, 88, 79
2, 95517, Note_on_c, 0, 79, 79
2, 95517, Note_on_c, 0, 76, 79
2, 95519, Note_on_c, 0, 51, 79
2, 95519, Note_on_c, 0, 61, 79
2, 95747, Note_on_c, 0, 61, 0
2, 95747, Note_on_c, 0, 76, 0
2, 95747, Note_on_c, 0, 88, 0
2, 95747, Note_on_c, 0, 79, 0
2, 95747, Note_on_c, 0, 51, 0
2, 95757, Note_on_c, 0, 88, 79
2, 95759, Note_on_c, 0, 79, 79
2, 95759, Note_on_c, 0, 76, 79
2, 95759, Note_on_c, 0, 51, 79
2, 95762, Note_on_c, 0, 61, 79
2, 95987, Note_on_c, 0, 61, 0
2, 95987, Note_on_c, 0, 76, 0
2, 95987, Note_on_c, 0, 88, 0
2, 95987, Note_on_c, 0, 79, 0
2, 95987, Note_on_c, 0, 51, 0
2, 95997, Note_on_c, 0, 87, 79
2, 95999, Note_on_c, 0, 79, 79
2, 95999, Note_on_c, 0, 75, 79
2, 95999, Note_on_c, 0, 51, 79
2, 96002, Note_on_c, 0, 59, 79
2, 96227, Note_on_c, 0, 59, 0
2, 96227, Note_on_c, 0, 75, 0
2, 96227, Note_on_c, 0, 87, 0
2, 96227, Note_on_c, 0, 79, 0
2, 96227, Note_on_c, 0, 51, 0
2, 96237, Note_on_c, 0, 85, 79
2, 96237, Note_on_c, 0, 79, 79
2, 96239, Note_on_c, 0, 73, 79
2, 96239, Note_on_c, 0, 51, 79
2, 96242, Note_on_c, 0, 58, 79
2, 96467, Note_on_c, 0, 58, 0
2, 96467, Note_on_c, 0, 73, 0
2, 96467, Note_on_c, 0, 85, 0
2, 96467, Note_on_c, 0, 79, 0
2, 96467, Note_on_c, 0, 51, 0
2, 96477, Note_on_c, 0, 83, 79
2, 96477, Note_on_c, 0, 80, 79
2, 96479, Note_on_c, 0, 71, 79
2, 96479, Note_on_c, 0, 44, 79
2, 96479, Note_on_c, 0, 32, 79
2, 96710, Note_on_c, 0, 32, 0
2, 96710, Note_on_c, 0, 71, 0
2, 96710, Note_on_c, 0, 83, 0
2, 96710, Note_on_c, 0, 80, 0
2, 96710, Note_on_c, 0, 44, 0
2, 96720, Note_on_c, 0, 83, 58
2, 96720, Note_on_c, 0, 75, 58
2, 96720, Note_on_c, 0, 71, 58
2, 96723, Note_on_c, 0, 44, 58
2, 96723, Note_on_c, 0, 51, 58
2, 96947, Note_on_c, 0, 51, 0
2, 96947, Note_on_c, 0, 71, 0
2, 96947, Note_on_c, 0, 83, 0
2, 96947, Note_on_c, 0, 75, 0
2, 96947, Note_on_c, 0, 44, 0
2, 96957, Note_on_c, 0, 83, 58
2, 96960, Note_on_c, 0, 75, 58
2, 96960, Note_on_c, 0, 71, 58
2, 96963, Note_on_c, 0, 44, 58
2, 96963, Note_on_c, 0, 51, 58
2, 97187, Note_on_c, 0, 51, 0
2, 97187, Note_on_c, 0, 71, 0
2, 97187, Note_on_c, 0, 83, 0
2, 97187, Note_on_c, 0, 75, 0
2, 97187, Note_on_c, 0, 44, 0
2, 97197, Note_on_c, 0, 83, 61
2, 97199, Note_on_c, 0, 75, 61
2, 97199, Note_on_c, 0, 71, 61
2, 97199, Note_on_c, 0, 44, 61
2, 97202, Note_on_c, 0, 51, 61
2, 97427, Note_on_c, 0, 51, 0
2, 97427, Note_on_c, 0, 71, 0
2, 97427, Note_on_c, 0, 83, 0
2, 97427, Note_on_c, 0, 75, 0
2, 97427, Note_on_c, 0, 44, 0
2, 97437, Note_on_c, 0, 83, 64
2, 97437, Note_on_c, 0, 75, 64
2, 97439, Note_on_c, 0, 71, 64
2, 97439, Note_on_c, 0, 44, 64
2, 97442, Note_on_c, 0, 51, 64
2, 97667, Note_on_c, 0, 51, 0
2, 97667, Note_on_c, 0, 71, 0
2, 97667, Note_on_c, 0, 83, 0
2, 97667, Note_on_c, 0, 75, 0
2, 97667, Note_on_c, 0, 44, 0
2, 97677, Note_on_c, 0, 83, 67
2, 97677, Note_on_c, 0, 75, 67
2, 97679, Note_on_c, 0, 71, 67
2, 97679, Note_on_c, 0, 44, 67
2, 97679, Note_on_c, 0, 51, 67
2, 97910, Note_on_c, 0, 51, 0
2, 97910, Note_on_c, 0, 71, 0
2, 97910, Note_on_c, 0, 83, 0
2, 97910, Note_on_c, 0, 75, 0
2, 97910, Note_on_c, 0, 44, 0
2, 97920, Note_on_c, 0, 82, 70
2, 97920, Note_on_c, 0, 73, 70
2, 97920, Note_on_c, 0, 70, 70
2, 97923, Note_on_c, 0, 46, 70
2, 97923, Note_on_c, 0, 51, 70
2, 98150, Note_on_c, 0, 51, 0
2, 98150, Note_on_c, 0, 70, 0
2, 98150, Note_on_c, 0, 82, 0
2, 98150, Note_on_c, 0, 73, 0
2, 98150, Note_on_c, 0, 46, 0
2, 98160, Note_on_c, 0, 80, 73
2, 98160, Note_on_c, 0, 71, 73
2, 98160, Note_on_c, 0, 68, 73
2, 98163, Note_on_c, 0, 47, 73
2, 98163, Note_on_c, 0, 51, 73
2, 98377, Note_on_c, 0, 51, 0
2, 98377, Note_on_c, 0, 68, 0
2, 98377, Note_on_c, 0, 80, 0
2, 98377, Note_on_c, 0, 71, 0
2, 98377, Note_on_c, 0, 47, 0
2, 98387, Note_on_c, 0, 39, 76
2, 98397, Note_on_c, 0, 79, 76
2, 98399, Note_on_c, 0, 70, 76
2, 98399, Note_on_c, 0, 67, 76
2, 98402, Note_on_c, 0, 51, 76
2, 98402, Note_on_c, 0, 49, 76
2, 98627, Note_on_c, 0, 49, 0
2, 98627, Note_on_c, 0, 79, 0
2, 98627, Note_on_c, 0, 70, 0
2, 98627, Note_on_c, 0, 39, 0
2, 98627, Note_on_c, 0, 51, 0
2, 98627, Note_on_c, 0, 67, 0
2, 98637, Note_on_c, 0, 79, 79
2, 98639, Note_on_c, 0, 88, 79
2, 98639, Note_on_c, 0, 76, 79
2, 98639, Note_on_c, 0, 51, 79
2, 98642, Note_on_c, 0, 61, 79
2, 98867, Note_on_c, 0, 61, 0
2, 98867, Note_on_c, 0, 76, 0
2, 98867, Note_on_c, 0, 79, 0
2, 98867, Note_on_c, 0, 88, 0
2, 98867, Note_on_c, 0, 51, 0
2, 98877, Note_on_c, 0, 79, 79
2, 98877, Note_on_c, 0, 88, 79
2, 98879, Note_on_c, 0, 76, 79
2, 98879, Note_on_c, 0, 51, 79
2, 98882, Note_on_c, 0, 61, 79
2, 99107, Note_on_c, 0, 61, 0
2, 99107, Note_on_c, 0, 76, 0
2, 99107, Note_on_c, 0, 79, 0
2, 99107, Note_on_c, 0, 88, 0
2, 99107, Note_on_c, 0, 51, 0
2, 99117, Note_on_c, 0, 79, 79
2, 99117, Note_on_c, 0, 88, 79
2, 99119, Note_on_c, 0, 76, 79
2, 99119, Note_on_c, 0, 51, 79
2, 99119, Note_on_c, 0, 61, 79
2, 99350, Note_on_c, 0, 61, 0
2, 99350, Note_on_c, 0, 76, 0
2, 99350, Note_on_c, 0, 79, 0
2, 99350, Note_on_c, 0, 88, 0
2, 99350, Note_on_c, 0, 51, 0
2, 99360, Note_on_c, 0, 79, 79
2, 99360, Note_on_c, 0, 88, 79
2, 99360, Note_on_c, 0, 76, 79
2, 99363, Note_on_c, 0, 51, 79
2, 99363, Note_on_c, 0, 61, 79
2, 99587, Note_on_c, 0, 61, 0
2, 99587, Note_on_c, 0, 76, 0
2, 99587, Note_on_c, 0, 79, 0
2, 99587, Note_on_c, 0, 88, 0
2, 99587, Note_on_c, 0, 51, 0
2, 99597, Note_on_c, 0, 79, 79
2, 99600, Note_on_c, 0, 88, 79
2, 99600, Note_on_c, 0, 76, 79
2, 99603, Note_on_c, 0, 51, 79
2, 99603, Note_on_c, 0, 61, 79
2, 99827, Note_on_c, 0, 61, 0
2, 99827, Note_on_c, 0, 76, 0
2, 99827, Note_on_c, 0, 79, 0
2, 99827, Note_on_c, 0, 88, 0
2, 99827, Note_on_c, 0, 51, 0
2, 99837, Note_on_c, 0, 79, 79
2, 99839, Note_on_c, 0, 87, 79
2, 99839, Note_on_c, 0, 75, 79
2, 99839, Note_on_c, 0, 51, 79
2, 99842, Note_on_c, 0, 59, 79
2, 100067, Note_on_c, 0, 59, 0
2, 100067, Note_on_c, 0, 75, 0
2, 100067, Note_on_c, 0, 79, 0
2, 100067, Note_on_c, 0, 87, 0
2, 100067, Note_on_c, 0, 51, 0
2, 100077, Note_on_c, 0, 79, 79
2, 100079, Note_on_c, 0, 85, 79
2, 100079, Note_on_c, 0, 73, 79
2, 100079, Note_on_c, 0, 51, 79
2, 100082, Note_on_c, 0, 58, 79
2, 100307, Note_on_c, 0, 58, 0
2, 100307, Note_on_c, 0, 73, 0
2, 100307, Note_on_c, 0, 79, 0
2, 100307, Note_on_c, 0, 85, 0
2, 100307, Note_on_c, 0, 51, 0
2, 100317, Note_on_c, 0, 83, 79
2, 100317, Note_on_c, 0, 80, 79
2, 100319, Note_on_c, 0, 71, 79
2, 100319, Note_on_c, 0, 56, 79
2, 100319, Note_on_c, 0, 44, 79
2, 100547, Note_on_c, 0, 44, 0
2, 100547, Note_on_c, 0, 71, 0
2, 100547, Note_on_c, 0, 83, 0
2, 100547, Note_on_c, 0, 80, 0
2, 100547, Note_on_c, 0, 56, 0
2, 100557, Note_on_c, 0, 83, 58
2, 100557, Note_on_c, 0, 80, 58
2, 100559, Note_on_c, 0, 63, 58
2, 100559, Note_on_c, 0, 59, 58
2, 100767, Note_on_c, 0, 59, 0
2, 100767, Note_on_c, 0, 83, 0
2, 100767, Note_on_c, 0, 80, 0
2, 100767, Note_on_c, 0, 63, 0
2, 100777, Note_on_c, 0, 83, 58
2, 100777, Note_on_c, 0, 80, 58
2, 100779, Note_on_c, 0, 63, 58
2, 100779, Note_on_c, 0, 59, 58
2, 101027, Note_on_c, 0, 59, 0
2, 101027, Note_on_c, 0, 83, 0
2, 101027, Note_on_c, 0, 80, 0
2, 101027, Note_on_c, 0, 63, 0
2, 101037, Note_on_c, 0, 87, 58
2, 101040, Note_on_c, 0, 83, 58
2, 101040, Note_on_c, 0, 59, 58
2, 101043, Note_on_c, 0, 56, 58
2, 101267, Note_on_c, 0, 56, 0
2, 101267, Note_on_c, 0, 87, 0
2, 101267, Note_on_c, 0, 83, 0
2, 101267, Note_on_c, 0, 59, 0
2, 101277, Note_on_c, 0, 49, 63
2, 101487, Note_on_c, 0, 49, 0
2, 101497, Note_on_c, 0, 85, 58
2, 101500, Note_on_c, 0, 80, 58
2, 101500, Note_on_c, 0, 64, 58
2, 101503, Note_on_c, 0, 61, 58
2, 101727, Note_on_c, 0, 61, 0
2, 101727, Note_on_c, 0, 85, 0
2, 101727, Note_on_c, 0, 80, 0
2, 101727, Note_on_c, 0, 64, 0
2, 101737, Note_on_c, 0, 85, 58
2, 101739, Note_on_c, 0, 80, 58
2, 101739, Note_on_c, 0, 64, 58
2, 101739, Note_on_c, 0, 61, 58
2, 101990, Note_on_c, 0, 61, 0
2, 101990, Note_on_c, 0, 85, 0
2, 101990, Note_on_c, 0, 80, 0
2, 101990, Note_on_c, 0, 64, 0
2, 102000, Note_on_c, 0, 88, 58
2, 102000, Note_on_c, 0, 85, 58
2, 102000, Note_on_c, 0, 61, 58
2, 102003, Note_on_c, 0, 56, 58
2, 102209, Note_on_c, 0, 56, 0
2, 102209, Note_on_c, 0, 88, 0
2, 102209, Note_on_c, 0, 85, 0
2, 102209, Note_on_c, 0, 61, 0
2, 102219, Note_on_c, 0, 51, 63
2, 102450, Note_on_c, 0, 51, 0
2, 102460, Note_on_c, 0, 83, 58
2, 102460, Note_on_c, 0, 80, 58
2, 102463, Note_on_c, 0, 63, 58
2, 102463, Note_on_c, 0, 59, 58
2, 102690, Note_on_c, 0, 59, 0
2, 102690, Note_on_c, 0, 83, 0
2, 102690, Note_on_c, 0, 80, 0
2, 102690, Note_on_c, 0, 63, 0
2, 102700, Note_on_c, 0, 83, 58
2, 102700, Note_on_c, 0, 80, 58
2, 102700, Note_on_c, 0, 63, 58
2, 102703, Note_on_c, 0, 59, 58
2, 102947, Note_on_c, 0, 59, 0
2, 102947, Note_on_c, 0, 83, 0
2, 102947, Note_on_c, 0, 80, 0
2, 102947, Note_on_c, 0, 63, 0
2, 102957, Note_on_c, 0, 87, 58
2, 102957, Note_on_c, 0, 83, 58
2, 102959, Note_on_c, 0, 59, 58
2, 102959, Note_on_c, 0, 56, 58
2, 103187, Note_on_c, 0, 56, 0
2, 103187, Note_on_c, 0, 87, 0
2, 103187, Note_on_c, 0, 83, 0
2, 103187, Note_on_c, 0, 59, 0
2, 103197, Note_on_c, 0, 49, 63
2, 103407, Note_on_c, 0, 49, 0
2, 103417, Note_on_c, 0, 82, 58
2, 103417, Note_on_c, 0, 79, 58
2, 103419, Note_on_c, 0, 63, 58
2, 103419, Note_on_c, 0, 58, 58
2, 103647, Note_on_c, 0, 58, 0
2, 103647, Note_on_c, 0, 82, 0
2, 103647, Note_on_c, 0, 79, 0
2, 103647, Note_on_c, 0, 63, 0
2, 103657, Note_on_c, 0, 82, 58
2, 103657, Note_on_c, 0, 79, 58
2, 103659, Note_on_c, 0, 63, 58
2, 103659, Note_on_c, 0, 58, 58
2, 103907, Note_on_c, 0, 58, 0
2, 103907, Note_on_c, 0, 82, 0
2, 103907, Note_on_c, 0, 79, 0
2, 103907, Note_on_c, 0, 63, 0
2, 103917, Note_on_c, 0, 87, 58
2, 103919, Note_on_c, 0, 82, 58
2, 103919, Note_on_c, 0, 58, 58
2, 103919, Note_on_c, 0, 55, 58
2, 104147, Note_on_c, 0, 55, 0
2, 104147, Note_on_c, 0, 87, 0
2, 104147, Note_on_c, 0, 82, 0
2, 104147, Note_on_c, 0, 58, 0
2, 104157, Note_on_c, 0, 47, 63
2, 104367, Note_on_c, 0, 47, 0
2, 104377, Note_on_c, 0, 83, 58
2, 104379, Note_on_c, 0, 75, 58
2, 104379, Note_on_c, 0, 68, 58
2, 104382, Note_on_c, 0, 63, 58
2, 104607, Note_on_c, 0, 63, 0
2, 104607, Note_on_c, 0, 83, 0
2, 104607, Note_on_c, 0, 75, 0
2, 104607, Note_on_c, 0, 68, 0
2, 104617, Note_on_c, 0, 83, 58
2, 104619, Note_on_c, 0, 75, 58
2, 104619, Note_on_c, 0, 68, 58
2, 104619, Note_on_c, 0, 63, 58
2, 104857, Note_on_c, 0, 87, 58
2, 104857, Note_on_c, 0, 80, 58
2, 104859, Note_on_c, 0, 63, 58
2, 104859, Note_on_c, 0, 59, 58
2, 105107, Note_on_c, 0, 59, 0
2, 105107, Note_on_c, 0, 83, 0
2, 105107, Note_on_c, 0, 87, 0
2, 105107, Note_on_c, 0, 75, 0
2, 105107, Note_on_c, 0, 68, 0
2, 105107, Note_on_c, 0, 63, 0
2, 105107, Note_on_c, 0, 80, 0
2, 105107, Note_on_c, 0, 63, 0
2, 105117, Note_on_c, 0, 49, 66
2, 105330, Note_on_c, 0, 49, 0
2, 105340, Note_on_c, 0, 81, 58
2, 105340, Note_on_c, 0, 73, 58
2, 105340, Note_on_c, 0, 69, 58
2, 105343, Note_on_c, 0, 64, 58
2, 105567, Note_on_c, 0, 64, 0
2, 105567, Note_on_c, 0, 81, 0
2, 105567, Note_on_c, 0, 73, 0
2, 105567, Note_on_c, 0, 69, 0
2, 105577, Note_on_c, 0, 81, 58
2, 105580, Note_on_c, 0, 73, 58
2, 105580, Note_on_c, 0, 69, 58
2, 105583, Note_on_c, 0, 64, 58
2, 105817, Note_on_c, 0, 85, 58
2, 105819, Note_on_c, 0, 76, 58
2, 105819, Note_on_c, 0, 64, 58
2, 105819, Note_on_c, 0, 61, 58
2, 106070, Note_on_c, 0, 61, 0
2, 106070, Note_on_c, 0, 81, 0
2, 106070, Note_on_c, 0, 85, 0
2, 106070, Note_on_c, 0, 73, 0
2, 106070, Note_on_c, 0, 69, 0
2, 106070, Note_on_c, 0, 64, 0
2, 106070, Note_on_c, 0, 76, 0
2, 106070, Note_on_c, 0, 64, 0
2, 106080, Note_on_c, 0, 51, 68
2, 106287, Note_on_c, 0, 51, 0
2, 106297, Note_on_c, 0, 80, 60
2, 106297, Note_on_c, 0, 71, 60
2, 106299, Note_on_c, 0, 68, 60
2, 106299, Note_on_c, 0, 63, 60
2, 106530, Note_on_c, 0, 63, 0
2, 106530, Note_on_c, 0, 80, 0
2, 106530, Note_on_c, 0, 71, 0
2, 106530, Note_on_c, 0, 68, 0
2, 106540, Note_on_c, 0, 80, 60
2, 106540, Note_on_c, 0, 71, 60
2, 106543, Note_on_c, 0, 68, 60
2, 106543, Note_on_c, 0, 63, 60
2, 106780, Note_on_c, 0, 83, 60
2, 106780, Note_on_c, 0, 75, 60
2, 106780, Note_on_c, 0, 63, 60
2, 106783, Note_on_c, 0, 59, 60
2, 107027, Note_on_c, 0, 59, 0
2, 107027, Note_on_c, 0, 80, 0
2, 107027, Note_on_c, 0, 83, 0
2, 107027, Note_on_c, 0, 71, 0
2, 107027, Note_on_c, 0, 68, 0
2, 107027, Note_on_c, 0, 63, 0
2, 107027, Note_on_c, 0, 75, 0
2, 107027, Note_on_c, 0, 63, 0
2, 107037, Note_on_c, 0, 51, 63
2, 107247, Note_on_c, 0, 51, 0
2, 107257, Note_on_c, 0, 79, 58
2, 107259, Note_on_c, 0, 70, 58
2, 107259, Note_on_c, 0, 67, 58
2, 107259, Note_on_c, 0, 61, 58
2, 107487, Note_on_c, 0, 61, 0
2, 107487, Note_on_c, 0, 79, 0
2, 107487, Note_on_c, 0, 70, 0
2, 107487, Note_on_c, 0, 67, 0
2, 107497, Note_on_c, 0, 79, 58
2, 107497, Note_on_c, 0, 70, 58
2, 107499, Note_on_c, 0, 67, 58
2, 107499, Note_on_c, 0, 61, 58
2, 107747, Note_on_c, 0, 61, 0
2, 107747, Note_on_c, 0, 79, 0
2, 107747, Note_on_c, 0, 70, 0
2, 107747, Note_on_c, 0, 67, 0
2, 107757, Note_on_c, 0, 82, 58
2, 107760, Note_on_c, 0, 73, 58
2, 107760, Note_on_c, 0, 61, 58
2, 107763, Note_on_c, 0, 58, 58
2, 107987, Note_on_c, 0, 58, 0
2, 107987, Note_on_c, 0, 82, 0
2, 107987, Note_on_c, 0, 73, 0
2, 107987, Note_on_c, 0, 61, 0
2, 107997, Note_on_c, 0, 80, 63
2, 107999, Note_on_c, 0, 71, 58
2, 107999, Note_on_c, 0, 44, 58
2, 108107, Note_on_c, 0, 44, 0
2, 108117, Note_on_c, 0, 56, 58
2, 108227, Note_on_c, 0, 56, 0
2, 108237, Note_on_c, 0, 51, 58
2, 108347, Note_on_c, 0, 51, 0
2, 108357, Note_on_c, 0, 56, 58
2, 108467, Note_on_c, 0, 56, 0
2, 108467, Note_on_c, 0, 71, 0
2, 108467, Note_on_c, 0, 80, 0
2, 108477, Note_on_c, 0, 44, 58
2, 108587, Note_on_c, 0, 44, 0
2, 108597, Note_on_c, 0, 56, 58
2, 108707, Note_on_c, 0, 56, 0
2, 108717, Note_on_c, 0, 51, 58
2, 108830, Note_on_c, 0, 51, 0
2, 108840, Note_on_c, 0, 56, 58
2, 108947, Note_on_c, 0, 56, 0
2, 108957, Note_on_c, 0, 44, 58
2, 109070, Note_on_c, 0, 44, 0
2, 109080, Note_on_c, 0, 56, 58
2, 109187, Note_on_c, 0, 56, 0
2, 109197, Note_on_c, 0, 51, 58
2, 109307, Note_on_c, 0, 51, 0
2, 109317, Note_on_c, 0, 56, 58
2, 109410, Note_on_c, 0, 56, 0
2, 109420, Note_on_c, 0, 71, 63
2, 109437, Note_on_c, 0, 44, 58
2, 109547, Note_on_c, 0, 44, 0
2, 109557, Note_on_c, 0, 56, 58
2, 109667, Note_on_c, 0, 56, 0
2, 109677, Note_on_c, 0, 51, 58
2, 109787, Note_on_c, 0, 51, 0
2, 109787, Note_on_c, 0, 71, 0
2, 109797, Note_on_c, 0, 68, 63
2, 109797, Note_on_c, 0, 56, 58
2, 109889, Note_on_c, 0, 56, 0
2, 109889, Note_on_c, 0, 68, 0
2, 109899, Note_on_c, 0, 44, 58
2, 109917, Note_on_c, 0, 67, 63
2, 110027, Note_on_c, 0, 44, 0
2, 110037, Note_on_c, 0, 58, 58
2, 110150, Note_on_c, 0, 58, 0
2, 110160, Note_on_c, 0, 51, 58
2, 110270, Note_on_c, 0, 51, 0
2, 110280, Note_on_c, 0, 58, 58
2, 110367, Note_on_c, 0, 67, 0
2, 110369, Note_on_c, 0, 58, 0
2, 110377, Note_on_c, 0, 67, 58
2, 110379, Note_on_c, 0, 61, 58
2, 110400, Note_on_c, 0, 75, 63
2, 110400, Note_on_c, 0, 44, 58
2, 110510, Note_on_c, 0, 44, 0
2, 110520, Note_on_c, 0, 58, 58
2, 110627, Note_on_c, 0, 58, 0
2, 110637, Note_on_c, 0, 51, 58
2, 110747, Note_on_c, 0, 51, 0
2, 110747, Note_on_c, 0, 67, 0
2, 110747, Note_on_c, 0, 61, 0
2, 110747, Note_on_c, 0, 75, 0
2, 110757, Note_on_c, 0, 58, 58
2, 110860, Note_on_c, 0, 75, 63
2, 110860, Note_on_c, 0, 67, 58
2, 110860, Note_on_c, 0, 61, 58
2, 110867, Note_on_c, 0, 58, 0
2, 110877, Note_on_c, 0, 44, 58
2, 110987, Note_on_c, 0, 44, 0
2, 110997, Note_on_c, 0, 58, 58
2, 111107, Note_on_c, 0, 58, 0
2, 111117, Note_on_c, 0, 51, 58
2, 111227, Note_on_c, 0, 51, 0
2, 111227, Note_on_c, 0, 61, 0
2, 111227, Note_on_c, 0, 67, 0
2, 111227, Note_on_c, 0, 75, 0
2, 111237, Note_on_c, 0, 58, 58
2, 111329, Note_on_c, 0, 58, 0
2, 111337, Note_on_c, 0, 75, 63
2, 111339, Note_on_c, 0, 67, 58
2, 111339, Note_on_c, 0, 61, 58
2, 111357, Note_on_c, 0, 44, 58
2, 111470, Note_on_c, 0, 44, 0
2, 111480, Note_on_c, 0, 58, 58
2, 111590, Note_on_c, 0, 58, 0
2, 111600, Note_on_c, 0, 51, 58
2, 111710, Note_on_c, 0, 51, 0
2, 111710, Note_on_c, 0, 75, 0
2, 111710, Note_on_c, 0, 67, 0
2, 111710, Note_on_c, 0, 61, 0
2, 111720, Note_on_c, 0, 58, 58
2, 111807, Note_on_c, 0, 58, 0
2, 111817, Note_on_c, 0, 59, 63
2, 111840, Note_on_c, 0, 44, 58
2, 111930, Note_on_c, 0, 44, 0
2, 111940, Note_on_c, 0, 68, 63
2, 111949, Note_on_c, 0, 59, 0
2, 111959, Note_on_c, 0, 56, 58
2, 112050, Note_on_c, 0, 56, 0
2, 112060, Note_on_c, 0, 75, 63
2, 112069, Note_on_c, 0, 68, 0
2, 112079, Note_on_c, 0, 51, 58
2, 112187, Note_on_c, 0, 51, 0
2, 112197, Note_on_c, 0, 56, 58
2, 112307, Note_on_c, 0, 56, 0
2, 112317, Note_on_c, 0, 44, 58
2, 112427, Note_on_c, 0, 44, 0
2, 112437, Note_on_c, 0, 56, 58
2, 112547, Note_on_c, 0, 56, 0
2, 112557, Note_on_c, 0, 51, 58
2, 112667, Note_on_c, 0, 51, 0
2, 112677, Note_on_c, 0, 56, 58
2, 112790, Note_on_c, 0, 56, 0
2, 112800, Note_on_c, 0, 44, 58
2, 112910, Note_on_c, 0, 44, 0
2, 112920, Note_on_c, 0, 56, 58
2, 113030, Note_on_c, 0, 56, 0
2, 113040, Note_on_c, 0, 51, 58
2, 113150, Note_on_c, 0, 51, 0
2, 113160, Note_on_c, 0, 56, 58
2, 113267, Note_on_c, 0, 56, 0
2, 113267, Note_on_c, 0, 75, 0
2, 113277, Note_on_c, 0, 83, 63
2, 113280, Note_on_c, 0, 44, 58
2, 113387, Note_on_c, 0, 44, 0
2, 113397, Note_on_c, 0, 56, 58
2, 113507, Note_on_c, 0, 56, 0
2, 113517, Note_on_c, 0, 51, 58
2, 113627, Note_on_c, 0, 51, 0
2, 113627, Note_on_c, 0, 83, 0
2, 113637, Note_on_c, 0, 80, 63
2, 113639, Note_on_c, 0, 56, 58
2, 113747, Note_on_c, 0, 56, 0
2, 113747, Note_on_c, 0, 80, 0
2, 113757, Note_on_c, 0, 79, 63
2, 113757, Note_on_c, 0, 44, 58
2, 113867, Note_on_c, 0, 44, 0
2, 113877, Note_on_c, 0, 58, 58
2, 113987, Note_on_c, 0, 58, 0
2, 113997, Note_on_c, 0, 51, 58
2, 114107, Note_on_c, 0, 51, 0
2, 114117, Note_on_c, 0, 58, 58
2, 114209, Note_on_c, 0, 58, 0
2, 114209, Note_on_c, 0, 79, 0
2, 114219, Note_on_c, 0, 79, 58
2, 114219, Note_on_c, 0, 73, 58
2, 114240, Note_on_c, 0, 87, 63
2, 114240, Note_on_c, 0, 44, 58
2, 114350, Note_on_c, 0, 44, 0
2, 114360, Note_on_c, 0, 58, 58
2, 114470, Note_on_c, 0, 58, 0
2, 114480, Note_on_c, 0, 51, 58
2, 114590, Note_on_c, 0, 51, 0
2, 114590, Note_on_c, 0, 79, 0
2, 114590, Note_on_c, 0, 73, 0
2, 114590, Note_on_c, 0, 87, 0
2, 114600, Note_on_c, 0, 58, 58
2, 114693, Note_on_c, 0, 58, 0
2, 114700, Note_on_c, 0, 87, 63
2, 114700, Note_on_c, 0, 79, 58
2, 114703, Note_on_c, 0, 73, 58
2, 114717, Note_on_c, 0, 44, 58
2, 114827, Note_on_c, 0, 44, 0
2, 114837, Note_on_c, 0, 58, 58
2, 114947, Note_on_c, 0, 58, 0
2, 114957, Note_on_c, 0, 51, 58
2, 115067, Note_on_c, 0, 51, 0
2, 115067, Note_on_c, 0, 87, 0
2, 115067, Note_on_c, 0, 79, 0
2, 115067, Note_on_c, 0, 73, 0
2, 115077, Note_on_c, 0, 58, 58
2, 115177, Note_on_c, 0, 87, 63
2, 115179, Note_on_c, 0, 79, 58
2, 115179, Note_on_c, 0, 73, 58
2, 115187, Note_on_c, 0, 58, 0
2, 115197, Note_on_c, 0, 44, 58
2, 115307, Note_on_c, 0, 44, 0
2, 115317, Note_on_c, 0, 58, 58
2, 115427, Note_on_c, 0, 58, 0
2, 115437, Note_on_c, 0, 51, 58
2, 115550, Note_on_c, 0, 51, 0
2, 115550, Note_on_c, 0, 73, 0
2, 115550, Note_on_c, 0, 79, 0
2, 115550, Note_on_c, 0, 87, 0
2, 115560, Note_on_c, 0, 58, 58
2, 115647, Note_on_c, 0, 58, 0
2, 115657, Note_on_c, 0, 71, 63
2, 115680, Note_on_c, 0, 44, 58
2, 115767, Note_on_c, 0, 44, 0
2, 115777, Note_on_c, 0, 80, 63
2, 115787, Note_on_c, 0, 71, 0
2, 115797, Note_on_c, 0, 56, 58
2, 115887, Note_on_c, 0, 56, 0
2, 115897, Note_on_c, 0, 87, 63
2, 115907, Note_on_c, 0, 80, 0
2, 115917, Note_on_c, 0, 51, 58
2, 116027, Note_on_c, 0, 51, 0
2, 116037, Note_on_c, 0, 56, 58
2, 116147, Note_on_c, 0, 56, 0
2, 116157, Note_on_c, 0, 44, 58
2, 116267, Note_on_c, 0, 44, 0
2, 116277, Note_on_c, 0, 56, 58
2, 116387, Note_on_c, 0, 56, 0
2, 116397, Note_on_c, 0, 51, 58
2, 116507, Note_on_c, 0, 51, 0
2, 116517, Note_on_c, 0, 56, 58
2, 116627, Note_on_c, 0, 56, 0
2, 116627, Note_on_c, 0, 87, 0
2, 116637, Note_on_c, 0, 73, 63
2, 116637, Note_on_c, 0, 44, 58
2, 116737, Note_on_c, 0, 79, 63
2, 116747, Note_on_c, 0, 44, 0
2, 116747, Note_on_c, 0, 73, 0
2, 116757, Note_on_c, 0, 58, 58
2, 116857, Note_on_c, 0, 87, 63
2, 116867, Note_on_c, 0, 58, 0
2, 116867, Note_on_c, 0, 79, 0
2, 116877, Note_on_c, 0, 51, 58
2, 116990, Note_on_c, 0, 51, 0
2, 117000, Note_on_c, 0, 58, 58
2, 117110, Note_on_c, 0, 58, 0
2, 117120, Note_on_c, 0, 44, 58
2, 117230, Note_on_c, 0, 44, 0
2, 117240, Note_on_c, 0, 58, 58
2, 117347, Note_on_c, 0, 58, 0
2, 117357, Note_on_c, 0, 51, 58
2, 117467, Note_on_c, 0, 51, 0
2, 117477, Note_on_c, 0, 58, 58
2, 117587, Note_on_c, 0, 58, 0
2, 117587, Note_on_c, 0, 87, 0
2, 117597, Note_on_c, 0, 71, 63
2, 117599, Note_on_c, 0, 44, 58
2, 117690, Note_on_c, 0, 44, 0
2, 117700, Note_on_c, 0, 80, 63
2, 117707, Note_on_c, 0, 71, 0
2, 117717, Note_on_c, 0, 56, 58
2, 117817, Note_on_c, 0, 87, 63
2, 117827, Note_on_c, 0, 56, 0
2, 117827, Note_on_c, 0, 80, 0
2, 117837, Note_on_c, 0, 51, 58
2, 117947, Note_on_c, 0, 51, 0
2, 117957, Note_on_c, 0, 56, 58
2, 118067, Note_on_c, 0, 56, 0
2, 118077, Note_on_c, 0, 44, 58
2, 118187, Note_on_c, 0, 44, 0
2, 118197, Note_on_c, 0, 56, 58
2, 118310, Note_on_c, 0, 56, 0
2, 118320, Note_on_c, 0, 51, 58
2, 118430, Note_on_c, 0, 51, 0
2, 118440, Note_on_c, 0, 56, 58
2, 118550, Note_on_c, 0, 56, 0
2, 118550, Note_on_c, 0, 87, 0
2, 118560, Note_on_c, 0, 73, 63
2, 118560, Note_on_c, 0, 44, 58
2, 118647, Note_on_c, 0, 44, 0
2, 118657, Note_on_c, 0, 79, 63
2, 118670, Note_on_c, 0, 73, 0
2, 118680, Note_on_c, 0, 58, 58
2, 118770, Note_on_c, 0, 58, 0
2, 118780, Note_on_c, 0, 87, 63
2, 118789, Note_on_c, 0, 79, 0
2, 118799, Note_on_c, 0, 51, 58
2, 118907, Note_on_c, 0, 51, 0
2, 118917, Note_on_c, 0, 58, 58
2, 119027, Note_on_c, 0, 58, 0
2, 119037, Note_on_c, 0, 44, 58
2, 119147, Note_on_c, 0, 44, 0
2, 119157, Note_on_c, 0, 58, 58
2, 119267, Note_on_c, 0, 58, 0
2, 119277, Note_on_c, 0, 51, 58
2, 119387, Note_on_c, 0, 51, 0
2, 119397, Note_on_c, 0, 58, 58
2, 119507, Note_on_c, 0, 58, 0
2, 119507, Note_on_c, 0, 87, 0
2, 119517, Note_on_c, 0, 59, 63
2, 119517, Note_on_c, 0, 44, 58
2, 119630, Note_on_c, 0, 44, 0
2, 119630, Note_on_c, 0, 59, 0
2, 119640, Note_on_c, 0, 68, 63
2, 119640, Note_on_c, 0, 56, 58
2, 119750, Note_on_c, 0, 56, 0
2, 119750, Note_on_c, 0, 68, 0
2, 119760, Note_on_c, 0, 63, 63
2, 119760, Note_on_c, 0, 51, 58
2, 119870, Note_on_c, 0, 51, 0
2, 119870, Note_on_c, 0, 63, 0
2, 119880, Note_on_c, 0, 68, 63
2, 119880, Note_on_c, 0, 56, 58
2, 119987, Note_on_c, 0, 56, 0
2, 119987, Note_on_c, 0, 68, 0
2, 119997, Note_on_c, 0, 59, 63
2, 120000, Note_on_c, 0, 44, 58
2, 120107, Note_on_c, 0, 44, 0
2, 120107, Note_on_c, 0, 59, 0
2, 120117, Note_on_c, 0, 68, 63
2, 120119, Note_on_c, 0, 56, 58
2, 120227, Note_on_c, 0, 56, 0
2, 120227, Note_on_c, 0, 68, 0
2, 120237, Note_on_c, 0, 63, 63
2, 120239, Note_on_c, 0, 51, 58
2, 120347, Note_on_c, 0, 51, 0
2, 120347, Note_on_c, 0, 63, 0
2, 120357, Note_on_c, 0, 68, 63
2, 120359, Note_on_c, 0, 56, 58
2, 120467, Note_on_c, 0, 56, 0
2, 120467, Note_on_c, 0, 68, 0
2, 120477, Note_on_c, 0, 59, 58
2, 120477, Note_on_c, 0, 44, 58
2, 120587, Note_on_c, 0, 44, 0
2, 120587, Note_on_c, 0, 59, 0
2, 120597, Note_on_c, 0, 68, 58
2, 120597, Note_on_c, 0, 56, 58
2, 120707, Note_on_c, 0, 56, 0
2, 120707, Note_on_c, 0, 68, 0
2, 120717, Note_on_c, 0, 63, 58
2, 120717, Note_on_c, 0, 51, 58
2, 120827, Note_on_c, 0, 51, 0
2, 120827, Note_on_c, 0, 63, 0
2, 120837, Note_on_c, 0, 68, 58
2, 120837, Note_on_c, 0, 56, 58
2, 120950, Note_on_c, 0, 56, 0
2, 120950, Note_on_c, 0, 68, 0
2, 120960, Note_on_c, 0, 59, 58
2, 120960, Note_on_c, 0, 44, 58
2, 121070, Note_on_c, 0, 44, 0
2, 121070, Note_on_c, 0, 59, 0
2, 121080, Note_on_c, 0, 68, 58
2, 121080, Note_on_c, 0, 56, 58
2, 121190, Note_on_c, 0, 56, 0
2, 121190, Note_on_c, 0, 68, 0
2, 121200, Note_on_c, 0, 63, 58
2, 121200, Note_on_c, 0, 51, 58
2, 121310, Note_on_c, 0, 51, 0
2, 121310, Note_on_c, 0, 63, 0
2, 121320, Note_on_c, 0, 68, 58
2, 121320, Note_on_c, 0, 56, 58
2, 121427, Note_on_c, 0, 56, 0
2, 121427, Note_on_c, 0, 68, 0
2, 121437, Note_on_c, 0, 60, 61
2, 121439, Note_on_c, 0, 44, 61
2, 121547, Note_on_c, 0, 44, 0
2, 121547, Note_on_c, 0, 60, 0
2, 121557, Note_on_c, 0, 66, 61
2, 121559, Note_on_c, 0, 54, 61
2, 121667, Note_on_c, 0, 54, 0
2, 121667, Note_on_c, 0, 66, 0
2, 121677, Note_on_c, 0, 63, 61
2, 121679, Note_on_c, 0, 51, 61
2, 121787, Note_on_c, 0, 51, 0
2, 121787, Note_on_c, 0, 63, 0
2, 121797, Note_on_c, 0, 66, 61
2, 121799, Note_on_c, 0, 54, 61
2, 121907, Note_on_c, 0, 54, 0
2, 121907, Note_on_c, 0, 66, 0
2, 121917, Note_on_c, 0, 60, 61
2, 121917, Note_on_c, 0, 44, 61
2, 122027, Note_on_c, 0, 44, 0
2, 122027, Note_on_c, 0, 60, 0
2, 122037, Note_on_c, 0, 66, 61
2, 122037, Note_on_c, 0, 54, 61
2, 122147, Note_on_c, 0, 54, 0
2, 122147, Note_on_c, 0, 66, 0
2, 122157, Note_on_c, 0, 63, 61
2, 122157, Note_on_c, 0, 51, 61
2, 122267, Note_on_c, 0, 51, 0
2, 122267, Note_on_c, 0, 63, 0
2, 122277, Note_on_c, 0, 66, 61
2, 122277, Note_on_c, 0, 54, 61
2, 122390, Note_on_c, 0, 54, 0
2, 122390, Note_on_c, 0, 66, 0
2, 122400, Note_on_c, 0, 60, 64
2, 122400, Note_on_c, 0, 44, 64
2, 122510, Note_on_c, 0, 44, 0
2, 122510, Note_on_c, 0, 60, 0
2, 122520, Note_on_c, 0, 66, 64
2, 122520, Note_on_c, 0, 54, 64
2, 122630, Note_on_c, 0, 54, 0
2, 122630, Note_on_c, 0, 66, 0
2, 122640, Note_on_c, 0, 63, 64
2, 122640, Note_on_c, 0, 51, 64
2, 122747, Note_on_c, 0, 51, 0
2, 122747, Note_on_c, 0, 63, 0
2, 122757, Note_on_c, 0, 66, 64
2, 122760, Note_on_c, 0, 54, 64
2, 122867, Note_on_c, 0, 54, 0
2, 122867, Note_on_c, 0, 66, 0
2, 122877, Note_on_c, 0, 60, 64
2, 122879, Note_on_c, 0, 44, 64
2, 122987, Note_on_c, 0, 44, 0
2, 122987, Note_on_c, 0, 60, 0
2, 122997, Note_on_c, 0, 66, 64
2, 122999, Note_on_c, 0, 54, 64
2, 123107, Note_on_c, 0, 54, 0
2, 123107, Note_on_c, 0, 66, 0
2, 123117, Note_on_c, 0, 63, 64
2, 123119, Note_on_c, 0, 51, 64
2, 123227, Note_on_c, 0, 51, 0
2, 123227, Note_on_c, 0, 63, 0
2, 123237, Note_on_c, 0, 66, 64
2, 123237, Note_on_c, 0, 54, 64
2, 123332, Note_on_c, 0, 54, 0
2, 123332, Note_on_c, 0, 66, 0
2, 123342, Note_on_c, 0, 61, 71
2, 123342, Note_on_c, 0, 56, 71
2, 123345, Note_on_c, 0, 52, 71
2, 123357, Note_on_c, 0, 64, 71
2, 123357, Note_on_c, 0, 37, 71
2, 123467, Note_on_c, 0, 64, 0
2, 123467, Note_on_c, 0, 52, 0
2, 123467, Note_on_c, 0, 61, 0
2, 123467, Note_on_c, 0, 56, 0
2, 123477, Note_on_c, 0, 44, 58
2, 123569, Note_on_c, 0, 44, 0
2, 123569, Note_on_c, 0, 37, 0
2, 123579, Note_on_c, 0, 44, 58
2, 123597, Note_on_c, 0, 49, 58
2, 123710, Note_on_c, 0, 49, 0
2, 123720, Note_on_c, 0, 52, 58
2, 123807, Note_on_c, 0, 52, 0
2, 123807, Note_on_c, 0, 44, 0
2, 123817, Note_on_c, 0, 37, 58
2, 123840, Note_on_c, 0, 56, 58
2, 123950, Note_on_c, 0, 56, 0
2, 123960, Note_on_c, 0, 49, 58
2, 124047, Note_on_c, 0, 49, 0
2, 124047, Note_on_c, 0, 37, 0
2, 124057, Note_on_c, 0, 44, 58
2, 124077, Note_on_c, 0, 52, 58
2, 124187, Note_on_c, 0, 52, 0
2, 124197, Note_on_c, 0, 56, 58
2, 124290, Note_on_c, 0, 56, 0
2, 124290, Note_on_c, 0, 44, 0
2, 124300, Note_on_c, 0, 37, 58
2, 124317, Note_on_c, 0, 61, 58
2, 124427, Note_on_c, 0, 61, 0
2, 124437, Note_on_c, 0, 52, 58
2, 124530, Note_on_c, 0, 52, 0
2, 124530, Note_on_c, 0, 37, 0
2, 124540, Note_on_c, 0, 44, 58
2, 124557, Note_on_c, 0, 56, 58
2, 124667, Note_on_c, 0, 56, 0
2, 124677, Note_on_c, 0, 61, 58
2, 124769, Note_on_c, 0, 61, 0
2, 124769, Note_on_c, 0, 44, 0
2, 124779, Note_on_c, 0, 37, 58
2, 124797, Note_on_c, 0, 64, 58
2, 124907, Note_on_c, 0, 64, 0
2, 124917, Note_on_c, 0, 56, 58
2, 125009, Note_on_c, 0, 56, 0
2, 125009, Note_on_c, 0, 37, 0
2, 125019, Note_on_c, 0, 44, 58
2, 125037, Note_on_c, 0, 61, 58
2, 125150, Note_on_c, 0, 61, 0
2, 125160, Note_on_c, 0, 64, 58
2, 125249, Note_on_c, 0, 64, 0
2, 125249, Note_on_c, 0, 44, 0
2, 125259, Note_on_c, 0, 37, 58
2, 125277, Note_on_c, 0, 68, 58
2, 125387, Note_on_c, 0, 68, 0
2, 125397, Note_on_c, 0, 61, 58
2, 125490, Note_on_c, 0, 61, 0
2, 125490, Note_on_c, 0, 37, 0
2, 125500, Note_on_c, 0, 44, 58
2, 125517, Note_on_c, 0, 64, 58
2, 125627, Note_on_c, 0, 64, 0
2, 125637, Note_on_c, 0, 68, 58
2, 125730, Note_on_c, 0, 68, 0
2, 125730, Note_on_c, 0, 44, 0
2, 125740, Note_on_c, 0, 37, 58
2, 125757, Note_on_c, 0, 73, 58
2, 125867, Note_on_c, 0, 73, 0
2, 125877, Note_on_c, 0, 64, 58
2, 125969, Note_on_c, 0, 64, 0
2, 125969, Note_on_c, 0, 37, 0
2, 125979, Note_on_c, 0, 44, 58
2, 125997, Note_on_c, 0, 68, 58
2, 126107, Note_on_c, 0, 68, 0
2, 126117, Note_on_c, 0, 73, 58
2, 126209, Note_on_c, 0, 73, 0
2, 126209, Note_on_c, 0, 44, 0
2, 126219, Note_on_c, 0, 37, 58
2, 126237, Note_on_c, 0, 76, 58
2, 126347, Note_on_c, 0, 76, 0
2, 126357, Note_on_c, 0, 68, 58
2, 126447, Note_on_c, 0, 68, 0
2, 126447, Note_on_c, 0, 37, 0
2, 126457, Note_on_c, 0, 44, 58
2, 126480, Note_on_c, 0, 73, 58
2, 126590, Note_on_c, 0, 73, 0
2, 126600, Note_on_c, 0, 76, 58
2, 126687, Note_on_c, 0, 76, 0
2, 126687, Note_on_c, 0, 44, 0
2, 126697, Note_on_c, 0, 49, 71
2, 126699, Note_on_c, 0, 76, 71
2, 126699, Note_on_c, 0, 73, 71
2, 126700, Control_c, 0, 64, 127
2, 126702, Note_on_c, 0, 68, 71
2, 126702, Note_on_c, 0, 37, 71
2, 126720, Note_on_c, 0, 80, 71
2, 126930, Note_on_c, 0, 80, 0
2, 126930, Note_on_c, 0, 49, 0
2, 126930, Note_on_c, 0, 37, 0
2, 126940, Note_on_c, 0, 44, 71
2, 126947, Note_on_c, 0, 76, 0
2, 126947, Note_on_c, 0, 73, 0
2, 126947, Note_on_c, 0, 68, 0
2, 126957, Note_on_c, 0, 80, 71
2, 126959, Note_on_c, 0, 76, 71
2, 126959, Note_on_c, 0, 73, 71
2, 126959, Note_on_c, 0, 68, 71
2, 127170, Note_on_c, 0, 76, 0
2, 127170, Note_on_c, 0, 44, 0
2, 127170, Note_on_c, 0, 80, 0
2, 127176, Control_c, 0, 64, 0
2, 127180, Note_on_c, 0, 36, 58
2, 127290, Note_on_c, 0, 73, 0
2, 127290, Note_on_c, 0, 68, 0
2, 127300, Note_on_c, 0, 44, 58
2, 127409, Note_on_c, 0, 44, 0
2, 127409, Note_on_c, 0, 36, 0
2, 127419, Note_on_c, 0, 44, 58
2, 127437, Note_on_c, 0, 48, 58
2, 127547, Note_on_c, 0, 48, 0
2, 127557, Note_on_c, 0, 51, 58
2, 127649, Note_on_c, 0, 51, 0
2, 127649, Note_on_c, 0, 44, 0
2, 127659, Note_on_c, 0, 36, 58
2, 127677, Note_on_c, 0, 56, 58
2, 127790, Note_on_c, 0, 56, 0
2, 127800, Note_on_c, 0, 48, 58
2, 127887, Note_on_c, 0, 48, 0
2, 127887, Note_on_c, 0, 36, 0
2, 127897, Note_on_c, 0, 44, 58
2, 127920, Note_on_c, 0, 51, 58
2, 128030, Note_on_c, 0, 51, 0
2, 128040, Note_on_c, 0, 56, 58
2, 128127, Note_on_c, 0, 56, 0
2, 128127, Note_on_c, 0, 44, 0
2, 128137, Note_on_c, 0, 36, 58
2, 128157, Note_on_c, 0, 60, 58
2, 128267, Note_on_c, 0, 60, 0
2, 128277, Note_on_c, 0, 51, 58
2, 128370, Note_on_c, 0, 51, 0
2, 128370, Note_on_c, 0, 36, 0
2, 128380, Note_on_c, 0, 44, 58
2, 128397, Note_on_c, 0, 56, 58
2, 128507, Note_on_c, 0, 56, 0
2, 128517, Note_on_c, 0, 60, 58
2, 128610, Note_on_c, 0, 60, 0
2, 128610, Note_on_c, 0, 44, 0
2, 128620, Note_on_c, 0, 36, 58
2, 128637, Note_on_c, 0, 63, 58
2, 128747, Note_on_c, 0, 63, 0
2, 128757, Note_on_c, 0, 56, 58
2, 128849, Note_on_c, 0, 56, 0
2, 128849, Note_on_c, 0, 36, 0
2, 128859, Note_on_c, 0, 44, 58
2, 128877, Note_on_c, 0, 60, 58
2, 128987, Note_on_c, 0, 60, 0
2, 128997, Note_on_c, 0, 63, 58
2, 129089, Note_on_c, 0, 63, 0
2, 129089, Note_on_c, 0, 44, 0
2, 129099, Note_on_c, 0, 36, 58
2, 129120, Note_on_c, 0, 68, 58
2, 129230, Note_on_c, 0, 68, 0
2, 129240, Note_on_c, 0, 60, 58
2, 129327, Note_on_c, 0, 60, 0
2, 129327, Note_on_c, 0, 36, 0
2, 129337, Note_on_c, 0, 44, 58
2, 129360, Note_on_c, 0, 63, 58
2, 129467, Note_on_c, 0, 63, 0
2, 129477, Note_on_c, 0, 68, 58
2, 129570, Note_on_c, 0, 68, 0
2, 129570, Note_on_c, 0, 44, 0
2, 129580, Note_on_c, 0, 36, 58
2, 129597, Note_on_c, 0, 72, 58
2, 129707, Note_on_c, 0, 72, 0
2, 129717, Note_on_c, 0, 63, 58
2, 129810, Note_on_c, 0, 63, 0
2, 129810, Note_on_c, 0, 36, 0
2, 129820, Note_on_c, 0, 44, 58
2, 129837, Note_on_c, 0, 68, 58
2, 129947, Note_on_c, 0, 68, 0
2, 129957, Note_on_c, 0, 72, 58
2, 130050, Note_on_c, 0, 72, 0
2, 130050, Note_on_c, 0, 44, 0
2, 130060, Note_on_c, 0, 36, 58
2, 130077, Note_on_c, 0, 75, 58
2, 130187, Note_on_c, 0, 75, 0
2, 130197, Note_on_c, 0, 68, 58
2, 130289, Note_on_c, 0, 68, 0
2, 130289, Note_on_c, 0, 36, 0
2, 130299, Note_on_c, 0, 44, 58
2, 130317, Note_on_c, 0, 72, 58
2, 130427, Note_on_c, 0, 72, 0
2, 130437, Note_on_c, 0, 75, 58
2, 130529, Note_on_c, 0, 75, 0
2, 130529, Note_on_c, 0, 44, 0
2, 130539, Note_on_c, 0, 36, 71
2, 130539, Note_on_c, 0, 75, 71
2, 130539, Note_on_c, 0, 72, 71
2, 130540, Control_c, 0, 64, 127
2, 130542, Note_on_c, 0, 68, 71
2, 130542, Note_on_c, 0, 48, 71
2, 130560, Note_on_c, 0, 80, 71
2, 130767, Note_on_c, 0, 80, 0
2, 130767, Note_on_c, 0, 36, 0
2, 130777, Note_on_c, 0, 44, 71
2, 130790, Note_on_c, 0, 68, 0
2, 130790, Note_on_c, 0, 48, 0
2, 130790, Note_on_c, 0, 75, 0
2, 130790, Note_on_c, 0, 72, 0
2, 130800, Note_on_c, 0, 80, 71
2, 130800, Note_on_c, 0, 75, 71
2, 130800, Note_on_c, 0, 72, 71
2, 130803, Note_on_c, 0, 68, 71
2, 131010, Note_on_c, 0, 80, 0
2, 131010, Note_on_c, 0, 44, 0
2, 131016, Control_c, 0, 64, 0
2, 131020, Note_on_c, 0, 35, 58
2, 131130, Note_on_c, 0, 72, 0
2, 131130, Note_on_c, 0, 68, 0
2, 131130, Note_on_c, 0, 75, 0
2, 131140, Note_on_c, 0, 49, 58
2, 131250, Note_on_c, 0, 49, 0
2, 131250, Note_on_c, 0, 35, 0
2, 131260, Note_on_c, 0, 44, 58
2, 131277, Note_on_c, 0, 53, 58
2, 131387, Note_on_c, 0, 53, 0
2, 131397, Note_on_c, 0, 56, 58
2, 131490, Note_on_c, 0, 56, 0
2, 131490, Note_on_c, 0, 44, 0
2, 131500, Note_on_c, 0, 35, 58
2, 131517, Note_on_c, 0, 61, 58
2, 131627, Note_on_c, 0, 61, 0
2, 131637, Note_on_c, 0, 53, 58
2, 131729, Note_on_c, 0, 53, 0
2, 131729, Note_on_c, 0, 35, 0
2, 131739, Note_on_c, 0, 44, 58
2, 131757, Note_on_c, 0, 56, 58
2, 131870, Note_on_c, 0, 56, 0
2, 131880, Note_on_c, 0, 61, 58
2, 131967, Note_on_c, 0, 61, 0
2, 131967, Note_on_c, 0, 44, 0
2, 131977, Note_on_c, 0, 35, 58
2, 132000, Note_on_c, 0, 65, 58
2, 132110, Note_on_c, 0, 65, 0
2, 132120, Note_on_c, 0, 56, 58
2, 132207, Note_on_c, 0, 56, 0
2, 132207, Note_on_c, 0, 35, 0
2, 132217, Note_on_c, 0, 44, 58
2, 132237, Note_on_c, 0, 61, 58
2, 132347, Note_on_c, 0, 61, 0
2, 132357, Note_on_c, 0, 65, 58
2, 132450, Note_on_c, 0, 65, 0
2, 132450, Note_on_c, 0, 44, 0
2, 132460, Note_on_c, 0, 35, 58
2, 132477, Note_on_c, 0, 68, 58
2, 132587, Note_on_c, 0, 68, 0
2, 132597, Note_on_c, 0, 61, 58
2, 132690, Note_on_c, 0, 61, 0
2, 132690, Note_on_c, 0, 35, 0
2, 132700, Note_on_c, 0, 44, 58
2, 132717, Note_on_c, 0, 65, 58
2, 132827, Note_on_c, 0, 65, 0
2, 132837, Note_on_c, 0, 68, 58
2, 132929, Note_on_c, 0, 68, 0
2, 132929, Note_on_c, 0, 44, 0
2, 132939, Note_on_c, 0, 35, 58
2, 132957, Note_on_c, 0, 73, 58
2, 133067, Note_on_c, 0, 73, 0
2, 133077, Note_on_c, 0, 65, 58
2, 133169, Note_on_c, 0, 65, 0
2, 133169, Note_on_c, 0, 35, 0
2, 133179, Note_on_c, 0, 44, 58
2, 133200, Note_on_c, 0, 68, 58
2, 133310, Note_on_c, 0, 68, 0
2, 133320, Note_on_c, 0, 73, 58
2, 133407, Note_on_c, 0, 73, 0
2, 133407, Note_on_c, 0, 44, 0
2, 133417, Note_on_c, 0, 35, 58
2, 133440, Note_on_c, 0, 77, 58
2, 133547, Note_on_c, 0, 77, 0
2, 133557, Note_on_c, 0, 68, 58
2, 133650, Note_on_c, 0, 68, 0
2, 133650, Note_on_c, 0, 35, 0
2, 133660, Note_on_c, 0, 44, 58
2, 133677, Note_on_c, 0, 73, 58
2, 133787, Note_on_c, 0, 73, 0
2, 133797, Note_on_c, 0, 77, 58
2, 133890, Note_on_c, 0, 77, 0
2, 133890, Note_on_c, 0, 44, 0
2, 133900, Note_on_c, 0, 35, 58
2, 133917, Note_on_c, 0, 80, 58
2, 134027, Note_on_c, 0, 80, 0
2, 134037, Note_on_c, 0, 73, 58
2, 134129, Note_on_c, 0, 73, 0
2, 134129, Note_on_c, 0, 35, 0
2, 134139, Note_on_c, 0, 44, 58
2, 134157, Note_on_c, 0, 77, 58
2, 134267, Note_on_c, 0, 77, 0
2, 134277, Note_on_c, 0, 80, 58
2, 134369, Note_on_c, 0, 80, 0
2, 134369, Note_on_c, 0, 44, 0
2, 134379, Note_on_c, 0, 35, 71
2, 134379, Note_on_c, 0, 80, 71
2, 134379, Note_on_c, 0, 77, 71
2, 134380, Control_c, 0, 64, 127
2, 134382, Note_on_c, 0, 73, 71
2, 134382, Note_on_c, 0, 47, 71
2, 134397, Note_on_c, 0, 85, 71
2, 134607, Note_on_c, 0, 85, 0
2, 134607, Note_on_c, 0, 35, 0
2, 134607, Note_on_c, 0, 47, 0
2, 134617, Note_on_c, 0, 44, 71
2, 134630, Note_on_c, 0, 80, 0
2, 134630, Note_on_c, 0, 77, 0
2, 134630, Note_on_c, 0, 73, 0
2, 134640, Note_on_c, 0, 85, 71
2, 134640, Note_on_c, 0, 80, 71
2, 134640, Note_on_c, 0, 77, 71
2, 134643, Note_on_c, 0, 73, 71
2, 134847, Note_on_c, 0, 85, 0
2, 134847, Note_on_c, 0, 44, 0
2, 134856, Control_c, 0, 64, 0
2, 134857, Note_on_c, 0, 33, 58
2, 134967, Note_on_c, 0, 77, 0
2, 134967, Note_on_c, 0, 73, 0
2, 134967, Note_on_c, 0, 80, 0
2, 134977, Note_on_c, 0, 49, 58
2, 135090, Note_on_c, 0, 33, 0
2, 135100, Note_on_c, 0, 54, 58
2, 135100, Note_on_c, 0, 45, 58
2, 135210, Note_on_c, 0, 49, 0
2, 135220, Note_on_c, 0, 57, 58
2, 135330, Note_on_c, 0, 57, 0
2, 135330, Note_on_c, 0, 45, 0
2, 135330, Note_on_c, 0, 54, 0
2, 135340, Note_on_c, 0, 33, 58
2, 135357, Note_on_c, 0, 61, 58
2, 135467, Note_on_c, 0, 61, 0
2, 135477, Note_on_c, 0, 61, 59
2, 135567, Note_on_c, 0, 33, 0
2, 135577, Note_on_c, 0, 66, 59
2, 135579, Note_on_c, 0, 45, 58
2, 135687, Note_on_c, 0, 61, 0
2, 135697, Note_on_c, 0, 69, 59
2, 135809, Note_on_c, 0, 69, 0
2, 135809, Note_on_c, 0, 45, 0
2, 135809, Note_on_c, 0, 66, 0
2, 135819, Note_on_c, 0, 33, 58
2, 135837, Note_on_c, 0, 73, 63
2, 135950, Note_on_c, 0, 73, 0
2, 135960, Note_on_c, 0, 73, 67
2, 136047, Note_on_c, 0, 33, 0
2, 136057, Note_on_c, 0, 78, 67
2, 136057, Note_on_c, 0, 45, 58
2, 136167, Note_on_c, 0, 73, 0
2, 136177, Note_on_c, 0, 81, 67
2, 136287, Note_on_c, 0, 81, 0
2, 136287, Note_on_c, 0, 45, 0
2, 136287, Note_on_c, 0, 78, 0
2, 136297, Note_on_c, 0, 33, 58
2, 136299, Note_on_c, 0, 78, 79
2, 136299, Note_on_c, 0, 73, 79
2, 136300, Control_c, 0, 64, 127
2, 136317, Note_on_c, 0, 85, 79
2, 136530, Note_on_c, 0, 85, 0
2, 136530, Note_on_c, 0, 33, 0
2, 136530, Note_on_c, 0, 78, 0
2, 136540, Note_on_c, 0, 45, 58
2, 136547, Note_on_c, 0, 73, 0
2, 136557, Note_on_c, 0, 85, 79
2, 136559, Note_on_c, 0, 78, 79
2, 136559, Note_on_c, 0, 73, 79
2, 136770, Note_on_c, 0, 78, 0
2, 136770, Note_on_c, 0, 45, 0
2, 136770, Note_on_c, 0, 85, 0
2, 136776, Control_c, 0, 64, 0
2, 136780, Note_on_c, 0, 33, 58
2, 136887, Note_on_c, 0, 73, 0
2, 136897, Note_on_c, 0, 49, 58
2, 137007, Note_on_c, 0, 33, 0
2, 137017, Note_on_c, 0, 52, 58
2, 137019, Note_on_c, 0, 45, 58
2, 137127, Note_on_c, 0, 49, 0
2, 137137, Note_on_c, 0, 55, 58
2, 137249, Note_on_c, 0, 55, 0
2, 137249, Note_on_c, 0, 45, 0
2, 137249, Note_on_c, 0, 52, 0
2, 137259, Note_on_c, 0, 33, 58
2, 137280, Note_on_c, 0, 61, 58
2, 137390, Note_on_c, 0, 61, 0
2, 137400, Note_on_c, 0, 61, 59
2, 137487, Note_on_c, 0, 33, 0
2, 137497, Note_on_c, 0, 64, 59
2, 137497, Note_on_c, 0, 45, 58
2, 137607, Note_on_c, 0, 61, 0
2, 137617, Note_on_c, 0, 67, 59
2, 137730, Note_on_c, 0, 67, 0
2, 137730, Note_on_c, 0, 45, 0
2, 137730, Note_on_c, 0, 64, 0
2, 137740, Note_on_c, 0, 33, 58
2, 137757, Note_on_c, 0, 73, 59
2, 137867, Note_on_c, 0, 73, 0
2, 137877, Note_on_c, 0, 73, 67
2, 137970, Note_on_c, 0, 33, 0
2, 137980, Note_on_c, 0, 76, 67
2, 137980, Note_on_c, 0, 45, 58
2, 138090, Note_on_c, 0, 73, 0
2, 138100, Note_on_c, 0, 79, 67
2, 138209, Note_on_c, 0, 79, 0
2, 138209, Note_on_c, 0, 45, 0
2, 138209, Note_on_c, 0, 76, 0
2, 138219, Note_on_c, 0, 33, 58
2, 138219, Note_on_c, 0, 79, 79
2, 138220, Control_c, 0, 64, 127
2, 138222, Note_on_c, 0, 73, 79
2, 138237, Note_on_c, 0, 85, 79
2, 138449, Note_on_c, 0, 85, 0
2, 138449, Note_on_c, 0, 33, 0
2, 138449, Note_on_c, 0, 79, 0
2, 138449, Note_on_c, 0, 73, 0
2, 138459, Note_on_c, 0, 45, 58
2, 138477, Note_on_c, 0, 85, 79
2, 138477, Note_on_c, 0, 79, 79
2, 138479, Note_on_c, 0, 73, 79
2, 138689, Note_on_c, 0, 73, 0
2, 138689, Note_on_c, 0, 45, 0
2, 138689, Note_on_c, 0, 85, 0
2, 138689, Note_on_c, 0, 79, 0
2, 138696, Control_c, 0, 64, 0
2, 138699, Note_on_c, 0, 44, 75
2, 138702, Note_on_c, 0, 32, 75
2, 138720, Note_on_c, 0, 84, 75
2, 138720, Note_on_c, 0, 80, 75
2, 138720, Note_on_c, 0, 72, 75
2, 138950, Note_on_c, 0, 72, 0
2, 138950, Note_on_c, 0, 84, 0
2, 138950, Note_on_c, 0, 44, 0
2, 138950, Note_on_c, 0, 32, 0
2, 138950, Note_on_c, 0, 80, 0
2, 138960, Note_on_c, 0, 68, 75
2, 138960, Note_on_c, 0, 60, 75
2, 138960, Note_on_c, 0, 56, 75
2, 139067, Note_on_c, 0, 68, 0
2, 139077, Note_on_c, 0, 80, 75
2, 139187, Note_on_c, 0, 80, 0
2, 139187, Note_on_c, 0, 60, 0
2, 139197, Note_on_c, 0, 68, 75
2, 139199, Note_on_c, 0, 60, 75
2, 139307, Note_on_c, 0, 68, 0
2, 139317, Note_on_c, 0, 80, 75
2, 139427, Note_on_c, 0, 80, 0
2, 139427, Note_on_c, 0, 60, 0
2, 139437, Note_on_c, 0, 70, 75
2, 139439, Note_on_c, 0, 61, 75
2, 139547, Note_on_c, 0, 70, 0
2, 139557, Note_on_c, 0, 80, 75
2, 139667, Note_on_c, 0, 80, 0
2, 139667, Note_on_c, 0, 61, 0
2, 139677, Note_on_c, 0, 72, 75
2, 139677, Note_on_c, 0, 63, 75
2, 139787, Note_on_c, 0, 72, 0
2, 139797, Note_on_c, 0, 80, 75
2, 139907, Note_on_c, 0, 80, 0
2, 139907, Note_on_c, 0, 63, 0
2, 139917, Note_on_c, 0, 73, 75
2, 139917, Note_on_c, 0, 64, 75
2, 140030, Note_on_c, 0, 73, 0
2, 140040, Note_on_c, 0, 80, 75
2, 140150, Note_on_c, 0, 80, 0
2, 140150, Note_on_c, 0, 64, 0
2, 140160, Note_on_c, 0, 75, 75
2, 140160, Note_on_c, 0, 66, 75
2, 140270, Note_on_c, 0, 75, 0
2, 140280, Note_on_c, 0, 80, 75
2, 140387, Note_on_c, 0, 80, 0
2, 140387, Note_on_c, 0, 66, 0
2, 140397, Note_on_c, 0, 72, 75
2, 140400, Note_on_c, 0, 63, 75
2, 140507, Note_on_c, 0, 72, 0
2, 140517, Note_on_c, 0, 80, 75
2, 140627, Note_on_c, 0, 80, 0
2, 140627, Note_on_c, 0, 63, 0
2, 140637, Note_on_c, 0, 75, 75
2, 140639, Note_on_c, 0, 66, 75
2, 140747, Note_on_c, 0, 75, 0
2, 140757, Note_on_c, 0, 80, 75
2, 140867, Note_on_c, 0, 80, 0
2, 140867, Note_on_c, 0, 66, 0
2, 140877, Note_on_c, 0, 73, 75
2, 140877, Note_on_c, 0, 64, 75
2, 140987, Note_on_c, 0, 73, 0
2, 140997, Note_on_c, 0, 80, 75
2, 141107, Note_on_c, 0, 80, 0
2, 141107, Note_on_c, 0, 64, 0
2, 141117, Note_on_c, 0, 78, 75
2, 141117, Note_on_c, 0, 69, 75
2, 141227, Note_on_c, 0, 78, 0
2, 141237, Note_on_c, 0, 80, 75
2, 141350, Note_on_c, 0, 80, 0
2, 141350, Note_on_c, 0, 69, 0
2, 141360, Note_on_c, 0, 76, 75
2, 141360, Note_on_c, 0, 68, 75
2, 141470, Note_on_c, 0, 76, 0
2, 141480, Note_on_c, 0, 80, 75
2, 141590, Note_on_c, 0, 80, 0
2, 141590, Note_on_c, 0, 68, 0
2, 141600, Note_on_c, 0, 75, 75
2, 141600, Note_on_c, 0, 66, 75
2, 141707, Note_on_c, 0, 75, 0
2, 141717, Note_on_c, 0, 80, 75
2, 141827, Note_on_c, 0, 80, 0
2, 141827, Note_on_c, 0, 66, 0
2, 141837, Note_on_c, 0, 73, 75
2, 141839, Note_on_c, 0, 64, 75
2, 141947, Note_on_c, 0, 73, 0
2, 141957, Note_on_c, 0, 80, 75
2, 142067, Note_on_c, 0, 80, 0
2, 142067, Note_on_c, 0, 64, 0
2, 142077, Note_on_c, 0, 72, 75
2, 142079, Note_on_c, 0, 63, 75
2, 142187, Note_on_c, 0, 72, 0
2, 142197, Note_on_c, 0, 80, 75
2, 142307, Note_on_c, 0, 80, 0
2, 142307, Note_on_c, 0, 63, 0
2, 142317, Note_on_c, 0, 69, 75
2, 142317, Note_on_c, 0, 61, 75
2, 142427, Note_on_c, 0, 69, 0
2, 142437, Note_on_c, 0, 79, 75
2, 142547, Note_on_c, 0, 79, 0
2, 142547, Note_on_c, 0, 61, 0
2, 142547, Note_on_c, 0, 56, 0
2, 142557, Note_on_c, 0, 68, 75
2, 142557, Note_on_c, 0, 60, 75
2, 142559, Note_on_c, 0, 56, 75
2, 142667, Note_on_c, 0, 68, 0
2, 142677, Note_on_c, 0, 80, 75
2, 142790, Note_on_c, 0, 80, 0
2, 142790, Note_on_c, 0, 60, 0
2, 142800, Note_on_c, 0, 68, 75
2, 142800, Note_on_c, 0, 60, 75
2, 142910, Note_on_c, 0, 68, 0
2, 142920, Note_on_c, 0, 80, 75
2, 143027, Note_on_c, 0, 80, 0
2, 143027, Note_on_c, 0, 60, 0
2, 143037, Note_on_c, 0, 68, 75
2, 143040, Note_on_c, 0, 60, 75
2, 143147, Note_on_c, 0, 68, 0
2, 143157, Note_on_c, 0, 80, 75
2, 143267, Note_on_c, 0, 80, 0
2, 143267, Note_on_c, 0, 60, 0
2, 143277, Note_on_c, 0, 70, 75
2, 143279, Note_on_c, 0, 61, 75
2, 143387, Note_on_c, 0, 70, 0
2, 143397, Note_on_c, 0, 80, 75
2, 143507, Note_on_c, 0, 80, 0
2, 143507, Note_on_c, 0, 61, 0
2, 143517, Note_on_c, 0, 72, 75
2, 143519, Note_on_c, 0, 63, 75
2, 143627, Note_on_c, 0, 72, 0
2, 143637, Note_on_c, 0, 80, 75
2, 143747, Note_on_c, 0, 80, 0
2, 143747, Note_on_c, 0, 63, 0
2, 143757, Note_on_c, 0, 73, 75
2, 143757, Note_on_c, 0, 64, 75
2, 143867, Note_on_c, 0, 73, 0
2, 143877, Note_on_c, 0, 80, 75
2, 143987, Note_on_c, 0, 80, 0
2, 143987, Note_on_c, 0, 64, 0
2, 143997, Note_on_c, 0, 75, 75
2, 143997, Note_on_c, 0, 66, 75
2, 144110, Note_on_c, 0, 75, 0
2, 144120, Note_on_c, 0, 80, 75
2, 144230, Note_on_c, 0, 80, 0
2, 144230, Note_on_c, 0, 66, 0
2, 144240, Note_on_c, 0, 72, 75
2, 144240, Note_on_c, 0, 63, 75
2, 144350, Note_on_c, 0, 72, 0
2, 144360, Note_on_c, 0, 80, 75
2, 144467, Note_on_c, 0, 80, 0
2, 144467, Note_on_c, 0, 63, 0
2, 144477, Note_on_c, 0, 75, 75
2, 144480, Note_on_c, 0, 66, 75
2, 144587, Note_on_c, 0, 75, 0
2, 144597, Note_on_c, 0, 80, 75
2, 144707, Note_on_c, 0, 80, 0
2, 144707, Note_on_c, 0, 66, 0
2, 144717, Note_on_c, 0, 73, 75
2, 144719, Note_on_c, 0, 64, 75
2, 144827, Note_on_c, 0, 73, 0
2, 144837, Note_on_c, 0, 80, 75
2, 144947, Note_on_c, 0, 80, 0
2, 144947, Note_on_c, 0, 64, 0
2, 144957, Note_on_c, 0, 78, 75
2, 144957, Note_on_c, 0, 69, 75
2, 145067, Note_on_c, 0, 78, 0
2, 145077, Note_on_c, 0, 80, 75
2, 145187, Note_on_c, 0, 80, 0
2, 145187, Note_on_c, 0, 69, 0
2, 145197, Note_on_c, 0, 76, 75
2, 145197, Note_on_c, 0, 68, 75
2, 145307, Note_on_c, 0, 76, 0
2, 145317, Note_on_c, 0, 80, 75
2, 145430, Note_on_c, 0, 80, 0
2, 145430, Note_on_c, 0, 68, 0
2, 145440, Note_on_c, 0, 75, 75
2, 145440, Note_on_c, 0, 66, 75
2, 145550, Note_on_c, 0, 75, 0
2, 145560, Note_on_c, 0, 80, 75
2, 145670, Note_on_c, 0, 80, 0
2, 145670, Note_on_c, 0, 66, 0
2, 145680, Note_on_c, 0, 73, 75
2, 145680, Note_on_c, 0, 64, 75
2, 145787, Note_on_c, 0, 73, 0
2, 145797, Note_on_c, 0, 80, 75
2, 145907, Note_on_c, 0, 80, 0
2, 145907, Note_on_c, 0, 64, 0
2, 145917, Note_on_c, 0, 72, 75
2, 145919, Note_on_c, 0, 63, 75
2, 146027, Note_on_c, 0, 72, 0
2, 146037, Note_on_c, 0, 80, 75
2, 146147, Note_on_c, 0, 80, 0
2, 146147, Note_on_c, 0, 63, 0
2, 146157, Note_on_c, 0, 69, 75
2, 146159, Note_on_c, 0, 61, 75
2, 146267, Note_on_c, 0, 69, 0
2, 146277, Note_on_c, 0, 79, 75
2, 146387, Note_on_c, 0, 79, 0
2, 146387, Note_on_c, 0, 61, 0
2, 146387, Note_on_c, 0, 56, 0
2, 146397, Note_on_c, 0, 68, 75
2, 146397, Note_on_c, 0, 60, 75
2, 146399, Note_on_c, 0, 56, 75
2, 146507, Note_on_c, 0, 68, 0
2, 146517, Note_on_c, 0, 80, 75
2, 146627, Note_on_c, 0, 80, 0
2, 146627, Note_on_c, 0, 56, 0
2, 146627, Note_on_c, 0, 60, 0
2, 146637, Note_on_c, 0, 69, 75
2, 146637, Note_on_c, 0, 61, 75
2, 146639, Note_on_c, 0, 56, 75
2, 146747, Note_on_c, 0, 69, 0
2, 146757, Note_on_c, 0, 79, 75
2, 146870, Note_on_c, 0, 79, 0
2, 146870, Note_on_c, 0, 56, 0
2, 146870, Note_on_c, 0, 61, 0
2, 146880, Note_on_c, 0, 68, 75
2, 146880, Note_on_c, 0, 60, 75
2, 146880, Note_on_c, 0, 56, 75
2, 146990, Note_on_c, 0, 68, 0
2, 147000, Note_on_c, 0, 80, 75
2, 147107, Note_on_c, 0, 80, 0
2, 147107, Note_on_c, 0, 56, 0
2, 147107, Note_on_c, 0, 60, 0
2, 147117, Note_on_c, 0, 69, 75
2, 147120, Note_on_c, 0, 61, 75
2, 147120, Note_on_c, 0, 56, 75
2, 147227, Note_on_c, 0, 69, 0
2, 147237, Note_on_c, 0, 79, 75
2, 147347, Note_on_c, 0, 79, 0
2, 147347, Note_on_c, 0, 56, 0
2, 147347, Note_on_c, 0, 61, 0
2, 147357, Note_on_c, 0, 68, 75
2, 147359, Note_on_c, 0, 60, 75
2, 147359, Note_on_c, 0, 56, 75
2, 147467, Note_on_c, 0, 68, 0
2, 147477, Note_on_c, 0, 80, 75
2, 147587, Note_on_c, 0, 80, 0
2, 147587, Note_on_c, 0, 56, 0
2, 147587, Note_on_c, 0, 60, 0
2, 147597, Note_on_c, 0, 69, 75
2, 147599, Note_on_c, 0, 61, 75
2, 147599, Note_on_c, 0, 56, 75
2, 147707, Note_on_c, 0, 69, 0
2, 147717, Note_on_c, 0, 79, 75
2, 147827, Note_on_c, 0, 79, 0
2, 147827, Note_on_c, 0, 56, 0
2, 147827, Note_on_c, 0, 61, 0
2, 147837, Note_on_c, 0, 68, 75
2, 147837, Note_on_c, 0, 60, 75
2, 147839, Note_on_c, 0, 56, 75
2, 147947, Note_on_c, 0, 68, 0
2, 147957, Note_on_c, 0, 80, 75
2, 148067, Note_on_c, 0, 80, 0
2, 148067, Note_on_c, 0, 56, 0
2, 148067, Note_on_c, 0, 60, 0
2, 148077, Note_on_c, 0, 69, 75
2, 148077, Note_on_c, 0, 61, 75
2, 148079, Note_on_c, 0, 56, 75
2, 148190, Note_on_c, 0, 69, 0
2, 148200, Note_on_c, 0, 79, 75
2, 148310, Note_on_c, 0, 79, 0
2, 148310, Note_on_c, 0, 56, 0
2, 148310, Note_on_c, 0, 61, 0
2, 148320, Note_on_c, 0, 80, 75
2, 148320, Note_on_c, 0, 60, 75
2, 148320, Note_on_c, 0, 56, 75
2, 148786, Note_on_c, 0, 56, 0
2, 148786, Note_on_c, 0, 60, 0
2, 148786, Note_on_c, 0, 80, 0
2, 148796, Note_on_c, 0, 32, 75
2, 148796, Note_on_c, 0, 44, 75
2, 148796, Note_on_c, 0, 56, 75
2, 150710, Note_on_c, 0, 56, 0
2, 150710, Note_on_c, 0, 44, 0
2, 150710, Note_on_c, 0, 32, 0
2, 150720, Note_on_c, 0, 37, 58
2, 150820, Note_on_c, 0, 44, 58
2, 150932, Note_on_c, 0, 44, 0
2, 150932, Note_on_c, 0, 37, 0
2, 150942, Note_on_c, 0, 44, 58
2, 150960, Note_on_c, 0, 49, 58
2, 151073, Note_on_c, 0, 49, 0
2, 151083, Note_on_c, 0, 52, 58
2, 151170, Note_on_c, 0, 52, 0
2, 151170, Note_on_c, 0, 44, 0
2, 151180, Note_on_c, 0, 37, 58
2, 151203, Note_on_c, 0, 56, 58
2, 151313, Note_on_c, 0, 56, 0
2, 151323, Note_on_c, 0, 49, 58
2, 151410, Note_on_c, 0, 49, 0
2, 151410, Note_on_c, 0, 37, 0
2, 151420, Note_on_c, 0, 44, 58
2, 151440, Note_on_c, 0, 52, 58
2, 151550, Note_on_c, 0, 52, 0
2, 151560, Note_on_c, 0, 56, 58
2, 151653, Note_on_c, 0, 56, 0
2, 151653, Note_on_c, 0, 44, 0
2, 151663, Note_on_c, 0, 37, 58
2, 151680, Note_on_c, 0, 61, 58
2, 151790, Note_on_c, 0, 61, 0
2, 151800, Note_on_c, 0, 52, 58
2, 151893, Note_on_c, 0, 52, 0
2, 151893, Note_on_c, 0, 37, 0
2, 151903, Note_on_c, 0, 44, 58
2, 151920, Note_on_c, 0, 56, 58
2, 152030, Note_on_c, 0, 56, 0
2, 152040, Note_on_c, 0, 64, 58
2, 152133, Note_on_c, 0, 64, 0
2, 152133, Note_on_c, 0, 44, 0
2, 152143, Note_on_c, 0, 37, 58
2, 152160, Note_on_c, 0, 68, 58
2, 152270, Note_on_c, 0, 68, 0
2, 152280, Note_on_c, 0, 56, 58
2, 152372, Note_on_c, 0, 56, 0
2, 152372, Note_on_c, 0, 37, 0
2, 152382, Note_on_c, 0, 44, 58
2, 152400, Note_on_c, 0, 61, 58
2, 152513, Note_on_c, 0, 61, 0
2, 152523, Note_on_c, 0, 64, 58
2, 152610, Note_on_c, 0, 64, 0
2, 152610, Note_on_c, 0, 44, 0
2, 152620, Note_on_c, 0, 37, 58
2, 152643, Note_on_c, 0, 68, 58
2, 152753, Note_on_c, 0, 68, 0
2, 152763, Note_on_c, 0, 61, 58
2, 152850, Note_on_c, 0, 61, 0
2, 152850, Note_on_c, 0, 37, 0
2, 152860, Note_on_c, 0, 44, 58
2, 152880, Note_on_c, 0, 64, 58
2, 152990, Note_on_c, 0, 64, 0
2, 153000, Note_on_c, 0, 68, 58
2, 153093, Note_on_c, 0, 68, 0
2, 153093, Note_on_c, 0, 44, 0
2, 153103, Note_on_c, 0, 37, 58
2, 153120, Note_on_c, 0, 73, 58
2, 153230, Note_on_c, 0, 73, 0
2, 153240, Note_on_c, 0, 64, 58
2, 153333, Note_on_c, 0, 64, 0
2, 153333, Note_on_c, 0, 37, 0
2, 153343, Note_on_c, 0, 44, 58
2, 153360, Note_on_c, 0, 68, 58
2, 153470, Note_on_c, 0, 68, 0
2, 153480, Note_on_c, 0, 73, 58
2, 153572, Note_on_c, 0, 73, 0
2, 153572, Note_on_c, 0, 44, 0
2, 153582, Note_on_c, 0, 37, 58
2, 153600, Note_on_c, 0, 76, 58
2, 153710, Note_on_c, 0, 76, 0
2, 153720, Note_on_c, 0, 76, 58
2, 153812, Note_on_c, 0, 76, 0
2, 153812, Note_on_c, 0, 37, 0
2, 153822, Note_on_c, 0, 44, 58
2, 153843, Note_on_c, 0, 80, 58
2, 153953, Note_on_c, 0, 80, 0
2, 153963, Note_on_c, 0, 85, 58
2, 154050, Note_on_c, 0, 85, 0
2, 154050, Note_on_c, 0, 44, 0
2, 154060, Note_on_c, 0, 37, 71
2, 154062, Note_on_c, 0, 49, 71
2, 154062, Note_on_c, 0, 76, 71
2, 154063, Control_c, 0, 64, 127
2, 154083, Note_on_c, 0, 88, 71
2, 154293, Note_on_c, 0, 88, 0
2, 154293, Note_on_c, 0, 37, 0
2, 154293, Note_on_c, 0, 49, 0
2, 154303, Note_on_c, 0, 44, 71
2, 154310, Note_on_c, 0, 76, 0
2, 154320, Note_on_c, 0, 88, 71
2, 154322, Note_on_c, 0, 76, 71
2, 154533, Note_on_c, 0, 88, 0
2, 154533, Note_on_c, 0, 44, 0
2, 154539, Control_c, 0, 64, 0
2, 154543, Note_on_c, 0, 34, 58
2, 154653, Note_on_c, 0, 76, 0
2, 154663, Note_on_c, 0, 52, 58
2, 154772, Note_on_c, 0, 52, 0
2, 154772, Note_on_c, 0, 34, 0
2, 154782, Note_on_c, 0, 49, 58
2, 154800, Note_on_c, 0, 55, 58
2, 154910, Note_on_c, 0, 55, 0
2, 154920, Note_on_c, 0, 61, 58
2, 155012, Note_on_c, 0, 61, 0
2, 155012, Note_on_c, 0, 49, 0
2, 155022, Note_on_c, 0, 46, 58
2, 155040, Note_on_c, 0, 64, 58
2, 155153, Note_on_c, 0, 64, 0
2, 155163, Note_on_c, 0, 55, 58
2, 155250, Note_on_c, 0, 55, 0
2, 155250, Note_on_c, 0, 46, 0
2, 155260, Note_on_c, 0, 49, 58
2, 155283, Note_on_c, 0, 61, 58
2, 155393, Note_on_c, 0, 61, 0
2, 155403, Note_on_c, 0, 64, 58
2, 155490, Note_on_c, 0, 64, 0
2, 155490, Note_on_c, 0, 49, 0
2, 155500, Note_on_c, 0, 46, 58
2, 155520, Note_on_c, 0, 67, 58
2, 155630, Note_on_c, 0, 67, 0
2, 155640, Note_on_c, 0, 61, 58
2, 155733, Note_on_c, 0, 61, 0
2, 155733, Note_on_c, 0, 46, 0
2, 155743, Note_on_c, 0, 49, 58
2, 155760, Note_on_c, 0, 64, 58
2, 155870, Note_on_c, 0, 64, 0
2, 155880, Note_on_c, 0, 67, 58
2, 155973, Note_on_c, 0, 67, 0
2, 155973, Note_on_c, 0, 49, 0
2, 155983, Note_on_c, 0, 46, 58
2, 156000, Note_on_c, 0, 73, 58
2, 156110, Note_on_c, 0, 73, 0
2, 156120, Note_on_c, 0, 64, 58
2, 156212, Note_on_c, 0, 64, 0
2, 156212, Note_on_c, 0, 46, 0
2, 156222, Note_on_c, 0, 49, 58
2, 156240, Note_on_c, 0, 67, 58
2, 156350, Note_on_c, 0, 67, 0
2, 156360, Note_on_c, 0, 73, 58
2, 156452, Note_on_c, 0, 73, 0
2, 156452, Note_on_c, 0, 49, 0
2, 156462, Note_on_c, 0, 46, 58
2, 156480, Note_on_c, 0, 76, 58
2, 156593, Note_on_c, 0, 76, 0
2, 156603, Note_on_c, 0, 67, 58
2, 156690, Note_on_c, 0, 67, 0
2, 156690, Note_on_c, 0, 46, 0
2, 156700, Note_on_c, 0, 49, 58
2, 156723, Note_on_c, 0, 73, 58
2, 156833, Note_on_c, 0, 73, 0
2, 156843, Note_on_c, 0, 76, 58
2, 156930, Note_on_c, 0, 76, 0
2, 156930, Note_on_c, 0, 49, 0
2, 156940, Note_on_c, 0, 46, 58
2, 156960, Note_on_c, 0, 79, 58
2, 157070, Note_on_c, 0, 79, 0
2, 157080, Note_on_c, 0, 73, 58
2, 157173, Note_on_c, 0, 73, 0
2, 157173, Note_on_c, 0, 46, 0
2, 157183, Note_on_c, 0, 49, 58
2, 157200, Note_on_c, 0, 76, 58
2, 157310, Note_on_c, 0, 76, 0
2, 157320, Note_on_c, 0, 79, 58
2, 157413, Note_on_c, 0, 79, 0
2, 157413, Note_on_c, 0, 49, 0
2, 157423, Note_on_c, 0, 46, 58
2, 157440, Note_on_c, 0, 85, 58
2, 157550, Note_on_c, 0, 85, 0
2, 157560, Note_on_c, 0, 76, 58
2, 157652, Note_on_c, 0, 76, 0
2, 157652, Note_on_c, 0, 46, 0
2, 157662, Note_on_c, 0, 49, 58
2, 157680, Note_on_c, 0, 79, 58
2, 157790, Note_on_c, 0, 79, 0
2, 157800, Note_on_c, 0, 85, 58
2, 157892, Note_on_c, 0, 85, 0
2, 157892, Note_on_c, 0, 49, 0
2, 157902, Note_on_c, 0, 46, 71
2, 157902, Note_on_c, 0, 34, 71
2, 157902, Note_on_c, 0, 76, 71
2, 157903, Control_c, 0, 64, 127
2, 157923, Note_on_c, 0, 88, 71
2, 158130, Note_on_c, 0, 88, 0
2, 158130, Note_on_c, 0, 46, 0
2, 158130, Note_on_c, 0, 34, 0
2, 158140, Note_on_c, 0, 49, 71
2, 158153, Note_on_c, 0, 76, 0
2, 158163, Note_on_c, 0, 88, 71
2, 158163, Note_on_c, 0, 76, 71
2, 158373, Note_on_c, 0, 88, 0
2, 158373, Note_on_c, 0, 49, 0
2, 158379, Control_c, 0, 64, 0
2, 158383, Note_on_c, 0, 31, 58
2, 158493, Note_on_c, 0, 76, 0
2, 158503, Note_on_c, 0, 51, 58
2, 158613, Note_on_c, 0, 51, 0
2, 158613, Note_on_c, 0, 31, 0
2, 158623, Note_on_c, 0, 51, 58
2, 158640, Note_on_c, 0, 58, 58
2, 158750, Note_on_c, 0, 58, 0
2, 158760, Note_on_c, 0, 61, 58
2, 158852, Note_on_c, 0, 61, 0
2, 158852, Note_on_c, 0, 51, 0
2, 158862, Note_on_c, 0, 43, 58
2, 158880, Note_on_c, 0, 63, 58
2, 158990, Note_on_c, 0, 63, 0
2, 159000, Note_on_c, 0, 58, 58
2, 159092, Note_on_c, 0, 58, 0
2, 159092, Note_on_c, 0, 43, 0
2, 159102, Note_on_c, 0, 51, 58
2, 159120, Note_on_c, 0, 61, 58
2, 159233, Note_on_c, 0, 61, 0
2, 159243, Note_on_c, 0, 63, 58
2, 159330, Note_on_c, 0, 63, 0
2, 159330, Note_on_c, 0, 51, 0
2, 159340, Note_on_c, 0, 43, 59
2, 159363, Note_on_c, 0, 70, 58
2, 159473, Note_on_c, 0, 70, 0
2, 159483, Note_on_c, 0, 61, 59
2, 159570, Note_on_c, 0, 61, 0
2, 159570, Note_on_c, 0, 43, 0
2, 159580, Note_on_c, 0, 51, 59
2, 159600, Note_on_c, 0, 63, 59
2, 159710, Note_on_c, 0, 63, 0
2, 159720, Note_on_c, 0, 70, 59
2, 159813, Note_on_c, 0, 70, 0
2, 159813, Note_on_c, 0, 51, 0
2, 159823, Note_on_c, 0, 43, 61
2, 159840, Note_on_c, 0, 73, 59
2, 159950, Note_on_c, 0, 73, 0
2, 159960, Note_on_c, 0, 63, 61
2, 160053, Note_on_c, 0, 63, 0
2, 160053, Note_on_c, 0, 43, 0
2, 160063, Note_on_c, 0, 51, 61
2, 160080, Note_on_c, 0, 70, 61
2, 160190, Note_on_c, 0, 70, 0
2, 160200, Note_on_c, 0, 73, 61
2, 160292, Note_on_c, 0, 73, 0
2, 160292, Note_on_c, 0, 51, 0
2, 160302, Note_on_c, 0, 43, 61
2, 160320, Note_on_c, 0, 75, 61
2, 160430, Note_on_c, 0, 75, 0
2, 160440, Note_on_c, 0, 70, 61
2, 160532, Note_on_c, 0, 70, 0
2, 160532, Note_on_c, 0, 43, 0
2, 160542, Note_on_c, 0, 51, 61
2, 160560, Note_on_c, 0, 73, 61
2, 160673, Note_on_c, 0, 73, 0
2, 160683, Note_on_c, 0, 75, 61
2, 160770, Note_on_c, 0, 75, 0
2, 160770, Note_on_c, 0, 51, 0
2, 160780, Note_on_c, 0, 43, 61
2, 160803, Note_on_c, 0, 82, 61
2, 160913, Note_on_c, 0, 82, 0
2, 160923, Note_on_c, 0, 73, 61
2, 161010, Note_on_c, 0, 73, 0
2, 161010, Note_on_c, 0, 43, 0
2, 161020, Note_on_c, 0, 51, 61
2, 161040, Note_on_c, 0, 75, 61
2, 161150, Note_on_c, 0, 75, 0
2, 161160, Note_on_c, 0, 82, 61
2, 161253, Note_on_c, 0, 82, 0
2, 161253, Note_on_c, 0, 51, 0
2, 161263, Note_on_c, 0, 43, 61
2, 161280, Note_on_c, 0, 85, 61
2, 161390, Note_on_c, 0, 85, 0
2, 161400, Note_on_c, 0, 82, 61
2, 161493, Note_on_c, 0, 82, 0
2, 161493, Note_on_c, 0, 43, 0
2, 161503, Note_on_c, 0, 51, 61
2, 161520, Note_on_c, 0, 75, 61
2, 161630, Note_on_c, 0, 75, 0
2, 161640, Note_on_c, 0, 73, 61
2, 161732, Note_on_c, 0, 73, 0
2, 161732, Note_on_c, 0, 51, 0
2, 161742, Note_on_c, 0, 43, 61
2, 161760, Note_on_c, 0, 82, 61
2, 161870, Note_on_c, 0, 82, 0
2, 161880, Note_on_c, 0, 75, 61
2, 161972, Note_on_c, 0, 75, 0
2, 161972, Note_on_c, 0, 43, 0
2, 161982, Note_on_c, 0, 51, 61
2, 162003, Note_on_c, 0, 73, 61
2, 162113, Note_on_c, 0, 73, 0
2, 162123, Note_on_c, 0, 70, 61
2, 162210, Note_on_c, 0, 70, 0
2, 162210, Note_on_c, 0, 51, 0
2, 162220, Note_on_c, 0, 44, 58
2, 162243, Note_on_c, 0, 71, 63
2, 162350, Note_on_c, 0, 44, 0
2, 162360, Note_on_c, 0, 51, 58
2, 162470, Note_on_c, 0, 51, 0
2, 162480, Note_on_c, 0, 47, 58
2, 162590, Note_on_c, 0, 47, 0
2, 162590, Note_on_c, 0, 71, 0
2, 162600, Note_on_c, 0, 51, 58
2, 162693, Note_on_c, 0, 51, 0
2, 162703, Note_on_c, 0, 75, 60
2, 162720, Note_on_c, 0, 44, 58
2, 162830, Note_on_c, 0, 44, 0
2, 162840, Note_on_c, 0, 51, 58
2, 162950, Note_on_c, 0, 51, 0
2, 162960, Note_on_c, 0, 47, 58
2, 163070, Note_on_c, 0, 47, 0
2, 163080, Note_on_c, 0, 51, 58
2, 163190, Note_on_c, 0, 51, 0
2, 163200, Note_on_c, 0, 44, 58
2, 163313, Note_on_c, 0, 44, 0
2, 163323, Note_on_c, 0, 51, 58
2, 163433, Note_on_c, 0, 51, 0
2, 163443, Note_on_c, 0, 47, 58
2, 163553, Note_on_c, 0, 47, 0
2, 163563, Note_on_c, 0, 51, 58
2, 163670, Note_on_c, 0, 51, 0
2, 163670, Note_on_c, 0, 75, 0
2, 163680, Note_on_c, 0, 71, 60
2, 163683, Note_on_c, 0, 44, 58
2, 163790, Note_on_c, 0, 44, 0
2, 163800, Note_on_c, 0, 51, 58
2, 163910, Note_on_c, 0, 51, 0
2, 163920, Note_on_c, 0, 47, 58
2, 164030, Note_on_c, 0, 47, 0
2, 164030, Note_on_c, 0, 71, 0
2, 164040, Note_on_c, 0, 68, 60
2, 164042, Note_on_c, 0, 51, 58
2, 164150, Note_on_c, 0, 51, 0
2, 164150, Note_on_c, 0, 68, 0
2, 164160, Note_on_c, 0, 67, 63
2, 164162, Note_on_c, 0, 46, 58
2, 164233, Note_on_c, 0, 67, 0
2, 164243, Note_on_c, 0, 68, 63
2, 164270, Note_on_c, 0, 46, 0
2, 164280, Note_on_c, 0, 51, 58
2, 164310, Note_on_c, 0, 68, 0
2, 164320, Note_on_c, 0, 70, 63
2, 164390, Note_on_c, 0, 70, 0
2, 164390, Note_on_c, 0, 51, 0
2, 164400, Note_on_c, 0, 68, 63
2, 164400, Note_on_c, 0, 49, 58
2, 164510, Note_on_c, 0, 49, 0
2, 164520, Note_on_c, 0, 51, 58
2, 164630, Note_on_c, 0, 51, 0
2, 164630, Note_on_c, 0, 68, 0
2, 164640, Note_on_c, 0, 67, 60
2, 164640, Note_on_c, 0, 46, 58
2, 164753, Note_on_c, 0, 46, 0
2, 164763, Note_on_c, 0, 51, 58
2, 164873, Note_on_c, 0, 51, 0
2, 164883, Note_on_c, 0, 49, 58
2, 164993, Note_on_c, 0, 49, 0
2, 165003, Note_on_c, 0, 51, 58
2, 165110, Note_on_c, 0, 51, 0
2, 165120, Note_on_c, 0, 46, 58
2, 165230, Note_on_c, 0, 46, 0
2, 165240, Note_on_c, 0, 51, 58
2, 165350, Note_on_c, 0, 51, 0
2, 165350, Note_on_c, 0, 67, 0
2, 165360, Note_on_c, 0, 67, 63
2, 165362, Note_on_c, 0, 49, 58
2, 165470, Note_on_c, 0, 49, 0
2, 165480, Note_on_c, 0, 51, 58
2, 165590, Note_on_c, 0, 51, 0
2, 165590, Note_on_c, 0, 67, 0
2, 165600, Note_on_c, 0, 75, 63
2, 165600, Note_on_c, 0, 46, 58
2, 165710, Note_on_c, 0, 46, 0
2, 165720, Note_on_c, 0, 51, 58
2, 165830, Note_on_c, 0, 51, 0
2, 165840, Note_on_c, 0, 49, 58
2, 165950, Note_on_c, 0, 49, 0
2, 165950, Note_on_c, 0, 75, 0
2, 165960, Note_on_c, 0, 67, 63
2, 165960, Note_on_c, 0, 51, 58
2, 166073, Note_on_c, 0, 51, 0
2, 166073, Note_on_c, 0, 67, 0
2, 166083, Note_on_c, 0, 70, 63
2, 166083, Note_on_c, 0, 47, 58
2, 166193, Note_on_c, 0, 47, 0
2, 166203, Note_on_c, 0, 51, 58
2, 166313, Note_on_c, 0, 51, 0
2, 166323, Note_on_c, 0, 47, 58
2, 166430, Note_on_c, 0, 47, 0
2, 166440, Note_on_c, 0, 51, 58
2, 166550, Note_on_c, 0, 51, 0
2, 166550, Note_on_c, 0, 70, 0
2, 166560, Note_on_c, 0, 68, 60
2, 166562, Note_on_c, 0, 47, 58
2, 166670, Note_on_c, 0, 47, 0
2, 166680, Note_on_c, 0, 51, 58
2, 166790, Note_on_c, 0, 51, 0
2, 166800, Note_on_c, 0, 47, 58
2, 166910, Note_on_c, 0, 47, 0
2, 166920, Note_on_c, 0, 51, 58
2, 167030, Note_on_c, 0, 51, 0
2, 167040, Note_on_c, 0, 47, 58
2, 167150, Note_on_c, 0, 47, 0
2, 167160, Note_on_c, 0, 51, 58
2, 167270, Note_on_c, 0, 51, 0
2, 167270, Note_on_c, 0, 68, 0
2, 167280, Note_on_c, 0, 68, 63
2, 167280, Note_on_c, 0, 47, 58
2, 167393, Note_on_c, 0, 47, 0
2, 167403, Note_on_c, 0, 51, 58
2, 167513, Note_on_c, 0, 51, 0
2, 167513, Note_on_c, 0, 68, 0
2, 167523, Note_on_c, 0, 75, 63
2, 167523, Note_on_c, 0, 47, 58
2, 167633, Note_on_c, 0, 47, 0
2, 167643, Note_on_c, 0, 51, 58
2, 167750, Note_on_c, 0, 51, 0
2, 167760, Note_on_c, 0, 47, 58
2, 167870, Note_on_c, 0, 47, 0
2, 167870, Note_on_c, 0, 75, 0
2, 167880, Note_on_c, 0, 68, 63
2, 167882, Note_on_c, 0, 51, 58
2, 167990, Note_on_c, 0, 51, 0
2, 167990, Note_on_c, 0, 68, 0
2, 168000, Note_on_c, 0, 71, 63
2, 168002, Note_on_c, 0, 43, 58
2, 168110, Note_on_c, 0, 43, 0
2, 168120, Note_on_c, 0, 51, 58
2, 168230, Note_on_c, 0, 51, 0
2, 168240, Note_on_c, 0, 43, 58
2, 168350, Note_on_c, 0, 43, 0
2, 168360, Note_on_c, 0, 51, 58
2, 168470, Note_on_c, 0, 51, 0
2, 168470, Note_on_c, 0, 71, 0
2, 168480, Note_on_c, 0, 70, 60
2, 168480, Note_on_c, 0, 43, 58
2, 168590, Note_on_c, 0, 43, 0
2, 168600, Note_on_c, 0, 51, 58
2, 168710, Note_on_c, 0, 51, 0
2, 168720, Note_on_c, 0, 43, 58
2, 168833, Note_on_c, 0, 43, 0
2, 168843, Note_on_c, 0, 51, 58
2, 168953, Note_on_c, 0, 51, 0
2, 168963, Note_on_c, 0, 43, 58
2, 169073, Note_on_c, 0, 43, 0
2, 169083, Note_on_c, 0, 51, 58
2, 169190, Note_on_c, 0, 51, 0
2, 169190, Note_on_c, 0, 70, 0
2, 169200, Note_on_c, 0, 70, 63
2, 169202, Note_on_c, 0, 43, 58
2, 169310, Note_on_c, 0, 43, 0
2, 169320, Note_on_c, 0, 51, 58
2, 169430, Note_on_c, 0, 51, 0
2, 169430, Note_on_c, 0, 70, 0
2, 169440, Note_on_c, 0, 75, 63
2, 169442, Note_on_c, 0, 43, 58
2, 169550, Note_on_c, 0, 43, 0
2, 169560, Note_on_c, 0, 51, 58
2, 169670, Note_on_c, 0, 51, 0
2, 169680, Note_on_c, 0, 43, 58
2, 169790, Note_on_c, 0, 43, 0
2, 169790, Note_on_c, 0, 75, 0
2, 169800, Note_on_c, 0, 70, 63
2, 169800, Note_on_c, 0, 51, 58
2, 169910, Note_on_c, 0, 51, 0
2, 169910, Note_on_c, 0, 70, 0
2, 169920, Note_on_c, 0, 71, 63
2, 169920, Note_on_c, 0, 44, 58
2, 170030, Note_on_c, 0, 44, 0
2, 170040, Note_on_c, 0, 51, 58
2, 170130, Note_on_c, 0, 71, 0
2, 170132, Note_on_c, 0, 51, 0
2, 170140, Note_on_c, 0, 87, 63
2, 170142, Note_on_c, 0, 75, 63
2, 170163, Note_on_c, 0, 47, 58
2, 170273, Note_on_c, 0, 47, 0
2, 170283, Note_on_c, 0, 51, 58
2, 170393, Note_on_c, 0, 51, 0
2, 170403, Note_on_c, 0, 44, 58
2, 170510, Note_on_c, 0, 44, 0
2, 170520, Note_on_c, 0, 51, 58
2, 170630, Note_on_c, 0, 51, 0
2, 170630, Note_on_c, 0, 75, 0
2, 170630, Note_on_c, 0, 87, 0
2, 170640, Note_on_c, 0, 87, 63
2, 170642, Note_on_c, 0, 47, 58
2, 170642, Note_on_c, 0, 75, 63
2, 170750, Note_on_c, 0, 47, 0
2, 170760, Note_on_c, 0, 51, 58
2, 170870, Note_on_c, 0, 51, 0
2, 170880, Note_on_c, 0, 44, 58
2, 170990, Note_on_c, 0, 44, 0
2, 171000, Note_on_c, 0, 51, 58
2, 171110, Note_on_c, 0, 51, 0
2, 171110, Note_on_c, 0, 75, 0
2, 171110, Note_on_c, 0, 87, 0
2, 171120, Note_on_c, 0, 87, 63
2, 171120, Note_on_c, 0, 47, 58
2, 171122, Note_on_c, 0, 75, 63
2, 171230, Note_on_c, 0, 47, 0
2, 171240, Note_on_c, 0, 51, 58
2, 171330, Note_on_c, 0, 75, 0
2, 171330, Note_on_c, 0, 87, 0
2, 171332, Note_on_c, 0, 51, 0
2, 171340, Note_on_c, 0, 83, 63
2, 171342, Note_on_c, 0, 71, 63
2, 171360, Note_on_c, 0, 44, 58
2, 171473, Note_on_c, 0, 44, 0
2, 171483, Note_on_c, 0, 51, 58
2, 171570, Note_on_c, 0, 51, 0
2, 171570, Note_on_c, 0, 71, 0
2, 171570, Note_on_c, 0, 83, 0
2, 171580, Note_on_c, 0, 80, 63
2, 171582, Note_on_c, 0, 68, 63
2, 171603, Note_on_c, 0, 47, 58
2, 171713, Note_on_c, 0, 47, 0
2, 171723, Note_on_c, 0, 51, 58
2, 171810, Note_on_c, 0, 51, 0
2, 171810, Note_on_c, 0, 68, 0
2, 171810, Note_on_c, 0, 80, 0
2, 171820, Note_on_c, 0, 80, 63
2, 171822, Note_on_c, 0, 68, 63
2, 171840, Note_on_c, 0, 46, 58
2, 171950, Note_on_c, 0, 46, 0
2, 171960, Note_on_c, 0, 51, 58
2, 172053, Note_on_c, 0, 51, 0
2, 172053, Note_on_c, 0, 68, 0
2, 172053, Note_on_c, 0, 80, 0
2, 172063, Note_on_c, 0, 79, 63
2, 172063, Note_on_c, 0, 67, 63
2, 172080, Note_on_c, 0, 49, 58
2, 172190, Note_on_c, 0, 49, 0
2, 172200, Note_on_c, 0, 51, 58
2, 172310, Note_on_c, 0, 51, 0
2, 172320, Note_on_c, 0, 46, 58
2, 172430, Note_on_c, 0, 46, 0
2, 172440, Note_on_c, 0, 51, 58
2, 172550, Note_on_c, 0, 51, 0
2, 172550, Note_on_c, 0, 67, 0
2, 172550, Note_on_c, 0, 79, 0
2, 172560, Note_on_c, 0, 79, 63
2, 172560, Note_on_c, 0, 49, 58
2, 172562, Note_on_c, 0, 67, 63
2, 172670, Note_on_c, 0, 49, 0
2, 172680, Note_on_c, 0, 51, 58
2, 172790, Note_on_c, 0, 51, 0
2, 172800, Note_on_c, 0, 46, 58
2, 172913, Note_on_c, 0, 46, 0
2, 172923, Note_on_c, 0, 51, 58
2, 173033, Note_on_c, 0, 51, 0
2, 173033, Note_on_c, 0, 67, 0
2, 173033, Note_on_c, 0, 79, 0
2, 173043, Note_on_c, 0, 79, 63
2, 173043, Note_on_c, 0, 49, 58
2, 173043, Note_on_c, 0, 67, 63
2, 173153, Note_on_c, 0, 49, 0
2, 173163, Note_on_c, 0, 51, 58
2, 173253, Note_on_c, 0, 51, 0
2, 173253, Note_on_c, 0, 67, 0
2, 173253, Note_on_c, 0, 79, 0
2, 173263, Note_on_c, 0, 87, 63
2, 173266, Note_on_c, 0, 75, 63
2, 173280, Note_on_c, 0, 46, 58
2, 173390, Note_on_c, 0, 46, 0
2, 173400, Note_on_c, 0, 51, 58
2, 173493, Note_on_c, 0, 51, 0
2, 173493, Note_on_c, 0, 75, 0
2, 173493, Note_on_c, 0, 87, 0
2, 173503, Note_on_c, 0, 79, 63
2, 173503, Note_on_c, 0, 67, 63
2, 173520, Note_on_c, 0, 49, 58
2, 173630, Note_on_c, 0, 49, 0
2, 173640, Note_on_c, 0, 51, 58
2, 173730, Note_on_c, 0, 67, 0
2, 173730, Note_on_c, 0, 79, 0
2, 173733, Note_on_c, 0, 51, 0
2, 173740, Note_on_c, 0, 82, 63
2, 173743, Note_on_c, 0, 70, 63
2, 173760, Note_on_c, 0, 47, 58
2, 173870, Note_on_c, 0, 47, 0
2, 173880, Note_on_c, 0, 51, 58
2, 173970, Note_on_c, 0, 70, 0
2, 173970, Note_on_c, 0, 82, 0
2, 173972, Note_on_c, 0, 51, 0
2, 173980, Note_on_c, 0, 80, 63
2, 173982, Note_on_c, 0, 68, 63
2, 174000, Note_on_c, 0, 47, 58
2, 174110, Note_on_c, 0, 47, 0
2, 174120, Note_on_c, 0, 51, 58
2, 174233, Note_on_c, 0, 51, 0
2, 174243, Note_on_c, 0, 47, 58
2, 174353, Note_on_c, 0, 47, 0
2, 174363, Note_on_c, 0, 51, 58
2, 174473, Note_on_c, 0, 51, 0
2, 174473, Note_on_c, 0, 68, 0
2, 174473, Note_on_c, 0, 80, 0
2, 174483, Note_on_c, 0, 80, 63
2, 174483, Note_on_c, 0, 47, 58
2, 174483, Note_on_c, 0, 68, 63
2, 174590, Note_on_c, 0, 47, 0
2, 174600, Note_on_c, 0, 51, 58
2, 174710, Note_on_c, 0, 51, 0
2, 174720, Note_on_c, 0, 47, 58
2, 174830, Note_on_c, 0, 47, 0
2, 174840, Note_on_c, 0, 51, 58
2, 174950, Note_on_c, 0, 51, 0
2, 174950, Note_on_c, 0, 68, 0
2, 174950, Note_on_c, 0, 80, 0
2, 174960, Note_on_c, 0, 80, 63
2, 174962, Note_on_c, 0, 47, 58
2, 174962, Note_on_c, 0, 68, 63
2, 175070, Note_on_c, 0, 47, 0
2, 175080, Note_on_c, 0, 51, 58
2, 175170, Note_on_c, 0, 68, 0
2, 175170, Note_on_c, 0, 80, 0
2, 175172, Note_on_c, 0, 51, 0
2, 175180, Note_on_c, 0, 87, 63
2, 175182, Note_on_c, 0, 75, 63
2, 175200, Note_on_c, 0, 47, 58
2, 175310, Note_on_c, 0, 47, 0
2, 175320, Note_on_c, 0, 51, 58
2, 175410, Note_on_c, 0, 75, 0
2, 175410, Note_on_c, 0, 87, 0
2, 175412, Note_on_c, 0, 51, 0
2, 175420, Note_on_c, 0, 80, 63
2, 175422, Note_on_c, 0, 68, 63
2, 175440, Note_on_c, 0, 47, 58
2, 175553, Note_on_c, 0, 47, 0
2, 175563, Note_on_c, 0, 51, 58
2, 175650, Note_on_c, 0, 51, 0
2, 175650, Note_on_c, 0, 68, 0
2, 175650, Note_on_c, 0, 80, 0
2, 175660, Note_on_c, 0, 83, 63
2, 175662, Note_on_c, 0, 71, 63
2, 175683, Note_on_c, 0, 43, 58
2, 175793, Note_on_c, 0, 43, 0
2, 175803, Note_on_c, 0, 51, 58
2, 175890, Note_on_c, 0, 51, 0
2, 175890, Note_on_c, 0, 71, 0
2, 175890, Note_on_c, 0, 83, 0
2, 175900, Note_on_c, 0, 82, 63
2, 175902, Note_on_c, 0, 70, 63
2, 175920, Note_on_c, 0, 43, 58
2, 176030, Note_on_c, 0, 43, 0
2, 176040, Note_on_c, 0, 51, 58
2, 176150, Note_on_c, 0, 51, 0
2, 176160, Note_on_c, 0, 43, 58
2, 176270, Note_on_c, 0, 43, 0
2, 176280, Note_on_c, 0, 51, 58
2, 176390, Note_on_c, 0, 51, 0
2, 176390, Note_on_c, 0, 70, 0
2, 176390, Note_on_c, 0, 82, 0
2, 176400, Note_on_c, 0, 82, 63
2, 176400, Note_on_c, 0, 43, 58
2, 176402, Note_on_c, 0, 70, 63
2, 176510, Note_on_c, 0, 43, 0
2, 176520, Note_on_c, 0, 51, 58
2, 176630, Note_on_c, 0, 51, 0
2, 176640, Note_on_c, 0, 43, 58
2, 176750, Note_on_c, 0, 43, 0
2, 176760, Note_on_c, 0, 51, 58
2, 176873, Note_on_c, 0, 51, 0
2, 176873, Note_on_c, 0, 70, 0
2, 176873, Note_on_c, 0, 82, 0
2, 176883, Note_on_c, 0, 82, 63
2, 176883, Note_on_c, 0, 43, 58
2, 176886, Note_on_c, 0, 70, 63
2, 176993, Note_on_c, 0, 43, 0
2, 177003, Note_on_c, 0, 51, 58
2, 177090, Note_on_c, 0, 51, 0
2, 177090, Note_on_c, 0, 70, 0
2, 177090, Note_on_c, 0, 82, 0
2, 177100, Note_on_c, 0, 87, 63
2, 177102, Note_on_c, 0, 75, 63
2, 177123, Note_on_c, 0, 43, 58
2, 177233, Note_on_c, 0, 43, 0
2, 177243, Note_on_c, 0, 51, 58
2, 177333, Note_on_c, 0, 51, 0
2, 177333, Note_on_c, 0, 75, 0
2, 177333, Note_on_c, 0, 87, 0
2, 177343, Note_on_c, 0, 82, 63
2, 177346, Note_on_c, 0, 70, 63
2, 177360, Note_on_c, 0, 43, 58
2, 177470, Note_on_c, 0, 43, 0
2, 177480, Note_on_c, 0, 51, 58
2, 177573, Note_on_c, 0, 51, 0
2, 177573, Note_on_c, 0, 70, 0
2, 177573, Note_on_c, 0, 82, 0
2, 177583, Note_on_c, 0, 84, 79
2, 177583, Note_on_c, 0, 72, 79
2, 177600, Note_on_c, 0, 42, 58
2, 177710, Note_on_c, 0, 42, 0
2, 177720, Note_on_c, 0, 51, 58
2, 177830, Note_on_c, 0, 51, 0
2, 177840, Note_on_c, 0, 44, 58
2, 177950, Note_on_c, 0, 44, 0
2, 177960, Note_on_c, 0, 51, 58
2, 178070, Note_on_c, 0, 51, 0
2, 178080, Note_on_c, 0, 42, 58
2, 178190, Note_on_c, 0, 42, 0
2, 178200, Note_on_c, 0, 51, 58
2, 178313, Note_on_c, 0, 51, 0
2, 178323, Note_on_c, 0, 44, 58
2, 178433, Note_on_c, 0, 44, 0
2, 178443, Note_on_c, 0, 51, 58
2, 178553, Note_on_c, 0, 51, 0
2, 178553, Note_on_c, 0, 72, 0
2, 178553, Note_on_c, 0, 84, 0
2, 178563, Note_on_c, 0, 85, 79
2, 178563, Note_on_c, 0, 40, 58
2, 178563, Note_on_c, 0, 73, 79
2, 178670, Note_on_c, 0, 40, 0
2, 178680, Note_on_c, 0, 49, 58
2, 178790, Note_on_c, 0, 49, 0
2, 178800, Note_on_c, 0, 44, 58
2, 178910, Note_on_c, 0, 44, 0
2, 178920, Note_on_c, 0, 49, 58
2, 179030, Note_on_c, 0, 49, 0
2, 179040, Note_on_c, 0, 40, 58
2, 179150, Note_on_c, 0, 40, 0
2, 179160, Note_on_c, 0, 49, 58
2, 179270, Note_on_c, 0, 49, 0
2, 179280, Note_on_c, 0, 44, 58
2, 179390, Note_on_c, 0, 44, 0
2, 179400, Note_on_c, 0, 49, 58
2, 179510, Note_on_c, 0, 49, 0
2, 179510, Note_on_c, 0, 73, 0
2, 179510, Note_on_c, 0, 85, 0
2, 179520, Note_on_c, 0, 82, 71
2, 179520, Note_on_c, 0, 40, 58
2, 179522, Note_on_c, 0, 70, 71
2, 179590, Note_on_c, 0, 82, 0
2, 179600, Note_on_c, 0, 83, 71
2, 179633, Note_on_c, 0, 40, 0
2, 179643, Note_on_c, 0, 49, 58
2, 179670, Note_on_c, 0, 83, 0
2, 179680, Note_on_c, 0, 82, 71
2, 179753, Note_on_c, 0, 82, 0
2, 179753, Note_on_c, 0, 49, 0
2, 179763, Note_on_c, 0, 80, 71
2, 179763, Note_on_c, 0, 42, 58
2, 179873, Note_on_c, 0, 42, 0
2, 179873, Note_on_c, 0, 80, 0
2, 179883, Note_on_c, 0, 82, 71
2, 179883, Note_on_c, 0, 49, 58
2, 179990, Note_on_c, 0, 49, 0
2, 179990, Note_on_c, 0, 82, 0
2, 179990, Note_on_c, 0, 70, 0
2, 180000, Note_on_c, 0, 83, 79
2, 180000, Note_on_c, 0, 39, 58
2, 180000, Note_on_c, 0, 71, 79
2, 180110, Note_on_c, 0, 39, 0
2, 180120, Note_on_c, 0, 47, 58
2, 180230, Note_on_c, 0, 47, 0
2, 180240, Note_on_c, 0, 42, 58
2, 180350, Note_on_c, 0, 42, 0
2, 180360, Note_on_c, 0, 47, 58
2, 180470, Note_on_c, 0, 47, 0
2, 180480, Note_on_c, 0, 39, 58
2, 180590, Note_on_c, 0, 39, 0
2, 180600, Note_on_c, 0, 47, 58
2, 180710, Note_on_c, 0, 47, 0
2, 180720, Note_on_c, 0, 42, 58
2, 180830, Note_on_c, 0, 42, 0
2, 180840, Note_on_c, 0, 47, 58
2, 180953, Note_on_c, 0, 47, 0
2, 180963, Note_on_c, 0, 39, 58
2, 181073, Note_on_c, 0, 39, 0
2, 181083, Note_on_c, 0, 47, 58
2, 181193, Note_on_c, 0, 47, 0
2, 181203, Note_on_c, 0, 42, 58
2, 181310, Note_on_c, 0, 42, 0
2, 181320, Note_on_c, 0, 47, 58
2, 181430, Note_on_c, 0, 47, 0
2, 181430, Note_on_c, 0, 71, 0
2, 181430, Note_on_c, 0, 83, 0
2, 181440, Note_on_c, 0, 80, 79
2, 181442, Note_on_c, 0, 38, 58
2, 181442, Note_on_c, 0, 68, 79
2, 181550, Note_on_c, 0, 38, 0
2, 181560, Note_on_c, 0, 47, 58
2, 181670, Note_on_c, 0, 47, 0
2, 181680, Note_on_c, 0, 40, 58
2, 181790, Note_on_c, 0, 40, 0
2, 181800, Note_on_c, 0, 47, 58
2, 181910, Note_on_c, 0, 47, 0
2, 181920, Note_on_c, 0, 38, 58
2, 182030, Note_on_c, 0, 38, 0
2, 182040, Note_on_c, 0, 47, 58
2, 182150, Note_on_c, 0, 47, 0
2, 182160, Note_on_c, 0, 40, 58
2, 182270, Note_on_c, 0, 40, 0
2, 182280, Note_on_c, 0, 47, 58
2, 182393, Note_on_c, 0, 47, 0
2, 182393, Note_on_c, 0, 68, 0
2, 182393, Note_on_c, 0, 80, 0
2, 182403, Note_on_c, 0, 81, 79
2, 182403, Note_on_c, 0, 37, 58
2, 182403, Note_on_c, 0, 69, 79
2, 182513, Note_on_c, 0, 37, 0
2, 182523, Note_on_c, 0, 45, 58
2, 182633, Note_on_c, 0, 45, 0
2, 182643, Note_on_c, 0, 40, 58
2, 182750, Note_on_c, 0, 40, 0
2, 182760, Note_on_c, 0, 45, 58
2, 182870, Note_on_c, 0, 45, 0
2, 182880, Note_on_c, 0, 37, 58
2, 182990, Note_on_c, 0, 37, 0
2, 183000, Note_on_c, 0, 45, 58
2, 183110, Note_on_c, 0, 45, 0
2, 183120, Note_on_c, 0, 40, 58
2, 183230, Note_on_c, 0, 40, 0
2, 183240, Note_on_c, 0, 45, 58
2, 183350, Note_on_c, 0, 45, 0
2, 183350, Note_on_c, 0, 69, 0
2, 183350, Note_on_c, 0, 81, 0
2, 183360, Note_on_c, 0, 79, 71
2, 183360, Note_on_c, 0, 37, 58
2, 183362, Note_on_c, 0, 67, 71
2, 183433, Note_on_c, 0, 79, 0
2, 183443, Note_on_c, 0, 80, 71
2, 183470, Note_on_c, 0, 37, 0
2, 183480, Note_on_c, 0, 46, 58
2, 183510, Note_on_c, 0, 80, 0
2, 183520, Note_on_c, 0, 79, 71
2, 183590, Note_on_c, 0, 79, 0
2, 183590, Note_on_c, 0, 46, 0
2, 183600, Note_on_c, 0, 77, 71
2, 183600, Note_on_c, 0, 39, 58
2, 183713, Note_on_c, 0, 39, 0
2, 183713, Note_on_c, 0, 77, 0
2, 183723, Note_on_c, 0, 79, 71
2, 183723, Note_on_c, 0, 46, 58
2, 183833, Note_on_c, 0, 46, 0
2, 183833, Note_on_c, 0, 79, 0
2, 183833, Note_on_c, 0, 67, 0
2, 183843, Note_on_c, 0, 80, 79
2, 183843, Note_on_c, 0, 35, 58
2, 183843, Note_on_c, 0, 68, 79
2, 183953, Note_on_c, 0, 35, 0
2, 183963, Note_on_c, 0, 44, 58
2, 184070, Note_on_c, 0, 44, 0
2, 184080, Note_on_c, 0, 39, 58
2, 184190, Note_on_c, 0, 39, 0
2, 184200, Note_on_c, 0, 44, 58
2, 184310, Note_on_c, 0, 44, 0
2, 184320, Note_on_c, 0, 35, 58
2, 184430, Note_on_c, 0, 35, 0
2, 184440, Note_on_c, 0, 44, 58
2, 184550, Note_on_c, 0, 44, 0
2, 184560, Note_on_c, 0, 39, 58
2, 184670, Note_on_c, 0, 39, 0
2, 184680, Note_on_c, 0, 44, 58
2, 184790, Note_on_c, 0, 44, 0
2, 184800, Note_on_c, 0, 35, 58
2, 184910, Note_on_c, 0, 35, 0
2, 184920, Note_on_c, 0, 44, 58
2, 185033, Note_on_c, 0, 44, 0
2, 185043, Note_on_c, 0, 39, 58
2, 185153, Note_on_c, 0, 39, 0
2, 185163, Note_on_c, 0, 44, 58
2, 185252, Note_on_c, 0, 44, 0
2, 185252, Note_on_c, 0, 68, 0
2, 185252, Note_on_c, 0, 80, 0
2, 185262, Note_on_c, 0, 69, 87
2, 185268, Note_on_c, 0, 49, 87
2, 185268, Note_on_c, 0, 45, 87
2, 185268, Note_on_c, 0, 40, 87
2, 185268, Note_on_c, 0, 37, 87
2, 185283, Note_on_c, 0, 81, 87
2, 185283, Note_on_c, 0, 76, 87
2, 185283, Note_on_c, 0, 73, 87
2, 186350, Note_on_c, 0, 73, 0
2, 186350, Note_on_c, 0, 76, 0
2, 186350, Note_on_c, 0, 69, 0
2, 186350, Note_on_c, 0, 81, 0
2, 186360, Note_on_c, 0, 76, 58
2, 186473, Note_on_c, 0, 76, 0
2, 186483, Note_on_c, 0, 78, 58
2, 186593, Note_on_c, 0, 78, 0
2, 186603, Note_on_c, 0, 80, 58
2, 186713, Note_on_c, 0, 80, 0
2, 186713, Note_on_c, 0, 49, 0
2, 186713, Note_on_c, 0, 37, 0
2, 186713, Note_on_c, 0, 45, 0
2, 186713, Note_on_c, 0, 40, 0
2, 186723, Note_on_c, 0, 81, 58
2, 186830, Note_on_c, 0, 81, 0
2, 186840, Note_on_c, 0, 83, 58
2, 186950, Note_on_c, 0, 83, 0
2, 186960, Note_on_c, 0, 85, 58
2, 187070, Note_on_c, 0, 85, 0
2, 187080, Note_on_c, 0, 83, 58
2, 187173, Note_on_c, 0, 83, 0
2, 187183, Note_on_c, 0, 69, 58
2, 187183, Note_on_c, 0, 64, 58
2, 187186, Note_on_c, 0, 61, 58
2, 187200, Note_on_c, 0, 81, 58
2, 187310, Note_on_c, 0, 81, 0
2, 187320, Note_on_c, 0, 76, 58
2, 187430, Note_on_c, 0, 76, 0
2, 187440, Note_on_c, 0, 78, 58
2, 187550, Note_on_c, 0, 78, 0
2, 187560, Note_on_c, 0, 80, 58
2, 187670, Note_on_c, 0, 80, 0
2, 187670, Note_on_c, 0, 61, 0
2, 187670, Note_on_c, 0, 64, 0
2, 187670, Note_on_c, 0, 69, 0
2, 187680, Note_on_c, 0, 81, 58
2, 187793, Note_on_c, 0, 81, 0
2, 187803, Note_on_c, 0, 83, 58
2, 187913, Note_on_c, 0, 83, 0
2, 187923, Note_on_c, 0, 85, 58
2, 188033, Note_on_c, 0, 85, 0
2, 188043, Note_on_c, 0, 83, 58
2, 188130, Note_on_c, 0, 83, 0
2, 188140, Note_on_c, 0, 69, 58
2, 188142, Note_on_c, 0, 64, 58
2, 188142, Note_on_c, 0, 61, 58
2, 188160, Note_on_c, 0, 81, 58
2, 188270, Note_on_c, 0, 81, 0
2, 188280, Note_on_c, 0, 76, 58
2, 188390, Note_on_c, 0, 76, 0
2, 188400, Note_on_c, 0, 78, 58
2, 188510, Note_on_c, 0, 78, 0
2, 188520, Note_on_c, 0, 80, 58
2, 188630, Note_on_c, 0, 80, 0
2, 188630, Note_on_c, 0, 61, 0
2, 188630, Note_on_c, 0, 64, 0
2, 188630, Note_on_c, 0, 69, 0
2, 188640, Note_on_c, 0, 81, 58
2, 188750, Note_on_c, 0, 81, 0
2, 188760, Note_on_c, 0, 83, 58
2, 188870, Note_on_c, 0, 83, 0
2, 188880, Note_on_c, 0, 85, 58
2, 188990, Note_on_c, 0, 85, 0
2, 189000, Note_on_c, 0, 83, 58
2, 189092, Note_on_c, 0, 83, 0
2, 189102, Note_on_c, 0, 69, 58
2, 189102, Note_on_c, 0, 64, 58
2, 189102, Note_on_c, 0, 61, 58
2, 189123, Note_on_c, 0, 81, 58
2, 189233, Note_on_c, 0, 81, 0
2, 189243, Note_on_c, 0, 76, 58
2, 189353, Note_on_c, 0, 76, 0
2, 189363, Note_on_c, 0, 78, 58
2, 189470, Note_on_c, 0, 78, 0
2, 189480, Note_on_c, 0, 80, 58
2, 189590, Note_on_c, 0, 80, 0
2, 189590, Note_on_c, 0, 61, 0
2, 189590, Note_on_c, 0, 64, 0
2, 189590, Note_on_c, 0, 69, 0
2, 189600, Note_on_c, 0, 81, 58
2, 189602, Note_on_c, 0, 69, 58
2, 189602, Note_on_c, 0, 64, 58
2, 189605, Note_on_c, 0, 61, 58
2, 189710, Note_on_c, 0, 81, 0
2, 189720, Note_on_c, 0, 83, 58
2, 189830, Note_on_c, 0, 83, 0
2, 189840, Note_on_c, 0, 85, 58
2, 189950, Note_on_c, 0, 85, 0
2, 189960, Note_on_c, 0, 86, 58
2, 190070, Note_on_c, 0, 86, 0
2, 190070, Note_on_c, 0, 61, 0
2, 190070, Note_on_c, 0, 64, 0
2, 190070, Note_on_c, 0, 69, 0
2, 190080, Note_on_c, 0, 88, 59
2, 190080, Note_on_c, 0, 69, 58
2, 190082, Note_on_c, 0, 64, 58
2, 190082, Note_on_c, 0, 61, 58
2, 190190, Note_on_c, 0, 88, 0
2, 190200, Note_on_c, 0, 87, 59
2, 190310, Note_on_c, 0, 87, 0
2, 190320, Note_on_c, 0, 88, 59
2, 190430, Note_on_c, 0, 88, 0
2, 190440, Note_on_c, 0, 87, 59
2, 190553, Note_on_c, 0, 87, 0
2, 190553, Note_on_c, 0, 61, 0
2, 190553, Note_on_c, 0, 64, 0
2, 190553, Note_on_c, 0, 69, 0
2, 190563, Note_on_c, 0, 88, 61
2, 190563, Note_on_c, 0, 69, 58
2, 190563, Note_on_c, 0, 64, 58
2, 190566, Note_on_c, 0, 61, 58
2, 190673, Note_on_c, 0, 88, 0
2, 190683, Note_on_c, 0, 85, 61
2, 190790, Note_on_c, 0, 85, 0
2, 190800, Note_on_c, 0, 83, 61
2, 190910, Note_on_c, 0, 83, 0
2, 190920, Note_on_c, 0, 81, 61
2, 191030, Note_on_c, 0, 81, 0
2, 191030, Note_on_c, 0, 61, 0
2, 191030, Note_on_c, 0, 64, 0
2, 191030, Note_on_c, 0, 69, 0
2, 191040, Note_on_c, 0, 80, 58
2, 191042, Note_on_c, 0, 63, 58
2, 191150, Note_on_c, 0, 63, 0
2, 191160, Note_on_c, 0, 71, 58
2, 191270, Note_on_c, 0, 71, 0
2, 191280, Note_on_c, 0, 68, 58
2, 191390, Note_on_c, 0, 68, 0
2, 191400, Note_on_c, 0, 71, 58
2, 191510, Note_on_c, 0, 71, 0
2, 191520, Note_on_c, 0, 63, 58
2, 191630, Note_on_c, 0, 63, 0
2, 191640, Note_on_c, 0, 71, 58
2, 191750, Note_on_c, 0, 71, 0
2, 191760, Note_on_c, 0, 68, 58
2, 191873, Note_on_c, 0, 68, 0
2, 191883, Note_on_c, 0, 71, 58
2, 191993, Note_on_c, 0, 71, 0
2, 191993, Note_on_c, 0, 80, 0
2, 192003, Note_on_c, 0, 82, 58
2, 192003, Note_on_c, 0, 63, 58
2, 192070, Note_on_c, 0, 82, 0
2, 192080, Note_on_c, 0, 83, 58
2, 192113, Note_on_c, 0, 63, 0
2, 192123, Note_on_c, 0, 73, 58
2, 192150, Note_on_c, 0, 83, 0
2, 192160, Note_on_c, 0, 82, 58
2, 192230, Note_on_c, 0, 82, 0
2, 192230, Note_on_c, 0, 73, 0
2, 192240, Note_on_c, 0, 83, 58
2, 192243, Note_on_c, 0, 67, 58
2, 192310, Note_on_c, 0, 83, 0
2, 192320, Note_on_c, 0, 82, 58
2, 192350, Note_on_c, 0, 67, 0
2, 192360, Note_on_c, 0, 73, 58
2, 192393, Note_on_c, 0, 82, 0
2, 192403, Note_on_c, 0, 83, 58
2, 192470, Note_on_c, 0, 83, 0
2, 192470, Note_on_c, 0, 73, 0
2, 192480, Note_on_c, 0, 82, 58
2, 192482, Note_on_c, 0, 63, 58
2, 192550, Note_on_c, 0, 82, 0
2, 192560, Note_on_c, 0, 83, 58
2, 192590, Note_on_c, 0, 63, 0
2, 192600, Note_on_c, 0, 73, 58
2, 192630, Note_on_c, 0, 83, 0
2, 192640, Note_on_c, 0, 82, 58
2, 192710, Note_on_c, 0, 82, 0
2, 192710, Note_on_c, 0, 73, 0
2, 192720, Note_on_c, 0, 80, 58
2, 192720, Note_on_c, 0, 67, 58
2, 192830, Note_on_c, 0, 67, 0
2, 192830, Note_on_c, 0, 80, 0
2, 192840, Note_on_c, 0, 82, 58
2, 192840, Note_on_c, 0, 73, 58
2, 192932, Note_on_c, 0, 73, 0
2, 192932, Note_on_c, 0, 82, 0
2, 192942, Note_on_c, 0, 68, 58
2, 192942, Note_on_c, 0, 64, 58
2, 192960, Note_on_c, 0, 80, 58
2, 192960, Note_on_c, 0, 71, 58
2, 193410, Note_on_c, 0, 71, 0
2, 193410, Note_on_c, 0, 68, 0
2, 193410, Note_on_c, 0, 64, 0
2, 193410, Note_on_c, 0, 80, 0
2, 193420, Note_on_c, 0, 69, 87
2, 193420, Note_on_c, 0, 64, 87
2, 193422, Note_on_c, 0, 61, 87
2, 193422, Note_on_c, 0, 57, 87
2, 193425, Note_on_c, 0, 49, 87
2, 193425, Note_on_c, 0, 45, 87
2, 193425, Note_on_c, 0, 40, 87
2, 193428, Note_on_c, 0, 37, 87
2, 194030, Note_on_c, 0, 57, 0
2, 194030, Note_on_c, 0, 61, 0
2, 194030, Note_on_c, 0, 69, 0
2, 194030, Note_on_c, 0, 64, 0
2, 194040, Note_on_c, 0, 64, 58
2, 194150, Note_on_c, 0, 64, 0
2, 194160, Note_on_c, 0, 66, 58
2, 194270, Note_on_c, 0, 66, 0
2, 194280, Note_on_c, 0, 68, 58
2, 194390, Note_on_c, 0, 68, 0
2, 194390, Note_on_c, 0, 40, 0
2, 194390, Note_on_c, 0, 37, 0
2, 194390, Note_on_c, 0, 45, 0
2, 194390, Note_on_c, 0, 49, 0
2, 194400, Note_on_c, 0, 69, 58
2, 194510, Note_on_c, 0, 69, 0
2, 194520, Note_on_c, 0, 71, 58
2, 194633, Note_on_c, 0, 71, 0
2, 194643, Note_on_c, 0, 73, 58
2, 194753, Note_on_c, 0, 73, 0
2, 194763, Note_on_c, 0, 71, 58
2, 194873, Note_on_c, 0, 71, 0
2, 194883, Note_on_c, 0, 69, 58
2, 194990, Note_on_c, 0, 69, 0
2, 195000, Note_on_c, 0, 64, 58
2, 195110, Note_on_c, 0, 64, 0
2, 195120, Note_on_c, 0, 66, 58
2, 195230, Note_on_c, 0, 66, 0
2, 195240, Note_on_c, 0, 68, 58
2, 195333, Note_on_c, 0, 68, 0
2, 195343, Note_on_c, 0, 57, 58
2, 195343, Note_on_c, 0, 52, 58
2, 195346, Note_on_c, 0, 49, 58
2, 195360, Note_on_c, 0, 69, 58
2, 195470, Note_on_c, 0, 69, 0
2, 195480, Note_on_c, 0, 71, 58
2, 195590, Note_on_c, 0, 71, 0
2, 195600, Note_on_c, 0, 73, 58
2, 195710, Note_on_c, 0, 73, 0
2, 195720, Note_on_c, 0, 71, 58
2, 195830, Note_on_c, 0, 71, 0
2, 195830, Note_on_c, 0, 49, 0
2, 195830, Note_on_c, 0, 52, 0
2, 195830, Note_on_c, 0, 57, 0
2, 195840, Note_on_c, 0, 69, 58
2, 195953, Note_on_c, 0, 69, 0
2, 195963, Note_on_c, 0, 64, 58
2, 196073, Note_on_c, 0, 64, 0
2, 196083, Note_on_c, 0, 66, 58
2, 196193, Note_on_c, 0, 66, 0
2, 196203, Note_on_c, 0, 68, 58
2, 196290, Note_on_c, 0, 68, 0
2, 196300, Note_on_c, 0, 57, 58
2, 196302, Note_on_c, 0, 52, 58
2, 196302, Note_on_c, 0, 49, 58
2, 196320, Note_on_c, 0, 69, 58
2, 196430, Note_on_c, 0, 69, 0
2, 196440, Note_on_c, 0, 71, 58
2, 196550, Note_on_c, 0, 71, 0
2, 196560, Note_on_c, 0, 73, 58
2, 196670, Note_on_c, 0, 73, 0
2, 196680, Note_on_c, 0, 71, 58
2, 196790, Note_on_c, 0, 71, 0
2, 196790, Note_on_c, 0, 49, 0
2, 196790, Note_on_c, 0, 52, 0
2, 196790, Note_on_c, 0, 57, 0
2, 196800, Note_on_c, 0, 69, 58
2, 196910, Note_on_c, 0, 69, 0
2, 196920, Note_on_c, 0, 64, 58
2, 197012, Note_on_c, 0, 64, 0
2, 197022, Note_on_c, 0, 57, 58
2, 197022, Note_on_c, 0, 52, 58
2, 197022, Note_on_c, 0, 49, 58
2, 197040, Note_on_c, 0, 66, 58
2, 197150, Note_on_c, 0, 66, 0
2, 197160, Note_on_c, 0, 68, 58
2, 197273, Note_on_c, 0, 68, 0
2, 197273, Note_on_c, 0, 49, 0
2, 197273, Note_on_c, 0, 52, 0
2, 197273, Note_on_c, 0, 57, 0
2, 197283, Note_on_c, 0, 69, 58
2, 197393, Note_on_c, 0, 69, 0
2, 197403, Note_on_c, 0, 71, 59
2, 197490, Note_on_c, 0, 71, 0
2, 197500, Note_on_c, 0, 57, 59
2, 197502, Note_on_c, 0, 52, 59
2, 197502, Note_on_c, 0, 49, 59
2, 197523, Note_on_c, 0, 73, 59
2, 197630, Note_on_c, 0, 73, 0
2, 197640, Note_on_c, 0, 71, 59
2, 197750, Note_on_c, 0, 71, 0
2, 197750, Note_on_c, 0, 49, 0
2, 197750, Note_on_c, 0, 52, 0
2, 197750, Note_on_c, 0, 57, 0
2, 197760, Note_on_c, 0, 69, 59
2, 197870, Note_on_c, 0, 69, 0
2, 197880, Note_on_c, 0, 64, 59
2, 197973, Note_on_c, 0, 64, 0
2, 197983, Note_on_c, 0, 57, 63
2, 197983, Note_on_c, 0, 52, 63
2, 197986, Note_on_c, 0, 49, 63
2, 198000, Note_on_c, 0, 66, 63
2, 198110, Note_on_c, 0, 66, 0
2, 198120, Note_on_c, 0, 68, 63
2, 198230, Note_on_c, 0, 68, 0
2, 198230, Note_on_c, 0, 49, 0
2, 198230, Note_on_c, 0, 52, 0
2, 198230, Note_on_c, 0, 57, 0
2, 198240, Note_on_c, 0, 69, 63
2, 198350, Note_on_c, 0, 69, 0
2, 198360, Note_on_c, 0, 71, 63
2, 198452, Note_on_c, 0, 71, 0
2, 198462, Note_on_c, 0, 57, 67
2, 198462, Note_on_c, 0, 52, 67
2, 198462, Note_on_c, 0, 49, 67
2, 198480, Note_on_c, 0, 73, 63
2, 198590, Note_on_c, 0, 73, 0
2, 198600, Note_on_c, 0, 71, 63
2, 198713, Note_on_c, 0, 71, 0
2, 198713, Note_on_c, 0, 49, 0
2, 198713, Note_on_c, 0, 52, 0
2, 198713, Note_on_c, 0, 57, 0
2, 198723, Note_on_c, 0, 69, 67
2, 198723, Note_on_c, 0, 57, 67
2, 198723, Note_on_c, 0, 52, 67
2, 198726, Note_on_c, 0, 49, 67
2, 198833, Note_on_c, 0, 69, 0
2, 198843, Note_on_c, 0, 64, 67
2, 198950, Note_on_c, 0, 64, 0
2, 198960, Note_on_c, 0, 66, 67
2, 199070, Note_on_c, 0, 66, 0
2, 199080, Note_on_c, 0, 68, 67
2, 199190, Note_on_c, 0, 68, 0
2, 199190, Note_on_c, 0, 49, 0
2, 199190, Note_on_c, 0, 52, 0
2, 199190, Note_on_c, 0, 57, 0
2, 199200, Note_on_c, 0, 69, 67
2, 199310, Note_on_c, 0, 69, 0
2, 199320, Note_on_c, 0, 71, 67
2, 199430, Note_on_c, 0, 71, 0
2, 199440, Note_on_c, 0, 73, 71
2, 199550, Note_on_c, 0, 73, 0
2, 199560, Note_on_c, 0, 74, 71
2, 199670, Note_on_c, 0, 74, 0
2, 199680, Note_on_c, 0, 76, 71
2, 199790, Note_on_c, 0, 76, 0
2, 199800, Note_on_c, 0, 78, 71
2, 199910, Note_on_c, 0, 78, 0
2, 199920, Note_on_c, 0, 80, 71
2, 200033, Note_on_c, 0, 80, 0
2, 200043, Note_on_c, 0, 81, 71
2, 200153, Note_on_c, 0, 81, 0
2, 200163, Note_on_c, 0, 83, 71
2, 200273, Note_on_c, 0, 83, 0
2, 200283, Note_on_c, 0, 85, 71
2, 200390, Note_on_c, 0, 85, 0
2, 200400, Note_on_c, 0, 86, 71
2, 200510, Note_on_c, 0, 86, 0
2, 200520, Note_on_c, 0, 87, 71
2, 200613, Note_on_c, 0, 87, 0
2, 200623, Note_on_c, 0, 76, 79
2, 200626, Note_on_c, 0, 49, 71
2, 200640, Note_on_c, 0, 88, 79
2, 200750, Note_on_c, 0, 49, 0
2, 200760, Note_on_c, 0, 57, 71
2, 200870, Note_on_c, 0, 57, 0
2, 200880, Note_on_c, 0, 52, 71
2, 200990, Note_on_c, 0, 52, 0
2, 201000, Note_on_c, 0, 57, 71
2, 201110, Note_on_c, 0, 57, 0
2, 201120, Note_on_c, 0, 49, 71
2, 201230, Note_on_c, 0, 49, 0
2, 201240, Note_on_c, 0, 57, 71
2, 201353, Note_on_c, 0, 57, 0
2, 201363, Note_on_c, 0, 52, 71
2, 201473, Note_on_c, 0, 52, 0
2, 201483, Note_on_c, 0, 57, 71
2, 201593, Note_on_c, 0, 57, 0
2, 201593, Note_on_c, 0, 88, 0
2, 201593, Note_on_c, 0, 76, 0
2, 201603, Note_on_c, 0, 80, 79
2, 201603, Note_on_c, 0, 68, 79
2, 201603, Note_on_c, 0, 50, 71
2, 201713, Note_on_c, 0, 50, 0
2, 201723, Note_on_c, 0, 59, 71
2, 201830, Note_on_c, 0, 59, 0
2, 201840, Note_on_c, 0, 53, 71
2, 201950, Note_on_c, 0, 53, 0
2, 201960, Note_on_c, 0, 59, 71
2, 202070, Note_on_c, 0, 59, 0
2, 202080, Note_on_c, 0, 50, 71
2, 202080, Note_on_c, 0, 37, 58
2, 202190, Note_on_c, 0, 37, 0
2, 202190, Note_on_c, 0, 50, 0
2, 202200, Note_on_c, 0, 59, 71
2, 202310, Note_on_c, 0, 59, 0
2, 202320, Note_on_c, 0, 53, 71
2, 202430, Note_on_c, 0, 53, 0
2, 202440, Note_on_c, 0, 59, 71
2, 202550, Note_on_c, 0, 59, 0
2, 202550, Note_on_c, 0, 68, 0
2, 202550, Note_on_c, 0, 80, 0
2, 202560, Note_on_c, 0, 83, 79
2, 202560, Note_on_c, 0, 71, 79
2, 202562, Note_on_c, 0, 51, 71
2, 202673, Note_on_c, 0, 51, 0
2, 202683, Note_on_c, 0, 59, 71
2, 202793, Note_on_c, 0, 59, 0
2, 202803, Note_on_c, 0, 56, 71
2, 202913, Note_on_c, 0, 56, 0
2, 202923, Note_on_c, 0, 59, 71
2, 203033, Note_on_c, 0, 59, 0
2, 203043, Note_on_c, 0, 51, 71
2, 203150, Note_on_c, 0, 51, 0
2, 203160, Note_on_c, 0, 59, 71
2, 203270, Note_on_c, 0, 59, 0
2, 203280, Note_on_c, 0, 56, 71
2, 203390, Note_on_c, 0, 56, 0
2, 203400, Note_on_c, 0, 59, 71
2, 203493, Note_on_c, 0, 71, 0
2, 203493, Note_on_c, 0, 83, 0
2, 203503, Note_on_c, 0, 61, 67
2, 203510, Note_on_c, 0, 59, 0
2, 203520, Note_on_c, 0, 67, 79
2, 203522, Note_on_c, 0, 55, 79
2, 203522, Note_on_c, 0, 39, 71
2, 203630, Note_on_c, 0, 39, 0
2, 203640, Note_on_c, 0, 51, 71
2, 203750, Note_on_c, 0, 51, 0
2, 203760, Note_on_c, 0, 50, 71
2, 203870, Note_on_c, 0, 50, 0
2, 203880, Note_on_c, 0, 51, 71
2, 203990, Note_on_c, 0, 51, 0
2, 204000, Note_on_c, 0, 50, 71
2, 204113, Note_on_c, 0, 50, 0
2, 204123, Note_on_c, 0, 51, 71
2, 204233, Note_on_c, 0, 51, 0
2, 204243, Note_on_c, 0, 50, 71
2, 204353, Note_on_c, 0, 50, 0
2, 204363, Note_on_c, 0, 51, 71
2, 204470, Note_on_c, 0, 51, 0
2, 204470, Note_on_c, 0, 55, 0
2, 204470, Note_on_c, 0, 67, 0
2, 204470, Note_on_c, 0, 61, 0
2, 204480, Note_on_c, 0, 68, 79
2, 204483, Note_on_c, 0, 59, 79
2, 204483, Note_on_c, 0, 56, 67
2, 204486, Note_on_c, 0, 44, 71
2, 204710, Note_on_c, 0, 44, 0
2, 204710, Note_on_c, 0, 68, 0
2, 204710, Note_on_c, 0, 59, 0
2, 204710, Note_on_c, 0, 56, 0
2, 204720, Note_on_c, 0, 71, 58
2, 204722, Note_on_c, 0, 63, 58
2, 204722, Note_on_c, 0, 56, 58
2, 204930, Note_on_c, 0, 56, 0
2, 204930, Note_on_c, 0, 63, 0
2, 204930, Note_on_c, 0, 71, 0
2, 204940, Note_on_c, 0, 71, 58
2, 204943, Note_on_c, 0, 63, 58
2, 204943, Note_on_c, 0, 56, 58
2, 205170, Note_on_c, 0, 56, 0
2, 205170, Note_on_c, 0, 63, 0
2, 205170, Note_on_c, 0, 71, 0
2, 205180, Note_on_c, 0, 71, 58
2, 205182, Note_on_c, 0, 63, 58
2, 205182, Note_on_c, 0, 56, 58
2, 205410, Note_on_c, 0, 56, 0
2, 205410, Note_on_c, 0, 63, 0
2, 205410, Note_on_c, 0, 71, 0
2, 205420, Note_on_c, 0, 71, 58
2, 205422, Note_on_c, 0, 63, 58
2, 205422, Note_on_c, 0, 56, 58
2, 205650, Note_on_c, 0, 56, 0
2, 205650, Note_on_c, 0, 63, 0
2, 205650, Note_on_c, 0, 71, 0
2, 205660, Note_on_c, 0, 71, 58
2, 205660, Note_on_c, 0, 63, 58
2, 205662, Note_on_c, 0, 56, 58
2, 205893, Note_on_c, 0, 56, 0
2, 205893, Note_on_c, 0, 63, 0
2, 205893, Note_on_c, 0, 71, 0
2, 205903, Note_on_c, 0, 70, 58
2, 205903, Note_on_c, 0, 63, 58
2, 205906, Note_on_c, 0, 58, 58
2, 206133, Note_on_c, 0, 58, 0
2, 206133, Note_on_c, 0, 63, 0
2, 206133, Note_on_c, 0, 70, 0
2, 206143, Note_on_c, 0, 68, 58
2, 206143, Note_on_c, 0, 63, 58
2, 206143, Note_on_c, 0, 59, 58
2, 206370, Note_on_c, 0, 59, 0
2, 206370, Note_on_c, 0, 63, 0
2, 206370, Note_on_c, 0, 68, 0
2, 206380, Note_on_c, 0, 67, 58
2, 206382, Note_on_c, 0, 63, 58
2, 206382, Note_on_c, 0, 61, 58
2, 206385, Note_on_c, 0, 51, 58
2, 206630, Note_on_c, 0, 51, 0
2, 206630, Note_on_c, 0, 67, 0
2, 206630, Note_on_c, 0, 63, 0
2, 206630, Note_on_c, 0, 61, 0
2, 206640, Note_on_c, 0, 75, 58
2, 206640, Note_on_c, 0, 67, 58
2, 206642, Note_on_c, 0, 61, 58
2, 206642, Note_on_c, 0, 63, 58
2, 206873, Note_on_c, 0, 63, 0
2, 206873, Note_on_c, 0, 75, 0
2, 206873, Note_on_c, 0, 67, 0
2, 206873, Note_on_c, 0, 61, 0
2, 206883, Note_on_c, 0, 75, 58
2, 206883, Note_on_c, 0, 67, 58
2, 206883, Note_on_c, 0, 61, 58
2, 206886, Note_on_c, 0, 63, 58
2, 207110, Note_on_c, 0, 63, 0
2, 207110, Note_on_c, 0, 75, 0
2, 207110, Note_on_c, 0, 67, 0
2, 207110, Note_on_c, 0, 61, 0
2, 207120, Note_on_c, 0, 75, 58
2, 207123, Note_on_c, 0, 67, 58
2, 207123, Note_on_c, 0, 61, 58
2, 207126, Note_on_c, 0, 63, 58
2, 207350, Note_on_c, 0, 63, 0
2, 207350, Note_on_c, 0, 75, 0
2, 207350, Note_on_c, 0, 67, 0
2, 207350, Note_on_c, 0, 61, 0
2, 207360, Note_on_c, 0, 75, 58
2, 207362, Note_on_c, 0, 67, 58
2, 207362, Note_on_c, 0, 61, 58
2, 207362, Note_on_c, 0, 63, 58
2, 207590, Note_on_c, 0, 63, 0
2, 207590, Note_on_c, 0, 75, 0
2, 207590, Note_on_c, 0, 67, 0
2, 207590, Note_on_c, 0, 61, 0
2, 207600, Note_on_c, 0, 75, 58
2, 207602, Note_on_c, 0, 67, 58
2, 207602, Note_on_c, 0, 61, 58
2, 207602, Note_on_c, 0, 63, 58
2, 207830, Note_on_c, 0, 63, 0
2, 207830, Note_on_c, 0, 75, 0
2, 207830, Note_on_c, 0, 67, 0
2, 207830, Note_on_c, 0, 61, 0
2, 207840, Note_on_c, 0, 75, 58
2, 207840, Note_on_c, 0, 68, 58
2, 207842, Note_on_c, 0, 59, 58
2, 207842, Note_on_c, 0, 63, 58
2, 208070, Note_on_c, 0, 63, 0
2, 208070, Note_on_c, 0, 75, 0
2, 208070, Note_on_c, 0, 68, 0
2, 208070, Note_on_c, 0, 59, 0
2, 208080, Note_on_c, 0, 75, 58
2, 208080, Note_on_c, 0, 70, 58
2, 208082, Note_on_c, 0, 58, 58
2, 208082, Note_on_c, 0, 63, 58
2, 208313, Note_on_c, 0, 63, 0
2, 208313, Note_on_c, 0, 75, 0
2, 208313, Note_on_c, 0, 70, 0
2, 208313, Note_on_c, 0, 58, 0
2, 208323, Note_on_c, 0, 75, 58
2, 208323, Note_on_c, 0, 71, 58
2, 208323, Note_on_c, 0, 56, 58
2, 208326, Note_on_c, 0, 44, 58
2, 208550, Note_on_c, 0, 44, 0
2, 208550, Note_on_c, 0, 75, 0
2, 208550, Note_on_c, 0, 71, 0
2, 208550, Note_on_c, 0, 56, 0
2, 208560, Note_on_c, 0, 71, 58
2, 208563, Note_on_c, 0, 63, 58
2, 208563, Note_on_c, 0, 56, 58
2, 208790, Note_on_c, 0, 56, 0
2, 208790, Note_on_c, 0, 63, 0
2, 208790, Note_on_c, 0, 71, 0
2, 208800, Note_on_c, 0, 71, 58
2, 208802, Note_on_c, 0, 63, 58
2, 208802, Note_on_c, 0, 56, 58
2, 209030, Note_on_c, 0, 56, 0
2, 209030, Note_on_c, 0, 63, 0
2, 209030, Note_on_c, 0, 71, 0
2, 209040, Note_on_c, 0, 71, 58
2, 209040, Note_on_c, 0, 63, 58
2, 209042, Note_on_c, 0, 56, 58
2, 209270, Note_on_c, 0, 56, 0
2, 209270, Note_on_c, 0, 63, 0
2, 209270, Note_on_c, 0, 71, 0
2, 209280, Note_on_c, 0, 71, 58
2, 209280, Note_on_c, 0, 63, 58
2, 209282, Note_on_c, 0, 56, 58
2, 209513, Note_on_c, 0, 56, 0
2, 209513, Note_on_c, 0, 63, 0
2, 209513, Note_on_c, 0, 71, 0
2, 209523, Note_on_c, 0, 71, 58
2, 209523, Note_on_c, 0, 63, 58
2, 209523, Note_on_c, 0, 56, 58
2, 209753, Note_on_c, 0, 56, 0
2, 209753, Note_on_c, 0, 63, 0
2, 209753, Note_on_c, 0, 71, 0
2, 209763, Note_on_c, 0, 70, 58
2, 209763, Note_on_c, 0, 63, 58
2, 209763, Note_on_c, 0, 58, 58
2, 209990, Note_on_c, 0, 58, 0
2, 209990, Note_on_c, 0, 63, 0
2, 209990, Note_on_c, 0, 70, 0
2, 210000, Note_on_c, 0, 68, 58
2, 210002, Note_on_c, 0, 63, 58
2, 210002, Note_on_c, 0, 59, 58
2, 210216, Note_on_c, 0, 59, 0
2, 210216, Note_on_c, 0, 63, 0
2, 210216, Note_on_c, 0, 68, 0
2, 210226, Note_on_c, 0, 51, 58
2, 210240, Note_on_c, 0, 67, 58
2, 210242, Note_on_c, 0, 63, 58
2, 210242, Note_on_c, 0, 61, 58
2, 210470, Note_on_c, 0, 61, 0
2, 210470, Note_on_c, 0, 51, 0
2, 210470, Note_on_c, 0, 67, 0
2, 210470, Note_on_c, 0, 63, 0
2, 210480, Note_on_c, 0, 75, 58
2, 210480, Note_on_c, 0, 67, 58
2, 210482, Note_on_c, 0, 61, 58
2, 210482, Note_on_c, 0, 63, 58
2, 210710, Note_on_c, 0, 63, 0
2, 210710, Note_on_c, 0, 75, 0
2, 210710, Note_on_c, 0, 67, 0
2, 210710, Note_on_c, 0, 61, 0
2, 210720, Note_on_c, 0, 75, 58
2, 210720, Note_on_c, 0, 67, 58
2, 210722, Note_on_c, 0, 61, 58
2, 210722, Note_on_c, 0, 63, 58
2, 210953, Note_on_c, 0, 63, 0
2, 210953, Note_on_c, 0, 75, 0
2, 210953, Note_on_c, 0, 67, 0
2, 210953, Note_on_c, 0, 61, 0
2, 210963, Note_on_c, 0, 75, 58
2, 210963, Note_on_c, 0, 67, 58
2, 210963, Note_on_c, 0, 61, 58
2, 210966, Note_on_c, 0, 63, 58
2, 211190, Note_on_c, 0, 63, 0
2, 211190, Note_on_c, 0, 75, 0
2, 211190, Note_on_c, 0, 67, 0
2, 211190, Note_on_c, 0, 61, 0
2, 211200, Note_on_c, 0, 75, 58
2, 211203, Note_on_c, 0, 67, 58
2, 211203, Note_on_c, 0, 61, 58
2, 211206, Note_on_c, 0, 63, 58
2, 211430, Note_on_c, 0, 63, 0
2, 211430, Note_on_c, 0, 75, 0
2, 211430, Note_on_c, 0, 67, 0
2, 211430, Note_on_c, 0, 61, 0
2, 211440, Note_on_c, 0, 75, 58
2, 211442, Note_on_c, 0, 67, 58
2, 211442, Note_on_c, 0, 61, 58
2, 211442, Note_on_c, 0, 63, 58
2, 211670, Note_on_c, 0, 63, 0
2, 211670, Note_on_c, 0, 75, 0
2, 211670, Note_on_c, 0, 67, 0
2, 211670, Note_on_c, 0, 61, 0
2, 211680, Note_on_c, 0, 75, 58
2, 211682, Note_on_c, 0, 68, 58
2, 211682, Note_on_c, 0, 59, 58
2, 211682, Note_on_c, 0, 63, 58
2, 211910, Note_on_c, 0, 63, 0
2, 211910, Note_on_c, 0, 75, 0
2, 211910, Note_on_c, 0, 68, 0
2, 211910, Note_on_c, 0, 59, 0
2, 211920, Note_on_c, 0, 75, 58
2, 211920, Note_on_c, 0, 70, 58
2, 211922, Note_on_c, 0, 58, 58
2, 211922, Note_on_c, 0, 63, 58
2, 212150, Note_on_c, 0, 63, 0
2, 212150, Note_on_c, 0, 75, 0
2, 212150, Note_on_c, 0, 70, 0
2, 212150, Note_on_c, 0, 58, 0
2, 212160, Note_on_c, 0, 75, 58
2, 212160, Note_on_c, 0, 71, 58
2, 212162, Note_on_c, 0, 44, 58
2, 212370, Note_on_c, 0, 44, 0
2, 212370, Note_on_c, 0, 71, 0
2, 212370, Note_on_c, 0, 75, 0
2, 212380, Note_on_c, 0, 75, 58
2, 212380, Note_on_c, 0, 71, 58
2, 212382, Note_on_c, 0, 59, 58
2, 212382, Note_on_c, 0, 56, 58
2, 212613, Note_on_c, 0, 56, 0
2, 212613, Note_on_c, 0, 75, 0
2, 212613, Note_on_c, 0, 71, 0
2, 212613, Note_on_c, 0, 59, 0
2, 212623, Note_on_c, 0, 75, 58
2, 212623, Note_on_c, 0, 71, 58
2, 212626, Note_on_c, 0, 59, 58
2, 212626, Note_on_c, 0, 56, 58
2, 212870, Note_on_c, 0, 56, 0
2, 212870, Note_on_c, 0, 75, 0
2, 212870, Note_on_c, 0, 71, 0
2, 212870, Note_on_c, 0, 59, 0
2, 212880, Note_on_c, 0, 71, 58
2, 212882, Note_on_c, 0, 68, 58
2, 212882, Note_on_c, 0, 63, 58
2, 212882, Note_on_c, 0, 59, 58
2, 213110, Note_on_c, 0, 59, 0
2, 213110, Note_on_c, 0, 71, 0
2, 213110, Note_on_c, 0, 68, 0
2, 213110, Note_on_c, 0, 63, 0
2, 213120, Note_on_c, 0, 49, 58
2, 213330, Note_on_c, 0, 49, 0
2, 213340, Note_on_c, 0, 76, 58
2, 213342, Note_on_c, 0, 73, 58
2, 213342, Note_on_c, 0, 61, 58
2, 213342, Note_on_c, 0, 56, 58
2, 213570, Note_on_c, 0, 56, 0
2, 213570, Note_on_c, 0, 76, 0
2, 213570, Note_on_c, 0, 73, 0
2, 213570, Note_on_c, 0, 61, 0
2, 213580, Note_on_c, 0, 76, 58
2, 213582, Note_on_c, 0, 73, 58
2, 213582, Note_on_c, 0, 61, 58
2, 213582, Note_on_c, 0, 56, 58
2, 213833, Note_on_c, 0, 56, 0
2, 213833, Note_on_c, 0, 76, 0
2, 213833, Note_on_c, 0, 73, 0
2, 213833, Note_on_c, 0, 61, 0
2, 213843, Note_on_c, 0, 73, 58
2, 213843, Note_on_c, 0, 68, 58
2, 213843, Note_on_c, 0, 64, 58
2, 213846, Note_on_c, 0, 61, 58
2, 214070, Note_on_c, 0, 61, 0
2, 214070, Note_on_c, 0, 73, 0
2, 214070, Note_on_c, 0, 68, 0
2, 214070, Note_on_c, 0, 64, 0
2, 214080, Note_on_c, 0, 51, 58
2, 214293, Note_on_c, 0, 51, 0
2, 214303, Note_on_c, 0, 75, 58
2, 214303, Note_on_c, 0, 71, 58
2, 214303, Note_on_c, 0, 59, 58
2, 214306, Note_on_c, 0, 56, 58
2, 214530, Note_on_c, 0, 56, 0
2, 214530, Note_on_c, 0, 75, 0
2, 214530, Note_on_c, 0, 71, 0
2, 214530, Note_on_c, 0, 59, 0
2, 214540, Note_on_c, 0, 75, 58
2, 214543, Note_on_c, 0, 71, 58
2, 214543, Note_on_c, 0, 59, 58
2, 214546, Note_on_c, 0, 56, 58
2, 214790, Note_on_c, 0, 56, 0
2, 214790, Note_on_c, 0, 75, 0
2, 214790, Note_on_c, 0, 71, 0
2, 214790, Note_on_c, 0, 59, 0
2, 214800, Note_on_c, 0, 71, 58
2, 214800, Note_on_c, 0, 68, 58
2, 214802, Note_on_c, 0, 63, 58
2, 214802, Note_on_c, 0, 59, 58
2, 215033, Note_on_c, 0, 59, 0
2, 215033, Note_on_c, 0, 71, 0
2, 215033, Note_on_c, 0, 68, 0
2, 215033, Note_on_c, 0, 63, 0
2, 215043, Note_on_c, 0, 51, 58
2, 215250, Note_on_c, 0, 51, 0
2, 215260, Note_on_c, 0, 75, 58
2, 215260, Note_on_c, 0, 70, 58
2, 215262, Note_on_c, 0, 58, 58
2, 215262, Note_on_c, 0, 55, 58
2, 215493, Note_on_c, 0, 55, 0
2, 215493, Note_on_c, 0, 75, 0
2, 215493, Note_on_c, 0, 70, 0
2, 215493, Note_on_c, 0, 58, 0
2, 215503, Note_on_c, 0, 75, 58
2, 215503, Note_on_c, 0, 70, 58
2, 215503, Note_on_c, 0, 58, 58
2, 215506, Note_on_c, 0, 55, 58
2, 215750, Note_on_c, 0, 55, 0
2, 215750, Note_on_c, 0, 75, 0
2, 215750, Note_on_c, 0, 70, 0
2, 215750, Note_on_c, 0, 58, 0
2, 215760, Note_on_c, 0, 70, 58
2, 215760, Note_on_c, 0, 67, 58
2, 215762, Note_on_c, 0, 63, 58
2, 215762, Note_on_c, 0, 58, 58
2, 215975, Note_on_c, 0, 58, 0
2, 215975, Note_on_c, 0, 70, 0
2, 215975, Note_on_c, 0, 67, 0
2, 215975, Note_on_c, 0, 63, 0
2, 215985, Note_on_c, 0, 32, 58
2, 216000, Note_on_c, 0, 71, 58
2, 216000, Note_on_c, 0, 68, 58
2, 216002, Note_on_c, 0, 44, 58
2, 216212, Note_on_c, 0, 44, 0
2, 216212, Note_on_c, 0, 68, 0
2, 216212, Note_on_c, 0, 71, 0
2, 216222, Note_on_c, 0, 71, 58
2, 216230, Note_on_c, 0, 32, 0
2, 216240, Note_on_c, 0, 83, 58
2, 216240, Note_on_c, 0, 75, 58
2, 216242, Note_on_c, 0, 44, 58
2, 216242, Note_on_c, 0, 51, 58
2, 216473, Note_on_c, 0, 51, 0
2, 216473, Note_on_c, 0, 75, 0
2, 216473, Note_on_c, 0, 71, 0
2, 216473, Note_on_c, 0, 83, 0
2, 216473, Note_on_c, 0, 44, 0
2, 216483, Note_on_c, 0, 83, 61
2, 216483, Note_on_c, 0, 75, 61
2, 216483, Note_on_c, 0, 71, 61
2, 216486, Note_on_c, 0, 44, 61
2, 216486, Note_on_c, 0, 51, 61
2, 216710, Note_on_c, 0, 51, 0
2, 216710, Note_on_c, 0, 71, 0
2, 216710, Note_on_c, 0, 83, 0
2, 216710, Note_on_c, 0, 75, 0
2, 216710, Note_on_c, 0, 44, 0
2, 216720, Note_on_c, 0, 83, 64
2, 216723, Note_on_c, 0, 75, 64
2, 216723, Note_on_c, 0, 71, 64
2, 216726, Note_on_c, 0, 44, 64
2, 216726, Note_on_c, 0, 51, 64
2, 216950, Note_on_c, 0, 51, 0
2, 216950, Note_on_c, 0, 71, 0
2, 216950, Note_on_c, 0, 83, 0
2, 216950, Note_on_c, 0, 75, 0
2, 216950, Note_on_c, 0, 44, 0
2, 216960, Note_on_c, 0, 83, 67
2, 216962, Note_on_c, 0, 75, 67
2, 216962, Note_on_c, 0, 71, 67
2, 216962, Note_on_c, 0, 44, 67
2, 216965, Note_on_c, 0, 51, 67
2, 217190, Note_on_c, 0, 51, 0
2, 217190, Note_on_c, 0, 71, 0
2, 217190, Note_on_c, 0, 83, 0
2, 217190, Note_on_c, 0, 75, 0
2, 217190, Note_on_c, 0, 44, 0
2, 217200, Note_on_c, 0, 83, 70
2, 217200, Note_on_c, 0, 75, 70
2, 217202, Note_on_c, 0, 71, 70
2, 217202, Note_on_c, 0, 44, 70
2, 217205, Note_on_c, 0, 51, 70
2, 217430, Note_on_c, 0, 51, 0
2, 217430, Note_on_c, 0, 71, 0
2, 217430, Note_on_c, 0, 83, 0
2, 217430, Note_on_c, 0, 75, 0
2, 217430, Note_on_c, 0, 44, 0
2, 217440, Note_on_c, 0, 82, 73
2, 217440, Note_on_c, 0, 73, 73
2, 217442, Note_on_c, 0, 70, 73
2, 217442, Note_on_c, 0, 46, 73
2, 217442, Note_on_c, 0, 51, 73
2, 217673, Note_on_c, 0, 51, 0
2, 217673, Note_on_c, 0, 70, 0
2, 217673, Note_on_c, 0, 82, 0
2, 217673, Note_on_c, 0, 73, 0
2, 217673, Note_on_c, 0, 46, 0
2, 217683, Note_on_c, 0, 80, 75
2, 217683, Note_on_c, 0, 71, 75
2, 217683, Note_on_c, 0, 68, 75
2, 217686, Note_on_c, 0, 47, 75
2, 217686, Note_on_c, 0, 51, 75
2, 217895, Note_on_c, 0, 51, 0
2, 217895, Note_on_c, 0, 68, 0
2, 217895, Note_on_c, 0, 80, 0
2, 217895, Note_on_c, 0, 71, 0
2, 217895, Note_on_c, 0, 47, 0
2, 217905, Note_on_c, 0, 39, 75
2, 217923, Note_on_c, 0, 79, 77
2, 217923, Note_on_c, 0, 70, 77
2, 217923, Note_on_c, 0, 67, 77
2, 217926, Note_on_c, 0, 51, 77
2, 217926, Note_on_c, 0, 49, 77
2, 218150, Note_on_c, 0, 49, 0
2, 218150, Note_on_c, 0, 79, 0
2, 218150, Note_on_c, 0, 70, 0
2, 218150, Note_on_c, 0, 39, 0
2, 218150, Note_on_c, 0, 51, 0
2, 218150, Note_on_c, 0, 67, 0
2, 218160, Note_on_c, 0, 88, 79
2, 218162, Note_on_c, 0, 79, 79
2, 218162, Note_on_c, 0, 76, 79
2, 218165, Note_on_c, 0, 51, 79
2, 218165, Note_on_c, 0, 61, 79
2, 218390, Note_on_c, 0, 61, 0
2, 218390, Note_on_c, 0, 76, 0
2, 218390, Note_on_c, 0, 88, 0
2, 218390, Note_on_c, 0, 79, 0
2, 218390, Note_on_c, 0, 51, 0
2, 218400, Note_on_c, 0, 88, 79
2, 218402, Note_on_c, 0, 79, 79
2, 218402, Note_on_c, 0, 76, 79
2, 218402, Note_on_c, 0, 51, 79
2, 218405, Note_on_c, 0, 61, 79
2, 218630, Note_on_c, 0, 61, 0
2, 218630, Note_on_c, 0, 76, 0
2, 218630, Note_on_c, 0, 88, 0
2, 218630, Note_on_c, 0, 79, 0
2, 218630, Note_on_c, 0, 51, 0
2, 218640, Note_on_c, 0, 88, 79
2, 218640, Note_on_c, 0, 79, 79
2, 218642, Note_on_c, 0, 76, 79
2, 218642, Note_on_c, 0, 51, 79
2, 218645, Note_on_c, 0, 61, 79
2, 218870, Note_on_c, 0, 61, 0
2, 218870, Note_on_c, 0, 76, 0
2, 218870, Note_on_c, 0, 88, 0
2, 218870, Note_on_c, 0, 79, 0
2, 218870, Note_on_c, 0, 51, 0
2, 218880, Note_on_c, 0, 88, 79
2, 218880, Note_on_c, 0, 79, 79
2, 218882, Note_on_c, 0, 76, 79
2, 218882, Note_on_c, 0, 51, 79
2, 218882, Note_on_c, 0, 61, 79
2, 219113, Note_on_c, 0, 61, 0
2, 219113, Note_on_c, 0, 76, 0
2, 219113, Note_on_c, 0, 88, 0
2, 219113, Note_on_c, 0, 79, 0
2, 219113, Note_on_c, 0, 51, 0
2, 219123, Note_on_c, 0, 88, 79
2, 219123, Note_on_c, 0, 79, 79
2, 219123, Note_on_c, 0, 76, 79
2, 219126, Note_on_c, 0, 51, 79
2, 219126, Note_on_c, 0, 61, 79
2, 219350, Note_on_c, 0, 61, 0
2, 219350, Note_on_c, 0, 76, 0
2, 219350, Note_on_c, 0, 88, 0
2, 219350, Note_on_c, 0, 79, 0
2, 219350, Note_on_c, 0, 51, 0
2, 219360, Note_on_c, 0, 87, 79
2, 219363, Note_on_c, 0, 79, 79
2, 219363, Note_on_c, 0, 75, 79
2, 219366, Note_on_c, 0, 51, 79
2, 219366, Note_on_c, 0, 59, 79
2, 219590, Note_on_c, 0, 59, 0
2, 219590, Note_on_c, 0, 75, 0
2, 219590, Note_on_c, 0, 87, 0
2, 219590, Note_on_c, 0, 79, 0
2, 219590, Note_on_c, 0, 51, 0
2, 219600, Note_on_c, 0, 85, 79
2, 219602, Note_on_c, 0, 79, 79
2, 219602, Note_on_c, 0, 73, 79
2, 219602, Note_on_c, 0, 51, 79
2, 219605, Note_on_c, 0, 58, 79
2, 219830, Note_on_c, 0, 58, 0
2, 219830, Note_on_c, 0, 73, 0
2, 219830, Note_on_c, 0, 85, 0
2, 219830, Note_on_c, 0, 79, 0
2, 219830, Note_on_c, 0, 51, 0
2, 219840, Note_on_c, 0, 83, 79
2, 219842, Note_on_c, 0, 80, 79
2, 219842, Note_on_c, 0, 71, 79
2, 219842, Note_on_c, 0, 44, 79
2, 219845, Note_on_c, 0, 32, 79
2, 220070, Note_on_c, 0, 32, 0
2, 220070, Note_on_c, 0, 71, 0
2, 220070, Note_on_c, 0, 83, 0
2, 220070, Note_on_c, 0, 80, 0
2, 220070, Note_on_c, 0, 44, 0
2, 220080, Note_on_c, 0, 83, 58
2, 220080, Note_on_c, 0, 75, 58
2, 220082, Note_on_c, 0, 71, 58
2, 220082, Note_on_c, 0, 44, 58
2, 220082, Note_on_c, 0, 51, 58
2, 220310, Note_on_c, 0, 51, 0
2, 220310, Note_on_c, 0, 71, 0
2, 220310, Note_on_c, 0, 83, 0
2, 220310, Note_on_c, 0, 75, 0
2, 220310, Note_on_c, 0, 44, 0
2, 220320, Note_on_c, 0, 83, 58
2, 220320, Note_on_c, 0, 75, 58
2, 220322, Note_on_c, 0, 71, 58
2, 220322, Note_on_c, 0, 44, 58
2, 220322, Note_on_c, 0, 51, 58
2, 220553, Note_on_c, 0, 51, 0
2, 220553, Note_on_c, 0, 71, 0
2, 220553, Note_on_c, 0, 83, 0
2, 220553, Note_on_c, 0, 75, 0
2, 220553, Note_on_c, 0, 44, 0
2, 220563, Note_on_c, 0, 83, 61
2, 220563, Note_on_c, 0, 75, 61
2, 220563, Note_on_c, 0, 71, 61
2, 220566, Note_on_c, 0, 44, 61
2, 220566, Note_on_c, 0, 51, 61
2, 220790, Note_on_c, 0, 51, 0
2, 220790, Note_on_c, 0, 71, 0
2, 220790, Note_on_c, 0, 83, 0
2, 220790, Note_on_c, 0, 75, 0
2, 220790, Note_on_c, 0, 44, 0
2, 220800, Note_on_c, 0, 83, 64
2, 220802, Note_on_c, 0, 75, 64
2, 220802, Note_on_c, 0, 71, 64
2, 220805, Note_on_c, 0, 44, 64
2, 220805, Note_on_c, 0, 51, 64
2, 221030, Note_on_c, 0, 51, 0
2, 221030, Note_on_c, 0, 71, 0
2, 221030, Note_on_c, 0, 83, 0
2, 221030, Note_on_c, 0, 75, 0
2, 221030, Note_on_c, 0, 44, 0
2, 221040, Note_on_c, 0, 83, 67
2, 221042, Note_on_c, 0, 75, 67
2, 221042, Note_on_c, 0, 71, 67
2, 221042, Note_on_c, 0, 44, 67
2, 221045, Note_on_c, 0, 51, 67
2, 221270, Note_on_c, 0, 51, 0
2, 221270, Note_on_c, 0, 71, 0
2, 221270, Note_on_c, 0, 83, 0
2, 221270, Note_on_c, 0, 75, 0
2, 221270, Note_on_c, 0, 44, 0
2, 221280, Note_on_c, 0, 82, 70
2, 221280, Note_on_c, 0, 73, 70
2, 221282, Note_on_c, 0, 70, 70
2, 221282, Note_on_c, 0, 46, 70
2, 221285, Note_on_c, 0, 51, 70
2, 221510, Note_on_c, 0, 51, 0
2, 221510, Note_on_c, 0, 70, 0
2, 221510, Note_on_c, 0, 82, 0
2, 221510, Note_on_c, 0, 73, 0
2, 221510, Note_on_c, 0, 46, 0
2, 221520, Note_on_c, 0, 80, 73
2, 221520, Note_on_c, 0, 71, 73
2, 221522, Note_on_c, 0, 68, 73
2, 221522, Note_on_c, 0, 47, 73
2, 221522, Note_on_c, 0, 51, 73
2, 221735, Note_on_c, 0, 51, 0
2, 221735, Note_on_c, 0, 68, 0
2, 221735, Note_on_c, 0, 80, 0
2, 221735, Note_on_c, 0, 71, 0
2, 221735, Note_on_c, 0, 47, 0
2, 221745, Note_on_c, 0, 39, 76
2, 221763, Note_on_c, 0, 79, 76
2, 221763, Note_on_c, 0, 70, 76
2, 221763, Note_on_c, 0, 67, 76
2, 221766, Note_on_c, 0, 51, 76
2, 221766, Note_on_c, 0, 49, 76
2, 221993, Note_on_c, 0, 49, 0
2, 221993, Note_on_c, 0, 79, 0
2, 221993, Note_on_c, 0, 70, 0
2, 221993, Note_on_c, 0, 39, 0
2, 221993, Note_on_c, 0, 51, 0
2, 221993, Note_on_c, 0, 67, 0
2, 222003, Note_on_c, 0, 79, 79
2, 222003, Note_on_c, 0, 88, 79
2, 222003, Note_on_c, 0, 76, 79
2, 222006, Note_on_c, 0, 51, 79
2, 222006, Note_on_c, 0, 61, 79
2, 222230, Note_on_c, 0, 61, 0
2, 222230, Note_on_c, 0, 76, 0
2, 222230, Note_on_c, 0, 79, 0
2, 222230, Note_on_c, 0, 88, 0
2, 222230, Note_on_c, 0, 51, 0
2, 222240, Note_on_c, 0, 79, 79
2, 222242, Note_on_c, 0, 88, 79
2, 222242, Note_on_c, 0, 76, 79
2, 222245, Note_on_c, 0, 51, 79
2, 222245, Note_on_c, 0, 61, 79
2, 222470, Note_on_c, 0, 61, 0
2, 222470, Note_on_c, 0, 76, 0
2, 222470, Note_on_c, 0, 79, 0
2, 222470, Note_on_c, 0, 88, 0
2, 222470, Note_on_c, 0, 51, 0
2, 222480, Note_on_c, 0, 79, 79
2, 222482, Note_on_c, 0, 88, 79
2, 222482, Note_on_c, 0, 76, 79
2, 222482, Note_on_c, 0, 51, 79
2, 222485, Note_on_c, 0, 61, 79
2, 222710, Note_on_c, 0, 61, 0
2, 222710, Note_on_c, 0, 76, 0
2, 222710, Note_on_c, 0, 79, 0
2, 222710, Note_on_c, 0, 88, 0
2, 222710, Note_on_c, 0, 51, 0
2, 222720, Note_on_c, 0, 79, 79
2, 222720, Note_on_c, 0, 88, 79
2, 222722, Note_on_c, 0, 76, 79
2, 222722, Note_on_c, 0, 51, 79
2, 222725, Note_on_c, 0, 61, 79
2, 222950, Note_on_c, 0, 61, 0
2, 222950, Note_on_c, 0, 76, 0
2, 222950, Note_on_c, 0, 79, 0
2, 222950, Note_on_c, 0, 88, 0
2, 222950, Note_on_c, 0, 51, 0
2, 222960, Note_on_c, 0, 79, 79
2, 222960, Note_on_c, 0, 88, 79
2, 222962, Note_on_c, 0, 76, 79
2, 222962, Note_on_c, 0, 51, 79
2, 222962, Note_on_c, 0, 61, 79
2, 223193, Note_on_c, 0, 61, 0
2, 223193, Note_on_c, 0, 76, 0
2, 223193, Note_on_c, 0, 79, 0
2, 223193, Note_on_c, 0, 88, 0
2, 223193, Note_on_c, 0, 51, 0
2, 223203, Note_on_c, 0, 79, 79
2, 223203, Note_on_c, 0, 87, 79
2, 223203, Note_on_c, 0, 75, 79
2, 223206, Note_on_c, 0, 51, 79
2, 223206, Note_on_c, 0, 59, 79
2, 223430, Note_on_c, 0, 59, 0
2, 223430, Note_on_c, 0, 75, 0
2, 223430, Note_on_c, 0, 79, 0
2, 223430, Note_on_c, 0, 87, 0
2, 223430, Note_on_c, 0, 51, 0
2, 223440, Note_on_c, 0, 79, 79
2, 223443, Note_on_c, 0, 85, 79
2, 223443, Note_on_c, 0, 73, 79
2, 223446, Note_on_c, 0, 51, 79
2, 223446, Note_on_c, 0, 58, 79
2, 223670, Note_on_c, 0, 58, 0
2, 223670, Note_on_c, 0, 73, 0
2, 223670, Note_on_c, 0, 79, 0
2, 223670, Note_on_c, 0, 85, 0
2, 223670, Note_on_c, 0, 51, 0
2, 223680, Note_on_c, 0, 83, 79
2, 223682, Note_on_c, 0, 80, 79
2, 223682, Note_on_c, 0, 71, 79
2, 223682, Note_on_c, 0, 56, 79
2, 223685, Note_on_c, 0, 44, 79
2, 223910, Note_on_c, 0, 44, 0
2, 223910, Note_on_c, 0, 71, 0
2, 223910, Note_on_c, 0, 83, 0
2, 223910, Note_on_c, 0, 80, 0
2, 223910, Note_on_c, 0, 56, 0
2, 223920, Note_on_c, 0, 83, 58
2, 223922, Note_on_c, 0, 80, 58
2, 223922, Note_on_c, 0, 63, 58
2, 223922, Note_on_c, 0, 59, 58
2, 224130, Note_on_c, 0, 59, 0
2, 224130, Note_on_c, 0, 83, 0
2, 224130, Note_on_c, 0, 80, 0
2, 224130, Note_on_c, 0, 63, 0
2, 224140, Note_on_c, 0, 83, 58
2, 224142, Note_on_c, 0, 80, 58
2, 224142, Note_on_c, 0, 63, 58
2, 224142, Note_on_c, 0, 59, 58
2, 224393, Note_on_c, 0, 59, 0
2, 224393, Note_on_c, 0, 83, 0
2, 224393, Note_on_c, 0, 80, 0
2, 224393, Note_on_c, 0, 63, 0
2, 224403, Note_on_c, 0, 87, 58
2, 224403, Note_on_c, 0, 83, 58
2, 224406, Note_on_c, 0, 59, 58
2, 224406, Note_on_c, 0, 56, 58
2, 224633, Note_on_c, 0, 56, 0
2, 224633, Note_on_c, 0, 87, 0
2, 224633, Note_on_c, 0, 83, 0
2, 224633, Note_on_c, 0, 59, 0
2, 224643, Note_on_c, 0, 49, 63
2, 224853, Note_on_c, 0, 49, 0
2, 224863, Note_on_c, 0, 85, 58
2, 224863, Note_on_c, 0, 80, 58
2, 224866, Note_on_c, 0, 64, 58
2, 224866, Note_on_c, 0, 61, 58
2, 225093, Note_on_c, 0, 61, 0
2, 225093, Note_on_c, 0, 85, 0
2, 225093, Note_on_c, 0, 80, 0
2, 225093, Note_on_c, 0, 64, 0
2, 225103, Note_on_c, 0, 85, 58
2, 225103, Note_on_c, 0, 80, 58
2, 225103, Note_on_c, 0, 64, 58
2, 225106, Note_on_c, 0, 61, 58
2, 225350, Note_on_c, 0, 61, 0
2, 225350, Note_on_c, 0, 85, 0
2, 225350, Note_on_c, 0, 80, 0
2, 225350, Note_on_c, 0, 64, 0
2, 225360, Note_on_c, 0, 88, 58
2, 225360, Note_on_c, 0, 85, 58
2, 225362, Note_on_c, 0, 61, 58
2, 225362, Note_on_c, 0, 56, 58
2, 225572, Note_on_c, 0, 61, 0
2, 225572, Note_on_c, 0, 88, 0
2, 225572, Note_on_c, 0, 85, 0
2, 225582, Note_on_c, 0, 51, 63
2, 225810, Note_on_c, 0, 51, 0
2, 225810, Note_on_c, 0, 56, 0
2, 225820, Note_on_c, 0, 83, 58
2, 225820, Note_on_c, 0, 80, 58
2, 225822, Note_on_c, 0, 63, 58
2, 225822, Note_on_c, 0, 59, 58
2, 226050, Note_on_c, 0, 59, 0
2, 226050, Note_on_c, 0, 83, 0
2, 226050, Note_on_c, 0, 80, 0
2, 226050, Note_on_c, 0, 63, 0
2, 226060, Note_on_c, 0, 83, 58
2, 226060, Note_on_c, 0, 80, 58
2, 226062, Note_on_c, 0, 63, 58
2, 226062, Note_on_c, 0, 59, 58
2, 226310, Note_on_c, 0, 59, 0
2, 226310, Note_on_c, 0, 83, 0
2, 226310, Note_on_c, 0, 80, 0
2, 226310, Note_on_c, 0, 63, 0
2, 226320, Note_on_c, 0, 87, 58
2, 226322, Note_on_c, 0, 83, 58
2, 226322, Note_on_c, 0, 59, 58
2, 226322, Note_on_c, 0, 56, 58
2, 226550, Note_on_c, 0, 56, 0
2, 226550, Note_on_c, 0, 87, 0
2, 226550, Note_on_c, 0, 83, 0
2, 226550, Note_on_c, 0, 59, 0
2, 226560, Note_on_c, 0, 49, 63
2, 226770, Note_on_c, 0, 49, 0
2, 226780, Note_on_c, 0, 82, 58
2, 226782, Note_on_c, 0, 79, 58
2, 226782, Note_on_c, 0, 63, 58
2, 226785, Note_on_c, 0, 58, 58
2, 227010, Note_on_c, 0, 58, 0
2, 227010, Note_on_c, 0, 82, 0
2, 227010, Note_on_c, 0, 79, 0
2, 227010, Note_on_c, 0, 63, 0
2, 227020, Note_on_c, 0, 82, 58
2, 227022, Note_on_c, 0, 79, 58
2, 227022, Note_on_c, 0, 63, 58
2, 227022, Note_on_c, 0, 58, 58
2, 227273, Note_on_c, 0, 58, 0
2, 227273, Note_on_c, 0, 82, 0
2, 227273, Note_on_c, 0, 79, 0
2, 227273, Note_on_c, 0, 63, 0
2, 227283, Note_on_c, 0, 87, 58
2, 227283, Note_on_c, 0, 82, 58
2, 227283, Note_on_c, 0, 58, 58
2, 227286, Note_on_c, 0, 55, 58
2, 227513, Note_on_c, 0, 55, 0
2, 227513, Note_on_c, 0, 87, 0
2, 227513, Note_on_c, 0, 82, 0
2, 227513, Note_on_c, 0, 58, 0
2, 227523, Note_on_c, 0, 47, 63
2, 227733, Note_on_c, 0, 47, 0
2, 227743, Note_on_c, 0, 83, 58
2, 227743, Note_on_c, 0, 75, 58
2, 227743, Note_on_c, 0, 68, 58
2, 227746, Note_on_c, 0, 63, 58
2, 227973, Note_on_c, 0, 63, 0
2, 227973, Note_on_c, 0, 83, 0
2, 227973, Note_on_c, 0, 75, 0
2, 227973, Note_on_c, 0, 68, 0
2, 227983, Note_on_c, 0, 83, 58
2, 227983, Note_on_c, 0, 75, 58
2, 227983, Note_on_c, 0, 68, 58
2, 227986, Note_on_c, 0, 63, 58
2, 228220, Note_on_c, 0, 87, 58
2, 228222, Note_on_c, 0, 80, 58
2, 228222, Note_on_c, 0, 63, 58
2, 228222, Note_on_c, 0, 59, 58
2, 228473, Note_on_c, 0, 59, 0
2, 228473, Note_on_c, 0, 83, 0
2, 228473, Note_on_c, 0, 87, 0
2, 228473, Note_on_c, 0, 75, 0
2, 228473, Note_on_c, 0, 68, 0
2, 228473, Note_on_c, 0, 63, 0
2, 228473, Note_on_c, 0, 80, 0
2, 228473, Note_on_c, 0, 63, 0
2, 228483, Note_on_c, 0, 49, 66
2, 228690, Note_on_c, 0, 49, 0
2, 228700, Note_on_c, 0, 81, 58
2, 228700, Note_on_c, 0, 73, 58
2, 228702, Note_on_c, 0, 69, 58
2, 228702, Note_on_c, 0, 64, 58
2, 228933, Note_on_c, 0, 64, 0
2, 228933, Note_on_c, 0, 81, 0
2, 228933, Note_on_c, 0, 73, 0
2, 228933, Note_on_c, 0, 69, 0
2, 228943, Note_on_c, 0, 81, 58
2, 228943, Note_on_c, 0, 73, 58
2, 228946, Note_on_c, 0, 69, 58
2, 228946, Note_on_c, 0, 64, 58
2, 229183, Note_on_c, 0, 85, 58
2, 229183, Note_on_c, 0, 76, 58
2, 229183, Note_on_c, 0, 64, 58
2, 229186, Note_on_c, 0, 61, 58
2, 229430, Note_on_c, 0, 61, 0
2, 229430, Note_on_c, 0, 81, 0
2, 229430, Note_on_c, 0, 85, 0
2, 229430, Note_on_c, 0, 73, 0
2, 229430, Note_on_c, 0, 69, 0
2, 229430, Note_on_c, 0, 64, 0
2, 229430, Note_on_c, 0, 76, 0
2, 229430, Note_on_c, 0, 64, 0
2, 229440, Note_on_c, 0, 51, 68
2, 229650, Note_on_c, 0, 51, 0
2, 229660, Note_on_c, 0, 80, 60
2, 229662, Note_on_c, 0, 71, 60
2, 229662, Note_on_c, 0, 68, 60
2, 229662, Note_on_c, 0, 63, 60
2, 229890, Note_on_c, 0, 63, 0
2, 229890, Note_on_c, 0, 80, 0
2, 229890, Note_on_c, 0, 71, 0
2, 229890, Note_on_c, 0, 68, 0
2, 229900, Note_on_c, 0, 80, 60
2, 229900, Note_on_c, 0, 71, 60
2, 229902, Note_on_c, 0, 68, 60
2, 229902, Note_on_c, 0, 63, 60
2, 230140, Note_on_c, 0, 83, 60
2, 230140, Note_on_c, 0, 75, 60
2, 230142, Note_on_c, 0, 63, 60
2, 230142, Note_on_c, 0, 59, 60
2, 230390, Note_on_c, 0, 59, 0
2, 230390, Note_on_c, 0, 80, 0
2, 230390, Note_on_c, 0, 83, 0
2, 230390, Note_on_c, 0, 71, 0
2, 230390, Note_on_c, 0, 68, 0
2, 230390, Note_on_c, 0, 63, 0
2, 230390, Note_on_c, 0, 75, 0
2, 230390, Note_on_c, 0, 63, 0
2, 230400, Note_on_c, 0, 51, 63
2, 230613, Note_on_c, 0, 51, 0
2, 230623, Note_on_c, 0, 79, 58
2, 230623, Note_on_c, 0, 70, 58
2, 230623, Note_on_c, 0, 67, 58
2, 230626, Note_on_c, 0, 61, 58
2, 230850, Note_on_c, 0, 61, 0
2, 230850, Note_on_c, 0, 79, 0
2, 230850, Note_on_c, 0, 70, 0
2, 230850, Note_on_c, 0, 67, 0
2, 230860, Note_on_c, 0, 79, 58
2, 230862, Note_on_c, 0, 70, 58
2, 230862, Note_on_c, 0, 67, 58
2, 230865, Note_on_c, 0, 61, 58
2, 231110, Note_on_c, 0, 61, 0
2, 231110, Note_on_c, 0, 79, 0
2, 231110, Note_on_c, 0, 70, 0
2, 231110, Note_on_c, 0, 67, 0
2, 231120, Note_on_c, 0, 82, 58
2, 231120, Note_on_c, 0, 73, 58
2, 231122, Note_on_c, 0, 61, 58
2, 231122, Note_on_c, 0, 58, 58
2, 231353, Note_on_c, 0, 58, 0
2, 231353, Note_on_c, 0, 82, 0
2, 231353, Note_on_c, 0, 73, 0
2, 231353, Note_on_c, 0, 61, 0
2, 231363, Note_on_c, 0, 80, 63
2, 231363, Note_on_c, 0, 71, 58
2, 231363, Note_on_c, 0, 44, 58
2, 231473, Note_on_c, 0, 44, 0
2, 231483, Note_on_c, 0, 56, 58
2, 231593, Note_on_c, 0, 56, 0
2, 231603, Note_on_c, 0, 51, 58
2, 231710, Note_on_c, 0, 51, 0
2, 231720, Note_on_c, 0, 56, 58
2, 231830, Note_on_c, 0, 56, 0
2, 231830, Note_on_c, 0, 71, 0
2, 231830, Note_on_c, 0, 80, 0
2, 231840, Note_on_c, 0, 44, 58
2, 231950, Note_on_c, 0, 44, 0
2, 231960, Note_on_c, 0, 56, 58
2, 232070, Note_on_c, 0, 56, 0
2, 232080, Note_on_c, 0, 51, 58
2, 232190, Note_on_c, 0, 51, 0
2, 232200, Note_on_c, 0, 56, 58
2, 232310, Note_on_c, 0, 56, 0
2, 232320, Note_on_c, 0, 44, 58
2, 232430, Note_on_c, 0, 44, 0
2, 232440, Note_on_c, 0, 56, 58
2, 232553, Note_on_c, 0, 56, 0
2, 232563, Note_on_c, 0, 51, 58
2, 232673, Note_on_c, 0, 51, 0
2, 232683, Note_on_c, 0, 56, 58
2, 232770, Note_on_c, 0, 56, 0
2, 232780, Note_on_c, 0, 71, 63
2, 232803, Note_on_c, 0, 44, 58
2, 232913, Note_on_c, 0, 44, 0
2, 232923, Note_on_c, 0, 56, 58
2, 233030, Note_on_c, 0, 56, 0
2, 233040, Note_on_c, 0, 51, 58
2, 233150, Note_on_c, 0, 51, 0
2, 233150, Note_on_c, 0, 71, 0
2, 233160, Note_on_c, 0, 68, 63
2, 233162, Note_on_c, 0, 56, 58
2, 233253, Note_on_c, 0, 56, 0
2, 233253, Note_on_c, 0, 68, 0
2, 233263, Note_on_c, 0, 44, 58
2, 233280, Note_on_c, 0, 67, 63
2, 233390, Note_on_c, 0, 44, 0
2, 233400, Note_on_c, 0, 58, 58
2, 233510, Note_on_c, 0, 58, 0
2, 233520, Note_on_c, 0, 51, 58
2, 233630, Note_on_c, 0, 51, 0
2, 233640, Note_on_c, 0, 58, 58
2, 233732, Note_on_c, 0, 58, 0
2, 233732, Note_on_c, 0, 67, 0
2, 233742, Note_on_c, 0, 67, 58
2, 233742, Note_on_c, 0, 61, 58
2, 233760, Note_on_c, 0, 75, 63
2, 233760, Note_on_c, 0, 44, 58
2, 233870, Note_on_c, 0, 44, 0
2, 233880, Note_on_c, 0, 58, 58
2, 233993, Note_on_c, 0, 58, 0
2, 234003, Note_on_c, 0, 51, 58
2, 234113, Note_on_c, 0, 51, 0
2, 234113, Note_on_c, 0, 67, 0
2, 234113, Note_on_c, 0, 61, 0
2, 234113, Note_on_c, 0, 75, 0
2, 234123, Note_on_c, 0, 58, 58
2, 234212, Note_on_c, 0, 58, 0
2, 234220, Note_on_c, 0, 75, 63
2, 234220, Note_on_c, 0, 67, 58
2, 234222, Note_on_c, 0, 61, 58
2, 234243, Note_on_c, 0, 44, 58
2, 234353, Note_on_c, 0, 44, 0
2, 234363, Note_on_c, 0, 58, 58
2, 234470, Note_on_c, 0, 58, 0
2, 234480, Note_on_c, 0, 51, 58
2, 234590, Note_on_c, 0, 51, 0
2, 234590, Note_on_c, 0, 75, 0
2, 234590, Note_on_c, 0, 67, 0
2, 234590, Note_on_c, 0, 61, 0
2, 234600, Note_on_c, 0, 58, 58
2, 234703, Note_on_c, 0, 75, 63
2, 234703, Note_on_c, 0, 67, 58
2, 234703, Note_on_c, 0, 61, 58
2, 234710, Note_on_c, 0, 58, 0
2, 234720, Note_on_c, 0, 44, 58
2, 234830, Note_on_c, 0, 44, 0
2, 234840, Note_on_c, 0, 58, 58
2, 234950, Note_on_c, 0, 58, 0
2, 234960, Note_on_c, 0, 51, 58
2, 235070, Note_on_c, 0, 51, 0
2, 235070, Note_on_c, 0, 61, 0
2, 235070, Note_on_c, 0, 67, 0
2, 235070, Note_on_c, 0, 75, 0
2, 235080, Note_on_c, 0, 58, 58
2, 235180, Note_on_c, 0, 59, 63
2, 235190, Note_on_c, 0, 58, 0
2, 235200, Note_on_c, 0, 44, 58
2, 235300, Note_on_c, 0, 68, 63
2, 235310, Note_on_c, 0, 44, 0
2, 235310, Note_on_c, 0, 59, 0
2, 235320, Note_on_c, 0, 56, 58
2, 235410, Note_on_c, 0, 56, 0
2, 235420, Note_on_c, 0, 75, 63
2, 235430, Note_on_c, 0, 68, 0
2, 235440, Note_on_c, 0, 51, 58
2, 235553, Note_on_c, 0, 51, 0
2, 235563, Note_on_c, 0, 56, 58
2, 235673, Note_on_c, 0, 56, 0
2, 235683, Note_on_c, 0, 44, 58
2, 235790, Note_on_c, 0, 44, 0
2, 235800, Note_on_c, 0, 56, 58
2, 235910, Note_on_c, 0, 56, 0
2, 235920, Note_on_c, 0, 51, 58
2, 236030, Note_on_c, 0, 51, 0
2, 236040, Note_on_c, 0, 56, 58
2, 236150, Note_on_c, 0, 56, 0
2, 236160, Note_on_c, 0, 44, 58
2, 236270, Note_on_c, 0, 44, 0
2, 236280, Note_on_c, 0, 56, 58
2, 236390, Note_on_c, 0, 56, 0
2, 236400, Note_on_c, 0, 51, 58
2, 236510, Note_on_c, 0, 51, 0
2, 236520, Note_on_c, 0, 56, 58
2, 236633, Note_on_c, 0, 56, 0
2, 236633, Note_on_c, 0, 75, 0
2, 236643, Note_on_c, 0, 83, 63
2, 236643, Note_on_c, 0, 44, 58
2, 236753, Note_on_c, 0, 44, 0
2, 236763, Note_on_c, 0, 56, 58
2, 236873, Note_on_c, 0, 56, 0
2, 236883, Note_on_c, 0, 51, 58
2, 236990, Note_on_c, 0, 51, 0
2, 236990, Note_on_c, 0, 83, 0
2, 237000, Note_on_c, 0, 80, 63
2, 237003, Note_on_c, 0, 56, 58
2, 237110, Note_on_c, 0, 56, 0
2, 237110, Note_on_c, 0, 80, 0
2, 237120, Note_on_c, 0, 79, 63
2, 237122, Note_on_c, 0, 44, 58
2, 237230, Note_on_c, 0, 44, 0
2, 237240, Note_on_c, 0, 58, 58
2, 237350, Note_on_c, 0, 58, 0
2, 237360, Note_on_c, 0, 51, 58
2, 237470, Note_on_c, 0, 51, 0
2, 237480, Note_on_c, 0, 58, 58
2, 237572, Note_on_c, 0, 79, 0
2, 237582, Note_on_c, 0, 79, 58
2, 237582, Note_on_c, 0, 73, 58
2, 237590, Note_on_c, 0, 58, 0
2, 237600, Note_on_c, 0, 87, 63
2, 237600, Note_on_c, 0, 44, 58
2, 237710, Note_on_c, 0, 44, 0
2, 237720, Note_on_c, 0, 58, 58
2, 237830, Note_on_c, 0, 58, 0
2, 237840, Note_on_c, 0, 51, 58
2, 237950, Note_on_c, 0, 51, 0
2, 237950, Note_on_c, 0, 79, 0
2, 237950, Note_on_c, 0, 73, 0
2, 237950, Note_on_c, 0, 87, 0
2, 237960, Note_on_c, 0, 58, 58
2, 238052, Note_on_c, 0, 58, 0
2, 238060, Note_on_c, 0, 87, 63
2, 238060, Note_on_c, 0, 79, 58
2, 238062, Note_on_c, 0, 73, 58
2, 238083, Note_on_c, 0, 44, 58
2, 238193, Note_on_c, 0, 44, 0
2, 238203, Note_on_c, 0, 58, 58
2, 238313, Note_on_c, 0, 58, 0
2, 238323, Note_on_c, 0, 51, 58
2, 238430, Note_on_c, 0, 51, 0
2, 238430, Note_on_c, 0, 87, 0
2, 238430, Note_on_c, 0, 79, 0
2, 238430, Note_on_c, 0, 73, 0
2, 238440, Note_on_c, 0, 58, 58
2, 238536, Note_on_c, 0, 58, 0
2, 238543, Note_on_c, 0, 87, 63
2, 238543, Note_on_c, 0, 79, 58
2, 238546, Note_on_c, 0, 73, 58
2, 238560, Note_on_c, 0, 44, 58
2, 238670, Note_on_c, 0, 44, 0
2, 238680, Note_on_c, 0, 58, 58
2, 238790, Note_on_c, 0, 58, 0
2, 238800, Note_on_c, 0, 51, 58
2, 238910, Note_on_c, 0, 51, 0
2, 238910, Note_on_c, 0, 87, 0
2, 238910, Note_on_c, 0, 79, 0
2, 238910, Note_on_c, 0, 73, 0
2, 238920, Note_on_c, 0, 58, 58
2, 239020, Note_on_c, 0, 71, 63
2, 239030, Note_on_c, 0, 58, 0
2, 239040, Note_on_c, 0, 44, 58
2, 239140, Note_on_c, 0, 80, 63
2, 239150, Note_on_c, 0, 44, 0
2, 239150, Note_on_c, 0, 71, 0
2, 239160, Note_on_c, 0, 56, 58
2, 239260, Note_on_c, 0, 87, 63
2, 239270, Note_on_c, 0, 56, 0
2, 239270, Note_on_c, 0, 80, 0
2, 239280, Note_on_c, 0, 51, 58
2, 239393, Note_on_c, 0, 51, 0
2, 239403, Note_on_c, 0, 56, 58
2, 239513, Note_on_c, 0, 56, 0
2, 239523, Note_on_c, 0, 44, 58
2, 239633, Note_on_c, 0, 44, 0
2, 239643, Note_on_c, 0, 56, 58
2, 239753, Note_on_c, 0, 56, 0
2, 239763, Note_on_c, 0, 51, 58
2, 239870, Note_on_c, 0, 51, 0
2, 239880, Note_on_c, 0, 56, 58
2, 239990, Note_on_c, 0, 56, 0
2, 239990, Note_on_c, 0, 87, 0
2, 240000, Note_on_c, 0, 73, 63
2, 240002, Note_on_c, 0, 44, 58
2, 240093, Note_on_c, 0, 44, 0
2, 240103, Note_on_c, 0, 79, 63
2, 240110, Note_on_c, 0, 73, 0
2, 240120, Note_on_c, 0, 58, 58
2, 240220, Note_on_c, 0, 87, 63
2, 240230, Note_on_c, 0, 58, 0
2, 240230, Note_on_c, 0, 79, 0
2, 240240, Note_on_c, 0, 51, 58
2, 240350, Note_on_c, 0, 51, 0
2, 240360, Note_on_c, 0, 58, 58
2, 240470, Note_on_c, 0, 58, 0
2, 240480, Note_on_c, 0, 44, 58
2, 240590, Note_on_c, 0, 44, 0
2, 240600, Note_on_c, 0, 58, 58
2, 240713, Note_on_c, 0, 58, 0
2, 240723, Note_on_c, 0, 51, 58
2, 240833, Note_on_c, 0, 51, 0
2, 240843, Note_on_c, 0, 58, 58
2, 240953, Note_on_c, 0, 58, 0
2, 240953, Note_on_c, 0, 87, 0
2, 240963, Note_on_c, 0, 71, 63
2, 240963, Note_on_c, 0, 44, 58
2, 241050, Note_on_c, 0, 44, 0
2, 241060, Note_on_c, 0, 80, 63
2, 241070, Note_on_c, 0, 71, 0
2, 241080, Note_on_c, 0, 56, 58
2, 241173, Note_on_c, 0, 56, 0
2, 241183, Note_on_c, 0, 87, 63
2, 241192, Note_on_c, 0, 80, 0
2, 241202, Note_on_c, 0, 51, 58
2, 241310, Note_on_c, 0, 51, 0
2, 241320, Note_on_c, 0, 56, 58
2, 241430, Note_on_c, 0, 56, 0
2, 241440, Note_on_c, 0, 44, 58
2, 241550, Note_on_c, 0, 44, 0
2, 241560, Note_on_c, 0, 56, 58
2, 241670, Note_on_c, 0, 56, 0
2, 241680, Note_on_c, 0, 51, 58
2, 241790, Note_on_c, 0, 51, 0
2, 241800, Note_on_c, 0, 56, 58
2, 241910, Note_on_c, 0, 56, 0
2, 241910, Note_on_c, 0, 87, 0
2, 241920, Note_on_c, 0, 73, 63
2, 241920, Note_on_c, 0, 44, 58
2, 242020, Note_on_c, 0, 79, 63
2, 242030, Note_on_c, 0, 44, 0
2, 242030, Note_on_c, 0, 73, 0
2, 242040, Note_on_c, 0, 58, 58
2, 242130, Note_on_c, 0, 58, 0
2, 242140, Note_on_c, 0, 87, 63
2, 242150, Note_on_c, 0, 79, 0
2, 242160, Note_on_c, 0, 51, 58
2, 242273, Note_on_c, 0, 51, 0
2, 242283, Note_on_c, 0, 58, 58
2, 242393, Note_on_c, 0, 58, 0
2, 242403, Note_on_c, 0, 44, 58
2, 242512, Note_on_c, 0, 44, 0
2, 242522, Note_on_c, 0, 58, 58
2, 242630, Note_on_c, 0, 58, 0
2, 242640, Note_on_c, 0, 51, 58
2, 242750, Note_on_c, 0, 51, 0
2, 242760, Note_on_c, 0, 58, 58
2, 242870, Note_on_c, 0, 58, 0
2, 242870, Note_on_c, 0, 87, 0
2, 242880, Note_on_c, 0, 59, 63
2, 242882, Note_on_c, 0, 44, 58
2, 242990, Note_on_c, 0, 44, 0
2, 242990, Note_on_c, 0, 59, 0
2, 243000, Note_on_c, 0, 68, 63
2, 243000, Note_on_c, 0, 56, 58
2, 243110, Note_on_c, 0, 56, 0
2, 243110, Note_on_c, 0, 68, 0
2, 243120, Note_on_c, 0, 63, 63
2, 243120, Note_on_c, 0, 51, 58
2, 243230, Note_on_c, 0, 51, 0
2, 243230, Note_on_c, 0, 63, 0
2, 243240, Note_on_c, 0, 68, 63
2, 243240, Note_on_c, 0, 56, 58
2, 243350, Note_on_c, 0, 56, 0
2, 243350, Note_on_c, 0, 68, 0
2, 243360, Note_on_c, 0, 59, 63
2, 243360, Note_on_c, 0, 44, 58
2, 243473, Note_on_c, 0, 44, 0
2, 243473, Note_on_c, 0, 59, 0
2, 243483, Note_on_c, 0, 68, 63
2, 243483, Note_on_c, 0, 56, 58
2, 243593, Note_on_c, 0, 56, 0
2, 243593, Note_on_c, 0, 68, 0
2, 243603, Note_on_c, 0, 63, 63
2, 243603, Note_on_c, 0, 51, 58
2, 243713, Note_on_c, 0, 51, 0
2, 243713, Note_on_c, 0, 63, 0
2, 243723, Note_on_c, 0, 68, 63
2, 243723, Note_on_c, 0, 56, 58
2, 243830, Note_on_c, 0, 56, 0
2, 243830, Note_on_c, 0, 68, 0
2, 243840, Note_on_c, 0, 59, 58
2, 243843, Note_on_c, 0, 44, 58
2, 243950, Note_on_c, 0, 44, 0
2, 243950, Note_on_c, 0, 59, 0
2, 243960, Note_on_c, 0, 68, 58
2, 243962, Note_on_c, 0, 56, 58
2, 244070, Note_on_c, 0, 56, 0
2, 244070, Note_on_c, 0, 68, 0
2, 244080, Note_on_c, 0, 63, 58
2, 244082, Note_on_c, 0, 51, 58
2, 244190, Note_on_c, 0, 51, 0
2, 244190, Note_on_c, 0, 63, 0
2, 244200, Note_on_c, 0, 68, 58
2, 244202, Note_on_c, 0, 56, 58
2, 244310, Note_on_c, 0, 56, 0
2, 244310, Note_on_c, 0, 68, 0
2, 244320, Note_on_c, 0, 59, 58
2, 244320, Note_on_c, 0, 44, 58
2, 244430, Note_on_c, 0, 44, 0
2, 244430, Note_on_c, 0, 59, 0
2, 244440, Note_on_c, 0, 68, 58
2, 244440, Note_on_c, 0, 56, 58
2, 244550, Note_on_c, 0, 56, 0
2, 244550, Note_on_c, 0, 68, 0
2, 244560, Note_on_c, 0, 63, 58
2, 244560, Note_on_c, 0, 51, 58
2, 244670, Note_on_c, 0, 51, 0
2, 244670, Note_on_c, 0, 63, 0
2, 244680, Note_on_c, 0, 68, 58
2, 244680, Note_on_c, 0, 56, 58
2, 244793, Note_on_c, 0, 56, 0
2, 244793, Note_on_c, 0, 68, 0
2, 244803, Note_on_c, 0, 60, 61
2, 244803, Note_on_c, 0, 44, 61
2, 244913, Note_on_c, 0, 44, 0
2, 244913, Note_on_c, 0, 60, 0
2, 244923, Note_on_c, 0, 66, 61
2, 244923, Note_on_c, 0, 54, 61
2, 245033, Note_on_c, 0, 54, 0
2, 245033, Note_on_c, 0, 66, 0
2, 245043, Note_on_c, 0, 63, 61
2, 245043, Note_on_c, 0, 51, 61
2, 245150, Note_on_c, 0, 51, 0
2, 245150, Note_on_c, 0, 63, 0
2, 245160, Note_on_c, 0, 66, 61
2, 245163, Note_on_c, 0, 54, 61
2, 245270, Note_on_c, 0, 54, 0
2, 245270, Note_on_c, 0, 66, 0
2, 245280, Note_on_c, 0, 60, 61
2, 245282, Note_on_c, 0, 44, 61
2, 245390, Note_on_c, 0, 44, 0
2, 245390, Note_on_c, 0, 60, 0
2, 245400, Note_on_c, 0, 66, 61
2, 245402, Note_on_c, 0, 54, 61
2, 245510, Note_on_c, 0, 54, 0
2, 245510, Note_on_c, 0, 66, 0
2, 245520, Note_on_c, 0, 63, 61
2, 245522, Note_on_c, 0, 51, 61
2, 245630, Note_on_c, 0, 51, 0
2, 245630, Note_on_c, 0, 63, 0
2, 245640, Note_on_c, 0, 66, 61
2, 245640, Note_on_c, 0, 54, 61
2, 245750, Note_on_c, 0, 54, 0
2, 245750, Note_on_c, 0, 66, 0
2, 245760, Note_on_c, 0, 60, 64
2, 245760, Note_on_c, 0, 44, 64
2, 245870, Note_on_c, 0, 44, 0
2, 245870, Note_on_c, 0, 60, 0
2, 245880, Note_on_c, 0, 66, 64
2, 245880, Note_on_c, 0, 54, 64
2, 245990, Note_on_c, 0, 54, 0
2, 245990, Note_on_c, 0, 66, 0
2, 246000, Note_on_c, 0, 63, 64
2, 246000, Note_on_c, 0, 51, 64
2, 246113, Note_on_c, 0, 51, 0
2, 246113, Note_on_c, 0, 63, 0
2, 246123, Note_on_c, 0, 66, 64
2, 246123, Note_on_c, 0, 54, 64
2, 246233, Note_on_c, 0, 54, 0
2, 246233, Note_on_c, 0, 66, 0
2, 246243, Note_on_c, 0, 60, 64
2, 246243, Note_on_c, 0, 44, 64
2, 246353, Note_on_c, 0, 44, 0
2, 246353, Note_on_c, 0, 60, 0
2, 246363, Note_on_c, 0, 66, 64
2, 246363, Note_on_c, 0, 54, 64
2, 246470, Note_on_c, 0, 54, 0
2, 246470, Note_on_c, 0, 66, 0
2, 246480, Note_on_c, 0, 63, 64
2, 246483, Note_on_c, 0, 51, 64
2, 246590, Note_on_c, 0, 51, 0
2, 246590, Note_on_c, 0, 63, 0
2, 246600, Note_on_c, 0, 66, 64
2, 246602, Note_on_c, 0, 54, 64
2, 246696, Note_on_c, 0, 66, 0
2, 246700, Note_on_c, 0, 54, 0
2, 246706, Note_on_c, 0, 61, 71
2, 246710, Note_on_c, 0, 56, 71
2, 246710, Note_on_c, 0, 53, 71
2, 246720, Note_on_c, 0, 65, 71
2, 246722, Note_on_c, 0, 37, 71
2, 246830, Note_on_c, 0, 65, 0
2, 246830, Note_on_c, 0, 53, 0
2, 246830, Note_on_c, 0, 61, 0
2, 246830, Note_on_c, 0, 56, 0
2, 246840, Note_on_c, 0, 49, 58
2, 246933, Note_on_c, 0, 49, 0
2, 246933, Note_on_c, 0, 37, 0
2, 246943, Note_on_c, 0, 44, 58
2, 246960, Note_on_c, 0, 53, 58
2, 247070, Note_on_c, 0, 53, 0
2, 247080, Note_on_c, 0, 56, 58
2, 247172, Note_on_c, 0, 56, 0
2, 247172, Note_on_c, 0, 44, 0
2, 247182, Note_on_c, 0, 37, 58
2, 247200, Note_on_c, 0, 61, 58
2, 247310, Note_on_c, 0, 61, 0
2, 247320, Note_on_c, 0, 53, 58
2, 247412, Note_on_c, 0, 53, 0
2, 247412, Note_on_c, 0, 37, 0
2, 247422, Note_on_c, 0, 44, 58
2, 247440, Note_on_c, 0, 56, 58
2, 247553, Note_on_c, 0, 56, 0
2, 247563, Note_on_c, 0, 61, 58
2, 247650, Note_on_c, 0, 61, 0
2, 247650, Note_on_c, 0, 44, 0
2, 247660, Note_on_c, 0, 37, 58
2, 247683, Note_on_c, 0, 65, 58
2, 247793, Note_on_c, 0, 65, 0
2, 247803, Note_on_c, 0, 56, 58
2, 247890, Note_on_c, 0, 56, 0
2, 247890, Note_on_c, 0, 37, 0
2, 247900, Note_on_c, 0, 44, 58
2, 247920, Note_on_c, 0, 61, 58
2, 248030, Note_on_c, 0, 61, 0
2, 248040, Note_on_c, 0, 65, 58
2, 248133, Note_on_c, 0, 65, 0
2, 248133, Note_on_c, 0, 44, 0
2, 248143, Note_on_c, 0, 37, 58
2, 248160, Note_on_c, 0, 68, 58
2, 248270, Note_on_c, 0, 68, 0
2, 248280, Note_on_c, 0, 61, 58
2, 248373, Note_on_c, 0, 61, 0
2, 248373, Note_on_c, 0, 37, 0
2, 248383, Note_on_c, 0, 44, 58
2, 248400, Note_on_c, 0, 65, 58
2, 248510, Note_on_c, 0, 65, 0
2, 248520, Note_on_c, 0, 68, 58
2, 248612, Note_on_c, 0, 68, 0
2, 248612, Note_on_c, 0, 44, 0
2, 248622, Note_on_c, 0, 37, 58
2, 248640, Note_on_c, 0, 73, 58
2, 248750, Note_on_c, 0, 73, 0
2, 248760, Note_on_c, 0, 65, 58
2, 248852, Note_on_c, 0, 65, 0
2, 248852, Note_on_c, 0, 37, 0
2, 248862, Note_on_c, 0, 44, 58
2, 248883, Note_on_c, 0, 68, 58
2, 248993, Note_on_c, 0, 68, 0
2, 249003, Note_on_c, 0, 73, 58
2, 249090, Note_on_c, 0, 73, 0
2, 249090, Note_on_c, 0, 44, 0
2, 249100, Note_on_c, 0, 37, 58
2, 249123, Note_on_c, 0, 77, 58
2, 249230, Note_on_c, 0, 77, 0
2, 249240, Note_on_c, 0, 68, 58
2, 249333, Note_on_c, 0, 68, 0
2, 249333, Note_on_c, 0, 37, 0
2, 249343, Note_on_c, 0, 44, 58
2, 249360, Note_on_c, 0, 73, 58
2, 249470, Note_on_c, 0, 73, 0
2, 249480, Note_on_c, 0, 77, 58
2, 249573, Note_on_c, 0, 77, 0
2, 249573, Note_on_c, 0, 44, 0
2, 249583, Note_on_c, 0, 37, 58
2, 249600, Note_on_c, 0, 80, 58
2, 249710, Note_on_c, 0, 80, 0
2, 249720, Note_on_c, 0, 73, 58
2, 249812, Note_on_c, 0, 73, 0
2, 249812, Note_on_c, 0, 37, 0
2, 249822, Note_on_c, 0, 44, 58
2, 249840, Note_on_c, 0, 77, 58
2, 249950, Note_on_c, 0, 77, 0
2, 249960, Note_on_c, 0, 80, 58
2, 250052, Note_on_c, 0, 80, 0
2, 250052, Note_on_c, 0, 44, 0
2, 250062, Note_on_c, 0, 80, 58
2, 250062, Note_on_c, 0, 77, 75
2, 250062, Note_on_c, 0, 37, 58
2, 250063, Control_c, 0, 64, 127
2, 250065, Note_on_c, 0, 73, 58
2, 250065, Note_on_c, 0, 49, 58
2, 250080, Note_on_c, 0, 85, 75
2, 250290, Note_on_c, 0, 85, 0
2, 250290, Note_on_c, 0, 77, 0
2, 250290, Note_on_c, 0, 37, 0
2, 250290, Note_on_c, 0, 80, 0
2, 250290, Note_on_c, 0, 49, 0
2, 250290, Note_on_c, 0, 73, 0
2, 250300, Note_on_c, 0, 85, 75
2, 250300, Note_on_c, 0, 80, 58
2, 250302, Note_on_c, 0, 77, 75
2, 250302, Note_on_c, 0, 44, 58
2, 250305, Note_on_c, 0, 73, 58
2, 250530, Note_on_c, 0, 73, 0
2, 250530, Note_on_c, 0, 77, 0
2, 250530, Note_on_c, 0, 85, 0
2, 250530, Note_on_c, 0, 80, 0
2, 250530, Note_on_c, 0, 44, 0
2, 250539, Control_c, 0, 64, 0
2, 250540, Note_on_c, 0, 35, 58
2, 250663, Note_on_c, 0, 49, 58
2, 250773, Note_on_c, 0, 49, 0
2, 250773, Note_on_c, 0, 35, 0
2, 250783, Note_on_c, 0, 44, 58
2, 250800, Note_on_c, 0, 53, 58
2, 250910, Note_on_c, 0, 53, 0
2, 250920, Note_on_c, 0, 56, 58
2, 251013, Note_on_c, 0, 56, 0
2, 251013, Note_on_c, 0, 44, 0
2, 251023, Note_on_c, 0, 35, 58
2, 251040, Note_on_c, 0, 61, 58
2, 251150, Note_on_c, 0, 61, 0
2, 251160, Note_on_c, 0, 53, 58
2, 251252, Note_on_c, 0, 53, 0
2, 251252, Note_on_c, 0, 35, 0
2, 251262, Note_on_c, 0, 44, 58
2, 251280, Note_on_c, 0, 56, 58
2, 251390, Note_on_c, 0, 56, 0
2, 251400, Note_on_c, 0, 61, 58
2, 251492, Note_on_c, 0, 61, 0
2, 251492, Note_on_c, 0, 44, 0
2, 251502, Note_on_c, 0, 35, 58
2, 251520, Note_on_c, 0, 65, 58
2, 251633, Note_on_c, 0, 65, 0
2, 251643, Note_on_c, 0, 56, 58
2, 251730, Note_on_c, 0, 56, 0
2, 251730, Note_on_c, 0, 35, 0
2, 251740, Note_on_c, 0, 44, 58
2, 251763, Note_on_c, 0, 61, 58
2, 251873, Note_on_c, 0, 61, 0
2, 251883, Note_on_c, 0, 65, 58
2, 251970, Note_on_c, 0, 65, 0
2, 251970, Note_on_c, 0, 44, 0
2, 251980, Note_on_c, 0, 35, 58
2, 252000, Note_on_c, 0, 68, 58
2, 252110, Note_on_c, 0, 68, 0
2, 252120, Note_on_c, 0, 61, 58
2, 252213, Note_on_c, 0, 61, 0
2, 252213, Note_on_c, 0, 35, 0
2, 252223, Note_on_c, 0, 44, 58
2, 252240, Note_on_c, 0, 65, 58
2, 252350, Note_on_c, 0, 65, 0
2, 252360, Note_on_c, 0, 68, 58
2, 252453, Note_on_c, 0, 68, 0
2, 252453, Note_on_c, 0, 44, 0
2, 252463, Note_on_c, 0, 35, 58
2, 252480, Note_on_c, 0, 73, 58
2, 252590, Note_on_c, 0, 73, 0
2, 252600, Note_on_c, 0, 65, 58
2, 252692, Note_on_c, 0, 65, 0
2, 252692, Note_on_c, 0, 35, 0
2, 252702, Note_on_c, 0, 44, 58
2, 252720, Note_on_c, 0, 68, 58
2, 252830, Note_on_c, 0, 68, 0
2, 252840, Note_on_c, 0, 73, 58
2, 252932, Note_on_c, 0, 73, 0
2, 252932, Note_on_c, 0, 44, 0
2, 252942, Note_on_c, 0, 35, 58
2, 252963, Note_on_c, 0, 77, 58
2, 253073, Note_on_c, 0, 77, 0
2, 253083, Note_on_c, 0, 68, 58
2, 253170, Note_on_c, 0, 68, 0
2, 253170, Note_on_c, 0, 35, 0
2, 253180, Note_on_c, 0, 44, 58
2, 253203, Note_on_c, 0, 73, 58
2, 253310, Note_on_c, 0, 73, 0
2, 253320, Note_on_c, 0, 77, 58
2, 253413, Note_on_c, 0, 77, 0
2, 253413, Note_on_c, 0, 44, 0
2, 253423, Note_on_c, 0, 35, 58
2, 253440, Note_on_c, 0, 80, 58
2, 253550, Note_on_c, 0, 80, 0
2, 253560, Note_on_c, 0, 73, 58
2, 253653, Note_on_c, 0, 73, 0
2, 253653, Note_on_c, 0, 35, 0
2, 253663, Note_on_c, 0, 44, 58
2, 253680, Note_on_c, 0, 77, 58
2, 253790, Note_on_c, 0, 77, 0
2, 253800, Note_on_c, 0, 80, 58
2, 253893, Note_on_c, 0, 80, 0
2, 253893, Note_on_c, 0, 44, 0
2, 253903, Control_c, 0, 64, 127
2, 253903, Note_on_c, 0, 80, 75
2, 253903, Note_on_c, 0, 77, 75
2, 253906, Note_on_c, 0, 35, 58
2, 253906, Note_on_c, 0, 73, 75
2, 253906, Note_on_c, 0, 47, 75
2, 253920, Note_on_c, 0, 85, 75
2, 254130, Note_on_c, 0, 85, 0
2, 254130, Note_on_c, 0, 77, 0
2, 254130, Note_on_c, 0, 35, 0
2, 254130, Note_on_c, 0, 80, 0
2, 254130, Note_on_c, 0, 47, 0
2, 254130, Note_on_c, 0, 73, 0
2, 254140, Note_on_c, 0, 85, 75
2, 254142, Note_on_c, 0, 80, 75
2, 254142, Note_on_c, 0, 77, 75
2, 254142, Note_on_c, 0, 44, 58
2, 254145, Note_on_c, 0, 73, 75
2, 254370, Note_on_c, 0, 73, 0
2, 254370, Note_on_c, 0, 77, 0
2, 254370, Note_on_c, 0, 85, 0
2, 254370, Note_on_c, 0, 80, 0
2, 254370, Note_on_c, 0, 44, 0
2, 254379, Control_c, 0, 64, 0
2, 254380, Note_on_c, 0, 33, 58
2, 254500, Note_on_c, 0, 49, 58
2, 254610, Note_on_c, 0, 33, 0
2, 254620, Note_on_c, 0, 54, 58
2, 254620, Note_on_c, 0, 45, 58
2, 254733, Note_on_c, 0, 49, 0
2, 254743, Note_on_c, 0, 57, 58
2, 254853, Note_on_c, 0, 57, 0
2, 254853, Note_on_c, 0, 45, 0
2, 254853, Note_on_c, 0, 54, 0
2, 254863, Note_on_c, 0, 33, 58
2, 254880, Note_on_c, 0, 61, 58
2, 254973, Note_on_c, 0, 61, 0
2, 254983, Note_on_c, 0, 61, 58
2, 255093, Note_on_c, 0, 33, 0
2, 255103, Note_on_c, 0, 66, 58
2, 255103, Note_on_c, 0, 45, 58
2, 255210, Note_on_c, 0, 61, 0
2, 255220, Note_on_c, 0, 69, 58
2, 255333, Note_on_c, 0, 69, 0
2, 255333, Note_on_c, 0, 45, 0
2, 255333, Note_on_c, 0, 66, 0
2, 255343, Note_on_c, 0, 33, 58
2, 255360, Note_on_c, 0, 73, 58
2, 255450, Note_on_c, 0, 73, 0
2, 255460, Note_on_c, 0, 73, 58
2, 255570, Note_on_c, 0, 33, 0
2, 255580, Note_on_c, 0, 78, 58
2, 255582, Note_on_c, 0, 45, 58
2, 255690, Note_on_c, 0, 73, 0
2, 255700, Note_on_c, 0, 81, 58
2, 255810, Note_on_c, 0, 81, 0
2, 255810, Note_on_c, 0, 45, 0
2, 255810, Note_on_c, 0, 78, 0
2, 255820, Note_on_c, 0, 81, 75
2, 255822, Note_on_c, 0, 78, 75
2, 255822, Note_on_c, 0, 33, 58
2, 255823, Control_c, 0, 64, 127
2, 255825, Note_on_c, 0, 73, 75
2, 255843, Note_on_c, 0, 85, 75
2, 256050, Note_on_c, 0, 85, 0
2, 256050, Note_on_c, 0, 33, 0
2, 256050, Note_on_c, 0, 81, 0
2, 256050, Note_on_c, 0, 78, 0
2, 256050, Note_on_c, 0, 73, 0
2, 256060, Note_on_c, 0, 85, 75
2, 256060, Note_on_c, 0, 81, 75
2, 256062, Note_on_c, 0, 78, 75
2, 256062, Note_on_c, 0, 45, 58
2, 256062, Note_on_c, 0, 73, 75
2, 256293, Note_on_c, 0, 73, 0
2, 256293, Note_on_c, 0, 78, 0
2, 256293, Note_on_c, 0, 85, 0
2, 256293, Note_on_c, 0, 81, 0
2, 256293, Note_on_c, 0, 45, 0
2, 256299, Control_c, 0, 64, 0
2, 256303, Note_on_c, 0, 29, 58
2, 256423, Note_on_c, 0, 49, 58
2, 256533, Note_on_c, 0, 49, 0
2, 256533, Note_on_c, 0, 29, 0
2, 256543, Note_on_c, 0, 41, 58
2, 256560, Note_on_c, 0, 56, 58
2, 256670, Note_on_c, 0, 56, 0
2, 256680, Note_on_c, 0, 59, 58
2, 256772, Note_on_c, 0, 59, 0
2, 256772, Note_on_c, 0, 41, 0
2, 256782, Note_on_c, 0, 29, 58
2, 256800, Note_on_c, 0, 61, 58
2, 256890, Note_on_c, 0, 61, 0
2, 256900, Note_on_c, 0, 61, 58
2, 257012, Note_on_c, 0, 61, 0
2, 257012, Note_on_c, 0, 29, 0
2, 257022, Note_on_c, 0, 41, 58
2, 257043, Note_on_c, 0, 68, 58
2, 257153, Note_on_c, 0, 68, 0
2, 257163, Note_on_c, 0, 71, 58
2, 257250, Note_on_c, 0, 71, 0
2, 257250, Note_on_c, 0, 41, 0
2, 257260, Note_on_c, 0, 29, 58
2, 257283, Note_on_c, 0, 73, 58
2, 257370, Note_on_c, 0, 73, 0
2, 257380, Note_on_c, 0, 73, 58
2, 257493, Note_on_c, 0, 73, 0
2, 257493, Note_on_c, 0, 29, 0
2, 257503, Note_on_c, 0, 41, 58
2, 257520, Note_on_c, 0, 80, 58
2, 257630, Note_on_c, 0, 80, 0
2, 257640, Note_on_c, 0, 83, 58
2, 257733, Note_on_c, 0, 83, 0
2, 257733, Note_on_c, 0, 41, 0
2, 257743, Control_c, 0, 64, 127
2, 257743, Note_on_c, 0, 83, 75
2, 257743, Note_on_c, 0, 80, 75
2, 257746, Note_on_c, 0, 29, 58
2, 257746, Note_on_c, 0, 73, 75
2, 257760, Note_on_c, 0, 85, 75
2, 257970, Note_on_c, 0, 85, 0
2, 257970, Note_on_c, 0, 29, 0
2, 257970, Note_on_c, 0, 83, 0
2, 257970, Note_on_c, 0, 80, 0
2, 257970, Note_on_c, 0, 73, 0
2, 257980, Note_on_c, 0, 85, 75
2, 257982, Note_on_c, 0, 83, 75
2, 257982, Note_on_c, 0, 80, 75
2, 257985, Note_on_c, 0, 41, 58
2, 257985, Note_on_c, 0, 73, 75
2, 258210, Note_on_c, 0, 73, 0
2, 258210, Note_on_c, 0, 80, 0
2, 258210, Note_on_c, 0, 85, 0
2, 258210, Note_on_c, 0, 83, 0
2, 258210, Note_on_c, 0, 41, 0
2, 258219, Control_c, 0, 64, 0
2, 258220, Note_on_c, 0, 85, 75
2, 258222, Note_on_c, 0, 81, 75
2, 258222, Note_on_c, 0, 78, 75
2, 258222, Note_on_c, 0, 42, 58
2, 258225, Note_on_c, 0, 73, 75
2, 258225, Note_on_c, 0, 30, 75
2, 258353, Note_on_c, 0, 30, 0
2, 258353, Note_on_c, 0, 42, 0
2, 258363, Note_on_c, 0, 61, 58
2, 258473, Note_on_c, 0, 61, 0
2, 258483, Note_on_c, 0, 57, 58
2, 258593, Note_on_c, 0, 57, 0
2, 258593, Note_on_c, 0, 78, 0
2, 258593, Note_on_c, 0, 85, 0
2, 258593, Note_on_c, 0, 81, 0
2, 258593, Note_on_c, 0, 73, 0
2, 258603, Note_on_c, 0, 61, 58
2, 258690, Note_on_c, 0, 61, 0
2, 258700, Note_on_c, 0, 73, 65
2, 258723, Note_on_c, 0, 54, 58
2, 258830, Note_on_c, 0, 54, 0
2, 258840, Note_on_c, 0, 61, 58
2, 258950, Note_on_c, 0, 61, 0
2, 258960, Note_on_c, 0, 57, 58
2, 259070, Note_on_c, 0, 57, 0
2, 259080, Note_on_c, 0, 61, 58
2, 259190, Note_on_c, 0, 61, 0
2, 259200, Note_on_c, 0, 54, 58
2, 259310, Note_on_c, 0, 54, 0
2, 259320, Note_on_c, 0, 61, 58
2, 259430, Note_on_c, 0, 61, 0
2, 259440, Note_on_c, 0, 57, 58
2, 259550, Note_on_c, 0, 57, 0
2, 259560, Note_on_c, 0, 61, 58
2, 259660, Note_on_c, 0, 69, 63
2, 259670, Note_on_c, 0, 61, 0
2, 259670, Note_on_c, 0, 73, 0
2, 259680, Note_on_c, 0, 54, 58
2, 259793, Note_on_c, 0, 54, 0
2, 259803, Note_on_c, 0, 61, 58
2, 259913, Note_on_c, 0, 61, 0
2, 259923, Note_on_c, 0, 57, 58
2, 260010, Note_on_c, 0, 57, 0
2, 260020, Note_on_c, 0, 66, 63
2, 260030, Note_on_c, 0, 69, 0
2, 260040, Note_on_c, 0, 61, 58
2, 260150, Note_on_c, 0, 61, 0
2, 260150, Note_on_c, 0, 66, 0
2, 260160, Note_on_c, 0, 65, 58
2, 260162, Note_on_c, 0, 56, 58
2, 260220, Note_on_c, 0, 66, 58
2, 260270, Note_on_c, 0, 56, 0
2, 260270, Note_on_c, 0, 65, 0
2, 260280, Note_on_c, 0, 61, 58
2, 260300, Note_on_c, 0, 68, 58
2, 260373, Note_on_c, 0, 61, 0
2, 260373, Note_on_c, 0, 66, 0
2, 260383, Note_on_c, 0, 66, 58
2, 260392, Note_on_c, 0, 68, 0
2, 260402, Note_on_c, 0, 59, 58
2, 260510, Note_on_c, 0, 59, 0
2, 260520, Note_on_c, 0, 61, 58
2, 260620, Note_on_c, 0, 65, 58
2, 260630, Note_on_c, 0, 61, 0
2, 260630, Note_on_c, 0, 66, 0
2, 260640, Note_on_c, 0, 56, 58
2, 260750, Note_on_c, 0, 56, 0
2, 260760, Note_on_c, 0, 61, 58
2, 260870, Note_on_c, 0, 61, 0
2, 260880, Note_on_c, 0, 59, 58
2, 260990, Note_on_c, 0, 59, 0
2, 261000, Note_on_c, 0, 61, 58
2, 261113, Note_on_c, 0, 61, 0
2, 261123, Note_on_c, 0, 56, 58
2, 261233, Note_on_c, 0, 56, 0
2, 261243, Note_on_c, 0, 61, 58
2, 261353, Note_on_c, 0, 61, 0
2, 261353, Note_on_c, 0, 65, 0
2, 261363, Note_on_c, 0, 65, 58
2, 261363, Note_on_c, 0, 59, 58
2, 261473, Note_on_c, 0, 59, 0
2, 261483, Note_on_c, 0, 61, 58
2, 261573, Note_on_c, 0, 61, 0
2, 261583, Note_on_c, 0, 73, 58
2, 261592, Note_on_c, 0, 65, 0
2, 261602, Note_on_c, 0, 56, 58
2, 261710, Note_on_c, 0, 56, 0
2, 261720, Note_on_c, 0, 61, 58
2, 261830, Note_on_c, 0, 61, 0
2, 261840, Note_on_c, 0, 59, 58
2, 261933, Note_on_c, 0, 59, 0
2, 261943, Note_on_c, 0, 65, 58
2, 261950, Note_on_c, 0, 73, 0
2, 261960, Note_on_c, 0, 61, 58
2, 262070, Note_on_c, 0, 61, 0
2, 262070, Note_on_c, 0, 65, 0
2, 262080, Note_on_c, 0, 68, 58
2, 262080, Note_on_c, 0, 57, 58
2, 262190, Note_on_c, 0, 57, 0
2, 262200, Note_on_c, 0, 61, 58
2, 262310, Note_on_c, 0, 61, 0
2, 262320, Note_on_c, 0, 57, 58
2, 262433, Note_on_c, 0, 57, 0
2, 262443, Note_on_c, 0, 61, 58
2, 262530, Note_on_c, 0, 61, 0
2, 262540, Note_on_c, 0, 66, 58
2, 262550, Note_on_c, 0, 68, 0
2, 262560, Note_on_c, 0, 57, 58
2, 262673, Note_on_c, 0, 57, 0
2, 262683, Note_on_c, 0, 61, 58
2, 262793, Note_on_c, 0, 61, 0
2, 262803, Note_on_c, 0, 57, 58
2, 262910, Note_on_c, 0, 57, 0
2, 262920, Note_on_c, 0, 61, 58
2, 263030, Note_on_c, 0, 61, 0
2, 263040, Note_on_c, 0, 57, 58
2, 263150, Note_on_c, 0, 57, 0
2, 263160, Note_on_c, 0, 61, 58
2, 263270, Note_on_c, 0, 61, 0
2, 263270, Note_on_c, 0, 66, 0
2, 263280, Note_on_c, 0, 66, 58
2, 263280, Note_on_c, 0, 57, 58
2, 263390, Note_on_c, 0, 57, 0
2, 263400, Note_on_c, 0, 61, 58
2, 263500, Note_on_c, 0, 73, 58
2, 263510, Note_on_c, 0, 61, 0
2, 263510, Note_on_c, 0, 66, 0
2, 263520, Note_on_c, 0, 57, 58
2, 263630, Note_on_c, 0, 57, 0
2, 263640, Note_on_c, 0, 61, 58
2, 263750, Note_on_c, 0, 61, 0
2, 263760, Note_on_c, 0, 57, 58
2, 263850, Note_on_c, 0, 57, 0
2, 263860, Note_on_c, 0, 66, 58
2, 263870, Note_on_c, 0, 73, 0
2, 263880, Note_on_c, 0, 61, 58
2, 263993, Note_on_c, 0, 61, 0
2, 263993, Note_on_c, 0, 66, 0
2, 264003, Note_on_c, 0, 69, 58
2, 264003, Note_on_c, 0, 53, 58
2, 264113, Note_on_c, 0, 53, 0
2, 264123, Note_on_c, 0, 61, 58
2, 264230, Note_on_c, 0, 61, 0
2, 264240, Note_on_c, 0, 53, 58
2, 264350, Note_on_c, 0, 53, 0
2, 264360, Note_on_c, 0, 61, 58
2, 264453, Note_on_c, 0, 61, 0
2, 264463, Note_on_c, 0, 68, 58
2, 264472, Note_on_c, 0, 69, 0
2, 264482, Note_on_c, 0, 53, 58
2, 264590, Note_on_c, 0, 53, 0
2, 264600, Note_on_c, 0, 61, 58
2, 264710, Note_on_c, 0, 61, 0
2, 264720, Note_on_c, 0, 53, 58
2, 264830, Note_on_c, 0, 53, 0
2, 264840, Note_on_c, 0, 61, 58
2, 264950, Note_on_c, 0, 61, 0
2, 264960, Note_on_c, 0, 53, 58
2, 265070, Note_on_c, 0, 53, 0
2, 265080, Note_on_c, 0, 61, 58
2, 265193, Note_on_c, 0, 61, 0
2, 265193, Note_on_c, 0, 68, 0
2, 265203, Note_on_c, 0, 68, 58
2, 265203, Note_on_c, 0, 53, 58
2, 265313, Note_on_c, 0, 53, 0
2, 265323, Note_on_c, 0, 61, 58
2, 265410, Note_on_c, 0, 61, 0
2, 265420, Note_on_c, 0, 73, 58
2, 265430, Note_on_c, 0, 68, 0
2, 265440, Note_on_c, 0, 53, 58
2, 265553, Note_on_c, 0, 53, 0
2, 265563, Note_on_c, 0, 61, 58
2, 265670, Note_on_c, 0, 61, 0
2, 265680, Note_on_c, 0, 53, 58
2, 265773, Note_on_c, 0, 53, 0
2, 265783, Note_on_c, 0, 68, 58
2, 265792, Note_on_c, 0, 73, 0
2, 265802, Note_on_c, 0, 61, 58
2, 265910, Note_on_c, 0, 61, 0
2, 265910, Note_on_c, 0, 68, 0
2, 265920, Note_on_c, 0, 69, 58
2, 265922, Note_on_c, 0, 54, 63
2, 266030, Note_on_c, 0, 69, 0
2, 266040, Note_on_c, 0, 73, 58
2, 266150, Note_on_c, 0, 73, 0
2, 266160, Note_on_c, 0, 69, 58
2, 266270, Note_on_c, 0, 69, 0
2, 266270, Note_on_c, 0, 54, 0
2, 266280, Note_on_c, 0, 73, 58
2, 266372, Note_on_c, 0, 73, 0
2, 266382, Note_on_c, 0, 61, 63
2, 266400, Note_on_c, 0, 66, 58
2, 266513, Note_on_c, 0, 66, 0
2, 266523, Note_on_c, 0, 73, 58
2, 266633, Note_on_c, 0, 73, 0
2, 266643, Note_on_c, 0, 69, 58
2, 266753, Note_on_c, 0, 69, 0
2, 266763, Note_on_c, 0, 73, 58
2, 266870, Note_on_c, 0, 73, 0
2, 266880, Note_on_c, 0, 66, 58
2, 266990, Note_on_c, 0, 66, 0
2, 267000, Note_on_c, 0, 73, 58
2, 267110, Note_on_c, 0, 73, 0
2, 267120, Note_on_c, 0, 69, 58
2, 267230, Note_on_c, 0, 69, 0
2, 267240, Note_on_c, 0, 73, 58
2, 267333, Note_on_c, 0, 73, 0
2, 267343, Note_on_c, 0, 57, 63
2, 267350, Note_on_c, 0, 61, 0
2, 267360, Note_on_c, 0, 66, 58
2, 267470, Note_on_c, 0, 66, 0
2, 267480, Note_on_c, 0, 73, 58
2, 267590, Note_on_c, 0, 73, 0
2, 267600, Note_on_c, 0, 69, 58
2, 267692, Note_on_c, 0, 69, 0
2, 267702, Note_on_c, 0, 54, 63
2, 267710, Note_on_c, 0, 57, 0
2, 267720, Note_on_c, 0, 73, 58
2, 267830, Note_on_c, 0, 73, 0
2, 267830, Note_on_c, 0, 54, 0
2, 267840, Note_on_c, 0, 68, 58
2, 267840, Note_on_c, 0, 54, 63
2, 267953, Note_on_c, 0, 68, 0
2, 267963, Note_on_c, 0, 73, 58
2, 268073, Note_on_c, 0, 73, 0
2, 268083, Note_on_c, 0, 71, 58
2, 268190, Note_on_c, 0, 71, 0
2, 268200, Note_on_c, 0, 73, 58
2, 268293, Note_on_c, 0, 73, 0
2, 268303, Note_on_c, 0, 53, 63
2, 268312, Note_on_c, 0, 54, 0
2, 268322, Note_on_c, 0, 68, 58
2, 268430, Note_on_c, 0, 68, 0
2, 268440, Note_on_c, 0, 73, 58
2, 268550, Note_on_c, 0, 73, 0
2, 268560, Note_on_c, 0, 71, 58
2, 268670, Note_on_c, 0, 71, 0
2, 268680, Note_on_c, 0, 73, 58
2, 268790, Note_on_c, 0, 73, 0
2, 268800, Note_on_c, 0, 68, 58
2, 268910, Note_on_c, 0, 68, 0
2, 268920, Note_on_c, 0, 73, 58
2, 269030, Note_on_c, 0, 73, 0
2, 269030, Note_on_c, 0, 53, 0
2, 269040, Note_on_c, 0, 71, 58
2, 269040, Note_on_c, 0, 53, 63
2, 269150, Note_on_c, 0, 71, 0
2, 269160, Note_on_c, 0, 73, 58
2, 269252, Note_on_c, 0, 73, 0
2, 269262, Note_on_c, 0, 61, 71
2, 269270, Note_on_c, 0, 53, 0
2, 269280, Note_on_c, 0, 68, 58
2, 269393, Note_on_c, 0, 68, 0
2, 269403, Note_on_c, 0, 73, 58
2, 269513, Note_on_c, 0, 73, 0
2, 269523, Note_on_c, 0, 71, 58
2, 269610, Note_on_c, 0, 71, 0
2, 269620, Note_on_c, 0, 53, 63
2, 269633, Note_on_c, 0, 61, 0
2, 269643, Note_on_c, 0, 73, 58
2, 269750, Note_on_c, 0, 73, 0
2, 269750, Note_on_c, 0, 53, 0
2, 269760, Note_on_c, 0, 66, 58
2, 269762, Note_on_c, 0, 56, 63
2, 269870, Note_on_c, 0, 66, 0
2, 269880, Note_on_c, 0, 73, 58
2, 269990, Note_on_c, 0, 73, 0
2, 270000, Note_on_c, 0, 69, 58
2, 270110, Note_on_c, 0, 69, 0
2, 270120, Note_on_c, 0, 73, 58
2, 270212, Note_on_c, 0, 73, 0
2, 270222, Note_on_c, 0, 54, 63
2, 270230, Note_on_c, 0, 56, 0
2, 270240, Note_on_c, 0, 66, 58
2, 270350, Note_on_c, 0, 66, 0
2, 270360, Note_on_c, 0, 73, 58
2, 270470, Note_on_c, 0, 73, 0
2, 270480, Note_on_c, 0, 69, 58
2, 270593, Note_on_c, 0, 69, 0
2, 270603, Note_on_c, 0, 73, 58
2, 270713, Note_on_c, 0, 73, 0
2, 270723, Note_on_c, 0, 66, 58
2, 270833, Note_on_c, 0, 66, 0
2, 270843, Note_on_c, 0, 73, 58
2, 270950, Note_on_c, 0, 73, 0
2, 270950, Note_on_c, 0, 54, 0
2, 270960, Note_on_c, 0, 69, 58
2, 270963, Note_on_c, 0, 54, 63
2, 271070, Note_on_c, 0, 69, 0
2, 271080, Note_on_c, 0, 73, 58
2, 271173, Note_on_c, 0, 73, 0
2, 271183, Note_on_c, 0, 61, 71
2, 271192, Note_on_c, 0, 54, 0
2, 271202, Note_on_c, 0, 66, 58
2, 271310, Note_on_c, 0, 66, 0
2, 271320, Note_on_c, 0, 73, 58
2, 271430, Note_on_c, 0, 73, 0
2, 271440, Note_on_c, 0, 69, 58
2, 271533, Note_on_c, 0, 69, 0
2, 271543, Note_on_c, 0, 54, 63
2, 271550, Note_on_c, 0, 61, 0
2, 271560, Note_on_c, 0, 73, 58
2, 271670, Note_on_c, 0, 73, 0
2, 271670, Note_on_c, 0, 54, 0
2, 271680, Note_on_c, 0, 66, 58
2, 271680, Note_on_c, 0, 54, 63
2, 271790, Note_on_c, 0, 66, 0
2, 271800, Note_on_c, 0, 74, 58
2, 271892, Note_on_c, 0, 74, 0
2, 271892, Note_on_c, 0, 54, 0
2, 271902, Note_on_c, 0, 54, 63
2, 271923, Note_on_c, 0, 69, 58
2, 272033, Note_on_c, 0, 69, 0
2, 272043, Note_on_c, 0, 74, 58
2, 272130, Note_on_c, 0, 74, 0
2, 272140, Note_on_c, 0, 62, 71
2, 272150, Note_on_c, 0, 54, 0
2, 272160, Note_on_c, 0, 66, 58
2, 272270, Note_on_c, 0, 66, 0
2, 272280, Note_on_c, 0, 74, 58
2, 272390, Note_on_c, 0, 74, 0
2, 272400, Note_on_c, 0, 69, 58
2, 272493, Note_on_c, 0, 69, 0
2, 272503, Note_on_c, 0, 54, 63
2, 272512, Note_on_c, 0, 62, 0
2, 272522, Note_on_c, 0, 74, 58
2, 272630, Note_on_c, 0, 74, 0
2, 272630, Note_on_c, 0, 54, 0
2, 272640, Note_on_c, 0, 69, 58
2, 272642, Note_on_c, 0, 54, 63
2, 272750, Note_on_c, 0, 69, 0
2, 272760, Note_on_c, 0, 74, 58
2, 272852, Note_on_c, 0, 74, 0
2, 272852, Note_on_c, 0, 54, 0
2, 272862, Note_on_c, 0, 54, 63
2, 272880, Note_on_c, 0, 72, 58
2, 272990, Note_on_c, 0, 72, 0
2, 273000, Note_on_c, 0, 74, 58
2, 273092, Note_on_c, 0, 74, 0
2, 273102, Note_on_c, 0, 62, 71
2, 273110, Note_on_c, 0, 54, 0
2, 273120, Note_on_c, 0, 69, 58
2, 273230, Note_on_c, 0, 69, 0
2, 273240, Note_on_c, 0, 74, 58
2, 273353, Note_on_c, 0, 74, 0
2, 273363, Note_on_c, 0, 72, 58
2, 273450, Note_on_c, 0, 72, 0
2, 273460, Note_on_c, 0, 54, 63
2, 273470, Note_on_c, 0, 62, 0
2, 273480, Note_on_c, 0, 74, 58
2, 273593, Note_on_c, 0, 74, 0
2, 273593, Note_on_c, 0, 54, 0
2, 273603, Note_on_c, 0, 67, 58
2, 273603, Note_on_c, 0, 55, 79
2, 273710, Note_on_c, 0, 67, 0
2, 273720, Note_on_c, 0, 74, 58
2, 273830, Note_on_c, 0, 74, 0
2, 273840, Note_on_c, 0, 71, 58
2, 273950, Note_on_c, 0, 71, 0
2, 273950, Note_on_c, 0, 55, 0
2, 273960, Note_on_c, 0, 74, 58
2, 274053, Note_on_c, 0, 74, 0
2, 274063, Note_on_c, 0, 50, 63
2, 274080, Note_on_c, 0, 67, 58
2, 274190, Note_on_c, 0, 67, 0
2, 274200, Note_on_c, 0, 74, 58
2, 274310, Note_on_c, 0, 74, 0
2, 274320, Note_on_c, 0, 71, 58
2, 274430, Note_on_c, 0, 71, 0
2, 274440, Note_on_c, 0, 74, 58
2, 274550, Note_on_c, 0, 74, 0
2, 274560, Note_on_c, 0, 67, 58
2, 274673, Note_on_c, 0, 67, 0
2, 274683, Note_on_c, 0, 74, 58
2, 274793, Note_on_c, 0, 74, 0
2, 274803, Note_on_c, 0, 71, 58
2, 274913, Note_on_c, 0, 71, 0
2, 274923, Note_on_c, 0, 74, 58
2, 275010, Note_on_c, 0, 74, 0
2, 275020, Note_on_c, 0, 47, 63
2, 275030, Note_on_c, 0, 50, 0
2, 275040, Note_on_c, 0, 67, 58
2, 275150, Note_on_c, 0, 67, 0
2, 275160, Note_on_c, 0, 74, 58
2, 275270, Note_on_c, 0, 74, 0
2, 275280, Note_on_c, 0, 71, 58
2, 275373, Note_on_c, 0, 71, 0
2, 275383, Note_on_c, 0, 43, 63
2, 275392, Note_on_c, 0, 47, 0
2, 275402, Note_on_c, 0, 74, 58
2, 275510, Note_on_c, 0, 74, 0
2, 275510, Note_on_c, 0, 43, 0
2, 275520, Note_on_c, 0, 69, 58
2, 275520, Note_on_c, 0, 43, 63
2, 275630, Note_on_c, 0, 69, 0
2, 275640, Note_on_c, 0, 74, 58
2, 275750, Note_on_c, 0, 74, 0
2, 275760, Note_on_c, 0, 72, 58
2, 275870, Note_on_c, 0, 72, 0
2, 275880, Note_on_c, 0, 74, 58
2, 275972, Note_on_c, 0, 74, 0
2, 275982, Note_on_c, 0, 42, 63
2, 275990, Note_on_c, 0, 43, 0
2, 276000, Note_on_c, 0, 69, 58
2, 276113, Note_on_c, 0, 69, 0
2, 276123, Note_on_c, 0, 74, 58
2, 276233, Note_on_c, 0, 74, 0
2, 276243, Note_on_c, 0, 72, 58
2, 276350, Note_on_c, 0, 72, 0
2, 276360, Note_on_c, 0, 74, 58
2, 276470, Note_on_c, 0, 74, 0
2, 276480, Note_on_c, 0, 69, 58
2, 276590, Note_on_c, 0, 69, 0
2, 276600, Note_on_c, 0, 74, 58
2, 276710, Note_on_c, 0, 74, 0
2, 276710, Note_on_c, 0, 42, 0
2, 276720, Note_on_c, 0, 72, 58
2, 276722, Note_on_c, 0, 42, 63
2, 276830, Note_on_c, 0, 72, 0
2, 276840, Note_on_c, 0, 74, 58
2, 276933, Note_on_c, 0, 74, 0
2, 276943, Note_on_c, 0, 50, 71
2, 276950, Note_on_c, 0, 42, 0
2, 276960, Note_on_c, 0, 69, 58
2, 277070, Note_on_c, 0, 69, 0
2, 277080, Note_on_c, 0, 74, 58
2, 277190, Note_on_c, 0, 74, 0
2, 277200, Note_on_c, 0, 72, 58
2, 277292, Note_on_c, 0, 72, 0
2, 277302, Note_on_c, 0, 42, 63
2, 277310, Note_on_c, 0, 50, 0
2, 277320, Note_on_c, 0, 74, 58
2, 277433, Note_on_c, 0, 74, 0
2, 277433, Note_on_c, 0, 42, 0
2, 277443, Note_on_c, 0, 67, 58
2, 277443, Note_on_c, 0, 45, 63
2, 277553, Note_on_c, 0, 67, 0
2, 277563, Note_on_c, 0, 74, 58
2, 277673, Note_on_c, 0, 74, 0
2, 277683, Note_on_c, 0, 71, 58
2, 277790, Note_on_c, 0, 71, 0
2, 277800, Note_on_c, 0, 74, 58
2, 277893, Note_on_c, 0, 74, 0
2, 277903, Note_on_c, 0, 43, 63
2, 277912, Note_on_c, 0, 45, 0
2, 277922, Note_on_c, 0, 67, 58
2, 278030, Note_on_c, 0, 67, 0
2, 278040, Note_on_c, 0, 74, 58
2, 278150, Note_on_c, 0, 74, 0
2, 278160, Note_on_c, 0, 71, 58
2, 278270, Note_on_c, 0, 71, 0
2, 278280, Note_on_c, 0, 74, 58
2, 278390, Note_on_c, 0, 74, 0
2, 278400, Note_on_c, 0, 67, 58
2, 278510, Note_on_c, 0, 67, 0
2, 278520, Note_on_c, 0, 74, 58
2, 278630, Note_on_c, 0, 74, 0
2, 278630, Note_on_c, 0, 43, 0
2, 278640, Note_on_c, 0, 71, 58
2, 278640, Note_on_c, 0, 43, 63
2, 278753, Note_on_c, 0, 71, 0
2, 278763, Note_on_c, 0, 74, 58
2, 278850, Note_on_c, 0, 74, 0
2, 278860, Note_on_c, 0, 50, 71
2, 278870, Note_on_c, 0, 43, 0
2, 278880, Note_on_c, 0, 66, 58
2, 278993, Note_on_c, 0, 66, 0
2, 279003, Note_on_c, 0, 74, 58
2, 279110, Note_on_c, 0, 74, 0
2, 279120, Note_on_c, 0, 71, 58
2, 279213, Note_on_c, 0, 71, 0
2, 279223, Note_on_c, 0, 42, 63
2, 279232, Note_on_c, 0, 50, 0
2, 279242, Note_on_c, 0, 74, 58
2, 279350, Note_on_c, 0, 74, 0
2, 279350, Note_on_c, 0, 42, 0
2, 279360, Note_on_c, 0, 68, 58
2, 279362, Note_on_c, 0, 42, 63
2, 279470, Note_on_c, 0, 68, 0
2, 279480, Note_on_c, 0, 74, 58
2, 279590, Note_on_c, 0, 74, 0
2, 279600, Note_on_c, 0, 71, 58
2, 279710, Note_on_c, 0, 71, 0
2, 279720, Note_on_c, 0, 74, 58
2, 279812, Note_on_c, 0, 74, 0
2, 279822, Note_on_c, 0, 41, 63
2, 279830, Note_on_c, 0, 42, 0
2, 279840, Note_on_c, 0, 68, 58
2, 279950, Note_on_c, 0, 68, 0
2, 279960, Note_on_c, 0, 73, 58
2, 280073, Note_on_c, 0, 73, 0
2, 280083, Note_on_c, 0, 71, 58
2, 280193, Note_on_c, 0, 71, 0
2, 280203, Note_on_c, 0, 73, 58
2, 280313, Note_on_c, 0, 73, 0
2, 280323, Note_on_c, 0, 68, 58
2, 280430, Note_on_c, 0, 68, 0
2, 280440, Note_on_c, 0, 73, 58
2, 280550, Note_on_c, 0, 73, 0
2, 280550, Note_on_c, 0, 41, 0
2, 280560, Note_on_c, 0, 71, 58
2, 280562, Note_on_c, 0, 41, 63
2, 280670, Note_on_c, 0, 71, 0
2, 280680, Note_on_c, 0, 73, 58
2, 280773, Note_on_c, 0, 73, 0
2, 280783, Note_on_c, 0, 49, 71
2, 280792, Note_on_c, 0, 41, 0
2, 280802, Note_on_c, 0, 68, 58
2, 280910, Note_on_c, 0, 68, 0
2, 280920, Note_on_c, 0, 73, 58
2, 281030, Note_on_c, 0, 73, 0
2, 281040, Note_on_c, 0, 71, 58
2, 281133, Note_on_c, 0, 71, 0
2, 281143, Note_on_c, 0, 41, 63
2, 281150, Note_on_c, 0, 49, 0
2, 281160, Note_on_c, 0, 73, 58
2, 281270, Note_on_c, 0, 73, 0
2, 281270, Note_on_c, 0, 41, 0
2, 281280, Note_on_c, 0, 66, 58
2, 281280, Note_on_c, 0, 42, 71
2, 281390, Note_on_c, 0, 66, 0
2, 281400, Note_on_c, 0, 73, 58
2, 281492, Note_on_c, 0, 73, 0
2, 281492, Note_on_c, 0, 42, 0
2, 281502, Note_on_c, 0, 42, 63
2, 281523, Note_on_c, 0, 69, 58
2, 281633, Note_on_c, 0, 69, 0
2, 281643, Note_on_c, 0, 73, 58
2, 281730, Note_on_c, 0, 73, 0
2, 281740, Note_on_c, 0, 45, 63
2, 281750, Note_on_c, 0, 42, 0
2, 281760, Note_on_c, 0, 66, 58
2, 281870, Note_on_c, 0, 66, 0
2, 281880, Note_on_c, 0, 73, 58
2, 281973, Note_on_c, 0, 73, 0
2, 281983, Note_on_c, 0, 42, 63
2, 281992, Note_on_c, 0, 45, 0
2, 282002, Note_on_c, 0, 69, 58
2, 282110, Note_on_c, 0, 69, 0
2, 282120, Note_on_c, 0, 73, 58
2, 282230, Note_on_c, 0, 73, 0
2, 282230, Note_on_c, 0, 42, 0
2, 282240, Note_on_c, 0, 66, 58
2, 282242, Note_on_c, 0, 38, 71
2, 282350, Note_on_c, 0, 66, 0
2, 282360, Note_on_c, 0, 78, 58
2, 282452, Note_on_c, 0, 78, 0
2, 282452, Note_on_c, 0, 38, 0
2, 282462, Note_on_c, 0, 38, 63
2, 282480, Note_on_c, 0, 69, 58
2, 282590, Note_on_c, 0, 69, 0
2, 282600, Note_on_c, 0, 78, 58
2, 282692, Note_on_c, 0, 78, 0
2, 282702, Note_on_c, 0, 42, 63
2, 282710, Note_on_c, 0, 38, 0
2, 282720, Note_on_c, 0, 66, 58
2, 282833, Note_on_c, 0, 66, 0
2, 282843, Note_on_c, 0, 78, 58
2, 282930, Note_on_c, 0, 78, 0
2, 282940, Note_on_c, 0, 38, 63
2, 282950, Note_on_c, 0, 42, 0
2, 282960, Note_on_c, 0, 69, 58
2, 283073, Note_on_c, 0, 69, 0
2, 283083, Note_on_c, 0, 78, 58
2, 283190, Note_on_c, 0, 78, 0
2, 283190, Note_on_c, 0, 38, 0
2, 283200, Note_on_c, 0, 66, 58
2, 283203, Note_on_c, 0, 36, 71
2, 283310, Note_on_c, 0, 66, 0
2, 283320, Note_on_c, 0, 78, 58
2, 283413, Note_on_c, 0, 78, 0
2, 283423, Note_on_c, 0, 68, 58
2, 283440, Note_on_c, 0, 75, 58
2, 283550, Note_on_c, 0, 75, 0
2, 283550, Note_on_c, 0, 68, 0
2, 283560, Note_on_c, 0, 78, 58
2, 283670, Note_on_c, 0, 78, 0
2, 283680, Note_on_c, 0, 66, 58
2, 283790, Note_on_c, 0, 66, 0
2, 283800, Note_on_c, 0, 78, 58
2, 283892, Note_on_c, 0, 78, 0
2, 283902, Note_on_c, 0, 68, 58
2, 283920, Note_on_c, 0, 75, 58
2, 284030, Note_on_c, 0, 75, 0
2, 284030, Note_on_c, 0, 68, 0
2, 284040, Note_on_c, 0, 78, 58
2, 284153, Note_on_c, 0, 78, 0
2, 284163, Note_on_c, 0, 66, 58
2, 284273, Note_on_c, 0, 66, 0
2, 284283, Note_on_c, 0, 78, 58
2, 284370, Note_on_c, 0, 78, 0
2, 284380, Note_on_c, 0, 68, 58
2, 284393, Note_on_c, 0, 36, 0
2, 284403, Note_on_c, 0, 75, 58
2, 284403, Note_on_c, 0, 36, 63
2, 284510, Note_on_c, 0, 75, 0
2, 284510, Note_on_c, 0, 68, 0
2, 284520, Note_on_c, 0, 78, 58
2, 284613, Note_on_c, 0, 78, 0
2, 284623, Note_on_c, 0, 39, 63
2, 284632, Note_on_c, 0, 36, 0
2, 284642, Note_on_c, 0, 66, 58
2, 284750, Note_on_c, 0, 66, 0
2, 284760, Note_on_c, 0, 78, 58
2, 284853, Note_on_c, 0, 78, 0
2, 284863, Note_on_c, 0, 68, 58
2, 284863, Note_on_c, 0, 36, 63
2, 284872, Note_on_c, 0, 39, 0
2, 284882, Note_on_c, 0, 75, 58
2, 284990, Note_on_c, 0, 75, 0
2, 284990, Note_on_c, 0, 68, 0
2, 285000, Note_on_c, 0, 78, 58
2, 285110, Note_on_c, 0, 78, 0
2, 285110, Note_on_c, 0, 36, 0
2, 285120, Note_on_c, 0, 64, 58
2, 285120, Note_on_c, 0, 37, 71
2, 285230, Note_on_c, 0, 64, 0
2, 285240, Note_on_c, 0, 76, 58
2, 285332, Note_on_c, 0, 76, 0
2, 285332, Note_on_c, 0, 37, 0
2, 285342, Note_on_c, 0, 37, 63
2, 285360, Note_on_c, 0, 73, 58
2, 285470, Note_on_c, 0, 73, 0
2, 285480, Note_on_c, 0, 76, 58
2, 285570, Note_on_c, 0, 76, 0
2, 285580, Note_on_c, 0, 40, 63
2, 285590, Note_on_c, 0, 37, 0
2, 285600, Note_on_c, 0, 64, 58
2, 285713, Note_on_c, 0, 64, 0
2, 285723, Note_on_c, 0, 76, 58
2, 285810, Note_on_c, 0, 76, 0
2, 285820, Note_on_c, 0, 37, 63
2, 285830, Note_on_c, 0, 40, 0
2, 285840, Note_on_c, 0, 73, 58
2, 285950, Note_on_c, 0, 73, 0
2, 285960, Note_on_c, 0, 76, 58
2, 286070, Note_on_c, 0, 76, 0
2, 286070, Note_on_c, 0, 37, 0
2, 286080, Note_on_c, 0, 64, 58
2, 286082, Note_on_c, 0, 33, 71
2, 286190, Note_on_c, 0, 64, 0
2, 286200, Note_on_c, 0, 76, 58
2, 286293, Note_on_c, 0, 76, 0
2, 286293, Note_on_c, 0, 33, 0
2, 286303, Note_on_c, 0, 33, 63
2, 286320, Note_on_c, 0, 73, 58
2, 286430, Note_on_c, 0, 73, 0
2, 286440, Note_on_c, 0, 76, 58
2, 286533, Note_on_c, 0, 76, 0
2, 286543, Note_on_c, 0, 37, 63
2, 286550, Note_on_c, 0, 33, 0
2, 286560, Note_on_c, 0, 64, 58
2, 286670, Note_on_c, 0, 64, 0
2, 286680, Note_on_c, 0, 76, 58
2, 286772, Note_on_c, 0, 76, 0
2, 286782, Note_on_c, 0, 33, 63
2, 286790, Note_on_c, 0, 37, 0
2, 286800, Note_on_c, 0, 73, 58
2, 286913, Note_on_c, 0, 73, 0
2, 286923, Note_on_c, 0, 76, 58
2, 287033, Note_on_c, 0, 76, 0
2, 287033, Note_on_c, 0, 33, 0
2, 287043, Note_on_c, 0, 63, 58
2, 287043, Note_on_c, 0, 30, 71
2, 287153, Note_on_c, 0, 63, 0
2, 287163, Note_on_c, 0, 75, 58
2, 287250, Note_on_c, 0, 75, 0
2, 287250, Note_on_c, 0, 30, 0
2, 287260, Note_on_c, 0, 30, 63
2, 287280, Note_on_c, 0, 73, 58
2, 287390, Note_on_c, 0, 73, 0
2, 287400, Note_on_c, 0, 75, 58
2, 287493, Note_on_c, 0, 75, 0
2, 287503, Note_on_c, 0, 33, 63
2, 287512, Note_on_c, 0, 30, 0
2, 287522, Note_on_c, 0, 63, 58
2, 287630, Note_on_c, 0, 63, 0
2, 287640, Note_on_c, 0, 75, 58
2, 287733, Note_on_c, 0, 75, 0
2, 287743, Note_on_c, 0, 30, 63
2, 287750, Note_on_c, 0, 33, 0
2, 287760, Note_on_c, 0, 73, 58
2, 287870, Note_on_c, 0, 73, 0
2, 287880, Note_on_c, 0, 75, 58
2, 287990, Note_on_c, 0, 75, 0
2, 287990, Note_on_c, 0, 30, 0
2, 288000, Note_on_c, 0, 63, 58
2, 288000, Note_on_c, 0, 31, 71
2, 288110, Note_on_c, 0, 63, 0
2, 288120, Note_on_c, 0, 75, 58
2, 288212, Note_on_c, 0, 75, 0
2, 288212, Note_on_c, 0, 31, 0
2, 288222, Note_on_c, 0, 31, 63
2, 288243, Note_on_c, 0, 73, 58
2, 288353, Note_on_c, 0, 73, 0
2, 288363, Note_on_c, 0, 75, 58
2, 288450, Note_on_c, 0, 75, 0
2, 288460, Note_on_c, 0, 34, 63
2, 288470, Note_on_c, 0, 31, 0
2, 288480, Note_on_c, 0, 63, 58
2, 288590, Note_on_c, 0, 63, 0
2, 288600, Note_on_c, 0, 75, 58
2, 288693, Note_on_c, 0, 75, 0
2, 288703, Note_on_c, 0, 31, 63
2, 288712, Note_on_c, 0, 34, 0
2, 288722, Note_on_c, 0, 73, 58
2, 288830, Note_on_c, 0, 73, 0
2, 288840, Note_on_c, 0, 75, 58
2, 288933, Note_on_c, 0, 75, 0
2, 288943, Note_on_c, 0, 72, 71
2, 288943, Note_on_c, 0, 63, 71
2, 288950, Note_on_c, 0, 31, 0
2, 288960, Note_on_c, 0, 75, 71
2, 288962, Note_on_c, 0, 32, 58
2, 289070, Note_on_c, 0, 32, 0
2, 289080, Note_on_c, 0, 44, 58
2, 289190, Note_on_c, 0, 44, 0
2, 289200, Note_on_c, 0, 32, 58
2, 289310, Note_on_c, 0, 32, 0
2, 289310, Note_on_c, 0, 72, 0
2, 289310, Note_on_c, 0, 63, 0
2, 289310, Note_on_c, 0, 75, 0
2, 289320, Note_on_c, 0, 44, 58
2, 289420, Note_on_c, 0, 68, 63
2, 289430, Note_on_c, 0, 44, 0
2, 289440, Note_on_c, 0, 32, 58
2, 289550, Note_on_c, 0, 32, 0
2, 289560, Note_on_c, 0, 44, 58
2, 289673, Note_on_c, 0, 44, 0
2, 289683, Note_on_c, 0, 32, 58
2, 289793, Note_on_c, 0, 32, 0
2, 289803, Note_on_c, 0, 44, 58
2, 289913, Note_on_c, 0, 44, 0
2, 289923, Note_on_c, 0, 32, 58
2, 290030, Note_on_c, 0, 32, 0
2, 290040, Note_on_c, 0, 44, 58
2, 290150, Note_on_c, 0, 44, 0
2, 290160, Note_on_c, 0, 32, 58
2, 290270, Note_on_c, 0, 32, 0
2, 290280, Note_on_c, 0, 44, 58
2, 290373, Note_on_c, 0, 44, 0
2, 290383, Note_on_c, 0, 69, 63
2, 290390, Note_on_c, 0, 68, 0
2, 290400, Note_on_c, 0, 32, 58
2, 290510, Note_on_c, 0, 32, 0
2, 290520, Note_on_c, 0, 44, 58
2, 290620, Note_on_c, 0, 68, 63
2, 290630, Note_on_c, 0, 44, 0
2, 290630, Note_on_c, 0, 69, 0
2, 290640, Note_on_c, 0, 32, 58
2, 290750, Note_on_c, 0, 32, 0
2, 290760, Note_on_c, 0, 44, 58
2, 290852, Note_on_c, 0, 44, 0
2, 290860, Note_on_c, 0, 66, 63
2, 290862, Note_on_c, 0, 61, 58
2, 290862, Note_on_c, 0, 57, 58
2, 290870, Note_on_c, 0, 68, 0
2, 290880, Note_on_c, 0, 32, 58
2, 290993, Note_on_c, 0, 32, 0
2, 291003, Note_on_c, 0, 44, 58
2, 291113, Note_on_c, 0, 44, 0
2, 291123, Note_on_c, 0, 32, 58
2, 291233, Note_on_c, 0, 32, 0
2, 291243, Note_on_c, 0, 44, 58
2, 291330, Note_on_c, 0, 44, 0
2, 291340, Note_on_c, 0, 68, 63
2, 291353, Note_on_c, 0, 66, 0
2, 291363, Note_on_c, 0, 32, 58
2, 291470, Note_on_c, 0, 32, 0
2, 291480, Note_on_c, 0, 44, 58
2, 291573, Note_on_c, 0, 44, 0
2, 291583, Note_on_c, 0, 66, 63
2, 291592, Note_on_c, 0, 68, 0
2, 291602, Note_on_c, 0, 32, 58
2, 291710, Note_on_c, 0, 32, 0
2, 291720, Note_on_c, 0, 44, 58
2, 291813, Note_on_c, 0, 57, 0
2, 291813, Note_on_c, 0, 61, 0
2, 291823, Note_on_c, 0, 64, 63
2, 291830, Note_on_c, 0, 66, 0
2, 291830, Note_on_c, 0, 44, 0
2, 291840, Note_on_c, 0, 59, 58
2, 291842, Note_on_c, 0, 56, 58
2, 291842, Note_on_c, 0, 32, 58
2, 291950, Note_on_c, 0, 32, 0
2, 291960, Note_on_c, 0, 44, 58
2, 292070, Note_on_c, 0, 44, 0
2, 292080, Note_on_c, 0, 32, 58
2, 292190, Note_on_c, 0, 32, 0
2, 292200, Note_on_c, 0, 44, 58
2, 292300, Note_on_c, 0, 66, 63
2, 292310, Note_on_c, 0, 44, 0
2, 292310, Note_on_c, 0, 64, 0
2, 292320, Note_on_c, 0, 32, 58
2, 292433, Note_on_c, 0, 32, 0
2, 292443, Note_on_c, 0, 44, 58
2, 292530, Note_on_c, 0, 44, 0
2, 292540, Note_on_c, 0, 64, 63
2, 292550, Note_on_c, 0, 66, 0
2, 292560, Note_on_c, 0, 32, 58
2, 292673, Note_on_c, 0, 32, 0
2, 292683, Note_on_c, 0, 44, 58
2, 292773, Note_on_c, 0, 59, 0
2, 292783, Note_on_c, 0, 63, 63
2, 292792, Note_on_c, 0, 64, 0
2, 292792, Note_on_c, 0, 44, 0
2, 292792, Note_on_c, 0, 56, 0
2, 292802, Note_on_c, 0, 57, 58
2, 292802, Note_on_c, 0, 54, 58
2, 292802, Note_on_c, 0, 32, 58
2, 292910, Note_on_c, 0, 32, 0
2, 292920, Note_on_c, 0, 44, 58
2, 293030, Note_on_c, 0, 44, 0
2, 293040, Note_on_c, 0, 32, 58
2, 293150, Note_on_c, 0, 32, 0
2, 293160, Note_on_c, 0, 44, 58
2, 293260, Note_on_c, 0, 64, 63
2, 293270, Note_on_c, 0, 44, 0
2, 293270, Note_on_c, 0, 63, 0
2, 293280, Note_on_c, 0, 32, 58
2, 293390, Note_on_c, 0, 32, 0
2, 293400, Note_on_c, 0, 44, 58
2, 293500, Note_on_c, 0, 63, 63
2, 293510, Note_on_c, 0, 44, 0
2, 293510, Note_on_c, 0, 64, 0
2, 293520, Note_on_c, 0, 32, 58
2, 293630, Note_on_c, 0, 32, 0
2, 293640, Note_on_c, 0, 44, 58
2, 293730, Note_on_c, 0, 57, 0
2, 293740, Note_on_c, 0, 61, 63
2, 293750, Note_on_c, 0, 63, 0
2, 293750, Note_on_c, 0, 44, 0
2, 293750, Note_on_c, 0, 54, 0
2, 293760, Note_on_c, 0, 56, 58
2, 293760, Note_on_c, 0, 52, 58
2, 293762, Note_on_c, 0, 32, 58
2, 293873, Note_on_c, 0, 32, 0
2, 293883, Note_on_c, 0, 44, 58
2, 293993, Note_on_c, 0, 44, 0
2, 294003, Note_on_c, 0, 32, 58
2, 294110, Note_on_c, 0, 32, 0
2, 294120, Note_on_c, 0, 44, 58
2, 294213, Note_on_c, 0, 44, 0
2, 294223, Note_on_c, 0, 63, 63
2, 294232, Note_on_c, 0, 61, 0
2, 294242, Note_on_c, 0, 32, 58
2, 294350, Note_on_c, 0, 32, 0
2, 294360, Note_on_c, 0, 44, 58
2, 294453, Note_on_c, 0, 44, 0
2, 294463, Note_on_c, 0, 61, 63
2, 294470, Note_on_c, 0, 63, 0
2, 294480, Note_on_c, 0, 32, 58
2, 294590, Note_on_c, 0, 32, 0
2, 294600, Note_on_c, 0, 44, 58
2, 294700, Note_on_c, 0, 60, 63
2, 294710, Note_on_c, 0, 44, 0
2, 294710, Note_on_c, 0, 61, 0
2, 294710, Note_on_c, 0, 56, 0
2, 294710, Note_on_c, 0, 52, 0
2, 294720, Note_on_c, 0, 54, 58
2, 294722, Note_on_c, 0, 51, 58
2, 294722, Note_on_c, 0, 32, 58
2, 294830, Note_on_c, 0, 32, 0
2, 294840, Note_on_c, 0, 44, 58
2, 294950, Note_on_c, 0, 44, 0
2, 294960, Note_on_c, 0, 32, 58
2, 295073, Note_on_c, 0, 32, 0
2, 295083, Note_on_c, 0, 44, 58
2, 295193, Note_on_c, 0, 44, 0
2, 295203, Note_on_c, 0, 32, 58
2, 295313, Note_on_c, 0, 32, 0
2, 295323, Note_on_c, 0, 44, 58
2, 295433, Note_on_c, 0, 44, 0
2, 295443, Note_on_c, 0, 32, 58
2, 295550, Note_on_c, 0, 32, 0
2, 295560, Note_on_c, 0, 44, 58
2, 295653, Note_on_c, 0, 51, 0
2, 295653, Note_on_c, 0, 54, 0
2, 295663, Note_on_c, 0, 61, 63
2, 295672, Note_on_c, 0, 60, 0
2, 295672, Note_on_c, 0, 44, 0
2, 295682, Note_on_c, 0, 52, 58
2, 295682, Note_on_c, 0, 49, 58
2, 295682, Note_on_c, 0, 32, 58
2, 295790, Note_on_c, 0, 32, 0
2, 295800, Note_on_c, 0, 44, 58
2, 295910, Note_on_c, 0, 44, 0
2, 295920, Note_on_c, 0, 32, 58
2, 296030, Note_on_c, 0, 32, 0
2, 296040, Note_on_c, 0, 44, 58
2, 296150, Note_on_c, 0, 44, 0
2, 296160, Note_on_c, 0, 32, 58
2, 296270, Note_on_c, 0, 32, 0
2, 296280, Note_on_c, 0, 44, 58
2, 296393, Note_on_c, 0, 44, 0
2, 296403, Note_on_c, 0, 32, 58
2, 296513, Note_on_c, 0, 32, 0
2, 296523, Note_on_c, 0, 44, 58
2, 296610, Note_on_c, 0, 52, 0
2, 296620, Note_on_c, 0, 48, 63
2, 296630, Note_on_c, 0, 61, 0
2, 296630, Note_on_c, 0, 44, 0
2, 296630, Note_on_c, 0, 49, 0
2, 296640, Note_on_c, 0, 32, 58
2, 296703, Note_on_c, 0, 56, 63
2, 296753, Note_on_c, 0, 32, 0
2, 296753, Note_on_c, 0, 48, 0
2, 296763, Note_on_c, 0, 44, 58
2, 296780, Note_on_c, 0, 63, 63
2, 296870, Note_on_c, 0, 44, 0
2, 296870, Note_on_c, 0, 56, 0
2, 296880, Note_on_c, 0, 32, 58
2, 296990, Note_on_c, 0, 32, 0
2, 297000, Note_on_c, 0, 44, 58
2, 297110, Note_on_c, 0, 44, 0
2, 297110, Note_on_c, 0, 63, 0
2, 297120, Note_on_c, 0, 80, 63
2, 297122, Note_on_c, 0, 32, 58
2, 297230, Note_on_c, 0, 32, 0
2, 297240, Note_on_c, 0, 44, 58
2, 297350, Note_on_c, 0, 44, 0
2, 297360, Note_on_c, 0, 32, 58
2, 297470, Note_on_c, 0, 32, 0
2, 297480, Note_on_c, 0, 44, 58
2, 297590, Note_on_c, 0, 44, 0
2, 297600, Note_on_c, 0, 32, 58
2, 297710, Note_on_c, 0, 32, 0
2, 297720, Note_on_c, 0, 44, 58
2, 297833, Note_on_c, 0, 44, 0
2, 297833, Note_on_c, 0, 80, 0
2, 297843, Note_on_c, 0, 80, 63
2, 297843, Note_on_c, 0, 32, 58
2, 297953, Note_on_c, 0, 32, 0
2, 297963, Note_on_c, 0, 44, 58
2, 298050, Note_on_c, 0, 44, 0
2, 298050, Note_on_c, 0, 80, 0
2, 298060, Note_on_c, 0, 81, 63
2, 298083, Note_on_c, 0, 32, 58
2, 298190, Note_on_c, 0, 32, 0
2, 298200, Note_on_c, 0, 44, 58
2, 298293, Note_on_c, 0, 44, 0
2, 298293, Note_on_c, 0, 81, 0
2, 298303, Note_on_c, 0, 80, 63
2, 298320, Note_on_c, 0, 32, 58
2, 298430, Note_on_c, 0, 32, 0
2, 298440, Note_on_c, 0, 44, 58
2, 298533, Note_on_c, 0, 44, 0
2, 298533, Note_on_c, 0, 80, 0
2, 298543, Note_on_c, 0, 78, 63
2, 298560, Note_on_c, 0, 32, 58
2, 298670, Note_on_c, 0, 32, 0
2, 298680, Note_on_c, 0, 44, 58
2, 298770, Note_on_c, 0, 78, 0
2, 298780, Note_on_c, 0, 78, 65
2, 298782, Note_on_c, 0, 73, 65
2, 298782, Note_on_c, 0, 69, 65
2, 298790, Note_on_c, 0, 44, 0
2, 298800, Note_on_c, 0, 32, 58
2, 298910, Note_on_c, 0, 32, 0
2, 298920, Note_on_c, 0, 44, 58
2, 299010, Note_on_c, 0, 69, 0
2, 299010, Note_on_c, 0, 78, 0
2, 299010, Note_on_c, 0, 73, 0
2, 299012, Note_on_c, 0, 44, 0
2, 299020, Note_on_c, 0, 80, 67
2, 299022, Note_on_c, 0, 75, 67
2, 299022, Note_on_c, 0, 71, 67
2, 299040, Note_on_c, 0, 32, 59
2, 299153, Note_on_c, 0, 32, 0
2, 299163, Note_on_c, 0, 44, 59
2, 299250, Note_on_c, 0, 80, 0
2, 299250, Note_on_c, 0, 71, 0
2, 299250, Note_on_c, 0, 75, 0
2, 299252, Note_on_c, 0, 44, 0
2, 299260, Note_on_c, 0, 78, 69
2, 299260, Note_on_c, 0, 73, 69
2, 299262, Note_on_c, 0, 69, 69
2, 299283, Note_on_c, 0, 32, 61
2, 299393, Note_on_c, 0, 32, 0
2, 299403, Note_on_c, 0, 44, 61
2, 299490, Note_on_c, 0, 78, 0
2, 299490, Note_on_c, 0, 69, 0
2, 299490, Note_on_c, 0, 73, 0
2, 299492, Note_on_c, 0, 44, 0
2, 299500, Note_on_c, 0, 76, 71
2, 299500, Note_on_c, 0, 71, 71
2, 299502, Note_on_c, 0, 68, 71
2, 299523, Note_on_c, 0, 32, 63
2, 299630, Note_on_c, 0, 32, 0
2, 299640, Note_on_c, 0, 44, 63
2, 299733, Note_on_c, 0, 76, 0
2, 299733, Note_on_c, 0, 68, 0
2, 299733, Note_on_c, 0, 71, 0
2, 299743, Note_on_c, 0, 76, 71
2, 299743, Note_on_c, 0, 71, 71
2, 299743, Note_on_c, 0, 68, 71
2, 299750, Note_on_c, 0, 44, 0
2, 299760, Note_on_c, 0, 32, 63
2, 299870, Note_on_c, 0, 32, 0
2, 299880, Note_on_c, 0, 44, 63
2, 299970, Note_on_c, 0, 68, 0
2, 299970, Note_on_c, 0, 76, 0
2, 299970, Note_on_c, 0, 71, 0
2, 299980, Note_on_c, 0, 78, 71
2, 299983, Note_on_c, 0, 73, 71
2, 299983, Note_on_c, 0, 69, 71
2, 299990, Note_on_c, 0, 44, 0
2, 300000, Note_on_c, 0, 32, 63
2, 300110, Note_on_c, 0, 32, 0
2, 300120, Note_on_c, 0, 44, 63
2, 300210, Note_on_c, 0, 69, 0
2, 300210, Note_on_c, 0, 78, 0
2, 300210, Note_on_c, 0, 73, 0
2, 300212, Note_on_c, 0, 44, 0
2, 300220, Note_on_c, 0, 76, 71
2, 300222, Note_on_c, 0, 71, 71
2, 300222, Note_on_c, 0, 68, 71
2, 300240, Note_on_c, 0, 32, 63
2, 300350, Note_on_c, 0, 32, 0
2, 300360, Note_on_c, 0, 44, 63
2, 300450, Note_on_c, 0, 76, 0
2, 300450, Note_on_c, 0, 68, 0
2, 300450, Note_on_c, 0, 71, 0
2, 300452, Note_on_c, 0, 44, 0
2, 300460, Note_on_c, 0, 75, 71
2, 300462, Note_on_c, 0, 69, 71
2, 300462, Note_on_c, 0, 66, 71
2, 300483, Note_on_c, 0, 32, 63
2, 300593, Note_on_c, 0, 32, 0
2, 300603, Note_on_c, 0, 44, 63
2, 300690, Note_on_c, 0, 75, 0
2, 300690, Note_on_c, 0, 66, 0
2, 300690, Note_on_c, 0, 69, 0
2, 300692, Note_on_c, 0, 44, 0
2, 300700, Note_on_c, 0, 75, 71
2, 300700, Note_on_c, 0, 69, 71
2, 300702, Note_on_c, 0, 66, 71
2, 300723, Note_on_c, 0, 32, 63
2, 300833, Note_on_c, 0, 32, 0
2, 300843, Note_on_c, 0, 44, 63
2, 300933, Note_on_c, 0, 75, 0
2, 300933, Note_on_c, 0, 66, 0
2, 300933, Note_on_c, 0, 69, 0
2, 300936, Note_on_c, 0, 44, 0
2, 300943, Note_on_c, 0, 76, 71
2, 300943, Note_on_c, 0, 71, 71
2, 300946, Note_on_c, 0, 68, 71
2, 300960, Note_on_c, 0, 32, 63
2, 301070, Note_on_c, 0, 32, 0
2, 301080, Note_on_c, 0, 44, 63
2, 301173, Note_on_c, 0, 76, 0
2, 301173, Note_on_c, 0, 68, 0
2, 301173, Note_on_c, 0, 71, 0
2, 301183, Note_on_c, 0, 75, 71
2, 301183, Note_on_c, 0, 69, 71
2, 301183, Note_on_c, 0, 66, 71
2, 301190, Note_on_c, 0, 44, 0
2, 301200, Note_on_c, 0, 32, 63
2, 301310, Note_on_c, 0, 32, 0
2, 301320, Note_on_c, 0, 44, 63
2, 301410, Note_on_c, 0, 66, 0
2, 301410, Note_on_c, 0, 75, 0
2, 301410, Note_on_c, 0, 69, 0
2, 301420, Note_on_c, 0, 73, 71
2, 301422, Note_on_c, 0, 68, 71
2, 301422, Note_on_c, 0, 64, 71
2, 301430, Note_on_c, 0, 44, 0
2, 301440, Note_on_c, 0, 32, 63
2, 301550, Note_on_c, 0, 32, 0
2, 301560, Note_on_c, 0, 44, 63
2, 301650, Note_on_c, 0, 64, 0
2, 301650, Note_on_c, 0, 73, 0
2, 301650, Note_on_c, 0, 68, 0
2, 301652, Note_on_c, 0, 44, 0
2, 301660, Note_on_c, 0, 73, 71
2, 301662, Note_on_c, 0, 68, 71
2, 301662, Note_on_c, 0, 64, 71
2, 301680, Note_on_c, 0, 32, 63
2, 301793, Note_on_c, 0, 32, 0
2, 301803, Note_on_c, 0, 44, 63
2, 301890, Note_on_c, 0, 73, 0
2, 301890, Note_on_c, 0, 64, 0
2, 301890, Note_on_c, 0, 68, 0
2, 301892, Note_on_c, 0, 44, 0
2, 301900, Note_on_c, 0, 75, 71
2, 301900, Note_on_c, 0, 69, 71
2, 301902, Note_on_c, 0, 66, 71
2, 301923, Note_on_c, 0, 32, 63
2, 302033, Note_on_c, 0, 32, 0
2, 302043, Note_on_c, 0, 44, 63
2, 302130, Note_on_c, 0, 75, 0
2, 302130, Note_on_c, 0, 66, 0
2, 302130, Note_on_c, 0, 69, 0
2, 302132, Note_on_c, 0, 44, 0
2, 302140, Note_on_c, 0, 73, 71
2, 302140, Note_on_c, 0, 68, 71
2, 302142, Note_on_c, 0, 64, 71
2, 302163, Note_on_c, 0, 32, 63
2, 302270, Note_on_c, 0, 32, 0
2, 302280, Note_on_c, 0, 44, 63
2, 302373, Note_on_c, 0, 73, 0
2, 302373, Note_on_c, 0, 64, 0
2, 302373, Note_on_c, 0, 68, 0
2, 302376, Note_on_c, 0, 44, 0
2, 302383, Note_on_c, 0, 72, 58
2, 302383, Note_on_c, 0, 66, 58
2, 302386, Note_on_c, 0, 63, 58
2, 302400, Note_on_c, 0, 32, 58
2, 302510, Note_on_c, 0, 32, 0
2, 302520, Note_on_c, 0, 44, 58
2, 302630, Note_on_c, 0, 44, 0
2, 302640, Note_on_c, 0, 32, 58
2, 302750, Note_on_c, 0, 32, 0
2, 302760, Note_on_c, 0, 44, 58
2, 302870, Note_on_c, 0, 44, 0
2, 302880, Note_on_c, 0, 32, 58
2, 302990, Note_on_c, 0, 32, 0
2, 303000, Note_on_c, 0, 44, 58
2, 303110, Note_on_c, 0, 44, 0
2, 303110, Note_on_c, 0, 63, 0
2, 303110, Note_on_c, 0, 66, 0
2, 303110, Note_on_c, 0, 72, 0
2, 303120, Note_on_c, 0, 32, 58
2, 303233, Note_on_c, 0, 32, 0
2, 303243, Note_on_c, 0, 44, 58
2, 303332, Note_on_c, 0, 44, 0
2, 303340, Note_on_c, 0, 73, 58
2, 303340, Note_on_c, 0, 64, 58
2, 303342, Note_on_c, 0, 61, 58
2, 303363, Note_on_c, 0, 32, 58
2, 303473, Note_on_c, 0, 32, 0
2, 303483, Note_on_c, 0, 44, 58
2, 303593, Note_on_c, 0, 44, 0
2, 303603, Note_on_c, 0, 32, 58
2, 303710, Note_on_c, 0, 32, 0
2, 303720, Note_on_c, 0, 44, 58
2, 303830, Note_on_c, 0, 44, 0
2, 303840, Note_on_c, 0, 32, 58
2, 303950, Note_on_c, 0, 32, 0
2, 303960, Note_on_c, 0, 44, 58
2, 304070, Note_on_c, 0, 44, 0
2, 304070, Note_on_c, 0, 61, 0
2, 304070, Note_on_c, 0, 64, 0
2, 304070, Note_on_c, 0, 73, 0
2, 304080, Note_on_c, 0, 32, 58
2, 304190, Note_on_c, 0, 32, 0
2, 304200, Note_on_c, 0, 44, 58
2, 304300, Note_on_c, 0, 60, 63
2, 304310, Note_on_c, 0, 44, 0
2, 304320, Note_on_c, 0, 32, 58
2, 304380, Note_on_c, 0, 66, 63
2, 304430, Note_on_c, 0, 32, 0
2, 304430, Note_on_c, 0, 60, 0
2, 304440, Note_on_c, 0, 44, 58
2, 304463, Note_on_c, 0, 75, 63
2, 304553, Note_on_c, 0, 44, 0
2, 304563, Note_on_c, 0, 32, 58
2, 304673, Note_on_c, 0, 32, 0
2, 304683, Note_on_c, 0, 44, 58
2, 304793, Note_on_c, 0, 44, 0
2, 304803, Note_on_c, 0, 32, 58
2, 304913, Note_on_c, 0, 32, 0
2, 304923, Note_on_c, 0, 44, 58
2, 305030, Note_on_c, 0, 44, 0
2, 305040, Note_on_c, 0, 32, 58
2, 305150, Note_on_c, 0, 32, 0
2, 305160, Note_on_c, 0, 44, 58
2, 305270, Note_on_c, 0, 44, 0
2, 305280, Note_on_c, 0, 32, 58
2, 305390, Note_on_c, 0, 32, 0
2, 305400, Note_on_c, 0, 44, 58
2, 305510, Note_on_c, 0, 44, 0
2, 305520, Note_on_c, 0, 32, 58
2, 305630, Note_on_c, 0, 32, 0
2, 305640, Note_on_c, 0, 44, 58
2, 305732, Note_on_c, 0, 44, 0
2, 305732, Note_on_c, 0, 75, 0
2, 305732, Note_on_c, 0, 66, 0
2, 305742, Note_on_c, 0, 61, 58
2, 305760, Note_on_c, 0, 73, 58
2, 305760, Note_on_c, 0, 64, 58
2, 305762, Note_on_c, 0, 32, 58
2, 305873, Note_on_c, 0, 32, 0
2, 305883, Note_on_c, 0, 44, 58
2, 305993, Note_on_c, 0, 44, 0
2, 306003, Note_on_c, 0, 32, 58
2, 306113, Note_on_c, 0, 32, 0
2, 306123, Note_on_c, 0, 44, 58
2, 306230, Note_on_c, 0, 44, 0
2, 306230, Note_on_c, 0, 64, 0
2, 306230, Note_on_c, 0, 73, 0
2, 306230, Note_on_c, 0, 61, 0
2, 306240, Note_on_c, 0, 72, 58
2, 306243, Note_on_c, 0, 66, 58
2, 306243, Note_on_c, 0, 63, 58
2, 306246, Note_on_c, 0, 32, 58
2, 306350, Note_on_c, 0, 32, 0
2, 306360, Note_on_c, 0, 44, 58
2, 306470, Note_on_c, 0, 44, 0
2, 306480, Note_on_c, 0, 32, 58
2, 306590, Note_on_c, 0, 32, 0
2, 306590, Note_on_c, 0, 72, 0
2, 306590, Note_on_c, 0, 66, 0
2, 306590, Note_on_c, 0, 63, 0
2, 306600, Note_on_c, 0, 44, 58
2, 306703, Note_on_c, 0, 72, 61
2, 306703, Note_on_c, 0, 66, 61
2, 306703, Note_on_c, 0, 63, 61
2, 306710, Note_on_c, 0, 44, 0
2, 306720, Note_on_c, 0, 32, 58
2, 306830, Note_on_c, 0, 32, 0
2, 306840, Note_on_c, 0, 44, 58
2, 306950, Note_on_c, 0, 44, 0
2, 306960, Note_on_c, 0, 32, 58
2, 307070, Note_on_c, 0, 32, 0
2, 307070, Note_on_c, 0, 63, 0
2, 307070, Note_on_c, 0, 66, 0
2, 307070, Note_on_c, 0, 72, 0
2, 307080, Note_on_c, 0, 44, 58
2, 307172, Note_on_c, 0, 44, 0
2, 307180, Note_on_c, 0, 73, 63
2, 307182, Note_on_c, 0, 64, 63
2, 307182, Note_on_c, 0, 61, 63
2, 307200, Note_on_c, 0, 32, 58
2, 307313, Note_on_c, 0, 32, 0
2, 307323, Note_on_c, 0, 44, 58
2, 307433, Note_on_c, 0, 44, 0
2, 307443, Note_on_c, 0, 32, 58
2, 307553, Note_on_c, 0, 32, 0
2, 307553, Note_on_c, 0, 73, 0
2, 307553, Note_on_c, 0, 64, 0
2, 307553, Note_on_c, 0, 61, 0
2, 307563, Note_on_c, 0, 44, 58
2, 307652, Note_on_c, 0, 44, 0
2, 307660, Note_on_c, 0, 73, 65
2, 307660, Note_on_c, 0, 64, 65
2, 307662, Note_on_c, 0, 61, 65
2, 307683, Note_on_c, 0, 32, 58
2, 307790, Note_on_c, 0, 32, 0
2, 307800, Note_on_c, 0, 44, 58
2, 307910, Note_on_c, 0, 44, 0
2, 307920, Note_on_c, 0, 32, 58
2, 308030, Note_on_c, 0, 32, 0
2, 308030, Note_on_c, 0, 73, 0
2, 308030, Note_on_c, 0, 64, 0
2, 308030, Note_on_c, 0, 61, 0
2, 308040, Note_on_c, 0, 44, 58
2, 308140, Note_on_c, 0, 60, 65
2, 308150, Note_on_c, 0, 44, 0
2, 308160, Note_on_c, 0, 32, 58
2, 308220, Note_on_c, 0, 66, 65
2, 308270, Note_on_c, 0, 32, 0
2, 308270, Note_on_c, 0, 60, 0
2, 308280, Note_on_c, 0, 44, 58
2, 308303, Note_on_c, 0, 75, 65
2, 308390, Note_on_c, 0, 44, 0
2, 308400, Note_on_c, 0, 32, 58
2, 308510, Note_on_c, 0, 32, 0
2, 308520, Note_on_c, 0, 44, 58
2, 308633, Note_on_c, 0, 44, 0
2, 308643, Note_on_c, 0, 32, 58
2, 308753, Note_on_c, 0, 32, 0
2, 308763, Note_on_c, 0, 44, 58
2, 308873, Note_on_c, 0, 44, 0
2, 308883, Note_on_c, 0, 32, 58
2, 308993, Note_on_c, 0, 32, 0
2, 309003, Note_on_c, 0, 44, 58
2, 309110, Note_on_c, 0, 44, 0
2, 309120, Note_on_c, 0, 32, 58
2, 309230, Note_on_c, 0, 32, 0
2, 309240, Note_on_c, 0, 44, 58
2, 309350, Note_on_c, 0, 44, 0
2, 309360, Note_on_c, 0, 32, 58
2, 309470, Note_on_c, 0, 32, 0
2, 309480, Note_on_c, 0, 44, 58
2, 309590, Note_on_c, 0, 44, 0
2, 309590, Note_on_c, 0, 75, 0
2, 309590, Note_on_c, 0, 66, 0
2, 309600, Note_on_c, 0, 64, 65
2, 309600, Note_on_c, 0, 61, 65
2, 309602, Note_on_c, 0, 32, 58
2, 309710, Note_on_c, 0, 32, 0
2, 309720, Note_on_c, 0, 44, 58
2, 309820, Note_on_c, 0, 73, 65
2, 309830, Note_on_c, 0, 44, 0
2, 309830, Note_on_c, 0, 64, 0
2, 309830, Note_on_c, 0, 61, 0
2, 309840, Note_on_c, 0, 32, 58
2, 309953, Note_on_c, 0, 32, 0
2, 309963, Note_on_c, 0, 44, 58
2, 310050, Note_on_c, 0, 73, 0
2, 310060, Note_on_c, 0, 63, 65
2, 310073, Note_on_c, 0, 44, 0
2, 310083, Note_on_c, 0, 66, 65
2, 310083, Note_on_c, 0, 32, 58
2, 310193, Note_on_c, 0, 32, 0
2, 310203, Note_on_c, 0, 44, 58
2, 310290, Note_on_c, 0, 63, 0
2, 310300, Note_on_c, 0, 72, 65
2, 310310, Note_on_c, 0, 44, 0
2, 310310, Note_on_c, 0, 66, 0
2, 310320, Note_on_c, 0, 32, 58
2, 310430, Note_on_c, 0, 32, 0
2, 310440, Note_on_c, 0, 44, 58
2, 310533, Note_on_c, 0, 44, 0
2, 310533, Note_on_c, 0, 72, 0
2, 310543, Note_on_c, 0, 63, 65
2, 310560, Note_on_c, 0, 66, 65
2, 310562, Note_on_c, 0, 32, 58
2, 310670, Note_on_c, 0, 32, 0
2, 310680, Note_on_c, 0, 44, 58
2, 310773, Note_on_c, 0, 44, 0
2, 310773, Note_on_c, 0, 63, 0
2, 310783, Note_on_c, 0, 72, 65
2, 310790, Note_on_c, 0, 66, 0
2, 310800, Note_on_c, 0, 32, 58
2, 310910, Note_on_c, 0, 32, 0
2, 310920, Note_on_c, 0, 44, 58
2, 311012, Note_on_c, 0, 44, 0
2, 311012, Note_on_c, 0, 72, 0
2, 311022, Note_on_c, 0, 61, 65
2, 311040, Note_on_c, 0, 64, 65
2, 311040, Note_on_c, 0, 32, 58
2, 311150, Note_on_c, 0, 32, 0
2, 311160, Note_on_c, 0, 44, 58
2, 311260, Note_on_c, 0, 73, 65
2, 311270, Note_on_c, 0, 44, 0
2, 311270, Note_on_c, 0, 61, 0
2, 311270, Note_on_c, 0, 64, 0
2, 311280, Note_on_c, 0, 32, 58
2, 311393, Note_on_c, 0, 32, 0
2, 311403, Note_on_c, 0, 44, 58
2, 311492, Note_on_c, 0, 44, 0
2, 311492, Note_on_c, 0, 73, 0
2, 311502, Note_on_c, 0, 61, 65
2, 311523, Note_on_c, 0, 64, 65
2, 311523, Note_on_c, 0, 32, 58
2, 311633, Note_on_c, 0, 32, 0
2, 311643, Note_on_c, 0, 44, 58
2, 311730, Note_on_c, 0, 61, 0
2, 311740, Note_on_c, 0, 73, 65
2, 311753, Note_on_c, 0, 44, 0
2, 311753, Note_on_c, 0, 64, 0
2, 311763, Note_on_c, 0, 32, 58
2, 311870, Note_on_c, 0, 32, 0
2, 311880, Note_on_c, 0, 44, 58
2, 311973, Note_on_c, 0, 44, 0
2, 311973, Note_on_c, 0, 73, 0
2, 311983, Note_on_c, 0, 60, 65
2, 312000, Note_on_c, 0, 66, 65
2, 312002, Note_on_c, 0, 32, 58
2, 312110, Note_on_c, 0, 32, 0
2, 312120, Note_on_c, 0, 44, 58
2, 312220, Note_on_c, 0, 75, 65
2, 312230, Note_on_c, 0, 44, 0
2, 312230, Note_on_c, 0, 60, 0
2, 312230, Note_on_c, 0, 66, 0
2, 312240, Note_on_c, 0, 32, 58
2, 312350, Note_on_c, 0, 32, 0
2, 312360, Note_on_c, 0, 44, 58
2, 312452, Note_on_c, 0, 44, 0
2, 312452, Note_on_c, 0, 75, 0
2, 312462, Note_on_c, 0, 60, 65
2, 312480, Note_on_c, 0, 66, 65
2, 312480, Note_on_c, 0, 32, 58
2, 312590, Note_on_c, 0, 32, 0
2, 312600, Note_on_c, 0, 44, 58
2, 312700, Note_on_c, 0, 75, 65
2, 312710, Note_on_c, 0, 44, 0
2, 312710, Note_on_c, 0, 60, 0
2, 312710, Note_on_c, 0, 66, 0
2, 312720, Note_on_c, 0, 32, 58
2, 312833, Note_on_c, 0, 32, 0
2, 312843, Note_on_c, 0, 44, 58
2, 312930, Note_on_c, 0, 75, 0
2, 312940, Note_on_c, 0, 61, 65
2, 312953, Note_on_c, 0, 44, 0
2, 312963, Note_on_c, 0, 64, 65
2, 312963, Note_on_c, 0, 32, 58
2, 313073, Note_on_c, 0, 32, 0
2, 313083, Note_on_c, 0, 44, 58
2, 313173, Note_on_c, 0, 61, 0
2, 313183, Note_on_c, 0, 73, 65
2, 313192, Note_on_c, 0, 44, 0
2, 313192, Note_on_c, 0, 64, 0
2, 313202, Note_on_c, 0, 32, 58
2, 313310, Note_on_c, 0, 32, 0
2, 313320, Note_on_c, 0, 44, 58
2, 313413, Note_on_c, 0, 44, 0
2, 313413, Note_on_c, 0, 73, 0
2, 313423, Note_on_c, 0, 61, 65
2, 313440, Note_on_c, 0, 64, 65
2, 313442, Note_on_c, 0, 32, 58
2, 313550, Note_on_c, 0, 32, 0
2, 313560, Note_on_c, 0, 44, 58
2, 313660, Note_on_c, 0, 73, 65
2, 313670, Note_on_c, 0, 44, 0
2, 313670, Note_on_c, 0, 61, 0
2, 313670, Note_on_c, 0, 64, 0
2, 313680, Note_on_c, 0, 32, 58
2, 313790, Note_on_c, 0, 32, 0
2, 313800, Note_on_c, 0, 44, 58
2, 313892, Note_on_c, 0, 73, 0
2, 313895, Note_on_c, 0, 44, 0
2, 313902, Note_on_c, 0, 63, 58
2, 313902, Note_on_c, 0, 61, 58
2, 313905, Note_on_c, 0, 57, 58
2, 313905, Note_on_c, 0, 42, 58
2, 313920, Note_on_c, 0, 69, 58
2, 313920, Note_on_c, 0, 30, 58
2, 315830, Note_on_c, 0, 30, 0
2, 315830, Note_on_c, 0, 61, 0
2, 315830, Note_on_c, 0, 57, 0
2, 315830, Note_on_c, 0, 63, 0
2, 315830, Note_on_c, 0, 69, 0
2, 315830, Note_on_c, 0, 42, 0
2, 315840, Note_on_c, 0, 68, 58
2, 315842, Note_on_c, 0, 63, 58
2, 315842, Note_on_c, 0, 60, 58
2, 315845, Note_on_c, 0, 32, 58
2, 315845, Note_on_c, 0, 56, 58
2, 315845, Note_on_c, 0, 44, 58
2, 317750, Note_on_c, 0, 44, 0
2, 317750, Note_on_c, 0, 63, 0
2, 317750, Note_on_c, 0, 60, 0
2, 317750, Note_on_c, 0, 68, 0
2, 317750, Note_on_c, 0, 56, 0
2, 317750, Note_on_c, 0, 32, 0
2, 317760, Note_on_c, 0, 37, 58
2, 317860, Note_on_c, 0, 44, 58
2, 317972, Note_on_c, 0, 44, 0
2, 317972, Note_on_c, 0, 37, 0
2, 317982, Note_on_c, 0, 44, 58
2, 318000, Note_on_c, 0, 49, 58
2, 318113, Note_on_c, 0, 49, 0
2, 318123, Note_on_c, 0, 52, 58
2, 318210, Note_on_c, 0, 52, 0
2, 318210, Note_on_c, 0, 44, 0
2, 318220, Note_on_c, 0, 37, 58
2, 318243, Note_on_c, 0, 56, 58
2, 318353, Note_on_c, 0, 56, 0
2, 318363, Note_on_c, 0, 49, 58
2, 318450, Note_on_c, 0, 49, 0
2, 318450, Note_on_c, 0, 37, 0
2, 318460, Note_on_c, 0, 44, 58
2, 318480, Note_on_c, 0, 52, 58
2, 318590, Note_on_c, 0, 52, 0
2, 318600, Note_on_c, 0, 56, 58
2, 318693, Note_on_c, 0, 56, 0
2, 318693, Note_on_c, 0, 44, 0
2, 318703, Note_on_c, 0, 37, 58
2, 318720, Note_on_c, 0, 61, 58
2, 318830, Note_on_c, 0, 61, 0
2, 318840, Note_on_c, 0, 52, 58
2, 318933, Note_on_c, 0, 52, 0
2, 318933, Note_on_c, 0, 37, 0
2, 318943, Note_on_c, 0, 44, 58
2, 318960, Note_on_c, 0, 56, 58
2, 319070, Note_on_c, 0, 56, 0
2, 319080, Note_on_c, 0, 61, 58
2, 319172, Note_on_c, 0, 61, 0
2, 319172, Note_on_c, 0, 44, 0
2, 319182, Note_on_c, 0, 37, 58
2, 319200, Note_on_c, 0, 64, 58
2, 319310, Note_on_c, 0, 64, 0
2, 319320, Note_on_c, 0, 56, 58
2, 319412, Note_on_c, 0, 56, 0
2, 319412, Note_on_c, 0, 37, 0
2, 319422, Note_on_c, 0, 44, 58
2, 319440, Note_on_c, 0, 61, 58
2, 319553, Note_on_c, 0, 61, 0
2, 319563, Note_on_c, 0, 64, 58
2, 319650, Note_on_c, 0, 64, 0
2, 319650, Note_on_c, 0, 44, 0
2, 319660, Note_on_c, 0, 37, 58
2, 319683, Note_on_c, 0, 68, 58
2, 319790, Note_on_c, 0, 68, 0
2, 319800, Note_on_c, 0, 61, 58
2, 319893, Note_on_c, 0, 61, 0
2, 319893, Note_on_c, 0, 37, 0
2, 319903, Note_on_c, 0, 44, 58
2, 319920, Note_on_c, 0, 64, 58
2, 320030, Note_on_c, 0, 64, 0
2, 320040, Note_on_c, 0, 68, 58
2, 320133, Note_on_c, 0, 68, 0
2, 320133, Note_on_c, 0, 44, 0
2, 320143, Note_on_c, 0, 37, 58
2, 320160, Note_on_c, 0, 73, 58
2, 320270, Note_on_c, 0, 73, 0
2, 320280, Note_on_c, 0, 64, 58
2, 320372, Note_on_c, 0, 64, 0
2, 320372, Note_on_c, 0, 37, 0
2, 320382, Note_on_c, 0, 44, 58
2, 320400, Note_on_c, 0, 68, 58
2, 320510, Note_on_c, 0, 68, 0
2, 320520, Note_on_c, 0, 73, 58
2, 320612, Note_on_c, 0, 73, 0
2, 320612, Note_on_c, 0, 44, 0
2, 320622, Note_on_c, 0, 37, 58
2, 320640, Note_on_c, 0, 76, 58
2, 320750, Note_on_c, 0, 76, 0
2, 320760, Note_on_c, 0, 68, 58
2, 320850, Note_on_c, 0, 68, 0
2, 320850, Note_on_c, 0, 37, 0
2, 320860, Note_on_c, 0, 44, 58
2, 320883, Note_on_c, 0, 73, 58
2, 320993, Note_on_c, 0, 73, 0
2, 321003, Note_on_c, 0, 76, 58
2, 321090, Note_on_c, 0, 76, 0
2, 321090, Note_on_c, 0, 44, 0
2, 321100, Note_on_c, 0, 49, 58
2, 321102, Note_on_c, 0, 76, 63
2, 321102, Note_on_c, 0, 73, 63
2, 321103, Control_c, 0, 64, 127
2, 321105, Note_on_c, 0, 68, 63
2, 321105, Note_on_c, 0, 37, 58
2, 321123, Note_on_c, 0, 80, 63
2, 321333, Note_on_c, 0, 80, 0
2, 321333, Note_on_c, 0, 49, 0
2, 321333, Note_on_c, 0, 37, 0
2, 321343, Note_on_c, 0, 44, 58
2, 321350, Note_on_c, 0, 76, 0
2, 321350, Note_on_c, 0, 73, 0
2, 321350, Note_on_c, 0, 68, 0
2, 321360, Note_on_c, 0, 80, 63
2, 321362, Note_on_c, 0, 76, 63
2, 321362, Note_on_c, 0, 73, 63
2, 321365, Note_on_c, 0, 68, 63
2, 321573, Note_on_c, 0, 76, 0
2, 321573, Note_on_c, 0, 44, 0
2, 321573, Note_on_c, 0, 80, 0
2, 321579, Control_c, 0, 64, 0
2, 321583, Note_on_c, 0, 36, 58
2, 321693, Note_on_c, 0, 73, 0
2, 321693, Note_on_c, 0, 68, 0
2, 321703, Note_on_c, 0, 44, 58
2, 321812, Note_on_c, 0, 44, 0
2, 321812, Note_on_c, 0, 36, 0
2, 321822, Note_on_c, 0, 44, 58
2, 321840, Note_on_c, 0, 48, 58
2, 321950, Note_on_c, 0, 48, 0
2, 321960, Note_on_c, 0, 51, 58
2, 322052, Note_on_c, 0, 51, 0
2, 322052, Note_on_c, 0, 44, 0
2, 322062, Note_on_c, 0, 36, 58
2, 322080, Note_on_c, 0, 56, 58
2, 322193, Note_on_c, 0, 56, 0
2, 322203, Note_on_c, 0, 48, 58
2, 322290, Note_on_c, 0, 48, 0
2, 322290, Note_on_c, 0, 36, 0
2, 322300, Note_on_c, 0, 44, 58
2, 322323, Note_on_c, 0, 51, 58
2, 322433, Note_on_c, 0, 51, 0
2, 322443, Note_on_c, 0, 56, 58
2, 322530, Note_on_c, 0, 56, 0
2, 322530, Note_on_c, 0, 44, 0
2, 322540, Note_on_c, 0, 36, 58
2, 322560, Note_on_c, 0, 60, 58
2, 322670, Note_on_c, 0, 60, 0
2, 322680, Note_on_c, 0, 51, 58
2, 322773, Note_on_c, 0, 51, 0
2, 322773, Note_on_c, 0, 36, 0
2, 322783, Note_on_c, 0, 44, 58
2, 322800, Note_on_c, 0, 56, 58
2, 322910, Note_on_c, 0, 56, 0
2, 322920, Note_on_c, 0, 60, 58
2, 323013, Note_on_c, 0, 60, 0
2, 323013, Note_on_c, 0, 44, 0
2, 323023, Note_on_c, 0, 36, 58
2, 323040, Note_on_c, 0, 63, 58
2, 323150, Note_on_c, 0, 63, 0
2, 323160, Note_on_c, 0, 56, 58
2, 323252, Note_on_c, 0, 56, 0
2, 323252, Note_on_c, 0, 36, 0
2, 323262, Note_on_c, 0, 44, 58
2, 323280, Note_on_c, 0, 60, 58
2, 323390, Note_on_c, 0, 60, 0
2, 323400, Note_on_c, 0, 63, 58
2, 323492, Note_on_c, 0, 63, 0
2, 323492, Note_on_c, 0, 44, 0
2, 323502, Note_on_c, 0, 36, 58
2, 323523, Note_on_c, 0, 68, 58
2, 323633, Note_on_c, 0, 68, 0
2, 323643, Note_on_c, 0, 60, 58
2, 323730, Note_on_c, 0, 60, 0
2, 323730, Note_on_c, 0, 36, 0
2, 323740, Note_on_c, 0, 44, 58
2, 323763, Note_on_c, 0, 63, 58
2, 323870, Note_on_c, 0, 63, 0
2, 323880, Note_on_c, 0, 68, 58
2, 323973, Note_on_c, 0, 68, 0
2, 323973, Note_on_c, 0, 44, 0
2, 323983, Note_on_c, 0, 36, 58
2, 324000, Note_on_c, 0, 72, 58
2, 324110, Note_on_c, 0, 72, 0
2, 324120, Note_on_c, 0, 63, 58
2, 324213, Note_on_c, 0, 63, 0
2, 324213, Note_on_c, 0, 36, 0
2, 324223, Note_on_c, 0, 44, 58
2, 324240, Note_on_c, 0, 68, 58
2, 324350, Note_on_c, 0, 68, 0
2, 324360, Note_on_c, 0, 72, 58
2, 324452, Note_on_c, 0, 72, 0
2, 324452, Note_on_c, 0, 44, 0
2, 324462, Note_on_c, 0, 36, 58
2, 324480, Note_on_c, 0, 75, 58
2, 324590, Note_on_c, 0, 75, 0
2, 324600, Note_on_c, 0, 68, 58
2, 324692, Note_on_c, 0, 68, 0
2, 324692, Note_on_c, 0, 36, 0
2, 324702, Note_on_c, 0, 44, 58
2, 324720, Note_on_c, 0, 72, 58
2, 324830, Note_on_c, 0, 72, 0
2, 324840, Note_on_c, 0, 75, 58
2, 324932, Note_on_c, 0, 75, 0
2, 324932, Note_on_c, 0, 44, 0
2, 324942, Note_on_c, 0, 36, 58
2, 324942, Note_on_c, 0, 75, 63
2, 324942, Note_on_c, 0, 72, 63
2, 324943, Control_c, 0, 64, 127
2, 324945, Note_on_c, 0, 68, 63
2, 324945, Note_on_c, 0, 48, 58
2, 324963, Note_on_c, 0, 80, 63
2, 325170, Note_on_c, 0, 80, 0
2, 325170, Note_on_c, 0, 36, 0
2, 325180, Note_on_c, 0, 44, 58
2, 325193, Note_on_c, 0, 68, 0
2, 325193, Note_on_c, 0, 48, 0
2, 325193, Note_on_c, 0, 75, 0
2, 325193, Note_on_c, 0, 72, 0
2, 325203, Note_on_c, 0, 80, 63
2, 325203, Note_on_c, 0, 75, 63
2, 325203, Note_on_c, 0, 72, 63
2, 325206, Note_on_c, 0, 68, 63
2, 325413, Note_on_c, 0, 80, 0
2, 325413, Note_on_c, 0, 44, 0
2, 325419, Control_c, 0, 64, 0
2, 325423, Note_on_c, 0, 35, 58
2, 325533, Note_on_c, 0, 72, 0
2, 325533, Note_on_c, 0, 68, 0
2, 325533, Note_on_c, 0, 75, 0
2, 325543, Note_on_c, 0, 49, 58
2, 325653, Note_on_c, 0, 49, 0
2, 325653, Note_on_c, 0, 35, 0
2, 325663, Note_on_c, 0, 44, 58
2, 325680, Note_on_c, 0, 53, 58
2, 325790, Note_on_c, 0, 53, 0
2, 325800, Note_on_c, 0, 56, 58
2, 325892, Note_on_c, 0, 56, 0
2, 325892, Note_on_c, 0, 44, 0
2, 325902, Note_on_c, 0, 35, 58
2, 325920, Note_on_c, 0, 61, 58
2, 326030, Note_on_c, 0, 61, 0
2, 326040, Note_on_c, 0, 53, 58
2, 326132, Note_on_c, 0, 53, 0
2, 326132, Note_on_c, 0, 35, 0
2, 326142, Note_on_c, 0, 44, 58
2, 326160, Note_on_c, 0, 56, 58
2, 326273, Note_on_c, 0, 56, 0
2, 326283, Note_on_c, 0, 61, 58
2, 326370, Note_on_c, 0, 61, 0
2, 326370, Note_on_c, 0, 44, 0
2, 326380, Note_on_c, 0, 35, 58
2, 326403, Note_on_c, 0, 65, 58
2, 326513, Note_on_c, 0, 65, 0
2, 326523, Note_on_c, 0, 56, 58
2, 326610, Note_on_c, 0, 56, 0
2, 326610, Note_on_c, 0, 35, 0
2, 326620, Note_on_c, 0, 44, 58
2, 326640, Note_on_c, 0, 61, 58
2, 326750, Note_on_c, 0, 61, 0
2, 326760, Note_on_c, 0, 65, 58
2, 326853, Note_on_c, 0, 65, 0
2, 326853, Note_on_c, 0, 44, 0
2, 326863, Note_on_c, 0, 35, 58
2, 326880, Note_on_c, 0, 68, 58
2, 326990, Note_on_c, 0, 68, 0
2, 327000, Note_on_c, 0, 61, 58
2, 327093, Note_on_c, 0, 61, 0
2, 327093, Note_on_c, 0, 35, 0
2, 327103, Note_on_c, 0, 44, 58
2, 327120, Note_on_c, 0, 65, 58
2, 327230, Note_on_c, 0, 65, 0
2, 327240, Note_on_c, 0, 68, 58
2, 327333, Note_on_c, 0, 68, 0
2, 327333, Note_on_c, 0, 44, 0
2, 327343, Note_on_c, 0, 35, 58
2, 327360, Note_on_c, 0, 73, 58
2, 327470, Note_on_c, 0, 73, 0
2, 327480, Note_on_c, 0, 65, 58
2, 327572, Note_on_c, 0, 65, 0
2, 327572, Note_on_c, 0, 35, 0
2, 327582, Note_on_c, 0, 44, 58
2, 327603, Note_on_c, 0, 68, 58
2, 327713, Note_on_c, 0, 68, 0
2, 327723, Note_on_c, 0, 73, 58
2, 327810, Note_on_c, 0, 73, 0
2, 327810, Note_on_c, 0, 44, 0
2, 327820, Note_on_c, 0, 35, 58
2, 327843, Note_on_c, 0, 77, 58
2, 327950, Note_on_c, 0, 77, 0
2, 327960, Note_on_c, 0, 68, 58
2, 328053, Note_on_c, 0, 68, 0
2, 328053, Note_on_c, 0, 35, 0
2, 328063, Note_on_c, 0, 44, 58
2, 328080, Note_on_c, 0, 73, 58
2, 328190, Note_on_c, 0, 73, 0
2, 328200, Note_on_c, 0, 77, 58
2, 328293, Note_on_c, 0, 77, 0
2, 328293, Note_on_c, 0, 44, 0
2, 328303, Note_on_c, 0, 35, 58
2, 328320, Note_on_c, 0, 80, 58
2, 328430, Note_on_c, 0, 80, 0
2, 328440, Note_on_c, 0, 73, 58
2, 328533, Note_on_c, 0, 73, 0
2, 328533, Note_on_c, 0, 35, 0
2, 328543, Note_on_c, 0, 44, 58
2, 328560, Note_on_c, 0, 77, 58
2, 328670, Note_on_c, 0, 77, 0
2, 328680, Note_on_c, 0, 80, 58
2, 328772, Note_on_c, 0, 80, 0
2, 328772, Note_on_c, 0, 44, 0
2, 328782, Note_on_c, 0, 35, 58
2, 328782, Note_on_c, 0, 80, 63
2, 328782, Note_on_c, 0, 77, 63
2, 328783, Control_c, 0, 64, 127
2, 328785, Note_on_c, 0, 73, 63
2, 328785, Note_on_c, 0, 47, 58
2, 328800, Note_on_c, 0, 85, 63
2, 329010, Note_on_c, 0, 85, 0
2, 329010, Note_on_c, 0, 35, 0
2, 329010, Note_on_c, 0, 47, 0
2, 329020, Note_on_c, 0, 44, 58
2, 329033, Note_on_c, 0, 80, 0
2, 329033, Note_on_c, 0, 77, 0
2, 329033, Note_on_c, 0, 73, 0
2, 329043, Note_on_c, 0, 85, 63
2, 329043, Note_on_c, 0, 80, 63
2, 329043, Note_on_c, 0, 77, 63
2, 329046, Note_on_c, 0, 73, 63
2, 329250, Note_on_c, 0, 85, 0
2, 329250, Note_on_c, 0, 44, 0
2, 329259, Control_c, 0, 64, 0
2, 329260, Note_on_c, 0, 33, 58
2, 329370, Note_on_c, 0, 77, 0
2, 329370, Note_on_c, 0, 73, 0
2, 329370, Note_on_c, 0, 80, 0
2, 329380, Note_on_c, 0, 49, 58
2, 329493, Note_on_c, 0, 33, 0
2, 329503, Note_on_c, 0, 54, 58
2, 329503, Note_on_c, 0, 45, 58
2, 329613, Note_on_c, 0, 49, 0
2, 329623, Note_on_c, 0, 57, 58
2, 329733, Note_on_c, 0, 57, 0
2, 329733, Note_on_c, 0, 45, 0
2, 329733, Note_on_c, 0, 54, 0
2, 329743, Note_on_c, 0, 33, 58
2, 329760, Note_on_c, 0, 61, 58
2, 329870, Note_on_c, 0, 61, 0
2, 329880, Note_on_c, 0, 61, 63
2, 329970, Note_on_c, 0, 33, 0
2, 329980, Note_on_c, 0, 66, 63
2, 329982, Note_on_c, 0, 45, 58
2, 330090, Note_on_c, 0, 61, 0
2, 330100, Note_on_c, 0, 69, 63
2, 330212, Note_on_c, 0, 69, 0
2, 330212, Note_on_c, 0, 45, 0
2, 330212, Note_on_c, 0, 66, 0
2, 330222, Note_on_c, 0, 33, 58
2, 330240, Note_on_c, 0, 73, 63
2, 330353, Note_on_c, 0, 73, 0
2, 330363, Note_on_c, 0, 73, 71
2, 330450, Note_on_c, 0, 33, 0
2, 330460, Note_on_c, 0, 78, 71
2, 330460, Note_on_c, 0, 45, 58
2, 330570, Note_on_c, 0, 73, 0
2, 330580, Note_on_c, 0, 81, 71
2, 330690, Note_on_c, 0, 81, 0
2, 330690, Note_on_c, 0, 45, 0
2, 330690, Note_on_c, 0, 78, 0
2, 330700, Note_on_c, 0, 33, 58
2, 330702, Note_on_c, 0, 78, 71
2, 330702, Note_on_c, 0, 73, 71
2, 330703, Control_c, 0, 64, 127
2, 330720, Note_on_c, 0, 85, 79
2, 330933, Note_on_c, 0, 85, 0
2, 330933, Note_on_c, 0, 33, 0
2, 330933, Note_on_c, 0, 78, 0
2, 330943, Note_on_c, 0, 45, 58
2, 330950, Note_on_c, 0, 73, 0
2, 330960, Note_on_c, 0, 85, 79
2, 330962, Note_on_c, 0, 78, 71
2, 330962, Note_on_c, 0, 73, 71
2, 331173, Note_on_c, 0, 78, 0
2, 331173, Note_on_c, 0, 45, 0
2, 331173, Note_on_c, 0, 85, 0
2, 331179, Control_c, 0, 64, 0
2, 331183, Note_on_c, 0, 33, 58
2, 331290, Note_on_c, 0, 73, 0
2, 331300, Note_on_c, 0, 49, 58
2, 331410, Note_on_c, 0, 33, 0
2, 331420, Note_on_c, 0, 52, 58
2, 331422, Note_on_c, 0, 45, 58
2, 331530, Note_on_c, 0, 49, 0
2, 331540, Note_on_c, 0, 55, 58
2, 331652, Note_on_c, 0, 55, 0
2, 331652, Note_on_c, 0, 45, 0
2, 331652, Note_on_c, 0, 52, 0
2, 331662, Note_on_c, 0, 33, 58
2, 331683, Note_on_c, 0, 61, 58
2, 331793, Note_on_c, 0, 61, 0
2, 331803, Note_on_c, 0, 61, 63
2, 331890, Note_on_c, 0, 33, 0
2, 331900, Note_on_c, 0, 64, 63
2, 331900, Note_on_c, 0, 45, 58
2, 332010, Note_on_c, 0, 61, 0
2, 332020, Note_on_c, 0, 67, 63
2, 332133, Note_on_c, 0, 67, 0
2, 332133, Note_on_c, 0, 45, 0
2, 332133, Note_on_c, 0, 64, 0
2, 332143, Note_on_c, 0, 33, 58
2, 332160, Note_on_c, 0, 73, 63
2, 332270, Note_on_c, 0, 73, 0
2, 332280, Note_on_c, 0, 73, 71
2, 332373, Note_on_c, 0, 33, 0
2, 332383, Note_on_c, 0, 76, 71
2, 332383, Note_on_c, 0, 45, 58
2, 332493, Note_on_c, 0, 73, 0
2, 332503, Note_on_c, 0, 79, 71
2, 332612, Note_on_c, 0, 79, 0
2, 332612, Note_on_c, 0, 45, 0
2, 332612, Note_on_c, 0, 76, 0
2, 332622, Note_on_c, 0, 33, 58
2, 332622, Note_on_c, 0, 79, 71
2, 332623, Control_c, 0, 64, 127
2, 332625, Note_on_c, 0, 73, 71
2, 332640, Note_on_c, 0, 85, 79
2, 332852, Note_on_c, 0, 85, 0
2, 332852, Note_on_c, 0, 33, 0
2, 332852, Note_on_c, 0, 79, 0
2, 332852, Note_on_c, 0, 73, 0
2, 332862, Note_on_c, 0, 45, 58
2, 332880, Note_on_c, 0, 85, 79
2, 332880, Note_on_c, 0, 79, 71
2, 332882, Note_on_c, 0, 73, 71
2, 333092, Note_on_c, 0, 73, 0
2, 333092, Note_on_c, 0, 45, 0
2, 333092, Note_on_c, 0, 85, 0
2, 333092, Note_on_c, 0, 79, 0
2, 333099, Control_c, 0, 64, 0
2, 333102, Note_on_c, 0, 44, 79
2, 333105, Note_on_c, 0, 32, 79
2, 333123, Note_on_c, 0, 84, 79
2, 333123, Note_on_c, 0, 80, 79
2, 333123, Note_on_c, 0, 72, 71
2, 333353, Note_on_c, 0, 72, 0
2, 333353, Note_on_c, 0, 84, 0
2, 333353, Note_on_c, 0, 44, 0
2, 333353, Note_on_c, 0, 32, 0
2, 333353, Note_on_c, 0, 80, 0
2, 333363, Note_on_c, 0, 68, 79
2, 333363, Note_on_c, 0, 60, 79
2, 333363, Note_on_c, 0, 56, 79
2, 333470, Note_on_c, 0, 68, 0
2, 333480, Note_on_c, 0, 80, 79
2, 333590, Note_on_c, 0, 80, 0
2, 333590, Note_on_c, 0, 60, 0
2, 333600, Note_on_c, 0, 68, 79
2, 333602, Note_on_c, 0, 60, 79
2, 333710, Note_on_c, 0, 68, 0
2, 333720, Note_on_c, 0, 80, 79
2, 333830, Note_on_c, 0, 80, 0
2, 333830, Note_on_c, 0, 60, 0
2, 333840, Note_on_c, 0, 70, 79
2, 333842, Note_on_c, 0, 61, 79
2, 333950, Note_on_c, 0, 70, 0
2, 333960, Note_on_c, 0, 80, 79
2, 334070, Note_on_c, 0, 80, 0
2, 334070, Note_on_c, 0, 61, 0
2, 334080, Note_on_c, 0, 72, 79
2, 334080, Note_on_c, 0, 63, 79
2, 334190, Note_on_c, 0, 72, 0
2, 334200, Note_on_c, 0, 80, 79
2, 334310, Note_on_c, 0, 80, 0
2, 334310, Note_on_c, 0, 63, 0
2, 334320, Note_on_c, 0, 73, 79
2, 334320, Note_on_c, 0, 64, 79
2, 334433, Note_on_c, 0, 73, 0
2, 334443, Note_on_c, 0, 80, 79
2, 334553, Note_on_c, 0, 80, 0
2, 334553, Note_on_c, 0, 64, 0
2, 334563, Note_on_c, 0, 75, 79
2, 334563, Note_on_c, 0, 66, 79
2, 334673, Note_on_c, 0, 75, 0
2, 334683, Note_on_c, 0, 80, 79
2, 334790, Note_on_c, 0, 80, 0
2, 334790, Note_on_c, 0, 66, 0
2, 334800, Note_on_c, 0, 72, 79
2, 334803, Note_on_c, 0, 63, 79
2, 334910, Note_on_c, 0, 72, 0
2, 334920, Note_on_c, 0, 80, 79
2, 335030, Note_on_c, 0, 80, 0
2, 335030, Note_on_c, 0, 63, 0
2, 335040, Note_on_c, 0, 75, 79
2, 335042, Note_on_c, 0, 66, 79
2, 335150, Note_on_c, 0, 75, 0
2, 335160, Note_on_c, 0, 80, 79
2, 335270, Note_on_c, 0, 80, 0
2, 335270, Note_on_c, 0, 66, 0
2, 335280, Note_on_c, 0, 73, 79
2, 335280, Note_on_c, 0, 64, 79
2, 335390, Note_on_c, 0, 73, 0
2, 335400, Note_on_c, 0, 80, 79
2, 335510, Note_on_c, 0, 80, 0
2, 335510, Note_on_c, 0, 64, 0
2, 335520, Note_on_c, 0, 78, 79
2, 335520, Note_on_c, 0, 69, 79
2, 335630, Note_on_c, 0, 78, 0
2, 335640, Note_on_c, 0, 80, 79
2, 335753, Note_on_c, 0, 80, 0
2, 335753, Note_on_c, 0, 69, 0
2, 335763, Note_on_c, 0, 76, 79
2, 335763, Note_on_c, 0, 68, 79
2, 335873, Note_on_c, 0, 76, 0
2, 335883, Note_on_c, 0, 80, 79
2, 335993, Note_on_c, 0, 80, 0
2, 335993, Note_on_c, 0, 68, 0
2, 336003, Note_on_c, 0, 75, 79
2, 336003, Note_on_c, 0, 66, 79
2, 336110, Note_on_c, 0, 75, 0
2, 336120, Note_on_c, 0, 80, 79
2, 336230, Note_on_c, 0, 80, 0
2, 336230, Note_on_c, 0, 66, 0
2, 336240, Note_on_c, 0, 73, 79
2, 336242, Note_on_c, 0, 64, 79
2, 336350, Note_on_c, 0, 73, 0
2, 336360, Note_on_c, 0, 80, 79
2, 336470, Note_on_c, 0, 80, 0
2, 336470, Note_on_c, 0, 64, 0
2, 336480, Note_on_c, 0, 72, 79
2, 336482, Note_on_c, 0, 63, 79
2, 336590, Note_on_c, 0, 72, 0
2, 336600, Note_on_c, 0, 80, 79
2, 336710, Note_on_c, 0, 80, 0
2, 336710, Note_on_c, 0, 63, 0
2, 336720, Note_on_c, 0, 69, 79
2, 336720, Note_on_c, 0, 61, 79
2, 336830, Note_on_c, 0, 69, 0
2, 336840, Note_on_c, 0, 79, 79
2, 336950, Note_on_c, 0, 79, 0
2, 336950, Note_on_c, 0, 61, 0
2, 336950, Note_on_c, 0, 56, 0
2, 336960, Note_on_c, 0, 68, 79
2, 336960, Note_on_c, 0, 60, 79
2, 336962, Note_on_c, 0, 56, 79
2, 337070, Note_on_c, 0, 68, 0
2, 337080, Note_on_c, 0, 80, 79
2, 337193, Note_on_c, 0, 80, 0
2, 337193, Note_on_c, 0, 60, 0
2, 337203, Note_on_c, 0, 68, 79
2, 337203, Note_on_c, 0, 60, 79
2, 337313, Note_on_c, 0, 68, 0
2, 337323, Note_on_c, 0, 80, 79
2, 337433, Note_on_c, 0, 80, 0
2, 337433, Note_on_c, 0, 60, 0
2, 337443, Note_on_c, 0, 68, 79
2, 337443, Note_on_c, 0, 60, 79
2, 337550, Note_on_c, 0, 68, 0
2, 337560, Note_on_c, 0, 80, 79
2, 337670, Note_on_c, 0, 80, 0
2, 337670, Note_on_c, 0, 60, 0
2, 337680, Note_on_c, 0, 70, 79
2, 337682, Note_on_c, 0, 61, 79
2, 337790, Note_on_c, 0, 70, 0
2, 337800, Note_on_c, 0, 80, 79
2, 337910, Note_on_c, 0, 80, 0
2, 337910, Note_on_c, 0, 61, 0
2, 337920, Note_on_c, 0, 72, 79
2, 337922, Note_on_c, 0, 63, 79
2, 338030, Note_on_c, 0, 72, 0
2, 338040, Note_on_c, 0, 80, 79
2, 338150, Note_on_c, 0, 80, 0
2, 338150, Note_on_c, 0, 63, 0
2, 338160, Note_on_c, 0, 73, 79
2, 338160, Note_on_c, 0, 64, 79
2, 338270, Note_on_c, 0, 73, 0
2, 338280, Note_on_c, 0, 80, 79
2, 338390, Note_on_c, 0, 80, 0
2, 338390, Note_on_c, 0, 64, 0
2, 338400, Note_on_c, 0, 75, 79
2, 338400, Note_on_c, 0, 66, 79
2, 338513, Note_on_c, 0, 75, 0
2, 338523, Note_on_c, 0, 80, 79
2, 338633, Note_on_c, 0, 80, 0
2, 338633, Note_on_c, 0, 66, 0
2, 338643, Note_on_c, 0, 72, 79
2, 338643, Note_on_c, 0, 63, 79
2, 338753, Note_on_c, 0, 72, 0
2, 338763, Note_on_c, 0, 80, 79
2, 338870, Note_on_c, 0, 80, 0
2, 338870, Note_on_c, 0, 63, 0
2, 338880, Note_on_c, 0, 75, 79
2, 338883, Note_on_c, 0, 66, 79
2, 338990, Note_on_c, 0, 75, 0
2, 339000, Note_on_c, 0, 80, 79
2, 339110, Note_on_c, 0, 80, 0
2, 339110, Note_on_c, 0, 66, 0
2, 339120, Note_on_c, 0, 73, 79
2, 339122, Note_on_c, 0, 64, 79
2, 339230, Note_on_c, 0, 73, 0
2, 339240, Note_on_c, 0, 80, 79
2, 339350, Note_on_c, 0, 80, 0
2, 339350, Note_on_c, 0, 64, 0
2, 339360, Note_on_c, 0, 78, 79
2, 339360, Note_on_c, 0, 69, 79
2, 339470, Note_on_c, 0, 78, 0
2, 339480, Note_on_c, 0, 80, 79
2, 339590, Note_on_c, 0, 80, 0
2, 339590, Note_on_c, 0, 69, 0
2, 339600, Note_on_c, 0, 76, 79
2, 339600, Note_on_c, 0, 68, 79
2, 339710, Note_on_c, 0, 76, 0
2, 339720, Note_on_c, 0, 80, 79
2, 339833, Note_on_c, 0, 80, 0
2, 339833, Note_on_c, 0, 68, 0
2, 339843, Note_on_c, 0, 75, 79
2, 339843, Note_on_c, 0, 66, 79
2, 339953, Note_on_c, 0, 75, 0
2, 339963, Note_on_c, 0, 80, 79
2, 340073, Note_on_c, 0, 80, 0
2, 340073, Note_on_c, 0, 66, 0
2, 340083, Note_on_c, 0, 73, 79
2, 340083, Note_on_c, 0, 64, 79
2, 340190, Note_on_c, 0, 73, 0
2, 340200, Note_on_c, 0, 80, 79
2, 340310, Note_on_c, 0, 80, 0
2, 340310, Note_on_c, 0, 64, 0
2, 340320, Note_on_c, 0, 72, 79
2, 340322, Note_on_c, 0, 63, 79
2, 340430, Note_on_c, 0, 72, 0
2, 340440, Note_on_c, 0, 80, 79
2, 340550, Note_on_c, 0, 80, 0
2, 340550, Note_on_c, 0, 63, 0
2, 340560, Note_on_c, 0, 69, 79
2, 340562, Note_on_c, 0, 61, 79
2, 340670, Note_on_c, 0, 69, 0
2, 340680, Note_on_c, 0, 79, 79
2, 340790, Note_on_c, 0, 79, 0
2, 340790, Note_on_c, 0, 61, 0
2, 340790, Note_on_c, 0, 56, 0
2, 340800, Note_on_c, 0, 68, 79
2, 340800, Note_on_c, 0, 60, 79
2, 340802, Note_on_c, 0, 56, 79
2, 340910, Note_on_c, 0, 68, 0
2, 340920, Note_on_c, 0, 80, 79
2, 341030, Note_on_c, 0, 80, 0
2, 341030, Note_on_c, 0, 56, 0
2, 341030, Note_on_c, 0, 60, 0
2, 341040, Note_on_c, 0, 69, 79
2, 341040, Note_on_c, 0, 61, 79
2, 341042, Note_on_c, 0, 56, 79
2, 341150, Note_on_c, 0, 69, 0
2, 341160, Note_on_c, 0, 79, 79
2, 341273, Note_on_c, 0, 79, 0
2, 341273, Note_on_c, 0, 56, 0
2, 341273, Note_on_c, 0, 61, 0
2, 341283, Note_on_c, 0, 68, 79
2, 341283, Note_on_c, 0, 60, 79
2, 341283, Note_on_c, 0, 56, 79
2, 341393, Note_on_c, 0, 68, 0
2, 341403, Note_on_c, 0, 80, 79
2, 341510, Note_on_c, 0, 80, 0
2, 341510, Note_on_c, 0, 56, 0
2, 341510, Note_on_c, 0, 60, 0
2, 341520, Note_on_c, 0, 69, 79
2, 341523, Note_on_c, 0, 61, 79
2, 341523, Note_on_c, 0, 56, 79
2, 341630, Note_on_c, 0, 69, 0
2, 341640, Note_on_c, 0, 79, 79
2, 341750, Note_on_c, 0, 79, 0
2, 341750, Note_on_c, 0, 56, 0
2, 341750, Note_on_c, 0, 61, 0
2, 341760, Note_on_c, 0, 68, 79
2, 341762, Note_on_c, 0, 60, 79
2, 341762, Note_on_c, 0, 56, 79
2, 341870, Note_on_c, 0, 68, 0
2, 341880, Note_on_c, 0, 80, 79
2, 341990, Note_on_c, 0, 80, 0
2, 341990, Note_on_c, 0, 56, 0
2, 341990, Note_on_c, 0, 60, 0
2, 342000, Note_on_c, 0, 69, 79
2, 342002, Note_on_c, 0, 61, 79
2, 342002, Note_on_c, 0, 56, 79
2, 342110, Note_on_c, 0, 69, 0
2, 342120, Note_on_c, 0, 79, 79
2, 342230, Note_on_c, 0, 79, 0
2, 342230, Note_on_c, 0, 56, 0
2, 342230, Note_on_c, 0, 61, 0
2, 342240, Note_on_c, 0, 68, 79
2, 342240, Note_on_c, 0, 60, 79
2, 342242, Note_on_c, 0, 56, 79
2, 342350, Note_on_c, 0, 68, 0
2, 342360, Note_on_c, 0, 80, 79
2, 342470, Note_on_c, 0, 80, 0
2, 342470, Note_on_c, 0, 56, 0
2, 342470, Note_on_c, 0, 60, 0
2, 342480, Note_on_c, 0, 69, 79
2, 342480, Note_on_c, 0, 61, 79
2, 342482, Note_on_c, 0, 56, 79
2, 342593, Note_on_c, 0, 69, 0
2, 342603, Note_on_c, 0, 79, 79
2, 342713, Note_on_c, 0, 79, 0
2, 342713, Note_on_c, 0, 56, 0
2, 342713, Note_on_c, 0, 61, 0
2, 342723, Note_on_c, 0, 80, 79
2, 342723, Note_on_c, 0, 60, 79
2, 342723, Note_on_c, 0, 56, 79
2, 343190, Note_on_c, 0, 56, 0
2, 343190, Note_on_c, 0, 60, 0
2, 343190, Note_on_c, 0, 80, 0
2, 343200, Note_on_c, 0, 32, 79
2, 343200, Note_on_c, 0, 44, 79
2, 343200, Note_on_c, 0, 56, 79
2, 345110, Note_on_c, 0, 56, 0
2, 345110, Note_on_c, 0, 44, 0
2, 345110, Note_on_c, 0, 32, 0
2, 345120, Note_on_c, 0, 49, 58
2, 345244, Note_on_c, 0, 49, 0
2, 345254, Note_on_c, 0, 56, 58
2, 345364, Note_on_c, 0, 56, 0
2, 345374, Note_on_c, 0, 52, 58
2, 345484, Note_on_c, 0, 52, 0
2, 345494, Note_on_c, 0, 56, 58
2, 345594, Note_on_c, 0, 68, 63
2, 345604, Note_on_c, 0, 56, 0
2, 345614, Note_on_c, 0, 49, 58
2, 345724, Note_on_c, 0, 49, 0
2, 345734, Note_on_c, 0, 56, 58
2, 345847, Note_on_c, 0, 56, 0
2, 345857, Note_on_c, 0, 52, 58
2, 345967, Note_on_c, 0, 52, 0
2, 345977, Note_on_c, 0, 56, 58
2, 346087, Note_on_c, 0, 56, 0
2, 346097, Note_on_c, 0, 49, 58
2, 346204, Note_on_c, 0, 49, 0
2, 346214, Note_on_c, 0, 56, 58
2, 346324, Note_on_c, 0, 56, 0
2, 346334, Note_on_c, 0, 52, 58
2, 346444, Note_on_c, 0, 52, 0
2, 346454, Note_on_c, 0, 56, 58
2, 346564, Note_on_c, 0, 56, 0
2, 346564, Note_on_c, 0, 68, 0
2, 346574, Note_on_c, 0, 64, 63
2, 346576, Note_on_c, 0, 49, 58
2, 346684, Note_on_c, 0, 49, 0
2, 346694, Note_on_c, 0, 56, 58
2, 346804, Note_on_c, 0, 56, 0
2, 346814, Note_on_c, 0, 52, 58
2, 346924, Note_on_c, 0, 52, 0
2, 346924, Note_on_c, 0, 64, 0
2, 346934, Note_on_c, 0, 61, 63
2, 346934, Note_on_c, 0, 56, 58
2, 347044, Note_on_c, 0, 56, 0
2, 347044, Note_on_c, 0, 61, 0
2, 347054, Note_on_c, 0, 60, 63
2, 347054, Note_on_c, 0, 51, 58
2, 347117, Note_on_c, 0, 61, 63
2, 347167, Note_on_c, 0, 51, 0
2, 347167, Note_on_c, 0, 60, 0
2, 347177, Note_on_c, 0, 56, 58
2, 347194, Note_on_c, 0, 63, 63
2, 347264, Note_on_c, 0, 56, 0
2, 347264, Note_on_c, 0, 61, 0
2, 347274, Note_on_c, 0, 61, 63
2, 347284, Note_on_c, 0, 63, 0
2, 347294, Note_on_c, 0, 54, 58
2, 347407, Note_on_c, 0, 54, 0
2, 347417, Note_on_c, 0, 56, 58
2, 347504, Note_on_c, 0, 56, 0
2, 347514, Note_on_c, 0, 60, 63
2, 347527, Note_on_c, 0, 61, 0
2, 347537, Note_on_c, 0, 51, 58
2, 347644, Note_on_c, 0, 51, 0
2, 347654, Note_on_c, 0, 56, 58
2, 347764, Note_on_c, 0, 56, 0
2, 347774, Note_on_c, 0, 54, 58
2, 347884, Note_on_c, 0, 54, 0
2, 347894, Note_on_c, 0, 56, 58
2, 348004, Note_on_c, 0, 56, 0
2, 348014, Note_on_c, 0, 51, 58
2, 348124, Note_on_c, 0, 51, 0
2, 348134, Note_on_c, 0, 56, 58
2, 348244, Note_on_c, 0, 56, 0
2, 348244, Note_on_c, 0, 60, 0
2, 348254, Note_on_c, 0, 60, 63
2, 348254, Note_on_c, 0, 54, 58
2, 348364, Note_on_c, 0, 54, 0
2, 348374, Note_on_c, 0, 56, 58
2, 348474, Note_on_c, 0, 68, 63
2, 348484, Note_on_c, 0, 56, 0
2, 348484, Note_on_c, 0, 60, 0
2, 348494, Note_on_c, 0, 51, 58
2, 348607, Note_on_c, 0, 51, 0
2, 348617, Note_on_c, 0, 56, 58
2, 348727, Note_on_c, 0, 56, 0
2, 348737, Note_on_c, 0, 54, 58
2, 348824, Note_on_c, 0, 54, 0
2, 348834, Note_on_c, 0, 60, 63
2, 348844, Note_on_c, 0, 68, 0
2, 348854, Note_on_c, 0, 56, 58
2, 348964, Note_on_c, 0, 56, 0
2, 348964, Note_on_c, 0, 60, 0
2, 348974, Note_on_c, 0, 63, 63
2, 348976, Note_on_c, 0, 52, 58
2, 349084, Note_on_c, 0, 52, 0
2, 349094, Note_on_c, 0, 56, 58
2, 349204, Note_on_c, 0, 56, 0
2, 349214, Note_on_c, 0, 52, 58
2, 349324, Note_on_c, 0, 52, 0
2, 349334, Note_on_c, 0, 56, 58
2, 349444, Note_on_c, 0, 56, 0
2, 349444, Note_on_c, 0, 63, 0
2, 349454, Note_on_c, 0, 61, 63
2, 349454, Note_on_c, 0, 52, 58
2, 349564, Note_on_c, 0, 52, 0
2, 349574, Note_on_c, 0, 56, 58
2, 349684, Note_on_c, 0, 56, 0
2, 349694, Note_on_c, 0, 52, 58
2, 349807, Note_on_c, 0, 52, 0
2, 349817, Note_on_c, 0, 56, 58
2, 349927, Note_on_c, 0, 56, 0
2, 349937, Note_on_c, 0, 52, 58
2, 350047, Note_on_c, 0, 52, 0
2, 350057, Note_on_c, 0, 56, 58
2, 350164, Note_on_c, 0, 56, 0
2, 350164, Note_on_c, 0, 61, 0
2, 350174, Note_on_c, 0, 61, 63
2, 350177, Note_on_c, 0, 52, 58
2, 350284, Note_on_c, 0, 52, 0
2, 350294, Note_on_c, 0, 56, 58
2, 350404, Note_on_c, 0, 56, 0
2, 350404, Note_on_c, 0, 61, 0
2, 350414, Note_on_c, 0, 68, 63
2, 350416, Note_on_c, 0, 52, 58
2, 350524, Note_on_c, 0, 52, 0
2, 350534, Note_on_c, 0, 56, 58
2, 350644, Note_on_c, 0, 56, 0
2, 350654, Note_on_c, 0, 52, 58
2, 350764, Note_on_c, 0, 52, 0
2, 350764, Note_on_c, 0, 68, 0
2, 350774, Note_on_c, 0, 61, 63
2, 350774, Note_on_c, 0, 56, 58
2, 350884, Note_on_c, 0, 56, 0
2, 350884, Note_on_c, 0, 61, 0
2, 350894, Note_on_c, 0, 64, 63
2, 350894, Note_on_c, 0, 48, 58
2, 351004, Note_on_c, 0, 48, 0
2, 351014, Note_on_c, 0, 56, 58
2, 351124, Note_on_c, 0, 56, 0
2, 351134, Note_on_c, 0, 48, 58
2, 351247, Note_on_c, 0, 48, 0
2, 351257, Note_on_c, 0, 56, 58
2, 351367, Note_on_c, 0, 56, 0
2, 351367, Note_on_c, 0, 64, 0
2, 351377, Note_on_c, 0, 63, 63
2, 351377, Note_on_c, 0, 48, 58
2, 351487, Note_on_c, 0, 48, 0
2, 351497, Note_on_c, 0, 56, 58
2, 351607, Note_on_c, 0, 56, 0
2, 351617, Note_on_c, 0, 48, 58
2, 351724, Note_on_c, 0, 48, 0
2, 351734, Note_on_c, 0, 56, 58
2, 351844, Note_on_c, 0, 56, 0
2, 351854, Note_on_c, 0, 48, 58
2, 351964, Note_on_c, 0, 48, 0
2, 351974, Note_on_c, 0, 56, 58
2, 352084, Note_on_c, 0, 56, 0
2, 352084, Note_on_c, 0, 63, 0
2, 352094, Note_on_c, 0, 63, 63
2, 352094, Note_on_c, 0, 48, 58
2, 352204, Note_on_c, 0, 48, 0
2, 352214, Note_on_c, 0, 56, 58
2, 352324, Note_on_c, 0, 56, 0
2, 352324, Note_on_c, 0, 63, 0
2, 352334, Note_on_c, 0, 68, 63
2, 352334, Note_on_c, 0, 48, 58
2, 352444, Note_on_c, 0, 48, 0
2, 352454, Note_on_c, 0, 56, 58
2, 352567, Note_on_c, 0, 56, 0
2, 352577, Note_on_c, 0, 48, 58
2, 352687, Note_on_c, 0, 48, 0
2, 352687, Note_on_c, 0, 68, 0
2, 352697, Note_on_c, 0, 63, 63
2, 352697, Note_on_c, 0, 56, 58
2, 352807, Note_on_c, 0, 56, 0
2, 352807, Note_on_c, 0, 63, 0
2, 352817, Note_on_c, 0, 64, 63
2, 352817, Note_on_c, 0, 49, 58
2, 352927, Note_on_c, 0, 49, 0
2, 352937, Note_on_c, 0, 56, 58
2, 353027, Note_on_c, 0, 64, 0
2, 353037, Note_on_c, 0, 80, 63
2, 353037, Note_on_c, 0, 68, 58
2, 353044, Note_on_c, 0, 56, 0
2, 353054, Note_on_c, 0, 52, 58
2, 353164, Note_on_c, 0, 52, 0
2, 353174, Note_on_c, 0, 56, 58
2, 353284, Note_on_c, 0, 56, 0
2, 353294, Note_on_c, 0, 49, 58
2, 353404, Note_on_c, 0, 49, 0
2, 353414, Note_on_c, 0, 56, 58
2, 353524, Note_on_c, 0, 56, 0
2, 353524, Note_on_c, 0, 68, 0
2, 353524, Note_on_c, 0, 80, 0
2, 353534, Note_on_c, 0, 80, 63
2, 353534, Note_on_c, 0, 68, 58
2, 353536, Note_on_c, 0, 52, 58
2, 353644, Note_on_c, 0, 52, 0
2, 353654, Note_on_c, 0, 56, 58
2, 353764, Note_on_c, 0, 56, 0
2, 353774, Note_on_c, 0, 49, 58
2, 353887, Note_on_c, 0, 49, 0
2, 353897, Note_on_c, 0, 56, 58
2, 354007, Note_on_c, 0, 56, 0
2, 354007, Note_on_c, 0, 68, 0
2, 354007, Note_on_c, 0, 80, 0
2, 354017, Note_on_c, 0, 80, 63
2, 354017, Note_on_c, 0, 68, 58
2, 354017, Note_on_c, 0, 52, 58
2, 354127, Note_on_c, 0, 52, 0
2, 354137, Note_on_c, 0, 56, 58
2, 354224, Note_on_c, 0, 68, 0
2, 354224, Note_on_c, 0, 80, 0
2, 354234, Note_on_c, 0, 76, 63
2, 354234, Note_on_c, 0, 64, 58
2, 354247, Note_on_c, 0, 56, 0
2, 354257, Note_on_c, 0, 49, 58
2, 354364, Note_on_c, 0, 49, 0
2, 354374, Note_on_c, 0, 56, 58
2, 354467, Note_on_c, 0, 56, 0
2, 354467, Note_on_c, 0, 64, 0
2, 354467, Note_on_c, 0, 76, 0
2, 354477, Note_on_c, 0, 73, 63
2, 354477, Note_on_c, 0, 61, 58
2, 354494, Note_on_c, 0, 52, 58
2, 354604, Note_on_c, 0, 52, 0
2, 354614, Note_on_c, 0, 56, 58
2, 354707, Note_on_c, 0, 56, 0
2, 354707, Note_on_c, 0, 61, 0
2, 354707, Note_on_c, 0, 73, 0
2, 354717, Note_on_c, 0, 73, 63
2, 354717, Note_on_c, 0, 61, 58
2, 354734, Note_on_c, 0, 51, 58
2, 354844, Note_on_c, 0, 51, 0
2, 354854, Note_on_c, 0, 56, 58
2, 354944, Note_on_c, 0, 61, 0
2, 354944, Note_on_c, 0, 73, 0
2, 354946, Note_on_c, 0, 56, 0
2, 354954, Note_on_c, 0, 72, 63
2, 354956, Note_on_c, 0, 60, 58
2, 354974, Note_on_c, 0, 54, 58
2, 355084, Note_on_c, 0, 54, 0
2, 355094, Note_on_c, 0, 56, 58
2, 355204, Note_on_c, 0, 56, 0
2, 355214, Note_on_c, 0, 51, 58
2, 355327, Note_on_c, 0, 51, 0
2, 355337, Note_on_c, 0, 56, 58
2, 355447, Note_on_c, 0, 56, 0
2, 355447, Note_on_c, 0, 60, 0
2, 355447, Note_on_c, 0, 72, 0
2, 355457, Note_on_c, 0, 72, 63
2, 355457, Note_on_c, 0, 60, 58
2, 355457, Note_on_c, 0, 54, 58
2, 355567, Note_on_c, 0, 54, 0
2, 355577, Note_on_c, 0, 56, 58
2, 355687, Note_on_c, 0, 56, 0
2, 355697, Note_on_c, 0, 51, 58
2, 355804, Note_on_c, 0, 51, 0
2, 355814, Note_on_c, 0, 56, 58
2, 355924, Note_on_c, 0, 56, 0
2, 355924, Note_on_c, 0, 60, 0
2, 355924, Note_on_c, 0, 72, 0
2, 355934, Note_on_c, 0, 72, 63
2, 355936, Note_on_c, 0, 60, 58
2, 355936, Note_on_c, 0, 54, 58
2, 356044, Note_on_c, 0, 54, 0
2, 356054, Note_on_c, 0, 56, 58
2, 356144, Note_on_c, 0, 60, 0
2, 356144, Note_on_c, 0, 72, 0
2, 356147, Note_on_c, 0, 56, 0
2, 356154, Note_on_c, 0, 80, 63
2, 356157, Note_on_c, 0, 68, 58
2, 356174, Note_on_c, 0, 51, 58
2, 356284, Note_on_c, 0, 51, 0
2, 356294, Note_on_c, 0, 56, 58
2, 356384, Note_on_c, 0, 68, 0
2, 356384, Note_on_c, 0, 80, 0
2, 356386, Note_on_c, 0, 56, 0
2, 356394, Note_on_c, 0, 72, 63
2, 356396, Note_on_c, 0, 60, 58
2, 356414, Note_on_c, 0, 54, 58
2, 356524, Note_on_c, 0, 54, 0
2, 356534, Note_on_c, 0, 56, 58
2, 356624, Note_on_c, 0, 60, 0
2, 356624, Note_on_c, 0, 72, 0
2, 356626, Note_on_c, 0, 56, 0
2, 356634, Note_on_c, 0, 75, 63
2, 356636, Note_on_c, 0, 63, 58
2, 356657, Note_on_c, 0, 52, 58
2, 356767, Note_on_c, 0, 52, 0
2, 356777, Note_on_c, 0, 56, 58
2, 356864, Note_on_c, 0, 63, 0
2, 356864, Note_on_c, 0, 75, 0
2, 356874, Note_on_c, 0, 73, 63
2, 356874, Note_on_c, 0, 61, 58
2, 356887, Note_on_c, 0, 56, 0
2, 356897, Note_on_c, 0, 52, 58
2, 357007, Note_on_c, 0, 52, 0
2, 357017, Note_on_c, 0, 56, 58
2, 357124, Note_on_c, 0, 56, 0
2, 357134, Note_on_c, 0, 52, 58
2, 357244, Note_on_c, 0, 52, 0
2, 357254, Note_on_c, 0, 56, 58
2, 357364, Note_on_c, 0, 56, 0
2, 357364, Note_on_c, 0, 61, 0
2, 357364, Note_on_c, 0, 73, 0
2, 357374, Note_on_c, 0, 73, 63
2, 357376, Note_on_c, 0, 61, 58
2, 357376, Note_on_c, 0, 52, 58
2, 357484, Note_on_c, 0, 52, 0
2, 357494, Note_on_c, 0, 56, 58
2, 357604, Note_on_c, 0, 56, 0
2, 357614, Note_on_c, 0, 52, 58
2, 357724, Note_on_c, 0, 52, 0
2, 357734, Note_on_c, 0, 56, 58
2, 357844, Note_on_c, 0, 56, 0
2, 357844, Note_on_c, 0, 61, 0
2, 357844, Note_on_c, 0, 73, 0
2, 357854, Note_on_c, 0, 73, 63
2, 357854, Note_on_c, 0, 61, 58
2, 357856, Note_on_c, 0, 52, 58
2, 357967, Note_on_c, 0, 52, 0
2, 357977, Note_on_c, 0, 56, 58
2, 358064, Note_on_c, 0, 61, 0
2, 358064, Note_on_c, 0, 73, 0
2, 358074, Note_on_c, 0, 80, 63
2, 358074, Note_on_c, 0, 68, 58
2, 358087, Note_on_c, 0, 56, 0
2, 358097, Note_on_c, 0, 52, 58
2, 358207, Note_on_c, 0, 52, 0
2, 358217, Note_on_c, 0, 56, 58
2, 358304, Note_on_c, 0, 68, 0
2, 358304, Note_on_c, 0, 80, 0
2, 358314, Note_on_c, 0, 73, 63
2, 358314, Note_on_c, 0, 61, 58
2, 358327, Note_on_c, 0, 56, 0
2, 358337, Note_on_c, 0, 52, 58
2, 358444, Note_on_c, 0, 52, 0
2, 358454, Note_on_c, 0, 56, 58
2, 358547, Note_on_c, 0, 56, 0
2, 358547, Note_on_c, 0, 61, 0
2, 358547, Note_on_c, 0, 73, 0
2, 358557, Note_on_c, 0, 76, 63
2, 358557, Note_on_c, 0, 64, 58
2, 358574, Note_on_c, 0, 48, 58
2, 358684, Note_on_c, 0, 48, 0
2, 358694, Note_on_c, 0, 56, 58
2, 358787, Note_on_c, 0, 56, 0
2, 358787, Note_on_c, 0, 64, 0
2, 358787, Note_on_c, 0, 76, 0
2, 358797, Note_on_c, 0, 75, 63
2, 358797, Note_on_c, 0, 63, 58
2, 358814, Note_on_c, 0, 48, 58
2, 358924, Note_on_c, 0, 48, 0
2, 358934, Note_on_c, 0, 56, 58
2, 359044, Note_on_c, 0, 56, 0
2, 359054, Note_on_c, 0, 48, 58
2, 359164, Note_on_c, 0, 48, 0
2, 359174, Note_on_c, 0, 56, 58
2, 359284, Note_on_c, 0, 56, 0
2, 359284, Note_on_c, 0, 63, 0
2, 359284, Note_on_c, 0, 75, 0
2, 359294, Note_on_c, 0, 75, 63
2, 359294, Note_on_c, 0, 63, 58
2, 359296, Note_on_c, 0, 48, 58
2, 359407, Note_on_c, 0, 48, 0
2, 359417, Note_on_c, 0, 56, 58
2, 359527, Note_on_c, 0, 56, 0
2, 359537, Note_on_c, 0, 48, 58
2, 359647, Note_on_c, 0, 48, 0
2, 359657, Note_on_c, 0, 56, 58
2, 359764, Note_on_c, 0, 56, 0
2, 359764, Note_on_c, 0, 63, 0
2, 359764, Note_on_c, 0, 75, 0
2, 359774, Note_on_c, 0, 75, 63
2, 359777, Note_on_c, 0, 63, 58
2, 359777, Note_on_c, 0, 48, 58
2, 359884, Note_on_c, 0, 48, 0
2, 359894, Note_on_c, 0, 56, 58
2, 359988, Note_on_c, 0, 56, 0
2, 359988, Note_on_c, 0, 63, 0
2, 359988, Note_on_c, 0, 75, 0
2, 359998, Note_on_c, 0, 80, 63
2, 359998, Note_on_c, 0, 68, 58
2, 360014, Note_on_c, 0, 48, 58
2, 360124, Note_on_c, 0, 48, 0
2, 360134, Note_on_c, 0, 56, 58
2, 360224, Note_on_c, 0, 68, 0
2, 360224, Note_on_c, 0, 80, 0
2, 360227, Note_on_c, 0, 56, 0
2, 360234, Note_on_c, 0, 75, 63
2, 360237, Note_on_c, 0, 63, 58
2, 360254, Note_on_c, 0, 48, 58
2, 360364, Note_on_c, 0, 48, 0
2, 360374, Note_on_c, 0, 56, 58
2, 360464, Note_on_c, 0, 63, 0
2, 360464, Note_on_c, 0, 75, 0
2, 360466, Note_on_c, 0, 56, 0
2, 360474, Note_on_c, 0, 77, 63
2, 360476, Note_on_c, 0, 65, 58
2, 360494, Note_on_c, 0, 47, 58
2, 360604, Note_on_c, 0, 47, 0
2, 360614, Note_on_c, 0, 56, 58
2, 360727, Note_on_c, 0, 56, 0
2, 360737, Note_on_c, 0, 49, 58
2, 360847, Note_on_c, 0, 49, 0
2, 360857, Note_on_c, 0, 56, 58
2, 360967, Note_on_c, 0, 56, 0
2, 360977, Note_on_c, 0, 47, 58
2, 361087, Note_on_c, 0, 47, 0
2, 361097, Note_on_c, 0, 56, 58
2, 361204, Note_on_c, 0, 56, 0
2, 361214, Note_on_c, 0, 49, 58
2, 361324, Note_on_c, 0, 49, 0
2, 361334, Note_on_c, 0, 56, 58
2, 361444, Note_on_c, 0, 56, 0
2, 361444, Note_on_c, 0, 65, 0
2, 361444, Note_on_c, 0, 77, 0
2, 361454, Note_on_c, 0, 78, 63
2, 361456, Note_on_c, 0, 66, 58
2, 361456, Note_on_c, 0, 45, 58
2, 361564, Note_on_c, 0, 45, 0
2, 361574, Note_on_c, 0, 54, 58
2, 361684, Note_on_c, 0, 54, 0
2, 361694, Note_on_c, 0, 49, 58
2, 361804, Note_on_c, 0, 49, 0
2, 361814, Note_on_c, 0, 54, 58
2, 361924, Note_on_c, 0, 54, 0
2, 361934, Note_on_c, 0, 45, 58
2, 362047, Note_on_c, 0, 45, 0
2, 362057, Note_on_c, 0, 54, 58
2, 362167, Note_on_c, 0, 54, 0
2, 362177, Note_on_c, 0, 49, 58
2, 362287, Note_on_c, 0, 49, 0
2, 362297, Note_on_c, 0, 54, 58
2, 362404, Note_on_c, 0, 54, 0
2, 362404, Note_on_c, 0, 66, 0
2, 362404, Note_on_c, 0, 78, 0
2, 362414, Note_on_c, 0, 75, 63
2, 362417, Note_on_c, 0, 63, 58
2, 362417, Note_on_c, 0, 45, 58
2, 362474, Note_on_c, 0, 76, 63
2, 362524, Note_on_c, 0, 45, 0
2, 362524, Note_on_c, 0, 75, 0
2, 362534, Note_on_c, 0, 54, 58
2, 362554, Note_on_c, 0, 75, 63
2, 362644, Note_on_c, 0, 75, 0
2, 362644, Note_on_c, 0, 54, 0
2, 362644, Note_on_c, 0, 76, 0
2, 362654, Note_on_c, 0, 73, 63
2, 362656, Note_on_c, 0, 47, 58
2, 362747, Note_on_c, 0, 47, 0
2, 362757, Note_on_c, 0, 75, 63
2, 362766, Note_on_c, 0, 73, 0
2, 362776, Note_on_c, 0, 54, 58
2, 362867, Note_on_c, 0, 54, 0
2, 362867, Note_on_c, 0, 63, 0
2, 362877, Note_on_c, 0, 76, 63
2, 362884, Note_on_c, 0, 75, 0
2, 362894, Note_on_c, 0, 64, 58
2, 362896, Note_on_c, 0, 44, 58
2, 363004, Note_on_c, 0, 44, 0
2, 363014, Note_on_c, 0, 52, 58
2, 363124, Note_on_c, 0, 52, 0
2, 363134, Note_on_c, 0, 47, 58
2, 363244, Note_on_c, 0, 47, 0
2, 363254, Note_on_c, 0, 52, 58
2, 363364, Note_on_c, 0, 52, 0
2, 363374, Note_on_c, 0, 44, 58
2, 363487, Note_on_c, 0, 44, 0
2, 363497, Note_on_c, 0, 52, 58
2, 363607, Note_on_c, 0, 52, 0
2, 363617, Note_on_c, 0, 47, 58
2, 363727, Note_on_c, 0, 47, 0
2, 363737, Note_on_c, 0, 52, 58
2, 363847, Note_on_c, 0, 52, 0
2, 363857, Note_on_c, 0, 44, 58
2, 363964, Note_on_c, 0, 44, 0
2, 363974, Note_on_c, 0, 52, 58
2, 364084, Note_on_c, 0, 52, 0
2, 364094, Note_on_c, 0, 47, 58
2, 364204, Note_on_c, 0, 47, 0
2, 364214, Note_on_c, 0, 52, 58
2, 364324, Note_on_c, 0, 52, 0
2, 364324, Note_on_c, 0, 64, 0
2, 364324, Note_on_c, 0, 76, 0
2, 364334, Note_on_c, 0, 73, 63
2, 364334, Note_on_c, 0, 61, 58
2, 364336, Note_on_c, 0, 43, 58
2, 364444, Note_on_c, 0, 43, 0
2, 364454, Note_on_c, 0, 52, 58
2, 364564, Note_on_c, 0, 52, 0
2, 364574, Note_on_c, 0, 45, 58
2, 364684, Note_on_c, 0, 45, 0
2, 364694, Note_on_c, 0, 52, 58
2, 364807, Note_on_c, 0, 52, 0
2, 364817, Note_on_c, 0, 43, 58
2, 364927, Note_on_c, 0, 43, 0
2, 364937, Note_on_c, 0, 52, 58
2, 365047, Note_on_c, 0, 52, 0
2, 365057, Note_on_c, 0, 45, 58
2, 365167, Note_on_c, 0, 45, 0
2, 365177, Note_on_c, 0, 52, 58
2, 365284, Note_on_c, 0, 52, 0
2, 365284, Note_on_c, 0, 61, 0
2, 365284, Note_on_c, 0, 73, 0
2, 365294, Note_on_c, 0, 74, 63
2, 365296, Note_on_c, 0, 62, 58
2, 365296, Note_on_c, 0, 42, 58
2, 365404, Note_on_c, 0, 42, 0
2, 365414, Note_on_c, 0, 50, 58
2, 365524, Note_on_c, 0, 50, 0
2, 365534, Note_on_c, 0, 45, 58
2, 365644, Note_on_c, 0, 45, 0
2, 365654, Note_on_c, 0, 50, 58
2, 365764, Note_on_c, 0, 50, 0
2, 365774, Note_on_c, 0, 42, 58
2, 365884, Note_on_c, 0, 42, 0
2, 365894, Note_on_c, 0, 50, 58
2, 366004, Note_on_c, 0, 50, 0
2, 366014, Note_on_c, 0, 45, 58
2, 366127, Note_on_c, 0, 45, 0
2, 366137, Note_on_c, 0, 50, 58
2, 366247, Note_on_c, 0, 50, 0
2, 366247, Note_on_c, 0, 62, 0
2, 366247, Note_on_c, 0, 74, 0
2, 366257, Note_on_c, 0, 72, 63
2, 366257, Note_on_c, 0, 60, 58
2, 366257, Note_on_c, 0, 42, 58
2, 366324, Note_on_c, 0, 72, 0
2, 366334, Note_on_c, 0, 73, 63
2, 366367, Note_on_c, 0, 42, 0
2, 366377, Note_on_c, 0, 51, 58
2, 366404, Note_on_c, 0, 73, 0
2, 366414, Note_on_c, 0, 72, 63
2, 366484, Note_on_c, 0, 72, 0
2, 366484, Note_on_c, 0, 51, 0
2, 366494, Note_on_c, 0, 70, 63
2, 366497, Note_on_c, 0, 44, 58
2, 366604, Note_on_c, 0, 44, 0
2, 366604, Note_on_c, 0, 70, 0
2, 366614, Note_on_c, 0, 72, 63
2, 366616, Note_on_c, 0, 51, 58
2, 366724, Note_on_c, 0, 51, 0
2, 366724, Note_on_c, 0, 72, 0
2, 366724, Note_on_c, 0, 60, 0
2, 366734, Note_on_c, 0, 73, 63
2, 366736, Note_on_c, 0, 61, 58
2, 366736, Note_on_c, 0, 40, 58
2, 366844, Note_on_c, 0, 40, 0
2, 366854, Note_on_c, 0, 49, 58
2, 366964, Note_on_c, 0, 49, 0
2, 366974, Note_on_c, 0, 44, 58
2, 367084, Note_on_c, 0, 44, 0
2, 367094, Note_on_c, 0, 49, 58
2, 367204, Note_on_c, 0, 49, 0
2, 367214, Note_on_c, 0, 40, 58
2, 367324, Note_on_c, 0, 40, 0
2, 367334, Note_on_c, 0, 49, 58
2, 367444, Note_on_c, 0, 49, 0
2, 367454, Note_on_c, 0, 44, 58
2, 367567, Note_on_c, 0, 44, 0
2, 367577, Note_on_c, 0, 49, 58
2, 367687, Note_on_c, 0, 49, 0
2, 367697, Note_on_c, 0, 40, 58
2, 367807, Note_on_c, 0, 40, 0
2, 367817, Note_on_c, 0, 49, 58
2, 367924, Note_on_c, 0, 49, 0
2, 367934, Note_on_c, 0, 44, 58
2, 368044, Note_on_c, 0, 44, 0
2, 368054, Note_on_c, 0, 49, 58
2, 368147, Note_on_c, 0, 61, 0
2, 368147, Note_on_c, 0, 73, 0
2, 368150, Note_on_c, 0, 49, 0
2, 368157, Note_on_c, 0, 66, 87
2, 368160, Note_on_c, 0, 54, 87
2, 368164, Note_on_c, 0, 50, 87
2, 368164, Note_on_c, 0, 45, 87
2, 368164, Note_on_c, 0, 42, 87
2, 368174, Note_on_c, 0, 74, 87
2, 368176, Note_on_c, 0, 69, 87
2, 368176, Note_on_c, 0, 62, 87
2, 369244, Note_on_c, 0, 62, 0
2, 369244, Note_on_c, 0, 69, 0
2, 369244, Note_on_c, 0, 66, 0
2, 369244, Note_on_c, 0, 74, 0
2, 369254, Note_on_c, 0, 69, 63
2, 369364, Note_on_c, 0, 69, 0
2, 369374, Note_on_c, 0, 71, 63
2, 369484, Note_on_c, 0, 71, 0
2, 369494, Note_on_c, 0, 73, 63
2, 369604, Note_on_c, 0, 73, 0
2, 369604, Note_on_c, 0, 54, 0
2, 369604, Note_on_c, 0, 42, 0
2, 369604, Note_on_c, 0, 50, 0
2, 369604, Note_on_c, 0, 45, 0
2, 369614, Note_on_c, 0, 74, 63
2, 369724, Note_on_c, 0, 74, 0
2, 369734, Note_on_c, 0, 76, 63
2, 369844, Note_on_c, 0, 76, 0
2, 369854, Note_on_c, 0, 78, 63
2, 369964, Note_on_c, 0, 78, 0
2, 369974, Note_on_c, 0, 76, 63
2, 370066, Note_on_c, 0, 76, 0
2, 370076, Note_on_c, 0, 62, 58
2, 370076, Note_on_c, 0, 57, 58
2, 370076, Note_on_c, 0, 54, 58
2, 370094, Note_on_c, 0, 74, 63
2, 370207, Note_on_c, 0, 74, 0
2, 370217, Note_on_c, 0, 69, 63
2, 370327, Note_on_c, 0, 69, 0
2, 370337, Note_on_c, 0, 71, 63
2, 370447, Note_on_c, 0, 71, 0
2, 370457, Note_on_c, 0, 73, 63
2, 370564, Note_on_c, 0, 73, 0
2, 370564, Note_on_c, 0, 54, 0
2, 370564, Note_on_c, 0, 57, 0
2, 370564, Note_on_c, 0, 62, 0
2, 370574, Note_on_c, 0, 74, 63
2, 370684, Note_on_c, 0, 74, 0
2, 370694, Note_on_c, 0, 76, 63
2, 370804, Note_on_c, 0, 76, 0
2, 370814, Note_on_c, 0, 78, 63
2, 370924, Note_on_c, 0, 78, 0
2, 370934, Note_on_c, 0, 76, 63
2, 371027, Note_on_c, 0, 76, 0
2, 371037, Note_on_c, 0, 62, 58
2, 371037, Note_on_c, 0, 57, 58
2, 371040, Note_on_c, 0, 54, 58
2, 371054, Note_on_c, 0, 74, 63
2, 371164, Note_on_c, 0, 74, 0
2, 371174, Note_on_c, 0, 69, 63
2, 371284, Note_on_c, 0, 69, 0
2, 371294, Note_on_c, 0, 71, 63
2, 371404, Note_on_c, 0, 71, 0
2, 371414, Note_on_c, 0, 73, 63
2, 371524, Note_on_c, 0, 73, 0
2, 371524, Note_on_c, 0, 54, 0
2, 371524, Note_on_c, 0, 57, 0
2, 371524, Note_on_c, 0, 62, 0
2, 371534, Note_on_c, 0, 74, 63
2, 371647, Note_on_c, 0, 74, 0
2, 371657, Note_on_c, 0, 76, 63
2, 371767, Note_on_c, 0, 76, 0
2, 371777, Note_on_c, 0, 78, 63
2, 371887, Note_on_c, 0, 78, 0
2, 371897, Note_on_c, 0, 76, 63
2, 371989, Note_on_c, 0, 76, 0
2, 371999, Note_on_c, 0, 62, 58
2, 372004, Note_on_c, 0, 57, 58
2, 372004, Note_on_c, 0, 54, 58
2, 372014, Note_on_c, 0, 74, 63
2, 372124, Note_on_c, 0, 74, 0
2, 372134, Note_on_c, 0, 69, 63
2, 372244, Note_on_c, 0, 69, 0
2, 372254, Note_on_c, 0, 71, 63
2, 372364, Note_on_c, 0, 71, 0
2, 372374, Note_on_c, 0, 73, 63
2, 372484, Note_on_c, 0, 73, 0
2, 372484, Note_on_c, 0, 54, 0
2, 372484, Note_on_c, 0, 57, 0
2, 372484, Note_on_c, 0, 62, 0
2, 372494, Note_on_c, 0, 74, 63
2, 372494, Note_on_c, 0, 62, 58
2, 372496, Note_on_c, 0, 57, 58
2, 372496, Note_on_c, 0, 54, 58
2, 372604, Note_on_c, 0, 74, 0
2, 372614, Note_on_c, 0, 76, 63
2, 372724, Note_on_c, 0, 76, 0
2, 372734, Note_on_c, 0, 78, 63
2, 372844, Note_on_c, 0, 78, 0
2, 372854, Note_on_c, 0, 79, 63
2, 372967, Note_on_c, 0, 79, 0
2, 372967, Note_on_c, 0, 54, 0
2, 372967, Note_on_c, 0, 57, 0
2, 372967, Note_on_c, 0, 62, 0
2, 372977, Note_on_c, 0, 81, 63
2, 372977, Note_on_c, 0, 62, 58
2, 372977, Note_on_c, 0, 57, 58
2, 372980, Note_on_c, 0, 54, 58
2, 373087, Note_on_c, 0, 81, 0
2, 373097, Note_on_c, 0, 80, 63
2, 373207, Note_on_c, 0, 80, 0
2, 373217, Note_on_c, 0, 83, 63
2, 373324, Note_on_c, 0, 83, 0
2, 373334, Note_on_c, 0, 81, 63
2, 373444, Note_on_c, 0, 81, 0
2, 373444, Note_on_c, 0, 54, 0
2, 373444, Note_on_c, 0, 57, 0
2, 373444, Note_on_c, 0, 62, 0
2, 373454, Note_on_c, 0, 79, 63
2, 373456, Note_on_c, 0, 62, 58
2, 373456, Note_on_c, 0, 57, 58
2, 373456, Note_on_c, 0, 54, 58
2, 373564, Note_on_c, 0, 79, 0
2, 373574, Note_on_c, 0, 78, 63
2, 373684, Note_on_c, 0, 78, 0
2, 373694, Note_on_c, 0, 76, 63
2, 373804, Note_on_c, 0, 76, 0
2, 373814, Note_on_c, 0, 74, 63
2, 373924, Note_on_c, 0, 74, 0
2, 373924, Note_on_c, 0, 54, 0
2, 373924, Note_on_c, 0, 57, 0
2, 373924, Note_on_c, 0, 62, 0
2, 373934, Note_on_c, 0, 73, 63
2, 373934, Note_on_c, 0, 56, 58
2, 374044, Note_on_c, 0, 56, 0
2, 374054, Note_on_c, 0, 64, 58
2, 374164, Note_on_c, 0, 64, 0
2, 374174, Note_on_c, 0, 61, 58
2, 374287, Note_on_c, 0, 61, 0
2, 374297, Note_on_c, 0, 64, 58
2, 374407, Note_on_c, 0, 64, 0
2, 374417, Note_on_c, 0, 56, 58
2, 374527, Note_on_c, 0, 56, 0
2, 374537, Note_on_c, 0, 64, 58
2, 374647, Note_on_c, 0, 64, 0
2, 374657, Note_on_c, 0, 61, 58
2, 374764, Note_on_c, 0, 61, 0
2, 374774, Note_on_c, 0, 64, 58
2, 374884, Note_on_c, 0, 64, 0
2, 374884, Note_on_c, 0, 73, 0
2, 374894, Note_on_c, 0, 75, 63
2, 374896, Note_on_c, 0, 56, 58
2, 374954, Note_on_c, 0, 76, 63
2, 375004, Note_on_c, 0, 56, 0
2, 375004, Note_on_c, 0, 75, 0
2, 375014, Note_on_c, 0, 66, 58
2, 375034, Note_on_c, 0, 75, 63
2, 375107, Note_on_c, 0, 66, 0
2, 375107, Note_on_c, 0, 76, 0
2, 375117, Note_on_c, 0, 76, 63
2, 375124, Note_on_c, 0, 75, 0
2, 375134, Note_on_c, 0, 60, 58
2, 375194, Note_on_c, 0, 75, 63
2, 375244, Note_on_c, 0, 60, 0
2, 375244, Note_on_c, 0, 76, 0
2, 375254, Note_on_c, 0, 66, 58
2, 375277, Note_on_c, 0, 76, 63
2, 375344, Note_on_c, 0, 75, 0
2, 375354, Note_on_c, 0, 75, 63
2, 375364, Note_on_c, 0, 76, 0
2, 375364, Note_on_c, 0, 66, 0
2, 375374, Note_on_c, 0, 56, 58
2, 375434, Note_on_c, 0, 76, 63
2, 375484, Note_on_c, 0, 56, 0
2, 375484, Note_on_c, 0, 75, 0
2, 375494, Note_on_c, 0, 66, 58
2, 375517, Note_on_c, 0, 75, 63
2, 375584, Note_on_c, 0, 76, 0
2, 375594, Note_on_c, 0, 73, 63
2, 375604, Note_on_c, 0, 75, 0
2, 375604, Note_on_c, 0, 66, 0
2, 375614, Note_on_c, 0, 60, 58
2, 375704, Note_on_c, 0, 60, 0
2, 375714, Note_on_c, 0, 75, 63
2, 375724, Note_on_c, 0, 73, 0
2, 375734, Note_on_c, 0, 66, 58
2, 375824, Note_on_c, 0, 75, 0
2, 375826, Note_on_c, 0, 66, 0
2, 375834, Note_on_c, 0, 64, 58
2, 375836, Note_on_c, 0, 61, 58
2, 375839, Note_on_c, 0, 57, 58
2, 375857, Note_on_c, 0, 73, 63
2, 376307, Note_on_c, 0, 73, 0
2, 376307, Note_on_c, 0, 64, 0
2, 376307, Note_on_c, 0, 61, 0
2, 376307, Note_on_c, 0, 57, 0
2, 376317, Note_on_c, 0, 57, 87
2, 376317, Note_on_c, 0, 54, 87
2, 376320, Note_on_c, 0, 42, 87
2, 376320, Note_on_c, 0, 50, 87
2, 376320, Note_on_c, 0, 38, 87
2, 376324, Note_on_c, 0, 33, 87
2, 376324, Note_on_c, 0, 30, 87
2, 376327, Note_on_c, 0, 62, 63
2, 376924, Note_on_c, 0, 62, 0
2, 376924, Note_on_c, 0, 57, 0
2, 376924, Note_on_c, 0, 50, 0
2, 376924, Note_on_c, 0, 54, 0
2, 376934, Note_on_c, 0, 57, 63
2, 377047, Note_on_c, 0, 57, 0
2, 377057, Note_on_c, 0, 59, 63
2, 377167, Note_on_c, 0, 59, 0
2, 377177, Note_on_c, 0, 61, 63
2, 377287, Note_on_c, 0, 61, 0
2, 377287, Note_on_c, 0, 42, 0
2, 377287, Note_on_c, 0, 33, 0
2, 377287, Note_on_c, 0, 30, 0
2, 377287, Note_on_c, 0, 38, 0
2, 377297, Note_on_c, 0, 62, 63
2, 377404, Note_on_c, 0, 62, 0
2, 377414, Note_on_c, 0, 64, 63
2, 377524, Note_on_c, 0, 64, 0
2, 377534, Note_on_c, 0, 66, 63
2, 377644, Note_on_c, 0, 66, 0
2, 377654, Note_on_c, 0, 64, 63
2, 377764, Note_on_c, 0, 64, 0
2, 377774, Note_on_c, 0, 62, 63
2, 377884, Note_on_c, 0, 62, 0
2, 377894, Note_on_c, 0, 57, 63
2, 378004, Note_on_c, 0, 57, 0
2, 378014, Note_on_c, 0, 59, 63
2, 378124, Note_on_c, 0, 59, 0
2, 378134, Note_on_c, 0, 61, 63
2, 378226, Note_on_c, 0, 61, 0
2, 378236, Note_on_c, 0, 50, 58
2, 378236, Note_on_c, 0, 45, 58
2, 378236, Note_on_c, 0, 42, 58
2, 378254, Note_on_c, 0, 62, 63
2, 378367, Note_on_c, 0, 62, 0
2, 378377, Note_on_c, 0, 64, 63
2, 378487, Note_on_c, 0, 64, 0
2, 378497, Note_on_c, 0, 66, 63
2, 378607, Note_on_c, 0, 66, 0
2, 378617, Note_on_c, 0, 64, 63
2, 378724, Note_on_c, 0, 64, 0
2, 378724, Note_on_c, 0, 42, 0
2, 378724, Note_on_c, 0, 45, 0
2, 378724, Note_on_c, 0, 50, 0
2, 378734, Note_on_c, 0, 62, 63
2, 378844, Note_on_c, 0, 62, 0
2, 378854, Note_on_c, 0, 57, 63
2, 378964, Note_on_c, 0, 57, 0
2, 378974, Note_on_c, 0, 59, 63
2, 379084, Note_on_c, 0, 59, 0
2, 379094, Note_on_c, 0, 61, 63
2, 379188, Note_on_c, 0, 61, 0
2, 379198, Note_on_c, 0, 50, 58
2, 379198, Note_on_c, 0, 45, 58
2, 379202, Note_on_c, 0, 42, 58
2, 379214, Note_on_c, 0, 62, 63
2, 379324, Note_on_c, 0, 62, 0
2, 379334, Note_on_c, 0, 64, 63
2, 379444, Note_on_c, 0, 64, 0
2, 379454, Note_on_c, 0, 66, 63
2, 379564, Note_on_c, 0, 66, 0
2, 379574, Note_on_c, 0, 64, 63
2, 379687, Note_on_c, 0, 64, 0
2, 379687, Note_on_c, 0, 42, 0
2, 379687, Note_on_c, 0, 45, 0
2, 379687, Note_on_c, 0, 50, 0
2, 379697, Note_on_c, 0, 62, 63
2, 379807, Note_on_c, 0, 62, 0
2, 379817, Note_on_c, 0, 57, 63
2, 379904, Note_on_c, 0, 57, 0
2, 379914, Note_on_c, 0, 50, 58
2, 379916, Note_on_c, 0, 45, 58
2, 379916, Note_on_c, 0, 42, 58
2, 379937, Note_on_c, 0, 59, 63
2, 380044, Note_on_c, 0, 59, 0
2, 380054, Note_on_c, 0, 61, 63
2, 380164, Note_on_c, 0, 61, 0
2, 380164, Note_on_c, 0, 42, 0
2, 380164, Note_on_c, 0, 45, 0
2, 380164, Note_on_c, 0, 50, 0
2, 380174, Note_on_c, 0, 62, 63
2, 380284, Note_on_c, 0, 62, 0
2, 380294, Note_on_c, 0, 64, 63
2, 380387, Note_on_c, 0, 64, 0
2, 380397, Note_on_c, 0, 50, 58
2, 380397, Note_on_c, 0, 45, 58
2, 380400, Note_on_c, 0, 42, 58
2, 380414, Note_on_c, 0, 66, 63
2, 380524, Note_on_c, 0, 66, 0
2, 380534, Note_on_c, 0, 67, 63
2, 380644, Note_on_c, 0, 67, 0
2, 380644, Note_on_c, 0, 42, 0
2, 380644, Note_on_c, 0, 45, 0
2, 380644, Note_on_c, 0, 50, 0
2, 380654, Note_on_c, 0, 69, 63
2, 380764, Note_on_c, 0, 69, 0
2, 380774, Note_on_c, 0, 71, 63
2, 380866, Note_on_c, 0, 71, 0
2, 380876, Note_on_c, 0, 50, 58
2, 380876, Note_on_c, 0, 45, 58
2, 380876, Note_on_c, 0, 42, 58
2, 380894, Note_on_c, 0, 73, 63
2, 381004, Note_on_c, 0, 73, 0
2, 381014, Note_on_c, 0, 74, 63
2, 381127, Note_on_c, 0, 74, 0
2, 381127, Note_on_c, 0, 42, 0
2, 381127, Note_on_c, 0, 45, 0
2, 381127, Note_on_c, 0, 50, 0
2, 381137, Note_on_c, 0, 76, 63
2, 381247, Note_on_c, 0, 76, 0
2, 381257, Note_on_c, 0, 78, 63
2, 381344, Note_on_c, 0, 78, 0
2, 381354, Note_on_c, 0, 50, 58
2, 381356, Note_on_c, 0, 45, 58
2, 381356, Note_on_c, 0, 42, 58
2, 381377, Note_on_c, 0, 79, 63
2, 381484, Note_on_c, 0, 79, 0
2, 381494, Note_on_c, 0, 80, 63
2, 381604, Note_on_c, 0, 80, 0
2, 381604, Note_on_c, 0, 42, 0
2, 381604, Note_on_c, 0, 45, 0
2, 381604, Note_on_c, 0, 50, 0
2, 381614, Note_on_c, 0, 81, 79
2, 381616, Note_on_c, 0, 69, 79
2, 381616, Note_on_c, 0, 42, 71
2, 381724, Note_on_c, 0, 42, 0
2, 381734, Note_on_c, 0, 50, 71
2, 381844, Note_on_c, 0, 50, 0
2, 381854, Note_on_c, 0, 45, 71
2, 381964, Note_on_c, 0, 45, 0
2, 381974, Note_on_c, 0, 50, 71
2, 382084, Note_on_c, 0, 50, 0
2, 382094, Note_on_c, 0, 42, 71
2, 382204, Note_on_c, 0, 42, 0
2, 382214, Note_on_c, 0, 50, 71
2, 382324, Note_on_c, 0, 50, 0
2, 382334, Note_on_c, 0, 45, 71
2, 382447, Note_on_c, 0, 45, 0
2, 382457, Note_on_c, 0, 50, 71
2, 382567, Note_on_c, 0, 50, 0
2, 382567, Note_on_c, 0, 69, 0
2, 382567, Note_on_c, 0, 81, 0
2, 382577, Note_on_c, 0, 73, 79
2, 382577, Note_on_c, 0, 61, 79
2, 382577, Note_on_c, 0, 43, 71
2, 382687, Note_on_c, 0, 43, 0
2, 382697, Note_on_c, 0, 52, 71
2, 382807, Note_on_c, 0, 52, 0
2, 382817, Note_on_c, 0, 46, 71
2, 382924, Note_on_c, 0, 46, 0
2, 382934, Note_on_c, 0, 52, 71
2, 383044, Note_on_c, 0, 52, 0
2, 383054, Note_on_c, 0, 43, 71
2, 383164, Note_on_c, 0, 43, 0
2, 383174, Note_on_c, 0, 52, 71
2, 383284, Note_on_c, 0, 52, 0
2, 383294, Note_on_c, 0, 46, 71
2, 383404, Note_on_c, 0, 46, 0
2, 383414, Note_on_c, 0, 52, 71
2, 383524, Note_on_c, 0, 52, 0
2, 383524, Note_on_c, 0, 61, 0
2, 383524, Note_on_c, 0, 73, 0
2, 383534, Note_on_c, 0, 76, 79
2, 383534, Note_on_c, 0, 64, 79
2, 383536, Note_on_c, 0, 44, 71
2, 383644, Note_on_c, 0, 44, 0
2, 383654, Note_on_c, 0, 52, 71
2, 383767, Note_on_c, 0, 52, 0
2, 383777, Note_on_c, 0, 49, 71
2, 383887, Note_on_c, 0, 49, 0
2, 383897, Note_on_c, 0, 52, 71
2, 384007, Note_on_c, 0, 52, 0
2, 384017, Note_on_c, 0, 44, 71
2, 384127, Note_on_c, 0, 44, 0
2, 384137, Note_on_c, 0, 52, 71
2, 384244, Note_on_c, 0, 52, 0
2, 384254, Note_on_c, 0, 49, 71
2, 384364, Note_on_c, 0, 49, 0
2, 384374, Note_on_c, 0, 52, 71
2, 384467, Note_on_c, 0, 64, 0
2, 384467, Note_on_c, 0, 76, 0
2, 384477, Note_on_c, 0, 48, 79
2, 384484, Note_on_c, 0, 52, 0
2, 384494, Note_on_c, 0, 60, 79
2, 384496, Note_on_c, 0, 54, 79
2, 384496, Note_on_c, 0, 32, 71
2, 384604, Note_on_c, 0, 32, 0
2, 384614, Note_on_c, 0, 44, 71
2, 384724, Note_on_c, 0, 44, 0
2, 384734, Note_on_c, 0, 43, 71
2, 384844, Note_on_c, 0, 43, 0
2, 384854, Note_on_c, 0, 44, 71
2, 384964, Note_on_c, 0, 44, 0
2, 384974, Note_on_c, 0, 43, 71
2, 385084, Note_on_c, 0, 43, 0
2, 385094, Note_on_c, 0, 44, 71
2, 385207, Note_on_c, 0, 44, 0
2, 385217, Note_on_c, 0, 43, 71
2, 385327, Note_on_c, 0, 43, 0
2, 385337, Note_on_c, 0, 44, 71
2, 385447, Note_on_c, 0, 44, 0
2, 385447, Note_on_c, 0, 54, 0
2, 385447, Note_on_c, 0, 60, 0
2, 385447, Note_on_c, 0, 48, 0
2, 385457, Note_on_c, 0, 61, 79
2, 385457, Note_on_c, 0, 52, 79
2, 385457, Note_on_c, 0, 49, 79
2, 385460, Note_on_c, 0, 37, 71
2, 385684, Note_on_c, 0, 37, 0
2, 385684, Note_on_c, 0, 61, 0
2, 385684, Note_on_c, 0, 52, 0
2, 385684, Note_on_c, 0, 49, 0
2, 385694, Note_on_c, 0, 64, 63
2, 385696, Note_on_c, 0, 56, 58
2, 385696, Note_on_c, 0, 49, 58
2, 385907, Note_on_c, 0, 49, 0
2, 385907, Note_on_c, 0, 56, 0
2, 385907, Note_on_c, 0, 64, 0
2, 385917, Note_on_c, 0, 64, 63
2, 385917, Note_on_c, 0, 56, 58
2, 385917, Note_on_c, 0, 49, 58
2, 386144, Note_on_c, 0, 49, 0
2, 386144, Note_on_c, 0, 56, 0
2, 386144, Note_on_c, 0, 64, 0
2, 386154, Note_on_c, 0, 64, 63
2, 386156, Note_on_c, 0, 56, 58
2, 386156, Note_on_c, 0, 49, 58
2, 386384, Note_on_c, 0, 49, 0
2, 386384, Note_on_c, 0, 56, 0
2, 386384, Note_on_c, 0, 64, 0
2, 386394, Note_on_c, 0, 64, 63
2, 386398, Note_on_c, 0, 56, 58
2, 386398, Note_on_c, 0, 49, 58
2, 386624, Note_on_c, 0, 49, 0
2, 386624, Note_on_c, 0, 56, 0
2, 386624, Note_on_c, 0, 64, 0
2, 386634, Note_on_c, 0, 64, 63
2, 386634, Note_on_c, 0, 56, 58
2, 386636, Note_on_c, 0, 49, 58
2, 386864, Note_on_c, 0, 49, 0
2, 386864, Note_on_c, 0, 56, 0
2, 386864, Note_on_c, 0, 64, 0
2, 386874, Note_on_c, 0, 63, 63
2, 386874, Note_on_c, 0, 56, 58
2, 386876, Note_on_c, 0, 51, 58
2, 387107, Note_on_c, 0, 51, 0
2, 387107, Note_on_c, 0, 56, 0
2, 387107, Note_on_c, 0, 63, 0
2, 387117, Note_on_c, 0, 61, 63
2, 387117, Note_on_c, 0, 56, 58
2, 387117, Note_on_c, 0, 52, 58
2, 387347, Note_on_c, 0, 52, 0
2, 387347, Note_on_c, 0, 56, 0
2, 387347, Note_on_c, 0, 61, 0
2, 387357, Note_on_c, 0, 60, 63
2, 387357, Note_on_c, 0, 56, 58
2, 387357, Note_on_c, 0, 54, 58
2, 387360, Note_on_c, 0, 44, 58
2, 387604, Note_on_c, 0, 44, 0
2, 387604, Note_on_c, 0, 60, 0
2, 387604, Note_on_c, 0, 56, 0
2, 387604, Note_on_c, 0, 54, 0
2, 387614, Note_on_c, 0, 68, 63
2, 387614, Note_on_c, 0, 60, 58
2, 387616, Note_on_c, 0, 56, 58
2, 387616, Note_on_c, 0, 54, 58
2, 387847, Note_on_c, 0, 54, 0
2, 387847, Note_on_c, 0, 68, 0
2, 387847, Note_on_c, 0, 60, 0
2, 387847, Note_on_c, 0, 56, 0
2, 387857, Note_on_c, 0, 68, 63
2, 387857, Note_on_c, 0, 60, 58
2, 387860, Note_on_c, 0, 56, 58
2, 387860, Note_on_c, 0, 54, 58
2, 388087, Note_on_c, 0, 54, 0
2, 388087, Note_on_c, 0, 68, 0
2, 388087, Note_on_c, 0, 60, 0
2, 388087, Note_on_c, 0, 56, 0
2, 388097, Note_on_c, 0, 68, 63
2, 388097, Note_on_c, 0, 60, 58
2, 388097, Note_on_c, 0, 56, 58
2, 388100, Note_on_c, 0, 54, 58
2, 388324, Note_on_c, 0, 54, 0
2, 388324, Note_on_c, 0, 68, 0
2, 388324, Note_on_c, 0, 60, 0
2, 388324, Note_on_c, 0, 56, 0
2, 388334, Note_on_c, 0, 68, 63
2, 388336, Note_on_c, 0, 60, 58
2, 388336, Note_on_c, 0, 56, 58
2, 388339, Note_on_c, 0, 54, 58
2, 388564, Note_on_c, 0, 54, 0
2, 388564, Note_on_c, 0, 68, 0
2, 388564, Note_on_c, 0, 60, 0
2, 388564, Note_on_c, 0, 56, 0
2, 388574, Note_on_c, 0, 68, 63
2, 388576, Note_on_c, 0, 60, 58
2, 388576, Note_on_c, 0, 56, 58
2, 388576, Note_on_c, 0, 54, 58
2, 388804, Note_on_c, 0, 54, 0
2, 388804, Note_on_c, 0, 68, 0
2, 388804, Note_on_c, 0, 60, 0
2, 388804, Note_on_c, 0, 56, 0
2, 388814, Note_on_c, 0, 68, 63
2, 388814, Note_on_c, 0, 61, 58
2, 388816, Note_on_c, 0, 56, 58
2, 388816, Note_on_c, 0, 52, 58
2, 389044, Note_on_c, 0, 52, 0
2, 389044, Note_on_c, 0, 68, 0
2, 389044, Note_on_c, 0, 61, 0
2, 389044, Note_on_c, 0, 56, 0
2, 389054, Note_on_c, 0, 68, 63
2, 389054, Note_on_c, 0, 63, 58
2, 389056, Note_on_c, 0, 56, 58
2, 389056, Note_on_c, 0, 51, 58
2, 389287, Note_on_c, 0, 51, 0
2, 389287, Note_on_c, 0, 68, 0
2, 389287, Note_on_c, 0, 63, 0
2, 389287, Note_on_c, 0, 56, 0
2, 389297, Note_on_c, 0, 68, 63
2, 389297, Note_on_c, 0, 64, 58
2, 389297, Note_on_c, 0, 49, 58
2, 389300, Note_on_c, 0, 37, 58
2, 389524, Note_on_c, 0, 37, 0
2, 389524, Note_on_c, 0, 68, 0
2, 389524, Note_on_c, 0, 64, 0
2, 389524, Note_on_c, 0, 49, 0
2, 389534, Note_on_c, 0, 64, 63
2, 389537, Note_on_c, 0, 56, 58
2, 389537, Note_on_c, 0, 49, 58
2, 389764, Note_on_c, 0, 49, 0
2, 389764, Note_on_c, 0, 56, 0
2, 389764, Note_on_c, 0, 64, 0
2, 389774, Note_on_c, 0, 64, 63
2, 389776, Note_on_c, 0, 56, 58
2, 389776, Note_on_c, 0, 49, 58
2, 390004, Note_on_c, 0, 49, 0
2, 390004, Note_on_c, 0, 56, 0
2, 390004, Note_on_c, 0, 64, 0
2, 390014, Note_on_c, 0, 64, 63
2, 390016, Note_on_c, 0, 56, 58
2, 390016, Note_on_c, 0, 49, 58
2, 390244, Note_on_c, 0, 49, 0
2, 390244, Note_on_c, 0, 56, 0
2, 390244, Note_on_c, 0, 64, 0
2, 390254, Note_on_c, 0, 64, 63
2, 390254, Note_on_c, 0, 56, 58
2, 390256, Note_on_c, 0, 49, 58
2, 390484, Note_on_c, 0, 49, 0
2, 390484, Note_on_c, 0, 56, 0
2, 390484, Note_on_c, 0, 64, 0
2, 390494, Note_on_c, 0, 64, 63
2, 390494, Note_on_c, 0, 56, 58
2, 390496, Note_on_c, 0, 49, 58
2, 390727, Note_on_c, 0, 49, 0
2, 390727, Note_on_c, 0, 56, 0
2, 390727, Note_on_c, 0, 64, 0
2, 390737, Note_on_c, 0, 63, 63
2, 390737, Note_on_c, 0, 56, 58
2, 390737, Note_on_c, 0, 51, 58
2, 390964, Note_on_c, 0, 51, 0
2, 390964, Note_on_c, 0, 56, 0
2, 390964, Note_on_c, 0, 63, 0
2, 390974, Note_on_c, 0, 61, 63
2, 390977, Note_on_c, 0, 56, 58
2, 390977, Note_on_c, 0, 52, 58
2, 391192, Note_on_c, 0, 52, 0
2, 391192, Note_on_c, 0, 56, 0
2, 391192, Note_on_c, 0, 61, 0
2, 391202, Note_on_c, 0, 44, 58
2, 391214, Note_on_c, 0, 60, 63
2, 391216, Note_on_c, 0, 56, 58
2, 391216, Note_on_c, 0, 54, 58
2, 391444, Note_on_c, 0, 54, 0
2, 391444, Note_on_c, 0, 44, 0
2, 391444, Note_on_c, 0, 60, 0
2, 391444, Note_on_c, 0, 56, 0
2, 391454, Note_on_c, 0, 68, 63
2, 391454, Note_on_c, 0, 60, 58
2, 391456, Note_on_c, 0, 56, 58
2, 391456, Note_on_c, 0, 54, 58
2, 391684, Note_on_c, 0, 54, 0
2, 391684, Note_on_c, 0, 68, 0
2, 391684, Note_on_c, 0, 60, 0
2, 391684, Note_on_c, 0, 56, 0
2, 391694, Note_on_c, 0, 68, 63
2, 391694, Note_on_c, 0, 60, 58
2, 391696, Note_on_c, 0, 56, 58
2, 391696, Note_on_c, 0, 54, 58
2, 391927, Note_on_c, 0, 54, 0
2, 391927, Note_on_c, 0, 68, 0
2, 391927, Note_on_c, 0, 60, 0
2, 391927, Note_on_c, 0, 56, 0
2, 391937, Note_on_c, 0, 68, 63
2, 391937, Note_on_c, 0, 60, 58
2, 391937, Note_on_c, 0, 56, 58
2, 391940, Note_on_c, 0, 54, 58
2, 392167, Note_on_c, 0, 54, 0
2, 392167, Note_on_c, 0, 68, 0
2, 392167, Note_on_c, 0, 60, 0
2, 392167, Note_on_c, 0, 56, 0
2, 392177, Note_on_c, 0, 68, 63
2, 392177, Note_on_c, 0, 60, 58
2, 392177, Note_on_c, 0, 56, 58
2, 392180, Note_on_c, 0, 54, 58
2, 392404, Note_on_c, 0, 54, 0
2, 392404, Note_on_c, 0, 68, 0
2, 392404, Note_on_c, 0, 60, 0
2, 392404, Note_on_c, 0, 56, 0
2, 392414, Note_on_c, 0, 68, 63
2, 392416, Note_on_c, 0, 60, 58
2, 392416, Note_on_c, 0, 56, 58
2, 392419, Note_on_c, 0, 54, 58
2, 392644, Note_on_c, 0, 54, 0
2, 392644, Note_on_c, 0, 68, 0
2, 392644, Note_on_c, 0, 60, 0
2, 392644, Note_on_c, 0, 56, 0
2, 392654, Note_on_c, 0, 68, 63
2, 392656, Note_on_c, 0, 61, 58
2, 392656, Note_on_c, 0, 56, 58
2, 392656, Note_on_c, 0, 52, 58
2, 392884, Note_on_c, 0, 52, 0
2, 392884, Note_on_c, 0, 68, 0
2, 392884, Note_on_c, 0, 61, 0
2, 392884, Note_on_c, 0, 56, 0
2, 392894, Note_on_c, 0, 68, 63
2, 392894, Note_on_c, 0, 63, 58
2, 392896, Note_on_c, 0, 56, 58
2, 392896, Note_on_c, 0, 51, 58
2, 393124, Note_on_c, 0, 51, 0
2, 393124, Note_on_c, 0, 68, 0
2, 393124, Note_on_c, 0, 63, 0
2, 393124, Note_on_c, 0, 56, 0
2, 393134, Note_on_c, 0, 68, 63
2, 393134, Note_on_c, 0, 64, 58
2, 393136, Note_on_c, 0, 49, 58
2, 393136, Note_on_c, 0, 37, 58
2, 393344, Note_on_c, 0, 37, 0
2, 393344, Note_on_c, 0, 68, 0
2, 393344, Note_on_c, 0, 64, 0
2, 393344, Note_on_c, 0, 49, 0
2, 393354, Note_on_c, 0, 68, 63
2, 393354, Note_on_c, 0, 64, 58
2, 393356, Note_on_c, 0, 52, 58
2, 393356, Note_on_c, 0, 49, 58
2, 393584, Note_on_c, 0, 49, 0
2, 393584, Note_on_c, 0, 68, 0
2, 393584, Note_on_c, 0, 64, 0
2, 393584, Note_on_c, 0, 52, 0
2, 393594, Note_on_c, 0, 68, 63
2, 393594, Note_on_c, 0, 64, 58
2, 393598, Note_on_c, 0, 52, 58
2, 393598, Note_on_c, 0, 49, 58
2, 393837, Note_on_c, 0, 64, 63
2, 393837, Note_on_c, 0, 61, 58
2, 393837, Note_on_c, 0, 56, 58
2, 393840, Note_on_c, 0, 52, 58
2, 394084, Note_on_c, 0, 52, 0
2, 394084, Note_on_c, 0, 68, 0
2, 394084, Note_on_c, 0, 64, 0
2, 394084, Note_on_c, 0, 64, 0
2, 394084, Note_on_c, 0, 52, 0
2, 394084, Note_on_c, 0, 49, 0
2, 394084, Note_on_c, 0, 61, 0
2, 394084, Note_on_c, 0, 56, 0
2, 394094, Note_on_c, 0, 42, 58
2, 394304, Note_on_c, 0, 42, 0
2, 394314, Note_on_c, 0, 69, 63
2, 394316, Note_on_c, 0, 66, 58
2, 394316, Note_on_c, 0, 54, 58
2, 394319, Note_on_c, 0, 49, 58
2, 394544, Note_on_c, 0, 49, 0
2, 394544, Note_on_c, 0, 69, 0
2, 394544, Note_on_c, 0, 66, 0
2, 394544, Note_on_c, 0, 54, 0
2, 394554, Note_on_c, 0, 69, 63
2, 394556, Note_on_c, 0, 66, 58
2, 394556, Note_on_c, 0, 54, 58
2, 394556, Note_on_c, 0, 49, 58
2, 394794, Note_on_c, 0, 66, 63
2, 394794, Note_on_c, 0, 61, 58
2, 394796, Note_on_c, 0, 57, 58
2, 394796, Note_on_c, 0, 54, 58
2, 395047, Note_on_c, 0, 54, 0
2, 395047, Note_on_c, 0, 69, 0
2, 395047, Note_on_c, 0, 66, 0
2, 395047, Note_on_c, 0, 66, 0
2, 395047, Note_on_c, 0, 54, 0
2, 395047, Note_on_c, 0, 49, 0
2, 395047, Note_on_c, 0, 61, 0
2, 395047, Note_on_c, 0, 57, 0
2, 395057, Note_on_c, 0, 44, 58
2, 395267, Note_on_c, 0, 44, 0
2, 395277, Note_on_c, 0, 68, 63
2, 395277, Note_on_c, 0, 64, 58
2, 395277, Note_on_c, 0, 52, 58
2, 395280, Note_on_c, 0, 49, 58
2, 395504, Note_on_c, 0, 49, 0
2, 395504, Note_on_c, 0, 68, 0
2, 395504, Note_on_c, 0, 64, 0
2, 395504, Note_on_c, 0, 52, 0
2, 395514, Note_on_c, 0, 68, 63
2, 395517, Note_on_c, 0, 64, 58
2, 395517, Note_on_c, 0, 52, 58
2, 395520, Note_on_c, 0, 49, 58
2, 395764, Note_on_c, 0, 49, 0
2, 395764, Note_on_c, 0, 68, 0
2, 395764, Note_on_c, 0, 64, 0
2, 395764, Note_on_c, 0, 52, 0
2, 395774, Note_on_c, 0, 64, 63
2, 395774, Note_on_c, 0, 61, 58
2, 395776, Note_on_c, 0, 56, 58
2, 395776, Note_on_c, 0, 52, 58
2, 396007, Note_on_c, 0, 52, 0
2, 396007, Note_on_c, 0, 64, 0
2, 396007, Note_on_c, 0, 61, 0
2, 396007, Note_on_c, 0, 56, 0
2, 396017, Note_on_c, 0, 44, 58
2, 396224, Note_on_c, 0, 44, 0
2, 396234, Note_on_c, 0, 68, 63
2, 396234, Note_on_c, 0, 63, 58
2, 396236, Note_on_c, 0, 51, 58
2, 396236, Note_on_c, 0, 48, 58
2, 396467, Note_on_c, 0, 48, 0
2, 396467, Note_on_c, 0, 68, 0
2, 396467, Note_on_c, 0, 63, 0
2, 396467, Note_on_c, 0, 51, 0
2, 396477, Note_on_c, 0, 68, 63
2, 396477, Note_on_c, 0, 63, 58
2, 396480, Note_on_c, 0, 51, 58
2, 396480, Note_on_c, 0, 48, 58
2, 396724, Note_on_c, 0, 48, 0
2, 396724, Note_on_c, 0, 68, 0
2, 396724, Note_on_c, 0, 63, 0
2, 396724, Note_on_c, 0, 51, 0
2, 396734, Note_on_c, 0, 63, 63
2, 396736, Note_on_c, 0, 60, 58
2, 396736, Note_on_c, 0, 56, 58
2, 396736, Note_on_c, 0, 51, 58
2, 396964, Note_on_c, 0, 51, 0
2, 396964, Note_on_c, 0, 63, 0
2, 396964, Note_on_c, 0, 60, 0
2, 396964, Note_on_c, 0, 56, 0
2, 396974, Note_on_c, 0, 64, 63
2, 396974, Note_on_c, 0, 61, 58
2, 396976, Note_on_c, 0, 49, 58
2, 396976, Note_on_c, 0, 37, 58
2, 397189, Note_on_c, 0, 37, 0
2, 397189, Note_on_c, 0, 64, 0
2, 397189, Note_on_c, 0, 61, 0
2, 397189, Note_on_c, 0, 49, 0
2, 397199, Note_on_c, 0, 49, 58
2, 397214, Note_on_c, 0, 76, 63
2, 397214, Note_on_c, 0, 68, 58
2, 397216, Note_on_c, 0, 64, 58
2, 397216, Note_on_c, 0, 56, 58
2, 397447, Note_on_c, 0, 56, 0
2, 397447, Note_on_c, 0, 68, 0
2, 397447, Note_on_c, 0, 49, 0
2, 397447, Note_on_c, 0, 76, 0
2, 397447, Note_on_c, 0, 64, 0
2, 397457, Note_on_c, 0, 76, 59
2, 397457, Note_on_c, 0, 68, 59
2, 397457, Note_on_c, 0, 64, 59
2, 397460, Note_on_c, 0, 56, 59
2, 397460, Note_on_c, 0, 49, 59
2, 397684, Note_on_c, 0, 49, 0
2, 397684, Note_on_c, 0, 64, 0
2, 397684, Note_on_c, 0, 76, 0
2, 397684, Note_on_c, 0, 68, 0
2, 397684, Note_on_c, 0, 56, 0
2, 397694, Note_on_c, 0, 76, 61
2, 397697, Note_on_c, 0, 68, 61
2, 397697, Note_on_c, 0, 64, 61
2, 397700, Note_on_c, 0, 56, 61
2, 397700, Note_on_c, 0, 49, 61
2, 397924, Note_on_c, 0, 49, 0
2, 397924, Note_on_c, 0, 64, 0
2, 397924, Note_on_c, 0, 76, 0
2, 397924, Note_on_c, 0, 68, 0
2, 397924, Note_on_c, 0, 56, 0
2, 397934, Note_on_c, 0, 76, 64
2, 397936, Note_on_c, 0, 68, 64
2, 397936, Note_on_c, 0, 64, 64
2, 397936, Note_on_c, 0, 56, 64
2, 397939, Note_on_c, 0, 49, 64
2, 398164, Note_on_c, 0, 49, 0
2, 398164, Note_on_c, 0, 64, 0
2, 398164, Note_on_c, 0, 76, 0
2, 398164, Note_on_c, 0, 68, 0
2, 398164, Note_on_c, 0, 56, 0
2, 398174, Note_on_c, 0, 76, 67
2, 398177, Note_on_c, 0, 68, 67
2, 398177, Note_on_c, 0, 64, 67
2, 398180, Note_on_c, 0, 56, 67
2, 398180, Note_on_c, 0, 49, 67
2, 398404, Note_on_c, 0, 49, 0
2, 398404, Note_on_c, 0, 64, 0
2, 398404, Note_on_c, 0, 76, 0
2, 398404, Note_on_c, 0, 68, 0
2, 398404, Note_on_c, 0, 56, 0
2, 398414, Note_on_c, 0, 75, 70
2, 398414, Note_on_c, 0, 66, 70
2, 398416, Note_on_c, 0, 63, 70
2, 398416, Note_on_c, 0, 56, 70
2, 398416, Note_on_c, 0, 51, 70
2, 398644, Note_on_c, 0, 51, 0
2, 398644, Note_on_c, 0, 63, 0
2, 398644, Note_on_c, 0, 75, 0
2, 398644, Note_on_c, 0, 66, 0
2, 398644, Note_on_c, 0, 56, 0
2, 398654, Note_on_c, 0, 73, 73
2, 398654, Note_on_c, 0, 64, 73
2, 398656, Note_on_c, 0, 61, 73
2, 398656, Note_on_c, 0, 56, 73
2, 398659, Note_on_c, 0, 52, 73
2, 398869, Note_on_c, 0, 52, 0
2, 398869, Note_on_c, 0, 61, 0
2, 398869, Note_on_c, 0, 73, 0
2, 398869, Note_on_c, 0, 64, 0
2, 398869, Note_on_c, 0, 56, 0
2, 398879, Note_on_c, 0, 44, 58
2, 398894, Note_on_c, 0, 72, 76
2, 398894, Note_on_c, 0, 63, 76
2, 398896, Note_on_c, 0, 60, 76
2, 398896, Note_on_c, 0, 56, 76
2, 398896, Note_on_c, 0, 54, 76
2, 399127, Note_on_c, 0, 54, 0
2, 399127, Note_on_c, 0, 72, 0
2, 399127, Note_on_c, 0, 63, 0
2, 399127, Note_on_c, 0, 44, 0
2, 399127, Note_on_c, 0, 56, 0
2, 399127, Note_on_c, 0, 60, 0
2, 399137, Note_on_c, 0, 84, 79
2, 399137, Note_on_c, 0, 75, 79
2, 399137, Note_on_c, 0, 72, 79
2, 399140, Note_on_c, 0, 66, 79
2, 399140, Note_on_c, 0, 56, 79
2, 399364, Note_on_c, 0, 56, 0
2, 399364, Note_on_c, 0, 72, 0
2, 399364, Note_on_c, 0, 84, 0
2, 399364, Note_on_c, 0, 75, 0
2, 399364, Note_on_c, 0, 66, 0
2, 399374, Note_on_c, 0, 84, 79
2, 399376, Note_on_c, 0, 75, 79
2, 399376, Note_on_c, 0, 72, 79
2, 399376, Note_on_c, 0, 66, 79
2, 399379, Note_on_c, 0, 56, 79
2, 399604, Note_on_c, 0, 56, 0
2, 399604, Note_on_c, 0, 72, 0
2, 399604, Note_on_c, 0, 84, 0
2, 399604, Note_on_c, 0, 75, 0
2, 399604, Note_on_c, 0, 66, 0
2, 399614, Note_on_c, 0, 84, 79
2, 399616, Note_on_c, 0, 75, 79
2, 399616, Note_on_c, 0, 72, 79
2, 399616, Note_on_c, 0, 66, 79
2, 399619, Note_on_c, 0, 56, 79
2, 399844, Note_on_c, 0, 56, 0
2, 399844, Note_on_c, 0, 72, 0
2, 399844, Note_on_c, 0, 84, 0
2, 399844, Note_on_c, 0, 75, 0
2, 399844, Note_on_c, 0, 66, 0
2, 399854, Note_on_c, 0, 84, 79
2, 399854, Note_on_c, 0, 75, 79
2, 399856, Note_on_c, 0, 72, 79
2, 399856, Note_on_c, 0, 66, 79
2, 399859, Note_on_c, 0, 56, 79
2, 400084, Note_on_c, 0, 56, 0
2, 400084, Note_on_c, 0, 72, 0
2, 400084, Note_on_c, 0, 84, 0
2, 400084, Note_on_c, 0, 75, 0
2, 400084, Note_on_c, 0, 66, 0
2, 400094, Note_on_c, 0, 84, 79
2, 400094, Note_on_c, 0, 75, 79
2, 400096, Note_on_c, 0, 72, 79
2, 400096, Note_on_c, 0, 66, 79
2, 400096, Note_on_c, 0, 56, 79
2, 400327, Note_on_c, 0, 56, 0
2, 400327, Note_on_c, 0, 72, 0
2, 400327, Note_on_c, 0, 84, 0
2, 400327, Note_on_c, 0, 75, 0
2, 400327, Note_on_c, 0, 66, 0
2, 400337, Note_on_c, 0, 85, 79
2, 400337, Note_on_c, 0, 76, 79
2, 400337, Note_on_c, 0, 73, 79
2, 400340, Note_on_c, 0, 64, 79
2, 400340, Note_on_c, 0, 56, 79
2, 400564, Note_on_c, 0, 56, 0
2, 400564, Note_on_c, 0, 73, 0
2, 400564, Note_on_c, 0, 85, 0
2, 400564, Note_on_c, 0, 76, 0
2, 400564, Note_on_c, 0, 64, 0
2, 400574, Note_on_c, 0, 87, 79
2, 400576, Note_on_c, 0, 78, 79
2, 400576, Note_on_c, 0, 75, 79
2, 400579, Note_on_c, 0, 63, 79
2, 400579, Note_on_c, 0, 56, 79
2, 400804, Note_on_c, 0, 56, 0
2, 400804, Note_on_c, 0, 75, 0
2, 400804, Note_on_c, 0, 87, 0
2, 400804, Note_on_c, 0, 78, 0
2, 400804, Note_on_c, 0, 63, 0
2, 400814, Note_on_c, 0, 88, 79
2, 400817, Note_on_c, 0, 80, 79
2, 400817, Note_on_c, 0, 76, 79
2, 400820, Note_on_c, 0, 49, 79
2, 400820, Note_on_c, 0, 37, 79
2, 401044, Note_on_c, 0, 37, 0
2, 401044, Note_on_c, 0, 76, 0
2, 401044, Note_on_c, 0, 88, 0
2, 401044, Note_on_c, 0, 80, 0
2, 401044, Note_on_c, 0, 49, 0
2, 401054, Note_on_c, 0, 76, 58
2, 401054, Note_on_c, 0, 68, 58
2, 401056, Note_on_c, 0, 64, 58
2, 401056, Note_on_c, 0, 56, 58
2, 401059, Note_on_c, 0, 49, 58
2, 401284, Note_on_c, 0, 49, 0
2, 401284, Note_on_c, 0, 64, 0
2, 401284, Note_on_c, 0, 76, 0
2, 401284, Note_on_c, 0, 68, 0
2, 401284, Note_on_c, 0, 56, 0
2, 401294, Note_on_c, 0, 76, 59
2, 401294, Note_on_c, 0, 68, 59
2, 401296, Note_on_c, 0, 64, 59
2, 401296, Note_on_c, 0, 56, 59
2, 401296, Note_on_c, 0, 49, 59
2, 401527, Note_on_c, 0, 49, 0
2, 401527, Note_on_c, 0, 64, 0
2, 401527, Note_on_c, 0, 76, 0
2, 401527, Note_on_c, 0, 68, 0
2, 401527, Note_on_c, 0, 56, 0
2, 401537, Note_on_c, 0, 76, 61
2, 401537, Note_on_c, 0, 68, 61
2, 401537, Note_on_c, 0, 64, 61
2, 401540, Note_on_c, 0, 56, 61
2, 401540, Note_on_c, 0, 49, 61
2, 401764, Note_on_c, 0, 49, 0
2, 401764, Note_on_c, 0, 64, 0
2, 401764, Note_on_c, 0, 76, 0
2, 401764, Note_on_c, 0, 68, 0
2, 401764, Note_on_c, 0, 56, 0
2, 401774, Note_on_c, 0, 76, 64
2, 401777, Note_on_c, 0, 68, 64
2, 401777, Note_on_c, 0, 64, 64
2, 401780, Note_on_c, 0, 56, 64
2, 401780, Note_on_c, 0, 49, 64
2, 402004, Note_on_c, 0, 49, 0
2, 402004, Note_on_c, 0, 64, 0
2, 402004, Note_on_c, 0, 76, 0
2, 402004, Note_on_c, 0, 68, 0
2, 402004, Note_on_c, 0, 56, 0
2, 402014, Note_on_c, 0, 76, 67
2, 402016, Note_on_c, 0, 68, 67
2, 402016, Note_on_c, 0, 64, 67
2, 402016, Note_on_c, 0, 56, 67
2, 402019, Note_on_c, 0, 49, 67
2, 402244, Note_on_c, 0, 49, 0
2, 402244, Note_on_c, 0, 64, 0
2, 402244, Note_on_c, 0, 76, 0
2, 402244, Note_on_c, 0, 68, 0
2, 402244, Note_on_c, 0, 56, 0
2, 402254, Note_on_c, 0, 75, 70
2, 402256, Note_on_c, 0, 66, 70
2, 402256, Note_on_c, 0, 63, 70
2, 402256, Note_on_c, 0, 56, 70
2, 402259, Note_on_c, 0, 51, 70
2, 402484, Note_on_c, 0, 51, 0
2, 402484, Note_on_c, 0, 63, 0
2, 402484, Note_on_c, 0, 75, 0
2, 402484, Note_on_c, 0, 66, 0
2, 402484, Note_on_c, 0, 56, 0
2, 402494, Note_on_c, 0, 73, 73
2, 402494, Note_on_c, 0, 64, 73
2, 402496, Note_on_c, 0, 61, 73
2, 402496, Note_on_c, 0, 56, 73
2, 402496, Note_on_c, 0, 52, 73
2, 402709, Note_on_c, 0, 52, 0
2, 402709, Note_on_c, 0, 61, 0
2, 402709, Note_on_c, 0, 73, 0
2, 402709, Note_on_c, 0, 64, 0
2, 402709, Note_on_c, 0, 56, 0
2, 402719, Note_on_c, 0, 44, 58
2, 402734, Note_on_c, 0, 72, 76
2, 402734, Note_on_c, 0, 63, 76
2, 402736, Note_on_c, 0, 60, 76
2, 402736, Note_on_c, 0, 56, 76
2, 402736, Note_on_c, 0, 54, 76
2, 402967, Note_on_c, 0, 54, 0
2, 402967, Note_on_c, 0, 72, 0
2, 402967, Note_on_c, 0, 63, 0
2, 402967, Note_on_c, 0, 44, 0
2, 402967, Note_on_c, 0, 56, 0
2, 402967, Note_on_c, 0, 60, 0
2, 402977, Note_on_c, 0, 84, 79
2, 402977, Note_on_c, 0, 75, 79
2, 402977, Note_on_c, 0, 72, 79
2, 402980, Note_on_c, 0, 66, 79
2, 402980, Note_on_c, 0, 56, 79
2, 403204, Note_on_c, 0, 56, 0
2, 403204, Note_on_c, 0, 72, 0
2, 403204, Note_on_c, 0, 84, 0
2, 403204, Note_on_c, 0, 75, 0
2, 403204, Note_on_c, 0, 66, 0
2, 403214, Note_on_c, 0, 84, 79
2, 403217, Note_on_c, 0, 75, 79
2, 403217, Note_on_c, 0, 72, 79
2, 403220, Note_on_c, 0, 66, 79
2, 403220, Note_on_c, 0, 56, 79
2, 403444, Note_on_c, 0, 56, 0
2, 403444, Note_on_c, 0, 72, 0
2, 403444, Note_on_c, 0, 84, 0
2, 403444, Note_on_c, 0, 75, 0
2, 403444, Note_on_c, 0, 66, 0
2, 403454, Note_on_c, 0, 84, 79
2, 403456, Note_on_c, 0, 75, 79
2, 403456, Note_on_c, 0, 72, 79
2, 403456, Note_on_c, 0, 66, 79
2, 403459, Note_on_c, 0, 56, 79
2, 403684, Note_on_c, 0, 56, 0
2, 403684, Note_on_c, 0, 72, 0
2, 403684, Note_on_c, 0, 84, 0
2, 403684, Note_on_c, 0, 75, 0
2, 403684, Note_on_c, 0, 66, 0
2, 403694, Note_on_c, 0, 84, 79
2, 403694, Note_on_c, 0, 75, 79
2, 403696, Note_on_c, 0, 72, 79
2, 403696, Note_on_c, 0, 66, 79
2, 403699, Note_on_c, 0, 56, 79
2, 403924, Note_on_c, 0, 56, 0
2, 403924, Note_on_c, 0, 72, 0
2, 403924, Note_on_c, 0, 84, 0
2, 403924, Note_on_c, 0, 75, 0
2, 403924, Note_on_c, 0, 66, 0
2, 403934, Note_on_c, 0, 84, 79
2, 403934, Note_on_c, 0, 75, 79
2, 403936, Note_on_c, 0, 72, 79
2, 403936, Note_on_c, 0, 66, 79
2, 403936, Note_on_c, 0, 56, 79
2, 404167, Note_on_c, 0, 56, 0
2, 404167, Note_on_c, 0, 72, 0
2, 404167, Note_on_c, 0, 84, 0
2, 404167, Note_on_c, 0, 75, 0
2, 404167, Note_on_c, 0, 66, 0
2, 404177, Note_on_c, 0, 85, 79
2, 404177, Note_on_c, 0, 76, 79
2, 404177, Note_on_c, 0, 73, 79
2, 404180, Note_on_c, 0, 64, 79
2, 404180, Note_on_c, 0, 56, 79
2, 404407, Note_on_c, 0, 56, 0
2, 404407, Note_on_c, 0, 73, 0
2, 404407, Note_on_c, 0, 85, 0
2, 404407, Note_on_c, 0, 76, 0
2, 404407, Note_on_c, 0, 64, 0
2, 404417, Note_on_c, 0, 87, 79
2, 404417, Note_on_c, 0, 78, 79
2, 404417, Note_on_c, 0, 75, 79
2, 404420, Note_on_c, 0, 63, 79
2, 404420, Note_on_c, 0, 56, 79
2, 404644, Note_on_c, 0, 56, 0
2, 404644, Note_on_c, 0, 75, 0
2, 404644, Note_on_c, 0, 87, 0
2, 404644, Note_on_c, 0, 78, 0
2, 404644, Note_on_c, 0, 63, 0
2, 404654, Note_on_c, 0, 88, 79
2, 404656, Note_on_c, 0, 80, 79
2, 404656, Note_on_c, 0, 76, 79
2, 404659, Note_on_c, 0, 61, 79
2, 404659, Note_on_c, 0, 49, 79
2, 404884, Note_on_c, 0, 49, 0
2, 404884, Note_on_c, 0, 76, 0
2, 404884, Note_on_c, 0, 88, 0
2, 404884, Note_on_c, 0, 80, 0
2, 404884, Note_on_c, 0, 61, 0
2, 404894, Note_on_c, 0, 85, 58
2, 404896, Note_on_c, 0, 80, 58
2, 404896, Note_on_c, 0, 61, 58
2, 404896, Note_on_c, 0, 64, 58
2, 405044, Note_on_c, 0, 64, 0
2, 405044, Note_on_c, 0, 85, 0
2, 405044, Note_on_c, 0, 80, 0
2, 405044, Note_on_c, 0, 61, 0
2, 405054, Note_on_c, 0, 80, 58
2, 405106, Note_on_c, 0, 80, 0
2, 405114, Note_on_c, 0, 85, 58
2, 405116, Note_on_c, 0, 61, 58
2, 405119, Note_on_c, 0, 64, 58
2, 405134, Note_on_c, 0, 80, 58
2, 405354, Note_on_c, 0, 80, 58
2, 405356, Note_on_c, 0, 76, 58
2, 405356, Note_on_c, 0, 64, 58
2, 405356, Note_on_c, 0, 68, 58
2, 405607, Note_on_c, 0, 68, 0
2, 405607, Note_on_c, 0, 85, 0
2, 405607, Note_on_c, 0, 80, 0
2, 405607, Note_on_c, 0, 61, 0
2, 405607, Note_on_c, 0, 64, 0
2, 405607, Note_on_c, 0, 80, 0
2, 405607, Note_on_c, 0, 76, 0
2, 405607, Note_on_c, 0, 64, 0
2, 405617, Note_on_c, 0, 54, 58
2, 405824, Note_on_c, 0, 54, 0
2, 405834, Note_on_c, 0, 85, 58
2, 405834, Note_on_c, 0, 81, 58
2, 405836, Note_on_c, 0, 61, 58
2, 405836, Note_on_c, 0, 66, 58
2, 406067, Note_on_c, 0, 66, 0
2, 406067, Note_on_c, 0, 85, 0
2, 406067, Note_on_c, 0, 81, 0
2, 406067, Note_on_c, 0, 61, 0
2, 406077, Note_on_c, 0, 85, 58
2, 406077, Note_on_c, 0, 81, 58
2, 406077, Note_on_c, 0, 61, 58
2, 406080, Note_on_c, 0, 66, 58
2, 406317, Note_on_c, 0, 81, 58
2, 406317, Note_on_c, 0, 78, 58
2, 406317, Note_on_c, 0, 66, 58
2, 406320, Note_on_c, 0, 69, 58
2, 406564, Note_on_c, 0, 69, 0
2, 406564, Note_on_c, 0, 85, 0
2, 406564, Note_on_c, 0, 81, 0
2, 406564, Note_on_c, 0, 81, 0
2, 406564, Note_on_c, 0, 61, 0
2, 406564, Note_on_c, 0, 66, 0
2, 406564, Note_on_c, 0, 78, 0
2, 406564, Note_on_c, 0, 66, 0
2, 406574, Note_on_c, 0, 56, 58
2, 406784, Note_on_c, 0, 56, 0
2, 406794, Note_on_c, 0, 80, 58
2, 406796, Note_on_c, 0, 76, 58
2, 406796, Note_on_c, 0, 61, 58
2, 406796, Note_on_c, 0, 64, 58
2, 407024, Note_on_c, 0, 64, 0
2, 407024, Note_on_c, 0, 80, 0
2, 407024, Note_on_c, 0, 76, 0
2, 407024, Note_on_c, 0, 61, 0
2, 407034, Note_on_c, 0, 80, 58
2, 407034, Note_on_c, 0, 76, 58
2, 407036, Note_on_c, 0, 61, 58
2, 407036, Note_on_c, 0, 64, 58
2, 407277, Note_on_c, 0, 76, 58
2, 407277, Note_on_c, 0, 73, 58
2, 407280, Note_on_c, 0, 64, 58
2, 407280, Note_on_c, 0, 68, 58
2, 407510, Note_on_c, 0, 68, 0
2, 407510, Note_on_c, 0, 80, 0
2, 407510, Note_on_c, 0, 76, 0
2, 407510, Note_on_c, 0, 76, 0
2, 407510, Note_on_c, 0, 61, 0
2, 407510, Note_on_c, 0, 64, 0
2, 407510, Note_on_c, 0, 73, 0
2, 407510, Note_on_c, 0, 64, 0
2, 407520, Note_on_c, 0, 54, 58
2, 407744, Note_on_c, 0, 54, 0
2, 407754, Note_on_c, 0, 80, 58
2, 407757, Note_on_c, 0, 75, 58
2, 407757, Note_on_c, 0, 60, 58
2, 407760, Note_on_c, 0, 63, 58
2, 407984, Note_on_c, 0, 63, 0
2, 407984, Note_on_c, 0, 80, 0
2, 407984, Note_on_c, 0, 75, 0
2, 407984, Note_on_c, 0, 60, 0
2, 407994, Note_on_c, 0, 80, 58
2, 407996, Note_on_c, 0, 75, 58
2, 407996, Note_on_c, 0, 60, 58
2, 407996, Note_on_c, 0, 63, 58
2, 408234, Note_on_c, 0, 75, 58
2, 408236, Note_on_c, 0, 72, 58
2, 408236, Note_on_c, 0, 63, 58
2, 408236, Note_on_c, 0, 68, 58
2, 408466, Note_on_c, 0, 68, 0
2, 408466, Note_on_c, 0, 80, 0
2, 408466, Note_on_c, 0, 75, 0
2, 408466, Note_on_c, 0, 75, 0
2, 408466, Note_on_c, 0, 60, 0
2, 408466, Note_on_c, 0, 63, 0
2, 408466, Note_on_c, 0, 72, 0
2, 408466, Note_on_c, 0, 63, 0
2, 408476, Note_on_c, 0, 52, 58
2, 408707, Note_on_c, 0, 52, 0
2, 408717, Note_on_c, 0, 80, 58
2, 408717, Note_on_c, 0, 73, 58
2, 408720, Note_on_c, 0, 61, 58
2, 408720, Note_on_c, 0, 56, 58
2, 408947, Note_on_c, 0, 56, 0
2, 408947, Note_on_c, 0, 80, 0
2, 408947, Note_on_c, 0, 73, 0
2, 408947, Note_on_c, 0, 61, 0
2, 408957, Note_on_c, 0, 80, 58
2, 408957, Note_on_c, 0, 73, 58
2, 408957, Note_on_c, 0, 61, 58
2, 408960, Note_on_c, 0, 56, 58
2, 409194, Note_on_c, 0, 76, 58
2, 409196, Note_on_c, 0, 68, 58
2, 409196, Note_on_c, 0, 64, 58
2, 409199, Note_on_c, 0, 61, 58
2, 409426, Note_on_c, 0, 61, 0
2, 409426, Note_on_c, 0, 80, 0
2, 409426, Note_on_c, 0, 76, 0
2, 409426, Note_on_c, 0, 64, 0
2, 409426, Note_on_c, 0, 73, 0
2, 409426, Note_on_c, 0, 56, 0
2, 409426, Note_on_c, 0, 68, 0
2, 409436, Note_on_c, 0, 42, 58
2, 409664, Note_on_c, 0, 42, 0
2, 409664, Note_on_c, 0, 61, 0
2, 409674, Note_on_c, 0, 78, 58
2, 409674, Note_on_c, 0, 69, 58
2, 409676, Note_on_c, 0, 57, 58
2, 409676, Note_on_c, 0, 54, 58
2, 409904, Note_on_c, 0, 54, 0
2, 409904, Note_on_c, 0, 78, 0
2, 409904, Note_on_c, 0, 69, 0
2, 409904, Note_on_c, 0, 57, 0
2, 409914, Note_on_c, 0, 78, 58
2, 409914, Note_on_c, 0, 69, 58
2, 409916, Note_on_c, 0, 57, 58
2, 409916, Note_on_c, 0, 54, 58
2, 410157, Note_on_c, 0, 74, 58
2, 410157, Note_on_c, 0, 66, 58
2, 410157, Note_on_c, 0, 62, 58
2, 410160, Note_on_c, 0, 57, 58
2, 410390, Note_on_c, 0, 57, 0
2, 410390, Note_on_c, 0, 78, 0
2, 410390, Note_on_c, 0, 74, 0
2, 410390, Note_on_c, 0, 69, 0
2, 410390, Note_on_c, 0, 57, 0
2, 410390, Note_on_c, 0, 54, 0
2, 410390, Note_on_c, 0, 66, 0
2, 410390, Note_on_c, 0, 62, 0
2, 410400, Note_on_c, 0, 44, 58
2, 410624, Note_on_c, 0, 44, 0
2, 410634, Note_on_c, 0, 76, 58
2, 410637, Note_on_c, 0, 68, 58
2, 410637, Note_on_c, 0, 56, 58
2, 410640, Note_on_c, 0, 52, 58
2, 410864, Note_on_c, 0, 52, 0
2, 410864, Note_on_c, 0, 76, 0
2, 410864, Note_on_c, 0, 68, 0
2, 410864, Note_on_c, 0, 56, 0
2, 410874, Note_on_c, 0, 76, 58
2, 410876, Note_on_c, 0, 68, 58
2, 410876, Note_on_c, 0, 56, 58
2, 410876, Note_on_c, 0, 52, 58
2, 411114, Note_on_c, 0, 73, 58
2, 411114, Note_on_c, 0, 64, 58
2, 411116, Note_on_c, 0, 61, 58
2, 411116, Note_on_c, 0, 56, 58
2, 411346, Note_on_c, 0, 56, 0
2, 411346, Note_on_c, 0, 76, 0
2, 411346, Note_on_c, 0, 73, 0
2, 411346, Note_on_c, 0, 68, 0
2, 411346, Note_on_c, 0, 56, 0
2, 411346, Note_on_c, 0, 52, 0
2, 411346, Note_on_c, 0, 64, 0
2, 411346, Note_on_c, 0, 61, 0
2, 411356, Note_on_c, 0, 44, 58
2, 411587, Note_on_c, 0, 44, 0
2, 411597, Note_on_c, 0, 75, 58
2, 411597, Note_on_c, 0, 66, 58
2, 411597, Note_on_c, 0, 54, 58
2, 411600, Note_on_c, 0, 51, 58
2, 411824, Note_on_c, 0, 51, 0
2, 411824, Note_on_c, 0, 75, 0
2, 411824, Note_on_c, 0, 66, 0
2, 411824, Note_on_c, 0, 54, 0
2, 411834, Note_on_c, 0, 75, 58
2, 411837, Note_on_c, 0, 66, 58
2, 411837, Note_on_c, 0, 54, 58
2, 411840, Note_on_c, 0, 51, 58
2, 412074, Note_on_c, 0, 72, 58
2, 412076, Note_on_c, 0, 63, 58
2, 412076, Note_on_c, 0, 60, 58
2, 412076, Note_on_c, 0, 54, 58
2, 412306, Note_on_c, 0, 54, 0
2, 412306, Note_on_c, 0, 75, 0
2, 412306, Note_on_c, 0, 72, 0
2, 412306, Note_on_c, 0, 60, 0
2, 412306, Note_on_c, 0, 66, 0
2, 412306, Note_on_c, 0, 51, 0
2, 412306, Note_on_c, 0, 63, 0
2, 412316, Note_on_c, 0, 37, 58
2, 412327, Note_on_c, 0, 54, 0
2, 412337, Note_on_c, 0, 73, 58
2, 412337, Note_on_c, 0, 64, 58
2, 412447, Note_on_c, 0, 37, 0
2, 412457, Note_on_c, 0, 49, 58
2, 412567, Note_on_c, 0, 49, 0
2, 412577, Note_on_c, 0, 44, 58
2, 412687, Note_on_c, 0, 44, 0
2, 412697, Note_on_c, 0, 49, 58
2, 412804, Note_on_c, 0, 49, 0
2, 412804, Note_on_c, 0, 64, 0
2, 412804, Note_on_c, 0, 73, 0
2, 412814, Note_on_c, 0, 37, 58
2, 412924, Note_on_c, 0, 37, 0
2, 412934, Note_on_c, 0, 49, 58
2, 413044, Note_on_c, 0, 49, 0
2, 413054, Note_on_c, 0, 44, 58
2, 413164, Note_on_c, 0, 44, 0
2, 413174, Note_on_c, 0, 49, 58
2, 413284, Note_on_c, 0, 49, 0
2, 413294, Note_on_c, 0, 37, 58
2, 413404, Note_on_c, 0, 37, 0
2, 413414, Note_on_c, 0, 49, 58
2, 413524, Note_on_c, 0, 49, 0
2, 413534, Note_on_c, 0, 44, 58
2, 413647, Note_on_c, 0, 44, 0
2, 413657, Note_on_c, 0, 49, 58
2, 413744, Note_on_c, 0, 49, 0
2, 413754, Note_on_c, 0, 64, 58
2, 413777, Note_on_c, 0, 37, 58
2, 413887, Note_on_c, 0, 37, 0
2, 413897, Note_on_c, 0, 49, 58
2, 414007, Note_on_c, 0, 49, 0
2, 414017, Note_on_c, 0, 44, 58
2, 414107, Note_on_c, 0, 44, 0
2, 414117, Note_on_c, 0, 61, 58
2, 414126, Note_on_c, 0, 64, 0
2, 414136, Note_on_c, 0, 49, 58
2, 414244, Note_on_c, 0, 49, 0
2, 414244, Note_on_c, 0, 61, 0
2, 414254, Note_on_c, 0, 60, 58
2, 414256, Note_on_c, 0, 37, 58
2, 414364, Note_on_c, 0, 37, 0
2, 414374, Note_on_c, 0, 51, 58
2, 414484, Note_on_c, 0, 51, 0
2, 414494, Note_on_c, 0, 44, 58
2, 414604, Note_on_c, 0, 44, 0
2, 414614, Note_on_c, 0, 51, 58
2, 414706, Note_on_c, 0, 51, 0
2, 414706, Note_on_c, 0, 60, 0
2, 414716, Note_on_c, 0, 60, 58
2, 414716, Note_on_c, 0, 54, 58
2, 414734, Note_on_c, 0, 68, 58
2, 414734, Note_on_c, 0, 37, 58
2, 414844, Note_on_c, 0, 37, 0
2, 414854, Note_on_c, 0, 51, 58
2, 414964, Note_on_c, 0, 51, 0
2, 414974, Note_on_c, 0, 44, 58
2, 415087, Note_on_c, 0, 44, 0
2, 415087, Note_on_c, 0, 60, 0
2, 415087, Note_on_c, 0, 54, 0
2, 415087, Note_on_c, 0, 68, 0
2, 415097, Note_on_c, 0, 51, 58
2, 415186, Note_on_c, 0, 51, 0
2, 415194, Note_on_c, 0, 68, 58
2, 415194, Note_on_c, 0, 60, 58
2, 415196, Note_on_c, 0, 54, 58
2, 415217, Note_on_c, 0, 37, 58
2, 415327, Note_on_c, 0, 37, 0
2, 415337, Note_on_c, 0, 51, 58
2, 415444, Note_on_c, 0, 51, 0
2, 415454, Note_on_c, 0, 44, 58
2, 415564, Note_on_c, 0, 44, 0
2, 415564, Note_on_c, 0, 68, 0
2, 415564, Note_on_c, 0, 60, 0
2, 415564, Note_on_c, 0, 54, 0
2, 415574, Note_on_c, 0, 51, 58
2, 415677, Note_on_c, 0, 68, 58
2, 415677, Note_on_c, 0, 60, 58
2, 415677, Note_on_c, 0, 54, 58
2, 415684, Note_on_c, 0, 51, 0
2, 415694, Note_on_c, 0, 37, 58
2, 415804, Note_on_c, 0, 37, 0
2, 415814, Note_on_c, 0, 51, 58
2, 415924, Note_on_c, 0, 51, 0
2, 415934, Note_on_c, 0, 44, 58
2, 416044, Note_on_c, 0, 44, 0
2, 416044, Note_on_c, 0, 54, 0
2, 416044, Note_on_c, 0, 60, 0
2, 416044, Note_on_c, 0, 68, 0
2, 416054, Note_on_c, 0, 51, 58
2, 416154, Note_on_c, 0, 52, 58
2, 416164, Note_on_c, 0, 51, 0
2, 416174, Note_on_c, 0, 37, 58
2, 416234, Note_on_c, 0, 61, 58
2, 416284, Note_on_c, 0, 37, 0
2, 416284, Note_on_c, 0, 52, 0
2, 416294, Note_on_c, 0, 49, 58
2, 416317, Note_on_c, 0, 68, 58
2, 416407, Note_on_c, 0, 49, 0
2, 416407, Note_on_c, 0, 61, 0
2, 416417, Note_on_c, 0, 44, 58
2, 416527, Note_on_c, 0, 44, 0
2, 416537, Note_on_c, 0, 49, 58
2, 416647, Note_on_c, 0, 49, 0
2, 416657, Note_on_c, 0, 37, 58
2, 416767, Note_on_c, 0, 37, 0
2, 416777, Note_on_c, 0, 49, 58
2, 416884, Note_on_c, 0, 49, 0
2, 416894, Note_on_c, 0, 44, 58
2, 417004, Note_on_c, 0, 44, 0
2, 417014, Note_on_c, 0, 49, 58
2, 417124, Note_on_c, 0, 49, 0
2, 417134, Note_on_c, 0, 37, 58
2, 417244, Note_on_c, 0, 37, 0
2, 417254, Note_on_c, 0, 49, 58
2, 417364, Note_on_c, 0, 49, 0
2, 417374, Note_on_c, 0, 44, 58
2, 417484, Note_on_c, 0, 44, 0
2, 417494, Note_on_c, 0, 49, 58
2, 417604, Note_on_c, 0, 49, 0
2, 417604, Note_on_c, 0, 68, 0
2, 417614, Note_on_c, 0, 76, 58
2, 417614, Note_on_c, 0, 37, 58
2, 417727, Note_on_c, 0, 37, 0
2, 417737, Note_on_c, 0, 49, 58
2, 417847, Note_on_c, 0, 49, 0
2, 417857, Note_on_c, 0, 44, 58
2, 417944, Note_on_c, 0, 44, 0
2, 417954, Note_on_c, 0, 73, 58
2, 417964, Note_on_c, 0, 76, 0
2, 417974, Note_on_c, 0, 49, 58
2, 418084, Note_on_c, 0, 49, 0
2, 418084, Note_on_c, 0, 73, 0
2, 418094, Note_on_c, 0, 72, 58
2, 418097, Note_on_c, 0, 37, 58
2, 418204, Note_on_c, 0, 37, 0
2, 418214, Note_on_c, 0, 51, 58
2, 418324, Note_on_c, 0, 51, 0
2, 418334, Note_on_c, 0, 44, 58
2, 418444, Note_on_c, 0, 44, 0
2, 418454, Note_on_c, 0, 51, 58
2, 418547, Note_on_c, 0, 72, 0
2, 418557, Note_on_c, 0, 72, 58
2, 418557, Note_on_c, 0, 66, 58
2, 418564, Note_on_c, 0, 51, 0
2, 418574, Note_on_c, 0, 80, 58
2, 418576, Note_on_c, 0, 37, 58
2, 418684, Note_on_c, 0, 37, 0
2, 418694, Note_on_c, 0, 51, 58
2, 418804, Note_on_c, 0, 51, 0
2, 418814, Note_on_c, 0, 44, 58
2, 418924, Note_on_c, 0, 44, 0
2, 418924, Note_on_c, 0, 72, 0
2, 418924, Note_on_c, 0, 66, 0
2, 418924, Note_on_c, 0, 80, 0
2, 418934, Note_on_c, 0, 51, 58
2, 419026, Note_on_c, 0, 51, 0
2, 419034, Note_on_c, 0, 80, 58
2, 419036, Note_on_c, 0, 72, 58
2, 419036, Note_on_c, 0, 66, 58
2, 419054, Note_on_c, 0, 37, 58
2, 419167, Note_on_c, 0, 37, 0
2, 419177, Note_on_c, 0, 51, 58
2, 419287, Note_on_c, 0, 51, 0
2, 419297, Note_on_c, 0, 44, 58
2, 419407, Note_on_c, 0, 44, 0
2, 419407, Note_on_c, 0, 80, 0
2, 419407, Note_on_c, 0, 72, 0
2, 419407, Note_on_c, 0, 66, 0
2, 419417, Note_on_c, 0, 51, 58
2, 419510, Note_on_c, 0, 51, 0
2, 419517, Note_on_c, 0, 80, 58
2, 419517, Note_on_c, 0, 72, 58
2, 419520, Note_on_c, 0, 66, 58
2, 419534, Note_on_c, 0, 37, 58
2, 419644, Note_on_c, 0, 37, 0
2, 419654, Note_on_c, 0, 51, 58
2, 419764, Note_on_c, 0, 51, 0
2, 419774, Note_on_c, 0, 44, 58
2, 419884, Note_on_c, 0, 44, 0
2, 419884, Note_on_c, 0, 80, 0
2, 419884, Note_on_c, 0, 72, 0
2, 419884, Note_on_c, 0, 66, 0
2, 419894, Note_on_c, 0, 51, 58
2, 419994, Note_on_c, 0, 64, 58
2, 420004, Note_on_c, 0, 51, 0
2, 420014, Note_on_c, 0, 37, 58
2, 420074, Note_on_c, 0, 73, 58
2, 420124, Note_on_c, 0, 37, 0
2, 420124, Note_on_c, 0, 64, 0
2, 420134, Note_on_c, 0, 49, 58
2, 420157, Note_on_c, 0, 80, 58
2, 420244, Note_on_c, 0, 49, 0
2, 420244, Note_on_c, 0, 73, 0
2, 420254, Note_on_c, 0, 44, 58
2, 420364, Note_on_c, 0, 44, 0
2, 420374, Note_on_c, 0, 49, 58
2, 420487, Note_on_c, 0, 49, 0
2, 420497, Note_on_c, 0, 37, 58
2, 420607, Note_on_c, 0, 37, 0
2, 420617, Note_on_c, 0, 49, 58
2, 420727, Note_on_c, 0, 49, 0
2, 420737, Note_on_c, 0, 44, 58
2, 420847, Note_on_c, 0, 44, 0
2, 420857, Note_on_c, 0, 49, 58
2, 420964, Note_on_c, 0, 49, 0
2, 420964, Note_on_c, 0, 80, 0
2, 420974, Note_on_c, 0, 66, 58
2, 420976, Note_on_c, 0, 37, 58
2, 421034, Note_on_c, 0, 72, 58
2, 421084, Note_on_c, 0, 37, 0
2, 421084, Note_on_c, 0, 66, 0
2, 421094, Note_on_c, 0, 51, 58
2, 421114, Note_on_c, 0, 80, 58
2, 421204, Note_on_c, 0, 51, 0
2, 421204, Note_on_c, 0, 72, 0
2, 421214, Note_on_c, 0, 44, 58
2, 421324, Note_on_c, 0, 44, 0
2, 421334, Note_on_c, 0, 51, 58
2, 421444, Note_on_c, 0, 51, 0
2, 421454, Note_on_c, 0, 37, 58
2, 421564, Note_on_c, 0, 37, 0
2, 421574, Note_on_c, 0, 51, 58
2, 421684, Note_on_c, 0, 51, 0
2, 421694, Note_on_c, 0, 44, 58
2, 421807, Note_on_c, 0, 44, 0
2, 421817, Note_on_c, 0, 51, 58
2, 421927, Note_on_c, 0, 51, 0
2, 421927, Note_on_c, 0, 80, 0
2, 421937, Note_on_c, 0, 64, 58
2, 421937, Note_on_c, 0, 37, 58
2, 421997, Note_on_c, 0, 73, 58
2, 422047, Note_on_c, 0, 37, 0
2, 422047, Note_on_c, 0, 64, 0
2, 422057, Note_on_c, 0, 49, 58
2, 422074, Note_on_c, 0, 80, 58
2, 422167, Note_on_c, 0, 49, 0
2, 422167, Note_on_c, 0, 73, 0
2, 422177, Note_on_c, 0, 44, 58
2, 422284, Note_on_c, 0, 44, 0
2, 422294, Note_on_c, 0, 49, 58
2, 422404, Note_on_c, 0, 49, 0
2, 422414, Note_on_c, 0, 37, 58
2, 422524, Note_on_c, 0, 37, 0
2, 422534, Note_on_c, 0, 49, 58
2, 422644, Note_on_c, 0, 49, 0
2, 422654, Note_on_c, 0, 44, 58
2, 422764, Note_on_c, 0, 44, 0
2, 422774, Note_on_c, 0, 49, 58
2, 422884, Note_on_c, 0, 49, 0
2, 422884, Note_on_c, 0, 80, 0
2, 422894, Note_on_c, 0, 66, 58
2, 422894, Note_on_c, 0, 37, 58
2, 422954, Note_on_c, 0, 72, 58
2, 423004, Note_on_c, 0, 37, 0
2, 423004, Note_on_c, 0, 66, 0
2, 423014, Note_on_c, 0, 51, 58
2, 423037, Note_on_c, 0, 80, 58
2, 423127, Note_on_c, 0, 51, 0
2, 423127, Note_on_c, 0, 72, 0
2, 423137, Note_on_c, 0, 44, 58
2, 423247, Note_on_c, 0, 44, 0
2, 423257, Note_on_c, 0, 51, 58
2, 423367, Note_on_c, 0, 51, 0
2, 423377, Note_on_c, 0, 37, 58
2, 423487, Note_on_c, 0, 37, 0
2, 423497, Note_on_c, 0, 51, 58
2, 423604, Note_on_c, 0, 51, 0
2, 423614, Note_on_c, 0, 44, 58
2, 423724, Note_on_c, 0, 44, 0
2, 423734, Note_on_c, 0, 51, 58
2, 423844, Note_on_c, 0, 51, 0
2, 423844, Note_on_c, 0, 80, 0
2, 423854, Note_on_c, 0, 52, 58
2, 423856, Note_on_c, 0, 37, 58
2, 423964, Note_on_c, 0, 37, 0
2, 423964, Note_on_c, 0, 52, 0
2, 423974, Note_on_c, 0, 61, 58
2, 423976, Note_on_c, 0, 49, 58
2, 424084, Note_on_c, 0, 49, 0
2, 424084, Note_on_c, 0, 61, 0
2, 424094, Note_on_c, 0, 56, 58
2, 424094, Note_on_c, 0, 44, 58
2, 424204, Note_on_c, 0, 44, 0
2, 424204, Note_on_c, 0, 56, 0
2, 424214, Note_on_c, 0, 61, 58
2, 424214, Note_on_c, 0, 49, 58
2, 424324, Note_on_c, 0, 49, 0
2, 424324, Note_on_c, 0, 61, 0
2, 424334, Note_on_c, 0, 52, 58
2, 424334, Note_on_c, 0, 37, 58
2, 424444, Note_on_c, 0, 37, 0
2, 424444, Note_on_c, 0, 52, 0
2, 424454, Note_on_c, 0, 61, 58
2, 424454, Note_on_c, 0, 49, 58
2, 424567, Note_on_c, 0, 49, 0
2, 424567, Note_on_c, 0, 61, 0
2, 424577, Note_on_c, 0, 56, 58
2, 424577, Note_on_c, 0, 44, 58
2, 424687, Note_on_c, 0, 44, 0
2, 424687, Note_on_c, 0, 56, 0
2, 424697, Note_on_c, 0, 61, 58
2, 424697, Note_on_c, 0, 49, 58
2, 424807, Note_on_c, 0, 49, 0
2, 424807, Note_on_c, 0, 61, 0
2, 424817, Note_on_c, 0, 52, 65
2, 424817, Note_on_c, 0, 37, 65
2, 424924, Note_on_c, 0, 37, 0
2, 424924, Note_on_c, 0, 52, 0
2, 424934, Note_on_c, 0, 61, 65
2, 424937, Note_on_c, 0, 49, 65
2, 425044, Note_on_c, 0, 49, 0
2, 425044, Note_on_c, 0, 61, 0
2, 425054, Note_on_c, 0, 56, 65
2, 425056, Note_on_c, 0, 44, 65
2, 425164, Note_on_c, 0, 44, 0
2, 425164, Note_on_c, 0, 56, 0
2, 425174, Note_on_c, 0, 61, 65
2, 425176, Note_on_c, 0, 49, 65
2, 425284, Note_on_c, 0, 49, 0
2, 425284, Note_on_c, 0, 61, 0
2, 425294, Note_on_c, 0, 52, 67
2, 425296, Note_on_c, 0, 37, 67
2, 425404, Note_on_c, 0, 37, 0
2, 425404, Note_on_c, 0, 52, 0
2, 425414, Note_on_c, 0, 61, 67
2, 425414, Note_on_c, 0, 49, 67
2, 425524, Note_on_c, 0, 49, 0
2, 425524, Note_on_c, 0, 61, 0
2, 425534, Note_on_c, 0, 56, 67
2, 425534, Note_on_c, 0, 44, 67
2, 425644, Note_on_c, 0, 44, 0
2, 425644, Note_on_c, 0, 56, 0
2, 425654, Note_on_c, 0, 61, 67
2, 425654, Note_on_c, 0, 49, 67
2, 425746, Note_on_c, 0, 49, 0
2, 425746, Note_on_c, 0, 61, 0
2, 425756, Note_on_c, 0, 49, 58
2, 425774, Note_on_c, 0, 53, 69
2, 425774, Note_on_c, 0, 35, 69
2, 425887, Note_on_c, 0, 35, 0
2, 425887, Note_on_c, 0, 53, 0
2, 425887, Note_on_c, 0, 49, 0
2, 425897, Note_on_c, 0, 61, 69
2, 425897, Note_on_c, 0, 47, 69
2, 426007, Note_on_c, 0, 47, 0
2, 426007, Note_on_c, 0, 61, 0
2, 426017, Note_on_c, 0, 56, 69
2, 426017, Note_on_c, 0, 37, 69
2, 426127, Note_on_c, 0, 37, 0
2, 426127, Note_on_c, 0, 56, 0
2, 426137, Note_on_c, 0, 61, 69
2, 426137, Note_on_c, 0, 47, 69
2, 426224, Note_on_c, 0, 61, 0
2, 426234, Note_on_c, 0, 49, 58
2, 426244, Note_on_c, 0, 47, 0
2, 426254, Note_on_c, 0, 53, 71
2, 426257, Note_on_c, 0, 35, 71
2, 426364, Note_on_c, 0, 35, 0
2, 426364, Note_on_c, 0, 53, 0
2, 426364, Note_on_c, 0, 49, 0
2, 426374, Note_on_c, 0, 61, 71
2, 426376, Note_on_c, 0, 47, 71
2, 426484, Note_on_c, 0, 47, 0
2, 426484, Note_on_c, 0, 61, 0
2, 426494, Note_on_c, 0, 56, 71
2, 426496, Note_on_c, 0, 37, 71
2, 426604, Note_on_c, 0, 37, 0
2, 426604, Note_on_c, 0, 56, 0
2, 426614, Note_on_c, 0, 61, 71
2, 426616, Note_on_c, 0, 47, 71
2, 426707, Note_on_c, 0, 47, 0
2, 426707, Note_on_c, 0, 61, 0
2, 426717, Note_on_c, 0, 49, 58
2, 426734, Note_on_c, 0, 53, 73
2, 426734, Note_on_c, 0, 35, 73
2, 426844, Note_on_c, 0, 35, 0
2, 426844, Note_on_c, 0, 53, 0
2, 426844, Note_on_c, 0, 49, 0
2, 426854, Note_on_c, 0, 61, 73
2, 426854, Note_on_c, 0, 47, 73
2, 426964, Note_on_c, 0, 47, 0
2, 426964, Note_on_c, 0, 61, 0
2, 426974, Note_on_c, 0, 56, 73
2, 426974, Note_on_c, 0, 37, 73
2, 427084, Note_on_c, 0, 37, 0
2, 427084, Note_on_c, 0, 56, 0
2, 427094, Note_on_c, 0, 61, 73
2, 427094, Note_on_c, 0, 47, 73
2, 427186, Note_on_c, 0, 47, 0
2, 427186, Note_on_c, 0, 61, 0
2, 427196, Note_on_c, 0, 49, 58
2, 427214, Note_on_c, 0, 53, 73
2, 427214, Note_on_c, 0, 35, 73
2, 427327, Note_on_c, 0, 35, 0
2, 427327, Note_on_c, 0, 53, 0
2, 427327, Note_on_c, 0, 49, 0
2, 427337, Note_on_c, 0, 61, 73
2, 427337, Note_on_c, 0, 47, 73
2, 427447, Note_on_c, 0, 47, 0
2, 427447, Note_on_c, 0, 61, 0
2, 427457, Note_on_c, 0, 56, 73
2, 427457, Note_on_c, 0, 37, 73
2, 427564, Note_on_c, 0, 37, 0
2, 427564, Note_on_c, 0, 56, 0
2, 427574, Note_on_c, 0, 61, 73
2, 427577, Note_on_c, 0, 47, 73
2, 427667, Note_on_c, 0, 61, 0
2, 427670, Note_on_c, 0, 47, 0
2, 427677, Note_on_c, 0, 57, 77
2, 427680, Note_on_c, 0, 51, 77
2, 427680, Note_on_c, 0, 49, 77
2, 427684, Note_on_c, 0, 45, 77
2, 427694, Note_on_c, 0, 61, 77
2, 427696, Note_on_c, 0, 33, 77
2, 427804, Note_on_c, 0, 61, 0
2, 427804, Note_on_c, 0, 49, 0
2, 427804, Note_on_c, 0, 57, 0
2, 427804, Note_on_c, 0, 51, 0
2, 427814, Note_on_c, 0, 49, 63
2, 427907, Note_on_c, 0, 49, 0
2, 427907, Note_on_c, 0, 45, 0
2, 427907, Note_on_c, 0, 33, 0
2, 427917, Note_on_c, 0, 42, 58
2, 427934, Note_on_c, 0, 54, 63
2, 428044, Note_on_c, 0, 54, 0
2, 428054, Note_on_c, 0, 57, 63
2, 428146, Note_on_c, 0, 57, 0
2, 428146, Note_on_c, 0, 42, 0
2, 428156, Note_on_c, 0, 33, 58
2, 428174, Note_on_c, 0, 61, 63
2, 428284, Note_on_c, 0, 61, 0
2, 428294, Note_on_c, 0, 54, 63
2, 428386, Note_on_c, 0, 54, 0
2, 428386, Note_on_c, 0, 33, 0
2, 428396, Note_on_c, 0, 42, 58
2, 428414, Note_on_c, 0, 57, 63
2, 428524, Note_on_c, 0, 57, 0
2, 428534, Note_on_c, 0, 61, 63
2, 428624, Note_on_c, 0, 61, 0
2, 428624, Note_on_c, 0, 42, 0
2, 428634, Note_on_c, 0, 33, 58
2, 428657, Note_on_c, 0, 66, 63
2, 428767, Note_on_c, 0, 66, 0
2, 428777, Note_on_c, 0, 57, 63
2, 428864, Note_on_c, 0, 57, 0
2, 428864, Note_on_c, 0, 33, 0
2, 428874, Note_on_c, 0, 42, 58
2, 428897, Note_on_c, 0, 61, 63
2, 429004, Note_on_c, 0, 61, 0
2, 429014, Note_on_c, 0, 66, 63
2, 429107, Note_on_c, 0, 66, 0
2, 429107, Note_on_c, 0, 42, 0
2, 429117, Note_on_c, 0, 33, 58
2, 429134, Note_on_c, 0, 69, 63
2, 429244, Note_on_c, 0, 69, 0
2, 429254, Note_on_c, 0, 61, 63
2, 429347, Note_on_c, 0, 61, 0
2, 429347, Note_on_c, 0, 33, 0
2, 429357, Note_on_c, 0, 42, 58
2, 429374, Note_on_c, 0, 66, 63
2, 429484, Note_on_c, 0, 66, 0
2, 429494, Note_on_c, 0, 69, 63
2, 429586, Note_on_c, 0, 69, 0
2, 429586, Note_on_c, 0, 42, 0
2, 429596, Note_on_c, 0, 33, 58
2, 429614, Note_on_c, 0, 73, 63
2, 429724, Note_on_c, 0, 73, 0
2, 429734, Note_on_c, 0, 66, 63
2, 429826, Note_on_c, 0, 66, 0
2, 429826, Note_on_c, 0, 33, 0
2, 429836, Note_on_c, 0, 42, 58
2, 429854, Note_on_c, 0, 69, 63
2, 429967, Note_on_c, 0, 69, 0
2, 429977, Note_on_c, 0, 73, 63
2, 430064, Note_on_c, 0, 73, 0
2, 430064, Note_on_c, 0, 42, 0
2, 430074, Note_on_c, 0, 33, 58
2, 430097, Note_on_c, 0, 78, 63
2, 430207, Note_on_c, 0, 78, 0
2, 430217, Note_on_c, 0, 69, 63
2, 430304, Note_on_c, 0, 69, 0
2, 430304, Note_on_c, 0, 33, 0
2, 430314, Note_on_c, 0, 42, 58
2, 430334, Note_on_c, 0, 73, 63
2, 430444, Note_on_c, 0, 73, 0
2, 430454, Note_on_c, 0, 78, 63
2, 430547, Note_on_c, 0, 78, 0
2, 430547, Note_on_c, 0, 42, 0
2, 430557, Note_on_c, 0, 33, 58
2, 430574, Note_on_c, 0, 81, 63
2, 430684, Note_on_c, 0, 81, 0
2, 430694, Note_on_c, 0, 73, 63
2, 430787, Note_on_c, 0, 73, 0
2, 430787, Note_on_c, 0, 33, 0
2, 430797, Note_on_c, 0, 42, 58
2, 430814, Note_on_c, 0, 78, 63
2, 430924, Note_on_c, 0, 78, 0
2, 430934, Note_on_c, 0, 81, 63
2, 431026, Note_on_c, 0, 81, 0
2, 431026, Note_on_c, 0, 42, 0
2, 431036, Note_on_c, 0, 81, 77
2, 431036, Note_on_c, 0, 78, 77
2, 431036, Note_on_c, 0, 33, 58
2, 431037, Control_c, 0, 64, 127
2, 431039, Note_on_c, 0, 73, 77
2, 431039, Note_on_c, 0, 45, 77
2, 431054, Note_on_c, 0, 85, 63
2, 431264, Note_on_c, 0, 85, 0
2, 431264, Note_on_c, 0, 78, 0
2, 431264, Note_on_c, 0, 33, 0
2, 431264, Note_on_c, 0, 81, 0
2, 431264, Note_on_c, 0, 45, 0
2, 431264, Note_on_c, 0, 73, 0
2, 431274, Note_on_c, 0, 85, 63
2, 431276, Note_on_c, 0, 81, 77
2, 431276, Note_on_c, 0, 78, 77
2, 431276, Note_on_c, 0, 42, 58
2, 431279, Note_on_c, 0, 73, 77
2, 431504, Note_on_c, 0, 73, 0
2, 431504, Note_on_c, 0, 78, 0
2, 431504, Note_on_c, 0, 85, 0
2, 431504, Note_on_c, 0, 81, 0
2, 431504, Note_on_c, 0, 42, 0
2, 431513, Control_c, 0, 64, 0
2, 431514, Note_on_c, 0, 32, 58
2, 431634, Note_on_c, 0, 49, 63
2, 431747, Note_on_c, 0, 49, 0
2, 431747, Note_on_c, 0, 32, 0
2, 431757, Note_on_c, 0, 40, 58
2, 431774, Note_on_c, 0, 52, 63
2, 431884, Note_on_c, 0, 52, 0
2, 431894, Note_on_c, 0, 56, 63
2, 431987, Note_on_c, 0, 56, 0
2, 431987, Note_on_c, 0, 40, 0
2, 431997, Note_on_c, 0, 32, 58
2, 432014, Note_on_c, 0, 61, 63
2, 432124, Note_on_c, 0, 61, 0
2, 432134, Note_on_c, 0, 52, 63
2, 432227, Note_on_c, 0, 52, 0
2, 432227, Note_on_c, 0, 32, 0
2, 432237, Note_on_c, 0, 40, 58
2, 432254, Note_on_c, 0, 56, 63
2, 432364, Note_on_c, 0, 56, 0
2, 432374, Note_on_c, 0, 61, 63
2, 432466, Note_on_c, 0, 61, 0
2, 432466, Note_on_c, 0, 40, 0
2, 432476, Note_on_c, 0, 32, 58
2, 432494, Note_on_c, 0, 64, 63
2, 432604, Note_on_c, 0, 64, 0
2, 432614, Note_on_c, 0, 56, 63
2, 432704, Note_on_c, 0, 56, 0
2, 432704, Note_on_c, 0, 32, 0
2, 432714, Note_on_c, 0, 40, 58
2, 432737, Note_on_c, 0, 61, 63
2, 432847, Note_on_c, 0, 61, 0
2, 432857, Note_on_c, 0, 64, 63
2, 432944, Note_on_c, 0, 64, 0
2, 432944, Note_on_c, 0, 40, 0
2, 432954, Note_on_c, 0, 32, 58
2, 432977, Note_on_c, 0, 68, 63
2, 433084, Note_on_c, 0, 68, 0
2, 433094, Note_on_c, 0, 61, 63
2, 433187, Note_on_c, 0, 61, 0
2, 433187, Note_on_c, 0, 32, 0
2, 433197, Note_on_c, 0, 40, 58
2, 433214, Note_on_c, 0, 64, 63
2, 433324, Note_on_c, 0, 64, 0
2, 433334, Note_on_c, 0, 68, 63
2, 433427, Note_on_c, 0, 68, 0
2, 433427, Note_on_c, 0, 40, 0
2, 433437, Note_on_c, 0, 32, 58
2, 433454, Note_on_c, 0, 73, 63
2, 433564, Note_on_c, 0, 73, 0
2, 433574, Note_on_c, 0, 64, 63
2, 433666, Note_on_c, 0, 64, 0
2, 433666, Note_on_c, 0, 32, 0
2, 433676, Note_on_c, 0, 40, 58
2, 433694, Note_on_c, 0, 68, 63
2, 433804, Note_on_c, 0, 68, 0
2, 433814, Note_on_c, 0, 73, 63
2, 433906, Note_on_c, 0, 73, 0
2, 433906, Note_on_c, 0, 40, 0
2, 433916, Note_on_c, 0, 32, 58
2, 433934, Note_on_c, 0, 76, 63
2, 434047, Note_on_c, 0, 76, 0
2, 434057, Note_on_c, 0, 68, 63
2, 434144, Note_on_c, 0, 68, 0
2, 434144, Note_on_c, 0, 32, 0
2, 434154, Note_on_c, 0, 40, 58
2, 434177, Note_on_c, 0, 73, 63
2, 434287, Note_on_c, 0, 73, 0
2, 434297, Note_on_c, 0, 76, 63
2, 434384, Note_on_c, 0, 76, 0
2, 434384, Note_on_c, 0, 40, 0
2, 434394, Note_on_c, 0, 32, 58
2, 434417, Note_on_c, 0, 80, 63
2, 434524, Note_on_c, 0, 80, 0
2, 434534, Note_on_c, 0, 73, 63
2, 434627, Note_on_c, 0, 73, 0
2, 434627, Note_on_c, 0, 32, 0
2, 434637, Note_on_c, 0, 40, 58
2, 434654, Note_on_c, 0, 76, 63
2, 434764, Note_on_c, 0, 76, 0
2, 434774, Note_on_c, 0, 80, 63
2, 434867, Note_on_c, 0, 80, 0
2, 434867, Note_on_c, 0, 40, 0
2, 434877, Control_c, 0, 64, 127
2, 434877, Note_on_c, 0, 80, 77
2, 434877, Note_on_c, 0, 76, 77
2, 434880, Note_on_c, 0, 32, 58
2, 434880, Note_on_c, 0, 73, 77
2, 434880, Note_on_c, 0, 44, 77
2, 434894, Note_on_c, 0, 85, 63
2, 435104, Note_on_c, 0, 85, 0
2, 435104, Note_on_c, 0, 76, 0
2, 435104, Note_on_c, 0, 32, 0
2, 435104, Note_on_c, 0, 80, 0
2, 435104, Note_on_c, 0, 44, 0
2, 435104, Note_on_c, 0, 73, 0
2, 435114, Note_on_c, 0, 85, 63
2, 435116, Note_on_c, 0, 80, 77
2, 435116, Note_on_c, 0, 76, 77
2, 435116, Note_on_c, 0, 40, 58
2, 435119, Note_on_c, 0, 73, 77
2, 435324, Note_on_c, 0, 73, 0
2, 435324, Note_on_c, 0, 76, 0
2, 435324, Note_on_c, 0, 85, 0
2, 435324, Note_on_c, 0, 80, 0
2, 435324, Note_on_c, 0, 40, 0
2, 435334, Note_on_c, 0, 31, 71
2, 435353, Control_c, 0, 64, 0
2, 435571, Note_on_c, 0, 49, 71
2, 435631, Note_on_c, 0, 52, 71
2, 435691, Note_on_c, 0, 55, 71
2, 435751, Note_on_c, 0, 58, 71
2, 435811, Note_on_c, 0, 61, 71
2, 436053, Note_on_c, 0, 31, 0
2, 436063, Note_on_c, 0, 31, 71
2, 436111, Note_on_c, 0, 34, 71
2, 436171, Note_on_c, 0, 40, 71
2, 436231, Note_on_c, 0, 31, 0
2, 436241, Note_on_c, 0, 43, 71
2, 436531, Note_on_c, 0, 61, 0
2, 436541, Note_on_c, 0, 61, 71
2, 436593, Note_on_c, 0, 49, 0
2, 436603, Note_on_c, 0, 64, 71
2, 436651, Note_on_c, 0, 52, 0
2, 436661, Note_on_c, 0, 67, 71
2, 436713, Note_on_c, 0, 55, 0
2, 436723, Note_on_c, 0, 70, 71
2, 436771, Note_on_c, 0, 58, 0
2, 436781, Note_on_c, 0, 73, 71
2, 437013, Note_on_c, 0, 43, 0
2, 437013, Note_on_c, 0, 40, 0
2, 437013, Note_on_c, 0, 34, 0
2, 437023, Note_on_c, 0, 43, 71
2, 437071, Note_on_c, 0, 46, 71
2, 437131, Note_on_c, 0, 49, 71
2, 437193, Note_on_c, 0, 61, 0
2, 437203, Note_on_c, 0, 52, 71
2, 437251, Note_on_c, 0, 68, 71
2, 437493, Note_on_c, 0, 68, 0
2, 437493, Note_on_c, 0, 73, 0
2, 437493, Note_on_c, 0, 67, 0
2, 437493, Note_on_c, 0, 64, 0
2, 437493, Note_on_c, 0, 70, 0
2, 437503, Note_on_c, 0, 73, 71
2, 437551, Note_on_c, 0, 76, 71
2, 437611, Note_on_c, 0, 79, 71
2, 437671, Note_on_c, 0, 82, 71
2, 437731, Note_on_c, 0, 49, 0
2, 437731, Note_on_c, 0, 46, 0
2, 437731, Note_on_c, 0, 52, 0
2, 437731, Note_on_c, 0, 43, 0
2, 437741, Note_on_c, 0, 55, 71
2, 437741, Note_on_c, 0, 58, 71
2, 437741, Note_on_c, 0, 61, 71
2, 437741, Note_on_c, 0, 64, 71
2, 439652, Note_on_c, 0, 64, 0
2, 439652, Note_on_c, 0, 82, 0
2, 439652, Note_on_c, 0, 55, 0
2, 439652, Note_on_c, 0, 76, 0
2, 439652, Note_on_c, 0, 79, 0
2, 439652, Note_on_c, 0, 73, 0
2, 439652, Note_on_c, 0, 58, 0
2, 439652, Note_on_c, 0, 61, 0
2, 439662, Control_c, 0, 64, 127
2, 439662, Note_on_c, 0, 30, 71
2, 439891, Note_on_c, 0, 45, 71
2, 439951, Note_on_c, 0, 48, 71
2, 440011, Note_on_c, 0, 51, 71
2, 440072, Note_on_c, 0, 54, 71
2, 440132, Note_on_c, 0, 57, 71
2, 440373, Note_on_c, 0, 30, 0
2, 440383, Note_on_c, 0, 30, 71
2, 440431, Note_on_c, 0, 33, 71
2, 440491, Note_on_c, 0, 36, 71
2, 440553, Note_on_c, 0, 30, 0
2, 440563, Note_on_c, 0, 39, 71
2, 440853, Note_on_c, 0, 57, 0
2, 440863, Note_on_c, 0, 57, 71
2, 440913, Note_on_c, 0, 45, 0
2, 440923, Note_on_c, 0, 60, 71
2, 440973, Note_on_c, 0, 48, 0
2, 440983, Note_on_c, 0, 63, 71
2, 441033, Note_on_c, 0, 51, 0
2, 441043, Note_on_c, 0, 66, 71
2, 441093, Note_on_c, 0, 54, 0
2, 441103, Note_on_c, 0, 69, 71
2, 441331, Note_on_c, 0, 39, 0
2, 441331, Note_on_c, 0, 36, 0
2, 441331, Note_on_c, 0, 33, 0
2, 441341, Note_on_c, 0, 43, 71
2, 441391, Note_on_c, 0, 45, 71
2, 441452, Note_on_c, 0, 48, 71
2, 441511, Note_on_c, 0, 57, 0
2, 441521, Note_on_c, 0, 51, 71
2, 441572, Note_on_c, 0, 68, 71
2, 441693, Note_on_c, 0, 69, 0
2, 441693, Note_on_c, 0, 63, 0
2, 441703, Note_on_c, 0, 69, 71
2, 441861, Note_on_c, 0, 68, 0
2, 441861, Note_on_c, 0, 60, 0
2, 441861, Note_on_c, 0, 66, 0
2, 441871, Note_on_c, 0, 72, 71
2, 441931, Note_on_c, 0, 75, 71
2, 441991, Note_on_c, 0, 81, 71
2, 442051, Note_on_c, 0, 43, 0
2, 442051, Note_on_c, 0, 51, 0
2, 442051, Note_on_c, 0, 48, 0
2, 442051, Note_on_c, 0, 45, 0
2, 442061, Note_on_c, 0, 54, 71
2, 442061, Note_on_c, 0, 57, 71
2, 442061, Note_on_c, 0, 60, 71
2, 442061, Note_on_c, 0, 63, 71
2, 443964, Note_on_c, 0, 60, 0
2, 443964, Note_on_c, 0, 69, 0
2, 443964, Note_on_c, 0, 54, 0
2, 443964, Note_on_c, 0, 72, 0
2, 443964, Note_on_c, 0, 75, 0
2, 443964, Note_on_c, 0, 81, 0
2, 443964, Note_on_c, 0, 57, 0
2, 443974, Control_c, 0, 64, 0
2, 443974, Note_on_c, 0, 49, 63
2, 444061, Note_on_c, 0, 63, 0
2, 444071, Note_on_c, 0, 68, 58
2, 444201, Note_on_c, 0, 68, 0
2, 444211, Note_on_c, 0, 64, 58
2, 444321, Note_on_c, 0, 64, 0
2, 444321, Note_on_c, 0, 49, 0
2, 444331, Note_on_c, 0, 68, 58
2, 444424, Note_on_c, 0, 68, 0
2, 444434, Note_on_c, 0, 56, 63
2, 444451, Note_on_c, 0, 61, 58
2, 444561, Note_on_c, 0, 61, 0
2, 444571, Note_on_c, 0, 68, 58
2, 444681, Note_on_c, 0, 68, 0
2, 444691, Note_on_c, 0, 64, 58
2, 444801, Note_on_c, 0, 64, 0
2, 444811, Note_on_c, 0, 68, 58
2, 444921, Note_on_c, 0, 68, 0
2, 444931, Note_on_c, 0, 61, 58
2, 445041, Note_on_c, 0, 61, 0
2, 445051, Note_on_c, 0, 68, 58
2, 445161, Note_on_c, 0, 68, 0
2, 445171, Note_on_c, 0, 64, 58
2, 445284, Note_on_c, 0, 64, 0
2, 445294, Note_on_c, 0, 68, 58
2, 445381, Note_on_c, 0, 68, 0
2, 445391, Note_on_c, 0, 52, 63
2, 445401, Note_on_c, 0, 56, 0
2, 445411, Note_on_c, 0, 61, 58
2, 445524, Note_on_c, 0, 61, 0
2, 445534, Note_on_c, 0, 68, 58
2, 445641, Note_on_c, 0, 68, 0
2, 445651, Note_on_c, 0, 64, 58
2, 445744, Note_on_c, 0, 64, 0
2, 445754, Note_on_c, 0, 49, 63
2, 445763, Note_on_c, 0, 52, 0
2, 445773, Note_on_c, 0, 68, 58
2, 445881, Note_on_c, 0, 68, 0
2, 445881, Note_on_c, 0, 49, 0
2, 445891, Note_on_c, 0, 63, 58
2, 445893, Note_on_c, 0, 49, 63
2, 446001, Note_on_c, 0, 63, 0
2, 446011, Note_on_c, 0, 68, 58
2, 446121, Note_on_c, 0, 68, 0
2, 446131, Note_on_c, 0, 66, 58
2, 446241, Note_on_c, 0, 66, 0
2, 446251, Note_on_c, 0, 68, 58
2, 446343, Note_on_c, 0, 68, 0
2, 446353, Note_on_c, 0, 48, 63
2, 446361, Note_on_c, 0, 49, 0
2, 446371, Note_on_c, 0, 63, 58
2, 446481, Note_on_c, 0, 63, 0
2, 446491, Note_on_c, 0, 68, 58
2, 446604, Note_on_c, 0, 68, 0
2, 446614, Note_on_c, 0, 66, 58
2, 446724, Note_on_c, 0, 66, 0
2, 446734, Note_on_c, 0, 68, 58
2, 446844, Note_on_c, 0, 68, 0
2, 446854, Note_on_c, 0, 63, 58
2, 446961, Note_on_c, 0, 63, 0
2, 446971, Note_on_c, 0, 68, 58
2, 447081, Note_on_c, 0, 68, 0
2, 447081, Note_on_c, 0, 48, 0
2, 447091, Note_on_c, 0, 66, 58
2, 447093, Note_on_c, 0, 48, 63
2, 447201, Note_on_c, 0, 66, 0
2, 447211, Note_on_c, 0, 68, 58
2, 447304, Note_on_c, 0, 68, 0
2, 447314, Note_on_c, 0, 56, 63
2, 447323, Note_on_c, 0, 48, 0
2, 447333, Note_on_c, 0, 63, 58
2, 447441, Note_on_c, 0, 63, 0
2, 447451, Note_on_c, 0, 68, 58
2, 447561, Note_on_c, 0, 68, 0
2, 447571, Note_on_c, 0, 66, 58
2, 447663, Note_on_c, 0, 66, 0
2, 447673, Note_on_c, 0, 48, 63
2, 447681, Note_on_c, 0, 56, 0
2, 447691, Note_on_c, 0, 68, 58
2, 447801, Note_on_c, 0, 68, 0
2, 447801, Note_on_c, 0, 48, 0
2, 447811, Note_on_c, 0, 61, 58
2, 447811, Note_on_c, 0, 51, 63
2, 447924, Note_on_c, 0, 61, 0
2, 447934, Note_on_c, 0, 68, 58
2, 448044, Note_on_c, 0, 68, 0
2, 448054, Note_on_c, 0, 64, 58
2, 448164, Note_on_c, 0, 64, 0
2, 448174, Note_on_c, 0, 68, 58
2, 448261, Note_on_c, 0, 68, 0
2, 448271, Note_on_c, 0, 49, 63
2, 448281, Note_on_c, 0, 51, 0
2, 448291, Note_on_c, 0, 61, 58
2, 448401, Note_on_c, 0, 61, 0
2, 448411, Note_on_c, 0, 68, 58
2, 448521, Note_on_c, 0, 68, 0
2, 448531, Note_on_c, 0, 64, 58
2, 448641, Note_on_c, 0, 64, 0
2, 448651, Note_on_c, 0, 68, 58
2, 448761, Note_on_c, 0, 68, 0
2, 448771, Note_on_c, 0, 61, 58
2, 448881, Note_on_c, 0, 61, 0
2, 448891, Note_on_c, 0, 68, 58
2, 449001, Note_on_c, 0, 68, 0
2, 449001, Note_on_c, 0, 49, 0
2, 449011, Note_on_c, 0, 64, 58
2, 449011, Note_on_c, 0, 49, 63
2, 449121, Note_on_c, 0, 64, 0
2, 449131, Note_on_c, 0, 68, 58
2, 449223, Note_on_c, 0, 68, 0
2, 449233, Note_on_c, 0, 56, 63
2, 449241, Note_on_c, 0, 49, 0
2, 449251, Note_on_c, 0, 61, 58
2, 449364, Note_on_c, 0, 61, 0
2, 449374, Note_on_c, 0, 68, 58
2, 449484, Note_on_c, 0, 68, 0
2, 449494, Note_on_c, 0, 64, 58
2, 449581, Note_on_c, 0, 64, 0
2, 449591, Note_on_c, 0, 49, 63
2, 449601, Note_on_c, 0, 56, 0
2, 449611, Note_on_c, 0, 68, 58
2, 449721, Note_on_c, 0, 68, 0
2, 449721, Note_on_c, 0, 49, 0
2, 449731, Note_on_c, 0, 60, 58
2, 449734, Note_on_c, 0, 52, 63
2, 449841, Note_on_c, 0, 60, 0
2, 449851, Note_on_c, 0, 68, 58
2, 449961, Note_on_c, 0, 68, 0
2, 449971, Note_on_c, 0, 66, 58
2, 450081, Note_on_c, 0, 66, 0
2, 450091, Note_on_c, 0, 68, 58
2, 450184, Note_on_c, 0, 68, 0
2, 450194, Note_on_c, 0, 51, 63
2, 450201, Note_on_c, 0, 52, 0
2, 450211, Note_on_c, 0, 60, 58
2, 450321, Note_on_c, 0, 60, 0
2, 450331, Note_on_c, 0, 68, 58
2, 450441, Note_on_c, 0, 68, 0
2, 450451, Note_on_c, 0, 66, 58
2, 450561, Note_on_c, 0, 66, 0
2, 450571, Note_on_c, 0, 68, 58
2, 450684, Note_on_c, 0, 68, 0
2, 450694, Note_on_c, 0, 60, 58
2, 450804, Note_on_c, 0, 60, 0
2, 450814, Note_on_c, 0, 68, 58
2, 450924, Note_on_c, 0, 68, 0
2, 450924, Note_on_c, 0, 51, 0
2, 450934, Note_on_c, 0, 66, 58
2, 450934, Note_on_c, 0, 51, 63
2, 451041, Note_on_c, 0, 66, 0
2, 451051, Note_on_c, 0, 68, 58
2, 451144, Note_on_c, 0, 68, 0
2, 451154, Note_on_c, 0, 56, 63
2, 451163, Note_on_c, 0, 51, 0
2, 451173, Note_on_c, 0, 60, 58
2, 451281, Note_on_c, 0, 60, 0
2, 451291, Note_on_c, 0, 68, 58
2, 451401, Note_on_c, 0, 68, 0
2, 451411, Note_on_c, 0, 66, 58
2, 451504, Note_on_c, 0, 66, 0
2, 451514, Note_on_c, 0, 51, 63
2, 451521, Note_on_c, 0, 56, 0
2, 451531, Note_on_c, 0, 68, 58
2, 451624, Note_on_c, 0, 68, 0
2, 451634, Note_on_c, 0, 64, 58
2, 451634, Note_on_c, 0, 61, 58
2, 451641, Note_on_c, 0, 51, 0
2, 451651, Note_on_c, 0, 68, 58
2, 451651, Note_on_c, 0, 52, 58
2, 451761, Note_on_c, 0, 52, 0
2, 451771, Note_on_c, 0, 56, 58
2, 451881, Note_on_c, 0, 56, 0
2, 451891, Note_on_c, 0, 52, 58
2, 452004, Note_on_c, 0, 52, 0
2, 452004, Note_on_c, 0, 64, 0
2, 452004, Note_on_c, 0, 61, 0
2, 452004, Note_on_c, 0, 68, 0
2, 452014, Note_on_c, 0, 56, 58
2, 452103, Note_on_c, 0, 56, 0
2, 452111, Note_on_c, 0, 80, 63
2, 452113, Note_on_c, 0, 68, 58
2, 452134, Note_on_c, 0, 52, 58
2, 452244, Note_on_c, 0, 52, 0
2, 452254, Note_on_c, 0, 56, 58
2, 452364, Note_on_c, 0, 56, 0
2, 452374, Note_on_c, 0, 52, 58
2, 452481, Note_on_c, 0, 52, 0
2, 452491, Note_on_c, 0, 56, 58
2, 452601, Note_on_c, 0, 56, 0
2, 452611, Note_on_c, 0, 52, 58
2, 452721, Note_on_c, 0, 52, 0
2, 452731, Note_on_c, 0, 56, 58
2, 452841, Note_on_c, 0, 56, 0
2, 452851, Note_on_c, 0, 52, 58
2, 452961, Note_on_c, 0, 52, 0
2, 452971, Note_on_c, 0, 56, 58
2, 453081, Note_on_c, 0, 56, 0
2, 453081, Note_on_c, 0, 68, 0
2, 453081, Note_on_c, 0, 80, 0
2, 453091, Note_on_c, 0, 76, 63
2, 453091, Note_on_c, 0, 64, 58
2, 453093, Note_on_c, 0, 52, 58
2, 453201, Note_on_c, 0, 52, 0
2, 453211, Note_on_c, 0, 56, 58
2, 453321, Note_on_c, 0, 56, 0
2, 453331, Note_on_c, 0, 52, 58
2, 453444, Note_on_c, 0, 52, 0
2, 453444, Note_on_c, 0, 64, 0
2, 453444, Note_on_c, 0, 76, 0
2, 453454, Note_on_c, 0, 73, 63
2, 453454, Note_on_c, 0, 61, 58
2, 453454, Note_on_c, 0, 56, 58
2, 453564, Note_on_c, 0, 56, 0
2, 453564, Note_on_c, 0, 61, 0
2, 453564, Note_on_c, 0, 73, 0
2, 453574, Note_on_c, 0, 73, 63
2, 453574, Note_on_c, 0, 61, 58
2, 453574, Note_on_c, 0, 54, 58
2, 453684, Note_on_c, 0, 54, 0
2, 453694, Note_on_c, 0, 56, 58
2, 453804, Note_on_c, 0, 56, 0
2, 453814, Note_on_c, 0, 54, 58
2, 453921, Note_on_c, 0, 54, 0
2, 453931, Note_on_c, 0, 56, 58
2, 454024, Note_on_c, 0, 56, 0
2, 454034, Note_on_c, 0, 72, 63
2, 454034, Note_on_c, 0, 60, 58
2, 454041, Note_on_c, 0, 61, 0
2, 454041, Note_on_c, 0, 73, 0
2, 454051, Note_on_c, 0, 54, 58
2, 454161, Note_on_c, 0, 54, 0
2, 454171, Note_on_c, 0, 56, 58
2, 454281, Note_on_c, 0, 56, 0
2, 454291, Note_on_c, 0, 54, 58
2, 454401, Note_on_c, 0, 54, 0
2, 454411, Note_on_c, 0, 56, 58
2, 454521, Note_on_c, 0, 56, 0
2, 454531, Note_on_c, 0, 54, 58
2, 454641, Note_on_c, 0, 54, 0
2, 454651, Note_on_c, 0, 56, 58
2, 454764, Note_on_c, 0, 56, 0
2, 454764, Note_on_c, 0, 72, 0
2, 454764, Note_on_c, 0, 60, 0
2, 454774, Note_on_c, 0, 72, 63
2, 454774, Note_on_c, 0, 60, 58
2, 454774, Note_on_c, 0, 54, 58
2, 454884, Note_on_c, 0, 54, 0
2, 454894, Note_on_c, 0, 56, 58
2, 454991, Note_on_c, 0, 80, 63
2, 454991, Note_on_c, 0, 68, 58
2, 455001, Note_on_c, 0, 56, 0
2, 455001, Note_on_c, 0, 72, 0
2, 455001, Note_on_c, 0, 60, 0
2, 455011, Note_on_c, 0, 54, 58
2, 455124, Note_on_c, 0, 54, 0
2, 455134, Note_on_c, 0, 56, 58
2, 455241, Note_on_c, 0, 56, 0
2, 455251, Note_on_c, 0, 54, 58
2, 455344, Note_on_c, 0, 54, 0
2, 455354, Note_on_c, 0, 72, 63
2, 455354, Note_on_c, 0, 60, 58
2, 455361, Note_on_c, 0, 80, 0
2, 455361, Note_on_c, 0, 68, 0
2, 455371, Note_on_c, 0, 56, 58
2, 455481, Note_on_c, 0, 56, 0
2, 455481, Note_on_c, 0, 72, 0
2, 455481, Note_on_c, 0, 60, 0
2, 455491, Note_on_c, 0, 75, 63
2, 455493, Note_on_c, 0, 63, 58
2, 455493, Note_on_c, 0, 52, 58
2, 455601, Note_on_c, 0, 52, 0
2, 455611, Note_on_c, 0, 56, 58
2, 455721, Note_on_c, 0, 56, 0
2, 455731, Note_on_c, 0, 52, 58
2, 455841, Note_on_c, 0, 52, 0
2, 455851, Note_on_c, 0, 56, 58
2, 455943, Note_on_c, 0, 56, 0
2, 455951, Note_on_c, 0, 73, 63
2, 455953, Note_on_c, 0, 61, 58
2, 455963, Note_on_c, 0, 63, 0
2, 455963, Note_on_c, 0, 75, 0
2, 455973, Note_on_c, 0, 52, 58
2, 456084, Note_on_c, 0, 52, 0
2, 456094, Note_on_c, 0, 56, 58
2, 456204, Note_on_c, 0, 56, 0
2, 456214, Note_on_c, 0, 52, 58
2, 456324, Note_on_c, 0, 52, 0
2, 456334, Note_on_c, 0, 56, 58
2, 456444, Note_on_c, 0, 56, 0
2, 456454, Note_on_c, 0, 52, 58
2, 456561, Note_on_c, 0, 52, 0
2, 456571, Note_on_c, 0, 56, 58
2, 456681, Note_on_c, 0, 56, 0
2, 456681, Note_on_c, 0, 73, 0
2, 456681, Note_on_c, 0, 61, 0
2, 456691, Note_on_c, 0, 73, 63
2, 456693, Note_on_c, 0, 61, 58
2, 456693, Note_on_c, 0, 52, 58
2, 456801, Note_on_c, 0, 52, 0
2, 456811, Note_on_c, 0, 56, 58
2, 456904, Note_on_c, 0, 56, 0
2, 456914, Note_on_c, 0, 80, 63
2, 456914, Note_on_c, 0, 68, 58
2, 456921, Note_on_c, 0, 61, 0
2, 456921, Note_on_c, 0, 73, 0
2, 456931, Note_on_c, 0, 52, 58
2, 457041, Note_on_c, 0, 52, 0
2, 457051, Note_on_c, 0, 56, 58
2, 457161, Note_on_c, 0, 56, 0
2, 457171, Note_on_c, 0, 52, 58
2, 457263, Note_on_c, 0, 52, 0
2, 457271, Note_on_c, 0, 73, 63
2, 457273, Note_on_c, 0, 61, 58
2, 457283, Note_on_c, 0, 80, 0
2, 457283, Note_on_c, 0, 68, 0
2, 457293, Note_on_c, 0, 56, 58
2, 457401, Note_on_c, 0, 56, 0
2, 457401, Note_on_c, 0, 73, 0
2, 457401, Note_on_c, 0, 61, 0
2, 457411, Note_on_c, 0, 76, 63
2, 457411, Note_on_c, 0, 64, 58
2, 457413, Note_on_c, 0, 48, 58
2, 457524, Note_on_c, 0, 48, 0
2, 457534, Note_on_c, 0, 56, 58
2, 457644, Note_on_c, 0, 56, 0
2, 457654, Note_on_c, 0, 48, 58
2, 457764, Note_on_c, 0, 48, 0
2, 457774, Note_on_c, 0, 56, 58
2, 457871, Note_on_c, 0, 75, 63
2, 457871, Note_on_c, 0, 63, 58
2, 457881, Note_on_c, 0, 56, 0
2, 457881, Note_on_c, 0, 76, 0
2, 457881, Note_on_c, 0, 64, 0
2, 457891, Note_on_c, 0, 48, 58
2, 458001, Note_on_c, 0, 48, 0
2, 458011, Note_on_c, 0, 56, 58
2, 458121, Note_on_c, 0, 56, 0
2, 458131, Note_on_c, 0, 48, 58
2, 458241, Note_on_c, 0, 48, 0
2, 458251, Note_on_c, 0, 56, 58
2, 458361, Note_on_c, 0, 56, 0
2, 458371, Note_on_c, 0, 48, 58
2, 458481, Note_on_c, 0, 48, 0
2, 458491, Note_on_c, 0, 56, 58
2, 458601, Note_on_c, 0, 56, 0
2, 458601, Note_on_c, 0, 75, 0
2, 458601, Note_on_c, 0, 63, 0
2, 458611, Note_on_c, 0, 75, 63
2, 458611, Note_on_c, 0, 63, 58
2, 458613, Note_on_c, 0, 48, 58
2, 458721, Note_on_c, 0, 48, 0
2, 458731, Note_on_c, 0, 56, 58
2, 458823, Note_on_c, 0, 56, 0
2, 458831, Note_on_c, 0, 80, 63
2, 458833, Note_on_c, 0, 68, 58
2, 458841, Note_on_c, 0, 63, 0
2, 458841, Note_on_c, 0, 75, 0
2, 458851, Note_on_c, 0, 48, 58
2, 458964, Note_on_c, 0, 48, 0
2, 458974, Note_on_c, 0, 56, 58
2, 459084, Note_on_c, 0, 56, 0
2, 459094, Note_on_c, 0, 48, 58
2, 459191, Note_on_c, 0, 75, 63
2, 459191, Note_on_c, 0, 63, 58
2, 459201, Note_on_c, 0, 48, 0
2, 459201, Note_on_c, 0, 68, 0
2, 459201, Note_on_c, 0, 80, 0
2, 459211, Note_on_c, 0, 56, 58
2, 459321, Note_on_c, 0, 56, 0
2, 459321, Note_on_c, 0, 75, 0
2, 459321, Note_on_c, 0, 63, 0
2, 459331, Note_on_c, 0, 78, 63
2, 459333, Note_on_c, 0, 66, 58
2, 459333, Note_on_c, 0, 49, 58
2, 459441, Note_on_c, 0, 49, 0
2, 459451, Note_on_c, 0, 56, 58
2, 459544, Note_on_c, 0, 56, 0
2, 459554, Note_on_c, 0, 76, 63
2, 459554, Note_on_c, 0, 64, 58
2, 459561, Note_on_c, 0, 66, 0
2, 459561, Note_on_c, 0, 78, 0
2, 459571, Note_on_c, 0, 49, 58
2, 459681, Note_on_c, 0, 49, 0
2, 459691, Note_on_c, 0, 56, 58
2, 459801, Note_on_c, 0, 56, 0
2, 459801, Note_on_c, 0, 76, 0
2, 459801, Note_on_c, 0, 64, 0
2, 459811, Note_on_c, 0, 85, 63
2, 459811, Note_on_c, 0, 73, 58
2, 459813, Note_on_c, 0, 49, 58
2, 459921, Note_on_c, 0, 49, 0
2, 459931, Note_on_c, 0, 56, 58
2, 460021, Note_on_c, 0, 73, 0
2, 460021, Note_on_c, 0, 85, 0
2, 460023, Note_on_c, 0, 56, 0
2, 460031, Note_on_c, 0, 76, 63
2, 460033, Note_on_c, 0, 64, 58
2, 460051, Note_on_c, 0, 49, 58
2, 460164, Note_on_c, 0, 49, 0
2, 460174, Note_on_c, 0, 56, 58
2, 460261, Note_on_c, 0, 64, 0
2, 460261, Note_on_c, 0, 76, 0
2, 460263, Note_on_c, 0, 56, 0
2, 460271, Note_on_c, 0, 78, 66
2, 460273, Note_on_c, 0, 66, 66
2, 460294, Note_on_c, 0, 47, 60
2, 460404, Note_on_c, 0, 47, 0
2, 460414, Note_on_c, 0, 49, 60
2, 460511, Note_on_c, 0, 77, 66
2, 460511, Note_on_c, 0, 65, 66
2, 460521, Note_on_c, 0, 49, 0
2, 460521, Note_on_c, 0, 78, 0
2, 460521, Note_on_c, 0, 66, 0
2, 460531, Note_on_c, 0, 47, 60
2, 460641, Note_on_c, 0, 47, 0
2, 460651, Note_on_c, 0, 49, 60
2, 460761, Note_on_c, 0, 49, 0
2, 460761, Note_on_c, 0, 77, 0
2, 460761, Note_on_c, 0, 65, 0
2, 460771, Note_on_c, 0, 85, 66
2, 460773, Note_on_c, 0, 73, 66
2, 460773, Note_on_c, 0, 47, 60
2, 460881, Note_on_c, 0, 47, 0
2, 460891, Note_on_c, 0, 49, 60
2, 460984, Note_on_c, 0, 49, 0
2, 460984, Note_on_c, 0, 73, 0
2, 460984, Note_on_c, 0, 85, 0
2, 460994, Note_on_c, 0, 77, 66
2, 460994, Note_on_c, 0, 65, 66
2, 461011, Note_on_c, 0, 47, 60
2, 461121, Note_on_c, 0, 47, 0
2, 461131, Note_on_c, 0, 49, 60
2, 461221, Note_on_c, 0, 65, 0
2, 461221, Note_on_c, 0, 77, 0
2, 461224, Note_on_c, 0, 49, 0
2, 461231, Note_on_c, 0, 80, 70
2, 461234, Note_on_c, 0, 68, 70
2, 461251, Note_on_c, 0, 45, 64
2, 461361, Note_on_c, 0, 45, 0
2, 461371, Note_on_c, 0, 49, 64
2, 461463, Note_on_c, 0, 49, 0
2, 461471, Note_on_c, 0, 78, 70
2, 461473, Note_on_c, 0, 66, 70
2, 461481, Note_on_c, 0, 68, 0
2, 461481, Note_on_c, 0, 80, 0
2, 461491, Note_on_c, 0, 45, 64
2, 461604, Note_on_c, 0, 45, 0
2, 461614, Note_on_c, 0, 49, 64
2, 461724, Note_on_c, 0, 49, 0
2, 461724, Note_on_c, 0, 78, 0
2, 461724, Note_on_c, 0, 66, 0
2, 461734, Note_on_c, 0, 85, 70
2, 461734, Note_on_c, 0, 73, 70
2, 461734, Note_on_c, 0, 45, 64
2, 461844, Note_on_c, 0, 45, 0
2, 461854, Note_on_c, 0, 49, 64
2, 461944, Note_on_c, 0, 73, 0
2, 461944, Note_on_c, 0, 85, 0
2, 461954, Note_on_c, 0, 78, 70
2, 461954, Note_on_c, 0, 66, 70
2, 461961, Note_on_c, 0, 49, 0
2, 461971, Note_on_c, 0, 45, 64
2, 462081, Note_on_c, 0, 45, 0
2, 462091, Note_on_c, 0, 49, 64
2, 462184, Note_on_c, 0, 49, 0
2, 462184, Note_on_c, 0, 66, 0
2, 462184, Note_on_c, 0, 78, 0
2, 462194, Note_on_c, 0, 81, 75
2, 462194, Note_on_c, 0, 69, 75
2, 462211, Note_on_c, 0, 41, 69
2, 462321, Note_on_c, 0, 41, 0
2, 462331, Note_on_c, 0, 49, 69
2, 462424, Note_on_c, 0, 49, 0
2, 462431, Note_on_c, 0, 80, 75
2, 462434, Note_on_c, 0, 68, 75
2, 462443, Note_on_c, 0, 69, 0
2, 462443, Note_on_c, 0, 81, 0
2, 462453, Note_on_c, 0, 41, 69
2, 462561, Note_on_c, 0, 41, 0
2, 462571, Note_on_c, 0, 49, 69
2, 462681, Note_on_c, 0, 49, 0
2, 462681, Note_on_c, 0, 80, 0
2, 462681, Note_on_c, 0, 68, 0
2, 462691, Note_on_c, 0, 85, 75
2, 462691, Note_on_c, 0, 73, 75
2, 462693, Note_on_c, 0, 41, 69
2, 462801, Note_on_c, 0, 41, 0
2, 462811, Note_on_c, 0, 49, 69
2, 462901, Note_on_c, 0, 73, 0
2, 462901, Note_on_c, 0, 85, 0
2, 462911, Note_on_c, 0, 80, 75
2, 462911, Note_on_c, 0, 68, 75
2, 462924, Note_on_c, 0, 49, 0
2, 462934, Note_on_c, 0, 41, 69
2, 463044, Note_on_c, 0, 41, 0
2, 463054, Note_on_c, 0, 49, 69
2, 463141, Note_on_c, 0, 68, 0
2, 463141, Note_on_c, 0, 80, 0
2, 463143, Note_on_c, 0, 49, 0
2, 463151, Note_on_c, 0, 81, 79
2, 463151, Note_on_c, 0, 42, 79
2, 463153, Note_on_c, 0, 37, 79
2, 463174, Note_on_c, 0, 30, 79
2, 463311, Note_on_c, 0, 78, 79
2, 463461, Note_on_c, 0, 81, 0
2, 463471, Note_on_c, 0, 73, 79
2, 463624, Note_on_c, 0, 78, 0
2, 463634, Note_on_c, 0, 69, 79
2, 463784, Note_on_c, 0, 73, 0
2, 463794, Note_on_c, 0, 66, 79
2, 463941, Note_on_c, 0, 69, 0
2, 463951, Note_on_c, 0, 61, 79
2, 464121, Note_on_c, 0, 61, 0
2, 464121, Note_on_c, 0, 66, 0
2, 464131, Note_on_c, 0, 69, 79
2, 464271, Note_on_c, 0, 66, 79
2, 464424, Note_on_c, 0, 69, 0
2, 464434, Note_on_c, 0, 61, 79
2, 464581, Note_on_c, 0, 66, 0
2, 464591, Note_on_c, 0, 57, 79
2, 464741, Note_on_c, 0, 61, 0
2, 464751, Note_on_c, 0, 54, 79
2, 464901, Note_on_c, 0, 57, 0
2, 464911, Note_on_c, 0, 49, 79
2, 465081, Note_on_c, 0, 49, 0
2, 465081, Note_on_c, 0, 54, 0
2, 465091, Note_on_c, 0, 57, 79
2, 465191, Note_on_c, 0, 54, 79
2, 465301, Note_on_c, 0, 57, 0
2, 465311, Note_on_c, 0, 49, 79
2, 465421, Note_on_c, 0, 54, 0
2, 465431, Note_on_c, 0, 45, 79
2, 465541, Note_on_c, 0, 49, 0
2, 465551, Note_on_c, 0, 49, 79
2, 465661, Note_on_c, 0, 45, 0
2, 465671, Note_on_c, 0, 54, 79
2, 465781, Note_on_c, 0, 49, 0
2, 465791, Note_on_c, 0, 57, 79
2, 465901, Note_on_c, 0, 54, 0
2, 465911, Note_on_c, 0, 61, 79
2, 466024, Note_on_c, 0, 57, 0
2, 466034, Note_on_c, 0, 66, 79
2, 466144, Note_on_c, 0, 61, 0
2, 466154, Note_on_c, 0, 69, 79
2, 466264, Note_on_c, 0, 66, 0
2, 466274, Note_on_c, 0, 73, 79
2, 466384, Note_on_c, 0, 69, 0
2, 466394, Note_on_c, 0, 78, 79
2, 466501, Note_on_c, 0, 73, 0
2, 466511, Note_on_c, 0, 81, 79
2, 466621, Note_on_c, 0, 78, 0
2, 466631, Note_on_c, 0, 78, 79
2, 466741, Note_on_c, 0, 81, 0
2, 466751, Note_on_c, 0, 73, 79
2, 466861, Note_on_c, 0, 78, 0
2, 466871, Note_on_c, 0, 69, 79
2, 467004, Note_on_c, 0, 69, 0
2, 467004, Note_on_c, 0, 73, 0
2, 467004, Note_on_c, 0, 42, 0
2, 467004, Note_on_c, 0, 37, 0
2, 467004, Note_on_c, 0, 30, 0
2, 467014, Note_on_c, 0, 81, 79
2, 467014, Note_on_c, 0, 42, 79
2, 467014, Note_on_c, 0, 38, 79
2, 467017, Note_on_c, 0, 30, 79
2, 467151, Note_on_c, 0, 78, 79
2, 467304, Note_on_c, 0, 81, 0
2, 467314, Note_on_c, 0, 74, 79
2, 467464, Note_on_c, 0, 78, 0
2, 467474, Note_on_c, 0, 69, 79
2, 467621, Note_on_c, 0, 74, 0
2, 467631, Note_on_c, 0, 66, 79
2, 467781, Note_on_c, 0, 69, 0
2, 467791, Note_on_c, 0, 62, 79
2, 467961, Note_on_c, 0, 62, 0
2, 467961, Note_on_c, 0, 66, 0
2, 467971, Note_on_c, 0, 69, 79
2, 468114, Note_on_c, 0, 66, 79
2, 468261, Note_on_c, 0, 69, 0
2, 468271, Note_on_c, 0, 62, 79
2, 468421, Note_on_c, 0, 66, 0
2, 468431, Note_on_c, 0, 57, 79
2, 468581, Note_on_c, 0, 62, 0
2, 468591, Note_on_c, 0, 54, 79
2, 468741, Note_on_c, 0, 57, 0
2, 468751, Note_on_c, 0, 50, 79
2, 468921, Note_on_c, 0, 50, 0
2, 468921, Note_on_c, 0, 54, 0
2, 468931, Note_on_c, 0, 57, 79
2, 469034, Note_on_c, 0, 54, 79
2, 469144, Note_on_c, 0, 57, 0
2, 469154, Note_on_c, 0, 50, 79
2, 469261, Note_on_c, 0, 54, 0
2, 469271, Note_on_c, 0, 45, 79
2, 469381, Note_on_c, 0, 50, 0
2, 469391, Note_on_c, 0, 50, 79
2, 469501, Note_on_c, 0, 45, 0
2, 469511, Note_on_c, 0, 54, 79
2, 469621, Note_on_c, 0, 50, 0
2, 469631, Note_on_c, 0, 57, 79
2, 469741, Note_on_c, 0, 54, 0
2, 469751, Note_on_c, 0, 62, 79
2, 469861, Note_on_c, 0, 57, 0
2, 469871, Note_on_c, 0, 66, 79
2, 469981, Note_on_c, 0, 62, 0
2, 469991, Note_on_c, 0, 69, 79
2, 470104, Note_on_c, 0, 66, 0
2, 470114, Note_on_c, 0, 74, 79
2, 470224, Note_on_c, 0, 69, 0
2, 470234, Note_on_c, 0, 78, 79
2, 470344, Note_on_c, 0, 74, 0
2, 470354, Note_on_c, 0, 81, 79
2, 470464, Note_on_c, 0, 78, 0
2, 470474, Note_on_c, 0, 78, 79
2, 470581, Note_on_c, 0, 81, 0
2, 470591, Note_on_c, 0, 74, 79
2, 470701, Note_on_c, 0, 78, 0
2, 470711, Note_on_c, 0, 69, 79
2, 470841, Note_on_c, 0, 69, 0
2, 470841, Note_on_c, 0, 74, 0
2, 470841, Note_on_c, 0, 42, 0
2, 470841, Note_on_c, 0, 38, 0
2, 470841, Note_on_c, 0, 30, 0
2, 470851, Note_on_c, 0, 85, 79
2, 470851, Note_on_c, 0, 43, 79
2, 470853, Note_on_c, 0, 37, 79
2, 470853, Note_on_c, 0, 31, 79
2, 470991, Note_on_c, 0, 82, 79
2, 471144, Note_on_c, 0, 85, 0
2, 471154, Note_on_c, 0, 79, 79
2, 471301, Note_on_c, 0, 82, 0
2, 471311, Note_on_c, 0, 76, 79
2, 471461, Note_on_c, 0, 79, 0
2, 471471, Note_on_c, 0, 73, 79
2, 471621, Note_on_c, 0, 76, 0
2, 471631, Note_on_c, 0, 70, 79
2, 471801, Note_on_c, 0, 70, 0
2, 471801, Note_on_c, 0, 73, 0
2, 471811, Note_on_c, 0, 76, 79
2, 471954, Note_on_c, 0, 73, 79
2, 472101, Note_on_c, 0, 76, 0
2, 472111, Note_on_c, 0, 70, 79
2, 472261, Note_on_c, 0, 73, 0
2, 472271, Note_on_c, 0, 67, 79
2, 472381, Note_on_c, 0, 70, 0
2, 472391, Note_on_c, 0, 64, 79
2, 472501, Note_on_c, 0, 67, 0
2, 472511, Note_on_c, 0, 61, 79
2, 472621, Note_on_c, 0, 64, 0
2, 472631, Note_on_c, 0, 58, 79
2, 472761, Note_on_c, 0, 58, 0
2, 472761, Note_on_c, 0, 61, 0
2, 472771, Note_on_c, 0, 64, 79
2, 472874, Note_on_c, 0, 61, 79
2, 472984, Note_on_c, 0, 64, 0
2, 472994, Note_on_c, 0, 58, 79
2, 473104, Note_on_c, 0, 61, 0
2, 473114, Note_on_c, 0, 55, 79
2, 473224, Note_on_c, 0, 58, 0
2, 473234, Note_on_c, 0, 52, 79
2, 473341, Note_on_c, 0, 55, 0
2, 473351, Note_on_c, 0, 49, 79
2, 473461, Note_on_c, 0, 52, 0
2, 473471, Note_on_c, 0, 52, 79
2, 473581, Note_on_c, 0, 49, 0
2, 473591, Note_on_c, 0, 55, 79
2, 473701, Note_on_c, 0, 52, 0
2, 473711, Note_on_c, 0, 58, 79
2, 473784, Note_on_c, 0, 55, 0
2, 473794, Note_on_c, 0, 61, 79
2, 473861, Note_on_c, 0, 58, 0
2, 473871, Note_on_c, 0, 64, 79
2, 473941, Note_on_c, 0, 61, 0
2, 473951, Note_on_c, 0, 67, 79
2, 474024, Note_on_c, 0, 64, 0
2, 474034, Note_on_c, 0, 70, 79
2, 474101, Note_on_c, 0, 67, 0
2, 474111, Note_on_c, 0, 73, 79
2, 474184, Note_on_c, 0, 70, 0
2, 474194, Note_on_c, 0, 76, 79
2, 474261, Note_on_c, 0, 73, 0
2, 474271, Note_on_c, 0, 79, 79
2, 474341, Note_on_c, 0, 76, 0
2, 474351, Note_on_c, 0, 82, 79
2, 474424, Note_on_c, 0, 79, 0
2, 474434, Note_on_c, 0, 85, 79
2, 474501, Note_on_c, 0, 82, 0
2, 474511, Note_on_c, 0, 82, 79
2, 474581, Note_on_c, 0, 85, 0
2, 474591, Note_on_c, 0, 76, 79
2, 474681, Note_on_c, 0, 76, 0
2, 474681, Note_on_c, 0, 82, 0
2, 474681, Note_on_c, 0, 43, 0
2, 474681, Note_on_c, 0, 37, 0
2, 474681, Note_on_c, 0, 31, 0
2, 474691, Note_on_c, 0, 88, 79
2, 474691, Note_on_c, 0, 44, 79
2, 474693, Note_on_c, 0, 37, 79
2, 474693, Note_on_c, 0, 32, 79
2, 474834, Note_on_c, 0, 85, 79
2, 474981, Note_on_c, 0, 88, 0
2, 474991, Note_on_c, 0, 80, 79
2, 475141, Note_on_c, 0, 85, 0
2, 475151, Note_on_c, 0, 76, 79
2, 475301, Note_on_c, 0, 80, 0
2, 475311, Note_on_c, 0, 73, 79
2, 475464, Note_on_c, 0, 76, 0
2, 475474, Note_on_c, 0, 68, 79
2, 475624, Note_on_c, 0, 73, 0
2, 475634, Note_on_c, 0, 76, 79
2, 475781, Note_on_c, 0, 68, 0
2, 475791, Note_on_c, 0, 73, 79
2, 475941, Note_on_c, 0, 76, 0
2, 475951, Note_on_c, 0, 68, 79
2, 476101, Note_on_c, 0, 73, 0
2, 476111, Note_on_c, 0, 64, 79
2, 476221, Note_on_c, 0, 68, 0
2, 476231, Note_on_c, 0, 73, 79
2, 476341, Note_on_c, 0, 64, 0
2, 476351, Note_on_c, 0, 68, 79
2, 476461, Note_on_c, 0, 73, 0
2, 476471, Note_on_c, 0, 64, 79
2, 476581, Note_on_c, 0, 68, 0
2, 476591, Note_on_c, 0, 61, 79
2, 476701, Note_on_c, 0, 64, 0
2, 476711, Note_on_c, 0, 68, 79
2, 476821, Note_on_c, 0, 61, 0
2, 476831, Note_on_c, 0, 64, 79
2, 476944, Note_on_c, 0, 68, 0
2, 476954, Note_on_c, 0, 61, 79
2, 477064, Note_on_c, 0, 64, 0
2, 477074, Note_on_c, 0, 56, 79
2, 477184, Note_on_c, 0, 61, 0
2, 477194, Note_on_c, 0, 64, 79
2, 477304, Note_on_c, 0, 56, 0
2, 477314, Note_on_c, 0, 61, 79
2, 477421, Note_on_c, 0, 64, 0
2, 477431, Note_on_c, 0, 56, 79
2, 477541, Note_on_c, 0, 61, 0
2, 477551, Note_on_c, 0, 52, 79
2, 477661, Note_on_c, 0, 56, 0
2, 477671, Note_on_c, 0, 61, 79
2, 477781, Note_on_c, 0, 52, 0
2, 477791, Note_on_c, 0, 56, 79
2, 477901, Note_on_c, 0, 61, 0
2, 477911, Note_on_c, 0, 52, 79
2, 478021, Note_on_c, 0, 56, 0
2, 478031, Note_on_c, 0, 49, 79
2, 478141, Note_on_c, 0, 52, 0
2, 478151, Note_on_c, 0, 56, 79
2, 478264, Note_on_c, 0, 49, 0
2, 478274, Note_on_c, 0, 52, 79
2, 478384, Note_on_c, 0, 56, 0
2, 478394, Note_on_c, 0, 49, 79
2, 478521, Note_on_c, 0, 49, 0
2, 478521, Note_on_c, 0, 52, 0
2, 478521, Note_on_c, 0, 44, 0
2, 478521, Note_on_c, 0, 37, 0
2, 478521, Note_on_c, 0, 32, 0
2, 478531, Note_on_c, 0, 44, 79
2, 478641, Note_on_c, 0, 44, 0
2, 478651, Note_on_c, 0, 45, 79
2, 478761, Note_on_c, 0, 45, 0
2, 478771, Note_on_c, 0, 46, 79
2, 478881, Note_on_c, 0, 46, 0
2, 478891, Note_on_c, 0, 47, 79
2, 479001, Note_on_c, 0, 47, 0
2, 479011, Note_on_c, 0, 48, 79
2, 479121, Note_on_c, 0, 48, 0
2, 479131, Note_on_c, 0, 49, 79
2, 479244, Note_on_c, 0, 49, 0
2, 479254, Note_on_c, 0, 50, 79
2, 479364, Note_on_c, 0, 50, 0
2, 479374, Note_on_c, 0, 51, 79
2, 479484, Note_on_c, 0, 51, 0
2, 479494, Note_on_c, 0, 52, 79
2, 479611, Note_on_c, 0, 53, 79
2, 479721, Note_on_c, 0, 53, 0
2, 479721, Note_on_c, 0, 52, 0
2, 479731, Note_on_c, 0, 54, 79
2, 479841, Note_on_c, 0, 54, 0
2, 479851, Note_on_c, 0, 55, 79
2, 479961, Note_on_c, 0, 55, 0
2, 479971, Note_on_c, 0, 56, 79
2, 480081, Note_on_c, 0, 56, 0
2, 480091, Note_on_c, 0, 57, 79
2, 480201, Note_on_c, 0, 57, 0
2, 480211, Note_on_c, 0, 58, 79
2, 480321, Note_on_c, 0, 58, 0
2, 480331, Note_on_c, 0, 59, 79
2, 480444, Note_on_c, 0, 59, 0
2, 480454, Note_on_c, 0, 60, 79
2, 480555, Note_on_c, 0, 60, 0
2, 480565, Note_on_c, 0, 61, 79
2, 480665, Note_on_c, 0, 61, 0
2, 480675, Note_on_c, 0, 62, 79
2, 480775, Note_on_c, 0, 62, 0
2, 480785, Note_on_c, 0, 63, 79
2, 480886, Note_on_c, 0, 63, 0
2, 480896, Note_on_c, 0, 64, 79
2, 480974, Note_on_c, 0, 64, 0
2, 480984, Note_on_c, 0, 65, 79
2, 481065, Note_on_c, 0, 65, 0
2, 481075, Note_on_c, 0, 66, 79
2, 481160, Note_on_c, 0, 67, 79
2, 481238, Note_on_c, 0, 67, 0
2, 481238, Note_on_c, 0, 66, 0
2, 481248, Note_on_c, 0, 68, 79
2, 481327, Note_on_c, 0, 68, 0
2, 481337, Note_on_c, 0, 69, 79
2, 481415, Note_on_c, 0, 69, 0
2, 481425, Note_on_c, 0, 70, 79
2, 481506, Note_on_c, 0, 70, 0
2, 481516, Note_on_c, 0, 71, 79
2, 481601, Note_on_c, 0, 72, 79
2, 481679, Note_on_c, 0, 72, 0
2, 481679, Note_on_c, 0, 71, 0
2, 481689, Note_on_c, 0, 73, 79
2, 481771, Note_on_c, 0, 73, 0
2, 481781, Note_on_c, 0, 74, 79
2, 481909, Note_on_c, 0, 75, 79
2, 482035, Note_on_c, 0, 74, 0
2, 482045, Note_on_c, 0, 76, 79
2, 482168, Note_on_c, 0, 75, 0
2, 482178, Note_on_c, 0, 77, 79
2, 482212, Note_on_c, 0, 77, 0
2, 482212, Note_on_c, 0, 76, 0
2, 482222, Note_on_c, 0, 78, 79
2, 482256, Note_on_c, 0, 78, 0
2, 482266, Note_on_c, 0, 79, 79
2, 482300, Note_on_c, 0, 79, 0
2, 482310, Note_on_c, 0, 80, 79
2, 482350, Control_c, 0, 64, 127
2, 482350, Note_on_c, 0, 66, 79
2, 482350, Note_on_c, 0, 60, 79
2, 482353, Note_on_c, 0, 81, 79
2, 482353, Note_on_c, 0, 56, 79
2, 482381, Note_on_c, 0, 80, 0
2, 482391, Note_on_c, 0, 81, 71
2, 482472, Note_on_c, 0, 81, 0
2, 482482, Note_on_c, 0, 83, 71
2, 482552, Note_on_c, 0, 83, 0
2, 482562, Note_on_c, 0, 81, 71
2, 482621, Note_on_c, 0, 81, 0
2, 482631, Note_on_c, 0, 83, 71
2, 482711, Note_on_c, 0, 83, 0
2, 482721, Note_on_c, 0, 81, 71
2, 482792, Note_on_c, 0, 81, 0
2, 482802, Note_on_c, 0, 83, 71
2, 482861, Note_on_c, 0, 83, 0
2, 482871, Note_on_c, 0, 81, 71
2, 482951, Note_on_c, 0, 81, 0
2, 482961, Note_on_c, 0, 83, 71
2, 483032, Note_on_c, 0, 83, 0
2, 483042, Note_on_c, 0, 81, 71
2, 483101, Note_on_c, 0, 81, 0
2, 483111, Note_on_c, 0, 83, 71
2, 483191, Note_on_c, 0, 83, 0
2, 483201, Note_on_c, 0, 81, 71
2, 483272, Note_on_c, 0, 81, 0
2, 483282, Note_on_c, 0, 83, 71
2, 483364, Note_on_c, 0, 83, 0
2, 483374, Note_on_c, 0, 81, 71
2, 483455, Note_on_c, 0, 81, 0
2, 483465, Note_on_c, 0, 83, 71
2, 483535, Note_on_c, 0, 83, 0
2, 483545, Note_on_c, 0, 81, 71
2, 483604, Note_on_c, 0, 81, 0
2, 483614, Note_on_c, 0, 83, 71
2, 483694, Note_on_c, 0, 83, 0
2, 483704, Note_on_c, 0, 81, 71
2, 483775, Note_on_c, 0, 81, 0
2, 483785, Note_on_c, 0, 83, 71
2, 483844, Note_on_c, 0, 83, 0
2, 483854, Note_on_c, 0, 81, 71
2, 483934, Note_on_c, 0, 81, 0
2, 483944, Note_on_c, 0, 83, 71
2, 484015, Note_on_c, 0, 83, 0
2, 484025, Note_on_c, 0, 81, 71
2, 484084, Note_on_c, 0, 81, 0
2, 484094, Note_on_c, 0, 83, 71
2, 484174, Note_on_c, 0, 83, 0
2, 484184, Note_on_c, 0, 81, 71
2, 484255, Note_on_c, 0, 81, 0
2, 484265, Note_on_c, 0, 83, 71
2, 484284, Control_c, 0, 64, 0
2, 484311, Note_on_c, 0, 80, 58
2, 484541, Note_on_c, 0, 80, 0
2, 484541, Note_on_c, 0, 83, 0
2, 484551, Note_on_c, 0, 78, 58
2, 484781, Note_on_c, 0, 78, 0
2, 484791, Note_on_c, 0, 76, 58
2, 485021, Note_on_c, 0, 76, 0
2, 485031, Note_on_c, 0, 75, 58
2, 485263, Note_on_c, 0, 75, 0
2, 485273, Note_on_c, 0, 78, 58
2, 485511, Note_on_c, 0, 73, 58
2, 485741, Note_on_c, 0, 73, 0
2, 485741, Note_on_c, 0, 78, 0
2, 485751, Note_on_c, 0, 72, 58
2, 485981, Note_on_c, 0, 72, 0
2, 485991, Note_on_c, 0, 75, 58
2, 486221, Note_on_c, 0, 75, 0
2, 486221, Note_on_c, 0, 56, 0
2, 486231, Note_on_c, 0, 69, 58
2, 486461, Note_on_c, 0, 69, 0
2, 486471, Note_on_c, 0, 68, 58
2, 486704, Note_on_c, 0, 68, 0
2, 486714, Note_on_c, 0, 66, 58
2, 486951, Note_on_c, 0, 69, 58
2, 487184, Note_on_c, 0, 69, 0
2, 487184, Note_on_c, 0, 66, 0
2, 487194, Note_on_c, 0, 64, 58
2, 487431, Note_on_c, 0, 63, 58
2, 487664, Note_on_c, 0, 63, 0
2, 487664, Note_on_c, 0, 64, 0
2, 487674, Note_on_c, 0, 66, 58
2, 487911, Note_on_c, 0, 61, 58
2, 488141, Note_on_c, 0, 61, 0
2, 488141, Note_on_c, 0, 66, 0
2, 488141, Note_on_c, 0, 81, 0
2, 488141, Note_on_c, 0, 60, 0
2, 488141, Note_on_c, 0, 66, 0
2, 488151, Note_on_c, 0, 60, 58
2, 488381, Note_on_c, 0, 60, 0
2, 488391, Note_on_c, 0, 63, 58
2, 488624, Note_on_c, 0, 63, 0
2, 488634, Note_on_c, 0, 57, 58
2, 488871, Note_on_c, 0, 56, 58
2, 489104, Note_on_c, 0, 56, 0
2, 489104, Note_on_c, 0, 57, 0
2, 489114, Note_on_c, 0, 54, 58
2, 489351, Note_on_c, 0, 57, 58
2, 489581, Note_on_c, 0, 57, 0
2, 489581, Note_on_c, 0, 54, 0
2, 489591, Note_on_c, 0, 52, 58
2, 489821, Note_on_c, 0, 52, 0
2, 489831, Note_on_c, 0, 51, 58
2, 490061, Note_on_c, 0, 51, 0
2, 490071, Note_on_c, 0, 54, 58
2, 490301, Note_on_c, 0, 54, 0
2, 490311, Note_on_c, 0, 49, 58
2, 490541, Note_on_c, 0, 49, 0
2, 490551, Note_on_c, 0, 48, 58
2, 490781, Note_on_c, 0, 48, 0
2, 490791, Note_on_c, 0, 51, 58
2, 491261, Note_on_c, 0, 51, 0
2, 491271, Note_on_c, 0, 45, 55
2, 491744, Note_on_c, 0, 45, 0
2, 491754, Note_on_c, 0, 44, 53
2, 492294, Note_on_c, 0, 44, 0
2, 492304, Note_on_c, 0, 31, 58
2, 492304, Note_on_c, 0, 43, 58
2, 495194, Note_on_c, 0, 43, 0
2, 495194, Note_on_c, 0, 31, 0
2, 495204, Note_on_c, 0, 32, 58
2, 495204, Note_on_c, 0, 44, 58
2, 498067, Note_on_c, 0, 37, 58
2, 498074, Note_on_c, 0, 44, 0
2, 498074, Note_on_c, 0, 32, 0
2, 498084, Note_on_c, 0, 49, 58
2, 498194, Note_on_c, 0, 37, 0
2, 498204, Note_on_c, 0, 49, 58
2, 498314, Note_on_c, 0, 49, 0
2, 498324, Note_on_c, 0, 44, 58
2, 498434, Note_on_c, 0, 44, 0
2, 498444, Note_on_c, 0, 49, 58
2, 498554, Note_on_c, 0, 49, 0
2, 498554, Note_on_c, 0, 49, 0
2, 498564, Note_on_c, 0, 37, 58
2, 498674, Note_on_c, 0, 37, 0
2, 498684, Note_on_c, 0, 49, 58
2, 498794, Note_on_c, 0, 49, 0
2, 498804, Note_on_c, 0, 44, 58
2, 498914, Note_on_c, 0, 44, 0
2, 498924, Note_on_c, 0, 49, 58
2, 499037, Note_on_c, 0, 49, 0
2, 499047, Note_on_c, 0, 37, 58
2, 499157, Note_on_c, 0, 37, 0
2, 499167, Note_on_c, 0, 49, 58
2, 499277, Note_on_c, 0, 49, 0
2, 499287, Note_on_c, 0, 44, 58
2, 499394, Note_on_c, 0, 44, 0
2, 499404, Note_on_c, 0, 49, 58
2, 499497, Note_on_c, 0, 49, 0
2, 499507, Note_on_c, 0, 64, 63
2, 499524, Note_on_c, 0, 37, 58
2, 499634, Note_on_c, 0, 37, 0
2, 499644, Note_on_c, 0, 49, 58
2, 499754, Note_on_c, 0, 49, 0
2, 499764, Note_on_c, 0, 44, 58
2, 499864, Note_on_c, 0, 61, 63
2, 499874, Note_on_c, 0, 44, 0
2, 499874, Note_on_c, 0, 64, 0
2, 499884, Note_on_c, 0, 49, 58
2, 499994, Note_on_c, 0, 49, 0
2, 499994, Note_on_c, 0, 61, 0
2, 500004, Note_on_c, 0, 60, 63
2, 500004, Note_on_c, 0, 37, 58
2, 500114, Note_on_c, 0, 37, 0
2, 500124, Note_on_c, 0, 51, 58
2, 500234, Note_on_c, 0, 51, 0
2, 500244, Note_on_c, 0, 44, 58
2, 500354, Note_on_c, 0, 44, 0
2, 500364, Note_on_c, 0, 51, 58
2, 500454, Note_on_c, 0, 60, 0
2, 500456, Note_on_c, 0, 51, 0
2, 500464, Note_on_c, 0, 60, 58
2, 500466, Note_on_c, 0, 54, 58
2, 500487, Note_on_c, 0, 68, 63
2, 500487, Note_on_c, 0, 37, 58
2, 500597, Note_on_c, 0, 37, 0
2, 500607, Note_on_c, 0, 51, 58
2, 500717, Note_on_c, 0, 51, 0
2, 500727, Note_on_c, 0, 44, 58
2, 500834, Note_on_c, 0, 44, 0
2, 500834, Note_on_c, 0, 60, 0
2, 500834, Note_on_c, 0, 54, 0
2, 500834, Note_on_c, 0, 68, 0
2, 500844, Note_on_c, 0, 51, 58
2, 500947, Note_on_c, 0, 68, 63
2, 500947, Note_on_c, 0, 60, 58
2, 500947, Note_on_c, 0, 54, 58
2, 500954, Note_on_c, 0, 51, 0
2, 500964, Note_on_c, 0, 37, 58
2, 501074, Note_on_c, 0, 37, 0
2, 501084, Note_on_c, 0, 51, 58
2, 501194, Note_on_c, 0, 51, 0
2, 501204, Note_on_c, 0, 44, 58
2, 501314, Note_on_c, 0, 44, 0
2, 501314, Note_on_c, 0, 54, 0
2, 501314, Note_on_c, 0, 60, 0
2, 501314, Note_on_c, 0, 68, 0
2, 501324, Note_on_c, 0, 51, 58
2, 501416, Note_on_c, 0, 51, 0
2, 501424, Note_on_c, 0, 68, 63
2, 501426, Note_on_c, 0, 60, 58
2, 501426, Note_on_c, 0, 54, 58
2, 501444, Note_on_c, 0, 37, 58
2, 501554, Note_on_c, 0, 37, 0
2, 501564, Note_on_c, 0, 51, 58
2, 501677, Note_on_c, 0, 51, 0
2, 501687, Note_on_c, 0, 44, 58
2, 501797, Note_on_c, 0, 44, 0
2, 501797, Note_on_c, 0, 68, 0
2, 501797, Note_on_c, 0, 60, 0
2, 501797, Note_on_c, 0, 54, 0
2, 501807, Note_on_c, 0, 51, 58
2, 501894, Note_on_c, 0, 51, 0
2, 501904, Note_on_c, 0, 52, 63
2, 501927, Note_on_c, 0, 37, 58
2, 502014, Note_on_c, 0, 37, 0
2, 502024, Note_on_c, 0, 61, 63
2, 502037, Note_on_c, 0, 52, 0
2, 502047, Note_on_c, 0, 49, 58
2, 502137, Note_on_c, 0, 49, 0
2, 502147, Note_on_c, 0, 68, 63
2, 502154, Note_on_c, 0, 61, 0
2, 502164, Note_on_c, 0, 44, 58
2, 502274, Note_on_c, 0, 44, 0
2, 502284, Note_on_c, 0, 49, 58
2, 502394, Note_on_c, 0, 49, 0
2, 502404, Note_on_c, 0, 37, 58
2, 502514, Note_on_c, 0, 37, 0
2, 502524, Note_on_c, 0, 49, 58
2, 502634, Note_on_c, 0, 49, 0
2, 502644, Note_on_c, 0, 44, 58
2, 502754, Note_on_c, 0, 44, 0
2, 502764, Note_on_c, 0, 49, 58
2, 502874, Note_on_c, 0, 49, 0
2, 502884, Note_on_c, 0, 37, 58
2, 502997, Note_on_c, 0, 37, 0
2, 503007, Note_on_c, 0, 49, 58
2, 503117, Note_on_c, 0, 49, 0
2, 503127, Note_on_c, 0, 44, 58
2, 503237, Note_on_c, 0, 44, 0
2, 503247, Note_on_c, 0, 49, 58
2, 503357, Note_on_c, 0, 49, 0
2, 503357, Note_on_c, 0, 68, 0
2, 503367, Note_on_c, 0, 76, 63
2, 503367, Note_on_c, 0, 37, 58
2, 503474, Note_on_c, 0, 37, 0
2, 503484, Note_on_c, 0, 49, 58
2, 503594, Note_on_c, 0, 49, 0
2, 503604, Note_on_c, 0, 44, 58
2, 503697, Note_on_c, 0, 44, 0
2, 503707, Note_on_c, 0, 73, 63
2, 503716, Note_on_c, 0, 76, 0
2, 503726, Note_on_c, 0, 49, 58
2, 503834, Note_on_c, 0, 49, 0
2, 503834, Note_on_c, 0, 73, 0
2, 503844, Note_on_c, 0, 72, 63
2, 503844, Note_on_c, 0, 37, 58
2, 503954, Note_on_c, 0, 37, 0
2, 503964, Note_on_c, 0, 51, 58
2, 504074, Note_on_c, 0, 51, 0
2, 504084, Note_on_c, 0, 44, 58
2, 504194, Note_on_c, 0, 44, 0
2, 504204, Note_on_c, 0, 51, 58
2, 504296, Note_on_c, 0, 51, 0
2, 504296, Note_on_c, 0, 72, 0
2, 504306, Note_on_c, 0, 72, 58
2, 504306, Note_on_c, 0, 66, 58
2, 504324, Note_on_c, 0, 80, 63
2, 504324, Note_on_c, 0, 37, 58
2, 504437, Note_on_c, 0, 37, 0
2, 504447, Note_on_c, 0, 51, 58
2, 504557, Note_on_c, 0, 51, 0
2, 504567, Note_on_c, 0, 44, 58
2, 504677, Note_on_c, 0, 44, 0
2, 504677, Note_on_c, 0, 72, 0
2, 504677, Note_on_c, 0, 66, 0
2, 504677, Note_on_c, 0, 80, 0
2, 504687, Note_on_c, 0, 51, 58
2, 504780, Note_on_c, 0, 51, 0
2, 504787, Note_on_c, 0, 80, 63
2, 504787, Note_on_c, 0, 72, 58
2, 504790, Note_on_c, 0, 66, 58
2, 504804, Note_on_c, 0, 37, 58
2, 504914, Note_on_c, 0, 37, 0
2, 504924, Note_on_c, 0, 51, 58
2, 505034, Note_on_c, 0, 51, 0
2, 505044, Note_on_c, 0, 44, 58
2, 505154, Note_on_c, 0, 44, 0
2, 505154, Note_on_c, 0, 80, 0
2, 505154, Note_on_c, 0, 72, 0
2, 505154, Note_on_c, 0, 66, 0
2, 505164, Note_on_c, 0, 51, 58
2, 505264, Note_on_c, 0, 80, 63
2, 505267, Note_on_c, 0, 72, 58
2, 505267, Note_on_c, 0, 66, 58
2, 505274, Note_on_c, 0, 51, 0
2, 505284, Note_on_c, 0, 37, 58
2, 505394, Note_on_c, 0, 37, 0
2, 505404, Note_on_c, 0, 51, 58
2, 505514, Note_on_c, 0, 51, 0
2, 505524, Note_on_c, 0, 44, 58
2, 505634, Note_on_c, 0, 44, 0
2, 505634, Note_on_c, 0, 66, 0
2, 505634, Note_on_c, 0, 72, 0
2, 505634, Note_on_c, 0, 80, 0
2, 505644, Note_on_c, 0, 51, 58
2, 505734, Note_on_c, 0, 51, 0
2, 505744, Note_on_c, 0, 64, 63
2, 505764, Note_on_c, 0, 37, 58
2, 505854, Note_on_c, 0, 37, 0
2, 505864, Note_on_c, 0, 73, 63
2, 505874, Note_on_c, 0, 64, 0
2, 505884, Note_on_c, 0, 49, 58
2, 505974, Note_on_c, 0, 49, 0
2, 505984, Note_on_c, 0, 80, 63
2, 505994, Note_on_c, 0, 73, 0
2, 506004, Note_on_c, 0, 44, 58
2, 506117, Note_on_c, 0, 44, 0
2, 506127, Note_on_c, 0, 49, 58
2, 506234, Note_on_c, 0, 49, 0
2, 506244, Note_on_c, 0, 37, 58
2, 506354, Note_on_c, 0, 37, 0
2, 506364, Note_on_c, 0, 49, 58
2, 506474, Note_on_c, 0, 49, 0
2, 506484, Note_on_c, 0, 44, 58
2, 506594, Note_on_c, 0, 44, 0
2, 506604, Note_on_c, 0, 49, 58
2, 506714, Note_on_c, 0, 49, 0
2, 506714, Note_on_c, 0, 80, 0
2, 506724, Note_on_c, 0, 66, 67
2, 506724, Note_on_c, 0, 37, 59
2, 506824, Note_on_c, 0, 72, 67
2, 506834, Note_on_c, 0, 37, 0
2, 506834, Note_on_c, 0, 66, 0
2, 506844, Note_on_c, 0, 51, 59
2, 506944, Note_on_c, 0, 80, 67
2, 506954, Note_on_c, 0, 51, 0
2, 506954, Note_on_c, 0, 72, 0
2, 506964, Note_on_c, 0, 44, 59
2, 507077, Note_on_c, 0, 44, 0
2, 507087, Note_on_c, 0, 51, 59
2, 507197, Note_on_c, 0, 51, 0
2, 507207, Note_on_c, 0, 37, 59
2, 507317, Note_on_c, 0, 37, 0
2, 507327, Note_on_c, 0, 51, 59
2, 507437, Note_on_c, 0, 51, 0
2, 507447, Note_on_c, 0, 44, 59
2, 507556, Note_on_c, 0, 44, 0
2, 507566, Note_on_c, 0, 51, 59
2, 507674, Note_on_c, 0, 51, 0
2, 507674, Note_on_c, 0, 80, 0
2, 507684, Note_on_c, 0, 64, 71
2, 507686, Note_on_c, 0, 37, 63
2, 507777, Note_on_c, 0, 37, 0
2, 507787, Note_on_c, 0, 73, 71
2, 507794, Note_on_c, 0, 64, 0
2, 507804, Note_on_c, 0, 49, 63
2, 507897, Note_on_c, 0, 49, 0
2, 507907, Note_on_c, 0, 80, 71
2, 507914, Note_on_c, 0, 73, 0
2, 507924, Note_on_c, 0, 44, 63
2, 508034, Note_on_c, 0, 44, 0
2, 508044, Note_on_c, 0, 49, 63
2, 508154, Note_on_c, 0, 49, 0
2, 508164, Note_on_c, 0, 37, 63
2, 508274, Note_on_c, 0, 37, 0
2, 508284, Note_on_c, 0, 49, 63
2, 508394, Note_on_c, 0, 49, 0
2, 508404, Note_on_c, 0, 44, 63
2, 508517, Note_on_c, 0, 44, 0
2, 508527, Note_on_c, 0, 49, 63
2, 508637, Note_on_c, 0, 49, 0
2, 508637, Note_on_c, 0, 80, 0
2, 508647, Note_on_c, 0, 66, 75
2, 508647, Note_on_c, 0, 37, 67
2, 508734, Note_on_c, 0, 37, 0
2, 508744, Note_on_c, 0, 72, 75
2, 508754, Note_on_c, 0, 66, 0
2, 508764, Note_on_c, 0, 51, 67
2, 508857, Note_on_c, 0, 51, 0
2, 508867, Note_on_c, 0, 80, 75
2, 508876, Note_on_c, 0, 72, 0
2, 508886, Note_on_c, 0, 44, 67
2, 508994, Note_on_c, 0, 44, 0
2, 509004, Note_on_c, 0, 51, 67
2, 509114, Note_on_c, 0, 51, 0
2, 509124, Note_on_c, 0, 37, 67
2, 509234, Note_on_c, 0, 37, 0
2, 509244, Note_on_c, 0, 51, 67
2, 509354, Note_on_c, 0, 51, 0
2, 509364, Note_on_c, 0, 44, 67
2, 509474, Note_on_c, 0, 44, 0
2, 509484, Note_on_c, 0, 51, 67
2, 509576, Note_on_c, 0, 51, 0
2, 509576, Note_on_c, 0, 80, 0
2, 509586, Note_on_c, 0, 49, 71
2, 509586, Note_on_c, 0, 44, 71
2, 509604, Note_on_c, 0, 80, 79
2, 509604, Note_on_c, 0, 37, 71
2, 509724, Note_on_c, 0, 64, 79
2, 509724, Note_on_c, 0, 52, 71
2, 509746, Note_on_c, 0, 44, 0
2, 509746, Note_on_c, 0, 49, 0
2, 509764, Note_on_c, 0, 37, 0
2, 509764, Note_on_c, 0, 80, 0
2, 509847, Note_on_c, 0, 68, 79
2, 509847, Note_on_c, 0, 56, 71
2, 509884, Note_on_c, 0, 52, 0
2, 509884, Note_on_c, 0, 64, 0
2, 509967, Note_on_c, 0, 73, 79
2, 509967, Note_on_c, 0, 61, 71
2, 510007, Note_on_c, 0, 68, 0
2, 510007, Note_on_c, 0, 56, 0
2, 510087, Note_on_c, 0, 76, 79
2, 510087, Note_on_c, 0, 64, 71
2, 510127, Note_on_c, 0, 73, 0
2, 510127, Note_on_c, 0, 61, 0
2, 510204, Note_on_c, 0, 68, 79
2, 510207, Note_on_c, 0, 56, 71
2, 510247, Note_on_c, 0, 76, 0
2, 510247, Note_on_c, 0, 64, 0
2, 510324, Note_on_c, 0, 73, 79
2, 510326, Note_on_c, 0, 61, 71
2, 510364, Note_on_c, 0, 68, 0
2, 510367, Note_on_c, 0, 56, 0
2, 510444, Note_on_c, 0, 76, 79
2, 510446, Note_on_c, 0, 64, 71
2, 510484, Note_on_c, 0, 73, 0
2, 510486, Note_on_c, 0, 61, 0
2, 510564, Note_on_c, 0, 80, 79
2, 510566, Note_on_c, 0, 68, 71
2, 510604, Note_on_c, 0, 76, 0
2, 510606, Note_on_c, 0, 64, 0
2, 510684, Note_on_c, 0, 73, 79
2, 510684, Note_on_c, 0, 61, 71
2, 510724, Note_on_c, 0, 80, 0
2, 510726, Note_on_c, 0, 68, 0
2, 510804, Note_on_c, 0, 76, 79
2, 510804, Note_on_c, 0, 64, 71
2, 510844, Note_on_c, 0, 73, 0
2, 510844, Note_on_c, 0, 61, 0
2, 510924, Note_on_c, 0, 80, 79
2, 510924, Note_on_c, 0, 68, 71
2, 510964, Note_on_c, 0, 76, 0
2, 510964, Note_on_c, 0, 64, 0
2, 511044, Note_on_c, 0, 85, 79
2, 511044, Note_on_c, 0, 73, 71
2, 511084, Note_on_c, 0, 80, 0
2, 511084, Note_on_c, 0, 68, 0
2, 511164, Note_on_c, 0, 76, 79
2, 511164, Note_on_c, 0, 64, 71
2, 511204, Note_on_c, 0, 85, 0
2, 511204, Note_on_c, 0, 73, 0
2, 511287, Note_on_c, 0, 80, 79
2, 511287, Note_on_c, 0, 68, 71
2, 511324, Note_on_c, 0, 76, 0
2, 511324, Note_on_c, 0, 64, 0
2, 511407, Note_on_c, 0, 85, 79
2, 511407, Note_on_c, 0, 73, 71
2, 511447, Note_on_c, 0, 80, 0
2, 511447, Note_on_c, 0, 68, 0
2, 511524, Note_on_c, 0, 88, 79
2, 511527, Note_on_c, 0, 76, 79
2, 511567, Note_on_c, 0, 85, 0
2, 511567, Note_on_c, 0, 73, 0
2, 511644, Note_on_c, 0, 85, 79
2, 511646, Note_on_c, 0, 73, 71
2, 511684, Note_on_c, 0, 88, 0
2, 511687, Note_on_c, 0, 76, 0
2, 511764, Note_on_c, 0, 80, 79
2, 511766, Note_on_c, 0, 68, 71
2, 511804, Note_on_c, 0, 85, 0
2, 511806, Note_on_c, 0, 73, 0
2, 511884, Note_on_c, 0, 76, 79
2, 511886, Note_on_c, 0, 64, 71
2, 511924, Note_on_c, 0, 80, 0
2, 511926, Note_on_c, 0, 68, 0
2, 512004, Note_on_c, 0, 85, 79
2, 512004, Note_on_c, 0, 73, 71
2, 512044, Note_on_c, 0, 76, 0
2, 512046, Note_on_c, 0, 64, 0
2, 512124, Note_on_c, 0, 80, 79
2, 512124, Note_on_c, 0, 68, 71
2, 512164, Note_on_c, 0, 85, 0
2, 512164, Note_on_c, 0, 73, 0
2, 512244, Note_on_c, 0, 76, 79
2, 512244, Note_on_c, 0, 64, 71
2, 512284, Note_on_c, 0, 80, 0
2, 512284, Note_on_c, 0, 68, 0
2, 512364, Note_on_c, 0, 73, 79
2, 512364, Note_on_c, 0, 61, 71
2, 512404, Note_on_c, 0, 76, 0
2, 512404, Note_on_c, 0, 64, 0
2, 512484, Note_on_c, 0, 80, 79
2, 512484, Note_on_c, 0, 68, 71
2, 512524, Note_on_c, 0, 73, 0
2, 512524, Note_on_c, 0, 61, 0
2, 512607, Note_on_c, 0, 76, 79
2, 512607, Note_on_c, 0, 64, 71
2, 512644, Note_on_c, 0, 80, 0
2, 512644, Note_on_c, 0, 68, 0
2, 512727, Note_on_c, 0, 73, 79
2, 512727, Note_on_c, 0, 61, 71
2, 512767, Note_on_c, 0, 76, 0
2, 512767, Note_on_c, 0, 64, 0
2, 512844, Note_on_c, 0, 68, 79
2, 512847, Note_on_c, 0, 56, 71
2, 512887, Note_on_c, 0, 73, 0
2, 512887, Note_on_c, 0, 61, 0
2, 512966, Note_on_c, 0, 76, 79
2, 512966, Note_on_c, 0, 64, 71
2, 513004, Note_on_c, 0, 68, 0
2, 513007, Note_on_c, 0, 56, 0
2, 513084, Note_on_c, 0, 73, 79
2, 513086, Note_on_c, 0, 61, 71
2, 513126, Note_on_c, 0, 76, 0
2, 513126, Note_on_c, 0, 64, 0
2, 513204, Note_on_c, 0, 68, 79
2, 513206, Note_on_c, 0, 56, 71
2, 513244, Note_on_c, 0, 73, 0
2, 513246, Note_on_c, 0, 61, 0
2, 513324, Note_on_c, 0, 64, 79
2, 513326, Note_on_c, 0, 52, 71
2, 513364, Note_on_c, 0, 68, 0
2, 513366, Note_on_c, 0, 56, 0
2, 513444, Note_on_c, 0, 73, 79
2, 513444, Note_on_c, 0, 61, 71
2, 513484, Note_on_c, 0, 64, 0
2, 513486, Note_on_c, 0, 52, 0
2, 513564, Note_on_c, 0, 68, 79
2, 513564, Note_on_c, 0, 56, 71
2, 513604, Note_on_c, 0, 73, 0
2, 513604, Note_on_c, 0, 61, 0
2, 513684, Note_on_c, 0, 64, 79
2, 513684, Note_on_c, 0, 52, 71
2, 513724, Note_on_c, 0, 68, 0
2, 513724, Note_on_c, 0, 56, 0
2, 513804, Note_on_c, 0, 61, 79
2, 513804, Note_on_c, 0, 49, 71
2, 513844, Note_on_c, 0, 64, 0
2, 513844, Note_on_c, 0, 52, 0
2, 513927, Note_on_c, 0, 68, 79
2, 513927, Note_on_c, 0, 56, 71
2, 513964, Note_on_c, 0, 61, 0
2, 513964, Note_on_c, 0, 49, 0
2, 514047, Note_on_c, 0, 64, 79
2, 514047, Note_on_c, 0, 52, 71
2, 514087, Note_on_c, 0, 68, 0
2, 514087, Note_on_c, 0, 56, 0
2, 514167, Note_on_c, 0, 61, 79
2, 514167, Note_on_c, 0, 49, 71
2, 514207, Note_on_c, 0, 64, 0
2, 514207, Note_on_c, 0, 52, 0
2, 514284, Note_on_c, 0, 56, 79
2, 514287, Note_on_c, 0, 44, 71
2, 514327, Note_on_c, 0, 61, 0
2, 514327, Note_on_c, 0, 49, 0
2, 514404, Note_on_c, 0, 64, 79
2, 514406, Note_on_c, 0, 52, 71
2, 514444, Note_on_c, 0, 56, 0
2, 514447, Note_on_c, 0, 44, 0
2, 514524, Note_on_c, 0, 61, 79
2, 514526, Note_on_c, 0, 49, 71
2, 514564, Note_on_c, 0, 64, 0
2, 514566, Note_on_c, 0, 52, 0
2, 514644, Note_on_c, 0, 56, 79
2, 514646, Note_on_c, 0, 44, 71
2, 514684, Note_on_c, 0, 61, 0
2, 514686, Note_on_c, 0, 49, 0
2, 514764, Note_on_c, 0, 52, 79
2, 514766, Note_on_c, 0, 40, 71
2, 514804, Note_on_c, 0, 56, 0
2, 514806, Note_on_c, 0, 44, 0
2, 514884, Note_on_c, 0, 61, 79
2, 514884, Note_on_c, 0, 49, 71
2, 514924, Note_on_c, 0, 52, 0
2, 514926, Note_on_c, 0, 40, 0
2, 515004, Note_on_c, 0, 56, 79
2, 515004, Note_on_c, 0, 44, 71
2, 515044, Note_on_c, 0, 61, 0
2, 515044, Note_on_c, 0, 49, 0
2, 515124, Note_on_c, 0, 52, 79
2, 515124, Note_on_c, 0, 40, 71
2, 515164, Note_on_c, 0, 56, 0
2, 515164, Note_on_c, 0, 44, 0
2, 515247, Note_on_c, 0, 56, 79
2, 515247, Note_on_c, 0, 44, 71
2, 515284, Note_on_c, 0, 52, 0
2, 515284, Note_on_c, 0, 40, 0
2, 515346, Note_on_c, 0, 49, 79
2, 515346, Note_on_c, 0, 37, 79
2, 515349, Note_on_c, 0, 44, 79
2, 515349, Note_on_c, 0, 40, 79
2, 515407, Note_on_c, 0, 44, 0
2, 515407, Note_on_c, 0, 56, 0
2, 515826, Note_on_c, 0, 37, 0
2, 515826, Note_on_c, 0, 49, 0
2, 515829, Note_on_c, 0, 44, 0
2, 515829, Note_on_c, 0, 40, 0
2, 516306, Note_on_c, 0, 85, 98
2, 516306, Note_on_c, 0, 80, 98
2, 516306, Note_on_c, 0, 76, 98
2, 516306, Note_on_c, 0, 73, 98
2, 516306, Note_on_c, 0, 49, 98
2, 516306, Note_on_c, 0, 44, 98
2, 516306, Note_on_c, 0, 40, 98
2, 516306, Note_on_c, 0, 37, 98
2, 516666, Note_on_c, 0, 37, 0
2, 516666, Note_on_c, 0, 85, 0
2, 516666, Note_on_c, 0, 49, 0
2, 516666, Note_on_c, 0, 80, 0
2, 516666, Note_on_c, 0, 76, 0
2, 516666, Note_on_c, 0, 73, 0
2, 516666, Note_on_c, 0, 44, 0
2, 516666, Note_on_c, 0, 40, 0
2, 517267, Note_on_c, 0, 73, 98
2, 517267, Note_on_c, 0, 68, 98
2, 517267, Note_on_c, 0, 64, 98
2, 517267, Note_on_c, 0, 61, 98
2, 517267, Note_on_c, 0, 49, 98
2, 517267, Note_on_c, 0, 44, 98
2, 517267, Note_on_c, 0, 40, 98
2, 517267, Note_on_c, 0, 37, 98
2, 517627, Note_on_c, 0, 37, 0
2, 517627, Note_on_c, 0, 73, 0
2, 517627, Note_on_c, 0, 49, 0
2, 517627, Note_on_c, 0, 68, 0
2, 517627, Note_on_c, 0, 64, 0
2, 517627, Note_on_c, 0, 61, 0
2, 517627, Note_on_c, 0, 44, 0
2, 517627, Note_on_c, 0, 40, 0
2, 517627, End_track
0, 0, End_of_file