0, 0, Header, 1, 5, 120
1, 0, Start_track
1, 0, Title_t, "Der Mann von Wort lied. Gedicht von F.A. Kleinschmid musik von Beethoven"
1, 0, Title_t, "Opus 99"
1, 0, Copyright_t, "Copyright \251 2002 di FIORELLAEARMANDO@PANET.IT"
1, 0, Text_t, "FIORELLAEARMANDO@PANET.IT"
1, 0, Time_signature, 3, 2, 24, 8
1, 0, Key_signature, 1, "major"
1, 0, Tempo, 810811
1, 0, End_track
2, 0, Start_track
2, 0, MIDI_port, 0
2, 0, Title_t, "Voice"
2, 0, Program_c, 0, 71
2, 0, Control_c, 0, 7, 120
2, 0, Control_c, 0, 10, 64
2, 0, Control_c, 0, 93, 11
2, 0, Control_c, 0, 91, 16
2, 960, Note_on_c, 0, 71, 58
2, 1080, Note_on_c, 0, 71, 0
2, 1080, Note_on_c, 0, 71, 58
2, 1260, Note_on_c, 0, 71, 0
2, 1260, Note_on_c, 0, 71, 58
2, 1320, Note_on_c, 0, 71, 0
2, 1320, Note_on_c, 0, 69, 58
2, 1410, Note_on_c, 0, 69, 0
2, 1410, Note_on_c, 0, 71, 58
2, 1440, Note_on_c, 0, 71, 0
2, 1440, Note_on_c, 0, 67, 58
2, 1530, Note_on_c, 0, 67, 0
2, 1530, Note_on_c, 0, 69, 58
2, 1560, Note_on_c, 0, 69, 0
2, 1560, Note_on_c, 0, 71, 58
2, 1680, Note_on_c, 0, 71, 0
2, 1680, Note_on_c, 0, 71, 58
2, 1800, Note_on_c, 0, 71, 0
2, 1800, Note_on_c, 0, 72, 58
2, 1890, Note_on_c, 0, 72, 0
2, 1890, Note_on_c, 0, 71, 58
2, 1920, Note_on_c, 0, 71, 0
2, 1920, Note_on_c, 0, 69, 58
2, 2040, Note_on_c, 0, 69, 0
2, 2040, Note_on_c, 0, 67, 58
2, 2160, Note_on_c, 0, 67, 0
2, 2160, Note_on_c, 0, 66, 58
2, 2250, Note_on_c, 0, 66, 0
2, 2250, Note_on_c, 0, 69, 58
2, 2280, Note_on_c, 0, 69, 0
2, 2280, Note_on_c, 0, 62, 58
2, 2400, Note_on_c, 0, 62, 0
2, 2760, Note_on_c, 0, 69, 58
2, 2880, Note_on_c, 0, 69, 0
2, 2880, Note_on_c, 0, 66, 58
2, 2970, Note_on_c, 0, 66, 0
2, 2970, Note_on_c, 0, 67, 58
2, 3000, Note_on_c, 0, 67, 0
2, 3000, Note_on_c, 0, 69, 58
2, 3120, Note_on_c, 0, 69, 0
2, 3180, Note_on_c, 0, 69, 58
2, 3240, Note_on_c, 0, 69, 0
2, 3240, Note_on_c, 0, 71, 68
2, 3300, Note_on_c, 0, 71, 0
2, 3300, Note_on_c, 0, 72, 70
2, 3360, Note_on_c, 0, 72, 0
2, 3360, Note_on_c, 0, 74, 73
2, 3540, Note_on_c, 0, 74, 0
2, 3540, Note_on_c, 0, 67, 82
2, 3600, Note_on_c, 0, 67, 0
2, 3600, Note_on_c, 0, 69, 85
2, 3660, Note_on_c, 0, 69, 0
2, 3660, Note_on_c, 0, 71, 87
2, 3720, Note_on_c, 0, 71, 0
2, 3720, Note_on_c, 0, 72, 89
2, 3840, Note_on_c, 0, 72, 0
2, 3840, Note_on_c, 0, 71, 95
2, 3960, Note_on_c, 0, 71, 0
2, 3960, Note_on_c, 0, 69, 99
2, 4020, Note_on_c, 0, 69, 0
2, 4020, Note_on_c, 0, 74, 100
2, 4080, Note_on_c, 0, 74, 0
2, 4080, Note_on_c, 0, 71, 101
2, 4260, Note_on_c, 0, 71, 0
2, 4260, Note_on_c, 0, 67, 106
2, 4320, Note_on_c, 0, 67, 0
2, 4320, Note_on_c, 0, 69, 106
2, 4380, Note_on_c, 0, 69, 0
2, 4380, Note_on_c, 0, 71, 106
2, 4440, Note_on_c, 0, 71, 0
2, 4440, Note_on_c, 0, 72, 106
2, 4560, Note_on_c, 0, 72, 0
2, 4560, Note_on_c, 0, 71, 106
2, 4680, Note_on_c, 0, 71, 0
2, 4680, Note_on_c, 0, 69, 106
2, 4740, Note_on_c, 0, 69, 0
2, 4740, Note_on_c, 0, 74, 106
2, 4800, Note_on_c, 0, 74, 0
2, 4800, Note_on_c, 0, 67, 106
2, 4920, Note_on_c, 0, 67, 0
2, 6360, Note_on_c, 0, 71, 58
2, 6480, Note_on_c, 0, 71, 0
2, 6480, Note_on_c, 0, 71, 58
2, 6660, Note_on_c, 0, 71, 0
2, 6660, Note_on_c, 0, 71, 58
2, 6720, Note_on_c, 0, 71, 0
2, 6720, Note_on_c, 0, 69, 58
2, 6810, Note_on_c, 0, 69, 0
2, 6810, Note_on_c, 0, 71, 58
2, 6840, Note_on_c, 0, 71, 0
2, 6840, Note_on_c, 0, 67, 58
2, 6930, Note_on_c, 0, 67, 0
2, 6930, Note_on_c, 0, 69, 58
2, 6960, Note_on_c, 0, 69, 0
2, 6960, Note_on_c, 0, 71, 58
2, 7080, Note_on_c, 0, 71, 0
2, 7080, Note_on_c, 0, 71, 58
2, 7200, Note_on_c, 0, 71, 0
2, 7200, Note_on_c, 0, 72, 58
2, 7290, Note_on_c, 0, 72, 0
2, 7290, Note_on_c, 0, 71, 58
2, 7320, Note_on_c, 0, 71, 0
2, 7320, Note_on_c, 0, 69, 58
2, 7440, Note_on_c, 0, 69, 0
2, 7440, Note_on_c, 0, 67, 58
2, 7560, Note_on_c, 0, 67, 0
2, 7560, Note_on_c, 0, 66, 58
2, 7650, Note_on_c, 0, 66, 0
2, 7650, Note_on_c, 0, 69, 58
2, 7680, Note_on_c, 0, 69, 0
2, 7680, Note_on_c, 0, 62, 58
2, 7800, Note_on_c, 0, 62, 0
2, 8160, Note_on_c, 0, 69, 58
2, 8280, Note_on_c, 0, 69, 0
2, 8280, Note_on_c, 0, 66, 58
2, 8370, Note_on_c, 0, 66, 0
2, 8370, Note_on_c, 0, 67, 58
2, 8400, Note_on_c, 0, 67, 0
2, 8400, Note_on_c, 0, 69, 58
2, 8520, Note_on_c, 0, 69, 0
2, 8580, Note_on_c, 0, 69, 58
2, 8640, Note_on_c, 0, 69, 0
2, 8640, Note_on_c, 0, 71, 68
2, 8700, Note_on_c, 0, 71, 0
2, 8700, Note_on_c, 0, 72, 70
2, 8760, Note_on_c, 0, 72, 0
2, 8760, Note_on_c, 0, 74, 73
2, 8940, Note_on_c, 0, 74, 0
2, 8940, Note_on_c, 0, 67, 82
2, 9000, Note_on_c, 0, 67, 0
2, 9000, Note_on_c, 0, 69, 85
2, 9060, Note_on_c, 0, 69, 0
2, 9060, Note_on_c, 0, 71, 87
2, 9120, Note_on_c, 0, 71, 0
2, 9120, Note_on_c, 0, 72, 89
2, 9240, Note_on_c, 0, 72, 0
2, 9240, Note_on_c, 0, 71, 95
2, 9360, Note_on_c, 0, 71, 0
2, 9360, Note_on_c, 0, 69, 99
2, 9420, Note_on_c, 0, 69, 0
2, 9420, Note_on_c, 0, 74, 100
2, 9480, Note_on_c, 0, 74, 0
2, 9480, Note_on_c, 0, 71, 101
2, 9660, Note_on_c, 0, 71, 0
2, 9660, Note_on_c, 0, 67, 106
2, 9720, Note_on_c, 0, 67, 0
2, 9720, Note_on_c, 0, 69, 106
2, 9780, Note_on_c, 0, 69, 0
2, 9780, Note_on_c, 0, 71, 106
2, 9840, Note_on_c, 0, 71, 0
2, 9840, Note_on_c, 0, 72, 106
2, 9960, Note_on_c, 0, 72, 0
2, 9960, Note_on_c, 0, 71, 106
2, 10080, Note_on_c, 0, 71, 0
2, 10080, Note_on_c, 0, 69, 106
2, 10140, Note_on_c, 0, 69, 0
2, 10140, Note_on_c, 0, 74, 106
2, 10200, Note_on_c, 0, 74, 0
2, 10200, Note_on_c, 0, 67, 106
2, 10320, Note_on_c, 0, 67, 0
2, 11760, Note_on_c, 0, 71, 58
2, 11880, Note_on_c, 0, 71, 0
2, 11880, Note_on_c, 0, 71, 58
2, 12060, Note_on_c, 0, 71, 0
2, 12060, Note_on_c, 0, 71, 58
2, 12120, Note_on_c, 0, 71, 0
2, 12120, Note_on_c, 0, 69, 58
2, 12210, Note_on_c, 0, 69, 0
2, 12210, Note_on_c, 0, 71, 58
2, 12240, Note_on_c, 0, 71, 0
2, 12240, Note_on_c, 0, 67, 58
2, 12330, Note_on_c, 0, 67, 0
2, 12330, Note_on_c, 0, 69, 58
2, 12360, Note_on_c, 0, 69, 0
2, 12360, Note_on_c, 0, 71, 58
2, 12480, Note_on_c, 0, 71, 0
2, 12480, Note_on_c, 0, 71, 58
2, 12600, Note_on_c, 0, 71, 0
2, 12600, Note_on_c, 0, 72, 58
2, 12690, Note_on_c, 0, 72, 0
2, 12690, Note_on_c, 0, 71, 58
2, 12720, Note_on_c, 0, 71, 0
2, 12720, Note_on_c, 0, 69, 58
2, 12840, Note_on_c, 0, 69, 0
2, 12840, Note_on_c, 0, 67, 58
2, 12960, Note_on_c, 0, 67, 0
2, 12960, Note_on_c, 0, 66, 58
2, 13050, Note_on_c, 0, 66, 0
2, 13050, Note_on_c, 0, 69, 58
2, 13080, Note_on_c, 0, 69, 0
2, 13080, Note_on_c, 0, 62, 58
2, 13200, Note_on_c, 0, 62, 0
2, 13560, Note_on_c, 0, 69, 58
2, 13680, Note_on_c, 0, 69, 0
2, 13680, Note_on_c, 0, 66, 58
2, 13770, Note_on_c, 0, 66, 0
2, 13770, Note_on_c, 0, 67, 58
2, 13800, Note_on_c, 0, 67, 0
2, 13800, Note_on_c, 0, 69, 58
2, 13920, Note_on_c, 0, 69, 0
2, 13980, Note_on_c, 0, 69, 58
2, 14040, Note_on_c, 0, 69, 0
2, 14040, Note_on_c, 0, 71, 68
2, 14100, Note_on_c, 0, 71, 0
2, 14100, Note_on_c, 0, 72, 70
2, 14160, Note_on_c, 0, 72, 0
2, 14160, Note_on_c, 0, 74, 73
2, 14340, Note_on_c, 0, 74, 0
2, 14340, Note_on_c, 0, 67, 82
2, 14400, Note_on_c, 0, 67, 0
2, 14400, Note_on_c, 0, 69, 85
2, 14460, Note_on_c, 0, 69, 0
2, 14460, Note_on_c, 0, 71, 87
2, 14520, Note_on_c, 0, 71, 0
2, 14520, Note_on_c, 0, 72, 89
2, 14640, Note_on_c, 0, 72, 0
2, 14640, Note_on_c, 0, 71, 95
2, 14760, Note_on_c, 0, 71, 0
2, 14760, Note_on_c, 0, 69, 99
2, 14820, Note_on_c, 0, 69, 0
2, 14820, Note_on_c, 0, 74, 100
2, 14880, Note_on_c, 0, 74, 0
2, 14880, Note_on_c, 0, 71, 101
2, 15060, Note_on_c, 0, 71, 0
2, 15060, Note_on_c, 0, 67, 106
2, 15120, Note_on_c, 0, 67, 0
2, 15120, Note_on_c, 0, 69, 106
2, 15180, Note_on_c, 0, 69, 0
2, 15180, Note_on_c, 0, 71, 106
2, 15240, Note_on_c, 0, 71, 0
2, 15240, Note_on_c, 0, 72, 106
2, 15360, Note_on_c, 0, 72, 0
2, 15360, Note_on_c, 0, 71, 106
2, 15480, Note_on_c, 0, 71, 0
2, 15480, Note_on_c, 0, 69, 106
2, 15540, Note_on_c, 0, 69, 0
2, 15540, Note_on_c, 0, 74, 106
2, 15600, Note_on_c, 0, 74, 0
2, 15600, Note_on_c, 0, 67, 106
2, 15720, Note_on_c, 0, 67, 0
2, 15720, End_track
3, 0, Start_track
3, 0, MIDI_port, 0
3, 0, Title_t, "Piano Right"
3, 0, Program_c, 1, 0
3, 0, Control_c, 1, 7, 110
3, 0, Control_c, 1, 10, 32
3, 0, Control_c, 1, 93, 16
3, 0, Control_c, 1, 91, 11
3, 240, Note_on_c, 1, 71, 51
3, 240, Note_on_c, 1, 67, 51
3, 240, Note_on_c, 1, 62, 51
3, 360, Note_on_c, 1, 62, 0
3, 360, Note_on_c, 1, 67, 0
3, 360, Note_on_c, 1, 71, 0
3, 360, Note_on_c, 1, 71, 54
3, 360, Note_on_c, 1, 67, 54
3, 360, Note_on_c, 1, 62, 54
3, 540, Note_on_c, 1, 62, 0
3, 540, Note_on_c, 1, 67, 0
3, 540, Note_on_c, 1, 71, 0
3, 540, Note_on_c, 1, 71, 54
3, 540, Note_on_c, 1, 67, 54
3, 540, Note_on_c, 1, 62, 54
3, 600, Note_on_c, 1, 62, 0
3, 600, Note_on_c, 1, 67, 0
3, 600, Note_on_c, 1, 71, 0
3, 600, Note_on_c, 1, 69, 54
3, 600, Note_on_c, 1, 66, 54
3, 600, Note_on_c, 1, 62, 54
3, 690, Note_on_c, 1, 62, 0
3, 690, Note_on_c, 1, 66, 0
3, 690, Note_on_c, 1, 69, 0
3, 690, Note_on_c, 1, 71, 53
3, 690, Note_on_c, 1, 67, 53
3, 690, Note_on_c, 1, 62, 53
3, 720, Note_on_c, 1, 62, 0
3, 720, Note_on_c, 1, 67, 0
3, 720, Note_on_c, 1, 71, 0
3, 720, Note_on_c, 1, 67, 52
3, 720, Note_on_c, 1, 62, 52
3, 810, Note_on_c, 1, 62, 0
3, 810, Note_on_c, 1, 67, 0
3, 810, Note_on_c, 1, 69, 49
3, 810, Note_on_c, 1, 66, 49
3, 810, Note_on_c, 1, 62, 49
3, 840, Note_on_c, 1, 62, 0
3, 840, Note_on_c, 1, 66, 0
3, 840, Note_on_c, 1, 69, 0
3, 840, Note_on_c, 1, 71, 58
3, 840, Note_on_c, 1, 67, 58
3, 840, Note_on_c, 1, 62, 58
3, 960, Note_on_c, 1, 62, 0
3, 960, Note_on_c, 1, 67, 0
3, 960, Note_on_c, 1, 71, 0
3, 1080, Note_on_c, 1, 71, 51
3, 1080, Note_on_c, 1, 67, 51
3, 1080, Note_on_c, 1, 62, 51
3, 1200, Note_on_c, 1, 62, 0
3, 1200, Note_on_c, 1, 67, 0
3, 1200, Note_on_c, 1, 71, 0
3, 1320, Note_on_c, 1, 69, 54
3, 1320, Note_on_c, 1, 66, 54
3, 1320, Note_on_c, 1, 60, 54
3, 1440, Note_on_c, 1, 60, 0
3, 1440, Note_on_c, 1, 66, 0
3, 1440, Note_on_c, 1, 69, 0
3, 1440, Note_on_c, 1, 67, 53
3, 1440, Note_on_c, 1, 59, 53
3, 1500, Note_on_c, 1, 59, 0
3, 1500, Note_on_c, 1, 67, 0
3, 1560, Note_on_c, 1, 59, 48
3, 1560, Note_on_c, 1, 71, 48
3, 1560, Note_on_c, 1, 67, 48
3, 1620, Note_on_c, 1, 67, 0
3, 1620, Note_on_c, 1, 71, 0
3, 1620, Note_on_c, 1, 59, 0
3, 1800, Note_on_c, 1, 64, 54
3, 1800, Note_on_c, 1, 72, 54
3, 1890, Note_on_c, 1, 72, 0
3, 1890, Note_on_c, 1, 64, 0
3, 1890, Note_on_c, 1, 71, 56
3, 1890, Note_on_c, 1, 62, 56
3, 1920, Note_on_c, 1, 62, 0
3, 1920, Note_on_c, 1, 71, 0
3, 1920, Note_on_c, 1, 69, 57
3, 1920, Note_on_c, 1, 64, 57
3, 2040, Note_on_c, 1, 64, 0
3, 2040, Note_on_c, 1, 69, 0
3, 2040, Note_on_c, 1, 57, 57
3, 2040, Note_on_c, 1, 67, 57
3, 2040, Note_on_c, 1, 64, 57
3, 2160, Note_on_c, 1, 64, 0
3, 2160, Note_on_c, 1, 67, 0
3, 2160, Note_on_c, 1, 57, 0
3, 2160, Note_on_c, 1, 66, 54
3, 2160, Note_on_c, 1, 62, 54
3, 2160, Note_on_c, 1, 57, 54
3, 2280, Note_on_c, 1, 57, 0
3, 2280, Note_on_c, 1, 62, 0
3, 2280, Note_on_c, 1, 66, 0
3, 2400, Note_on_c, 1, 79, 58
3, 2520, Note_on_c, 1, 79, 0
3, 2520, Note_on_c, 1, 78, 58
3, 2610, Note_on_c, 1, 78, 0
3, 2610, Note_on_c, 1, 81, 58
3, 2640, Note_on_c, 1, 81, 0
3, 2640, Note_on_c, 1, 74, 58
3, 2760, Note_on_c, 1, 74, 0
3, 2760, Note_on_c, 1, 62, 58
3, 2760, Note_on_c, 1, 66, 58
3, 2760, Note_on_c, 1, 69, 58
3, 2880, Note_on_c, 1, 69, 0
3, 2880, Note_on_c, 1, 66, 0
3, 2880, Note_on_c, 1, 62, 0
3, 2880, Note_on_c, 1, 57, 58
3, 2880, Note_on_c, 1, 62, 58
3, 2880, Note_on_c, 1, 66, 58
3, 3000, Note_on_c, 1, 66, 0
3, 3000, Note_on_c, 1, 62, 0
3, 3000, Note_on_c, 1, 57, 0
3, 3000, Note_on_c, 1, 62, 58
3, 3000, Note_on_c, 1, 66, 58
3, 3090, Note_on_c, 1, 66, 0
3, 3090, Note_on_c, 1, 62, 0
3, 3090, Note_on_c, 1, 67, 58
3, 3090, Note_on_c, 1, 64, 58
3, 3120, Note_on_c, 1, 64, 0
3, 3120, Note_on_c, 1, 67, 0
3, 3120, Note_on_c, 1, 69, 58
3, 3120, Note_on_c, 1, 66, 58
3, 3180, Note_on_c, 1, 66, 0
3, 3180, Note_on_c, 1, 69, 0
3, 3360, Note_on_c, 1, 71, 58
3, 3360, Note_on_c, 1, 67, 58
3, 3420, Note_on_c, 1, 67, 0
3, 3420, Note_on_c, 1, 71, 0
3, 3420, Note_on_c, 1, 72, 61
3, 3420, Note_on_c, 1, 69, 61
3, 3480, Note_on_c, 1, 69, 0
3, 3480, Note_on_c, 1, 72, 0
3, 3480, Note_on_c, 1, 74, 66
3, 3480, Note_on_c, 1, 71, 66
3, 3540, Note_on_c, 1, 71, 0
3, 3540, Note_on_c, 1, 74, 0
3, 3540, Note_on_c, 1, 67, 72
3, 3600, Note_on_c, 1, 67, 0
3, 3600, Note_on_c, 1, 69, 76
3, 3600, Note_on_c, 1, 67, 76
3, 3660, Note_on_c, 1, 67, 0
3, 3660, Note_on_c, 1, 69, 0
3, 3660, Note_on_c, 1, 71, 79
3, 3660, Note_on_c, 1, 67, 79
3, 3720, Note_on_c, 1, 67, 0
3, 3720, Note_on_c, 1, 71, 0
3, 3720, Note_on_c, 1, 72, 82
3, 3720, Note_on_c, 1, 67, 82
3, 3840, Note_on_c, 1, 67, 0
3, 3840, Note_on_c, 1, 72, 0
3, 3840, Note_on_c, 1, 71, 88
3, 3840, Note_on_c, 1, 67, 88
3, 3960, Note_on_c, 1, 67, 0
3, 3960, Note_on_c, 1, 71, 0
3, 3960, Note_on_c, 1, 69, 99
3, 3960, Note_on_c, 1, 66, 99
3, 3960, Note_on_c, 1, 62, 99
3, 4020, Note_on_c, 1, 62, 0
3, 4020, Note_on_c, 1, 66, 0
3, 4020, Note_on_c, 1, 69, 0
3, 4080, Note_on_c, 1, 71, 103
3, 4080, Note_on_c, 1, 67, 103
3, 4080, Note_on_c, 1, 62, 103
3, 4140, Note_on_c, 1, 62, 0
3, 4140, Note_on_c, 1, 67, 0
3, 4140, Note_on_c, 1, 71, 0
3, 4140, Note_on_c, 1, 79, 106
3, 4185, Note_on_c, 1, 79, 0
3, 4185, Note_on_c, 1, 74, 107
3, 4200, Note_on_c, 1, 74, 0
3, 4200, Note_on_c, 1, 71, 107
3, 4260, Note_on_c, 1, 71, 0
3, 4260, Note_on_c, 1, 74, 108
3, 4305, Note_on_c, 1, 74, 0
3, 4305, Note_on_c, 1, 67, 108
3, 4320, Note_on_c, 1, 67, 0
3, 4320, Note_on_c, 1, 69, 106
3, 4320, Note_on_c, 1, 67, 106
3, 4320, Note_on_c, 1, 64, 106
3, 4380, Note_on_c, 1, 64, 0
3, 4380, Note_on_c, 1, 67, 0
3, 4380, Note_on_c, 1, 69, 0
3, 4380, Note_on_c, 1, 71, 106
3, 4380, Note_on_c, 1, 67, 106
3, 4380, Note_on_c, 1, 62, 106
3, 4440, Note_on_c, 1, 62, 0
3, 4440, Note_on_c, 1, 67, 0
3, 4440, Note_on_c, 1, 71, 0
3, 4440, Note_on_c, 1, 72, 106
3, 4440, Note_on_c, 1, 67, 106
3, 4440, Note_on_c, 1, 60, 106
3, 4560, Note_on_c, 1, 60, 0
3, 4560, Note_on_c, 1, 67, 0
3, 4560, Note_on_c, 1, 72, 0
3, 4560, Note_on_c, 1, 71, 106
3, 4560, Note_on_c, 1, 67, 106
3, 4560, Note_on_c, 1, 62, 106
3, 4680, Note_on_c, 1, 62, 0
3, 4680, Note_on_c, 1, 67, 0
3, 4680, Note_on_c, 1, 71, 0
3, 4680, Note_on_c, 1, 69, 106
3, 4680, Note_on_c, 1, 66, 106
3, 4680, Note_on_c, 1, 62, 106
3, 4740, Note_on_c, 1, 62, 0
3, 4740, Note_on_c, 1, 66, 0
3, 4740, Note_on_c, 1, 69, 0
3, 4800, Note_on_c, 1, 67, 106
3, 4800, Note_on_c, 1, 59, 106
3, 4800, Note_on_c, 1, 62, 106
3, 4860, Note_on_c, 1, 62, 0
3, 4860, Note_on_c, 1, 59, 0
3, 4860, Note_on_c, 1, 67, 0
3, 4920, Note_on_c, 1, 79, 55
3, 5040, Note_on_c, 1, 79, 0
3, 5040, Note_on_c, 1, 81, 55
3, 5040, Note_on_c, 1, 79, 55
3, 5130, Note_on_c, 1, 79, 0
3, 5130, Note_on_c, 1, 81, 0
3, 5130, Note_on_c, 1, 86, 55
3, 5130, Note_on_c, 1, 78, 55
3, 5160, Note_on_c, 1, 78, 0
3, 5160, Note_on_c, 1, 86, 0
3, 5160, Note_on_c, 1, 79, 55
3, 5280, Note_on_c, 1, 79, 0
3, 5280, Note_on_c, 1, 88, 55
3, 5280, Note_on_c, 1, 84, 55
3, 5280, Note_on_c, 1, 79, 65
3, 5400, Note_on_c, 1, 79, 0
3, 5400, Note_on_c, 1, 84, 0
3, 5400, Note_on_c, 1, 88, 0
3, 5400, Note_on_c, 1, 86, 55
3, 5400, Note_on_c, 1, 84, 55
3, 5400, Note_on_c, 1, 81, 55
3, 5490, Note_on_c, 1, 81, 0
3, 5490, Note_on_c, 1, 84, 0
3, 5490, Note_on_c, 1, 86, 0
3, 5490, Note_on_c, 1, 91, 55
3, 5490, Note_on_c, 1, 83, 55
3, 5520, Note_on_c, 1, 83, 0
3, 5520, Note_on_c, 1, 91, 0
3, 5520, Note_on_c, 1, 84, 55
3, 5640, Note_on_c, 1, 84, 0
3, 5640, Note_on_c, 1, 88, 105
3, 5640, Note_on_c, 1, 84, 105
3, 5640, Note_on_c, 1, 79, 105
3, 5640, Note_on_c, 1, 76, 105
3, 5760, Note_on_c, 1, 76, 0
3, 5760, Note_on_c, 1, 88, 0
3, 5760, Note_on_c, 1, 84, 0
3, 5760, Note_on_c, 1, 79, 0
3, 5760, Note_on_c, 1, 83, 105
3, 5760, Note_on_c, 1, 79, 105
3, 5760, Note_on_c, 1, 71, 105
3, 5820, Note_on_c, 1, 71, 0
3, 5820, Note_on_c, 1, 79, 0
3, 5820, Note_on_c, 1, 83, 0
3, 5820, Note_on_c, 1, 83, 105
3, 5865, Note_on_c, 1, 83, 0
3, 5865, Note_on_c, 1, 86, 105
3, 5880, Note_on_c, 1, 86, 0
3, 5880, Note_on_c, 1, 79, 105
3, 5940, Note_on_c, 1, 79, 0
3, 5940, Note_on_c, 1, 79, 105
3, 5985, Note_on_c, 1, 79, 0
3, 5985, Note_on_c, 1, 83, 105
3, 6000, Note_on_c, 1, 83, 0
3, 6000, Note_on_c, 1, 74, 105
3, 6060, Note_on_c, 1, 74, 0
3, 6060, Note_on_c, 1, 74, 105
3, 6090, Note_on_c, 1, 74, 0
3, 6090, Note_on_c, 1, 76, 105
3, 6105, Note_on_c, 1, 76, 0
3, 6105, Note_on_c, 1, 78, 105
3, 6120, Note_on_c, 1, 78, 0
3, 6120, Note_on_c, 1, 67, 105
3, 6120, Note_on_c, 1, 79, 105
3, 6210, Note_on_c, 1, 79, 0
3, 6210, Note_on_c, 1, 67, 0
3, 6210, Note_on_c, 1, 55, 105
3, 6240, Note_on_c, 1, 55, 0
3, 6240, Note_on_c, 1, 55, 105
3, 6360, Note_on_c, 1, 55, 0
3, 6360, Note_on_c, 1, 62, 58
3, 6360, Note_on_c, 1, 67, 58
3, 6360, Note_on_c, 1, 71, 58
3, 6480, Note_on_c, 1, 71, 0
3, 6480, Note_on_c, 1, 67, 0
3, 6480, Note_on_c, 1, 62, 0
3, 6480, Note_on_c, 1, 71, 51
3, 6480, Note_on_c, 1, 67, 51
3, 6480, Note_on_c, 1, 62, 51
3, 6600, Note_on_c, 1, 62, 0
3, 6600, Note_on_c, 1, 67, 0
3, 6600, Note_on_c, 1, 71, 0
3, 6720, Note_on_c, 1, 69, 54
3, 6720, Note_on_c, 1, 66, 54
3, 6720, Note_on_c, 1, 60, 54
3, 6840, Note_on_c, 1, 60, 0
3, 6840, Note_on_c, 1, 66, 0
3, 6840, Note_on_c, 1, 69, 0
3, 6840, Note_on_c, 1, 67, 53
3, 6840, Note_on_c, 1, 59, 53
3, 6900, Note_on_c, 1, 59, 0
3, 6900, Note_on_c, 1, 67, 0
3, 6960, Note_on_c, 1, 59, 48
3, 6960, Note_on_c, 1, 71, 48
3, 6960, Note_on_c, 1, 67, 48
3, 7020, Note_on_c, 1, 67, 0
3, 7020, Note_on_c, 1, 71, 0
3, 7020, Note_on_c, 1, 59, 0
3, 7200, Note_on_c, 1, 64, 54
3, 7200, Note_on_c, 1, 72, 54
3, 7290, Note_on_c, 1, 72, 0
3, 7290, Note_on_c, 1, 64, 0
3, 7290, Note_on_c, 1, 71, 56
3, 7290, Note_on_c, 1, 62, 56
3, 7320, Note_on_c, 1, 62, 0
3, 7320, Note_on_c, 1, 71, 0
3, 7320, Note_on_c, 1, 69, 57
3, 7320, Note_on_c, 1, 64, 57
3, 7440, Note_on_c, 1, 64, 0
3, 7440, Note_on_c, 1, 69, 0
3, 7440, Note_on_c, 1, 57, 57
3, 7440, Note_on_c, 1, 67, 57
3, 7440, Note_on_c, 1, 64, 57
3, 7560, Note_on_c, 1, 64, 0
3, 7560, Note_on_c, 1, 67, 0
3, 7560, Note_on_c, 1, 57, 0
3, 7560, Note_on_c, 1, 66, 54
3, 7560, Note_on_c, 1, 62, 54
3, 7560, Note_on_c, 1, 57, 54
3, 7680, Note_on_c, 1, 57, 0
3, 7680, Note_on_c, 1, 62, 0
3, 7680, Note_on_c, 1, 66, 0
3, 7800, Note_on_c, 1, 79, 58
3, 7920, Note_on_c, 1, 79, 0
3, 7920, Note_on_c, 1, 78, 58
3, 8010, Note_on_c, 1, 78, 0
3, 8010, Note_on_c, 1, 81, 58
3, 8040, Note_on_c, 1, 81, 0
3, 8040, Note_on_c, 1, 74, 58
3, 8160, Note_on_c, 1, 74, 0
3, 8160, Note_on_c, 1, 62, 58
3, 8160, Note_on_c, 1, 66, 58
3, 8160, Note_on_c, 1, 69, 58
3, 8280, Note_on_c, 1, 69, 0
3, 8280, Note_on_c, 1, 66, 0
3, 8280, Note_on_c, 1, 62, 0
3, 8280, Note_on_c, 1, 57, 58
3, 8280, Note_on_c, 1, 62, 58
3, 8280, Note_on_c, 1, 66, 58
3, 8400, Note_on_c, 1, 66, 0
3, 8400, Note_on_c, 1, 62, 0
3, 8400, Note_on_c, 1, 57, 0
3, 8400, Note_on_c, 1, 62, 58
3, 8400, Note_on_c, 1, 66, 58
3, 8490, Note_on_c, 1, 66, 0
3, 8490, Note_on_c, 1, 62, 0
3, 8490, Note_on_c, 1, 67, 58
3, 8490, Note_on_c, 1, 64, 58
3, 8520, Note_on_c, 1, 64, 0
3, 8520, Note_on_c, 1, 67, 0
3, 8520, Note_on_c, 1, 69, 58
3, 8520, Note_on_c, 1, 66, 58
3, 8580, Note_on_c, 1, 66, 0
3, 8580, Note_on_c, 1, 69, 0
3, 8760, Note_on_c, 1, 71, 58
3, 8760, Note_on_c, 1, 67, 58
3, 8820, Note_on_c, 1, 67, 0
3, 8820, Note_on_c, 1, 71, 0
3, 8820, Note_on_c, 1, 72, 61
3, 8820, Note_on_c, 1, 69, 61
3, 8880, Note_on_c, 1, 69, 0
3, 8880, Note_on_c, 1, 72, 0
3, 8880, Note_on_c, 1, 74, 66
3, 8880, Note_on_c, 1, 71, 66
3, 8940, Note_on_c, 1, 71, 0
3, 8940, Note_on_c, 1, 74, 0
3, 8940, Note_on_c, 1, 67, 72
3, 9000, Note_on_c, 1, 67, 0
3, 9000, Note_on_c, 1, 69, 76
3, 9000, Note_on_c, 1, 67, 76
3, 9060, Note_on_c, 1, 67, 0
3, 9060, Note_on_c, 1, 69, 0
3, 9060, Note_on_c, 1, 71, 79
3, 9060, Note_on_c, 1, 67, 79
3, 9120, Note_on_c, 1, 67, 0
3, 9120, Note_on_c, 1, 71, 0
3, 9120, Note_on_c, 1, 72, 82
3, 9120, Note_on_c, 1, 67, 82
3, 9240, Note_on_c, 1, 67, 0
3, 9240, Note_on_c, 1, 72, 0
3, 9240, Note_on_c, 1, 71, 88
3, 9240, Note_on_c, 1, 67, 88
3, 9360, Note_on_c, 1, 67, 0
3, 9360, Note_on_c, 1, 71, 0
3, 9360, Note_on_c, 1, 69, 99
3, 9360, Note_on_c, 1, 66, 99
3, 9360, Note_on_c, 1, 62, 99
3, 9420, Note_on_c, 1, 62, 0
3, 9420, Note_on_c, 1, 66, 0
3, 9420, Note_on_c, 1, 69, 0
3, 9480, Note_on_c, 1, 71, 103
3, 9480, Note_on_c, 1, 67, 103
3, 9480, Note_on_c, 1, 62, 103
3, 9540, Note_on_c, 1, 62, 0
3, 9540, Note_on_c, 1, 67, 0
3, 9540, Note_on_c, 1, 71, 0
3, 9540, Note_on_c, 1, 79, 106
3, 9585, Note_on_c, 1, 79, 0
3, 9585, Note_on_c, 1, 74, 107
3, 9600, Note_on_c, 1, 74, 0
3, 9600, Note_on_c, 1, 71, 107
3, 9660, Note_on_c, 1, 71, 0
3, 9660, Note_on_c, 1, 74, 108
3, 9705, Note_on_c, 1, 74, 0
3, 9705, Note_on_c, 1, 67, 108
3, 9720, Note_on_c, 1, 67, 0
3, 9720, Note_on_c, 1, 69, 106
3, 9720, Note_on_c, 1, 67, 106
3, 9720, Note_on_c, 1, 64, 106
3, 9780, Note_on_c, 1, 64, 0
3, 9780, Note_on_c, 1, 67, 0
3, 9780, Note_on_c, 1, 69, 0
3, 9780, Note_on_c, 1, 71, 106
3, 9780, Note_on_c, 1, 67, 106
3, 9780, Note_on_c, 1, 62, 106
3, 9840, Note_on_c, 1, 62, 0
3, 9840, Note_on_c, 1, 67, 0
3, 9840, Note_on_c, 1, 71, 0
3, 9840, Note_on_c, 1, 72, 106
3, 9840, Note_on_c, 1, 67, 106
3, 9840, Note_on_c, 1, 60, 106
3, 9960, Note_on_c, 1, 60, 0
3, 9960, Note_on_c, 1, 67, 0
3, 9960, Note_on_c, 1, 72, 0
3, 9960, Note_on_c, 1, 71, 106
3, 9960, Note_on_c, 1, 67, 106
3, 9960, Note_on_c, 1, 62, 106
3, 10080, Note_on_c, 1, 62, 0
3, 10080, Note_on_c, 1, 67, 0
3, 10080, Note_on_c, 1, 71, 0
3, 10080, Note_on_c, 1, 69, 106
3, 10080, Note_on_c, 1, 66, 106
3, 10080, Note_on_c, 1, 62, 106
3, 10140, Note_on_c, 1, 62, 0
3, 10140, Note_on_c, 1, 66, 0
3, 10140, Note_on_c, 1, 69, 0
3, 10200, Note_on_c, 1, 67, 106
3, 10200, Note_on_c, 1, 59, 106
3, 10200, Note_on_c, 1, 62, 106
3, 10260, Note_on_c, 1, 62, 0
3, 10260, Note_on_c, 1, 59, 0
3, 10260, Note_on_c, 1, 67, 0
3, 10320, Note_on_c, 1, 79, 55
3, 10440, Note_on_c, 1, 79, 0
3, 10440, Note_on_c, 1, 81, 55
3, 10440, Note_on_c, 1, 79, 55
3, 10530, Note_on_c, 1, 79, 0
3, 10530, Note_on_c, 1, 81, 0
3, 10530, Note_on_c, 1, 86, 55
3, 10530, Note_on_c, 1, 78, 55
3, 10560, Note_on_c, 1, 78, 0
3, 10560, Note_on_c, 1, 86, 0
3, 10560, Note_on_c, 1, 79, 55
3, 10680, Note_on_c, 1, 79, 0
3, 10680, Note_on_c, 1, 88, 55
3, 10680, Note_on_c, 1, 84, 55
3, 10680, Note_on_c, 1, 79, 65
3, 10800, Note_on_c, 1, 79, 0
3, 10800, Note_on_c, 1, 84, 0
3, 10800, Note_on_c, 1, 88, 0
3, 10800, Note_on_c, 1, 86, 55
3, 10800, Note_on_c, 1, 84, 55
3, 10800, Note_on_c, 1, 81, 55
3, 10890, Note_on_c, 1, 81, 0
3, 10890, Note_on_c, 1, 84, 0
3, 10890, Note_on_c, 1, 86, 0
3, 10890, Note_on_c, 1, 91, 55
3, 10890, Note_on_c, 1, 83, 55
3, 10920, Note_on_c, 1, 83, 0
3, 10920, Note_on_c, 1, 91, 0
3, 10920, Note_on_c, 1, 84, 55
3, 11040, Note_on_c, 1, 84, 0
3, 11040, Note_on_c, 1, 88, 105
3, 11040, Note_on_c, 1, 84, 105
3, 11040, Note_on_c, 1, 79, 105
3, 11040, Note_on_c, 1, 76, 105
3, 11160, Note_on_c, 1, 76, 0
3, 11160, Note_on_c, 1, 88, 0
3, 11160, Note_on_c, 1, 84, 0
3, 11160, Note_on_c, 1, 79, 0
3, 11160, Note_on_c, 1, 83, 105
3, 11160, Note_on_c, 1, 79, 105
3, 11160, Note_on_c, 1, 71, 105
3, 11220, Note_on_c, 1, 71, 0
3, 11220, Note_on_c, 1, 79, 0
3, 11220, Note_on_c, 1, 83, 0
3, 11220, Note_on_c, 1, 83, 105
3, 11265, Note_on_c, 1, 83, 0
3, 11265, Note_on_c, 1, 86, 105
3, 11280, Note_on_c, 1, 86, 0
3, 11280, Note_on_c, 1, 79, 105
3, 11340, Note_on_c, 1, 79, 0
3, 11340, Note_on_c, 1, 79, 105
3, 11385, Note_on_c, 1, 79, 0
3, 11385, Note_on_c, 1, 83, 105
3, 11400, Note_on_c, 1, 83, 0
3, 11400, Note_on_c, 1, 74, 105
3, 11460, Note_on_c, 1, 74, 0
3, 11460, Note_on_c, 1, 74, 105
3, 11490, Note_on_c, 1, 74, 0
3, 11490, Note_on_c, 1, 76, 105
3, 11505, Note_on_c, 1, 76, 0
3, 11505, Note_on_c, 1, 78, 105
3, 11520, Note_on_c, 1, 78, 0
3, 11520, Note_on_c, 1, 67, 105
3, 11520, Note_on_c, 1, 79, 105
3, 11610, Note_on_c, 1, 79, 0
3, 11610, Note_on_c, 1, 67, 0
3, 11610, Note_on_c, 1, 55, 105
3, 11640, Note_on_c, 1, 55, 0
3, 11640, Note_on_c, 1, 55, 105
3, 11760, Note_on_c, 1, 55, 0
3, 11760, Note_on_c, 1, 62, 58
3, 11760, Note_on_c, 1, 71, 58
3, 11760, Note_on_c, 1, 67, 58
3, 11880, Note_on_c, 1, 67, 0
3, 11880, Note_on_c, 1, 71, 0
3, 11880, Note_on_c, 1, 62, 0
3, 11880, Note_on_c, 1, 71, 51
3, 11880, Note_on_c, 1, 67, 51
3, 11880, Note_on_c, 1, 62, 51
3, 12000, Note_on_c, 1, 62, 0
3, 12000, Note_on_c, 1, 67, 0
3, 12000, Note_on_c, 1, 71, 0
3, 12120, Note_on_c, 1, 69, 54
3, 12120, Note_on_c, 1, 66, 54
3, 12120, Note_on_c, 1, 60, 54
3, 12240, Note_on_c, 1, 60, 0
3, 12240, Note_on_c, 1, 66, 0
3, 12240, Note_on_c, 1, 69, 0
3, 12240, Note_on_c, 1, 67, 53
3, 12240, Note_on_c, 1, 59, 53
3, 12300, Note_on_c, 1, 59, 0
3, 12300, Note_on_c, 1, 67, 0
3, 12360, Note_on_c, 1, 59, 48
3, 12360, Note_on_c, 1, 71, 48
3, 12360, Note_on_c, 1, 67, 48
3, 12420, Note_on_c, 1, 67, 0
3, 12420, Note_on_c, 1, 71, 0
3, 12420, Note_on_c, 1, 59, 0
3, 12600, Note_on_c, 1, 64, 54
3, 12600, Note_on_c, 1, 72, 54
3, 12690, Note_on_c, 1, 72, 0
3, 12690, Note_on_c, 1, 64, 0
3, 12690, Note_on_c, 1, 71, 56
3, 12690, Note_on_c, 1, 62, 56
3, 12720, Note_on_c, 1, 62, 0
3, 12720, Note_on_c, 1, 71, 0
3, 12720, Note_on_c, 1, 69, 57
3, 12720, Note_on_c, 1, 64, 57
3, 12840, Note_on_c, 1, 64, 0
3, 12840, Note_on_c, 1, 69, 0
3, 12840, Note_on_c, 1, 57, 57
3, 12840, Note_on_c, 1, 67, 57
3, 12840, Note_on_c, 1, 64, 57
3, 12960, Note_on_c, 1, 64, 0
3, 12960, Note_on_c, 1, 67, 0
3, 12960, Note_on_c, 1, 57, 0
3, 12960, Note_on_c, 1, 66, 54
3, 12960, Note_on_c, 1, 62, 54
3, 12960, Note_on_c, 1, 57, 54
3, 13080, Note_on_c, 1, 57, 0
3, 13080, Note_on_c, 1, 62, 0
3, 13080, Note_on_c, 1, 66, 0
3, 13200, Note_on_c, 1, 79, 58
3, 13320, Note_on_c, 1, 79, 0
3, 13320, Note_on_c, 1, 78, 58
3, 13410, Note_on_c, 1, 78, 0
3, 13410, Note_on_c, 1, 81, 58
3, 13440, Note_on_c, 1, 81, 0
3, 13440, Note_on_c, 1, 74, 58
3, 13560, Note_on_c, 1, 74, 0
3, 13560, Note_on_c, 1, 62, 58
3, 13560, Note_on_c, 1, 66, 58
3, 13560, Note_on_c, 1, 69, 58
3, 13680, Note_on_c, 1, 69, 0
3, 13680, Note_on_c, 1, 66, 0
3, 13680, Note_on_c, 1, 62, 0
3, 13680, Note_on_c, 1, 57, 58
3, 13680, Note_on_c, 1, 62, 58
3, 13680, Note_on_c, 1, 66, 58
3, 13800, Note_on_c, 1, 66, 0
3, 13800, Note_on_c, 1, 62, 0
3, 13800, Note_on_c, 1, 57, 0
3, 13800, Note_on_c, 1, 62, 58
3, 13800, Note_on_c, 1, 66, 58
3, 13890, Note_on_c, 1, 66, 0
3, 13890, Note_on_c, 1, 62, 0
3, 13890, Note_on_c, 1, 67, 58
3, 13890, Note_on_c, 1, 64, 58
3, 13920, Note_on_c, 1, 64, 0
3, 13920, Note_on_c, 1, 67, 0
3, 13920, Note_on_c, 1, 69, 58
3, 13920, Note_on_c, 1, 66, 58
3, 13980, Note_on_c, 1, 66, 0
3, 13980, Note_on_c, 1, 69, 0
3, 14160, Note_on_c, 1, 71, 58
3, 14160, Note_on_c, 1, 67, 58
3, 14220, Note_on_c, 1, 67, 0
3, 14220, Note_on_c, 1, 71, 0
3, 14220, Note_on_c, 1, 72, 61
3, 14220, Note_on_c, 1, 69, 61
3, 14280, Note_on_c, 1, 69, 0
3, 14280, Note_on_c, 1, 72, 0
3, 14280, Note_on_c, 1, 74, 66
3, 14280, Note_on_c, 1, 71, 66
3, 14340, Note_on_c, 1, 71, 0
3, 14340, Note_on_c, 1, 74, 0
3, 14340, Note_on_c, 1, 67, 72
3, 14400, Note_on_c, 1, 67, 0
3, 14400, Note_on_c, 1, 69, 76
3, 14400, Note_on_c, 1, 67, 76
3, 14460, Note_on_c, 1, 67, 0
3, 14460, Note_on_c, 1, 69, 0
3, 14460, Note_on_c, 1, 71, 79
3, 14460, Note_on_c, 1, 67, 79
3, 14520, Note_on_c, 1, 67, 0
3, 14520, Note_on_c, 1, 71, 0
3, 14520, Note_on_c, 1, 72, 82
3, 14520, Note_on_c, 1, 67, 82
3, 14640, Note_on_c, 1, 67, 0
3, 14640, Note_on_c, 1, 72, 0
3, 14640, Note_on_c, 1, 71, 88
3, 14640, Note_on_c, 1, 67, 88
3, 14760, Note_on_c, 1, 67, 0
3, 14760, Note_on_c, 1, 71, 0
3, 14760, Note_on_c, 1, 69, 99
3, 14760, Note_on_c, 1, 66, 99
3, 14760, Note_on_c, 1, 62, 99
3, 14820, Note_on_c, 1, 62, 0
3, 14820, Note_on_c, 1, 66, 0
3, 14820, Note_on_c, 1, 69, 0
3, 14880, Note_on_c, 1, 71, 103
3, 14880, Note_on_c, 1, 67, 103
3, 14880, Note_on_c, 1, 62, 103
3, 14940, Note_on_c, 1, 62, 0
3, 14940, Note_on_c, 1, 67, 0
3, 14940, Note_on_c, 1, 71, 0
3, 14940, Note_on_c, 1, 79, 106
3, 14985, Note_on_c, 1, 79, 0
3, 14985, Note_on_c, 1, 74, 107
3, 15000, Note_on_c, 1, 74, 0
3, 15000, Note_on_c, 1, 71, 107
3, 15060, Note_on_c, 1, 71, 0
3, 15060, Note_on_c, 1, 74, 108
3, 15105, Note_on_c, 1, 74, 0
3, 15105, Note_on_c, 1, 67, 108
3, 15120, Note_on_c, 1, 67, 0
3, 15120, Note_on_c, 1, 69, 106
3, 15120, Note_on_c, 1, 67, 106
3, 15120, Note_on_c, 1, 64, 106
3, 15180, Note_on_c, 1, 64, 0
3, 15180, Note_on_c, 1, 67, 0
3, 15180, Note_on_c, 1, 69, 0
3, 15180, Note_on_c, 1, 71, 106
3, 15180, Note_on_c, 1, 67, 106
3, 15180, Note_on_c, 1, 62, 106
3, 15240, Note_on_c, 1, 62, 0
3, 15240, Note_on_c, 1, 67, 0
3, 15240, Note_on_c, 1, 71, 0
3, 15240, Note_on_c, 1, 72, 106
3, 15240, Note_on_c, 1, 67, 106
3, 15240, Note_on_c, 1, 60, 106
3, 15360, Note_on_c, 1, 60, 0
3, 15360, Note_on_c, 1, 67, 0
3, 15360, Note_on_c, 1, 72, 0
3, 15360, Note_on_c, 1, 71, 106
3, 15360, Note_on_c, 1, 67, 106
3, 15360, Note_on_c, 1, 62, 106
3, 15480, Note_on_c, 1, 62, 0
3, 15480, Note_on_c, 1, 67, 0
3, 15480, Note_on_c, 1, 71, 0
3, 15480, Note_on_c, 1, 69, 106
3, 15480, Note_on_c, 1, 66, 106
3, 15480, Note_on_c, 1, 62, 106
3, 15540, Note_on_c, 1, 62, 0
3, 15540, Note_on_c, 1, 66, 0
3, 15540, Note_on_c, 1, 69, 0
3, 15600, Note_on_c, 1, 67, 106
3, 15600, Note_on_c, 1, 59, 106
3, 15600, Note_on_c, 1, 62, 106
3, 15660, Note_on_c, 1, 62, 0
3, 15660, Note_on_c, 1, 59, 0
3, 15660, Note_on_c, 1, 67, 0
3, 15720, Note_on_c, 1, 79, 55
3, 15840, Note_on_c, 1, 79, 0
3, 15840, Note_on_c, 1, 81, 55
3, 15840, Note_on_c, 1, 79, 55
3, 15930, Note_on_c, 1, 79, 0
3, 15930, Note_on_c, 1, 81, 0
3, 15930, Note_on_c, 1, 86, 55
3, 15930, Note_on_c, 1, 78, 55
3, 15960, Note_on_c, 1, 78, 0
3, 15960, Note_on_c, 1, 86, 0
3, 15960, Note_on_c, 1, 79, 55
3, 16080, Note_on_c, 1, 79, 0
3, 16080, Note_on_c, 1, 88, 55
3, 16080, Note_on_c, 1, 84, 55
3, 16080, Note_on_c, 1, 79, 65
3, 16200, Note_on_c, 1, 79, 0
3, 16200, Note_on_c, 1, 84, 0
3, 16200, Note_on_c, 1, 88, 0
3, 16200, Note_on_c, 1, 86, 55
3, 16200, Note_on_c, 1, 84, 55
3, 16200, Note_on_c, 1, 81, 55
3, 16290, Note_on_c, 1, 81, 0
3, 16290, Note_on_c, 1, 84, 0
3, 16290, Note_on_c, 1, 86, 0
3, 16290, Note_on_c, 1, 91, 55
3, 16290, Note_on_c, 1, 83, 55
3, 16320, Note_on_c, 1, 83, 0
3, 16320, Note_on_c, 1, 91, 0
3, 16320, Note_on_c, 1, 84, 55
3, 16440, Note_on_c, 1, 84, 0
3, 16440, Note_on_c, 1, 88, 105
3, 16440, Note_on_c, 1, 84, 105
3, 16440, Note_on_c, 1, 79, 105
3, 16440, Note_on_c, 1, 76, 105
3, 16560, Note_on_c, 1, 76, 0
3, 16560, Note_on_c, 1, 88, 0
3, 16560, Note_on_c, 1, 84, 0
3, 16560, Note_on_c, 1, 79, 0
3, 16560, Note_on_c, 1, 83, 105
3, 16560, Note_on_c, 1, 79, 105
3, 16560, Note_on_c, 1, 71, 105
3, 16620, Note_on_c, 1, 71, 0
3, 16620, Note_on_c, 1, 79, 0
3, 16620, Note_on_c, 1, 83, 0
3, 16620, Note_on_c, 1, 83, 105
3, 16665, Note_on_c, 1, 83, 0
3, 16665, Note_on_c, 1, 86, 105
3, 16680, Note_on_c, 1, 86, 0
3, 16680, Note_on_c, 1, 79, 105
3, 16740, Note_on_c, 1, 79, 0
3, 16740, Note_on_c, 1, 79, 105
3, 16785, Note_on_c, 1, 79, 0
3, 16785, Note_on_c, 1, 83, 105
3, 16800, Note_on_c, 1, 83, 0
3, 16800, Note_on_c, 1, 74, 105
3, 16860, Note_on_c, 1, 74, 0
3, 16860, Note_on_c, 1, 74, 105
3, 16890, Note_on_c, 1, 74, 0
3, 16890, Note_on_c, 1, 76, 105
3, 16905, Note_on_c, 1, 76, 0
3, 16905, Note_on_c, 1, 78, 105
3, 16920, Note_on_c, 1, 78, 0
3, 16920, Note_on_c, 1, 67, 105
3, 16920, Note_on_c, 1, 79, 105
3, 17010, Note_on_c, 1, 79, 0
3, 17010, Note_on_c, 1, 67, 0
3, 17010, Note_on_c, 1, 55, 105
3, 17040, Note_on_c, 1, 55, 0
3, 17040, Note_on_c, 1, 55, 105
3, 17160, Note_on_c, 1, 55, 0
3, 17160, End_track
4, 0, Start_track
4, 0, MIDI_port, 0
4, 0, Title_t, "Piano Left"
4, 0, Program_c, 2, 0
4, 0, Control_c, 2, 7, 104
4, 0, Control_c, 2, 10, 94
4, 0, Control_c, 2, 93, 12
4, 0, Control_c, 2, 91, 14
4, 240, Note_on_c, 2, 59, 54
4, 240, Note_on_c, 2, 55, 54
4, 360, Note_on_c, 2, 55, 0
4, 360, Note_on_c, 2, 59, 0
4, 360, Note_on_c, 2, 59, 59
4, 360, Note_on_c, 2, 55, 59
4, 540, Note_on_c, 2, 55, 0
4, 540, Note_on_c, 2, 59, 0
4, 540, Note_on_c, 2, 59, 58
4, 540, Note_on_c, 2, 55, 58
4, 600, Note_on_c, 2, 55, 0
4, 600, Note_on_c, 2, 59, 0
4, 600, Note_on_c, 2, 50, 57
4, 600, Note_on_c, 2, 57, 57
4, 690, Note_on_c, 2, 57, 0
4, 690, Note_on_c, 2, 50, 0
4, 690, Note_on_c, 2, 50, 55
4, 690, Note_on_c, 2, 59, 55
4, 720, Note_on_c, 2, 59, 0
4, 720, Note_on_c, 2, 50, 0
4, 720, Note_on_c, 2, 59, 54
4, 720, Note_on_c, 2, 55, 54
4, 810, Note_on_c, 2, 55, 0
4, 810, Note_on_c, 2, 59, 0
4, 810, Note_on_c, 2, 50, 52
4, 810, Note_on_c, 2, 57, 52
4, 840, Note_on_c, 2, 57, 0
4, 840, Note_on_c, 2, 50, 0
4, 840, Note_on_c, 2, 43, 51
4, 840, Note_on_c, 2, 55, 51
4, 960, Note_on_c, 2, 55, 0
4, 960, Note_on_c, 2, 43, 0
4, 1080, Note_on_c, 2, 43, 55
4, 1080, Note_on_c, 2, 55, 55
4, 1200, Note_on_c, 2, 55, 0
4, 1200, Note_on_c, 2, 43, 0
4, 1320, Note_on_c, 2, 38, 56
4, 1320, Note_on_c, 2, 50, 56
4, 1440, Note_on_c, 2, 50, 0
4, 1440, Note_on_c, 2, 38, 0
4, 1440, Note_on_c, 2, 40, 56
4, 1440, Note_on_c, 2, 52, 56
4, 1500, Note_on_c, 2, 52, 0
4, 1500, Note_on_c, 2, 40, 0
4, 1560, Note_on_c, 2, 40, 58
4, 1560, Note_on_c, 2, 52, 58
4, 1620, Note_on_c, 2, 52, 0
4, 1620, Note_on_c, 2, 40, 0
4, 1800, Note_on_c, 2, 33, 51
4, 1800, Note_on_c, 2, 45, 51
4, 1890, Note_on_c, 2, 45, 0
4, 1890, Note_on_c, 2, 33, 0
4, 1890, Note_on_c, 2, 35, 54
4, 1890, Note_on_c, 2, 47, 54
4, 1920, Note_on_c, 2, 47, 0
4, 1920, Note_on_c, 2, 35, 0
4, 1920, Note_on_c, 2, 36, 56
4, 1920, Note_on_c, 2, 48, 56
4, 2040, Note_on_c, 2, 48, 0
4, 2040, Note_on_c, 2, 36, 0
4, 2040, Note_on_c, 2, 49, 60
4, 2040, Note_on_c, 2, 37, 60
4, 2160, Note_on_c, 2, 37, 0
4, 2160, Note_on_c, 2, 49, 0
4, 2160, Note_on_c, 2, 50, 63
4, 2160, Note_on_c, 2, 38, 63
4, 2280, Note_on_c, 2, 38, 0
4, 2280, Note_on_c, 2, 50, 0
4, 2400, Note_on_c, 2, 55, 54
4, 2520, Note_on_c, 2, 55, 0
4, 2520, Note_on_c, 2, 54, 57
4, 2610, Note_on_c, 2, 54, 0
4, 2610, Note_on_c, 2, 57, 58
4, 2640, Note_on_c, 2, 57, 0
4, 2640, Note_on_c, 2, 50, 59
4, 2760, Note_on_c, 2, 50, 0
4, 2760, Note_on_c, 2, 50, 60
4, 2760, Note_on_c, 2, 38, 60
4, 2880, Note_on_c, 2, 38, 0
4, 2880, Note_on_c, 2, 50, 0
4, 2880, Note_on_c, 2, 38, 58
4, 2880, Note_on_c, 2, 50, 58
4, 3000, Note_on_c, 2, 50, 0
4, 3000, Note_on_c, 2, 38, 0
4, 3000, Note_on_c, 2, 50, 58
4, 3000, Note_on_c, 2, 54, 58
4, 3090, Note_on_c, 2, 54, 0
4, 3090, Note_on_c, 2, 50, 0
4, 3090, Note_on_c, 2, 52, 58
4, 3090, Note_on_c, 2, 55, 58
4, 3120, Note_on_c, 2, 55, 0
4, 3120, Note_on_c, 2, 52, 0
4, 3120, Note_on_c, 2, 54, 58
4, 3120, Note_on_c, 2, 57, 58
4, 3180, Note_on_c, 2, 57, 0
4, 3180, Note_on_c, 2, 54, 0
4, 3360, Note_on_c, 2, 59, 60
4, 3360, Note_on_c, 2, 55, 60
4, 3420, Note_on_c, 2, 55, 0
4, 3420, Note_on_c, 2, 59, 0
4, 3420, Note_on_c, 2, 60, 64
4, 3420, Note_on_c, 2, 57, 64
4, 3480, Note_on_c, 2, 57, 0
4, 3480, Note_on_c, 2, 60, 0
4, 3480, Note_on_c, 2, 62, 68
4, 3480, Note_on_c, 2, 59, 68
4, 3540, Note_on_c, 2, 59, 0
4, 3540, Note_on_c, 2, 62, 0
4, 3540, Note_on_c, 2, 59, 73
4, 3600, Note_on_c, 2, 59, 0
4, 3600, Note_on_c, 2, 60, 77
4, 3660, Note_on_c, 2, 60, 0
4, 3660, Note_on_c, 2, 62, 81
4, 3720, Note_on_c, 2, 62, 0
4, 3720, Note_on_c, 2, 64, 85
4, 3840, Note_on_c, 2, 64, 0
4, 3840, Note_on_c, 2, 62, 91
4, 3960, Note_on_c, 2, 62, 0
4, 3960, Note_on_c, 2, 50, 97
4, 3960, Note_on_c, 2, 54, 97
4, 3960, Note_on_c, 2, 57, 97
4, 4020, Note_on_c, 2, 57, 0
4, 4020, Note_on_c, 2, 54, 0
4, 4020, Note_on_c, 2, 50, 0
4, 4080, Note_on_c, 2, 59, 104
4, 4080, Note_on_c, 2, 55, 104
4, 4140, Note_on_c, 2, 55, 0
4, 4140, Note_on_c, 2, 59, 0
4, 4140, Note_on_c, 2, 67, 106
4, 4185, Note_on_c, 2, 67, 0
4, 4185, Note_on_c, 2, 62, 106
4, 4200, Note_on_c, 2, 62, 0
4, 4200, Note_on_c, 2, 59, 106
4, 4260, Note_on_c, 2, 59, 0
4, 4260, Note_on_c, 2, 35, 108
4, 4260, Note_on_c, 2, 47, 108
4, 4320, Note_on_c, 2, 47, 0
4, 4320, Note_on_c, 2, 35, 0
4, 4320, Note_on_c, 2, 36, 106
4, 4320, Note_on_c, 2, 48, 106
4, 4380, Note_on_c, 2, 48, 0
4, 4380, Note_on_c, 2, 36, 0
4, 4380, Note_on_c, 2, 50, 106
4, 4380, Note_on_c, 2, 38, 106
4, 4440, Note_on_c, 2, 38, 0
4, 4440, Note_on_c, 2, 50, 0
4, 4440, Note_on_c, 2, 40, 106
4, 4440, Note_on_c, 2, 52, 106
4, 4560, Note_on_c, 2, 52, 0
4, 4560, Note_on_c, 2, 40, 0
4, 4560, Note_on_c, 2, 50, 106
4, 4560, Note_on_c, 2, 38, 106
4, 4680, Note_on_c, 2, 38, 0
4, 4680, Note_on_c, 2, 50, 0
4, 4680, Note_on_c, 2, 38, 106
4, 4680, Note_on_c, 2, 50, 106
4, 4740, Note_on_c, 2, 50, 0
4, 4740, Note_on_c, 2, 38, 0
4, 4800, Note_on_c, 2, 55, 106
4, 4800, Note_on_c, 2, 43, 106
4, 4860, Note_on_c, 2, 43, 0
4, 4860, Note_on_c, 2, 55, 0
4, 4920, Note_on_c, 2, 55, 55
4, 4980, Note_on_c, 2, 55, 0
4, 4980, Note_on_c, 2, 57, 55
4, 5010, Note_on_c, 2, 57, 0
4, 5010, Note_on_c, 2, 59, 55
4, 5040, Note_on_c, 2, 59, 0
4, 5040, Note_on_c, 2, 60, 55
4, 5130, Note_on_c, 2, 60, 0
4, 5130, Note_on_c, 2, 62, 55
4, 5160, Note_on_c, 2, 62, 0
4, 5160, Note_on_c, 2, 64, 55
4, 5280, Note_on_c, 2, 64, 0
4, 5280, Note_on_c, 2, 60, 61
4, 5340, Note_on_c, 2, 60, 0
4, 5340, Note_on_c, 2, 62, 69
4, 5370, Note_on_c, 2, 62, 0
4, 5370, Note_on_c, 2, 64, 74
4, 5400, Note_on_c, 2, 64, 0
4, 5400, Note_on_c, 2, 65, 78
4, 5490, Note_on_c, 2, 65, 0
4, 5490, Note_on_c, 2, 67, 87
4, 5520, Note_on_c, 2, 67, 0
4, 5520, Note_on_c, 2, 64, 89
4, 5640, Note_on_c, 2, 64, 0
4, 5640, Note_on_c, 2, 48, 98
4, 5640, Note_on_c, 2, 55, 98
4, 5640, Note_on_c, 2, 60, 98
4, 5760, Note_on_c, 2, 60, 0
4, 5760, Note_on_c, 2, 55, 0
4, 5760, Note_on_c, 2, 48, 0
4, 5760, Note_on_c, 2, 50, 99
4, 5760, Note_on_c, 2, 55, 99
4, 5760, Note_on_c, 2, 59, 99
4, 5820, Note_on_c, 2, 59, 0
4, 5820, Note_on_c, 2, 55, 0
4, 5820, Note_on_c, 2, 50, 0
4, 5820, Note_on_c, 2, 59, 100
4, 5865, Note_on_c, 2, 59, 0
4, 5865, Note_on_c, 2, 62, 100
4, 5880, Note_on_c, 2, 62, 0
4, 5880, Note_on_c, 2, 55, 100
4, 5940, Note_on_c, 2, 55, 0
4, 5940, Note_on_c, 2, 55, 100
4, 5985, Note_on_c, 2, 55, 0
4, 5985, Note_on_c, 2, 59, 100
4, 6000, Note_on_c, 2, 59, 0
4, 6000, Note_on_c, 2, 50, 100
4, 6060, Note_on_c, 2, 50, 0
4, 6060, Note_on_c, 2, 38, 100
4, 6090, Note_on_c, 2, 38, 0
4, 6090, Note_on_c, 2, 40, 100
4, 6105, Note_on_c, 2, 40, 0
4, 6105, Note_on_c, 2, 42, 101
4, 6120, Note_on_c, 2, 42, 0
4, 6120, Note_on_c, 2, 31, 101
4, 6120, Note_on_c, 2, 43, 101
4, 6210, Note_on_c, 2, 43, 0
4, 6210, Note_on_c, 2, 31, 0
4, 6210, Note_on_c, 2, 43, 111
4, 6210, Note_on_c, 2, 31, 111
4, 6240, Note_on_c, 2, 31, 0
4, 6240, Note_on_c, 2, 43, 0
4, 6240, Note_on_c, 2, 31, 111
4, 6240, Note_on_c, 2, 43, 111
4, 6360, Note_on_c, 2, 43, 0
4, 6360, Note_on_c, 2, 31, 0
4, 6360, Note_on_c, 2, 43, 58
4, 6360, Note_on_c, 2, 55, 58
4, 6480, Note_on_c, 2, 55, 0
4, 6480, Note_on_c, 2, 43, 0
4, 6480, Note_on_c, 2, 43, 55
4, 6480, Note_on_c, 2, 55, 55
4, 6600, Note_on_c, 2, 55, 0
4, 6600, Note_on_c, 2, 43, 0
4, 6720, Note_on_c, 2, 38, 56
4, 6720, Note_on_c, 2, 50, 56
4, 6840, Note_on_c, 2, 50, 0
4, 6840, Note_on_c, 2, 38, 0
4, 6840, Note_on_c, 2, 40, 56
4, 6840, Note_on_c, 2, 52, 56
4, 6900, Note_on_c, 2, 52, 0
4, 6900, Note_on_c, 2, 40, 0
4, 6960, Note_on_c, 2, 40, 58
4, 6960, Note_on_c, 2, 52, 58
4, 7020, Note_on_c, 2, 52, 0
4, 7020, Note_on_c, 2, 40, 0
4, 7200, Note_on_c, 2, 33, 51
4, 7200, Note_on_c, 2, 45, 51
4, 7290, Note_on_c, 2, 45, 0
4, 7290, Note_on_c, 2, 33, 0
4, 7290, Note_on_c, 2, 35, 54
4, 7290, Note_on_c, 2, 47, 54
4, 7320, Note_on_c, 2, 47, 0
4, 7320, Note_on_c, 2, 35, 0
4, 7320, Note_on_c, 2, 36, 56
4, 7320, Note_on_c, 2, 48, 56
4, 7440, Note_on_c, 2, 48, 0
4, 7440, Note_on_c, 2, 36, 0
4, 7440, Note_on_c, 2, 49, 60
4, 7440, Note_on_c, 2, 37, 60
4, 7560, Note_on_c, 2, 37, 0
4, 7560, Note_on_c, 2, 49, 0
4, 7560, Note_on_c, 2, 50, 63
4, 7560, Note_on_c, 2, 38, 63
4, 7680, Note_on_c, 2, 38, 0
4, 7680, Note_on_c, 2, 50, 0
4, 7800, Note_on_c, 2, 55, 54
4, 7920, Note_on_c, 2, 55, 0
4, 7920, Note_on_c, 2, 54, 57
4, 8010, Note_on_c, 2, 54, 0
4, 8010, Note_on_c, 2, 57, 58
4, 8040, Note_on_c, 2, 57, 0
4, 8040, Note_on_c, 2, 50, 59
4, 8160, Note_on_c, 2, 50, 0
4, 8160, Note_on_c, 2, 50, 60
4, 8160, Note_on_c, 2, 38, 60
4, 8280, Note_on_c, 2, 38, 0
4, 8280, Note_on_c, 2, 50, 0
4, 8280, Note_on_c, 2, 38, 58
4, 8280, Note_on_c, 2, 50, 58
4, 8400, Note_on_c, 2, 50, 0
4, 8400, Note_on_c, 2, 38, 0
4, 8400, Note_on_c, 2, 50, 58
4, 8400, Note_on_c, 2, 54, 58
4, 8490, Note_on_c, 2, 54, 0
4, 8490, Note_on_c, 2, 50, 0
4, 8490, Note_on_c, 2, 52, 58
4, 8490, Note_on_c, 2, 55, 58
4, 8520, Note_on_c, 2, 55, 0
4, 8520, Note_on_c, 2, 52, 0
4, 8520, Note_on_c, 2, 54, 58
4, 8520, Note_on_c, 2, 57, 58
4, 8580, Note_on_c, 2, 57, 0
4, 8580, Note_on_c, 2, 54, 0
4, 8760, Note_on_c, 2, 59, 60
4, 8760, Note_on_c, 2, 55, 60
4, 8820, Note_on_c, 2, 55, 0
4, 8820, Note_on_c, 2, 59, 0
4, 8820, Note_on_c, 2, 60, 64
4, 8820, Note_on_c, 2, 57, 64
4, 8880, Note_on_c, 2, 57, 0
4, 8880, Note_on_c, 2, 60, 0
4, 8880, Note_on_c, 2, 62, 68
4, 8880, Note_on_c, 2, 59, 68
4, 8940, Note_on_c, 2, 59, 0
4, 8940, Note_on_c, 2, 62, 0
4, 8940, Note_on_c, 2, 59, 73
4, 9000, Note_on_c, 2, 59, 0
4, 9000, Note_on_c, 2, 60, 77
4, 9060, Note_on_c, 2, 60, 0
4, 9060, Note_on_c, 2, 62, 81
4, 9120, Note_on_c, 2, 62, 0
4, 9120, Note_on_c, 2, 64, 85
4, 9240, Note_on_c, 2, 64, 0
4, 9240, Note_on_c, 2, 62, 91
4, 9360, Note_on_c, 2, 62, 0
4, 9360, Note_on_c, 2, 50, 97
4, 9360, Note_on_c, 2, 54, 97
4, 9360, Note_on_c, 2, 57, 97
4, 9420, Note_on_c, 2, 57, 0
4, 9420, Note_on_c, 2, 54, 0
4, 9420, Note_on_c, 2, 50, 0
4, 9480, Note_on_c, 2, 59, 104
4, 9480, Note_on_c, 2, 55, 104
4, 9540, Note_on_c, 2, 55, 0
4, 9540, Note_on_c, 2, 59, 0
4, 9540, Note_on_c, 2, 67, 106
4, 9585, Note_on_c, 2, 67, 0
4, 9585, Note_on_c, 2, 62, 106
4, 9600, Note_on_c, 2, 62, 0
4, 9600, Note_on_c, 2, 59, 106
4, 9660, Note_on_c, 2, 59, 0
4, 9660, Note_on_c, 2, 35, 108
4, 9660, Note_on_c, 2, 47, 108
4, 9720, Note_on_c, 2, 47, 0
4, 9720, Note_on_c, 2, 35, 0
4, 9720, Note_on_c, 2, 36, 106
4, 9720, Note_on_c, 2, 48, 106
4, 9780, Note_on_c, 2, 48, 0
4, 9780, Note_on_c, 2, 36, 0
4, 9780, Note_on_c, 2, 50, 106
4, 9780, Note_on_c, 2, 38, 106
4, 9840, Note_on_c, 2, 38, 0
4, 9840, Note_on_c, 2, 50, 0
4, 9840, Note_on_c, 2, 40, 106
4, 9840, Note_on_c, 2, 52, 106
4, 9960, Note_on_c, 2, 52, 0
4, 9960, Note_on_c, 2, 40, 0
4, 9960, Note_on_c, 2, 50, 106
4, 9960, Note_on_c, 2, 38, 106
4, 10080, Note_on_c, 2, 38, 0
4, 10080, Note_on_c, 2, 50, 0
4, 10080, Note_on_c, 2, 38, 106
4, 10080, Note_on_c, 2, 50, 106
4, 10140, Note_on_c, 2, 50, 0
4, 10140, Note_on_c, 2, 38, 0
4, 10200, Note_on_c, 2, 55, 106
4, 10200, Note_on_c, 2, 43, 106
4, 10260, Note_on_c, 2, 43, 0
4, 10260, Note_on_c, 2, 55, 0
4, 10320, Note_on_c, 2, 55, 55
4, 10380, Note_on_c, 2, 55, 0
4, 10380, Note_on_c, 2, 57, 55
4, 10410, Note_on_c, 2, 57, 0
4, 10410, Note_on_c, 2, 59, 55
4, 10440, Note_on_c, 2, 59, 0
4, 10440, Note_on_c, 2, 60, 55
4, 10530, Note_on_c, 2, 60, 0
4, 10530, Note_on_c, 2, 62, 55
4, 10560, Note_on_c, 2, 62, 0
4, 10560, Note_on_c, 2, 64, 55
4, 10680, Note_on_c, 2, 64, 0
4, 10680, Note_on_c, 2, 60, 61
4, 10740, Note_on_c, 2, 60, 0
4, 10740, Note_on_c, 2, 62, 69
4, 10770, Note_on_c, 2, 62, 0
4, 10770, Note_on_c, 2, 64, 74
4, 10800, Note_on_c, 2, 64, 0
4, 10800, Note_on_c, 2, 65, 78
4, 10890, Note_on_c, 2, 65, 0
4, 10890, Note_on_c, 2, 67, 87
4, 10920, Note_on_c, 2, 67, 0
4, 10920, Note_on_c, 2, 64, 89
4, 11040, Note_on_c, 2, 64, 0
4, 11040, Note_on_c, 2, 48, 98
4, 11040, Note_on_c, 2, 55, 98
4, 11040, Note_on_c, 2, 60, 98
4, 11160, Note_on_c, 2, 60, 0
4, 11160, Note_on_c, 2, 55, 0
4, 11160, Note_on_c, 2, 48, 0
4, 11160, Note_on_c, 2, 50, 99
4, 11160, Note_on_c, 2, 55, 99
4, 11160, Note_on_c, 2, 59, 99
4, 11220, Note_on_c, 2, 59, 0
4, 11220, Note_on_c, 2, 55, 0
4, 11220, Note_on_c, 2, 50, 0
4, 11220, Note_on_c, 2, 59, 100
4, 11265, Note_on_c, 2, 59, 0
4, 11265, Note_on_c, 2, 62, 100
4, 11280, Note_on_c, 2, 62, 0
4, 11280, Note_on_c, 2, 55, 100
4, 11340, Note_on_c, 2, 55, 0
4, 11340, Note_on_c, 2, 55, 100
4, 11385, Note_on_c, 2, 55, 0
4, 11385, Note_on_c, 2, 59, 100
4, 11400, Note_on_c, 2, 59, 0
4, 11400, Note_on_c, 2, 50, 100
4, 11460, Note_on_c, 2, 50, 0
4, 11460, Note_on_c, 2, 38, 100
4, 11490, Note_on_c, 2, 38, 0
4, 11490, Note_on_c, 2, 40, 100
4, 11505, Note_on_c, 2, 40, 0
4, 11505, Note_on_c, 2, 42, 101
4, 11520, Note_on_c, 2, 42, 0
4, 11520, Note_on_c, 2, 31, 101
4, 11520, Note_on_c, 2, 43, 101
4, 11610, Note_on_c, 2, 43, 0
4, 11610, Note_on_c, 2, 31, 0
4, 11610, Note_on_c, 2, 43, 111
4, 11610, Note_on_c, 2, 31, 111
4, 11640, Note_on_c, 2, 31, 0
4, 11640, Note_on_c, 2, 43, 0
4, 11640, Note_on_c, 2, 31, 111
4, 11640, Note_on_c, 2, 43, 111
4, 11760, Note_on_c, 2, 43, 0
4, 11760, Note_on_c, 2, 31, 0
4, 11760, Note_on_c, 2, 43, 58
4, 11760, Note_on_c, 2, 55, 58
4, 11880, Note_on_c, 2, 55, 0
4, 11880, Note_on_c, 2, 43, 0
4, 11880, Note_on_c, 2, 43, 55
4, 11880, Note_on_c, 2, 55, 55
4, 12000, Note_on_c, 2, 55, 0
4, 12000, Note_on_c, 2, 43, 0
4, 12120, Note_on_c, 2, 38, 56
4, 12120, Note_on_c, 2, 50, 56
4, 12240, Note_on_c, 2, 50, 0
4, 12240, Note_on_c, 2, 38, 0
4, 12240, Note_on_c, 2, 40, 56
4, 12240, Note_on_c, 2, 52, 56
4, 12300, Note_on_c, 2, 52, 0
4, 12300, Note_on_c, 2, 40, 0
4, 12360, Note_on_c, 2, 40, 58
4, 12360, Note_on_c, 2, 52, 58
4, 12420, Note_on_c, 2, 52, 0
4, 12420, Note_on_c, 2, 40, 0
4, 12600, Note_on_c, 2, 33, 51
4, 12600, Note_on_c, 2, 45, 51
4, 12690, Note_on_c, 2, 45, 0
4, 12690, Note_on_c, 2, 33, 0
4, 12690, Note_on_c, 2, 35, 54
4, 12690, Note_on_c, 2, 47, 54
4, 12720, Note_on_c, 2, 47, 0
4, 12720, Note_on_c, 2, 35, 0
4, 12720, Note_on_c, 2, 36, 56
4, 12720, Note_on_c, 2, 48, 56
4, 12840, Note_on_c, 2, 48, 0
4, 12840, Note_on_c, 2, 36, 0
4, 12840, Note_on_c, 2, 49, 60
4, 12840, Note_on_c, 2, 37, 60
4, 12960, Note_on_c, 2, 37, 0
4, 12960, Note_on_c, 2, 49, 0
4, 12960, Note_on_c, 2, 50, 63
4, 12960, Note_on_c, 2, 38, 63
4, 13080, Note_on_c, 2, 38, 0
4, 13080, Note_on_c, 2, 50, 0
4, 13200, Note_on_c, 2, 55, 54
4, 13320, Note_on_c, 2, 55, 0
4, 13320, Note_on_c, 2, 54, 57
4, 13410, Note_on_c, 2, 54, 0
4, 13410, Note_on_c, 2, 57, 58
4, 13440, Note_on_c, 2, 57, 0
4, 13440, Note_on_c, 2, 50, 59
4, 13560, Note_on_c, 2, 50, 0
4, 13560, Note_on_c, 2, 50, 60
4, 13560, Note_on_c, 2, 38, 60
4, 13680, Note_on_c, 2, 38, 0
4, 13680, Note_on_c, 2, 50, 0
4, 13680, Note_on_c, 2, 38, 58
4, 13680, Note_on_c, 2, 50, 58
4, 13800, Note_on_c, 2, 50, 0
4, 13800, Note_on_c, 2, 38, 0
4, 13800, Note_on_c, 2, 50, 58
4, 13800, Note_on_c, 2, 54, 58
4, 13890, Note_on_c, 2, 54, 0
4, 13890, Note_on_c, 2, 50, 0
4, 13890, Note_on_c, 2, 52, 58
4, 13890, Note_on_c, 2, 55, 58
4, 13920, Note_on_c, 2, 55, 0
4, 13920, Note_on_c, 2, 52, 0
4, 13920, Note_on_c, 2, 54, 58
4, 13920, Note_on_c, 2, 57, 58
4, 13980, Note_on_c, 2, 57, 0
4, 13980, Note_on_c, 2, 54, 0
4, 14160, Note_on_c, 2, 59, 60
4, 14160, Note_on_c, 2, 55, 60
4, 14220, Note_on_c, 2, 55, 0
4, 14220, Note_on_c, 2, 59, 0
4, 14220, Note_on_c, 2, 60, 64
4, 14220, Note_on_c, 2, 57, 64
4, 14280, Note_on_c, 2, 57, 0
4, 14280, Note_on_c, 2, 60, 0
4, 14280, Note_on_c, 2, 62, 68
4, 14280, Note_on_c, 2, 59, 68
4, 14340, Note_on_c, 2, 59, 0
4, 14340, Note_on_c, 2, 62, 0
4, 14340, Note_on_c, 2, 59, 73
4, 14400, Note_on_c, 2, 59, 0
4, 14400, Note_on_c, 2, 60, 77
4, 14460, Note_on_c, 2, 60, 0
4, 14460, Note_on_c, 2, 62, 81
4, 14520, Note_on_c, 2, 62, 0
4, 14520, Note_on_c, 2, 64, 85
4, 14640, Note_on_c, 2, 64, 0
4, 14640, Note_on_c, 2, 62, 91
4, 14760, Note_on_c, 2, 62, 0
4, 14760, Note_on_c, 2, 50, 97
4, 14760, Note_on_c, 2, 54, 97
4, 14760, Note_on_c, 2, 57, 97
4, 14820, Note_on_c, 2, 57, 0
4, 14820, Note_on_c, 2, 54, 0
4, 14820, Note_on_c, 2, 50, 0
4, 14880, Note_on_c, 2, 59, 104
4, 14880, Note_on_c, 2, 55, 104
4, 14940, Note_on_c, 2, 55, 0
4, 14940, Note_on_c, 2, 59, 0
4, 14940, Note_on_c, 2, 67, 106
4, 14985, Note_on_c, 2, 67, 0
4, 14985, Note_on_c, 2, 62, 106
4, 15000, Note_on_c, 2, 62, 0
4, 15000, Note_on_c, 2, 59, 106
4, 15060, Note_on_c, 2, 59, 0
4, 15060, Note_on_c, 2, 35, 108
4, 15060, Note_on_c, 2, 47, 108
4, 15120, Note_on_c, 2, 47, 0
4, 15120, Note_on_c, 2, 35, 0
4, 15120, Note_on_c, 2, 36, 106
4, 15120, Note_on_c, 2, 48, 106
4, 15180, Note_on_c, 2, 48, 0
4, 15180, Note_on_c, 2, 36, 0
4, 15180, Note_on_c, 2, 50, 106
4, 15180, Note_on_c, 2, 38, 106
4, 15240, Note_on_c, 2, 38, 0
4, 15240, Note_on_c, 2, 50, 0
4, 15240, Note_on_c, 2, 40, 106
4, 15240, Note_on_c, 2, 52, 106
4, 15360, Note_on_c, 2, 52, 0
4, 15360, Note_on_c, 2, 40, 0
4, 15360, Note_on_c, 2, 50, 106
4, 15360, Note_on_c, 2, 38, 106
4, 15480, Note_on_c, 2, 38, 0
4, 15480, Note_on_c, 2, 50, 0
4, 15480, Note_on_c, 2, 38, 106
4, 15480, Note_on_c, 2, 50, 106
4, 15540, Note_on_c, 2, 50, 0
4, 15540, Note_on_c, 2, 38, 0
4, 15600, Note_on_c, 2, 55, 106
4, 15600, Note_on_c, 2, 43, 106
4, 15660, Note_on_c, 2, 43, 0
4, 15660, Note_on_c, 2, 55, 0
4, 15720, Note_on_c, 2, 55, 55
4, 15780, Note_on_c, 2, 55, 0
4, 15780, Note_on_c, 2, 57, 55
4, 15810, Note_on_c, 2, 57, 0
4, 15810, Note_on_c, 2, 59, 55
4, 15840, Note_on_c, 2, 59, 0
4, 15840, Note_on_c, 2, 60, 55
4, 15930, Note_on_c, 2, 60, 0
4, 15930, Note_on_c, 2, 62, 55
4, 15960, Note_on_c, 2, 62, 0
4, 15960, Note_on_c, 2, 64, 55
4, 16080, Note_on_c, 2, 64, 0
4, 16080, Note_on_c, 2, 60, 61
4, 16140, Note_on_c, 2, 60, 0
4, 16140, Note_on_c, 2, 62, 69
4, 16170, Note_on_c, 2, 62, 0
4, 16170, Note_on_c, 2, 64, 74
4, 16200, Note_on_c, 2, 64, 0
4, 16200, Note_on_c, 2, 65, 78
4, 16290, Note_on_c, 2, 65, 0
4, 16290, Note_on_c, 2, 67, 87
4, 16320, Note_on_c, 2, 67, 0
4, 16320, Note_on_c, 2, 64, 89
4, 16440, Note_on_c, 2, 64, 0
4, 16440, Note_on_c, 2, 48, 98
4, 16440, Note_on_c, 2, 55, 98
4, 16440, Note_on_c, 2, 60, 98
4, 16560, Note_on_c, 2, 60, 0
4, 16560, Note_on_c, 2, 55, 0
4, 16560, Note_on_c, 2, 48, 0
4, 16560, Note_on_c, 2, 50, 99
4, 16560, Note_on_c, 2, 55, 99
4, 16560, Note_on_c, 2, 59, 99
4, 16620, Note_on_c, 2, 59, 0
4, 16620, Note_on_c, 2, 55, 0
4, 16620, Note_on_c, 2, 50, 0
4, 16620, Note_on_c, 2, 59, 100
4, 16665, Note_on_c, 2, 59, 0
4, 16665, Note_on_c, 2, 62, 100
4, 16680, Note_on_c, 2, 62, 0
4, 16680, Note_on_c, 2, 55, 100
4, 16740, Note_on_c, 2, 55, 0
4, 16740, Note_on_c, 2, 55, 100
4, 16785, Note_on_c, 2, 55, 0
4, 16785, Note_on_c, 2, 59, 100
4, 16800, Note_on_c, 2, 59, 0
4, 16800, Note_on_c, 2, 50, 100
4, 16860, Note_on_c, 2, 50, 0
4, 16860, Note_on_c, 2, 38, 100
4, 16890, Note_on_c, 2, 38, 0
4, 16890, Note_on_c, 2, 40, 100
4, 16905, Note_on_c, 2, 40, 0
4, 16905, Note_on_c, 2, 42, 101
4, 16920, Note_on_c, 2, 42, 0
4, 16920, Note_on_c, 2, 31, 101
4, 16920, Note_on_c, 2, 43, 101
4, 17010, Note_on_c, 2, 43, 0
4, 17010, Note_on_c, 2, 31, 0
4, 17010, Note_on_c, 2, 43, 111
4, 17010, Note_on_c, 2, 31, 111
4, 17040, Note_on_c, 2, 31, 0
4, 17040, Note_on_c, 2, 43, 0
4, 17040, Note_on_c, 2, 31, 111
4, 17040, Note_on_c, 2, 43, 111
4, 17160, Note_on_c, 2, 43, 0
4, 17160, Note_on_c, 2, 31, 0
4, 17160, End_track
5, 0, Start_track
5, 0, MIDI_port, 0
5, 0, Title_t, "Chor"
5, 0, Program_c, 3, 61
5, 0, Control_c, 3, 7, 121
5, 0, Control_c, 3, 10, 64
5, 0, Control_c, 3, 93, 18
5, 0, Control_c, 3, 91, 11
5, 0, End_track
0, 0, End_of_file