0, 0, Header, 1, 3, 120
1, 0, Start_track
1, 0, Title_t, "Piano piece in A Major , uncatalogued"
1, 0, Title_t, "London, (British Library, Kafka Miscellany, folio 41 versus, 13-16)"
1, 0, Copyright_t, "Copyright \251 2002 di FIORELLA ED ARMANDO ORLANDI"
1, 0, Text_t, "FIORELLA ED ARMANDO ORLANDI"
1, 0, Time_signature, 3, 2, 24, 8
1, 0, Key_signature, 3, "major"
1, 0, Tempo, 441176
1, 5402, Tempo, 504202
1, 5402, End_track
2, 0, Start_track
2, 0, MIDI_port, 0
2, 0, Title_t, "PianoR"
2, 0, Program_c, 0, 0
2, 0, Control_c, 0, 7, 113
2, 0, Control_c, 0, 10, 37
2, 0, Note_on_c, 0, 57, 52
2, 0, Control_c, 0, 93, 15
2, 0, Control_c, 0, 91, 21
2, 40, Note_on_c, 0, 57, 0
2, 40, Note_on_c, 0, 61, 52
2, 80, Note_on_c, 0, 61, 0
2, 80, Note_on_c, 0, 64, 52
2, 120, Note_on_c, 0, 64, 0
2, 120, Note_on_c, 0, 69, 52
2, 160, Note_on_c, 0, 69, 0
2, 160, Note_on_c, 0, 73, 52
2, 200, Note_on_c, 0, 73, 0
2, 200, Note_on_c, 0, 76, 52
2, 240, Note_on_c, 0, 76, 0
2, 240, Note_on_c, 0, 81, 52
2, 360, Note_on_c, 0, 81, 0
2, 360, Note_on_c, 0, 81, 72
2, 600, Note_on_c, 0, 81, 0
2, 600, Note_on_c, 0, 71, 52
2, 600, Note_on_c, 0, 80, 52
2, 720, Note_on_c, 0, 80, 0
2, 720, Note_on_c, 0, 71, 0
2, 720, Note_on_c, 0, 71, 52
2, 720, Note_on_c, 0, 59, 52
2, 760, Note_on_c, 0, 59, 0
2, 760, Note_on_c, 0, 62, 52
2, 800, Note_on_c, 0, 62, 0
2, 800, Note_on_c, 0, 68, 52
2, 840, Note_on_c, 0, 68, 0
2, 840, Note_on_c, 0, 71, 52
2, 880, Note_on_c, 0, 71, 0
2, 880, Note_on_c, 0, 74, 52
2, 920, Note_on_c, 0, 74, 0
2, 920, Note_on_c, 0, 80, 52
2, 960, Note_on_c, 0, 80, 0
2, 960, Note_on_c, 0, 71, 0
2, 960, Note_on_c, 0, 68, 52
2, 960, Note_on_c, 0, 83, 52
2, 1080, Note_on_c, 0, 83, 0
2, 1080, Note_on_c, 0, 68, 0
2, 1080, Note_on_c, 0, 83, 72
2, 1320, Note_on_c, 0, 83, 0
2, 1320, Note_on_c, 0, 73, 52
2, 1320, Note_on_c, 0, 81, 52
2, 1440, Note_on_c, 0, 81, 0
2, 1440, Note_on_c, 0, 73, 0
2, 1440, Note_on_c, 0, 73, 52
2, 1440, Note_on_c, 0, 61, 52
2, 1480, Note_on_c, 0, 61, 0
2, 1480, Note_on_c, 0, 64, 52
2, 1520, Note_on_c, 0, 64, 0
2, 1520, Note_on_c, 0, 69, 52
2, 1560, Note_on_c, 0, 69, 0
2, 1560, Note_on_c, 0, 73, 52
2, 1600, Note_on_c, 0, 73, 0
2, 1600, Note_on_c, 0, 76, 52
2, 1640, Note_on_c, 0, 76, 0
2, 1640, Note_on_c, 0, 81, 52
2, 1680, Note_on_c, 0, 81, 0
2, 1680, Note_on_c, 0, 73, 0
2, 1680, Note_on_c, 0, 85, 52
2, 1680, Note_on_c, 0, 69, 52
2, 1800, Note_on_c, 0, 69, 0
2, 1800, Note_on_c, 0, 85, 0
2, 1800, Note_on_c, 0, 85, 72
2, 2040, Note_on_c, 0, 85, 0
2, 2040, Note_on_c, 0, 83, 52
2, 2040, Note_on_c, 0, 74, 52
2, 2160, Note_on_c, 0, 74, 0
2, 2160, Note_on_c, 0, 83, 0
2, 2160, Note_on_c, 0, 73, 52
2, 2160, Note_on_c, 0, 81, 52
2, 2280, Note_on_c, 0, 81, 0
2, 2280, Note_on_c, 0, 73, 0
2, 2280, Note_on_c, 0, 74, 52
2, 2280, Note_on_c, 0, 83, 52
2, 2400, Note_on_c, 0, 83, 0
2, 2400, Note_on_c, 0, 74, 0
2, 2400, Note_on_c, 0, 71, 52
2, 2400, Note_on_c, 0, 64, 52
2, 2400, Note_on_c, 0, 80, 52
2, 2520, Note_on_c, 0, 80, 0
2, 2520, Note_on_c, 0, 64, 0
2, 2520, Note_on_c, 0, 71, 0
2, 2520, Note_on_c, 0, 73, 52
2, 2520, Note_on_c, 0, 69, 52
2, 2520, Note_on_c, 0, 81, 52
2, 2640, Note_on_c, 0, 81, 0
2, 2640, Note_on_c, 0, 69, 0
2, 2640, Note_on_c, 0, 73, 0
2, 2640, Note_on_c, 0, 76, 52
2, 2760, Note_on_c, 0, 76, 0
2, 2760, Note_on_c, 0, 73, 52
2, 2880, Note_on_c, 0, 73, 0
2, 3120, Note_on_c, 0, 69, 100
2, 3240, Note_on_c, 0, 69, 0
2, 3240, Note_on_c, 0, 69, 100
2, 3240, Note_on_c, 0, 59, 100
2, 3280, Note_on_c, 0, 59, 0
2, 3280, Note_on_c, 0, 62, 100
2, 3320, Note_on_c, 0, 62, 0
2, 3320, Note_on_c, 0, 68, 100
2, 3360, Note_on_c, 0, 68, 0
2, 3360, Note_on_c, 0, 71, 100
2, 3400, Note_on_c, 0, 71, 0
2, 3400, Note_on_c, 0, 74, 100
2, 3440, Note_on_c, 0, 74, 0
2, 3440, Note_on_c, 0, 80, 100
2, 3480, Note_on_c, 0, 80, 0
2, 3480, Note_on_c, 0, 69, 0
2, 3480, Note_on_c, 0, 68, 100
2, 3480, Note_on_c, 0, 83, 100
2, 3600, Note_on_c, 0, 83, 0
2, 3600, Note_on_c, 0, 68, 0
2, 3600, Note_on_c, 0, 83, 120
2, 3840, Note_on_c, 0, 83, 0
2, 3840, Note_on_c, 0, 80, 100
2, 3840, Note_on_c, 0, 71, 100
2, 3960, Note_on_c, 0, 71, 0
2, 3960, Note_on_c, 0, 80, 0
2, 3960, Note_on_c, 0, 71, 100
2, 3960, Note_on_c, 0, 61, 100
2, 4000, Note_on_c, 0, 61, 0
2, 4000, Note_on_c, 0, 64, 100
2, 4040, Note_on_c, 0, 64, 0
2, 4040, Note_on_c, 0, 69, 100
2, 4080, Note_on_c, 0, 69, 0
2, 4080, Note_on_c, 0, 73, 100
2, 4120, Note_on_c, 0, 73, 0
2, 4120, Note_on_c, 0, 76, 100
2, 4160, Note_on_c, 0, 76, 0
2, 4160, Note_on_c, 0, 81, 100
2, 4200, Note_on_c, 0, 81, 0
2, 4200, Note_on_c, 0, 71, 0
2, 4200, Note_on_c, 0, 69, 100
2, 4200, Note_on_c, 0, 85, 100
2, 4320, Note_on_c, 0, 85, 0
2, 4320, Note_on_c, 0, 69, 0
2, 4320, Note_on_c, 0, 85, 120
2, 4560, Note_on_c, 0, 85, 0
2, 4560, Note_on_c, 0, 81, 100
2, 4560, Note_on_c, 0, 73, 100
2, 4680, Note_on_c, 0, 73, 0
2, 4680, Note_on_c, 0, 81, 0
2, 4680, Note_on_c, 0, 73, 100
2, 4680, Note_on_c, 0, 62, 100
2, 4720, Note_on_c, 0, 62, 0
2, 4720, Note_on_c, 0, 66, 100
2, 4760, Note_on_c, 0, 66, 0
2, 4760, Note_on_c, 0, 71, 100
2, 4800, Note_on_c, 0, 71, 0
2, 4800, Note_on_c, 0, 74, 100
2, 4840, Note_on_c, 0, 74, 0
2, 4840, Note_on_c, 0, 78, 100
2, 4880, Note_on_c, 0, 78, 0
2, 4880, Note_on_c, 0, 83, 100
2, 4920, Note_on_c, 0, 83, 0
2, 4920, Note_on_c, 0, 73, 0
2, 4920, Note_on_c, 0, 71, 100
2, 4920, Note_on_c, 0, 86, 100
2, 4980, Note_on_c, 0, 71, 0
2, 4980, Note_on_c, 0, 69, 100
2, 5040, Note_on_c, 0, 69, 0
2, 5040, Note_on_c, 0, 86, 0
2, 5040, Note_on_c, 0, 68, 100
2, 5040, Note_on_c, 0, 86, 100
2, 5280, Note_on_c, 0, 86, 0
2, 5280, Note_on_c, 0, 68, 0
2, 5280, Note_on_c, 0, 69, 100
2, 5280, Note_on_c, 0, 85, 100
2, 5400, Note_on_c, 0, 85, 0
2, 5400, Note_on_c, 0, 69, 0
2, 5400, Note_on_c, 0, 69, 100
2, 5400, Note_on_c, 0, 66, 100
2, 5400, Note_on_c, 0, 85, 100
2, 5520, Note_on_c, 0, 85, 0
2, 5520, Note_on_c, 0, 66, 0
2, 5520, Note_on_c, 0, 69, 0
2, 5520, Note_on_c, 0, 71, 100
2, 5520, Note_on_c, 0, 62, 100
2, 5520, Note_on_c, 0, 86, 100
2, 5640, Note_on_c, 0, 86, 0
2, 5640, Note_on_c, 0, 62, 0
2, 5640, Note_on_c, 0, 71, 0
2, 5640, Note_on_c, 0, 68, 100
2, 5640, Note_on_c, 0, 64, 100
2, 5640, Note_on_c, 0, 83, 100
2, 5760, Note_on_c, 0, 83, 0
2, 5760, Note_on_c, 0, 64, 0
2, 5760, Note_on_c, 0, 68, 0
2, 5760, Note_on_c, 0, 57, 100
2, 5760, Note_on_c, 0, 69, 100
2, 5760, Note_on_c, 0, 81, 100
2, 5880, Note_on_c, 0, 81, 0
2, 5880, Note_on_c, 0, 69, 0
2, 5880, Note_on_c, 0, 57, 0
2, 5880, End_track
3, 0, Start_track
3, 0, MIDI_port, 0
3, 0, Title_t, "PianoL"
3, 0, Program_c, 1, 0
3, 0, Control_c, 1, 7, 100
3, 0, Control_c, 1, 10, 89
3, 0, Control_c, 1, 93, 13
3, 0, Control_c, 1, 91, 18
3, 360, Note_on_c, 1, 47, 52
3, 400, Note_on_c, 1, 47, 0
3, 400, Note_on_c, 1, 50, 52
3, 440, Note_on_c, 1, 50, 0
3, 440, Note_on_c, 1, 56, 52
3, 480, Note_on_c, 1, 56, 0
3, 480, Note_on_c, 1, 59, 52
3, 520, Note_on_c, 1, 59, 0
3, 520, Note_on_c, 1, 62, 52
3, 560, Note_on_c, 1, 62, 0
3, 560, Note_on_c, 1, 68, 52
3, 600, Note_on_c, 1, 68, 0
3, 1080, Note_on_c, 1, 49, 52
3, 1120, Note_on_c, 1, 49, 0
3, 1120, Note_on_c, 1, 52, 52
3, 1160, Note_on_c, 1, 52, 0
3, 1160, Note_on_c, 1, 57, 52
3, 1200, Note_on_c, 1, 57, 0
3, 1200, Note_on_c, 1, 61, 52
3, 1240, Note_on_c, 1, 61, 0
3, 1240, Note_on_c, 1, 64, 52
3, 1280, Note_on_c, 1, 64, 0
3, 1280, Note_on_c, 1, 69, 52
3, 1320, Note_on_c, 1, 69, 0
3, 1800, Note_on_c, 1, 50, 52
3, 1840, Note_on_c, 1, 50, 0
3, 1840, Note_on_c, 1, 54, 52
3, 1880, Note_on_c, 1, 54, 0
3, 1880, Note_on_c, 1, 59, 52
3, 1920, Note_on_c, 1, 59, 0
3, 1920, Note_on_c, 1, 62, 52
3, 1960, Note_on_c, 1, 62, 0
3, 1960, Note_on_c, 1, 66, 52
3, 2000, Note_on_c, 1, 66, 0
3, 2000, Note_on_c, 1, 71, 52
3, 2040, Note_on_c, 1, 71, 0
3, 2880, Note_on_c, 1, 45, 100
3, 2920, Note_on_c, 1, 45, 0
3, 2920, Note_on_c, 1, 49, 100
3, 2960, Note_on_c, 1, 49, 0
3, 2960, Note_on_c, 1, 52, 100
3, 3000, Note_on_c, 1, 52, 0
3, 3000, Note_on_c, 1, 57, 100
3, 3040, Note_on_c, 1, 57, 0
3, 3040, Note_on_c, 1, 61, 100
3, 3080, Note_on_c, 1, 61, 0
3, 3080, Note_on_c, 1, 64, 100
3, 3120, Note_on_c, 1, 64, 0
3, 3600, Note_on_c, 1, 47, 100
3, 3640, Note_on_c, 1, 47, 0
3, 3640, Note_on_c, 1, 50, 100
3, 3680, Note_on_c, 1, 50, 0
3, 3680, Note_on_c, 1, 56, 100
3, 3720, Note_on_c, 1, 56, 0
3, 3720, Note_on_c, 1, 59, 100
3, 3760, Note_on_c, 1, 59, 0
3, 3760, Note_on_c, 1, 62, 100
3, 3800, Note_on_c, 1, 62, 0
3, 3800, Note_on_c, 1, 68, 100
3, 3840, Note_on_c, 1, 68, 0
3, 4320, Note_on_c, 1, 49, 100
3, 4360, Note_on_c, 1, 49, 0
3, 4360, Note_on_c, 1, 52, 100
3, 4400, Note_on_c, 1, 52, 0
3, 4400, Note_on_c, 1, 57, 100
3, 4440, Note_on_c, 1, 57, 0
3, 4440, Note_on_c, 1, 61, 100
3, 4480, Note_on_c, 1, 61, 0
3, 4480, Note_on_c, 1, 64, 100
3, 4520, Note_on_c, 1, 64, 0
3, 4520, Note_on_c, 1, 69, 100
3, 4560, Note_on_c, 1, 69, 0
3, 4560, End_track
0, 0, End_of_file