0, 0, Header, 0, 1, 120
1, 0, Start_track
1, 0, Title_t, "Rondo' in A"
1, 0, Title_t, "WoO 48 (1783)"
1, 0, Copyright_t, "Copyright \251 2000 di fiorellaearmando@panet.it"
1, 0, Text_t, "ARMANDO ORLANDI\012"
1, 0, Time_signature, 2, 2, 24, 8
1, 0, Key_signature, 3, "major"
1, 0, Tempo, 594059
1, 0, Program_c, 0, 0
1, 0, Control_c, 0, 7, 120
1, 0, Control_c, 0, 10, 78
1, 0, Control_c, 0, 93, 17
1, 0, Control_c, 0, 91, 6
1, 0, Program_c, 1, 0
1, 0, Control_c, 1, 7, 112
1, 0, Control_c, 1, 10, 45
1, 0, Control_c, 1, 93, 11
1, 0, Control_c, 1, 91, 18
1, 120, Note_on_c, 0, 64, 55
1, 180, Note_on_c, 0, 64, 0
1, 180, Note_on_c, 0, 64, 58
1, 240, Note_on_c, 0, 64, 0
1, 240, Note_on_c, 0, 69, 60
1, 240, Note_on_c, 0, 61, 60
1, 240, Note_on_c, 1, 45, 66
1, 240, Note_on_c, 1, 57, 66
1, 300, Note_on_c, 0, 61, 0
1, 300, Note_on_c, 0, 69, 0
1, 300, Note_on_c, 0, 64, 62
1, 300, Note_on_c, 0, 68, 62
1, 360, Note_on_c, 0, 68, 0
1, 360, Note_on_c, 1, 57, 0
1, 360, Note_on_c, 1, 45, 0
1, 360, Note_on_c, 0, 64, 0
1, 360, Note_on_c, 0, 62, 64
1, 360, Note_on_c, 0, 66, 64
1, 360, Note_on_c, 1, 57, 71
1, 420, Note_on_c, 1, 57, 0
1, 420, Note_on_c, 0, 66, 0
1, 420, Note_on_c, 0, 62, 0
1, 420, Note_on_c, 0, 61, 66
1, 420, Note_on_c, 0, 64, 66
1, 420, Note_on_c, 1, 57, 73
1, 480, Note_on_c, 1, 57, 0
1, 480, Note_on_c, 0, 64, 0
1, 480, Note_on_c, 0, 61, 0
1, 480, Note_on_c, 0, 62, 67
1, 480, Note_on_c, 0, 66, 67
1, 480, Note_on_c, 1, 57, 75
1, 540, Note_on_c, 1, 57, 0
1, 540, Note_on_c, 0, 66, 0
1, 540, Note_on_c, 0, 62, 0
1, 540, Note_on_c, 0, 61, 67
1, 540, Note_on_c, 0, 64, 67
1, 540, Note_on_c, 1, 57, 76
1, 600, Note_on_c, 1, 57, 0
1, 600, Note_on_c, 0, 64, 0
1, 600, Note_on_c, 0, 61, 0
1, 600, Note_on_c, 0, 64, 67
1, 660, Note_on_c, 0, 64, 0
1, 660, Note_on_c, 0, 64, 67
1, 720, Note_on_c, 0, 64, 0
1, 720, Note_on_c, 0, 69, 67
1, 720, Note_on_c, 0, 64, 67
1, 720, Note_on_c, 1, 61, 77
1, 780, Note_on_c, 1, 61, 0
1, 780, Note_on_c, 0, 64, 0
1, 780, Note_on_c, 0, 69, 0
1, 780, Note_on_c, 0, 71, 66
1, 780, Note_on_c, 1, 57, 75
1, 810, Note_on_c, 0, 71, 0
1, 810, Note_on_c, 0, 73, 65
1, 840, Note_on_c, 0, 73, 0
1, 840, Note_on_c, 1, 57, 0
1, 840, Note_on_c, 0, 64, 64
1, 840, Note_on_c, 0, 71, 64
1, 840, Note_on_c, 0, 74, 64
1, 840, Note_on_c, 1, 56, 74
1, 900, Note_on_c, 1, 56, 0
1, 900, Note_on_c, 0, 64, 0
1, 900, Note_on_c, 0, 71, 0
1, 900, Note_on_c, 0, 74, 0
1, 900, Note_on_c, 0, 73, 61
1, 900, Note_on_c, 0, 69, 61
1, 900, Note_on_c, 0, 64, 61
1, 900, Note_on_c, 1, 57, 71
1, 915, Tempo, 594059
1, 930, Tempo, 600000
1, 945, Tempo, 606061
1, 960, Tempo, 612245
1, 960, Note_on_c, 1, 57, 0
1, 960, Note_on_c, 0, 73, 0
1, 960, Note_on_c, 0, 69, 0
1, 960, Note_on_c, 0, 64, 0
1, 960, Note_on_c, 0, 64, 59
1, 960, Note_on_c, 0, 69, 59
1, 960, Note_on_c, 0, 73, 59
1, 960, Note_on_c, 1, 52, 68
1, 970, Tempo, 618557
1, 985, Tempo, 625000
1, 1000, Tempo, 631579
1, 1010, Tempo, 638298
1, 1020, Note_on_c, 1, 52, 0
1, 1020, Note_on_c, 0, 64, 0
1, 1020, Note_on_c, 0, 69, 0
1, 1020, Note_on_c, 0, 73, 0
1, 1020, Note_on_c, 0, 71, 57
1, 1020, Note_on_c, 0, 68, 57
1, 1020, Note_on_c, 0, 64, 57
1, 1020, Note_on_c, 1, 40, 63
1, 1025, Tempo, 645161
1, 1040, Tempo, 652174
1, 1050, Tempo, 659341
1, 1065, Tempo, 666667
1, 1080, Tempo, 674157
1, 1080, Note_on_c, 1, 40, 0
1, 1080, Note_on_c, 0, 71, 0
1, 1080, Note_on_c, 0, 68, 0
1, 1080, Note_on_c, 0, 64, 0
1, 1080, Note_on_c, 0, 64, 94
1, 1090, Tempo, 594059
1, 1140, Note_on_c, 0, 64, 0
1, 1140, Note_on_c, 0, 64, 98
1, 1200, Note_on_c, 0, 64, 0
1, 1200, Note_on_c, 0, 69, 99
1, 1200, Note_on_c, 0, 61, 99
1, 1200, Note_on_c, 1, 45, 88
1, 1200, Note_on_c, 1, 57, 88
1, 1260, Note_on_c, 0, 61, 0
1, 1260, Note_on_c, 0, 69, 0
1, 1260, Note_on_c, 0, 64, 100
1, 1260, Note_on_c, 0, 68, 100
1, 1320, Note_on_c, 0, 68, 0
1, 1320, Note_on_c, 1, 57, 0
1, 1320, Note_on_c, 1, 45, 0
1, 1320, Note_on_c, 0, 64, 0
1, 1320, Note_on_c, 0, 62, 101
1, 1320, Note_on_c, 0, 66, 101
1, 1320, Note_on_c, 1, 57, 93
1, 1380, Note_on_c, 1, 57, 0
1, 1380, Note_on_c, 0, 66, 0
1, 1380, Note_on_c, 0, 62, 0
1, 1380, Note_on_c, 0, 61, 101
1, 1380, Note_on_c, 0, 64, 101
1, 1380, Note_on_c, 1, 57, 94
1, 1440, Note_on_c, 1, 57, 0
1, 1440, Note_on_c, 0, 64, 0
1, 1440, Note_on_c, 0, 61, 0
1, 1440, Note_on_c, 0, 62, 101
1, 1440, Note_on_c, 0, 66, 101
1, 1440, Note_on_c, 1, 57, 94
1, 1500, Note_on_c, 1, 57, 0
1, 1500, Note_on_c, 0, 66, 0
1, 1500, Note_on_c, 0, 62, 0
1, 1500, Note_on_c, 0, 61, 101
1, 1500, Note_on_c, 0, 64, 101
1, 1500, Note_on_c, 1, 57, 95
1, 1560, Note_on_c, 1, 57, 0
1, 1560, Note_on_c, 0, 64, 0
1, 1560, Note_on_c, 0, 61, 0
1, 1560, Note_on_c, 0, 69, 101
1, 1620, Note_on_c, 0, 69, 0
1, 1620, Note_on_c, 0, 69, 102
1, 1680, Note_on_c, 0, 69, 0
1, 1680, Note_on_c, 0, 66, 120
1, 1680, Note_on_c, 0, 74, 120
1, 1680, Note_on_c, 1, 50, 96
1, 1740, Note_on_c, 1, 50, 0
1, 1740, Note_on_c, 1, 52, 96
1, 1770, Note_on_c, 0, 74, 0
1, 1770, Note_on_c, 0, 66, 0
1, 1770, Note_on_c, 0, 73, 100
1, 1800, Note_on_c, 0, 73, 0
1, 1800, Note_on_c, 1, 52, 0
1, 1800, Note_on_c, 0, 71, 100
1, 1800, Note_on_c, 0, 68, 100
1, 1800, Note_on_c, 1, 52, 96
1, 1860, Note_on_c, 1, 52, 0
1, 1860, Note_on_c, 0, 68, 0
1, 1860, Note_on_c, 0, 71, 0
1, 1860, Note_on_c, 0, 73, 100
1, 1860, Note_on_c, 1, 52, 98
1, 1900, Tempo, 582524
1, 1910, Tempo, 588235
1, 1915, Tempo, 594059
1, 1920, Tempo, 600000
1, 1920, Note_on_c, 1, 52, 0
1, 1920, Note_on_c, 0, 73, 0
1, 1920, Note_on_c, 0, 69, 100
1, 1920, Note_on_c, 1, 45, 100
1, 1925, Tempo, 606061
1, 1930, Tempo, 612245
1, 1935, Tempo, 618557
1, 1940, Tempo, 625000
1, 1945, Tempo, 631579
1, 1950, Tempo, 638298
1, 1955, Tempo, 645161
1, 1960, Tempo, 652174
1, 1965, Tempo, 659341
1, 1975, Tempo, 666667
1, 1980, Tempo, 674157
1, 1985, Tempo, 681818
1, 1990, Tempo, 689655
1, 1995, Tempo, 697674
1, 2000, Tempo, 705882
1, 2005, Tempo, 714286
1, 2010, Tempo, 722892
1, 2015, Tempo, 731707
1, 2020, Tempo, 740741
1, 2025, Tempo, 750000
1, 2030, Tempo, 759494
1, 2035, Tempo, 769231
1, 2040, Tempo, 600000
1, 2040, Note_on_c, 1, 45, 0
1, 2040, Note_on_c, 0, 69, 0
1, 2040, Note_on_c, 0, 76, 101
1, 2070, Note_on_c, 0, 76, 0
1, 2070, Note_on_c, 0, 73, 101
1, 2100, Note_on_c, 0, 73, 0
1, 2100, Note_on_c, 0, 69, 101
1, 2130, Note_on_c, 0, 69, 0
1, 2130, Note_on_c, 0, 64, 101
1, 2160, Note_on_c, 0, 64, 0
1, 2160, Note_on_c, 0, 59, 101
1, 2160, Note_on_c, 0, 62, 101
1, 2160, Note_on_c, 1, 56, 100
1, 2220, Note_on_c, 1, 56, 0
1, 2220, Note_on_c, 1, 52, 102
1, 2280, Note_on_c, 1, 52, 0
1, 2280, Note_on_c, 0, 62, 0
1, 2280, Note_on_c, 0, 59, 0
1, 2280, Note_on_c, 0, 62, 101
1, 2280, Note_on_c, 0, 59, 101
1, 2280, Note_on_c, 1, 56, 102
1, 2340, Note_on_c, 1, 56, 0
1, 2340, Note_on_c, 1, 52, 102
1, 2370, Note_on_c, 0, 62, 0
1, 2370, Note_on_c, 0, 64, 101
1, 2400, Note_on_c, 0, 64, 0
1, 2400, Note_on_c, 1, 52, 0
1, 2400, Note_on_c, 0, 59, 0
1, 2400, Note_on_c, 0, 57, 51
1, 2400, Note_on_c, 0, 61, 71
1, 2400, Note_on_c, 1, 57, 99
1, 2430, Note_on_c, 0, 61, 0
1, 2430, Note_on_c, 0, 57, 0
1, 2430, Note_on_c, 0, 64, 51
1, 2460, Note_on_c, 0, 64, 0
1, 2460, Note_on_c, 0, 69, 51
1, 2490, Note_on_c, 0, 69, 0
1, 2490, Note_on_c, 0, 73, 45
1, 2520, Note_on_c, 0, 73, 0
1, 2520, Note_on_c, 1, 57, 0
1, 2520, Note_on_c, 0, 76, 45
1, 2550, Note_on_c, 0, 76, 0
1, 2550, Note_on_c, 0, 73, 51
1, 2580, Note_on_c, 0, 73, 0
1, 2580, Note_on_c, 0, 69, 51
1, 2610, Note_on_c, 0, 69, 0
1, 2610, Note_on_c, 0, 64, 51
1, 2640, Note_on_c, 0, 64, 0
1, 2640, Note_on_c, 0, 59, 101
1, 2640, Note_on_c, 0, 62, 101
1, 2640, Note_on_c, 1, 56, 100
1, 2700, Note_on_c, 1, 56, 0
1, 2700, Note_on_c, 1, 52, 101
1, 2760, Note_on_c, 1, 52, 0
1, 2760, Note_on_c, 0, 62, 0
1, 2760, Note_on_c, 0, 59, 0
1, 2760, Note_on_c, 0, 59, 101
1, 2760, Note_on_c, 0, 62, 101
1, 2760, Note_on_c, 1, 56, 102
1, 2820, Note_on_c, 1, 56, 0
1, 2820, Note_on_c, 1, 52, 103
1, 2850, Note_on_c, 0, 62, 0
1, 2850, Note_on_c, 0, 59, 0
1, 2850, Note_on_c, 0, 64, 92
1, 2880, Note_on_c, 0, 64, 0
1, 2880, Note_on_c, 1, 52, 0
1, 2880, Note_on_c, 0, 61, 94
1, 2880, Note_on_c, 1, 57, 103
1, 2910, Note_on_c, 0, 61, 0
1, 2910, Note_on_c, 0, 57, 95
1, 2940, Note_on_c, 0, 57, 0
1, 2940, Note_on_c, 0, 61, 95
1, 2970, Note_on_c, 0, 61, 0
1, 2970, Note_on_c, 0, 64, 96
1, 3000, Note_on_c, 0, 64, 0
1, 3000, Note_on_c, 1, 57, 0
1, 3000, Note_on_c, 0, 69, 97
1, 3000, Note_on_c, 1, 49, 103
1, 3030, Note_on_c, 0, 69, 0
1, 3030, Note_on_c, 0, 64, 97
1, 3060, Note_on_c, 0, 64, 0
1, 3060, Note_on_c, 0, 69, 98
1, 3090, Note_on_c, 0, 69, 0
1, 3090, Note_on_c, 0, 67, 98
1, 3120, Note_on_c, 0, 67, 0
1, 3120, Note_on_c, 1, 49, 0
1, 3120, Note_on_c, 0, 67, 98
1, 3120, Note_on_c, 1, 50, 103
1, 3150, Note_on_c, 0, 67, 0
1, 3150, Note_on_c, 0, 66, 99
1, 3180, Note_on_c, 0, 66, 0
1, 3180, Note_on_c, 0, 64, 99
1, 3210, Note_on_c, 0, 64, 0
1, 3210, Note_on_c, 0, 62, 99
1, 3240, Note_on_c, 0, 62, 0
1, 3240, Note_on_c, 1, 50, 0
1, 3240, Note_on_c, 0, 71, 99
1, 3240, Note_on_c, 1, 51, 100
1, 3270, Note_on_c, 0, 71, 0
1, 3270, Note_on_c, 0, 66, 99
1, 3300, Note_on_c, 0, 66, 0
1, 3300, Note_on_c, 0, 71, 99
1, 3330, Note_on_c, 0, 71, 0
1, 3330, Note_on_c, 0, 69, 99
1, 3360, Note_on_c, 0, 69, 0
1, 3360, Note_on_c, 1, 51, 0
1, 3360, Note_on_c, 0, 69, 99
1, 3360, Note_on_c, 1, 52, 97
1, 3390, Note_on_c, 0, 69, 0
1, 3390, Note_on_c, 0, 68, 99
1, 3420, Note_on_c, 0, 68, 0
1, 3420, Note_on_c, 0, 66, 99
1, 3450, Note_on_c, 0, 66, 0
1, 3450, Note_on_c, 0, 64, 99
1, 3480, Note_on_c, 0, 64, 0
1, 3480, Note_on_c, 1, 52, 0
1, 3480, Note_on_c, 0, 76, 99
1, 3480, Note_on_c, 0, 68, 99
1, 3540, Note_on_c, 0, 68, 0
1, 3540, Note_on_c, 0, 76, 0
1, 3540, Note_on_c, 0, 76, 99
1, 3540, Note_on_c, 0, 68, 99
1, 3600, Note_on_c, 0, 68, 0
1, 3600, Note_on_c, 0, 76, 0
1, 3600, Note_on_c, 0, 68, 99
1, 3600, Note_on_c, 0, 76, 99
1, 3600, Note_on_c, 1, 47, 94
1, 3660, Note_on_c, 1, 47, 0
1, 3660, Note_on_c, 0, 76, 0
1, 3660, Note_on_c, 0, 68, 0
1, 3660, Note_on_c, 0, 66, 99
1, 3660, Note_on_c, 0, 75, 99
1, 3660, Note_on_c, 1, 59, 94
1, 3690, Note_on_c, 0, 75, 0
1, 3690, Note_on_c, 0, 66, 0
1, 3690, Note_on_c, 0, 68, 100
1, 3690, Note_on_c, 0, 76, 100
1, 3720, Note_on_c, 0, 76, 0
1, 3720, Note_on_c, 0, 68, 0
1, 3720, Note_on_c, 1, 59, 0
1, 3720, Note_on_c, 0, 78, 100
1, 3720, Note_on_c, 0, 69, 100
1, 3720, Note_on_c, 1, 59, 94
1, 3780, Note_on_c, 1, 59, 0
1, 3780, Note_on_c, 0, 69, 0
1, 3780, Note_on_c, 0, 78, 0
1, 3780, Note_on_c, 0, 69, 101
1, 3780, Note_on_c, 0, 66, 101
1, 3780, Note_on_c, 1, 59, 94
1, 3840, Note_on_c, 1, 59, 0
1, 3840, Note_on_c, 0, 66, 0
1, 3840, Note_on_c, 0, 69, 0
1, 3840, Note_on_c, 0, 71, 102
1, 3840, Note_on_c, 0, 68, 102
1, 3840, Note_on_c, 1, 52, 94
1, 3855, Note_on_c, 0, 68, 0
1, 3855, Note_on_c, 0, 71, 0
1, 3855, Note_on_c, 0, 66, 102
1, 3855, Note_on_c, 0, 69, 102
1, 3870, Note_on_c, 0, 69, 0
1, 3870, Note_on_c, 0, 66, 0
1, 3870, Note_on_c, 0, 68, 102
1, 3870, Note_on_c, 0, 71, 102
1, 3885, Note_on_c, 0, 71, 0
1, 3885, Note_on_c, 0, 68, 0
1, 3885, Note_on_c, 0, 66, 102
1, 3885, Note_on_c, 0, 69, 102
1, 3900, Note_on_c, 0, 69, 0
1, 3900, Note_on_c, 0, 66, 0
1, 3900, Note_on_c, 1, 52, 0
1, 3900, Note_on_c, 0, 64, 102
1, 3900, Note_on_c, 0, 68, 102
1, 3900, Note_on_c, 1, 64, 94
1, 3960, Note_on_c, 1, 64, 0
1, 3960, Note_on_c, 0, 68, 0
1, 3960, Note_on_c, 0, 64, 0
1, 3960, Note_on_c, 0, 68, 102
1, 3960, Note_on_c, 0, 76, 102
1, 4020, Note_on_c, 0, 76, 0
1, 4020, Note_on_c, 0, 68, 0
1, 4020, Note_on_c, 0, 68, 100
1, 4020, Note_on_c, 0, 76, 100
1, 4080, Note_on_c, 0, 76, 0
1, 4080, Note_on_c, 0, 68, 0
1, 4080, Note_on_c, 0, 69, 101
1, 4080, Note_on_c, 0, 76, 111
1, 4080, Note_on_c, 1, 59, 87
1, 4110, Note_on_c, 0, 76, 0
1, 4110, Note_on_c, 0, 69, 0
1, 4110, Note_on_c, 0, 75, 101
1, 4140, Note_on_c, 0, 75, 0
1, 4140, Note_on_c, 0, 78, 101
1, 4170, Note_on_c, 0, 78, 0
1, 4170, Note_on_c, 0, 76, 101
1, 4200, Note_on_c, 0, 76, 0
1, 4200, Note_on_c, 1, 59, 0
1, 4200, Note_on_c, 0, 75, 101
1, 4200, Note_on_c, 1, 47, 88
1, 4230, Note_on_c, 0, 75, 0
1, 4230, Note_on_c, 0, 73, 101
1, 4260, Note_on_c, 0, 73, 0
1, 4260, Note_on_c, 0, 71, 101
1, 4290, Note_on_c, 0, 71, 0
1, 4290, Note_on_c, 0, 69, 101
1, 4320, Note_on_c, 0, 69, 0
1, 4320, Note_on_c, 1, 47, 0
1, 4320, Note_on_c, 0, 68, 111
1, 4320, Note_on_c, 1, 52, 89
1, 4350, Note_on_c, 0, 68, 0
1, 4350, Note_on_c, 0, 76, 101
1, 4380, Note_on_c, 0, 76, 0
1, 4380, Note_on_c, 0, 75, 101
1, 4410, Note_on_c, 0, 75, 0
1, 4410, Note_on_c, 0, 76, 101
1, 4440, Note_on_c, 0, 76, 0
1, 4440, Note_on_c, 1, 52, 0
1, 4440, Note_on_c, 1, 57, 89
1, 4470, Note_on_c, 0, 73, 111
1, 4500, Note_on_c, 0, 73, 0
1, 4500, Note_on_c, 0, 72, 101
1, 4530, Note_on_c, 0, 72, 0
1, 4530, Note_on_c, 0, 73, 101
1, 4560, Note_on_c, 0, 73, 0
1, 4560, Note_on_c, 1, 57, 0
1, 4560, Note_on_c, 1, 59, 101
1, 4590, Note_on_c, 0, 68, 100
1, 4590, Note_on_c, 0, 71, 100
1, 4620, Note_on_c, 0, 71, 0
1, 4620, Note_on_c, 0, 68, 0
1, 4620, Note_on_c, 0, 67, 101
1, 4620, Note_on_c, 0, 70, 101
1, 4650, Note_on_c, 0, 70, 0
1, 4650, Note_on_c, 0, 67, 0
1, 4650, Note_on_c, 0, 71, 101
1, 4650, Note_on_c, 0, 68, 101
1, 4680, Note_on_c, 0, 68, 0
1, 4680, Note_on_c, 0, 71, 0
1, 4680, Note_on_c, 1, 59, 0
1, 4680, Note_on_c, 0, 71, 100
1, 4680, Note_on_c, 0, 68, 100
1, 4680, Note_on_c, 1, 47, 101
1, 4710, Note_on_c, 0, 68, 0
1, 4710, Note_on_c, 0, 71, 0
1, 4710, Note_on_c, 0, 66, 99
1, 4710, Note_on_c, 0, 69, 99
1, 4740, Note_on_c, 0, 69, 0
1, 4740, Note_on_c, 0, 66, 0
1, 4740, Note_on_c, 0, 64, 98
1, 4740, Note_on_c, 0, 68, 98
1, 4770, Note_on_c, 0, 68, 0
1, 4770, Note_on_c, 0, 64, 0
1, 4770, Note_on_c, 0, 63, 97
1, 4770, Note_on_c, 0, 66, 97
1, 4800, Note_on_c, 0, 66, 0
1, 4800, Note_on_c, 0, 63, 0
1, 4800, Note_on_c, 1, 47, 0
1, 4800, Note_on_c, 1, 52, 51
1, 4830, Note_on_c, 0, 64, 59
1, 4860, Note_on_c, 0, 64, 0
1, 4860, Note_on_c, 0, 63, 59
1, 4890, Note_on_c, 0, 63, 0
1, 4890, Note_on_c, 0, 64, 59
1, 4920, Note_on_c, 0, 64, 0
1, 4920, Note_on_c, 1, 52, 0
1, 4920, Note_on_c, 0, 66, 59
1, 4950, Note_on_c, 0, 66, 0
1, 4950, Note_on_c, 0, 64, 59
1, 4980, Note_on_c, 0, 64, 0
1, 4980, Note_on_c, 0, 66, 60
1, 5010, Note_on_c, 0, 66, 0
1, 5010, Note_on_c, 0, 68, 60
1, 5040, Note_on_c, 0, 68, 0
1, 5040, Note_on_c, 0, 69, 60
1, 5040, Note_on_c, 0, 61, 60
1, 5040, Note_on_c, 1, 45, 51
1, 5040, Note_on_c, 1, 57, 51
1, 5100, Note_on_c, 0, 61, 0
1, 5100, Note_on_c, 0, 69, 0
1, 5100, Note_on_c, 0, 64, 60
1, 5100, Note_on_c, 0, 68, 60
1, 5160, Note_on_c, 0, 68, 0
1, 5160, Note_on_c, 1, 57, 0
1, 5160, Note_on_c, 1, 45, 0
1, 5160, Note_on_c, 0, 64, 0
1, 5160, Note_on_c, 0, 62, 60
1, 5160, Note_on_c, 0, 66, 60
1, 5160, Note_on_c, 1, 57, 61
1, 5220, Note_on_c, 1, 57, 0
1, 5220, Note_on_c, 0, 66, 0
1, 5220, Note_on_c, 0, 62, 0
1, 5220, Note_on_c, 0, 61, 59
1, 5220, Note_on_c, 0, 64, 59
1, 5220, Note_on_c, 1, 57, 61
1, 5280, Note_on_c, 1, 57, 0
1, 5280, Note_on_c, 0, 64, 0
1, 5280, Note_on_c, 0, 61, 0
1, 5280, Note_on_c, 0, 64, 59
1, 5280, Note_on_c, 0, 68, 59
1, 5280, Note_on_c, 1, 57, 61
1, 5295, Note_on_c, 0, 68, 0
1, 5295, Note_on_c, 0, 64, 0
1, 5295, Note_on_c, 0, 62, 58
1, 5295, Note_on_c, 0, 66, 58
1, 5310, Note_on_c, 0, 66, 0
1, 5310, Note_on_c, 0, 62, 0
1, 5310, Note_on_c, 0, 64, 58
1, 5310, Note_on_c, 0, 68, 58
1, 5325, Note_on_c, 0, 68, 0
1, 5325, Note_on_c, 0, 64, 0
1, 5325, Note_on_c, 0, 62, 58
1, 5325, Note_on_c, 0, 66, 58
1, 5340, Note_on_c, 0, 66, 0
1, 5340, Note_on_c, 0, 62, 0
1, 5340, Note_on_c, 1, 57, 0
1, 5340, Note_on_c, 0, 61, 58
1, 5340, Note_on_c, 0, 64, 58
1, 5340, Note_on_c, 1, 57, 61
1, 5400, Note_on_c, 1, 57, 0
1, 5400, Note_on_c, 0, 64, 0
1, 5400, Note_on_c, 0, 61, 0
1, 5400, Note_on_c, 0, 64, 58
1, 5460, Note_on_c, 0, 64, 0
1, 5460, Note_on_c, 0, 64, 57
1, 5520, Note_on_c, 0, 64, 0
1, 5520, Note_on_c, 0, 69, 57
1, 5520, Note_on_c, 0, 64, 57
1, 5520, Note_on_c, 1, 61, 61
1, 5580, Note_on_c, 1, 61, 0
1, 5580, Note_on_c, 1, 57, 61
1, 5610, Note_on_c, 0, 64, 0
1, 5610, Note_on_c, 0, 69, 0
1, 5610, Note_on_c, 0, 71, 57
1, 5625, Note_on_c, 0, 71, 0
1, 5625, Note_on_c, 0, 73, 57
1, 5640, Note_on_c, 0, 73, 0
1, 5640, Note_on_c, 1, 57, 0
1, 5640, Note_on_c, 0, 64, 57
1, 5640, Note_on_c, 0, 71, 57
1, 5640, Note_on_c, 0, 74, 57
1, 5640, Note_on_c, 1, 56, 61
1, 5700, Note_on_c, 1, 56, 0
1, 5700, Note_on_c, 0, 64, 0
1, 5700, Note_on_c, 0, 71, 0
1, 5700, Note_on_c, 0, 74, 0
1, 5700, Note_on_c, 0, 64, 57
1, 5700, Note_on_c, 0, 69, 57
1, 5700, Note_on_c, 0, 73, 57
1, 5700, Note_on_c, 1, 57, 61
1, 5760, Note_on_c, 1, 57, 0
1, 5760, Note_on_c, 0, 64, 0
1, 5760, Note_on_c, 0, 69, 0
1, 5760, Note_on_c, 0, 73, 0
1, 5760, Note_on_c, 0, 73, 58
1, 5760, Note_on_c, 0, 69, 58
1, 5760, Note_on_c, 0, 64, 58
1, 5760, Note_on_c, 1, 52, 61
1, 5820, Note_on_c, 1, 52, 0
1, 5820, Note_on_c, 0, 73, 0
1, 5820, Note_on_c, 0, 69, 0
1, 5820, Note_on_c, 0, 64, 0
1, 5820, Note_on_c, 0, 71, 60
1, 5820, Note_on_c, 0, 68, 60
1, 5820, Note_on_c, 0, 64, 60
1, 5820, Note_on_c, 1, 40, 61
1, 5880, Note_on_c, 1, 40, 0
1, 5880, Note_on_c, 0, 71, 0
1, 5880, Note_on_c, 0, 68, 0
1, 5880, Note_on_c, 0, 64, 0
1, 5880, Note_on_c, 0, 64, 94
1, 5940, Note_on_c, 0, 64, 0
1, 5940, Note_on_c, 0, 64, 97
1, 6000, Note_on_c, 0, 64, 0
1, 6000, Note_on_c, 0, 61, 99
1, 6000, Note_on_c, 0, 69, 99
1, 6000, Note_on_c, 1, 45, 93
1, 6000, Note_on_c, 1, 57, 93
1, 6060, Note_on_c, 0, 69, 0
1, 6060, Note_on_c, 0, 61, 0
1, 6060, Note_on_c, 0, 68, 99
1, 6060, Note_on_c, 0, 64, 99
1, 6120, Note_on_c, 0, 64, 0
1, 6120, Note_on_c, 1, 57, 0
1, 6120, Note_on_c, 1, 45, 0
1, 6120, Note_on_c, 0, 68, 0
1, 6120, Note_on_c, 0, 62, 99
1, 6120, Note_on_c, 0, 66, 99
1, 6120, Note_on_c, 1, 57, 97
1, 6180, Note_on_c, 1, 57, 0
1, 6180, Note_on_c, 0, 66, 0
1, 6180, Note_on_c, 0, 62, 0
1, 6180, Note_on_c, 0, 61, 99
1, 6180, Note_on_c, 0, 64, 99
1, 6180, Note_on_c, 1, 57, 97
1, 6240, Note_on_c, 1, 57, 0
1, 6240, Note_on_c, 0, 64, 0
1, 6240, Note_on_c, 0, 61, 0
1, 6240, Note_on_c, 0, 64, 99
1, 6240, Note_on_c, 0, 68, 99
1, 6240, Note_on_c, 1, 57, 97
1, 6255, Note_on_c, 0, 68, 0
1, 6255, Note_on_c, 0, 64, 0
1, 6255, Note_on_c, 0, 62, 99
1, 6255, Note_on_c, 0, 66, 99
1, 6270, Note_on_c, 0, 66, 0
1, 6270, Note_on_c, 0, 62, 0
1, 6270, Note_on_c, 0, 64, 99
1, 6270, Note_on_c, 0, 68, 99
1, 6285, Note_on_c, 0, 68, 0
1, 6285, Note_on_c, 0, 64, 0
1, 6285, Note_on_c, 0, 62, 99
1, 6285, Note_on_c, 0, 66, 99
1, 6300, Note_on_c, 0, 66, 0
1, 6300, Note_on_c, 0, 62, 0
1, 6300, Note_on_c, 1, 57, 0
1, 6300, Note_on_c, 0, 61, 99
1, 6300, Note_on_c, 0, 64, 99
1, 6300, Note_on_c, 1, 57, 97
1, 6360, Note_on_c, 1, 57, 0
1, 6360, Note_on_c, 0, 64, 0
1, 6360, Note_on_c, 0, 61, 0
1, 6360, Note_on_c, 0, 69, 99
1, 6420, Note_on_c, 0, 69, 0
1, 6420, Note_on_c, 0, 69, 99
1, 6480, Note_on_c, 0, 69, 0
1, 6480, Note_on_c, 0, 66, 100
1, 6480, Note_on_c, 0, 74, 100
1, 6480, Note_on_c, 1, 50, 102
1, 6540, Note_on_c, 1, 50, 0
1, 6540, Note_on_c, 1, 50, 102
1, 6570, Note_on_c, 0, 74, 0
1, 6570, Note_on_c, 0, 66, 0
1, 6570, Note_on_c, 0, 73, 101
1, 6600, Note_on_c, 0, 73, 0
1, 6600, Note_on_c, 1, 50, 0
1, 6600, Note_on_c, 0, 71, 101
1, 6600, Note_on_c, 0, 68, 101
1, 6600, Note_on_c, 1, 52, 102
1, 6660, Note_on_c, 1, 52, 0
1, 6660, Note_on_c, 0, 68, 0
1, 6660, Note_on_c, 0, 71, 0
1, 6660, Note_on_c, 0, 73, 99
1, 6660, Note_on_c, 1, 52, 102
1, 6720, Note_on_c, 1, 52, 0
1, 6720, Note_on_c, 0, 73, 0
1, 6720, Note_on_c, 0, 69, 98
1, 6720, Note_on_c, 0, 61, 98
1, 6720, Note_on_c, 1, 45, 100
1, 6840, Note_on_c, 1, 45, 0
1, 6840, Note_on_c, 0, 61, 0
1, 6840, Note_on_c, 0, 69, 0
1, 6840, Note_on_c, 0, 64, 98
1, 6870, Note_on_c, 0, 64, 0
1, 6870, Note_on_c, 0, 72, 101
1, 6900, Note_on_c, 0, 72, 0
1, 6900, Note_on_c, 0, 76, 102
1, 6930, Note_on_c, 0, 76, 0
1, 6930, Note_on_c, 0, 74, 102
1, 6960, Note_on_c, 0, 74, 0
1, 6960, Note_on_c, 0, 64, 102
1, 6960, Note_on_c, 0, 72, 102
1, 6990, Note_on_c, 1, 57, 95
1, 7020, Note_on_c, 1, 57, 0
1, 7020, Note_on_c, 1, 56, 96
1, 7050, Note_on_c, 1, 56, 0
1, 7050, Note_on_c, 1, 57, 96
1, 7080, Note_on_c, 1, 57, 0
1, 7080, Note_on_c, 0, 72, 0
1, 7080, Note_on_c, 0, 64, 0
1, 7080, Note_on_c, 1, 45, 97
1, 7110, Note_on_c, 0, 64, 99
1, 7140, Note_on_c, 0, 64, 0
1, 7140, Note_on_c, 0, 72, 101
1, 7170, Note_on_c, 0, 72, 0
1, 7170, Note_on_c, 0, 69, 102
1, 7200, Note_on_c, 0, 69, 0
1, 7200, Note_on_c, 1, 45, 0
1, 7200, Note_on_c, 0, 68, 103
1, 7230, Note_on_c, 1, 52, 96
1, 7260, Note_on_c, 1, 52, 0
1, 7260, Note_on_c, 1, 51, 95
1, 7290, Note_on_c, 1, 51, 0
1, 7290, Note_on_c, 1, 52, 94
1, 7320, Note_on_c, 1, 52, 0
1, 7320, Note_on_c, 0, 68, 0
1, 7320, Note_on_c, 0, 64, 100
1, 7320, Note_on_c, 1, 40, 93
1, 7350, Note_on_c, 0, 64, 0
1, 7350, Note_on_c, 0, 71, 102
1, 7380, Note_on_c, 0, 71, 0
1, 7380, Note_on_c, 0, 74, 103
1, 7410, Note_on_c, 0, 74, 0
1, 7410, Note_on_c, 0, 72, 103
1, 7440, Note_on_c, 0, 72, 0
1, 7440, Note_on_c, 1, 40, 0
1, 7440, Note_on_c, 0, 71, 103
1, 7470, Note_on_c, 1, 52, 92
1, 7500, Note_on_c, 1, 52, 0
1, 7500, Note_on_c, 1, 51, 92
1, 7530, Note_on_c, 1, 51, 0
1, 7530, Note_on_c, 1, 52, 92
1, 7560, Note_on_c, 1, 52, 0
1, 7560, Note_on_c, 1, 40, 93
1, 7590, Note_on_c, 0, 71, 0
1, 7590, Note_on_c, 0, 68, 99
1, 7620, Note_on_c, 0, 68, 0
1, 7620, Note_on_c, 0, 64, 101
1, 7650, Note_on_c, 0, 64, 0
1, 7650, Note_on_c, 0, 62, 102
1, 7680, Note_on_c, 0, 62, 0
1, 7680, Note_on_c, 1, 40, 0
1, 7680, Note_on_c, 0, 60, 103
1, 7710, Note_on_c, 1, 45, 98
1, 7740, Note_on_c, 1, 45, 0
1, 7740, Note_on_c, 1, 57, 99
1, 7770, Note_on_c, 1, 57, 0
1, 7770, Note_on_c, 1, 56, 100
1, 7800, Note_on_c, 1, 56, 0
1, 7800, Note_on_c, 1, 57, 100
1, 7860, Note_on_c, 1, 57, 0
1, 7860, Note_on_c, 0, 60, 0
1, 7860, Note_on_c, 0, 61, 105
1, 7860, Note_on_c, 1, 55, 101
1, 7890, Note_on_c, 1, 55, 0
1, 7890, Note_on_c, 1, 57, 101
1, 7920, Note_on_c, 1, 57, 0
1, 7920, Note_on_c, 0, 61, 0
1, 7920, Note_on_c, 0, 62, 105
1, 7920, Note_on_c, 1, 53, 101
1, 7950, Note_on_c, 1, 53, 0
1, 7950, Note_on_c, 1, 57, 101
1, 7980, Note_on_c, 1, 57, 0
1, 7980, Note_on_c, 0, 62, 0
1, 7980, Note_on_c, 0, 64, 105
1, 7980, Note_on_c, 1, 52, 101
1, 8010, Note_on_c, 1, 52, 0
1, 8010, Note_on_c, 1, 57, 101
1, 8040, Note_on_c, 1, 57, 0
1, 8040, Note_on_c, 0, 64, 0
1, 8040, Note_on_c, 0, 65, 105
1, 8040, Note_on_c, 1, 50, 101
1, 8070, Note_on_c, 1, 50, 0
1, 8070, Note_on_c, 1, 57, 101
1, 8100, Note_on_c, 1, 57, 0
1, 8100, Note_on_c, 0, 65, 0
1, 8100, Note_on_c, 0, 67, 105
1, 8100, Note_on_c, 1, 49, 101
1, 8130, Note_on_c, 1, 49, 0
1, 8130, Note_on_c, 1, 57, 101
1, 8160, Note_on_c, 1, 57, 0
1, 8160, Note_on_c, 0, 67, 0
1, 8160, Note_on_c, 0, 65, 105
1, 8160, Note_on_c, 1, 50, 101
1, 8190, Note_on_c, 1, 50, 0
1, 8190, Note_on_c, 1, 57, 101
1, 8220, Note_on_c, 1, 57, 0
1, 8220, Note_on_c, 0, 65, 0
1, 8220, Note_on_c, 0, 64, 105
1, 8220, Note_on_c, 1, 52, 101
1, 8250, Note_on_c, 1, 52, 0
1, 8250, Note_on_c, 1, 57, 101
1, 8280, Note_on_c, 1, 57, 0
1, 8280, Note_on_c, 0, 64, 0
1, 8280, Note_on_c, 0, 62, 104
1, 8280, Note_on_c, 1, 53, 101
1, 8310, Note_on_c, 1, 53, 0
1, 8310, Note_on_c, 1, 57, 101
1, 8340, Note_on_c, 1, 57, 0
1, 8340, Note_on_c, 0, 62, 0
1, 8340, Note_on_c, 0, 61, 103
1, 8340, Note_on_c, 1, 55, 100
1, 8370, Note_on_c, 1, 55, 0
1, 8370, Note_on_c, 1, 57, 100
1, 8400, Note_on_c, 1, 57, 0
1, 8400, Note_on_c, 0, 61, 0
1, 8400, Note_on_c, 0, 62, 102
1, 8400, Note_on_c, 1, 53, 100
1, 8430, Note_on_c, 0, 62, 0
1, 8430, Note_on_c, 0, 64, 102
1, 8460, Note_on_c, 0, 64, 0
1, 8460, Note_on_c, 0, 65, 101
1, 8490, Note_on_c, 0, 65, 0
1, 8490, Note_on_c, 0, 64, 100
1, 8520, Note_on_c, 0, 64, 0
1, 8520, Note_on_c, 1, 53, 0
1, 8520, Note_on_c, 0, 62, 99
1, 8520, Note_on_c, 1, 50, 98
1, 8550, Note_on_c, 0, 62, 0
1, 8550, Note_on_c, 0, 60, 98
1, 8580, Note_on_c, 0, 60, 0
1, 8580, Note_on_c, 1, 50, 0
1, 8580, Note_on_c, 0, 59, 95
1, 8580, Note_on_c, 1, 51, 97
1, 8610, Note_on_c, 0, 59, 0
1, 8610, Note_on_c, 0, 57, 93
1, 8640, Note_on_c, 0, 57, 0
1, 8640, Note_on_c, 1, 51, 0
1, 8640, Note_on_c, 1, 56, 97
1, 8640, Note_on_c, 1, 52, 97
1, 8670, Note_on_c, 1, 56, 0
1, 8670, Note_on_c, 1, 64, 97
1, 8700, Note_on_c, 1, 64, 0
1, 8700, Note_on_c, 1, 59, 96
1, 8730, Note_on_c, 1, 59, 0
1, 8730, Note_on_c, 1, 56, 94
1, 8760, Note_on_c, 1, 56, 0
1, 8760, Note_on_c, 1, 52, 0
1, 8760, Note_on_c, 1, 52, 94
1, 8820, Note_on_c, 1, 40, 91
1, 8880, Key_signature, 0, "major"
1, 8880, Note_on_c, 1, 40, 0
1, 8880, Note_on_c, 1, 52, 0
1, 8880, Note_on_c, 0, 55, 127
1, 8880, Note_on_c, 1, 48, 127
1, 8910, Note_on_c, 0, 55, 0
1, 8910, Note_on_c, 0, 60, 127
1, 8940, Note_on_c, 0, 60, 0
1, 8940, Note_on_c, 0, 64, 127
1, 8970, Note_on_c, 0, 64, 0
1, 8970, Note_on_c, 0, 67, 127
1, 9000, Note_on_c, 0, 67, 0
1, 9000, Note_on_c, 1, 48, 0
1, 9000, Note_on_c, 0, 65, 127
1, 9000, Note_on_c, 1, 36, 127
1, 9030, Note_on_c, 0, 65, 0
1, 9030, Note_on_c, 0, 64, 127
1, 9060, Note_on_c, 0, 64, 0
1, 9060, Note_on_c, 0, 62, 127
1, 9090, Note_on_c, 0, 62, 0
1, 9090, Note_on_c, 0, 60, 127
1, 9120, Note_on_c, 0, 60, 0
1, 9120, Note_on_c, 1, 36, 0
1, 9120, Note_on_c, 0, 59, 127
1, 9120, Note_on_c, 1, 38, 127
1, 9150, Note_on_c, 0, 59, 0
1, 9150, Note_on_c, 0, 60, 127
1, 9180, Note_on_c, 0, 60, 0
1, 9180, Note_on_c, 0, 62, 127
1, 9210, Note_on_c, 0, 62, 0
1, 9210, Note_on_c, 0, 64, 127
1, 9240, Note_on_c, 0, 64, 0
1, 9240, Note_on_c, 1, 38, 0
1, 9240, Note_on_c, 0, 65, 127
1, 9270, Note_on_c, 0, 65, 0
1, 9270, Note_on_c, 0, 64, 127
1, 9300, Note_on_c, 0, 64, 0
1, 9300, Note_on_c, 0, 62, 127
1, 9330, Note_on_c, 0, 62, 0
1, 9330, Note_on_c, 0, 60, 127
1, 9360, Note_on_c, 0, 60, 0
1, 9360, Note_on_c, 0, 59, 127
1, 9360, Note_on_c, 1, 43, 127
1, 9390, Note_on_c, 0, 59, 0
1, 9390, Note_on_c, 0, 60, 127
1, 9420, Note_on_c, 0, 60, 0
1, 9420, Note_on_c, 0, 62, 127
1, 9450, Note_on_c, 0, 62, 0
1, 9450, Note_on_c, 0, 60, 127
1, 9480, Note_on_c, 0, 60, 0
1, 9480, Note_on_c, 1, 43, 0
1, 9480, Note_on_c, 0, 59, 127
1, 9510, Note_on_c, 0, 59, 0
1, 9510, Note_on_c, 0, 57, 127
1, 9540, Note_on_c, 0, 57, 0
1, 9540, Note_on_c, 0, 55, 127
1, 9570, Note_on_c, 0, 55, 0
1, 9570, Note_on_c, 0, 53, 127
1, 9600, Note_on_c, 0, 53, 0
1, 9600, Note_on_c, 0, 52, 127
1, 9600, Note_on_c, 1, 36, 127
1, 9630, Note_on_c, 0, 52, 0
1, 9630, Note_on_c, 0, 55, 127
1, 9660, Note_on_c, 0, 55, 0
1, 9660, Note_on_c, 0, 60, 127
1, 9690, Note_on_c, 0, 60, 0
1, 9690, Note_on_c, 0, 64, 127
1, 9720, Note_on_c, 0, 64, 0
1, 9720, Note_on_c, 1, 36, 0
1, 9720, Note_on_c, 0, 67, 127
1, 9720, Note_on_c, 1, 40, 127
1, 9750, Note_on_c, 0, 67, 0
1, 9750, Note_on_c, 0, 64, 127
1, 9780, Note_on_c, 0, 64, 0
1, 9780, Note_on_c, 0, 62, 127
1, 9810, Note_on_c, 0, 62, 0
1, 9810, Note_on_c, 0, 60, 127
1, 9840, Note_on_c, 0, 60, 0
1, 9840, Note_on_c, 1, 40, 0
1, 9840, Note_on_c, 0, 69, 127
1, 9840, Note_on_c, 1, 41, 127
1, 9870, Note_on_c, 0, 69, 0
1, 9870, Note_on_c, 0, 65, 127
1, 9900, Note_on_c, 0, 65, 0
1, 9900, Note_on_c, 0, 64, 127
1, 9930, Note_on_c, 0, 64, 0
1, 9930, Note_on_c, 0, 62, 127
1, 9960, Note_on_c, 0, 62, 0
1, 9960, Note_on_c, 1, 41, 0
1, 9960, Note_on_c, 0, 61, 127
1, 9990, Note_on_c, 0, 61, 0
1, 9990, Note_on_c, 0, 62, 127
1, 10020, Note_on_c, 0, 62, 0
1, 10020, Note_on_c, 0, 64, 127
1, 10050, Note_on_c, 0, 64, 0
1, 10050, Note_on_c, 0, 62, 127
1, 10080, Note_on_c, 0, 62, 0
1, 10080, Note_on_c, 0, 67, 127
1, 10080, Note_on_c, 1, 43, 127
1, 10110, Note_on_c, 0, 67, 0
1, 10110, Note_on_c, 0, 64, 127
1, 10140, Note_on_c, 0, 64, 0
1, 10140, Note_on_c, 0, 62, 127
1, 10170, Note_on_c, 0, 62, 0
1, 10170, Note_on_c, 0, 60, 127
1, 10200, Note_on_c, 0, 60, 0
1, 10200, Note_on_c, 1, 43, 0
1, 10200, Note_on_c, 0, 65, 127
1, 10200, Note_on_c, 1, 43, 127
1, 10230, Note_on_c, 0, 65, 0
1, 10230, Note_on_c, 0, 62, 127
1, 10260, Note_on_c, 0, 62, 0
1, 10260, Note_on_c, 0, 60, 127
1, 10290, Note_on_c, 0, 60, 0
1, 10290, Note_on_c, 0, 59, 127
1, 10320, Note_on_c, 0, 59, 0
1, 10320, Note_on_c, 1, 43, 0
1, 10320, Note_on_c, 0, 60, 127
1, 10350, Note_on_c, 1, 36, 127
1, 10380, Note_on_c, 1, 36, 0
1, 10380, Note_on_c, 1, 48, 127
1, 10410, Note_on_c, 1, 48, 0
1, 10410, Note_on_c, 1, 50, 127
1, 10440, Note_on_c, 1, 50, 0
1, 10440, Note_on_c, 0, 60, 0
1, 10440, Note_on_c, 1, 52, 127
1, 10470, Note_on_c, 1, 52, 0
1, 10470, Note_on_c, 1, 50, 127
1, 10500, Note_on_c, 1, 50, 0
1, 10500, Note_on_c, 1, 48, 127
1, 10530, Note_on_c, 1, 48, 0
1, 10530, Note_on_c, 1, 47, 127
1, 10560, Note_on_c, 1, 47, 0
1, 10560, Note_on_c, 0, 64, 93
1, 10560, Note_on_c, 1, 45, 97
1, 10590, Note_on_c, 1, 45, 0
1, 10590, Note_on_c, 1, 57, 93
1, 10620, Note_on_c, 1, 57, 0
1, 10620, Note_on_c, 1, 56, 93
1, 10650, Note_on_c, 1, 56, 0
1, 10650, Note_on_c, 1, 57, 93
1, 10680, Note_on_c, 1, 57, 0
1, 10680, Note_on_c, 0, 64, 0
1, 10680, Note_on_c, 1, 45, 93
1, 10710, Note_on_c, 0, 64, 97
1, 10740, Note_on_c, 0, 64, 0
1, 10740, Note_on_c, 0, 72, 97
1, 10770, Note_on_c, 0, 72, 0
1, 10770, Note_on_c, 0, 69, 97
1, 10800, Note_on_c, 0, 69, 0
1, 10800, Note_on_c, 1, 45, 0
1, 10800, Note_on_c, 0, 68, 93
1, 10830, Note_on_c, 1, 52, 97
1, 10860, Note_on_c, 1, 52, 0
1, 10860, Note_on_c, 1, 51, 97
1, 10890, Note_on_c, 1, 51, 0
1, 10890, Note_on_c, 1, 52, 97
1, 10920, Note_on_c, 1, 52, 0
1, 10920, Note_on_c, 0, 68, 0
1, 10920, Note_on_c, 0, 64, 97
1, 10920, Note_on_c, 1, 40, 97
1, 10950, Note_on_c, 0, 64, 0
1, 10950, Note_on_c, 0, 71, 97
1, 10980, Note_on_c, 0, 71, 0
1, 10980, Note_on_c, 0, 74, 97
1, 11010, Note_on_c, 0, 74, 0
1, 11010, Note_on_c, 0, 72, 97
1, 11040, Note_on_c, 0, 72, 0
1, 11040, Note_on_c, 1, 40, 0
1, 11040, Note_on_c, 0, 71, 93
1, 11070, Note_on_c, 1, 52, 97
1, 11100, Note_on_c, 1, 52, 0
1, 11100, Note_on_c, 1, 51, 97
1, 11130, Note_on_c, 1, 51, 0
1, 11130, Note_on_c, 1, 52, 97
1, 11160, Note_on_c, 1, 52, 0
1, 11160, Note_on_c, 1, 40, 97
1, 11190, Note_on_c, 0, 71, 0
1, 11190, Note_on_c, 0, 68, 93
1, 11220, Note_on_c, 0, 68, 0
1, 11220, Note_on_c, 0, 64, 93
1, 11250, Note_on_c, 0, 64, 0
1, 11250, Note_on_c, 0, 62, 93
1, 11280, Note_on_c, 0, 62, 0
1, 11280, Note_on_c, 1, 40, 0
1, 11280, Note_on_c, 0, 60, 97
1, 11310, Note_on_c, 1, 45, 127
1, 11340, Note_on_c, 1, 45, 0
1, 11340, Note_on_c, 0, 60, 0
1, 11340, Note_on_c, 0, 60, 127
1, 11340, Note_on_c, 0, 72, 127
1, 11340, Note_on_c, 1, 57, 127
1, 11370, Note_on_c, 1, 57, 0
1, 11370, Note_on_c, 1, 56, 127
1, 11400, Note_on_c, 1, 56, 0
1, 11400, Note_on_c, 1, 57, 127
1, 11460, Note_on_c, 1, 57, 0
1, 11460, Note_on_c, 0, 72, 0
1, 11460, Note_on_c, 0, 60, 0
1, 11460, Note_on_c, 0, 61, 127
1, 11460, Note_on_c, 0, 73, 127
1, 11460, Note_on_c, 1, 55, 127
1, 11490, Note_on_c, 1, 55, 0
1, 11490, Note_on_c, 1, 57, 127
1, 11520, Note_on_c, 1, 57, 0
1, 11520, Note_on_c, 0, 73, 0
1, 11520, Note_on_c, 0, 61, 0
1, 11520, Note_on_c, 0, 74, 127
1, 11520, Note_on_c, 0, 62, 127
1, 11520, Note_on_c, 1, 53, 127
1, 11550, Note_on_c, 1, 53, 0
1, 11550, Note_on_c, 1, 57, 127
1, 11580, Note_on_c, 1, 57, 0
1, 11580, Note_on_c, 0, 62, 0
1, 11580, Note_on_c, 0, 74, 0
1, 11580, Note_on_c, 0, 76, 127
1, 11580, Note_on_c, 0, 64, 127
1, 11580, Note_on_c, 1, 52, 127
1, 11610, Note_on_c, 1, 52, 0
1, 11610, Note_on_c, 1, 57, 127
1, 11640, Note_on_c, 1, 57, 0
1, 11640, Note_on_c, 0, 64, 0
1, 11640, Note_on_c, 0, 76, 0
1, 11640, Note_on_c, 0, 77, 127
1, 11640, Note_on_c, 0, 65, 127
1, 11640, Note_on_c, 1, 50, 127
1, 11670, Note_on_c, 1, 50, 0
1, 11670, Note_on_c, 1, 57, 127
1, 11700, Note_on_c, 1, 57, 0
1, 11700, Note_on_c, 0, 65, 0
1, 11700, Note_on_c, 0, 77, 0
1, 11700, Note_on_c, 0, 79, 127
1, 11700, Note_on_c, 0, 67, 127
1, 11700, Note_on_c, 1, 49, 127
1, 11730, Note_on_c, 1, 49, 0
1, 11730, Note_on_c, 1, 57, 127
1, 11760, Note_on_c, 1, 57, 0
1, 11760, Note_on_c, 0, 67, 0
1, 11760, Note_on_c, 0, 79, 0
1, 11760, Note_on_c, 0, 65, 127
1, 11760, Note_on_c, 0, 77, 127
1, 11760, Note_on_c, 1, 50, 127
1, 11790, Note_on_c, 1, 50, 0
1, 11790, Note_on_c, 1, 57, 127
1, 11820, Note_on_c, 1, 57, 0
1, 11820, Note_on_c, 0, 77, 0
1, 11820, Note_on_c, 0, 65, 0
1, 11820, Note_on_c, 0, 64, 127
1, 11820, Note_on_c, 0, 76, 127
1, 11820, Note_on_c, 1, 52, 127
1, 11850, Note_on_c, 1, 52, 0
1, 11850, Note_on_c, 1, 57, 127
1, 11880, Note_on_c, 1, 57, 0
1, 11880, Note_on_c, 0, 76, 0
1, 11880, Note_on_c, 0, 64, 0
1, 11880, Note_on_c, 0, 62, 127
1, 11880, Note_on_c, 0, 74, 127
1, 11880, Note_on_c, 1, 53, 127
1, 11910, Note_on_c, 1, 53, 0
1, 11910, Note_on_c, 1, 57, 127
1, 11940, Note_on_c, 1, 57, 0
1, 11940, Note_on_c, 0, 74, 0
1, 11940, Note_on_c, 0, 62, 0
1, 11940, Note_on_c, 0, 61, 127
1, 11940, Note_on_c, 0, 73, 127
1, 11940, Note_on_c, 1, 55, 127
1, 11970, Note_on_c, 1, 55, 0
1, 11970, Note_on_c, 1, 57, 127
1, 12000, Note_on_c, 1, 57, 0
1, 12000, Note_on_c, 0, 73, 0
1, 12000, Note_on_c, 0, 61, 0
1, 12000, Note_on_c, 0, 62, 127
1, 12000, Note_on_c, 0, 74, 127
1, 12000, Note_on_c, 1, 53, 127
1, 12060, Note_on_c, 0, 74, 0
1, 12060, Note_on_c, 0, 62, 0
1, 12060, Note_on_c, 0, 74, 127
1, 12120, Note_on_c, 1, 53, 0
1, 12120, Note_on_c, 1, 50, 127
1, 12150, Note_on_c, 0, 74, 0
1, 12150, Note_on_c, 0, 77, 127
1, 12180, Note_on_c, 0, 77, 0
1, 12180, Note_on_c, 0, 76, 127
1, 12210, Note_on_c, 0, 76, 0
1, 12210, Note_on_c, 0, 74, 127
1, 12240, Note_on_c, 0, 74, 0
1, 12240, Note_on_c, 1, 50, 0
1, 12240, Note_on_c, 0, 72, 127
1, 12240, Note_on_c, 1, 52, 127
1, 12270, Note_on_c, 0, 72, 0
1, 12270, Note_on_c, 0, 76, 127
1, 12300, Note_on_c, 0, 76, 0
1, 12300, Note_on_c, 0, 74, 127
1, 12330, Note_on_c, 0, 74, 0
1, 12330, Note_on_c, 0, 71, 127
1, 12360, Note_on_c, 0, 71, 0
1, 12360, Note_on_c, 1, 52, 0
1, 12360, Note_on_c, 0, 69, 127
1, 12360, Note_on_c, 1, 40, 127
1, 12390, Note_on_c, 0, 69, 0
1, 12390, Note_on_c, 0, 72, 127
1, 12420, Note_on_c, 0, 72, 0
1, 12420, Note_on_c, 0, 71, 127
1, 12450, Note_on_c, 0, 71, 0
1, 12450, Note_on_c, 0, 68, 127
1, 12480, Key_signature, 3, "major"
1, 12480, Note_on_c, 0, 68, 0
1, 12480, Note_on_c, 1, 40, 0
1, 12480, Note_on_c, 0, 69, 127
1, 12480, Note_on_c, 1, 45, 127
1, 12600, Tempo, 594059
1, 12600, Note_on_c, 1, 45, 0
1, 12600, Note_on_c, 0, 69, 0
1, 12600, Note_on_c, 0, 64, 55
1, 12660, Note_on_c, 0, 64, 0
1, 12660, Note_on_c, 0, 64, 58
1, 12720, Note_on_c, 0, 64, 0
1, 12720, Note_on_c, 0, 61, 60
1, 12720, Note_on_c, 0, 69, 60
1, 12720, Note_on_c, 1, 45, 66
1, 12720, Note_on_c, 1, 57, 66
1, 12780, Note_on_c, 0, 69, 0
1, 12780, Note_on_c, 0, 61, 0
1, 12780, Note_on_c, 0, 68, 62
1, 12780, Note_on_c, 0, 64, 62
1, 12840, Note_on_c, 0, 64, 0
1, 12840, Note_on_c, 1, 57, 0
1, 12840, Note_on_c, 1, 45, 0
1, 12840, Note_on_c, 0, 68, 0
1, 12840, Note_on_c, 0, 62, 64
1, 12840, Note_on_c, 0, 66, 64
1, 12840, Note_on_c, 1, 45, 71
1, 12840, Note_on_c, 1, 57, 71
1, 12900, Note_on_c, 1, 57, 0
1, 12900, Note_on_c, 0, 62, 0
1, 12900, Note_on_c, 0, 66, 0
1, 12900, Note_on_c, 1, 45, 0
1, 12900, Note_on_c, 0, 64, 66
1, 12900, Note_on_c, 0, 61, 66
1, 12900, Note_on_c, 1, 45, 71
1, 12900, Note_on_c, 1, 57, 73
1, 12960, Note_on_c, 1, 57, 0
1, 12960, Note_on_c, 0, 64, 0
1, 12960, Note_on_c, 0, 61, 0
1, 12960, Note_on_c, 1, 45, 0
1, 12960, Note_on_c, 0, 64, 71
1, 12960, Note_on_c, 0, 68, 71
1, 12960, Note_on_c, 1, 57, 75
1, 12975, Note_on_c, 0, 68, 0
1, 12975, Note_on_c, 0, 64, 0
1, 12975, Note_on_c, 0, 62, 71
1, 12975, Note_on_c, 0, 66, 71
1, 12990, Note_on_c, 0, 66, 0
1, 12990, Note_on_c, 0, 62, 0
1, 12990, Note_on_c, 0, 64, 71
1, 12990, Note_on_c, 0, 68, 71
1, 13005, Note_on_c, 0, 68, 0
1, 13005, Note_on_c, 0, 64, 0
1, 13005, Note_on_c, 0, 62, 71
1, 13005, Note_on_c, 0, 66, 71
1, 13020, Note_on_c, 0, 66, 0
1, 13020, Note_on_c, 0, 62, 0
1, 13020, Note_on_c, 1, 57, 0
1, 13020, Note_on_c, 0, 61, 67
1, 13020, Note_on_c, 0, 64, 67
1, 13020, Note_on_c, 1, 57, 76
1, 13080, Note_on_c, 1, 57, 0
1, 13080, Note_on_c, 0, 64, 0
1, 13080, Note_on_c, 0, 61, 0
1, 13080, Note_on_c, 0, 64, 67
1, 13140, Note_on_c, 0, 64, 0
1, 13140, Note_on_c, 0, 64, 67
1, 13200, Note_on_c, 0, 64, 0
1, 13200, Note_on_c, 0, 69, 67
1, 13200, Note_on_c, 0, 64, 67
1, 13200, Note_on_c, 1, 61, 77
1, 13260, Note_on_c, 1, 61, 0
1, 13260, Note_on_c, 0, 64, 0
1, 13260, Note_on_c, 0, 69, 0
1, 13260, Note_on_c, 0, 71, 66
1, 13260, Note_on_c, 1, 57, 75
1, 13290, Note_on_c, 0, 71, 0
1, 13290, Note_on_c, 0, 73, 65
1, 13320, Note_on_c, 0, 73, 0
1, 13320, Note_on_c, 1, 57, 0
1, 13320, Note_on_c, 0, 64, 64
1, 13320, Note_on_c, 0, 74, 64
1, 13320, Note_on_c, 0, 71, 64
1, 13320, Note_on_c, 1, 56, 74
1, 13365, Tempo, 600000
1, 13380, Note_on_c, 1, 56, 0
1, 13380, Note_on_c, 0, 64, 0
1, 13380, Note_on_c, 0, 74, 0
1, 13380, Note_on_c, 0, 71, 0
1, 13380, Note_on_c, 0, 73, 61
1, 13380, Note_on_c, 0, 64, 61
1, 13380, Note_on_c, 0, 69, 61
1, 13380, Note_on_c, 1, 57, 71
1, 13400, Tempo, 606061
1, 13415, Tempo, 612245
1, 13425, Tempo, 618557
1, 13440, Tempo, 612245
1, 13440, Note_on_c, 1, 57, 0
1, 13440, Note_on_c, 0, 73, 0
1, 13440, Note_on_c, 0, 64, 0
1, 13440, Note_on_c, 0, 69, 0
1, 13440, Note_on_c, 0, 64, 59
1, 13440, Note_on_c, 0, 69, 59
1, 13440, Note_on_c, 0, 73, 59
1, 13440, Note_on_c, 1, 52, 68
1, 13450, Tempo, 618557
1, 13465, Tempo, 625000
1, 13480, Tempo, 631579
1, 13490, Tempo, 638298
1, 13500, Note_on_c, 1, 52, 0
1, 13500, Note_on_c, 0, 64, 0
1, 13500, Note_on_c, 0, 69, 0
1, 13500, Note_on_c, 0, 73, 0
1, 13500, Note_on_c, 0, 64, 57
1, 13500, Note_on_c, 0, 71, 57
1, 13500, Note_on_c, 0, 68, 57
1, 13500, Note_on_c, 1, 40, 63
1, 13505, Tempo, 645161
1, 13520, Tempo, 652174
1, 13530, Tempo, 659341
1, 13545, Tempo, 666667
1, 13560, Tempo, 674157
1, 13560, Note_on_c, 1, 40, 0
1, 13560, Note_on_c, 0, 64, 0
1, 13560, Note_on_c, 0, 71, 0
1, 13560, Note_on_c, 0, 68, 0
1, 13560, Note_on_c, 0, 64, 94
1, 13570, Tempo, 594059
1, 13620, Note_on_c, 0, 64, 0
1, 13620, Note_on_c, 0, 64, 98
1, 13680, Note_on_c, 0, 64, 0
1, 13680, Note_on_c, 0, 61, 99
1, 13680, Note_on_c, 0, 69, 99
1, 13680, Note_on_c, 1, 45, 88
1, 13680, Note_on_c, 1, 57, 88
1, 13740, Note_on_c, 0, 69, 0
1, 13740, Note_on_c, 0, 61, 0
1, 13740, Note_on_c, 0, 64, 100
1, 13740, Note_on_c, 0, 68, 100
1, 13800, Note_on_c, 0, 68, 0
1, 13800, Note_on_c, 1, 57, 0
1, 13800, Note_on_c, 1, 45, 0
1, 13800, Note_on_c, 0, 64, 0
1, 13800, Note_on_c, 0, 62, 101
1, 13800, Note_on_c, 0, 66, 101
1, 13800, Note_on_c, 1, 45, 93
1, 13800, Note_on_c, 1, 57, 93
1, 13860, Note_on_c, 1, 57, 0
1, 13860, Note_on_c, 0, 62, 0
1, 13860, Note_on_c, 0, 66, 0
1, 13860, Note_on_c, 1, 45, 0
1, 13860, Note_on_c, 0, 64, 101
1, 13860, Note_on_c, 0, 61, 101
1, 13860, Note_on_c, 1, 45, 93
1, 13860, Note_on_c, 1, 57, 94
1, 13920, Note_on_c, 1, 57, 0
1, 13920, Note_on_c, 0, 64, 0
1, 13920, Note_on_c, 0, 61, 0
1, 13920, Note_on_c, 1, 45, 0
1, 13920, Note_on_c, 0, 64, 93
1, 13920, Note_on_c, 0, 68, 93
1, 13920, Note_on_c, 1, 57, 94
1, 13935, Note_on_c, 0, 68, 0
1, 13935, Note_on_c, 0, 64, 0
1, 13935, Note_on_c, 0, 62, 93
1, 13935, Note_on_c, 0, 66, 93
1, 13950, Note_on_c, 0, 66, 0
1, 13950, Note_on_c, 0, 62, 0
1, 13950, Note_on_c, 0, 64, 93
1, 13950, Note_on_c, 0, 68, 93
1, 13965, Note_on_c, 0, 68, 0
1, 13965, Note_on_c, 0, 64, 0
1, 13965, Note_on_c, 0, 62, 93
1, 13965, Note_on_c, 0, 66, 93
1, 13980, Note_on_c, 0, 66, 0
1, 13980, Note_on_c, 0, 62, 0
1, 13980, Note_on_c, 1, 57, 0
1, 13980, Note_on_c, 0, 61, 101
1, 13980, Note_on_c, 0, 64, 101
1, 13980, Note_on_c, 1, 57, 95
1, 14040, Tempo, 600000
1, 14040, Note_on_c, 1, 57, 0
1, 14040, Note_on_c, 0, 64, 0
1, 14040, Note_on_c, 0, 61, 0
1, 14040, Note_on_c, 0, 69, 101
1, 14075, Tempo, 606061
1, 14085, Tempo, 612245
1, 14100, Note_on_c, 0, 69, 0
1, 14100, Note_on_c, 0, 69, 102
1, 14115, Tempo, 618557
1, 14140, Tempo, 625000
1, 14155, Tempo, 631579
1, 14160, Note_on_c, 0, 69, 0
1, 14160, Note_on_c, 0, 66, 120
1, 14160, Note_on_c, 0, 74, 120
1, 14160, Note_on_c, 1, 50, 102
1, 14175, Tempo, 638298
1, 14195, Tempo, 645161
1, 14210, Tempo, 652174
1, 14220, Tempo, 659341
1, 14220, Note_on_c, 1, 50, 0
1, 14220, Note_on_c, 1, 52, 96
1, 14230, Tempo, 666667
1, 14240, Tempo, 674157
1, 14250, Tempo, 697674
1, 14250, Note_on_c, 0, 74, 0
1, 14250, Note_on_c, 0, 66, 0
1, 14250, Note_on_c, 0, 73, 94
1, 14260, Tempo, 705882
1, 14265, Tempo, 714286
1, 14270, Tempo, 722892
1, 14275, Tempo, 731707
1, 14280, Note_on_c, 0, 73, 0
1, 14280, Note_on_c, 1, 52, 0
1, 14280, Note_on_c, 0, 71, 89
1, 14280, Note_on_c, 0, 68, 89
1, 14280, Note_on_c, 1, 52, 89
1, 14285, Tempo, 740741
1, 14290, Tempo, 750000
1, 14295, Tempo, 759494
1, 14300, Tempo, 769231
1, 14310, Tempo, 779221
1, 14315, Tempo, 789474
1, 14320, Tempo, 800000
1, 14325, Tempo, 810811
1, 14335, Tempo, 821918
1, 14340, Tempo, 833333
1, 14340, Note_on_c, 1, 52, 0
1, 14340, Note_on_c, 0, 68, 0
1, 14340, Note_on_c, 0, 71, 0
1, 14340, Note_on_c, 0, 73, 82
1, 14340, Note_on_c, 1, 52, 83
1, 14345, Tempo, 845070
1, 14350, Tempo, 857143
1, 14360, Tempo, 869565
1, 14365, Tempo, 882353
1, 14370, Tempo, 895522
1, 14375, Tempo, 909091
1, 14385, Tempo, 923077
1, 14390, Tempo, 937500
1, 14395, Tempo, 967742
1, 14400, Key_signature, 2, "major"
1, 14400, Note_on_c, 1, 52, 0
1, 14400, Note_on_c, 0, 73, 0
1, 14400, Note_on_c, 0, 61, 76
1, 14400, Note_on_c, 0, 69, 76
1, 14400, Note_on_c, 1, 57, 74
1, 14400, Note_on_c, 1, 45, 74
1, 14500, Tempo, 722892
1, 14520, Note_on_c, 1, 45, 0
1, 14520, Note_on_c, 0, 61, 0
1, 14520, Note_on_c, 0, 69, 0
1, 14520, Note_on_c, 1, 57, 0
1, 14520, Note_on_c, 0, 69, 65
1, 14520, Note_on_c, 0, 66, 65
1, 14640, Note_on_c, 0, 66, 0
1, 14640, Note_on_c, 0, 69, 0
1, 14640, Note_on_c, 0, 66, 65
1, 14640, Note_on_c, 0, 69, 65
1, 14640, Note_on_c, 1, 50, 67
1, 14660, Note_on_c, 0, 69, 0
1, 14660, Note_on_c, 0, 66, 0
1, 14660, Note_on_c, 0, 67, 65
1, 14660, Note_on_c, 0, 71, 65
1, 14680, Note_on_c, 0, 71, 0
1, 14680, Note_on_c, 0, 67, 0
1, 14680, Note_on_c, 0, 69, 65
1, 14680, Note_on_c, 0, 66, 65
1, 14700, Note_on_c, 0, 66, 0
1, 14700, Note_on_c, 0, 69, 0
1, 14700, Note_on_c, 0, 71, 65
1, 14700, Note_on_c, 0, 74, 65
1, 14720, Note_on_c, 0, 74, 0
1, 14720, Note_on_c, 0, 71, 0
1, 14720, Note_on_c, 0, 73, 65
1, 14720, Note_on_c, 0, 69, 65
1, 14740, Note_on_c, 0, 69, 0
1, 14740, Note_on_c, 0, 73, 0
1, 14740, Note_on_c, 0, 67, 65
1, 14740, Note_on_c, 0, 71, 65
1, 14760, Note_on_c, 0, 71, 0
1, 14760, Note_on_c, 0, 67, 0
1, 14760, Note_on_c, 1, 50, 0
1, 14760, Note_on_c, 0, 66, 65
1, 14760, Note_on_c, 0, 69, 65
1, 14760, Note_on_c, 1, 38, 67
1, 14780, Note_on_c, 0, 69, 0
1, 14780, Note_on_c, 0, 66, 0
1, 14780, Note_on_c, 0, 71, 65
1, 14780, Note_on_c, 0, 67, 65
1, 14800, Note_on_c, 0, 67, 0
1, 14800, Note_on_c, 0, 71, 0
1, 14800, Note_on_c, 0, 69, 65
1, 14800, Note_on_c, 0, 66, 65
1, 14820, Note_on_c, 0, 66, 0
1, 14820, Note_on_c, 0, 69, 0
1, 14820, Note_on_c, 0, 66, 65
1, 14820, Note_on_c, 0, 69, 65
1, 14840, Note_on_c, 0, 69, 0
1, 14840, Note_on_c, 0, 66, 0
1, 14840, Note_on_c, 0, 64, 65
1, 14840, Note_on_c, 0, 67, 65
1, 14860, Note_on_c, 0, 67, 0
1, 14860, Note_on_c, 0, 64, 0
1, 14860, Note_on_c, 0, 66, 65
1, 14860, Note_on_c, 0, 62, 65
1, 14880, Note_on_c, 0, 62, 0
1, 14880, Note_on_c, 0, 66, 0
1, 14880, Note_on_c, 1, 38, 0
1, 14880, Note_on_c, 0, 61, 93
1, 14880, Note_on_c, 0, 64, 93
1, 14880, Note_on_c, 1, 45, 83
1, 14910, Note_on_c, 0, 64, 0
1, 14910, Note_on_c, 0, 61, 0
1, 14910, Note_on_c, 0, 69, 96
1, 14940, Note_on_c, 0, 69, 0
1, 14940, Note_on_c, 0, 73, 97
1, 14970, Note_on_c, 0, 73, 0
1, 14970, Note_on_c, 0, 74, 98
1, 15000, Note_on_c, 0, 74, 0
1, 15000, Note_on_c, 1, 45, 0
1, 15000, Note_on_c, 0, 76, 99
1, 15030, Note_on_c, 0, 76, 0
1, 15030, Note_on_c, 0, 73, 100
1, 15060, Note_on_c, 0, 73, 0
1, 15060, Note_on_c, 0, 69, 101
1, 15090, Note_on_c, 0, 69, 0
1, 15090, Note_on_c, 0, 67, 103
1, 15120, Note_on_c, 0, 67, 0
1, 15120, Note_on_c, 0, 66, 103
1, 15120, Note_on_c, 1, 50, 92
1, 15140, Note_on_c, 0, 66, 0
1, 15140, Note_on_c, 0, 67, 104
1, 15160, Note_on_c, 0, 67, 0
1, 15160, Note_on_c, 0, 66, 104
1, 15180, Note_on_c, 0, 66, 0
1, 15180, Note_on_c, 0, 78, 104
1, 15200, Note_on_c, 0, 78, 0
1, 15200, Note_on_c, 0, 76, 104
1, 15220, Note_on_c, 0, 76, 0
1, 15220, Note_on_c, 0, 74, 104
1, 15240, Note_on_c, 0, 74, 0
1, 15240, Note_on_c, 0, 73, 104
1, 15260, Note_on_c, 0, 73, 0
1, 15260, Note_on_c, 0, 74, 105
1, 15280, Note_on_c, 0, 74, 0
1, 15280, Note_on_c, 0, 73, 105
1, 15300, Note_on_c, 0, 73, 0
1, 15300, Note_on_c, 1, 50, 0
1, 15300, Note_on_c, 0, 71, 105
1, 15300, Note_on_c, 1, 51, 96
1, 15320, Note_on_c, 0, 71, 0
1, 15320, Note_on_c, 0, 73, 105
1, 15340, Note_on_c, 0, 73, 0
1, 15340, Note_on_c, 0, 69, 106
1, 15360, Note_on_c, 0, 69, 0
1, 15360, Note_on_c, 1, 51, 0
1, 15360, Note_on_c, 0, 68, 106
1, 15360, Note_on_c, 1, 52, 97
1, 15380, Note_on_c, 0, 68, 0
1, 15380, Note_on_c, 0, 71, 106
1, 15400, Note_on_c, 0, 71, 0
1, 15400, Note_on_c, 0, 69, 107
1, 15420, Note_on_c, 0, 69, 0
1, 15420, Note_on_c, 0, 68, 107
1, 15440, Note_on_c, 0, 68, 0
1, 15440, Note_on_c, 0, 66, 107
1, 15460, Note_on_c, 0, 66, 0
1, 15460, Note_on_c, 0, 64, 107
1, 15480, Note_on_c, 0, 64, 0
1, 15480, Note_on_c, 1, 52, 0
1, 15480, Note_on_c, 0, 73, 107
1, 15480, Note_on_c, 0, 76, 107
1, 15480, Note_on_c, 1, 40, 100
1, 15500, Note_on_c, 0, 76, 0
1, 15500, Note_on_c, 0, 73, 0
1, 15500, Note_on_c, 0, 64, 107
1, 15500, Note_on_c, 0, 64, 107
1, 15520, Note_on_c, 0, 64, 0
1, 15520, Note_on_c, 0, 64, 0
1, 15520, Note_on_c, 0, 73, 107
1, 15520, Note_on_c, 0, 76, 107
1, 15540, Note_on_c, 0, 76, 0
1, 15540, Note_on_c, 0, 73, 0
1, 15540, Note_on_c, 0, 73, 107
1, 15540, Note_on_c, 0, 76, 107
1, 15560, Note_on_c, 0, 76, 0
1, 15560, Note_on_c, 0, 73, 0
1, 15560, Note_on_c, 0, 71, 107
1, 15560, Note_on_c, 0, 74, 107
1, 15580, Note_on_c, 0, 74, 0
1, 15580, Note_on_c, 0, 71, 0
1, 15580, Note_on_c, 0, 73, 107
1, 15580, Note_on_c, 0, 69, 107
1, 15600, Note_on_c, 0, 69, 0
1, 15600, Note_on_c, 0, 73, 0
1, 15600, Note_on_c, 1, 40, 0
1, 15600, Note_on_c, 0, 71, 107
1, 15600, Note_on_c, 0, 74, 107
1, 15600, Note_on_c, 1, 52, 102
1, 15620, Note_on_c, 0, 74, 0
1, 15620, Note_on_c, 0, 71, 0
1, 15620, Note_on_c, 0, 74, 107
1, 15620, Note_on_c, 0, 74, 107
1, 15640, Note_on_c, 0, 74, 0
1, 15640, Note_on_c, 0, 74, 0
1, 15640, Note_on_c, 0, 71, 107
1, 15640, Note_on_c, 0, 71, 107
1, 15660, Note_on_c, 0, 71, 0
1, 15660, Note_on_c, 0, 71, 0
1, 15660, Note_on_c, 1, 52, 0
1, 15660, Note_on_c, 0, 68, 107
1, 15660, Note_on_c, 1, 40, 102
1, 15680, Note_on_c, 0, 68, 0
1, 15680, Note_on_c, 0, 66, 107
1, 15700, Note_on_c, 0, 66, 0
1, 15700, Note_on_c, 0, 64, 107
1, 15720, Note_on_c, 0, 64, 0
1, 15720, Note_on_c, 1, 40, 0
1, 15720, Note_on_c, 0, 71, 107
1, 15720, Note_on_c, 0, 74, 107
1, 15720, Note_on_c, 1, 52, 102
1, 15740, Note_on_c, 0, 74, 0
1, 15740, Note_on_c, 0, 71, 0
1, 15740, Note_on_c, 0, 64, 107
1, 15740, Note_on_c, 0, 64, 107
1, 15760, Note_on_c, 0, 64, 0
1, 15760, Note_on_c, 0, 64, 0
1, 15760, Note_on_c, 0, 71, 107
1, 15760, Note_on_c, 0, 74, 107
1, 15780, Note_on_c, 0, 74, 0
1, 15780, Note_on_c, 0, 71, 0
1, 15780, Note_on_c, 0, 74, 107
1, 15780, Note_on_c, 0, 71, 107
1, 15800, Note_on_c, 0, 71, 0
1, 15800, Note_on_c, 0, 74, 0
1, 15800, Note_on_c, 0, 69, 107
1, 15800, Note_on_c, 0, 73, 107
1, 15820, Note_on_c, 0, 73, 0
1, 15820, Note_on_c, 0, 69, 0
1, 15820, Note_on_c, 0, 71, 107
1, 15820, Note_on_c, 0, 68, 107
1, 15840, Note_on_c, 0, 68, 0
1, 15840, Note_on_c, 0, 71, 0
1, 15840, Note_on_c, 1, 52, 0
1, 15840, Note_on_c, 0, 73, 107
1, 15840, Note_on_c, 1, 45, 102
1, 15860, Note_on_c, 0, 73, 0
1, 15860, Note_on_c, 0, 69, 107
1, 15880, Note_on_c, 0, 69, 0
1, 15880, Note_on_c, 0, 73, 107
1, 15900, Note_on_c, 0, 73, 0
1, 15900, Note_on_c, 1, 45, 0
1, 15900, Note_on_c, 0, 74, 107
1, 15900, Note_on_c, 1, 47, 102
1, 15920, Note_on_c, 0, 74, 0
1, 15920, Note_on_c, 0, 69, 107
1, 15940, Note_on_c, 0, 69, 0
1, 15940, Note_on_c, 0, 74, 107
1, 15960, Note_on_c, 0, 74, 0
1, 15960, Note_on_c, 1, 47, 0
1, 15960, Note_on_c, 0, 76, 107
1, 15960, Note_on_c, 1, 49, 102
1, 15980, Note_on_c, 0, 76, 0
1, 15980, Note_on_c, 0, 69, 107
1, 16000, Note_on_c, 0, 69, 0
1, 16000, Note_on_c, 0, 76, 107
1, 16020, Note_on_c, 0, 76, 0
1, 16020, Note_on_c, 1, 49, 0
1, 16020, Note_on_c, 0, 78, 107
1, 16020, Note_on_c, 1, 50, 102
1, 16040, Note_on_c, 0, 78, 0
1, 16040, Note_on_c, 0, 69, 107
1, 16060, Note_on_c, 0, 69, 0
1, 16060, Note_on_c, 0, 78, 107
1, 16080, Note_on_c, 0, 78, 0
1, 16080, Note_on_c, 1, 50, 0
1, 16080, Note_on_c, 0, 80, 107
1, 16080, Note_on_c, 1, 52, 102
1, 16100, Note_on_c, 0, 80, 0
1, 16100, Note_on_c, 0, 69, 107
1, 16120, Note_on_c, 0, 69, 0
1, 16120, Note_on_c, 0, 80, 107
1, 16140, Note_on_c, 0, 80, 0
1, 16140, Note_on_c, 1, 52, 0
1, 16140, Note_on_c, 0, 81, 107
1, 16140, Note_on_c, 1, 54, 102
1, 16160, Note_on_c, 0, 81, 0
1, 16160, Note_on_c, 0, 69, 107
1, 16180, Note_on_c, 0, 69, 0
1, 16180, Note_on_c, 0, 81, 107
1, 16200, Note_on_c, 0, 81, 0
1, 16200, Note_on_c, 1, 54, 0
1, 16200, Note_on_c, 0, 80, 106
1, 16200, Note_on_c, 1, 52, 102
1, 16220, Note_on_c, 0, 80, 0
1, 16220, Note_on_c, 0, 69, 106
1, 16240, Note_on_c, 0, 69, 0
1, 16240, Note_on_c, 0, 80, 105
1, 16260, Note_on_c, 0, 80, 0
1, 16260, Note_on_c, 1, 52, 0
1, 16260, Note_on_c, 0, 78, 104
1, 16260, Note_on_c, 1, 50, 101
1, 16280, Note_on_c, 0, 78, 0
1, 16280, Note_on_c, 0, 69, 104
1, 16300, Note_on_c, 0, 69, 0
1, 16300, Note_on_c, 0, 78, 103
1, 16320, Note_on_c, 0, 78, 0
1, 16320, Note_on_c, 1, 50, 0
1, 16320, Note_on_c, 0, 76, 103
1, 16320, Note_on_c, 1, 49, 100
1, 16340, Note_on_c, 0, 76, 0
1, 16340, Note_on_c, 0, 81, 102
1, 16360, Note_on_c, 0, 81, 0
1, 16360, Note_on_c, 0, 80, 101
1, 16380, Note_on_c, 0, 80, 0
1, 16380, Note_on_c, 1, 49, 0
1, 16380, Note_on_c, 0, 78, 100
1, 16380, Note_on_c, 1, 50, 98
1, 16400, Note_on_c, 0, 78, 0
1, 16400, Note_on_c, 0, 76, 100
1, 16420, Note_on_c, 0, 76, 0
1, 16420, Note_on_c, 0, 74, 100
1, 16440, Note_on_c, 0, 74, 0
1, 16440, Note_on_c, 1, 50, 0
1, 16440, Note_on_c, 0, 73, 98
1, 16440, Note_on_c, 0, 76, 98
1, 16440, Note_on_c, 1, 52, 97
1, 16460, Note_on_c, 0, 76, 0
1, 16460, Note_on_c, 0, 73, 0
1, 16460, Note_on_c, 0, 74, 98
1, 16460, Note_on_c, 0, 78, 98
1, 16480, Note_on_c, 0, 78, 0
1, 16480, Note_on_c, 0, 74, 0
1, 16480, Note_on_c, 0, 73, 97
1, 16480, Note_on_c, 0, 76, 97
1, 16500, Note_on_c, 0, 76, 0
1, 16500, Note_on_c, 0, 73, 0
1, 16500, Note_on_c, 1, 52, 0
1, 16500, Note_on_c, 0, 71, 96
1, 16500, Note_on_c, 0, 74, 96
1, 16500, Note_on_c, 1, 40, 95
1, 16520, Note_on_c, 0, 74, 0
1, 16520, Note_on_c, 0, 71, 0
1, 16520, Note_on_c, 0, 69, 96
1, 16520, Note_on_c, 0, 73, 96
1, 16540, Note_on_c, 0, 73, 0
1, 16540, Note_on_c, 0, 69, 0
1, 16540, Note_on_c, 0, 71, 95
1, 16540, Note_on_c, 0, 68, 95
1, 16560, Note_on_c, 0, 68, 0
1, 16560, Note_on_c, 0, 71, 0
1, 16560, Note_on_c, 1, 40, 0
1, 16560, Note_on_c, 0, 69, 94
1, 16560, Note_on_c, 1, 45, 92
1, 16580, Note_on_c, 1, 45, 0
1, 16580, Note_on_c, 1, 49, 89
1, 16600, Note_on_c, 1, 49, 0
1, 16600, Note_on_c, 1, 52, 88
1, 16620, Note_on_c, 1, 52, 0
1, 16620, Note_on_c, 0, 69, 0
1, 16620, Note_on_c, 1, 57, 88
1, 16640, Note_on_c, 1, 57, 0
1, 16640, Note_on_c, 1, 58, 88
1, 16660, Note_on_c, 1, 58, 0
1, 16660, Note_on_c, 1, 59, 88
1, 16680, Note_on_c, 1, 59, 0
1, 16680, Note_on_c, 1, 60, 87
1, 16700, Note_on_c, 1, 60, 0
1, 16700, Note_on_c, 1, 59, 87
1, 16720, Note_on_c, 1, 59, 0
1, 16720, Note_on_c, 1, 57, 87
1, 16740, Note_on_c, 1, 57, 0
1, 16740, Note_on_c, 1, 55, 87
1, 16760, Note_on_c, 1, 55, 0
1, 16760, Note_on_c, 1, 54, 87
1, 16780, Note_on_c, 1, 54, 0
1, 16780, Note_on_c, 1, 52, 86
1, 16800, Note_on_c, 1, 52, 0
1, 16800, Note_on_c, 1, 51, 86
1, 16820, Note_on_c, 0, 71, 94
1, 16840, Note_on_c, 0, 71, 0
1, 16840, Note_on_c, 0, 75, 95
1, 16860, Note_on_c, 0, 75, 0
1, 16860, Note_on_c, 1, 51, 0
1, 16860, Note_on_c, 0, 78, 95
1, 16880, Note_on_c, 0, 78, 0
1, 16880, Note_on_c, 0, 79, 95
1, 16900, Note_on_c, 0, 79, 0
1, 16900, Note_on_c, 0, 80, 95
1, 16920, Note_on_c, 0, 80, 0
1, 16920, Note_on_c, 0, 81, 95
1, 16920, Note_on_c, 1, 47, 86
1, 16940, Note_on_c, 0, 81, 0
1, 16940, Note_on_c, 0, 78, 95
1, 16960, Note_on_c, 0, 78, 0
1, 16960, Note_on_c, 0, 75, 95
1, 16980, Note_on_c, 0, 75, 0
1, 16980, Note_on_c, 0, 71, 95
1, 17000, Note_on_c, 0, 71, 0
1, 17000, Note_on_c, 0, 72, 95
1, 17020, Note_on_c, 0, 72, 0
1, 17020, Note_on_c, 0, 69, 96
1, 17040, Note_on_c, 0, 69, 0
1, 17040, Note_on_c, 1, 47, 0
1, 17040, Note_on_c, 0, 67, 96
1, 17040, Note_on_c, 1, 40, 94
1, 17060, Note_on_c, 1, 40, 0
1, 17060, Note_on_c, 1, 43, 94
1, 17080, Note_on_c, 1, 43, 0
1, 17080, Note_on_c, 1, 47, 94
1, 17100, Note_on_c, 1, 47, 0
1, 17100, Note_on_c, 0, 67, 0
1, 17100, Note_on_c, 1, 52, 94
1, 17120, Note_on_c, 1, 52, 0
1, 17120, Note_on_c, 1, 55, 94
1, 17140, Note_on_c, 1, 55, 0
1, 17140, Note_on_c, 1, 57, 94
1, 17160, Note_on_c, 1, 57, 0
1, 17160, Note_on_c, 1, 59, 94
1, 17180, Note_on_c, 1, 59, 0
1, 17180, Note_on_c, 1, 57, 94
1, 17200, Note_on_c, 1, 57, 0
1, 17200, Note_on_c, 1, 55, 94
1, 17220, Note_on_c, 1, 55, 0
1, 17220, Note_on_c, 1, 54, 94
1, 17240, Note_on_c, 1, 54, 0
1, 17240, Note_on_c, 1, 52, 94
1, 17260, Note_on_c, 1, 52, 0
1, 17260, Note_on_c, 1, 50, 94
1, 17280, Note_on_c, 1, 50, 0
1, 17280, Note_on_c, 1, 49, 94
1, 17300, Note_on_c, 0, 69, 94
1, 17320, Note_on_c, 0, 69, 0
1, 17320, Note_on_c, 0, 73, 94
1, 17340, Note_on_c, 0, 73, 0
1, 17340, Note_on_c, 0, 76, 94
1, 17360, Note_on_c, 0, 76, 0
1, 17360, Note_on_c, 0, 79, 94
1, 17380, Note_on_c, 0, 79, 0
1, 17380, Note_on_c, 0, 76, 94
1, 17400, Note_on_c, 0, 76, 0
1, 17400, Note_on_c, 1, 49, 0
1, 17400, Note_on_c, 0, 73, 94
1, 17400, Note_on_c, 1, 45, 94
1, 17420, Note_on_c, 0, 73, 0
1, 17420, Note_on_c, 0, 76, 94
1, 17440, Note_on_c, 0, 76, 0
1, 17440, Note_on_c, 0, 73, 94
1, 17460, Note_on_c, 0, 73, 0
1, 17460, Note_on_c, 0, 69, 94
1, 17480, Note_on_c, 0, 69, 0
1, 17480, Note_on_c, 0, 73, 94
1, 17500, Note_on_c, 0, 73, 0
1, 17500, Note_on_c, 0, 67, 94
1, 17520, Note_on_c, 0, 67, 0
1, 17520, Note_on_c, 1, 45, 0
1, 17520, Note_on_c, 0, 65, 94
1, 17520, Note_on_c, 0, 62, 94
1, 17520, Note_on_c, 1, 50, 94
1, 17540, Note_on_c, 1, 50, 0
1, 17540, Note_on_c, 1, 52, 94
1, 17560, Note_on_c, 1, 52, 0
1, 17560, Note_on_c, 1, 50, 94
1, 17580, Note_on_c, 1, 50, 0
1, 17580, Note_on_c, 0, 65, 0
1, 17580, Note_on_c, 0, 66, 94
1, 17580, Note_on_c, 1, 48, 94
1, 17600, Note_on_c, 1, 48, 0
1, 17600, Note_on_c, 1, 50, 94
1, 17620, Note_on_c, 1, 50, 0
1, 17620, Note_on_c, 1, 48, 94
1, 17640, Note_on_c, 1, 48, 0
1, 17640, Note_on_c, 0, 66, 0
1, 17640, Note_on_c, 0, 62, 0
1, 17640, Note_on_c, 0, 67, 94
1, 17640, Note_on_c, 0, 62, 94
1, 17640, Note_on_c, 1, 46, 94
1, 17660, Note_on_c, 1, 46, 0
1, 17660, Note_on_c, 1, 48, 94
1, 17680, Note_on_c, 1, 48, 0
1, 17680, Note_on_c, 1, 46, 94
1, 17700, Note_on_c, 1, 46, 0
1, 17700, Note_on_c, 0, 67, 0
1, 17700, Note_on_c, 0, 69, 94
1, 17700, Note_on_c, 1, 45, 94
1, 17720, Note_on_c, 1, 45, 0
1, 17720, Note_on_c, 1, 46, 94
1, 17740, Note_on_c, 1, 46, 0
1, 17740, Note_on_c, 1, 45, 94
1, 17760, Note_on_c, 1, 45, 0
1, 17760, Note_on_c, 0, 69, 0
1, 17760, Note_on_c, 0, 62, 0
1, 17760, Note_on_c, 0, 70, 94
1, 17760, Note_on_c, 1, 55, 94
1, 17820, Note_on_c, 1, 55, 0
1, 17820, Note_on_c, 1, 43, 94
1, 17850, Note_on_c, 0, 70, 0
1, 17850, Note_on_c, 0, 69, 94
1, 17880, Note_on_c, 0, 69, 0
1, 17880, Note_on_c, 0, 67, 94
1, 17900, Note_on_c, 0, 67, 0
1, 17900, Note_on_c, 0, 69, 94
1, 17920, Note_on_c, 0, 69, 0
1, 17920, Note_on_c, 0, 65, 94
1, 17940, Note_on_c, 0, 65, 0
1, 17940, Note_on_c, 1, 43, 0
1, 17940, Note_on_c, 0, 64, 94
1, 17940, Note_on_c, 1, 44, 94
1, 17960, Note_on_c, 0, 64, 0
1, 17960, Note_on_c, 0, 65, 94
1, 17980, Note_on_c, 0, 65, 0
1, 17980, Note_on_c, 0, 62, 94
1, 18000, Note_on_c, 0, 62, 0
1, 18000, Note_on_c, 1, 44, 0
1, 18000, Note_on_c, 0, 61, 94
1, 18000, Note_on_c, 1, 45, 94
1, 18020, Note_on_c, 0, 61, 0
1, 18020, Note_on_c, 0, 62, 94
1, 18040, Note_on_c, 0, 62, 0
1, 18040, Note_on_c, 0, 64, 94
1, 18060, Note_on_c, 0, 64, 0
1, 18060, Note_on_c, 0, 62, 94
1, 18080, Note_on_c, 0, 62, 0
1, 18080, Note_on_c, 0, 61, 94
1, 18100, Note_on_c, 0, 61, 0
1, 18100, Note_on_c, 0, 59, 94
1, 18120, Note_on_c, 0, 59, 0
1, 18120, Note_on_c, 1, 45, 0
1, 18120, Note_on_c, 1, 57, 94
1, 18140, Note_on_c, 1, 57, 0
1, 18140, Note_on_c, 1, 59, 94
1, 18160, Note_on_c, 1, 59, 0
1, 18160, Note_on_c, 1, 57, 94
1, 18180, Note_on_c, 1, 57, 0
1, 18180, Note_on_c, 1, 55, 94
1, 18200, Note_on_c, 1, 55, 0
1, 18200, Note_on_c, 1, 54, 94
1, 18220, Note_on_c, 1, 54, 0
1, 18220, Note_on_c, 1, 52, 94
1, 18240, Note_on_c, 1, 52, 0
1, 18240, Note_on_c, 0, 66, 65
1, 18240, Note_on_c, 0, 69, 65
1, 18240, Note_on_c, 1, 50, 67
1, 18260, Note_on_c, 0, 69, 0
1, 18260, Note_on_c, 0, 66, 0
1, 18260, Note_on_c, 0, 67, 65
1, 18260, Note_on_c, 0, 71, 65
1, 18280, Note_on_c, 0, 71, 0
1, 18280, Note_on_c, 0, 67, 0
1, 18280, Note_on_c, 0, 69, 65
1, 18280, Note_on_c, 0, 66, 65
1, 18300, Note_on_c, 0, 66, 0
1, 18300, Note_on_c, 0, 69, 0
1, 18300, Note_on_c, 0, 71, 65
1, 18300, Note_on_c, 0, 74, 65
1, 18320, Note_on_c, 0, 74, 0
1, 18320, Note_on_c, 0, 71, 0
1, 18320, Note_on_c, 0, 73, 65
1, 18320, Note_on_c, 0, 69, 65
1, 18340, Note_on_c, 0, 69, 0
1, 18340, Note_on_c, 0, 73, 0
1, 18340, Note_on_c, 0, 67, 65
1, 18340, Note_on_c, 0, 71, 65
1, 18360, Note_on_c, 0, 71, 0
1, 18360, Note_on_c, 0, 67, 0
1, 18360, Note_on_c, 1, 50, 0
1, 18360, Note_on_c, 0, 66, 65
1, 18360, Note_on_c, 0, 69, 65
1, 18360, Note_on_c, 1, 38, 67
1, 18380, Note_on_c, 0, 69, 0
1, 18380, Note_on_c, 0, 66, 0
1, 18380, Note_on_c, 0, 71, 65
1, 18380, Note_on_c, 0, 67, 65
1, 18400, Note_on_c, 0, 67, 0
1, 18400, Note_on_c, 0, 71, 0
1, 18400, Note_on_c, 0, 69, 65
1, 18400, Note_on_c, 0, 66, 65
1, 18420, Note_on_c, 0, 66, 0
1, 18420, Note_on_c, 0, 69, 0
1, 18420, Note_on_c, 0, 66, 65
1, 18420, Note_on_c, 0, 69, 65
1, 18440, Note_on_c, 0, 69, 0
1, 18440, Note_on_c, 0, 66, 0
1, 18440, Note_on_c, 0, 64, 65
1, 18440, Note_on_c, 0, 67, 65
1, 18460, Note_on_c, 0, 67, 0
1, 18460, Note_on_c, 0, 64, 0
1, 18460, Note_on_c, 0, 66, 65
1, 18460, Note_on_c, 0, 62, 65
1, 18480, Note_on_c, 0, 62, 0
1, 18480, Note_on_c, 0, 66, 0
1, 18480, Note_on_c, 1, 38, 0
1, 18480, Note_on_c, 0, 61, 109
1, 18480, Note_on_c, 0, 64, 109
1, 18480, Note_on_c, 1, 45, 104
1, 18510, Note_on_c, 0, 64, 0
1, 18510, Note_on_c, 0, 61, 0
1, 18510, Note_on_c, 0, 69, 109
1, 18540, Note_on_c, 0, 69, 0
1, 18540, Note_on_c, 0, 73, 109
1, 18570, Note_on_c, 0, 73, 0
1, 18570, Note_on_c, 0, 74, 109
1, 18600, Note_on_c, 0, 74, 0
1, 18600, Note_on_c, 1, 45, 0
1, 18600, Note_on_c, 0, 76, 109
1, 18630, Note_on_c, 0, 76, 0
1, 18630, Note_on_c, 0, 73, 109
1, 18660, Note_on_c, 0, 73, 0
1, 18660, Note_on_c, 0, 69, 108
1, 18690, Note_on_c, 0, 69, 0
1, 18690, Note_on_c, 0, 67, 107
1, 18720, Note_on_c, 0, 67, 0
1, 18720, Note_on_c, 0, 66, 67
1, 18720, Note_on_c, 0, 69, 87
1, 18720, Note_on_c, 1, 50, 67
1, 18740, Note_on_c, 0, 69, 0
1, 18740, Note_on_c, 0, 66, 0
1, 18740, Note_on_c, 0, 67, 106
1, 18740, Note_on_c, 0, 71, 66
1, 18760, Note_on_c, 0, 71, 0
1, 18760, Note_on_c, 0, 67, 0
1, 18760, Note_on_c, 0, 69, 65
1, 18760, Note_on_c, 0, 66, 65
1, 18780, Note_on_c, 0, 66, 0
1, 18780, Note_on_c, 0, 69, 0
1, 18780, Note_on_c, 0, 71, 65
1, 18780, Note_on_c, 0, 74, 65
1, 18800, Note_on_c, 0, 74, 0
1, 18800, Note_on_c, 0, 71, 0
1, 18800, Note_on_c, 0, 73, 65
1, 18800, Note_on_c, 0, 69, 65
1, 18820, Note_on_c, 0, 69, 0
1, 18820, Note_on_c, 0, 73, 0
1, 18820, Note_on_c, 0, 67, 65
1, 18820, Note_on_c, 0, 71, 65
1, 18840, Note_on_c, 0, 71, 0
1, 18840, Note_on_c, 0, 67, 0
1, 18840, Note_on_c, 1, 50, 0
1, 18840, Note_on_c, 0, 66, 65
1, 18840, Note_on_c, 0, 69, 65
1, 18840, Note_on_c, 1, 38, 67
1, 18860, Note_on_c, 0, 69, 0
1, 18860, Note_on_c, 0, 66, 0
1, 18860, Note_on_c, 0, 71, 65
1, 18860, Note_on_c, 0, 67, 65
1, 18880, Note_on_c, 0, 67, 0
1, 18880, Note_on_c, 0, 71, 0
1, 18880, Note_on_c, 0, 69, 65
1, 18880, Note_on_c, 0, 66, 65
1, 18900, Note_on_c, 0, 66, 0
1, 18900, Note_on_c, 0, 69, 0
1, 18900, Note_on_c, 0, 66, 100
1, 18900, Note_on_c, 0, 69, 100
1, 18920, Note_on_c, 0, 69, 0
1, 18920, Note_on_c, 0, 66, 0
1, 18920, Note_on_c, 0, 64, 100
1, 18920, Note_on_c, 0, 67, 100
1, 18940, Note_on_c, 0, 67, 0
1, 18940, Note_on_c, 0, 64, 0
1, 18940, Note_on_c, 0, 66, 100
1, 18940, Note_on_c, 0, 62, 100
1, 18960, Note_on_c, 0, 62, 0
1, 18960, Note_on_c, 0, 66, 0
1, 18960, Note_on_c, 1, 38, 0
1, 18960, Note_on_c, 0, 61, 100
1, 18960, Note_on_c, 0, 64, 100
1, 18960, Note_on_c, 1, 45, 92
1, 18990, Note_on_c, 0, 64, 0
1, 18990, Note_on_c, 0, 61, 0
1, 18990, Note_on_c, 0, 69, 100
1, 19020, Note_on_c, 0, 69, 0
1, 19020, Note_on_c, 0, 73, 100
1, 19050, Note_on_c, 0, 73, 0
1, 19050, Note_on_c, 0, 74, 100
1, 19080, Note_on_c, 0, 74, 0
1, 19080, Note_on_c, 1, 45, 0
1, 19080, Note_on_c, 0, 76, 100
1, 19110, Note_on_c, 0, 76, 0
1, 19110, Note_on_c, 0, 73, 100
1, 19140, Note_on_c, 0, 73, 0
1, 19140, Note_on_c, 0, 69, 100
1, 19170, Note_on_c, 0, 69, 0
1, 19170, Note_on_c, 0, 67, 100
1, 19200, Note_on_c, 0, 67, 0
1, 19200, Note_on_c, 0, 66, 100
1, 19200, Note_on_c, 1, 50, 94
1, 19220, Note_on_c, 0, 66, 0
1, 19220, Note_on_c, 0, 74, 100
1, 19240, Note_on_c, 0, 74, 0
1, 19240, Note_on_c, 0, 66, 100
1, 19260, Note_on_c, 0, 66, 0
1, 19260, Note_on_c, 1, 50, 0
1, 19260, Note_on_c, 0, 67, 100
1, 19260, Note_on_c, 1, 52, 95
1, 19280, Note_on_c, 0, 67, 0
1, 19280, Note_on_c, 0, 74, 100
1, 19300, Note_on_c, 0, 74, 0
1, 19300, Note_on_c, 0, 67, 100
1, 19320, Note_on_c, 0, 67, 0
1, 19320, Note_on_c, 1, 52, 0
1, 19320, Note_on_c, 0, 69, 100
1, 19320, Note_on_c, 1, 54, 96
1, 19340, Note_on_c, 0, 69, 0
1, 19340, Note_on_c, 0, 74, 100
1, 19360, Note_on_c, 0, 74, 0
1, 19360, Note_on_c, 0, 69, 99
1, 19380, Note_on_c, 0, 69, 0
1, 19380, Note_on_c, 1, 54, 0
1, 19380, Note_on_c, 0, 71, 99
1, 19380, Note_on_c, 1, 55, 97
1, 19400, Note_on_c, 0, 71, 0
1, 19400, Note_on_c, 0, 74, 99
1, 19420, Note_on_c, 0, 74, 0
1, 19420, Note_on_c, 0, 71, 99
1, 19440, Note_on_c, 0, 71, 0
1, 19440, Note_on_c, 1, 55, 0
1, 19440, Note_on_c, 0, 69, 98
1, 19440, Note_on_c, 1, 54, 98
1, 19460, Note_on_c, 0, 69, 0
1, 19460, Note_on_c, 0, 74, 98
1, 19480, Note_on_c, 0, 74, 0
1, 19480, Note_on_c, 0, 69, 98
1, 19500, Note_on_c, 0, 69, 0
1, 19500, Note_on_c, 1, 54, 0
1, 19500, Note_on_c, 0, 67, 97
1, 19500, Note_on_c, 1, 52, 98
1, 19520, Note_on_c, 0, 67, 0
1, 19520, Note_on_c, 0, 74, 97
1, 19540, Note_on_c, 0, 74, 0
1, 19540, Note_on_c, 0, 67, 97
1, 19560, Note_on_c, 0, 67, 0
1, 19560, Note_on_c, 1, 52, 0
1, 19560, Note_on_c, 0, 66, 97
1, 19560, Note_on_c, 1, 50, 99
1, 19580, Note_on_c, 0, 66, 0
1, 19580, Note_on_c, 0, 74, 97
1, 19600, Note_on_c, 0, 74, 0
1, 19600, Note_on_c, 0, 66, 96
1, 19620, Note_on_c, 0, 66, 0
1, 19620, Note_on_c, 1, 50, 0
1, 19620, Note_on_c, 0, 67, 96
1, 19620, Note_on_c, 1, 52, 100
1, 19640, Note_on_c, 0, 67, 0
1, 19640, Note_on_c, 0, 74, 96
1, 19660, Note_on_c, 0, 74, 0
1, 19660, Note_on_c, 0, 67, 96
1, 19680, Note_on_c, 0, 67, 0
1, 19680, Note_on_c, 1, 52, 0
1, 19680, Note_on_c, 0, 69, 96
1, 19680, Note_on_c, 1, 54, 101
1, 19700, Note_on_c, 0, 69, 0
1, 19700, Note_on_c, 0, 74, 96
1, 19720, Note_on_c, 0, 74, 0
1, 19720, Note_on_c, 0, 73, 96
1, 19740, Note_on_c, 0, 73, 0
1, 19740, Note_on_c, 1, 54, 0
1, 19740, Note_on_c, 0, 71, 96
1, 19740, Note_on_c, 1, 55, 102
1, 19760, Note_on_c, 0, 71, 0
1, 19760, Note_on_c, 0, 69, 96
1, 19780, Note_on_c, 0, 69, 0
1, 19780, Note_on_c, 0, 67, 96
1, 19800, Note_on_c, 0, 67, 0
1, 19800, Note_on_c, 1, 55, 0
1, 19800, Note_on_c, 0, 69, 96
1, 19800, Note_on_c, 0, 66, 96
1, 19800, Note_on_c, 1, 57, 102
1, 19820, Note_on_c, 0, 66, 0
1, 19820, Note_on_c, 0, 69, 0
1, 19820, Note_on_c, 0, 71, 96
1, 19820, Note_on_c, 0, 67, 96
1, 19840, Note_on_c, 0, 67, 0
1, 19840, Note_on_c, 0, 71, 0
1, 19840, Note_on_c, 0, 69, 95
1, 19840, Note_on_c, 0, 66, 95
1, 19860, Note_on_c, 0, 66, 0
1, 19860, Note_on_c, 0, 69, 0
1, 19860, Note_on_c, 1, 57, 0
1, 19860, Note_on_c, 0, 64, 95
1, 19860, Note_on_c, 0, 67, 95
1, 19860, Note_on_c, 1, 45, 104
1, 19880, Note_on_c, 0, 67, 0
1, 19880, Note_on_c, 0, 64, 0
1, 19880, Note_on_c, 0, 62, 95
1, 19880, Note_on_c, 0, 66, 95
1, 19900, Note_on_c, 0, 66, 0
1, 19900, Note_on_c, 0, 62, 0
1, 19900, Note_on_c, 0, 61, 94
1, 19900, Note_on_c, 0, 64, 94
1, 19920, Note_on_c, 0, 64, 0
1, 19920, Note_on_c, 0, 61, 0
1, 19920, Note_on_c, 1, 45, 0
1, 19920, Note_on_c, 0, 62, 93
1, 19920, Note_on_c, 1, 50, 106
1, 19980, Note_on_c, 1, 50, 0
1, 20010, Note_on_c, 0, 62, 0
1, 20010, Note_on_c, 0, 64, 92
1, 20040, Note_on_c, 0, 64, 0
1, 20040, Note_on_c, 0, 65, 91
1, 20070, Note_on_c, 0, 65, 0
1, 20070, Note_on_c, 0, 66, 90
1, 20100, Note_on_c, 0, 66, 0
1, 20100, Note_on_c, 0, 67, 89
1, 20130, Note_on_c, 0, 67, 0
1, 20130, Note_on_c, 0, 68, 88
1, 20155, Tempo, 594059
1, 20160, Key_signature, 3, "major"
1, 20160, Note_on_c, 0, 68, 0
1, 20160, Note_on_c, 0, 69, 87
1, 20160, Note_on_c, 0, 61, 87
1, 20160, Note_on_c, 1, 57, 67
1, 20220, Note_on_c, 0, 61, 0
1, 20220, Note_on_c, 0, 69, 0
1, 20220, Note_on_c, 0, 64, 67
1, 20220, Note_on_c, 0, 68, 67
1, 20280, Note_on_c, 0, 68, 0
1, 20280, Note_on_c, 0, 64, 0
1, 20280, Note_on_c, 1, 57, 0
1, 20280, Note_on_c, 0, 62, 67
1, 20280, Note_on_c, 0, 66, 67
1, 20280, Note_on_c, 1, 57, 67
1, 20340, Note_on_c, 1, 57, 0
1, 20340, Note_on_c, 0, 66, 0
1, 20340, Note_on_c, 0, 62, 0
1, 20340, Note_on_c, 0, 61, 67
1, 20340, Note_on_c, 0, 64, 67
1, 20340, Note_on_c, 1, 57, 67
1, 20400, Note_on_c, 1, 57, 0
1, 20400, Note_on_c, 0, 64, 0
1, 20400, Note_on_c, 0, 61, 0
1, 20400, Note_on_c, 0, 62, 67
1, 20400, Note_on_c, 0, 66, 67
1, 20400, Note_on_c, 1, 57, 67
1, 20460, Note_on_c, 1, 57, 0
1, 20460, Note_on_c, 0, 66, 0
1, 20460, Note_on_c, 0, 62, 0
1, 20460, Note_on_c, 0, 61, 67
1, 20460, Note_on_c, 0, 64, 67
1, 20460, Note_on_c, 1, 57, 67
1, 20520, Note_on_c, 1, 57, 0
1, 20520, Note_on_c, 0, 64, 0
1, 20520, Note_on_c, 0, 61, 0
1, 20520, Note_on_c, 0, 64, 67
1, 20580, Note_on_c, 0, 64, 0
1, 20580, Note_on_c, 0, 64, 67
1, 20640, Note_on_c, 0, 64, 0
1, 20640, Note_on_c, 0, 69, 67
1, 20640, Note_on_c, 0, 64, 67
1, 20640, Note_on_c, 1, 61, 67
1, 20700, Note_on_c, 1, 61, 0
1, 20700, Note_on_c, 1, 57, 67
1, 20730, Note_on_c, 0, 69, 0
1, 20730, Note_on_c, 0, 71, 67
1, 20745, Note_on_c, 0, 71, 0
1, 20745, Note_on_c, 0, 73, 67
1, 20760, Note_on_c, 0, 73, 0
1, 20760, Note_on_c, 1, 57, 0
1, 20760, Note_on_c, 0, 64, 0
1, 20760, Note_on_c, 0, 64, 67
1, 20760, Note_on_c, 0, 71, 67
1, 20760, Note_on_c, 0, 74, 67
1, 20760, Note_on_c, 1, 56, 67
1, 20820, Note_on_c, 1, 56, 0
1, 20820, Note_on_c, 0, 64, 0
1, 20820, Note_on_c, 0, 71, 0
1, 20820, Note_on_c, 0, 74, 0
1, 20820, Note_on_c, 0, 73, 67
1, 20820, Note_on_c, 0, 69, 67
1, 20820, Note_on_c, 0, 64, 67
1, 20820, Note_on_c, 1, 57, 67
1, 20880, Note_on_c, 1, 57, 0
1, 20880, Note_on_c, 0, 73, 0
1, 20880, Note_on_c, 0, 69, 0
1, 20880, Note_on_c, 0, 64, 0
1, 20880, Note_on_c, 0, 73, 67
1, 20880, Note_on_c, 0, 69, 67
1, 20880, Note_on_c, 0, 64, 67
1, 20880, Note_on_c, 1, 64, 67
1, 20940, Note_on_c, 1, 64, 0
1, 20940, Note_on_c, 0, 73, 0
1, 20940, Note_on_c, 0, 69, 0
1, 20940, Note_on_c, 0, 64, 0
1, 20940, Note_on_c, 0, 71, 67
1, 20940, Note_on_c, 0, 68, 67
1, 20940, Note_on_c, 0, 64, 67
1, 20940, Note_on_c, 1, 52, 67
1, 21000, Note_on_c, 1, 52, 0
1, 21000, Note_on_c, 0, 71, 0
1, 21000, Note_on_c, 0, 68, 0
1, 21000, Note_on_c, 0, 64, 0
1, 21000, Note_on_c, 0, 64, 107
1, 21060, Note_on_c, 0, 64, 0
1, 21060, Note_on_c, 0, 64, 107
1, 21120, Note_on_c, 0, 64, 0
1, 21120, Note_on_c, 0, 61, 107
1, 21120, Note_on_c, 0, 69, 107
1, 21120, Note_on_c, 1, 57, 107
1, 21180, Note_on_c, 0, 69, 0
1, 21180, Note_on_c, 0, 61, 0
1, 21180, Note_on_c, 0, 68, 107
1, 21180, Note_on_c, 0, 64, 107
1, 21240, Note_on_c, 0, 64, 0
1, 21240, Note_on_c, 0, 68, 0
1, 21240, Note_on_c, 1, 57, 0
1, 21240, Note_on_c, 0, 62, 107
1, 21240, Note_on_c, 0, 66, 107
1, 21240, Note_on_c, 1, 57, 107
1, 21300, Note_on_c, 1, 57, 0
1, 21300, Note_on_c, 0, 66, 0
1, 21300, Note_on_c, 0, 62, 0
1, 21300, Note_on_c, 0, 61, 107
1, 21300, Note_on_c, 0, 64, 107
1, 21300, Note_on_c, 1, 57, 107
1, 21360, Note_on_c, 1, 57, 0
1, 21360, Note_on_c, 0, 64, 0
1, 21360, Note_on_c, 0, 61, 0
1, 21360, Note_on_c, 0, 62, 107
1, 21360, Note_on_c, 0, 66, 107
1, 21360, Note_on_c, 1, 57, 107
1, 21420, Note_on_c, 1, 57, 0
1, 21420, Note_on_c, 0, 66, 0
1, 21420, Note_on_c, 0, 62, 0
1, 21420, Note_on_c, 0, 61, 107
1, 21420, Note_on_c, 0, 64, 107
1, 21420, Note_on_c, 1, 57, 107
1, 21480, Note_on_c, 1, 57, 0
1, 21480, Note_on_c, 0, 64, 0
1, 21480, Note_on_c, 0, 61, 0
1, 21480, Note_on_c, 0, 69, 107
1, 21540, Note_on_c, 0, 69, 0
1, 21540, Note_on_c, 0, 69, 107
1, 21600, Note_on_c, 0, 69, 0
1, 21600, Note_on_c, 0, 66, 107
1, 21600, Note_on_c, 0, 74, 107
1, 21600, Note_on_c, 1, 50, 107
1, 21660, Note_on_c, 1, 50, 0
1, 21660, Note_on_c, 1, 50, 107
1, 21690, Note_on_c, 0, 74, 0
1, 21690, Note_on_c, 0, 66, 0
1, 21690, Note_on_c, 0, 73, 107
1, 21720, Note_on_c, 0, 73, 0
1, 21720, Note_on_c, 1, 50, 0
1, 21720, Note_on_c, 0, 68, 107
1, 21720, Note_on_c, 0, 71, 107
1, 21720, Note_on_c, 1, 52, 107
1, 21780, Note_on_c, 1, 52, 0
1, 21780, Note_on_c, 0, 71, 0
1, 21780, Note_on_c, 0, 73, 107
1, 21780, Note_on_c, 1, 52, 107
1, 21840, Note_on_c, 1, 52, 0
1, 21840, Note_on_c, 0, 73, 0
1, 21840, Note_on_c, 0, 68, 0
1, 21840, Note_on_c, 0, 69, 127
1, 21840, Note_on_c, 1, 45, 127
1, 21870, Note_on_c, 0, 69, 0
1, 21870, Note_on_c, 0, 73, 127
1, 21900, Note_on_c, 0, 73, 0
1, 21900, Note_on_c, 0, 76, 127
1, 21930, Note_on_c, 0, 76, 0
1, 21930, Note_on_c, 0, 81, 127
1, 21960, Note_on_c, 0, 81, 0
1, 21960, Note_on_c, 1, 45, 0
1, 21960, Note_on_c, 0, 85, 127
1, 21990, Note_on_c, 0, 85, 0
1, 21990, Note_on_c, 0, 81, 127
1, 22020, Note_on_c, 0, 81, 0
1, 22020, Note_on_c, 0, 88, 127
1, 22050, Note_on_c, 0, 88, 0
1, 22050, Note_on_c, 0, 85, 127
1, 22080, Note_on_c, 0, 85, 0
1, 22080, Note_on_c, 0, 86, 127
1, 22080, Note_on_c, 1, 52, 127
1, 22110, Note_on_c, 0, 86, 0
1, 22110, Note_on_c, 0, 83, 127
1, 22140, Note_on_c, 0, 83, 0
1, 22140, Note_on_c, 0, 80, 127
1, 22170, Note_on_c, 0, 80, 0
1, 22170, Note_on_c, 0, 76, 127
1, 22200, Note_on_c, 0, 76, 0
1, 22200, Note_on_c, 1, 52, 0
1, 22200, Note_on_c, 0, 74, 127
1, 22230, Note_on_c, 0, 74, 0
1, 22230, Note_on_c, 0, 76, 127
1, 22260, Note_on_c, 0, 76, 0
1, 22260, Note_on_c, 0, 71, 127
1, 22290, Note_on_c, 0, 71, 0
1, 22290, Note_on_c, 0, 76, 127
1, 22320, Note_on_c, 0, 76, 0
1, 22320, Note_on_c, 0, 69, 127
1, 22320, Note_on_c, 1, 45, 127
1, 22350, Note_on_c, 0, 69, 0
1, 22350, Note_on_c, 0, 73, 127
1, 22380, Note_on_c, 0, 73, 0
1, 22380, Note_on_c, 0, 76, 127
1, 22410, Note_on_c, 0, 76, 0
1, 22410, Note_on_c, 0, 81, 127
1, 22440, Note_on_c, 0, 81, 0
1, 22440, Note_on_c, 1, 45, 0
1, 22440, Note_on_c, 0, 85, 127
1, 22470, Note_on_c, 0, 85, 0
1, 22470, Note_on_c, 0, 81, 127
1, 22500, Note_on_c, 0, 81, 0
1, 22500, Note_on_c, 0, 88, 127
1, 22530, Note_on_c, 0, 88, 0
1, 22530, Note_on_c, 0, 85, 127
1, 22560, Note_on_c, 0, 85, 0
1, 22560, Note_on_c, 0, 86, 127
1, 22560, Note_on_c, 1, 52, 127
1, 22590, Note_on_c, 0, 86, 0
1, 22590, Note_on_c, 0, 83, 127
1, 22620, Note_on_c, 0, 83, 0
1, 22620, Note_on_c, 0, 80, 127
1, 22650, Note_on_c, 0, 80, 0
1, 22650, Note_on_c, 0, 76, 127
1, 22680, Note_on_c, 0, 76, 0
1, 22680, Note_on_c, 1, 52, 0
1, 22680, Note_on_c, 0, 74, 127
1, 22710, Note_on_c, 0, 74, 0
1, 22710, Note_on_c, 0, 76, 127
1, 22740, Note_on_c, 0, 76, 0
1, 22740, Note_on_c, 0, 71, 127
1, 22770, Note_on_c, 0, 71, 0
1, 22770, Note_on_c, 0, 76, 127
1, 22800, Note_on_c, 0, 76, 0
1, 22800, Note_on_c, 0, 69, 127
1, 22800, Note_on_c, 1, 45, 127
1, 22830, Note_on_c, 0, 69, 0
1, 22830, Note_on_c, 0, 81, 127
1, 22860, Note_on_c, 0, 81, 0
1, 22860, Note_on_c, 0, 80, 127
1, 22890, Note_on_c, 0, 80, 0
1, 22890, Note_on_c, 0, 81, 127
1, 22920, Note_on_c, 0, 81, 0
1, 22920, Note_on_c, 1, 45, 0
1, 22920, Note_on_c, 0, 85, 127
1, 22920, Note_on_c, 1, 57, 127
1, 22950, Note_on_c, 0, 85, 0
1, 22950, Note_on_c, 0, 81, 127
1, 22980, Note_on_c, 0, 81, 0
1, 22980, Note_on_c, 0, 85, 127
1, 23010, Note_on_c, 0, 85, 0
1, 23010, Note_on_c, 0, 81, 127
1, 23040, Note_on_c, 0, 81, 0
1, 23040, Note_on_c, 1, 57, 0
1, 23040, Note_on_c, 1, 50, 127
1, 23070, Note_on_c, 0, 78, 127
1, 23070, Note_on_c, 0, 74, 127
1, 23100, Note_on_c, 0, 74, 0
1, 23100, Note_on_c, 0, 78, 0
1, 23100, Note_on_c, 0, 73, 127
1, 23100, Note_on_c, 0, 77, 127
1, 23130, Note_on_c, 0, 77, 0
1, 23130, Note_on_c, 0, 73, 0
1, 23130, Note_on_c, 0, 74, 127
1, 23130, Note_on_c, 0, 78, 127
1, 23160, Note_on_c, 0, 78, 0
1, 23160, Note_on_c, 0, 74, 0
1, 23160, Note_on_c, 1, 50, 0
1, 23160, Note_on_c, 0, 81, 127
1, 23160, Note_on_c, 0, 78, 127
1, 23190, Note_on_c, 0, 78, 0
1, 23190, Note_on_c, 0, 81, 0
1, 23190, Note_on_c, 0, 74, 127
1, 23190, Note_on_c, 0, 78, 127
1, 23220, Note_on_c, 0, 78, 0
1, 23220, Note_on_c, 0, 74, 0
1, 23220, Note_on_c, 0, 81, 127
1, 23220, Note_on_c, 0, 78, 127
1, 23250, Note_on_c, 0, 78, 0
1, 23250, Note_on_c, 0, 81, 0
1, 23250, Note_on_c, 0, 74, 127
1, 23250, Note_on_c, 0, 78, 127
1, 23280, Note_on_c, 0, 78, 0
1, 23280, Note_on_c, 0, 74, 0
1, 23280, Note_on_c, 0, 73, 127
1, 23280, Note_on_c, 0, 76, 127
1, 23280, Note_on_c, 1, 52, 127
1, 23340, Note_on_c, 0, 76, 0
1, 23340, Note_on_c, 0, 73, 0
1, 23340, Note_on_c, 0, 69, 127
1, 23340, Note_on_c, 0, 73, 127
1, 23400, Note_on_c, 0, 73, 0
1, 23400, Note_on_c, 0, 69, 0
1, 23400, Note_on_c, 1, 52, 0
1, 23400, Note_on_c, 0, 71, 127
1, 23400, Note_on_c, 0, 74, 127
1, 23400, Note_on_c, 1, 40, 127
1, 23460, Note_on_c, 0, 74, 0
1, 23460, Note_on_c, 0, 71, 0
1, 23460, Note_on_c, 0, 68, 127
1, 23460, Note_on_c, 0, 71, 127
1, 23520, Note_on_c, 0, 71, 0
1, 23520, Note_on_c, 0, 68, 0
1, 23520, Note_on_c, 1, 40, 0
1, 23520, Note_on_c, 0, 69, 127
1, 23520, Note_on_c, 1, 45, 127
1, 23615, Tempo, 594059
1, 23640, Tempo, 618557
1, 23640, Note_on_c, 1, 45, 0
1, 23640, Note_on_c, 0, 69, 0
1, 23640, Note_on_c, 0, 64, 94
1, 23700, Note_on_c, 0, 64, 0
1, 23700, Note_on_c, 0, 64, 84
1, 23760, Note_on_c, 0, 64, 0
1, 23760, Note_on_c, 0, 69, 82
1, 23760, Note_on_c, 0, 61, 82
1, 23760, Note_on_c, 1, 57, 84
1, 23820, Note_on_c, 0, 61, 0
1, 23820, Note_on_c, 0, 69, 0
1, 23820, Note_on_c, 0, 64, 82
1, 23820, Note_on_c, 0, 68, 82
1, 23880, Note_on_c, 0, 68, 0
1, 23880, Note_on_c, 0, 64, 0
1, 23880, Note_on_c, 1, 57, 0
1, 23880, Note_on_c, 0, 62, 81
1, 23880, Note_on_c, 0, 66, 81
1, 23880, Note_on_c, 1, 57, 82
1, 23940, Note_on_c, 1, 57, 0
1, 23940, Note_on_c, 0, 66, 0
1, 23940, Note_on_c, 0, 62, 0
1, 23940, Note_on_c, 0, 61, 80
1, 23940, Note_on_c, 0, 64, 80
1, 23940, Note_on_c, 1, 57, 81
1, 24000, Note_on_c, 1, 57, 0
1, 24000, Note_on_c, 0, 64, 0
1, 24000, Note_on_c, 0, 61, 0
1, 24000, Note_on_c, 0, 62, 78
1, 24000, Note_on_c, 0, 66, 78
1, 24000, Note_on_c, 1, 57, 80
1, 24060, Note_on_c, 1, 57, 0
1, 24060, Note_on_c, 0, 66, 0
1, 24060, Note_on_c, 0, 62, 0
1, 24060, Note_on_c, 0, 61, 77
1, 24060, Note_on_c, 0, 64, 77
1, 24060, Note_on_c, 1, 57, 78
1, 24120, Note_on_c, 1, 57, 0
1, 24120, Note_on_c, 0, 64, 0
1, 24120, Note_on_c, 0, 61, 0
1, 24120, Note_on_c, 0, 69, 75
1, 24180, Note_on_c, 0, 69, 0
1, 24180, Note_on_c, 0, 69, 73
1, 24235, Tempo, 618557
1, 24240, Note_on_c, 0, 69, 0
1, 24240, Note_on_c, 0, 74, 72
1, 24240, Note_on_c, 1, 50, 73
1, 24250, Tempo, 625000
1, 24260, Tempo, 631579
1, 24275, Tempo, 638298
1, 24285, Tempo, 645161
1, 24295, Tempo, 652174
1, 24300, Note_on_c, 1, 50, 0
1, 24300, Note_on_c, 1, 52, 71
1, 24310, Tempo, 659341
1, 24320, Tempo, 666667
1, 24330, Tempo, 674157
1, 24330, Note_on_c, 0, 74, 0
1, 24330, Note_on_c, 0, 73, 69
1, 24345, Tempo, 681818
1, 24355, Tempo, 689655
1, 24360, Note_on_c, 0, 73, 0
1, 24360, Note_on_c, 1, 52, 0
1, 24360, Note_on_c, 0, 71, 68
1, 24360, Note_on_c, 0, 68, 68
1, 24360, Note_on_c, 1, 52, 70
1, 24365, Tempo, 697674
1, 24380, Tempo, 705882
1, 24390, Tempo, 714286
1, 24400, Tempo, 722892
1, 24415, Tempo, 731707
1, 24420, Note_on_c, 1, 52, 0
1, 24420, Note_on_c, 0, 68, 0
1, 24420, Note_on_c, 0, 71, 0
1, 24420, Note_on_c, 0, 73, 66
1, 24420, Note_on_c, 1, 52, 68
1, 24425, Tempo, 740741
1, 24435, Tempo, 750000
1, 24450, Tempo, 759494
1, 24460, Tempo, 769231
1, 24470, Tempo, 779221
1, 24480, Note_on_c, 1, 52, 0
1, 24480, Note_on_c, 0, 73, 0
1, 24480, Note_on_c, 0, 61, 65
1, 24480, Note_on_c, 0, 69, 65
1, 24480, Note_on_c, 1, 45, 66
1, 24485, Tempo, 789474
1, 24495, Tempo, 800000
1, 24505, Tempo, 810811
1, 24520, Tempo, 821918
1, 24530, Tempo, 833333
1, 24540, Tempo, 845070
1, 24555, Tempo, 857143
1, 24565, Tempo, 869565
1, 24575, Tempo, 882353
1, 24590, Tempo, 895522
1, 24600, Tempo, 909091
1, 24600, Note_on_c, 1, 45, 0
1, 24600, Note_on_c, 0, 69, 0
1, 24600, Note_on_c, 0, 61, 0
1, 24610, Tempo, 923077
1, 24625, Tempo, 937500
1, 24635, Tempo, 952381
1, 24645, Tempo, 967742
1, 24660, Tempo, 983607
1, 24670, Tempo, 1000000
1, 24680, Tempo, 1016949
1, 24695, Tempo, 1034483
1, 24705, Tempo, 1052632
1, 24715, Tempo, 1071429
1, 24730, Tempo, 1090909
1, 24740, Tempo, 1111111
1, 24750, Tempo, 1132075
1, 25215, Tempo, 600000
1, 25215, End_track
0, 0, End_of_file